0, 0, Header, 0, 1, 384
1, 0, Start_track
1, 0, Title_t, "Funerailles--Reed Tetzloff         "
1, 0, Text_t, "2008 e-Piano Junior Competition virtual audition round"
1, 0, Text_t, "recorded January and February 2008"
1, 0, Text_t, "http://www.piano-e-competition.com/"
1, 0, Text_t, "File processed for distribution by software from Zenph Studios, Inc., http://www.zenph.com"
1, 0, Instrument_name_t, "Yamaha Disklavier Pro Mark IV concert grand piano, model DCFIIISM4PRO"
1, 0, Sequencer_specific, 39, 67, 113, 0, 1, 0, 1, 0, 70, 117, 110, 101, 114, 97, 105, 108, 108, 101, 115, 32, 32, 32, 32, 32, 82, 101, 101, 100, 32, 84, 101, 116, 122, 108, 111, 102, 102, 32, 32, 32
1, 0, Sequencer_specific, 6, 67, 113, 0, 0, 0, 69
1, 0, System_exclusive, 21, 67, 113, 126, 21, 0, 2, 2, 0, 9, 10, 6, 4, 7, 8, 3, 12, 2, 0, 13, 5, 247
1, 0, Sequencer_specific, 5, 67, 123, 12, 2, 1
1, 0, Tempo, 512820
1, 0, Time_signature, 4, 2, 24, 8
1, 0, System_exclusive, 5, 126, 127, 9, 1, 247
1, 1, System_exclusive, 8, 67, 16, 76, 0, 0, 126, 0, 247
1, 2, System_exclusive, 8, 67, 16, 76, 8, 9, 7, 1, 247
1, 3, Control_c, 0, 0, 0
1, 3, Control_c, 1, 0, 0
1, 3, Control_c, 2, 0, 0
1, 3, Control_c, 3, 0, 0
1, 3, Control_c, 4, 0, 0
1, 3, Control_c, 5, 0, 0
1, 3, Control_c, 6, 0, 0
1, 3, Control_c, 7, 0, 0
1, 3, Control_c, 8, 0, 0
1, 3, Control_c, 9, 0, 127
1, 3, Control_c, 10, 0, 0
1, 3, Control_c, 11, 0, 0
1, 3, Control_c, 12, 0, 0
1, 3, Control_c, 13, 0, 0
1, 3, Control_c, 14, 0, 0
1, 3, Control_c, 15, 0, 0
1, 4, Control_c, 0, 32, 0
1, 4, Control_c, 1, 32, 0
1, 4, Control_c, 2, 32, 0
1, 4, Control_c, 3, 32, 0
1, 4, Control_c, 4, 32, 0
1, 4, Control_c, 5, 32, 0
1, 4, Control_c, 6, 32, 0
1, 4, Control_c, 7, 32, 0
1, 4, Control_c, 8, 32, 0
1, 4, Control_c, 9, 32, 0
1, 4, Control_c, 10, 32, 0
1, 4, Control_c, 11, 32, 0
1, 4, Control_c, 12, 32, 0
1, 4, Control_c, 13, 32, 0
1, 4, Control_c, 14, 32, 0
1, 4, Control_c, 15, 32, 0
1, 5, Program_c, 0, 0
1, 5, Program_c, 1, 0
1, 5, Program_c, 2, 0
1, 5, Program_c, 3, 0
1, 5, Program_c, 4, 0
1, 5, Program_c, 5, 0
1, 5, Program_c, 6, 0
1, 5, Program_c, 7, 0
1, 5, Program_c, 8, 0
1, 5, Program_c, 9, 0
1, 5, Program_c, 10, 0
1, 5, Program_c, 11, 0
1, 5, Program_c, 12, 0
1, 5, Program_c, 13, 0
1, 5, Program_c, 14, 0
1, 5, Program_c, 15, 0
1, 6, Control_c, 0, 7, 100
1, 117, Control_c, 0, 64, 15
1, 117, Control_c, 0, 67, 15
1, 229, Control_c, 0, 64, 31
1, 229, Control_c, 0, 67, 31
1, 341, Control_c, 0, 64, 46
1, 341, Control_c, 0, 67, 46
1, 452, Control_c, 0, 64, 63
1, 452, Control_c, 0, 67, 63
1, 564, Control_c, 0, 64, 77
1, 564, Control_c, 0, 67, 77
1, 676, Control_c, 0, 64, 94
1, 676, Control_c, 0, 67, 94
1, 787, Control_c, 0, 64, 108
1, 787, Control_c, 0, 67, 108
1, 899, Control_c, 0, 64, 127
1, 899, Control_c, 0, 67, 127
1, 899, Control_c, 1, 7, 100
1, 899, Control_c, 2, 7, 100
1, 899, Control_c, 3, 7, 100
1, 899, Control_c, 4, 7, 100
1, 899, Control_c, 5, 7, 100
1, 899, Control_c, 6, 7, 100
1, 899, Control_c, 7, 7, 100
1, 899, Control_c, 8, 7, 100
1, 899, Control_c, 9, 7, 100
1, 899, Control_c, 10, 7, 100
1, 899, Control_c, 11, 7, 100
1, 899, Control_c, 12, 7, 100
1, 899, Control_c, 13, 7, 100
1, 899, Control_c, 14, 7, 100
1, 899, Control_c, 15, 7, 100
1, 1130, Note_on_c, 0, 37, 80
1, 1505, Control_c, 0, 67, 122
1, 1520, Control_c, 0, 67, 111
1, 1535, Control_c, 0, 67, 98
1, 1550, Control_c, 0, 67, 82
1, 1565, Control_c, 0, 67, 63
1, 1579, Control_c, 0, 67, 40
1, 1594, Control_c, 0, 67, 16
1, 1609, Control_c, 0, 67, 0
1, 2304, Note_on_c, 0, 24, 87
1, 3269, Note_off_c, 0, 37, 20
1, 3468, Note_on_c, 0, 37, 86
1, 3882, Note_off_c, 0, 24, 36
1, 4596, Note_on_c, 0, 24, 95
1, 5284, Note_off_c, 0, 37, 38
1, 5562, Control_c, 0, 67, 8
1, 5577, Control_c, 0, 67, 15
1, 5591, Control_c, 0, 67, 26
1, 5606, Control_c, 0, 67, 39
1, 5621, Control_c, 0, 67, 52
1, 5635, Control_c, 0, 67, 69
1, 5650, Control_c, 0, 67, 86
1, 5665, Control_c, 0, 67, 105
1, 5680, Control_c, 0, 67, 126
1, 5695, Control_c, 0, 67, 127
1, 5816, Note_on_c, 0, 37, 73
1, 5850, Control_c, 0, 64, 98
1, 5865, Control_c, 0, 64, 83
1, 5880, Control_c, 0, 64, 71
1, 5895, Control_c, 0, 64, 61
1, 5910, Control_c, 0, 64, 44
1, 5924, Control_c, 0, 64, 0
1, 6057, Control_c, 0, 64, 13
1, 6072, Control_c, 0, 64, 18
1, 6087, Control_c, 0, 64, 21
1, 6102, Control_c, 0, 64, 24
1, 6116, Control_c, 0, 64, 26
1, 6131, Control_c, 0, 64, 29
1, 6146, Control_c, 0, 64, 33
1, 6162, Control_c, 0, 64, 35
1, 6177, Control_c, 0, 64, 38
1, 6192, Control_c, 0, 64, 42
1, 6207, Control_c, 0, 64, 45
1, 6221, Control_c, 0, 64, 47
1, 6236, Control_c, 0, 64, 50
1, 6251, Control_c, 0, 64, 53
1, 6265, Control_c, 0, 64, 55
1, 6280, Control_c, 0, 64, 57
1, 6295, Control_c, 0, 64, 59
1, 6310, Control_c, 0, 64, 61
1, 6325, Control_c, 0, 64, 62
1, 6340, Control_c, 0, 64, 63
1, 6355, Control_c, 0, 64, 65
1, 6367, Note_on_c, 0, 53, 71
1, 6370, Control_c, 0, 64, 68
1, 6379, Note_on_c, 0, 46, 57
1, 6383, Note_on_c, 0, 44, 49
1, 6384, Control_c, 0, 64, 72
1, 6399, Control_c, 0, 64, 77
1, 6414, Control_c, 0, 64, 81
1, 6429, Control_c, 0, 64, 83
1, 6444, Control_c, 0, 64, 85
1, 6458, Control_c, 0, 64, 86
1, 6473, Control_c, 0, 64, 89
1, 6495, Control_c, 0, 64, 92
1, 6510, Control_c, 0, 64, 96
1, 6525, Control_c, 0, 64, 101
1, 6540, Control_c, 0, 64, 106
1, 6555, Control_c, 0, 64, 112
1, 6569, Control_c, 0, 64, 118
1, 6584, Control_c, 0, 64, 127
1, 6743, Note_off_c, 0, 24, 30
1, 6930, Note_on_c, 0, 24, 84
1, 7293, Note_off_c, 0, 44, 31
1, 7305, Note_off_c, 0, 53, 55
1, 7512, Note_on_c, 0, 52, 65
1, 7514, Note_on_c, 0, 43, 55
1, 7526, Control_c, 0, 64, 101
1, 7530, Note_on_c, 0, 49, 48
1, 7541, Control_c, 0, 64, 85
1, 7556, Control_c, 0, 64, 73
1, 7570, Control_c, 0, 64, 62
1, 7585, Control_c, 0, 64, 44
1, 7600, Control_c, 0, 64, 0
1, 7733, Note_off_c, 0, 49, 59
1, 7737, Note_off_c, 0, 46, 55
1, 7738, Note_off_c, 0, 52, 63
1, 7751, Note_off_c, 0, 43, 55
1, 7911, Control_c, 0, 64, 11
1, 7926, Control_c, 0, 64, 30
1, 7941, Control_c, 0, 64, 43
1, 7956, Control_c, 0, 64, 53
1, 7970, Control_c, 0, 64, 59
1, 7992, Control_c, 0, 64, 63
1, 8000, Note_off_c, 0, 37, 39
1, 8007, Control_c, 0, 64, 65
1, 8022, Control_c, 0, 64, 67
1, 8036, Control_c, 0, 64, 71
1, 8051, Control_c, 0, 64, 76
1, 8066, Control_c, 0, 64, 81
1, 8081, Control_c, 0, 64, 86
1, 8096, Control_c, 0, 64, 89
1, 8107, Note_on_c, 0, 37, 80
1, 8111, Control_c, 0, 64, 92
1, 8125, Control_c, 0, 64, 95
1, 8140, Control_c, 0, 64, 97
1, 8155, Control_c, 0, 64, 98
1, 8170, Control_c, 0, 64, 99
1, 8185, Control_c, 0, 64, 100
1, 8200, Control_c, 0, 64, 101
1, 8215, Control_c, 0, 64, 102
1, 8230, Control_c, 0, 64, 103
1, 8244, Control_c, 0, 64, 103
1, 8304, Control_c, 0, 64, 104
1, 8683, Note_on_c, 0, 53, 77
1, 8698, Note_on_c, 0, 46, 65
1, 8702, Note_on_c, 0, 44, 60
1, 8979, Note_off_c, 0, 24, 36
1, 9141, Control_c, 0, 64, 104
1, 9171, Control_c, 0, 64, 105
1, 9252, Note_on_c, 0, 24, 77
1, 9535, Control_c, 0, 64, 105
1, 9627, Note_off_c, 0, 44, 37
1, 9644, Note_off_c, 0, 53, 51
1, 9801, Control_c, 0, 64, 105
1, 9816, Control_c, 0, 64, 102
1, 9828, Note_on_c, 0, 52, 59
1, 9831, Control_c, 0, 64, 94
1, 9836, Note_on_c, 0, 43, 48
1, 9845, Control_c, 0, 64, 84
1, 9849, Note_on_c, 0, 49, 40
1, 9860, Control_c, 0, 64, 73
1, 9875, Control_c, 0, 64, 64
1, 9890, Control_c, 0, 64, 54
1, 9905, Control_c, 0, 64, 33
1, 9920, Control_c, 0, 64, 0
1, 10055, Note_off_c, 0, 43, 58
1, 10056, Note_off_c, 0, 46, 53
1, 10058, Note_off_c, 0, 52, 60
1, 10059, Note_off_c, 0, 49, 48
1, 10216, Note_off_c, 0, 37, 53
1, 10217, Control_c, 0, 64, 17
1, 10239, Control_c, 0, 64, 32
1, 10254, Control_c, 0, 64, 43
1, 10269, Control_c, 0, 64, 52
1, 10284, Control_c, 0, 64, 58
1, 10299, Control_c, 0, 64, 62
1, 10313, Control_c, 0, 64, 65
1, 10328, Control_c, 0, 64, 67
1, 10343, Control_c, 0, 64, 71
1, 10358, Control_c, 0, 64, 75
1, 10373, Control_c, 0, 64, 79
1, 10387, Control_c, 0, 64, 82
1, 10402, Control_c, 0, 64, 84
1, 10417, Control_c, 0, 64, 86
1, 10423, Note_on_c, 0, 37, 83
1, 10431, Control_c, 0, 64, 87
1, 10446, Control_c, 0, 64, 88
1, 10461, Control_c, 0, 64, 88
1, 10713, Control_c, 0, 64, 89
1, 10728, Control_c, 0, 64, 89
1, 10757, Control_c, 0, 64, 90
1, 10831, Control_c, 0, 64, 90
1, 10842, Note_on_c, 0, 52, 74
1, 10850, Note_on_c, 0, 46, 66
1, 10856, Note_on_c, 0, 43, 49
1, 10876, Control_c, 0, 64, 90
1, 10885, Note_off_c, 0, 46, 61
1, 10887, Note_off_c, 0, 43, 48
1, 10891, Control_c, 0, 64, 89
1, 10905, Control_c, 0, 64, 85
1, 10911, Note_off_c, 0, 52, 60
1, 10920, Control_c, 0, 64, 78
1, 10935, Note_on_c, 0, 53, 79
1, 10935, Control_c, 0, 64, 69
1, 10942, Note_on_c, 0, 44, 71
1, 10951, Control_c, 0, 64, 61
1, 10955, Note_on_c, 0, 49, 61
1, 10966, Control_c, 0, 64, 43
1, 10987, Control_c, 0, 64, 0
1, 11121, Control_c, 0, 64, 36
1, 11136, Control_c, 0, 64, 53
1, 11151, Control_c, 0, 64, 62
1, 11166, Control_c, 0, 64, 67
1, 11180, Control_c, 0, 64, 72
1, 11195, Control_c, 0, 64, 80
1, 11210, Control_c, 0, 64, 87
1, 11225, Control_c, 0, 64, 95
1, 11240, Control_c, 0, 64, 105
1, 11240, Control_c, 0, 67, 123
1, 11254, Control_c, 0, 64, 127
1, 11254, Control_c, 0, 67, 101
1, 11269, Control_c, 0, 67, 74
1, 11284, Control_c, 0, 67, 45
1, 11299, Control_c, 0, 67, 18
1, 11314, Control_c, 0, 67, 0
1, 11336, Note_off_c, 0, 24, 29
1, 11528, Note_on_c, 0, 24, 85
1, 11536, Note_off_c, 0, 44, 60
1, 11540, Note_off_c, 0, 53, 62
1, 11573, Note_off_c, 0, 49, 61
1, 11947, Note_on_c, 0, 46, 74
1, 11948, Note_on_c, 0, 55, 74
1, 11972, Note_off_c, 0, 46, 64
1, 11997, Note_on_c, 0, 49, 15
1, 12025, Note_off_c, 0, 55, 53
1, 12047, Note_off_c, 0, 49, 0
1, 12056, Note_on_c, 0, 56, 81
1, 12063, Note_on_c, 0, 49, 39
1, 12063, Note_on_c, 0, 48, 72
1, 12077, Control_c, 0, 64, 99
1, 12092, Control_c, 0, 64, 80
1, 12107, Control_c, 0, 64, 64
1, 12122, Control_c, 0, 64, 37
1, 12137, Control_c, 0, 64, 0
1, 12210, Control_c, 0, 64, 23
1, 12225, Control_c, 0, 64, 49
1, 12240, Control_c, 0, 64, 62
1, 12255, Control_c, 0, 64, 68
1, 12270, Control_c, 0, 64, 73
1, 12284, Control_c, 0, 64, 78
1, 12299, Control_c, 0, 64, 83
1, 12314, Control_c, 0, 64, 87
1, 12329, Control_c, 0, 64, 93
1, 12343, Control_c, 0, 64, 101
1, 12358, Control_c, 0, 64, 107
1, 12365, Note_off_c, 0, 37, 59
1, 12373, Control_c, 0, 64, 114
1, 12388, Control_c, 0, 64, 127
1, 12667, Note_on_c, 0, 37, 81
1, 12731, Note_off_c, 0, 48, 60
1, 12791, Note_off_c, 0, 56, 55
1, 12900, Control_c, 0, 67, 19
1, 12915, Control_c, 0, 67, 47
1, 12930, Control_c, 0, 67, 96
1, 12945, Control_c, 0, 67, 127
1, 12946, Note_off_c, 0, 49, 38
1, 13069, Note_on_c, 0, 55, 72
1, 13090, Note_on_c, 0, 46, 63
1, 13090, Note_on_c, 0, 49, 53
1, 13124, Note_off_c, 0, 46, 62
1, 13136, Note_off_c, 0, 55, 59
1, 13166, Control_c, 0, 64, 101
1, 13181, Control_c, 0, 64, 87
1, 13187, Note_off_c, 0, 49, 0
1, 13196, Note_on_c, 0, 54, 74
1, 13196, Control_c, 0, 64, 72
1, 13202, Note_on_c, 0, 49, 40
1, 13208, Note_on_c, 0, 45, 57
1, 13211, Control_c, 0, 64, 60
1, 13233, Control_c, 0, 64, 23
1, 13248, Control_c, 0, 64, 0
1, 13353, Control_c, 0, 64, 44
1, 13368, Control_c, 0, 64, 59
1, 13382, Control_c, 0, 64, 66
1, 13392, Note_off_c, 0, 45, 62
1, 13397, Control_c, 0, 64, 71
1, 13403, Note_off_c, 0, 54, 63
1, 13412, Control_c, 0, 64, 75
1, 13427, Control_c, 0, 64, 79
1, 13442, Control_c, 0, 64, 82
1, 13456, Control_c, 0, 64, 85
1, 13471, Control_c, 0, 64, 88
1, 13476, Note_off_c, 0, 49, 56
1, 13486, Control_c, 0, 64, 92
1, 13501, Control_c, 0, 64, 96
1, 13516, Control_c, 0, 64, 99
1, 13530, Control_c, 0, 64, 100
1, 13545, Control_c, 0, 64, 100
1, 13589, Control_c, 0, 64, 100
1, 13604, Control_c, 0, 64, 97
1, 13612, Note_on_c, 0, 53, 73
1, 13619, Control_c, 0, 64, 88
1, 13628, Note_off_c, 0, 24, 39
1, 13632, Note_on_c, 0, 49, 60
1, 13634, Control_c, 0, 64, 77
1, 13635, Note_on_c, 0, 44, 57
1, 13649, Control_c, 0, 64, 66
1, 13664, Control_c, 0, 64, 53
1, 13679, Control_c, 0, 64, 18
1, 13694, Control_c, 0, 64, 0
1, 13771, Note_on_c, 0, 24, 80
1, 13997, Control_c, 0, 64, 37
1, 14012, Control_c, 0, 64, 56
1, 14027, Control_c, 0, 64, 64
1, 14042, Control_c, 0, 64, 70
1, 14056, Control_c, 0, 64, 76
1, 14071, Control_c, 0, 64, 81
1, 14086, Control_c, 0, 64, 85
1, 14101, Control_c, 0, 64, 89
1, 14116, Control_c, 0, 64, 93
1, 14118, Note_off_c, 0, 53, 44
1, 14130, Control_c, 0, 64, 97
1, 14146, Control_c, 0, 64, 99
1, 14161, Control_c, 0, 64, 101
1, 14176, Control_c, 0, 64, 102
1, 14191, Control_c, 0, 64, 104
1, 14201, Note_off_c, 0, 49, 52
1, 14205, Control_c, 0, 64, 105
1, 14217, Note_off_c, 0, 44, 36
1, 14220, Control_c, 0, 64, 106
1, 14235, Control_c, 0, 64, 106
1, 14353, Control_c, 0, 64, 105
1, 14368, Control_c, 0, 64, 103
1, 14383, Control_c, 0, 64, 99
1, 14397, Control_c, 0, 64, 93
1, 14409, Note_on_c, 0, 52, 63
1, 14412, Control_c, 0, 64, 86
1, 14427, Control_c, 0, 64, 77
1, 14433, Note_on_c, 0, 43, 44
1, 14440, Note_on_c, 0, 46, 46
1, 14442, Control_c, 0, 64, 67
1, 14457, Control_c, 0, 64, 58
1, 14472, Control_c, 0, 64, 42
1, 14487, Control_c, 0, 64, 0
1, 14666, Note_off_c, 0, 43, 59
1, 14677, Note_off_c, 0, 52, 64
1, 14704, Note_off_c, 0, 46, 57
1, 14788, Poly_aftertouch_c, 0, 26, 127
1, 14806, Control_c, 0, 64, 26
1, 14821, Control_c, 0, 64, 53
1, 14828, Note_off_c, 0, 37, 54
1, 14836, Control_c, 0, 64, 63
1, 14850, Control_c, 0, 64, 69
1, 14865, Control_c, 0, 64, 74
1, 14880, Control_c, 0, 64, 79
1, 14895, Control_c, 0, 64, 84
1, 14910, Control_c, 0, 64, 89
1, 14924, Control_c, 0, 64, 93
1, 14939, Control_c, 0, 64, 97
1, 14955, Control_c, 0, 64, 101
1, 14970, Control_c, 0, 64, 105
1, 14985, Control_c, 0, 64, 108
1, 14999, Control_c, 0, 64, 109
1, 15029, Control_c, 0, 64, 107
1, 15044, Control_c, 0, 64, 100
1, 15044, Note_on_c, 0, 39, 90
1, 15059, Control_c, 0, 64, 87
1, 15067, Note_on_c, 0, 28, 24
1, 15074, Control_c, 0, 64, 74
1, 15089, Control_c, 0, 64, 62
1, 15103, Control_c, 0, 64, 31
1, 15110, Note_off_c, 0, 28, 40
1, 15118, Control_c, 0, 64, 0
1, 15163, Control_c, 0, 64, 26
1, 15177, Control_c, 0, 64, 42
1, 15192, Control_c, 0, 64, 49
1, 15207, Control_c, 0, 64, 53
1, 15221, Control_c, 0, 64, 54
1, 15235, Control_c, 0, 64, 56
1, 15250, Control_c, 0, 64, 59
1, 15265, Control_c, 0, 64, 61
1, 15280, Control_c, 0, 64, 63
1, 15295, Control_c, 0, 64, 65
1, 15309, Control_c, 0, 64, 67
1, 15324, Control_c, 0, 64, 70
1, 15339, Control_c, 0, 64, 74
1, 15354, Control_c, 0, 64, 78
1, 15369, Control_c, 0, 64, 82
1, 15384, Control_c, 0, 64, 85
1, 15399, Control_c, 0, 64, 88
1, 15414, Control_c, 0, 64, 92
1, 15428, Control_c, 0, 64, 98
1, 15443, Control_c, 0, 64, 107
1, 15458, Control_c, 0, 64, 127
1, 15509, Control_c, 0, 67, 107
1, 15524, Control_c, 0, 67, 80
1, 15539, Control_c, 0, 67, 52
1, 15554, Control_c, 0, 67, 26
1, 15569, Control_c, 0, 67, 0
1, 15643, Note_on_c, 0, 55, 83
1, 15657, Note_on_c, 0, 48, 72
1, 15661, Note_on_c, 0, 46, 66
1, 15820, Note_off_c, 0, 24, 40
1, 16052, Note_off_c, 0, 39, 30
1, 16225, Poly_aftertouch_c, 0, 26, 0
1, 16231, Note_on_c, 0, 24, 87
1, 16460, Poly_aftertouch_c, 0, 26, 127
1, 16624, Note_off_c, 0, 55, 50
1, 16657, Note_off_c, 0, 46, 35
1, 16728, Poly_aftertouch_c, 0, 39, 127
1, 16820, Note_on_c, 0, 54, 67
1, 16822, Control_c, 0, 64, 110
1, 16834, Note_on_c, 0, 45, 56
1, 16837, Control_c, 0, 64, 93
1, 16845, Note_on_c, 0, 51, 52
1, 16852, Control_c, 0, 64, 80
1, 16866, Control_c, 0, 64, 69
1, 16881, Control_c, 0, 64, 57
1, 16896, Control_c, 0, 64, 30
1, 16911, Control_c, 0, 64, 0
1, 17038, Note_off_c, 0, 48, 60
1, 17047, Note_off_c, 0, 45, 59
1, 17048, Note_off_c, 0, 51, 56
1, 17059, Note_off_c, 0, 54, 59
1, 17214, Control_c, 0, 64, 29
1, 17229, Control_c, 0, 64, 44
1, 17244, Control_c, 0, 64, 55
1, 17250, Poly_aftertouch_c, 0, 39, 0
1, 17259, Control_c, 0, 64, 62
1, 17274, Control_c, 0, 64, 65
1, 17289, Control_c, 0, 64, 68
1, 17304, Control_c, 0, 64, 73
1, 17318, Control_c, 0, 64, 79
1, 17333, Control_c, 0, 64, 83
1, 17349, Control_c, 0, 64, 87
1, 17364, Control_c, 0, 64, 89
1, 17378, Control_c, 0, 64, 91
1, 17393, Control_c, 0, 64, 93
1, 17408, Control_c, 0, 64, 94
1, 17419, Note_on_c, 0, 39, 90
1, 17423, Control_c, 0, 64, 96
1, 17438, Control_c, 0, 64, 97
1, 17453, Control_c, 0, 64, 97
1, 17468, Control_c, 0, 64, 98
1, 17541, Control_c, 0, 64, 97
1, 17601, Control_c, 0, 64, 97
1, 17830, Control_c, 0, 64, 97
1, 17845, Control_c, 0, 64, 98
1, 17875, Control_c, 0, 64, 99
1, 17890, Control_c, 0, 64, 100
1, 17904, Control_c, 0, 64, 100
1, 17919, Control_c, 0, 64, 101
1, 17934, Control_c, 0, 64, 102
1, 17948, Control_c, 0, 64, 103
1, 17963, Control_c, 0, 64, 104
1, 17978, Control_c, 0, 64, 105
1, 17993, Control_c, 0, 64, 107
1, 18001, Note_on_c, 0, 55, 85
1, 18008, Control_c, 0, 64, 110
1, 18016, Note_on_c, 0, 48, 69
1, 18021, Note_on_c, 0, 46, 70
1, 18022, Control_c, 0, 64, 112
1, 18037, Control_c, 0, 64, 116
1, 18052, Control_c, 0, 64, 124
1, 18067, Control_c, 0, 64, 127
1, 18210, Note_off_c, 0, 24, 36
1, 18352, Note_off_c, 0, 39, 36
1, 18567, Poly_aftertouch_c, 0, 26, 0
1, 18577, Note_on_c, 0, 24, 90
1, 18958, Note_off_c, 0, 55, 53
1, 19009, Note_off_c, 0, 46, 37
1, 19018, Poly_aftertouch_c, 0, 26, 127
1, 19163, Note_on_c, 0, 54, 66
1, 19175, Note_on_c, 0, 45, 56
1, 19188, Control_c, 0, 64, 113
1, 19192, Note_on_c, 0, 51, 48
1, 19203, Control_c, 0, 64, 98
1, 19225, Control_c, 0, 64, 89
1, 19240, Control_c, 0, 64, 81
1, 19255, Control_c, 0, 64, 74
1, 19269, Control_c, 0, 64, 67
1, 19284, Control_c, 0, 64, 61
1, 19299, Control_c, 0, 64, 54
1, 19314, Control_c, 0, 64, 49
1, 19329, Control_c, 0, 64, 48
1, 19343, Control_c, 0, 64, 46
1, 19358, Control_c, 0, 64, 43
1, 19373, Control_c, 0, 64, 36
1, 19388, Control_c, 0, 64, 27
1, 19402, Control_c, 0, 64, 19
1, 19408, Note_off_c, 0, 51, 54
1, 19411, Note_off_c, 0, 45, 60
1, 19413, Note_off_c, 0, 48, 60
1, 19417, Control_c, 0, 64, 20
1, 19429, Note_off_c, 0, 54, 58
1, 19432, Control_c, 0, 64, 23
1, 19447, Control_c, 0, 64, 28
1, 19462, Control_c, 0, 64, 32
1, 19477, Control_c, 0, 64, 34
1, 19492, Control_c, 0, 64, 35
1, 19507, Control_c, 0, 64, 36
1, 19521, Control_c, 0, 64, 37
1, 19536, Control_c, 0, 64, 41
1, 19551, Control_c, 0, 64, 47
1, 19566, Control_c, 0, 64, 51
1, 19581, Control_c, 0, 64, 55
1, 19595, Control_c, 0, 64, 58
1, 19610, Control_c, 0, 64, 60
1, 19625, Control_c, 0, 64, 62
1, 19640, Control_c, 0, 64, 64
1, 19655, Control_c, 0, 64, 66
1, 19669, Control_c, 0, 64, 68
1, 19679, Poly_aftertouch_c, 0, 26, 0
1, 19684, Control_c, 0, 64, 70
1, 19699, Control_c, 0, 64, 73
1, 19712, Control_c, 0, 64, 75
1, 19715, Poly_aftertouch_c, 0, 26, 127
1, 19727, Control_c, 0, 64, 77
1, 19743, Control_c, 0, 64, 79
1, 19749, Note_on_c, 0, 39, 88
1, 19757, Control_c, 0, 64, 81
1, 19772, Control_c, 0, 64, 84
1, 19787, Control_c, 0, 64, 85
1, 19802, Control_c, 0, 64, 87
1, 19817, Control_c, 0, 64, 88
1, 19832, Control_c, 0, 64, 90
1, 19846, Control_c, 0, 64, 92
1, 19861, Control_c, 0, 64, 95
1, 19876, Control_c, 0, 64, 99
1, 19891, Control_c, 0, 64, 102
1, 19906, Control_c, 0, 64, 105
1, 19921, Control_c, 0, 64, 109
1, 19935, Control_c, 0, 64, 112
1, 19950, Control_c, 0, 64, 115
1, 19972, Control_c, 0, 64, 118
1, 19987, Control_c, 0, 64, 121
1, 20002, Control_c, 0, 64, 127
1, 20172, Note_on_c, 0, 54, 78
1, 20180, Note_on_c, 0, 48, 74
1, 20183, Note_on_c, 0, 45, 62
1, 20209, Note_off_c, 0, 45, 64
1, 20218, Note_off_c, 0, 48, 61
1, 20224, Control_c, 0, 64, 107
1, 20239, Control_c, 0, 64, 91
1, 20254, Control_c, 0, 64, 73
1, 20260, Note_off_c, 0, 54, 55
1, 20269, Control_c, 0, 64, 59
1, 20272, Note_on_c, 0, 55, 78
1, 20280, Note_on_c, 0, 46, 76
1, 20284, Control_c, 0, 64, 8
1, 20290, Note_on_c, 0, 51, 66
1, 20298, Control_c, 0, 64, 0
1, 20416, Control_c, 0, 64, 26
1, 20431, Control_c, 0, 64, 53
1, 20446, Control_c, 0, 64, 65
1, 20461, Control_c, 0, 64, 72
1, 20476, Control_c, 0, 64, 80
1, 20490, Control_c, 0, 64, 87
1, 20493, Poly_aftertouch_c, 0, 26, 0
1, 20505, Control_c, 0, 64, 93
1, 20517, Note_off_c, 0, 39, 52
1, 20520, Control_c, 0, 64, 98
1, 20536, Control_c, 0, 64, 106
1, 20544, Note_off_c, 0, 24, 36
1, 20551, Control_c, 0, 64, 116
1, 20565, Control_c, 0, 64, 127
1, 20850, Note_on_c, 0, 24, 93
1, 20899, Note_off_c, 0, 55, 60
1, 20908, Note_off_c, 0, 46, 57
1, 20934, Note_off_c, 0, 51, 60
1, 21270, Note_on_c, 0, 57, 78
1, 21276, Note_on_c, 0, 48, 70
1, 21293, Note_on_c, 0, 51, 56
1, 21313, Note_off_c, 0, 48, 56
1, 21324, Note_off_c, 0, 51, 59
1, 21338, Note_off_c, 0, 57, 61
1, 21380, Note_on_c, 0, 58, 88
1, 21389, Control_c, 0, 64, 105
1, 21393, Note_on_c, 0, 51, 76
1, 21394, Note_on_c, 0, 50, 75
1, 21404, Control_c, 0, 64, 80
1, 21419, Control_c, 0, 64, 64
1, 21434, Control_c, 0, 64, 20
1, 21449, Control_c, 0, 64, 0
1, 21531, Control_c, 0, 64, 39
1, 21545, Control_c, 0, 64, 56
1, 21560, Control_c, 0, 64, 64
1, 21575, Control_c, 0, 64, 70
1, 21589, Control_c, 0, 64, 78
1, 21604, Control_c, 0, 64, 84
1, 21619, Control_c, 0, 64, 89
1, 21634, Control_c, 0, 64, 95
1, 21649, Control_c, 0, 64, 103
1, 21663, Control_c, 0, 64, 112
1, 21678, Control_c, 0, 64, 127
1, 21919, Poly_aftertouch_c, 0, 26, 127
1, 21945, Note_on_c, 0, 39, 89
1, 22018, Note_off_c, 0, 50, 58
1, 22026, Note_off_c, 0, 58, 61
1, 22028, Poly_aftertouch_c, 0, 27, 127
1, 22055, Note_off_c, 0, 51, 59
1, 22359, Note_on_c, 0, 57, 79
1, 22377, Note_on_c, 0, 48, 57
1, 22379, Note_on_c, 0, 51, 66
1, 22407, Note_off_c, 0, 48, 61
1, 22416, Note_off_c, 0, 51, 59
1, 22422, Note_off_c, 0, 57, 61
1, 22485, Note_on_c, 0, 56, 79
1, 22485, Control_c, 0, 64, 100
1, 22496, Note_on_c, 0, 47, 69
1, 22500, Control_c, 0, 64, 81
1, 22513, Note_on_c, 0, 51, 48
1, 22515, Control_c, 0, 64, 65
1, 22530, Control_c, 0, 64, 36
1, 22544, Control_c, 0, 64, 0
1, 22571, Note_off_c, 0, 51, 0
1, 22574, Poly_aftertouch_c, 0, 27, 0
1, 22599, Note_on_c, 0, 51, 23
1, 22604, Control_c, 0, 64, 16
1, 22619, Control_c, 0, 64, 51
1, 22634, Control_c, 0, 64, 63
1, 22648, Control_c, 0, 64, 69
1, 22663, Control_c, 0, 64, 73
1, 22667, Note_off_c, 0, 47, 62
1, 22669, Note_off_c, 0, 56, 64
1, 22678, Control_c, 0, 64, 76
1, 22693, Control_c, 0, 64, 78
1, 22701, Note_off_c, 0, 51, 61
1, 22708, Control_c, 0, 64, 81
1, 22723, Control_c, 0, 64, 84
1, 22737, Control_c, 0, 64, 90
1, 22752, Control_c, 0, 64, 96
1, 22767, Control_c, 0, 64, 102
1, 22782, Control_c, 0, 64, 110
1, 22792, Note_off_c, 0, 39, 37
1, 22797, Control_c, 0, 64, 124
1, 22806, Poly_aftertouch_c, 0, 26, 0
1, 22811, Control_c, 0, 64, 127
1, 22836, Note_off_c, 0, 24, 40
1, 22881, Note_on_c, 0, 55, 77
1, 22890, Note_on_c, 0, 46, 70
1, 22900, Note_on_c, 0, 51, 58
1, 22982, Control_c, 0, 64, 111
1, 22997, Control_c, 0, 64, 98
1, 23012, Control_c, 0, 64, 86
1, 23027, Control_c, 0, 64, 72
1, 23042, Control_c, 0, 64, 61
1, 23057, Control_c, 0, 64, 34
1, 23064, Note_on_c, 0, 24, 90
1, 23072, Control_c, 0, 64, 0
1, 23190, Control_c, 0, 64, 33
1, 23205, Control_c, 0, 64, 55
1, 23220, Control_c, 0, 64, 64
1, 23234, Control_c, 0, 64, 68
1, 23249, Control_c, 0, 64, 71
1, 23264, Control_c, 0, 64, 74
1, 23279, Control_c, 0, 64, 77
1, 23294, Control_c, 0, 64, 80
1, 23308, Control_c, 0, 64, 86
1, 23323, Control_c, 0, 64, 91
1, 23338, Control_c, 0, 64, 95
1, 23353, Control_c, 0, 64, 99
1, 23367, Control_c, 0, 64, 103
1, 23382, Control_c, 0, 64, 107
1, 23397, Control_c, 0, 64, 112
1, 23412, Control_c, 0, 64, 116
1, 23415, Note_off_c, 0, 55, 53
1, 23427, Control_c, 0, 64, 119
1, 23441, Control_c, 0, 64, 120
1, 23456, Control_c, 0, 64, 121
1, 23471, Control_c, 0, 64, 124
1, 23486, Control_c, 0, 64, 127
1, 23501, Control_c, 0, 67, 11
1, 23513, Note_off_c, 0, 46, 52
1, 23516, Control_c, 0, 67, 18
1, 23531, Control_c, 0, 67, 27
1, 23546, Control_c, 0, 67, 37
1, 23560, Control_c, 0, 67, 48
1, 23575, Control_c, 0, 67, 60
1, 23590, Control_c, 0, 67, 77
1, 23605, Control_c, 0, 67, 96
1, 23620, Control_c, 0, 67, 113
1, 23634, Note_off_c, 0, 51, 36
1, 23634, Control_c, 0, 67, 126
1, 23649, Control_c, 0, 67, 127
1, 23731, Control_c, 0, 64, 120
1, 23746, Control_c, 0, 64, 110
1, 23761, Control_c, 0, 64, 98
1, 23763, Note_on_c, 0, 54, 66
1, 23775, Note_on_c, 0, 45, 56
1, 23776, Control_c, 0, 64, 85
1, 23783, Note_on_c, 0, 48, 54
1, 23790, Control_c, 0, 64, 70
1, 23805, Control_c, 0, 64, 58
1, 23820, Control_c, 0, 64, 28
1, 23835, Control_c, 0, 64, 0
1, 23924, Control_c, 0, 67, 108
1, 23939, Control_c, 0, 67, 79
1, 23954, Control_c, 0, 67, 44
1, 23969, Control_c, 0, 67, 0
1, 24010, Note_off_c, 0, 48, 63
1, 24017, Note_off_c, 0, 45, 59
1, 24050, Note_off_c, 0, 54, 60
1, 24116, Control_c, 0, 64, 53
1, 24131, Control_c, 0, 64, 67
1, 24146, Control_c, 0, 64, 76
1, 24161, Control_c, 0, 64, 89
1, 24176, Control_c, 0, 64, 98
1, 24179, Note_off_c, 0, 24, 62
1, 24190, Control_c, 0, 64, 106
1, 24206, Control_c, 0, 64, 117
1, 24221, Control_c, 0, 64, 127
1, 24403, Note_on_c, 0, 41, 100
1, 24443, Control_c, 0, 64, 117
1, 24465, Control_c, 0, 64, 97
1, 24480, Control_c, 0, 64, 84
1, 24495, Control_c, 0, 64, 74
1, 24509, Control_c, 0, 64, 67
1, 24524, Control_c, 0, 64, 64
1, 24541, Control_c, 0, 64, 66
1, 24556, Control_c, 0, 64, 71
1, 24570, Control_c, 0, 64, 75
1, 24585, Control_c, 0, 64, 79
1, 24600, Control_c, 0, 64, 80
1, 24644, Control_c, 0, 64, 80
1, 24688, Control_c, 0, 64, 81
1, 24718, Control_c, 0, 64, 81
1, 24732, Control_c, 0, 64, 82
1, 24747, Control_c, 0, 64, 84
1, 24762, Control_c, 0, 64, 87
1, 24777, Control_c, 0, 64, 90
1, 24792, Control_c, 0, 64, 94
1, 24807, Control_c, 0, 64, 99
1, 24822, Control_c, 0, 64, 107
1, 24836, Control_c, 0, 64, 127
1, 25000, Note_on_c, 0, 57, 91
1, 25010, Note_on_c, 0, 50, 77
1, 25012, Note_on_c, 0, 48, 78
1, 25040, Note_off_c, 0, 41, 57
1, 25596, Note_on_c, 0, 24, 98
1, 25802, Note_off_c, 0, 48, 50
1, 25904, Note_off_c, 0, 57, 55
1, 26171, Control_c, 0, 64, 110
1, 26181, Note_on_c, 0, 56, 65
1, 26185, Control_c, 0, 64, 88
1, 26188, Note_on_c, 0, 47, 60
1, 26200, Control_c, 0, 64, 73
1, 26210, Note_on_c, 0, 53, 47
1, 26215, Control_c, 0, 64, 58
1, 26230, Control_c, 0, 64, 0
1, 26388, Note_off_c, 0, 47, 62
1, 26389, Note_off_c, 0, 53, 64
1, 26392, Note_off_c, 0, 50, 60
1, 26410, Note_off_c, 0, 56, 58
1, 26482, Control_c, 0, 64, 49
1, 26497, Control_c, 0, 64, 62
1, 26511, Control_c, 0, 64, 69
1, 26526, Control_c, 0, 64, 76
1, 26541, Control_c, 0, 64, 87
1, 26556, Control_c, 0, 64, 103
1, 26560, Note_off_c, 0, 24, 62
1, 26571, Control_c, 0, 64, 127
1, 26789, Note_on_c, 0, 41, 102
1, 26881, Poly_aftertouch_c, 0, 39, 127
1, 26921, Poly_aftertouch_c, 0, 39, 0
1, 27380, Note_off_c, 0, 41, 59
1, 27385, Note_on_c, 0, 57, 90
1, 27397, Note_on_c, 0, 50, 75
1, 27400, Note_on_c, 0, 48, 73
1, 27986, Note_on_c, 0, 24, 100
1, 28205, Note_off_c, 0, 48, 39
1, 28376, Note_off_c, 0, 57, 59
1, 28625, Note_on_c, 0, 56, 68
1, 28625, Control_c, 0, 64, 114
1, 28628, Note_on_c, 0, 47, 64
1, 28634, Note_on_c, 0, 53, 61
1, 28640, Control_c, 0, 64, 93
1, 28655, Control_c, 0, 64, 73
1, 28670, Control_c, 0, 64, 57
1, 28685, Control_c, 0, 64, 0
1, 28858, Note_off_c, 0, 53, 63
1, 28866, Note_off_c, 0, 50, 59
1, 28870, Note_off_c, 0, 47, 56
1, 28880, Note_off_c, 0, 56, 58
1, 28892, Control_c, 0, 64, 49
1, 28906, Control_c, 0, 64, 64
1, 28921, Control_c, 0, 64, 73
1, 28936, Control_c, 0, 64, 82
1, 28959, Control_c, 0, 64, 88
1, 28962, Note_off_c, 0, 24, 64
1, 28974, Control_c, 0, 64, 91
1, 28988, Control_c, 0, 64, 95
1, 29003, Control_c, 0, 64, 100
1, 29018, Control_c, 0, 64, 106
1, 29033, Control_c, 0, 64, 116
1, 29048, Control_c, 0, 64, 127
1, 29224, Note_on_c, 0, 42, 100
1, 29665, Note_on_c, 0, 56, 81
1, 29671, Note_on_c, 0, 47, 73
1, 29671, Note_on_c, 0, 50, 73
1, 29709, Note_off_c, 0, 50, 64
1, 29713, Note_off_c, 0, 47, 62
1, 29743, Note_off_c, 0, 56, 61
1, 29767, Control_c, 0, 64, 105
1, 29781, Note_on_c, 0, 57, 88
1, 29782, Control_c, 0, 64, 83
1, 29791, Note_on_c, 0, 48, 79
1, 29797, Control_c, 0, 64, 62
1, 29800, Note_on_c, 0, 51, 72
1, 29811, Control_c, 0, 64, 0
1, 29885, Control_c, 0, 64, 18
1, 29900, Control_c, 0, 64, 55
1, 29915, Control_c, 0, 64, 67
1, 29929, Control_c, 0, 64, 76
1, 29944, Control_c, 0, 64, 88
1, 29959, Control_c, 0, 64, 100
1, 29974, Control_c, 0, 64, 115
1, 29975, Note_off_c, 0, 42, 58
1, 29989, Control_c, 0, 64, 127
1, 30365, Note_on_c, 0, 24, 102
1, 30421, Note_off_c, 0, 48, 60
1, 30473, Note_off_c, 0, 57, 61
1, 30492, Note_off_c, 0, 51, 44
1, 30802, Note_on_c, 0, 59, 79
1, 30803, Note_on_c, 0, 53, 82
1, 30810, Note_on_c, 0, 50, 73
1, 30837, Note_off_c, 0, 50, 64
1, 30872, Note_off_c, 0, 53, 63
1, 30892, Note_off_c, 0, 59, 59
1, 30914, Note_on_c, 0, 60, 88
1, 30917, Note_on_c, 0, 51, 92
1, 30923, Note_on_c, 0, 57, 81
1, 30946, Control_c, 0, 64, 83
1, 30961, Control_c, 0, 64, 59
1, 30975, Control_c, 0, 64, 0
1, 31108, Control_c, 0, 64, 33
1, 31123, Control_c, 0, 64, 66
1, 31138, Control_c, 0, 64, 79
1, 31144, Note_off_c, 0, 24, 62
1, 31153, Control_c, 0, 64, 92
1, 31168, Control_c, 0, 64, 101
1, 31183, Control_c, 0, 64, 110
1, 31205, Control_c, 0, 64, 127
1, 31493, Note_on_c, 0, 42, 98
1, 31586, Note_off_c, 0, 57, 60
1, 31596, Note_off_c, 0, 60, 58
1, 31662, Note_off_c, 0, 51, 51
1, 31904, Note_on_c, 0, 59, 80
1, 31913, Note_on_c, 0, 53, 73
1, 31915, Note_on_c, 0, 50, 71
1, 31953, Note_off_c, 0, 50, 61
1, 31979, Note_off_c, 0, 53, 63
1, 31979, Note_off_c, 0, 59, 61
1, 32027, Control_c, 0, 64, 120
1, 32038, Note_on_c, 0, 58, 86
1, 32042, Control_c, 0, 64, 78
1, 32047, Note_on_c, 0, 52, 73
1, 32049, Note_on_c, 0, 49, 76
1, 32057, Control_c, 0, 64, 49
1, 32072, Control_c, 0, 64, 0
1, 32116, Control_c, 0, 64, 45
1, 32131, Control_c, 0, 64, 66
1, 32146, Control_c, 0, 64, 79
1, 32161, Control_c, 0, 64, 103
1, 32175, Control_c, 0, 64, 127
1, 32178, Note_off_c, 0, 52, 61
1, 32203, Note_off_c, 0, 58, 63
1, 32207, Note_off_c, 0, 49, 48
1, 32230, Note_off_c, 0, 42, 59
1, 32448, Note_on_c, 0, 57, 79
1, 32459, Note_on_c, 0, 48, 67
1, 32461, Note_on_c, 0, 51, 66
1, 32605, Control_c, 0, 64, 101
1, 32620, Control_c, 0, 64, 67
1, 32624, Note_on_c, 0, 24, 94
1, 32634, Control_c, 0, 64, 0
1, 32650, Note_off_c, 0, 51, 57
1, 32697, Note_off_c, 0, 48, 63
1, 32701, Control_c, 0, 64, 53
1, 32716, Control_c, 0, 64, 70
1, 32724, Note_off_c, 0, 57, 61
1, 32731, Control_c, 0, 64, 86
1, 32745, Control_c, 0, 64, 127
1, 33016, Note_on_c, 0, 53, 89
1, 33017, Note_on_c, 0, 59, 88
1, 33021, Note_on_c, 0, 50, 81
1, 33045, Note_off_c, 0, 50, 68
1, 33082, Note_off_c, 0, 53, 64
1, 33086, Control_c, 0, 64, 108
1, 33101, Control_c, 0, 64, 80
1, 33106, Note_off_c, 0, 59, 62
1, 33116, Control_c, 0, 64, 50
1, 33117, Note_on_c, 0, 60, 90
1, 33124, Note_on_c, 0, 51, 86
1, 33125, Note_on_c, 0, 56, 79
1, 33131, Control_c, 0, 64, 0
1, 33368, Control_c, 0, 64, 50
1, 33383, Control_c, 0, 64, 66
1, 33398, Control_c, 0, 64, 73
1, 33413, Control_c, 0, 64, 85
1, 33428, Control_c, 0, 64, 96
1, 33450, Control_c, 0, 64, 119
1, 33451, Note_off_c, 0, 24, 62
1, 33465, Control_c, 0, 64, 127
1, 33726, Note_on_c, 0, 44, 99
1, 33795, Note_off_c, 0, 60, 58
1, 33818, Note_off_c, 0, 51, 55
1, 33841, Note_off_c, 0, 56, 60
1, 34158, Note_on_c, 0, 61, 84
1, 34161, Note_on_c, 0, 56, 77
1, 34166, Note_on_c, 0, 52, 71
1, 34213, Note_off_c, 0, 52, 59
1, 34229, Note_off_c, 0, 56, 62
1, 34235, Note_off_c, 0, 61, 61
1, 34274, Control_c, 0, 64, 104
1, 34277, Note_on_c, 0, 62, 92
1, 34285, Note_on_c, 0, 53, 83
1, 34287, Note_on_c, 0, 59, 78
1, 34289, Control_c, 0, 64, 69
1, 34304, Control_c, 0, 64, 0
1, 34363, Control_c, 0, 64, 8
1, 34378, Control_c, 0, 64, 63
1, 34392, Control_c, 0, 64, 74
1, 34407, Control_c, 0, 64, 91
1, 34422, Control_c, 0, 64, 127
1, 34449, Note_off_c, 0, 44, 58
1, 34831, Note_on_c, 0, 24, 96
1, 34831, Note_off_c, 0, 62, 60
1, 34861, Note_off_c, 0, 53, 59
1, 34895, Note_off_c, 0, 59, 62
1, 35195, Note_on_c, 0, 61, 79
1, 35202, Note_on_c, 0, 52, 68
1, 35210, Note_on_c, 0, 56, 64
1, 35231, Note_off_c, 0, 52, 67
1, 35250, Note_off_c, 0, 56, 55
1, 35265, Note_off_c, 0, 61, 57
1, 35334, Control_c, 0, 64, 114
1, 35344, Note_on_c, 0, 60, 81
1, 35348, Control_c, 0, 64, 75
1, 35354, Note_on_c, 0, 56, 69
1, 35358, Note_on_c, 0, 51, 65
1, 35363, Control_c, 0, 64, 31
1, 35378, Control_c, 0, 64, 0
1, 35422, Control_c, 0, 64, 56
1, 35437, Control_c, 0, 64, 71
1, 35452, Control_c, 0, 64, 90
1, 35466, Control_c, 0, 64, 127
1, 35478, Note_off_c, 0, 56, 61
1, 35481, Note_off_c, 0, 60, 62
1, 35490, Note_off_c, 0, 24, 62
1, 35507, Note_off_c, 0, 51, 55
1, 35732, Note_on_c, 0, 59, 87
1, 35746, Note_on_c, 0, 50, 69
1, 35747, Note_on_c, 0, 53, 68
1, 35898, Note_on_c, 0, 47, 92
1, 35903, Note_on_c, 0, 44, 79
1, 35919, Control_c, 0, 64, 79
1, 35934, Control_c, 0, 64, 45
1, 35949, Control_c, 0, 64, 0
1, 35976, Note_off_c, 0, 50, 58
1, 35988, Note_off_c, 0, 53, 66
1, 35994, Control_c, 0, 64, 55
1, 36006, Note_off_c, 0, 59, 64
1, 36009, Control_c, 0, 64, 70
1, 36024, Control_c, 0, 64, 84
1, 36038, Control_c, 0, 64, 113
1, 36053, Control_c, 0, 64, 127
1, 36307, Note_on_c, 0, 62, 81
1, 36314, Note_on_c, 0, 53, 76
1, 36326, Note_on_c, 0, 56, 64
1, 36361, Note_off_c, 0, 53, 63
1, 36370, Note_off_c, 0, 56, 59
1, 36391, Note_off_c, 0, 62, 62
1, 36408, Control_c, 0, 64, 92
1, 36423, Control_c, 0, 64, 64
1, 36429, Note_on_c, 0, 63, 90
1, 36441, Note_on_c, 0, 54, 80
1, 36442, Note_on_c, 0, 57, 71
1, 36444, Control_c, 0, 64, 0
1, 36504, Control_c, 0, 64, 45
1, 36519, Control_c, 0, 64, 68
1, 36534, Control_c, 0, 64, 80
1, 36549, Control_c, 0, 64, 98
1, 36560, Note_off_c, 0, 47, 59
1, 36564, Control_c, 0, 64, 127
1, 36602, Note_off_c, 0, 44, 61
1, 37002, Note_on_c, 0, 24, 103
1, 37056, Note_off_c, 0, 57, 62
1, 37124, Note_off_c, 0, 63, 58
1, 37191, Note_off_c, 0, 54, 36
1, 37404, Note_on_c, 0, 55, 75
1, 37406, Note_on_c, 0, 64, 81
1, 37410, Note_on_c, 0, 58, 73
1, 37445, Note_off_c, 0, 55, 61
1, 37466, Note_off_c, 0, 58, 63
1, 37496, Note_off_c, 0, 64, 62
1, 37517, Note_on_c, 0, 65, 87
1, 37523, Note_on_c, 0, 56, 80
1, 37523, Note_on_c, 0, 59, 77
1, 37535, Control_c, 0, 64, 91
1, 37550, Control_c, 0, 64, 60
1, 37565, Control_c, 0, 64, 0
1, 37609, Control_c, 0, 64, 31
1, 37624, Control_c, 0, 64, 66
1, 37630, Note_off_c, 0, 24, 64
1, 37639, Control_c, 0, 64, 93
1, 37654, Control_c, 0, 64, 127
1, 38063, Note_on_c, 0, 53, 97
1, 38065, Note_on_c, 0, 44, 79
1, 38072, Note_on_c, 0, 47, 74
1, 38073, Note_on_c, 0, 50, 83
1, 38141, Note_off_c, 0, 59, 60
1, 38157, Note_off_c, 0, 65, 61
1, 38177, Note_off_c, 0, 56, 55
1, 38431, Note_on_c, 0, 66, 89
1, 38435, Note_on_c, 0, 57, 76
1, 38441, Note_on_c, 0, 60, 73
1, 38483, Note_off_c, 0, 60, 49
1, 38484, Note_off_c, 0, 57, 62
1, 38529, Note_off_c, 0, 66, 58
1, 38537, Control_c, 0, 64, 116
1, 38546, Note_on_c, 0, 67, 91
1, 38552, Control_c, 0, 64, 72
1, 38554, Note_on_c, 0, 58, 81
1, 38560, Note_on_c, 0, 61, 76
1, 38566, Control_c, 0, 64, 0
1, 38611, Control_c, 0, 64, 23
1, 38626, Control_c, 0, 64, 65
1, 38640, Control_c, 0, 64, 82
1, 38655, Control_c, 0, 64, 127
1, 38660, Note_off_c, 0, 61, 55
1, 38672, Note_off_c, 0, 53, 61
1, 38696, Note_off_c, 0, 50, 57
1, 38698, Note_off_c, 0, 67, 61
1, 38710, Note_off_c, 0, 47, 59
1, 38723, Note_off_c, 0, 44, 61
1, 38736, Note_off_c, 0, 58, 38
1, 38956, Note_on_c, 0, 68, 91
1, 38960, Note_on_c, 0, 59, 81
1, 38963, Note_on_c, 0, 62, 84
1, 39137, Control_c, 0, 64, 107
1, 39149, Note_on_c, 0, 24, 98
1, 39152, Control_c, 0, 64, 72
1, 39167, Control_c, 0, 64, 19
1, 39181, Control_c, 0, 64, 0
1, 39214, Note_off_c, 0, 62, 61
1, 39226, Control_c, 0, 64, 56
1, 39240, Control_c, 0, 64, 75
1, 39251, Note_off_c, 0, 59, 61
1, 39255, Control_c, 0, 64, 102
1, 39270, Control_c, 0, 64, 127
1, 39311, Note_off_c, 0, 68, 62
1, 39552, Note_on_c, 0, 60, 77
1, 39552, Note_on_c, 0, 69, 81
1, 39562, Note_on_c, 0, 63, 65
1, 39580, Note_off_c, 0, 60, 64
1, 39583, Note_off_c, 0, 24, 58
1, 39595, Note_off_c, 0, 63, 61
1, 39640, Note_off_c, 0, 69, 64
1, 39663, Note_on_c, 0, 70, 82
1, 39674, Note_on_c, 0, 61, 69
1, 39681, Note_on_c, 0, 24, 74
1, 39682, Note_on_c, 0, 64, 60
1, 39720, Note_off_c, 0, 64, 64
1, 39739, Note_off_c, 0, 24, 63
1, 39743, Note_off_c, 0, 61, 51
1, 39762, Note_on_c, 0, 36, 69
1, 39766, Note_off_c, 0, 70, 55
1, 39809, Note_off_c, 0, 36, 53
1, 39821, Note_on_c, 0, 24, 75
1, 39864, Note_off_c, 0, 24, 63
1, 39886, Note_on_c, 0, 36, 73
1, 39936, Note_on_c, 0, 24, 40
1, 39964, Note_off_c, 0, 24, 58
1, 39973, Note_off_c, 0, 36, 61
1, 40027, Note_on_c, 0, 71, 90
1, 40034, Note_on_c, 0, 62, 80
1, 40036, Note_on_c, 0, 65, 75
1, 40190, Note_on_c, 0, 56, 102
1, 40196, Note_on_c, 0, 47, 77
1, 40200, Note_on_c, 0, 53, 76
1, 40217, Note_on_c, 0, 50, 53
1, 40249, Control_c, 0, 64, 84
1, 40263, Control_c, 0, 64, 66
1, 40278, Control_c, 0, 64, 59
1, 40286, Note_off_c, 0, 62, 58
1, 40293, Control_c, 0, 64, 64
1, 40306, Note_off_c, 0, 71, 58
1, 40308, Control_c, 0, 64, 73
1, 40323, Control_c, 0, 64, 91
1, 40333, Note_off_c, 0, 65, 65
1, 40337, Control_c, 0, 64, 127
1, 40403, Note_off_c, 0, 47, 56
1, 40444, Note_off_c, 0, 53, 31
1, 40458, Note_off_c, 0, 56, 53
1, 40485, Note_off_c, 0, 50, 38
1, 40584, Note_on_c, 0, 72, 82
1, 40585, Note_on_c, 0, 63, 76
1, 40617, Note_on_c, 0, 66, 43
1, 40644, Note_off_c, 0, 66, 55
1, 40653, Note_off_c, 0, 63, 62
1, 40659, Note_off_c, 0, 72, 62
1, 40702, Note_on_c, 0, 73, 96
1, 40707, Note_on_c, 0, 64, 80
1, 40711, Note_on_c, 0, 67, 77
1, 40777, Note_off_c, 0, 67, 60
1, 40779, Note_off_c, 0, 64, 60
1, 40821, Note_off_c, 0, 73, 59
1, 41082, Note_on_c, 0, 74, 82
1, 41084, Note_on_c, 0, 65, 81
1, 41093, Note_on_c, 0, 68, 70
1, 41127, Note_off_c, 0, 65, 63
1, 41148, Note_off_c, 0, 68, 61
1, 41166, Note_off_c, 0, 74, 64
1, 41175, Control_c, 0, 64, 86
1, 41190, Control_c, 0, 64, 49
1, 41199, Note_on_c, 0, 24, 85
1, 41199, Note_on_c, 0, 75, 84
1, 41205, Control_c, 0, 64, 0
1, 41208, Note_on_c, 0, 66, 76
1, 41211, Note_on_c, 0, 69, 72
1, 41249, Control_c, 0, 64, 62
1, 41264, Control_c, 0, 64, 99
1, 41279, Control_c, 0, 64, 127
1, 41280, Note_off_c, 0, 69, 64
1, 41283, Note_on_c, 0, 36, 75
1, 41294, Note_off_c, 0, 24, 61
1, 41346, Note_off_c, 0, 36, 59
1, 41359, Note_off_c, 0, 66, 60
1, 41361, Note_on_c, 0, 24, 73
1, 41419, Note_off_c, 0, 75, 29
1, 41432, Note_on_c, 0, 36, 74
1, 41434, Note_off_c, 0, 24, 62
1, 41469, Note_on_c, 0, 76, 91
1, 41479, Note_on_c, 0, 67, 82
1, 41480, Note_on_c, 0, 70, 78
1, 41486, Note_on_c, 0, 24, 78
1, 41487, Note_off_c, 0, 36, 57
1, 41515, Note_off_c, 0, 67, 56
1, 41550, Note_off_c, 0, 70, 56
1, 41552, Note_off_c, 0, 24, 62
1, 41554, Note_off_c, 0, 76, 63
1, 41555, Note_on_c, 0, 36, 79
1, 41606, Note_off_c, 0, 36, 61
1, 41621, Note_on_c, 0, 24, 81
1, 41676, Note_off_c, 0, 24, 60
1, 41689, Note_on_c, 0, 36, 81
1, 41734, Note_on_c, 0, 77, 96
1, 41740, Note_on_c, 0, 68, 93
1, 41741, Note_off_c, 0, 36, 57
1, 41742, Note_on_c, 0, 71, 88
1, 41747, Note_on_c, 0, 24, 86
1, 41803, Note_off_c, 0, 24, 62
1, 41807, Note_on_c, 0, 36, 79
1, 41813, Note_off_c, 0, 68, 61
1, 41831, Note_off_c, 0, 71, 55
1, 41833, Note_off_c, 0, 77, 57
1, 41854, Note_off_c, 0, 36, 61
1, 41869, Note_on_c, 0, 24, 84
1, 41945, Note_on_c, 0, 36, 90
1, 41950, Note_off_c, 0, 24, 62
1, 41965, Note_off_c, 0, 36, 71
1, 42023, Note_on_c, 0, 77, 96
1, 42028, Note_on_c, 0, 71, 90
1, 42029, Note_on_c, 0, 68, 90
1, 42305, Note_on_c, 0, 61, 105
1, 42308, Note_on_c, 0, 58, 89
1, 42311, Note_on_c, 0, 49, 81
1, 42355, Control_c, 0, 64, 113
1, 42370, Control_c, 0, 64, 72
1, 42376, Note_off_c, 0, 68, 63
1, 42381, Note_off_c, 0, 77, 61
1, 42385, Control_c, 0, 64, 0
1, 42406, Note_off_c, 0, 71, 58
1, 42865, Control_c, 0, 64, 83
1, 42880, Control_c, 0, 64, 127
1, 42910, Note_on_c, 0, 77, 104
1, 42912, Note_on_c, 0, 68, 101
1, 42913, Note_on_c, 0, 65, 98
1, 42958, Note_off_c, 0, 61, 59
1, 42963, Note_off_c, 0, 49, 58
1, 42978, Note_off_c, 0, 58, 61
1, 43455, Note_on_c, 0, 24, 100
1, 43487, Note_off_c, 0, 77, 62
1, 43500, Note_off_c, 0, 65, 64
1, 43529, Note_off_c, 0, 68, 67
1, 43561, Note_on_c, 0, 36, 58
1, 43574, Note_off_c, 0, 24, 60
1, 43626, Note_off_c, 0, 36, 61
1, 43652, Note_on_c, 0, 24, 68
1, 43717, Note_off_c, 0, 24, 59
1, 43728, Note_on_c, 0, 36, 67
1, 43769, Note_off_c, 0, 36, 60
1, 43795, Note_on_c, 0, 24, 68
1, 43840, Note_off_c, 0, 24, 57
1, 43859, Note_on_c, 0, 36, 66
1, 43898, Note_off_c, 0, 36, 58
1, 43935, Note_on_c, 0, 24, 71
1, 43971, Note_off_c, 0, 24, 62
1, 44000, Note_on_c, 0, 36, 69
1, 44027, Note_on_c, 0, 64, 85
1, 44030, Note_on_c, 0, 55, 72
1, 44038, Note_on_c, 0, 52, 76
1, 44039, Note_off_c, 0, 36, 57
1, 44054, Note_on_c, 0, 24, 82
1, 44077, Note_off_c, 0, 52, 56
1, 44105, Note_off_c, 0, 24, 60
1, 44107, Note_off_c, 0, 64, 61
1, 44114, Note_on_c, 0, 36, 76
1, 44120, Note_off_c, 0, 55, 60
1, 44162, Note_off_c, 0, 36, 62
1, 44183, Note_on_c, 0, 24, 78
1, 44221, Note_off_c, 0, 24, 64
1, 44245, Note_on_c, 0, 36, 66
1, 44272, Note_off_c, 0, 36, 59
1, 44280, Note_on_c, 0, 24, 93
1, 44323, Note_off_c, 0, 24, 64
1, 44326, Note_on_c, 0, 36, 80
1, 44350, Note_off_c, 0, 36, 68
1, 44586, Note_on_c, 0, 61, 102
1, 44589, Note_on_c, 0, 49, 80
1, 44591, Note_on_c, 0, 58, 86
1, 44659, Control_c, 0, 64, 79
1, 44682, Control_c, 0, 64, 0
1, 45112, Control_c, 0, 64, 54
1, 45126, Control_c, 0, 64, 112
1, 45138, Note_on_c, 0, 77, 99
1, 45140, Note_on_c, 0, 68, 95
1, 45141, Note_on_c, 0, 65, 94
1, 45141, Control_c, 0, 64, 127
1, 45172, Note_off_c, 0, 61, 60
1, 45187, Note_off_c, 0, 49, 59
1, 45193, Note_off_c, 0, 58, 62
1, 45665, Note_on_c, 0, 24, 98
1, 45699, Note_off_c, 0, 77, 64
1, 45711, Note_off_c, 0, 65, 64
1, 45730, Note_off_c, 0, 68, 69
1, 45762, Note_on_c, 0, 36, 69
1, 45765, Note_off_c, 0, 24, 63
1, 45789, Poly_aftertouch_c, 0, 31, 127
1, 45824, Note_off_c, 0, 36, 61
1, 45834, Poly_aftertouch_c, 0, 31, 0
1, 45850, Note_on_c, 0, 24, 80
1, 45917, Note_off_c, 0, 24, 60
1, 45918, Note_on_c, 0, 36, 64
1, 45963, Note_off_c, 0, 36, 56
1, 45980, Note_on_c, 0, 24, 67
1, 46032, Note_off_c, 0, 24, 61
1, 46048, Note_on_c, 0, 36, 71
1, 46080, Note_off_c, 0, 36, 61
1, 46108, Note_on_c, 0, 24, 77
1, 46163, Note_off_c, 0, 24, 60
1, 46182, Note_on_c, 0, 36, 74
1, 46233, Note_off_c, 0, 36, 59
1, 46249, Note_on_c, 0, 24, 84
1, 46257, Note_on_c, 0, 64, 87
1, 46263, Note_on_c, 0, 55, 80
1, 46266, Note_on_c, 0, 52, 80
1, 46316, Note_off_c, 0, 24, 61
1, 46318, Note_on_c, 0, 36, 80
1, 46320, Note_off_c, 0, 52, 63
1, 46362, Note_off_c, 0, 55, 60
1, 46374, Note_off_c, 0, 36, 58
1, 46379, Note_on_c, 0, 24, 83
1, 46422, Note_off_c, 0, 64, 58
1, 46439, Note_off_c, 0, 24, 61
1, 46451, Note_on_c, 0, 36, 77
1, 46464, Poly_aftertouch_c, 0, 31, 127
1, 46487, Note_off_c, 0, 36, 59
1, 46508, Note_on_c, 0, 24, 88
1, 46560, Note_off_c, 0, 24, 65
1, 46563, Note_on_c, 0, 36, 84
1, 46568, Poly_aftertouch_c, 0, 31, 0
1, 46582, Note_off_c, 0, 36, 71
1, 46868, Note_on_c, 0, 61, 96
1, 46871, Note_on_c, 0, 49, 76
1, 46878, Note_on_c, 0, 58, 82
1, 46973, Control_c, 0, 64, 102
1, 46988, Control_c, 0, 64, 74
1, 47002, Control_c, 0, 64, 43
1, 47017, Control_c, 0, 64, 0
1, 47239, Control_c, 0, 64, 36
1, 47249, Poly_aftertouch_c, 0, 66, 0
1, 47253, Control_c, 0, 64, 79
1, 47268, Control_c, 0, 64, 127
1, 47295, Note_on_c, 0, 76, 87
1, 47298, Note_on_c, 0, 67, 81
1, 47308, Note_on_c, 0, 64, 67
1, 47326, Note_off_c, 0, 67, 61
1, 47333, Note_off_c, 0, 64, 66
1, 47341, Note_off_c, 0, 76, 65
1, 47391, Note_on_c, 0, 77, 100
1, 47394, Note_on_c, 0, 65, 92
1, 47396, Note_on_c, 0, 68, 89
1, 47402, Control_c, 0, 64, 100
1, 47417, Control_c, 0, 64, 69
1, 47432, Control_c, 0, 64, 0
1, 47476, Control_c, 0, 64, 27
1, 47491, Control_c, 0, 64, 63
1, 47506, Control_c, 0, 64, 79
1, 47508, Note_off_c, 0, 61, 62
1, 47521, Control_c, 0, 64, 109
1, 47536, Control_c, 0, 64, 127
1, 47557, Note_off_c, 0, 58, 60
1, 47595, Note_off_c, 0, 49, 60
1, 47855, Note_on_c, 0, 27, 16
1, 47903, Note_off_c, 0, 27, 53
1, 47937, Note_on_c, 0, 24, 94
1, 48022, Note_on_c, 0, 36, 80
1, 48028, Note_off_c, 0, 65, 56
1, 48034, Note_off_c, 0, 24, 62
1, 48051, Note_off_c, 0, 68, 61
1, 48085, Note_off_c, 0, 36, 59
1, 48109, Note_on_c, 0, 24, 73
1, 48121, Note_off_c, 0, 77, 59
1, 48181, Note_on_c, 0, 36, 74
1, 48181, Note_off_c, 0, 24, 60
1, 48248, Note_off_c, 0, 36, 61
1, 48269, Note_on_c, 0, 24, 85
1, 48308, Note_on_c, 0, 79, 88
1, 48313, Note_on_c, 0, 67, 80
1, 48314, Note_on_c, 0, 70, 83
1, 48342, Note_on_c, 0, 36, 80
1, 48349, Note_off_c, 0, 79, 64
1, 48353, Note_off_c, 0, 24, 62
1, 48353, Note_off_c, 0, 67, 61
1, 48362, Note_off_c, 0, 70, 64
1, 48425, Note_off_c, 0, 36, 61
1, 48434, Note_on_c, 0, 72, 81
1, 48435, Note_on_c, 0, 80, 93
1, 48439, Note_on_c, 0, 24, 93
1, 48439, Note_on_c, 0, 68, 90
1, 48440, Control_c, 0, 64, 89
1, 48455, Control_c, 0, 64, 53
1, 48469, Control_c, 0, 64, 0
1, 48507, Note_off_c, 0, 24, 61
1, 48513, Note_on_c, 0, 36, 85
1, 48515, Control_c, 0, 64, 38
1, 48530, Control_c, 0, 64, 75
1, 48545, Control_c, 0, 64, 127
1, 48562, Note_off_c, 0, 36, 61
1, 48587, Note_on_c, 0, 24, 87
1, 48628, Note_off_c, 0, 24, 62
1, 48645, Note_on_c, 0, 36, 74
1, 48669, Note_off_c, 0, 36, 69
1, 48692, Note_on_c, 0, 24, 89
1, 48730, Note_off_c, 0, 24, 65
1, 48734, Note_on_c, 0, 36, 89
1, 48755, Note_off_c, 0, 36, 68
1, 49011, Note_on_c, 0, 61, 94
1, 49015, Note_on_c, 0, 58, 79
1, 49015, Note_on_c, 0, 49, 74
1, 49103, Note_off_c, 0, 80, 63
1, 49127, Note_off_c, 0, 68, 52
1, 49191, Note_off_c, 0, 72, 60
1, 49405, Note_on_c, 0, 79, 87
1, 49415, Note_on_c, 0, 67, 81
1, 49417, Note_on_c, 0, 70, 77
1, 49451, Note_off_c, 0, 67, 61
1, 49451, Note_off_c, 0, 79, 64
1, 49474, Note_off_c, 0, 70, 64
1, 49535, Note_on_c, 0, 78, 100
1, 49540, Note_on_c, 0, 69, 89
1, 49542, Note_on_c, 0, 66, 87
1, 49585, Note_off_c, 0, 61, 58
1, 49588, Note_off_c, 0, 49, 59
1, 49607, Note_off_c, 0, 58, 61
1, 49647, Note_off_c, 0, 69, 61
1, 49658, Note_off_c, 0, 66, 58
1, 49690, Note_off_c, 0, 78, 53
1, 49909, Note_on_c, 0, 77, 100
1, 49920, Note_on_c, 0, 65, 90
1, 49921, Note_on_c, 0, 68, 88
1, 50086, Control_c, 0, 64, 102
1, 50102, Control_c, 0, 64, 70
1, 50110, Note_on_c, 0, 24, 96
1, 50117, Control_c, 0, 64, 0
1, 50146, Control_c, 0, 64, 31
1, 50161, Control_c, 0, 64, 62
1, 50176, Control_c, 0, 64, 81
1, 50191, Control_c, 0, 64, 127
1, 50215, Poly_aftertouch_c, 0, 31, 127
1, 50232, Note_on_c, 0, 36, 60
1, 50237, Note_off_c, 0, 77, 56
1, 50250, Note_off_c, 0, 24, 60
1, 50307, Note_off_c, 0, 36, 60
1, 50329, Note_on_c, 0, 24, 78
1, 50338, Poly_aftertouch_c, 0, 31, 0
1, 50405, Note_off_c, 0, 24, 59
1, 50406, Note_on_c, 0, 36, 74
1, 50408, Note_off_c, 0, 65, 52
1, 50452, Note_off_c, 0, 36, 59
1, 50471, Note_on_c, 0, 24, 78
1, 50473, Note_off_c, 0, 68, 61
1, 50533, Note_on_c, 0, 36, 80
1, 50533, Note_off_c, 0, 24, 60
1, 50584, Note_off_c, 0, 36, 60
1, 50598, Note_on_c, 0, 24, 79
1, 50624, Poly_aftertouch_c, 0, 31, 127
1, 50666, Note_on_c, 0, 36, 82
1, 50674, Note_off_c, 0, 24, 59
1, 50708, Poly_aftertouch_c, 0, 31, 0
1, 50723, Note_off_c, 0, 36, 62
1, 50732, Note_on_c, 0, 24, 80
1, 50734, Note_on_c, 0, 31, 21
1, 50739, Note_on_c, 0, 76, 95
1, 50741, Note_on_c, 0, 67, 90
1, 50744, Note_on_c, 0, 64, 84
1, 50794, Note_off_c, 0, 24, 63
1, 50798, Note_on_c, 0, 36, 84
1, 50846, Note_off_c, 0, 36, 60
1, 50868, Note_on_c, 0, 24, 86
1, 50872, Note_off_c, 0, 31, 0
1, 50872, Note_on_c, 0, 31, 11
1, 50938, Note_off_c, 0, 31, 0
1, 50938, Note_on_c, 0, 31, 24
1, 50946, Note_on_c, 0, 36, 75
1, 50999, Note_off_c, 0, 36, 0
1, 51006, Note_off_c, 0, 24, 63
1, 51010, Note_on_c, 0, 36, 63
1, 51033, Note_off_c, 0, 36, 70
1, 51049, Note_off_c, 0, 31, 33
1, 51319, Note_on_c, 0, 63, 104
1, 51322, Note_on_c, 0, 51, 84
1, 51325, Note_on_c, 0, 60, 87
1, 51386, Note_off_c, 0, 64, 64
1, 51399, Control_c, 0, 64, 92
1, 51413, Note_off_c, 0, 67, 60
1, 51420, Control_c, 0, 64, 63
1, 51423, Note_off_c, 0, 76, 66
1, 51435, Control_c, 0, 64, 0
1, 51836, Control_c, 0, 64, 96
1, 51851, Control_c, 0, 64, 127
1, 51908, Note_on_c, 0, 79, 106
1, 51910, Note_on_c, 0, 67, 96
1, 51910, Note_on_c, 0, 70, 95
1, 51940, Note_off_c, 0, 63, 58
1, 51946, Note_off_c, 0, 60, 57
1, 51964, Note_off_c, 0, 51, 56
1, 52452, Note_on_c, 0, 24, 100
1, 52498, Note_off_c, 0, 79, 62
1, 52513, Note_off_c, 0, 67, 58
1, 52550, Note_off_c, 0, 70, 66
1, 52585, Note_on_c, 0, 36, 59
1, 52601, Note_off_c, 0, 24, 61
1, 52673, Note_off_c, 0, 36, 43
1, 52678, Note_on_c, 0, 24, 68
1, 52732, Note_off_c, 0, 24, 62
1, 52756, Note_on_c, 0, 36, 57
1, 52802, Note_off_c, 0, 36, 60
1, 52825, Note_on_c, 0, 24, 78
1, 52876, Note_off_c, 0, 24, 60
1, 52892, Note_on_c, 0, 36, 68
1, 52955, Note_off_c, 0, 36, 56
1, 52974, Note_on_c, 0, 24, 73
1, 53031, Note_off_c, 0, 24, 58
1, 53037, Note_on_c, 0, 36, 77
1, 53043, Note_on_c, 0, 66, 92
1, 53048, Note_on_c, 0, 54, 82
1, 53048, Note_on_c, 0, 57, 80
1, 53092, Note_off_c, 0, 36, 58
1, 53097, Note_off_c, 0, 54, 59
1, 53104, Note_on_c, 0, 24, 76
1, 53112, Note_off_c, 0, 57, 62
1, 53116, Note_off_c, 0, 66, 66
1, 53160, Note_off_c, 0, 24, 59
1, 53168, Note_on_c, 0, 36, 82
1, 53216, Note_off_c, 0, 36, 59
1, 53236, Note_on_c, 0, 24, 85
1, 53299, Note_off_c, 0, 24, 48
1, 53303, Note_on_c, 0, 36, 83
1, 53327, Note_off_c, 0, 36, 65
1, 53632, Note_on_c, 0, 63, 105
1, 53637, Note_on_c, 0, 60, 87
1, 53638, Note_on_c, 0, 51, 81
1, 53712, Control_c, 0, 64, 80
1, 53727, Control_c, 0, 64, 46
1, 53742, Control_c, 0, 64, 0
1, 54142, Control_c, 0, 64, 66
1, 54158, Control_c, 0, 64, 127
1, 54191, Note_on_c, 0, 79, 104
1, 54192, Note_on_c, 0, 67, 91
1, 54193, Note_on_c, 0, 70, 92
1, 54219, Note_off_c, 0, 63, 59
1, 54229, Note_off_c, 0, 60, 59
1, 54240, Note_off_c, 0, 51, 58
1, 54721, Note_on_c, 0, 24, 101
1, 54779, Note_off_c, 0, 79, 64
1, 54782, Note_off_c, 0, 67, 62
1, 54824, Note_off_c, 0, 70, 66
1, 54852, Note_off_c, 0, 24, 59
1, 54858, Note_on_c, 0, 36, 46
1, 54905, Poly_aftertouch_c, 0, 31, 127
1, 54914, Note_off_c, 0, 36, 56
1, 54932, Note_on_c, 0, 24, 70
1, 54941, Poly_aftertouch_c, 0, 31, 0
1, 54997, Note_off_c, 0, 24, 58
1, 55017, Note_on_c, 0, 36, 63
1, 55057, Note_off_c, 0, 36, 57
1, 55084, Note_on_c, 0, 24, 67
1, 55125, Note_off_c, 0, 24, 62
1, 55161, Note_on_c, 0, 36, 65
1, 55205, Note_off_c, 0, 36, 59
1, 55233, Note_on_c, 0, 24, 73
1, 55295, Note_off_c, 0, 24, 58
1, 55304, Note_on_c, 0, 36, 66
1, 55323, Note_on_c, 0, 66, 89
1, 55330, Note_on_c, 0, 57, 80
1, 55331, Note_on_c, 0, 54, 78
1, 55349, Note_off_c, 0, 36, 56
1, 55364, Note_on_c, 0, 24, 76
1, 55371, Note_off_c, 0, 54, 58
1, 55373, Note_off_c, 0, 57, 62
1, 55379, Note_off_c, 0, 66, 67
1, 55418, Note_off_c, 0, 24, 61
1, 55427, Note_on_c, 0, 36, 77
1, 55471, Note_off_c, 0, 36, 59
1, 55495, Note_on_c, 0, 24, 86
1, 55549, Note_off_c, 0, 24, 61
1, 55555, Note_on_c, 0, 36, 85
1, 55576, Note_off_c, 0, 36, 68
1, 55882, Note_on_c, 0, 63, 101
1, 55888, Note_on_c, 0, 51, 79
1, 55889, Note_on_c, 0, 60, 85
1, 55944, Control_c, 0, 64, 86
1, 55958, Control_c, 0, 64, 50
1, 55973, Control_c, 0, 64, 0
1, 56210, Control_c, 0, 64, 49
1, 56225, Control_c, 0, 64, 96
1, 56240, Control_c, 0, 64, 127
1, 56288, Note_on_c, 0, 78, 88
1, 56294, Note_on_c, 0, 69, 81
1, 56294, Note_on_c, 0, 66, 79
1, 56317, Note_off_c, 0, 66, 70
1, 56318, Note_off_c, 0, 69, 68
1, 56337, Note_off_c, 0, 78, 60
1, 56388, Control_c, 0, 64, 79
1, 56391, Note_on_c, 0, 79, 99
1, 56395, Note_on_c, 0, 67, 88
1, 56396, Note_on_c, 0, 70, 86
1, 56403, Control_c, 0, 64, 0
1, 56462, Control_c, 0, 64, 26
1, 56478, Control_c, 0, 64, 69
1, 56493, Control_c, 0, 64, 95
1, 56507, Control_c, 0, 64, 127
1, 56519, Note_off_c, 0, 63, 60
1, 56529, Note_off_c, 0, 60, 57
1, 56578, Note_off_c, 0, 51, 55
1, 56948, Note_on_c, 0, 24, 99
1, 57034, Note_off_c, 0, 67, 56
1, 57049, Note_on_c, 0, 36, 67
1, 57063, Note_off_c, 0, 24, 60
1, 57076, Note_off_c, 0, 70, 63
1, 57117, Note_off_c, 0, 79, 61
1, 57120, Note_off_c, 0, 36, 60
1, 57143, Note_on_c, 0, 24, 77
1, 57213, Note_off_c, 0, 24, 58
1, 57219, Note_on_c, 0, 36, 73
1, 57295, Note_off_c, 0, 36, 56
1, 57309, Note_on_c, 0, 24, 85
1, 57313, Note_on_c, 0, 81, 90
1, 57322, Note_on_c, 0, 69, 78
1, 57324, Note_on_c, 0, 72, 72
1, 57345, Note_off_c, 0, 72, 67
1, 57348, Note_off_c, 0, 69, 67
1, 57362, Note_off_c, 0, 81, 60
1, 57394, Note_on_c, 0, 36, 75
1, 57406, Note_off_c, 0, 24, 60
1, 57441, Control_c, 0, 64, 73
1, 57448, Note_on_c, 0, 82, 95
1, 57455, Note_on_c, 0, 70, 85
1, 57455, Control_c, 0, 64, 0
1, 57460, Note_on_c, 0, 74, 73
1, 57474, Note_off_c, 0, 36, 58
1, 57479, Note_on_c, 0, 24, 84
1, 57500, Control_c, 0, 64, 27
1, 57515, Control_c, 0, 64, 72
1, 57529, Control_c, 0, 64, 127
1, 57549, Note_on_c, 0, 36, 83
1, 57553, Note_off_c, 0, 24, 61
1, 57602, Note_off_c, 0, 36, 60
1, 57623, Note_on_c, 0, 24, 83
1, 57674, Note_off_c, 0, 24, 59
1, 57676, Poly_aftertouch_c, 0, 31, 127
1, 57686, Note_on_c, 0, 36, 75
1, 57716, Note_off_c, 0, 36, 64
1, 57727, Poly_aftertouch_c, 0, 31, 0
1, 58005, Note_on_c, 0, 63, 99
1, 58006, Note_on_c, 0, 51, 79
1, 58007, Note_on_c, 0, 60, 81
1, 58097, Note_off_c, 0, 82, 62
1, 58111, Note_off_c, 0, 70, 56
1, 58158, Note_off_c, 0, 74, 62
1, 58391, Note_on_c, 0, 81, 93
1, 58399, Note_on_c, 0, 69, 83
1, 58401, Note_on_c, 0, 72, 81
1, 58434, Note_off_c, 0, 69, 64
1, 58440, Note_off_c, 0, 81, 62
1, 58458, Note_off_c, 0, 72, 64
1, 58516, Note_on_c, 0, 80, 96
1, 58524, Note_on_c, 0, 71, 84
1, 58525, Note_on_c, 0, 68, 88
1, 58542, Note_off_c, 0, 51, 59
1, 58547, Note_off_c, 0, 63, 59
1, 58560, Note_off_c, 0, 60, 58
1, 58616, Note_off_c, 0, 68, 58
1, 58629, Note_off_c, 0, 71, 55
1, 58649, Note_off_c, 0, 80, 60
1, 58893, Note_on_c, 0, 79, 97
1, 58902, Note_on_c, 0, 70, 93
1, 58905, Note_on_c, 0, 67, 87
1, 59027, Control_c, 0, 64, 107
1, 59042, Control_c, 0, 64, 67
1, 59057, Control_c, 0, 64, 0
1, 59066, Note_on_c, 0, 24, 98
1, 59102, Control_c, 0, 64, 56
1, 59116, Control_c, 0, 64, 116
1, 59131, Control_c, 0, 64, 127
1, 59171, Note_off_c, 0, 79, 57
1, 59214, Note_off_c, 0, 24, 59
1, 59219, Note_on_c, 0, 36, 54
1, 59262, Note_off_c, 0, 67, 58
1, 59273, Note_off_c, 0, 36, 62
1, 59297, Note_on_c, 0, 24, 70
1, 59336, Poly_aftertouch_c, 0, 35, 0
1, 59367, Note_off_c, 0, 24, 59
1, 59374, Note_on_c, 0, 36, 69
1, 59421, Note_off_c, 0, 70, 61
1, 59425, Note_off_c, 0, 36, 58
1, 59441, Note_on_c, 0, 24, 79
1, 59508, Note_on_c, 0, 36, 77
1, 59511, Note_off_c, 0, 24, 60
1, 59563, Note_off_c, 0, 36, 61
1, 59576, Note_on_c, 0, 24, 80
1, 59610, Note_on_c, 0, 78, 95
1, 59613, Note_on_c, 0, 69, 94
1, 59614, Note_on_c, 0, 66, 93
1, 59641, Note_on_c, 0, 36, 83
1, 59657, Note_off_c, 0, 24, 60
1, 59701, Note_off_c, 0, 36, 60
1, 59721, Note_on_c, 0, 24, 79
1, 59769, Note_on_c, 0, 31, 16
1, 59773, Note_off_c, 0, 24, 59
1, 59778, Note_on_c, 0, 36, 80
1, 59806, Note_off_c, 0, 31, 0
1, 59820, Note_off_c, 0, 36, 62
1, 59834, Note_on_c, 0, 24, 88
1, 59835, Note_on_c, 0, 31, 30
1, 59880, Note_off_c, 0, 24, 65
1, 59880, Note_off_c, 0, 31, 49
1, 59885, Note_on_c, 0, 36, 79
1, 59906, Note_off_c, 0, 36, 64
1, 60232, Note_on_c, 0, 65, 104
1, 60234, Note_on_c, 0, 53, 89
1, 60238, Note_on_c, 0, 62, 90
1, 60295, Control_c, 0, 64, 109
1, 60300, Note_off_c, 0, 66, 63
1, 60307, Note_off_c, 0, 78, 60
1, 60310, Control_c, 0, 64, 67
1, 60315, Note_off_c, 0, 69, 65
1, 60324, Control_c, 0, 64, 0
1, 60807, Control_c, 0, 64, 48
1, 60817, Note_on_c, 0, 81, 99
1, 60818, Note_on_c, 0, 72, 100
1, 60819, Note_on_c, 0, 69, 102
1, 60822, Control_c, 0, 64, 127
1, 60846, Note_off_c, 0, 65, 66
1, 60847, Note_off_c, 0, 53, 64
1, 60866, Note_off_c, 0, 62, 63
1, 61368, Note_on_c, 0, 24, 100
1, 61412, Note_off_c, 0, 81, 63
1, 61428, Note_off_c, 0, 69, 65
1, 61454, Note_off_c, 0, 72, 63
1, 61502, Poly_aftertouch_c, 0, 31, 127
1, 61504, Note_on_c, 0, 36, 52
1, 61514, Note_off_c, 0, 24, 59
1, 61567, Poly_aftertouch_c, 0, 31, 0
1, 61576, Note_off_c, 0, 36, 61
1, 61603, Note_on_c, 0, 24, 72
1, 61665, Note_on_c, 0, 36, 69
1, 61666, Note_off_c, 0, 24, 59
1, 61724, Note_off_c, 0, 36, 59
1, 61741, Note_on_c, 0, 24, 78
1, 61806, Note_off_c, 0, 24, 58
1, 61810, Note_on_c, 0, 36, 71
1, 61866, Note_off_c, 0, 36, 58
1, 61885, Note_on_c, 0, 24, 74
1, 61953, Note_on_c, 0, 68, 95
1, 61957, Note_on_c, 0, 36, 83
1, 61958, Note_on_c, 0, 59, 79
1, 61959, Note_on_c, 0, 56, 81
1, 61959, Note_off_c, 0, 24, 56
1, 62011, Note_off_c, 0, 36, 59
1, 62017, Note_off_c, 0, 56, 61
1, 62021, Note_on_c, 0, 24, 76
1, 62038, Note_off_c, 0, 59, 62
1, 62039, Note_off_c, 0, 68, 63
1, 62079, Note_on_c, 0, 36, 82
1, 62081, Note_off_c, 0, 24, 61
1, 62095, Poly_aftertouch_c, 0, 31, 127
1, 62118, Poly_aftertouch_c, 0, 31, 0
1, 62125, Note_off_c, 0, 36, 60
1, 62145, Note_on_c, 0, 24, 89
1, 62147, Note_on_c, 0, 31, 12
1, 62187, Note_off_c, 0, 24, 65
1, 62187, Note_off_c, 0, 31, 55
1, 62193, Note_on_c, 0, 36, 85
1, 62214, Note_off_c, 0, 36, 70
1, 62526, Note_on_c, 0, 65, 104
1, 62527, Note_on_c, 0, 53, 88
1, 62530, Note_on_c, 0, 62, 91
1, 62600, Control_c, 0, 64, 69
1, 62615, Control_c, 0, 64, 0
1, 63053, Control_c, 0, 64, 108
1, 63067, Control_c, 0, 64, 127
1, 63078, Note_off_c, 0, 65, 62
1, 63088, Note_on_c, 0, 81, 99
1, 63088, Note_off_c, 0, 62, 57
1, 63092, Note_on_c, 0, 72, 87
1, 63093, Note_on_c, 0, 69, 98
1, 63130, Note_off_c, 0, 53, 65
1, 63600, Note_on_c, 0, 24, 100
1, 63636, Note_off_c, 0, 81, 61
1, 63655, Note_off_c, 0, 69, 63
1, 63687, Note_off_c, 0, 72, 61
1, 63758, Note_off_c, 0, 24, 60
1, 63761, Poly_aftertouch_c, 0, 31, 127
1, 63763, Note_on_c, 0, 36, 71
1, 63796, Poly_aftertouch_c, 0, 31, 0
1, 63815, Note_off_c, 0, 36, 59
1, 63848, Note_on_c, 0, 24, 75
1, 63908, Note_off_c, 0, 24, 53
1, 63917, Note_on_c, 0, 36, 71
1, 63965, Note_off_c, 0, 36, 60
1, 63983, Note_on_c, 0, 24, 76
1, 64052, Note_on_c, 0, 36, 79
1, 64054, Note_off_c, 0, 24, 57
1, 64111, Note_off_c, 0, 36, 59
1, 64130, Note_on_c, 0, 24, 78
1, 64204, Note_on_c, 0, 36, 78
1, 64217, Note_off_c, 0, 24, 61
1, 64220, Note_on_c, 0, 68, 87
1, 64223, Note_on_c, 0, 56, 78
1, 64226, Note_on_c, 0, 59, 73
1, 64262, Note_off_c, 0, 36, 58
1, 64274, Note_on_c, 0, 24, 76
1, 64280, Note_off_c, 0, 59, 63
1, 64284, Note_off_c, 0, 56, 60
1, 64305, Note_off_c, 0, 68, 62
1, 64333, Note_on_c, 0, 36, 82
1, 64342, Note_off_c, 0, 24, 63
1, 64349, Poly_aftertouch_c, 0, 31, 127
1, 64387, Note_off_c, 0, 36, 61
1, 64397, Note_on_c, 0, 31, 26
1, 64399, Note_on_c, 0, 24, 89
1, 64446, Note_off_c, 0, 31, 51
1, 64449, Note_off_c, 0, 24, 65
1, 64451, Note_on_c, 0, 36, 84
1, 64472, Note_off_c, 0, 36, 69
1, 64761, Note_on_c, 0, 66, 105
1, 64764, Note_on_c, 0, 63, 89
1, 64766, Note_on_c, 0, 54, 81
1, 64833, Control_c, 0, 64, 84
1, 64847, Control_c, 0, 64, 51
1, 64862, Control_c, 0, 64, 0
1, 65107, Control_c, 0, 64, 63
1, 65121, Control_c, 0, 64, 127
1, 65177, Note_on_c, 0, 80, 88
1, 65180, Note_on_c, 0, 68, 84
1, 65180, Note_on_c, 0, 71, 78
1, 65208, Note_off_c, 0, 68, 66
1, 65223, Note_off_c, 0, 80, 64
1, 65224, Note_off_c, 0, 71, 55
1, 65270, Control_c, 0, 64, 105
1, 65276, Note_on_c, 0, 72, 95
1, 65278, Note_on_c, 0, 81, 101
1, 65284, Note_on_c, 0, 69, 89
1, 65285, Control_c, 0, 64, 62
1, 65300, Control_c, 0, 64, 0
1, 65359, Control_c, 0, 64, 49
1, 65374, Control_c, 0, 64, 85
1, 65386, Note_off_c, 0, 66, 63
1, 65389, Control_c, 0, 64, 127
1, 65412, Note_off_c, 0, 63, 56
1, 65445, Note_off_c, 0, 54, 57
1, 65794, Note_on_c, 0, 24, 102
1, 65904, Note_off_c, 0, 72, 62
1, 65922, Note_on_c, 0, 36, 63
1, 65925, Note_off_c, 0, 24, 61
1, 65980, Note_off_c, 0, 36, 60
1, 65982, Note_off_c, 0, 69, 49
1, 66003, Note_on_c, 0, 24, 72
1, 66047, Note_off_c, 0, 81, 54
1, 66075, Note_on_c, 0, 36, 64
1, 66077, Note_off_c, 0, 24, 60
1, 66137, Note_off_c, 0, 36, 60
1, 66152, Note_on_c, 0, 24, 76
1, 66193, Note_on_c, 0, 83, 95
1, 66199, Note_on_c, 0, 74, 86
1, 66201, Note_on_c, 0, 71, 80
1, 66216, Note_on_c, 0, 36, 78
1, 66230, Note_off_c, 0, 24, 63
1, 66238, Note_off_c, 0, 74, 65
1, 66240, Note_off_c, 0, 71, 55
1, 66252, Note_off_c, 0, 83, 62
1, 66295, Note_off_c, 0, 36, 61
1, 66311, Note_on_c, 0, 24, 94
1, 66313, Note_on_c, 0, 84, 99
1, 66317, Note_on_c, 0, 75, 91
1, 66320, Note_on_c, 0, 72, 82
1, 66333, Note_on_c, 0, 71, 58
1, 66334, Note_off_c, 0, 71, 127
1, 66344, Control_c, 0, 64, 75
1, 66359, Control_c, 0, 64, 0
1, 66380, Note_on_c, 0, 36, 81
1, 66394, Note_off_c, 0, 24, 61
1, 66426, Control_c, 0, 64, 65
1, 66441, Control_c, 0, 64, 83
1, 66453, Note_off_c, 0, 36, 58
1, 66456, Control_c, 0, 64, 127
1, 66464, Note_on_c, 0, 24, 84
1, 66513, Poly_aftertouch_c, 0, 31, 127
1, 66518, Note_on_c, 0, 36, 76
1, 66523, Note_off_c, 0, 24, 60
1, 66560, Note_off_c, 0, 36, 63
1, 66572, Note_on_c, 0, 24, 82
1, 66615, Note_off_c, 0, 24, 64
1, 66617, Note_on_c, 0, 36, 84
1, 66629, Poly_aftertouch_c, 0, 31, 0
1, 66635, Note_off_c, 0, 36, 71
1, 66876, Note_on_c, 0, 54, 81
1, 66877, Note_on_c, 0, 66, 99
1, 66888, Note_on_c, 0, 63, 93
1, 66916, Note_off_c, 0, 54, 63
1, 66918, Note_off_c, 0, 66, 68
1, 66923, Note_off_c, 0, 63, 64
1, 67004, Note_off_c, 0, 84, 55
1, 67038, Note_off_c, 0, 72, 62
1, 67110, Note_off_c, 0, 75, 60
1, 67269, Note_on_c, 0, 83, 85
1, 67275, Note_on_c, 0, 71, 82
1, 67276, Note_on_c, 0, 74, 83
1, 67308, Note_off_c, 0, 71, 59
1, 67313, Note_off_c, 0, 83, 60
1, 67323, Note_off_c, 0, 74, 68
1, 67379, Note_on_c, 0, 82, 99
1, 67385, Note_on_c, 0, 70, 90
1, 67386, Note_on_c, 0, 73, 87
1, 67460, Note_off_c, 0, 82, 63
1, 67464, Note_off_c, 0, 70, 58
1, 67487, Note_off_c, 0, 73, 51
1, 67730, Note_on_c, 0, 81, 100
1, 67732, Note_on_c, 0, 72, 85
1, 67734, Note_on_c, 0, 69, 93
1, 67857, Control_c, 0, 64, 88
1, 67872, Control_c, 0, 64, 56
1, 67895, Control_c, 0, 64, 0
1, 67899, Note_on_c, 0, 24, 100
1, 67925, Control_c, 0, 64, 48
1, 67939, Control_c, 0, 64, 127
1, 67971, Poly_aftertouch_c, 0, 31, 0
1, 68008, Poly_aftertouch_c, 0, 31, 127
1, 68021, Note_on_c, 0, 36, 63
1, 68027, Note_off_c, 0, 24, 60
1, 68063, Note_off_c, 0, 69, 55
1, 68067, Note_off_c, 0, 81, 45
1, 68077, Poly_aftertouch_c, 0, 31, 0
1, 68085, Note_off_c, 0, 36, 60
1, 68091, Note_off_c, 0, 72, 59
1, 68107, Note_on_c, 0, 24, 78
1, 68172, Note_on_c, 0, 36, 66
1, 68182, Note_off_c, 0, 24, 61
1, 68241, Note_off_c, 0, 36, 59
1, 68251, Note_on_c, 0, 81, 94
1, 68252, Note_on_c, 0, 24, 85
1, 68258, Note_on_c, 0, 69, 84
1, 68262, Note_on_c, 0, 72, 84
1, 68284, Note_off_c, 0, 69, 65
1, 68302, Note_off_c, 0, 81, 61
1, 68305, Note_off_c, 0, 72, 63
1, 68326, Note_on_c, 0, 36, 77
1, 68334, Note_off_c, 0, 24, 62
1, 68382, Note_on_c, 0, 82, 98
1, 68385, Note_on_c, 0, 70, 91
1, 68388, Note_on_c, 0, 73, 86
1, 68399, Note_off_c, 0, 36, 55
1, 68401, Note_on_c, 0, 24, 88
1, 68413, Control_c, 0, 64, 79
1, 68428, Control_c, 0, 64, 15
1, 68443, Control_c, 0, 64, 0
1, 68468, Note_on_c, 0, 36, 77
1, 68474, Note_off_c, 0, 24, 62
1, 68474, Control_c, 0, 64, 42
1, 68488, Control_c, 0, 64, 72
1, 68503, Control_c, 0, 64, 114
1, 68518, Control_c, 0, 64, 127
1, 68527, Note_off_c, 0, 36, 61
1, 68539, Note_on_c, 0, 24, 86
1, 68542, Note_on_c, 0, 31, 21
1, 68589, Note_off_c, 0, 31, 39
1, 68596, Note_on_c, 0, 36, 86
1, 68597, Note_off_c, 0, 24, 63
1, 68619, Note_off_c, 0, 36, 65
1, 68927, Note_on_c, 0, 67, 105
1, 68932, Note_on_c, 0, 55, 86
1, 68932, Note_on_c, 0, 64, 90
1, 69039, Note_off_c, 0, 70, 60
1, 69056, Note_off_c, 0, 73, 60
1, 69057, Note_off_c, 0, 82, 60
1, 69302, Note_on_c, 0, 84, 89
1, 69307, Note_on_c, 0, 72, 78
1, 69308, Note_on_c, 0, 75, 80
1, 69335, Note_off_c, 0, 72, 64
1, 69355, Note_off_c, 0, 84, 61
1, 69356, Note_on_c, 0, 78, 56
1, 69365, Note_off_c, 0, 75, 62
1, 69392, Note_off_c, 0, 78, 64
1, 69427, Note_on_c, 0, 85, 99
1, 69429, Note_on_c, 0, 73, 98
1, 69433, Note_on_c, 0, 76, 88
1, 69478, Note_off_c, 0, 67, 56
1, 69498, Note_off_c, 0, 55, 59
1, 69499, Note_off_c, 0, 64, 62
1, 69951, Note_on_c, 0, 24, 101
1, 69955, Control_c, 0, 64, 66
1, 69969, Control_c, 0, 64, 0
1, 70014, Control_c, 0, 64, 59
1, 70028, Control_c, 0, 64, 127
1, 70054, Note_on_c, 0, 36, 75
1, 70072, Note_off_c, 0, 85, 62
1, 70074, Note_off_c, 0, 24, 59
1, 70090, Note_off_c, 0, 76, 59
1, 70104, Note_off_c, 0, 73, 56
1, 70125, Note_off_c, 0, 36, 61
1, 70156, Note_on_c, 0, 24, 75
1, 70233, Note_on_c, 0, 36, 74
1, 70238, Note_off_c, 0, 24, 60
1, 70274, Note_on_c, 0, 84, 97
1, 70279, Note_on_c, 0, 72, 84
1, 70280, Note_on_c, 0, 75, 83
1, 70305, Note_off_c, 0, 36, 56
1, 70314, Note_on_c, 0, 24, 76
1, 70334, Note_off_c, 0, 84, 59
1, 70338, Note_off_c, 0, 72, 62
1, 70363, Note_off_c, 0, 75, 61
1, 70398, Note_on_c, 0, 36, 82
1, 70414, Note_on_c, 0, 74, 88
1, 70415, Note_on_c, 0, 83, 92
1, 70416, Note_off_c, 0, 24, 58
1, 70420, Note_on_c, 0, 71, 83
1, 70471, Note_off_c, 0, 36, 61
1, 70487, Note_on_c, 0, 24, 81
1, 70507, Note_off_c, 0, 71, 56
1, 70511, Note_off_c, 0, 83, 55
1, 70547, Note_on_c, 0, 36, 81
1, 70548, Note_off_c, 0, 74, 55
1, 70549, Note_off_c, 0, 24, 60
1, 70568, Poly_aftertouch_c, 0, 31, 127
1, 70596, Note_off_c, 0, 36, 60
1, 70613, Note_on_c, 0, 24, 91
1, 70643, Poly_aftertouch_c, 0, 31, 0
1, 70671, Note_on_c, 0, 36, 88
1, 70671, Note_off_c, 0, 24, 63
1, 70681, Poly_aftertouch_c, 0, 31, 0
1, 70698, Note_off_c, 0, 36, 64
1, 70775, Note_on_c, 0, 82, 101
1, 70777, Note_on_c, 0, 73, 90
1, 70780, Note_on_c, 0, 70, 89
1, 71103, Note_on_c, 0, 68, 100
1, 71106, Note_on_c, 0, 56, 84
1, 71107, Note_on_c, 0, 65, 86
1, 71127, Control_c, 0, 64, 95
1, 71141, Control_c, 0, 64, 68
1, 71145, Note_on_c, 0, 58, 40
1, 71146, Note_off_c, 0, 73, 61
1, 71156, Control_c, 0, 64, 25
1, 71171, Control_c, 0, 64, 0
1, 71174, Note_off_c, 0, 58, 56
1, 71177, Note_off_c, 0, 70, 59
1, 71186, Control_c, 0, 64, 61
1, 71201, Control_c, 0, 64, 83
1, 71215, Control_c, 0, 64, 127
1, 71230, Note_off_c, 0, 82, 55
1, 71496, Note_on_c, 0, 72, 80
1, 71496, Note_on_c, 0, 84, 83
1, 71500, Note_on_c, 0, 76, 79
1, 71539, Note_off_c, 0, 72, 62
1, 71555, Note_off_c, 0, 84, 47
1, 71562, Note_off_c, 0, 76, 65
1, 71610, Note_on_c, 0, 73, 88
1, 71610, Note_on_c, 0, 85, 89
1, 71615, Note_on_c, 0, 77, 84
1, 71654, Note_off_c, 0, 68, 59
1, 71663, Note_off_c, 0, 56, 63
1, 71670, Note_off_c, 0, 65, 63
1, 72098, Control_c, 0, 64, 108
1, 72112, Control_c, 0, 64, 67
1, 72119, Note_on_c, 0, 24, 97
1, 72127, Control_c, 0, 64, 0
1, 72155, Control_c, 0, 64, 35
1, 72170, Control_c, 0, 64, 75
1, 72185, Control_c, 0, 64, 127
1, 72215, Note_off_c, 0, 77, 58
1, 72225, Note_on_c, 0, 36, 74
1, 72246, Note_off_c, 0, 24, 58
1, 72261, Note_off_c, 0, 73, 59
1, 72290, Note_off_c, 0, 85, 57
1, 72301, Note_off_c, 0, 36, 56
1, 72316, Note_on_c, 0, 24, 71
1, 72406, Note_on_c, 0, 36, 78
1, 72419, Note_off_c, 0, 24, 60
1, 72456, Note_on_c, 0, 86, 91
1, 72460, Note_on_c, 0, 74, 79
1, 72462, Note_on_c, 0, 78, 89
1, 72486, Note_off_c, 0, 36, 61
1, 72499, Note_on_c, 0, 24, 82
1, 72502, Note_off_c, 0, 74, 63
1, 72505, Note_off_c, 0, 86, 64
1, 72525, Note_off_c, 0, 78, 61
1, 72575, Note_on_c, 0, 36, 86
1, 72583, Note_on_c, 0, 87, 94
1, 72586, Note_on_c, 0, 75, 89
1, 72586, Note_on_c, 0, 79, 84
1, 72593, Note_off_c, 0, 24, 60
1, 72623, Control_c, 0, 64, 96
1, 72632, Note_off_c, 0, 36, 60
1, 72638, Control_c, 0, 64, 71
1, 72653, Control_c, 0, 64, 59
1, 72653, Note_on_c, 0, 24, 79
1, 72668, Control_c, 0, 64, 61
1, 72681, Poly_aftertouch_c, 0, 31, 127
1, 72683, Control_c, 0, 64, 70
1, 72698, Control_c, 0, 64, 91
1, 72713, Note_on_c, 0, 36, 82
1, 72713, Control_c, 0, 64, 127
1, 72719, Note_off_c, 0, 24, 61
1, 72766, Note_off_c, 0, 36, 60
1, 72771, Note_on_c, 0, 31, 15
1, 72777, Note_on_c, 0, 24, 88
1, 72821, Note_off_c, 0, 24, 65
1, 72824, Note_on_c, 0, 36, 85
1, 72826, Note_off_c, 0, 31, 58
1, 72850, Note_off_c, 0, 36, 63
1, 73118, Note_on_c, 0, 68, 99
1, 73121, Note_on_c, 0, 65, 84
1, 73131, Note_on_c, 0, 56, 75
1, 73206, Note_off_c, 0, 79, 60
1, 73231, Note_off_c, 0, 75, 59
1, 73237, Poly_aftertouch_c, 0, 58, 0
1, 73242, Note_off_c, 0, 87, 60
1, 73476, Note_on_c, 0, 88, 96
1, 73479, Note_on_c, 0, 76, 90
1, 73479, Note_on_c, 0, 80, 94
1, 73523, Note_off_c, 0, 76, 66
1, 73534, Note_off_c, 0, 88, 63
1, 73545, Note_off_c, 0, 80, 62
1, 73600, Note_on_c, 0, 89, 109
1, 73601, Note_on_c, 0, 77, 93
1, 73601, Note_on_c, 0, 81, 101
1, 73621, Note_off_c, 0, 68, 60
1, 73622, Note_off_c, 0, 56, 58
1, 73639, Note_off_c, 0, 65, 63
1, 73676, Note_off_c, 0, 77, 59
1, 73713, Note_off_c, 0, 81, 57
1, 73717, Note_off_c, 0, 89, 63
1, 73923, Note_on_c, 0, 90, 101
1, 73926, Note_on_c, 0, 78, 101
1, 73929, Note_on_c, 0, 82, 92
1, 74103, Note_on_c, 0, 24, 100
1, 74122, Control_c, 0, 64, 81
1, 74137, Control_c, 0, 64, 58
1, 74151, Control_c, 0, 64, 0
1, 74166, Control_c, 0, 64, 41
1, 74181, Control_c, 0, 64, 66
1, 74196, Control_c, 0, 64, 93
1, 74199, Note_on_c, 0, 31, 23
1, 74211, Control_c, 0, 64, 127
1, 74212, Note_on_c, 0, 36, 70
1, 74212, Note_off_c, 0, 78, 56
1, 74225, Note_off_c, 0, 82, 53
1, 74236, Note_off_c, 0, 24, 60
1, 74239, Note_off_c, 0, 90, 55
1, 74256, Note_off_c, 0, 31, 43
1, 74292, Note_off_c, 0, 36, 60
1, 74311, Note_on_c, 0, 24, 76
1, 74385, Note_on_c, 0, 36, 82
1, 74388, Note_on_c, 0, 91, 96
1, 74394, Note_on_c, 0, 79, 88
1, 74394, Note_on_c, 0, 83, 84
1, 74399, Note_off_c, 0, 24, 62
1, 74461, Note_off_c, 0, 36, 58
1, 74467, Note_off_c, 0, 91, 59
1, 74470, Note_on_c, 0, 24, 83
1, 74471, Note_off_c, 0, 79, 61
1, 74486, Note_off_c, 0, 83, 58
1, 74540, Note_on_c, 0, 36, 81
1, 74555, Note_off_c, 0, 24, 60
1, 74608, Note_off_c, 0, 36, 61
1, 74631, Note_on_c, 0, 24, 88
1, 74652, Note_on_c, 0, 92, 102
1, 74653, Note_on_c, 0, 80, 98
1, 74656, Note_on_c, 0, 84, 91
1, 74689, Note_on_c, 0, 36, 84
1, 74701, Note_off_c, 0, 24, 63
1, 74716, Poly_aftertouch_c, 0, 31, 127
1, 74716, Note_off_c, 0, 84, 60
1, 74749, Note_off_c, 0, 80, 58
1, 74755, Note_off_c, 0, 36, 60
1, 74756, Note_off_c, 0, 92, 63
1, 74767, Poly_aftertouch_c, 0, 31, 0
1, 74780, Note_on_c, 0, 24, 90
1, 74804, Poly_aftertouch_c, 0, 31, 127
1, 74844, Note_off_c, 0, 24, 55
1, 74856, Note_on_c, 0, 36, 69
1, 74884, Note_off_c, 0, 36, 59
1, 74887, Note_on_c, 0, 24, 75
1, 74899, Poly_aftertouch_c, 0, 31, 0
1, 74943, Note_on_c, 0, 93, 110
1, 74945, Note_off_c, 0, 24, 63
1, 74946, Note_on_c, 0, 81, 106
1, 74947, Note_on_c, 0, 36, 83
1, 74948, Note_on_c, 0, 85, 99
1, 74972, Note_off_c, 0, 36, 66
1, 75031, Note_off_c, 0, 81, 59
1, 75052, Note_off_c, 0, 93, 61
1, 75056, Note_off_c, 0, 85, 63
1, 75223, Note_on_c, 0, 94, 103
1, 75223, Note_on_c, 0, 56, 79
1, 75224, Note_on_c, 0, 68, 93
1, 75226, Note_on_c, 0, 82, 100
1, 75227, Note_on_c, 0, 65, 88
1, 75227, Note_on_c, 0, 86, 101
1, 75246, Note_off_c, 0, 56, 69
1, 75261, Note_off_c, 0, 68, 67
1, 75264, Note_off_c, 0, 65, 68
1, 75270, Note_on_c, 0, 92, 53
1, 75295, Note_off_c, 0, 92, 56
1, 75302, Note_off_c, 0, 86, 62
1, 75349, Note_off_c, 0, 82, 59
1, 75360, Note_off_c, 0, 94, 60
1, 75537, Note_on_c, 0, 95, 105
1, 75541, Note_on_c, 0, 83, 96
1, 75545, Note_on_c, 0, 87, 99
1, 75638, Note_off_c, 0, 83, 58
1, 75674, Note_off_c, 0, 87, 61
1, 75695, Note_off_c, 0, 95, 64
1, 75861, Note_on_c, 0, 96, 100
1, 75864, Note_on_c, 0, 84, 99
1, 75864, Note_on_c, 0, 88, 101
1, 75944, Note_off_c, 0, 84, 61
1, 75967, Note_off_c, 0, 96, 63
1, 76036, Note_off_c, 0, 88, 53
1, 76236, Note_on_c, 0, 97, 103
1, 76240, Note_on_c, 0, 89, 98
1, 76241, Note_on_c, 0, 85, 94
1, 76290, Note_off_c, 0, 85, 65
1, 76298, Note_off_c, 0, 97, 69
1, 76310, Note_off_c, 0, 89, 68
1, 76783, Control_c, 0, 64, 104
1, 76798, Control_c, 0, 64, 69
1, 76813, Control_c, 0, 64, 0
1, 77218, Note_on_c, 0, 73, 108
1, 77221, Note_on_c, 0, 61, 93
1, 78570, Control_c, 0, 64, 37
1, 78585, Control_c, 0, 64, 55
1, 78599, Control_c, 0, 64, 63
1, 78614, Control_c, 0, 64, 66
1, 78629, Control_c, 0, 64, 67
1, 78644, Control_c, 0, 64, 69
1, 78659, Control_c, 0, 64, 73
1, 78673, Control_c, 0, 64, 77
1, 78688, Control_c, 0, 64, 83
1, 78703, Control_c, 0, 64, 87
1, 78718, Control_c, 0, 64, 92
1, 78732, Control_c, 0, 64, 98
1, 78747, Control_c, 0, 64, 105
1, 78762, Control_c, 0, 64, 115
1, 78777, Control_c, 0, 64, 127
1, 79281, Note_off_c, 0, 61, 54
1, 79296, Note_off_c, 0, 73, 49
1, 79387, Note_on_c, 0, 73, 62
1, 79389, Note_on_c, 0, 61, 64
1, 79408, Note_off_c, 0, 61, 64
1, 79412, Note_off_c, 0, 73, 64
1, 79463, Note_on_c, 0, 73, 90
1, 79464, Note_on_c, 0, 61, 80
1, 79491, Note_off_c, 0, 61, 64
1, 79500, Note_off_c, 0, 73, 64
1, 79547, Note_on_c, 0, 61, 90
1, 79551, Note_on_c, 0, 73, 95
1, 79588, Note_off_c, 0, 61, 62
1, 79592, Note_off_c, 0, 73, 66
1, 79628, Note_on_c, 0, 61, 95
1, 79635, Note_on_c, 0, 73, 113
1, 79651, Note_off_c, 0, 61, 70
1, 79679, Note_off_c, 0, 73, 64
1, 81482, Note_on_c, 0, 61, 66
1, 81489, Note_on_c, 0, 73, 62
1, 81508, Note_off_c, 0, 61, 64
1, 81509, Note_off_c, 0, 73, 62
1, 81560, Note_on_c, 0, 61, 82
1, 81567, Note_on_c, 0, 73, 84
1, 81588, Note_off_c, 0, 61, 63
1, 81602, Note_off_c, 0, 73, 61
1, 81634, Note_on_c, 0, 61, 81
1, 81644, Note_on_c, 0, 73, 82
1, 81669, Note_off_c, 0, 61, 63
1, 81682, Note_off_c, 0, 73, 65
1, 81718, Note_on_c, 0, 61, 101
1, 81718, Note_on_c, 0, 73, 105
1, 81734, Note_off_c, 0, 61, 72
1, 81754, Note_off_c, 0, 73, 70
1, 82657, Note_on_c, 0, 73, 103
1, 82663, Note_on_c, 0, 69, 97
1, 82663, Note_on_c, 0, 57, 83
1, 82664, Note_on_c, 0, 61, 100
1, 82689, Note_off_c, 0, 61, 70
1, 82699, Note_off_c, 0, 69, 69
1, 82702, Note_off_c, 0, 57, 63
1, 82702, Note_off_c, 0, 73, 69
1, 83681, Note_on_c, 0, 73, 97
1, 83685, Note_on_c, 0, 65, 92
1, 83685, Note_on_c, 0, 69, 93
1, 83689, Note_on_c, 0, 61, 92
1, 83691, Note_on_c, 0, 53, 80
1, 83695, Note_on_c, 0, 57, 81
1, 83715, Note_off_c, 0, 69, 68
1, 83721, Note_off_c, 0, 65, 65
1, 83724, Note_off_c, 0, 73, 72
1, 84404, Note_off_c, 0, 57, 54
1, 84552, Note_off_c, 0, 53, 33
1, 84631, Note_off_c, 0, 61, 56
1, 84880, Note_on_c, 0, 61, 90
1, 84880, Note_on_c, 0, 73, 90
1, 84881, Note_on_c, 0, 64, 92
1, 84884, Note_on_c, 0, 57, 82
1, 84885, Note_on_c, 0, 52, 75
1, 84885, Note_on_c, 0, 69, 88
1, 84915, Control_c, 0, 64, 97
1, 84930, Control_c, 0, 64, 68
1, 84945, Control_c, 0, 64, 28
1, 84959, Control_c, 0, 64, 0
1, 85004, Control_c, 0, 64, 49
1, 85019, Control_c, 0, 64, 66
1, 85033, Control_c, 0, 64, 82
1, 85048, Control_c, 0, 64, 108
1, 85063, Control_c, 0, 64, 127
1, 85114, Note_off_c, 0, 52, 62
1, 85124, Note_off_c, 0, 69, 60
1, 85125, Note_off_c, 0, 57, 63
1, 85156, Note_off_c, 0, 61, 60
1, 85158, Note_off_c, 0, 64, 58
1, 85161, Note_off_c, 0, 73, 59
1, 86440, Note_on_c, 0, 61, 89
1, 86443, Note_on_c, 0, 49, 84
1, 86487, Control_c, 0, 64, 98
1, 86502, Control_c, 0, 64, 76
1, 86517, Control_c, 0, 64, 60
1, 86531, Control_c, 0, 64, 0
1, 86702, Control_c, 0, 64, 34
1, 86717, Control_c, 0, 64, 53
1, 86731, Control_c, 0, 64, 63
1, 86746, Control_c, 0, 64, 71
1, 86761, Control_c, 0, 64, 77
1, 86776, Control_c, 0, 64, 84
1, 86791, Control_c, 0, 64, 88
1, 86806, Control_c, 0, 64, 93
1, 86820, Control_c, 0, 64, 99
1, 86836, Control_c, 0, 64, 107
1, 86851, Control_c, 0, 64, 121
1, 86866, Control_c, 0, 64, 127
1, 87069, Note_on_c, 0, 53, 80
1, 87081, Note_on_c, 0, 44, 63
1, 87082, Note_on_c, 0, 46, 68
1, 87117, Control_c, 0, 64, 102
1, 87132, Control_c, 0, 64, 89
1, 87147, Control_c, 0, 64, 78
1, 87161, Control_c, 0, 64, 71
1, 87176, Control_c, 0, 64, 65
1, 87191, Control_c, 0, 64, 60
1, 87206, Control_c, 0, 64, 57
1, 87221, Control_c, 0, 64, 56
1, 87266, Control_c, 0, 64, 57
1, 87280, Control_c, 0, 64, 58
1, 87295, Control_c, 0, 64, 60
1, 87310, Control_c, 0, 64, 62
1, 87325, Control_c, 0, 64, 64
1, 87340, Control_c, 0, 64, 65
1, 87361, Control_c, 0, 64, 66
1, 87376, Control_c, 0, 64, 68
1, 87391, Control_c, 0, 64, 72
1, 87406, Control_c, 0, 64, 77
1, 87421, Control_c, 0, 64, 82
1, 87435, Control_c, 0, 64, 84
1, 87450, Control_c, 0, 64, 85
1, 87465, Control_c, 0, 64, 86
1, 87480, Control_c, 0, 64, 88
1, 87495, Control_c, 0, 64, 90
1, 87510, Control_c, 0, 64, 93
1, 87525, Control_c, 0, 64, 95
1, 87540, Control_c, 0, 64, 97
1, 87554, Control_c, 0, 64, 99
1, 87569, Control_c, 0, 64, 100
1, 87584, Control_c, 0, 64, 103
1, 87599, Control_c, 0, 64, 109
1, 87614, Control_c, 0, 64, 120
1, 87629, Control_c, 0, 64, 127
1, 87861, Note_off_c, 0, 46, 30
1, 87911, Note_off_c, 0, 53, 49
1, 88224, Note_on_c, 0, 43, 47
1, 88224, Note_on_c, 0, 52, 61
1, 88228, Note_off_c, 0, 44, 53
1, 88243, Note_on_c, 0, 46, 49
1, 88243, Control_c, 0, 64, 105
1, 88258, Control_c, 0, 64, 87
1, 88273, Control_c, 0, 64, 71
1, 88288, Control_c, 0, 64, 61
1, 88303, Control_c, 0, 64, 43
1, 88318, Control_c, 0, 64, 0
1, 88437, Control_c, 0, 64, 12
1, 88452, Control_c, 0, 64, 23
1, 88467, Control_c, 0, 64, 30
1, 88482, Control_c, 0, 64, 34
1, 88497, Control_c, 0, 64, 37
1, 88512, Control_c, 0, 64, 39
1, 88523, Note_off_c, 0, 52, 65
1, 88526, Control_c, 0, 64, 41
1, 88539, Note_off_c, 0, 46, 62
1, 88541, Control_c, 0, 64, 42
1, 88551, Note_off_c, 0, 43, 58
1, 88556, Control_c, 0, 64, 43
1, 88615, Control_c, 0, 64, 42
1, 88630, Control_c, 0, 64, 41
1, 88645, Control_c, 0, 64, 38
1, 88660, Control_c, 0, 64, 36
1, 88674, Control_c, 0, 64, 34
1, 88689, Control_c, 0, 64, 32
1, 88704, Control_c, 0, 64, 28
1, 88719, Control_c, 0, 64, 29
1, 88733, Control_c, 0, 64, 41
1, 88748, Control_c, 0, 64, 56
1, 88763, Control_c, 0, 64, 65
1, 88778, Control_c, 0, 64, 74
1, 88793, Control_c, 0, 64, 88
1, 88807, Control_c, 0, 64, 111
1, 88822, Control_c, 0, 64, 127
1, 88833, Note_off_c, 0, 49, 55
1, 88883, Note_off_c, 0, 61, 45
1, 88971, Note_on_c, 0, 49, 88
1, 88973, Note_on_c, 0, 61, 94
1, 89007, Control_c, 0, 64, 115
1, 89022, Control_c, 0, 64, 92
1, 89037, Control_c, 0, 64, 74
1, 89052, Control_c, 0, 64, 63
1, 89066, Control_c, 0, 64, 48
1, 89081, Control_c, 0, 64, 18
1, 89096, Control_c, 0, 64, 0
1, 89140, Control_c, 0, 64, 26
1, 89155, Control_c, 0, 64, 39
1, 89170, Control_c, 0, 64, 49
1, 89185, Control_c, 0, 64, 56
1, 89200, Control_c, 0, 64, 61
1, 89215, Control_c, 0, 64, 65
1, 89230, Control_c, 0, 64, 68
1, 89245, Control_c, 0, 64, 71
1, 89260, Control_c, 0, 64, 76
1, 89275, Control_c, 0, 64, 80
1, 89290, Control_c, 0, 64, 84
1, 89304, Control_c, 0, 64, 86
1, 89319, Control_c, 0, 64, 89
1, 89334, Control_c, 0, 64, 91
1, 89349, Control_c, 0, 64, 94
1, 89364, Control_c, 0, 64, 96
1, 89379, Control_c, 0, 64, 98
1, 89394, Control_c, 0, 64, 99
1, 89423, Control_c, 0, 64, 100
1, 89438, Control_c, 0, 64, 100
1, 89453, Control_c, 0, 64, 101
1, 89497, Control_c, 0, 64, 101
1, 89565, Note_on_c, 0, 53, 81
1, 89571, Control_c, 0, 64, 101
1, 89573, Note_on_c, 0, 46, 64
1, 89576, Note_on_c, 0, 44, 64
1, 89586, Control_c, 0, 64, 99
1, 89608, Control_c, 0, 64, 94
1, 89623, Control_c, 0, 64, 87
1, 89638, Control_c, 0, 64, 78
1, 89653, Control_c, 0, 64, 71
1, 89668, Control_c, 0, 64, 64
1, 89682, Control_c, 0, 64, 59
1, 89697, Control_c, 0, 64, 54
1, 89712, Control_c, 0, 64, 52
1, 89756, Control_c, 0, 64, 53
1, 89771, Control_c, 0, 64, 53
1, 89786, Control_c, 0, 64, 54
1, 89801, Control_c, 0, 64, 55
1, 89816, Control_c, 0, 64, 56
1, 89830, Control_c, 0, 64, 57
1, 89845, Control_c, 0, 64, 58
1, 89860, Control_c, 0, 64, 59
1, 89875, Control_c, 0, 64, 60
1, 89889, Control_c, 0, 64, 62
1, 89904, Control_c, 0, 64, 63
1, 89919, Control_c, 0, 64, 65
1, 89934, Control_c, 0, 64, 67
1, 89949, Control_c, 0, 64, 68
1, 89963, Control_c, 0, 64, 71
1, 89978, Control_c, 0, 64, 75
1, 89993, Control_c, 0, 64, 78
1, 90008, Control_c, 0, 64, 80
1, 90024, Control_c, 0, 64, 82
1, 90039, Control_c, 0, 64, 84
1, 90053, Control_c, 0, 64, 86
1, 90068, Control_c, 0, 64, 88
1, 90083, Control_c, 0, 64, 89
1, 90083, Control_c, 0, 67, 8
1, 90098, Control_c, 0, 67, 15
1, 90113, Control_c, 0, 64, 90
1, 90113, Control_c, 0, 67, 26
1, 90128, Control_c, 0, 64, 90
1, 90128, Control_c, 0, 67, 44
1, 90143, Control_c, 0, 64, 91
1, 90143, Control_c, 0, 67, 66
1, 90158, Control_c, 0, 64, 92
1, 90158, Control_c, 0, 67, 92
1, 90172, Control_c, 0, 64, 94
1, 90172, Control_c, 0, 67, 115
1, 90187, Control_c, 0, 64, 96
1, 90187, Control_c, 0, 67, 127
1, 90202, Control_c, 0, 64, 98
1, 90217, Control_c, 0, 64, 100
1, 90232, Control_c, 0, 64, 102
1, 90246, Control_c, 0, 64, 104
1, 90261, Control_c, 0, 64, 107
1, 90276, Control_c, 0, 64, 111
1, 90291, Control_c, 0, 64, 112
1, 90306, Control_c, 0, 64, 113
1, 90336, Control_c, 0, 64, 113
1, 90476, Control_c, 0, 64, 113
1, 90490, Note_off_c, 0, 46, 40
1, 90521, Control_c, 0, 64, 112
1, 90580, Control_c, 0, 64, 113
1, 90595, Control_c, 0, 64, 113
1, 90610, Control_c, 0, 64, 114
1, 90618, Note_off_c, 0, 53, 38
1, 90625, Control_c, 0, 64, 115
1, 90639, Control_c, 0, 64, 115
1, 90654, Control_c, 0, 64, 118
1, 90669, Control_c, 0, 64, 122
1, 90684, Control_c, 0, 64, 127
1, 90891, Control_c, 0, 64, 121
1, 90893, Note_off_c, 0, 44, 59
1, 90906, Control_c, 0, 64, 108
1, 90907, Note_on_c, 0, 52, 64
1, 90917, Note_on_c, 0, 43, 48
1, 90918, Note_on_c, 0, 46, 54
1, 90921, Control_c, 0, 64, 93
1, 90935, Control_c, 0, 64, 77
1, 90950, Control_c, 0, 64, 66
1, 90965, Control_c, 0, 64, 55
1, 90980, Control_c, 0, 64, 37
1, 90995, Control_c, 0, 64, 0
1, 91150, Control_c, 0, 64, 12
1, 91165, Control_c, 0, 64, 19
1, 91180, Control_c, 0, 64, 24
1, 91195, Control_c, 0, 64, 28
1, 91203, Note_off_c, 0, 52, 62
1, 91209, Control_c, 0, 64, 31
1, 91224, Control_c, 0, 64, 33
1, 91239, Control_c, 0, 64, 34
1, 91254, Control_c, 0, 64, 35
1, 91257, Note_off_c, 0, 46, 53
1, 91260, Note_off_c, 0, 43, 53
1, 91269, Control_c, 0, 64, 36
1, 91284, Control_c, 0, 64, 37
1, 91299, Control_c, 0, 64, 38
1, 91314, Control_c, 0, 64, 39
1, 91328, Control_c, 0, 64, 41
1, 91343, Control_c, 0, 64, 42
1, 91358, Control_c, 0, 64, 43
1, 91388, Control_c, 0, 64, 43
1, 91402, Control_c, 0, 64, 44
1, 91417, Control_c, 0, 64, 44
1, 91446, Control_c, 0, 64, 45
1, 91461, Control_c, 0, 64, 45
1, 91491, Control_c, 0, 64, 46
1, 91491, Control_c, 0, 67, 123
1, 91506, Control_c, 0, 64, 47
1, 91506, Control_c, 0, 67, 100
1, 91521, Control_c, 0, 64, 48
1, 91521, Control_c, 0, 67, 78
1, 91535, Control_c, 0, 64, 48
1, 91535, Control_c, 0, 67, 55
1, 91550, Control_c, 0, 64, 49
1, 91550, Control_c, 0, 67, 35
1, 91565, Control_c, 0, 64, 49
1, 91565, Control_c, 0, 67, 18
1, 91580, Control_c, 0, 64, 50
1, 91580, Control_c, 0, 67, 0
1, 91595, Control_c, 0, 64, 50
1, 91609, Control_c, 0, 64, 51
1, 91625, Control_c, 0, 64, 52
1, 91655, Control_c, 0, 64, 52
1, 91714, Control_c, 0, 64, 53
1, 91729, Control_c, 0, 64, 52
1, 91744, Control_c, 0, 64, 50
1, 91758, Control_c, 0, 64, 46
1, 91773, Control_c, 0, 64, 47
1, 91782, Note_on_c, 0, 25, 70
1, 91788, Control_c, 0, 64, 55
1, 91803, Control_c, 0, 64, 61
1, 91818, Control_c, 0, 64, 65
1, 91832, Control_c, 0, 64, 71
1, 91835, Note_off_c, 0, 61, 60
1, 91855, Control_c, 0, 64, 81
1, 91870, Control_c, 0, 64, 93
1, 91884, Control_c, 0, 64, 104
1, 91893, Note_off_c, 0, 49, 54
1, 91894, Note_off_c, 0, 25, 47
1, 91899, Control_c, 0, 64, 109
1, 91914, Control_c, 0, 64, 111
1, 91929, Control_c, 0, 64, 112
1, 91933, Note_on_c, 0, 37, 13
1, 91944, Control_c, 0, 64, 112
1, 91958, Control_c, 0, 64, 113
1, 91973, Control_c, 0, 64, 116
1, 91987, Note_off_c, 0, 37, 47
1, 91988, Control_c, 0, 64, 119
1, 92003, Control_c, 0, 64, 127
1, 92045, Note_on_c, 0, 25, 4
1, 92087, Note_off_c, 0, 25, 40
1, 92130, Note_on_c, 0, 37, 8
1, 92181, Note_off_c, 0, 37, 51
1, 92212, Note_on_c, 0, 25, 33
1, 92225, Note_on_c, 0, 52, 72
1, 92241, Note_on_c, 0, 46, 63
1, 92243, Note_on_c, 0, 43, 49
1, 92256, Note_off_c, 0, 25, 50
1, 92273, Note_off_c, 0, 46, 62
1, 92273, Note_off_c, 0, 43, 50
1, 92302, Note_off_c, 0, 52, 63
1, 92307, Note_on_c, 0, 37, 16
1, 92314, Control_c, 0, 64, 115
1, 92323, Note_on_c, 0, 53, 77
1, 92329, Control_c, 0, 64, 92
1, 92339, Note_on_c, 0, 44, 71
1, 92343, Control_c, 0, 64, 75
1, 92344, Note_on_c, 0, 25, 55
1, 92351, Note_on_c, 0, 49, 58
1, 92352, Note_off_c, 0, 37, 51
1, 92358, Control_c, 0, 64, 62
1, 92373, Control_c, 0, 64, 36
1, 92388, Control_c, 0, 64, 18
1, 92402, Control_c, 0, 64, 41
1, 92409, Note_off_c, 0, 25, 55
1, 92417, Control_c, 0, 64, 59
1, 92434, Control_c, 0, 64, 67
1, 92448, Control_c, 0, 64, 74
1, 92460, Note_on_c, 0, 37, 20
1, 92463, Control_c, 0, 64, 86
1, 92478, Control_c, 0, 64, 91
1, 92493, Control_c, 0, 64, 93
1, 92500, Note_on_c, 0, 25, 48
1, 92506, Note_off_c, 0, 37, 51
1, 92507, Control_c, 0, 64, 94
1, 92522, Control_c, 0, 64, 96
1, 92537, Control_c, 0, 64, 98
1, 92546, Note_off_c, 0, 25, 55
1, 92552, Control_c, 0, 64, 102
1, 92567, Control_c, 0, 64, 106
1, 92580, Note_on_c, 0, 37, 47
1, 92581, Control_c, 0, 64, 114
1, 92604, Control_c, 0, 64, 127
1, 92629, Note_off_c, 0, 37, 53
1, 92652, Note_on_c, 0, 25, 57
1, 92691, Note_off_c, 0, 25, 51
1, 92709, Note_on_c, 0, 37, 56
1, 92748, Note_off_c, 0, 37, 60
1, 92773, Note_on_c, 0, 25, 59
1, 92808, Note_off_c, 0, 25, 58
1, 92838, Note_on_c, 0, 37, 41
1, 92867, Note_off_c, 0, 37, 55
1, 92879, Note_off_c, 0, 44, 59
1, 92883, Note_off_c, 0, 53, 61
1, 92886, Note_on_c, 0, 25, 59
1, 92911, Note_off_c, 0, 49, 60
1, 92913, Note_off_c, 0, 25, 57
1, 92940, Note_on_c, 0, 37, 61
1, 92971, Note_off_c, 0, 37, 61
1, 92989, Note_on_c, 0, 25, 63
1, 93023, Note_off_c, 0, 25, 62
1, 93046, Note_on_c, 0, 37, 63
1, 93094, Note_off_c, 0, 37, 51
1, 93112, Note_on_c, 0, 25, 64
1, 93157, Note_off_c, 0, 25, 52
1, 93185, Note_on_c, 0, 37, 63
1, 93222, Note_off_c, 0, 37, 59
1, 93248, Note_on_c, 0, 25, 75
1, 93257, Note_on_c, 0, 46, 85
1, 93260, Note_on_c, 0, 55, 78
1, 93293, Note_off_c, 0, 25, 63
1, 93299, Note_on_c, 0, 49, 34
1, 93309, Note_off_c, 0, 46, 62
1, 93313, Note_on_c, 0, 37, 68
1, 93320, Note_off_c, 0, 55, 59
1, 93332, Note_off_c, 0, 49, 45
1, 93361, Note_off_c, 0, 37, 57
1, 93364, Note_on_c, 0, 56, 89
1, 93367, Note_on_c, 0, 47, 90
1, 93371, Note_on_c, 0, 49, 69
1, 93383, Note_on_c, 0, 25, 80
1, 93398, Control_c, 0, 64, 90
1, 93412, Control_c, 0, 64, 61
1, 93427, Control_c, 0, 64, 0
1, 93448, Note_off_c, 0, 25, 59
1, 93461, Note_on_c, 0, 37, 70
1, 93487, Control_c, 0, 64, 52
1, 93500, Note_off_c, 0, 37, 60
1, 93502, Control_c, 0, 64, 74
1, 93516, Note_on_c, 0, 25, 70
1, 93516, Control_c, 0, 64, 105
1, 93531, Control_c, 0, 64, 127
1, 93569, Note_off_c, 0, 25, 60
1, 93576, Note_on_c, 0, 37, 74
1, 93619, Note_off_c, 0, 37, 60
1, 93630, Note_on_c, 0, 25, 73
1, 93685, Note_off_c, 0, 25, 57
1, 93693, Note_on_c, 0, 37, 78
1, 93730, Note_off_c, 0, 37, 61
1, 93745, Note_on_c, 0, 25, 72
1, 93797, Note_off_c, 0, 25, 59
1, 93800, Note_on_c, 0, 37, 78
1, 93834, Note_off_c, 0, 37, 63
1, 93851, Note_on_c, 0, 25, 71
1, 93898, Note_on_c, 0, 37, 80
1, 93903, Note_on_c, 0, 31, 3
1, 93915, Note_off_c, 0, 25, 61
1, 93926, Note_off_c, 0, 31, 0
1, 93946, Poly_aftertouch_c, 0, 31, 0
1, 93949, Note_off_c, 0, 37, 61
1, 93952, Note_on_c, 0, 25, 61
1, 93984, Poly_aftertouch_c, 0, 31, 127
1, 94002, Note_on_c, 0, 37, 63
1, 94011, Note_off_c, 0, 25, 60
1, 94056, Note_off_c, 0, 37, 61
1, 94069, Note_on_c, 0, 25, 61
1, 94116, Note_off_c, 0, 25, 59
1, 94124, Poly_aftertouch_c, 0, 31, 0
1, 94163, Note_off_c, 0, 47, 60
1, 94171, Note_on_c, 0, 37, 24
1, 94214, Note_off_c, 0, 37, 51
1, 94218, Note_on_c, 0, 25, 46
1, 94246, Note_off_c, 0, 56, 58
1, 94271, Note_off_c, 0, 25, 45
1, 94378, Note_on_c, 0, 25, 37
1, 94426, Note_off_c, 0, 25, 49
1, 94451, Note_on_c, 0, 37, 54
1, 94490, Note_off_c, 0, 37, 59
1, 94515, Control_c, 0, 64, 115
1, 94524, Note_on_c, 0, 25, 55
1, 94530, Control_c, 0, 64, 89
1, 94535, Note_on_c, 0, 55, 76
1, 94545, Control_c, 0, 64, 71
1, 94548, Note_on_c, 0, 46, 63
1, 94560, Control_c, 0, 64, 42
1, 94565, Note_off_c, 0, 25, 57
1, 94575, Control_c, 0, 64, 0
1, 94610, Note_on_c, 0, 37, 38
1, 94619, Control_c, 0, 64, 37
1, 94634, Control_c, 0, 64, 58
1, 94649, Control_c, 0, 64, 68
1, 94664, Control_c, 0, 64, 74
1, 94678, Control_c, 0, 64, 80
1, 94686, Note_off_c, 0, 37, 40
1, 94689, Note_on_c, 0, 25, 54
1, 94693, Control_c, 0, 64, 82
1, 94708, Control_c, 0, 64, 84
1, 94723, Control_c, 0, 64, 87
1, 94727, Note_off_c, 0, 25, 60
1, 94738, Control_c, 0, 64, 90
1, 94752, Control_c, 0, 64, 96
1, 94759, Note_off_c, 0, 55, 58
1, 94767, Control_c, 0, 64, 103
1, 94779, Note_on_c, 0, 37, 35
1, 94782, Control_c, 0, 64, 112
1, 94796, Control_c, 0, 64, 127
1, 94820, Note_off_c, 0, 37, 49
1, 94839, Note_on_c, 0, 25, 49
1, 94885, Note_off_c, 0, 25, 60
1, 94920, Note_on_c, 0, 37, 48
1, 94943, Note_off_c, 0, 46, 35
1, 94967, Note_off_c, 0, 37, 48
1, 94989, Note_on_c, 0, 25, 49
1, 95004, Note_off_c, 0, 49, 26
1, 95027, Note_off_c, 0, 25, 56
1, 95089, Note_on_c, 0, 37, 26
1, 95101, Note_on_c, 0, 54, 70
1, 95116, Control_c, 0, 64, 93
1, 95117, Note_on_c, 0, 45, 57
1, 95119, Note_off_c, 0, 37, 55
1, 95120, Note_on_c, 0, 25, 56
1, 95122, Note_on_c, 0, 49, 44
1, 95131, Control_c, 0, 64, 69
1, 95146, Control_c, 0, 64, 44
1, 95161, Control_c, 0, 64, 0
1, 95172, Note_off_c, 0, 25, 54
1, 95205, Control_c, 0, 64, 44
1, 95220, Control_c, 0, 64, 61
1, 95227, Note_on_c, 0, 37, 30
1, 95235, Control_c, 0, 64, 69
1, 95249, Control_c, 0, 64, 75
1, 95264, Control_c, 0, 64, 80
1, 95268, Note_off_c, 0, 37, 49
1, 95279, Control_c, 0, 64, 82
1, 95293, Note_on_c, 0, 25, 52
1, 95293, Control_c, 0, 64, 84
1, 95308, Control_c, 0, 64, 87
1, 95323, Note_off_c, 0, 25, 56
1, 95323, Control_c, 0, 64, 92
1, 95338, Control_c, 0, 64, 96
1, 95353, Control_c, 0, 64, 101
1, 95368, Control_c, 0, 64, 107
1, 95382, Note_on_c, 0, 37, 21
1, 95383, Control_c, 0, 64, 116
1, 95391, Note_off_c, 0, 45, 50
1, 95397, Control_c, 0, 64, 127
1, 95411, Note_off_c, 0, 54, 52
1, 95415, Note_on_c, 0, 25, 52
1, 95426, Note_off_c, 0, 37, 52
1, 95457, Control_c, 0, 67, 8
1, 95457, Note_off_c, 0, 25, 58
1, 95472, Control_c, 0, 67, 13
1, 95487, Control_c, 0, 67, 23
1, 95499, Note_on_c, 0, 37, 29
1, 95501, Control_c, 0, 67, 41
1, 95516, Control_c, 0, 67, 61
1, 95531, Control_c, 0, 67, 80
1, 95543, Note_off_c, 0, 37, 47
1, 95546, Control_c, 0, 67, 100
1, 95552, Note_on_c, 0, 25, 58
1, 95561, Control_c, 0, 67, 116
1, 95575, Control_c, 0, 67, 127
1, 95598, Note_off_c, 0, 25, 59
1, 95652, Note_on_c, 0, 37, 41
1, 95681, Note_off_c, 0, 37, 55
1, 95690, Note_on_c, 0, 25, 61
1, 95692, Note_on_c, 0, 53, 76
1, 95702, Control_c, 0, 64, 99
1, 95714, Note_on_c, 0, 44, 54
1, 95716, Control_c, 0, 64, 76
1, 95731, Control_c, 0, 64, 60
1, 95740, Note_off_c, 0, 25, 56
1, 95746, Control_c, 0, 64, 0
1, 95773, Note_on_c, 0, 37, 44
1, 95791, Control_c, 0, 64, 25
1, 95806, Note_off_c, 0, 37, 56
1, 95806, Control_c, 0, 64, 57
1, 95821, Control_c, 0, 64, 65
1, 95836, Control_c, 0, 64, 70
1, 95840, Note_on_c, 0, 25, 52
1, 95850, Control_c, 0, 64, 74
1, 95865, Control_c, 0, 64, 77
1, 95874, Note_off_c, 0, 25, 58
1, 95880, Control_c, 0, 64, 79
1, 95895, Control_c, 0, 64, 82
1, 95895, Note_on_c, 0, 37, 54
1, 95910, Control_c, 0, 64, 86
1, 95924, Control_c, 0, 64, 90
1, 95931, Note_off_c, 0, 37, 58
1, 95939, Control_c, 0, 64, 94
1, 95954, Control_c, 0, 64, 98
1, 95960, Note_on_c, 0, 25, 60
1, 95969, Control_c, 0, 64, 102
1, 95981, Note_off_c, 0, 53, 59
1, 95984, Control_c, 0, 64, 107
1, 95997, Note_off_c, 0, 25, 60
1, 95998, Control_c, 0, 64, 116
1, 96013, Control_c, 0, 64, 127
1, 96026, Note_on_c, 0, 37, 45
1, 96059, Note_off_c, 0, 37, 53
1, 96065, Note_off_c, 0, 44, 39
1, 96209, Note_on_c, 0, 25, 78
1, 96221, Control_c, 0, 64, 97
1, 96236, Control_c, 0, 64, 78
1, 96250, Control_c, 0, 64, 64
1, 96262, Note_on_c, 0, 37, 82
1, 96265, Note_off_c, 0, 25, 57
1, 96265, Control_c, 0, 64, 45
1, 96280, Control_c, 0, 64, 0
1, 96292, Note_off_c, 0, 37, 64
1, 96300, Note_on_c, 0, 52, 69
1, 96306, Note_on_c, 0, 43, 54
1, 96310, Note_on_c, 0, 46, 56
1, 96355, Note_off_c, 0, 49, 51
1, 96392, Control_c, 0, 64, 8
1, 96406, Control_c, 0, 64, 11
1, 96422, Control_c, 0, 64, 14
1, 96437, Control_c, 0, 64, 18
1, 96452, Control_c, 0, 64, 21
1, 96467, Control_c, 0, 64, 22
1, 96496, Control_c, 0, 64, 23
1, 96511, Control_c, 0, 64, 24
1, 96526, Control_c, 0, 64, 26
1, 96541, Control_c, 0, 64, 28
1, 96555, Control_c, 0, 64, 32
1, 96570, Control_c, 0, 64, 35
1, 96585, Control_c, 0, 64, 37
1, 96600, Control_c, 0, 64, 38
1, 96615, Control_c, 0, 64, 39
1, 96629, Control_c, 0, 64, 39
1, 96644, Control_c, 0, 64, 41
1, 96659, Control_c, 0, 64, 42
1, 96673, Control_c, 0, 64, 42
1, 96688, Control_c, 0, 64, 43
1, 96703, Control_c, 0, 64, 44
1, 96718, Control_c, 0, 64, 44
1, 96733, Control_c, 0, 64, 45
1, 96763, Control_c, 0, 64, 45
1, 96807, Control_c, 0, 64, 46
1, 96865, Note_on_c, 0, 51, 62
1, 96895, Control_c, 0, 64, 45
1, 96910, Control_c, 0, 64, 45
1, 96925, Control_c, 0, 64, 44
1, 96939, Control_c, 0, 64, 44
1, 96950, Note_off_c, 0, 52, 61
1, 96954, Control_c, 0, 64, 43
1, 96969, Control_c, 0, 64, 43
1, 97058, Control_c, 0, 64, 44
1, 97073, Control_c, 0, 64, 46
1, 97095, Control_c, 0, 64, 52
1, 97110, Control_c, 0, 64, 58
1, 97125, Control_c, 0, 64, 63
1, 97140, Control_c, 0, 64, 68
1, 97154, Control_c, 0, 64, 74
1, 97169, Control_c, 0, 64, 81
1, 97184, Control_c, 0, 64, 89
1, 97198, Control_c, 0, 64, 95
1, 97213, Control_c, 0, 64, 99
1, 97230, Control_c, 0, 64, 103
1, 97244, Control_c, 0, 64, 108
1, 97259, Control_c, 0, 64, 113
1, 97274, Control_c, 0, 64, 127
1, 97329, Note_off_c, 0, 43, 29
1, 97389, Note_off_c, 0, 46, 50
1, 97466, Control_c, 0, 64, 106
1, 97481, Control_c, 0, 64, 87
1, 97482, Note_on_c, 0, 50, 59
1, 97496, Note_on_c, 0, 42, 40
1, 97496, Control_c, 0, 64, 71
1, 97506, Note_on_c, 0, 45, 39
1, 97511, Control_c, 0, 64, 55
1, 97514, Note_off_c, 0, 51, 34
1, 97526, Control_c, 0, 64, 0
1, 97629, Control_c, 0, 64, 24
1, 97644, Control_c, 0, 64, 45
1, 97659, Control_c, 0, 64, 56
1, 97674, Control_c, 0, 64, 61
1, 97688, Control_c, 0, 64, 64
1, 97703, Control_c, 0, 64, 66
1, 97718, Control_c, 0, 64, 67
1, 97733, Control_c, 0, 64, 69
1, 97748, Control_c, 0, 64, 72
1, 97762, Control_c, 0, 64, 75
1, 97777, Control_c, 0, 64, 79
1, 97792, Control_c, 0, 64, 81
1, 97806, Control_c, 0, 64, 84
1, 97821, Control_c, 0, 64, 86
1, 97844, Control_c, 0, 64, 87
1, 97859, Control_c, 0, 64, 89
1, 97871, Note_off_c, 0, 50, 34
1, 97874, Control_c, 0, 64, 90
1, 97888, Control_c, 0, 64, 92
1, 97903, Control_c, 0, 64, 93
1, 97918, Control_c, 0, 64, 94
1, 97933, Control_c, 0, 64, 95
1, 97948, Control_c, 0, 64, 95
1, 97963, Control_c, 0, 64, 96
1, 97977, Control_c, 0, 64, 96
1, 97992, Control_c, 0, 64, 97
1, 98007, Control_c, 0, 64, 97
1, 98082, Control_c, 0, 64, 98
1, 98230, Control_c, 0, 64, 96
1, 98242, Note_on_c, 0, 49, 52
1, 98244, Control_c, 0, 64, 90
1, 98259, Control_c, 0, 64, 79
1, 98274, Control_c, 0, 64, 68
1, 98289, Control_c, 0, 64, 53
1, 98304, Control_c, 0, 64, 31
1, 98319, Control_c, 0, 64, 0
1, 98349, Control_c, 0, 64, 8
1, 98363, Control_c, 0, 64, 21
1, 98378, Control_c, 0, 64, 31
1, 98393, Control_c, 0, 64, 36
1, 98408, Control_c, 0, 64, 39
1, 98423, Control_c, 0, 64, 42
1, 98437, Control_c, 0, 64, 43
1, 98452, Control_c, 0, 64, 44
1, 98467, Control_c, 0, 64, 45
1, 98482, Control_c, 0, 64, 45
1, 98497, Control_c, 0, 64, 46
1, 98526, Control_c, 0, 64, 46
1, 98541, Control_c, 0, 64, 47
1, 98556, Control_c, 0, 64, 47
1, 98571, Control_c, 0, 64, 48
1, 98608, Control_c, 0, 64, 48
1, 98623, Control_c, 0, 64, 49
1, 98667, Control_c, 0, 64, 49
1, 98831, Control_c, 0, 64, 50
1, 98860, Control_c, 0, 64, 50
1, 98890, Control_c, 0, 64, 51
1, 98979, Control_c, 0, 64, 51
1, 99038, Control_c, 0, 64, 52
1, 99181, Note_on_c, 0, 41, 37
1, 99188, Note_on_c, 0, 44, 42
1, 99201, Note_off_c, 0, 45, 47
1, 99210, Note_off_c, 0, 42, 42
1, 99460, Control_c, 0, 64, 52
1, 99787, Control_c, 0, 64, 53
1, 99817, Control_c, 0, 64, 53
1, 99831, Control_c, 0, 64, 54
1, 99847, Control_c, 0, 64, 54
1, 99862, Control_c, 0, 64, 55
1, 99877, Control_c, 0, 64, 56
1, 99891, Control_c, 0, 64, 57
1, 99906, Control_c, 0, 64, 58
1, 99921, Control_c, 0, 64, 59
1, 99936, Control_c, 0, 64, 60
1, 99951, Control_c, 0, 64, 61
1, 99965, Control_c, 0, 64, 62
1, 99980, Control_c, 0, 64, 63
1, 99995, Control_c, 0, 64, 63
1, 100009, Control_c, 0, 64, 64
1, 100024, Control_c, 0, 64, 65
1, 100039, Control_c, 0, 64, 66
1, 100054, Control_c, 0, 64, 67
1, 100069, Control_c, 0, 64, 69
1, 100091, Control_c, 0, 64, 70
1, 100106, Control_c, 0, 64, 72
1, 100121, Control_c, 0, 64, 73
1, 100136, Control_c, 0, 64, 74
1, 100151, Control_c, 0, 64, 75
1, 100165, Control_c, 0, 64, 75
1, 100180, Control_c, 0, 64, 76
1, 100195, Control_c, 0, 64, 77
1, 100210, Control_c, 0, 64, 78
1, 100224, Control_c, 0, 64, 79
1, 100239, Control_c, 0, 64, 80
1, 100254, Control_c, 0, 64, 81
1, 100269, Control_c, 0, 64, 83
1, 100284, Control_c, 0, 64, 84
1, 100298, Control_c, 0, 64, 85
1, 100313, Control_c, 0, 64, 86
1, 100328, Control_c, 0, 64, 87
1, 100343, Control_c, 0, 64, 88
1, 100358, Control_c, 0, 64, 89
1, 100373, Control_c, 0, 64, 90
1, 100387, Control_c, 0, 64, 91
1, 100402, Control_c, 0, 64, 93
1, 100418, Control_c, 0, 64, 94
1, 100433, Control_c, 0, 64, 95
1, 100448, Control_c, 0, 64, 95
1, 100462, Control_c, 0, 64, 96
1, 100477, Control_c, 0, 64, 97
1, 100492, Control_c, 0, 64, 97
1, 100507, Control_c, 0, 64, 98
1, 100536, Control_c, 0, 64, 98
1, 100566, Control_c, 0, 64, 99
1, 100581, Control_c, 0, 64, 99
1, 100596, Control_c, 0, 64, 100
1, 100611, Control_c, 0, 64, 100
1, 100655, Control_c, 0, 64, 101
1, 100685, Control_c, 0, 64, 101
1, 101507, Control_c, 0, 64, 101
1, 101536, Control_c, 0, 64, 100
1, 101551, Control_c, 0, 64, 100
1, 101566, Control_c, 0, 64, 99
1, 101588, Control_c, 0, 64, 97
1, 101603, Control_c, 0, 64, 94
1, 101613, Note_on_c, 0, 43, 28
1, 101616, Note_on_c, 0, 46, 41
1, 101618, Note_on_c, 0, 40, 38
1, 101618, Control_c, 0, 64, 87
1, 101633, Control_c, 0, 64, 80
1, 101648, Control_c, 0, 64, 73
1, 101662, Control_c, 0, 64, 67
1, 101666, Note_off_c, 0, 44, 27
1, 101677, Control_c, 0, 64, 63
1, 101687, Note_off_c, 0, 41, 41
1, 101692, Control_c, 0, 64, 60
1, 101707, Control_c, 0, 64, 59
1, 101781, Control_c, 0, 64, 59
1, 101929, Control_c, 0, 64, 59
1, 102048, Control_c, 0, 64, 60
1, 104910, Control_c, 0, 64, 60
1, 104925, Control_c, 0, 64, 61
1, 104940, Control_c, 0, 64, 61
1, 104954, Control_c, 0, 64, 62
1, 104984, Control_c, 0, 64, 62
1, 104999, Control_c, 0, 64, 63
1, 105029, Control_c, 0, 64, 63
1, 105044, Control_c, 0, 64, 64
1, 105059, Control_c, 0, 64, 64
1, 105087, Control_c, 0, 64, 65
1, 105102, Control_c, 0, 64, 65
1, 105132, Control_c, 0, 64, 66
1, 105147, Control_c, 0, 64, 67
1, 105161, Control_c, 0, 64, 67
1, 105176, Control_c, 0, 64, 68
1, 105191, Control_c, 0, 64, 69
1, 105207, Control_c, 0, 64, 69
1, 105221, Control_c, 0, 64, 70
1, 105236, Control_c, 0, 64, 70
1, 105251, Control_c, 0, 64, 71
1, 105266, Control_c, 0, 64, 71
1, 105281, Control_c, 0, 64, 72
1, 105295, Control_c, 0, 64, 73
1, 105310, Control_c, 0, 64, 73
1, 105333, Control_c, 0, 64, 74
1, 105348, Control_c, 0, 64, 75
1, 105363, Control_c, 0, 64, 75
1, 105392, Control_c, 0, 64, 76
1, 105407, Control_c, 0, 64, 76
1, 105422, Control_c, 0, 64, 77
1, 105436, Control_c, 0, 64, 78
1, 105451, Control_c, 0, 64, 79
1, 105466, Control_c, 0, 64, 79
1, 105481, Control_c, 0, 64, 80
1, 105510, Control_c, 0, 64, 81
1, 105540, Control_c, 0, 64, 81
1, 105555, Control_c, 0, 64, 82
1, 105570, Control_c, 0, 64, 83
1, 105584, Control_c, 0, 64, 84
1, 105599, Control_c, 0, 64, 86
1, 105614, Control_c, 0, 64, 87
1, 105628, Control_c, 0, 64, 87
1, 105643, Control_c, 0, 64, 88
1, 105658, Control_c, 0, 64, 89
1, 105673, Control_c, 0, 64, 90
1, 105688, Control_c, 0, 64, 91
1, 105702, Control_c, 0, 64, 92
1, 105717, Control_c, 0, 64, 93
1, 105732, Control_c, 0, 64, 94
1, 105747, Control_c, 0, 64, 95
1, 105762, Control_c, 0, 64, 96
1, 105777, Control_c, 0, 64, 97
1, 105792, Control_c, 0, 64, 98
1, 105807, Control_c, 0, 64, 98
1, 105822, Control_c, 0, 64, 99
1, 105926, Control_c, 0, 64, 100
1, 105941, Control_c, 0, 64, 100
1, 105956, Control_c, 0, 64, 101
1, 105971, Control_c, 0, 64, 103
1, 105985, Control_c, 0, 64, 104
1, 106000, Control_c, 0, 64, 106
1, 106015, Control_c, 0, 64, 108
1, 106030, Control_c, 0, 64, 109
1, 106045, Control_c, 0, 64, 112
1, 106060, Control_c, 0, 64, 114
1, 106082, Control_c, 0, 64, 116
1, 106097, Control_c, 0, 64, 118
1, 106112, Control_c, 0, 64, 121
1, 106126, Control_c, 0, 64, 124
1, 106141, Control_c, 0, 64, 127
1, 106325, Note_off_c, 0, 43, 35
1, 106328, Note_off_c, 0, 46, 25
1, 106366, Note_off_c, 0, 49, 19
1, 106580, Note_off_c, 0, 40, 17
1, 107304, Control_c, 0, 64, 124
1, 107319, Control_c, 0, 64, 122
1, 107333, Control_c, 0, 64, 121
1, 107348, Control_c, 0, 64, 120
1, 107363, Control_c, 0, 64, 119
1, 107378, Control_c, 0, 64, 118
1, 107407, Control_c, 0, 64, 116
1, 107422, Control_c, 0, 64, 116
1, 107437, Control_c, 0, 64, 115
1, 107452, Control_c, 0, 64, 115
1, 107467, Control_c, 0, 64, 113
1, 107481, Control_c, 0, 64, 113
1, 107496, Control_c, 0, 64, 112
1, 107511, Control_c, 0, 64, 112
1, 107526, Control_c, 0, 64, 111
1, 107541, Control_c, 0, 64, 111
1, 107555, Control_c, 0, 64, 110
1, 107577, Control_c, 0, 64, 110
1, 107592, Control_c, 0, 64, 109
1, 107608, Control_c, 0, 64, 109
1, 107623, Control_c, 0, 64, 108
1, 107637, Control_c, 0, 64, 108
1, 107652, Control_c, 0, 64, 107
1, 107682, Control_c, 0, 64, 106
1, 107697, Control_c, 0, 64, 105
1, 107712, Control_c, 0, 64, 105
1, 107726, Control_c, 0, 64, 104
1, 107741, Control_c, 0, 64, 103
1, 107756, Control_c, 0, 64, 102
1, 107771, Control_c, 0, 64, 101
1, 107786, Control_c, 0, 64, 101
1, 107801, Control_c, 0, 64, 100
1, 107816, Control_c, 0, 64, 99
1, 107830, Control_c, 0, 64, 99
1, 107845, Control_c, 0, 64, 98
1, 107860, Control_c, 0, 64, 97
1, 107875, Control_c, 0, 64, 96
1, 107890, Control_c, 0, 64, 95
1, 107904, Control_c, 0, 64, 94
1, 107919, Control_c, 0, 64, 94
1, 107934, Control_c, 0, 64, 93
1, 107949, Control_c, 0, 64, 92
1, 107964, Control_c, 0, 64, 91
1, 107978, Control_c, 0, 64, 91
1, 107993, Control_c, 0, 64, 90
1, 108008, Control_c, 0, 64, 89
1, 108022, Control_c, 0, 64, 88
1, 108037, Control_c, 0, 64, 87
1, 108052, Control_c, 0, 64, 87
1, 108067, Control_c, 0, 64, 86
1, 108082, Control_c, 0, 64, 85
1, 108111, Control_c, 0, 64, 85
1, 108141, Control_c, 0, 64, 84
1, 108171, Control_c, 0, 64, 84
1, 108200, Control_c, 0, 64, 83
1, 108215, Control_c, 0, 64, 83
1, 108260, Control_c, 0, 64, 82
1, 108326, Control_c, 0, 64, 82
1, 108371, Control_c, 0, 64, 81
1, 108416, Control_c, 0, 64, 81
1, 108446, Control_c, 0, 64, 80
1, 108490, Control_c, 0, 64, 80
1, 108505, Control_c, 0, 64, 79
1, 108520, Control_c, 0, 64, 79
1, 108549, Control_c, 0, 64, 78
1, 108594, Control_c, 0, 64, 78
1, 108639, Control_c, 0, 64, 77
1, 108683, Control_c, 0, 64, 77
1, 108727, Control_c, 0, 64, 76
1, 108772, Control_c, 0, 64, 76
1, 108816, Control_c, 0, 64, 75
1, 108831, Control_c, 0, 64, 75
1, 108845, Control_c, 0, 64, 74
1, 108860, Control_c, 0, 64, 74
1, 108875, Control_c, 0, 64, 73
1, 108890, Control_c, 0, 64, 72
1, 108905, Control_c, 0, 64, 71
1, 108919, Control_c, 0, 64, 70
1, 108934, Control_c, 0, 64, 69
1, 108949, Control_c, 0, 64, 68
1, 108963, Control_c, 0, 64, 67
1, 108978, Control_c, 0, 64, 67
1, 109038, Control_c, 0, 64, 66
1, 109090, Control_c, 0, 64, 66
1, 109134, Control_c, 0, 64, 65
1, 109164, Control_c, 0, 64, 65
1, 109239, Control_c, 0, 64, 64
1, 109372, Control_c, 0, 64, 64
1, 110797, Control_c, 0, 64, 64
1, 110945, Control_c, 0, 64, 64
1, 112127, Note_on_c, 0, 36, 47
1, 112279, Note_on_c, 0, 44, 52
1, 112323, Note_off_c, 0, 36, 39
1, 112397, Control_c, 0, 64, 63
1, 112472, Control_c, 0, 64, 63
1, 112516, Control_c, 0, 64, 62
1, 112561, Control_c, 0, 64, 62
1, 113012, Note_on_c, 0, 60, 42
1, 113013, Control_c, 0, 64, 61
1, 113019, Note_on_c, 0, 48, 37
1, 113023, Note_on_c, 0, 56, 35
1, 113027, Note_on_c, 0, 53, 31
1, 113149, Note_off_c, 0, 48, 53
1, 113149, Note_off_c, 0, 60, 53
1, 113173, Note_off_c, 0, 56, 44
1, 113178, Note_off_c, 0, 53, 54
1, 113351, Note_off_c, 0, 44, 59
1, 113358, Note_on_c, 0, 43, 48
1, 113492, Note_off_c, 0, 43, 56
1, 113518, Note_on_c, 0, 41, 58
1, 113614, Control_c, 0, 64, 61
1, 113629, Control_c, 0, 64, 60
1, 113643, Control_c, 0, 64, 60
1, 113673, Control_c, 0, 64, 59
1, 113703, Control_c, 0, 64, 59
1, 113709, Note_off_c, 0, 41, 62
1, 113713, Note_on_c, 0, 40, 58
1, 113717, Control_c, 0, 64, 57
1, 113732, Control_c, 0, 64, 55
1, 113747, Control_c, 0, 64, 52
1, 113762, Control_c, 0, 64, 50
1, 113776, Control_c, 0, 64, 49
1, 113791, Control_c, 0, 64, 48
1, 113806, Control_c, 0, 64, 46
1, 113821, Control_c, 0, 64, 43
1, 113836, Control_c, 0, 64, 40
1, 113850, Control_c, 0, 64, 38
1, 113895, Control_c, 0, 64, 39
1, 113910, Control_c, 0, 64, 40
1, 113924, Control_c, 0, 64, 41
1, 113939, Control_c, 0, 64, 42
1, 113954, Control_c, 0, 64, 43
1, 113968, Control_c, 0, 64, 45
1, 113983, Control_c, 0, 64, 46
1, 114000, Control_c, 0, 64, 47
1, 114014, Control_c, 0, 64, 47
1, 114029, Control_c, 0, 64, 48
1, 114044, Control_c, 0, 64, 49
1, 114103, Control_c, 0, 64, 49
1, 114446, Note_on_c, 0, 56, 34
1, 114447, Note_on_c, 0, 52, 39
1, 114451, Note_on_c, 0, 60, 44
1, 114457, Note_on_c, 0, 48, 37
1, 114617, Note_off_c, 0, 60, 54
1, 114619, Note_off_c, 0, 48, 53
1, 114626, Note_off_c, 0, 52, 63
1, 114631, Note_off_c, 0, 56, 45
1, 114871, Note_on_c, 0, 39, 38
1, 114871, Note_off_c, 0, 40, 53
1, 115035, Note_on_c, 0, 37, 45
1, 115035, Note_off_c, 0, 39, 44
1, 115229, Note_off_c, 0, 37, 57
1, 115256, Note_on_c, 0, 36, 37
1, 115452, Control_c, 0, 64, 50
1, 115645, Control_c, 0, 64, 50
1, 115660, Control_c, 0, 64, 51
1, 115675, Control_c, 0, 64, 52
1, 115690, Control_c, 0, 64, 54
1, 115705, Control_c, 0, 64, 55
1, 115719, Control_c, 0, 64, 56
1, 115734, Control_c, 0, 64, 58
1, 115749, Control_c, 0, 64, 59
1, 115764, Control_c, 0, 64, 61
1, 115779, Control_c, 0, 64, 62
1, 115793, Control_c, 0, 64, 63
1, 115816, Control_c, 0, 64, 63
1, 115831, Control_c, 0, 64, 64
1, 115845, Control_c, 0, 64, 65
1, 115890, Control_c, 0, 64, 66
1, 115919, Control_c, 0, 64, 65
1, 115963, Control_c, 0, 64, 65
1, 115993, Control_c, 0, 64, 64
1, 116022, Note_on_c, 0, 60, 49
1, 116024, Note_on_c, 0, 56, 39
1, 116028, Note_on_c, 0, 48, 37
1, 116035, Note_on_c, 0, 53, 31
1, 116037, Control_c, 0, 64, 64
1, 116067, Control_c, 0, 64, 63
1, 116082, Control_c, 0, 64, 62
1, 116097, Control_c, 0, 64, 62
1, 116112, Control_c, 0, 64, 61
1, 116127, Control_c, 0, 64, 61
1, 116142, Control_c, 0, 64, 60
1, 116156, Control_c, 0, 64, 60
1, 116171, Control_c, 0, 64, 59
1, 116186, Control_c, 0, 64, 58
1, 116201, Control_c, 0, 64, 58
1, 116231, Control_c, 0, 64, 57
1, 116300, Note_off_c, 0, 48, 54
1, 116317, Note_off_c, 0, 60, 54
1, 116319, Control_c, 0, 64, 58
1, 116356, Note_off_c, 0, 56, 42
1, 116362, Note_off_c, 0, 53, 41
1, 116626, Note_on_c, 0, 60, 55
1, 116638, Note_on_c, 0, 53, 43
1, 116645, Note_on_c, 0, 56, 40
1, 116679, Note_off_c, 0, 60, 53
1, 116685, Poly_aftertouch_c, 0, 48, 127
1, 116687, Note_off_c, 0, 56, 56
1, 116689, Note_off_c, 0, 53, 62
1, 116729, Poly_aftertouch_c, 0, 48, 0
1, 116772, Control_c, 0, 64, 57
1, 116806, Note_on_c, 0, 60, 59
1, 116811, Note_on_c, 0, 48, 32
1, 116817, Note_on_c, 0, 56, 45
1, 116821, Note_on_c, 0, 53, 32
1, 117174, Note_on_c, 0, 37, 57
1, 117186, Note_off_c, 0, 36, 52
1, 117343, Control_c, 0, 64, 58
1, 117521, Control_c, 0, 64, 58
1, 117524, Note_off_c, 0, 37, 63
1, 117529, Note_on_c, 0, 40, 66
1, 117636, Note_off_c, 0, 48, 42
1, 117645, Note_off_c, 0, 60, 59
1, 117660, Note_off_c, 0, 53, 44
1, 117682, Note_off_c, 0, 56, 56
1, 117772, Control_c, 0, 64, 59
1, 118025, Control_c, 0, 64, 59
1, 118040, Note_on_c, 0, 41, 72
1, 118049, Note_off_c, 0, 40, 55
1, 118218, Note_on_c, 0, 44, 70
1, 118240, Note_off_c, 0, 41, 60
1, 118344, Control_c, 0, 64, 59
1, 118854, Control_c, 0, 64, 58
1, 118958, Control_c, 0, 64, 58
1, 118980, Note_on_c, 0, 60, 50
1, 118983, Note_on_c, 0, 48, 45
1, 118988, Note_on_c, 0, 56, 42
1, 118989, Note_on_c, 0, 53, 37
1, 119136, Note_off_c, 0, 48, 57
1, 119149, Note_off_c, 0, 56, 57
1, 119149, Note_off_c, 0, 60, 50
1, 119154, Note_off_c, 0, 53, 56
1, 119324, Note_on_c, 0, 43, 55
1, 119335, Note_off_c, 0, 44, 61
1, 119486, Note_on_c, 0, 41, 70
1, 119500, Note_off_c, 0, 43, 58
1, 119681, Note_on_c, 0, 40, 69
1, 119722, Note_off_c, 0, 41, 63
1, 119841, Control_c, 0, 64, 58
1, 120456, Note_on_c, 0, 60, 54
1, 120469, Note_on_c, 0, 52, 44
1, 120470, Note_on_c, 0, 48, 42
1, 120470, Note_on_c, 0, 56, 43
1, 120655, Note_off_c, 0, 60, 54
1, 120657, Note_off_c, 0, 48, 55
1, 120665, Note_off_c, 0, 56, 58
1, 120666, Note_off_c, 0, 52, 63
1, 120932, Note_on_c, 0, 39, 50
1, 120957, Note_off_c, 0, 40, 46
1, 121099, Note_on_c, 0, 37, 52
1, 121106, Note_off_c, 0, 39, 48
1, 121296, Note_on_c, 0, 36, 46
1, 121328, Note_off_c, 0, 37, 60
1, 121805, Control_c, 0, 64, 59
1, 121953, Control_c, 0, 64, 58
1, 122028, Control_c, 0, 64, 58
1, 122122, Note_on_c, 0, 48, 36
1, 122127, Note_on_c, 0, 60, 39
1, 122135, Note_on_c, 0, 53, 33
1, 122148, Note_on_c, 0, 56, 33
1, 122220, Control_c, 0, 64, 57
1, 122354, Control_c, 0, 64, 58
1, 122398, Control_c, 0, 64, 58
1, 122413, Control_c, 0, 64, 59
1, 122430, Note_off_c, 0, 48, 55
1, 122443, Control_c, 0, 64, 59
1, 122446, Note_off_c, 0, 60, 50
1, 122457, Note_off_c, 0, 53, 56
1, 122458, Control_c, 0, 64, 60
1, 122470, Note_off_c, 0, 56, 51
1, 122487, Control_c, 0, 64, 60
1, 122711, Note_on_c, 0, 60, 55
1, 122728, Note_on_c, 0, 48, 40
1, 122731, Control_c, 0, 64, 60
1, 122732, Note_on_c, 0, 56, 39
1, 122737, Note_on_c, 0, 53, 35
1, 122781, Note_off_c, 0, 60, 58
1, 122789, Note_off_c, 0, 48, 43
1, 122796, Note_off_c, 0, 56, 49
1, 122805, Note_off_c, 0, 53, 42
1, 122807, Control_c, 0, 64, 59
1, 122866, Control_c, 0, 64, 59
1, 122894, Note_on_c, 0, 60, 59
1, 122902, Note_on_c, 0, 56, 34
1, 122907, Note_on_c, 0, 48, 31
1, 122910, Note_on_c, 0, 53, 29
1, 123028, Control_c, 0, 64, 58
1, 123269, Note_on_c, 0, 40, 58
1, 123340, Note_off_c, 0, 36, 43
1, 123540, Control_c, 0, 64, 59
1, 123639, Note_off_c, 0, 40, 58
1, 123647, Note_on_c, 0, 41, 63
1, 123731, Note_off_c, 0, 48, 43
1, 123740, Note_off_c, 0, 53, 42
1, 123789, Note_off_c, 0, 56, 41
1, 123806, Note_off_c, 0, 60, 57
1, 123822, Control_c, 0, 64, 59
1, 124008, Note_on_c, 0, 44, 68
1, 124030, Note_off_c, 0, 41, 58
1, 124081, Control_c, 0, 64, 59
1, 124155, Control_c, 0, 64, 59
1, 124170, Control_c, 0, 64, 60
1, 124184, Control_c, 0, 64, 62
1, 124199, Control_c, 0, 64, 64
1, 124214, Control_c, 0, 64, 65
1, 124229, Control_c, 0, 64, 67
1, 124244, Control_c, 0, 64, 69
1, 124259, Control_c, 0, 64, 73
1, 124273, Control_c, 0, 64, 77
1, 124288, Control_c, 0, 64, 81
1, 124303, Control_c, 0, 64, 84
1, 124318, Control_c, 0, 64, 87
1, 124333, Control_c, 0, 64, 90
1, 124348, Control_c, 0, 64, 92
1, 124363, Control_c, 0, 64, 93
1, 124375, Note_off_c, 0, 44, 30
1, 124378, Control_c, 0, 64, 93
1, 124408, Control_c, 0, 64, 93
1, 124422, Control_c, 0, 64, 90
1, 124428, Note_on_c, 0, 49, 69
1, 124437, Control_c, 0, 64, 83
1, 124452, Control_c, 0, 64, 73
1, 124467, Control_c, 0, 64, 64
1, 124482, Control_c, 0, 64, 53
1, 124497, Control_c, 0, 64, 36
1, 124512, Control_c, 0, 64, 0
1, 124600, Control_c, 0, 64, 21
1, 124615, Control_c, 0, 64, 28
1, 124630, Control_c, 0, 64, 31
1, 124645, Control_c, 0, 64, 33
1, 124660, Control_c, 0, 64, 34
1, 124674, Control_c, 0, 64, 35
1, 124689, Control_c, 0, 64, 37
1, 124704, Control_c, 0, 64, 38
1, 124718, Control_c, 0, 64, 39
1, 124733, Control_c, 0, 64, 40
1, 124748, Control_c, 0, 64, 41
1, 124778, Control_c, 0, 64, 41
1, 124800, Control_c, 0, 64, 42
1, 124830, Control_c, 0, 64, 42
1, 124845, Control_c, 0, 64, 43
1, 124874, Control_c, 0, 64, 43
1, 124993, Control_c, 0, 64, 44
1, 125215, Note_on_c, 0, 65, 51
1, 125221, Note_on_c, 0, 61, 39
1, 125225, Note_on_c, 0, 53, 40
1, 125225, Note_on_c, 0, 58, 40
1, 125401, Note_off_c, 0, 53, 56
1, 125405, Note_off_c, 0, 58, 60
1, 125409, Control_c, 0, 64, 43
1, 125409, Note_off_c, 0, 61, 57
1, 125429, Note_off_c, 0, 65, 47
1, 125579, Note_off_c, 0, 49, 61
1, 125588, Note_on_c, 0, 48, 58
1, 125743, Note_off_c, 0, 48, 58
1, 125744, Note_on_c, 0, 46, 68
1, 125924, Note_on_c, 0, 45, 62
1, 125925, Note_off_c, 0, 46, 58
1, 125934, Control_c, 0, 64, 43
1, 125994, Control_c, 0, 64, 42
1, 126009, Control_c, 0, 64, 42
1, 126024, Control_c, 0, 64, 41
1, 126039, Control_c, 0, 64, 41
1, 126690, Note_on_c, 0, 57, 40
1, 126695, Note_on_c, 0, 65, 45
1, 126700, Note_on_c, 0, 61, 39
1, 126705, Note_on_c, 0, 53, 30
1, 126887, Note_off_c, 0, 65, 58
1, 126890, Note_off_c, 0, 57, 61
1, 126891, Note_off_c, 0, 61, 55
1, 126893, Note_off_c, 0, 53, 47
1, 127084, Note_on_c, 0, 44, 45
1, 127086, Note_off_c, 0, 45, 56
1, 127226, Note_off_c, 0, 44, 53
1, 127233, Note_on_c, 0, 42, 51
1, 127239, Control_c, 0, 64, 41
1, 127328, Control_c, 0, 64, 42
1, 127401, Note_off_c, 0, 42, 62
1, 127415, Note_on_c, 0, 41, 47
1, 127566, Control_c, 0, 64, 42
1, 127655, Control_c, 0, 64, 43
1, 127840, Control_c, 0, 64, 43
1, 127855, Control_c, 0, 64, 44
1, 127870, Control_c, 0, 64, 47
1, 127885, Control_c, 0, 64, 51
1, 127899, Control_c, 0, 64, 54
1, 127914, Control_c, 0, 64, 56
1, 127929, Control_c, 0, 64, 57
1, 127943, Control_c, 0, 64, 58
1, 127958, Control_c, 0, 64, 58
1, 127973, Control_c, 0, 64, 59
1, 127988, Control_c, 0, 64, 60
1, 128003, Control_c, 0, 64, 61
1, 128017, Control_c, 0, 64, 62
1, 128047, Control_c, 0, 64, 62
1, 128137, Control_c, 0, 64, 62
1, 128181, Control_c, 0, 64, 61
1, 128196, Control_c, 0, 64, 61
1, 128210, Note_on_c, 0, 65, 54
1, 128211, Control_c, 0, 64, 60
1, 128221, Note_on_c, 0, 58, 38
1, 128223, Note_on_c, 0, 53, 35
1, 128225, Control_c, 0, 64, 59
1, 128226, Note_on_c, 0, 61, 42
1, 128240, Control_c, 0, 64, 59
1, 128255, Control_c, 0, 64, 58
1, 128270, Control_c, 0, 64, 58
1, 128299, Control_c, 0, 64, 57
1, 128343, Control_c, 0, 64, 57
1, 128404, Control_c, 0, 64, 56
1, 128463, Control_c, 0, 64, 57
1, 128478, Control_c, 0, 64, 58
1, 128493, Control_c, 0, 64, 59
1, 128507, Control_c, 0, 64, 59
1, 128522, Control_c, 0, 64, 60
1, 128557, Note_off_c, 0, 53, 55
1, 128566, Note_off_c, 0, 58, 61
1, 128580, Note_off_c, 0, 61, 55
1, 128597, Note_off_c, 0, 65, 63
1, 128619, Control_c, 0, 64, 60
1, 128693, Control_c, 0, 64, 60
1, 128722, Control_c, 0, 64, 59
1, 128737, Control_c, 0, 64, 58
1, 128752, Control_c, 0, 64, 58
1, 128766, Control_c, 0, 64, 57
1, 128796, Control_c, 0, 64, 57
1, 128803, Note_on_c, 0, 65, 60
1, 128812, Note_on_c, 0, 53, 47
1, 128820, Note_on_c, 0, 58, 48
1, 128825, Note_on_c, 0, 61, 48
1, 128840, Control_c, 0, 64, 56
1, 128867, Note_off_c, 0, 53, 58
1, 128871, Note_off_c, 0, 61, 56
1, 128873, Note_off_c, 0, 58, 58
1, 128877, Note_off_c, 0, 65, 61
1, 128915, Control_c, 0, 64, 56
1, 128974, Note_on_c, 0, 65, 58
1, 128986, Note_on_c, 0, 61, 49
1, 128989, Control_c, 0, 64, 55
1, 128991, Note_on_c, 0, 53, 40
1, 128998, Note_on_c, 0, 58, 48
1, 129357, Note_on_c, 0, 42, 60
1, 129362, Note_off_c, 0, 41, 59
1, 129635, Control_c, 0, 64, 56
1, 129728, Note_on_c, 0, 45, 64
1, 129732, Note_off_c, 0, 42, 63
1, 129822, Note_off_c, 0, 61, 55
1, 129827, Note_off_c, 0, 58, 53
1, 129845, Note_off_c, 0, 53, 43
1, 129880, Note_off_c, 0, 65, 61
1, 129901, Control_c, 0, 64, 55
1, 130021, Control_c, 0, 64, 56
1, 130289, Note_on_c, 0, 46, 75
1, 130289, Note_off_c, 0, 45, 61
1, 130325, Control_c, 0, 64, 56
1, 130452, Note_on_c, 0, 49, 73
1, 130465, Note_off_c, 0, 46, 51
1, 130487, Control_c, 0, 64, 56
1, 131103, Control_c, 0, 64, 55
1, 131265, Control_c, 0, 64, 55
1, 131284, Note_on_c, 0, 65, 50
1, 131293, Note_on_c, 0, 58, 42
1, 131293, Note_on_c, 0, 53, 38
1, 131299, Note_on_c, 0, 61, 40
1, 131475, Note_off_c, 0, 53, 61
1, 131481, Note_off_c, 0, 58, 60
1, 131481, Note_off_c, 0, 65, 56
1, 131493, Note_off_c, 0, 61, 48
1, 131538, Control_c, 0, 64, 54
1, 131647, Note_off_c, 0, 49, 60
1, 131654, Note_on_c, 0, 48, 60
1, 131810, Note_on_c, 0, 46, 72
1, 131818, Note_off_c, 0, 48, 61
1, 131821, Control_c, 0, 64, 54
1, 131865, Control_c, 0, 64, 53
1, 131880, Control_c, 0, 64, 51
1, 131895, Control_c, 0, 64, 49
1, 131909, Control_c, 0, 64, 48
1, 131954, Control_c, 0, 64, 48
1, 131969, Control_c, 0, 64, 47
1, 131983, Control_c, 0, 64, 46
1, 131995, Note_on_c, 0, 45, 68
1, 131996, Note_off_c, 0, 46, 59
1, 131998, Control_c, 0, 64, 45
1, 132013, Control_c, 0, 64, 44
1, 132044, Control_c, 0, 64, 44
1, 132058, Control_c, 0, 64, 43
1, 132073, Control_c, 0, 64, 42
1, 132088, Control_c, 0, 64, 41
1, 132177, Control_c, 0, 64, 42
1, 132191, Control_c, 0, 64, 42
1, 132206, Control_c, 0, 64, 43
1, 132221, Control_c, 0, 64, 44
1, 132236, Control_c, 0, 64, 45
1, 132251, Control_c, 0, 64, 46
1, 132265, Control_c, 0, 64, 47
1, 132288, Control_c, 0, 64, 48
1, 132303, Control_c, 0, 64, 49
1, 132317, Control_c, 0, 64, 50
1, 132332, Control_c, 0, 64, 50
1, 132347, Control_c, 0, 64, 51
1, 132408, Control_c, 0, 64, 51
1, 132437, Control_c, 0, 64, 52
1, 132803, Note_on_c, 0, 65, 47
1, 132805, Note_on_c, 0, 61, 48
1, 132805, Note_on_c, 0, 57, 50
1, 132806, Control_c, 0, 64, 51
1, 132817, Note_on_c, 0, 53, 36
1, 133054, Note_off_c, 0, 57, 60
1, 133056, Note_off_c, 0, 53, 55
1, 133067, Note_off_c, 0, 65, 59
1, 133100, Note_off_c, 0, 61, 46
1, 133348, Control_c, 0, 64, 51
1, 133389, Note_on_c, 0, 44, 42
1, 133407, Note_off_c, 0, 45, 48
1, 133481, Control_c, 0, 64, 50
1, 133541, Note_off_c, 0, 44, 54
1, 133550, Note_on_c, 0, 42, 50
1, 133723, Note_off_c, 0, 42, 58
1, 133740, Note_on_c, 0, 41, 52
1, 134556, Note_on_c, 0, 53, 36
1, 134556, Note_on_c, 0, 65, 45
1, 134562, Note_on_c, 0, 58, 30
1, 134565, Note_on_c, 0, 61, 38
1, 134869, Note_off_c, 0, 61, 57
1, 134876, Note_off_c, 0, 53, 46
1, 134876, Note_off_c, 0, 58, 56
1, 134878, Note_off_c, 0, 65, 56
1, 135126, Note_on_c, 0, 65, 55
1, 135136, Note_on_c, 0, 53, 47
1, 135137, Note_on_c, 0, 58, 44
1, 135141, Note_on_c, 0, 61, 43
1, 135177, Note_off_c, 0, 53, 60
1, 135184, Note_off_c, 0, 65, 55
1, 135189, Note_off_c, 0, 61, 56
1, 135193, Note_off_c, 0, 58, 57
1, 135309, Note_on_c, 0, 65, 55
1, 135314, Note_on_c, 0, 53, 19
1, 135327, Note_on_c, 0, 61, 44
1, 135332, Note_on_c, 0, 58, 44
1, 135565, Control_c, 0, 64, 50
1, 135662, Note_on_c, 0, 45, 59
1, 135711, Note_off_c, 0, 41, 58
1, 135936, Control_c, 0, 64, 50
1, 136010, Control_c, 0, 64, 51
1, 136037, Note_on_c, 0, 46, 67
1, 136063, Note_off_c, 0, 45, 60
1, 136097, Note_off_c, 0, 58, 54
1, 136124, Note_off_c, 0, 65, 60
1, 136125, Note_off_c, 0, 53, 43
1, 136165, Control_c, 0, 64, 50
1, 136186, Note_off_c, 0, 61, 56
1, 136239, Control_c, 0, 64, 50
1, 136328, Control_c, 0, 64, 50
1, 136385, Note_on_c, 0, 48, 66
1, 136412, Note_off_c, 0, 46, 49
1, 136522, Control_c, 0, 64, 50
1, 136610, Control_c, 0, 64, 49
1, 136625, Control_c, 0, 64, 49
1, 136743, Control_c, 0, 64, 49
1, 136758, Control_c, 0, 64, 50
1, 136780, Control_c, 0, 64, 50
1, 136795, Control_c, 0, 64, 51
1, 136810, Control_c, 0, 64, 51
1, 136861, Note_on_c, 0, 49, 65
1, 136864, Note_off_c, 0, 48, 62
1, 136928, Control_c, 0, 64, 52
1, 136973, Control_c, 0, 64, 52
1, 136987, Control_c, 0, 64, 53
1, 137017, Control_c, 0, 64, 53
1, 137091, Control_c, 0, 64, 53
1, 137151, Control_c, 0, 64, 53
1, 137166, Control_c, 0, 64, 54
1, 137181, Control_c, 0, 64, 58
1, 137196, Control_c, 0, 64, 62
1, 137211, Control_c, 0, 64, 64
1, 137225, Control_c, 0, 64, 67
1, 137240, Control_c, 0, 64, 70
1, 137255, Control_c, 0, 64, 73
1, 137270, Control_c, 0, 64, 76
1, 137285, Control_c, 0, 64, 78
1, 137300, Control_c, 0, 64, 80
1, 137315, Control_c, 0, 64, 81
1, 137329, Control_c, 0, 64, 82
1, 137344, Control_c, 0, 64, 85
1, 137359, Control_c, 0, 64, 88
1, 137374, Control_c, 0, 64, 91
1, 137389, Control_c, 0, 64, 95
1, 137403, Control_c, 0, 64, 99
1, 137418, Control_c, 0, 64, 104
1, 137433, Control_c, 0, 64, 109
1, 137448, Control_c, 0, 64, 115
1, 137463, Control_c, 0, 64, 122
1, 137477, Control_c, 0, 64, 127
1, 137762, Note_on_c, 0, 66, 52
1, 137775, Note_on_c, 0, 57, 30
1, 137791, Note_on_c, 0, 61, 25
1, 137943, Note_off_c, 0, 57, 43
1, 137983, Note_off_c, 0, 61, 40
1, 138087, Note_off_c, 0, 66, 35
1, 138441, Control_c, 0, 64, 122
1, 138449, Note_on_c, 0, 52, 48
1, 138456, Control_c, 0, 64, 115
1, 138471, Control_c, 0, 64, 108
1, 138485, Control_c, 0, 64, 101
1, 138500, Control_c, 0, 64, 93
1, 138511, Note_off_c, 0, 52, 59
1, 138515, Control_c, 0, 64, 85
1, 138530, Control_c, 0, 64, 78
1, 138534, Note_on_c, 0, 50, 54
1, 138536, Note_off_c, 0, 49, 37
1, 138545, Control_c, 0, 64, 72
1, 138559, Control_c, 0, 64, 67
1, 138574, Control_c, 0, 64, 63
1, 138589, Control_c, 0, 64, 60
1, 138604, Control_c, 0, 64, 59
1, 138843, Control_c, 0, 64, 60
1, 138857, Control_c, 0, 64, 61
1, 138872, Control_c, 0, 64, 63
1, 138887, Control_c, 0, 64, 64
1, 138901, Control_c, 0, 64, 65
1, 138916, Control_c, 0, 64, 68
1, 138931, Control_c, 0, 64, 70
1, 138946, Control_c, 0, 64, 72
1, 138961, Control_c, 0, 64, 73
1, 138975, Control_c, 0, 64, 75
1, 138990, Control_c, 0, 64, 76
1, 139005, Control_c, 0, 64, 78
1, 139028, Control_c, 0, 64, 80
1, 139043, Control_c, 0, 64, 82
1, 139057, Control_c, 0, 64, 84
1, 139072, Control_c, 0, 64, 87
1, 139087, Control_c, 0, 64, 89
1, 139101, Control_c, 0, 64, 93
1, 139116, Control_c, 0, 64, 98
1, 139131, Control_c, 0, 64, 104
1, 139146, Control_c, 0, 64, 109
1, 139161, Control_c, 0, 64, 113
1, 139175, Control_c, 0, 64, 115
1, 139190, Control_c, 0, 64, 116
1, 139220, Control_c, 0, 64, 117
1, 139235, Control_c, 0, 64, 118
1, 139249, Control_c, 0, 64, 119
1, 139279, Control_c, 0, 64, 120
1, 139306, Note_on_c, 0, 65, 45
1, 139319, Note_on_c, 0, 59, 33
1, 139329, Note_on_c, 0, 56, 25
1, 139495, Note_off_c, 0, 59, 38
1, 139524, Note_off_c, 0, 56, 41
1, 139547, Control_c, 0, 64, 119
1, 139571, Note_off_c, 0, 65, 39
1, 139577, Control_c, 0, 64, 118
1, 139592, Control_c, 0, 64, 117
1, 139606, Control_c, 0, 64, 116
1, 139621, Control_c, 0, 64, 115
1, 139636, Control_c, 0, 64, 114
1, 139651, Control_c, 0, 64, 112
1, 139666, Control_c, 0, 64, 111
1, 139680, Control_c, 0, 64, 110
1, 139695, Control_c, 0, 64, 109
1, 139739, Control_c, 0, 64, 109
1, 139754, Control_c, 0, 64, 108
1, 139777, Control_c, 0, 64, 108
1, 139792, Control_c, 0, 64, 107
1, 139806, Control_c, 0, 64, 106
1, 139836, Control_c, 0, 64, 105
1, 139851, Control_c, 0, 64, 105
1, 139866, Control_c, 0, 64, 104
1, 139880, Control_c, 0, 64, 101
1, 139893, Note_off_c, 0, 50, 47
1, 139895, Control_c, 0, 64, 98
1, 139908, Note_on_c, 0, 49, 53
1, 139910, Control_c, 0, 64, 89
1, 139925, Control_c, 0, 64, 76
1, 139939, Control_c, 0, 64, 64
1, 139954, Control_c, 0, 64, 54
1, 139969, Control_c, 0, 64, 55
1, 139984, Control_c, 0, 64, 60
1, 139998, Control_c, 0, 64, 64
1, 140013, Control_c, 0, 64, 67
1, 140015, Note_off_c, 0, 49, 59
1, 140028, Control_c, 0, 64, 71
1, 140043, Control_c, 0, 64, 76
1, 140058, Control_c, 0, 64, 81
1, 140072, Control_c, 0, 64, 84
1, 140087, Control_c, 0, 64, 85
1, 140120, Note_on_c, 0, 49, 50
1, 140132, Control_c, 0, 64, 84
1, 140147, Control_c, 0, 64, 83
1, 140162, Control_c, 0, 64, 81
1, 140177, Control_c, 0, 64, 76
1, 140191, Control_c, 0, 64, 69
1, 140206, Control_c, 0, 64, 62
1, 140221, Control_c, 0, 64, 52
1, 140236, Control_c, 0, 64, 45
1, 140250, Control_c, 0, 64, 45
1, 140265, Control_c, 0, 64, 46
1, 140280, Control_c, 0, 64, 48
1, 140295, Control_c, 0, 64, 50
1, 140310, Control_c, 0, 64, 52
1, 140324, Control_c, 0, 64, 55
1, 140339, Control_c, 0, 64, 58
1, 140355, Control_c, 0, 64, 60
1, 140370, Control_c, 0, 64, 61
1, 140385, Control_c, 0, 64, 61
1, 140400, Control_c, 0, 64, 62
1, 140415, Control_c, 0, 64, 62
1, 140429, Control_c, 0, 64, 63
1, 140444, Control_c, 0, 64, 65
1, 140459, Control_c, 0, 64, 66
1, 140474, Control_c, 0, 64, 68
1, 140489, Control_c, 0, 64, 71
1, 140503, Control_c, 0, 64, 73
1, 140525, Control_c, 0, 64, 76
1, 140540, Control_c, 0, 64, 78
1, 140555, Control_c, 0, 64, 79
1, 140570, Control_c, 0, 64, 80
1, 140585, Control_c, 0, 64, 80
1, 140600, Control_c, 0, 64, 81
1, 140629, Control_c, 0, 64, 82
1, 140659, Control_c, 0, 64, 82
1, 140673, Control_c, 0, 64, 83
1, 140688, Control_c, 0, 64, 83
1, 140718, Control_c, 0, 64, 84
1, 140762, Control_c, 0, 64, 84
1, 140777, Control_c, 0, 64, 85
1, 140792, Control_c, 0, 64, 85
1, 140807, Control_c, 0, 64, 86
1, 140821, Control_c, 0, 64, 87
1, 140851, Control_c, 0, 64, 87
1, 140895, Control_c, 0, 64, 88
1, 140955, Control_c, 0, 64, 88
1, 140975, Note_on_c, 0, 66, 43
1, 140990, Note_on_c, 0, 57, 26
1, 141008, Note_on_c, 0, 61, 20
1, 141032, Note_off_c, 0, 66, 0
1, 141032, Note_on_c, 0, 66, 5
1, 141058, Control_c, 0, 64, 89
1, 141080, Note_off_c, 0, 61, 34
1, 141172, Note_off_c, 0, 57, 38
1, 141234, Note_off_c, 0, 66, 41
1, 141392, Control_c, 0, 64, 88
1, 141451, Control_c, 0, 64, 88
1, 141495, Control_c, 0, 64, 87
1, 141569, Control_c, 0, 64, 87
1, 141673, Control_c, 0, 64, 86
1, 141688, Control_c, 0, 64, 85
1, 141697, Note_on_c, 0, 53, 44
1, 141703, Control_c, 0, 64, 83
1, 141718, Control_c, 0, 64, 80
1, 141733, Control_c, 0, 64, 74
1, 141747, Control_c, 0, 64, 65
1, 141762, Control_c, 0, 64, 53
1, 141767, Note_off_c, 0, 49, 40
1, 141777, Control_c, 0, 64, 27
1, 141792, Control_c, 0, 64, 0
1, 141822, Control_c, 0, 64, 29
1, 141837, Control_c, 0, 64, 47
1, 141852, Control_c, 0, 64, 58
1, 141867, Control_c, 0, 64, 63
1, 141882, Control_c, 0, 64, 66
1, 141896, Control_c, 0, 64, 69
1, 141911, Control_c, 0, 64, 74
1, 141926, Control_c, 0, 64, 79
1, 141941, Control_c, 0, 64, 83
1, 141956, Control_c, 0, 64, 86
1, 141971, Control_c, 0, 64, 87
1, 141986, Control_c, 0, 64, 88
1, 142001, Control_c, 0, 64, 89
1, 142023, Control_c, 0, 64, 90
1, 142037, Note_off_c, 0, 53, 32
1, 142038, Control_c, 0, 64, 90
1, 142097, Control_c, 0, 64, 90
1, 142112, Control_c, 0, 64, 88
1, 142113, Note_on_c, 0, 54, 55
1, 142126, Control_c, 0, 64, 81
1, 142141, Control_c, 0, 64, 70
1, 142156, Control_c, 0, 64, 58
1, 142171, Control_c, 0, 64, 28
1, 142186, Control_c, 0, 64, 0
1, 142215, Control_c, 0, 64, 34
1, 142230, Control_c, 0, 64, 54
1, 142245, Control_c, 0, 64, 64
1, 142260, Control_c, 0, 64, 69
1, 142275, Control_c, 0, 64, 74
1, 142290, Control_c, 0, 64, 78
1, 142296, Note_off_c, 0, 54, 57
1, 142305, Control_c, 0, 64, 81
1, 142319, Control_c, 0, 64, 83
1, 142334, Control_c, 0, 64, 84
1, 142349, Control_c, 0, 64, 86
1, 142364, Control_c, 0, 64, 88
1, 142379, Control_c, 0, 64, 90
1, 142393, Control_c, 0, 64, 92
1, 142408, Control_c, 0, 64, 93
1, 142423, Control_c, 0, 64, 94
1, 142467, Control_c, 0, 64, 93
1, 142482, Control_c, 0, 64, 89
1, 142488, Note_on_c, 0, 55, 57
1, 142497, Control_c, 0, 64, 79
1, 142512, Control_c, 0, 64, 66
1, 142526, Control_c, 0, 64, 51
1, 142541, Control_c, 0, 64, 0
1, 142571, Control_c, 0, 64, 32
1, 142586, Control_c, 0, 64, 54
1, 142600, Control_c, 0, 64, 64
1, 142615, Control_c, 0, 64, 70
1, 142630, Control_c, 0, 64, 76
1, 142640, Note_off_c, 0, 55, 58
1, 142645, Control_c, 0, 64, 79
1, 142660, Control_c, 0, 64, 81
1, 142675, Control_c, 0, 64, 82
1, 142689, Control_c, 0, 64, 83
1, 142704, Control_c, 0, 64, 84
1, 142719, Control_c, 0, 64, 85
1, 142734, Control_c, 0, 64, 87
1, 142749, Control_c, 0, 64, 88
1, 142772, Control_c, 0, 64, 90
1, 142787, Control_c, 0, 64, 91
1, 142802, Control_c, 0, 64, 92
1, 142846, Control_c, 0, 64, 91
1, 142854, Note_on_c, 0, 56, 71
1, 142861, Control_c, 0, 64, 88
1, 142875, Control_c, 0, 64, 78
1, 142890, Control_c, 0, 64, 64
1, 142905, Control_c, 0, 64, 41
1, 142920, Control_c, 0, 64, 0
1, 142964, Control_c, 0, 64, 38
1, 142979, Control_c, 0, 64, 61
1, 142994, Control_c, 0, 64, 69
1, 143005, Note_off_c, 0, 56, 61
1, 143009, Control_c, 0, 64, 77
1, 143023, Control_c, 0, 64, 83
1, 143038, Control_c, 0, 64, 85
1, 143053, Control_c, 0, 64, 87
1, 143068, Control_c, 0, 64, 89
1, 143083, Control_c, 0, 64, 93
1, 143098, Control_c, 0, 64, 97
1, 143113, Control_c, 0, 64, 102
1, 143128, Control_c, 0, 64, 107
1, 143142, Control_c, 0, 64, 112
1, 143157, Control_c, 0, 64, 122
1, 143172, Control_c, 0, 64, 127
1, 143222, Note_on_c, 0, 57, 67
1, 143231, Control_c, 0, 64, 101
1, 143246, Control_c, 0, 64, 78
1, 143261, Control_c, 0, 64, 60
1, 143274, Control_c, 0, 64, 0
1, 143318, Control_c, 0, 64, 21
1, 143333, Control_c, 0, 64, 57
1, 143348, Control_c, 0, 64, 68
1, 143363, Control_c, 0, 64, 75
1, 143378, Control_c, 0, 64, 80
1, 143393, Control_c, 0, 64, 82
1, 143408, Control_c, 0, 64, 84
1, 143422, Control_c, 0, 64, 86
1, 143437, Control_c, 0, 64, 88
1, 143438, Note_off_c, 0, 57, 56
1, 143452, Control_c, 0, 64, 92
1, 143466, Control_c, 0, 64, 95
1, 143481, Control_c, 0, 64, 97
1, 143496, Control_c, 0, 64, 101
1, 143518, Control_c, 0, 64, 103
1, 143533, Control_c, 0, 64, 106
1, 143549, Control_c, 0, 64, 109
1, 143564, Control_c, 0, 64, 113
1, 143578, Control_c, 0, 64, 119
1, 143593, Control_c, 0, 64, 127
1, 143647, Note_on_c, 0, 49, 63
1, 143667, Control_c, 0, 64, 120
1, 143682, Control_c, 0, 64, 102
1, 143697, Control_c, 0, 64, 83
1, 143712, Control_c, 0, 64, 69
1, 143727, Control_c, 0, 64, 57
1, 143742, Control_c, 0, 64, 34
1, 143757, Control_c, 0, 64, 0
1, 143801, Control_c, 0, 64, 11
1, 143816, Control_c, 0, 64, 18
1, 143831, Control_c, 0, 64, 21
1, 143845, Control_c, 0, 64, 23
1, 143860, Control_c, 0, 64, 25
1, 143875, Control_c, 0, 64, 28
1, 143889, Control_c, 0, 64, 32
1, 143904, Control_c, 0, 64, 37
1, 143919, Control_c, 0, 64, 42
1, 143934, Control_c, 0, 64, 46
1, 143949, Control_c, 0, 64, 48
1, 143963, Control_c, 0, 64, 49
1, 144082, Control_c, 0, 64, 49
1, 144111, Control_c, 0, 64, 50
1, 144141, Control_c, 0, 64, 50
1, 144156, Control_c, 0, 64, 52
1, 144171, Control_c, 0, 64, 53
1, 144186, Control_c, 0, 64, 54
1, 144201, Control_c, 0, 64, 54
1, 144216, Control_c, 0, 64, 55
1, 144231, Control_c, 0, 64, 57
1, 144245, Control_c, 0, 64, 57
1, 144267, Control_c, 0, 64, 58
1, 144282, Control_c, 0, 64, 58
1, 144311, Control_c, 0, 64, 59
1, 144326, Control_c, 0, 64, 59
1, 144342, Control_c, 0, 64, 60
1, 144357, Control_c, 0, 64, 61
1, 144372, Control_c, 0, 64, 62
1, 144386, Control_c, 0, 64, 62
1, 144401, Control_c, 0, 64, 63
1, 144416, Control_c, 0, 64, 63
1, 144431, Control_c, 0, 64, 64
1, 144446, Control_c, 0, 64, 66
1, 144456, Note_on_c, 0, 66, 56
1, 144461, Control_c, 0, 64, 68
1, 144470, Note_on_c, 0, 57, 33
1, 144475, Control_c, 0, 64, 72
1, 144479, Note_on_c, 0, 61, 24
1, 144490, Control_c, 0, 64, 75
1, 144505, Control_c, 0, 64, 78
1, 144520, Control_c, 0, 64, 80
1, 144535, Control_c, 0, 64, 81
1, 144550, Control_c, 0, 64, 82
1, 144564, Control_c, 0, 64, 83
1, 144579, Control_c, 0, 64, 83
1, 144628, Note_off_c, 0, 57, 36
1, 144628, Note_off_c, 0, 61, 38
1, 144667, Note_off_c, 0, 66, 62
1, 145016, Control_c, 0, 64, 83
1, 145053, Note_off_c, 0, 49, 33
1, 145195, Control_c, 0, 64, 82
1, 145224, Control_c, 0, 64, 81
1, 145229, Note_on_c, 0, 52, 63
1, 145239, Control_c, 0, 64, 79
1, 145254, Control_c, 0, 64, 75
1, 145268, Control_c, 0, 64, 70
1, 145283, Control_c, 0, 64, 65
1, 145298, Control_c, 0, 64, 61
1, 145313, Control_c, 0, 64, 56
1, 145328, Control_c, 0, 64, 55
1, 145372, Control_c, 0, 64, 55
1, 145421, Note_off_c, 0, 52, 55
1, 145423, Note_on_c, 0, 50, 54
1, 145432, Control_c, 0, 64, 55
1, 145596, Control_c, 0, 64, 55
1, 145625, Control_c, 0, 64, 56
1, 145655, Control_c, 0, 64, 56
1, 145684, Control_c, 0, 64, 57
1, 145699, Control_c, 0, 64, 58
1, 145714, Control_c, 0, 64, 58
1, 145729, Control_c, 0, 64, 59
1, 145743, Control_c, 0, 64, 59
1, 145766, Control_c, 0, 64, 60
1, 145781, Control_c, 0, 64, 61
1, 145796, Control_c, 0, 64, 62
1, 145810, Control_c, 0, 64, 63
1, 145825, Control_c, 0, 64, 63
1, 145840, Control_c, 0, 64, 64
1, 145869, Control_c, 0, 64, 64
1, 145884, Control_c, 0, 64, 65
1, 145899, Control_c, 0, 64, 65
1, 145914, Control_c, 0, 64, 66
1, 145929, Control_c, 0, 64, 66
1, 145945, Control_c, 0, 64, 67
1, 145959, Control_c, 0, 64, 68
1, 145974, Control_c, 0, 64, 70
1, 145989, Control_c, 0, 64, 71
1, 146004, Control_c, 0, 64, 72
1, 146019, Control_c, 0, 64, 72
1, 146034, Control_c, 0, 64, 73
1, 146048, Control_c, 0, 64, 74
1, 146063, Control_c, 0, 64, 76
1, 146078, Control_c, 0, 64, 78
1, 146092, Control_c, 0, 64, 79
1, 146107, Control_c, 0, 64, 80
1, 146122, Control_c, 0, 64, 81
1, 146152, Control_c, 0, 64, 81
1, 146181, Control_c, 0, 64, 82
1, 146209, Note_on_c, 0, 65, 40
1, 146211, Control_c, 0, 64, 83
1, 146215, Note_on_c, 0, 59, 29
1, 146226, Control_c, 0, 64, 83
1, 146229, Note_on_c, 0, 56, 25
1, 146240, Control_c, 0, 64, 84
1, 146255, Control_c, 0, 64, 86
1, 146270, Control_c, 0, 64, 87
1, 146284, Control_c, 0, 64, 87
1, 146299, Control_c, 0, 64, 88
1, 146314, Control_c, 0, 64, 88
1, 146329, Note_off_c, 0, 65, 60
1, 146337, Note_off_c, 0, 59, 48
1, 146348, Note_off_c, 0, 56, 41
1, 146492, Control_c, 0, 64, 88
1, 146529, Control_c, 0, 64, 87
1, 146544, Control_c, 0, 64, 87
1, 146559, Control_c, 0, 64, 86
1, 146574, Control_c, 0, 64, 85
1, 146588, Control_c, 0, 64, 83
1, 146603, Control_c, 0, 64, 81
1, 146618, Control_c, 0, 64, 79
1, 146633, Control_c, 0, 64, 77
1, 146648, Control_c, 0, 64, 75
1, 146752, Control_c, 0, 64, 75
1, 146915, Control_c, 0, 64, 74
1, 146983, Note_off_c, 0, 50, 56
1, 146998, Note_on_c, 0, 49, 46
1, 147018, Control_c, 0, 64, 73
1, 147033, Control_c, 0, 64, 69
1, 147048, Control_c, 0, 64, 64
1, 147062, Control_c, 0, 64, 59
1, 147077, Control_c, 0, 64, 58
1, 147092, Control_c, 0, 64, 62
1, 147107, Control_c, 0, 64, 65
1, 147108, Note_off_c, 0, 49, 59
1, 147122, Control_c, 0, 64, 69
1, 147137, Control_c, 0, 64, 73
1, 147152, Control_c, 0, 64, 75
1, 147167, Control_c, 0, 64, 76
1, 147196, Control_c, 0, 64, 75
1, 147211, Control_c, 0, 64, 75
1, 147226, Control_c, 0, 64, 73
1, 147238, Note_on_c, 0, 49, 46
1, 147240, Control_c, 0, 64, 71
1, 147262, Control_c, 0, 64, 67
1, 147277, Control_c, 0, 64, 63
1, 147292, Control_c, 0, 64, 59
1, 147307, Control_c, 0, 64, 57
1, 147411, Control_c, 0, 64, 57
1, 147455, Control_c, 0, 64, 58
1, 147855, Control_c, 0, 64, 58
1, 147885, Control_c, 0, 64, 59
1, 147900, Control_c, 0, 64, 59
1, 147930, Control_c, 0, 64, 60
1, 147960, Control_c, 0, 64, 60
1, 147975, Control_c, 0, 64, 61
1, 147989, Control_c, 0, 64, 61
1, 148011, Control_c, 0, 64, 62
1, 148026, Control_c, 0, 64, 62
1, 148041, Control_c, 0, 64, 63
1, 148070, Control_c, 0, 64, 63
1, 148085, Control_c, 0, 64, 64
1, 148100, Control_c, 0, 64, 64
1, 148115, Control_c, 0, 64, 65
1, 148130, Control_c, 0, 64, 66
1, 148144, Control_c, 0, 64, 68
1, 148159, Control_c, 0, 64, 69
1, 148174, Control_c, 0, 64, 70
1, 148189, Note_on_c, 0, 66, 44
1, 148189, Control_c, 0, 64, 72
1, 148204, Control_c, 0, 64, 74
1, 148211, Note_on_c, 0, 57, 22
1, 148219, Control_c, 0, 64, 75
1, 148227, Note_on_c, 0, 61, 24
1, 148234, Control_c, 0, 64, 76
1, 148249, Control_c, 0, 64, 76
1, 148263, Control_c, 0, 64, 77
1, 148288, Note_off_c, 0, 61, 40
1, 148294, Note_off_c, 0, 66, 58
1, 148326, Note_off_c, 0, 57, 41
1, 148428, Control_c, 0, 64, 76
1, 148472, Control_c, 0, 64, 76
1, 148576, Control_c, 0, 64, 75
1, 148621, Control_c, 0, 64, 75
1, 148635, Control_c, 0, 64, 74
1, 148650, Control_c, 0, 64, 73
1, 148659, Note_on_c, 0, 53, 48
1, 148665, Control_c, 0, 64, 70
1, 148679, Control_c, 0, 64, 66
1, 148694, Control_c, 0, 64, 61
1, 148709, Control_c, 0, 64, 51
1, 148724, Control_c, 0, 64, 39
1, 148728, Note_off_c, 0, 49, 34
1, 148739, Control_c, 0, 64, 33
1, 148761, Control_c, 0, 64, 35
1, 148776, Control_c, 0, 64, 41
1, 148791, Control_c, 0, 64, 49
1, 148806, Control_c, 0, 64, 57
1, 148821, Control_c, 0, 64, 63
1, 148835, Control_c, 0, 64, 66
1, 148850, Control_c, 0, 64, 69
1, 148865, Control_c, 0, 64, 72
1, 148880, Control_c, 0, 64, 74
1, 148894, Control_c, 0, 64, 76
1, 148909, Control_c, 0, 64, 77
1, 148924, Control_c, 0, 64, 79
1, 148939, Control_c, 0, 64, 80
1, 148954, Control_c, 0, 64, 80
1, 148973, Note_off_c, 0, 53, 47
1, 149027, Control_c, 0, 64, 79
1, 149042, Control_c, 0, 64, 76
1, 149050, Note_on_c, 0, 54, 62
1, 149057, Control_c, 0, 64, 68
1, 149072, Control_c, 0, 64, 59
1, 149086, Control_c, 0, 64, 42
1, 149101, Control_c, 0, 64, 23
1, 149116, Control_c, 0, 64, 31
1, 149132, Control_c, 0, 64, 45
1, 149147, Control_c, 0, 64, 58
1, 149162, Control_c, 0, 64, 65
1, 149177, Control_c, 0, 64, 69
1, 149191, Control_c, 0, 64, 73
1, 149206, Note_off_c, 0, 54, 60
1, 149206, Control_c, 0, 64, 77
1, 149221, Control_c, 0, 64, 80
1, 149236, Control_c, 0, 64, 81
1, 149251, Control_c, 0, 64, 81
1, 149265, Control_c, 0, 64, 82
1, 149280, Control_c, 0, 64, 82
1, 149295, Control_c, 0, 64, 83
1, 149310, Control_c, 0, 64, 84
1, 149325, Control_c, 0, 64, 84
1, 149340, Control_c, 0, 64, 85
1, 149414, Control_c, 0, 64, 83
1, 149419, Note_on_c, 0, 55, 57
1, 149429, Control_c, 0, 64, 77
1, 149444, Control_c, 0, 64, 68
1, 149458, Control_c, 0, 64, 55
1, 149473, Control_c, 0, 64, 27
1, 149488, Control_c, 0, 64, 0
1, 149510, Control_c, 0, 64, 24
1, 149525, Control_c, 0, 64, 49
1, 149540, Control_c, 0, 64, 62
1, 149554, Control_c, 0, 64, 69
1, 149569, Control_c, 0, 64, 75
1, 149581, Note_off_c, 0, 55, 61
1, 149584, Control_c, 0, 64, 80
1, 149599, Control_c, 0, 64, 83
1, 149614, Control_c, 0, 64, 84
1, 149629, Control_c, 0, 64, 85
1, 149643, Control_c, 0, 64, 87
1, 149658, Control_c, 0, 64, 90
1, 149673, Control_c, 0, 64, 92
1, 149688, Control_c, 0, 64, 95
1, 149703, Control_c, 0, 64, 97
1, 149717, Control_c, 0, 64, 97
1, 149732, Control_c, 0, 64, 98
1, 149785, Note_on_c, 0, 56, 72
1, 149791, Control_c, 0, 64, 92
1, 149806, Control_c, 0, 64, 79
1, 149821, Control_c, 0, 64, 65
1, 149835, Control_c, 0, 64, 40
1, 149850, Control_c, 0, 64, 0
1, 149880, Control_c, 0, 64, 31
1, 149895, Control_c, 0, 64, 61
1, 149909, Control_c, 0, 64, 71
1, 149924, Control_c, 0, 64, 80
1, 149940, Control_c, 0, 64, 87
1, 149955, Control_c, 0, 64, 89
1, 149979, Note_off_c, 0, 56, 57
1, 149985, Control_c, 0, 64, 90
1, 150000, Control_c, 0, 64, 90
1, 150014, Control_c, 0, 64, 91
1, 150029, Control_c, 0, 64, 92
1, 150044, Control_c, 0, 64, 93
1, 150058, Control_c, 0, 64, 93
1, 150073, Control_c, 0, 64, 94
1, 150088, Control_c, 0, 64, 94
1, 150148, Control_c, 0, 64, 94
1, 150154, Note_on_c, 0, 57, 75
1, 150163, Control_c, 0, 64, 90
1, 150177, Control_c, 0, 64, 78
1, 150192, Control_c, 0, 64, 64
1, 150207, Control_c, 0, 64, 31
1, 150222, Control_c, 0, 64, 0
1, 150273, Control_c, 0, 64, 49
1, 150288, Control_c, 0, 64, 65
1, 150303, Control_c, 0, 64, 73
1, 150318, Control_c, 0, 64, 79
1, 150332, Control_c, 0, 64, 83
1, 150347, Control_c, 0, 64, 84
1, 150356, Note_off_c, 0, 57, 61
1, 150362, Control_c, 0, 64, 85
1, 150377, Control_c, 0, 64, 87
1, 150392, Control_c, 0, 64, 89
1, 150407, Control_c, 0, 64, 91
1, 150422, Control_c, 0, 64, 93
1, 150437, Control_c, 0, 64, 95
1, 150452, Control_c, 0, 64, 97
1, 150466, Control_c, 0, 64, 99
1, 150481, Control_c, 0, 64, 100
1, 150496, Control_c, 0, 64, 102
1, 150511, Control_c, 0, 64, 103
1, 150526, Control_c, 0, 64, 104
1, 150555, Note_on_c, 0, 57, 78
1, 150570, Control_c, 0, 64, 103
1, 150585, Control_c, 0, 64, 96
1, 150600, Control_c, 0, 64, 82
1, 150614, Control_c, 0, 64, 67
1, 150629, Control_c, 0, 64, 46
1, 150644, Control_c, 0, 64, 0
1, 150718, Control_c, 0, 64, 37
1, 150734, Control_c, 0, 64, 56
1, 150749, Control_c, 0, 64, 64
1, 150763, Control_c, 0, 64, 67
1, 150778, Control_c, 0, 64, 69
1, 150793, Control_c, 0, 64, 70
1, 150808, Control_c, 0, 64, 71
1, 150823, Control_c, 0, 64, 72
1, 150837, Control_c, 0, 64, 74
1, 150852, Control_c, 0, 64, 75
1, 150867, Control_c, 0, 64, 77
1, 150881, Control_c, 0, 64, 77
1, 150896, Control_c, 0, 64, 78
1, 150911, Control_c, 0, 64, 79
1, 150926, Control_c, 0, 64, 80
1, 150941, Control_c, 0, 64, 80
1, 150955, Control_c, 0, 64, 81
1, 151319, Control_c, 0, 64, 80
1, 151334, Control_c, 0, 64, 78
1, 151349, Control_c, 0, 64, 74
1, 151361, Note_on_c, 0, 66, 55
1, 151363, Control_c, 0, 64, 67
1, 151366, Note_on_c, 0, 48, 43
1, 151378, Control_c, 0, 64, 59
1, 151386, Note_on_c, 0, 63, 36
1, 151393, Control_c, 0, 64, 42
1, 151407, Control_c, 0, 64, 0
1, 151542, Control_c, 0, 64, 13
1, 151557, Control_c, 0, 64, 22
1, 151558, Note_off_c, 0, 48, 64
1, 151572, Control_c, 0, 64, 30
1, 151576, Note_off_c, 0, 66, 62
1, 151584, Note_off_c, 0, 63, 55
1, 151586, Control_c, 0, 64, 37
1, 151601, Control_c, 0, 64, 42
1, 151616, Control_c, 0, 64, 45
1, 151645, Control_c, 0, 64, 44
1, 151660, Control_c, 0, 64, 42
1, 151675, Control_c, 0, 64, 41
1, 151690, Control_c, 0, 64, 40
1, 151704, Control_c, 0, 64, 37
1, 151719, Control_c, 0, 64, 36
1, 151734, Control_c, 0, 64, 38
1, 151757, Control_c, 0, 64, 45
1, 151772, Control_c, 0, 64, 56
1, 151786, Control_c, 0, 64, 65
1, 151801, Control_c, 0, 64, 73
1, 151816, Control_c, 0, 64, 82
1, 151830, Control_c, 0, 64, 93
1, 151845, Control_c, 0, 64, 102
1, 151860, Control_c, 0, 64, 110
1, 151862, Note_off_c, 0, 57, 60
1, 151875, Control_c, 0, 64, 118
1, 151890, Control_c, 0, 64, 127
1, 152142, Control_c, 0, 64, 116
1, 152153, Note_on_c, 0, 57, 84
1, 152157, Control_c, 0, 64, 100
1, 152172, Control_c, 0, 64, 82
1, 152186, Control_c, 0, 64, 69
1, 152201, Control_c, 0, 64, 55
1, 152216, Control_c, 0, 64, 24
1, 152230, Control_c, 0, 64, 0
1, 152275, Control_c, 0, 64, 36
1, 152290, Control_c, 0, 64, 52
1, 152304, Control_c, 0, 64, 60
1, 152319, Control_c, 0, 64, 64
1, 152335, Control_c, 0, 64, 66
1, 152350, Control_c, 0, 64, 67
1, 152365, Control_c, 0, 64, 67
1, 152380, Control_c, 0, 64, 69
1, 152395, Control_c, 0, 64, 70
1, 152409, Control_c, 0, 64, 73
1, 152424, Control_c, 0, 64, 75
1, 152439, Control_c, 0, 64, 76
1, 152453, Control_c, 0, 64, 76
1, 152520, Control_c, 0, 64, 77
1, 152565, Control_c, 0, 64, 77
1, 152609, Control_c, 0, 64, 78
1, 152624, Control_c, 0, 64, 78
1, 152668, Control_c, 0, 64, 79
1, 152742, Control_c, 0, 64, 79
1, 152920, Control_c, 0, 64, 78
1, 152935, Control_c, 0, 64, 74
1, 152950, Control_c, 0, 64, 67
1, 152960, Note_on_c, 0, 66, 54
1, 152962, Note_on_c, 0, 47, 57
1, 152965, Control_c, 0, 64, 57
1, 152980, Note_on_c, 0, 63, 45
1, 152980, Control_c, 0, 64, 35
1, 152994, Control_c, 0, 64, 0
1, 153143, Note_off_c, 0, 66, 62
1, 153143, Control_c, 0, 64, 10
1, 153155, Note_off_c, 0, 63, 58
1, 153156, Note_off_c, 0, 47, 58
1, 153158, Control_c, 0, 64, 32
1, 153173, Control_c, 0, 64, 44
1, 153188, Control_c, 0, 64, 51
1, 153203, Control_c, 0, 64, 54
1, 153218, Control_c, 0, 64, 55
1, 153232, Control_c, 0, 64, 56
1, 153254, Control_c, 0, 64, 58
1, 153269, Control_c, 0, 64, 60
1, 153284, Control_c, 0, 64, 62
1, 153298, Control_c, 0, 64, 63
1, 153313, Note_off_c, 0, 57, 60
1, 153313, Control_c, 0, 64, 64
1, 153328, Control_c, 0, 64, 64
1, 153358, Control_c, 0, 64, 65
1, 153388, Control_c, 0, 64, 64
1, 153394, Note_on_c, 0, 57, 89
1, 153403, Control_c, 0, 64, 60
1, 153418, Control_c, 0, 64, 50
1, 153432, Control_c, 0, 64, 34
1, 153447, Control_c, 0, 64, 32
1, 153462, Control_c, 0, 64, 43
1, 153476, Control_c, 0, 64, 57
1, 153491, Control_c, 0, 64, 65
1, 153506, Control_c, 0, 64, 72
1, 153521, Control_c, 0, 64, 82
1, 153536, Control_c, 0, 64, 90
1, 153550, Control_c, 0, 64, 95
1, 153565, Control_c, 0, 64, 99
1, 153567, Note_off_c, 0, 57, 59
1, 153580, Control_c, 0, 64, 103
1, 153595, Control_c, 0, 64, 105
1, 153609, Control_c, 0, 64, 108
1, 153624, Control_c, 0, 64, 109
1, 153639, Control_c, 0, 64, 112
1, 153654, Control_c, 0, 64, 113
1, 153669, Control_c, 0, 64, 115
1, 153683, Control_c, 0, 64, 116
1, 153713, Control_c, 0, 64, 117
1, 153728, Control_c, 0, 64, 118
1, 153743, Control_c, 0, 64, 120
1, 153758, Control_c, 0, 64, 124
1, 153772, Control_c, 0, 64, 127
1, 153917, Note_on_c, 0, 57, 87
1, 153951, Control_c, 0, 64, 103
1, 153966, Control_c, 0, 64, 87
1, 153981, Control_c, 0, 64, 71
1, 154003, Control_c, 0, 64, 60
1, 154018, Control_c, 0, 64, 37
1, 154032, Control_c, 0, 64, 0
1, 154403, Control_c, 0, 64, 15
1, 154418, Control_c, 0, 64, 24
1, 154432, Control_c, 0, 64, 29
1, 154447, Control_c, 0, 64, 32
1, 154462, Control_c, 0, 64, 35
1, 154477, Control_c, 0, 64, 37
1, 154492, Control_c, 0, 64, 38
1, 154506, Control_c, 0, 64, 39
1, 154521, Control_c, 0, 64, 39
1, 154536, Control_c, 0, 64, 40
1, 154551, Control_c, 0, 64, 40
1, 154566, Control_c, 0, 64, 41
1, 154595, Control_c, 0, 64, 41
1, 154610, Control_c, 0, 64, 42
1, 154625, Control_c, 0, 64, 42
1, 154640, Control_c, 0, 64, 43
1, 154655, Control_c, 0, 64, 43
1, 154685, Control_c, 0, 64, 44
1, 154699, Control_c, 0, 64, 46
1, 154714, Control_c, 0, 64, 49
1, 154729, Control_c, 0, 64, 53
1, 154752, Control_c, 0, 64, 57
1, 154767, Control_c, 0, 64, 59
1, 154782, Control_c, 0, 64, 60
1, 154797, Control_c, 0, 64, 61
1, 154885, Control_c, 0, 64, 60
1, 154900, Control_c, 0, 64, 59
1, 154902, Note_on_c, 0, 46, 60
1, 154905, Note_on_c, 0, 66, 60
1, 154915, Control_c, 0, 64, 56
1, 154921, Note_on_c, 0, 63, 47
1, 154929, Control_c, 0, 64, 52
1, 154944, Control_c, 0, 64, 46
1, 154959, Control_c, 0, 64, 41
1, 154974, Control_c, 0, 64, 38
1, 155004, Control_c, 0, 64, 40
1, 155018, Control_c, 0, 64, 41
1, 155033, Control_c, 0, 64, 43
1, 155048, Control_c, 0, 64, 43
1, 155063, Control_c, 0, 64, 44
1, 155078, Control_c, 0, 64, 45
1, 155093, Control_c, 0, 64, 45
1, 155106, Note_off_c, 0, 66, 63
1, 155108, Control_c, 0, 64, 46
1, 155117, Note_off_c, 0, 63, 60
1, 155122, Control_c, 0, 64, 46
1, 155144, Note_off_c, 0, 46, 60
1, 155315, Control_c, 0, 64, 47
1, 155344, Control_c, 0, 64, 47
1, 155359, Control_c, 0, 64, 50
1, 155373, Control_c, 0, 64, 54
1, 155388, Control_c, 0, 64, 57
1, 155403, Control_c, 0, 64, 60
1, 155418, Control_c, 0, 64, 63
1, 155433, Control_c, 0, 64, 64
1, 155448, Control_c, 0, 64, 65
1, 155463, Control_c, 0, 64, 67
1, 155478, Control_c, 0, 64, 68
1, 155500, Control_c, 0, 64, 70
1, 155515, Control_c, 0, 64, 73
1, 155531, Control_c, 0, 64, 75
1, 155546, Control_c, 0, 64, 76
1, 155560, Control_c, 0, 64, 77
1, 155723, Control_c, 0, 64, 77
1, 155945, Note_on_c, 0, 58, 68
1, 155946, Control_c, 0, 64, 77
1, 155960, Control_c, 0, 64, 75
1, 155966, Note_off_c, 0, 57, 51
1, 155975, Control_c, 0, 64, 71
1, 155990, Control_c, 0, 64, 63
1, 156003, Control_c, 0, 64, 50
1, 156018, Control_c, 0, 64, 17
1, 156033, Control_c, 0, 64, 0
1, 156092, Control_c, 0, 64, 51
1, 156107, Control_c, 0, 64, 64
1, 156122, Control_c, 0, 64, 71
1, 156137, Control_c, 0, 64, 77
1, 156151, Control_c, 0, 64, 83
1, 156166, Control_c, 0, 64, 85
1, 156181, Note_off_c, 0, 58, 56
1, 156181, Control_c, 0, 64, 88
1, 156196, Control_c, 0, 64, 90
1, 156211, Control_c, 0, 64, 93
1, 156226, Control_c, 0, 64, 96
1, 156248, Control_c, 0, 64, 99
1, 156263, Control_c, 0, 64, 101
1, 156277, Control_c, 0, 64, 102
1, 156292, Control_c, 0, 64, 104
1, 156307, Control_c, 0, 64, 105
1, 156323, Control_c, 0, 64, 106
1, 156338, Control_c, 0, 64, 108
1, 156353, Control_c, 0, 64, 109
1, 156368, Control_c, 0, 64, 109
1, 156382, Control_c, 0, 64, 110
1, 156397, Control_c, 0, 64, 110
1, 156412, Control_c, 0, 64, 111
1, 156471, Control_c, 0, 64, 107
1, 156473, Note_on_c, 0, 59, 75
1, 156486, Control_c, 0, 64, 97
1, 156500, Control_c, 0, 64, 83
1, 156515, Control_c, 0, 64, 69
1, 156530, Control_c, 0, 64, 53
1, 156545, Control_c, 0, 64, 0
1, 156574, Control_c, 0, 64, 26
1, 156589, Control_c, 0, 64, 53
1, 156604, Control_c, 0, 64, 65
1, 156619, Control_c, 0, 64, 71
1, 156634, Control_c, 0, 64, 78
1, 156649, Control_c, 0, 64, 82
1, 156664, Control_c, 0, 64, 83
1, 156679, Control_c, 0, 64, 84
1, 156694, Control_c, 0, 64, 85
1, 156708, Control_c, 0, 64, 86
1, 156723, Control_c, 0, 64, 88
1, 156738, Control_c, 0, 64, 90
1, 156753, Control_c, 0, 64, 92
1, 156768, Control_c, 0, 64, 94
1, 156782, Control_c, 0, 64, 95
1, 156797, Control_c, 0, 64, 95
1, 156812, Control_c, 0, 64, 96
1, 156824, Note_off_c, 0, 59, 49
1, 156869, Note_on_c, 0, 58, 74
1, 156871, Control_c, 0, 64, 95
1, 156886, Control_c, 0, 64, 89
1, 156900, Control_c, 0, 64, 78
1, 156915, Control_c, 0, 64, 64
1, 156930, Control_c, 0, 64, 40
1, 156945, Control_c, 0, 64, 0
1, 156974, Control_c, 0, 64, 47
1, 156997, Control_c, 0, 64, 63
1, 157012, Control_c, 0, 64, 72
1, 157026, Control_c, 0, 64, 80
1, 157041, Control_c, 0, 64, 85
1, 157086, Control_c, 0, 64, 85
1, 157100, Control_c, 0, 64, 86
1, 157115, Control_c, 0, 64, 86
1, 157129, Note_off_c, 0, 58, 38
1, 157131, Control_c, 0, 64, 87
1, 157146, Control_c, 0, 64, 88
1, 157161, Control_c, 0, 64, 89
1, 157176, Control_c, 0, 64, 89
1, 157191, Control_c, 0, 64, 90
1, 157205, Control_c, 0, 64, 90
1, 157235, Control_c, 0, 64, 89
1, 157249, Note_on_c, 0, 54, 69
1, 157249, Control_c, 0, 64, 84
1, 157264, Control_c, 0, 64, 73
1, 157279, Control_c, 0, 64, 61
1, 157294, Control_c, 0, 64, 33
1, 157309, Control_c, 0, 64, 0
1, 157338, Control_c, 0, 64, 11
1, 157353, Control_c, 0, 64, 52
1, 157368, Control_c, 0, 64, 66
1, 157383, Control_c, 0, 64, 75
1, 157397, Control_c, 0, 64, 85
1, 157412, Control_c, 0, 64, 91
1, 157427, Control_c, 0, 64, 94
1, 157442, Control_c, 0, 64, 96
1, 157454, Note_off_c, 0, 54, 60
1, 157457, Control_c, 0, 64, 98
1, 157472, Control_c, 0, 64, 102
1, 157487, Control_c, 0, 64, 107
1, 157501, Control_c, 0, 64, 113
1, 157515, Control_c, 0, 64, 122
1, 157530, Control_c, 0, 64, 127
1, 157604, Control_c, 0, 64, 124
1, 157612, Note_on_c, 0, 51, 69
1, 157619, Control_c, 0, 64, 95
1, 157634, Control_c, 0, 64, 76
1, 157648, Control_c, 0, 64, 60
1, 157663, Control_c, 0, 64, 0
1, 157708, Control_c, 0, 64, 51
1, 157722, Control_c, 0, 64, 66
1, 157737, Control_c, 0, 64, 75
1, 157760, Control_c, 0, 64, 83
1, 157775, Control_c, 0, 64, 87
1, 157790, Control_c, 0, 64, 88
1, 157804, Control_c, 0, 64, 90
1, 157812, Note_off_c, 0, 51, 58
1, 157819, Control_c, 0, 64, 92
1, 157834, Control_c, 0, 64, 96
1, 157848, Control_c, 0, 64, 102
1, 157863, Control_c, 0, 64, 111
1, 157878, Control_c, 0, 64, 127
1, 158090, Note_on_c, 0, 47, 81
1, 158131, Control_c, 0, 64, 102
1, 158145, Control_c, 0, 64, 85
1, 158160, Control_c, 0, 64, 71
1, 158175, Control_c, 0, 64, 55
1, 158190, Control_c, 0, 64, 27
1, 158205, Control_c, 0, 64, 0
1, 158294, Control_c, 0, 64, 10
1, 158309, Control_c, 0, 64, 19
1, 158324, Control_c, 0, 64, 27
1, 158339, Control_c, 0, 64, 34
1, 158354, Control_c, 0, 64, 40
1, 158369, Control_c, 0, 64, 45
1, 158384, Control_c, 0, 64, 46
1, 158398, Control_c, 0, 64, 47
1, 158539, Control_c, 0, 64, 48
1, 158598, Control_c, 0, 64, 48
1, 158613, Control_c, 0, 64, 49
1, 158628, Control_c, 0, 64, 50
1, 158643, Control_c, 0, 64, 51
1, 158672, Control_c, 0, 64, 51
1, 158702, Control_c, 0, 64, 52
1, 158733, Control_c, 0, 64, 52
1, 158748, Control_c, 0, 64, 53
1, 158762, Control_c, 0, 64, 54
1, 158777, Control_c, 0, 64, 55
1, 158792, Control_c, 0, 64, 56
1, 158807, Control_c, 0, 64, 57
1, 158836, Control_c, 0, 64, 57
1, 158851, Control_c, 0, 64, 58
1, 158881, Control_c, 0, 64, 59
1, 158895, Control_c, 0, 64, 59
1, 158910, Control_c, 0, 64, 60
1, 158925, Control_c, 0, 64, 61
1, 158940, Control_c, 0, 64, 61
1, 158955, Control_c, 0, 64, 62
1, 158969, Control_c, 0, 64, 63
1, 158984, Note_on_c, 0, 66, 72
1, 158984, Control_c, 0, 64, 64
1, 158999, Note_on_c, 0, 56, 47
1, 158999, Control_c, 0, 64, 65
1, 159009, Note_on_c, 0, 62, 42
1, 159013, Control_c, 0, 64, 67
1, 159028, Control_c, 0, 64, 68
1, 159043, Control_c, 0, 64, 71
1, 159058, Control_c, 0, 64, 74
1, 159073, Control_c, 0, 64, 76
1, 159087, Control_c, 0, 64, 78
1, 159102, Control_c, 0, 64, 79
1, 159117, Control_c, 0, 64, 80
1, 159132, Control_c, 0, 64, 82
1, 159147, Control_c, 0, 64, 84
1, 159162, Control_c, 0, 64, 86
1, 159177, Control_c, 0, 64, 88
1, 159192, Control_c, 0, 64, 90
1, 159207, Control_c, 0, 64, 92
1, 159221, Control_c, 0, 64, 93
1, 159243, Control_c, 0, 64, 94
1, 159258, Control_c, 0, 64, 95
1, 159273, Control_c, 0, 64, 95
1, 159288, Control_c, 0, 64, 96
1, 159302, Control_c, 0, 64, 96
1, 159317, Control_c, 0, 64, 97
1, 159347, Control_c, 0, 64, 97
1, 159466, Control_c, 0, 64, 98
1, 159807, Control_c, 0, 64, 97
1, 159822, Control_c, 0, 64, 97
1, 159866, Control_c, 0, 64, 96
1, 159881, Control_c, 0, 64, 96
1, 159896, Control_c, 0, 64, 95
1, 159910, Control_c, 0, 64, 95
1, 159925, Control_c, 0, 64, 94
1, 159940, Control_c, 0, 64, 94
1, 159955, Control_c, 0, 64, 93
1, 159970, Control_c, 0, 64, 92
1, 159992, Control_c, 0, 64, 92
1, 160004, Note_on_c, 0, 42, 59
1, 160007, Control_c, 0, 64, 90
1, 160022, Control_c, 0, 64, 89
1, 160037, Control_c, 0, 64, 86
1, 160051, Control_c, 0, 64, 81
1, 160066, Control_c, 0, 64, 74
1, 160074, Note_off_c, 0, 47, 58
1, 160081, Control_c, 0, 64, 66
1, 160096, Control_c, 0, 64, 55
1, 160111, Control_c, 0, 64, 49
1, 160125, Control_c, 0, 64, 53
1, 160140, Control_c, 0, 64, 59
1, 160155, Control_c, 0, 64, 65
1, 160169, Control_c, 0, 64, 69
1, 160184, Control_c, 0, 64, 76
1, 160199, Control_c, 0, 64, 81
1, 160214, Control_c, 0, 64, 85
1, 160229, Control_c, 0, 64, 87
1, 160244, Control_c, 0, 64, 88
1, 160259, Control_c, 0, 64, 89
1, 160274, Control_c, 0, 64, 90
1, 160289, Control_c, 0, 64, 92
1, 160304, Control_c, 0, 64, 94
1, 160319, Control_c, 0, 64, 96
1, 160334, Control_c, 0, 64, 96
1, 160348, Control_c, 0, 64, 97
1, 160378, Control_c, 0, 64, 97
1, 160608, Note_off_c, 0, 66, 54
1, 160800, Control_c, 0, 64, 97
1, 160815, Control_c, 0, 64, 96
1, 160830, Control_c, 0, 64, 96
1, 160845, Control_c, 0, 64, 94
1, 160860, Control_c, 0, 64, 90
1, 160861, Note_on_c, 0, 44, 49
1, 160865, Note_on_c, 0, 65, 44
1, 160874, Control_c, 0, 64, 83
1, 160889, Control_c, 0, 64, 74
1, 160904, Control_c, 0, 64, 64
1, 160909, Note_off_c, 0, 42, 36
1, 160919, Control_c, 0, 64, 52
1, 160934, Control_c, 0, 64, 33
1, 160948, Control_c, 0, 64, 0
1, 161007, Control_c, 0, 64, 10
1, 161022, Control_c, 0, 64, 21
1, 161037, Control_c, 0, 64, 33
1, 161052, Control_c, 0, 64, 47
1, 161067, Control_c, 0, 64, 56
1, 161082, Control_c, 0, 64, 60
1, 161096, Note_off_c, 0, 62, 39
1, 161097, Control_c, 0, 64, 61
1, 161112, Control_c, 0, 64, 62
1, 161157, Control_c, 0, 64, 62
1, 161171, Control_c, 0, 64, 63
1, 161253, Note_off_c, 0, 56, 38
1, 161290, Control_c, 0, 64, 62
1, 161299, Note_off_c, 0, 65, 56
1, 161320, Control_c, 0, 64, 62
1, 161335, Control_c, 0, 64, 61
1, 161364, Control_c, 0, 64, 60
1, 161379, Control_c, 0, 64, 60
1, 161394, Control_c, 0, 64, 59
1, 161483, Control_c, 0, 64, 60
1, 161520, Control_c, 0, 64, 60
1, 161535, Control_c, 0, 64, 61
1, 161565, Control_c, 0, 64, 61
1, 161579, Control_c, 0, 64, 62
1, 161609, Control_c, 0, 64, 62
1, 161687, Note_on_c, 0, 46, 61
1, 161712, Control_c, 0, 64, 62
1, 161742, Control_c, 0, 64, 61
1, 161757, Control_c, 0, 64, 60
1, 161771, Control_c, 0, 64, 59
1, 161786, Control_c, 0, 64, 59
1, 161797, Note_off_c, 0, 44, 34
1, 161801, Control_c, 0, 64, 58
1, 161904, Control_c, 0, 64, 58
1, 161935, Control_c, 0, 64, 58
1, 161950, Control_c, 0, 64, 60
1, 161965, Control_c, 0, 64, 62
1, 161980, Control_c, 0, 64, 64
1, 161994, Control_c, 0, 64, 68
1, 162009, Control_c, 0, 64, 72
1, 162024, Control_c, 0, 64, 78
1, 162038, Control_c, 0, 64, 83
1, 162053, Control_c, 0, 64, 86
1, 162068, Control_c, 0, 64, 88
1, 162083, Control_c, 0, 64, 89
1, 162098, Control_c, 0, 64, 90
1, 162113, Control_c, 0, 64, 91
1, 162128, Control_c, 0, 64, 91
1, 162158, Control_c, 0, 64, 92
1, 162512, Note_on_c, 0, 47, 65
1, 162520, Control_c, 0, 64, 90
1, 162535, Control_c, 0, 64, 87
1, 162550, Control_c, 0, 64, 81
1, 162563, Note_off_c, 0, 46, 34
1, 162564, Control_c, 0, 64, 73
1, 162579, Control_c, 0, 64, 64
1, 162594, Control_c, 0, 64, 54
1, 162609, Control_c, 0, 64, 43
1, 162624, Control_c, 0, 64, 35
1, 162638, Control_c, 0, 64, 34
1, 162683, Control_c, 0, 64, 35
1, 162714, Control_c, 0, 64, 35
1, 162743, Control_c, 0, 64, 36
1, 162758, Control_c, 0, 64, 37
1, 162773, Control_c, 0, 64, 38
1, 162788, Control_c, 0, 64, 39
1, 162803, Control_c, 0, 64, 40
1, 162817, Control_c, 0, 64, 41
1, 162847, Control_c, 0, 64, 41
1, 162861, Control_c, 0, 64, 42
1, 162936, Control_c, 0, 64, 42
1, 163032, Control_c, 0, 64, 43
1, 163076, Control_c, 0, 64, 43
1, 163091, Control_c, 0, 64, 44
1, 163106, Control_c, 0, 64, 45
1, 163121, Control_c, 0, 64, 46
1, 163136, Control_c, 0, 64, 47
1, 163150, Control_c, 0, 64, 47
1, 163165, Control_c, 0, 64, 48
1, 163180, Control_c, 0, 64, 49
1, 163195, Control_c, 0, 64, 49
1, 163210, Control_c, 0, 64, 50
1, 163225, Control_c, 0, 64, 50
1, 163240, Control_c, 0, 64, 51
1, 163255, Control_c, 0, 64, 51
1, 163284, Control_c, 0, 64, 52
1, 163299, Control_c, 0, 64, 53
1, 163314, Control_c, 0, 64, 54
1, 163329, Control_c, 0, 64, 55
1, 163343, Control_c, 0, 64, 57
1, 163358, Control_c, 0, 64, 59
1, 163373, Control_c, 0, 64, 61
1, 163380, Note_on_c, 0, 61, 64
1, 163387, Control_c, 0, 64, 62
1, 163398, Note_on_c, 0, 56, 36
1, 163402, Control_c, 0, 64, 64
1, 163404, Note_on_c, 0, 53, 40
1, 163417, Control_c, 0, 64, 66
1, 163432, Control_c, 0, 64, 68
1, 163447, Control_c, 0, 64, 70
1, 163461, Control_c, 0, 64, 73
1, 163476, Control_c, 0, 64, 76
1, 163491, Control_c, 0, 64, 79
1, 163507, Control_c, 0, 64, 81
1, 163522, Control_c, 0, 64, 83
1, 163537, Control_c, 0, 64, 85
1, 163552, Control_c, 0, 64, 86
1, 163566, Control_c, 0, 64, 88
1, 163581, Control_c, 0, 64, 90
1, 163596, Control_c, 0, 64, 91
1, 163610, Control_c, 0, 64, 93
1, 163625, Control_c, 0, 64, 94
1, 163640, Control_c, 0, 64, 94
1, 163655, Control_c, 0, 64, 95
1, 163670, Control_c, 0, 64, 95
1, 163684, Control_c, 0, 64, 96
1, 163699, Control_c, 0, 64, 96
1, 163714, Control_c, 0, 64, 97
1, 163752, Control_c, 0, 64, 97
1, 163766, Control_c, 0, 64, 98
1, 163835, Note_off_c, 0, 53, 42
1, 164000, Note_off_c, 0, 56, 42
1, 164345, Control_c, 0, 64, 97
1, 164360, Control_c, 0, 64, 97
1, 164375, Control_c, 0, 64, 96
1, 164389, Control_c, 0, 64, 95
1, 164404, Control_c, 0, 64, 91
1, 164408, Note_on_c, 0, 58, 45
1, 164419, Control_c, 0, 64, 85
1, 164423, Note_on_c, 0, 48, 37
1, 164431, Note_on_c, 0, 52, 36
1, 164433, Control_c, 0, 64, 77
1, 164448, Control_c, 0, 64, 67
1, 164462, Note_on_c, 0, 55, 12
1, 164463, Control_c, 0, 64, 57
1, 164468, Note_off_c, 0, 47, 29
1, 164486, Control_c, 0, 64, 35
1, 164501, Control_c, 0, 64, 16
1, 164515, Control_c, 0, 64, 15
1, 164530, Control_c, 0, 64, 18
1, 164545, Control_c, 0, 64, 18
1, 164575, Control_c, 0, 64, 20
1, 164589, Control_c, 0, 64, 21
1, 164604, Control_c, 0, 64, 23
1, 164619, Control_c, 0, 64, 25
1, 164633, Control_c, 0, 64, 26
1, 164648, Control_c, 0, 64, 27
1, 164663, Control_c, 0, 64, 28
1, 164678, Control_c, 0, 64, 29
1, 164693, Control_c, 0, 64, 31
1, 164707, Control_c, 0, 64, 34
1, 164722, Control_c, 0, 64, 38
1, 164737, Control_c, 0, 64, 44
1, 164752, Control_c, 0, 64, 49
1, 164767, Control_c, 0, 64, 53
1, 164781, Control_c, 0, 64, 54
1, 164796, Control_c, 0, 64, 56
1, 164811, Control_c, 0, 64, 58
1, 164826, Control_c, 0, 64, 60
1, 164841, Control_c, 0, 64, 62
1, 164855, Control_c, 0, 64, 65
1, 164870, Control_c, 0, 64, 66
1, 164885, Control_c, 0, 64, 68
1, 164900, Control_c, 0, 64, 70
1, 164915, Control_c, 0, 64, 72
1, 164930, Control_c, 0, 64, 75
1, 164945, Control_c, 0, 64, 77
1, 164959, Control_c, 0, 64, 79
1, 164974, Control_c, 0, 64, 81
1, 164990, Control_c, 0, 64, 82
1, 165004, Control_c, 0, 64, 84
1, 165019, Control_c, 0, 64, 85
1, 165034, Control_c, 0, 64, 87
1, 165049, Control_c, 0, 64, 87
1, 165064, Control_c, 0, 64, 88
1, 165079, Control_c, 0, 64, 88
1, 165109, Control_c, 0, 64, 89
1, 165240, Note_off_c, 0, 61, 34
1, 165264, Control_c, 0, 64, 89
1, 165590, Control_c, 0, 64, 89
1, 165679, Control_c, 0, 64, 88
1, 165724, Control_c, 0, 64, 88
1, 165782, Control_c, 0, 64, 87
1, 165842, Control_c, 0, 64, 87
1, 165843, Note_on_c, 0, 60, 44
1, 165856, Control_c, 0, 64, 86
1, 165871, Control_c, 0, 64, 84
1, 165886, Control_c, 0, 64, 81
1, 165902, Control_c, 0, 64, 76
1, 165917, Control_c, 0, 64, 72
1, 165932, Control_c, 0, 64, 66
1, 165946, Control_c, 0, 64, 59
1, 165961, Control_c, 0, 64, 48
1, 165976, Control_c, 0, 64, 38
1, 165998, Control_c, 0, 64, 35
1, 166012, Control_c, 0, 64, 38
1, 166027, Control_c, 0, 64, 42
1, 166042, Control_c, 0, 64, 47
1, 166057, Control_c, 0, 64, 54
1, 166072, Control_c, 0, 64, 60
1, 166087, Control_c, 0, 64, 63
1, 166101, Control_c, 0, 64, 66
1, 166116, Control_c, 0, 64, 68
1, 166131, Control_c, 0, 64, 71
1, 166146, Control_c, 0, 64, 74
1, 166161, Control_c, 0, 64, 78
1, 166176, Control_c, 0, 64, 81
1, 166191, Control_c, 0, 64, 84
1, 166205, Note_off_c, 0, 48, 34
1, 166205, Control_c, 0, 64, 86
1, 166215, Note_off_c, 0, 55, 40
1, 166220, Control_c, 0, 64, 88
1, 166235, Control_c, 0, 64, 90
1, 166250, Control_c, 0, 64, 91
1, 166261, Note_off_c, 0, 52, 42
1, 166265, Control_c, 0, 64, 92
1, 166267, Note_off_c, 0, 58, 37
1, 166279, Control_c, 0, 64, 93
1, 166294, Control_c, 0, 64, 94
1, 166309, Control_c, 0, 64, 94
1, 166324, Control_c, 0, 64, 95
1, 166353, Control_c, 0, 64, 95
1, 166359, Note_off_c, 0, 60, 53
1, 166368, Control_c, 0, 64, 96
1, 166383, Control_c, 0, 64, 96
1, 166442, Control_c, 0, 64, 97
1, 166486, Control_c, 0, 64, 97
1, 166516, Control_c, 0, 64, 98
1, 167280, Control_c, 0, 64, 97
1, 167295, Control_c, 0, 64, 97
1, 167309, Control_c, 0, 64, 96
1, 167324, Control_c, 0, 64, 94
1, 167338, Note_on_c, 0, 80, 71
1, 167339, Control_c, 0, 64, 89
1, 167353, Control_c, 0, 64, 82
1, 167354, Note_on_c, 0, 41, 41
1, 167368, Control_c, 0, 64, 72
1, 167370, Note_on_c, 0, 29, 28
1, 167383, Control_c, 0, 64, 59
1, 167384, Note_on_c, 0, 68, 13
1, 167398, Control_c, 0, 64, 23
1, 167413, Control_c, 0, 64, 0
1, 167480, Control_c, 0, 64, 46
1, 167495, Control_c, 0, 64, 62
1, 167511, Control_c, 0, 64, 69
1, 167526, Control_c, 0, 64, 75
1, 167540, Control_c, 0, 64, 81
1, 167546, Note_off_c, 0, 29, 53
1, 167555, Control_c, 0, 64, 84
1, 167570, Control_c, 0, 64, 85
1, 167584, Control_c, 0, 64, 87
1, 167596, Note_off_c, 0, 68, 42
1, 167599, Control_c, 0, 64, 90
1, 167604, Note_off_c, 0, 41, 44
1, 167614, Control_c, 0, 64, 95
1, 167629, Control_c, 0, 64, 102
1, 167644, Control_c, 0, 64, 108
1, 167646, Note_off_c, 0, 80, 61
1, 167658, Control_c, 0, 64, 115
1, 167673, Control_c, 0, 64, 124
1, 167688, Control_c, 0, 64, 127
1, 168131, Note_on_c, 0, 77, 43
1, 168138, Note_on_c, 0, 72, 44
1, 168142, Note_on_c, 0, 56, 36
1, 168146, Note_on_c, 0, 68, 39
1, 168157, Note_on_c, 0, 60, 37
1, 168173, Poly_aftertouch_c, 0, 65, 127
1, 168195, Note_off_c, 0, 77, 56
1, 168200, Note_off_c, 0, 68, 44
1, 168209, Note_off_c, 0, 60, 43
1, 168213, Poly_aftertouch_c, 0, 65, 0
1, 168236, Note_off_c, 0, 56, 54
1, 168236, Note_off_c, 0, 72, 37
1, 168509, Note_on_c, 0, 79, 62
1, 168532, Note_on_c, 0, 67, 40
1, 168540, Note_off_c, 0, 79, 51
1, 168576, Note_off_c, 0, 67, 46
1, 168669, Note_on_c, 0, 77, 70
1, 168695, Note_on_c, 0, 65, 50
1, 168719, Note_off_c, 0, 65, 59
1, 168724, Note_off_c, 0, 77, 58
1, 168850, Note_on_c, 0, 76, 75
1, 168866, Control_c, 0, 64, 103
1, 168875, Note_on_c, 0, 29, 42
1, 168877, Note_on_c, 0, 41, 34
1, 168879, Note_on_c, 0, 64, 53
1, 168880, Control_c, 0, 64, 85
1, 168895, Control_c, 0, 64, 68
1, 168910, Control_c, 0, 64, 43
1, 168925, Control_c, 0, 64, 0
1, 169006, Control_c, 0, 64, 36
1, 169021, Control_c, 0, 64, 59
1, 169029, Note_off_c, 0, 29, 61
1, 169036, Control_c, 0, 64, 68
1, 169048, Note_off_c, 0, 41, 55
1, 169051, Control_c, 0, 64, 77
1, 169066, Control_c, 0, 64, 88
1, 169080, Control_c, 0, 64, 95
1, 169095, Control_c, 0, 64, 100
1, 169111, Control_c, 0, 64, 105
1, 169114, Note_off_c, 0, 64, 44
1, 169126, Control_c, 0, 64, 114
1, 169141, Control_c, 0, 64, 127
1, 169255, Note_off_c, 0, 76, 40
1, 169580, Note_on_c, 0, 72, 53
1, 169592, Note_on_c, 0, 52, 46
1, 169593, Note_on_c, 0, 64, 38
1, 169595, Note_on_c, 0, 60, 38
1, 169596, Note_on_c, 0, 56, 41
1, 169606, Note_on_c, 0, 68, 38
1, 169625, Note_off_c, 0, 56, 63
1, 169637, Note_off_c, 0, 52, 62
1, 169638, Note_off_c, 0, 60, 45
1, 169658, Note_off_c, 0, 64, 41
1, 169682, Note_off_c, 0, 72, 61
1, 169875, Note_off_c, 0, 68, 33
1, 169984, Note_on_c, 0, 75, 60
1, 169997, Note_on_c, 0, 63, 46
1, 170051, Note_off_c, 0, 75, 58
1, 170057, Note_off_c, 0, 63, 54
1, 170149, Note_on_c, 0, 73, 66
1, 170165, Note_on_c, 0, 61, 48
1, 170262, Note_off_c, 0, 61, 52
1, 170268, Note_off_c, 0, 73, 56
1, 170349, Note_on_c, 0, 72, 65
1, 170364, Control_c, 0, 64, 104
1, 170373, Note_on_c, 0, 60, 47
1, 170375, Note_on_c, 0, 29, 41
1, 170378, Control_c, 0, 64, 83
1, 170393, Control_c, 0, 64, 65
1, 170394, Note_on_c, 0, 41, 22
1, 170408, Control_c, 0, 64, 32
1, 170423, Control_c, 0, 64, 0
1, 170504, Control_c, 0, 64, 33
1, 170519, Control_c, 0, 64, 58
1, 170534, Control_c, 0, 64, 68
1, 170537, Note_off_c, 0, 29, 57
1, 170549, Control_c, 0, 64, 75
1, 170564, Control_c, 0, 64, 83
1, 170578, Control_c, 0, 64, 89
1, 170588, Note_off_c, 0, 41, 42
1, 170593, Control_c, 0, 64, 93
1, 170608, Control_c, 0, 64, 98
1, 170623, Control_c, 0, 64, 104
1, 170638, Control_c, 0, 64, 115
1, 170652, Control_c, 0, 64, 127
1, 170653, Note_off_c, 0, 60, 37
1, 171112, Note_on_c, 0, 48, 37
1, 171116, Note_on_c, 0, 56, 38
1, 171121, Note_on_c, 0, 68, 47
1, 171126, Note_on_c, 0, 60, 42
1, 171130, Note_on_c, 0, 65, 36
1, 171133, Note_on_c, 0, 53, 28
1, 171284, Note_off_c, 0, 48, 35
1, 171294, Note_off_c, 0, 53, 58
1, 171312, Note_off_c, 0, 68, 62
1, 171317, Note_off_c, 0, 56, 52
1, 171317, Note_off_c, 0, 60, 39
1, 171343, Note_off_c, 0, 65, 41
1, 171667, Note_on_c, 0, 68, 56
1, 171676, Note_on_c, 0, 56, 40
1, 171682, Note_on_c, 0, 48, 47
1, 171689, Note_on_c, 0, 65, 39
1, 171692, Note_on_c, 0, 53, 21
1, 171704, Note_on_c, 0, 60, 20
1, 171731, Note_off_c, 0, 65, 47
1, 171732, Note_off_c, 0, 48, 53
1, 171733, Note_off_c, 0, 56, 43
1, 171736, Note_off_c, 0, 53, 47
1, 171750, Note_off_c, 0, 68, 38
1, 171753, Note_off_c, 0, 60, 43
1, 171838, Note_on_c, 0, 68, 44
1, 171849, Note_on_c, 0, 56, 45
1, 171857, Note_on_c, 0, 53, 37
1, 171859, Note_on_c, 0, 48, 38
1, 171870, Note_on_c, 0, 60, 25
1, 171876, Note_on_c, 0, 65, 21
1, 171884, Note_off_c, 0, 53, 59
1, 171893, Note_off_c, 0, 56, 60
1, 171893, Note_off_c, 0, 48, 52
1, 171908, Note_off_c, 0, 60, 48
1, 171910, Note_off_c, 0, 65, 47
1, 171932, Note_off_c, 0, 72, 64
1, 172025, Note_off_c, 0, 68, 37
1, 172220, Note_on_c, 0, 73, 76
1, 172232, Note_on_c, 0, 61, 54
1, 172266, Note_off_c, 0, 61, 51
1, 172603, Note_on_c, 0, 76, 69
1, 172624, Note_on_c, 0, 64, 42
1, 172625, Control_c, 0, 64, 122
1, 172640, Control_c, 0, 64, 102
1, 172644, Note_off_c, 0, 73, 59
1, 172654, Control_c, 0, 64, 86
1, 172669, Control_c, 0, 64, 70
1, 172684, Control_c, 0, 64, 43
1, 172699, Control_c, 0, 64, 0
1, 172780, Control_c, 0, 64, 25
1, 172795, Control_c, 0, 64, 57
1, 172810, Control_c, 0, 64, 67
1, 172825, Control_c, 0, 64, 75
1, 172840, Control_c, 0, 64, 83
1, 172854, Control_c, 0, 64, 87
1, 172868, Note_off_c, 0, 76, 66
1, 172869, Control_c, 0, 64, 88
1, 172874, Note_off_c, 0, 64, 41
1, 172884, Control_c, 0, 64, 90
1, 172899, Control_c, 0, 64, 94
1, 172914, Control_c, 0, 64, 100
1, 172928, Control_c, 0, 64, 108
1, 172943, Control_c, 0, 64, 124
1, 172958, Control_c, 0, 64, 127
1, 173159, Note_on_c, 0, 77, 75
1, 173169, Note_on_c, 0, 65, 61
1, 173188, Note_off_c, 0, 65, 66
1, 173208, Note_off_c, 0, 77, 61
1, 173359, Control_c, 0, 64, 99
1, 173374, Control_c, 0, 64, 79
1, 173375, Note_on_c, 0, 29, 47
1, 173386, Note_on_c, 0, 80, 82
1, 173389, Control_c, 0, 64, 61
1, 173394, Note_on_c, 0, 41, 33
1, 173403, Control_c, 0, 64, 0
1, 173408, Note_on_c, 0, 68, 57
1, 173463, Control_c, 0, 64, 20
1, 173485, Control_c, 0, 64, 54
1, 173500, Control_c, 0, 64, 65
1, 173508, Note_off_c, 0, 29, 61
1, 173515, Control_c, 0, 64, 71
1, 173530, Note_off_c, 0, 68, 58
1, 173530, Control_c, 0, 64, 78
1, 173545, Control_c, 0, 64, 87
1, 173559, Control_c, 0, 64, 94
1, 173571, Note_off_c, 0, 41, 37
1, 173574, Control_c, 0, 64, 104
1, 173589, Control_c, 0, 64, 127
1, 173606, Note_off_c, 0, 80, 63
1, 174113, Note_on_c, 0, 56, 41
1, 174117, Note_on_c, 0, 77, 62
1, 174127, Note_on_c, 0, 72, 54
1, 174129, Note_on_c, 0, 68, 49
1, 174132, Note_on_c, 0, 65, 44
1, 174134, Note_on_c, 0, 60, 42
1, 174159, Note_off_c, 0, 56, 63
1, 174159, Note_off_c, 0, 65, 59
1, 174160, Note_off_c, 0, 60, 55
1, 174168, Note_off_c, 0, 72, 61
1, 174179, Note_off_c, 0, 68, 59
1, 174186, Note_off_c, 0, 77, 59
1, 174466, Note_on_c, 0, 79, 70
1, 174477, Note_on_c, 0, 67, 59
1, 174510, Note_off_c, 0, 79, 53
1, 174517, Note_off_c, 0, 67, 59
1, 174621, Note_on_c, 0, 77, 81
1, 174632, Note_on_c, 0, 65, 69
1, 174665, Note_off_c, 0, 65, 64
1, 174681, Note_off_c, 0, 77, 59
1, 174806, Note_on_c, 0, 76, 84
1, 174813, Control_c, 0, 64, 102
1, 174821, Note_on_c, 0, 64, 64
1, 174827, Note_on_c, 0, 41, 45
1, 174828, Control_c, 0, 64, 81
1, 174839, Note_on_c, 0, 29, 41
1, 174842, Control_c, 0, 64, 63
1, 174857, Control_c, 0, 64, 0
1, 174931, Control_c, 0, 64, 22
1, 174946, Control_c, 0, 64, 55
1, 174968, Control_c, 0, 64, 68
1, 174983, Control_c, 0, 64, 75
1, 174988, Note_off_c, 0, 29, 61
1, 174998, Control_c, 0, 64, 84
1, 175013, Control_c, 0, 64, 90
1, 175028, Control_c, 0, 64, 96
1, 175032, Note_off_c, 0, 64, 56
1, 175042, Control_c, 0, 64, 103
1, 175048, Note_off_c, 0, 41, 40
1, 175057, Control_c, 0, 64, 118
1, 175060, Note_off_c, 0, 76, 63
1, 175072, Control_c, 0, 64, 127
1, 175538, Note_on_c, 0, 72, 65
1, 175539, Note_on_c, 0, 52, 51
1, 175551, Note_on_c, 0, 56, 46
1, 175552, Note_on_c, 0, 64, 44
1, 175554, Note_on_c, 0, 68, 53
1, 175557, Note_on_c, 0, 60, 50
1, 175590, Note_off_c, 0, 56, 62
1, 175599, Note_off_c, 0, 60, 60
1, 175611, Note_off_c, 0, 52, 63
1, 175666, Note_off_c, 0, 72, 58
1, 175670, Note_off_c, 0, 64, 38
1, 175837, Note_off_c, 0, 68, 39
1, 176009, Note_on_c, 0, 75, 66
1, 176025, Note_on_c, 0, 63, 55
1, 176079, Note_off_c, 0, 63, 52
1, 176090, Note_off_c, 0, 75, 59
1, 176174, Note_on_c, 0, 73, 70
1, 176195, Note_on_c, 0, 61, 51
1, 176283, Note_off_c, 0, 61, 55
1, 176304, Note_off_c, 0, 73, 36
1, 176383, Note_on_c, 0, 72, 64
1, 176384, Control_c, 0, 64, 114
1, 176399, Control_c, 0, 64, 90
1, 176406, Note_on_c, 0, 60, 47
1, 176413, Control_c, 0, 64, 74
1, 176420, Note_on_c, 0, 29, 39
1, 176425, Note_on_c, 0, 41, 31
1, 176428, Control_c, 0, 64, 58
1, 176443, Control_c, 0, 64, 0
1, 176490, Note_off_c, 0, 60, 0
1, 176490, Note_on_c, 0, 60, 3
1, 176554, Control_c, 0, 64, 45
1, 176569, Control_c, 0, 64, 64
1, 176584, Control_c, 0, 64, 73
1, 176599, Control_c, 0, 64, 84
1, 176609, Note_off_c, 0, 29, 55
1, 176613, Control_c, 0, 64, 91
1, 176628, Control_c, 0, 64, 95
1, 176643, Control_c, 0, 64, 99
1, 176658, Control_c, 0, 64, 104
1, 176673, Control_c, 0, 64, 113
1, 176675, Note_off_c, 0, 41, 42
1, 176687, Control_c, 0, 64, 127
1, 176720, Note_off_c, 0, 60, 39
1, 177143, Note_on_c, 0, 68, 51
1, 177148, Note_on_c, 0, 48, 40
1, 177155, Note_on_c, 0, 56, 38
1, 177159, Note_on_c, 0, 60, 41
1, 177168, Note_on_c, 0, 53, 32
1, 177176, Note_on_c, 0, 65, 28
1, 177218, Note_off_c, 0, 60, 41
1, 177241, Note_off_c, 0, 68, 52
1, 177269, Note_off_c, 0, 48, 46
1, 177300, Note_off_c, 0, 65, 29
1, 177306, Note_off_c, 0, 53, 55
1, 177394, Note_off_c, 0, 56, 40
1, 177655, Note_on_c, 0, 68, 58
1, 177664, Note_on_c, 0, 56, 38
1, 177667, Note_on_c, 0, 48, 52
1, 177672, Note_on_c, 0, 53, 39
1, 177674, Note_on_c, 0, 65, 41
1, 177681, Note_on_c, 0, 60, 28
1, 177708, Note_off_c, 0, 56, 57
1, 177712, Note_off_c, 0, 65, 48
1, 177718, Note_off_c, 0, 53, 54
1, 177718, Note_off_c, 0, 60, 48
1, 177719, Note_off_c, 0, 48, 57
1, 177721, Note_off_c, 0, 68, 51
1, 177827, Note_on_c, 0, 68, 53
1, 177828, Note_on_c, 0, 60, 41
1, 177840, Note_on_c, 0, 56, 45
1, 177840, Note_on_c, 0, 48, 49
1, 177840, Note_on_c, 0, 65, 36
1, 177847, Note_on_c, 0, 53, 44
1, 177867, Note_off_c, 0, 65, 58
1, 177876, Note_off_c, 0, 60, 46
1, 177876, Note_off_c, 0, 48, 60
1, 177879, Note_off_c, 0, 53, 60
1, 177888, Note_off_c, 0, 68, 59
1, 177898, Note_off_c, 0, 56, 60
1, 177925, Note_off_c, 0, 72, 64
1, 178188, Note_on_c, 0, 76, 79
1, 178207, Note_on_c, 0, 64, 54
1, 178232, Note_off_c, 0, 64, 57
1, 178509, Note_off_c, 0, 76, 63
1, 178548, Note_on_c, 0, 77, 80
1, 178556, Control_c, 0, 64, 103
1, 178568, Note_on_c, 0, 65, 59
1, 178571, Control_c, 0, 64, 78
1, 178585, Control_c, 0, 64, 57
1, 178600, Control_c, 0, 64, 0
1, 178645, Control_c, 0, 64, 23
1, 178660, Control_c, 0, 64, 59
1, 178662, Note_off_c, 0, 65, 61
1, 178675, Control_c, 0, 64, 72
1, 178690, Control_c, 0, 64, 89
1, 178713, Control_c, 0, 64, 109
1, 178717, Note_off_c, 0, 77, 64
1, 178728, Control_c, 0, 64, 127
1, 178935, Note_on_c, 0, 80, 93
1, 178946, Note_on_c, 0, 68, 68
1, 178949, Control_c, 0, 64, 98
1, 178964, Control_c, 0, 64, 74
1, 178979, Control_c, 0, 64, 43
1, 178994, Control_c, 0, 64, 0
1, 179024, Control_c, 0, 64, 35
1, 179039, Control_c, 0, 64, 64
1, 179053, Control_c, 0, 64, 77
1, 179061, Note_off_c, 0, 68, 60
1, 179068, Control_c, 0, 64, 95
1, 179083, Control_c, 0, 64, 127
1, 179138, Note_off_c, 0, 80, 62
1, 179435, Note_on_c, 0, 85, 92
1, 179438, Control_c, 0, 64, 112
1, 179442, Note_on_c, 0, 73, 77
1, 179461, Control_c, 0, 64, 81
1, 179462, Note_on_c, 0, 29, 53
1, 179469, Note_on_c, 0, 41, 46
1, 179476, Control_c, 0, 64, 62
1, 179492, Control_c, 0, 64, 0
1, 179551, Control_c, 0, 64, 36
1, 179565, Control_c, 0, 64, 63
1, 179580, Control_c, 0, 64, 72
1, 179595, Control_c, 0, 64, 82
1, 179605, Note_off_c, 0, 29, 60
1, 179610, Control_c, 0, 64, 91
1, 179625, Control_c, 0, 64, 97
1, 179634, Note_off_c, 0, 41, 60
1, 179639, Control_c, 0, 64, 104
1, 179654, Control_c, 0, 64, 124
1, 179669, Control_c, 0, 64, 127
1, 179818, Note_off_c, 0, 73, 36
1, 179846, Note_off_c, 0, 85, 54
1, 180220, Note_on_c, 0, 82, 62
1, 180229, Note_on_c, 0, 61, 56
1, 180233, Note_on_c, 0, 77, 52
1, 180240, Note_on_c, 0, 73, 44
1, 180242, Note_on_c, 0, 70, 39
1, 180255, Note_on_c, 0, 65, 34
1, 180270, Note_off_c, 0, 61, 62
1, 180271, Note_off_c, 0, 70, 58
1, 180278, Note_off_c, 0, 77, 56
1, 180285, Note_off_c, 0, 65, 55
1, 180298, Note_off_c, 0, 73, 43
1, 180308, Note_off_c, 0, 82, 50
1, 180570, Note_on_c, 0, 84, 75
1, 180582, Note_on_c, 0, 72, 59
1, 180610, Note_off_c, 0, 72, 64
1, 180631, Note_off_c, 0, 84, 59
1, 180718, Note_on_c, 0, 82, 84
1, 180735, Note_on_c, 0, 70, 67
1, 180782, Note_off_c, 0, 70, 48
1, 180805, Note_off_c, 0, 82, 51
1, 180905, Control_c, 0, 64, 110
1, 180911, Note_on_c, 0, 81, 85
1, 180920, Control_c, 0, 64, 85
1, 180920, Note_on_c, 0, 29, 51
1, 180927, Note_on_c, 0, 41, 51
1, 180928, Note_on_c, 0, 69, 67
1, 180934, Control_c, 0, 64, 66
1, 180949, Control_c, 0, 64, 0
1, 181031, Control_c, 0, 64, 37
1, 181046, Control_c, 0, 64, 61
1, 181059, Note_off_c, 0, 29, 62
1, 181060, Control_c, 0, 64, 71
1, 181075, Control_c, 0, 64, 85
1, 181090, Note_off_c, 0, 41, 60
1, 181091, Control_c, 0, 64, 101
1, 181106, Control_c, 0, 64, 120
1, 181121, Control_c, 0, 64, 127
1, 181213, Note_off_c, 0, 69, 34
1, 181317, Note_off_c, 0, 81, 42
1, 181655, Note_on_c, 0, 77, 67
1, 181660, Note_on_c, 0, 57, 48
1, 181668, Note_on_c, 0, 65, 49
1, 181669, Note_on_c, 0, 73, 57
1, 181676, Note_on_c, 0, 61, 50
1, 181678, Note_on_c, 0, 69, 48
1, 181715, Note_off_c, 0, 57, 60
1, 181716, Note_off_c, 0, 61, 64
1, 181722, Note_off_c, 0, 65, 64
1, 181736, Note_off_c, 0, 69, 42
1, 181758, Note_off_c, 0, 77, 59
1, 181911, Note_off_c, 0, 73, 23
1, 182089, Note_on_c, 0, 80, 70
1, 182100, Note_on_c, 0, 68, 57
1, 182148, Note_off_c, 0, 68, 57
1, 182164, Note_off_c, 0, 80, 62
1, 182241, Note_on_c, 0, 78, 78
1, 182257, Note_on_c, 0, 66, 62
1, 182365, Note_off_c, 0, 78, 57
1, 182368, Note_off_c, 0, 66, 60
1, 182440, Note_on_c, 0, 77, 65
1, 182455, Control_c, 0, 64, 98
1, 182464, Note_on_c, 0, 65, 54
1, 182470, Control_c, 0, 64, 81
1, 182479, Note_on_c, 0, 29, 43
1, 182485, Control_c, 0, 64, 65
1, 182485, Note_on_c, 0, 41, 44
1, 182499, Control_c, 0, 64, 31
1, 182514, Control_c, 0, 64, 0
1, 182604, Control_c, 0, 64, 30
1, 182619, Control_c, 0, 64, 57
1, 182633, Control_c, 0, 64, 67
1, 182644, Note_off_c, 0, 29, 57
1, 182648, Control_c, 0, 64, 74
1, 182663, Control_c, 0, 64, 81
1, 182678, Control_c, 0, 64, 86
1, 182693, Control_c, 0, 64, 93
1, 182708, Control_c, 0, 64, 100
1, 182718, Note_off_c, 0, 41, 52
1, 182723, Control_c, 0, 64, 109
1, 182738, Control_c, 0, 64, 127
1, 182792, Note_off_c, 0, 65, 34
1, 183167, Note_on_c, 0, 53, 41
1, 183173, Note_on_c, 0, 70, 47
1, 183176, Note_on_c, 0, 73, 46
1, 183178, Note_on_c, 0, 61, 44
1, 183185, Note_on_c, 0, 58, 41
1, 183191, Note_on_c, 0, 65, 36
1, 183232, Note_off_c, 0, 70, 57
1, 183250, Note_off_c, 0, 58, 63
1, 183250, Note_off_c, 0, 61, 61
1, 183253, Note_off_c, 0, 53, 61
1, 183255, Note_off_c, 0, 65, 45
1, 183298, Note_off_c, 0, 73, 37
1, 183701, Note_on_c, 0, 73, 63
1, 183706, Note_on_c, 0, 70, 52
1, 183712, Note_on_c, 0, 61, 44
1, 183713, Note_on_c, 0, 53, 40
1, 183718, Note_on_c, 0, 58, 37
1, 183725, Note_on_c, 0, 65, 22
1, 183731, Note_off_c, 0, 70, 60
1, 183749, Note_off_c, 0, 58, 53
1, 183749, Note_off_c, 0, 61, 47
1, 183755, Note_off_c, 0, 53, 47
1, 183760, Note_off_c, 0, 73, 45
1, 183782, Note_off_c, 0, 65, 41
1, 183868, Note_on_c, 0, 73, 58
1, 183869, Note_on_c, 0, 58, 46
1, 183871, Note_on_c, 0, 53, 47
1, 183871, Note_on_c, 0, 61, 48
1, 183875, Note_on_c, 0, 70, 33
1, 183877, Note_on_c, 0, 65, 38
1, 183900, Note_off_c, 0, 53, 55
1, 183903, Note_off_c, 0, 61, 63
1, 183903, Note_off_c, 0, 70, 55
1, 183905, Note_off_c, 0, 58, 64
1, 183909, Note_off_c, 0, 65, 56
1, 183919, Note_off_c, 0, 77, 61
1, 183944, Note_off_c, 0, 73, 62
1, 184208, Note_on_c, 0, 78, 81
1, 184226, Note_on_c, 0, 66, 54
1, 184257, Note_off_c, 0, 66, 55
1, 184620, Note_on_c, 0, 81, 85
1, 184621, Control_c, 0, 64, 109
1, 184634, Note_on_c, 0, 69, 58
1, 184635, Control_c, 0, 64, 94
1, 184640, Note_off_c, 0, 78, 58
1, 184650, Control_c, 0, 64, 77
1, 184665, Control_c, 0, 64, 60
1, 184680, Control_c, 0, 64, 0
1, 184747, Control_c, 0, 64, 20
1, 184761, Control_c, 0, 64, 55
1, 184776, Control_c, 0, 64, 67
1, 184791, Control_c, 0, 64, 75
1, 184806, Control_c, 0, 64, 86
1, 184821, Control_c, 0, 64, 93
1, 184825, Note_off_c, 0, 69, 56
1, 184835, Control_c, 0, 64, 97
1, 184842, Note_off_c, 0, 81, 61
1, 184850, Control_c, 0, 64, 101
1, 184865, Control_c, 0, 64, 107
1, 184879, Control_c, 0, 64, 119
1, 184894, Control_c, 0, 64, 127
1, 185164, Note_on_c, 0, 82, 86
1, 185170, Note_on_c, 0, 70, 69
1, 185200, Note_off_c, 0, 70, 65
1, 185310, Control_c, 0, 64, 116
1, 185319, Note_off_c, 0, 82, 61
1, 185325, Control_c, 0, 64, 87
1, 185326, Note_on_c, 0, 29, 51
1, 185340, Control_c, 0, 64, 67
1, 185348, Note_on_c, 0, 41, 43
1, 185353, Note_on_c, 0, 85, 88
1, 185355, Control_c, 0, 64, 13
1, 185369, Note_on_c, 0, 73, 56
1, 185369, Control_c, 0, 64, 0
1, 185451, Control_c, 0, 64, 45
1, 185465, Note_off_c, 0, 29, 60
1, 185465, Control_c, 0, 64, 68
1, 185480, Control_c, 0, 64, 81
1, 185495, Control_c, 0, 64, 102
1, 185510, Control_c, 0, 64, 127
1, 185521, Note_off_c, 0, 73, 56
1, 185543, Note_off_c, 0, 41, 36
1, 185582, Note_off_c, 0, 85, 60
1, 186050, Note_on_c, 0, 82, 66
1, 186059, Note_on_c, 0, 70, 45
1, 186059, Note_on_c, 0, 73, 50
1, 186061, Note_on_c, 0, 61, 55
1, 186062, Note_on_c, 0, 77, 59
1, 186065, Note_on_c, 0, 65, 50
1, 186088, Note_off_c, 0, 70, 60
1, 186089, Note_off_c, 0, 65, 66
1, 186091, Note_off_c, 0, 61, 64
1, 186100, Note_off_c, 0, 73, 49
1, 186100, Note_off_c, 0, 77, 59
1, 186124, Note_off_c, 0, 82, 58
1, 186405, Note_on_c, 0, 84, 77
1, 186414, Note_on_c, 0, 72, 62
1, 186443, Note_off_c, 0, 72, 63
1, 186473, Note_off_c, 0, 84, 57
1, 186565, Note_on_c, 0, 82, 87
1, 186580, Note_on_c, 0, 70, 70
1, 186616, Note_off_c, 0, 70, 54
1, 186666, Note_off_c, 0, 82, 42
1, 186747, Control_c, 0, 64, 117
1, 186755, Note_on_c, 0, 81, 90
1, 186762, Note_on_c, 0, 29, 49
1, 186762, Control_c, 0, 64, 86
1, 186768, Note_on_c, 0, 69, 68
1, 186769, Note_on_c, 0, 41, 52
1, 186777, Control_c, 0, 64, 66
1, 186792, Control_c, 0, 64, 17
1, 186807, Control_c, 0, 64, 0
1, 186866, Control_c, 0, 64, 38
1, 186881, Control_c, 0, 64, 62
1, 186890, Note_off_c, 0, 29, 61
1, 186896, Control_c, 0, 64, 74
1, 186911, Control_c, 0, 64, 86
1, 186923, Note_off_c, 0, 41, 61
1, 186926, Control_c, 0, 64, 99
1, 186947, Control_c, 0, 64, 111
1, 186962, Control_c, 0, 64, 127
1, 187011, Note_off_c, 0, 69, 56
1, 187135, Note_off_c, 0, 81, 51
1, 187467, Note_on_c, 0, 77, 63
1, 187475, Note_on_c, 0, 57, 52
1, 187479, Note_on_c, 0, 69, 52
1, 187480, Note_on_c, 0, 65, 57
1, 187485, Note_on_c, 0, 61, 58
1, 187488, Note_on_c, 0, 73, 52
1, 187511, Note_off_c, 0, 61, 65
1, 187512, Note_off_c, 0, 65, 67
1, 187530, Note_off_c, 0, 57, 60
1, 187562, Note_off_c, 0, 77, 59
1, 187564, Note_off_c, 0, 69, 42
1, 187721, Note_off_c, 0, 73, 40
1, 187969, Note_on_c, 0, 80, 67
1, 187976, Note_on_c, 0, 68, 62
1, 188036, Note_off_c, 0, 68, 57
1, 188054, Note_off_c, 0, 80, 58
1, 188127, Note_on_c, 0, 78, 78
1, 188139, Note_on_c, 0, 66, 62
1, 188212, Note_off_c, 0, 78, 53
1, 188246, Note_off_c, 0, 66, 58
1, 188314, Note_on_c, 0, 77, 71
1, 188331, Note_on_c, 0, 65, 52
1, 188335, Control_c, 0, 64, 111
1, 188342, Note_on_c, 0, 29, 40
1, 188345, Note_on_c, 0, 41, 37
1, 188350, Control_c, 0, 64, 89
1, 188365, Control_c, 0, 64, 72
1, 188380, Control_c, 0, 64, 54
1, 188394, Control_c, 0, 64, 0
1, 188476, Control_c, 0, 64, 49
1, 188491, Control_c, 0, 64, 67
1, 188502, Note_off_c, 0, 29, 58
1, 188506, Control_c, 0, 64, 79
1, 188521, Control_c, 0, 64, 103
1, 188535, Control_c, 0, 64, 127
1, 188571, Note_off_c, 0, 41, 45
1, 188611, Note_off_c, 0, 65, 51
1, 189032, Note_on_c, 0, 53, 39
1, 189034, Note_on_c, 0, 73, 53
1, 189040, Note_on_c, 0, 61, 43
1, 189044, Note_on_c, 0, 58, 37
1, 189045, Note_on_c, 0, 70, 41
1, 189046, Note_on_c, 0, 65, 42
1, 189085, Note_off_c, 0, 70, 49
1, 189091, Note_off_c, 0, 73, 59
1, 189093, Note_off_c, 0, 61, 59
1, 189096, Note_off_c, 0, 65, 47
1, 189101, Note_off_c, 0, 58, 60
1, 189103, Note_off_c, 0, 53, 62
1, 189577, Note_on_c, 0, 73, 59
1, 189585, Note_on_c, 0, 53, 48
1, 189593, Note_on_c, 0, 65, 41
1, 189595, Note_on_c, 0, 70, 40
1, 189597, Note_on_c, 0, 58, 44
1, 189608, Note_on_c, 0, 61, 30
1, 189619, Note_off_c, 0, 65, 57
1, 189622, Note_off_c, 0, 70, 56
1, 189629, Note_off_c, 0, 58, 52
1, 189635, Note_off_c, 0, 73, 59
1, 189641, Note_off_c, 0, 61, 50
1, 189670, Note_off_c, 0, 53, 45
1, 189728, Note_on_c, 0, 53, 41
1, 189737, Note_on_c, 0, 61, 54
1, 189741, Note_on_c, 0, 70, 39
1, 189743, Note_on_c, 0, 73, 63
1, 189748, Note_on_c, 0, 58, 49
1, 189752, Note_on_c, 0, 65, 47
1, 189779, Note_off_c, 0, 70, 50
1, 189780, Note_off_c, 0, 61, 60
1, 189782, Note_off_c, 0, 65, 56
1, 189785, Note_off_c, 0, 53, 60
1, 189785, Note_off_c, 0, 58, 64
1, 189800, Note_off_c, 0, 73, 57
1, 189831, Note_off_c, 0, 77, 58
1, 190033, Control_c, 0, 67, 124
1, 190047, Control_c, 0, 67, 108
1, 190062, Control_c, 0, 67, 90
1, 190077, Control_c, 0, 67, 70
1, 190092, Control_c, 0, 67, 49
1, 190107, Control_c, 0, 67, 29
1, 190108, Note_on_c, 0, 81, 82
1, 190122, Control_c, 0, 67, 9
1, 190124, Note_on_c, 0, 69, 52
1, 190136, Control_c, 0, 67, 0
1, 190150, Note_off_c, 0, 69, 57
1, 190186, Note_off_c, 0, 81, 60
1, 190464, Note_on_c, 0, 82, 83
1, 190477, Control_c, 0, 64, 91
1, 190478, Note_on_c, 0, 70, 59
1, 190491, Control_c, 0, 64, 68
1, 190506, Control_c, 0, 64, 26
1, 190521, Control_c, 0, 64, 0
1, 190551, Control_c, 0, 64, 28
1, 190566, Control_c, 0, 64, 62
1, 190581, Control_c, 0, 64, 76
1, 190596, Control_c, 0, 64, 101
1, 190604, Note_off_c, 0, 70, 63
1, 190610, Control_c, 0, 64, 127
1, 190748, Note_off_c, 0, 82, 28
1, 190819, Note_on_c, 0, 84, 95
1, 190826, Control_c, 0, 64, 105
1, 190829, Note_on_c, 0, 72, 76
1, 190841, Control_c, 0, 64, 76
1, 190856, Control_c, 0, 64, 50
1, 190870, Control_c, 0, 64, 0
1, 190900, Control_c, 0, 64, 41
1, 190914, Control_c, 0, 64, 68
1, 190929, Control_c, 0, 64, 84
1, 190944, Note_off_c, 0, 72, 61
1, 190944, Control_c, 0, 64, 127
1, 190965, Note_off_c, 0, 84, 67
1, 191251, Note_on_c, 0, 85, 97
1, 191256, Control_c, 0, 64, 101
1, 191257, Note_on_c, 0, 73, 86
1, 191266, Note_on_c, 0, 37, 59
1, 191269, Note_on_c, 0, 49, 56
1, 191270, Control_c, 0, 64, 77
1, 191285, Control_c, 0, 64, 51
1, 191300, Control_c, 0, 64, 0
1, 191359, Control_c, 0, 64, 41
1, 191374, Control_c, 0, 64, 64
1, 191388, Control_c, 0, 64, 74
1, 191403, Control_c, 0, 64, 87
1, 191411, Note_off_c, 0, 37, 63
1, 191418, Control_c, 0, 64, 102
1, 191433, Control_c, 0, 64, 124
1, 191454, Note_off_c, 0, 49, 60
1, 191455, Control_c, 0, 64, 127
1, 192044, Note_on_c, 0, 81, 64
1, 192046, Note_on_c, 0, 57, 63
1, 192048, Note_on_c, 0, 69, 66
1, 192050, Note_on_c, 0, 78, 61
1, 192053, Note_on_c, 0, 66, 63
1, 192061, Note_on_c, 0, 61, 53
1, 192083, Note_off_c, 0, 78, 61
1, 192086, Note_off_c, 0, 66, 63
1, 192093, Note_off_c, 0, 61, 62
1, 192098, Note_off_c, 0, 69, 64
1, 192101, Note_off_c, 0, 81, 61
1, 192108, Note_off_c, 0, 57, 60
1, 192156, Note_off_c, 0, 73, 58
1, 192231, Note_off_c, 0, 85, 52
1, 192808, Note_on_c, 0, 37, 56
1, 192812, Control_c, 0, 64, 98
1, 192827, Control_c, 0, 64, 73
1, 192838, Note_on_c, 0, 49, 50
1, 192841, Control_c, 0, 64, 45
1, 192849, Note_on_c, 0, 86, 99
1, 192855, Note_on_c, 0, 74, 91
1, 192856, Control_c, 0, 64, 0
1, 192900, Control_c, 0, 64, 57
1, 192915, Control_c, 0, 64, 73
1, 192930, Control_c, 0, 64, 95
1, 192953, Control_c, 0, 64, 127
1, 192979, Note_off_c, 0, 37, 60
1, 193026, Note_off_c, 0, 49, 50
1, 193540, Note_off_c, 0, 74, 55
1, 193637, Note_on_c, 0, 56, 59
1, 193642, Note_on_c, 0, 65, 60
1, 193644, Note_on_c, 0, 80, 65
1, 193648, Note_on_c, 0, 59, 56
1, 193648, Note_on_c, 0, 77, 59
1, 193653, Note_on_c, 0, 68, 52
1, 193697, Note_off_c, 0, 65, 63
1, 193708, Note_off_c, 0, 68, 58
1, 193709, Note_off_c, 0, 59, 59
1, 193717, Note_off_c, 0, 77, 59
1, 193720, Note_off_c, 0, 86, 62
1, 193741, Note_off_c, 0, 56, 59
1, 193752, Note_off_c, 0, 80, 59
1, 194203, Note_on_c, 0, 85, 72
1, 194217, Note_on_c, 0, 73, 48
1, 194426, Note_off_c, 0, 85, 53
1, 194450, Note_off_c, 0, 73, 41
1, 194539, Control_c, 0, 67, 8
1, 194554, Control_c, 0, 67, 10
1, 194569, Control_c, 0, 67, 12
1, 194584, Control_c, 0, 67, 17
1, 194599, Control_c, 0, 67, 24
1, 194613, Control_c, 0, 67, 32
1, 194618, Note_on_c, 0, 85, 64
1, 194625, Note_on_c, 0, 73, 52
1, 194628, Control_c, 0, 67, 43
1, 194643, Control_c, 0, 67, 54
1, 194656, Note_on_c, 0, 37, 33
1, 194658, Control_c, 0, 67, 67
1, 194673, Control_c, 0, 64, 101
1, 194673, Control_c, 0, 67, 83
1, 194677, Note_on_c, 0, 49, 22
1, 194688, Control_c, 0, 64, 85
1, 194688, Control_c, 0, 67, 96
1, 194703, Control_c, 0, 64, 71
1, 194703, Control_c, 0, 67, 109
1, 194718, Control_c, 0, 64, 53
1, 194718, Control_c, 0, 67, 121
1, 194733, Control_c, 0, 64, 0
1, 194733, Control_c, 0, 67, 127
1, 194777, Control_c, 0, 64, 8
1, 194792, Control_c, 0, 64, 54
1, 194807, Control_c, 0, 64, 68
1, 194822, Control_c, 0, 64, 86
1, 194836, Control_c, 0, 64, 124
1, 194851, Control_c, 0, 64, 127
1, 194855, Note_off_c, 0, 37, 40
1, 194882, Note_off_c, 0, 49, 26
1, 195005, Note_off_c, 0, 85, 51
1, 195059, Note_off_c, 0, 73, 35
1, 195466, Note_on_c, 0, 78, 43
1, 195471, Note_on_c, 0, 57, 34
1, 195471, Note_on_c, 0, 81, 48
1, 195478, Note_on_c, 0, 69, 29
1, 195482, Note_on_c, 0, 61, 30
1, 195490, Note_on_c, 0, 66, 23
1, 195511, Note_off_c, 0, 78, 51
1, 195512, Note_off_c, 0, 81, 61
1, 195514, Note_off_c, 0, 57, 46
1, 195529, Note_off_c, 0, 66, 51
1, 195529, Note_off_c, 0, 69, 53
1, 195535, Note_off_c, 0, 61, 43
1, 195836, Note_on_c, 0, 89, 67
1, 195848, Note_on_c, 0, 77, 40
1, 195896, Note_off_c, 0, 77, 42
1, 195959, Note_off_c, 0, 89, 64
1, 196197, Note_on_c, 0, 90, 78
1, 196215, Note_on_c, 0, 78, 53
1, 196215, Control_c, 0, 64, 99
1, 196229, Control_c, 0, 64, 75
1, 196244, Control_c, 0, 64, 47
1, 196260, Control_c, 0, 64, 0
1, 196289, Control_c, 0, 64, 37
1, 196304, Control_c, 0, 64, 62
1, 196319, Control_c, 0, 64, 75
1, 196334, Control_c, 0, 64, 94
1, 196349, Control_c, 0, 64, 127
1, 196394, Note_off_c, 0, 78, 45
1, 196408, Control_c, 0, 67, 102
1, 196423, Control_c, 0, 67, 69
1, 196433, Note_off_c, 0, 90, 47
1, 196438, Control_c, 0, 67, 38
1, 196452, Control_c, 0, 67, 11
1, 196467, Control_c, 0, 67, 0
1, 196553, Note_on_c, 0, 91, 88
1, 196556, Control_c, 0, 64, 111
1, 196565, Note_on_c, 0, 79, 67
1, 196571, Control_c, 0, 64, 82
1, 196586, Control_c, 0, 64, 63
1, 196601, Control_c, 0, 64, 11
1, 196615, Control_c, 0, 64, 0
1, 196630, Control_c, 0, 64, 40
1, 196645, Control_c, 0, 64, 64
1, 196651, Note_off_c, 0, 79, 60
1, 196659, Control_c, 0, 64, 78
1, 196674, Control_c, 0, 64, 108
1, 196697, Control_c, 0, 64, 127
1, 196706, Note_off_c, 0, 91, 58
1, 196889, Control_c, 0, 64, 98
1, 196904, Control_c, 0, 64, 70
1, 196911, Note_on_c, 0, 92, 93
1, 196919, Control_c, 0, 64, 0
1, 196922, Note_on_c, 0, 80, 77
1, 196963, Control_c, 0, 64, 27
1, 196978, Control_c, 0, 64, 57
1, 196993, Control_c, 0, 64, 69
1, 197007, Control_c, 0, 64, 81
1, 197022, Control_c, 0, 64, 99
1, 197037, Control_c, 0, 64, 108
1, 197053, Control_c, 0, 64, 113
1, 197067, Note_off_c, 0, 80, 55
1, 197068, Control_c, 0, 64, 115
1, 197082, Control_c, 0, 64, 119
1, 197097, Control_c, 0, 64, 127
1, 197173, Note_off_c, 0, 92, 62
1, 197294, Note_on_c, 0, 93, 98
1, 197304, Note_on_c, 0, 81, 73
1, 197356, Note_off_c, 0, 81, 57
1, 197396, Note_off_c, 0, 93, 60
1, 197812, Note_on_c, 0, 85, 79
1, 197824, Note_on_c, 0, 73, 67
1, 197830, Control_c, 0, 64, 122
1, 197841, Note_on_c, 0, 37, 42
1, 197845, Control_c, 0, 64, 90
1, 197848, Note_on_c, 0, 49, 38
1, 197861, Control_c, 0, 64, 71
1, 197876, Control_c, 0, 64, 41
1, 197891, Control_c, 0, 64, 0
1, 197950, Control_c, 0, 64, 37
1, 197965, Control_c, 0, 64, 65
1, 197979, Control_c, 0, 64, 77
1, 197994, Control_c, 0, 64, 96
1, 198009, Control_c, 0, 64, 127
1, 198051, Note_off_c, 0, 37, 40
1, 198086, Note_off_c, 0, 49, 38
1, 198604, Note_on_c, 0, 78, 61
1, 198605, Note_on_c, 0, 57, 57
1, 198605, Note_on_c, 0, 81, 62
1, 198610, Note_on_c, 0, 69, 51
1, 198612, Note_on_c, 0, 66, 52
1, 198623, Note_on_c, 0, 61, 48
1, 198634, Note_off_c, 0, 78, 63
1, 198641, Note_off_c, 0, 69, 53
1, 198642, Note_off_c, 0, 57, 61
1, 198644, Note_off_c, 0, 66, 58
1, 198647, Note_off_c, 0, 81, 56
1, 198651, Note_off_c, 0, 61, 58
1, 198674, Note_off_c, 0, 73, 53
1, 198698, Note_off_c, 0, 85, 58
1, 199373, Control_c, 0, 64, 109
1, 199382, Note_on_c, 0, 86, 101
1, 199384, Note_on_c, 0, 37, 56
1, 199388, Control_c, 0, 64, 75
1, 199390, Note_on_c, 0, 74, 84
1, 199391, Note_on_c, 0, 49, 56
1, 199402, Control_c, 0, 64, 39
1, 199417, Control_c, 0, 64, 0
1, 199492, Control_c, 0, 64, 57
1, 199507, Control_c, 0, 64, 70
1, 199522, Control_c, 0, 64, 82
1, 199537, Control_c, 0, 64, 106
1, 199551, Control_c, 0, 64, 127
1, 199559, Note_off_c, 0, 37, 63
1, 199600, Note_off_c, 0, 49, 60
1, 200099, Note_off_c, 0, 74, 57
1, 200215, Note_on_c, 0, 56, 61
1, 200218, Note_on_c, 0, 68, 64
1, 200219, Note_on_c, 0, 80, 67
1, 200223, Note_on_c, 0, 77, 65
1, 200228, Note_on_c, 0, 65, 58
1, 200242, Note_on_c, 0, 59, 21
1, 200264, Note_off_c, 0, 56, 61
1, 200266, Note_off_c, 0, 65, 67
1, 200271, Note_off_c, 0, 86, 60
1, 200275, Note_off_c, 0, 68, 64
1, 200280, Note_off_c, 0, 77, 59
1, 200281, Note_off_c, 0, 59, 42
1, 200307, Note_off_c, 0, 80, 60
1, 200698, Note_on_c, 0, 85, 80
1, 200714, Note_on_c, 0, 73, 54
1, 200811, Control_c, 0, 67, 8
1, 200826, Control_c, 0, 67, 17
1, 200841, Control_c, 0, 67, 37
1, 200856, Control_c, 0, 67, 71
1, 200871, Control_c, 0, 67, 101
1, 200886, Control_c, 0, 67, 127
1, 200900, Control_c, 0, 67, 127
1, 200962, Note_off_c, 0, 85, 54
1, 200989, Note_off_c, 0, 73, 40
1, 201163, Note_on_c, 0, 85, 68
1, 201167, Note_on_c, 0, 73, 46
1, 201191, Control_c, 0, 64, 122
1, 201195, Note_on_c, 0, 37, 41
1, 201205, Control_c, 0, 64, 88
1, 201216, Note_on_c, 0, 49, 37
1, 201220, Control_c, 0, 64, 71
1, 201235, Control_c, 0, 64, 54
1, 201236, Note_off_c, 0, 73, 0
1, 201236, Note_on_c, 0, 73, 10
1, 201250, Control_c, 0, 64, 0
1, 201324, Control_c, 0, 64, 47
1, 201339, Control_c, 0, 64, 65
1, 201354, Control_c, 0, 64, 75
1, 201369, Control_c, 0, 64, 89
1, 201383, Control_c, 0, 64, 106
1, 201398, Control_c, 0, 64, 127
1, 201406, Note_off_c, 0, 37, 40
1, 201448, Note_off_c, 0, 49, 40
1, 202095, Note_on_c, 0, 57, 40
1, 202097, Note_on_c, 0, 81, 45
1, 202102, Note_on_c, 0, 61, 41
1, 202103, Note_on_c, 0, 78, 42
1, 202107, Note_on_c, 0, 69, 29
1, 202111, Note_on_c, 0, 66, 33
1, 202168, Note_off_c, 0, 78, 51
1, 202173, Note_off_c, 0, 81, 58
1, 202175, Note_off_c, 0, 61, 51
1, 202176, Note_off_c, 0, 66, 39
1, 202213, Note_off_c, 0, 69, 46
1, 202216, Note_off_c, 0, 57, 41
1, 202223, Note_off_c, 0, 73, 44
1, 202232, Note_off_c, 0, 85, 63
1, 202527, Note_on_c, 0, 89, 66
1, 202541, Note_on_c, 0, 77, 44
1, 202620, Control_c, 0, 67, 125
1, 202629, Note_off_c, 0, 77, 49
1, 202635, Control_c, 0, 67, 107
1, 202650, Control_c, 0, 67, 87
1, 202673, Control_c, 0, 67, 66
1, 202688, Control_c, 0, 67, 43
1, 202702, Control_c, 0, 67, 26
1, 202717, Control_c, 0, 67, 13
1, 202732, Control_c, 0, 67, 0
1, 202749, Note_off_c, 0, 89, 56
1, 202915, Note_on_c, 0, 90, 77
1, 202931, Note_on_c, 0, 78, 55
1, 202939, Control_c, 0, 64, 113
1, 202954, Control_c, 0, 64, 84
1, 202969, Control_c, 0, 64, 65
1, 202984, Control_c, 0, 64, 45
1, 202999, Control_c, 0, 64, 44
1, 203014, Control_c, 0, 64, 60
1, 203028, Control_c, 0, 64, 67
1, 203043, Control_c, 0, 64, 74
1, 203058, Control_c, 0, 64, 86
1, 203073, Control_c, 0, 64, 97
1, 203088, Control_c, 0, 64, 103
1, 203102, Control_c, 0, 64, 104
1, 203121, Note_off_c, 0, 78, 38
1, 203132, Control_c, 0, 64, 104
1, 203147, Control_c, 0, 64, 106
1, 203162, Control_c, 0, 64, 112
1, 203176, Control_c, 0, 64, 127
1, 203232, Note_off_c, 0, 90, 25
1, 203265, Control_c, 0, 64, 112
1, 203279, Note_on_c, 0, 91, 87
1, 203280, Control_c, 0, 64, 87
1, 203292, Note_on_c, 0, 79, 59
1, 203294, Control_c, 0, 64, 66
1, 203309, Control_c, 0, 64, 48
1, 203324, Control_c, 0, 64, 42
1, 203339, Control_c, 0, 64, 57
1, 203354, Control_c, 0, 64, 66
1, 203365, Note_off_c, 0, 79, 62
1, 203369, Control_c, 0, 64, 74
1, 203384, Control_c, 0, 64, 87
1, 203399, Control_c, 0, 64, 105
1, 203413, Note_off_c, 0, 91, 60
1, 203413, Control_c, 0, 64, 112
1, 203452, Control_c, 0, 64, 113
1, 203467, Control_c, 0, 64, 119
1, 203481, Control_c, 0, 64, 127
1, 203629, Control_c, 0, 64, 97
1, 203635, Note_on_c, 0, 92, 98
1, 203643, Note_on_c, 0, 80, 77
1, 203643, Control_c, 0, 64, 73
1, 203658, Control_c, 0, 64, 49
1, 203673, Control_c, 0, 64, 0
1, 203703, Control_c, 0, 64, 48
1, 203717, Control_c, 0, 64, 64
1, 203732, Control_c, 0, 64, 75
1, 203747, Control_c, 0, 64, 89
1, 203753, Note_off_c, 0, 80, 47
1, 203762, Control_c, 0, 64, 100
1, 203777, Control_c, 0, 64, 103
1, 203807, Control_c, 0, 64, 103
1, 203822, Control_c, 0, 64, 105
1, 203837, Control_c, 0, 64, 109
1, 203851, Control_c, 0, 64, 118
1, 203866, Control_c, 0, 64, 127
1, 203900, Note_off_c, 0, 92, 50
1, 204000, Control_c, 0, 64, 96
1, 204014, Note_on_c, 0, 93, 107
1, 204015, Control_c, 0, 64, 74
1, 204023, Note_on_c, 0, 81, 87
1, 204030, Control_c, 0, 64, 55
1, 204044, Control_c, 0, 64, 0
1, 204074, Control_c, 0, 64, 52
1, 204089, Control_c, 0, 64, 65
1, 204104, Control_c, 0, 64, 74
1, 204118, Note_off_c, 0, 81, 55
1, 204118, Control_c, 0, 64, 87
1, 204133, Control_c, 0, 64, 100
1, 204148, Control_c, 0, 64, 110
1, 204150, Note_off_c, 0, 93, 59
1, 204163, Control_c, 0, 64, 122
1, 204185, Control_c, 0, 64, 127
1, 204549, Note_on_c, 0, 93, 107
1, 204554, Note_on_c, 0, 81, 100
1, 204556, Control_c, 0, 64, 98
1, 204559, Note_on_c, 0, 36, 69
1, 204561, Note_on_c, 0, 48, 70
1, 204571, Control_c, 0, 64, 75
1, 204586, Control_c, 0, 64, 56
1, 204601, Control_c, 0, 64, 0
1, 204645, Control_c, 0, 64, 28
1, 204660, Control_c, 0, 64, 57
1, 204673, Control_c, 0, 64, 69
1, 204688, Control_c, 0, 64, 81
1, 204703, Control_c, 0, 64, 96
1, 204718, Control_c, 0, 64, 108
1, 204733, Control_c, 0, 64, 127
1, 204772, Note_off_c, 0, 36, 60
1, 204804, Note_off_c, 0, 48, 59
1, 205372, Note_on_c, 0, 69, 79
1, 205374, Note_on_c, 0, 57, 71
1, 205383, Note_on_c, 0, 66, 67
1, 205387, Note_on_c, 0, 63, 67
1, 205412, Note_off_c, 0, 57, 60
1, 205415, Note_off_c, 0, 63, 62
1, 205421, Note_off_c, 0, 69, 63
1, 205422, Note_off_c, 0, 66, 51
1, 205788, Note_off_c, 0, 81, 48
1, 205822, Note_off_c, 0, 93, 29
1, 206186, Control_c, 0, 64, 88
1, 206201, Control_c, 0, 64, 64
1, 206210, Note_on_c, 0, 93, 116
1, 206212, Note_on_c, 0, 35, 86
1, 206212, Note_on_c, 0, 47, 82
1, 206213, Note_on_c, 0, 81, 101
1, 206215, Control_c, 0, 64, 0
1, 206230, Note_on_c, 0, 45, 69
1, 206253, Note_off_c, 0, 45, 38
1, 206260, Control_c, 0, 64, 30
1, 206275, Control_c, 0, 64, 60
1, 206290, Control_c, 0, 64, 73
1, 206305, Control_c, 0, 64, 90
1, 206319, Control_c, 0, 64, 127
1, 206382, Note_off_c, 0, 35, 62
1, 206438, Note_off_c, 0, 47, 61
1, 207021, Note_on_c, 0, 69, 98
1, 207023, Note_on_c, 0, 57, 77
1, 207030, Note_on_c, 0, 63, 77
1, 207032, Note_on_c, 0, 66, 79
1, 207071, Note_off_c, 0, 57, 63
1, 207098, Note_off_c, 0, 69, 65
1, 207098, Note_off_c, 0, 63, 64
1, 207101, Note_off_c, 0, 66, 68
1, 207191, Note_off_c, 0, 81, 54
1, 207226, Note_off_c, 0, 93, 58
1, 207463, Note_on_c, 0, 93, 109
1, 207467, Note_on_c, 0, 81, 105
1, 207670, Note_off_c, 0, 81, 42
1, 207675, Note_off_c, 0, 93, 46
1, 207814, Note_on_c, 0, 34, 77
1, 207831, Note_on_c, 0, 46, 87
1, 207831, Control_c, 0, 64, 115
1, 207846, Note_on_c, 0, 93, 104
1, 207846, Control_c, 0, 64, 71
1, 207849, Note_on_c, 0, 81, 98
1, 207861, Control_c, 0, 64, 0
1, 207928, Control_c, 0, 64, 60
1, 207943, Control_c, 0, 64, 81
1, 207958, Control_c, 0, 64, 127
1, 207980, Note_off_c, 0, 34, 64
1, 207998, Note_off_c, 0, 81, 59
1, 208029, Note_off_c, 0, 46, 60
1, 208032, Note_off_c, 0, 93, 61
1, 208229, Note_on_c, 0, 94, 101
1, 208231, Note_on_c, 0, 82, 85
1, 208277, Note_off_c, 0, 82, 64
1, 208374, Note_off_c, 0, 94, 65
1, 208579, Note_on_c, 0, 70, 88
1, 208581, Note_on_c, 0, 58, 71
1, 208586, Note_on_c, 0, 66, 84
1, 208590, Note_on_c, 0, 63, 76
1, 208609, Note_off_c, 0, 58, 66
1, 208612, Note_off_c, 0, 63, 67
1, 208617, Note_off_c, 0, 70, 66
1, 208625, Note_off_c, 0, 66, 62
1, 208997, Note_on_c, 0, 95, 110
1, 209003, Note_on_c, 0, 83, 94
1, 209427, Note_on_c, 0, 45, 95
1, 209429, Note_on_c, 0, 33, 85
1, 209456, Control_c, 0, 64, 84
1, 209470, Control_c, 0, 64, 50
1, 209485, Control_c, 0, 64, 0
1, 209544, Control_c, 0, 64, 50
1, 209559, Control_c, 0, 64, 79
1, 209574, Control_c, 0, 64, 127
1, 209602, Note_off_c, 0, 83, 56
1, 209605, Note_off_c, 0, 95, 59
1, 209655, Note_off_c, 0, 33, 63
1, 209736, Note_off_c, 0, 45, 60
1, 209882, Note_on_c, 0, 96, 98
1, 209891, Note_on_c, 0, 84, 88
1, 210026, Note_off_c, 0, 84, 57
1, 210076, Note_off_c, 0, 96, 60
1, 210360, Note_on_c, 0, 60, 61
1, 210371, Note_on_c, 0, 99, 108
1, 210373, Note_on_c, 0, 63, 61
1, 210376, Note_on_c, 0, 72, 71
1, 210376, Note_on_c, 0, 87, 88
1, 210381, Note_on_c, 0, 66, 65
1, 210399, Note_off_c, 0, 60, 60
1, 210410, Note_off_c, 0, 72, 62
1, 210413, Note_off_c, 0, 63, 61
1, 210416, Note_off_c, 0, 66, 65
1, 210454, Note_off_c, 0, 87, 61
1, 210497, Note_off_c, 0, 99, 62
1, 211011, Note_on_c, 0, 97, 92
1, 211025, Note_on_c, 0, 85, 62
1, 211057, Note_off_c, 0, 85, 61
1, 211121, Note_off_c, 0, 97, 60
1, 211473, Control_c, 0, 67, 11
1, 211488, Control_c, 0, 67, 19
1, 211503, Control_c, 0, 67, 29
1, 211518, Control_c, 0, 67, 39
1, 211532, Control_c, 0, 67, 51
1, 211547, Control_c, 0, 67, 63
1, 211562, Control_c, 0, 67, 73
1, 211577, Control_c, 0, 67, 86
1, 211592, Control_c, 0, 67, 99
1, 211606, Control_c, 0, 67, 113
1, 211621, Control_c, 0, 67, 127
1, 211799, Note_on_c, 0, 37, 36
1, 211807, Control_c, 0, 64, 107
1, 211810, Note_on_c, 0, 49, 35
1, 211814, Note_on_c, 0, 95, 67
1, 211821, Control_c, 0, 64, 83
1, 211826, Note_on_c, 0, 83, 44
1, 211836, Control_c, 0, 64, 65
1, 211851, Control_c, 0, 64, 0
1, 211954, Control_c, 0, 64, 39
1, 211969, Control_c, 0, 64, 58
1, 211984, Control_c, 0, 64, 69
1, 211998, Control_c, 0, 64, 77
1, 212013, Control_c, 0, 64, 88
1, 212028, Control_c, 0, 64, 101
1, 212043, Control_c, 0, 64, 127
1, 212049, Note_off_c, 0, 95, 61
1, 212066, Note_off_c, 0, 37, 41
1, 212124, Note_off_c, 0, 49, 38
1, 212150, Note_off_c, 0, 83, 40
1, 212480, Note_on_c, 0, 93, 69
1, 212499, Note_on_c, 0, 81, 44
1, 212914, Note_on_c, 0, 64, 38
1, 212924, Note_on_c, 0, 73, 27
1, 212927, Note_on_c, 0, 69, 31
1, 212928, Note_on_c, 0, 61, 39
1, 212975, Note_off_c, 0, 69, 49
1, 212998, Note_off_c, 0, 61, 43
1, 213006, Note_off_c, 0, 64, 52
1, 213032, Note_off_c, 0, 73, 41
1, 213042, Note_off_c, 0, 81, 46
1, 213081, Note_off_c, 0, 93, 52
1, 213327, Note_on_c, 0, 92, 70
1, 213350, Note_on_c, 0, 80, 46
1, 213748, Control_c, 0, 64, 109
1, 213757, Note_on_c, 0, 50, 38
1, 213763, Control_c, 0, 64, 83
1, 213769, Note_on_c, 0, 38, 34
1, 213778, Control_c, 0, 64, 63
1, 213793, Control_c, 0, 64, 0
1, 213853, Control_c, 0, 64, 43
1, 213867, Control_c, 0, 64, 62
1, 213882, Control_c, 0, 64, 74
1, 213905, Control_c, 0, 64, 86
1, 213920, Control_c, 0, 64, 98
1, 213934, Control_c, 0, 64, 109
1, 213949, Control_c, 0, 64, 127
1, 213961, Note_off_c, 0, 38, 39
1, 214007, Note_off_c, 0, 50, 37
1, 214011, Note_off_c, 0, 92, 55
1, 214013, Note_off_c, 0, 80, 54
1, 214243, Note_on_c, 0, 90, 63
1, 214253, Note_on_c, 0, 78, 48
1, 214346, Note_off_c, 0, 90, 62
1, 214355, Note_off_c, 0, 78, 37
1, 214755, Note_on_c, 0, 56, 37
1, 214774, Note_on_c, 0, 59, 32
1, 214790, Note_on_c, 0, 64, 32
1, 214799, Note_on_c, 0, 68, 29
1, 214808, Note_on_c, 0, 89, 67
1, 214815, Note_on_c, 0, 77, 44
1, 214898, Note_off_c, 0, 64, 35
1, 214901, Note_off_c, 0, 59, 39
1, 214910, Note_off_c, 0, 56, 36
1, 214920, Note_off_c, 0, 68, 44
1, 214963, Note_off_c, 0, 89, 53
1, 215073, Note_off_c, 0, 77, 29
1, 215472, Note_on_c, 0, 88, 67
1, 215483, Note_on_c, 0, 76, 50
1, 215682, Note_off_c, 0, 76, 42
1, 215688, Note_off_c, 0, 88, 55
1, 215935, Control_c, 0, 64, 124
1, 215939, Note_on_c, 0, 39, 34
1, 215950, Control_c, 0, 64, 104
1, 215958, Note_on_c, 0, 51, 29
1, 215965, Control_c, 0, 64, 89
1, 215969, Note_on_c, 0, 88, 60
1, 215979, Control_c, 0, 64, 74
1, 215983, Note_on_c, 0, 76, 40
1, 215994, Control_c, 0, 64, 53
1, 216009, Control_c, 0, 64, 0
1, 216068, Control_c, 0, 64, 33
1, 216083, Control_c, 0, 64, 62
1, 216097, Control_c, 0, 64, 73
1, 216112, Control_c, 0, 64, 85
1, 216127, Control_c, 0, 64, 101
1, 216142, Control_c, 0, 64, 113
1, 216164, Control_c, 0, 64, 127
1, 216195, Note_off_c, 0, 76, 55
1, 216220, Note_off_c, 0, 39, 39
1, 216272, Note_off_c, 0, 88, 48
1, 216282, Note_off_c, 0, 51, 38
1, 216473, Note_on_c, 0, 87, 62
1, 216505, Note_on_c, 0, 75, 30
1, 216620, Note_off_c, 0, 75, 31
1, 216623, Note_off_c, 0, 87, 51
1, 216946, Note_on_c, 0, 63, 34
1, 216953, Note_on_c, 0, 59, 25
1, 217027, Note_off_c, 0, 59, 41
1, 217032, Note_off_c, 0, 63, 31
1, 217461, Note_on_c, 0, 80, 59
1, 217501, Note_on_c, 0, 68, 13
1, 217590, Note_off_c, 0, 68, 34
1, 218361, Note_on_c, 0, 71, 35
1, 218750, Note_on_c, 0, 83, 50
1, 218752, Control_c, 0, 64, 115
1, 218767, Control_c, 0, 64, 106
1, 218782, Control_c, 0, 64, 98
1, 218796, Control_c, 0, 64, 90
1, 218811, Control_c, 0, 64, 82
1, 218826, Control_c, 0, 64, 76
1, 218839, Note_off_c, 0, 80, 38
1, 218841, Control_c, 0, 64, 71
1, 218855, Control_c, 0, 64, 64
1, 218870, Control_c, 0, 64, 57
1, 218885, Control_c, 0, 64, 52
1, 218900, Control_c, 0, 64, 50
1, 218944, Control_c, 0, 64, 49
1, 218959, Control_c, 0, 64, 47
1, 218974, Control_c, 0, 64, 46
1, 219004, Control_c, 0, 64, 47
1, 219018, Control_c, 0, 64, 47
1, 219033, Control_c, 0, 64, 48
1, 219048, Control_c, 0, 64, 48
1, 219063, Control_c, 0, 64, 49
1, 219078, Control_c, 0, 64, 50
1, 219093, Control_c, 0, 64, 50
1, 219108, Control_c, 0, 64, 51
1, 219122, Control_c, 0, 64, 53
1, 219137, Control_c, 0, 64, 55
1, 219159, Control_c, 0, 64, 58
1, 219173, Control_c, 0, 64, 60
1, 219188, Control_c, 0, 64, 61
1, 219203, Control_c, 0, 64, 63
1, 219218, Control_c, 0, 64, 65
1, 219233, Control_c, 0, 64, 66
1, 219248, Control_c, 0, 64, 68
1, 219263, Control_c, 0, 64, 70
1, 219278, Control_c, 0, 64, 74
1, 219293, Control_c, 0, 64, 78
1, 219308, Control_c, 0, 64, 83
1, 219322, Control_c, 0, 64, 87
1, 219337, Control_c, 0, 64, 90
1, 219352, Control_c, 0, 64, 92
1, 219367, Control_c, 0, 64, 94
1, 219381, Control_c, 0, 64, 97
1, 219396, Control_c, 0, 64, 101
1, 219411, Control_c, 0, 64, 105
1, 219427, Control_c, 0, 64, 110
1, 219442, Control_c, 0, 64, 115
1, 219457, Control_c, 0, 64, 121
1, 219471, Control_c, 0, 64, 127
1, 219555, Note_off_c, 0, 71, 28
1, 219985, Note_on_c, 0, 51, 28
1, 220209, Note_off_c, 0, 51, 31
1, 220217, Note_on_c, 0, 61, 25
1, 220336, Note_off_c, 0, 61, 41
1, 220723, Note_on_c, 0, 67, 14
1, 220885, Note_off_c, 0, 67, 40
1, 221567, Note_off_c, 0, 83, 39
1, 222291, Note_on_c, 0, 82, 32
1, 222292, Note_on_c, 0, 70, 26
1, 222422, Note_off_c, 0, 82, 39
1, 222435, Note_off_c, 0, 70, 42
1, 223200, Control_c, 0, 64, 122
1, 223214, Control_c, 0, 64, 120
1, 223229, Control_c, 0, 64, 118
1, 223244, Control_c, 0, 64, 116
1, 223259, Control_c, 0, 64, 115
1, 223274, Control_c, 0, 64, 114
1, 223288, Control_c, 0, 64, 112
1, 223303, Control_c, 0, 64, 111
1, 223318, Control_c, 0, 64, 109
1, 223333, Control_c, 0, 64, 107
1, 223347, Control_c, 0, 64, 105
1, 223362, Control_c, 0, 64, 105
1, 223377, Control_c, 0, 64, 104
1, 223393, Control_c, 0, 64, 104
1, 223424, Control_c, 0, 64, 103
1, 223438, Control_c, 0, 64, 103
1, 223468, Control_c, 0, 64, 102
1, 223483, Control_c, 0, 64, 102
1, 223498, Control_c, 0, 64, 101
1, 223512, Control_c, 0, 64, 101
1, 223527, Control_c, 0, 64, 100
1, 223557, Control_c, 0, 64, 100
1, 223586, Control_c, 0, 64, 99
1, 223631, Control_c, 0, 64, 99
1, 223668, Control_c, 0, 64, 98
1, 223683, Control_c, 0, 64, 98
1, 223713, Control_c, 0, 64, 97
1, 223727, Control_c, 0, 64, 97
1, 223742, Control_c, 0, 64, 96
1, 223757, Control_c, 0, 64, 96
1, 223771, Control_c, 0, 64, 95
1, 223801, Control_c, 0, 64, 95
1, 223816, Control_c, 0, 64, 94
1, 223831, Control_c, 0, 64, 94
1, 223845, Control_c, 0, 64, 93
1, 223860, Control_c, 0, 64, 92
1, 223875, Control_c, 0, 64, 91
1, 223890, Control_c, 0, 64, 90
1, 223905, Control_c, 0, 64, 88
1, 223919, Control_c, 0, 64, 86
1, 223934, Control_c, 0, 64, 84
1, 223949, Control_c, 0, 64, 83
1, 223964, Control_c, 0, 64, 81
1, 223979, Control_c, 0, 64, 80
1, 223994, Control_c, 0, 64, 78
1, 224008, Control_c, 0, 64, 77
1, 224023, Control_c, 0, 64, 76
1, 224038, Control_c, 0, 64, 75
1, 224053, Control_c, 0, 64, 75
1, 224068, Control_c, 0, 64, 74
1, 224083, Control_c, 0, 64, 73
1, 224098, Control_c, 0, 64, 73
1, 224112, Control_c, 0, 64, 72
1, 224127, Control_c, 0, 64, 71
1, 224142, Control_c, 0, 64, 70
1, 224157, Control_c, 0, 64, 69
1, 224186, Control_c, 0, 64, 69
1, 224217, Control_c, 0, 64, 68
1, 224247, Control_c, 0, 64, 68
1, 224261, Control_c, 0, 64, 67
1, 224276, Control_c, 0, 64, 66
1, 224291, Control_c, 0, 64, 66
1, 224306, Control_c, 0, 64, 65
1, 224350, Control_c, 0, 64, 65
1, 224365, Control_c, 0, 64, 64
1, 224521, Control_c, 0, 64, 65
1, 224728, Control_c, 0, 64, 65
1, 224772, Control_c, 0, 64, 66
1, 224831, Control_c, 0, 64, 66
1, 224861, Control_c, 0, 64, 67
1, 224921, Control_c, 0, 64, 67
1, 224965, Control_c, 0, 64, 68
1, 224980, Control_c, 0, 64, 68
1, 225010, Control_c, 0, 64, 69
1, 225025, Control_c, 0, 64, 69
1, 225040, Control_c, 0, 64, 70
1, 225055, Control_c, 0, 64, 71
1, 225070, Control_c, 0, 64, 72
1, 225084, Control_c, 0, 64, 74
1, 225099, Control_c, 0, 64, 75
1, 225114, Control_c, 0, 64, 77
1, 225118, Note_on_c, 0, 72, 55
1, 225136, Control_c, 0, 64, 78
1, 225151, Control_c, 0, 64, 81
1, 225165, Control_c, 0, 64, 83
1, 225180, Control_c, 0, 64, 85
1, 225195, Control_c, 0, 64, 89
1, 225210, Control_c, 0, 64, 96
1, 225225, Control_c, 0, 64, 109
1, 225240, Control_c, 0, 64, 127
1, 225424, Note_on_c, 0, 44, 36
1, 225493, Note_off_c, 0, 44, 58
1, 225684, Note_on_c, 0, 51, 27
1, 225758, Note_on_c, 0, 60, 43
1, 225779, Note_off_c, 0, 51, 33
1, 225871, Note_off_c, 0, 60, 59
1, 225961, Note_off_c, 0, 72, 36
1, 226101, Note_on_c, 0, 68, 42
1, 226184, Note_off_c, 0, 68, 36
1, 226375, Note_on_c, 0, 77, 72
1, 226677, Control_c, 0, 64, 103
1, 226692, Control_c, 0, 64, 81
1, 226695, Note_on_c, 0, 44, 32
1, 226707, Control_c, 0, 64, 66
1, 226722, Control_c, 0, 64, 55
1, 226736, Control_c, 0, 64, 54
1, 226751, Control_c, 0, 64, 60
1, 226766, Control_c, 0, 64, 67
1, 226781, Control_c, 0, 64, 79
1, 226796, Control_c, 0, 64, 107
1, 226807, Note_off_c, 0, 44, 56
1, 226811, Control_c, 0, 64, 127
1, 226935, Note_on_c, 0, 50, 30
1, 226974, Note_off_c, 0, 50, 48
1, 227012, Note_on_c, 0, 59, 38
1, 227100, Note_off_c, 0, 59, 59
1, 227334, Note_on_c, 0, 68, 41
1, 227517, Note_off_c, 0, 68, 38
1, 227523, Note_on_c, 0, 76, 64
1, 227551, Note_off_c, 0, 77, 56
1, 227586, Note_off_c, 0, 76, 64
1, 227676, Note_on_c, 0, 76, 61
1, 227990, Control_c, 0, 64, 107
1, 228004, Control_c, 0, 64, 80
1, 228011, Note_on_c, 0, 44, 34
1, 228019, Control_c, 0, 64, 64
1, 228034, Control_c, 0, 64, 43
1, 228049, Control_c, 0, 64, 0
1, 228078, Control_c, 0, 64, 44
1, 228093, Control_c, 0, 64, 61
1, 228108, Control_c, 0, 64, 71
1, 228130, Control_c, 0, 64, 83
1, 228145, Control_c, 0, 64, 102
1, 228160, Control_c, 0, 64, 127
1, 228184, Note_off_c, 0, 44, 45
1, 228328, Note_on_c, 0, 51, 32
1, 228432, Note_on_c, 0, 60, 31
1, 228477, Note_off_c, 0, 51, 39
1, 228630, Note_off_c, 0, 60, 39
1, 229031, Note_on_c, 0, 68, 23
1, 229168, Note_off_c, 0, 68, 35
1, 230346, Note_on_c, 0, 75, 38
1, 230431, Note_off_c, 0, 76, 51
1, 230747, Control_c, 0, 64, 121
1, 230762, Control_c, 0, 64, 116
1, 230777, Control_c, 0, 64, 110
1, 230792, Control_c, 0, 64, 105
1, 230802, Note_on_c, 0, 68, 44
1, 230807, Control_c, 0, 64, 101
1, 230821, Control_c, 0, 64, 95
1, 230836, Control_c, 0, 64, 89
1, 230851, Control_c, 0, 64, 83
1, 230866, Control_c, 0, 64, 77
1, 230881, Control_c, 0, 64, 71
1, 230895, Control_c, 0, 64, 65
1, 230910, Control_c, 0, 64, 60
1, 230917, Note_off_c, 0, 75, 36
1, 230925, Control_c, 0, 64, 55
1, 230940, Control_c, 0, 64, 54
1, 230954, Control_c, 0, 64, 54
1, 230984, Control_c, 0, 64, 55
1, 231216, Note_on_c, 0, 70, 57
1, 231299, Note_off_c, 0, 68, 36
1, 231634, Note_on_c, 0, 72, 64
1, 231697, Note_off_c, 0, 70, 61
1, 231777, Control_c, 0, 64, 55
1, 231933, Control_c, 0, 64, 56
1, 231948, Control_c, 0, 64, 59
1, 231963, Control_c, 0, 64, 64
1, 231977, Control_c, 0, 64, 71
1, 231992, Control_c, 0, 64, 84
1, 232006, Note_on_c, 0, 44, 45
1, 232007, Control_c, 0, 64, 107
1, 232022, Control_c, 0, 64, 127
1, 232071, Note_off_c, 0, 44, 52
1, 232140, Note_off_c, 0, 72, 64
1, 232258, Note_on_c, 0, 51, 41
1, 232322, Note_off_c, 0, 51, 51
1, 232349, Note_on_c, 0, 60, 41
1, 232376, Note_on_c, 0, 72, 77
1, 232441, Note_off_c, 0, 60, 58
1, 232528, Note_off_c, 0, 72, 67
1, 232719, Note_on_c, 0, 68, 60
1, 232793, Note_off_c, 0, 68, 62
1, 233129, Note_on_c, 0, 77, 85
1, 233476, Note_on_c, 0, 44, 41
1, 233476, Control_c, 0, 64, 113
1, 233491, Control_c, 0, 64, 91
1, 233505, Control_c, 0, 64, 72
1, 233520, Control_c, 0, 64, 54
1, 233535, Control_c, 0, 64, 0
1, 233564, Control_c, 0, 64, 30
1, 233579, Control_c, 0, 64, 60
1, 233594, Control_c, 0, 64, 73
1, 233609, Control_c, 0, 64, 89
1, 233623, Control_c, 0, 64, 127
1, 233665, Note_off_c, 0, 44, 59
1, 233728, Note_on_c, 0, 50, 46
1, 233795, Note_off_c, 0, 50, 54
1, 233850, Note_on_c, 0, 59, 32
1, 233996, Note_off_c, 0, 59, 35
1, 234284, Note_on_c, 0, 68, 39
1, 234454, Note_off_c, 0, 68, 42
1, 234612, Note_on_c, 0, 76, 69
1, 234629, Note_off_c, 0, 77, 54
1, 234685, Note_off_c, 0, 76, 64
1, 234794, Note_on_c, 0, 76, 66
1, 235225, Control_c, 0, 64, 112
1, 235232, Note_on_c, 0, 44, 31
1, 235240, Control_c, 0, 64, 92
1, 235255, Control_c, 0, 64, 73
1, 235269, Control_c, 0, 64, 58
1, 235284, Control_c, 0, 64, 23
1, 235299, Control_c, 0, 64, 0
1, 235314, Control_c, 0, 64, 8
1, 235328, Control_c, 0, 64, 50
1, 235343, Control_c, 0, 64, 65
1, 235358, Control_c, 0, 64, 79
1, 235373, Control_c, 0, 64, 95
1, 235389, Control_c, 0, 64, 112
1, 235404, Control_c, 0, 64, 118
1, 235416, Note_off_c, 0, 44, 54
1, 235418, Control_c, 0, 64, 119
1, 235433, Control_c, 0, 64, 122
1, 235448, Control_c, 0, 64, 127
1, 235547, Note_on_c, 0, 51, 33
1, 235667, Note_on_c, 0, 60, 38
1, 235732, Note_off_c, 0, 51, 30
1, 235926, Note_off_c, 0, 60, 47
1, 236239, Note_on_c, 0, 68, 16
1, 236436, Note_off_c, 0, 68, 41
1, 237566, Note_on_c, 0, 75, 41
1, 237710, Note_off_c, 0, 76, 33
1, 238043, Note_on_c, 0, 68, 47
1, 238102, Control_c, 0, 64, 111
1, 238117, Control_c, 0, 64, 97
1, 238132, Control_c, 0, 64, 87
1, 238146, Control_c, 0, 64, 79
1, 238148, Note_off_c, 0, 75, 37
1, 238161, Control_c, 0, 64, 72
1, 238176, Control_c, 0, 64, 66
1, 238191, Control_c, 0, 64, 61
1, 238206, Control_c, 0, 64, 57
1, 238220, Control_c, 0, 64, 56
1, 238235, Control_c, 0, 64, 56
1, 238294, Control_c, 0, 64, 57
1, 238398, Control_c, 0, 64, 57
1, 238460, Note_on_c, 0, 70, 56
1, 238472, Control_c, 0, 64, 57
1, 238513, Note_off_c, 0, 68, 35
1, 238717, Control_c, 0, 64, 57
1, 238732, Control_c, 0, 64, 58
1, 238747, Control_c, 0, 64, 59
1, 238776, Control_c, 0, 64, 59
1, 238880, Control_c, 0, 64, 59
1, 238883, Note_on_c, 0, 72, 65
1, 238922, Note_off_c, 0, 70, 61
1, 238925, Control_c, 0, 64, 58
1, 239014, Control_c, 0, 64, 58
1, 239073, Control_c, 0, 64, 57
1, 239117, Control_c, 0, 64, 57
1, 239132, Control_c, 0, 64, 56
1, 239147, Control_c, 0, 64, 55
1, 239161, Control_c, 0, 64, 55
1, 239176, Control_c, 0, 64, 54
1, 239206, Control_c, 0, 64, 55
1, 239221, Control_c, 0, 64, 56
1, 239235, Control_c, 0, 64, 59
1, 239250, Control_c, 0, 64, 63
1, 239256, Note_on_c, 0, 43, 44
1, 239265, Control_c, 0, 64, 67
1, 239280, Control_c, 0, 64, 73
1, 239295, Control_c, 0, 64, 82
1, 239309, Control_c, 0, 64, 95
1, 239324, Control_c, 0, 64, 110
1, 239326, Note_off_c, 0, 43, 57
1, 239339, Control_c, 0, 64, 127
1, 239408, Note_off_c, 0, 72, 64
1, 239625, Note_on_c, 0, 52, 41
1, 239663, Note_on_c, 0, 58, 43
1, 239680, Note_on_c, 0, 72, 75
1, 239785, Note_off_c, 0, 52, 53
1, 239822, Note_off_c, 0, 58, 54
1, 239846, Note_off_c, 0, 72, 66
1, 240039, Note_on_c, 0, 60, 56
1, 240079, Note_off_c, 0, 60, 62
1, 240394, Note_on_c, 0, 73, 78
1, 240705, Control_c, 0, 64, 110
1, 240719, Control_c, 0, 64, 86
1, 240734, Control_c, 0, 64, 66
1, 240734, Note_on_c, 0, 42, 50
1, 240749, Control_c, 0, 64, 33
1, 240764, Control_c, 0, 64, 0
1, 240794, Control_c, 0, 64, 24
1, 240808, Control_c, 0, 64, 57
1, 240823, Control_c, 0, 64, 69
1, 240838, Control_c, 0, 64, 79
1, 240849, Note_off_c, 0, 42, 61
1, 240853, Control_c, 0, 64, 90
1, 240874, Control_c, 0, 64, 95
1, 240889, Control_c, 0, 64, 98
1, 240904, Control_c, 0, 64, 102
1, 240919, Control_c, 0, 64, 111
1, 240934, Control_c, 0, 64, 127
1, 241113, Note_on_c, 0, 51, 36
1, 241130, Note_on_c, 0, 57, 39
1, 241273, Note_off_c, 0, 51, 41
1, 241363, Note_off_c, 0, 57, 41
1, 241408, Note_off_c, 0, 73, 27
1, 241465, Note_on_c, 0, 69, 67
1, 241474, Note_on_c, 0, 61, 40
1, 241583, Note_off_c, 0, 69, 61
1, 241593, Note_off_c, 0, 61, 36
1, 241807, Note_on_c, 0, 70, 74
1, 242024, Control_c, 0, 64, 115
1, 242039, Control_c, 0, 64, 107
1, 242054, Control_c, 0, 64, 103
1, 242068, Control_c, 0, 64, 99
1, 242083, Control_c, 0, 64, 90
1, 242098, Control_c, 0, 64, 76
1, 242112, Control_c, 0, 64, 60
1, 242126, Control_c, 0, 64, 0
1, 242129, Note_on_c, 0, 41, 56
1, 242171, Control_c, 0, 64, 46
1, 242186, Control_c, 0, 64, 65
1, 242201, Control_c, 0, 64, 77
1, 242216, Control_c, 0, 64, 92
1, 242219, Note_off_c, 0, 41, 62
1, 242231, Control_c, 0, 64, 105
1, 242246, Control_c, 0, 64, 108
1, 242260, Control_c, 0, 64, 109
1, 242275, Control_c, 0, 64, 112
1, 242290, Control_c, 0, 64, 120
1, 242303, Note_off_c, 0, 70, 56
1, 242304, Control_c, 0, 64, 127
1, 242491, Note_on_c, 0, 50, 42
1, 242515, Note_on_c, 0, 56, 37
1, 242517, Note_on_c, 0, 70, 78
1, 242574, Note_off_c, 0, 50, 55
1, 242636, Note_off_c, 0, 70, 65
1, 242713, Control_c, 0, 67, 117
1, 242728, Control_c, 0, 67, 91
1, 242742, Control_c, 0, 67, 64
1, 242754, Note_off_c, 0, 56, 39
1, 242757, Control_c, 0, 67, 40
1, 242772, Control_c, 0, 67, 15
1, 242787, Control_c, 0, 67, 0
1, 242857, Note_on_c, 0, 58, 58
1, 242894, Note_off_c, 0, 58, 63
1, 243203, Note_on_c, 0, 72, 82
1, 243521, Control_c, 0, 64, 105
1, 243534, Note_on_c, 0, 40, 63
1, 243536, Control_c, 0, 64, 78
1, 243551, Control_c, 0, 64, 59
1, 243566, Control_c, 0, 64, 0
1, 243610, Control_c, 0, 64, 46
1, 243625, Control_c, 0, 64, 66
1, 243639, Control_c, 0, 64, 81
1, 243643, Note_off_c, 0, 40, 61
1, 243654, Control_c, 0, 64, 116
1, 243669, Control_c, 0, 64, 127
1, 243968, Note_on_c, 0, 49, 54
1, 243976, Note_on_c, 0, 55, 60
1, 244043, Note_off_c, 0, 49, 62
1, 244132, Note_off_c, 0, 72, 58
1, 244256, Note_off_c, 0, 55, 55
1, 244364, Note_on_c, 0, 67, 72
1, 244374, Note_on_c, 0, 58, 46
1, 244459, Note_off_c, 0, 58, 63
1, 244468, Note_off_c, 0, 67, 57
1, 244709, Note_on_c, 0, 68, 77
1, 245003, Control_c, 0, 64, 97
1, 245018, Control_c, 0, 64, 76
1, 245033, Control_c, 0, 64, 59
1, 245048, Control_c, 0, 64, 0
1, 245050, Note_on_c, 0, 39, 59
1, 245092, Control_c, 0, 64, 53
1, 245107, Control_c, 0, 64, 69
1, 245122, Control_c, 0, 64, 84
1, 245137, Control_c, 0, 64, 124
1, 245152, Control_c, 0, 64, 127
1, 245160, Note_off_c, 0, 39, 62
1, 245412, Note_on_c, 0, 48, 53
1, 245468, Note_on_c, 0, 56, 47
1, 245507, Note_on_c, 0, 79, 84
1, 245608, Note_off_c, 0, 68, 61
1, 245650, Note_off_c, 0, 79, 60
1, 245697, Note_off_c, 0, 56, 34
1, 245820, Note_on_c, 0, 60, 50
1, 245870, Note_off_c, 0, 60, 58
1, 245922, Note_off_c, 0, 48, 40
1, 246137, Note_on_c, 0, 77, 85
1, 246352, Control_c, 0, 67, 10
1, 246367, Control_c, 0, 67, 17
1, 246382, Control_c, 0, 67, 27
1, 246397, Control_c, 0, 67, 38
1, 246412, Control_c, 0, 67, 50
1, 246426, Control_c, 0, 67, 69
1, 246441, Control_c, 0, 64, 122
1, 246441, Control_c, 0, 67, 92
1, 246456, Control_c, 0, 64, 84
1, 246456, Control_c, 0, 67, 117
1, 246467, Note_on_c, 0, 38, 58
1, 246471, Control_c, 0, 64, 62
1, 246471, Control_c, 0, 67, 127
1, 246485, Control_c, 0, 64, 0
1, 246530, Control_c, 0, 64, 52
1, 246545, Control_c, 0, 64, 71
1, 246559, Control_c, 0, 64, 92
1, 246575, Control_c, 0, 64, 127
1, 246593, Note_off_c, 0, 38, 62
1, 246915, Note_on_c, 0, 47, 39
1, 246921, Note_on_c, 0, 56, 50
1, 246927, Note_off_c, 0, 77, 58
1, 246955, Note_off_c, 0, 47, 49
1, 247518, Note_on_c, 0, 68, 68
1, 247538, Note_on_c, 0, 65, 46
1, 247585, Note_off_c, 0, 65, 65
1, 247654, Note_off_c, 0, 56, 52
1, 247677, Note_off_c, 0, 68, 30
1, 247897, Note_on_c, 0, 69, 68
1, 248192, Control_c, 0, 64, 111
1, 248207, Control_c, 0, 64, 99
1, 248221, Control_c, 0, 64, 88
1, 248228, Note_on_c, 0, 39, 59
1, 248236, Control_c, 0, 64, 74
1, 248251, Control_c, 0, 64, 60
1, 248266, Control_c, 0, 64, 0
1, 248325, Control_c, 0, 64, 42
1, 248340, Control_c, 0, 64, 62
1, 248362, Control_c, 0, 64, 72
1, 248377, Control_c, 0, 64, 82
1, 248392, Control_c, 0, 64, 91
1, 248407, Control_c, 0, 64, 97
1, 248422, Control_c, 0, 64, 102
1, 248436, Control_c, 0, 64, 107
1, 248451, Control_c, 0, 64, 124
1, 248466, Control_c, 0, 64, 127
1, 248526, Note_on_c, 0, 46, 39
1, 248660, Note_on_c, 0, 65, 44
1, 248661, Note_on_c, 0, 61, 39
1, 248698, Note_off_c, 0, 39, 37
1, 248825, Note_off_c, 0, 46, 41
1, 248960, Note_on_c, 0, 53, 54
1, 249103, Note_off_c, 0, 53, 55
1, 249206, Note_off_c, 0, 69, 52
1, 249325, Note_on_c, 0, 56, 66
1, 249333, Note_off_c, 0, 61, 41
1, 249792, Note_on_c, 0, 70, 63
1, 249795, Note_on_c, 0, 61, 40
1, 249888, Note_off_c, 0, 65, 42
1, 249946, Note_off_c, 0, 61, 51
1, 250404, Note_on_c, 0, 63, 43
1, 250409, Note_on_c, 0, 55, 33
1, 250423, Control_c, 0, 64, 108
1, 250431, Note_on_c, 0, 61, 27
1, 250437, Control_c, 0, 64, 94
1, 250449, Note_off_c, 0, 56, 24
1, 250452, Control_c, 0, 64, 82
1, 250467, Control_c, 0, 64, 71
1, 250482, Control_c, 0, 64, 60
1, 250497, Control_c, 0, 64, 35
1, 250512, Control_c, 0, 64, 0
1, 250587, Control_c, 0, 64, 42
1, 250610, Control_c, 0, 64, 60
1, 250624, Control_c, 0, 64, 68
1, 250639, Control_c, 0, 64, 73
1, 250654, Control_c, 0, 64, 77
1, 250669, Control_c, 0, 64, 80
1, 250683, Control_c, 0, 64, 83
1, 250698, Control_c, 0, 64, 86
1, 250713, Control_c, 0, 64, 91
1, 250728, Control_c, 0, 64, 96
1, 250743, Control_c, 0, 64, 102
1, 250757, Control_c, 0, 64, 109
1, 250772, Control_c, 0, 64, 119
1, 250787, Control_c, 0, 64, 127
1, 250822, Note_off_c, 0, 61, 40
1, 250831, Note_off_c, 0, 63, 34
1, 250914, Note_off_c, 0, 70, 37
1, 251315, Note_off_c, 0, 55, 32
1, 251474, Note_on_c, 0, 71, 61
1, 251504, Note_on_c, 0, 51, 18
1, 251613, Note_off_c, 0, 71, 53
1, 251674, Note_off_c, 0, 51, 38
1, 251877, Note_on_c, 0, 72, 68
1, 251920, Control_c, 0, 64, 118
1, 251935, Control_c, 0, 64, 109
1, 251950, Control_c, 0, 64, 101
1, 251964, Control_c, 0, 64, 93
1, 251979, Control_c, 0, 64, 86
1, 251994, Control_c, 0, 64, 80
1, 252009, Control_c, 0, 64, 73
1, 252023, Control_c, 0, 64, 66
1, 252038, Control_c, 0, 64, 58
1, 252053, Control_c, 0, 64, 44
1, 252068, Control_c, 0, 64, 34
1, 252083, Control_c, 0, 64, 32
1, 252135, Control_c, 0, 64, 33
1, 252150, Control_c, 0, 64, 35
1, 252165, Control_c, 0, 64, 40
1, 252181, Control_c, 0, 64, 48
1, 252195, Note_on_c, 0, 44, 39
1, 252195, Control_c, 0, 64, 57
1, 252210, Control_c, 0, 64, 63
1, 252225, Control_c, 0, 64, 68
1, 252240, Control_c, 0, 64, 75
1, 252255, Control_c, 0, 64, 82
1, 252266, Note_off_c, 0, 44, 61
1, 252269, Control_c, 0, 64, 90
1, 252284, Control_c, 0, 64, 98
1, 252299, Control_c, 0, 64, 106
1, 252314, Control_c, 0, 64, 112
1, 252328, Control_c, 0, 64, 120
1, 252343, Control_c, 0, 64, 127
1, 252480, Note_on_c, 0, 51, 26
1, 252599, Note_on_c, 0, 60, 33
1, 252618, Note_off_c, 0, 51, 40
1, 252718, Note_off_c, 0, 60, 50
1, 252877, Note_off_c, 0, 72, 53
1, 252929, Note_on_c, 0, 68, 42
1, 253037, Note_off_c, 0, 68, 35
1, 253227, Note_on_c, 0, 77, 80
1, 253534, Note_on_c, 0, 44, 37
1, 253567, Control_c, 0, 64, 90
1, 253582, Control_c, 0, 64, 72
1, 253604, Control_c, 0, 64, 55
1, 253618, Control_c, 0, 64, 33
1, 253633, Control_c, 0, 64, 39
1, 253648, Control_c, 0, 64, 56
1, 253663, Control_c, 0, 64, 68
1, 253677, Control_c, 0, 64, 86
1, 253692, Control_c, 0, 64, 127
1, 253720, Note_off_c, 0, 44, 60
1, 253803, Note_on_c, 0, 50, 37
1, 253856, Note_off_c, 0, 50, 43
1, 253889, Note_on_c, 0, 59, 38
1, 253977, Note_off_c, 0, 59, 59
1, 254445, Note_on_c, 0, 68, 29
1, 254569, Note_off_c, 0, 68, 42
1, 254786, Note_on_c, 0, 76, 64
1, 254804, Note_off_c, 0, 77, 51
1, 254867, Note_off_c, 0, 76, 64
1, 254964, Note_on_c, 0, 76, 71
1, 255293, Control_c, 0, 64, 117
1, 255296, Note_on_c, 0, 44, 40
1, 255308, Control_c, 0, 64, 87
1, 255322, Control_c, 0, 64, 69
1, 255337, Control_c, 0, 64, 51
1, 255352, Control_c, 0, 64, 36
1, 255368, Control_c, 0, 64, 47
1, 255383, Control_c, 0, 64, 64
1, 255397, Control_c, 0, 64, 77
1, 255412, Control_c, 0, 64, 127
1, 255433, Note_off_c, 0, 44, 61
1, 255593, Note_on_c, 0, 51, 37
1, 255701, Note_on_c, 0, 60, 28
1, 255750, Note_off_c, 0, 51, 33
1, 255910, Note_off_c, 0, 60, 39
1, 256219, Note_on_c, 0, 68, 31
1, 256321, Note_off_c, 0, 68, 39
1, 257468, Note_on_c, 0, 75, 41
1, 257506, Note_off_c, 0, 76, 38
1, 257895, Note_on_c, 0, 68, 43
1, 257910, Control_c, 0, 64, 116
1, 257925, Control_c, 0, 64, 103
1, 257940, Control_c, 0, 64, 93
1, 257955, Control_c, 0, 64, 83
1, 257970, Control_c, 0, 64, 76
1, 257985, Control_c, 0, 64, 69
1, 257996, Note_off_c, 0, 75, 39
1, 258000, Control_c, 0, 64, 63
1, 258014, Control_c, 0, 64, 58
1, 258029, Control_c, 0, 64, 55
1, 258279, Note_on_c, 0, 70, 60
1, 258380, Note_off_c, 0, 68, 31
1, 258585, Control_c, 0, 64, 56
1, 258600, Control_c, 0, 64, 57
1, 258615, Control_c, 0, 64, 58
1, 258644, Control_c, 0, 64, 58
1, 258670, Note_on_c, 0, 72, 71
1, 258728, Note_off_c, 0, 70, 62
1, 258778, Control_c, 0, 64, 59
1, 258822, Control_c, 0, 64, 59
1, 258918, Control_c, 0, 64, 60
1, 258948, Control_c, 0, 64, 60
1, 258992, Control_c, 0, 64, 60
1, 259007, Control_c, 0, 64, 59
1, 259022, Note_on_c, 0, 44, 37
1, 259037, Control_c, 0, 64, 60
1, 259052, Control_c, 0, 64, 63
1, 259067, Control_c, 0, 64, 66
1, 259081, Control_c, 0, 64, 72
1, 259096, Control_c, 0, 64, 81
1, 259102, Note_off_c, 0, 44, 60
1, 259111, Control_c, 0, 64, 98
1, 259126, Control_c, 0, 64, 124
1, 259141, Control_c, 0, 64, 127
1, 259189, Note_off_c, 0, 72, 62
1, 259276, Note_on_c, 0, 51, 38
1, 259383, Note_on_c, 0, 60, 32
1, 259398, Note_off_c, 0, 51, 36
1, 259427, Note_on_c, 0, 72, 62
1, 259478, Note_off_c, 0, 60, 55
1, 259532, Note_off_c, 0, 72, 49
1, 259538, Note_on_c, 0, 73, 71
1, 259659, Note_on_c, 0, 72, 80
1, 259678, Note_off_c, 0, 73, 52
1, 259741, Note_off_c, 0, 72, 60
1, 259807, Note_on_c, 0, 68, 41
1, 259899, Note_on_c, 0, 71, 70
1, 259966, Note_off_c, 0, 68, 44
1, 259979, Control_c, 0, 64, 116
1, 259994, Control_c, 0, 64, 109
1, 260009, Control_c, 0, 64, 103
1, 260011, Note_on_c, 0, 72, 80
1, 260024, Control_c, 0, 64, 98
1, 260038, Note_off_c, 0, 71, 49
1, 260038, Control_c, 0, 64, 92
1, 260053, Control_c, 0, 64, 87
1, 260068, Control_c, 0, 64, 79
1, 260083, Control_c, 0, 64, 72
1, 260098, Control_c, 0, 64, 66
1, 260112, Control_c, 0, 64, 60
1, 260127, Control_c, 0, 64, 57
1, 260142, Control_c, 0, 64, 56
1, 260173, Control_c, 0, 64, 55
1, 260188, Control_c, 0, 64, 54
1, 260202, Control_c, 0, 64, 52
1, 260206, Note_off_c, 0, 72, 63
1, 260215, Note_on_c, 0, 79, 68
1, 260217, Control_c, 0, 64, 49
1, 260232, Control_c, 0, 64, 45
1, 260247, Control_c, 0, 64, 41
1, 260261, Control_c, 0, 64, 40
1, 260276, Control_c, 0, 64, 44
1, 260291, Control_c, 0, 64, 54
1, 260306, Control_c, 0, 64, 63
1, 260321, Control_c, 0, 64, 70
1, 260343, Control_c, 0, 64, 80
1, 260358, Control_c, 0, 64, 97
1, 260373, Control_c, 0, 64, 117
1, 260387, Control_c, 0, 64, 127
1, 260516, Note_on_c, 0, 44, 19
1, 260535, Control_c, 0, 64, 115
1, 260550, Control_c, 0, 64, 98
1, 260565, Control_c, 0, 64, 84
1, 260580, Control_c, 0, 64, 71
1, 260587, Note_on_c, 0, 77, 69
1, 260595, Control_c, 0, 64, 57
1, 260599, Note_off_c, 0, 79, 56
1, 260609, Control_c, 0, 64, 22
1, 260624, Control_c, 0, 64, 0
1, 260698, Control_c, 0, 64, 40
1, 260713, Control_c, 0, 64, 59
1, 260727, Control_c, 0, 64, 69
1, 260742, Control_c, 0, 64, 76
1, 260757, Control_c, 0, 64, 82
1, 260772, Control_c, 0, 64, 86
1, 260787, Control_c, 0, 64, 89
1, 260802, Control_c, 0, 64, 92
1, 260817, Control_c, 0, 64, 97
1, 260828, Note_off_c, 0, 44, 40
1, 260832, Control_c, 0, 64, 102
1, 260846, Control_c, 0, 64, 108
1, 260861, Control_c, 0, 64, 115
1, 260873, Note_on_c, 0, 50, 35
1, 260876, Control_c, 0, 64, 127
1, 260960, Note_off_c, 0, 50, 37
1, 261015, Note_on_c, 0, 59, 34
1, 261186, Note_off_c, 0, 59, 44
1, 261610, Note_on_c, 0, 68, 31
1, 261766, Note_off_c, 0, 68, 42
1, 261964, Note_off_c, 0, 77, 36
1, 262372, Note_on_c, 0, 76, 55
1, 262445, Note_off_c, 0, 76, 63
1, 262553, Note_on_c, 0, 76, 57
1, 262870, Control_c, 0, 64, 121
1, 262885, Control_c, 0, 64, 113
1, 262900, Control_c, 0, 64, 107
1, 262915, Control_c, 0, 64, 101
1, 262918, Note_on_c, 0, 44, 30
1, 262929, Control_c, 0, 64, 94
1, 262944, Control_c, 0, 64, 88
1, 262959, Control_c, 0, 64, 78
1, 262974, Control_c, 0, 64, 65
1, 262989, Control_c, 0, 64, 41
1, 263003, Control_c, 0, 64, 0
1, 263033, Control_c, 0, 64, 20
1, 263047, Control_c, 0, 64, 55
1, 263062, Control_c, 0, 64, 68
1, 263078, Control_c, 0, 64, 79
1, 263093, Control_c, 0, 64, 95
1, 263108, Control_c, 0, 64, 109
1, 263122, Control_c, 0, 64, 116
1, 263137, Note_off_c, 0, 44, 40
1, 263137, Control_c, 0, 64, 127
1, 263287, Note_on_c, 0, 51, 34
1, 263395, Note_on_c, 0, 60, 38
1, 263479, Note_off_c, 0, 51, 37
1, 263652, Note_off_c, 0, 60, 35
1, 264095, Note_on_c, 0, 68, 20
1, 264291, Note_off_c, 0, 68, 43
1, 265407, Note_on_c, 0, 75, 41
1, 265518, Note_off_c, 0, 76, 43
1, 265792, Control_c, 0, 64, 120
1, 265807, Control_c, 0, 64, 111
1, 265822, Note_on_c, 0, 68, 48
1, 265822, Control_c, 0, 64, 104
1, 265837, Control_c, 0, 64, 96
1, 265851, Control_c, 0, 64, 89
1, 265866, Control_c, 0, 64, 81
1, 265881, Control_c, 0, 64, 72
1, 265896, Control_c, 0, 64, 65
1, 265911, Control_c, 0, 64, 58
1, 265926, Control_c, 0, 64, 54
1, 265947, Note_off_c, 0, 75, 38
1, 265955, Control_c, 0, 64, 55
1, 266218, Note_on_c, 0, 70, 61
1, 266290, Note_off_c, 0, 68, 58
1, 266436, Control_c, 0, 64, 57
1, 266451, Control_c, 0, 64, 61
1, 266466, Control_c, 0, 64, 63
1, 266480, Control_c, 0, 64, 65
1, 266495, Control_c, 0, 64, 67
1, 266510, Control_c, 0, 64, 69
1, 266525, Control_c, 0, 64, 71
1, 266540, Control_c, 0, 64, 74
1, 266556, Control_c, 0, 64, 76
1, 266570, Control_c, 0, 64, 78
1, 266585, Control_c, 0, 64, 78
1, 266615, Control_c, 0, 64, 78
1, 266635, Note_on_c, 0, 72, 69
1, 266644, Control_c, 0, 64, 77
1, 266659, Control_c, 0, 64, 77
1, 266670, Note_off_c, 0, 70, 65
1, 266674, Control_c, 0, 64, 75
1, 266689, Control_c, 0, 64, 72
1, 266704, Control_c, 0, 64, 68
1, 266719, Control_c, 0, 64, 63
1, 266734, Control_c, 0, 64, 56
1, 266749, Control_c, 0, 64, 48
1, 266764, Control_c, 0, 64, 43
1, 266778, Control_c, 0, 64, 39
1, 266793, Control_c, 0, 64, 38
1, 266821, Control_c, 0, 64, 40
1, 266836, Control_c, 0, 64, 45
1, 266851, Control_c, 0, 64, 52
1, 266866, Control_c, 0, 64, 59
1, 266881, Control_c, 0, 64, 64
1, 266895, Control_c, 0, 64, 67
1, 266910, Control_c, 0, 64, 70
1, 266925, Control_c, 0, 64, 76
1, 266940, Control_c, 0, 64, 82
1, 266955, Control_c, 0, 64, 87
1, 266969, Control_c, 0, 64, 91
1, 266984, Control_c, 0, 64, 94
1, 266992, Note_on_c, 0, 43, 48
1, 266999, Control_c, 0, 64, 96
1, 267014, Control_c, 0, 64, 101
1, 267029, Control_c, 0, 64, 106
1, 267044, Control_c, 0, 64, 113
1, 267046, Note_off_c, 0, 43, 55
1, 267059, Control_c, 0, 64, 120
1, 267081, Control_c, 0, 64, 127
1, 267195, Note_off_c, 0, 72, 54
1, 267396, Note_on_c, 0, 52, 38
1, 267418, Note_on_c, 0, 58, 41
1, 267461, Note_on_c, 0, 72, 76
1, 267562, Note_off_c, 0, 52, 54
1, 267644, Note_off_c, 0, 58, 34
1, 267650, Note_off_c, 0, 72, 63
1, 267718, Control_c, 0, 67, 119
1, 267733, Control_c, 0, 67, 98
1, 267748, Control_c, 0, 67, 77
1, 267762, Control_c, 0, 67, 58
1, 267777, Control_c, 0, 67, 39
1, 267792, Control_c, 0, 67, 26
1, 267807, Control_c, 0, 67, 13
1, 267830, Control_c, 0, 67, 0
1, 267837, Note_on_c, 0, 60, 46
1, 267878, Note_off_c, 0, 60, 47
1, 268188, Note_on_c, 0, 75, 81
1, 268511, Control_c, 0, 64, 100
1, 268526, Control_c, 0, 64, 78
1, 268527, Note_on_c, 0, 41, 57
1, 268540, Control_c, 0, 64, 60
1, 268555, Control_c, 0, 64, 0
1, 268592, Control_c, 0, 64, 29
1, 268607, Control_c, 0, 64, 60
1, 268622, Control_c, 0, 64, 74
1, 268637, Control_c, 0, 64, 99
1, 268648, Note_off_c, 0, 41, 62
1, 268652, Control_c, 0, 64, 127
1, 268964, Note_on_c, 0, 58, 54
1, 268978, Note_on_c, 0, 53, 46
1, 269106, Note_off_c, 0, 53, 62
1, 269450, Note_off_c, 0, 58, 41
1, 269468, Note_on_c, 0, 61, 44
1, 269469, Note_on_c, 0, 73, 73
1, 269548, Note_off_c, 0, 75, 56
1, 269556, Note_off_c, 0, 61, 38
1, 269737, Note_off_c, 0, 73, 61
1, 269743, Control_c, 0, 67, 10
1, 269758, Control_c, 0, 67, 19
1, 269773, Control_c, 0, 67, 32
1, 269787, Control_c, 0, 67, 47
1, 269802, Control_c, 0, 67, 64
1, 269817, Control_c, 0, 67, 79
1, 269832, Control_c, 0, 67, 96
1, 269846, Control_c, 0, 67, 116
1, 269861, Control_c, 0, 67, 127
1, 270003, Note_on_c, 0, 73, 71
1, 270372, Control_c, 0, 64, 87
1, 270379, Note_on_c, 0, 40, 63
1, 270387, Control_c, 0, 64, 67
1, 270402, Control_c, 0, 64, 39
1, 270417, Control_c, 0, 64, 0
1, 270461, Control_c, 0, 64, 50
1, 270476, Control_c, 0, 64, 68
1, 270491, Control_c, 0, 64, 85
1, 270506, Control_c, 0, 64, 127
1, 270552, Note_off_c, 0, 40, 61
1, 270752, Note_on_c, 0, 55, 41
1, 270763, Note_off_c, 0, 73, 57
1, 270773, Note_on_c, 0, 72, 77
1, 270825, Note_off_c, 0, 55, 53
1, 271008, Note_off_c, 0, 72, 61
1, 271106, Note_on_c, 0, 60, 70
1, 271177, Note_off_c, 0, 60, 60
1, 271514, Note_on_c, 0, 82, 90
1, 271531, Note_on_c, 0, 67, 51
1, 271607, Note_off_c, 0, 67, 49
1, 271712, Note_off_c, 0, 82, 63
1, 272000, Note_on_c, 0, 60, 36
1, 272107, Control_c, 0, 67, 118
1, 272122, Control_c, 0, 67, 99
1, 272138, Control_c, 0, 67, 76
1, 272153, Control_c, 0, 67, 58
1, 272168, Control_c, 0, 67, 43
1, 272182, Control_c, 0, 67, 30
1, 272197, Control_c, 0, 67, 16
1, 272212, Control_c, 0, 67, 0
1, 272408, Note_off_c, 0, 60, 19
1, 272417, Note_on_c, 0, 52, 42
1, 272463, Note_off_c, 0, 52, 50
1, 272991, Note_on_c, 0, 82, 88
1, 273024, Note_on_c, 0, 60, 31
1, 273101, Note_off_c, 0, 60, 41
1, 273784, Control_c, 0, 67, 10
1, 273799, Control_c, 0, 67, 18
1, 273820, Control_c, 0, 67, 30
1, 273835, Control_c, 0, 67, 42
1, 273850, Control_c, 0, 67, 54
1, 273865, Control_c, 0, 67, 68
1, 273880, Control_c, 0, 67, 80
1, 273894, Control_c, 0, 67, 92
1, 273909, Control_c, 0, 67, 104
1, 273924, Control_c, 0, 67, 115
1, 273939, Control_c, 0, 67, 127
1, 273954, Control_c, 0, 67, 127
1, 274055, Note_on_c, 0, 44, 41
1, 274102, Control_c, 0, 64, 100
1, 274117, Control_c, 0, 64, 79
1, 274132, Control_c, 0, 64, 63
1, 274147, Control_c, 0, 64, 37
1, 274161, Control_c, 0, 64, 0
1, 274176, Control_c, 0, 64, 36
1, 274191, Control_c, 0, 64, 61
1, 274205, Control_c, 0, 64, 74
1, 274220, Control_c, 0, 64, 97
1, 274235, Control_c, 0, 64, 127
1, 274354, Note_off_c, 0, 82, 60
1, 274433, Note_off_c, 0, 44, 33
1, 274552, Note_on_c, 0, 81, 61
1, 274575, Note_on_c, 0, 52, 29
1, 274678, Note_off_c, 0, 81, 56
1, 274696, Note_off_c, 0, 52, 53
1, 274907, Note_on_c, 0, 80, 70
1, 274937, Note_on_c, 0, 59, 30
1, 274998, Note_off_c, 0, 59, 60
1, 275021, Note_off_c, 0, 80, 56
1, 275248, Note_on_c, 0, 71, 66
1, 275274, Note_on_c, 0, 68, 40
1, 275321, Note_off_c, 0, 68, 48
1, 275369, Note_off_c, 0, 71, 50
1, 275736, Note_on_c, 0, 46, 44
1, 275740, Note_on_c, 0, 78, 76
1, 275763, Control_c, 0, 64, 93
1, 275778, Control_c, 0, 64, 72
1, 275792, Control_c, 0, 64, 51
1, 275808, Control_c, 0, 64, 0
1, 275852, Control_c, 0, 64, 48
1, 275867, Control_c, 0, 64, 66
1, 275882, Control_c, 0, 64, 78
1, 275897, Control_c, 0, 64, 99
1, 275912, Control_c, 0, 64, 118
1, 275926, Control_c, 0, 64, 127
1, 275940, Note_off_c, 0, 46, 38
1, 276082, Note_off_c, 0, 78, 52
1, 276267, Note_on_c, 0, 56, 31
1, 276440, Note_off_c, 0, 56, 39
1, 276766, Note_on_c, 0, 62, 31
1, 276864, Note_off_c, 0, 62, 34
1, 277448, Note_on_c, 0, 77, 54
1, 277924, Note_on_c, 0, 75, 53
1, 277927, Note_on_c, 0, 39, 27
1, 277954, Note_off_c, 0, 77, 55
1, 277979, Control_c, 0, 64, 106
1, 277994, Control_c, 0, 64, 91
1, 278009, Control_c, 0, 64, 79
1, 278024, Control_c, 0, 64, 69
1, 278039, Control_c, 0, 64, 59
1, 278053, Control_c, 0, 64, 45
1, 278068, Control_c, 0, 64, 35
1, 278083, Control_c, 0, 64, 35
1, 278098, Control_c, 0, 64, 38
1, 278113, Control_c, 0, 64, 42
1, 278127, Control_c, 0, 64, 49
1, 278142, Control_c, 0, 64, 58
1, 278157, Control_c, 0, 64, 64
1, 278172, Control_c, 0, 64, 70
1, 278186, Control_c, 0, 64, 79
1, 278201, Control_c, 0, 64, 88
1, 278216, Control_c, 0, 64, 96
1, 278231, Control_c, 0, 64, 103
1, 278246, Control_c, 0, 64, 111
1, 278261, Control_c, 0, 64, 127
1, 278344, Note_on_c, 0, 46, 34
1, 278505, Note_off_c, 0, 39, 41
1, 278532, Note_off_c, 0, 46, 40
1, 278790, Note_on_c, 0, 54, 29
1, 279009, Note_off_c, 0, 54, 36
1, 279194, Note_on_c, 0, 58, 35
1, 279442, Note_off_c, 0, 58, 41
1, 279743, Note_on_c, 0, 63, 28
1, 279882, Note_off_c, 0, 63, 40
1, 280426, Note_off_c, 0, 75, 35
1, 281152, Control_c, 0, 64, 115
1, 281167, Control_c, 0, 64, 108
1, 281182, Control_c, 0, 64, 102
1, 281196, Control_c, 0, 64, 98
1, 281211, Control_c, 0, 64, 94
1, 281226, Control_c, 0, 64, 91
1, 281241, Control_c, 0, 64, 87
1, 281256, Control_c, 0, 64, 83
1, 281270, Control_c, 0, 64, 80
1, 281285, Control_c, 0, 64, 76
1, 281307, Control_c, 0, 64, 72
1, 281322, Control_c, 0, 64, 68
1, 281337, Control_c, 0, 64, 64
1, 281352, Control_c, 0, 64, 61
1, 281367, Control_c, 0, 64, 61
1, 281515, Control_c, 0, 64, 60
1, 281529, Control_c, 0, 64, 60
1, 281603, Control_c, 0, 64, 60
1, 281856, Control_c, 0, 64, 61
1, 281930, Control_c, 0, 64, 61
1, 281945, Control_c, 0, 64, 62
1, 281960, Control_c, 0, 64, 64
1, 281975, Control_c, 0, 64, 67
1, 281990, Control_c, 0, 64, 72
1, 281996, Note_on_c, 0, 63, 56
1, 282005, Control_c, 0, 64, 79
1, 282019, Control_c, 0, 64, 88
1, 282034, Control_c, 0, 64, 97
1, 282056, Control_c, 0, 64, 107
1, 282071, Control_c, 0, 64, 120
1, 282086, Control_c, 0, 64, 127
1, 282138, Note_off_c, 0, 63, 59
1, 282342, Note_on_c, 0, 63, 65
1, 282367, Control_c, 0, 64, 108
1, 282382, Control_c, 0, 64, 84
1, 282397, Control_c, 0, 64, 69
1, 282412, Control_c, 0, 64, 56
1, 282426, Control_c, 0, 64, 47
1, 282441, Control_c, 0, 64, 54
1, 282456, Control_c, 0, 64, 63
1, 282471, Control_c, 0, 64, 74
1, 282486, Control_c, 0, 64, 91
1, 282500, Control_c, 0, 64, 127
1, 282658, Note_on_c, 0, 75, 45
1, 282687, Note_off_c, 0, 75, 59
1, 282723, Note_off_c, 0, 63, 57
1, 282822, Note_on_c, 0, 40, 29
1, 282934, Note_on_c, 0, 54, 36
1, 282983, Note_off_c, 0, 40, 39
1, 282986, Note_off_c, 0, 54, 58
1, 283028, Note_on_c, 0, 66, 43
1, 283063, Note_on_c, 0, 58, 24
1, 283184, Note_off_c, 0, 58, 39
1, 283262, Note_off_c, 0, 66, 29
1, 283334, Note_on_c, 0, 70, 40
1, 283386, Note_off_c, 0, 70, 51
1, 283643, Control_c, 0, 64, 104
1, 283652, Note_on_c, 0, 68, 69
1, 283658, Control_c, 0, 64, 83
1, 283672, Control_c, 0, 64, 66
1, 283687, Control_c, 0, 64, 46
1, 283702, Control_c, 0, 64, 0
1, 283731, Control_c, 0, 64, 37
1, 283746, Control_c, 0, 64, 57
1, 283761, Control_c, 0, 64, 67
1, 283776, Control_c, 0, 64, 76
1, 283791, Control_c, 0, 64, 89
1, 283805, Control_c, 0, 64, 108
1, 283820, Control_c, 0, 64, 127
1, 283953, Note_on_c, 0, 80, 47
1, 284016, Note_off_c, 0, 80, 52
1, 284272, Note_on_c, 0, 70, 44
1, 284282, Note_on_c, 0, 52, 31
1, 284301, Note_on_c, 0, 58, 24
1, 284306, Note_on_c, 0, 61, 26
1, 284360, Note_off_c, 0, 52, 59
1, 284384, Note_off_c, 0, 61, 39
1, 284391, Note_off_c, 0, 58, 36
1, 284472, Note_off_c, 0, 68, 33
1, 284610, Note_on_c, 0, 73, 36
1, 284682, Note_off_c, 0, 70, 32
1, 284744, Note_on_c, 0, 67, 57
1, 284789, Note_off_c, 0, 73, 40
1, 284797, Note_off_c, 0, 67, 57
1, 284901, Note_on_c, 0, 67, 62
1, 284911, Control_c, 0, 64, 101
1, 284926, Control_c, 0, 64, 87
1, 284941, Control_c, 0, 64, 75
1, 284956, Control_c, 0, 64, 65
1, 284970, Control_c, 0, 64, 57
1, 284985, Control_c, 0, 64, 52
1, 285000, Control_c, 0, 64, 52
1, 285015, Control_c, 0, 64, 53
1, 285030, Control_c, 0, 64, 54
1, 285051, Control_c, 0, 64, 57
1, 285066, Control_c, 0, 64, 61
1, 285081, Control_c, 0, 64, 64
1, 285096, Control_c, 0, 64, 68
1, 285111, Control_c, 0, 64, 73
1, 285126, Control_c, 0, 64, 80
1, 285141, Control_c, 0, 64, 87
1, 285156, Control_c, 0, 64, 94
1, 285170, Control_c, 0, 64, 98
1, 285185, Control_c, 0, 64, 100
1, 285200, Control_c, 0, 64, 102
1, 285215, Control_c, 0, 64, 106
1, 285230, Control_c, 0, 64, 111
1, 285230, Note_on_c, 0, 79, 36
1, 285244, Control_c, 0, 64, 117
1, 285259, Control_c, 0, 64, 121
1, 285274, Control_c, 0, 64, 124
1, 285289, Control_c, 0, 64, 127
1, 285478, Note_on_c, 0, 51, 28
1, 285527, Note_on_c, 0, 59, 26
1, 285537, Note_on_c, 0, 63, 29
1, 285588, Note_on_c, 0, 71, 39
1, 285615, Note_off_c, 0, 51, 50
1, 285638, Note_off_c, 0, 63, 39
1, 285639, Note_off_c, 0, 59, 37
1, 285851, Note_off_c, 0, 79, 28
1, 285931, Note_on_c, 0, 75, 31
1, 286189, Note_off_c, 0, 75, 39
1, 286190, Note_off_c, 0, 71, 38
1, 286614, Note_off_c, 0, 67, 49
1, 287083, Control_c, 0, 64, 121
1, 287097, Control_c, 0, 64, 112
1, 287112, Control_c, 0, 64, 106
1, 287124, Note_on_c, 0, 66, 46
1, 287127, Control_c, 0, 64, 102
1, 287141, Control_c, 0, 64, 94
1, 287156, Control_c, 0, 64, 84
1, 287171, Control_c, 0, 64, 71
1, 287186, Control_c, 0, 64, 58
1, 287201, Control_c, 0, 64, 41
1, 287216, Control_c, 0, 64, 44
1, 287230, Control_c, 0, 64, 56
1, 287245, Control_c, 0, 64, 66
1, 287260, Control_c, 0, 64, 75
1, 287275, Control_c, 0, 64, 91
1, 287297, Control_c, 0, 64, 112
1, 287313, Control_c, 0, 64, 127
1, 287319, Note_off_c, 0, 66, 61
1, 287476, Control_c, 0, 64, 106
1, 287491, Control_c, 0, 64, 85
1, 287496, Note_on_c, 0, 59, 60
1, 287506, Control_c, 0, 64, 68
1, 287520, Control_c, 0, 64, 51
1, 287535, Control_c, 0, 64, 14
1, 287550, Control_c, 0, 64, 28
1, 287564, Control_c, 0, 64, 51
1, 287579, Control_c, 0, 64, 64
1, 287594, Control_c, 0, 64, 73
1, 287609, Control_c, 0, 64, 85
1, 287624, Control_c, 0, 64, 97
1, 287639, Control_c, 0, 64, 100
1, 287644, Note_off_c, 0, 59, 61
1, 287684, Control_c, 0, 64, 101
1, 287698, Control_c, 0, 64, 103
1, 287713, Control_c, 0, 64, 107
1, 287728, Control_c, 0, 64, 113
1, 287743, Control_c, 0, 64, 121
1, 287758, Control_c, 0, 64, 124
1, 287787, Control_c, 0, 64, 121
1, 287802, Control_c, 0, 64, 104
1, 287817, Control_c, 0, 64, 82
1, 287819, Note_on_c, 0, 61, 73
1, 287832, Control_c, 0, 64, 65
1, 287846, Control_c, 0, 64, 41
1, 287861, Control_c, 0, 64, 0
1, 287876, Control_c, 0, 64, 30
1, 287891, Control_c, 0, 64, 56
1, 287906, Control_c, 0, 64, 70
1, 287920, Control_c, 0, 64, 82
1, 287935, Control_c, 0, 64, 99
1, 287950, Control_c, 0, 64, 109
1, 287955, Note_off_c, 0, 61, 62
1, 287964, Control_c, 0, 64, 109
1, 287994, Control_c, 0, 64, 111
1, 288009, Control_c, 0, 64, 117
1, 288024, Control_c, 0, 64, 127
1, 288143, Note_on_c, 0, 63, 78
1, 288151, Control_c, 0, 64, 97
1, 288166, Control_c, 0, 64, 75
1, 288181, Control_c, 0, 64, 57
1, 288195, Control_c, 0, 64, 0
1, 288225, Control_c, 0, 64, 29
1, 288240, Control_c, 0, 64, 60
1, 288255, Control_c, 0, 64, 73
1, 288269, Control_c, 0, 64, 88
1, 288284, Control_c, 0, 64, 109
1, 288299, Control_c, 0, 64, 119
1, 288329, Control_c, 0, 64, 122
1, 288343, Control_c, 0, 64, 127
1, 288465, Note_on_c, 0, 75, 54
1, 288497, Note_off_c, 0, 75, 56
1, 288500, Note_off_c, 0, 63, 52
1, 288536, Note_on_c, 0, 40, 43
1, 288575, Note_off_c, 0, 40, 56
1, 288672, Note_on_c, 0, 54, 36
1, 288736, Note_off_c, 0, 54, 54
1, 288895, Note_on_c, 0, 58, 49
1, 288908, Note_on_c, 0, 63, 71
1, 288912, Note_on_c, 0, 66, 70
1, 288953, Note_off_c, 0, 58, 51
1, 289252, Note_off_c, 0, 66, 37
1, 289253, Note_on_c, 0, 70, 56
1, 289257, Note_off_c, 0, 63, 54
1, 289303, Note_off_c, 0, 70, 57
1, 289563, Note_on_c, 0, 68, 78
1, 289589, Control_c, 0, 64, 94
1, 289604, Control_c, 0, 64, 77
1, 289618, Control_c, 0, 64, 65
1, 289633, Control_c, 0, 64, 57
1, 289648, Control_c, 0, 64, 61
1, 289663, Control_c, 0, 64, 65
1, 289678, Control_c, 0, 64, 72
1, 289693, Control_c, 0, 64, 82
1, 289708, Control_c, 0, 64, 96
1, 289723, Control_c, 0, 64, 111
1, 289738, Control_c, 0, 64, 127
1, 289885, Note_on_c, 0, 80, 57
1, 289952, Note_off_c, 0, 80, 59
1, 290150, Note_on_c, 0, 52, 31
1, 290160, Note_on_c, 0, 58, 30
1, 290188, Note_on_c, 0, 61, 35
1, 290214, Note_on_c, 0, 70, 46
1, 290243, Note_off_c, 0, 52, 59
1, 290265, Note_off_c, 0, 61, 50
1, 290292, Note_off_c, 0, 58, 40
1, 290382, Note_off_c, 0, 68, 55
1, 290557, Note_on_c, 0, 73, 37
1, 290691, Note_on_c, 0, 67, 67
1, 290757, Note_off_c, 0, 67, 60
1, 290760, Note_off_c, 0, 70, 41
1, 290843, Control_c, 0, 64, 121
1, 290857, Control_c, 0, 64, 117
1, 290858, Note_on_c, 0, 67, 60
1, 290872, Control_c, 0, 64, 113
1, 290887, Control_c, 0, 64, 110
1, 290900, Note_off_c, 0, 73, 37
1, 290901, Control_c, 0, 64, 107
1, 290916, Control_c, 0, 64, 104
1, 290931, Control_c, 0, 64, 100
1, 290946, Control_c, 0, 64, 97
1, 290961, Control_c, 0, 64, 93
1, 290975, Control_c, 0, 64, 90
1, 290990, Control_c, 0, 64, 89
1, 291216, Note_on_c, 0, 79, 38
1, 291545, Control_c, 0, 64, 88
1, 291560, Control_c, 0, 64, 86
1, 291575, Control_c, 0, 64, 81
1, 291582, Note_on_c, 0, 51, 35
1, 291590, Control_c, 0, 64, 73
1, 291597, Note_on_c, 0, 71, 40
1, 291597, Note_on_c, 0, 59, 24
1, 291604, Control_c, 0, 64, 64
1, 291613, Note_on_c, 0, 63, 22
1, 291619, Control_c, 0, 64, 49
1, 291634, Control_c, 0, 64, 0
1, 291834, Control_c, 0, 64, 16
1, 291849, Control_c, 0, 64, 37
1, 291864, Control_c, 0, 64, 49
1, 291878, Control_c, 0, 64, 57
1, 291893, Control_c, 0, 64, 60
1, 291908, Control_c, 0, 64, 61
1, 291937, Control_c, 0, 64, 62
1, 291952, Control_c, 0, 64, 62
1, 291967, Control_c, 0, 64, 63
1, 291982, Control_c, 0, 64, 64
1, 291997, Control_c, 0, 64, 65
1, 292012, Control_c, 0, 64, 66
1, 292027, Control_c, 0, 64, 67
1, 292042, Control_c, 0, 64, 68
1, 292056, Control_c, 0, 64, 70
1, 292071, Control_c, 0, 64, 72
1, 292079, Note_on_c, 0, 75, 31
1, 292086, Control_c, 0, 64, 74
1, 292101, Control_c, 0, 64, 75
1, 292116, Control_c, 0, 64, 77
1, 292131, Control_c, 0, 64, 79
1, 292146, Control_c, 0, 64, 81
1, 292161, Control_c, 0, 64, 83
1, 292176, Control_c, 0, 64, 84
1, 292191, Control_c, 0, 64, 85
1, 292206, Control_c, 0, 64, 86
1, 292221, Control_c, 0, 64, 87
1, 292235, Control_c, 0, 64, 87
1, 292250, Control_c, 0, 64, 88
1, 292251, Note_off_c, 0, 79, 35
1, 292265, Control_c, 0, 64, 89
1, 292280, Control_c, 0, 64, 90
1, 292295, Control_c, 0, 64, 91
1, 292310, Control_c, 0, 64, 91
1, 292325, Control_c, 0, 64, 92
1, 292340, Control_c, 0, 64, 92
1, 292354, Control_c, 0, 64, 93
1, 292384, Control_c, 0, 64, 93
1, 292411, Note_off_c, 0, 75, 39
1, 292414, Control_c, 0, 64, 94
1, 292458, Control_c, 0, 64, 94
1, 292544, Note_off_c, 0, 71, 38
1, 292584, Note_off_c, 0, 63, 35
1, 292601, Note_off_c, 0, 51, 37
1, 292655, Note_off_c, 0, 59, 35
1, 292885, Note_off_c, 0, 67, 37
1, 293407, Control_c, 0, 64, 94
1, 293459, Note_on_c, 0, 66, 48
1, 293577, Note_off_c, 0, 66, 54
1, 293777, Control_c, 0, 64, 91
1, 293786, Note_on_c, 0, 65, 59
1, 293792, Control_c, 0, 64, 82
1, 293806, Control_c, 0, 64, 69
1, 293821, Control_c, 0, 64, 50
1, 293836, Control_c, 0, 64, 0
1, 293881, Control_c, 0, 64, 45
1, 293896, Control_c, 0, 64, 61
1, 293911, Control_c, 0, 64, 68
1, 293925, Control_c, 0, 64, 75
1, 293940, Control_c, 0, 64, 80
1, 293944, Note_off_c, 0, 65, 61
1, 293955, Control_c, 0, 64, 81
1, 293999, Control_c, 0, 64, 82
1, 294014, Control_c, 0, 64, 83
1, 294036, Control_c, 0, 64, 83
1, 294051, Control_c, 0, 64, 84
1, 294081, Control_c, 0, 64, 81
1, 294095, Control_c, 0, 64, 73
1, 294110, Control_c, 0, 64, 60
1, 294115, Note_on_c, 0, 64, 60
1, 294125, Control_c, 0, 64, 0
1, 294170, Control_c, 0, 64, 38
1, 294185, Control_c, 0, 64, 62
1, 294199, Control_c, 0, 64, 73
1, 294214, Control_c, 0, 64, 85
1, 294229, Control_c, 0, 64, 93
1, 294244, Control_c, 0, 64, 94
1, 294259, Control_c, 0, 64, 94
1, 294259, Note_off_c, 0, 64, 64
1, 294273, Control_c, 0, 64, 95
1, 294288, Control_c, 0, 64, 96
1, 294303, Control_c, 0, 64, 100
1, 294318, Control_c, 0, 64, 104
1, 294332, Control_c, 0, 64, 109
1, 294347, Control_c, 0, 64, 114
1, 294362, Control_c, 0, 64, 124
1, 294377, Control_c, 0, 64, 127
1, 294421, Control_c, 0, 64, 109
1, 294436, Control_c, 0, 64, 89
1, 294447, Note_on_c, 0, 63, 63
1, 294450, Control_c, 0, 64, 71
1, 294465, Control_c, 0, 64, 53
1, 294480, Control_c, 0, 64, 0
1, 294511, Control_c, 0, 64, 26
1, 294526, Control_c, 0, 64, 57
1, 294541, Control_c, 0, 64, 68
1, 294555, Control_c, 0, 64, 77
1, 294570, Control_c, 0, 64, 85
1, 294585, Control_c, 0, 64, 87
1, 294600, Control_c, 0, 64, 88
1, 294615, Control_c, 0, 64, 89
1, 294629, Control_c, 0, 64, 93
1, 294644, Control_c, 0, 64, 99
1, 294659, Control_c, 0, 64, 108
1, 294659, Control_c, 0, 67, 112
1, 294674, Control_c, 0, 64, 127
1, 294674, Control_c, 0, 67, 84
1, 294675, Note_on_c, 0, 49, 34
1, 294689, Control_c, 0, 67, 54
1, 294704, Control_c, 0, 67, 27
1, 294719, Control_c, 0, 67, 0
1, 294799, Note_on_c, 0, 75, 46
1, 294810, Note_on_c, 0, 67, 31
1, 294841, Note_off_c, 0, 63, 55
1, 294855, Note_off_c, 0, 49, 35
1, 294874, Note_off_c, 0, 67, 44
1, 295135, Note_on_c, 0, 55, 40
1, 295164, Note_on_c, 0, 63, 31
1, 295174, Note_off_c, 0, 75, 11
1, 295194, Note_on_c, 0, 71, 71
1, 295301, Note_off_c, 0, 63, 39
1, 295347, Note_off_c, 0, 55, 37
1, 295536, Note_on_c, 0, 83, 31
1, 295551, Note_on_c, 0, 75, 38
1, 295559, Note_off_c, 0, 71, 56
1, 295568, Note_off_c, 0, 83, 51
1, 295607, Note_off_c, 0, 75, 40
1, 295830, Note_on_c, 0, 70, 67
1, 296115, Note_on_c, 0, 47, 31
1, 296128, Control_c, 0, 64, 101
1, 296143, Control_c, 0, 64, 81
1, 296158, Control_c, 0, 64, 65
1, 296173, Control_c, 0, 64, 41
1, 296188, Control_c, 0, 64, 0
1, 296194, Note_on_c, 0, 82, 46
1, 296203, Note_on_c, 0, 75, 38
1, 296217, Control_c, 0, 64, 42
1, 296232, Control_c, 0, 64, 63
1, 296247, Control_c, 0, 64, 74
1, 296262, Control_c, 0, 64, 90
1, 296283, Control_c, 0, 64, 115
1, 296298, Control_c, 0, 64, 127
1, 296298, Control_c, 0, 67, 11
1, 296304, Note_off_c, 0, 47, 52
1, 296313, Control_c, 0, 67, 22
1, 296328, Control_c, 0, 67, 38
1, 296343, Control_c, 0, 67, 58
1, 296358, Control_c, 0, 67, 75
1, 296373, Control_c, 0, 67, 94
1, 296388, Control_c, 0, 67, 119
1, 296402, Control_c, 0, 67, 127
1, 296412, Note_off_c, 0, 82, 57
1, 296491, Note_off_c, 0, 70, 52
1, 296528, Note_off_c, 0, 75, 53
1, 296642, Note_on_c, 0, 63, 34
1, 296649, Note_on_c, 0, 56, 31
1, 296702, Note_off_c, 0, 56, 43
1, 296737, Note_off_c, 0, 63, 36
1, 296802, Control_c, 0, 67, 122
1, 296817, Control_c, 0, 67, 102
1, 296832, Control_c, 0, 67, 80
1, 296846, Control_c, 0, 67, 51
1, 296861, Control_c, 0, 67, 27
1, 296876, Control_c, 0, 67, 8
1, 296892, Control_c, 0, 67, 0
1, 296952, Note_on_c, 0, 68, 68
1, 297064, Note_off_c, 0, 68, 61
1, 297262, Note_on_c, 0, 68, 68
1, 297476, Note_on_c, 0, 48, 30
1, 297521, Control_c, 0, 64, 105
1, 297535, Control_c, 0, 64, 80
1, 297550, Control_c, 0, 64, 57
1, 297565, Control_c, 0, 64, 0
1, 297589, Note_on_c, 0, 80, 42
1, 297604, Note_on_c, 0, 75, 30
1, 297610, Control_c, 0, 64, 51
1, 297624, Control_c, 0, 64, 68
1, 297637, Note_off_c, 0, 48, 58
1, 297639, Control_c, 0, 64, 87
1, 297654, Control_c, 0, 64, 127
1, 297723, Note_off_c, 0, 80, 47
1, 297808, Note_off_c, 0, 68, 60
1, 297966, Note_on_c, 0, 63, 36
1, 297967, Note_on_c, 0, 57, 34
1, 297978, Note_off_c, 0, 75, 27
1, 297996, Note_on_c, 0, 66, 71
1, 298061, Note_off_c, 0, 63, 34
1, 298085, Note_off_c, 0, 57, 37
1, 298281, Note_on_c, 0, 78, 52
1, 298310, Note_on_c, 0, 75, 39
1, 298394, Note_off_c, 0, 78, 46
1, 298480, Note_off_c, 0, 66, 54
1, 298588, Note_on_c, 0, 65, 68
1, 298612, Note_off_c, 0, 75, 37
1, 298826, Note_on_c, 0, 49, 33
1, 298870, Control_c, 0, 64, 122
1, 298885, Control_c, 0, 64, 98
1, 298900, Control_c, 0, 64, 82
1, 298914, Control_c, 0, 64, 68
1, 298914, Control_c, 0, 67, 15
1, 298929, Control_c, 0, 64, 50
1, 298929, Control_c, 0, 67, 31
1, 298939, Note_on_c, 0, 77, 46
1, 298944, Control_c, 0, 64, 0
1, 298944, Control_c, 0, 67, 51
1, 298945, Note_on_c, 0, 69, 43
1, 298959, Control_c, 0, 67, 75
1, 298974, Control_c, 0, 67, 106
1, 298989, Control_c, 0, 67, 127
1, 298993, Note_off_c, 0, 77, 0
1, 298993, Note_on_c, 0, 77, 6
1, 299003, Control_c, 0, 64, 43
1, 299019, Control_c, 0, 64, 62
1, 299034, Control_c, 0, 64, 71
1, 299048, Control_c, 0, 64, 82
1, 299063, Control_c, 0, 64, 96
1, 299078, Control_c, 0, 64, 112
1, 299093, Control_c, 0, 64, 127
1, 299172, Note_off_c, 0, 77, 40
1, 299201, Note_off_c, 0, 69, 65
1, 299267, Note_on_c, 0, 57, 26
1, 299267, Note_on_c, 0, 61, 42
1, 299306, Note_off_c, 0, 65, 63
1, 299367, Note_off_c, 0, 57, 33
1, 299436, Note_off_c, 0, 61, 35
1, 299451, Note_off_c, 0, 49, 38
1, 299594, Note_on_c, 0, 64, 66
1, 299712, Note_off_c, 0, 64, 61
1, 299950, Note_on_c, 0, 61, 68
1, 300221, Control_c, 0, 64, 98
1, 300236, Control_c, 0, 64, 76
1, 300250, Control_c, 0, 64, 60
1, 300253, Note_on_c, 0, 64, 46
1, 300265, Control_c, 0, 64, 35
1, 300280, Control_c, 0, 64, 39
1, 300294, Control_c, 0, 64, 56
1, 300309, Control_c, 0, 64, 67
1, 300324, Control_c, 0, 64, 82
1, 300339, Control_c, 0, 64, 107
1, 300354, Control_c, 0, 64, 127
1, 300373, Note_on_c, 0, 40, 43
1, 300406, Note_off_c, 0, 40, 51
1, 300478, Note_off_c, 0, 61, 37
1, 300503, Note_off_c, 0, 64, 51
1, 300631, Note_on_c, 0, 57, 38
1, 300659, Note_off_c, 0, 57, 59
1, 300677, Note_on_c, 0, 73, 77
1, 300691, Note_on_c, 0, 61, 54
1, 300697, Note_on_c, 0, 69, 58
1, 301018, Note_on_c, 0, 64, 48
1, 301062, Note_off_c, 0, 64, 61
1, 301080, Note_off_c, 0, 73, 56
1, 301114, Note_off_c, 0, 61, 38
1, 301132, Note_on_c, 0, 40, 46
1, 301172, Note_off_c, 0, 40, 59
1, 301213, Note_off_c, 0, 69, 35
1, 301428, Note_on_c, 0, 73, 70
1, 301432, Note_on_c, 0, 62, 51
1, 301438, Note_on_c, 0, 65, 51
1, 301447, Note_on_c, 0, 56, 29
1, 301458, Control_c, 0, 64, 94
1, 301473, Control_c, 0, 64, 75
1, 301488, Control_c, 0, 64, 61
1, 301503, Control_c, 0, 64, 37
1, 301524, Control_c, 0, 64, 24
1, 301539, Control_c, 0, 64, 42
1, 301554, Control_c, 0, 64, 62
1, 301569, Control_c, 0, 64, 71
1, 301584, Control_c, 0, 64, 85
1, 301598, Control_c, 0, 64, 108
1, 301613, Control_c, 0, 64, 127
1, 301702, Note_off_c, 0, 56, 41
1, 301888, Note_off_c, 0, 62, 33
1, 301973, Note_off_c, 0, 65, 37
1, 302049, Note_on_c, 0, 68, 34
1, 302435, Note_on_c, 0, 64, 36
1, 302448, Note_off_c, 0, 73, 59
1, 302749, Control_c, 0, 67, 108
1, 302757, Note_off_c, 0, 64, 39
1, 302763, Control_c, 0, 67, 82
1, 302778, Control_c, 0, 67, 53
1, 302793, Control_c, 0, 67, 26
1, 302808, Control_c, 0, 67, 0
1, 302901, Note_off_c, 0, 68, 42
1, 303132, Note_on_c, 0, 71, 48
1, 303349, Control_c, 0, 67, 13
1, 303364, Control_c, 0, 67, 22
1, 303379, Control_c, 0, 67, 34
1, 303393, Control_c, 0, 67, 48
1, 303408, Control_c, 0, 67, 64
1, 303423, Control_c, 0, 67, 80
1, 303438, Control_c, 0, 67, 89
1, 303453, Control_c, 0, 67, 92
1, 303482, Control_c, 0, 67, 93
1, 303497, Control_c, 0, 67, 96
1, 303511, Control_c, 0, 67, 102
1, 303526, Control_c, 0, 67, 109
1, 303541, Control_c, 0, 67, 115
1, 303551, Note_off_c, 0, 71, 32
1, 303556, Control_c, 0, 67, 119
1, 303566, Note_on_c, 0, 69, 49
1, 303571, Control_c, 0, 67, 124
1, 303585, Control_c, 0, 67, 127
1, 303630, Control_c, 0, 64, 115
1, 303644, Control_c, 0, 64, 90
1, 303659, Control_c, 0, 64, 71
1, 303674, Control_c, 0, 64, 57
1, 303689, Control_c, 0, 64, 35
1, 303704, Control_c, 0, 64, 8
1, 303718, Control_c, 0, 64, 14
1, 303733, Control_c, 0, 64, 29
1, 303748, Control_c, 0, 64, 46
1, 303771, Control_c, 0, 64, 59
1, 303786, Control_c, 0, 64, 65
1, 303800, Control_c, 0, 64, 69
1, 303815, Control_c, 0, 64, 73
1, 303830, Control_c, 0, 64, 79
1, 303844, Control_c, 0, 64, 85
1, 303859, Control_c, 0, 64, 89
1, 303874, Control_c, 0, 64, 94
1, 303889, Control_c, 0, 64, 99
1, 303904, Control_c, 0, 64, 104
1, 303919, Control_c, 0, 64, 109
1, 303924, Note_on_c, 0, 45, 28
1, 303934, Control_c, 0, 64, 117
1, 303949, Control_c, 0, 64, 127
1, 304028, Poly_aftertouch_c, 0, 64, 127
1, 304055, Note_off_c, 0, 45, 34
1, 304140, Poly_aftertouch_c, 0, 64, 0
1, 304258, Note_on_c, 0, 52, 34
1, 304277, Note_on_c, 0, 61, 31
1, 304312, Note_off_c, 0, 52, 46
1, 304333, Note_off_c, 0, 61, 41
1, 304606, Note_on_c, 0, 57, 32
1, 304621, Note_on_c, 0, 64, 31
1, 304697, Note_off_c, 0, 69, 38
1, 304721, Note_off_c, 0, 57, 36
1, 304741, Note_off_c, 0, 64, 35
1, 304973, Note_on_c, 0, 61, 36
1, 305057, Note_off_c, 0, 61, 53
1, 305347, Note_on_c, 0, 64, 29
1, 305481, Note_off_c, 0, 64, 46
1, 305872, Note_on_c, 0, 69, 28
1, 305945, Note_off_c, 0, 69, 38
1, 306567, Control_c, 0, 64, 122
1, 306582, Control_c, 0, 64, 119
1, 306597, Control_c, 0, 64, 116
1, 306611, Control_c, 0, 64, 114
1, 306626, Control_c, 0, 64, 112
1, 306641, Control_c, 0, 64, 112
1, 306655, Control_c, 0, 64, 111
1, 306670, Control_c, 0, 64, 110
1, 306685, Control_c, 0, 64, 109
1, 306797, Control_c, 0, 64, 109
1, 306811, Control_c, 0, 64, 108
1, 306826, Control_c, 0, 64, 107
1, 306841, Control_c, 0, 64, 105
1, 306855, Control_c, 0, 64, 103
1, 306870, Control_c, 0, 64, 99
1, 306885, Control_c, 0, 64, 95
1, 306900, Control_c, 0, 64, 89
1, 306915, Control_c, 0, 64, 83
1, 306929, Control_c, 0, 64, 76
1, 306944, Control_c, 0, 64, 69
1, 306959, Control_c, 0, 64, 63
1, 306974, Control_c, 0, 64, 57
1, 306989, Control_c, 0, 64, 54
1, 307062, Control_c, 0, 64, 55
1, 307077, Control_c, 0, 64, 55
1, 307092, Control_c, 0, 64, 56
1, 307122, Control_c, 0, 64, 56
1, 307137, Control_c, 0, 64, 57
1, 307152, Control_c, 0, 64, 59
1, 307167, Control_c, 0, 64, 62
1, 307182, Control_c, 0, 64, 67
1, 307197, Control_c, 0, 64, 72
1, 307200, Note_on_c, 0, 69, 65
1, 307211, Control_c, 0, 64, 80
1, 307226, Control_c, 0, 64, 88
1, 307241, Control_c, 0, 64, 95
1, 307247, Note_off_c, 0, 69, 61
1, 307255, Control_c, 0, 64, 97
1, 307270, Control_c, 0, 64, 97
1, 307331, Control_c, 0, 64, 96
1, 307346, Control_c, 0, 64, 88
1, 307349, Note_on_c, 0, 69, 74
1, 307360, Control_c, 0, 64, 76
1, 307375, Control_c, 0, 64, 61
1, 307390, Control_c, 0, 64, 40
1, 307405, Control_c, 0, 64, 8
1, 307420, Control_c, 0, 64, 23
1, 307434, Control_c, 0, 64, 45
1, 307449, Control_c, 0, 64, 60
1, 307464, Control_c, 0, 64, 69
1, 307478, Control_c, 0, 64, 77
1, 307493, Control_c, 0, 64, 85
1, 307516, Control_c, 0, 64, 91
1, 307530, Control_c, 0, 64, 95
1, 307545, Control_c, 0, 64, 98
1, 307560, Control_c, 0, 64, 103
1, 307575, Control_c, 0, 64, 112
1, 307590, Control_c, 0, 64, 127
1, 307668, Note_on_c, 0, 81, 55
1, 307709, Note_off_c, 0, 81, 51
1, 307712, Note_off_c, 0, 69, 49
1, 307781, Note_on_c, 0, 46, 48
1, 307814, Note_off_c, 0, 46, 62
1, 307898, Note_on_c, 0, 61, 35
1, 307930, Note_off_c, 0, 61, 49
1, 308073, Note_on_c, 0, 64, 41
1, 308084, Note_on_c, 0, 69, 51
1, 308102, Note_off_c, 0, 64, 62
1, 308111, Note_on_c, 0, 73, 28
1, 308163, Note_off_c, 0, 73, 44
1, 308270, Note_off_c, 0, 69, 36
1, 308403, Note_on_c, 0, 76, 48
1, 308426, Note_off_c, 0, 76, 62
1, 308665, Note_on_c, 0, 74, 79
1, 308693, Control_c, 0, 64, 113
1, 308708, Control_c, 0, 64, 95
1, 308723, Control_c, 0, 64, 84
1, 308738, Control_c, 0, 64, 77
1, 308753, Control_c, 0, 64, 76
1, 308768, Control_c, 0, 64, 78
1, 308782, Control_c, 0, 64, 83
1, 308797, Control_c, 0, 64, 90
1, 308812, Control_c, 0, 64, 95
1, 308827, Control_c, 0, 64, 99
1, 308842, Control_c, 0, 64, 101
1, 308857, Control_c, 0, 64, 102
1, 308872, Control_c, 0, 64, 103
1, 308902, Control_c, 0, 64, 104
1, 308931, Control_c, 0, 64, 104
1, 308944, Note_on_c, 0, 86, 57
1, 308946, Control_c, 0, 64, 105
1, 308961, Control_c, 0, 64, 106
1, 308973, Note_off_c, 0, 86, 51
1, 308976, Control_c, 0, 64, 106
1, 309102, Control_c, 0, 64, 107
1, 309120, Note_on_c, 0, 58, 25
1, 309146, Control_c, 0, 64, 107
1, 309161, Control_c, 0, 64, 108
1, 309176, Control_c, 0, 64, 108
1, 309177, Note_on_c, 0, 64, 22
1, 309190, Note_off_c, 0, 74, 57
1, 309191, Control_c, 0, 64, 109
1, 309206, Control_c, 0, 64, 110
1, 309221, Control_c, 0, 64, 112
1, 309230, Note_on_c, 0, 67, 34
1, 309236, Control_c, 0, 64, 115
1, 309238, Note_off_c, 0, 58, 36
1, 309250, Control_c, 0, 64, 119
1, 309255, Note_on_c, 0, 76, 43
1, 309262, Note_off_c, 0, 64, 37
1, 309265, Control_c, 0, 64, 124
1, 309271, Note_off_c, 0, 67, 51
1, 309280, Control_c, 0, 64, 127
1, 309370, Note_off_c, 0, 76, 37
1, 309554, Note_on_c, 0, 79, 41
1, 309661, Note_off_c, 0, 79, 35
1, 309675, Note_on_c, 0, 73, 72
1, 309740, Note_off_c, 0, 73, 61
1, 309819, Note_on_c, 0, 73, 70
1, 310043, Control_c, 0, 64, 124
1, 310058, Control_c, 0, 64, 122
1, 310073, Control_c, 0, 64, 121
1, 310088, Control_c, 0, 64, 120
1, 310103, Control_c, 0, 64, 119
1, 310117, Note_on_c, 0, 85, 51
1, 310118, Control_c, 0, 64, 118
1, 310162, Control_c, 0, 64, 117
1, 310192, Control_c, 0, 64, 116
1, 310207, Control_c, 0, 64, 115
1, 310222, Control_c, 0, 64, 115
1, 310236, Control_c, 0, 64, 113
1, 310251, Control_c, 0, 64, 113
1, 310280, Control_c, 0, 64, 112
1, 310354, Control_c, 0, 64, 112
1, 310369, Control_c, 0, 64, 111
1, 310384, Control_c, 0, 64, 110
1, 310398, Control_c, 0, 64, 109
1, 310413, Control_c, 0, 64, 104
1, 310428, Control_c, 0, 64, 95
1, 310430, Note_on_c, 0, 57, 27
1, 310443, Control_c, 0, 64, 86
1, 310450, Note_on_c, 0, 69, 29
1, 310458, Control_c, 0, 64, 76
1, 310468, Note_on_c, 0, 65, 26
1, 310474, Control_c, 0, 64, 67
1, 310489, Control_c, 0, 64, 56
1, 310511, Control_c, 0, 64, 33
1, 310515, Note_on_c, 0, 77, 43
1, 310526, Control_c, 0, 64, 0
1, 310615, Control_c, 0, 64, 17
1, 310630, Control_c, 0, 64, 46
1, 310645, Control_c, 0, 64, 59
1, 310659, Control_c, 0, 64, 65
1, 310674, Control_c, 0, 64, 69
1, 310689, Control_c, 0, 64, 72
1, 310703, Control_c, 0, 64, 75
1, 310718, Control_c, 0, 64, 78
1, 310733, Control_c, 0, 64, 81
1, 310748, Control_c, 0, 64, 85
1, 310763, Control_c, 0, 64, 89
1, 310777, Control_c, 0, 64, 93
1, 310792, Control_c, 0, 64, 96
1, 310807, Control_c, 0, 64, 99
1, 310821, Control_c, 0, 64, 101
1, 310836, Control_c, 0, 64, 102
1, 310851, Control_c, 0, 64, 104
1, 310866, Control_c, 0, 64, 105
1, 310881, Control_c, 0, 64, 107
1, 310896, Control_c, 0, 64, 108
1, 310898, Note_off_c, 0, 85, 31
1, 310911, Control_c, 0, 64, 109
1, 310926, Control_c, 0, 64, 109
1, 310941, Note_on_c, 0, 81, 41
1, 310955, Control_c, 0, 64, 110
1, 310970, Control_c, 0, 64, 110
1, 310985, Control_c, 0, 64, 111
1, 311000, Control_c, 0, 64, 111
1, 311029, Control_c, 0, 64, 112
1, 311044, Control_c, 0, 64, 112
1, 311074, Control_c, 0, 64, 113
1, 311089, Control_c, 0, 64, 114
1, 311103, Control_c, 0, 64, 115
1, 311118, Control_c, 0, 64, 115
1, 311133, Note_off_c, 0, 77, 36
1, 311133, Control_c, 0, 64, 116
1, 311148, Control_c, 0, 64, 116
1, 311163, Control_c, 0, 64, 117
1, 311177, Control_c, 0, 64, 118
1, 311178, Note_off_c, 0, 81, 39
1, 311186, Note_off_c, 0, 69, 39
1, 311192, Control_c, 0, 64, 120
1, 311207, Control_c, 0, 64, 122
1, 311221, Control_c, 0, 64, 124
1, 311236, Control_c, 0, 64, 127
1, 311297, Note_off_c, 0, 57, 33
1, 311370, Note_off_c, 0, 73, 54
1, 311416, Note_off_c, 0, 65, 36
1, 311951, Note_on_c, 0, 72, 52
1, 312061, Note_off_c, 0, 72, 48
1, 312217, Control_c, 0, 64, 122
1, 312231, Control_c, 0, 64, 121
1, 312246, Control_c, 0, 64, 116
1, 312261, Control_c, 0, 64, 108
1, 312267, Note_on_c, 0, 65, 63
1, 312276, Control_c, 0, 64, 93
1, 312291, Control_c, 0, 64, 76
1, 312306, Control_c, 0, 64, 59
1, 312321, Control_c, 0, 64, 0
1, 312365, Control_c, 0, 64, 48
1, 312380, Control_c, 0, 64, 64
1, 312395, Control_c, 0, 64, 74
1, 312410, Control_c, 0, 64, 85
1, 312424, Control_c, 0, 64, 94
1, 312430, Note_off_c, 0, 65, 55
1, 312439, Control_c, 0, 64, 97
1, 312454, Control_c, 0, 64, 99
1, 312468, Control_c, 0, 64, 100
1, 312483, Control_c, 0, 64, 102
1, 312497, Control_c, 0, 64, 103
1, 312527, Control_c, 0, 64, 98
1, 312541, Control_c, 0, 64, 84
1, 312545, Note_on_c, 0, 67, 70
1, 312556, Control_c, 0, 64, 70
1, 312571, Control_c, 0, 64, 55
1, 312586, Control_c, 0, 64, 43
1, 312601, Control_c, 0, 64, 52
1, 312616, Control_c, 0, 64, 64
1, 312631, Control_c, 0, 64, 73
1, 312646, Control_c, 0, 64, 87
1, 312661, Control_c, 0, 64, 105
1, 312673, Note_off_c, 0, 67, 60
1, 312675, Control_c, 0, 64, 121
1, 312690, Control_c, 0, 64, 127
1, 312816, Control_c, 0, 64, 95
1, 312828, Note_on_c, 0, 69, 75
1, 312830, Control_c, 0, 64, 73
1, 312845, Control_c, 0, 64, 50
1, 312860, Control_c, 0, 64, 0
1, 312905, Control_c, 0, 64, 53
1, 312920, Control_c, 0, 64, 69
1, 312935, Control_c, 0, 64, 83
1, 312950, Control_c, 0, 64, 103
1, 312965, Control_c, 0, 64, 121
1, 312980, Control_c, 0, 64, 127
1, 313108, Note_on_c, 0, 81, 56
1, 313145, Note_off_c, 0, 81, 49
1, 313147, Note_off_c, 0, 69, 56
1, 313165, Note_on_c, 0, 46, 47
1, 313209, Note_off_c, 0, 46, 61
1, 313287, Note_on_c, 0, 61, 43
1, 313320, Note_off_c, 0, 61, 53
1, 313487, Note_on_c, 0, 64, 50
1, 313488, Note_on_c, 0, 69, 79
1, 313540, Note_off_c, 0, 64, 59
1, 313585, Poly_aftertouch_c, 0, 73, 127
1, 313705, Poly_aftertouch_c, 0, 73, 0
1, 313742, Poly_aftertouch_c, 0, 73, 127
1, 313778, Note_off_c, 0, 69, 56
1, 313802, Poly_aftertouch_c, 0, 73, 0
1, 313814, Note_on_c, 0, 76, 55
1, 313854, Note_off_c, 0, 76, 61
1, 314082, Note_on_c, 0, 74, 84
1, 314114, Control_c, 0, 64, 98
1, 314128, Control_c, 0, 64, 78
1, 314143, Control_c, 0, 64, 59
1, 314158, Control_c, 0, 64, 38
1, 314173, Control_c, 0, 64, 40
1, 314188, Control_c, 0, 64, 55
1, 314202, Control_c, 0, 64, 65
1, 314217, Control_c, 0, 64, 74
1, 314232, Control_c, 0, 64, 91
1, 314254, Control_c, 0, 64, 109
1, 314269, Control_c, 0, 64, 119
1, 314284, Control_c, 0, 64, 121
1, 314299, Control_c, 0, 64, 124
1, 314314, Control_c, 0, 64, 127
1, 314372, Note_on_c, 0, 86, 47
1, 314393, Note_off_c, 0, 86, 56
1, 314518, Note_on_c, 0, 58, 36
1, 314548, Note_off_c, 0, 74, 55
1, 314595, Note_on_c, 0, 64, 33
1, 314640, Note_on_c, 0, 67, 32
1, 314650, Note_off_c, 0, 58, 41
1, 314668, Note_off_c, 0, 64, 41
1, 314671, Note_off_c, 0, 67, 55
1, 314679, Note_on_c, 0, 76, 43
1, 314754, Note_off_c, 0, 76, 50
1, 315003, Note_on_c, 0, 79, 47
1, 315085, Note_off_c, 0, 79, 47
1, 315351, Note_on_c, 0, 73, 70
1, 315406, Note_off_c, 0, 73, 62
1, 315529, Note_on_c, 0, 73, 71
1, 315841, Note_on_c, 0, 85, 51
1, 316168, Note_on_c, 0, 56, 28
1, 316220, Note_on_c, 0, 65, 27
1, 316242, Note_on_c, 0, 68, 31
1, 316256, Control_c, 0, 64, 120
1, 316270, Control_c, 0, 64, 103
1, 316279, Note_on_c, 0, 77, 55
1, 316285, Control_c, 0, 64, 88
1, 316300, Control_c, 0, 64, 75
1, 316315, Control_c, 0, 64, 62
1, 316330, Control_c, 0, 64, 38
1, 316345, Control_c, 0, 64, 0
1, 316433, Control_c, 0, 64, 10
1, 316448, Control_c, 0, 64, 26
1, 316463, Control_c, 0, 64, 38
1, 316478, Control_c, 0, 64, 49
1, 316500, Control_c, 0, 64, 57
1, 316515, Control_c, 0, 64, 61
1, 316530, Control_c, 0, 64, 63
1, 316545, Control_c, 0, 64, 64
1, 316560, Control_c, 0, 64, 65
1, 316574, Control_c, 0, 64, 66
1, 316589, Control_c, 0, 64, 69
1, 316604, Control_c, 0, 64, 73
1, 316619, Control_c, 0, 64, 78
1, 316634, Control_c, 0, 64, 82
1, 316648, Control_c, 0, 64, 84
1, 316663, Control_c, 0, 64, 85
1, 316678, Control_c, 0, 64, 87
1, 316693, Control_c, 0, 64, 89
1, 316708, Control_c, 0, 64, 93
1, 316722, Control_c, 0, 64, 98
1, 316737, Control_c, 0, 64, 102
1, 316752, Control_c, 0, 64, 107
1, 316767, Control_c, 0, 64, 111
1, 316782, Control_c, 0, 64, 116
1, 316796, Control_c, 0, 64, 124
1, 316811, Control_c, 0, 64, 127
1, 316864, Note_on_c, 0, 80, 39
1, 317011, Note_off_c, 0, 56, 42
1, 317063, Note_off_c, 0, 65, 37
1, 317068, Note_off_c, 0, 85, 58
1, 317089, Note_off_c, 0, 68, 42
1, 317099, Note_off_c, 0, 77, 34
1, 317141, Note_off_c, 0, 80, 42
1, 317284, Note_off_c, 0, 73, 61
1, 318169, Note_on_c, 0, 72, 44
1, 318309, Note_off_c, 0, 72, 42
1, 318501, Note_on_c, 0, 70, 58
1, 318517, Control_c, 0, 64, 107
1, 318532, Control_c, 0, 64, 96
1, 318547, Control_c, 0, 64, 93
1, 318577, Control_c, 0, 64, 94
1, 318591, Control_c, 0, 64, 95
1, 318606, Control_c, 0, 64, 96
1, 318621, Control_c, 0, 64, 98
1, 318634, Note_off_c, 0, 70, 56
1, 318635, Control_c, 0, 64, 99
1, 318650, Control_c, 0, 64, 101
1, 318665, Control_c, 0, 64, 103
1, 318680, Control_c, 0, 64, 105
1, 318695, Control_c, 0, 64, 107
1, 318709, Control_c, 0, 64, 109
1, 318724, Control_c, 0, 64, 110
1, 318762, Control_c, 0, 64, 110
1, 318777, Control_c, 0, 64, 100
1, 318791, Control_c, 0, 64, 84
1, 318798, Note_on_c, 0, 69, 67
1, 318806, Control_c, 0, 64, 67
1, 318821, Control_c, 0, 64, 31
1, 318836, Control_c, 0, 64, 0
1, 318850, Control_c, 0, 64, 23
1, 318865, Control_c, 0, 64, 53
1, 318880, Control_c, 0, 64, 67
1, 318895, Control_c, 0, 64, 78
1, 318910, Control_c, 0, 64, 95
1, 318924, Control_c, 0, 64, 114
1, 318926, Note_off_c, 0, 69, 65
1, 318939, Control_c, 0, 64, 119
1, 318969, Control_c, 0, 64, 121
1, 318984, Control_c, 0, 64, 127
1, 319072, Control_c, 0, 64, 120
1, 319081, Note_on_c, 0, 68, 74
1, 319087, Control_c, 0, 64, 92
1, 319102, Control_c, 0, 64, 68
1, 319117, Control_c, 0, 64, 40
1, 319132, Control_c, 0, 64, 0
1, 319176, Control_c, 0, 64, 39
1, 319191, Control_c, 0, 64, 62
1, 319206, Control_c, 0, 64, 71
1, 319221, Control_c, 0, 64, 79
1, 319235, Control_c, 0, 64, 85
1, 319250, Control_c, 0, 64, 88
1, 319266, Control_c, 0, 64, 90
1, 319281, Control_c, 0, 64, 94
1, 319296, Control_c, 0, 64, 100
1, 319310, Note_on_c, 0, 54, 36
1, 319311, Control_c, 0, 64, 109
1, 319326, Control_c, 0, 64, 127
1, 319387, Note_on_c, 0, 80, 63
1, 319415, Note_off_c, 0, 68, 60
1, 319420, Note_on_c, 0, 72, 26
1, 319423, Note_on_c, 0, 75, 36
1, 319449, Note_off_c, 0, 54, 33
1, 319455, Note_off_c, 0, 72, 46
1, 319469, Note_off_c, 0, 75, 45
1, 319619, Note_off_c, 0, 80, 25
1, 319660, Note_on_c, 0, 60, 44
1, 319665, Note_on_c, 0, 68, 39
1, 319684, Note_on_c, 0, 63, 20
1, 319710, Note_on_c, 0, 77, 85
1, 319746, Note_off_c, 0, 60, 53
1, 319752, Note_off_c, 0, 68, 60
1, 319785, Note_off_c, 0, 63, 31
1, 319979, Note_on_c, 0, 89, 64
1, 320012, Note_off_c, 0, 89, 63
1, 320047, Note_off_c, 0, 77, 51
1, 320252, Note_on_c, 0, 75, 85
1, 320434, Note_on_c, 0, 53, 40
1, 320511, Control_c, 0, 64, 94
1, 320526, Control_c, 0, 64, 71
1, 320541, Control_c, 0, 64, 40
1, 320556, Control_c, 0, 64, 0
1, 320563, Note_on_c, 0, 87, 57
1, 320570, Control_c, 0, 64, 39
1, 320572, Note_on_c, 0, 80, 48
1, 320585, Control_c, 0, 64, 61
1, 320600, Control_c, 0, 64, 74
1, 320610, Note_off_c, 0, 53, 60
1, 320614, Control_c, 0, 64, 98
1, 320629, Control_c, 0, 64, 127
1, 320687, Note_off_c, 0, 87, 61
1, 320743, Note_off_c, 0, 75, 58
1, 320765, Note_off_c, 0, 80, 64
1, 320845, Note_on_c, 0, 68, 44
1, 320846, Note_on_c, 0, 61, 41
1, 320876, Note_off_c, 0, 61, 50
1, 320882, Control_c, 0, 67, 111
1, 320893, Note_off_c, 0, 68, 57
1, 320897, Control_c, 0, 67, 84
1, 320912, Control_c, 0, 67, 54
1, 320927, Control_c, 0, 67, 24
1, 320942, Control_c, 0, 67, 0
1, 321082, Note_on_c, 0, 73, 76
1, 321161, Note_off_c, 0, 73, 50
1, 321341, Note_on_c, 0, 73, 77
1, 321393, Control_c, 0, 64, 86
1, 321408, Control_c, 0, 64, 66
1, 321423, Control_c, 0, 64, 38
1, 321437, Control_c, 0, 64, 0
1, 321467, Control_c, 0, 64, 49
1, 321483, Control_c, 0, 64, 67
1, 321498, Control_c, 0, 64, 88
1, 321499, Note_on_c, 0, 51, 33
1, 321512, Control_c, 0, 64, 127
1, 321572, Note_on_c, 0, 85, 59
1, 321602, Note_on_c, 0, 78, 49
1, 321616, Note_off_c, 0, 85, 57
1, 321630, Note_off_c, 0, 78, 56
1, 321642, Note_off_c, 0, 73, 59
1, 321666, Note_off_c, 0, 51, 43
1, 321837, Note_on_c, 0, 57, 40
1, 321842, Note_on_c, 0, 60, 26
1, 321860, Note_on_c, 0, 66, 24
1, 321905, Note_on_c, 0, 69, 75
1, 321908, Note_off_c, 0, 60, 38
1, 321928, Note_off_c, 0, 66, 42
1, 321968, Note_off_c, 0, 57, 37
1, 322191, Note_on_c, 0, 78, 49
1, 322198, Note_on_c, 0, 81, 45
1, 322222, Note_off_c, 0, 78, 54
1, 322232, Note_off_c, 0, 81, 46
1, 322254, Note_off_c, 0, 69, 44
1, 322421, Note_on_c, 0, 69, 78
1, 322634, Note_on_c, 0, 49, 36
1, 322758, Control_c, 0, 64, 112
1, 322773, Control_c, 0, 64, 93
1, 322788, Control_c, 0, 64, 79
1, 322802, Control_c, 0, 64, 67
1, 322807, Note_on_c, 0, 81, 46
1, 322811, Note_on_c, 0, 77, 35
1, 322817, Control_c, 0, 64, 53
1, 322832, Control_c, 0, 64, 0
1, 322847, Control_c, 0, 67, 10
1, 322862, Control_c, 0, 67, 18
1, 322876, Control_c, 0, 67, 28
1, 322891, Control_c, 0, 64, 51
1, 322891, Control_c, 0, 67, 40
1, 322906, Control_c, 0, 64, 68
1, 322906, Control_c, 0, 67, 58
1, 322921, Control_c, 0, 64, 89
1, 322921, Control_c, 0, 67, 80
1, 322936, Control_c, 0, 64, 127
1, 322936, Control_c, 0, 67, 101
1, 322951, Control_c, 0, 67, 121
1, 322966, Control_c, 0, 67, 127
1, 323040, Note_off_c, 0, 49, 40
1, 323306, Note_off_c, 0, 81, 36
1, 323353, Note_off_c, 0, 69, 35
1, 323356, Note_on_c, 0, 58, 37
1, 323363, Note_on_c, 0, 65, 40
1, 323398, Note_off_c, 0, 58, 46
1, 323440, Note_off_c, 0, 65, 49
1, 323511, Note_off_c, 0, 77, 39
1, 323666, Note_on_c, 0, 70, 71
1, 323699, Control_c, 0, 67, 118
1, 323714, Control_c, 0, 67, 96
1, 323729, Control_c, 0, 67, 72
1, 323744, Control_c, 0, 67, 48
1, 323758, Control_c, 0, 67, 27
1, 323773, Control_c, 0, 67, 8
1, 323788, Control_c, 0, 67, 0
1, 323859, Note_off_c, 0, 70, 31
1, 323949, Note_on_c, 0, 71, 70
1, 324122, Control_c, 0, 64, 111
1, 324137, Control_c, 0, 64, 79
1, 324152, Control_c, 0, 64, 50
1, 324167, Control_c, 0, 64, 0
1, 324169, Note_on_c, 0, 50, 49
1, 324226, Control_c, 0, 64, 34
1, 324241, Control_c, 0, 64, 63
1, 324255, Control_c, 0, 64, 81
1, 324257, Note_on_c, 0, 80, 50
1, 324262, Note_on_c, 0, 83, 48
1, 324270, Control_c, 0, 64, 121
1, 324279, Note_on_c, 0, 77, 40
1, 324285, Control_c, 0, 64, 127
1, 324304, Note_off_c, 0, 50, 37
1, 324310, Note_off_c, 0, 83, 55
1, 324316, Note_off_c, 0, 77, 54
1, 324328, Note_off_c, 0, 80, 58
1, 324367, Note_off_c, 0, 71, 52
1, 324522, Note_on_c, 0, 56, 40
1, 324524, Note_on_c, 0, 65, 34
1, 324541, Note_on_c, 0, 71, 79
1, 324556, Note_off_c, 0, 65, 53
1, 324560, Note_on_c, 0, 59, 25
1, 324611, Note_off_c, 0, 59, 44
1, 324636, Note_off_c, 0, 56, 34
1, 324775, Note_on_c, 0, 51, 63
1, 324812, Note_on_c, 0, 83, 66
1, 324817, Note_on_c, 0, 75, 61
1, 324835, Note_on_c, 0, 80, 56
1, 324872, Control_c, 0, 64, 99
1, 324886, Control_c, 0, 64, 84
1, 324901, Control_c, 0, 64, 81
1, 324916, Control_c, 0, 64, 86
1, 324931, Control_c, 0, 64, 127
1, 324947, Note_off_c, 0, 71, 42
1, 325027, Note_off_c, 0, 83, 28
1, 325031, Note_on_c, 0, 56, 56
1, 325052, Note_on_c, 0, 59, 37
1, 325055, Note_on_c, 0, 71, 87
1, 325060, Note_on_c, 0, 63, 44
1, 325072, Note_off_c, 0, 75, 63
1, 325148, Note_off_c, 0, 51, 61
1, 325177, Note_off_c, 0, 63, 35
1, 325180, Note_off_c, 0, 80, 39
1, 325303, Note_on_c, 0, 52, 74
1, 325306, Note_off_c, 0, 59, 0
1, 325343, Poly_aftertouch_c, 0, 59, 127
1, 325345, Note_on_c, 0, 59, 3
1, 325346, Control_c, 0, 64, 84
1, 325357, Note_on_c, 0, 83, 85
1, 325360, Control_c, 0, 64, 59
1, 325362, Note_on_c, 0, 74, 73
1, 325370, Note_on_c, 0, 80, 74
1, 325375, Control_c, 0, 64, 0
1, 325401, Note_off_c, 0, 56, 43
1, 325404, Control_c, 0, 64, 13
1, 325419, Control_c, 0, 64, 60
1, 325434, Control_c, 0, 64, 76
1, 325449, Control_c, 0, 64, 100
1, 325460, Note_off_c, 0, 59, 39
1, 325464, Control_c, 0, 64, 127
1, 325498, Note_off_c, 0, 83, 62
1, 325526, Note_off_c, 0, 80, 63
1, 325538, Note_off_c, 0, 71, 56
1, 325553, Note_off_c, 0, 74, 67
1, 325660, Note_on_c, 0, 62, 79
1, 325665, Note_on_c, 0, 56, 70
1, 325690, Note_off_c, 0, 62, 65
1, 325692, Note_on_c, 0, 59, 36
1, 325711, Note_off_c, 0, 52, 62
1, 325722, Note_off_c, 0, 56, 62
1, 325726, Note_off_c, 0, 59, 47
1, 326057, Note_on_c, 0, 70, 84
1, 326062, Note_on_c, 0, 40, 79
1, 326066, Note_on_c, 0, 62, 70
1, 326073, Note_on_c, 0, 68, 73
1, 326080, Control_c, 0, 64, 102
1, 326095, Control_c, 0, 64, 75
1, 326109, Control_c, 0, 64, 49
1, 326124, Control_c, 0, 64, 0
1, 326168, Control_c, 0, 64, 42
1, 326183, Control_c, 0, 64, 62
1, 326198, Control_c, 0, 64, 73
1, 326213, Control_c, 0, 64, 84
1, 326235, Control_c, 0, 64, 98
1, 326250, Control_c, 0, 64, 115
1, 326265, Control_c, 0, 64, 127
1, 326535, Note_off_c, 0, 40, 50
1, 326655, Note_on_c, 0, 39, 75
1, 326695, Control_c, 0, 64, 91
1, 326710, Control_c, 0, 64, 69
1, 326724, Control_c, 0, 64, 40
1, 326739, Control_c, 0, 64, 0
1, 326783, Control_c, 0, 64, 43
1, 326798, Control_c, 0, 64, 63
1, 326813, Control_c, 0, 64, 75
1, 326828, Control_c, 0, 64, 97
1, 326843, Control_c, 0, 64, 127
1, 326898, Note_off_c, 0, 39, 59
1, 326955, Note_off_c, 0, 68, 48
1, 326958, Note_off_c, 0, 62, 52
1, 327392, Note_on_c, 0, 72, 61
1, 327402, Note_on_c, 0, 68, 45
1, 327407, Note_on_c, 0, 65, 49
1, 327410, Note_on_c, 0, 61, 48
1, 327413, Note_on_c, 0, 51, 46
1, 327414, Note_on_c, 0, 58, 45
1, 327441, Note_on_c, 0, 56, 41
1, 327591, Note_off_c, 0, 58, 56
1, 327594, Note_off_c, 0, 51, 52
1, 327595, Note_off_c, 0, 61, 58
1, 327610, Note_off_c, 0, 72, 57
1, 327611, Note_off_c, 0, 68, 36
1, 327616, Note_off_c, 0, 56, 40
1, 327639, Note_off_c, 0, 65, 35
1, 327747, Note_on_c, 0, 72, 69
1, 327757, Note_off_c, 0, 70, 24
1, 327762, Note_on_c, 0, 56, 29
1, 327764, Note_on_c, 0, 51, 43
1, 327765, Note_on_c, 0, 58, 37
1, 327765, Note_on_c, 0, 68, 50
1, 327774, Note_on_c, 0, 65, 50
1, 327778, Note_on_c, 0, 61, 36
1, 327810, Note_off_c, 0, 72, 62
1, 327823, Note_off_c, 0, 65, 43
1, 327830, Note_off_c, 0, 68, 54
1, 327854, Note_off_c, 0, 61, 55
1, 327860, Note_off_c, 0, 58, 51
1, 327864, Note_off_c, 0, 51, 52
1, 327881, Note_off_c, 0, 56, 36
1, 328051, Note_on_c, 0, 73, 71
1, 328053, Note_on_c, 0, 65, 50
1, 328061, Note_on_c, 0, 68, 61
1, 328074, Note_on_c, 0, 51, 45
1, 328086, Note_on_c, 0, 61, 42
1, 328098, Note_on_c, 0, 56, 25
1, 328102, Note_on_c, 0, 58, 26
1, 328144, Note_off_c, 0, 61, 52
1, 328146, Note_off_c, 0, 58, 46
1, 328147, Note_off_c, 0, 51, 50
1, 328158, Note_off_c, 0, 68, 54
1, 328163, Note_off_c, 0, 56, 41
1, 328166, Note_off_c, 0, 73, 57
1, 328191, Note_off_c, 0, 65, 35
1, 328334, Note_on_c, 0, 73, 73
1, 328344, Note_on_c, 0, 68, 65
1, 328349, Note_on_c, 0, 65, 57
1, 328350, Note_on_c, 0, 51, 45
1, 328369, Note_on_c, 0, 56, 33
1, 328370, Note_on_c, 0, 58, 34
1, 328371, Note_on_c, 0, 61, 35
1, 328424, Note_off_c, 0, 58, 43
1, 328433, Note_off_c, 0, 51, 49
1, 328435, Note_off_c, 0, 56, 52
1, 328440, Note_off_c, 0, 68, 52
1, 328459, Note_off_c, 0, 61, 38
1, 328485, Note_off_c, 0, 65, 29
1, 328617, Note_off_c, 0, 73, 0
1, 328620, Note_on_c, 0, 75, 80
1, 328627, Note_on_c, 0, 73, 47
1, 328628, Note_on_c, 0, 68, 61
1, 328633, Note_on_c, 0, 65, 57
1, 328634, Note_on_c, 0, 51, 42
1, 328639, Note_on_c, 0, 61, 46
1, 328645, Note_on_c, 0, 58, 46
1, 328659, Note_on_c, 0, 56, 28
1, 328688, Note_off_c, 0, 61, 57
1, 328696, Note_off_c, 0, 68, 55
1, 328703, Note_off_c, 0, 51, 56
1, 328710, Note_off_c, 0, 58, 56
1, 328715, Note_off_c, 0, 65, 45
1, 328728, Note_off_c, 0, 56, 42
1, 328749, Note_off_c, 0, 75, 54
1, 328772, Note_off_c, 0, 73, 33
1, 328889, Note_on_c, 0, 75, 80
1, 328904, Note_on_c, 0, 65, 59
1, 328906, Note_on_c, 0, 73, 64
1, 328910, Note_on_c, 0, 51, 46
1, 328911, Note_on_c, 0, 68, 55
1, 328918, Note_on_c, 0, 58, 46
1, 328920, Note_on_c, 0, 61, 43
1, 328921, Note_on_c, 0, 56, 29
1, 328969, Note_off_c, 0, 51, 51
1, 328972, Note_off_c, 0, 61, 58
1, 328984, Note_off_c, 0, 58, 51
1, 328988, Note_off_c, 0, 56, 52
1, 329031, Note_off_c, 0, 68, 33
1, 329038, Note_off_c, 0, 73, 37
1, 329045, Note_off_c, 0, 65, 36
1, 329087, Note_off_c, 0, 75, 26
1, 329147, Note_on_c, 0, 76, 81
1, 329159, Note_on_c, 0, 73, 67
1, 329160, Note_on_c, 0, 65, 58
1, 329161, Note_on_c, 0, 68, 57
1, 329167, Note_on_c, 0, 51, 46
1, 329170, Note_on_c, 0, 56, 34
1, 329171, Note_on_c, 0, 58, 40
1, 329173, Note_on_c, 0, 61, 46
1, 329233, Note_off_c, 0, 51, 55
1, 329237, Note_off_c, 0, 61, 57
1, 329238, Note_off_c, 0, 56, 52
1, 329245, Note_off_c, 0, 58, 57
1, 329285, Note_off_c, 0, 73, 53
1, 329295, Note_off_c, 0, 76, 49
1, 329311, Note_off_c, 0, 68, 35
1, 329317, Note_off_c, 0, 65, 34
1, 329416, Note_on_c, 0, 76, 82
1, 329434, Note_on_c, 0, 65, 60
1, 329436, Note_on_c, 0, 73, 66
1, 329437, Note_on_c, 0, 51, 49
1, 329440, Note_on_c, 0, 68, 53
1, 329447, Note_on_c, 0, 58, 43
1, 329449, Note_on_c, 0, 61, 42
1, 329462, Note_on_c, 0, 56, 35
1, 329471, Note_off_c, 0, 68, 55
1, 329481, Note_off_c, 0, 51, 55
1, 329488, Note_off_c, 0, 73, 56
1, 329489, Note_off_c, 0, 61, 49
1, 329491, Note_off_c, 0, 58, 58
1, 329510, Note_off_c, 0, 76, 59
1, 329515, Note_off_c, 0, 56, 42
1, 329552, Note_off_c, 0, 65, 33
1, 329614, Note_on_c, 0, 51, 47
1, 329649, Note_on_c, 0, 65, 51
1, 329676, Note_on_c, 0, 56, 53
1, 329682, Note_on_c, 0, 77, 81
1, 329689, Note_on_c, 0, 73, 48
1, 329705, Note_on_c, 0, 61, 56
1, 329714, Note_off_c, 0, 51, 37
1, 329724, Note_off_c, 0, 65, 58
1, 329738, Note_off_c, 0, 73, 46
1, 329741, Note_off_c, 0, 61, 59
1, 329744, Note_off_c, 0, 77, 62
1, 329818, Note_off_c, 0, 56, 56
1, 329851, Note_on_c, 0, 51, 52
1, 329890, Note_on_c, 0, 65, 64
1, 329920, Note_on_c, 0, 73, 66
1, 329935, Note_on_c, 0, 56, 52
1, 329947, Note_on_c, 0, 61, 53
1, 329947, Note_on_c, 0, 78, 84
1, 329947, Note_off_c, 0, 65, 51
1, 329954, Note_off_c, 0, 51, 50
1, 329968, Note_off_c, 0, 73, 61
1, 329994, Note_off_c, 0, 61, 56
1, 330059, Note_off_c, 0, 78, 59
1, 330066, Note_off_c, 0, 56, 56
1, 330080, Note_on_c, 0, 68, 50
1, 330092, Note_on_c, 0, 51, 53
1, 330105, Note_off_c, 0, 68, 56
1, 330134, Note_on_c, 0, 65, 64
1, 330155, Note_on_c, 0, 73, 66
1, 330176, Note_off_c, 0, 65, 64
1, 330188, Note_on_c, 0, 56, 57
1, 330195, Note_off_c, 0, 51, 52
1, 330205, Note_on_c, 0, 61, 56
1, 330213, Note_off_c, 0, 73, 60
1, 330216, Note_on_c, 0, 79, 79
1, 330235, Note_off_c, 0, 61, 61
1, 330259, Note_off_c, 0, 79, 59
1, 330296, Note_off_c, 0, 56, 57
1, 330334, Note_on_c, 0, 51, 54
1, 330405, Note_on_c, 0, 65, 55
1, 330416, Note_on_c, 0, 56, 59
1, 330419, Note_on_c, 0, 73, 63
1, 330427, Note_off_c, 0, 65, 61
1, 330433, Poly_aftertouch_c, 0, 68, 0
1, 330448, Note_off_c, 0, 73, 68
1, 330457, Note_on_c, 0, 61, 53
1, 330478, Note_on_c, 0, 80, 92
1, 330484, Note_off_c, 0, 51, 36
1, 330506, Note_off_c, 0, 61, 54
1, 330516, Note_off_c, 0, 80, 67
1, 330580, Note_off_c, 0, 56, 54
1, 330605, Note_on_c, 0, 51, 53
1, 330684, Note_on_c, 0, 65, 53
1, 330695, Note_on_c, 0, 58, 37
1, 330708, Note_off_c, 0, 65, 58
1, 330723, Note_on_c, 0, 73, 66
1, 330731, Note_off_c, 0, 58, 57
1, 330739, Note_off_c, 0, 73, 66
1, 330749, Note_on_c, 0, 56, 16
1, 330753, Note_on_c, 0, 61, 58
1, 330782, Note_on_c, 0, 81, 90
1, 330790, Note_off_c, 0, 61, 56
1, 330793, Note_off_c, 0, 56, 51
1, 330826, Note_off_c, 0, 51, 30
1, 330831, Note_off_c, 0, 81, 60
1, 330936, Note_on_c, 0, 51, 66
1, 331008, Control_c, 0, 64, 83
1, 331009, Note_on_c, 0, 55, 58
1, 331011, Note_on_c, 0, 67, 64
1, 331023, Control_c, 0, 64, 62
1, 331038, Control_c, 0, 64, 0
1, 331045, Note_off_c, 0, 67, 54
1, 331050, Note_on_c, 0, 73, 56
1, 331053, Control_c, 0, 64, 22
1, 331068, Control_c, 0, 64, 57
1, 331069, Note_off_c, 0, 73, 63
1, 331070, Note_on_c, 0, 75, 60
1, 331075, Note_on_c, 0, 61, 65
1, 331083, Control_c, 0, 64, 72
1, 331088, Note_off_c, 0, 75, 62
1, 331097, Control_c, 0, 64, 97
1, 331112, Control_c, 0, 64, 127
1, 331113, Note_on_c, 0, 82, 92
1, 331120, Note_off_c, 0, 61, 58
1, 331133, Note_on_c, 0, 63, 63
1, 331135, Note_off_c, 0, 51, 52
1, 331163, Note_off_c, 0, 82, 61
1, 331166, Note_off_c, 0, 63, 61
1, 331218, Note_off_c, 0, 55, 33
1, 331330, Note_on_c, 0, 51, 59
1, 331363, Note_on_c, 0, 67, 63
1, 331370, Note_off_c, 0, 51, 53
1, 331387, Note_on_c, 0, 55, 46
1, 331422, Note_off_c, 0, 67, 57
1, 331441, Note_on_c, 0, 73, 54
1, 331484, Note_off_c, 0, 73, 59
1, 331485, Note_off_c, 0, 55, 60
1, 331488, Note_on_c, 0, 75, 71
1, 331490, Note_on_c, 0, 61, 61
1, 331536, Note_off_c, 0, 75, 62
1, 331545, Note_off_c, 0, 61, 59
1, 331578, Note_on_c, 0, 63, 76
1, 331578, Note_on_c, 0, 83, 93
1, 331604, Note_off_c, 0, 63, 66
1, 331653, Note_off_c, 0, 83, 59
1, 332194, Note_on_c, 0, 32, 63
1, 332225, Control_c, 0, 64, 89
1, 332240, Control_c, 0, 64, 62
1, 332247, Note_on_c, 0, 44, 58
1, 332254, Note_on_c, 0, 84, 97
1, 332255, Control_c, 0, 64, 0
1, 332261, Note_on_c, 0, 72, 80
1, 332299, Control_c, 0, 64, 59
1, 332314, Control_c, 0, 64, 77
1, 332318, Note_off_c, 0, 84, 65
1, 332323, Note_off_c, 0, 32, 62
1, 332329, Control_c, 0, 64, 127
1, 332356, Note_off_c, 0, 44, 61
1, 332361, Note_off_c, 0, 72, 63
1, 332659, Note_on_c, 0, 72, 59
1, 332664, Note_on_c, 0, 68, 59
1, 332672, Note_on_c, 0, 60, 46
1, 332674, Note_on_c, 0, 63, 44
1, 332676, Note_on_c, 0, 56, 43
1, 332677, Note_on_c, 0, 51, 31
1, 332684, Control_c, 0, 67, 17
1, 332699, Control_c, 0, 67, 35
1, 332701, Note_off_c, 0, 72, 60
1, 332704, Note_off_c, 0, 60, 52
1, 332705, Note_off_c, 0, 63, 51
1, 332707, Note_off_c, 0, 56, 55
1, 332713, Control_c, 0, 67, 54
1, 332718, Note_off_c, 0, 68, 53
1, 332719, Note_off_c, 0, 51, 46
1, 332728, Control_c, 0, 67, 71
1, 332743, Control_c, 0, 67, 83
1, 332758, Control_c, 0, 67, 97
1, 332773, Control_c, 0, 67, 127
1, 332907, Note_on_c, 0, 68, 74
1, 332922, Note_on_c, 0, 56, 46
1, 332923, Note_on_c, 0, 63, 61
1, 332940, Note_on_c, 0, 60, 41
1, 332946, Note_off_c, 0, 63, 59
1, 332955, Note_off_c, 0, 56, 59
1, 332974, Note_off_c, 0, 60, 51
1, 332981, Note_off_c, 0, 68, 60
1, 333033, Control_c, 0, 67, 120
1, 333048, Control_c, 0, 67, 85
1, 333063, Control_c, 0, 67, 42
1, 333078, Control_c, 0, 67, 0
1, 333135, Note_on_c, 0, 51, 57
1, 333142, Note_on_c, 0, 72, 78
1, 333145, Note_on_c, 0, 63, 60
1, 333148, Note_on_c, 0, 68, 66
1, 333168, Note_off_c, 0, 63, 63
1, 333172, Note_off_c, 0, 51, 61
1, 333179, Note_off_c, 0, 68, 64
1, 333199, Note_off_c, 0, 72, 65
1, 333220, Poly_aftertouch_c, 0, 56, 0
1, 333414, Note_on_c, 0, 32, 65
1, 333418, Control_c, 0, 64, 102
1, 333433, Control_c, 0, 64, 67
1, 333434, Note_on_c, 0, 44, 75
1, 333448, Control_c, 0, 64, 0
1, 333459, Note_on_c, 0, 89, 104
1, 333461, Note_on_c, 0, 77, 95
1, 333491, Control_c, 0, 64, 35
1, 333506, Note_off_c, 0, 32, 63
1, 333506, Control_c, 0, 64, 83
1, 333521, Note_off_c, 0, 89, 67
1, 333521, Control_c, 0, 64, 127
1, 333546, Note_off_c, 0, 44, 60
1, 333563, Note_off_c, 0, 77, 62
1, 333801, Note_on_c, 0, 77, 73
1, 333813, Note_on_c, 0, 68, 61
1, 333814, Note_on_c, 0, 50, 56
1, 333819, Note_on_c, 0, 56, 51
1, 333819, Note_on_c, 0, 71, 54
1, 333822, Note_on_c, 0, 65, 50
1, 333832, Note_on_c, 0, 59, 42
1, 333849, Note_off_c, 0, 50, 62
1, 333849, Note_off_c, 0, 68, 57
1, 333855, Note_off_c, 0, 65, 50
1, 333858, Note_off_c, 0, 71, 59
1, 333866, Note_off_c, 0, 59, 52
1, 333870, Note_off_c, 0, 56, 57
1, 333870, Note_off_c, 0, 77, 61
1, 334034, Note_on_c, 0, 71, 75
1, 334038, Note_on_c, 0, 68, 72
1, 334043, Note_on_c, 0, 56, 57
1, 334048, Note_on_c, 0, 65, 69
1, 334057, Note_on_c, 0, 59, 41
1, 334078, Note_off_c, 0, 56, 59
1, 334092, Note_off_c, 0, 59, 54
1, 334100, Note_off_c, 0, 68, 60
1, 334118, Note_off_c, 0, 71, 59
1, 334183, Note_off_c, 0, 65, 35
1, 334282, Note_on_c, 0, 77, 94
1, 334287, Note_on_c, 0, 50, 63
1, 334296, Note_on_c, 0, 65, 65
1, 334299, Note_on_c, 0, 68, 53
1, 334299, Note_on_c, 0, 71, 67
1, 334299, Note_on_c, 0, 56, 59
1, 334314, Note_off_c, 0, 65, 70
1, 334318, Note_off_c, 0, 56, 62
1, 334320, Note_off_c, 0, 68, 60
1, 334328, Note_off_c, 0, 50, 61
1, 334348, Poly_aftertouch_c, 0, 59, 0
1, 334350, Note_off_c, 0, 71, 61
1, 334368, Note_off_c, 0, 77, 64
1, 334373, Poly_aftertouch_c, 0, 59, 0
1, 334584, Note_on_c, 0, 88, 99
1, 334592, Note_on_c, 0, 76, 84
1, 334616, Note_off_c, 0, 76, 67
1, 334630, Note_off_c, 0, 88, 62
1, 334679, Control_c, 0, 64, 100
1, 334687, Note_on_c, 0, 88, 95
1, 334694, Control_c, 0, 64, 70
1, 334695, Note_on_c, 0, 76, 96
1, 334696, Note_on_c, 0, 32, 65
1, 334696, Note_on_c, 0, 44, 62
1, 334709, Control_c, 0, 64, 0
1, 334753, Control_c, 0, 64, 51
1, 334768, Control_c, 0, 64, 71
1, 334777, Note_off_c, 0, 88, 65
1, 334783, Control_c, 0, 64, 92
1, 334796, Note_off_c, 0, 32, 62
1, 334797, Control_c, 0, 64, 127
1, 334830, Note_off_c, 0, 76, 66
1, 334831, Note_off_c, 0, 44, 61
1, 334901, Control_c, 0, 67, 14
1, 334916, Control_c, 0, 67, 37
1, 334931, Control_c, 0, 67, 66
1, 334946, Control_c, 0, 67, 100
1, 334961, Control_c, 0, 67, 127
1, 335136, Note_on_c, 0, 76, 69
1, 335162, Note_on_c, 0, 68, 49
1, 335165, Note_on_c, 0, 56, 42
1, 335166, Note_on_c, 0, 51, 24
1, 335173, Note_on_c, 0, 64, 36
1, 335178, Note_on_c, 0, 60, 26
1, 335198, Note_off_c, 0, 56, 53
1, 335204, Note_off_c, 0, 64, 54
1, 335215, Note_off_c, 0, 76, 61
1, 335216, Note_off_c, 0, 51, 46
1, 335223, Note_off_c, 0, 60, 42
1, 335226, Note_off_c, 0, 68, 47
1, 335400, Note_on_c, 0, 72, 67
1, 335402, Note_on_c, 0, 68, 65
1, 335405, Note_on_c, 0, 64, 65
1, 335405, Note_on_c, 0, 56, 49
1, 335409, Note_on_c, 0, 60, 46
1, 335447, Note_off_c, 0, 64, 56
1, 335452, Note_off_c, 0, 56, 56
1, 335461, Note_off_c, 0, 60, 55
1, 335463, Note_off_c, 0, 68, 61
1, 335481, Note_off_c, 0, 72, 61
1, 335487, Control_c, 0, 67, 120
1, 335502, Control_c, 0, 67, 106
1, 335517, Control_c, 0, 67, 87
1, 335532, Control_c, 0, 67, 67
1, 335546, Control_c, 0, 67, 44
1, 335561, Control_c, 0, 67, 20
1, 335576, Control_c, 0, 67, 0
1, 335631, Note_on_c, 0, 76, 74
1, 335637, Note_on_c, 0, 68, 65
1, 335641, Note_on_c, 0, 51, 45
1, 335644, Note_on_c, 0, 64, 62
1, 335647, Note_on_c, 0, 56, 36
1, 335647, Note_on_c, 0, 60, 50
1, 335670, Note_off_c, 0, 68, 60
1, 335679, Note_off_c, 0, 64, 62
1, 335682, Note_off_c, 0, 60, 48
1, 335684, Note_off_c, 0, 51, 46
1, 335685, Note_off_c, 0, 56, 45
1, 335696, Note_off_c, 0, 76, 64
1, 335894, Note_on_c, 0, 72, 76
1, 335899, Note_on_c, 0, 68, 58
1, 335902, Note_on_c, 0, 64, 52
1, 335903, Note_on_c, 0, 60, 65
1, 335905, Note_on_c, 0, 56, 51
1, 335921, Note_off_c, 0, 68, 63
1, 335924, Note_off_c, 0, 64, 59
1, 335976, Note_off_c, 0, 72, 66
1, 336010, Note_off_c, 0, 56, 55
1, 336131, Note_off_c, 0, 60, 53
1, 336237, Note_on_c, 0, 87, 85
1, 336249, Note_on_c, 0, 75, 71
1, 336254, Note_on_c, 0, 63, 50
1, 336281, Note_off_c, 0, 87, 66
1, 336289, Note_off_c, 0, 75, 59
1, 336290, Note_off_c, 0, 63, 60
1, 336590, Note_on_c, 0, 80, 90
1, 336591, Control_c, 0, 64, 93
1, 336594, Note_on_c, 0, 68, 76
1, 336606, Control_c, 0, 64, 74
1, 336621, Control_c, 0, 64, 66
1, 336636, Control_c, 0, 64, 67
1, 336651, Control_c, 0, 64, 72
1, 336666, Control_c, 0, 64, 82
1, 336681, Control_c, 0, 64, 99
1, 336684, Note_off_c, 0, 68, 64
1, 336696, Control_c, 0, 64, 127
1, 336711, Note_off_c, 0, 80, 64
1, 336872, Note_on_c, 0, 82, 100
1, 336878, Note_on_c, 0, 70, 82
1, 336943, Note_off_c, 0, 70, 61
1, 337090, Note_off_c, 0, 82, 53
1, 337112, Note_on_c, 0, 32, 65
1, 337119, Control_c, 0, 64, 93
1, 337133, Control_c, 0, 64, 59
1, 337148, Control_c, 0, 64, 0
1, 337155, Note_on_c, 0, 44, 73
1, 337164, Note_on_c, 0, 84, 95
1, 337167, Note_on_c, 0, 72, 93
1, 337192, Control_c, 0, 64, 59
1, 337201, Note_off_c, 0, 32, 64
1, 337206, Control_c, 0, 64, 75
1, 337208, Note_off_c, 0, 84, 66
1, 337221, Control_c, 0, 64, 102
1, 337224, Note_off_c, 0, 44, 63
1, 337235, Note_off_c, 0, 72, 64
1, 337236, Control_c, 0, 64, 127
1, 337505, Note_on_c, 0, 72, 68
1, 337511, Note_on_c, 0, 63, 62
1, 337512, Note_on_c, 0, 68, 65
1, 337516, Note_on_c, 0, 60, 51
1, 337520, Note_on_c, 0, 56, 59
1, 337539, Note_off_c, 0, 60, 59
1, 337543, Note_off_c, 0, 56, 64
1, 337545, Note_off_c, 0, 63, 61
1, 337554, Note_off_c, 0, 72, 62
1, 337561, Note_off_c, 0, 68, 55
1, 337751, Note_on_c, 0, 68, 87
1, 337760, Note_on_c, 0, 63, 75
1, 337763, Note_on_c, 0, 56, 57
1, 337767, Note_on_c, 0, 60, 63
1, 337803, Note_off_c, 0, 56, 56
1, 337806, Note_off_c, 0, 60, 59
1, 337832, Note_off_c, 0, 63, 53
1, 337834, Note_off_c, 0, 68, 59
1, 337974, Note_on_c, 0, 51, 62
1, 337986, Note_on_c, 0, 72, 87
1, 337998, Note_on_c, 0, 68, 76
1, 337998, Note_on_c, 0, 63, 69
1, 338001, Note_off_c, 0, 51, 64
1, 338019, Note_off_c, 0, 63, 68
1, 338027, Note_off_c, 0, 68, 62
1, 338053, Note_off_c, 0, 72, 65
1, 338262, Note_on_c, 0, 32, 75
1, 338275, Control_c, 0, 64, 72
1, 338279, Note_on_c, 0, 44, 84
1, 338289, Control_c, 0, 64, 0
1, 338296, Note_on_c, 0, 89, 102
1, 338297, Note_on_c, 0, 77, 98
1, 338333, Control_c, 0, 64, 60
1, 338338, Note_off_c, 0, 32, 63
1, 338348, Control_c, 0, 64, 127
1, 338350, Note_off_c, 0, 89, 68
1, 338364, Note_off_c, 0, 44, 63
1, 338375, Note_off_c, 0, 77, 65
1, 338624, Note_on_c, 0, 77, 85
1, 338631, Note_on_c, 0, 68, 70
1, 338636, Note_on_c, 0, 65, 71
1, 338643, Note_on_c, 0, 71, 60
1, 338644, Note_on_c, 0, 56, 63
1, 338646, Note_on_c, 0, 59, 54
1, 338647, Note_on_c, 0, 50, 48
1, 338672, Note_off_c, 0, 59, 63
1, 338675, Note_off_c, 0, 50, 55
1, 338676, Note_off_c, 0, 56, 62
1, 338680, Note_off_c, 0, 71, 58
1, 338681, Note_off_c, 0, 68, 61
1, 338687, Note_off_c, 0, 65, 52
1, 338706, Note_off_c, 0, 77, 58
1, 338866, Note_on_c, 0, 71, 89
1, 338868, Note_on_c, 0, 56, 59
1, 338875, Note_on_c, 0, 68, 80
1, 338879, Note_on_c, 0, 59, 56
1, 338884, Note_on_c, 0, 65, 70
1, 338944, Note_off_c, 0, 56, 51
1, 338946, Note_off_c, 0, 59, 53
1, 338961, Note_off_c, 0, 65, 51
1, 338964, Note_off_c, 0, 68, 60
1, 338979, Note_off_c, 0, 71, 60
1, 339148, Note_on_c, 0, 77, 93
1, 339150, Note_on_c, 0, 59, 57
1, 339152, Note_on_c, 0, 50, 67
1, 339155, Note_on_c, 0, 68, 72
1, 339155, Note_on_c, 0, 65, 77
1, 339158, Note_on_c, 0, 71, 72
1, 339173, Note_on_c, 0, 56, 51
1, 339177, Note_off_c, 0, 59, 65
1, 339185, Note_off_c, 0, 68, 61
1, 339197, Note_off_c, 0, 65, 62
1, 339199, Note_off_c, 0, 56, 64
1, 339209, Note_off_c, 0, 50, 61
1, 339240, Note_off_c, 0, 71, 61
1, 339258, Note_off_c, 0, 77, 60
1, 339500, Note_on_c, 0, 88, 101
1, 339503, Note_on_c, 0, 76, 95
1, 339545, Note_off_c, 0, 76, 67
1, 339550, Note_off_c, 0, 88, 65
1, 339609, Note_on_c, 0, 88, 104
1, 339612, Note_on_c, 0, 44, 75
1, 339613, Note_on_c, 0, 32, 74
1, 339614, Note_on_c, 0, 76, 102
1, 339617, Control_c, 0, 64, 84
1, 339632, Control_c, 0, 64, 57
1, 339646, Control_c, 0, 64, 0
1, 339691, Control_c, 0, 64, 35
1, 339712, Control_c, 0, 64, 72
1, 339727, Control_c, 0, 64, 98
1, 339741, Note_off_c, 0, 88, 59
1, 339742, Control_c, 0, 64, 127
1, 339751, Note_off_c, 0, 32, 62
1, 339784, Note_off_c, 0, 76, 67
1, 339805, Note_off_c, 0, 44, 57
1, 340055, Control_c, 0, 67, 13
1, 340070, Control_c, 0, 67, 33
1, 340084, Control_c, 0, 67, 76
1, 340099, Control_c, 0, 67, 123
1, 340109, Note_on_c, 0, 51, 44
1, 340112, Note_on_c, 0, 76, 67
1, 340114, Control_c, 0, 67, 127
1, 340124, Note_on_c, 0, 64, 54
1, 340124, Note_on_c, 0, 68, 58
1, 340134, Note_on_c, 0, 56, 46
1, 340137, Note_on_c, 0, 60, 43
1, 340157, Note_on_c, 0, 72, 33
1, 340171, Note_off_c, 0, 51, 55
1, 340175, Note_off_c, 0, 64, 55
1, 340188, Note_off_c, 0, 76, 60
1, 340189, Note_off_c, 0, 60, 59
1, 340191, Note_off_c, 0, 68, 60
1, 340195, Note_off_c, 0, 72, 48
1, 340195, Note_off_c, 0, 56, 53
1, 340321, Control_c, 0, 67, 97
1, 340335, Control_c, 0, 67, 50
1, 340350, Control_c, 0, 67, 0
1, 340370, Note_on_c, 0, 72, 72
1, 340371, Note_on_c, 0, 68, 70
1, 340374, Note_on_c, 0, 64, 66
1, 340378, Note_on_c, 0, 60, 61
1, 340383, Note_on_c, 0, 56, 57
1, 340429, Note_off_c, 0, 60, 57
1, 340434, Note_off_c, 0, 56, 54
1, 340438, Note_off_c, 0, 68, 62
1, 340440, Note_off_c, 0, 64, 59
1, 340463, Note_off_c, 0, 72, 62
1, 340609, Note_on_c, 0, 51, 65
1, 340611, Note_on_c, 0, 76, 80
1, 340615, Note_on_c, 0, 56, 52
1, 340616, Note_on_c, 0, 68, 72
1, 340618, Note_on_c, 0, 60, 56
1, 340620, Note_on_c, 0, 64, 69
1, 340646, Note_off_c, 0, 51, 58
1, 340648, Note_off_c, 0, 56, 61
1, 340655, Note_off_c, 0, 60, 60
1, 340669, Note_off_c, 0, 64, 52
1, 340671, Note_off_c, 0, 68, 62
1, 340685, Note_off_c, 0, 76, 64
1, 340714, Poly_aftertouch_c, 0, 72, 0
1, 340846, Note_on_c, 0, 72, 80
1, 340852, Note_on_c, 0, 60, 56
1, 340858, Note_on_c, 0, 56, 47
1, 340858, Note_on_c, 0, 68, 54
1, 340860, Note_on_c, 0, 64, 51
1, 340878, Note_off_c, 0, 64, 63
1, 340880, Note_off_c, 0, 68, 59
1, 340900, Note_off_c, 0, 72, 66
1, 341095, Note_off_c, 0, 60, 60
1, 341098, Note_on_c, 0, 87, 97
1, 341104, Note_on_c, 0, 75, 87
1, 341105, Note_on_c, 0, 63, 80
1, 341135, Note_off_c, 0, 87, 69
1, 341149, Note_off_c, 0, 75, 63
1, 341168, Note_off_c, 0, 56, 62
1, 341170, Note_off_c, 0, 63, 61
1, 341379, Note_on_c, 0, 80, 95
1, 341386, Note_on_c, 0, 68, 79
1, 341402, Control_c, 0, 64, 87
1, 341417, Control_c, 0, 64, 64
1, 341432, Control_c, 0, 64, 24
1, 341447, Control_c, 0, 64, 0
1, 341462, Control_c, 0, 64, 47
1, 341469, Note_off_c, 0, 68, 63
1, 341476, Control_c, 0, 64, 66
1, 341479, Note_off_c, 0, 80, 62
1, 341491, Control_c, 0, 64, 86
1, 341506, Control_c, 0, 64, 127
1, 341619, Note_on_c, 0, 82, 101
1, 341626, Note_on_c, 0, 70, 81
1, 341676, Note_off_c, 0, 70, 64
1, 341803, Control_c, 0, 64, 84
1, 341805, Note_on_c, 0, 31, 75
1, 341817, Note_off_c, 0, 82, 58
1, 341818, Control_c, 0, 64, 54
1, 341833, Control_c, 0, 64, 0
1, 341867, Note_on_c, 0, 43, 69
1, 341877, Control_c, 0, 64, 43
1, 341879, Note_on_c, 0, 84, 94
1, 341879, Note_off_c, 0, 31, 63
1, 341883, Note_on_c, 0, 72, 86
1, 341892, Control_c, 0, 64, 73
1, 341906, Note_off_c, 0, 43, 62
1, 341907, Control_c, 0, 64, 127
1, 341922, Note_off_c, 0, 84, 67
1, 341942, Note_off_c, 0, 72, 62
1, 342152, Note_on_c, 0, 72, 84
1, 342157, Note_on_c, 0, 58, 65
1, 342166, Note_on_c, 0, 64, 58
1, 342168, Note_on_c, 0, 70, 65
1, 342170, Note_on_c, 0, 52, 59
1, 342170, Note_on_c, 0, 60, 61
1, 342185, Note_off_c, 0, 64, 63
1, 342192, Note_off_c, 0, 70, 68
1, 342200, Note_off_c, 0, 60, 64
1, 342200, Note_off_c, 0, 72, 65
1, 342218, Note_off_c, 0, 52, 52
1, 342219, Note_off_c, 0, 58, 60
1, 342355, Note_on_c, 0, 58, 58
1, 342376, Note_on_c, 0, 64, 69
1, 342422, Note_on_c, 0, 84, 104
1, 342424, Note_on_c, 0, 72, 93
1, 342434, Note_off_c, 0, 58, 58
1, 342438, Note_off_c, 0, 64, 62
1, 342461, Note_off_c, 0, 84, 69
1, 342462, Note_off_c, 0, 72, 67
1, 342628, Note_on_c, 0, 52, 61
1, 342657, Note_off_c, 0, 52, 69
1, 342668, Note_on_c, 0, 72, 80
1, 342682, Note_on_c, 0, 70, 59
1, 342714, Poly_aftertouch_c, 0, 58, 0
1, 342714, Note_off_c, 0, 70, 67
1, 342726, Note_off_c, 0, 72, 63
1, 342735, Poly_aftertouch_c, 0, 58, 0
1, 342915, Control_c, 0, 64, 81
1, 342920, Note_on_c, 0, 30, 81
1, 342929, Control_c, 0, 64, 35
1, 342944, Control_c, 0, 64, 0
1, 342950, Note_on_c, 0, 85, 101
1, 342954, Note_on_c, 0, 73, 94
1, 342955, Note_on_c, 0, 42, 81
1, 342982, Note_off_c, 0, 30, 62
1, 342989, Control_c, 0, 64, 65
1, 342997, Note_off_c, 0, 85, 70
1, 343003, Control_c, 0, 64, 98
1, 343005, Note_off_c, 0, 42, 64
1, 343006, Note_off_c, 0, 73, 64
1, 343018, Control_c, 0, 64, 127
1, 343287, Note_on_c, 0, 61, 77
1, 343287, Note_on_c, 0, 73, 82
1, 343292, Note_on_c, 0, 51, 50
1, 343295, Note_on_c, 0, 69, 76
1, 343296, Note_on_c, 0, 63, 68
1, 343308, Note_on_c, 0, 57, 48
1, 343324, Note_off_c, 0, 63, 65
1, 343325, Note_off_c, 0, 69, 61
1, 343327, Note_off_c, 0, 51, 56
1, 343337, Note_off_c, 0, 57, 54
1, 343345, Note_off_c, 0, 61, 60
1, 343349, Note_off_c, 0, 73, 62
1, 343527, Note_on_c, 0, 63, 82
1, 343536, Note_on_c, 0, 57, 68
1, 343544, Note_on_c, 0, 61, 62
1, 343570, Note_off_c, 0, 61, 63
1, 343596, Note_off_c, 0, 63, 53
1, 343695, Note_off_c, 0, 57, 0
1, 343732, Poly_aftertouch_c, 0, 57, 127
1, 343747, Note_on_c, 0, 61, 58
1, 343751, Note_on_c, 0, 51, 69
1, 343764, Note_on_c, 0, 81, 100
1, 343766, Note_on_c, 0, 69, 89
1, 343774, Note_off_c, 0, 61, 63
1, 343781, Poly_aftertouch_c, 0, 57, 0
1, 343801, Note_off_c, 0, 51, 61
1, 343808, Note_off_c, 0, 69, 66
1, 343829, Note_off_c, 0, 81, 61
1, 343989, Control_c, 0, 64, 111
1, 344004, Control_c, 0, 64, 65
1, 344010, Note_on_c, 0, 29, 82
1, 344020, Control_c, 0, 64, 0
1, 344029, Note_on_c, 0, 82, 103
1, 344032, Note_on_c, 0, 70, 89
1, 344036, Note_on_c, 0, 41, 87
1, 344064, Control_c, 0, 64, 51
1, 344066, Note_off_c, 0, 29, 62
1, 344079, Control_c, 0, 64, 84
1, 344079, Note_off_c, 0, 82, 67
1, 344086, Note_off_c, 0, 41, 64
1, 344094, Control_c, 0, 64, 127
1, 344109, Note_off_c, 0, 70, 59
1, 344143, Poly_aftertouch_c, 0, 83, 0
1, 344346, Note_on_c, 0, 50, 67
1, 344350, Note_on_c, 0, 70, 87
1, 344354, Note_on_c, 0, 62, 70
1, 344359, Note_on_c, 0, 56, 71
1, 344364, Note_on_c, 0, 58, 71
1, 344366, Note_on_c, 0, 68, 62
1, 344371, Note_off_c, 0, 62, 65
1, 344385, Note_off_c, 0, 68, 65
1, 344397, Note_off_c, 0, 70, 67
1, 344398, Note_off_c, 0, 58, 59
1, 344404, Note_off_c, 0, 50, 55
1, 344416, Note_off_c, 0, 56, 58
1, 344556, Note_on_c, 0, 56, 62
1, 344571, Note_on_c, 0, 62, 72
1, 344583, Note_on_c, 0, 58, 39
1, 344592, Note_on_c, 0, 82, 105
1, 344596, Note_on_c, 0, 70, 95
1, 344607, Note_off_c, 0, 58, 59
1, 344625, Note_off_c, 0, 56, 58
1, 344629, Note_off_c, 0, 82, 70
1, 344635, Note_off_c, 0, 62, 59
1, 344639, Note_off_c, 0, 70, 64
1, 344797, Note_on_c, 0, 50, 68
1, 344819, Note_on_c, 0, 56, 35
1, 344833, Note_on_c, 0, 70, 78
1, 344834, Note_off_c, 0, 50, 63
1, 344850, Note_off_c, 0, 56, 54
1, 344851, Note_on_c, 0, 62, 47
1, 344873, Note_off_c, 0, 62, 58
1, 344876, Note_off_c, 0, 70, 65
1, 345087, Control_c, 0, 64, 73
1, 345099, Note_on_c, 0, 28, 85
1, 345102, Control_c, 0, 64, 0
1, 345117, Note_on_c, 0, 40, 84
1, 345118, Note_on_c, 0, 84, 98
1, 345120, Note_on_c, 0, 72, 96
1, 345144, Note_off_c, 0, 28, 65
1, 345146, Control_c, 0, 64, 55
1, 345161, Control_c, 0, 64, 88
1, 345162, Note_off_c, 0, 84, 70
1, 345176, Control_c, 0, 64, 127
1, 345180, Note_off_c, 0, 40, 65
1, 345191, Note_off_c, 0, 72, 65
1, 345436, Note_on_c, 0, 72, 88
1, 345442, Note_on_c, 0, 49, 70
1, 345445, Note_on_c, 0, 61, 81
1, 345446, Note_on_c, 0, 58, 81
1, 345448, Note_on_c, 0, 67, 77
1, 345467, Note_on_c, 0, 55, 55
1, 345496, Note_off_c, 0, 55, 55
1, 345500, Note_off_c, 0, 61, 60
1, 345519, Note_off_c, 0, 72, 64
1, 345528, Note_off_c, 0, 58, 50
1, 345541, Note_off_c, 0, 67, 63
1, 345567, Note_off_c, 0, 49, 34
1, 345722, Note_on_c, 0, 61, 89
1, 345729, Note_on_c, 0, 55, 74
1, 345729, Note_on_c, 0, 58, 79
1, 345798, Note_off_c, 0, 58, 60
1, 345810, Note_off_c, 0, 55, 58
1, 345817, Note_off_c, 0, 61, 55
1, 346017, Note_on_c, 0, 58, 72
1, 346018, Note_on_c, 0, 49, 74
1, 346020, Note_on_c, 0, 79, 103
1, 346021, Note_on_c, 0, 67, 92
1, 346042, Note_off_c, 0, 58, 69
1, 346069, Note_off_c, 0, 67, 59
1, 346073, Note_off_c, 0, 49, 63
1, 346105, Note_off_c, 0, 79, 61
1, 346280, Control_c, 0, 64, 106
1, 346295, Control_c, 0, 64, 65
1, 346302, Note_on_c, 0, 27, 85
1, 346303, Note_on_c, 0, 80, 101
1, 346305, Note_on_c, 0, 39, 96
1, 346307, Note_on_c, 0, 68, 85
1, 346310, Control_c, 0, 64, 0
1, 346345, Note_off_c, 0, 27, 65
1, 346354, Control_c, 0, 64, 62
1, 346369, Note_off_c, 0, 39, 65
1, 346369, Control_c, 0, 64, 91
1, 346384, Control_c, 0, 64, 127
1, 346398, Note_off_c, 0, 68, 62
1, 346466, Note_off_c, 0, 80, 62
1, 346605, Note_on_c, 0, 48, 78
1, 346613, Note_on_c, 0, 56, 85
1, 346675, Note_off_c, 0, 48, 59
1, 346735, Note_off_c, 0, 56, 52
1, 346824, Note_on_c, 0, 51, 63
1, 346829, Note_on_c, 0, 60, 70
1, 346842, Note_on_c, 0, 56, 28
1, 346849, Note_off_c, 0, 51, 61
1, 346855, Note_off_c, 0, 60, 65
1, 346869, Note_on_c, 0, 91, 109
1, 346871, Note_off_c, 0, 56, 53
1, 346872, Note_on_c, 0, 79, 104
1, 347078, Note_on_c, 0, 60, 80
1, 347084, Note_on_c, 0, 68, 81
1, 347089, Note_on_c, 0, 63, 73
1, 347105, Note_off_c, 0, 68, 68
1, 347109, Note_off_c, 0, 63, 66
1, 347118, Note_off_c, 0, 91, 56
1, 347121, Note_off_c, 0, 60, 62
1, 347154, Note_off_c, 0, 79, 56
1, 347334, Control_c, 0, 64, 78
1, 347349, Control_c, 0, 64, 0
1, 347356, Note_on_c, 0, 89, 105
1, 347360, Note_on_c, 0, 38, 91
1, 347360, Note_on_c, 0, 77, 104
1, 347364, Note_on_c, 0, 26, 86
1, 347375, Note_on_c, 0, 24, 65
1, 347376, Note_off_c, 0, 24, 127
1, 347388, Note_off_c, 0, 26, 67
1, 347393, Control_c, 0, 64, 41
1, 347404, Note_off_c, 0, 38, 61
1, 347408, Control_c, 0, 64, 83
1, 347423, Control_c, 0, 64, 127
1, 347448, Note_off_c, 0, 89, 68
1, 347472, Note_off_c, 0, 77, 55
1, 347618, Note_on_c, 0, 47, 70
1, 347630, Note_on_c, 0, 56, 77
1, 347638, Note_on_c, 0, 53, 58
1, 347655, Note_off_c, 0, 47, 58
1, 347668, Note_off_c, 0, 53, 66
1, 347724, Note_off_c, 0, 56, 57
1, 347820, Note_on_c, 0, 56, 47
1, 347840, Note_off_c, 0, 56, 63
1, 347848, Note_on_c, 0, 80, 106
1, 347850, Note_on_c, 0, 68, 97
1, 347874, Note_on_c, 0, 60, 35
1, 347880, Note_on_c, 0, 59, 40
1, 347889, Note_off_c, 0, 68, 65
1, 347895, Note_off_c, 0, 80, 72
1, 347909, Note_off_c, 0, 59, 52
1, 347925, Note_off_c, 0, 60, 37
1, 348078, Note_on_c, 0, 65, 85
1, 348082, Note_on_c, 0, 59, 76
1, 348085, Note_on_c, 0, 56, 73
1, 348098, Note_off_c, 0, 65, 72
1, 348104, Note_off_c, 0, 59, 68
1, 348121, Note_off_c, 0, 56, 63
1, 348305, Control_c, 0, 64, 105
1, 348320, Control_c, 0, 64, 67
1, 348335, Control_c, 0, 64, 0
1, 348353, Note_on_c, 0, 27, 86
1, 348355, Note_on_c, 0, 39, 90
1, 348366, Note_on_c, 0, 81, 104
1, 348367, Note_on_c, 0, 69, 99
1, 348379, Control_c, 0, 64, 55
1, 348381, Note_off_c, 0, 27, 68
1, 348387, Note_off_c, 0, 39, 61
1, 348394, Control_c, 0, 64, 97
1, 348409, Control_c, 0, 64, 127
1, 348598, Note_off_c, 0, 69, 59
1, 348619, Note_on_c, 0, 46, 76
1, 348624, Note_on_c, 0, 56, 84
1, 348628, Note_off_c, 0, 81, 59
1, 348643, Note_on_c, 0, 53, 56
1, 348666, Note_off_c, 0, 53, 59
1, 348688, Note_off_c, 0, 46, 59
1, 348720, Note_off_c, 0, 56, 35
1, 348792, Note_on_c, 0, 53, 41
1, 348807, Note_on_c, 0, 56, 72
1, 348810, Note_on_c, 0, 61, 83
1, 348838, Note_off_c, 0, 53, 61
1, 348840, Note_off_c, 0, 56, 63
1, 348865, Note_off_c, 0, 61, 62
1, 348899, Note_on_c, 0, 82, 107
1, 348903, Note_on_c, 0, 70, 85
1, 348934, Note_off_c, 0, 70, 65
1, 348961, Note_off_c, 0, 82, 60
1, 349026, Note_on_c, 0, 58, 69
1, 349044, Note_on_c, 0, 68, 78
1, 349056, Note_on_c, 0, 85, 97
1, 349061, Note_on_c, 0, 73, 90
1, 349091, Note_off_c, 0, 58, 63
1, 349097, Note_off_c, 0, 73, 65
1, 349102, Note_off_c, 0, 85, 64
1, 349161, Note_on_c, 0, 84, 104
1, 349170, Note_on_c, 0, 72, 88
1, 349188, Note_off_c, 0, 72, 73
1, 349212, Note_off_c, 0, 84, 62
1, 349233, Note_off_c, 0, 68, 62
1, 349260, Note_on_c, 0, 70, 92
1, 349262, Note_on_c, 0, 82, 103
1, 349263, Note_on_c, 0, 65, 76
1, 349300, Note_off_c, 0, 82, 68
1, 349306, Note_off_c, 0, 65, 60
1, 349306, Note_off_c, 0, 70, 62
1, 349481, Note_on_c, 0, 68, 85
1, 349481, Note_on_c, 0, 58, 79
1, 349502, Note_off_c, 0, 68, 66
1, 349525, Note_off_c, 0, 58, 64
1, 349567, Poly_aftertouch_c, 0, 65, 0
1, 349585, Poly_aftertouch_c, 0, 65, 0
1, 349590, Poly_aftertouch_c, 0, 63, 0
1, 349732, Note_on_c, 0, 51, 76
1, 349744, Note_on_c, 0, 55, 73
1, 349754, Note_on_c, 0, 61, 87
1, 349758, Control_c, 0, 64, 76
1, 349773, Control_c, 0, 64, 37
1, 349788, Control_c, 0, 64, 0
1, 349804, Note_on_c, 0, 83, 101
1, 349805, Note_on_c, 0, 71, 98
1, 349818, Control_c, 0, 64, 49
1, 349824, Note_off_c, 0, 61, 63
1, 349832, Control_c, 0, 64, 91
1, 349847, Note_off_c, 0, 55, 62
1, 349847, Control_c, 0, 64, 127
1, 349862, Note_off_c, 0, 51, 62
1, 350069, Note_on_c, 0, 39, 101
1, 350098, Note_off_c, 0, 39, 66
1, 350113, Note_off_c, 0, 71, 54
1, 350146, Note_off_c, 0, 83, 53
1, 350566, Control_c, 0, 64, 77
1, 350569, Note_on_c, 0, 32, 83
1, 350573, Note_on_c, 0, 44, 92
1, 350576, Note_on_c, 0, 84, 105
1, 350577, Note_on_c, 0, 72, 100
1, 350581, Control_c, 0, 64, 0
1, 350625, Control_c, 0, 64, 29
1, 350640, Control_c, 0, 64, 69
1, 350655, Control_c, 0, 64, 104
1, 350656, Note_off_c, 0, 32, 63
1, 350670, Control_c, 0, 64, 127
1, 350680, Note_off_c, 0, 84, 68
1, 350694, Note_off_c, 0, 44, 62
1, 350721, Note_off_c, 0, 72, 64
1, 351130, Note_on_c, 0, 72, 66
1, 351135, Note_on_c, 0, 51, 45
1, 351139, Note_on_c, 0, 68, 60
1, 351142, Note_on_c, 0, 60, 48
1, 351143, Note_on_c, 0, 63, 50
1, 351150, Note_on_c, 0, 56, 46
1, 351166, Note_off_c, 0, 60, 56
1, 351168, Note_off_c, 0, 51, 59
1, 351169, Note_off_c, 0, 63, 57
1, 351183, Note_off_c, 0, 56, 61
1, 351186, Note_off_c, 0, 68, 56
1, 351195, Note_off_c, 0, 72, 61
1, 351407, Note_on_c, 0, 68, 84
1, 351415, Note_on_c, 0, 63, 73
1, 351416, Note_on_c, 0, 56, 64
1, 351423, Note_on_c, 0, 60, 67
1, 351451, Note_off_c, 0, 60, 64
1, 351457, Note_off_c, 0, 56, 60
1, 351484, Note_off_c, 0, 63, 55
1, 351487, Note_off_c, 0, 68, 61
1, 351641, Note_on_c, 0, 51, 68
1, 351651, Note_on_c, 0, 72, 87
1, 351661, Note_on_c, 0, 68, 78
1, 351664, Note_on_c, 0, 63, 69
1, 351668, Note_off_c, 0, 51, 64
1, 351689, Note_off_c, 0, 63, 65
1, 351707, Note_off_c, 0, 68, 61
1, 351711, Note_on_c, 0, 56, 3
1, 351726, Note_off_c, 0, 72, 66
1, 351749, Note_off_c, 0, 56, 39
1, 351901, Control_c, 0, 64, 98
1, 351916, Control_c, 0, 64, 57
1, 351931, Control_c, 0, 64, 0
1, 351933, Note_on_c, 0, 32, 86
1, 351944, Note_on_c, 0, 44, 82
1, 351964, Note_on_c, 0, 89, 102
1, 351966, Note_on_c, 0, 77, 100
1, 351975, Control_c, 0, 64, 60
1, 351988, Note_off_c, 0, 32, 64
1, 351990, Control_c, 0, 64, 116
1, 352005, Control_c, 0, 64, 127
1, 352011, Note_off_c, 0, 44, 62
1, 352017, Note_off_c, 0, 89, 70
1, 352049, Note_off_c, 0, 77, 62
1, 352294, Note_on_c, 0, 77, 83
1, 352301, Note_on_c, 0, 68, 77
1, 352304, Note_on_c, 0, 50, 66
1, 352307, Note_on_c, 0, 59, 66
1, 352307, Note_on_c, 0, 65, 72
1, 352308, Note_on_c, 0, 56, 68
1, 352308, Note_on_c, 0, 71, 64
1, 352335, Note_off_c, 0, 59, 66
1, 352338, Note_off_c, 0, 50, 61
1, 352339, Note_off_c, 0, 56, 62
1, 352353, Note_off_c, 0, 71, 53
1, 352354, Note_off_c, 0, 68, 62
1, 352366, Note_off_c, 0, 65, 54
1, 352375, Note_off_c, 0, 77, 57
1, 352542, Note_on_c, 0, 71, 78
1, 352550, Note_on_c, 0, 68, 80
1, 352553, Note_on_c, 0, 65, 82
1, 352560, Note_on_c, 0, 56, 76
1, 352563, Note_on_c, 0, 59, 69
1, 352614, Note_off_c, 0, 59, 57
1, 352623, Note_off_c, 0, 56, 54
1, 352637, Note_off_c, 0, 68, 59
1, 352651, Note_off_c, 0, 65, 57
1, 352655, Note_off_c, 0, 71, 60
1, 352796, Note_on_c, 0, 77, 97
1, 352798, Note_on_c, 0, 50, 77
1, 352801, Note_on_c, 0, 68, 77
1, 352806, Note_on_c, 0, 65, 78
1, 352806, Note_on_c, 0, 71, 78
1, 352807, Note_on_c, 0, 56, 76
1, 352819, Note_on_c, 0, 59, 48
1, 352832, Note_off_c, 0, 56, 65
1, 352832, Note_off_c, 0, 68, 63
1, 352836, Note_off_c, 0, 65, 68
1, 352837, Note_off_c, 0, 59, 63
1, 352855, Note_off_c, 0, 50, 62
1, 352869, Note_off_c, 0, 71, 62
1, 352885, Note_off_c, 0, 77, 65
1, 353145, Note_on_c, 0, 76, 99
1, 353146, Note_on_c, 0, 88, 104
1, 353189, Note_off_c, 0, 76, 70
1, 353190, Note_off_c, 0, 88, 66
1, 353234, Control_c, 0, 64, 81
1, 353240, Note_on_c, 0, 32, 86
1, 353241, Note_on_c, 0, 88, 106
1, 353243, Note_on_c, 0, 44, 92
1, 353245, Note_on_c, 0, 76, 106
1, 353249, Control_c, 0, 64, 47
1, 353263, Control_c, 0, 64, 0
1, 353293, Control_c, 0, 64, 62
1, 353305, Note_off_c, 0, 32, 64
1, 353308, Control_c, 0, 64, 90
1, 353317, Note_off_c, 0, 88, 65
1, 353323, Control_c, 0, 64, 127
1, 353341, Note_off_c, 0, 44, 62
1, 353351, Note_off_c, 0, 76, 65
1, 353654, Note_on_c, 0, 76, 73
1, 353663, Note_on_c, 0, 68, 65
1, 353664, Note_on_c, 0, 64, 63
1, 353678, Note_on_c, 0, 56, 54
1, 353682, Note_on_c, 0, 60, 41
1, 353682, Note_on_c, 0, 72, 46
1, 353685, Note_on_c, 0, 51, 40
1, 353703, Note_off_c, 0, 56, 62
1, 353711, Note_off_c, 0, 60, 51
1, 353711, Note_off_c, 0, 72, 54
1, 353714, Note_off_c, 0, 64, 53
1, 353718, Note_off_c, 0, 68, 54
1, 353719, Note_off_c, 0, 51, 44
1, 353719, Note_off_c, 0, 76, 64
1, 353904, Note_on_c, 0, 72, 73
1, 353906, Note_on_c, 0, 68, 72
1, 353908, Note_on_c, 0, 56, 59
1, 353908, Note_on_c, 0, 60, 55
1, 353910, Note_on_c, 0, 64, 65
1, 353966, Note_off_c, 0, 56, 59
1, 353967, Note_off_c, 0, 60, 57
1, 353973, Note_off_c, 0, 68, 62
1, 353980, Note_off_c, 0, 64, 59
1, 353997, Note_off_c, 0, 72, 62
1, 354128, Note_on_c, 0, 51, 63
1, 354130, Note_on_c, 0, 56, 54
1, 354134, Note_on_c, 0, 76, 79
1, 354140, Note_on_c, 0, 60, 54
1, 354140, Note_on_c, 0, 68, 72
1, 354144, Note_on_c, 0, 64, 66
1, 354174, Note_off_c, 0, 56, 58
1, 354176, Note_off_c, 0, 60, 61
1, 354179, Note_off_c, 0, 51, 55
1, 354179, Note_off_c, 0, 64, 58
1, 354182, Note_off_c, 0, 68, 57
1, 354215, Note_off_c, 0, 76, 61
1, 354357, Note_on_c, 0, 72, 83
1, 354362, Note_on_c, 0, 68, 73
1, 354365, Note_on_c, 0, 60, 74
1, 354366, Note_on_c, 0, 64, 60
1, 354370, Note_on_c, 0, 56, 61
1, 354385, Note_off_c, 0, 64, 66
1, 354389, Note_off_c, 0, 68, 66
1, 354420, Note_off_c, 0, 72, 66
1, 354542, Note_off_c, 0, 56, 50
1, 354614, Note_off_c, 0, 60, 56
1, 354623, Note_on_c, 0, 87, 96
1, 354627, Note_on_c, 0, 75, 90
1, 354629, Note_on_c, 0, 63, 76
1, 354655, Note_off_c, 0, 63, 63
1, 354661, Note_off_c, 0, 87, 69
1, 354670, Note_off_c, 0, 75, 64
1, 354977, Note_on_c, 0, 80, 99
1, 354980, Note_on_c, 0, 68, 86
1, 355041, Note_off_c, 0, 68, 58
1, 355127, Note_off_c, 0, 80, 60
1, 355212, Note_on_c, 0, 82, 100
1, 355218, Note_on_c, 0, 70, 85
1, 355250, Note_on_c, 0, 83, 46
1, 355261, Note_off_c, 0, 70, 66
1, 355283, Note_off_c, 0, 83, 46
1, 355407, Note_on_c, 0, 32, 74
1, 355437, Control_c, 0, 64, 98
1, 355439, Note_off_c, 0, 82, 57
1, 355451, Control_c, 0, 64, 63
1, 355466, Note_on_c, 0, 44, 69
1, 355466, Control_c, 0, 64, 0
1, 355496, Note_off_c, 0, 32, 63
1, 355496, Control_c, 0, 64, 42
1, 355497, Note_on_c, 0, 84, 100
1, 355500, Note_on_c, 0, 72, 91
1, 355511, Control_c, 0, 64, 69
1, 355526, Control_c, 0, 64, 101
1, 355526, Note_off_c, 0, 44, 63
1, 355540, Control_c, 0, 64, 127
1, 355736, Note_on_c, 0, 60, 77
1, 355741, Note_on_c, 0, 56, 63
1, 355758, Note_on_c, 0, 51, 56
1, 355797, Note_off_c, 0, 72, 60
1, 355805, Note_off_c, 0, 60, 53
1, 355823, Note_off_c, 0, 56, 54
1, 355836, Note_off_c, 0, 51, 53
1, 355846, Note_off_c, 0, 84, 53
1, 355935, Note_on_c, 0, 56, 59
1, 355941, Note_on_c, 0, 60, 45
1, 355942, Note_on_c, 0, 63, 69
1, 355999, Note_on_c, 0, 84, 103
1, 356000, Note_on_c, 0, 72, 101
1, 356014, Note_off_c, 0, 56, 56
1, 356018, Note_off_c, 0, 60, 55
1, 356045, Note_off_c, 0, 63, 57
1, 356113, Note_off_c, 0, 72, 57
1, 356206, Note_off_c, 0, 84, 60
1, 356220, Note_on_c, 0, 60, 74
1, 356235, Note_on_c, 0, 51, 66
1, 356237, Note_on_c, 0, 56, 67
1, 356255, Note_off_c, 0, 60, 59
1, 356286, Note_off_c, 0, 51, 60
1, 356290, Note_off_c, 0, 56, 63
1, 356511, Control_c, 0, 64, 90
1, 356526, Control_c, 0, 64, 61
1, 356537, Note_on_c, 0, 32, 68
1, 356541, Control_c, 0, 64, 0
1, 356556, Note_on_c, 0, 44, 83
1, 356570, Control_c, 0, 64, 36
1, 356585, Control_c, 0, 64, 70
1, 356599, Control_c, 0, 64, 127
1, 356601, Note_off_c, 0, 32, 64
1, 356607, Note_on_c, 0, 91, 111
1, 356609, Note_on_c, 0, 79, 103
1, 356623, Note_off_c, 0, 44, 63
1, 356702, Note_off_c, 0, 79, 58
1, 356717, Note_off_c, 0, 91, 61
1, 356841, Note_on_c, 0, 50, 52
1, 356858, Note_on_c, 0, 59, 74
1, 356885, Note_on_c, 0, 56, 67
1, 356912, Note_on_c, 0, 89, 107
1, 356914, Note_on_c, 0, 77, 107
1, 356942, Note_off_c, 0, 50, 59
1, 356975, Note_off_c, 0, 56, 57
1, 356982, Note_off_c, 0, 59, 58
1, 357147, Note_on_c, 0, 65, 91
1, 357150, Note_on_c, 0, 56, 70
1, 357157, Note_on_c, 0, 59, 73
1, 357185, Note_off_c, 0, 65, 66
1, 357226, Note_off_c, 0, 59, 53
1, 357300, Note_off_c, 0, 89, 49
1, 357338, Note_off_c, 0, 56, 20
1, 357345, Note_off_c, 0, 77, 58
1, 357377, Note_on_c, 0, 59, 76
1, 357378, Note_on_c, 0, 50, 86
1, 357386, Note_on_c, 0, 56, 64
1, 357427, Note_off_c, 0, 59, 67
1, 357441, Note_off_c, 0, 56, 66
1, 357443, Note_off_c, 0, 50, 62
1, 357569, Note_on_c, 0, 88, 98
1, 357595, Note_on_c, 0, 76, 62
1, 357607, Note_on_c, 0, 74, 50
1, 357614, Note_off_c, 0, 76, 64
1, 357627, Note_off_c, 0, 74, 65
1, 357657, Note_off_c, 0, 88, 62
1, 357681, Note_on_c, 0, 76, 100
1, 357802, Control_c, 0, 64, 100
1, 357811, Note_on_c, 0, 30, 82
1, 357817, Control_c, 0, 64, 70
1, 357832, Control_c, 0, 64, 0
1, 357891, Control_c, 0, 64, 56
1, 357896, Note_on_c, 0, 42, 85
1, 357906, Control_c, 0, 64, 71
1, 357921, Control_c, 0, 64, 96
1, 357935, Control_c, 0, 64, 127
1, 357970, Note_off_c, 0, 30, 62
1, 357989, Note_on_c, 0, 88, 99
1, 358020, Note_off_c, 0, 42, 62
1, 358301, Note_on_c, 0, 51, 59
1, 358306, Note_on_c, 0, 59, 53
1, 358342, Note_off_c, 0, 59, 62
1, 358345, Note_off_c, 0, 51, 55
1, 358536, Note_on_c, 0, 66, 54
1, 358546, Note_on_c, 0, 51, 52
1, 358546, Note_on_c, 0, 54, 47
1, 358550, Note_on_c, 0, 59, 57
1, 358557, Note_off_c, 0, 66, 60
1, 358584, Note_off_c, 0, 59, 62
1, 358586, Note_off_c, 0, 54, 58
1, 358587, Note_off_c, 0, 51, 52
1, 358737, Note_on_c, 0, 59, 62
1, 358748, Note_on_c, 0, 51, 58
1, 358767, Note_on_c, 0, 54, 35
1, 358780, Note_off_c, 0, 76, 57
1, 358791, Note_off_c, 0, 59, 61
1, 358797, Note_off_c, 0, 51, 54
1, 358800, Note_off_c, 0, 54, 50
1, 358908, Note_on_c, 0, 51, 55
1, 358908, Note_on_c, 0, 66, 69
1, 358915, Note_on_c, 0, 59, 61
1, 358921, Note_on_c, 0, 54, 42
1, 358954, Note_off_c, 0, 66, 47
1, 358961, Note_off_c, 0, 51, 52
1, 358962, Note_off_c, 0, 59, 57
1, 358965, Note_off_c, 0, 54, 52
1, 358987, Note_off_c, 0, 88, 52
1, 359064, Note_on_c, 0, 87, 88
1, 359070, Note_on_c, 0, 75, 75
1, 359076, Note_on_c, 0, 59, 62
1, 359078, Note_on_c, 0, 54, 45
1, 359082, Note_on_c, 0, 51, 57
1, 359107, Note_off_c, 0, 75, 60
1, 359109, Note_off_c, 0, 87, 66
1, 359115, Note_off_c, 0, 59, 57
1, 359116, Note_off_c, 0, 51, 56
1, 359117, Note_off_c, 0, 54, 60
1, 359253, Note_on_c, 0, 54, 48
1, 359254, Note_on_c, 0, 66, 59
1, 359257, Note_on_c, 0, 51, 41
1, 359264, Note_on_c, 0, 59, 41
1, 359291, Note_off_c, 0, 66, 54
1, 359295, Note_on_c, 0, 82, 94
1, 359295, Note_off_c, 0, 51, 47
1, 359303, Note_on_c, 0, 70, 79
1, 359313, Note_off_c, 0, 59, 46
1, 359342, Note_off_c, 0, 70, 58
1, 359423, Note_off_c, 0, 82, 57
1, 359449, Note_on_c, 0, 51, 48
1, 359482, Note_on_c, 0, 83, 95
1, 359486, Note_on_c, 0, 71, 87
1, 359489, Note_off_c, 0, 51, 62
1, 359508, Note_off_c, 0, 54, 42
1, 359583, Note_off_c, 0, 71, 52
1, 359610, Note_off_c, 0, 83, 60
1, 359610, Control_c, 0, 64, 112
1, 359625, Control_c, 0, 64, 71
1, 359640, Control_c, 0, 64, 0
1, 359672, Note_on_c, 0, 28, 80
1, 359683, Note_on_c, 0, 84, 103
1, 359684, Note_on_c, 0, 40, 76
1, 359684, Control_c, 0, 64, 47
1, 359688, Note_on_c, 0, 72, 95
1, 359699, Control_c, 0, 64, 76
1, 359701, Note_off_c, 0, 28, 66
1, 359714, Control_c, 0, 64, 127
1, 359729, Note_off_c, 0, 40, 63
1, 359768, Note_off_c, 0, 72, 57
1, 359785, Note_off_c, 0, 84, 64
1, 359943, Note_on_c, 0, 61, 70
1, 359946, Note_on_c, 0, 52, 57
1, 359978, Note_off_c, 0, 61, 55
1, 360023, Note_off_c, 0, 52, 59
1, 360048, Poly_aftertouch_c, 0, 58, 0
1, 360131, Note_on_c, 0, 66, 80
1, 360135, Note_on_c, 0, 73, 88
1, 360143, Note_on_c, 0, 85, 64
1, 360146, Note_on_c, 0, 84, 89
1, 360160, Note_off_c, 0, 85, 68
1, 360162, Note_on_c, 0, 54, 23
1, 360179, Note_off_c, 0, 66, 63
1, 360179, Note_off_c, 0, 73, 61
1, 360185, Note_off_c, 0, 84, 56
1, 360215, Note_off_c, 0, 54, 44
1, 360230, Poly_aftertouch_c, 0, 58, 127
1, 360267, Poly_aftertouch_c, 0, 58, 0
1, 360325, Note_on_c, 0, 61, 77
1, 360340, Note_on_c, 0, 58, 51
1, 360341, Note_on_c, 0, 52, 44
1, 360352, Note_off_c, 0, 61, 62
1, 360362, Note_off_c, 0, 58, 61
1, 360382, Note_off_c, 0, 52, 48
1, 360452, Poly_aftertouch_c, 0, 54, 0
1, 360500, Note_on_c, 0, 66, 83
1, 360500, Note_on_c, 0, 87, 110
1, 360501, Note_on_c, 0, 58, 57
1, 360503, Note_on_c, 0, 75, 98
1, 360511, Note_on_c, 0, 54, 42
1, 360539, Note_off_c, 0, 75, 64
1, 360542, Note_off_c, 0, 87, 70
1, 360545, Note_off_c, 0, 66, 63
1, 360552, Note_off_c, 0, 54, 45
1, 360604, Note_off_c, 0, 58, 55
1, 360688, Note_on_c, 0, 61, 78
1, 360693, Note_on_c, 0, 52, 61
1, 360698, Note_on_c, 0, 58, 65
1, 360719, Note_on_c, 0, 54, 44
1, 360728, Note_off_c, 0, 58, 62
1, 360738, Note_off_c, 0, 52, 55
1, 360755, Note_off_c, 0, 61, 53
1, 360761, Note_off_c, 0, 54, 45
1, 360868, Note_on_c, 0, 88, 100
1, 360870, Note_on_c, 0, 76, 104
1, 360871, Note_on_c, 0, 66, 85
1, 360875, Note_on_c, 0, 58, 48
1, 360877, Note_on_c, 0, 54, 49
1, 360922, Note_off_c, 0, 54, 54
1, 360922, Note_off_c, 0, 76, 62
1, 360925, Note_off_c, 0, 66, 62
1, 360954, Poly_aftertouch_c, 0, 52, 127
1, 360963, Note_off_c, 0, 58, 35
1, 360984, Poly_aftertouch_c, 0, 52, 0
1, 360996, Note_off_c, 0, 88, 61
1, 361041, Note_on_c, 0, 61, 76
1, 361042, Note_on_c, 0, 52, 78
1, 361044, Note_on_c, 0, 54, 67
1, 361067, Note_off_c, 0, 61, 67
1, 361074, Note_on_c, 0, 58, 60
1, 361074, Note_off_c, 0, 52, 65
1, 361089, Note_off_c, 0, 54, 65
1, 361095, Note_off_c, 0, 58, 61
1, 361213, Control_c, 0, 64, 76
1, 361227, Control_c, 0, 64, 0
1, 361258, Note_on_c, 0, 92, 110
1, 361259, Note_on_c, 0, 80, 99
1, 361267, Note_on_c, 0, 39, 98
1, 361268, Note_on_c, 0, 27, 92
1, 361271, Control_c, 0, 64, 39
1, 361286, Control_c, 0, 64, 75
1, 361289, Note_off_c, 0, 27, 69
1, 361292, Note_off_c, 0, 39, 66
1, 361301, Control_c, 0, 64, 127
1, 361309, Note_off_c, 0, 92, 71
1, 361322, Note_off_c, 0, 80, 60
1, 361445, Poly_aftertouch_c, 0, 27, 0
1, 361586, Note_on_c, 0, 66, 87
1, 361587, Note_on_c, 0, 54, 61
1, 361600, Note_on_c, 0, 63, 70
1, 361604, Note_on_c, 0, 59, 52
1, 361661, Note_off_c, 0, 63, 53
1, 361668, Note_off_c, 0, 66, 58
1, 361676, Note_off_c, 0, 54, 56
1, 361677, Note_off_c, 0, 59, 38
1, 361776, Note_on_c, 0, 90, 110
1, 361778, Note_on_c, 0, 78, 111
1, 361782, Note_on_c, 0, 66, 77
1, 361783, Note_on_c, 0, 63, 71
1, 361792, Note_on_c, 0, 59, 64
1, 361799, Note_on_c, 0, 54, 53
1, 361814, Note_off_c, 0, 63, 57
1, 361827, Note_off_c, 0, 66, 53
1, 361828, Note_off_c, 0, 54, 58
1, 361841, Note_off_c, 0, 59, 58
1, 361948, Note_on_c, 0, 66, 80
1, 361953, Note_on_c, 0, 63, 80
1, 361962, Note_on_c, 0, 59, 67
1, 361962, Note_on_c, 0, 54, 74
1, 361966, Note_off_c, 0, 66, 72
1, 361973, Note_off_c, 0, 63, 66
1, 361989, Note_off_c, 0, 59, 65
1, 361992, Note_off_c, 0, 54, 64
1, 362124, Control_c, 0, 64, 105
1, 362139, Control_c, 0, 64, 67
1, 362154, Control_c, 0, 64, 0
1, 362171, Note_on_c, 0, 38, 109
1, 362172, Note_on_c, 0, 26, 93
1, 362191, Control_c, 0, 64, 12
1, 362196, Note_off_c, 0, 26, 69
1, 362205, Note_off_c, 0, 38, 64
1, 362206, Control_c, 0, 64, 68
1, 362221, Control_c, 0, 64, 127
1, 362231, Note_on_c, 0, 27, 11
1, 362257, Poly_aftertouch_c, 0, 32, 0
1, 362266, Note_off_c, 0, 27, 52
1, 362294, Poly_aftertouch_c, 0, 32, 0
1, 362308, Note_off_c, 0, 90, 61
1, 362359, Note_off_c, 0, 78, 52
1, 362429, Note_on_c, 0, 68, 90
1, 362471, Note_off_c, 0, 68, 63
1, 362509, Poly_aftertouch_c, 0, 56, 127
1, 362543, Poly_aftertouch_c, 0, 56, 0
1, 362596, Note_on_c, 0, 56, 65
1, 362609, Note_on_c, 0, 59, 66
1, 362617, Note_on_c, 0, 65, 71
1, 362649, Note_on_c, 0, 68, 89
1, 362673, Note_on_c, 0, 89, 108
1, 362674, Note_on_c, 0, 77, 109
1, 362691, Note_off_c, 0, 65, 64
1, 362726, Note_off_c, 0, 68, 61
1, 362726, Note_off_c, 0, 77, 62
1, 362736, Note_off_c, 0, 56, 53
1, 362745, Note_off_c, 0, 59, 53
1, 362775, Note_off_c, 0, 89, 65
1, 362902, Note_on_c, 0, 68, 98
1, 362904, Note_on_c, 0, 56, 75
1, 362906, Note_on_c, 0, 59, 76
1, 362910, Note_on_c, 0, 65, 80
1, 362940, Note_off_c, 0, 65, 70
1, 362942, Note_off_c, 0, 68, 65
1, 362960, Note_off_c, 0, 59, 63
1, 362964, Note_off_c, 0, 56, 65
1, 363207, Control_c, 0, 64, 83
1, 363221, Control_c, 0, 64, 35
1, 363236, Control_c, 0, 64, 0
1, 363305, Note_on_c, 0, 42, 113
1, 363307, Note_on_c, 0, 95, 120
1, 363309, Note_on_c, 0, 30, 93
1, 363309, Note_on_c, 0, 83, 110
1, 363310, Control_c, 0, 64, 68
1, 363325, Control_c, 0, 64, 127
1, 363332, Note_off_c, 0, 30, 67
1, 363339, Note_off_c, 0, 42, 68
1, 363348, Note_off_c, 0, 95, 69
1, 363350, Note_off_c, 0, 83, 63
1, 363750, Note_on_c, 0, 57, 44
1, 363753, Note_on_c, 0, 54, 54
1, 363761, Note_on_c, 0, 62, 65
1, 363796, Note_on_c, 0, 69, 69
1, 363817, Note_off_c, 0, 54, 60
1, 363817, Note_off_c, 0, 57, 53
1, 363817, Note_off_c, 0, 62, 48
1, 363831, Note_off_c, 0, 69, 61
1, 363936, Note_on_c, 0, 54, 68
1, 363937, Note_on_c, 0, 62, 76
1, 363948, Note_on_c, 0, 69, 67
1, 363951, Note_on_c, 0, 57, 62
1, 363981, Note_off_c, 0, 62, 57
1, 363985, Note_off_c, 0, 57, 61
1, 363989, Note_off_c, 0, 69, 58
1, 364001, Note_off_c, 0, 54, 61
1, 364068, Note_on_c, 0, 54, 63
1, 364072, Note_on_c, 0, 57, 66
1, 364073, Note_on_c, 0, 62, 77
1, 364087, Note_on_c, 0, 69, 75
1, 364112, Note_off_c, 0, 62, 61
1, 364113, Note_off_c, 0, 57, 54
1, 364129, Note_off_c, 0, 54, 60
1, 364138, Note_off_c, 0, 69, 60
1, 364203, Note_on_c, 0, 54, 64
1, 364209, Note_on_c, 0, 57, 69
1, 364211, Note_on_c, 0, 62, 74
1, 364224, Note_on_c, 0, 69, 79
1, 364244, Note_off_c, 0, 57, 58
1, 364245, Note_off_c, 0, 62, 62
1, 364263, Note_off_c, 0, 54, 61
1, 364274, Note_off_c, 0, 69, 63
1, 364339, Note_on_c, 0, 57, 72
1, 364342, Note_on_c, 0, 54, 68
1, 364350, Note_on_c, 0, 69, 73
1, 364366, Note_on_c, 0, 62, 59
1, 364381, Note_off_c, 0, 69, 68
1, 364389, Note_off_c, 0, 57, 61
1, 364401, Note_off_c, 0, 62, 56
1, 364407, Note_off_c, 0, 54, 55
1, 364473, Note_on_c, 0, 54, 49
1, 364490, Note_on_c, 0, 57, 62
1, 364526, Note_on_c, 0, 62, 64
1, 364580, Note_on_c, 0, 93, 104
1, 364585, Note_on_c, 0, 81, 101
1, 364590, Note_off_c, 0, 62, 59
1, 364612, Note_off_c, 0, 81, 62
1, 364612, Note_off_c, 0, 93, 66
1, 364644, Note_off_c, 0, 54, 40
1, 364653, Note_off_c, 0, 57, 37
1, 364762, Note_on_c, 0, 54, 53
1, 364765, Note_on_c, 0, 57, 56
1, 364767, Note_on_c, 0, 69, 74
1, 364775, Note_on_c, 0, 62, 62
1, 364793, Note_off_c, 0, 69, 70
1, 364807, Note_off_c, 0, 62, 63
1, 364819, Note_off_c, 0, 57, 54
1, 364822, Note_off_c, 0, 54, 56
1, 364935, Note_on_c, 0, 92, 110
1, 364936, Note_on_c, 0, 80, 101
1, 364941, Note_on_c, 0, 54, 66
1, 364948, Note_on_c, 0, 57, 63
1, 364952, Note_on_c, 0, 62, 68
1, 364960, Note_on_c, 0, 82, 56
1, 364961, Note_off_c, 0, 82, 127
1, 364964, Note_on_c, 0, 93, 58
1, 364965, Note_off_c, 0, 93, 127
1, 364967, Note_off_c, 0, 80, 67
1, 364968, Note_off_c, 0, 92, 69
1, 364978, Note_off_c, 0, 62, 66
1, 364982, Note_off_c, 0, 57, 60
1, 364993, Note_off_c, 0, 54, 57
1, 365109, Note_on_c, 0, 54, 60
1, 365112, Note_on_c, 0, 69, 75
1, 365114, Note_on_c, 0, 62, 64
1, 365133, Note_on_c, 0, 57, 43
1, 365136, Note_off_c, 0, 69, 70
1, 365146, Note_off_c, 0, 62, 61
1, 365156, Note_off_c, 0, 57, 59
1, 365172, Note_off_c, 0, 54, 57
1, 365259, Note_on_c, 0, 57, 56
1, 365259, Note_on_c, 0, 90, 110
1, 365262, Note_on_c, 0, 78, 104
1, 365265, Note_on_c, 0, 54, 66
1, 365274, Note_on_c, 0, 62, 65
1, 365288, Note_off_c, 0, 90, 71
1, 365294, Note_off_c, 0, 78, 61
1, 365305, Note_off_c, 0, 62, 63
1, 365312, Note_off_c, 0, 54, 55
1, 365405, Note_on_c, 0, 54, 64
1, 365407, Note_off_c, 0, 57, 0
1, 365415, Note_on_c, 0, 62, 59
1, 365415, Note_on_c, 0, 69, 80
1, 365425, Note_on_c, 0, 57, 22
1, 365435, Note_off_c, 0, 69, 72
1, 365460, Note_off_c, 0, 54, 55
1, 365461, Note_off_c, 0, 62, 58
1, 365469, Note_off_c, 0, 57, 47
1, 365588, Note_on_c, 0, 57, 59
1, 365592, Note_on_c, 0, 54, 64
1, 365593, Note_on_c, 0, 66, 83
1, 365604, Note_on_c, 0, 62, 58
1, 365618, Note_on_c, 0, 88, 111
1, 365622, Note_on_c, 0, 76, 102
1, 365639, Note_off_c, 0, 62, 59
1, 365659, Note_off_c, 0, 54, 58
1, 365661, Note_off_c, 0, 76, 69
1, 365676, Note_off_c, 0, 66, 57
1, 365685, Note_off_c, 0, 88, 62
1, 365699, Note_off_c, 0, 57, 48
1, 365837, Note_on_c, 0, 66, 64
1, 365843, Note_on_c, 0, 54, 57
1, 365846, Note_on_c, 0, 57, 52
1, 365846, Note_on_c, 0, 62, 60
1, 365870, Note_off_c, 0, 66, 59
1, 365882, Note_off_c, 0, 62, 61
1, 365884, Note_off_c, 0, 54, 57
1, 365891, Note_off_c, 0, 57, 58
1, 366001, Note_on_c, 0, 57, 59
1, 366007, Note_on_c, 0, 54, 56
1, 366009, Note_on_c, 0, 66, 69
1, 366015, Note_on_c, 0, 62, 54
1, 366049, Note_off_c, 0, 54, 53
1, 366054, Note_off_c, 0, 66, 50
1, 366056, Note_off_c, 0, 62, 58
1, 366072, Note_off_c, 0, 57, 59
1, 366160, Note_on_c, 0, 54, 68
1, 366162, Note_on_c, 0, 66, 66
1, 366180, Note_off_c, 0, 66, 68
1, 366184, Note_on_c, 0, 57, 46
1, 366204, Note_off_c, 0, 57, 61
1, 366215, Note_off_c, 0, 54, 63
1, 366260, Note_on_c, 0, 74, 98
1, 366260, Note_on_c, 0, 86, 103
1, 366305, Note_off_c, 0, 74, 67
1, 366317, Note_off_c, 0, 86, 60
1, 366393, Note_on_c, 0, 86, 104
1, 366394, Note_on_c, 0, 74, 102
1, 366398, Note_on_c, 0, 44, 82
1, 366403, Note_on_c, 0, 32, 80
1, 366409, Control_c, 0, 64, 77
1, 366424, Control_c, 0, 64, 0
1, 366469, Control_c, 0, 64, 54
1, 366477, Note_off_c, 0, 32, 63
1, 366483, Control_c, 0, 64, 83
1, 366498, Control_c, 0, 64, 127
1, 366507, Note_off_c, 0, 44, 61
1, 366781, Note_on_c, 0, 65, 42
1, 366787, Note_on_c, 0, 56, 42
1, 366791, Note_on_c, 0, 53, 43
1, 366793, Note_on_c, 0, 61, 46
1, 366826, Note_off_c, 0, 61, 57
1, 366827, Note_off_c, 0, 65, 47
1, 366827, Note_off_c, 0, 53, 50
1, 366832, Note_off_c, 0, 56, 56
1, 366927, Note_on_c, 0, 61, 59
1, 366927, Note_on_c, 0, 65, 66
1, 366928, Note_on_c, 0, 53, 53
1, 366944, Note_on_c, 0, 56, 53
1, 366963, Note_off_c, 0, 61, 59
1, 366964, Note_off_c, 0, 65, 61
1, 366969, Note_off_c, 0, 53, 62
1, 366974, Note_off_c, 0, 56, 62
1, 367056, Note_on_c, 0, 65, 70
1, 367062, Note_on_c, 0, 56, 57
1, 367062, Note_on_c, 0, 61, 64
1, 367063, Note_on_c, 0, 53, 59
1, 367095, Note_off_c, 0, 61, 62
1, 367095, Note_off_c, 0, 65, 57
1, 367096, Note_off_c, 0, 53, 62
1, 367106, Note_off_c, 0, 56, 61
1, 367196, Note_on_c, 0, 65, 83
1, 367204, Note_on_c, 0, 53, 64
1, 367204, Note_on_c, 0, 61, 68
1, 367210, Note_on_c, 0, 56, 67
1, 367211, Note_off_c, 0, 74, 49
1, 367238, Note_off_c, 0, 53, 62
1, 367240, Note_off_c, 0, 56, 62
1, 367240, Note_off_c, 0, 61, 56
1, 367245, Note_off_c, 0, 65, 60
1, 367304, Note_off_c, 0, 86, 57
1, 367328, Note_on_c, 0, 65, 86
1, 367336, Note_on_c, 0, 61, 75
1, 367336, Note_on_c, 0, 53, 74
1, 367339, Note_on_c, 0, 56, 68
1, 367381, Note_off_c, 0, 65, 62
1, 367384, Note_off_c, 0, 61, 58
1, 367390, Note_off_c, 0, 53, 57
1, 367395, Note_off_c, 0, 56, 53
1, 367481, Note_on_c, 0, 85, 97
1, 367486, Note_on_c, 0, 73, 91
1, 367488, Note_on_c, 0, 65, 74
1, 367495, Note_on_c, 0, 53, 60
1, 367498, Note_on_c, 0, 61, 64
1, 367505, Note_on_c, 0, 56, 54
1, 367522, Note_off_c, 0, 65, 55
1, 367533, Note_off_c, 0, 61, 61
1, 367536, Note_off_c, 0, 56, 60
1, 367543, Note_off_c, 0, 53, 56
1, 367625, Note_on_c, 0, 65, 82
1, 367631, Note_on_c, 0, 53, 64
1, 367632, Note_on_c, 0, 56, 60
1, 367633, Note_on_c, 0, 61, 64
1, 367670, Note_off_c, 0, 61, 50
1, 367678, Note_off_c, 0, 65, 62
1, 367686, Note_off_c, 0, 53, 60
1, 367707, Note_off_c, 0, 56, 57
1, 367759, Control_c, 0, 64, 102
1, 367774, Control_c, 0, 64, 69
1, 367781, Note_on_c, 0, 64, 86
1, 367788, Control_c, 0, 64, 0
1, 367791, Note_on_c, 0, 61, 75
1, 367794, Note_on_c, 0, 56, 64
1, 367798, Note_on_c, 0, 52, 70
1, 367833, Control_c, 0, 64, 59
1, 367837, Note_off_c, 0, 85, 61
1, 367847, Control_c, 0, 64, 83
1, 367852, Note_off_c, 0, 52, 56
1, 367853, Note_off_c, 0, 56, 57
1, 367856, Note_off_c, 0, 64, 59
1, 367858, Note_off_c, 0, 61, 56
1, 367862, Control_c, 0, 64, 127
1, 367871, Note_off_c, 0, 73, 57
1, 367933, Note_on_c, 0, 64, 77
1, 367949, Note_on_c, 0, 52, 59
1, 367950, Note_on_c, 0, 61, 59
1, 367960, Note_on_c, 0, 56, 48
1, 367986, Note_off_c, 0, 61, 54
1, 367988, Note_off_c, 0, 56, 59
1, 367998, Note_off_c, 0, 64, 59
1, 368001, Note_off_c, 0, 52, 55
1, 368103, Note_on_c, 0, 68, 94
1, 368103, Note_on_c, 0, 80, 105
1, 368114, Note_on_c, 0, 61, 71
1, 368114, Note_on_c, 0, 64, 74
1, 368118, Note_on_c, 0, 52, 67
1, 368125, Note_on_c, 0, 56, 44
1, 368142, Note_off_c, 0, 68, 66
1, 368144, Note_off_c, 0, 80, 70
1, 368167, Note_off_c, 0, 64, 50
1, 368168, Note_off_c, 0, 56, 57
1, 368180, Note_off_c, 0, 61, 55
1, 368184, Note_off_c, 0, 52, 57
1, 368303, Note_on_c, 0, 64, 55
1, 368306, Note_on_c, 0, 61, 55
1, 368313, Note_on_c, 0, 52, 56
1, 368319, Note_on_c, 0, 56, 33
1, 368347, Note_off_c, 0, 61, 55
1, 368351, Note_off_c, 0, 52, 55
1, 368351, Note_off_c, 0, 56, 51
1, 368359, Note_off_c, 0, 64, 52
1, 368505, Note_on_c, 0, 80, 107
1, 368507, Note_on_c, 0, 68, 96
1, 368522, Note_on_c, 0, 64, 72
1, 368529, Note_on_c, 0, 61, 68
1, 368529, Note_on_c, 0, 52, 59
1, 368544, Note_on_c, 0, 56, 40
1, 368544, Note_off_c, 0, 68, 66
1, 368547, Note_off_c, 0, 80, 72
1, 368579, Note_off_c, 0, 61, 50
1, 368585, Note_off_c, 0, 56, 45
1, 368600, Note_off_c, 0, 52, 54
1, 368628, Note_off_c, 0, 64, 36
1, 368744, Note_on_c, 0, 64, 61
1, 368753, Note_on_c, 0, 52, 53
1, 368754, Note_on_c, 0, 61, 64
1, 368771, Note_on_c, 0, 56, 41
1, 368781, Note_off_c, 0, 64, 59
1, 368790, Note_off_c, 0, 61, 58
1, 368800, Note_off_c, 0, 56, 56
1, 368809, Note_off_c, 0, 52, 61
1, 368962, Note_on_c, 0, 64, 71
1, 368966, Note_on_c, 0, 52, 62
1, 368969, Note_on_c, 0, 61, 70
1, 368970, Note_on_c, 0, 56, 46
1, 369014, Note_off_c, 0, 61, 51
1, 369014, Note_off_c, 0, 64, 52
1, 369021, Note_off_c, 0, 56, 54
1, 369026, Note_off_c, 0, 52, 55
1, 369159, Note_on_c, 0, 52, 55
1, 369173, Note_on_c, 0, 61, 54
1, 369182, Note_on_c, 0, 64, 66
1, 369186, Note_on_c, 0, 56, 45
1, 369219, Note_on_c, 0, 69, 100
1, 369219, Note_on_c, 0, 81, 110
1, 369220, Note_off_c, 0, 64, 64
1, 369239, Note_off_c, 0, 61, 60
1, 369262, Note_off_c, 0, 69, 68
1, 369265, Note_off_c, 0, 56, 64
1, 369276, Note_off_c, 0, 52, 64
1, 369386, Note_on_c, 0, 69, 92
1, 369471, Note_off_c, 0, 81, 53
1, 369533, Note_on_c, 0, 32, 74
1, 369593, Note_on_c, 0, 44, 76
1, 369597, Control_c, 0, 64, 75
1, 369612, Control_c, 0, 64, 0
1, 369647, Note_on_c, 0, 81, 103
1, 369664, Control_c, 0, 64, 40
1, 369679, Control_c, 0, 64, 72
1, 369694, Control_c, 0, 64, 112
1, 369708, Control_c, 0, 64, 127
1, 369712, Note_off_c, 0, 32, 62
1, 369745, Note_off_c, 0, 44, 60
1, 370314, Note_on_c, 0, 63, 36
1, 370323, Note_on_c, 0, 54, 39
1, 370329, Note_on_c, 0, 51, 45
1, 370344, Note_on_c, 0, 61, 36
1, 370417, Note_off_c, 0, 61, 35
1, 370444, Note_off_c, 0, 51, 50
1, 370478, Note_off_c, 0, 54, 33
1, 370481, Note_off_c, 0, 63, 41
1, 370606, Note_on_c, 0, 63, 47
1, 370614, Note_on_c, 0, 51, 48
1, 370615, Note_on_c, 0, 54, 47
1, 370630, Note_on_c, 0, 61, 51
1, 370660, Note_off_c, 0, 61, 48
1, 370738, Note_off_c, 0, 51, 34
1, 370740, Note_off_c, 0, 63, 32
1, 370801, Note_off_c, 0, 54, 0
1, 370815, Note_on_c, 0, 54, 34
1, 370818, Note_on_c, 0, 63, 46
1, 370824, Note_on_c, 0, 51, 51
1, 370833, Note_on_c, 0, 61, 54
1, 370907, Note_off_c, 0, 61, 32
1, 370948, Note_off_c, 0, 51, 34
1, 370957, Note_off_c, 0, 63, 35
1, 370991, Note_off_c, 0, 54, 0
1, 371003, Note_on_c, 0, 54, 42
1, 371008, Note_on_c, 0, 51, 44
1, 371009, Note_on_c, 0, 63, 63
1, 371014, Note_on_c, 0, 61, 49
1, 371083, Note_off_c, 0, 61, 45
1, 371119, Note_off_c, 0, 63, 37
1, 371122, Note_off_c, 0, 51, 36
1, 371190, Note_on_c, 0, 51, 43
1, 371191, Note_on_c, 0, 63, 55
1, 371195, Note_on_c, 0, 61, 41
1, 371199, Note_on_c, 0, 57, 60
1, 371266, Note_off_c, 0, 61, 44
1, 371266, Control_c, 0, 67, 12
1, 371280, Note_off_c, 0, 57, 57
1, 371280, Control_c, 0, 67, 27
1, 371295, Control_c, 0, 67, 47
1, 371307, Note_off_c, 0, 63, 37
1, 371310, Control_c, 0, 67, 67
1, 371319, Note_off_c, 0, 54, 39
1, 371325, Control_c, 0, 67, 85
1, 371340, Control_c, 0, 67, 101
1, 371355, Control_c, 0, 67, 116
1, 371362, Note_off_c, 0, 51, 0
1, 371369, Control_c, 0, 67, 127
1, 371375, Note_on_c, 0, 51, 35
1, 371389, Note_on_c, 0, 63, 52
1, 371395, Note_on_c, 0, 57, 52
1, 371398, Note_on_c, 0, 54, 34
1, 371401, Note_on_c, 0, 61, 26
1, 371430, Note_off_c, 0, 57, 58
1, 371441, Note_off_c, 0, 61, 48
1, 371450, Note_off_c, 0, 54, 43
1, 371479, Note_off_c, 0, 63, 36
1, 371492, Note_off_c, 0, 51, 34
1, 371592, Note_on_c, 0, 57, 49
1, 371593, Note_on_c, 0, 63, 41
1, 371601, Note_on_c, 0, 51, 42
1, 371604, Note_on_c, 0, 61, 37
1, 371623, Note_off_c, 0, 57, 64
1, 371636, Note_off_c, 0, 61, 49
1, 371653, Note_off_c, 0, 51, 41
1, 371694, Note_off_c, 0, 63, 39
1, 371861, Note_on_c, 0, 60, 48
1, 371868, Note_on_c, 0, 54, 33
1, 371873, Control_c, 0, 64, 95
1, 371877, Note_on_c, 0, 51, 41
1, 371877, Note_on_c, 0, 63, 29
1, 371888, Control_c, 0, 64, 76
1, 371910, Control_c, 0, 64, 63
1, 371925, Control_c, 0, 64, 51
1, 371940, Control_c, 0, 64, 51
1, 371954, Control_c, 0, 64, 62
1, 371969, Control_c, 0, 64, 71
1, 371985, Control_c, 0, 64, 83
1, 371996, Note_off_c, 0, 60, 52
1, 372000, Control_c, 0, 64, 98
1, 372015, Control_c, 0, 64, 112
1, 372021, Note_off_c, 0, 63, 37
1, 372029, Control_c, 0, 64, 117
1, 372044, Control_c, 0, 64, 120
1, 372049, Note_off_c, 0, 51, 41
1, 372052, Note_off_c, 0, 54, 43
1, 372059, Control_c, 0, 64, 127
1, 372151, Note_on_c, 0, 51, 37
1, 372151, Note_on_c, 0, 63, 37
1, 372156, Note_on_c, 0, 60, 49
1, 372167, Note_on_c, 0, 54, 32
1, 372212, Note_off_c, 0, 60, 55
1, 372229, Note_off_c, 0, 54, 46
1, 372243, Note_off_c, 0, 51, 47
1, 372248, Note_off_c, 0, 63, 36
1, 372484, Note_on_c, 0, 60, 47
1, 372489, Note_on_c, 0, 63, 38
1, 372490, Note_on_c, 0, 51, 35
1, 372504, Note_on_c, 0, 54, 31
1, 372572, Note_off_c, 0, 60, 53
1, 372598, Note_off_c, 0, 63, 39
1, 372614, Note_off_c, 0, 51, 34
1, 372615, Note_off_c, 0, 54, 35
1, 372965, Note_on_c, 0, 60, 40
1, 372967, Note_on_c, 0, 63, 15
1, 372980, Note_on_c, 0, 51, 25
1, 372984, Note_on_c, 0, 54, 25
1, 373529, Note_off_c, 0, 69, 54
1, 373907, Note_off_c, 0, 81, 47
1, 374291, Note_on_c, 0, 80, 53
1, 374316, Note_on_c, 0, 68, 38
1, 374350, Control_c, 0, 64, 101
1, 374364, Control_c, 0, 64, 89
1, 374380, Control_c, 0, 64, 81
1, 374395, Control_c, 0, 64, 74
1, 374410, Control_c, 0, 64, 68
1, 374424, Control_c, 0, 64, 63
1, 374439, Control_c, 0, 64, 59
1, 374454, Control_c, 0, 64, 58
1, 374469, Control_c, 0, 64, 59
1, 374484, Control_c, 0, 64, 61
1, 374498, Control_c, 0, 64, 62
1, 374513, Control_c, 0, 64, 63
1, 374528, Control_c, 0, 64, 64
1, 374543, Control_c, 0, 64, 65
1, 374558, Control_c, 0, 64, 67
1, 374572, Control_c, 0, 64, 70
1, 374587, Control_c, 0, 64, 74
1, 374602, Control_c, 0, 64, 79
1, 374617, Control_c, 0, 64, 85
1, 374631, Control_c, 0, 64, 91
1, 374646, Control_c, 0, 64, 95
1, 374661, Control_c, 0, 64, 99
1, 374676, Control_c, 0, 64, 103
1, 374691, Control_c, 0, 64, 110
1, 374705, Control_c, 0, 64, 127
1, 374711, Note_off_c, 0, 68, 42
1, 374724, Note_off_c, 0, 60, 34
1, 374777, Note_off_c, 0, 63, 39
1, 374796, Note_off_c, 0, 80, 53
1, 374866, Note_off_c, 0, 51, 33
1, 374872, Note_off_c, 0, 54, 41
1, 375277, Control_c, 0, 64, 120
1, 375292, Control_c, 0, 64, 115
1, 375307, Control_c, 0, 64, 112
1, 375321, Control_c, 0, 64, 111
1, 375336, Control_c, 0, 64, 109
1, 375351, Control_c, 0, 64, 108
1, 375366, Control_c, 0, 64, 107
1, 375381, Control_c, 0, 64, 105
1, 375395, Control_c, 0, 64, 104
1, 375410, Control_c, 0, 64, 103
1, 375425, Control_c, 0, 64, 102
1, 375440, Control_c, 0, 64, 101
1, 375454, Control_c, 0, 64, 100
1, 375484, Control_c, 0, 64, 99
1, 375499, Control_c, 0, 64, 99
1, 375514, Control_c, 0, 64, 98
1, 375528, Control_c, 0, 64, 97
1, 375543, Control_c, 0, 64, 95
1, 375558, Control_c, 0, 64, 94
1, 375573, Control_c, 0, 64, 93
1, 375587, Control_c, 0, 64, 92
1, 375602, Control_c, 0, 64, 91
1, 375617, Control_c, 0, 64, 90
1, 375632, Control_c, 0, 64, 89
1, 375654, Control_c, 0, 64, 88
1, 375669, Control_c, 0, 64, 88
1, 375684, Control_c, 0, 64, 87
1, 375714, Control_c, 0, 64, 87
1, 375728, Control_c, 0, 64, 86
1, 375743, Control_c, 0, 64, 86
1, 375758, Control_c, 0, 64, 85
1, 375847, Control_c, 0, 64, 85
1, 375862, Control_c, 0, 64, 84
1, 375877, Control_c, 0, 64, 83
1, 375891, Control_c, 0, 64, 82
1, 375906, Control_c, 0, 64, 81
1, 375921, Control_c, 0, 64, 79
1, 375936, Control_c, 0, 64, 77
1, 375951, Control_c, 0, 64, 74
1, 375966, Control_c, 0, 64, 71
1, 375981, Control_c, 0, 64, 68
1, 375996, Control_c, 0, 64, 66
1, 376011, Control_c, 0, 64, 63
1, 376026, Control_c, 0, 64, 60
1, 376041, Control_c, 0, 64, 58
1, 376055, Control_c, 0, 64, 58
1, 376159, Control_c, 0, 64, 58
1, 376189, Control_c, 0, 64, 59
1, 376218, Control_c, 0, 64, 59
1, 376233, Control_c, 0, 64, 60
1, 376263, Control_c, 0, 64, 60
1, 376292, Control_c, 0, 64, 61
1, 376351, Control_c, 0, 64, 61
1, 376381, Control_c, 0, 64, 62
1, 376477, Control_c, 0, 64, 62
1, 377376, Note_on_c, 0, 32, 21
1, 377389, Control_c, 0, 64, 62
1, 377417, Note_off_c, 0, 32, 44
1, 377418, Control_c, 0, 64, 61
1, 377433, Control_c, 0, 64, 61
1, 377463, Control_c, 0, 64, 59
1, 377478, Control_c, 0, 64, 58
1, 377489, Note_on_c, 0, 37, 37
1, 377492, Control_c, 0, 64, 57
1, 377507, Control_c, 0, 64, 56
1, 377523, Note_off_c, 0, 37, 54
1, 377537, Control_c, 0, 64, 56
1, 377552, Control_c, 0, 64, 54
1, 377568, Control_c, 0, 64, 51
1, 377583, Control_c, 0, 64, 47
1, 377597, Control_c, 0, 64, 45
1, 377612, Control_c, 0, 64, 40
1, 377625, Note_on_c, 0, 36, 43
1, 377627, Control_c, 0, 64, 31
1, 377641, Control_c, 0, 64, 15
1, 377653, Note_off_c, 0, 36, 55
1, 377656, Control_c, 0, 64, 0
1, 377751, Note_on_c, 0, 34, 41
1, 377787, Note_off_c, 0, 34, 51
1, 377885, Note_on_c, 0, 36, 40
1, 377932, Note_off_c, 0, 36, 53
1, 378024, Note_on_c, 0, 34, 42
1, 378056, Note_off_c, 0, 34, 50
1, 378143, Note_on_c, 0, 32, 50
1, 378176, Note_off_c, 0, 32, 61
1, 378311, Note_on_c, 0, 37, 17
1, 378353, Note_off_c, 0, 37, 42
1, 378425, Note_on_c, 0, 36, 23
1, 378462, Note_off_c, 0, 36, 40
1, 378536, Note_on_c, 0, 34, 46
1, 378568, Note_off_c, 0, 34, 54
1, 378627, Control_c, 0, 64, 8
1, 378664, Control_c, 0, 64, 10
1, 378682, Note_on_c, 0, 36, 44
1, 378715, Note_off_c, 0, 36, 55
1, 378816, Note_on_c, 0, 34, 38
1, 378852, Note_off_c, 0, 34, 45
1, 378916, Control_c, 0, 64, 11
1, 378919, Note_on_c, 0, 32, 44
1, 378951, Note_off_c, 0, 32, 58
1, 379049, Control_c, 0, 64, 12
1, 379057, Note_on_c, 0, 37, 42
1, 379098, Note_off_c, 0, 37, 50
1, 379138, Control_c, 0, 64, 13
1, 379152, Control_c, 0, 64, 14
1, 379168, Control_c, 0, 64, 15
1, 379199, Note_on_c, 0, 36, 32
1, 379228, Note_off_c, 0, 36, 46
1, 379242, Control_c, 0, 64, 16
1, 379325, Note_on_c, 0, 34, 26
1, 379367, Note_off_c, 0, 34, 40
1, 379457, Note_on_c, 0, 36, 37
1, 379495, Note_off_c, 0, 36, 51
1, 379585, Note_on_c, 0, 34, 39
1, 379618, Note_off_c, 0, 34, 50
1, 379693, Control_c, 0, 64, 17
1, 379706, Note_on_c, 0, 32, 46
1, 379723, Control_c, 0, 64, 18
1, 379737, Note_off_c, 0, 32, 58
1, 379738, Control_c, 0, 64, 19
1, 379753, Control_c, 0, 64, 20
1, 379782, Control_c, 0, 64, 20
1, 379797, Control_c, 0, 64, 21
1, 379847, Note_on_c, 0, 37, 42
1, 379888, Note_off_c, 0, 37, 55
1, 379984, Note_on_c, 0, 36, 36
1, 380014, Note_off_c, 0, 36, 48
1, 380100, Note_on_c, 0, 34, 37
1, 380134, Note_off_c, 0, 34, 46
1, 380233, Note_on_c, 0, 36, 46
1, 380263, Note_off_c, 0, 36, 55
1, 380360, Note_on_c, 0, 34, 44
1, 380392, Note_off_c, 0, 34, 51
1, 380462, Note_on_c, 0, 32, 52
1, 380496, Note_off_c, 0, 32, 63
1, 380529, Note_on_c, 0, 53, 64
1, 380538, Note_on_c, 0, 44, 57
1, 380549, Note_on_c, 0, 49, 49
1, 380569, Note_off_c, 0, 53, 58
1, 380572, Note_off_c, 0, 44, 61
1, 380590, Note_off_c, 0, 49, 57
1, 380627, Note_on_c, 0, 53, 57
1, 380647, Note_on_c, 0, 44, 53
1, 380648, Note_on_c, 0, 37, 46
1, 380648, Note_on_c, 0, 49, 45
1, 380691, Note_off_c, 0, 37, 57
1, 380785, Control_c, 0, 64, 20
1, 380789, Note_on_c, 0, 36, 38
1, 380821, Note_off_c, 0, 36, 56
1, 380905, Note_on_c, 0, 34, 51
1, 380936, Note_off_c, 0, 34, 58
1, 380985, Control_c, 0, 64, 19
1, 380999, Control_c, 0, 64, 16
1, 381014, Control_c, 0, 64, 11
1, 381029, Control_c, 0, 64, 0
1, 381042, Note_on_c, 0, 36, 49
1, 381075, Note_off_c, 0, 36, 56
1, 381147, Control_c, 0, 64, 18
1, 381162, Control_c, 0, 64, 37
1, 381171, Note_on_c, 0, 34, 52
1, 381177, Control_c, 0, 64, 50
1, 381192, Control_c, 0, 64, 58
1, 381201, Note_off_c, 0, 34, 58
1, 381206, Control_c, 0, 64, 63
1, 381221, Control_c, 0, 64, 67
1, 381236, Control_c, 0, 64, 72
1, 381251, Control_c, 0, 64, 79
1, 381266, Control_c, 0, 64, 85
1, 381280, Note_on_c, 0, 32, 56
1, 381281, Control_c, 0, 64, 88
1, 381296, Control_c, 0, 64, 90
1, 381311, Note_off_c, 0, 32, 59
1, 381312, Note_off_c, 0, 49, 51
1, 381335, Note_off_c, 0, 53, 37
1, 381340, Control_c, 0, 64, 91
1, 381365, Note_off_c, 0, 44, 28
1, 381384, Control_c, 0, 64, 90
1, 381399, Control_c, 0, 64, 86
1, 381414, Control_c, 0, 64, 78
1, 381427, Note_on_c, 0, 37, 49
1, 381428, Note_on_c, 0, 44, 31
1, 381429, Note_on_c, 0, 53, 58
1, 381429, Control_c, 0, 64, 68
1, 381434, Note_on_c, 0, 49, 43
1, 381444, Control_c, 0, 64, 59
1, 381458, Control_c, 0, 64, 44
1, 381473, Control_c, 0, 64, 0
1, 381480, Note_off_c, 0, 37, 55
1, 381570, Note_on_c, 0, 36, 40
1, 381600, Note_off_c, 0, 36, 56
1, 381686, Note_on_c, 0, 34, 53
1, 381717, Note_off_c, 0, 34, 62
1, 381843, Note_on_c, 0, 36, 31
1, 381877, Note_off_c, 0, 36, 45
1, 381956, Note_on_c, 0, 34, 52
1, 381970, Control_c, 0, 64, 48
1, 381985, Control_c, 0, 64, 62
1, 381987, Note_off_c, 0, 34, 58
1, 382000, Control_c, 0, 64, 68
1, 382014, Control_c, 0, 64, 71
1, 382029, Control_c, 0, 64, 73
1, 382044, Control_c, 0, 64, 75
1, 382059, Control_c, 0, 64, 77
1, 382072, Note_on_c, 0, 32, 52
1, 382074, Control_c, 0, 64, 80
1, 382089, Control_c, 0, 64, 82
1, 382104, Control_c, 0, 64, 83
1, 382104, Note_off_c, 0, 32, 58
1, 382108, Note_off_c, 0, 53, 53
1, 382131, Note_off_c, 0, 49, 35
1, 382132, Note_off_c, 0, 44, 34
1, 382163, Control_c, 0, 64, 82
1, 382178, Control_c, 0, 64, 79
1, 382193, Control_c, 0, 64, 73
1, 382207, Control_c, 0, 64, 64
1, 382214, Note_on_c, 0, 37, 47
1, 382222, Note_on_c, 0, 53, 54
1, 382222, Control_c, 0, 64, 52
1, 382232, Note_on_c, 0, 44, 42
1, 382235, Note_on_c, 0, 49, 37
1, 382237, Control_c, 0, 64, 14
1, 382252, Control_c, 0, 64, 0
1, 382268, Note_off_c, 0, 37, 54
1, 382351, Note_on_c, 0, 36, 44
1, 382393, Note_off_c, 0, 36, 55
1, 382475, Note_on_c, 0, 34, 46
1, 382506, Note_off_c, 0, 34, 55
1, 382613, Note_on_c, 0, 36, 42
1, 382648, Note_off_c, 0, 36, 51
1, 382737, Note_on_c, 0, 34, 49
1, 382766, Note_off_c, 0, 34, 56
1, 382853, Note_on_c, 0, 32, 45
1, 382885, Note_off_c, 0, 32, 55
1, 382974, Note_on_c, 0, 37, 43
1, 383025, Note_off_c, 0, 37, 46
1, 383110, Note_on_c, 0, 36, 39
1, 383148, Note_off_c, 0, 36, 56
1, 383172, Control_c, 0, 64, 14
1, 383186, Control_c, 0, 64, 22
1, 383201, Control_c, 0, 64, 28
1, 383216, Control_c, 0, 64, 32
1, 383225, Note_off_c, 0, 49, 52
1, 383229, Note_on_c, 0, 34, 50
1, 383231, Control_c, 0, 64, 35
1, 383246, Control_c, 0, 64, 37
1, 383260, Note_off_c, 0, 34, 58
1, 383260, Control_c, 0, 64, 39
1, 383275, Control_c, 0, 64, 41
1, 383290, Control_c, 0, 64, 42
1, 383305, Control_c, 0, 64, 43
1, 383320, Control_c, 0, 64, 41
1, 383335, Control_c, 0, 64, 24
1, 383350, Note_on_c, 0, 49, 59
1, 383350, Control_c, 0, 64, 0
1, 383365, Note_on_c, 0, 36, 39
1, 383374, Note_off_c, 0, 53, 63
1, 383424, Note_off_c, 0, 36, 42
1, 383424, Control_c, 0, 64, 31
1, 383439, Control_c, 0, 64, 52
1, 383454, Control_c, 0, 64, 62
1, 383468, Control_c, 0, 64, 66
1, 383480, Note_on_c, 0, 34, 50
1, 383483, Control_c, 0, 64, 68
1, 383498, Control_c, 0, 64, 69
1, 383502, Note_off_c, 0, 49, 55
1, 383513, Control_c, 0, 64, 70
1, 383516, Note_off_c, 0, 34, 57
1, 383528, Control_c, 0, 64, 71
1, 383529, Note_off_c, 0, 44, 36
1, 383542, Control_c, 0, 64, 72
1, 383557, Control_c, 0, 64, 73
1, 383579, Note_on_c, 0, 32, 54
1, 383612, Note_off_c, 0, 32, 63
1, 383624, Note_on_c, 0, 53, 71
1, 383626, Note_on_c, 0, 49, 64
1, 383631, Control_c, 0, 64, 72
1, 383646, Control_c, 0, 64, 69
1, 383657, Note_off_c, 0, 49, 63
1, 383660, Control_c, 0, 64, 63
1, 383675, Control_c, 0, 64, 50
1, 383690, Control_c, 0, 64, 0
1, 383726, Note_on_c, 0, 44, 39
1, 383728, Note_on_c, 0, 56, 72
1, 383731, Note_on_c, 0, 49, 59
1, 383743, Note_on_c, 0, 37, 57
1, 383798, Note_off_c, 0, 37, 57
1, 383868, Note_on_c, 0, 36, 55
1, 383919, Note_off_c, 0, 36, 60
1, 383995, Note_on_c, 0, 34, 51
1, 384026, Note_off_c, 0, 34, 60
1, 384128, Note_on_c, 0, 36, 55
1, 384168, Note_off_c, 0, 36, 61
1, 384260, Note_on_c, 0, 34, 53
1, 384289, Note_off_c, 0, 34, 58
1, 384306, Control_c, 0, 64, 32
1, 384321, Control_c, 0, 64, 54
1, 384336, Control_c, 0, 64, 64
1, 384351, Control_c, 0, 64, 68
1, 384365, Control_c, 0, 64, 69
1, 384370, Note_on_c, 0, 32, 60
1, 384380, Control_c, 0, 64, 70
1, 384381, Note_off_c, 0, 56, 50
1, 384395, Control_c, 0, 64, 71
1, 384402, Note_off_c, 0, 32, 64
1, 384409, Note_off_c, 0, 44, 41
1, 384409, Control_c, 0, 64, 72
1, 384424, Control_c, 0, 64, 73
1, 384439, Control_c, 0, 64, 74
1, 384469, Control_c, 0, 64, 72
1, 384479, Note_off_c, 0, 53, 57
1, 384483, Control_c, 0, 64, 67
1, 384498, Control_c, 0, 64, 58
1, 384503, Note_on_c, 0, 56, 67
1, 384510, Note_on_c, 0, 37, 54
1, 384513, Control_c, 0, 64, 26
1, 384515, Note_on_c, 0, 51, 59
1, 384520, Note_on_c, 0, 44, 56
1, 384527, Control_c, 0, 64, 0
1, 384557, Note_off_c, 0, 37, 56
1, 384571, Note_off_c, 0, 49, 37
1, 384647, Note_on_c, 0, 36, 51
1, 384682, Note_off_c, 0, 36, 62
1, 384775, Note_on_c, 0, 34, 50
1, 384806, Note_off_c, 0, 34, 60
1, 384900, Note_on_c, 0, 36, 58
1, 384936, Note_off_c, 0, 36, 63
1, 385033, Note_on_c, 0, 34, 44
1, 385065, Note_off_c, 0, 34, 53
1, 385085, Control_c, 0, 64, 38
1, 385100, Control_c, 0, 64, 55
1, 385114, Control_c, 0, 64, 64
1, 385129, Control_c, 0, 64, 66
1, 385144, Control_c, 0, 64, 67
1, 385156, Note_on_c, 0, 32, 53
1, 385158, Control_c, 0, 64, 68
1, 385173, Control_c, 0, 64, 70
1, 385177, Note_off_c, 0, 56, 54
1, 385188, Control_c, 0, 64, 72
1, 385189, Note_off_c, 0, 32, 61
1, 385203, Control_c, 0, 64, 74
1, 385214, Note_off_c, 0, 44, 34
1, 385218, Control_c, 0, 64, 74
1, 385262, Control_c, 0, 64, 73
1, 385277, Control_c, 0, 64, 69
1, 385292, Control_c, 0, 64, 62
1, 385294, Note_on_c, 0, 37, 46
1, 385296, Note_on_c, 0, 44, 39
1, 385296, Note_on_c, 0, 56, 57
1, 385299, Note_on_c, 0, 53, 49
1, 385303, Note_on_c, 0, 49, 52
1, 385307, Control_c, 0, 64, 44
1, 385322, Note_off_c, 0, 51, 56
1, 385322, Control_c, 0, 64, 0
1, 385345, Note_off_c, 0, 37, 55
1, 385436, Note_on_c, 0, 36, 46
1, 385465, Note_off_c, 0, 36, 58
1, 385553, Note_on_c, 0, 34, 53
1, 385586, Note_off_c, 0, 34, 62
1, 385683, Note_on_c, 0, 36, 54
1, 385720, Note_off_c, 0, 36, 63
1, 385808, Note_on_c, 0, 34, 50
1, 385838, Note_off_c, 0, 34, 57
1, 385925, Note_on_c, 0, 32, 57
1, 385957, Note_off_c, 0, 32, 63
1, 386054, Note_on_c, 0, 37, 53
1, 386091, Note_off_c, 0, 37, 60
1, 386116, Control_c, 0, 64, 8
1, 386137, Control_c, 0, 64, 11
1, 386152, Control_c, 0, 64, 13
1, 386167, Control_c, 0, 64, 16
1, 386182, Control_c, 0, 64, 19
1, 386188, Note_on_c, 0, 36, 46
1, 386197, Control_c, 0, 64, 21
1, 386212, Control_c, 0, 64, 23
1, 386216, Note_off_c, 0, 36, 54
1, 386227, Control_c, 0, 64, 24
1, 386242, Control_c, 0, 64, 25
1, 386256, Control_c, 0, 64, 26
1, 386262, Note_off_c, 0, 53, 51
1, 386271, Control_c, 0, 64, 27
1, 386274, Note_off_c, 0, 44, 41
1, 386286, Control_c, 0, 64, 27
1, 386301, Control_c, 0, 64, 28
1, 386307, Note_on_c, 0, 34, 53
1, 386316, Note_off_c, 0, 49, 47
1, 386340, Note_off_c, 0, 34, 62
1, 386346, Control_c, 0, 64, 29
1, 386361, Control_c, 0, 64, 29
1, 386376, Note_off_c, 0, 56, 60
1, 386376, Control_c, 0, 64, 30
1, 386420, Control_c, 0, 64, 30
1, 386431, Note_on_c, 0, 36, 37
1, 386462, Note_off_c, 0, 36, 51
1, 386495, Control_c, 0, 64, 31
1, 386521, Note_on_c, 0, 34, 50
1, 386560, Note_off_c, 0, 34, 59
1, 386599, Note_on_c, 0, 56, 66
1, 386601, Note_on_c, 0, 53, 58
1, 386606, Note_on_c, 0, 32, 58
1, 386617, Note_on_c, 0, 49, 34
1, 386631, Note_off_c, 0, 56, 62
1, 386633, Note_off_c, 0, 53, 66
1, 386641, Note_off_c, 0, 32, 63
1, 386673, Note_off_c, 0, 49, 0
1, 386686, Note_on_c, 0, 49, 36
1, 386686, Note_on_c, 0, 53, 65
1, 386688, Note_on_c, 0, 56, 65
1, 386715, Note_off_c, 0, 49, 50
1, 386718, Note_off_c, 0, 53, 67
1, 386718, Note_off_c, 0, 56, 63
1, 386718, Control_c, 0, 64, 30
1, 386733, Control_c, 0, 64, 23
1, 386748, Control_c, 0, 64, 10
1, 386762, Control_c, 0, 64, 0
1, 386777, Control_c, 0, 64, 20
1, 386778, Note_on_c, 0, 56, 74
1, 386779, Note_on_c, 0, 53, 71
1, 386782, Note_on_c, 0, 49, 69
1, 386792, Control_c, 0, 64, 39
1, 386806, Control_c, 0, 64, 52
1, 386810, Note_on_c, 0, 37, 52
1, 386820, Note_on_c, 0, 44, 43
1, 386821, Control_c, 0, 64, 59
1, 386836, Control_c, 0, 64, 63
1, 386851, Control_c, 0, 64, 64
1, 386866, Note_off_c, 0, 37, 59
1, 386866, Control_c, 0, 64, 65
1, 386870, Note_off_c, 0, 44, 57
1, 386873, Note_off_c, 0, 49, 59
1, 386888, Control_c, 0, 64, 66
1, 386894, Note_off_c, 0, 53, 63
1, 386903, Control_c, 0, 64, 68
1, 386906, Note_off_c, 0, 56, 63
1, 386918, Control_c, 0, 64, 70
1, 386932, Control_c, 0, 64, 71
1, 386933, Note_on_c, 0, 36, 53
1, 386962, Control_c, 0, 64, 70
1, 386977, Control_c, 0, 64, 68
1, 386980, Note_off_c, 0, 36, 57
1, 386992, Control_c, 0, 64, 64
1, 387006, Control_c, 0, 64, 59
1, 387021, Control_c, 0, 64, 53
1, 387028, Note_on_c, 0, 34, 64
1, 387036, Control_c, 0, 64, 41
1, 387051, Control_c, 0, 64, 20
1, 387066, Control_c, 0, 64, 0
1, 387073, Note_off_c, 0, 34, 60
1, 387139, Control_c, 0, 64, 10
1, 387154, Control_c, 0, 64, 31
1, 387159, Note_on_c, 0, 61, 78
1, 387171, Control_c, 0, 64, 44
1, 387174, Note_on_c, 0, 53, 62
1, 387179, Note_on_c, 0, 56, 65
1, 387183, Note_on_c, 0, 36, 54
1, 387185, Control_c, 0, 64, 52
1, 387200, Control_c, 0, 64, 57
1, 387215, Control_c, 0, 64, 59
1, 387225, Note_off_c, 0, 53, 58
1, 387229, Control_c, 0, 64, 61
1, 387237, Note_off_c, 0, 61, 61
1, 387237, Note_off_c, 0, 36, 62
1, 387244, Control_c, 0, 64, 62
1, 387259, Control_c, 0, 64, 62
1, 387274, Control_c, 0, 64, 63
1, 387285, Note_off_c, 0, 56, 61
1, 387289, Control_c, 0, 64, 63
1, 387301, Note_on_c, 0, 34, 65
1, 387318, Control_c, 0, 64, 63
1, 387333, Control_c, 0, 64, 61
1, 387348, Control_c, 0, 64, 57
1, 387350, Note_off_c, 0, 34, 62
1, 387362, Control_c, 0, 64, 50
1, 387377, Control_c, 0, 64, 39
1, 387392, Control_c, 0, 64, 13
1, 387407, Control_c, 0, 64, 0
1, 387407, Note_on_c, 0, 32, 67
1, 387454, Note_off_c, 0, 32, 62
1, 387510, Control_c, 0, 64, 10
1, 387525, Control_c, 0, 64, 42
1, 387540, Control_c, 0, 64, 54
1, 387541, Note_on_c, 0, 56, 77
1, 387544, Note_on_c, 0, 53, 69
1, 387546, Note_on_c, 0, 49, 69
1, 387554, Control_c, 0, 64, 61
1, 387556, Note_on_c, 0, 37, 60
1, 387556, Note_on_c, 0, 44, 56
1, 387569, Control_c, 0, 64, 63
1, 387579, Note_off_c, 0, 53, 62
1, 387584, Control_c, 0, 64, 63
1, 387599, Control_c, 0, 64, 64
1, 387608, Note_off_c, 0, 44, 57
1, 387609, Note_off_c, 0, 49, 59
1, 387623, Note_off_c, 0, 37, 59
1, 387648, Note_off_c, 0, 56, 64
1, 387651, Control_c, 0, 64, 62
1, 387666, Control_c, 0, 64, 59
1, 387681, Control_c, 0, 64, 51
1, 387683, Note_on_c, 0, 36, 67
1, 387696, Control_c, 0, 64, 38
1, 387710, Control_c, 0, 64, 10
1, 387725, Control_c, 0, 64, 0
1, 387737, Note_off_c, 0, 36, 59
1, 387786, Note_on_c, 0, 34, 68
1, 387839, Note_off_c, 0, 34, 58
1, 387902, Control_c, 0, 64, 28
1, 387917, Control_c, 0, 64, 46
1, 387919, Note_on_c, 0, 63, 85
1, 387929, Note_on_c, 0, 56, 70
1, 387932, Control_c, 0, 64, 55
1, 387934, Note_on_c, 0, 36, 67
1, 387934, Note_on_c, 0, 51, 68
1, 387947, Control_c, 0, 64, 59
1, 387963, Control_c, 0, 64, 60
1, 387977, Control_c, 0, 64, 61
1, 387990, Note_off_c, 0, 51, 52
1, 387992, Control_c, 0, 64, 60
1, 388002, Note_off_c, 0, 36, 60
1, 388007, Control_c, 0, 64, 59
1, 388012, Note_off_c, 0, 56, 51
1, 388018, Note_off_c, 0, 63, 60
1, 388022, Control_c, 0, 64, 54
1, 388037, Control_c, 0, 64, 45
1, 388051, Control_c, 0, 64, 33
1, 388057, Note_on_c, 0, 34, 68
1, 388066, Control_c, 0, 64, 0
1, 388105, Note_off_c, 0, 34, 62
1, 388185, Note_on_c, 0, 32, 58
1, 388200, Control_c, 0, 64, 14
1, 388215, Control_c, 0, 64, 25
1, 388229, Control_c, 0, 64, 30
1, 388230, Note_off_c, 0, 32, 58
1, 388244, Control_c, 0, 64, 33
1, 388259, Control_c, 0, 64, 35
1, 388274, Control_c, 0, 64, 36
1, 388289, Control_c, 0, 64, 37
1, 388307, Note_on_c, 0, 65, 83
1, 388316, Note_on_c, 0, 56, 67
1, 388319, Control_c, 0, 64, 35
1, 388321, Note_on_c, 0, 37, 58
1, 388321, Note_on_c, 0, 44, 55
1, 388324, Note_on_c, 0, 53, 66
1, 388333, Control_c, 0, 64, 34
1, 388348, Control_c, 0, 64, 33
1, 388363, Control_c, 0, 64, 32
1, 388366, Note_off_c, 0, 44, 59
1, 388381, Note_off_c, 0, 37, 59
1, 388447, Note_on_c, 0, 36, 56
1, 388489, Control_c, 0, 64, 32
1, 388495, Note_off_c, 0, 36, 58
1, 388519, Control_c, 0, 64, 33
1, 388563, Control_c, 0, 64, 33
1, 388573, Note_on_c, 0, 34, 53
1, 388577, Control_c, 0, 64, 34
1, 388592, Control_c, 0, 64, 34
1, 388614, Note_off_c, 0, 34, 57
1, 388637, Control_c, 0, 64, 35
1, 388651, Control_c, 0, 64, 35
1, 388666, Control_c, 0, 64, 36
1, 388681, Control_c, 0, 64, 36
1, 388720, Note_on_c, 0, 36, 47
1, 388756, Control_c, 0, 64, 36
1, 388760, Note_off_c, 0, 36, 62
1, 388825, Note_on_c, 0, 34, 61
1, 388845, Control_c, 0, 64, 36
1, 388874, Note_off_c, 0, 34, 60
1, 388889, Control_c, 0, 64, 37
1, 388919, Control_c, 0, 64, 37
1, 388934, Control_c, 0, 64, 38
1, 388948, Control_c, 0, 64, 38
1, 388954, Note_on_c, 0, 32, 57
1, 388963, Control_c, 0, 64, 39
1, 388978, Control_c, 0, 64, 40
1, 388984, Note_off_c, 0, 56, 56
1, 388993, Control_c, 0, 64, 41
1, 388996, Note_off_c, 0, 53, 43
1, 389000, Note_off_c, 0, 32, 55
1, 389007, Control_c, 0, 64, 41
1, 389022, Control_c, 0, 64, 42
1, 389037, Control_c, 0, 64, 44
1, 389052, Control_c, 0, 64, 46
1, 389067, Control_c, 0, 64, 47
1, 389082, Control_c, 0, 64, 48
1, 389090, Note_on_c, 0, 37, 59
1, 389097, Control_c, 0, 64, 48
1, 389098, Note_on_c, 0, 61, 66
1, 389100, Note_on_c, 0, 56, 51
1, 389103, Note_on_c, 0, 53, 60
1, 389112, Control_c, 0, 64, 49
1, 389141, Note_off_c, 0, 65, 64
1, 389160, Note_off_c, 0, 53, 61
1, 389163, Note_off_c, 0, 37, 60
1, 389190, Note_off_c, 0, 61, 60
1, 389210, Note_off_c, 0, 56, 60
1, 389225, Note_on_c, 0, 36, 62
1, 389276, Note_off_c, 0, 36, 61
1, 389340, Note_on_c, 0, 34, 65
1, 389371, Control_c, 0, 67, 101
1, 389386, Control_c, 0, 67, 60
1, 389390, Note_off_c, 0, 34, 59
1, 389400, Control_c, 0, 67, 27
1, 389415, Control_c, 0, 67, 0
1, 389461, Note_on_c, 0, 56, 68
1, 389463, Note_on_c, 0, 36, 62
1, 389488, Note_on_c, 0, 53, 39
1, 389494, Note_off_c, 0, 56, 62
1, 389502, Note_off_c, 0, 36, 61
1, 389517, Note_off_c, 0, 53, 52
1, 389566, Note_on_c, 0, 61, 77
1, 389574, Note_on_c, 0, 34, 69
1, 389595, Note_on_c, 0, 56, 42
1, 389613, Note_off_c, 0, 61, 62
1, 389622, Note_off_c, 0, 56, 54
1, 389623, Note_off_c, 0, 34, 61
1, 389686, Note_on_c, 0, 56, 74
1, 389687, Note_on_c, 0, 65, 78
1, 389691, Note_on_c, 0, 32, 67
1, 389736, Note_off_c, 0, 56, 58
1, 389742, Note_off_c, 0, 32, 59
1, 389756, Note_off_c, 0, 65, 61
1, 389816, Note_on_c, 0, 65, 60
1, 389818, Note_on_c, 0, 68, 86
1, 389821, Note_on_c, 0, 56, 70
1, 389830, Note_on_c, 0, 44, 60
1, 389833, Note_on_c, 0, 37, 63
1, 389836, Note_on_c, 0, 61, 60
1, 389877, Note_off_c, 0, 44, 59
1, 389883, Control_c, 0, 64, 48
1, 389893, Note_off_c, 0, 37, 60
1, 389898, Control_c, 0, 64, 47
1, 389912, Control_c, 0, 64, 47
1, 389927, Control_c, 0, 64, 46
1, 389942, Control_c, 0, 64, 43
1, 389948, Note_on_c, 0, 36, 66
1, 389956, Control_c, 0, 64, 33
1, 389971, Control_c, 0, 64, 0
1, 389996, Note_off_c, 0, 36, 61
1, 390075, Note_on_c, 0, 34, 57
1, 390117, Note_off_c, 0, 34, 59
1, 390215, Note_on_c, 0, 36, 59
1, 390251, Note_off_c, 0, 36, 63
1, 390325, Note_on_c, 0, 34, 57
1, 390358, Control_c, 0, 64, 23
1, 390364, Note_off_c, 0, 34, 62
1, 390371, Control_c, 0, 64, 49
1, 390386, Control_c, 0, 64, 60
1, 390401, Control_c, 0, 64, 67
1, 390416, Control_c, 0, 64, 74
1, 390431, Control_c, 0, 64, 85
1, 390444, Note_on_c, 0, 32, 66
1, 390445, Control_c, 0, 64, 100
1, 390460, Control_c, 0, 64, 127
1, 390483, Note_off_c, 0, 68, 53
1, 390484, Note_off_c, 0, 32, 59
1, 390522, Note_off_c, 0, 56, 33
1, 390540, Note_off_c, 0, 65, 62
1, 390578, Control_c, 0, 64, 108
1, 390582, Note_on_c, 0, 37, 62
1, 390584, Note_on_c, 0, 44, 58
1, 390584, Note_on_c, 0, 68, 85
1, 390586, Note_on_c, 0, 56, 57
1, 390587, Note_on_c, 0, 63, 68
1, 390593, Control_c, 0, 64, 82
1, 390605, Note_off_c, 0, 61, 49
1, 390608, Control_c, 0, 64, 65
1, 390631, Control_c, 0, 64, 25
1, 390636, Note_off_c, 0, 44, 59
1, 390645, Note_off_c, 0, 37, 62
1, 390646, Control_c, 0, 64, 0
1, 390716, Note_on_c, 0, 36, 64
1, 390763, Note_off_c, 0, 36, 60
1, 390841, Note_on_c, 0, 34, 58
1, 390885, Note_off_c, 0, 34, 59
1, 390957, Control_c, 0, 64, 46
1, 390966, Note_on_c, 0, 36, 65
1, 390972, Control_c, 0, 64, 60
1, 390986, Control_c, 0, 64, 65
1, 391001, Control_c, 0, 64, 69
1, 391005, Note_off_c, 0, 36, 61
1, 391016, Control_c, 0, 64, 74
1, 391031, Control_c, 0, 64, 82
1, 391042, Note_off_c, 0, 63, 56
1, 391046, Control_c, 0, 64, 89
1, 391060, Control_c, 0, 64, 96
1, 391075, Control_c, 0, 64, 102
1, 391078, Note_on_c, 0, 34, 72
1, 391087, Note_off_c, 0, 68, 58
1, 391090, Control_c, 0, 64, 107
1, 391104, Control_c, 0, 64, 112
1, 391112, Note_off_c, 0, 56, 34
1, 391119, Control_c, 0, 64, 119
1, 391122, Note_off_c, 0, 34, 61
1, 391134, Control_c, 0, 64, 127
1, 391161, Note_on_c, 0, 63, 81
1, 391163, Note_on_c, 0, 68, 77
1, 391168, Note_on_c, 0, 56, 61
1, 391237, Note_off_c, 0, 56, 53
1, 391237, Note_on_c, 0, 32, 71
1, 391237, Note_off_c, 0, 68, 61
1, 391239, Control_c, 0, 64, 98
1, 391254, Control_c, 0, 64, 77
1, 391268, Control_c, 0, 64, 61
1, 391283, Note_off_c, 0, 32, 59
1, 391283, Control_c, 0, 64, 0
1, 391326, Note_on_c, 0, 68, 85
1, 391336, Note_on_c, 0, 56, 67
1, 391338, Note_on_c, 0, 65, 64
1, 391340, Note_on_c, 0, 61, 66
1, 391340, Note_on_c, 0, 44, 60
1, 391345, Note_off_c, 0, 63, 57
1, 391349, Note_on_c, 0, 37, 56
1, 391386, Note_off_c, 0, 44, 61
1, 391403, Note_off_c, 0, 37, 60
1, 391462, Note_on_c, 0, 36, 58
1, 391501, Note_off_c, 0, 36, 61
1, 391571, Note_on_c, 0, 34, 59
1, 391616, Note_off_c, 0, 34, 57
1, 391699, Note_on_c, 0, 36, 59
1, 391740, Note_off_c, 0, 36, 61
1, 391812, Note_on_c, 0, 34, 71
1, 391859, Note_off_c, 0, 34, 62
1, 391941, Note_on_c, 0, 32, 61
1, 391985, Note_off_c, 0, 32, 60
1, 392057, Note_on_c, 0, 37, 71
1, 392076, Note_off_c, 0, 68, 64
1, 392077, Note_off_c, 0, 65, 64
1, 392077, Control_c, 0, 64, 43
1, 392091, Control_c, 0, 64, 69
1, 392097, Note_off_c, 0, 61, 62
1, 392106, Note_off_c, 0, 37, 61
1, 392106, Control_c, 0, 64, 75
1, 392112, Note_off_c, 0, 56, 53
1, 392128, Control_c, 0, 64, 78
1, 392143, Control_c, 0, 64, 79
1, 392176, Note_on_c, 0, 36, 68
1, 392203, Control_c, 0, 64, 76
1, 392218, Control_c, 0, 64, 70
1, 392221, Note_off_c, 0, 36, 60
1, 392232, Control_c, 0, 64, 61
1, 392247, Control_c, 0, 64, 43
1, 392262, Control_c, 0, 64, 0
1, 392288, Note_on_c, 0, 34, 64
1, 392340, Note_off_c, 0, 34, 60
1, 392399, Note_on_c, 0, 56, 67
1, 392409, Note_on_c, 0, 36, 60
1, 392430, Note_on_c, 0, 53, 27
1, 392430, Note_off_c, 0, 56, 63
1, 392451, Note_off_c, 0, 36, 61
1, 392467, Note_off_c, 0, 53, 44
1, 392507, Note_on_c, 0, 61, 77
1, 392510, Note_on_c, 0, 34, 73
1, 392516, Note_on_c, 0, 56, 63
1, 392540, Note_off_c, 0, 61, 63
1, 392543, Note_off_c, 0, 56, 65
1, 392558, Note_off_c, 0, 34, 62
1, 392573, Control_c, 0, 64, 15
1, 392588, Control_c, 0, 64, 20
1, 392602, Control_c, 0, 64, 24
1, 392617, Control_c, 0, 64, 27
1, 392620, Note_on_c, 0, 56, 71
1, 392621, Note_on_c, 0, 65, 78
1, 392622, Note_on_c, 0, 32, 69
1, 392632, Control_c, 0, 64, 29
1, 392647, Control_c, 0, 64, 30
1, 392653, Note_on_c, 0, 66, 37
1, 392654, Note_off_c, 0, 66, 127
1, 392668, Note_off_c, 0, 32, 61
1, 392674, Note_off_c, 0, 56, 60
1, 392677, Control_c, 0, 64, 30
1, 392691, Control_c, 0, 64, 31
1, 392692, Note_off_c, 0, 65, 64
1, 392706, Control_c, 0, 64, 31
1, 392721, Control_c, 0, 64, 32
1, 392736, Control_c, 0, 64, 33
1, 392746, Note_on_c, 0, 65, 61
1, 392746, Note_on_c, 0, 68, 83
1, 392748, Note_on_c, 0, 56, 69
1, 392751, Control_c, 0, 64, 33
1, 392760, Note_on_c, 0, 61, 66
1, 392761, Note_on_c, 0, 37, 63
1, 392763, Note_on_c, 0, 44, 61
1, 392766, Control_c, 0, 64, 30
1, 392781, Control_c, 0, 64, 12
1, 392796, Control_c, 0, 64, 0
1, 392797, Note_off_c, 0, 44, 63
1, 392799, Note_off_c, 0, 37, 62
1, 392876, Note_on_c, 0, 36, 63
1, 392919, Note_off_c, 0, 36, 61
1, 392990, Note_on_c, 0, 34, 60
1, 393033, Note_off_c, 0, 34, 57
1, 393125, Note_on_c, 0, 36, 68
1, 393169, Note_off_c, 0, 36, 60
1, 393248, Note_on_c, 0, 34, 66
1, 393277, Control_c, 0, 64, 19
1, 393292, Control_c, 0, 64, 63
1, 393293, Note_off_c, 0, 34, 61
1, 393307, Control_c, 0, 64, 68
1, 393321, Control_c, 0, 64, 72
1, 393336, Control_c, 0, 64, 76
1, 393351, Control_c, 0, 64, 81
1, 393360, Note_on_c, 0, 32, 71
1, 393366, Control_c, 0, 64, 89
1, 393379, Note_off_c, 0, 68, 55
1, 393381, Control_c, 0, 64, 101
1, 393396, Control_c, 0, 64, 119
1, 393404, Note_off_c, 0, 32, 58
1, 393411, Control_c, 0, 64, 127
1, 393429, Note_off_c, 0, 56, 28
1, 393440, Note_off_c, 0, 65, 64
1, 393485, Control_c, 0, 64, 106
1, 393490, Note_on_c, 0, 68, 85
1, 393497, Note_on_c, 0, 63, 75
1, 393498, Note_on_c, 0, 56, 66
1, 393500, Note_on_c, 0, 37, 68
1, 393500, Control_c, 0, 64, 81
1, 393502, Note_on_c, 0, 44, 63
1, 393515, Note_off_c, 0, 61, 58
1, 393515, Control_c, 0, 64, 58
1, 393529, Control_c, 0, 64, 0
1, 393541, Note_off_c, 0, 44, 61
1, 393548, Note_off_c, 0, 37, 63
1, 393625, Note_on_c, 0, 36, 70
1, 393642, Control_c, 0, 64, 21
1, 393657, Control_c, 0, 64, 30
1, 393671, Note_off_c, 0, 36, 62
1, 393671, Control_c, 0, 64, 35
1, 393686, Control_c, 0, 64, 37
1, 393701, Control_c, 0, 64, 39
1, 393716, Control_c, 0, 64, 40
1, 393731, Control_c, 0, 64, 41
1, 393746, Control_c, 0, 64, 41
1, 393747, Note_on_c, 0, 34, 66
1, 393760, Control_c, 0, 64, 39
1, 393775, Control_c, 0, 64, 33
1, 393790, Control_c, 0, 64, 23
1, 393794, Note_off_c, 0, 34, 58
1, 393804, Control_c, 0, 64, 14
1, 393819, Control_c, 0, 64, 17
1, 393834, Control_c, 0, 64, 24
1, 393849, Control_c, 0, 64, 32
1, 393864, Control_c, 0, 64, 43
1, 393872, Note_on_c, 0, 36, 72
1, 393878, Control_c, 0, 64, 53
1, 393893, Control_c, 0, 64, 62
1, 393908, Control_c, 0, 64, 67
1, 393923, Control_c, 0, 64, 73
1, 393927, Note_off_c, 0, 36, 59
1, 393938, Control_c, 0, 64, 80
1, 393950, Note_off_c, 0, 63, 54
1, 393953, Control_c, 0, 64, 85
1, 393968, Control_c, 0, 64, 89
1, 393977, Note_off_c, 0, 68, 55
1, 393983, Control_c, 0, 64, 92
1, 393987, Note_on_c, 0, 34, 78
1, 393997, Control_c, 0, 64, 94
1, 394002, Note_off_c, 0, 56, 29
1, 394012, Control_c, 0, 64, 95
1, 394027, Control_c, 0, 64, 97
1, 394042, Control_c, 0, 64, 98
1, 394047, Note_off_c, 0, 34, 61
1, 394057, Control_c, 0, 64, 99
1, 394071, Control_c, 0, 64, 100
1, 394078, Note_on_c, 0, 63, 77
1, 394082, Note_on_c, 0, 68, 87
1, 394086, Control_c, 0, 64, 103
1, 394087, Note_on_c, 0, 56, 76
1, 394101, Control_c, 0, 64, 105
1, 394114, Control_c, 0, 64, 107
1, 394129, Control_c, 0, 64, 108
1, 394144, Control_c, 0, 64, 107
1, 394145, Note_on_c, 0, 32, 75
1, 394159, Control_c, 0, 64, 101
1, 394161, Note_off_c, 0, 56, 55
1, 394170, Note_off_c, 0, 68, 61
1, 394174, Control_c, 0, 64, 83
1, 394188, Control_c, 0, 64, 67
1, 394203, Control_c, 0, 64, 40
1, 394216, Note_off_c, 0, 32, 53
1, 394218, Control_c, 0, 64, 0
1, 394235, Note_on_c, 0, 68, 82
1, 394244, Note_on_c, 0, 56, 75
1, 394245, Note_on_c, 0, 65, 72
1, 394246, Note_on_c, 0, 37, 65
1, 394247, Note_on_c, 0, 44, 61
1, 394249, Note_on_c, 0, 61, 69
1, 394251, Note_off_c, 0, 63, 60
1, 394284, Note_off_c, 0, 44, 61
1, 394297, Note_off_c, 0, 37, 60
1, 394369, Note_on_c, 0, 36, 59
1, 394409, Note_off_c, 0, 36, 62
1, 394477, Note_on_c, 0, 34, 62
1, 394522, Note_off_c, 0, 34, 57
1, 394603, Note_on_c, 0, 36, 63
1, 394640, Note_off_c, 0, 36, 63
1, 394717, Note_on_c, 0, 34, 62
1, 394731, Control_c, 0, 64, 21
1, 394745, Control_c, 0, 64, 52
1, 394760, Control_c, 0, 64, 63
1, 394766, Note_off_c, 0, 34, 61
1, 394775, Control_c, 0, 64, 70
1, 394790, Control_c, 0, 64, 81
1, 394805, Control_c, 0, 64, 102
1, 394819, Control_c, 0, 64, 127
1, 394852, Note_on_c, 0, 32, 66
1, 394880, Note_off_c, 0, 56, 37
1, 394890, Note_off_c, 0, 32, 58
1, 394898, Note_off_c, 0, 68, 58
1, 394935, Note_off_c, 0, 65, 61
1, 394982, Control_c, 0, 64, 113
1, 394984, Note_on_c, 0, 68, 79
1, 394990, Note_on_c, 0, 56, 65
1, 394991, Note_on_c, 0, 63, 70
1, 394994, Note_on_c, 0, 37, 62
1, 394997, Control_c, 0, 64, 82
1, 395011, Note_on_c, 0, 44, 34
1, 395011, Control_c, 0, 64, 63
1, 395016, Note_off_c, 0, 61, 58
1, 395026, Control_c, 0, 64, 0
1, 395044, Note_off_c, 0, 44, 47
1, 395046, Note_off_c, 0, 37, 62
1, 395111, Note_on_c, 0, 36, 63
1, 395165, Note_off_c, 0, 36, 60
1, 395228, Control_c, 0, 64, 8
1, 395232, Note_on_c, 0, 34, 66
1, 395242, Control_c, 0, 64, 23
1, 395257, Control_c, 0, 64, 30
1, 395272, Control_c, 0, 64, 33
1, 395280, Note_off_c, 0, 34, 59
1, 395287, Control_c, 0, 64, 34
1, 395302, Control_c, 0, 64, 37
1, 395316, Control_c, 0, 64, 45
1, 395331, Control_c, 0, 64, 57
1, 395346, Control_c, 0, 64, 64
1, 395361, Control_c, 0, 64, 70
1, 395364, Note_on_c, 0, 36, 66
1, 395375, Control_c, 0, 64, 75
1, 395390, Control_c, 0, 64, 80
1, 395405, Control_c, 0, 64, 84
1, 395413, Note_off_c, 0, 36, 59
1, 395420, Control_c, 0, 64, 89
1, 395435, Control_c, 0, 64, 94
1, 395449, Control_c, 0, 64, 100
1, 395464, Control_c, 0, 64, 106
1, 395479, Control_c, 0, 64, 113
1, 395482, Note_on_c, 0, 34, 76
1, 395487, Note_off_c, 0, 68, 56
1, 395488, Note_off_c, 0, 63, 36
1, 395494, Control_c, 0, 64, 127
1, 395529, Note_off_c, 0, 56, 37
1, 395539, Note_off_c, 0, 34, 61
1, 395573, Note_on_c, 0, 63, 74
1, 395574, Note_on_c, 0, 56, 64
1, 395574, Note_on_c, 0, 68, 83
1, 395625, Note_on_c, 0, 32, 79
1, 395673, Note_off_c, 0, 56, 57
1, 395679, Note_off_c, 0, 68, 60
1, 395694, Note_off_c, 0, 32, 59
1, 395716, Control_c, 0, 64, 100
1, 395731, Control_c, 0, 64, 76
1, 395732, Note_on_c, 0, 68, 81
1, 395736, Note_on_c, 0, 56, 74
1, 395746, Note_on_c, 0, 37, 66
1, 395746, Control_c, 0, 64, 56
1, 395748, Note_on_c, 0, 61, 72
1, 395750, Note_on_c, 0, 44, 64
1, 395751, Note_on_c, 0, 65, 71
1, 395761, Control_c, 0, 64, 0
1, 395762, Note_off_c, 0, 63, 57
1, 395787, Note_off_c, 0, 44, 59
1, 395800, Note_off_c, 0, 37, 62
1, 395856, Note_on_c, 0, 36, 70
1, 395887, Control_c, 0, 64, 28
1, 395901, Control_c, 0, 64, 49
1, 395916, Control_c, 0, 64, 60
1, 395928, Note_off_c, 0, 36, 60
1, 395931, Control_c, 0, 64, 64
1, 395947, Control_c, 0, 64, 68
1, 395962, Control_c, 0, 64, 71
1, 395977, Control_c, 0, 64, 75
1, 395979, Note_on_c, 0, 34, 73
1, 395991, Control_c, 0, 64, 82
1, 396006, Control_c, 0, 64, 87
1, 396021, Control_c, 0, 64, 93
1, 396032, Note_off_c, 0, 68, 54
1, 396036, Control_c, 0, 64, 98
1, 396042, Note_off_c, 0, 34, 56
1, 396042, Note_off_c, 0, 56, 38
1, 396051, Control_c, 0, 64, 104
1, 396065, Control_c, 0, 64, 112
1, 396079, Note_off_c, 0, 65, 63
1, 396080, Control_c, 0, 64, 127
1, 396115, Note_on_c, 0, 36, 73
1, 396124, Note_on_c, 0, 68, 99
1, 396125, Control_c, 0, 64, 105
1, 396127, Note_on_c, 0, 56, 82
1, 396129, Note_on_c, 0, 63, 83
1, 396139, Control_c, 0, 64, 81
1, 396154, Control_c, 0, 64, 61
1, 396159, Note_off_c, 0, 61, 63
1, 396169, Control_c, 0, 64, 0
1, 396198, Control_c, 0, 64, 30
1, 396209, Note_off_c, 0, 36, 61
1, 396213, Control_c, 0, 64, 62
1, 396228, Control_c, 0, 64, 76
1, 396243, Control_c, 0, 64, 97
1, 396246, Note_on_c, 0, 34, 77
1, 396258, Control_c, 0, 64, 127
1, 396309, Note_off_c, 0, 34, 60
1, 396349, Note_off_c, 0, 68, 55
1, 396359, Note_off_c, 0, 56, 53
1, 396363, Note_on_c, 0, 32, 84
1, 396427, Note_off_c, 0, 32, 61
1, 396490, Note_on_c, 0, 68, 91
1, 396495, Note_on_c, 0, 37, 77
1, 396496, Note_on_c, 0, 56, 86
1, 396497, Note_on_c, 0, 44, 77
1, 396504, Note_on_c, 0, 65, 80
1, 396507, Note_on_c, 0, 61, 80
1, 396510, Control_c, 0, 64, 92
1, 396516, Note_off_c, 0, 63, 55
1, 396525, Control_c, 0, 64, 61
1, 396540, Control_c, 0, 64, 0
1, 396570, Note_off_c, 0, 37, 61
1, 396585, Control_c, 0, 64, 33
1, 396599, Control_c, 0, 64, 70
1, 396615, Note_off_c, 0, 44, 0
1, 396621, Control_c, 0, 64, 111
1, 396625, Note_on_c, 0, 36, 72
1, 396636, Control_c, 0, 64, 127
1, 396640, Note_on_c, 0, 44, 6
1, 396663, Note_off_c, 0, 68, 59
1, 396665, Note_off_c, 0, 56, 52
1, 396686, Note_off_c, 0, 44, 45
1, 396695, Note_off_c, 0, 65, 60
1, 396699, Note_off_c, 0, 36, 59
1, 396737, Note_on_c, 0, 34, 77
1, 396752, Note_on_c, 0, 44, 46
1, 396788, Note_off_c, 0, 44, 55
1, 396820, Note_off_c, 0, 34, 55
1, 396857, Note_on_c, 0, 36, 78
1, 396863, Note_on_c, 0, 68, 99
1, 396866, Note_on_c, 0, 56, 95
1, 396874, Control_c, 0, 64, 87
1, 396880, Note_on_c, 0, 63, 85
1, 396882, Note_on_c, 0, 44, 25
1, 396889, Control_c, 0, 64, 58
1, 396893, Note_off_c, 0, 61, 62
1, 396904, Control_c, 0, 64, 0
1, 396904, Note_on_c, 0, 66, 40
1, 396905, Note_off_c, 0, 66, 127
1, 396906, Note_off_c, 0, 44, 44
1, 396934, Control_c, 0, 64, 38
1, 396943, Note_off_c, 0, 56, 59
1, 396948, Control_c, 0, 64, 72
1, 396963, Control_c, 0, 64, 109
1, 396969, Note_off_c, 0, 36, 48
1, 396978, Control_c, 0, 64, 127
1, 396981, Note_off_c, 0, 68, 57
1, 396984, Note_on_c, 0, 34, 73
1, 397008, Note_off_c, 0, 63, 61
1, 397081, Note_off_c, 0, 34, 52
1, 397084, Note_on_c, 0, 32, 74
1, 397151, Note_off_c, 0, 32, 59
1, 397214, Note_on_c, 0, 73, 100
1, 397215, Note_on_c, 0, 40, 93
1, 397215, Note_on_c, 0, 64, 96
1, 397216, Note_on_c, 0, 61, 104
1, 397220, Note_on_c, 0, 33, 95
1, 397244, Control_c, 0, 64, 78
1, 397259, Control_c, 0, 64, 55
1, 397274, Control_c, 0, 64, 0
1, 397303, Note_off_c, 0, 33, 64
1, 397350, Note_on_c, 0, 32, 76
1, 397414, Note_off_c, 0, 32, 62
1, 397417, Note_off_c, 0, 40, 0
1, 397455, Poly_aftertouch_c, 0, 40, 127
1, 397474, Note_on_c, 0, 30, 74
1, 397523, Note_off_c, 0, 30, 62
1, 397591, Note_on_c, 0, 32, 71
1, 397604, Poly_aftertouch_c, 0, 40, 0
1, 397634, Note_off_c, 0, 32, 62
1, 397707, Note_on_c, 0, 30, 74
1, 397748, Note_off_c, 0, 30, 62
1, 397816, Control_c, 0, 64, 30
1, 397816, Note_on_c, 0, 28, 79
1, 397831, Control_c, 0, 64, 40
1, 397845, Control_c, 0, 64, 44
1, 397852, Note_off_c, 0, 28, 62
1, 397859, Control_c, 0, 64, 43
1, 397874, Control_c, 0, 64, 33
1, 397889, Control_c, 0, 64, 0
1, 397926, Note_on_c, 0, 33, 92
1, 397962, Note_off_c, 0, 73, 65
1, 397971, Note_off_c, 0, 33, 66
1, 397971, Note_off_c, 0, 61, 60
1, 397994, Note_off_c, 0, 64, 65
1, 398046, Note_on_c, 0, 32, 76
1, 398095, Note_off_c, 0, 32, 61
1, 398168, Note_on_c, 0, 30, 71
1, 398209, Note_off_c, 0, 30, 60
1, 398287, Note_on_c, 0, 32, 60
1, 398324, Note_off_c, 0, 32, 62
1, 398389, Note_on_c, 0, 30, 62
1, 398441, Note_off_c, 0, 30, 61
1, 398505, Note_on_c, 0, 28, 66
1, 398537, Note_off_c, 0, 28, 63
1, 398608, Note_on_c, 0, 33, 71
1, 398650, Note_off_c, 0, 33, 61
1, 398667, Control_c, 0, 67, 17
1, 398682, Control_c, 0, 67, 37
1, 398697, Control_c, 0, 67, 75
1, 398711, Control_c, 0, 67, 114
1, 398726, Control_c, 0, 67, 127
1, 398729, Note_on_c, 0, 32, 66
1, 398765, Note_off_c, 0, 32, 62
1, 398841, Note_on_c, 0, 30, 57
1, 398885, Note_off_c, 0, 30, 60
1, 398970, Note_on_c, 0, 32, 50
1, 398999, Note_off_c, 0, 32, 59
1, 399068, Note_on_c, 0, 30, 56
1, 399104, Note_off_c, 0, 30, 62
1, 399189, Note_on_c, 0, 28, 55
1, 399221, Note_off_c, 0, 28, 62
1, 399296, Note_on_c, 0, 33, 63
1, 399330, Note_off_c, 0, 33, 66
1, 399414, Note_on_c, 0, 32, 58
1, 399447, Note_off_c, 0, 32, 63
1, 399519, Note_on_c, 0, 30, 59
1, 399554, Note_off_c, 0, 30, 62
1, 399638, Note_on_c, 0, 32, 54
1, 399671, Note_off_c, 0, 32, 62
1, 399733, Note_on_c, 0, 30, 59
1, 399767, Note_off_c, 0, 30, 62
1, 399850, Note_on_c, 0, 28, 38
1, 399880, Note_on_c, 0, 57, 68
1, 399880, Note_off_c, 0, 28, 52
1, 399888, Note_on_c, 0, 49, 68
1, 399889, Note_on_c, 0, 26, 3
1, 399896, Note_on_c, 0, 52, 60
1, 399912, Note_off_c, 0, 57, 62
1, 399915, Note_off_c, 0, 49, 65
1, 399921, Note_off_c, 0, 26, 27
1, 399927, Note_off_c, 0, 52, 67
1, 399965, Note_on_c, 0, 57, 72
1, 399971, Note_on_c, 0, 49, 76
1, 399976, Note_on_c, 0, 40, 50
1, 399980, Note_on_c, 0, 33, 50
1, 399983, Note_on_c, 0, 52, 73
1, 400012, Note_off_c, 0, 33, 63
1, 400014, Note_off_c, 0, 40, 50
1, 400079, Note_on_c, 0, 32, 64
1, 400132, Note_off_c, 0, 32, 61
1, 400189, Note_on_c, 0, 30, 58
1, 400235, Note_off_c, 0, 30, 59
1, 400308, Note_on_c, 0, 32, 70
1, 400360, Note_off_c, 0, 32, 63
1, 400437, Note_on_c, 0, 30, 69
1, 400491, Note_off_c, 0, 30, 62
1, 400529, Control_c, 0, 64, 32
1, 400544, Control_c, 0, 64, 51
1, 400554, Note_on_c, 0, 28, 64
1, 400558, Control_c, 0, 64, 62
1, 400559, Note_off_c, 0, 49, 55
1, 400573, Control_c, 0, 64, 69
1, 400588, Control_c, 0, 64, 75
1, 400589, Note_off_c, 0, 28, 62
1, 400600, Note_off_c, 0, 57, 36
1, 400603, Control_c, 0, 64, 83
1, 400618, Control_c, 0, 64, 91
1, 400632, Control_c, 0, 64, 102
1, 400647, Control_c, 0, 64, 121
1, 400662, Control_c, 0, 64, 127
1, 400691, Control_c, 0, 64, 116
1, 400702, Note_on_c, 0, 57, 77
1, 400706, Note_on_c, 0, 33, 69
1, 400706, Note_off_c, 0, 52, 61
1, 400706, Control_c, 0, 64, 85
1, 400709, Note_on_c, 0, 40, 62
1, 400711, Note_on_c, 0, 54, 67
1, 400713, Note_on_c, 0, 50, 70
1, 400721, Control_c, 0, 64, 64
1, 400737, Control_c, 0, 64, 0
1, 400737, Note_off_c, 0, 33, 66
1, 400745, Note_off_c, 0, 40, 60
1, 400821, Note_on_c, 0, 32, 63
1, 400857, Note_off_c, 0, 32, 61
1, 400930, Note_on_c, 0, 30, 67
1, 400977, Note_off_c, 0, 30, 62
1, 401047, Note_on_c, 0, 32, 70
1, 401092, Note_off_c, 0, 32, 62
1, 401176, Note_on_c, 0, 30, 70
1, 401225, Note_off_c, 0, 30, 62
1, 401277, Control_c, 0, 64, 30
1, 401292, Note_on_c, 0, 28, 67
1, 401292, Control_c, 0, 64, 51
1, 401307, Control_c, 0, 64, 60
1, 401322, Control_c, 0, 64, 66
1, 401326, Note_off_c, 0, 28, 62
1, 401336, Control_c, 0, 64, 75
1, 401351, Control_c, 0, 64, 87
1, 401359, Note_off_c, 0, 57, 39
1, 401366, Control_c, 0, 64, 106
1, 401381, Control_c, 0, 64, 127
1, 401424, Note_off_c, 0, 54, 55
1, 401426, Control_c, 0, 64, 95
1, 401428, Note_off_c, 0, 50, 34
1, 401429, Note_on_c, 0, 57, 59
1, 401432, Note_on_c, 0, 33, 63
1, 401441, Control_c, 0, 64, 71
1, 401442, Note_on_c, 0, 40, 47
1, 401450, Note_on_c, 0, 49, 51
1, 401454, Note_on_c, 0, 52, 47
1, 401456, Control_c, 0, 64, 35
1, 401464, Note_off_c, 0, 33, 65
1, 401470, Control_c, 0, 64, 0
1, 401471, Note_off_c, 0, 40, 52
1, 401545, Note_on_c, 0, 32, 64
1, 401578, Note_off_c, 0, 32, 64
1, 401661, Note_on_c, 0, 30, 65
1, 401696, Note_off_c, 0, 30, 61
1, 401783, Note_on_c, 0, 32, 66
1, 401816, Note_off_c, 0, 32, 64
1, 401903, Note_on_c, 0, 30, 58
1, 401951, Note_off_c, 0, 30, 58
1, 402017, Note_on_c, 0, 28, 67
1, 402056, Note_off_c, 0, 28, 60
1, 402093, Note_off_c, 0, 49, 60
1, 402138, Note_on_c, 0, 33, 76
1, 402159, Note_off_c, 0, 52, 62
1, 402172, Note_off_c, 0, 33, 65
1, 402252, Note_on_c, 0, 32, 68
1, 402293, Note_off_c, 0, 32, 62
1, 402362, Note_on_c, 0, 30, 66
1, 402422, Note_off_c, 0, 30, 61
1, 402463, Note_on_c, 0, 52, 76
1, 402471, Note_off_c, 0, 57, 62
1, 402477, Note_on_c, 0, 49, 58
1, 402478, Note_on_c, 0, 32, 67
1, 402518, Note_off_c, 0, 49, 57
1, 402524, Note_off_c, 0, 32, 63
1, 402541, Note_off_c, 0, 52, 61
1, 402544, Control_c, 0, 64, 20
1, 402559, Control_c, 0, 64, 43
1, 402574, Control_c, 0, 64, 59
1, 402577, Note_on_c, 0, 30, 66
1, 402588, Control_c, 0, 64, 65
1, 402611, Control_c, 0, 64, 68
1, 402626, Control_c, 0, 64, 73
1, 402640, Control_c, 0, 64, 79
1, 402646, Note_off_c, 0, 30, 59
1, 402655, Control_c, 0, 64, 87
1, 402670, Control_c, 0, 64, 96
1, 402684, Control_c, 0, 64, 107
1, 402699, Control_c, 0, 64, 116
1, 402702, Note_on_c, 0, 28, 70
1, 402717, Note_on_c, 0, 57, 77
1, 402727, Note_on_c, 0, 49, 71
1, 402729, Note_on_c, 0, 52, 73
1, 402729, Control_c, 0, 64, 103
1, 402744, Control_c, 0, 64, 83
1, 402756, Note_off_c, 0, 28, 58
1, 402756, Note_off_c, 0, 52, 69
1, 402758, Control_c, 0, 64, 65
1, 402761, Note_off_c, 0, 49, 58
1, 402773, Control_c, 0, 64, 0
1, 402809, Note_on_c, 0, 61, 88
1, 402811, Note_on_c, 0, 49, 66
1, 402821, Note_on_c, 0, 52, 77
1, 402835, Note_on_c, 0, 33, 61
1, 402840, Note_on_c, 0, 40, 45
1, 402869, Note_off_c, 0, 33, 66
1, 402872, Note_off_c, 0, 40, 52
1, 402943, Note_on_c, 0, 32, 61
1, 402976, Note_off_c, 0, 32, 64
1, 403040, Note_on_c, 0, 30, 68
1, 403086, Note_off_c, 0, 30, 61
1, 403161, Note_on_c, 0, 32, 72
1, 403205, Control_c, 0, 64, 23
1, 403206, Note_off_c, 0, 32, 62
1, 403206, Note_off_c, 0, 57, 58
1, 403213, Note_off_c, 0, 52, 63
1, 403220, Control_c, 0, 64, 53
1, 403235, Control_c, 0, 64, 59
1, 403239, Note_off_c, 0, 49, 59
1, 403250, Control_c, 0, 64, 65
1, 403264, Control_c, 0, 64, 78
1, 403279, Control_c, 0, 64, 117
1, 403279, Control_c, 0, 67, 100
1, 403282, Note_on_c, 0, 30, 64
1, 403294, Control_c, 0, 64, 127
1, 403294, Control_c, 0, 67, 62
1, 403300, Note_off_c, 0, 61, 56
1, 403308, Control_c, 0, 67, 25
1, 403323, Control_c, 0, 67, 0
1, 403334, Note_off_c, 0, 30, 60
1, 403402, Note_on_c, 0, 28, 71
1, 403444, Note_off_c, 0, 28, 59
1, 403543, Note_on_c, 0, 64, 89
1, 403545, Note_on_c, 0, 40, 61
1, 403546, Note_on_c, 0, 33, 70
1, 403551, Note_on_c, 0, 52, 83
1, 403553, Note_on_c, 0, 59, 75
1, 403553, Control_c, 0, 64, 94
1, 403568, Control_c, 0, 64, 72
1, 403582, Control_c, 0, 64, 51
1, 403583, Note_off_c, 0, 33, 62
1, 403597, Control_c, 0, 64, 0
1, 403662, Note_on_c, 0, 32, 70
1, 403701, Note_off_c, 0, 40, 26
1, 403704, Note_off_c, 0, 32, 62
1, 403768, Note_on_c, 0, 30, 69
1, 403814, Note_off_c, 0, 30, 61
1, 403883, Note_on_c, 0, 32, 71
1, 403927, Note_off_c, 0, 32, 62
1, 403996, Note_on_c, 0, 30, 72
1, 404013, Control_c, 0, 64, 31
1, 404028, Control_c, 0, 64, 66
1, 404043, Control_c, 0, 64, 75
1, 404049, Note_off_c, 0, 30, 62
1, 404058, Control_c, 0, 64, 87
1, 404072, Control_c, 0, 64, 99
1, 404087, Control_c, 0, 64, 121
1, 404109, Control_c, 0, 64, 127
1, 404116, Note_on_c, 0, 28, 76
1, 404120, Note_off_c, 0, 52, 49
1, 404143, Note_off_c, 0, 64, 47
1, 404154, Note_off_c, 0, 28, 58
1, 404228, Control_c, 0, 64, 96
1, 404243, Control_c, 0, 64, 71
1, 404258, Control_c, 0, 64, 36
1, 404258, Note_on_c, 0, 33, 67
1, 404263, Note_on_c, 0, 64, 69
1, 404267, Note_off_c, 0, 59, 51
1, 404271, Note_on_c, 0, 52, 58
1, 404273, Note_on_c, 0, 40, 42
1, 404273, Control_c, 0, 64, 0
1, 404274, Note_on_c, 0, 61, 63
1, 404276, Note_on_c, 0, 57, 54
1, 404287, Note_off_c, 0, 33, 66
1, 404304, Note_off_c, 0, 40, 47
1, 404364, Note_on_c, 0, 32, 67
1, 404406, Note_off_c, 0, 32, 61
1, 404474, Note_on_c, 0, 30, 70
1, 404514, Note_off_c, 0, 30, 60
1, 404591, Note_on_c, 0, 32, 73
1, 404627, Note_off_c, 0, 32, 61
1, 404705, Note_on_c, 0, 30, 67
1, 404749, Note_off_c, 0, 30, 62
1, 404821, Note_on_c, 0, 28, 70
1, 404865, Note_off_c, 0, 28, 61
1, 404953, Note_on_c, 0, 33, 77
1, 404991, Note_off_c, 0, 33, 65
1, 405061, Note_off_c, 0, 52, 56
1, 405066, Note_on_c, 0, 32, 67
1, 405100, Note_off_c, 0, 57, 56
1, 405108, Note_off_c, 0, 32, 62
1, 405161, Note_off_c, 0, 61, 59
1, 405174, Note_off_c, 0, 64, 61
1, 405179, Note_on_c, 0, 30, 69
1, 405218, Note_off_c, 0, 30, 60
1, 405282, Note_on_c, 0, 32, 71
1, 405322, Note_off_c, 0, 32, 62
1, 405376, Note_on_c, 0, 30, 67
1, 405420, Note_off_c, 0, 30, 61
1, 405465, Note_on_c, 0, 64, 78
1, 405470, Note_on_c, 0, 61, 70
1, 405471, Note_on_c, 0, 28, 66
1, 405471, Note_on_c, 0, 57, 68
1, 405495, Note_off_c, 0, 64, 65
1, 405496, Note_off_c, 0, 61, 65
1, 405498, Note_off_c, 0, 57, 66
1, 405541, Note_on_c, 0, 64, 80
1, 405546, Note_on_c, 0, 61, 81
1, 405551, Note_on_c, 0, 57, 73
1, 405566, Note_off_c, 0, 61, 68
1, 405567, Note_off_c, 0, 28, 51
1, 405575, Note_off_c, 0, 57, 69
1, 405586, Note_off_c, 0, 64, 64
1, 405625, Note_on_c, 0, 64, 79
1, 405630, Note_on_c, 0, 61, 83
1, 405635, Note_on_c, 0, 57, 78
1, 405647, Note_on_c, 0, 40, 65
1, 405650, Note_on_c, 0, 33, 66
1, 405656, Note_off_c, 0, 57, 70
1, 405661, Note_off_c, 0, 61, 63
1, 405676, Note_off_c, 0, 64, 65
1, 405680, Control_c, 0, 64, 33
1, 405695, Control_c, 0, 64, 51
1, 405697, Note_off_c, 0, 33, 65
1, 405709, Control_c, 0, 64, 59
1, 405724, Control_c, 0, 64, 61
1, 405754, Control_c, 0, 64, 61
1, 405757, Note_on_c, 0, 32, 77
1, 405769, Control_c, 0, 64, 62
1, 405784, Control_c, 0, 64, 63
1, 405799, Control_c, 0, 64, 64
1, 405814, Control_c, 0, 64, 64
1, 405818, Note_off_c, 0, 32, 61
1, 405833, Note_off_c, 0, 40, 0
1, 405853, Note_on_c, 0, 40, 34
1, 405857, Note_on_c, 0, 30, 75
1, 405858, Control_c, 0, 64, 64
1, 405873, Control_c, 0, 64, 61
1, 405888, Control_c, 0, 64, 51
1, 405902, Control_c, 0, 64, 0
1, 405927, Note_off_c, 0, 30, 61
1, 405975, Note_on_c, 0, 69, 89
1, 405982, Note_on_c, 0, 64, 81
1, 405984, Note_on_c, 0, 61, 81
1, 405985, Note_on_c, 0, 32, 75
1, 406008, Note_off_c, 0, 61, 66
1, 406017, Note_off_c, 0, 64, 65
1, 406021, Control_c, 0, 64, 18
1, 406034, Note_off_c, 0, 69, 67
1, 406036, Control_c, 0, 64, 41
1, 406049, Note_off_c, 0, 32, 60
1, 406050, Control_c, 0, 64, 51
1, 406064, Note_off_c, 0, 40, 0
1, 406065, Control_c, 0, 64, 54
1, 406080, Control_c, 0, 64, 55
1, 406083, Note_on_c, 0, 40, 33
1, 406098, Note_on_c, 0, 30, 69
1, 406110, Control_c, 0, 64, 56
1, 406125, Control_c, 0, 64, 57
1, 406140, Control_c, 0, 64, 59
1, 406143, Note_off_c, 0, 40, 55
1, 406155, Control_c, 0, 64, 59
1, 406170, Control_c, 0, 64, 60
1, 406184, Control_c, 0, 64, 60
1, 406194, Note_off_c, 0, 30, 37
1, 406199, Control_c, 0, 64, 61
1, 406204, Note_on_c, 0, 28, 81
1, 406214, Control_c, 0, 64, 62
1, 406258, Control_c, 0, 64, 62
1, 406273, Control_c, 0, 64, 63
1, 406288, Control_c, 0, 64, 63
1, 406303, Control_c, 0, 64, 64
1, 406314, Note_on_c, 0, 64, 90
1, 406322, Note_on_c, 0, 57, 81
1, 406324, Note_on_c, 0, 61, 83
1, 406326, Note_on_c, 0, 33, 80
1, 406329, Note_on_c, 0, 40, 77
1, 406353, Note_off_c, 0, 61, 68
1, 406371, Control_c, 0, 64, 63
1, 406374, Note_off_c, 0, 57, 60
1, 406386, Control_c, 0, 64, 61
1, 406387, Note_off_c, 0, 28, 26
1, 406397, Note_off_c, 0, 64, 65
1, 406400, Control_c, 0, 64, 60
1, 406404, Note_off_c, 0, 33, 65
1, 406415, Control_c, 0, 64, 59
1, 406430, Control_c, 0, 64, 59
1, 406452, Note_on_c, 0, 32, 80
1, 406460, Control_c, 0, 64, 59
1, 406519, Control_c, 0, 64, 59
1, 406533, Control_c, 0, 64, 56
1, 406548, Control_c, 0, 64, 42
1, 406552, Note_on_c, 0, 30, 78
1, 406553, Note_off_c, 0, 32, 37
1, 406563, Control_c, 0, 64, 0
1, 406635, Note_off_c, 0, 30, 59
1, 406679, Note_on_c, 0, 32, 74
1, 406684, Note_on_c, 0, 71, 93
1, 406686, Note_on_c, 0, 59, 88
1, 406688, Note_on_c, 0, 64, 88
1, 406733, Note_off_c, 0, 59, 63
1, 406741, Control_c, 0, 64, 33
1, 406756, Control_c, 0, 64, 0
1, 406761, Note_off_c, 0, 32, 62
1, 406767, Note_off_c, 0, 71, 61
1, 406802, Note_on_c, 0, 30, 70
1, 406859, Note_off_c, 0, 64, 57
1, 406893, Note_off_c, 0, 30, 37
1, 406904, Note_on_c, 0, 28, 83
1, 406939, Note_off_c, 0, 40, 41
1, 407021, Note_off_c, 0, 28, 55
1, 407037, Note_on_c, 0, 73, 98
1, 407037, Control_c, 0, 64, 10
1, 407039, Note_on_c, 0, 64, 83
1, 407041, Note_on_c, 0, 40, 80
1, 407042, Note_on_c, 0, 33, 85
1, 407044, Note_on_c, 0, 61, 89
1, 407051, Control_c, 0, 64, 68
1, 407066, Control_c, 0, 64, 62
1, 407075, Note_on_c, 0, 28, 7
1, 407081, Control_c, 0, 64, 0
1, 407101, Note_off_c, 0, 28, 50
1, 407145, Note_off_c, 0, 33, 56
1, 407173, Note_on_c, 0, 32, 75
1, 407258, Note_off_c, 0, 32, 57
1, 407274, Note_on_c, 0, 30, 73
1, 407334, Note_off_c, 0, 30, 61
1, 407388, Note_on_c, 0, 32, 76
1, 407442, Note_off_c, 0, 32, 62
1, 407496, Note_on_c, 0, 30, 77
1, 407506, Note_off_c, 0, 64, 53
1, 407574, Note_off_c, 0, 61, 52
1, 407602, Note_off_c, 0, 30, 39
1, 407607, Note_on_c, 0, 28, 79
1, 407725, Note_on_c, 0, 69, 83
1, 407728, Note_on_c, 0, 61, 74
1, 407730, Note_on_c, 0, 64, 75
1, 407731, Note_on_c, 0, 33, 85
1, 407741, Control_c, 0, 64, 43
1, 407745, Note_off_c, 0, 73, 61
1, 407756, Control_c, 0, 64, 0
1, 407760, Note_off_c, 0, 28, 59
1, 407768, Note_off_c, 0, 61, 52
1, 407777, Note_off_c, 0, 64, 62
1, 407778, Note_off_c, 0, 69, 66
1, 407798, Note_off_c, 0, 33, 65
1, 407849, Note_on_c, 0, 32, 77
1, 407945, Note_off_c, 0, 32, 40
1, 407949, Note_on_c, 0, 30, 78
1, 408030, Note_off_c, 0, 30, 57
1, 408058, Note_on_c, 0, 32, 79
1, 408088, Note_on_c, 0, 61, 76
1, 408088, Note_on_c, 0, 64, 72
1, 408091, Note_on_c, 0, 57, 59
1, 408120, Note_off_c, 0, 57, 64
1, 408126, Note_off_c, 0, 32, 62
1, 408127, Note_off_c, 0, 64, 62
1, 408141, Note_off_c, 0, 40, 0
1, 408141, Note_off_c, 0, 61, 58
1, 408165, Note_on_c, 0, 30, 74
1, 408177, Note_on_c, 0, 40, 13
1, 408178, Note_on_c, 0, 69, 85
1, 408219, Note_off_c, 0, 40, 40
1, 408219, Note_off_c, 0, 69, 67
1, 408253, Control_c, 0, 64, 18
1, 408265, Note_off_c, 0, 30, 47
1, 408267, Note_on_c, 0, 28, 84
1, 408268, Control_c, 0, 64, 28
1, 408283, Control_c, 0, 64, 34
1, 408285, Note_on_c, 0, 73, 99
1, 408296, Note_on_c, 0, 64, 76
1, 408297, Control_c, 0, 64, 38
1, 408312, Control_c, 0, 64, 39
1, 408325, Note_off_c, 0, 64, 63
1, 408327, Control_c, 0, 64, 34
1, 408342, Note_off_c, 0, 73, 63
1, 408342, Control_c, 0, 64, 0
1, 408398, Note_on_c, 0, 76, 104
1, 408399, Note_on_c, 0, 33, 79
1, 408400, Note_on_c, 0, 40, 79
1, 408400, Note_on_c, 0, 64, 96
1, 408405, Note_on_c, 0, 69, 88
1, 408405, Note_on_c, 0, 73, 91
1, 408441, Note_off_c, 0, 28, 54
1, 408479, Note_off_c, 0, 33, 65
1, 408489, Control_c, 0, 64, 27
1, 408504, Control_c, 0, 64, 42
1, 408519, Control_c, 0, 64, 48
1, 408521, Note_on_c, 0, 32, 79
1, 408534, Control_c, 0, 64, 48
1, 408549, Control_c, 0, 64, 48
1, 408609, Note_off_c, 0, 32, 58
1, 408616, Control_c, 0, 64, 48
1, 408637, Note_on_c, 0, 30, 79
1, 408660, Control_c, 0, 64, 49
1, 408690, Control_c, 0, 64, 48
1, 408702, Note_off_c, 0, 30, 62
1, 408720, Control_c, 0, 64, 49
1, 408735, Control_c, 0, 64, 48
1, 408748, Note_on_c, 0, 32, 78
1, 408750, Control_c, 0, 64, 46
1, 408765, Control_c, 0, 64, 43
1, 408780, Control_c, 0, 64, 41
1, 408795, Control_c, 0, 64, 42
1, 408804, Note_off_c, 0, 32, 62
1, 408809, Control_c, 0, 64, 46
1, 408824, Control_c, 0, 64, 52
1, 408839, Control_c, 0, 64, 60
1, 408854, Control_c, 0, 64, 65
1, 408856, Note_on_c, 0, 30, 78
1, 408869, Control_c, 0, 64, 72
1, 408883, Control_c, 0, 64, 81
1, 408898, Control_c, 0, 64, 93
1, 408913, Control_c, 0, 64, 105
1, 408927, Control_c, 0, 64, 127
1, 408929, Note_off_c, 0, 30, 61
1, 408941, Note_off_c, 0, 64, 50
1, 408965, Note_on_c, 0, 28, 86
1, 408972, Note_off_c, 0, 76, 61
1, 408986, Note_off_c, 0, 40, 28
1, 408996, Note_off_c, 0, 73, 56
1, 409064, Note_off_c, 0, 69, 63
1, 409101, Note_on_c, 0, 40, 83
1, 409107, Note_on_c, 0, 33, 79
1, 409116, Note_on_c, 0, 76, 103
1, 409117, Note_on_c, 0, 64, 101
1, 409117, Note_on_c, 0, 71, 97
1, 409120, Control_c, 0, 64, 90
1, 409135, Control_c, 0, 64, 65
1, 409149, Control_c, 0, 64, 0
1, 409161, Note_off_c, 0, 28, 56
1, 409195, Note_off_c, 0, 33, 65
1, 409236, Note_on_c, 0, 32, 79
1, 409253, Control_c, 0, 64, 40
1, 409268, Control_c, 0, 64, 60
1, 409283, Control_c, 0, 64, 68
1, 409298, Control_c, 0, 64, 73
1, 409311, Note_off_c, 0, 32, 60
1, 409312, Control_c, 0, 64, 77
1, 409327, Control_c, 0, 64, 78
1, 409349, Note_on_c, 0, 30, 80
1, 409349, Control_c, 0, 64, 80
1, 409364, Control_c, 0, 64, 82
1, 409379, Control_c, 0, 64, 84
1, 409394, Control_c, 0, 64, 85
1, 409409, Control_c, 0, 64, 86
1, 409411, Note_off_c, 0, 30, 61
1, 409424, Control_c, 0, 64, 86
1, 409453, Control_c, 0, 64, 87
1, 409460, Note_on_c, 0, 32, 81
1, 409483, Control_c, 0, 64, 87
1, 409492, Note_off_c, 0, 71, 51
1, 409498, Control_c, 0, 64, 88
1, 409507, Note_off_c, 0, 64, 58
1, 409510, Note_off_c, 0, 76, 57
1, 409513, Control_c, 0, 64, 89
1, 409524, Note_off_c, 0, 32, 61
1, 409528, Control_c, 0, 64, 89
1, 409543, Control_c, 0, 64, 90
1, 409558, Control_c, 0, 64, 91
1, 409572, Note_on_c, 0, 30, 81
1, 409573, Control_c, 0, 64, 93
1, 409588, Control_c, 0, 64, 97
1, 409603, Control_c, 0, 64, 101
1, 409617, Control_c, 0, 64, 106
1, 409632, Control_c, 0, 64, 115
1, 409647, Control_c, 0, 64, 127
1, 409662, Note_on_c, 0, 76, 92
1, 409666, Note_on_c, 0, 64, 93
1, 409671, Note_on_c, 0, 71, 93
1, 409704, Note_on_c, 0, 28, 80
1, 409723, Note_off_c, 0, 40, 61
1, 409727, Note_off_c, 0, 30, 53
1, 409758, Note_off_c, 0, 76, 66
1, 409766, Note_off_c, 0, 64, 61
1, 409808, Note_off_c, 0, 71, 58
1, 409820, Note_on_c, 0, 40, 88
1, 409820, Note_on_c, 0, 33, 80
1, 409822, Note_on_c, 0, 64, 93
1, 409823, Note_on_c, 0, 76, 100
1, 409824, Control_c, 0, 64, 104
1, 409830, Note_on_c, 0, 69, 90
1, 409833, Note_on_c, 0, 73, 91
1, 409840, Control_c, 0, 64, 73
1, 409855, Control_c, 0, 64, 37
1, 409869, Control_c, 0, 64, 0
1, 409922, Note_off_c, 0, 33, 65
1, 409948, Note_off_c, 0, 28, 37
1, 409954, Note_on_c, 0, 32, 78
1, 409958, Control_c, 0, 64, 20
1, 409973, Control_c, 0, 64, 33
1, 409988, Control_c, 0, 64, 40
1, 410003, Control_c, 0, 64, 45
1, 410017, Control_c, 0, 64, 47
1, 410032, Control_c, 0, 64, 48
1, 410047, Control_c, 0, 64, 48
1, 410048, Note_off_c, 0, 32, 56
1, 410057, Note_on_c, 0, 30, 76
1, 410062, Control_c, 0, 64, 49
1, 410099, Control_c, 0, 64, 49
1, 410114, Control_c, 0, 64, 51
1, 410129, Control_c, 0, 64, 52
1, 410133, Note_off_c, 0, 30, 62
1, 410143, Control_c, 0, 64, 54
1, 410158, Control_c, 0, 64, 55
1, 410172, Note_on_c, 0, 32, 80
1, 410173, Control_c, 0, 64, 55
1, 410188, Control_c, 0, 64, 56
1, 410203, Control_c, 0, 64, 58
1, 410217, Control_c, 0, 64, 62
1, 410232, Control_c, 0, 64, 64
1, 410236, Note_off_c, 0, 32, 62
1, 410247, Control_c, 0, 64, 68
1, 410262, Control_c, 0, 64, 72
1, 410276, Control_c, 0, 64, 77
1, 410283, Note_on_c, 0, 30, 81
1, 410291, Control_c, 0, 64, 83
1, 410306, Control_c, 0, 64, 91
1, 410322, Control_c, 0, 64, 98
1, 410337, Control_c, 0, 64, 107
1, 410342, Note_off_c, 0, 64, 51
1, 410352, Control_c, 0, 64, 127
1, 410366, Note_off_c, 0, 76, 50
1, 410375, Note_off_c, 0, 30, 0
1, 410381, Note_off_c, 0, 40, 38
1, 410398, Note_on_c, 0, 28, 84
1, 410405, Note_off_c, 0, 73, 57
1, 410460, Poly_aftertouch_c, 0, 30, 0
1, 410496, Note_off_c, 0, 69, 65
1, 410521, Note_on_c, 0, 76, 97
1, 410522, Note_on_c, 0, 64, 95
1, 410524, Note_on_c, 0, 40, 79
1, 410526, Note_on_c, 0, 33, 83
1, 410527, Note_on_c, 0, 71, 91
1, 410544, Control_c, 0, 64, 94
1, 410559, Note_off_c, 0, 28, 58
1, 410559, Control_c, 0, 64, 68
1, 410574, Control_c, 0, 64, 0
1, 410598, Note_off_c, 0, 33, 64
1, 410634, Control_c, 0, 64, 42
1, 410640, Note_on_c, 0, 32, 78
1, 410648, Control_c, 0, 64, 61
1, 410663, Control_c, 0, 64, 70
1, 410678, Control_c, 0, 64, 78
1, 410692, Control_c, 0, 64, 83
1, 410707, Control_c, 0, 64, 85
1, 410720, Note_off_c, 0, 32, 55
1, 410722, Control_c, 0, 64, 87
1, 410737, Control_c, 0, 64, 89
1, 410748, Note_on_c, 0, 30, 78
1, 410752, Control_c, 0, 64, 93
1, 410766, Control_c, 0, 64, 101
1, 410781, Control_c, 0, 64, 112
1, 410796, Control_c, 0, 64, 127
1, 410813, Note_off_c, 0, 30, 61
1, 410859, Note_on_c, 0, 32, 84
1, 410894, Note_off_c, 0, 71, 55
1, 410899, Note_off_c, 0, 64, 58
1, 410902, Note_off_c, 0, 76, 58
1, 410922, Note_off_c, 0, 32, 60
1, 410959, Note_on_c, 0, 30, 84
1, 411047, Note_on_c, 0, 76, 94
1, 411048, Note_on_c, 0, 64, 91
1, 411052, Note_on_c, 0, 71, 92
1, 411075, Note_on_c, 0, 28, 86
1, 411089, Note_off_c, 0, 40, 60
1, 411118, Note_off_c, 0, 30, 36
1, 411143, Note_off_c, 0, 76, 65
1, 411151, Note_off_c, 0, 64, 62
1, 411204, Control_c, 0, 64, 95
1, 411206, Note_on_c, 0, 40, 87
1, 411207, Note_on_c, 0, 33, 87
1, 411213, Note_on_c, 0, 64, 93
1, 411215, Note_on_c, 0, 76, 101
1, 411217, Note_on_c, 0, 69, 90
1, 411219, Control_c, 0, 64, 65
1, 411224, Note_on_c, 0, 73, 90
1, 411234, Control_c, 0, 64, 0
1, 411235, Note_off_c, 0, 71, 40
1, 411278, Control_c, 0, 64, 38
1, 411281, Note_off_c, 0, 28, 50
1, 411293, Control_c, 0, 64, 65
1, 411308, Control_c, 0, 64, 79
1, 411322, Note_off_c, 0, 33, 58
1, 411323, Control_c, 0, 64, 103
1, 411337, Control_c, 0, 64, 127
1, 411344, Note_on_c, 0, 32, 78
1, 411348, Note_off_c, 0, 76, 61
1, 411349, Note_off_c, 0, 64, 58
1, 411391, Note_off_c, 0, 73, 58
1, 411415, Note_off_c, 0, 32, 60
1, 411454, Note_on_c, 0, 30, 78
1, 411525, Note_off_c, 0, 30, 60
1, 411549, Note_off_c, 0, 69, 65
1, 411560, Note_on_c, 0, 32, 82
1, 411564, Note_on_c, 0, 76, 99
1, 411567, Note_on_c, 0, 64, 95
1, 411573, Note_on_c, 0, 71, 91
1, 411597, Control_c, 0, 64, 105
1, 411612, Control_c, 0, 64, 77
1, 411627, Control_c, 0, 64, 62
1, 411641, Control_c, 0, 64, 58
1, 411656, Control_c, 0, 64, 67
1, 411671, Control_c, 0, 64, 81
1, 411674, Note_on_c, 0, 30, 79
1, 411683, Note_off_c, 0, 32, 48
1, 411686, Control_c, 0, 64, 127
1, 411729, Note_off_c, 0, 64, 50
1, 411730, Note_off_c, 0, 76, 60
1, 411753, Note_off_c, 0, 30, 61
1, 411786, Note_on_c, 0, 28, 88
1, 411819, Note_off_c, 0, 40, 33
1, 411888, Note_off_c, 0, 71, 59
1, 411902, Note_on_c, 0, 76, 98
1, 411904, Note_on_c, 0, 33, 86
1, 411904, Note_on_c, 0, 64, 105
1, 411909, Note_on_c, 0, 69, 94
1, 411910, Note_on_c, 0, 40, 92
1, 411916, Note_on_c, 0, 73, 91
1, 411924, Control_c, 0, 64, 70
1, 411938, Control_c, 0, 64, 0
1, 411946, Note_off_c, 0, 28, 61
1, 411987, Note_off_c, 0, 33, 64
1, 411998, Control_c, 0, 64, 65
1, 412012, Control_c, 0, 64, 127
1, 412024, Note_on_c, 0, 32, 85
1, 412053, Note_off_c, 0, 76, 62
1, 412071, Note_off_c, 0, 64, 57
1, 412086, Note_off_c, 0, 73, 59
1, 412092, Note_off_c, 0, 32, 60
1, 412132, Note_on_c, 0, 30, 85
1, 412199, Note_off_c, 0, 30, 60
1, 412219, Note_off_c, 0, 69, 63
1, 412242, Note_on_c, 0, 32, 89
1, 412250, Control_c, 0, 64, 82
1, 412256, Note_on_c, 0, 64, 102
1, 412258, Note_on_c, 0, 76, 103
1, 412260, Note_on_c, 0, 71, 93
1, 412264, Control_c, 0, 64, 50
1, 412279, Control_c, 0, 64, 0
1, 412309, Control_c, 0, 64, 65
1, 412324, Control_c, 0, 64, 99
1, 412346, Control_c, 0, 64, 127
1, 412351, Note_off_c, 0, 64, 61
1, 412363, Note_on_c, 0, 30, 82
1, 412370, Note_off_c, 0, 32, 62
1, 412401, Note_off_c, 0, 71, 59
1, 412405, Note_off_c, 0, 76, 62
1, 412417, Note_off_c, 0, 40, 59
1, 412432, Note_off_c, 0, 30, 61
1, 412466, Note_on_c, 0, 28, 92
1, 412503, Note_off_c, 0, 28, 63
1, 412587, Note_on_c, 0, 29, 99
1, 412589, Note_on_c, 0, 41, 114
1, 412589, Note_on_c, 0, 81, 101
1, 412593, Note_on_c, 0, 72, 87
1, 412594, Note_on_c, 0, 69, 97
1, 412595, Note_on_c, 0, 77, 80
1, 412623, Note_off_c, 0, 41, 65
1, 412630, Note_off_c, 0, 29, 63
1, 412638, Note_on_c, 0, 30, 25
1, 412639, Note_off_c, 0, 30, 127
1, 412696, Note_on_c, 0, 40, 103
1, 412700, Note_on_c, 0, 28, 95
1, 412703, Poly_aftertouch_c, 0, 30, 0
1, 412715, Poly_aftertouch_c, 0, 32, 0
1, 412731, Note_off_c, 0, 40, 68
1, 412732, Note_off_c, 0, 28, 66
1, 412807, Note_on_c, 0, 26, 97
1, 412807, Note_on_c, 0, 38, 93
1, 412811, Note_on_c, 0, 36, 92
1, 412822, Control_c, 0, 64, 102
1, 412830, Note_off_c, 0, 38, 70
1, 412834, Note_on_c, 0, 30, 51
1, 412835, Note_off_c, 0, 36, 69
1, 412836, Control_c, 0, 64, 81
1, 412840, Note_off_c, 0, 26, 62
1, 412843, Note_on_c, 0, 27, 40
1, 412844, Note_off_c, 0, 27, 127
1, 412851, Control_c, 0, 64, 67
1, 412866, Note_off_c, 0, 30, 55
1, 412866, Control_c, 0, 64, 53
1, 412881, Control_c, 0, 64, 0
1, 412911, Note_on_c, 0, 40, 100
1, 412914, Note_on_c, 0, 28, 98
1, 412925, Control_c, 0, 64, 25
1, 412932, Note_on_c, 0, 30, 68
1, 412940, Control_c, 0, 64, 52
1, 412951, Note_off_c, 0, 40, 65
1, 412952, Note_off_c, 0, 28, 65
1, 412955, Control_c, 0, 64, 61
1, 412964, Note_off_c, 0, 30, 38
1, 412969, Control_c, 0, 64, 63
1, 412984, Control_c, 0, 64, 63
1, 412999, Control_c, 0, 64, 64
1, 413014, Control_c, 0, 64, 67
1, 413015, Note_on_c, 0, 38, 93
1, 413022, Note_on_c, 0, 26, 95
1, 413029, Control_c, 0, 64, 73
1, 413043, Control_c, 0, 64, 77
1, 413046, Note_off_c, 0, 26, 67
1, 413054, Note_off_c, 0, 38, 65
1, 413073, Control_c, 0, 64, 74
1, 413095, Control_c, 0, 64, 72
1, 413110, Control_c, 0, 64, 68
1, 413125, Control_c, 0, 64, 61
1, 413135, Note_on_c, 0, 36, 99
1, 413135, Note_on_c, 0, 24, 100
1, 413140, Control_c, 0, 64, 53
1, 413155, Control_c, 0, 64, 49
1, 413157, Note_off_c, 0, 24, 71
1, 413166, Note_off_c, 0, 36, 63
1, 413169, Control_c, 0, 64, 56
1, 413184, Control_c, 0, 64, 63
1, 413199, Control_c, 0, 64, 68
1, 413206, Note_off_c, 0, 81, 63
1, 413214, Control_c, 0, 64, 75
1, 413224, Note_off_c, 0, 77, 62
1, 413227, Note_off_c, 0, 69, 65
1, 413229, Control_c, 0, 64, 91
1, 413241, Note_off_c, 0, 72, 69
1, 413243, Control_c, 0, 64, 127
1, 413245, Note_on_c, 0, 41, 110
1, 413248, Note_on_c, 0, 29, 98
1, 413279, Note_off_c, 0, 41, 68
1, 413290, Note_off_c, 0, 29, 62
1, 413347, Control_c, 0, 64, 100
1, 413354, Note_on_c, 0, 40, 99
1, 413358, Note_on_c, 0, 28, 96
1, 413362, Control_c, 0, 64, 80
1, 413376, Control_c, 0, 64, 69
1, 413384, Note_off_c, 0, 28, 68
1, 413386, Note_off_c, 0, 40, 67
1, 413391, Control_c, 0, 64, 61
1, 413406, Control_c, 0, 64, 50
1, 413421, Control_c, 0, 64, 37
1, 413436, Control_c, 0, 64, 30
1, 413451, Control_c, 0, 64, 30
1, 413466, Note_on_c, 0, 38, 95
1, 413466, Control_c, 0, 64, 28
1, 413469, Note_on_c, 0, 26, 90
1, 413481, Control_c, 0, 64, 0
1, 413496, Note_off_c, 0, 26, 65
1, 413499, Note_off_c, 0, 38, 63
1, 413572, Note_on_c, 0, 40, 100
1, 413575, Note_on_c, 0, 28, 95
1, 413604, Note_off_c, 0, 28, 64
1, 413606, Note_off_c, 0, 40, 67
1, 413680, Note_on_c, 0, 38, 90
1, 413683, Note_on_c, 0, 26, 88
1, 413704, Control_c, 0, 64, 18
1, 413708, Note_off_c, 0, 38, 66
1, 413709, Note_off_c, 0, 26, 67
1, 413718, Control_c, 0, 64, 82
1, 413733, Control_c, 0, 64, 127
1, 413775, Note_on_c, 0, 24, 89
1, 413776, Note_on_c, 0, 36, 75
1, 413809, Note_off_c, 0, 36, 63
1, 413814, Note_off_c, 0, 24, 66
1, 413877, Note_on_c, 0, 57, 94
1, 413884, Note_on_c, 0, 53, 80
1, 413898, Note_off_c, 0, 57, 69
1, 413904, Control_c, 0, 64, 101
1, 413908, Note_off_c, 0, 53, 69
1, 413918, Control_c, 0, 64, 70
1, 413932, Note_on_c, 0, 57, 93
1, 413933, Control_c, 0, 64, 0
1, 413937, Note_on_c, 0, 29, 88
1, 413940, Note_on_c, 0, 41, 80
1, 413945, Note_on_c, 0, 53, 90
1, 413966, Note_off_c, 0, 29, 66
1, 413970, Note_on_c, 0, 40, 45
1, 413970, Note_off_c, 0, 41, 66
1, 414000, Note_off_c, 0, 40, 36
1, 414063, Note_on_c, 0, 28, 82
1, 414067, Note_on_c, 0, 40, 76
1, 414084, Note_off_c, 0, 28, 69
1, 414098, Note_off_c, 0, 40, 65
1, 414179, Note_on_c, 0, 26, 80
1, 414181, Note_on_c, 0, 38, 80
1, 414202, Note_off_c, 0, 26, 63
1, 414205, Note_off_c, 0, 38, 66
1, 414285, Note_on_c, 0, 40, 84
1, 414286, Note_on_c, 0, 28, 87
1, 414312, Note_off_c, 0, 28, 64
1, 414312, Note_off_c, 0, 40, 66
1, 414378, Control_c, 0, 64, 20
1, 414388, Note_on_c, 0, 26, 83
1, 414390, Note_on_c, 0, 38, 81
1, 414393, Control_c, 0, 64, 62
1, 414408, Control_c, 0, 64, 73
1, 414413, Note_off_c, 0, 26, 66
1, 414415, Note_off_c, 0, 53, 51
1, 414417, Note_off_c, 0, 38, 66
1, 414422, Control_c, 0, 64, 88
1, 414437, Control_c, 0, 64, 127
1, 414488, Note_on_c, 0, 24, 87
1, 414492, Note_on_c, 0, 36, 78
1, 414515, Note_off_c, 0, 24, 65
1, 414518, Note_off_c, 0, 36, 65
1, 414527, Note_off_c, 0, 57, 49
1, 414622, Note_on_c, 0, 29, 90
1, 414625, Note_on_c, 0, 41, 87
1, 414627, Note_on_c, 0, 57, 105
1, 414635, Note_on_c, 0, 53, 90
1, 414637, Control_c, 0, 64, 101
1, 414652, Control_c, 0, 64, 74
1, 414652, Note_off_c, 0, 41, 67
1, 414656, Note_off_c, 0, 29, 64
1, 414666, Control_c, 0, 64, 26
1, 414681, Control_c, 0, 64, 0
1, 414747, Note_on_c, 0, 40, 77
1, 414748, Note_on_c, 0, 28, 84
1, 414771, Note_off_c, 0, 28, 66
1, 414776, Note_off_c, 0, 40, 64
1, 414853, Note_on_c, 0, 26, 80
1, 414853, Note_on_c, 0, 38, 82
1, 414879, Note_off_c, 0, 26, 63
1, 414881, Note_off_c, 0, 38, 67
1, 414961, Note_on_c, 0, 40, 85
1, 414964, Note_on_c, 0, 28, 87
1, 414986, Note_off_c, 0, 28, 66
1, 414989, Note_off_c, 0, 40, 67
1, 415066, Note_on_c, 0, 26, 80
1, 415066, Note_on_c, 0, 38, 81
1, 415066, Control_c, 0, 64, 24
1, 415080, Control_c, 0, 64, 63
1, 415090, Note_off_c, 0, 26, 64
1, 415091, Note_off_c, 0, 53, 52
1, 415093, Note_off_c, 0, 38, 66
1, 415095, Control_c, 0, 64, 68
1, 415111, Control_c, 0, 64, 70
1, 415126, Control_c, 0, 64, 73
1, 415141, Control_c, 0, 64, 80
1, 415155, Control_c, 0, 64, 96
1, 415170, Control_c, 0, 64, 127
1, 415174, Note_on_c, 0, 24, 87
1, 415183, Note_on_c, 0, 36, 72
1, 415186, Note_off_c, 0, 57, 33
1, 415202, Note_off_c, 0, 24, 66
1, 415213, Note_off_c, 0, 36, 64
1, 415274, Control_c, 0, 64, 101
1, 415288, Control_c, 0, 64, 73
1, 415290, Note_on_c, 0, 41, 92
1, 415290, Note_on_c, 0, 60, 100
1, 415290, Note_on_c, 0, 29, 92
1, 415290, Note_on_c, 0, 53, 98
1, 415296, Note_on_c, 0, 57, 89
1, 415303, Control_c, 0, 64, 42
1, 415318, Note_off_c, 0, 57, 68
1, 415318, Control_c, 0, 64, 0
1, 415321, Note_off_c, 0, 41, 65
1, 415326, Note_off_c, 0, 53, 67
1, 415326, Note_off_c, 0, 29, 62
1, 415347, Note_off_c, 0, 60, 64
1, 415418, Note_on_c, 0, 40, 87
1, 415418, Note_on_c, 0, 28, 85
1, 415451, Note_off_c, 0, 28, 65
1, 415451, Note_off_c, 0, 40, 66
1, 415503, Control_c, 0, 64, 17
1, 415518, Control_c, 0, 64, 23
1, 415533, Control_c, 0, 64, 26
1, 415546, Note_on_c, 0, 26, 85
1, 415548, Note_on_c, 0, 38, 83
1, 415548, Control_c, 0, 64, 27
1, 415562, Control_c, 0, 64, 28
1, 415563, Note_on_c, 0, 53, 87
1, 415572, Note_off_c, 0, 26, 66
1, 415573, Note_off_c, 0, 38, 64
1, 415577, Control_c, 0, 64, 29
1, 415592, Control_c, 0, 64, 29
1, 415601, Note_off_c, 0, 53, 66
1, 415636, Control_c, 0, 64, 28
1, 415643, Note_on_c, 0, 57, 103
1, 415647, Note_on_c, 0, 53, 87
1, 415650, Note_on_c, 0, 40, 83
1, 415651, Note_on_c, 0, 28, 90
1, 415651, Control_c, 0, 64, 25
1, 415666, Control_c, 0, 64, 20
1, 415677, Note_off_c, 0, 40, 67
1, 415678, Note_off_c, 0, 28, 67
1, 415681, Control_c, 0, 64, 17
1, 415695, Control_c, 0, 64, 0
1, 415762, Note_on_c, 0, 26, 83
1, 415768, Note_on_c, 0, 38, 76
1, 415784, Note_off_c, 0, 26, 65
1, 415797, Note_off_c, 0, 38, 65
1, 415867, Note_on_c, 0, 24, 94
1, 415870, Note_on_c, 0, 36, 90
1, 415895, Note_off_c, 0, 36, 67
1, 415896, Note_off_c, 0, 24, 67
1, 415970, Note_on_c, 0, 41, 105
1, 415973, Note_on_c, 0, 29, 94
1, 416006, Note_off_c, 0, 41, 64
1, 416009, Note_off_c, 0, 29, 62
1, 416029, Note_off_c, 0, 53, 61
1, 416031, Note_off_c, 0, 57, 66
1, 416102, Note_on_c, 0, 40, 86
1, 416103, Note_on_c, 0, 28, 89
1, 416128, Note_off_c, 0, 28, 67
1, 416129, Note_off_c, 0, 40, 67
1, 416214, Note_on_c, 0, 26, 82
1, 416216, Note_on_c, 0, 38, 82
1, 416220, Note_on_c, 0, 53, 87
1, 416236, Note_off_c, 0, 26, 64
1, 416238, Note_off_c, 0, 38, 64
1, 416260, Note_on_c, 0, 61, 32
1, 416267, Note_off_c, 0, 53, 66
1, 416294, Note_off_c, 0, 61, 33
1, 416311, Note_on_c, 0, 40, 88
1, 416316, Note_on_c, 0, 28, 91
1, 416316, Note_on_c, 0, 57, 87
1, 416332, Note_on_c, 0, 53, 55
1, 416343, Note_off_c, 0, 28, 68
1, 416343, Note_off_c, 0, 40, 65
1, 416353, Note_off_c, 0, 53, 60
1, 416356, Note_off_c, 0, 57, 59
1, 416427, Note_on_c, 0, 38, 88
1, 416428, Note_on_c, 0, 26, 84
1, 416455, Note_off_c, 0, 26, 67
1, 416455, Note_off_c, 0, 38, 66
1, 416532, Note_on_c, 0, 24, 93
1, 416537, Note_on_c, 0, 36, 89
1, 416550, Note_on_c, 0, 53, 89
1, 416550, Note_on_c, 0, 60, 87
1, 416552, Note_on_c, 0, 57, 84
1, 416563, Note_off_c, 0, 36, 67
1, 416564, Note_off_c, 0, 24, 67
1, 416593, Control_c, 0, 64, 69
1, 416599, Note_off_c, 0, 53, 65
1, 416600, Note_off_c, 0, 57, 61
1, 416608, Control_c, 0, 64, 91
1, 416612, Note_off_c, 0, 60, 62
1, 416623, Control_c, 0, 64, 73
1, 416637, Note_on_c, 0, 57, 88
1, 416637, Note_on_c, 0, 65, 93
1, 416637, Control_c, 0, 64, 0
1, 416640, Note_on_c, 0, 53, 86
1, 416643, Note_on_c, 0, 41, 103
1, 416646, Note_on_c, 0, 29, 92
1, 416676, Note_off_c, 0, 57, 65
1, 416679, Note_off_c, 0, 41, 64
1, 416682, Note_off_c, 0, 53, 64
1, 416686, Note_off_c, 0, 29, 62
1, 416686, Note_off_c, 0, 65, 66
1, 416761, Note_on_c, 0, 40, 91
1, 416763, Note_on_c, 0, 28, 90
1, 416790, Note_off_c, 0, 28, 68
1, 416795, Note_off_c, 0, 40, 65
1, 416894, Note_on_c, 0, 26, 88
1, 416896, Note_on_c, 0, 38, 88
1, 416898, Control_c, 0, 64, 50
1, 416900, Note_on_c, 0, 57, 100
1, 416904, Note_on_c, 0, 53, 89
1, 416913, Control_c, 0, 64, 0
1, 416921, Note_off_c, 0, 26, 67
1, 416922, Note_off_c, 0, 38, 67
1, 416928, Note_off_c, 0, 53, 70
1, 416935, Note_off_c, 0, 57, 64
1, 416989, Note_on_c, 0, 57, 96
1, 416990, Note_on_c, 0, 60, 103
1, 416992, Note_on_c, 0, 53, 96
1, 416993, Note_on_c, 0, 40, 94
1, 416995, Note_on_c, 0, 28, 96
1, 417027, Note_off_c, 0, 40, 66
1, 417031, Note_off_c, 0, 28, 61
1, 417102, Note_on_c, 0, 26, 91
1, 417102, Note_on_c, 0, 38, 95
1, 417128, Note_off_c, 0, 38, 71
1, 417129, Note_off_c, 0, 26, 67
1, 417212, Note_on_c, 0, 24, 98
1, 417217, Note_on_c, 0, 36, 84
1, 417228, Note_on_c, 0, 35, 72
1, 417240, Note_off_c, 0, 24, 68
1, 417243, Note_off_c, 0, 36, 65
1, 417250, Note_off_c, 0, 35, 58
1, 417317, Note_on_c, 0, 41, 109
1, 417319, Note_on_c, 0, 29, 100
1, 417328, Control_c, 0, 64, 51
1, 417342, Control_c, 0, 64, 43
1, 417345, Note_off_c, 0, 53, 59
1, 417350, Note_on_c, 0, 30, 46
1, 417350, Note_off_c, 0, 41, 66
1, 417353, Note_off_c, 0, 57, 62
1, 417357, Control_c, 0, 64, 0
1, 417361, Note_off_c, 0, 29, 63
1, 417366, Note_off_c, 0, 60, 57
1, 417367, Note_on_c, 0, 32, 14
1, 417368, Note_off_c, 0, 32, 127
1, 417386, Note_off_c, 0, 30, 34
1, 417433, Note_on_c, 0, 28, 91
1, 417433, Note_on_c, 0, 40, 94
1, 417460, Note_off_c, 0, 28, 67
1, 417460, Note_off_c, 0, 40, 66
1, 417549, Note_on_c, 0, 57, 89
1, 417549, Note_on_c, 0, 26, 88
1, 417550, Note_on_c, 0, 38, 87
1, 417556, Note_on_c, 0, 53, 76
1, 417574, Note_off_c, 0, 26, 67
1, 417577, Note_off_c, 0, 38, 69
1, 417589, Note_off_c, 0, 53, 68
1, 417594, Note_off_c, 0, 57, 61
1, 417648, Note_on_c, 0, 53, 85
1, 417649, Note_on_c, 0, 60, 92
1, 417654, Note_on_c, 0, 40, 89
1, 417654, Note_on_c, 0, 57, 75
1, 417657, Note_on_c, 0, 28, 89
1, 417675, Note_off_c, 0, 57, 69
1, 417685, Note_off_c, 0, 28, 67
1, 417688, Note_off_c, 0, 40, 65
1, 417688, Note_off_c, 0, 53, 61
1, 417711, Note_off_c, 0, 60, 60
1, 417766, Note_on_c, 0, 38, 92
1, 417767, Note_on_c, 0, 26, 94
1, 417792, Note_off_c, 0, 38, 69
1, 417794, Note_off_c, 0, 26, 66
1, 417878, Note_on_c, 0, 24, 99
1, 417880, Note_on_c, 0, 36, 92
1, 417891, Note_on_c, 0, 65, 92
1, 417892, Note_on_c, 0, 57, 88
1, 417895, Note_on_c, 0, 60, 85
1, 417906, Note_off_c, 0, 36, 69
1, 417910, Note_off_c, 0, 24, 67
1, 417923, Note_off_c, 0, 57, 62
1, 417923, Note_off_c, 0, 60, 62
1, 417934, Note_off_c, 0, 65, 65
1, 417980, Note_on_c, 0, 69, 101
1, 417985, Note_on_c, 0, 57, 92
1, 417986, Note_on_c, 0, 60, 92
1, 417988, Control_c, 0, 64, 38
1, 417991, Note_on_c, 0, 41, 102
1, 417993, Note_on_c, 0, 29, 90
1, 418003, Control_c, 0, 64, 107
1, 418004, Note_off_c, 0, 60, 71
1, 418018, Control_c, 0, 64, 127
1, 418020, Note_off_c, 0, 41, 65
1, 418020, Note_off_c, 0, 69, 67
1, 418028, Note_off_c, 0, 57, 65
1, 418030, Note_off_c, 0, 29, 62
1, 418032, Control_c, 0, 64, 97
1, 418047, Control_c, 0, 64, 68
1, 418062, Control_c, 0, 64, 0
1, 418107, Note_on_c, 0, 28, 90
1, 418107, Note_on_c, 0, 40, 86
1, 418134, Note_off_c, 0, 28, 67
1, 418136, Note_off_c, 0, 40, 67
1, 418218, Note_on_c, 0, 38, 93
1, 418219, Note_on_c, 0, 53, 85
1, 418221, Note_on_c, 0, 26, 83
1, 418225, Note_on_c, 0, 60, 85
1, 418226, Note_on_c, 0, 57, 78
1, 418245, Note_off_c, 0, 26, 62
1, 418249, Note_off_c, 0, 38, 66
1, 418250, Note_off_c, 0, 57, 68
1, 418254, Control_c, 0, 64, 42
1, 418262, Note_off_c, 0, 53, 64
1, 418269, Control_c, 0, 64, 63
1, 418273, Note_off_c, 0, 60, 61
1, 418283, Control_c, 0, 64, 0
1, 418310, Note_on_c, 0, 65, 98
1, 418316, Note_on_c, 0, 57, 87
1, 418318, Note_on_c, 0, 40, 96
1, 418320, Note_on_c, 0, 60, 70
1, 418321, Note_on_c, 0, 28, 95
1, 418344, Note_off_c, 0, 57, 71
1, 418355, Note_off_c, 0, 60, 66
1, 418360, Note_off_c, 0, 28, 65
1, 418360, Note_off_c, 0, 40, 66
1, 418378, Note_off_c, 0, 65, 67
1, 418426, Control_c, 0, 64, 47
1, 418441, Note_on_c, 0, 38, 90
1, 418441, Control_c, 0, 64, 59
1, 418443, Note_on_c, 0, 26, 90
1, 418455, Control_c, 0, 64, 36
1, 418467, Note_off_c, 0, 38, 67
1, 418470, Note_off_c, 0, 26, 66
1, 418470, Control_c, 0, 64, 0
1, 418548, Note_on_c, 0, 24, 93
1, 418551, Note_on_c, 0, 69, 96
1, 418552, Note_on_c, 0, 60, 91
1, 418554, Note_on_c, 0, 36, 85
1, 418555, Note_on_c, 0, 65, 91
1, 418578, Note_off_c, 0, 36, 64
1, 418579, Note_off_c, 0, 24, 67
1, 418581, Note_off_c, 0, 65, 65
1, 418591, Note_off_c, 0, 60, 62
1, 418601, Note_off_c, 0, 69, 67
1, 418641, Note_on_c, 0, 60, 97
1, 418641, Note_on_c, 0, 72, 102
1, 418644, Note_on_c, 0, 69, 86
1, 418647, Note_on_c, 0, 65, 89
1, 418654, Note_on_c, 0, 41, 103
1, 418656, Note_on_c, 0, 29, 93
1, 418662, Control_c, 0, 64, 59
1, 418665, Note_off_c, 0, 65, 73
1, 418677, Control_c, 0, 64, 74
1, 418682, Note_off_c, 0, 41, 67
1, 418685, Note_off_c, 0, 60, 63
1, 418688, Note_off_c, 0, 29, 64
1, 418692, Control_c, 0, 64, 83
1, 418706, Control_c, 0, 64, 84
1, 418707, Note_off_c, 0, 69, 65
1, 418736, Control_c, 0, 64, 87
1, 418737, Note_off_c, 0, 72, 62
1, 418751, Control_c, 0, 64, 96
1, 418763, Note_on_c, 0, 40, 95
1, 418765, Note_on_c, 0, 28, 93
1, 418766, Control_c, 0, 64, 127
1, 418798, Note_off_c, 0, 40, 65
1, 418798, Note_off_c, 0, 28, 62
1, 418875, Note_on_c, 0, 38, 98
1, 418878, Note_on_c, 0, 26, 90
1, 418906, Note_off_c, 0, 26, 64
1, 418908, Note_off_c, 0, 38, 63
1, 418976, Note_on_c, 0, 65, 103
1, 418976, Note_on_c, 0, 77, 101
1, 418979, Note_on_c, 0, 69, 96
1, 418981, Note_on_c, 0, 72, 93
1, 418986, Note_on_c, 0, 40, 102
1, 418987, Note_on_c, 0, 28, 96
1, 419022, Note_off_c, 0, 40, 65
1, 419025, Note_off_c, 0, 28, 61
1, 419046, Note_off_c, 0, 69, 65
1, 419056, Note_off_c, 0, 65, 59
1, 419083, Note_off_c, 0, 72, 65
1, 419109, Note_on_c, 0, 38, 98
1, 419111, Note_on_c, 0, 26, 91
1, 419120, Note_off_c, 0, 77, 63
1, 419139, Note_off_c, 0, 26, 66
1, 419139, Note_off_c, 0, 38, 65
1, 419212, Note_on_c, 0, 26, 89
1, 419215, Note_on_c, 0, 36, 91
1, 419240, Note_off_c, 0, 36, 66
1, 419249, Note_off_c, 0, 26, 63
1, 419262, Control_c, 0, 64, 111
1, 419277, Control_c, 0, 64, 67
1, 419292, Control_c, 0, 64, 0
1, 419307, Note_on_c, 0, 79, 107
1, 419308, Note_on_c, 0, 67, 108
1, 419309, Note_on_c, 0, 70, 99
1, 419313, Note_on_c, 0, 75, 97
1, 419315, Note_on_c, 0, 39, 105
1, 419318, Note_on_c, 0, 27, 99
1, 419328, Note_on_c, 0, 71, 79
1, 419336, Control_c, 0, 64, 58
1, 419338, Note_off_c, 0, 70, 45
1, 419351, Control_c, 0, 64, 127
1, 419359, Note_off_c, 0, 27, 67
1, 419362, Note_on_c, 0, 76, 32
1, 419373, Note_off_c, 0, 39, 61
1, 419398, Note_off_c, 0, 76, 47
1, 419434, Note_on_c, 0, 26, 65
1, 419434, Note_on_c, 0, 38, 93
1, 419472, Note_off_c, 0, 38, 62
1, 419477, Note_off_c, 0, 26, 60
1, 419545, Poly_aftertouch_c, 0, 27, 0
1, 419547, Note_on_c, 0, 24, 96
1, 419547, Note_on_c, 0, 36, 98
1, 419556, Poly_aftertouch_c, 0, 27, 0
1, 419570, Note_off_c, 0, 71, 50
1, 419575, Note_off_c, 0, 24, 70
1, 419585, Note_off_c, 0, 36, 62
1, 419657, Note_on_c, 0, 38, 95
1, 419659, Note_on_c, 0, 26, 88
1, 419687, Note_off_c, 0, 26, 65
1, 419697, Note_off_c, 0, 38, 62
1, 419744, Poly_aftertouch_c, 0, 27, 0
1, 419767, Note_on_c, 0, 36, 91
1, 419781, Poly_aftertouch_c, 0, 27, 0
1, 419782, Note_on_c, 0, 25, 74
1, 419789, Note_on_c, 0, 23, 67
1, 419793, Note_on_c, 0, 24, 68
1, 419794, Note_on_c, 0, 35, 59
1, 419795, Note_off_c, 0, 35, 127
1, 419798, Note_off_c, 0, 36, 55
1, 419812, Note_off_c, 0, 24, 65
1, 419814, Note_off_c, 0, 25, 63
1, 419836, Note_off_c, 0, 23, 51
1, 419875, Note_on_c, 0, 34, 90
1, 419884, Note_on_c, 0, 22, 81
1, 419910, Note_off_c, 0, 34, 65
1, 419915, Note_off_c, 0, 22, 61
1, 419938, Control_c, 0, 64, 96
1, 419953, Control_c, 0, 64, 72
1, 419967, Control_c, 0, 64, 0
1, 419986, Note_on_c, 0, 39, 103
1, 419988, Note_on_c, 0, 27, 93
1, 419997, Control_c, 0, 64, 27
1, 420004, Note_on_c, 0, 26, 80
1, 420009, Note_on_c, 0, 37, 63
1, 420010, Note_off_c, 0, 37, 127
1, 420012, Control_c, 0, 64, 64
1, 420024, Note_off_c, 0, 26, 63
1, 420027, Control_c, 0, 64, 93
1, 420036, Note_off_c, 0, 79, 61
1, 420042, Note_off_c, 0, 39, 62
1, 420042, Control_c, 0, 64, 127
1, 420045, Note_off_c, 0, 27, 62
1, 420059, Note_on_c, 0, 70, 65
1, 420071, Poly_aftertouch_c, 0, 30, 0
1, 420073, Note_off_c, 0, 67, 53
1, 420078, Note_off_c, 0, 75, 64
1, 420098, Note_off_c, 0, 70, 64
1, 420101, Note_on_c, 0, 26, 82
1, 420102, Note_on_c, 0, 38, 96
1, 420109, Poly_aftertouch_c, 0, 30, 0
1, 420146, Note_off_c, 0, 38, 62
1, 420147, Note_off_c, 0, 26, 60
1, 420219, Note_on_c, 0, 24, 101
1, 420219, Note_on_c, 0, 36, 98
1, 420234, Control_c, 0, 64, 95
1, 420247, Note_off_c, 0, 24, 69
1, 420249, Note_off_c, 0, 36, 62
1, 420249, Control_c, 0, 64, 74
1, 420264, Control_c, 0, 64, 60
1, 420278, Control_c, 0, 64, 52
1, 420293, Control_c, 0, 64, 62
1, 420308, Control_c, 0, 64, 74
1, 420323, Note_on_c, 0, 38, 100
1, 420323, Control_c, 0, 64, 106
1, 420328, Note_on_c, 0, 26, 96
1, 420338, Control_c, 0, 64, 127
1, 420355, Note_off_c, 0, 38, 61
1, 420357, Note_off_c, 0, 26, 63
1, 420426, Note_on_c, 0, 36, 95
1, 420427, Note_on_c, 0, 24, 95
1, 420441, Note_on_c, 0, 26, 60
1, 420454, Note_off_c, 0, 24, 71
1, 420461, Note_off_c, 0, 36, 61
1, 420469, Note_off_c, 0, 26, 55
1, 420532, Note_on_c, 0, 34, 90
1, 420533, Note_on_c, 0, 22, 92
1, 420571, Note_on_c, 0, 55, 95
1, 420572, Note_off_c, 0, 22, 64
1, 420583, Note_on_c, 0, 51, 85
1, 420583, Note_on_c, 0, 58, 85
1, 420584, Note_off_c, 0, 34, 64
1, 420602, Note_off_c, 0, 51, 70
1, 420608, Note_off_c, 0, 58, 63
1, 420615, Note_off_c, 0, 55, 63
1, 420647, Note_on_c, 0, 58, 94
1, 420651, Note_on_c, 0, 55, 85
1, 420653, Note_on_c, 0, 51, 100
1, 420656, Control_c, 0, 64, 107
1, 420668, Note_on_c, 0, 39, 92
1, 420670, Note_on_c, 0, 27, 93
1, 420671, Control_c, 0, 64, 74
1, 420686, Control_c, 0, 64, 0
1, 420704, Note_on_c, 0, 52, 22
1, 420721, Note_off_c, 0, 39, 63
1, 420723, Note_off_c, 0, 27, 63
1, 420742, Note_off_c, 0, 52, 34
1, 420787, Note_on_c, 0, 38, 86
1, 420793, Note_on_c, 0, 26, 83
1, 420821, Note_off_c, 0, 38, 63
1, 420824, Note_off_c, 0, 26, 65
1, 420906, Note_on_c, 0, 24, 90
1, 420907, Note_on_c, 0, 36, 84
1, 420933, Note_off_c, 0, 24, 65
1, 420938, Note_off_c, 0, 36, 65
1, 421010, Note_on_c, 0, 26, 73
1, 421015, Note_on_c, 0, 38, 89
1, 421042, Control_c, 0, 64, 59
1, 421043, Note_off_c, 0, 38, 66
1, 421052, Note_off_c, 0, 26, 62
1, 421057, Control_c, 0, 64, 73
1, 421072, Control_c, 0, 64, 95
1, 421087, Control_c, 0, 64, 127
1, 421103, Note_off_c, 0, 55, 57
1, 421108, Note_off_c, 0, 51, 54
1, 421112, Note_off_c, 0, 58, 63
1, 421130, Note_on_c, 0, 36, 88
1, 421131, Note_on_c, 0, 24, 91
1, 421157, Note_off_c, 0, 24, 70
1, 421157, Note_off_c, 0, 36, 66
1, 421228, Note_on_c, 0, 34, 92
1, 421231, Note_on_c, 0, 22, 89
1, 421259, Note_off_c, 0, 22, 65
1, 421267, Note_off_c, 0, 34, 63
1, 421341, Note_on_c, 0, 58, 97
1, 421342, Note_on_c, 0, 51, 96
1, 421346, Note_on_c, 0, 55, 88
1, 421353, Note_on_c, 0, 39, 99
1, 421357, Note_on_c, 0, 27, 90
1, 421375, Control_c, 0, 64, 112
1, 421381, Note_on_c, 0, 28, 46
1, 421390, Control_c, 0, 64, 84
1, 421405, Control_c, 0, 64, 64
1, 421407, Note_off_c, 0, 27, 64
1, 421409, Note_off_c, 0, 39, 65
1, 421410, Note_off_c, 0, 28, 50
1, 421420, Control_c, 0, 64, 0
1, 421464, Control_c, 0, 64, 46
1, 421472, Note_on_c, 0, 38, 86
1, 421479, Control_c, 0, 64, 64
1, 421481, Note_on_c, 0, 26, 81
1, 421494, Control_c, 0, 64, 74
1, 421510, Control_c, 0, 64, 81
1, 421514, Note_off_c, 0, 26, 65
1, 421515, Note_off_c, 0, 38, 60
1, 421524, Control_c, 0, 64, 84
1, 421554, Control_c, 0, 64, 85
1, 421569, Control_c, 0, 64, 86
1, 421584, Control_c, 0, 64, 89
1, 421593, Note_on_c, 0, 36, 88
1, 421595, Note_on_c, 0, 24, 90
1, 421599, Control_c, 0, 64, 94
1, 421613, Control_c, 0, 64, 100
1, 421622, Note_off_c, 0, 24, 62
1, 421627, Note_off_c, 0, 36, 64
1, 421628, Control_c, 0, 64, 110
1, 421643, Control_c, 0, 64, 127
1, 421687, Note_off_c, 0, 55, 51
1, 421696, Note_on_c, 0, 38, 91
1, 421697, Note_on_c, 0, 26, 87
1, 421726, Note_off_c, 0, 51, 53
1, 421727, Note_off_c, 0, 26, 63
1, 421728, Note_off_c, 0, 38, 65
1, 421754, Note_off_c, 0, 58, 64
1, 421817, Note_on_c, 0, 36, 92
1, 421820, Note_on_c, 0, 24, 93
1, 421840, Note_off_c, 0, 36, 68
1, 421845, Note_off_c, 0, 24, 65
1, 421913, Note_on_c, 0, 34, 92
1, 421917, Note_on_c, 0, 22, 89
1, 421943, Note_off_c, 0, 22, 66
1, 421951, Note_off_c, 0, 34, 63
1, 421969, Control_c, 0, 64, 95
1, 421984, Control_c, 0, 64, 62
1, 421998, Control_c, 0, 64, 0
1, 422002, Note_on_c, 0, 63, 97
1, 422003, Note_on_c, 0, 51, 98
1, 422007, Note_on_c, 0, 55, 93
1, 422007, Note_on_c, 0, 58, 94
1, 422023, Note_on_c, 0, 27, 88
1, 422023, Note_on_c, 0, 39, 96
1, 422043, Control_c, 0, 64, 67
1, 422056, Note_off_c, 0, 51, 59
1, 422057, Control_c, 0, 64, 127
1, 422066, Note_off_c, 0, 63, 62
1, 422087, Note_off_c, 0, 55, 56
1, 422090, Note_off_c, 0, 27, 61
1, 422095, Note_off_c, 0, 58, 65
1, 422098, Note_off_c, 0, 39, 57
1, 422172, Note_on_c, 0, 38, 76
1, 422175, Note_on_c, 0, 26, 76
1, 422197, Note_off_c, 0, 26, 69
1, 422203, Note_off_c, 0, 38, 63
1, 422268, Note_on_c, 0, 55, 91
1, 422271, Note_on_c, 0, 51, 91
1, 422276, Note_on_c, 0, 24, 94
1, 422277, Note_on_c, 0, 36, 89
1, 422290, Note_on_c, 0, 58, 67
1, 422309, Note_off_c, 0, 58, 65
1, 422318, Note_off_c, 0, 24, 64
1, 422319, Note_off_c, 0, 36, 62
1, 422320, Note_off_c, 0, 51, 55
1, 422332, Note_off_c, 0, 55, 62
1, 422370, Note_on_c, 0, 58, 92
1, 422379, Note_on_c, 0, 51, 93
1, 422379, Note_on_c, 0, 55, 82
1, 422391, Note_on_c, 0, 26, 88
1, 422391, Note_on_c, 0, 38, 96
1, 422392, Control_c, 0, 64, 108
1, 422407, Control_c, 0, 64, 74
1, 422421, Control_c, 0, 64, 13
1, 422432, Note_off_c, 0, 26, 64
1, 422433, Note_off_c, 0, 38, 63
1, 422436, Control_c, 0, 64, 0
1, 422466, Control_c, 0, 64, 54
1, 422480, Control_c, 0, 64, 71
1, 422495, Control_c, 0, 64, 90
1, 422510, Control_c, 0, 64, 127
1, 422522, Note_on_c, 0, 35, 71
1, 422525, Note_on_c, 0, 23, 74
1, 422548, Note_on_c, 0, 36, 20
1, 422548, Note_off_c, 0, 35, 64
1, 422555, Note_off_c, 0, 23, 58
1, 422560, Note_on_c, 0, 27, 28
1, 422583, Note_off_c, 0, 36, 50
1, 422592, Poly_aftertouch_c, 0, 24, 127
1, 422593, Note_off_c, 0, 27, 57
1, 422621, Note_on_c, 0, 34, 86
1, 422623, Note_on_c, 0, 22, 82
1, 422629, Poly_aftertouch_c, 0, 24, 0
1, 422644, Note_off_c, 0, 34, 65
1, 422652, Note_off_c, 0, 22, 65
1, 422689, Control_c, 0, 64, 99
1, 422704, Control_c, 0, 64, 65
1, 422719, Control_c, 0, 64, 0
1, 422721, Note_on_c, 0, 39, 96
1, 422739, Note_on_c, 0, 28, 70
1, 422744, Note_off_c, 0, 55, 55
1, 422748, Control_c, 0, 64, 30
1, 422756, Note_on_c, 0, 40, 48
1, 422763, Control_c, 0, 64, 61
1, 422763, Note_off_c, 0, 51, 56
1, 422766, Note_off_c, 0, 28, 64
1, 422778, Control_c, 0, 64, 76
1, 422787, Note_off_c, 0, 58, 62
1, 422790, Note_off_c, 0, 39, 60
1, 422791, Note_off_c, 0, 40, 53
1, 422793, Control_c, 0, 64, 113
1, 422807, Control_c, 0, 64, 127
1, 422865, Note_on_c, 0, 26, 85
1, 422865, Note_on_c, 0, 38, 85
1, 422900, Note_off_c, 0, 38, 62
1, 422903, Note_off_c, 0, 26, 62
1, 422972, Note_on_c, 0, 55, 91
1, 422978, Note_on_c, 0, 51, 82
1, 422981, Note_on_c, 0, 24, 97
1, 422983, Note_on_c, 0, 36, 87
1, 423008, Note_off_c, 0, 36, 66
1, 423012, Note_off_c, 0, 24, 65
1, 423016, Note_off_c, 0, 51, 62
1, 423022, Note_off_c, 0, 55, 63
1, 423067, Note_on_c, 0, 58, 72
1, 423076, Note_on_c, 0, 55, 77
1, 423084, Note_on_c, 0, 38, 92
1, 423085, Note_on_c, 0, 26, 92
1, 423091, Note_on_c, 0, 51, 42
1, 423092, Note_off_c, 0, 51, 127
1, 423103, Note_off_c, 0, 55, 65
1, 423115, Note_off_c, 0, 38, 65
1, 423123, Note_off_c, 0, 26, 61
1, 423136, Note_off_c, 0, 58, 64
1, 423213, Note_on_c, 0, 36, 76
1, 423215, Note_on_c, 0, 35, 80
1, 423223, Note_on_c, 0, 23, 67
1, 423227, Note_on_c, 0, 24, 61
1, 423234, Note_off_c, 0, 36, 64
1, 423235, Note_on_c, 0, 25, 47
1, 423243, Note_off_c, 0, 35, 64
1, 423245, Note_off_c, 0, 24, 67
1, 423254, Note_off_c, 0, 23, 56
1, 423276, Note_off_c, 0, 25, 45
1, 423307, Note_on_c, 0, 63, 103
1, 423313, Note_on_c, 0, 55, 90
1, 423316, Note_on_c, 0, 34, 84
1, 423318, Note_on_c, 0, 58, 81
1, 423318, Note_on_c, 0, 22, 84
1, 423333, Control_c, 0, 64, 84
1, 423336, Note_off_c, 0, 58, 71
1, 423338, Note_off_c, 0, 34, 71
1, 423342, Note_off_c, 0, 55, 61
1, 423346, Note_off_c, 0, 22, 65
1, 423348, Control_c, 0, 64, 46
1, 423360, Note_off_c, 0, 63, 65
1, 423363, Control_c, 0, 64, 0
1, 423401, Note_on_c, 0, 67, 100
1, 423407, Control_c, 0, 64, 70
1, 423409, Note_on_c, 0, 55, 92
1, 423412, Note_on_c, 0, 39, 97
1, 423413, Note_on_c, 0, 27, 92
1, 423414, Note_on_c, 0, 59, 86
1, 423422, Control_c, 0, 64, 127
1, 423440, Note_off_c, 0, 59, 61
1, 423449, Note_on_c, 0, 28, 44
1, 423460, Note_off_c, 0, 55, 61
1, 423467, Note_off_c, 0, 67, 60
1, 423470, Note_off_c, 0, 27, 63
1, 423470, Note_off_c, 0, 39, 62
1, 423486, Note_off_c, 0, 28, 44
1, 423532, Note_on_c, 0, 38, 93
1, 423535, Note_on_c, 0, 26, 86
1, 423585, Note_off_c, 0, 38, 60
1, 423586, Note_off_c, 0, 26, 58
1, 423657, Note_on_c, 0, 58, 80
1, 423660, Note_on_c, 0, 24, 95
1, 423660, Note_on_c, 0, 36, 89
1, 423664, Note_on_c, 0, 55, 85
1, 423690, Note_off_c, 0, 36, 64
1, 423695, Note_off_c, 0, 24, 64
1, 423698, Note_on_c, 0, 63, 38
1, 423702, Note_off_c, 0, 58, 64
1, 423706, Note_off_c, 0, 55, 59
1, 423722, Note_off_c, 0, 63, 40
1, 423754, Note_on_c, 0, 55, 83
1, 423756, Note_on_c, 0, 63, 90
1, 423760, Note_on_c, 0, 58, 81
1, 423762, Note_on_c, 0, 38, 96
1, 423766, Note_on_c, 0, 26, 90
1, 423804, Note_off_c, 0, 38, 63
1, 423807, Note_off_c, 0, 26, 63
1, 423881, Note_on_c, 0, 36, 94
1, 423882, Note_on_c, 0, 24, 96
1, 423914, Note_off_c, 0, 36, 62
1, 423918, Note_off_c, 0, 24, 64
1, 423985, Note_on_c, 0, 34, 95
1, 423988, Note_on_c, 0, 22, 96
1, 424020, Note_off_c, 0, 22, 63
1, 424021, Note_off_c, 0, 34, 64
1, 424038, Control_c, 0, 64, 89
1, 424052, Control_c, 0, 64, 55
1, 424067, Control_c, 0, 64, 0
1, 424090, Note_on_c, 0, 39, 110
1, 424093, Note_on_c, 0, 27, 92
1, 424112, Control_c, 0, 64, 59
1, 424117, Note_on_c, 0, 28, 58
1, 424126, Control_c, 0, 64, 83
1, 424141, Control_c, 0, 64, 127
1, 424143, Note_off_c, 0, 63, 59
1, 424146, Note_off_c, 0, 27, 63
1, 424150, Note_off_c, 0, 28, 52
1, 424152, Note_off_c, 0, 39, 60
1, 424157, Note_off_c, 0, 58, 55
1, 424161, Note_off_c, 0, 55, 58
1, 424209, Note_on_c, 0, 38, 86
1, 424216, Note_on_c, 0, 26, 85
1, 424258, Note_off_c, 0, 38, 62
1, 424260, Note_off_c, 0, 26, 60
1, 424339, Note_on_c, 0, 58, 97
1, 424342, Note_on_c, 0, 24, 85
1, 424347, Note_on_c, 0, 36, 81
1, 424349, Note_on_c, 0, 55, 82
1, 424361, Note_on_c, 0, 26, 64
1, 424376, Note_off_c, 0, 24, 62
1, 424378, Note_off_c, 0, 55, 63
1, 424379, Note_off_c, 0, 36, 63
1, 424385, Note_off_c, 0, 58, 65
1, 424391, Note_off_c, 0, 26, 52
1, 424444, Note_on_c, 0, 63, 95
1, 424448, Note_on_c, 0, 58, 85
1, 424449, Note_on_c, 0, 55, 74
1, 424455, Note_on_c, 0, 26, 88
1, 424456, Note_on_c, 0, 38, 88
1, 424469, Note_off_c, 0, 58, 65
1, 424474, Note_off_c, 0, 55, 66
1, 424488, Note_off_c, 0, 38, 63
1, 424495, Note_off_c, 0, 26, 61
1, 424502, Note_off_c, 0, 63, 63
1, 424568, Note_on_c, 0, 36, 86
1, 424576, Note_on_c, 0, 24, 77
1, 424580, Note_on_c, 0, 26, 74
1, 424600, Note_off_c, 0, 26, 70
1, 424607, Note_off_c, 0, 36, 62
1, 424609, Note_off_c, 0, 24, 66
1, 424668, Note_on_c, 0, 34, 85
1, 424669, Note_on_c, 0, 22, 93
1, 424670, Note_on_c, 0, 67, 93
1, 424677, Note_on_c, 0, 58, 94
1, 424682, Control_c, 0, 64, 94
1, 424683, Note_on_c, 0, 63, 88
1, 424698, Control_c, 0, 64, 62
1, 424711, Note_off_c, 0, 34, 66
1, 424713, Note_off_c, 0, 22, 65
1, 424713, Control_c, 0, 64, 0
1, 424719, Note_off_c, 0, 58, 65
1, 424727, Note_off_c, 0, 63, 61
1, 424730, Note_off_c, 0, 67, 62
1, 424757, Control_c, 0, 64, 71
1, 424768, Note_on_c, 0, 70, 97
1, 424769, Note_on_c, 0, 58, 96
1, 424771, Note_on_c, 0, 63, 87
1, 424772, Control_c, 0, 64, 127
1, 424782, Note_on_c, 0, 39, 95
1, 424784, Note_on_c, 0, 27, 95
1, 424808, Note_off_c, 0, 63, 66
1, 424810, Note_off_c, 0, 70, 72
1, 424821, Note_off_c, 0, 58, 63
1, 424841, Note_off_c, 0, 39, 63
1, 424841, Note_off_c, 0, 27, 63
1, 424905, Note_on_c, 0, 38, 83
1, 424908, Note_on_c, 0, 26, 80
1, 424940, Note_off_c, 0, 26, 62
1, 424941, Note_off_c, 0, 38, 60
1, 425021, Note_on_c, 0, 24, 89
1, 425021, Note_on_c, 0, 55, 79
1, 425024, Note_on_c, 0, 63, 93
1, 425025, Note_on_c, 0, 36, 86
1, 425028, Note_on_c, 0, 58, 84
1, 425044, Note_off_c, 0, 58, 74
1, 425050, Note_off_c, 0, 24, 66
1, 425051, Note_off_c, 0, 36, 65
1, 425063, Note_off_c, 0, 55, 62
1, 425065, Note_off_c, 0, 63, 64
1, 425116, Note_on_c, 0, 67, 101
1, 425123, Note_on_c, 0, 58, 86
1, 425129, Note_on_c, 0, 63, 87
1, 425133, Note_on_c, 0, 38, 94
1, 425133, Note_on_c, 0, 26, 88
1, 425145, Note_off_c, 0, 58, 70
1, 425160, Note_off_c, 0, 38, 64
1, 425169, Note_off_c, 0, 26, 61
1, 425174, Note_off_c, 0, 67, 65
1, 425175, Note_off_c, 0, 63, 64
1, 425255, Note_on_c, 0, 36, 73
1, 425261, Note_on_c, 0, 23, 76
1, 425264, Note_on_c, 0, 35, 69
1, 425277, Note_off_c, 0, 36, 61
1, 425288, Note_on_c, 0, 25, 30
1, 425288, Note_off_c, 0, 35, 62
1, 425293, Note_off_c, 0, 23, 60
1, 425296, Note_on_c, 0, 24, 20
1, 425324, Note_off_c, 0, 24, 58
1, 425332, Note_off_c, 0, 25, 42
1, 425355, Note_on_c, 0, 22, 89
1, 425355, Note_on_c, 0, 67, 88
1, 425357, Note_on_c, 0, 70, 81
1, 425357, Note_on_c, 0, 34, 91
1, 425357, Note_on_c, 0, 63, 87
1, 425382, Note_off_c, 0, 22, 66
1, 425383, Note_off_c, 0, 34, 68
1, 425386, Control_c, 0, 64, 103
1, 425389, Note_off_c, 0, 63, 57
1, 425399, Note_off_c, 0, 67, 64
1, 425401, Control_c, 0, 64, 75
1, 425405, Note_off_c, 0, 70, 65
1, 425416, Control_c, 0, 64, 14
1, 425431, Control_c, 0, 64, 0
1, 425437, Poly_aftertouch_c, 0, 67, 0
1, 425441, Poly_aftertouch_c, 0, 70, 0
1, 425442, Note_on_c, 0, 67, 92
1, 425442, Note_on_c, 0, 75, 98
1, 425443, Note_on_c, 0, 63, 99
1, 425447, Note_on_c, 0, 70, 76
1, 425458, Note_on_c, 0, 27, 95
1, 425459, Note_on_c, 0, 39, 97
1, 425461, Control_c, 0, 64, 56
1, 425475, Control_c, 0, 64, 77
1, 425484, Note_on_c, 0, 26, 57
1, 425490, Control_c, 0, 64, 127
1, 425491, Note_on_c, 0, 37, 43
1, 425492, Note_off_c, 0, 37, 127
1, 425497, Note_off_c, 0, 63, 62
1, 425497, Note_off_c, 0, 67, 61
1, 425511, Note_off_c, 0, 26, 57
1, 425511, Note_off_c, 0, 39, 63
1, 425514, Note_off_c, 0, 27, 62
1, 425527, Poly_aftertouch_c, 0, 37, 0
1, 425532, Note_off_c, 0, 70, 65
1, 425541, Note_off_c, 0, 75, 60
1, 425566, Note_on_c, 0, 38, 93
1, 425573, Note_on_c, 0, 26, 84
1, 425607, Note_off_c, 0, 26, 61
1, 425611, Note_off_c, 0, 38, 59
1, 425684, Note_on_c, 0, 36, 94
1, 425685, Note_on_c, 0, 24, 96
1, 425721, Note_off_c, 0, 36, 61
1, 425729, Note_off_c, 0, 24, 64
1, 425797, Note_on_c, 0, 79, 107
1, 425798, Note_on_c, 0, 67, 111
1, 425804, Note_on_c, 0, 75, 99
1, 425805, Note_on_c, 0, 26, 91
1, 425805, Note_on_c, 0, 38, 93
1, 425807, Note_on_c, 0, 70, 87
1, 425829, Note_off_c, 0, 70, 75
1, 425854, Note_off_c, 0, 38, 61
1, 425857, Note_off_c, 0, 26, 63
1, 425914, Note_off_c, 0, 67, 50
1, 425950, Note_on_c, 0, 24, 99
1, 425950, Note_on_c, 0, 36, 91
1, 425976, Note_off_c, 0, 24, 67
1, 425976, Note_off_c, 0, 79, 56
1, 425977, Note_off_c, 0, 36, 64
1, 426019, Note_off_c, 0, 75, 61
1, 426049, Note_on_c, 0, 34, 98
1, 426054, Note_on_c, 0, 22, 100
1, 426063, Poly_aftertouch_c, 0, 28, 0
1, 426089, Note_off_c, 0, 22, 63
1, 426089, Note_off_c, 0, 34, 64
1, 426135, Control_c, 0, 64, 113
1, 426150, Control_c, 0, 64, 65
1, 426164, Control_c, 0, 64, 0
1, 426202, Note_on_c, 0, 69, 106
1, 426202, Note_on_c, 0, 81, 107
1, 426204, Note_on_c, 0, 74, 101
1, 426206, Note_on_c, 0, 78, 102
1, 426214, Note_on_c, 0, 38, 114
1, 426216, Note_on_c, 0, 26, 96
1, 426224, Control_c, 0, 64, 76
1, 426236, Note_on_c, 0, 27, 65
1, 426239, Control_c, 0, 64, 127
1, 426245, Note_on_c, 0, 32, 49
1, 426246, Note_off_c, 0, 32, 127
1, 426250, Note_on_c, 0, 30, 40
1, 426251, Note_off_c, 0, 30, 127
1, 426251, Note_off_c, 0, 38, 66
1, 426255, Note_off_c, 0, 26, 62
1, 426269, Note_off_c, 0, 27, 53
1, 426281, Poly_aftertouch_c, 0, 32, 0
1, 426290, Poly_aftertouch_c, 0, 30, 0
1, 426463, Note_on_c, 0, 45, 63
1, 426474, Note_on_c, 0, 33, 48
1, 426482, Note_off_c, 0, 45, 65
1, 426514, Note_off_c, 0, 33, 49
1, 426588, Note_on_c, 0, 45, 50
1, 426615, Note_on_c, 0, 44, 10
1, 426615, Note_off_c, 0, 45, 64
1, 426637, Poly_aftertouch_c, 0, 34, 127
1, 426657, Note_off_c, 0, 44, 38
1, 426678, Poly_aftertouch_c, 0, 34, 0
1, 426685, Note_on_c, 0, 35, 85
1, 426686, Note_on_c, 0, 47, 85
1, 426709, Note_off_c, 0, 47, 70
1, 426712, Note_off_c, 0, 35, 64
1, 426808, Note_on_c, 0, 36, 84
1, 426821, Note_on_c, 0, 48, 59
1, 426836, Note_off_c, 0, 36, 63
1, 426842, Note_off_c, 0, 48, 62
1, 426890, Note_on_c, 0, 37, 77
1, 426894, Note_on_c, 0, 49, 78
1, 426922, Note_off_c, 0, 49, 66
1, 426928, Note_off_c, 0, 37, 63
1, 426973, Control_c, 0, 64, 95
1, 426987, Note_on_c, 0, 38, 93
1, 426987, Note_on_c, 0, 50, 96
1, 426988, Control_c, 0, 64, 63
1, 426990, Poly_aftertouch_c, 0, 36, 0
1, 427003, Control_c, 0, 64, 0
1, 427012, Note_off_c, 0, 81, 58
1, 427014, Note_on_c, 0, 39, 56
1, 427018, Note_off_c, 0, 74, 61
1, 427018, Control_c, 0, 64, 28
1, 427020, Note_off_c, 0, 78, 59
1, 427021, Note_off_c, 0, 50, 62
1, 427026, Note_on_c, 0, 42, 40
1, 427033, Control_c, 0, 64, 65
1, 427034, Note_off_c, 0, 69, 61
1, 427047, Note_off_c, 0, 39, 37
1, 427047, Control_c, 0, 64, 91
1, 427059, Note_off_c, 0, 38, 60
1, 427059, Note_off_c, 0, 42, 54
1, 427062, Control_c, 0, 64, 127
1, 427098, Note_on_c, 0, 49, 71
1, 427103, Note_on_c, 0, 37, 78
1, 427169, Note_off_c, 0, 37, 62
1, 427176, Note_off_c, 0, 49, 61
1, 427229, Note_on_c, 0, 48, 75
1, 427230, Note_on_c, 0, 36, 76
1, 427261, Note_off_c, 0, 36, 64
1, 427263, Note_off_c, 0, 48, 65
1, 427351, Note_on_c, 0, 47, 89
1, 427354, Note_on_c, 0, 35, 81
1, 427373, Note_off_c, 0, 47, 70
1, 427380, Note_off_c, 0, 35, 65
1, 427447, Note_on_c, 0, 46, 90
1, 427457, Note_on_c, 0, 34, 82
1, 427484, Note_off_c, 0, 46, 65
1, 427485, Note_on_c, 0, 62, 91
1, 427485, Note_on_c, 0, 69, 91
1, 427485, Note_off_c, 0, 34, 64
1, 427488, Note_on_c, 0, 57, 86
1, 427493, Note_on_c, 0, 66, 80
1, 427515, Note_off_c, 0, 66, 69
1, 427526, Note_off_c, 0, 62, 64
1, 427527, Note_off_c, 0, 57, 61
1, 427527, Note_off_c, 0, 69, 67
1, 427545, Note_on_c, 0, 33, 70
1, 427561, Poly_aftertouch_c, 0, 69, 0
1, 427565, Note_on_c, 0, 57, 82
1, 427567, Note_on_c, 0, 69, 81
1, 427568, Note_on_c, 0, 62, 84
1, 427571, Note_on_c, 0, 66, 88
1, 427588, Note_off_c, 0, 33, 66
1, 427605, Note_off_c, 0, 69, 66
1, 427607, Note_off_c, 0, 57, 64
1, 427607, Note_off_c, 0, 62, 63
1, 427608, Note_off_c, 0, 66, 60
1, 427616, Poly_aftertouch_c, 0, 34, 127
1, 427632, Control_c, 0, 64, 84
1, 427645, Poly_aftertouch_c, 0, 34, 0
1, 427647, Control_c, 0, 64, 51
1, 427652, Note_on_c, 0, 57, 94
1, 427652, Poly_aftertouch_c, 0, 66, 0
1, 427652, Note_on_c, 0, 69, 97
1, 427653, Note_on_c, 0, 62, 94
1, 427657, Note_on_c, 0, 66, 84
1, 427662, Control_c, 0, 64, 0
1, 427673, Note_on_c, 0, 38, 90
1, 427678, Note_on_c, 0, 26, 80
1, 427678, Note_on_c, 0, 28, 80
1, 427691, Note_off_c, 0, 57, 66
1, 427691, Note_off_c, 0, 62, 68
1, 427691, Control_c, 0, 64, 53
1, 427701, Note_off_c, 0, 38, 70
1, 427702, Note_off_c, 0, 28, 66
1, 427706, Control_c, 0, 64, 93
1, 427708, Note_off_c, 0, 26, 63
1, 427712, Note_off_c, 0, 66, 67
1, 427721, Control_c, 0, 64, 127
1, 427734, Note_off_c, 0, 69, 64
1, 427804, Note_on_c, 0, 45, 78
1, 427810, Note_on_c, 0, 33, 65
1, 427823, Note_off_c, 0, 45, 67
1, 427825, Note_on_c, 0, 39, 51
1, 427834, Note_off_c, 0, 33, 62
1, 427855, Note_off_c, 0, 39, 60
1, 427886, Poly_aftertouch_c, 0, 37, 0
1, 427894, Note_on_c, 0, 46, 96
1, 427897, Note_on_c, 0, 34, 80
1, 427937, Note_off_c, 0, 34, 61
1, 427941, Note_off_c, 0, 46, 62
1, 427941, Poly_aftertouch_c, 0, 37, 0
1, 428011, Note_on_c, 0, 74, 96
1, 428013, Note_on_c, 0, 62, 99
1, 428016, Note_on_c, 0, 35, 86
1, 428019, Note_on_c, 0, 47, 87
1, 428021, Note_on_c, 0, 66, 91
1, 428036, Note_off_c, 0, 66, 75
1, 428043, Note_off_c, 0, 47, 68
1, 428043, Note_off_c, 0, 74, 69
1, 428052, Note_off_c, 0, 62, 64
1, 428054, Note_off_c, 0, 35, 60
1, 428139, Note_on_c, 0, 36, 95
1, 428146, Note_on_c, 0, 48, 80
1, 428168, Note_off_c, 0, 48, 70
1, 428176, Note_off_c, 0, 36, 60
1, 428235, Note_on_c, 0, 37, 88
1, 428242, Note_on_c, 0, 49, 89
1, 428294, Note_off_c, 0, 49, 61
1, 428295, Note_off_c, 0, 37, 63
1, 428337, Control_c, 0, 64, 91
1, 428349, Note_on_c, 0, 57, 98
1, 428349, Note_on_c, 0, 69, 99
1, 428352, Control_c, 0, 64, 58
1, 428354, Note_on_c, 0, 62, 90
1, 428356, Note_on_c, 0, 66, 97
1, 428358, Note_on_c, 0, 38, 88
1, 428366, Note_on_c, 0, 50, 82
1, 428366, Control_c, 0, 64, 0
1, 428391, Note_off_c, 0, 50, 69
1, 428404, Note_off_c, 0, 62, 63
1, 428411, Control_c, 0, 64, 61
1, 428413, Note_off_c, 0, 38, 63
1, 428415, Note_off_c, 0, 57, 60
1, 428424, Note_on_c, 0, 42, 10
1, 428425, Control_c, 0, 64, 82
1, 428440, Control_c, 0, 64, 127
1, 428457, Note_off_c, 0, 69, 67
1, 428465, Note_off_c, 0, 66, 69
1, 428471, Note_on_c, 0, 37, 83
1, 428472, Note_on_c, 0, 49, 82
1, 428474, Note_off_c, 0, 42, 51
1, 428525, Note_off_c, 0, 49, 62
1, 428531, Note_off_c, 0, 37, 61
1, 428590, Note_on_c, 0, 48, 80
1, 428591, Note_on_c, 0, 36, 79
1, 428618, Note_off_c, 0, 48, 67
1, 428622, Note_off_c, 0, 36, 63
1, 428689, Note_on_c, 0, 76, 105
1, 428690, Note_on_c, 0, 64, 96
1, 428692, Note_on_c, 0, 69, 100
1, 428706, Note_on_c, 0, 47, 93
1, 428714, Note_on_c, 0, 35, 79
1, 428720, Note_on_c, 0, 37, 63
1, 428721, Note_off_c, 0, 37, 127
1, 428725, Note_off_c, 0, 47, 70
1, 428736, Note_off_c, 0, 35, 63
1, 428738, Note_on_c, 0, 40, 50
1, 428740, Note_off_c, 0, 64, 56
1, 428746, Poly_aftertouch_c, 0, 37, 0
1, 428768, Note_off_c, 0, 40, 55
1, 428783, Note_off_c, 0, 76, 65
1, 428793, Note_on_c, 0, 46, 92
1, 428801, Note_on_c, 0, 34, 78
1, 428830, Note_off_c, 0, 46, 62
1, 428834, Note_off_c, 0, 69, 61
1, 428835, Note_off_c, 0, 34, 64
1, 428853, Note_on_c, 0, 47, 11
1, 428889, Note_off_c, 0, 47, 53
1, 428906, Note_on_c, 0, 33, 93
1, 428906, Note_on_c, 0, 45, 75
1, 428934, Note_off_c, 0, 45, 67
1, 428943, Note_off_c, 0, 33, 64
1, 428982, Control_c, 0, 64, 77
1, 428996, Control_c, 0, 64, 0
1, 429023, Note_on_c, 0, 78, 103
1, 429026, Note_on_c, 0, 66, 99
1, 429026, Note_on_c, 0, 69, 95
1, 429034, Note_on_c, 0, 38, 111
1, 429039, Note_on_c, 0, 26, 91
1, 429041, Control_c, 0, 64, 50
1, 429046, Note_on_c, 0, 28, 66
1, 429056, Control_c, 0, 64, 91
1, 429063, Note_off_c, 0, 26, 69
1, 429065, Note_on_c, 0, 27, 48
1, 429068, Note_on_c, 0, 77, 94
1, 429071, Control_c, 0, 64, 127
1, 429073, Note_on_c, 0, 32, 37
1, 429074, Note_off_c, 0, 32, 127
1, 429074, Note_on_c, 0, 30, 35
1, 429075, Note_off_c, 0, 30, 127
1, 429075, Note_off_c, 0, 38, 63
1, 429078, Note_off_c, 0, 28, 63
1, 429101, Note_off_c, 0, 27, 54
1, 429112, Poly_aftertouch_c, 0, 32, 0
1, 429118, Poly_aftertouch_c, 0, 30, 0
1, 429149, Note_off_c, 0, 77, 60
1, 429155, Note_off_c, 0, 78, 53
1, 429174, Note_on_c, 0, 45, 81
1, 429182, Note_on_c, 0, 33, 73
1, 429187, Note_on_c, 0, 39, 65
1, 429200, Note_off_c, 0, 45, 69
1, 429202, Note_off_c, 0, 33, 65
1, 429216, Note_off_c, 0, 39, 64
1, 429264, Note_on_c, 0, 46, 94
1, 429265, Note_on_c, 0, 34, 79
1, 429284, Note_off_c, 0, 46, 71
1, 429295, Note_off_c, 0, 34, 64
1, 429373, Note_on_c, 0, 47, 58
1, 429376, Note_on_c, 0, 35, 85
1, 429403, Note_off_c, 0, 47, 64
1, 429403, Note_off_c, 0, 35, 65
1, 429491, Note_on_c, 0, 36, 92
1, 429502, Note_off_c, 0, 66, 52
1, 429518, Note_off_c, 0, 69, 56
1, 429528, Note_on_c, 0, 48, 31
1, 429530, Note_off_c, 0, 36, 59
1, 429570, Note_off_c, 0, 48, 49
1, 429586, Note_on_c, 0, 37, 87
1, 429588, Poly_aftertouch_c, 0, 40, 127
1, 429590, Note_on_c, 0, 49, 87
1, 429633, Poly_aftertouch_c, 0, 40, 0
1, 429638, Note_off_c, 0, 49, 60
1, 429643, Note_off_c, 0, 37, 63
1, 429672, Control_c, 0, 64, 67
1, 429687, Control_c, 0, 64, 0
1, 429690, Note_on_c, 0, 66, 97
1, 429691, Note_on_c, 0, 74, 96
1, 429696, Note_on_c, 0, 69, 91
1, 429700, Note_on_c, 0, 38, 87
1, 429705, Note_on_c, 0, 50, 83
1, 429717, Control_c, 0, 64, 57
1, 429730, Note_off_c, 0, 50, 69
1, 429732, Control_c, 0, 64, 78
1, 429733, Note_off_c, 0, 69, 64
1, 429745, Note_on_c, 0, 42, 36
1, 429746, Control_c, 0, 64, 127
1, 429748, Note_off_c, 0, 38, 62
1, 429751, Note_off_c, 0, 74, 63
1, 429772, Note_off_c, 0, 66, 64
1, 429783, Note_off_c, 0, 42, 51
1, 429814, Note_on_c, 0, 37, 84
1, 429817, Note_on_c, 0, 49, 84
1, 429869, Note_off_c, 0, 49, 61
1, 429871, Note_off_c, 0, 37, 62
1, 429939, Note_on_c, 0, 48, 83
1, 429941, Note_on_c, 0, 36, 82
1, 429966, Note_off_c, 0, 48, 65
1, 429973, Note_off_c, 0, 36, 64
1, 430017, Note_on_c, 0, 62, 83
1, 430017, Note_on_c, 0, 69, 82
1, 430020, Note_on_c, 0, 66, 83
1, 430053, Note_on_c, 0, 47, 89
1, 430053, Note_off_c, 0, 62, 58
1, 430063, Note_on_c, 0, 35, 61
1, 430066, Note_on_c, 0, 37, 62
1, 430074, Note_off_c, 0, 47, 70
1, 430076, Note_off_c, 0, 66, 61
1, 430076, Note_off_c, 0, 69, 64
1, 430089, Note_off_c, 0, 35, 61
1, 430097, Note_off_c, 0, 37, 60
1, 430120, Note_on_c, 0, 74, 88
1, 430138, Note_on_c, 0, 46, 93
1, 430153, Note_on_c, 0, 34, 75
1, 430163, Note_off_c, 0, 74, 66
1, 430180, Note_off_c, 0, 34, 64
1, 430187, Note_off_c, 0, 46, 62
1, 430231, Note_on_c, 0, 77, 83
1, 430241, Note_on_c, 0, 33, 78
1, 430256, Note_off_c, 0, 77, 62
1, 430258, Note_on_c, 0, 69, 41
1, 430271, Note_off_c, 0, 33, 65
1, 430282, Note_off_c, 0, 69, 58
1, 430295, Control_c, 0, 64, 79
1, 430318, Control_c, 0, 64, 38
1, 430333, Control_c, 0, 64, 0
1, 430342, Note_on_c, 0, 81, 101
1, 430344, Note_on_c, 0, 69, 99
1, 430353, Note_on_c, 0, 74, 89
1, 430353, Note_on_c, 0, 78, 92
1, 430356, Note_on_c, 0, 26, 90
1, 430358, Note_on_c, 0, 38, 93
1, 430363, Control_c, 0, 64, 45
1, 430377, Control_c, 0, 64, 84
1, 430392, Control_c, 0, 64, 127
1, 430392, Note_off_c, 0, 26, 63
1, 430404, Note_off_c, 0, 38, 57
1, 430490, Note_on_c, 0, 45, 87
1, 430493, Note_on_c, 0, 33, 85
1, 430510, Note_off_c, 0, 45, 68
1, 430515, Note_off_c, 0, 33, 64
1, 430537, Note_on_c, 0, 40, 24
1, 430583, Note_on_c, 0, 46, 99
1, 430583, Note_on_c, 0, 34, 82
1, 430584, Note_off_c, 0, 40, 47
1, 430616, Note_off_c, 0, 46, 61
1, 430616, Note_off_c, 0, 34, 65
1, 430695, Note_on_c, 0, 35, 85
1, 430696, Note_on_c, 0, 47, 83
1, 430719, Note_off_c, 0, 47, 70
1, 430724, Note_off_c, 0, 35, 67
1, 430752, Note_off_c, 0, 69, 37
1, 430777, Note_off_c, 0, 81, 54
1, 430777, Note_off_c, 0, 78, 39
1, 430807, Note_on_c, 0, 36, 90
1, 430833, Note_on_c, 0, 48, 54
1, 430840, Note_off_c, 0, 74, 60
1, 430857, Note_off_c, 0, 48, 58
1, 430898, Poly_aftertouch_c, 0, 41, 127
1, 430909, Note_on_c, 0, 37, 80
1, 430914, Note_on_c, 0, 49, 78
1, 430916, Note_off_c, 0, 36, 59
1, 430944, Poly_aftertouch_c, 0, 41, 0
1, 430965, Note_off_c, 0, 49, 62
1, 430968, Note_off_c, 0, 37, 62
1, 430999, Control_c, 0, 64, 86
1, 431007, Note_on_c, 0, 81, 105
1, 431009, Note_on_c, 0, 69, 106
1, 431010, Note_on_c, 0, 76, 101
1, 431013, Control_c, 0, 64, 53
1, 431026, Note_on_c, 0, 38, 90
1, 431028, Control_c, 0, 64, 0
1, 431029, Note_on_c, 0, 50, 81
1, 431062, Note_off_c, 0, 50, 67
1, 431066, Control_c, 0, 64, 57
1, 431081, Control_c, 0, 64, 77
1, 431090, Note_off_c, 0, 38, 62
1, 431096, Control_c, 0, 64, 127
1, 431147, Note_on_c, 0, 37, 85
1, 431149, Note_on_c, 0, 49, 83
1, 431198, Note_off_c, 0, 49, 62
1, 431206, Note_off_c, 0, 37, 61
1, 431260, Note_on_c, 0, 48, 85
1, 431260, Note_on_c, 0, 36, 82
1, 431300, Note_off_c, 0, 48, 62
1, 431301, Note_off_c, 0, 36, 60
1, 431312, Note_off_c, 0, 76, 60
1, 431319, Note_off_c, 0, 69, 60
1, 431340, Note_off_c, 0, 81, 58
1, 431376, Note_on_c, 0, 47, 93
1, 431393, Note_on_c, 0, 35, 64
1, 431395, Note_off_c, 0, 47, 71
1, 431403, Note_on_c, 0, 37, 49
1, 431419, Note_on_c, 0, 40, 42
1, 431420, Note_off_c, 0, 35, 58
1, 431442, Note_off_c, 0, 37, 49
1, 431453, Note_off_c, 0, 40, 50
1, 431483, Note_on_c, 0, 46, 91
1, 431495, Note_on_c, 0, 34, 75
1, 431521, Note_off_c, 0, 34, 64
1, 431525, Note_off_c, 0, 46, 65
1, 431560, Note_on_c, 0, 69, 104
1, 431561, Note_on_c, 0, 81, 100
1, 431562, Note_on_c, 0, 76, 95
1, 431585, Note_on_c, 0, 33, 94
1, 431588, Note_on_c, 0, 45, 83
1, 431612, Note_off_c, 0, 45, 67
1, 431632, Note_off_c, 0, 33, 64
1, 431632, Note_off_c, 0, 81, 61
1, 431632, Note_off_c, 0, 69, 60
1, 431644, Control_c, 0, 64, 69
1, 431659, Control_c, 0, 64, 0
1, 431662, Note_off_c, 0, 76, 64
1, 431701, Note_on_c, 0, 69, 103
1, 431701, Note_on_c, 0, 81, 101
1, 431704, Note_on_c, 0, 74, 92
1, 431709, Note_on_c, 0, 78, 93
1, 431713, Note_on_c, 0, 38, 102
1, 431718, Control_c, 0, 64, 73
1, 431722, Note_on_c, 0, 26, 77
1, 431725, Note_on_c, 0, 28, 80
1, 431733, Control_c, 0, 64, 127
1, 431747, Note_off_c, 0, 38, 61
1, 431748, Note_off_c, 0, 28, 65
1, 431752, Note_off_c, 0, 26, 63
1, 431887, Note_on_c, 0, 45, 80
1, 431889, Note_on_c, 0, 33, 73
1, 431904, Note_off_c, 0, 45, 67
1, 431910, Note_off_c, 0, 33, 64
1, 431915, Note_on_c, 0, 40, 33
1, 431953, Note_off_c, 0, 40, 46
1, 431965, Poly_aftertouch_c, 0, 37, 127
1, 431976, Note_on_c, 0, 46, 95
1, 431979, Note_on_c, 0, 34, 82
1, 432012, Note_off_c, 0, 34, 65
1, 432018, Note_off_c, 0, 46, 63
1, 432039, Poly_aftertouch_c, 0, 37, 0
1, 432087, Note_on_c, 0, 47, 93
1, 432090, Note_on_c, 0, 35, 91
1, 432114, Note_off_c, 0, 47, 65
1, 432120, Note_off_c, 0, 35, 67
1, 432202, Note_on_c, 0, 36, 91
1, 432211, Note_on_c, 0, 48, 75
1, 432238, Note_off_c, 0, 48, 68
1, 432252, Note_off_c, 0, 36, 61
1, 432303, Note_on_c, 0, 37, 85
1, 432309, Note_on_c, 0, 49, 84
1, 432349, Control_c, 0, 64, 78
1, 432351, Note_off_c, 0, 49, 59
1, 432358, Note_off_c, 0, 37, 63
1, 432364, Control_c, 0, 64, 28
1, 432374, Note_off_c, 0, 81, 59
1, 432379, Control_c, 0, 64, 0
1, 432390, Note_off_c, 0, 74, 62
1, 432396, Note_off_c, 0, 78, 60
1, 432407, Note_off_c, 0, 69, 63
1, 432408, Control_c, 0, 64, 57
1, 432409, Note_on_c, 0, 38, 94
1, 432413, Note_on_c, 0, 50, 89
1, 432423, Control_c, 0, 64, 79
1, 432438, Control_c, 0, 64, 127
1, 432439, Note_off_c, 0, 50, 64
1, 432473, Note_off_c, 0, 38, 62
1, 432522, Note_on_c, 0, 37, 78
1, 432524, Note_on_c, 0, 49, 78
1, 432595, Note_off_c, 0, 37, 61
1, 432597, Note_off_c, 0, 49, 61
1, 432649, Note_on_c, 0, 36, 68
1, 432658, Note_on_c, 0, 48, 78
1, 432690, Note_off_c, 0, 48, 66
1, 432699, Note_off_c, 0, 36, 61
1, 432760, Note_on_c, 0, 69, 86
1, 432763, Note_on_c, 0, 62, 81
1, 432764, Note_on_c, 0, 66, 88
1, 432775, Note_on_c, 0, 47, 90
1, 432779, Note_on_c, 0, 35, 82
1, 432798, Note_off_c, 0, 47, 67
1, 432798, Note_off_c, 0, 62, 59
1, 432807, Note_off_c, 0, 35, 64
1, 432828, Note_off_c, 0, 69, 64
1, 432837, Note_off_c, 0, 66, 61
1, 432852, Poly_aftertouch_c, 0, 37, 127
1, 432863, Note_on_c, 0, 74, 90
1, 432869, Note_on_c, 0, 46, 89
1, 432883, Note_on_c, 0, 34, 74
1, 432907, Note_off_c, 0, 74, 65
1, 432912, Note_off_c, 0, 34, 63
1, 432920, Note_off_c, 0, 46, 64
1, 432938, Poly_aftertouch_c, 0, 37, 0
1, 432968, Note_on_c, 0, 78, 101
1, 432973, Note_on_c, 0, 33, 81
1, 432974, Note_on_c, 0, 45, 55
1, 432976, Note_on_c, 0, 69, 79
1, 433002, Note_off_c, 0, 45, 54
1, 433005, Note_off_c, 0, 69, 66
1, 433010, Note_off_c, 0, 33, 66
1, 433016, Note_off_c, 0, 78, 59
1, 433039, Control_c, 0, 64, 74
1, 433054, Control_c, 0, 64, 0
1, 433075, Note_on_c, 0, 81, 98
1, 433079, Note_on_c, 0, 69, 105
1, 433083, Note_on_c, 0, 26, 92
1, 433083, Note_on_c, 0, 38, 93
1, 433083, Note_on_c, 0, 74, 92
1, 433093, Note_on_c, 0, 77, 81
1, 433098, Control_c, 0, 64, 50
1, 433113, Control_c, 0, 64, 90
1, 433117, Note_off_c, 0, 26, 61
1, 433123, Note_off_c, 0, 38, 63
1, 433128, Control_c, 0, 64, 127
1, 433171, Note_off_c, 0, 77, 56
1, 433215, Note_on_c, 0, 45, 85
1, 433218, Note_on_c, 0, 35, 84
1, 433236, Note_off_c, 0, 45, 67
1, 433245, Note_off_c, 0, 35, 65
1, 433320, Note_on_c, 0, 46, 94
1, 433326, Note_on_c, 0, 34, 80
1, 433359, Note_off_c, 0, 46, 65
1, 433361, Note_off_c, 0, 34, 64
1, 433439, Note_on_c, 0, 35, 85
1, 433454, Note_on_c, 0, 47, 55
1, 433460, Note_on_c, 0, 45, 59
1, 433463, Note_off_c, 0, 35, 70
1, 433477, Note_off_c, 0, 47, 60
1, 433486, Note_off_c, 0, 45, 59
1, 433541, Note_off_c, 0, 69, 49
1, 433558, Note_on_c, 0, 36, 93
1, 433572, Note_on_c, 0, 48, 68
1, 433582, Note_off_c, 0, 74, 55
1, 433590, Note_off_c, 0, 48, 65
1, 433605, Note_off_c, 0, 81, 45
1, 433648, Note_off_c, 0, 36, 60
1, 433650, Note_on_c, 0, 37, 85
1, 433656, Note_on_c, 0, 49, 86
1, 433656, Poly_aftertouch_c, 0, 41, 127
1, 433692, Poly_aftertouch_c, 0, 41, 0
1, 433707, Note_off_c, 0, 37, 63
1, 433709, Note_off_c, 0, 49, 62
1, 433743, Control_c, 0, 64, 98
1, 433758, Note_on_c, 0, 69, 103
1, 433758, Control_c, 0, 64, 63
1, 433760, Note_on_c, 0, 81, 105
1, 433762, Note_on_c, 0, 76, 103
1, 433770, Note_on_c, 0, 38, 89
1, 433770, Note_on_c, 0, 50, 85
1, 433773, Control_c, 0, 64, 0
1, 433800, Note_off_c, 0, 50, 64
1, 433817, Control_c, 0, 64, 62
1, 433829, Note_off_c, 0, 38, 61
1, 433831, Control_c, 0, 64, 81
1, 433846, Control_c, 0, 64, 127
1, 433883, Note_on_c, 0, 37, 84
1, 433883, Note_on_c, 0, 49, 87
1, 433940, Note_off_c, 0, 49, 61
1, 433942, Note_off_c, 0, 37, 61
1, 433999, Note_on_c, 0, 48, 89
1, 434004, Note_on_c, 0, 36, 83
1, 434039, Note_off_c, 0, 36, 62
1, 434044, Note_off_c, 0, 48, 64
1, 434045, Note_off_c, 0, 69, 56
1, 434065, Note_off_c, 0, 81, 55
1, 434068, Note_off_c, 0, 76, 57
1, 434126, Note_on_c, 0, 47, 93
1, 434136, Note_on_c, 0, 35, 76
1, 434148, Note_on_c, 0, 37, 62
1, 434148, Note_off_c, 0, 47, 65
1, 434157, Note_off_c, 0, 35, 62
1, 434165, Note_on_c, 0, 40, 48
1, 434177, Note_off_c, 0, 37, 63
1, 434196, Note_off_c, 0, 40, 52
1, 434235, Note_on_c, 0, 46, 98
1, 434247, Note_on_c, 0, 34, 80
1, 434277, Note_off_c, 0, 34, 63
1, 434284, Note_on_c, 0, 36, 27
1, 434286, Note_off_c, 0, 46, 64
1, 434319, Note_off_c, 0, 36, 50
1, 434348, Note_on_c, 0, 76, 106
1, 434350, Note_on_c, 0, 69, 106
1, 434351, Note_on_c, 0, 45, 99
1, 434351, Note_on_c, 0, 81, 105
1, 434352, Note_on_c, 0, 33, 95
1, 434393, Note_off_c, 0, 33, 66
1, 434394, Note_off_c, 0, 45, 65
1, 434402, Control_c, 0, 64, 99
1, 434417, Control_c, 0, 64, 65
1, 434426, Note_off_c, 0, 81, 61
1, 434426, Note_off_c, 0, 69, 60
1, 434432, Control_c, 0, 64, 0
1, 434443, Note_off_c, 0, 76, 68
1, 434479, Note_on_c, 0, 81, 97
1, 434480, Note_on_c, 0, 69, 95
1, 434481, Note_on_c, 0, 74, 99
1, 434482, Note_on_c, 0, 50, 99
1, 434486, Note_on_c, 0, 38, 96
1, 434488, Note_on_c, 0, 78, 95
1, 434491, Control_c, 0, 64, 66
1, 434506, Control_c, 0, 64, 127
1, 434512, Note_off_c, 0, 38, 65
1, 434513, Note_on_c, 0, 44, 51
1, 434514, Note_off_c, 0, 50, 63
1, 434515, Note_on_c, 0, 42, 50
1, 434541, Note_off_c, 0, 44, 59
1, 434548, Note_off_c, 0, 42, 54
1, 434585, Note_off_c, 0, 69, 59
1, 434593, Note_on_c, 0, 49, 95
1, 434603, Note_on_c, 0, 37, 80
1, 434609, Note_off_c, 0, 81, 57
1, 434628, Note_off_c, 0, 78, 56
1, 434640, Note_off_c, 0, 37, 63
1, 434646, Note_off_c, 0, 49, 61
1, 434675, Poly_aftertouch_c, 0, 39, 127
1, 434715, Note_on_c, 0, 48, 90
1, 434722, Note_on_c, 0, 36, 82
1, 434724, Poly_aftertouch_c, 0, 39, 0
1, 434752, Note_off_c, 0, 36, 64
1, 434759, Note_off_c, 0, 48, 65
1, 434793, Note_off_c, 0, 74, 62
1, 434848, Note_on_c, 0, 81, 100
1, 434849, Note_on_c, 0, 69, 100
1, 434850, Note_on_c, 0, 47, 100
1, 434853, Note_on_c, 0, 76, 97
1, 434854, Note_on_c, 0, 35, 89
1, 434879, Note_off_c, 0, 35, 70
1, 434881, Note_off_c, 0, 47, 63
1, 434945, Poly_aftertouch_c, 0, 40, 0
1, 434956, Note_on_c, 0, 46, 94
1, 434962, Note_on_c, 0, 34, 88
1, 434976, Poly_aftertouch_c, 0, 40, 0
1, 434977, Note_off_c, 0, 81, 54
1, 434981, Note_off_c, 0, 69, 58
1, 434987, Note_off_c, 0, 34, 66
1, 435004, Note_off_c, 0, 46, 63
1, 435025, Note_off_c, 0, 76, 59
1, 435069, Note_on_c, 0, 45, 91
1, 435073, Note_on_c, 0, 33, 89
1, 435084, Note_on_c, 0, 34, 24
1, 435102, Note_off_c, 0, 33, 68
1, 435105, Note_off_c, 0, 34, 65
1, 435111, Note_off_c, 0, 45, 65
1, 435166, Control_c, 0, 64, 74
1, 435176, Note_on_c, 0, 69, 102
1, 435178, Note_on_c, 0, 81, 105
1, 435180, Note_on_c, 0, 74, 102
1, 435181, Control_c, 0, 64, 30
1, 435183, Note_on_c, 0, 78, 92
1, 435187, Note_on_c, 0, 50, 96
1, 435192, Note_on_c, 0, 38, 87
1, 435196, Control_c, 0, 64, 0
1, 435210, Control_c, 0, 64, 65
1, 435215, Note_off_c, 0, 38, 68
1, 435215, Note_on_c, 0, 44, 56
1, 435220, Note_off_c, 0, 50, 61
1, 435225, Control_c, 0, 64, 127
1, 435247, Note_off_c, 0, 44, 64
1, 435274, Poly_aftertouch_c, 0, 42, 127
1, 435287, Note_on_c, 0, 49, 104
1, 435296, Note_on_c, 0, 37, 84
1, 435303, Note_on_c, 0, 42, 5
1, 435331, Note_on_c, 0, 39, 21
1, 435338, Note_off_c, 0, 37, 58
1, 435346, Note_off_c, 0, 81, 53
1, 435347, Note_off_c, 0, 49, 62
1, 435349, Note_off_c, 0, 69, 60
1, 435366, Note_off_c, 0, 42, 48
1, 435367, Note_off_c, 0, 78, 54
1, 435369, Note_off_c, 0, 39, 51
1, 435400, Note_on_c, 0, 48, 94
1, 435403, Note_on_c, 0, 36, 90
1, 435441, Note_off_c, 0, 36, 62
1, 435442, Note_off_c, 0, 48, 66
1, 435469, Note_off_c, 0, 74, 62
1, 435519, Note_on_c, 0, 47, 104
1, 435520, Note_on_c, 0, 81, 110
1, 435520, Note_on_c, 0, 69, 103
1, 435522, Note_on_c, 0, 76, 98
1, 435524, Note_on_c, 0, 35, 94
1, 435547, Note_off_c, 0, 35, 69
1, 435559, Note_off_c, 0, 47, 64
1, 435567, Note_on_c, 0, 39, 44
1, 435572, Note_on_c, 0, 37, 29
1, 435603, Note_off_c, 0, 39, 50
1, 435606, Note_off_c, 0, 37, 53
1, 435633, Note_on_c, 0, 46, 101
1, 435643, Note_off_c, 0, 69, 54
1, 435644, Note_on_c, 0, 34, 88
1, 435669, Note_off_c, 0, 81, 52
1, 435670, Note_off_c, 0, 34, 64
1, 435684, Note_off_c, 0, 46, 59
1, 435747, Note_on_c, 0, 45, 91
1, 435750, Note_on_c, 0, 33, 91
1, 435790, Note_off_c, 0, 33, 63
1, 435791, Note_off_c, 0, 45, 65
1, 435809, Note_off_c, 0, 76, 62
1, 435810, Control_c, 0, 64, 96
1, 435825, Control_c, 0, 64, 62
1, 435840, Control_c, 0, 64, 0
1, 435847, Note_on_c, 0, 69, 102
1, 435849, Note_on_c, 0, 81, 100
1, 435849, Poly_aftertouch_c, 0, 35, 0
1, 435852, Note_on_c, 0, 77, 99
1, 435859, Note_on_c, 0, 49, 106
1, 435865, Note_on_c, 0, 37, 90
1, 435870, Control_c, 0, 64, 81
1, 435886, Control_c, 0, 64, 127
1, 435892, Note_off_c, 0, 37, 67
1, 435901, Note_off_c, 0, 49, 62
1, 435929, Note_off_c, 0, 69, 61
1, 435937, Note_on_c, 0, 39, 3
1, 435968, Note_off_c, 0, 81, 56
1, 435971, Note_on_c, 0, 48, 92
1, 435975, Note_on_c, 0, 36, 84
1, 435979, Note_off_c, 0, 39, 0
1, 435979, Note_on_c, 0, 39, 17
1, 436011, Note_off_c, 0, 48, 67
1, 436012, Note_off_c, 0, 36, 62
1, 436022, Note_off_c, 0, 39, 43
1, 436090, Note_on_c, 0, 47, 95
1, 436093, Note_on_c, 0, 35, 90
1, 436108, Note_on_c, 0, 45, 56
1, 436116, Note_off_c, 0, 35, 67
1, 436118, Note_off_c, 0, 47, 65
1, 436134, Note_off_c, 0, 45, 62
1, 436137, Note_on_c, 0, 39, 7
1, 436179, Note_off_c, 0, 39, 48
1, 436182, Note_off_c, 0, 77, 58
1, 436196, Note_on_c, 0, 82, 99
1, 436199, Note_on_c, 0, 49, 105
1, 436199, Note_on_c, 0, 73, 96
1, 436201, Note_on_c, 0, 70, 93
1, 436211, Note_on_c, 0, 38, 83
1, 436235, Note_on_c, 0, 42, 43
1, 436236, Note_off_c, 0, 42, 127
1, 436236, Note_off_c, 0, 49, 62
1, 436237, Note_off_c, 0, 38, 67
1, 436243, Note_off_c, 0, 70, 59
1, 436274, Poly_aftertouch_c, 0, 40, 0
1, 436332, Poly_aftertouch_c, 0, 40, 0
1, 436334, Note_on_c, 0, 46, 104
1, 436355, Note_off_c, 0, 82, 49
1, 436359, Note_on_c, 0, 33, 63
1, 436363, Note_off_c, 0, 46, 63
1, 436364, Note_on_c, 0, 34, 41
1, 436384, Note_off_c, 0, 33, 62
1, 436390, Note_off_c, 0, 34, 61
1, 436393, Note_on_c, 0, 45, 9
1, 436435, Note_off_c, 0, 45, 0
1, 436444, Note_on_c, 0, 45, 83
1, 436448, Note_on_c, 0, 33, 90
1, 436475, Note_on_c, 0, 34, 51
1, 436480, Note_off_c, 0, 33, 69
1, 436485, Note_off_c, 0, 45, 66
1, 436506, Note_off_c, 0, 73, 60
1, 436509, Note_off_c, 0, 34, 52
1, 436542, Note_on_c, 0, 77, 97
1, 436542, Note_on_c, 0, 69, 104
1, 436543, Note_on_c, 0, 81, 100
1, 436554, Note_on_c, 0, 49, 107
1, 436563, Note_on_c, 0, 37, 88
1, 436586, Note_off_c, 0, 37, 66
1, 436588, Note_on_c, 0, 39, 49
1, 436593, Note_off_c, 0, 49, 62
1, 436618, Note_off_c, 0, 39, 56
1, 436634, Note_off_c, 0, 69, 62
1, 436640, Note_off_c, 0, 81, 60
1, 436677, Note_on_c, 0, 44, 100
1, 436685, Note_on_c, 0, 32, 91
1, 436694, Note_on_c, 0, 37, 3
1, 436696, Note_off_c, 0, 37, 59
1, 436701, Note_on_c, 0, 34, 65
1, 436712, Note_off_c, 0, 32, 67
1, 436718, Note_off_c, 0, 44, 66
1, 436724, Note_off_c, 0, 34, 61
1, 436801, Note_on_c, 0, 43, 106
1, 436808, Note_on_c, 0, 31, 92
1, 436833, Note_off_c, 0, 31, 70
1, 436839, Note_off_c, 0, 43, 66
1, 436844, Note_on_c, 0, 34, 12
1, 436879, Note_off_c, 0, 77, 59
1, 436897, Note_off_c, 0, 34, 48
1, 436915, Note_on_c, 0, 82, 102
1, 436917, Note_on_c, 0, 70, 100
1, 436917, Note_on_c, 0, 73, 98
1, 436921, Note_on_c, 0, 49, 107
1, 436928, Note_on_c, 0, 37, 93
1, 436954, Note_off_c, 0, 49, 64
1, 436956, Note_on_c, 0, 39, 43
1, 436959, Note_off_c, 0, 37, 62
1, 436959, Note_off_c, 0, 70, 58
1, 436982, Note_off_c, 0, 73, 56
1, 436982, Note_off_c, 0, 39, 61
1, 437055, Note_off_c, 0, 82, 58
1, 437076, Note_on_c, 0, 42, 102
1, 437084, Note_on_c, 0, 30, 90
1, 437100, Note_on_c, 0, 32, 63
1, 437112, Note_off_c, 0, 30, 67
1, 437115, Note_on_c, 0, 34, 38
1, 437116, Note_off_c, 0, 34, 127
1, 437127, Note_off_c, 0, 32, 59
1, 437130, Note_off_c, 0, 42, 61
1, 437214, Note_on_c, 0, 41, 99
1, 437222, Note_on_c, 0, 29, 92
1, 437253, Note_off_c, 0, 29, 65
1, 437257, Note_off_c, 0, 41, 64
1, 437266, Control_c, 0, 64, 81
1, 437281, Control_c, 0, 64, 0
1, 437315, Note_on_c, 0, 73, 114
1, 437318, Note_on_c, 0, 85, 98
1, 437323, Note_on_c, 0, 79, 100
1, 437323, Note_on_c, 0, 82, 98
1, 437330, Note_on_c, 0, 40, 103
1, 437334, Note_on_c, 0, 28, 97
1, 437340, Control_c, 0, 64, 76
1, 437355, Control_c, 0, 64, 127
1, 437365, Note_off_c, 0, 85, 66
1, 437368, Note_off_c, 0, 28, 66
1, 437378, Note_off_c, 0, 40, 68
1, 437393, Note_off_c, 0, 79, 66
1, 437398, Note_off_c, 0, 82, 67
1, 437415, Note_off_c, 0, 73, 59
1, 437456, Poly_aftertouch_c, 0, 29, 0
1, 437740, Control_c, 0, 64, 87
1, 437755, Control_c, 0, 64, 45
1, 437770, Control_c, 0, 64, 0
1, 438088, Control_c, 0, 64, 83
1, 438103, Note_on_c, 0, 52, 109
1, 438103, Control_c, 0, 64, 127
1, 438104, Note_on_c, 0, 64, 102
1, 438107, Note_on_c, 0, 40, 95
1, 438111, Note_on_c, 0, 28, 94
1, 438139, Note_off_c, 0, 28, 66
1, 438146, Note_off_c, 0, 40, 64
1, 438160, Note_off_c, 0, 52, 64
1, 438171, Note_off_c, 0, 64, 66
1, 438248, Note_on_c, 0, 65, 102
1, 438249, Note_on_c, 0, 53, 97
1, 438256, Note_on_c, 0, 29, 79
1, 438258, Note_on_c, 0, 41, 85
1, 438290, Note_off_c, 0, 29, 62
1, 438290, Note_off_c, 0, 53, 67
1, 438291, Note_off_c, 0, 41, 67
1, 438292, Note_off_c, 0, 65, 69
1, 438364, Note_on_c, 0, 67, 103
1, 438371, Note_on_c, 0, 55, 90
1, 438373, Note_on_c, 0, 31, 86
1, 438377, Note_on_c, 0, 43, 81
1, 438392, Note_off_c, 0, 55, 68
1, 438397, Note_off_c, 0, 31, 67
1, 438399, Note_off_c, 0, 67, 68
1, 438402, Note_off_c, 0, 43, 64
1, 438414, Note_on_c, 0, 53, 3
1, 438431, Note_off_c, 0, 53, 61
1, 438465, Note_on_c, 0, 68, 106
1, 438470, Note_on_c, 0, 56, 93
1, 438478, Note_on_c, 0, 44, 89
1, 438480, Note_on_c, 0, 32, 83
1, 438500, Note_off_c, 0, 56, 62
1, 438506, Note_off_c, 0, 68, 62
1, 438507, Note_off_c, 0, 44, 62
1, 438508, Note_off_c, 0, 32, 64
1, 438581, Note_on_c, 0, 70, 101
1, 438584, Note_on_c, 0, 58, 82
1, 438589, Note_on_c, 0, 34, 77
1, 438589, Note_on_c, 0, 46, 89
1, 438618, Note_off_c, 0, 34, 67
1, 438623, Note_off_c, 0, 58, 66
1, 438627, Note_off_c, 0, 46, 58
1, 438629, Note_off_c, 0, 70, 63
1, 438654, Note_on_c, 0, 71, 3
1, 438689, Note_on_c, 0, 72, 103
1, 438691, Note_on_c, 0, 60, 93
1, 438696, Note_on_c, 0, 36, 87
1, 438700, Note_off_c, 0, 71, 32
1, 438703, Control_c, 0, 64, 104
1, 438718, Control_c, 0, 64, 62
1, 438724, Note_off_c, 0, 60, 63
1, 438726, Note_on_c, 0, 48, 44
1, 438731, Note_off_c, 0, 72, 69
1, 438733, Control_c, 0, 64, 0
1, 438738, Note_off_c, 0, 36, 61
1, 438754, Note_off_c, 0, 48, 36
1, 438779, Note_on_c, 0, 73, 106
1, 438781, Note_on_c, 0, 61, 101
1, 438787, Note_on_c, 0, 49, 97
1, 438793, Note_on_c, 0, 37, 92
1, 438793, Control_c, 0, 64, 60
1, 438795, Note_on_c, 0, 74, 78
1, 438807, Control_c, 0, 64, 127
1, 438810, Note_off_c, 0, 74, 71
1, 438816, Note_off_c, 0, 73, 72
1, 438821, Note_off_c, 0, 61, 65
1, 438824, Note_off_c, 0, 49, 60
1, 438831, Note_off_c, 0, 37, 61
1, 438983, Note_on_c, 0, 31, 67
1, 438994, Note_on_c, 0, 67, 68
1, 439007, Note_on_c, 0, 55, 40
1, 439014, Note_off_c, 0, 31, 64
1, 439021, Note_off_c, 0, 67, 65
1, 439022, Note_on_c, 0, 37, 16
1, 439038, Note_off_c, 0, 55, 50
1, 439042, Note_off_c, 0, 37, 63
1, 439099, Note_on_c, 0, 68, 77
1, 439117, Note_on_c, 0, 56, 53
1, 439118, Note_on_c, 0, 32, 63
1, 439121, Note_on_c, 0, 44, 59
1, 439137, Note_off_c, 0, 68, 60
1, 439138, Note_off_c, 0, 56, 60
1, 439143, Note_off_c, 0, 44, 60
1, 439153, Note_off_c, 0, 32, 57
1, 439218, Note_on_c, 0, 70, 86
1, 439227, Note_on_c, 0, 46, 68
1, 439231, Note_on_c, 0, 58, 64
1, 439243, Note_on_c, 0, 34, 51
1, 439258, Note_off_c, 0, 58, 65
1, 439259, Note_off_c, 0, 46, 65
1, 439270, Note_off_c, 0, 70, 60
1, 439276, Note_off_c, 0, 34, 53
1, 439332, Note_on_c, 0, 72, 86
1, 439340, Note_on_c, 0, 60, 74
1, 439358, Note_on_c, 0, 36, 54
1, 439363, Note_off_c, 0, 60, 68
1, 439379, Note_off_c, 0, 72, 66
1, 439383, Note_off_c, 0, 36, 56
1, 439438, Note_on_c, 0, 73, 96
1, 439442, Note_on_c, 0, 49, 78
1, 439450, Note_on_c, 0, 37, 63
1, 439450, Note_on_c, 0, 61, 78
1, 439469, Note_off_c, 0, 61, 68
1, 439475, Note_off_c, 0, 49, 57
1, 439478, Note_off_c, 0, 37, 62
1, 439494, Note_off_c, 0, 73, 62
1, 439548, Note_on_c, 0, 76, 93
1, 439553, Note_on_c, 0, 64, 83
1, 439571, Note_on_c, 0, 40, 69
1, 439578, Note_off_c, 0, 64, 67
1, 439585, Note_off_c, 0, 76, 69
1, 439585, Note_on_c, 0, 52, 52
1, 439594, Note_off_c, 0, 40, 62
1, 439610, Note_off_c, 0, 52, 59
1, 439648, Note_on_c, 0, 77, 103
1, 439654, Note_on_c, 0, 65, 90
1, 439684, Note_off_c, 0, 77, 66
1, 439686, Note_off_c, 0, 65, 64
1, 439690, Note_on_c, 0, 53, 50
1, 439701, Note_on_c, 0, 41, 33
1, 439716, Note_off_c, 0, 53, 59
1, 439734, Note_off_c, 0, 41, 55
1, 439768, Note_on_c, 0, 70, 94
1, 439773, Note_on_c, 0, 58, 96
1, 439778, Note_on_c, 0, 46, 90
1, 439779, Note_on_c, 0, 34, 87
1, 439794, Control_c, 0, 64, 111
1, 439794, Note_off_c, 0, 58, 70
1, 439803, Note_off_c, 0, 46, 64
1, 439806, Note_off_c, 0, 34, 66
1, 439807, Control_c, 0, 64, 74
1, 439821, Note_off_c, 0, 70, 65
1, 439822, Control_c, 0, 64, 64
1, 439836, Note_on_c, 0, 71, 3
1, 439837, Control_c, 0, 64, 67
1, 439851, Control_c, 0, 64, 80
1, 439867, Control_c, 0, 64, 127
1, 439875, Note_off_c, 0, 71, 28
1, 439876, Note_on_c, 0, 72, 96
1, 439881, Note_on_c, 0, 60, 91
1, 439890, Note_on_c, 0, 36, 85
1, 439902, Note_on_c, 0, 48, 67
1, 439906, Note_off_c, 0, 60, 65
1, 439914, Note_off_c, 0, 72, 66
1, 439916, Note_off_c, 0, 36, 64
1, 439922, Note_off_c, 0, 48, 63
1, 439976, Note_on_c, 0, 73, 95
1, 439981, Note_on_c, 0, 61, 84
1, 439991, Note_on_c, 0, 37, 76
1, 439994, Note_on_c, 0, 49, 74
1, 440012, Note_off_c, 0, 61, 61
1, 440021, Note_off_c, 0, 73, 63
1, 440030, Note_off_c, 0, 49, 59
1, 440035, Note_off_c, 0, 37, 57
1, 440091, Note_on_c, 0, 75, 99
1, 440097, Note_on_c, 0, 63, 86
1, 440113, Note_on_c, 0, 39, 66
1, 440121, Note_on_c, 0, 51, 62
1, 440130, Note_off_c, 0, 63, 61
1, 440148, Note_off_c, 0, 39, 65
1, 440148, Note_off_c, 0, 51, 64
1, 440149, Note_off_c, 0, 75, 60
1, 440197, Note_on_c, 0, 77, 100
1, 440200, Note_on_c, 0, 65, 87
1, 440223, Note_on_c, 0, 53, 76
1, 440225, Note_on_c, 0, 41, 69
1, 440238, Note_off_c, 0, 65, 63
1, 440241, Note_off_c, 0, 77, 66
1, 440253, Note_off_c, 0, 53, 67
1, 440255, Note_off_c, 0, 41, 66
1, 440304, Note_on_c, 0, 79, 96
1, 440308, Note_on_c, 0, 67, 88
1, 440336, Note_off_c, 0, 67, 63
1, 440345, Note_off_c, 0, 79, 67
1, 440346, Note_on_c, 0, 55, 59
1, 440366, Note_off_c, 0, 55, 61
1, 440369, Note_on_c, 0, 50, 47
1, 440399, Note_off_c, 0, 50, 54
1, 440402, Note_on_c, 0, 80, 99
1, 440403, Note_on_c, 0, 68, 98
1, 440424, Note_on_c, 0, 56, 73
1, 440432, Poly_aftertouch_c, 0, 43, 0
1, 440437, Note_off_c, 0, 80, 67
1, 440438, Note_on_c, 0, 44, 59
1, 440444, Note_off_c, 0, 68, 66
1, 440449, Note_off_c, 0, 56, 65
1, 440464, Note_off_c, 0, 44, 57
1, 440547, Note_on_c, 0, 76, 99
1, 440554, Note_on_c, 0, 64, 88
1, 440556, Control_c, 0, 64, 94
1, 440560, Note_on_c, 0, 40, 76
1, 440566, Note_on_c, 0, 52, 71
1, 440571, Control_c, 0, 64, 79
1, 440578, Note_off_c, 0, 64, 66
1, 440586, Control_c, 0, 64, 77
1, 440591, Note_off_c, 0, 76, 67
1, 440599, Note_off_c, 0, 40, 59
1, 440599, Note_off_c, 0, 52, 65
1, 440600, Control_c, 0, 64, 85
1, 440615, Control_c, 0, 64, 102
1, 440630, Control_c, 0, 64, 127
1, 440662, Note_on_c, 0, 77, 97
1, 440670, Note_on_c, 0, 65, 88
1, 440691, Note_off_c, 0, 65, 69
1, 440693, Note_on_c, 0, 41, 73
1, 440698, Note_on_c, 0, 53, 69
1, 440702, Note_off_c, 0, 77, 63
1, 440718, Note_off_c, 0, 41, 68
1, 440725, Note_off_c, 0, 53, 66
1, 440766, Note_on_c, 0, 79, 101
1, 440771, Note_on_c, 0, 67, 88
1, 440803, Note_on_c, 0, 43, 77
1, 440805, Note_off_c, 0, 67, 65
1, 440817, Note_off_c, 0, 79, 67
1, 440826, Note_on_c, 0, 55, 38
1, 440831, Note_off_c, 0, 43, 62
1, 440851, Note_off_c, 0, 55, 55
1, 440874, Note_on_c, 0, 80, 103
1, 440879, Note_on_c, 0, 68, 95
1, 440894, Note_on_c, 0, 44, 83
1, 440896, Note_on_c, 0, 56, 83
1, 440918, Note_off_c, 0, 68, 62
1, 440923, Note_off_c, 0, 56, 64
1, 440924, Note_off_c, 0, 80, 62
1, 440927, Note_off_c, 0, 44, 59
1, 440977, Note_on_c, 0, 82, 103
1, 440980, Note_on_c, 0, 70, 91
1, 440992, Note_on_c, 0, 46, 83
1, 440995, Note_on_c, 0, 58, 79
1, 441018, Note_off_c, 0, 70, 67
1, 441021, Note_off_c, 0, 58, 69
1, 441025, Note_off_c, 0, 46, 62
1, 441025, Note_off_c, 0, 82, 64
1, 441088, Note_on_c, 0, 72, 98
1, 441088, Note_on_c, 0, 84, 99
1, 441097, Note_on_c, 0, 48, 83
1, 441121, Note_off_c, 0, 72, 69
1, 441127, Note_off_c, 0, 84, 70
1, 441129, Note_on_c, 0, 60, 27
1, 441136, Note_off_c, 0, 48, 55
1, 441141, Control_c, 0, 64, 86
1, 441156, Control_c, 0, 64, 52
1, 441160, Note_off_c, 0, 60, 48
1, 441171, Control_c, 0, 64, 0
1, 441177, Note_on_c, 0, 85, 96
1, 441183, Note_on_c, 0, 73, 96
1, 441190, Note_on_c, 0, 49, 83
1, 441190, Note_on_c, 0, 61, 79
1, 441201, Control_c, 0, 64, 43
1, 441207, Note_on_c, 0, 86, 53
1, 441208, Note_off_c, 0, 86, 127
1, 441211, Note_off_c, 0, 61, 67
1, 441212, Note_off_c, 0, 85, 70
1, 441216, Control_c, 0, 64, 68
1, 441218, Note_off_c, 0, 73, 64
1, 441227, Note_off_c, 0, 49, 59
1, 441231, Control_c, 0, 64, 95
1, 441246, Control_c, 0, 64, 127
1, 441307, Note_on_c, 0, 79, 93
1, 441310, Note_on_c, 0, 67, 87
1, 441314, Note_on_c, 0, 43, 77
1, 441329, Note_off_c, 0, 67, 69
1, 441343, Note_off_c, 0, 43, 63
1, 441347, Note_off_c, 0, 79, 65
1, 441409, Note_on_c, 0, 68, 89
1, 441409, Note_on_c, 0, 80, 95
1, 441413, Note_on_c, 0, 44, 73
1, 441422, Note_on_c, 0, 56, 70
1, 441448, Note_off_c, 0, 44, 58
1, 441449, Note_off_c, 0, 68, 63
1, 441451, Note_off_c, 0, 56, 65
1, 441456, Note_off_c, 0, 80, 61
1, 441515, Note_on_c, 0, 82, 95
1, 441523, Note_on_c, 0, 70, 83
1, 441532, Note_on_c, 0, 58, 78
1, 441534, Note_on_c, 0, 46, 72
1, 441551, Note_off_c, 0, 70, 73
1, 441564, Note_off_c, 0, 58, 70
1, 441569, Note_off_c, 0, 46, 65
1, 441577, Note_off_c, 0, 82, 61
1, 441633, Note_on_c, 0, 84, 98
1, 441636, Note_on_c, 0, 72, 86
1, 441650, Note_on_c, 0, 48, 74
1, 441660, Note_off_c, 0, 72, 68
1, 441665, Note_on_c, 0, 60, 49
1, 441674, Note_off_c, 0, 48, 66
1, 441676, Note_off_c, 0, 84, 68
1, 441690, Note_off_c, 0, 60, 55
1, 441731, Note_on_c, 0, 85, 97
1, 441738, Note_on_c, 0, 73, 81
1, 441752, Note_on_c, 0, 61, 82
1, 441753, Poly_aftertouch_c, 0, 54, 0
1, 441756, Note_on_c, 0, 86, 67
1, 441756, Note_off_c, 0, 73, 71
1, 441770, Note_off_c, 0, 86, 69
1, 441773, Note_off_c, 0, 61, 67
1, 441779, Note_on_c, 0, 51, 32
1, 441781, Note_on_c, 0, 74, 37
1, 441791, Note_off_c, 0, 85, 62
1, 441808, Note_off_c, 0, 74, 56
1, 441814, Note_off_c, 0, 51, 49
1, 441845, Note_on_c, 0, 76, 93
1, 441846, Note_on_c, 0, 88, 89
1, 441856, Note_on_c, 0, 89, 76
1, 441857, Note_off_c, 0, 89, 127
1, 441880, Note_off_c, 0, 76, 63
1, 441883, Note_off_c, 0, 88, 65
1, 441884, Note_on_c, 0, 64, 59
1, 441890, Note_on_c, 0, 52, 42
1, 441903, Note_off_c, 0, 64, 63
1, 441919, Note_off_c, 0, 52, 54
1, 441939, Note_on_c, 0, 89, 87
1, 441949, Note_on_c, 0, 77, 91
1, 441973, Note_on_c, 0, 53, 51
1, 441976, Note_off_c, 0, 89, 69
1, 441979, Note_on_c, 0, 65, 32
1, 441979, Note_off_c, 0, 77, 61
1, 441998, Note_off_c, 0, 53, 59
1, 442014, Note_off_c, 0, 65, 53
1, 442054, Control_c, 0, 64, 111
1, 442062, Note_on_c, 0, 82, 101
1, 442068, Note_on_c, 0, 70, 97
1, 442069, Control_c, 0, 64, 68
1, 442077, Note_on_c, 0, 46, 79
1, 442079, Note_on_c, 0, 58, 79
1, 442084, Control_c, 0, 64, 39
1, 442096, Note_off_c, 0, 70, 68
1, 442099, Note_off_c, 0, 58, 72
1, 442099, Control_c, 0, 64, 35
1, 442103, Note_off_c, 0, 46, 66
1, 442114, Control_c, 0, 64, 60
1, 442118, Note_off_c, 0, 82, 61
1, 442128, Control_c, 0, 64, 75
1, 442143, Control_c, 0, 64, 127
1, 442179, Note_on_c, 0, 84, 97
1, 442181, Note_on_c, 0, 72, 90
1, 442192, Note_on_c, 0, 48, 75
1, 442203, Note_off_c, 0, 72, 67
1, 442207, Note_on_c, 0, 60, 60
1, 442219, Note_off_c, 0, 84, 67
1, 442221, Note_off_c, 0, 48, 58
1, 442227, Note_off_c, 0, 60, 60
1, 442282, Note_on_c, 0, 85, 100
1, 442287, Note_on_c, 0, 73, 91
1, 442301, Note_on_c, 0, 49, 71
1, 442307, Note_on_c, 0, 61, 67
1, 442329, Note_off_c, 0, 73, 61
1, 442334, Note_off_c, 0, 49, 63
1, 442334, Note_off_c, 0, 61, 63
1, 442341, Note_off_c, 0, 85, 61
1, 442395, Note_on_c, 0, 87, 103
1, 442401, Note_on_c, 0, 75, 87
1, 442410, Note_on_c, 0, 51, 72
1, 442414, Note_on_c, 0, 63, 75
1, 442437, Note_off_c, 0, 75, 65
1, 442439, Note_off_c, 0, 63, 67
1, 442445, Note_off_c, 0, 51, 62
1, 442454, Note_off_c, 0, 87, 61
1, 442506, Note_on_c, 0, 77, 95
1, 442506, Note_on_c, 0, 89, 108
1, 442533, Note_on_c, 0, 65, 73
1, 442536, Note_on_c, 0, 53, 64
1, 442543, Note_off_c, 0, 77, 66
1, 442551, Note_off_c, 0, 89, 67
1, 442558, Note_off_c, 0, 65, 70
1, 442560, Note_off_c, 0, 53, 66
1, 442620, Note_on_c, 0, 91, 109
1, 442623, Note_on_c, 0, 79, 99
1, 442638, Note_on_c, 0, 67, 77
1, 442659, Note_off_c, 0, 79, 68
1, 442663, Note_off_c, 0, 67, 67
1, 442671, Note_off_c, 0, 91, 62
1, 442732, Poly_aftertouch_c, 0, 58, 0
1, 442736, Note_on_c, 0, 92, 105
1, 442739, Note_on_c, 0, 80, 102
1, 442746, Note_on_c, 0, 68, 81
1, 442760, Note_on_c, 0, 56, 55
1, 442761, Poly_aftertouch_c, 0, 62, 0
1, 442766, Note_off_c, 0, 92, 72
1, 442769, Note_off_c, 0, 68, 70
1, 442778, Note_off_c, 0, 80, 63
1, 442782, Note_off_c, 0, 56, 61
1, 442907, Control_c, 0, 64, 89
1, 442912, Note_on_c, 0, 88, 109
1, 442914, Note_on_c, 0, 76, 110
1, 442921, Control_c, 0, 64, 49
1, 442925, Note_on_c, 0, 64, 81
1, 442932, Note_on_c, 0, 52, 70
1, 442936, Control_c, 0, 64, 0
1, 442946, Note_on_c, 0, 87, 53
1, 442966, Note_off_c, 0, 87, 59
1, 442975, Note_off_c, 0, 76, 61
1, 442976, Note_off_c, 0, 52, 62
1, 442981, Control_c, 0, 64, 63
1, 442996, Control_c, 0, 64, 85
1, 442999, Note_off_c, 0, 88, 63
1, 443002, Note_off_c, 0, 64, 57
1, 443011, Control_c, 0, 64, 127
1, 443123, Control_c, 0, 64, 100
1, 443130, Note_on_c, 0, 89, 106
1, 443134, Note_on_c, 0, 77, 109
1, 443138, Control_c, 0, 64, 65
1, 443140, Note_on_c, 0, 65, 93
1, 443145, Note_on_c, 0, 53, 81
1, 443152, Control_c, 0, 64, 0
1, 443182, Control_c, 0, 64, 47
1, 443197, Note_off_c, 0, 53, 62
1, 443197, Control_c, 0, 64, 73
1, 443203, Note_off_c, 0, 77, 60
1, 443212, Control_c, 0, 64, 127
1, 443225, Note_off_c, 0, 89, 66
1, 443267, Note_off_c, 0, 65, 58
1, 443315, Control_c, 0, 64, 105
1, 443330, Control_c, 0, 64, 67
1, 443344, Control_c, 0, 64, 0
1, 443358, Note_on_c, 0, 91, 111
1, 443359, Note_on_c, 0, 79, 100
1, 443368, Note_on_c, 0, 55, 75
1, 443368, Note_on_c, 0, 67, 88
1, 443389, Control_c, 0, 64, 56
1, 443404, Control_c, 0, 64, 100
1, 443407, Note_off_c, 0, 79, 60
1, 443410, Note_off_c, 0, 55, 60
1, 443419, Control_c, 0, 64, 127
1, 443420, Note_off_c, 0, 67, 62
1, 443438, Note_off_c, 0, 91, 51
1, 443552, Control_c, 0, 64, 81
1, 443567, Control_c, 0, 64, 20
1, 443582, Control_c, 0, 64, 0
1, 443595, Note_on_c, 0, 92, 105
1, 443598, Note_on_c, 0, 80, 90
1, 443601, Note_on_c, 0, 68, 95
1, 443604, Note_on_c, 0, 56, 79
1, 443626, Control_c, 0, 64, 60
1, 443641, Control_c, 0, 64, 104
1, 443649, Note_off_c, 0, 56, 65
1, 443654, Note_off_c, 0, 80, 62
1, 443656, Control_c, 0, 64, 127
1, 443672, Note_off_c, 0, 68, 61
1, 443685, Note_off_c, 0, 92, 64
1, 443826, Control_c, 0, 64, 88
1, 443841, Control_c, 0, 64, 54
1, 443856, Control_c, 0, 64, 0
1, 443873, Note_on_c, 0, 70, 93
1, 443875, Note_on_c, 0, 94, 111
1, 443877, Note_on_c, 0, 58, 85
1, 443878, Note_on_c, 0, 82, 97
1, 443902, Control_c, 0, 64, 65
1, 443916, Control_c, 0, 64, 110
1, 443920, Note_off_c, 0, 82, 64
1, 443926, Note_off_c, 0, 58, 64
1, 443930, Note_off_c, 0, 94, 70
1, 443931, Control_c, 0, 64, 127
1, 443973, Note_off_c, 0, 70, 59
1, 444123, Control_c, 0, 64, 86
1, 444138, Control_c, 0, 64, 43
1, 444153, Control_c, 0, 64, 0
1, 444176, Note_on_c, 0, 96, 112
1, 444176, Note_on_c, 0, 84, 105
1, 444186, Note_on_c, 0, 60, 84
1, 444186, Note_on_c, 0, 72, 90
1, 444197, Control_c, 0, 64, 33
1, 444212, Control_c, 0, 64, 81
1, 444227, Note_off_c, 0, 60, 57
1, 444227, Control_c, 0, 64, 127
1, 444260, Note_off_c, 0, 72, 63
1, 444266, Note_off_c, 0, 84, 55
1, 444271, Note_off_c, 0, 96, 59
1, 444463, Control_c, 0, 64, 69
1, 444478, Control_c, 0, 64, 0
1, 444516, Note_on_c, 0, 61, 82
1, 444518, Note_on_c, 0, 73, 92
1, 444519, Note_on_c, 0, 97, 102
1, 444519, Note_on_c, 0, 85, 98
1, 444525, Note_on_c, 0, 96, 112
1, 444555, Note_off_c, 0, 61, 66
1, 444560, Control_c, 0, 64, 94
1, 444563, Note_off_c, 0, 96, 69
1, 444564, Note_off_c, 0, 85, 70
1, 444566, Note_on_c, 0, 95, 41
1, 444567, Note_off_c, 0, 95, 127
1, 444568, Note_off_c, 0, 73, 64
1, 444571, Note_off_c, 0, 97, 63
1, 444574, Control_c, 0, 64, 127
1, 445294, Control_c, 0, 64, 76
1, 445309, Control_c, 0, 64, 0
1, 445323, Control_c, 0, 64, 21
1, 445338, Control_c, 0, 64, 0
1, 446043, Control_c, 0, 64, 39
1, 446058, Control_c, 0, 64, 88
1, 446073, Control_c, 0, 64, 127
1, 446161, Note_on_c, 0, 72, 97
1, 446166, Note_on_c, 0, 60, 74
1, 446170, Note_on_c, 0, 48, 66
1, 446220, Note_off_c, 0, 48, 59
1, 446221, Control_c, 0, 64, 106
1, 446225, Note_off_c, 0, 60, 59
1, 446236, Control_c, 0, 64, 61
1, 446251, Control_c, 0, 64, 0
1, 446263, Note_on_c, 0, 68, 101
1, 446265, Note_on_c, 0, 80, 98
1, 446275, Note_on_c, 0, 56, 97
1, 446290, Note_off_c, 0, 72, 63
1, 446355, Control_c, 0, 64, 68
1, 446370, Control_c, 0, 64, 127
1, 446386, Note_off_c, 0, 80, 67
1, 446395, Note_off_c, 0, 56, 66
1, 446413, Note_off_c, 0, 68, 65
1, 446811, Note_on_c, 0, 48, 99
1, 446812, Note_on_c, 0, 60, 91
1, 446813, Note_on_c, 0, 29, 80
1, 446814, Note_on_c, 0, 41, 92
1, 446816, Note_on_c, 0, 32, 89
1, 446817, Note_on_c, 0, 53, 92
1, 446817, Note_on_c, 0, 56, 94
1, 446838, Note_off_c, 0, 32, 68
1, 446840, Note_on_c, 0, 36, 51
1, 446844, Note_off_c, 0, 29, 64
1, 446858, Note_off_c, 0, 48, 65
1, 446859, Note_off_c, 0, 53, 65
1, 446862, Note_off_c, 0, 41, 65
1, 446870, Note_off_c, 0, 36, 53
1, 446891, Note_off_c, 0, 56, 66
1, 446896, Note_off_c, 0, 60, 60
1, 447151, Note_on_c, 0, 67, 96
1, 447152, Note_on_c, 0, 55, 68
1, 447152, Note_on_c, 0, 79, 99
1, 447187, Note_off_c, 0, 67, 66
1, 447191, Note_off_c, 0, 79, 66
1, 447223, Note_off_c, 0, 55, 60
1, 447263, Note_on_c, 0, 53, 85
1, 447264, Note_on_c, 0, 77, 103
1, 447267, Note_on_c, 0, 65, 100
1, 447316, Note_off_c, 0, 65, 66
1, 447322, Note_off_c, 0, 77, 64
1, 447353, Note_off_c, 0, 53, 65
1, 447356, Control_c, 0, 64, 120
1, 447371, Control_c, 0, 64, 69
1, 447385, Control_c, 0, 64, 0
1, 447392, Note_on_c, 0, 52, 101
1, 447397, Note_on_c, 0, 64, 109
1, 447397, Note_on_c, 0, 76, 108
1, 447459, Control_c, 0, 64, 67
1, 447474, Control_c, 0, 64, 108
1, 447476, Note_off_c, 0, 76, 69
1, 447489, Control_c, 0, 64, 127
1, 447492, Note_off_c, 0, 52, 69
1, 447521, Note_off_c, 0, 64, 62
1, 447879, Note_on_c, 0, 60, 99
1, 447880, Note_on_c, 0, 29, 84
1, 447880, Note_on_c, 0, 48, 99
1, 447881, Note_on_c, 0, 40, 93
1, 447884, Note_on_c, 0, 52, 94
1, 447885, Note_on_c, 0, 32, 82
1, 447887, Note_on_c, 0, 56, 89
1, 447888, Note_on_c, 0, 36, 78
1, 447906, Note_off_c, 0, 32, 66
1, 447915, Note_off_c, 0, 29, 63
1, 447915, Note_off_c, 0, 36, 63
1, 447926, Note_off_c, 0, 48, 65
1, 447933, Note_off_c, 0, 52, 66
1, 447936, Note_off_c, 0, 40, 65
1, 447950, Note_off_c, 0, 60, 63
1, 447961, Note_off_c, 0, 56, 67
1, 448187, Note_on_c, 0, 75, 99
1, 448190, Note_on_c, 0, 63, 94
1, 448205, Note_on_c, 0, 51, 78
1, 448230, Note_off_c, 0, 63, 61
1, 448240, Note_off_c, 0, 75, 61
1, 448266, Note_off_c, 0, 51, 61
1, 448315, Note_on_c, 0, 73, 99
1, 448317, Note_on_c, 0, 49, 90
1, 448321, Note_on_c, 0, 61, 94
1, 448367, Note_off_c, 0, 73, 71
1, 448370, Note_off_c, 0, 61, 61
1, 448414, Note_off_c, 0, 49, 60
1, 448437, Control_c, 0, 64, 80
1, 448449, Note_on_c, 0, 48, 91
1, 448452, Control_c, 0, 64, 28
1, 448454, Note_on_c, 0, 72, 98
1, 448456, Note_on_c, 0, 60, 93
1, 448467, Control_c, 0, 64, 0
1, 448540, Control_c, 0, 64, 62
1, 448546, Note_off_c, 0, 72, 68
1, 448555, Control_c, 0, 64, 101
1, 448561, Note_off_c, 0, 48, 66
1, 448570, Control_c, 0, 64, 127
1, 448590, Note_off_c, 0, 60, 61
1, 448960, Note_on_c, 0, 29, 80
1, 448960, Note_on_c, 0, 41, 99
1, 448960, Note_on_c, 0, 48, 100
1, 448961, Note_on_c, 0, 60, 96
1, 448965, Note_on_c, 0, 32, 87
1, 448966, Note_on_c, 0, 53, 94
1, 448969, Note_on_c, 0, 56, 91
1, 448972, Note_on_c, 0, 36, 81
1, 448993, Note_off_c, 0, 32, 68
1, 448997, Note_off_c, 0, 36, 64
1, 449000, Note_off_c, 0, 29, 62
1, 449000, Note_off_c, 0, 41, 63
1, 449049, Note_off_c, 0, 53, 62
1, 449052, Note_off_c, 0, 48, 62
1, 449068, Note_off_c, 0, 60, 60
1, 449081, Note_off_c, 0, 56, 60
1, 449367, Note_on_c, 0, 41, 95
1, 449370, Note_on_c, 0, 48, 92
1, 449370, Note_on_c, 0, 60, 91
1, 449373, Note_on_c, 0, 53, 88
1, 449374, Note_on_c, 0, 29, 76
1, 449375, Note_on_c, 0, 32, 79
1, 449376, Note_on_c, 0, 56, 87
1, 449384, Note_on_c, 0, 36, 68
1, 449414, Note_off_c, 0, 36, 60
1, 449420, Note_off_c, 0, 41, 61
1, 449430, Note_off_c, 0, 29, 55
1, 449430, Note_off_c, 0, 32, 58
1, 449445, Note_off_c, 0, 60, 62
1, 449446, Note_off_c, 0, 48, 61
1, 449447, Note_off_c, 0, 53, 57
1, 449458, Note_off_c, 0, 56, 56
1, 449506, Note_on_c, 0, 41, 97
1, 449509, Note_on_c, 0, 48, 94
1, 449510, Note_on_c, 0, 29, 89
1, 449512, Note_on_c, 0, 60, 96
1, 449514, Note_on_c, 0, 53, 91
1, 449517, Note_on_c, 0, 56, 84
1, 449539, Note_off_c, 0, 29, 65
1, 449554, Note_off_c, 0, 41, 65
1, 449560, Note_off_c, 0, 48, 62
1, 449562, Note_off_c, 0, 53, 61
1, 449604, Note_off_c, 0, 60, 61
1, 449614, Note_off_c, 0, 56, 65
1, 449637, Poly_aftertouch_c, 0, 32, 0
1, 449828, Note_on_c, 0, 73, 106
1, 449831, Note_on_c, 0, 49, 88
1, 449834, Note_on_c, 0, 61, 91
1, 449873, Note_off_c, 0, 61, 61
1, 449876, Note_off_c, 0, 49, 60
1, 449919, Note_off_c, 0, 73, 54
1, 450135, Note_on_c, 0, 52, 96
1, 450137, Note_on_c, 0, 76, 109
1, 450138, Note_on_c, 0, 64, 100
1, 450143, Control_c, 0, 64, 94
1, 450158, Control_c, 0, 64, 64
1, 450173, Control_c, 0, 64, 0
1, 450336, Control_c, 0, 64, 55
1, 450351, Control_c, 0, 64, 115
1, 450357, Note_off_c, 0, 64, 61
1, 450366, Control_c, 0, 64, 127
1, 450382, Note_off_c, 0, 76, 67
1, 450383, Note_off_c, 0, 52, 0
1, 450420, Poly_aftertouch_c, 0, 52, 127
1, 450573, Note_on_c, 0, 53, 75
1, 450576, Note_on_c, 0, 77, 98
1, 450579, Note_on_c, 0, 65, 91
1, 450606, Poly_aftertouch_c, 0, 52, 0
1, 450614, Note_off_c, 0, 65, 63
1, 450628, Note_off_c, 0, 77, 63
1, 450640, Control_c, 0, 64, 97
1, 450655, Control_c, 0, 64, 43
1, 450666, Note_off_c, 0, 53, 62
1, 450670, Control_c, 0, 64, 0
1, 450706, Note_on_c, 0, 56, 95
1, 450712, Note_on_c, 0, 80, 106
1, 450713, Note_on_c, 0, 68, 101
1, 450739, Note_on_c, 0, 81, 60
1, 450748, Note_off_c, 0, 56, 68
1, 450753, Note_off_c, 0, 80, 69
1, 450758, Control_c, 0, 64, 77
1, 450760, Note_off_c, 0, 81, 45
1, 450773, Control_c, 0, 64, 127
1, 450784, Note_off_c, 0, 68, 56
1, 451251, Note_on_c, 0, 29, 83
1, 451253, Note_on_c, 0, 41, 95
1, 451256, Note_on_c, 0, 60, 92
1, 451257, Note_on_c, 0, 48, 92
1, 451259, Note_on_c, 0, 56, 90
1, 451260, Note_on_c, 0, 32, 86
1, 451260, Note_on_c, 0, 53, 96
1, 451271, Note_on_c, 0, 36, 62
1, 451290, Note_off_c, 0, 32, 67
1, 451294, Note_off_c, 0, 29, 63
1, 451302, Note_off_c, 0, 36, 58
1, 451305, Note_off_c, 0, 48, 66
1, 451310, Note_off_c, 0, 41, 65
1, 451310, Note_off_c, 0, 53, 67
1, 451328, Note_off_c, 0, 60, 63
1, 451334, Note_off_c, 0, 56, 67
1, 451607, Note_on_c, 0, 79, 107
1, 451607, Note_on_c, 0, 67, 95
1, 451613, Note_on_c, 0, 55, 70
1, 451646, Note_off_c, 0, 67, 65
1, 451646, Note_off_c, 0, 79, 65
1, 451679, Note_off_c, 0, 55, 60
1, 451719, Note_on_c, 0, 53, 92
1, 451721, Note_on_c, 0, 77, 102
1, 451724, Note_on_c, 0, 65, 97
1, 451773, Note_off_c, 0, 65, 63
1, 451773, Note_off_c, 0, 77, 60
1, 451804, Note_off_c, 0, 53, 65
1, 451832, Control_c, 0, 64, 88
1, 451847, Control_c, 0, 64, 48
1, 451850, Note_on_c, 0, 52, 95
1, 451853, Note_on_c, 0, 76, 107
1, 451854, Note_on_c, 0, 64, 98
1, 451863, Control_c, 0, 64, 0
1, 451937, Control_c, 0, 64, 71
1, 451950, Note_off_c, 0, 76, 66
1, 451952, Control_c, 0, 64, 105
1, 451967, Control_c, 0, 64, 127
1, 451972, Note_off_c, 0, 52, 66
1, 451999, Note_off_c, 0, 64, 63
1, 452384, Note_on_c, 0, 48, 98
1, 452385, Note_on_c, 0, 29, 75
1, 452385, Note_on_c, 0, 40, 93
1, 452385, Note_on_c, 0, 60, 94
1, 452387, Note_on_c, 0, 36, 87
1, 452387, Note_on_c, 0, 52, 93
1, 452390, Note_on_c, 0, 32, 84
1, 452390, Note_on_c, 0, 56, 91
1, 452411, Note_off_c, 0, 32, 67
1, 452424, Note_off_c, 0, 29, 61
1, 452428, Note_off_c, 0, 36, 60
1, 452434, Note_off_c, 0, 40, 60
1, 452442, Note_off_c, 0, 52, 64
1, 452443, Note_off_c, 0, 48, 62
1, 452466, Note_off_c, 0, 60, 61
1, 452484, Note_off_c, 0, 56, 67
1, 452719, Note_on_c, 0, 75, 98
1, 452722, Note_on_c, 0, 63, 90
1, 452726, Note_on_c, 0, 51, 75
1, 452761, Note_off_c, 0, 63, 59
1, 452763, Note_off_c, 0, 75, 63
1, 452799, Note_off_c, 0, 51, 60
1, 452846, Note_on_c, 0, 73, 100
1, 452850, Note_on_c, 0, 49, 91
1, 452852, Note_on_c, 0, 61, 87
1, 452901, Note_off_c, 0, 61, 61
1, 452910, Note_off_c, 0, 73, 65
1, 452938, Note_off_c, 0, 49, 62
1, 452960, Control_c, 0, 64, 111
1, 452975, Control_c, 0, 64, 72
1, 452988, Note_on_c, 0, 48, 92
1, 452990, Control_c, 0, 64, 0
1, 452991, Note_on_c, 0, 60, 99
1, 452991, Note_on_c, 0, 72, 103
1, 453088, Note_off_c, 0, 72, 69
1, 453093, Control_c, 0, 64, 64
1, 453101, Note_off_c, 0, 48, 65
1, 453108, Control_c, 0, 64, 98
1, 453122, Control_c, 0, 64, 127
1, 453134, Note_off_c, 0, 60, 62
1, 453530, Note_on_c, 0, 29, 83
1, 453533, Note_on_c, 0, 41, 101
1, 453535, Note_on_c, 0, 48, 102
1, 453536, Note_on_c, 0, 60, 95
1, 453537, Note_on_c, 0, 53, 97
1, 453539, Note_on_c, 0, 56, 92
1, 453544, Note_on_c, 0, 32, 86
1, 453544, Note_on_c, 0, 36, 84
1, 453569, Note_off_c, 0, 36, 65
1, 453570, Note_off_c, 0, 41, 63
1, 453571, Note_off_c, 0, 32, 66
1, 453579, Note_off_c, 0, 29, 61
1, 453587, Note_off_c, 0, 53, 66
1, 453591, Note_off_c, 0, 48, 59
1, 453596, Note_off_c, 0, 60, 58
1, 453605, Note_off_c, 0, 56, 67
1, 453939, Note_on_c, 0, 48, 95
1, 453940, Note_on_c, 0, 41, 96
1, 453941, Note_on_c, 0, 60, 86
1, 453944, Note_on_c, 0, 29, 80
1, 453944, Note_on_c, 0, 53, 89
1, 453948, Note_on_c, 0, 32, 74
1, 453948, Note_on_c, 0, 56, 83
1, 453956, Note_on_c, 0, 36, 70
1, 454001, Note_off_c, 0, 29, 59
1, 454003, Note_off_c, 0, 41, 60
1, 454020, Note_off_c, 0, 53, 53
1, 454022, Note_off_c, 0, 60, 59
1, 454025, Note_off_c, 0, 48, 59
1, 454028, Note_off_c, 0, 32, 58
1, 454031, Note_off_c, 0, 36, 51
1, 454044, Note_off_c, 0, 56, 58
1, 454085, Note_on_c, 0, 41, 104
1, 454087, Note_on_c, 0, 48, 95
1, 454089, Note_on_c, 0, 29, 93
1, 454089, Note_on_c, 0, 56, 77
1, 454089, Note_on_c, 0, 60, 93
1, 454092, Note_on_c, 0, 53, 84
1, 454112, Note_off_c, 0, 29, 68
1, 454134, Note_off_c, 0, 41, 64
1, 454138, Note_off_c, 0, 53, 64
1, 454138, Note_off_c, 0, 48, 63
1, 454177, Note_off_c, 0, 60, 58
1, 454184, Note_off_c, 0, 56, 68
1, 454475, Note_on_c, 0, 76, 101
1, 454479, Note_on_c, 0, 64, 94
1, 454486, Note_on_c, 0, 52, 77
1, 454551, Note_off_c, 0, 64, 59
1, 454577, Note_off_c, 0, 76, 64
1, 454769, Control_c, 0, 64, 94
1, 454774, Note_on_c, 0, 77, 105
1, 454775, Note_on_c, 0, 53, 81
1, 454775, Note_on_c, 0, 65, 100
1, 454782, Control_c, 0, 64, 61
1, 454797, Control_c, 0, 64, 0
1, 454799, Note_off_c, 0, 52, 53
1, 454857, Control_c, 0, 64, 44
1, 454872, Control_c, 0, 64, 79
1, 454873, Note_off_c, 0, 65, 58
1, 454886, Control_c, 0, 64, 127
1, 454896, Note_off_c, 0, 77, 66
1, 455005, Control_c, 0, 64, 97
1, 455027, Control_c, 0, 64, 58
1, 455037, Note_off_c, 0, 53, 62
1, 455042, Control_c, 0, 64, 0
1, 455058, Note_on_c, 0, 56, 87
1, 455061, Note_on_c, 0, 80, 109
1, 455062, Note_on_c, 0, 68, 92
1, 455102, Control_c, 0, 64, 50
1, 455107, Note_off_c, 0, 68, 66
1, 455117, Control_c, 0, 64, 87
1, 455130, Note_off_c, 0, 56, 64
1, 455131, Control_c, 0, 64, 127
1, 455165, Note_off_c, 0, 80, 62
1, 455265, Control_c, 0, 64, 86
1, 455280, Control_c, 0, 64, 0
1, 455344, Note_on_c, 0, 61, 99
1, 455351, Note_on_c, 0, 85, 108
1, 455355, Note_on_c, 0, 73, 98
1, 455372, Note_on_c, 0, 86, 71
1, 455376, Note_off_c, 0, 61, 67
1, 455384, Control_c, 0, 64, 49
1, 455387, Note_off_c, 0, 86, 68
1, 455398, Note_off_c, 0, 85, 70
1, 455398, Control_c, 0, 64, 127
1, 455402, Note_off_c, 0, 73, 68
1, 455898, Note_on_c, 0, 61, 96
1, 455899, Note_on_c, 0, 49, 97
1, 455901, Note_on_c, 0, 41, 101
1, 455903, Note_on_c, 0, 29, 96
1, 455903, Note_on_c, 0, 53, 89
1, 455912, Note_on_c, 0, 37, 78
1, 455915, Note_on_c, 0, 58, 79
1, 455926, Note_on_c, 0, 34, 49
1, 455930, Note_off_c, 0, 29, 63
1, 455939, Note_off_c, 0, 37, 64
1, 455940, Note_off_c, 0, 41, 66
1, 455946, Note_off_c, 0, 49, 63
1, 455951, Note_off_c, 0, 53, 65
1, 455958, Note_off_c, 0, 34, 58
1, 455990, Note_off_c, 0, 61, 59
1, 455998, Note_off_c, 0, 58, 63
1, 456249, Note_on_c, 0, 60, 72
1, 456250, Note_on_c, 0, 84, 102
1, 456253, Note_on_c, 0, 72, 90
1, 456287, Note_off_c, 0, 72, 63
1, 456290, Note_off_c, 0, 84, 66
1, 456314, Note_off_c, 0, 60, 59
1, 456360, Note_on_c, 0, 58, 90
1, 456362, Note_on_c, 0, 82, 103
1, 456369, Note_on_c, 0, 70, 94
1, 456408, Note_off_c, 0, 82, 68
1, 456419, Note_off_c, 0, 70, 61
1, 456432, Note_off_c, 0, 58, 64
1, 456459, Control_c, 0, 64, 70
1, 456473, Control_c, 0, 64, 0
1, 456493, Note_on_c, 0, 57, 96
1, 456496, Note_on_c, 0, 69, 104
1, 456496, Note_on_c, 0, 81, 102
1, 456567, Note_off_c, 0, 81, 65
1, 456570, Control_c, 0, 64, 74
1, 456585, Control_c, 0, 64, 127
1, 456590, Note_off_c, 0, 57, 69
1, 456605, Note_off_c, 0, 69, 67
1, 457036, Note_on_c, 0, 49, 97
1, 457038, Note_on_c, 0, 61, 94
1, 457039, Note_on_c, 0, 41, 105
1, 457039, Note_on_c, 0, 29, 95
1, 457040, Note_on_c, 0, 53, 90
1, 457040, Note_on_c, 0, 57, 91
1, 457042, Note_on_c, 0, 37, 95
1, 457065, Note_off_c, 0, 29, 68
1, 457068, Note_off_c, 0, 37, 68
1, 457077, Note_off_c, 0, 41, 64
1, 457084, Note_off_c, 0, 49, 64
1, 457091, Note_off_c, 0, 53, 66
1, 457117, Note_off_c, 0, 61, 64
1, 457123, Note_off_c, 0, 57, 68
1, 457401, Note_on_c, 0, 80, 97
1, 457402, Note_on_c, 0, 68, 87
1, 457404, Note_on_c, 0, 56, 73
1, 457428, Note_off_c, 0, 68, 61
1, 457445, Note_off_c, 0, 80, 58
1, 457480, Note_off_c, 0, 56, 61
1, 457515, Note_on_c, 0, 78, 85
1, 457522, Note_on_c, 0, 66, 94
1, 457525, Note_on_c, 0, 54, 81
1, 457569, Note_off_c, 0, 78, 66
1, 457572, Note_off_c, 0, 66, 61
1, 457621, Note_off_c, 0, 54, 62
1, 457646, Control_c, 0, 64, 105
1, 457652, Note_on_c, 0, 53, 91
1, 457653, Note_on_c, 0, 77, 103
1, 457655, Note_on_c, 0, 65, 92
1, 457661, Control_c, 0, 64, 64
1, 457675, Control_c, 0, 64, 0
1, 457764, Control_c, 0, 64, 64
1, 457766, Note_off_c, 0, 77, 64
1, 457779, Control_c, 0, 64, 127
1, 457802, Note_off_c, 0, 53, 66
1, 457817, Note_off_c, 0, 65, 64
1, 458198, Note_on_c, 0, 29, 84
1, 458198, Note_on_c, 0, 49, 94
1, 458198, Note_on_c, 0, 61, 91
1, 458200, Note_on_c, 0, 41, 98
1, 458205, Note_on_c, 0, 53, 78
1, 458205, Note_on_c, 0, 58, 81
1, 458212, Note_on_c, 0, 34, 84
1, 458216, Note_on_c, 0, 37, 78
1, 458231, Note_off_c, 0, 41, 65
1, 458231, Note_off_c, 0, 29, 64
1, 458243, Note_off_c, 0, 37, 65
1, 458244, Note_off_c, 0, 34, 61
1, 458255, Note_off_c, 0, 61, 66
1, 458264, Note_off_c, 0, 49, 59
1, 458272, Note_off_c, 0, 53, 52
1, 458294, Note_off_c, 0, 58, 66
1, 458605, Note_on_c, 0, 41, 96
1, 458608, Note_on_c, 0, 29, 80
1, 458610, Note_on_c, 0, 61, 91
1, 458612, Note_on_c, 0, 49, 90
1, 458612, Note_on_c, 0, 53, 88
1, 458614, Note_on_c, 0, 34, 84
1, 458621, Note_on_c, 0, 58, 78
1, 458628, Note_on_c, 0, 37, 64
1, 458660, Note_off_c, 0, 29, 61
1, 458663, Note_off_c, 0, 41, 56
1, 458672, Note_off_c, 0, 34, 59
1, 458676, Note_off_c, 0, 37, 50
1, 458693, Note_off_c, 0, 49, 60
1, 458693, Note_off_c, 0, 61, 59
1, 458701, Note_off_c, 0, 58, 61
1, 458703, Note_off_c, 0, 53, 60
1, 458740, Note_on_c, 0, 49, 87
1, 458741, Note_on_c, 0, 61, 87
1, 458744, Note_on_c, 0, 53, 75
1, 458746, Note_on_c, 0, 29, 95
1, 458746, Note_on_c, 0, 41, 93
1, 458749, Note_on_c, 0, 37, 89
1, 458751, Note_on_c, 0, 58, 74
1, 458777, Note_off_c, 0, 41, 69
1, 458788, Note_off_c, 0, 29, 62
1, 458795, Note_off_c, 0, 49, 64
1, 458799, Note_off_c, 0, 37, 63
1, 458805, Note_off_c, 0, 53, 64
1, 458846, Note_off_c, 0, 61, 63
1, 458854, Note_off_c, 0, 58, 63
1, 459055, Note_on_c, 0, 54, 87
1, 459059, Note_on_c, 0, 78, 111
1, 459061, Note_on_c, 0, 66, 88
1, 459098, Note_off_c, 0, 54, 60
1, 459113, Note_off_c, 0, 66, 60
1, 459276, Note_off_c, 0, 78, 51
1, 459374, Note_on_c, 0, 57, 98
1, 459374, Note_on_c, 0, 69, 100
1, 459375, Note_on_c, 0, 81, 100
1, 459380, Control_c, 0, 64, 74
1, 459395, Control_c, 0, 64, 0
1, 459521, Control_c, 0, 64, 41
1, 459536, Control_c, 0, 64, 104
1, 459545, Note_off_c, 0, 69, 63
1, 459551, Control_c, 0, 64, 127
1, 459578, Note_off_c, 0, 81, 59
1, 459715, Note_off_c, 0, 57, 47
1, 459778, Note_on_c, 0, 58, 73
1, 459779, Note_on_c, 0, 82, 98
1, 459783, Note_on_c, 0, 70, 84
1, 459817, Control_c, 0, 64, 85
1, 459820, Note_off_c, 0, 70, 63
1, 459832, Control_c, 0, 64, 35
1, 459837, Note_off_c, 0, 82, 59
1, 459844, Note_off_c, 0, 58, 64
1, 459848, Control_c, 0, 64, 0
1, 459903, Note_on_c, 0, 61, 92
1, 459903, Note_on_c, 0, 85, 105
1, 459906, Note_on_c, 0, 73, 104
1, 459936, Note_off_c, 0, 61, 60
1, 459936, Control_c, 0, 64, 69
1, 459940, Note_off_c, 0, 85, 71
1, 459951, Control_c, 0, 64, 127
1, 459978, Note_off_c, 0, 73, 63
1, 460422, Note_on_c, 0, 61, 92
1, 460423, Note_on_c, 0, 49, 82
1, 460425, Note_on_c, 0, 41, 105
1, 460425, Note_on_c, 0, 53, 78
1, 460432, Note_on_c, 0, 31, 80
1, 460433, Note_on_c, 0, 29, 84
1, 460433, Note_on_c, 0, 58, 81
1, 460449, Note_on_c, 0, 38, 58
1, 460449, Note_off_c, 0, 49, 66
1, 460450, Note_off_c, 0, 41, 67
1, 460458, Note_off_c, 0, 29, 57
1, 460458, Note_off_c, 0, 31, 64
1, 460460, Note_on_c, 0, 35, 40
1, 460461, Note_off_c, 0, 35, 127
1, 460473, Note_off_c, 0, 53, 66
1, 460482, Note_off_c, 0, 38, 62
1, 460494, Poly_aftertouch_c, 0, 35, 0
1, 460513, Note_off_c, 0, 61, 62
1, 460515, Note_off_c, 0, 58, 64
1, 460764, Note_on_c, 0, 84, 102
1, 460771, Note_on_c, 0, 72, 83
1, 460780, Note_on_c, 0, 60, 69
1, 460795, Note_off_c, 0, 72, 67
1, 460801, Note_off_c, 0, 84, 66
1, 460820, Note_off_c, 0, 60, 53
1, 460877, Note_on_c, 0, 58, 86
1, 460880, Note_on_c, 0, 82, 102
1, 460886, Note_on_c, 0, 70, 95
1, 460921, Note_off_c, 0, 82, 66
1, 460932, Note_off_c, 0, 70, 62
1, 460947, Note_off_c, 0, 58, 65
1, 460997, Control_c, 0, 64, 85
1, 461014, Note_on_c, 0, 57, 98
1, 461018, Control_c, 0, 64, 47
1, 461022, Note_on_c, 0, 81, 105
1, 461024, Note_on_c, 0, 69, 100
1, 461033, Control_c, 0, 64, 0
1, 461081, Note_off_c, 0, 81, 63
1, 461093, Control_c, 0, 64, 68
1, 461108, Control_c, 0, 64, 98
1, 461122, Note_off_c, 0, 57, 65
1, 461122, Control_c, 0, 64, 127
1, 461135, Note_off_c, 0, 69, 67
1, 461546, Note_on_c, 0, 49, 99
1, 461546, Note_on_c, 0, 61, 90
1, 461548, Note_on_c, 0, 29, 92
1, 461548, Note_on_c, 0, 41, 105
1, 461550, Note_on_c, 0, 53, 90
1, 461550, Note_on_c, 0, 57, 86
1, 461551, Note_on_c, 0, 37, 92
1, 461572, Note_off_c, 0, 29, 69
1, 461576, Note_off_c, 0, 37, 68
1, 461589, Note_off_c, 0, 41, 62
1, 461602, Note_off_c, 0, 49, 62
1, 461611, Note_off_c, 0, 53, 63
1, 461639, Poly_aftertouch_c, 0, 62, 127
1, 461647, Note_off_c, 0, 61, 58
1, 461653, Note_off_c, 0, 57, 67
1, 461662, Poly_aftertouch_c, 0, 32, 0
1, 461666, Poly_aftertouch_c, 0, 62, 0
1, 461927, Note_on_c, 0, 80, 93
1, 461930, Note_on_c, 0, 68, 86
1, 461936, Note_on_c, 0, 56, 66
1, 461961, Note_off_c, 0, 68, 60
1, 461971, Note_off_c, 0, 80, 59
1, 462006, Note_off_c, 0, 56, 61
1, 462047, Note_on_c, 0, 54, 78
1, 462047, Note_on_c, 0, 78, 105
1, 462052, Note_on_c, 0, 66, 96
1, 462103, Note_off_c, 0, 78, 67
1, 462110, Note_off_c, 0, 66, 62
1, 462143, Note_off_c, 0, 54, 64
1, 462172, Note_on_c, 0, 53, 85
1, 462181, Note_on_c, 0, 77, 99
1, 462182, Control_c, 0, 64, 75
1, 462183, Note_on_c, 0, 65, 93
1, 462197, Control_c, 0, 64, 0
1, 462300, Note_off_c, 0, 77, 64
1, 462303, Control_c, 0, 64, 70
1, 462317, Control_c, 0, 64, 96
1, 462332, Control_c, 0, 64, 127
1, 462342, Note_off_c, 0, 53, 65
1, 462350, Note_off_c, 0, 65, 64
1, 462715, Note_on_c, 0, 41, 98
1, 462718, Note_on_c, 0, 29, 84
1, 462719, Note_on_c, 0, 61, 91
1, 462720, Note_on_c, 0, 34, 87
1, 462720, Note_on_c, 0, 37, 89
1, 462720, Note_on_c, 0, 49, 94
1, 462726, Note_on_c, 0, 53, 86
1, 462729, Note_on_c, 0, 58, 84
1, 462744, Note_off_c, 0, 41, 66
1, 462751, Note_off_c, 0, 29, 63
1, 462758, Note_off_c, 0, 34, 57
1, 462764, Note_off_c, 0, 37, 63
1, 462784, Note_off_c, 0, 61, 65
1, 462787, Note_off_c, 0, 49, 59
1, 462789, Note_off_c, 0, 53, 61
1, 462810, Note_off_c, 0, 58, 63
1, 463123, Note_on_c, 0, 61, 88
1, 463125, Note_on_c, 0, 41, 96
1, 463132, Note_on_c, 0, 29, 80
1, 463132, Note_on_c, 0, 49, 76
1, 463134, Note_on_c, 0, 34, 81
1, 463134, Note_on_c, 0, 53, 73
1, 463138, Note_on_c, 0, 37, 78
1, 463138, Note_on_c, 0, 58, 74
1, 463176, Note_off_c, 0, 41, 59
1, 463182, Note_off_c, 0, 29, 58
1, 463183, Note_off_c, 0, 34, 57
1, 463199, Note_off_c, 0, 37, 61
1, 463210, Note_off_c, 0, 49, 59
1, 463210, Note_off_c, 0, 61, 57
1, 463221, Note_off_c, 0, 58, 61
1, 463223, Note_off_c, 0, 53, 63
1, 463273, Note_on_c, 0, 41, 100
1, 463276, Note_on_c, 0, 49, 92
1, 463277, Note_on_c, 0, 61, 93
1, 463278, Note_on_c, 0, 29, 93
1, 463279, Note_on_c, 0, 53, 76
1, 463281, Note_on_c, 0, 37, 91
1, 463286, Note_on_c, 0, 58, 73
1, 463299, Note_on_c, 0, 34, 55
1, 463307, Note_off_c, 0, 29, 66
1, 463319, Note_off_c, 0, 34, 63
1, 463326, Note_off_c, 0, 49, 64
1, 463327, Note_off_c, 0, 37, 64
1, 463327, Note_off_c, 0, 41, 58
1, 463333, Note_off_c, 0, 53, 63
1, 463380, Note_off_c, 0, 61, 59
1, 463391, Note_off_c, 0, 58, 63
1, 463809, Note_on_c, 0, 57, 76
1, 463817, Note_on_c, 0, 81, 93
1, 463822, Note_on_c, 0, 69, 88
1, 463876, Note_off_c, 0, 69, 63
1, 463925, Note_off_c, 0, 81, 63
1, 464102, Control_c, 0, 64, 88
1, 464103, Note_off_c, 0, 57, 62
1, 464115, Note_on_c, 0, 58, 89
1, 464117, Control_c, 0, 64, 53
1, 464120, Note_on_c, 0, 82, 104
1, 464128, Note_on_c, 0, 70, 85
1, 464132, Control_c, 0, 64, 0
1, 464191, Control_c, 0, 64, 65
1, 464199, Note_off_c, 0, 70, 61
1, 464206, Control_c, 0, 64, 89
1, 464221, Control_c, 0, 64, 127
1, 464326, Note_off_c, 0, 82, 59
1, 464362, Note_off_c, 0, 58, 63
1, 464369, Control_c, 0, 64, 77
1, 464384, Control_c, 0, 64, 0
1, 464384, Note_on_c, 0, 60, 87
1, 464388, Note_on_c, 0, 84, 100
1, 464390, Note_on_c, 0, 72, 96
1, 464458, Control_c, 0, 64, 65
1, 464473, Control_c, 0, 64, 111
1, 464487, Control_c, 0, 64, 127
1, 464490, Note_off_c, 0, 72, 63
1, 464523, Note_off_c, 0, 84, 64
1, 464637, Control_c, 0, 64, 76
1, 464637, Note_off_c, 0, 60, 60
1, 464652, Control_c, 0, 64, 0
1, 464660, Note_on_c, 0, 61, 93
1, 464663, Note_on_c, 0, 85, 102
1, 464664, Note_on_c, 0, 73, 94
1, 464777, Control_c, 0, 64, 45
1, 464792, Control_c, 0, 64, 89
1, 464807, Control_c, 0, 64, 127
1, 464810, Note_off_c, 0, 85, 65
1, 464834, Note_off_c, 0, 61, 64
1, 464852, Note_off_c, 0, 73, 63
1, 465218, Note_on_c, 0, 49, 90
1, 465218, Note_on_c, 0, 54, 100
1, 465219, Note_on_c, 0, 37, 77
1, 465219, Note_on_c, 0, 66, 96
1, 465220, Note_on_c, 0, 45, 82
1, 465222, Note_on_c, 0, 42, 85
1, 465224, Note_on_c, 0, 57, 84
1, 465225, Note_on_c, 0, 61, 88
1, 465249, Note_off_c, 0, 37, 65
1, 465253, Note_off_c, 0, 49, 57
1, 465261, Note_off_c, 0, 42, 64
1, 465275, Note_off_c, 0, 45, 63
1, 465284, Note_off_c, 0, 54, 63
1, 465290, Note_off_c, 0, 57, 60
1, 465344, Note_off_c, 0, 61, 61
1, 465353, Note_off_c, 0, 66, 64
1, 465807, Note_on_c, 0, 62, 99
1, 465807, Note_on_c, 0, 86, 107
1, 465807, Control_c, 0, 64, 64
1, 465809, Note_on_c, 0, 74, 108
1, 465822, Control_c, 0, 64, 0
1, 465851, Note_on_c, 0, 85, 45
1, 465857, Note_off_c, 0, 85, 49
1, 465881, Control_c, 0, 64, 44
1, 465896, Control_c, 0, 64, 77
1, 465908, Note_off_c, 0, 86, 66
1, 465911, Control_c, 0, 64, 127
1, 465940, Note_off_c, 0, 62, 63
1, 465949, Note_off_c, 0, 74, 63
1, 466355, Note_on_c, 0, 37, 78
1, 466359, Note_on_c, 0, 50, 87
1, 466363, Note_on_c, 0, 65, 100
1, 466363, Note_on_c, 0, 44, 81
1, 466363, Note_on_c, 0, 53, 97
1, 466367, Note_on_c, 0, 56, 90
1, 466370, Note_on_c, 0, 59, 86
1, 466372, Note_on_c, 0, 41, 73
1, 466389, Note_off_c, 0, 37, 65
1, 466399, Note_off_c, 0, 41, 66
1, 466424, Note_off_c, 0, 50, 61
1, 466429, Note_off_c, 0, 44, 62
1, 466446, Note_off_c, 0, 53, 65
1, 466475, Note_off_c, 0, 56, 62
1, 466499, Note_off_c, 0, 59, 60
1, 466523, Note_off_c, 0, 65, 62
1, 466797, Note_on_c, 0, 61, 93
1, 466801, Note_on_c, 0, 85, 79
1, 466801, Note_on_c, 0, 73, 93
1, 466809, Note_on_c, 0, 84, 95
1, 466846, Note_off_c, 0, 61, 59
1, 466876, Note_off_c, 0, 84, 60
1, 466881, Note_off_c, 0, 73, 59
1, 466882, Note_off_c, 0, 85, 62
1, 466920, Poly_aftertouch_c, 0, 83, 0
1, 466971, Control_c, 0, 64, 101
1, 466972, Note_on_c, 0, 61, 99
1, 466980, Note_on_c, 0, 73, 96
1, 466980, Note_on_c, 0, 85, 109
1, 466986, Control_c, 0, 64, 65
1, 467008, Control_c, 0, 64, 0
1, 467068, Control_c, 0, 64, 57
1, 467083, Control_c, 0, 64, 82
1, 467098, Control_c, 0, 64, 127
1, 467106, Note_off_c, 0, 85, 70
1, 467123, Note_off_c, 0, 61, 60
1, 467150, Note_off_c, 0, 73, 62
1, 467538, Note_on_c, 0, 37, 62
1, 467564, Note_on_c, 0, 42, 67
1, 467573, Note_on_c, 0, 45, 68
1, 467580, Note_on_c, 0, 49, 71
1, 467588, Note_on_c, 0, 66, 95
1, 467590, Note_on_c, 0, 54, 84
1, 467591, Note_on_c, 0, 61, 83
1, 467595, Note_on_c, 0, 57, 75
1, 467600, Note_off_c, 0, 37, 62
1, 467601, Note_off_c, 0, 42, 63
1, 467603, Note_off_c, 0, 45, 65
1, 467609, Note_off_c, 0, 49, 63
1, 467620, Note_off_c, 0, 57, 68
1, 467621, Note_off_c, 0, 54, 62
1, 467668, Note_off_c, 0, 61, 62
1, 467683, Note_off_c, 0, 66, 69
1, 468048, Note_on_c, 0, 89, 95
1, 468057, Note_on_c, 0, 77, 78
1, 468062, Note_on_c, 0, 65, 70
1, 468098, Note_off_c, 0, 65, 61
1, 468107, Note_off_c, 0, 77, 60
1, 468160, Note_off_c, 0, 89, 64
1, 468351, Note_on_c, 0, 90, 102
1, 468355, Note_on_c, 0, 78, 91
1, 468359, Note_on_c, 0, 66, 94
1, 468413, Note_off_c, 0, 66, 65
1, 468434, Note_off_c, 0, 78, 47
1, 468473, Note_off_c, 0, 90, 57
1, 468633, Note_on_c, 0, 91, 106
1, 468634, Note_on_c, 0, 79, 97
1, 468635, Note_on_c, 0, 67, 90
1, 468659, Note_on_c, 0, 65, 51
1, 468660, Note_off_c, 0, 65, 127
1, 468684, Note_off_c, 0, 79, 63
1, 468687, Note_off_c, 0, 67, 64
1, 468722, Note_off_c, 0, 91, 56
1, 468892, Control_c, 0, 64, 89
1, 468899, Note_on_c, 0, 92, 111
1, 468903, Note_on_c, 0, 68, 98
1, 468903, Note_on_c, 0, 80, 96
1, 468907, Control_c, 0, 64, 61
1, 468922, Control_c, 0, 64, 0
1, 468951, Control_c, 0, 64, 36
1, 468966, Control_c, 0, 64, 66
1, 468981, Control_c, 0, 64, 89
1, 468992, Note_off_c, 0, 80, 60
1, 468996, Control_c, 0, 64, 127
1, 469011, Note_off_c, 0, 68, 55
1, 469131, Note_off_c, 0, 92, 60
1, 469173, Control_c, 0, 64, 91
1, 469188, Control_c, 0, 64, 60
1, 469192, Note_on_c, 0, 93, 106
1, 469192, Note_on_c, 0, 69, 100
1, 469195, Note_on_c, 0, 81, 93
1, 469203, Control_c, 0, 64, 0
1, 469232, Control_c, 0, 64, 12
1, 469254, Note_off_c, 0, 69, 69
1, 469254, Control_c, 0, 64, 66
1, 469261, Note_off_c, 0, 93, 65
1, 469269, Control_c, 0, 64, 93
1, 469284, Control_c, 0, 64, 127
1, 469287, Note_off_c, 0, 81, 59
1, 469493, Control_c, 0, 64, 96
1, 469507, Control_c, 0, 64, 60
1, 469522, Control_c, 0, 64, 0
1, 469544, Note_on_c, 0, 85, 95
1, 469546, Note_on_c, 0, 61, 108
1, 469546, Note_on_c, 0, 73, 92
1, 469567, Note_off_c, 0, 61, 60
1, 469567, Control_c, 0, 64, 60
1, 469581, Control_c, 0, 64, 84
1, 469588, Note_off_c, 0, 85, 69
1, 469596, Control_c, 0, 64, 127
1, 469617, Note_off_c, 0, 73, 50
1, 470121, Note_on_c, 0, 49, 85
1, 470123, Note_on_c, 0, 37, 80
1, 470123, Note_on_c, 0, 66, 99
1, 470126, Note_on_c, 0, 54, 87
1, 470127, Note_on_c, 0, 45, 76
1, 470129, Note_on_c, 0, 42, 76
1, 470129, Note_on_c, 0, 61, 87
1, 470130, Note_on_c, 0, 57, 80
1, 470146, Note_off_c, 0, 49, 65
1, 470154, Note_off_c, 0, 37, 65
1, 470154, Note_off_c, 0, 42, 66
1, 470155, Note_off_c, 0, 45, 68
1, 470172, Note_off_c, 0, 54, 62
1, 470173, Note_off_c, 0, 57, 60
1, 470232, Note_off_c, 0, 61, 62
1, 470243, Note_off_c, 0, 66, 62
1, 470685, Control_c, 0, 64, 72
1, 470700, Control_c, 0, 64, 0
1, 470706, Note_on_c, 0, 86, 107
1, 470709, Note_on_c, 0, 62, 99
1, 470709, Note_on_c, 0, 74, 100
1, 470767, Control_c, 0, 64, 50
1, 470782, Control_c, 0, 64, 80
1, 470797, Note_off_c, 0, 86, 65
1, 470797, Control_c, 0, 64, 127
1, 470828, Note_off_c, 0, 62, 62
1, 470840, Note_off_c, 0, 74, 65
1, 471267, Note_on_c, 0, 37, 75
1, 471267, Note_on_c, 0, 42, 33
1, 471278, Note_on_c, 0, 65, 96
1, 471281, Note_on_c, 0, 53, 89
1, 471281, Note_on_c, 0, 50, 78
1, 471285, Note_on_c, 0, 56, 86
1, 471287, Note_on_c, 0, 44, 68
1, 471288, Note_on_c, 0, 59, 80
1, 471298, Note_on_c, 0, 41, 62
1, 471308, Note_off_c, 0, 37, 64
1, 471325, Note_off_c, 0, 41, 66
1, 471346, Note_off_c, 0, 42, 56
1, 471346, Note_off_c, 0, 44, 61
1, 471347, Note_off_c, 0, 50, 62
1, 471370, Note_off_c, 0, 53, 64
1, 471392, Note_off_c, 0, 56, 61
1, 471407, Note_off_c, 0, 59, 59
1, 471441, Note_off_c, 0, 65, 65
1, 471720, Note_on_c, 0, 85, 97
1, 471723, Note_on_c, 0, 73, 96
1, 471724, Note_on_c, 0, 61, 88
1, 471780, Note_off_c, 0, 61, 57
1, 471785, Note_off_c, 0, 73, 63
1, 471828, Note_off_c, 0, 85, 61
1, 471901, Control_c, 0, 64, 99
1, 471916, Control_c, 0, 64, 58
1, 471922, Note_on_c, 0, 85, 105
1, 471925, Note_on_c, 0, 73, 96
1, 471926, Note_on_c, 0, 61, 91
1, 471931, Control_c, 0, 64, 0
1, 471991, Control_c, 0, 64, 63
1, 472006, Control_c, 0, 64, 87
1, 472021, Control_c, 0, 64, 127
1, 472027, Note_off_c, 0, 85, 66
1, 472068, Note_off_c, 0, 61, 54
1, 472068, Note_off_c, 0, 73, 62
1, 472545, Note_on_c, 0, 37, 65
1, 472563, Note_on_c, 0, 42, 58
1, 472564, Note_on_c, 0, 49, 77
1, 472567, Note_on_c, 0, 45, 60
1, 472583, Note_on_c, 0, 66, 94
1, 472584, Note_on_c, 0, 54, 83
1, 472587, Note_on_c, 0, 57, 78
1, 472588, Note_on_c, 0, 61, 78
1, 472607, Note_off_c, 0, 37, 63
1, 472609, Note_off_c, 0, 45, 65
1, 472618, Note_off_c, 0, 42, 61
1, 472620, Note_off_c, 0, 49, 60
1, 472626, Note_off_c, 0, 57, 58
1, 472629, Note_off_c, 0, 54, 60
1, 472693, Note_off_c, 0, 61, 63
1, 472703, Note_off_c, 0, 66, 67
1, 473079, Note_on_c, 0, 89, 89
1, 473087, Note_on_c, 0, 65, 64
1, 473094, Note_on_c, 0, 77, 73
1, 473121, Note_off_c, 0, 65, 66
1, 473137, Note_off_c, 0, 77, 50
1, 473185, Note_off_c, 0, 89, 64
1, 473394, Note_on_c, 0, 90, 100
1, 473401, Note_on_c, 0, 78, 95
1, 473404, Note_on_c, 0, 66, 89
1, 473449, Note_off_c, 0, 66, 65
1, 473466, Note_off_c, 0, 78, 56
1, 473543, Note_off_c, 0, 90, 50
1, 473682, Note_on_c, 0, 91, 99
1, 473687, Note_on_c, 0, 79, 90
1, 473688, Note_on_c, 0, 67, 81
1, 473734, Note_off_c, 0, 79, 62
1, 473737, Note_off_c, 0, 67, 61
1, 473776, Note_off_c, 0, 91, 60
1, 473960, Note_on_c, 0, 92, 102
1, 473964, Note_on_c, 0, 80, 93
1, 473967, Note_on_c, 0, 68, 94
1, 474018, Note_off_c, 0, 68, 65
1, 474032, Note_off_c, 0, 80, 51
1, 474116, Note_off_c, 0, 92, 45
1, 474245, Note_on_c, 0, 69, 93
1, 474247, Note_on_c, 0, 93, 99
1, 474251, Note_on_c, 0, 81, 100
1, 474288, Note_off_c, 0, 69, 69
1, 474310, Note_off_c, 0, 81, 53
1, 474453, Note_off_c, 0, 93, 26
1, 474556, Control_c, 0, 64, 108
1, 474570, Control_c, 0, 64, 69
1, 474580, Note_on_c, 0, 93, 104
1, 474581, Note_on_c, 0, 69, 103
1, 474582, Note_on_c, 0, 81, 101
1, 474585, Control_c, 0, 64, 0
1, 474644, Control_c, 0, 64, 59
1, 474654, Note_off_c, 0, 93, 64
1, 474659, Control_c, 0, 64, 91
1, 474674, Control_c, 0, 64, 127
1, 474685, Note_off_c, 0, 81, 62
1, 474693, Note_off_c, 0, 69, 70
1, 475186, Note_on_c, 0, 48, 92
1, 475188, Note_on_c, 0, 63, 96
1, 475189, Note_on_c, 0, 36, 86
1, 475191, Note_on_c, 0, 51, 92
1, 475193, Note_on_c, 0, 42, 86
1, 475195, Note_on_c, 0, 54, 82
1, 475197, Note_on_c, 0, 39, 77
1, 475197, Note_on_c, 0, 57, 79
1, 475214, Note_off_c, 0, 48, 66
1, 475219, Note_off_c, 0, 36, 65
1, 475221, Note_off_c, 0, 39, 67
1, 475221, Note_off_c, 0, 42, 68
1, 475249, Note_off_c, 0, 51, 62
1, 475273, Note_off_c, 0, 57, 60
1, 475275, Note_off_c, 0, 54, 56
1, 475331, Note_off_c, 0, 63, 60
1, 475809, Control_c, 0, 64, 106
1, 475824, Control_c, 0, 64, 67
1, 475837, Note_on_c, 0, 69, 96
1, 475839, Note_on_c, 0, 93, 107
1, 475839, Control_c, 0, 64, 0
1, 475841, Note_on_c, 0, 81, 105
1, 475914, Control_c, 0, 64, 29
1, 475929, Control_c, 0, 64, 89
1, 475934, Note_off_c, 0, 93, 64
1, 475943, Control_c, 0, 64, 127
1, 475969, Note_off_c, 0, 81, 63
1, 475971, Note_off_c, 0, 69, 64
1, 476432, Note_on_c, 0, 47, 101
1, 476435, Note_on_c, 0, 63, 95
1, 476436, Note_on_c, 0, 35, 91
1, 476436, Note_on_c, 0, 51, 92
1, 476440, Note_on_c, 0, 54, 89
1, 476444, Note_on_c, 0, 42, 81
1, 476445, Note_on_c, 0, 57, 75
1, 476454, Note_on_c, 0, 39, 69
1, 476459, Note_on_c, 0, 62, 81
1, 476465, Note_off_c, 0, 35, 66
1, 476474, Note_off_c, 0, 47, 62
1, 476483, Note_off_c, 0, 39, 65
1, 476488, Note_off_c, 0, 51, 63
1, 476489, Note_off_c, 0, 42, 45
1, 476510, Note_off_c, 0, 54, 61
1, 476529, Note_off_c, 0, 57, 59
1, 476537, Note_off_c, 0, 62, 61
1, 476548, Note_off_c, 0, 63, 56
1, 476878, Note_on_c, 0, 81, 100
1, 476878, Note_on_c, 0, 93, 110
1, 477008, Note_off_c, 0, 81, 54
1, 477043, Note_off_c, 0, 93, 55
1, 477112, Note_on_c, 0, 34, 85
1, 477142, Note_on_c, 0, 46, 97
1, 477142, Control_c, 0, 64, 99
1, 477157, Control_c, 0, 64, 61
1, 477163, Note_on_c, 0, 41, 46
1, 477167, Note_on_c, 0, 93, 105
1, 477169, Note_on_c, 0, 81, 98
1, 477172, Control_c, 0, 64, 0
1, 477195, Note_off_c, 0, 41, 54
1, 477206, Note_on_c, 0, 92, 48
1, 477207, Note_off_c, 0, 92, 127
1, 477216, Control_c, 0, 64, 57
1, 477231, Control_c, 0, 64, 127
1, 477242, Note_off_c, 0, 34, 64
1, 477250, Note_off_c, 0, 81, 50
1, 477284, Note_off_c, 0, 46, 59
1, 477306, Note_off_c, 0, 93, 44
1, 477443, Note_on_c, 0, 94, 105
1, 477448, Note_on_c, 0, 82, 91
1, 477500, Note_off_c, 0, 82, 62
1, 477549, Note_off_c, 0, 94, 62
1, 477700, Note_on_c, 0, 70, 96
1, 477705, Note_on_c, 0, 63, 82
1, 477705, Note_on_c, 0, 66, 89
1, 477708, Note_on_c, 0, 58, 70
1, 477726, Note_off_c, 0, 58, 67
1, 477729, Note_off_c, 0, 63, 65
1, 477738, Note_off_c, 0, 70, 63
1, 477746, Note_off_c, 0, 66, 62
1, 478010, Note_on_c, 0, 95, 106
1, 478015, Note_on_c, 0, 83, 102
1, 478331, Control_c, 0, 64, 110
1, 478343, Note_on_c, 0, 45, 102
1, 478345, Control_c, 0, 64, 74
1, 478348, Note_on_c, 0, 33, 96
1, 478360, Control_c, 0, 64, 0
1, 478419, Control_c, 0, 64, 58
1, 478434, Control_c, 0, 64, 82
1, 478449, Control_c, 0, 64, 127
1, 478451, Note_off_c, 0, 83, 47
1, 478462, Note_off_c, 0, 95, 62
1, 478475, Note_off_c, 0, 45, 60
1, 478540, Note_off_c, 0, 33, 61
1, 478722, Note_on_c, 0, 96, 103
1, 478723, Note_on_c, 0, 84, 102
1, 478851, Note_off_c, 0, 84, 58
1, 478896, Note_off_c, 0, 96, 60
1, 479073, Note_on_c, 0, 61, 72
1, 479091, Note_on_c, 0, 64, 64
1, 479098, Note_on_c, 0, 67, 76
1, 479108, Note_on_c, 0, 73, 95
1, 479121, Note_on_c, 0, 99, 112
1, 479123, Note_on_c, 0, 87, 102
1, 479142, Note_off_c, 0, 61, 64
1, 479145, Note_off_c, 0, 67, 61
1, 479153, Note_off_c, 0, 64, 65
1, 479157, Note_off_c, 0, 73, 66
1, 479190, Note_off_c, 0, 99, 60
1, 479223, Note_off_c, 0, 87, 51
1, 479511, Note_on_c, 0, 97, 105
1, 479514, Note_on_c, 0, 85, 93
1, 479531, Note_on_c, 0, 94, 65
1, 479547, Note_off_c, 0, 94, 64
1, 479778, Note_off_c, 0, 85, 43
1, 479801, Note_off_c, 0, 97, 39
1, 479990, Control_c, 0, 64, 72
1, 480005, Control_c, 0, 64, 0
1, 480024, Note_on_c, 0, 32, 82
1, 480032, Note_on_c, 0, 44, 94
1, 480046, Note_on_c, 0, 97, 114
1, 480049, Note_on_c, 0, 85, 95
1, 480068, Note_on_c, 0, 38, 29
1, 480079, Control_c, 0, 64, 65
1, 480094, Control_c, 0, 64, 102
1, 480096, Note_off_c, 0, 32, 63
1, 480108, Control_c, 0, 64, 127
1, 480110, Note_off_c, 0, 38, 40
1, 480142, Note_off_c, 0, 85, 62
1, 480147, Note_off_c, 0, 44, 61
1, 480167, Note_off_c, 0, 97, 67
1, 481026, Note_on_c, 0, 72, 76
1, 481030, Note_on_c, 0, 60, 69
1, 481031, Note_on_c, 0, 68, 76
1, 481045, Note_on_c, 0, 65, 61
1, 481059, Note_off_c, 0, 60, 64
1, 481063, Note_off_c, 0, 72, 63
1, 481072, Note_off_c, 0, 65, 68
1, 481083, Note_off_c, 0, 68, 61
1, 481557, Note_on_c, 0, 96, 92
1, 481564, Note_on_c, 0, 84, 73
1, 481596, Note_off_c, 0, 84, 62
1, 481612, Note_off_c, 0, 96, 63
1, 481688, Note_on_c, 0, 94, 97
1, 481701, Note_on_c, 0, 82, 85
1, 481743, Note_off_c, 0, 82, 56
1, 481749, Note_off_c, 0, 94, 67
1, 481773, Note_on_c, 0, 34, 73
1, 481814, Control_c, 0, 64, 112
1, 481816, Note_on_c, 0, 46, 86
1, 481829, Control_c, 0, 64, 72
1, 481844, Control_c, 0, 64, 0
1, 481864, Note_on_c, 0, 92, 108
1, 481865, Note_on_c, 0, 80, 87
1, 481903, Control_c, 0, 64, 53
1, 481918, Control_c, 0, 64, 76
1, 481928, Note_off_c, 0, 34, 64
1, 481933, Control_c, 0, 64, 127
1, 481986, Note_off_c, 0, 46, 57
1, 481986, Note_off_c, 0, 80, 44
1, 482043, Note_off_c, 0, 92, 59
1, 482719, Note_on_c, 0, 55, 44
1, 482740, Note_on_c, 0, 61, 41
1, 482745, Note_on_c, 0, 67, 36
1, 482747, Note_on_c, 0, 65, 32
1, 482779, Note_off_c, 0, 65, 55
1, 482782, Note_off_c, 0, 67, 53
1, 482786, Note_off_c, 0, 55, 58
1, 482789, Note_off_c, 0, 61, 59
1, 483203, Note_on_c, 0, 91, 81
1, 483213, Note_on_c, 0, 79, 70
1, 483255, Note_off_c, 0, 91, 59
1, 483263, Note_off_c, 0, 79, 59
1, 483345, Note_on_c, 0, 89, 94
1, 483356, Note_on_c, 0, 77, 78
1, 483390, Note_off_c, 0, 77, 59
1, 483444, Note_on_c, 0, 36, 61
1, 483455, Note_off_c, 0, 89, 61
1, 483481, Note_on_c, 0, 48, 58
1, 483512, Control_c, 0, 64, 84
1, 483527, Control_c, 0, 64, 57
1, 483533, Note_on_c, 0, 87, 95
1, 483542, Note_on_c, 0, 75, 80
1, 483542, Control_c, 0, 64, 0
1, 483587, Control_c, 0, 64, 20
1, 483601, Control_c, 0, 64, 62
1, 483604, Note_off_c, 0, 36, 61
1, 483616, Control_c, 0, 64, 80
1, 483631, Control_c, 0, 64, 127
1, 483645, Note_off_c, 0, 87, 60
1, 483652, Note_off_c, 0, 75, 51
1, 483665, Note_off_c, 0, 48, 59
1, 483974, Note_on_c, 0, 86, 87
1, 483989, Note_on_c, 0, 74, 67
1, 484294, Note_on_c, 0, 68, 61
1, 484299, Note_on_c, 0, 56, 54
1, 484301, Note_on_c, 0, 60, 50
1, 484302, Note_on_c, 0, 65, 58
1, 484348, Note_off_c, 0, 56, 62
1, 484360, Note_off_c, 0, 65, 54
1, 484363, Note_off_c, 0, 60, 55
1, 484363, Note_off_c, 0, 68, 58
1, 484373, Note_off_c, 0, 74, 60
1, 484404, Note_off_c, 0, 86, 60
1, 484617, Note_on_c, 0, 85, 90
1, 484627, Note_on_c, 0, 73, 76
1, 484944, Control_c, 0, 64, 117
1, 484959, Control_c, 0, 64, 79
1, 484964, Note_on_c, 0, 46, 77
1, 484966, Note_on_c, 0, 34, 61
1, 484981, Control_c, 0, 64, 57
1, 484996, Control_c, 0, 64, 0
1, 485026, Control_c, 0, 64, 54
1, 485040, Control_c, 0, 64, 72
1, 485054, Note_off_c, 0, 85, 59
1, 485055, Control_c, 0, 64, 102
1, 485070, Control_c, 0, 64, 127
1, 485074, Note_off_c, 0, 73, 61
1, 485099, Note_off_c, 0, 34, 62
1, 485156, Note_off_c, 0, 46, 60
1, 485240, Note_on_c, 0, 83, 85
1, 485251, Note_on_c, 0, 71, 69
1, 485319, Note_off_c, 0, 71, 51
1, 485372, Note_off_c, 0, 83, 58
1, 485453, Note_on_c, 0, 84, 96
1, 485461, Note_on_c, 0, 72, 74
1, 485485, Note_off_c, 0, 72, 71
1, 485535, Note_off_c, 0, 84, 64
1, 485599, Note_on_c, 0, 55, 40
1, 485638, Note_on_c, 0, 64, 49
1, 485670, Note_on_c, 0, 67, 58
1, 485754, Note_on_c, 0, 92, 104
1, 485760, Note_on_c, 0, 80, 90
1, 485789, Note_off_c, 0, 55, 46
1, 485790, Note_off_c, 0, 67, 63
1, 485798, Note_off_c, 0, 80, 58
1, 485820, Note_off_c, 0, 92, 64
1, 485832, Note_off_c, 0, 64, 63
1, 486075, Note_on_c, 0, 91, 96
1, 486083, Note_on_c, 0, 79, 84
1, 486133, Note_off_c, 0, 79, 63
1, 486141, Note_off_c, 0, 91, 57
1, 486353, Note_on_c, 0, 88, 92
1, 486362, Note_on_c, 0, 76, 78
1, 486414, Note_off_c, 0, 76, 65
1, 486462, Note_off_c, 0, 88, 58
1, 486645, Note_on_c, 0, 73, 72
1, 486705, Note_on_c, 0, 32, 49
1, 486760, Note_on_c, 0, 44, 41
1, 486790, Control_c, 0, 64, 108
1, 486804, Control_c, 0, 64, 80
1, 486819, Control_c, 0, 64, 52
1, 486834, Control_c, 0, 64, 0
1, 486845, Note_on_c, 0, 85, 85
1, 486893, Control_c, 0, 64, 41
1, 486908, Control_c, 0, 64, 64
1, 486923, Control_c, 0, 64, 81
1, 486937, Control_c, 0, 64, 127
1, 486941, Note_off_c, 0, 32, 52
1, 486998, Note_off_c, 0, 44, 57
1, 487053, Note_off_c, 0, 73, 61
1, 487101, Note_off_c, 0, 85, 57
1, 487116, Control_c, 0, 67, 14
1, 487131, Control_c, 0, 67, 25
1, 487146, Control_c, 0, 67, 42
1, 487161, Control_c, 0, 67, 67
1, 487176, Control_c, 0, 67, 101
1, 487190, Control_c, 0, 67, 127
1, 487716, Note_on_c, 0, 65, 39
1, 487718, Note_on_c, 0, 53, 39
1, 487720, Note_on_c, 0, 60, 42
1, 487808, Note_off_c, 0, 60, 44
1, 487868, Note_off_c, 0, 65, 32
1, 487894, Note_off_c, 0, 53, 43
1, 488267, Note_on_c, 0, 84, 72
1, 488280, Note_on_c, 0, 72, 55
1, 488311, Note_off_c, 0, 72, 55
1, 488330, Note_off_c, 0, 84, 59
1, 488416, Note_on_c, 0, 82, 82
1, 488437, Note_on_c, 0, 70, 59
1, 488463, Note_off_c, 0, 70, 66
1, 488468, Note_off_c, 0, 82, 63
1, 488550, Note_on_c, 0, 34, 43
1, 488576, Note_on_c, 0, 46, 42
1, 488615, Control_c, 0, 64, 100
1, 488621, Note_on_c, 0, 80, 81
1, 488629, Control_c, 0, 64, 76
1, 488637, Note_on_c, 0, 68, 63
1, 488644, Control_c, 0, 64, 53
1, 488659, Control_c, 0, 64, 0
1, 488726, Control_c, 0, 64, 44
1, 488741, Control_c, 0, 64, 64
1, 488755, Control_c, 0, 64, 77
1, 488770, Control_c, 0, 64, 96
1, 488785, Control_c, 0, 64, 127
1, 488803, Note_off_c, 0, 34, 40
1, 488827, Note_off_c, 0, 46, 41
1, 488864, Note_off_c, 0, 68, 50
1, 488896, Note_off_c, 0, 80, 55
1, 489433, Note_on_c, 0, 61, 53
1, 489434, Note_on_c, 0, 58, 41
1, 489465, Note_off_c, 0, 61, 64
1, 489474, Note_off_c, 0, 58, 65
1, 490046, Note_on_c, 0, 78, 75
1, 490060, Note_on_c, 0, 66, 57
1, 490136, Note_off_c, 0, 78, 60
1, 490137, Note_off_c, 0, 66, 60
1, 490227, Note_on_c, 0, 77, 77
1, 490244, Note_on_c, 0, 65, 63
1, 490276, Note_off_c, 0, 65, 63
1, 490409, Note_off_c, 0, 77, 44
1, 490411, Note_on_c, 0, 36, 41
1, 490414, Control_c, 0, 64, 102
1, 490428, Note_on_c, 0, 48, 32
1, 490428, Note_on_c, 0, 75, 74
1, 490429, Control_c, 0, 64, 75
1, 490443, Control_c, 0, 64, 51
1, 490458, Control_c, 0, 64, 0
1, 490532, Control_c, 0, 64, 46
1, 490547, Control_c, 0, 64, 63
1, 490562, Control_c, 0, 64, 72
1, 490577, Control_c, 0, 64, 84
1, 490585, Note_off_c, 0, 36, 53
1, 490592, Control_c, 0, 64, 101
1, 490607, Control_c, 0, 64, 127
1, 490627, Note_off_c, 0, 75, 61
1, 490638, Note_off_c, 0, 48, 41
1, 490872, Note_on_c, 0, 74, 66
1, 491268, Note_on_c, 0, 56, 35
1, 491269, Note_on_c, 0, 65, 38
1, 491290, Note_on_c, 0, 60, 28
1, 491296, Control_c, 0, 64, 101
1, 491311, Control_c, 0, 64, 81
1, 491326, Control_c, 0, 64, 66
1, 491340, Control_c, 0, 64, 48
1, 491355, Control_c, 0, 64, 29
1, 491370, Control_c, 0, 64, 43
1, 491385, Control_c, 0, 64, 61
1, 491400, Control_c, 0, 64, 69
1, 491414, Control_c, 0, 64, 78
1, 491429, Control_c, 0, 64, 90
1, 491444, Control_c, 0, 64, 101
1, 491459, Control_c, 0, 64, 107
1, 491474, Control_c, 0, 64, 109
1, 491489, Control_c, 0, 64, 111
1, 491504, Control_c, 0, 64, 112
1, 491519, Control_c, 0, 64, 113
1, 491534, Control_c, 0, 64, 115
1, 491549, Control_c, 0, 64, 116
1, 491555, Note_off_c, 0, 74, 54
1, 491563, Control_c, 0, 64, 116
1, 491608, Control_c, 0, 64, 116
1, 491623, Control_c, 0, 64, 111
1, 491635, Note_on_c, 0, 73, 60
1, 491638, Control_c, 0, 64, 102
1, 491653, Control_c, 0, 64, 89
1, 491667, Control_c, 0, 64, 73
1, 491682, Control_c, 0, 64, 61
1, 491697, Control_c, 0, 64, 42
1, 491719, Control_c, 0, 64, 12
1, 491734, Control_c, 0, 64, 0
1, 491748, Control_c, 0, 64, 25
1, 491763, Control_c, 0, 64, 45
1, 491778, Control_c, 0, 64, 57
1, 491794, Control_c, 0, 64, 62
1, 491809, Control_c, 0, 64, 65
1, 491823, Control_c, 0, 64, 69
1, 491838, Control_c, 0, 64, 74
1, 491853, Control_c, 0, 64, 81
1, 491868, Control_c, 0, 64, 88
1, 491883, Control_c, 0, 64, 92
1, 491897, Control_c, 0, 64, 94
1, 491912, Control_c, 0, 64, 95
1, 491927, Control_c, 0, 64, 96
1, 491942, Control_c, 0, 64, 98
1, 491957, Control_c, 0, 64, 100
1, 491967, Note_off_c, 0, 73, 32
1, 491972, Control_c, 0, 64, 101
1, 491987, Control_c, 0, 64, 101
1, 491994, Note_off_c, 0, 60, 33
1, 492016, Control_c, 0, 64, 102
1, 492031, Control_c, 0, 64, 102
1, 492038, Note_off_c, 0, 56, 39
1, 492046, Control_c, 0, 64, 104
1, 492061, Control_c, 0, 64, 106
1, 492076, Control_c, 0, 64, 108
1, 492090, Control_c, 0, 64, 109
1, 492105, Control_c, 0, 64, 111
1, 492120, Control_c, 0, 64, 111
1, 492135, Note_off_c, 0, 65, 36
1, 492253, Control_c, 0, 64, 111
1, 492268, Control_c, 0, 64, 110
1, 492283, Control_c, 0, 64, 109
1, 492297, Control_c, 0, 64, 109
1, 492312, Control_c, 0, 64, 108
1, 492371, Control_c, 0, 64, 108
1, 492401, Control_c, 0, 64, 107
1, 492416, Control_c, 0, 64, 107
1, 492512, Control_c, 0, 64, 106
1, 492602, Control_c, 0, 64, 106
1, 492661, Control_c, 0, 64, 105
1, 492750, Control_c, 0, 64, 105
1, 492809, Control_c, 0, 64, 104
1, 492884, Control_c, 0, 64, 104
1, 492923, Note_on_c, 0, 72, 55
1, 492943, Control_c, 0, 64, 103
1, 492958, Control_c, 0, 64, 99
1, 492972, Control_c, 0, 64, 87
1, 492987, Control_c, 0, 64, 72
1, 493002, Control_c, 0, 64, 57
1, 493017, Control_c, 0, 64, 51
1, 493032, Control_c, 0, 64, 60
1, 493046, Control_c, 0, 64, 66
1, 493061, Control_c, 0, 64, 73
1, 493076, Control_c, 0, 64, 84
1, 493091, Control_c, 0, 64, 96
1, 493093, Note_off_c, 0, 72, 60
1, 493106, Control_c, 0, 64, 104
1, 493120, Control_c, 0, 64, 105
1, 493135, Control_c, 0, 64, 105
1, 493164, Control_c, 0, 64, 106
1, 493179, Control_c, 0, 64, 109
1, 493194, Control_c, 0, 64, 115
1, 493217, Control_c, 0, 64, 120
1, 493232, Control_c, 0, 64, 121
1, 493276, Control_c, 0, 64, 119
1, 493291, Control_c, 0, 64, 110
1, 493306, Control_c, 0, 64, 96
1, 493320, Control_c, 0, 64, 79
1, 493330, Note_on_c, 0, 71, 62
1, 493335, Control_c, 0, 64, 64
1, 493350, Control_c, 0, 64, 41
1, 493364, Control_c, 0, 64, 0
1, 493395, Control_c, 0, 64, 41
1, 493410, Control_c, 0, 64, 61
1, 493425, Control_c, 0, 64, 70
1, 493440, Control_c, 0, 64, 80
1, 493455, Control_c, 0, 64, 92
1, 493469, Control_c, 0, 64, 100
1, 493474, Note_off_c, 0, 71, 53
1, 493484, Control_c, 0, 64, 104
1, 493499, Control_c, 0, 64, 105
1, 493514, Control_c, 0, 64, 106
1, 493529, Control_c, 0, 64, 106
1, 493543, Control_c, 0, 64, 107
1, 493558, Control_c, 0, 64, 108
1, 493602, Control_c, 0, 64, 107
1, 493617, Control_c, 0, 64, 98
1, 493632, Control_c, 0, 64, 81
1, 493647, Control_c, 0, 64, 64
1, 493659, Note_on_c, 0, 70, 69
1, 493662, Control_c, 0, 64, 32
1, 493677, Control_c, 0, 64, 0
1, 493722, Control_c, 0, 64, 51
1, 493736, Control_c, 0, 64, 65
1, 493751, Control_c, 0, 64, 73
1, 493766, Control_c, 0, 64, 83
1, 493766, Note_off_c, 0, 70, 62
1, 493781, Control_c, 0, 64, 88
1, 493795, Control_c, 0, 64, 91
1, 493810, Control_c, 0, 64, 94
1, 493825, Control_c, 0, 64, 97
1, 493840, Control_c, 0, 64, 99
1, 493855, Control_c, 0, 64, 102
1, 493869, Control_c, 0, 64, 104
1, 493884, Control_c, 0, 64, 106
1, 493899, Control_c, 0, 64, 106
1, 493929, Control_c, 0, 64, 104
1, 493943, Control_c, 0, 64, 92
1, 493966, Control_c, 0, 64, 73
1, 493970, Note_on_c, 0, 69, 70
1, 493981, Control_c, 0, 64, 55
1, 493995, Control_c, 0, 64, 0
1, 494040, Control_c, 0, 64, 23
1, 494055, Control_c, 0, 64, 57
1, 494069, Control_c, 0, 64, 68
1, 494084, Control_c, 0, 64, 75
1, 494099, Control_c, 0, 64, 83
1, 494114, Control_c, 0, 64, 89
1, 494124, Note_off_c, 0, 69, 61
1, 494129, Control_c, 0, 64, 95
1, 494143, Control_c, 0, 64, 100
1, 494158, Control_c, 0, 64, 108
1, 494173, Control_c, 0, 64, 121
1, 494189, Control_c, 0, 64, 127
1, 494292, Control_c, 0, 64, 112
1, 494307, Control_c, 0, 64, 86
1, 494315, Note_on_c, 0, 68, 69
1, 494322, Control_c, 0, 64, 68
1, 494337, Control_c, 0, 64, 39
1, 494352, Control_c, 0, 64, 0
1, 494381, Control_c, 0, 64, 39
1, 494396, Control_c, 0, 64, 62
1, 494410, Control_c, 0, 64, 73
1, 494425, Control_c, 0, 64, 86
1, 494440, Control_c, 0, 64, 103
1, 494455, Control_c, 0, 64, 107
1, 494470, Control_c, 0, 64, 110
1, 494482, Note_off_c, 0, 68, 65
1, 494485, Control_c, 0, 64, 113
1, 494500, Control_c, 0, 64, 127
1, 494685, Note_on_c, 0, 48, 39
1, 494738, Note_on_c, 0, 52, 29
1, 494744, Control_c, 0, 64, 109
1, 494759, Control_c, 0, 64, 95
1, 494766, Note_on_c, 0, 58, 46
1, 494774, Control_c, 0, 64, 82
1, 494780, Note_on_c, 0, 61, 46
1, 494789, Control_c, 0, 64, 71
1, 494792, Note_on_c, 0, 67, 70
1, 494804, Control_c, 0, 64, 60
1, 494818, Control_c, 0, 64, 37
1, 494833, Control_c, 0, 64, 16
1, 494848, Control_c, 0, 64, 20
1, 494863, Control_c, 0, 64, 30
1, 494878, Control_c, 0, 64, 41
1, 494892, Control_c, 0, 64, 54
1, 494907, Control_c, 0, 64, 62
1, 494922, Control_c, 0, 64, 69
1, 494936, Control_c, 0, 64, 75
1, 494951, Control_c, 0, 64, 83
1, 494966, Control_c, 0, 64, 89
1, 494981, Control_c, 0, 64, 92
1, 494986, Note_off_c, 0, 61, 39
1, 494997, Control_c, 0, 64, 94
1, 495012, Control_c, 0, 64, 95
1, 495024, Note_off_c, 0, 48, 37
1, 495024, Note_off_c, 0, 58, 35
1, 495027, Control_c, 0, 64, 96
1, 495041, Note_off_c, 0, 52, 44
1, 495041, Control_c, 0, 64, 97
1, 495056, Control_c, 0, 64, 98
1, 495086, Control_c, 0, 64, 98
1, 495147, Note_off_c, 0, 67, 21
1, 495219, Control_c, 0, 64, 98
1, 495221, Note_on_c, 0, 66, 74
1, 495400, Note_off_c, 0, 66, 59
1, 495537, Control_c, 0, 64, 97
1, 495730, Control_c, 0, 64, 97
1, 495759, Control_c, 0, 64, 96
1, 495774, Control_c, 0, 64, 95
1, 495790, Control_c, 0, 64, 94
1, 495794, Note_on_c, 0, 65, 69
1, 495805, Control_c, 0, 64, 91
1, 495820, Control_c, 0, 64, 88
1, 495835, Control_c, 0, 64, 82
1, 495850, Control_c, 0, 64, 75
1, 495864, Control_c, 0, 64, 64
1, 495879, Control_c, 0, 64, 50
1, 495894, Control_c, 0, 64, 0
1, 496012, Control_c, 0, 64, 20
1, 496027, Control_c, 0, 64, 43
1, 496042, Control_c, 0, 64, 56
1, 496056, Control_c, 0, 64, 63
1, 496071, Control_c, 0, 64, 65
1, 496086, Control_c, 0, 64, 66
1, 496101, Control_c, 0, 64, 67
1, 496116, Control_c, 0, 64, 69
1, 496130, Control_c, 0, 64, 74
1, 496145, Control_c, 0, 64, 81
1, 496160, Note_off_c, 0, 65, 62
1, 496160, Control_c, 0, 64, 87
1, 496175, Control_c, 0, 64, 90
1, 496190, Control_c, 0, 64, 92
1, 496205, Control_c, 0, 64, 93
1, 496227, Control_c, 0, 64, 94
1, 496242, Control_c, 0, 64, 94
1, 496257, Control_c, 0, 64, 95
1, 496449, Control_c, 0, 64, 94
1, 496598, Control_c, 0, 64, 94
1, 496717, Control_c, 0, 64, 93
1, 496732, Control_c, 0, 64, 93
1, 496747, Control_c, 0, 64, 91
1, 496761, Control_c, 0, 64, 89
1, 496776, Control_c, 0, 64, 86
1, 496790, Note_on_c, 0, 64, 51
1, 496791, Control_c, 0, 64, 82
1, 496805, Control_c, 0, 64, 77
1, 496820, Control_c, 0, 64, 72
1, 496835, Control_c, 0, 64, 66
1, 496850, Control_c, 0, 64, 60
1, 496865, Control_c, 0, 64, 50
1, 496879, Control_c, 0, 64, 31
1, 496894, Control_c, 0, 64, 0
1, 497006, Control_c, 0, 64, 17
1, 497020, Control_c, 0, 64, 43
1, 497035, Control_c, 0, 64, 57
1, 497050, Control_c, 0, 64, 64
1, 497065, Control_c, 0, 64, 68
1, 497080, Control_c, 0, 64, 72
1, 497094, Control_c, 0, 64, 75
1, 497109, Control_c, 0, 64, 79
1, 497124, Control_c, 0, 64, 83
1, 497138, Control_c, 0, 64, 86
1, 497153, Control_c, 0, 64, 89
1, 497168, Control_c, 0, 64, 92
1, 497183, Control_c, 0, 64, 96
1, 497198, Control_c, 0, 64, 102
1, 497212, Control_c, 0, 64, 111
1, 497227, Control_c, 0, 64, 127
1, 497306, Note_off_c, 0, 64, 35
1, 498334, Note_on_c, 0, 68, 53
1, 498377, Control_c, 0, 64, 122
1, 498392, Control_c, 0, 64, 98
1, 498407, Control_c, 0, 64, 82
1, 498422, Control_c, 0, 64, 69
1, 498437, Control_c, 0, 64, 55
1, 498458, Control_c, 0, 64, 39
1, 498473, Control_c, 0, 64, 32
1, 498488, Control_c, 0, 64, 34
1, 498503, Control_c, 0, 64, 36
1, 498518, Control_c, 0, 64, 38
1, 498533, Control_c, 0, 64, 39
1, 498548, Control_c, 0, 64, 40
1, 498563, Control_c, 0, 64, 41
1, 498578, Control_c, 0, 64, 42
1, 498666, Control_c, 0, 64, 42
1, 498681, Control_c, 0, 64, 43
1, 498696, Control_c, 0, 64, 44
1, 498711, Control_c, 0, 64, 44
1, 498755, Control_c, 0, 64, 45
1, 498799, Control_c, 0, 64, 45
1, 498829, Control_c, 0, 64, 46
1, 498917, Control_c, 0, 64, 46
1, 499007, Control_c, 0, 64, 47
1, 499111, Control_c, 0, 64, 47
1, 499341, Control_c, 0, 64, 47
1, 500327, Control_c, 0, 64, 47
1, 500342, Control_c, 0, 64, 48
1, 500356, Control_c, 0, 64, 48
1, 500371, Control_c, 0, 64, 49
1, 500386, Control_c, 0, 64, 49
1, 500401, Control_c, 0, 64, 50
1, 500416, Control_c, 0, 64, 52
1, 500430, Control_c, 0, 64, 53
1, 500445, Control_c, 0, 64, 54
1, 500460, Control_c, 0, 64, 55
1, 500475, Control_c, 0, 64, 56
1, 500490, Control_c, 0, 64, 57
1, 500504, Control_c, 0, 64, 57
1, 500519, Control_c, 0, 64, 58
1, 500548, Control_c, 0, 64, 58
1, 500563, Control_c, 0, 64, 59
1, 500579, Control_c, 0, 64, 60
1, 500594, Control_c, 0, 64, 60
1, 500624, Control_c, 0, 64, 61
1, 500639, Control_c, 0, 64, 61
1, 500653, Control_c, 0, 64, 62
1, 500668, Control_c, 0, 64, 62
1, 500683, Control_c, 0, 64, 63
1, 500735, Control_c, 0, 64, 63
1, 500750, Control_c, 0, 64, 64
1, 500765, Control_c, 0, 64, 65
1, 500779, Control_c, 0, 64, 66
1, 500794, Control_c, 0, 64, 66
1, 500809, Control_c, 0, 64, 67
1, 500839, Control_c, 0, 64, 67
1, 500928, Control_c, 0, 64, 68
1, 500942, Control_c, 0, 64, 68
1, 500972, Control_c, 0, 64, 69
1, 500986, Control_c, 0, 64, 69
1, 501001, Control_c, 0, 64, 70
1, 501016, Control_c, 0, 64, 71
1, 501031, Control_c, 0, 64, 71
1, 501046, Control_c, 0, 64, 73
1, 501061, Control_c, 0, 64, 75
1, 501076, Control_c, 0, 64, 78
1, 501090, Control_c, 0, 64, 79
1, 501150, Control_c, 0, 64, 79
1, 501223, Control_c, 0, 64, 80
1, 501238, Control_c, 0, 64, 80
1, 501252, Control_c, 0, 64, 81
1, 501282, Control_c, 0, 64, 81
1, 501296, Control_c, 0, 64, 82
1, 501311, Control_c, 0, 64, 82
1, 501326, Control_c, 0, 64, 83
1, 501341, Control_c, 0, 64, 84
1, 501356, Control_c, 0, 64, 84
1, 501372, Control_c, 0, 64, 85
1, 501387, Control_c, 0, 64, 86
1, 501401, Control_c, 0, 64, 87
1, 501416, Control_c, 0, 64, 88
1, 501431, Control_c, 0, 64, 89
1, 501454, Control_c, 0, 64, 90
1, 501469, Control_c, 0, 64, 90
1, 501483, Control_c, 0, 64, 91
1, 501498, Control_c, 0, 64, 92
1, 501513, Control_c, 0, 64, 94
1, 501528, Control_c, 0, 64, 95
1, 501543, Control_c, 0, 64, 96
1, 501557, Control_c, 0, 64, 97
1, 501572, Control_c, 0, 64, 97
1, 501587, Control_c, 0, 64, 98
1, 501601, Control_c, 0, 64, 98
1, 501631, Control_c, 0, 64, 99
1, 501646, Control_c, 0, 64, 99
1, 501675, Control_c, 0, 64, 100
1, 501690, Control_c, 0, 64, 100
1, 501734, Control_c, 0, 64, 101
1, 501779, Control_c, 0, 64, 101
1, 501942, Control_c, 0, 64, 101
1, 501972, Control_c, 0, 64, 100
1, 502001, Control_c, 0, 64, 100
1, 502016, Control_c, 0, 64, 99
1, 502046, Control_c, 0, 64, 98
1, 502061, Control_c, 0, 64, 98
1, 502075, Control_c, 0, 64, 97
1, 502090, Control_c, 0, 64, 97
1, 502105, Control_c, 0, 64, 96
1, 502119, Control_c, 0, 64, 96
1, 502134, Control_c, 0, 64, 95
1, 502147, Note_on_c, 0, 67, 27
1, 502149, Control_c, 0, 64, 94
1, 502164, Control_c, 0, 64, 92
1, 502180, Control_c, 0, 64, 89
1, 502202, Control_c, 0, 64, 85
1, 502217, Control_c, 0, 64, 81
1, 502232, Control_c, 0, 64, 75
1, 502247, Control_c, 0, 64, 68
1, 502262, Control_c, 0, 64, 62
1, 502277, Control_c, 0, 64, 58
1, 502306, Control_c, 0, 64, 58
1, 502310, Note_off_c, 0, 68, 35
1, 502321, Control_c, 0, 64, 59
1, 502410, Control_c, 0, 64, 59
1, 502438, Note_off_c, 0, 67, 25
1, 502439, Control_c, 0, 64, 60
1, 502513, Control_c, 0, 64, 60
1, 502750, Control_c, 0, 64, 61
1, 502898, Control_c, 0, 64, 61
1, 504552, Control_c, 0, 64, 62
1, 507532, Control_c, 0, 64, 62
1, 507666, Control_c, 0, 64, 63
1, 507815, Control_c, 0, 64, 63
1, 507889, Control_c, 0, 64, 64
1, 507963, Control_c, 0, 64, 64
1, 508023, Control_c, 0, 64, 65
1, 508052, Control_c, 0, 64, 65
1, 508097, Control_c, 0, 64, 66
1, 508126, Control_c, 0, 64, 66
1, 508141, Control_c, 0, 64, 67
1, 508156, Control_c, 0, 64, 67
1, 508170, Control_c, 0, 64, 68
1, 508193, Control_c, 0, 64, 69
1, 508208, Control_c, 0, 64, 69
1, 508238, Control_c, 0, 64, 70
1, 508267, Control_c, 0, 64, 70
1, 508311, Control_c, 0, 64, 71
1, 508341, Control_c, 0, 64, 71
1, 508370, Control_c, 0, 64, 72
1, 508400, Control_c, 0, 64, 72
1, 508415, Control_c, 0, 64, 73
1, 508444, Control_c, 0, 64, 74
1, 508459, Control_c, 0, 64, 75
1, 508474, Control_c, 0, 64, 76
1, 508489, Control_c, 0, 64, 77
1, 508504, Control_c, 0, 64, 79
1, 508519, Control_c, 0, 64, 80
1, 508534, Control_c, 0, 64, 81
1, 508549, Control_c, 0, 64, 82
1, 508564, Control_c, 0, 64, 83
1, 508579, Control_c, 0, 64, 83
1, 508593, Control_c, 0, 64, 84
1, 508608, Control_c, 0, 64, 86
1, 508623, Control_c, 0, 64, 87
1, 508638, Control_c, 0, 64, 88
1, 508653, Control_c, 0, 64, 89
1, 508668, Control_c, 0, 64, 90
1, 508683, Control_c, 0, 64, 90
1, 508697, Control_c, 0, 64, 91
1, 508711, Control_c, 0, 64, 92
1, 508726, Control_c, 0, 64, 93
1, 508741, Control_c, 0, 64, 94
1, 508756, Control_c, 0, 64, 95
1, 508771, Control_c, 0, 64, 95
1, 508785, Control_c, 0, 64, 96
1, 508815, Control_c, 0, 64, 97
1, 508830, Control_c, 0, 64, 97
1, 508845, Control_c, 0, 64, 98
1, 508874, Control_c, 0, 64, 98
1, 508918, Control_c, 0, 64, 99
1, 508971, Control_c, 0, 64, 99
1, 509104, Control_c, 0, 64, 100
1, 509178, Control_c, 0, 64, 100
1, 509207, Control_c, 0, 64, 101
1, 509222, Control_c, 0, 64, 101
1, 509252, Control_c, 0, 64, 102
1, 509282, Control_c, 0, 64, 102
1, 509297, Control_c, 0, 64, 103
1, 509312, Control_c, 0, 64, 104
1, 509326, Control_c, 0, 64, 106
1, 509340, Note_on_c, 0, 80, 54
1, 509341, Control_c, 0, 64, 108
1, 509356, Control_c, 0, 64, 111
1, 509371, Control_c, 0, 64, 114
1, 509386, Control_c, 0, 64, 119
1, 509401, Control_c, 0, 64, 127
1, 509671, Note_on_c, 0, 47, 32
1, 509807, Note_off_c, 0, 47, 35
1, 510064, Note_on_c, 0, 56, 29
1, 510197, Note_on_c, 0, 64, 30
1, 510245, Note_off_c, 0, 56, 41
1, 510404, Note_off_c, 0, 64, 40
1, 510529, Note_off_c, 0, 80, 52
1, 510584, Note_on_c, 0, 71, 38
1, 510704, Note_off_c, 0, 71, 38
1, 510902, Note_on_c, 0, 85, 67
1, 511233, Control_c, 0, 64, 95
1, 511234, Note_on_c, 0, 47, 40
1, 511248, Control_c, 0, 64, 75
1, 511262, Control_c, 0, 64, 58
1, 511277, Control_c, 0, 64, 20
1, 511292, Control_c, 0, 64, 0
1, 511307, Control_c, 0, 64, 40
1, 511321, Control_c, 0, 64, 63
1, 511336, Control_c, 0, 64, 74
1, 511351, Control_c, 0, 64, 92
1, 511365, Note_off_c, 0, 47, 36
1, 511366, Control_c, 0, 64, 127
1, 511537, Note_on_c, 0, 55, 35
1, 511604, Note_off_c, 0, 55, 40
1, 511680, Note_on_c, 0, 64, 40
1, 511741, Note_off_c, 0, 64, 61
1, 512244, Note_on_c, 0, 70, 27
1, 512454, Note_off_c, 0, 70, 37
1, 512733, Note_off_c, 0, 85, 59
1, 513011, Note_on_c, 0, 84, 53
1, 513057, Note_off_c, 0, 84, 57
1, 513184, Note_on_c, 0, 84, 60
1, 513538, Control_c, 0, 64, 103
1, 513553, Control_c, 0, 64, 85
1, 513557, Note_on_c, 0, 47, 31
1, 513568, Control_c, 0, 64, 69
1, 513582, Control_c, 0, 64, 54
1, 513597, Control_c, 0, 64, 38
1, 513612, Control_c, 0, 64, 45
1, 513627, Control_c, 0, 64, 56
1, 513642, Control_c, 0, 64, 65
1, 513656, Control_c, 0, 64, 73
1, 513671, Control_c, 0, 64, 87
1, 513686, Control_c, 0, 64, 111
1, 513697, Note_off_c, 0, 47, 42
1, 513701, Control_c, 0, 64, 127
1, 513979, Note_on_c, 0, 56, 19
1, 514071, Note_on_c, 0, 64, 39
1, 514094, Note_off_c, 0, 56, 40
1, 514213, Note_off_c, 0, 64, 41
1, 514664, Note_on_c, 0, 71, 19
1, 514770, Note_off_c, 0, 71, 39
1, 516266, Note_on_c, 0, 83, 46
1, 516394, Note_off_c, 0, 84, 35
1, 516753, Note_on_c, 0, 76, 52
1, 516814, Control_c, 0, 64, 124
1, 516829, Control_c, 0, 64, 121
1, 516844, Control_c, 0, 64, 118
1, 516859, Control_c, 0, 64, 115
1, 516873, Control_c, 0, 64, 112
1, 516888, Note_off_c, 0, 83, 55
1, 516888, Control_c, 0, 64, 112
1, 516903, Control_c, 0, 64, 111
1, 516977, Control_c, 0, 64, 111
1, 516992, Control_c, 0, 64, 110
1, 517006, Control_c, 0, 64, 108
1, 517021, Control_c, 0, 64, 106
1, 517036, Control_c, 0, 64, 102
1, 517050, Control_c, 0, 64, 99
1, 517065, Control_c, 0, 64, 97
1, 517080, Control_c, 0, 64, 95
1, 517095, Control_c, 0, 64, 92
1, 517110, Control_c, 0, 64, 90
1, 517125, Control_c, 0, 64, 88
1, 517140, Control_c, 0, 64, 86
1, 517146, Note_on_c, 0, 78, 70
1, 517155, Control_c, 0, 64, 85
1, 517177, Control_c, 0, 64, 83
1, 517192, Control_c, 0, 64, 82
1, 517206, Note_off_c, 0, 76, 55
1, 517206, Control_c, 0, 64, 81
1, 517221, Control_c, 0, 64, 79
1, 517236, Control_c, 0, 64, 76
1, 517250, Control_c, 0, 64, 75
1, 517265, Control_c, 0, 64, 73
1, 517280, Control_c, 0, 64, 71
1, 517295, Control_c, 0, 64, 70
1, 517310, Control_c, 0, 64, 70
1, 517324, Control_c, 0, 64, 69
1, 517339, Control_c, 0, 64, 70
1, 517547, Note_on_c, 0, 80, 73
1, 517563, Control_c, 0, 64, 69
1, 517593, Control_c, 0, 64, 67
1, 517602, Note_off_c, 0, 78, 60
1, 517608, Control_c, 0, 64, 64
1, 517623, Control_c, 0, 64, 61
1, 517637, Control_c, 0, 64, 58
1, 517652, Control_c, 0, 64, 57
1, 517667, Control_c, 0, 64, 56
1, 517682, Control_c, 0, 64, 55
1, 517697, Control_c, 0, 64, 53
1, 517712, Control_c, 0, 64, 52
1, 517771, Control_c, 0, 64, 52
1, 517786, Control_c, 0, 64, 53
1, 517801, Control_c, 0, 64, 55
1, 517816, Control_c, 0, 64, 57
1, 517830, Control_c, 0, 64, 59
1, 517845, Control_c, 0, 64, 62
1, 517860, Control_c, 0, 64, 65
1, 517874, Control_c, 0, 64, 69
1, 517889, Control_c, 0, 64, 76
1, 517900, Note_on_c, 0, 47, 30
1, 517904, Control_c, 0, 64, 84
1, 517927, Control_c, 0, 64, 93
1, 517941, Control_c, 0, 64, 100
1, 517956, Control_c, 0, 64, 104
1, 517971, Control_c, 0, 64, 107
1, 517971, Note_off_c, 0, 47, 42
1, 517986, Control_c, 0, 64, 112
1, 518001, Control_c, 0, 64, 127
1, 518302, Note_on_c, 0, 56, 15
1, 518346, Note_on_c, 0, 64, 36
1, 518370, Note_off_c, 0, 56, 40
1, 518418, Note_off_c, 0, 64, 0
1, 518418, Note_on_c, 0, 64, 3
1, 518541, Note_off_c, 0, 64, 40
1, 518734, Note_on_c, 0, 71, 39
1, 518755, Note_off_c, 0, 80, 61
1, 518842, Note_off_c, 0, 71, 35
1, 519092, Note_on_c, 0, 85, 73
1, 519493, Note_on_c, 0, 47, 35
1, 519527, Control_c, 0, 64, 100
1, 519542, Control_c, 0, 64, 82
1, 519557, Control_c, 0, 64, 66
1, 519572, Control_c, 0, 64, 50
1, 519587, Control_c, 0, 64, 35
1, 519601, Control_c, 0, 64, 42
1, 519616, Control_c, 0, 64, 58
1, 519631, Control_c, 0, 64, 67
1, 519646, Control_c, 0, 64, 77
1, 519650, Note_off_c, 0, 47, 39
1, 519660, Control_c, 0, 64, 96
1, 519675, Control_c, 0, 64, 127
1, 519847, Note_on_c, 0, 55, 34
1, 519974, Note_off_c, 0, 55, 35
1, 520020, Note_on_c, 0, 64, 27
1, 520240, Note_off_c, 0, 64, 40
1, 520515, Note_on_c, 0, 70, 33
1, 520684, Note_off_c, 0, 70, 44
1, 520803, Note_off_c, 0, 85, 54
1, 521190, Note_on_c, 0, 84, 59
1, 521252, Note_off_c, 0, 84, 62
1, 521358, Note_on_c, 0, 84, 64
1, 521793, Note_on_c, 0, 47, 42
1, 521834, Control_c, 0, 64, 116
1, 521848, Control_c, 0, 64, 99
1, 521863, Control_c, 0, 64, 84
1, 521878, Control_c, 0, 64, 71
1, 521893, Control_c, 0, 64, 60
1, 521908, Control_c, 0, 64, 52
1, 521922, Control_c, 0, 64, 57
1, 521937, Control_c, 0, 64, 63
1, 521952, Control_c, 0, 64, 69
1, 521967, Control_c, 0, 64, 79
1, 521975, Note_off_c, 0, 47, 42
1, 521982, Control_c, 0, 64, 97
1, 521996, Control_c, 0, 64, 127
1, 522354, Note_on_c, 0, 56, 31
1, 522400, Note_on_c, 0, 64, 44
1, 522478, Note_off_c, 0, 56, 35
1, 522664, Note_off_c, 0, 64, 21
1, 523092, Note_on_c, 0, 71, 23
1, 523291, Note_off_c, 0, 71, 33
1, 524711, Note_on_c, 0, 83, 29
1, 524786, Note_off_c, 0, 84, 52
1, 525178, Note_on_c, 0, 76, 44
1, 525229, Control_c, 0, 64, 124
1, 525244, Control_c, 0, 64, 119
1, 525259, Control_c, 0, 64, 115
1, 525273, Control_c, 0, 64, 112
1, 525288, Control_c, 0, 64, 108
1, 525303, Control_c, 0, 64, 105
1, 525318, Control_c, 0, 64, 103
1, 525326, Note_off_c, 0, 83, 41
1, 525334, Control_c, 0, 64, 101
1, 525349, Control_c, 0, 64, 100
1, 525363, Control_c, 0, 64, 99
1, 525378, Control_c, 0, 64, 98
1, 525393, Control_c, 0, 64, 97
1, 525415, Control_c, 0, 64, 95
1, 525430, Control_c, 0, 64, 93
1, 525444, Control_c, 0, 64, 90
1, 525459, Control_c, 0, 64, 87
1, 525474, Control_c, 0, 64, 84
1, 525489, Control_c, 0, 64, 81
1, 525504, Control_c, 0, 64, 77
1, 525519, Control_c, 0, 64, 74
1, 525534, Control_c, 0, 64, 71
1, 525549, Control_c, 0, 64, 68
1, 525563, Control_c, 0, 64, 67
1, 525578, Control_c, 0, 64, 66
1, 525584, Note_on_c, 0, 78, 60
1, 525623, Note_off_c, 0, 76, 52
1, 525637, Control_c, 0, 64, 66
1, 525652, Control_c, 0, 64, 65
1, 525667, Control_c, 0, 64, 65
1, 525682, Control_c, 0, 64, 64
1, 525696, Control_c, 0, 64, 63
1, 525711, Control_c, 0, 64, 62
1, 525726, Control_c, 0, 64, 60
1, 525741, Control_c, 0, 64, 58
1, 525756, Control_c, 0, 64, 56
1, 525770, Control_c, 0, 64, 56
1, 525785, Control_c, 0, 64, 57
1, 525800, Control_c, 0, 64, 61
1, 525815, Control_c, 0, 64, 65
1, 525830, Control_c, 0, 64, 70
1, 525844, Control_c, 0, 64, 79
1, 525859, Control_c, 0, 64, 90
1, 525874, Control_c, 0, 64, 102
1, 525888, Note_off_c, 0, 78, 50
1, 525889, Control_c, 0, 64, 108
1, 525903, Control_c, 0, 64, 108
1, 525976, Control_c, 0, 64, 108
1, 525991, Control_c, 0, 64, 105
1, 526005, Note_on_c, 0, 80, 66
1, 526006, Control_c, 0, 64, 100
1, 526020, Control_c, 0, 64, 91
1, 526035, Control_c, 0, 64, 81
1, 526050, Control_c, 0, 64, 71
1, 526065, Control_c, 0, 64, 63
1, 526080, Control_c, 0, 64, 54
1, 526094, Control_c, 0, 64, 47
1, 526124, Control_c, 0, 64, 48
1, 526140, Control_c, 0, 64, 48
1, 526163, Control_c, 0, 64, 49
1, 526178, Control_c, 0, 64, 51
1, 526192, Control_c, 0, 64, 55
1, 526207, Control_c, 0, 64, 60
1, 526222, Control_c, 0, 64, 63
1, 526237, Control_c, 0, 64, 66
1, 526252, Control_c, 0, 64, 69
1, 526266, Control_c, 0, 64, 74
1, 526281, Control_c, 0, 64, 81
1, 526296, Control_c, 0, 64, 91
1, 526310, Control_c, 0, 64, 98
1, 526325, Control_c, 0, 64, 102
1, 526340, Control_c, 0, 64, 104
1, 526355, Control_c, 0, 64, 105
1, 526370, Control_c, 0, 64, 108
1, 526385, Control_c, 0, 64, 113
1, 526391, Note_on_c, 0, 47, 40
1, 526399, Control_c, 0, 64, 120
1, 526414, Control_c, 0, 64, 127
1, 526464, Note_off_c, 0, 47, 52
1, 526767, Note_on_c, 0, 53, 26
1, 526880, Note_on_c, 0, 62, 31
1, 526930, Note_off_c, 0, 53, 43
1, 526960, Note_on_c, 0, 92, 81
1, 527105, Note_off_c, 0, 62, 38
1, 527477, Note_on_c, 0, 68, 30
1, 527603, Note_off_c, 0, 68, 48
1, 528480, Note_on_c, 0, 46, 37
1, 528610, Note_off_c, 0, 80, 56
1, 528619, Note_off_c, 0, 92, 62
1, 528849, Note_on_c, 0, 52, 37
1, 528913, Control_c, 0, 64, 124
1, 528928, Control_c, 0, 64, 105
1, 528943, Control_c, 0, 64, 89
1, 528950, Note_on_c, 0, 61, 44
1, 528952, Note_on_c, 0, 91, 66
1, 528958, Control_c, 0, 64, 71
1, 528970, Note_on_c, 0, 79, 39
1, 528973, Control_c, 0, 64, 56
1, 528987, Control_c, 0, 64, 15
1, 529002, Control_c, 0, 64, 0
1, 529046, Control_c, 0, 64, 46
1, 529061, Control_c, 0, 64, 64
1, 529076, Control_c, 0, 64, 74
1, 529089, Note_off_c, 0, 46, 52
1, 529091, Control_c, 0, 64, 86
1, 529093, Note_off_c, 0, 52, 57
1, 529105, Control_c, 0, 64, 96
1, 529120, Control_c, 0, 64, 101
1, 529135, Control_c, 0, 64, 104
1, 529158, Control_c, 0, 64, 107
1, 529173, Control_c, 0, 64, 113
1, 529187, Control_c, 0, 64, 127
1, 529194, Note_off_c, 0, 91, 59
1, 529195, Note_off_c, 0, 79, 39
1, 529202, Note_off_c, 0, 61, 41
1, 529437, Note_on_c, 0, 67, 35
1, 529484, Note_off_c, 0, 67, 52
1, 529803, Note_on_c, 0, 85, 66
1, 529814, Note_on_c, 0, 73, 37
1, 530190, Note_on_c, 0, 51, 39
1, 530218, Control_c, 0, 64, 102
1, 530232, Control_c, 0, 64, 81
1, 530247, Control_c, 0, 64, 65
1, 530262, Control_c, 0, 64, 48
1, 530276, Control_c, 0, 64, 39
1, 530291, Control_c, 0, 64, 50
1, 530306, Control_c, 0, 64, 60
1, 530321, Control_c, 0, 64, 67
1, 530336, Control_c, 0, 64, 77
1, 530351, Control_c, 0, 64, 93
1, 530366, Control_c, 0, 64, 127
1, 530428, Note_off_c, 0, 51, 41
1, 530456, Note_off_c, 0, 85, 62
1, 530481, Note_off_c, 0, 73, 41
1, 530566, Note_on_c, 0, 57, 39
1, 530593, Note_on_c, 0, 66, 44
1, 530662, Note_on_c, 0, 84, 68
1, 530676, Note_on_c, 0, 72, 42
1, 530757, Note_off_c, 0, 66, 41
1, 530785, Note_off_c, 0, 72, 43
1, 530882, Note_off_c, 0, 57, 31
1, 530991, Note_on_c, 0, 60, 42
1, 531035, Note_off_c, 0, 60, 60
1, 531341, Note_on_c, 0, 50, 40
1, 531353, Note_off_c, 0, 84, 21
1, 531367, Control_c, 0, 64, 95
1, 531379, Note_on_c, 0, 89, 67
1, 531382, Control_c, 0, 64, 73
1, 531388, Note_on_c, 0, 77, 44
1, 531404, Control_c, 0, 64, 51
1, 531419, Control_c, 0, 64, 0
1, 531463, Control_c, 0, 64, 47
1, 531478, Control_c, 0, 64, 64
1, 531493, Control_c, 0, 64, 74
1, 531508, Control_c, 0, 64, 84
1, 531522, Control_c, 0, 64, 92
1, 531529, Note_off_c, 0, 50, 53
1, 531537, Control_c, 0, 64, 93
1, 531544, Note_off_c, 0, 77, 48
1, 531544, Note_off_c, 0, 89, 63
1, 531552, Control_c, 0, 64, 94
1, 531582, Control_c, 0, 64, 94
1, 531597, Control_c, 0, 64, 95
1, 531612, Control_c, 0, 64, 95
1, 531627, Control_c, 0, 64, 96
1, 531641, Control_c, 0, 64, 97
1, 531656, Control_c, 0, 64, 98
1, 531671, Control_c, 0, 64, 98
1, 531686, Control_c, 0, 64, 99
1, 531701, Control_c, 0, 64, 100
1, 531715, Control_c, 0, 64, 100
1, 531746, Control_c, 0, 64, 101
1, 531761, Control_c, 0, 64, 101
1, 531776, Control_c, 0, 64, 102
1, 531791, Control_c, 0, 64, 102
1, 531805, Control_c, 0, 64, 103
1, 531820, Control_c, 0, 64, 104
1, 531835, Control_c, 0, 64, 105
1, 531849, Control_c, 0, 64, 105
1, 531864, Control_c, 0, 64, 106
1, 531879, Control_c, 0, 64, 106
1, 531894, Control_c, 0, 64, 107
1, 531909, Control_c, 0, 64, 108
1, 531923, Control_c, 0, 64, 109
1, 531938, Control_c, 0, 64, 110
1, 531953, Control_c, 0, 64, 111
1, 531968, Control_c, 0, 64, 112
1, 531983, Control_c, 0, 64, 112
1, 531985, Note_on_c, 0, 83, 65
1, 531999, Note_on_c, 0, 65, 36
1, 532004, Note_on_c, 0, 71, 47
1, 532051, Note_off_c, 0, 65, 47
1, 532056, Control_c, 0, 64, 113
1, 532101, Control_c, 0, 64, 113
1, 532116, Control_c, 0, 64, 114
1, 532330, Control_c, 0, 64, 113
1, 532345, Control_c, 0, 64, 109
1, 532360, Control_c, 0, 64, 98
1, 532372, Note_on_c, 0, 49, 47
1, 532375, Control_c, 0, 64, 84
1, 532390, Control_c, 0, 64, 70
1, 532405, Control_c, 0, 64, 51
1, 532420, Control_c, 0, 64, 18
1, 532435, Control_c, 0, 64, 13
1, 532450, Control_c, 0, 64, 39
1, 532464, Control_c, 0, 64, 58
1, 532479, Control_c, 0, 64, 67
1, 532494, Control_c, 0, 64, 78
1, 532509, Control_c, 0, 64, 89
1, 532520, Note_off_c, 0, 49, 54
1, 532524, Control_c, 0, 64, 97
1, 532539, Control_c, 0, 64, 100
1, 532545, Note_off_c, 0, 71, 41
1, 532554, Control_c, 0, 64, 101
1, 532569, Control_c, 0, 64, 102
1, 532584, Control_c, 0, 64, 106
1, 532599, Control_c, 0, 64, 111
1, 532613, Control_c, 0, 64, 119
1, 532628, Control_c, 0, 64, 127
1, 532634, Note_off_c, 0, 83, 53
1, 532767, Note_on_c, 0, 65, 37
1, 532773, Note_on_c, 0, 82, 68
1, 532787, Note_on_c, 0, 70, 44
1, 532802, Note_off_c, 0, 65, 53
1, 533124, Control_c, 0, 64, 117
1, 533139, Control_c, 0, 64, 108
1, 533150, Note_on_c, 0, 48, 38
1, 533153, Control_c, 0, 64, 95
1, 533168, Control_c, 0, 64, 77
1, 533183, Control_c, 0, 64, 63
1, 533198, Control_c, 0, 64, 36
1, 533213, Control_c, 0, 64, 0
1, 533242, Control_c, 0, 64, 34
1, 533257, Control_c, 0, 64, 61
1, 533272, Control_c, 0, 64, 71
1, 533287, Control_c, 0, 64, 82
1, 533302, Control_c, 0, 64, 96
1, 533317, Control_c, 0, 64, 103
1, 533332, Control_c, 0, 64, 105
1, 533362, Control_c, 0, 64, 106
1, 533377, Control_c, 0, 64, 108
1, 533392, Control_c, 0, 64, 111
1, 533406, Note_off_c, 0, 82, 50
1, 533406, Control_c, 0, 64, 112
1, 533421, Note_off_c, 0, 70, 44
1, 533421, Control_c, 0, 64, 113
1, 533436, Control_c, 0, 64, 114
1, 533451, Control_c, 0, 64, 115
1, 533517, Note_on_c, 0, 81, 62
1, 533525, Note_on_c, 0, 60, 19
1, 533534, Note_on_c, 0, 69, 41
1, 533540, Control_c, 0, 64, 115
1, 533555, Control_c, 0, 64, 116
1, 533576, Poly_aftertouch_c, 0, 53, 127
1, 533584, Control_c, 0, 64, 116
1, 533613, Note_off_c, 0, 48, 57
1, 533666, Note_off_c, 0, 60, 28
1, 533693, Poly_aftertouch_c, 0, 53, 0
1, 533858, Control_c, 0, 64, 115
1, 533873, Control_c, 0, 64, 113
1, 533888, Control_c, 0, 64, 106
1, 533902, Control_c, 0, 64, 91
1, 533907, Note_on_c, 0, 47, 48
1, 533917, Control_c, 0, 64, 75
1, 533932, Control_c, 0, 64, 58
1, 533947, Control_c, 0, 64, 16
1, 533962, Control_c, 0, 64, 0
1, 534006, Control_c, 0, 64, 49
1, 534020, Control_c, 0, 64, 65
1, 534035, Control_c, 0, 64, 73
1, 534050, Control_c, 0, 64, 81
1, 534058, Note_off_c, 0, 69, 41
1, 534065, Note_off_c, 0, 81, 57
1, 534065, Control_c, 0, 64, 86
1, 534080, Control_c, 0, 64, 87
1, 534110, Control_c, 0, 64, 88
1, 534125, Control_c, 0, 64, 89
1, 534140, Control_c, 0, 64, 91
1, 534155, Control_c, 0, 64, 93
1, 534170, Control_c, 0, 64, 95
1, 534185, Control_c, 0, 64, 97
1, 534199, Control_c, 0, 64, 98
1, 534214, Control_c, 0, 64, 99
1, 534229, Control_c, 0, 64, 100
1, 534244, Control_c, 0, 64, 101
1, 534259, Control_c, 0, 64, 102
1, 534274, Control_c, 0, 64, 102
1, 534289, Control_c, 0, 64, 103
1, 534304, Control_c, 0, 64, 104
1, 534319, Control_c, 0, 64, 104
1, 534333, Control_c, 0, 64, 105
1, 534345, Note_on_c, 0, 80, 62
1, 534351, Note_on_c, 0, 68, 44
1, 534352, Note_on_c, 0, 53, 38
1, 534368, Note_on_c, 0, 61, 20
1, 534414, Control_c, 0, 64, 105
1, 534503, Control_c, 0, 64, 106
1, 534566, Note_off_c, 0, 47, 35
1, 534569, Note_off_c, 0, 61, 36
1, 534622, Control_c, 0, 64, 107
1, 534784, Control_c, 0, 64, 106
1, 534787, Note_off_c, 0, 53, 41
1, 534799, Control_c, 0, 64, 105
1, 534814, Control_c, 0, 64, 103
1, 534817, Note_on_c, 0, 46, 54
1, 534829, Control_c, 0, 64, 99
1, 534843, Control_c, 0, 64, 93
1, 534858, Control_c, 0, 64, 83
1, 534873, Control_c, 0, 64, 69
1, 534888, Control_c, 0, 64, 52
1, 534903, Control_c, 0, 64, 0
1, 534963, Control_c, 0, 64, 14
1, 534978, Control_c, 0, 64, 52
1, 534993, Control_c, 0, 64, 64
1, 535008, Control_c, 0, 64, 69
1, 535022, Control_c, 0, 64, 73
1, 535037, Control_c, 0, 64, 76
1, 535052, Control_c, 0, 64, 77
1, 535067, Control_c, 0, 64, 78
1, 535082, Control_c, 0, 64, 80
1, 535097, Control_c, 0, 64, 83
1, 535111, Control_c, 0, 64, 86
1, 535126, Control_c, 0, 64, 89
1, 535148, Control_c, 0, 64, 92
1, 535149, Note_off_c, 0, 68, 43
1, 535163, Control_c, 0, 64, 95
1, 535178, Control_c, 0, 64, 96
1, 535193, Control_c, 0, 64, 98
1, 535208, Control_c, 0, 64, 99
1, 535223, Control_c, 0, 64, 100
1, 535237, Control_c, 0, 64, 101
1, 535252, Control_c, 0, 64, 102
1, 535267, Control_c, 0, 64, 102
1, 535281, Control_c, 0, 64, 103
1, 535295, Note_off_c, 0, 80, 34
1, 535326, Control_c, 0, 64, 103
1, 535398, Note_on_c, 0, 61, 37
1, 535400, Control_c, 0, 64, 104
1, 535410, Note_on_c, 0, 54, 21
1, 535460, Control_c, 0, 64, 104
1, 535466, Note_off_c, 0, 54, 42
1, 535474, Control_c, 0, 64, 105
1, 535508, Note_off_c, 0, 61, 31
1, 535696, Control_c, 0, 64, 105
1, 536104, Control_c, 0, 64, 105
1, 536107, Note_off_c, 0, 46, 38
1, 536134, Control_c, 0, 64, 104
1, 536149, Control_c, 0, 64, 103
1, 536164, Control_c, 0, 64, 102
1, 536169, Note_on_c, 0, 45, 35
1, 536176, Note_on_c, 0, 85, 60
1, 536179, Control_c, 0, 64, 99
1, 536194, Control_c, 0, 64, 94
1, 536203, Note_on_c, 0, 73, 42
1, 536208, Control_c, 0, 64, 85
1, 536223, Control_c, 0, 64, 73
1, 536238, Control_c, 0, 64, 61
1, 536253, Control_c, 0, 64, 33
1, 536268, Control_c, 0, 64, 0
1, 536327, Control_c, 0, 64, 41
1, 536342, Control_c, 0, 64, 58
1, 536357, Control_c, 0, 64, 65
1, 536371, Control_c, 0, 64, 70
1, 536386, Control_c, 0, 64, 74
1, 536401, Control_c, 0, 64, 77
1, 536416, Control_c, 0, 64, 79
1, 536430, Control_c, 0, 64, 81
1, 536445, Control_c, 0, 64, 83
1, 536447, Note_off_c, 0, 45, 41
1, 536460, Control_c, 0, 64, 85
1, 536475, Control_c, 0, 64, 87
1, 536490, Control_c, 0, 64, 89
1, 536504, Control_c, 0, 64, 91
1, 536520, Control_c, 0, 64, 92
1, 536535, Control_c, 0, 64, 92
1, 536565, Control_c, 0, 64, 93
1, 536594, Control_c, 0, 64, 93
1, 536839, Control_c, 0, 64, 94
1, 537001, Note_on_c, 0, 54, 31
1, 537001, Control_c, 0, 64, 94
1, 537016, Note_on_c, 0, 61, 20
1, 537076, Control_c, 0, 64, 95
1, 537088, Note_off_c, 0, 61, 38
1, 537089, Note_off_c, 0, 54, 33
1, 537106, Control_c, 0, 64, 95
1, 537150, Control_c, 0, 64, 96
1, 537210, Control_c, 0, 64, 96
1, 537988, Control_c, 0, 64, 96
1, 538002, Control_c, 0, 64, 95
1, 538017, Control_c, 0, 64, 94
1, 538032, Control_c, 0, 64, 92
1, 538047, Control_c, 0, 64, 87
1, 538062, Control_c, 0, 64, 76
1, 538065, Note_on_c, 0, 43, 40
1, 538076, Control_c, 0, 64, 64
1, 538091, Control_c, 0, 64, 38
1, 538106, Control_c, 0, 64, 0
1, 538203, Control_c, 0, 64, 23
1, 538218, Control_c, 0, 64, 57
1, 538233, Note_off_c, 0, 73, 46
1, 538233, Control_c, 0, 64, 66
1, 538243, Note_off_c, 0, 85, 54
1, 538247, Control_c, 0, 64, 71
1, 538262, Control_c, 0, 64, 75
1, 538277, Control_c, 0, 64, 77
1, 538292, Control_c, 0, 64, 79
1, 538307, Control_c, 0, 64, 82
1, 538322, Control_c, 0, 64, 87
1, 538337, Control_c, 0, 64, 92
1, 538352, Control_c, 0, 64, 98
1, 538357, Note_off_c, 0, 43, 55
1, 538366, Control_c, 0, 64, 105
1, 538381, Control_c, 0, 64, 115
1, 538396, Control_c, 0, 64, 127
1, 538934, Note_on_c, 0, 58, 28
1, 538936, Note_on_c, 0, 52, 34
1, 538939, Note_on_c, 0, 61, 28
1, 539025, Note_off_c, 0, 52, 56
1, 539061, Note_off_c, 0, 58, 40
1, 539088, Note_off_c, 0, 61, 40
1, 539848, Note_on_c, 0, 85, 67
1, 539868, Note_on_c, 0, 73, 45
1, 539932, Note_off_c, 0, 73, 0
1, 539932, Note_on_c, 0, 73, 9
1, 541011, Control_c, 0, 64, 124
1, 541026, Control_c, 0, 64, 106
1, 541028, Note_on_c, 0, 36, 33
1, 541041, Control_c, 0, 64, 94
1, 541056, Control_c, 0, 64, 82
1, 541071, Control_c, 0, 64, 67
1, 541085, Control_c, 0, 64, 53
1, 541100, Control_c, 0, 64, 20
1, 541115, Control_c, 0, 64, 0
1, 541153, Control_c, 0, 64, 12
1, 541167, Control_c, 0, 64, 37
1, 541182, Control_c, 0, 64, 56
1, 541197, Control_c, 0, 64, 63
1, 541212, Control_c, 0, 64, 67
1, 541226, Control_c, 0, 64, 71
1, 541241, Control_c, 0, 64, 75
1, 541252, Note_off_c, 0, 36, 50
1, 541256, Control_c, 0, 64, 79
1, 541271, Control_c, 0, 64, 84
1, 541286, Control_c, 0, 64, 87
1, 541300, Control_c, 0, 64, 90
1, 541316, Control_c, 0, 64, 94
1, 541331, Control_c, 0, 64, 97
1, 541346, Control_c, 0, 64, 101
1, 541361, Control_c, 0, 64, 106
1, 541376, Control_c, 0, 64, 112
1, 541390, Control_c, 0, 64, 118
1, 541405, Control_c, 0, 64, 127
1, 542091, Note_on_c, 0, 52, 30
1, 542093, Note_on_c, 0, 58, 33
1, 542094, Note_on_c, 0, 64, 31
1, 542666, Note_off_c, 0, 73, 40
1, 542698, Note_off_c, 0, 85, 33
1, 544084, Note_on_c, 0, 84, 37
1, 544096, Note_on_c, 0, 72, 29
1, 544432, Note_off_c, 0, 72, 37
1, 544470, Note_off_c, 0, 64, 34
1, 544534, Note_off_c, 0, 58, 29
1, 544675, Note_off_c, 0, 84, 41
1, 544916, Note_off_c, 0, 52, 34
1, 546557, Control_c, 0, 64, 102
1, 546572, Control_c, 0, 64, 82
1, 546587, Note_on_c, 0, 29, 35
1, 546587, Control_c, 0, 64, 64
1, 546589, Note_on_c, 0, 41, 47
1, 546602, Control_c, 0, 64, 25
1, 546617, Control_c, 0, 64, 0
1, 546636, Note_off_c, 0, 41, 59
1, 546708, Note_on_c, 0, 39, 40
1, 546751, Note_off_c, 0, 39, 49
1, 546817, Note_on_c, 0, 37, 38
1, 546856, Note_off_c, 0, 37, 51
1, 546943, Note_on_c, 0, 39, 30
1, 546977, Note_off_c, 0, 39, 52
1, 547038, Note_on_c, 0, 37, 48
1, 547077, Note_off_c, 0, 37, 54
1, 547169, Note_on_c, 0, 36, 43
1, 547199, Note_off_c, 0, 36, 56
1, 547274, Note_on_c, 0, 41, 54
1, 547314, Note_off_c, 0, 41, 62
1, 547391, Note_on_c, 0, 39, 40
1, 547428, Note_off_c, 0, 39, 54
1, 547510, Note_on_c, 0, 37, 36
1, 547545, Note_off_c, 0, 37, 54
1, 547713, Poly_aftertouch_c, 0, 39, 0
1, 547753, Note_on_c, 0, 37, 31
1, 547789, Note_off_c, 0, 37, 53
1, 547878, Note_on_c, 0, 36, 33
1, 547909, Note_off_c, 0, 36, 49
1, 547977, Note_on_c, 0, 41, 54
1, 548017, Note_off_c, 0, 41, 63
1, 548088, Note_on_c, 0, 39, 52
1, 548127, Note_off_c, 0, 39, 65
1, 548200, Note_on_c, 0, 37, 49
1, 548230, Note_off_c, 0, 37, 58
1, 548316, Note_on_c, 0, 39, 45
1, 548340, Note_off_c, 0, 29, 57
1, 548346, Note_off_c, 0, 39, 59
1, 548418, Note_on_c, 0, 37, 35
1, 548463, Note_off_c, 0, 37, 49
1, 548518, Note_on_c, 0, 36, 51
1, 548545, Note_off_c, 0, 36, 59
1, 548651, Note_on_c, 0, 41, 57
1, 548694, Note_off_c, 0, 41, 60
1, 548770, Note_on_c, 0, 39, 48
1, 548805, Note_off_c, 0, 39, 63
1, 548863, Note_on_c, 0, 37, 52
1, 548904, Note_off_c, 0, 37, 58
1, 548971, Note_on_c, 0, 39, 48
1, 549009, Note_off_c, 0, 39, 64
1, 549077, Note_on_c, 0, 37, 49
1, 549128, Note_off_c, 0, 37, 62
1, 549179, Note_on_c, 0, 36, 49
1, 549213, Note_off_c, 0, 36, 62
1, 549235, Note_on_c, 0, 48, 57
1, 549240, Note_on_c, 0, 57, 46
1, 549245, Note_on_c, 0, 53, 42
1, 549265, Note_off_c, 0, 57, 57
1, 549273, Note_off_c, 0, 48, 63
1, 549274, Note_off_c, 0, 53, 56
1, 549326, Note_on_c, 0, 29, 54
1, 549331, Note_on_c, 0, 41, 51
1, 549344, Note_on_c, 0, 57, 63
1, 549358, Note_on_c, 0, 53, 48
1, 549358, Note_off_c, 0, 29, 48
1, 549367, Note_on_c, 0, 48, 47
1, 549383, Note_off_c, 0, 41, 62
1, 549455, Note_on_c, 0, 39, 58
1, 549500, Note_off_c, 0, 39, 61
1, 549570, Note_on_c, 0, 37, 56
1, 549605, Note_off_c, 0, 37, 64
1, 549688, Note_on_c, 0, 39, 57
1, 549731, Note_off_c, 0, 39, 60
1, 549775, Control_c, 0, 64, 43
1, 549789, Control_c, 0, 64, 62
1, 549804, Control_c, 0, 64, 69
1, 549816, Note_on_c, 0, 37, 49
1, 549819, Control_c, 0, 64, 75
1, 549834, Control_c, 0, 64, 79
1, 549849, Control_c, 0, 64, 83
1, 549864, Control_c, 0, 64, 86
1, 549869, Note_off_c, 0, 37, 58
1, 549879, Control_c, 0, 64, 89
1, 549894, Control_c, 0, 64, 93
1, 549909, Control_c, 0, 64, 97
1, 549912, Note_off_c, 0, 53, 63
1, 549924, Control_c, 0, 64, 101
1, 549936, Note_on_c, 0, 36, 51
1, 549939, Control_c, 0, 64, 106
1, 549953, Control_c, 0, 64, 117
1, 549962, Note_off_c, 0, 57, 20
1, 549968, Control_c, 0, 64, 127
1, 549968, Note_off_c, 0, 36, 54
1, 550012, Note_off_c, 0, 48, 41
1, 550057, Control_c, 0, 64, 94
1, 550064, Note_on_c, 0, 57, 68
1, 550066, Note_on_c, 0, 41, 57
1, 550072, Control_c, 0, 64, 74
1, 550077, Note_on_c, 0, 53, 58
1, 550081, Note_on_c, 0, 49, 64
1, 550087, Control_c, 0, 64, 57
1, 550102, Control_c, 0, 64, 0
1, 550139, Note_off_c, 0, 41, 53
1, 550197, Note_on_c, 0, 39, 58
1, 550246, Note_off_c, 0, 39, 61
1, 550308, Note_on_c, 0, 37, 58
1, 550346, Note_off_c, 0, 37, 63
1, 550429, Note_on_c, 0, 39, 55
1, 550469, Note_off_c, 0, 39, 62
1, 550540, Control_c, 0, 64, 25
1, 550552, Note_on_c, 0, 37, 45
1, 550554, Control_c, 0, 64, 56
1, 550569, Control_c, 0, 64, 66
1, 550584, Control_c, 0, 64, 73
1, 550595, Note_off_c, 0, 37, 57
1, 550598, Control_c, 0, 64, 80
1, 550613, Control_c, 0, 64, 85
1, 550617, Note_off_c, 0, 53, 53
1, 550627, Control_c, 0, 64, 89
1, 550642, Control_c, 0, 64, 95
1, 550657, Control_c, 0, 64, 103
1, 550671, Control_c, 0, 64, 116
1, 550673, Note_on_c, 0, 36, 45
1, 550686, Control_c, 0, 64, 127
1, 550696, Note_off_c, 0, 57, 28
1, 550705, Note_off_c, 0, 36, 53
1, 550722, Note_off_c, 0, 49, 52
1, 550789, Control_c, 0, 64, 116
1, 550804, Note_on_c, 0, 41, 50
1, 550804, Control_c, 0, 64, 90
1, 550819, Control_c, 0, 64, 73
1, 550830, Note_on_c, 0, 57, 58
1, 550834, Control_c, 0, 64, 57
1, 550845, Note_on_c, 0, 48, 44
1, 550848, Note_off_c, 0, 41, 54
1, 550849, Control_c, 0, 64, 0
1, 550854, Note_on_c, 0, 53, 49
1, 550946, Note_on_c, 0, 39, 46
1, 550979, Note_off_c, 0, 39, 63
1, 551050, Note_on_c, 0, 37, 53
1, 551081, Note_off_c, 0, 37, 63
1, 551179, Note_on_c, 0, 39, 54
1, 551215, Note_off_c, 0, 39, 64
1, 551295, Note_on_c, 0, 37, 54
1, 551328, Note_off_c, 0, 37, 63
1, 551416, Note_on_c, 0, 36, 53
1, 551444, Note_off_c, 0, 36, 58
1, 551523, Note_on_c, 0, 41, 61
1, 551539, Control_c, 0, 64, 31
1, 551553, Control_c, 0, 64, 51
1, 551562, Note_off_c, 0, 41, 64
1, 551568, Control_c, 0, 64, 60
1, 551583, Control_c, 0, 64, 62
1, 551598, Control_c, 0, 64, 62
1, 551605, Note_off_c, 0, 53, 63
1, 551620, Control_c, 0, 64, 62
1, 551635, Control_c, 0, 64, 63
1, 551650, Note_on_c, 0, 39, 60
1, 551650, Control_c, 0, 64, 64
1, 551664, Control_c, 0, 64, 66
1, 551668, Note_off_c, 0, 48, 61
1, 551679, Control_c, 0, 64, 67
1, 551688, Note_off_c, 0, 39, 62
1, 551695, Control_c, 0, 64, 69
1, 551705, Note_off_c, 0, 57, 55
1, 551710, Control_c, 0, 64, 70
1, 551724, Control_c, 0, 64, 72
1, 551739, Control_c, 0, 64, 72
1, 551754, Control_c, 0, 64, 73
1, 551759, Note_on_c, 0, 37, 54
1, 551799, Control_c, 0, 64, 72
1, 551802, Note_off_c, 0, 37, 59
1, 551813, Control_c, 0, 64, 68
1, 551828, Control_c, 0, 64, 63
1, 551843, Control_c, 0, 64, 53
1, 551854, Note_on_c, 0, 53, 71
1, 551858, Control_c, 0, 64, 45
1, 551860, Note_on_c, 0, 48, 62
1, 551867, Note_on_c, 0, 45, 58
1, 551873, Note_on_c, 0, 39, 56
1, 551873, Control_c, 0, 64, 51
1, 551888, Control_c, 0, 64, 60
1, 551888, Note_off_c, 0, 48, 66
1, 551897, Note_off_c, 0, 45, 64
1, 551903, Control_c, 0, 64, 67
1, 551918, Control_c, 0, 64, 75
1, 551926, Note_off_c, 0, 39, 59
1, 551927, Note_off_c, 0, 53, 64
1, 551932, Control_c, 0, 64, 84
1, 551947, Control_c, 0, 64, 92
1, 551962, Control_c, 0, 64, 96
1, 551976, Control_c, 0, 64, 97
1, 551987, Note_on_c, 0, 37, 50
1, 551991, Control_c, 0, 64, 97
1, 552006, Control_c, 0, 64, 98
1, 552065, Control_c, 0, 64, 98
1, 552077, Note_off_c, 0, 37, 57
1, 552099, Note_on_c, 0, 36, 38
1, 552107, Note_on_c, 0, 57, 74
1, 552117, Note_on_c, 0, 53, 66
1, 552124, Control_c, 0, 64, 96
1, 552125, Note_on_c, 0, 48, 61
1, 552136, Note_off_c, 0, 36, 43
1, 552139, Control_c, 0, 64, 88
1, 552149, Note_off_c, 0, 53, 64
1, 552153, Note_off_c, 0, 48, 68
1, 552154, Control_c, 0, 64, 76
1, 552168, Control_c, 0, 64, 63
1, 552169, Note_off_c, 0, 57, 59
1, 552183, Control_c, 0, 64, 34
1, 552198, Control_c, 0, 64, 0
1, 552212, Note_on_c, 0, 60, 81
1, 552224, Note_on_c, 0, 53, 55
1, 552224, Note_on_c, 0, 57, 45
1, 552225, Note_on_c, 0, 29, 55
1, 552228, Note_on_c, 0, 48, 57
1, 552231, Note_on_c, 0, 41, 54
1, 552257, Note_off_c, 0, 29, 47
1, 552271, Note_off_c, 0, 41, 61
1, 552347, Note_on_c, 0, 39, 60
1, 552396, Note_off_c, 0, 39, 61
1, 552464, Note_on_c, 0, 37, 59
1, 552499, Note_off_c, 0, 37, 63
1, 552562, Control_c, 0, 64, 24
1, 552577, Control_c, 0, 64, 47
1, 552582, Note_on_c, 0, 39, 59
1, 552592, Control_c, 0, 64, 57
1, 552606, Control_c, 0, 64, 63
1, 552607, Note_off_c, 0, 60, 60
1, 552621, Note_off_c, 0, 48, 56
1, 552621, Control_c, 0, 64, 68
1, 552636, Control_c, 0, 64, 74
1, 552645, Note_off_c, 0, 39, 61
1, 552651, Note_off_c, 0, 57, 55
1, 552651, Control_c, 0, 64, 82
1, 552666, Control_c, 0, 64, 90
1, 552681, Control_c, 0, 64, 97
1, 552696, Control_c, 0, 64, 104
1, 552701, Note_on_c, 0, 37, 60
1, 552703, Note_off_c, 0, 53, 35
1, 552711, Control_c, 0, 64, 115
1, 552726, Control_c, 0, 64, 127
1, 552752, Note_off_c, 0, 37, 58
1, 552834, Note_on_c, 0, 36, 55
1, 552878, Note_off_c, 0, 36, 58
1, 552967, Note_on_c, 0, 61, 79
1, 552974, Note_on_c, 0, 53, 65
1, 552977, Note_on_c, 0, 41, 57
1, 552977, Note_on_c, 0, 49, 64
1, 552977, Note_on_c, 0, 57, 64
1, 552977, Control_c, 0, 64, 111
1, 552991, Control_c, 0, 64, 89
1, 553006, Control_c, 0, 64, 71
1, 553021, Control_c, 0, 64, 57
1, 553027, Note_off_c, 0, 41, 56
1, 553036, Control_c, 0, 64, 14
1, 553051, Control_c, 0, 64, 0
1, 553092, Note_on_c, 0, 39, 54
1, 553134, Note_off_c, 0, 39, 65
1, 553210, Note_on_c, 0, 37, 55
1, 553244, Note_off_c, 0, 37, 62
1, 553329, Note_on_c, 0, 39, 58
1, 553373, Note_off_c, 0, 39, 61
1, 553414, Control_c, 0, 64, 35
1, 553429, Control_c, 0, 64, 58
1, 553444, Control_c, 0, 64, 67
1, 553451, Note_on_c, 0, 37, 52
1, 553459, Control_c, 0, 64, 73
1, 553474, Control_c, 0, 64, 79
1, 553481, Note_off_c, 0, 53, 50
1, 553487, Note_off_c, 0, 37, 63
1, 553489, Control_c, 0, 64, 81
1, 553502, Note_off_c, 0, 49, 49
1, 553504, Control_c, 0, 64, 83
1, 553519, Control_c, 0, 64, 84
1, 553533, Control_c, 0, 64, 87
1, 553548, Control_c, 0, 64, 89
1, 553557, Note_off_c, 0, 61, 37
1, 553563, Control_c, 0, 64, 92
1, 553566, Note_on_c, 0, 36, 56
1, 553578, Control_c, 0, 64, 96
1, 553593, Control_c, 0, 64, 99
1, 553597, Note_off_c, 0, 36, 58
1, 553608, Control_c, 0, 64, 101
1, 553623, Control_c, 0, 64, 102
1, 553668, Control_c, 0, 64, 101
1, 553680, Note_off_c, 0, 57, 0
1, 553683, Control_c, 0, 64, 95
1, 553697, Note_on_c, 0, 57, 24
1, 553697, Note_on_c, 0, 60, 68
1, 553697, Control_c, 0, 64, 84
1, 553698, Note_on_c, 0, 41, 56
1, 553712, Control_c, 0, 64, 71
1, 553716, Note_on_c, 0, 48, 46
1, 553727, Control_c, 0, 64, 57
1, 553729, Note_on_c, 0, 53, 36
1, 553741, Control_c, 0, 64, 12
1, 553749, Note_off_c, 0, 41, 56
1, 553756, Control_c, 0, 64, 0
1, 553820, Note_on_c, 0, 39, 57
1, 553855, Note_off_c, 0, 39, 65
1, 553937, Note_on_c, 0, 37, 60
1, 553972, Note_off_c, 0, 37, 64
1, 554058, Note_on_c, 0, 39, 62
1, 554100, Note_off_c, 0, 39, 62
1, 554173, Note_on_c, 0, 37, 62
1, 554210, Note_off_c, 0, 37, 64
1, 554295, Note_on_c, 0, 36, 64
1, 554326, Note_off_c, 0, 36, 63
1, 554410, Note_on_c, 0, 41, 61
1, 554452, Note_off_c, 0, 41, 61
1, 554514, Note_off_c, 0, 53, 58
1, 554520, Control_c, 0, 64, 44
1, 554522, Note_on_c, 0, 39, 54
1, 554535, Control_c, 0, 64, 60
1, 554541, Note_off_c, 0, 48, 39
1, 554550, Control_c, 0, 64, 64
1, 554556, Note_off_c, 0, 39, 67
1, 554556, Note_off_c, 0, 57, 41
1, 554563, Note_off_c, 0, 60, 38
1, 554564, Control_c, 0, 64, 65
1, 554594, Control_c, 0, 64, 65
1, 554616, Control_c, 0, 64, 66
1, 554631, Control_c, 0, 64, 68
1, 554635, Note_on_c, 0, 37, 55
1, 554645, Control_c, 0, 64, 70
1, 554660, Control_c, 0, 64, 71
1, 554675, Control_c, 0, 64, 72
1, 554683, Note_off_c, 0, 37, 56
1, 554705, Control_c, 0, 64, 73
1, 554720, Control_c, 0, 64, 74
1, 554735, Control_c, 0, 64, 77
1, 554741, Note_on_c, 0, 57, 70
1, 554748, Note_on_c, 0, 39, 61
1, 554750, Control_c, 0, 64, 81
1, 554751, Note_on_c, 0, 48, 60
1, 554759, Note_on_c, 0, 53, 42
1, 554765, Control_c, 0, 64, 86
1, 554773, Note_off_c, 0, 48, 61
1, 554779, Control_c, 0, 64, 90
1, 554787, Note_off_c, 0, 53, 53
1, 554794, Control_c, 0, 64, 94
1, 554798, Note_off_c, 0, 57, 62
1, 554806, Note_off_c, 0, 39, 59
1, 554809, Control_c, 0, 64, 97
1, 554824, Control_c, 0, 64, 100
1, 554839, Control_c, 0, 64, 103
1, 554853, Control_c, 0, 64, 106
1, 554864, Note_on_c, 0, 37, 54
1, 554868, Control_c, 0, 64, 112
1, 554883, Control_c, 0, 64, 122
1, 554899, Control_c, 0, 64, 127
1, 554948, Note_off_c, 0, 37, 0
1, 554975, Poly_aftertouch_c, 0, 37, 0
1, 554982, Note_on_c, 0, 36, 48
1, 554995, Note_on_c, 0, 60, 77
1, 555003, Note_on_c, 0, 57, 67
1, 555009, Note_on_c, 0, 53, 57
1, 555010, Note_off_c, 0, 36, 56
1, 555027, Note_off_c, 0, 57, 68
1, 555028, Note_off_c, 0, 53, 64
1, 555032, Control_c, 0, 64, 124
1, 555047, Control_c, 0, 64, 97
1, 555062, Control_c, 0, 64, 80
1, 555076, Control_c, 0, 64, 65
1, 555087, Note_off_c, 0, 60, 0
1, 555090, Note_on_c, 0, 65, 81
1, 555091, Note_on_c, 0, 53, 70
1, 555091, Control_c, 0, 64, 30
1, 555098, Note_on_c, 0, 29, 68
1, 555101, Note_on_c, 0, 60, 35
1, 555104, Note_on_c, 0, 41, 61
1, 555106, Control_c, 0, 64, 0
1, 555109, Note_on_c, 0, 57, 64
1, 555130, Note_off_c, 0, 29, 62
1, 555154, Note_off_c, 0, 41, 58
1, 555224, Note_on_c, 0, 39, 59
1, 555258, Note_off_c, 0, 39, 65
1, 555334, Note_on_c, 0, 37, 59
1, 555375, Note_off_c, 0, 37, 63
1, 555455, Note_on_c, 0, 39, 61
1, 555488, Note_off_c, 0, 39, 65
1, 555527, Control_c, 0, 64, 33
1, 555527, Control_c, 0, 67, 115
1, 555542, Control_c, 0, 64, 58
1, 555542, Control_c, 0, 67, 93
1, 555557, Control_c, 0, 64, 68
1, 555557, Control_c, 0, 67, 68
1, 555566, Note_on_c, 0, 37, 56
1, 555572, Control_c, 0, 64, 76
1, 555572, Control_c, 0, 67, 48
1, 555587, Control_c, 0, 64, 85
1, 555587, Control_c, 0, 67, 30
1, 555601, Control_c, 0, 64, 90
1, 555601, Control_c, 0, 67, 15
1, 555602, Note_off_c, 0, 37, 61
1, 555616, Control_c, 0, 64, 95
1, 555616, Control_c, 0, 67, 0
1, 555625, Note_off_c, 0, 60, 57
1, 555631, Control_c, 0, 64, 102
1, 555643, Note_off_c, 0, 57, 51
1, 555646, Control_c, 0, 64, 121
1, 555654, Note_off_c, 0, 65, 58
1, 555661, Control_c, 0, 64, 127
1, 555687, Note_off_c, 0, 53, 36
1, 555689, Note_on_c, 0, 36, 59
1, 555720, Note_off_c, 0, 36, 62
1, 555810, Note_on_c, 0, 65, 76
1, 555810, Control_c, 0, 64, 112
1, 555818, Note_on_c, 0, 41, 57
1, 555820, Note_on_c, 0, 53, 62
1, 555821, Note_on_c, 0, 57, 61
1, 555825, Control_c, 0, 64, 87
1, 555826, Note_on_c, 0, 61, 67
1, 555840, Control_c, 0, 64, 69
1, 555855, Control_c, 0, 64, 47
1, 555858, Note_off_c, 0, 41, 61
1, 555870, Control_c, 0, 64, 0
1, 555914, Control_c, 0, 64, 43
1, 555927, Note_on_c, 0, 39, 58
1, 555929, Control_c, 0, 64, 61
1, 555943, Control_c, 0, 64, 69
1, 555958, Control_c, 0, 64, 76
1, 555960, Note_off_c, 0, 39, 64
1, 555973, Control_c, 0, 64, 80
1, 555988, Control_c, 0, 64, 81
1, 556003, Control_c, 0, 64, 82
1, 556017, Control_c, 0, 64, 82
1, 556032, Control_c, 0, 64, 84
1, 556037, Note_on_c, 0, 37, 63
1, 556047, Control_c, 0, 64, 86
1, 556062, Control_c, 0, 64, 89
1, 556067, Note_off_c, 0, 37, 64
1, 556077, Control_c, 0, 64, 92
1, 556091, Control_c, 0, 64, 95
1, 556106, Control_c, 0, 64, 97
1, 556129, Control_c, 0, 64, 99
1, 556143, Control_c, 0, 64, 102
1, 556158, Control_c, 0, 64, 107
1, 556164, Note_on_c, 0, 39, 62
1, 556169, Note_off_c, 0, 57, 58
1, 556173, Control_c, 0, 64, 115
1, 556175, Note_off_c, 0, 53, 57
1, 556188, Control_c, 0, 64, 127
1, 556198, Note_off_c, 0, 39, 64
1, 556233, Note_off_c, 0, 65, 62
1, 556257, Note_off_c, 0, 61, 59
1, 556272, Note_on_c, 0, 37, 61
1, 556302, Note_off_c, 0, 37, 65
1, 556397, Note_on_c, 0, 36, 44
1, 556427, Note_on_c, 0, 35, 17
1, 556428, Note_off_c, 0, 36, 51
1, 556471, Note_off_c, 0, 35, 41
1, 556500, Control_c, 0, 64, 94
1, 556510, Note_on_c, 0, 41, 69
1, 556512, Note_on_c, 0, 29, 73
1, 556514, Control_c, 0, 64, 70
1, 556518, Note_on_c, 0, 69, 80
1, 556528, Note_on_c, 0, 57, 65
1, 556529, Note_on_c, 0, 60, 60
1, 556529, Control_c, 0, 64, 18
1, 556530, Note_on_c, 0, 65, 58
1, 556538, Note_off_c, 0, 41, 64
1, 556543, Note_off_c, 0, 29, 60
1, 556544, Control_c, 0, 64, 0
1, 556574, Control_c, 0, 64, 39
1, 556589, Control_c, 0, 64, 62
1, 556604, Control_c, 0, 64, 73
1, 556617, Note_on_c, 0, 39, 77
1, 556619, Control_c, 0, 64, 86
1, 556627, Note_on_c, 0, 27, 71
1, 556634, Control_c, 0, 64, 98
1, 556649, Control_c, 0, 64, 100
1, 556650, Note_off_c, 0, 39, 63
1, 556652, Note_off_c, 0, 27, 61
1, 556678, Control_c, 0, 64, 100
1, 556735, Note_on_c, 0, 25, 81
1, 556738, Control_c, 0, 64, 98
1, 556738, Note_on_c, 0, 37, 71
1, 556753, Control_c, 0, 64, 88
1, 556762, Note_off_c, 0, 25, 65
1, 556765, Note_off_c, 0, 37, 65
1, 556767, Control_c, 0, 64, 73
1, 556782, Control_c, 0, 64, 52
1, 556797, Control_c, 0, 64, 0
1, 556827, Control_c, 0, 64, 18
1, 556841, Control_c, 0, 64, 59
1, 556851, Note_on_c, 0, 39, 77
1, 556856, Control_c, 0, 64, 72
1, 556857, Note_on_c, 0, 27, 76
1, 556878, Control_c, 0, 64, 88
1, 556886, Note_off_c, 0, 39, 66
1, 556891, Note_off_c, 0, 27, 65
1, 556893, Control_c, 0, 64, 111
1, 556908, Control_c, 0, 64, 127
1, 556922, Note_off_c, 0, 60, 53
1, 556968, Note_on_c, 0, 37, 72
1, 556975, Note_off_c, 0, 69, 41
1, 557003, Note_off_c, 0, 57, 37
1, 557010, Note_off_c, 0, 65, 53
1, 557072, Note_on_c, 0, 24, 78
1, 557090, Note_off_c, 0, 37, 57
1, 557101, Note_off_c, 0, 24, 63
1, 557160, Control_c, 0, 64, 108
1, 557174, Control_c, 0, 64, 68
1, 557189, Control_c, 0, 64, 0
1, 557203, Note_on_c, 0, 69, 95
1, 557206, Note_on_c, 0, 57, 92
1, 557208, Note_on_c, 0, 29, 74
1, 557209, Note_on_c, 0, 61, 84
1, 557215, Note_on_c, 0, 65, 82
1, 557218, Note_on_c, 0, 41, 66
1, 557234, Note_off_c, 0, 29, 63
1, 557242, Note_off_c, 0, 41, 59
1, 557248, Control_c, 0, 64, 26
1, 557263, Control_c, 0, 64, 68
1, 557278, Control_c, 0, 64, 100
1, 557294, Control_c, 0, 64, 127
1, 557322, Note_off_c, 0, 61, 58
1, 557325, Note_off_c, 0, 57, 59
1, 557331, Note_on_c, 0, 39, 73
1, 557334, Note_on_c, 0, 27, 71
1, 557358, Note_off_c, 0, 39, 66
1, 557361, Note_off_c, 0, 27, 61
1, 557370, Note_off_c, 0, 65, 62
1, 557397, Note_off_c, 0, 69, 63
1, 557432, Note_on_c, 0, 25, 83
1, 557435, Note_on_c, 0, 37, 75
1, 557458, Note_off_c, 0, 25, 65
1, 557461, Note_off_c, 0, 37, 65
1, 557543, Note_on_c, 0, 39, 88
1, 557550, Note_on_c, 0, 27, 80
1, 557570, Note_off_c, 0, 39, 70
1, 557576, Note_off_c, 0, 27, 65
1, 557662, Note_on_c, 0, 37, 81
1, 557680, Note_on_c, 0, 25, 58
1, 557713, Note_off_c, 0, 25, 52
1, 557772, Note_on_c, 0, 24, 91
1, 557797, Note_off_c, 0, 37, 53
1, 557806, Note_off_c, 0, 24, 64
1, 557850, Control_c, 0, 64, 103
1, 557864, Control_c, 0, 64, 63
1, 557879, Control_c, 0, 64, 0
1, 557892, Note_on_c, 0, 72, 96
1, 557895, Note_on_c, 0, 60, 95
1, 557895, Note_on_c, 0, 65, 91
1, 557898, Note_on_c, 0, 69, 91
1, 557909, Note_on_c, 0, 29, 67
1, 557912, Note_on_c, 0, 28, 72
1, 557914, Note_on_c, 0, 41, 70
1, 557923, Control_c, 0, 64, 64
1, 557936, Note_off_c, 0, 29, 63
1, 557936, Note_off_c, 0, 41, 65
1, 557938, Control_c, 0, 64, 127
1, 557941, Note_off_c, 0, 28, 62
1, 558000, Note_off_c, 0, 60, 57
1, 558008, Note_off_c, 0, 72, 63
1, 558038, Note_on_c, 0, 27, 74
1, 558042, Note_on_c, 0, 39, 60
1, 558056, Note_off_c, 0, 69, 62
1, 558061, Note_off_c, 0, 65, 61
1, 558063, Note_off_c, 0, 39, 62
1, 558067, Note_off_c, 0, 27, 64
1, 558126, Note_on_c, 0, 25, 85
1, 558126, Note_on_c, 0, 37, 76
1, 558159, Note_off_c, 0, 37, 66
1, 558160, Note_off_c, 0, 25, 65
1, 558238, Note_on_c, 0, 39, 96
1, 558243, Note_on_c, 0, 73, 96
1, 558244, Note_on_c, 0, 27, 91
1, 558246, Note_on_c, 0, 61, 95
1, 558250, Note_on_c, 0, 69, 89
1, 558251, Note_on_c, 0, 65, 85
1, 558268, Note_off_c, 0, 27, 69
1, 558279, Note_off_c, 0, 39, 66
1, 558285, Note_off_c, 0, 65, 63
1, 558302, Note_off_c, 0, 61, 64
1, 558333, Note_off_c, 0, 69, 67
1, 558349, Note_off_c, 0, 73, 60
1, 558354, Note_on_c, 0, 37, 91
1, 558372, Note_on_c, 0, 25, 78
1, 558398, Note_off_c, 0, 25, 66
1, 558456, Note_off_c, 0, 37, 37
1, 558466, Note_on_c, 0, 24, 94
1, 558501, Note_off_c, 0, 24, 63
1, 558553, Control_c, 0, 64, 93
1, 558568, Control_c, 0, 64, 60
1, 558574, Note_on_c, 0, 77, 96
1, 558577, Note_on_c, 0, 29, 91
1, 558577, Note_on_c, 0, 65, 102
1, 558580, Note_on_c, 0, 69, 92
1, 558580, Note_on_c, 0, 72, 92
1, 558583, Control_c, 0, 64, 0
1, 558585, Note_on_c, 0, 41, 90
1, 558609, Note_off_c, 0, 41, 69
1, 558619, Note_off_c, 0, 29, 61
1, 558621, Note_on_c, 0, 34, 37
1, 558628, Control_c, 0, 64, 75
1, 558643, Control_c, 0, 64, 127
1, 558657, Note_off_c, 0, 69, 65
1, 558658, Note_off_c, 0, 34, 33
1, 558663, Note_off_c, 0, 65, 63
1, 558697, Note_on_c, 0, 27, 93
1, 558697, Note_on_c, 0, 39, 80
1, 558700, Note_off_c, 0, 72, 67
1, 558723, Note_off_c, 0, 39, 72
1, 558726, Note_off_c, 0, 27, 65
1, 558728, Note_off_c, 0, 77, 58
1, 558799, Note_on_c, 0, 37, 90
1, 558804, Note_on_c, 0, 25, 90
1, 558831, Note_off_c, 0, 25, 66
1, 558832, Note_off_c, 0, 37, 65
1, 558910, Note_on_c, 0, 39, 99
1, 558914, Note_on_c, 0, 27, 90
1, 558914, Note_on_c, 0, 81, 107
1, 558915, Note_on_c, 0, 69, 98
1, 558919, Note_on_c, 0, 73, 101
1, 558944, Note_off_c, 0, 27, 67
1, 558949, Note_off_c, 0, 39, 65
1, 558992, Note_off_c, 0, 69, 61
1, 559010, Note_off_c, 0, 73, 59
1, 559021, Note_on_c, 0, 37, 100
1, 559030, Note_on_c, 0, 25, 87
1, 559035, Note_off_c, 0, 81, 58
1, 559055, Note_off_c, 0, 25, 70
1, 559087, Note_off_c, 0, 37, 58
1, 559135, Note_on_c, 0, 24, 96
1, 559175, Note_off_c, 0, 24, 64
1, 559228, Control_c, 0, 64, 71
1, 559242, Control_c, 0, 64, 0
1, 559244, Note_on_c, 0, 29, 95
1, 559245, Note_on_c, 0, 72, 101
1, 559246, Note_on_c, 0, 84, 103
1, 559248, Note_on_c, 0, 77, 101
1, 559249, Note_on_c, 0, 81, 98
1, 559254, Note_on_c, 0, 41, 92
1, 559278, Note_off_c, 0, 41, 70
1, 559287, Control_c, 0, 64, 61
1, 559288, Note_off_c, 0, 29, 63
1, 559291, Note_on_c, 0, 40, 43
1, 559292, Note_off_c, 0, 40, 127
1, 559302, Control_c, 0, 64, 127
1, 559325, Poly_aftertouch_c, 0, 40, 0
1, 559331, Note_off_c, 0, 72, 65
1, 559352, Note_off_c, 0, 84, 61
1, 559369, Note_on_c, 0, 39, 89
1, 559372, Note_on_c, 0, 27, 97
1, 559396, Note_off_c, 0, 27, 67
1, 559397, Note_off_c, 0, 39, 64
1, 559404, Note_off_c, 0, 81, 58
1, 559421, Note_off_c, 0, 77, 58
1, 559475, Note_on_c, 0, 37, 93
1, 559479, Note_on_c, 0, 25, 97
1, 559510, Note_off_c, 0, 25, 66
1, 559514, Note_off_c, 0, 37, 64
1, 559589, Note_on_c, 0, 73, 100
1, 559589, Note_on_c, 0, 85, 97
1, 559591, Note_on_c, 0, 39, 112
1, 559595, Note_on_c, 0, 81, 93
1, 559597, Note_on_c, 0, 27, 90
1, 559601, Note_on_c, 0, 77, 80
1, 559611, Note_on_c, 0, 86, 79
1, 559619, Note_off_c, 0, 27, 72
1, 559623, Note_off_c, 0, 77, 68
1, 559629, Note_off_c, 0, 39, 66
1, 559633, Note_off_c, 0, 86, 50
1, 559638, Note_on_c, 0, 30, 27
1, 559639, Note_off_c, 0, 30, 127
1, 559641, Note_on_c, 0, 28, 30
1, 559646, Note_off_c, 0, 73, 66
1, 559680, Poly_aftertouch_c, 0, 30, 0
1, 559683, Note_off_c, 0, 81, 63
1, 559684, Note_off_c, 0, 28, 46
1, 559686, Note_off_c, 0, 85, 60
1, 559700, Poly_aftertouch_c, 0, 82, 0
1, 559710, Note_on_c, 0, 37, 101
1, 559719, Note_on_c, 0, 25, 93
1, 559746, Note_off_c, 0, 25, 65
1, 559756, Note_off_c, 0, 37, 63
1, 559812, Note_on_c, 0, 24, 85
1, 559831, Note_on_c, 0, 36, 67
1, 559848, Note_on_c, 0, 35, 47
1, 559865, Note_off_c, 0, 24, 63
1, 559868, Note_off_c, 0, 36, 64
1, 559889, Note_off_c, 0, 35, 52
1, 559918, Control_c, 0, 64, 70
1, 559923, Poly_aftertouch_c, 0, 25, 0
1, 559933, Control_c, 0, 64, 0
1, 559936, Note_on_c, 0, 29, 96
1, 559940, Note_on_c, 0, 41, 100
1, 559941, Note_on_c, 0, 89, 109
1, 559944, Note_on_c, 0, 81, 104
1, 559945, Note_on_c, 0, 77, 103
1, 559956, Note_on_c, 0, 40, 76
1, 559963, Control_c, 0, 64, 27
1, 559968, Note_off_c, 0, 41, 67
1, 559977, Note_off_c, 0, 40, 63
1, 559978, Control_c, 0, 64, 90
1, 559981, Note_off_c, 0, 29, 63
1, 559983, Note_on_c, 0, 30, 27
1, 559984, Note_off_c, 0, 30, 127
1, 559987, Note_on_c, 0, 80, 19
1, 559988, Note_off_c, 0, 80, 127
1, 559992, Control_c, 0, 64, 127
1, 560017, Poly_aftertouch_c, 0, 30, 0
1, 560020, Note_off_c, 0, 77, 62
1, 560032, Note_off_c, 0, 81, 63
1, 560063, Note_on_c, 0, 39, 93
1, 560068, Note_on_c, 0, 27, 95
1, 560069, Note_off_c, 0, 89, 66
1, 560100, Note_off_c, 0, 27, 67
1, 560100, Note_off_c, 0, 39, 60
1, 560170, Note_on_c, 0, 37, 91
1, 560174, Note_on_c, 0, 25, 93
1, 560199, Note_on_c, 0, 24, 60
1, 560211, Note_off_c, 0, 37, 65
1, 560212, Note_off_c, 0, 25, 63
1, 560225, Note_off_c, 0, 24, 64
1, 560286, Note_on_c, 0, 93, 105
1, 560291, Note_on_c, 0, 39, 105
1, 560291, Note_on_c, 0, 83, 101
1, 560297, Note_on_c, 0, 27, 87
1, 560299, Note_on_c, 0, 86, 94
1, 560314, Note_off_c, 0, 93, 68
1, 560315, Note_on_c, 0, 30, 61
1, 560316, Note_off_c, 0, 30, 127
1, 560316, Note_off_c, 0, 86, 72
1, 560322, Note_off_c, 0, 39, 72
1, 560323, Note_off_c, 0, 83, 64
1, 560325, Note_off_c, 0, 27, 67
1, 560422, Note_on_c, 0, 37, 108
1, 560431, Note_on_c, 0, 25, 90
1, 560438, Poly_aftertouch_c, 0, 27, 0
1, 560445, Note_on_c, 0, 27, 44
1, 560446, Note_off_c, 0, 27, 127
1, 560461, Note_off_c, 0, 25, 66
1, 560466, Note_off_c, 0, 37, 63
1, 560536, Note_on_c, 0, 36, 97
1, 560543, Note_on_c, 0, 24, 90
1, 560557, Note_on_c, 0, 27, 44
1, 560570, Note_on_c, 0, 26, 48
1, 560571, Note_off_c, 0, 26, 127
1, 560573, Note_off_c, 0, 24, 65
1, 560577, Note_off_c, 0, 36, 62
1, 560584, Note_off_c, 0, 27, 59
1, 560617, Poly_aftertouch_c, 0, 26, 0
1, 560668, Note_on_c, 0, 37, 113
1, 560670, Note_on_c, 0, 49, 104
1, 560670, Note_on_c, 0, 61, 96
1, 560673, Note_on_c, 0, 25, 90
1, 560673, Note_on_c, 0, 57, 78
1, 560674, Note_on_c, 0, 53, 94
1, 560681, Note_on_c, 0, 29, 77
1, 560682, Note_on_c, 0, 33, 86
1, 560697, Control_c, 0, 64, 107
1, 560698, Note_on_c, 0, 34, 35
1, 560703, Note_on_c, 0, 48, 59
1, 560711, Control_c, 0, 64, 72
1, 560723, Note_off_c, 0, 48, 60
1, 560726, Control_c, 0, 64, 0
1, 560735, Note_off_c, 0, 34, 33
1, 561490, Control_c, 0, 64, 42
1, 561505, Control_c, 0, 64, 56
1, 561519, Control_c, 0, 64, 63
1, 561534, Control_c, 0, 64, 66
1, 561549, Control_c, 0, 64, 68
1, 561564, Control_c, 0, 64, 72
1, 561579, Control_c, 0, 64, 80
1, 561594, Control_c, 0, 64, 102
1, 561609, Control_c, 0, 64, 127
1, 563008, Note_off_c, 0, 33, 59
1, 563131, Note_off_c, 0, 29, 36
1, 563132, Note_off_c, 0, 49, 0
1, 563141, Note_off_c, 0, 57, 30
1, 563149, Control_c, 0, 67, 8
1, 563164, Control_c, 0, 67, 16
1, 563169, Poly_aftertouch_c, 0, 49, 127
1, 563179, Control_c, 0, 67, 28
1, 563194, Control_c, 0, 67, 39
1, 563208, Note_off_c, 0, 61, 48
1, 563208, Control_c, 0, 67, 49
1, 563223, Control_c, 0, 67, 58
1, 563238, Control_c, 0, 67, 70
1, 563253, Control_c, 0, 67, 89
1, 563268, Control_c, 0, 67, 111
1, 563282, Control_c, 0, 67, 127
1, 563310, Poly_aftertouch_c, 0, 49, 0
1, 563338, Note_off_c, 0, 25, 59
1, 563433, Note_off_c, 0, 37, 56
1, 563474, Note_off_c, 0, 53, 58
1, 563676, Note_on_c, 0, 60, 74
1, 563683, Note_on_c, 0, 24, 57
1, 563689, Note_on_c, 0, 48, 61
1, 563706, Control_c, 0, 64, 90
1, 563710, Note_on_c, 0, 36, 32
1, 563721, Note_off_c, 0, 48, 66
1, 563721, Control_c, 0, 64, 66
1, 563724, Note_off_c, 0, 60, 56
1, 563727, Note_off_c, 0, 24, 60
1, 563736, Control_c, 0, 64, 0
1, 563743, Note_off_c, 0, 36, 45
1, 563783, Note_on_c, 0, 60, 70
1, 563787, Note_on_c, 0, 48, 74
1, 563789, Note_on_c, 0, 36, 54
1, 563791, Note_on_c, 0, 29, 65
1, 563797, Note_on_c, 0, 53, 65
1, 563819, Note_off_c, 0, 48, 65
1, 563824, Note_off_c, 0, 29, 62
1, 563824, Note_off_c, 0, 53, 68
1, 563828, Note_off_c, 0, 36, 62
1, 563835, Note_off_c, 0, 60, 60
1, 565433, Note_on_c, 0, 60, 48
1, 565436, Note_on_c, 0, 29, 44
1, 565439, Note_on_c, 0, 53, 52
1, 565448, Note_on_c, 0, 48, 32
1, 565459, Note_off_c, 0, 60, 56
1, 565472, Note_off_c, 0, 53, 67
1, 565473, Note_off_c, 0, 29, 62
1, 565479, Note_off_c, 0, 48, 50
1, 567421, Note_on_c, 0, 29, 35
1, 567422, Note_on_c, 0, 41, 36
1, 567457, Note_off_c, 0, 41, 56
1, 567459, Note_off_c, 0, 29, 59
1, 571490, Control_c, 0, 64, 8
1, 571505, Control_c, 0, 64, 11
1, 571520, Control_c, 0, 64, 15
1, 571535, Control_c, 0, 64, 18
1, 571549, Control_c, 0, 64, 20
1, 571564, Control_c, 0, 64, 24
1, 571579, Control_c, 0, 64, 27
1, 571594, Control_c, 0, 64, 30
1, 571609, Control_c, 0, 64, 33
1, 571623, Control_c, 0, 64, 35
1, 571638, Control_c, 0, 64, 36
1, 571653, Control_c, 0, 64, 38
1, 571669, Control_c, 0, 64, 39
1, 571684, Control_c, 0, 64, 41
1, 571699, Control_c, 0, 64, 43
1, 571713, Control_c, 0, 64, 44
1, 571728, Control_c, 0, 64, 45
1, 571743, Control_c, 0, 64, 47
1, 571758, Control_c, 0, 64, 48
1, 571772, Control_c, 0, 64, 49
1, 571787, Control_c, 0, 64, 51
1, 571802, Control_c, 0, 64, 52
1, 571817, Control_c, 0, 64, 52
1, 571832, Control_c, 0, 64, 53
1, 571884, Control_c, 0, 64, 53
1, 571958, Control_c, 0, 64, 54
1, 572017, Control_c, 0, 64, 54
1, 572150, Control_c, 0, 64, 55
1, 572209, Control_c, 0, 64, 55
1, 572283, Control_c, 0, 64, 56
1, 572298, Control_c, 0, 64, 56
1, 572328, Control_c, 0, 64, 57
1, 572358, Control_c, 0, 64, 57
1, 572462, Control_c, 0, 64, 58
1, 572477, Control_c, 0, 64, 58
1, 572492, Control_c, 0, 64, 59
1, 572507, Control_c, 0, 64, 59
1, 572536, Control_c, 0, 67, 111
1, 572551, Control_c, 0, 67, 76
1, 572566, Control_c, 0, 67, 28
1, 572581, Control_c, 0, 67, 0
1, 572647, Control_c, 0, 64, 59
1, 572662, Control_c, 0, 64, 58
1, 572677, Control_c, 0, 64, 54
1, 572692, Control_c, 0, 64, 43
1, 572707, Control_c, 0, 64, 0
1, 572707, End_track
0, 0, End_of_file
