0, 0, Header, 0, 1, 384
1, 0, Start_track
1, 0, Title_t, "Funerailles--Reed Tetzloff      "
1, 0, Text_t, "2008 e-Piano Junior Competition recital round"
1, 0, Text_t, "recorded July 2008"
1, 0, Text_t, "http://www.piano-e-competition.com/"
1, 0, Text_t, "File processed for distribution by software from Zenph Studios, Inc., http://www.zenph.com"
1, 0, Instrument_name_t, "Yamaha Disklavier Pro Mark IV concert grand piano, model DCFIIISM4PRO"
1, 0, Sequencer_specific, 39, 67, 113, 0, 1, 0, 1, 0, 70, 117, 110, 101, 114, 97, 105, 108, 108, 101, 115, 32, 32, 32, 32, 32, 82, 101, 101, 100, 32, 84, 101, 116, 122, 108, 111, 102, 102, 32, 32, 32
1, 0, Sequencer_specific, 6, 67, 113, 0, 0, 0, 69
1, 0, System_exclusive, 21, 67, 113, 126, 21, 0, 2, 2, 0, 3, 14, 1, 4, 1, 13, 13, 10, 11, 9, 2, 7, 247
1, 0, Sequencer_specific, 5, 67, 123, 12, 2, 1
1, 0, Tempo, 512820
1, 0, Time_signature, 4, 2, 24, 8
1, 0, System_exclusive, 5, 126, 127, 9, 1, 247
1, 1, System_exclusive, 8, 67, 16, 76, 0, 0, 126, 0, 247
1, 2, System_exclusive, 8, 67, 16, 76, 8, 9, 7, 1, 247
1, 3, Control_c, 0, 0, 0
1, 3, Control_c, 1, 0, 0
1, 3, Control_c, 2, 0, 0
1, 3, Control_c, 3, 0, 0
1, 3, Control_c, 4, 0, 0
1, 3, Control_c, 5, 0, 0
1, 3, Control_c, 6, 0, 0
1, 3, Control_c, 7, 0, 0
1, 3, Control_c, 8, 0, 0
1, 3, Control_c, 9, 0, 127
1, 3, Control_c, 10, 0, 0
1, 3, Control_c, 11, 0, 0
1, 3, Control_c, 12, 0, 0
1, 3, Control_c, 13, 0, 0
1, 3, Control_c, 14, 0, 0
1, 3, Control_c, 15, 0, 0
1, 4, Control_c, 0, 32, 0
1, 4, Control_c, 1, 32, 0
1, 4, Control_c, 2, 32, 0
1, 4, Control_c, 3, 32, 0
1, 4, Control_c, 4, 32, 0
1, 4, Control_c, 5, 32, 0
1, 4, Control_c, 6, 32, 0
1, 4, Control_c, 7, 32, 0
1, 4, Control_c, 8, 32, 0
1, 4, Control_c, 9, 32, 0
1, 4, Control_c, 10, 32, 0
1, 4, Control_c, 11, 32, 0
1, 4, Control_c, 12, 32, 0
1, 4, Control_c, 13, 32, 0
1, 4, Control_c, 14, 32, 0
1, 4, Control_c, 15, 32, 0
1, 5, Program_c, 0, 0
1, 5, Program_c, 1, 0
1, 5, Program_c, 2, 0
1, 5, Program_c, 3, 0
1, 5, Program_c, 4, 0
1, 5, Program_c, 5, 0
1, 5, Program_c, 6, 0
1, 5, Program_c, 7, 0
1, 5, Program_c, 8, 0
1, 5, Program_c, 9, 0
1, 5, Program_c, 10, 0
1, 5, Program_c, 11, 0
1, 5, Program_c, 12, 0
1, 5, Program_c, 13, 0
1, 5, Program_c, 14, 0
1, 5, Program_c, 15, 0
1, 6, Control_c, 0, 7, 100
1, 6, Control_c, 1, 7, 100
1, 6, Control_c, 2, 7, 100
1, 6, Control_c, 3, 7, 100
1, 6, Control_c, 4, 7, 100
1, 6, Control_c, 5, 7, 100
1, 6, Control_c, 6, 7, 100
1, 6, Control_c, 7, 7, 100
1, 6, Control_c, 8, 7, 100
1, 6, Control_c, 9, 7, 100
1, 6, Control_c, 10, 7, 100
1, 6, Control_c, 11, 7, 100
1, 6, Control_c, 12, 7, 100
1, 6, Control_c, 13, 7, 100
1, 6, Control_c, 14, 7, 100
1, 6, Control_c, 15, 7, 100
1, 1129, Control_c, 0, 64, 65
1, 1130, Note_on_c, 0, 37, 86
1, 1144, Control_c, 0, 64, 69
1, 1159, Control_c, 0, 64, 73
1, 1173, Control_c, 0, 64, 78
1, 1188, Control_c, 0, 64, 84
1, 1203, Control_c, 0, 64, 89
1, 1218, Control_c, 0, 64, 92
1, 1233, Control_c, 0, 64, 94
1, 1248, Control_c, 0, 64, 95
1, 1263, Control_c, 0, 64, 97
1, 1278, Control_c, 0, 64, 99
1, 1299, Control_c, 0, 64, 101
1, 1314, Control_c, 0, 64, 102
1, 1329, Control_c, 0, 64, 104
1, 1344, Control_c, 0, 64, 104
1, 1359, Control_c, 0, 64, 105
1, 1373, Control_c, 0, 64, 106
1, 1388, Control_c, 0, 64, 107
1, 1403, Control_c, 0, 64, 107
1, 1418, Control_c, 0, 64, 108
1, 1433, Control_c, 0, 64, 108
1, 1448, Control_c, 0, 64, 109
1, 1462, Control_c, 0, 64, 109
1, 1804, Control_c, 0, 64, 110
1, 1878, Control_c, 0, 64, 110
1, 1907, Control_c, 0, 64, 111
1, 1952, Control_c, 0, 64, 111
1, 1996, Control_c, 0, 64, 112
1, 2026, Control_c, 0, 64, 112
1, 2063, Control_c, 0, 64, 113
1, 2093, Control_c, 0, 64, 113
1, 2122, Control_c, 0, 64, 114
1, 2166, Control_c, 0, 64, 114
1, 2180, Note_on_c, 0, 24, 88
1, 2196, Control_c, 0, 64, 115
1, 2211, Control_c, 0, 64, 115
1, 2226, Control_c, 0, 64, 116
1, 2240, Control_c, 0, 64, 117
1, 2989, Note_off_c, 0, 37, 48
1, 3293, Note_on_c, 0, 37, 85
1, 4016, Note_off_c, 0, 24, 33
1, 4363, Note_on_c, 0, 24, 84
1, 4828, Control_c, 0, 67, 10
1, 4843, Control_c, 0, 67, 15
1, 4858, Control_c, 0, 67, 24
1, 4873, Control_c, 0, 67, 34
1, 4888, Control_c, 0, 67, 45
1, 4902, Control_c, 0, 67, 55
1, 4917, Control_c, 0, 67, 66
1, 4932, Control_c, 0, 67, 75
1, 4947, Control_c, 0, 67, 86
1, 4962, Control_c, 0, 67, 96
1, 4977, Control_c, 0, 67, 106
1, 4992, Control_c, 0, 67, 115
1, 5007, Control_c, 0, 67, 121
1, 5022, Control_c, 0, 67, 127
1, 5044, Control_c, 0, 67, 127
1, 5046, Note_off_c, 0, 37, 48
1, 5296, Control_c, 0, 64, 116
1, 5326, Control_c, 0, 64, 116
1, 5355, Control_c, 0, 64, 115
1, 5384, Control_c, 0, 64, 115
1, 5414, Control_c, 0, 64, 114
1, 5429, Control_c, 0, 64, 114
1, 5444, Control_c, 0, 64, 113
1, 5488, Control_c, 0, 64, 113
1, 5503, Control_c, 0, 64, 112
1, 5518, Control_c, 0, 64, 112
1, 5532, Control_c, 0, 64, 111
1, 5547, Control_c, 0, 64, 110
1, 5562, Control_c, 0, 64, 108
1, 5577, Control_c, 0, 64, 104
1, 5579, Note_on_c, 0, 37, 66
1, 5591, Control_c, 0, 64, 96
1, 5606, Control_c, 0, 64, 88
1, 5621, Control_c, 0, 64, 78
1, 5636, Control_c, 0, 64, 68
1, 5651, Control_c, 0, 64, 42
1, 5666, Control_c, 0, 64, 0
1, 5970, Control_c, 0, 64, 16
1, 5985, Control_c, 0, 64, 40
1, 6000, Control_c, 0, 64, 47
1, 6014, Control_c, 0, 64, 52
1, 6029, Control_c, 0, 64, 55
1, 6044, Control_c, 0, 64, 57
1, 6059, Control_c, 0, 64, 59
1, 6074, Control_c, 0, 64, 60
1, 6089, Control_c, 0, 64, 62
1, 6104, Control_c, 0, 64, 63
1, 6119, Control_c, 0, 64, 64
1, 6120, Note_on_c, 0, 53, 77
1, 6133, Note_on_c, 0, 46, 69
1, 6133, Control_c, 0, 64, 64
1, 6141, Note_on_c, 0, 44, 54
1, 6148, Control_c, 0, 64, 65
1, 6163, Control_c, 0, 64, 66
1, 6178, Control_c, 0, 64, 67
1, 6193, Control_c, 0, 64, 69
1, 6207, Control_c, 0, 64, 70
1, 6222, Control_c, 0, 64, 72
1, 6237, Control_c, 0, 64, 74
1, 6252, Control_c, 0, 64, 76
1, 6267, Control_c, 0, 64, 78
1, 6281, Control_c, 0, 64, 79
1, 6296, Control_c, 0, 64, 81
1, 6311, Control_c, 0, 64, 82
1, 6325, Control_c, 0, 64, 84
1, 6340, Control_c, 0, 64, 85
1, 6355, Control_c, 0, 64, 86
1, 6371, Control_c, 0, 64, 88
1, 6386, Control_c, 0, 64, 89
1, 6400, Control_c, 0, 64, 90
1, 6415, Control_c, 0, 64, 91
1, 6430, Control_c, 0, 64, 92
1, 6445, Control_c, 0, 64, 93
1, 6460, Control_c, 0, 64, 93
1, 6474, Control_c, 0, 64, 94
1, 6504, Control_c, 0, 64, 94
1, 6533, Note_off_c, 0, 24, 39
1, 6557, Control_c, 0, 64, 95
1, 6705, Note_on_c, 0, 24, 62
1, 6894, Note_off_c, 0, 53, 57
1, 7093, Note_off_c, 0, 44, 39
1, 7209, Control_c, 0, 64, 94
1, 7223, Control_c, 0, 64, 93
1, 7238, Control_c, 0, 64, 91
1, 7253, Control_c, 0, 64, 86
1, 7261, Note_on_c, 0, 52, 63
1, 7268, Control_c, 0, 64, 78
1, 7287, Note_on_c, 0, 43, 48
1, 7290, Control_c, 0, 64, 69
1, 7294, Note_on_c, 0, 49, 51
1, 7305, Control_c, 0, 64, 51
1, 7320, Control_c, 0, 64, 0
1, 7420, Note_off_c, 0, 49, 61
1, 7436, Note_off_c, 0, 52, 64
1, 7454, Control_c, 0, 64, 47
1, 7462, Note_off_c, 0, 46, 51
1, 7469, Control_c, 0, 64, 59
1, 7475, Note_off_c, 0, 43, 32
1, 7484, Control_c, 0, 64, 62
1, 7499, Control_c, 0, 64, 64
1, 7514, Control_c, 0, 64, 66
1, 7529, Control_c, 0, 64, 67
1, 7543, Control_c, 0, 64, 69
1, 7558, Control_c, 0, 64, 71
1, 7573, Control_c, 0, 64, 73
1, 7587, Control_c, 0, 64, 75
1, 7602, Control_c, 0, 64, 77
1, 7617, Control_c, 0, 64, 78
1, 7632, Control_c, 0, 64, 78
1, 7647, Control_c, 0, 64, 79
1, 7661, Control_c, 0, 64, 80
1, 7669, Note_off_c, 0, 37, 40
1, 7676, Control_c, 0, 64, 81
1, 7691, Control_c, 0, 64, 81
1, 7706, Control_c, 0, 64, 82
1, 7750, Control_c, 0, 64, 82
1, 7856, Note_on_c, 0, 37, 76
1, 7883, Control_c, 0, 64, 81
1, 7898, Control_c, 0, 64, 80
1, 7913, Control_c, 0, 64, 79
1, 7928, Control_c, 0, 64, 77
1, 7943, Control_c, 0, 64, 75
1, 7958, Control_c, 0, 64, 72
1, 7972, Control_c, 0, 64, 70
1, 7987, Control_c, 0, 64, 69
1, 8002, Control_c, 0, 64, 68
1, 8083, Control_c, 0, 64, 69
1, 8098, Control_c, 0, 64, 69
1, 8113, Control_c, 0, 64, 70
1, 8128, Control_c, 0, 64, 71
1, 8143, Control_c, 0, 64, 72
1, 8158, Control_c, 0, 64, 73
1, 8173, Control_c, 0, 64, 74
1, 8188, Control_c, 0, 64, 75
1, 8202, Control_c, 0, 64, 76
1, 8217, Control_c, 0, 64, 77
1, 8232, Control_c, 0, 64, 78
1, 8247, Control_c, 0, 64, 79
1, 8262, Control_c, 0, 64, 79
1, 8277, Control_c, 0, 64, 80
1, 8292, Control_c, 0, 64, 81
1, 8307, Control_c, 0, 64, 81
1, 8322, Control_c, 0, 64, 82
1, 8336, Control_c, 0, 64, 82
1, 8366, Control_c, 0, 64, 83
1, 8381, Control_c, 0, 64, 83
1, 8396, Control_c, 0, 64, 84
1, 8420, Note_on_c, 0, 53, 77
1, 8429, Note_on_c, 0, 46, 66
1, 8439, Note_on_c, 0, 44, 51
1, 8455, Control_c, 0, 64, 84
1, 8484, Control_c, 0, 64, 85
1, 8528, Control_c, 0, 64, 85
1, 8721, Control_c, 0, 64, 86
1, 8759, Note_off_c, 0, 24, 35
1, 9012, Note_on_c, 0, 24, 63
1, 9114, Control_c, 0, 64, 85
1, 9225, Note_off_c, 0, 53, 51
1, 9413, Note_off_c, 0, 44, 39
1, 9454, Control_c, 0, 64, 85
1, 9536, Control_c, 0, 64, 84
1, 9565, Control_c, 0, 64, 83
1, 9580, Control_c, 0, 64, 79
1, 9595, Control_c, 0, 64, 73
1, 9605, Note_on_c, 0, 52, 55
1, 9610, Control_c, 0, 64, 65
1, 9625, Control_c, 0, 64, 37
1, 9626, Note_on_c, 0, 49, 47
1, 9630, Note_on_c, 0, 43, 38
1, 9639, Control_c, 0, 64, 0
1, 9748, Note_off_c, 0, 49, 59
1, 9757, Note_off_c, 0, 52, 62
1, 9783, Note_off_c, 0, 46, 37
1, 9785, Note_off_c, 0, 43, 44
1, 9788, Control_c, 0, 64, 42
1, 9803, Control_c, 0, 64, 56
1, 9818, Control_c, 0, 64, 62
1, 9833, Control_c, 0, 64, 64
1, 9848, Control_c, 0, 64, 66
1, 9863, Control_c, 0, 64, 69
1, 9878, Control_c, 0, 64, 71
1, 9892, Control_c, 0, 64, 74
1, 9907, Control_c, 0, 64, 77
1, 9922, Control_c, 0, 64, 78
1, 9937, Control_c, 0, 64, 78
1, 9955, Note_off_c, 0, 37, 50
1, 9967, Control_c, 0, 64, 79
1, 10011, Control_c, 0, 64, 79
1, 10189, Note_on_c, 0, 37, 60
1, 10218, Control_c, 0, 64, 79
1, 10233, Control_c, 0, 64, 78
1, 10247, Control_c, 0, 64, 75
1, 10262, Control_c, 0, 64, 70
1, 10285, Control_c, 0, 64, 64
1, 10300, Control_c, 0, 64, 51
1, 10315, Control_c, 0, 64, 45
1, 10329, Control_c, 0, 64, 55
1, 10344, Control_c, 0, 64, 62
1, 10359, Control_c, 0, 64, 65
1, 10373, Control_c, 0, 64, 67
1, 10388, Control_c, 0, 64, 68
1, 10403, Control_c, 0, 64, 70
1, 10418, Control_c, 0, 64, 72
1, 10433, Control_c, 0, 64, 74
1, 10448, Control_c, 0, 64, 77
1, 10462, Control_c, 0, 64, 78
1, 10477, Control_c, 0, 64, 80
1, 10492, Control_c, 0, 64, 81
1, 10507, Control_c, 0, 64, 82
1, 10521, Control_c, 0, 64, 83
1, 10615, Note_on_c, 0, 46, 65
1, 10615, Note_on_c, 0, 52, 70
1, 10629, Note_on_c, 0, 43, 45
1, 10662, Note_off_c, 0, 46, 59
1, 10662, Note_off_c, 0, 43, 51
1, 10700, Control_c, 0, 64, 82
1, 10715, Control_c, 0, 64, 81
1, 10717, Note_off_c, 0, 52, 58
1, 10727, Note_on_c, 0, 53, 67
1, 10730, Control_c, 0, 64, 78
1, 10743, Note_on_c, 0, 44, 59
1, 10745, Control_c, 0, 64, 72
1, 10757, Note_on_c, 0, 49, 57
1, 10760, Control_c, 0, 64, 65
1, 10775, Control_c, 0, 64, 0
1, 10863, Control_c, 0, 64, 33
1, 10877, Control_c, 0, 64, 58
1, 10892, Control_c, 0, 64, 63
1, 10907, Control_c, 0, 64, 65
1, 10921, Control_c, 0, 64, 66
1, 10936, Control_c, 0, 64, 68
1, 10951, Control_c, 0, 64, 72
1, 10966, Control_c, 0, 64, 76
1, 10981, Control_c, 0, 64, 79
1, 10995, Control_c, 0, 64, 81
1, 11010, Control_c, 0, 64, 82
1, 11033, Control_c, 0, 64, 83
1, 11033, Control_c, 0, 67, 120
1, 11044, Note_off_c, 0, 24, 40
1, 11048, Control_c, 0, 64, 85
1, 11048, Control_c, 0, 67, 107
1, 11063, Control_c, 0, 64, 87
1, 11063, Control_c, 0, 67, 92
1, 11077, Control_c, 0, 64, 89
1, 11077, Control_c, 0, 67, 76
1, 11092, Control_c, 0, 64, 90
1, 11092, Control_c, 0, 67, 58
1, 11107, Control_c, 0, 64, 91
1, 11107, Control_c, 0, 67, 44
1, 11121, Control_c, 0, 64, 91
1, 11121, Control_c, 0, 67, 30
1, 11136, Control_c, 0, 64, 92
1, 11136, Control_c, 0, 67, 18
1, 11151, Control_c, 0, 64, 92
1, 11151, Control_c, 0, 67, 9
1, 11166, Control_c, 0, 64, 93
1, 11166, Control_c, 0, 67, 0
1, 11181, Control_c, 0, 64, 93
1, 11195, Control_c, 0, 64, 94
1, 11225, Control_c, 0, 64, 94
1, 11270, Control_c, 0, 64, 95
1, 11292, Note_off_c, 0, 44, 56
1, 11299, Control_c, 0, 64, 95
1, 11302, Note_on_c, 0, 24, 68
1, 11360, Note_off_c, 0, 53, 60
1, 11404, Control_c, 0, 64, 96
1, 11407, Note_off_c, 0, 49, 34
1, 11478, Control_c, 0, 64, 96
1, 11538, Control_c, 0, 64, 97
1, 11597, Control_c, 0, 64, 97
1, 11626, Control_c, 0, 64, 98
1, 11686, Control_c, 0, 64, 98
1, 11725, Note_on_c, 0, 46, 70
1, 11727, Note_on_c, 0, 55, 72
1, 11743, Note_on_c, 0, 49, 55
1, 11785, Note_off_c, 0, 49, 57
1, 11787, Note_off_c, 0, 46, 61
1, 11799, Note_off_c, 0, 55, 59
1, 11826, Control_c, 0, 64, 98
1, 11841, Control_c, 0, 64, 96
1, 11848, Note_on_c, 0, 56, 77
1, 11856, Control_c, 0, 64, 89
1, 11861, Note_on_c, 0, 49, 66
1, 11871, Control_c, 0, 64, 78
1, 11880, Note_on_c, 0, 48, 61
1, 11886, Control_c, 0, 64, 65
1, 11900, Control_c, 0, 64, 0
1, 12004, Control_c, 0, 64, 46
1, 12018, Control_c, 0, 64, 61
1, 12033, Control_c, 0, 64, 63
1, 12048, Control_c, 0, 64, 65
1, 12063, Control_c, 0, 64, 67
1, 12078, Control_c, 0, 64, 70
1, 12092, Control_c, 0, 64, 75
1, 12107, Control_c, 0, 64, 80
1, 12122, Control_c, 0, 64, 83
1, 12137, Control_c, 0, 64, 85
1, 12153, Control_c, 0, 64, 86
1, 12156, Note_off_c, 0, 37, 58
1, 12168, Control_c, 0, 64, 87
1, 12182, Control_c, 0, 64, 88
1, 12197, Control_c, 0, 64, 89
1, 12212, Control_c, 0, 64, 91
1, 12227, Control_c, 0, 64, 92
1, 12242, Control_c, 0, 64, 93
1, 12256, Control_c, 0, 64, 93
1, 12271, Control_c, 0, 64, 94
1, 12286, Control_c, 0, 64, 95
1, 12301, Control_c, 0, 64, 96
1, 12316, Control_c, 0, 64, 97
1, 12331, Control_c, 0, 64, 98
1, 12346, Control_c, 0, 64, 98
1, 12349, Note_off_c, 0, 48, 33
1, 12361, Control_c, 0, 64, 99
1, 12375, Control_c, 0, 64, 99
1, 12405, Control_c, 0, 64, 100
1, 12411, Note_on_c, 0, 37, 66
1, 12462, Note_off_c, 0, 56, 65
1, 12479, Control_c, 0, 64, 100
1, 12565, Note_off_c, 0, 49, 55
1, 12679, Control_c, 0, 64, 101
1, 12790, Note_on_c, 0, 55, 66
1, 12802, Note_on_c, 0, 46, 57
1, 12812, Control_c, 0, 64, 100
1, 12814, Note_on_c, 0, 49, 51
1, 12827, Control_c, 0, 64, 99
1, 12840, Note_off_c, 0, 46, 62
1, 12841, Control_c, 0, 64, 95
1, 12847, Note_off_c, 0, 55, 61
1, 12856, Control_c, 0, 64, 87
1, 12859, Note_off_c, 0, 49, 56
1, 12871, Control_c, 0, 64, 75
1, 12886, Control_c, 0, 64, 63
1, 12900, Control_c, 0, 64, 0
1, 12915, Note_on_c, 0, 54, 69
1, 12919, Note_on_c, 0, 45, 58
1, 12926, Note_on_c, 0, 49, 42
1, 13035, Control_c, 0, 64, 39
1, 13046, Note_off_c, 0, 45, 63
1, 13050, Control_c, 0, 64, 60
1, 13064, Control_c, 0, 64, 63
1, 13065, Note_off_c, 0, 54, 63
1, 13079, Control_c, 0, 64, 63
1, 13094, Control_c, 0, 64, 64
1, 13100, Note_off_c, 0, 49, 62
1, 13110, Control_c, 0, 64, 64
1, 13125, Control_c, 0, 64, 65
1, 13140, Control_c, 0, 64, 65
1, 13154, Control_c, 0, 64, 66
1, 13169, Control_c, 0, 64, 67
1, 13184, Control_c, 0, 64, 68
1, 13198, Control_c, 0, 64, 69
1, 13213, Control_c, 0, 64, 70
1, 13228, Control_c, 0, 64, 71
1, 13243, Control_c, 0, 64, 72
1, 13258, Control_c, 0, 64, 72
1, 13312, Note_on_c, 0, 53, 66
1, 13324, Note_on_c, 0, 44, 47
1, 13328, Note_on_c, 0, 49, 53
1, 13339, Note_off_c, 0, 24, 39
1, 13339, Control_c, 0, 64, 72
1, 13354, Control_c, 0, 64, 70
1, 13369, Control_c, 0, 64, 68
1, 13384, Control_c, 0, 64, 65
1, 13398, Control_c, 0, 64, 59
1, 13413, Control_c, 0, 64, 30
1, 13428, Control_c, 0, 64, 0
1, 13446, Note_on_c, 0, 24, 66
1, 13547, Control_c, 0, 67, 8
1, 13562, Control_c, 0, 67, 9
1, 13577, Control_c, 0, 67, 11
1, 13591, Control_c, 0, 64, 30
1, 13591, Control_c, 0, 67, 16
1, 13606, Control_c, 0, 64, 58
1, 13606, Control_c, 0, 67, 23
1, 13621, Control_c, 0, 64, 64
1, 13621, Control_c, 0, 67, 34
1, 13636, Control_c, 0, 64, 66
1, 13636, Control_c, 0, 67, 46
1, 13651, Control_c, 0, 64, 67
1, 13651, Control_c, 0, 67, 59
1, 13665, Control_c, 0, 64, 69
1, 13665, Control_c, 0, 67, 73
1, 13680, Control_c, 0, 64, 72
1, 13680, Control_c, 0, 67, 86
1, 13695, Control_c, 0, 64, 75
1, 13695, Control_c, 0, 67, 98
1, 13710, Control_c, 0, 64, 79
1, 13710, Control_c, 0, 67, 109
1, 13724, Control_c, 0, 64, 81
1, 13724, Control_c, 0, 67, 122
1, 13736, Note_off_c, 0, 53, 55
1, 13740, Control_c, 0, 64, 83
1, 13740, Control_c, 0, 67, 127
1, 13755, Control_c, 0, 64, 84
1, 13770, Control_c, 0, 64, 85
1, 13785, Control_c, 0, 64, 86
1, 13800, Control_c, 0, 64, 87
1, 13814, Control_c, 0, 64, 87
1, 13829, Control_c, 0, 64, 88
1, 13880, Note_off_c, 0, 44, 36
1, 13977, Control_c, 0, 64, 87
1, 13992, Control_c, 0, 64, 85
1, 14007, Control_c, 0, 64, 81
1, 14029, Control_c, 0, 64, 72
1, 14039, Note_on_c, 0, 52, 55
1, 14044, Control_c, 0, 64, 60
1, 14051, Note_on_c, 0, 46, 47
1, 14059, Control_c, 0, 64, 0
1, 14062, Note_on_c, 0, 43, 36
1, 14118, Note_off_c, 0, 49, 33
1, 14186, Note_off_c, 0, 52, 63
1, 14207, Control_c, 0, 64, 61
1, 14218, Note_off_c, 0, 43, 45
1, 14221, Control_c, 0, 64, 66
1, 14228, Note_off_c, 0, 46, 58
1, 14236, Control_c, 0, 64, 68
1, 14251, Control_c, 0, 64, 70
1, 14266, Control_c, 0, 64, 72
1, 14281, Control_c, 0, 64, 75
1, 14295, Control_c, 0, 64, 78
1, 14310, Control_c, 0, 64, 81
1, 14325, Control_c, 0, 64, 82
1, 14340, Control_c, 0, 64, 83
1, 14355, Control_c, 0, 64, 83
1, 14358, Note_off_c, 0, 37, 33
1, 14370, Control_c, 0, 64, 84
1, 14385, Control_c, 0, 64, 86
1, 14400, Control_c, 0, 64, 87
1, 14400, Control_c, 0, 67, 118
1, 14414, Control_c, 0, 64, 87
1, 14414, Control_c, 0, 67, 99
1, 14429, Control_c, 0, 64, 88
1, 14429, Control_c, 0, 67, 74
1, 14444, Control_c, 0, 64, 88
1, 14444, Control_c, 0, 67, 53
1, 14459, Control_c, 0, 64, 89
1, 14459, Control_c, 0, 67, 34
1, 14474, Control_c, 0, 67, 18
1, 14489, Control_c, 0, 64, 89
1, 14489, Control_c, 0, 67, 0
1, 14622, Note_on_c, 0, 39, 81
1, 14636, Control_c, 0, 64, 88
1, 14651, Control_c, 0, 64, 84
1, 14665, Poly_aftertouch_c, 0, 26, 127
1, 14666, Control_c, 0, 64, 76
1, 14681, Control_c, 0, 64, 63
1, 14696, Control_c, 0, 64, 0
1, 14807, Control_c, 0, 64, 57
1, 14822, Control_c, 0, 64, 65
1, 14837, Control_c, 0, 64, 68
1, 14851, Control_c, 0, 64, 70
1, 14866, Control_c, 0, 64, 71
1, 14881, Control_c, 0, 64, 74
1, 14896, Control_c, 0, 64, 77
1, 14911, Control_c, 0, 64, 80
1, 14925, Control_c, 0, 64, 82
1, 14940, Control_c, 0, 64, 82
1, 14955, Control_c, 0, 64, 83
1, 14969, Control_c, 0, 64, 84
1, 14984, Control_c, 0, 64, 85
1, 14999, Control_c, 0, 64, 86
1, 15014, Control_c, 0, 64, 86
1, 15029, Control_c, 0, 64, 87
1, 15043, Control_c, 0, 64, 88
1, 15058, Control_c, 0, 64, 88
1, 15073, Control_c, 0, 64, 89
1, 15103, Control_c, 0, 64, 89
1, 15118, Control_c, 0, 64, 90
1, 15148, Control_c, 0, 64, 90
1, 15189, Note_on_c, 0, 55, 82
1, 15204, Note_on_c, 0, 48, 68
1, 15209, Note_on_c, 0, 46, 66
1, 15310, Control_c, 0, 64, 91
1, 15341, Control_c, 0, 64, 91
1, 15430, Control_c, 0, 64, 92
1, 15449, Note_off_c, 0, 24, 38
1, 15586, Control_c, 0, 64, 92
1, 15660, Control_c, 0, 64, 93
1, 15709, Poly_aftertouch_c, 0, 26, 0
1, 15733, Control_c, 0, 64, 93
1, 15744, Note_on_c, 0, 24, 82
1, 15866, Control_c, 0, 64, 94
1, 15926, Control_c, 0, 64, 94
1, 15956, Control_c, 0, 64, 95
1, 16100, Note_off_c, 0, 55, 37
1, 16188, Note_off_c, 0, 46, 34
1, 16194, Control_c, 0, 64, 94
1, 16224, Control_c, 0, 64, 94
1, 16239, Control_c, 0, 64, 93
1, 16254, Control_c, 0, 64, 93
1, 16276, Control_c, 0, 64, 91
1, 16290, Control_c, 0, 64, 88
1, 16305, Control_c, 0, 64, 81
1, 16320, Control_c, 0, 64, 69
1, 16327, Note_on_c, 0, 54, 57
1, 16335, Control_c, 0, 64, 33
1, 16338, Note_on_c, 0, 45, 45
1, 16341, Note_on_c, 0, 51, 49
1, 16349, Control_c, 0, 64, 0
1, 16468, Note_off_c, 0, 48, 59
1, 16480, Note_off_c, 0, 51, 55
1, 16480, Note_off_c, 0, 54, 62
1, 16486, Note_off_c, 0, 45, 52
1, 16528, Control_c, 0, 64, 45
1, 16542, Control_c, 0, 64, 64
1, 16557, Control_c, 0, 64, 68
1, 16572, Control_c, 0, 64, 71
1, 16587, Control_c, 0, 64, 74
1, 16602, Control_c, 0, 64, 78
1, 16616, Control_c, 0, 64, 80
1, 16631, Control_c, 0, 64, 82
1, 16646, Control_c, 0, 64, 84
1, 16653, Note_off_c, 0, 39, 35
1, 16661, Control_c, 0, 64, 85
1, 16676, Control_c, 0, 64, 86
1, 16690, Control_c, 0, 64, 87
1, 16705, Control_c, 0, 64, 88
1, 16720, Control_c, 0, 64, 89
1, 16734, Control_c, 0, 64, 89
1, 16764, Control_c, 0, 64, 90
1, 16794, Control_c, 0, 64, 90
1, 16889, Note_on_c, 0, 39, 84
1, 16910, Poly_aftertouch_c, 0, 26, 127
1, 16943, Control_c, 0, 64, 90
1, 16958, Control_c, 0, 64, 89
1, 16972, Control_c, 0, 64, 88
1, 16987, Control_c, 0, 64, 87
1, 17455, Note_on_c, 0, 55, 84
1, 17463, Note_on_c, 0, 46, 79
1, 17463, Note_on_c, 0, 48, 79
1, 17681, Poly_aftertouch_c, 0, 26, 0
1, 17682, Note_off_c, 0, 24, 39
1, 18011, Note_on_c, 0, 24, 81
1, 18173, Control_c, 0, 64, 88
1, 18233, Control_c, 0, 64, 88
1, 18311, Note_off_c, 0, 55, 55
1, 18375, Note_off_c, 0, 46, 53
1, 18521, Control_c, 0, 64, 88
1, 18537, Control_c, 0, 64, 87
1, 18552, Control_c, 0, 64, 86
1, 18567, Control_c, 0, 64, 84
1, 18582, Control_c, 0, 64, 79
1, 18597, Control_c, 0, 64, 72
1, 18612, Control_c, 0, 64, 62
1, 18618, Note_on_c, 0, 54, 57
1, 18626, Control_c, 0, 64, 0
1, 18631, Note_on_c, 0, 45, 44
1, 18635, Note_on_c, 0, 51, 41
1, 18761, Note_off_c, 0, 48, 62
1, 18773, Note_off_c, 0, 51, 60
1, 18779, Note_off_c, 0, 45, 58
1, 18787, Note_off_c, 0, 54, 62
1, 18804, Control_c, 0, 64, 39
1, 18818, Control_c, 0, 64, 61
1, 18833, Control_c, 0, 64, 65
1, 18848, Control_c, 0, 64, 68
1, 18863, Control_c, 0, 64, 70
1, 18870, Note_off_c, 0, 39, 39
1, 18878, Control_c, 0, 64, 72
1, 18892, Control_c, 0, 64, 75
1, 18907, Control_c, 0, 64, 78
1, 18922, Control_c, 0, 64, 80
1, 18937, Control_c, 0, 64, 81
1, 19056, Control_c, 0, 64, 82
1, 19085, Control_c, 0, 64, 82
1, 19115, Control_c, 0, 64, 83
1, 19144, Control_c, 0, 64, 83
1, 19197, Note_on_c, 0, 39, 78
1, 19199, Poly_aftertouch_c, 0, 26, 127
1, 19248, Control_c, 0, 64, 83
1, 19270, Control_c, 0, 64, 82
1, 19285, Control_c, 0, 64, 79
1, 19300, Control_c, 0, 64, 75
1, 19315, Control_c, 0, 64, 71
1, 19330, Control_c, 0, 64, 67
1, 19345, Control_c, 0, 64, 64
1, 19360, Control_c, 0, 64, 65
1, 19375, Control_c, 0, 64, 67
1, 19390, Control_c, 0, 64, 69
1, 19405, Control_c, 0, 64, 70
1, 19419, Control_c, 0, 64, 72
1, 19434, Control_c, 0, 64, 74
1, 19449, Control_c, 0, 64, 75
1, 19464, Control_c, 0, 64, 77
1, 19479, Control_c, 0, 64, 79
1, 19494, Control_c, 0, 64, 80
1, 19508, Control_c, 0, 64, 80
1, 19523, Control_c, 0, 64, 81
1, 19538, Control_c, 0, 64, 81
1, 19553, Control_c, 0, 64, 82
1, 19619, Note_on_c, 0, 54, 73
1, 19622, Note_on_c, 0, 48, 69
1, 19628, Note_on_c, 0, 45, 57
1, 19652, Note_off_c, 0, 45, 60
1, 19664, Note_off_c, 0, 48, 62
1, 19671, Control_c, 0, 64, 80
1, 19686, Control_c, 0, 64, 77
1, 19699, Note_off_c, 0, 54, 53
1, 19701, Control_c, 0, 64, 72
1, 19715, Control_c, 0, 64, 63
1, 19729, Note_on_c, 0, 55, 76
1, 19730, Control_c, 0, 64, 0
1, 19738, Note_on_c, 0, 46, 66
1, 19740, Note_on_c, 0, 51, 66
1, 19864, Control_c, 0, 64, 39
1, 19878, Control_c, 0, 64, 64
1, 19893, Control_c, 0, 64, 68
1, 19908, Control_c, 0, 64, 70
1, 19923, Control_c, 0, 64, 73
1, 19938, Control_c, 0, 64, 77
1, 19953, Control_c, 0, 64, 86
1, 19967, Control_c, 0, 64, 98
1, 19982, Control_c, 0, 64, 114
1, 19997, Control_c, 0, 64, 127
1, 20065, Poly_aftertouch_c, 0, 26, 0
1, 20085, Note_off_c, 0, 24, 33
1, 20293, Note_on_c, 0, 24, 85
1, 20376, Note_off_c, 0, 46, 60
1, 20390, Note_off_c, 0, 55, 61
1, 20428, Note_off_c, 0, 51, 57
1, 20689, Note_on_c, 0, 57, 80
1, 20690, Note_on_c, 0, 48, 74
1, 20702, Note_on_c, 0, 51, 66
1, 20739, Note_off_c, 0, 48, 58
1, 20742, Note_off_c, 0, 51, 53
1, 20767, Note_off_c, 0, 57, 60
1, 20820, Note_on_c, 0, 58, 82
1, 20821, Note_on_c, 0, 51, 72
1, 20835, Note_on_c, 0, 50, 70
1, 20857, Control_c, 0, 64, 112
1, 20871, Control_c, 0, 64, 91
1, 20886, Control_c, 0, 64, 70
1, 20901, Control_c, 0, 64, 0
1, 20961, Control_c, 0, 64, 51
1, 20976, Control_c, 0, 64, 67
1, 20991, Control_c, 0, 64, 74
1, 21005, Control_c, 0, 64, 80
1, 21020, Control_c, 0, 64, 84
1, 21035, Control_c, 0, 64, 86
1, 21050, Control_c, 0, 64, 87
1, 21063, Note_off_c, 0, 39, 55
1, 21065, Control_c, 0, 64, 88
1, 21080, Control_c, 0, 64, 91
1, 21095, Control_c, 0, 64, 93
1, 21110, Control_c, 0, 64, 96
1, 21125, Control_c, 0, 64, 97
1, 21139, Control_c, 0, 64, 98
1, 21154, Control_c, 0, 64, 98
1, 21169, Control_c, 0, 64, 100
1, 21184, Control_c, 0, 64, 101
1, 21199, Control_c, 0, 64, 103
1, 21213, Control_c, 0, 64, 104
1, 21228, Control_c, 0, 64, 105
1, 21243, Control_c, 0, 64, 106
1, 21258, Control_c, 0, 64, 107
1, 21273, Control_c, 0, 64, 107
1, 21287, Control_c, 0, 64, 108
1, 21317, Control_c, 0, 64, 108
1, 21401, Note_on_c, 0, 39, 79
1, 21465, Control_c, 0, 64, 109
1, 21479, Note_off_c, 0, 50, 60
1, 21516, Note_off_c, 0, 58, 59
1, 21605, Note_off_c, 0, 51, 45
1, 21763, Poly_aftertouch_c, 0, 26, 127
1, 21822, Note_on_c, 0, 57, 69
1, 21835, Note_on_c, 0, 48, 62
1, 21851, Note_on_c, 0, 51, 48
1, 21866, Note_off_c, 0, 48, 65
1, 21873, Control_c, 0, 64, 108
1, 21885, Note_off_c, 0, 57, 61
1, 21888, Note_off_c, 0, 51, 61
1, 21888, Control_c, 0, 64, 103
1, 21903, Control_c, 0, 64, 95
1, 21917, Control_c, 0, 64, 84
1, 21932, Control_c, 0, 64, 69
1, 21946, Note_on_c, 0, 56, 67
1, 21947, Control_c, 0, 64, 0
1, 21953, Note_on_c, 0, 47, 61
1, 21971, Note_on_c, 0, 51, 53
1, 22051, Control_c, 0, 64, 49
1, 22066, Control_c, 0, 64, 63
1, 22080, Control_c, 0, 64, 65
1, 22082, Note_off_c, 0, 47, 64
1, 22093, Note_off_c, 0, 56, 65
1, 22129, Note_off_c, 0, 51, 63
1, 22138, Control_c, 0, 64, 66
1, 22153, Control_c, 0, 64, 65
1, 22183, Control_c, 0, 64, 64
1, 22213, Control_c, 0, 64, 64
1, 22227, Control_c, 0, 64, 64
1, 22242, Control_c, 0, 64, 65
1, 22264, Control_c, 0, 64, 65
1, 22278, Control_c, 0, 64, 66
1, 22293, Control_c, 0, 64, 67
1, 22308, Control_c, 0, 64, 68
1, 22323, Control_c, 0, 64, 69
1, 22338, Control_c, 0, 64, 71
1, 22353, Note_on_c, 0, 55, 74
1, 22353, Control_c, 0, 64, 73
1, 22357, Note_on_c, 0, 46, 72
1, 22362, Note_on_c, 0, 51, 61
1, 22368, Control_c, 0, 64, 75
1, 22374, Note_off_c, 0, 24, 54
1, 22379, Poly_aftertouch_c, 0, 26, 0
1, 22382, Control_c, 0, 64, 77
1, 22397, Control_c, 0, 64, 78
1, 22412, Control_c, 0, 64, 78
1, 22427, Control_c, 0, 64, 79
1, 22484, Note_on_c, 0, 24, 84
1, 22516, Control_c, 0, 64, 75
1, 22531, Control_c, 0, 64, 66
1, 22546, Control_c, 0, 64, 0
1, 22636, Control_c, 0, 64, 40
1, 22651, Control_c, 0, 64, 64
1, 22665, Control_c, 0, 64, 68
1, 22680, Control_c, 0, 64, 71
1, 22695, Control_c, 0, 64, 73
1, 22709, Control_c, 0, 64, 76
1, 22724, Control_c, 0, 64, 79
1, 22739, Control_c, 0, 64, 81
1, 22754, Control_c, 0, 64, 83
1, 22769, Control_c, 0, 64, 85
1, 22783, Control_c, 0, 64, 86
1, 22792, Note_off_c, 0, 55, 53
1, 22798, Control_c, 0, 64, 87
1, 22806, Note_off_c, 0, 46, 59
1, 22813, Control_c, 0, 64, 88
1, 22828, Control_c, 0, 64, 90
1, 22844, Control_c, 0, 64, 91
1, 22858, Control_c, 0, 64, 91
1, 22873, Control_c, 0, 64, 92
1, 22932, Control_c, 0, 64, 92
1, 23029, Control_c, 0, 64, 92
1, 23058, Control_c, 0, 64, 91
1, 23073, Control_c, 0, 64, 88
1, 23088, Control_c, 0, 64, 81
1, 23102, Control_c, 0, 64, 69
1, 23110, Note_on_c, 0, 54, 54
1, 23116, Note_on_c, 0, 45, 39
1, 23117, Control_c, 0, 64, 0
1, 23130, Note_on_c, 0, 48, 49
1, 23138, Note_off_c, 0, 51, 54
1, 23272, Note_off_c, 0, 48, 58
1, 23272, Note_off_c, 0, 45, 58
1, 23280, Control_c, 0, 64, 56
1, 23295, Control_c, 0, 64, 67
1, 23298, Note_off_c, 0, 54, 62
1, 23310, Control_c, 0, 64, 74
1, 23324, Control_c, 0, 64, 80
1, 23340, Control_c, 0, 64, 85
1, 23355, Control_c, 0, 64, 87
1, 23357, Note_off_c, 0, 24, 55
1, 23370, Control_c, 0, 64, 88
1, 23385, Control_c, 0, 64, 89
1, 23400, Control_c, 0, 64, 90
1, 23401, Note_off_c, 0, 39, 59
1, 23414, Control_c, 0, 64, 91
1, 23429, Control_c, 0, 64, 92
1, 23444, Control_c, 0, 64, 92
1, 23563, Control_c, 0, 64, 93
1, 23757, Note_on_c, 0, 41, 95
1, 23778, Control_c, 0, 64, 92
1, 23792, Control_c, 0, 64, 88
1, 23807, Control_c, 0, 64, 78
1, 23822, Control_c, 0, 64, 64
1, 23837, Control_c, 0, 64, 0
1, 23896, Control_c, 0, 64, 20
1, 23911, Control_c, 0, 64, 64
1, 23925, Control_c, 0, 64, 69
1, 23940, Control_c, 0, 64, 72
1, 23955, Control_c, 0, 64, 75
1, 23970, Control_c, 0, 64, 77
1, 23985, Control_c, 0, 64, 79
1, 23999, Control_c, 0, 64, 81
1, 24014, Control_c, 0, 64, 84
1, 24029, Control_c, 0, 64, 86
1, 24044, Control_c, 0, 64, 87
1, 24058, Control_c, 0, 64, 89
1, 24073, Control_c, 0, 64, 90
1, 24088, Control_c, 0, 64, 92
1, 24103, Control_c, 0, 64, 93
1, 24118, Control_c, 0, 64, 96
1, 24134, Control_c, 0, 64, 98
1, 24148, Control_c, 0, 64, 101
1, 24163, Control_c, 0, 64, 103
1, 24178, Control_c, 0, 64, 105
1, 24193, Control_c, 0, 64, 107
1, 24204, Note_off_c, 0, 41, 61
1, 24208, Control_c, 0, 64, 109
1, 24222, Control_c, 0, 64, 110
1, 24237, Control_c, 0, 64, 111
1, 24252, Control_c, 0, 64, 111
1, 24267, Control_c, 0, 64, 112
1, 24297, Control_c, 0, 64, 112
1, 24332, Note_on_c, 0, 57, 85
1, 24339, Note_on_c, 0, 48, 79
1, 24339, Note_on_c, 0, 50, 80
1, 24386, Control_c, 0, 64, 113
1, 24919, Note_on_c, 0, 24, 97
1, 24986, Control_c, 0, 64, 107
1, 25001, Control_c, 0, 64, 94
1, 25016, Control_c, 0, 64, 76
1, 25031, Control_c, 0, 64, 0
1, 25075, Control_c, 0, 64, 57
1, 25089, Control_c, 0, 64, 67
1, 25100, Note_off_c, 0, 48, 62
1, 25104, Control_c, 0, 64, 74
1, 25119, Control_c, 0, 64, 83
1, 25134, Control_c, 0, 64, 90
1, 25149, Control_c, 0, 64, 92
1, 25164, Control_c, 0, 64, 93
1, 25178, Control_c, 0, 64, 93
1, 25208, Control_c, 0, 64, 94
1, 25223, Control_c, 0, 64, 95
1, 25238, Control_c, 0, 64, 96
1, 25259, Control_c, 0, 64, 96
1, 25295, Note_off_c, 0, 57, 60
1, 25452, Control_c, 0, 64, 95
1, 25467, Control_c, 0, 64, 91
1, 25482, Control_c, 0, 64, 82
1, 25497, Control_c, 0, 64, 68
1, 25500, Note_on_c, 0, 56, 66
1, 25508, Note_on_c, 0, 47, 54
1, 25511, Control_c, 0, 64, 0
1, 25514, Note_on_c, 0, 53, 51
1, 25637, Note_off_c, 0, 50, 60
1, 25641, Note_off_c, 0, 47, 60
1, 25647, Note_off_c, 0, 53, 63
1, 25652, Note_off_c, 0, 56, 61
1, 25659, Control_c, 0, 64, 60
1, 25674, Control_c, 0, 64, 67
1, 25689, Control_c, 0, 64, 72
1, 25703, Control_c, 0, 64, 77
1, 25719, Control_c, 0, 64, 83
1, 25734, Control_c, 0, 64, 88
1, 25738, Note_off_c, 0, 24, 61
1, 25749, Control_c, 0, 64, 90
1, 25764, Control_c, 0, 64, 91
1, 25779, Control_c, 0, 64, 92
1, 25793, Control_c, 0, 64, 93
1, 25808, Control_c, 0, 64, 95
1, 25823, Control_c, 0, 64, 95
1, 25883, Control_c, 0, 64, 96
1, 26084, Note_on_c, 0, 41, 96
1, 26453, Control_c, 0, 64, 96
1, 26468, Control_c, 0, 64, 97
1, 26498, Control_c, 0, 64, 97
1, 26513, Control_c, 0, 64, 98
1, 26529, Control_c, 0, 64, 98
1, 26543, Control_c, 0, 64, 99
1, 26558, Control_c, 0, 64, 99
1, 26573, Control_c, 0, 64, 100
1, 26588, Control_c, 0, 64, 100
1, 26603, Control_c, 0, 64, 101
1, 26647, Note_off_c, 0, 41, 34
1, 26647, Control_c, 0, 64, 101
1, 26669, Note_on_c, 0, 57, 85
1, 26673, Note_on_c, 0, 48, 76
1, 26674, Note_on_c, 0, 50, 77
1, 26706, Control_c, 0, 64, 102
1, 26758, Control_c, 0, 64, 102
1, 26803, Control_c, 0, 64, 103
1, 26847, Control_c, 0, 64, 103
1, 26876, Control_c, 0, 64, 104
1, 26921, Control_c, 0, 64, 104
1, 26950, Control_c, 0, 64, 105
1, 26980, Control_c, 0, 64, 105
1, 26995, Control_c, 0, 64, 106
1, 27010, Control_c, 0, 64, 106
1, 27024, Control_c, 0, 64, 107
1, 27039, Control_c, 0, 64, 108
1, 27054, Control_c, 0, 64, 109
1, 27068, Control_c, 0, 64, 111
1, 27083, Control_c, 0, 64, 112
1, 27098, Control_c, 0, 64, 113
1, 27113, Control_c, 0, 64, 114
1, 27128, Control_c, 0, 64, 115
1, 27143, Control_c, 0, 64, 116
1, 27158, Control_c, 0, 64, 117
1, 27173, Control_c, 0, 64, 118
1, 27188, Control_c, 0, 64, 119
1, 27203, Control_c, 0, 64, 120
1, 27217, Control_c, 0, 64, 121
1, 27243, Note_on_c, 0, 24, 96
1, 27262, Control_c, 0, 64, 119
1, 27276, Control_c, 0, 64, 106
1, 27291, Control_c, 0, 64, 89
1, 27306, Control_c, 0, 64, 69
1, 27322, Control_c, 0, 64, 0
1, 27381, Control_c, 0, 64, 40
1, 27396, Control_c, 0, 64, 67
1, 27411, Control_c, 0, 64, 76
1, 27426, Control_c, 0, 64, 83
1, 27440, Control_c, 0, 64, 87
1, 27451, Note_off_c, 0, 48, 62
1, 27455, Control_c, 0, 64, 90
1, 27470, Control_c, 0, 64, 90
1, 27485, Control_c, 0, 64, 92
1, 27507, Control_c, 0, 64, 93
1, 27522, Control_c, 0, 64, 95
1, 27536, Control_c, 0, 64, 96
1, 27551, Control_c, 0, 64, 97
1, 27566, Control_c, 0, 64, 98
1, 27581, Control_c, 0, 64, 98
1, 27600, Note_off_c, 0, 57, 60
1, 27611, Control_c, 0, 64, 99
1, 27626, Control_c, 0, 64, 99
1, 27699, Control_c, 0, 64, 100
1, 27788, Control_c, 0, 64, 99
1, 27803, Control_c, 0, 64, 98
1, 27818, Control_c, 0, 64, 93
1, 27819, Note_on_c, 0, 56, 67
1, 27833, Control_c, 0, 64, 83
1, 27834, Note_on_c, 0, 47, 50
1, 27837, Note_on_c, 0, 53, 51
1, 27847, Control_c, 0, 64, 70
1, 27862, Control_c, 0, 64, 0
1, 27960, Note_off_c, 0, 50, 60
1, 27972, Note_off_c, 0, 47, 53
1, 27981, Control_c, 0, 64, 58
1, 27982, Note_off_c, 0, 53, 62
1, 27983, Note_off_c, 0, 56, 60
1, 27995, Control_c, 0, 64, 69
1, 28010, Control_c, 0, 64, 75
1, 28025, Control_c, 0, 64, 80
1, 28040, Control_c, 0, 64, 82
1, 28055, Control_c, 0, 64, 83
1, 28070, Control_c, 0, 64, 83
1, 28079, Note_off_c, 0, 24, 62
1, 28085, Control_c, 0, 64, 84
1, 28099, Control_c, 0, 64, 85
1, 28114, Control_c, 0, 64, 85
1, 28130, Control_c, 0, 64, 86
1, 28145, Control_c, 0, 64, 87
1, 28159, Control_c, 0, 64, 87
1, 28174, Control_c, 0, 64, 88
1, 28189, Control_c, 0, 64, 89
1, 28204, Control_c, 0, 64, 90
1, 28219, Control_c, 0, 64, 91
1, 28234, Control_c, 0, 64, 92
1, 28256, Control_c, 0, 64, 93
1, 28271, Control_c, 0, 64, 94
1, 28285, Control_c, 0, 64, 95
1, 28300, Control_c, 0, 64, 96
1, 28315, Control_c, 0, 64, 97
1, 28329, Control_c, 0, 64, 97
1, 28359, Control_c, 0, 64, 98
1, 28401, Note_on_c, 0, 42, 94
1, 28434, Control_c, 0, 64, 96
1, 28449, Control_c, 0, 64, 89
1, 28463, Control_c, 0, 64, 76
1, 28478, Control_c, 0, 64, 61
1, 28493, Control_c, 0, 64, 0
1, 28537, Control_c, 0, 64, 55
1, 28552, Control_c, 0, 64, 68
1, 28567, Control_c, 0, 64, 75
1, 28582, Control_c, 0, 64, 79
1, 28596, Control_c, 0, 64, 81
1, 28611, Control_c, 0, 64, 82
1, 28626, Control_c, 0, 64, 83
1, 28640, Control_c, 0, 64, 85
1, 28655, Control_c, 0, 64, 87
1, 28670, Control_c, 0, 64, 89
1, 28685, Control_c, 0, 64, 91
1, 28700, Control_c, 0, 64, 92
1, 28714, Control_c, 0, 64, 93
1, 28729, Control_c, 0, 64, 95
1, 28744, Control_c, 0, 64, 96
1, 28759, Control_c, 0, 64, 98
1, 28774, Control_c, 0, 64, 99
1, 28788, Control_c, 0, 64, 100
1, 28803, Control_c, 0, 64, 101
1, 28818, Control_c, 0, 64, 101
1, 28821, Note_on_c, 0, 56, 83
1, 28822, Note_on_c, 0, 50, 78
1, 28827, Note_on_c, 0, 47, 74
1, 28833, Control_c, 0, 64, 102
1, 28848, Control_c, 0, 64, 102
1, 28858, Note_off_c, 0, 50, 63
1, 28861, Note_off_c, 0, 47, 65
1, 28891, Note_off_c, 0, 56, 62
1, 28908, Control_c, 0, 64, 101
1, 28923, Control_c, 0, 64, 92
1, 28928, Note_on_c, 0, 57, 88
1, 28935, Note_on_c, 0, 48, 79
1, 28936, Note_on_c, 0, 51, 82
1, 28938, Control_c, 0, 64, 75
1, 28952, Control_c, 0, 64, 0
1, 29064, Control_c, 0, 64, 57
1, 29078, Control_c, 0, 64, 67
1, 29093, Control_c, 0, 64, 72
1, 29108, Control_c, 0, 64, 77
1, 29123, Control_c, 0, 64, 80
1, 29126, Note_off_c, 0, 42, 61
1, 29138, Control_c, 0, 64, 82
1, 29152, Control_c, 0, 64, 83
1, 29167, Control_c, 0, 64, 84
1, 29182, Control_c, 0, 64, 86
1, 29197, Control_c, 0, 64, 87
1, 29212, Control_c, 0, 64, 89
1, 29227, Control_c, 0, 64, 90
1, 29242, Control_c, 0, 64, 92
1, 29256, Control_c, 0, 64, 93
1, 29271, Control_c, 0, 64, 94
1, 29286, Control_c, 0, 64, 95
1, 29301, Control_c, 0, 64, 96
1, 29316, Control_c, 0, 64, 97
1, 29331, Control_c, 0, 64, 99
1, 29345, Control_c, 0, 64, 100
1, 29360, Control_c, 0, 64, 101
1, 29375, Control_c, 0, 64, 102
1, 29390, Control_c, 0, 64, 102
1, 29405, Control_c, 0, 64, 103
1, 29419, Control_c, 0, 64, 103
1, 29434, Control_c, 0, 64, 104
1, 29478, Control_c, 0, 64, 104
1, 29516, Note_on_c, 0, 24, 94
1, 29567, Control_c, 0, 64, 104
1, 29582, Control_c, 0, 64, 102
1, 29597, Control_c, 0, 64, 100
1, 29601, Note_off_c, 0, 48, 62
1, 29611, Control_c, 0, 64, 100
1, 29621, Note_off_c, 0, 57, 61
1, 29645, Note_off_c, 0, 51, 61
1, 29768, Control_c, 0, 64, 100
1, 29783, Control_c, 0, 64, 101
1, 29798, Control_c, 0, 64, 101
1, 29828, Control_c, 0, 64, 102
1, 29842, Control_c, 0, 64, 102
1, 29872, Control_c, 0, 64, 103
1, 29887, Control_c, 0, 64, 103
1, 29901, Control_c, 0, 64, 104
1, 29916, Control_c, 0, 64, 104
1, 29929, Note_on_c, 0, 53, 78
1, 29931, Control_c, 0, 64, 105
1, 29932, Note_on_c, 0, 59, 82
1, 29934, Note_on_c, 0, 50, 70
1, 29963, Note_off_c, 0, 50, 64
1, 29986, Note_off_c, 0, 53, 65
1, 29990, Control_c, 0, 64, 103
1, 30005, Control_c, 0, 64, 92
1, 30010, Note_off_c, 0, 59, 59
1, 30020, Control_c, 0, 64, 74
1, 30035, Note_on_c, 0, 60, 84
1, 30035, Control_c, 0, 64, 0
1, 30039, Note_on_c, 0, 51, 78
1, 30040, Note_on_c, 0, 57, 73
1, 30139, Control_c, 0, 64, 39
1, 30154, Control_c, 0, 64, 66
1, 30168, Control_c, 0, 64, 71
1, 30173, Note_off_c, 0, 24, 62
1, 30183, Control_c, 0, 64, 75
1, 30198, Control_c, 0, 64, 79
1, 30213, Control_c, 0, 64, 82
1, 30227, Control_c, 0, 64, 85
1, 30242, Control_c, 0, 64, 87
1, 30257, Control_c, 0, 64, 88
1, 30272, Control_c, 0, 64, 89
1, 30287, Control_c, 0, 64, 90
1, 30301, Control_c, 0, 64, 90
1, 30316, Control_c, 0, 64, 91
1, 30331, Control_c, 0, 64, 92
1, 30346, Control_c, 0, 64, 93
1, 30361, Control_c, 0, 64, 94
1, 30375, Control_c, 0, 64, 96
1, 30390, Control_c, 0, 64, 97
1, 30405, Control_c, 0, 64, 98
1, 30419, Control_c, 0, 64, 98
1, 30434, Control_c, 0, 64, 99
1, 30449, Control_c, 0, 64, 99
1, 30464, Control_c, 0, 64, 100
1, 30479, Control_c, 0, 64, 101
1, 30501, Control_c, 0, 64, 102
1, 30517, Control_c, 0, 64, 102
1, 30532, Control_c, 0, 64, 103
1, 30547, Control_c, 0, 64, 103
1, 30577, Control_c, 0, 64, 104
1, 30607, Note_on_c, 0, 42, 84
1, 30636, Control_c, 0, 64, 104
1, 30651, Note_off_c, 0, 57, 55
1, 30680, Control_c, 0, 64, 105
1, 30695, Control_c, 0, 64, 105
1, 30703, Note_off_c, 0, 60, 57
1, 30710, Control_c, 0, 64, 106
1, 30725, Note_off_c, 0, 51, 56
1, 30739, Control_c, 0, 64, 107
1, 30769, Control_c, 0, 64, 107
1, 30784, Control_c, 0, 64, 108
1, 30798, Control_c, 0, 64, 108
1, 30813, Control_c, 0, 64, 109
1, 30828, Control_c, 0, 64, 109
1, 30843, Control_c, 0, 64, 110
1, 30858, Control_c, 0, 64, 111
1, 30872, Control_c, 0, 64, 112
1, 30887, Control_c, 0, 64, 112
1, 30902, Control_c, 0, 64, 113
1, 30947, Control_c, 0, 64, 113
1, 30998, Note_on_c, 0, 59, 76
1, 31005, Note_on_c, 0, 50, 65
1, 31010, Note_on_c, 0, 53, 68
1, 31034, Note_off_c, 0, 50, 65
1, 31051, Note_off_c, 0, 53, 61
1, 31070, Note_off_c, 0, 59, 58
1, 31124, Control_c, 0, 64, 112
1, 31125, Note_on_c, 0, 58, 78
1, 31139, Note_on_c, 0, 52, 70
1, 31139, Control_c, 0, 64, 101
1, 31141, Note_on_c, 0, 49, 63
1, 31154, Control_c, 0, 64, 84
1, 31169, Control_c, 0, 64, 63
1, 31184, Control_c, 0, 64, 0
1, 31250, Control_c, 0, 64, 30
1, 31265, Control_c, 0, 64, 66
1, 31280, Control_c, 0, 64, 73
1, 31295, Control_c, 0, 64, 81
1, 31304, Note_off_c, 0, 52, 60
1, 31310, Control_c, 0, 64, 88
1, 31325, Note_off_c, 0, 42, 61
1, 31325, Control_c, 0, 64, 92
1, 31340, Control_c, 0, 64, 93
1, 31355, Control_c, 0, 64, 95
1, 31370, Control_c, 0, 64, 98
1, 31385, Control_c, 0, 64, 101
1, 31387, Note_off_c, 0, 58, 59
1, 31391, Note_off_c, 0, 49, 53
1, 31400, Control_c, 0, 64, 104
1, 31414, Control_c, 0, 64, 107
1, 31429, Control_c, 0, 64, 109
1, 31444, Control_c, 0, 64, 110
1, 31459, Control_c, 0, 64, 112
1, 31473, Control_c, 0, 64, 113
1, 31488, Control_c, 0, 64, 114
1, 31503, Control_c, 0, 64, 115
1, 31518, Control_c, 0, 64, 116
1, 31533, Control_c, 0, 64, 117
1, 31547, Control_c, 0, 64, 117
1, 31550, Note_on_c, 0, 57, 73
1, 31558, Note_on_c, 0, 48, 68
1, 31558, Note_on_c, 0, 51, 65
1, 31562, Control_c, 0, 64, 118
1, 31577, Control_c, 0, 64, 118
1, 31621, Control_c, 0, 64, 119
1, 31680, Note_on_c, 0, 24, 97
1, 31695, Control_c, 0, 64, 115
1, 31710, Control_c, 0, 64, 102
1, 31725, Control_c, 0, 64, 81
1, 31731, Note_off_c, 0, 51, 52
1, 31738, Note_off_c, 0, 57, 60
1, 31739, Note_off_c, 0, 48, 37
1, 31739, Control_c, 0, 64, 61
1, 31754, Control_c, 0, 64, 0
1, 31873, Control_c, 0, 64, 45
1, 31888, Control_c, 0, 64, 65
1, 31903, Control_c, 0, 64, 70
1, 31918, Control_c, 0, 64, 73
1, 31933, Control_c, 0, 64, 75
1, 31947, Control_c, 0, 64, 77
1, 31962, Control_c, 0, 64, 79
1, 31977, Control_c, 0, 64, 80
1, 31999, Control_c, 0, 64, 82
1, 32014, Control_c, 0, 64, 85
1, 32029, Control_c, 0, 64, 87
1, 32044, Control_c, 0, 64, 89
1, 32058, Control_c, 0, 64, 90
1, 32073, Control_c, 0, 64, 91
1, 32087, Note_on_c, 0, 53, 79
1, 32087, Note_on_c, 0, 59, 80
1, 32088, Control_c, 0, 64, 92
1, 32091, Note_on_c, 0, 50, 71
1, 32121, Note_off_c, 0, 50, 65
1, 32133, Control_c, 0, 64, 90
1, 32145, Note_off_c, 0, 53, 64
1, 32148, Control_c, 0, 64, 85
1, 32163, Control_c, 0, 64, 76
1, 32172, Note_off_c, 0, 59, 59
1, 32178, Control_c, 0, 64, 63
1, 32193, Control_c, 0, 64, 0
1, 32196, Note_on_c, 0, 60, 81
1, 32200, Note_on_c, 0, 56, 72
1, 32205, Note_on_c, 0, 51, 66
1, 32326, Control_c, 0, 64, 57
1, 32341, Control_c, 0, 64, 68
1, 32356, Control_c, 0, 64, 74
1, 32370, Control_c, 0, 64, 80
1, 32379, Note_off_c, 0, 24, 62
1, 32385, Control_c, 0, 64, 84
1, 32400, Control_c, 0, 64, 85
1, 32415, Control_c, 0, 64, 87
1, 32430, Control_c, 0, 64, 88
1, 32444, Control_c, 0, 64, 90
1, 32459, Control_c, 0, 64, 92
1, 32474, Control_c, 0, 64, 94
1, 32488, Control_c, 0, 64, 96
1, 32503, Control_c, 0, 64, 97
1, 32518, Control_c, 0, 64, 98
1, 32533, Control_c, 0, 64, 99
1, 32548, Control_c, 0, 64, 99
1, 32562, Control_c, 0, 64, 100
1, 32578, Control_c, 0, 64, 101
1, 32593, Control_c, 0, 64, 102
1, 32608, Control_c, 0, 64, 102
1, 32623, Control_c, 0, 64, 103
1, 32652, Control_c, 0, 64, 104
1, 32667, Control_c, 0, 64, 105
1, 32682, Control_c, 0, 64, 105
1, 32711, Control_c, 0, 64, 106
1, 32764, Control_c, 0, 64, 106
1, 32778, Note_on_c, 0, 44, 82
1, 32837, Control_c, 0, 64, 107
1, 32851, Note_off_c, 0, 60, 57
1, 32860, Note_off_c, 0, 51, 58
1, 32919, Note_off_c, 0, 56, 62
1, 32942, Control_c, 0, 64, 107
1, 33075, Control_c, 0, 64, 108
1, 33135, Control_c, 0, 64, 108
1, 33179, Control_c, 0, 64, 109
1, 33187, Note_on_c, 0, 61, 84
1, 33194, Note_on_c, 0, 52, 72
1, 33194, Note_on_c, 0, 56, 71
1, 33237, Note_off_c, 0, 56, 59
1, 33238, Note_off_c, 0, 52, 60
1, 33261, Note_off_c, 0, 61, 62
1, 33296, Note_on_c, 0, 62, 85
1, 33297, Note_on_c, 0, 53, 80
1, 33298, Control_c, 0, 64, 104
1, 33301, Note_on_c, 0, 59, 75
1, 33312, Control_c, 0, 64, 92
1, 33326, Control_c, 0, 64, 75
1, 33341, Control_c, 0, 64, 0
1, 33430, Control_c, 0, 64, 62
1, 33445, Control_c, 0, 64, 70
1, 33459, Control_c, 0, 64, 76
1, 33462, Note_off_c, 0, 44, 62
1, 33474, Control_c, 0, 64, 82
1, 33497, Control_c, 0, 64, 86
1, 33511, Control_c, 0, 64, 88
1, 33526, Control_c, 0, 64, 91
1, 33541, Control_c, 0, 64, 94
1, 33556, Control_c, 0, 64, 97
1, 33571, Control_c, 0, 64, 99
1, 33586, Control_c, 0, 64, 101
1, 33600, Control_c, 0, 64, 103
1, 33615, Control_c, 0, 64, 104
1, 33630, Control_c, 0, 64, 105
1, 33644, Control_c, 0, 64, 107
1, 33659, Control_c, 0, 64, 108
1, 33674, Control_c, 0, 64, 109
1, 33689, Control_c, 0, 64, 110
1, 33704, Control_c, 0, 64, 110
1, 33720, Control_c, 0, 64, 111
1, 33809, Control_c, 0, 64, 111
1, 33869, Note_on_c, 0, 24, 92
1, 33898, Control_c, 0, 64, 112
1, 33913, Control_c, 0, 64, 112
1, 33927, Control_c, 0, 64, 113
1, 33942, Control_c, 0, 64, 114
1, 33942, Note_off_c, 0, 62, 56
1, 33957, Control_c, 0, 64, 115
1, 33959, Note_off_c, 0, 53, 59
1, 33972, Control_c, 0, 64, 115
1, 33980, Note_off_c, 0, 59, 61
1, 33987, Control_c, 0, 64, 116
1, 34016, Control_c, 0, 64, 117
1, 34046, Control_c, 0, 64, 117
1, 34060, Control_c, 0, 64, 118
1, 34075, Control_c, 0, 64, 119
1, 34090, Control_c, 0, 64, 120
1, 34105, Control_c, 0, 64, 121
1, 34120, Control_c, 0, 64, 123
1, 34134, Control_c, 0, 64, 126
1, 34149, Control_c, 0, 64, 127
1, 34264, Note_on_c, 0, 61, 76
1, 34278, Note_on_c, 0, 52, 59
1, 34294, Note_on_c, 0, 56, 45
1, 34308, Note_off_c, 0, 52, 67
1, 34322, Note_off_c, 0, 56, 55
1, 34339, Note_off_c, 0, 61, 62
1, 34364, Control_c, 0, 64, 125
1, 34379, Control_c, 0, 64, 107
1, 34393, Note_on_c, 0, 60, 77
1, 34394, Control_c, 0, 64, 88
1, 34401, Note_on_c, 0, 56, 68
1, 34407, Note_on_c, 0, 51, 59
1, 34409, Control_c, 0, 64, 61
1, 34423, Control_c, 0, 64, 0
1, 34497, Control_c, 0, 64, 64
1, 34513, Control_c, 0, 64, 74
1, 34528, Control_c, 0, 64, 84
1, 34543, Control_c, 0, 64, 92
1, 34550, Note_off_c, 0, 24, 62
1, 34551, Note_off_c, 0, 56, 61
1, 34554, Note_off_c, 0, 60, 60
1, 34558, Control_c, 0, 64, 95
1, 34572, Control_c, 0, 64, 96
1, 34587, Control_c, 0, 64, 97
1, 34602, Control_c, 0, 64, 99
1, 34616, Note_off_c, 0, 51, 59
1, 34617, Control_c, 0, 64, 101
1, 34632, Control_c, 0, 64, 105
1, 34646, Control_c, 0, 64, 107
1, 34661, Control_c, 0, 64, 110
1, 34676, Control_c, 0, 64, 112
1, 34691, Control_c, 0, 64, 113
1, 34705, Control_c, 0, 64, 114
1, 34780, Control_c, 0, 64, 114
1, 34819, Note_on_c, 0, 59, 78
1, 34827, Note_on_c, 0, 50, 72
1, 34831, Note_on_c, 0, 53, 65
1, 34912, Control_c, 0, 64, 113
1, 34927, Control_c, 0, 64, 104
1, 34938, Note_on_c, 0, 47, 84
1, 34939, Note_on_c, 0, 44, 67
1, 34942, Control_c, 0, 64, 88
1, 34956, Control_c, 0, 64, 67
1, 34971, Control_c, 0, 64, 0
1, 35003, Note_off_c, 0, 50, 58
1, 35018, Note_off_c, 0, 53, 65
1, 35038, Control_c, 0, 64, 43
1, 35039, Note_off_c, 0, 59, 62
1, 35053, Control_c, 0, 64, 66
1, 35068, Control_c, 0, 64, 73
1, 35082, Control_c, 0, 64, 78
1, 35097, Control_c, 0, 64, 81
1, 35112, Control_c, 0, 64, 83
1, 35127, Control_c, 0, 64, 85
1, 35142, Control_c, 0, 64, 87
1, 35156, Control_c, 0, 64, 90
1, 35171, Control_c, 0, 64, 93
1, 35186, Control_c, 0, 64, 95
1, 35201, Control_c, 0, 64, 97
1, 35215, Control_c, 0, 64, 98
1, 35230, Control_c, 0, 64, 100
1, 35245, Control_c, 0, 64, 101
1, 35260, Control_c, 0, 64, 103
1, 35275, Control_c, 0, 64, 105
1, 35290, Control_c, 0, 64, 107
1, 35305, Control_c, 0, 64, 109
1, 35320, Control_c, 0, 64, 111
1, 35335, Control_c, 0, 64, 111
1, 35352, Note_on_c, 0, 62, 83
1, 35355, Note_on_c, 0, 53, 75
1, 35358, Note_on_c, 0, 56, 74
1, 35380, Control_c, 0, 64, 109
1, 35394, Control_c, 0, 64, 98
1, 35405, Note_off_c, 0, 53, 64
1, 35409, Control_c, 0, 64, 79
1, 35424, Control_c, 0, 64, 16
1, 35426, Note_off_c, 0, 62, 61
1, 35428, Note_off_c, 0, 56, 65
1, 35439, Control_c, 0, 64, 0
1, 35457, Note_on_c, 0, 63, 83
1, 35463, Note_on_c, 0, 57, 77
1, 35466, Note_on_c, 0, 54, 72
1, 35528, Control_c, 0, 64, 42
1, 35543, Control_c, 0, 64, 66
1, 35558, Control_c, 0, 64, 73
1, 35573, Control_c, 0, 64, 80
1, 35587, Control_c, 0, 64, 86
1, 35602, Control_c, 0, 64, 92
1, 35616, Note_off_c, 0, 47, 60
1, 35617, Control_c, 0, 64, 94
1, 35631, Control_c, 0, 64, 96
1, 35646, Control_c, 0, 64, 97
1, 35652, Note_off_c, 0, 44, 63
1, 35661, Control_c, 0, 64, 98
1, 35676, Control_c, 0, 64, 100
1, 35691, Control_c, 0, 64, 101
1, 35705, Control_c, 0, 64, 103
1, 35720, Control_c, 0, 64, 104
1, 35743, Control_c, 0, 64, 105
1, 35758, Control_c, 0, 64, 105
1, 35773, Control_c, 0, 64, 106
1, 35802, Control_c, 0, 64, 106
1, 35832, Control_c, 0, 64, 107
1, 35846, Control_c, 0, 64, 107
1, 35891, Control_c, 0, 64, 108
1, 35994, Control_c, 0, 64, 108
1, 36024, Control_c, 0, 64, 109
1, 36026, Note_on_c, 0, 24, 96
1, 36038, Control_c, 0, 64, 110
1, 36053, Control_c, 0, 64, 110
1, 36068, Control_c, 0, 64, 111
1, 36077, Note_off_c, 0, 57, 62
1, 36083, Control_c, 0, 64, 111
1, 36116, Note_off_c, 0, 63, 64
1, 36202, Control_c, 0, 64, 112
1, 36217, Control_c, 0, 64, 112
1, 36232, Control_c, 0, 64, 113
1, 36235, Note_off_c, 0, 54, 25
1, 36247, Control_c, 0, 64, 114
1, 36262, Control_c, 0, 64, 115
1, 36276, Control_c, 0, 64, 116
1, 36291, Control_c, 0, 64, 117
1, 36306, Control_c, 0, 64, 118
1, 36321, Control_c, 0, 64, 119
1, 36336, Control_c, 0, 64, 119
1, 36351, Control_c, 0, 64, 120
1, 36366, Control_c, 0, 64, 121
1, 36381, Control_c, 0, 64, 122
1, 36396, Control_c, 0, 64, 124
1, 36409, Note_on_c, 0, 64, 76
1, 36410, Control_c, 0, 64, 126
1, 36414, Note_on_c, 0, 55, 69
1, 36416, Note_on_c, 0, 58, 71
1, 36425, Control_c, 0, 64, 127
1, 36449, Note_off_c, 0, 55, 63
1, 36495, Note_off_c, 0, 58, 63
1, 36497, Note_off_c, 0, 64, 55
1, 36506, Control_c, 0, 64, 127
1, 36521, Control_c, 0, 64, 109
1, 36533, Note_on_c, 0, 59, 76
1, 36536, Control_c, 0, 64, 89
1, 36537, Note_on_c, 0, 65, 76
1, 36543, Note_on_c, 0, 56, 67
1, 36551, Control_c, 0, 64, 66
1, 36566, Control_c, 0, 64, 0
1, 36640, Control_c, 0, 64, 44
1, 36655, Control_c, 0, 64, 66
1, 36669, Control_c, 0, 64, 74
1, 36684, Control_c, 0, 64, 82
1, 36686, Note_off_c, 0, 24, 63
1, 36699, Control_c, 0, 64, 89
1, 36714, Control_c, 0, 64, 93
1, 36729, Control_c, 0, 64, 94
1, 36743, Control_c, 0, 64, 96
1, 36758, Control_c, 0, 64, 99
1, 36773, Control_c, 0, 64, 101
1, 36788, Control_c, 0, 64, 103
1, 36803, Control_c, 0, 64, 105
1, 36817, Control_c, 0, 64, 106
1, 36832, Control_c, 0, 64, 107
1, 36847, Control_c, 0, 64, 109
1, 36861, Control_c, 0, 64, 110
1, 36876, Control_c, 0, 64, 111
1, 36891, Control_c, 0, 64, 112
1, 36907, Control_c, 0, 64, 113
1, 36922, Control_c, 0, 64, 113
1, 36937, Control_c, 0, 64, 114
1, 36951, Control_c, 0, 64, 115
1, 36966, Control_c, 0, 64, 115
1, 36981, Control_c, 0, 64, 116
1, 36996, Control_c, 0, 64, 116
1, 37011, Control_c, 0, 64, 117
1, 37025, Control_c, 0, 64, 117
1, 37040, Control_c, 0, 64, 118
1, 37055, Control_c, 0, 64, 118
1, 37099, Control_c, 0, 64, 119
1, 37132, Note_on_c, 0, 53, 77
1, 37140, Note_on_c, 0, 44, 57
1, 37143, Note_on_c, 0, 50, 62
1, 37152, Note_on_c, 0, 47, 58
1, 37174, Control_c, 0, 64, 119
1, 37206, Note_off_c, 0, 65, 62
1, 37207, Note_off_c, 0, 56, 64
1, 37218, Control_c, 0, 64, 120
1, 37222, Note_off_c, 0, 59, 58
1, 37240, Control_c, 0, 64, 120
1, 37255, Control_c, 0, 64, 121
1, 37270, Control_c, 0, 64, 121
1, 37284, Control_c, 0, 64, 122
1, 37299, Control_c, 0, 64, 122
1, 37314, Control_c, 0, 64, 123
1, 37329, Control_c, 0, 64, 124
1, 37344, Control_c, 0, 64, 124
1, 37359, Control_c, 0, 64, 125
1, 37373, Control_c, 0, 64, 125
1, 37388, Control_c, 0, 64, 126
1, 37403, Control_c, 0, 64, 127
1, 37502, Note_on_c, 0, 66, 78
1, 37508, Note_on_c, 0, 57, 65
1, 37514, Note_on_c, 0, 60, 65
1, 37543, Note_off_c, 0, 57, 62
1, 37549, Note_off_c, 0, 60, 59
1, 37588, Note_off_c, 0, 66, 60
1, 37596, Control_c, 0, 64, 121
1, 37610, Control_c, 0, 64, 102
1, 37615, Note_on_c, 0, 67, 81
1, 37625, Note_on_c, 0, 58, 72
1, 37625, Control_c, 0, 64, 81
1, 37630, Note_on_c, 0, 61, 75
1, 37640, Control_c, 0, 64, 39
1, 37655, Control_c, 0, 64, 0
1, 37715, Control_c, 0, 64, 66
1, 37730, Control_c, 0, 64, 76
1, 37745, Control_c, 0, 64, 89
1, 37748, Note_off_c, 0, 53, 64
1, 37760, Control_c, 0, 64, 97
1, 37770, Note_off_c, 0, 67, 62
1, 37774, Control_c, 0, 64, 99
1, 37779, Note_off_c, 0, 50, 61
1, 37786, Note_off_c, 0, 61, 52
1, 37789, Control_c, 0, 64, 100
1, 37794, Note_off_c, 0, 47, 63
1, 37804, Control_c, 0, 64, 102
1, 37815, Note_off_c, 0, 44, 63
1, 37819, Control_c, 0, 64, 106
1, 37833, Control_c, 0, 64, 112
1, 37841, Note_off_c, 0, 58, 63
1, 37848, Control_c, 0, 64, 116
1, 37863, Control_c, 0, 64, 120
1, 37878, Control_c, 0, 64, 123
1, 37893, Control_c, 0, 64, 126
1, 37907, Control_c, 0, 64, 127
1, 37953, Note_on_c, 0, 68, 84
1, 37966, Note_on_c, 0, 62, 66
1, 37968, Note_on_c, 0, 59, 60
1, 38063, Control_c, 0, 64, 100
1, 38078, Control_c, 0, 64, 80
1, 38093, Control_c, 0, 64, 54
1, 38095, Note_off_c, 0, 62, 60
1, 38096, Note_on_c, 0, 24, 89
1, 38107, Control_c, 0, 64, 0
1, 38137, Control_c, 0, 64, 68
1, 38152, Control_c, 0, 64, 83
1, 38167, Control_c, 0, 64, 104
1, 38181, Control_c, 0, 64, 122
1, 38202, Note_on_c, 0, 36, 65
1, 38221, Note_off_c, 0, 24, 62
1, 38234, Note_off_c, 0, 59, 54
1, 38256, Control_c, 0, 64, 122
1, 38277, Note_off_c, 0, 36, 58
1, 38296, Note_on_c, 0, 24, 68
1, 38300, Control_c, 0, 64, 123
1, 38330, Control_c, 0, 64, 123
1, 38335, Note_off_c, 0, 68, 61
1, 38360, Control_c, 0, 64, 124
1, 38365, Note_off_c, 0, 24, 60
1, 38381, Note_on_c, 0, 36, 63
1, 38389, Control_c, 0, 64, 124
1, 38404, Control_c, 0, 64, 125
1, 38432, Note_off_c, 0, 36, 52
1, 38440, Note_on_c, 0, 24, 71
1, 38442, Note_on_c, 0, 69, 80
1, 38444, Note_on_c, 0, 60, 72
1, 38448, Control_c, 0, 64, 125
1, 38452, Note_on_c, 0, 63, 65
1, 38463, Control_c, 0, 64, 126
1, 38478, Control_c, 0, 64, 126
1, 38481, Note_off_c, 0, 60, 59
1, 38493, Control_c, 0, 64, 127
1, 38497, Note_off_c, 0, 63, 53
1, 38508, Note_off_c, 0, 24, 62
1, 38512, Note_off_c, 0, 69, 61
1, 38527, Note_on_c, 0, 36, 71
1, 38549, Note_on_c, 0, 70, 84
1, 38555, Note_on_c, 0, 64, 71
1, 38557, Note_on_c, 0, 61, 72
1, 38576, Note_on_c, 0, 24, 74
1, 38587, Note_off_c, 0, 36, 59
1, 38640, Note_off_c, 0, 64, 59
1, 38646, Note_off_c, 0, 24, 62
1, 38655, Note_on_c, 0, 36, 74
1, 38698, Note_off_c, 0, 36, 64
1, 38715, Note_on_c, 0, 24, 86
1, 38728, Note_off_c, 0, 61, 61
1, 38789, Note_off_c, 0, 24, 63
1, 38795, Note_on_c, 0, 36, 82
1, 38823, Note_off_c, 0, 36, 66
1, 38833, Note_off_c, 0, 70, 55
1, 38979, Note_on_c, 0, 71, 86
1, 38987, Note_on_c, 0, 62, 79
1, 38989, Note_on_c, 0, 65, 79
1, 39089, Note_on_c, 0, 56, 94
1, 39097, Note_on_c, 0, 53, 72
1, 39108, Note_on_c, 0, 47, 62
1, 39108, Control_c, 0, 64, 91
1, 39109, Note_on_c, 0, 50, 62
1, 39123, Control_c, 0, 64, 57
1, 39131, Note_off_c, 0, 62, 56
1, 39138, Control_c, 0, 64, 0
1, 39146, Note_off_c, 0, 65, 62
1, 39170, Note_off_c, 0, 71, 58
1, 39182, Control_c, 0, 64, 63
1, 39197, Control_c, 0, 64, 75
1, 39212, Control_c, 0, 64, 87
1, 39227, Control_c, 0, 64, 97
1, 39242, Control_c, 0, 64, 100
1, 39256, Control_c, 0, 64, 100
1, 39271, Control_c, 0, 64, 102
1, 39286, Control_c, 0, 64, 104
1, 39302, Control_c, 0, 64, 107
1, 39317, Control_c, 0, 64, 110
1, 39332, Control_c, 0, 64, 113
1, 39347, Control_c, 0, 64, 115
1, 39362, Control_c, 0, 64, 118
1, 39377, Control_c, 0, 64, 121
1, 39391, Control_c, 0, 64, 125
1, 39406, Control_c, 0, 64, 127
1, 39412, Note_on_c, 0, 63, 82
1, 39414, Note_on_c, 0, 72, 80
1, 39429, Note_on_c, 0, 66, 72
1, 39464, Note_off_c, 0, 66, 59
1, 39487, Note_off_c, 0, 63, 65
1, 39496, Note_off_c, 0, 72, 60
1, 39529, Note_on_c, 0, 73, 89
1, 39533, Note_on_c, 0, 67, 79
1, 39538, Note_on_c, 0, 64, 79
1, 39619, Note_off_c, 0, 67, 62
1, 39624, Note_off_c, 0, 56, 64
1, 39630, Note_off_c, 0, 53, 64
1, 39640, Note_off_c, 0, 64, 63
1, 39643, Note_off_c, 0, 50, 62
1, 39647, Note_off_c, 0, 47, 63
1, 39648, Note_off_c, 0, 73, 62
1, 39877, Note_on_c, 0, 65, 83
1, 39877, Note_on_c, 0, 74, 82
1, 39886, Note_on_c, 0, 68, 73
1, 39925, Note_off_c, 0, 65, 67
1, 39929, Note_off_c, 0, 68, 58
1, 39958, Note_off_c, 0, 74, 61
1, 39992, Note_on_c, 0, 75, 93
1, 39996, Note_on_c, 0, 66, 90
1, 40003, Note_on_c, 0, 69, 70
1, 40003, Note_on_c, 0, 24, 90
1, 40006, Control_c, 0, 64, 98
1, 40020, Control_c, 0, 64, 67
1, 40035, Control_c, 0, 64, 0
1, 40065, Control_c, 0, 64, 47
1, 40068, Note_off_c, 0, 69, 64
1, 40079, Control_c, 0, 64, 72
1, 40086, Note_on_c, 0, 36, 71
1, 40094, Control_c, 0, 64, 88
1, 40098, Note_off_c, 0, 24, 61
1, 40110, Control_c, 0, 64, 109
1, 40119, Note_off_c, 0, 75, 58
1, 40125, Control_c, 0, 64, 119
1, 40131, Note_off_c, 0, 66, 62
1, 40158, Note_off_c, 0, 36, 61
1, 40177, Note_on_c, 0, 24, 69
1, 40184, Control_c, 0, 64, 119
1, 40199, Control_c, 0, 64, 120
1, 40214, Control_c, 0, 64, 120
1, 40235, Control_c, 0, 64, 122
1, 40239, Note_on_c, 0, 76, 90
1, 40246, Note_on_c, 0, 67, 78
1, 40250, Control_c, 0, 64, 126
1, 40252, Note_on_c, 0, 70, 73
1, 40255, Note_on_c, 0, 36, 70
1, 40255, Note_off_c, 0, 24, 61
1, 40265, Control_c, 0, 64, 127
1, 40282, Note_off_c, 0, 67, 60
1, 40286, Note_off_c, 0, 70, 54
1, 40307, Note_off_c, 0, 36, 62
1, 40315, Note_off_c, 0, 76, 65
1, 40319, Note_on_c, 0, 24, 79
1, 40384, Note_off_c, 0, 24, 61
1, 40395, Note_on_c, 0, 36, 80
1, 40450, Note_off_c, 0, 36, 61
1, 40461, Note_on_c, 0, 24, 85
1, 40484, Note_on_c, 0, 77, 95
1, 40491, Note_on_c, 0, 68, 87
1, 40494, Note_on_c, 0, 71, 84
1, 40523, Note_off_c, 0, 24, 60
1, 40527, Note_on_c, 0, 36, 83
1, 40548, Note_off_c, 0, 68, 58
1, 40574, Note_off_c, 0, 36, 63
1, 40584, Note_off_c, 0, 77, 61
1, 40584, Note_off_c, 0, 71, 53
1, 40596, Note_on_c, 0, 24, 86
1, 40649, Note_off_c, 0, 24, 61
1, 40656, Note_on_c, 0, 36, 82
1, 40706, Note_off_c, 0, 36, 63
1, 40721, Note_on_c, 0, 24, 88
1, 40734, Note_on_c, 0, 31, 6
1, 40789, Note_off_c, 0, 24, 63
1, 40790, Note_on_c, 0, 36, 87
1, 40793, Note_off_c, 0, 31, 43
1, 40810, Note_off_c, 0, 36, 70
1, 40818, Note_on_c, 0, 71, 84
1, 40819, Note_on_c, 0, 77, 94
1, 40823, Note_on_c, 0, 68, 87
1, 41177, Note_on_c, 0, 61, 101
1, 41179, Note_on_c, 0, 58, 87
1, 41194, Note_on_c, 0, 49, 75
1, 41222, Control_c, 0, 64, 123
1, 41237, Control_c, 0, 64, 91
1, 41240, Note_off_c, 0, 68, 65
1, 41251, Control_c, 0, 64, 67
1, 41263, Note_off_c, 0, 77, 61
1, 41266, Control_c, 0, 64, 0
1, 41293, Note_off_c, 0, 71, 58
1, 41666, Control_c, 0, 64, 69
1, 41681, Control_c, 0, 64, 82
1, 41696, Control_c, 0, 64, 98
1, 41701, Note_on_c, 0, 77, 99
1, 41705, Note_on_c, 0, 68, 93
1, 41706, Note_on_c, 0, 65, 90
1, 41711, Control_c, 0, 64, 111
1, 41734, Control_c, 0, 64, 117
1, 41748, Control_c, 0, 64, 122
1, 41763, Control_c, 0, 64, 127
1, 41779, Note_off_c, 0, 61, 61
1, 41805, Note_off_c, 0, 58, 61
1, 41831, Note_off_c, 0, 49, 61
1, 41867, Note_off_c, 0, 65, 58
1, 41976, Note_off_c, 0, 68, 54
1, 41993, Note_off_c, 0, 77, 57
1, 42222, Note_on_c, 0, 24, 76
1, 42280, Note_off_c, 0, 24, 63
1, 42296, Note_on_c, 0, 36, 69
1, 42336, Note_off_c, 0, 36, 60
1, 42349, Note_on_c, 0, 24, 74
1, 42395, Note_off_c, 0, 24, 63
1, 42410, Note_on_c, 0, 36, 75
1, 42456, Note_off_c, 0, 36, 61
1, 42477, Note_on_c, 0, 24, 82
1, 42523, Note_off_c, 0, 24, 62
1, 42538, Note_on_c, 0, 36, 82
1, 42584, Note_off_c, 0, 36, 57
1, 42596, Note_on_c, 0, 24, 82
1, 42650, Note_off_c, 0, 24, 59
1, 42658, Note_on_c, 0, 36, 74
1, 42712, Note_off_c, 0, 36, 60
1, 42721, Note_on_c, 0, 24, 85
1, 42740, Note_on_c, 0, 64, 87
1, 42745, Note_on_c, 0, 55, 78
1, 42749, Note_on_c, 0, 52, 78
1, 42792, Note_off_c, 0, 24, 61
1, 42796, Note_on_c, 0, 36, 82
1, 42846, Note_off_c, 0, 36, 63
1, 42858, Note_on_c, 0, 24, 80
1, 42936, Note_off_c, 0, 24, 0
1, 42940, Note_on_c, 0, 36, 65
1, 42968, Note_off_c, 0, 36, 67
1, 42972, Poly_aftertouch_c, 0, 24, 127
1, 42992, Poly_aftertouch_c, 0, 24, 0
1, 43030, Note_on_c, 0, 36, 44
1, 43048, Note_off_c, 0, 55, 62
1, 43064, Note_off_c, 0, 52, 63
1, 43073, Note_off_c, 0, 36, 47
1, 43265, Note_on_c, 0, 61, 98
1, 43269, Note_on_c, 0, 58, 85
1, 43276, Note_on_c, 0, 49, 68
1, 43276, Note_off_c, 0, 64, 61
1, 43350, Control_c, 0, 64, 104
1, 43365, Control_c, 0, 64, 82
1, 43380, Control_c, 0, 64, 50
1, 43395, Control_c, 0, 64, 0
1, 43632, Control_c, 0, 64, 83
1, 43646, Control_c, 0, 64, 106
1, 43661, Control_c, 0, 64, 127
1, 43788, Note_on_c, 0, 77, 102
1, 43791, Note_on_c, 0, 68, 92
1, 43792, Note_on_c, 0, 65, 88
1, 43833, Note_off_c, 0, 61, 60
1, 43836, Note_off_c, 0, 49, 62
1, 43860, Note_off_c, 0, 58, 63
1, 44336, Note_off_c, 0, 65, 63
1, 44346, Note_on_c, 0, 24, 80
1, 44357, Note_off_c, 0, 77, 63
1, 44396, Note_off_c, 0, 68, 65
1, 44409, Note_off_c, 0, 24, 60
1, 44414, Note_on_c, 0, 36, 71
1, 44467, Note_off_c, 0, 36, 58
1, 44473, Note_on_c, 0, 24, 71
1, 44525, Note_off_c, 0, 24, 63
1, 44541, Note_on_c, 0, 36, 77
1, 44583, Note_off_c, 0, 36, 58
1, 44599, Note_on_c, 0, 24, 84
1, 44639, Note_off_c, 0, 24, 65
1, 44661, Note_on_c, 0, 36, 78
1, 44725, Note_off_c, 0, 36, 57
1, 44730, Note_on_c, 0, 24, 78
1, 44784, Note_off_c, 0, 24, 62
1, 44790, Note_on_c, 0, 36, 70
1, 44847, Note_off_c, 0, 36, 62
1, 44866, Note_on_c, 0, 24, 83
1, 44870, Note_on_c, 0, 64, 79
1, 44878, Note_on_c, 0, 55, 66
1, 44882, Note_on_c, 0, 52, 66
1, 44933, Note_off_c, 0, 24, 59
1, 44940, Note_on_c, 0, 36, 74
1, 44983, Note_off_c, 0, 36, 58
1, 44994, Note_on_c, 0, 24, 80
1, 45055, Note_off_c, 0, 24, 62
1, 45088, Note_on_c, 0, 24, 63
1, 45102, Note_on_c, 0, 36, 36
1, 45127, Note_off_c, 0, 36, 58
1, 45145, Note_off_c, 0, 24, 63
1, 45160, Note_on_c, 0, 36, 54
1, 45193, Note_off_c, 0, 36, 52
1, 45210, Note_off_c, 0, 52, 64
1, 45246, Note_off_c, 0, 55, 50
1, 45400, Note_off_c, 0, 64, 64
1, 45422, Note_on_c, 0, 61, 94
1, 45424, Note_on_c, 0, 58, 75
1, 45438, Note_on_c, 0, 49, 63
1, 45492, Control_c, 0, 64, 100
1, 45507, Control_c, 0, 64, 72
1, 45522, Control_c, 0, 64, 0
1, 45581, Control_c, 0, 64, 42
1, 45596, Control_c, 0, 64, 70
1, 45611, Control_c, 0, 64, 82
1, 45625, Control_c, 0, 64, 94
1, 45640, Control_c, 0, 64, 102
1, 45655, Control_c, 0, 64, 106
1, 45670, Control_c, 0, 64, 109
1, 45685, Control_c, 0, 64, 114
1, 45701, Control_c, 0, 64, 119
1, 45716, Control_c, 0, 64, 125
1, 45730, Control_c, 0, 64, 127
1, 45798, Note_on_c, 0, 67, 83
1, 45801, Note_on_c, 0, 76, 82
1, 45802, Note_on_c, 0, 64, 77
1, 45826, Note_off_c, 0, 64, 70
1, 45838, Note_off_c, 0, 67, 60
1, 45848, Note_off_c, 0, 76, 65
1, 45893, Control_c, 0, 64, 108
1, 45898, Note_on_c, 0, 77, 95
1, 45902, Note_on_c, 0, 68, 85
1, 45905, Note_on_c, 0, 65, 85
1, 45908, Control_c, 0, 64, 84
1, 45923, Control_c, 0, 64, 29
1, 45938, Control_c, 0, 64, 0
1, 45997, Control_c, 0, 64, 67
1, 46012, Control_c, 0, 64, 77
1, 46027, Control_c, 0, 64, 89
1, 46036, Note_off_c, 0, 61, 62
1, 46041, Control_c, 0, 64, 96
1, 46056, Control_c, 0, 64, 98
1, 46062, Note_off_c, 0, 58, 61
1, 46071, Control_c, 0, 64, 99
1, 46086, Control_c, 0, 64, 102
1, 46101, Control_c, 0, 64, 105
1, 46103, Note_off_c, 0, 49, 60
1, 46115, Control_c, 0, 64, 110
1, 46130, Control_c, 0, 64, 115
1, 46145, Control_c, 0, 64, 119
1, 46160, Control_c, 0, 64, 126
1, 46174, Control_c, 0, 64, 127
1, 46205, Note_off_c, 0, 65, 59
1, 46313, Note_off_c, 0, 68, 55
1, 46367, Note_off_c, 0, 77, 56
1, 46404, Note_on_c, 0, 24, 80
1, 46468, Note_off_c, 0, 24, 61
1, 46477, Note_on_c, 0, 36, 74
1, 46528, Note_off_c, 0, 36, 62
1, 46551, Note_on_c, 0, 24, 86
1, 46619, Note_on_c, 0, 36, 82
1, 46624, Note_off_c, 0, 24, 60
1, 46692, Note_off_c, 0, 36, 63
1, 46707, Note_on_c, 0, 24, 85
1, 46719, Note_on_c, 0, 67, 86
1, 46722, Note_on_c, 0, 79, 83
1, 46727, Note_on_c, 0, 70, 78
1, 46750, Note_off_c, 0, 70, 69
1, 46761, Note_off_c, 0, 79, 61
1, 46765, Note_off_c, 0, 67, 61
1, 46790, Note_on_c, 0, 36, 80
1, 46795, Note_off_c, 0, 24, 62
1, 46847, Note_on_c, 0, 80, 97
1, 46850, Note_on_c, 0, 68, 91
1, 46850, Note_on_c, 0, 72, 83
1, 46868, Note_on_c, 0, 24, 83
1, 46870, Note_off_c, 0, 36, 57
1, 46877, Control_c, 0, 64, 98
1, 46892, Control_c, 0, 64, 70
1, 46907, Control_c, 0, 64, 0
1, 46941, Note_off_c, 0, 24, 62
1, 46945, Note_on_c, 0, 36, 75
1, 46951, Control_c, 0, 64, 67
1, 46974, Control_c, 0, 64, 80
1, 46989, Control_c, 0, 64, 96
1, 47003, Control_c, 0, 64, 105
1, 47015, Note_off_c, 0, 36, 63
1, 47018, Control_c, 0, 64, 106
1, 47028, Note_on_c, 0, 24, 86
1, 47048, Control_c, 0, 64, 107
1, 47063, Control_c, 0, 64, 109
1, 47077, Control_c, 0, 64, 113
1, 47091, Note_off_c, 0, 24, 63
1, 47092, Control_c, 0, 64, 120
1, 47093, Note_on_c, 0, 36, 82
1, 47107, Control_c, 0, 64, 127
1, 47120, Note_off_c, 0, 36, 65
1, 47369, Note_on_c, 0, 61, 96
1, 47374, Note_on_c, 0, 58, 83
1, 47386, Note_on_c, 0, 49, 70
1, 47439, Note_off_c, 0, 68, 63
1, 47446, Note_off_c, 0, 80, 64
1, 47478, Note_off_c, 0, 72, 64
1, 47754, Note_on_c, 0, 79, 76
1, 47755, Note_on_c, 0, 67, 78
1, 47759, Note_on_c, 0, 70, 75
1, 47777, Note_off_c, 0, 79, 64
1, 47780, Note_off_c, 0, 67, 66
1, 47796, Note_off_c, 0, 70, 61
1, 47857, Note_on_c, 0, 78, 98
1, 47866, Note_on_c, 0, 66, 86
1, 47868, Note_on_c, 0, 69, 87
1, 47905, Note_off_c, 0, 61, 63
1, 47938, Note_off_c, 0, 58, 63
1, 47944, Note_off_c, 0, 49, 61
1, 47994, Note_off_c, 0, 78, 64
1, 47997, Note_off_c, 0, 69, 58
1, 48008, Note_off_c, 0, 66, 62
1, 48215, Note_on_c, 0, 77, 96
1, 48222, Note_on_c, 0, 65, 85
1, 48222, Note_on_c, 0, 68, 87
1, 48301, Control_c, 0, 64, 102
1, 48316, Control_c, 0, 64, 75
1, 48331, Control_c, 0, 64, 0
1, 48346, Note_on_c, 0, 24, 94
1, 48376, Control_c, 0, 64, 63
1, 48390, Control_c, 0, 64, 75
1, 48405, Control_c, 0, 64, 91
1, 48420, Control_c, 0, 64, 109
1, 48422, Note_on_c, 0, 36, 79
1, 48422, Note_off_c, 0, 24, 61
1, 48434, Control_c, 0, 64, 119
1, 48471, Control_c, 0, 64, 120
1, 48483, Note_off_c, 0, 36, 62
1, 48486, Control_c, 0, 64, 123
1, 48501, Control_c, 0, 64, 127
1, 48504, Note_on_c, 0, 24, 75
1, 48549, Note_off_c, 0, 24, 63
1, 48551, Note_off_c, 0, 77, 59
1, 48567, Note_on_c, 0, 36, 75
1, 48602, Note_off_c, 0, 36, 65
1, 48624, Note_off_c, 0, 65, 63
1, 48630, Note_on_c, 0, 24, 79
1, 48653, Note_off_c, 0, 68, 59
1, 48672, Note_off_c, 0, 24, 58
1, 48685, Note_on_c, 0, 36, 76
1, 48734, Note_off_c, 0, 36, 59
1, 48753, Note_on_c, 0, 24, 75
1, 48801, Note_on_c, 0, 36, 77
1, 48802, Note_off_c, 0, 24, 58
1, 48842, Note_on_c, 0, 76, 88
1, 48847, Note_on_c, 0, 67, 80
1, 48849, Note_on_c, 0, 64, 75
1, 48863, Note_off_c, 0, 36, 58
1, 48865, Note_on_c, 0, 24, 81
1, 48927, Note_on_c, 0, 36, 76
1, 48927, Note_off_c, 0, 24, 58
1, 48973, Note_off_c, 0, 36, 62
1, 48988, Note_on_c, 0, 24, 88
1, 49056, Note_off_c, 0, 24, 62
1, 49057, Note_on_c, 0, 36, 82
1, 49079, Note_off_c, 0, 36, 70
1, 49378, Note_on_c, 0, 63, 95
1, 49378, Note_on_c, 0, 60, 82
1, 49384, Note_on_c, 0, 51, 74
1, 49423, Note_off_c, 0, 64, 64
1, 49458, Control_c, 0, 64, 105
1, 49466, Note_off_c, 0, 76, 65
1, 49469, Note_off_c, 0, 67, 60
1, 49473, Control_c, 0, 64, 78
1, 49488, Control_c, 0, 64, 0
1, 49785, Control_c, 0, 64, 72
1, 49800, Control_c, 0, 64, 89
1, 49814, Control_c, 0, 64, 108
1, 49829, Control_c, 0, 64, 117
1, 49844, Control_c, 0, 64, 119
1, 49859, Control_c, 0, 64, 123
1, 49874, Control_c, 0, 64, 127
1, 49905, Note_on_c, 0, 79, 98
1, 49907, Note_on_c, 0, 67, 91
1, 49907, Note_on_c, 0, 70, 93
1, 49947, Note_off_c, 0, 63, 62
1, 49974, Note_off_c, 0, 60, 59
1, 49998, Note_off_c, 0, 51, 56
1, 50280, Note_off_c, 0, 67, 52
1, 50395, Note_off_c, 0, 79, 61
1, 50432, Note_on_c, 0, 24, 80
1, 50434, Note_off_c, 0, 70, 65
1, 50504, Note_off_c, 0, 24, 61
1, 50517, Note_on_c, 0, 36, 70
1, 50567, Note_off_c, 0, 36, 62
1, 50591, Note_on_c, 0, 24, 76
1, 50633, Note_off_c, 0, 24, 60
1, 50651, Note_on_c, 0, 36, 76
1, 50709, Note_off_c, 0, 36, 63
1, 50728, Note_on_c, 0, 24, 86
1, 50783, Note_off_c, 0, 24, 59
1, 50788, Note_on_c, 0, 36, 83
1, 50844, Note_off_c, 0, 36, 62
1, 50860, Note_on_c, 0, 24, 83
1, 50919, Note_on_c, 0, 36, 76
1, 50921, Note_off_c, 0, 24, 60
1, 50961, Note_on_c, 0, 66, 88
1, 50962, Note_on_c, 0, 57, 71
1, 50965, Note_on_c, 0, 54, 75
1, 50975, Note_off_c, 0, 36, 62
1, 50994, Note_on_c, 0, 24, 79
1, 51057, Note_off_c, 0, 24, 60
1, 51059, Note_on_c, 0, 36, 79
1, 51103, Note_off_c, 0, 36, 65
1, 51116, Note_on_c, 0, 24, 84
1, 51169, Note_off_c, 0, 24, 64
1, 51189, Note_on_c, 0, 36, 68
1, 51190, Note_off_c, 0, 54, 59
1, 51196, Note_off_c, 0, 57, 59
1, 51205, Note_off_c, 0, 36, 71
1, 51318, Note_off_c, 0, 66, 61
1, 51479, Note_on_c, 0, 63, 101
1, 51484, Note_on_c, 0, 60, 82
1, 51496, Note_on_c, 0, 51, 80
1, 51600, Control_c, 0, 64, 114
1, 51615, Control_c, 0, 64, 89
1, 51630, Control_c, 0, 64, 68
1, 51645, Control_c, 0, 64, 0
1, 51822, Control_c, 0, 64, 56
1, 51837, Control_c, 0, 64, 77
1, 51852, Control_c, 0, 64, 93
1, 51867, Control_c, 0, 64, 110
1, 51881, Control_c, 0, 64, 116
1, 51896, Control_c, 0, 64, 117
1, 51911, Control_c, 0, 64, 122
1, 51926, Control_c, 0, 64, 127
1, 51963, Note_off_c, 0, 63, 63
1, 51973, Note_on_c, 0, 79, 98
1, 51974, Note_on_c, 0, 67, 96
1, 51976, Note_on_c, 0, 70, 92
1, 51998, Note_off_c, 0, 60, 59
1, 52021, Note_off_c, 0, 51, 58
1, 52490, Note_off_c, 0, 67, 56
1, 52492, Note_off_c, 0, 79, 61
1, 52515, Note_on_c, 0, 24, 80
1, 52552, Note_off_c, 0, 70, 57
1, 52573, Note_off_c, 0, 24, 59
1, 52581, Note_on_c, 0, 36, 72
1, 52624, Note_off_c, 0, 36, 63
1, 52646, Note_on_c, 0, 24, 78
1, 52684, Note_off_c, 0, 24, 63
1, 52711, Note_on_c, 0, 36, 73
1, 52744, Note_off_c, 0, 36, 64
1, 52775, Note_on_c, 0, 24, 83
1, 52818, Note_on_c, 0, 36, 79
1, 52822, Note_off_c, 0, 24, 61
1, 52868, Note_off_c, 0, 36, 63
1, 52890, Note_on_c, 0, 24, 84
1, 52937, Note_off_c, 0, 24, 61
1, 52942, Note_on_c, 0, 36, 84
1, 53003, Note_off_c, 0, 36, 59
1, 53017, Note_on_c, 0, 24, 88
1, 53041, Note_on_c, 0, 66, 87
1, 53043, Note_on_c, 0, 57, 71
1, 53049, Note_on_c, 0, 54, 73
1, 53081, Note_on_c, 0, 36, 82
1, 53084, Note_off_c, 0, 24, 62
1, 53130, Note_off_c, 0, 36, 63
1, 53142, Note_on_c, 0, 24, 88
1, 53195, Note_off_c, 0, 24, 65
1, 53199, Note_on_c, 0, 36, 84
1, 53226, Note_off_c, 0, 36, 65
1, 53286, Note_off_c, 0, 57, 60
1, 53309, Note_off_c, 0, 54, 62
1, 53471, Note_off_c, 0, 66, 61
1, 53529, Note_on_c, 0, 60, 90
1, 53530, Note_on_c, 0, 63, 97
1, 53539, Note_on_c, 0, 51, 71
1, 53587, Control_c, 0, 64, 121
1, 53602, Control_c, 0, 64, 88
1, 53617, Control_c, 0, 64, 50
1, 53631, Control_c, 0, 64, 0
1, 53715, Control_c, 0, 64, 66
1, 53729, Control_c, 0, 64, 81
1, 53744, Control_c, 0, 64, 96
1, 53759, Control_c, 0, 64, 110
1, 53774, Control_c, 0, 64, 120
1, 53788, Control_c, 0, 64, 126
1, 53803, Control_c, 0, 64, 127
1, 53925, Note_on_c, 0, 78, 88
1, 53926, Note_on_c, 0, 66, 85
1, 53928, Note_on_c, 0, 69, 80
1, 53951, Note_off_c, 0, 69, 70
1, 53967, Note_off_c, 0, 66, 66
1, 53983, Note_off_c, 0, 78, 61
1, 54010, Control_c, 0, 64, 105
1, 54025, Control_c, 0, 64, 73
1, 54028, Note_on_c, 0, 79, 96
1, 54033, Note_on_c, 0, 67, 86
1, 54033, Note_on_c, 0, 70, 81
1, 54040, Control_c, 0, 64, 0
1, 54099, Control_c, 0, 64, 59
1, 54114, Control_c, 0, 64, 78
1, 54120, Note_off_c, 0, 63, 63
1, 54129, Control_c, 0, 64, 94
1, 54144, Control_c, 0, 64, 108
1, 54159, Control_c, 0, 64, 110
1, 54159, Note_off_c, 0, 60, 57
1, 54174, Control_c, 0, 64, 110
1, 54188, Control_c, 0, 64, 112
1, 54203, Control_c, 0, 64, 116
1, 54218, Control_c, 0, 64, 122
1, 54224, Note_off_c, 0, 51, 60
1, 54233, Control_c, 0, 64, 127
1, 54400, Note_off_c, 0, 67, 49
1, 54508, Note_off_c, 0, 79, 61
1, 54514, Note_off_c, 0, 70, 61
1, 54526, Note_on_c, 0, 24, 88
1, 54595, Note_off_c, 0, 24, 61
1, 54607, Note_on_c, 0, 36, 77
1, 54661, Note_off_c, 0, 36, 63
1, 54684, Note_on_c, 0, 24, 86
1, 54752, Note_on_c, 0, 36, 82
1, 54753, Note_off_c, 0, 24, 59
1, 54804, Note_on_c, 0, 81, 99
1, 54806, Note_on_c, 0, 72, 86
1, 54808, Note_on_c, 0, 69, 87
1, 54815, Note_off_c, 0, 36, 61
1, 54827, Note_on_c, 0, 24, 87
1, 54829, Note_off_c, 0, 72, 69
1, 54843, Note_off_c, 0, 69, 62
1, 54871, Note_off_c, 0, 81, 54
1, 54905, Note_on_c, 0, 36, 84
1, 54921, Note_off_c, 0, 24, 62
1, 54987, Note_off_c, 0, 36, 58
1, 54992, Note_on_c, 0, 24, 86
1, 54996, Control_c, 0, 64, 112
1, 54997, Note_on_c, 0, 82, 95
1, 54997, Note_on_c, 0, 70, 90
1, 54998, Note_on_c, 0, 74, 85
1, 55010, Control_c, 0, 64, 82
1, 55025, Control_c, 0, 64, 0
1, 55071, Control_c, 0, 64, 63
1, 55073, Note_off_c, 0, 24, 61
1, 55074, Note_on_c, 0, 36, 81
1, 55085, Control_c, 0, 64, 77
1, 55100, Control_c, 0, 64, 93
1, 55115, Control_c, 0, 64, 110
1, 55129, Control_c, 0, 64, 115
1, 55130, Note_off_c, 0, 36, 63
1, 55148, Note_on_c, 0, 24, 87
1, 55159, Control_c, 0, 64, 116
1, 55174, Control_c, 0, 64, 119
1, 55189, Control_c, 0, 64, 123
1, 55211, Control_c, 0, 64, 127
1, 55214, Note_on_c, 0, 36, 85
1, 55217, Note_off_c, 0, 24, 62
1, 55234, Note_off_c, 0, 36, 74
1, 55506, Note_on_c, 0, 63, 95
1, 55507, Note_on_c, 0, 60, 80
1, 55519, Note_on_c, 0, 51, 71
1, 55563, Note_off_c, 0, 70, 61
1, 55580, Note_off_c, 0, 82, 62
1, 55600, Note_off_c, 0, 74, 65
1, 55867, Note_on_c, 0, 72, 82
1, 55867, Note_on_c, 0, 81, 84
1, 55870, Note_on_c, 0, 69, 81
1, 55891, Note_off_c, 0, 81, 61
1, 55892, Note_off_c, 0, 69, 71
1, 55909, Note_off_c, 0, 72, 66
1, 55979, Note_on_c, 0, 80, 98
1, 55983, Note_on_c, 0, 68, 92
1, 55987, Note_on_c, 0, 71, 82
1, 56007, Note_off_c, 0, 63, 64
1, 56027, Note_off_c, 0, 60, 61
1, 56030, Note_off_c, 0, 51, 62
1, 56127, Note_off_c, 0, 71, 58
1, 56130, Note_off_c, 0, 80, 58
1, 56150, Note_off_c, 0, 68, 61
1, 56343, Note_on_c, 0, 79, 99
1, 56347, Note_on_c, 0, 70, 87
1, 56349, Note_on_c, 0, 67, 83
1, 56464, Control_c, 0, 64, 87
1, 56478, Note_on_c, 0, 24, 95
1, 56479, Control_c, 0, 64, 0
1, 56523, Control_c, 0, 64, 38
1, 56538, Control_c, 0, 64, 75
1, 56553, Control_c, 0, 64, 82
1, 56564, Note_off_c, 0, 24, 54
1, 56568, Control_c, 0, 64, 89
1, 56570, Note_on_c, 0, 36, 72
1, 56573, Note_off_c, 0, 79, 56
1, 56583, Control_c, 0, 64, 95
1, 56598, Control_c, 0, 64, 106
1, 56613, Control_c, 0, 64, 118
1, 56626, Note_off_c, 0, 36, 62
1, 56628, Note_off_c, 0, 67, 60
1, 56628, Control_c, 0, 64, 127
1, 56645, Note_on_c, 0, 24, 76
1, 56687, Note_off_c, 0, 70, 57
1, 56705, Note_off_c, 0, 24, 62
1, 56717, Note_on_c, 0, 36, 72
1, 56758, Note_off_c, 0, 36, 63
1, 56782, Note_on_c, 0, 24, 83
1, 56836, Note_off_c, 0, 24, 59
1, 56842, Note_on_c, 0, 36, 79
1, 56889, Note_off_c, 0, 36, 62
1, 56913, Note_on_c, 0, 24, 77
1, 56958, Note_off_c, 0, 24, 49
1, 56966, Note_on_c, 0, 36, 81
1, 56993, Note_on_c, 0, 78, 92
1, 56995, Note_on_c, 0, 69, 78
1, 56996, Note_on_c, 0, 66, 83
1, 57022, Note_off_c, 0, 36, 63
1, 57038, Note_on_c, 0, 24, 82
1, 57101, Note_off_c, 0, 24, 58
1, 57103, Note_on_c, 0, 36, 83
1, 57152, Note_off_c, 0, 36, 63
1, 57173, Note_on_c, 0, 24, 85
1, 57183, Poly_aftertouch_c, 0, 31, 127
1, 57217, Note_off_c, 0, 24, 65
1, 57226, Note_on_c, 0, 36, 81
1, 57244, Poly_aftertouch_c, 0, 31, 0
1, 57251, Note_off_c, 0, 36, 65
1, 57354, Poly_aftertouch_c, 0, 74, 127
1, 57483, Poly_aftertouch_c, 0, 74, 0
1, 57557, Note_on_c, 0, 65, 100
1, 57560, Note_on_c, 0, 62, 81
1, 57569, Note_on_c, 0, 53, 76
1, 57623, Note_off_c, 0, 66, 67
1, 57637, Note_off_c, 0, 69, 64
1, 57645, Note_off_c, 0, 78, 68
1, 57682, Control_c, 0, 64, 109
1, 57696, Control_c, 0, 64, 83
1, 57711, Control_c, 0, 64, 52
1, 57726, Control_c, 0, 64, 0
1, 57918, Control_c, 0, 64, 77
1, 57933, Control_c, 0, 64, 107
1, 57948, Control_c, 0, 64, 127
1, 58072, Note_off_c, 0, 65, 59
1, 58074, Note_on_c, 0, 81, 98
1, 58076, Note_on_c, 0, 72, 89
1, 58078, Note_on_c, 0, 69, 98
1, 58120, Note_off_c, 0, 62, 59
1, 58144, Note_off_c, 0, 53, 65
1, 58436, Note_off_c, 0, 69, 49
1, 58493, Note_off_c, 0, 81, 58
1, 58533, Note_off_c, 0, 72, 62
1, 58595, Note_on_c, 0, 24, 81
1, 58659, Note_on_c, 0, 36, 73
1, 58661, Note_off_c, 0, 24, 61
1, 58711, Note_off_c, 0, 36, 62
1, 58735, Note_on_c, 0, 24, 83
1, 58777, Note_off_c, 0, 24, 64
1, 58794, Note_on_c, 0, 36, 77
1, 58833, Note_off_c, 0, 36, 64
1, 58853, Note_on_c, 0, 24, 84
1, 58895, Note_off_c, 0, 24, 63
1, 58901, Note_on_c, 0, 36, 86
1, 58958, Note_off_c, 0, 36, 63
1, 58974, Note_on_c, 0, 24, 89
1, 59029, Note_off_c, 0, 24, 59
1, 59039, Note_on_c, 0, 36, 82
1, 59078, Note_off_c, 0, 36, 64
1, 59086, Note_on_c, 0, 59, 79
1, 59087, Note_on_c, 0, 68, 89
1, 59089, Note_on_c, 0, 56, 82
1, 59109, Note_on_c, 0, 24, 76
1, 59146, Note_off_c, 0, 24, 62
1, 59164, Note_on_c, 0, 36, 81
1, 59206, Note_off_c, 0, 36, 63
1, 59229, Note_on_c, 0, 24, 92
1, 59279, Note_on_c, 0, 36, 84
1, 59281, Note_off_c, 0, 24, 63
1, 59299, Note_off_c, 0, 36, 71
1, 59337, Note_off_c, 0, 56, 63
1, 59338, Note_off_c, 0, 59, 59
1, 59456, Note_off_c, 0, 68, 59
1, 59590, Note_on_c, 0, 65, 101
1, 59591, Note_on_c, 0, 62, 91
1, 59603, Note_on_c, 0, 53, 82
1, 59733, Control_c, 0, 64, 104
1, 59748, Control_c, 0, 64, 71
1, 59763, Control_c, 0, 64, 0
1, 59956, Control_c, 0, 64, 70
1, 59971, Control_c, 0, 64, 102
1, 59986, Control_c, 0, 64, 127
1, 60150, Note_off_c, 0, 65, 59
1, 60162, Note_on_c, 0, 81, 98
1, 60165, Note_on_c, 0, 69, 95
1, 60165, Note_on_c, 0, 72, 93
1, 60192, Note_off_c, 0, 62, 57
1, 60219, Note_off_c, 0, 53, 63
1, 60383, Note_off_c, 0, 69, 51
1, 60465, Note_off_c, 0, 72, 60
1, 60514, Note_off_c, 0, 81, 60
1, 60710, Note_on_c, 0, 24, 75
1, 60786, Note_off_c, 0, 24, 61
1, 60804, Note_on_c, 0, 36, 73
1, 60848, Note_off_c, 0, 36, 62
1, 60884, Note_on_c, 0, 24, 80
1, 60939, Note_on_c, 0, 36, 75
1, 60947, Note_off_c, 0, 24, 61
1, 60994, Note_off_c, 0, 36, 62
1, 61009, Note_on_c, 0, 24, 78
1, 61065, Note_on_c, 0, 36, 77
1, 61080, Note_off_c, 0, 24, 62
1, 61126, Note_off_c, 0, 36, 63
1, 61143, Note_on_c, 0, 24, 77
1, 61202, Note_on_c, 0, 68, 83
1, 61206, Note_on_c, 0, 59, 64
1, 61209, Note_on_c, 0, 56, 67
1, 61215, Note_on_c, 0, 36, 78
1, 61215, Note_off_c, 0, 24, 58
1, 61263, Note_off_c, 0, 36, 61
1, 61283, Note_on_c, 0, 24, 78
1, 61340, Note_off_c, 0, 24, 60
1, 61344, Note_on_c, 0, 36, 72
1, 61388, Note_off_c, 0, 36, 65
1, 61404, Note_on_c, 0, 24, 85
1, 61457, Note_off_c, 0, 24, 63
1, 61467, Note_on_c, 0, 36, 77
1, 61491, Note_off_c, 0, 36, 67
1, 61532, Note_off_c, 0, 56, 64
1, 61537, Note_off_c, 0, 59, 59
1, 61699, Note_off_c, 0, 68, 61
1, 61767, Note_on_c, 0, 66, 97
1, 61770, Note_on_c, 0, 63, 89
1, 61782, Note_on_c, 0, 54, 70
1, 61825, Control_c, 0, 64, 98
1, 61840, Control_c, 0, 64, 69
1, 61855, Control_c, 0, 64, 0
1, 61899, Control_c, 0, 64, 59
1, 61914, Control_c, 0, 64, 73
1, 61929, Control_c, 0, 64, 88
1, 61951, Control_c, 0, 64, 106
1, 61966, Control_c, 0, 64, 121
1, 61981, Control_c, 0, 64, 127
1, 62125, Note_on_c, 0, 68, 73
1, 62130, Note_on_c, 0, 71, 79
1, 62130, Note_on_c, 0, 80, 87
1, 62156, Note_off_c, 0, 68, 67
1, 62163, Note_off_c, 0, 71, 59
1, 62176, Note_off_c, 0, 80, 63
1, 62202, Control_c, 0, 64, 122
1, 62216, Note_on_c, 0, 72, 93
1, 62217, Control_c, 0, 64, 81
1, 62219, Note_on_c, 0, 81, 97
1, 62222, Note_on_c, 0, 69, 89
1, 62232, Control_c, 0, 64, 0
1, 62291, Control_c, 0, 64, 66
1, 62306, Control_c, 0, 64, 81
1, 62307, Note_off_c, 0, 66, 66
1, 62321, Control_c, 0, 64, 98
1, 62335, Control_c, 0, 64, 115
1, 62350, Control_c, 0, 64, 117
1, 62351, Note_off_c, 0, 63, 63
1, 62365, Control_c, 0, 64, 119
1, 62380, Control_c, 0, 64, 125
1, 62395, Control_c, 0, 64, 127
1, 62402, Note_off_c, 0, 54, 60
1, 62741, Note_off_c, 0, 72, 61
1, 62765, Note_on_c, 0, 24, 86
1, 62806, Note_off_c, 0, 69, 57
1, 62835, Note_off_c, 0, 24, 61
1, 62836, Note_on_c, 0, 36, 77
1, 62845, Note_off_c, 0, 81, 52
1, 62896, Note_off_c, 0, 36, 63
1, 62914, Note_on_c, 0, 24, 81
1, 62974, Note_on_c, 0, 36, 77
1, 62980, Note_off_c, 0, 24, 59
1, 63040, Note_off_c, 0, 36, 63
1, 63054, Note_on_c, 0, 24, 86
1, 63063, Note_on_c, 0, 83, 94
1, 63066, Note_on_c, 0, 74, 85
1, 63068, Note_on_c, 0, 71, 81
1, 63102, Note_off_c, 0, 74, 67
1, 63106, Note_off_c, 0, 83, 63
1, 63108, Note_off_c, 0, 71, 58
1, 63122, Note_on_c, 0, 36, 79
1, 63128, Note_off_c, 0, 24, 61
1, 63173, Note_on_c, 0, 72, 91
1, 63173, Note_on_c, 0, 75, 96
1, 63173, Note_on_c, 0, 84, 102
1, 63187, Note_off_c, 0, 36, 63
1, 63188, Control_c, 0, 64, 92
1, 63196, Note_on_c, 0, 24, 87
1, 63203, Control_c, 0, 64, 64
1, 63218, Control_c, 0, 64, 0
1, 63263, Control_c, 0, 64, 68
1, 63264, Note_on_c, 0, 36, 72
1, 63268, Note_off_c, 0, 24, 61
1, 63278, Control_c, 0, 64, 82
1, 63293, Control_c, 0, 64, 104
1, 63308, Control_c, 0, 64, 120
1, 63319, Note_off_c, 0, 36, 62
1, 63322, Control_c, 0, 64, 121
1, 63334, Note_on_c, 0, 24, 85
1, 63337, Control_c, 0, 64, 122
1, 63352, Control_c, 0, 64, 125
1, 63367, Control_c, 0, 64, 127
1, 63394, Note_on_c, 0, 36, 82
1, 63397, Note_off_c, 0, 24, 62
1, 63421, Note_off_c, 0, 36, 65
1, 63686, Note_on_c, 0, 66, 99
1, 63695, Note_on_c, 0, 63, 85
1, 63702, Note_on_c, 0, 54, 65
1, 63739, Note_off_c, 0, 84, 61
1, 63745, Note_off_c, 0, 72, 64
1, 63784, Note_off_c, 0, 75, 67
1, 64032, Note_on_c, 0, 83, 80
1, 64033, Note_on_c, 0, 74, 81
1, 64034, Note_on_c, 0, 71, 75
1, 64056, Note_off_c, 0, 83, 61
1, 64057, Note_off_c, 0, 71, 68
1, 64072, Note_off_c, 0, 74, 68
1, 64132, Note_on_c, 0, 82, 97
1, 64139, Note_on_c, 0, 70, 88
1, 64139, Note_on_c, 0, 73, 88
1, 64201, Note_off_c, 0, 66, 65
1, 64230, Note_off_c, 0, 54, 62
1, 64234, Note_off_c, 0, 63, 64
1, 64280, Note_off_c, 0, 82, 56
1, 64300, Note_off_c, 0, 70, 57
1, 64368, Note_off_c, 0, 73, 34
1, 64496, Note_on_c, 0, 81, 99
1, 64500, Note_on_c, 0, 72, 85
1, 64503, Note_on_c, 0, 69, 89
1, 64628, Note_on_c, 0, 24, 96
1, 64628, Control_c, 0, 64, 104
1, 64643, Control_c, 0, 64, 70
1, 64658, Control_c, 0, 64, 0
1, 64702, Control_c, 0, 64, 69
1, 64717, Control_c, 0, 64, 81
1, 64729, Note_off_c, 0, 24, 59
1, 64732, Note_on_c, 0, 36, 74
1, 64732, Control_c, 0, 64, 102
1, 64747, Control_c, 0, 64, 113
1, 64756, Note_off_c, 0, 69, 58
1, 64762, Control_c, 0, 64, 115
1, 64762, Note_off_c, 0, 81, 57
1, 64776, Control_c, 0, 64, 117
1, 64790, Control_c, 0, 64, 121
1, 64795, Note_off_c, 0, 36, 61
1, 64795, Note_off_c, 0, 72, 62
1, 64805, Control_c, 0, 64, 127
1, 64819, Note_on_c, 0, 24, 83
1, 64884, Note_off_c, 0, 24, 58
1, 64891, Note_on_c, 0, 36, 76
1, 64962, Note_on_c, 0, 69, 78
1, 64964, Note_on_c, 0, 72, 80
1, 64965, Note_on_c, 0, 81, 83
1, 64969, Note_off_c, 0, 36, 60
1, 64980, Note_on_c, 0, 24, 83
1, 64984, Note_off_c, 0, 81, 71
1, 64987, Note_off_c, 0, 69, 71
1, 64991, Note_off_c, 0, 72, 66
1, 65049, Note_on_c, 0, 36, 77
1, 65052, Note_off_c, 0, 24, 58
1, 65063, Note_on_c, 0, 82, 94
1, 65066, Note_on_c, 0, 70, 84
1, 65069, Note_on_c, 0, 73, 85
1, 65081, Control_c, 0, 64, 121
1, 65095, Control_c, 0, 64, 88
1, 65110, Control_c, 0, 64, 60
1, 65111, Note_off_c, 0, 36, 64
1, 65125, Control_c, 0, 64, 0
1, 65132, Note_on_c, 0, 24, 83
1, 65154, Control_c, 0, 64, 68
1, 65169, Control_c, 0, 64, 82
1, 65184, Control_c, 0, 64, 99
1, 65188, Note_off_c, 0, 24, 59
1, 65190, Note_on_c, 0, 36, 76
1, 65199, Control_c, 0, 64, 111
1, 65213, Control_c, 0, 64, 113
1, 65243, Control_c, 0, 64, 114
1, 65246, Note_off_c, 0, 36, 62
1, 65258, Control_c, 0, 64, 116
1, 65261, Note_on_c, 0, 24, 90
1, 65273, Control_c, 0, 64, 123
1, 65287, Control_c, 0, 64, 127
1, 65299, Note_off_c, 0, 24, 65
1, 65304, Note_on_c, 0, 36, 76
1, 65328, Note_off_c, 0, 36, 66
1, 65577, Note_on_c, 0, 64, 85
1, 65577, Note_on_c, 0, 67, 102
1, 65595, Note_on_c, 0, 55, 63
1, 65633, Note_off_c, 0, 70, 62
1, 65672, Note_off_c, 0, 73, 63
1, 65679, Note_off_c, 0, 82, 60
1, 65954, Note_on_c, 0, 75, 86
1, 65957, Note_on_c, 0, 72, 77
1, 65961, Note_on_c, 0, 84, 73
1, 65977, Note_off_c, 0, 84, 68
1, 65979, Note_off_c, 0, 72, 72
1, 65984, Note_on_c, 0, 78, 57
1, 66009, Note_off_c, 0, 78, 61
1, 66010, Note_off_c, 0, 75, 62
1, 66051, Note_on_c, 0, 76, 88
1, 66054, Note_on_c, 0, 73, 93
1, 66055, Note_on_c, 0, 85, 101
1, 66094, Note_off_c, 0, 67, 59
1, 66121, Note_off_c, 0, 64, 62
1, 66148, Note_off_c, 0, 55, 62
1, 66509, Note_on_c, 0, 24, 99
1, 66535, Control_c, 0, 64, 87
1, 66549, Control_c, 0, 64, 40
1, 66564, Control_c, 0, 64, 0
1, 66579, Control_c, 0, 64, 55
1, 66593, Control_c, 0, 64, 78
1, 66608, Control_c, 0, 64, 104
1, 66623, Control_c, 0, 64, 127
1, 66632, Note_on_c, 0, 36, 70
1, 66639, Note_off_c, 0, 24, 59
1, 66649, Note_off_c, 0, 76, 61
1, 66652, Note_off_c, 0, 85, 63
1, 66696, Note_off_c, 0, 73, 58
1, 66705, Note_off_c, 0, 36, 62
1, 66727, Note_on_c, 0, 24, 81
1, 66797, Note_off_c, 0, 24, 57
1, 66804, Note_on_c, 0, 36, 76
1, 66840, Note_on_c, 0, 84, 91
1, 66846, Note_on_c, 0, 75, 78
1, 66851, Note_on_c, 0, 72, 74
1, 66878, Note_off_c, 0, 72, 66
1, 66879, Note_off_c, 0, 75, 58
1, 66880, Note_off_c, 0, 36, 56
1, 66882, Note_off_c, 0, 84, 60
1, 66888, Note_on_c, 0, 24, 81
1, 66952, Note_on_c, 0, 36, 80
1, 66953, Note_on_c, 0, 83, 98
1, 66959, Note_off_c, 0, 24, 59
1, 66959, Note_on_c, 0, 71, 80
1, 66961, Note_on_c, 0, 74, 82
1, 67018, Note_off_c, 0, 36, 63
1, 67036, Note_on_c, 0, 24, 85
1, 67090, Note_off_c, 0, 83, 55
1, 67095, Note_off_c, 0, 24, 61
1, 67103, Note_on_c, 0, 36, 76
1, 67127, Note_off_c, 0, 71, 58
1, 67141, Note_off_c, 0, 36, 65
1, 67157, Note_on_c, 0, 24, 85
1, 67194, Note_off_c, 0, 74, 56
1, 67199, Note_off_c, 0, 24, 64
1, 67218, Note_on_c, 0, 36, 74
1, 67239, Note_off_c, 0, 36, 67
1, 67263, Poly_aftertouch_c, 0, 25, 0
1, 67281, Poly_aftertouch_c, 0, 25, 0
1, 67383, Note_on_c, 0, 82, 94
1, 67390, Note_on_c, 0, 70, 84
1, 67391, Note_on_c, 0, 73, 81
1, 67484, Note_on_c, 0, 81, 69
1, 67488, Note_on_c, 0, 68, 97
1, 67492, Note_on_c, 0, 65, 86
1, 67494, Note_on_c, 0, 56, 73
1, 67520, Control_c, 0, 64, 122
1, 67528, Note_off_c, 0, 73, 61
1, 67534, Control_c, 0, 64, 93
1, 67537, Note_off_c, 0, 82, 56
1, 67539, Note_off_c, 0, 70, 58
1, 67540, Note_off_c, 0, 81, 60
1, 67549, Control_c, 0, 64, 73
1, 67564, Control_c, 0, 64, 63
1, 67579, Control_c, 0, 64, 68
1, 67594, Control_c, 0, 64, 80
1, 67609, Control_c, 0, 64, 95
1, 67624, Control_c, 0, 64, 113
1, 67639, Control_c, 0, 64, 124
1, 67653, Control_c, 0, 64, 124
1, 67668, Control_c, 0, 64, 125
1, 67683, Control_c, 0, 64, 127
1, 67838, Note_on_c, 0, 76, 85
1, 67840, Note_on_c, 0, 84, 84
1, 67842, Note_on_c, 0, 72, 81
1, 67863, Note_off_c, 0, 72, 71
1, 67875, Note_off_c, 0, 84, 61
1, 67883, Note_off_c, 0, 76, 67
1, 67941, Note_on_c, 0, 85, 100
1, 67942, Note_on_c, 0, 77, 92
1, 67944, Note_on_c, 0, 73, 92
1, 67972, Control_c, 0, 64, 105
1, 67987, Control_c, 0, 64, 82
1, 68002, Control_c, 0, 64, 71
1, 68016, Control_c, 0, 64, 73
1, 68019, Note_off_c, 0, 68, 64
1, 68031, Control_c, 0, 64, 82
1, 68044, Note_off_c, 0, 65, 63
1, 68046, Control_c, 0, 64, 99
1, 68062, Control_c, 0, 64, 124
1, 68077, Control_c, 0, 64, 127
1, 68084, Note_off_c, 0, 56, 61
1, 68423, Note_on_c, 0, 24, 97
1, 68431, Control_c, 0, 64, 126
1, 68446, Control_c, 0, 64, 88
1, 68461, Control_c, 0, 64, 49
1, 68476, Control_c, 0, 64, 0
1, 68491, Control_c, 0, 64, 29
1, 68500, Note_off_c, 0, 77, 57
1, 68506, Control_c, 0, 64, 72
1, 68521, Control_c, 0, 64, 90
1, 68536, Control_c, 0, 64, 118
1, 68551, Control_c, 0, 64, 127
1, 68563, Note_off_c, 0, 24, 60
1, 68571, Note_on_c, 0, 36, 73
1, 68589, Note_off_c, 0, 73, 60
1, 68592, Note_off_c, 0, 85, 57
1, 68636, Note_off_c, 0, 36, 59
1, 68648, Note_on_c, 0, 24, 83
1, 68729, Note_on_c, 0, 36, 76
1, 68734, Note_off_c, 0, 24, 60
1, 68762, Note_on_c, 0, 78, 91
1, 68768, Note_on_c, 0, 74, 78
1, 68774, Note_on_c, 0, 86, 73
1, 68789, Note_off_c, 0, 74, 70
1, 68796, Note_off_c, 0, 86, 67
1, 68798, Note_off_c, 0, 36, 63
1, 68811, Note_on_c, 0, 24, 85
1, 68825, Note_off_c, 0, 78, 61
1, 68873, Note_on_c, 0, 79, 88
1, 68875, Note_on_c, 0, 75, 90
1, 68875, Note_on_c, 0, 87, 95
1, 68876, Note_off_c, 0, 24, 59
1, 68878, Note_on_c, 0, 36, 84
1, 68935, Note_off_c, 0, 36, 62
1, 68955, Note_on_c, 0, 24, 86
1, 69013, Note_off_c, 0, 24, 62
1, 69014, Note_on_c, 0, 36, 79
1, 69067, Note_off_c, 0, 36, 63
1, 69086, Note_on_c, 0, 24, 89
1, 69126, Note_off_c, 0, 24, 63
1, 69126, Note_on_c, 0, 36, 80
1, 69159, Note_off_c, 0, 36, 64
1, 69199, Poly_aftertouch_c, 0, 25, 0
1, 69387, Note_on_c, 0, 68, 101
1, 69392, Note_on_c, 0, 65, 83
1, 69402, Note_on_c, 0, 56, 69
1, 69445, Note_off_c, 0, 79, 60
1, 69466, Note_off_c, 0, 75, 61
1, 69484, Note_off_c, 0, 87, 62
1, 69722, Note_on_c, 0, 76, 87
1, 69723, Note_on_c, 0, 80, 90
1, 69726, Note_on_c, 0, 88, 78
1, 69728, Note_on_c, 0, 89, 86
1, 69746, Note_off_c, 0, 89, 72
1, 69753, Note_off_c, 0, 76, 60
1, 69765, Note_off_c, 0, 88, 62
1, 69768, Note_off_c, 0, 80, 61
1, 69809, Note_on_c, 0, 77, 70
1, 69815, Note_on_c, 0, 89, 106
1, 69818, Note_on_c, 0, 81, 100
1, 69859, Note_off_c, 0, 68, 63
1, 69878, Note_off_c, 0, 77, 56
1, 69883, Note_off_c, 0, 65, 63
1, 69910, Note_off_c, 0, 89, 65
1, 69914, Note_off_c, 0, 81, 62
1, 69923, Note_off_c, 0, 56, 65
1, 70088, Note_on_c, 0, 90, 102
1, 70090, Note_on_c, 0, 78, 94
1, 70094, Note_on_c, 0, 82, 90
1, 70218, Note_on_c, 0, 24, 100
1, 70248, Control_c, 0, 64, 95
1, 70263, Control_c, 0, 64, 76
1, 70278, Control_c, 0, 64, 68
1, 70289, Note_off_c, 0, 82, 62
1, 70292, Control_c, 0, 64, 75
1, 70299, Note_off_c, 0, 78, 61
1, 70304, Note_off_c, 0, 90, 58
1, 70307, Control_c, 0, 64, 89
1, 70322, Control_c, 0, 64, 114
1, 70324, Note_on_c, 0, 36, 78
1, 70336, Note_off_c, 0, 24, 61
1, 70336, Control_c, 0, 64, 127
1, 70396, Note_off_c, 0, 36, 63
1, 70413, Note_on_c, 0, 24, 85
1, 70428, Note_on_c, 0, 91, 96
1, 70432, Note_on_c, 0, 83, 82
1, 70435, Note_on_c, 0, 79, 80
1, 70474, Note_off_c, 0, 79, 57
1, 70476, Note_on_c, 0, 36, 79
1, 70482, Note_off_c, 0, 24, 61
1, 70496, Note_off_c, 0, 91, 57
1, 70509, Note_off_c, 0, 83, 53
1, 70542, Note_off_c, 0, 36, 63
1, 70558, Note_on_c, 0, 24, 86
1, 70619, Note_on_c, 0, 36, 85
1, 70622, Note_off_c, 0, 24, 59
1, 70642, Note_on_c, 0, 92, 97
1, 70643, Note_on_c, 0, 80, 88
1, 70648, Note_on_c, 0, 84, 82
1, 70670, Note_off_c, 0, 84, 68
1, 70674, Note_off_c, 0, 36, 63
1, 70696, Note_on_c, 0, 24, 88
1, 70745, Note_off_c, 0, 24, 63
1, 70748, Note_off_c, 0, 92, 62
1, 70757, Note_off_c, 0, 80, 61
1, 70768, Note_on_c, 0, 36, 72
1, 70801, Note_on_c, 0, 24, 68
1, 70826, Note_off_c, 0, 24, 65
1, 70843, Note_on_c, 0, 93, 104
1, 70847, Note_on_c, 0, 81, 99
1, 70850, Note_on_c, 0, 85, 93
1, 70858, Note_off_c, 0, 36, 64
1, 70897, Note_off_c, 0, 81, 56
1, 70915, Note_off_c, 0, 93, 59
1, 70979, Note_off_c, 0, 85, 63
1, 71070, Note_on_c, 0, 94, 101
1, 71071, Note_on_c, 0, 65, 75
1, 71072, Note_on_c, 0, 82, 96
1, 71075, Note_on_c, 0, 68, 93
1, 71076, Note_on_c, 0, 86, 84
1, 71087, Note_on_c, 0, 56, 70
1, 71093, Note_off_c, 0, 86, 72
1, 71108, Note_off_c, 0, 82, 64
1, 71113, Note_off_c, 0, 94, 68
1, 71306, Note_on_c, 0, 95, 104
1, 71308, Note_on_c, 0, 83, 93
1, 71314, Note_on_c, 0, 87, 89
1, 71332, Note_off_c, 0, 87, 71
1, 71378, Note_off_c, 0, 83, 40
1, 71424, Note_off_c, 0, 95, 53
1, 71549, Note_on_c, 0, 96, 109
1, 71551, Note_on_c, 0, 84, 97
1, 71552, Note_on_c, 0, 88, 95
1, 71624, Note_off_c, 0, 84, 63
1, 71627, Note_off_c, 0, 56, 58
1, 71648, Note_off_c, 0, 96, 61
1, 71666, Note_off_c, 0, 88, 61
1, 71770, Note_off_c, 0, 68, 55
1, 71829, Note_on_c, 0, 97, 103
1, 71833, Note_on_c, 0, 85, 100
1, 71836, Note_on_c, 0, 89, 95
1, 71871, Note_off_c, 0, 97, 69
1, 71877, Note_off_c, 0, 65, 61
1, 71899, Note_off_c, 0, 85, 64
1, 71904, Note_off_c, 0, 89, 65
1, 72190, Control_c, 0, 64, 115
1, 72205, Control_c, 0, 64, 82
1, 72220, Control_c, 0, 64, 0
1, 72474, Note_on_c, 0, 61, 90
1, 72474, Note_on_c, 0, 73, 114
1, 73213, Control_c, 0, 64, 36
1, 73228, Control_c, 0, 64, 44
1, 73243, Control_c, 0, 64, 49
1, 73258, Control_c, 0, 64, 53
1, 73272, Control_c, 0, 64, 56
1, 73287, Control_c, 0, 64, 60
1, 73302, Control_c, 0, 64, 64
1, 73317, Control_c, 0, 64, 67
1, 73332, Control_c, 0, 64, 70
1, 73347, Control_c, 0, 64, 75
1, 73361, Control_c, 0, 64, 81
1, 73376, Control_c, 0, 64, 85
1, 73391, Control_c, 0, 64, 88
1, 73406, Control_c, 0, 64, 89
1, 73420, Control_c, 0, 64, 91
1, 73435, Control_c, 0, 64, 94
1, 73450, Control_c, 0, 64, 96
1, 73465, Control_c, 0, 64, 98
1, 73479, Control_c, 0, 64, 101
1, 73494, Control_c, 0, 64, 102
1, 73509, Control_c, 0, 64, 103
1, 73524, Control_c, 0, 64, 105
1, 73539, Control_c, 0, 64, 105
1, 73553, Control_c, 0, 64, 107
1, 73568, Control_c, 0, 64, 108
1, 73583, Control_c, 0, 64, 109
1, 73598, Control_c, 0, 64, 109
1, 73613, Control_c, 0, 64, 110
1, 73627, Control_c, 0, 64, 111
1, 73642, Control_c, 0, 64, 111
1, 73658, Control_c, 0, 64, 112
1, 73673, Control_c, 0, 64, 113
1, 73688, Control_c, 0, 64, 114
1, 73717, Control_c, 0, 64, 115
1, 73747, Control_c, 0, 64, 115
1, 73762, Control_c, 0, 64, 116
1, 73776, Control_c, 0, 64, 116
1, 73791, Control_c, 0, 64, 117
1, 73806, Control_c, 0, 64, 117
1, 73821, Control_c, 0, 64, 118
1, 73836, Control_c, 0, 64, 119
1, 73851, Control_c, 0, 64, 119
1, 73866, Control_c, 0, 64, 120
1, 73881, Control_c, 0, 64, 120
1, 73888, Note_off_c, 0, 73, 49
1, 73895, Control_c, 0, 64, 121
1, 73897, Note_off_c, 0, 61, 57
1, 73910, Control_c, 0, 64, 121
1, 73947, Control_c, 0, 64, 122
1, 73962, Control_c, 0, 64, 123
1, 73976, Control_c, 0, 64, 123
1, 73991, Control_c, 0, 64, 124
1, 74005, Note_on_c, 0, 61, 52
1, 74006, Note_on_c, 0, 73, 66
1, 74006, Control_c, 0, 64, 125
1, 74024, Note_off_c, 0, 73, 63
1, 74027, Note_off_c, 0, 61, 58
1, 74036, Control_c, 0, 64, 126
1, 74050, Control_c, 0, 64, 127
1, 74065, Control_c, 0, 64, 127
1, 74067, Note_on_c, 0, 61, 76
1, 74071, Note_on_c, 0, 73, 85
1, 74096, Note_off_c, 0, 61, 66
1, 74106, Note_off_c, 0, 73, 64
1, 74146, Note_on_c, 0, 61, 95
1, 74148, Note_on_c, 0, 73, 88
1, 74174, Note_off_c, 0, 61, 64
1, 74179, Note_off_c, 0, 73, 64
1, 74204, Note_on_c, 0, 61, 94
1, 74214, Note_on_c, 0, 73, 99
1, 74229, Note_off_c, 0, 61, 71
1, 75443, Note_off_c, 0, 73, 52
1, 75535, Note_on_c, 0, 61, 68
1, 75551, Note_on_c, 0, 73, 47
1, 75563, Note_off_c, 0, 61, 65
1, 75577, Note_off_c, 0, 73, 53
1, 75607, Note_on_c, 0, 73, 80
1, 75612, Note_on_c, 0, 61, 83
1, 75636, Note_off_c, 0, 61, 65
1, 75646, Note_off_c, 0, 73, 63
1, 75687, Note_on_c, 0, 73, 74
1, 75708, Note_on_c, 0, 61, 59
1, 75713, Note_off_c, 0, 73, 66
1, 75727, Note_off_c, 0, 61, 63
1, 75741, Note_on_c, 0, 61, 92
1, 75745, Note_on_c, 0, 73, 102
1, 75773, Note_off_c, 0, 61, 67
1, 75776, Note_off_c, 0, 73, 69
1, 76487, Note_on_c, 0, 73, 98
1, 76488, Note_on_c, 0, 69, 97
1, 76492, Note_on_c, 0, 61, 97
1, 76495, Note_on_c, 0, 57, 78
1, 76519, Note_off_c, 0, 61, 70
1, 76523, Note_off_c, 0, 57, 66
1, 76525, Note_off_c, 0, 69, 69
1, 76527, Note_off_c, 0, 73, 66
1, 77198, Note_on_c, 0, 73, 93
1, 77199, Note_on_c, 0, 53, 93
1, 77201, Note_on_c, 0, 61, 93
1, 77204, Note_on_c, 0, 57, 86
1, 77205, Note_on_c, 0, 69, 85
1, 77206, Note_on_c, 0, 65, 83
1, 77234, Note_off_c, 0, 57, 65
1, 77240, Note_off_c, 0, 53, 69
1, 77263, Note_off_c, 0, 61, 59
1, 77270, Note_off_c, 0, 73, 65
1, 77279, Note_off_c, 0, 65, 48
1, 77331, Note_off_c, 0, 69, 60
1, 77953, Note_on_c, 0, 61, 91
1, 77953, Note_on_c, 0, 73, 92
1, 77954, Note_on_c, 0, 64, 83
1, 77958, Note_on_c, 0, 52, 89
1, 77958, Note_on_c, 0, 57, 89
1, 77967, Note_on_c, 0, 69, 82
1, 78003, Control_c, 0, 64, 96
1, 78018, Control_c, 0, 64, 66
1, 78033, Control_c, 0, 64, 0
1, 78092, Control_c, 0, 64, 65
1, 78107, Control_c, 0, 64, 75
1, 78122, Control_c, 0, 64, 87
1, 78136, Control_c, 0, 64, 94
1, 78151, Control_c, 0, 64, 99
1, 78166, Control_c, 0, 64, 103
1, 78181, Control_c, 0, 64, 110
1, 78183, Note_off_c, 0, 52, 66
1, 78193, Note_off_c, 0, 73, 65
1, 78196, Control_c, 0, 64, 120
1, 78211, Control_c, 0, 64, 127
1, 78216, Note_off_c, 0, 69, 62
1, 78222, Note_off_c, 0, 57, 60
1, 78239, Note_off_c, 0, 61, 62
1, 78259, Note_off_c, 0, 64, 63
1, 78841, Note_on_c, 0, 61, 96
1, 78846, Note_on_c, 0, 49, 90
1, 78900, Control_c, 0, 64, 113
1, 78915, Control_c, 0, 64, 88
1, 78930, Control_c, 0, 64, 67
1, 78945, Control_c, 0, 64, 0
1, 79138, Control_c, 0, 64, 31
1, 79153, Control_c, 0, 64, 48
1, 79175, Control_c, 0, 64, 56
1, 79190, Control_c, 0, 64, 60
1, 79204, Control_c, 0, 64, 62
1, 79219, Control_c, 0, 64, 63
1, 79234, Control_c, 0, 64, 65
1, 79250, Control_c, 0, 64, 67
1, 79265, Control_c, 0, 64, 70
1, 79279, Control_c, 0, 64, 73
1, 79294, Control_c, 0, 64, 75
1, 79309, Control_c, 0, 64, 77
1, 79362, Note_on_c, 0, 53, 91
1, 79366, Note_on_c, 0, 46, 79
1, 79368, Control_c, 0, 64, 76
1, 79371, Note_on_c, 0, 44, 74
1, 79383, Control_c, 0, 64, 74
1, 79398, Control_c, 0, 64, 68
1, 79413, Control_c, 0, 64, 51
1, 79428, Control_c, 0, 64, 0
1, 79531, Control_c, 0, 64, 56
1, 79546, Control_c, 0, 64, 63
1, 79561, Control_c, 0, 64, 66
1, 79576, Control_c, 0, 64, 67
1, 79590, Control_c, 0, 64, 70
1, 79605, Control_c, 0, 64, 74
1, 79620, Control_c, 0, 64, 78
1, 79635, Control_c, 0, 64, 81
1, 79650, Control_c, 0, 64, 83
1, 79664, Control_c, 0, 64, 85
1, 79679, Control_c, 0, 64, 86
1, 79694, Control_c, 0, 64, 87
1, 79709, Control_c, 0, 64, 89
1, 79723, Control_c, 0, 64, 90
1, 79738, Control_c, 0, 64, 92
1, 79753, Control_c, 0, 64, 93
1, 79768, Control_c, 0, 64, 94
1, 79783, Control_c, 0, 64, 95
1, 79797, Control_c, 0, 64, 95
1, 79812, Control_c, 0, 64, 96
1, 79827, Control_c, 0, 64, 96
1, 79841, Control_c, 0, 64, 97
1, 79856, Control_c, 0, 64, 97
1, 79871, Control_c, 0, 64, 98
1, 79877, Note_off_c, 0, 46, 53
1, 79891, Note_off_c, 0, 53, 39
1, 79901, Control_c, 0, 64, 98
1, 79923, Control_c, 0, 64, 99
1, 79938, Control_c, 0, 64, 99
1, 79953, Control_c, 0, 64, 100
1, 79982, Control_c, 0, 64, 100
1, 80324, Control_c, 0, 64, 100
1, 80338, Control_c, 0, 64, 98
1, 80344, Note_on_c, 0, 46, 54
1, 80352, Note_on_c, 0, 43, 53
1, 80353, Control_c, 0, 64, 96
1, 80356, Note_on_c, 0, 52, 54
1, 80365, Note_off_c, 0, 44, 55
1, 80368, Control_c, 0, 64, 92
1, 80383, Control_c, 0, 64, 85
1, 80398, Control_c, 0, 64, 76
1, 80412, Control_c, 0, 64, 65
1, 80427, Control_c, 0, 64, 0
1, 80596, Note_off_c, 0, 46, 61
1, 80606, Note_off_c, 0, 52, 66
1, 80615, Note_off_c, 0, 43, 61
1, 80671, Control_c, 0, 64, 53
1, 80686, Control_c, 0, 64, 67
1, 80701, Control_c, 0, 64, 73
1, 80716, Control_c, 0, 64, 82
1, 80731, Control_c, 0, 64, 88
1, 80746, Control_c, 0, 64, 93
1, 80760, Control_c, 0, 64, 95
1, 80775, Note_off_c, 0, 61, 58
1, 80775, Control_c, 0, 64, 97
1, 80781, Note_off_c, 0, 49, 55
1, 80790, Control_c, 0, 64, 98
1, 80805, Control_c, 0, 64, 100
1, 80820, Control_c, 0, 64, 102
1, 80835, Control_c, 0, 64, 103
1, 80871, Note_on_c, 0, 61, 94
1, 80877, Note_on_c, 0, 49, 86
1, 80910, Control_c, 0, 64, 99
1, 80924, Control_c, 0, 64, 92
1, 80939, Control_c, 0, 64, 82
1, 80954, Control_c, 0, 64, 70
1, 80969, Control_c, 0, 64, 28
1, 80984, Control_c, 0, 64, 0
1, 81058, Control_c, 0, 64, 57
1, 81073, Control_c, 0, 64, 66
1, 81087, Control_c, 0, 64, 71
1, 81102, Control_c, 0, 64, 76
1, 81117, Control_c, 0, 64, 82
1, 81132, Control_c, 0, 64, 86
1, 81147, Control_c, 0, 64, 87
1, 81161, Control_c, 0, 64, 88
1, 81176, Control_c, 0, 64, 90
1, 81191, Control_c, 0, 64, 91
1, 81206, Control_c, 0, 64, 92
1, 81221, Control_c, 0, 64, 92
1, 81235, Control_c, 0, 64, 93
1, 81251, Control_c, 0, 64, 93
1, 81266, Control_c, 0, 64, 94
1, 81281, Control_c, 0, 64, 94
1, 81369, Control_c, 0, 64, 92
1, 81375, Note_on_c, 0, 53, 87
1, 81383, Note_on_c, 0, 46, 75
1, 81384, Control_c, 0, 64, 86
1, 81388, Note_on_c, 0, 44, 70
1, 81399, Control_c, 0, 64, 76
1, 81422, Control_c, 0, 64, 62
1, 81437, Control_c, 0, 64, 0
1, 81525, Control_c, 0, 64, 28
1, 81540, Control_c, 0, 64, 61
1, 81555, Control_c, 0, 64, 66
1, 81569, Control_c, 0, 64, 70
1, 81584, Control_c, 0, 64, 72
1, 81599, Control_c, 0, 64, 75
1, 81613, Control_c, 0, 64, 77
1, 81628, Control_c, 0, 64, 79
1, 81645, Control_c, 0, 64, 80
1, 81660, Control_c, 0, 64, 81
1, 81674, Control_c, 0, 64, 82
1, 81689, Control_c, 0, 64, 83
1, 81704, Control_c, 0, 64, 84
1, 81718, Control_c, 0, 64, 85
1, 81733, Control_c, 0, 64, 86
1, 81748, Control_c, 0, 64, 86
1, 81763, Control_c, 0, 64, 87
1, 81778, Control_c, 0, 64, 87
1, 81786, Note_off_c, 0, 46, 55
1, 81792, Control_c, 0, 64, 88
1, 81807, Control_c, 0, 64, 88
1, 81822, Note_off_c, 0, 53, 57
1, 81822, Control_c, 0, 64, 89
1, 82438, Control_c, 0, 64, 88
1, 82453, Control_c, 0, 64, 86
1, 82467, Control_c, 0, 64, 82
1, 82482, Control_c, 0, 64, 74
1, 82484, Note_on_c, 0, 52, 58
1, 82487, Note_on_c, 0, 46, 51
1, 82496, Note_off_c, 0, 44, 32
1, 82497, Note_on_c, 0, 43, 49
1, 82497, Control_c, 0, 64, 65
1, 82512, Control_c, 0, 64, 0
1, 82700, Note_off_c, 0, 46, 60
1, 82714, Note_off_c, 0, 52, 65
1, 82719, Control_c, 0, 64, 46
1, 82734, Control_c, 0, 64, 54
1, 82749, Control_c, 0, 64, 54
1, 82779, Control_c, 0, 64, 55
1, 82793, Control_c, 0, 64, 56
1, 82796, Note_off_c, 0, 43, 52
1, 82808, Control_c, 0, 64, 57
1, 82823, Control_c, 0, 64, 59
1, 82838, Control_c, 0, 64, 60
1, 82852, Control_c, 0, 64, 61
1, 82867, Control_c, 0, 64, 62
1, 82897, Control_c, 0, 64, 62
1, 82919, Control_c, 0, 64, 63
1, 82934, Control_c, 0, 64, 63
1, 82948, Control_c, 0, 64, 64
1, 82993, Control_c, 0, 64, 64
1, 83053, Control_c, 0, 64, 65
1, 83067, Control_c, 0, 64, 64
1, 83082, Control_c, 0, 64, 61
1, 83097, Control_c, 0, 64, 52
1, 83112, Control_c, 0, 64, 46
1, 83127, Control_c, 0, 64, 52
1, 83141, Control_c, 0, 64, 60
1, 83156, Control_c, 0, 64, 64
1, 83158, Note_on_c, 0, 25, 43
1, 83171, Control_c, 0, 64, 68
1, 83182, Note_off_c, 0, 61, 60
1, 83186, Control_c, 0, 64, 74
1, 83201, Control_c, 0, 64, 79
1, 83215, Control_c, 0, 64, 84
1, 83230, Control_c, 0, 64, 86
1, 83246, Control_c, 0, 64, 87
1, 83248, Note_off_c, 0, 25, 54
1, 83263, Note_off_c, 0, 49, 58
1, 83276, Control_c, 0, 64, 88
1, 83279, Note_on_c, 0, 37, 45
1, 83290, Control_c, 0, 64, 89
1, 83305, Control_c, 0, 64, 90
1, 83320, Control_c, 0, 64, 91
1, 83327, Note_off_c, 0, 37, 59
1, 83335, Control_c, 0, 64, 92
1, 83367, Note_on_c, 0, 25, 44
1, 83379, Control_c, 0, 64, 92
1, 83416, Note_off_c, 0, 25, 57
1, 83440, Note_on_c, 0, 37, 57
1, 83498, Note_off_c, 0, 37, 58
1, 83520, Note_on_c, 0, 52, 69
1, 83521, Note_on_c, 0, 25, 59
1, 83524, Note_on_c, 0, 46, 65
1, 83557, Note_off_c, 0, 46, 63
1, 83576, Poly_aftertouch_c, 0, 43, 127
1, 83583, Note_off_c, 0, 25, 57
1, 83586, Control_c, 0, 64, 92
1, 83588, Note_off_c, 0, 52, 65
1, 83601, Control_c, 0, 64, 89
1, 83611, Note_on_c, 0, 53, 74
1, 83614, Note_on_c, 0, 37, 54
1, 83616, Control_c, 0, 64, 81
1, 83618, Poly_aftertouch_c, 0, 43, 0
1, 83626, Note_on_c, 0, 49, 65
1, 83629, Note_on_c, 0, 44, 58
1, 83630, Control_c, 0, 64, 69
1, 83645, Control_c, 0, 64, 0
1, 83667, Note_off_c, 0, 37, 61
1, 83697, Note_on_c, 0, 25, 46
1, 83712, Control_c, 0, 64, 58
1, 83726, Control_c, 0, 64, 69
1, 83739, Note_off_c, 0, 25, 61
1, 83741, Control_c, 0, 64, 75
1, 83756, Control_c, 0, 64, 80
1, 83768, Note_on_c, 0, 37, 56
1, 83771, Control_c, 0, 64, 83
1, 83801, Control_c, 0, 64, 83
1, 83816, Control_c, 0, 64, 84
1, 83817, Note_off_c, 0, 37, 59
1, 83831, Control_c, 0, 64, 85
1, 83834, Note_on_c, 0, 25, 57
1, 83845, Control_c, 0, 64, 86
1, 83860, Control_c, 0, 64, 87
1, 83875, Control_c, 0, 64, 88
1, 83887, Note_off_c, 0, 25, 56
1, 83889, Control_c, 0, 64, 88
1, 83904, Control_c, 0, 64, 89
1, 83917, Note_on_c, 0, 37, 58
1, 83919, Control_c, 0, 64, 90
1, 83949, Control_c, 0, 64, 90
1, 83962, Note_off_c, 0, 37, 59
1, 83963, Control_c, 0, 64, 91
1, 83976, Note_on_c, 0, 25, 63
1, 83978, Control_c, 0, 64, 92
1, 83993, Control_c, 0, 64, 93
1, 84007, Control_c, 0, 64, 95
1, 84022, Note_off_c, 0, 25, 60
1, 84022, Control_c, 0, 64, 96
1, 84026, Note_off_c, 0, 53, 64
1, 84029, Note_off_c, 0, 44, 55
1, 84037, Note_on_c, 0, 37, 58
1, 84039, Control_c, 0, 64, 97
1, 84054, Control_c, 0, 64, 98
1, 84068, Control_c, 0, 64, 98
1, 84079, Note_off_c, 0, 37, 60
1, 84082, Note_off_c, 0, 49, 60
1, 84083, Control_c, 0, 64, 99
1, 84098, Control_c, 0, 64, 100
1, 84108, Note_on_c, 0, 25, 68
1, 84112, Control_c, 0, 64, 100
1, 84127, Control_c, 0, 64, 101
1, 84142, Control_c, 0, 64, 102
1, 84148, Note_off_c, 0, 25, 62
1, 84157, Control_c, 0, 64, 103
1, 84160, Note_on_c, 0, 37, 67
1, 84172, Control_c, 0, 64, 104
1, 84186, Control_c, 0, 64, 105
1, 84201, Note_off_c, 0, 37, 63
1, 84201, Control_c, 0, 64, 106
1, 84216, Control_c, 0, 64, 107
1, 84224, Note_on_c, 0, 25, 75
1, 84231, Control_c, 0, 64, 109
1, 84245, Control_c, 0, 64, 112
1, 84260, Control_c, 0, 64, 115
1, 84275, Control_c, 0, 64, 118
1, 84279, Note_off_c, 0, 25, 62
1, 84281, Note_on_c, 0, 37, 68
1, 84290, Control_c, 0, 64, 122
1, 84304, Control_c, 0, 64, 127
1, 84319, Control_c, 0, 64, 127
1, 84341, Note_off_c, 0, 37, 61
1, 84356, Note_on_c, 0, 25, 73
1, 84370, Note_on_c, 0, 46, 83
1, 84376, Note_on_c, 0, 55, 74
1, 84384, Note_on_c, 0, 49, 70
1, 84421, Note_on_c, 0, 37, 67
1, 84425, Note_off_c, 0, 49, 60
1, 84427, Note_off_c, 0, 25, 63
1, 84433, Note_off_c, 0, 46, 63
1, 84449, Note_off_c, 0, 55, 54
1, 84472, Note_on_c, 0, 56, 87
1, 84475, Note_on_c, 0, 47, 86
1, 84478, Note_on_c, 0, 49, 88
1, 84486, Note_off_c, 0, 37, 60
1, 84490, Control_c, 0, 64, 113
1, 84499, Note_on_c, 0, 25, 73
1, 84504, Control_c, 0, 64, 91
1, 84519, Control_c, 0, 64, 70
1, 84534, Control_c, 0, 64, 0
1, 84562, Note_off_c, 0, 25, 62
1, 84566, Note_on_c, 0, 37, 65
1, 84579, Control_c, 0, 64, 53
1, 84593, Control_c, 0, 64, 70
1, 84608, Control_c, 0, 64, 81
1, 84609, Note_off_c, 0, 37, 63
1, 84623, Control_c, 0, 64, 90
1, 84629, Note_on_c, 0, 25, 68
1, 84637, Control_c, 0, 64, 92
1, 84667, Control_c, 0, 64, 93
1, 84675, Note_off_c, 0, 25, 62
1, 84682, Control_c, 0, 64, 94
1, 84689, Note_on_c, 0, 37, 77
1, 84697, Control_c, 0, 64, 95
1, 84711, Control_c, 0, 64, 97
1, 84726, Control_c, 0, 64, 99
1, 84730, Note_off_c, 0, 37, 61
1, 84741, Control_c, 0, 64, 101
1, 84754, Note_on_c, 0, 25, 77
1, 84756, Control_c, 0, 64, 102
1, 84771, Control_c, 0, 64, 103
1, 84785, Control_c, 0, 64, 104
1, 84792, Note_off_c, 0, 25, 62
1, 84800, Control_c, 0, 64, 105
1, 84801, Note_on_c, 0, 37, 78
1, 84815, Control_c, 0, 64, 105
1, 84831, Control_c, 0, 64, 106
1, 84846, Control_c, 0, 64, 107
1, 84860, Note_on_c, 0, 25, 80
1, 84861, Control_c, 0, 64, 107
1, 84867, Note_off_c, 0, 37, 59
1, 84876, Control_c, 0, 64, 108
1, 84890, Control_c, 0, 64, 108
1, 84896, Note_off_c, 0, 25, 58
1, 84905, Control_c, 0, 64, 109
1, 84911, Note_on_c, 0, 37, 63
1, 84949, Control_c, 0, 64, 110
1, 84969, Note_off_c, 0, 37, 58
1, 84972, Note_on_c, 0, 25, 75
1, 84979, Control_c, 0, 64, 110
1, 85006, Note_off_c, 0, 25, 65
1, 85009, Control_c, 0, 64, 111
1, 85018, Note_on_c, 0, 37, 74
1, 85024, Control_c, 0, 64, 112
1, 85039, Control_c, 0, 64, 112
1, 85053, Control_c, 0, 64, 113
1, 85069, Note_on_c, 0, 25, 76
1, 85080, Note_off_c, 0, 37, 64
1, 85113, Control_c, 0, 64, 113
1, 85119, Note_off_c, 0, 25, 63
1, 85132, Note_on_c, 0, 37, 71
1, 85200, Note_on_c, 0, 25, 71
1, 85203, Note_off_c, 0, 37, 63
1, 85232, Note_off_c, 0, 25, 65
1, 85259, Note_on_c, 0, 37, 60
1, 85273, Note_off_c, 0, 47, 62
1, 85314, Note_on_c, 0, 25, 70
1, 85317, Note_off_c, 0, 37, 63
1, 85345, Note_off_c, 0, 25, 65
1, 85363, Note_on_c, 0, 37, 53
1, 85414, Note_on_c, 0, 25, 65
1, 85437, Note_off_c, 0, 56, 59
1, 85443, Note_off_c, 0, 37, 0
1, 85449, Note_off_c, 0, 25, 63
1, 85458, Note_on_c, 0, 37, 44
1, 85460, Note_off_c, 0, 49, 32
1, 85548, Note_on_c, 0, 25, 47
1, 85571, Note_off_c, 0, 37, 0
1, 85571, Note_on_c, 0, 37, 13
1, 85584, Note_off_c, 0, 25, 49
1, 85638, Note_off_c, 0, 37, 59
1, 85670, Control_c, 0, 64, 112
1, 85676, Note_on_c, 0, 25, 41
1, 85682, Note_on_c, 0, 55, 80
1, 85684, Control_c, 0, 64, 104
1, 85697, Note_on_c, 0, 49, 64
1, 85699, Control_c, 0, 64, 91
1, 85702, Note_on_c, 0, 46, 59
1, 85706, Note_on_c, 0, 37, 39
1, 85708, Note_off_c, 0, 25, 60
1, 85714, Control_c, 0, 64, 76
1, 85729, Control_c, 0, 64, 52
1, 85743, Control_c, 0, 64, 0
1, 85760, Note_off_c, 0, 37, 58
1, 85772, Control_c, 0, 64, 45
1, 85787, Control_c, 0, 64, 69
1, 85802, Control_c, 0, 64, 79
1, 85804, Note_on_c, 0, 25, 44
1, 85817, Control_c, 0, 64, 88
1, 85831, Control_c, 0, 64, 91
1, 85846, Note_off_c, 0, 25, 44
1, 85852, Note_on_c, 0, 37, 51
1, 85876, Control_c, 0, 64, 91
1, 85891, Control_c, 0, 64, 92
1, 85913, Control_c, 0, 64, 94
1, 85914, Note_off_c, 0, 37, 60
1, 85921, Note_off_c, 0, 46, 53
1, 85927, Note_on_c, 0, 25, 64
1, 85928, Control_c, 0, 64, 96
1, 85943, Control_c, 0, 64, 96
1, 85957, Control_c, 0, 64, 97
1, 85968, Note_off_c, 0, 25, 59
1, 85972, Control_c, 0, 64, 97
1, 85990, Note_on_c, 0, 37, 59
1, 85990, Note_off_c, 0, 49, 30
1, 86031, Control_c, 0, 64, 98
1, 86052, Note_off_c, 0, 37, 61
1, 86055, Note_on_c, 0, 25, 61
1, 86090, Note_off_c, 0, 55, 60
1, 86131, Note_off_c, 0, 25, 52
1, 86132, Note_on_c, 0, 37, 56
1, 86135, Control_c, 0, 64, 97
1, 86141, Note_on_c, 0, 54, 76
1, 86150, Control_c, 0, 64, 93
1, 86158, Note_on_c, 0, 49, 62
1, 86165, Control_c, 0, 64, 80
1, 86168, Note_on_c, 0, 45, 46
1, 86180, Control_c, 0, 64, 65
1, 86195, Control_c, 0, 64, 0
1, 86198, Note_off_c, 0, 37, 60
1, 86198, Note_on_c, 0, 25, 43
1, 86239, Control_c, 0, 64, 53
1, 86254, Control_c, 0, 64, 71
1, 86269, Control_c, 0, 64, 81
1, 86270, Note_off_c, 0, 25, 52
1, 86283, Control_c, 0, 64, 88
1, 86288, Note_on_c, 0, 37, 46
1, 86293, Note_off_c, 0, 45, 46
1, 86298, Control_c, 0, 64, 89
1, 86323, Note_off_c, 0, 54, 59
1, 86341, Note_off_c, 0, 37, 56
1, 86343, Control_c, 0, 64, 90
1, 86349, Note_on_c, 0, 25, 50
1, 86357, Control_c, 0, 64, 92
1, 86372, Control_c, 0, 64, 93
1, 86387, Control_c, 0, 64, 94
1, 86400, Note_off_c, 0, 25, 54
1, 86401, Control_c, 0, 64, 95
1, 86412, Note_off_c, 0, 49, 55
1, 86433, Control_c, 0, 64, 96
1, 86436, Note_on_c, 0, 37, 54
1, 86484, Note_off_c, 0, 37, 58
1, 86505, Note_on_c, 0, 25, 57
1, 86551, Control_c, 0, 64, 94
1, 86555, Note_on_c, 0, 53, 74
1, 86560, Note_off_c, 0, 25, 50
1, 86566, Control_c, 0, 64, 89
1, 86578, Note_on_c, 0, 37, 53
1, 86578, Note_on_c, 0, 49, 55
1, 86579, Note_on_c, 0, 44, 51
1, 86580, Control_c, 0, 64, 78
1, 86595, Control_c, 0, 64, 63
1, 86610, Control_c, 0, 64, 0
1, 86627, Note_off_c, 0, 37, 60
1, 86647, Note_on_c, 0, 25, 52
1, 86677, Control_c, 0, 64, 60
1, 86692, Control_c, 0, 64, 69
1, 86701, Note_off_c, 0, 25, 58
1, 86706, Control_c, 0, 64, 74
1, 86721, Control_c, 0, 64, 78
1, 86734, Note_on_c, 0, 37, 56
1, 86736, Control_c, 0, 64, 80
1, 86751, Control_c, 0, 64, 81
1, 86766, Control_c, 0, 64, 82
1, 86776, Note_off_c, 0, 37, 61
1, 86780, Control_c, 0, 64, 83
1, 86791, Note_on_c, 0, 25, 61
1, 86795, Control_c, 0, 64, 84
1, 86797, Note_off_c, 0, 53, 58
1, 86810, Control_c, 0, 64, 85
1, 86823, Note_off_c, 0, 44, 44
1, 86825, Control_c, 0, 64, 85
1, 86830, Note_off_c, 0, 25, 62
1, 86864, Note_on_c, 0, 37, 54
1, 86893, Note_off_c, 0, 37, 56
1, 86914, Note_on_c, 0, 25, 67
1, 86948, Note_off_c, 0, 25, 62
1, 86958, Control_c, 0, 64, 84
1, 86973, Control_c, 0, 64, 81
1, 86975, Note_on_c, 0, 37, 61
1, 86988, Control_c, 0, 64, 75
1, 86999, Note_off_c, 0, 37, 61
1, 87002, Control_c, 0, 64, 67
1, 87017, Control_c, 0, 64, 0
1, 87029, Note_on_c, 0, 25, 70
1, 87071, Note_on_c, 0, 37, 72
1, 87078, Note_on_c, 0, 52, 67
1, 87081, Note_off_c, 0, 25, 63
1, 87088, Note_on_c, 0, 43, 50
1, 87090, Note_on_c, 0, 46, 58
1, 87134, Note_off_c, 0, 37, 63
1, 87228, Note_off_c, 0, 49, 28
1, 87470, Control_c, 0, 67, 8
1, 87485, Control_c, 0, 67, 10
1, 87500, Control_c, 0, 67, 13
1, 87515, Control_c, 0, 67, 15
1, 87530, Control_c, 0, 67, 19
1, 87544, Control_c, 0, 67, 23
1, 87559, Control_c, 0, 67, 29
1, 87574, Control_c, 0, 67, 36
1, 87581, Note_off_c, 0, 52, 63
1, 87589, Control_c, 0, 67, 42
1, 87590, Note_on_c, 0, 51, 60
1, 87603, Control_c, 0, 67, 49
1, 87618, Control_c, 0, 67, 55
1, 87633, Control_c, 0, 67, 62
1, 87648, Control_c, 0, 67, 71
1, 87662, Control_c, 0, 67, 82
1, 87677, Control_c, 0, 67, 94
1, 87692, Control_c, 0, 67, 108
1, 87707, Control_c, 0, 67, 120
1, 87722, Control_c, 0, 67, 127
1, 87781, Control_c, 0, 64, 23
1, 87796, Control_c, 0, 64, 61
1, 87810, Control_c, 0, 64, 66
1, 87825, Control_c, 0, 64, 70
1, 87840, Control_c, 0, 64, 74
1, 87855, Control_c, 0, 64, 79
1, 87870, Control_c, 0, 64, 84
1, 87871, Note_off_c, 0, 43, 34
1, 87885, Control_c, 0, 64, 88
1, 87895, Note_off_c, 0, 46, 55
1, 87900, Control_c, 0, 64, 89
1, 87915, Control_c, 0, 64, 90
1, 87929, Control_c, 0, 64, 90
1, 87944, Control_c, 0, 64, 91
1, 87959, Control_c, 0, 64, 91
1, 88076, Note_off_c, 0, 51, 33
1, 88093, Control_c, 0, 64, 91
1, 88108, Control_c, 0, 64, 87
1, 88119, Note_on_c, 0, 42, 46
1, 88122, Note_on_c, 0, 45, 40
1, 88123, Note_on_c, 0, 50, 59
1, 88123, Control_c, 0, 64, 81
1, 88138, Control_c, 0, 64, 73
1, 88160, Control_c, 0, 64, 62
1, 88175, Control_c, 0, 64, 0
1, 88293, Control_c, 0, 64, 61
1, 88308, Control_c, 0, 64, 66
1, 88323, Control_c, 0, 64, 68
1, 88338, Control_c, 0, 64, 70
1, 88353, Control_c, 0, 64, 71
1, 88368, Control_c, 0, 64, 72
1, 88383, Control_c, 0, 64, 74
1, 88398, Control_c, 0, 64, 76
1, 88412, Control_c, 0, 64, 77
1, 88427, Control_c, 0, 64, 79
1, 88442, Control_c, 0, 64, 79
1, 88457, Control_c, 0, 64, 80
1, 88486, Control_c, 0, 64, 80
1, 88501, Control_c, 0, 64, 81
1, 88531, Control_c, 0, 64, 81
1, 88678, Control_c, 0, 64, 80
1, 88693, Control_c, 0, 64, 79
1, 88708, Control_c, 0, 64, 77
1, 88722, Note_on_c, 0, 49, 57
1, 88723, Control_c, 0, 64, 73
1, 88738, Control_c, 0, 64, 66
1, 88752, Control_c, 0, 64, 45
1, 88753, Note_off_c, 0, 50, 54
1, 88767, Control_c, 0, 64, 0
1, 88954, Control_c, 0, 64, 55
1, 88969, Control_c, 0, 64, 62
1, 88983, Control_c, 0, 64, 64
1, 88998, Control_c, 0, 64, 65
1, 89013, Control_c, 0, 64, 66
1, 89027, Control_c, 0, 64, 68
1, 89042, Control_c, 0, 64, 70
1, 89057, Control_c, 0, 64, 72
1, 89072, Control_c, 0, 64, 75
1, 89087, Control_c, 0, 64, 77
1, 89101, Control_c, 0, 64, 78
1, 89131, Control_c, 0, 64, 79
1, 89146, Control_c, 0, 64, 79
1, 89161, Control_c, 0, 64, 80
1, 89176, Control_c, 0, 64, 81
1, 89190, Control_c, 0, 64, 82
1, 89205, Control_c, 0, 64, 82
1, 89220, Control_c, 0, 64, 83
1, 89531, Control_c, 0, 64, 82
1, 89561, Control_c, 0, 64, 82
1, 89575, Control_c, 0, 64, 81
1, 89590, Control_c, 0, 64, 78
1, 89601, Note_on_c, 0, 44, 36
1, 89605, Control_c, 0, 64, 75
1, 89607, Note_on_c, 0, 41, 34
1, 89621, Note_off_c, 0, 42, 37
1, 89621, Control_c, 0, 64, 70
1, 89636, Control_c, 0, 64, 63
1, 89645, Note_off_c, 0, 45, 43
1, 89658, Control_c, 0, 64, 34
1, 89673, Control_c, 0, 64, 0
1, 90599, Control_c, 0, 64, 39
1, 90614, Control_c, 0, 64, 49
1, 90628, Control_c, 0, 64, 53
1, 90643, Control_c, 0, 64, 56
1, 90658, Control_c, 0, 64, 58
1, 90672, Control_c, 0, 64, 60
1, 90687, Control_c, 0, 64, 62
1, 90702, Control_c, 0, 64, 64
1, 90717, Control_c, 0, 64, 65
1, 90732, Control_c, 0, 64, 66
1, 90746, Control_c, 0, 64, 67
1, 90761, Control_c, 0, 64, 68
1, 90776, Control_c, 0, 64, 70
1, 90791, Control_c, 0, 64, 71
1, 90806, Control_c, 0, 64, 73
1, 90821, Control_c, 0, 64, 74
1, 90836, Control_c, 0, 64, 75
1, 90851, Control_c, 0, 64, 77
1, 90866, Control_c, 0, 64, 77
1, 90880, Control_c, 0, 64, 78
1, 90895, Control_c, 0, 64, 79
1, 90910, Control_c, 0, 64, 79
1, 90940, Control_c, 0, 64, 80
1, 90954, Control_c, 0, 64, 80
1, 90969, Control_c, 0, 64, 81
1, 90984, Control_c, 0, 64, 81
1, 90998, Control_c, 0, 64, 82
1, 91451, Control_c, 0, 64, 81
1, 91466, Control_c, 0, 64, 80
1, 91481, Control_c, 0, 64, 78
1, 91492, Note_on_c, 0, 40, 34
1, 91492, Note_on_c, 0, 46, 36
1, 91495, Control_c, 0, 64, 74
1, 91510, Control_c, 0, 64, 66
1, 91521, Note_off_c, 0, 44, 27
1, 91525, Control_c, 0, 64, 45
1, 91527, Note_on_c, 0, 43, 21
1, 91540, Control_c, 0, 64, 0
1, 91550, Note_off_c, 0, 41, 35
1, 95359, Control_c, 0, 64, 11
1, 95389, Control_c, 0, 64, 14
1, 95418, Control_c, 0, 64, 16
1, 95448, Control_c, 0, 64, 18
1, 95552, Control_c, 0, 64, 20
1, 95596, Control_c, 0, 64, 22
1, 95611, Control_c, 0, 64, 23
1, 95626, Control_c, 0, 64, 29
1, 95648, Control_c, 0, 64, 31
1, 95663, Control_c, 0, 64, 32
1, 95737, Control_c, 0, 64, 33
1, 95826, Control_c, 0, 64, 34
1, 97087, Note_off_c, 0, 46, 27
1, 97233, Note_off_c, 0, 40, 29
1, 97285, Note_off_c, 0, 49, 35
1, 97286, Note_off_c, 0, 43, 42
1, 97352, Control_c, 0, 64, 34
1, 98428, Control_c, 0, 64, 34
1, 98894, Control_c, 0, 64, 33
1, 99057, Control_c, 0, 64, 32
1, 99191, Control_c, 0, 64, 31
1, 99251, Control_c, 0, 64, 30
1, 99296, Control_c, 0, 64, 29
1, 99451, Control_c, 0, 64, 28
1, 99510, Control_c, 0, 64, 27
1, 99555, Control_c, 0, 64, 26
1, 99579, Note_on_c, 0, 36, 54
1, 99629, Control_c, 0, 64, 25
1, 99643, Control_c, 0, 64, 23
1, 99673, Control_c, 0, 64, 22
1, 99732, Control_c, 0, 64, 20
1, 99779, Note_on_c, 0, 44, 63
1, 99791, Control_c, 0, 64, 18
1, 99806, Control_c, 0, 64, 16
1, 99821, Control_c, 0, 64, 14
1, 99835, Control_c, 0, 64, 11
1, 99880, Control_c, 0, 64, 0
1, 99906, Note_off_c, 0, 36, 38
1, 100447, Note_on_c, 0, 60, 46
1, 100452, Note_on_c, 0, 56, 35
1, 100459, Note_on_c, 0, 53, 42
1, 100460, Note_on_c, 0, 48, 41
1, 100595, Note_off_c, 0, 48, 34
1, 100599, Note_off_c, 0, 53, 35
1, 100605, Note_off_c, 0, 56, 34
1, 100611, Note_off_c, 0, 60, 33
1, 100756, Note_on_c, 0, 43, 63
1, 100765, Note_off_c, 0, 44, 64
1, 100903, Note_on_c, 0, 41, 72
1, 100912, Note_off_c, 0, 43, 55
1, 101067, Note_on_c, 0, 40, 73
1, 101078, Note_off_c, 0, 41, 64
1, 101711, Note_on_c, 0, 52, 51
1, 101712, Note_on_c, 0, 48, 51
1, 101712, Note_on_c, 0, 60, 49
1, 101722, Note_on_c, 0, 56, 49
1, 101892, Note_off_c, 0, 48, 61
1, 101912, Note_off_c, 0, 52, 62
1, 101920, Note_off_c, 0, 56, 56
1, 101921, Note_off_c, 0, 60, 55
1, 102079, Note_on_c, 0, 39, 52
1, 102092, Note_off_c, 0, 40, 55
1, 102229, Note_off_c, 0, 39, 61
1, 102232, Note_on_c, 0, 37, 52
1, 102413, Note_off_c, 0, 37, 62
1, 102414, Note_on_c, 0, 36, 52
1, 103103, Note_on_c, 0, 53, 33
1, 103103, Note_on_c, 0, 60, 43
1, 103107, Note_on_c, 0, 48, 37
1, 103117, Note_on_c, 0, 56, 32
1, 103338, Note_off_c, 0, 60, 57
1, 103341, Note_off_c, 0, 56, 54
1, 103341, Note_off_c, 0, 48, 48
1, 103344, Note_off_c, 0, 53, 55
1, 103597, Note_on_c, 0, 60, 52
1, 103608, Note_on_c, 0, 48, 41
1, 103613, Note_on_c, 0, 53, 44
1, 103629, Note_on_c, 0, 56, 29
1, 103652, Note_off_c, 0, 60, 51
1, 103655, Note_off_c, 0, 48, 47
1, 103656, Note_off_c, 0, 53, 56
1, 103663, Note_off_c, 0, 56, 51
1, 103767, Note_on_c, 0, 60, 47
1, 103773, Note_on_c, 0, 48, 43
1, 103773, Note_on_c, 0, 53, 35
1, 103779, Note_on_c, 0, 56, 45
1, 104078, Note_off_c, 0, 36, 55
1, 104084, Note_on_c, 0, 37, 64
1, 104373, Note_on_c, 0, 40, 72
1, 104390, Note_off_c, 0, 37, 65
1, 104434, Note_off_c, 0, 53, 41
1, 104435, Note_off_c, 0, 48, 43
1, 104450, Note_off_c, 0, 56, 40
1, 104489, Note_off_c, 0, 60, 51
1, 104810, Note_on_c, 0, 41, 77
1, 104811, Note_off_c, 0, 40, 62
1, 104963, Note_on_c, 0, 44, 72
1, 104992, Note_off_c, 0, 41, 62
1, 105610, Note_on_c, 0, 48, 30
1, 105613, Note_on_c, 0, 53, 33
1, 105615, Note_on_c, 0, 60, 38
1, 105633, Note_on_c, 0, 56, 28
1, 105708, Note_off_c, 0, 56, 51
1, 105731, Note_off_c, 0, 53, 53
1, 105755, Note_off_c, 0, 48, 43
1, 105762, Note_off_c, 0, 60, 36
1, 105912, Note_on_c, 0, 43, 61
1, 105925, Note_off_c, 0, 44, 59
1, 106053, Note_on_c, 0, 41, 66
1, 106054, Note_off_c, 0, 43, 58
1, 106078, Control_c, 0, 64, 11
1, 106093, Control_c, 0, 64, 18
1, 106108, Control_c, 0, 64, 22
1, 106145, Control_c, 0, 64, 23
1, 106160, Control_c, 0, 64, 25
1, 106219, Control_c, 0, 64, 26
1, 106229, Note_on_c, 0, 40, 67
1, 106245, Note_off_c, 0, 41, 65
1, 106249, Control_c, 0, 64, 27
1, 106264, Control_c, 0, 64, 28
1, 106278, Control_c, 0, 64, 29
1, 106293, Control_c, 0, 64, 30
1, 106308, Control_c, 0, 64, 32
1, 106323, Control_c, 0, 64, 33
1, 106352, Control_c, 0, 64, 34
1, 106413, Control_c, 0, 64, 34
1, 106427, Control_c, 0, 64, 35
1, 106457, Control_c, 0, 64, 36
1, 106501, Control_c, 0, 64, 37
1, 106516, Control_c, 0, 64, 37
1, 106561, Control_c, 0, 64, 38
1, 106590, Control_c, 0, 64, 39
1, 106620, Control_c, 0, 64, 39
1, 106739, Control_c, 0, 64, 40
1, 106783, Control_c, 0, 64, 40
1, 106915, Note_on_c, 0, 60, 49
1, 106924, Note_on_c, 0, 48, 42
1, 106931, Note_on_c, 0, 52, 43
1, 106933, Note_on_c, 0, 56, 39
1, 106983, Control_c, 0, 64, 41
1, 107113, Note_off_c, 0, 52, 58
1, 107125, Note_off_c, 0, 48, 42
1, 107128, Note_off_c, 0, 56, 36
1, 107130, Note_off_c, 0, 60, 56
1, 107175, Control_c, 0, 64, 40
1, 107190, Control_c, 0, 64, 40
1, 107221, Control_c, 0, 64, 39
1, 107309, Note_on_c, 0, 39, 44
1, 107335, Note_off_c, 0, 40, 50
1, 107368, Control_c, 0, 64, 39
1, 107456, Note_on_c, 0, 37, 55
1, 107456, Note_off_c, 0, 39, 59
1, 107547, Control_c, 0, 64, 38
1, 107639, Note_on_c, 0, 36, 53
1, 107658, Note_off_c, 0, 37, 56
1, 108045, Control_c, 0, 64, 37
1, 108074, Control_c, 0, 64, 37
1, 108119, Control_c, 0, 64, 36
1, 108148, Control_c, 0, 64, 35
1, 108207, Control_c, 0, 64, 34
1, 108281, Control_c, 0, 64, 34
1, 108312, Note_on_c, 0, 60, 44
1, 108325, Note_on_c, 0, 56, 38
1, 108327, Note_on_c, 0, 48, 42
1, 108331, Note_on_c, 0, 53, 34
1, 108560, Note_off_c, 0, 56, 53
1, 108561, Note_off_c, 0, 60, 56
1, 108570, Note_off_c, 0, 53, 50
1, 108579, Note_off_c, 0, 48, 41
1, 108689, Control_c, 0, 64, 33
1, 108793, Control_c, 0, 64, 32
1, 108803, Note_on_c, 0, 60, 57
1, 108817, Note_on_c, 0, 48, 45
1, 108817, Note_on_c, 0, 56, 45
1, 108826, Note_on_c, 0, 53, 42
1, 108861, Note_off_c, 0, 48, 57
1, 108864, Note_off_c, 0, 60, 53
1, 108865, Note_off_c, 0, 56, 56
1, 108871, Note_off_c, 0, 53, 50
1, 108882, Control_c, 0, 64, 31
1, 108969, Note_on_c, 0, 60, 51
1, 108977, Note_on_c, 0, 56, 43
1, 108982, Note_on_c, 0, 53, 36
1, 108991, Note_on_c, 0, 48, 43
1, 109154, Control_c, 0, 64, 30
1, 109288, Note_on_c, 0, 40, 63
1, 109288, Control_c, 0, 64, 31
1, 109340, Note_off_c, 0, 36, 59
1, 109481, Control_c, 0, 64, 32
1, 109510, Control_c, 0, 64, 33
1, 109554, Control_c, 0, 64, 34
1, 109565, Note_on_c, 0, 41, 70
1, 109571, Note_off_c, 0, 40, 59
1, 109600, Control_c, 0, 64, 34
1, 109619, Note_off_c, 0, 48, 44
1, 109655, Note_off_c, 0, 53, 43
1, 109665, Note_off_c, 0, 60, 51
1, 109703, Note_off_c, 0, 56, 45
1, 109762, Control_c, 0, 64, 35
1, 109792, Control_c, 0, 64, 36
1, 109807, Control_c, 0, 64, 37
1, 109815, Note_off_c, 0, 41, 64
1, 109830, Note_on_c, 0, 44, 71
1, 109836, Control_c, 0, 64, 37
1, 109919, Control_c, 0, 64, 38
1, 109948, Control_c, 0, 64, 40
1, 109963, Control_c, 0, 64, 46
1, 109977, Control_c, 0, 64, 54
1, 109992, Control_c, 0, 64, 60
1, 110007, Control_c, 0, 64, 62
1, 110022, Control_c, 0, 64, 63
1, 110037, Control_c, 0, 64, 64
1, 110051, Control_c, 0, 64, 64
1, 110066, Control_c, 0, 64, 65
1, 110081, Control_c, 0, 64, 65
1, 110164, Note_on_c, 0, 49, 74
1, 110170, Control_c, 0, 64, 64
1, 110184, Note_off_c, 0, 44, 59
1, 110185, Control_c, 0, 64, 62
1, 110200, Control_c, 0, 64, 54
1, 110215, Control_c, 0, 64, 0
1, 110453, Control_c, 0, 64, 31
1, 110467, Control_c, 0, 64, 37
1, 110482, Control_c, 0, 64, 36
1, 110527, Control_c, 0, 64, 37
1, 110571, Control_c, 0, 64, 36
1, 110585, Control_c, 0, 64, 35
1, 110623, Control_c, 0, 64, 34
1, 110653, Control_c, 0, 64, 34
1, 110776, Note_on_c, 0, 65, 51
1, 110789, Note_on_c, 0, 58, 45
1, 110796, Note_on_c, 0, 53, 46
1, 110802, Note_on_c, 0, 61, 37
1, 110860, Control_c, 0, 64, 33
1, 110884, Note_off_c, 0, 61, 47
1, 110904, Control_c, 0, 64, 32
1, 110928, Note_off_c, 0, 58, 36
1, 110946, Note_off_c, 0, 53, 35
1, 110950, Note_off_c, 0, 65, 33
1, 111082, Note_off_c, 0, 49, 61
1, 111085, Note_on_c, 0, 48, 70
1, 111225, Note_on_c, 0, 46, 72
1, 111246, Control_c, 0, 64, 31
1, 111250, Note_off_c, 0, 48, 54
1, 111371, Control_c, 0, 64, 32
1, 111397, Note_on_c, 0, 45, 71
1, 111404, Note_off_c, 0, 46, 61
1, 111431, Control_c, 0, 64, 31
1, 111476, Control_c, 0, 64, 30
1, 111905, Control_c, 0, 64, 31
1, 111949, Control_c, 0, 64, 30
1, 111979, Control_c, 0, 64, 29
1, 111994, Control_c, 0, 64, 28
1, 112057, Note_on_c, 0, 57, 52
1, 112060, Note_on_c, 0, 65, 55
1, 112063, Note_on_c, 0, 61, 50
1, 112064, Note_on_c, 0, 53, 48
1, 112084, Control_c, 0, 64, 27
1, 112099, Control_c, 0, 64, 26
1, 112164, Control_c, 0, 64, 25
1, 112209, Control_c, 0, 64, 23
1, 112224, Control_c, 0, 64, 22
1, 112240, Note_off_c, 0, 53, 59
1, 112250, Note_off_c, 0, 57, 58
1, 112250, Note_off_c, 0, 65, 61
1, 112254, Control_c, 0, 64, 20
1, 112264, Note_off_c, 0, 61, 57
1, 112298, Control_c, 0, 64, 18
1, 112313, Control_c, 0, 64, 16
1, 112328, Control_c, 0, 64, 14
1, 112423, Note_on_c, 0, 44, 57
1, 112426, Note_off_c, 0, 45, 62
1, 112550, Control_c, 0, 64, 11
1, 112570, Note_on_c, 0, 42, 57
1, 112571, Note_off_c, 0, 44, 60
1, 112653, Control_c, 0, 64, 0
1, 112740, Note_on_c, 0, 41, 56
1, 112757, Note_off_c, 0, 42, 63
1, 113410, Note_on_c, 0, 58, 36
1, 113412, Note_on_c, 0, 65, 43
1, 113415, Note_on_c, 0, 53, 34
1, 113423, Note_on_c, 0, 61, 36
1, 113506, Control_c, 0, 64, 28
1, 113521, Control_c, 0, 64, 45
1, 113535, Control_c, 0, 64, 54
1, 113550, Control_c, 0, 64, 58
1, 113565, Control_c, 0, 64, 61
1, 113581, Control_c, 0, 64, 61
1, 113596, Control_c, 0, 64, 62
1, 113618, Control_c, 0, 64, 62
1, 113639, Note_off_c, 0, 58, 62
1, 113648, Control_c, 0, 64, 62
1, 113649, Note_off_c, 0, 53, 52
1, 113652, Note_off_c, 0, 65, 57
1, 113652, Note_off_c, 0, 61, 54
1, 113663, Control_c, 0, 64, 61
1, 113678, Control_c, 0, 64, 61
1, 113692, Control_c, 0, 64, 60
1, 113707, Control_c, 0, 64, 58
1, 113722, Control_c, 0, 64, 57
1, 113736, Control_c, 0, 64, 56
1, 113751, Control_c, 0, 64, 54
1, 113766, Control_c, 0, 64, 53
1, 113781, Control_c, 0, 64, 52
1, 113811, Control_c, 0, 64, 52
1, 113825, Control_c, 0, 64, 51
1, 113840, Control_c, 0, 64, 51
1, 113855, Control_c, 0, 64, 50
1, 113870, Control_c, 0, 64, 50
1, 113879, Note_on_c, 0, 65, 55
1, 113883, Note_on_c, 0, 53, 47
1, 113887, Note_on_c, 0, 58, 49
1, 113897, Note_on_c, 0, 61, 40
1, 113928, Note_off_c, 0, 65, 56
1, 113932, Note_off_c, 0, 58, 61
1, 113936, Note_off_c, 0, 53, 57
1, 113936, Note_off_c, 0, 61, 59
1, 113944, Control_c, 0, 64, 49
1, 113974, Control_c, 0, 64, 49
1, 113989, Control_c, 0, 64, 48
1, 114003, Control_c, 0, 64, 48
1, 114018, Control_c, 0, 64, 47
1, 114033, Control_c, 0, 64, 46
1, 114034, Note_on_c, 0, 65, 51
1, 114039, Note_on_c, 0, 58, 49
1, 114050, Note_on_c, 0, 61, 52
1, 114052, Note_on_c, 0, 53, 38
1, 114078, Control_c, 0, 64, 46
1, 114092, Control_c, 0, 64, 45
1, 114107, Control_c, 0, 64, 44
1, 114122, Control_c, 0, 64, 43
1, 114136, Control_c, 0, 64, 42
1, 114166, Control_c, 0, 64, 41
1, 114181, Control_c, 0, 64, 41
1, 114197, Control_c, 0, 64, 40
1, 114211, Control_c, 0, 64, 39
1, 114226, Control_c, 0, 64, 38
1, 114336, Note_off_c, 0, 41, 59
1, 114337, Note_on_c, 0, 42, 66
1, 114442, Control_c, 0, 64, 39
1, 114516, Control_c, 0, 64, 39
1, 114546, Control_c, 0, 64, 40
1, 114575, Control_c, 0, 64, 40
1, 114590, Control_c, 0, 64, 41
1, 114635, Control_c, 0, 64, 41
1, 114642, Note_on_c, 0, 45, 68
1, 114664, Control_c, 0, 64, 42
1, 114678, Note_off_c, 0, 42, 64
1, 114709, Note_off_c, 0, 58, 37
1, 114709, Control_c, 0, 64, 42
1, 114710, Note_off_c, 0, 53, 43
1, 114711, Note_off_c, 0, 61, 51
1, 114768, Control_c, 0, 64, 43
1, 114776, Note_off_c, 0, 65, 50
1, 114783, Control_c, 0, 64, 43
1, 114813, Control_c, 0, 64, 44
1, 114828, Control_c, 0, 64, 44
1, 114842, Control_c, 0, 64, 45
1, 114857, Control_c, 0, 64, 45
1, 114872, Control_c, 0, 64, 46
1, 114887, Control_c, 0, 64, 46
1, 114945, Control_c, 0, 64, 47
1, 114990, Control_c, 0, 64, 46
1, 115062, Note_on_c, 0, 46, 75
1, 115093, Control_c, 0, 64, 47
1, 115103, Note_off_c, 0, 45, 58
1, 115227, Note_on_c, 0, 49, 72
1, 115235, Control_c, 0, 64, 46
1, 115272, Note_off_c, 0, 46, 54
1, 115881, Note_on_c, 0, 65, 38
1, 115887, Note_on_c, 0, 58, 33
1, 115887, Note_on_c, 0, 61, 33
1, 115893, Note_on_c, 0, 53, 32
1, 115991, Note_off_c, 0, 61, 53
1, 115999, Control_c, 0, 64, 46
1, 116029, Note_off_c, 0, 58, 35
1, 116034, Note_off_c, 0, 65, 42
1, 116046, Note_off_c, 0, 53, 42
1, 116058, Control_c, 0, 64, 45
1, 116189, Note_on_c, 0, 48, 56
1, 116191, Note_off_c, 0, 49, 62
1, 116321, Note_on_c, 0, 46, 67
1, 116341, Note_off_c, 0, 48, 61
1, 116428, Control_c, 0, 64, 45
1, 116484, Note_on_c, 0, 45, 63
1, 116494, Note_off_c, 0, 46, 60
1, 116546, Control_c, 0, 64, 45
1, 116628, Control_c, 0, 64, 45
1, 116673, Control_c, 0, 64, 44
1, 116746, Control_c, 0, 64, 44
1, 116776, Control_c, 0, 64, 43
1, 116836, Control_c, 0, 64, 43
1, 116896, Control_c, 0, 64, 42
1, 116910, Control_c, 0, 64, 42
1, 116925, Control_c, 0, 64, 41
1, 116940, Control_c, 0, 64, 40
1, 116955, Control_c, 0, 64, 40
1, 116969, Control_c, 0, 64, 39
1, 116984, Control_c, 0, 64, 39
1, 116999, Control_c, 0, 64, 38
1, 117014, Control_c, 0, 64, 37
1, 117029, Control_c, 0, 64, 37
1, 117059, Control_c, 0, 64, 36
1, 117184, Note_on_c, 0, 65, 47
1, 117192, Note_on_c, 0, 53, 36
1, 117192, Note_on_c, 0, 57, 44
1, 117204, Note_on_c, 0, 61, 42
1, 117340, Control_c, 0, 64, 37
1, 117416, Note_off_c, 0, 57, 55
1, 117426, Note_off_c, 0, 61, 53
1, 117432, Note_off_c, 0, 53, 43
1, 117452, Note_off_c, 0, 65, 52
1, 117585, Control_c, 0, 64, 37
1, 117590, Note_off_c, 0, 45, 57
1, 117593, Note_on_c, 0, 44, 52
1, 117674, Control_c, 0, 64, 38
1, 117745, Note_on_c, 0, 42, 52
1, 117748, Note_off_c, 0, 44, 58
1, 117777, Control_c, 0, 64, 37
1, 117923, Note_on_c, 0, 41, 51
1, 117941, Control_c, 0, 64, 38
1, 117953, Note_off_c, 0, 42, 49
1, 118156, Control_c, 0, 64, 39
1, 118275, Control_c, 0, 64, 39
1, 118670, Note_on_c, 0, 58, 34
1, 118675, Note_on_c, 0, 53, 32
1, 118675, Control_c, 0, 64, 40
1, 118678, Note_on_c, 0, 65, 38
1, 118693, Note_on_c, 0, 61, 27
1, 118916, Note_off_c, 0, 58, 62
1, 118927, Note_off_c, 0, 61, 54
1, 118929, Note_off_c, 0, 53, 52
1, 118940, Note_off_c, 0, 65, 45
1, 118964, Control_c, 0, 64, 40
1, 118979, Control_c, 0, 64, 41
1, 119023, Control_c, 0, 64, 41
1, 119157, Control_c, 0, 64, 41
1, 119178, Note_on_c, 0, 65, 49
1, 119188, Note_on_c, 0, 58, 43
1, 119190, Note_on_c, 0, 61, 41
1, 119199, Note_on_c, 0, 53, 27
1, 119235, Note_off_c, 0, 61, 58
1, 119238, Note_off_c, 0, 65, 56
1, 119241, Note_off_c, 0, 58, 57
1, 119253, Note_off_c, 0, 53, 45
1, 119277, Control_c, 0, 64, 40
1, 119321, Control_c, 0, 64, 40
1, 119343, Note_on_c, 0, 65, 45
1, 119353, Note_on_c, 0, 58, 32
1, 119359, Note_on_c, 0, 53, 28
1, 119360, Note_on_c, 0, 61, 43
1, 119704, Note_on_c, 0, 45, 53
1, 119757, Control_c, 0, 64, 40
1, 119773, Note_off_c, 0, 41, 44
1, 119875, Control_c, 0, 64, 41
1, 119920, Control_c, 0, 64, 41
1, 119995, Control_c, 0, 64, 42
1, 120001, Note_on_c, 0, 46, 67
1, 120010, Note_off_c, 0, 45, 61
1, 120040, Control_c, 0, 64, 42
1, 120069, Control_c, 0, 64, 43
1, 120099, Control_c, 0, 64, 43
1, 120114, Control_c, 0, 64, 44
1, 120119, Note_off_c, 0, 61, 40
1, 120120, Note_off_c, 0, 53, 43
1, 120135, Note_off_c, 0, 58, 34
1, 120143, Control_c, 0, 64, 44
1, 120155, Note_off_c, 0, 65, 60
1, 120217, Control_c, 0, 64, 45
1, 120261, Control_c, 0, 64, 45
1, 120275, Note_off_c, 0, 46, 62
1, 120277, Note_on_c, 0, 48, 67
1, 120305, Control_c, 0, 64, 46
1, 120373, Control_c, 0, 64, 46
1, 120417, Control_c, 0, 64, 47
1, 120574, Note_on_c, 0, 49, 61
1, 120594, Control_c, 0, 64, 47
1, 120600, Note_off_c, 0, 48, 61
1, 120609, Control_c, 0, 64, 47
1, 120624, Control_c, 0, 64, 45
1, 120639, Control_c, 0, 64, 41
1, 120654, Control_c, 0, 64, 38
1, 120669, Control_c, 0, 64, 34
1, 120684, Control_c, 0, 64, 11
1, 120698, Control_c, 0, 64, 0
1, 121071, Control_c, 0, 64, 20
1, 121085, Control_c, 0, 64, 39
1, 121107, Control_c, 0, 64, 43
1, 121122, Control_c, 0, 64, 45
1, 121137, Control_c, 0, 64, 47
1, 121152, Control_c, 0, 64, 48
1, 121167, Control_c, 0, 64, 50
1, 121182, Control_c, 0, 64, 53
1, 121196, Control_c, 0, 64, 55
1, 121211, Control_c, 0, 64, 58
1, 121213, Note_on_c, 0, 66, 49
1, 121226, Control_c, 0, 64, 60
1, 121228, Note_on_c, 0, 57, 28
1, 121241, Control_c, 0, 64, 62
1, 121246, Note_on_c, 0, 61, 24
1, 121256, Control_c, 0, 64, 63
1, 121271, Control_c, 0, 64, 64
1, 121285, Control_c, 0, 64, 65
1, 121300, Control_c, 0, 64, 66
1, 121315, Control_c, 0, 64, 67
1, 121329, Control_c, 0, 64, 69
1, 121344, Note_off_c, 0, 61, 0
1, 121344, Control_c, 0, 64, 71
1, 121359, Control_c, 0, 64, 73
1, 121374, Control_c, 0, 64, 75
1, 121381, Poly_aftertouch_c, 0, 61, 127
1, 121389, Control_c, 0, 64, 76
1, 121403, Control_c, 0, 64, 77
1, 121418, Control_c, 0, 64, 78
1, 121447, Control_c, 0, 64, 78
1, 121477, Control_c, 0, 64, 79
1, 121484, Poly_aftertouch_c, 0, 61, 0
1, 121486, Note_off_c, 0, 57, 37
1, 121685, Control_c, 0, 64, 78
1, 121699, Control_c, 0, 64, 78
1, 121714, Control_c, 0, 64, 77
1, 121726, Note_on_c, 0, 52, 57
1, 121729, Control_c, 0, 64, 77
1, 121743, Control_c, 0, 64, 76
1, 121758, Control_c, 0, 64, 74
1, 121773, Control_c, 0, 64, 72
1, 121788, Control_c, 0, 64, 70
1, 121803, Control_c, 0, 64, 67
1, 121809, Note_off_c, 0, 66, 49
1, 121817, Control_c, 0, 64, 63
1, 121832, Control_c, 0, 64, 45
1, 121837, Note_off_c, 0, 52, 62
1, 121850, Note_on_c, 0, 50, 62
1, 121855, Control_c, 0, 64, 0
1, 121877, Note_off_c, 0, 49, 37
1, 122404, Control_c, 0, 64, 18
1, 122419, Control_c, 0, 64, 31
1, 122433, Control_c, 0, 64, 39
1, 122448, Control_c, 0, 64, 46
1, 122463, Control_c, 0, 64, 51
1, 122478, Control_c, 0, 64, 55
1, 122492, Control_c, 0, 64, 58
1, 122507, Control_c, 0, 64, 62
1, 122512, Note_on_c, 0, 56, 34
1, 122514, Note_on_c, 0, 59, 23
1, 122515, Note_on_c, 0, 65, 39
1, 122522, Control_c, 0, 64, 64
1, 122537, Control_c, 0, 64, 65
1, 122552, Control_c, 0, 64, 66
1, 122566, Control_c, 0, 64, 67
1, 122581, Control_c, 0, 64, 68
1, 122603, Control_c, 0, 64, 69
1, 122618, Control_c, 0, 64, 71
1, 122633, Control_c, 0, 64, 73
1, 122648, Control_c, 0, 64, 74
1, 122663, Control_c, 0, 64, 75
1, 122678, Control_c, 0, 64, 77
1, 122693, Control_c, 0, 64, 78
1, 122707, Control_c, 0, 64, 79
1, 122722, Control_c, 0, 64, 79
1, 122737, Control_c, 0, 64, 80
1, 122752, Control_c, 0, 64, 81
1, 122767, Control_c, 0, 64, 81
1, 122781, Control_c, 0, 64, 82
1, 122835, Note_off_c, 0, 65, 36
1, 122860, Note_off_c, 0, 59, 34
1, 122983, Note_on_c, 0, 49, 54
1, 122988, Note_off_c, 0, 50, 36
1, 123023, Note_off_c, 0, 49, 61
1, 123033, Control_c, 0, 64, 81
1, 123048, Control_c, 0, 64, 81
1, 123062, Control_c, 0, 64, 80
1, 123077, Control_c, 0, 64, 79
1, 123092, Control_c, 0, 64, 77
1, 123107, Control_c, 0, 64, 75
1, 123122, Control_c, 0, 64, 70
1, 123128, Note_on_c, 0, 49, 56
1, 123137, Control_c, 0, 64, 63
1, 123142, Note_off_c, 0, 56, 37
1, 123152, Control_c, 0, 64, 0
1, 123879, Note_on_c, 0, 66, 44
1, 123900, Control_c, 0, 64, 45
1, 123913, Note_on_c, 0, 57, 18
1, 123915, Control_c, 0, 64, 59
1, 123918, Note_on_c, 0, 61, 14
1, 123930, Control_c, 0, 64, 62
1, 123945, Control_c, 0, 64, 64
1, 123960, Control_c, 0, 64, 65
1, 123976, Control_c, 0, 64, 66
1, 123991, Control_c, 0, 64, 67
1, 124006, Control_c, 0, 64, 69
1, 124020, Control_c, 0, 64, 70
1, 124035, Control_c, 0, 64, 71
1, 124050, Control_c, 0, 64, 73
1, 124065, Control_c, 0, 64, 74
1, 124080, Control_c, 0, 64, 75
1, 124102, Note_off_c, 0, 61, 23
1, 124102, Control_c, 0, 64, 75
1, 124148, Note_off_c, 0, 57, 30
1, 124294, Control_c, 0, 64, 75
1, 124331, Note_on_c, 0, 53, 53
1, 124339, Control_c, 0, 64, 74
1, 124353, Control_c, 0, 64, 74
1, 124368, Control_c, 0, 64, 73
1, 124383, Control_c, 0, 64, 72
1, 124398, Control_c, 0, 64, 70
1, 124413, Control_c, 0, 64, 70
1, 124419, Note_off_c, 0, 49, 56
1, 124428, Control_c, 0, 64, 69
1, 124473, Note_off_c, 0, 66, 19
1, 124591, Control_c, 0, 64, 69
1, 124606, Control_c, 0, 64, 68
1, 124620, Control_c, 0, 64, 66
1, 124631, Note_on_c, 0, 54, 60
1, 124635, Control_c, 0, 64, 62
1, 124650, Control_c, 0, 64, 35
1, 124662, Note_off_c, 0, 53, 63
1, 124665, Control_c, 0, 64, 0
1, 124738, Control_c, 0, 64, 57
1, 124753, Control_c, 0, 64, 64
1, 124769, Control_c, 0, 64, 66
1, 124784, Control_c, 0, 64, 66
1, 124799, Control_c, 0, 64, 67
1, 124814, Control_c, 0, 64, 67
1, 124829, Control_c, 0, 64, 68
1, 124851, Control_c, 0, 64, 68
1, 124866, Control_c, 0, 64, 69
1, 124896, Control_c, 0, 64, 68
1, 124910, Control_c, 0, 64, 65
1, 124914, Note_on_c, 0, 55, 70
1, 124924, Note_off_c, 0, 54, 59
1, 124925, Control_c, 0, 64, 57
1, 124940, Control_c, 0, 64, 0
1, 125029, Control_c, 0, 64, 48
1, 125043, Control_c, 0, 64, 65
1, 125058, Control_c, 0, 64, 68
1, 125073, Control_c, 0, 64, 69
1, 125088, Control_c, 0, 64, 69
1, 125102, Control_c, 0, 64, 70
1, 125117, Control_c, 0, 64, 71
1, 125172, Note_on_c, 0, 56, 70
1, 125176, Note_off_c, 0, 55, 60
1, 125176, Control_c, 0, 64, 70
1, 125191, Control_c, 0, 64, 67
1, 125206, Control_c, 0, 64, 59
1, 125221, Control_c, 0, 64, 0
1, 125325, Control_c, 0, 64, 49
1, 125340, Control_c, 0, 64, 64
1, 125355, Control_c, 0, 64, 66
1, 125369, Control_c, 0, 64, 66
1, 125384, Control_c, 0, 64, 67
1, 125399, Control_c, 0, 64, 68
1, 125457, Control_c, 0, 64, 67
1, 125460, Note_on_c, 0, 57, 64
1, 125466, Note_off_c, 0, 56, 63
1, 125472, Control_c, 0, 64, 65
1, 125486, Control_c, 0, 64, 57
1, 125501, Control_c, 0, 64, 0
1, 125614, Control_c, 0, 64, 14
1, 125629, Control_c, 0, 64, 64
1, 125644, Control_c, 0, 64, 68
1, 125659, Control_c, 0, 64, 70
1, 125673, Control_c, 0, 64, 72
1, 125688, Control_c, 0, 64, 73
1, 125703, Control_c, 0, 64, 74
1, 125718, Control_c, 0, 64, 75
1, 125777, Control_c, 0, 64, 75
1, 125879, Note_off_c, 0, 57, 48
1, 125880, Control_c, 0, 64, 74
1, 125883, Note_on_c, 0, 49, 67
1, 125895, Control_c, 0, 64, 72
1, 125910, Control_c, 0, 64, 68
1, 125924, Control_c, 0, 64, 61
1, 125939, Control_c, 0, 64, 0
1, 126117, Control_c, 0, 64, 49
1, 126132, Control_c, 0, 64, 56
1, 126147, Control_c, 0, 64, 57
1, 126162, Control_c, 0, 64, 58
1, 126177, Control_c, 0, 64, 60
1, 126191, Control_c, 0, 64, 62
1, 126206, Control_c, 0, 64, 63
1, 126221, Control_c, 0, 64, 64
1, 126235, Control_c, 0, 64, 65
1, 126250, Control_c, 0, 64, 66
1, 126265, Control_c, 0, 64, 66
1, 126280, Control_c, 0, 64, 67
1, 126295, Control_c, 0, 64, 68
1, 126309, Control_c, 0, 64, 68
1, 126324, Control_c, 0, 64, 69
1, 126347, Control_c, 0, 64, 70
1, 126362, Control_c, 0, 64, 71
1, 126377, Control_c, 0, 64, 72
1, 126392, Control_c, 0, 64, 72
1, 126407, Control_c, 0, 64, 73
1, 126422, Control_c, 0, 64, 73
1, 126437, Control_c, 0, 64, 74
1, 126452, Control_c, 0, 64, 74
1, 126482, Control_c, 0, 64, 75
1, 126598, Note_on_c, 0, 66, 47
1, 126618, Note_on_c, 0, 57, 28
1, 126627, Note_on_c, 0, 61, 28
1, 126821, Note_off_c, 0, 61, 17
1, 126845, Note_off_c, 0, 57, 35
1, 127200, Control_c, 0, 64, 74
1, 127237, Note_off_c, 0, 66, 31
1, 127289, Control_c, 0, 64, 74
1, 127363, Control_c, 0, 64, 73
1, 127373, Note_on_c, 0, 52, 57
1, 127378, Control_c, 0, 64, 73
1, 127393, Control_c, 0, 64, 72
1, 127408, Control_c, 0, 64, 69
1, 127423, Control_c, 0, 64, 66
1, 127437, Control_c, 0, 64, 62
1, 127443, Note_off_c, 0, 49, 36
1, 127452, Control_c, 0, 64, 56
1, 127467, Control_c, 0, 64, 51
1, 127482, Control_c, 0, 64, 45
1, 127496, Control_c, 0, 64, 20
1, 127511, Control_c, 0, 64, 0
1, 127587, Note_on_c, 0, 50, 55
1, 127590, Note_off_c, 0, 52, 62
1, 128142, Control_c, 0, 64, 22
1, 128157, Control_c, 0, 64, 34
1, 128172, Control_c, 0, 64, 42
1, 128187, Control_c, 0, 64, 49
1, 128202, Control_c, 0, 64, 53
1, 128216, Control_c, 0, 64, 56
1, 128231, Control_c, 0, 64, 59
1, 128246, Control_c, 0, 64, 61
1, 128261, Control_c, 0, 64, 63
1, 128270, Note_on_c, 0, 65, 28
1, 128272, Note_on_c, 0, 59, 22
1, 128276, Note_on_c, 0, 56, 24
1, 128276, Control_c, 0, 64, 64
1, 128291, Control_c, 0, 64, 65
1, 128306, Control_c, 0, 64, 66
1, 128320, Control_c, 0, 64, 67
1, 128335, Control_c, 0, 64, 69
1, 128350, Control_c, 0, 64, 71
1, 128365, Control_c, 0, 64, 72
1, 128380, Control_c, 0, 64, 74
1, 128394, Control_c, 0, 64, 75
1, 128409, Control_c, 0, 64, 77
1, 128424, Control_c, 0, 64, 78
1, 128438, Control_c, 0, 64, 78
1, 128453, Control_c, 0, 64, 79
1, 128468, Control_c, 0, 64, 79
1, 128483, Control_c, 0, 64, 80
1, 128498, Control_c, 0, 64, 80
1, 128512, Control_c, 0, 64, 81
1, 128692, Note_off_c, 0, 56, 37
1, 128730, Note_off_c, 0, 65, 30
1, 128832, Control_c, 0, 64, 80
1, 128856, Note_on_c, 0, 49, 47
1, 128899, Note_off_c, 0, 50, 24
1, 128906, Control_c, 0, 64, 80
1, 128913, Note_off_c, 0, 49, 56
1, 128950, Control_c, 0, 64, 79
1, 128980, Control_c, 0, 64, 79
1, 128988, Note_off_c, 0, 59, 28
1, 128995, Control_c, 0, 64, 78
1, 129009, Control_c, 0, 64, 77
1, 129024, Control_c, 0, 64, 74
1, 129030, Note_on_c, 0, 49, 53
1, 129039, Control_c, 0, 64, 70
1, 129054, Control_c, 0, 64, 65
1, 129069, Control_c, 0, 64, 46
1, 129084, Control_c, 0, 64, 0
1, 129521, Control_c, 0, 64, 18
1, 129536, Control_c, 0, 64, 33
1, 129550, Control_c, 0, 64, 41
1, 129566, Control_c, 0, 64, 48
1, 129581, Control_c, 0, 64, 52
1, 129596, Control_c, 0, 64, 53
1, 129611, Control_c, 0, 64, 54
1, 129626, Control_c, 0, 64, 55
1, 129640, Control_c, 0, 64, 56
1, 129655, Control_c, 0, 64, 57
1, 129670, Control_c, 0, 64, 59
1, 129684, Control_c, 0, 64, 60
1, 129699, Control_c, 0, 64, 62
1, 129714, Control_c, 0, 64, 62
1, 129729, Control_c, 0, 64, 63
1, 129744, Control_c, 0, 64, 64
1, 129773, Control_c, 0, 64, 64
1, 129788, Control_c, 0, 64, 65
1, 129803, Control_c, 0, 64, 66
1, 129818, Control_c, 0, 64, 66
1, 129832, Control_c, 0, 64, 67
1, 129847, Control_c, 0, 64, 68
1, 129862, Control_c, 0, 64, 69
1, 129877, Control_c, 0, 64, 70
1, 129889, Note_on_c, 0, 66, 38
1, 129892, Control_c, 0, 64, 71
1, 129907, Control_c, 0, 64, 72
1, 129919, Note_on_c, 0, 57, 14
1, 129921, Control_c, 0, 64, 73
1, 129932, Note_on_c, 0, 61, 12
1, 129936, Control_c, 0, 64, 75
1, 129951, Control_c, 0, 64, 75
1, 129965, Control_c, 0, 64, 76
1, 130002, Note_off_c, 0, 61, 38
1, 130010, Control_c, 0, 64, 77
1, 130254, Control_c, 0, 64, 76
1, 130273, Note_off_c, 0, 57, 23
1, 130340, Note_off_c, 0, 66, 40
1, 130388, Control_c, 0, 64, 76
1, 130448, Control_c, 0, 64, 75
1, 130477, Control_c, 0, 64, 75
1, 130493, Note_on_c, 0, 53, 46
1, 130521, Control_c, 0, 64, 74
1, 130568, Note_off_c, 0, 49, 59
1, 130580, Control_c, 0, 64, 74
1, 130774, Control_c, 0, 64, 73
1, 130789, Control_c, 0, 64, 73
1, 130804, Control_c, 0, 64, 72
1, 130819, Control_c, 0, 64, 71
1, 130829, Note_on_c, 0, 54, 56
1, 130840, Control_c, 0, 64, 67
1, 130855, Control_c, 0, 64, 53
1, 130866, Note_off_c, 0, 53, 55
1, 130870, Control_c, 0, 64, 0
1, 130944, Control_c, 0, 64, 52
1, 130959, Control_c, 0, 64, 65
1, 130974, Control_c, 0, 64, 68
1, 130989, Control_c, 0, 64, 69
1, 131004, Control_c, 0, 64, 69
1, 131018, Control_c, 0, 64, 70
1, 131033, Control_c, 0, 64, 71
1, 131048, Control_c, 0, 64, 71
1, 131093, Control_c, 0, 64, 71
1, 131107, Control_c, 0, 64, 70
1, 131122, Control_c, 0, 64, 65
1, 131124, Note_on_c, 0, 55, 67
1, 131137, Control_c, 0, 64, 43
1, 131141, Note_off_c, 0, 54, 59
1, 131152, Control_c, 0, 64, 0
1, 131227, Control_c, 0, 64, 58
1, 131242, Control_c, 0, 64, 66
1, 131256, Control_c, 0, 64, 68
1, 131271, Control_c, 0, 64, 68
1, 131286, Control_c, 0, 64, 69
1, 131301, Control_c, 0, 64, 69
1, 131316, Control_c, 0, 64, 70
1, 131331, Control_c, 0, 64, 71
1, 131345, Control_c, 0, 64, 71
1, 131405, Control_c, 0, 64, 71
1, 131419, Control_c, 0, 64, 69
1, 131432, Note_on_c, 0, 56, 71
1, 131434, Control_c, 0, 64, 67
1, 131442, Note_off_c, 0, 55, 54
1, 131449, Control_c, 0, 64, 61
1, 131463, Control_c, 0, 64, 0
1, 131567, Control_c, 0, 64, 49
1, 131590, Control_c, 0, 64, 65
1, 131605, Control_c, 0, 64, 69
1, 131619, Control_c, 0, 64, 70
1, 131634, Control_c, 0, 64, 71
1, 131649, Control_c, 0, 64, 72
1, 131663, Control_c, 0, 64, 73
1, 131678, Control_c, 0, 64, 74
1, 131693, Control_c, 0, 64, 75
1, 131708, Control_c, 0, 64, 76
1, 131841, Note_off_c, 0, 56, 42
1, 131885, Note_on_c, 0, 57, 73
1, 131945, Control_c, 0, 64, 76
1, 131960, Note_off_c, 0, 57, 61
1, 131990, Control_c, 0, 64, 75
1, 132005, Control_c, 0, 64, 75
1, 132020, Control_c, 0, 64, 73
1, 132035, Control_c, 0, 64, 70
1, 132050, Control_c, 0, 64, 65
1, 132056, Note_on_c, 0, 57, 74
1, 132065, Control_c, 0, 64, 47
1, 132079, Control_c, 0, 64, 0
1, 132686, Note_on_c, 0, 48, 50
1, 132688, Note_on_c, 0, 66, 48
1, 132712, Note_on_c, 0, 63, 32
1, 132852, Note_off_c, 0, 48, 62
1, 132866, Note_off_c, 0, 66, 65
1, 132876, Note_off_c, 0, 63, 56
1, 133021, Control_c, 0, 64, 28
1, 133035, Control_c, 0, 64, 63
1, 133050, Control_c, 0, 64, 67
1, 133065, Control_c, 0, 64, 70
1, 133087, Control_c, 0, 64, 73
1, 133102, Control_c, 0, 64, 76
1, 133117, Control_c, 0, 64, 78
1, 133129, Note_off_c, 0, 57, 56
1, 133132, Control_c, 0, 64, 79
1, 133147, Control_c, 0, 64, 80
1, 133162, Control_c, 0, 64, 81
1, 133191, Control_c, 0, 64, 82
1, 133286, Note_on_c, 0, 57, 84
1, 133309, Control_c, 0, 64, 81
1, 133324, Control_c, 0, 64, 78
1, 133339, Control_c, 0, 64, 72
1, 133354, Control_c, 0, 64, 64
1, 133369, Control_c, 0, 64, 0
1, 133428, Control_c, 0, 64, 27
1, 133442, Control_c, 0, 64, 62
1, 133457, Control_c, 0, 64, 66
1, 133472, Control_c, 0, 64, 67
1, 133487, Control_c, 0, 64, 68
1, 133502, Control_c, 0, 64, 69
1, 133516, Control_c, 0, 64, 70
1, 133531, Control_c, 0, 64, 72
1, 133546, Control_c, 0, 64, 73
1, 133562, Control_c, 0, 64, 74
1, 133577, Control_c, 0, 64, 75
1, 133606, Control_c, 0, 64, 75
1, 133621, Control_c, 0, 64, 76
1, 133636, Control_c, 0, 64, 77
1, 133651, Control_c, 0, 64, 77
1, 133665, Control_c, 0, 64, 78
1, 133695, Control_c, 0, 64, 79
1, 133895, Control_c, 0, 64, 78
1, 133910, Control_c, 0, 64, 74
1, 133916, Note_on_c, 0, 66, 72
1, 133925, Control_c, 0, 64, 65
1, 133925, Note_on_c, 0, 47, 68
1, 133927, Note_on_c, 0, 63, 63
1, 133939, Control_c, 0, 64, 0
1, 134043, Control_c, 0, 64, 11
1, 134057, Note_off_c, 0, 47, 64
1, 134057, Control_c, 0, 64, 58
1, 134072, Control_c, 0, 64, 63
1, 134087, Control_c, 0, 64, 63
1, 134107, Note_off_c, 0, 66, 58
1, 134108, Note_off_c, 0, 63, 58
1, 134117, Control_c, 0, 64, 64
1, 134131, Control_c, 0, 64, 64
1, 134146, Control_c, 0, 64, 65
1, 134155, Note_off_c, 0, 57, 59
1, 134161, Control_c, 0, 64, 65
1, 134205, Control_c, 0, 64, 65
1, 134220, Control_c, 0, 64, 63
1, 134235, Control_c, 0, 64, 48
1, 134250, Control_c, 0, 64, 0
1, 134257, Note_on_c, 0, 57, 88
1, 134339, Control_c, 0, 64, 54
1, 134354, Control_c, 0, 64, 67
1, 134369, Control_c, 0, 64, 71
1, 134384, Control_c, 0, 64, 73
1, 134399, Control_c, 0, 64, 75
1, 134414, Control_c, 0, 64, 77
1, 134417, Note_off_c, 0, 57, 63
1, 134429, Control_c, 0, 64, 78
1, 134444, Control_c, 0, 64, 79
1, 134458, Control_c, 0, 64, 80
1, 134473, Control_c, 0, 64, 81
1, 134488, Control_c, 0, 64, 82
1, 134503, Control_c, 0, 64, 82
1, 134518, Control_c, 0, 64, 83
1, 134533, Control_c, 0, 64, 83
1, 134651, Note_on_c, 0, 57, 88
1, 134658, Control_c, 0, 64, 83
1, 134673, Control_c, 0, 64, 80
1, 134688, Control_c, 0, 64, 75
1, 134703, Control_c, 0, 64, 66
1, 134718, Control_c, 0, 64, 0
1, 134866, Control_c, 0, 64, 40
1, 134880, Control_c, 0, 64, 50
1, 134895, Control_c, 0, 64, 51
1, 134925, Control_c, 0, 64, 52
1, 134940, Control_c, 0, 64, 52
1, 134954, Control_c, 0, 64, 53
1, 135013, Control_c, 0, 64, 52
1, 135028, Control_c, 0, 64, 51
1, 135043, Control_c, 0, 64, 49
1, 135058, Control_c, 0, 64, 47
1, 135073, Control_c, 0, 64, 46
1, 135087, Control_c, 0, 64, 45
1, 135163, Control_c, 0, 64, 45
1, 135222, Control_c, 0, 64, 46
1, 135237, Control_c, 0, 64, 46
1, 135266, Control_c, 0, 64, 47
1, 135281, Control_c, 0, 64, 47
1, 135296, Control_c, 0, 64, 48
1, 135333, Control_c, 0, 64, 48
1, 135422, Control_c, 0, 64, 49
1, 135454, Note_on_c, 0, 66, 70
1, 135460, Note_on_c, 0, 46, 67
1, 135462, Note_on_c, 0, 63, 69
1, 135466, Control_c, 0, 64, 48
1, 135526, Control_c, 0, 64, 48
1, 135541, Control_c, 0, 64, 47
1, 135555, Control_c, 0, 64, 46
1, 135570, Control_c, 0, 64, 46
1, 135585, Control_c, 0, 64, 45
1, 135600, Control_c, 0, 64, 45
1, 135604, Note_off_c, 0, 46, 62
1, 135615, Control_c, 0, 64, 44
1, 135629, Control_c, 0, 64, 43
1, 135644, Control_c, 0, 64, 42
1, 135651, Note_off_c, 0, 63, 64
1, 135659, Control_c, 0, 64, 41
1, 135674, Control_c, 0, 64, 40
1, 135684, Note_off_c, 0, 66, 64
1, 135689, Control_c, 0, 64, 39
1, 135703, Control_c, 0, 64, 37
1, 135718, Control_c, 0, 64, 36
1, 135748, Control_c, 0, 64, 35
1, 135777, Control_c, 0, 64, 36
1, 135792, Control_c, 0, 64, 37
1, 135836, Control_c, 0, 64, 37
1, 135866, Control_c, 0, 64, 38
1, 135874, Note_on_c, 0, 58, 73
1, 135896, Control_c, 0, 64, 39
1, 135925, Control_c, 0, 64, 38
1, 135932, Note_off_c, 0, 57, 52
1, 135970, Control_c, 0, 64, 40
1, 135985, Control_c, 0, 64, 42
1, 136000, Control_c, 0, 64, 48
1, 136014, Control_c, 0, 64, 53
1, 136029, Control_c, 0, 64, 57
1, 136044, Control_c, 0, 64, 59
1, 136059, Control_c, 0, 64, 60
1, 136081, Control_c, 0, 64, 61
1, 136096, Control_c, 0, 64, 61
1, 136111, Control_c, 0, 64, 62
1, 136126, Control_c, 0, 64, 62
1, 136200, Control_c, 0, 64, 62
1, 136223, Note_on_c, 0, 59, 76
1, 136229, Control_c, 0, 64, 61
1, 136244, Control_c, 0, 64, 59
1, 136259, Control_c, 0, 64, 51
1, 136261, Note_off_c, 0, 58, 63
1, 136274, Control_c, 0, 64, 26
1, 136289, Control_c, 0, 64, 0
1, 136422, Control_c, 0, 64, 26
1, 136437, Control_c, 0, 64, 46
1, 136451, Control_c, 0, 64, 50
1, 136466, Control_c, 0, 64, 51
1, 136481, Control_c, 0, 64, 51
1, 136510, Note_on_c, 0, 58, 72
1, 136524, Note_off_c, 0, 59, 60
1, 136540, Control_c, 0, 64, 51
1, 136555, Control_c, 0, 64, 50
1, 136570, Control_c, 0, 64, 49
1, 136585, Control_c, 0, 64, 49
1, 136614, Control_c, 0, 64, 49
1, 136629, Control_c, 0, 64, 50
1, 136673, Control_c, 0, 64, 51
1, 136778, Control_c, 0, 64, 50
1, 136791, Note_on_c, 0, 54, 68
1, 136793, Control_c, 0, 64, 47
1, 136802, Note_off_c, 0, 58, 63
1, 136808, Control_c, 0, 64, 26
1, 136830, Control_c, 0, 64, 0
1, 136919, Control_c, 0, 64, 25
1, 136934, Control_c, 0, 64, 57
1, 136949, Control_c, 0, 64, 61
1, 136963, Control_c, 0, 64, 62
1, 137052, Control_c, 0, 64, 61
1, 137067, Control_c, 0, 64, 59
1, 137082, Control_c, 0, 64, 47
1, 137083, Note_on_c, 0, 51, 64
1, 137097, Control_c, 0, 64, 0
1, 137102, Note_off_c, 0, 54, 62
1, 137216, Control_c, 0, 64, 60
1, 137230, Control_c, 0, 64, 66
1, 137245, Control_c, 0, 64, 69
1, 137260, Control_c, 0, 64, 70
1, 137274, Control_c, 0, 64, 71
1, 137289, Control_c, 0, 64, 72
1, 137304, Control_c, 0, 64, 73
1, 137312, Note_off_c, 0, 51, 58
1, 137319, Control_c, 0, 64, 75
1, 137334, Control_c, 0, 64, 76
1, 137348, Control_c, 0, 64, 77
1, 137505, Note_on_c, 0, 47, 66
1, 137512, Control_c, 0, 64, 76
1, 137527, Control_c, 0, 64, 75
1, 137543, Control_c, 0, 64, 73
1, 137558, Control_c, 0, 64, 69
1, 137579, Control_c, 0, 64, 64
1, 137594, Control_c, 0, 64, 53
1, 137609, Control_c, 0, 64, 0
1, 138408, Note_on_c, 0, 66, 44
1, 138414, Note_on_c, 0, 62, 30
1, 138417, Control_c, 0, 64, 11
1, 138420, Note_on_c, 0, 56, 26
1, 138432, Control_c, 0, 64, 22
1, 138447, Control_c, 0, 64, 34
1, 138462, Control_c, 0, 64, 44
1, 138477, Control_c, 0, 64, 50
1, 138492, Control_c, 0, 64, 55
1, 138507, Control_c, 0, 64, 58
1, 138521, Control_c, 0, 64, 61
1, 138536, Control_c, 0, 64, 63
1, 138551, Control_c, 0, 64, 64
1, 138566, Control_c, 0, 64, 65
1, 138581, Control_c, 0, 64, 66
1, 138596, Control_c, 0, 64, 68
1, 138610, Control_c, 0, 64, 69
1, 138625, Control_c, 0, 64, 70
1, 138640, Control_c, 0, 64, 72
1, 138654, Control_c, 0, 64, 72
1, 138669, Control_c, 0, 64, 73
1, 138699, Control_c, 0, 64, 74
1, 139065, Note_on_c, 0, 42, 57
1, 139069, Control_c, 0, 64, 73
1, 139106, Control_c, 0, 64, 72
1, 139121, Control_c, 0, 64, 71
1, 139135, Control_c, 0, 64, 70
1, 139150, Note_off_c, 0, 47, 37
1, 139151, Control_c, 0, 64, 66
1, 139166, Control_c, 0, 64, 56
1, 139181, Control_c, 0, 64, 0
1, 139255, Control_c, 0, 64, 62
1, 139270, Control_c, 0, 64, 67
1, 139285, Control_c, 0, 64, 70
1, 139299, Control_c, 0, 64, 72
1, 139314, Control_c, 0, 64, 75
1, 139329, Control_c, 0, 64, 77
1, 139344, Control_c, 0, 64, 78
1, 139359, Control_c, 0, 64, 79
1, 139374, Control_c, 0, 64, 79
1, 139389, Control_c, 0, 64, 80
1, 139401, Note_off_c, 0, 66, 35
1, 139404, Control_c, 0, 64, 80
1, 139669, Control_c, 0, 64, 80
1, 139699, Control_c, 0, 64, 79
1, 139714, Control_c, 0, 64, 77
1, 139729, Control_c, 0, 64, 72
1, 139737, Note_on_c, 0, 44, 56
1, 139744, Control_c, 0, 64, 65
1, 139744, Note_on_c, 0, 65, 36
1, 139759, Control_c, 0, 64, 41
1, 139764, Note_off_c, 0, 42, 56
1, 139773, Control_c, 0, 64, 0
1, 139974, Control_c, 0, 64, 46
1, 139989, Control_c, 0, 64, 59
1, 140004, Control_c, 0, 64, 62
1, 140019, Control_c, 0, 64, 63
1, 140034, Control_c, 0, 64, 64
1, 140048, Control_c, 0, 64, 65
1, 140063, Control_c, 0, 64, 66
1, 140078, Control_c, 0, 64, 66
1, 140092, Control_c, 0, 64, 67
1, 140107, Control_c, 0, 64, 68
1, 140122, Control_c, 0, 64, 69
1, 140137, Control_c, 0, 64, 69
1, 140153, Note_off_c, 0, 62, 29
1, 140167, Control_c, 0, 64, 70
1, 140231, Note_off_c, 0, 65, 43
1, 140256, Note_off_c, 0, 56, 33
1, 140300, Control_c, 0, 64, 69
1, 140345, Control_c, 0, 64, 69
1, 140360, Control_c, 0, 64, 68
1, 140374, Control_c, 0, 64, 67
1, 140385, Note_on_c, 0, 46, 62
1, 140389, Control_c, 0, 64, 65
1, 140404, Control_c, 0, 64, 62
1, 140418, Control_c, 0, 64, 53
1, 140433, Control_c, 0, 64, 31
1, 140435, Note_off_c, 0, 44, 53
1, 140448, Control_c, 0, 64, 0
1, 141113, Note_on_c, 0, 47, 52
1, 141141, Note_off_c, 0, 46, 52
1, 141709, Control_c, 0, 64, 14
1, 141724, Control_c, 0, 64, 37
1, 141739, Control_c, 0, 64, 44
1, 141753, Control_c, 0, 64, 46
1, 141768, Control_c, 0, 64, 49
1, 141783, Control_c, 0, 64, 53
1, 141798, Control_c, 0, 64, 57
1, 141812, Control_c, 0, 64, 60
1, 141827, Control_c, 0, 64, 62
1, 141842, Control_c, 0, 64, 63
1, 141857, Control_c, 0, 64, 64
1, 141872, Control_c, 0, 64, 64
1, 141887, Control_c, 0, 64, 65
1, 141902, Control_c, 0, 64, 66
1, 141917, Control_c, 0, 64, 66
1, 141932, Control_c, 0, 64, 67
1, 141946, Control_c, 0, 64, 68
1, 141961, Control_c, 0, 64, 69
1, 141976, Control_c, 0, 64, 69
1, 141990, Control_c, 0, 64, 70
1, 142005, Control_c, 0, 64, 70
1, 142020, Control_c, 0, 64, 71
1, 142035, Control_c, 0, 64, 71
1, 142072, Control_c, 0, 64, 72
1, 142087, Control_c, 0, 64, 72
1, 142101, Control_c, 0, 64, 73
1, 142175, Note_on_c, 0, 61, 47
1, 142179, Note_on_c, 0, 53, 38
1, 142197, Note_on_c, 0, 56, 33
1, 142283, Note_off_c, 0, 56, 0
1, 142309, Control_c, 0, 64, 73
1, 142321, Poly_aftertouch_c, 0, 56, 127
1, 142635, Control_c, 0, 64, 73
1, 142644, Note_off_c, 0, 53, 42
1, 142784, Control_c, 0, 64, 72
1, 142786, Poly_aftertouch_c, 0, 56, 0
1, 142999, Control_c, 0, 64, 72
1, 143043, Control_c, 0, 64, 71
1, 143058, Control_c, 0, 64, 71
1, 143073, Control_c, 0, 64, 70
1, 143087, Control_c, 0, 64, 68
1, 143102, Control_c, 0, 64, 64
1, 143117, Control_c, 0, 64, 58
1, 143127, Note_on_c, 0, 58, 26
1, 143132, Control_c, 0, 64, 33
1, 143134, Note_on_c, 0, 48, 32
1, 143138, Note_on_c, 0, 52, 9
1, 143148, Control_c, 0, 64, 0
1, 143156, Note_off_c, 0, 47, 31
1, 143175, Poly_aftertouch_c, 0, 55, 127
1, 143473, Control_c, 0, 64, 47
1, 143488, Control_c, 0, 64, 63
1, 143503, Control_c, 0, 64, 65
1, 143517, Control_c, 0, 64, 66
1, 143532, Control_c, 0, 64, 68
1, 143547, Control_c, 0, 64, 70
1, 143570, Control_c, 0, 64, 72
1, 143585, Control_c, 0, 64, 74
1, 143599, Control_c, 0, 64, 75
1, 143614, Control_c, 0, 64, 75
1, 143629, Control_c, 0, 64, 76
1, 143866, Note_off_c, 0, 61, 36
1, 144133, Control_c, 0, 64, 75
1, 144163, Control_c, 0, 64, 75
1, 144178, Control_c, 0, 64, 74
1, 144193, Control_c, 0, 64, 72
1, 144198, Note_on_c, 0, 60, 29
1, 144208, Control_c, 0, 64, 70
1, 144222, Control_c, 0, 64, 64
1, 144237, Control_c, 0, 64, 35
1, 144252, Control_c, 0, 64, 0
1, 144363, Control_c, 0, 64, 28
1, 144378, Control_c, 0, 64, 65
1, 144392, Control_c, 0, 64, 69
1, 144407, Control_c, 0, 64, 72
1, 144422, Control_c, 0, 64, 75
1, 144437, Control_c, 0, 64, 77
1, 144452, Control_c, 0, 64, 79
1, 144462, Note_off_c, 0, 48, 41
1, 144466, Control_c, 0, 64, 81
1, 144478, Poly_aftertouch_c, 0, 55, 0
1, 144480, Note_off_c, 0, 58, 49
1, 144481, Control_c, 0, 64, 82
1, 144483, Note_off_c, 0, 52, 43
1, 144496, Control_c, 0, 64, 83
1, 144511, Control_c, 0, 64, 84
1, 144526, Control_c, 0, 64, 85
1, 144555, Control_c, 0, 64, 85
1, 144561, Note_off_c, 0, 60, 53
1, 144912, Control_c, 0, 64, 85
1, 144986, Control_c, 0, 64, 84
1, 145030, Control_c, 0, 64, 84
1, 145045, Control_c, 0, 64, 83
1, 145067, Control_c, 0, 64, 83
1, 145082, Control_c, 0, 64, 82
1, 145097, Control_c, 0, 64, 80
1, 145112, Control_c, 0, 64, 76
1, 145115, Note_on_c, 0, 29, 36
1, 145118, Note_on_c, 0, 41, 33
1, 145119, Note_on_c, 0, 80, 66
1, 145126, Note_on_c, 0, 68, 43
1, 145127, Control_c, 0, 64, 68
1, 145142, Control_c, 0, 64, 23
1, 145157, Control_c, 0, 64, 0
1, 145245, Control_c, 0, 64, 63
1, 145260, Control_c, 0, 64, 69
1, 145275, Control_c, 0, 64, 73
1, 145285, Note_off_c, 0, 29, 53
1, 145289, Control_c, 0, 64, 77
1, 145304, Control_c, 0, 64, 79
1, 145319, Control_c, 0, 64, 81
1, 145332, Note_off_c, 0, 41, 50
1, 145334, Control_c, 0, 64, 82
1, 145349, Control_c, 0, 64, 83
1, 145363, Control_c, 0, 64, 84
1, 145377, Note_off_c, 0, 68, 42
1, 145378, Control_c, 0, 64, 84
1, 145393, Control_c, 0, 64, 85
1, 145408, Control_c, 0, 64, 85
1, 145413, Note_off_c, 0, 80, 62
1, 145822, Note_on_c, 0, 77, 45
1, 145824, Note_on_c, 0, 56, 34
1, 145827, Note_on_c, 0, 60, 34
1, 145828, Note_on_c, 0, 68, 38
1, 145831, Note_on_c, 0, 65, 26
1, 145839, Note_on_c, 0, 72, 31
1, 145873, Note_off_c, 0, 68, 48
1, 145874, Note_off_c, 0, 72, 50
1, 145881, Note_off_c, 0, 60, 44
1, 145883, Note_off_c, 0, 65, 50
1, 145887, Note_off_c, 0, 77, 38
1, 145951, Note_off_c, 0, 56, 39
1, 146145, Note_on_c, 0, 79, 54
1, 146154, Note_on_c, 0, 67, 47
1, 146169, Note_off_c, 0, 79, 55
1, 146194, Note_off_c, 0, 67, 49
1, 146287, Note_on_c, 0, 77, 70
1, 146303, Note_on_c, 0, 65, 54
1, 146340, Note_off_c, 0, 77, 55
1, 146343, Note_off_c, 0, 65, 48
1, 146423, Control_c, 0, 64, 84
1, 146438, Control_c, 0, 64, 81
1, 146451, Note_on_c, 0, 76, 74
1, 146452, Control_c, 0, 64, 74
1, 146464, Note_on_c, 0, 29, 34
1, 146466, Note_on_c, 0, 41, 29
1, 146467, Control_c, 0, 64, 64
1, 146474, Note_on_c, 0, 64, 51
1, 146482, Control_c, 0, 64, 0
1, 146593, Control_c, 0, 64, 62
1, 146607, Note_off_c, 0, 29, 56
1, 146608, Control_c, 0, 64, 71
1, 146623, Control_c, 0, 64, 80
1, 146638, Control_c, 0, 64, 85
1, 146653, Control_c, 0, 64, 86
1, 146666, Note_off_c, 0, 41, 40
1, 146682, Control_c, 0, 64, 87
1, 146697, Control_c, 0, 64, 87
1, 146712, Control_c, 0, 64, 88
1, 146727, Control_c, 0, 64, 88
1, 146741, Control_c, 0, 64, 89
1, 146744, Note_off_c, 0, 64, 57
1, 146771, Control_c, 0, 64, 89
1, 147089, Note_off_c, 0, 76, 43
1, 147104, Note_on_c, 0, 60, 41
1, 147107, Note_on_c, 0, 68, 41
1, 147110, Note_on_c, 0, 72, 39
1, 147111, Note_on_c, 0, 56, 42
1, 147120, Note_on_c, 0, 52, 32
1, 147139, Note_on_c, 0, 64, 24
1, 147154, Note_off_c, 0, 60, 50
1, 147173, Note_off_c, 0, 64, 53
1, 147178, Note_off_c, 0, 56, 53
1, 147203, Note_off_c, 0, 72, 37
1, 147226, Note_off_c, 0, 52, 37
1, 147348, Note_off_c, 0, 68, 40
1, 147467, Note_on_c, 0, 75, 54
1, 147479, Note_on_c, 0, 63, 44
1, 147518, Note_off_c, 0, 63, 49
1, 147523, Note_off_c, 0, 75, 58
1, 147611, Note_on_c, 0, 73, 55
1, 147625, Note_on_c, 0, 61, 52
1, 147654, Note_off_c, 0, 73, 57
1, 147681, Note_off_c, 0, 61, 59
1, 147757, Control_c, 0, 64, 88
1, 147772, Control_c, 0, 64, 86
1, 147774, Note_on_c, 0, 60, 30
1, 147775, Note_on_c, 0, 72, 53
1, 147787, Control_c, 0, 64, 80
1, 147801, Control_c, 0, 64, 71
1, 147816, Control_c, 0, 64, 46
1, 147819, Note_on_c, 0, 29, 28
1, 147824, Note_on_c, 0, 41, 23
1, 147831, Control_c, 0, 64, 0
1, 147936, Control_c, 0, 64, 65
1, 147950, Note_off_c, 0, 29, 55
1, 147951, Control_c, 0, 64, 72
1, 147966, Control_c, 0, 64, 78
1, 147980, Control_c, 0, 64, 82
1, 147995, Control_c, 0, 64, 83
1, 148010, Control_c, 0, 64, 84
1, 148012, Note_off_c, 0, 41, 41
1, 148025, Control_c, 0, 64, 85
1, 148039, Control_c, 0, 64, 87
1, 148062, Control_c, 0, 64, 89
1, 148077, Control_c, 0, 64, 89
1, 148092, Control_c, 0, 64, 90
1, 148121, Note_off_c, 0, 60, 39
1, 148121, Control_c, 0, 64, 90
1, 148151, Control_c, 0, 64, 91
1, 148195, Control_c, 0, 64, 91
1, 148269, Control_c, 0, 64, 92
1, 148453, Note_on_c, 0, 56, 25
1, 148454, Note_on_c, 0, 48, 33
1, 148463, Note_on_c, 0, 68, 36
1, 148467, Note_on_c, 0, 65, 33
1, 148469, Note_on_c, 0, 53, 23
1, 148469, Note_on_c, 0, 60, 25
1, 148516, Note_off_c, 0, 65, 48
1, 148519, Note_off_c, 0, 60, 46
1, 148521, Note_off_c, 0, 53, 45
1, 148524, Note_off_c, 0, 68, 43
1, 148528, Note_off_c, 0, 48, 40
1, 148576, Note_off_c, 0, 56, 33
1, 148910, Note_on_c, 0, 68, 48
1, 148914, Note_on_c, 0, 56, 24
1, 148918, Note_on_c, 0, 53, 32
1, 148919, Note_on_c, 0, 48, 30
1, 148926, Note_on_c, 0, 60, 19
1, 148928, Note_on_c, 0, 65, 33
1, 148956, Note_off_c, 0, 68, 48
1, 148959, Note_off_c, 0, 48, 50
1, 148964, Note_off_c, 0, 53, 48
1, 148964, Note_off_c, 0, 65, 52
1, 148966, Note_off_c, 0, 56, 44
1, 148967, Note_off_c, 0, 60, 46
1, 149060, Note_on_c, 0, 68, 48
1, 149081, Note_off_c, 0, 72, 61
1, 149085, Note_on_c, 0, 48, 33
1, 149092, Note_on_c, 0, 56, 32
1, 149100, Note_on_c, 0, 53, 34
1, 149181, Note_off_c, 0, 68, 54
1, 149324, Note_off_c, 0, 56, 40
1, 149352, Note_on_c, 0, 73, 69
1, 149380, Note_on_c, 0, 61, 35
1, 149417, Note_off_c, 0, 53, 38
1, 149417, Note_off_c, 0, 61, 48
1, 149451, Note_off_c, 0, 48, 43
1, 149752, Control_c, 0, 64, 91
1, 149765, Note_on_c, 0, 76, 68
1, 149767, Control_c, 0, 64, 90
1, 149780, Note_on_c, 0, 64, 41
1, 149782, Control_c, 0, 64, 89
1, 149797, Control_c, 0, 64, 86
1, 149811, Control_c, 0, 64, 81
1, 149813, Note_off_c, 0, 73, 53
1, 149826, Control_c, 0, 64, 73
1, 149841, Control_c, 0, 64, 59
1, 149856, Control_c, 0, 64, 0
1, 149930, Control_c, 0, 64, 62
1, 149945, Control_c, 0, 64, 72
1, 149959, Control_c, 0, 64, 81
1, 149974, Control_c, 0, 64, 90
1, 149989, Control_c, 0, 64, 91
1, 150004, Control_c, 0, 64, 92
1, 150019, Control_c, 0, 64, 92
1, 150031, Note_off_c, 0, 76, 66
1, 150034, Control_c, 0, 64, 93
1, 150047, Note_off_c, 0, 64, 41
1, 150049, Control_c, 0, 64, 94
1, 150063, Control_c, 0, 64, 95
1, 150093, Control_c, 0, 64, 96
1, 150218, Note_on_c, 0, 77, 74
1, 150237, Note_on_c, 0, 65, 54
1, 150258, Note_off_c, 0, 65, 63
1, 150274, Note_off_c, 0, 77, 60
1, 150398, Control_c, 0, 64, 95
1, 150413, Control_c, 0, 64, 93
1, 150418, Note_on_c, 0, 29, 44
1, 150427, Control_c, 0, 64, 90
1, 150430, Note_on_c, 0, 41, 42
1, 150442, Control_c, 0, 64, 84
1, 150451, Note_on_c, 0, 80, 81
1, 150457, Control_c, 0, 64, 73
1, 150472, Control_c, 0, 64, 54
1, 150478, Note_on_c, 0, 68, 55
1, 150487, Control_c, 0, 64, 0
1, 150606, Control_c, 0, 64, 64
1, 150621, Control_c, 0, 64, 74
1, 150624, Note_off_c, 0, 29, 54
1, 150635, Control_c, 0, 64, 84
1, 150650, Control_c, 0, 64, 95
1, 150665, Control_c, 0, 64, 99
1, 150680, Control_c, 0, 64, 100
1, 150681, Note_off_c, 0, 41, 40
1, 150695, Control_c, 0, 64, 101
1, 150707, Note_off_c, 0, 68, 58
1, 150709, Control_c, 0, 64, 102
1, 150724, Control_c, 0, 64, 104
1, 150731, Note_off_c, 0, 80, 64
1, 150739, Control_c, 0, 64, 105
1, 150753, Control_c, 0, 64, 107
1, 150798, Control_c, 0, 64, 107
1, 151078, Note_on_c, 0, 77, 52
1, 151089, Note_on_c, 0, 72, 47
1, 151092, Note_on_c, 0, 56, 42
1, 151093, Note_on_c, 0, 60, 41
1, 151101, Note_on_c, 0, 68, 29
1, 151101, Note_on_c, 0, 65, 26
1, 151120, Note_off_c, 0, 72, 53
1, 151134, Note_off_c, 0, 77, 52
1, 151141, Note_off_c, 0, 65, 51
1, 151142, Note_off_c, 0, 68, 49
1, 151146, Note_off_c, 0, 60, 57
1, 151163, Note_off_c, 0, 56, 48
1, 151378, Note_on_c, 0, 79, 67
1, 151387, Note_on_c, 0, 67, 60
1, 151409, Note_off_c, 0, 79, 60
1, 151423, Note_off_c, 0, 67, 62
1, 151524, Note_on_c, 0, 77, 81
1, 151539, Note_on_c, 0, 65, 64
1, 151569, Note_off_c, 0, 65, 67
1, 151583, Note_off_c, 0, 77, 59
1, 151664, Control_c, 0, 64, 106
1, 151679, Control_c, 0, 64, 103
1, 151694, Control_c, 0, 64, 92
1, 151697, Note_on_c, 0, 76, 81
1, 151704, Note_on_c, 0, 29, 44
1, 151707, Note_on_c, 0, 41, 44
1, 151709, Control_c, 0, 64, 78
1, 151713, Note_on_c, 0, 64, 65
1, 151724, Control_c, 0, 64, 59
1, 151739, Control_c, 0, 64, 0
1, 151820, Control_c, 0, 64, 61
1, 151835, Control_c, 0, 64, 68
1, 151846, Note_off_c, 0, 29, 55
1, 151850, Control_c, 0, 64, 74
1, 151864, Control_c, 0, 64, 79
1, 151879, Control_c, 0, 64, 84
1, 151888, Note_off_c, 0, 41, 51
1, 151894, Control_c, 0, 64, 87
1, 151909, Control_c, 0, 64, 89
1, 151924, Control_c, 0, 64, 90
1, 151940, Control_c, 0, 64, 91
1, 151954, Control_c, 0, 64, 92
1, 151984, Control_c, 0, 64, 92
1, 152001, Note_off_c, 0, 64, 49
1, 152028, Control_c, 0, 64, 93
1, 152088, Control_c, 0, 64, 93
1, 152132, Control_c, 0, 64, 94
1, 152177, Control_c, 0, 64, 94
1, 152206, Control_c, 0, 64, 95
1, 152295, Control_c, 0, 64, 95
1, 152335, Note_on_c, 0, 72, 55
1, 152337, Note_on_c, 0, 64, 47
1, 152338, Note_on_c, 0, 68, 53
1, 152341, Note_on_c, 0, 56, 47
1, 152341, Note_on_c, 0, 60, 43
1, 152342, Note_on_c, 0, 52, 45
1, 152347, Note_off_c, 0, 76, 57
1, 152390, Note_off_c, 0, 60, 60
1, 152392, Note_off_c, 0, 64, 58
1, 152399, Note_off_c, 0, 56, 52
1, 152404, Note_off_c, 0, 52, 61
1, 152411, Note_off_c, 0, 72, 63
1, 152413, Control_c, 0, 64, 96
1, 152487, Control_c, 0, 64, 96
1, 152502, Control_c, 0, 64, 97
1, 152532, Control_c, 0, 64, 97
1, 152554, Control_c, 0, 64, 98
1, 152578, Note_off_c, 0, 68, 42
1, 152584, Control_c, 0, 64, 98
1, 152613, Control_c, 0, 64, 99
1, 152658, Control_c, 0, 64, 99
1, 152723, Note_on_c, 0, 75, 55
1, 152728, Note_on_c, 0, 63, 56
1, 152762, Note_off_c, 0, 63, 56
1, 152770, Note_off_c, 0, 75, 54
1, 152777, Control_c, 0, 64, 100
1, 152858, Note_on_c, 0, 73, 65
1, 152870, Note_on_c, 0, 61, 59
1, 152928, Note_off_c, 0, 73, 51
1, 152934, Note_off_c, 0, 61, 54
1, 153015, Control_c, 0, 64, 97
1, 153029, Note_on_c, 0, 72, 66
1, 153029, Control_c, 0, 64, 90
1, 153040, Note_on_c, 0, 60, 54
1, 153044, Control_c, 0, 64, 79
1, 153050, Note_on_c, 0, 41, 44
1, 153057, Note_on_c, 0, 29, 35
1, 153059, Control_c, 0, 64, 64
1, 153074, Control_c, 0, 64, 0
1, 153162, Control_c, 0, 64, 48
1, 153177, Control_c, 0, 64, 66
1, 153192, Control_c, 0, 64, 72
1, 153205, Note_off_c, 0, 29, 54
1, 153207, Control_c, 0, 64, 78
1, 153221, Control_c, 0, 64, 83
1, 153236, Control_c, 0, 64, 86
1, 153251, Control_c, 0, 64, 87
1, 153263, Note_off_c, 0, 41, 42
1, 153266, Control_c, 0, 64, 88
1, 153281, Control_c, 0, 64, 90
1, 153303, Control_c, 0, 64, 91
1, 153318, Control_c, 0, 64, 92
1, 153333, Control_c, 0, 64, 93
1, 153339, Note_off_c, 0, 60, 50
1, 153347, Control_c, 0, 64, 93
1, 153694, Note_on_c, 0, 48, 35
1, 153699, Note_on_c, 0, 53, 37
1, 153700, Note_on_c, 0, 56, 32
1, 153701, Note_on_c, 0, 68, 45
1, 153708, Note_on_c, 0, 60, 35
1, 153712, Note_on_c, 0, 65, 37
1, 153748, Note_off_c, 0, 65, 53
1, 153760, Note_off_c, 0, 68, 55
1, 153805, Note_off_c, 0, 60, 30
1, 153827, Note_off_c, 0, 53, 36
1, 153839, Note_off_c, 0, 56, 40
1, 153843, Note_off_c, 0, 48, 43
1, 154152, Note_on_c, 0, 48, 39
1, 154152, Note_on_c, 0, 56, 39
1, 154152, Note_on_c, 0, 68, 52
1, 154156, Note_on_c, 0, 53, 39
1, 154165, Note_on_c, 0, 65, 39
1, 154171, Note_on_c, 0, 60, 26
1, 154195, Note_off_c, 0, 68, 58
1, 154198, Note_off_c, 0, 48, 46
1, 154200, Note_off_c, 0, 65, 53
1, 154206, Note_off_c, 0, 53, 57
1, 154206, Note_off_c, 0, 56, 45
1, 154208, Note_off_c, 0, 60, 46
1, 154323, Note_on_c, 0, 68, 45
1, 154329, Note_on_c, 0, 60, 45
1, 154343, Note_on_c, 0, 56, 43
1, 154344, Note_on_c, 0, 53, 28
1, 154350, Note_on_c, 0, 65, 19
1, 154352, Note_on_c, 0, 48, 29
1, 154387, Note_off_c, 0, 65, 45
1, 154394, Note_off_c, 0, 60, 44
1, 154457, Note_off_c, 0, 72, 57
1, 154472, Note_off_c, 0, 68, 58
1, 154630, Note_off_c, 0, 56, 37
1, 154691, Note_on_c, 0, 76, 77
1, 154709, Note_on_c, 0, 64, 50
1, 154713, Note_off_c, 0, 53, 38
1, 154733, Note_off_c, 0, 48, 41
1, 154735, Control_c, 0, 64, 93
1, 154746, Note_off_c, 0, 64, 47
1, 154957, Note_off_c, 0, 76, 63
1, 154964, Control_c, 0, 64, 87
1, 154979, Control_c, 0, 64, 75
1, 154994, Control_c, 0, 64, 47
1, 154997, Note_on_c, 0, 77, 83
1, 155008, Control_c, 0, 64, 0
1, 155011, Note_on_c, 0, 65, 66
1, 155068, Control_c, 0, 64, 60
1, 155082, Control_c, 0, 64, 70
1, 155094, Note_off_c, 0, 65, 61
1, 155097, Control_c, 0, 64, 76
1, 155112, Control_c, 0, 64, 82
1, 155128, Note_off_c, 0, 77, 61
1, 155128, Control_c, 0, 64, 84
1, 155143, Control_c, 0, 64, 85
1, 155158, Control_c, 0, 64, 85
1, 155172, Control_c, 0, 64, 86
1, 155187, Control_c, 0, 64, 87
1, 155202, Control_c, 0, 64, 88
1, 155216, Control_c, 0, 64, 89
1, 155231, Control_c, 0, 64, 90
1, 155305, Control_c, 0, 64, 89
1, 155307, Note_on_c, 0, 80, 89
1, 155314, Note_on_c, 0, 68, 77
1, 155320, Control_c, 0, 64, 83
1, 155335, Control_c, 0, 64, 68
1, 155350, Control_c, 0, 64, 0
1, 155409, Control_c, 0, 64, 61
1, 155423, Control_c, 0, 64, 72
1, 155436, Note_off_c, 0, 68, 61
1, 155438, Control_c, 0, 64, 79
1, 155453, Control_c, 0, 64, 83
1, 155468, Control_c, 0, 64, 83
1, 155498, Control_c, 0, 64, 84
1, 155509, Note_off_c, 0, 80, 60
1, 155513, Control_c, 0, 64, 85
1, 155527, Control_c, 0, 64, 85
1, 155549, Control_c, 0, 64, 86
1, 155564, Control_c, 0, 64, 87
1, 155579, Control_c, 0, 64, 87
1, 155594, Control_c, 0, 64, 88
1, 155623, Control_c, 0, 64, 89
1, 155712, Control_c, 0, 64, 87
1, 155726, Note_on_c, 0, 29, 47
1, 155727, Note_on_c, 0, 85, 86
1, 155727, Control_c, 0, 64, 79
1, 155739, Note_on_c, 0, 41, 46
1, 155740, Note_on_c, 0, 73, 69
1, 155742, Control_c, 0, 64, 65
1, 155757, Control_c, 0, 64, 0
1, 155861, Control_c, 0, 64, 65
1, 155876, Control_c, 0, 64, 72
1, 155888, Note_off_c, 0, 29, 55
1, 155891, Control_c, 0, 64, 79
1, 155905, Control_c, 0, 64, 85
1, 155921, Control_c, 0, 64, 88
1, 155927, Note_off_c, 0, 41, 52
1, 155936, Control_c, 0, 64, 88
1, 155951, Control_c, 0, 64, 89
1, 155965, Control_c, 0, 64, 90
1, 155980, Control_c, 0, 64, 91
1, 155995, Control_c, 0, 64, 92
1, 156010, Control_c, 0, 64, 92
1, 156025, Control_c, 0, 64, 93
1, 156039, Control_c, 0, 64, 94
1, 156054, Control_c, 0, 64, 94
1, 156069, Control_c, 0, 64, 95
1, 156332, Note_off_c, 0, 73, 0
1, 156347, Note_on_c, 0, 73, 29
1, 156359, Note_on_c, 0, 82, 64
1, 156368, Note_on_c, 0, 70, 60
1, 156374, Note_on_c, 0, 65, 53
1, 156375, Note_on_c, 0, 61, 56
1, 156377, Note_on_c, 0, 77, 51
1, 156402, Control_c, 0, 64, 95
1, 156412, Note_off_c, 0, 77, 50
1, 156422, Note_off_c, 0, 61, 54
1, 156424, Note_off_c, 0, 65, 61
1, 156430, Note_off_c, 0, 70, 57
1, 156478, Note_off_c, 0, 73, 35
1, 156520, Note_off_c, 0, 85, 24
1, 156612, Note_off_c, 0, 82, 17
1, 156666, Note_on_c, 0, 84, 77
1, 156675, Note_on_c, 0, 72, 65
1, 156707, Note_off_c, 0, 72, 66
1, 156727, Note_off_c, 0, 84, 62
1, 156804, Note_on_c, 0, 82, 82
1, 156818, Control_c, 0, 64, 96
1, 156818, Note_on_c, 0, 70, 64
1, 156833, Control_c, 0, 64, 96
1, 156848, Control_c, 0, 64, 97
1, 156862, Control_c, 0, 64, 97
1, 156878, Control_c, 0, 64, 98
1, 156893, Control_c, 0, 64, 98
1, 156898, Note_off_c, 0, 70, 58
1, 156907, Note_off_c, 0, 82, 55
1, 156967, Control_c, 0, 64, 97
1, 156980, Note_on_c, 0, 81, 85
1, 156981, Note_on_c, 0, 29, 54
1, 156982, Control_c, 0, 64, 90
1, 156985, Note_on_c, 0, 41, 53
1, 156988, Note_on_c, 0, 69, 73
1, 156997, Control_c, 0, 64, 78
1, 157012, Control_c, 0, 64, 59
1, 157027, Control_c, 0, 64, 0
1, 157108, Control_c, 0, 64, 62
1, 157117, Note_off_c, 0, 29, 58
1, 157123, Control_c, 0, 64, 70
1, 157138, Control_c, 0, 64, 76
1, 157152, Control_c, 0, 64, 82
1, 157154, Note_off_c, 0, 41, 63
1, 157167, Control_c, 0, 64, 85
1, 157182, Control_c, 0, 64, 86
1, 157197, Control_c, 0, 64, 87
1, 157212, Control_c, 0, 64, 89
1, 157227, Control_c, 0, 64, 90
1, 157242, Control_c, 0, 64, 91
1, 157256, Control_c, 0, 64, 92
1, 157286, Control_c, 0, 64, 92
1, 157330, Control_c, 0, 64, 93
1, 157337, Note_off_c, 0, 69, 36
1, 157524, Control_c, 0, 64, 93
1, 157635, Note_on_c, 0, 77, 58
1, 157645, Note_on_c, 0, 73, 51
1, 157647, Note_on_c, 0, 61, 45
1, 157649, Note_on_c, 0, 69, 50
1, 157650, Note_on_c, 0, 65, 49
1, 157656, Note_on_c, 0, 57, 44
1, 157674, Note_off_c, 0, 81, 60
1, 157719, Note_off_c, 0, 69, 59
1, 157739, Note_off_c, 0, 65, 61
1, 157739, Note_off_c, 0, 77, 56
1, 157751, Note_off_c, 0, 61, 59
1, 157817, Note_off_c, 0, 57, 47
1, 157895, Note_off_c, 0, 73, 40
1, 158031, Note_on_c, 0, 80, 72
1, 158046, Note_on_c, 0, 68, 60
1, 158082, Note_off_c, 0, 68, 65
1, 158104, Note_off_c, 0, 80, 63
1, 158191, Note_on_c, 0, 78, 85
1, 158206, Note_on_c, 0, 66, 63
1, 158243, Note_off_c, 0, 78, 63
1, 158279, Note_off_c, 0, 66, 45
1, 158362, Control_c, 0, 64, 93
1, 158374, Control_c, 0, 64, 91
1, 158389, Control_c, 0, 64, 84
1, 158394, Note_on_c, 0, 29, 41
1, 158404, Control_c, 0, 64, 75
1, 158408, Note_on_c, 0, 77, 73
1, 158415, Note_on_c, 0, 41, 43
1, 158419, Control_c, 0, 64, 62
1, 158427, Note_on_c, 0, 65, 58
1, 158434, Control_c, 0, 64, 0
1, 158545, Control_c, 0, 64, 42
1, 158560, Control_c, 0, 64, 67
1, 158574, Control_c, 0, 64, 73
1, 158588, Note_off_c, 0, 29, 54
1, 158589, Control_c, 0, 64, 80
1, 158604, Control_c, 0, 64, 84
1, 158619, Control_c, 0, 64, 86
1, 158634, Note_off_c, 0, 41, 53
1, 158634, Control_c, 0, 64, 86
1, 158648, Control_c, 0, 64, 87
1, 158663, Control_c, 0, 64, 88
1, 158678, Control_c, 0, 64, 88
1, 158693, Control_c, 0, 64, 89
1, 158708, Control_c, 0, 64, 89
1, 158723, Control_c, 0, 64, 90
1, 158744, Note_off_c, 0, 65, 38
1, 159055, Note_on_c, 0, 61, 44
1, 159056, Note_on_c, 0, 70, 49
1, 159057, Note_on_c, 0, 58, 44
1, 159058, Note_on_c, 0, 73, 51
1, 159070, Note_on_c, 0, 65, 32
1, 159071, Note_on_c, 0, 53, 38
1, 159078, Control_c, 0, 64, 90
1, 159082, Note_off_c, 0, 70, 58
1, 159093, Control_c, 0, 64, 91
1, 159107, Note_off_c, 0, 73, 56
1, 159108, Control_c, 0, 64, 92
1, 159124, Control_c, 0, 64, 93
1, 159128, Note_off_c, 0, 53, 59
1, 159129, Note_off_c, 0, 61, 46
1, 159138, Control_c, 0, 64, 94
1, 159143, Note_off_c, 0, 65, 42
1, 159151, Note_off_c, 0, 58, 49
1, 159153, Control_c, 0, 64, 96
1, 159168, Control_c, 0, 64, 96
1, 159183, Control_c, 0, 64, 97
1, 159197, Control_c, 0, 64, 97
1, 159242, Control_c, 0, 64, 98
1, 159294, Control_c, 0, 64, 98
1, 159506, Note_on_c, 0, 58, 47
1, 159508, Note_on_c, 0, 61, 52
1, 159519, Note_on_c, 0, 70, 55
1, 159520, Note_on_c, 0, 73, 56
1, 159531, Note_on_c, 0, 53, 36
1, 159547, Note_on_c, 0, 65, 12
1, 159555, Note_off_c, 0, 61, 55
1, 159558, Note_off_c, 0, 73, 59
1, 159561, Note_off_c, 0, 53, 56
1, 159563, Note_off_c, 0, 58, 50
1, 159563, Note_off_c, 0, 70, 57
1, 159594, Note_off_c, 0, 65, 53
1, 159654, Note_on_c, 0, 73, 63
1, 159664, Note_on_c, 0, 58, 31
1, 159671, Note_on_c, 0, 53, 39
1, 159680, Note_on_c, 0, 70, 45
1, 159681, Note_on_c, 0, 61, 49
1, 159701, Note_off_c, 0, 77, 59
1, 159767, Note_off_c, 0, 70, 33
1, 159769, Poly_aftertouch_c, 0, 65, 0
1, 159863, Note_off_c, 0, 73, 34
1, 159951, Note_on_c, 0, 78, 83
1, 159965, Note_on_c, 0, 66, 63
1, 160005, Note_off_c, 0, 61, 50
1, 160009, Note_off_c, 0, 66, 56
1, 160047, Note_off_c, 0, 53, 42
1, 160067, Note_off_c, 0, 58, 35
1, 160266, Control_c, 0, 64, 96
1, 160267, Note_on_c, 0, 81, 88
1, 160279, Note_on_c, 0, 69, 63
1, 160281, Control_c, 0, 64, 88
1, 160295, Control_c, 0, 64, 74
1, 160300, Note_off_c, 0, 78, 61
1, 160310, Control_c, 0, 64, 0
1, 160384, Control_c, 0, 64, 64
1, 160399, Control_c, 0, 64, 74
1, 160413, Control_c, 0, 64, 81
1, 160428, Control_c, 0, 64, 87
1, 160443, Control_c, 0, 64, 88
1, 160452, Note_off_c, 0, 69, 62
1, 160456, Note_off_c, 0, 81, 62
1, 160458, Control_c, 0, 64, 89
1, 160488, Control_c, 0, 64, 90
1, 160503, Control_c, 0, 64, 91
1, 160518, Control_c, 0, 64, 92
1, 160532, Control_c, 0, 64, 93
1, 160547, Control_c, 0, 64, 93
1, 160577, Control_c, 0, 64, 94
1, 160592, Control_c, 0, 64, 94
1, 160607, Control_c, 0, 64, 95
1, 160636, Control_c, 0, 64, 95
1, 160666, Control_c, 0, 64, 96
1, 160681, Control_c, 0, 64, 96
1, 160704, Note_on_c, 0, 82, 84
1, 160712, Note_on_c, 0, 70, 68
1, 160737, Note_off_c, 0, 70, 61
1, 160848, Note_on_c, 0, 29, 59
1, 160851, Control_c, 0, 64, 93
1, 160866, Control_c, 0, 64, 83
1, 160869, Note_on_c, 0, 41, 59
1, 160877, Note_off_c, 0, 82, 62
1, 160881, Control_c, 0, 64, 65
1, 160896, Control_c, 0, 64, 0
1, 160907, Note_on_c, 0, 85, 86
1, 160932, Note_on_c, 0, 73, 52
1, 160980, Note_off_c, 0, 29, 57
1, 160985, Control_c, 0, 64, 66
1, 161000, Control_c, 0, 64, 73
1, 161015, Control_c, 0, 64, 80
1, 161023, Note_off_c, 0, 41, 65
1, 161030, Control_c, 0, 64, 86
1, 161044, Control_c, 0, 64, 89
1, 161050, Note_off_c, 0, 73, 59
1, 161059, Control_c, 0, 64, 91
1, 161074, Control_c, 0, 64, 93
1, 161089, Control_c, 0, 64, 94
1, 161100, Note_off_c, 0, 85, 60
1, 161104, Control_c, 0, 64, 95
1, 161118, Control_c, 0, 64, 96
1, 161133, Control_c, 0, 64, 98
1, 161148, Control_c, 0, 64, 98
1, 161162, Control_c, 0, 64, 100
1, 161177, Control_c, 0, 64, 100
1, 161192, Control_c, 0, 64, 101
1, 161222, Control_c, 0, 64, 101
1, 161251, Control_c, 0, 64, 102
1, 161296, Control_c, 0, 64, 102
1, 161325, Control_c, 0, 64, 103
1, 161355, Control_c, 0, 64, 103
1, 161384, Control_c, 0, 64, 104
1, 161472, Note_on_c, 0, 70, 68
1, 161479, Note_on_c, 0, 82, 69
1, 161480, Note_on_c, 0, 65, 58
1, 161486, Note_on_c, 0, 73, 58
1, 161491, Note_on_c, 0, 61, 51
1, 161495, Note_on_c, 0, 77, 54
1, 161522, Note_off_c, 0, 77, 57
1, 161525, Note_off_c, 0, 65, 61
1, 161525, Note_off_c, 0, 70, 56
1, 161543, Note_off_c, 0, 61, 58
1, 161552, Note_off_c, 0, 73, 55
1, 161695, Note_off_c, 0, 82, 20
1, 161770, Note_on_c, 0, 84, 78
1, 161775, Note_on_c, 0, 72, 68
1, 161806, Note_off_c, 0, 72, 66
1, 161827, Note_off_c, 0, 84, 63
1, 161896, Control_c, 0, 64, 104
1, 161915, Note_on_c, 0, 82, 71
1, 161923, Note_on_c, 0, 70, 65
1, 161925, Control_c, 0, 64, 105
1, 161970, Control_c, 0, 64, 105
1, 162029, Note_off_c, 0, 70, 62
1, 162036, Note_off_c, 0, 82, 57
1, 162096, Note_on_c, 0, 29, 58
1, 162101, Note_on_c, 0, 41, 61
1, 162103, Control_c, 0, 64, 102
1, 162118, Control_c, 0, 64, 90
1, 162121, Note_on_c, 0, 81, 86
1, 162127, Note_on_c, 0, 69, 74
1, 162133, Control_c, 0, 64, 74
1, 162148, Control_c, 0, 64, 0
1, 162222, Control_c, 0, 64, 63
1, 162229, Note_off_c, 0, 29, 63
1, 162237, Control_c, 0, 64, 72
1, 162252, Control_c, 0, 64, 81
1, 162266, Control_c, 0, 64, 89
1, 162268, Note_off_c, 0, 41, 65
1, 162288, Control_c, 0, 64, 91
1, 162303, Control_c, 0, 64, 92
1, 162319, Control_c, 0, 64, 93
1, 162334, Control_c, 0, 64, 94
1, 162349, Control_c, 0, 64, 96
1, 162363, Control_c, 0, 64, 98
1, 162378, Control_c, 0, 64, 98
1, 162393, Control_c, 0, 64, 99
1, 162422, Control_c, 0, 64, 100
1, 162437, Control_c, 0, 64, 100
1, 162447, Note_off_c, 0, 69, 35
1, 162452, Control_c, 0, 64, 101
1, 162467, Control_c, 0, 64, 101
1, 162482, Control_c, 0, 64, 102
1, 162541, Control_c, 0, 64, 102
1, 162571, Control_c, 0, 64, 103
1, 162645, Control_c, 0, 64, 103
1, 162762, Note_on_c, 0, 77, 58
1, 162770, Note_on_c, 0, 61, 47
1, 162771, Note_on_c, 0, 65, 47
1, 162777, Note_off_c, 0, 81, 59
1, 162784, Note_on_c, 0, 73, 38
1, 162785, Note_on_c, 0, 57, 39
1, 162792, Note_on_c, 0, 69, 40
1, 162833, Note_off_c, 0, 69, 51
1, 162871, Note_off_c, 0, 65, 58
1, 162880, Note_off_c, 0, 77, 52
1, 162901, Note_off_c, 0, 61, 61
1, 162944, Note_off_c, 0, 57, 31
1, 163036, Note_off_c, 0, 73, 37
1, 163222, Note_on_c, 0, 80, 59
1, 163236, Note_on_c, 0, 68, 44
1, 163277, Note_off_c, 0, 68, 49
1, 163290, Note_off_c, 0, 80, 62
1, 163376, Note_on_c, 0, 78, 72
1, 163388, Note_on_c, 0, 66, 59
1, 163464, Note_off_c, 0, 66, 64
1, 163489, Note_off_c, 0, 78, 41
1, 163527, Control_c, 0, 64, 102
1, 163542, Control_c, 0, 64, 98
1, 163556, Control_c, 0, 64, 88
1, 163561, Note_on_c, 0, 77, 70
1, 163569, Note_on_c, 0, 65, 54
1, 163571, Control_c, 0, 64, 73
1, 163572, Note_on_c, 0, 29, 39
1, 163585, Note_on_c, 0, 41, 34
1, 163586, Control_c, 0, 64, 0
1, 163676, Control_c, 0, 64, 60
1, 163691, Control_c, 0, 64, 69
1, 163705, Control_c, 0, 64, 75
1, 163720, Control_c, 0, 64, 82
1, 163722, Note_off_c, 0, 29, 53
1, 163735, Control_c, 0, 64, 88
1, 163750, Control_c, 0, 64, 90
1, 163764, Control_c, 0, 64, 91
1, 163787, Control_c, 0, 64, 92
1, 163789, Note_off_c, 0, 41, 40
1, 163802, Control_c, 0, 64, 93
1, 163817, Control_c, 0, 64, 94
1, 163832, Control_c, 0, 64, 95
1, 163846, Control_c, 0, 64, 95
1, 163876, Control_c, 0, 64, 96
1, 163889, Note_off_c, 0, 65, 41
1, 164230, Note_on_c, 0, 58, 38
1, 164231, Note_on_c, 0, 61, 31
1, 164236, Note_on_c, 0, 73, 42
1, 164244, Note_on_c, 0, 70, 40
1, 164256, Note_on_c, 0, 65, 35
1, 164256, Note_on_c, 0, 53, 27
1, 164283, Note_off_c, 0, 70, 47
1, 164288, Note_off_c, 0, 73, 57
1, 164298, Note_off_c, 0, 65, 49
1, 164306, Note_off_c, 0, 53, 46
1, 164314, Note_off_c, 0, 58, 44
1, 164337, Note_off_c, 0, 61, 53
1, 164700, Note_on_c, 0, 58, 42
1, 164705, Note_on_c, 0, 61, 41
1, 164712, Note_on_c, 0, 73, 51
1, 164718, Note_on_c, 0, 70, 44
1, 164724, Note_on_c, 0, 53, 28
1, 164733, Note_on_c, 0, 65, 21
1, 164753, Note_off_c, 0, 58, 56
1, 164753, Note_off_c, 0, 70, 49
1, 164755, Note_off_c, 0, 73, 60
1, 164760, Note_off_c, 0, 61, 54
1, 164765, Note_off_c, 0, 53, 51
1, 164769, Note_off_c, 0, 65, 50
1, 164870, Note_on_c, 0, 73, 55
1, 164875, Note_on_c, 0, 65, 47
1, 164879, Note_on_c, 0, 70, 40
1, 164893, Note_on_c, 0, 61, 47
1, 164897, Note_on_c, 0, 58, 42
1, 164909, Note_on_c, 0, 53, 33
1, 164918, Note_off_c, 0, 70, 52
1, 164929, Note_off_c, 0, 65, 61
1, 164942, Note_off_c, 0, 73, 60
1, 164959, Note_off_c, 0, 77, 59
1, 165176, Note_off_c, 0, 61, 38
1, 165179, Note_on_c, 0, 81, 75
1, 165191, Note_on_c, 0, 69, 53
1, 165240, Note_off_c, 0, 69, 60
1, 165283, Note_off_c, 0, 81, 60
1, 165308, Note_off_c, 0, 53, 42
1, 165344, Note_off_c, 0, 58, 24
1, 165476, Control_c, 0, 64, 95
1, 165491, Control_c, 0, 64, 90
1, 165496, Note_on_c, 0, 82, 80
1, 165507, Control_c, 0, 64, 79
1, 165509, Note_on_c, 0, 70, 58
1, 165522, Control_c, 0, 64, 64
1, 165537, Control_c, 0, 64, 0
1, 165596, Control_c, 0, 64, 64
1, 165611, Control_c, 0, 64, 73
1, 165626, Control_c, 0, 64, 81
1, 165640, Control_c, 0, 64, 87
1, 165655, Control_c, 0, 64, 89
1, 165667, Note_off_c, 0, 70, 63
1, 165729, Control_c, 0, 64, 90
1, 165812, Note_off_c, 0, 82, 40
1, 165821, Note_on_c, 0, 84, 76
1, 165832, Control_c, 0, 64, 89
1, 165840, Note_on_c, 0, 72, 54
1, 165847, Control_c, 0, 64, 83
1, 165862, Control_c, 0, 64, 72
1, 165877, Control_c, 0, 64, 39
1, 165892, Control_c, 0, 64, 0
1, 165937, Control_c, 0, 64, 37
1, 165951, Control_c, 0, 64, 67
1, 165966, Control_c, 0, 64, 73
1, 165981, Control_c, 0, 64, 78
1, 165996, Control_c, 0, 64, 79
1, 166011, Control_c, 0, 64, 80
1, 166031, Note_off_c, 0, 72, 64
1, 166032, Control_c, 0, 64, 80
1, 166047, Control_c, 0, 64, 81
1, 166062, Control_c, 0, 64, 82
1, 166077, Control_c, 0, 64, 83
1, 166092, Control_c, 0, 64, 84
1, 166107, Control_c, 0, 64, 84
1, 166137, Control_c, 0, 64, 85
1, 166216, Note_off_c, 0, 84, 63
1, 166225, Control_c, 0, 64, 84
1, 166226, Note_on_c, 0, 85, 78
1, 166238, Note_on_c, 0, 73, 59
1, 166240, Control_c, 0, 64, 79
1, 166255, Control_c, 0, 64, 70
1, 166262, Note_on_c, 0, 37, 33
1, 166270, Control_c, 0, 64, 34
1, 166283, Note_on_c, 0, 49, 19
1, 166284, Control_c, 0, 64, 0
1, 166360, Control_c, 0, 64, 45
1, 166374, Control_c, 0, 64, 67
1, 166389, Control_c, 0, 64, 74
1, 166404, Control_c, 0, 64, 80
1, 166408, Note_off_c, 0, 37, 57
1, 166419, Control_c, 0, 64, 83
1, 166434, Control_c, 0, 64, 84
1, 166474, Note_off_c, 0, 49, 39
1, 166478, Control_c, 0, 64, 85
1, 166493, Control_c, 0, 64, 86
1, 166508, Control_c, 0, 64, 87
1, 166522, Control_c, 0, 64, 88
1, 166537, Control_c, 0, 64, 88
1, 166878, Note_on_c, 0, 81, 52
1, 166884, Note_on_c, 0, 78, 42
1, 166892, Note_on_c, 0, 61, 40
1, 166897, Note_on_c, 0, 66, 32
1, 166897, Note_on_c, 0, 69, 38
1, 166923, Note_on_c, 0, 57, 23
1, 166934, Note_off_c, 0, 78, 43
1, 166941, Note_off_c, 0, 66, 48
1, 166943, Note_off_c, 0, 69, 48
1, 166948, Note_off_c, 0, 73, 56
1, 166969, Note_off_c, 0, 81, 49
1, 167048, Note_off_c, 0, 85, 56
1, 167072, Note_off_c, 0, 61, 37
1, 167085, Note_off_c, 0, 57, 41
1, 167465, Control_c, 0, 64, 87
1, 167479, Control_c, 0, 64, 81
1, 167481, Note_on_c, 0, 49, 47
1, 167484, Note_on_c, 0, 37, 43
1, 167487, Note_on_c, 0, 86, 86
1, 167494, Control_c, 0, 64, 70
1, 167495, Note_on_c, 0, 74, 66
1, 167509, Control_c, 0, 64, 0
1, 167560, Note_off_c, 0, 74, 0
1, 167560, Note_on_c, 0, 74, 14
1, 167596, Note_off_c, 0, 37, 62
1, 167605, Control_c, 0, 64, 62
1, 167620, Control_c, 0, 64, 70
1, 167635, Control_c, 0, 64, 76
1, 167650, Control_c, 0, 64, 84
1, 167655, Note_off_c, 0, 86, 64
1, 167665, Control_c, 0, 64, 88
1, 167677, Note_off_c, 0, 49, 58
1, 167679, Control_c, 0, 64, 89
1, 167709, Note_off_c, 0, 74, 55
1, 167768, Control_c, 0, 64, 90
1, 167783, Control_c, 0, 64, 91
1, 167827, Control_c, 0, 64, 91
1, 168111, Note_on_c, 0, 80, 70
1, 168114, Note_on_c, 0, 68, 48
1, 168118, Note_on_c, 0, 59, 49
1, 168122, Note_on_c, 0, 77, 55
1, 168127, Note_on_c, 0, 56, 47
1, 168128, Note_on_c, 0, 65, 48
1, 168155, Note_off_c, 0, 68, 50
1, 168168, Note_off_c, 0, 56, 55
1, 168184, Note_off_c, 0, 65, 52
1, 168196, Note_off_c, 0, 59, 58
1, 168211, Note_off_c, 0, 77, 54
1, 168229, Note_off_c, 0, 80, 60
1, 168480, Note_on_c, 0, 85, 71
1, 168492, Note_on_c, 0, 73, 50
1, 168639, Note_off_c, 0, 85, 54
1, 168643, Note_off_c, 0, 73, 39
1, 168858, Control_c, 0, 64, 91
1, 168873, Control_c, 0, 64, 90
1, 168888, Control_c, 0, 64, 89
1, 168894, Note_on_c, 0, 37, 29
1, 168903, Control_c, 0, 64, 88
1, 168912, Note_on_c, 0, 49, 33
1, 168918, Control_c, 0, 64, 86
1, 168924, Note_on_c, 0, 85, 63
1, 168933, Control_c, 0, 64, 84
1, 168941, Note_on_c, 0, 73, 48
1, 168948, Control_c, 0, 64, 82
1, 168962, Control_c, 0, 64, 77
1, 168977, Control_c, 0, 64, 70
1, 168992, Control_c, 0, 64, 48
1, 169007, Control_c, 0, 64, 0
1, 169088, Control_c, 0, 64, 63
1, 169103, Control_c, 0, 64, 70
1, 169117, Control_c, 0, 64, 76
1, 169127, Note_off_c, 0, 37, 58
1, 169132, Control_c, 0, 64, 80
1, 169147, Control_c, 0, 64, 82
1, 169162, Control_c, 0, 64, 83
1, 169177, Control_c, 0, 64, 84
1, 169192, Control_c, 0, 64, 84
1, 169207, Control_c, 0, 64, 85
1, 169208, Note_off_c, 0, 49, 40
1, 169222, Control_c, 0, 64, 86
1, 169251, Control_c, 0, 64, 86
1, 169266, Control_c, 0, 64, 87
1, 169295, Control_c, 0, 64, 87
1, 169370, Control_c, 0, 64, 88
1, 169458, Control_c, 0, 64, 88
1, 169548, Control_c, 0, 64, 89
1, 169607, Control_c, 0, 64, 89
1, 169764, Note_on_c, 0, 66, 35
1, 169765, Note_on_c, 0, 61, 36
1, 169767, Note_on_c, 0, 78, 34
1, 169777, Note_on_c, 0, 81, 42
1, 169778, Note_on_c, 0, 57, 37
1, 169784, Note_on_c, 0, 69, 36
1, 169793, Control_c, 0, 64, 90
1, 169848, Note_off_c, 0, 78, 37
1, 169852, Control_c, 0, 64, 90
1, 169856, Note_off_c, 0, 81, 48
1, 169888, Note_off_c, 0, 73, 42
1, 169897, Note_off_c, 0, 85, 63
1, 170232, Note_on_c, 0, 77, 47
1, 170239, Note_on_c, 0, 89, 59
1, 170262, Note_off_c, 0, 69, 37
1, 170379, Note_off_c, 0, 77, 57
1, 170438, Note_off_c, 0, 66, 43
1, 170449, Note_off_c, 0, 57, 39
1, 170488, Note_off_c, 0, 89, 60
1, 170527, Note_off_c, 0, 61, 35
1, 170557, Note_on_c, 0, 90, 80
1, 170570, Note_on_c, 0, 78, 66
1, 170630, Control_c, 0, 64, 90
1, 170751, Note_off_c, 0, 78, 60
1, 170778, Control_c, 0, 64, 89
1, 170800, Note_off_c, 0, 90, 63
1, 170822, Control_c, 0, 64, 89
1, 170837, Control_c, 0, 64, 88
1, 170839, Note_on_c, 0, 91, 88
1, 170847, Note_on_c, 0, 79, 77
1, 170852, Control_c, 0, 64, 86
1, 170867, Control_c, 0, 64, 85
1, 170909, Note_off_c, 0, 79, 62
1, 170978, Note_off_c, 0, 91, 61
1, 171091, Control_c, 0, 64, 84
1, 171105, Control_c, 0, 64, 80
1, 171114, Note_on_c, 0, 92, 92
1, 171119, Control_c, 0, 64, 68
1, 171121, Note_on_c, 0, 80, 72
1, 171134, Control_c, 0, 64, 0
1, 171208, Control_c, 0, 64, 63
1, 171223, Control_c, 0, 64, 69
1, 171238, Control_c, 0, 64, 72
1, 171252, Control_c, 0, 64, 75
1, 171275, Control_c, 0, 64, 76
1, 171290, Control_c, 0, 64, 77
1, 171316, Note_off_c, 0, 80, 63
1, 171319, Control_c, 0, 64, 77
1, 171334, Control_c, 0, 64, 78
1, 171349, Control_c, 0, 64, 78
1, 171364, Control_c, 0, 64, 79
1, 171378, Control_c, 0, 64, 79
1, 171384, Note_off_c, 0, 92, 63
1, 171425, Note_on_c, 0, 93, 93
1, 171433, Note_on_c, 0, 81, 77
1, 171531, Note_off_c, 0, 93, 63
1, 171562, Note_off_c, 0, 81, 29
1, 171571, Control_c, 0, 64, 80
1, 171601, Control_c, 0, 64, 80
1, 171615, Control_c, 0, 64, 81
1, 171630, Control_c, 0, 64, 81
1, 171675, Control_c, 0, 64, 82
1, 171719, Control_c, 0, 64, 82
1, 171797, Note_on_c, 0, 37, 42
1, 171808, Control_c, 0, 64, 81
1, 171823, Control_c, 0, 64, 76
1, 171826, Note_on_c, 0, 49, 42
1, 171830, Note_on_c, 0, 85, 84
1, 171837, Control_c, 0, 64, 66
1, 171840, Note_on_c, 0, 73, 69
1, 171851, Control_c, 0, 64, 0
1, 171941, Control_c, 0, 64, 64
1, 171942, Note_off_c, 0, 37, 60
1, 171956, Control_c, 0, 64, 70
1, 171971, Control_c, 0, 64, 75
1, 171983, Note_off_c, 0, 49, 58
1, 171986, Control_c, 0, 64, 78
1, 172000, Control_c, 0, 64, 79
1, 172023, Control_c, 0, 64, 80
1, 172038, Control_c, 0, 64, 81
1, 172053, Control_c, 0, 64, 82
1, 172068, Control_c, 0, 64, 83
1, 172082, Control_c, 0, 64, 85
1, 172097, Control_c, 0, 64, 86
1, 172112, Control_c, 0, 64, 87
1, 172126, Control_c, 0, 64, 88
1, 172141, Control_c, 0, 64, 88
1, 172156, Control_c, 0, 64, 89
1, 172171, Control_c, 0, 64, 89
1, 172186, Control_c, 0, 64, 90
1, 172200, Control_c, 0, 64, 90
1, 172230, Control_c, 0, 64, 91
1, 172245, Control_c, 0, 64, 91
1, 172274, Control_c, 0, 64, 92
1, 172319, Control_c, 0, 64, 92
1, 172454, Note_on_c, 0, 61, 58
1, 172456, Note_on_c, 0, 66, 59
1, 172457, Note_on_c, 0, 81, 67
1, 172459, Note_on_c, 0, 69, 49
1, 172459, Note_on_c, 0, 78, 63
1, 172465, Note_on_c, 0, 57, 48
1, 172482, Control_c, 0, 64, 93
1, 172497, Control_c, 0, 64, 93
1, 172507, Note_off_c, 0, 69, 56
1, 172512, Control_c, 0, 64, 94
1, 172526, Control_c, 0, 64, 95
1, 172543, Note_off_c, 0, 78, 54
1, 172545, Note_off_c, 0, 66, 64
1, 172552, Note_off_c, 0, 81, 58
1, 172556, Control_c, 0, 64, 95
1, 172577, Note_off_c, 0, 57, 54
1, 172596, Note_off_c, 0, 61, 62
1, 172626, Note_off_c, 0, 73, 54
1, 172658, Note_off_c, 0, 85, 53
1, 172772, Control_c, 0, 67, 101
1, 172787, Control_c, 0, 67, 58
1, 172802, Control_c, 0, 67, 0
1, 172861, Control_c, 0, 64, 96
1, 172890, Control_c, 0, 64, 96
1, 172964, Control_c, 0, 64, 97
1, 173081, Note_on_c, 0, 86, 94
1, 173082, Control_c, 0, 64, 95
1, 173086, Note_on_c, 0, 74, 78
1, 173093, Note_on_c, 0, 37, 56
1, 173095, Note_on_c, 0, 49, 55
1, 173097, Control_c, 0, 64, 87
1, 173112, Control_c, 0, 64, 70
1, 173127, Control_c, 0, 64, 0
1, 173213, Note_off_c, 0, 37, 65
1, 173216, Control_c, 0, 64, 65
1, 173231, Control_c, 0, 64, 74
1, 173246, Note_off_c, 0, 86, 62
1, 173246, Control_c, 0, 64, 83
1, 173261, Control_c, 0, 64, 91
1, 173262, Note_off_c, 0, 49, 57
1, 173275, Control_c, 0, 64, 93
1, 173290, Control_c, 0, 64, 94
1, 173320, Control_c, 0, 64, 95
1, 173321, Note_off_c, 0, 74, 60
1, 173335, Control_c, 0, 64, 96
1, 173350, Control_c, 0, 64, 97
1, 173365, Control_c, 0, 64, 98
1, 173380, Control_c, 0, 64, 98
1, 173395, Control_c, 0, 64, 99
1, 173410, Control_c, 0, 64, 99
1, 173439, Control_c, 0, 64, 100
1, 173499, Control_c, 0, 64, 100
1, 173521, Control_c, 0, 64, 101
1, 173551, Control_c, 0, 64, 101
1, 173580, Control_c, 0, 64, 102
1, 173610, Control_c, 0, 64, 102
1, 173625, Control_c, 0, 64, 103
1, 173640, Control_c, 0, 64, 103
1, 173654, Control_c, 0, 64, 104
1, 173669, Control_c, 0, 64, 104
1, 173699, Control_c, 0, 64, 105
1, 173759, Control_c, 0, 64, 105
1, 173764, Note_on_c, 0, 80, 89
1, 173773, Note_on_c, 0, 68, 67
1, 173775, Note_on_c, 0, 59, 52
1, 173780, Note_on_c, 0, 77, 66
1, 173785, Note_on_c, 0, 65, 53
1, 173786, Note_on_c, 0, 56, 47
1, 173803, Control_c, 0, 64, 106
1, 173818, Note_off_c, 0, 56, 64
1, 173822, Note_off_c, 0, 65, 66
1, 173830, Note_off_c, 0, 68, 62
1, 173839, Note_off_c, 0, 59, 62
1, 173859, Note_off_c, 0, 77, 59
1, 173862, Control_c, 0, 64, 106
1, 173906, Control_c, 0, 64, 107
1, 173926, Note_off_c, 0, 80, 61
1, 173995, Control_c, 0, 64, 107
1, 174039, Control_c, 0, 64, 108
1, 174220, Note_on_c, 0, 85, 74
1, 174236, Note_on_c, 0, 73, 52
1, 174269, Control_c, 0, 64, 108
1, 174358, Note_off_c, 0, 85, 56
1, 174368, Note_off_c, 0, 73, 32
1, 174507, Control_c, 0, 64, 105
1, 174510, Note_on_c, 0, 85, 71
1, 174522, Control_c, 0, 64, 96
1, 174523, Note_on_c, 0, 37, 38
1, 174526, Note_on_c, 0, 73, 47
1, 174530, Note_on_c, 0, 49, 39
1, 174537, Control_c, 0, 64, 82
1, 174552, Control_c, 0, 64, 65
1, 174567, Control_c, 0, 64, 0
1, 174583, Note_off_c, 0, 73, 0
1, 174583, Note_on_c, 0, 73, 9
1, 174626, Control_c, 0, 64, 63
1, 174641, Control_c, 0, 64, 72
1, 174656, Control_c, 0, 64, 82
1, 174659, Note_off_c, 0, 37, 57
1, 174670, Control_c, 0, 64, 89
1, 174685, Control_c, 0, 64, 90
1, 174700, Control_c, 0, 64, 91
1, 174714, Control_c, 0, 64, 92
1, 174727, Note_off_c, 0, 49, 39
1, 174729, Control_c, 0, 64, 93
1, 174744, Control_c, 0, 64, 95
1, 174759, Control_c, 0, 64, 95
1, 174774, Control_c, 0, 64, 96
1, 174788, Control_c, 0, 64, 96
1, 174803, Control_c, 0, 64, 97
1, 174833, Control_c, 0, 64, 97
1, 174848, Control_c, 0, 67, 9
1, 174862, Control_c, 0, 67, 19
1, 174877, Control_c, 0, 67, 35
1, 174892, Control_c, 0, 67, 55
1, 174906, Control_c, 0, 67, 75
1, 174921, Control_c, 0, 67, 98
1, 174936, Control_c, 0, 67, 122
1, 174951, Control_c, 0, 67, 127
1, 175205, Note_on_c, 0, 78, 50
1, 175206, Note_on_c, 0, 66, 38
1, 175207, Note_on_c, 0, 81, 49
1, 175210, Note_on_c, 0, 69, 44
1, 175222, Note_on_c, 0, 61, 47
1, 175224, Note_on_c, 0, 57, 40
1, 175237, Note_off_c, 0, 73, 54
1, 175266, Note_off_c, 0, 78, 48
1, 175294, Note_off_c, 0, 81, 58
1, 175331, Note_off_c, 0, 85, 48
1, 175602, Note_on_c, 0, 89, 65
1, 175616, Note_on_c, 0, 77, 39
1, 175707, Note_off_c, 0, 77, 38
1, 175771, Note_off_c, 0, 69, 35
1, 175857, Note_off_c, 0, 89, 36
1, 175896, Note_on_c, 0, 90, 79
1, 175902, Note_off_c, 0, 57, 41
1, 175905, Note_on_c, 0, 78, 62
1, 175956, Note_off_c, 0, 66, 42
1, 175987, Note_off_c, 0, 61, 49
1, 176044, Note_off_c, 0, 78, 47
1, 176102, Note_off_c, 0, 90, 60
1, 176108, Control_c, 0, 67, 123
1, 176123, Control_c, 0, 67, 107
1, 176137, Control_c, 0, 67, 87
1, 176152, Control_c, 0, 67, 68
1, 176159, Note_on_c, 0, 91, 87
1, 176167, Control_c, 0, 67, 47
1, 176167, Note_on_c, 0, 79, 69
1, 176182, Control_c, 0, 67, 26
1, 176197, Control_c, 0, 67, 8
1, 176205, Note_off_c, 0, 79, 60
1, 176212, Control_c, 0, 67, 0
1, 176247, Note_off_c, 0, 91, 59
1, 176405, Control_c, 0, 64, 94
1, 176413, Note_on_c, 0, 92, 92
1, 176418, Note_on_c, 0, 80, 75
1, 176420, Control_c, 0, 64, 83
1, 176434, Control_c, 0, 64, 67
1, 176449, Control_c, 0, 64, 0
1, 176516, Control_c, 0, 64, 64
1, 176531, Control_c, 0, 64, 73
1, 176546, Control_c, 0, 64, 80
1, 176561, Control_c, 0, 64, 86
1, 176573, Note_off_c, 0, 80, 62
1, 176575, Control_c, 0, 64, 86
1, 176626, Note_off_c, 0, 92, 63
1, 176634, Control_c, 0, 64, 87
1, 176649, Control_c, 0, 64, 87
1, 176664, Control_c, 0, 64, 88
1, 176679, Control_c, 0, 64, 88
1, 176688, Note_on_c, 0, 93, 99
1, 176693, Note_on_c, 0, 81, 88
1, 176695, Control_c, 0, 64, 89
1, 176709, Control_c, 0, 64, 89
1, 176724, Control_c, 0, 64, 90
1, 176739, Control_c, 0, 64, 92
1, 176754, Control_c, 0, 64, 94
1, 176769, Control_c, 0, 64, 96
1, 176784, Control_c, 0, 64, 97
1, 176798, Control_c, 0, 64, 98
1, 176810, Note_off_c, 0, 81, 52
1, 176813, Control_c, 0, 64, 99
1, 176828, Note_off_c, 0, 93, 55
1, 176828, Control_c, 0, 64, 99
1, 176858, Control_c, 0, 64, 100
1, 176872, Control_c, 0, 64, 100
1, 176902, Control_c, 0, 64, 101
1, 176976, Note_on_c, 0, 36, 63
1, 176976, Control_c, 0, 64, 96
1, 176981, Note_on_c, 0, 93, 99
1, 176984, Note_on_c, 0, 81, 90
1, 176985, Note_on_c, 0, 48, 66
1, 176990, Control_c, 0, 64, 85
1, 177005, Control_c, 0, 64, 70
1, 177020, Control_c, 0, 64, 0
1, 177079, Control_c, 0, 64, 63
1, 177080, Note_off_c, 0, 36, 64
1, 177094, Control_c, 0, 64, 72
1, 177109, Control_c, 0, 64, 80
1, 177124, Control_c, 0, 64, 86
1, 177128, Note_off_c, 0, 48, 65
1, 177139, Control_c, 0, 64, 88
1, 177169, Control_c, 0, 64, 89
1, 177183, Control_c, 0, 64, 90
1, 177198, Control_c, 0, 64, 92
1, 177213, Control_c, 0, 64, 94
1, 177228, Control_c, 0, 64, 97
1, 177242, Control_c, 0, 64, 98
1, 177264, Control_c, 0, 64, 99
1, 177279, Control_c, 0, 64, 100
1, 177294, Control_c, 0, 64, 102
1, 177309, Control_c, 0, 64, 103
1, 177324, Control_c, 0, 64, 105
1, 177339, Control_c, 0, 64, 106
1, 177354, Control_c, 0, 64, 107
1, 177369, Control_c, 0, 64, 108
1, 177383, Control_c, 0, 64, 109
1, 177398, Control_c, 0, 64, 109
1, 177413, Control_c, 0, 64, 110
1, 177428, Control_c, 0, 64, 112
1, 177442, Control_c, 0, 64, 113
1, 177457, Control_c, 0, 64, 114
1, 177472, Control_c, 0, 64, 115
1, 177488, Control_c, 0, 64, 117
1, 177503, Control_c, 0, 64, 119
1, 177518, Control_c, 0, 64, 122
1, 177532, Control_c, 0, 64, 127
1, 177543, Note_on_c, 0, 69, 67
1, 177545, Note_on_c, 0, 57, 64
1, 177547, Note_on_c, 0, 63, 64
1, 177549, Note_on_c, 0, 66, 68
1, 177581, Note_off_c, 0, 69, 63
1, 177616, Note_off_c, 0, 57, 60
1, 177616, Note_off_c, 0, 66, 65
1, 177619, Note_off_c, 0, 63, 63
1, 177750, Note_off_c, 0, 81, 57
1, 177757, Note_off_c, 0, 93, 58
1, 178084, Note_on_c, 0, 35, 77
1, 178092, Note_on_c, 0, 47, 86
1, 178098, Note_on_c, 0, 93, 100
1, 178102, Note_on_c, 0, 81, 103
1, 178102, Control_c, 0, 64, 85
1, 178117, Control_c, 0, 64, 39
1, 178132, Control_c, 0, 64, 0
1, 178161, Control_c, 0, 64, 37
1, 178163, Note_off_c, 0, 35, 65
1, 178176, Control_c, 0, 64, 70
1, 178191, Control_c, 0, 64, 87
1, 178206, Control_c, 0, 64, 103
1, 178218, Note_off_c, 0, 47, 63
1, 178221, Control_c, 0, 64, 108
1, 178265, Control_c, 0, 64, 109
1, 178280, Control_c, 0, 64, 110
1, 178296, Control_c, 0, 64, 112
1, 178311, Control_c, 0, 64, 114
1, 178325, Control_c, 0, 64, 115
1, 178340, Control_c, 0, 64, 117
1, 178355, Control_c, 0, 64, 119
1, 178370, Control_c, 0, 64, 121
1, 178385, Control_c, 0, 64, 123
1, 178400, Control_c, 0, 64, 126
1, 178415, Control_c, 0, 64, 127
1, 178594, Note_on_c, 0, 69, 88
1, 178597, Note_on_c, 0, 66, 88
1, 178600, Note_on_c, 0, 57, 60
1, 178614, Note_on_c, 0, 63, 66
1, 178620, Note_on_c, 0, 56, 43
1, 178621, Note_off_c, 0, 56, 127
1, 178624, Note_off_c, 0, 69, 64
1, 178629, Note_off_c, 0, 57, 64
1, 178644, Note_off_c, 0, 63, 67
1, 178647, Note_off_c, 0, 66, 68
1, 178746, Note_off_c, 0, 81, 58
1, 178788, Note_off_c, 0, 93, 59
1, 178950, Note_on_c, 0, 93, 104
1, 178954, Note_on_c, 0, 81, 104
1, 179107, Note_off_c, 0, 81, 56
1, 179108, Note_off_c, 0, 93, 59
1, 179166, Note_on_c, 0, 34, 78
1, 179177, Note_on_c, 0, 46, 87
1, 179219, Note_on_c, 0, 93, 110
1, 179220, Note_on_c, 0, 81, 100
1, 179223, Control_c, 0, 64, 82
1, 179238, Control_c, 0, 64, 0
1, 179282, Control_c, 0, 64, 42
1, 179292, Note_off_c, 0, 34, 64
1, 179297, Control_c, 0, 64, 74
1, 179306, Note_off_c, 0, 81, 62
1, 179311, Control_c, 0, 64, 94
1, 179326, Control_c, 0, 64, 127
1, 179333, Note_off_c, 0, 93, 61
1, 179348, Note_off_c, 0, 46, 63
1, 179491, Note_on_c, 0, 82, 90
1, 179492, Note_on_c, 0, 94, 99
1, 179705, Note_on_c, 0, 70, 90
1, 179709, Note_on_c, 0, 66, 87
1, 179720, Note_on_c, 0, 63, 74
1, 179721, Note_on_c, 0, 58, 66
1, 179739, Note_off_c, 0, 82, 57
1, 179747, Note_off_c, 0, 58, 67
1, 179748, Note_off_c, 0, 70, 62
1, 179749, Note_off_c, 0, 63, 64
1, 179754, Note_off_c, 0, 94, 50
1, 179768, Note_off_c, 0, 66, 65
1, 179925, Note_on_c, 0, 95, 101
1, 179927, Note_on_c, 0, 83, 96
1, 180164, Control_c, 0, 64, 112
1, 180172, Note_on_c, 0, 45, 93
1, 180173, Note_on_c, 0, 33, 85
1, 180179, Control_c, 0, 64, 85
1, 180194, Control_c, 0, 64, 58
1, 180208, Control_c, 0, 64, 0
1, 180260, Control_c, 0, 64, 68
1, 180269, Note_off_c, 0, 33, 65
1, 180275, Control_c, 0, 64, 83
1, 180290, Control_c, 0, 64, 103
1, 180303, Note_off_c, 0, 83, 46
1, 180305, Control_c, 0, 64, 121
1, 180326, Note_off_c, 0, 45, 65
1, 180334, Control_c, 0, 64, 122
1, 180349, Control_c, 0, 64, 124
1, 180364, Control_c, 0, 64, 127
1, 180376, Note_off_c, 0, 95, 64
1, 180432, Note_on_c, 0, 96, 98
1, 180438, Note_on_c, 0, 84, 85
1, 180493, Note_off_c, 0, 84, 64
1, 180527, Note_off_c, 0, 96, 63
1, 180665, Note_on_c, 0, 60, 55
1, 180701, Note_on_c, 0, 63, 69
1, 180716, Note_on_c, 0, 66, 72
1, 180722, Note_on_c, 0, 72, 76
1, 180746, Note_off_c, 0, 60, 61
1, 180748, Note_on_c, 0, 99, 101
1, 180750, Note_on_c, 0, 87, 88
1, 180771, Note_off_c, 0, 63, 66
1, 180773, Note_off_c, 0, 72, 65
1, 180785, Note_off_c, 0, 66, 49
1, 180829, Note_off_c, 0, 99, 70
1, 180835, Note_off_c, 0, 87, 58
1, 181072, Note_on_c, 0, 97, 89
1, 181080, Note_on_c, 0, 85, 73
1, 181155, Note_off_c, 0, 97, 64
1, 181209, Note_off_c, 0, 85, 33
1, 181438, Control_c, 0, 67, 8
1, 181453, Control_c, 0, 67, 13
1, 181468, Control_c, 0, 67, 20
1, 181484, Control_c, 0, 67, 29
1, 181499, Control_c, 0, 67, 39
1, 181513, Control_c, 0, 67, 46
1, 181528, Control_c, 0, 67, 53
1, 181543, Control_c, 0, 67, 59
1, 181558, Control_c, 0, 67, 65
1, 181573, Control_c, 0, 67, 71
1, 181587, Control_c, 0, 67, 77
1, 181601, Note_on_c, 0, 37, 42
1, 181602, Control_c, 0, 67, 82
1, 181617, Control_c, 0, 64, 124
1, 181617, Control_c, 0, 67, 87
1, 181628, Note_on_c, 0, 49, 32
1, 181632, Control_c, 0, 64, 109
1, 181632, Control_c, 0, 67, 90
1, 181647, Control_c, 0, 64, 97
1, 181647, Control_c, 0, 67, 93
1, 181661, Control_c, 0, 64, 84
1, 181661, Control_c, 0, 67, 97
1, 181667, Note_on_c, 0, 95, 73
1, 181676, Control_c, 0, 64, 70
1, 181676, Control_c, 0, 67, 102
1, 181680, Note_on_c, 0, 83, 53
1, 181691, Control_c, 0, 64, 0
1, 181691, Control_c, 0, 67, 108
1, 181706, Control_c, 0, 67, 116
1, 181721, Control_c, 0, 67, 126
1, 181736, Control_c, 0, 67, 127
1, 181831, Control_c, 0, 64, 25
1, 181846, Control_c, 0, 64, 64
1, 181861, Control_c, 0, 64, 70
1, 181876, Control_c, 0, 64, 75
1, 181891, Note_off_c, 0, 37, 57
1, 181891, Control_c, 0, 64, 81
1, 181905, Control_c, 0, 64, 86
1, 181910, Note_off_c, 0, 95, 59
1, 181920, Control_c, 0, 64, 89
1, 181935, Control_c, 0, 64, 91
1, 181950, Control_c, 0, 64, 93
1, 181956, Note_off_c, 0, 83, 44
1, 181965, Control_c, 0, 64, 95
1, 181977, Note_off_c, 0, 49, 40
1, 181980, Control_c, 0, 64, 97
1, 181995, Control_c, 0, 64, 99
1, 182010, Control_c, 0, 64, 101
1, 182025, Control_c, 0, 64, 102
1, 182039, Control_c, 0, 64, 102
1, 182054, Control_c, 0, 64, 103
1, 182069, Control_c, 0, 64, 103
1, 182084, Control_c, 0, 64, 104
1, 182099, Control_c, 0, 64, 105
1, 182113, Control_c, 0, 64, 106
1, 182128, Control_c, 0, 64, 107
1, 182139, Note_on_c, 0, 93, 70
1, 182143, Control_c, 0, 64, 108
1, 182153, Note_on_c, 0, 81, 55
1, 182158, Control_c, 0, 64, 109
1, 182173, Control_c, 0, 64, 110
1, 182187, Control_c, 0, 64, 112
1, 182202, Control_c, 0, 64, 112
1, 182231, Control_c, 0, 64, 113
1, 182246, Control_c, 0, 64, 113
1, 182261, Control_c, 0, 64, 114
1, 182277, Control_c, 0, 64, 115
1, 182307, Control_c, 0, 64, 115
1, 182336, Control_c, 0, 64, 116
1, 182351, Control_c, 0, 64, 116
1, 182366, Control_c, 0, 64, 117
1, 182396, Control_c, 0, 64, 117
1, 182454, Control_c, 0, 64, 118
1, 182585, Note_on_c, 0, 61, 32
1, 182587, Note_on_c, 0, 69, 36
1, 182600, Note_on_c, 0, 73, 26
1, 182622, Note_on_c, 0, 64, 22
1, 182675, Note_off_c, 0, 69, 53
1, 182692, Note_off_c, 0, 81, 48
1, 182726, Note_off_c, 0, 73, 35
1, 182795, Note_off_c, 0, 64, 34
1, 182850, Note_off_c, 0, 61, 34
1, 183196, Note_off_c, 0, 93, 44
1, 183227, Note_on_c, 0, 92, 60
1, 183240, Note_on_c, 0, 80, 53
1, 183491, Control_c, 0, 64, 117
1, 183506, Control_c, 0, 64, 116
1, 183521, Control_c, 0, 64, 115
1, 183536, Control_c, 0, 64, 113
1, 183551, Control_c, 0, 64, 107
1, 183566, Control_c, 0, 64, 97
1, 183571, Note_on_c, 0, 38, 33
1, 183574, Note_on_c, 0, 50, 39
1, 183581, Control_c, 0, 64, 84
1, 183596, Control_c, 0, 64, 68
1, 183611, Control_c, 0, 64, 0
1, 183655, Control_c, 0, 64, 20
1, 183670, Control_c, 0, 64, 66
1, 183684, Control_c, 0, 64, 74
1, 183699, Control_c, 0, 64, 82
1, 183703, Note_off_c, 0, 80, 58
1, 183714, Control_c, 0, 64, 89
1, 183727, Note_off_c, 0, 38, 47
1, 183729, Control_c, 0, 64, 91
1, 183744, Control_c, 0, 64, 93
1, 183758, Control_c, 0, 64, 95
1, 183773, Control_c, 0, 64, 97
1, 183788, Control_c, 0, 64, 99
1, 183790, Note_off_c, 0, 50, 46
1, 183802, Control_c, 0, 64, 101
1, 183817, Control_c, 0, 64, 102
1, 183832, Control_c, 0, 64, 103
1, 183876, Note_off_c, 0, 92, 57
1, 183878, Control_c, 0, 64, 104
1, 183914, Note_on_c, 0, 90, 63
1, 183930, Note_on_c, 0, 78, 48
1, 184056, Note_off_c, 0, 78, 51
1, 184107, Note_off_c, 0, 90, 33
1, 184189, Note_on_c, 0, 56, 29
1, 184210, Note_on_c, 0, 59, 14
1, 184219, Note_on_c, 0, 64, 32
1, 184251, Note_on_c, 0, 68, 44
1, 184272, Note_on_c, 0, 89, 66
1, 184281, Note_on_c, 0, 77, 52
1, 184361, Note_off_c, 0, 89, 58
1, 184368, Note_off_c, 0, 68, 63
1, 184389, Note_off_c, 0, 64, 39
1, 184399, Note_off_c, 0, 77, 36
1, 184468, Note_off_c, 0, 59, 37
1, 184537, Note_off_c, 0, 56, 41
1, 184573, Note_on_c, 0, 88, 76
1, 184586, Note_on_c, 0, 76, 57
1, 184761, Note_off_c, 0, 88, 55
1, 184785, Note_off_c, 0, 76, 34
1, 184930, Control_c, 0, 64, 103
1, 184945, Control_c, 0, 64, 100
1, 184958, Note_on_c, 0, 88, 66
1, 184960, Control_c, 0, 64, 92
1, 184968, Note_on_c, 0, 39, 32
1, 184971, Note_on_c, 0, 76, 50
1, 184975, Control_c, 0, 64, 81
1, 184980, Note_on_c, 0, 51, 30
1, 184990, Control_c, 0, 64, 62
1, 185004, Control_c, 0, 64, 0
1, 185022, Note_off_c, 0, 76, 0
1, 185022, Note_on_c, 0, 76, 9
1, 185078, Control_c, 0, 64, 47
1, 185093, Control_c, 0, 64, 66
1, 185108, Control_c, 0, 64, 72
1, 185122, Control_c, 0, 64, 77
1, 185137, Control_c, 0, 64, 83
1, 185152, Control_c, 0, 64, 86
1, 185164, Note_off_c, 0, 76, 55
1, 185167, Control_c, 0, 64, 88
1, 185182, Control_c, 0, 64, 89
1, 185190, Note_off_c, 0, 39, 39
1, 185196, Control_c, 0, 64, 89
1, 185211, Control_c, 0, 64, 90
1, 185226, Control_c, 0, 64, 90
1, 185244, Note_off_c, 0, 51, 39
1, 185256, Control_c, 0, 64, 91
1, 185306, Note_on_c, 0, 87, 66
1, 185325, Note_off_c, 0, 88, 45
1, 185328, Note_on_c, 0, 75, 49
1, 185692, Note_off_c, 0, 87, 61
1, 185707, Note_on_c, 0, 63, 43
1, 185710, Note_on_c, 0, 59, 41
1, 185713, Note_off_c, 0, 75, 59
1, 186097, Note_on_c, 0, 80, 71
1, 186132, Note_on_c, 0, 68, 26
1, 186223, Note_off_c, 0, 68, 34
1, 186261, Note_off_c, 0, 63, 41
1, 186405, Note_off_c, 0, 59, 32
1, 186502, Control_c, 0, 64, 90
1, 186514, Note_on_c, 0, 71, 44
1, 186620, Control_c, 0, 64, 90
1, 186665, Control_c, 0, 64, 89
1, 186694, Control_c, 0, 64, 89
1, 186709, Control_c, 0, 64, 88
1, 186714, Note_on_c, 0, 83, 62
1, 186724, Control_c, 0, 64, 87
1, 186739, Control_c, 0, 64, 86
1, 186754, Control_c, 0, 64, 83
1, 186755, Note_off_c, 0, 80, 61
1, 186768, Control_c, 0, 64, 80
1, 186783, Control_c, 0, 64, 75
1, 186798, Control_c, 0, 64, 68
1, 186813, Control_c, 0, 64, 58
1, 186827, Control_c, 0, 64, 0
1, 187088, Control_c, 0, 64, 37
1, 187103, Control_c, 0, 64, 49
1, 187118, Control_c, 0, 64, 55
1, 187132, Control_c, 0, 64, 58
1, 187147, Control_c, 0, 64, 61
1, 187162, Control_c, 0, 64, 63
1, 187177, Control_c, 0, 64, 64
1, 187192, Control_c, 0, 64, 66
1, 187206, Control_c, 0, 64, 67
1, 187221, Control_c, 0, 64, 68
1, 187236, Control_c, 0, 64, 69
1, 187250, Control_c, 0, 64, 70
1, 187265, Control_c, 0, 64, 71
1, 187280, Control_c, 0, 64, 73
1, 187295, Control_c, 0, 64, 75
1, 187310, Control_c, 0, 64, 76
1, 187325, Control_c, 0, 64, 77
1, 187340, Control_c, 0, 64, 78
1, 187355, Control_c, 0, 64, 78
1, 187369, Control_c, 0, 64, 79
1, 187384, Control_c, 0, 64, 79
1, 187399, Control_c, 0, 64, 80
1, 187414, Control_c, 0, 64, 80
1, 187429, Control_c, 0, 64, 81
1, 187473, Control_c, 0, 64, 81
1, 187547, Control_c, 0, 64, 82
1, 187578, Note_on_c, 0, 51, 27
1, 187591, Control_c, 0, 64, 82
1, 187621, Control_c, 0, 64, 83
1, 187650, Control_c, 0, 64, 83
1, 187680, Control_c, 0, 64, 84
1, 187695, Control_c, 0, 64, 84
1, 187710, Control_c, 0, 64, 85
1, 187711, Note_off_c, 0, 51, 31
1, 187724, Control_c, 0, 64, 85
1, 187747, Control_c, 0, 64, 86
1, 187777, Control_c, 0, 64, 86
1, 187806, Control_c, 0, 64, 87
1, 187821, Note_on_c, 0, 61, 32
1, 187866, Control_c, 0, 64, 87
1, 187881, Control_c, 0, 64, 88
1, 187911, Control_c, 0, 64, 88
1, 187941, Control_c, 0, 64, 89
1, 187966, Note_off_c, 0, 61, 38
1, 187970, Control_c, 0, 64, 89
1, 188044, Control_c, 0, 64, 90
1, 188073, Control_c, 0, 64, 90
1, 188088, Control_c, 0, 64, 91
1, 188103, Control_c, 0, 64, 91
1, 188118, Control_c, 0, 64, 92
1, 188148, Control_c, 0, 64, 92
1, 188177, Control_c, 0, 64, 93
1, 188266, Control_c, 0, 64, 93
1, 188309, Note_on_c, 0, 67, 28
1, 188355, Poly_aftertouch_c, 0, 61, 127
1, 188538, Poly_aftertouch_c, 0, 61, 0
1, 188613, Note_off_c, 0, 67, 19
1, 189766, Note_off_c, 0, 71, 34
1, 190249, Note_off_c, 0, 83, 36
1, 190751, Note_on_c, 0, 70, 31
1, 190759, Note_on_c, 0, 82, 34
1, 191662, Note_off_c, 0, 70, 37
1, 192037, Note_off_c, 0, 82, 39
1, 192070, Control_c, 0, 64, 93
1, 192159, Control_c, 0, 64, 92
1, 192203, Control_c, 0, 64, 92
1, 192270, Control_c, 0, 64, 91
1, 192285, Control_c, 0, 64, 91
1, 192329, Control_c, 0, 64, 90
1, 192359, Control_c, 0, 64, 90
1, 192374, Control_c, 0, 64, 89
1, 192388, Control_c, 0, 64, 89
1, 192403, Control_c, 0, 64, 88
1, 192418, Control_c, 0, 64, 87
1, 192433, Control_c, 0, 64, 86
1, 192447, Control_c, 0, 64, 84
1, 192462, Control_c, 0, 64, 83
1, 192477, Control_c, 0, 64, 82
1, 192492, Control_c, 0, 64, 81
1, 192506, Control_c, 0, 64, 79
1, 192521, Control_c, 0, 64, 78
1, 192536, Control_c, 0, 64, 77
1, 192551, Control_c, 0, 64, 75
1, 192565, Control_c, 0, 64, 73
1, 192580, Control_c, 0, 64, 71
1, 192595, Control_c, 0, 64, 69
1, 192610, Control_c, 0, 64, 67
1, 192625, Control_c, 0, 64, 66
1, 192640, Control_c, 0, 64, 65
1, 192700, Control_c, 0, 64, 64
1, 192730, Control_c, 0, 64, 63
1, 192744, Control_c, 0, 64, 63
1, 192759, Control_c, 0, 64, 62
1, 192774, Control_c, 0, 64, 62
1, 192789, Control_c, 0, 64, 61
1, 192804, Control_c, 0, 64, 61
1, 192834, Control_c, 0, 64, 60
1, 192849, Control_c, 0, 64, 60
1, 192863, Control_c, 0, 64, 59
1, 193522, Note_on_c, 0, 72, 64
1, 193539, Control_c, 0, 64, 60
1, 193568, Control_c, 0, 64, 60
1, 193583, Control_c, 0, 64, 61
1, 193598, Control_c, 0, 64, 61
1, 193612, Control_c, 0, 64, 62
1, 193627, Control_c, 0, 64, 62
1, 193642, Control_c, 0, 64, 63
1, 193657, Control_c, 0, 64, 64
1, 193672, Control_c, 0, 64, 65
1, 193686, Control_c, 0, 64, 67
1, 193701, Control_c, 0, 64, 68
1, 193716, Control_c, 0, 64, 69
1, 193739, Control_c, 0, 64, 71
1, 193754, Control_c, 0, 64, 73
1, 193768, Control_c, 0, 64, 75
1, 193783, Control_c, 0, 64, 77
1, 193796, Note_on_c, 0, 44, 33
1, 193798, Control_c, 0, 64, 79
1, 193812, Control_c, 0, 64, 81
1, 193827, Control_c, 0, 64, 83
1, 193842, Control_c, 0, 64, 84
1, 193857, Control_c, 0, 64, 85
1, 193872, Control_c, 0, 64, 86
1, 193874, Note_off_c, 0, 44, 38
1, 193886, Control_c, 0, 64, 87
1, 193901, Control_c, 0, 64, 88
1, 193916, Control_c, 0, 64, 88
1, 193931, Control_c, 0, 64, 89
1, 193961, Control_c, 0, 64, 89
1, 194005, Control_c, 0, 64, 90
1, 194068, Note_on_c, 0, 51, 26
1, 194216, Note_on_c, 0, 60, 39
1, 194276, Note_off_c, 0, 60, 55
1, 194486, Note_on_c, 0, 68, 21
1, 194508, Note_off_c, 0, 51, 38
1, 194544, Note_off_c, 0, 68, 44
1, 194580, Note_off_c, 0, 72, 36
1, 194711, Note_on_c, 0, 77, 78
1, 194723, Control_c, 0, 64, 89
1, 194738, Control_c, 0, 64, 89
1, 194753, Control_c, 0, 64, 88
1, 194768, Control_c, 0, 64, 88
1, 194783, Control_c, 0, 64, 87
1, 194798, Control_c, 0, 64, 86
1, 194813, Control_c, 0, 64, 84
1, 194828, Control_c, 0, 64, 83
1, 194842, Control_c, 0, 64, 81
1, 194857, Control_c, 0, 64, 78
1, 194872, Control_c, 0, 64, 73
1, 194887, Control_c, 0, 64, 64
1, 194902, Control_c, 0, 64, 0
1, 194940, Note_on_c, 0, 44, 33
1, 194990, Control_c, 0, 64, 58
1, 195005, Control_c, 0, 64, 68
1, 195020, Control_c, 0, 64, 73
1, 195034, Control_c, 0, 64, 78
1, 195049, Control_c, 0, 64, 81
1, 195065, Control_c, 0, 64, 83
1, 195074, Note_off_c, 0, 44, 56
1, 195080, Control_c, 0, 64, 83
1, 195095, Control_c, 0, 64, 84
1, 195110, Control_c, 0, 64, 84
1, 195123, Note_on_c, 0, 50, 36
1, 195125, Control_c, 0, 64, 85
1, 195139, Control_c, 0, 64, 86
1, 195154, Control_c, 0, 64, 86
1, 195184, Control_c, 0, 64, 87
1, 195242, Note_on_c, 0, 59, 46
1, 195376, Note_off_c, 0, 59, 27
1, 195497, Note_on_c, 0, 68, 24
1, 195564, Note_off_c, 0, 68, 38
1, 195652, Note_off_c, 0, 50, 34
1, 195654, Note_off_c, 0, 77, 49
1, 195680, Note_on_c, 0, 76, 60
1, 195734, Note_off_c, 0, 76, 59
1, 195798, Control_c, 0, 64, 86
1, 195813, Control_c, 0, 64, 85
1, 195814, Note_on_c, 0, 76, 59
1, 195828, Control_c, 0, 64, 83
1, 195843, Control_c, 0, 64, 79
1, 195859, Control_c, 0, 64, 73
1, 195874, Control_c, 0, 64, 64
1, 195888, Control_c, 0, 64, 0
1, 195999, Control_c, 0, 64, 35
1, 196014, Control_c, 0, 64, 63
1, 196029, Control_c, 0, 64, 67
1, 196041, Note_on_c, 0, 44, 26
1, 196044, Control_c, 0, 64, 70
1, 196059, Control_c, 0, 64, 73
1, 196074, Control_c, 0, 64, 77
1, 196088, Control_c, 0, 64, 82
1, 196103, Control_c, 0, 64, 84
1, 196118, Control_c, 0, 64, 84
1, 196133, Control_c, 0, 64, 85
1, 196148, Control_c, 0, 64, 86
1, 196154, Note_off_c, 0, 44, 39
1, 196162, Control_c, 0, 64, 86
1, 196177, Control_c, 0, 64, 87
1, 196292, Note_on_c, 0, 51, 32
1, 196482, Note_on_c, 0, 60, 28
1, 196655, Note_off_c, 0, 60, 26
1, 196814, Note_on_c, 0, 68, 23
1, 197053, Note_off_c, 0, 51, 37
1, 197266, Control_c, 0, 64, 86
1, 197414, Control_c, 0, 64, 86
1, 197896, Control_c, 0, 64, 85
1, 197920, Note_on_c, 0, 75, 37
1, 198002, Note_off_c, 0, 76, 33
1, 198026, Note_off_c, 0, 68, 35
1, 198192, Control_c, 0, 64, 85
1, 198207, Control_c, 0, 64, 84
1, 198229, Control_c, 0, 64, 83
1, 198244, Control_c, 0, 64, 82
1, 198258, Note_on_c, 0, 68, 47
1, 198260, Control_c, 0, 64, 80
1, 198275, Control_c, 0, 64, 78
1, 198289, Control_c, 0, 64, 75
1, 198304, Control_c, 0, 64, 69
1, 198319, Control_c, 0, 64, 62
1, 198334, Control_c, 0, 64, 22
1, 198335, Note_off_c, 0, 75, 36
1, 198349, Control_c, 0, 64, 0
1, 198536, Note_on_c, 0, 70, 63
1, 198597, Note_off_c, 0, 68, 39
1, 198799, Note_on_c, 0, 72, 68
1, 198834, Note_off_c, 0, 70, 61
1, 199053, Control_c, 0, 64, 52
1, 199055, Note_on_c, 0, 44, 42
1, 199068, Control_c, 0, 64, 66
1, 199083, Control_c, 0, 64, 70
1, 199098, Control_c, 0, 64, 74
1, 199112, Control_c, 0, 64, 78
1, 199127, Control_c, 0, 64, 81
1, 199138, Note_off_c, 0, 44, 58
1, 199142, Control_c, 0, 64, 83
1, 199157, Control_c, 0, 64, 84
1, 199159, Note_off_c, 0, 72, 64
1, 199172, Control_c, 0, 64, 85
1, 199186, Control_c, 0, 64, 85
1, 199201, Control_c, 0, 64, 86
1, 199216, Control_c, 0, 64, 86
1, 199251, Note_on_c, 0, 51, 42
1, 199275, Control_c, 0, 64, 87
1, 199388, Note_on_c, 0, 60, 37
1, 199400, Note_on_c, 0, 72, 77
1, 199502, Note_off_c, 0, 60, 37
1, 199638, Note_off_c, 0, 51, 0
1, 199657, Note_on_c, 0, 68, 51
1, 199675, Poly_aftertouch_c, 0, 51, 127
1, 199709, Note_off_c, 0, 68, 52
1, 199803, Poly_aftertouch_c, 0, 51, 0
1, 199907, Control_c, 0, 64, 86
1, 199908, Note_on_c, 0, 77, 79
1, 199921, Control_c, 0, 64, 86
1, 199936, Control_c, 0, 64, 85
1, 199951, Control_c, 0, 64, 83
1, 199961, Note_off_c, 0, 72, 55
1, 199966, Control_c, 0, 64, 78
1, 199981, Control_c, 0, 64, 72
1, 199996, Control_c, 0, 64, 64
1, 200010, Control_c, 0, 64, 0
1, 200138, Note_on_c, 0, 44, 33
1, 200173, Control_c, 0, 64, 53
1, 200187, Control_c, 0, 64, 65
1, 200202, Control_c, 0, 64, 68
1, 200217, Control_c, 0, 64, 70
1, 200232, Control_c, 0, 64, 73
1, 200247, Control_c, 0, 64, 75
1, 200262, Control_c, 0, 64, 78
1, 200277, Control_c, 0, 64, 79
1, 200290, Note_off_c, 0, 44, 51
1, 200292, Control_c, 0, 64, 80
1, 200307, Control_c, 0, 64, 81
1, 200321, Control_c, 0, 64, 82
1, 200326, Note_on_c, 0, 50, 34
1, 200336, Control_c, 0, 64, 82
1, 200351, Control_c, 0, 64, 83
1, 200410, Control_c, 0, 64, 83
1, 200440, Control_c, 0, 64, 84
1, 200463, Note_on_c, 0, 59, 38
1, 200477, Control_c, 0, 64, 84
1, 200536, Control_c, 0, 64, 85
1, 200566, Control_c, 0, 64, 85
1, 200610, Control_c, 0, 64, 86
1, 200752, Note_on_c, 0, 68, 26
1, 200804, Note_off_c, 0, 59, 38
1, 200867, Note_off_c, 0, 68, 41
1, 201027, Note_off_c, 0, 50, 37
1, 201046, Note_on_c, 0, 76, 56
1, 201059, Note_off_c, 0, 77, 27
1, 201085, Note_off_c, 0, 76, 59
1, 201173, Control_c, 0, 64, 85
1, 201186, Note_on_c, 0, 76, 56
1, 201188, Control_c, 0, 64, 85
1, 201202, Control_c, 0, 64, 83
1, 201225, Control_c, 0, 64, 80
1, 201240, Control_c, 0, 64, 74
1, 201255, Control_c, 0, 64, 63
1, 201269, Control_c, 0, 64, 0
1, 201388, Control_c, 0, 64, 59
1, 201402, Control_c, 0, 64, 66
1, 201417, Control_c, 0, 64, 68
1, 201429, Note_on_c, 0, 44, 31
1, 201432, Control_c, 0, 64, 70
1, 201448, Control_c, 0, 64, 73
1, 201463, Control_c, 0, 64, 76
1, 201478, Control_c, 0, 64, 78
1, 201493, Control_c, 0, 64, 81
1, 201498, Note_off_c, 0, 44, 53
1, 201507, Control_c, 0, 64, 82
1, 201522, Control_c, 0, 64, 84
1, 201537, Control_c, 0, 64, 85
1, 201552, Control_c, 0, 64, 86
1, 201581, Control_c, 0, 64, 87
1, 201686, Note_on_c, 0, 51, 31
1, 201907, Note_on_c, 0, 60, 29
1, 202049, Note_off_c, 0, 60, 25
1, 202277, Note_on_c, 0, 68, 29
1, 202548, Note_off_c, 0, 51, 32
1, 203476, Note_on_c, 0, 75, 29
1, 203508, Note_off_c, 0, 76, 36
1, 203560, Note_off_c, 0, 68, 38
1, 203738, Control_c, 0, 64, 86
1, 203753, Control_c, 0, 64, 86
1, 203768, Control_c, 0, 64, 85
1, 203783, Control_c, 0, 64, 84
1, 203797, Note_on_c, 0, 68, 45
1, 203797, Control_c, 0, 64, 82
1, 203812, Control_c, 0, 64, 80
1, 203827, Control_c, 0, 64, 76
1, 203843, Control_c, 0, 64, 71
1, 203858, Control_c, 0, 64, 65
1, 203873, Control_c, 0, 64, 53
1, 203877, Note_off_c, 0, 75, 47
1, 203888, Control_c, 0, 64, 27
1, 203902, Control_c, 0, 64, 0
1, 204006, Control_c, 0, 64, 16
1, 204021, Control_c, 0, 64, 22
1, 204036, Control_c, 0, 64, 26
1, 204051, Control_c, 0, 64, 28
1, 204066, Control_c, 0, 64, 30
1, 204080, Control_c, 0, 64, 33
1, 204093, Note_on_c, 0, 70, 64
1, 204095, Control_c, 0, 64, 35
1, 204110, Control_c, 0, 64, 37
1, 204125, Control_c, 0, 64, 38
1, 204139, Control_c, 0, 64, 39
1, 204154, Control_c, 0, 64, 40
1, 204169, Control_c, 0, 64, 40
1, 204175, Note_off_c, 0, 68, 38
1, 204199, Control_c, 0, 64, 41
1, 204235, Control_c, 0, 64, 41
1, 204265, Control_c, 0, 64, 42
1, 204280, Control_c, 0, 64, 42
1, 204295, Control_c, 0, 64, 43
1, 204310, Control_c, 0, 64, 44
1, 204340, Control_c, 0, 64, 44
1, 204369, Control_c, 0, 64, 45
1, 204372, Note_on_c, 0, 72, 71
1, 204396, Note_off_c, 0, 70, 60
1, 204399, Control_c, 0, 64, 45
1, 204414, Control_c, 0, 64, 45
1, 204428, Control_c, 0, 64, 41
1, 204443, Control_c, 0, 64, 29
1, 204458, Control_c, 0, 64, 0
1, 204591, Control_c, 0, 64, 31
1, 204606, Control_c, 0, 64, 64
1, 204620, Control_c, 0, 64, 69
1, 204635, Control_c, 0, 64, 72
1, 204636, Note_on_c, 0, 43, 45
1, 204651, Control_c, 0, 64, 76
1, 204666, Control_c, 0, 64, 80
1, 204681, Control_c, 0, 64, 83
1, 204686, Note_off_c, 0, 43, 59
1, 204696, Control_c, 0, 64, 86
1, 204711, Control_c, 0, 64, 87
1, 204725, Control_c, 0, 64, 88
1, 204740, Control_c, 0, 64, 89
1, 204755, Control_c, 0, 64, 89
1, 204769, Control_c, 0, 64, 90
1, 204785, Note_off_c, 0, 72, 59
1, 204843, Control_c, 0, 64, 90
1, 205014, Note_on_c, 0, 52, 25
1, 205019, Note_on_c, 0, 58, 41
1, 205048, Note_on_c, 0, 72, 74
1, 205291, Note_off_c, 0, 58, 40
1, 205302, Note_on_c, 0, 60, 40
1, 205319, Note_off_c, 0, 72, 60
1, 205365, Note_off_c, 0, 60, 55
1, 205409, Note_off_c, 0, 52, 51
1, 205531, Note_on_c, 0, 73, 81
1, 205607, Control_c, 0, 64, 90
1, 205622, Control_c, 0, 64, 89
1, 205637, Control_c, 0, 64, 89
1, 205652, Control_c, 0, 64, 87
1, 205666, Control_c, 0, 64, 86
1, 205681, Control_c, 0, 64, 84
1, 205696, Control_c, 0, 64, 80
1, 205719, Control_c, 0, 64, 73
1, 205734, Control_c, 0, 64, 64
1, 205748, Control_c, 0, 64, 0
1, 205788, Note_on_c, 0, 42, 54
1, 205852, Control_c, 0, 64, 62
1, 205866, Control_c, 0, 64, 69
1, 205881, Control_c, 0, 64, 74
1, 205896, Control_c, 0, 64, 78
1, 205906, Note_off_c, 0, 42, 62
1, 205911, Control_c, 0, 64, 81
1, 205926, Control_c, 0, 64, 83
1, 205941, Control_c, 0, 64, 83
1, 205955, Control_c, 0, 64, 84
1, 205970, Control_c, 0, 64, 84
1, 205985, Control_c, 0, 64, 85
1, 206000, Control_c, 0, 64, 85
1, 206030, Control_c, 0, 64, 86
1, 206191, Note_on_c, 0, 57, 47
1, 206198, Note_on_c, 0, 51, 32
1, 206253, Control_c, 0, 64, 86
1, 206312, Control_c, 0, 64, 87
1, 206327, Control_c, 0, 64, 87
1, 206342, Control_c, 0, 64, 88
1, 206371, Control_c, 0, 64, 88
1, 206401, Control_c, 0, 64, 89
1, 206512, Control_c, 0, 64, 89
1, 206532, Note_off_c, 0, 51, 12
1, 206584, Note_off_c, 0, 57, 48
1, 206605, Note_on_c, 0, 69, 68
1, 206608, Note_on_c, 0, 61, 50
1, 206647, Note_off_c, 0, 61, 48
1, 206653, Note_off_c, 0, 73, 51
1, 206860, Note_on_c, 0, 70, 74
1, 206868, Control_c, 0, 64, 89
1, 206881, Note_off_c, 0, 69, 58
1, 206882, Control_c, 0, 64, 88
1, 206897, Control_c, 0, 64, 88
1, 206912, Control_c, 0, 64, 86
1, 206927, Control_c, 0, 64, 82
1, 206941, Control_c, 0, 64, 76
1, 206956, Control_c, 0, 64, 67
1, 206971, Control_c, 0, 64, 0
1, 207076, Control_c, 0, 64, 36
1, 207087, Note_on_c, 0, 41, 48
1, 207091, Control_c, 0, 64, 68
1, 207106, Control_c, 0, 64, 75
1, 207120, Control_c, 0, 64, 83
1, 207135, Control_c, 0, 64, 87
1, 207143, Note_off_c, 0, 41, 60
1, 207150, Control_c, 0, 64, 88
1, 207164, Control_c, 0, 64, 88
1, 207179, Control_c, 0, 64, 89
1, 207194, Control_c, 0, 64, 90
1, 207216, Control_c, 0, 64, 90
1, 207231, Control_c, 0, 64, 91
1, 207246, Control_c, 0, 64, 92
1, 207261, Control_c, 0, 64, 92
1, 207291, Control_c, 0, 64, 93
1, 207348, Note_off_c, 0, 70, 52
1, 207475, Note_on_c, 0, 56, 41
1, 207477, Note_on_c, 0, 50, 21
1, 207484, Note_on_c, 0, 70, 72
1, 207625, Note_off_c, 0, 50, 47
1, 207722, Note_off_c, 0, 56, 41
1, 207742, Note_on_c, 0, 58, 56
1, 207794, Note_off_c, 0, 58, 54
1, 208006, Note_on_c, 0, 72, 70
1, 208053, Control_c, 0, 64, 92
1, 208067, Control_c, 0, 64, 91
1, 208069, Note_off_c, 0, 70, 39
1, 208082, Control_c, 0, 64, 90
1, 208097, Control_c, 0, 64, 87
1, 208112, Control_c, 0, 64, 83
1, 208127, Control_c, 0, 64, 76
1, 208141, Control_c, 0, 64, 64
1, 208156, Control_c, 0, 64, 0
1, 208253, Note_on_c, 0, 40, 48
1, 208260, Control_c, 0, 64, 51
1, 208275, Control_c, 0, 64, 66
1, 208289, Control_c, 0, 64, 71
1, 208304, Control_c, 0, 64, 76
1, 208319, Control_c, 0, 64, 79
1, 208334, Control_c, 0, 64, 82
1, 208349, Control_c, 0, 64, 83
1, 208364, Control_c, 0, 64, 84
1, 208367, Note_off_c, 0, 40, 56
1, 208379, Control_c, 0, 64, 84
1, 208393, Control_c, 0, 64, 85
1, 208408, Control_c, 0, 64, 86
1, 208423, Control_c, 0, 64, 86
1, 208482, Control_c, 0, 64, 87
1, 208654, Note_on_c, 0, 55, 39
1, 208660, Note_on_c, 0, 49, 25
1, 208832, Note_off_c, 0, 49, 32
1, 208893, Note_off_c, 0, 72, 54
1, 209023, Note_on_c, 0, 67, 55
1, 209039, Note_on_c, 0, 58, 49
1, 209045, Note_off_c, 0, 55, 43
1, 209122, Note_off_c, 0, 58, 57
1, 209142, Poly_aftertouch_c, 0, 49, 127
1, 209195, Note_off_c, 0, 67, 49
1, 209220, Poly_aftertouch_c, 0, 49, 0
1, 209276, Note_on_c, 0, 68, 73
1, 209440, Control_c, 0, 64, 86
1, 209462, Control_c, 0, 64, 84
1, 209477, Control_c, 0, 64, 75
1, 209492, Control_c, 0, 64, 62
1, 209507, Control_c, 0, 64, 0
1, 209511, Note_on_c, 0, 39, 64
1, 209565, Control_c, 0, 64, 34
1, 209580, Control_c, 0, 64, 69
1, 209595, Control_c, 0, 64, 77
1, 209610, Note_off_c, 0, 39, 63
1, 209610, Control_c, 0, 64, 84
1, 209625, Control_c, 0, 64, 87
1, 209655, Control_c, 0, 64, 87
1, 209685, Control_c, 0, 64, 88
1, 209699, Control_c, 0, 64, 88
1, 209714, Control_c, 0, 64, 89
1, 209831, Note_on_c, 0, 48, 44
1, 209857, Note_on_c, 0, 56, 50
1, 209938, Note_on_c, 0, 79, 82
1, 209980, Control_c, 0, 64, 89
1, 210050, Note_off_c, 0, 68, 56
1, 210069, Control_c, 0, 64, 90
1, 210111, Note_off_c, 0, 48, 42
1, 210129, Control_c, 0, 64, 90
1, 210130, Note_off_c, 0, 56, 60
1, 210165, Note_on_c, 0, 60, 59
1, 210201, Note_off_c, 0, 60, 62
1, 210270, Control_c, 0, 64, 91
1, 210381, Note_on_c, 0, 77, 81
1, 210397, Note_off_c, 0, 79, 54
1, 210463, Control_c, 0, 64, 90
1, 210477, Control_c, 0, 64, 90
1, 210492, Control_c, 0, 64, 87
1, 210507, Control_c, 0, 64, 80
1, 210522, Control_c, 0, 64, 68
1, 210537, Control_c, 0, 64, 0
1, 210601, Note_on_c, 0, 38, 49
1, 210626, Control_c, 0, 64, 50
1, 210641, Control_c, 0, 64, 67
1, 210655, Control_c, 0, 64, 73
1, 210670, Control_c, 0, 64, 79
1, 210681, Note_off_c, 0, 38, 62
1, 210685, Control_c, 0, 64, 84
1, 210700, Control_c, 0, 64, 86
1, 210714, Control_c, 0, 64, 87
1, 210729, Control_c, 0, 64, 89
1, 210744, Control_c, 0, 64, 90
1, 210759, Control_c, 0, 64, 92
1, 210774, Control_c, 0, 64, 95
1, 210788, Control_c, 0, 64, 96
1, 210803, Control_c, 0, 64, 97
1, 210818, Control_c, 0, 64, 98
1, 210923, Note_on_c, 0, 47, 40
1, 210987, Note_on_c, 0, 56, 39
1, 211018, Note_off_c, 0, 77, 58
1, 211023, Note_off_c, 0, 47, 56
1, 211404, Note_on_c, 0, 68, 63
1, 211423, Note_on_c, 0, 65, 38
1, 211476, Note_off_c, 0, 65, 51
1, 211636, Note_off_c, 0, 56, 41
1, 211709, Note_on_c, 0, 69, 62
1, 211722, Control_c, 0, 64, 97
1, 211736, Control_c, 0, 64, 96
1, 211751, Control_c, 0, 64, 95
1, 211766, Control_c, 0, 64, 93
1, 211781, Control_c, 0, 64, 87
1, 211796, Control_c, 0, 64, 79
1, 211810, Control_c, 0, 64, 68
1, 211825, Control_c, 0, 64, 0
1, 211826, Note_off_c, 0, 68, 19
1, 211959, Control_c, 0, 64, 57
1, 211965, Note_on_c, 0, 39, 39
1, 211974, Control_c, 0, 64, 67
1, 211989, Control_c, 0, 64, 71
1, 212004, Control_c, 0, 64, 74
1, 212019, Control_c, 0, 64, 77
1, 212033, Control_c, 0, 64, 80
1, 212048, Control_c, 0, 64, 82
1, 212063, Control_c, 0, 64, 85
1, 212078, Control_c, 0, 64, 86
1, 212093, Control_c, 0, 64, 87
1, 212108, Control_c, 0, 64, 88
1, 212123, Control_c, 0, 64, 89
1, 212138, Control_c, 0, 64, 89
1, 212152, Control_c, 0, 64, 90
1, 212167, Control_c, 0, 64, 90
1, 212230, Note_on_c, 0, 65, 46
1, 212231, Note_on_c, 0, 46, 36
1, 212240, Note_on_c, 0, 61, 36
1, 212256, Control_c, 0, 64, 91
1, 212324, Note_off_c, 0, 39, 38
1, 212379, Note_off_c, 0, 46, 34
1, 212496, Note_on_c, 0, 53, 56
1, 212745, Note_off_c, 0, 53, 63
1, 212791, Note_on_c, 0, 56, 51
1, 212987, Note_off_c, 0, 69, 35
1, 213062, Note_off_c, 0, 61, 38
1, 213284, Note_on_c, 0, 61, 35
1, 213339, Control_c, 0, 64, 90
1, 213376, Note_on_c, 0, 70, 54
1, 213419, Note_off_c, 0, 65, 60
1, 213452, Note_off_c, 0, 61, 32
1, 213473, Control_c, 0, 64, 90
1, 213496, Note_off_c, 0, 56, 37
1, 213606, Note_on_c, 0, 55, 24
1, 213606, Control_c, 0, 64, 89
1, 213621, Control_c, 0, 64, 89
1, 213636, Control_c, 0, 64, 88
1, 213651, Control_c, 0, 64, 88
1, 213666, Control_c, 0, 64, 86
1, 213680, Control_c, 0, 64, 84
1, 213695, Control_c, 0, 64, 80
1, 213710, Control_c, 0, 64, 75
1, 213724, Control_c, 0, 64, 68
1, 213739, Control_c, 0, 64, 54
1, 213748, Note_on_c, 0, 63, 25
1, 213754, Control_c, 0, 64, 0
1, 213794, Note_on_c, 0, 61, 19
1, 213954, Control_c, 0, 64, 51
1, 213969, Control_c, 0, 64, 63
1, 213984, Control_c, 0, 64, 66
1, 213999, Control_c, 0, 64, 68
1, 214013, Control_c, 0, 64, 70
1, 214028, Control_c, 0, 64, 73
1, 214043, Control_c, 0, 64, 76
1, 214058, Control_c, 0, 64, 79
1, 214073, Control_c, 0, 64, 81
1, 214087, Control_c, 0, 64, 82
1, 214102, Control_c, 0, 64, 83
1, 214117, Control_c, 0, 64, 84
1, 214132, Control_c, 0, 64, 85
1, 214147, Control_c, 0, 64, 85
1, 214162, Control_c, 0, 64, 86
1, 214177, Control_c, 0, 64, 86
1, 214192, Control_c, 0, 64, 87
1, 214206, Control_c, 0, 64, 87
1, 214221, Control_c, 0, 64, 88
1, 214251, Control_c, 0, 64, 88
1, 214257, Note_off_c, 0, 61, 38
1, 214271, Note_off_c, 0, 70, 48
1, 214296, Control_c, 0, 64, 89
1, 214326, Control_c, 0, 64, 89
1, 214355, Control_c, 0, 64, 90
1, 214489, Control_c, 0, 64, 90
1, 214509, Note_off_c, 0, 55, 33
1, 214544, Note_on_c, 0, 51, 33
1, 214547, Control_c, 0, 64, 91
1, 214567, Note_on_c, 0, 71, 55
1, 214577, Control_c, 0, 64, 91
1, 214607, Control_c, 0, 64, 92
1, 214612, Note_off_c, 0, 63, 39
1, 214651, Control_c, 0, 64, 92
1, 214672, Note_off_c, 0, 71, 58
1, 214703, Control_c, 0, 64, 93
1, 214789, Note_off_c, 0, 51, 39
1, 214915, Note_on_c, 0, 72, 69
1, 215014, Control_c, 0, 64, 92
1, 215030, Control_c, 0, 64, 91
1, 215045, Control_c, 0, 64, 90
1, 215059, Control_c, 0, 64, 88
1, 215074, Control_c, 0, 64, 86
1, 215089, Control_c, 0, 64, 80
1, 215104, Control_c, 0, 64, 70
1, 215119, Control_c, 0, 64, 34
1, 215122, Note_on_c, 0, 44, 36
1, 215134, Control_c, 0, 64, 0
1, 215208, Control_c, 0, 64, 59
1, 215223, Control_c, 0, 64, 71
1, 215238, Control_c, 0, 64, 78
1, 215253, Control_c, 0, 64, 84
1, 215268, Control_c, 0, 64, 87
1, 215282, Control_c, 0, 64, 88
1, 215292, Note_off_c, 0, 44, 39
1, 215312, Control_c, 0, 64, 88
1, 215326, Control_c, 0, 64, 89
1, 215341, Control_c, 0, 64, 90
1, 215355, Note_on_c, 0, 51, 43
1, 215356, Control_c, 0, 64, 90
1, 215370, Control_c, 0, 64, 91
1, 215385, Control_c, 0, 64, 91
1, 215415, Control_c, 0, 64, 92
1, 215539, Note_on_c, 0, 60, 49
1, 215594, Note_off_c, 0, 60, 55
1, 215751, Note_on_c, 0, 68, 59
1, 215753, Note_off_c, 0, 51, 40
1, 215844, Note_off_c, 0, 68, 56
1, 215971, Note_on_c, 0, 77, 80
1, 215986, Control_c, 0, 64, 91
1, 216001, Control_c, 0, 64, 90
1, 216016, Control_c, 0, 64, 88
1, 216031, Control_c, 0, 64, 81
1, 216046, Control_c, 0, 64, 70
1, 216050, Note_off_c, 0, 72, 55
1, 216061, Control_c, 0, 64, 0
1, 216150, Control_c, 0, 64, 54
1, 216165, Control_c, 0, 64, 66
1, 216169, Note_on_c, 0, 44, 30
1, 216180, Control_c, 0, 64, 72
1, 216201, Control_c, 0, 64, 76
1, 216216, Control_c, 0, 64, 80
1, 216231, Control_c, 0, 64, 81
1, 216246, Control_c, 0, 64, 82
1, 216261, Control_c, 0, 64, 83
1, 216275, Control_c, 0, 64, 84
1, 216278, Note_off_c, 0, 44, 57
1, 216290, Control_c, 0, 64, 85
1, 216305, Control_c, 0, 64, 85
1, 216319, Note_on_c, 0, 50, 40
1, 216320, Control_c, 0, 64, 86
1, 216335, Control_c, 0, 64, 86
1, 216350, Control_c, 0, 64, 87
1, 216380, Control_c, 0, 64, 87
1, 216420, Note_on_c, 0, 59, 44
1, 216424, Control_c, 0, 64, 88
1, 216536, Note_off_c, 0, 59, 41
1, 216557, Control_c, 0, 64, 88
1, 216656, Note_on_c, 0, 68, 41
1, 216696, Note_off_c, 0, 50, 17
1, 216738, Note_off_c, 0, 68, 39
1, 216814, Note_on_c, 0, 76, 60
1, 216820, Note_off_c, 0, 77, 36
1, 216864, Note_off_c, 0, 76, 60
1, 216943, Control_c, 0, 64, 87
1, 216955, Note_on_c, 0, 76, 55
1, 216965, Control_c, 0, 64, 85
1, 216980, Control_c, 0, 64, 81
1, 216995, Control_c, 0, 64, 72
1, 217010, Control_c, 0, 64, 52
1, 217024, Control_c, 0, 64, 0
1, 217113, Control_c, 0, 64, 61
1, 217128, Control_c, 0, 64, 67
1, 217139, Note_on_c, 0, 44, 36
1, 217143, Control_c, 0, 64, 71
1, 217158, Control_c, 0, 64, 73
1, 217173, Control_c, 0, 64, 76
1, 217187, Control_c, 0, 64, 79
1, 217202, Control_c, 0, 64, 80
1, 217217, Control_c, 0, 64, 82
1, 217219, Note_off_c, 0, 44, 50
1, 217232, Control_c, 0, 64, 83
1, 217247, Control_c, 0, 64, 85
1, 217262, Control_c, 0, 64, 86
1, 217276, Control_c, 0, 64, 87
1, 217291, Control_c, 0, 64, 87
1, 217306, Control_c, 0, 64, 88
1, 217321, Control_c, 0, 64, 88
1, 217336, Control_c, 0, 64, 89
1, 217365, Control_c, 0, 64, 89
1, 217381, Note_on_c, 0, 51, 32
1, 217410, Control_c, 0, 64, 90
1, 217595, Note_on_c, 0, 60, 23
1, 217599, Note_off_c, 0, 51, 0
1, 217636, Poly_aftertouch_c, 0, 51, 127
1, 217668, Note_off_c, 0, 60, 39
1, 217942, Note_on_c, 0, 68, 22
1, 218113, Poly_aftertouch_c, 0, 51, 0
1, 218346, Note_off_c, 0, 68, 11
1, 218744, Control_c, 0, 64, 89
1, 218784, Note_on_c, 0, 75, 44
1, 218890, Note_off_c, 0, 76, 33
1, 219011, Control_c, 0, 64, 89
1, 219057, Control_c, 0, 64, 88
1, 219072, Control_c, 0, 64, 88
1, 219086, Note_on_c, 0, 68, 55
1, 219087, Control_c, 0, 64, 87
1, 219101, Control_c, 0, 64, 86
1, 219116, Control_c, 0, 64, 84
1, 219131, Control_c, 0, 64, 81
1, 219137, Note_off_c, 0, 75, 37
1, 219146, Control_c, 0, 64, 75
1, 219161, Control_c, 0, 64, 69
1, 219176, Control_c, 0, 64, 61
1, 219198, Control_c, 0, 64, 0
1, 219334, Note_on_c, 0, 70, 72
1, 219381, Note_off_c, 0, 68, 51
1, 219554, Note_on_c, 0, 72, 72
1, 219584, Note_off_c, 0, 70, 60
1, 219745, Control_c, 0, 64, 44
1, 219754, Note_on_c, 0, 44, 42
1, 219760, Control_c, 0, 64, 67
1, 219775, Control_c, 0, 64, 74
1, 219790, Control_c, 0, 64, 81
1, 219805, Control_c, 0, 64, 87
1, 219817, Note_off_c, 0, 44, 57
1, 219820, Control_c, 0, 64, 90
1, 219835, Control_c, 0, 64, 92
1, 219849, Control_c, 0, 64, 93
1, 219864, Control_c, 0, 64, 95
1, 219879, Control_c, 0, 64, 96
1, 219885, Note_off_c, 0, 72, 55
1, 219894, Control_c, 0, 64, 98
1, 219896, Note_on_c, 0, 51, 49
1, 219909, Control_c, 0, 64, 99
1, 219924, Control_c, 0, 64, 99
1, 219990, Control_c, 0, 64, 100
1, 220007, Note_on_c, 0, 60, 55
1, 220043, Note_off_c, 0, 51, 35
1, 220072, Note_on_c, 0, 72, 70
1, 220100, Note_off_c, 0, 60, 61
1, 220180, Note_off_c, 0, 72, 57
1, 220183, Note_on_c, 0, 73, 80
1, 220288, Note_on_c, 0, 72, 85
1, 220318, Note_off_c, 0, 73, 59
1, 220370, Note_on_c, 0, 68, 67
1, 220380, Note_off_c, 0, 72, 59
1, 220422, Note_off_c, 0, 68, 60
1, 220435, Control_c, 0, 64, 99
1, 220442, Note_on_c, 0, 71, 76
1, 220449, Control_c, 0, 64, 98
1, 220464, Control_c, 0, 64, 97
1, 220479, Control_c, 0, 64, 94
1, 220493, Control_c, 0, 64, 91
1, 220508, Control_c, 0, 64, 84
1, 220523, Control_c, 0, 64, 75
1, 220527, Note_on_c, 0, 72, 84
1, 220534, Note_off_c, 0, 71, 60
1, 220538, Control_c, 0, 64, 63
1, 220553, Control_c, 0, 64, 0
1, 220670, Note_on_c, 0, 79, 72
1, 220699, Note_off_c, 0, 72, 59
1, 220738, Control_c, 0, 64, 51
1, 220753, Control_c, 0, 64, 67
1, 220768, Control_c, 0, 64, 73
1, 220782, Note_off_c, 0, 79, 61
1, 220783, Control_c, 0, 64, 79
1, 220797, Control_c, 0, 64, 83
1, 220812, Control_c, 0, 64, 85
1, 220827, Control_c, 0, 64, 86
1, 220842, Control_c, 0, 64, 87
1, 220849, Note_on_c, 0, 44, 47
1, 220931, Control_c, 0, 64, 84
1, 220939, Note_on_c, 0, 77, 78
1, 220946, Control_c, 0, 64, 76
1, 220961, Control_c, 0, 64, 62
1, 220976, Control_c, 0, 64, 0
1, 221035, Control_c, 0, 64, 35
1, 221050, Control_c, 0, 64, 66
1, 221064, Control_c, 0, 64, 74
1, 221079, Control_c, 0, 64, 79
1, 221094, Control_c, 0, 64, 81
1, 221109, Control_c, 0, 64, 81
1, 221123, Control_c, 0, 64, 82
1, 221136, Note_off_c, 0, 44, 63
1, 221138, Control_c, 0, 64, 83
1, 221153, Control_c, 0, 64, 84
1, 221160, Note_on_c, 0, 50, 35
1, 221168, Control_c, 0, 64, 85
1, 221183, Control_c, 0, 64, 86
1, 221349, Note_on_c, 0, 59, 42
1, 221493, Note_off_c, 0, 59, 28
1, 221680, Note_on_c, 0, 68, 26
1, 221754, Control_c, 0, 64, 86
1, 221804, Note_off_c, 0, 68, 41
1, 221886, Note_off_c, 0, 50, 31
1, 222047, Note_off_c, 0, 77, 36
1, 222073, Note_on_c, 0, 76, 55
1, 222112, Note_off_c, 0, 76, 61
1, 222191, Control_c, 0, 64, 86
1, 222206, Control_c, 0, 64, 85
1, 222222, Control_c, 0, 64, 82
1, 222234, Note_on_c, 0, 76, 62
1, 222237, Control_c, 0, 64, 78
1, 222251, Control_c, 0, 64, 72
1, 222266, Control_c, 0, 64, 62
1, 222281, Control_c, 0, 64, 0
1, 222429, Control_c, 0, 64, 57
1, 222443, Control_c, 0, 64, 64
1, 222458, Control_c, 0, 64, 66
1, 222473, Control_c, 0, 64, 67
1, 222488, Control_c, 0, 64, 69
1, 222502, Note_on_c, 0, 44, 32
1, 222502, Control_c, 0, 64, 71
1, 222517, Control_c, 0, 64, 74
1, 222532, Control_c, 0, 64, 77
1, 222547, Control_c, 0, 64, 79
1, 222562, Control_c, 0, 64, 80
1, 222577, Control_c, 0, 64, 81
1, 222581, Note_off_c, 0, 44, 51
1, 222592, Control_c, 0, 64, 82
1, 222607, Control_c, 0, 64, 83
1, 222622, Control_c, 0, 64, 83
1, 222636, Control_c, 0, 64, 84
1, 222651, Control_c, 0, 64, 84
1, 222681, Control_c, 0, 64, 85
1, 222695, Control_c, 0, 64, 85
1, 222710, Control_c, 0, 64, 86
1, 222755, Control_c, 0, 64, 86
1, 222803, Note_on_c, 0, 51, 30
1, 223081, Note_on_c, 0, 60, 23
1, 223147, Note_off_c, 0, 60, 0
1, 223185, Poly_aftertouch_c, 0, 60, 127
1, 223456, Note_on_c, 0, 68, 34
1, 223760, Poly_aftertouch_c, 0, 60, 0
1, 223936, Note_off_c, 0, 51, 38
1, 224661, Control_c, 0, 64, 86
1, 224696, Note_on_c, 0, 75, 37
1, 224754, Note_off_c, 0, 76, 37
1, 224806, Note_off_c, 0, 68, 1
1, 224897, Control_c, 0, 64, 85
1, 225016, Control_c, 0, 64, 85
1, 225027, Note_on_c, 0, 68, 49
1, 225030, Control_c, 0, 64, 84
1, 225045, Control_c, 0, 64, 84
1, 225060, Control_c, 0, 64, 83
1, 225075, Control_c, 0, 64, 81
1, 225090, Control_c, 0, 64, 78
1, 225105, Control_c, 0, 64, 75
1, 225109, Note_off_c, 0, 75, 34
1, 225120, Control_c, 0, 64, 72
1, 225135, Control_c, 0, 64, 67
1, 225149, Control_c, 0, 64, 63
1, 225164, Control_c, 0, 64, 53
1, 225179, Control_c, 0, 64, 46
1, 225201, Control_c, 0, 64, 47
1, 225216, Control_c, 0, 64, 47
1, 225231, Control_c, 0, 64, 47
1, 225245, Control_c, 0, 64, 46
1, 225260, Control_c, 0, 64, 44
1, 225275, Control_c, 0, 64, 41
1, 225290, Control_c, 0, 64, 40
1, 225318, Note_on_c, 0, 70, 66
1, 225319, Control_c, 0, 64, 39
1, 225334, Control_c, 0, 64, 39
1, 225364, Control_c, 0, 64, 40
1, 225379, Control_c, 0, 64, 41
1, 225391, Note_off_c, 0, 68, 52
1, 225394, Control_c, 0, 64, 42
1, 225409, Control_c, 0, 64, 43
1, 225424, Control_c, 0, 64, 44
1, 225439, Control_c, 0, 64, 45
1, 225454, Control_c, 0, 64, 46
1, 225468, Control_c, 0, 64, 47
1, 225483, Control_c, 0, 64, 47
1, 225498, Control_c, 0, 64, 48
1, 225513, Control_c, 0, 64, 48
1, 225558, Control_c, 0, 64, 49
1, 225573, Control_c, 0, 64, 50
1, 225581, Note_on_c, 0, 72, 69
1, 225587, Control_c, 0, 64, 51
1, 225605, Note_off_c, 0, 70, 58
1, 225632, Control_c, 0, 64, 46
1, 225647, Control_c, 0, 64, 0
1, 225765, Control_c, 0, 64, 58
1, 225779, Control_c, 0, 64, 66
1, 225794, Control_c, 0, 64, 70
1, 225809, Control_c, 0, 64, 73
1, 225824, Control_c, 0, 64, 75
1, 225825, Note_on_c, 0, 43, 47
1, 225839, Control_c, 0, 64, 79
1, 225853, Control_c, 0, 64, 81
1, 225859, Note_off_c, 0, 43, 54
1, 225868, Control_c, 0, 64, 83
1, 225883, Control_c, 0, 64, 84
1, 225898, Control_c, 0, 64, 85
1, 225913, Control_c, 0, 64, 86
1, 225935, Control_c, 0, 64, 86
1, 225950, Control_c, 0, 64, 87
1, 225965, Control_c, 0, 64, 87
1, 225966, Note_off_c, 0, 72, 63
1, 226009, Control_c, 0, 64, 88
1, 226122, Note_on_c, 0, 72, 80
1, 226127, Note_on_c, 0, 58, 48
1, 226142, Control_c, 0, 64, 87
1, 226144, Note_on_c, 0, 52, 32
1, 226157, Control_c, 0, 64, 87
1, 226187, Control_c, 0, 64, 86
1, 226202, Control_c, 0, 64, 86
1, 226336, Note_off_c, 0, 72, 56
1, 226336, Note_off_c, 0, 58, 60
1, 226365, Note_on_c, 0, 60, 54
1, 226406, Note_off_c, 0, 60, 58
1, 226471, Note_off_c, 0, 52, 55
1, 226595, Note_on_c, 0, 75, 82
1, 226647, Control_c, 0, 64, 85
1, 226661, Control_c, 0, 64, 85
1, 226684, Control_c, 0, 64, 84
1, 226699, Control_c, 0, 64, 81
1, 226714, Control_c, 0, 64, 77
1, 226729, Control_c, 0, 64, 70
1, 226743, Control_c, 0, 64, 56
1, 226758, Control_c, 0, 64, 0
1, 226813, Note_on_c, 0, 41, 53
1, 226847, Control_c, 0, 64, 38
1, 226861, Control_c, 0, 64, 65
1, 226876, Control_c, 0, 64, 71
1, 226891, Control_c, 0, 64, 76
1, 226906, Control_c, 0, 64, 79
1, 226915, Note_off_c, 0, 41, 65
1, 226921, Control_c, 0, 64, 81
1, 226935, Control_c, 0, 64, 82
1, 226950, Control_c, 0, 64, 82
1, 226965, Control_c, 0, 64, 83
1, 226980, Control_c, 0, 64, 83
1, 226995, Control_c, 0, 64, 84
1, 227011, Control_c, 0, 64, 84
1, 227026, Control_c, 0, 64, 85
1, 227160, Note_on_c, 0, 58, 46
1, 227165, Note_on_c, 0, 53, 54
1, 227203, Control_c, 0, 64, 85
1, 227205, Note_off_c, 0, 53, 66
1, 227233, Control_c, 0, 64, 86
1, 227278, Control_c, 0, 64, 86
1, 227307, Control_c, 0, 64, 87
1, 227377, Note_off_c, 0, 58, 55
1, 227396, Control_c, 0, 64, 87
1, 227397, Note_on_c, 0, 73, 77
1, 227404, Note_on_c, 0, 61, 61
1, 227450, Note_off_c, 0, 75, 61
1, 227460, Note_off_c, 0, 61, 55
1, 227497, Note_off_c, 0, 73, 59
1, 227609, Note_on_c, 0, 73, 77
1, 227640, Control_c, 0, 64, 86
1, 227655, Control_c, 0, 64, 84
1, 227670, Control_c, 0, 64, 80
1, 227684, Control_c, 0, 64, 73
1, 227699, Control_c, 0, 64, 60
1, 227714, Control_c, 0, 64, 0
1, 227796, Note_on_c, 0, 40, 62
1, 227804, Control_c, 0, 64, 56
1, 227819, Control_c, 0, 64, 67
1, 227834, Control_c, 0, 64, 71
1, 227849, Control_c, 0, 64, 76
1, 227863, Control_c, 0, 64, 78
1, 227868, Note_off_c, 0, 40, 64
1, 227878, Control_c, 0, 64, 80
1, 227893, Control_c, 0, 64, 81
1, 227907, Control_c, 0, 64, 82
1, 227922, Control_c, 0, 64, 83
1, 227937, Control_c, 0, 64, 84
1, 227952, Control_c, 0, 64, 84
1, 227967, Control_c, 0, 64, 85
1, 227981, Control_c, 0, 64, 85
1, 228002, Note_on_c, 0, 72, 81
1, 228006, Note_on_c, 0, 55, 56
1, 228032, Note_off_c, 0, 73, 54
1, 228041, Control_c, 0, 64, 86
1, 228042, Note_off_c, 0, 55, 63
1, 228071, Control_c, 0, 64, 86
1, 228217, Note_on_c, 0, 60, 78
1, 228241, Control_c, 0, 64, 87
1, 228271, Note_off_c, 0, 60, 62
1, 228489, Note_on_c, 0, 67, 62
1, 228531, Note_off_c, 0, 67, 54
1, 228537, Control_c, 0, 64, 87
1, 228566, Note_on_c, 0, 82, 90
1, 228581, Control_c, 0, 64, 88
1, 228642, Control_c, 0, 64, 88
1, 228701, Control_c, 0, 64, 89
1, 228730, Control_c, 0, 64, 89
1, 228761, Control_c, 0, 64, 90
1, 228810, Note_on_c, 0, 60, 46
1, 228820, Control_c, 0, 64, 90
1, 228884, Note_off_c, 0, 72, 45
1, 228894, Control_c, 0, 64, 91
1, 228946, Control_c, 0, 64, 91
1, 229031, Note_off_c, 0, 82, 38
1, 229035, Control_c, 0, 64, 92
1, 229094, Control_c, 0, 64, 92
1, 229109, Control_c, 0, 64, 93
1, 229112, Note_on_c, 0, 52, 50
1, 229124, Control_c, 0, 64, 93
1, 229138, Control_c, 0, 64, 94
1, 229138, Control_c, 0, 67, 112
1, 229147, Note_off_c, 0, 60, 28
1, 229153, Control_c, 0, 64, 94
1, 229153, Control_c, 0, 67, 83
1, 229168, Control_c, 0, 64, 95
1, 229168, Control_c, 0, 67, 44
1, 229183, Control_c, 0, 64, 95
1, 229183, Control_c, 0, 67, 10
1, 229198, Control_c, 0, 64, 96
1, 229198, Control_c, 0, 67, 0
1, 229212, Control_c, 0, 64, 96
1, 229227, Control_c, 0, 64, 97
1, 229242, Control_c, 0, 64, 97
1, 229257, Control_c, 0, 64, 98
1, 229272, Control_c, 0, 64, 98
1, 229287, Control_c, 0, 64, 99
1, 229289, Note_off_c, 0, 52, 44
1, 229302, Control_c, 0, 64, 100
1, 229317, Control_c, 0, 64, 100
1, 229331, Control_c, 0, 64, 101
1, 229346, Control_c, 0, 64, 101
1, 229361, Control_c, 0, 64, 102
1, 229391, Control_c, 0, 64, 102
1, 229421, Control_c, 0, 64, 103
1, 229458, Note_on_c, 0, 82, 88
1, 229463, Note_on_c, 0, 60, 42
1, 229499, Note_off_c, 0, 60, 52
1, 229510, Control_c, 0, 64, 103
1, 230169, Control_c, 0, 64, 103
1, 230214, Control_c, 0, 64, 102
1, 230258, Control_c, 0, 64, 102
1, 230288, Control_c, 0, 67, 8
1, 230302, Control_c, 0, 67, 9
1, 230317, Control_c, 0, 67, 10
1, 230332, Control_c, 0, 64, 101
1, 230332, Control_c, 0, 67, 11
1, 230347, Control_c, 0, 64, 101
1, 230362, Control_c, 0, 64, 100
1, 230362, Control_c, 0, 67, 12
1, 230376, Control_c, 0, 64, 100
1, 230376, Control_c, 0, 67, 13
1, 230391, Control_c, 0, 67, 13
1, 230406, Control_c, 0, 64, 99
1, 230406, Control_c, 0, 67, 14
1, 230429, Control_c, 0, 64, 99
1, 230429, Control_c, 0, 67, 15
1, 230444, Control_c, 0, 64, 98
1, 230444, Control_c, 0, 67, 16
1, 230458, Control_c, 0, 64, 97
1, 230458, Control_c, 0, 67, 17
1, 230461, Note_on_c, 0, 44, 37
1, 230473, Control_c, 0, 64, 96
1, 230473, Control_c, 0, 67, 19
1, 230488, Control_c, 0, 64, 92
1, 230488, Control_c, 0, 67, 21
1, 230502, Control_c, 0, 64, 86
1, 230502, Control_c, 0, 67, 24
1, 230517, Control_c, 0, 64, 79
1, 230517, Control_c, 0, 67, 28
1, 230532, Control_c, 0, 64, 68
1, 230532, Control_c, 0, 67, 33
1, 230547, Control_c, 0, 64, 50
1, 230547, Control_c, 0, 67, 39
1, 230562, Control_c, 0, 64, 0
1, 230562, Control_c, 0, 67, 45
1, 230576, Control_c, 0, 67, 54
1, 230591, Control_c, 0, 67, 61
1, 230606, Control_c, 0, 64, 58
1, 230606, Control_c, 0, 67, 68
1, 230621, Control_c, 0, 64, 67
1, 230621, Control_c, 0, 67, 74
1, 230636, Control_c, 0, 64, 71
1, 230636, Control_c, 0, 67, 80
1, 230650, Control_c, 0, 64, 75
1, 230650, Control_c, 0, 67, 86
1, 230665, Control_c, 0, 64, 78
1, 230665, Control_c, 0, 67, 91
1, 230680, Control_c, 0, 64, 80
1, 230680, Control_c, 0, 67, 97
1, 230695, Control_c, 0, 64, 81
1, 230695, Control_c, 0, 67, 101
1, 230709, Control_c, 0, 64, 81
1, 230709, Control_c, 0, 67, 106
1, 230724, Control_c, 0, 64, 82
1, 230724, Control_c, 0, 67, 109
1, 230739, Control_c, 0, 64, 83
1, 230739, Control_c, 0, 67, 111
1, 230754, Control_c, 0, 64, 84
1, 230754, Control_c, 0, 67, 113
1, 230769, Control_c, 0, 64, 85
1, 230769, Control_c, 0, 67, 114
1, 230783, Control_c, 0, 64, 86
1, 230783, Control_c, 0, 67, 114
1, 230798, Control_c, 0, 64, 87
1, 230798, Control_c, 0, 67, 115
1, 230813, Control_c, 0, 64, 88
1, 230813, Control_c, 0, 67, 116
1, 230828, Control_c, 0, 64, 88
1, 230828, Control_c, 0, 67, 117
1, 230843, Control_c, 0, 67, 118
1, 230858, Control_c, 0, 64, 89
1, 230858, Control_c, 0, 67, 118
1, 230888, Control_c, 0, 64, 89
1, 230888, Control_c, 0, 67, 119
1, 230929, Note_off_c, 0, 82, 58
1, 230962, Note_on_c, 0, 52, 34
1, 230965, Note_on_c, 0, 81, 60
1, 230991, Control_c, 0, 64, 90
1, 231013, Note_off_c, 0, 44, 36
1, 231096, Control_c, 0, 67, 118
1, 231120, Note_off_c, 0, 52, 35
1, 231125, Control_c, 0, 64, 90
1, 231192, Control_c, 0, 67, 118
1, 231236, Control_c, 0, 67, 117
1, 231263, Note_on_c, 0, 59, 39
1, 231271, Note_on_c, 0, 80, 69
1, 231281, Control_c, 0, 64, 91
1, 231281, Control_c, 0, 67, 116
1, 231296, Control_c, 0, 67, 115
1, 231311, Control_c, 0, 67, 114
1, 231326, Note_off_c, 0, 59, 61
1, 231329, Note_off_c, 0, 81, 35
1, 231340, Control_c, 0, 64, 91
1, 231370, Control_c, 0, 64, 92
1, 231385, Control_c, 0, 67, 114
1, 231399, Control_c, 0, 67, 115
1, 231444, Control_c, 0, 67, 115
1, 231488, Control_c, 0, 67, 116
1, 231532, Control_c, 0, 67, 116
1, 231548, Note_on_c, 0, 71, 63
1, 231555, Note_off_c, 0, 80, 59
1, 231561, Note_on_c, 0, 68, 49
1, 231591, Note_off_c, 0, 68, 59
1, 231592, Control_c, 0, 67, 117
1, 231621, Control_c, 0, 67, 117
1, 231666, Control_c, 0, 67, 118
1, 231904, Control_c, 0, 64, 91
1, 231927, Control_c, 0, 64, 91
1, 231942, Control_c, 0, 64, 89
1, 231956, Control_c, 0, 64, 87
1, 231960, Note_on_c, 0, 78, 74
1, 231971, Control_c, 0, 64, 80
1, 231976, Note_off_c, 0, 71, 53
1, 231979, Note_on_c, 0, 46, 42
1, 231986, Control_c, 0, 64, 70
1, 232001, Control_c, 0, 64, 33
1, 232016, Control_c, 0, 64, 0
1, 232060, Control_c, 0, 67, 117
1, 232089, Control_c, 0, 64, 31
1, 232104, Control_c, 0, 64, 65
1, 232119, Control_c, 0, 64, 70
1, 232134, Control_c, 0, 64, 73
1, 232149, Control_c, 0, 64, 77
1, 232164, Control_c, 0, 64, 80
1, 232178, Control_c, 0, 64, 81
1, 232193, Control_c, 0, 64, 83
1, 232193, Control_c, 0, 67, 118
1, 232208, Control_c, 0, 64, 84
1, 232223, Control_c, 0, 64, 85
1, 232223, Control_c, 0, 67, 118
1, 232238, Control_c, 0, 64, 86
1, 232243, Note_off_c, 0, 46, 40
1, 232253, Control_c, 0, 64, 87
1, 232268, Control_c, 0, 64, 87
1, 232282, Control_c, 0, 64, 88
1, 232282, Control_c, 0, 67, 119
1, 232297, Control_c, 0, 67, 119
1, 232312, Control_c, 0, 64, 88
1, 232312, Control_c, 0, 67, 120
1, 232327, Control_c, 0, 67, 120
1, 232342, Control_c, 0, 67, 123
1, 232356, Control_c, 0, 67, 127
1, 232384, Note_on_c, 0, 56, 35
1, 232616, Note_off_c, 0, 78, 35
1, 232793, Note_on_c, 0, 62, 32
1, 233043, Note_off_c, 0, 62, 35
1, 233326, Note_off_c, 0, 56, 37
1, 233543, Note_on_c, 0, 77, 50
1, 233823, Control_c, 0, 64, 88
1, 233824, Note_off_c, 0, 77, 47
1, 233838, Control_c, 0, 64, 87
1, 233851, Note_on_c, 0, 39, 31
1, 233852, Control_c, 0, 64, 84
1, 233860, Note_on_c, 0, 75, 48
1, 233867, Control_c, 0, 64, 78
1, 233882, Control_c, 0, 64, 65
1, 233897, Control_c, 0, 64, 0
1, 234000, Control_c, 0, 64, 63
1, 234015, Control_c, 0, 64, 69
1, 234030, Control_c, 0, 64, 73
1, 234044, Control_c, 0, 64, 76
1, 234059, Control_c, 0, 64, 78
1, 234074, Control_c, 0, 64, 80
1, 234089, Control_c, 0, 64, 81
1, 234104, Control_c, 0, 64, 82
1, 234119, Control_c, 0, 64, 83
1, 234134, Control_c, 0, 64, 84
1, 234141, Note_on_c, 0, 46, 36
1, 234149, Control_c, 0, 64, 85
1, 234171, Control_c, 0, 64, 86
1, 234186, Control_c, 0, 64, 86
1, 234201, Note_off_c, 0, 39, 23
1, 234202, Control_c, 0, 64, 87
1, 234215, Note_off_c, 0, 46, 50
1, 234246, Control_c, 0, 64, 87
1, 234261, Control_c, 0, 64, 88
1, 234364, Control_c, 0, 64, 88
1, 234442, Note_on_c, 0, 54, 34
1, 234551, Note_off_c, 0, 54, 34
1, 234755, Note_on_c, 0, 58, 22
1, 234891, Note_off_c, 0, 58, 38
1, 235183, Note_on_c, 0, 63, 22
1, 235288, Note_off_c, 0, 63, 40
1, 235839, Note_off_c, 0, 75, 56
1, 235967, Control_c, 0, 64, 88
1, 236026, Control_c, 0, 64, 87
1, 236055, Control_c, 0, 64, 87
1, 236114, Control_c, 0, 64, 86
1, 236144, Control_c, 0, 64, 86
1, 236174, Control_c, 0, 64, 85
1, 236203, Control_c, 0, 64, 85
1, 236233, Control_c, 0, 64, 84
1, 236262, Control_c, 0, 64, 84
1, 236277, Control_c, 0, 64, 83
1, 236307, Control_c, 0, 64, 83
1, 236321, Control_c, 0, 64, 82
1, 236336, Control_c, 0, 64, 82
1, 236351, Control_c, 0, 64, 81
1, 236366, Control_c, 0, 64, 80
1, 236381, Control_c, 0, 64, 79
1, 236395, Control_c, 0, 64, 77
1, 236410, Control_c, 0, 64, 75
1, 236432, Control_c, 0, 64, 73
1, 236447, Control_c, 0, 64, 69
1, 236462, Control_c, 0, 64, 66
1, 236477, Control_c, 0, 64, 63
1, 236492, Control_c, 0, 64, 59
1, 236507, Control_c, 0, 64, 50
1, 236521, Control_c, 0, 64, 22
1, 236536, Control_c, 0, 64, 0
1, 236670, Control_c, 0, 64, 14
1, 236685, Control_c, 0, 64, 25
1, 236685, Control_c, 0, 67, 114
1, 236700, Control_c, 0, 64, 37
1, 236700, Control_c, 0, 67, 99
1, 236715, Control_c, 0, 64, 50
1, 236715, Control_c, 0, 67, 83
1, 236730, Control_c, 0, 64, 59
1, 236730, Control_c, 0, 67, 68
1, 236744, Control_c, 0, 64, 64
1, 236744, Control_c, 0, 67, 53
1, 236759, Control_c, 0, 64, 66
1, 236759, Control_c, 0, 67, 41
1, 236774, Control_c, 0, 64, 68
1, 236774, Control_c, 0, 67, 31
1, 236789, Control_c, 0, 64, 69
1, 236789, Control_c, 0, 67, 22
1, 236804, Control_c, 0, 64, 71
1, 236804, Control_c, 0, 67, 15
1, 236807, Note_on_c, 0, 63, 73
1, 236818, Control_c, 0, 64, 74
1, 236818, Control_c, 0, 67, 10
1, 236833, Control_c, 0, 64, 77
1, 236833, Control_c, 0, 67, 0
1, 236848, Control_c, 0, 64, 79
1, 236862, Control_c, 0, 64, 80
1, 236877, Control_c, 0, 64, 81
1, 236882, Note_off_c, 0, 63, 57
1, 236892, Control_c, 0, 64, 81
1, 236936, Control_c, 0, 64, 82
1, 237040, Control_c, 0, 64, 81
1, 237042, Note_on_c, 0, 63, 80
1, 237055, Control_c, 0, 64, 77
1, 237070, Control_c, 0, 64, 70
1, 237085, Control_c, 0, 64, 52
1, 237100, Control_c, 0, 64, 0
1, 237181, Control_c, 0, 64, 61
1, 237195, Control_c, 0, 64, 68
1, 237210, Control_c, 0, 64, 71
1, 237225, Control_c, 0, 64, 74
1, 237240, Control_c, 0, 64, 76
1, 237255, Control_c, 0, 64, 78
1, 237270, Control_c, 0, 64, 79
1, 237277, Note_on_c, 0, 75, 55
1, 237285, Control_c, 0, 64, 80
1, 237300, Control_c, 0, 64, 82
1, 237300, Control_c, 0, 67, 8
1, 237314, Note_off_c, 0, 75, 66
1, 237315, Control_c, 0, 64, 83
1, 237315, Control_c, 0, 67, 21
1, 237329, Control_c, 0, 64, 84
1, 237329, Control_c, 0, 67, 58
1, 237331, Note_off_c, 0, 63, 63
1, 237338, Note_on_c, 0, 40, 43
1, 237344, Control_c, 0, 67, 118
1, 237359, Control_c, 0, 67, 127
1, 237374, Control_c, 0, 64, 84
1, 237389, Control_c, 0, 64, 85
1, 237419, Control_c, 0, 64, 85
1, 237425, Note_off_c, 0, 40, 39
1, 237434, Control_c, 0, 64, 86
1, 237461, Note_on_c, 0, 54, 48
1, 237464, Control_c, 0, 64, 86
1, 237478, Control_c, 0, 64, 87
1, 237493, Control_c, 0, 64, 87
1, 237508, Control_c, 0, 64, 88
1, 237523, Note_off_c, 0, 54, 58
1, 237532, Note_on_c, 0, 66, 55
1, 237553, Control_c, 0, 64, 88
1, 237556, Note_on_c, 0, 58, 39
1, 237582, Control_c, 0, 64, 89
1, 237597, Control_c, 0, 64, 89
1, 237611, Note_off_c, 0, 58, 43
1, 237641, Control_c, 0, 64, 90
1, 237750, Note_off_c, 0, 66, 39
1, 237762, Note_on_c, 0, 70, 57
1, 237789, Control_c, 0, 64, 90
1, 237809, Note_off_c, 0, 70, 52
1, 237974, Control_c, 0, 64, 90
1, 237982, Note_on_c, 0, 68, 77
1, 237989, Control_c, 0, 64, 85
1, 238004, Control_c, 0, 64, 76
1, 238018, Control_c, 0, 64, 64
1, 238033, Control_c, 0, 64, 0
1, 238107, Control_c, 0, 64, 57
1, 238122, Control_c, 0, 64, 67
1, 238137, Control_c, 0, 64, 71
1, 238152, Control_c, 0, 64, 75
1, 238167, Control_c, 0, 64, 78
1, 238182, Control_c, 0, 64, 80
1, 238197, Control_c, 0, 64, 81
1, 238212, Control_c, 0, 64, 82
1, 238219, Note_on_c, 0, 80, 46
1, 238227, Control_c, 0, 64, 84
1, 238242, Control_c, 0, 64, 85
1, 238255, Note_off_c, 0, 80, 51
1, 238256, Control_c, 0, 64, 86
1, 238271, Control_c, 0, 64, 86
1, 238286, Control_c, 0, 64, 87
1, 238301, Control_c, 0, 64, 87
1, 238335, Note_on_c, 0, 52, 24
1, 238346, Control_c, 0, 64, 88
1, 238376, Control_c, 0, 64, 88
1, 238383, Note_on_c, 0, 58, 27
1, 238429, Note_on_c, 0, 61, 39
1, 238449, Note_on_c, 0, 70, 43
1, 238492, Note_off_c, 0, 68, 39
1, 238514, Note_off_c, 0, 52, 42
1, 238538, Note_off_c, 0, 61, 57
1, 238588, Note_off_c, 0, 58, 31
1, 238649, Note_off_c, 0, 70, 35
1, 238718, Note_on_c, 0, 73, 42
1, 238791, Note_on_c, 0, 67, 58
1, 238829, Note_off_c, 0, 67, 61
1, 238835, Note_off_c, 0, 73, 34
1, 238857, Control_c, 0, 64, 88
1, 238872, Control_c, 0, 64, 86
1, 238887, Control_c, 0, 64, 81
1, 238902, Control_c, 0, 64, 72
1, 238908, Note_on_c, 0, 67, 64
1, 238916, Control_c, 0, 64, 58
1, 238931, Control_c, 0, 64, 0
1, 239021, Control_c, 0, 64, 63
1, 239036, Control_c, 0, 64, 68
1, 239051, Control_c, 0, 64, 72
1, 239065, Control_c, 0, 64, 75
1, 239080, Control_c, 0, 64, 77
1, 239095, Control_c, 0, 64, 78
1, 239110, Control_c, 0, 64, 79
1, 239125, Control_c, 0, 64, 80
1, 239139, Control_c, 0, 64, 81
1, 239154, Control_c, 0, 64, 82
1, 239159, Note_on_c, 0, 79, 36
1, 239184, Control_c, 0, 64, 82
1, 239273, Control_c, 0, 64, 83
1, 239390, Note_on_c, 0, 59, 31
1, 239392, Note_on_c, 0, 51, 31
1, 239401, Note_on_c, 0, 71, 34
1, 239419, Note_on_c, 0, 63, 21
1, 239428, Note_off_c, 0, 79, 31
1, 239696, Note_on_c, 0, 75, 31
1, 239796, Note_off_c, 0, 71, 37
1, 239887, Note_off_c, 0, 75, 41
1, 240120, Note_off_c, 0, 51, 27
1, 240176, Note_off_c, 0, 63, 37
1, 240239, Note_off_c, 0, 67, 53
1, 240343, Note_off_c, 0, 59, 29
1, 240585, Note_on_c, 0, 66, 45
1, 240703, Note_off_c, 0, 66, 54
1, 240844, Control_c, 0, 64, 82
1, 240859, Control_c, 0, 64, 79
1, 240865, Note_on_c, 0, 59, 63
1, 240874, Control_c, 0, 64, 72
1, 240889, Control_c, 0, 64, 56
1, 240910, Control_c, 0, 64, 0
1, 240970, Control_c, 0, 64, 51
1, 240985, Control_c, 0, 64, 67
1, 240999, Control_c, 0, 64, 72
1, 241014, Control_c, 0, 64, 77
1, 241029, Control_c, 0, 64, 79
1, 241044, Control_c, 0, 64, 79
1, 241084, Note_off_c, 0, 59, 61
1, 241103, Control_c, 0, 64, 76
1, 241106, Note_on_c, 0, 61, 72
1, 241118, Control_c, 0, 64, 68
1, 241133, Control_c, 0, 64, 34
1, 241148, Control_c, 0, 64, 0
1, 241192, Control_c, 0, 64, 49
1, 241207, Control_c, 0, 64, 68
1, 241222, Control_c, 0, 64, 75
1, 241234, Note_off_c, 0, 61, 63
1, 241236, Control_c, 0, 64, 82
1, 241251, Control_c, 0, 64, 85
1, 241344, Note_on_c, 0, 63, 71
1, 241354, Control_c, 0, 64, 84
1, 241369, Control_c, 0, 64, 81
1, 241386, Control_c, 0, 64, 73
1, 241401, Control_c, 0, 64, 59
1, 241415, Control_c, 0, 64, 0
1, 241489, Control_c, 0, 64, 26
1, 241504, Control_c, 0, 64, 64
1, 241519, Control_c, 0, 64, 68
1, 241533, Control_c, 0, 64, 72
1, 241548, Control_c, 0, 64, 75
1, 241563, Control_c, 0, 64, 77
1, 241578, Control_c, 0, 64, 78
1, 241584, Note_on_c, 0, 75, 49
1, 241593, Control_c, 0, 64, 79
1, 241607, Control_c, 0, 64, 80
1, 241622, Control_c, 0, 64, 81
1, 241623, Note_on_c, 0, 40, 42
1, 241637, Control_c, 0, 64, 82
1, 241659, Control_c, 0, 64, 84
1, 241674, Control_c, 0, 64, 84
1, 241679, Note_off_c, 0, 40, 48
1, 241689, Control_c, 0, 64, 85
1, 241704, Control_c, 0, 64, 86
1, 241719, Control_c, 0, 64, 87
1, 241733, Control_c, 0, 64, 88
1, 241761, Note_on_c, 0, 54, 45
1, 241763, Control_c, 0, 64, 88
1, 241807, Note_off_c, 0, 75, 31
1, 241815, Note_off_c, 0, 54, 52
1, 241856, Note_off_c, 0, 63, 37
1, 241926, Control_c, 0, 64, 89
1, 241954, Note_on_c, 0, 58, 43
1, 242000, Control_c, 0, 64, 89
1, 242027, Note_on_c, 0, 63, 76
1, 242030, Control_c, 0, 64, 90
1, 242042, Note_off_c, 0, 58, 55
1, 242052, Note_on_c, 0, 66, 55
1, 242127, Note_off_c, 0, 66, 38
1, 242163, Control_c, 0, 64, 90
1, 242305, Note_off_c, 0, 63, 57
1, 242321, Note_on_c, 0, 70, 50
1, 242398, Note_off_c, 0, 70, 57
1, 242586, Note_on_c, 0, 68, 75
1, 242616, Control_c, 0, 64, 89
1, 242631, Control_c, 0, 64, 87
1, 242646, Control_c, 0, 64, 81
1, 242661, Control_c, 0, 64, 71
1, 242676, Control_c, 0, 64, 0
1, 242779, Control_c, 0, 64, 63
1, 242794, Control_c, 0, 64, 68
1, 242808, Control_c, 0, 64, 71
1, 242823, Control_c, 0, 64, 73
1, 242838, Control_c, 0, 64, 75
1, 242853, Control_c, 0, 64, 78
1, 242854, Note_on_c, 0, 80, 42
1, 242868, Control_c, 0, 64, 81
1, 242883, Control_c, 0, 64, 84
1, 242898, Control_c, 0, 64, 86
1, 242913, Control_c, 0, 64, 87
1, 242928, Control_c, 0, 64, 88
1, 242942, Control_c, 0, 64, 89
1, 242951, Note_off_c, 0, 80, 40
1, 242957, Control_c, 0, 64, 89
1, 243032, Control_c, 0, 64, 90
1, 243109, Note_on_c, 0, 70, 48
1, 243111, Note_on_c, 0, 58, 31
1, 243114, Note_on_c, 0, 52, 30
1, 243124, Note_on_c, 0, 61, 31
1, 243285, Note_off_c, 0, 68, 39
1, 243432, Note_on_c, 0, 73, 23
1, 243437, Note_off_c, 0, 70, 33
1, 243444, Note_off_c, 0, 52, 38
1, 243509, Note_off_c, 0, 61, 28
1, 243517, Note_on_c, 0, 67, 54
1, 243529, Note_off_c, 0, 73, 29
1, 243554, Note_off_c, 0, 67, 59
1, 243596, Note_off_c, 0, 58, 37
1, 243602, Control_c, 0, 64, 89
1, 243617, Control_c, 0, 64, 89
1, 243631, Control_c, 0, 64, 88
1, 243646, Control_c, 0, 64, 85
1, 243649, Note_on_c, 0, 67, 56
1, 243661, Control_c, 0, 64, 80
1, 243676, Control_c, 0, 64, 71
1, 243691, Control_c, 0, 64, 52
1, 243706, Control_c, 0, 64, 0
1, 243796, Control_c, 0, 64, 42
1, 243810, Control_c, 0, 64, 65
1, 243825, Control_c, 0, 64, 69
1, 243840, Control_c, 0, 64, 71
1, 243855, Control_c, 0, 64, 72
1, 243870, Control_c, 0, 64, 74
1, 243884, Control_c, 0, 64, 76
1, 243899, Control_c, 0, 64, 77
1, 243922, Control_c, 0, 64, 79
1, 243923, Note_on_c, 0, 79, 34
1, 243936, Control_c, 0, 64, 80
1, 243951, Control_c, 0, 64, 81
1, 243966, Control_c, 0, 64, 82
1, 243981, Control_c, 0, 64, 82
1, 243995, Control_c, 0, 64, 83
1, 244025, Control_c, 0, 64, 84
1, 244114, Control_c, 0, 64, 84
1, 244194, Note_on_c, 0, 51, 25
1, 244195, Note_on_c, 0, 71, 30
1, 244208, Note_on_c, 0, 59, 25
1, 244218, Note_on_c, 0, 63, 12
1, 244243, Note_off_c, 0, 79, 33
1, 244515, Note_on_c, 0, 75, 29
1, 244615, Note_off_c, 0, 71, 35
1, 244761, Note_off_c, 0, 75, 39
1, 244805, Note_off_c, 0, 63, 33
1, 244842, Note_off_c, 0, 51, 29
1, 245169, Note_off_c, 0, 59, 29
1, 245470, Note_on_c, 0, 66, 42
1, 245478, Note_off_c, 0, 67, 39
1, 245641, Note_off_c, 0, 66, 33
1, 245715, Control_c, 0, 64, 84
1, 245730, Note_on_c, 0, 65, 62
1, 245730, Control_c, 0, 64, 82
1, 245745, Control_c, 0, 64, 76
1, 245759, Control_c, 0, 64, 68
1, 245774, Control_c, 0, 64, 53
1, 245789, Control_c, 0, 64, 0
1, 245804, Control_c, 0, 64, 44
1, 245819, Control_c, 0, 64, 59
1, 245833, Control_c, 0, 64, 66
1, 245848, Control_c, 0, 64, 70
1, 245863, Control_c, 0, 64, 75
1, 245878, Control_c, 0, 64, 78
1, 245885, Note_off_c, 0, 65, 61
1, 245893, Control_c, 0, 64, 80
1, 245907, Control_c, 0, 64, 80
1, 245952, Control_c, 0, 64, 79
1, 245967, Control_c, 0, 64, 73
1, 245972, Note_on_c, 0, 64, 73
1, 245981, Control_c, 0, 64, 64
1, 245996, Control_c, 0, 64, 0
1, 246055, Control_c, 0, 64, 62
1, 246070, Control_c, 0, 64, 71
1, 246085, Control_c, 0, 64, 77
1, 246095, Note_off_c, 0, 64, 61
1, 246099, Control_c, 0, 64, 81
1, 246114, Control_c, 0, 64, 82
1, 246151, Control_c, 0, 64, 83
1, 246210, Note_on_c, 0, 63, 70
1, 246227, Control_c, 0, 64, 82
1, 246242, Control_c, 0, 64, 77
1, 246256, Control_c, 0, 64, 68
1, 246271, Control_c, 0, 64, 0
1, 246352, Note_on_c, 0, 49, 35
1, 246419, Control_c, 0, 64, 57
1, 246434, Control_c, 0, 64, 70
1, 246448, Control_c, 0, 64, 76
1, 246463, Control_c, 0, 64, 83
1, 246475, Note_on_c, 0, 67, 41
1, 246478, Control_c, 0, 64, 89
1, 246489, Note_on_c, 0, 75, 53
1, 246493, Control_c, 0, 64, 97
1, 246508, Control_c, 0, 64, 106
1, 246523, Control_c, 0, 64, 108
1, 246537, Control_c, 0, 64, 108
1, 246552, Control_c, 0, 64, 109
1, 246567, Control_c, 0, 64, 110
1, 246577, Note_off_c, 0, 63, 63
1, 246581, Note_off_c, 0, 67, 58
1, 246582, Control_c, 0, 64, 111
1, 246597, Control_c, 0, 64, 113
1, 246612, Control_c, 0, 64, 114
1, 246627, Control_c, 0, 64, 115
1, 246642, Control_c, 0, 64, 115
1, 246671, Control_c, 0, 64, 116
1, 246713, Note_off_c, 0, 75, 51
1, 246744, Control_c, 0, 64, 116
1, 246758, Note_off_c, 0, 49, 35
1, 246788, Note_on_c, 0, 55, 38
1, 246788, Control_c, 0, 64, 117
1, 246813, Note_on_c, 0, 63, 36
1, 246892, Control_c, 0, 64, 117
1, 246895, Note_on_c, 0, 71, 80
1, 246929, Control_c, 0, 64, 118
1, 246944, Control_c, 0, 64, 118
1, 246959, Control_c, 0, 64, 119
1, 246961, Note_off_c, 0, 63, 43
1, 246975, Control_c, 0, 64, 119
1, 246990, Control_c, 0, 64, 120
1, 247005, Control_c, 0, 64, 120
1, 247020, Control_c, 0, 64, 121
1, 247056, Note_off_c, 0, 55, 42
1, 247093, Control_c, 0, 64, 121
1, 247152, Control_c, 0, 64, 122
1, 247155, Note_on_c, 0, 75, 53
1, 247160, Note_off_c, 0, 71, 57
1, 247165, Note_on_c, 0, 83, 28
1, 247167, Control_c, 0, 64, 123
1, 247182, Control_c, 0, 64, 125
1, 247196, Control_c, 0, 64, 127
1, 247197, Note_off_c, 0, 83, 32
1, 247202, Note_off_c, 0, 75, 58
1, 247348, Note_on_c, 0, 70, 73
1, 247390, Control_c, 0, 64, 118
1, 247404, Control_c, 0, 64, 102
1, 247419, Control_c, 0, 64, 85
1, 247434, Control_c, 0, 64, 67
1, 247449, Control_c, 0, 64, 0
1, 247488, Note_on_c, 0, 47, 37
1, 247508, Control_c, 0, 64, 64
1, 247523, Control_c, 0, 64, 71
1, 247538, Control_c, 0, 64, 78
1, 247552, Control_c, 0, 64, 86
1, 247567, Control_c, 0, 64, 90
1, 247572, Note_off_c, 0, 47, 50
1, 247582, Control_c, 0, 64, 93
1, 247596, Control_c, 0, 64, 94
1, 247611, Control_c, 0, 64, 94
1, 247626, Control_c, 0, 64, 95
1, 247636, Note_on_c, 0, 82, 37
1, 247641, Control_c, 0, 64, 96
1, 247652, Note_on_c, 0, 75, 38
1, 247664, Control_c, 0, 64, 98
1, 247678, Control_c, 0, 64, 99
1, 247693, Control_c, 0, 64, 99
1, 247694, Note_off_c, 0, 82, 45
1, 247708, Control_c, 0, 64, 100
1, 247723, Control_c, 0, 64, 100
1, 247752, Control_c, 0, 64, 101
1, 247754, Note_off_c, 0, 70, 52
1, 247783, Control_c, 0, 64, 101
1, 247803, Note_off_c, 0, 75, 38
1, 247813, Control_c, 0, 64, 102
1, 247872, Control_c, 0, 64, 102
1, 247873, Note_on_c, 0, 56, 44
1, 247876, Note_on_c, 0, 63, 45
1, 247950, Note_off_c, 0, 56, 48
1, 247970, Note_off_c, 0, 63, 59
1, 247975, Control_c, 0, 64, 103
1, 248064, Note_on_c, 0, 68, 73
1, 248093, Control_c, 0, 64, 103
1, 248132, Note_off_c, 0, 68, 62
1, 248256, Note_on_c, 0, 68, 71
1, 248272, Control_c, 0, 64, 102
1, 248287, Control_c, 0, 64, 96
1, 248302, Control_c, 0, 64, 85
1, 248317, Control_c, 0, 64, 67
1, 248332, Control_c, 0, 64, 0
1, 248367, Note_on_c, 0, 48, 38
1, 248391, Control_c, 0, 64, 44
1, 248413, Control_c, 0, 64, 68
1, 248427, Control_c, 0, 64, 78
1, 248442, Control_c, 0, 64, 86
1, 248444, Note_off_c, 0, 48, 58
1, 248457, Control_c, 0, 64, 90
1, 248472, Control_c, 0, 64, 91
1, 248487, Control_c, 0, 64, 91
1, 248496, Note_on_c, 0, 75, 43
1, 248502, Control_c, 0, 64, 92
1, 248514, Note_on_c, 0, 80, 23
1, 248517, Control_c, 0, 64, 94
1, 248532, Control_c, 0, 64, 96
1, 248547, Control_c, 0, 64, 96
1, 248550, Note_off_c, 0, 80, 46
1, 248561, Control_c, 0, 64, 97
1, 248567, Note_off_c, 0, 75, 52
1, 248574, Note_off_c, 0, 68, 58
1, 248702, Note_on_c, 0, 66, 71
1, 248710, Note_on_c, 0, 57, 45
1, 248725, Note_on_c, 0, 63, 42
1, 248755, Control_c, 0, 64, 95
1, 248770, Control_c, 0, 64, 89
1, 248785, Control_c, 0, 64, 80
1, 248799, Control_c, 0, 64, 68
1, 248814, Control_c, 0, 64, 60
1, 248829, Control_c, 0, 64, 62
1, 248844, Control_c, 0, 64, 66
1, 248858, Control_c, 0, 64, 71
1, 248873, Control_c, 0, 64, 75
1, 248888, Control_c, 0, 64, 79
1, 248903, Control_c, 0, 64, 82
1, 248915, Note_on_c, 0, 75, 44
1, 248917, Control_c, 0, 64, 83
1, 248930, Note_on_c, 0, 78, 32
1, 248932, Control_c, 0, 64, 83
1, 248947, Control_c, 0, 64, 84
1, 248962, Control_c, 0, 64, 84
1, 248975, Note_off_c, 0, 63, 41
1, 248976, Note_off_c, 0, 78, 43
1, 248976, Control_c, 0, 64, 85
1, 248991, Control_c, 0, 64, 86
1, 249006, Control_c, 0, 64, 87
1, 249036, Control_c, 0, 64, 87
1, 249045, Note_off_c, 0, 66, 58
1, 249095, Note_on_c, 0, 65, 67
1, 249097, Note_off_c, 0, 75, 55
1, 249125, Control_c, 0, 64, 87
1, 249147, Control_c, 0, 64, 86
1, 249162, Control_c, 0, 64, 82
1, 249176, Control_c, 0, 64, 77
1, 249191, Control_c, 0, 64, 68
1, 249206, Control_c, 0, 64, 57
1, 249221, Control_c, 0, 64, 0
1, 249223, Note_off_c, 0, 57, 34
1, 249288, Note_on_c, 0, 49, 28
1, 249436, Note_on_c, 0, 69, 21
1, 249444, Control_c, 0, 64, 48
1, 249446, Note_on_c, 0, 77, 45
1, 249459, Control_c, 0, 64, 62
1, 249474, Control_c, 0, 64, 65
1, 249489, Control_c, 0, 64, 67
1, 249503, Control_c, 0, 64, 70
1, 249518, Control_c, 0, 64, 74
1, 249533, Control_c, 0, 64, 78
1, 249548, Control_c, 0, 64, 81
1, 249563, Control_c, 0, 64, 83
1, 249578, Control_c, 0, 64, 84
1, 249593, Control_c, 0, 64, 85
1, 249607, Control_c, 0, 64, 86
1, 249622, Control_c, 0, 64, 87
1, 249637, Control_c, 0, 64, 88
1, 249648, Note_off_c, 0, 77, 54
1, 249652, Control_c, 0, 64, 88
1, 249681, Control_c, 0, 64, 89
1, 249712, Note_on_c, 0, 57, 28
1, 249715, Note_off_c, 0, 69, 47
1, 249718, Note_on_c, 0, 61, 30
1, 249741, Control_c, 0, 64, 89
1, 249799, Control_c, 0, 64, 90
1, 249813, Note_off_c, 0, 61, 50
1, 249829, Note_off_c, 0, 65, 38
1, 249863, Note_off_c, 0, 57, 37
1, 249873, Control_c, 0, 64, 90
1, 250050, Note_on_c, 0, 64, 63
1, 250183, Note_off_c, 0, 64, 59
1, 250218, Note_off_c, 0, 49, 38
1, 250237, Control_c, 0, 64, 91
1, 250318, Note_on_c, 0, 61, 70
1, 250371, Control_c, 0, 64, 90
1, 250386, Control_c, 0, 64, 85
1, 250401, Control_c, 0, 64, 76
1, 250416, Control_c, 0, 64, 65
1, 250430, Control_c, 0, 64, 0
1, 250475, Control_c, 0, 64, 22
1, 250490, Control_c, 0, 64, 63
1, 250504, Control_c, 0, 64, 67
1, 250519, Control_c, 0, 64, 71
1, 250534, Control_c, 0, 64, 73
1, 250549, Control_c, 0, 64, 76
1, 250564, Control_c, 0, 64, 79
1, 250578, Control_c, 0, 64, 81
1, 250579, Note_on_c, 0, 64, 43
1, 250593, Control_c, 0, 64, 82
1, 250608, Control_c, 0, 64, 84
1, 250622, Control_c, 0, 64, 85
1, 250645, Control_c, 0, 64, 86
1, 250660, Control_c, 0, 64, 87
1, 250675, Control_c, 0, 64, 88
1, 250690, Control_c, 0, 64, 88
1, 250690, Note_on_c, 0, 40, 42
1, 250696, Note_off_c, 0, 64, 55
1, 250704, Control_c, 0, 64, 89
1, 250719, Control_c, 0, 64, 90
1, 250723, Note_off_c, 0, 40, 57
1, 250729, Note_off_c, 0, 61, 32
1, 250734, Control_c, 0, 64, 90
1, 250748, Control_c, 0, 64, 91
1, 250763, Control_c, 0, 64, 92
1, 250778, Control_c, 0, 64, 92
1, 250793, Control_c, 0, 64, 93
1, 250822, Control_c, 0, 64, 93
1, 250852, Control_c, 0, 64, 94
1, 250882, Control_c, 0, 64, 94
1, 250911, Control_c, 0, 64, 95
1, 250940, Control_c, 0, 64, 95
1, 250949, Note_on_c, 0, 57, 40
1, 250972, Control_c, 0, 64, 96
1, 251003, Note_off_c, 0, 57, 49
1, 251045, Control_c, 0, 64, 96
1, 251046, Note_on_c, 0, 73, 76
1, 251054, Note_on_c, 0, 69, 58
1, 251056, Note_on_c, 0, 61, 32
1, 251219, Note_off_c, 0, 61, 21
1, 251358, Note_on_c, 0, 64, 39
1, 251385, Control_c, 0, 64, 95
1, 251408, Control_c, 0, 64, 88
1, 251423, Control_c, 0, 64, 76
1, 251438, Control_c, 0, 64, 61
1, 251452, Control_c, 0, 64, 0
1, 251481, Note_on_c, 0, 40, 35
1, 251497, Control_c, 0, 64, 63
1, 251512, Control_c, 0, 64, 70
1, 251526, Note_off_c, 0, 64, 57
1, 251526, Control_c, 0, 64, 77
1, 251541, Control_c, 0, 64, 83
1, 251556, Control_c, 0, 64, 86
1, 251559, Note_off_c, 0, 40, 60
1, 251570, Control_c, 0, 64, 87
1, 251600, Control_c, 0, 64, 87
1, 251615, Control_c, 0, 64, 88
1, 251630, Control_c, 0, 64, 88
1, 251644, Control_c, 0, 64, 89
1, 251650, Note_off_c, 0, 73, 35
1, 251659, Control_c, 0, 64, 90
1, 251674, Control_c, 0, 64, 91
1, 251759, Note_on_c, 0, 73, 68
1, 251770, Note_off_c, 0, 69, 56
1, 251787, Note_on_c, 0, 62, 42
1, 251793, Control_c, 0, 64, 89
1, 251795, Note_on_c, 0, 65, 33
1, 251800, Note_on_c, 0, 56, 34
1, 251808, Control_c, 0, 64, 87
1, 251823, Control_c, 0, 64, 83
1, 251838, Control_c, 0, 64, 80
1, 251853, Control_c, 0, 64, 77
1, 251867, Control_c, 0, 64, 75
1, 251882, Control_c, 0, 64, 75
1, 251897, Control_c, 0, 64, 74
1, 251957, Control_c, 0, 64, 75
1, 251972, Control_c, 0, 64, 76
1, 251987, Control_c, 0, 64, 77
1, 252001, Control_c, 0, 64, 78
1, 252016, Control_c, 0, 64, 78
1, 252026, Note_off_c, 0, 56, 40
1, 252031, Control_c, 0, 64, 79
1, 252046, Control_c, 0, 64, 79
1, 252061, Control_c, 0, 64, 80
1, 252091, Control_c, 0, 64, 80
1, 252136, Control_c, 0, 64, 81
1, 252172, Control_c, 0, 64, 81
1, 252177, Note_off_c, 0, 65, 41
1, 252187, Control_c, 0, 64, 82
1, 252201, Control_c, 0, 64, 82
1, 252222, Note_on_c, 0, 68, 26
1, 252469, Note_off_c, 0, 62, 40
1, 252472, Note_on_c, 0, 64, 42
1, 252644, Note_off_c, 0, 73, 62
1, 252998, Note_on_c, 0, 71, 53
1, 253036, Note_off_c, 0, 68, 43
1, 253178, Note_off_c, 0, 64, 40
1, 253247, Control_c, 0, 64, 82
1, 253254, Note_on_c, 0, 69, 60
1, 253262, Note_off_c, 0, 71, 53
1, 253268, Poly_aftertouch_c, 0, 45, 127
1, 253277, Control_c, 0, 64, 81
1, 253325, Poly_aftertouch_c, 0, 45, 0
1, 253411, Control_c, 0, 64, 81
1, 253426, Control_c, 0, 64, 80
1, 253431, Note_on_c, 0, 45, 31
1, 253440, Control_c, 0, 64, 77
1, 253455, Control_c, 0, 64, 73
1, 253470, Control_c, 0, 64, 66
1, 253485, Control_c, 0, 64, 35
1, 253500, Control_c, 0, 64, 0
1, 253504, Note_on_c, 0, 64, 45
1, 253603, Control_c, 0, 64, 60
1, 253618, Control_c, 0, 64, 67
1, 253640, Control_c, 0, 64, 70
1, 253655, Control_c, 0, 64, 73
1, 253670, Control_c, 0, 64, 76
1, 253672, Note_off_c, 0, 64, 58
1, 253685, Control_c, 0, 64, 78
1, 253700, Control_c, 0, 64, 80
1, 253714, Control_c, 0, 64, 81
1, 253717, Note_on_c, 0, 52, 34
1, 253729, Control_c, 0, 64, 81
1, 253737, Note_on_c, 0, 61, 40
1, 253744, Control_c, 0, 64, 82
1, 253758, Note_off_c, 0, 45, 39
1, 253759, Control_c, 0, 64, 83
1, 253773, Control_c, 0, 64, 84
1, 253788, Control_c, 0, 64, 84
1, 253796, Note_off_c, 0, 61, 39
1, 253805, Note_off_c, 0, 52, 50
1, 253833, Control_c, 0, 64, 85
1, 253949, Note_on_c, 0, 57, 23
1, 253959, Note_off_c, 0, 69, 26
1, 253971, Note_on_c, 0, 64, 34
1, 253999, Note_off_c, 0, 57, 46
1, 254037, Note_off_c, 0, 64, 49
1, 254188, Note_on_c, 0, 61, 28
1, 254438, Note_on_c, 0, 64, 34
1, 254754, Note_on_c, 0, 69, 34
1, 254861, Note_off_c, 0, 69, 37
1, 254899, Note_off_c, 0, 64, 16
1, 254922, Control_c, 0, 64, 84
1, 255027, Control_c, 0, 64, 84
1, 255033, Note_off_c, 0, 61, 38
1, 255057, Control_c, 0, 64, 83
1, 255086, Control_c, 0, 64, 83
1, 255116, Control_c, 0, 64, 82
1, 255131, Control_c, 0, 64, 82
1, 255153, Control_c, 0, 64, 81
1, 255167, Control_c, 0, 64, 80
1, 255182, Control_c, 0, 64, 79
1, 255197, Control_c, 0, 64, 78
1, 255212, Control_c, 0, 64, 77
1, 255227, Control_c, 0, 64, 76
1, 255242, Control_c, 0, 64, 74
1, 255257, Control_c, 0, 64, 70
1, 255271, Control_c, 0, 64, 64
1, 255286, Control_c, 0, 64, 34
1, 255301, Control_c, 0, 64, 0
1, 255390, Control_c, 0, 64, 57
1, 255405, Control_c, 0, 64, 66
1, 255419, Control_c, 0, 64, 70
1, 255434, Control_c, 0, 64, 75
1, 255449, Control_c, 0, 64, 79
1, 255452, Note_on_c, 0, 69, 75
1, 255464, Control_c, 0, 64, 83
1, 255479, Control_c, 0, 64, 85
1, 255493, Control_c, 0, 64, 86
1, 255508, Control_c, 0, 64, 87
1, 255509, Note_off_c, 0, 69, 64
1, 255582, Control_c, 0, 64, 85
1, 255587, Note_on_c, 0, 69, 74
1, 255597, Control_c, 0, 64, 78
1, 255612, Control_c, 0, 64, 66
1, 255626, Control_c, 0, 64, 0
1, 255701, Control_c, 0, 64, 38
1, 255716, Control_c, 0, 64, 63
1, 255730, Control_c, 0, 64, 67
1, 255745, Control_c, 0, 64, 70
1, 255760, Control_c, 0, 64, 73
1, 255775, Control_c, 0, 64, 77
1, 255790, Control_c, 0, 64, 82
1, 255805, Control_c, 0, 64, 84
1, 255815, Note_on_c, 0, 81, 54
1, 255820, Control_c, 0, 64, 86
1, 255835, Control_c, 0, 64, 87
1, 255850, Control_c, 0, 64, 88
1, 255865, Note_on_c, 0, 46, 54
1, 255865, Control_c, 0, 64, 90
1, 255887, Control_c, 0, 64, 91
1, 255898, Note_off_c, 0, 46, 60
1, 255902, Control_c, 0, 64, 92
1, 255916, Control_c, 0, 64, 93
1, 255931, Control_c, 0, 64, 94
1, 255946, Control_c, 0, 64, 94
1, 255948, Note_on_c, 0, 61, 59
1, 255961, Control_c, 0, 64, 95
1, 255975, Note_off_c, 0, 61, 65
1, 255975, Control_c, 0, 64, 95
1, 256064, Control_c, 0, 64, 96
1, 256077, Note_on_c, 0, 64, 53
1, 256078, Note_on_c, 0, 73, 55
1, 256107, Note_off_c, 0, 64, 65
1, 256133, Note_off_c, 0, 69, 57
1, 256146, Note_off_c, 0, 73, 51
1, 256183, Control_c, 0, 64, 96
1, 256219, Note_off_c, 0, 81, 30
1, 256228, Control_c, 0, 64, 97
1, 256257, Control_c, 0, 64, 97
1, 256272, Control_c, 0, 64, 98
1, 256287, Note_on_c, 0, 76, 62
1, 256287, Control_c, 0, 64, 98
1, 256316, Control_c, 0, 64, 99
1, 256328, Note_off_c, 0, 76, 60
1, 256479, Control_c, 0, 64, 98
1, 256482, Note_on_c, 0, 74, 83
1, 256494, Control_c, 0, 64, 92
1, 256509, Control_c, 0, 64, 79
1, 256523, Control_c, 0, 64, 63
1, 256538, Control_c, 0, 64, 0
1, 256598, Control_c, 0, 64, 33
1, 256613, Control_c, 0, 64, 66
1, 256636, Control_c, 0, 64, 72
1, 256651, Control_c, 0, 64, 78
1, 256665, Control_c, 0, 64, 82
1, 256680, Control_c, 0, 64, 85
1, 256695, Control_c, 0, 64, 87
1, 256705, Note_on_c, 0, 86, 58
1, 256710, Control_c, 0, 64, 89
1, 256725, Control_c, 0, 64, 90
1, 256735, Note_off_c, 0, 86, 60
1, 256739, Control_c, 0, 64, 92
1, 256754, Control_c, 0, 64, 93
1, 256769, Control_c, 0, 64, 94
1, 256784, Control_c, 0, 64, 94
1, 256821, Note_on_c, 0, 58, 33
1, 256843, Control_c, 0, 64, 95
1, 256853, Note_on_c, 0, 64, 34
1, 256884, Note_off_c, 0, 74, 56
1, 256901, Note_on_c, 0, 67, 37
1, 256929, Note_on_c, 0, 76, 47
1, 256974, Note_off_c, 0, 58, 46
1, 256977, Note_off_c, 0, 67, 60
1, 257013, Note_off_c, 0, 76, 63
1, 257091, Note_off_c, 0, 64, 38
1, 257143, Note_on_c, 0, 79, 51
1, 257233, Note_on_c, 0, 73, 60
1, 257253, Note_off_c, 0, 79, 51
1, 257269, Note_off_c, 0, 73, 62
1, 257316, Control_c, 0, 64, 94
1, 257331, Control_c, 0, 64, 91
1, 257336, Note_on_c, 0, 73, 67
1, 257346, Control_c, 0, 64, 82
1, 257362, Control_c, 0, 64, 72
1, 257385, Control_c, 0, 64, 55
1, 257400, Control_c, 0, 64, 0
1, 257459, Control_c, 0, 64, 56
1, 257474, Control_c, 0, 64, 66
1, 257488, Control_c, 0, 64, 69
1, 257503, Control_c, 0, 64, 72
1, 257518, Control_c, 0, 64, 75
1, 257533, Control_c, 0, 64, 78
1, 257548, Control_c, 0, 64, 79
1, 257562, Control_c, 0, 64, 81
1, 257577, Control_c, 0, 64, 82
1, 257580, Note_on_c, 0, 85, 42
1, 257592, Control_c, 0, 64, 83
1, 257606, Control_c, 0, 64, 83
1, 257621, Control_c, 0, 64, 84
1, 257636, Control_c, 0, 64, 85
1, 257666, Control_c, 0, 64, 85
1, 257734, Note_off_c, 0, 85, 39
1, 257776, Note_on_c, 0, 57, 31
1, 257784, Note_on_c, 0, 65, 33
1, 257816, Note_on_c, 0, 69, 25
1, 257840, Note_on_c, 0, 77, 34
1, 257932, Control_c, 0, 64, 86
1, 258063, Note_off_c, 0, 69, 37
1, 258142, Note_off_c, 0, 77, 29
1, 258145, Note_on_c, 0, 81, 26
1, 258251, Control_c, 0, 64, 86
1, 258253, Note_off_c, 0, 57, 36
1, 258306, Note_off_c, 0, 81, 38
1, 258310, Control_c, 0, 64, 87
1, 258321, Note_off_c, 0, 65, 36
1, 258414, Control_c, 0, 64, 87
1, 258460, Note_off_c, 0, 73, 36
1, 258732, Note_on_c, 0, 72, 48
1, 258825, Note_off_c, 0, 72, 57
1, 258955, Control_c, 0, 64, 85
1, 258971, Control_c, 0, 64, 79
1, 258971, Note_on_c, 0, 65, 70
1, 258985, Control_c, 0, 64, 68
1, 259000, Control_c, 0, 64, 18
1, 259015, Control_c, 0, 64, 0
1, 259045, Control_c, 0, 64, 58
1, 259059, Control_c, 0, 64, 67
1, 259074, Control_c, 0, 64, 73
1, 259089, Control_c, 0, 64, 80
1, 259104, Control_c, 0, 64, 84
1, 259119, Control_c, 0, 64, 85
1, 259133, Control_c, 0, 64, 85
1, 259148, Control_c, 0, 64, 81
1, 259153, Note_off_c, 0, 65, 60
1, 259163, Control_c, 0, 64, 71
1, 259174, Note_on_c, 0, 67, 76
1, 259177, Control_c, 0, 64, 50
1, 259192, Control_c, 0, 64, 0
1, 259222, Control_c, 0, 64, 14
1, 259237, Control_c, 0, 64, 65
1, 259251, Control_c, 0, 64, 72
1, 259266, Control_c, 0, 64, 78
1, 259281, Control_c, 0, 64, 81
1, 259326, Control_c, 0, 64, 80
1, 259329, Note_off_c, 0, 67, 60
1, 259340, Control_c, 0, 64, 76
1, 259355, Control_c, 0, 64, 67
1, 259364, Note_on_c, 0, 69, 78
1, 259370, Control_c, 0, 64, 0
1, 259459, Control_c, 0, 64, 64
1, 259474, Control_c, 0, 64, 69
1, 259489, Control_c, 0, 64, 73
1, 259503, Control_c, 0, 64, 76
1, 259518, Control_c, 0, 64, 80
1, 259533, Control_c, 0, 64, 83
1, 259548, Control_c, 0, 64, 85
1, 259563, Control_c, 0, 64, 88
1, 259577, Control_c, 0, 64, 89
1, 259580, Note_on_c, 0, 81, 57
1, 259585, Note_on_c, 0, 46, 50
1, 259592, Control_c, 0, 64, 90
1, 259607, Control_c, 0, 64, 92
1, 259613, Note_off_c, 0, 46, 61
1, 259622, Control_c, 0, 64, 92
1, 259631, Note_off_c, 0, 81, 43
1, 259644, Control_c, 0, 64, 93
1, 259647, Note_off_c, 0, 69, 60
1, 259659, Control_c, 0, 64, 93
1, 259688, Note_on_c, 0, 61, 50
1, 259689, Control_c, 0, 64, 94
1, 259704, Control_c, 0, 64, 94
1, 259710, Note_off_c, 0, 61, 62
1, 259748, Control_c, 0, 64, 95
1, 259808, Note_on_c, 0, 64, 59
1, 259838, Note_off_c, 0, 64, 66
1, 259848, Note_on_c, 0, 69, 88
1, 259868, Control_c, 0, 64, 95
1, 259882, Control_c, 0, 64, 96
1, 259885, Note_on_c, 0, 73, 49
1, 259897, Control_c, 0, 64, 96
1, 259910, Note_off_c, 0, 73, 58
1, 259912, Control_c, 0, 64, 97
1, 259927, Control_c, 0, 64, 97
1, 259941, Control_c, 0, 64, 98
1, 259941, Control_c, 0, 67, 114
1, 259956, Control_c, 0, 64, 98
1, 259956, Control_c, 0, 67, 68
1, 259971, Control_c, 0, 64, 99
1, 259971, Control_c, 0, 67, 16
1, 259986, Control_c, 0, 64, 99
1, 259986, Control_c, 0, 67, 0
1, 260001, Control_c, 0, 64, 100
1, 260015, Control_c, 0, 64, 101
1, 260045, Control_c, 0, 64, 101
1, 260047, Note_off_c, 0, 69, 59
1, 260060, Control_c, 0, 64, 102
1, 260074, Control_c, 0, 64, 102
1, 260079, Note_on_c, 0, 76, 61
1, 260104, Control_c, 0, 64, 103
1, 260125, Note_off_c, 0, 76, 59
1, 260163, Control_c, 0, 64, 103
1, 260273, Note_on_c, 0, 74, 83
1, 260282, Control_c, 0, 64, 102
1, 260297, Control_c, 0, 64, 94
1, 260312, Control_c, 0, 64, 81
1, 260326, Control_c, 0, 64, 65
1, 260341, Control_c, 0, 64, 0
1, 260408, Control_c, 0, 64, 52
1, 260422, Control_c, 0, 64, 69
1, 260437, Control_c, 0, 64, 75
1, 260452, Control_c, 0, 64, 80
1, 260467, Control_c, 0, 64, 82
1, 260482, Control_c, 0, 64, 83
1, 260497, Control_c, 0, 64, 85
1, 260501, Note_on_c, 0, 86, 53
1, 260512, Control_c, 0, 64, 87
1, 260527, Control_c, 0, 64, 89
1, 260530, Note_off_c, 0, 86, 57
1, 260541, Control_c, 0, 64, 90
1, 260557, Control_c, 0, 64, 91
1, 260572, Control_c, 0, 64, 92
1, 260586, Control_c, 0, 64, 92
1, 260601, Control_c, 0, 64, 93
1, 260616, Note_on_c, 0, 58, 33
1, 260616, Control_c, 0, 64, 93
1, 260616, Control_c, 0, 67, 11
1, 260631, Control_c, 0, 64, 94
1, 260631, Control_c, 0, 67, 17
1, 260646, Control_c, 0, 64, 94
1, 260646, Control_c, 0, 67, 24
1, 260661, Control_c, 0, 64, 95
1, 260661, Control_c, 0, 67, 32
1, 260676, Control_c, 0, 67, 41
1, 260691, Control_c, 0, 67, 50
1, 260697, Note_on_c, 0, 64, 19
1, 260705, Control_c, 0, 64, 95
1, 260705, Control_c, 0, 67, 60
1, 260709, Note_off_c, 0, 74, 54
1, 260717, Note_on_c, 0, 67, 38
1, 260720, Control_c, 0, 67, 70
1, 260735, Control_c, 0, 67, 82
1, 260750, Control_c, 0, 67, 91
1, 260757, Note_on_c, 0, 76, 47
1, 260764, Control_c, 0, 67, 100
1, 260779, Control_c, 0, 67, 108
1, 260794, Control_c, 0, 67, 116
1, 260808, Note_off_c, 0, 58, 40
1, 260808, Note_off_c, 0, 67, 58
1, 260809, Control_c, 0, 67, 122
1, 260824, Control_c, 0, 67, 127
1, 260848, Note_off_c, 0, 76, 64
1, 260929, Note_off_c, 0, 64, 38
1, 261001, Note_on_c, 0, 79, 51
1, 261086, Note_on_c, 0, 73, 66
1, 261138, Note_off_c, 0, 79, 38
1, 261148, Note_off_c, 0, 73, 62
1, 261186, Control_c, 0, 64, 95
1, 261201, Control_c, 0, 64, 93
1, 261215, Note_on_c, 0, 73, 65
1, 261216, Control_c, 0, 64, 89
1, 261230, Control_c, 0, 64, 81
1, 261245, Control_c, 0, 64, 68
1, 261260, Control_c, 0, 64, 0
1, 261379, Control_c, 0, 64, 49
1, 261394, Control_c, 0, 64, 63
1, 261409, Control_c, 0, 64, 65
1, 261424, Control_c, 0, 64, 66
1, 261439, Control_c, 0, 64, 68
1, 261454, Control_c, 0, 64, 69
1, 261469, Control_c, 0, 64, 71
1, 261484, Control_c, 0, 64, 74
1, 261487, Note_on_c, 0, 85, 36
1, 261499, Control_c, 0, 64, 76
1, 261514, Control_c, 0, 64, 78
1, 261528, Control_c, 0, 64, 79
1, 261543, Control_c, 0, 64, 80
1, 261558, Control_c, 0, 64, 80
1, 261573, Control_c, 0, 64, 81
1, 261587, Control_c, 0, 64, 81
1, 261602, Control_c, 0, 64, 82
1, 261617, Control_c, 0, 64, 82
1, 261647, Control_c, 0, 64, 83
1, 261782, Note_on_c, 0, 65, 32
1, 261782, Note_on_c, 0, 77, 38
1, 261809, Note_on_c, 0, 56, 22
1, 261810, Note_on_c, 0, 68, 13
1, 261824, Control_c, 0, 64, 83
1, 261905, Control_c, 0, 64, 84
1, 261913, Note_off_c, 0, 85, 39
1, 261994, Control_c, 0, 64, 84
1, 262113, Note_off_c, 0, 77, 28
1, 262122, Note_on_c, 0, 80, 36
1, 262262, Control_c, 0, 64, 85
1, 262278, Note_off_c, 0, 56, 40
1, 262290, Note_off_c, 0, 80, 42
1, 262292, Control_c, 0, 64, 85
1, 262336, Control_c, 0, 64, 86
1, 262345, Note_off_c, 0, 68, 34
1, 262410, Control_c, 0, 64, 86
1, 262484, Note_off_c, 0, 65, 37
1, 262514, Control_c, 0, 64, 87
1, 262573, Control_c, 0, 64, 87
1, 262579, Note_off_c, 0, 73, 46
1, 262617, Control_c, 0, 64, 88
1, 262880, Note_on_c, 0, 72, 49
1, 263089, Note_off_c, 0, 72, 29
1, 263114, Control_c, 0, 64, 87
1, 263129, Note_on_c, 0, 70, 64
1, 263129, Control_c, 0, 64, 84
1, 263144, Control_c, 0, 64, 73
1, 263159, Control_c, 0, 64, 57
1, 263174, Control_c, 0, 64, 0
1, 263218, Control_c, 0, 64, 64
1, 263233, Control_c, 0, 64, 71
1, 263248, Control_c, 0, 64, 80
1, 263263, Control_c, 0, 64, 85
1, 263278, Control_c, 0, 64, 86
1, 263303, Note_off_c, 0, 70, 55
1, 263322, Control_c, 0, 64, 84
1, 263335, Note_on_c, 0, 69, 73
1, 263337, Control_c, 0, 64, 76
1, 263351, Control_c, 0, 64, 65
1, 263366, Control_c, 0, 64, 0
1, 263403, Control_c, 0, 64, 30
1, 263418, Control_c, 0, 64, 66
1, 263433, Control_c, 0, 64, 74
1, 263448, Control_c, 0, 64, 84
1, 263460, Note_off_c, 0, 69, 64
1, 263463, Control_c, 0, 64, 88
1, 263532, Note_on_c, 0, 68, 77
1, 263537, Control_c, 0, 64, 86
1, 263551, Control_c, 0, 64, 79
1, 263566, Control_c, 0, 64, 66
1, 263581, Control_c, 0, 64, 0
1, 263655, Control_c, 0, 64, 64
1, 263670, Control_c, 0, 64, 70
1, 263671, Note_on_c, 0, 54, 40
1, 263684, Control_c, 0, 64, 74
1, 263699, Control_c, 0, 64, 77
1, 263714, Control_c, 0, 64, 80
1, 263729, Control_c, 0, 64, 82
1, 263745, Control_c, 0, 64, 84
1, 263750, Note_on_c, 0, 80, 70
1, 263759, Note_on_c, 0, 72, 52
1, 263760, Control_c, 0, 64, 85
1, 263774, Control_c, 0, 64, 87
1, 263777, Note_off_c, 0, 68, 58
1, 263789, Control_c, 0, 64, 88
1, 263792, Note_off_c, 0, 72, 58
1, 263801, Note_on_c, 0, 75, 29
1, 263804, Control_c, 0, 64, 90
1, 263819, Control_c, 0, 64, 91
1, 263834, Control_c, 0, 64, 91
1, 263836, Note_off_c, 0, 75, 51
1, 263848, Control_c, 0, 64, 92
1, 263863, Control_c, 0, 64, 92
1, 263887, Note_off_c, 0, 54, 34
1, 263893, Control_c, 0, 64, 93
1, 263900, Note_off_c, 0, 80, 60
1, 263937, Control_c, 0, 64, 93
1, 263984, Note_on_c, 0, 60, 42
1, 263992, Note_on_c, 0, 63, 42
1, 264030, Note_on_c, 0, 68, 49
1, 264041, Control_c, 0, 64, 94
1, 264071, Control_c, 0, 64, 94
1, 264086, Control_c, 0, 64, 95
1, 264097, Note_on_c, 0, 77, 90
1, 264101, Control_c, 0, 64, 96
1, 264122, Control_c, 0, 64, 97
1, 264137, Control_c, 0, 64, 98
1, 264137, Control_c, 0, 67, 109
1, 264143, Note_off_c, 0, 68, 57
1, 264146, Note_off_c, 0, 63, 40
1, 264152, Control_c, 0, 64, 98
1, 264152, Control_c, 0, 67, 77
1, 264167, Control_c, 0, 64, 99
1, 264167, Control_c, 0, 67, 29
1, 264181, Control_c, 0, 64, 99
1, 264181, Control_c, 0, 67, 0
1, 264196, Control_c, 0, 64, 100
1, 264211, Control_c, 0, 64, 101
1, 264219, Note_off_c, 0, 60, 38
1, 264256, Control_c, 0, 64, 101
1, 264294, Note_off_c, 0, 77, 49
1, 264324, Note_on_c, 0, 80, 58
1, 264356, Note_on_c, 0, 89, 4
1, 264373, Note_off_c, 0, 80, 48
1, 264408, Note_off_c, 0, 89, 27
1, 264496, Note_on_c, 0, 75, 79
1, 264507, Control_c, 0, 64, 101
1, 264522, Control_c, 0, 64, 95
1, 264537, Control_c, 0, 64, 83
1, 264553, Control_c, 0, 64, 68
1, 264568, Control_c, 0, 64, 0
1, 264624, Note_on_c, 0, 53, 40
1, 264627, Control_c, 0, 64, 63
1, 264642, Control_c, 0, 64, 72
1, 264657, Control_c, 0, 64, 79
1, 264671, Control_c, 0, 64, 84
1, 264681, Note_off_c, 0, 53, 59
1, 264686, Control_c, 0, 64, 85
1, 264702, Control_c, 0, 64, 86
1, 264716, Control_c, 0, 64, 87
1, 264716, Control_c, 0, 67, 14
1, 264731, Control_c, 0, 64, 88
1, 264731, Control_c, 0, 67, 27
1, 264744, Note_on_c, 0, 87, 46
1, 264746, Control_c, 0, 64, 89
1, 264746, Control_c, 0, 67, 47
1, 264754, Note_on_c, 0, 80, 46
1, 264761, Control_c, 0, 64, 90
1, 264761, Control_c, 0, 67, 72
1, 264776, Control_c, 0, 64, 91
1, 264776, Control_c, 0, 67, 96
1, 264790, Control_c, 0, 64, 91
1, 264790, Control_c, 0, 67, 119
1, 264797, Note_off_c, 0, 87, 56
1, 264805, Control_c, 0, 67, 127
1, 264820, Control_c, 0, 64, 92
1, 264857, Note_off_c, 0, 75, 54
1, 264879, Note_off_c, 0, 80, 43
1, 264931, Control_c, 0, 64, 92
1, 264936, Note_on_c, 0, 68, 45
1, 264953, Note_on_c, 0, 61, 29
1, 265002, Note_off_c, 0, 68, 56
1, 265004, Note_off_c, 0, 61, 44
1, 265117, Note_on_c, 0, 73, 74
1, 265179, Note_off_c, 0, 73, 61
1, 265277, Note_on_c, 0, 73, 76
1, 265287, Control_c, 0, 64, 92
1, 265302, Control_c, 0, 64, 89
1, 265317, Control_c, 0, 64, 82
1, 265331, Control_c, 0, 64, 70
1, 265347, Control_c, 0, 64, 0
1, 265391, Note_on_c, 0, 51, 40
1, 265421, Control_c, 0, 64, 52
1, 265436, Control_c, 0, 64, 67
1, 265450, Control_c, 0, 64, 73
1, 265465, Control_c, 0, 64, 77
1, 265469, Note_on_c, 0, 85, 46
1, 265469, Note_on_c, 0, 78, 59
1, 265480, Control_c, 0, 64, 81
1, 265487, Note_off_c, 0, 51, 56
1, 265490, Note_off_c, 0, 85, 61
1, 265494, Control_c, 0, 64, 83
1, 265505, Note_off_c, 0, 78, 51
1, 265508, Note_off_c, 0, 73, 54
1, 265509, Control_c, 0, 64, 84
1, 265524, Control_c, 0, 64, 86
1, 265539, Control_c, 0, 64, 87
1, 265553, Control_c, 0, 64, 88
1, 265598, Control_c, 0, 64, 89
1, 265618, Note_on_c, 0, 57, 37
1, 265620, Note_on_c, 0, 60, 28
1, 265623, Note_on_c, 0, 66, 56
1, 265683, Note_on_c, 0, 69, 80
1, 265690, Note_off_c, 0, 60, 39
1, 265701, Note_off_c, 0, 66, 63
1, 265739, Control_c, 0, 64, 89
1, 265772, Note_off_c, 0, 57, 48
1, 265851, Note_on_c, 0, 78, 63
1, 265855, Note_on_c, 0, 81, 63
1, 265872, Note_off_c, 0, 78, 61
1, 265879, Note_off_c, 0, 69, 56
1, 265885, Note_off_c, 0, 81, 56
1, 265991, Note_on_c, 0, 69, 82
1, 266006, Control_c, 0, 64, 89
1, 266020, Control_c, 0, 64, 83
1, 266035, Control_c, 0, 64, 72
1, 266050, Control_c, 0, 64, 0
1, 266109, Control_c, 0, 64, 32
1, 266124, Control_c, 0, 64, 65
1, 266128, Note_on_c, 0, 49, 38
1, 266139, Control_c, 0, 64, 71
1, 266155, Control_c, 0, 64, 76
1, 266169, Control_c, 0, 64, 78
1, 266184, Control_c, 0, 64, 78
1, 266199, Note_off_c, 0, 49, 58
1, 266214, Control_c, 0, 64, 79
1, 266229, Control_c, 0, 64, 80
1, 266243, Control_c, 0, 64, 81
1, 266258, Control_c, 0, 64, 82
1, 266259, Note_on_c, 0, 81, 51
1, 266273, Control_c, 0, 64, 83
1, 266281, Note_on_c, 0, 77, 39
1, 266288, Control_c, 0, 64, 84
1, 266303, Control_c, 0, 64, 84
1, 266317, Control_c, 0, 64, 85
1, 266332, Control_c, 0, 64, 85
1, 266347, Control_c, 0, 64, 86
1, 266362, Control_c, 0, 64, 87
1, 266384, Control_c, 0, 64, 88
1, 266388, Note_off_c, 0, 81, 40
1, 266399, Control_c, 0, 64, 89
1, 266414, Control_c, 0, 64, 90
1, 266426, Note_off_c, 0, 69, 62
1, 266429, Control_c, 0, 64, 90
1, 266444, Control_c, 0, 64, 91
1, 266458, Control_c, 0, 64, 91
1, 266467, Note_off_c, 0, 77, 41
1, 266471, Note_on_c, 0, 65, 51
1, 266473, Control_c, 0, 64, 92
1, 266486, Note_on_c, 0, 58, 33
1, 266488, Control_c, 0, 64, 92
1, 266502, Control_c, 0, 64, 93
1, 266517, Control_c, 0, 64, 94
1, 266532, Control_c, 0, 64, 94
1, 266547, Control_c, 0, 64, 95
1, 266562, Control_c, 0, 67, 119
1, 266567, Note_off_c, 0, 65, 51
1, 266576, Control_c, 0, 64, 95
1, 266576, Control_c, 0, 67, 105
1, 266591, Control_c, 0, 67, 90
1, 266606, Control_c, 0, 64, 96
1, 266606, Control_c, 0, 67, 71
1, 266607, Note_off_c, 0, 58, 36
1, 266621, Control_c, 0, 67, 55
1, 266636, Control_c, 0, 67, 41
1, 266650, Control_c, 0, 64, 96
1, 266650, Control_c, 0, 67, 28
1, 266659, Note_on_c, 0, 70, 77
1, 266665, Control_c, 0, 67, 18
1, 266680, Control_c, 0, 67, 11
1, 266694, Control_c, 0, 64, 97
1, 266694, Control_c, 0, 67, 0
1, 266786, Note_off_c, 0, 70, 63
1, 266821, Note_on_c, 0, 71, 75
1, 266828, Control_c, 0, 64, 96
1, 266843, Control_c, 0, 64, 91
1, 266858, Control_c, 0, 64, 80
1, 266873, Control_c, 0, 64, 65
1, 266887, Control_c, 0, 64, 0
1, 266933, Note_on_c, 0, 50, 40
1, 266948, Control_c, 0, 64, 58
1, 266963, Control_c, 0, 64, 68
1, 266978, Control_c, 0, 64, 75
1, 266992, Control_c, 0, 64, 79
1, 267007, Control_c, 0, 64, 80
1, 267010, Note_off_c, 0, 50, 54
1, 267022, Control_c, 0, 64, 81
1, 267032, Note_on_c, 0, 83, 58
1, 267037, Control_c, 0, 64, 82
1, 267042, Note_on_c, 0, 80, 55
1, 267047, Note_on_c, 0, 77, 49
1, 267052, Control_c, 0, 64, 84
1, 267066, Control_c, 0, 64, 86
1, 267070, Note_off_c, 0, 80, 53
1, 267071, Note_off_c, 0, 83, 58
1, 267073, Note_off_c, 0, 77, 57
1, 267081, Control_c, 0, 64, 86
1, 267096, Control_c, 0, 64, 87
1, 267098, Note_off_c, 0, 71, 50
1, 267111, Control_c, 0, 64, 87
1, 267147, Control_c, 0, 64, 88
1, 267192, Control_c, 0, 64, 88
1, 267204, Note_on_c, 0, 65, 44
1, 267207, Note_on_c, 0, 56, 28
1, 267218, Note_on_c, 0, 59, 33
1, 267228, Note_on_c, 0, 71, 78
1, 267237, Control_c, 0, 64, 89
1, 267258, Note_off_c, 0, 65, 58
1, 267340, Control_c, 0, 64, 89
1, 267388, Note_off_c, 0, 59, 24
1, 267390, Note_off_c, 0, 56, 37
1, 267398, Note_on_c, 0, 51, 56
1, 267399, Control_c, 0, 64, 87
1, 267407, Note_on_c, 0, 83, 66
1, 267414, Note_on_c, 0, 75, 53
1, 267414, Control_c, 0, 64, 80
1, 267429, Control_c, 0, 64, 69
1, 267434, Note_on_c, 0, 80, 40
1, 267441, Note_off_c, 0, 75, 57
1, 267444, Control_c, 0, 64, 38
1, 267447, Note_off_c, 0, 71, 49
1, 267459, Control_c, 0, 64, 0
1, 267466, Note_off_c, 0, 80, 50
1, 267473, Control_c, 0, 64, 56
1, 267482, Note_off_c, 0, 83, 55
1, 267488, Control_c, 0, 64, 66
1, 267503, Control_c, 0, 64, 73
1, 267517, Control_c, 0, 64, 81
1, 267532, Control_c, 0, 64, 88
1, 267547, Control_c, 0, 64, 89
1, 267562, Control_c, 0, 64, 88
1, 267567, Note_on_c, 0, 71, 82
1, 267568, Note_on_c, 0, 63, 67
1, 267572, Note_on_c, 0, 56, 58
1, 267577, Control_c, 0, 64, 85
1, 267589, Note_on_c, 0, 59, 51
1, 267592, Control_c, 0, 64, 78
1, 267606, Control_c, 0, 64, 68
1, 267621, Control_c, 0, 64, 63
1, 267636, Control_c, 0, 64, 66
1, 267651, Control_c, 0, 64, 71
1, 267659, Note_off_c, 0, 63, 60
1, 267666, Control_c, 0, 64, 78
1, 267681, Control_c, 0, 64, 85
1, 267693, Note_off_c, 0, 51, 63
1, 267696, Control_c, 0, 64, 89
1, 267711, Control_c, 0, 64, 89
1, 267774, Note_on_c, 0, 52, 62
1, 267815, Control_c, 0, 64, 87
1, 267830, Control_c, 0, 64, 78
1, 267845, Note_on_c, 0, 83, 82
1, 267845, Control_c, 0, 64, 64
1, 267848, Note_on_c, 0, 74, 60
1, 267851, Note_on_c, 0, 80, 67
1, 267868, Control_c, 0, 64, 0
1, 267927, Control_c, 0, 64, 36
1, 267942, Control_c, 0, 64, 68
1, 267956, Control_c, 0, 64, 74
1, 267971, Note_off_c, 0, 56, 54
1, 267971, Control_c, 0, 64, 80
1, 267986, Control_c, 0, 64, 82
1, 267997, Note_off_c, 0, 83, 62
1, 268001, Control_c, 0, 64, 82
1, 268016, Control_c, 0, 64, 83
1, 268026, Note_off_c, 0, 80, 64
1, 268030, Control_c, 0, 64, 84
1, 268036, Note_off_c, 0, 74, 65
1, 268045, Control_c, 0, 64, 86
1, 268060, Control_c, 0, 64, 87
1, 268073, Note_off_c, 0, 59, 0
1, 268074, Note_off_c, 0, 71, 59
1, 268075, Control_c, 0, 64, 88
1, 268078, Note_on_c, 0, 62, 64
1, 268090, Control_c, 0, 64, 89
1, 268091, Note_on_c, 0, 56, 64
1, 268101, Note_off_c, 0, 62, 61
1, 268104, Control_c, 0, 64, 89
1, 268110, Poly_aftertouch_c, 0, 59, 127
1, 268119, Control_c, 0, 64, 90
1, 268134, Control_c, 0, 64, 90
1, 268149, Control_c, 0, 64, 91
1, 268152, Poly_aftertouch_c, 0, 59, 0
1, 268153, Note_off_c, 0, 56, 61
1, 268156, Note_off_c, 0, 52, 62
1, 268164, Control_c, 0, 64, 92
1, 268179, Control_c, 0, 64, 94
1, 268194, Control_c, 0, 64, 95
1, 268209, Control_c, 0, 64, 97
1, 268223, Control_c, 0, 64, 98
1, 268238, Control_c, 0, 64, 99
1, 268253, Control_c, 0, 64, 100
1, 268268, Control_c, 0, 64, 100
1, 268283, Control_c, 0, 64, 101
1, 268297, Control_c, 0, 64, 102
1, 268312, Control_c, 0, 64, 103
1, 268327, Control_c, 0, 64, 104
1, 268341, Control_c, 0, 64, 104
1, 268356, Control_c, 0, 64, 105
1, 268371, Control_c, 0, 64, 105
1, 268489, Control_c, 0, 64, 105
1, 268504, Control_c, 0, 64, 100
1, 268513, Note_on_c, 0, 70, 77
1, 268519, Control_c, 0, 64, 89
1, 268520, Note_on_c, 0, 40, 68
1, 268522, Note_on_c, 0, 62, 61
1, 268525, Note_on_c, 0, 68, 64
1, 268535, Control_c, 0, 64, 73
1, 268550, Control_c, 0, 64, 0
1, 268632, Control_c, 0, 64, 64
1, 268646, Control_c, 0, 64, 72
1, 268661, Control_c, 0, 64, 80
1, 268676, Control_c, 0, 64, 87
1, 268691, Control_c, 0, 64, 90
1, 268706, Control_c, 0, 64, 90
1, 268720, Control_c, 0, 64, 91
1, 268735, Control_c, 0, 64, 92
1, 268750, Control_c, 0, 64, 93
1, 268764, Control_c, 0, 64, 94
1, 268779, Control_c, 0, 64, 95
1, 268794, Control_c, 0, 64, 95
1, 268809, Control_c, 0, 64, 96
1, 268883, Control_c, 0, 64, 96
1, 268942, Control_c, 0, 64, 96
1, 268957, Control_c, 0, 64, 95
1, 268959, Note_on_c, 0, 39, 66
1, 268959, Note_off_c, 0, 40, 51
1, 268972, Control_c, 0, 64, 91
1, 268987, Control_c, 0, 64, 82
1, 269002, Control_c, 0, 64, 69
1, 269016, Control_c, 0, 64, 0
1, 269105, Control_c, 0, 64, 64
1, 269120, Control_c, 0, 64, 72
1, 269135, Control_c, 0, 64, 79
1, 269150, Control_c, 0, 64, 86
1, 269164, Control_c, 0, 64, 89
1, 269177, Note_off_c, 0, 39, 62
1, 269179, Control_c, 0, 64, 90
1, 269194, Control_c, 0, 64, 90
1, 269209, Control_c, 0, 64, 91
1, 269224, Control_c, 0, 64, 92
1, 269237, Note_off_c, 0, 62, 51
1, 269238, Control_c, 0, 64, 94
1, 269246, Note_off_c, 0, 68, 33
1, 269253, Control_c, 0, 64, 95
1, 269268, Control_c, 0, 64, 96
1, 269297, Control_c, 0, 64, 96
1, 269327, Control_c, 0, 67, 8
1, 269343, Control_c, 0, 67, 9
1, 269365, Control_c, 0, 67, 10
1, 269425, Control_c, 0, 64, 97
1, 269499, Control_c, 0, 67, 10
1, 269528, Control_c, 0, 67, 9
1, 269587, Control_c, 0, 67, 9
1, 269598, Note_on_c, 0, 72, 59
1, 269609, Note_on_c, 0, 68, 47
1, 269617, Note_on_c, 0, 65, 42
1, 269625, Note_on_c, 0, 56, 39
1, 269627, Note_on_c, 0, 51, 37
1, 269632, Control_c, 0, 67, 8
1, 269642, Note_on_c, 0, 61, 34
1, 269645, Note_on_c, 0, 58, 26
1, 269672, Note_off_c, 0, 51, 55
1, 269677, Note_off_c, 0, 68, 54
1, 269686, Note_off_c, 0, 56, 55
1, 269689, Note_off_c, 0, 58, 48
1, 269691, Note_off_c, 0, 61, 57
1, 269691, Control_c, 0, 67, 8
1, 269712, Note_off_c, 0, 72, 55
1, 269745, Note_off_c, 0, 65, 30
1, 269750, Control_c, 0, 67, 0
1, 269838, Note_off_c, 0, 70, 29
1, 269869, Note_on_c, 0, 72, 57
1, 269885, Note_on_c, 0, 56, 40
1, 269890, Note_on_c, 0, 65, 49
1, 269893, Note_on_c, 0, 61, 40
1, 269893, Note_on_c, 0, 58, 38
1, 269898, Note_on_c, 0, 68, 43
1, 269906, Note_off_c, 0, 72, 64
1, 269912, Note_on_c, 0, 51, 26
1, 269935, Note_off_c, 0, 68, 51
1, 269941, Note_off_c, 0, 61, 59
1, 269944, Note_off_c, 0, 58, 58
1, 269946, Note_off_c, 0, 56, 56
1, 269952, Note_off_c, 0, 51, 42
1, 269967, Note_off_c, 0, 65, 52
1, 270092, Note_on_c, 0, 68, 61
1, 270093, Note_on_c, 0, 73, 69
1, 270097, Note_on_c, 0, 56, 48
1, 270101, Note_on_c, 0, 51, 36
1, 270101, Note_on_c, 0, 58, 44
1, 270101, Note_on_c, 0, 65, 55
1, 270102, Note_on_c, 0, 61, 42
1, 270151, Note_off_c, 0, 56, 57
1, 270152, Note_off_c, 0, 68, 54
1, 270155, Note_off_c, 0, 58, 58
1, 270156, Note_off_c, 0, 65, 58
1, 270158, Note_off_c, 0, 51, 53
1, 270160, Note_off_c, 0, 61, 56
1, 270181, Note_off_c, 0, 73, 58
1, 270301, Note_on_c, 0, 73, 71
1, 270302, Note_on_c, 0, 68, 66
1, 270304, Note_on_c, 0, 61, 50
1, 270307, Note_on_c, 0, 56, 48
1, 270310, Note_on_c, 0, 58, 42
1, 270310, Note_on_c, 0, 65, 56
1, 270318, Note_on_c, 0, 51, 34
1, 270340, Note_off_c, 0, 65, 59
1, 270344, Note_off_c, 0, 58, 52
1, 270349, Note_off_c, 0, 56, 57
1, 270355, Note_off_c, 0, 61, 55
1, 270356, Note_off_c, 0, 68, 59
1, 270362, Note_off_c, 0, 51, 48
1, 270391, Note_off_c, 0, 73, 50
1, 270482, Note_on_c, 0, 75, 75
1, 270485, Note_on_c, 0, 56, 54
1, 270486, Note_on_c, 0, 68, 64
1, 270493, Note_on_c, 0, 73, 53
1, 270494, Note_on_c, 0, 58, 51
1, 270498, Note_on_c, 0, 65, 57
1, 270504, Note_on_c, 0, 61, 41
1, 270510, Note_on_c, 0, 51, 25
1, 270533, Note_off_c, 0, 56, 56
1, 270536, Note_off_c, 0, 58, 59
1, 270543, Note_off_c, 0, 61, 48
1, 270549, Note_off_c, 0, 51, 48
1, 270550, Note_off_c, 0, 68, 59
1, 270567, Note_off_c, 0, 73, 53
1, 270570, Note_off_c, 0, 65, 54
1, 270571, Note_off_c, 0, 75, 57
1, 270675, Note_on_c, 0, 75, 77
1, 270684, Note_on_c, 0, 73, 56
1, 270685, Note_on_c, 0, 56, 49
1, 270686, Note_on_c, 0, 65, 61
1, 270688, Note_on_c, 0, 51, 40
1, 270689, Note_on_c, 0, 58, 48
1, 270689, Note_on_c, 0, 61, 51
1, 270692, Note_on_c, 0, 68, 61
1, 270727, Note_off_c, 0, 58, 61
1, 270727, Note_off_c, 0, 61, 58
1, 270728, Note_off_c, 0, 56, 59
1, 270733, Note_off_c, 0, 68, 57
1, 270736, Note_off_c, 0, 51, 57
1, 270796, Note_off_c, 0, 75, 61
1, 270852, Note_off_c, 0, 65, 23
1, 270885, Note_off_c, 0, 73, 0
1, 270898, Note_on_c, 0, 56, 43
1, 270900, Note_on_c, 0, 76, 84
1, 270900, Note_on_c, 0, 73, 33
1, 270903, Note_on_c, 0, 65, 53
1, 270909, Note_on_c, 0, 61, 59
1, 270912, Note_on_c, 0, 51, 46
1, 270912, Note_on_c, 0, 58, 47
1, 270917, Note_on_c, 0, 68, 64
1, 270957, Note_off_c, 0, 58, 54
1, 270964, Note_off_c, 0, 61, 53
1, 270974, Note_off_c, 0, 51, 55
1, 271005, Note_off_c, 0, 56, 35
1, 271042, Note_off_c, 0, 68, 41
1, 271046, Note_off_c, 0, 76, 56
1, 271118, Note_off_c, 0, 65, 0
1, 271118, Note_off_c, 0, 73, 0
1, 271132, Note_on_c, 0, 65, 46
1, 271133, Note_on_c, 0, 76, 84
1, 271136, Note_on_c, 0, 73, 19
1, 271137, Note_on_c, 0, 51, 38
1, 271138, Note_on_c, 0, 58, 46
1, 271139, Note_on_c, 0, 56, 48
1, 271147, Note_on_c, 0, 61, 52
1, 271149, Note_on_c, 0, 68, 57
1, 271173, Note_off_c, 0, 51, 62
1, 271176, Note_off_c, 0, 68, 61
1, 271189, Note_off_c, 0, 73, 56
1, 271212, Note_off_c, 0, 65, 54
1, 271214, Note_off_c, 0, 76, 63
1, 271222, Note_off_c, 0, 61, 55
1, 271245, Note_off_c, 0, 58, 33
1, 271269, Note_on_c, 0, 51, 58
1, 271279, Note_off_c, 0, 56, 32
1, 271301, Note_on_c, 0, 65, 53
1, 271331, Note_on_c, 0, 56, 36
1, 271340, Note_on_c, 0, 73, 62
1, 271350, Note_on_c, 0, 58, 40
1, 271350, Note_off_c, 0, 51, 56
1, 271368, Note_on_c, 0, 77, 79
1, 271374, Note_on_c, 0, 61, 58
1, 271385, Note_off_c, 0, 65, 59
1, 271398, Note_off_c, 0, 58, 58
1, 271399, Note_off_c, 0, 73, 62
1, 271455, Control_c, 0, 64, 97
1, 271463, Note_off_c, 0, 77, 37
1, 271465, Note_off_c, 0, 61, 57
1, 271470, Control_c, 0, 64, 98
1, 271482, Note_off_c, 0, 56, 55
1, 271484, Control_c, 0, 64, 98
1, 271488, Note_on_c, 0, 51, 62
1, 271488, Note_on_c, 0, 65, 46
1, 271499, Control_c, 0, 64, 99
1, 271514, Control_c, 0, 64, 99
1, 271522, Note_on_c, 0, 58, 46
1, 271529, Control_c, 0, 64, 100
1, 271544, Control_c, 0, 64, 101
1, 271550, Note_on_c, 0, 73, 60
1, 271558, Note_off_c, 0, 58, 62
1, 271558, Control_c, 0, 64, 102
1, 271571, Note_on_c, 0, 78, 88
1, 271573, Control_c, 0, 64, 103
1, 271582, Note_on_c, 0, 61, 66
1, 271586, Note_off_c, 0, 73, 59
1, 271588, Control_c, 0, 64, 104
1, 271596, Note_on_c, 0, 56, 53
1, 271599, Note_off_c, 0, 51, 57
1, 271603, Control_c, 0, 64, 105
1, 271625, Control_c, 0, 64, 106
1, 271640, Control_c, 0, 64, 106
1, 271652, Note_off_c, 0, 65, 30
1, 271655, Control_c, 0, 64, 107
1, 271680, Note_off_c, 0, 61, 58
1, 271684, Control_c, 0, 64, 107
1, 271688, Note_off_c, 0, 78, 58
1, 271690, Note_off_c, 0, 56, 61
1, 271707, Note_on_c, 0, 65, 67
1, 271710, Note_on_c, 0, 51, 63
1, 271720, Note_on_c, 0, 58, 52
1, 271729, Note_on_c, 0, 73, 66
1, 271744, Control_c, 0, 64, 108
1, 271766, Note_off_c, 0, 65, 58
1, 271772, Note_off_c, 0, 58, 60
1, 271774, Control_c, 0, 64, 108
1, 271789, Control_c, 0, 64, 109
1, 271789, Note_on_c, 0, 79, 85
1, 271792, Note_off_c, 0, 73, 63
1, 271796, Note_on_c, 0, 61, 68
1, 271817, Note_off_c, 0, 51, 58
1, 271818, Control_c, 0, 64, 109
1, 271827, Note_on_c, 0, 56, 52
1, 271836, Note_off_c, 0, 79, 62
1, 271848, Control_c, 0, 64, 110
1, 271892, Note_off_c, 0, 61, 56
1, 271893, Control_c, 0, 64, 110
1, 271908, Note_off_c, 0, 56, 61
1, 271909, Note_on_c, 0, 65, 57
1, 271920, Note_on_c, 0, 68, 26
1, 271923, Note_on_c, 0, 58, 57
1, 271929, Note_on_c, 0, 51, 63
1, 271937, Control_c, 0, 64, 111
1, 271956, Note_off_c, 0, 68, 54
1, 271958, Note_on_c, 0, 73, 65
1, 271971, Note_off_c, 0, 65, 65
1, 271982, Control_c, 0, 64, 111
1, 271992, Note_off_c, 0, 58, 62
1, 271996, Control_c, 0, 64, 112
1, 272006, Note_off_c, 0, 73, 60
1, 272008, Note_on_c, 0, 80, 86
1, 272011, Control_c, 0, 64, 112
1, 272012, Note_on_c, 0, 61, 65
1, 272026, Control_c, 0, 64, 113
1, 272036, Note_on_c, 0, 56, 45
1, 272041, Control_c, 0, 64, 113
1, 272048, Note_off_c, 0, 51, 51
1, 272048, Note_off_c, 0, 80, 66
1, 272056, Control_c, 0, 64, 114
1, 272070, Control_c, 0, 64, 114
1, 272085, Control_c, 0, 64, 115
1, 272098, Note_off_c, 0, 61, 60
1, 272161, Note_off_c, 0, 56, 54
1, 272168, Note_on_c, 0, 65, 58
1, 272182, Note_on_c, 0, 51, 49
1, 272203, Note_off_c, 0, 65, 66
1, 272203, Control_c, 0, 64, 115
1, 272253, Note_on_c, 0, 61, 63
1, 272261, Note_off_c, 0, 51, 43
1, 272262, Control_c, 0, 64, 116
1, 272266, Note_on_c, 0, 81, 85
1, 272273, Poly_aftertouch_c, 0, 58, 0
1, 272289, Note_off_c, 0, 61, 58
1, 272308, Note_off_c, 0, 81, 62
1, 272388, Control_c, 0, 64, 116
1, 272389, Note_on_c, 0, 51, 69
1, 272435, Note_on_c, 0, 67, 62
1, 272454, Note_on_c, 0, 55, 60
1, 272462, Control_c, 0, 64, 109
1, 272477, Control_c, 0, 64, 93
1, 272484, Note_off_c, 0, 67, 58
1, 272492, Control_c, 0, 64, 71
1, 272500, Note_on_c, 0, 73, 52
1, 272506, Note_on_c, 0, 61, 69
1, 272507, Control_c, 0, 64, 0
1, 272516, Note_on_c, 0, 75, 65
1, 272521, Note_off_c, 0, 73, 50
1, 272546, Note_off_c, 0, 75, 68
1, 272552, Note_on_c, 0, 82, 90
1, 272552, Control_c, 0, 64, 39
1, 272567, Control_c, 0, 64, 68
1, 272569, Note_on_c, 0, 63, 68
1, 272570, Note_off_c, 0, 61, 63
1, 272582, Control_c, 0, 64, 79
1, 272591, Note_off_c, 0, 82, 67
1, 272597, Control_c, 0, 64, 89
1, 272597, Note_off_c, 0, 51, 59
1, 272611, Control_c, 0, 64, 95
1, 272648, Note_off_c, 0, 63, 59
1, 272656, Control_c, 0, 64, 95
1, 272671, Control_c, 0, 64, 96
1, 272685, Control_c, 0, 64, 98
1, 272700, Control_c, 0, 64, 100
1, 272708, Note_on_c, 0, 51, 65
1, 272715, Control_c, 0, 64, 102
1, 272727, Note_off_c, 0, 55, 0
1, 272728, Note_on_c, 0, 67, 69
1, 272730, Control_c, 0, 64, 103
1, 272743, Note_on_c, 0, 55, 34
1, 272744, Control_c, 0, 64, 103
1, 272756, Note_off_c, 0, 51, 60
1, 272759, Control_c, 0, 64, 104
1, 272774, Control_c, 0, 64, 105
1, 272789, Control_c, 0, 64, 105
1, 272804, Control_c, 0, 64, 106
1, 272806, Note_off_c, 0, 67, 59
1, 272810, Note_on_c, 0, 73, 60
1, 272818, Control_c, 0, 64, 107
1, 272833, Control_c, 0, 64, 109
1, 272848, Control_c, 0, 64, 110
1, 272852, Note_off_c, 0, 55, 57
1, 272855, Note_off_c, 0, 73, 58
1, 272861, Note_on_c, 0, 61, 72
1, 272861, Note_on_c, 0, 75, 74
1, 272863, Control_c, 0, 64, 110
1, 272878, Control_c, 0, 64, 111
1, 272892, Control_c, 0, 64, 112
1, 272904, Note_off_c, 0, 75, 63
1, 272907, Control_c, 0, 64, 112
1, 272910, Note_off_c, 0, 61, 60
1, 272936, Control_c, 0, 64, 113
1, 272942, Note_on_c, 0, 63, 91
1, 272951, Control_c, 0, 64, 113
1, 272981, Control_c, 0, 64, 114
1, 272993, Note_off_c, 0, 63, 65
1, 272996, Control_c, 0, 64, 114
1, 273011, Control_c, 0, 64, 115
1, 273015, Note_on_c, 0, 83, 97
1, 273041, Control_c, 0, 64, 116
1, 273055, Control_c, 0, 64, 117
1, 273070, Control_c, 0, 64, 117
1, 273085, Control_c, 0, 64, 118
1, 273100, Control_c, 0, 64, 119
1, 273122, Control_c, 0, 64, 119
1, 273136, Control_c, 0, 64, 120
1, 273148, Note_off_c, 0, 83, 60
1, 273151, Control_c, 0, 64, 121
1, 273166, Control_c, 0, 64, 122
1, 273181, Control_c, 0, 64, 123
1, 273196, Control_c, 0, 64, 125
1, 273211, Control_c, 0, 64, 126
1, 273225, Control_c, 0, 64, 127
1, 273586, Note_on_c, 0, 32, 72
1, 273597, Control_c, 0, 64, 109
1, 273601, Note_on_c, 0, 44, 74
1, 273609, Note_on_c, 0, 84, 93
1, 273612, Control_c, 0, 64, 81
1, 273621, Note_on_c, 0, 72, 80
1, 273627, Control_c, 0, 64, 0
1, 273685, Control_c, 0, 64, 70
1, 273696, Note_off_c, 0, 32, 64
1, 273700, Control_c, 0, 64, 90
1, 273702, Note_off_c, 0, 84, 65
1, 273715, Control_c, 0, 64, 127
1, 273735, Note_off_c, 0, 72, 67
1, 273738, Note_off_c, 0, 44, 63
1, 274016, Note_on_c, 0, 68, 61
1, 274016, Note_on_c, 0, 72, 59
1, 274028, Note_on_c, 0, 60, 57
1, 274033, Note_on_c, 0, 56, 49
1, 274039, Note_on_c, 0, 63, 40
1, 274057, Note_off_c, 0, 72, 57
1, 274057, Note_off_c, 0, 68, 57
1, 274058, Note_on_c, 0, 51, 22
1, 274059, Note_off_c, 0, 60, 52
1, 274064, Note_off_c, 0, 56, 54
1, 274076, Note_off_c, 0, 63, 49
1, 274099, Note_off_c, 0, 51, 40
1, 274228, Note_on_c, 0, 56, 53
1, 274234, Note_on_c, 0, 68, 74
1, 274245, Note_on_c, 0, 63, 61
1, 274251, Note_on_c, 0, 60, 45
1, 274260, Note_off_c, 0, 56, 62
1, 274281, Note_off_c, 0, 63, 61
1, 274286, Note_off_c, 0, 60, 50
1, 274292, Note_off_c, 0, 68, 61
1, 274316, Control_c, 0, 67, 8
1, 274331, Control_c, 0, 67, 13
1, 274346, Control_c, 0, 67, 26
1, 274361, Control_c, 0, 67, 46
1, 274375, Control_c, 0, 67, 70
1, 274390, Control_c, 0, 67, 94
1, 274405, Control_c, 0, 67, 107
1, 274420, Control_c, 0, 67, 113
1, 274436, Control_c, 0, 67, 114
1, 274438, Note_on_c, 0, 51, 57
1, 274440, Note_on_c, 0, 72, 82
1, 274445, Note_on_c, 0, 63, 70
1, 274448, Note_on_c, 0, 68, 74
1, 274451, Control_c, 0, 67, 109
1, 274465, Control_c, 0, 67, 101
1, 274466, Note_off_c, 0, 51, 64
1, 274468, Note_off_c, 0, 63, 71
1, 274480, Control_c, 0, 67, 87
1, 274486, Note_off_c, 0, 68, 63
1, 274495, Control_c, 0, 67, 57
1, 274502, Note_off_c, 0, 72, 63
1, 274509, Control_c, 0, 67, 21
1, 274514, Poly_aftertouch_c, 0, 56, 0
1, 274524, Control_c, 0, 67, 0
1, 274724, Control_c, 0, 64, 109
1, 274728, Note_on_c, 0, 32, 77
1, 274739, Control_c, 0, 64, 84
1, 274742, Note_on_c, 0, 44, 78
1, 274754, Control_c, 0, 64, 46
1, 274763, Note_on_c, 0, 89, 101
1, 274769, Note_on_c, 0, 77, 93
1, 274769, Control_c, 0, 64, 0
1, 274799, Note_off_c, 0, 32, 64
1, 274808, Note_off_c, 0, 89, 71
1, 274813, Control_c, 0, 64, 67
1, 274828, Note_off_c, 0, 44, 63
1, 274828, Control_c, 0, 64, 81
1, 274835, Note_off_c, 0, 77, 61
1, 274843, Control_c, 0, 64, 95
1, 274857, Control_c, 0, 64, 103
1, 274872, Control_c, 0, 64, 103
1, 274916, Control_c, 0, 64, 105
1, 274932, Control_c, 0, 64, 107
1, 274947, Control_c, 0, 64, 108
1, 274962, Control_c, 0, 64, 109
1, 274977, Control_c, 0, 64, 110
1, 275006, Control_c, 0, 64, 110
1, 275021, Control_c, 0, 64, 111
1, 275036, Control_c, 0, 64, 111
1, 275051, Control_c, 0, 64, 112
1, 275066, Control_c, 0, 64, 112
1, 275080, Control_c, 0, 64, 113
1, 275091, Note_on_c, 0, 77, 62
1, 275092, Note_on_c, 0, 65, 60
1, 275094, Note_on_c, 0, 56, 62
1, 275094, Note_on_c, 0, 71, 55
1, 275095, Note_on_c, 0, 68, 59
1, 275095, Control_c, 0, 64, 113
1, 275101, Note_on_c, 0, 59, 50
1, 275105, Note_on_c, 0, 50, 42
1, 275110, Control_c, 0, 64, 114
1, 275114, Note_off_c, 0, 77, 58
1, 275124, Control_c, 0, 64, 115
1, 275128, Note_off_c, 0, 56, 61
1, 275128, Note_off_c, 0, 59, 54
1, 275136, Note_off_c, 0, 68, 58
1, 275138, Note_off_c, 0, 50, 55
1, 275139, Control_c, 0, 64, 115
1, 275147, Note_off_c, 0, 71, 50
1, 275154, Control_c, 0, 64, 116
1, 275156, Note_off_c, 0, 65, 54
1, 275184, Control_c, 0, 64, 116
1, 275229, Control_c, 0, 64, 117
1, 275280, Note_on_c, 0, 68, 63
1, 275281, Note_on_c, 0, 71, 64
1, 275286, Note_on_c, 0, 65, 65
1, 275291, Note_on_c, 0, 56, 57
1, 275298, Note_on_c, 0, 59, 40
1, 275303, Control_c, 0, 64, 117
1, 275324, Note_off_c, 0, 56, 61
1, 275327, Note_off_c, 0, 59, 51
1, 275329, Note_off_c, 0, 65, 52
1, 275330, Note_off_c, 0, 68, 61
1, 275354, Control_c, 0, 64, 118
1, 275359, Note_off_c, 0, 71, 59
1, 275384, Control_c, 0, 64, 118
1, 275399, Control_c, 0, 64, 119
1, 275413, Control_c, 0, 64, 119
1, 275502, Note_on_c, 0, 77, 85
1, 275514, Note_on_c, 0, 65, 59
1, 275519, Note_on_c, 0, 71, 62
1, 275520, Note_on_c, 0, 56, 58
1, 275521, Note_on_c, 0, 50, 56
1, 275532, Control_c, 0, 64, 120
1, 275536, Note_on_c, 0, 59, 13
1, 275536, Note_off_c, 0, 65, 61
1, 275553, Note_off_c, 0, 56, 65
1, 275554, Note_off_c, 0, 50, 65
1, 275563, Note_off_c, 0, 71, 56
1, 275575, Note_off_c, 0, 59, 43
1, 275577, Note_off_c, 0, 77, 63
1, 275577, Control_c, 0, 64, 120
1, 275592, Control_c, 0, 64, 121
1, 275606, Control_c, 0, 64, 122
1, 275621, Control_c, 0, 64, 123
1, 275636, Control_c, 0, 64, 126
1, 275651, Control_c, 0, 64, 127
1, 275834, Note_on_c, 0, 88, 96
1, 275837, Note_on_c, 0, 76, 90
1, 275878, Note_off_c, 0, 76, 68
1, 275884, Note_off_c, 0, 88, 63
1, 275933, Control_c, 0, 64, 97
1, 275947, Control_c, 0, 64, 70
1, 275953, Note_on_c, 0, 88, 96
1, 275960, Note_on_c, 0, 76, 90
1, 275962, Control_c, 0, 64, 0
1, 275965, Note_on_c, 0, 32, 66
1, 275970, Note_on_c, 0, 44, 63
1, 276021, Control_c, 0, 64, 65
1, 276036, Control_c, 0, 64, 77
1, 276037, Note_off_c, 0, 88, 63
1, 276039, Note_off_c, 0, 32, 64
1, 276051, Control_c, 0, 64, 91
1, 276066, Control_c, 0, 64, 107
1, 276072, Note_off_c, 0, 44, 61
1, 276075, Note_off_c, 0, 76, 67
1, 276080, Control_c, 0, 64, 110
1, 276102, Control_c, 0, 64, 111
1, 276117, Control_c, 0, 64, 112
1, 276132, Control_c, 0, 64, 113
1, 276147, Control_c, 0, 64, 114
1, 276162, Control_c, 0, 64, 115
1, 276177, Control_c, 0, 64, 115
1, 276191, Control_c, 0, 64, 116
1, 276206, Control_c, 0, 64, 117
1, 276221, Control_c, 0, 64, 118
1, 276251, Control_c, 0, 64, 118
1, 276295, Control_c, 0, 64, 119
1, 276356, Note_on_c, 0, 64, 55
1, 276358, Note_on_c, 0, 72, 46
1, 276360, Note_on_c, 0, 68, 55
1, 276367, Note_on_c, 0, 60, 60
1, 276367, Note_on_c, 0, 56, 50
1, 276390, Note_off_c, 0, 72, 55
1, 276390, Note_off_c, 0, 64, 53
1, 276393, Note_off_c, 0, 68, 63
1, 276403, Note_on_c, 0, 51, 18
1, 276404, Note_off_c, 0, 60, 61
1, 276412, Note_off_c, 0, 56, 59
1, 276448, Note_off_c, 0, 51, 38
1, 276556, Note_on_c, 0, 72, 51
1, 276561, Note_on_c, 0, 68, 60
1, 276561, Note_on_c, 0, 56, 53
1, 276566, Note_on_c, 0, 60, 58
1, 276566, Note_on_c, 0, 64, 58
1, 276591, Note_off_c, 0, 68, 62
1, 276601, Note_off_c, 0, 56, 58
1, 276601, Note_off_c, 0, 64, 60
1, 276607, Note_off_c, 0, 60, 59
1, 276621, Note_off_c, 0, 72, 57
1, 276739, Note_on_c, 0, 60, 60
1, 276743, Note_on_c, 0, 76, 59
1, 276745, Note_on_c, 0, 68, 53
1, 276747, Note_on_c, 0, 51, 51
1, 276749, Note_on_c, 0, 56, 41
1, 276751, Note_on_c, 0, 64, 52
1, 276779, Note_off_c, 0, 60, 56
1, 276785, Note_off_c, 0, 51, 63
1, 276787, Note_off_c, 0, 68, 59
1, 276788, Note_off_c, 0, 56, 43
1, 276791, Note_off_c, 0, 76, 52
1, 276801, Note_off_c, 0, 64, 49
1, 276955, Note_on_c, 0, 60, 73
1, 276961, Note_on_c, 0, 72, 65
1, 276962, Note_on_c, 0, 64, 48
1, 276964, Note_on_c, 0, 56, 61
1, 276966, Note_on_c, 0, 68, 47
1, 276987, Note_off_c, 0, 64, 56
1, 276991, Note_off_c, 0, 68, 58
1, 277016, Note_off_c, 0, 72, 64
1, 277103, Control_c, 0, 64, 119
1, 277148, Control_c, 0, 64, 120
1, 277175, Note_off_c, 0, 56, 53
1, 277207, Control_c, 0, 64, 120
1, 277218, Note_on_c, 0, 63, 78
1, 277220, Note_off_c, 0, 60, 59
1, 277226, Note_on_c, 0, 87, 83
1, 277232, Note_on_c, 0, 75, 77
1, 277236, Control_c, 0, 64, 121
1, 277246, Note_off_c, 0, 87, 71
1, 277253, Note_off_c, 0, 75, 64
1, 277266, Control_c, 0, 64, 121
1, 277273, Note_off_c, 0, 63, 64
1, 277281, Control_c, 0, 64, 122
1, 277296, Control_c, 0, 64, 123
1, 277310, Control_c, 0, 64, 123
1, 277326, Control_c, 0, 64, 124
1, 277341, Control_c, 0, 64, 124
1, 277356, Control_c, 0, 64, 125
1, 277474, Note_on_c, 0, 80, 93
1, 277474, Control_c, 0, 64, 114
1, 277479, Note_on_c, 0, 68, 78
1, 277489, Control_c, 0, 64, 97
1, 277504, Control_c, 0, 64, 76
1, 277519, Control_c, 0, 64, 27
1, 277533, Control_c, 0, 64, 0
1, 277563, Control_c, 0, 64, 62
1, 277575, Note_off_c, 0, 68, 53
1, 277578, Control_c, 0, 64, 73
1, 277593, Control_c, 0, 64, 87
1, 277610, Note_off_c, 0, 80, 61
1, 277615, Control_c, 0, 64, 98
1, 277630, Control_c, 0, 64, 103
1, 277645, Control_c, 0, 64, 103
1, 277659, Control_c, 0, 64, 104
1, 277689, Control_c, 0, 64, 104
1, 277698, Note_on_c, 0, 82, 96
1, 277704, Control_c, 0, 64, 105
1, 277707, Note_on_c, 0, 70, 81
1, 277719, Control_c, 0, 64, 107
1, 277733, Control_c, 0, 64, 110
1, 277748, Control_c, 0, 64, 112
1, 277753, Note_off_c, 0, 70, 59
1, 277763, Control_c, 0, 64, 114
1, 277778, Control_c, 0, 64, 115
1, 277793, Control_c, 0, 64, 117
1, 277807, Control_c, 0, 64, 117
1, 277822, Control_c, 0, 64, 118
1, 277837, Control_c, 0, 64, 119
1, 277852, Control_c, 0, 64, 119
1, 277882, Control_c, 0, 64, 119
1, 277882, Note_off_c, 0, 82, 60
1, 277888, Note_on_c, 0, 32, 70
1, 277897, Control_c, 0, 64, 108
1, 277911, Control_c, 0, 64, 91
1, 277926, Control_c, 0, 64, 70
1, 277934, Note_on_c, 0, 44, 73
1, 277941, Control_c, 0, 64, 0
1, 277947, Note_on_c, 0, 84, 90
1, 277954, Note_on_c, 0, 72, 87
1, 277986, Control_c, 0, 64, 49
1, 277989, Note_off_c, 0, 84, 68
1, 277990, Note_off_c, 0, 32, 64
1, 278000, Control_c, 0, 64, 69
1, 278010, Note_off_c, 0, 72, 66
1, 278015, Control_c, 0, 64, 80
1, 278018, Note_off_c, 0, 44, 64
1, 278030, Control_c, 0, 64, 91
1, 278044, Control_c, 0, 64, 96
1, 278074, Control_c, 0, 64, 96
1, 278089, Control_c, 0, 64, 97
1, 278104, Control_c, 0, 64, 99
1, 278120, Control_c, 0, 64, 101
1, 278135, Control_c, 0, 64, 103
1, 278149, Control_c, 0, 64, 104
1, 278164, Control_c, 0, 64, 105
1, 278180, Control_c, 0, 64, 105
1, 278195, Control_c, 0, 64, 106
1, 278239, Control_c, 0, 64, 106
1, 278269, Control_c, 0, 64, 107
1, 278276, Note_on_c, 0, 60, 65
1, 278278, Note_on_c, 0, 68, 58
1, 278279, Note_on_c, 0, 72, 52
1, 278281, Note_on_c, 0, 63, 54
1, 278284, Note_on_c, 0, 56, 50
1, 278298, Note_on_c, 0, 51, 35
1, 278298, Control_c, 0, 64, 107
1, 278311, Note_off_c, 0, 60, 60
1, 278313, Note_off_c, 0, 63, 54
1, 278317, Note_off_c, 0, 68, 61
1, 278326, Note_off_c, 0, 56, 47
1, 278328, Note_off_c, 0, 72, 63
1, 278331, Note_off_c, 0, 51, 51
1, 278365, Control_c, 0, 64, 108
1, 278379, Control_c, 0, 64, 108
1, 278394, Control_c, 0, 64, 109
1, 278424, Control_c, 0, 64, 109
1, 278478, Note_on_c, 0, 68, 72
1, 278483, Control_c, 0, 64, 110
1, 278486, Note_on_c, 0, 56, 52
1, 278487, Note_on_c, 0, 60, 55
1, 278493, Note_on_c, 0, 63, 65
1, 278498, Control_c, 0, 64, 110
1, 278524, Note_off_c, 0, 56, 53
1, 278528, Control_c, 0, 64, 111
1, 278532, Note_off_c, 0, 63, 55
1, 278534, Note_off_c, 0, 68, 59
1, 278543, Note_off_c, 0, 60, 52
1, 278543, Control_c, 0, 64, 112
1, 278557, Control_c, 0, 64, 113
1, 278572, Control_c, 0, 64, 113
1, 278587, Control_c, 0, 64, 114
1, 278602, Control_c, 0, 64, 115
1, 278617, Control_c, 0, 64, 115
1, 278631, Control_c, 0, 64, 116
1, 278646, Control_c, 0, 64, 117
1, 278661, Control_c, 0, 64, 118
1, 278675, Note_on_c, 0, 51, 67
1, 278675, Control_c, 0, 64, 119
1, 278679, Note_on_c, 0, 72, 76
1, 278684, Note_on_c, 0, 63, 58
1, 278690, Control_c, 0, 64, 120
1, 278693, Note_on_c, 0, 68, 52
1, 278701, Note_off_c, 0, 51, 66
1, 278705, Note_off_c, 0, 63, 65
1, 278705, Control_c, 0, 64, 121
1, 278715, Note_off_c, 0, 68, 63
1, 278720, Control_c, 0, 64, 122
1, 278735, Control_c, 0, 64, 123
1, 278743, Note_off_c, 0, 72, 65
1, 278749, Control_c, 0, 64, 124
1, 278764, Control_c, 0, 64, 125
1, 278779, Control_c, 0, 64, 127
1, 278928, Control_c, 0, 64, 118
1, 278943, Control_c, 0, 64, 98
1, 278953, Note_on_c, 0, 32, 74
1, 278958, Control_c, 0, 64, 77
1, 278966, Note_on_c, 0, 44, 78
1, 278973, Control_c, 0, 64, 0
1, 278979, Note_on_c, 0, 89, 100
1, 278985, Note_on_c, 0, 77, 87
1, 279003, Note_off_c, 0, 32, 64
1, 279004, Note_on_c, 0, 76, 50
1, 279005, Note_off_c, 0, 76, 127
1, 279017, Control_c, 0, 64, 51
1, 279023, Note_off_c, 0, 89, 67
1, 279024, Note_off_c, 0, 44, 64
1, 279032, Control_c, 0, 64, 72
1, 279047, Control_c, 0, 64, 85
1, 279049, Note_off_c, 0, 77, 62
1, 279062, Control_c, 0, 64, 102
1, 279077, Control_c, 0, 64, 110
1, 279128, Control_c, 0, 64, 110
1, 279143, Control_c, 0, 64, 111
1, 279158, Control_c, 0, 64, 112
1, 279173, Control_c, 0, 64, 113
1, 279187, Control_c, 0, 64, 114
1, 279202, Control_c, 0, 64, 114
1, 279262, Control_c, 0, 64, 115
1, 279312, Note_on_c, 0, 65, 66
1, 279313, Note_on_c, 0, 71, 60
1, 279314, Note_on_c, 0, 68, 63
1, 279325, Note_on_c, 0, 56, 57
1, 279331, Note_on_c, 0, 59, 53
1, 279347, Note_off_c, 0, 68, 63
1, 279351, Control_c, 0, 64, 115
1, 279367, Note_off_c, 0, 56, 57
1, 279370, Note_off_c, 0, 71, 54
1, 279379, Note_off_c, 0, 59, 44
1, 279399, Note_off_c, 0, 65, 46
1, 279410, Control_c, 0, 64, 116
1, 279484, Control_c, 0, 64, 116
1, 279502, Note_on_c, 0, 68, 72
1, 279502, Note_on_c, 0, 71, 64
1, 279505, Note_on_c, 0, 65, 75
1, 279508, Note_on_c, 0, 56, 61
1, 279516, Note_on_c, 0, 59, 53
1, 279546, Note_off_c, 0, 56, 56
1, 279558, Control_c, 0, 64, 117
1, 279566, Note_off_c, 0, 68, 58
1, 279576, Note_off_c, 0, 59, 47
1, 279579, Note_off_c, 0, 71, 60
1, 279587, Control_c, 0, 64, 117
1, 279598, Note_off_c, 0, 65, 51
1, 279602, Control_c, 0, 64, 118
1, 279617, Control_c, 0, 64, 118
1, 279676, Control_c, 0, 64, 119
1, 279721, Control_c, 0, 64, 119
1, 279724, Note_on_c, 0, 77, 90
1, 279730, Note_on_c, 0, 65, 68
1, 279734, Note_on_c, 0, 71, 63
1, 279738, Note_on_c, 0, 50, 60
1, 279739, Note_on_c, 0, 56, 63
1, 279754, Note_off_c, 0, 65, 66
1, 279772, Note_off_c, 0, 56, 64
1, 279781, Control_c, 0, 64, 120
1, 279789, Note_off_c, 0, 50, 63
1, 279795, Note_off_c, 0, 71, 62
1, 279795, Control_c, 0, 64, 120
1, 279810, Control_c, 0, 64, 121
1, 279815, Note_off_c, 0, 77, 63
1, 279825, Control_c, 0, 64, 121
1, 279848, Control_c, 0, 64, 122
1, 279863, Control_c, 0, 64, 123
1, 279877, Control_c, 0, 64, 124
1, 279892, Control_c, 0, 64, 125
1, 279907, Control_c, 0, 64, 127
1, 279921, Control_c, 0, 64, 127
1, 280092, Note_on_c, 0, 76, 78
1, 280092, Note_on_c, 0, 88, 85
1, 280134, Note_off_c, 0, 76, 62
1, 280140, Note_off_c, 0, 88, 64
1, 280174, Control_c, 0, 64, 125
1, 280189, Control_c, 0, 64, 103
1, 280203, Control_c, 0, 64, 83
1, 280206, Note_on_c, 0, 88, 98
1, 280215, Note_on_c, 0, 76, 84
1, 280218, Note_on_c, 0, 32, 70
1, 280218, Control_c, 0, 64, 54
1, 280220, Note_on_c, 0, 44, 71
1, 280233, Control_c, 0, 64, 0
1, 280277, Control_c, 0, 64, 52
1, 280290, Note_off_c, 0, 88, 63
1, 280292, Control_c, 0, 64, 72
1, 280295, Note_off_c, 0, 32, 63
1, 280307, Control_c, 0, 64, 84
1, 280321, Control_c, 0, 64, 94
1, 280325, Note_off_c, 0, 44, 61
1, 280335, Note_off_c, 0, 76, 66
1, 280336, Control_c, 0, 64, 96
1, 280366, Control_c, 0, 64, 97
1, 280381, Control_c, 0, 64, 98
1, 280395, Control_c, 0, 64, 100
1, 280410, Control_c, 0, 64, 102
1, 280424, Control_c, 0, 64, 103
1, 280439, Control_c, 0, 64, 104
1, 280469, Control_c, 0, 64, 104
1, 280529, Control_c, 0, 64, 105
1, 280612, Note_on_c, 0, 68, 59
1, 280616, Note_on_c, 0, 64, 54
1, 280624, Note_on_c, 0, 72, 47
1, 280625, Note_on_c, 0, 60, 62
1, 280630, Note_on_c, 0, 56, 50
1, 280647, Note_on_c, 0, 51, 42
1, 280648, Note_off_c, 0, 64, 55
1, 280651, Note_off_c, 0, 68, 61
1, 280654, Note_off_c, 0, 72, 58
1, 280657, Note_off_c, 0, 60, 64
1, 280670, Note_off_c, 0, 56, 51
1, 280677, Note_off_c, 0, 51, 56
1, 280684, Control_c, 0, 64, 105
1, 280810, Note_on_c, 0, 68, 66
1, 280810, Note_on_c, 0, 72, 58
1, 280812, Note_on_c, 0, 56, 54
1, 280815, Note_on_c, 0, 64, 64
1, 280818, Note_on_c, 0, 60, 67
1, 280849, Note_off_c, 0, 68, 61
1, 280855, Note_off_c, 0, 56, 58
1, 280860, Note_off_c, 0, 64, 52
1, 280871, Note_off_c, 0, 60, 52
1, 280889, Note_off_c, 0, 72, 55
1, 280982, Note_on_c, 0, 76, 70
1, 280983, Note_on_c, 0, 51, 57
1, 280985, Note_on_c, 0, 56, 52
1, 280985, Note_on_c, 0, 60, 74
1, 280991, Note_on_c, 0, 64, 65
1, 280998, Note_on_c, 0, 68, 52
1, 281018, Note_off_c, 0, 56, 61
1, 281022, Note_off_c, 0, 68, 59
1, 281028, Note_off_c, 0, 51, 57
1, 281032, Note_off_c, 0, 60, 54
1, 281041, Note_off_c, 0, 64, 52
1, 281042, Note_off_c, 0, 76, 65
1, 281183, Note_on_c, 0, 72, 73
1, 281186, Note_on_c, 0, 64, 53
1, 281190, Note_on_c, 0, 60, 69
1, 281200, Note_on_c, 0, 56, 53
1, 281203, Note_on_c, 0, 68, 40
1, 281211, Note_off_c, 0, 64, 56
1, 281231, Note_off_c, 0, 68, 55
1, 281237, Note_off_c, 0, 72, 66
1, 281424, Note_off_c, 0, 56, 60
1, 281438, Note_on_c, 0, 87, 87
1, 281441, Note_off_c, 0, 60, 55
1, 281447, Note_on_c, 0, 63, 79
1, 281450, Note_on_c, 0, 75, 72
1, 281463, Note_off_c, 0, 87, 63
1, 281475, Note_off_c, 0, 75, 70
1, 281518, Note_off_c, 0, 63, 62
1, 281656, Control_c, 0, 64, 102
1, 281671, Control_c, 0, 64, 91
1, 281678, Note_on_c, 0, 80, 92
1, 281683, Note_on_c, 0, 68, 82
1, 281686, Control_c, 0, 64, 74
1, 281700, Control_c, 0, 64, 0
1, 281745, Control_c, 0, 64, 59
1, 281750, Note_off_c, 0, 68, 60
1, 281760, Control_c, 0, 64, 70
1, 281775, Control_c, 0, 64, 79
1, 281790, Control_c, 0, 64, 88
1, 281791, Note_off_c, 0, 80, 63
1, 281805, Control_c, 0, 64, 92
1, 281819, Control_c, 0, 64, 93
1, 281849, Control_c, 0, 64, 93
1, 281864, Control_c, 0, 64, 95
1, 281875, Note_on_c, 0, 82, 97
1, 281879, Control_c, 0, 64, 96
1, 281882, Note_on_c, 0, 70, 80
1, 281893, Control_c, 0, 64, 98
1, 281908, Control_c, 0, 64, 100
1, 281923, Control_c, 0, 64, 102
1, 281930, Note_off_c, 0, 70, 61
1, 281938, Control_c, 0, 64, 103
1, 281944, Note_on_c, 0, 83, 7
1, 281953, Control_c, 0, 64, 104
1, 281967, Control_c, 0, 64, 105
1, 281982, Control_c, 0, 64, 105
1, 281993, Note_off_c, 0, 83, 34
1, 281997, Control_c, 0, 64, 106
1, 282012, Control_c, 0, 64, 107
1, 282041, Control_c, 0, 64, 105
1, 282055, Note_on_c, 0, 31, 78
1, 282056, Control_c, 0, 64, 93
1, 282060, Note_off_c, 0, 82, 58
1, 282071, Control_c, 0, 64, 74
1, 282086, Control_c, 0, 64, 0
1, 282101, Note_on_c, 0, 43, 77
1, 282115, Note_on_c, 0, 84, 93
1, 282116, Note_on_c, 0, 72, 89
1, 282127, Note_off_c, 0, 31, 62
1, 282153, Note_off_c, 0, 84, 67
1, 282153, Control_c, 0, 64, 65
1, 282159, Note_off_c, 0, 43, 62
1, 282168, Control_c, 0, 64, 75
1, 282170, Note_off_c, 0, 72, 66
1, 282183, Control_c, 0, 64, 84
1, 282198, Control_c, 0, 64, 91
1, 282213, Control_c, 0, 64, 91
1, 282228, Control_c, 0, 64, 92
1, 282243, Control_c, 0, 64, 92
1, 282258, Control_c, 0, 64, 94
1, 282272, Control_c, 0, 64, 96
1, 282287, Control_c, 0, 64, 98
1, 282302, Control_c, 0, 64, 99
1, 282317, Control_c, 0, 64, 100
1, 282331, Control_c, 0, 64, 101
1, 282341, Note_on_c, 0, 72, 80
1, 282346, Control_c, 0, 64, 101
1, 282354, Note_on_c, 0, 70, 67
1, 282356, Note_on_c, 0, 64, 55
1, 282361, Control_c, 0, 64, 102
1, 282362, Note_on_c, 0, 52, 59
1, 282365, Note_on_c, 0, 60, 57
1, 282376, Control_c, 0, 64, 103
1, 282377, Note_off_c, 0, 64, 61
1, 282380, Note_on_c, 0, 58, 46
1, 282381, Note_off_c, 0, 70, 67
1, 282390, Note_off_c, 0, 72, 66
1, 282390, Control_c, 0, 64, 104
1, 282405, Control_c, 0, 64, 106
1, 282410, Note_off_c, 0, 52, 59
1, 282412, Note_off_c, 0, 60, 42
1, 282420, Control_c, 0, 64, 107
1, 282422, Note_off_c, 0, 58, 51
1, 282435, Control_c, 0, 64, 108
1, 282449, Control_c, 0, 64, 110
1, 282464, Control_c, 0, 64, 111
1, 282479, Control_c, 0, 64, 112
1, 282494, Control_c, 0, 64, 114
1, 282509, Control_c, 0, 64, 118
1, 282523, Control_c, 0, 64, 124
1, 282538, Note_on_c, 0, 64, 67
1, 282538, Control_c, 0, 64, 127
1, 282548, Note_on_c, 0, 58, 58
1, 282561, Note_on_c, 0, 84, 99
1, 282568, Note_on_c, 0, 72, 84
1, 282588, Note_off_c, 0, 64, 42
1, 282589, Note_off_c, 0, 72, 67
1, 282594, Note_off_c, 0, 84, 62
1, 282621, Note_off_c, 0, 58, 50
1, 282736, Note_on_c, 0, 52, 56
1, 282748, Note_on_c, 0, 72, 72
1, 282755, Note_off_c, 0, 52, 64
1, 282765, Note_on_c, 0, 70, 43
1, 282778, Note_on_c, 0, 64, 14
1, 282788, Note_off_c, 0, 70, 56
1, 282789, Note_off_c, 0, 72, 60
1, 282820, Note_off_c, 0, 64, 45
1, 282945, Control_c, 0, 64, 92
1, 282960, Control_c, 0, 64, 60
1, 282973, Note_on_c, 0, 30, 73
1, 282975, Control_c, 0, 64, 0
1, 282983, Note_on_c, 0, 85, 95
1, 282986, Note_on_c, 0, 42, 85
1, 282989, Note_on_c, 0, 73, 93
1, 283005, Control_c, 0, 64, 49
1, 283008, Note_off_c, 0, 85, 70
1, 283009, Note_off_c, 0, 30, 66
1, 283019, Control_c, 0, 64, 72
1, 283021, Note_off_c, 0, 42, 65
1, 283034, Control_c, 0, 64, 86
1, 283040, Note_off_c, 0, 73, 63
1, 283049, Control_c, 0, 64, 108
1, 283064, Control_c, 0, 64, 115
1, 283108, Control_c, 0, 64, 116
1, 283123, Control_c, 0, 64, 117
1, 283138, Control_c, 0, 64, 119
1, 283152, Control_c, 0, 64, 122
1, 283167, Control_c, 0, 64, 124
1, 283182, Control_c, 0, 64, 127
1, 283235, Note_on_c, 0, 63, 71
1, 283241, Note_on_c, 0, 73, 72
1, 283245, Note_on_c, 0, 69, 55
1, 283258, Note_on_c, 0, 61, 64
1, 283263, Note_off_c, 0, 63, 67
1, 283265, Note_on_c, 0, 51, 43
1, 283265, Note_off_c, 0, 69, 65
1, 283282, Note_off_c, 0, 73, 58
1, 283302, Note_off_c, 0, 51, 56
1, 283362, Note_off_c, 0, 61, 61
1, 283417, Note_on_c, 0, 63, 78
1, 283431, Note_on_c, 0, 57, 64
1, 283510, Note_off_c, 0, 63, 61
1, 283541, Note_off_c, 0, 57, 50
1, 283554, Note_on_c, 0, 61, 68
1, 283578, Note_off_c, 0, 61, 66
1, 283581, Note_on_c, 0, 51, 61
1, 283599, Note_on_c, 0, 81, 96
1, 283604, Note_on_c, 0, 69, 84
1, 283621, Note_off_c, 0, 51, 63
1, 283644, Note_off_c, 0, 69, 62
1, 283669, Note_off_c, 0, 81, 59
1, 283724, Control_c, 0, 64, 93
1, 283739, Control_c, 0, 64, 67
1, 283754, Control_c, 0, 64, 0
1, 283766, Note_on_c, 0, 82, 99
1, 283769, Note_on_c, 0, 70, 92
1, 283775, Note_on_c, 0, 29, 83
1, 283777, Note_on_c, 0, 41, 82
1, 283783, Control_c, 0, 64, 32
1, 283798, Control_c, 0, 64, 69
1, 283801, Note_off_c, 0, 70, 65
1, 283801, Note_off_c, 0, 82, 66
1, 283802, Note_off_c, 0, 41, 69
1, 283805, Note_off_c, 0, 29, 64
1, 283813, Control_c, 0, 64, 84
1, 283828, Control_c, 0, 64, 98
1, 283842, Control_c, 0, 64, 104
1, 283901, Control_c, 0, 64, 104
1, 283916, Control_c, 0, 64, 106
1, 283931, Control_c, 0, 64, 108
1, 283946, Control_c, 0, 64, 110
1, 283961, Control_c, 0, 64, 113
1, 283963, Note_on_c, 0, 70, 77
1, 283975, Control_c, 0, 64, 115
1, 283984, Note_on_c, 0, 50, 53
1, 283984, Note_on_c, 0, 62, 41
1, 283988, Note_off_c, 0, 70, 68
1, 283990, Control_c, 0, 64, 118
1, 283993, Note_on_c, 0, 56, 47
1, 284005, Control_c, 0, 64, 121
1, 284012, Note_off_c, 0, 62, 54
1, 284020, Control_c, 0, 64, 125
1, 284031, Note_off_c, 0, 56, 57
1, 284035, Control_c, 0, 64, 127
1, 284037, Note_off_c, 0, 50, 55
1, 284130, Note_on_c, 0, 62, 73
1, 284133, Note_on_c, 0, 82, 96
1, 284135, Note_on_c, 0, 70, 95
1, 284141, Note_on_c, 0, 56, 56
1, 284150, Note_off_c, 0, 82, 70
1, 284157, Note_off_c, 0, 70, 67
1, 284158, Note_on_c, 0, 58, 58
1, 284168, Note_off_c, 0, 62, 56
1, 284178, Note_off_c, 0, 56, 58
1, 284178, Note_off_c, 0, 58, 63
1, 284303, Note_on_c, 0, 50, 45
1, 284314, Note_on_c, 0, 70, 69
1, 284318, Note_on_c, 0, 56, 28
1, 284325, Note_on_c, 0, 62, 45
1, 284329, Note_off_c, 0, 50, 53
1, 284354, Note_off_c, 0, 70, 53
1, 284361, Note_off_c, 0, 62, 53
1, 284362, Note_off_c, 0, 56, 50
1, 284368, Poly_aftertouch_c, 0, 58, 0
1, 284517, Control_c, 0, 64, 87
1, 284532, Control_c, 0, 64, 0
1, 284536, Note_on_c, 0, 28, 77
1, 284541, Note_on_c, 0, 40, 90
1, 284567, Note_on_c, 0, 84, 92
1, 284567, Note_off_c, 0, 28, 65
1, 284570, Note_on_c, 0, 72, 96
1, 284588, Note_off_c, 0, 40, 66
1, 284592, Control_c, 0, 64, 88
1, 284593, Note_off_c, 0, 84, 68
1, 284607, Control_c, 0, 64, 127
1, 284610, Note_off_c, 0, 72, 69
1, 284816, Note_on_c, 0, 61, 81
1, 284818, Note_on_c, 0, 72, 75
1, 284819, Note_on_c, 0, 49, 72
1, 284824, Note_on_c, 0, 58, 66
1, 284832, Note_on_c, 0, 67, 48
1, 284840, Note_off_c, 0, 61, 65
1, 284855, Note_off_c, 0, 67, 57
1, 284878, Note_off_c, 0, 72, 64
1, 284922, Note_off_c, 0, 49, 52
1, 284952, Note_off_c, 0, 58, 61
1, 284993, Note_on_c, 0, 61, 88
1, 285004, Note_on_c, 0, 55, 74
1, 285097, Note_off_c, 0, 61, 58
1, 285126, Note_off_c, 0, 55, 56
1, 285160, Note_on_c, 0, 58, 68
1, 285164, Note_on_c, 0, 49, 71
1, 285178, Note_on_c, 0, 79, 94
1, 285183, Note_on_c, 0, 67, 87
1, 285183, Note_off_c, 0, 58, 69
1, 285214, Note_off_c, 0, 49, 61
1, 285224, Note_off_c, 0, 67, 60
1, 285260, Note_off_c, 0, 79, 61
1, 285326, Control_c, 0, 64, 101
1, 285340, Control_c, 0, 64, 74
1, 285355, Note_on_c, 0, 80, 103
1, 285355, Control_c, 0, 64, 0
1, 285358, Note_on_c, 0, 39, 93
1, 285358, Note_on_c, 0, 68, 96
1, 285365, Note_on_c, 0, 27, 80
1, 285370, Control_c, 0, 64, 57
1, 285385, Note_off_c, 0, 39, 68
1, 285385, Control_c, 0, 64, 73
1, 285389, Note_off_c, 0, 27, 67
1, 285400, Control_c, 0, 64, 90
1, 285414, Control_c, 0, 64, 118
1, 285423, Note_off_c, 0, 68, 60
1, 285429, Control_c, 0, 64, 127
1, 285539, Note_off_c, 0, 80, 63
1, 285584, Note_on_c, 0, 48, 37
1, 285593, Note_on_c, 0, 50, 47
1, 285632, Note_off_c, 0, 50, 49
1, 285653, Note_off_c, 0, 48, 41
1, 285733, Note_on_c, 0, 60, 80
1, 285739, Note_on_c, 0, 51, 45
1, 285745, Note_on_c, 0, 56, 37
1, 285764, Note_on_c, 0, 91, 111
1, 285764, Note_off_c, 0, 60, 58
1, 285766, Note_on_c, 0, 79, 100
1, 285774, Note_off_c, 0, 56, 50
1, 285775, Note_off_c, 0, 51, 44
1, 285941, Note_on_c, 0, 68, 84
1, 285946, Note_on_c, 0, 60, 65
1, 285950, Note_on_c, 0, 63, 70
1, 285962, Note_off_c, 0, 68, 69
1, 285964, Note_off_c, 0, 91, 52
1, 285973, Note_off_c, 0, 63, 68
1, 285975, Note_off_c, 0, 60, 66
1, 286005, Note_off_c, 0, 79, 55
1, 286168, Note_on_c, 0, 89, 109
1, 286171, Note_on_c, 0, 77, 107
1, 286179, Control_c, 0, 64, 90
1, 286182, Note_on_c, 0, 38, 101
1, 286183, Note_on_c, 0, 26, 90
1, 286194, Control_c, 0, 64, 64
1, 286207, Note_off_c, 0, 26, 66
1, 286209, Control_c, 0, 64, 0
1, 286213, Note_off_c, 0, 38, 68
1, 286224, Control_c, 0, 64, 23
1, 286238, Control_c, 0, 64, 70
1, 286239, Note_off_c, 0, 89, 67
1, 286253, Control_c, 0, 64, 85
1, 286268, Note_off_c, 0, 77, 61
1, 286268, Control_c, 0, 64, 105
1, 286282, Control_c, 0, 64, 123
1, 286297, Control_c, 0, 64, 125
1, 286342, Control_c, 0, 64, 127
1, 286401, Note_on_c, 0, 56, 64
1, 286402, Note_on_c, 0, 47, 57
1, 286455, Note_off_c, 0, 56, 55
1, 286522, Note_off_c, 0, 47, 37
1, 286554, Note_on_c, 0, 56, 56
1, 286588, Note_on_c, 0, 59, 76
1, 286590, Note_off_c, 0, 56, 63
1, 286600, Note_on_c, 0, 80, 105
1, 286601, Note_on_c, 0, 68, 93
1, 286626, Note_off_c, 0, 59, 59
1, 286797, Note_on_c, 0, 65, 90
1, 286803, Note_on_c, 0, 59, 83
1, 286804, Note_on_c, 0, 56, 85
1, 286821, Note_off_c, 0, 65, 69
1, 286827, Note_off_c, 0, 59, 67
1, 286845, Note_off_c, 0, 56, 68
1, 286857, Note_off_c, 0, 68, 58
1, 286937, Note_off_c, 0, 80, 58
1, 287075, Control_c, 0, 64, 106
1, 287087, Note_on_c, 0, 81, 103
1, 287089, Note_on_c, 0, 69, 106
1, 287090, Control_c, 0, 64, 78
1, 287099, Note_on_c, 0, 39, 102
1, 287104, Note_on_c, 0, 27, 85
1, 287105, Control_c, 0, 64, 0
1, 287124, Note_off_c, 0, 27, 68
1, 287125, Note_off_c, 0, 39, 67
1, 287134, Control_c, 0, 64, 14
1, 287149, Control_c, 0, 64, 68
1, 287164, Control_c, 0, 64, 83
1, 287179, Control_c, 0, 64, 99
1, 287194, Control_c, 0, 64, 110
1, 287209, Control_c, 0, 64, 111
1, 287238, Control_c, 0, 64, 112
1, 287253, Control_c, 0, 64, 113
1, 287268, Control_c, 0, 64, 115
1, 287283, Control_c, 0, 64, 117
1, 287286, Note_off_c, 0, 69, 51
1, 287298, Note_off_c, 0, 81, 60
1, 287298, Control_c, 0, 64, 120
1, 287312, Control_c, 0, 64, 124
1, 287317, Note_on_c, 0, 56, 83
1, 287325, Note_on_c, 0, 46, 74
1, 287327, Control_c, 0, 64, 127
1, 287395, Note_off_c, 0, 46, 57
1, 287461, Note_off_c, 0, 56, 55
1, 287493, Note_on_c, 0, 53, 66
1, 287494, Note_on_c, 0, 61, 87
1, 287523, Note_off_c, 0, 53, 66
1, 287553, Note_off_c, 0, 61, 62
1, 287600, Note_on_c, 0, 82, 101
1, 287606, Note_on_c, 0, 70, 87
1, 287629, Note_off_c, 0, 70, 67
1, 287648, Note_off_c, 0, 82, 63
1, 287753, Note_on_c, 0, 85, 99
1, 287759, Note_on_c, 0, 73, 91
1, 287775, Note_on_c, 0, 68, 72
1, 287799, Note_off_c, 0, 85, 64
1, 287802, Note_off_c, 0, 73, 62
1, 287863, Note_on_c, 0, 84, 100
1, 287877, Note_on_c, 0, 72, 80
1, 287900, Note_off_c, 0, 72, 71
1, 287920, Note_off_c, 0, 68, 62
1, 287921, Note_off_c, 0, 84, 62
1, 287959, Note_on_c, 0, 82, 101
1, 287960, Note_on_c, 0, 65, 77
1, 287961, Note_on_c, 0, 73, 76
1, 287969, Note_on_c, 0, 70, 87
1, 287983, Note_off_c, 0, 73, 68
1, 288006, Note_off_c, 0, 65, 63
1, 288017, Note_off_c, 0, 70, 58
1, 288019, Note_off_c, 0, 82, 68
1, 288134, Note_on_c, 0, 68, 83
1, 288142, Note_on_c, 0, 58, 73
1, 288158, Note_off_c, 0, 68, 66
1, 288169, Note_off_c, 0, 58, 68
1, 288383, Note_on_c, 0, 55, 72
1, 288391, Note_on_c, 0, 51, 81
1, 288391, Note_on_c, 0, 61, 80
1, 288410, Control_c, 0, 64, 101
1, 288425, Control_c, 0, 64, 72
1, 288434, Note_on_c, 0, 83, 94
1, 288438, Note_on_c, 0, 71, 92
1, 288440, Control_c, 0, 64, 0
1, 288476, Note_off_c, 0, 61, 64
1, 288484, Control_c, 0, 64, 65
1, 288486, Note_off_c, 0, 55, 65
1, 288499, Control_c, 0, 64, 81
1, 288515, Control_c, 0, 64, 100
1, 288528, Note_off_c, 0, 51, 63
1, 288529, Control_c, 0, 64, 117
1, 288544, Control_c, 0, 64, 118
1, 288574, Control_c, 0, 64, 120
1, 288589, Control_c, 0, 64, 124
1, 288604, Control_c, 0, 64, 127
1, 288653, Note_off_c, 0, 71, 56
1, 288681, Note_on_c, 0, 39, 100
1, 288708, Note_off_c, 0, 39, 66
1, 288728, Note_off_c, 0, 83, 47
1, 289025, Control_c, 0, 64, 86
1, 289040, Control_c, 0, 64, 0
1, 289043, Note_on_c, 0, 84, 97
1, 289045, Note_on_c, 0, 72, 94
1, 289059, Note_on_c, 0, 44, 95
1, 289063, Note_on_c, 0, 32, 87
1, 289084, Control_c, 0, 64, 70
1, 289087, Note_off_c, 0, 44, 68
1, 289089, Note_off_c, 0, 32, 66
1, 289093, Note_off_c, 0, 84, 70
1, 289099, Control_c, 0, 64, 90
1, 289114, Control_c, 0, 64, 127
1, 289134, Note_off_c, 0, 72, 64
1, 289394, Note_on_c, 0, 68, 62
1, 289395, Note_on_c, 0, 72, 55
1, 289402, Note_on_c, 0, 63, 56
1, 289409, Note_on_c, 0, 56, 48
1, 289412, Note_on_c, 0, 51, 51
1, 289415, Note_on_c, 0, 60, 43
1, 289436, Note_off_c, 0, 56, 53
1, 289438, Note_off_c, 0, 63, 57
1, 289439, Note_off_c, 0, 72, 54
1, 289440, Note_off_c, 0, 60, 54
1, 289448, Note_off_c, 0, 51, 49
1, 289508, Note_off_c, 0, 68, 36
1, 289591, Note_on_c, 0, 68, 74
1, 289603, Note_on_c, 0, 63, 65
1, 289618, Note_on_c, 0, 60, 63
1, 289622, Note_on_c, 0, 56, 59
1, 289633, Note_off_c, 0, 63, 62
1, 289657, Note_off_c, 0, 68, 62
1, 289662, Note_off_c, 0, 60, 56
1, 289784, Note_on_c, 0, 51, 63
1, 289786, Note_on_c, 0, 72, 86
1, 289792, Note_off_c, 0, 56, 23
1, 289796, Note_on_c, 0, 63, 72
1, 289796, Note_on_c, 0, 68, 78
1, 289811, Note_off_c, 0, 51, 66
1, 289820, Note_off_c, 0, 63, 68
1, 289844, Note_off_c, 0, 68, 63
1, 289856, Note_off_c, 0, 72, 65
1, 290018, Note_on_c, 0, 32, 81
1, 290026, Control_c, 0, 64, 94
1, 290040, Note_on_c, 0, 44, 92
1, 290041, Control_c, 0, 64, 48
1, 290056, Control_c, 0, 64, 0
1, 290068, Note_on_c, 0, 89, 105
1, 290070, Note_on_c, 0, 77, 105
1, 290077, Note_off_c, 0, 32, 65
1, 290085, Control_c, 0, 64, 44
1, 290095, Note_off_c, 0, 44, 65
1, 290100, Control_c, 0, 64, 72
1, 290103, Note_off_c, 0, 89, 70
1, 290116, Control_c, 0, 64, 89
1, 290118, Note_off_c, 0, 77, 66
1, 290130, Control_c, 0, 64, 124
1, 290145, Control_c, 0, 64, 127
1, 290366, Note_on_c, 0, 59, 70
1, 290373, Note_on_c, 0, 65, 53
1, 290374, Note_on_c, 0, 56, 54
1, 290381, Note_on_c, 0, 68, 48
1, 290384, Note_on_c, 0, 71, 49
1, 290408, Note_off_c, 0, 68, 55
1, 290427, Note_off_c, 0, 71, 45
1, 290431, Note_off_c, 0, 56, 53
1, 290431, Note_off_c, 0, 59, 56
1, 290440, Poly_aftertouch_c, 0, 67, 0
1, 290444, Note_off_c, 0, 65, 33
1, 290466, Poly_aftertouch_c, 0, 50, 0
1, 290466, Poly_aftertouch_c, 0, 67, 0
1, 290539, Note_on_c, 0, 68, 75
1, 290539, Note_on_c, 0, 71, 76
1, 290542, Note_on_c, 0, 65, 80
1, 290545, Note_on_c, 0, 59, 73
1, 290548, Note_on_c, 0, 56, 69
1, 290586, Note_off_c, 0, 59, 53
1, 290602, Note_off_c, 0, 56, 53
1, 290607, Note_off_c, 0, 68, 55
1, 290625, Note_off_c, 0, 71, 58
1, 290648, Note_off_c, 0, 65, 59
1, 290738, Note_on_c, 0, 77, 100
1, 290741, Note_on_c, 0, 50, 75
1, 290742, Note_on_c, 0, 56, 66
1, 290744, Note_on_c, 0, 65, 85
1, 290747, Note_on_c, 0, 71, 78
1, 290759, Note_on_c, 0, 68, 57
1, 290762, Note_off_c, 0, 65, 75
1, 290769, Note_off_c, 0, 56, 67
1, 290774, Note_on_c, 0, 59, 8
1, 290779, Note_off_c, 0, 68, 61
1, 290784, Note_off_c, 0, 50, 62
1, 290795, Note_off_c, 0, 71, 63
1, 290800, Note_off_c, 0, 59, 0
1, 290810, Note_off_c, 0, 77, 65
1, 290822, Poly_aftertouch_c, 0, 59, 0
1, 291072, Note_on_c, 0, 88, 100
1, 291081, Note_on_c, 0, 76, 97
1, 291123, Note_off_c, 0, 76, 69
1, 291128, Note_off_c, 0, 88, 65
1, 291183, Control_c, 0, 64, 108
1, 291191, Note_on_c, 0, 44, 94
1, 291191, Note_on_c, 0, 88, 104
1, 291192, Note_on_c, 0, 32, 82
1, 291194, Note_on_c, 0, 76, 106
1, 291198, Control_c, 0, 64, 75
1, 291212, Control_c, 0, 64, 0
1, 291239, Note_off_c, 0, 32, 63
1, 291242, Control_c, 0, 64, 47
1, 291251, Note_off_c, 0, 88, 64
1, 291257, Control_c, 0, 64, 75
1, 291269, Note_off_c, 0, 44, 63
1, 291272, Control_c, 0, 64, 98
1, 291284, Note_off_c, 0, 76, 67
1, 291287, Control_c, 0, 64, 127
1, 291555, Note_on_c, 0, 68, 62
1, 291555, Note_on_c, 0, 64, 57
1, 291556, Note_on_c, 0, 56, 54
1, 291561, Note_on_c, 0, 60, 61
1, 291561, Note_on_c, 0, 72, 48
1, 291588, Note_on_c, 0, 51, 25
1, 291593, Note_off_c, 0, 68, 61
1, 291598, Note_off_c, 0, 64, 57
1, 291600, Note_off_c, 0, 60, 58
1, 291603, Note_off_c, 0, 56, 55
1, 291607, Note_off_c, 0, 72, 47
1, 291630, Note_off_c, 0, 51, 42
1, 291733, Note_on_c, 0, 68, 68
1, 291734, Note_on_c, 0, 56, 65
1, 291734, Note_on_c, 0, 72, 61
1, 291738, Note_on_c, 0, 64, 70
1, 291741, Note_on_c, 0, 60, 64
1, 291779, Note_off_c, 0, 56, 55
1, 291791, Note_off_c, 0, 60, 57
1, 291799, Note_off_c, 0, 68, 57
1, 291811, Note_off_c, 0, 64, 54
1, 291815, Note_off_c, 0, 72, 57
1, 291907, Note_on_c, 0, 51, 59
1, 291909, Note_on_c, 0, 60, 67
1, 291916, Note_on_c, 0, 56, 44
1, 291917, Note_on_c, 0, 76, 71
1, 291925, Note_on_c, 0, 64, 70
1, 291925, Note_on_c, 0, 68, 58
1, 291946, Note_off_c, 0, 56, 50
1, 291948, Note_off_c, 0, 51, 63
1, 291954, Note_off_c, 0, 68, 60
1, 291983, Note_off_c, 0, 76, 59
1, 291991, Note_off_c, 0, 64, 56
1, 292026, Note_off_c, 0, 60, 26
1, 292095, Note_on_c, 0, 60, 76
1, 292095, Note_on_c, 0, 72, 76
1, 292098, Note_on_c, 0, 68, 65
1, 292104, Note_on_c, 0, 56, 68
1, 292116, Note_on_c, 0, 64, 34
1, 292123, Note_off_c, 0, 68, 65
1, 292146, Note_off_c, 0, 72, 64
1, 292151, Note_off_c, 0, 64, 45
1, 292324, Note_on_c, 0, 63, 89
1, 292330, Note_on_c, 0, 87, 89
1, 292331, Note_off_c, 0, 60, 60
1, 292332, Note_off_c, 0, 56, 60
1, 292333, Note_on_c, 0, 75, 89
1, 292354, Note_off_c, 0, 87, 62
1, 292369, Note_off_c, 0, 75, 61
1, 292384, Note_off_c, 0, 63, 65
1, 292529, Note_on_c, 0, 68, 90
1, 292531, Note_on_c, 0, 80, 89
1, 292594, Note_off_c, 0, 68, 62
1, 292615, Note_off_c, 0, 80, 60
1, 292703, Note_on_c, 0, 82, 97
1, 292709, Note_on_c, 0, 70, 86
1, 292802, Note_off_c, 0, 70, 62
1, 292832, Note_on_c, 0, 32, 82
1, 292844, Control_c, 0, 64, 107
1, 292858, Control_c, 0, 64, 75
1, 292859, Note_off_c, 0, 82, 60
1, 292868, Note_on_c, 0, 44, 85
1, 292873, Control_c, 0, 64, 0
1, 292911, Note_off_c, 0, 32, 65
1, 292920, Note_on_c, 0, 84, 103
1, 292923, Note_on_c, 0, 72, 94
1, 292932, Control_c, 0, 64, 38
1, 292938, Note_off_c, 0, 44, 64
1, 292947, Control_c, 0, 64, 85
1, 292962, Control_c, 0, 64, 126
1, 292977, Control_c, 0, 64, 127
1, 293156, Note_on_c, 0, 60, 74
1, 293162, Note_on_c, 0, 56, 67
1, 293165, Note_on_c, 0, 51, 52
1, 293204, Note_off_c, 0, 72, 53
1, 293223, Note_off_c, 0, 56, 58
1, 293229, Note_off_c, 0, 51, 43
1, 293229, Note_off_c, 0, 60, 56
1, 293235, Note_off_c, 0, 84, 61
1, 293308, Note_on_c, 0, 56, 66
1, 293315, Note_on_c, 0, 60, 51
1, 293320, Note_on_c, 0, 63, 77
1, 293378, Note_off_c, 0, 60, 61
1, 293388, Note_on_c, 0, 84, 108
1, 293389, Note_on_c, 0, 72, 103
1, 293393, Note_off_c, 0, 56, 54
1, 293423, Note_off_c, 0, 63, 62
1, 293439, Poly_aftertouch_c, 0, 51, 0
1, 293480, Note_off_c, 0, 72, 60
1, 293534, Note_off_c, 0, 84, 60
1, 293545, Note_on_c, 0, 60, 74
1, 293552, Note_on_c, 0, 56, 73
1, 293558, Note_on_c, 0, 51, 67
1, 293584, Note_off_c, 0, 60, 64
1, 293598, Note_off_c, 0, 56, 65
1, 293610, Note_off_c, 0, 51, 63
1, 293785, Control_c, 0, 64, 113
1, 293800, Control_c, 0, 64, 81
1, 293806, Note_on_c, 0, 91, 104
1, 293809, Note_on_c, 0, 79, 102
1, 293815, Control_c, 0, 64, 0
1, 293818, Note_on_c, 0, 32, 83
1, 293819, Note_on_c, 0, 44, 80
1, 293843, Note_on_c, 0, 42, 45
1, 293844, Note_off_c, 0, 42, 127
1, 293846, Note_off_c, 0, 32, 66
1, 293850, Note_off_c, 0, 44, 66
1, 293859, Control_c, 0, 64, 70
1, 293874, Control_c, 0, 64, 86
1, 293889, Control_c, 0, 64, 113
1, 293904, Control_c, 0, 64, 127
1, 293920, Note_off_c, 0, 91, 60
1, 293924, Note_off_c, 0, 79, 57
1, 294094, Note_on_c, 0, 50, 62
1, 294095, Note_on_c, 0, 56, 63
1, 294098, Note_on_c, 0, 59, 66
1, 294145, Note_off_c, 0, 50, 58
1, 294159, Note_off_c, 0, 59, 62
1, 294166, Note_on_c, 0, 89, 103
1, 294169, Note_on_c, 0, 77, 101
1, 294179, Note_off_c, 0, 56, 54
1, 294335, Note_on_c, 0, 65, 89
1, 294342, Note_on_c, 0, 56, 72
1, 294344, Note_on_c, 0, 59, 77
1, 294391, Note_off_c, 0, 65, 62
1, 294425, Note_off_c, 0, 89, 52
1, 294434, Note_off_c, 0, 59, 53
1, 294438, Note_off_c, 0, 56, 51
1, 294452, Note_off_c, 0, 77, 55
1, 294500, Note_on_c, 0, 56, 56
1, 294515, Note_on_c, 0, 50, 71
1, 294515, Note_on_c, 0, 59, 75
1, 294570, Note_off_c, 0, 59, 61
1, 294605, Note_off_c, 0, 50, 62
1, 294605, Note_off_c, 0, 56, 64
1, 294611, Note_on_c, 0, 88, 102
1, 294614, Note_on_c, 0, 76, 97
1, 294654, Note_off_c, 0, 76, 69
1, 294690, Note_off_c, 0, 88, 62
1, 294731, Note_on_c, 0, 76, 97
1, 294884, Note_on_c, 0, 30, 82
1, 294912, Control_c, 0, 64, 86
1, 294926, Control_c, 0, 64, 0
1, 294929, Note_on_c, 0, 42, 81
1, 294971, Note_on_c, 0, 88, 107
1, 295010, Note_off_c, 0, 30, 64
1, 295016, Control_c, 0, 64, 75
1, 295031, Control_c, 0, 64, 90
1, 295046, Control_c, 0, 64, 109
1, 295060, Note_off_c, 0, 42, 61
1, 295060, Control_c, 0, 64, 117
1, 295090, Control_c, 0, 64, 118
1, 295105, Control_c, 0, 64, 119
1, 295120, Control_c, 0, 64, 121
1, 295134, Control_c, 0, 64, 125
1, 295149, Control_c, 0, 64, 127
1, 295499, Note_on_c, 0, 59, 50
1, 295523, Note_on_c, 0, 54, 41
1, 295524, Note_on_c, 0, 51, 32
1, 295564, Note_off_c, 0, 51, 49
1, 295582, Note_off_c, 0, 54, 54
1, 295589, Note_off_c, 0, 59, 47
1, 295730, Note_on_c, 0, 66, 64
1, 295740, Note_on_c, 0, 59, 56
1, 295745, Note_on_c, 0, 54, 47
1, 295776, Note_off_c, 0, 66, 56
1, 295797, Note_off_c, 0, 54, 54
1, 295802, Note_off_c, 0, 59, 53
1, 295916, Note_on_c, 0, 59, 68
1, 295926, Note_on_c, 0, 54, 48
1, 295928, Note_on_c, 0, 51, 42
1, 295948, Note_off_c, 0, 59, 59
1, 295962, Note_off_c, 0, 76, 63
1, 295963, Note_off_c, 0, 51, 54
1, 295969, Note_off_c, 0, 54, 58
1, 296071, Note_on_c, 0, 66, 76
1, 296079, Note_on_c, 0, 54, 55
1, 296083, Note_on_c, 0, 59, 57
1, 296096, Note_on_c, 0, 51, 29
1, 296124, Note_off_c, 0, 66, 50
1, 296128, Note_off_c, 0, 51, 51
1, 296134, Note_off_c, 0, 88, 59
1, 296143, Note_off_c, 0, 54, 57
1, 296159, Note_off_c, 0, 59, 56
1, 296222, Note_on_c, 0, 87, 75
1, 296229, Note_on_c, 0, 75, 72
1, 296231, Note_on_c, 0, 51, 49
1, 296240, Note_on_c, 0, 59, 51
1, 296243, Note_off_c, 0, 87, 70
1, 296253, Note_on_c, 0, 54, 51
1, 296257, Note_off_c, 0, 75, 67
1, 296276, Note_off_c, 0, 59, 59
1, 296277, Note_off_c, 0, 54, 58
1, 296284, Note_off_c, 0, 51, 54
1, 296388, Note_on_c, 0, 54, 58
1, 296398, Note_on_c, 0, 66, 68
1, 296453, Note_on_c, 0, 82, 86
1, 296457, Note_on_c, 0, 70, 79
1, 296473, Note_off_c, 0, 66, 62
1, 296491, Poly_aftertouch_c, 0, 51, 0
1, 296519, Note_off_c, 0, 70, 61
1, 296520, Note_off_c, 0, 82, 61
1, 296592, Note_on_c, 0, 51, 64
1, 296606, Note_on_c, 0, 83, 99
1, 296608, Note_on_c, 0, 59, 15
1, 296611, Note_on_c, 0, 71, 83
1, 296636, Note_off_c, 0, 51, 61
1, 296639, Note_off_c, 0, 54, 57
1, 296647, Note_off_c, 0, 59, 45
1, 296684, Note_off_c, 0, 71, 51
1, 296717, Note_off_c, 0, 83, 61
1, 296766, Control_c, 0, 64, 126
1, 296780, Control_c, 0, 64, 87
1, 296795, Note_on_c, 0, 84, 97
1, 296795, Control_c, 0, 64, 52
1, 296797, Note_on_c, 0, 72, 98
1, 296804, Note_on_c, 0, 40, 88
1, 296805, Note_on_c, 0, 28, 83
1, 296810, Control_c, 0, 64, 0
1, 296829, Note_off_c, 0, 28, 65
1, 296833, Note_off_c, 0, 40, 68
1, 296839, Control_c, 0, 64, 66
1, 296854, Control_c, 0, 64, 79
1, 296869, Control_c, 0, 64, 96
1, 296884, Control_c, 0, 64, 113
1, 296898, Control_c, 0, 64, 119
1, 296912, Control_c, 0, 64, 120
1, 296917, Note_off_c, 0, 72, 62
1, 296921, Note_off_c, 0, 84, 59
1, 296927, Control_c, 0, 64, 120
1, 296942, Control_c, 0, 64, 123
1, 296957, Control_c, 0, 64, 127
1, 297044, Note_on_c, 0, 61, 76
1, 297059, Note_on_c, 0, 52, 45
1, 297080, Note_on_c, 0, 58, 41
1, 297082, Note_off_c, 0, 61, 64
1, 297108, Note_off_c, 0, 58, 51
1, 297136, Note_off_c, 0, 52, 50
1, 297206, Note_on_c, 0, 85, 98
1, 297210, Note_on_c, 0, 73, 86
1, 297219, Note_on_c, 0, 66, 86
1, 297233, Note_on_c, 0, 54, 46
1, 297258, Note_off_c, 0, 73, 63
1, 297265, Note_off_c, 0, 54, 53
1, 297270, Note_off_c, 0, 66, 64
1, 297310, Note_off_c, 0, 85, 61
1, 297351, Note_on_c, 0, 61, 80
1, 297369, Note_on_c, 0, 52, 61
1, 297374, Note_on_c, 0, 58, 65
1, 297406, Note_off_c, 0, 58, 60
1, 297410, Note_off_c, 0, 52, 60
1, 297418, Note_off_c, 0, 61, 58
1, 297501, Note_on_c, 0, 87, 107
1, 297505, Note_on_c, 0, 66, 89
1, 297505, Note_on_c, 0, 75, 94
1, 297526, Note_on_c, 0, 54, 46
1, 297549, Note_on_c, 0, 58, 14
1, 297553, Note_off_c, 0, 75, 65
1, 297556, Note_off_c, 0, 66, 65
1, 297568, Note_off_c, 0, 54, 44
1, 297586, Note_off_c, 0, 58, 48
1, 297588, Note_off_c, 0, 87, 61
1, 297646, Note_on_c, 0, 61, 81
1, 297656, Note_on_c, 0, 52, 65
1, 297674, Note_on_c, 0, 58, 69
1, 297695, Note_off_c, 0, 52, 56
1, 297701, Note_off_c, 0, 58, 64
1, 297707, Note_on_c, 0, 54, 16
1, 297738, Note_off_c, 0, 61, 53
1, 297741, Note_off_c, 0, 54, 40
1, 297797, Note_on_c, 0, 88, 106
1, 297800, Note_on_c, 0, 76, 98
1, 297803, Note_on_c, 0, 66, 85
1, 297831, Note_on_c, 0, 54, 53
1, 297851, Note_on_c, 0, 58, 26
1, 297853, Note_off_c, 0, 76, 67
1, 297855, Note_off_c, 0, 54, 57
1, 297861, Note_off_c, 0, 66, 64
1, 297890, Note_off_c, 0, 88, 64
1, 297891, Note_off_c, 0, 58, 51
1, 297943, Note_on_c, 0, 61, 77
1, 297950, Note_on_c, 0, 52, 72
1, 297954, Note_on_c, 0, 54, 66
1, 297971, Note_on_c, 0, 58, 65
1, 297972, Note_off_c, 0, 61, 66
1, 297973, Note_off_c, 0, 52, 72
1, 297987, Note_off_c, 0, 54, 65
1, 297989, Note_off_c, 0, 58, 67
1, 298100, Control_c, 0, 64, 91
1, 298115, Control_c, 0, 64, 63
1, 298130, Control_c, 0, 64, 0
1, 298137, Note_on_c, 0, 92, 108
1, 298142, Note_on_c, 0, 80, 99
1, 298155, Note_on_c, 0, 39, 101
1, 298159, Control_c, 0, 64, 66
1, 298161, Note_on_c, 0, 27, 94
1, 298174, Control_c, 0, 64, 88
1, 298178, Note_off_c, 0, 39, 69
1, 298182, Note_off_c, 0, 27, 70
1, 298189, Control_c, 0, 64, 127
1, 298200, Note_on_c, 0, 30, 20
1, 298201, Note_off_c, 0, 30, 127
1, 298303, Note_off_c, 0, 92, 62
1, 298330, Note_off_c, 0, 80, 59
1, 298372, Note_on_c, 0, 66, 88
1, 298429, Note_off_c, 0, 66, 61
1, 298515, Note_on_c, 0, 90, 108
1, 298519, Note_on_c, 0, 78, 105
1, 298527, Note_on_c, 0, 66, 85
1, 298527, Note_on_c, 0, 63, 78
1, 298536, Note_on_c, 0, 54, 55
1, 298538, Note_on_c, 0, 59, 60
1, 298591, Note_off_c, 0, 54, 54
1, 298593, Note_off_c, 0, 66, 60
1, 298599, Note_off_c, 0, 63, 60
1, 298605, Note_off_c, 0, 59, 41
1, 298691, Note_on_c, 0, 66, 91
1, 298699, Note_on_c, 0, 63, 77
1, 298708, Note_off_c, 0, 66, 74
1, 298709, Note_on_c, 0, 54, 70
1, 298711, Note_on_c, 0, 59, 62
1, 298720, Note_off_c, 0, 63, 71
1, 298735, Note_off_c, 0, 59, 60
1, 298739, Note_off_c, 0, 54, 64
1, 298799, Poly_aftertouch_c, 0, 57, 0
1, 298923, Control_c, 0, 64, 110
1, 298938, Control_c, 0, 64, 73
1, 298948, Note_on_c, 0, 38, 115
1, 298953, Note_on_c, 0, 26, 91
1, 298953, Control_c, 0, 64, 0
1, 298976, Note_off_c, 0, 26, 71
1, 298980, Note_on_c, 0, 27, 46
1, 298981, Note_off_c, 0, 27, 127
1, 298982, Control_c, 0, 64, 68
1, 298984, Note_off_c, 0, 38, 65
1, 298997, Control_c, 0, 64, 86
1, 299012, Control_c, 0, 64, 117
1, 299026, Control_c, 0, 64, 127
1, 299135, Note_off_c, 0, 90, 62
1, 299151, Note_off_c, 0, 78, 56
1, 299192, Note_on_c, 0, 68, 83
1, 299225, Note_on_c, 0, 66, 37
1, 299263, Note_off_c, 0, 66, 51
1, 299265, Note_off_c, 0, 68, 61
1, 299304, Poly_aftertouch_c, 0, 56, 0
1, 299371, Note_on_c, 0, 56, 68
1, 299376, Note_on_c, 0, 65, 77
1, 299379, Note_on_c, 0, 59, 68
1, 299382, Note_on_c, 0, 68, 85
1, 299397, Note_on_c, 0, 89, 105
1, 299399, Note_on_c, 0, 77, 104
1, 299437, Note_off_c, 0, 65, 65
1, 299452, Note_off_c, 0, 56, 60
1, 299469, Note_off_c, 0, 59, 56
1, 299472, Note_off_c, 0, 68, 63
1, 299475, Note_off_c, 0, 77, 44
1, 299572, Note_off_c, 0, 89, 58
1, 299592, Note_on_c, 0, 68, 96
1, 299597, Note_on_c, 0, 65, 86
1, 299605, Note_on_c, 0, 56, 67
1, 299607, Note_on_c, 0, 59, 73
1, 299629, Note_off_c, 0, 65, 66
1, 299631, Note_off_c, 0, 68, 67
1, 299655, Note_off_c, 0, 59, 63
1, 299660, Note_off_c, 0, 56, 66
1, 299894, Control_c, 0, 64, 89
1, 299909, Control_c, 0, 64, 0
1, 299935, Note_on_c, 0, 95, 106
1, 299940, Note_on_c, 0, 83, 101
1, 299955, Note_on_c, 0, 42, 106
1, 299956, Note_on_c, 0, 30, 94
1, 299967, Control_c, 0, 64, 72
1, 299976, Note_off_c, 0, 95, 70
1, 299982, Note_off_c, 0, 30, 67
1, 299982, Control_c, 0, 64, 127
1, 299989, Note_off_c, 0, 83, 64
1, 299997, Note_off_c, 0, 42, 64
1, 300330, Note_on_c, 0, 54, 57
1, 300338, Note_on_c, 0, 57, 55
1, 300347, Note_on_c, 0, 62, 62
1, 300386, Note_on_c, 0, 69, 53
1, 300408, Note_off_c, 0, 54, 56
1, 300416, Note_off_c, 0, 62, 54
1, 300418, Note_off_c, 0, 69, 60
1, 300420, Note_off_c, 0, 57, 55
1, 300518, Note_on_c, 0, 62, 65
1, 300519, Note_on_c, 0, 54, 52
1, 300521, Note_on_c, 0, 57, 48
1, 300530, Note_on_c, 0, 69, 57
1, 300548, Note_off_c, 0, 62, 63
1, 300558, Note_off_c, 0, 69, 69
1, 300564, Note_off_c, 0, 54, 58
1, 300569, Note_off_c, 0, 57, 58
1, 300623, Note_on_c, 0, 62, 72
1, 300634, Note_on_c, 0, 54, 56
1, 300636, Note_on_c, 0, 57, 54
1, 300645, Note_on_c, 0, 69, 75
1, 300673, Note_off_c, 0, 57, 59
1, 300673, Note_off_c, 0, 62, 62
1, 300676, Note_off_c, 0, 54, 56
1, 300684, Note_off_c, 0, 69, 60
1, 300751, Note_on_c, 0, 57, 66
1, 300755, Note_on_c, 0, 54, 57
1, 300761, Note_on_c, 0, 62, 63
1, 300764, Note_on_c, 0, 69, 78
1, 300792, Note_off_c, 0, 62, 59
1, 300800, Note_off_c, 0, 54, 59
1, 300800, Note_off_c, 0, 57, 59
1, 300817, Note_off_c, 0, 69, 64
1, 300873, Note_on_c, 0, 69, 74
1, 300875, Note_on_c, 0, 57, 64
1, 300882, Note_on_c, 0, 54, 67
1, 300911, Note_off_c, 0, 69, 62
1, 300914, Note_on_c, 0, 62, 67
1, 300948, Note_off_c, 0, 57, 51
1, 300994, Note_on_c, 0, 57, 41
1, 300996, Note_off_c, 0, 62, 60
1, 301012, Note_off_c, 0, 54, 0
1, 301012, Note_on_c, 0, 54, 3
1, 301079, Note_on_c, 0, 93, 99
1, 301085, Note_on_c, 0, 62, 72
1, 301085, Note_on_c, 0, 81, 91
1, 301110, Note_off_c, 0, 81, 61
1, 301110, Note_off_c, 0, 93, 62
1, 301141, Note_off_c, 0, 62, 56
1, 301202, Note_off_c, 0, 54, 0
1, 301220, Note_on_c, 0, 54, 22
1, 301237, Note_on_c, 0, 69, 84
1, 301243, Note_off_c, 0, 57, 0
1, 301243, Note_on_c, 0, 57, 3
1, 301246, Note_on_c, 0, 62, 71
1, 301266, Note_off_c, 0, 69, 67
1, 301289, Note_off_c, 0, 62, 57
1, 301365, Note_off_c, 0, 54, 0
1, 301365, Note_off_c, 0, 57, 0
1, 301380, Note_on_c, 0, 54, 37
1, 301382, Note_on_c, 0, 57, 33
1, 301383, Note_on_c, 0, 80, 99
1, 301383, Note_on_c, 0, 90, 87
1, 301392, Note_on_c, 0, 62, 67
1, 301403, Note_off_c, 0, 80, 65
1, 301407, Note_on_c, 0, 91, 54
1, 301411, Note_off_c, 0, 90, 65
1, 301426, Note_off_c, 0, 91, 43
1, 301439, Note_off_c, 0, 62, 60
1, 301462, Note_off_c, 0, 54, 51
1, 301464, Note_off_c, 0, 57, 54
1, 301535, Note_on_c, 0, 69, 77
1, 301539, Note_on_c, 0, 57, 44
1, 301544, Note_on_c, 0, 54, 40
1, 301546, Note_on_c, 0, 62, 63
1, 301555, Note_off_c, 0, 69, 73
1, 301597, Note_off_c, 0, 54, 55
1, 301604, Note_off_c, 0, 57, 56
1, 301605, Note_off_c, 0, 62, 57
1, 301672, Note_on_c, 0, 90, 105
1, 301675, Note_on_c, 0, 78, 100
1, 301686, Note_on_c, 0, 62, 77
1, 301687, Note_off_c, 0, 90, 74
1, 301687, Note_on_c, 0, 54, 60
1, 301698, Note_on_c, 0, 57, 47
1, 301698, Note_off_c, 0, 78, 62
1, 301732, Note_off_c, 0, 54, 54
1, 301752, Note_off_c, 0, 57, 45
1, 301752, Note_off_c, 0, 62, 56
1, 301819, Note_on_c, 0, 54, 57
1, 301824, Note_on_c, 0, 69, 71
1, 301838, Note_on_c, 0, 62, 55
1, 301847, Note_off_c, 0, 69, 72
1, 301865, Poly_aftertouch_c, 0, 57, 127
1, 301913, Note_off_c, 0, 54, 0
1, 301917, Note_off_c, 0, 62, 52
1, 301941, Note_on_c, 0, 54, 36
1, 301945, Note_on_c, 0, 66, 82
1, 302006, Note_on_c, 0, 88, 109
1, 302008, Note_on_c, 0, 76, 100
1, 302039, Note_off_c, 0, 54, 58
1, 302061, Poly_aftertouch_c, 0, 57, 0
1, 302068, Note_off_c, 0, 66, 58
1, 302160, Note_on_c, 0, 66, 73
1, 302166, Note_on_c, 0, 57, 61
1, 302167, Note_on_c, 0, 54, 57
1, 302175, Note_on_c, 0, 62, 57
1, 302208, Note_off_c, 0, 54, 59
1, 302209, Note_off_c, 0, 66, 51
1, 302215, Note_off_c, 0, 57, 51
1, 302221, Note_off_c, 0, 62, 54
1, 302261, Note_off_c, 0, 88, 58
1, 302294, Note_off_c, 0, 76, 61
1, 302301, Note_on_c, 0, 66, 86
1, 302329, Note_on_c, 0, 57, 57
1, 302331, Note_on_c, 0, 62, 54
1, 302341, Note_on_c, 0, 54, 27
1, 302358, Note_off_c, 0, 66, 63
1, 302369, Note_off_c, 0, 54, 47
1, 302372, Note_off_c, 0, 57, 55
1, 302377, Note_off_c, 0, 62, 45
1, 302435, Note_on_c, 0, 66, 71
1, 302439, Note_on_c, 0, 54, 74
1, 302458, Note_off_c, 0, 66, 68
1, 302483, Note_off_c, 0, 54, 63
1, 302533, Note_on_c, 0, 74, 89
1, 302533, Note_on_c, 0, 86, 95
1, 302537, Poly_aftertouch_c, 0, 57, 0
1, 302579, Note_off_c, 0, 86, 66
1, 302580, Note_off_c, 0, 74, 67
1, 302650, Note_on_c, 0, 74, 104
1, 302650, Note_on_c, 0, 86, 106
1, 302651, Control_c, 0, 64, 91
1, 302655, Note_on_c, 0, 32, 83
1, 302656, Note_on_c, 0, 44, 80
1, 302666, Control_c, 0, 64, 48
1, 302681, Control_c, 0, 64, 0
1, 302701, Note_off_c, 0, 32, 61
1, 302710, Control_c, 0, 64, 66
1, 302718, Note_off_c, 0, 44, 63
1, 302725, Control_c, 0, 64, 81
1, 302740, Control_c, 0, 64, 103
1, 302755, Control_c, 0, 64, 127
1, 302954, Note_on_c, 0, 65, 75
1, 302965, Note_on_c, 0, 61, 55
1, 302967, Note_on_c, 0, 56, 46
1, 302985, Note_on_c, 0, 53, 36
1, 302989, Note_off_c, 0, 65, 58
1, 302994, Note_off_c, 0, 61, 65
1, 303006, Note_off_c, 0, 56, 60
1, 303018, Note_off_c, 0, 53, 47
1, 303082, Note_on_c, 0, 61, 63
1, 303093, Note_on_c, 0, 65, 67
1, 303109, Note_on_c, 0, 56, 45
1, 303109, Note_off_c, 0, 65, 66
1, 303116, Note_on_c, 0, 53, 43
1, 303117, Note_off_c, 0, 61, 62
1, 303135, Note_off_c, 0, 56, 58
1, 303145, Note_off_c, 0, 53, 51
1, 303187, Note_on_c, 0, 65, 72
1, 303195, Note_on_c, 0, 61, 72
1, 303213, Note_off_c, 0, 86, 61
1, 303216, Note_on_c, 0, 56, 61
1, 303219, Note_off_c, 0, 74, 60
1, 303231, Note_off_c, 0, 65, 60
1, 303233, Note_off_c, 0, 61, 60
1, 303237, Note_on_c, 0, 53, 35
1, 303238, Note_off_c, 0, 56, 65
1, 303262, Note_off_c, 0, 53, 58
1, 303308, Note_on_c, 0, 61, 76
1, 303309, Note_on_c, 0, 65, 76
1, 303310, Note_on_c, 0, 56, 67
1, 303335, Note_on_c, 0, 53, 55
1, 303338, Note_off_c, 0, 65, 61
1, 303338, Note_off_c, 0, 61, 62
1, 303344, Note_off_c, 0, 56, 62
1, 303359, Note_off_c, 0, 53, 60
1, 303412, Note_on_c, 0, 65, 67
1, 303422, Note_on_c, 0, 61, 57
1, 303425, Note_on_c, 0, 56, 52
1, 303436, Note_off_c, 0, 65, 59
1, 303437, Note_on_c, 0, 53, 47
1, 303449, Note_off_c, 0, 61, 61
1, 303459, Note_off_c, 0, 56, 63
1, 303467, Note_off_c, 0, 53, 55
1, 303508, Note_on_c, 0, 85, 96
1, 303517, Note_on_c, 0, 73, 86
1, 303528, Note_on_c, 0, 65, 68
1, 303544, Note_on_c, 0, 61, 35
1, 303553, Note_on_c, 0, 53, 46
1, 303564, Note_on_c, 0, 56, 40
1, 303568, Note_off_c, 0, 65, 53
1, 303575, Note_off_c, 0, 61, 52
1, 303578, Note_off_c, 0, 53, 58
1, 303588, Note_off_c, 0, 56, 56
1, 303633, Note_on_c, 0, 65, 69
1, 303661, Note_on_c, 0, 61, 53
1, 303664, Note_on_c, 0, 53, 36
1, 303666, Note_off_c, 0, 65, 62
1, 303666, Note_on_c, 0, 56, 57
1, 303694, Note_off_c, 0, 61, 47
1, 303697, Note_off_c, 0, 53, 49
1, 303702, Note_off_c, 0, 56, 59
1, 303742, Control_c, 0, 64, 122
1, 303756, Control_c, 0, 64, 87
1, 303768, Note_on_c, 0, 64, 81
1, 303768, Note_on_c, 0, 61, 65
1, 303770, Note_on_c, 0, 56, 70
1, 303771, Control_c, 0, 64, 52
1, 303780, Note_on_c, 0, 52, 65
1, 303786, Control_c, 0, 64, 0
1, 303804, Note_off_c, 0, 85, 64
1, 303821, Note_off_c, 0, 61, 60
1, 303823, Control_c, 0, 64, 59
1, 303824, Note_off_c, 0, 52, 62
1, 303824, Note_off_c, 0, 64, 60
1, 303835, Note_off_c, 0, 56, 62
1, 303838, Control_c, 0, 64, 74
1, 303845, Note_off_c, 0, 73, 62
1, 303853, Control_c, 0, 64, 89
1, 303868, Control_c, 0, 64, 111
1, 303883, Control_c, 0, 64, 127
1, 303898, Note_on_c, 0, 64, 71
1, 303899, Note_on_c, 0, 56, 56
1, 303906, Note_on_c, 0, 61, 62
1, 303911, Note_on_c, 0, 52, 58
1, 303942, Note_off_c, 0, 64, 52
1, 303944, Note_off_c, 0, 61, 58
1, 303945, Note_off_c, 0, 52, 62
1, 303962, Note_off_c, 0, 56, 60
1, 304009, Note_on_c, 0, 80, 100
1, 304015, Note_on_c, 0, 68, 86
1, 304029, Note_on_c, 0, 61, 61
1, 304031, Note_on_c, 0, 56, 44
1, 304031, Note_on_c, 0, 64, 67
1, 304048, Note_on_c, 0, 52, 51
1, 304048, Note_off_c, 0, 64, 68
1, 304068, Note_off_c, 0, 61, 62
1, 304069, Note_off_c, 0, 68, 62
1, 304074, Note_off_c, 0, 52, 61
1, 304079, Note_off_c, 0, 56, 61
1, 304090, Note_off_c, 0, 80, 61
1, 304154, Note_on_c, 0, 64, 51
1, 304156, Note_on_c, 0, 61, 63
1, 304159, Note_on_c, 0, 52, 55
1, 304167, Note_on_c, 0, 56, 59
1, 304191, Note_off_c, 0, 61, 58
1, 304195, Note_off_c, 0, 64, 53
1, 304206, Note_off_c, 0, 52, 47
1, 304206, Note_off_c, 0, 56, 57
1, 304286, Note_on_c, 0, 80, 102
1, 304290, Note_on_c, 0, 68, 87
1, 304296, Note_on_c, 0, 64, 70
1, 304304, Note_on_c, 0, 61, 61
1, 304308, Note_on_c, 0, 56, 64
1, 304318, Note_on_c, 0, 52, 55
1, 304337, Note_off_c, 0, 64, 54
1, 304339, Note_off_c, 0, 61, 60
1, 304355, Note_off_c, 0, 52, 60
1, 304358, Note_off_c, 0, 56, 54
1, 304380, Note_off_c, 0, 68, 59
1, 304428, Note_off_c, 0, 80, 60
1, 304460, Note_on_c, 0, 56, 41
1, 304460, Note_on_c, 0, 64, 56
1, 304466, Note_on_c, 0, 61, 51
1, 304493, Note_on_c, 0, 52, 21
1, 304495, Note_off_c, 0, 64, 61
1, 304501, Note_off_c, 0, 61, 63
1, 304514, Note_off_c, 0, 56, 55
1, 304539, Note_off_c, 0, 52, 38
1, 304616, Note_on_c, 0, 64, 56
1, 304618, Note_on_c, 0, 56, 55
1, 304632, Note_on_c, 0, 61, 41
1, 304649, Note_off_c, 0, 64, 54
1, 304661, Note_off_c, 0, 61, 56
1, 304668, Note_off_c, 0, 56, 55
1, 304694, Poly_aftertouch_c, 0, 52, 127
1, 304736, Poly_aftertouch_c, 0, 52, 0
1, 304754, Note_on_c, 0, 64, 57
1, 304754, Note_on_c, 0, 52, 34
1, 304758, Note_on_c, 0, 61, 44
1, 304772, Note_off_c, 0, 64, 64
1, 304782, Note_off_c, 0, 61, 54
1, 304787, Note_on_c, 0, 56, 59
1, 304789, Note_on_c, 0, 81, 97
1, 304793, Note_on_c, 0, 69, 91
1, 304815, Note_off_c, 0, 56, 66
1, 304828, Note_off_c, 0, 52, 65
1, 304837, Note_off_c, 0, 69, 66
1, 304894, Note_off_c, 0, 81, 60
1, 304921, Note_on_c, 0, 69, 99
1, 305071, Note_on_c, 0, 32, 71
1, 305096, Note_on_c, 0, 44, 72
1, 305121, Control_c, 0, 64, 95
1, 305136, Control_c, 0, 64, 69
1, 305150, Control_c, 0, 64, 0
1, 305155, Note_on_c, 0, 81, 103
1, 305194, Control_c, 0, 64, 65
1, 305208, Note_off_c, 0, 32, 64
1, 305209, Control_c, 0, 64, 77
1, 305224, Control_c, 0, 64, 95
1, 305238, Control_c, 0, 64, 117
1, 305244, Note_off_c, 0, 44, 62
1, 305253, Control_c, 0, 64, 122
1, 305284, Control_c, 0, 64, 122
1, 305299, Control_c, 0, 64, 125
1, 305321, Control_c, 0, 64, 127
1, 305705, Note_on_c, 0, 63, 43
1, 305714, Note_on_c, 0, 51, 51
1, 305744, Note_on_c, 0, 54, 31
1, 305748, Note_on_c, 0, 61, 16
1, 305762, Note_off_c, 0, 51, 56
1, 305777, Note_off_c, 0, 63, 59
1, 305787, Note_off_c, 0, 54, 46
1, 305791, Note_off_c, 0, 61, 39
1, 305893, Note_on_c, 0, 51, 33
1, 305894, Note_on_c, 0, 63, 42
1, 305901, Note_on_c, 0, 54, 46
1, 305929, Note_off_c, 0, 51, 49
1, 305944, Note_off_c, 0, 54, 51
1, 305949, Note_off_c, 0, 63, 47
1, 305972, Poly_aftertouch_c, 0, 61, 0
1, 306033, Note_on_c, 0, 63, 38
1, 306035, Note_on_c, 0, 51, 46
1, 306036, Note_on_c, 0, 61, 37
1, 306045, Note_on_c, 0, 54, 41
1, 306083, Note_off_c, 0, 51, 48
1, 306090, Note_off_c, 0, 61, 44
1, 306099, Note_off_c, 0, 63, 55
1, 306144, Note_off_c, 0, 54, 0
1, 306163, Note_on_c, 0, 54, 30
1, 306183, Note_on_c, 0, 61, 29
1, 306183, Note_on_c, 0, 63, 48
1, 306189, Note_on_c, 0, 51, 45
1, 306203, Note_on_c, 0, 57, 40
1, 306219, Note_off_c, 0, 61, 49
1, 306224, Note_off_c, 0, 51, 49
1, 306231, Note_off_c, 0, 63, 51
1, 306247, Note_off_c, 0, 57, 57
1, 306259, Note_off_c, 0, 54, 49
1, 306292, Control_c, 0, 67, 10
1, 306307, Control_c, 0, 67, 20
1, 306308, Note_on_c, 0, 54, 26
1, 306322, Control_c, 0, 67, 36
1, 306328, Note_on_c, 0, 63, 54
1, 306329, Note_on_c, 0, 57, 47
1, 306334, Note_on_c, 0, 51, 46
1, 306336, Control_c, 0, 67, 53
1, 306351, Control_c, 0, 67, 67
1, 306366, Control_c, 0, 67, 79
1, 306371, Note_off_c, 0, 57, 57
1, 306375, Note_off_c, 0, 51, 47
1, 306376, Note_off_c, 0, 63, 45
1, 306381, Control_c, 0, 67, 87
1, 306396, Control_c, 0, 67, 98
1, 306397, Poly_aftertouch_c, 0, 61, 0
1, 306410, Control_c, 0, 67, 110
1, 306425, Control_c, 0, 67, 124
1, 306440, Control_c, 0, 67, 127
1, 306459, Note_off_c, 0, 54, 0
1, 306473, Note_on_c, 0, 57, 48
1, 306495, Poly_aftertouch_c, 0, 54, 127
1, 306522, Poly_aftertouch_c, 0, 61, 127
1, 306527, Note_off_c, 0, 57, 53
1, 306537, Poly_aftertouch_c, 0, 63, 127
1, 306540, Poly_aftertouch_c, 0, 51, 127
1, 306545, Poly_aftertouch_c, 0, 61, 0
1, 306546, Poly_aftertouch_c, 0, 54, 0
1, 306570, Poly_aftertouch_c, 0, 63, 0
1, 306579, Poly_aftertouch_c, 0, 51, 0
1, 306652, Note_on_c, 0, 57, 27
1, 306671, Note_on_c, 0, 63, 23
1, 306679, Note_off_c, 0, 57, 51
1, 306715, Note_off_c, 0, 63, 49
1, 306832, Control_c, 0, 64, 107
1, 306845, Note_on_c, 0, 54, 17
1, 306847, Control_c, 0, 64, 86
1, 306849, Note_on_c, 0, 60, 53
1, 306850, Note_on_c, 0, 63, 46
1, 306862, Control_c, 0, 64, 67
1, 306877, Note_on_c, 0, 51, 28
1, 306877, Control_c, 0, 64, 0
1, 306907, Control_c, 0, 64, 59
1, 306922, Control_c, 0, 64, 70
1, 306937, Control_c, 0, 64, 77
1, 306941, Note_off_c, 0, 60, 54
1, 306944, Note_off_c, 0, 51, 41
1, 306952, Control_c, 0, 64, 85
1, 306959, Note_off_c, 0, 63, 41
1, 306967, Control_c, 0, 64, 90
1, 306981, Control_c, 0, 64, 92
1, 306996, Control_c, 0, 64, 93
1, 307011, Control_c, 0, 64, 94
1, 307026, Control_c, 0, 64, 96
1, 307041, Control_c, 0, 64, 98
1, 307045, Note_on_c, 0, 63, 39
1, 307045, Note_off_c, 0, 54, 0
1, 307056, Control_c, 0, 64, 99
1, 307062, Note_on_c, 0, 60, 42
1, 307065, Note_on_c, 0, 54, 8
1, 307071, Control_c, 0, 64, 101
1, 307080, Note_on_c, 0, 51, 25
1, 307086, Control_c, 0, 64, 102
1, 307100, Control_c, 0, 64, 103
1, 307121, Note_off_c, 0, 60, 55
1, 307130, Note_off_c, 0, 51, 46
1, 307130, Control_c, 0, 64, 103
1, 307150, Note_off_c, 0, 63, 42
1, 307159, Control_c, 0, 64, 104
1, 307164, Note_off_c, 0, 54, 36
1, 307189, Control_c, 0, 64, 104
1, 307219, Control_c, 0, 64, 105
1, 307276, Note_on_c, 0, 63, 39
1, 307285, Note_on_c, 0, 60, 41
1, 307293, Control_c, 0, 64, 105
1, 307294, Note_on_c, 0, 54, 24
1, 307307, Note_on_c, 0, 51, 13
1, 307346, Note_off_c, 0, 60, 55
1, 307364, Note_off_c, 0, 51, 44
1, 307384, Note_off_c, 0, 54, 36
1, 307386, Note_off_c, 0, 63, 42
1, 307581, Note_on_c, 0, 63, 33
1, 307598, Note_on_c, 0, 60, 36
1, 307620, Note_on_c, 0, 51, 28
1, 307640, Poly_aftertouch_c, 0, 54, 127
1, 307789, Note_off_c, 0, 69, 60
1, 308159, Control_c, 0, 64, 105
1, 308218, Control_c, 0, 64, 104
1, 308233, Control_c, 0, 64, 104
1, 308248, Control_c, 0, 64, 103
1, 308263, Control_c, 0, 64, 101
1, 308263, Note_on_c, 0, 80, 64
1, 308278, Control_c, 0, 64, 97
1, 308281, Note_on_c, 0, 68, 39
1, 308293, Control_c, 0, 64, 91
1, 308305, Note_off_c, 0, 81, 57
1, 308315, Control_c, 0, 64, 80
1, 308329, Control_c, 0, 64, 71
1, 308344, Control_c, 0, 64, 58
1, 308359, Control_c, 0, 64, 0
1, 308433, Control_c, 0, 64, 26
1, 308448, Control_c, 0, 64, 58
1, 308463, Control_c, 0, 64, 64
1, 308478, Control_c, 0, 64, 67
1, 308493, Control_c, 0, 64, 70
1, 308508, Control_c, 0, 64, 74
1, 308523, Control_c, 0, 64, 80
1, 308538, Control_c, 0, 64, 84
1, 308545, Note_off_c, 0, 51, 15
1, 308552, Control_c, 0, 64, 86
1, 308567, Control_c, 0, 64, 87
1, 308582, Control_c, 0, 64, 88
1, 308597, Control_c, 0, 64, 89
1, 308612, Control_c, 0, 64, 90
1, 308627, Control_c, 0, 64, 91
1, 308627, Note_off_c, 0, 68, 43
1, 308642, Control_c, 0, 64, 92
1, 308656, Note_off_c, 0, 60, 36
1, 308656, Control_c, 0, 64, 92
1, 308664, Poly_aftertouch_c, 0, 54, 0
1, 308671, Control_c, 0, 64, 93
1, 308708, Note_off_c, 0, 80, 52
1, 308726, Note_off_c, 0, 63, 36
1, 308893, Control_c, 0, 64, 92
1, 308922, Control_c, 0, 64, 92
1, 308952, Control_c, 0, 64, 91
1, 308967, Control_c, 0, 64, 91
1, 308982, Control_c, 0, 64, 90
1, 308996, Control_c, 0, 64, 89
1, 309011, Control_c, 0, 64, 88
1, 309026, Control_c, 0, 64, 87
1, 309041, Control_c, 0, 64, 85
1, 309064, Control_c, 0, 64, 83
1, 309078, Control_c, 0, 64, 82
1, 309093, Control_c, 0, 64, 80
1, 309108, Control_c, 0, 64, 79
1, 309123, Control_c, 0, 64, 77
1, 309137, Control_c, 0, 64, 76
1, 309152, Control_c, 0, 64, 75
1, 309167, Control_c, 0, 64, 74
1, 309182, Control_c, 0, 64, 74
1, 309197, Control_c, 0, 64, 73
1, 309211, Control_c, 0, 64, 72
1, 309226, Control_c, 0, 64, 71
1, 309241, Control_c, 0, 64, 70
1, 309256, Control_c, 0, 64, 68
1, 309271, Control_c, 0, 64, 66
1, 309287, Control_c, 0, 64, 65
1, 309301, Control_c, 0, 64, 65
1, 309316, Control_c, 0, 64, 64
1, 309331, Control_c, 0, 64, 64
1, 309346, Control_c, 0, 64, 63
1, 309375, Control_c, 0, 64, 63
1, 309405, Control_c, 0, 64, 62
1, 309464, Control_c, 0, 64, 62
1, 309568, Control_c, 0, 64, 62
1, 309657, Control_c, 0, 64, 63
1, 309775, Control_c, 0, 64, 63
1, 309857, Control_c, 0, 64, 64
1, 309990, Control_c, 0, 64, 64
1, 310257, Control_c, 0, 64, 65
1, 310496, Control_c, 0, 64, 64
1, 310506, Note_on_c, 0, 32, 44
1, 310511, Control_c, 0, 64, 64
1, 310525, Control_c, 0, 64, 63
1, 310540, Control_c, 0, 64, 62
1, 310557, Note_off_c, 0, 32, 59
1, 310562, Control_c, 0, 64, 61
1, 310576, Control_c, 0, 64, 60
1, 310591, Control_c, 0, 64, 58
1, 310606, Control_c, 0, 64, 50
1, 310621, Control_c, 0, 64, 37
1, 310636, Control_c, 0, 64, 22
1, 310645, Note_on_c, 0, 37, 45
1, 310651, Control_c, 0, 64, 18
1, 310681, Control_c, 0, 64, 11
1, 310684, Note_off_c, 0, 37, 60
1, 310695, Control_c, 0, 64, 0
1, 310753, Note_on_c, 0, 36, 46
1, 310786, Note_off_c, 0, 36, 62
1, 310799, Control_c, 0, 64, 11
1, 310814, Control_c, 0, 64, 25
1, 310829, Control_c, 0, 64, 32
1, 310844, Control_c, 0, 64, 37
1, 310858, Control_c, 0, 64, 40
1, 310874, Control_c, 0, 64, 41
1, 310879, Note_on_c, 0, 34, 39
1, 310889, Control_c, 0, 64, 42
1, 310910, Note_off_c, 0, 34, 52
1, 310919, Control_c, 0, 64, 43
1, 310934, Control_c, 0, 64, 44
1, 310948, Control_c, 0, 64, 46
1, 310963, Control_c, 0, 64, 47
1, 310978, Control_c, 0, 64, 48
1, 311005, Note_on_c, 0, 36, 42
1, 311022, Control_c, 0, 64, 48
1, 311040, Note_off_c, 0, 36, 55
1, 311052, Control_c, 0, 64, 49
1, 311067, Control_c, 0, 64, 49
1, 311096, Control_c, 0, 64, 50
1, 311111, Control_c, 0, 64, 50
1, 311123, Note_on_c, 0, 34, 34
1, 311126, Control_c, 0, 64, 51
1, 311141, Control_c, 0, 64, 51
1, 311151, Note_off_c, 0, 34, 47
1, 311155, Control_c, 0, 64, 52
1, 311170, Control_c, 0, 64, 52
1, 311185, Control_c, 0, 64, 53
1, 311229, Control_c, 0, 64, 53
1, 311242, Note_on_c, 0, 32, 44
1, 311274, Note_off_c, 0, 32, 54
1, 311289, Control_c, 0, 64, 54
1, 311325, Control_c, 0, 64, 54
1, 311355, Control_c, 0, 64, 55
1, 311378, Note_on_c, 0, 37, 34
1, 311408, Note_off_c, 0, 37, 55
1, 311495, Note_on_c, 0, 36, 33
1, 311518, Control_c, 0, 64, 55
1, 311528, Note_off_c, 0, 36, 56
1, 311593, Control_c, 0, 64, 56
1, 311603, Note_on_c, 0, 34, 44
1, 311631, Note_off_c, 0, 34, 57
1, 311739, Note_on_c, 0, 36, 41
1, 311771, Note_off_c, 0, 36, 55
1, 311859, Note_on_c, 0, 34, 35
1, 311887, Note_off_c, 0, 34, 47
1, 311968, Note_on_c, 0, 32, 46
1, 312001, Note_off_c, 0, 32, 58
1, 312088, Note_on_c, 0, 37, 49
1, 312123, Note_off_c, 0, 37, 63
1, 312201, Note_on_c, 0, 36, 41
1, 312232, Note_off_c, 0, 36, 53
1, 312251, Control_c, 0, 64, 56
1, 312296, Control_c, 0, 64, 57
1, 312317, Note_on_c, 0, 34, 34
1, 312345, Note_off_c, 0, 34, 49
1, 312436, Note_on_c, 0, 36, 36
1, 312471, Note_off_c, 0, 36, 50
1, 312553, Note_on_c, 0, 34, 35
1, 312581, Note_off_c, 0, 34, 46
1, 312669, Note_on_c, 0, 32, 45
1, 312701, Note_off_c, 0, 32, 56
1, 312780, Note_on_c, 0, 37, 48
1, 312824, Note_off_c, 0, 37, 64
1, 312900, Note_on_c, 0, 36, 39
1, 312934, Note_off_c, 0, 36, 49
1, 313012, Note_on_c, 0, 34, 40
1, 313041, Note_off_c, 0, 34, 52
1, 313122, Note_on_c, 0, 36, 46
1, 313152, Note_off_c, 0, 36, 54
1, 313229, Note_on_c, 0, 34, 42
1, 313261, Note_off_c, 0, 34, 58
1, 313331, Note_on_c, 0, 32, 50
1, 313356, Note_on_c, 0, 53, 62
1, 313370, Note_on_c, 0, 49, 56
1, 313372, Note_on_c, 0, 44, 44
1, 313373, Note_off_c, 0, 32, 60
1, 313393, Note_off_c, 0, 53, 64
1, 313401, Note_off_c, 0, 44, 56
1, 313406, Note_off_c, 0, 49, 60
1, 313442, Note_on_c, 0, 53, 72
1, 313446, Control_c, 0, 64, 57
1, 313460, Note_on_c, 0, 44, 52
1, 313465, Note_on_c, 0, 49, 53
1, 313468, Note_on_c, 0, 37, 45
1, 313510, Note_off_c, 0, 37, 61
1, 313593, Note_on_c, 0, 36, 42
1, 313616, Control_c, 0, 64, 57
1, 313636, Note_off_c, 0, 36, 60
1, 313687, Note_on_c, 0, 34, 58
1, 313727, Note_off_c, 0, 34, 64
1, 313793, Control_c, 0, 64, 56
1, 313806, Note_on_c, 0, 36, 51
1, 313808, Control_c, 0, 64, 56
1, 313823, Control_c, 0, 64, 55
1, 313838, Control_c, 0, 64, 55
1, 313845, Note_off_c, 0, 36, 60
1, 313867, Control_c, 0, 64, 56
1, 313882, Control_c, 0, 64, 60
1, 313897, Control_c, 0, 64, 64
1, 313912, Control_c, 0, 64, 67
1, 313927, Control_c, 0, 64, 71
1, 313930, Note_on_c, 0, 34, 52
1, 313942, Control_c, 0, 64, 75
1, 313957, Control_c, 0, 64, 80
1, 313968, Note_off_c, 0, 34, 63
1, 313971, Control_c, 0, 64, 83
1, 313986, Control_c, 0, 64, 84
1, 314001, Control_c, 0, 64, 84
1, 314016, Control_c, 0, 64, 85
1, 314031, Note_off_c, 0, 53, 58
1, 314031, Control_c, 0, 64, 85
1, 314046, Control_c, 0, 64, 86
1, 314052, Note_on_c, 0, 32, 51
1, 314061, Note_off_c, 0, 49, 34
1, 314083, Note_off_c, 0, 44, 29
1, 314097, Note_off_c, 0, 32, 48
1, 314150, Control_c, 0, 64, 85
1, 314165, Control_c, 0, 64, 82
1, 314169, Note_on_c, 0, 37, 59
1, 314172, Note_on_c, 0, 53, 64
1, 314180, Control_c, 0, 64, 77
1, 314184, Note_on_c, 0, 49, 48
1, 314185, Note_on_c, 0, 44, 45
1, 314195, Control_c, 0, 64, 71
1, 314210, Control_c, 0, 64, 64
1, 314217, Note_off_c, 0, 37, 60
1, 314225, Control_c, 0, 64, 46
1, 314240, Control_c, 0, 64, 0
1, 314296, Note_on_c, 0, 36, 58
1, 314336, Note_off_c, 0, 36, 63
1, 314350, Control_c, 0, 64, 11
1, 314365, Control_c, 0, 64, 25
1, 314380, Control_c, 0, 64, 29
1, 314395, Control_c, 0, 64, 34
1, 314410, Control_c, 0, 64, 37
1, 314412, Note_on_c, 0, 34, 47
1, 314425, Control_c, 0, 64, 38
1, 314439, Control_c, 0, 64, 39
1, 314440, Note_off_c, 0, 34, 59
1, 314469, Control_c, 0, 64, 40
1, 314499, Control_c, 0, 64, 40
1, 314514, Control_c, 0, 64, 41
1, 314526, Note_on_c, 0, 36, 44
1, 314565, Note_off_c, 0, 36, 55
1, 314618, Control_c, 0, 64, 42
1, 314632, Control_c, 0, 64, 49
1, 314638, Note_on_c, 0, 34, 42
1, 314647, Control_c, 0, 64, 59
1, 314662, Control_c, 0, 64, 64
1, 314669, Note_off_c, 0, 34, 58
1, 314676, Control_c, 0, 64, 67
1, 314691, Control_c, 0, 64, 70
1, 314706, Control_c, 0, 64, 73
1, 314721, Control_c, 0, 64, 78
1, 314736, Control_c, 0, 64, 81
1, 314750, Control_c, 0, 64, 82
1, 314754, Note_on_c, 0, 32, 54
1, 314765, Control_c, 0, 64, 83
1, 314775, Note_off_c, 0, 53, 59
1, 314780, Control_c, 0, 64, 83
1, 314785, Note_off_c, 0, 49, 39
1, 314791, Note_off_c, 0, 32, 53
1, 314806, Note_off_c, 0, 44, 37
1, 314870, Control_c, 0, 64, 82
1, 314881, Note_on_c, 0, 37, 55
1, 314885, Control_c, 0, 64, 79
1, 314895, Note_on_c, 0, 53, 56
1, 314900, Control_c, 0, 64, 74
1, 314904, Note_on_c, 0, 44, 35
1, 314914, Control_c, 0, 64, 67
1, 314925, Note_on_c, 0, 49, 24
1, 314929, Control_c, 0, 64, 60
1, 314930, Note_off_c, 0, 37, 60
1, 314944, Control_c, 0, 64, 48
1, 314959, Control_c, 0, 64, 42
1, 314973, Control_c, 0, 64, 46
1, 314988, Control_c, 0, 64, 48
1, 314996, Note_on_c, 0, 36, 52
1, 315003, Control_c, 0, 64, 50
1, 315017, Note_off_c, 0, 49, 0
1, 315018, Control_c, 0, 64, 51
1, 315033, Control_c, 0, 64, 52
1, 315034, Note_off_c, 0, 36, 63
1, 315055, Control_c, 0, 64, 52
1, 315061, Poly_aftertouch_c, 0, 49, 127
1, 315070, Control_c, 0, 64, 53
1, 315085, Control_c, 0, 64, 54
1, 315100, Control_c, 0, 64, 54
1, 315115, Control_c, 0, 64, 55
1, 315119, Note_on_c, 0, 34, 47
1, 315150, Note_off_c, 0, 34, 60
1, 315159, Control_c, 0, 64, 55
1, 315218, Control_c, 0, 64, 56
1, 315231, Note_on_c, 0, 36, 51
1, 315268, Note_off_c, 0, 36, 61
1, 315292, Control_c, 0, 64, 56
1, 315337, Control_c, 0, 64, 57
1, 315352, Note_on_c, 0, 34, 39
1, 315381, Note_off_c, 0, 34, 55
1, 315455, Control_c, 0, 64, 57
1, 315466, Note_on_c, 0, 32, 54
1, 315501, Note_off_c, 0, 32, 63
1, 315544, Control_c, 0, 64, 58
1, 315578, Note_on_c, 0, 37, 58
1, 315588, Control_c, 0, 64, 58
1, 315615, Note_off_c, 0, 37, 62
1, 315647, Control_c, 0, 64, 59
1, 315662, Control_c, 0, 64, 60
1, 315677, Control_c, 0, 64, 60
1, 315688, Note_on_c, 0, 36, 53
1, 315707, Control_c, 0, 64, 61
1, 315722, Control_c, 0, 64, 61
1, 315727, Note_off_c, 0, 36, 63
1, 315736, Control_c, 0, 64, 62
1, 315751, Control_c, 0, 64, 62
1, 315763, Poly_aftertouch_c, 0, 49, 0
1, 315781, Control_c, 0, 64, 63
1, 315803, Control_c, 0, 64, 63
1, 315818, Control_c, 0, 64, 64
1, 315819, Note_on_c, 0, 34, 46
1, 315833, Control_c, 0, 64, 64
1, 315848, Control_c, 0, 64, 65
1, 315851, Note_off_c, 0, 34, 57
1, 315863, Control_c, 0, 64, 67
1, 315877, Control_c, 0, 64, 68
1, 315892, Control_c, 0, 64, 70
1, 315907, Control_c, 0, 64, 72
1, 315911, Note_on_c, 0, 36, 45
1, 315911, Note_off_c, 0, 53, 65
1, 315918, Note_on_c, 0, 49, 67
1, 315921, Control_c, 0, 64, 75
1, 315936, Control_c, 0, 64, 78
1, 315951, Control_c, 0, 64, 80
1, 315964, Note_off_c, 0, 36, 56
1, 315966, Control_c, 0, 64, 82
1, 315981, Control_c, 0, 64, 83
1, 315995, Control_c, 0, 64, 83
1, 316010, Control_c, 0, 64, 84
1, 316025, Control_c, 0, 64, 84
1, 316030, Note_on_c, 0, 34, 57
1, 316040, Control_c, 0, 64, 85
1, 316065, Note_off_c, 0, 49, 27
1, 316075, Note_off_c, 0, 34, 61
1, 316085, Control_c, 0, 64, 85
1, 316114, Control_c, 0, 64, 86
1, 316146, Note_on_c, 0, 32, 59
1, 316163, Note_on_c, 0, 53, 65
1, 316170, Note_on_c, 0, 49, 66
1, 316176, Note_off_c, 0, 44, 0
1, 316188, Control_c, 0, 64, 85
1, 316195, Note_off_c, 0, 32, 60
1, 316203, Control_c, 0, 64, 84
1, 316210, Note_off_c, 0, 49, 56
1, 316213, Poly_aftertouch_c, 0, 44, 127
1, 316218, Control_c, 0, 64, 81
1, 316233, Control_c, 0, 64, 75
1, 316243, Poly_aftertouch_c, 0, 44, 0
1, 316248, Control_c, 0, 64, 67
1, 316263, Control_c, 0, 64, 58
1, 316265, Note_on_c, 0, 44, 35
1, 316265, Note_on_c, 0, 56, 72
1, 316271, Note_on_c, 0, 37, 50
1, 316276, Note_on_c, 0, 49, 52
1, 316276, Note_off_c, 0, 53, 0
1, 316276, Note_on_c, 0, 53, 10
1, 316277, Control_c, 0, 64, 28
1, 316292, Control_c, 0, 64, 0
1, 316329, Note_off_c, 0, 37, 54
1, 316366, Control_c, 0, 64, 22
1, 316381, Control_c, 0, 64, 33
1, 316388, Note_on_c, 0, 36, 54
1, 316395, Control_c, 0, 64, 37
1, 316410, Control_c, 0, 64, 40
1, 316425, Note_off_c, 0, 36, 64
1, 316425, Control_c, 0, 64, 41
1, 316440, Control_c, 0, 64, 44
1, 316455, Control_c, 0, 64, 46
1, 316471, Control_c, 0, 64, 47
1, 316485, Control_c, 0, 64, 48
1, 316493, Note_on_c, 0, 34, 56
1, 316500, Control_c, 0, 64, 48
1, 316515, Control_c, 0, 64, 49
1, 316530, Control_c, 0, 64, 49
1, 316532, Note_off_c, 0, 34, 64
1, 316552, Control_c, 0, 64, 50
1, 316567, Control_c, 0, 64, 50
1, 316582, Control_c, 0, 64, 51
1, 316597, Control_c, 0, 64, 51
1, 316612, Control_c, 0, 64, 52
1, 316618, Note_on_c, 0, 36, 60
1, 316656, Control_c, 0, 64, 50
1, 316657, Note_off_c, 0, 36, 61
1, 316671, Control_c, 0, 64, 47
1, 316686, Control_c, 0, 64, 44
1, 316700, Control_c, 0, 64, 43
1, 316715, Control_c, 0, 64, 44
1, 316730, Control_c, 0, 64, 52
1, 316737, Note_on_c, 0, 34, 53
1, 316744, Control_c, 0, 64, 60
1, 316759, Control_c, 0, 64, 64
1, 316774, Note_off_c, 0, 34, 65
1, 316774, Control_c, 0, 64, 66
1, 316789, Control_c, 0, 64, 68
1, 316804, Control_c, 0, 64, 70
1, 316818, Control_c, 0, 64, 72
1, 316833, Control_c, 0, 64, 75
1, 316845, Note_off_c, 0, 56, 56
1, 316848, Note_on_c, 0, 32, 62
1, 316848, Control_c, 0, 64, 76
1, 316863, Control_c, 0, 64, 77
1, 316878, Control_c, 0, 64, 78
1, 316885, Note_off_c, 0, 44, 36
1, 316887, Note_off_c, 0, 32, 62
1, 316938, Note_off_c, 0, 53, 42
1, 316967, Control_c, 0, 64, 77
1, 316976, Note_on_c, 0, 56, 71
1, 316978, Note_on_c, 0, 37, 65
1, 316978, Note_on_c, 0, 51, 68
1, 316982, Control_c, 0, 64, 73
1, 316983, Note_on_c, 0, 44, 57
1, 316997, Control_c, 0, 64, 68
1, 317011, Control_c, 0, 64, 59
1, 317014, Note_off_c, 0, 49, 53
1, 317026, Control_c, 0, 64, 37
1, 317034, Note_off_c, 0, 37, 60
1, 317041, Control_c, 0, 64, 0
1, 317098, Note_on_c, 0, 36, 60
1, 317115, Control_c, 0, 64, 29
1, 317131, Control_c, 0, 64, 40
1, 317136, Note_off_c, 0, 36, 65
1, 317145, Control_c, 0, 64, 44
1, 317160, Control_c, 0, 64, 46
1, 317175, Control_c, 0, 64, 47
1, 317190, Control_c, 0, 64, 49
1, 317205, Control_c, 0, 64, 51
1, 317206, Note_on_c, 0, 34, 62
1, 317219, Control_c, 0, 64, 52
1, 317234, Control_c, 0, 64, 53
1, 317244, Note_off_c, 0, 34, 63
1, 317249, Control_c, 0, 64, 54
1, 317334, Note_on_c, 0, 36, 59
1, 317346, Control_c, 0, 64, 52
1, 317361, Control_c, 0, 64, 49
1, 317370, Note_off_c, 0, 36, 64
1, 317376, Control_c, 0, 64, 48
1, 317405, Control_c, 0, 64, 49
1, 317420, Control_c, 0, 64, 53
1, 317435, Control_c, 0, 64, 59
1, 317450, Control_c, 0, 64, 64
1, 317454, Note_on_c, 0, 34, 51
1, 317465, Control_c, 0, 64, 66
1, 317480, Control_c, 0, 64, 69
1, 317485, Note_off_c, 0, 34, 62
1, 317495, Control_c, 0, 64, 72
1, 317510, Control_c, 0, 64, 75
1, 317524, Control_c, 0, 64, 77
1, 317539, Control_c, 0, 64, 78
1, 317554, Note_on_c, 0, 32, 60
1, 317554, Control_c, 0, 64, 79
1, 317561, Note_off_c, 0, 56, 35
1, 317583, Control_c, 0, 64, 79
1, 317594, Note_off_c, 0, 32, 63
1, 317599, Note_off_c, 0, 44, 31
1, 317657, Control_c, 0, 64, 79
1, 317672, Control_c, 0, 64, 76
1, 317680, Note_off_c, 0, 51, 57
1, 317685, Note_on_c, 0, 37, 59
1, 317687, Control_c, 0, 64, 71
1, 317688, Note_on_c, 0, 56, 60
1, 317696, Note_on_c, 0, 49, 52
1, 317698, Note_on_c, 0, 44, 39
1, 317702, Control_c, 0, 64, 64
1, 317710, Note_on_c, 0, 53, 43
1, 317717, Control_c, 0, 64, 51
1, 317732, Note_off_c, 0, 37, 60
1, 317732, Control_c, 0, 64, 18
1, 317747, Control_c, 0, 64, 0
1, 317806, Note_on_c, 0, 36, 50
1, 317806, Control_c, 0, 64, 20
1, 317821, Control_c, 0, 64, 33
1, 317835, Control_c, 0, 64, 39
1, 317842, Note_off_c, 0, 36, 63
1, 317850, Control_c, 0, 64, 41
1, 317865, Control_c, 0, 64, 42
1, 317880, Control_c, 0, 64, 44
1, 317894, Control_c, 0, 64, 46
1, 317902, Note_on_c, 0, 34, 56
1, 317909, Control_c, 0, 64, 47
1, 317924, Control_c, 0, 64, 48
1, 317937, Note_off_c, 0, 34, 65
1, 317999, Control_c, 0, 64, 49
1, 318014, Control_c, 0, 64, 49
1, 318021, Note_on_c, 0, 36, 53
1, 318062, Note_off_c, 0, 36, 61
1, 318125, Control_c, 0, 64, 50
1, 318142, Note_on_c, 0, 34, 47
1, 318155, Control_c, 0, 64, 50
1, 318178, Note_off_c, 0, 34, 61
1, 318214, Control_c, 0, 64, 51
1, 318244, Control_c, 0, 64, 52
1, 318254, Note_on_c, 0, 32, 50
1, 318291, Note_off_c, 0, 32, 62
1, 318333, Control_c, 0, 64, 52
1, 318355, Note_on_c, 0, 37, 60
1, 318400, Note_off_c, 0, 37, 60
1, 318452, Control_c, 0, 64, 53
1, 318466, Control_c, 0, 64, 57
1, 318479, Note_on_c, 0, 36, 44
1, 318481, Control_c, 0, 64, 62
1, 318496, Control_c, 0, 64, 64
1, 318509, Note_off_c, 0, 36, 60
1, 318510, Control_c, 0, 64, 65
1, 318525, Control_c, 0, 64, 66
1, 318540, Control_c, 0, 64, 67
1, 318544, Note_off_c, 0, 44, 48
1, 318555, Control_c, 0, 64, 68
1, 318559, Note_off_c, 0, 53, 51
1, 318570, Control_c, 0, 64, 69
1, 318578, Note_on_c, 0, 34, 46
1, 318584, Control_c, 0, 64, 70
1, 318585, Note_off_c, 0, 49, 60
1, 318608, Note_off_c, 0, 34, 61
1, 318619, Note_off_c, 0, 56, 64
1, 318663, Note_on_c, 0, 36, 48
1, 318673, Control_c, 0, 64, 69
1, 318688, Control_c, 0, 64, 68
1, 318699, Note_off_c, 0, 36, 62
1, 318703, Control_c, 0, 64, 66
1, 318717, Control_c, 0, 64, 63
1, 318732, Control_c, 0, 64, 57
1, 318747, Control_c, 0, 64, 52
1, 318759, Note_on_c, 0, 34, 58
1, 318762, Control_c, 0, 64, 50
1, 318777, Control_c, 0, 64, 50
1, 318799, Control_c, 0, 64, 49
1, 318814, Control_c, 0, 64, 46
1, 318821, Note_off_c, 0, 34, 62
1, 318827, Note_on_c, 0, 56, 69
1, 318827, Note_on_c, 0, 53, 68
1, 318829, Control_c, 0, 64, 43
1, 318838, Note_on_c, 0, 32, 58
1, 318839, Note_on_c, 0, 49, 54
1, 318844, Control_c, 0, 64, 38
1, 318857, Note_off_c, 0, 56, 65
1, 318859, Control_c, 0, 64, 23
1, 318860, Note_off_c, 0, 53, 66
1, 318863, Note_off_c, 0, 49, 56
1, 318875, Control_c, 0, 64, 0
1, 318878, Note_off_c, 0, 32, 64
1, 318916, Note_on_c, 0, 56, 74
1, 318919, Note_on_c, 0, 53, 61
1, 318944, Note_off_c, 0, 56, 64
1, 318950, Note_off_c, 0, 53, 66
1, 319006, Note_on_c, 0, 53, 79
1, 319006, Note_on_c, 0, 56, 79
1, 319008, Control_c, 0, 64, 41
1, 319018, Poly_aftertouch_c, 0, 49, 127
1, 319022, Control_c, 0, 64, 55
1, 319037, Control_c, 0, 64, 59
1, 319043, Note_on_c, 0, 37, 51
1, 319043, Note_off_c, 0, 53, 64
1, 319046, Note_on_c, 0, 44, 48
1, 319052, Control_c, 0, 64, 62
1, 319059, Note_off_c, 0, 56, 62
1, 319065, Poly_aftertouch_c, 0, 49, 0
1, 319067, Control_c, 0, 64, 63
1, 319081, Note_off_c, 0, 37, 66
1, 319082, Control_c, 0, 64, 64
1, 319086, Note_off_c, 0, 44, 54
1, 319096, Control_c, 0, 64, 65
1, 319111, Control_c, 0, 64, 65
1, 319132, Note_on_c, 0, 36, 61
1, 319188, Note_off_c, 0, 36, 58
1, 319230, Control_c, 0, 64, 65
1, 319230, Note_on_c, 0, 34, 61
1, 319245, Control_c, 0, 64, 63
1, 319260, Control_c, 0, 64, 60
1, 319274, Control_c, 0, 64, 55
1, 319289, Control_c, 0, 64, 50
1, 319295, Note_off_c, 0, 34, 57
1, 319304, Control_c, 0, 64, 49
1, 319319, Control_c, 0, 64, 51
1, 319333, Control_c, 0, 64, 55
1, 319346, Note_on_c, 0, 61, 79
1, 319348, Control_c, 0, 64, 61
1, 319350, Note_on_c, 0, 53, 75
1, 319358, Note_on_c, 0, 36, 66
1, 319363, Control_c, 0, 64, 63
1, 319364, Note_on_c, 0, 56, 59
1, 319376, Control_c, 0, 64, 65
1, 319385, Note_off_c, 0, 53, 65
1, 319391, Control_c, 0, 64, 66
1, 319399, Note_off_c, 0, 56, 63
1, 319402, Note_off_c, 0, 61, 63
1, 319406, Control_c, 0, 64, 66
1, 319409, Note_off_c, 0, 36, 62
1, 319421, Control_c, 0, 64, 67
1, 319450, Control_c, 0, 64, 67
1, 319459, Note_on_c, 0, 34, 67
1, 319480, Control_c, 0, 64, 68
1, 319495, Control_c, 0, 64, 68
1, 319508, Note_off_c, 0, 34, 64
1, 319510, Control_c, 0, 64, 69
1, 319561, Control_c, 0, 67, 124
1, 319570, Note_on_c, 0, 32, 63
1, 319576, Control_c, 0, 64, 68
1, 319576, Control_c, 0, 67, 112
1, 319591, Control_c, 0, 64, 67
1, 319591, Control_c, 0, 67, 100
1, 319606, Control_c, 0, 64, 60
1, 319606, Control_c, 0, 67, 89
1, 319620, Control_c, 0, 64, 0
1, 319620, Control_c, 0, 67, 79
1, 319629, Note_off_c, 0, 32, 58
1, 319635, Control_c, 0, 67, 70
1, 319650, Control_c, 0, 67, 61
1, 319666, Control_c, 0, 67, 54
1, 319681, Control_c, 0, 67, 48
1, 319696, Control_c, 0, 64, 26
1, 319696, Control_c, 0, 67, 43
1, 319698, Note_on_c, 0, 56, 78
1, 319701, Note_on_c, 0, 53, 70
1, 319701, Note_on_c, 0, 49, 69
1, 319703, Note_on_c, 0, 37, 66
1, 319706, Note_on_c, 0, 44, 57
1, 319710, Control_c, 0, 64, 62
1, 319710, Control_c, 0, 67, 41
1, 319725, Control_c, 0, 64, 66
1, 319725, Control_c, 0, 67, 40
1, 319727, Note_off_c, 0, 53, 68
1, 319737, Note_off_c, 0, 49, 60
1, 319740, Control_c, 0, 64, 68
1, 319740, Control_c, 0, 67, 38
1, 319745, Note_off_c, 0, 44, 61
1, 319751, Note_off_c, 0, 37, 65
1, 319755, Control_c, 0, 64, 68
1, 319755, Control_c, 0, 67, 36
1, 319770, Control_c, 0, 67, 33
1, 319779, Note_off_c, 0, 56, 64
1, 319785, Control_c, 0, 64, 69
1, 319785, Control_c, 0, 67, 30
1, 319800, Control_c, 0, 67, 29
1, 319809, Note_on_c, 0, 36, 64
1, 319815, Control_c, 0, 67, 27
1, 319830, Control_c, 0, 67, 26
1, 319844, Control_c, 0, 64, 68
1, 319844, Control_c, 0, 67, 26
1, 319874, Control_c, 0, 64, 68
1, 319874, Control_c, 0, 67, 25
1, 319881, Note_off_c, 0, 36, 42
1, 319889, Control_c, 0, 64, 67
1, 319903, Note_on_c, 0, 34, 64
1, 319903, Control_c, 0, 64, 65
1, 319918, Control_c, 0, 64, 62
1, 319933, Control_c, 0, 64, 51
1, 319933, Control_c, 0, 67, 25
1, 319948, Control_c, 0, 64, 0
1, 319948, Control_c, 0, 67, 24
1, 319967, Note_off_c, 0, 34, 57
1, 320035, Note_on_c, 0, 36, 69
1, 320035, Note_on_c, 0, 63, 85
1, 320043, Note_on_c, 0, 56, 67
1, 320045, Note_on_c, 0, 51, 67
1, 320052, Control_c, 0, 64, 25
1, 320067, Control_c, 0, 64, 62
1, 320077, Note_off_c, 0, 56, 64
1, 320082, Control_c, 0, 64, 65
1, 320082, Note_off_c, 0, 51, 58
1, 320096, Control_c, 0, 64, 67
1, 320097, Note_off_c, 0, 36, 61
1, 320111, Control_c, 0, 64, 68
1, 320121, Note_off_c, 0, 63, 63
1, 320127, Control_c, 0, 64, 69
1, 320142, Control_c, 0, 64, 70
1, 320142, Control_c, 0, 67, 24
1, 320148, Note_on_c, 0, 34, 67
1, 320156, Control_c, 0, 64, 71
1, 320171, Control_c, 0, 64, 72
1, 320171, Control_c, 0, 67, 23
1, 320186, Control_c, 0, 64, 73
1, 320197, Note_off_c, 0, 34, 63
1, 320201, Control_c, 0, 64, 75
1, 320201, Control_c, 0, 67, 23
1, 320216, Control_c, 0, 64, 75
1, 320230, Control_c, 0, 64, 76
1, 320249, Note_on_c, 0, 32, 70
1, 320260, Control_c, 0, 64, 77
1, 320275, Control_c, 0, 64, 77
1, 320297, Control_c, 0, 67, 22
1, 320327, Note_off_c, 0, 32, 58
1, 320342, Control_c, 0, 67, 22
1, 320357, Control_c, 0, 64, 76
1, 320371, Control_c, 0, 64, 71
1, 320386, Control_c, 0, 64, 64
1, 320389, Note_on_c, 0, 65, 84
1, 320396, Note_on_c, 0, 44, 61
1, 320398, Note_on_c, 0, 37, 61
1, 320398, Note_on_c, 0, 53, 71
1, 320401, Control_c, 0, 64, 41
1, 320401, Note_on_c, 0, 56, 71
1, 320416, Control_c, 0, 64, 0
1, 320416, Control_c, 0, 67, 21
1, 320445, Control_c, 0, 67, 21
1, 320453, Note_off_c, 0, 37, 62
1, 320455, Note_off_c, 0, 44, 52
1, 320508, Note_on_c, 0, 36, 62
1, 320561, Note_off_c, 0, 36, 61
1, 320609, Control_c, 0, 67, 21
1, 320616, Note_on_c, 0, 34, 60
1, 320667, Note_off_c, 0, 34, 63
1, 320729, Note_on_c, 0, 36, 61
1, 320757, Control_c, 0, 64, 11
1, 320769, Note_off_c, 0, 36, 64
1, 320772, Control_c, 0, 64, 16
1, 320786, Control_c, 0, 64, 18
1, 320816, Control_c, 0, 64, 20
1, 320834, Note_on_c, 0, 34, 63
1, 320846, Control_c, 0, 64, 23
1, 320854, Note_off_c, 0, 56, 55
1, 320860, Control_c, 0, 64, 29
1, 320875, Control_c, 0, 64, 34
1, 320881, Note_off_c, 0, 34, 64
1, 320890, Control_c, 0, 64, 38
1, 320892, Note_off_c, 0, 53, 37
1, 320905, Control_c, 0, 64, 42
1, 320920, Control_c, 0, 64, 45
1, 320934, Note_on_c, 0, 32, 64
1, 320935, Control_c, 0, 64, 48
1, 320950, Control_c, 0, 64, 51
1, 320965, Control_c, 0, 64, 52
1, 320979, Control_c, 0, 64, 54
1, 320989, Note_off_c, 0, 32, 60
1, 320994, Control_c, 0, 64, 55
1, 321009, Control_c, 0, 64, 57
1, 321024, Control_c, 0, 64, 59
1, 321046, Control_c, 0, 64, 60
1, 321060, Note_on_c, 0, 37, 64
1, 321061, Note_on_c, 0, 61, 66
1, 321061, Control_c, 0, 64, 62
1, 321063, Note_on_c, 0, 53, 63
1, 321065, Note_off_c, 0, 65, 63
1, 321075, Note_on_c, 0, 56, 53
1, 321075, Control_c, 0, 64, 64
1, 321090, Control_c, 0, 64, 65
1, 321090, Control_c, 0, 67, 22
1, 321105, Control_c, 0, 64, 65
1, 321106, Note_off_c, 0, 56, 65
1, 321110, Note_off_c, 0, 37, 64
1, 321120, Control_c, 0, 64, 66
1, 321120, Note_off_c, 0, 53, 56
1, 321135, Control_c, 0, 64, 66
1, 321144, Note_off_c, 0, 61, 62
1, 321149, Control_c, 0, 64, 67
1, 321171, Note_on_c, 0, 36, 62
1, 321179, Control_c, 0, 67, 22
1, 321194, Control_c, 0, 64, 67
1, 321221, Note_off_c, 0, 36, 62
1, 321269, Note_on_c, 0, 34, 66
1, 321284, Control_c, 0, 64, 67
1, 321299, Control_c, 0, 64, 66
1, 321313, Control_c, 0, 64, 64
1, 321327, Note_off_c, 0, 34, 62
1, 321328, Control_c, 0, 64, 62
1, 321343, Control_c, 0, 64, 56
1, 321358, Control_c, 0, 64, 49
1, 321373, Control_c, 0, 64, 40
1, 321384, Note_on_c, 0, 36, 69
1, 321388, Control_c, 0, 64, 23
1, 321389, Note_on_c, 0, 56, 71
1, 321403, Control_c, 0, 64, 0
1, 321403, Note_on_c, 0, 53, 49
1, 321421, Note_off_c, 0, 56, 64
1, 321425, Note_off_c, 0, 36, 66
1, 321427, Note_off_c, 0, 53, 60
1, 321462, Control_c, 0, 64, 18
1, 321477, Control_c, 0, 64, 20
1, 321481, Note_on_c, 0, 61, 79
1, 321485, Note_on_c, 0, 34, 69
1, 321491, Control_c, 0, 64, 25
1, 321506, Control_c, 0, 64, 30
1, 321507, Note_off_c, 0, 61, 67
1, 321521, Control_c, 0, 64, 36
1, 321531, Note_off_c, 0, 34, 62
1, 321535, Control_c, 0, 64, 41
1, 321550, Control_c, 0, 64, 45
1, 321565, Control_c, 0, 64, 46
1, 321575, Note_on_c, 0, 32, 74
1, 321580, Control_c, 0, 64, 47
1, 321582, Note_on_c, 0, 56, 37
1, 321582, Note_on_c, 0, 65, 75
1, 321595, Control_c, 0, 64, 48
1, 321604, Note_on_c, 0, 61, 42
1, 321609, Control_c, 0, 64, 48
1, 321626, Note_off_c, 0, 56, 60
1, 321630, Note_off_c, 0, 61, 51
1, 321639, Note_off_c, 0, 32, 61
1, 321639, Control_c, 0, 64, 49
1, 321642, Note_off_c, 0, 65, 63
1, 321669, Control_c, 0, 64, 49
1, 321687, Note_on_c, 0, 65, 58
1, 321695, Note_on_c, 0, 68, 81
1, 321696, Note_on_c, 0, 56, 67
1, 321698, Control_c, 0, 64, 50
1, 321701, Note_on_c, 0, 44, 65
1, 321702, Note_on_c, 0, 61, 69
1, 321706, Note_on_c, 0, 37, 63
1, 321713, Control_c, 0, 64, 50
1, 321749, Note_off_c, 0, 37, 65
1, 321766, Note_off_c, 0, 44, 51
1, 321814, Note_on_c, 0, 36, 65
1, 321865, Note_off_c, 0, 36, 60
1, 321915, Note_on_c, 0, 34, 65
1, 321942, Control_c, 0, 64, 51
1, 321957, Control_c, 0, 67, 23
1, 321964, Note_off_c, 0, 34, 63
1, 321972, Control_c, 0, 64, 50
1, 321987, Control_c, 0, 64, 46
1, 322002, Control_c, 0, 64, 43
1, 322017, Control_c, 0, 64, 42
1, 322032, Note_on_c, 0, 36, 64
1, 322032, Control_c, 0, 64, 43
1, 322047, Control_c, 0, 64, 48
1, 322062, Control_c, 0, 64, 56
1, 322076, Note_off_c, 0, 36, 66
1, 322077, Control_c, 0, 64, 63
1, 322092, Control_c, 0, 64, 66
1, 322106, Control_c, 0, 64, 68
1, 322121, Control_c, 0, 64, 70
1, 322136, Control_c, 0, 64, 72
1, 322139, Note_on_c, 0, 34, 65
1, 322151, Control_c, 0, 64, 75
1, 322166, Control_c, 0, 64, 78
1, 322181, Control_c, 0, 64, 79
1, 322184, Note_off_c, 0, 34, 63
1, 322196, Control_c, 0, 64, 80
1, 322208, Note_off_c, 0, 56, 28
1, 322211, Control_c, 0, 64, 81
1, 322223, Note_off_c, 0, 68, 57
1, 322239, Note_on_c, 0, 32, 74
1, 322240, Control_c, 0, 64, 81
1, 322284, Control_c, 0, 67, 22
1, 322300, Note_off_c, 0, 32, 56
1, 322302, Note_off_c, 0, 65, 60
1, 322344, Control_c, 0, 64, 79
1, 322352, Note_on_c, 0, 63, 80
1, 322355, Note_on_c, 0, 68, 84
1, 322358, Control_c, 0, 64, 74
1, 322360, Note_on_c, 0, 56, 72
1, 322361, Note_on_c, 0, 37, 68
1, 322361, Note_on_c, 0, 44, 65
1, 322372, Control_c, 0, 64, 67
1, 322374, Note_off_c, 0, 61, 62
1, 322387, Control_c, 0, 64, 54
1, 322402, Control_c, 0, 64, 0
1, 322408, Note_off_c, 0, 37, 64
1, 322413, Note_off_c, 0, 44, 58
1, 322431, Control_c, 0, 67, 22
1, 322461, Control_c, 0, 67, 22
1, 322465, Note_on_c, 0, 36, 64
1, 322518, Note_off_c, 0, 36, 61
1, 322521, Control_c, 0, 64, 47
1, 322543, Control_c, 0, 64, 62
1, 322557, Control_c, 0, 64, 65
1, 322572, Control_c, 0, 64, 66
1, 322575, Note_on_c, 0, 34, 68
1, 322587, Control_c, 0, 64, 67
1, 322602, Control_c, 0, 64, 69
1, 322617, Control_c, 0, 64, 71
1, 322631, Control_c, 0, 64, 74
1, 322631, Control_c, 0, 67, 22
1, 322637, Note_off_c, 0, 34, 58
1, 322646, Control_c, 0, 64, 77
1, 322661, Control_c, 0, 64, 79
1, 322676, Control_c, 0, 64, 80
1, 322683, Note_off_c, 0, 63, 59
1, 322689, Note_on_c, 0, 36, 68
1, 322691, Control_c, 0, 64, 80
1, 322703, Note_off_c, 0, 68, 58
1, 322705, Control_c, 0, 64, 81
1, 322720, Control_c, 0, 64, 81
1, 322738, Note_off_c, 0, 56, 36
1, 322750, Control_c, 0, 64, 82
1, 322772, Note_off_c, 0, 36, 58
1, 322780, Note_on_c, 0, 34, 47
1, 322849, Note_on_c, 0, 63, 62
1, 322849, Note_on_c, 0, 68, 57
1, 322863, Note_on_c, 0, 56, 56
1, 322882, Note_off_c, 0, 34, 62
1, 322917, Note_off_c, 0, 56, 47
1, 322919, Note_on_c, 0, 32, 61
1, 322929, Control_c, 0, 64, 82
1, 322966, Note_off_c, 0, 68, 55
1, 323018, Control_c, 0, 64, 82
1, 323033, Control_c, 0, 64, 81
1, 323034, Note_off_c, 0, 63, 59
1, 323036, Note_on_c, 0, 68, 59
1, 323040, Note_on_c, 0, 56, 57
1, 323048, Control_c, 0, 64, 77
1, 323049, Note_on_c, 0, 37, 53
1, 323051, Note_on_c, 0, 61, 60
1, 323052, Note_off_c, 0, 32, 28
1, 323053, Note_on_c, 0, 44, 36
1, 323053, Note_on_c, 0, 65, 55
1, 323062, Control_c, 0, 64, 72
1, 323077, Control_c, 0, 64, 65
1, 323090, Note_off_c, 0, 44, 50
1, 323092, Note_off_c, 0, 37, 65
1, 323092, Control_c, 0, 64, 51
1, 323106, Control_c, 0, 64, 0
1, 323145, Note_on_c, 0, 36, 61
1, 323195, Note_off_c, 0, 36, 62
1, 323248, Note_on_c, 0, 34, 61
1, 323306, Note_off_c, 0, 34, 59
1, 323371, Note_on_c, 0, 36, 57
1, 323406, Note_off_c, 0, 36, 65
1, 323467, Note_on_c, 0, 34, 65
1, 323513, Note_off_c, 0, 34, 63
1, 323571, Note_on_c, 0, 32, 67
1, 323573, Control_c, 0, 64, 39
1, 323588, Control_c, 0, 64, 54
1, 323603, Control_c, 0, 64, 60
1, 323618, Control_c, 0, 64, 62
1, 323621, Note_off_c, 0, 32, 61
1, 323632, Control_c, 0, 64, 63
1, 323647, Control_c, 0, 64, 64
1, 323663, Control_c, 0, 64, 65
1, 323665, Note_off_c, 0, 65, 63
1, 323669, Note_off_c, 0, 68, 63
1, 323677, Note_on_c, 0, 37, 68
1, 323678, Control_c, 0, 64, 66
1, 323692, Control_c, 0, 64, 66
1, 323702, Note_off_c, 0, 61, 58
1, 323718, Note_off_c, 0, 56, 55
1, 323720, Note_off_c, 0, 37, 65
1, 323767, Control_c, 0, 64, 66
1, 323775, Note_on_c, 0, 36, 67
1, 323782, Control_c, 0, 64, 65
1, 323797, Control_c, 0, 64, 65
1, 323811, Control_c, 0, 64, 64
1, 323824, Note_off_c, 0, 36, 62
1, 323826, Control_c, 0, 64, 64
1, 323841, Control_c, 0, 64, 63
1, 323856, Control_c, 0, 64, 62
1, 323871, Control_c, 0, 64, 60
1, 323878, Note_on_c, 0, 34, 70
1, 323886, Control_c, 0, 64, 58
1, 323901, Control_c, 0, 64, 57
1, 323931, Note_off_c, 0, 34, 62
1, 323960, Control_c, 0, 64, 57
1, 323989, Note_on_c, 0, 36, 68
1, 323990, Control_c, 0, 64, 57
1, 323998, Note_on_c, 0, 56, 65
1, 324012, Note_on_c, 0, 53, 49
1, 324019, Control_c, 0, 64, 58
1, 324041, Note_off_c, 0, 36, 64
1, 324041, Control_c, 0, 64, 58
1, 324044, Note_off_c, 0, 56, 58
1, 324047, Note_off_c, 0, 53, 59
1, 324093, Note_on_c, 0, 61, 78
1, 324096, Note_on_c, 0, 34, 71
1, 324131, Note_off_c, 0, 61, 63
1, 324143, Note_off_c, 0, 34, 64
1, 324160, Control_c, 0, 64, 59
1, 324194, Note_on_c, 0, 32, 74
1, 324211, Note_on_c, 0, 65, 74
1, 324222, Note_on_c, 0, 56, 56
1, 324249, Control_c, 0, 64, 59
1, 324250, Note_off_c, 0, 56, 63
1, 324264, Note_off_c, 0, 32, 60
1, 324271, Note_off_c, 0, 65, 63
1, 324308, Control_c, 0, 64, 59
1, 324320, Note_on_c, 0, 65, 63
1, 324321, Note_on_c, 0, 68, 81
1, 324323, Note_on_c, 0, 56, 78
1, 324334, Note_on_c, 0, 44, 53
1, 324335, Note_on_c, 0, 37, 60
1, 324346, Note_on_c, 0, 61, 62
1, 324352, Control_c, 0, 64, 59
1, 324385, Note_off_c, 0, 44, 57
1, 324390, Note_off_c, 0, 37, 63
1, 324397, Control_c, 0, 64, 60
1, 324411, Control_c, 0, 64, 61
1, 324426, Control_c, 0, 64, 62
1, 324436, Note_on_c, 0, 36, 57
1, 324441, Control_c, 0, 64, 63
1, 324457, Control_c, 0, 64, 64
1, 324472, Control_c, 0, 64, 64
1, 324487, Control_c, 0, 64, 65
1, 324499, Note_off_c, 0, 36, 58
1, 324531, Control_c, 0, 64, 65
1, 324537, Note_on_c, 0, 34, 66
1, 324575, Control_c, 0, 64, 66
1, 324595, Note_off_c, 0, 34, 62
1, 324605, Control_c, 0, 64, 66
1, 324620, Control_c, 0, 64, 67
1, 324634, Control_c, 0, 64, 68
1, 324649, Control_c, 0, 64, 69
1, 324650, Note_on_c, 0, 36, 70
1, 324664, Control_c, 0, 64, 71
1, 324679, Control_c, 0, 64, 73
1, 324694, Control_c, 0, 64, 75
1, 324709, Control_c, 0, 64, 77
1, 324712, Note_off_c, 0, 36, 62
1, 324724, Control_c, 0, 64, 78
1, 324738, Control_c, 0, 64, 78
1, 324753, Control_c, 0, 64, 79
1, 324758, Note_on_c, 0, 34, 72
1, 324768, Control_c, 0, 64, 79
1, 324790, Control_c, 0, 64, 80
1, 324805, Control_c, 0, 64, 81
1, 324820, Control_c, 0, 64, 81
1, 324822, Note_off_c, 0, 34, 63
1, 324834, Control_c, 0, 64, 82
1, 324849, Note_off_c, 0, 56, 55
1, 324849, Control_c, 0, 64, 82
1, 324870, Note_on_c, 0, 32, 78
1, 324876, Note_off_c, 0, 68, 57
1, 324893, Control_c, 0, 67, 21
1, 324923, Control_c, 0, 67, 21
1, 324944, Note_off_c, 0, 32, 59
1, 324953, Note_off_c, 0, 65, 58
1, 324953, Control_c, 0, 64, 80
1, 324968, Control_c, 0, 64, 73
1, 324975, Note_on_c, 0, 68, 91
1, 324979, Note_on_c, 0, 63, 76
1, 324980, Note_on_c, 0, 56, 76
1, 324983, Control_c, 0, 64, 60
1, 324983, Note_on_c, 0, 44, 67
1, 324987, Note_on_c, 0, 37, 66
1, 324998, Note_off_c, 0, 61, 54
1, 324998, Control_c, 0, 64, 0
1, 325039, Note_off_c, 0, 37, 64
1, 325042, Control_c, 0, 67, 20
1, 325057, Control_c, 0, 64, 47
1, 325057, Control_c, 0, 67, 21
1, 325072, Control_c, 0, 64, 68
1, 325086, Note_on_c, 0, 36, 69
1, 325086, Control_c, 0, 64, 74
1, 325101, Control_c, 0, 64, 80
1, 325116, Control_c, 0, 64, 82
1, 325131, Control_c, 0, 64, 82
1, 325131, Control_c, 0, 67, 20
1, 325153, Note_off_c, 0, 36, 61
1, 325160, Control_c, 0, 64, 83
1, 325162, Note_off_c, 0, 44, 34
1, 325190, Control_c, 0, 64, 83
1, 325192, Note_on_c, 0, 34, 72
1, 325220, Control_c, 0, 64, 84
1, 325250, Control_c, 0, 64, 84
1, 325253, Note_off_c, 0, 68, 55
1, 325269, Note_off_c, 0, 34, 53
1, 325274, Note_off_c, 0, 63, 58
1, 325280, Control_c, 0, 67, 20
1, 325281, Note_off_c, 0, 56, 50
1, 325301, Note_on_c, 0, 36, 66
1, 325320, Poly_aftertouch_c, 0, 44, 127
1, 325339, Control_c, 0, 64, 85
1, 325362, Poly_aftertouch_c, 0, 44, 0
1, 325379, Note_off_c, 0, 36, 57
1, 325383, Control_c, 0, 64, 85
1, 325414, Note_on_c, 0, 34, 67
1, 325434, Note_on_c, 0, 68, 73
1, 325439, Note_on_c, 0, 63, 65
1, 325442, Note_on_c, 0, 56, 59
1, 325443, Control_c, 0, 64, 86
1, 325487, Control_c, 0, 64, 86
1, 325503, Note_off_c, 0, 34, 56
1, 325535, Note_on_c, 0, 32, 67
1, 325554, Control_c, 0, 64, 87
1, 325580, Note_off_c, 0, 68, 57
1, 325584, Note_off_c, 0, 56, 33
1, 325613, Control_c, 0, 64, 86
1, 325628, Control_c, 0, 64, 83
1, 325637, Note_on_c, 0, 68, 67
1, 325642, Note_on_c, 0, 56, 58
1, 325643, Control_c, 0, 64, 77
1, 325651, Note_on_c, 0, 44, 59
1, 325655, Note_on_c, 0, 65, 63
1, 325657, Note_on_c, 0, 61, 61
1, 325657, Control_c, 0, 64, 68
1, 325658, Note_off_c, 0, 63, 61
1, 325662, Note_on_c, 0, 37, 54
1, 325672, Control_c, 0, 64, 41
1, 325687, Control_c, 0, 64, 0
1, 325696, Note_off_c, 0, 32, 37
1, 325707, Note_off_c, 0, 37, 64
1, 325713, Note_off_c, 0, 44, 56
1, 325746, Control_c, 0, 67, 20
1, 325754, Note_on_c, 0, 36, 64
1, 325815, Note_off_c, 0, 36, 54
1, 325821, Control_c, 0, 64, 23
1, 325835, Control_c, 0, 64, 37
1, 325850, Control_c, 0, 64, 44
1, 325852, Note_on_c, 0, 34, 66
1, 325865, Control_c, 0, 64, 46
1, 325880, Control_c, 0, 64, 45
1, 325895, Control_c, 0, 64, 41
1, 325909, Control_c, 0, 64, 37
1, 325920, Note_off_c, 0, 34, 56
1, 325924, Control_c, 0, 64, 39
1, 325939, Control_c, 0, 64, 51
1, 325954, Control_c, 0, 64, 62
1, 325961, Note_on_c, 0, 36, 68
1, 325969, Control_c, 0, 64, 67
1, 325983, Control_c, 0, 64, 71
1, 325998, Control_c, 0, 64, 75
1, 326008, Note_off_c, 0, 36, 62
1, 326013, Control_c, 0, 64, 80
1, 326027, Control_c, 0, 64, 82
1, 326042, Control_c, 0, 64, 83
1, 326054, Note_on_c, 0, 34, 77
1, 326059, Control_c, 0, 64, 83
1, 326073, Control_c, 0, 64, 84
1, 326088, Control_c, 0, 64, 85
1, 326100, Note_off_c, 0, 56, 27
1, 326103, Control_c, 0, 64, 87
1, 326105, Note_off_c, 0, 68, 51
1, 326116, Note_off_c, 0, 34, 62
1, 326117, Control_c, 0, 64, 88
1, 326131, Control_c, 0, 64, 89
1, 326146, Control_c, 0, 64, 89
1, 326154, Note_on_c, 0, 32, 78
1, 326161, Control_c, 0, 64, 90
1, 326176, Control_c, 0, 64, 91
1, 326191, Control_c, 0, 64, 92
1, 326205, Control_c, 0, 64, 93
1, 326205, Control_c, 0, 67, 20
1, 326220, Control_c, 0, 64, 93
1, 326237, Note_off_c, 0, 65, 30
1, 326247, Note_off_c, 0, 32, 49
1, 326265, Control_c, 0, 64, 92
1, 326284, Note_on_c, 0, 44, 75
1, 326287, Control_c, 0, 64, 84
1, 326288, Note_on_c, 0, 37, 72
1, 326292, Note_on_c, 0, 68, 88
1, 326294, Note_on_c, 0, 56, 79
1, 326295, Note_on_c, 0, 63, 79
1, 326302, Control_c, 0, 64, 68
1, 326302, Control_c, 0, 67, 19
1, 326317, Control_c, 0, 64, 0
1, 326327, Note_off_c, 0, 61, 63
1, 326331, Control_c, 0, 67, 19
1, 326354, Note_off_c, 0, 37, 64
1, 326376, Control_c, 0, 64, 44
1, 326391, Control_c, 0, 64, 68
1, 326391, Control_c, 0, 67, 19
1, 326398, Note_on_c, 0, 36, 69
1, 326405, Control_c, 0, 64, 74
1, 326420, Control_c, 0, 64, 78
1, 326435, Control_c, 0, 64, 78
1, 326448, Note_off_c, 0, 44, 53
1, 326464, Control_c, 0, 64, 79
1, 326464, Control_c, 0, 67, 19
1, 326469, Note_off_c, 0, 36, 57
1, 326501, Note_on_c, 0, 34, 72
1, 326509, Control_c, 0, 64, 79
1, 326524, Control_c, 0, 64, 80
1, 326529, Note_on_c, 0, 44, 4
1, 326554, Control_c, 0, 64, 80
1, 326554, Control_c, 0, 67, 18
1, 326563, Note_off_c, 0, 44, 53
1, 326569, Control_c, 0, 64, 81
1, 326571, Note_off_c, 0, 34, 59
1, 326584, Control_c, 0, 64, 81
1, 326584, Control_c, 0, 67, 18
1, 326596, Note_off_c, 0, 63, 59
1, 326599, Control_c, 0, 64, 82
1, 326601, Note_off_c, 0, 56, 52
1, 326608, Note_on_c, 0, 36, 69
1, 326612, Note_off_c, 0, 68, 54
1, 326613, Control_c, 0, 64, 83
1, 326613, Control_c, 0, 67, 17
1, 326628, Control_c, 0, 64, 84
1, 326643, Control_c, 0, 64, 85
1, 326657, Control_c, 0, 64, 86
1, 326672, Control_c, 0, 64, 86
1, 326678, Poly_aftertouch_c, 0, 44, 127
1, 326687, Control_c, 0, 64, 87
1, 326688, Note_off_c, 0, 36, 58
1, 326718, Note_on_c, 0, 34, 71
1, 326731, Control_c, 0, 64, 87
1, 326731, Control_c, 0, 67, 17
1, 326757, Note_on_c, 0, 68, 76
1, 326761, Control_c, 0, 64, 88
1, 326767, Note_on_c, 0, 63, 71
1, 326771, Note_on_c, 0, 56, 61
1, 326776, Control_c, 0, 64, 88
1, 326784, Poly_aftertouch_c, 0, 44, 0
1, 326791, Control_c, 0, 64, 89
1, 326805, Control_c, 0, 64, 90
1, 326819, Note_off_c, 0, 34, 57
1, 326820, Control_c, 0, 64, 91
1, 326835, Control_c, 0, 64, 91
1, 326836, Note_on_c, 0, 32, 72
1, 326851, Control_c, 0, 64, 92
1, 326851, Control_c, 0, 67, 16
1, 326882, Control_c, 0, 64, 92
1, 326888, Note_off_c, 0, 68, 58
1, 326900, Note_off_c, 0, 56, 35
1, 326941, Control_c, 0, 64, 92
1, 326952, Note_on_c, 0, 68, 83
1, 326955, Control_c, 0, 64, 87
1, 326956, Note_on_c, 0, 56, 75
1, 326959, Note_on_c, 0, 44, 72
1, 326960, Note_on_c, 0, 61, 72
1, 326962, Note_on_c, 0, 37, 68
1, 326963, Note_on_c, 0, 65, 72
1, 326964, Note_off_c, 0, 63, 61
1, 326970, Control_c, 0, 64, 74
1, 326984, Note_off_c, 0, 32, 55
1, 326985, Control_c, 0, 64, 43
1, 326985, Control_c, 0, 67, 16
1, 327000, Control_c, 0, 64, 0
1, 327015, Control_c, 0, 67, 15
1, 327037, Note_off_c, 0, 37, 64
1, 327052, Control_c, 0, 64, 38
1, 327067, Control_c, 0, 64, 68
1, 327075, Note_on_c, 0, 36, 67
1, 327081, Control_c, 0, 64, 76
1, 327096, Control_c, 0, 64, 83
1, 327111, Control_c, 0, 64, 85
1, 327111, Control_c, 0, 67, 15
1, 327126, Control_c, 0, 64, 86
1, 327126, Control_c, 0, 67, 14
1, 327141, Control_c, 0, 64, 86
1, 327141, Control_c, 0, 67, 13
1, 327155, Control_c, 0, 64, 88
1, 327155, Control_c, 0, 67, 13
1, 327168, Note_on_c, 0, 34, 76
1, 327170, Control_c, 0, 64, 90
1, 327185, Control_c, 0, 64, 93
1, 327185, Control_c, 0, 67, 12
1, 327192, Note_off_c, 0, 36, 37
1, 327200, Control_c, 0, 64, 95
1, 327200, Control_c, 0, 67, 12
1, 327215, Control_c, 0, 64, 97
1, 327219, Note_off_c, 0, 68, 37
1, 327229, Control_c, 0, 64, 99
1, 327229, Control_c, 0, 67, 11
1, 327239, Note_off_c, 0, 65, 62
1, 327244, Control_c, 0, 64, 101
1, 327259, Control_c, 0, 64, 102
1, 327259, Control_c, 0, 67, 11
1, 327266, Note_off_c, 0, 44, 0
1, 327270, Note_off_c, 0, 56, 0
1, 327273, Control_c, 0, 64, 103
1, 327280, Note_on_c, 0, 44, 41
1, 327283, Note_on_c, 0, 56, 56
1, 327288, Note_on_c, 0, 68, 88
1, 327288, Note_off_c, 0, 34, 38
1, 327288, Control_c, 0, 64, 102
1, 327291, Note_on_c, 0, 36, 76
1, 327296, Note_on_c, 0, 63, 79
1, 327303, Control_c, 0, 64, 96
1, 327314, Note_off_c, 0, 61, 62
1, 327318, Control_c, 0, 64, 83
1, 327333, Control_c, 0, 64, 66
1, 327333, Control_c, 0, 67, 10
1, 327347, Control_c, 0, 64, 0
1, 327378, Note_off_c, 0, 36, 51
1, 327392, Control_c, 0, 64, 66
1, 327397, Note_on_c, 0, 34, 76
1, 327407, Control_c, 0, 64, 75
1, 327421, Note_off_c, 0, 68, 57
1, 327421, Control_c, 0, 64, 83
1, 327434, Note_off_c, 0, 56, 57
1, 327436, Control_c, 0, 64, 88
1, 327436, Control_c, 0, 67, 10
1, 327451, Control_c, 0, 64, 89
1, 327451, Control_c, 0, 67, 9
1, 327454, Note_off_c, 0, 44, 56
1, 327466, Control_c, 0, 64, 90
1, 327479, Note_off_c, 0, 34, 0
1, 327481, Control_c, 0, 64, 92
1, 327481, Control_c, 0, 67, 8
1, 327495, Note_on_c, 0, 32, 80
1, 327496, Control_c, 0, 64, 94
1, 327496, Control_c, 0, 67, 8
1, 327511, Control_c, 0, 64, 99
1, 327511, Control_c, 0, 67, 0
1, 327517, Poly_aftertouch_c, 0, 34, 127
1, 327526, Control_c, 0, 64, 107
1, 327541, Control_c, 0, 64, 117
1, 327555, Control_c, 0, 64, 122
1, 327585, Control_c, 0, 64, 117
1, 327595, Note_on_c, 0, 44, 72
1, 327600, Control_c, 0, 64, 98
1, 327603, Note_on_c, 0, 37, 75
1, 327605, Note_on_c, 0, 68, 91
1, 327607, Note_on_c, 0, 56, 81
1, 327615, Control_c, 0, 64, 74
1, 327616, Note_on_c, 0, 61, 77
1, 327617, Note_on_c, 0, 65, 79
1, 327629, Control_c, 0, 64, 0
1, 327630, Note_off_c, 0, 32, 57
1, 327630, Note_off_c, 0, 63, 60
1, 327651, Poly_aftertouch_c, 0, 34, 0
1, 327675, Control_c, 0, 64, 59
1, 327681, Note_off_c, 0, 37, 62
1, 327690, Control_c, 0, 64, 73
1, 327704, Control_c, 0, 64, 88
1, 327710, Note_on_c, 0, 36, 79
1, 327719, Control_c, 0, 64, 101
1, 327734, Control_c, 0, 64, 105
1, 327740, Note_off_c, 0, 68, 58
1, 327800, Control_c, 0, 64, 106
1, 327808, Note_off_c, 0, 65, 56
1, 327811, Note_on_c, 0, 34, 76
1, 327815, Control_c, 0, 64, 107
1, 327830, Control_c, 0, 64, 107
1, 327833, Note_off_c, 0, 56, 25
1, 327838, Note_off_c, 0, 36, 54
1, 327845, Control_c, 0, 64, 108
1, 327859, Control_c, 0, 64, 108
1, 327874, Control_c, 0, 64, 109
1, 327889, Note_off_c, 0, 34, 60
1, 327889, Control_c, 0, 64, 110
1, 327904, Control_c, 0, 64, 112
1, 327918, Note_on_c, 0, 68, 96
1, 327919, Control_c, 0, 64, 115
1, 327921, Note_on_c, 0, 56, 87
1, 327922, Note_on_c, 0, 36, 77
1, 327931, Note_on_c, 0, 63, 81
1, 327934, Control_c, 0, 64, 120
1, 327937, Note_off_c, 0, 61, 62
1, 327949, Control_c, 0, 64, 125
1, 327963, Note_off_c, 0, 56, 62
1, 327964, Control_c, 0, 64, 127
1, 327998, Note_off_c, 0, 68, 53
1, 328014, Note_on_c, 0, 67, 13
1, 328015, Note_off_c, 0, 63, 62
1, 328021, Note_on_c, 0, 34, 79
1, 328032, Note_off_c, 0, 36, 35
1, 328047, Note_off_c, 0, 44, 28
1, 328060, Note_off_c, 0, 67, 37
1, 328115, Note_on_c, 0, 32, 75
1, 328121, Note_off_c, 0, 34, 65
1, 328191, Note_off_c, 0, 32, 62
1, 328235, Note_on_c, 0, 73, 102
1, 328235, Note_on_c, 0, 64, 89
1, 328238, Note_on_c, 0, 61, 91
1, 328240, Note_on_c, 0, 40, 80
1, 328244, Note_on_c, 0, 33, 89
1, 328280, Note_off_c, 0, 40, 63
1, 328289, Note_off_c, 0, 33, 62
1, 328304, Control_c, 0, 64, 111
1, 328319, Control_c, 0, 64, 83
1, 328333, Control_c, 0, 64, 16
1, 328348, Control_c, 0, 64, 0
1, 328351, Note_on_c, 0, 32, 80
1, 328390, Note_off_c, 0, 32, 64
1, 328436, Note_on_c, 0, 30, 77
1, 328481, Note_off_c, 0, 30, 62
1, 328549, Note_on_c, 0, 32, 61
1, 328575, Note_on_c, 0, 31, 49
1, 328581, Note_off_c, 0, 32, 53
1, 328610, Note_off_c, 0, 31, 48
1, 328658, Note_on_c, 0, 30, 49
1, 328697, Note_on_c, 0, 29, 26
1, 328697, Note_off_c, 0, 30, 35
1, 328744, Note_off_c, 0, 29, 44
1, 328745, Note_on_c, 0, 28, 63
1, 328781, Note_off_c, 0, 28, 61
1, 328840, Note_on_c, 0, 33, 71
1, 328876, Note_off_c, 0, 33, 65
1, 328938, Note_on_c, 0, 32, 69
1, 328977, Note_off_c, 0, 32, 63
1, 329043, Note_on_c, 0, 30, 65
1, 329080, Note_off_c, 0, 30, 63
1, 329141, Note_on_c, 0, 32, 62
1, 329174, Note_off_c, 0, 32, 61
1, 329234, Note_on_c, 0, 30, 67
1, 329280, Note_off_c, 0, 30, 64
1, 329346, Note_on_c, 0, 28, 67
1, 329377, Note_off_c, 0, 28, 61
1, 329438, Note_on_c, 0, 33, 65
1, 329482, Note_off_c, 0, 33, 65
1, 329544, Note_on_c, 0, 32, 64
1, 329579, Note_off_c, 0, 32, 63
1, 329648, Note_on_c, 0, 30, 60
1, 329675, Note_off_c, 0, 73, 60
1, 329684, Note_off_c, 0, 61, 61
1, 329686, Note_off_c, 0, 30, 60
1, 329726, Note_off_c, 0, 64, 63
1, 329749, Note_on_c, 0, 32, 67
1, 329785, Note_off_c, 0, 32, 62
1, 329848, Note_on_c, 0, 30, 65
1, 329893, Note_off_c, 0, 30, 61
1, 329944, Note_on_c, 0, 28, 65
1, 329977, Note_off_c, 0, 28, 61
1, 330056, Note_on_c, 0, 33, 70
1, 330091, Note_off_c, 0, 33, 67
1, 330155, Note_on_c, 0, 32, 64
1, 330192, Note_off_c, 0, 32, 65
1, 330253, Note_on_c, 0, 30, 65
1, 330294, Note_off_c, 0, 30, 60
1, 330347, Note_on_c, 0, 32, 67
1, 330382, Note_off_c, 0, 32, 65
1, 330441, Note_on_c, 0, 30, 63
1, 330462, Control_c, 0, 64, 11
1, 330477, Control_c, 0, 64, 45
1, 330483, Note_off_c, 0, 30, 63
1, 330491, Control_c, 0, 64, 58
1, 330498, Note_on_c, 0, 28, 64
1, 330506, Control_c, 0, 64, 63
1, 330521, Control_c, 0, 64, 65
1, 330536, Control_c, 0, 64, 67
1, 330546, Note_off_c, 0, 28, 60
1, 330551, Control_c, 0, 64, 68
1, 330561, Note_on_c, 0, 57, 63
1, 330565, Note_on_c, 0, 49, 65
1, 330565, Control_c, 0, 64, 69
1, 330580, Control_c, 0, 64, 70
1, 330585, Note_on_c, 0, 52, 48
1, 330595, Control_c, 0, 64, 71
1, 330596, Note_off_c, 0, 49, 64
1, 330596, Note_off_c, 0, 57, 64
1, 330610, Note_off_c, 0, 52, 55
1, 330610, Control_c, 0, 64, 72
1, 330624, Control_c, 0, 64, 72
1, 330650, Note_on_c, 0, 57, 69
1, 330654, Control_c, 0, 64, 71
1, 330657, Note_on_c, 0, 49, 77
1, 330669, Control_c, 0, 64, 70
1, 330673, Note_on_c, 0, 52, 65
1, 330674, Note_on_c, 0, 33, 54
1, 330676, Note_on_c, 0, 40, 54
1, 330684, Control_c, 0, 64, 67
1, 330698, Control_c, 0, 64, 62
1, 330705, Note_off_c, 0, 33, 64
1, 330713, Control_c, 0, 64, 41
1, 330715, Note_off_c, 0, 40, 55
1, 330728, Control_c, 0, 64, 0
1, 330778, Note_on_c, 0, 32, 66
1, 330820, Note_off_c, 0, 32, 63
1, 330868, Note_on_c, 0, 30, 68
1, 330900, Control_c, 0, 64, 11
1, 330912, Note_off_c, 0, 30, 62
1, 330915, Control_c, 0, 64, 28
1, 330929, Control_c, 0, 64, 31
1, 330944, Control_c, 0, 64, 33
1, 330959, Control_c, 0, 64, 34
1, 330974, Control_c, 0, 64, 34
1, 330979, Note_on_c, 0, 32, 68
1, 330988, Control_c, 0, 64, 34
1, 331016, Note_off_c, 0, 32, 65
1, 331018, Control_c, 0, 64, 37
1, 331033, Control_c, 0, 64, 50
1, 331048, Control_c, 0, 64, 62
1, 331063, Control_c, 0, 64, 66
1, 331075, Note_on_c, 0, 30, 68
1, 331077, Control_c, 0, 64, 69
1, 331092, Control_c, 0, 64, 72
1, 331107, Control_c, 0, 64, 75
1, 331121, Control_c, 0, 64, 77
1, 331131, Note_off_c, 0, 30, 61
1, 331136, Control_c, 0, 64, 79
1, 331151, Control_c, 0, 64, 80
1, 331166, Control_c, 0, 64, 81
1, 331181, Control_c, 0, 64, 81
1, 331187, Note_on_c, 0, 28, 69
1, 331195, Control_c, 0, 64, 82
1, 331235, Note_off_c, 0, 28, 57
1, 331240, Note_off_c, 0, 57, 37
1, 331282, Note_off_c, 0, 49, 56
1, 331285, Control_c, 0, 64, 81
1, 331299, Note_off_c, 0, 52, 62
1, 331299, Control_c, 0, 64, 79
1, 331302, Note_on_c, 0, 57, 71
1, 331304, Note_on_c, 0, 50, 77
1, 331310, Note_on_c, 0, 54, 72
1, 331313, Note_on_c, 0, 40, 61
1, 331314, Note_on_c, 0, 33, 66
1, 331314, Control_c, 0, 64, 73
1, 331329, Control_c, 0, 64, 65
1, 331342, Note_off_c, 0, 40, 61
1, 331344, Control_c, 0, 64, 0
1, 331348, Note_off_c, 0, 33, 65
1, 331418, Note_on_c, 0, 32, 69
1, 331457, Note_off_c, 0, 32, 62
1, 331523, Note_on_c, 0, 30, 65
1, 331569, Note_off_c, 0, 30, 61
1, 331648, Control_c, 0, 64, 11
1, 331655, Note_on_c, 0, 32, 55
1, 331663, Control_c, 0, 64, 20
1, 331678, Control_c, 0, 64, 23
1, 331690, Note_off_c, 0, 32, 63
1, 331693, Control_c, 0, 64, 26
1, 331708, Control_c, 0, 64, 27
1, 331723, Control_c, 0, 64, 34
1, 331738, Control_c, 0, 64, 47
1, 331752, Control_c, 0, 64, 59
1, 331755, Note_on_c, 0, 30, 56
1, 331767, Control_c, 0, 64, 64
1, 331782, Control_c, 0, 64, 65
1, 331797, Control_c, 0, 64, 67
1, 331797, Note_off_c, 0, 30, 60
1, 331812, Control_c, 0, 64, 68
1, 331826, Control_c, 0, 64, 70
1, 331841, Control_c, 0, 64, 72
1, 331856, Control_c, 0, 64, 75
1, 331860, Note_on_c, 0, 28, 59
1, 331870, Control_c, 0, 64, 77
1, 331882, Note_off_c, 0, 57, 36
1, 331885, Control_c, 0, 64, 78
1, 331911, Note_off_c, 0, 28, 54
1, 331940, Note_off_c, 0, 50, 49
1, 331959, Control_c, 0, 64, 77
1, 331962, Note_off_c, 0, 54, 57
1, 331973, Note_on_c, 0, 57, 58
1, 331974, Control_c, 0, 64, 73
1, 331978, Note_on_c, 0, 40, 52
1, 331985, Note_on_c, 0, 33, 54
1, 331985, Note_on_c, 0, 49, 49
1, 331989, Control_c, 0, 64, 68
1, 331997, Note_on_c, 0, 52, 50
1, 332004, Control_c, 0, 64, 59
1, 332010, Note_off_c, 0, 40, 55
1, 332018, Control_c, 0, 64, 0
1, 332021, Note_off_c, 0, 33, 64
1, 332081, Note_on_c, 0, 32, 64
1, 332124, Note_off_c, 0, 32, 63
1, 332188, Note_on_c, 0, 30, 63
1, 332228, Note_off_c, 0, 30, 63
1, 332304, Note_on_c, 0, 32, 63
1, 332337, Note_off_c, 0, 32, 62
1, 332395, Note_on_c, 0, 30, 65
1, 332446, Note_off_c, 0, 30, 60
1, 332454, Note_off_c, 0, 52, 64
1, 332456, Control_c, 0, 64, 11
1, 332471, Control_c, 0, 64, 14
1, 332486, Control_c, 0, 64, 18
1, 332500, Control_c, 0, 64, 20
1, 332507, Note_on_c, 0, 28, 67
1, 332546, Note_off_c, 0, 28, 63
1, 332560, Control_c, 0, 64, 22
1, 332584, Note_off_c, 0, 49, 36
1, 332589, Control_c, 0, 64, 23
1, 332604, Control_c, 0, 64, 25
1, 332607, Note_on_c, 0, 33, 67
1, 332619, Control_c, 0, 64, 28
1, 332634, Control_c, 0, 64, 34
1, 332639, Note_off_c, 0, 33, 65
1, 332649, Control_c, 0, 64, 43
1, 332664, Control_c, 0, 64, 53
1, 332679, Control_c, 0, 64, 59
1, 332693, Control_c, 0, 64, 61
1, 332708, Note_on_c, 0, 32, 69
1, 332708, Control_c, 0, 64, 62
1, 332723, Control_c, 0, 64, 62
1, 332738, Control_c, 0, 64, 63
1, 332747, Note_off_c, 0, 32, 63
1, 332753, Control_c, 0, 64, 64
1, 332767, Control_c, 0, 64, 66
1, 332782, Control_c, 0, 64, 67
1, 332797, Control_c, 0, 64, 69
1, 332812, Control_c, 0, 64, 72
1, 332818, Note_on_c, 0, 30, 60
1, 332827, Control_c, 0, 64, 74
1, 332841, Control_c, 0, 64, 77
1, 332855, Control_c, 0, 64, 79
1, 332870, Control_c, 0, 64, 81
1, 332873, Note_off_c, 0, 30, 55
1, 332885, Control_c, 0, 64, 82
1, 332892, Note_off_c, 0, 57, 53
1, 332900, Control_c, 0, 64, 84
1, 332901, Note_on_c, 0, 52, 64
1, 332907, Note_on_c, 0, 32, 73
1, 332912, Note_on_c, 0, 49, 63
1, 332915, Control_c, 0, 64, 85
1, 332930, Control_c, 0, 64, 87
1, 332945, Control_c, 0, 64, 88
1, 332958, Note_off_c, 0, 32, 63
1, 332959, Control_c, 0, 64, 90
1, 332974, Control_c, 0, 64, 90
1, 332989, Control_c, 0, 64, 91
1, 333004, Control_c, 0, 64, 92
1, 333018, Note_on_c, 0, 30, 63
1, 333018, Note_off_c, 0, 52, 59
1, 333025, Control_c, 0, 64, 93
1, 333040, Control_c, 0, 64, 94
1, 333055, Control_c, 0, 64, 94
1, 333070, Control_c, 0, 64, 95
1, 333103, Note_off_c, 0, 30, 53
1, 333107, Note_off_c, 0, 49, 0
1, 333124, Note_on_c, 0, 49, 39
1, 333126, Note_on_c, 0, 28, 67
1, 333130, Control_c, 0, 64, 95
1, 333132, Note_on_c, 0, 57, 73
1, 333145, Note_on_c, 0, 52, 68
1, 333186, Note_off_c, 0, 52, 55
1, 333204, Control_c, 0, 64, 95
1, 333218, Control_c, 0, 64, 93
1, 333233, Control_c, 0, 64, 87
1, 333237, Note_off_c, 0, 49, 0
1, 333237, Note_on_c, 0, 49, 36
1, 333238, Note_on_c, 0, 52, 59
1, 333240, Note_on_c, 0, 61, 82
1, 333249, Control_c, 0, 64, 76
1, 333252, Note_on_c, 0, 40, 57
1, 333262, Note_on_c, 0, 33, 58
1, 333264, Control_c, 0, 64, 62
1, 333279, Control_c, 0, 64, 0
1, 333326, Note_off_c, 0, 33, 59
1, 333333, Note_off_c, 0, 49, 46
1, 333338, Note_off_c, 0, 28, 38
1, 333353, Control_c, 0, 64, 52
1, 333356, Note_off_c, 0, 40, 0
1, 333362, Note_on_c, 0, 32, 66
1, 333368, Control_c, 0, 64, 65
1, 333383, Control_c, 0, 64, 69
1, 333397, Control_c, 0, 64, 72
1, 333412, Control_c, 0, 64, 74
1, 333423, Poly_aftertouch_c, 0, 40, 0
1, 333427, Control_c, 0, 64, 76
1, 333441, Control_c, 0, 64, 78
1, 333443, Note_off_c, 0, 32, 56
1, 333453, Note_on_c, 0, 30, 71
1, 333456, Control_c, 0, 64, 80
1, 333471, Control_c, 0, 64, 82
1, 333486, Control_c, 0, 64, 84
1, 333501, Control_c, 0, 64, 86
1, 333508, Note_off_c, 0, 30, 63
1, 333511, Note_off_c, 0, 57, 57
1, 333515, Control_c, 0, 64, 87
1, 333530, Control_c, 0, 64, 88
1, 333545, Control_c, 0, 64, 89
1, 333560, Control_c, 0, 64, 90
1, 333562, Note_on_c, 0, 32, 74
1, 333575, Control_c, 0, 64, 91
1, 333585, Note_off_c, 0, 61, 57
1, 333589, Control_c, 0, 64, 92
1, 333595, Note_off_c, 0, 52, 51
1, 333604, Note_off_c, 0, 32, 62
1, 333605, Control_c, 0, 64, 92
1, 333620, Control_c, 0, 64, 93
1, 333634, Control_c, 0, 64, 93
1, 333660, Note_on_c, 0, 30, 74
1, 333664, Control_c, 0, 64, 94
1, 333694, Control_c, 0, 64, 94
1, 333708, Control_c, 0, 64, 95
1, 333723, Note_off_c, 0, 30, 61
1, 333723, Control_c, 0, 64, 95
1, 333738, Control_c, 0, 64, 96
1, 333753, Control_c, 0, 64, 96
1, 333771, Note_on_c, 0, 28, 77
1, 333805, Control_c, 0, 64, 97
1, 333820, Control_c, 0, 64, 97
1, 333835, Control_c, 0, 64, 98
1, 333886, Note_on_c, 0, 64, 90
1, 333891, Note_on_c, 0, 40, 74
1, 333892, Note_on_c, 0, 52, 84
1, 333894, Control_c, 0, 64, 96
1, 333895, Note_on_c, 0, 59, 78
1, 333896, Note_on_c, 0, 33, 72
1, 333909, Control_c, 0, 64, 89
1, 333923, Control_c, 0, 64, 78
1, 333938, Control_c, 0, 64, 63
1, 333952, Note_off_c, 0, 28, 48
1, 333953, Control_c, 0, 64, 0
1, 333961, Note_off_c, 0, 33, 64
1, 334008, Note_on_c, 0, 32, 73
1, 334027, Control_c, 0, 64, 61
1, 334037, Note_off_c, 0, 40, 57
1, 334043, Control_c, 0, 64, 66
1, 334058, Control_c, 0, 64, 67
1, 334067, Note_off_c, 0, 32, 62
1, 334087, Control_c, 0, 64, 68
1, 334102, Control_c, 0, 64, 69
1, 334107, Note_on_c, 0, 30, 75
1, 334117, Control_c, 0, 64, 70
1, 334132, Control_c, 0, 64, 73
1, 334146, Control_c, 0, 64, 75
1, 334161, Note_off_c, 0, 30, 62
1, 334161, Control_c, 0, 64, 77
1, 334176, Control_c, 0, 64, 78
1, 334191, Control_c, 0, 64, 78
1, 334206, Control_c, 0, 64, 79
1, 334221, Control_c, 0, 64, 80
1, 334224, Note_on_c, 0, 32, 71
1, 334236, Control_c, 0, 64, 81
1, 334251, Control_c, 0, 64, 82
1, 334262, Note_off_c, 0, 32, 62
1, 334265, Control_c, 0, 64, 83
1, 334280, Control_c, 0, 64, 84
1, 334295, Control_c, 0, 64, 85
1, 334310, Control_c, 0, 64, 86
1, 334325, Control_c, 0, 64, 88
1, 334331, Note_on_c, 0, 30, 74
1, 334339, Control_c, 0, 64, 88
1, 334354, Control_c, 0, 64, 89
1, 334361, Note_off_c, 0, 64, 60
1, 334369, Control_c, 0, 64, 90
1, 334381, Note_off_c, 0, 30, 63
1, 334384, Control_c, 0, 64, 91
1, 334388, Note_off_c, 0, 52, 50
1, 334413, Control_c, 0, 64, 91
1, 334420, Note_on_c, 0, 28, 76
1, 334443, Control_c, 0, 64, 92
1, 334487, Control_c, 0, 64, 92
1, 334584, Control_c, 0, 64, 91
1, 334584, Note_on_c, 0, 33, 68
1, 334586, Note_on_c, 0, 40, 63
1, 334586, Note_on_c, 0, 64, 84
1, 334590, Note_on_c, 0, 52, 80
1, 334590, Note_off_c, 0, 59, 62
1, 334594, Note_on_c, 0, 57, 66
1, 334594, Note_on_c, 0, 61, 77
1, 334599, Control_c, 0, 64, 86
1, 334608, Note_off_c, 0, 28, 0
1, 334608, Note_on_c, 0, 28, 3
1, 334613, Control_c, 0, 64, 76
1, 334623, Note_off_c, 0, 28, 53
1, 334628, Control_c, 0, 64, 57
1, 334641, Note_off_c, 0, 40, 48
1, 334643, Control_c, 0, 64, 0
1, 334646, Note_off_c, 0, 33, 62
1, 334688, Note_on_c, 0, 32, 71
1, 334717, Poly_aftertouch_c, 0, 40, 0
1, 334756, Note_off_c, 0, 32, 50
1, 334780, Note_on_c, 0, 30, 71
1, 334827, Note_off_c, 0, 30, 63
1, 334888, Note_on_c, 0, 32, 74
1, 334925, Note_off_c, 0, 32, 64
1, 334984, Control_c, 0, 64, 11
1, 334989, Note_on_c, 0, 30, 72
1, 335029, Control_c, 0, 64, 0
1, 335041, Note_off_c, 0, 30, 62
1, 335058, Control_c, 0, 64, 11
1, 335097, Note_on_c, 0, 28, 73
1, 335103, Control_c, 0, 64, 14
1, 335142, Note_off_c, 0, 28, 60
1, 335162, Control_c, 0, 64, 11
1, 335177, Control_c, 0, 64, 0
1, 335199, Note_on_c, 0, 33, 77
1, 335222, Control_c, 0, 64, 18
1, 335236, Note_off_c, 0, 33, 68
1, 335236, Control_c, 0, 64, 38
1, 335242, Note_off_c, 0, 52, 56
1, 335251, Control_c, 0, 64, 54
1, 335273, Control_c, 0, 64, 62
1, 335283, Note_off_c, 0, 57, 60
1, 335288, Control_c, 0, 64, 65
1, 335303, Control_c, 0, 64, 67
1, 335310, Note_on_c, 0, 32, 75
1, 335318, Control_c, 0, 64, 69
1, 335333, Control_c, 0, 64, 71
1, 335348, Control_c, 0, 64, 75
1, 335350, Note_off_c, 0, 61, 59
1, 335353, Note_off_c, 0, 32, 63
1, 335362, Control_c, 0, 64, 78
1, 335374, Note_off_c, 0, 64, 62
1, 335377, Control_c, 0, 64, 80
1, 335392, Control_c, 0, 64, 81
1, 335407, Control_c, 0, 64, 82
1, 335409, Note_on_c, 0, 30, 72
1, 335436, Control_c, 0, 64, 82
1, 335451, Note_off_c, 0, 30, 62
1, 335481, Control_c, 0, 64, 83
1, 335496, Note_on_c, 0, 32, 72
1, 335552, Note_off_c, 0, 32, 63
1, 335570, Note_on_c, 0, 30, 62
1, 335625, Note_on_c, 0, 64, 75
1, 335626, Note_on_c, 0, 61, 75
1, 335632, Note_on_c, 0, 57, 69
1, 335652, Note_off_c, 0, 61, 68
1, 335656, Note_off_c, 0, 30, 61
1, 335660, Note_off_c, 0, 57, 66
1, 335662, Note_on_c, 0, 28, 54
1, 335672, Note_off_c, 0, 64, 61
1, 335674, Control_c, 0, 64, 82
1, 335689, Control_c, 0, 64, 80
1, 335703, Control_c, 0, 64, 73
1, 335705, Note_on_c, 0, 64, 74
1, 335713, Note_on_c, 0, 61, 83
1, 335716, Note_on_c, 0, 57, 79
1, 335718, Control_c, 0, 64, 55
1, 335732, Note_off_c, 0, 61, 71
1, 335733, Control_c, 0, 64, 0
1, 335743, Note_off_c, 0, 57, 64
1, 335756, Note_off_c, 0, 64, 64
1, 335778, Note_off_c, 0, 28, 56
1, 335787, Note_on_c, 0, 64, 82
1, 335790, Note_on_c, 0, 61, 92
1, 335792, Control_c, 0, 64, 55
1, 335796, Note_on_c, 0, 57, 83
1, 335807, Control_c, 0, 64, 69
1, 335812, Note_on_c, 0, 40, 77
1, 335816, Note_on_c, 0, 33, 76
1, 335822, Control_c, 0, 64, 76
1, 335836, Control_c, 0, 64, 81
1, 335837, Note_off_c, 0, 57, 50
1, 335845, Note_off_c, 0, 61, 63
1, 335851, Control_c, 0, 64, 84
1, 335866, Control_c, 0, 64, 84
1, 335869, Note_off_c, 0, 33, 63
1, 335869, Note_off_c, 0, 40, 52
1, 335872, Note_off_c, 0, 64, 54
1, 335911, Note_on_c, 0, 32, 82
1, 335911, Control_c, 0, 64, 85
1, 335926, Control_c, 0, 64, 86
1, 335941, Control_c, 0, 64, 87
1, 335956, Control_c, 0, 64, 88
1, 335971, Control_c, 0, 64, 89
1, 335971, Note_off_c, 0, 32, 62
1, 335985, Control_c, 0, 64, 89
1, 336000, Control_c, 0, 64, 90
1, 336001, Note_on_c, 0, 30, 78
1, 336037, Control_c, 0, 64, 90
1, 336078, Note_off_c, 0, 30, 62
1, 336081, Control_c, 0, 64, 90
1, 336096, Control_c, 0, 64, 83
1, 336111, Control_c, 0, 64, 69
1, 336120, Note_on_c, 0, 69, 89
1, 336121, Note_on_c, 0, 32, 78
1, 336124, Note_on_c, 0, 61, 83
1, 336125, Note_on_c, 0, 64, 82
1, 336126, Control_c, 0, 64, 0
1, 336172, Note_off_c, 0, 61, 58
1, 336182, Note_off_c, 0, 32, 62
1, 336185, Note_off_c, 0, 69, 65
1, 336185, Control_c, 0, 64, 65
1, 336200, Control_c, 0, 64, 75
1, 336209, Note_off_c, 0, 64, 60
1, 336215, Control_c, 0, 64, 84
1, 336221, Note_on_c, 0, 30, 76
1, 336230, Control_c, 0, 64, 89
1, 336244, Control_c, 0, 64, 90
1, 336259, Control_c, 0, 64, 90
1, 336274, Control_c, 0, 64, 91
1, 336289, Control_c, 0, 64, 93
1, 336294, Note_off_c, 0, 30, 62
1, 336304, Control_c, 0, 64, 96
1, 336318, Control_c, 0, 64, 99
1, 336325, Note_on_c, 0, 28, 81
1, 336333, Control_c, 0, 64, 102
1, 336348, Control_c, 0, 64, 106
1, 336363, Control_c, 0, 64, 108
1, 336378, Control_c, 0, 64, 108
1, 336407, Control_c, 0, 64, 102
1, 336422, Control_c, 0, 64, 83
1, 336434, Note_on_c, 0, 40, 75
1, 336436, Note_on_c, 0, 64, 97
1, 336438, Control_c, 0, 64, 0
1, 336439, Note_on_c, 0, 57, 86
1, 336441, Note_on_c, 0, 33, 78
1, 336478, Note_off_c, 0, 28, 27
1, 336490, Note_off_c, 0, 57, 58
1, 336497, Control_c, 0, 64, 64
1, 336504, Note_off_c, 0, 33, 64
1, 336512, Control_c, 0, 64, 75
1, 336527, Control_c, 0, 64, 86
1, 336528, Note_off_c, 0, 64, 64
1, 336541, Control_c, 0, 64, 91
1, 336545, Note_on_c, 0, 32, 81
1, 336571, Control_c, 0, 64, 91
1, 336586, Control_c, 0, 64, 93
1, 336601, Control_c, 0, 64, 95
1, 336615, Control_c, 0, 64, 98
1, 336627, Note_off_c, 0, 32, 52
1, 336630, Control_c, 0, 64, 102
1, 336644, Note_on_c, 0, 30, 74
1, 336645, Control_c, 0, 64, 104
1, 336659, Control_c, 0, 64, 105
1, 336674, Control_c, 0, 64, 107
1, 336689, Control_c, 0, 64, 108
1, 336701, Note_off_c, 0, 30, 63
1, 336704, Control_c, 0, 64, 109
1, 336740, Note_on_c, 0, 71, 94
1, 336741, Note_on_c, 0, 59, 85
1, 336743, Note_on_c, 0, 64, 86
1, 336748, Note_on_c, 0, 32, 86
1, 336749, Control_c, 0, 64, 105
1, 336771, Control_c, 0, 64, 93
1, 336786, Control_c, 0, 64, 78
1, 336801, Control_c, 0, 64, 63
1, 336810, Note_off_c, 0, 32, 63
1, 336815, Control_c, 0, 64, 46
1, 336830, Control_c, 0, 64, 64
1, 336832, Note_off_c, 0, 59, 57
1, 336845, Control_c, 0, 64, 72
1, 336855, Note_off_c, 0, 71, 61
1, 336856, Note_on_c, 0, 30, 78
1, 336860, Control_c, 0, 64, 82
1, 336874, Control_c, 0, 64, 92
1, 336889, Control_c, 0, 64, 96
1, 336904, Control_c, 0, 64, 97
1, 336919, Control_c, 0, 64, 99
1, 336927, Note_off_c, 0, 40, 53
1, 336934, Control_c, 0, 64, 104
1, 336948, Control_c, 0, 64, 112
1, 336952, Note_on_c, 0, 28, 83
1, 336963, Control_c, 0, 64, 127
1, 336967, Note_off_c, 0, 30, 58
1, 337023, Note_off_c, 0, 64, 24
1, 337067, Note_on_c, 0, 64, 75
1, 337069, Note_on_c, 0, 73, 99
1, 337070, Note_on_c, 0, 40, 89
1, 337072, Note_on_c, 0, 61, 93
1, 337077, Note_on_c, 0, 33, 84
1, 337127, Control_c, 0, 64, 107
1, 337141, Control_c, 0, 64, 87
1, 337156, Control_c, 0, 64, 67
1, 337159, Note_off_c, 0, 28, 50
1, 337171, Control_c, 0, 64, 0
1, 337174, Note_off_c, 0, 33, 49
1, 337184, Note_on_c, 0, 32, 76
1, 337264, Note_off_c, 0, 32, 56
1, 337290, Note_on_c, 0, 30, 74
1, 337335, Control_c, 0, 64, 48
1, 337346, Note_off_c, 0, 30, 62
1, 337350, Control_c, 0, 64, 62
1, 337364, Control_c, 0, 64, 65
1, 337379, Control_c, 0, 64, 66
1, 337388, Note_on_c, 0, 32, 78
1, 337394, Control_c, 0, 64, 66
1, 337409, Control_c, 0, 64, 67
1, 337424, Control_c, 0, 64, 68
1, 337431, Note_off_c, 0, 32, 63
1, 337433, Note_off_c, 0, 61, 54
1, 337438, Control_c, 0, 64, 69
1, 337446, Note_off_c, 0, 64, 61
1, 337453, Control_c, 0, 64, 70
1, 337486, Note_on_c, 0, 30, 71
1, 337520, Control_c, 0, 64, 70
1, 337535, Control_c, 0, 64, 71
1, 337550, Control_c, 0, 64, 72
1, 337564, Control_c, 0, 64, 74
1, 337579, Control_c, 0, 64, 76
1, 337594, Control_c, 0, 64, 78
1, 337595, Note_on_c, 0, 28, 72
1, 337607, Note_off_c, 0, 30, 36
1, 337608, Control_c, 0, 64, 80
1, 337623, Control_c, 0, 64, 80
1, 337665, Note_off_c, 0, 73, 54
1, 337688, Note_off_c, 0, 40, 0
1, 337688, Note_on_c, 0, 40, 20
1, 337694, Note_on_c, 0, 69, 82
1, 337696, Note_on_c, 0, 61, 84
1, 337697, Control_c, 0, 64, 81
1, 337698, Note_on_c, 0, 33, 79
1, 337707, Note_on_c, 0, 64, 61
1, 337726, Note_off_c, 0, 64, 64
1, 337727, Control_c, 0, 64, 81
1, 337734, Note_off_c, 0, 28, 60
1, 337742, Control_c, 0, 64, 82
1, 337744, Note_off_c, 0, 69, 62
1, 337757, Control_c, 0, 64, 83
1, 337761, Note_off_c, 0, 33, 63
1, 337763, Note_off_c, 0, 61, 59
1, 337771, Control_c, 0, 64, 83
1, 337786, Control_c, 0, 64, 84
1, 337801, Control_c, 0, 64, 84
1, 337802, Note_on_c, 0, 32, 80
1, 337876, Note_off_c, 0, 32, 54
1, 337910, Note_on_c, 0, 30, 77
1, 337967, Note_off_c, 0, 30, 62
1, 337994, Note_on_c, 0, 64, 76
1, 338000, Note_on_c, 0, 57, 67
1, 338009, Note_on_c, 0, 32, 85
1, 338023, Control_c, 0, 64, 83
1, 338024, Note_on_c, 0, 61, 53
1, 338030, Note_off_c, 0, 57, 64
1, 338039, Control_c, 0, 64, 79
1, 338048, Note_off_c, 0, 64, 62
1, 338049, Note_off_c, 0, 61, 57
1, 338054, Control_c, 0, 64, 73
1, 338057, Note_off_c, 0, 32, 64
1, 338069, Control_c, 0, 64, 64
1, 338084, Control_c, 0, 64, 27
1, 338093, Note_on_c, 0, 69, 83
1, 338099, Note_on_c, 0, 30, 80
1, 338099, Control_c, 0, 64, 0
1, 338131, Note_off_c, 0, 69, 68
1, 338158, Note_off_c, 0, 40, 37
1, 338191, Note_on_c, 0, 28, 84
1, 338207, Note_on_c, 0, 64, 79
1, 338208, Note_on_c, 0, 73, 75
1, 338225, Note_off_c, 0, 30, 61
1, 338236, Note_off_c, 0, 73, 62
1, 338243, Note_off_c, 0, 64, 56
1, 338305, Note_on_c, 0, 64, 89
1, 338305, Note_on_c, 0, 76, 93
1, 338309, Note_on_c, 0, 73, 89
1, 338310, Note_on_c, 0, 40, 83
1, 338313, Note_on_c, 0, 33, 77
1, 338313, Note_on_c, 0, 69, 71
1, 338343, Control_c, 0, 64, 39
1, 338358, Control_c, 0, 64, 101
1, 338369, Note_off_c, 0, 64, 62
1, 338373, Control_c, 0, 64, 127
1, 338379, Note_off_c, 0, 28, 56
1, 338395, Note_off_c, 0, 76, 67
1, 338409, Note_off_c, 0, 33, 55
1, 338412, Note_off_c, 0, 69, 63
1, 338426, Note_on_c, 0, 32, 79
1, 338427, Note_off_c, 0, 73, 66
1, 338522, Note_off_c, 0, 32, 60
1, 338529, Note_on_c, 0, 30, 71
1, 338601, Note_off_c, 0, 30, 61
1, 338638, Note_on_c, 0, 32, 75
1, 338701, Note_off_c, 0, 32, 61
1, 338741, Note_on_c, 0, 30, 80
1, 338797, Note_off_c, 0, 40, 59
1, 338850, Note_off_c, 0, 30, 58
1, 338853, Note_on_c, 0, 28, 79
1, 338946, Note_on_c, 0, 76, 101
1, 338951, Note_on_c, 0, 64, 92
1, 338953, Note_on_c, 0, 71, 91
1, 338956, Note_on_c, 0, 40, 84
1, 338961, Note_on_c, 0, 33, 82
1, 338981, Control_c, 0, 64, 89
1, 338996, Control_c, 0, 64, 58
1, 339018, Control_c, 0, 64, 0
1, 339062, Control_c, 0, 64, 67
1, 339077, Control_c, 0, 64, 80
1, 339086, Note_off_c, 0, 28, 60
1, 339089, Note_on_c, 0, 32, 76
1, 339092, Control_c, 0, 64, 93
1, 339107, Control_c, 0, 64, 98
1, 339148, Note_off_c, 0, 33, 28
1, 339151, Control_c, 0, 64, 99
1, 339181, Control_c, 0, 64, 99
1, 339188, Note_off_c, 0, 32, 61
1, 339193, Note_on_c, 0, 30, 72
1, 339211, Control_c, 0, 64, 100
1, 339226, Control_c, 0, 64, 100
1, 339241, Control_c, 0, 64, 101
1, 339248, Note_off_c, 0, 71, 57
1, 339255, Control_c, 0, 64, 102
1, 339267, Note_off_c, 0, 76, 62
1, 339270, Control_c, 0, 64, 104
1, 339281, Note_off_c, 0, 64, 58
1, 339285, Note_on_c, 0, 32, 81
1, 339285, Control_c, 0, 64, 107
1, 339287, Note_off_c, 0, 30, 59
1, 339300, Control_c, 0, 64, 109
1, 339315, Control_c, 0, 64, 113
1, 339329, Control_c, 0, 64, 117
1, 339344, Control_c, 0, 64, 124
1, 339359, Control_c, 0, 64, 127
1, 339378, Note_off_c, 0, 32, 58
1, 339390, Note_on_c, 0, 30, 68
1, 339449, Note_on_c, 0, 76, 87
1, 339458, Note_on_c, 0, 64, 80
1, 339460, Note_on_c, 0, 71, 72
1, 339509, Note_on_c, 0, 28, 72
1, 339527, Note_off_c, 0, 40, 58
1, 339560, Note_off_c, 0, 76, 65
1, 339568, Note_off_c, 0, 64, 62
1, 339585, Note_off_c, 0, 30, 27
1, 339640, Note_on_c, 0, 40, 82
1, 339649, Note_on_c, 0, 33, 64
1, 339651, Note_on_c, 0, 76, 96
1, 339654, Note_on_c, 0, 64, 91
1, 339657, Note_on_c, 0, 69, 80
1, 339658, Note_off_c, 0, 71, 63
1, 339660, Note_on_c, 0, 73, 86
1, 339685, Control_c, 0, 64, 101
1, 339700, Control_c, 0, 64, 76
1, 339715, Control_c, 0, 64, 0
1, 339739, Note_off_c, 0, 33, 54
1, 339759, Note_on_c, 0, 32, 76
1, 339767, Control_c, 0, 64, 56
1, 339772, Note_off_c, 0, 28, 54
1, 339782, Control_c, 0, 64, 71
1, 339797, Control_c, 0, 64, 84
1, 339812, Control_c, 0, 64, 93
1, 339827, Control_c, 0, 64, 94
1, 339856, Control_c, 0, 64, 95
1, 339859, Note_on_c, 0, 30, 78
1, 339861, Note_off_c, 0, 32, 59
1, 339871, Control_c, 0, 64, 96
1, 339885, Control_c, 0, 64, 100
1, 339900, Control_c, 0, 64, 105
1, 339902, Note_off_c, 0, 64, 44
1, 339915, Control_c, 0, 64, 110
1, 339925, Note_off_c, 0, 30, 62
1, 339930, Control_c, 0, 64, 114
1, 339933, Note_off_c, 0, 76, 59
1, 339945, Control_c, 0, 64, 118
1, 339959, Control_c, 0, 64, 121
1, 339966, Note_on_c, 0, 32, 83
1, 339974, Control_c, 0, 64, 126
1, 339989, Control_c, 0, 64, 127
1, 340019, Note_off_c, 0, 32, 62
1, 340056, Note_on_c, 0, 30, 81
1, 340096, Note_off_c, 0, 73, 53
1, 340120, Note_off_c, 0, 30, 62
1, 340158, Note_on_c, 0, 28, 87
1, 340179, Note_off_c, 0, 40, 60
1, 340238, Note_off_c, 0, 69, 64
1, 340266, Note_on_c, 0, 40, 89
1, 340269, Note_on_c, 0, 76, 98
1, 340270, Note_on_c, 0, 64, 97
1, 340273, Note_on_c, 0, 33, 86
1, 340273, Note_on_c, 0, 71, 98
1, 340285, Control_c, 0, 64, 105
1, 340300, Control_c, 0, 64, 74
1, 340315, Control_c, 0, 64, 0
1, 340360, Control_c, 0, 64, 64
1, 340368, Note_off_c, 0, 28, 59
1, 340375, Control_c, 0, 64, 78
1, 340379, Note_off_c, 0, 33, 59
1, 340390, Control_c, 0, 64, 96
1, 340391, Note_on_c, 0, 32, 75
1, 340404, Control_c, 0, 64, 112
1, 340419, Control_c, 0, 64, 115
1, 340450, Control_c, 0, 64, 115
1, 340465, Control_c, 0, 64, 116
1, 340469, Note_off_c, 0, 32, 58
1, 340480, Control_c, 0, 64, 117
1, 340481, Note_on_c, 0, 30, 74
1, 340495, Control_c, 0, 64, 119
1, 340516, Note_off_c, 0, 76, 60
1, 340516, Control_c, 0, 64, 120
1, 340531, Control_c, 0, 64, 121
1, 340546, Control_c, 0, 64, 122
1, 340547, Note_off_c, 0, 64, 59
1, 340554, Note_off_c, 0, 30, 59
1, 340558, Note_off_c, 0, 71, 53
1, 340561, Control_c, 0, 64, 124
1, 340576, Control_c, 0, 64, 126
1, 340583, Note_on_c, 0, 32, 79
1, 340591, Control_c, 0, 64, 127
1, 340680, Note_on_c, 0, 30, 67
1, 340693, Note_off_c, 0, 32, 53
1, 340734, Note_on_c, 0, 76, 80
1, 340742, Note_on_c, 0, 64, 71
1, 340746, Note_on_c, 0, 71, 71
1, 340814, Note_on_c, 0, 28, 71
1, 340863, Note_off_c, 0, 76, 60
1, 340863, Note_off_c, 0, 40, 32
1, 340871, Note_off_c, 0, 64, 45
1, 340931, Control_c, 0, 64, 112
1, 340937, Note_on_c, 0, 40, 78
1, 340946, Control_c, 0, 64, 90
1, 340949, Note_on_c, 0, 33, 62
1, 340949, Note_on_c, 0, 64, 87
1, 340950, Note_on_c, 0, 76, 93
1, 340956, Note_on_c, 0, 69, 76
1, 340956, Note_off_c, 0, 30, 19
1, 340960, Note_on_c, 0, 73, 83
1, 340961, Control_c, 0, 64, 68
1, 340963, Note_off_c, 0, 71, 62
1, 340975, Control_c, 0, 64, 0
1, 341020, Control_c, 0, 64, 65
1, 341035, Control_c, 0, 64, 78
1, 341050, Control_c, 0, 64, 89
1, 341050, Note_on_c, 0, 32, 79
1, 341054, Note_off_c, 0, 33, 50
1, 341056, Note_off_c, 0, 28, 51
1, 341065, Control_c, 0, 64, 95
1, 341080, Control_c, 0, 64, 96
1, 341094, Control_c, 0, 64, 96
1, 341108, Control_c, 0, 64, 97
1, 341123, Control_c, 0, 64, 99
1, 341129, Note_off_c, 0, 64, 60
1, 341138, Control_c, 0, 64, 101
1, 341153, Note_on_c, 0, 30, 76
1, 341153, Control_c, 0, 64, 103
1, 341163, Note_off_c, 0, 32, 60
1, 341168, Control_c, 0, 64, 105
1, 341182, Control_c, 0, 64, 107
1, 341197, Note_off_c, 0, 76, 56
1, 341197, Control_c, 0, 64, 108
1, 341212, Control_c, 0, 64, 111
1, 341228, Control_c, 0, 64, 112
1, 341235, Note_off_c, 0, 73, 59
1, 341238, Note_off_c, 0, 30, 56
1, 341243, Control_c, 0, 64, 114
1, 341263, Note_off_c, 0, 69, 64
1, 341265, Control_c, 0, 64, 116
1, 341271, Note_on_c, 0, 32, 86
1, 341280, Control_c, 0, 64, 118
1, 341284, Note_on_c, 0, 64, 91
1, 341284, Note_on_c, 0, 76, 96
1, 341290, Note_on_c, 0, 71, 84
1, 341294, Control_c, 0, 64, 120
1, 341309, Control_c, 0, 64, 122
1, 341324, Control_c, 0, 64, 125
1, 341339, Control_c, 0, 64, 127
1, 341371, Note_on_c, 0, 30, 78
1, 341376, Note_off_c, 0, 32, 54
1, 341423, Note_off_c, 0, 76, 61
1, 341448, Note_off_c, 0, 30, 61
1, 341458, Note_off_c, 0, 64, 55
1, 341485, Note_on_c, 0, 28, 84
1, 341495, Note_off_c, 0, 40, 42
1, 341598, Note_on_c, 0, 40, 93
1, 341601, Note_on_c, 0, 76, 102
1, 341602, Note_on_c, 0, 64, 97
1, 341605, Control_c, 0, 64, 111
1, 341607, Note_on_c, 0, 33, 82
1, 341607, Note_on_c, 0, 69, 88
1, 341617, Note_on_c, 0, 73, 85
1, 341620, Control_c, 0, 64, 84
1, 341626, Note_off_c, 0, 71, 58
1, 341635, Control_c, 0, 64, 46
1, 341649, Control_c, 0, 64, 0
1, 341656, Note_off_c, 0, 28, 61
1, 341678, Note_off_c, 0, 33, 64
1, 341679, Control_c, 0, 64, 38
1, 341694, Control_c, 0, 64, 73
1, 341709, Control_c, 0, 64, 88
1, 341717, Note_on_c, 0, 32, 82
1, 341717, Note_off_c, 0, 64, 55
1, 341724, Control_c, 0, 64, 103
1, 341736, Note_off_c, 0, 76, 64
1, 341739, Control_c, 0, 64, 109
1, 341768, Control_c, 0, 64, 109
1, 341798, Control_c, 0, 64, 110
1, 341813, Control_c, 0, 64, 112
1, 341819, Note_on_c, 0, 30, 79
1, 341828, Control_c, 0, 64, 114
1, 341831, Note_off_c, 0, 32, 32
1, 341843, Control_c, 0, 64, 116
1, 341857, Control_c, 0, 64, 120
1, 341862, Note_off_c, 0, 73, 35
1, 341872, Control_c, 0, 64, 126
1, 341876, Note_off_c, 0, 30, 62
1, 341887, Control_c, 0, 64, 127
1, 341896, Note_off_c, 0, 69, 64
1, 341917, Note_on_c, 0, 32, 83
1, 341927, Note_on_c, 0, 76, 98
1, 341929, Note_on_c, 0, 64, 90
1, 341932, Note_on_c, 0, 71, 83
1, 341975, Note_off_c, 0, 64, 63
1, 342005, Poly_aftertouch_c, 0, 30, 127
1, 342021, Note_on_c, 0, 30, 37
1, 342024, Note_off_c, 0, 71, 61
1, 342038, Note_off_c, 0, 76, 64
1, 342049, Note_off_c, 0, 32, 64
1, 342059, Note_on_c, 0, 29, 64
1, 342064, Note_off_c, 0, 40, 61
1, 342090, Note_on_c, 0, 28, 45
1, 342122, Note_off_c, 0, 30, 57
1, 342136, Note_off_c, 0, 29, 62
1, 342162, Note_off_c, 0, 28, 61
1, 342231, Note_on_c, 0, 41, 103
1, 342232, Note_on_c, 0, 81, 97
1, 342233, Note_on_c, 0, 69, 93
1, 342234, Note_on_c, 0, 29, 100
1, 342239, Note_on_c, 0, 72, 83
1, 342240, Note_on_c, 0, 77, 75
1, 342258, Note_on_c, 0, 32, 53
1, 342266, Control_c, 0, 64, 95
1, 342269, Note_off_c, 0, 41, 69
1, 342272, Note_off_c, 0, 29, 63
1, 342280, Control_c, 0, 64, 60
1, 342285, Note_off_c, 0, 32, 62
1, 342295, Control_c, 0, 64, 0
1, 342335, Note_on_c, 0, 40, 102
1, 342344, Note_on_c, 0, 28, 89
1, 342369, Note_off_c, 0, 28, 67
1, 342375, Note_off_c, 0, 40, 66
1, 342439, Note_on_c, 0, 38, 101
1, 342445, Note_on_c, 0, 26, 91
1, 342471, Note_off_c, 0, 38, 66
1, 342474, Note_off_c, 0, 26, 70
1, 342543, Note_on_c, 0, 40, 99
1, 342549, Note_on_c, 0, 28, 86
1, 342579, Note_off_c, 0, 28, 67
1, 342583, Note_off_c, 0, 40, 66
1, 342644, Note_on_c, 0, 38, 92
1, 342648, Note_on_c, 0, 26, 85
1, 342677, Note_off_c, 0, 38, 67
1, 342680, Note_off_c, 0, 26, 66
1, 342743, Note_on_c, 0, 36, 88
1, 342751, Note_on_c, 0, 24, 88
1, 342777, Note_off_c, 0, 24, 63
1, 342778, Note_off_c, 0, 36, 67
1, 342850, Note_on_c, 0, 41, 103
1, 342853, Note_on_c, 0, 29, 94
1, 342886, Note_off_c, 0, 29, 66
1, 342890, Note_off_c, 0, 41, 67
1, 342929, Note_off_c, 0, 81, 61
1, 342947, Note_on_c, 0, 40, 91
1, 342952, Note_on_c, 0, 28, 83
1, 342953, Note_off_c, 0, 77, 62
1, 342958, Note_off_c, 0, 69, 62
1, 342976, Note_off_c, 0, 72, 67
1, 342980, Note_off_c, 0, 40, 67
1, 342982, Note_off_c, 0, 28, 63
1, 343047, Note_on_c, 0, 38, 89
1, 343053, Note_on_c, 0, 26, 82
1, 343077, Note_off_c, 0, 38, 68
1, 343077, Note_off_c, 0, 26, 65
1, 343146, Note_on_c, 0, 40, 96
1, 343155, Note_on_c, 0, 28, 78
1, 343175, Note_off_c, 0, 40, 67
1, 343182, Note_off_c, 0, 28, 63
1, 343244, Note_on_c, 0, 38, 88
1, 343250, Note_on_c, 0, 26, 75
1, 343276, Note_off_c, 0, 26, 64
1, 343278, Note_off_c, 0, 38, 66
1, 343281, Control_c, 0, 64, 61
1, 343295, Control_c, 0, 64, 70
1, 343310, Control_c, 0, 64, 80
1, 343325, Control_c, 0, 64, 93
1, 343341, Control_c, 0, 64, 101
1, 343347, Note_on_c, 0, 36, 86
1, 343350, Note_on_c, 0, 24, 84
1, 343356, Control_c, 0, 64, 107
1, 343371, Control_c, 0, 64, 113
1, 343376, Note_off_c, 0, 36, 68
1, 343377, Note_off_c, 0, 24, 62
1, 343385, Control_c, 0, 64, 122
1, 343400, Note_on_c, 0, 57, 90
1, 343400, Control_c, 0, 64, 127
1, 343413, Note_on_c, 0, 53, 71
1, 343418, Note_off_c, 0, 57, 72
1, 343439, Note_off_c, 0, 53, 68
1, 343464, Note_on_c, 0, 41, 95
1, 343465, Note_on_c, 0, 57, 100
1, 343466, Note_on_c, 0, 29, 89
1, 343474, Control_c, 0, 64, 114
1, 343475, Note_on_c, 0, 53, 89
1, 343489, Control_c, 0, 64, 93
1, 343509, Note_off_c, 0, 41, 64
1, 343511, Control_c, 0, 64, 73
1, 343512, Note_off_c, 0, 29, 64
1, 343526, Control_c, 0, 64, 0
1, 343581, Note_on_c, 0, 40, 81
1, 343587, Note_on_c, 0, 28, 77
1, 343613, Note_off_c, 0, 28, 63
1, 343616, Note_off_c, 0, 40, 67
1, 343688, Note_on_c, 0, 26, 77
1, 343690, Note_on_c, 0, 38, 77
1, 343712, Note_off_c, 0, 26, 66
1, 343717, Note_off_c, 0, 38, 66
1, 343791, Note_on_c, 0, 40, 93
1, 343795, Note_on_c, 0, 28, 79
1, 343820, Note_off_c, 0, 40, 67
1, 343827, Note_off_c, 0, 28, 65
1, 343867, Control_c, 0, 64, 52
1, 343882, Control_c, 0, 64, 64
1, 343889, Note_on_c, 0, 38, 84
1, 343895, Note_on_c, 0, 26, 72
1, 343897, Control_c, 0, 64, 70
1, 343912, Control_c, 0, 64, 76
1, 343916, Note_on_c, 0, 28, 38
1, 343921, Note_off_c, 0, 38, 64
1, 343924, Note_off_c, 0, 26, 64
1, 343927, Control_c, 0, 64, 83
1, 343941, Note_off_c, 0, 53, 55
1, 343941, Control_c, 0, 64, 89
1, 343953, Note_off_c, 0, 28, 55
1, 343956, Control_c, 0, 64, 92
1, 343971, Control_c, 0, 64, 94
1, 343986, Control_c, 0, 64, 96
1, 343988, Note_on_c, 0, 24, 91
1, 343988, Note_on_c, 0, 36, 84
1, 344001, Control_c, 0, 64, 101
1, 344016, Control_c, 0, 64, 107
1, 344016, Note_off_c, 0, 36, 67
1, 344019, Note_off_c, 0, 24, 64
1, 344020, Note_off_c, 0, 57, 57
1, 344031, Control_c, 0, 64, 115
1, 344045, Control_c, 0, 64, 119
1, 344075, Control_c, 0, 64, 117
1, 344090, Control_c, 0, 64, 102
1, 344096, Note_on_c, 0, 57, 99
1, 344099, Note_on_c, 0, 41, 97
1, 344099, Note_on_c, 0, 53, 89
1, 344102, Note_on_c, 0, 29, 88
1, 344105, Control_c, 0, 64, 85
1, 344119, Control_c, 0, 64, 64
1, 344133, Note_off_c, 0, 29, 69
1, 344134, Control_c, 0, 64, 0
1, 344138, Note_off_c, 0, 41, 65
1, 344203, Note_on_c, 0, 40, 91
1, 344207, Note_on_c, 0, 28, 83
1, 344235, Note_off_c, 0, 40, 67
1, 344237, Note_off_c, 0, 28, 63
1, 344316, Note_on_c, 0, 38, 90
1, 344318, Note_on_c, 0, 26, 83
1, 344343, Note_off_c, 0, 26, 65
1, 344344, Note_off_c, 0, 38, 67
1, 344410, Note_on_c, 0, 40, 94
1, 344415, Note_on_c, 0, 28, 89
1, 344446, Note_off_c, 0, 40, 65
1, 344448, Note_off_c, 0, 28, 66
1, 344511, Note_on_c, 0, 38, 91
1, 344515, Note_on_c, 0, 26, 77
1, 344544, Note_off_c, 0, 53, 57
1, 344546, Note_off_c, 0, 38, 67
1, 344550, Note_off_c, 0, 26, 67
1, 344612, Note_on_c, 0, 36, 79
1, 344613, Note_on_c, 0, 24, 85
1, 344637, Note_off_c, 0, 36, 66
1, 344639, Note_off_c, 0, 24, 63
1, 344654, Note_off_c, 0, 57, 55
1, 344698, Note_on_c, 0, 60, 93
1, 344700, Note_on_c, 0, 53, 88
1, 344700, Note_on_c, 0, 57, 80
1, 344708, Note_on_c, 0, 41, 97
1, 344711, Note_on_c, 0, 29, 90
1, 344722, Note_off_c, 0, 53, 73
1, 344722, Note_off_c, 0, 57, 70
1, 344737, Note_off_c, 0, 60, 62
1, 344746, Note_off_c, 0, 41, 67
1, 344751, Note_off_c, 0, 29, 63
1, 344815, Note_on_c, 0, 40, 88
1, 344819, Note_on_c, 0, 28, 72
1, 344849, Note_off_c, 0, 40, 66
1, 344854, Note_off_c, 0, 28, 64
1, 344925, Note_on_c, 0, 38, 85
1, 344929, Note_on_c, 0, 26, 80
1, 344935, Note_on_c, 0, 53, 81
1, 344955, Note_off_c, 0, 26, 64
1, 344956, Note_off_c, 0, 38, 65
1, 344964, Note_off_c, 0, 53, 69
1, 345019, Note_on_c, 0, 57, 91
1, 345021, Note_on_c, 0, 53, 79
1, 345034, Note_on_c, 0, 40, 93
1, 345038, Note_on_c, 0, 28, 84
1, 345066, Note_off_c, 0, 40, 67
1, 345069, Note_off_c, 0, 28, 66
1, 345135, Note_on_c, 0, 38, 89
1, 345142, Note_on_c, 0, 26, 78
1, 345165, Note_off_c, 0, 26, 66
1, 345165, Note_off_c, 0, 38, 67
1, 345235, Note_on_c, 0, 24, 84
1, 345237, Note_on_c, 0, 36, 82
1, 345262, Note_off_c, 0, 24, 63
1, 345263, Note_off_c, 0, 36, 65
1, 345331, Note_on_c, 0, 41, 103
1, 345331, Note_on_c, 0, 29, 91
1, 345364, Note_off_c, 0, 29, 67
1, 345364, Control_c, 0, 64, 18
1, 345367, Note_off_c, 0, 41, 65
1, 345378, Control_c, 0, 64, 33
1, 345383, Note_off_c, 0, 53, 58
1, 345393, Control_c, 0, 64, 38
1, 345408, Control_c, 0, 64, 40
1, 345423, Control_c, 0, 64, 42
1, 345427, Note_on_c, 0, 40, 90
1, 345435, Note_on_c, 0, 28, 81
1, 345438, Control_c, 0, 64, 46
1, 345448, Note_off_c, 0, 57, 58
1, 345453, Control_c, 0, 64, 50
1, 345460, Note_off_c, 0, 28, 64
1, 345460, Note_off_c, 0, 40, 66
1, 345468, Control_c, 0, 64, 54
1, 345483, Control_c, 0, 64, 57
1, 345497, Control_c, 0, 64, 58
1, 345536, Note_on_c, 0, 53, 83
1, 345539, Note_on_c, 0, 38, 93
1, 345542, Control_c, 0, 64, 58
1, 345546, Note_on_c, 0, 26, 83
1, 345557, Control_c, 0, 64, 59
1, 345567, Note_off_c, 0, 38, 70
1, 345571, Control_c, 0, 64, 59
1, 345574, Note_off_c, 0, 26, 64
1, 345575, Note_off_c, 0, 53, 68
1, 345581, Note_on_c, 0, 27, 22
1, 345582, Note_off_c, 0, 27, 127
1, 345601, Control_c, 0, 64, 60
1, 345615, Control_c, 0, 64, 62
1, 345630, Note_on_c, 0, 57, 85
1, 345630, Control_c, 0, 64, 64
1, 345632, Note_on_c, 0, 53, 77
1, 345637, Note_on_c, 0, 40, 100
1, 345645, Control_c, 0, 64, 68
1, 345646, Note_on_c, 0, 28, 82
1, 345660, Control_c, 0, 64, 72
1, 345672, Note_off_c, 0, 40, 65
1, 345675, Control_c, 0, 64, 77
1, 345679, Note_off_c, 0, 28, 65
1, 345681, Note_off_c, 0, 57, 58
1, 345689, Control_c, 0, 64, 83
1, 345695, Note_off_c, 0, 53, 56
1, 345704, Control_c, 0, 64, 88
1, 345719, Poly_aftertouch_c, 0, 30, 127
1, 345719, Control_c, 0, 64, 92
1, 345734, Control_c, 0, 64, 95
1, 345738, Poly_aftertouch_c, 0, 30, 0
1, 345750, Note_on_c, 0, 38, 95
1, 345757, Note_on_c, 0, 26, 86
1, 345757, Control_c, 0, 64, 97
1, 345771, Control_c, 0, 64, 100
1, 345786, Control_c, 0, 64, 103
1, 345790, Note_off_c, 0, 26, 65
1, 345792, Note_off_c, 0, 38, 64
1, 345801, Control_c, 0, 64, 107
1, 345816, Note_on_c, 0, 28, 2
1, 345816, Control_c, 0, 64, 112
1, 345817, Poly_aftertouch_c, 0, 30, 0
1, 345830, Poly_aftertouch_c, 0, 53, 127
1, 345830, Control_c, 0, 64, 119
1, 345837, Note_off_c, 0, 28, 55
1, 345845, Control_c, 0, 64, 127
1, 345857, Note_on_c, 0, 60, 89
1, 345859, Note_on_c, 0, 36, 100
1, 345862, Note_on_c, 0, 24, 97
1, 345877, Poly_aftertouch_c, 0, 53, 0
1, 345886, Note_off_c, 0, 36, 67
1, 345892, Note_off_c, 0, 24, 63
1, 345904, Control_c, 0, 64, 108
1, 345909, Note_on_c, 0, 57, 20
1, 345909, Note_off_c, 0, 60, 65
1, 345919, Control_c, 0, 64, 84
1, 345924, Note_off_c, 0, 57, 0
1, 345934, Control_c, 0, 64, 42
1, 345937, Poly_aftertouch_c, 0, 25, 0
1, 345938, Note_on_c, 0, 57, 53
1, 345946, Note_on_c, 0, 65, 90
1, 345948, Control_c, 0, 64, 0
1, 345955, Note_on_c, 0, 41, 107
1, 345958, Note_on_c, 0, 29, 88
1, 345965, Note_off_c, 0, 57, 67
1, 345980, Note_on_c, 0, 32, 57
1, 345980, Note_off_c, 0, 65, 68
1, 345985, Note_on_c, 0, 34, 47
1, 345986, Note_off_c, 0, 34, 127
1, 345995, Note_off_c, 0, 29, 62
1, 345995, Note_off_c, 0, 41, 65
1, 346015, Note_off_c, 0, 32, 56
1, 346056, Note_on_c, 0, 40, 94
1, 346064, Note_on_c, 0, 28, 77
1, 346097, Note_off_c, 0, 40, 64
1, 346101, Note_off_c, 0, 28, 60
1, 346170, Note_on_c, 0, 57, 91
1, 346175, Note_on_c, 0, 38, 95
1, 346177, Note_on_c, 0, 53, 77
1, 346178, Note_on_c, 0, 26, 88
1, 346199, Note_off_c, 0, 57, 64
1, 346201, Note_off_c, 0, 53, 71
1, 346204, Note_off_c, 0, 38, 68
1, 346207, Note_off_c, 0, 26, 69
1, 346260, Note_on_c, 0, 60, 94
1, 346261, Note_on_c, 0, 57, 81
1, 346262, Note_on_c, 0, 53, 89
1, 346270, Note_on_c, 0, 40, 104
1, 346274, Note_on_c, 0, 28, 93
1, 346305, Note_off_c, 0, 28, 67
1, 346310, Note_off_c, 0, 40, 64
1, 346373, Note_on_c, 0, 38, 92
1, 346380, Note_on_c, 0, 26, 80
1, 346402, Note_off_c, 0, 26, 67
1, 346407, Note_off_c, 0, 38, 63
1, 346415, Note_on_c, 0, 27, 20
1, 346416, Note_off_c, 0, 27, 127
1, 346466, Note_on_c, 0, 24, 89
1, 346467, Note_on_c, 0, 36, 89
1, 346502, Note_off_c, 0, 24, 63
1, 346502, Note_off_c, 0, 36, 65
1, 346506, Control_c, 0, 64, 64
1, 346520, Control_c, 0, 64, 67
1, 346535, Control_c, 0, 64, 66
1, 346550, Control_c, 0, 64, 65
1, 346565, Control_c, 0, 64, 64
1, 346569, Note_on_c, 0, 41, 103
1, 346571, Note_on_c, 0, 29, 88
1, 346580, Control_c, 0, 64, 64
1, 346597, Note_on_c, 0, 32, 45
1, 346597, Note_on_c, 0, 31, 47
1, 346602, Note_on_c, 0, 34, 39
1, 346603, Note_off_c, 0, 34, 127
1, 346608, Note_off_c, 0, 41, 64
1, 346609, Note_off_c, 0, 29, 65
1, 346624, Control_c, 0, 64, 64
1, 346633, Note_off_c, 0, 32, 51
1, 346636, Note_off_c, 0, 31, 34
1, 346639, Control_c, 0, 64, 65
1, 346646, Note_off_c, 0, 57, 47
1, 346654, Control_c, 0, 64, 65
1, 346669, Control_c, 0, 64, 67
1, 346676, Note_on_c, 0, 40, 96
1, 346684, Control_c, 0, 64, 68
1, 346685, Note_on_c, 0, 28, 79
1, 346690, Note_off_c, 0, 60, 53
1, 346699, Control_c, 0, 64, 69
1, 346699, Note_off_c, 0, 53, 48
1, 346708, Note_off_c, 0, 40, 66
1, 346713, Note_off_c, 0, 28, 61
1, 346714, Control_c, 0, 64, 71
1, 346728, Control_c, 0, 64, 72
1, 346743, Control_c, 0, 64, 73
1, 346758, Control_c, 0, 64, 75
1, 346767, Note_on_c, 0, 57, 81
1, 346772, Control_c, 0, 64, 78
1, 346787, Control_c, 0, 64, 82
1, 346788, Note_on_c, 0, 53, 56
1, 346791, Note_on_c, 0, 38, 96
1, 346795, Note_on_c, 0, 26, 88
1, 346802, Control_c, 0, 64, 85
1, 346812, Note_off_c, 0, 53, 64
1, 346818, Control_c, 0, 64, 89
1, 346818, Note_off_c, 0, 57, 63
1, 346821, Note_off_c, 0, 38, 68
1, 346824, Note_off_c, 0, 26, 65
1, 346833, Control_c, 0, 64, 90
1, 346848, Control_c, 0, 64, 92
1, 346863, Control_c, 0, 64, 95
1, 346866, Note_on_c, 0, 60, 88
1, 346877, Note_on_c, 0, 53, 71
1, 346877, Control_c, 0, 64, 98
1, 346886, Note_on_c, 0, 40, 94
1, 346892, Control_c, 0, 64, 101
1, 346896, Note_on_c, 0, 28, 77
1, 346901, Note_off_c, 0, 53, 68
1, 346907, Control_c, 0, 64, 106
1, 346920, Note_off_c, 0, 40, 63
1, 346920, Note_off_c, 0, 60, 60
1, 346922, Control_c, 0, 64, 112
1, 346924, Note_off_c, 0, 28, 63
1, 346937, Control_c, 0, 64, 119
1, 346951, Control_c, 0, 64, 127
1, 346965, Poly_aftertouch_c, 0, 30, 0
1, 346977, Poly_aftertouch_c, 0, 29, 127
1, 346981, Note_on_c, 0, 38, 90
1, 346988, Note_on_c, 0, 26, 80
1, 347015, Poly_aftertouch_c, 0, 29, 0
1, 347021, Note_off_c, 0, 26, 65
1, 347027, Note_off_c, 0, 38, 61
1, 347044, Poly_aftertouch_c, 0, 30, 0
1, 347080, Note_on_c, 0, 60, 86
1, 347080, Note_on_c, 0, 65, 88
1, 347083, Note_on_c, 0, 57, 74
1, 347086, Poly_aftertouch_c, 0, 28, 0
1, 347091, Note_on_c, 0, 36, 90
1, 347093, Note_on_c, 0, 24, 87
1, 347110, Note_off_c, 0, 57, 65
1, 347116, Note_off_c, 0, 24, 66
1, 347117, Note_off_c, 0, 36, 66
1, 347118, Note_off_c, 0, 60, 57
1, 347125, Note_off_c, 0, 65, 64
1, 347128, Control_c, 0, 64, 92
1, 347143, Control_c, 0, 64, 63
1, 347158, Control_c, 0, 64, 0
1, 347158, Poly_aftertouch_c, 0, 25, 0
1, 347163, Note_on_c, 0, 69, 96
1, 347164, Note_on_c, 0, 57, 90
1, 347164, Note_on_c, 0, 60, 86
1, 347184, Note_on_c, 0, 41, 107
1, 347187, Note_on_c, 0, 29, 95
1, 347187, Note_off_c, 0, 60, 65
1, 347188, Control_c, 0, 64, 64
1, 347200, Note_off_c, 0, 69, 67
1, 347202, Control_c, 0, 64, 79
1, 347208, Note_off_c, 0, 57, 61
1, 347217, Control_c, 0, 64, 99
1, 347225, Note_off_c, 0, 41, 67
1, 347228, Note_off_c, 0, 29, 63
1, 347232, Control_c, 0, 64, 120
1, 347254, Control_c, 0, 64, 121
1, 347291, Note_on_c, 0, 40, 97
1, 347297, Note_on_c, 0, 28, 81
1, 347320, Poly_aftertouch_c, 0, 31, 0
1, 347333, Note_on_c, 0, 30, 33
1, 347337, Note_off_c, 0, 40, 65
1, 347337, Note_off_c, 0, 28, 61
1, 347378, Note_off_c, 0, 30, 43
1, 347395, Note_on_c, 0, 53, 85
1, 347401, Note_on_c, 0, 38, 97
1, 347403, Note_on_c, 0, 57, 76
1, 347404, Note_on_c, 0, 26, 88
1, 347405, Note_on_c, 0, 60, 79
1, 347432, Note_off_c, 0, 57, 64
1, 347432, Control_c, 0, 64, 122
1, 347432, Note_off_c, 0, 38, 65
1, 347435, Note_on_c, 0, 27, 41
1, 347437, Note_off_c, 0, 26, 70
1, 347438, Note_off_c, 0, 53, 65
1, 347447, Control_c, 0, 64, 123
1, 347462, Control_c, 0, 64, 125
1, 347465, Note_off_c, 0, 60, 60
1, 347471, Note_off_c, 0, 27, 56
1, 347476, Control_c, 0, 64, 127
1, 347487, Note_on_c, 0, 65, 92
1, 347504, Note_on_c, 0, 40, 101
1, 347510, Note_on_c, 0, 28, 92
1, 347525, Note_on_c, 0, 57, 24
1, 347530, Note_on_c, 0, 30, 58
1, 347541, Note_off_c, 0, 65, 67
1, 347544, Note_off_c, 0, 57, 59
1, 347546, Note_on_c, 0, 29, 34
1, 347547, Note_off_c, 0, 29, 127
1, 347547, Note_off_c, 0, 40, 65
1, 347550, Note_on_c, 0, 32, 22
1, 347550, Note_off_c, 0, 28, 60
1, 347566, Note_off_c, 0, 30, 50
1, 347600, Note_off_c, 0, 32, 46
1, 347606, Note_on_c, 0, 38, 99
1, 347616, Note_on_c, 0, 26, 82
1, 347650, Note_on_c, 0, 28, 38
1, 347653, Note_off_c, 0, 26, 68
1, 347653, Note_off_c, 0, 38, 63
1, 347662, Note_on_c, 0, 30, 18
1, 347668, Note_off_c, 0, 28, 71
1, 347711, Note_on_c, 0, 69, 100
1, 347712, Note_off_c, 0, 30, 40
1, 347712, Note_on_c, 0, 60, 87
1, 347714, Note_on_c, 0, 65, 92
1, 347718, Note_on_c, 0, 24, 99
1, 347718, Note_on_c, 0, 36, 96
1, 347744, Control_c, 0, 64, 84
1, 347745, Note_off_c, 0, 36, 67
1, 347746, Note_off_c, 0, 24, 68
1, 347748, Note_on_c, 0, 25, 42
1, 347748, Note_off_c, 0, 65, 60
1, 347753, Note_off_c, 0, 60, 63
1, 347757, Note_off_c, 0, 69, 67
1, 347759, Control_c, 0, 64, 0
1, 347765, Note_off_c, 0, 25, 45
1, 347802, Note_on_c, 0, 60, 97
1, 347803, Control_c, 0, 64, 77
1, 347804, Note_on_c, 0, 72, 101
1, 347808, Note_on_c, 0, 69, 90
1, 347817, Control_c, 0, 64, 92
1, 347818, Note_on_c, 0, 65, 67
1, 347823, Note_on_c, 0, 41, 109
1, 347826, Note_on_c, 0, 29, 94
1, 347832, Control_c, 0, 64, 104
1, 347835, Note_off_c, 0, 65, 68
1, 347847, Control_c, 0, 64, 108
1, 347862, Control_c, 0, 64, 117
1, 347864, Note_off_c, 0, 29, 63
1, 347864, Note_off_c, 0, 41, 66
1, 347865, Note_off_c, 0, 60, 60
1, 347877, Control_c, 0, 64, 127
1, 347879, Note_off_c, 0, 69, 65
1, 347918, Note_off_c, 0, 72, 56
1, 347929, Note_on_c, 0, 40, 103
1, 347936, Note_on_c, 0, 28, 88
1, 347960, Note_on_c, 0, 30, 48
1, 347966, Note_off_c, 0, 28, 66
1, 347971, Note_off_c, 0, 40, 65
1, 348008, Note_off_c, 0, 30, 46
1, 348054, Note_on_c, 0, 38, 104
1, 348056, Note_on_c, 0, 26, 95
1, 348077, Note_on_c, 0, 27, 61
1, 348088, Note_off_c, 0, 26, 63
1, 348096, Note_off_c, 0, 38, 61
1, 348109, Note_off_c, 0, 27, 56
1, 348154, Note_on_c, 0, 65, 103
1, 348155, Note_on_c, 0, 77, 103
1, 348157, Note_on_c, 0, 69, 106
1, 348162, Note_on_c, 0, 72, 93
1, 348168, Note_on_c, 0, 40, 108
1, 348173, Note_on_c, 0, 28, 94
1, 348195, Note_on_c, 0, 30, 54
1, 348208, Note_on_c, 0, 32, 27
1, 348210, Note_off_c, 0, 28, 58
1, 348210, Note_off_c, 0, 40, 65
1, 348231, Note_off_c, 0, 30, 52
1, 348249, Note_off_c, 0, 65, 62
1, 348255, Note_off_c, 0, 69, 60
1, 348256, Note_off_c, 0, 32, 44
1, 348291, Note_off_c, 0, 72, 64
1, 348300, Note_on_c, 0, 38, 94
1, 348304, Note_on_c, 0, 26, 84
1, 348316, Note_off_c, 0, 77, 61
1, 348317, Note_on_c, 0, 30, 55
1, 348332, Note_off_c, 0, 38, 66
1, 348337, Note_off_c, 0, 26, 65
1, 348341, Note_on_c, 0, 40, 38
1, 348347, Note_off_c, 0, 30, 54
1, 348371, Note_off_c, 0, 40, 47
1, 348376, Poly_aftertouch_c, 0, 28, 127
1, 348390, Poly_aftertouch_c, 0, 28, 0
1, 348406, Note_on_c, 0, 36, 98
1, 348410, Note_on_c, 0, 24, 91
1, 348439, Note_off_c, 0, 36, 67
1, 348441, Note_off_c, 0, 24, 61
1, 348446, Note_on_c, 0, 25, 27
1, 348488, Note_off_c, 0, 25, 40
1, 348508, Control_c, 0, 64, 108
1, 348522, Control_c, 0, 64, 93
1, 348523, Note_on_c, 0, 67, 103
1, 348523, Note_on_c, 0, 79, 106
1, 348525, Note_on_c, 0, 70, 76
1, 348530, Note_on_c, 0, 75, 86
1, 348532, Note_on_c, 0, 39, 110
1, 348535, Note_on_c, 0, 71, 85
1, 348536, Note_on_c, 0, 27, 86
1, 348537, Control_c, 0, 64, 69
1, 348545, Note_on_c, 0, 76, 78
1, 348552, Control_c, 0, 64, 0
1, 348553, Note_on_c, 0, 37, 66
1, 348554, Note_off_c, 0, 37, 127
1, 348559, Note_on_c, 0, 30, 55
1, 348562, Note_on_c, 0, 28, 41
1, 348563, Note_on_c, 0, 32, 41
1, 348564, Note_off_c, 0, 32, 127
1, 348568, Note_off_c, 0, 75, 0
1, 348568, Note_on_c, 0, 75, 42
1, 348582, Control_c, 0, 64, 71
1, 348585, Note_off_c, 0, 39, 62
1, 348589, Note_off_c, 0, 30, 55
1, 348590, Note_off_c, 0, 28, 56
1, 348591, Note_off_c, 0, 27, 63
1, 348596, Control_c, 0, 64, 89
1, 348611, Control_c, 0, 64, 127
1, 348626, Control_c, 0, 64, 127
1, 348654, Note_off_c, 0, 70, 21
1, 348665, Note_off_c, 0, 71, 56
1, 348672, Note_on_c, 0, 38, 97
1, 348677, Note_on_c, 0, 26, 89
1, 348699, Note_off_c, 0, 76, 29
1, 348709, Note_on_c, 0, 27, 40
1, 348714, Note_off_c, 0, 26, 66
1, 348716, Note_off_c, 0, 38, 62
1, 348748, Note_off_c, 0, 27, 52
1, 348797, Note_on_c, 0, 36, 97
1, 348799, Note_on_c, 0, 24, 95
1, 348818, Note_on_c, 0, 27, 54
1, 348837, Note_off_c, 0, 36, 65
1, 348839, Note_off_c, 0, 24, 63
1, 348842, Note_off_c, 0, 27, 66
1, 348885, Control_c, 0, 64, 123
1, 348900, Control_c, 0, 64, 111
1, 348907, Note_on_c, 0, 38, 92
1, 348914, Note_on_c, 0, 26, 85
1, 348915, Control_c, 0, 64, 104
1, 348929, Control_c, 0, 64, 100
1, 348938, Note_off_c, 0, 38, 64
1, 348944, Note_off_c, 0, 26, 67
1, 348944, Control_c, 0, 64, 97
1, 348946, Note_on_c, 0, 27, 13
1, 348959, Control_c, 0, 64, 94
1, 348973, Control_c, 0, 64, 91
1, 348985, Note_off_c, 0, 27, 40
1, 348988, Control_c, 0, 64, 89
1, 348991, Poly_aftertouch_c, 0, 70, 127
1, 349012, Note_on_c, 0, 36, 87
1, 349018, Note_on_c, 0, 24, 86
1, 349036, Note_off_c, 0, 36, 63
1, 349046, Note_off_c, 0, 24, 64
1, 349047, Note_on_c, 0, 25, 34
1, 349048, Note_on_c, 0, 29, 43
1, 349063, Control_c, 0, 64, 89
1, 349065, Note_on_c, 0, 35, 12
1, 349089, Note_off_c, 0, 29, 49
1, 349090, Note_off_c, 0, 25, 40
1, 349104, Note_on_c, 0, 34, 93
1, 349110, Note_on_c, 0, 22, 84
1, 349110, Note_off_c, 0, 35, 44
1, 349128, Note_off_c, 0, 34, 69
1, 349137, Control_c, 0, 64, 87
1, 349141, Note_off_c, 0, 22, 61
1, 349152, Control_c, 0, 64, 80
1, 349166, Control_c, 0, 64, 67
1, 349181, Control_c, 0, 64, 0
1, 349199, Poly_aftertouch_c, 0, 24, 0
1, 349204, Note_on_c, 0, 39, 104
1, 349208, Note_on_c, 0, 27, 81
1, 349229, Note_on_c, 0, 28, 60
1, 349238, Note_on_c, 0, 29, 38
1, 349250, Note_off_c, 0, 27, 61
1, 349250, Note_off_c, 0, 39, 60
1, 349260, Note_off_c, 0, 28, 54
1, 349286, Control_c, 0, 64, 14
1, 349287, Note_off_c, 0, 29, 45
1, 349301, Control_c, 0, 64, 50
1, 349312, Note_on_c, 0, 38, 91
1, 349316, Control_c, 0, 64, 57
1, 349317, Note_on_c, 0, 26, 84
1, 349331, Control_c, 0, 64, 60
1, 349331, Note_on_c, 0, 70, 3
1, 349345, Control_c, 0, 64, 64
1, 349346, Note_off_c, 0, 79, 63
1, 349350, Note_off_c, 0, 38, 64
1, 349352, Note_off_c, 0, 26, 64
1, 349360, Control_c, 0, 64, 66
1, 349375, Control_c, 0, 64, 69
1, 349381, Note_off_c, 0, 67, 61
1, 349388, Note_off_c, 0, 75, 63
1, 349389, Control_c, 0, 64, 74
1, 349404, Note_off_c, 0, 70, 62
1, 349404, Control_c, 0, 64, 80
1, 349419, Control_c, 0, 64, 88
1, 349426, Note_on_c, 0, 36, 94
1, 349426, Note_on_c, 0, 24, 89
1, 349434, Control_c, 0, 64, 94
1, 349449, Control_c, 0, 64, 100
1, 349455, Note_on_c, 0, 27, 43
1, 349455, Note_off_c, 0, 36, 67
1, 349456, Note_off_c, 0, 24, 68
1, 349457, Note_on_c, 0, 26, 41
1, 349463, Control_c, 0, 64, 105
1, 349478, Control_c, 0, 64, 111
1, 349492, Note_off_c, 0, 27, 55
1, 349501, Control_c, 0, 64, 117
1, 349510, Note_off_c, 0, 26, 48
1, 349516, Control_c, 0, 64, 124
1, 349531, Control_c, 0, 64, 127
1, 349543, Note_on_c, 0, 38, 93
1, 349545, Note_on_c, 0, 26, 83
1, 349580, Note_off_c, 0, 38, 62
1, 349586, Note_off_c, 0, 26, 63
1, 349664, Note_on_c, 0, 27, 68
1, 349664, Note_on_c, 0, 35, 63
1, 349669, Note_on_c, 0, 23, 63
1, 349683, Note_on_c, 0, 24, 54
1, 349689, Note_off_c, 0, 35, 59
1, 349706, Note_off_c, 0, 23, 59
1, 349711, Note_off_c, 0, 27, 62
1, 349712, Note_off_c, 0, 24, 58
1, 349736, Note_on_c, 0, 55, 89
1, 349742, Note_on_c, 0, 58, 79
1, 349743, Note_on_c, 0, 51, 76
1, 349763, Note_off_c, 0, 58, 70
1, 349769, Note_off_c, 0, 51, 67
1, 349776, Note_off_c, 0, 55, 65
1, 349778, Poly_aftertouch_c, 0, 33, 0
1, 349815, Note_on_c, 0, 51, 90
1, 349816, Note_on_c, 0, 58, 98
1, 349817, Note_on_c, 0, 55, 82
1, 349843, Note_on_c, 0, 27, 89
1, 349847, Note_on_c, 0, 39, 88
1, 349856, Control_c, 0, 64, 123
1, 349867, Note_on_c, 0, 37, 53
1, 349870, Control_c, 0, 64, 86
1, 349876, Note_off_c, 0, 39, 67
1, 349885, Note_off_c, 0, 27, 68
1, 349885, Control_c, 0, 64, 54
1, 349897, Note_off_c, 0, 37, 51
1, 349900, Control_c, 0, 64, 0
1, 349957, Note_on_c, 0, 38, 90
1, 349959, Note_on_c, 0, 26, 67
1, 349989, Note_off_c, 0, 38, 67
1, 349990, Note_off_c, 0, 26, 68
1, 350060, Note_on_c, 0, 24, 97
1, 350061, Note_on_c, 0, 36, 90
1, 350090, Note_off_c, 0, 36, 70
1, 350093, Note_off_c, 0, 24, 66
1, 350124, Control_c, 0, 64, 27
1, 350139, Control_c, 0, 64, 35
1, 350154, Control_c, 0, 64, 55
1, 350165, Note_on_c, 0, 38, 90
1, 350166, Note_on_c, 0, 26, 89
1, 350169, Control_c, 0, 64, 66
1, 350184, Control_c, 0, 64, 75
1, 350192, Note_off_c, 0, 55, 54
1, 350196, Note_off_c, 0, 38, 68
1, 350196, Note_off_c, 0, 26, 69
1, 350199, Control_c, 0, 64, 88
1, 350213, Control_c, 0, 64, 107
1, 350228, Control_c, 0, 64, 122
1, 350231, Note_off_c, 0, 51, 57
1, 350251, Note_off_c, 0, 58, 58
1, 350251, Control_c, 0, 64, 127
1, 350279, Note_on_c, 0, 36, 87
1, 350282, Note_on_c, 0, 24, 87
1, 350300, Note_off_c, 0, 36, 67
1, 350303, Note_off_c, 0, 24, 64
1, 350326, Note_on_c, 0, 35, 22
1, 350371, Note_on_c, 0, 34, 87
1, 350372, Note_off_c, 0, 35, 46
1, 350374, Note_on_c, 0, 22, 91
1, 350387, Poly_aftertouch_c, 0, 25, 0
1, 350401, Note_off_c, 0, 34, 68
1, 350405, Note_off_c, 0, 22, 64
1, 350468, Note_on_c, 0, 51, 95
1, 350469, Note_on_c, 0, 58, 94
1, 350470, Note_on_c, 0, 55, 90
1, 350478, Note_on_c, 0, 39, 98
1, 350483, Note_on_c, 0, 27, 86
1, 350502, Control_c, 0, 64, 105
1, 350510, Note_on_c, 0, 28, 50
1, 350517, Note_on_c, 0, 29, 41
1, 350517, Control_c, 0, 64, 74
1, 350526, Note_off_c, 0, 27, 67
1, 350532, Note_off_c, 0, 39, 61
1, 350532, Control_c, 0, 64, 0
1, 350539, Note_off_c, 0, 28, 49
1, 350560, Note_off_c, 0, 29, 39
1, 350587, Note_on_c, 0, 38, 83
1, 350592, Note_on_c, 0, 26, 76
1, 350624, Note_off_c, 0, 38, 66
1, 350628, Note_off_c, 0, 26, 66
1, 350694, Note_on_c, 0, 36, 88
1, 350696, Note_on_c, 0, 24, 85
1, 350720, Note_off_c, 0, 24, 63
1, 350725, Note_off_c, 0, 36, 65
1, 350798, Note_on_c, 0, 38, 93
1, 350799, Note_on_c, 0, 26, 84
1, 350828, Note_off_c, 0, 38, 69
1, 350834, Note_off_c, 0, 26, 67
1, 350848, Note_off_c, 0, 55, 55
1, 350889, Control_c, 0, 64, 58
1, 350900, Note_on_c, 0, 36, 89
1, 350901, Note_on_c, 0, 24, 87
1, 350902, Note_off_c, 0, 51, 47
1, 350904, Control_c, 0, 64, 70
1, 350918, Control_c, 0, 64, 80
1, 350921, Note_off_c, 0, 36, 67
1, 350930, Note_off_c, 0, 24, 67
1, 350933, Control_c, 0, 64, 96
1, 350948, Control_c, 0, 64, 116
1, 350963, Control_c, 0, 64, 127
1, 351004, Note_on_c, 0, 34, 90
1, 351008, Note_on_c, 0, 22, 86
1, 351015, Poly_aftertouch_c, 0, 25, 0
1, 351029, Note_off_c, 0, 34, 65
1, 351039, Note_off_c, 0, 22, 61
1, 351042, Note_off_c, 0, 58, 61
1, 351071, Note_on_c, 0, 63, 97
1, 351073, Note_on_c, 0, 51, 91
1, 351080, Note_on_c, 0, 55, 82
1, 351089, Control_c, 0, 64, 111
1, 351095, Note_on_c, 0, 39, 102
1, 351099, Note_on_c, 0, 27, 83
1, 351102, Note_off_c, 0, 55, 70
1, 351104, Control_c, 0, 64, 78
1, 351114, Note_off_c, 0, 51, 63
1, 351116, Note_on_c, 0, 28, 57
1, 351118, Control_c, 0, 64, 0
1, 351119, Note_off_c, 0, 63, 69
1, 351143, Note_off_c, 0, 27, 65
1, 351146, Note_off_c, 0, 28, 57
1, 351147, Note_on_c, 0, 29, 14
1, 351151, Note_off_c, 0, 39, 61
1, 351192, Control_c, 0, 64, 61
1, 351198, Note_off_c, 0, 29, 42
1, 351207, Control_c, 0, 64, 65
1, 351212, Note_on_c, 0, 38, 83
1, 351221, Note_on_c, 0, 26, 79
1, 351222, Control_c, 0, 64, 64
1, 351236, Control_c, 0, 64, 64
1, 351248, Note_off_c, 0, 38, 67
1, 351257, Note_off_c, 0, 26, 66
1, 351281, Control_c, 0, 64, 63
1, 351296, Control_c, 0, 64, 61
1, 351305, Note_on_c, 0, 55, 86
1, 351310, Control_c, 0, 64, 55
1, 351311, Note_on_c, 0, 51, 75
1, 351322, Note_on_c, 0, 36, 89
1, 351325, Note_on_c, 0, 24, 85
1, 351325, Control_c, 0, 64, 48
1, 351337, Note_off_c, 0, 51, 65
1, 351340, Control_c, 0, 64, 45
1, 351345, Note_off_c, 0, 55, 65
1, 351352, Note_off_c, 0, 36, 68
1, 351355, Control_c, 0, 64, 48
1, 351358, Note_off_c, 0, 24, 66
1, 351370, Control_c, 0, 64, 50
1, 351385, Control_c, 0, 64, 49
1, 351387, Note_on_c, 0, 55, 70
1, 351388, Note_on_c, 0, 51, 79
1, 351388, Note_on_c, 0, 58, 80
1, 351400, Control_c, 0, 64, 48
1, 351427, Note_on_c, 0, 38, 89
1, 351428, Note_on_c, 0, 26, 88
1, 351429, Control_c, 0, 64, 49
1, 351444, Control_c, 0, 64, 53
1, 351456, Note_off_c, 0, 38, 65
1, 351458, Note_off_c, 0, 26, 70
1, 351459, Control_c, 0, 64, 57
1, 351474, Control_c, 0, 64, 59
1, 351489, Control_c, 0, 64, 60
1, 351518, Control_c, 0, 64, 60
1, 351533, Control_c, 0, 64, 61
1, 351540, Note_on_c, 0, 23, 76
1, 351540, Note_on_c, 0, 35, 69
1, 351548, Control_c, 0, 64, 62
1, 351552, Note_on_c, 0, 25, 51
1, 351553, Note_off_c, 0, 25, 127
1, 351555, Note_on_c, 0, 24, 55
1, 351555, Note_on_c, 0, 36, 48
1, 351556, Note_off_c, 0, 36, 127
1, 351562, Control_c, 0, 64, 63
1, 351565, Note_off_c, 0, 35, 61
1, 351571, Note_off_c, 0, 23, 53
1, 351576, Control_c, 0, 64, 64
1, 351591, Note_off_c, 0, 24, 47
1, 351591, Control_c, 0, 64, 64
1, 351622, Control_c, 0, 64, 65
1, 351637, Control_c, 0, 64, 65
1, 351651, Note_on_c, 0, 37, 74
1, 351652, Control_c, 0, 64, 66
1, 351654, Note_on_c, 0, 25, 64
1, 351671, Note_off_c, 0, 37, 64
1, 351685, Note_off_c, 0, 25, 55
1, 351696, Control_c, 0, 64, 66
1, 351711, Control_c, 0, 64, 67
1, 351726, Control_c, 0, 64, 68
1, 351744, Note_on_c, 0, 39, 88
1, 351748, Control_c, 0, 64, 70
1, 351754, Note_on_c, 0, 40, 91
1, 351757, Note_on_c, 0, 27, 62
1, 351758, Note_off_c, 0, 27, 127
1, 351760, Note_on_c, 0, 30, 65
1, 351763, Control_c, 0, 64, 74
1, 351778, Control_c, 0, 64, 79
1, 351780, Note_off_c, 0, 40, 66
1, 351791, Note_off_c, 0, 39, 59
1, 351792, Control_c, 0, 64, 84
1, 351793, Note_off_c, 0, 55, 56
1, 351807, Note_off_c, 0, 30, 48
1, 351807, Control_c, 0, 64, 88
1, 351822, Control_c, 0, 64, 90
1, 351827, Poly_aftertouch_c, 0, 32, 0
1, 351828, Poly_aftertouch_c, 0, 28, 127
1, 351837, Control_c, 0, 64, 92
1, 351852, Control_c, 0, 64, 93
1, 351856, Note_on_c, 0, 38, 88
1, 351856, Poly_aftertouch_c, 0, 32, 0
1, 351858, Note_on_c, 0, 26, 85
1, 351866, Control_c, 0, 64, 94
1, 351871, Poly_aftertouch_c, 0, 28, 0
1, 351881, Control_c, 0, 64, 96
1, 351885, Note_on_c, 0, 27, 35
1, 351894, Note_off_c, 0, 26, 66
1, 351894, Note_off_c, 0, 51, 52
1, 351895, Note_off_c, 0, 38, 63
1, 351896, Control_c, 0, 64, 96
1, 351901, Note_off_c, 0, 58, 39
1, 351911, Control_c, 0, 64, 97
1, 351915, Note_off_c, 0, 27, 54
1, 351964, Note_on_c, 0, 55, 81
1, 351965, Note_on_c, 0, 36, 92
1, 351969, Note_on_c, 0, 24, 90
1, 351970, Control_c, 0, 64, 95
1, 351972, Note_on_c, 0, 51, 76
1, 351984, Control_c, 0, 64, 90
1, 351998, Note_on_c, 0, 27, 36
1, 351998, Note_off_c, 0, 36, 65
1, 351999, Note_off_c, 0, 24, 66
1, 351999, Control_c, 0, 64, 82
1, 352008, Note_off_c, 0, 51, 59
1, 352011, Note_off_c, 0, 55, 64
1, 352014, Control_c, 0, 64, 73
1, 352027, Note_off_c, 0, 27, 49
1, 352029, Control_c, 0, 64, 66
1, 352044, Control_c, 0, 64, 66
1, 352058, Control_c, 0, 64, 72
1, 352060, Note_on_c, 0, 58, 79
1, 352070, Note_on_c, 0, 55, 47
1, 352072, Note_on_c, 0, 38, 91
1, 352073, Control_c, 0, 64, 83
1, 352075, Note_on_c, 0, 26, 92
1, 352084, Note_on_c, 0, 51, 30
1, 352088, Control_c, 0, 64, 97
1, 352100, Note_off_c, 0, 55, 52
1, 352103, Control_c, 0, 64, 109
1, 352106, Note_off_c, 0, 38, 64
1, 352108, Note_off_c, 0, 26, 65
1, 352111, Note_off_c, 0, 58, 64
1, 352112, Note_off_c, 0, 51, 51
1, 352118, Control_c, 0, 64, 114
1, 352133, Control_c, 0, 64, 115
1, 352148, Control_c, 0, 64, 116
1, 352163, Control_c, 0, 64, 120
1, 352178, Control_c, 0, 64, 127
1, 352183, Note_on_c, 0, 36, 74
1, 352192, Note_on_c, 0, 24, 68
1, 352211, Note_off_c, 0, 36, 65
1, 352218, Note_on_c, 0, 35, 33
1, 352219, Note_off_c, 0, 24, 58
1, 352249, Poly_aftertouch_c, 0, 55, 127
1, 352262, Note_off_c, 0, 35, 48
1, 352266, Note_on_c, 0, 55, 53
1, 352268, Note_on_c, 0, 63, 91
1, 352270, Poly_aftertouch_c, 0, 25, 0
1, 352277, Note_on_c, 0, 58, 82
1, 352281, Note_on_c, 0, 25, 66
1, 352295, Note_off_c, 0, 58, 74
1, 352300, Note_on_c, 0, 34, 62
1, 352301, Note_off_c, 0, 34, 127
1, 352307, Note_on_c, 0, 24, 41
1, 352309, Note_on_c, 0, 36, 42
1, 352309, Note_off_c, 0, 55, 65
1, 352318, Note_off_c, 0, 25, 64
1, 352318, Note_off_c, 0, 63, 65
1, 352339, Note_off_c, 0, 36, 59
1, 352340, Control_c, 0, 64, 102
1, 352355, Control_c, 0, 64, 70
1, 352358, Note_on_c, 0, 58, 98
1, 352359, Note_on_c, 0, 67, 100
1, 352360, Note_off_c, 0, 24, 41
1, 352365, Note_on_c, 0, 55, 80
1, 352370, Control_c, 0, 64, 0
1, 352379, Note_on_c, 0, 39, 89
1, 352382, Note_on_c, 0, 27, 87
1, 352392, Note_on_c, 0, 40, 82
1, 352392, Note_off_c, 0, 55, 62
1, 352404, Note_off_c, 0, 67, 61
1, 352406, Note_off_c, 0, 58, 59
1, 352415, Note_off_c, 0, 40, 66
1, 352415, Control_c, 0, 64, 59
1, 352416, Note_off_c, 0, 27, 71
1, 352419, Note_off_c, 0, 39, 58
1, 352430, Control_c, 0, 64, 70
1, 352445, Control_c, 0, 64, 78
1, 352460, Control_c, 0, 64, 84
1, 352469, Poly_aftertouch_c, 0, 28, 127
1, 352475, Control_c, 0, 64, 86
1, 352484, Poly_aftertouch_c, 0, 38, 0
1, 352499, Note_on_c, 0, 26, 81
1, 352503, Note_on_c, 0, 38, 29
1, 352511, Note_on_c, 0, 36, 53
1, 352513, Poly_aftertouch_c, 0, 28, 0
1, 352536, Note_off_c, 0, 26, 66
1, 352543, Note_off_c, 0, 36, 54
1, 352544, Note_off_c, 0, 38, 62
1, 352556, Control_c, 0, 64, 86
1, 352595, Note_on_c, 0, 58, 73
1, 352604, Note_on_c, 0, 55, 81
1, 352607, Note_on_c, 0, 36, 85
1, 352609, Note_on_c, 0, 24, 86
1, 352615, Control_c, 0, 64, 87
1, 352637, Note_on_c, 0, 63, 24
1, 352638, Note_off_c, 0, 36, 66
1, 352639, Note_off_c, 0, 24, 65
1, 352643, Note_off_c, 0, 58, 66
1, 352660, Control_c, 0, 64, 86
1, 352661, Note_off_c, 0, 55, 0
1, 352673, Note_off_c, 0, 63, 0
1, 352673, Note_on_c, 0, 63, 41
1, 352675, Control_c, 0, 64, 82
1, 352676, Poly_aftertouch_c, 0, 58, 0
1, 352683, Note_on_c, 0, 58, 64
1, 352683, Poly_aftertouch_c, 0, 27, 127
1, 352689, Control_c, 0, 64, 74
1, 352691, Note_on_c, 0, 55, 26
1, 352693, Poly_aftertouch_c, 0, 35, 127
1, 352704, Control_c, 0, 64, 60
1, 352708, Note_on_c, 0, 38, 90
1, 352714, Note_on_c, 0, 26, 81
1, 352714, Poly_aftertouch_c, 0, 25, 0
1, 352717, Poly_aftertouch_c, 0, 27, 0
1, 352719, Control_c, 0, 64, 0
1, 352720, Poly_aftertouch_c, 0, 35, 0
1, 352722, Note_on_c, 0, 62, 57
1, 352743, Note_off_c, 0, 38, 67
1, 352748, Note_off_c, 0, 26, 68
1, 352749, Control_c, 0, 64, 57
1, 352763, Control_c, 0, 64, 71
1, 352778, Control_c, 0, 64, 81
1, 352793, Control_c, 0, 64, 96
1, 352808, Control_c, 0, 64, 104
1, 352822, Control_c, 0, 64, 109
1, 352824, Note_on_c, 0, 35, 86
1, 352831, Note_on_c, 0, 25, 69
1, 352837, Note_on_c, 0, 23, 64
1, 352837, Control_c, 0, 64, 113
1, 352847, Note_off_c, 0, 35, 67
1, 352852, Control_c, 0, 64, 117
1, 352859, Note_on_c, 0, 28, 40
1, 352862, Note_off_c, 0, 25, 65
1, 352867, Control_c, 0, 64, 124
1, 352875, Note_off_c, 0, 23, 53
1, 352881, Control_c, 0, 64, 127
1, 352904, Note_off_c, 0, 28, 48
1, 352905, Poly_aftertouch_c, 0, 24, 0
1, 352926, Note_on_c, 0, 34, 75
1, 352935, Note_on_c, 0, 22, 55
1, 352936, Note_off_c, 0, 22, 127
1, 352936, Note_off_c, 0, 62, 43
1, 352949, Note_off_c, 0, 34, 61
1, 352954, Poly_aftertouch_c, 0, 24, 0
1, 352971, Control_c, 0, 64, 115
1, 352973, Poly_aftertouch_c, 0, 22, 0
1, 352986, Control_c, 0, 64, 84
1, 352997, Note_off_c, 0, 63, 31
1, 353000, Control_c, 0, 64, 62
1, 353003, Poly_aftertouch_c, 0, 25, 0
1, 353009, Note_on_c, 0, 39, 98
1, 353013, Note_on_c, 0, 27, 88
1, 353015, Control_c, 0, 64, 0
1, 353045, Control_c, 0, 64, 66
1, 353050, Note_off_c, 0, 27, 67
1, 353059, Note_on_c, 0, 29, 15
1, 353060, Control_c, 0, 64, 80
1, 353070, Note_off_c, 0, 39, 62
1, 353075, Control_c, 0, 64, 97
1, 353090, Control_c, 0, 64, 111
1, 353090, Poly_aftertouch_c, 0, 28, 127
1, 353105, Control_c, 0, 64, 112
1, 353114, Note_off_c, 0, 29, 47
1, 353132, Poly_aftertouch_c, 0, 28, 0
1, 353132, Note_on_c, 0, 38, 83
1, 353141, Note_on_c, 0, 26, 72
1, 353150, Note_on_c, 0, 24, 59
1, 353151, Note_off_c, 0, 58, 58
1, 353155, Note_off_c, 0, 55, 54
1, 353173, Note_off_c, 0, 38, 63
1, 353182, Note_off_c, 0, 26, 63
1, 353188, Note_off_c, 0, 24, 51
1, 353246, Note_on_c, 0, 58, 86
1, 353246, Control_c, 0, 64, 112
1, 353259, Note_on_c, 0, 36, 90
1, 353260, Note_on_c, 0, 24, 89
1, 353261, Note_on_c, 0, 55, 61
1, 353261, Control_c, 0, 64, 114
1, 353276, Control_c, 0, 64, 121
1, 353283, Note_off_c, 0, 55, 63
1, 353287, Note_off_c, 0, 36, 68
1, 353291, Control_c, 0, 64, 127
1, 353292, Note_off_c, 0, 58, 61
1, 353300, Note_off_c, 0, 24, 62
1, 353336, Note_on_c, 0, 63, 94
1, 353337, Poly_aftertouch_c, 0, 27, 127
1, 353364, Note_on_c, 0, 38, 89
1, 353366, Note_on_c, 0, 26, 79
1, 353375, Poly_aftertouch_c, 0, 27, 0
1, 353384, Note_off_c, 0, 63, 64
1, 353398, Note_off_c, 0, 38, 65
1, 353400, Note_off_c, 0, 26, 67
1, 353409, Poly_aftertouch_c, 0, 55, 127
1, 353445, Poly_aftertouch_c, 0, 55, 0
1, 353456, Note_on_c, 0, 66, 67
1, 353482, Note_on_c, 0, 23, 83
1, 353487, Note_off_c, 0, 66, 68
1, 353495, Note_on_c, 0, 35, 52
1, 353508, Note_on_c, 0, 24, 42
1, 353510, Note_off_c, 0, 23, 64
1, 353525, Note_off_c, 0, 35, 58
1, 353547, Note_off_c, 0, 24, 49
1, 353557, Note_on_c, 0, 58, 79
1, 353557, Note_on_c, 0, 64, 84
1, 353570, Poly_aftertouch_c, 0, 27, 0
1, 353573, Note_on_c, 0, 66, 59
1, 353581, Note_off_c, 0, 58, 67
1, 353586, Note_off_c, 0, 64, 62
1, 353587, Control_c, 0, 64, 88
1, 353590, Note_off_c, 0, 66, 68
1, 353602, Control_c, 0, 64, 27
1, 353617, Control_c, 0, 64, 0
1, 353644, Note_on_c, 0, 69, 95
1, 353646, Note_on_c, 0, 27, 92
1, 353646, Note_on_c, 0, 58, 83
1, 353646, Control_c, 0, 64, 70
1, 353647, Note_on_c, 0, 39, 85
1, 353659, Note_on_c, 0, 37, 72
1, 353659, Note_on_c, 0, 57, 76
1, 353659, Note_on_c, 0, 68, 76
1, 353661, Control_c, 0, 64, 90
1, 353676, Control_c, 0, 64, 127
1, 353677, Note_off_c, 0, 57, 66
1, 353682, Note_off_c, 0, 37, 62
1, 353687, Note_off_c, 0, 69, 65
1, 353700, Note_off_c, 0, 58, 63
1, 353704, Note_off_c, 0, 27, 61
1, 353708, Note_off_c, 0, 39, 59
1, 353740, Poly_aftertouch_c, 0, 28, 127
1, 353758, Note_off_c, 0, 68, 25
1, 353763, Note_on_c, 0, 38, 88
1, 353769, Note_on_c, 0, 26, 73
1, 353809, Note_off_c, 0, 26, 66
1, 353814, Note_off_c, 0, 38, 62
1, 353836, Poly_aftertouch_c, 0, 28, 0
1, 353874, Note_on_c, 0, 55, 90
1, 353875, Note_on_c, 0, 58, 70
1, 353877, Note_on_c, 0, 63, 89
1, 353877, Note_on_c, 0, 36, 83
1, 353884, Note_on_c, 0, 24, 77
1, 353908, Note_off_c, 0, 36, 65
1, 353911, Note_off_c, 0, 58, 64
1, 353912, Note_off_c, 0, 24, 63
1, 353919, Note_off_c, 0, 55, 62
1, 353930, Note_off_c, 0, 63, 62
1, 353962, Note_on_c, 0, 63, 67
1, 353963, Note_on_c, 0, 67, 81
1, 353990, Note_on_c, 0, 38, 98
1, 353996, Note_on_c, 0, 26, 87
1, 354016, Note_off_c, 0, 63, 65
1, 354020, Note_off_c, 0, 67, 64
1, 354028, Note_off_c, 0, 26, 64
1, 354035, Note_off_c, 0, 38, 63
1, 354042, Poly_aftertouch_c, 0, 27, 0
1, 354115, Note_on_c, 0, 36, 88
1, 354117, Note_on_c, 0, 24, 91
1, 354138, Note_off_c, 0, 36, 67
1, 354149, Note_off_c, 0, 24, 66
1, 354159, Note_on_c, 0, 29, 34
1, 354199, Note_off_c, 0, 29, 49
1, 354208, Note_on_c, 0, 67, 90
1, 354210, Note_on_c, 0, 70, 90
1, 354212, Note_on_c, 0, 63, 86
1, 354214, Note_on_c, 0, 34, 90
1, 354232, Note_on_c, 0, 23, 58
1, 354237, Note_off_c, 0, 34, 66
1, 354237, Note_off_c, 0, 63, 62
1, 354245, Note_off_c, 0, 67, 64
1, 354247, Control_c, 0, 64, 104
1, 354250, Note_off_c, 0, 70, 65
1, 354261, Control_c, 0, 64, 72
1, 354264, Note_off_c, 0, 23, 57
1, 354276, Control_c, 0, 64, 0
1, 354290, Note_on_c, 0, 75, 100
1, 354291, Note_on_c, 0, 67, 89
1, 354292, Note_on_c, 0, 70, 89
1, 354294, Note_on_c, 0, 63, 84
1, 354306, Control_c, 0, 64, 65
1, 354315, Note_on_c, 0, 39, 97
1, 354321, Control_c, 0, 64, 88
1, 354325, Note_on_c, 0, 76, 57
1, 354326, Note_on_c, 0, 28, 76
1, 354328, Note_on_c, 0, 27, 64
1, 354333, Note_off_c, 0, 63, 60
1, 354336, Control_c, 0, 64, 127
1, 354346, Note_off_c, 0, 67, 63
1, 354354, Note_off_c, 0, 28, 62
1, 354354, Note_off_c, 0, 76, 49
1, 354356, Note_off_c, 0, 27, 57
1, 354357, Note_off_c, 0, 39, 64
1, 354371, Note_on_c, 0, 26, 24
1, 354387, Note_off_c, 0, 75, 63
1, 354391, Note_off_c, 0, 70, 65
1, 354401, Note_off_c, 0, 26, 56
1, 354440, Note_on_c, 0, 38, 93
1, 354447, Note_on_c, 0, 26, 85
1, 354454, Note_on_c, 0, 27, 62
1, 354474, Note_off_c, 0, 27, 65
1, 354485, Note_off_c, 0, 38, 62
1, 354488, Note_off_c, 0, 26, 64
1, 354555, Note_on_c, 0, 36, 85
1, 354559, Note_on_c, 0, 24, 92
1, 354575, Note_on_c, 0, 27, 42
1, 354603, Note_off_c, 0, 24, 64
1, 354605, Note_off_c, 0, 36, 63
1, 354616, Note_off_c, 0, 27, 53
1, 354661, Note_on_c, 0, 79, 104
1, 354664, Note_on_c, 0, 67, 102
1, 354670, Note_on_c, 0, 75, 81
1, 354682, Note_on_c, 0, 70, 51
1, 354683, Note_off_c, 0, 70, 127
1, 354687, Note_on_c, 0, 38, 94
1, 354687, Note_on_c, 0, 71, 68
1, 354688, Note_on_c, 0, 26, 92
1, 354689, Note_on_c, 0, 76, 74
1, 354702, Note_off_c, 0, 75, 0
1, 354702, Note_on_c, 0, 75, 56
1, 354708, Poly_aftertouch_c, 0, 70, 0
1, 354717, Note_on_c, 0, 27, 43
1, 354718, Note_off_c, 0, 71, 56
1, 354740, Note_off_c, 0, 38, 63
1, 354745, Note_off_c, 0, 26, 64
1, 354750, Note_off_c, 0, 27, 58
1, 354777, Note_off_c, 0, 76, 62
1, 354792, Note_off_c, 0, 67, 57
1, 354800, Note_off_c, 0, 75, 58
1, 354832, Note_on_c, 0, 36, 84
1, 354837, Note_on_c, 0, 24, 83
1, 354853, Note_off_c, 0, 36, 69
1, 354859, Note_off_c, 0, 24, 66
1, 354862, Note_on_c, 0, 29, 47
1, 354886, Note_off_c, 0, 79, 42
1, 354905, Note_off_c, 0, 29, 49
1, 354920, Note_on_c, 0, 34, 92
1, 354926, Note_on_c, 0, 22, 100
1, 354957, Note_off_c, 0, 22, 68
1, 354963, Note_off_c, 0, 34, 64
1, 354968, Poly_aftertouch_c, 0, 36, 127
1, 354993, Poly_aftertouch_c, 0, 36, 0
1, 355084, Control_c, 0, 64, 115
1, 355099, Control_c, 0, 64, 64
1, 355114, Control_c, 0, 64, 0
1, 355127, Note_on_c, 0, 69, 102
1, 355127, Note_on_c, 0, 81, 103
1, 355129, Note_on_c, 0, 74, 96
1, 355129, Note_on_c, 0, 78, 103
1, 355141, Note_on_c, 0, 38, 114
1, 355143, Note_on_c, 0, 26, 98
1, 355144, Control_c, 0, 64, 56
1, 355154, Note_on_c, 0, 30, 71
1, 355155, Note_off_c, 0, 30, 127
1, 355159, Note_on_c, 0, 27, 65
1, 355159, Control_c, 0, 64, 84
1, 355159, Note_on_c, 0, 32, 62
1, 355160, Note_off_c, 0, 32, 127
1, 355166, Note_off_c, 0, 26, 73
1, 355174, Control_c, 0, 64, 127
1, 355185, Note_off_c, 0, 38, 62
1, 355188, Note_off_c, 0, 27, 36
1, 355513, Note_on_c, 0, 34, 50
1, 355540, Note_off_c, 0, 34, 54
1, 355607, Note_on_c, 0, 48, 69
1, 355614, Note_on_c, 0, 35, 55
1, 355615, Note_on_c, 0, 47, 62
1, 355634, Note_on_c, 0, 36, 39
1, 355636, Note_off_c, 0, 48, 67
1, 355638, Note_off_c, 0, 47, 62
1, 355643, Note_off_c, 0, 35, 55
1, 355669, Note_off_c, 0, 36, 53
1, 355705, Note_on_c, 0, 36, 82
1, 355705, Note_on_c, 0, 48, 85
1, 355728, Note_off_c, 0, 48, 73
1, 355755, Note_off_c, 0, 36, 63
1, 355809, Note_on_c, 0, 49, 104
1, 355811, Note_on_c, 0, 37, 93
1, 355837, Note_off_c, 0, 37, 69
1, 355851, Note_off_c, 0, 49, 63
1, 355862, Control_c, 0, 64, 106
1, 355877, Control_c, 0, 64, 75
1, 355886, Note_off_c, 0, 81, 62
1, 355892, Control_c, 0, 64, 0
1, 355900, Note_off_c, 0, 78, 63
1, 355910, Note_on_c, 0, 38, 92
1, 355910, Note_on_c, 0, 50, 88
1, 355914, Note_off_c, 0, 74, 65
1, 355922, Control_c, 0, 64, 68
1, 355931, Note_off_c, 0, 69, 58
1, 355937, Note_off_c, 0, 50, 63
1, 355937, Control_c, 0, 64, 88
1, 355951, Control_c, 0, 64, 127
1, 355963, Note_off_c, 0, 38, 63
1, 355966, Note_on_c, 0, 48, 15
1, 356005, Note_off_c, 0, 48, 56
1, 356013, Note_on_c, 0, 37, 84
1, 356023, Note_on_c, 0, 49, 80
1, 356083, Note_off_c, 0, 49, 61
1, 356094, Note_off_c, 0, 37, 63
1, 356130, Note_on_c, 0, 48, 75
1, 356131, Note_on_c, 0, 36, 80
1, 356175, Note_off_c, 0, 48, 64
1, 356178, Note_off_c, 0, 36, 63
1, 356272, Note_on_c, 0, 47, 64
1, 356276, Note_on_c, 0, 35, 55
1, 356290, Note_on_c, 0, 39, 51
1, 356295, Note_off_c, 0, 47, 62
1, 356306, Note_off_c, 0, 35, 58
1, 356319, Note_off_c, 0, 39, 59
1, 356370, Note_on_c, 0, 33, 70
1, 356375, Note_on_c, 0, 69, 79
1, 356376, Note_on_c, 0, 57, 81
1, 356377, Note_on_c, 0, 62, 81
1, 356379, Note_on_c, 0, 45, 64
1, 356381, Note_on_c, 0, 66, 78
1, 356384, Note_on_c, 0, 34, 38
1, 356402, Note_off_c, 0, 45, 64
1, 356407, Note_on_c, 0, 35, 40
1, 356407, Note_off_c, 0, 57, 63
1, 356407, Note_off_c, 0, 66, 69
1, 356418, Note_off_c, 0, 69, 64
1, 356420, Note_off_c, 0, 62, 61
1, 356423, Note_off_c, 0, 34, 32
1, 356433, Note_off_c, 0, 33, 62
1, 356435, Poly_aftertouch_c, 0, 44, 127
1, 356456, Poly_aftertouch_c, 0, 69, 0
1, 356457, Note_off_c, 0, 35, 64
1, 356457, Poly_aftertouch_c, 0, 62, 0
1, 356460, Poly_aftertouch_c, 0, 44, 0
1, 356461, Note_on_c, 0, 62, 74
1, 356463, Note_on_c, 0, 57, 81
1, 356463, Note_on_c, 0, 69, 72
1, 356476, Note_on_c, 0, 66, 69
1, 356485, Note_off_c, 0, 69, 68
1, 356492, Note_off_c, 0, 57, 58
1, 356492, Note_off_c, 0, 66, 70
1, 356503, Note_off_c, 0, 62, 61
1, 356509, Control_c, 0, 64, 108
1, 356524, Control_c, 0, 64, 77
1, 356538, Control_c, 0, 64, 0
1, 356540, Note_on_c, 0, 57, 90
1, 356542, Note_on_c, 0, 69, 98
1, 356543, Note_on_c, 0, 62, 80
1, 356544, Note_on_c, 0, 66, 92
1, 356557, Note_on_c, 0, 26, 85
1, 356561, Note_on_c, 0, 38, 82
1, 356568, Control_c, 0, 64, 67
1, 356569, Note_off_c, 0, 62, 64
1, 356572, Note_off_c, 0, 57, 63
1, 356582, Note_off_c, 0, 26, 63
1, 356582, Control_c, 0, 64, 87
1, 356586, Note_off_c, 0, 38, 66
1, 356593, Note_off_c, 0, 69, 67
1, 356597, Control_c, 0, 64, 127
1, 356604, Note_off_c, 0, 66, 65
1, 356692, Note_on_c, 0, 45, 61
1, 356715, Note_off_c, 0, 45, 61
1, 356788, Note_on_c, 0, 34, 50
1, 356822, Note_off_c, 0, 34, 48
1, 356846, Poly_aftertouch_c, 0, 45, 0
1, 356870, Note_on_c, 0, 74, 97
1, 356872, Note_on_c, 0, 62, 95
1, 356876, Note_on_c, 0, 66, 96
1, 356890, Note_on_c, 0, 47, 82
1, 356893, Note_off_c, 0, 66, 74
1, 356894, Note_on_c, 0, 35, 68
1, 356903, Note_off_c, 0, 74, 70
1, 356917, Note_off_c, 0, 47, 68
1, 356924, Note_off_c, 0, 35, 65
1, 356925, Note_off_c, 0, 62, 64
1, 356929, Note_on_c, 0, 36, 33
1, 356980, Note_off_c, 0, 36, 0
1, 356996, Note_on_c, 0, 36, 70
1, 357008, Note_on_c, 0, 48, 79
1, 357034, Note_off_c, 0, 48, 69
1, 357059, Note_off_c, 0, 36, 62
1, 357100, Note_on_c, 0, 37, 78
1, 357109, Note_on_c, 0, 49, 85
1, 357141, Note_off_c, 0, 49, 58
1, 357156, Note_off_c, 0, 37, 65
1, 357161, Note_on_c, 0, 50, 12
1, 357207, Note_on_c, 0, 69, 101
1, 357208, Note_on_c, 0, 57, 96
1, 357212, Note_off_c, 0, 50, 0
1, 357212, Control_c, 0, 64, 115
1, 357214, Note_on_c, 0, 66, 93
1, 357216, Note_on_c, 0, 62, 89
1, 357224, Note_on_c, 0, 40, 87
1, 357224, Note_on_c, 0, 50, 63
1, 357227, Control_c, 0, 64, 78
1, 357242, Control_c, 0, 64, 0
1, 357256, Note_off_c, 0, 50, 64
1, 357259, Note_off_c, 0, 62, 60
1, 357262, Note_off_c, 0, 57, 59
1, 357272, Control_c, 0, 64, 50
1, 357278, Note_off_c, 0, 40, 64
1, 357286, Control_c, 0, 64, 77
1, 357301, Control_c, 0, 64, 107
1, 357315, Note_off_c, 0, 69, 67
1, 357316, Control_c, 0, 64, 127
1, 357328, Note_off_c, 0, 66, 70
1, 357330, Note_on_c, 0, 39, 8
1, 357332, Note_on_c, 0, 49, 65
1, 357334, Note_on_c, 0, 38, 54
1, 357341, Note_on_c, 0, 51, 62
1, 357361, Note_off_c, 0, 51, 61
1, 357380, Note_off_c, 0, 38, 49
1, 357397, Note_off_c, 0, 39, 60
1, 357403, Note_off_c, 0, 49, 55
1, 357434, Note_on_c, 0, 36, 73
1, 357439, Note_on_c, 0, 48, 68
1, 357468, Note_off_c, 0, 48, 66
1, 357471, Note_off_c, 0, 36, 62
1, 357536, Note_on_c, 0, 76, 99
1, 357540, Note_on_c, 0, 64, 89
1, 357543, Note_on_c, 0, 69, 90
1, 357552, Note_on_c, 0, 47, 72
1, 357568, Note_on_c, 0, 39, 58
1, 357573, Note_off_c, 0, 47, 67
1, 357587, Note_on_c, 0, 33, 30
1, 357589, Note_on_c, 0, 35, 12
1, 357597, Note_off_c, 0, 39, 59
1, 357616, Note_off_c, 0, 35, 0
1, 357620, Note_off_c, 0, 64, 61
1, 357621, Note_off_c, 0, 33, 52
1, 357633, Note_off_c, 0, 76, 65
1, 357636, Note_on_c, 0, 46, 89
1, 357645, Poly_aftertouch_c, 0, 35, 0
1, 357651, Note_on_c, 0, 34, 79
1, 357670, Note_off_c, 0, 34, 69
1, 357683, Note_off_c, 0, 46, 64
1, 357698, Note_off_c, 0, 69, 53
1, 357742, Note_on_c, 0, 45, 77
1, 357745, Note_on_c, 0, 33, 78
1, 357764, Note_off_c, 0, 45, 68
1, 357783, Note_off_c, 0, 33, 65
1, 357856, Control_c, 0, 64, 92
1, 357871, Control_c, 0, 64, 58
1, 357877, Note_on_c, 0, 78, 101
1, 357877, Note_on_c, 0, 66, 94
1, 357879, Note_on_c, 0, 69, 91
1, 357885, Control_c, 0, 64, 0
1, 357896, Note_on_c, 0, 38, 101
1, 357899, Note_on_c, 0, 26, 95
1, 357900, Control_c, 0, 64, 65
1, 357915, Control_c, 0, 64, 84
1, 357917, Note_on_c, 0, 27, 58
1, 357923, Note_off_c, 0, 26, 66
1, 357926, Note_off_c, 0, 38, 65
1, 357927, Note_on_c, 0, 32, 42
1, 357928, Note_off_c, 0, 32, 127
1, 357929, Control_c, 0, 64, 121
1, 357944, Control_c, 0, 64, 127
1, 357949, Note_off_c, 0, 27, 58
1, 357956, Note_on_c, 0, 28, 16
1, 357963, Poly_aftertouch_c, 0, 32, 0
1, 357992, Poly_aftertouch_c, 0, 30, 0
1, 358005, Note_off_c, 0, 28, 52
1, 358012, Poly_aftertouch_c, 0, 30, 0
1, 358059, Note_on_c, 0, 34, 54
1, 358065, Note_on_c, 0, 45, 49
1, 358086, Note_off_c, 0, 34, 56
1, 358098, Note_off_c, 0, 45, 57
1, 358124, Poly_aftertouch_c, 0, 37, 127
1, 358134, Note_on_c, 0, 46, 76
1, 358144, Note_on_c, 0, 34, 42
1, 358157, Note_off_c, 0, 46, 65
1, 358172, Poly_aftertouch_c, 0, 37, 0
1, 358178, Note_off_c, 0, 34, 50
1, 358226, Note_off_c, 0, 69, 33
1, 358228, Note_on_c, 0, 47, 85
1, 358232, Note_on_c, 0, 35, 78
1, 358256, Note_off_c, 0, 66, 58
1, 358259, Note_off_c, 0, 47, 66
1, 358264, Note_off_c, 0, 35, 64
1, 358348, Note_on_c, 0, 36, 77
1, 358357, Note_on_c, 0, 38, 66
1, 358357, Note_on_c, 0, 48, 62
1, 358367, Note_off_c, 0, 78, 62
1, 358376, Note_off_c, 0, 38, 64
1, 358379, Note_off_c, 0, 48, 62
1, 358426, Note_on_c, 0, 37, 80
1, 358427, Poly_aftertouch_c, 0, 42, 127
1, 358429, Note_on_c, 0, 49, 87
1, 358434, Note_off_c, 0, 36, 59
1, 358457, Poly_aftertouch_c, 0, 42, 0
1, 358482, Note_off_c, 0, 49, 62
1, 358487, Note_off_c, 0, 37, 64
1, 358500, Control_c, 0, 64, 89
1, 358515, Control_c, 0, 64, 60
1, 358524, Note_on_c, 0, 74, 89
1, 358525, Note_on_c, 0, 66, 99
1, 358530, Control_c, 0, 64, 0
1, 358535, Note_on_c, 0, 50, 94
1, 358543, Note_on_c, 0, 38, 73
1, 358544, Note_on_c, 0, 69, 58
1, 358545, Control_c, 0, 64, 54
1, 358551, Note_on_c, 0, 40, 61
1, 358559, Note_off_c, 0, 50, 67
1, 358560, Control_c, 0, 64, 78
1, 358563, Note_off_c, 0, 69, 63
1, 358569, Note_on_c, 0, 42, 35
1, 358569, Note_off_c, 0, 74, 66
1, 358575, Control_c, 0, 64, 103
1, 358577, Note_off_c, 0, 40, 60
1, 358584, Note_off_c, 0, 38, 65
1, 358584, Note_off_c, 0, 66, 61
1, 358590, Control_c, 0, 64, 127
1, 358608, Note_off_c, 0, 42, 50
1, 358630, Note_on_c, 0, 49, 90
1, 358634, Note_on_c, 0, 37, 85
1, 358688, Note_off_c, 0, 49, 62
1, 358694, Note_off_c, 0, 37, 65
1, 358743, Note_on_c, 0, 48, 83
1, 358749, Note_on_c, 0, 36, 76
1, 358786, Note_off_c, 0, 36, 66
1, 358792, Note_off_c, 0, 48, 63
1, 358838, Note_on_c, 0, 62, 79
1, 358840, Note_on_c, 0, 69, 81
1, 358852, Note_on_c, 0, 66, 72
1, 358868, Note_on_c, 0, 47, 73
1, 358873, Note_on_c, 0, 35, 71
1, 358889, Note_off_c, 0, 62, 58
1, 358890, Note_off_c, 0, 47, 67
1, 358897, Note_off_c, 0, 35, 60
1, 358909, Note_off_c, 0, 69, 64
1, 358926, Note_off_c, 0, 66, 41
1, 358935, Note_on_c, 0, 74, 84
1, 358949, Note_on_c, 0, 46, 91
1, 358963, Note_on_c, 0, 34, 79
1, 358977, Note_off_c, 0, 74, 67
1, 359000, Note_off_c, 0, 46, 64
1, 359010, Note_off_c, 0, 34, 62
1, 359034, Note_on_c, 0, 45, 63
1, 359038, Poly_aftertouch_c, 0, 35, 127
1, 359044, Note_on_c, 0, 78, 71
1, 359058, Note_off_c, 0, 45, 67
1, 359060, Note_on_c, 0, 33, 66
1, 359062, Note_on_c, 0, 69, 42
1, 359064, Note_off_c, 0, 78, 63
1, 359086, Note_off_c, 0, 33, 65
1, 359091, Note_off_c, 0, 69, 52
1, 359097, Poly_aftertouch_c, 0, 35, 0
1, 359132, Note_on_c, 0, 78, 92
1, 359133, Note_on_c, 0, 81, 103
1, 359138, Note_on_c, 0, 69, 96
1, 359138, Control_c, 0, 64, 83
1, 359139, Note_on_c, 0, 74, 85
1, 359150, Note_on_c, 0, 38, 93
1, 359153, Control_c, 0, 64, 0
1, 359156, Note_on_c, 0, 26, 86
1, 359177, Note_off_c, 0, 26, 64
1, 359179, Note_off_c, 0, 38, 67
1, 359183, Control_c, 0, 64, 53
1, 359188, Note_on_c, 0, 27, 28
1, 359198, Control_c, 0, 64, 84
1, 359213, Control_c, 0, 64, 110
1, 359235, Control_c, 0, 64, 127
1, 359236, Note_off_c, 0, 27, 57
1, 359287, Note_on_c, 0, 45, 76
1, 359308, Note_on_c, 0, 33, 42
1, 359317, Note_off_c, 0, 45, 66
1, 359332, Note_off_c, 0, 33, 61
1, 359362, Note_on_c, 0, 46, 91
1, 359374, Note_on_c, 0, 34, 73
1, 359406, Note_off_c, 0, 34, 63
1, 359409, Note_off_c, 0, 46, 63
1, 359424, Poly_aftertouch_c, 0, 40, 127
1, 359451, Poly_aftertouch_c, 0, 40, 0
1, 359471, Note_on_c, 0, 47, 92
1, 359475, Note_on_c, 0, 35, 86
1, 359501, Note_off_c, 0, 47, 64
1, 359508, Note_off_c, 0, 35, 67
1, 359561, Note_off_c, 0, 81, 56
1, 359562, Note_off_c, 0, 69, 36
1, 359585, Note_on_c, 0, 36, 91
1, 359595, Note_on_c, 0, 48, 78
1, 359622, Note_off_c, 0, 48, 69
1, 359622, Note_off_c, 0, 78, 53
1, 359675, Note_on_c, 0, 37, 13
1, 359686, Note_on_c, 0, 49, 82
1, 359698, Note_off_c, 0, 36, 51
1, 359710, Note_off_c, 0, 49, 67
1, 359728, Note_off_c, 0, 74, 64
1, 359729, Note_off_c, 0, 37, 64
1, 359754, Control_c, 0, 64, 99
1, 359755, Note_on_c, 0, 81, 98
1, 359756, Note_on_c, 0, 69, 103
1, 359758, Note_on_c, 0, 76, 100
1, 359769, Control_c, 0, 64, 73
1, 359782, Note_on_c, 0, 50, 73
1, 359784, Control_c, 0, 64, 31
1, 359788, Note_on_c, 0, 38, 73
1, 359798, Control_c, 0, 64, 65
1, 359814, Note_off_c, 0, 50, 65
1, 359814, Control_c, 0, 64, 80
1, 359829, Control_c, 0, 64, 104
1, 359844, Control_c, 0, 64, 127
1, 359874, Note_on_c, 0, 37, 69
1, 359876, Note_off_c, 0, 38, 61
1, 359881, Note_on_c, 0, 49, 63
1, 359925, Note_off_c, 0, 49, 62
1, 359959, Note_off_c, 0, 37, 64
1, 359999, Note_on_c, 0, 36, 80
1, 360000, Note_on_c, 0, 48, 72
1, 360000, Note_off_c, 0, 81, 53
1, 360038, Note_off_c, 0, 76, 50
1, 360039, Note_off_c, 0, 48, 63
1, 360047, Note_off_c, 0, 36, 61
1, 360080, Note_off_c, 0, 69, 37
1, 360122, Note_on_c, 0, 35, 74
1, 360131, Note_on_c, 0, 47, 56
1, 360147, Note_off_c, 0, 35, 66
1, 360153, Note_on_c, 0, 39, 51
1, 360153, Note_off_c, 0, 47, 62
1, 360181, Note_off_c, 0, 39, 55
1, 360202, Note_on_c, 0, 46, 95
1, 360211, Note_on_c, 0, 34, 85
1, 360212, Note_on_c, 0, 81, 90
1, 360218, Note_on_c, 0, 69, 79
1, 360220, Note_on_c, 0, 76, 74
1, 360254, Note_off_c, 0, 46, 65
1, 360307, Note_off_c, 0, 69, 62
1, 360311, Note_on_c, 0, 33, 78
1, 360311, Note_on_c, 0, 45, 55
1, 360322, Note_off_c, 0, 81, 58
1, 360333, Note_off_c, 0, 45, 60
1, 360339, Note_off_c, 0, 34, 64
1, 360343, Note_off_c, 0, 33, 69
1, 360384, Control_c, 0, 64, 90
1, 360400, Control_c, 0, 64, 64
1, 360403, Note_on_c, 0, 81, 95
1, 360406, Note_on_c, 0, 69, 91
1, 360414, Note_on_c, 0, 74, 72
1, 360414, Note_on_c, 0, 78, 83
1, 360415, Control_c, 0, 64, 0
1, 360419, Note_off_c, 0, 76, 64
1, 360421, Note_on_c, 0, 38, 93
1, 360427, Note_on_c, 0, 26, 91
1, 360429, Control_c, 0, 64, 45
1, 360444, Control_c, 0, 64, 73
1, 360453, Note_off_c, 0, 38, 67
1, 360456, Note_off_c, 0, 26, 66
1, 360459, Control_c, 0, 64, 97
1, 360462, Note_on_c, 0, 27, 25
1, 360474, Control_c, 0, 64, 127
1, 360503, Note_off_c, 0, 27, 52
1, 360561, Note_on_c, 0, 45, 69
1, 360569, Note_on_c, 0, 39, 60
1, 360584, Note_off_c, 0, 45, 64
1, 360602, Note_off_c, 0, 39, 62
1, 360625, Poly_aftertouch_c, 0, 33, 127
1, 360631, Note_on_c, 0, 46, 92
1, 360640, Note_on_c, 0, 34, 71
1, 360664, Note_off_c, 0, 34, 68
1, 360665, Note_off_c, 0, 46, 62
1, 360667, Poly_aftertouch_c, 0, 33, 0
1, 360714, Poly_aftertouch_c, 0, 35, 127
1, 360736, Note_on_c, 0, 35, 20
1, 360737, Note_on_c, 0, 47, 88
1, 360769, Note_off_c, 0, 47, 66
1, 360784, Note_off_c, 0, 35, 63
1, 360862, Note_on_c, 0, 36, 94
1, 360870, Note_on_c, 0, 48, 77
1, 360897, Note_off_c, 0, 48, 69
1, 360918, Note_off_c, 0, 81, 62
1, 360924, Note_off_c, 0, 74, 64
1, 360942, Note_off_c, 0, 78, 63
1, 360943, Note_on_c, 0, 37, 64
1, 360948, Note_on_c, 0, 49, 99
1, 360949, Poly_aftertouch_c, 0, 40, 127
1, 360959, Note_off_c, 0, 69, 65
1, 360961, Note_off_c, 0, 36, 53
1, 360970, Control_c, 0, 64, 110
1, 360980, Note_off_c, 0, 49, 62
1, 360985, Control_c, 0, 64, 79
1, 360989, Note_off_c, 0, 37, 65
1, 360989, Poly_aftertouch_c, 0, 40, 0
1, 361000, Control_c, 0, 64, 55
1, 361015, Control_c, 0, 64, 61
1, 361029, Control_c, 0, 64, 79
1, 361044, Control_c, 0, 64, 104
1, 361049, Note_on_c, 0, 38, 89
1, 361049, Note_on_c, 0, 50, 86
1, 361059, Control_c, 0, 64, 127
1, 361071, Note_off_c, 0, 50, 70
1, 361111, Note_off_c, 0, 38, 62
1, 361150, Note_on_c, 0, 49, 88
1, 361161, Note_on_c, 0, 37, 76
1, 361165, Poly_aftertouch_c, 0, 42, 0
1, 361210, Note_off_c, 0, 49, 62
1, 361264, Note_on_c, 0, 48, 81
1, 361269, Note_on_c, 0, 36, 75
1, 361300, Note_off_c, 0, 48, 64
1, 361308, Note_off_c, 0, 36, 64
1, 361329, Note_off_c, 0, 37, 35
1, 361331, Note_on_c, 0, 69, 82
1, 361344, Note_on_c, 0, 62, 69
1, 361344, Note_on_c, 0, 66, 79
1, 361373, Note_on_c, 0, 47, 85
1, 361375, Note_off_c, 0, 62, 62
1, 361379, Note_on_c, 0, 35, 79
1, 361391, Note_off_c, 0, 66, 63
1, 361396, Note_off_c, 0, 47, 68
1, 361396, Note_off_c, 0, 69, 66
1, 361405, Note_off_c, 0, 35, 66
1, 361451, Note_on_c, 0, 74, 80
1, 361473, Note_on_c, 0, 46, 92
1, 361484, Note_on_c, 0, 34, 81
1, 361503, Note_off_c, 0, 74, 65
1, 361510, Note_off_c, 0, 34, 66
1, 361520, Note_on_c, 0, 35, 25
1, 361528, Note_off_c, 0, 46, 63
1, 361571, Note_on_c, 0, 45, 55
1, 361577, Note_on_c, 0, 69, 84
1, 361578, Note_on_c, 0, 78, 83
1, 361587, Note_on_c, 0, 33, 70
1, 361598, Note_off_c, 0, 45, 63
1, 361613, Note_off_c, 0, 33, 66
1, 361615, Note_off_c, 0, 69, 60
1, 361627, Note_off_c, 0, 78, 61
1, 361644, Note_off_c, 0, 35, 41
1, 361645, Control_c, 0, 64, 86
1, 361660, Control_c, 0, 64, 64
1, 361672, Note_on_c, 0, 81, 67
1, 361675, Control_c, 0, 64, 55
1, 361678, Note_on_c, 0, 69, 102
1, 361679, Note_on_c, 0, 78, 92
1, 361681, Note_on_c, 0, 74, 88
1, 361690, Control_c, 0, 64, 74
1, 361695, Note_on_c, 0, 38, 98
1, 361697, Note_on_c, 0, 26, 92
1, 361705, Control_c, 0, 64, 95
1, 361711, Note_on_c, 0, 27, 61
1, 361720, Control_c, 0, 64, 127
1, 361727, Note_off_c, 0, 26, 65
1, 361730, Note_off_c, 0, 38, 61
1, 361742, Note_off_c, 0, 27, 60
1, 361746, Note_on_c, 0, 36, 5
1, 361792, Note_off_c, 0, 36, 39
1, 361800, Poly_aftertouch_c, 0, 30, 0
1, 361838, Note_on_c, 0, 45, 70
1, 361842, Note_on_c, 0, 39, 67
1, 361860, Note_off_c, 0, 45, 63
1, 361875, Note_off_c, 0, 39, 62
1, 361901, Poly_aftertouch_c, 0, 33, 127
1, 361912, Note_on_c, 0, 46, 93
1, 361919, Note_on_c, 0, 34, 74
1, 361945, Poly_aftertouch_c, 0, 33, 0
1, 361952, Note_off_c, 0, 46, 62
1, 361957, Note_off_c, 0, 34, 65
1, 362016, Note_on_c, 0, 47, 92
1, 362023, Note_on_c, 0, 35, 79
1, 362055, Note_off_c, 0, 47, 63
1, 362062, Note_off_c, 0, 35, 64
1, 362107, Note_off_c, 0, 69, 44
1, 362135, Note_on_c, 0, 36, 88
1, 362138, Note_off_c, 0, 81, 58
1, 362152, Note_on_c, 0, 48, 60
1, 362175, Note_off_c, 0, 48, 62
1, 362176, Note_on_c, 0, 41, 55
1, 362188, Note_on_c, 0, 42, 11
1, 362189, Note_off_c, 0, 78, 53
1, 362224, Note_off_c, 0, 41, 47
1, 362224, Note_off_c, 0, 42, 0
1, 362230, Note_off_c, 0, 36, 61
1, 362231, Note_on_c, 0, 49, 88
1, 362235, Note_on_c, 0, 37, 70
1, 362245, Poly_aftertouch_c, 0, 42, 0
1, 362273, Note_off_c, 0, 37, 67
1, 362274, Note_off_c, 0, 49, 63
1, 362283, Note_off_c, 0, 74, 66
1, 362312, Note_on_c, 0, 81, 103
1, 362313, Note_on_c, 0, 69, 104
1, 362313, Note_on_c, 0, 76, 102
1, 362319, Control_c, 0, 64, 103
1, 362334, Control_c, 0, 64, 76
1, 362335, Note_on_c, 0, 50, 90
1, 362346, Note_on_c, 0, 38, 66
1, 362349, Control_c, 0, 64, 51
1, 362358, Note_on_c, 0, 40, 49
1, 362364, Control_c, 0, 64, 63
1, 362366, Note_off_c, 0, 50, 64
1, 362379, Control_c, 0, 64, 75
1, 362388, Note_off_c, 0, 38, 63
1, 362391, Note_off_c, 0, 40, 54
1, 362393, Control_c, 0, 64, 93
1, 362408, Control_c, 0, 64, 120
1, 362423, Control_c, 0, 64, 127
1, 362451, Note_on_c, 0, 49, 82
1, 362452, Note_on_c, 0, 37, 81
1, 362492, Note_off_c, 0, 37, 64
1, 362494, Note_off_c, 0, 49, 58
1, 362559, Note_on_c, 0, 48, 78
1, 362561, Note_on_c, 0, 36, 76
1, 362591, Note_off_c, 0, 48, 64
1, 362593, Note_off_c, 0, 76, 56
1, 362601, Note_off_c, 0, 36, 65
1, 362607, Note_off_c, 0, 81, 56
1, 362635, Note_off_c, 0, 69, 60
1, 362676, Note_on_c, 0, 47, 82
1, 362685, Note_on_c, 0, 35, 69
1, 362700, Note_off_c, 0, 47, 68
1, 362709, Note_off_c, 0, 35, 61
1, 362731, Note_on_c, 0, 37, 16
1, 362776, Note_on_c, 0, 46, 91
1, 362780, Note_off_c, 0, 37, 40
1, 362797, Note_on_c, 0, 34, 61
1, 362800, Note_on_c, 0, 81, 87
1, 362807, Note_on_c, 0, 69, 79
1, 362808, Note_on_c, 0, 76, 81
1, 362828, Note_off_c, 0, 34, 65
1, 362829, Note_off_c, 0, 46, 64
1, 362887, Note_off_c, 0, 69, 62
1, 362898, Note_on_c, 0, 33, 78
1, 362898, Note_on_c, 0, 45, 72
1, 362913, Note_off_c, 0, 81, 56
1, 362930, Note_off_c, 0, 45, 65
1, 362933, Note_off_c, 0, 33, 66
1, 362980, Poly_aftertouch_c, 0, 43, 127
1, 362995, Control_c, 0, 64, 120
1, 363010, Control_c, 0, 64, 87
1, 363018, Note_on_c, 0, 81, 100
1, 363019, Note_on_c, 0, 69, 97
1, 363022, Note_on_c, 0, 74, 79
1, 363022, Poly_aftertouch_c, 0, 43, 0
1, 363025, Control_c, 0, 64, 68
1, 363027, Note_on_c, 0, 78, 85
1, 363028, Note_on_c, 0, 50, 84
1, 363033, Note_off_c, 0, 76, 63
1, 363040, Control_c, 0, 64, 64
1, 363043, Note_on_c, 0, 38, 61
1, 363051, Note_off_c, 0, 50, 67
1, 363055, Control_c, 0, 64, 75
1, 363060, Note_on_c, 0, 42, 32
1, 363070, Control_c, 0, 64, 93
1, 363072, Note_off_c, 0, 38, 57
1, 363085, Control_c, 0, 64, 127
1, 363098, Note_off_c, 0, 42, 53
1, 363125, Note_on_c, 0, 49, 88
1, 363138, Note_on_c, 0, 37, 64
1, 363147, Note_on_c, 0, 39, 47
1, 363159, Note_off_c, 0, 49, 62
1, 363165, Note_off_c, 0, 37, 66
1, 363177, Note_off_c, 0, 39, 51
1, 363195, Note_off_c, 0, 69, 51
1, 363225, Note_off_c, 0, 81, 53
1, 363232, Note_on_c, 0, 48, 84
1, 363238, Note_on_c, 0, 36, 80
1, 363265, Note_off_c, 0, 48, 64
1, 363268, Note_off_c, 0, 78, 50
1, 363278, Note_off_c, 0, 36, 66
1, 363304, Note_off_c, 0, 74, 65
1, 363332, Note_on_c, 0, 69, 94
1, 363335, Note_on_c, 0, 81, 99
1, 363338, Note_on_c, 0, 76, 93
1, 363353, Note_on_c, 0, 47, 83
1, 363357, Note_on_c, 0, 35, 81
1, 363360, Poly_aftertouch_c, 0, 39, 0
1, 363371, Note_on_c, 0, 39, 40
1, 363374, Note_off_c, 0, 47, 68
1, 363384, Note_off_c, 0, 35, 66
1, 363401, Note_off_c, 0, 39, 56
1, 363443, Note_on_c, 0, 46, 97
1, 363459, Note_on_c, 0, 34, 70
1, 363460, Note_on_c, 0, 35, 61
1, 363465, Note_off_c, 0, 81, 57
1, 363472, Note_off_c, 0, 69, 47
1, 363481, Note_off_c, 0, 46, 65
1, 363487, Note_off_c, 0, 35, 65
1, 363488, Note_off_c, 0, 34, 65
1, 363545, Note_on_c, 0, 45, 92
1, 363547, Note_on_c, 0, 33, 86
1, 363570, Note_on_c, 0, 35, 39
1, 363578, Note_off_c, 0, 45, 64
1, 363580, Note_off_c, 0, 33, 68
1, 363590, Note_off_c, 0, 35, 64
1, 363613, Note_off_c, 0, 76, 65
1, 363637, Note_on_c, 0, 69, 100
1, 363639, Note_on_c, 0, 81, 104
1, 363641, Note_on_c, 0, 74, 95
1, 363647, Note_on_c, 0, 78, 91
1, 363657, Note_on_c, 0, 50, 97
1, 363666, Note_on_c, 0, 38, 79
1, 363679, Note_on_c, 0, 79, 57
1, 363690, Note_on_c, 0, 42, 44
1, 363696, Note_off_c, 0, 50, 61
1, 363697, Note_off_c, 0, 38, 64
1, 363709, Note_on_c, 0, 44, 21
1, 363731, Note_off_c, 0, 42, 52
1, 363755, Note_off_c, 0, 44, 44
1, 363774, Note_off_c, 0, 78, 61
1, 363774, Note_off_c, 0, 79, 27
1, 363777, Note_on_c, 0, 49, 99
1, 363788, Note_on_c, 0, 37, 78
1, 363792, Note_on_c, 0, 39, 70
1, 363802, Note_off_c, 0, 69, 57
1, 363803, Note_off_c, 0, 81, 52
1, 363815, Note_off_c, 0, 49, 65
1, 363818, Note_off_c, 0, 39, 60
1, 363821, Note_off_c, 0, 37, 64
1, 363889, Note_on_c, 0, 48, 97
1, 363901, Note_on_c, 0, 36, 85
1, 363916, Note_on_c, 0, 39, 47
1, 363928, Note_off_c, 0, 48, 67
1, 363931, Note_off_c, 0, 36, 67
1, 363947, Note_off_c, 0, 74, 63
1, 363950, Note_off_c, 0, 39, 46
1, 363980, Note_on_c, 0, 81, 103
1, 363981, Note_on_c, 0, 69, 103
1, 363983, Note_on_c, 0, 76, 99
1, 364001, Note_on_c, 0, 47, 101
1, 364009, Note_on_c, 0, 35, 89
1, 364034, Note_off_c, 0, 35, 69
1, 364034, Note_off_c, 0, 47, 65
1, 364035, Note_on_c, 0, 37, 48
1, 364062, Note_off_c, 0, 37, 59
1, 364104, Note_on_c, 0, 46, 103
1, 364116, Note_on_c, 0, 34, 79
1, 364116, Note_off_c, 0, 69, 51
1, 364121, Note_off_c, 0, 81, 56
1, 364136, Note_off_c, 0, 34, 67
1, 364155, Note_off_c, 0, 46, 62
1, 364158, Note_on_c, 0, 35, 22
1, 364178, Note_off_c, 0, 35, 53
1, 364213, Note_on_c, 0, 45, 87
1, 364216, Note_on_c, 0, 33, 84
1, 364254, Note_off_c, 0, 45, 64
1, 364259, Note_off_c, 0, 33, 65
1, 364290, Note_off_c, 0, 76, 63
1, 364292, Control_c, 0, 64, 101
1, 364307, Control_c, 0, 64, 74
1, 364314, Note_on_c, 0, 69, 96
1, 364314, Note_on_c, 0, 81, 99
1, 364320, Note_on_c, 0, 77, 94
1, 364322, Control_c, 0, 64, 60
1, 364330, Note_on_c, 0, 49, 102
1, 364337, Control_c, 0, 64, 69
1, 364349, Note_on_c, 0, 37, 67
1, 364352, Control_c, 0, 64, 89
1, 364366, Note_off_c, 0, 49, 58
1, 364366, Control_c, 0, 64, 127
1, 364373, Note_off_c, 0, 37, 59
1, 364377, Note_on_c, 0, 39, 21
1, 364408, Note_off_c, 0, 69, 62
1, 364417, Note_off_c, 0, 39, 39
1, 364455, Note_off_c, 0, 81, 60
1, 364473, Note_on_c, 0, 48, 82
1, 364500, Note_off_c, 0, 48, 66
1, 364507, Note_on_c, 0, 36, 25
1, 364548, Note_off_c, 0, 36, 52
1, 364575, Note_on_c, 0, 47, 91
1, 364578, Note_on_c, 0, 35, 84
1, 364600, Note_off_c, 0, 47, 69
1, 364604, Note_off_c, 0, 35, 67
1, 364662, Note_off_c, 0, 77, 58
1, 364686, Note_on_c, 0, 82, 101
1, 364688, Note_on_c, 0, 49, 98
1, 364688, Note_on_c, 0, 70, 97
1, 364689, Note_on_c, 0, 73, 94
1, 364712, Note_on_c, 0, 39, 65
1, 364715, Note_on_c, 0, 37, 56
1, 364726, Note_off_c, 0, 49, 63
1, 364736, Note_off_c, 0, 39, 56
1, 364740, Note_off_c, 0, 37, 59
1, 364804, Note_off_c, 0, 82, 47
1, 364812, Note_on_c, 0, 46, 97
1, 364815, Note_off_c, 0, 70, 53
1, 364824, Note_on_c, 0, 34, 78
1, 364844, Note_on_c, 0, 39, 27
1, 364848, Note_off_c, 0, 34, 67
1, 364850, Note_off_c, 0, 46, 63
1, 364866, Note_on_c, 0, 37, 3
1, 364892, Note_off_c, 0, 37, 57
1, 364894, Note_off_c, 0, 39, 38
1, 364921, Note_on_c, 0, 45, 96
1, 364929, Note_on_c, 0, 33, 87
1, 364936, Note_on_c, 0, 34, 67
1, 364958, Note_off_c, 0, 33, 70
1, 364958, Note_off_c, 0, 45, 68
1, 364962, Note_off_c, 0, 34, 67
1, 364989, Note_off_c, 0, 73, 61
1, 365021, Note_on_c, 0, 69, 101
1, 365021, Note_on_c, 0, 81, 101
1, 365025, Note_on_c, 0, 77, 92
1, 365040, Note_on_c, 0, 49, 100
1, 365042, Note_on_c, 0, 73, 53
1, 365056, Note_on_c, 0, 37, 75
1, 365064, Note_off_c, 0, 73, 53
1, 365084, Note_off_c, 0, 37, 65
1, 365086, Note_off_c, 0, 49, 62
1, 365124, Note_off_c, 0, 81, 58
1, 365151, Note_off_c, 0, 69, 60
1, 365174, Note_on_c, 0, 44, 97
1, 365186, Note_on_c, 0, 32, 80
1, 365189, Note_on_c, 0, 34, 74
1, 365221, Note_off_c, 0, 34, 67
1, 365222, Note_off_c, 0, 44, 65
1, 365226, Note_off_c, 0, 32, 63
1, 365297, Note_on_c, 0, 43, 102
1, 365305, Note_on_c, 0, 31, 91
1, 365309, Note_on_c, 0, 34, 57
1, 365313, Note_on_c, 0, 32, 68
1, 365329, Note_off_c, 0, 34, 63
1, 365339, Note_off_c, 0, 43, 64
1, 365341, Note_off_c, 0, 31, 65
1, 365343, Note_off_c, 0, 32, 63
1, 365385, Note_off_c, 0, 77, 58
1, 365401, Poly_aftertouch_c, 0, 70, 0
1, 365410, Note_on_c, 0, 70, 84
1, 365411, Note_on_c, 0, 82, 103
1, 365417, Note_on_c, 0, 73, 89
1, 365423, Note_on_c, 0, 49, 101
1, 365434, Note_on_c, 0, 37, 79
1, 365443, Note_on_c, 0, 39, 69
1, 365453, Note_off_c, 0, 49, 65
1, 365454, Note_off_c, 0, 37, 68
1, 365468, Note_off_c, 0, 39, 59
1, 365493, Note_off_c, 0, 73, 51
1, 365499, Note_off_c, 0, 70, 60
1, 365544, Note_off_c, 0, 82, 60
1, 365561, Poly_aftertouch_c, 0, 36, 0
1, 365579, Note_on_c, 0, 42, 97
1, 365593, Note_on_c, 0, 30, 82
1, 365598, Note_on_c, 0, 32, 68
1, 365619, Note_off_c, 0, 30, 63
1, 365628, Note_on_c, 0, 34, 14
1, 365629, Note_off_c, 0, 32, 63
1, 365636, Note_off_c, 0, 42, 62
1, 365661, Note_off_c, 0, 34, 53
1, 365705, Note_on_c, 0, 41, 97
1, 365719, Note_on_c, 0, 29, 80
1, 365742, Note_on_c, 0, 30, 23
1, 365750, Note_off_c, 0, 29, 62
1, 365759, Note_off_c, 0, 41, 65
1, 365760, Control_c, 0, 64, 95
1, 365775, Control_c, 0, 64, 26
1, 365778, Note_off_c, 0, 30, 58
1, 365790, Control_c, 0, 64, 0
1, 365794, Poly_aftertouch_c, 0, 32, 0
1, 365799, Note_on_c, 0, 73, 106
1, 365803, Note_on_c, 0, 85, 94
1, 365805, Note_on_c, 0, 82, 97
1, 365806, Note_on_c, 0, 79, 91
1, 365820, Note_on_c, 0, 40, 103
1, 365829, Note_on_c, 0, 28, 91
1, 365834, Control_c, 0, 64, 80
1, 365849, Note_off_c, 0, 85, 67
1, 365849, Control_c, 0, 64, 127
1, 365857, Note_off_c, 0, 28, 67
1, 365859, Note_on_c, 0, 30, 44
1, 365884, Note_off_c, 0, 40, 67
1, 365887, Note_off_c, 0, 30, 57
1, 365889, Note_off_c, 0, 79, 66
1, 365895, Note_off_c, 0, 82, 69
1, 365911, Note_off_c, 0, 73, 65
1, 365914, Poly_aftertouch_c, 0, 29, 127
1, 365917, Note_on_c, 0, 78, 15
1, 365947, Poly_aftertouch_c, 0, 29, 0
1, 365966, Note_off_c, 0, 78, 36
1, 366124, Control_c, 0, 64, 89
1, 366139, Control_c, 0, 64, 0
1, 366539, Control_c, 0, 64, 75
1, 366554, Control_c, 0, 64, 127
1, 366560, Note_on_c, 0, 52, 97
1, 366561, Note_on_c, 0, 64, 97
1, 366561, Note_on_c, 0, 40, 83
1, 366563, Note_on_c, 0, 28, 77
1, 366596, Note_off_c, 0, 28, 61
1, 366597, Note_off_c, 0, 52, 68
1, 366598, Note_off_c, 0, 40, 62
1, 366600, Note_off_c, 0, 64, 66
1, 366689, Note_on_c, 0, 41, 77
1, 366690, Note_on_c, 0, 65, 102
1, 366692, Note_on_c, 0, 53, 97
1, 366696, Note_on_c, 0, 29, 67
1, 366724, Note_off_c, 0, 41, 66
1, 366735, Note_off_c, 0, 29, 58
1, 366735, Note_off_c, 0, 65, 68
1, 366737, Note_off_c, 0, 53, 67
1, 366809, Note_on_c, 0, 67, 96
1, 366814, Note_on_c, 0, 55, 88
1, 366822, Note_on_c, 0, 31, 77
1, 366827, Note_on_c, 0, 43, 69
1, 366842, Note_off_c, 0, 55, 64
1, 366846, Note_off_c, 0, 31, 66
1, 366850, Note_off_c, 0, 43, 61
1, 366850, Note_off_c, 0, 67, 65
1, 366920, Note_on_c, 0, 68, 100
1, 366921, Note_on_c, 0, 56, 89
1, 366924, Note_on_c, 0, 44, 85
1, 366928, Note_on_c, 0, 32, 81
1, 366959, Note_off_c, 0, 56, 63
1, 366960, Note_off_c, 0, 44, 63
1, 366963, Note_off_c, 0, 68, 62
1, 366964, Note_off_c, 0, 32, 64
1, 367031, Note_on_c, 0, 70, 96
1, 367034, Note_on_c, 0, 58, 82
1, 367035, Note_on_c, 0, 46, 83
1, 367035, Note_on_c, 0, 34, 82
1, 367070, Note_off_c, 0, 70, 65
1, 367071, Note_off_c, 0, 58, 64
1, 367072, Note_off_c, 0, 34, 67
1, 367074, Note_off_c, 0, 46, 61
1, 367124, Control_c, 0, 64, 104
1, 367138, Note_on_c, 0, 72, 105
1, 367139, Note_on_c, 0, 60, 96
1, 367139, Control_c, 0, 64, 68
1, 367149, Note_on_c, 0, 36, 72
1, 367154, Control_c, 0, 64, 0
1, 367172, Note_off_c, 0, 60, 64
1, 367177, Note_off_c, 0, 72, 72
1, 367187, Note_off_c, 0, 36, 66
1, 367198, Control_c, 0, 64, 46
1, 367213, Control_c, 0, 64, 74
1, 367228, Control_c, 0, 64, 91
1, 367231, Note_on_c, 0, 73, 112
1, 367233, Note_on_c, 0, 61, 100
1, 367243, Control_c, 0, 64, 126
1, 367244, Note_on_c, 0, 37, 81
1, 367244, Note_on_c, 0, 49, 84
1, 367257, Note_off_c, 0, 73, 72
1, 367258, Control_c, 0, 64, 127
1, 367263, Note_off_c, 0, 49, 67
1, 367265, Note_off_c, 0, 61, 64
1, 367287, Note_off_c, 0, 37, 63
1, 367372, Note_on_c, 0, 31, 73
1, 367377, Note_on_c, 0, 67, 78
1, 367384, Note_on_c, 0, 55, 65
1, 367398, Note_off_c, 0, 67, 70
1, 367404, Note_off_c, 0, 55, 62
1, 367416, Note_off_c, 0, 31, 64
1, 367482, Note_on_c, 0, 68, 82
1, 367484, Note_on_c, 0, 56, 78
1, 367485, Note_on_c, 0, 32, 76
1, 367485, Note_on_c, 0, 44, 77
1, 367509, Note_off_c, 0, 56, 67
1, 367514, Note_off_c, 0, 68, 57
1, 367522, Note_off_c, 0, 44, 61
1, 367533, Note_off_c, 0, 32, 61
1, 367588, Note_on_c, 0, 70, 90
1, 367593, Note_on_c, 0, 58, 80
1, 367604, Note_on_c, 0, 46, 72
1, 367604, Note_on_c, 0, 34, 61
1, 367619, Note_off_c, 0, 58, 68
1, 367634, Note_off_c, 0, 70, 62
1, 367635, Note_off_c, 0, 46, 63
1, 367640, Note_off_c, 0, 34, 64
1, 367696, Note_on_c, 0, 72, 88
1, 367704, Note_on_c, 0, 60, 77
1, 367705, Note_on_c, 0, 36, 74
1, 367735, Note_off_c, 0, 72, 65
1, 367744, Note_off_c, 0, 36, 63
1, 367774, Poly_aftertouch_c, 0, 48, 127
1, 367800, Note_on_c, 0, 73, 90
1, 367804, Note_on_c, 0, 49, 83
1, 367805, Note_on_c, 0, 37, 80
1, 367813, Poly_aftertouch_c, 0, 48, 0
1, 367819, Note_off_c, 0, 60, 60
1, 367822, Note_on_c, 0, 62, 35
1, 367844, Note_off_c, 0, 73, 61
1, 367850, Note_off_c, 0, 37, 63
1, 367850, Note_off_c, 0, 49, 60
1, 367860, Note_off_c, 0, 62, 47
1, 367911, Note_on_c, 0, 64, 83
1, 367911, Note_on_c, 0, 76, 91
1, 367929, Note_on_c, 0, 52, 80
1, 367933, Note_on_c, 0, 40, 66
1, 367934, Note_off_c, 0, 64, 69
1, 367948, Note_off_c, 0, 76, 65
1, 367953, Note_off_c, 0, 52, 72
1, 367958, Note_off_c, 0, 40, 61
1, 368008, Note_on_c, 0, 77, 101
1, 368011, Poly_aftertouch_c, 0, 41, 127
1, 368015, Note_on_c, 0, 65, 92
1, 368018, Note_on_c, 0, 53, 84
1, 368039, Note_off_c, 0, 65, 67
1, 368042, Note_off_c, 0, 53, 71
1, 368047, Note_off_c, 0, 77, 66
1, 368061, Note_on_c, 0, 44, 30
1, 368066, Control_c, 0, 64, 93
1, 368068, Poly_aftertouch_c, 0, 41, 0
1, 368081, Control_c, 0, 64, 71
1, 368090, Note_off_c, 0, 44, 50
1, 368096, Control_c, 0, 64, 36
1, 368111, Control_c, 0, 64, 65
1, 368126, Control_c, 0, 64, 76
1, 368132, Note_on_c, 0, 70, 98
1, 368138, Note_on_c, 0, 34, 80
1, 368138, Note_on_c, 0, 58, 84
1, 368140, Note_on_c, 0, 46, 74
1, 368140, Control_c, 0, 64, 93
1, 368155, Control_c, 0, 64, 127
1, 368158, Note_off_c, 0, 58, 72
1, 368169, Note_off_c, 0, 34, 66
1, 368172, Note_off_c, 0, 46, 64
1, 368189, Note_off_c, 0, 70, 61
1, 368245, Note_on_c, 0, 72, 92
1, 368251, Note_on_c, 0, 60, 86
1, 368263, Note_on_c, 0, 48, 75
1, 368264, Note_on_c, 0, 36, 67
1, 368271, Note_off_c, 0, 60, 69
1, 368283, Note_off_c, 0, 72, 69
1, 368291, Note_on_c, 0, 38, 36
1, 368292, Note_off_c, 0, 36, 65
1, 368304, Note_off_c, 0, 48, 44
1, 368334, Note_off_c, 0, 38, 47
1, 368349, Note_on_c, 0, 73, 95
1, 368355, Note_on_c, 0, 61, 87
1, 368367, Note_on_c, 0, 37, 76
1, 368379, Note_off_c, 0, 61, 68
1, 368401, Note_off_c, 0, 73, 61
1, 368419, Note_off_c, 0, 37, 61
1, 368459, Note_on_c, 0, 76, 98
1, 368460, Note_on_c, 0, 64, 90
1, 368485, Note_on_c, 0, 52, 69
1, 368498, Note_off_c, 0, 64, 64
1, 368500, Note_off_c, 0, 76, 70
1, 368506, Note_off_c, 0, 52, 65
1, 368567, Note_on_c, 0, 77, 94
1, 368567, Poly_aftertouch_c, 0, 50, 0
1, 368568, Note_on_c, 0, 65, 85
1, 368588, Poly_aftertouch_c, 0, 50, 0
1, 368591, Note_off_c, 0, 65, 70
1, 368602, Note_on_c, 0, 41, 56
1, 368602, Note_on_c, 0, 53, 71
1, 368607, Note_off_c, 0, 77, 58
1, 368622, Note_off_c, 0, 53, 69
1, 368632, Note_off_c, 0, 41, 57
1, 368675, Note_on_c, 0, 79, 91
1, 368679, Note_on_c, 0, 67, 81
1, 368698, Note_on_c, 0, 55, 56
1, 368701, Note_off_c, 0, 67, 68
1, 368704, Note_on_c, 0, 46, 56
1, 368709, Note_off_c, 0, 79, 66
1, 368720, Note_off_c, 0, 55, 60
1, 368728, Note_off_c, 0, 46, 57
1, 368766, Note_on_c, 0, 80, 99
1, 368767, Note_on_c, 0, 68, 92
1, 368777, Note_on_c, 0, 56, 76
1, 368793, Note_off_c, 0, 56, 68
1, 368796, Note_off_c, 0, 68, 61
1, 368796, Note_off_c, 0, 80, 70
1, 368820, Note_on_c, 0, 46, 19
1, 368844, Control_c, 0, 64, 96
1, 368859, Control_c, 0, 64, 77
1, 368862, Note_off_c, 0, 46, 40
1, 368874, Control_c, 0, 64, 68
1, 368888, Control_c, 0, 64, 73
1, 368889, Note_on_c, 0, 76, 97
1, 368892, Note_on_c, 0, 64, 86
1, 368898, Note_on_c, 0, 40, 76
1, 368903, Control_c, 0, 64, 84
1, 368911, Note_off_c, 0, 64, 72
1, 368917, Note_on_c, 0, 52, 40
1, 368918, Control_c, 0, 64, 100
1, 368927, Note_off_c, 0, 76, 65
1, 368930, Note_off_c, 0, 40, 64
1, 368933, Control_c, 0, 64, 120
1, 368945, Note_off_c, 0, 52, 54
1, 368948, Control_c, 0, 64, 127
1, 369004, Note_on_c, 0, 77, 98
1, 369004, Poly_aftertouch_c, 0, 50, 0
1, 369009, Note_on_c, 0, 65, 83
1, 369026, Note_on_c, 0, 41, 75
1, 369029, Note_on_c, 0, 53, 74
1, 369031, Note_off_c, 0, 65, 72
1, 369036, Note_off_c, 0, 77, 61
1, 369053, Note_off_c, 0, 41, 68
1, 369054, Note_off_c, 0, 53, 69
1, 369110, Note_on_c, 0, 79, 91
1, 369115, Note_on_c, 0, 67, 85
1, 369137, Note_off_c, 0, 67, 70
1, 369139, Note_on_c, 0, 43, 67
1, 369143, Note_off_c, 0, 79, 66
1, 369148, Note_on_c, 0, 55, 49
1, 369163, Note_off_c, 0, 43, 60
1, 369178, Note_off_c, 0, 55, 54
1, 369211, Note_on_c, 0, 80, 99
1, 369215, Note_on_c, 0, 68, 83
1, 369234, Note_on_c, 0, 56, 83
1, 369237, Note_off_c, 0, 68, 68
1, 369239, Note_on_c, 0, 44, 70
1, 369257, Note_off_c, 0, 80, 61
1, 369261, Note_off_c, 0, 56, 64
1, 369268, Note_off_c, 0, 44, 64
1, 369310, Note_on_c, 0, 82, 100
1, 369313, Note_on_c, 0, 46, 67
1, 369316, Note_on_c, 0, 70, 82
1, 369337, Note_on_c, 0, 58, 62
1, 369339, Note_off_c, 0, 70, 68
1, 369353, Note_off_c, 0, 82, 64
1, 369354, Note_off_c, 0, 58, 67
1, 369369, Note_off_c, 0, 46, 62
1, 369418, Note_on_c, 0, 84, 100
1, 369419, Note_on_c, 0, 72, 96
1, 369438, Note_on_c, 0, 48, 74
1, 369445, Control_c, 0, 64, 92
1, 369453, Note_off_c, 0, 72, 65
1, 369457, Note_off_c, 0, 84, 70
1, 369459, Control_c, 0, 64, 66
1, 369471, Note_off_c, 0, 48, 66
1, 369474, Control_c, 0, 64, 0
1, 369504, Control_c, 0, 64, 67
1, 369509, Note_on_c, 0, 85, 99
1, 369512, Note_on_c, 0, 73, 90
1, 369518, Control_c, 0, 64, 82
1, 369528, Note_on_c, 0, 49, 77
1, 369533, Control_c, 0, 64, 109
1, 369535, Note_off_c, 0, 85, 70
1, 369536, Note_off_c, 0, 73, 65
1, 369549, Control_c, 0, 64, 127
1, 369554, Note_off_c, 0, 49, 56
1, 369647, Note_on_c, 0, 43, 75
1, 369654, Note_on_c, 0, 79, 62
1, 369656, Note_on_c, 0, 67, 51
1, 369671, Note_off_c, 0, 79, 62
1, 369676, Note_on_c, 0, 77, 13
1, 369679, Note_off_c, 0, 67, 58
1, 369685, Note_off_c, 0, 43, 60
1, 369736, Note_on_c, 0, 80, 95
1, 369736, Note_off_c, 0, 77, 27
1, 369738, Note_on_c, 0, 68, 95
1, 369749, Note_on_c, 0, 56, 80
1, 369752, Note_on_c, 0, 44, 69
1, 369776, Note_off_c, 0, 68, 61
1, 369777, Note_off_c, 0, 56, 62
1, 369780, Note_off_c, 0, 44, 66
1, 369782, Note_off_c, 0, 80, 63
1, 369838, Note_on_c, 0, 82, 94
1, 369841, Note_on_c, 0, 70, 83
1, 369855, Note_on_c, 0, 58, 73
1, 369857, Note_on_c, 0, 46, 70
1, 369872, Note_off_c, 0, 70, 62
1, 369879, Note_off_c, 0, 58, 68
1, 369883, Note_off_c, 0, 82, 64
1, 369887, Note_off_c, 0, 46, 64
1, 369944, Note_on_c, 0, 84, 97
1, 369947, Note_on_c, 0, 72, 86
1, 369968, Note_on_c, 0, 48, 67
1, 369970, Note_off_c, 0, 72, 69
1, 369986, Note_off_c, 0, 84, 68
1, 369998, Note_off_c, 0, 48, 67
1, 370042, Note_on_c, 0, 85, 103
1, 370047, Note_on_c, 0, 73, 92
1, 370059, Note_on_c, 0, 61, 78
1, 370060, Note_on_c, 0, 49, 78
1, 370066, Note_off_c, 0, 73, 73
1, 370082, Note_off_c, 0, 61, 67
1, 370084, Note_off_c, 0, 49, 68
1, 370093, Note_off_c, 0, 85, 62
1, 370153, Note_on_c, 0, 76, 93
1, 370153, Note_on_c, 0, 88, 95
1, 370170, Note_on_c, 0, 64, 80
1, 370172, Note_on_c, 0, 89, 61
1, 370173, Note_off_c, 0, 89, 127
1, 370179, Note_off_c, 0, 76, 63
1, 370183, Note_on_c, 0, 52, 53
1, 370191, Note_off_c, 0, 88, 65
1, 370193, Note_off_c, 0, 64, 71
1, 370206, Note_off_c, 0, 52, 60
1, 370248, Note_on_c, 0, 89, 94
1, 370255, Note_on_c, 0, 77, 87
1, 370266, Note_on_c, 0, 65, 79
1, 370287, Note_off_c, 0, 77, 62
1, 370287, Note_off_c, 0, 65, 72
1, 370290, Note_off_c, 0, 89, 66
1, 370328, Control_c, 0, 64, 91
1, 370342, Control_c, 0, 64, 64
1, 370357, Control_c, 0, 64, 0
1, 370372, Control_c, 0, 64, 55
1, 370373, Note_on_c, 0, 82, 97
1, 370380, Note_on_c, 0, 70, 87
1, 370387, Control_c, 0, 64, 76
1, 370394, Note_on_c, 0, 46, 72
1, 370398, Note_off_c, 0, 70, 73
1, 370402, Control_c, 0, 64, 105
1, 370409, Note_on_c, 0, 58, 59
1, 370416, Control_c, 0, 64, 127
1, 370421, Note_off_c, 0, 46, 63
1, 370425, Note_off_c, 0, 82, 65
1, 370429, Note_off_c, 0, 58, 62
1, 370497, Note_on_c, 0, 84, 101
1, 370498, Note_on_c, 0, 72, 93
1, 370516, Note_on_c, 0, 48, 78
1, 370520, Note_on_c, 0, 60, 73
1, 370526, Note_off_c, 0, 72, 65
1, 370534, Note_off_c, 0, 84, 67
1, 370536, Note_off_c, 0, 60, 66
1, 370543, Note_off_c, 0, 48, 66
1, 370609, Note_on_c, 0, 85, 101
1, 370618, Note_on_c, 0, 73, 85
1, 370621, Note_on_c, 0, 61, 85
1, 370627, Note_on_c, 0, 49, 73
1, 370635, Note_off_c, 0, 73, 72
1, 370643, Note_off_c, 0, 61, 68
1, 370651, Note_off_c, 0, 49, 66
1, 370665, Note_off_c, 0, 85, 62
1, 370731, Note_on_c, 0, 88, 102
1, 370732, Note_on_c, 0, 76, 98
1, 370753, Note_on_c, 0, 64, 71
1, 370758, Note_on_c, 0, 52, 63
1, 370768, Note_off_c, 0, 76, 69
1, 370776, Note_off_c, 0, 88, 64
1, 370780, Note_off_c, 0, 64, 68
1, 370780, Note_off_c, 0, 52, 63
1, 370852, Note_on_c, 0, 89, 101
1, 370853, Note_on_c, 0, 77, 100
1, 370883, Note_on_c, 0, 65, 79
1, 370890, Note_off_c, 0, 77, 65
1, 370896, Note_off_c, 0, 89, 65
1, 370899, Note_on_c, 0, 55, 46
1, 370907, Note_off_c, 0, 65, 71
1, 370927, Note_off_c, 0, 55, 56
1, 370974, Note_on_c, 0, 91, 100
1, 370975, Note_on_c, 0, 79, 95
1, 370996, Note_on_c, 0, 67, 70
1, 371013, Note_off_c, 0, 79, 67
1, 371016, Note_on_c, 0, 55, 34
1, 371017, Note_off_c, 0, 67, 67
1, 371019, Note_off_c, 0, 91, 64
1, 371050, Note_off_c, 0, 55, 50
1, 371087, Note_on_c, 0, 92, 104
1, 371090, Note_on_c, 0, 80, 95
1, 371106, Note_on_c, 0, 68, 73
1, 371123, Note_off_c, 0, 92, 69
1, 371128, Note_on_c, 0, 56, 41
1, 371128, Note_off_c, 0, 80, 65
1, 371133, Note_off_c, 0, 68, 69
1, 371136, Control_c, 0, 64, 118
1, 371150, Control_c, 0, 64, 109
1, 371157, Note_off_c, 0, 56, 51
1, 371180, Control_c, 0, 64, 111
1, 371195, Control_c, 0, 64, 121
1, 371217, Control_c, 0, 64, 127
1, 371247, Control_c, 0, 64, 112
1, 371261, Control_c, 0, 64, 81
1, 371265, Note_on_c, 0, 88, 99
1, 371268, Note_on_c, 0, 76, 108
1, 371276, Control_c, 0, 64, 0
1, 371294, Note_on_c, 0, 64, 75
1, 371300, Note_on_c, 0, 52, 70
1, 371318, Note_off_c, 0, 76, 68
1, 371321, Control_c, 0, 64, 58
1, 371333, Note_off_c, 0, 52, 68
1, 371336, Control_c, 0, 64, 76
1, 371341, Note_off_c, 0, 88, 63
1, 371349, Note_off_c, 0, 64, 61
1, 371351, Control_c, 0, 64, 101
1, 371365, Control_c, 0, 64, 127
1, 371454, Control_c, 0, 64, 97
1, 371469, Control_c, 0, 64, 71
1, 371483, Control_c, 0, 64, 0
1, 371485, Note_on_c, 0, 77, 103
1, 371485, Note_on_c, 0, 89, 109
1, 371502, Note_on_c, 0, 65, 81
1, 371509, Note_on_c, 0, 53, 70
1, 371513, Control_c, 0, 64, 64
1, 371528, Control_c, 0, 64, 85
1, 371532, Note_off_c, 0, 77, 66
1, 371543, Control_c, 0, 64, 124
1, 371556, Note_off_c, 0, 53, 62
1, 371557, Control_c, 0, 64, 127
1, 371559, Note_off_c, 0, 89, 65
1, 371634, Note_off_c, 0, 65, 29
1, 371677, Control_c, 0, 64, 87
1, 371692, Control_c, 0, 64, 0
1, 371729, Note_on_c, 0, 79, 101
1, 371729, Note_on_c, 0, 91, 111
1, 371738, Note_on_c, 0, 67, 87
1, 371747, Note_on_c, 0, 55, 65
1, 371766, Control_c, 0, 64, 83
1, 371770, Note_off_c, 0, 79, 66
1, 371776, Note_off_c, 0, 67, 62
1, 371778, Note_off_c, 0, 55, 67
1, 371780, Control_c, 0, 64, 125
1, 371795, Note_off_c, 0, 91, 59
1, 371795, Control_c, 0, 64, 127
1, 371929, Control_c, 0, 64, 95
1, 371944, Control_c, 0, 64, 61
1, 371966, Control_c, 0, 64, 0
1, 371974, Note_on_c, 0, 92, 110
1, 371977, Note_on_c, 0, 80, 93
1, 371985, Note_on_c, 0, 68, 95
1, 371998, Note_on_c, 0, 56, 75
1, 372010, Control_c, 0, 64, 69
1, 372024, Note_off_c, 0, 56, 66
1, 372025, Control_c, 0, 64, 92
1, 372028, Note_off_c, 0, 80, 64
1, 372036, Note_off_c, 0, 68, 61
1, 372040, Control_c, 0, 64, 127
1, 372050, Note_off_c, 0, 92, 63
1, 372174, Control_c, 0, 64, 102
1, 372188, Control_c, 0, 64, 65
1, 372203, Control_c, 0, 64, 0
1, 372221, Note_on_c, 0, 94, 109
1, 372227, Note_on_c, 0, 82, 96
1, 372232, Note_on_c, 0, 70, 90
1, 372245, Note_on_c, 0, 58, 69
1, 372248, Control_c, 0, 64, 66
1, 372262, Control_c, 0, 64, 91
1, 372270, Note_off_c, 0, 82, 63
1, 372274, Note_off_c, 0, 58, 69
1, 372277, Control_c, 0, 64, 127
1, 372297, Note_off_c, 0, 94, 64
1, 372345, Note_off_c, 0, 70, 60
1, 372441, Control_c, 0, 64, 109
1, 372456, Control_c, 0, 64, 68
1, 372471, Control_c, 0, 64, 0
1, 372501, Note_on_c, 0, 96, 107
1, 372504, Note_on_c, 0, 84, 100
1, 372515, Note_on_c, 0, 72, 81
1, 372518, Note_on_c, 0, 60, 70
1, 372529, Control_c, 0, 64, 60
1, 372544, Control_c, 0, 64, 94
1, 372546, Note_off_c, 0, 72, 60
1, 372547, Note_off_c, 0, 60, 61
1, 372559, Control_c, 0, 64, 127
1, 372587, Note_off_c, 0, 84, 38
1, 372609, Note_off_c, 0, 96, 61
1, 372729, Control_c, 0, 64, 84
1, 372744, Control_c, 0, 64, 0
1, 372793, Note_on_c, 0, 97, 110
1, 372794, Note_on_c, 0, 85, 104
1, 372797, Note_on_c, 0, 73, 97
1, 372804, Note_on_c, 0, 61, 79
1, 372818, Control_c, 0, 64, 67
1, 372823, Note_off_c, 0, 61, 68
1, 372833, Control_c, 0, 64, 127
1, 372837, Note_off_c, 0, 97, 70
1, 372841, Note_off_c, 0, 73, 63
1, 372843, Note_off_c, 0, 85, 69
1, 373479, Control_c, 0, 64, 83
1, 373493, Control_c, 0, 64, 0
1, 373846, Note_on_c, 0, 72, 93
1, 373852, Note_on_c, 0, 60, 84
1, 373854, Note_on_c, 0, 48, 74
1, 373945, Note_off_c, 0, 60, 51
1, 373953, Note_off_c, 0, 48, 63
1, 373958, Note_on_c, 0, 56, 85
1, 373960, Note_on_c, 0, 68, 92
1, 373961, Note_on_c, 0, 80, 94
1, 373988, Note_off_c, 0, 72, 62
1, 374057, Control_c, 0, 64, 84
1, 374072, Control_c, 0, 64, 127
1, 374093, Note_off_c, 0, 80, 67
1, 374118, Note_on_c, 0, 57, 58
1, 374126, Note_off_c, 0, 68, 65
1, 374140, Note_off_c, 0, 57, 60
1, 374143, Note_off_c, 0, 56, 65
1, 374448, Note_on_c, 0, 48, 95
1, 374448, Note_on_c, 0, 60, 93
1, 374448, Note_on_c, 0, 41, 92
1, 374451, Note_on_c, 0, 32, 80
1, 374456, Note_on_c, 0, 56, 89
1, 374463, Note_on_c, 0, 29, 55
1, 374466, Note_on_c, 0, 53, 68
1, 374472, Note_off_c, 0, 48, 68
1, 374474, Note_off_c, 0, 32, 63
1, 374481, Note_off_c, 0, 41, 68
1, 374484, Note_off_c, 0, 53, 66
1, 374504, Note_off_c, 0, 29, 49
1, 374513, Note_off_c, 0, 60, 64
1, 374522, Note_off_c, 0, 56, 66
1, 374751, Note_on_c, 0, 55, 65
1, 374752, Note_on_c, 0, 67, 93
1, 374755, Note_on_c, 0, 79, 98
1, 374794, Note_off_c, 0, 67, 66
1, 374794, Note_off_c, 0, 79, 65
1, 374817, Note_off_c, 0, 55, 63
1, 374850, Note_on_c, 0, 53, 86
1, 374862, Note_on_c, 0, 77, 101
1, 374863, Note_on_c, 0, 65, 100
1, 374912, Note_off_c, 0, 65, 66
1, 374916, Note_off_c, 0, 77, 61
1, 374938, Note_off_c, 0, 53, 66
1, 374977, Control_c, 0, 64, 88
1, 374992, Note_on_c, 0, 52, 94
1, 374992, Control_c, 0, 64, 0
1, 374997, Note_on_c, 0, 64, 100
1, 374997, Note_on_c, 0, 76, 105
1, 375051, Control_c, 0, 64, 66
1, 375066, Control_c, 0, 64, 81
1, 375080, Note_off_c, 0, 76, 67
1, 375080, Control_c, 0, 64, 101
1, 375086, Note_off_c, 0, 52, 68
1, 375095, Control_c, 0, 64, 127
1, 375124, Note_off_c, 0, 64, 63
1, 375427, Note_on_c, 0, 48, 102
1, 375428, Note_on_c, 0, 60, 96
1, 375429, Note_on_c, 0, 40, 89
1, 375432, Note_on_c, 0, 52, 92
1, 375435, Note_on_c, 0, 56, 90
1, 375437, Note_on_c, 0, 29, 65
1, 375438, Note_on_c, 0, 32, 76
1, 375440, Note_on_c, 0, 36, 66
1, 375462, Note_off_c, 0, 32, 65
1, 375465, Note_off_c, 0, 29, 64
1, 375468, Note_off_c, 0, 36, 65
1, 375481, Note_off_c, 0, 40, 65
1, 375497, Note_off_c, 0, 48, 63
1, 375507, Note_off_c, 0, 52, 65
1, 375515, Poly_aftertouch_c, 0, 38, 127
1, 375530, Note_off_c, 0, 60, 61
1, 375548, Poly_aftertouch_c, 0, 38, 0
1, 375551, Note_off_c, 0, 56, 68
1, 375750, Note_on_c, 0, 75, 88
1, 375751, Note_on_c, 0, 63, 88
1, 375760, Note_on_c, 0, 51, 71
1, 375785, Note_off_c, 0, 63, 61
1, 375788, Note_off_c, 0, 75, 51
1, 375822, Note_off_c, 0, 51, 62
1, 375866, Note_on_c, 0, 73, 96
1, 375869, Note_on_c, 0, 61, 94
1, 375875, Note_on_c, 0, 49, 82
1, 375912, Note_off_c, 0, 73, 68
1, 375919, Note_off_c, 0, 61, 63
1, 375953, Note_off_c, 0, 49, 63
1, 375992, Control_c, 0, 64, 98
1, 376000, Note_on_c, 0, 72, 100
1, 376001, Note_on_c, 0, 60, 96
1, 376002, Note_on_c, 0, 48, 96
1, 376007, Control_c, 0, 64, 64
1, 376022, Control_c, 0, 64, 0
1, 376081, Control_c, 0, 64, 66
1, 376084, Note_off_c, 0, 72, 68
1, 376096, Control_c, 0, 64, 77
1, 376098, Note_off_c, 0, 48, 68
1, 376111, Control_c, 0, 64, 90
1, 376115, Note_off_c, 0, 60, 62
1, 376126, Control_c, 0, 64, 102
1, 376141, Control_c, 0, 64, 110
1, 376155, Control_c, 0, 64, 117
1, 376170, Control_c, 0, 64, 127
1, 376519, Note_on_c, 0, 41, 96
1, 376519, Note_on_c, 0, 48, 95
1, 376519, Note_on_c, 0, 60, 91
1, 376523, Note_on_c, 0, 53, 93
1, 376526, Note_on_c, 0, 56, 86
1, 376526, Note_on_c, 0, 36, 81
1, 376528, Note_on_c, 0, 32, 78
1, 376540, Note_on_c, 0, 29, 65
1, 376585, Note_off_c, 0, 29, 57
1, 376601, Note_off_c, 0, 41, 64
1, 376608, Note_off_c, 0, 48, 63
1, 376609, Note_off_c, 0, 32, 64
1, 376622, Note_off_c, 0, 36, 59
1, 376631, Note_off_c, 0, 60, 58
1, 376663, Note_off_c, 0, 53, 62
1, 376680, Note_off_c, 0, 56, 63
1, 376908, Note_on_c, 0, 41, 90
1, 376912, Note_on_c, 0, 48, 93
1, 376913, Note_on_c, 0, 60, 84
1, 376918, Note_on_c, 0, 53, 84
1, 376919, Note_on_c, 0, 32, 74
1, 376920, Note_on_c, 0, 36, 71
1, 376924, Note_on_c, 0, 56, 73
1, 376925, Note_on_c, 0, 29, 60
1, 376947, Note_off_c, 0, 36, 68
1, 376960, Note_off_c, 0, 29, 57
1, 376964, Note_off_c, 0, 41, 63
1, 376964, Note_off_c, 0, 56, 53
1, 376979, Note_off_c, 0, 48, 58
1, 376980, Note_off_c, 0, 60, 58
1, 376981, Note_off_c, 0, 32, 61
1, 376987, Note_off_c, 0, 53, 61
1, 377028, Poly_aftertouch_c, 0, 53, 0
1, 377030, Note_on_c, 0, 48, 90
1, 377033, Note_on_c, 0, 60, 89
1, 377035, Note_on_c, 0, 53, 73
1, 377037, Note_on_c, 0, 41, 99
1, 377037, Note_on_c, 0, 56, 79
1, 377043, Note_on_c, 0, 29, 77
1, 377069, Note_off_c, 0, 29, 60
1, 377075, Note_off_c, 0, 53, 64
1, 377077, Note_off_c, 0, 41, 67
1, 377079, Note_off_c, 0, 48, 65
1, 377117, Note_off_c, 0, 60, 61
1, 377136, Note_off_c, 0, 56, 67
1, 377312, Note_on_c, 0, 73, 99
1, 377313, Note_on_c, 0, 61, 89
1, 377318, Note_on_c, 0, 49, 83
1, 377359, Note_off_c, 0, 61, 64
1, 377392, Note_off_c, 0, 49, 61
1, 377517, Note_off_c, 0, 73, 59
1, 377605, Note_on_c, 0, 64, 104
1, 377605, Note_on_c, 0, 76, 98
1, 377611, Note_on_c, 0, 52, 88
1, 377667, Control_c, 0, 64, 96
1, 377682, Control_c, 0, 64, 0
1, 377801, Control_c, 0, 64, 65
1, 377816, Control_c, 0, 64, 104
1, 377831, Control_c, 0, 64, 127
1, 377856, Note_off_c, 0, 64, 62
1, 377885, Note_off_c, 0, 76, 61
1, 377986, Note_off_c, 0, 52, 59
1, 378021, Note_on_c, 0, 77, 98
1, 378022, Note_on_c, 0, 65, 94
1, 378022, Note_on_c, 0, 53, 75
1, 378061, Note_off_c, 0, 65, 67
1, 378080, Note_off_c, 0, 77, 62
1, 378120, Control_c, 0, 64, 90
1, 378121, Note_off_c, 0, 53, 64
1, 378135, Control_c, 0, 64, 0
1, 378156, Note_on_c, 0, 56, 90
1, 378157, Note_on_c, 0, 80, 103
1, 378158, Note_on_c, 0, 68, 99
1, 378190, Note_on_c, 0, 55, 69
1, 378219, Note_off_c, 0, 80, 66
1, 378224, Control_c, 0, 64, 77
1, 378239, Note_off_c, 0, 56, 63
1, 378239, Control_c, 0, 64, 103
1, 378240, Note_off_c, 0, 55, 65
1, 378254, Control_c, 0, 64, 127
1, 378257, Note_off_c, 0, 68, 63
1, 378621, Note_on_c, 0, 41, 96
1, 378627, Note_on_c, 0, 48, 96
1, 378627, Note_on_c, 0, 60, 92
1, 378629, Note_on_c, 0, 32, 84
1, 378630, Note_on_c, 0, 56, 90
1, 378630, Note_on_c, 0, 29, 69
1, 378634, Note_on_c, 0, 53, 81
1, 378652, Note_on_c, 0, 36, 44
1, 378652, Note_off_c, 0, 32, 66
1, 378658, Note_off_c, 0, 53, 72
1, 378661, Note_off_c, 0, 29, 61
1, 378663, Note_off_c, 0, 48, 65
1, 378666, Note_off_c, 0, 41, 65
1, 378683, Note_off_c, 0, 36, 56
1, 378705, Note_off_c, 0, 60, 64
1, 378710, Note_off_c, 0, 56, 67
1, 378942, Note_on_c, 0, 79, 99
1, 378943, Note_on_c, 0, 67, 94
1, 378946, Note_on_c, 0, 55, 63
1, 378980, Note_off_c, 0, 79, 62
1, 378980, Note_off_c, 0, 67, 61
1, 379012, Note_off_c, 0, 55, 63
1, 379045, Note_on_c, 0, 77, 104
1, 379045, Note_on_c, 0, 65, 100
1, 379049, Note_on_c, 0, 53, 88
1, 379093, Note_off_c, 0, 65, 66
1, 379098, Note_off_c, 0, 77, 59
1, 379126, Note_off_c, 0, 53, 66
1, 379151, Control_c, 0, 64, 86
1, 379163, Note_on_c, 0, 64, 105
1, 379164, Note_on_c, 0, 52, 98
1, 379164, Note_on_c, 0, 76, 103
1, 379166, Control_c, 0, 64, 0
1, 379226, Control_c, 0, 64, 69
1, 379240, Control_c, 0, 64, 88
1, 379243, Note_off_c, 0, 76, 68
1, 379248, Note_off_c, 0, 52, 68
1, 379255, Control_c, 0, 64, 127
1, 379286, Note_off_c, 0, 64, 60
1, 379627, Note_on_c, 0, 48, 96
1, 379629, Note_on_c, 0, 60, 94
1, 379629, Note_on_c, 0, 40, 82
1, 379633, Note_on_c, 0, 52, 89
1, 379634, Note_on_c, 0, 36, 75
1, 379635, Note_on_c, 0, 56, 89
1, 379639, Note_on_c, 0, 29, 65
1, 379639, Note_on_c, 0, 32, 72
1, 379660, Note_off_c, 0, 36, 65
1, 379668, Note_off_c, 0, 32, 63
1, 379674, Note_off_c, 0, 29, 59
1, 379685, Note_off_c, 0, 40, 64
1, 379694, Note_off_c, 0, 48, 64
1, 379712, Note_off_c, 0, 52, 63
1, 379739, Note_off_c, 0, 60, 62
1, 379756, Note_off_c, 0, 56, 67
1, 379965, Note_on_c, 0, 51, 71
1, 379965, Note_on_c, 0, 75, 88
1, 379966, Note_on_c, 0, 63, 82
1, 379993, Note_off_c, 0, 63, 65
1, 379995, Note_off_c, 0, 75, 57
1, 380031, Note_off_c, 0, 51, 62
1, 380074, Note_on_c, 0, 73, 96
1, 380079, Note_on_c, 0, 61, 90
1, 380080, Note_on_c, 0, 49, 76
1, 380119, Note_off_c, 0, 73, 68
1, 380124, Note_off_c, 0, 61, 64
1, 380165, Note_off_c, 0, 49, 62
1, 380213, Note_on_c, 0, 72, 102
1, 380213, Note_on_c, 0, 60, 95
1, 380214, Note_on_c, 0, 48, 90
1, 380234, Control_c, 0, 64, 96
1, 380249, Control_c, 0, 64, 63
1, 380264, Control_c, 0, 64, 0
1, 380323, Control_c, 0, 64, 62
1, 380332, Note_off_c, 0, 72, 66
1, 380338, Control_c, 0, 64, 78
1, 380353, Control_c, 0, 64, 99
1, 380368, Control_c, 0, 64, 118
1, 380374, Note_off_c, 0, 48, 66
1, 380383, Note_off_c, 0, 60, 61
1, 380383, Control_c, 0, 64, 125
1, 380398, Control_c, 0, 64, 127
1, 380739, Note_on_c, 0, 60, 89
1, 380741, Note_on_c, 0, 41, 88
1, 380743, Note_on_c, 0, 48, 92
1, 380746, Note_on_c, 0, 53, 88
1, 380752, Note_on_c, 0, 32, 73
1, 380752, Note_on_c, 0, 36, 74
1, 380753, Note_on_c, 0, 56, 78
1, 380765, Note_on_c, 0, 29, 55
1, 380809, Note_off_c, 0, 48, 58
1, 380814, Note_off_c, 0, 29, 58
1, 380822, Note_off_c, 0, 41, 64
1, 380843, Note_off_c, 0, 32, 64
1, 380845, Note_off_c, 0, 60, 61
1, 380851, Note_off_c, 0, 36, 59
1, 380857, Note_off_c, 0, 53, 62
1, 380877, Note_off_c, 0, 56, 66
1, 381155, Note_on_c, 0, 41, 88
1, 381159, Note_on_c, 0, 48, 92
1, 381161, Note_on_c, 0, 60, 86
1, 381166, Note_on_c, 0, 53, 81
1, 381167, Note_on_c, 0, 32, 70
1, 381168, Note_on_c, 0, 56, 78
1, 381170, Note_on_c, 0, 36, 69
1, 381174, Note_on_c, 0, 29, 59
1, 381206, Note_off_c, 0, 29, 62
1, 381212, Note_off_c, 0, 41, 62
1, 381222, Note_off_c, 0, 48, 59
1, 381223, Note_off_c, 0, 36, 59
1, 381224, Note_off_c, 0, 32, 61
1, 381229, Note_off_c, 0, 60, 57
1, 381235, Note_off_c, 0, 56, 59
1, 381244, Note_off_c, 0, 53, 62
1, 381298, Note_on_c, 0, 41, 90
1, 381299, Note_on_c, 0, 48, 94
1, 381301, Note_on_c, 0, 60, 92
1, 381302, Note_on_c, 0, 53, 69
1, 381303, Note_on_c, 0, 56, 73
1, 381304, Note_on_c, 0, 29, 66
1, 381336, Note_off_c, 0, 29, 61
1, 381337, Note_off_c, 0, 41, 67
1, 381355, Note_off_c, 0, 48, 63
1, 381372, Note_off_c, 0, 53, 63
1, 381425, Note_off_c, 0, 60, 59
1, 381439, Note_off_c, 0, 56, 67
1, 381697, Note_on_c, 0, 76, 98
1, 381699, Note_on_c, 0, 64, 93
1, 381705, Note_on_c, 0, 52, 74
1, 381789, Note_off_c, 0, 64, 59
1, 381812, Note_off_c, 0, 76, 63
1, 381948, Note_off_c, 0, 52, 65
1, 381960, Note_on_c, 0, 77, 100
1, 381963, Note_on_c, 0, 65, 97
1, 381964, Note_on_c, 0, 53, 78
1, 381969, Control_c, 0, 64, 92
1, 381984, Control_c, 0, 64, 0
1, 382009, Note_off_c, 0, 65, 67
1, 382028, Control_c, 0, 64, 48
1, 382042, Control_c, 0, 64, 73
1, 382048, Note_off_c, 0, 77, 61
1, 382057, Control_c, 0, 64, 93
1, 382072, Control_c, 0, 64, 127
1, 382131, Control_c, 0, 64, 114
1, 382146, Control_c, 0, 64, 83
1, 382161, Control_c, 0, 64, 0
1, 382166, Note_off_c, 0, 53, 55
1, 382175, Note_on_c, 0, 80, 104
1, 382176, Note_on_c, 0, 56, 84
1, 382177, Note_on_c, 0, 68, 94
1, 382190, Control_c, 0, 64, 25
1, 382205, Control_c, 0, 64, 72
1, 382220, Control_c, 0, 64, 91
1, 382225, Note_off_c, 0, 68, 64
1, 382234, Control_c, 0, 64, 127
1, 382243, Note_off_c, 0, 56, 63
1, 382254, Note_off_c, 0, 80, 61
1, 382324, Control_c, 0, 64, 90
1, 382339, Control_c, 0, 64, 0
1, 382398, Note_on_c, 0, 61, 98
1, 382398, Note_on_c, 0, 85, 101
1, 382401, Note_on_c, 0, 73, 104
1, 382428, Control_c, 0, 64, 90
1, 382429, Note_off_c, 0, 85, 70
1, 382436, Note_off_c, 0, 73, 60
1, 382445, Note_off_c, 0, 61, 65
1, 382450, Control_c, 0, 64, 127
1, 382851, Note_on_c, 0, 61, 93
1, 382851, Note_on_c, 0, 53, 83
1, 382854, Note_on_c, 0, 41, 101
1, 382857, Note_on_c, 0, 49, 86
1, 382863, Note_on_c, 0, 58, 80
1, 382866, Note_on_c, 0, 29, 81
1, 382866, Note_on_c, 0, 37, 77
1, 382879, Note_off_c, 0, 49, 65
1, 382884, Note_on_c, 0, 34, 43
1, 382885, Note_off_c, 0, 34, 127
1, 382885, Note_off_c, 0, 41, 69
1, 382888, Note_off_c, 0, 37, 68
1, 382890, Note_on_c, 0, 32, 37
1, 382891, Note_off_c, 0, 32, 127
1, 382891, Note_off_c, 0, 53, 63
1, 382891, Note_off_c, 0, 29, 61
1, 382936, Poly_aftertouch_c, 0, 32, 0
1, 382942, Note_off_c, 0, 61, 64
1, 382948, Note_off_c, 0, 58, 62
1, 383172, Note_on_c, 0, 84, 89
1, 383179, Note_on_c, 0, 72, 79
1, 383183, Note_on_c, 0, 60, 67
1, 383206, Note_off_c, 0, 84, 65
1, 383208, Note_off_c, 0, 72, 71
1, 383229, Note_off_c, 0, 60, 53
1, 383278, Note_on_c, 0, 82, 98
1, 383285, Note_on_c, 0, 70, 90
1, 383295, Note_on_c, 0, 58, 68
1, 383322, Note_off_c, 0, 82, 65
1, 383331, Note_off_c, 0, 70, 59
1, 383344, Note_off_c, 0, 58, 61
1, 383363, Control_c, 0, 64, 110
1, 383378, Control_c, 0, 64, 75
1, 383393, Control_c, 0, 64, 0
1, 383401, Note_on_c, 0, 57, 92
1, 383401, Note_on_c, 0, 81, 104
1, 383403, Note_on_c, 0, 69, 101
1, 383447, Note_off_c, 0, 81, 67
1, 383452, Control_c, 0, 64, 68
1, 383466, Control_c, 0, 64, 83
1, 383481, Control_c, 0, 64, 106
1, 383482, Note_off_c, 0, 69, 54
1, 383488, Note_off_c, 0, 57, 64
1, 383496, Control_c, 0, 64, 127
1, 383837, Note_on_c, 0, 49, 92
1, 383837, Note_on_c, 0, 61, 90
1, 383842, Note_on_c, 0, 53, 87
1, 383844, Note_on_c, 0, 41, 99
1, 383845, Note_on_c, 0, 57, 83
1, 383851, Note_on_c, 0, 37, 90
1, 383854, Note_on_c, 0, 29, 86
1, 383872, Note_off_c, 0, 37, 69
1, 383881, Note_off_c, 0, 29, 62
1, 383884, Note_off_c, 0, 41, 65
1, 383888, Note_off_c, 0, 49, 64
1, 383910, Note_off_c, 0, 53, 65
1, 383959, Note_off_c, 0, 57, 64
1, 383963, Poly_aftertouch_c, 0, 32, 0
1, 383963, Note_off_c, 0, 61, 64
1, 384186, Note_on_c, 0, 56, 69
1, 384186, Note_on_c, 0, 68, 88
1, 384186, Note_on_c, 0, 80, 92
1, 384211, Note_off_c, 0, 80, 57
1, 384227, Note_off_c, 0, 68, 61
1, 384242, Note_off_c, 0, 56, 63
1, 384292, Note_on_c, 0, 78, 102
1, 384295, Note_on_c, 0, 54, 80
1, 384297, Note_on_c, 0, 66, 91
1, 384346, Note_off_c, 0, 66, 64
1, 384355, Note_off_c, 0, 78, 63
1, 384372, Note_off_c, 0, 54, 63
1, 384409, Control_c, 0, 64, 99
1, 384417, Note_on_c, 0, 53, 99
1, 384420, Note_on_c, 0, 65, 101
1, 384420, Note_on_c, 0, 77, 102
1, 384424, Control_c, 0, 64, 66
1, 384439, Control_c, 0, 64, 0
1, 384483, Control_c, 0, 64, 53
1, 384498, Control_c, 0, 64, 74
1, 384504, Note_off_c, 0, 77, 65
1, 384513, Control_c, 0, 64, 91
1, 384527, Control_c, 0, 64, 113
1, 384536, Note_off_c, 0, 53, 66
1, 384542, Control_c, 0, 64, 127
1, 384547, Note_off_c, 0, 65, 62
1, 384918, Note_on_c, 0, 61, 90
1, 384921, Note_on_c, 0, 41, 91
1, 384921, Note_on_c, 0, 49, 91
1, 384924, Note_on_c, 0, 37, 88
1, 384928, Note_on_c, 0, 58, 84
1, 384930, Note_on_c, 0, 53, 83
1, 384930, Note_on_c, 0, 29, 70
1, 384933, Note_on_c, 0, 34, 77
1, 384964, Note_off_c, 0, 29, 59
1, 384969, Note_off_c, 0, 41, 63
1, 384975, Note_off_c, 0, 34, 66
1, 384987, Note_off_c, 0, 37, 66
1, 385003, Note_off_c, 0, 49, 59
1, 385010, Note_off_c, 0, 61, 64
1, 385033, Note_off_c, 0, 53, 64
1, 385058, Note_off_c, 0, 58, 63
1, 385302, Note_on_c, 0, 49, 85
1, 385302, Note_on_c, 0, 61, 83
1, 385303, Note_on_c, 0, 41, 94
1, 385308, Note_on_c, 0, 53, 77
1, 385311, Note_on_c, 0, 37, 81
1, 385311, Note_on_c, 0, 58, 74
1, 385312, Note_on_c, 0, 34, 75
1, 385322, Note_on_c, 0, 29, 57
1, 385336, Note_off_c, 0, 41, 66
1, 385341, Note_off_c, 0, 34, 67
1, 385358, Note_off_c, 0, 49, 58
1, 385359, Note_off_c, 0, 37, 62
1, 385361, Note_off_c, 0, 29, 53
1, 385369, Note_off_c, 0, 61, 64
1, 385371, Note_off_c, 0, 58, 62
1, 385372, Note_off_c, 0, 53, 64
1, 385379, Poly_aftertouch_c, 0, 32, 127
1, 385417, Poly_aftertouch_c, 0, 32, 0
1, 385428, Note_on_c, 0, 41, 96
1, 385437, Note_on_c, 0, 61, 85
1, 385438, Note_on_c, 0, 49, 92
1, 385441, Note_on_c, 0, 29, 85
1, 385441, Note_on_c, 0, 53, 69
1, 385444, Note_on_c, 0, 37, 81
1, 385447, Note_on_c, 0, 58, 76
1, 385463, Note_off_c, 0, 53, 66
1, 385466, Note_off_c, 0, 29, 63
1, 385468, Note_off_c, 0, 41, 59
1, 385469, Note_off_c, 0, 37, 69
1, 385475, Note_off_c, 0, 49, 58
1, 385535, Note_off_c, 0, 58, 68
1, 385536, Note_off_c, 0, 61, 61
1, 385747, Note_on_c, 0, 78, 105
1, 385750, Note_on_c, 0, 66, 90
1, 385750, Note_on_c, 0, 54, 76
1, 385845, Note_off_c, 0, 66, 60
1, 385937, Note_off_c, 0, 54, 26
1, 385937, Note_off_c, 0, 78, 60
1, 385998, Note_on_c, 0, 69, 100
1, 385998, Note_on_c, 0, 81, 107
1, 386000, Note_on_c, 0, 57, 89
1, 386041, Control_c, 0, 64, 99
1, 386056, Control_c, 0, 64, 67
1, 386071, Control_c, 0, 64, 0
1, 386159, Control_c, 0, 64, 70
1, 386174, Control_c, 0, 64, 92
1, 386197, Control_c, 0, 64, 127
1, 386203, Note_off_c, 0, 69, 66
1, 386217, Note_off_c, 0, 81, 62
1, 386316, Note_off_c, 0, 57, 59
1, 386355, Note_on_c, 0, 70, 93
1, 386355, Note_on_c, 0, 82, 96
1, 386357, Note_on_c, 0, 58, 80
1, 386394, Note_off_c, 0, 70, 64
1, 386402, Note_off_c, 0, 82, 62
1, 386404, Control_c, 0, 64, 85
1, 386410, Note_off_c, 0, 58, 65
1, 386418, Control_c, 0, 64, 0
1, 386466, Note_on_c, 0, 61, 99
1, 386469, Note_on_c, 0, 85, 106
1, 386471, Note_on_c, 0, 73, 102
1, 386492, Control_c, 0, 64, 71
1, 386501, Note_off_c, 0, 85, 72
1, 386507, Control_c, 0, 64, 102
1, 386508, Note_off_c, 0, 61, 65
1, 386508, Note_off_c, 0, 73, 66
1, 386522, Control_c, 0, 64, 127
1, 386902, Note_on_c, 0, 49, 98
1, 386902, Note_on_c, 0, 58, 88
1, 386904, Note_on_c, 0, 41, 104
1, 386906, Note_on_c, 0, 61, 91
1, 386909, Note_on_c, 0, 53, 84
1, 386912, Note_on_c, 0, 29, 86
1, 386915, Note_on_c, 0, 34, 76
1, 386915, Note_on_c, 0, 37, 71
1, 386927, Note_on_c, 0, 32, 52
1, 386928, Note_off_c, 0, 32, 127
1, 386943, Note_off_c, 0, 53, 66
1, 386946, Note_off_c, 0, 37, 64
1, 386948, Note_off_c, 0, 34, 68
1, 386950, Note_off_c, 0, 29, 63
1, 386950, Note_off_c, 0, 41, 68
1, 386950, Note_off_c, 0, 49, 65
1, 386986, Note_on_c, 0, 57, 60
1, 387006, Note_off_c, 0, 57, 61
1, 387008, Note_off_c, 0, 61, 64
1, 387015, Note_off_c, 0, 58, 58
1, 387021, Poly_aftertouch_c, 0, 56, 0
1, 387224, Note_on_c, 0, 84, 89
1, 387230, Note_on_c, 0, 72, 80
1, 387234, Note_on_c, 0, 60, 68
1, 387243, Note_off_c, 0, 84, 70
1, 387249, Note_off_c, 0, 72, 73
1, 387287, Note_off_c, 0, 60, 59
1, 387321, Note_on_c, 0, 82, 99
1, 387324, Note_on_c, 0, 70, 90
1, 387327, Note_on_c, 0, 58, 69
1, 387359, Note_off_c, 0, 82, 66
1, 387368, Note_off_c, 0, 70, 61
1, 387373, Note_off_c, 0, 58, 66
1, 387404, Control_c, 0, 64, 123
1, 387419, Control_c, 0, 64, 77
1, 387421, Note_on_c, 0, 57, 101
1, 387427, Note_on_c, 0, 69, 102
1, 387427, Note_on_c, 0, 81, 103
1, 387433, Control_c, 0, 64, 0
1, 387467, Note_off_c, 0, 81, 66
1, 387478, Control_c, 0, 64, 55
1, 387480, Note_off_c, 0, 57, 66
1, 387487, Note_off_c, 0, 69, 66
1, 387493, Control_c, 0, 64, 80
1, 387507, Control_c, 0, 64, 117
1, 387522, Control_c, 0, 64, 127
1, 387863, Note_on_c, 0, 49, 98
1, 387866, Note_on_c, 0, 61, 93
1, 387871, Note_on_c, 0, 53, 94
1, 387872, Note_on_c, 0, 41, 103
1, 387872, Note_on_c, 0, 57, 82
1, 387878, Note_on_c, 0, 29, 92
1, 387878, Note_on_c, 0, 37, 95
1, 387897, Note_on_c, 0, 32, 53
1, 387898, Note_off_c, 0, 32, 127
1, 387902, Note_off_c, 0, 37, 68
1, 387908, Note_off_c, 0, 29, 61
1, 387912, Note_off_c, 0, 41, 66
1, 387937, Note_off_c, 0, 49, 63
1, 387964, Note_off_c, 0, 53, 65
1, 387997, Note_off_c, 0, 57, 67
1, 388005, Note_off_c, 0, 61, 61
1, 388224, Note_on_c, 0, 80, 93
1, 388227, Note_on_c, 0, 68, 86
1, 388239, Note_on_c, 0, 56, 71
1, 388245, Note_off_c, 0, 80, 66
1, 388253, Note_off_c, 0, 68, 62
1, 388302, Note_off_c, 0, 56, 63
1, 388334, Note_on_c, 0, 78, 100
1, 388337, Note_on_c, 0, 66, 95
1, 388349, Note_on_c, 0, 54, 82
1, 388394, Note_off_c, 0, 66, 66
1, 388404, Note_off_c, 0, 78, 63
1, 388424, Note_off_c, 0, 54, 63
1, 388470, Note_on_c, 0, 53, 91
1, 388472, Control_c, 0, 64, 109
1, 388473, Note_on_c, 0, 77, 104
1, 388475, Note_on_c, 0, 65, 98
1, 388486, Control_c, 0, 64, 71
1, 388501, Control_c, 0, 64, 0
1, 388556, Note_off_c, 0, 77, 67
1, 388561, Control_c, 0, 64, 73
1, 388576, Control_c, 0, 64, 93
1, 388587, Note_off_c, 0, 53, 66
1, 388590, Control_c, 0, 64, 127
1, 388593, Note_off_c, 0, 65, 61
1, 389025, Note_on_c, 0, 61, 91
1, 389028, Note_on_c, 0, 37, 85
1, 389029, Note_on_c, 0, 41, 83
1, 389031, Note_on_c, 0, 49, 85
1, 389032, Note_on_c, 0, 34, 79
1, 389035, Note_on_c, 0, 29, 70
1, 389037, Note_on_c, 0, 53, 81
1, 389037, Note_on_c, 0, 58, 83
1, 389076, Note_off_c, 0, 41, 62
1, 389087, Note_off_c, 0, 49, 60
1, 389088, Note_off_c, 0, 29, 62
1, 389099, Note_off_c, 0, 34, 67
1, 389112, Note_off_c, 0, 37, 66
1, 389115, Note_off_c, 0, 61, 63
1, 389124, Note_off_c, 0, 53, 63
1, 389155, Note_off_c, 0, 58, 63
1, 389424, Note_on_c, 0, 41, 91
1, 389425, Note_on_c, 0, 61, 79
1, 389426, Note_on_c, 0, 49, 82
1, 389428, Note_on_c, 0, 58, 73
1, 389428, Note_on_c, 0, 53, 76
1, 389429, Note_on_c, 0, 37, 78
1, 389436, Note_on_c, 0, 34, 70
1, 389438, Note_on_c, 0, 29, 61
1, 389468, Note_off_c, 0, 29, 64
1, 389471, Note_off_c, 0, 41, 61
1, 389474, Note_off_c, 0, 34, 60
1, 389482, Note_off_c, 0, 37, 62
1, 389482, Note_off_c, 0, 53, 62
1, 389495, Note_off_c, 0, 49, 58
1, 389495, Note_off_c, 0, 58, 61
1, 389498, Note_off_c, 0, 61, 62
1, 389534, Poly_aftertouch_c, 0, 61, 0
1, 389541, Note_on_c, 0, 49, 81
1, 389541, Note_on_c, 0, 61, 82
1, 389544, Note_on_c, 0, 41, 93
1, 389547, Note_on_c, 0, 37, 89
1, 389548, Note_on_c, 0, 29, 78
1, 389550, Note_on_c, 0, 58, 74
1, 389555, Note_on_c, 0, 53, 74
1, 389577, Note_off_c, 0, 29, 65
1, 389583, Note_off_c, 0, 41, 60
1, 389592, Note_off_c, 0, 53, 67
1, 389593, Note_off_c, 0, 37, 66
1, 389593, Note_off_c, 0, 49, 62
1, 389602, Note_on_c, 0, 34, 3
1, 389625, Note_off_c, 0, 34, 39
1, 389647, Note_off_c, 0, 61, 63
1, 389654, Note_off_c, 0, 58, 65
1, 389999, Note_on_c, 0, 81, 95
1, 390000, Note_on_c, 0, 69, 87
1, 390003, Note_on_c, 0, 57, 77
1, 390059, Note_off_c, 0, 69, 64
1, 390121, Note_off_c, 0, 81, 59
1, 390221, Note_off_c, 0, 57, 62
1, 390240, Note_on_c, 0, 58, 83
1, 390245, Note_on_c, 0, 82, 95
1, 390248, Note_on_c, 0, 70, 91
1, 390251, Control_c, 0, 64, 101
1, 390266, Control_c, 0, 64, 71
1, 390281, Control_c, 0, 64, 0
1, 390311, Control_c, 0, 64, 43
1, 390326, Control_c, 0, 64, 74
1, 390340, Control_c, 0, 64, 92
1, 390355, Control_c, 0, 64, 127
1, 390368, Note_off_c, 0, 70, 60
1, 390397, Note_off_c, 0, 82, 61
1, 390430, Control_c, 0, 64, 106
1, 390440, Note_off_c, 0, 58, 64
1, 390445, Control_c, 0, 64, 81
1, 390453, Note_on_c, 0, 84, 97
1, 390455, Note_on_c, 0, 60, 84
1, 390455, Note_on_c, 0, 72, 91
1, 390459, Control_c, 0, 64, 60
1, 390474, Control_c, 0, 64, 56
1, 390489, Control_c, 0, 64, 73
1, 390504, Control_c, 0, 64, 98
1, 390519, Control_c, 0, 64, 127
1, 390551, Note_off_c, 0, 72, 63
1, 390580, Note_off_c, 0, 84, 63
1, 390592, Control_c, 0, 64, 95
1, 390607, Control_c, 0, 64, 49
1, 390622, Control_c, 0, 64, 0
1, 390650, Note_on_c, 0, 61, 88
1, 390650, Note_off_c, 0, 60, 55
1, 390652, Note_on_c, 0, 85, 100
1, 390654, Note_on_c, 0, 73, 95
1, 390702, Note_off_c, 0, 85, 70
1, 390704, Control_c, 0, 64, 56
1, 390719, Control_c, 0, 64, 92
1, 390733, Control_c, 0, 64, 127
1, 390746, Note_off_c, 0, 61, 67
1, 390746, Note_off_c, 0, 73, 64
1, 391063, Note_on_c, 0, 49, 84
1, 391065, Note_on_c, 0, 45, 81
1, 391068, Note_on_c, 0, 66, 94
1, 391073, Note_on_c, 0, 42, 73
1, 391075, Note_on_c, 0, 54, 79
1, 391077, Note_on_c, 0, 37, 58
1, 391078, Note_on_c, 0, 61, 80
1, 391078, Note_on_c, 0, 57, 71
1, 391093, Note_off_c, 0, 49, 64
1, 391095, Note_off_c, 0, 54, 67
1, 391100, Note_off_c, 0, 42, 66
1, 391101, Note_off_c, 0, 57, 66
1, 391104, Note_off_c, 0, 37, 61
1, 391116, Note_off_c, 0, 45, 66
1, 391152, Note_off_c, 0, 61, 64
1, 391157, Note_off_c, 0, 66, 70
1, 391467, Control_c, 0, 64, 110
1, 391481, Control_c, 0, 64, 84
1, 391485, Note_on_c, 0, 86, 106
1, 391486, Note_on_c, 0, 74, 104
1, 391489, Note_on_c, 0, 62, 107
1, 391496, Control_c, 0, 64, 66
1, 391511, Control_c, 0, 64, 58
1, 391526, Control_c, 0, 64, 68
1, 391541, Control_c, 0, 64, 79
1, 391544, Note_off_c, 0, 86, 66
1, 391556, Control_c, 0, 64, 101
1, 391571, Control_c, 0, 64, 127
1, 391578, Note_off_c, 0, 62, 63
1, 391583, Note_off_c, 0, 74, 69
1, 391843, Note_on_c, 0, 37, 65
1, 391869, Note_on_c, 0, 44, 76
1, 391874, Note_on_c, 0, 41, 72
1, 391892, Note_on_c, 0, 50, 87
1, 391897, Note_on_c, 0, 65, 97
1, 391898, Note_on_c, 0, 53, 94
1, 391901, Note_on_c, 0, 56, 85
1, 391905, Note_on_c, 0, 59, 76
1, 391908, Note_off_c, 0, 37, 65
1, 391926, Control_c, 0, 64, 102
1, 391938, Note_off_c, 0, 41, 66
1, 391941, Control_c, 0, 64, 97
1, 391959, Note_off_c, 0, 50, 63
1, 391970, Note_off_c, 0, 44, 64
1, 391971, Control_c, 0, 64, 98
1, 391975, Note_off_c, 0, 53, 66
1, 391986, Control_c, 0, 64, 103
1, 392001, Control_c, 0, 64, 113
1, 392002, Note_off_c, 0, 56, 65
1, 392015, Note_off_c, 0, 59, 64
1, 392016, Control_c, 0, 64, 125
1, 392030, Control_c, 0, 64, 127
1, 392036, Note_off_c, 0, 65, 65
1, 392278, Note_on_c, 0, 61, 94
1, 392286, Note_on_c, 0, 85, 101
1, 392290, Note_on_c, 0, 73, 88
1, 392322, Note_off_c, 0, 61, 60
1, 392340, Note_off_c, 0, 73, 61
1, 392349, Note_off_c, 0, 85, 62
1, 392380, Control_c, 0, 64, 112
1, 392395, Control_c, 0, 64, 80
1, 392409, Control_c, 0, 64, 0
1, 392412, Note_on_c, 0, 85, 101
1, 392414, Note_on_c, 0, 73, 104
1, 392418, Note_on_c, 0, 61, 97
1, 392454, Control_c, 0, 64, 66
1, 392469, Control_c, 0, 64, 82
1, 392473, Note_off_c, 0, 85, 68
1, 392483, Control_c, 0, 64, 109
1, 392489, Note_off_c, 0, 61, 61
1, 392498, Control_c, 0, 64, 127
1, 392516, Note_off_c, 0, 73, 61
1, 392879, Note_on_c, 0, 37, 71
1, 392889, Note_on_c, 0, 45, 72
1, 392892, Note_on_c, 0, 49, 80
1, 392898, Note_on_c, 0, 42, 76
1, 392903, Note_on_c, 0, 66, 96
1, 392905, Note_on_c, 0, 54, 87
1, 392912, Note_on_c, 0, 61, 83
1, 392913, Note_on_c, 0, 57, 81
1, 392929, Note_off_c, 0, 37, 65
1, 392959, Note_off_c, 0, 42, 65
1, 392964, Note_off_c, 0, 54, 63
1, 392972, Note_off_c, 0, 57, 63
1, 392978, Note_off_c, 0, 45, 63
1, 392990, Note_off_c, 0, 49, 61
1, 393026, Note_off_c, 0, 61, 64
1, 393030, Note_off_c, 0, 66, 65
1, 393404, Note_on_c, 0, 89, 90
1, 393410, Note_on_c, 0, 77, 80
1, 393425, Note_on_c, 0, 65, 69
1, 393470, Note_off_c, 0, 77, 61
1, 393512, Note_off_c, 0, 89, 65
1, 393655, Note_on_c, 0, 90, 94
1, 393656, Note_on_c, 0, 66, 79
1, 393657, Note_off_c, 0, 65, 62
1, 393659, Note_on_c, 0, 78, 87
1, 393774, Note_off_c, 0, 78, 54
1, 393820, Note_off_c, 0, 90, 62
1, 393879, Note_off_c, 0, 66, 63
1, 393881, Note_on_c, 0, 91, 102
1, 393884, Note_on_c, 0, 79, 93
1, 393885, Note_on_c, 0, 67, 87
1, 393936, Note_off_c, 0, 79, 63
1, 393968, Note_off_c, 0, 91, 62
1, 394087, Note_off_c, 0, 67, 59
1, 394102, Note_on_c, 0, 68, 97
1, 394104, Note_on_c, 0, 92, 100
1, 394107, Note_on_c, 0, 80, 95
1, 394236, Note_off_c, 0, 80, 62
1, 394254, Note_off_c, 0, 92, 63
1, 394293, Note_off_c, 0, 68, 60
1, 394320, Note_on_c, 0, 69, 94
1, 394323, Note_on_c, 0, 93, 103
1, 394327, Note_on_c, 0, 81, 100
1, 394355, Note_off_c, 0, 69, 69
1, 394365, Note_off_c, 0, 93, 66
1, 394369, Note_off_c, 0, 81, 59
1, 394564, Control_c, 0, 64, 86
1, 394579, Control_c, 0, 64, 0
1, 394598, Note_on_c, 0, 73, 94
1, 394598, Note_on_c, 0, 85, 100
1, 394602, Note_on_c, 0, 61, 110
1, 394627, Note_off_c, 0, 61, 68
1, 394636, Note_off_c, 0, 85, 70
1, 394639, Control_c, 0, 64, 72
1, 394654, Control_c, 0, 64, 98
1, 394663, Note_off_c, 0, 73, 48
1, 394668, Control_c, 0, 64, 127
1, 395077, Note_on_c, 0, 45, 87
1, 395077, Note_on_c, 0, 66, 96
1, 395079, Note_on_c, 0, 54, 93
1, 395080, Note_on_c, 0, 49, 85
1, 395083, Note_on_c, 0, 57, 82
1, 395086, Note_on_c, 0, 61, 84
1, 395091, Note_on_c, 0, 42, 78
1, 395100, Note_on_c, 0, 37, 49
1, 395116, Note_off_c, 0, 49, 60
1, 395122, Note_off_c, 0, 42, 67
1, 395131, Note_off_c, 0, 37, 54
1, 395136, Note_off_c, 0, 45, 65
1, 395139, Note_off_c, 0, 54, 64
1, 395151, Note_off_c, 0, 57, 61
1, 395216, Note_off_c, 0, 61, 64
1, 395217, Note_off_c, 0, 66, 68
1, 395655, Control_c, 0, 64, 103
1, 395661, Note_on_c, 0, 86, 104
1, 395662, Note_on_c, 0, 74, 99
1, 395663, Note_on_c, 0, 62, 105
1, 395670, Control_c, 0, 64, 70
1, 395685, Control_c, 0, 64, 0
1, 395744, Control_c, 0, 64, 46
1, 395760, Control_c, 0, 64, 80
1, 395774, Note_off_c, 0, 86, 66
1, 395774, Control_c, 0, 64, 105
1, 395789, Control_c, 0, 64, 127
1, 395813, Note_off_c, 0, 62, 63
1, 395817, Note_off_c, 0, 74, 64
1, 396157, Note_on_c, 0, 37, 69
1, 396173, Note_on_c, 0, 44, 82
1, 396180, Note_on_c, 0, 41, 79
1, 396185, Note_on_c, 0, 65, 99
1, 396186, Note_on_c, 0, 50, 93
1, 396186, Note_on_c, 0, 53, 94
1, 396192, Note_on_c, 0, 56, 89
1, 396196, Note_on_c, 0, 59, 81
1, 396214, Note_off_c, 0, 37, 65
1, 396242, Note_off_c, 0, 41, 65
1, 396245, Note_off_c, 0, 50, 63
1, 396260, Note_off_c, 0, 44, 63
1, 396311, Note_off_c, 0, 53, 64
1, 396352, Note_off_c, 0, 56, 61
1, 396362, Note_off_c, 0, 59, 61
1, 396400, Note_off_c, 0, 65, 64
1, 396732, Note_on_c, 0, 61, 101
1, 396732, Note_on_c, 0, 85, 99
1, 396735, Note_on_c, 0, 73, 91
1, 396775, Note_off_c, 0, 61, 60
1, 396811, Note_off_c, 0, 73, 60
1, 396817, Note_off_c, 0, 85, 63
1, 396880, Note_on_c, 0, 85, 101
1, 396886, Note_on_c, 0, 73, 100
1, 396886, Control_c, 0, 64, 88
1, 396889, Note_on_c, 0, 61, 95
1, 396901, Control_c, 0, 64, 0
1, 396961, Control_c, 0, 64, 66
1, 396975, Control_c, 0, 64, 81
1, 396990, Control_c, 0, 64, 101
1, 397005, Control_c, 0, 64, 127
1, 397014, Note_off_c, 0, 85, 66
1, 397055, Note_off_c, 0, 61, 64
1, 397059, Note_off_c, 0, 73, 60
1, 397515, Note_on_c, 0, 66, 97
1, 397515, Note_on_c, 0, 49, 90
1, 397519, Note_on_c, 0, 54, 90
1, 397520, Note_on_c, 0, 45, 81
1, 397524, Note_on_c, 0, 57, 81
1, 397525, Note_on_c, 0, 61, 81
1, 397526, Note_on_c, 0, 37, 69
1, 397529, Note_on_c, 0, 42, 69
1, 397551, Note_off_c, 0, 37, 66
1, 397577, Note_off_c, 0, 49, 61
1, 397581, Note_off_c, 0, 42, 63
1, 397581, Note_off_c, 0, 54, 62
1, 397581, Note_off_c, 0, 57, 61
1, 397587, Note_off_c, 0, 45, 64
1, 397643, Note_off_c, 0, 61, 64
1, 397652, Note_off_c, 0, 66, 68
1, 398070, Note_on_c, 0, 89, 89
1, 398073, Note_on_c, 0, 65, 64
1, 398073, Note_on_c, 0, 77, 77
1, 398142, Note_off_c, 0, 77, 59
1, 398215, Note_off_c, 0, 89, 63
1, 398365, Note_on_c, 0, 66, 79
1, 398370, Note_on_c, 0, 90, 96
1, 398372, Note_on_c, 0, 78, 86
1, 398373, Note_off_c, 0, 65, 60
1, 398511, Note_off_c, 0, 78, 61
1, 398556, Note_off_c, 0, 90, 61
1, 398615, Note_on_c, 0, 91, 99
1, 398616, Note_on_c, 0, 67, 84
1, 398620, Note_on_c, 0, 79, 89
1, 398630, Note_off_c, 0, 66, 56
1, 398665, Note_off_c, 0, 79, 65
1, 398701, Note_off_c, 0, 91, 62
1, 398827, Note_off_c, 0, 67, 53
1, 398833, Note_on_c, 0, 68, 87
1, 398836, Note_on_c, 0, 92, 108
1, 398842, Note_on_c, 0, 80, 91
1, 398908, Note_off_c, 0, 80, 59
1, 398934, Note_off_c, 0, 92, 62
1, 399000, Note_off_c, 0, 68, 61
1, 399042, Note_on_c, 0, 93, 104
1, 399044, Note_on_c, 0, 81, 99
1, 399046, Note_on_c, 0, 69, 91
1, 399095, Note_off_c, 0, 81, 62
1, 399127, Note_off_c, 0, 69, 62
1, 399128, Note_off_c, 0, 93, 60
1, 399207, Control_c, 0, 64, 93
1, 399221, Control_c, 0, 64, 51
1, 399236, Control_c, 0, 64, 0
1, 399253, Note_on_c, 0, 69, 96
1, 399256, Note_on_c, 0, 81, 103
1, 399256, Note_on_c, 0, 93, 110
1, 399295, Control_c, 0, 64, 75
1, 399298, Note_off_c, 0, 93, 65
1, 399310, Control_c, 0, 64, 106
1, 399325, Control_c, 0, 64, 127
1, 399331, Note_off_c, 0, 69, 67
1, 399337, Note_off_c, 0, 81, 59
1, 399704, Note_on_c, 0, 48, 100
1, 399711, Note_on_c, 0, 36, 87
1, 399712, Note_on_c, 0, 42, 89
1, 399716, Note_on_c, 0, 54, 71
1, 399718, Note_on_c, 0, 63, 73
1, 399721, Note_on_c, 0, 51, 76
1, 399723, Note_on_c, 0, 39, 62
1, 399730, Note_off_c, 0, 48, 68
1, 399736, Note_off_c, 0, 36, 66
1, 399736, Note_off_c, 0, 42, 66
1, 399749, Note_off_c, 0, 39, 59
1, 399752, Note_off_c, 0, 54, 61
1, 399754, Note_off_c, 0, 51, 61
1, 399831, Note_off_c, 0, 63, 64
1, 400133, Note_on_c, 0, 69, 118
1, 400134, Note_on_c, 0, 93, 100
1, 400135, Note_on_c, 0, 81, 102
1, 400157, Note_off_c, 0, 69, 76
1, 400165, Note_off_c, 0, 93, 65
1, 400182, Note_off_c, 0, 81, 68
1, 400597, Note_on_c, 0, 51, 87
1, 400598, Note_on_c, 0, 63, 92
1, 400602, Note_on_c, 0, 47, 100
1, 400603, Note_on_c, 0, 54, 77
1, 400611, Note_on_c, 0, 39, 84
1, 400614, Note_on_c, 0, 35, 84
1, 400615, Note_on_c, 0, 42, 84
1, 400615, Note_on_c, 0, 57, 61
1, 400657, Note_off_c, 0, 51, 64
1, 400660, Control_c, 0, 64, 86
1, 400675, Control_c, 0, 64, 0
1, 400693, Note_off_c, 0, 57, 61
1, 400711, Note_off_c, 0, 54, 61
1, 400720, Control_c, 0, 64, 47
1, 400734, Control_c, 0, 64, 72
1, 400749, Control_c, 0, 64, 90
1, 400756, Note_off_c, 0, 63, 65
1, 400764, Control_c, 0, 64, 118
1, 400779, Control_c, 0, 64, 127
1, 400806, Note_off_c, 0, 42, 63
1, 400902, Note_off_c, 0, 35, 59
1, 400922, Note_on_c, 0, 42, 12
1, 400952, Note_off_c, 0, 42, 55
1, 400962, Note_off_c, 0, 47, 62
1, 401030, Note_off_c, 0, 39, 52
1, 401051, Note_on_c, 0, 42, 38
1, 401119, Note_on_c, 0, 93, 109
1, 401119, Note_on_c, 0, 81, 102
1, 401175, Note_off_c, 0, 93, 65
1, 401178, Note_off_c, 0, 81, 65
1, 401212, Note_off_c, 0, 42, 63
1, 401231, Control_c, 0, 64, 105
1, 401233, Note_on_c, 0, 46, 105
1, 401241, Note_on_c, 0, 34, 84
1, 401246, Control_c, 0, 64, 70
1, 401247, Note_on_c, 0, 93, 113
1, 401249, Note_on_c, 0, 81, 101
1, 401261, Control_c, 0, 64, 0
1, 401286, Note_off_c, 0, 34, 63
1, 401305, Control_c, 0, 64, 67
1, 401320, Control_c, 0, 64, 87
1, 401333, Note_off_c, 0, 81, 64
1, 401335, Control_c, 0, 64, 120
1, 401349, Note_off_c, 0, 46, 59
1, 401350, Control_c, 0, 64, 127
1, 401363, Note_off_c, 0, 93, 60
1, 401489, Note_on_c, 0, 94, 105
1, 401495, Note_on_c, 0, 82, 90
1, 401659, Note_on_c, 0, 70, 99
1, 401671, Note_on_c, 0, 63, 79
1, 401673, Note_on_c, 0, 58, 65
1, 401683, Note_on_c, 0, 66, 63
1, 401690, Note_off_c, 0, 58, 68
1, 401692, Note_off_c, 0, 94, 55
1, 401696, Note_off_c, 0, 63, 67
1, 401697, Note_off_c, 0, 70, 66
1, 401712, Note_off_c, 0, 66, 67
1, 401721, Note_off_c, 0, 82, 60
1, 401848, Note_on_c, 0, 95, 107
1, 401850, Note_on_c, 0, 83, 98
1, 402067, Note_on_c, 0, 45, 102
1, 402068, Control_c, 0, 64, 84
1, 402074, Note_on_c, 0, 33, 98
1, 402083, Control_c, 0, 64, 0
1, 402117, Note_off_c, 0, 83, 51
1, 402127, Control_c, 0, 64, 64
1, 402142, Control_c, 0, 64, 80
1, 402148, Note_off_c, 0, 33, 65
1, 402157, Control_c, 0, 64, 98
1, 402172, Control_c, 0, 64, 127
1, 402182, Note_off_c, 0, 95, 59
1, 402203, Poly_aftertouch_c, 0, 37, 0
1, 402204, Note_off_c, 0, 45, 63
1, 402282, Note_on_c, 0, 96, 102
1, 402285, Note_on_c, 0, 84, 98
1, 402328, Note_off_c, 0, 84, 67
1, 402346, Note_off_c, 0, 96, 62
1, 402525, Note_on_c, 0, 61, 50
1, 402536, Note_on_c, 0, 64, 69
1, 402565, Note_on_c, 0, 67, 63
1, 402570, Note_on_c, 0, 73, 97
1, 402610, Note_off_c, 0, 61, 64
1, 402619, Note_on_c, 0, 87, 105
1, 402619, Note_on_c, 0, 99, 108
1, 402651, Note_off_c, 0, 73, 67
1, 402652, Note_off_c, 0, 67, 62
1, 402669, Note_off_c, 0, 64, 63
1, 402734, Note_off_c, 0, 99, 66
1, 402765, Note_off_c, 0, 87, 62
1, 402909, Note_on_c, 0, 97, 106
1, 402913, Note_on_c, 0, 85, 99
1, 403206, Note_off_c, 0, 97, 38
1, 403212, Note_off_c, 0, 85, 32
1, 403284, Note_on_c, 0, 97, 108
1, 403289, Note_on_c, 0, 85, 101
1, 403295, Note_on_c, 0, 44, 94
1, 403301, Note_on_c, 0, 32, 80
1, 403307, Control_c, 0, 64, 90
1, 403322, Control_c, 0, 64, 0
1, 403380, Control_c, 0, 64, 60
1, 403395, Control_c, 0, 64, 75
1, 403417, Note_off_c, 0, 32, 63
1, 403417, Control_c, 0, 64, 94
1, 403432, Control_c, 0, 64, 119
1, 403447, Control_c, 0, 64, 127
1, 403472, Note_off_c, 0, 44, 60
1, 403515, Note_off_c, 0, 85, 63
1, 403527, Note_off_c, 0, 97, 64
1, 404132, Note_on_c, 0, 72, 63
1, 404136, Note_on_c, 0, 60, 53
1, 404139, Note_on_c, 0, 68, 55
1, 404140, Note_on_c, 0, 65, 54
1, 404210, Note_off_c, 0, 72, 63
1, 404258, Note_off_c, 0, 68, 62
1, 404261, Note_off_c, 0, 65, 64
1, 404293, Note_off_c, 0, 60, 57
1, 404418, Note_on_c, 0, 96, 80
1, 404425, Note_on_c, 0, 84, 73
1, 404466, Note_off_c, 0, 84, 64
1, 404472, Note_off_c, 0, 96, 63
1, 404548, Note_on_c, 0, 94, 87
1, 404561, Note_on_c, 0, 82, 77
1, 404601, Note_off_c, 0, 82, 64
1, 404608, Note_off_c, 0, 94, 65
1, 404648, Note_on_c, 0, 34, 66
1, 404656, Control_c, 0, 64, 124
1, 404663, Note_on_c, 0, 46, 77
1, 404671, Control_c, 0, 64, 87
1, 404686, Note_on_c, 0, 92, 97
1, 404686, Control_c, 0, 64, 48
1, 404691, Note_on_c, 0, 80, 88
1, 404701, Control_c, 0, 64, 0
1, 404745, Control_c, 0, 64, 61
1, 404751, Note_off_c, 0, 34, 63
1, 404759, Control_c, 0, 64, 73
1, 404774, Control_c, 0, 64, 84
1, 404789, Control_c, 0, 64, 98
1, 404800, Note_off_c, 0, 46, 58
1, 404804, Control_c, 0, 64, 106
1, 404819, Control_c, 0, 64, 108
1, 404833, Control_c, 0, 64, 108
1, 404848, Note_off_c, 0, 80, 63
1, 404848, Control_c, 0, 64, 109
1, 404863, Control_c, 0, 64, 112
1, 404878, Control_c, 0, 64, 114
1, 404879, Note_off_c, 0, 92, 63
1, 404893, Control_c, 0, 64, 117
1, 404915, Control_c, 0, 64, 120
1, 404930, Control_c, 0, 64, 123
1, 404945, Control_c, 0, 64, 127
1, 404959, Control_c, 0, 64, 127
1, 405235, Note_on_c, 0, 61, 53
1, 405238, Note_on_c, 0, 65, 47
1, 405244, Note_on_c, 0, 67, 49
1, 405251, Note_on_c, 0, 55, 48
1, 405283, Note_off_c, 0, 67, 58
1, 405295, Note_off_c, 0, 65, 58
1, 405325, Note_off_c, 0, 61, 58
1, 405373, Note_off_c, 0, 55, 63
1, 405480, Note_on_c, 0, 91, 78
1, 405490, Note_on_c, 0, 79, 71
1, 405528, Note_off_c, 0, 91, 60
1, 405542, Note_off_c, 0, 79, 59
1, 405618, Note_on_c, 0, 89, 91
1, 405629, Note_on_c, 0, 77, 73
1, 405666, Note_off_c, 0, 77, 60
1, 405694, Control_c, 0, 64, 112
1, 405709, Control_c, 0, 64, 87
1, 405713, Note_off_c, 0, 89, 63
1, 405719, Note_on_c, 0, 36, 61
1, 405724, Control_c, 0, 64, 63
1, 405738, Control_c, 0, 64, 0
1, 405751, Note_on_c, 0, 48, 70
1, 405796, Note_on_c, 0, 87, 91
1, 405797, Control_c, 0, 64, 64
1, 405803, Note_on_c, 0, 75, 81
1, 405808, Note_off_c, 0, 36, 64
1, 405812, Control_c, 0, 64, 73
1, 405827, Control_c, 0, 64, 84
1, 405842, Control_c, 0, 64, 95
1, 405856, Note_off_c, 0, 48, 63
1, 405856, Control_c, 0, 64, 100
1, 405862, Note_off_c, 0, 87, 65
1, 405870, Note_off_c, 0, 75, 56
1, 405871, Control_c, 0, 64, 102
1, 405886, Control_c, 0, 64, 103
1, 405901, Control_c, 0, 64, 105
1, 405915, Control_c, 0, 64, 109
1, 405932, Control_c, 0, 64, 113
1, 405947, Control_c, 0, 64, 116
1, 405961, Control_c, 0, 64, 118
1, 405976, Control_c, 0, 64, 120
1, 405991, Control_c, 0, 64, 121
1, 406005, Control_c, 0, 64, 122
1, 406020, Control_c, 0, 64, 123
1, 406035, Control_c, 0, 64, 124
1, 406050, Control_c, 0, 64, 125
1, 406070, Note_on_c, 0, 86, 90
1, 406081, Note_on_c, 0, 74, 71
1, 406094, Control_c, 0, 64, 125
1, 406169, Control_c, 0, 64, 126
1, 406199, Control_c, 0, 64, 126
1, 406242, Control_c, 0, 64, 127
1, 406271, Control_c, 0, 64, 127
1, 406279, Note_off_c, 0, 74, 61
1, 406290, Note_on_c, 0, 65, 61
1, 406291, Note_on_c, 0, 68, 60
1, 406306, Note_on_c, 0, 56, 44
1, 406310, Note_on_c, 0, 60, 49
1, 406312, Note_off_c, 0, 86, 63
1, 406337, Note_off_c, 0, 65, 61
1, 406342, Note_off_c, 0, 68, 60
1, 406365, Note_off_c, 0, 56, 51
1, 406395, Note_off_c, 0, 60, 58
1, 406500, Note_on_c, 0, 85, 89
1, 406509, Note_on_c, 0, 73, 72
1, 406723, Control_c, 0, 64, 121
1, 406739, Control_c, 0, 64, 100
1, 406754, Control_c, 0, 64, 79
1, 406759, Note_on_c, 0, 46, 63
1, 406763, Note_on_c, 0, 34, 54
1, 406769, Control_c, 0, 64, 0
1, 406813, Control_c, 0, 64, 33
1, 406828, Control_c, 0, 64, 65
1, 406834, Note_off_c, 0, 85, 65
1, 406843, Control_c, 0, 64, 74
1, 406850, Note_off_c, 0, 73, 63
1, 406854, Note_off_c, 0, 34, 62
1, 406857, Control_c, 0, 64, 86
1, 406872, Control_c, 0, 64, 95
1, 406887, Control_c, 0, 64, 98
1, 406902, Control_c, 0, 64, 99
1, 406914, Note_off_c, 0, 46, 59
1, 406917, Control_c, 0, 64, 99
1, 406932, Control_c, 0, 64, 100
1, 406947, Control_c, 0, 64, 102
1, 406961, Control_c, 0, 64, 103
1, 406976, Control_c, 0, 64, 105
1, 406984, Note_on_c, 0, 83, 75
1, 406991, Control_c, 0, 64, 107
1, 406994, Note_on_c, 0, 71, 63
1, 407006, Control_c, 0, 64, 108
1, 407021, Control_c, 0, 64, 109
1, 407030, Note_off_c, 0, 71, 60
1, 407035, Control_c, 0, 64, 110
1, 407050, Control_c, 0, 64, 111
1, 407051, Note_off_c, 0, 83, 56
1, 407065, Control_c, 0, 64, 111
1, 407080, Control_c, 0, 64, 112
1, 407124, Control_c, 0, 64, 112
1, 407131, Note_on_c, 0, 84, 85
1, 407155, Note_on_c, 0, 72, 49
1, 407176, Control_c, 0, 64, 113
1, 407177, Note_off_c, 0, 72, 58
1, 407197, Note_off_c, 0, 84, 63
1, 407206, Control_c, 0, 64, 113
1, 407235, Control_c, 0, 64, 114
1, 407265, Control_c, 0, 64, 114
1, 407295, Control_c, 0, 64, 115
1, 407307, Note_on_c, 0, 55, 42
1, 407331, Note_on_c, 0, 64, 47
1, 407353, Control_c, 0, 64, 115
1, 407376, Note_on_c, 0, 67, 48
1, 407398, Control_c, 0, 64, 116
1, 407413, Control_c, 0, 64, 116
1, 407424, Note_on_c, 0, 92, 90
1, 407430, Note_on_c, 0, 80, 75
1, 407442, Control_c, 0, 64, 117
1, 407457, Control_c, 0, 64, 117
1, 407472, Control_c, 0, 64, 118
1, 407474, Note_off_c, 0, 67, 62
1, 407480, Note_off_c, 0, 92, 64
1, 407487, Control_c, 0, 64, 119
1, 407501, Control_c, 0, 64, 120
1, 407516, Control_c, 0, 64, 121
1, 407532, Note_off_c, 0, 80, 33
1, 407532, Control_c, 0, 64, 122
1, 407547, Control_c, 0, 64, 123
1, 407561, Note_off_c, 0, 64, 41
1, 407562, Control_c, 0, 64, 123
1, 407576, Control_c, 0, 64, 124
1, 407591, Control_c, 0, 64, 124
1, 407621, Control_c, 0, 64, 125
1, 407626, Note_on_c, 0, 91, 84
1, 407633, Note_on_c, 0, 79, 75
1, 407636, Control_c, 0, 64, 125
1, 407638, Note_off_c, 0, 55, 42
1, 407650, Control_c, 0, 64, 126
1, 407665, Control_c, 0, 64, 127
1, 407672, Note_off_c, 0, 79, 57
1, 407675, Note_off_c, 0, 91, 61
1, 407680, Control_c, 0, 64, 127
1, 407794, Note_on_c, 0, 88, 85
1, 407804, Note_on_c, 0, 76, 72
1, 407831, Note_off_c, 0, 76, 68
1, 407864, Note_off_c, 0, 88, 58
1, 408004, Note_on_c, 0, 32, 48
1, 408014, Note_on_c, 0, 73, 69
1, 408043, Control_c, 0, 64, 124
1, 408054, Note_on_c, 0, 44, 42
1, 408057, Control_c, 0, 64, 117
1, 408072, Control_c, 0, 64, 106
1, 408087, Control_c, 0, 64, 92
1, 408097, Note_on_c, 0, 85, 89
1, 408101, Control_c, 0, 64, 72
1, 408116, Control_c, 0, 64, 0
1, 408190, Control_c, 0, 64, 64
1, 408194, Note_off_c, 0, 32, 57
1, 408205, Control_c, 0, 64, 72
1, 408220, Control_c, 0, 64, 82
1, 408235, Control_c, 0, 64, 91
1, 408249, Control_c, 0, 64, 96
1, 408250, Note_off_c, 0, 44, 57
1, 408264, Control_c, 0, 64, 97
1, 408279, Control_c, 0, 64, 97
1, 408294, Control_c, 0, 64, 99
1, 408309, Control_c, 0, 64, 100
1, 408325, Control_c, 0, 64, 102
1, 408340, Control_c, 0, 64, 103
1, 408340, Control_c, 0, 67, 8
1, 408354, Control_c, 0, 64, 104
1, 408354, Control_c, 0, 67, 12
1, 408369, Control_c, 0, 64, 104
1, 408369, Control_c, 0, 67, 17
1, 408384, Control_c, 0, 67, 23
1, 408399, Control_c, 0, 64, 105
1, 408399, Control_c, 0, 67, 29
1, 408413, Control_c, 0, 67, 36
1, 408428, Control_c, 0, 67, 45
1, 408443, Control_c, 0, 67, 57
1, 408458, Control_c, 0, 67, 72
1, 408473, Control_c, 0, 67, 91
1, 408488, Control_c, 0, 67, 107
1, 408503, Control_c, 0, 67, 122
1, 408518, Control_c, 0, 67, 127
1, 408551, Note_off_c, 0, 73, 53
1, 408753, Note_on_c, 0, 65, 43
1, 408756, Note_on_c, 0, 60, 42
1, 408777, Note_on_c, 0, 53, 36
1, 408842, Note_off_c, 0, 65, 63
1, 408847, Note_off_c, 0, 85, 0
1, 408858, Note_off_c, 0, 60, 53
1, 408884, Poly_aftertouch_c, 0, 85, 127
1, 408917, Poly_aftertouch_c, 0, 85, 0
1, 408958, Note_off_c, 0, 53, 55
1, 409064, Note_on_c, 0, 84, 68
1, 409081, Note_on_c, 0, 72, 49
1, 409110, Note_off_c, 0, 72, 59
1, 409126, Note_off_c, 0, 84, 62
1, 409212, Note_on_c, 0, 82, 82
1, 409227, Note_on_c, 0, 70, 69
1, 409258, Note_off_c, 0, 70, 62
1, 409270, Note_off_c, 0, 82, 63
1, 409326, Control_c, 0, 64, 104
1, 409341, Control_c, 0, 64, 103
1, 409355, Control_c, 0, 64, 101
1, 409366, Note_on_c, 0, 46, 46
1, 409370, Note_on_c, 0, 34, 36
1, 409370, Control_c, 0, 64, 98
1, 409385, Control_c, 0, 64, 92
1, 409408, Control_c, 0, 64, 83
1, 409423, Control_c, 0, 64, 70
1, 409424, Note_on_c, 0, 80, 81
1, 409437, Note_on_c, 0, 68, 60
1, 409437, Control_c, 0, 64, 0
1, 409526, Control_c, 0, 64, 23
1, 409541, Control_c, 0, 64, 66
1, 409547, Note_off_c, 0, 34, 58
1, 409555, Control_c, 0, 64, 73
1, 409570, Control_c, 0, 64, 79
1, 409585, Control_c, 0, 64, 83
1, 409600, Control_c, 0, 64, 85
1, 409615, Control_c, 0, 64, 86
1, 409628, Note_off_c, 0, 46, 41
1, 409630, Control_c, 0, 64, 88
1, 409645, Control_c, 0, 64, 89
1, 409659, Control_c, 0, 64, 91
1, 409674, Control_c, 0, 64, 92
1, 409689, Control_c, 0, 64, 93
1, 409704, Control_c, 0, 64, 93
1, 409719, Control_c, 0, 64, 94
1, 409734, Control_c, 0, 64, 94
1, 409748, Control_c, 0, 64, 95
1, 409763, Control_c, 0, 64, 95
1, 409778, Control_c, 0, 64, 96
1, 409779, Note_off_c, 0, 80, 54
1, 409788, Note_off_c, 0, 68, 57
1, 409793, Control_c, 0, 64, 96
1, 409837, Control_c, 0, 64, 97
1, 410098, Note_on_c, 0, 61, 44
1, 410104, Note_on_c, 0, 58, 40
1, 410208, Note_off_c, 0, 58, 40
1, 410218, Note_off_c, 0, 61, 51
1, 410491, Note_on_c, 0, 78, 71
1, 410499, Note_on_c, 0, 66, 56
1, 410605, Note_off_c, 0, 66, 58
1, 410640, Note_off_c, 0, 78, 58
1, 410664, Note_on_c, 0, 77, 80
1, 410679, Note_on_c, 0, 65, 62
1, 410737, Note_off_c, 0, 65, 52
1, 410824, Control_c, 0, 64, 96
1, 410839, Control_c, 0, 64, 94
1, 410854, Control_c, 0, 64, 89
1, 410858, Note_on_c, 0, 75, 80
1, 410861, Note_off_c, 0, 77, 55
1, 410866, Note_on_c, 0, 48, 48
1, 410868, Control_c, 0, 64, 77
1, 410873, Note_on_c, 0, 36, 39
1, 410883, Control_c, 0, 64, 61
1, 410905, Control_c, 0, 64, 0
1, 410980, Control_c, 0, 64, 20
1, 410994, Control_c, 0, 64, 66
1, 411009, Control_c, 0, 64, 75
1, 411024, Control_c, 0, 64, 83
1, 411039, Control_c, 0, 64, 89
1, 411043, Note_off_c, 0, 36, 47
1, 411054, Control_c, 0, 64, 90
1, 411068, Control_c, 0, 64, 90
1, 411073, Note_off_c, 0, 75, 55
1, 411084, Note_off_c, 0, 48, 60
1, 411098, Control_c, 0, 64, 91
1, 411165, Note_on_c, 0, 74, 81
1, 411320, Control_c, 0, 64, 90
1, 411350, Control_c, 0, 64, 90
1, 411365, Control_c, 0, 64, 89
1, 411394, Control_c, 0, 64, 88
1, 411409, Control_c, 0, 64, 87
1, 411424, Control_c, 0, 64, 85
1, 411439, Control_c, 0, 64, 78
1, 411454, Control_c, 0, 64, 68
1, 411468, Control_c, 0, 64, 0
1, 411478, Note_on_c, 0, 65, 43
1, 411496, Note_on_c, 0, 60, 38
1, 411499, Note_on_c, 0, 56, 40
1, 411543, Control_c, 0, 64, 57
1, 411558, Control_c, 0, 64, 68
1, 411573, Control_c, 0, 64, 74
1, 411580, Note_off_c, 0, 74, 60
1, 411588, Control_c, 0, 64, 80
1, 411603, Control_c, 0, 64, 82
1, 411617, Control_c, 0, 64, 83
1, 411632, Control_c, 0, 64, 84
1, 411654, Control_c, 0, 64, 85
1, 411669, Control_c, 0, 64, 85
1, 411698, Control_c, 0, 64, 86
1, 411762, Note_on_c, 0, 73, 75
1, 411803, Control_c, 0, 64, 85
1, 411818, Control_c, 0, 64, 85
1, 411832, Control_c, 0, 64, 84
1, 411847, Control_c, 0, 64, 83
1, 411862, Control_c, 0, 64, 82
1, 411877, Control_c, 0, 64, 81
1, 411882, Note_off_c, 0, 65, 37
1, 411891, Control_c, 0, 64, 80
1, 411906, Control_c, 0, 64, 79
1, 411921, Control_c, 0, 64, 79
1, 411936, Control_c, 0, 64, 78
1, 411946, Note_off_c, 0, 56, 27
1, 411950, Control_c, 0, 64, 77
1, 411958, Note_off_c, 0, 60, 25
1, 411965, Control_c, 0, 64, 76
1, 411980, Control_c, 0, 64, 74
1, 411995, Control_c, 0, 64, 72
1, 412010, Control_c, 0, 64, 68
1, 412024, Control_c, 0, 64, 63
1, 412039, Control_c, 0, 64, 55
1, 412054, Control_c, 0, 64, 50
1, 412069, Control_c, 0, 64, 49
1, 412084, Control_c, 0, 64, 50
1, 412098, Control_c, 0, 64, 48
1, 412113, Control_c, 0, 64, 44
1, 412128, Control_c, 0, 64, 38
1, 412143, Control_c, 0, 64, 31
1, 412157, Control_c, 0, 64, 28
1, 412172, Control_c, 0, 64, 29
1, 412187, Control_c, 0, 64, 34
1, 412202, Control_c, 0, 64, 45
1, 412217, Control_c, 0, 64, 59
1, 412232, Control_c, 0, 64, 64
1, 412247, Control_c, 0, 64, 66
1, 412262, Control_c, 0, 64, 68
1, 412276, Control_c, 0, 64, 71
1, 412291, Control_c, 0, 64, 74
1, 412306, Control_c, 0, 64, 79
1, 412321, Control_c, 0, 64, 82
1, 412336, Control_c, 0, 64, 84
1, 412351, Control_c, 0, 64, 85
1, 412366, Control_c, 0, 64, 86
1, 412381, Control_c, 0, 64, 87
1, 412388, Note_off_c, 0, 73, 55
1, 412403, Control_c, 0, 64, 87
1, 412418, Control_c, 0, 64, 88
1, 412715, Control_c, 0, 64, 87
1, 412744, Control_c, 0, 64, 87
1, 412759, Control_c, 0, 64, 86
1, 412773, Control_c, 0, 64, 85
1, 412774, Note_on_c, 0, 72, 59
1, 412788, Control_c, 0, 64, 78
1, 412803, Control_c, 0, 64, 69
1, 412818, Control_c, 0, 64, 42
1, 412833, Control_c, 0, 64, 0
1, 412862, Control_c, 0, 64, 43
1, 412877, Control_c, 0, 64, 69
1, 412891, Control_c, 0, 64, 75
1, 412896, Note_off_c, 0, 72, 62
1, 412906, Control_c, 0, 64, 81
1, 412921, Control_c, 0, 64, 83
1, 412936, Control_c, 0, 64, 83
1, 412995, Control_c, 0, 64, 84
1, 413070, Control_c, 0, 64, 80
1, 413076, Note_on_c, 0, 71, 69
1, 413085, Control_c, 0, 64, 71
1, 413099, Control_c, 0, 64, 32
1, 413115, Control_c, 0, 64, 0
1, 413167, Control_c, 0, 64, 61
1, 413182, Control_c, 0, 64, 71
1, 413196, Control_c, 0, 64, 78
1, 413211, Control_c, 0, 64, 82
1, 413221, Note_off_c, 0, 71, 50
1, 413226, Control_c, 0, 64, 82
1, 413300, Control_c, 0, 64, 80
1, 413315, Control_c, 0, 64, 73
1, 413321, Note_on_c, 0, 70, 78
1, 413329, Control_c, 0, 64, 60
1, 413344, Control_c, 0, 64, 0
1, 413389, Control_c, 0, 64, 64
1, 413403, Control_c, 0, 64, 73
1, 413413, Note_off_c, 0, 70, 61
1, 413418, Control_c, 0, 64, 80
1, 413433, Control_c, 0, 64, 86
1, 413448, Control_c, 0, 64, 86
1, 413522, Control_c, 0, 64, 84
1, 413524, Note_on_c, 0, 69, 79
1, 413537, Control_c, 0, 64, 75
1, 413552, Control_c, 0, 64, 54
1, 413567, Control_c, 0, 64, 0
1, 413611, Control_c, 0, 64, 65
1, 413626, Control_c, 0, 64, 74
1, 413641, Control_c, 0, 64, 82
1, 413656, Control_c, 0, 64, 85
1, 413700, Control_c, 0, 64, 82
1, 413714, Control_c, 0, 64, 75
1, 413719, Note_off_c, 0, 69, 59
1, 413729, Control_c, 0, 64, 62
1, 413736, Note_on_c, 0, 68, 77
1, 413744, Control_c, 0, 64, 0
1, 413788, Control_c, 0, 64, 64
1, 413803, Control_c, 0, 64, 73
1, 413809, Note_off_c, 0, 68, 65
1, 413818, Control_c, 0, 64, 80
1, 413833, Control_c, 0, 64, 84
1, 413865, Note_on_c, 0, 48, 43
1, 413877, Control_c, 0, 64, 85
1, 413900, Control_c, 0, 64, 85
1, 413933, Note_on_c, 0, 52, 39
1, 413975, Control_c, 0, 64, 85
1, 413989, Note_on_c, 0, 58, 50
1, 413990, Control_c, 0, 64, 83
1, 414005, Control_c, 0, 64, 81
1, 414019, Control_c, 0, 64, 79
1, 414034, Control_c, 0, 64, 74
1, 414041, Note_on_c, 0, 61, 54
1, 414049, Control_c, 0, 64, 69
1, 414064, Control_c, 0, 64, 60
1, 414076, Note_on_c, 0, 67, 71
1, 414079, Control_c, 0, 64, 0
1, 414212, Control_c, 0, 64, 55
1, 414226, Control_c, 0, 64, 66
1, 414241, Control_c, 0, 64, 69
1, 414256, Control_c, 0, 64, 71
1, 414271, Control_c, 0, 64, 72
1, 414286, Control_c, 0, 64, 72
1, 414301, Control_c, 0, 64, 73
1, 414345, Control_c, 0, 64, 72
1, 414360, Note_on_c, 0, 66, 71
1, 414360, Control_c, 0, 64, 72
1, 414375, Control_c, 0, 64, 70
1, 414390, Control_c, 0, 64, 65
1, 414394, Note_off_c, 0, 67, 62
1, 414405, Control_c, 0, 64, 33
1, 414419, Control_c, 0, 64, 0
1, 414493, Control_c, 0, 64, 57
1, 414508, Control_c, 0, 64, 69
1, 414523, Control_c, 0, 64, 74
1, 414537, Control_c, 0, 64, 78
1, 414552, Control_c, 0, 64, 80
1, 414567, Control_c, 0, 64, 80
1, 414582, Control_c, 0, 64, 81
1, 414597, Control_c, 0, 64, 82
1, 414611, Control_c, 0, 64, 83
1, 414626, Control_c, 0, 64, 84
1, 414651, Note_off_c, 0, 66, 56
1, 414703, Note_off_c, 0, 58, 35
1, 414736, Note_off_c, 0, 61, 30
1, 414767, Note_on_c, 0, 65, 64
1, 414768, Control_c, 0, 64, 83
1, 414783, Control_c, 0, 64, 83
1, 414798, Control_c, 0, 64, 81
1, 414813, Control_c, 0, 64, 78
1, 414828, Control_c, 0, 64, 76
1, 414842, Control_c, 0, 64, 73
1, 414856, Note_off_c, 0, 48, 42
1, 414857, Control_c, 0, 64, 69
1, 414872, Control_c, 0, 64, 64
1, 414878, Note_off_c, 0, 52, 32
1, 414887, Control_c, 0, 64, 47
1, 414902, Control_c, 0, 64, 0
1, 415049, Control_c, 0, 64, 51
1, 415064, Control_c, 0, 64, 64
1, 415079, Control_c, 0, 64, 69
1, 415094, Control_c, 0, 64, 72
1, 415109, Control_c, 0, 64, 75
1, 415123, Control_c, 0, 64, 78
1, 415134, Note_off_c, 0, 65, 61
1, 415138, Control_c, 0, 64, 80
1, 415153, Control_c, 0, 64, 81
1, 415168, Control_c, 0, 64, 81
1, 415183, Control_c, 0, 64, 82
1, 415317, Control_c, 0, 64, 81
1, 415321, Note_on_c, 0, 64, 64
1, 415332, Control_c, 0, 64, 78
1, 415347, Control_c, 0, 64, 73
1, 415361, Control_c, 0, 64, 64
1, 415376, Control_c, 0, 64, 0
1, 415472, Control_c, 0, 64, 63
1, 415487, Control_c, 0, 64, 67
1, 415502, Control_c, 0, 64, 69
1, 415518, Control_c, 0, 64, 70
1, 415533, Control_c, 0, 64, 70
1, 415547, Control_c, 0, 64, 72
1, 415562, Control_c, 0, 64, 74
1, 415577, Control_c, 0, 64, 75
1, 415591, Control_c, 0, 64, 77
1, 415606, Control_c, 0, 64, 77
1, 415621, Control_c, 0, 64, 78
1, 415636, Control_c, 0, 64, 79
1, 415651, Control_c, 0, 64, 80
1, 415666, Control_c, 0, 64, 81
1, 415681, Control_c, 0, 64, 82
1, 415696, Control_c, 0, 64, 83
1, 415710, Control_c, 0, 64, 83
1, 415740, Control_c, 0, 64, 84
1, 415755, Control_c, 0, 64, 84
1, 415762, Note_off_c, 0, 64, 42
1, 416188, Note_on_c, 0, 68, 68
1, 416191, Control_c, 0, 64, 84
1, 416206, Control_c, 0, 64, 83
1, 416220, Control_c, 0, 64, 83
1, 416235, Control_c, 0, 64, 80
1, 416250, Control_c, 0, 64, 76
1, 416265, Control_c, 0, 64, 70
1, 416280, Control_c, 0, 64, 61
1, 416295, Control_c, 0, 64, 0
1, 417385, Control_c, 0, 64, 11
1, 417659, Control_c, 0, 64, 14
1, 417927, Control_c, 0, 64, 16
1, 418193, Control_c, 0, 64, 18
1, 418253, Control_c, 0, 64, 20
1, 418898, Control_c, 0, 64, 18
1, 418971, Control_c, 0, 64, 14
1, 418973, Note_on_c, 0, 67, 31
1, 418986, Control_c, 0, 64, 0
1, 419158, Note_off_c, 0, 68, 25
1, 419425, Note_off_c, 0, 67, 32
1, 423034, Control_c, 0, 64, 14
1, 423049, Control_c, 0, 64, 18
1, 423063, Control_c, 0, 64, 20
1, 423078, Control_c, 0, 64, 23
1, 423093, Control_c, 0, 64, 29
1, 423107, Control_c, 0, 64, 34
1, 423122, Control_c, 0, 64, 37
1, 423137, Control_c, 0, 64, 37
1, 423167, Control_c, 0, 64, 38
1, 423181, Control_c, 0, 64, 39
1, 423196, Control_c, 0, 64, 39
1, 423211, Control_c, 0, 64, 41
1, 423226, Control_c, 0, 64, 45
1, 423241, Control_c, 0, 64, 48
1, 423255, Control_c, 0, 64, 50
1, 423270, Control_c, 0, 64, 52
1, 423285, Control_c, 0, 64, 54
1, 423300, Control_c, 0, 64, 55
1, 423315, Control_c, 0, 64, 57
1, 423330, Control_c, 0, 64, 58
1, 423345, Control_c, 0, 64, 60
1, 423360, Control_c, 0, 64, 61
1, 423374, Control_c, 0, 64, 62
1, 423389, Control_c, 0, 64, 63
1, 423404, Control_c, 0, 64, 64
1, 423419, Control_c, 0, 64, 64
1, 423434, Control_c, 0, 64, 65
1, 423463, Control_c, 0, 64, 65
1, 423478, Control_c, 0, 64, 66
1, 423493, Control_c, 0, 64, 67
1, 423509, Control_c, 0, 64, 68
1, 423523, Control_c, 0, 64, 69
1, 423538, Control_c, 0, 64, 70
1, 423553, Control_c, 0, 64, 70
1, 423568, Control_c, 0, 64, 71
1, 423583, Control_c, 0, 64, 72
1, 423597, Control_c, 0, 64, 73
1, 423612, Control_c, 0, 64, 74
1, 423634, Control_c, 0, 64, 75
1, 423649, Control_c, 0, 64, 76
1, 423664, Control_c, 0, 64, 76
1, 423694, Control_c, 0, 64, 77
1, 423753, Control_c, 0, 64, 77
1, 423798, Control_c, 0, 64, 78
1, 423901, Control_c, 0, 64, 78
1, 424034, Control_c, 0, 64, 79
1, 424842, Control_c, 0, 64, 79
1, 424916, Control_c, 0, 64, 80
1, 425080, Control_c, 0, 64, 80
1, 425163, Control_c, 0, 64, 81
1, 425192, Control_c, 0, 64, 81
1, 425237, Control_c, 0, 64, 82
1, 425281, Control_c, 0, 64, 82
1, 425325, Control_c, 0, 64, 83
1, 425384, Control_c, 0, 64, 83
1, 425437, Note_on_c, 0, 80, 54
1, 425444, Control_c, 0, 64, 84
1, 425488, Control_c, 0, 64, 84
1, 425518, Control_c, 0, 64, 85
1, 425548, Control_c, 0, 64, 85
1, 425592, Control_c, 0, 64, 86
1, 425622, Control_c, 0, 64, 86
1, 425740, Control_c, 0, 64, 87
1, 425771, Note_on_c, 0, 47, 17
1, 425861, Note_off_c, 0, 47, 40
1, 425911, Control_c, 0, 64, 87
1, 426094, Note_on_c, 0, 56, 32
1, 426320, Note_on_c, 0, 64, 30
1, 426408, Note_off_c, 0, 56, 31
1, 426463, Note_off_c, 0, 64, 36
1, 426569, Note_on_c, 0, 71, 44
1, 426597, Note_off_c, 0, 71, 55
1, 426831, Note_on_c, 0, 85, 71
1, 426871, Note_off_c, 0, 80, 59
1, 426970, Control_c, 0, 64, 87
1, 426985, Control_c, 0, 64, 86
1, 427000, Control_c, 0, 64, 83
1, 427015, Control_c, 0, 64, 78
1, 427029, Control_c, 0, 64, 70
1, 427044, Control_c, 0, 64, 20
1, 427059, Control_c, 0, 64, 0
1, 427101, Note_on_c, 0, 47, 33
1, 427134, Control_c, 0, 64, 64
1, 427148, Control_c, 0, 64, 69
1, 427163, Control_c, 0, 64, 73
1, 427178, Control_c, 0, 64, 76
1, 427193, Control_c, 0, 64, 80
1, 427208, Control_c, 0, 64, 82
1, 427219, Note_off_c, 0, 47, 37
1, 427222, Control_c, 0, 64, 84
1, 427237, Control_c, 0, 64, 85
1, 427252, Control_c, 0, 64, 87
1, 427266, Control_c, 0, 64, 88
1, 427281, Control_c, 0, 64, 89
1, 427296, Control_c, 0, 64, 89
1, 427311, Control_c, 0, 64, 90
1, 427355, Control_c, 0, 64, 90
1, 427394, Note_on_c, 0, 55, 28
1, 427408, Control_c, 0, 64, 91
1, 427551, Note_on_c, 0, 64, 44
1, 427616, Control_c, 0, 64, 91
1, 427790, Note_off_c, 0, 64, 32
1, 427882, Note_on_c, 0, 70, 31
1, 428045, Note_off_c, 0, 85, 39
1, 428062, Note_off_c, 0, 70, 40
1, 428177, Note_off_c, 0, 55, 30
1, 428342, Note_on_c, 0, 84, 54
1, 428386, Note_off_c, 0, 84, 59
1, 428468, Control_c, 0, 64, 91
1, 428505, Note_on_c, 0, 84, 62
1, 428557, Control_c, 0, 64, 90
1, 428572, Control_c, 0, 64, 90
1, 428587, Control_c, 0, 64, 89
1, 428601, Control_c, 0, 64, 88
1, 428616, Control_c, 0, 64, 87
1, 428631, Control_c, 0, 64, 86
1, 428646, Control_c, 0, 64, 85
1, 428661, Control_c, 0, 64, 84
1, 428675, Control_c, 0, 64, 82
1, 428690, Control_c, 0, 64, 80
1, 428706, Control_c, 0, 64, 76
1, 428720, Control_c, 0, 64, 68
1, 428735, Control_c, 0, 64, 41
1, 428750, Control_c, 0, 64, 0
1, 428767, Note_on_c, 0, 47, 20
1, 428824, Control_c, 0, 64, 64
1, 428839, Control_c, 0, 64, 71
1, 428853, Control_c, 0, 64, 77
1, 428876, Control_c, 0, 64, 82
1, 428891, Control_c, 0, 64, 84
1, 428901, Note_off_c, 0, 47, 40
1, 428906, Control_c, 0, 64, 85
1, 428920, Control_c, 0, 64, 87
1, 428935, Control_c, 0, 64, 88
1, 428950, Control_c, 0, 64, 89
1, 428965, Control_c, 0, 64, 90
1, 428980, Control_c, 0, 64, 91
1, 428994, Control_c, 0, 64, 92
1, 429109, Note_on_c, 0, 56, 34
1, 429362, Note_on_c, 0, 64, 27
1, 429739, Note_on_c, 0, 71, 31
1, 430041, Note_off_c, 0, 64, 29
1, 430207, Note_off_c, 0, 71, 34
1, 430810, Note_off_c, 0, 56, 37
1, 431272, Note_on_c, 0, 83, 36
1, 431343, Note_off_c, 0, 84, 34
1, 431611, Control_c, 0, 64, 91
1, 431626, Control_c, 0, 64, 91
1, 431641, Control_c, 0, 64, 90
1, 431645, Note_on_c, 0, 76, 51
1, 431656, Control_c, 0, 64, 89
1, 431670, Control_c, 0, 64, 86
1, 431685, Control_c, 0, 64, 82
1, 431700, Control_c, 0, 64, 77
1, 431715, Control_c, 0, 64, 70
1, 431724, Note_off_c, 0, 83, 31
1, 431730, Control_c, 0, 64, 60
1, 431745, Control_c, 0, 64, 18
1, 431760, Control_c, 0, 64, 0
1, 431885, Control_c, 0, 64, 23
1, 431900, Control_c, 0, 64, 29
1, 431915, Control_c, 0, 64, 34
1, 431930, Control_c, 0, 64, 35
1, 431945, Control_c, 0, 64, 37
1, 431945, Note_on_c, 0, 78, 65
1, 431960, Control_c, 0, 64, 38
1, 431975, Control_c, 0, 64, 39
1, 431989, Control_c, 0, 64, 39
1, 431998, Note_off_c, 0, 76, 49
1, 432019, Control_c, 0, 64, 40
1, 432049, Control_c, 0, 64, 40
1, 432063, Control_c, 0, 64, 41
1, 432093, Control_c, 0, 64, 41
1, 432226, Control_c, 0, 64, 42
1, 432244, Note_on_c, 0, 80, 68
1, 432256, Control_c, 0, 64, 42
1, 432270, Control_c, 0, 64, 42
1, 432286, Control_c, 0, 64, 38
1, 432287, Note_off_c, 0, 78, 61
1, 432301, Control_c, 0, 64, 29
1, 432316, Control_c, 0, 64, 0
1, 432514, Note_on_c, 0, 47, 41
1, 432523, Control_c, 0, 64, 50
1, 432538, Control_c, 0, 64, 65
1, 432553, Control_c, 0, 64, 70
1, 432568, Control_c, 0, 64, 74
1, 432583, Control_c, 0, 64, 79
1, 432586, Note_off_c, 0, 47, 56
1, 432598, Control_c, 0, 64, 83
1, 432620, Control_c, 0, 64, 86
1, 432635, Control_c, 0, 64, 87
1, 432649, Control_c, 0, 64, 89
1, 432664, Control_c, 0, 64, 91
1, 432679, Control_c, 0, 64, 92
1, 432693, Control_c, 0, 64, 93
1, 432708, Control_c, 0, 64, 93
1, 432723, Control_c, 0, 64, 94
1, 432738, Control_c, 0, 64, 94
1, 432767, Control_c, 0, 64, 95
1, 432878, Note_on_c, 0, 56, 39
1, 433034, Control_c, 0, 64, 95
1, 433109, Note_on_c, 0, 64, 37
1, 433215, Note_off_c, 0, 64, 48
1, 433361, Note_off_c, 0, 56, 35
1, 433388, Note_on_c, 0, 71, 46
1, 433441, Note_off_c, 0, 71, 46
1, 433668, Note_on_c, 0, 85, 73
1, 433706, Note_off_c, 0, 80, 60
1, 433723, Control_c, 0, 64, 95
1, 433738, Control_c, 0, 64, 94
1, 433753, Control_c, 0, 64, 94
1, 433768, Control_c, 0, 64, 93
1, 433782, Control_c, 0, 64, 92
1, 433797, Control_c, 0, 64, 91
1, 433812, Control_c, 0, 64, 88
1, 433827, Control_c, 0, 64, 81
1, 433841, Control_c, 0, 64, 73
1, 433856, Control_c, 0, 64, 64
1, 433871, Control_c, 0, 64, 0
1, 433915, Note_on_c, 0, 47, 38
1, 433946, Control_c, 0, 64, 63
1, 433961, Control_c, 0, 64, 69
1, 433976, Control_c, 0, 64, 74
1, 433991, Control_c, 0, 64, 79
1, 434005, Control_c, 0, 64, 83
1, 434020, Control_c, 0, 64, 86
1, 434035, Control_c, 0, 64, 86
1, 434050, Control_c, 0, 64, 87
1, 434064, Control_c, 0, 64, 88
1, 434070, Note_off_c, 0, 47, 46
1, 434079, Control_c, 0, 64, 89
1, 434094, Control_c, 0, 64, 89
1, 434117, Control_c, 0, 64, 90
1, 434132, Control_c, 0, 64, 90
1, 434216, Note_on_c, 0, 55, 6
1, 434496, Note_off_c, 0, 55, 0
1, 434514, Note_on_c, 0, 55, 25
1, 434514, Note_on_c, 0, 64, 33
1, 434813, Note_off_c, 0, 64, 39
1, 434899, Note_off_c, 0, 55, 37
1, 434917, Note_on_c, 0, 70, 37
1, 435043, Note_off_c, 0, 85, 39
1, 435143, Note_off_c, 0, 70, 40
1, 435390, Note_on_c, 0, 84, 59
1, 435447, Note_off_c, 0, 84, 55
1, 435560, Note_on_c, 0, 84, 66
1, 435704, Control_c, 0, 64, 90
1, 435748, Control_c, 0, 64, 89
1, 435763, Control_c, 0, 64, 89
1, 435778, Control_c, 0, 64, 88
1, 435793, Control_c, 0, 64, 86
1, 435808, Control_c, 0, 64, 82
1, 435823, Control_c, 0, 64, 75
1, 435837, Control_c, 0, 64, 63
1, 435843, Note_on_c, 0, 47, 32
1, 435852, Control_c, 0, 64, 0
1, 435926, Control_c, 0, 64, 64
1, 435941, Control_c, 0, 64, 72
1, 435956, Control_c, 0, 64, 77
1, 435971, Control_c, 0, 64, 82
1, 435979, Note_off_c, 0, 47, 51
1, 435985, Control_c, 0, 64, 86
1, 436000, Control_c, 0, 64, 87
1, 436015, Control_c, 0, 64, 88
1, 436029, Control_c, 0, 64, 89
1, 436044, Control_c, 0, 64, 90
1, 436059, Control_c, 0, 64, 91
1, 436074, Control_c, 0, 64, 91
1, 436089, Control_c, 0, 64, 92
1, 436261, Note_on_c, 0, 56, 39
1, 436412, Note_on_c, 0, 64, 39
1, 436485, Note_off_c, 0, 64, 52
1, 436567, Note_off_c, 0, 56, 31
1, 436923, Note_on_c, 0, 71, 22
1, 437206, Note_off_c, 0, 71, 34
1, 438517, Note_on_c, 0, 83, 31
1, 438616, Note_off_c, 0, 84, 28
1, 438774, Control_c, 0, 64, 91
1, 438818, Control_c, 0, 64, 91
1, 438848, Control_c, 0, 64, 90
1, 438862, Control_c, 0, 64, 89
1, 438877, Control_c, 0, 64, 88
1, 438881, Note_on_c, 0, 76, 49
1, 438892, Control_c, 0, 64, 87
1, 438907, Control_c, 0, 64, 84
1, 438922, Control_c, 0, 64, 79
1, 438936, Control_c, 0, 64, 72
1, 438951, Control_c, 0, 64, 64
1, 438964, Note_off_c, 0, 83, 35
1, 438966, Control_c, 0, 64, 18
1, 438981, Control_c, 0, 64, 0
1, 439182, Note_on_c, 0, 78, 68
1, 439233, Note_off_c, 0, 76, 38
1, 439468, Note_on_c, 0, 80, 68
1, 439487, Note_off_c, 0, 78, 58
1, 439612, Control_c, 0, 64, 11
1, 439656, Control_c, 0, 64, 14
1, 439671, Control_c, 0, 64, 16
1, 439700, Control_c, 0, 64, 0
1, 439747, Note_on_c, 0, 47, 46
1, 439789, Control_c, 0, 64, 33
1, 439804, Control_c, 0, 64, 62
1, 439819, Control_c, 0, 64, 67
1, 439833, Control_c, 0, 64, 71
1, 439848, Control_c, 0, 64, 75
1, 439863, Control_c, 0, 64, 80
1, 439877, Control_c, 0, 64, 84
1, 439892, Control_c, 0, 64, 87
1, 439907, Control_c, 0, 64, 88
1, 439922, Control_c, 0, 64, 89
1, 439923, Note_off_c, 0, 47, 43
1, 439937, Control_c, 0, 64, 90
1, 439951, Control_c, 0, 64, 91
1, 439966, Control_c, 0, 64, 92
1, 440017, Note_on_c, 0, 53, 37
1, 440056, Control_c, 0, 64, 92
1, 440120, Note_off_c, 0, 53, 55
1, 440178, Note_on_c, 0, 62, 45
1, 440261, Note_off_c, 0, 62, 52
1, 440280, Note_on_c, 0, 92, 83
1, 440689, Note_on_c, 0, 68, 23
1, 440866, Note_off_c, 0, 68, 41
1, 441597, Note_on_c, 0, 46, 44
1, 441765, Note_off_c, 0, 80, 51
1, 441786, Note_off_c, 0, 92, 52
1, 441841, Note_on_c, 0, 52, 44
1, 441887, Control_c, 0, 64, 92
1, 441917, Control_c, 0, 64, 91
1, 441932, Control_c, 0, 64, 91
1, 441946, Control_c, 0, 64, 90
1, 441961, Control_c, 0, 64, 88
1, 441969, Note_on_c, 0, 61, 47
1, 441976, Control_c, 0, 64, 84
1, 441984, Note_on_c, 0, 91, 76
1, 441991, Control_c, 0, 64, 75
1, 442006, Control_c, 0, 64, 62
1, 442007, Note_on_c, 0, 79, 39
1, 442020, Control_c, 0, 64, 0
1, 442080, Control_c, 0, 64, 37
1, 442095, Control_c, 0, 64, 67
1, 442105, Note_off_c, 0, 46, 51
1, 442110, Control_c, 0, 64, 74
1, 442124, Note_off_c, 0, 52, 41
1, 442124, Control_c, 0, 64, 81
1, 442139, Control_c, 0, 64, 85
1, 442154, Control_c, 0, 64, 86
1, 442169, Control_c, 0, 64, 87
1, 442169, Note_off_c, 0, 91, 60
1, 442184, Control_c, 0, 64, 87
1, 442184, Note_off_c, 0, 61, 56
1, 442198, Control_c, 0, 64, 88
1, 442213, Control_c, 0, 64, 88
1, 442222, Note_off_c, 0, 79, 45
1, 442228, Control_c, 0, 64, 89
1, 442416, Note_on_c, 0, 67, 52
1, 442470, Note_off_c, 0, 67, 53
1, 442670, Note_on_c, 0, 85, 73
1, 442688, Note_on_c, 0, 73, 46
1, 442888, Control_c, 0, 64, 88
1, 442902, Control_c, 0, 64, 83
1, 442913, Note_on_c, 0, 51, 42
1, 442917, Control_c, 0, 64, 68
1, 442932, Control_c, 0, 64, 0
1, 442992, Control_c, 0, 64, 22
1, 443007, Control_c, 0, 64, 65
1, 443021, Control_c, 0, 64, 73
1, 443036, Control_c, 0, 64, 78
1, 443051, Control_c, 0, 64, 82
1, 443066, Control_c, 0, 64, 83
1, 443070, Note_off_c, 0, 51, 61
1, 443081, Control_c, 0, 64, 83
1, 443147, Control_c, 0, 64, 84
1, 443160, Note_on_c, 0, 57, 43
1, 443168, Note_off_c, 0, 73, 40
1, 443189, Note_off_c, 0, 85, 36
1, 443215, Note_on_c, 0, 66, 51
1, 443260, Note_on_c, 0, 84, 73
1, 443268, Note_on_c, 0, 72, 51
1, 443348, Note_off_c, 0, 72, 52
1, 443353, Note_off_c, 0, 66, 50
1, 443391, Note_off_c, 0, 57, 29
1, 443472, Note_on_c, 0, 60, 50
1, 443497, Note_off_c, 0, 60, 61
1, 443637, Control_c, 0, 64, 83
1, 443680, Control_c, 0, 64, 83
1, 443695, Control_c, 0, 64, 82
1, 443710, Control_c, 0, 64, 81
1, 443724, Control_c, 0, 64, 78
1, 443739, Control_c, 0, 64, 72
1, 443749, Note_off_c, 0, 84, 62
1, 443754, Control_c, 0, 64, 58
1, 443769, Control_c, 0, 64, 0
1, 443777, Note_on_c, 0, 89, 67
1, 443785, Note_on_c, 0, 77, 52
1, 443796, Note_on_c, 0, 50, 19
1, 443850, Control_c, 0, 64, 29
1, 443865, Control_c, 0, 64, 65
1, 443880, Control_c, 0, 64, 72
1, 443895, Control_c, 0, 64, 76
1, 443901, Note_off_c, 0, 89, 64
1, 443910, Note_off_c, 0, 50, 55
1, 443910, Control_c, 0, 64, 80
1, 443924, Control_c, 0, 64, 82
1, 443936, Note_off_c, 0, 77, 58
1, 443939, Control_c, 0, 64, 83
1, 443954, Control_c, 0, 64, 84
1, 443969, Control_c, 0, 64, 84
1, 443984, Control_c, 0, 64, 85
1, 443998, Control_c, 0, 64, 86
1, 444028, Control_c, 0, 64, 86
1, 444160, Note_on_c, 0, 65, 45
1, 444201, Note_off_c, 0, 65, 50
1, 444208, Note_on_c, 0, 83, 61
1, 444229, Note_on_c, 0, 71, 43
1, 444429, Control_c, 0, 64, 86
1, 444444, Control_c, 0, 64, 82
1, 444459, Control_c, 0, 64, 72
1, 444470, Note_on_c, 0, 49, 42
1, 444473, Control_c, 0, 64, 48
1, 444488, Control_c, 0, 64, 0
1, 444533, Control_c, 0, 64, 37
1, 444548, Control_c, 0, 64, 68
1, 444563, Control_c, 0, 64, 75
1, 444578, Control_c, 0, 64, 81
1, 444599, Control_c, 0, 64, 83
1, 444602, Note_off_c, 0, 49, 58
1, 444622, Note_off_c, 0, 71, 39
1, 444644, Control_c, 0, 64, 84
1, 444673, Control_c, 0, 64, 84
1, 444693, Note_off_c, 0, 83, 50
1, 444703, Control_c, 0, 64, 85
1, 444817, Note_on_c, 0, 82, 67
1, 444825, Note_on_c, 0, 70, 56
1, 444830, Note_on_c, 0, 65, 48
1, 444861, Note_off_c, 0, 65, 56
1, 444867, Control_c, 0, 64, 85
1, 444911, Control_c, 0, 64, 86
1, 445075, Control_c, 0, 64, 85
1, 445089, Control_c, 0, 64, 81
1, 445102, Note_on_c, 0, 48, 50
1, 445104, Control_c, 0, 64, 73
1, 445119, Control_c, 0, 64, 37
1, 445134, Control_c, 0, 64, 0
1, 445193, Control_c, 0, 64, 64
1, 445208, Control_c, 0, 64, 71
1, 445222, Control_c, 0, 64, 78
1, 445237, Control_c, 0, 64, 82
1, 445252, Control_c, 0, 64, 82
1, 445267, Control_c, 0, 64, 83
1, 445293, Note_off_c, 0, 70, 53
1, 445311, Control_c, 0, 64, 83
1, 445316, Note_off_c, 0, 82, 63
1, 445326, Control_c, 0, 64, 84
1, 445364, Control_c, 0, 64, 84
1, 445465, Note_on_c, 0, 81, 66
1, 445482, Note_on_c, 0, 53, 33
1, 445486, Note_on_c, 0, 69, 47
1, 445526, Poly_aftertouch_c, 0, 60, 127
1, 445551, Note_off_c, 0, 48, 64
1, 445564, Poly_aftertouch_c, 0, 60, 0
1, 445645, Control_c, 0, 64, 84
1, 445675, Control_c, 0, 64, 83
1, 445689, Control_c, 0, 64, 79
1, 445702, Note_off_c, 0, 53, 36
1, 445704, Control_c, 0, 64, 71
1, 445719, Control_c, 0, 64, 39
1, 445723, Note_on_c, 0, 47, 47
1, 445734, Control_c, 0, 64, 0
1, 445793, Control_c, 0, 64, 65
1, 445808, Control_c, 0, 64, 72
1, 445819, Note_off_c, 0, 69, 61
1, 445822, Control_c, 0, 64, 77
1, 445837, Control_c, 0, 64, 79
1, 445852, Control_c, 0, 64, 80
1, 445868, Control_c, 0, 64, 80
1, 445883, Control_c, 0, 64, 81
1, 445898, Control_c, 0, 64, 81
1, 445927, Control_c, 0, 64, 82
1, 445939, Note_off_c, 0, 81, 39
1, 446021, Note_on_c, 0, 80, 70
1, 446025, Note_on_c, 0, 68, 61
1, 446047, Note_on_c, 0, 53, 35
1, 446051, Note_on_c, 0, 61, 31
1, 446105, Note_off_c, 0, 61, 45
1, 446138, Note_off_c, 0, 47, 43
1, 446221, Note_off_c, 0, 53, 30
1, 446305, Control_c, 0, 64, 81
1, 446309, Note_on_c, 0, 46, 61
1, 446319, Control_c, 0, 64, 76
1, 446334, Control_c, 0, 64, 66
1, 446349, Control_c, 0, 64, 0
1, 446408, Control_c, 0, 64, 36
1, 446423, Control_c, 0, 64, 67
1, 446438, Control_c, 0, 64, 73
1, 446453, Control_c, 0, 64, 79
1, 446468, Control_c, 0, 64, 82
1, 446483, Control_c, 0, 64, 83
1, 446493, Note_off_c, 0, 68, 38
1, 446497, Control_c, 0, 64, 83
1, 446512, Control_c, 0, 64, 84
1, 446542, Control_c, 0, 64, 84
1, 446557, Control_c, 0, 64, 85
1, 446571, Control_c, 0, 64, 85
1, 446601, Control_c, 0, 64, 86
1, 446614, Note_off_c, 0, 46, 33
1, 446660, Note_on_c, 0, 54, 48
1, 446687, Note_on_c, 0, 61, 25
1, 446735, Note_off_c, 0, 61, 44
1, 446852, Note_off_c, 0, 54, 28
1, 447054, Control_c, 0, 64, 85
1, 447083, Control_c, 0, 64, 85
1, 447098, Control_c, 0, 64, 84
1, 447112, Note_on_c, 0, 85, 80
1, 447113, Control_c, 0, 64, 82
1, 447125, Note_on_c, 0, 73, 61
1, 447126, Note_off_c, 0, 80, 60
1, 447128, Control_c, 0, 64, 78
1, 447132, Note_on_c, 0, 45, 48
1, 447142, Control_c, 0, 64, 73
1, 447157, Control_c, 0, 64, 63
1, 447172, Control_c, 0, 64, 0
1, 447305, Control_c, 0, 64, 68
1, 447320, Control_c, 0, 64, 80
1, 447335, Control_c, 0, 64, 89
1, 447350, Control_c, 0, 64, 93
1, 447357, Note_off_c, 0, 45, 57
1, 447365, Control_c, 0, 64, 93
1, 447380, Control_c, 0, 64, 94
1, 447394, Control_c, 0, 64, 95
1, 447409, Control_c, 0, 64, 97
1, 447423, Control_c, 0, 64, 98
1, 447438, Control_c, 0, 64, 99
1, 447453, Control_c, 0, 64, 99
1, 447469, Control_c, 0, 64, 100
1, 447498, Control_c, 0, 64, 100
1, 447608, Note_on_c, 0, 61, 39
1, 447640, Note_on_c, 0, 54, 30
1, 447707, Note_off_c, 0, 61, 52
1, 447715, Note_off_c, 0, 54, 37
1, 448128, Control_c, 0, 64, 99
1, 448131, Note_on_c, 0, 43, 54
1, 448142, Control_c, 0, 64, 96
1, 448157, Control_c, 0, 64, 86
1, 448173, Control_c, 0, 64, 72
1, 448188, Control_c, 0, 64, 0
1, 448247, Control_c, 0, 64, 60
1, 448262, Control_c, 0, 64, 68
1, 448277, Control_c, 0, 64, 74
1, 448292, Control_c, 0, 64, 80
1, 448307, Control_c, 0, 64, 83
1, 448322, Note_off_c, 0, 43, 59
1, 448322, Control_c, 0, 64, 85
1, 448344, Control_c, 0, 64, 86
1, 448359, Control_c, 0, 64, 86
1, 448374, Control_c, 0, 64, 87
1, 448388, Control_c, 0, 64, 88
1, 448403, Control_c, 0, 64, 88
1, 448418, Control_c, 0, 64, 89
1, 448521, Control_c, 0, 64, 89
1, 448821, Note_on_c, 0, 58, 39
1, 448837, Note_on_c, 0, 52, 39
1, 448846, Note_on_c, 0, 61, 35
1, 448892, Note_off_c, 0, 61, 52
1, 448906, Note_off_c, 0, 52, 61
1, 448936, Control_c, 0, 64, 90
1, 448945, Note_off_c, 0, 58, 36
1, 448981, Control_c, 0, 64, 90
1, 449036, Note_off_c, 0, 73, 31
1, 449042, Note_off_c, 0, 85, 33
1, 449070, Control_c, 0, 64, 91
1, 449197, Control_c, 0, 64, 91
1, 449637, Note_on_c, 0, 85, 71
1, 449648, Note_on_c, 0, 73, 55
1, 450138, Control_c, 0, 64, 91
1, 450227, Control_c, 0, 64, 90
1, 450301, Control_c, 0, 64, 90
1, 450390, Control_c, 0, 64, 89
1, 450464, Control_c, 0, 64, 89
1, 450493, Control_c, 0, 64, 88
1, 450537, Control_c, 0, 64, 88
1, 450552, Control_c, 0, 64, 87
1, 450567, Control_c, 0, 64, 87
1, 450590, Control_c, 0, 64, 86
1, 450593, Note_on_c, 0, 36, 39
1, 450605, Control_c, 0, 64, 83
1, 450619, Control_c, 0, 64, 77
1, 450634, Control_c, 0, 64, 71
1, 450649, Control_c, 0, 64, 66
1, 450665, Control_c, 0, 64, 63
1, 450680, Control_c, 0, 64, 65
1, 450695, Control_c, 0, 64, 69
1, 450709, Control_c, 0, 64, 72
1, 450724, Control_c, 0, 64, 76
1, 450739, Control_c, 0, 64, 78
1, 450754, Control_c, 0, 64, 80
1, 450769, Control_c, 0, 64, 81
1, 450783, Control_c, 0, 64, 82
1, 450798, Control_c, 0, 64, 84
1, 450813, Control_c, 0, 64, 85
1, 450817, Note_off_c, 0, 36, 48
1, 450828, Control_c, 0, 64, 86
1, 450842, Control_c, 0, 64, 86
1, 450857, Control_c, 0, 64, 87
1, 450887, Control_c, 0, 64, 87
1, 451602, Note_on_c, 0, 58, 34
1, 451604, Note_on_c, 0, 64, 30
1, 451634, Note_on_c, 0, 52, 32
1, 452168, Note_off_c, 0, 85, 57
1, 452402, Note_off_c, 0, 73, 34
1, 453197, Note_on_c, 0, 84, 39
1, 453222, Note_on_c, 0, 72, 29
1, 453747, Note_off_c, 0, 64, 34
1, 453950, Note_off_c, 0, 72, 40
1, 454034, Note_off_c, 0, 84, 54
1, 454138, Note_off_c, 0, 58, 36
1, 454158, Note_off_c, 0, 52, 34
1, 454393, Control_c, 0, 64, 88
1, 454749, Control_c, 0, 64, 88
1, 455246, Control_c, 0, 64, 87
1, 455261, Control_c, 0, 64, 83
1, 455276, Control_c, 0, 64, 76
1, 455281, Note_on_c, 0, 29, 44
1, 455285, Note_on_c, 0, 41, 39
1, 455291, Control_c, 0, 64, 68
1, 455306, Control_c, 0, 64, 56
1, 455321, Control_c, 0, 64, 0
1, 455334, Note_off_c, 0, 41, 60
1, 455393, Note_on_c, 0, 39, 49
1, 455447, Note_off_c, 0, 39, 55
1, 455505, Note_on_c, 0, 37, 42
1, 455562, Note_off_c, 0, 37, 43
1, 455601, Note_on_c, 0, 39, 46
1, 455653, Note_off_c, 0, 39, 58
1, 455700, Note_on_c, 0, 37, 48
1, 455755, Note_off_c, 0, 37, 59
1, 455810, Note_on_c, 0, 36, 45
1, 455856, Note_off_c, 0, 36, 50
1, 455926, Note_on_c, 0, 41, 53
1, 455968, Note_off_c, 0, 41, 63
1, 456029, Note_on_c, 0, 39, 53
1, 456073, Note_off_c, 0, 39, 61
1, 456147, Note_on_c, 0, 37, 44
1, 456180, Note_off_c, 0, 37, 57
1, 456248, Note_on_c, 0, 39, 45
1, 456291, Note_off_c, 0, 39, 59
1, 456353, Note_on_c, 0, 37, 48
1, 456393, Note_off_c, 0, 37, 64
1, 456466, Note_on_c, 0, 36, 28
1, 456506, Note_off_c, 0, 36, 43
1, 456562, Note_on_c, 0, 41, 55
1, 456610, Note_off_c, 0, 41, 62
1, 456684, Note_on_c, 0, 39, 43
1, 456719, Note_off_c, 0, 39, 57
1, 456796, Note_on_c, 0, 37, 43
1, 456826, Note_off_c, 0, 37, 57
1, 456891, Control_c, 0, 64, 46
1, 456896, Note_on_c, 0, 39, 43
1, 456905, Control_c, 0, 64, 56
1, 456920, Control_c, 0, 64, 60
1, 456931, Note_off_c, 0, 39, 57
1, 456935, Control_c, 0, 64, 62
1, 456950, Control_c, 0, 64, 64
1, 456965, Control_c, 0, 64, 64
1, 456978, Note_off_c, 0, 29, 55
1, 456979, Control_c, 0, 64, 65
1, 457007, Note_on_c, 0, 37, 44
1, 457039, Control_c, 0, 64, 66
1, 457053, Note_off_c, 0, 37, 62
1, 457069, Control_c, 0, 64, 66
1, 457098, Note_on_c, 0, 36, 45
1, 457114, Control_c, 0, 64, 66
1, 457130, Note_off_c, 0, 36, 48
1, 457143, Control_c, 0, 64, 65
1, 457158, Control_c, 0, 64, 64
1, 457173, Control_c, 0, 64, 62
1, 457188, Control_c, 0, 64, 56
1, 457202, Note_on_c, 0, 41, 66
1, 457202, Control_c, 0, 64, 47
1, 457217, Control_c, 0, 64, 34
1, 457232, Control_c, 0, 64, 0
1, 457249, Note_off_c, 0, 41, 63
1, 457312, Note_on_c, 0, 39, 56
1, 457365, Note_off_c, 0, 39, 59
1, 457417, Note_on_c, 0, 37, 51
1, 457432, Control_c, 0, 64, 23
1, 457447, Control_c, 0, 64, 29
1, 457457, Note_off_c, 0, 37, 62
1, 457462, Control_c, 0, 64, 32
1, 457491, Control_c, 0, 64, 33
1, 457506, Control_c, 0, 64, 34
1, 457512, Note_on_c, 0, 39, 52
1, 457521, Control_c, 0, 64, 42
1, 457536, Control_c, 0, 64, 52
1, 457551, Control_c, 0, 64, 58
1, 457554, Note_off_c, 0, 39, 62
1, 457566, Control_c, 0, 64, 61
1, 457580, Control_c, 0, 64, 63
1, 457595, Control_c, 0, 64, 64
1, 457604, Note_on_c, 0, 37, 49
1, 457610, Control_c, 0, 64, 64
1, 457625, Control_c, 0, 64, 65
1, 457640, Control_c, 0, 64, 66
1, 457655, Control_c, 0, 64, 67
1, 457669, Control_c, 0, 64, 69
1, 457672, Note_off_c, 0, 37, 65
1, 457684, Control_c, 0, 64, 70
1, 457699, Control_c, 0, 64, 72
1, 457701, Note_on_c, 0, 36, 47
1, 457710, Note_on_c, 0, 57, 58
1, 457714, Control_c, 0, 64, 73
1, 457718, Note_on_c, 0, 53, 57
1, 457727, Note_on_c, 0, 48, 49
1, 457728, Control_c, 0, 64, 73
1, 457732, Note_off_c, 0, 36, 63
1, 457747, Note_off_c, 0, 57, 60
1, 457753, Note_off_c, 0, 53, 59
1, 457757, Note_off_c, 0, 48, 55
1, 457773, Control_c, 0, 64, 73
1, 457788, Control_c, 0, 64, 72
1, 457802, Control_c, 0, 64, 70
1, 457813, Note_on_c, 0, 57, 62
1, 457817, Control_c, 0, 64, 66
1, 457825, Note_on_c, 0, 53, 57
1, 457825, Note_on_c, 0, 41, 47
1, 457831, Note_on_c, 0, 48, 59
1, 457832, Control_c, 0, 64, 61
1, 457837, Note_on_c, 0, 29, 38
1, 457848, Control_c, 0, 64, 49
1, 457863, Control_c, 0, 64, 34
1, 457878, Control_c, 0, 64, 0
1, 457880, Note_off_c, 0, 29, 47
1, 457882, Note_off_c, 0, 41, 41
1, 457941, Note_on_c, 0, 39, 55
1, 457990, Note_off_c, 0, 39, 59
1, 457996, Control_c, 0, 64, 31
1, 458011, Control_c, 0, 64, 43
1, 458025, Control_c, 0, 64, 48
1, 458037, Note_on_c, 0, 37, 56
1, 458040, Control_c, 0, 64, 50
1, 458055, Control_c, 0, 64, 51
1, 458093, Note_off_c, 0, 37, 57
1, 458137, Control_c, 0, 64, 54
1, 458147, Note_on_c, 0, 39, 56
1, 458151, Control_c, 0, 64, 59
1, 458166, Control_c, 0, 64, 63
1, 458181, Control_c, 0, 64, 65
1, 458196, Control_c, 0, 64, 67
1, 458200, Note_off_c, 0, 39, 59
1, 458211, Control_c, 0, 64, 70
1, 458225, Control_c, 0, 64, 74
1, 458240, Control_c, 0, 64, 77
1, 458254, Note_on_c, 0, 37, 57
1, 458255, Control_c, 0, 64, 79
1, 458270, Control_c, 0, 64, 81
1, 458285, Control_c, 0, 64, 82
1, 458299, Control_c, 0, 64, 83
1, 458301, Note_off_c, 0, 53, 55
1, 458310, Note_off_c, 0, 37, 63
1, 458329, Control_c, 0, 64, 84
1, 458350, Note_off_c, 0, 57, 34
1, 458358, Note_on_c, 0, 36, 54
1, 458358, Control_c, 0, 64, 84
1, 458403, Note_off_c, 0, 36, 60
1, 458417, Note_off_c, 0, 48, 39
1, 458463, Control_c, 0, 64, 84
1, 458478, Control_c, 0, 64, 81
1, 458488, Note_on_c, 0, 41, 60
1, 458493, Control_c, 0, 64, 76
1, 458493, Note_on_c, 0, 57, 65
1, 458507, Control_c, 0, 64, 67
1, 458510, Note_on_c, 0, 49, 59
1, 458512, Note_on_c, 0, 53, 49
1, 458522, Control_c, 0, 64, 57
1, 458537, Control_c, 0, 64, 34
1, 458551, Control_c, 0, 64, 14
1, 458562, Note_off_c, 0, 41, 55
1, 458566, Control_c, 0, 64, 22
1, 458581, Control_c, 0, 64, 35
1, 458596, Control_c, 0, 64, 46
1, 458597, Note_on_c, 0, 39, 57
1, 458611, Control_c, 0, 64, 51
1, 458625, Control_c, 0, 64, 52
1, 458653, Note_off_c, 0, 39, 60
1, 458686, Control_c, 0, 64, 52
1, 458700, Note_on_c, 0, 37, 53
1, 458701, Control_c, 0, 64, 53
1, 458716, Control_c, 0, 64, 54
1, 458730, Control_c, 0, 64, 54
1, 458745, Note_off_c, 0, 37, 63
1, 458745, Control_c, 0, 64, 55
1, 458789, Control_c, 0, 64, 55
1, 458800, Note_on_c, 0, 39, 57
1, 458841, Control_c, 0, 64, 55
1, 458850, Note_off_c, 0, 39, 63
1, 458886, Control_c, 0, 64, 55
1, 458901, Control_c, 0, 64, 59
1, 458909, Note_on_c, 0, 37, 54
1, 458916, Control_c, 0, 64, 64
1, 458930, Control_c, 0, 64, 66
1, 458945, Control_c, 0, 64, 68
1, 458956, Note_off_c, 0, 37, 66
1, 458960, Control_c, 0, 64, 71
1, 458974, Control_c, 0, 64, 74
1, 458989, Control_c, 0, 64, 76
1, 458995, Note_off_c, 0, 53, 41
1, 459004, Control_c, 0, 64, 78
1, 459019, Control_c, 0, 64, 79
1, 459026, Note_on_c, 0, 36, 53
1, 459034, Control_c, 0, 64, 80
1, 459048, Control_c, 0, 64, 81
1, 459071, Note_off_c, 0, 36, 62
1, 459078, Control_c, 0, 64, 81
1, 459136, Note_on_c, 0, 41, 54
1, 459138, Note_off_c, 0, 57, 0
1, 459151, Note_on_c, 0, 57, 33
1, 459152, Control_c, 0, 64, 81
1, 459163, Note_off_c, 0, 49, 29
1, 459166, Control_c, 0, 64, 78
1, 459176, Note_on_c, 0, 48, 50
1, 459181, Control_c, 0, 64, 73
1, 459184, Note_on_c, 0, 53, 43
1, 459196, Control_c, 0, 64, 67
1, 459202, Note_off_c, 0, 41, 58
1, 459211, Control_c, 0, 64, 60
1, 459226, Control_c, 0, 64, 44
1, 459241, Control_c, 0, 64, 25
1, 459255, Note_on_c, 0, 39, 53
1, 459256, Control_c, 0, 64, 20
1, 459271, Control_c, 0, 64, 23
1, 459286, Control_c, 0, 64, 27
1, 459300, Control_c, 0, 64, 32
1, 459303, Note_off_c, 0, 39, 60
1, 459315, Control_c, 0, 64, 38
1, 459330, Control_c, 0, 64, 43
1, 459345, Control_c, 0, 64, 46
1, 459360, Control_c, 0, 64, 49
1, 459363, Note_on_c, 0, 37, 53
1, 459374, Control_c, 0, 64, 51
1, 459389, Control_c, 0, 64, 52
1, 459404, Control_c, 0, 64, 53
1, 459411, Note_off_c, 0, 37, 58
1, 459419, Control_c, 0, 64, 53
1, 459467, Note_on_c, 0, 39, 55
1, 459479, Control_c, 0, 64, 54
1, 459509, Control_c, 0, 64, 54
1, 459511, Note_off_c, 0, 39, 62
1, 459524, Control_c, 0, 64, 55
1, 459576, Note_on_c, 0, 37, 50
1, 459619, Control_c, 0, 64, 55
1, 459623, Note_off_c, 0, 37, 59
1, 459694, Note_on_c, 0, 36, 51
1, 459709, Control_c, 0, 64, 56
1, 459732, Note_off_c, 0, 36, 62
1, 459739, Control_c, 0, 64, 57
1, 459753, Control_c, 0, 64, 61
1, 459768, Control_c, 0, 64, 64
1, 459783, Control_c, 0, 64, 65
1, 459792, Note_on_c, 0, 41, 55
1, 459797, Control_c, 0, 64, 67
1, 459812, Control_c, 0, 64, 69
1, 459827, Control_c, 0, 64, 71
1, 459842, Control_c, 0, 64, 73
1, 459845, Note_off_c, 0, 41, 60
1, 459848, Note_off_c, 0, 53, 42
1, 459857, Control_c, 0, 64, 75
1, 459871, Control_c, 0, 64, 76
1, 459885, Note_off_c, 0, 48, 59
1, 459886, Control_c, 0, 64, 78
1, 459900, Note_on_c, 0, 39, 59
1, 459901, Control_c, 0, 64, 79
1, 459915, Control_c, 0, 64, 80
1, 459930, Control_c, 0, 64, 81
1, 459945, Control_c, 0, 64, 82
1, 459950, Note_off_c, 0, 57, 47
1, 459960, Control_c, 0, 64, 83
1, 459966, Note_off_c, 0, 39, 55
1, 459975, Control_c, 0, 64, 83
1, 459989, Control_c, 0, 64, 84
1, 460019, Control_c, 0, 64, 84
1, 460023, Note_on_c, 0, 37, 54
1, 460102, Note_off_c, 0, 37, 54
1, 460127, Note_on_c, 0, 53, 58
1, 460136, Note_on_c, 0, 45, 54
1, 460138, Note_on_c, 0, 39, 56
1, 460164, Note_off_c, 0, 45, 57
1, 460168, Control_c, 0, 64, 85
1, 460171, Note_off_c, 0, 53, 62
1, 460183, Control_c, 0, 64, 85
1, 460197, Control_c, 0, 64, 86
1, 460221, Note_off_c, 0, 39, 49
1, 460227, Control_c, 0, 64, 86
1, 460264, Note_on_c, 0, 37, 46
1, 460272, Control_c, 0, 64, 87
1, 460352, Note_off_c, 0, 37, 64
1, 460357, Note_on_c, 0, 36, 49
1, 460378, Note_on_c, 0, 57, 62
1, 460383, Note_on_c, 0, 53, 62
1, 460385, Note_on_c, 0, 48, 61
1, 460386, Note_off_c, 0, 36, 59
1, 460423, Note_off_c, 0, 53, 59
1, 460426, Note_off_c, 0, 48, 59
1, 460457, Control_c, 0, 64, 86
1, 460472, Control_c, 0, 64, 84
1, 460475, Note_on_c, 0, 41, 61
1, 460479, Note_on_c, 0, 29, 59
1, 460479, Note_on_c, 0, 60, 72
1, 460482, Note_on_c, 0, 53, 54
1, 460485, Note_on_c, 0, 48, 66
1, 460487, Control_c, 0, 64, 79
1, 460502, Control_c, 0, 64, 73
1, 460512, Note_off_c, 0, 29, 57
1, 460517, Control_c, 0, 64, 65
1, 460532, Control_c, 0, 64, 0
1, 460575, Note_off_c, 0, 41, 40
1, 460591, Note_on_c, 0, 39, 57
1, 460653, Note_off_c, 0, 39, 54
1, 460665, Control_c, 0, 64, 37
1, 460680, Control_c, 0, 64, 49
1, 460687, Note_on_c, 0, 37, 56
1, 460694, Control_c, 0, 64, 55
1, 460709, Control_c, 0, 64, 60
1, 460724, Control_c, 0, 64, 64
1, 460734, Note_off_c, 0, 37, 60
1, 460738, Control_c, 0, 64, 66
1, 460753, Control_c, 0, 64, 68
1, 460768, Control_c, 0, 64, 70
1, 460783, Control_c, 0, 64, 73
1, 460789, Note_on_c, 0, 39, 64
1, 460798, Control_c, 0, 64, 77
1, 460804, Note_off_c, 0, 60, 60
1, 460812, Control_c, 0, 64, 81
1, 460827, Control_c, 0, 64, 83
1, 460840, Note_off_c, 0, 39, 59
1, 460842, Control_c, 0, 64, 84
1, 460847, Note_off_c, 0, 48, 38
1, 460857, Control_c, 0, 64, 85
1, 460867, Note_off_c, 0, 57, 53
1, 460872, Control_c, 0, 64, 86
1, 460886, Control_c, 0, 64, 87
1, 460889, Note_on_c, 0, 37, 63
1, 460902, Control_c, 0, 64, 88
1, 460917, Control_c, 0, 64, 88
1, 460925, Note_off_c, 0, 53, 48
1, 460932, Control_c, 0, 64, 89
1, 460943, Note_off_c, 0, 37, 63
1, 460946, Control_c, 0, 64, 89
1, 460961, Control_c, 0, 64, 90
1, 460976, Control_c, 0, 64, 90
1, 460991, Note_on_c, 0, 36, 68
1, 461006, Control_c, 0, 64, 91
1, 461044, Note_off_c, 0, 36, 60
1, 461130, Note_on_c, 0, 41, 68
1, 461133, Control_c, 0, 64, 90
1, 461134, Note_on_c, 0, 61, 78
1, 461143, Note_on_c, 0, 53, 61
1, 461145, Note_on_c, 0, 49, 63
1, 461148, Control_c, 0, 64, 86
1, 461155, Note_on_c, 0, 57, 58
1, 461163, Control_c, 0, 64, 80
1, 461177, Control_c, 0, 64, 71
1, 461192, Control_c, 0, 64, 49
1, 461207, Control_c, 0, 64, 0
1, 461213, Note_off_c, 0, 41, 56
1, 461242, Note_on_c, 0, 39, 62
1, 461295, Note_off_c, 0, 39, 61
1, 461350, Note_on_c, 0, 37, 57
1, 461393, Note_off_c, 0, 37, 63
1, 461455, Note_on_c, 0, 39, 60
1, 461497, Note_off_c, 0, 39, 63
1, 461503, Control_c, 0, 64, 43
1, 461518, Control_c, 0, 64, 62
1, 461533, Control_c, 0, 64, 66
1, 461548, Control_c, 0, 64, 68
1, 461558, Note_on_c, 0, 37, 60
1, 461563, Control_c, 0, 64, 70
1, 461577, Control_c, 0, 64, 73
1, 461592, Control_c, 0, 64, 75
1, 461607, Control_c, 0, 64, 77
1, 461614, Note_off_c, 0, 37, 60
1, 461615, Note_off_c, 0, 53, 37
1, 461622, Control_c, 0, 64, 79
1, 461637, Control_c, 0, 64, 80
1, 461651, Control_c, 0, 64, 80
1, 461666, Control_c, 0, 64, 81
1, 461667, Note_on_c, 0, 36, 60
1, 461676, Note_off_c, 0, 49, 35
1, 461688, Note_off_c, 0, 61, 30
1, 461695, Control_c, 0, 64, 81
1, 461708, Note_off_c, 0, 36, 64
1, 461710, Control_c, 0, 64, 82
1, 461766, Note_off_c, 0, 57, 0
1, 461769, Control_c, 0, 64, 81
1, 461784, Control_c, 0, 64, 78
1, 461791, Note_on_c, 0, 41, 57
1, 461791, Note_on_c, 0, 57, 6
1, 461798, Note_on_c, 0, 60, 62
1, 461799, Control_c, 0, 64, 72
1, 461801, Note_on_c, 0, 48, 61
1, 461822, Control_c, 0, 64, 65
1, 461834, Note_on_c, 0, 53, 43
1, 461837, Control_c, 0, 64, 38
1, 461848, Note_off_c, 0, 41, 61
1, 461852, Control_c, 0, 64, 0
1, 461906, Note_on_c, 0, 39, 57
1, 461947, Note_off_c, 0, 39, 61
1, 462013, Note_on_c, 0, 37, 54
1, 462049, Note_off_c, 0, 37, 64
1, 462117, Note_on_c, 0, 39, 61
1, 462154, Note_off_c, 0, 39, 60
1, 462219, Note_on_c, 0, 37, 54
1, 462259, Note_off_c, 0, 37, 63
1, 462339, Note_on_c, 0, 36, 56
1, 462341, Control_c, 0, 64, 16
1, 462356, Control_c, 0, 64, 26
1, 462371, Control_c, 0, 64, 34
1, 462373, Note_off_c, 0, 36, 65
1, 462386, Control_c, 0, 64, 46
1, 462399, Control_c, 0, 64, 56
1, 462414, Control_c, 0, 64, 62
1, 462429, Control_c, 0, 64, 65
1, 462443, Note_on_c, 0, 41, 55
1, 462444, Control_c, 0, 64, 67
1, 462459, Control_c, 0, 64, 68
1, 462473, Control_c, 0, 64, 71
1, 462479, Note_off_c, 0, 41, 65
1, 462488, Control_c, 0, 64, 74
1, 462503, Control_c, 0, 64, 78
1, 462505, Note_off_c, 0, 60, 56
1, 462517, Control_c, 0, 64, 81
1, 462526, Note_off_c, 0, 53, 42
1, 462532, Control_c, 0, 64, 82
1, 462533, Note_off_c, 0, 48, 34
1, 462541, Note_on_c, 0, 39, 57
1, 462547, Control_c, 0, 64, 83
1, 462554, Note_off_c, 0, 57, 39
1, 462570, Control_c, 0, 64, 84
1, 462585, Control_c, 0, 64, 85
1, 462599, Control_c, 0, 64, 86
1, 462614, Control_c, 0, 64, 87
1, 462629, Control_c, 0, 64, 88
1, 462660, Note_off_c, 0, 39, 32
1, 462660, Control_c, 0, 64, 88
1, 462678, Note_on_c, 0, 37, 50
1, 462689, Control_c, 0, 64, 89
1, 462704, Control_c, 0, 64, 89
1, 462734, Control_c, 0, 64, 90
1, 462748, Control_c, 0, 64, 90
1, 462755, Note_on_c, 0, 57, 69
1, 462763, Control_c, 0, 64, 91
1, 462770, Note_on_c, 0, 48, 58
1, 462778, Control_c, 0, 64, 91
1, 462779, Note_off_c, 0, 37, 59
1, 462790, Note_on_c, 0, 39, 58
1, 462793, Note_off_c, 0, 48, 63
1, 462793, Control_c, 0, 64, 92
1, 462805, Note_off_c, 0, 57, 59
1, 462808, Control_c, 0, 64, 92
1, 462822, Control_c, 0, 64, 93
1, 462837, Control_c, 0, 64, 93
1, 462852, Control_c, 0, 64, 94
1, 462867, Control_c, 0, 64, 94
1, 462869, Note_off_c, 0, 39, 54
1, 462882, Control_c, 0, 64, 95
1, 462894, Note_on_c, 0, 37, 53
1, 462911, Control_c, 0, 64, 95
1, 462940, Control_c, 0, 64, 96
1, 462981, Note_off_c, 0, 37, 58
1, 462987, Note_on_c, 0, 36, 51
1, 463015, Note_on_c, 0, 60, 69
1, 463017, Note_on_c, 0, 57, 68
1, 463019, Note_off_c, 0, 36, 63
1, 463028, Note_on_c, 0, 53, 54
1, 463050, Note_off_c, 0, 53, 63
1, 463065, Note_off_c, 0, 60, 54
1, 463067, Note_off_c, 0, 57, 58
1, 463104, Control_c, 0, 64, 95
1, 463112, Note_on_c, 0, 65, 81
1, 463116, Note_on_c, 0, 57, 55
1, 463119, Note_on_c, 0, 29, 64
1, 463119, Control_c, 0, 64, 91
1, 463120, Note_on_c, 0, 41, 67
1, 463121, Note_on_c, 0, 53, 75
1, 463123, Note_on_c, 0, 60, 53
1, 463133, Control_c, 0, 64, 85
1, 463148, Control_c, 0, 64, 76
1, 463155, Note_off_c, 0, 29, 60
1, 463163, Control_c, 0, 64, 65
1, 463178, Control_c, 0, 64, 0
1, 463194, Note_off_c, 0, 41, 55
1, 463235, Note_on_c, 0, 39, 59
1, 463237, Control_c, 0, 64, 38
1, 463252, Control_c, 0, 64, 62
1, 463267, Control_c, 0, 64, 65
1, 463283, Note_off_c, 0, 39, 61
1, 463335, Note_on_c, 0, 37, 62
1, 463377, Note_off_c, 0, 37, 66
1, 463408, Control_c, 0, 64, 66
1, 463422, Control_c, 0, 64, 65
1, 463438, Control_c, 0, 64, 65
1, 463442, Note_on_c, 0, 39, 66
1, 463453, Control_c, 0, 64, 64
1, 463468, Control_c, 0, 64, 63
1, 463486, Note_off_c, 0, 39, 64
1, 463498, Control_c, 0, 64, 65
1, 463512, Control_c, 0, 64, 66
1, 463527, Control_c, 0, 64, 69
1, 463542, Control_c, 0, 64, 72
1, 463544, Note_on_c, 0, 37, 65
1, 463557, Control_c, 0, 64, 75
1, 463571, Control_c, 0, 64, 78
1, 463586, Control_c, 0, 64, 81
1, 463590, Note_off_c, 0, 37, 64
1, 463601, Control_c, 0, 64, 81
1, 463602, Note_off_c, 0, 57, 54
1, 463603, Note_off_c, 0, 60, 58
1, 463607, Note_off_c, 0, 65, 49
1, 463616, Control_c, 0, 64, 82
1, 463631, Control_c, 0, 64, 82
1, 463645, Control_c, 0, 64, 83
1, 463650, Note_off_c, 0, 53, 37
1, 463651, Note_on_c, 0, 36, 69
1, 463675, Control_c, 0, 64, 83
1, 463691, Note_off_c, 0, 36, 63
1, 463749, Control_c, 0, 64, 81
1, 463763, Control_c, 0, 64, 76
1, 463764, Note_on_c, 0, 65, 77
1, 463770, Note_on_c, 0, 57, 64
1, 463772, Note_on_c, 0, 41, 62
1, 463774, Note_on_c, 0, 53, 71
1, 463776, Note_on_c, 0, 61, 64
1, 463778, Control_c, 0, 64, 68
1, 463793, Control_c, 0, 64, 56
1, 463808, Note_off_c, 0, 41, 66
1, 463808, Control_c, 0, 64, 0
1, 463864, Note_on_c, 0, 39, 65
1, 463902, Note_off_c, 0, 39, 64
1, 463963, Note_on_c, 0, 37, 68
1, 463971, Control_c, 0, 64, 20
1, 463986, Control_c, 0, 64, 28
1, 464001, Control_c, 0, 64, 30
1, 464004, Note_off_c, 0, 37, 65
1, 464016, Control_c, 0, 64, 31
1, 464030, Control_c, 0, 64, 34
1, 464045, Control_c, 0, 64, 41
1, 464067, Control_c, 0, 64, 53
1, 464074, Note_on_c, 0, 39, 66
1, 464082, Control_c, 0, 64, 61
1, 464097, Control_c, 0, 64, 64
1, 464111, Note_off_c, 0, 39, 64
1, 464112, Control_c, 0, 64, 66
1, 464127, Control_c, 0, 64, 68
1, 464141, Control_c, 0, 64, 69
1, 464156, Control_c, 0, 64, 72
1, 464168, Note_on_c, 0, 37, 68
1, 464168, Note_off_c, 0, 57, 61
1, 464171, Control_c, 0, 64, 75
1, 464184, Note_off_c, 0, 53, 54
1, 464184, Note_off_c, 0, 65, 60
1, 464186, Control_c, 0, 64, 79
1, 464201, Control_c, 0, 64, 81
1, 464216, Control_c, 0, 64, 82
1, 464229, Note_off_c, 0, 37, 48
1, 464231, Control_c, 0, 64, 83
1, 464243, Note_off_c, 0, 61, 59
1, 464246, Control_c, 0, 64, 84
1, 464261, Control_c, 0, 64, 84
1, 464271, Note_on_c, 0, 36, 58
1, 464276, Control_c, 0, 64, 85
1, 464290, Control_c, 0, 64, 86
1, 464305, Control_c, 0, 64, 86
1, 464310, Note_off_c, 0, 36, 64
1, 464320, Control_c, 0, 64, 87
1, 464335, Control_c, 0, 64, 87
1, 464377, Note_on_c, 0, 41, 53
1, 464380, Control_c, 0, 64, 87
1, 464383, Note_on_c, 0, 31, 46
1, 464394, Control_c, 0, 64, 83
1, 464407, Note_off_c, 0, 41, 57
1, 464409, Control_c, 0, 64, 77
1, 464411, Note_on_c, 0, 69, 79
1, 464419, Note_off_c, 0, 31, 50
1, 464421, Note_on_c, 0, 57, 67
1, 464423, Note_on_c, 0, 60, 63
1, 464424, Control_c, 0, 64, 69
1, 464425, Note_on_c, 0, 65, 56
1, 464439, Control_c, 0, 64, 51
1, 464454, Control_c, 0, 64, 0
1, 464482, Note_on_c, 0, 39, 65
1, 464499, Note_on_c, 0, 28, 50
1, 464510, Note_off_c, 0, 39, 62
1, 464535, Note_off_c, 0, 28, 35
1, 464584, Note_on_c, 0, 37, 62
1, 464609, Note_off_c, 0, 37, 59
1, 464616, Note_on_c, 0, 25, 17
1, 464617, Note_off_c, 0, 25, 127
1, 464696, Note_on_c, 0, 39, 78
1, 464702, Note_on_c, 0, 27, 64
1, 464725, Note_off_c, 0, 39, 65
1, 464729, Note_off_c, 0, 27, 60
1, 464735, Control_c, 0, 64, 48
1, 464750, Control_c, 0, 64, 61
1, 464765, Control_c, 0, 64, 65
1, 464779, Control_c, 0, 64, 67
1, 464794, Control_c, 0, 64, 69
1, 464800, Note_on_c, 0, 37, 74
1, 464817, Control_c, 0, 64, 71
1, 464832, Control_c, 0, 64, 73
1, 464842, Note_off_c, 0, 60, 59
1, 464847, Control_c, 0, 64, 76
1, 464848, Note_off_c, 0, 37, 63
1, 464861, Control_c, 0, 64, 78
1, 464866, Note_off_c, 0, 69, 56
1, 464876, Control_c, 0, 64, 80
1, 464890, Note_off_c, 0, 57, 55
1, 464890, Note_on_c, 0, 24, 77
1, 464891, Control_c, 0, 64, 81
1, 464895, Poly_aftertouch_c, 0, 27, 0
1, 464896, Note_off_c, 0, 65, 57
1, 464905, Poly_aftertouch_c, 0, 25, 0
1, 464906, Control_c, 0, 64, 83
1, 464919, Note_off_c, 0, 24, 62
1, 464920, Control_c, 0, 64, 84
1, 464935, Control_c, 0, 64, 86
1, 464950, Control_c, 0, 64, 87
1, 464965, Control_c, 0, 64, 87
1, 464994, Control_c, 0, 64, 85
1, 465009, Control_c, 0, 64, 77
1, 465010, Note_on_c, 0, 41, 73
1, 465012, Note_on_c, 0, 29, 70
1, 465014, Note_on_c, 0, 69, 88
1, 465018, Note_on_c, 0, 57, 80
1, 465023, Note_on_c, 0, 61, 75
1, 465024, Control_c, 0, 64, 62
1, 465027, Note_on_c, 0, 65, 72
1, 465039, Note_off_c, 0, 41, 68
1, 465040, Control_c, 0, 64, 0
1, 465049, Note_off_c, 0, 29, 61
1, 465085, Control_c, 0, 64, 39
1, 465099, Control_c, 0, 64, 66
1, 465114, Control_c, 0, 64, 75
1, 465116, Note_on_c, 0, 27, 75
1, 465116, Note_off_c, 0, 61, 61
1, 465119, Note_off_c, 0, 57, 59
1, 465129, Control_c, 0, 64, 81
1, 465143, Control_c, 0, 64, 84
1, 465143, Control_c, 0, 67, 94
1, 465145, Note_off_c, 0, 27, 68
1, 465145, Note_off_c, 0, 65, 62
1, 465158, Control_c, 0, 64, 85
1, 465158, Control_c, 0, 67, 41
1, 465173, Control_c, 0, 64, 86
1, 465173, Control_c, 0, 67, 0
1, 465188, Note_off_c, 0, 69, 61
1, 465188, Control_c, 0, 64, 87
1, 465203, Control_c, 0, 64, 88
1, 465217, Note_on_c, 0, 25, 71
1, 465218, Control_c, 0, 64, 90
1, 465221, Note_on_c, 0, 37, 61
1, 465232, Control_c, 0, 64, 92
1, 465247, Note_off_c, 0, 37, 60
1, 465247, Note_off_c, 0, 25, 61
1, 465247, Control_c, 0, 64, 93
1, 465262, Control_c, 0, 64, 94
1, 465277, Control_c, 0, 64, 95
1, 465292, Control_c, 0, 64, 95
1, 465307, Control_c, 0, 64, 97
1, 465322, Control_c, 0, 64, 98
1, 465326, Note_on_c, 0, 39, 80
1, 465336, Control_c, 0, 64, 100
1, 465340, Note_on_c, 0, 30, 51
1, 465351, Control_c, 0, 64, 101
1, 465355, Note_off_c, 0, 39, 63
1, 465361, Note_on_c, 0, 28, 19
1, 465366, Control_c, 0, 64, 103
1, 465377, Note_off_c, 0, 30, 50
1, 465381, Control_c, 0, 64, 106
1, 465396, Control_c, 0, 64, 108
1, 465410, Control_c, 0, 64, 111
1, 465411, Note_off_c, 0, 28, 41
1, 465425, Control_c, 0, 64, 114
1, 465429, Note_on_c, 0, 37, 79
1, 465440, Control_c, 0, 64, 118
1, 465455, Control_c, 0, 64, 122
1, 465470, Control_c, 0, 64, 127
1, 465473, Note_off_c, 0, 37, 60
1, 465508, Poly_aftertouch_c, 0, 25, 127
1, 465522, Note_on_c, 0, 24, 76
1, 465547, Poly_aftertouch_c, 0, 25, 0
1, 465569, Note_off_c, 0, 24, 61
1, 465610, Control_c, 0, 64, 109
1, 465625, Control_c, 0, 64, 89
1, 465634, Note_on_c, 0, 72, 91
1, 465640, Note_on_c, 0, 60, 81
1, 465640, Control_c, 0, 64, 70
1, 465643, Note_on_c, 0, 65, 78
1, 465647, Note_on_c, 0, 69, 72
1, 465655, Note_on_c, 0, 41, 77
1, 465655, Control_c, 0, 64, 0
1, 465658, Note_on_c, 0, 29, 70
1, 465682, Note_off_c, 0, 41, 67
1, 465684, Control_c, 0, 64, 35
1, 465689, Note_off_c, 0, 29, 60
1, 465699, Control_c, 0, 64, 67
1, 465702, Note_off_c, 0, 60, 57
1, 465714, Control_c, 0, 64, 76
1, 465729, Control_c, 0, 64, 86
1, 465730, Note_off_c, 0, 72, 62
1, 465743, Control_c, 0, 64, 92
1, 465758, Control_c, 0, 64, 93
1, 465767, Note_on_c, 0, 39, 71
1, 465772, Note_on_c, 0, 28, 65
1, 465773, Control_c, 0, 64, 94
1, 465776, Note_off_c, 0, 65, 51
1, 465784, Note_off_c, 0, 69, 64
1, 465788, Note_off_c, 0, 39, 63
1, 465788, Control_c, 0, 64, 96
1, 465802, Note_off_c, 0, 28, 58
1, 465803, Control_c, 0, 64, 98
1, 465817, Control_c, 0, 64, 102
1, 465833, Control_c, 0, 64, 107
1, 465848, Control_c, 0, 64, 110
1, 465850, Note_on_c, 0, 37, 74
1, 465857, Note_on_c, 0, 25, 71
1, 465863, Control_c, 0, 64, 113
1, 465877, Note_off_c, 0, 37, 65
1, 465878, Control_c, 0, 64, 116
1, 465886, Note_off_c, 0, 25, 59
1, 465893, Control_c, 0, 64, 119
1, 465907, Control_c, 0, 64, 122
1, 465922, Control_c, 0, 64, 127
1, 465957, Note_on_c, 0, 39, 99
1, 465958, Note_on_c, 0, 73, 92
1, 465963, Note_on_c, 0, 27, 61
1, 465963, Note_on_c, 0, 61, 79
1, 465968, Note_on_c, 0, 69, 75
1, 465988, Note_off_c, 0, 39, 64
1, 465992, Note_off_c, 0, 27, 66
1, 465992, Note_off_c, 0, 69, 70
1, 465996, Note_off_c, 0, 61, 60
1, 466047, Note_off_c, 0, 73, 61
1, 466061, Note_on_c, 0, 37, 93
1, 466073, Note_on_c, 0, 25, 81
1, 466091, Note_on_c, 0, 27, 38
1, 466097, Note_off_c, 0, 25, 64
1, 466125, Note_off_c, 0, 27, 57
1, 466130, Note_off_c, 0, 37, 61
1, 466154, Note_on_c, 0, 24, 89
1, 466177, Note_on_c, 0, 25, 44
1, 466196, Note_off_c, 0, 25, 61
1, 466198, Note_off_c, 0, 24, 62
1, 466247, Control_c, 0, 64, 111
1, 466252, Note_on_c, 0, 77, 106
1, 466254, Note_on_c, 0, 65, 94
1, 466255, Note_on_c, 0, 72, 86
1, 466257, Note_on_c, 0, 69, 84
1, 466261, Note_on_c, 0, 29, 85
1, 466262, Control_c, 0, 64, 73
1, 466267, Note_on_c, 0, 41, 86
1, 466277, Control_c, 0, 64, 0
1, 466294, Note_off_c, 0, 29, 67
1, 466294, Note_off_c, 0, 69, 64
1, 466296, Note_off_c, 0, 41, 69
1, 466329, Control_c, 0, 64, 64
1, 466342, Note_off_c, 0, 65, 60
1, 466344, Control_c, 0, 64, 89
1, 466350, Note_off_c, 0, 72, 61
1, 466359, Control_c, 0, 64, 127
1, 466373, Note_on_c, 0, 27, 93
1, 466374, Note_on_c, 0, 39, 82
1, 466388, Note_off_c, 0, 77, 57
1, 466404, Note_off_c, 0, 39, 66
1, 466407, Note_off_c, 0, 27, 68
1, 466472, Note_on_c, 0, 37, 84
1, 466475, Note_on_c, 0, 25, 82
1, 466499, Note_off_c, 0, 25, 64
1, 466499, Note_off_c, 0, 37, 68
1, 466549, Poly_aftertouch_c, 0, 27, 127
1, 466577, Note_on_c, 0, 27, 54
1, 466578, Note_on_c, 0, 39, 99
1, 466578, Note_on_c, 0, 81, 109
1, 466583, Note_on_c, 0, 69, 97
1, 466583, Note_on_c, 0, 73, 101
1, 466609, Note_off_c, 0, 39, 64
1, 466619, Note_off_c, 0, 27, 61
1, 466648, Note_off_c, 0, 69, 59
1, 466660, Note_off_c, 0, 73, 38
1, 466667, Poly_aftertouch_c, 0, 28, 127
1, 466674, Note_off_c, 0, 81, 59
1, 466677, Note_on_c, 0, 37, 92
1, 466681, Poly_aftertouch_c, 0, 30, 0
1, 466687, Note_on_c, 0, 25, 85
1, 466692, Poly_aftertouch_c, 0, 30, 0
1, 466701, Poly_aftertouch_c, 0, 28, 0
1, 466714, Note_off_c, 0, 25, 66
1, 466735, Note_off_c, 0, 37, 62
1, 466768, Note_on_c, 0, 24, 30
1, 466809, Note_on_c, 0, 25, 13
1, 466819, Note_off_c, 0, 24, 62
1, 466832, Note_off_c, 0, 25, 58
1, 466874, Note_on_c, 0, 84, 102
1, 466876, Note_on_c, 0, 72, 97
1, 466877, Note_on_c, 0, 77, 98
1, 466878, Control_c, 0, 64, 96
1, 466878, Note_on_c, 0, 81, 93
1, 466881, Note_on_c, 0, 29, 89
1, 466884, Note_on_c, 0, 41, 100
1, 466893, Control_c, 0, 64, 68
1, 466907, Control_c, 0, 64, 0
1, 466919, Note_off_c, 0, 41, 66
1, 466923, Note_off_c, 0, 29, 66
1, 466937, Control_c, 0, 64, 70
1, 466949, Note_off_c, 0, 72, 63
1, 466952, Control_c, 0, 64, 85
1, 466961, Note_off_c, 0, 84, 61
1, 466967, Control_c, 0, 64, 105
1, 466981, Note_on_c, 0, 39, 95
1, 466981, Control_c, 0, 64, 126
1, 466985, Note_on_c, 0, 27, 93
1, 466996, Control_c, 0, 64, 127
1, 467015, Note_off_c, 0, 27, 69
1, 467020, Note_off_c, 0, 39, 62
1, 467029, Note_off_c, 0, 81, 56
1, 467033, Note_off_c, 0, 77, 55
1, 467036, Note_on_c, 0, 28, 22
1, 467087, Note_off_c, 0, 28, 47
1, 467090, Note_on_c, 0, 37, 89
1, 467094, Note_on_c, 0, 25, 80
1, 467123, Note_on_c, 0, 24, 51
1, 467128, Note_off_c, 0, 37, 67
1, 467132, Note_off_c, 0, 25, 64
1, 467168, Note_off_c, 0, 24, 49
1, 467198, Note_on_c, 0, 73, 101
1, 467200, Note_on_c, 0, 85, 100
1, 467203, Note_on_c, 0, 39, 101
1, 467205, Note_on_c, 0, 81, 93
1, 467212, Note_on_c, 0, 27, 89
1, 467216, Note_on_c, 0, 77, 67
1, 467232, Note_on_c, 0, 30, 56
1, 467233, Note_off_c, 0, 30, 127
1, 467233, Note_on_c, 0, 28, 49
1, 467234, Note_off_c, 0, 77, 59
1, 467236, Note_off_c, 0, 27, 68
1, 467240, Note_off_c, 0, 39, 65
1, 467260, Note_off_c, 0, 73, 61
1, 467268, Note_off_c, 0, 81, 56
1, 467275, Note_off_c, 0, 28, 55
1, 467290, Note_off_c, 0, 85, 63
1, 467304, Note_on_c, 0, 37, 100
1, 467316, Note_on_c, 0, 25, 86
1, 467349, Note_off_c, 0, 25, 67
1, 467367, Note_off_c, 0, 37, 58
1, 467405, Note_on_c, 0, 24, 91
1, 467409, Note_on_c, 0, 37, 64
1, 467428, Note_off_c, 0, 37, 66
1, 467450, Note_off_c, 0, 24, 63
1, 467505, Note_on_c, 0, 77, 100
1, 467505, Note_on_c, 0, 89, 109
1, 467508, Note_on_c, 0, 84, 96
1, 467508, Control_c, 0, 64, 95
1, 467510, Note_on_c, 0, 81, 94
1, 467515, Note_on_c, 0, 41, 104
1, 467519, Note_on_c, 0, 29, 94
1, 467523, Control_c, 0, 64, 65
1, 467537, Control_c, 0, 64, 0
1, 467549, Note_off_c, 0, 41, 68
1, 467553, Note_off_c, 0, 29, 67
1, 467559, Note_off_c, 0, 81, 58
1, 467567, Control_c, 0, 64, 67
1, 467568, Note_on_c, 0, 31, 17
1, 467569, Note_off_c, 0, 31, 127
1, 467580, Note_off_c, 0, 77, 59
1, 467582, Control_c, 0, 64, 86
1, 467597, Control_c, 0, 64, 123
1, 467601, Note_off_c, 0, 84, 58
1, 467611, Control_c, 0, 64, 127
1, 467620, Poly_aftertouch_c, 0, 31, 0
1, 467630, Note_on_c, 0, 39, 105
1, 467630, Note_off_c, 0, 89, 55
1, 467631, Poly_aftertouch_c, 0, 32, 0
1, 467631, Poly_aftertouch_c, 0, 33, 0
1, 467640, Note_on_c, 0, 27, 95
1, 467669, Note_off_c, 0, 27, 66
1, 467671, Note_off_c, 0, 39, 64
1, 467758, Note_on_c, 0, 25, 86
1, 467760, Note_on_c, 0, 37, 77
1, 467761, Note_off_c, 0, 37, 127
1, 467774, Note_on_c, 0, 36, 73
1, 467778, Note_on_c, 0, 24, 67
1, 467781, Note_on_c, 0, 35, 58
1, 467793, Note_off_c, 0, 25, 63
1, 467796, Note_off_c, 0, 36, 64
1, 467815, Note_off_c, 0, 35, 60
1, 467825, Note_off_c, 0, 24, 52
1, 467862, Note_on_c, 0, 81, 98
1, 467863, Note_on_c, 0, 85, 102
1, 467863, Note_on_c, 0, 93, 110
1, 467876, Note_on_c, 0, 39, 116
1, 467881, Note_on_c, 0, 27, 85
1, 467882, Note_off_c, 0, 93, 63
1, 467886, Note_off_c, 0, 85, 64
1, 467899, Note_on_c, 0, 30, 57
1, 467900, Note_off_c, 0, 81, 63
1, 467906, Note_off_c, 0, 39, 66
1, 467916, Note_off_c, 0, 27, 62
1, 467930, Note_off_c, 0, 30, 56
1, 467987, Note_on_c, 0, 37, 98
1, 468000, Note_on_c, 0, 25, 86
1, 468005, Note_on_c, 0, 27, 68
1, 468021, Note_off_c, 0, 27, 72
1, 468023, Note_off_c, 0, 25, 61
1, 468037, Note_off_c, 0, 37, 64
1, 468101, Note_on_c, 0, 36, 94
1, 468106, Note_on_c, 0, 27, 52
1, 468121, Note_on_c, 0, 24, 69
1, 468130, Note_off_c, 0, 27, 57
1, 468136, Note_on_c, 0, 32, 42
1, 468145, Note_off_c, 0, 36, 61
1, 468147, Note_on_c, 0, 28, 26
1, 468154, Note_off_c, 0, 24, 54
1, 468185, Note_off_c, 0, 32, 61
1, 468193, Note_off_c, 0, 28, 52
1, 468210, Note_on_c, 0, 61, 91
1, 468213, Note_on_c, 0, 37, 118
1, 468213, Note_on_c, 0, 49, 100
1, 468216, Note_on_c, 0, 53, 90
1, 468219, Note_on_c, 0, 33, 97
1, 468221, Note_on_c, 0, 25, 90
1, 468221, Note_on_c, 0, 57, 85
1, 468237, Note_on_c, 0, 29, 61
1, 468242, Note_on_c, 0, 28, 63
1, 468272, Note_off_c, 0, 28, 60
1, 468288, Control_c, 0, 64, 95
1, 468299, Note_off_c, 0, 25, 64
1, 468302, Control_c, 0, 64, 65
1, 468315, Poly_aftertouch_c, 0, 27, 0
1, 468317, Control_c, 0, 64, 0
1, 468497, Note_on_c, 0, 25, 50
1, 469516, Control_c, 0, 67, 15
1, 469531, Control_c, 0, 67, 27
1, 469546, Control_c, 0, 67, 42
1, 469561, Control_c, 0, 67, 59
1, 469575, Control_c, 0, 67, 80
1, 469590, Control_c, 0, 67, 107
1, 469605, Control_c, 0, 67, 127
1, 469828, Control_c, 0, 64, 25
1, 469843, Control_c, 0, 64, 38
1, 469858, Control_c, 0, 64, 43
1, 469873, Control_c, 0, 64, 46
1, 469887, Control_c, 0, 64, 47
1, 469902, Control_c, 0, 64, 47
1, 469917, Control_c, 0, 64, 48
1, 469931, Control_c, 0, 64, 51
1, 469946, Control_c, 0, 64, 56
1, 469961, Control_c, 0, 64, 61
1, 469976, Control_c, 0, 64, 64
1, 469991, Control_c, 0, 64, 66
1, 470005, Control_c, 0, 64, 68
1, 470020, Control_c, 0, 64, 71
1, 470035, Control_c, 0, 64, 74
1, 470058, Control_c, 0, 64, 78
1, 470073, Control_c, 0, 64, 80
1, 470087, Control_c, 0, 64, 82
1, 470102, Control_c, 0, 64, 84
1, 470117, Control_c, 0, 64, 86
1, 470127, Note_off_c, 0, 33, 42
1, 470131, Control_c, 0, 64, 87
1, 470146, Control_c, 0, 64, 88
1, 470161, Control_c, 0, 64, 89
1, 470176, Note_off_c, 0, 29, 16
1, 470176, Control_c, 0, 64, 90
1, 470191, Control_c, 0, 64, 91
1, 470205, Control_c, 0, 64, 93
1, 470220, Control_c, 0, 64, 95
1, 470235, Control_c, 0, 64, 96
1, 470250, Control_c, 0, 64, 97
1, 470255, Note_off_c, 0, 57, 30
1, 470265, Control_c, 0, 64, 98
1, 470279, Control_c, 0, 64, 99
1, 470324, Control_c, 0, 64, 99
1, 470401, Note_off_c, 0, 49, 51
1, 470430, Note_off_c, 0, 37, 57
1, 470443, Note_off_c, 0, 53, 19
1, 470476, Note_off_c, 0, 61, 58
1, 470487, Control_c, 0, 64, 99
1, 470489, Note_off_c, 0, 25, 39
1, 470517, Control_c, 0, 64, 98
1, 470531, Control_c, 0, 64, 98
1, 470561, Control_c, 0, 64, 97
1, 470591, Control_c, 0, 64, 97
1, 470605, Control_c, 0, 64, 96
1, 470621, Control_c, 0, 64, 93
1, 470637, Control_c, 0, 64, 85
1, 470651, Note_on_c, 0, 60, 75
1, 470652, Control_c, 0, 64, 72
1, 470656, Note_on_c, 0, 24, 64
1, 470657, Note_on_c, 0, 48, 73
1, 470659, Note_on_c, 0, 36, 61
1, 470667, Control_c, 0, 64, 0
1, 470683, Note_off_c, 0, 60, 59
1, 470686, Note_off_c, 0, 48, 66
1, 470688, Note_off_c, 0, 36, 65
1, 470690, Note_off_c, 0, 24, 61
1, 470735, Note_on_c, 0, 60, 84
1, 470735, Note_on_c, 0, 29, 85
1, 470736, Note_on_c, 0, 48, 87
1, 470736, Note_on_c, 0, 53, 81
1, 470751, Note_on_c, 0, 36, 62
1, 470759, Note_off_c, 0, 29, 65
1, 470762, Note_off_c, 0, 48, 67
1, 470766, Note_off_c, 0, 53, 68
1, 470775, Note_off_c, 0, 60, 60
1, 470776, Note_off_c, 0, 36, 58
1, 472010, Note_on_c, 0, 60, 55
1, 472014, Note_on_c, 0, 53, 54
1, 472015, Note_on_c, 0, 48, 47
1, 472022, Note_on_c, 0, 29, 46
1, 472039, Note_on_c, 0, 36, 32
1, 472039, Note_off_c, 0, 60, 63
1, 472042, Note_off_c, 0, 48, 59
1, 472044, Note_off_c, 0, 53, 66
1, 472056, Note_off_c, 0, 29, 58
1, 472079, Note_off_c, 0, 36, 42
1, 473248, Note_on_c, 0, 41, 53
1, 473251, Note_on_c, 0, 29, 49
1, 473278, Note_off_c, 0, 41, 58
1, 473286, Note_off_c, 0, 29, 51
1, 482632, Control_c, 0, 67, 125
1, 482647, Control_c, 0, 67, 122
1, 482661, Control_c, 0, 67, 119
1, 482676, Control_c, 0, 67, 117
1, 482691, Control_c, 0, 67, 115
1, 482706, Control_c, 0, 67, 113
1, 482721, Control_c, 0, 67, 111
1, 482735, Control_c, 0, 67, 110
1, 482750, Control_c, 0, 67, 109
1, 482765, Control_c, 0, 67, 108
1, 482787, Control_c, 0, 67, 107
1, 482802, Control_c, 0, 67, 106
1, 482817, Control_c, 0, 67, 105
1, 482832, Control_c, 0, 67, 103
1, 482847, Control_c, 0, 67, 102
1, 482861, Control_c, 0, 67, 101
1, 482876, Control_c, 0, 67, 100
1, 482891, Control_c, 0, 67, 99
1, 482906, Control_c, 0, 67, 98
1, 482921, Control_c, 0, 67, 96
1, 482935, Control_c, 0, 67, 95
1, 482950, Control_c, 0, 67, 94
1, 482965, Control_c, 0, 67, 93
1, 482980, Control_c, 0, 67, 92
1, 482995, Control_c, 0, 67, 91
1, 483009, Control_c, 0, 67, 90
1, 483024, Control_c, 0, 67, 89
1, 483039, Control_c, 0, 67, 88
1, 483054, Control_c, 0, 67, 87
1, 483068, Control_c, 0, 67, 87
1, 483098, Control_c, 0, 67, 86
1, 483113, Control_c, 0, 67, 85
1, 483128, Control_c, 0, 67, 85
1, 483157, Control_c, 0, 67, 84
1, 483172, Control_c, 0, 67, 84
1, 483513, Control_c, 0, 67, 83
1, 483876, Control_c, 0, 64, 11
1, 484083, Control_c, 0, 64, 14
1, 484188, Control_c, 0, 64, 16
1, 484522, Control_c, 0, 64, 18
1, 484729, Control_c, 0, 64, 20
1, 484832, Control_c, 0, 64, 22
1, 485137, Control_c, 0, 64, 23
1, 485463, Control_c, 0, 64, 25
1, 485508, Control_c, 0, 64, 26
1, 486404, Control_c, 0, 64, 27
1, 487050, Control_c, 0, 64, 28
1, 487242, Control_c, 0, 64, 29
1, 487354, Control_c, 0, 64, 28
1, 487369, Control_c, 0, 64, 23
1, 487383, Control_c, 0, 64, 11
1, 487398, Control_c, 0, 64, 0
1, 487547, Control_c, 0, 67, 82
1, 487577, Control_c, 0, 67, 82
1, 487606, Control_c, 0, 67, 80
1, 487621, Control_c, 0, 67, 73
1, 487636, Control_c, 0, 67, 67
1, 487650, Control_c, 0, 67, 60
1, 487665, Control_c, 0, 67, 52
1, 487680, Control_c, 0, 67, 44
1, 487695, Control_c, 0, 67, 36
1, 487710, Control_c, 0, 67, 29
1, 487724, Control_c, 0, 67, 23
1, 487739, Control_c, 0, 67, 20
1, 487754, Control_c, 0, 67, 17
1, 487769, Control_c, 0, 67, 14
1, 487784, Control_c, 0, 67, 10
1, 487798, Control_c, 0, 67, 0
1, 487798, End_track
0, 0, End_of_file
