0, 0, Header, 0, 1, 384
1, 0, Start_track
1, 0, Title_t, "Sonata Op. 53--Reed Tetzloff    "
1, 0, Text_t, "2008 e-Piano Junior Competition recital round"
1, 0, Text_t, "recorded July 2008"
1, 0, Text_t, "http://www.piano-e-competition.com/"
1, 0, Text_t, "File processed for distribution by software from Zenph Studios, Inc., http://www.zenph.com"
1, 0, Instrument_name_t, "Yamaha Disklavier Pro Mark IV concert grand piano, model DCFIIISM4PRO"
1, 0, Sequencer_specific, 39, 67, 113, 0, 1, 0, 1, 0, 83, 111, 110, 97, 116, 97, 32, 79, 112, 46, 32, 53, 51, 32, 32, 32, 82, 101, 101, 100, 32, 84, 101, 116, 122, 108, 111, 102, 102, 32, 32, 32
1, 0, Sequencer_specific, 6, 67, 113, 0, 0, 0, 69
1, 0, System_exclusive, 21, 67, 113, 126, 21, 0, 2, 2, 0, 3, 14, 1, 4, 1, 13, 13, 10, 11, 9, 2, 7, 247
1, 0, Sequencer_specific, 5, 67, 123, 12, 2, 1
1, 0, Tempo, 512820
1, 0, Time_signature, 4, 2, 24, 8
1, 0, System_exclusive, 5, 126, 127, 9, 1, 247
1, 1, System_exclusive, 8, 67, 16, 76, 0, 0, 126, 0, 247
1, 2, System_exclusive, 8, 67, 16, 76, 8, 9, 7, 1, 247
1, 3, Control_c, 0, 0, 0
1, 3, Control_c, 1, 0, 0
1, 3, Control_c, 2, 0, 0
1, 3, Control_c, 3, 0, 0
1, 3, Control_c, 4, 0, 0
1, 3, Control_c, 5, 0, 0
1, 3, Control_c, 6, 0, 0
1, 3, Control_c, 7, 0, 0
1, 3, Control_c, 8, 0, 0
1, 3, Control_c, 9, 0, 127
1, 3, Control_c, 10, 0, 0
1, 3, Control_c, 11, 0, 0
1, 3, Control_c, 12, 0, 0
1, 3, Control_c, 13, 0, 0
1, 3, Control_c, 14, 0, 0
1, 3, Control_c, 15, 0, 0
1, 4, Control_c, 0, 32, 0
1, 4, Control_c, 1, 32, 0
1, 4, Control_c, 2, 32, 0
1, 4, Control_c, 3, 32, 0
1, 4, Control_c, 4, 32, 0
1, 4, Control_c, 5, 32, 0
1, 4, Control_c, 6, 32, 0
1, 4, Control_c, 7, 32, 0
1, 4, Control_c, 8, 32, 0
1, 4, Control_c, 9, 32, 0
1, 4, Control_c, 10, 32, 0
1, 4, Control_c, 11, 32, 0
1, 4, Control_c, 12, 32, 0
1, 4, Control_c, 13, 32, 0
1, 4, Control_c, 14, 32, 0
1, 4, Control_c, 15, 32, 0
1, 5, Program_c, 0, 0
1, 5, Program_c, 1, 0
1, 5, Program_c, 2, 0
1, 5, Program_c, 3, 0
1, 5, Program_c, 4, 0
1, 5, Program_c, 5, 0
1, 5, Program_c, 6, 0
1, 5, Program_c, 7, 0
1, 5, Program_c, 8, 0
1, 5, Program_c, 9, 0
1, 5, Program_c, 10, 0
1, 5, Program_c, 11, 0
1, 5, Program_c, 12, 0
1, 5, Program_c, 13, 0
1, 5, Program_c, 14, 0
1, 5, Program_c, 15, 0
1, 6, Control_c, 0, 7, 100
1, 6, Control_c, 1, 7, 100
1, 6, Control_c, 2, 7, 100
1, 6, Control_c, 3, 7, 100
1, 6, Control_c, 4, 7, 100
1, 6, Control_c, 5, 7, 100
1, 6, Control_c, 6, 7, 100
1, 6, Control_c, 7, 7, 100
1, 6, Control_c, 8, 7, 100
1, 6, Control_c, 9, 7, 100
1, 6, Control_c, 10, 7, 100
1, 6, Control_c, 11, 7, 100
1, 6, Control_c, 12, 7, 100
1, 6, Control_c, 13, 7, 100
1, 6, Control_c, 14, 7, 100
1, 6, Control_c, 15, 7, 100
1, 117, Control_c, 0, 67, 15
1, 229, Control_c, 0, 67, 31
1, 341, Control_c, 0, 67, 46
1, 452, Control_c, 0, 67, 63
1, 564, Control_c, 0, 67, 77
1, 676, Control_c, 0, 67, 94
1, 787, Control_c, 0, 67, 108
1, 899, Control_c, 0, 67, 127
1, 1140, Note_on_c, 0, 36, 16
1, 1188, Note_off_c, 0, 36, 38
1, 1252, Note_on_c, 0, 43, 26
1, 1294, Note_off_c, 0, 43, 45
1, 1379, Note_on_c, 0, 43, 43
1, 1385, Note_on_c, 0, 52, 23
1, 1388, Note_on_c, 0, 48, 28
1, 1414, Note_off_c, 0, 43, 50
1, 1422, Note_off_c, 0, 48, 49
1, 1423, Note_off_c, 0, 52, 57
1, 1486, Note_on_c, 0, 43, 64
1, 1507, Note_on_c, 0, 48, 55
1, 1511, Note_on_c, 0, 52, 62
1, 1518, Note_off_c, 0, 43, 60
1, 1522, Note_on_c, 0, 36, 4
1, 1537, Note_off_c, 0, 48, 63
1, 1548, Note_off_c, 0, 52, 66
1, 1571, Note_off_c, 0, 36, 37
1, 1611, Note_on_c, 0, 43, 58
1, 1624, Note_on_c, 0, 48, 55
1, 1635, Note_on_c, 0, 52, 57
1, 1654, Note_off_c, 0, 43, 60
1, 1668, Note_off_c, 0, 48, 62
1, 1680, Note_off_c, 0, 52, 65
1, 1742, Note_on_c, 0, 43, 58
1, 1761, Note_on_c, 0, 48, 49
1, 1764, Note_on_c, 0, 52, 59
1, 1776, Note_on_c, 0, 36, 8
1, 1778, Note_off_c, 0, 43, 57
1, 1791, Note_off_c, 0, 48, 57
1, 1802, Note_off_c, 0, 52, 65
1, 1825, Note_off_c, 0, 36, 36
1, 1886, Note_on_c, 0, 43, 39
1, 1889, Note_on_c, 0, 48, 50
1, 1894, Note_on_c, 0, 52, 52
1, 1921, Note_off_c, 0, 43, 48
1, 1922, Note_off_c, 0, 48, 59
1, 1930, Note_off_c, 0, 52, 66
1, 1996, Note_on_c, 0, 43, 60
1, 2020, Note_on_c, 0, 52, 58
1, 2023, Note_on_c, 0, 48, 46
1, 2029, Note_on_c, 0, 36, 7
1, 2033, Note_off_c, 0, 43, 61
1, 2052, Note_off_c, 0, 48, 54
1, 2055, Note_off_c, 0, 52, 66
1, 2080, Note_off_c, 0, 36, 36
1, 2134, Note_on_c, 0, 43, 52
1, 2136, Note_on_c, 0, 48, 56
1, 2137, Note_on_c, 0, 52, 62
1, 2164, Note_off_c, 0, 43, 54
1, 2165, Note_on_c, 0, 36, 20
1, 2170, Note_off_c, 0, 48, 64
1, 2172, Note_off_c, 0, 52, 65
1, 2210, Note_off_c, 0, 36, 40
1, 2252, Note_on_c, 0, 43, 57
1, 2261, Note_on_c, 0, 52, 54
1, 2267, Note_on_c, 0, 48, 48
1, 2285, Note_off_c, 0, 43, 61
1, 2295, Note_off_c, 0, 48, 60
1, 2297, Note_on_c, 0, 36, 6
1, 2298, Note_off_c, 0, 52, 67
1, 2348, Note_off_c, 0, 36, 36
1, 2394, Note_on_c, 0, 43, 54
1, 2398, Note_on_c, 0, 52, 58
1, 2402, Note_on_c, 0, 48, 46
1, 2423, Note_off_c, 0, 43, 56
1, 2432, Note_off_c, 0, 48, 61
1, 2435, Note_off_c, 0, 52, 65
1, 2452, Poly_aftertouch_c, 0, 36, 127
1, 2503, Note_on_c, 0, 43, 61
1, 2515, Poly_aftertouch_c, 0, 36, 0
1, 2519, Note_on_c, 0, 52, 62
1, 2522, Note_on_c, 0, 48, 53
1, 2536, Note_off_c, 0, 43, 62
1, 2540, Note_on_c, 0, 36, 4
1, 2553, Note_off_c, 0, 48, 64
1, 2556, Note_off_c, 0, 52, 65
1, 2592, Note_off_c, 0, 36, 35
1, 2643, Note_on_c, 0, 43, 49
1, 2649, Note_on_c, 0, 48, 54
1, 2650, Note_on_c, 0, 52, 66
1, 2676, Note_off_c, 0, 43, 52
1, 2680, Note_off_c, 0, 48, 66
1, 2683, Note_off_c, 0, 52, 66
1, 2749, Note_on_c, 0, 43, 64
1, 2758, Note_on_c, 0, 52, 69
1, 2765, Note_on_c, 0, 48, 57
1, 2782, Note_off_c, 0, 43, 62
1, 2795, Note_off_c, 0, 48, 66
1, 2803, Note_off_c, 0, 52, 65
1, 2805, Poly_aftertouch_c, 0, 36, 127
1, 2836, Poly_aftertouch_c, 0, 36, 0
1, 2877, Note_on_c, 0, 54, 72
1, 2882, Note_on_c, 0, 45, 61
1, 2886, Note_on_c, 0, 50, 62
1, 2906, Note_off_c, 0, 45, 61
1, 2910, Note_on_c, 0, 36, 7
1, 2919, Note_off_c, 0, 50, 63
1, 2926, Note_off_c, 0, 54, 59
1, 2960, Note_off_c, 0, 36, 26
1, 2982, Note_on_c, 0, 45, 67
1, 2984, Note_on_c, 0, 54, 63
1, 3002, Note_on_c, 0, 50, 57
1, 3009, Note_on_c, 0, 36, 28
1, 3021, Note_off_c, 0, 45, 62
1, 3033, Note_off_c, 0, 50, 63
1, 3036, Note_off_c, 0, 54, 57
1, 3051, Note_off_c, 0, 36, 41
1, 3112, Note_on_c, 0, 43, 65
1, 3117, Note_on_c, 0, 55, 63
1, 3121, Note_on_c, 0, 50, 56
1, 3131, Note_on_c, 0, 35, 43
1, 3152, Note_off_c, 0, 43, 61
1, 3173, Note_off_c, 0, 35, 53
1, 3254, Note_on_c, 0, 43, 52
1, 3259, Note_on_c, 0, 35, 53
1, 3284, Note_off_c, 0, 43, 55
1, 3287, Note_off_c, 0, 35, 55
1, 3370, Note_on_c, 0, 43, 58
1, 3378, Note_on_c, 0, 35, 51
1, 3400, Note_off_c, 0, 43, 61
1, 3407, Note_off_c, 0, 35, 53
1, 3479, Note_off_c, 0, 55, 56
1, 3511, Note_on_c, 0, 35, 47
1, 3512, Note_on_c, 0, 43, 52
1, 3528, Note_on_c, 0, 59, 48
1, 3543, Note_off_c, 0, 43, 53
1, 3544, Note_off_c, 0, 35, 49
1, 3558, Note_on_c, 0, 57, 54
1, 3567, Note_off_c, 0, 59, 46
1, 3571, Note_off_c, 0, 50, 37
1, 3611, Note_on_c, 0, 55, 58
1, 3616, Note_off_c, 0, 57, 59
1, 3624, Note_on_c, 0, 43, 57
1, 3630, Note_on_c, 0, 35, 57
1, 3656, Note_off_c, 0, 43, 57
1, 3659, Note_off_c, 0, 35, 61
1, 3680, Note_off_c, 0, 55, 65
1, 3747, Note_on_c, 0, 43, 59
1, 3749, Note_on_c, 0, 35, 61
1, 3778, Note_off_c, 0, 35, 59
1, 3781, Note_off_c, 0, 43, 62
1, 3887, Note_on_c, 0, 35, 56
1, 3887, Note_on_c, 0, 43, 55
1, 3916, Note_off_c, 0, 35, 55
1, 3917, Note_off_c, 0, 43, 53
1, 3995, Note_on_c, 0, 43, 57
1, 3999, Note_on_c, 0, 35, 57
1, 4026, Note_off_c, 0, 43, 57
1, 4032, Note_off_c, 0, 35, 62
1, 4087, Note_on_c, 0, 85, 68
1, 4116, Note_on_c, 0, 43, 57
1, 4118, Note_on_c, 0, 35, 63
1, 4118, Note_on_c, 0, 86, 73
1, 4141, Note_off_c, 0, 85, 65
1, 4148, Note_off_c, 0, 43, 56
1, 4149, Note_off_c, 0, 35, 60
1, 4240, Note_on_c, 0, 43, 53
1, 4245, Note_on_c, 0, 35, 51
1, 4276, Note_off_c, 0, 35, 56
1, 4279, Note_off_c, 0, 43, 52
1, 4378, Note_on_c, 0, 35, 56
1, 4380, Note_on_c, 0, 43, 48
1, 4406, Note_off_c, 0, 35, 60
1, 4411, Note_off_c, 0, 43, 51
1, 4444, Note_off_c, 0, 86, 56
1, 4447, Note_on_c, 0, 84, 60
1, 4506, Note_on_c, 0, 43, 52
1, 4508, Note_on_c, 0, 35, 53
1, 4508, Note_on_c, 0, 83, 51
1, 4510, Note_off_c, 0, 84, 59
1, 4538, Note_off_c, 0, 35, 58
1, 4540, Note_off_c, 0, 43, 55
1, 4556, Note_off_c, 0, 83, 61
1, 4565, Note_on_c, 0, 81, 61
1, 4618, Note_off_c, 0, 81, 53
1, 4627, Note_on_c, 0, 43, 57
1, 4631, Note_on_c, 0, 35, 59
1, 4670, Note_on_c, 0, 81, 36
1, 4670, Note_off_c, 0, 43, 58
1, 4674, Note_off_c, 0, 35, 64
1, 4747, Control_c, 0, 64, 19
1, 4762, Control_c, 0, 64, 25
1, 4770, Note_on_c, 0, 43, 58
1, 4776, Note_on_c, 0, 35, 58
1, 4776, Note_off_c, 0, 81, 62
1, 4777, Control_c, 0, 64, 31
1, 4791, Control_c, 0, 64, 32
1, 4802, Note_off_c, 0, 43, 62
1, 4806, Note_off_c, 0, 35, 63
1, 4806, Control_c, 0, 64, 33
1, 4850, Control_c, 0, 64, 32
1, 4865, Control_c, 0, 64, 29
1, 4880, Control_c, 0, 64, 25
1, 4895, Control_c, 0, 64, 22
1, 4899, Note_on_c, 0, 35, 61
1, 4902, Note_on_c, 0, 43, 54
1, 4909, Control_c, 0, 64, 21
1, 4924, Control_c, 0, 64, 19
1, 4929, Note_off_c, 0, 35, 64
1, 4929, Note_off_c, 0, 43, 56
1, 4939, Control_c, 0, 64, 16
1, 4954, Control_c, 0, 64, 0
1, 5014, Note_on_c, 0, 43, 55
1, 5017, Note_on_c, 0, 35, 62
1, 5043, Note_off_c, 0, 43, 55
1, 5047, Note_off_c, 0, 35, 65
1, 5144, Note_on_c, 0, 46, 62
1, 5144, Note_on_c, 0, 50, 58
1, 5145, Note_on_c, 0, 34, 58
1, 5145, Note_on_c, 0, 41, 50
1, 5171, Note_off_c, 0, 34, 59
1, 5177, Note_off_c, 0, 46, 62
1, 5178, Note_off_c, 0, 41, 56
1, 5184, Note_off_c, 0, 50, 62
1, 5254, Note_on_c, 0, 34, 61
1, 5258, Note_on_c, 0, 41, 58
1, 5260, Note_on_c, 0, 46, 57
1, 5268, Note_on_c, 0, 50, 52
1, 5286, Note_off_c, 0, 41, 62
1, 5287, Note_off_c, 0, 34, 63
1, 5295, Note_off_c, 0, 46, 64
1, 5305, Note_off_c, 0, 50, 64
1, 5394, Note_on_c, 0, 34, 55
1, 5394, Note_on_c, 0, 46, 52
1, 5398, Note_on_c, 0, 41, 46
1, 5403, Note_on_c, 0, 50, 52
1, 5422, Note_off_c, 0, 34, 61
1, 5427, Note_off_c, 0, 46, 63
1, 5430, Note_off_c, 0, 41, 53
1, 5438, Note_off_c, 0, 50, 64
1, 5516, Note_on_c, 0, 34, 54
1, 5522, Note_on_c, 0, 41, 39
1, 5524, Note_on_c, 0, 50, 47
1, 5526, Note_on_c, 0, 46, 42
1, 5543, Note_off_c, 0, 34, 60
1, 5554, Note_off_c, 0, 46, 51
1, 5557, Note_off_c, 0, 50, 62
1, 5559, Note_off_c, 0, 41, 52
1, 5639, Note_on_c, 0, 34, 55
1, 5641, Note_on_c, 0, 46, 57
1, 5644, Note_on_c, 0, 41, 52
1, 5650, Note_on_c, 0, 50, 57
1, 5668, Note_off_c, 0, 34, 61
1, 5675, Note_off_c, 0, 41, 55
1, 5677, Note_off_c, 0, 46, 63
1, 5686, Note_off_c, 0, 50, 63
1, 5761, Note_on_c, 0, 34, 55
1, 5766, Note_on_c, 0, 41, 46
1, 5766, Note_on_c, 0, 46, 55
1, 5774, Note_on_c, 0, 50, 50
1, 5789, Note_off_c, 0, 34, 62
1, 5795, Note_off_c, 0, 46, 62
1, 5798, Note_off_c, 0, 41, 51
1, 5805, Note_off_c, 0, 50, 64
1, 5882, Note_on_c, 0, 46, 59
1, 5886, Note_on_c, 0, 34, 55
1, 5897, Note_on_c, 0, 41, 38
1, 5899, Note_on_c, 0, 50, 52
1, 5915, Note_off_c, 0, 34, 59
1, 5921, Note_off_c, 0, 46, 63
1, 5931, Note_off_c, 0, 50, 65
1, 5934, Note_off_c, 0, 41, 52
1, 6009, Note_on_c, 0, 46, 59
1, 6011, Note_on_c, 0, 34, 55
1, 6019, Note_on_c, 0, 41, 46
1, 6023, Note_on_c, 0, 50, 51
1, 6038, Note_off_c, 0, 34, 60
1, 6043, Note_off_c, 0, 46, 63
1, 6053, Note_off_c, 0, 41, 54
1, 6054, Note_off_c, 0, 50, 65
1, 6142, Note_on_c, 0, 34, 61
1, 6145, Note_on_c, 0, 46, 60
1, 6145, Note_on_c, 0, 41, 56
1, 6149, Note_on_c, 0, 50, 60
1, 6173, Note_off_c, 0, 34, 65
1, 6175, Note_off_c, 0, 41, 58
1, 6176, Note_off_c, 0, 46, 63
1, 6188, Note_off_c, 0, 50, 65
1, 6264, Note_on_c, 0, 34, 63
1, 6269, Note_on_c, 0, 46, 57
1, 6273, Note_on_c, 0, 50, 58
1, 6276, Note_on_c, 0, 41, 40
1, 6296, Note_off_c, 0, 34, 64
1, 6303, Note_off_c, 0, 46, 64
1, 6308, Note_off_c, 0, 50, 63
1, 6312, Note_off_c, 0, 41, 51
1, 6393, Note_on_c, 0, 50, 62
1, 6393, Note_on_c, 0, 34, 57
1, 6399, Note_on_c, 0, 46, 51
1, 6405, Note_on_c, 0, 41, 39
1, 6421, Note_off_c, 0, 34, 62
1, 6427, Note_off_c, 0, 46, 60
1, 6431, Note_off_c, 0, 50, 64
1, 6443, Note_off_c, 0, 41, 55
1, 6512, Note_on_c, 0, 34, 61
1, 6522, Note_on_c, 0, 46, 53
1, 6524, Note_on_c, 0, 50, 54
1, 6526, Note_on_c, 0, 41, 46
1, 6542, Note_off_c, 0, 34, 63
1, 6554, Note_off_c, 0, 46, 62
1, 6560, Note_off_c, 0, 41, 55
1, 6560, Note_off_c, 0, 50, 64
1, 6633, Note_on_c, 0, 34, 62
1, 6640, Note_on_c, 0, 41, 56
1, 6643, Note_on_c, 0, 46, 59
1, 6651, Note_on_c, 0, 50, 58
1, 6664, Note_off_c, 0, 34, 65
1, 6668, Note_off_c, 0, 41, 59
1, 6670, Note_off_c, 0, 46, 59
1, 6684, Note_off_c, 0, 50, 64
1, 6748, Note_on_c, 0, 46, 64
1, 6753, Note_on_c, 0, 34, 62
1, 6756, Note_on_c, 0, 41, 53
1, 6761, Note_on_c, 0, 50, 63
1, 6783, Note_off_c, 0, 34, 64
1, 6785, Note_off_c, 0, 41, 59
1, 6786, Note_off_c, 0, 46, 60
1, 6799, Note_off_c, 0, 50, 62
1, 6871, Note_on_c, 0, 34, 59
1, 6887, Note_on_c, 0, 52, 69
1, 6899, Note_on_c, 0, 48, 52
1, 6908, Note_on_c, 0, 43, 24
1, 6908, Note_off_c, 0, 34, 64
1, 6923, Note_off_c, 0, 52, 62
1, 6924, Note_off_c, 0, 48, 59
1, 6953, Note_off_c, 0, 43, 29
1, 6994, Note_on_c, 0, 34, 58
1, 6998, Note_on_c, 0, 52, 73
1, 7004, Note_on_c, 0, 48, 60
1, 7026, Note_off_c, 0, 34, 61
1, 7037, Note_off_c, 0, 48, 63
1, 7041, Note_off_c, 0, 52, 67
1, 7119, Note_on_c, 0, 53, 68
1, 7126, Note_on_c, 0, 33, 54
1, 7128, Note_on_c, 0, 48, 57
1, 7129, Note_on_c, 0, 41, 47
1, 7155, Note_off_c, 0, 33, 62
1, 7162, Note_off_c, 0, 41, 53
1, 7244, Note_on_c, 0, 33, 60
1, 7244, Note_on_c, 0, 41, 61
1, 7276, Note_off_c, 0, 33, 66
1, 7277, Note_off_c, 0, 41, 66
1, 7367, Note_on_c, 0, 41, 61
1, 7375, Note_on_c, 0, 33, 57
1, 7400, Note_off_c, 0, 41, 65
1, 7401, Note_off_c, 0, 33, 61
1, 7473, Note_off_c, 0, 53, 62
1, 7504, Note_on_c, 0, 33, 53
1, 7506, Note_on_c, 0, 41, 57
1, 7520, Note_on_c, 0, 57, 46
1, 7534, Note_off_c, 0, 41, 62
1, 7536, Note_off_c, 0, 33, 65
1, 7550, Note_on_c, 0, 55, 60
1, 7552, Note_off_c, 0, 57, 57
1, 7558, Note_off_c, 0, 48, 44
1, 7600, Note_on_c, 0, 53, 60
1, 7605, Note_off_c, 0, 55, 62
1, 7632, Note_on_c, 0, 41, 59
1, 7635, Note_on_c, 0, 33, 61
1, 7663, Note_off_c, 0, 41, 66
1, 7665, Note_off_c, 0, 53, 64
1, 7666, Note_off_c, 0, 33, 64
1, 7758, Note_on_c, 0, 41, 62
1, 7759, Note_on_c, 0, 33, 63
1, 7788, Note_off_c, 0, 33, 65
1, 7791, Note_off_c, 0, 41, 66
1, 7880, Note_on_c, 0, 33, 62
1, 7884, Note_on_c, 0, 41, 54
1, 7911, Note_off_c, 0, 33, 64
1, 7913, Note_off_c, 0, 41, 61
1, 7998, Note_on_c, 0, 33, 63
1, 8000, Note_on_c, 0, 41, 47
1, 8031, Note_off_c, 0, 41, 54
1, 8035, Note_off_c, 0, 33, 67
1, 8081, Note_on_c, 0, 83, 66
1, 8098, Control_c, 0, 64, 21
1, 8113, Control_c, 0, 64, 28
1, 8115, Note_on_c, 0, 41, 50
1, 8116, Note_on_c, 0, 32, 58
1, 8120, Note_on_c, 0, 84, 67
1, 8128, Control_c, 0, 64, 32
1, 8139, Note_off_c, 0, 83, 59
1, 8142, Control_c, 0, 64, 36
1, 8144, Note_off_c, 0, 32, 59
1, 8147, Note_off_c, 0, 41, 56
1, 8157, Control_c, 0, 64, 39
1, 8172, Control_c, 0, 64, 41
1, 8186, Control_c, 0, 64, 42
1, 8201, Control_c, 0, 64, 44
1, 8216, Control_c, 0, 64, 44
1, 8223, Note_on_c, 0, 32, 64
1, 8237, Note_on_c, 0, 41, 44
1, 8254, Note_off_c, 0, 32, 63
1, 8271, Note_off_c, 0, 41, 53
1, 8354, Note_on_c, 0, 32, 58
1, 8363, Note_on_c, 0, 41, 43
1, 8393, Note_off_c, 0, 32, 63
1, 8407, Note_off_c, 0, 41, 52
1, 8416, Note_on_c, 0, 82, 60
1, 8447, Note_off_c, 0, 84, 49
1, 8478, Note_on_c, 0, 80, 68
1, 8482, Note_on_c, 0, 32, 63
1, 8489, Note_on_c, 0, 41, 52
1, 8514, Note_off_c, 0, 32, 62
1, 8516, Note_off_c, 0, 82, 61
1, 8518, Note_off_c, 0, 41, 59
1, 8526, Note_off_c, 0, 80, 65
1, 8537, Note_on_c, 0, 79, 59
1, 8572, Note_off_c, 0, 79, 47
1, 8599, Note_on_c, 0, 32, 69
1, 8601, Note_on_c, 0, 77, 71
1, 8603, Note_on_c, 0, 41, 56
1, 8629, Note_off_c, 0, 32, 63
1, 8631, Note_off_c, 0, 41, 60
1, 8683, Control_c, 0, 64, 45
1, 8698, Control_c, 0, 64, 45
1, 8712, Note_off_c, 0, 77, 61
1, 8713, Control_c, 0, 64, 46
1, 8725, Note_on_c, 0, 32, 67
1, 8727, Note_on_c, 0, 41, 60
1, 8728, Control_c, 0, 64, 47
1, 8743, Control_c, 0, 64, 47
1, 8758, Control_c, 0, 64, 48
1, 8760, Note_off_c, 0, 32, 62
1, 8760, Note_off_c, 0, 41, 66
1, 8773, Control_c, 0, 64, 49
1, 8788, Control_c, 0, 64, 50
1, 8803, Control_c, 0, 64, 51
1, 8817, Control_c, 0, 64, 51
1, 8841, Note_on_c, 0, 32, 75
1, 8843, Note_on_c, 0, 41, 68
1, 8874, Note_off_c, 0, 41, 66
1, 8875, Note_off_c, 0, 32, 65
1, 8891, Control_c, 0, 64, 52
1, 8936, Control_c, 0, 64, 53
1, 8951, Note_on_c, 0, 32, 80
1, 8951, Control_c, 0, 64, 53
1, 8953, Note_on_c, 0, 41, 66
1, 8965, Control_c, 0, 64, 54
1, 8980, Control_c, 0, 64, 55
1, 8988, Note_off_c, 0, 41, 67
1, 8989, Note_off_c, 0, 32, 62
1, 8995, Control_c, 0, 64, 55
1, 9051, Note_on_c, 0, 88, 70
1, 9070, Control_c, 0, 64, 54
1, 9074, Note_on_c, 0, 41, 68
1, 9078, Note_on_c, 0, 89, 92
1, 9081, Note_on_c, 0, 31, 69
1, 9084, Control_c, 0, 64, 53
1, 9099, Note_off_c, 0, 88, 62
1, 9099, Control_c, 0, 64, 51
1, 9111, Note_off_c, 0, 41, 65
1, 9114, Control_c, 0, 64, 51
1, 9123, Note_off_c, 0, 31, 63
1, 9137, Control_c, 0, 64, 50
1, 9152, Control_c, 0, 64, 50
1, 9167, Control_c, 0, 64, 49
1, 9181, Control_c, 0, 64, 48
1, 9216, Note_on_c, 0, 31, 72
1, 9221, Note_on_c, 0, 41, 53
1, 9244, Note_off_c, 0, 31, 64
1, 9250, Note_off_c, 0, 41, 60
1, 9255, Control_c, 0, 64, 46
1, 9270, Control_c, 0, 64, 39
1, 9285, Control_c, 0, 64, 33
1, 9300, Control_c, 0, 64, 30
1, 9314, Control_c, 0, 64, 29
1, 9338, Note_on_c, 0, 31, 67
1, 9344, Control_c, 0, 64, 28
1, 9353, Note_on_c, 0, 41, 42
1, 9359, Control_c, 0, 64, 26
1, 9369, Note_off_c, 0, 31, 64
1, 9374, Control_c, 0, 64, 25
1, 9386, Note_off_c, 0, 41, 52
1, 9388, Control_c, 0, 64, 24
1, 9418, Control_c, 0, 64, 27
1, 9433, Control_c, 0, 64, 31
1, 9448, Control_c, 0, 64, 34
1, 9454, Note_on_c, 0, 31, 62
1, 9463, Control_c, 0, 64, 38
1, 9471, Note_on_c, 0, 41, 43
1, 9478, Control_c, 0, 64, 39
1, 9486, Note_off_c, 0, 31, 64
1, 9493, Control_c, 0, 64, 41
1, 9507, Control_c, 0, 64, 43
1, 9508, Note_off_c, 0, 41, 52
1, 9552, Control_c, 0, 64, 43
1, 9567, Control_c, 0, 64, 44
1, 9570, Note_on_c, 0, 31, 65
1, 9581, Control_c, 0, 64, 45
1, 9591, Note_on_c, 0, 41, 44
1, 9596, Control_c, 0, 64, 47
1, 9606, Note_off_c, 0, 31, 64
1, 9611, Control_c, 0, 64, 48
1, 9626, Control_c, 0, 64, 48
1, 9626, Note_off_c, 0, 41, 55
1, 9670, Control_c, 0, 64, 49
1, 9681, Note_off_c, 0, 89, 64
1, 9685, Control_c, 0, 64, 50
1, 9692, Note_on_c, 0, 31, 72
1, 9700, Control_c, 0, 64, 51
1, 9706, Note_on_c, 0, 41, 49
1, 9714, Control_c, 0, 64, 52
1, 9729, Note_off_c, 0, 31, 62
1, 9729, Control_c, 0, 64, 52
1, 9737, Note_off_c, 0, 41, 57
1, 9744, Control_c, 0, 64, 53
1, 9774, Control_c, 0, 64, 52
1, 9788, Control_c, 0, 64, 51
1, 9803, Control_c, 0, 64, 47
1, 9805, Note_on_c, 0, 41, 72
1, 9806, Note_on_c, 0, 89, 66
1, 9807, Note_on_c, 0, 32, 79
1, 9818, Control_c, 0, 64, 44
1, 9833, Control_c, 0, 64, 40
1, 9839, Note_off_c, 0, 41, 66
1, 9844, Note_off_c, 0, 32, 64
1, 9846, Note_on_c, 0, 87, 65
1, 9848, Control_c, 0, 64, 39
1, 9862, Control_c, 0, 64, 36
1, 9885, Control_c, 0, 64, 25
1, 9898, Note_off_c, 0, 89, 56
1, 9900, Control_c, 0, 64, 0
1, 9923, Note_on_c, 0, 32, 72
1, 9923, Note_on_c, 0, 41, 62
1, 9924, Note_on_c, 0, 86, 70
1, 9938, Note_off_c, 0, 87, 60
1, 9945, Control_c, 0, 64, 13
1, 9957, Note_off_c, 0, 41, 67
1, 9959, Note_off_c, 0, 32, 65
1, 9960, Control_c, 0, 64, 25
1, 9968, Note_off_c, 0, 86, 61
1, 9975, Control_c, 0, 64, 32
1, 9982, Note_on_c, 0, 84, 69
1, 9990, Control_c, 0, 64, 37
1, 10004, Control_c, 0, 64, 40
1, 10004, Control_c, 0, 67, 110
1, 10012, Note_off_c, 0, 84, 67
1, 10019, Control_c, 0, 64, 41
1, 10019, Control_c, 0, 67, 59
1, 10032, Note_on_c, 0, 83, 65
1, 10034, Control_c, 0, 64, 28
1, 10034, Control_c, 0, 67, 10
1, 10045, Note_on_c, 0, 41, 78
1, 10049, Control_c, 0, 64, 0
1, 10049, Control_c, 0, 67, 0
1, 10051, Note_on_c, 0, 31, 77
1, 10068, Note_off_c, 0, 83, 52
1, 10077, Note_off_c, 0, 41, 65
1, 10084, Note_off_c, 0, 31, 62
1, 10097, Note_on_c, 0, 84, 78
1, 10140, Note_off_c, 0, 84, 65
1, 10151, Note_on_c, 0, 86, 70
1, 10159, Note_on_c, 0, 41, 72
1, 10162, Note_on_c, 0, 31, 76
1, 10193, Note_off_c, 0, 41, 66
1, 10199, Note_on_c, 0, 87, 72
1, 10199, Note_off_c, 0, 31, 65
1, 10202, Note_off_c, 0, 86, 60
1, 10256, Note_off_c, 0, 87, 63
1, 10268, Note_on_c, 0, 89, 79
1, 10275, Note_on_c, 0, 41, 81
1, 10280, Note_on_c, 0, 32, 89
1, 10312, Note_off_c, 0, 41, 68
1, 10316, Note_off_c, 0, 32, 62
1, 10327, Note_on_c, 0, 87, 53
1, 10380, Note_on_c, 0, 86, 73
1, 10386, Note_on_c, 0, 32, 87
1, 10386, Note_off_c, 0, 89, 63
1, 10392, Note_on_c, 0, 41, 79
1, 10406, Note_off_c, 0, 87, 63
1, 10421, Note_off_c, 0, 41, 69
1, 10424, Note_off_c, 0, 32, 62
1, 10436, Note_on_c, 0, 84, 78
1, 10436, Note_off_c, 0, 86, 63
1, 10480, Note_off_c, 0, 84, 63
1, 10496, Note_on_c, 0, 83, 68
1, 10507, Note_on_c, 0, 41, 89
1, 10512, Note_on_c, 0, 31, 94
1, 10536, Note_off_c, 0, 83, 60
1, 10545, Note_on_c, 0, 32, 35
1, 10548, Note_off_c, 0, 31, 62
1, 10550, Note_off_c, 0, 41, 66
1, 10562, Note_on_c, 0, 84, 77
1, 10587, Note_off_c, 0, 32, 33
1, 10602, Note_off_c, 0, 84, 62
1, 10631, Note_on_c, 0, 86, 65
1, 10635, Note_on_c, 0, 31, 88
1, 10635, Note_on_c, 0, 41, 91
1, 10670, Note_off_c, 0, 31, 63
1, 10671, Note_off_c, 0, 41, 67
1, 10673, Note_on_c, 0, 87, 79
1, 10677, Note_off_c, 0, 86, 62
1, 10744, Note_off_c, 0, 87, 63
1, 10748, Note_on_c, 0, 89, 83
1, 10754, Note_on_c, 0, 41, 95
1, 10757, Note_on_c, 0, 32, 88
1, 10768, Control_c, 0, 64, 19
1, 10783, Control_c, 0, 64, 0
1, 10792, Note_off_c, 0, 41, 65
1, 10795, Note_off_c, 0, 32, 61
1, 10801, Note_on_c, 0, 87, 58
1, 10862, Note_on_c, 0, 32, 89
1, 10866, Note_on_c, 0, 41, 82
1, 10869, Note_on_c, 0, 86, 76
1, 10872, Note_off_c, 0, 89, 58
1, 10895, Note_off_c, 0, 41, 68
1, 10897, Note_off_c, 0, 32, 63
1, 10900, Note_off_c, 0, 87, 63
1, 10921, Note_on_c, 0, 84, 81
1, 10921, Note_off_c, 0, 86, 65
1, 10957, Note_off_c, 0, 84, 66
1, 10986, Note_on_c, 0, 83, 81
1, 10987, Note_on_c, 0, 41, 102
1, 10992, Note_on_c, 0, 31, 93
1, 11004, Control_c, 0, 64, 95
1, 11014, Note_off_c, 0, 31, 71
1, 11019, Control_c, 0, 64, 127
1, 11022, Note_off_c, 0, 41, 66
1, 11034, Control_c, 0, 64, 98
1, 11040, Note_off_c, 0, 83, 60
1, 11049, Control_c, 0, 64, 70
1, 11054, Note_on_c, 0, 84, 89
1, 11064, Control_c, 0, 64, 0
1, 11117, Note_on_c, 0, 86, 81
1, 11118, Note_off_c, 0, 84, 63
1, 11178, Note_on_c, 0, 87, 81
1, 11180, Note_off_c, 0, 86, 63
1, 11228, Note_off_c, 0, 87, 65
1, 11258, Note_on_c, 0, 89, 101
1, 11266, Note_on_c, 0, 55, 110
1, 11270, Note_on_c, 0, 43, 100
1, 11300, Control_c, 0, 64, 123
1, 11315, Control_c, 0, 64, 127
1, 11332, Note_on_c, 0, 87, 85
1, 11407, Note_on_c, 0, 86, 79
1, 11447, Note_off_c, 0, 87, 63
1, 11452, Note_off_c, 0, 89, 61
1, 11471, Note_off_c, 0, 86, 65
1, 11472, Note_on_c, 0, 84, 85
1, 11497, Note_off_c, 0, 84, 65
1, 11514, Note_off_c, 0, 43, 59
1, 11534, Note_on_c, 0, 83, 80
1, 11594, Note_on_c, 0, 80, 87
1, 11647, Note_off_c, 0, 83, 57
1, 11650, Note_on_c, 0, 79, 82
1, 11682, Note_off_c, 0, 80, 63
1, 11703, Note_on_c, 0, 77, 81
1, 11704, Note_off_c, 0, 79, 65
1, 11762, Note_off_c, 0, 77, 61
1, 11764, Note_on_c, 0, 75, 80
1, 11803, Note_off_c, 0, 55, 37
1, 11828, Note_on_c, 0, 74, 70
1, 11842, Control_c, 0, 64, 105
1, 11851, Note_off_c, 0, 75, 63
1, 11857, Control_c, 0, 64, 83
1, 11860, Note_on_c, 0, 76, 24
1, 11864, Note_on_c, 0, 57, 67
1, 11872, Control_c, 0, 64, 58
1, 11880, Note_off_c, 0, 74, 62
1, 11884, Note_on_c, 0, 72, 81
1, 11887, Control_c, 0, 64, 0
1, 11893, Note_off_c, 0, 76, 36
1, 11924, Note_off_c, 0, 72, 66
1, 11925, Note_off_c, 0, 57, 58
1, 11932, Note_on_c, 0, 59, 76
1, 11940, Note_on_c, 0, 71, 86
1, 11969, Note_off_c, 0, 71, 0
1, 11988, Note_on_c, 0, 72, 99
1, 11990, Note_on_c, 0, 60, 89
1, 11994, Note_off_c, 0, 59, 62
1, 12004, Poly_aftertouch_c, 0, 71, 0
1, 12006, Control_c, 0, 64, 31
1, 12020, Control_c, 0, 64, 0
1, 12021, Note_off_c, 0, 60, 65
1, 12021, Note_off_c, 0, 72, 67
1, 12263, Note_on_c, 0, 43, 78
1, 12263, Note_on_c, 0, 67, 91
1, 12268, Note_on_c, 0, 55, 68
1, 12280, Control_c, 0, 64, 62
1, 12289, Note_off_c, 0, 55, 66
1, 12289, Note_off_c, 0, 43, 63
1, 12295, Control_c, 0, 64, 0
1, 12307, Note_off_c, 0, 67, 61
1, 12519, Note_on_c, 0, 63, 80
1, 12544, Note_on_c, 0, 39, 60
1, 12560, Note_off_c, 0, 63, 62
1, 12569, Note_on_c, 0, 51, 25
1, 12570, Note_off_c, 0, 51, 127
1, 12572, Note_off_c, 0, 39, 60
1, 12794, Note_on_c, 0, 60, 73
1, 12802, Note_on_c, 0, 36, 57
1, 12822, Note_off_c, 0, 60, 65
1, 12828, Note_on_c, 0, 48, 7
1, 12829, Note_off_c, 0, 48, 127
1, 12834, Note_off_c, 0, 36, 64
1, 13175, Note_on_c, 0, 55, 46
1, 13192, Note_on_c, 0, 43, 28
1, 13197, Note_on_c, 0, 31, 32
1, 13237, Control_c, 0, 64, 10
1, 13267, Control_c, 0, 64, 0
1, 13311, Control_c, 0, 64, 18
1, 13326, Control_c, 0, 64, 21
1, 13355, Control_c, 0, 64, 18
1, 13370, Control_c, 0, 64, 0
1, 13733, Control_c, 0, 64, 10
1, 13748, Control_c, 0, 64, 25
1, 13762, Control_c, 0, 64, 31
1, 13777, Control_c, 0, 64, 34
1, 13792, Control_c, 0, 64, 38
1, 13806, Control_c, 0, 64, 39
1, 13821, Control_c, 0, 64, 40
1, 13836, Control_c, 0, 64, 41
1, 13851, Control_c, 0, 64, 41
1, 13866, Control_c, 0, 64, 42
1, 13881, Control_c, 0, 64, 43
1, 13896, Control_c, 0, 64, 43
1, 13926, Control_c, 0, 64, 44
1, 13941, Control_c, 0, 64, 44
1, 13956, Control_c, 0, 64, 46
1, 13970, Control_c, 0, 64, 47
1, 13985, Control_c, 0, 64, 49
1, 14000, Control_c, 0, 64, 50
1, 14030, Control_c, 0, 64, 50
1, 14089, Control_c, 0, 64, 51
1, 14104, Control_c, 0, 64, 52
1, 14119, Control_c, 0, 64, 54
1, 14134, Control_c, 0, 64, 55
1, 14149, Control_c, 0, 64, 56
1, 14178, Control_c, 0, 64, 56
1, 14193, Control_c, 0, 64, 57
1, 14208, Control_c, 0, 64, 59
1, 14222, Control_c, 0, 64, 60
1, 14237, Control_c, 0, 64, 60
1, 14252, Control_c, 0, 64, 61
1, 14311, Control_c, 0, 64, 62
1, 14326, Control_c, 0, 64, 63
1, 14341, Control_c, 0, 64, 64
1, 14356, Control_c, 0, 64, 65
1, 14356, Control_c, 0, 67, 8
1, 14378, Control_c, 0, 64, 67
1, 14378, Control_c, 0, 67, 13
1, 14393, Control_c, 0, 64, 70
1, 14393, Control_c, 0, 67, 21
1, 14408, Control_c, 0, 64, 73
1, 14408, Control_c, 0, 67, 32
1, 14423, Control_c, 0, 64, 76
1, 14423, Control_c, 0, 67, 45
1, 14437, Control_c, 0, 64, 78
1, 14437, Control_c, 0, 67, 61
1, 14452, Control_c, 0, 64, 78
1, 14452, Control_c, 0, 67, 78
1, 14467, Control_c, 0, 64, 79
1, 14467, Control_c, 0, 67, 97
1, 14482, Control_c, 0, 64, 79
1, 14482, Control_c, 0, 67, 116
1, 14497, Control_c, 0, 64, 80
1, 14497, Control_c, 0, 67, 127
1, 14511, Control_c, 0, 64, 80
1, 14526, Control_c, 0, 64, 82
1, 14541, Control_c, 0, 64, 83
1, 14556, Control_c, 0, 64, 84
1, 14571, Control_c, 0, 64, 86
1, 14585, Control_c, 0, 64, 87
1, 14600, Control_c, 0, 64, 87
1, 14615, Control_c, 0, 64, 88
1, 14629, Control_c, 0, 64, 89
1, 14644, Control_c, 0, 64, 90
1, 14650, Note_off_c, 0, 31, 38
1, 14659, Control_c, 0, 64, 91
1, 14674, Control_c, 0, 64, 92
1, 14689, Control_c, 0, 64, 92
1, 14690, Note_off_c, 0, 55, 41
1, 14705, Control_c, 0, 64, 93
1, 14719, Control_c, 0, 64, 93
1, 14799, Note_off_c, 0, 43, 39
1, 14942, Control_c, 0, 64, 93
1, 14957, Control_c, 0, 64, 92
1, 14972, Control_c, 0, 64, 92
1, 14987, Control_c, 0, 64, 91
1, 15001, Control_c, 0, 64, 91
1, 15016, Control_c, 0, 64, 90
1, 15031, Control_c, 0, 64, 89
1, 15045, Control_c, 0, 64, 88
1, 15060, Control_c, 0, 64, 86
1, 15075, Control_c, 0, 64, 84
1, 15090, Control_c, 0, 64, 82
1, 15105, Control_c, 0, 64, 79
1, 15127, Control_c, 0, 64, 76
1, 15142, Control_c, 0, 64, 69
1, 15157, Control_c, 0, 64, 53
1, 15171, Control_c, 0, 64, 0
1, 15305, Control_c, 0, 64, 48
1, 15320, Control_c, 0, 64, 62
1, 15334, Control_c, 0, 64, 65
1, 15349, Control_c, 0, 64, 66
1, 15364, Control_c, 0, 64, 67
1, 15378, Control_c, 0, 64, 69
1, 15393, Control_c, 0, 64, 71
1, 15396, Note_on_c, 0, 36, 54
1, 15407, Note_on_c, 0, 64, 49
1, 15408, Control_c, 0, 64, 73
1, 15409, Note_on_c, 0, 48, 48
1, 15423, Control_c, 0, 64, 74
1, 15425, Note_off_c, 0, 36, 54
1, 15438, Note_off_c, 0, 48, 58
1, 15452, Control_c, 0, 64, 74
1, 15454, Note_off_c, 0, 64, 59
1, 15490, Note_on_c, 0, 60, 48
1, 15524, Note_off_c, 0, 60, 50
1, 15528, Control_c, 0, 64, 74
1, 15557, Control_c, 0, 64, 72
1, 15563, Note_on_c, 0, 48, 44
1, 15566, Note_on_c, 0, 64, 59
1, 15572, Control_c, 0, 64, 68
1, 15587, Control_c, 0, 64, 54
1, 15600, Note_off_c, 0, 48, 54
1, 15601, Control_c, 0, 64, 0
1, 15606, Note_off_c, 0, 64, 64
1, 15629, Note_on_c, 0, 60, 52
1, 15656, Note_on_c, 0, 55, 34
1, 15669, Note_off_c, 0, 60, 62
1, 15687, Note_off_c, 0, 55, 53
1, 15699, Note_on_c, 0, 48, 48
1, 15708, Note_on_c, 0, 64, 52
1, 15737, Note_off_c, 0, 64, 62
1, 15739, Note_off_c, 0, 48, 51
1, 15763, Note_on_c, 0, 60, 57
1, 15772, Note_on_c, 0, 55, 53
1, 15797, Note_off_c, 0, 60, 63
1, 15809, Note_off_c, 0, 55, 63
1, 15828, Note_on_c, 0, 64, 53
1, 15857, Note_on_c, 0, 48, 20
1, 15862, Note_off_c, 0, 64, 64
1, 15890, Note_on_c, 0, 60, 60
1, 15906, Note_on_c, 0, 55, 51
1, 15910, Note_off_c, 0, 48, 39
1, 15925, Note_off_c, 0, 60, 60
1, 15937, Note_off_c, 0, 55, 58
1, 15961, Note_on_c, 0, 48, 38
1, 15963, Note_on_c, 0, 64, 51
1, 15994, Note_off_c, 0, 64, 59
1, 15997, Note_off_c, 0, 48, 57
1, 16015, Note_on_c, 0, 60, 54
1, 16036, Note_on_c, 0, 55, 47
1, 16053, Note_off_c, 0, 60, 63
1, 16065, Note_off_c, 0, 55, 57
1, 16090, Note_on_c, 0, 64, 41
1, 16107, Note_on_c, 0, 48, 33
1, 16117, Note_off_c, 0, 64, 57
1, 16140, Note_on_c, 0, 60, 56
1, 16145, Note_off_c, 0, 48, 47
1, 16156, Note_on_c, 0, 55, 54
1, 16176, Note_off_c, 0, 60, 64
1, 16191, Note_off_c, 0, 55, 64
1, 16207, Note_on_c, 0, 64, 49
1, 16222, Note_on_c, 0, 48, 35
1, 16236, Note_off_c, 0, 64, 59
1, 16263, Note_off_c, 0, 48, 49
1, 16264, Note_on_c, 0, 60, 56
1, 16283, Note_on_c, 0, 55, 44
1, 16300, Note_off_c, 0, 60, 64
1, 16316, Note_off_c, 0, 55, 57
1, 16332, Note_on_c, 0, 64, 50
1, 16349, Note_on_c, 0, 48, 38
1, 16368, Note_off_c, 0, 64, 63
1, 16390, Note_off_c, 0, 48, 48
1, 16394, Note_on_c, 0, 60, 56
1, 16412, Note_on_c, 0, 55, 49
1, 16430, Note_off_c, 0, 60, 63
1, 16443, Note_off_c, 0, 55, 56
1, 16465, Note_on_c, 0, 64, 48
1, 16472, Note_on_c, 0, 48, 38
1, 16492, Note_off_c, 0, 64, 59
1, 16514, Note_off_c, 0, 48, 47
1, 16516, Note_on_c, 0, 60, 60
1, 16536, Note_on_c, 0, 55, 51
1, 16555, Note_off_c, 0, 60, 59
1, 16567, Note_off_c, 0, 55, 65
1, 16584, Note_on_c, 0, 64, 54
1, 16598, Note_on_c, 0, 48, 42
1, 16629, Note_off_c, 0, 64, 64
1, 16646, Note_off_c, 0, 48, 51
1, 16661, Note_on_c, 0, 60, 53
1, 16674, Note_on_c, 0, 55, 48
1, 16697, Note_off_c, 0, 60, 62
1, 16702, Note_off_c, 0, 55, 56
1, 16728, Note_on_c, 0, 48, 49
1, 16729, Note_on_c, 0, 64, 51
1, 16766, Note_off_c, 0, 64, 65
1, 16770, Note_off_c, 0, 48, 59
1, 16784, Note_on_c, 0, 60, 61
1, 16796, Note_on_c, 0, 55, 49
1, 16824, Note_off_c, 0, 60, 59
1, 16829, Note_off_c, 0, 55, 63
1, 16855, Note_on_c, 0, 48, 46
1, 16858, Note_on_c, 0, 64, 60
1, 16897, Note_off_c, 0, 64, 64
1, 16902, Note_off_c, 0, 48, 57
1, 16923, Note_on_c, 0, 60, 62
1, 16927, Note_on_c, 0, 55, 50
1, 16956, Note_off_c, 0, 55, 57
1, 16961, Note_off_c, 0, 60, 60
1, 16981, Note_on_c, 0, 48, 41
1, 16994, Note_on_c, 0, 64, 56
1, 17026, Note_off_c, 0, 48, 57
1, 17028, Note_off_c, 0, 64, 65
1, 17041, Note_on_c, 0, 60, 63
1, 17047, Note_on_c, 0, 55, 53
1, 17082, Note_off_c, 0, 55, 65
1, 17082, Note_off_c, 0, 60, 61
1, 17109, Note_on_c, 0, 64, 62
1, 17110, Note_on_c, 0, 48, 42
1, 17149, Note_off_c, 0, 48, 60
1, 17154, Note_off_c, 0, 64, 62
1, 17169, Note_on_c, 0, 60, 63
1, 17180, Note_on_c, 0, 55, 48
1, 17202, Note_off_c, 0, 60, 60
1, 17207, Note_off_c, 0, 55, 59
1, 17233, Note_on_c, 0, 66, 71
1, 17240, Note_on_c, 0, 48, 54
1, 17270, Note_off_c, 0, 48, 65
1, 17276, Note_off_c, 0, 66, 63
1, 17288, Note_on_c, 0, 62, 66
1, 17309, Note_on_c, 0, 57, 49
1, 17333, Note_off_c, 0, 62, 61
1, 17336, Note_off_c, 0, 57, 57
1, 17345, Note_on_c, 0, 66, 63
1, 17356, Note_on_c, 0, 48, 60
1, 17398, Note_off_c, 0, 48, 65
1, 17422, Note_on_c, 0, 57, 54
1, 17425, Note_on_c, 0, 62, 70
1, 17432, Note_off_c, 0, 66, 61
1, 17449, Note_off_c, 0, 57, 57
1, 17483, Note_off_c, 0, 62, 58
1, 17497, Note_on_c, 0, 67, 71
1, 17505, Note_on_c, 0, 47, 50
1, 17524, Note_on_c, 0, 50, 29
1, 17550, Note_off_c, 0, 47, 54
1, 17556, Note_off_c, 0, 50, 53
1, 17565, Note_on_c, 0, 55, 53
1, 17607, Note_off_c, 0, 55, 64
1, 17633, Note_on_c, 0, 47, 48
1, 17640, Note_on_c, 0, 50, 48
1, 17672, Note_off_c, 0, 50, 60
1, 17673, Note_off_c, 0, 47, 57
1, 17701, Note_on_c, 0, 55, 53
1, 17741, Note_off_c, 0, 55, 63
1, 17768, Note_on_c, 0, 47, 53
1, 17768, Note_on_c, 0, 50, 51
1, 17801, Note_off_c, 0, 50, 57
1, 17821, Note_off_c, 0, 47, 56
1, 17830, Note_on_c, 0, 55, 58
1, 17871, Note_off_c, 0, 55, 62
1, 17901, Note_off_c, 0, 67, 62
1, 17910, Note_on_c, 0, 50, 46
1, 17911, Note_on_c, 0, 47, 37
1, 17913, Note_on_c, 0, 71, 60
1, 17940, Note_off_c, 0, 50, 57
1, 17955, Note_off_c, 0, 71, 52
1, 17956, Note_on_c, 0, 69, 63
1, 17963, Note_on_c, 0, 55, 60
1, 17976, Note_off_c, 0, 47, 40
1, 18000, Note_off_c, 0, 69, 66
1, 18005, Note_off_c, 0, 55, 62
1, 18016, Note_on_c, 0, 67, 61
1, 18030, Note_on_c, 0, 47, 42
1, 18033, Note_on_c, 0, 50, 53
1, 18059, Note_off_c, 0, 67, 63
1, 18066, Note_off_c, 0, 50, 54
1, 18084, Note_off_c, 0, 47, 53
1, 18097, Note_on_c, 0, 55, 64
1, 18143, Note_off_c, 0, 55, 64
1, 18163, Note_on_c, 0, 47, 43
1, 18170, Note_on_c, 0, 50, 51
1, 18201, Note_off_c, 0, 50, 59
1, 18216, Note_off_c, 0, 47, 58
1, 18234, Note_on_c, 0, 55, 64
1, 18278, Note_off_c, 0, 55, 64
1, 18289, Note_on_c, 0, 47, 58
1, 18291, Note_on_c, 0, 50, 65
1, 18325, Note_off_c, 0, 50, 62
1, 18346, Note_off_c, 0, 47, 55
1, 18366, Note_on_c, 0, 55, 51
1, 18412, Note_off_c, 0, 55, 63
1, 18419, Note_on_c, 0, 50, 49
1, 18436, Note_on_c, 0, 47, 37
1, 18468, Note_off_c, 0, 50, 55
1, 18487, Note_on_c, 0, 55, 53
1, 18491, Note_on_c, 0, 85, 68
1, 18525, Note_off_c, 0, 47, 0
1, 18534, Note_on_c, 0, 86, 84
1, 18535, Note_on_c, 0, 50, 41
1, 18535, Note_off_c, 0, 55, 61
1, 18540, Note_on_c, 0, 47, 44
1, 18546, Note_off_c, 0, 85, 67
1, 18583, Note_off_c, 0, 50, 60
1, 18600, Note_off_c, 0, 47, 56
1, 18611, Note_on_c, 0, 55, 56
1, 18657, Note_off_c, 0, 55, 62
1, 18675, Note_on_c, 0, 50, 45
1, 18695, Note_on_c, 0, 47, 20
1, 18712, Note_off_c, 0, 50, 52
1, 18736, Note_on_c, 0, 55, 60
1, 18748, Note_off_c, 0, 47, 48
1, 18796, Note_off_c, 0, 55, 60
1, 18820, Note_on_c, 0, 50, 44
1, 18826, Note_on_c, 0, 47, 37
1, 18849, Note_off_c, 0, 50, 55
1, 18879, Note_on_c, 0, 55, 47
1, 18879, Note_off_c, 0, 47, 51
1, 18908, Note_off_c, 0, 86, 55
1, 18915, Note_on_c, 0, 84, 54
1, 18924, Note_off_c, 0, 55, 63
1, 18949, Note_on_c, 0, 50, 53
1, 18963, Note_on_c, 0, 83, 58
1, 18968, Note_off_c, 0, 84, 59
1, 18975, Note_on_c, 0, 47, 36
1, 18981, Note_off_c, 0, 50, 56
1, 19006, Note_off_c, 0, 83, 57
1, 19014, Note_off_c, 0, 47, 53
1, 19019, Note_on_c, 0, 55, 60
1, 19026, Note_on_c, 0, 81, 64
1, 19059, Note_off_c, 0, 81, 59
1, 19061, Note_off_c, 0, 55, 64
1, 19078, Control_c, 0, 64, 10
1, 19083, Note_on_c, 0, 50, 51
1, 19092, Control_c, 0, 64, 13
1, 19093, Note_on_c, 0, 79, 62
1, 19100, Note_on_c, 0, 47, 41
1, 19107, Control_c, 0, 64, 19
1, 19122, Control_c, 0, 64, 24
1, 19129, Note_off_c, 0, 50, 55
1, 19137, Control_c, 0, 64, 28
1, 19139, Note_off_c, 0, 79, 62
1, 19150, Note_off_c, 0, 47, 46
1, 19151, Control_c, 0, 64, 30
1, 19156, Note_on_c, 0, 55, 55
1, 19196, Note_off_c, 0, 55, 64
1, 19214, Note_on_c, 0, 47, 43
1, 19217, Note_on_c, 0, 50, 54
1, 19240, Control_c, 0, 64, 31
1, 19255, Control_c, 0, 64, 33
1, 19257, Note_off_c, 0, 50, 63
1, 19270, Control_c, 0, 64, 34
1, 19278, Note_on_c, 0, 55, 62
1, 19284, Note_off_c, 0, 47, 53
1, 19285, Control_c, 0, 64, 36
1, 19320, Note_off_c, 0, 55, 65
1, 19337, Note_on_c, 0, 47, 34
1, 19339, Note_on_c, 0, 50, 62
1, 19344, Control_c, 0, 64, 36
1, 19359, Control_c, 0, 64, 37
1, 19374, Control_c, 0, 64, 39
1, 19377, Note_off_c, 0, 50, 63
1, 19389, Control_c, 0, 64, 40
1, 19404, Control_c, 0, 64, 41
1, 19404, Note_on_c, 0, 55, 57
1, 19418, Control_c, 0, 64, 41
1, 19433, Control_c, 0, 64, 42
1, 19441, Note_off_c, 0, 55, 66
1, 19458, Note_on_c, 0, 50, 56
1, 19482, Note_off_c, 0, 50, 59
1, 19491, Note_off_c, 0, 47, 56
1, 19517, Note_on_c, 0, 55, 65
1, 19523, Control_c, 0, 64, 42
1, 19553, Control_c, 0, 64, 43
1, 19568, Control_c, 0, 64, 43
1, 19570, Note_off_c, 0, 55, 61
1, 19582, Control_c, 0, 64, 45
1, 19584, Note_on_c, 0, 65, 68
1, 19597, Control_c, 0, 64, 47
1, 19601, Note_on_c, 0, 38, 66
1, 19603, Note_on_c, 0, 50, 62
1, 19619, Control_c, 0, 64, 49
1, 19633, Note_off_c, 0, 38, 58
1, 19634, Control_c, 0, 64, 51
1, 19638, Note_off_c, 0, 50, 66
1, 19649, Control_c, 0, 64, 53
1, 19650, Note_off_c, 0, 65, 64
1, 19664, Control_c, 0, 64, 54
1, 19672, Note_on_c, 0, 62, 59
1, 19679, Control_c, 0, 64, 55
1, 19693, Control_c, 0, 64, 57
1, 19708, Control_c, 0, 64, 57
1, 19714, Note_off_c, 0, 62, 62
1, 19723, Control_c, 0, 64, 58
1, 19729, Note_on_c, 0, 65, 49
1, 19768, Control_c, 0, 64, 57
1, 19768, Note_off_c, 0, 65, 67
1, 19770, Note_on_c, 0, 50, 41
1, 19783, Control_c, 0, 64, 54
1, 19797, Control_c, 0, 64, 41
1, 19802, Note_on_c, 0, 62, 59
1, 19809, Note_off_c, 0, 50, 63
1, 19812, Control_c, 0, 64, 13
1, 19817, Note_on_c, 0, 57, 54
1, 19827, Control_c, 0, 64, 0
1, 19839, Note_off_c, 0, 62, 61
1, 19860, Note_off_c, 0, 57, 60
1, 19863, Note_on_c, 0, 65, 61
1, 19887, Note_on_c, 0, 50, 48
1, 19911, Note_off_c, 0, 65, 62
1, 19923, Note_on_c, 0, 62, 58
1, 19926, Note_off_c, 0, 50, 61
1, 19950, Note_on_c, 0, 57, 50
1, 19971, Note_off_c, 0, 62, 57
1, 19979, Note_off_c, 0, 57, 56
1, 19998, Note_on_c, 0, 50, 43
1, 20004, Note_on_c, 0, 65, 55
1, 20039, Note_off_c, 0, 65, 67
1, 20039, Note_off_c, 0, 50, 61
1, 20054, Note_on_c, 0, 57, 63
1, 20056, Note_on_c, 0, 62, 58
1, 20096, Note_off_c, 0, 57, 60
1, 20098, Note_off_c, 0, 62, 62
1, 20121, Note_on_c, 0, 65, 59
1, 20123, Note_on_c, 0, 50, 55
1, 20155, Note_off_c, 0, 65, 59
1, 20162, Note_off_c, 0, 50, 62
1, 20180, Note_on_c, 0, 62, 62
1, 20189, Note_on_c, 0, 57, 55
1, 20218, Note_off_c, 0, 62, 60
1, 20226, Note_off_c, 0, 57, 62
1, 20250, Note_on_c, 0, 65, 52
1, 20254, Note_on_c, 0, 50, 54
1, 20287, Note_off_c, 0, 65, 62
1, 20293, Note_off_c, 0, 50, 60
1, 20309, Note_on_c, 0, 62, 61
1, 20311, Note_on_c, 0, 57, 54
1, 20346, Note_off_c, 0, 62, 62
1, 20368, Note_off_c, 0, 57, 60
1, 20384, Note_on_c, 0, 50, 50
1, 20389, Note_on_c, 0, 65, 52
1, 20419, Note_off_c, 0, 65, 58
1, 20426, Note_off_c, 0, 50, 60
1, 20445, Note_on_c, 0, 62, 59
1, 20446, Note_on_c, 0, 57, 51
1, 20486, Note_off_c, 0, 62, 60
1, 20488, Note_off_c, 0, 57, 62
1, 20504, Note_on_c, 0, 65, 61
1, 20510, Note_on_c, 0, 50, 53
1, 20543, Note_off_c, 0, 65, 63
1, 20546, Note_off_c, 0, 50, 61
1, 20565, Note_on_c, 0, 57, 59
1, 20568, Note_on_c, 0, 62, 63
1, 20607, Note_off_c, 0, 57, 60
1, 20616, Note_off_c, 0, 62, 57
1, 20635, Note_on_c, 0, 50, 60
1, 20640, Note_on_c, 0, 65, 61
1, 20675, Note_off_c, 0, 50, 58
1, 20677, Note_off_c, 0, 65, 64
1, 20695, Note_on_c, 0, 57, 59
1, 20703, Note_on_c, 0, 62, 54
1, 20737, Note_off_c, 0, 57, 60
1, 20745, Note_off_c, 0, 62, 60
1, 20760, Note_on_c, 0, 50, 55
1, 20776, Note_on_c, 0, 65, 52
1, 20799, Note_off_c, 0, 50, 58
1, 20804, Note_off_c, 0, 65, 62
1, 20827, Note_on_c, 0, 57, 57
1, 20828, Note_on_c, 0, 62, 62
1, 20866, Note_off_c, 0, 57, 62
1, 20868, Note_off_c, 0, 62, 61
1, 20887, Note_on_c, 0, 50, 54
1, 20890, Note_on_c, 0, 65, 61
1, 20926, Note_off_c, 0, 50, 59
1, 20928, Note_off_c, 0, 65, 62
1, 20951, Note_on_c, 0, 57, 63
1, 20952, Note_on_c, 0, 62, 63
1, 20989, Note_off_c, 0, 57, 61
1, 20999, Note_off_c, 0, 62, 60
1, 21013, Note_on_c, 0, 50, 53
1, 21027, Note_on_c, 0, 65, 54
1, 21056, Note_off_c, 0, 50, 60
1, 21065, Note_off_c, 0, 65, 66
1, 21077, Note_on_c, 0, 62, 61
1, 21088, Note_on_c, 0, 57, 51
1, 21127, Note_off_c, 0, 57, 62
1, 21133, Note_off_c, 0, 62, 59
1, 21151, Note_on_c, 0, 50, 58
1, 21157, Note_on_c, 0, 65, 64
1, 21187, Note_off_c, 0, 50, 62
1, 21195, Note_off_c, 0, 65, 62
1, 21210, Note_on_c, 0, 62, 63
1, 21211, Note_on_c, 0, 57, 58
1, 21247, Note_off_c, 0, 57, 62
1, 21253, Note_off_c, 0, 62, 61
1, 21280, Note_on_c, 0, 50, 51
1, 21287, Note_on_c, 0, 65, 51
1, 21309, Note_off_c, 0, 50, 61
1, 21324, Note_off_c, 0, 65, 59
1, 21336, Note_on_c, 0, 62, 63
1, 21348, Note_on_c, 0, 57, 52
1, 21374, Note_off_c, 0, 62, 58
1, 21376, Note_off_c, 0, 57, 56
1, 21396, Note_on_c, 0, 50, 62
1, 21399, Note_on_c, 0, 68, 71
1, 21440, Note_off_c, 0, 50, 61
1, 21449, Note_off_c, 0, 68, 62
1, 21455, Note_on_c, 0, 64, 69
1, 21482, Note_on_c, 0, 59, 46
1, 21495, Note_off_c, 0, 64, 59
1, 21507, Note_off_c, 0, 59, 55
1, 21516, Note_on_c, 0, 68, 61
1, 21528, Note_on_c, 0, 50, 56
1, 21559, Note_off_c, 0, 50, 64
1, 21588, Note_on_c, 0, 64, 70
1, 21591, Note_off_c, 0, 68, 63
1, 21598, Note_on_c, 0, 59, 34
1, 21630, Note_off_c, 0, 59, 50
1, 21636, Note_off_c, 0, 64, 61
1, 21649, Note_on_c, 0, 69, 72
1, 21661, Note_on_c, 0, 48, 46
1, 21666, Note_on_c, 0, 52, 30
1, 21703, Note_off_c, 0, 52, 52
1, 21706, Note_on_c, 0, 57, 64
1, 21706, Note_off_c, 0, 48, 49
1, 21746, Note_off_c, 0, 57, 60
1, 21781, Note_on_c, 0, 48, 36
1, 21783, Note_on_c, 0, 52, 32
1, 21819, Note_off_c, 0, 52, 55
1, 21825, Note_off_c, 0, 48, 49
1, 21837, Note_on_c, 0, 57, 63
1, 21887, Note_off_c, 0, 57, 59
1, 21921, Note_on_c, 0, 48, 46
1, 21939, Note_on_c, 0, 52, 37
1, 21962, Note_off_c, 0, 48, 48
1, 21972, Note_off_c, 0, 52, 49
1, 21980, Note_on_c, 0, 57, 64
1, 22022, Note_off_c, 0, 57, 59
1, 22056, Note_off_c, 0, 69, 63
1, 22066, Note_on_c, 0, 48, 40
1, 22078, Note_on_c, 0, 72, 54
1, 22106, Note_off_c, 0, 48, 49
1, 22110, Note_off_c, 0, 72, 56
1, 22113, Note_on_c, 0, 57, 67
1, 22123, Note_on_c, 0, 71, 57
1, 22159, Note_off_c, 0, 71, 62
1, 22162, Note_off_c, 0, 57, 58
1, 22175, Note_on_c, 0, 69, 62
1, 22180, Note_on_c, 0, 52, 40
1, 22183, Note_on_c, 0, 48, 49
1, 22211, Note_off_c, 0, 69, 65
1, 22223, Note_off_c, 0, 52, 63
1, 22233, Note_off_c, 0, 48, 56
1, 22244, Note_on_c, 0, 57, 63
1, 22290, Note_off_c, 0, 57, 58
1, 22320, Note_on_c, 0, 52, 54
1, 22326, Note_on_c, 0, 48, 40
1, 22346, Note_off_c, 0, 52, 59
1, 22363, Note_off_c, 0, 48, 49
1, 22373, Note_on_c, 0, 57, 64
1, 22414, Note_off_c, 0, 57, 60
1, 22435, Note_on_c, 0, 52, 52
1, 22436, Note_on_c, 0, 48, 60
1, 22471, Note_off_c, 0, 52, 53
1, 22472, Note_off_c, 0, 48, 66
1, 22503, Note_on_c, 0, 57, 60
1, 22540, Note_off_c, 0, 57, 61
1, 22568, Note_on_c, 0, 48, 44
1, 22588, Note_on_c, 0, 52, 23
1, 22618, Note_off_c, 0, 48, 47
1, 22633, Note_on_c, 0, 57, 61
1, 22641, Note_off_c, 0, 52, 43
1, 22662, Note_on_c, 0, 87, 76
1, 22676, Note_off_c, 0, 57, 58
1, 22690, Note_on_c, 0, 52, 48
1, 22692, Note_on_c, 0, 88, 87
1, 22696, Note_on_c, 0, 48, 48
1, 22716, Note_off_c, 0, 87, 64
1, 22737, Note_off_c, 0, 52, 63
1, 22754, Note_off_c, 0, 48, 54
1, 22757, Note_on_c, 0, 57, 62
1, 22811, Note_off_c, 0, 57, 59
1, 22829, Note_on_c, 0, 52, 56
1, 22841, Note_on_c, 0, 48, 23
1, 22859, Note_off_c, 0, 52, 64
1, 22891, Note_off_c, 0, 48, 47
1, 22898, Note_on_c, 0, 57, 59
1, 22946, Note_off_c, 0, 57, 56
1, 22951, Note_on_c, 0, 52, 56
1, 22973, Note_on_c, 0, 48, 44
1, 22991, Note_off_c, 0, 52, 64
1, 23023, Note_off_c, 0, 48, 46
1, 23029, Note_on_c, 0, 57, 59
1, 23056, Note_off_c, 0, 88, 54
1, 23057, Note_on_c, 0, 86, 60
1, 23068, Note_off_c, 0, 57, 61
1, 23088, Note_on_c, 0, 52, 59
1, 23113, Note_on_c, 0, 48, 28
1, 23116, Note_on_c, 0, 84, 67
1, 23120, Note_off_c, 0, 86, 61
1, 23121, Note_off_c, 0, 52, 66
1, 23153, Note_off_c, 0, 48, 51
1, 23155, Note_off_c, 0, 84, 64
1, 23160, Note_on_c, 0, 57, 63
1, 23168, Note_on_c, 0, 83, 60
1, 23199, Note_off_c, 0, 57, 60
1, 23212, Note_off_c, 0, 83, 60
1, 23219, Note_on_c, 0, 52, 53
1, 23221, Note_on_c, 0, 81, 77
1, 23222, Control_c, 0, 64, 13
1, 23234, Note_on_c, 0, 48, 54
1, 23237, Control_c, 0, 64, 39
1, 23251, Control_c, 0, 64, 47
1, 23260, Note_off_c, 0, 52, 65
1, 23266, Note_off_c, 0, 81, 61
1, 23266, Control_c, 0, 64, 52
1, 23275, Note_off_c, 0, 48, 60
1, 23281, Control_c, 0, 64, 55
1, 23288, Note_on_c, 0, 57, 71
1, 23296, Control_c, 0, 64, 58
1, 23311, Control_c, 0, 64, 61
1, 23325, Control_c, 0, 64, 63
1, 23340, Control_c, 0, 64, 64
1, 23343, Note_off_c, 0, 57, 55
1, 23350, Note_on_c, 0, 52, 67
1, 23363, Control_c, 0, 64, 65
1, 23375, Note_on_c, 0, 48, 59
1, 23378, Control_c, 0, 64, 65
1, 23396, Note_off_c, 0, 52, 62
1, 23407, Control_c, 0, 64, 66
1, 23413, Note_off_c, 0, 48, 59
1, 23423, Note_on_c, 0, 57, 66
1, 23437, Control_c, 0, 64, 66
1, 23452, Control_c, 0, 64, 67
1, 23466, Control_c, 0, 64, 69
1, 23471, Note_off_c, 0, 57, 59
1, 23481, Control_c, 0, 64, 73
1, 23484, Note_on_c, 0, 52, 69
1, 23494, Note_on_c, 0, 48, 58
1, 23497, Control_c, 0, 64, 77
1, 23512, Control_c, 0, 64, 80
1, 23512, Control_c, 0, 67, 126
1, 23517, Note_off_c, 0, 52, 67
1, 23525, Note_off_c, 0, 48, 64
1, 23527, Control_c, 0, 64, 83
1, 23527, Control_c, 0, 67, 82
1, 23542, Control_c, 0, 64, 85
1, 23542, Control_c, 0, 67, 25
1, 23551, Note_on_c, 0, 57, 65
1, 23557, Control_c, 0, 64, 88
1, 23557, Control_c, 0, 67, 0
1, 23571, Control_c, 0, 64, 90
1, 23583, Note_off_c, 0, 57, 62
1, 23586, Control_c, 0, 64, 93
1, 23597, Note_on_c, 0, 52, 67
1, 23601, Control_c, 0, 64, 94
1, 23610, Note_on_c, 0, 48, 57
1, 23615, Control_c, 0, 64, 95
1, 23630, Control_c, 0, 64, 96
1, 23643, Note_off_c, 0, 52, 66
1, 23645, Control_c, 0, 64, 96
1, 23654, Note_off_c, 0, 48, 51
1, 23660, Control_c, 0, 64, 97
1, 23666, Note_on_c, 0, 57, 76
1, 23671, Note_on_c, 0, 87, 80
1, 23704, Control_c, 0, 64, 96
1, 23718, Note_off_c, 0, 57, 61
1, 23719, Control_c, 0, 64, 88
1, 23725, Note_off_c, 0, 87, 63
1, 23732, Note_on_c, 0, 52, 52
1, 23734, Control_c, 0, 64, 74
1, 23736, Note_on_c, 0, 88, 96
1, 23745, Note_on_c, 0, 51, 71
1, 23749, Control_c, 0, 64, 0
1, 23781, Note_off_c, 0, 52, 42
1, 23782, Note_on_c, 0, 48, 25
1, 23782, Note_off_c, 0, 51, 60
1, 23807, Control_c, 0, 64, 62
1, 23810, Note_off_c, 0, 48, 49
1, 23816, Note_on_c, 0, 58, 84
1, 23822, Control_c, 0, 64, 72
1, 23837, Control_c, 0, 64, 80
1, 23852, Control_c, 0, 64, 84
1, 23866, Note_off_c, 0, 58, 62
1, 23867, Control_c, 0, 64, 84
1, 23882, Control_c, 0, 64, 85
1, 23897, Control_c, 0, 64, 85
1, 23897, Note_on_c, 0, 48, 59
1, 23928, Poly_aftertouch_c, 0, 52, 127
1, 23938, Note_on_c, 0, 58, 78
1, 23941, Control_c, 0, 64, 86
1, 23941, Note_off_c, 0, 48, 63
1, 23991, Note_off_c, 0, 58, 64
1, 23995, Note_on_c, 0, 52, 18
1, 24015, Note_on_c, 0, 48, 62
1, 24030, Control_c, 0, 64, 85
1, 24060, Control_c, 0, 64, 85
1, 24063, Note_on_c, 0, 58, 84
1, 24073, Note_off_c, 0, 52, 53
1, 24074, Control_c, 0, 64, 84
1, 24078, Note_on_c, 0, 86, 77
1, 24078, Note_off_c, 0, 48, 58
1, 24089, Control_c, 0, 64, 81
1, 24111, Control_c, 0, 64, 74
1, 24120, Note_off_c, 0, 88, 56
1, 24126, Control_c, 0, 64, 59
1, 24132, Note_off_c, 0, 58, 61
1, 24133, Note_on_c, 0, 52, 47
1, 24141, Control_c, 0, 64, 0
1, 24142, Note_on_c, 0, 48, 49
1, 24148, Note_on_c, 0, 84, 79
1, 24173, Note_off_c, 0, 86, 60
1, 24197, Note_on_c, 0, 58, 84
1, 24198, Note_on_c, 0, 83, 82
1, 24202, Note_off_c, 0, 84, 68
1, 24203, Note_off_c, 0, 52, 67
1, 24216, Note_off_c, 0, 48, 60
1, 24266, Note_on_c, 0, 82, 96
1, 24268, Note_on_c, 0, 52, 66
1, 24269, Note_off_c, 0, 58, 64
1, 24273, Note_on_c, 0, 48, 53
1, 24275, Note_off_c, 0, 83, 63
1, 24290, Control_c, 0, 64, 69
1, 24305, Control_c, 0, 64, 78
1, 24320, Control_c, 0, 64, 79
1, 24323, Note_off_c, 0, 48, 60
1, 24334, Note_on_c, 0, 58, 81
1, 24342, Note_off_c, 0, 52, 65
1, 24350, Control_c, 0, 64, 80
1, 24359, Note_off_c, 0, 82, 66
1, 24364, Control_c, 0, 64, 81
1, 24379, Control_c, 0, 64, 83
1, 24394, Control_c, 0, 64, 85
1, 24396, Note_on_c, 0, 52, 66
1, 24406, Note_on_c, 0, 48, 54
1, 24406, Note_off_c, 0, 58, 64
1, 24409, Control_c, 0, 64, 86
1, 24424, Control_c, 0, 64, 86
1, 24438, Control_c, 0, 64, 87
1, 24461, Note_on_c, 0, 58, 79
1, 24466, Note_off_c, 0, 52, 67
1, 24468, Control_c, 0, 64, 87
1, 24504, Note_off_c, 0, 48, 0
1, 24512, Control_c, 0, 64, 87
1, 24523, Note_on_c, 0, 52, 63
1, 24524, Note_on_c, 0, 48, 46
1, 24527, Control_c, 0, 64, 83
1, 24528, Note_off_c, 0, 58, 64
1, 24542, Control_c, 0, 64, 73
1, 24556, Control_c, 0, 64, 41
1, 24570, Note_off_c, 0, 52, 65
1, 24571, Control_c, 0, 64, 0
1, 24579, Note_on_c, 0, 58, 70
1, 24641, Note_on_c, 0, 52, 63
1, 24648, Note_off_c, 0, 48, 61
1, 24656, Note_off_c, 0, 58, 62
1, 24660, Control_c, 0, 67, 10
1, 24675, Control_c, 0, 67, 21
1, 24690, Control_c, 0, 67, 45
1, 24704, Note_off_c, 0, 52, 64
1, 24704, Control_c, 0, 67, 75
1, 24707, Note_on_c, 0, 58, 52
1, 24719, Control_c, 0, 67, 103
1, 24734, Control_c, 0, 67, 127
1, 24749, Control_c, 0, 67, 127
1, 24764, Note_off_c, 0, 58, 63
1, 24863, Note_on_c, 0, 83, 66
1, 24885, Note_on_c, 0, 47, 48
1, 24921, Note_off_c, 0, 47, 57
1, 24955, Note_on_c, 0, 51, 46
1, 24993, Note_off_c, 0, 51, 61
1, 25014, Note_on_c, 0, 54, 50
1, 25038, Note_off_c, 0, 54, 60
1, 25092, Note_on_c, 0, 59, 44
1, 25128, Note_off_c, 0, 59, 51
1, 25143, Control_c, 0, 64, 42
1, 25157, Control_c, 0, 64, 53
1, 25172, Note_on_c, 0, 47, 52
1, 25172, Control_c, 0, 64, 60
1, 25187, Control_c, 0, 64, 63
1, 25202, Control_c, 0, 64, 64
1, 25202, Note_off_c, 0, 47, 59
1, 25217, Control_c, 0, 64, 65
1, 25217, Note_on_c, 0, 51, 52
1, 25232, Control_c, 0, 64, 67
1, 25247, Control_c, 0, 64, 69
1, 25249, Note_on_c, 0, 81, 53
1, 25253, Note_off_c, 0, 51, 61
1, 25262, Control_c, 0, 64, 71
1, 25277, Control_c, 0, 64, 74
1, 25289, Note_off_c, 0, 83, 32
1, 25291, Note_on_c, 0, 54, 53
1, 25292, Control_c, 0, 64, 75
1, 25307, Control_c, 0, 64, 76
1, 25316, Note_off_c, 0, 54, 56
1, 25324, Note_on_c, 0, 79, 53
1, 25326, Note_off_c, 0, 81, 55
1, 25347, Note_off_c, 0, 79, 60
1, 25351, Note_on_c, 0, 59, 50
1, 25366, Note_on_c, 0, 78, 65
1, 25386, Note_off_c, 0, 59, 48
1, 25425, Control_c, 0, 64, 75
1, 25426, Note_off_c, 0, 78, 62
1, 25433, Note_on_c, 0, 79, 68
1, 25437, Note_on_c, 0, 47, 59
1, 25440, Control_c, 0, 64, 74
1, 25454, Control_c, 0, 64, 69
1, 25469, Control_c, 0, 64, 57
1, 25474, Note_off_c, 0, 47, 54
1, 25484, Control_c, 0, 64, 0
1, 25488, Note_on_c, 0, 78, 64
1, 25494, Note_off_c, 0, 79, 60
1, 25498, Note_on_c, 0, 52, 46
1, 25535, Note_off_c, 0, 52, 58
1, 25535, Note_off_c, 0, 78, 64
1, 25558, Control_c, 0, 64, 24
1, 25560, Note_on_c, 0, 76, 68
1, 25569, Note_on_c, 0, 55, 26
1, 25573, Control_c, 0, 64, 48
1, 25587, Control_c, 0, 64, 52
1, 25610, Control_c, 0, 64, 51
1, 25613, Note_off_c, 0, 55, 42
1, 25621, Note_off_c, 0, 76, 64
1, 25634, Note_on_c, 0, 75, 64
1, 25637, Note_on_c, 0, 59, 47
1, 25640, Control_c, 0, 64, 51
1, 25661, Note_off_c, 0, 59, 58
1, 25669, Control_c, 0, 64, 50
1, 25677, Note_off_c, 0, 75, 64
1, 25684, Control_c, 0, 64, 43
1, 25693, Note_on_c, 0, 76, 66
1, 25699, Control_c, 0, 64, 0
1, 25709, Note_on_c, 0, 47, 64
1, 25762, Note_off_c, 0, 76, 56
1, 25765, Note_on_c, 0, 79, 68
1, 25773, Note_on_c, 0, 52, 57
1, 25775, Note_off_c, 0, 47, 52
1, 25802, Control_c, 0, 64, 38
1, 25817, Control_c, 0, 64, 59
1, 25832, Control_c, 0, 64, 62
1, 25836, Note_off_c, 0, 79, 59
1, 25838, Note_on_c, 0, 78, 71
1, 25840, Note_off_c, 0, 52, 64
1, 25847, Control_c, 0, 64, 63
1, 25848, Note_on_c, 0, 55, 51
1, 25861, Control_c, 0, 64, 64
1, 25876, Control_c, 0, 64, 65
1, 25885, Note_off_c, 0, 55, 63
1, 25892, Control_c, 0, 64, 66
1, 25894, Note_off_c, 0, 78, 63
1, 25903, Note_on_c, 0, 76, 74
1, 25904, Note_on_c, 0, 59, 51
1, 25941, Note_off_c, 0, 59, 62
1, 25950, Note_off_c, 0, 76, 54
1, 25951, Control_c, 0, 64, 64
1, 25966, Control_c, 0, 64, 53
1, 25980, Note_on_c, 0, 75, 62
1, 25980, Control_c, 0, 64, 0
1, 25997, Note_on_c, 0, 47, 65
1, 26039, Note_on_c, 0, 73, 73
1, 26051, Note_off_c, 0, 47, 56
1, 26052, Note_off_c, 0, 75, 62
1, 26068, Note_on_c, 0, 54, 49
1, 26070, Control_c, 0, 64, 31
1, 26079, Note_off_c, 0, 73, 64
1, 26084, Control_c, 0, 64, 62
1, 26099, Control_c, 0, 64, 66
1, 26105, Note_on_c, 0, 71, 68
1, 26114, Control_c, 0, 64, 67
1, 26128, Control_c, 0, 64, 68
1, 26132, Note_off_c, 0, 54, 46
1, 26142, Note_on_c, 0, 57, 42
1, 26143, Control_c, 0, 64, 69
1, 26148, Note_off_c, 0, 71, 59
1, 26158, Control_c, 0, 64, 70
1, 26170, Note_on_c, 0, 70, 72
1, 26173, Control_c, 0, 64, 70
1, 26174, Note_off_c, 0, 57, 46
1, 26197, Note_on_c, 0, 59, 38
1, 26202, Control_c, 0, 64, 70
1, 26210, Note_off_c, 0, 70, 64
1, 26217, Control_c, 0, 64, 68
1, 26227, Note_off_c, 0, 59, 48
1, 26232, Control_c, 0, 64, 63
1, 26245, Note_on_c, 0, 71, 62
1, 26247, Control_c, 0, 64, 0
1, 26270, Note_on_c, 0, 47, 59
1, 26285, Note_off_c, 0, 71, 59
1, 26302, Note_on_c, 0, 73, 65
1, 26307, Note_off_c, 0, 47, 59
1, 26326, Note_on_c, 0, 54, 56
1, 26335, Control_c, 0, 64, 48
1, 26358, Control_c, 0, 64, 64
1, 26366, Note_on_c, 0, 74, 61
1, 26373, Control_c, 0, 64, 66
1, 26388, Control_c, 0, 64, 68
1, 26401, Note_off_c, 0, 73, 54
1, 26403, Control_c, 0, 64, 69
1, 26414, Note_on_c, 0, 57, 48
1, 26417, Control_c, 0, 64, 70
1, 26430, Note_off_c, 0, 54, 37
1, 26432, Control_c, 0, 64, 72
1, 26433, Note_off_c, 0, 74, 61
1, 26437, Note_on_c, 0, 75, 64
1, 26440, Note_off_c, 0, 57, 55
1, 26447, Control_c, 0, 64, 72
1, 26466, Note_on_c, 0, 59, 53
1, 26484, Note_off_c, 0, 75, 64
1, 26491, Control_c, 0, 64, 69
1, 26498, Note_on_c, 0, 76, 59
1, 26506, Note_off_c, 0, 59, 62
1, 26506, Control_c, 0, 64, 61
1, 26521, Control_c, 0, 64, 0
1, 26523, Note_off_c, 0, 76, 55
1, 26537, Note_on_c, 0, 47, 73
1, 26562, Note_on_c, 0, 75, 63
1, 26595, Control_c, 0, 64, 42
1, 26605, Note_off_c, 0, 75, 63
1, 26607, Note_off_c, 0, 47, 59
1, 26609, Control_c, 0, 64, 64
1, 26611, Note_on_c, 0, 52, 61
1, 26624, Control_c, 0, 64, 67
1, 26630, Note_on_c, 0, 76, 68
1, 26639, Control_c, 0, 64, 69
1, 26654, Control_c, 0, 64, 71
1, 26662, Note_off_c, 0, 52, 62
1, 26669, Note_off_c, 0, 76, 67
1, 26669, Control_c, 0, 64, 72
1, 26678, Note_on_c, 0, 55, 44
1, 26685, Control_c, 0, 64, 73
1, 26693, Note_on_c, 0, 78, 73
1, 26708, Note_off_c, 0, 55, 54
1, 26729, Control_c, 0, 64, 70
1, 26731, Note_on_c, 0, 59, 59
1, 26740, Note_off_c, 0, 78, 59
1, 26744, Control_c, 0, 64, 64
1, 26759, Control_c, 0, 64, 0
1, 26764, Note_off_c, 0, 59, 62
1, 26765, Note_on_c, 0, 79, 72
1, 26795, Note_off_c, 0, 79, 60
1, 26800, Note_on_c, 0, 47, 65
1, 26827, Note_on_c, 0, 80, 70
1, 26849, Note_off_c, 0, 47, 58
1, 26865, Note_on_c, 0, 52, 61
1, 26874, Note_off_c, 0, 80, 65
1, 26891, Note_on_c, 0, 81, 72
1, 26913, Note_off_c, 0, 52, 63
1, 26919, Note_on_c, 0, 55, 56
1, 26942, Note_off_c, 0, 55, 63
1, 26943, Note_off_c, 0, 81, 56
1, 26951, Note_on_c, 0, 82, 74
1, 26978, Note_on_c, 0, 59, 60
1, 27015, Note_off_c, 0, 82, 64
1, 27021, Note_off_c, 0, 59, 57
1, 27028, Note_on_c, 0, 83, 59
1, 27047, Note_on_c, 0, 47, 66
1, 27050, Note_on_c, 0, 81, 52
1, 27055, Control_c, 0, 64, 46
1, 27070, Control_c, 0, 64, 63
1, 27074, Note_off_c, 0, 81, 37
1, 27085, Control_c, 0, 64, 66
1, 27089, Note_on_c, 0, 82, 76
1, 27089, Note_off_c, 0, 83, 62
1, 27107, Control_c, 0, 64, 67
1, 27108, Note_off_c, 0, 47, 62
1, 27122, Note_on_c, 0, 51, 61
1, 27122, Control_c, 0, 64, 67
1, 27137, Control_c, 0, 64, 68
1, 27151, Control_c, 0, 64, 69
1, 27160, Note_off_c, 0, 82, 63
1, 27164, Note_off_c, 0, 51, 61
1, 27166, Control_c, 0, 64, 70
1, 27176, Note_on_c, 0, 83, 69
1, 27181, Control_c, 0, 64, 71
1, 27195, Note_on_c, 0, 54, 58
1, 27217, Note_off_c, 0, 54, 60
1, 27223, Note_off_c, 0, 83, 61
1, 27223, Note_on_c, 0, 82, 70
1, 27240, Control_c, 0, 64, 70
1, 27255, Control_c, 0, 64, 66
1, 27263, Note_on_c, 0, 59, 48
1, 27270, Control_c, 0, 64, 51
1, 27279, Note_off_c, 0, 82, 64
1, 27285, Control_c, 0, 64, 0
1, 27292, Note_on_c, 0, 83, 73
1, 27296, Note_off_c, 0, 59, 59
1, 27322, Note_on_c, 0, 47, 68
1, 27368, Note_on_c, 0, 81, 67
1, 27370, Note_off_c, 0, 47, 61
1, 27384, Note_on_c, 0, 51, 57
1, 27420, Note_off_c, 0, 83, 55
1, 27429, Note_off_c, 0, 51, 63
1, 27432, Control_c, 0, 64, 51
1, 27442, Note_on_c, 0, 79, 64
1, 27447, Control_c, 0, 64, 58
1, 27453, Note_on_c, 0, 54, 52
1, 27479, Note_off_c, 0, 54, 60
1, 27482, Note_off_c, 0, 81, 60
1, 27492, Note_off_c, 0, 79, 62
1, 27494, Note_on_c, 0, 78, 71
1, 27508, Control_c, 0, 64, 57
1, 27518, Note_on_c, 0, 59, 49
1, 27523, Control_c, 0, 64, 52
1, 27537, Control_c, 0, 64, 0
1, 27545, Note_off_c, 0, 59, 55
1, 27557, Note_off_c, 0, 78, 63
1, 27560, Note_on_c, 0, 79, 69
1, 27573, Note_on_c, 0, 47, 68
1, 27626, Control_c, 0, 64, 54
1, 27629, Note_off_c, 0, 79, 62
1, 27631, Note_on_c, 0, 78, 73
1, 27632, Note_off_c, 0, 47, 56
1, 27641, Control_c, 0, 64, 65
1, 27642, Note_on_c, 0, 52, 56
1, 27655, Control_c, 0, 64, 66
1, 27670, Note_off_c, 0, 78, 65
1, 27690, Note_on_c, 0, 76, 71
1, 27694, Note_off_c, 0, 52, 58
1, 27700, Control_c, 0, 64, 67
1, 27715, Control_c, 0, 64, 67
1, 27724, Note_on_c, 0, 55, 46
1, 27730, Control_c, 0, 64, 68
1, 27741, Note_off_c, 0, 76, 63
1, 27745, Control_c, 0, 64, 68
1, 27750, Note_off_c, 0, 55, 57
1, 27753, Note_on_c, 0, 75, 68
1, 27760, Control_c, 0, 64, 68
1, 27774, Control_c, 0, 64, 67
1, 27780, Note_on_c, 0, 59, 37
1, 27789, Control_c, 0, 64, 61
1, 27796, Note_off_c, 0, 75, 62
1, 27804, Control_c, 0, 64, 0
1, 27808, Note_off_c, 0, 59, 54
1, 27818, Note_on_c, 0, 76, 70
1, 27843, Note_on_c, 0, 47, 65
1, 27890, Note_on_c, 0, 79, 63
1, 27894, Note_off_c, 0, 76, 61
1, 27907, Note_off_c, 0, 47, 56
1, 27912, Note_on_c, 0, 52, 55
1, 27915, Control_c, 0, 64, 60
1, 27930, Control_c, 0, 64, 66
1, 27945, Control_c, 0, 64, 69
1, 27960, Control_c, 0, 64, 70
1, 27965, Note_on_c, 0, 78, 73
1, 27974, Control_c, 0, 64, 70
1, 27974, Note_off_c, 0, 79, 57
1, 27977, Note_on_c, 0, 55, 53
1, 27989, Control_c, 0, 64, 71
1, 28004, Control_c, 0, 64, 72
1, 28009, Note_off_c, 0, 55, 60
1, 28019, Note_off_c, 0, 78, 63
1, 28034, Note_on_c, 0, 76, 70
1, 28048, Control_c, 0, 64, 71
1, 28049, Note_on_c, 0, 59, 44
1, 28063, Control_c, 0, 64, 68
1, 28070, Note_off_c, 0, 52, 25
1, 28074, Note_off_c, 0, 59, 57
1, 28078, Control_c, 0, 64, 55
1, 28088, Note_off_c, 0, 76, 52
1, 28093, Control_c, 0, 64, 0
1, 28099, Note_on_c, 0, 75, 67
1, 28117, Note_on_c, 0, 47, 61
1, 28165, Note_off_c, 0, 47, 59
1, 28172, Note_on_c, 0, 73, 72
1, 28176, Note_off_c, 0, 75, 61
1, 28194, Note_on_c, 0, 54, 49
1, 28206, Note_off_c, 0, 73, 64
1, 28225, Control_c, 0, 64, 53
1, 28232, Note_on_c, 0, 71, 68
1, 28240, Control_c, 0, 64, 60
1, 28249, Note_on_c, 0, 57, 51
1, 28255, Control_c, 0, 64, 60
1, 28273, Note_off_c, 0, 71, 55
1, 28275, Note_off_c, 0, 57, 62
1, 28297, Note_on_c, 0, 70, 72
1, 28300, Control_c, 0, 64, 61
1, 28313, Note_on_c, 0, 59, 53
1, 28315, Control_c, 0, 64, 62
1, 28334, Note_off_c, 0, 70, 62
1, 28343, Note_off_c, 0, 59, 62
1, 28344, Note_off_c, 0, 54, 24
1, 28359, Control_c, 0, 64, 61
1, 28373, Note_on_c, 0, 71, 64
1, 28374, Control_c, 0, 64, 59
1, 28389, Control_c, 0, 64, 58
1, 28397, Note_on_c, 0, 47, 60
1, 28404, Control_c, 0, 64, 57
1, 28408, Note_off_c, 0, 71, 57
1, 28419, Control_c, 0, 64, 58
1, 28424, Note_on_c, 0, 73, 68
1, 28433, Control_c, 0, 64, 60
1, 28436, Note_off_c, 0, 47, 57
1, 28448, Control_c, 0, 64, 61
1, 28463, Control_c, 0, 64, 62
1, 28464, Note_on_c, 0, 54, 58
1, 28478, Control_c, 0, 64, 63
1, 28481, Note_on_c, 0, 74, 63
1, 28493, Control_c, 0, 64, 63
1, 28508, Control_c, 0, 64, 64
1, 28520, Note_off_c, 0, 73, 39
1, 28523, Control_c, 0, 64, 65
1, 28532, Note_on_c, 0, 57, 51
1, 28538, Control_c, 0, 64, 65
1, 28554, Note_on_c, 0, 75, 64
1, 28556, Note_off_c, 0, 57, 55
1, 28567, Control_c, 0, 64, 66
1, 28572, Note_off_c, 0, 74, 63
1, 28574, Note_off_c, 0, 54, 48
1, 28588, Note_on_c, 0, 59, 55
1, 28603, Control_c, 0, 64, 65
1, 28612, Note_off_c, 0, 75, 64
1, 28618, Control_c, 0, 64, 64
1, 28630, Note_on_c, 0, 76, 63
1, 28633, Control_c, 0, 64, 50
1, 28636, Note_off_c, 0, 59, 60
1, 28648, Control_c, 0, 64, 0
1, 28657, Note_on_c, 0, 47, 78
1, 28663, Note_off_c, 0, 76, 60
1, 28693, Note_on_c, 0, 75, 60
1, 28726, Note_on_c, 0, 52, 62
1, 28730, Note_off_c, 0, 47, 60
1, 28737, Control_c, 0, 64, 60
1, 28738, Note_off_c, 0, 75, 64
1, 28752, Control_c, 0, 64, 67
1, 28755, Note_on_c, 0, 76, 70
1, 28767, Control_c, 0, 64, 70
1, 28782, Control_c, 0, 64, 71
1, 28785, Note_on_c, 0, 55, 63
1, 28791, Note_off_c, 0, 52, 60
1, 28794, Note_off_c, 0, 76, 65
1, 28797, Control_c, 0, 64, 72
1, 28809, Note_off_c, 0, 55, 65
1, 28811, Control_c, 0, 64, 73
1, 28818, Note_on_c, 0, 78, 75
1, 28839, Note_on_c, 0, 59, 61
1, 28841, Control_c, 0, 67, 82
1, 28856, Control_c, 0, 64, 72
1, 28856, Control_c, 0, 67, 33
1, 28867, Note_off_c, 0, 78, 58
1, 28870, Control_c, 0, 64, 68
1, 28870, Control_c, 0, 67, 0
1, 28878, Note_off_c, 0, 59, 59
1, 28885, Control_c, 0, 64, 0
1, 28888, Note_on_c, 0, 79, 76
1, 28910, Note_on_c, 0, 47, 78
1, 28926, Note_off_c, 0, 79, 62
1, 28949, Note_on_c, 0, 80, 72
1, 28959, Control_c, 0, 64, 60
1, 28974, Control_c, 0, 64, 70
1, 28977, Note_on_c, 0, 52, 69
1, 28978, Note_off_c, 0, 47, 62
1, 28989, Control_c, 0, 64, 75
1, 29003, Control_c, 0, 64, 78
1, 29006, Note_off_c, 0, 80, 63
1, 29011, Note_on_c, 0, 81, 76
1, 29018, Control_c, 0, 64, 80
1, 29031, Note_off_c, 0, 52, 59
1, 29032, Note_on_c, 0, 55, 59
1, 29033, Control_c, 0, 64, 83
1, 29048, Control_c, 0, 64, 87
1, 29060, Note_off_c, 0, 55, 66
1, 29063, Control_c, 0, 64, 95
1, 29068, Note_on_c, 0, 82, 81
1, 29077, Note_off_c, 0, 81, 60
1, 29079, Control_c, 0, 64, 102
1, 29090, Note_on_c, 0, 59, 67
1, 29094, Control_c, 0, 64, 106
1, 29108, Control_c, 0, 64, 107
1, 29116, Note_off_c, 0, 82, 64
1, 29123, Control_c, 0, 64, 107
1, 29134, Note_off_c, 0, 59, 58
1, 29138, Control_c, 0, 64, 101
1, 29144, Note_on_c, 0, 83, 76
1, 29152, Control_c, 0, 64, 87
1, 29154, Note_on_c, 0, 47, 83
1, 29167, Control_c, 0, 64, 64
1, 29182, Control_c, 0, 64, 0
1, 29202, Note_on_c, 0, 78, 76
1, 29213, Note_on_c, 0, 51, 71
1, 29220, Note_off_c, 0, 83, 55
1, 29231, Note_off_c, 0, 47, 61
1, 29283, Note_on_c, 0, 75, 71
1, 29288, Note_on_c, 0, 54, 70
1, 29289, Note_off_c, 0, 78, 64
1, 29292, Note_off_c, 0, 51, 63
1, 29307, Note_off_c, 0, 75, 70
1, 29330, Note_off_c, 0, 54, 62
1, 29340, Note_on_c, 0, 71, 80
1, 29361, Note_on_c, 0, 59, 73
1, 29398, Note_off_c, 0, 71, 53
1, 29411, Note_on_c, 0, 70, 79
1, 29420, Note_off_c, 0, 59, 63
1, 29423, Note_on_c, 0, 58, 77
1, 29426, Control_c, 0, 64, 34
1, 29441, Control_c, 0, 64, 0
1, 29450, Note_off_c, 0, 70, 66
1, 29462, Note_off_c, 0, 58, 61
1, 29470, Note_on_c, 0, 71, 77
1, 29482, Note_on_c, 0, 59, 67
1, 29531, Note_off_c, 0, 59, 59
1, 29539, Note_off_c, 0, 71, 59
1, 29547, Note_on_c, 0, 76, 71
1, 29561, Note_on_c, 0, 55, 48
1, 29588, Note_off_c, 0, 55, 57
1, 29600, Note_on_c, 0, 79, 73
1, 29602, Note_off_c, 0, 76, 65
1, 29608, Note_on_c, 0, 52, 71
1, 29644, Note_off_c, 0, 52, 62
1, 29655, Note_off_c, 0, 79, 60
1, 29659, Note_on_c, 0, 83, 84
1, 29665, Note_on_c, 0, 47, 71
1, 29694, Control_c, 0, 64, 71
1, 29708, Control_c, 0, 64, 83
1, 29714, Note_on_c, 0, 51, 74
1, 29723, Note_on_c, 0, 78, 78
1, 29723, Control_c, 0, 64, 88
1, 29730, Note_off_c, 0, 83, 61
1, 29739, Note_off_c, 0, 47, 64
1, 29752, Control_c, 0, 64, 88
1, 29767, Control_c, 0, 64, 90
1, 29782, Control_c, 0, 64, 93
1, 29790, Note_on_c, 0, 75, 76
1, 29796, Note_off_c, 0, 51, 62
1, 29797, Note_on_c, 0, 54, 68
1, 29797, Control_c, 0, 64, 97
1, 29801, Note_off_c, 0, 78, 63
1, 29812, Control_c, 0, 64, 104
1, 29826, Control_c, 0, 64, 126
1, 29827, Note_off_c, 0, 75, 64
1, 29829, Note_off_c, 0, 54, 61
1, 29841, Note_on_c, 0, 71, 85
1, 29841, Control_c, 0, 64, 127
1, 29847, Note_on_c, 0, 59, 69
1, 29908, Note_off_c, 0, 71, 54
1, 29909, Note_off_c, 0, 59, 63
1, 29912, Note_on_c, 0, 58, 82
1, 29914, Note_on_c, 0, 70, 87
1, 29931, Control_c, 0, 64, 87
1, 29946, Control_c, 0, 64, 0
1, 29957, Note_off_c, 0, 70, 61
1, 29962, Note_off_c, 0, 58, 64
1, 29984, Note_on_c, 0, 71, 82
1, 29985, Note_on_c, 0, 59, 71
1, 30025, Note_off_c, 0, 59, 61
1, 30051, Note_on_c, 0, 76, 76
1, 30052, Note_on_c, 0, 55, 57
1, 30057, Note_off_c, 0, 71, 61
1, 30082, Note_off_c, 0, 55, 54
1, 30113, Note_on_c, 0, 52, 69
1, 30117, Note_on_c, 0, 79, 74
1, 30124, Note_off_c, 0, 76, 65
1, 30155, Note_off_c, 0, 52, 68
1, 30176, Note_on_c, 0, 47, 77
1, 30182, Note_off_c, 0, 79, 56
1, 30185, Note_on_c, 0, 83, 87
1, 30226, Note_on_c, 0, 51, 70
1, 30235, Control_c, 0, 64, 61
1, 30249, Control_c, 0, 64, 83
1, 30255, Note_on_c, 0, 78, 74
1, 30264, Note_off_c, 0, 47, 62
1, 30264, Control_c, 0, 64, 90
1, 30279, Control_c, 0, 64, 91
1, 30280, Note_off_c, 0, 83, 57
1, 30294, Control_c, 0, 64, 91
1, 30297, Note_on_c, 0, 54, 63
1, 30298, Note_on_c, 0, 75, 73
1, 30301, Note_off_c, 0, 51, 62
1, 30309, Control_c, 0, 64, 97
1, 30323, Control_c, 0, 64, 106
1, 30337, Note_off_c, 0, 78, 63
1, 30338, Control_c, 0, 64, 127
1, 30341, Note_off_c, 0, 75, 62
1, 30346, Note_off_c, 0, 54, 60
1, 30365, Note_on_c, 0, 59, 58
1, 30367, Note_on_c, 0, 71, 73
1, 30393, Note_off_c, 0, 59, 65
1, 30434, Note_on_c, 0, 47, 87
1, 30439, Note_on_c, 0, 83, 98
1, 30443, Control_c, 0, 64, 112
1, 30457, Control_c, 0, 64, 78
1, 30472, Control_c, 0, 64, 0
1, 30508, Note_on_c, 0, 52, 74
1, 30513, Note_on_c, 0, 79, 73
1, 30516, Control_c, 0, 64, 67
1, 30531, Control_c, 0, 64, 85
1, 30546, Control_c, 0, 64, 109
1, 30553, Note_off_c, 0, 47, 51
1, 30561, Control_c, 0, 64, 127
1, 30564, Note_off_c, 0, 83, 52
1, 30571, Note_on_c, 0, 55, 59
1, 30577, Note_on_c, 0, 76, 76
1, 30586, Note_off_c, 0, 71, 59
1, 30622, Note_off_c, 0, 55, 63
1, 30631, Note_off_c, 0, 76, 62
1, 30635, Note_off_c, 0, 79, 60
1, 30639, Note_on_c, 0, 59, 64
1, 30661, Note_on_c, 0, 71, 76
1, 30680, Note_off_c, 0, 52, 56
1, 30716, Note_on_c, 0, 47, 81
1, 30720, Note_on_c, 0, 83, 97
1, 30725, Control_c, 0, 64, 116
1, 30739, Control_c, 0, 64, 78
1, 30754, Control_c, 0, 64, 0
1, 30772, Note_on_c, 0, 51, 74
1, 30798, Control_c, 0, 64, 61
1, 30799, Note_on_c, 0, 78, 82
1, 30807, Note_off_c, 0, 59, 52
1, 30813, Control_c, 0, 64, 70
1, 30828, Control_c, 0, 64, 82
1, 30848, Note_off_c, 0, 47, 54
1, 30851, Control_c, 0, 64, 99
1, 30860, Note_on_c, 0, 75, 74
1, 30863, Note_on_c, 0, 54, 72
1, 30866, Control_c, 0, 64, 119
1, 30872, Note_off_c, 0, 83, 48
1, 30878, Note_off_c, 0, 71, 58
1, 30880, Control_c, 0, 64, 127
1, 30881, Note_off_c, 0, 51, 61
1, 30921, Note_off_c, 0, 54, 61
1, 30921, Note_off_c, 0, 78, 54
1, 30926, Note_off_c, 0, 75, 60
1, 30937, Note_on_c, 0, 71, 76
1, 30955, Note_on_c, 0, 59, 60
1, 30982, Note_off_c, 0, 59, 65
1, 30998, Control_c, 0, 64, 97
1, 31000, Note_on_c, 0, 47, 86
1, 31008, Note_on_c, 0, 83, 96
1, 31013, Control_c, 0, 64, 65
1, 31028, Control_c, 0, 64, 0
1, 31069, Note_on_c, 0, 79, 67
1, 31072, Control_c, 0, 64, 70
1, 31086, Note_on_c, 0, 52, 57
1, 31087, Control_c, 0, 64, 90
1, 31102, Control_c, 0, 64, 120
1, 31117, Control_c, 0, 64, 127
1, 31125, Note_on_c, 0, 55, 71
1, 31136, Note_off_c, 0, 83, 58
1, 31137, Note_on_c, 0, 76, 81
1, 31152, Note_off_c, 0, 52, 66
1, 31153, Note_off_c, 0, 71, 59
1, 31164, Note_off_c, 0, 55, 61
1, 31185, Note_off_c, 0, 76, 68
1, 31200, Note_on_c, 0, 59, 65
1, 31203, Note_off_c, 0, 47, 26
1, 31217, Note_off_c, 0, 79, 52
1, 31235, Note_on_c, 0, 71, 73
1, 31247, Note_off_c, 0, 59, 60
1, 31298, Note_on_c, 0, 59, 85
1, 31302, Note_on_c, 0, 83, 99
1, 31303, Note_on_c, 0, 54, 91
1, 31304, Note_on_c, 0, 51, 89
1, 31306, Note_on_c, 0, 47, 85
1, 31310, Control_c, 0, 64, 92
1, 31325, Control_c, 0, 64, 50
1, 31340, Control_c, 0, 64, 0
1, 31376, Note_on_c, 0, 78, 87
1, 31423, Note_off_c, 0, 71, 58
1, 31429, Note_off_c, 0, 83, 43
1, 31445, Note_on_c, 0, 75, 82
1, 31486, Note_off_c, 0, 78, 63
1, 31489, Control_c, 0, 64, 73
1, 31504, Control_c, 0, 64, 81
1, 31510, Note_on_c, 0, 71, 82
1, 31519, Control_c, 0, 64, 87
1, 31519, Note_off_c, 0, 75, 66
1, 31534, Control_c, 0, 64, 88
1, 31548, Control_c, 0, 64, 90
1, 31563, Control_c, 0, 64, 92
1, 31578, Control_c, 0, 64, 95
1, 31581, Note_on_c, 0, 78, 86
1, 31598, Note_off_c, 0, 59, 58
1, 31599, Note_off_c, 0, 47, 59
1, 31600, Control_c, 0, 64, 97
1, 31608, Note_off_c, 0, 71, 60
1, 31615, Control_c, 0, 64, 99
1, 31629, Control_c, 0, 64, 101
1, 31638, Note_on_c, 0, 75, 79
1, 31644, Control_c, 0, 64, 104
1, 31651, Note_off_c, 0, 78, 61
1, 31659, Control_c, 0, 64, 110
1, 31674, Control_c, 0, 64, 117
1, 31683, Note_off_c, 0, 75, 60
1, 31689, Control_c, 0, 64, 127
1, 31709, Note_off_c, 0, 54, 54
1, 31713, Note_off_c, 0, 51, 60
1, 31718, Note_on_c, 0, 71, 56
1, 31754, Note_off_c, 0, 71, 48
1, 31766, Note_on_c, 0, 66, 69
1, 31797, Note_off_c, 0, 66, 66
1, 31837, Note_on_c, 0, 75, 83
1, 31837, Control_c, 0, 64, 99
1, 31852, Control_c, 0, 64, 71
1, 31867, Control_c, 0, 64, 0
1, 31898, Note_on_c, 0, 71, 64
1, 31906, Note_off_c, 0, 75, 65
1, 31911, Control_c, 0, 64, 66
1, 31926, Control_c, 0, 64, 79
1, 31941, Control_c, 0, 64, 100
1, 31955, Control_c, 0, 64, 113
1, 31969, Control_c, 0, 64, 119
1, 31970, Note_off_c, 0, 71, 62
1, 31973, Note_on_c, 0, 66, 67
1, 31984, Control_c, 0, 64, 126
1, 31999, Control_c, 0, 64, 127
1, 32004, Note_off_c, 0, 66, 69
1, 32016, Note_on_c, 0, 63, 72
1, 32043, Note_off_c, 0, 63, 67
1, 32091, Note_on_c, 0, 71, 82
1, 32133, Control_c, 0, 64, 86
1, 32147, Control_c, 0, 64, 44
1, 32157, Note_on_c, 0, 66, 76
1, 32162, Control_c, 0, 64, 0
1, 32188, Note_off_c, 0, 71, 57
1, 32192, Control_c, 0, 64, 35
1, 32207, Control_c, 0, 64, 69
1, 32221, Control_c, 0, 64, 84
1, 32224, Note_on_c, 0, 63, 72
1, 32236, Control_c, 0, 64, 98
1, 32251, Control_c, 0, 64, 105
1, 32261, Note_off_c, 0, 66, 65
1, 32267, Control_c, 0, 64, 110
1, 32282, Control_c, 0, 64, 117
1, 32285, Note_on_c, 0, 59, 77
1, 32288, Note_off_c, 0, 63, 65
1, 32297, Control_c, 0, 64, 127
1, 32363, Note_on_c, 0, 66, 80
1, 32363, Control_c, 0, 64, 103
1, 32374, Note_off_c, 0, 59, 61
1, 32377, Control_c, 0, 64, 78
1, 32392, Control_c, 0, 64, 0
1, 32401, Note_on_c, 0, 63, 77
1, 32413, Note_off_c, 0, 66, 65
1, 32437, Control_c, 0, 64, 68
1, 32440, Note_off_c, 0, 63, 62
1, 32452, Control_c, 0, 64, 82
1, 32467, Control_c, 0, 64, 100
1, 32478, Note_on_c, 0, 59, 60
1, 32482, Control_c, 0, 64, 112
1, 32496, Control_c, 0, 64, 116
1, 32511, Control_c, 0, 64, 121
1, 32526, Control_c, 0, 64, 127
1, 32535, Note_on_c, 0, 54, 64
1, 32572, Note_off_c, 0, 54, 58
1, 32598, Note_off_c, 0, 59, 23
1, 32614, Note_on_c, 0, 63, 79
1, 32615, Control_c, 0, 64, 91
1, 32630, Control_c, 0, 64, 63
1, 32644, Control_c, 0, 64, 0
1, 32671, Note_on_c, 0, 59, 60
1, 32676, Note_off_c, 0, 63, 63
1, 32689, Control_c, 0, 64, 70
1, 32704, Control_c, 0, 64, 89
1, 32718, Control_c, 0, 64, 106
1, 32733, Control_c, 0, 64, 113
1, 32740, Note_off_c, 0, 59, 63
1, 32744, Note_on_c, 0, 54, 67
1, 32748, Control_c, 0, 64, 115
1, 32763, Control_c, 0, 64, 118
1, 32777, Control_c, 0, 64, 125
1, 32783, Note_off_c, 0, 54, 64
1, 32792, Control_c, 0, 64, 127
1, 32794, Note_on_c, 0, 51, 67
1, 32819, Note_off_c, 0, 51, 65
1, 32866, Note_on_c, 0, 59, 83
1, 32866, Control_c, 0, 64, 119
1, 32881, Control_c, 0, 64, 91
1, 32896, Control_c, 0, 64, 61
1, 32911, Control_c, 0, 64, 0
1, 32929, Note_on_c, 0, 54, 70
1, 32973, Note_off_c, 0, 59, 58
1, 32985, Note_on_c, 0, 51, 69
1, 33048, Note_on_c, 0, 47, 73
1, 33058, Note_off_c, 0, 51, 63
1, 33084, Note_on_c, 0, 35, 71
1, 33116, Note_off_c, 0, 47, 56
1, 33132, Note_off_c, 0, 54, 35
1, 33148, Note_on_c, 0, 39, 72
1, 33190, Note_off_c, 0, 35, 62
1, 33209, Note_on_c, 0, 42, 75
1, 33239, Note_off_c, 0, 39, 59
1, 33273, Note_on_c, 0, 47, 86
1, 33297, Note_off_c, 0, 42, 64
1, 33316, Note_off_c, 0, 47, 65
1, 33344, Note_on_c, 0, 35, 87
1, 33397, Note_off_c, 0, 35, 63
1, 33496, Note_on_c, 0, 47, 71
1, 33525, Note_off_c, 0, 47, 66
1, 33623, Note_on_c, 0, 37, 75
1, 33657, Note_off_c, 0, 37, 69
1, 33752, Note_on_c, 0, 49, 89
1, 33790, Note_off_c, 0, 49, 64
1, 33900, Note_on_c, 0, 39, 83
1, 33903, Note_on_c, 0, 71, 83
1, 33945, Note_off_c, 0, 39, 60
1, 33965, Note_off_c, 0, 71, 59
1, 34044, Note_on_c, 0, 51, 75
1, 34044, Note_on_c, 0, 59, 60
1, 34070, Note_off_c, 0, 51, 66
1, 34076, Note_off_c, 0, 59, 65
1, 34170, Note_on_c, 0, 73, 72
1, 34196, Note_off_c, 0, 73, 62
1, 34300, Note_on_c, 0, 61, 68
1, 34336, Note_off_c, 0, 61, 63
1, 34425, Note_on_c, 0, 39, 71
1, 34425, Note_on_c, 0, 75, 85
1, 34457, Note_off_c, 0, 39, 63
1, 34458, Note_off_c, 0, 75, 66
1, 34560, Note_on_c, 0, 63, 71
1, 34566, Note_on_c, 0, 51, 61
1, 34595, Note_off_c, 0, 63, 68
1, 34612, Note_off_c, 0, 51, 61
1, 34711, Note_on_c, 0, 40, 74
1, 34749, Note_off_c, 0, 40, 66
1, 34836, Note_on_c, 0, 52, 79
1, 34877, Note_off_c, 0, 52, 65
1, 34971, Note_on_c, 0, 42, 79
1, 34971, Note_on_c, 0, 75, 74
1, 35006, Note_off_c, 0, 42, 65
1, 35027, Note_off_c, 0, 75, 62
1, 35111, Note_on_c, 0, 63, 65
1, 35120, Note_on_c, 0, 54, 70
1, 35146, Note_off_c, 0, 63, 67
1, 35146, Note_off_c, 0, 54, 64
1, 35253, Note_on_c, 0, 76, 66
1, 35292, Note_off_c, 0, 76, 62
1, 35392, Note_on_c, 0, 64, 59
1, 35424, Note_off_c, 0, 64, 66
1, 35522, Note_on_c, 0, 78, 75
1, 35552, Note_off_c, 0, 78, 60
1, 35662, Note_on_c, 0, 66, 57
1, 35692, Note_off_c, 0, 66, 67
1, 35786, Note_on_c, 0, 80, 69
1, 35825, Note_off_c, 0, 80, 56
1, 35920, Note_on_c, 0, 68, 63
1, 35955, Note_off_c, 0, 68, 63
1, 36049, Note_on_c, 0, 42, 55
1, 36058, Note_on_c, 0, 81, 69
1, 36097, Note_off_c, 0, 42, 62
1, 36106, Note_off_c, 0, 81, 56
1, 36188, Note_on_c, 0, 69, 71
1, 36193, Note_on_c, 0, 54, 58
1, 36228, Note_off_c, 0, 69, 59
1, 36235, Note_off_c, 0, 54, 59
1, 36318, Note_on_c, 0, 81, 76
1, 36325, Note_on_c, 0, 44, 54
1, 36375, Note_off_c, 0, 44, 60
1, 36377, Note_off_c, 0, 81, 57
1, 36439, Note_on_c, 0, 71, 74
1, 36445, Note_on_c, 0, 56, 57
1, 36489, Note_off_c, 0, 71, 56
1, 36490, Note_off_c, 0, 56, 57
1, 36565, Note_on_c, 0, 45, 62
1, 36573, Note_on_c, 0, 81, 73
1, 36611, Note_off_c, 0, 45, 62
1, 36619, Note_off_c, 0, 81, 53
1, 36696, Note_on_c, 0, 73, 79
1, 36700, Note_on_c, 0, 57, 54
1, 36741, Note_off_c, 0, 73, 60
1, 36742, Note_off_c, 0, 57, 57
1, 36828, Note_on_c, 0, 81, 74
1, 36840, Control_c, 0, 67, 8
1, 36841, Note_on_c, 0, 47, 61
1, 36855, Control_c, 0, 67, 15
1, 36870, Control_c, 0, 67, 30
1, 36881, Note_off_c, 0, 47, 62
1, 36885, Control_c, 0, 67, 51
1, 36893, Note_off_c, 0, 81, 54
1, 36899, Control_c, 0, 67, 76
1, 36914, Control_c, 0, 67, 99
1, 36929, Control_c, 0, 67, 122
1, 36944, Control_c, 0, 67, 127
1, 36975, Note_on_c, 0, 59, 60
1, 36977, Note_on_c, 0, 75, 72
1, 37010, Note_off_c, 0, 59, 63
1, 37020, Note_off_c, 0, 75, 58
1, 37117, Note_on_c, 0, 81, 72
1, 37127, Note_on_c, 0, 49, 48
1, 37156, Note_off_c, 0, 49, 57
1, 37184, Note_off_c, 0, 81, 58
1, 37257, Note_on_c, 0, 76, 72
1, 37266, Note_on_c, 0, 61, 59
1, 37302, Note_off_c, 0, 61, 63
1, 37307, Note_off_c, 0, 76, 61
1, 37427, Note_on_c, 0, 81, 65
1, 37448, Note_on_c, 0, 51, 32
1, 37481, Note_off_c, 0, 81, 58
1, 37483, Note_off_c, 0, 51, 51
1, 37633, Note_on_c, 0, 78, 69
1, 37641, Note_on_c, 0, 63, 43
1, 37706, Note_off_c, 0, 63, 48
1, 37716, Note_off_c, 0, 78, 60
1, 37992, Note_on_c, 0, 80, 73
1, 38008, Note_on_c, 0, 71, 44
1, 38013, Note_on_c, 0, 76, 46
1, 38015, Note_on_c, 0, 64, 35
1, 38017, Note_on_c, 0, 68, 38
1, 38183, Control_c, 0, 64, 61
1, 38198, Control_c, 0, 64, 67
1, 38213, Control_c, 0, 64, 70
1, 38228, Control_c, 0, 64, 74
1, 38243, Control_c, 0, 64, 79
1, 38257, Control_c, 0, 64, 84
1, 38272, Control_c, 0, 64, 87
1, 38287, Control_c, 0, 64, 88
1, 38301, Control_c, 0, 64, 90
1, 38315, Note_off_c, 0, 76, 53
1, 38316, Control_c, 0, 64, 91
1, 38328, Note_off_c, 0, 71, 40
1, 38329, Note_off_c, 0, 68, 51
1, 38339, Control_c, 0, 64, 92
1, 38354, Control_c, 0, 64, 94
1, 38369, Control_c, 0, 64, 95
1, 38384, Control_c, 0, 64, 95
1, 38398, Control_c, 0, 64, 96
1, 38413, Control_c, 0, 64, 96
1, 38443, Control_c, 0, 64, 97
1, 38458, Control_c, 0, 64, 97
1, 38472, Control_c, 0, 64, 98
1, 38514, Note_off_c, 0, 80, 56
1, 38531, Control_c, 0, 64, 98
1, 38618, Note_off_c, 0, 64, 35
1, 38678, Note_on_c, 0, 78, 76
1, 38681, Control_c, 0, 64, 97
1, 38689, Note_on_c, 0, 66, 43
1, 38695, Control_c, 0, 64, 93
1, 38699, Note_on_c, 0, 63, 38
1, 38703, Note_on_c, 0, 59, 36
1, 38703, Note_on_c, 0, 75, 48
1, 38710, Control_c, 0, 64, 85
1, 38711, Note_on_c, 0, 69, 38
1, 38725, Control_c, 0, 64, 72
1, 38739, Control_c, 0, 64, 0
1, 38752, Note_off_c, 0, 75, 48
1, 38784, Control_c, 0, 64, 54
1, 38799, Control_c, 0, 64, 70
1, 38809, Note_off_c, 0, 69, 38
1, 38813, Control_c, 0, 64, 80
1, 38828, Control_c, 0, 64, 87
1, 38841, Note_off_c, 0, 66, 63
1, 38843, Control_c, 0, 64, 88
1, 38873, Control_c, 0, 64, 88
1, 38888, Control_c, 0, 64, 89
1, 38902, Control_c, 0, 64, 89
1, 38917, Control_c, 0, 64, 90
1, 38931, Note_off_c, 0, 59, 38
1, 38932, Note_off_c, 0, 78, 59
1, 38989, Note_on_c, 0, 76, 73
1, 38999, Note_on_c, 0, 61, 44
1, 39004, Note_on_c, 0, 64, 38
1, 39006, Control_c, 0, 64, 86
1, 39012, Note_on_c, 0, 68, 49
1, 39013, Note_on_c, 0, 73, 45
1, 39021, Control_c, 0, 64, 77
1, 39036, Control_c, 0, 64, 63
1, 39042, Note_off_c, 0, 63, 33
1, 39051, Control_c, 0, 64, 0
1, 39117, Control_c, 0, 64, 38
1, 39132, Control_c, 0, 64, 67
1, 39147, Control_c, 0, 64, 74
1, 39162, Control_c, 0, 64, 81
1, 39168, Note_off_c, 0, 73, 37
1, 39177, Control_c, 0, 64, 84
1, 39184, Note_off_c, 0, 61, 61
1, 39192, Control_c, 0, 64, 84
1, 39206, Control_c, 0, 64, 85
1, 39218, Note_off_c, 0, 68, 52
1, 39221, Control_c, 0, 64, 87
1, 39236, Control_c, 0, 64, 89
1, 39251, Control_c, 0, 64, 91
1, 39265, Control_c, 0, 64, 92
1, 39320, Note_off_c, 0, 64, 37
1, 39326, Note_off_c, 0, 76, 62
1, 39339, Control_c, 0, 64, 91
1, 39345, Note_on_c, 0, 75, 67
1, 39354, Control_c, 0, 64, 87
1, 39356, Note_on_c, 0, 72, 54
1, 39356, Note_on_c, 0, 66, 55
1, 39358, Note_on_c, 0, 63, 43
1, 39364, Note_on_c, 0, 60, 42
1, 39369, Control_c, 0, 64, 79
1, 39370, Note_on_c, 0, 56, 40
1, 39384, Control_c, 0, 64, 68
1, 39399, Control_c, 0, 64, 0
1, 39592, Control_c, 0, 64, 60
1, 39607, Note_off_c, 0, 66, 43
1, 39607, Control_c, 0, 64, 65
1, 39622, Control_c, 0, 64, 68
1, 39636, Control_c, 0, 64, 72
1, 39651, Control_c, 0, 64, 77
1, 39666, Control_c, 0, 64, 81
1, 39680, Control_c, 0, 64, 83
1, 39695, Control_c, 0, 64, 85
1, 39710, Control_c, 0, 64, 86
1, 39725, Control_c, 0, 64, 87
1, 39727, Note_off_c, 0, 56, 40
1, 39740, Control_c, 0, 64, 89
1, 39755, Control_c, 0, 64, 90
1, 39758, Note_off_c, 0, 60, 34
1, 39770, Control_c, 0, 64, 91
1, 39785, Control_c, 0, 64, 92
1, 39815, Control_c, 0, 64, 92
1, 40012, Note_off_c, 0, 72, 42
1, 40029, Control_c, 0, 64, 92
1, 40044, Control_c, 0, 64, 89
1, 40046, Note_on_c, 0, 73, 60
1, 40051, Note_off_c, 0, 75, 50
1, 40054, Note_on_c, 0, 61, 37
1, 40059, Control_c, 0, 64, 84
1, 40062, Note_on_c, 0, 64, 26
1, 40062, Note_on_c, 0, 57, 33
1, 40074, Control_c, 0, 64, 75
1, 40085, Note_off_c, 0, 63, 37
1, 40088, Control_c, 0, 64, 63
1, 40103, Control_c, 0, 64, 0
1, 40235, Control_c, 0, 64, 36
1, 40251, Control_c, 0, 64, 63
1, 40266, Control_c, 0, 64, 68
1, 40281, Control_c, 0, 64, 71
1, 40296, Control_c, 0, 64, 75
1, 40310, Control_c, 0, 64, 78
1, 40323, Note_off_c, 0, 57, 40
1, 40325, Control_c, 0, 64, 80
1, 40332, Note_off_c, 0, 64, 36
1, 40340, Control_c, 0, 64, 81
1, 40355, Control_c, 0, 64, 82
1, 40370, Control_c, 0, 64, 83
1, 40381, Note_off_c, 0, 73, 61
1, 40384, Control_c, 0, 64, 84
1, 40399, Control_c, 0, 64, 86
1, 40414, Control_c, 0, 64, 87
1, 40416, Note_off_c, 0, 61, 47
1, 40429, Control_c, 0, 64, 88
1, 40444, Control_c, 0, 64, 88
1, 40458, Control_c, 0, 64, 89
1, 40473, Control_c, 0, 64, 89
1, 40518, Control_c, 0, 64, 90
1, 40742, Note_on_c, 0, 75, 75
1, 40748, Control_c, 0, 64, 89
1, 40760, Note_on_c, 0, 57, 42
1, 40763, Control_c, 0, 64, 85
1, 40764, Note_on_c, 0, 63, 40
1, 40769, Note_on_c, 0, 69, 42
1, 40771, Note_on_c, 0, 71, 34
1, 40771, Note_on_c, 0, 54, 37
1, 40774, Note_on_c, 0, 59, 41
1, 40777, Control_c, 0, 64, 78
1, 40792, Control_c, 0, 64, 66
1, 40807, Control_c, 0, 64, 0
1, 40881, Control_c, 0, 64, 35
1, 40896, Control_c, 0, 64, 65
1, 40910, Control_c, 0, 64, 71
1, 40925, Control_c, 0, 64, 79
1, 40925, Control_c, 0, 67, 122
1, 40940, Control_c, 0, 64, 82
1, 40940, Control_c, 0, 67, 96
1, 40955, Control_c, 0, 64, 82
1, 40955, Control_c, 0, 67, 64
1, 40970, Control_c, 0, 64, 83
1, 40970, Control_c, 0, 67, 31
1, 40984, Control_c, 0, 64, 84
1, 40984, Control_c, 0, 67, 0
1, 40999, Control_c, 0, 64, 86
1, 41006, Note_off_c, 0, 69, 42
1, 41014, Control_c, 0, 64, 87
1, 41021, Note_off_c, 0, 71, 36
1, 41028, Control_c, 0, 64, 89
1, 41043, Control_c, 0, 64, 90
1, 41049, Note_off_c, 0, 75, 60
1, 41049, Note_off_c, 0, 57, 47
1, 41060, Control_c, 0, 64, 91
1, 41074, Control_c, 0, 64, 91
1, 41089, Control_c, 0, 64, 92
1, 41092, Note_off_c, 0, 54, 40
1, 41104, Control_c, 0, 64, 93
1, 41119, Control_c, 0, 64, 93
1, 41133, Control_c, 0, 64, 94
1, 41141, Note_off_c, 0, 59, 38
1, 41148, Control_c, 0, 64, 94
1, 41163, Control_c, 0, 64, 95
1, 41178, Control_c, 0, 64, 95
1, 41193, Control_c, 0, 64, 96
1, 41200, Note_off_c, 0, 63, 41
1, 41207, Control_c, 0, 64, 96
1, 41237, Control_c, 0, 64, 97
1, 41281, Control_c, 0, 64, 97
1, 41378, Control_c, 0, 64, 93
1, 41380, Note_on_c, 0, 76, 80
1, 41391, Note_on_c, 0, 71, 66
1, 41393, Control_c, 0, 64, 81
1, 41397, Note_on_c, 0, 64, 54
1, 41401, Note_on_c, 0, 59, 49
1, 41403, Note_on_c, 0, 56, 49
1, 41407, Control_c, 0, 64, 60
1, 41422, Control_c, 0, 64, 0
1, 41467, Control_c, 0, 64, 50
1, 41481, Control_c, 0, 64, 68
1, 41483, Note_off_c, 0, 64, 63
1, 41493, Note_off_c, 0, 59, 60
1, 41496, Control_c, 0, 64, 77
1, 41511, Control_c, 0, 64, 83
1, 41523, Note_off_c, 0, 56, 55
1, 41526, Control_c, 0, 64, 84
1, 41541, Control_c, 0, 64, 85
1, 41541, Note_off_c, 0, 76, 60
1, 41555, Control_c, 0, 64, 86
1, 41570, Control_c, 0, 64, 87
1, 41585, Control_c, 0, 64, 88
1, 41600, Control_c, 0, 64, 90
1, 41615, Control_c, 0, 64, 92
1, 41630, Control_c, 0, 64, 93
1, 41645, Control_c, 0, 64, 94
1, 41648, Note_off_c, 0, 71, 32
1, 41682, Note_on_c, 0, 78, 86
1, 41689, Control_c, 0, 64, 90
1, 41693, Note_on_c, 0, 73, 72
1, 41701, Note_on_c, 0, 61, 64
1, 41701, Note_on_c, 0, 66, 64
1, 41704, Control_c, 0, 64, 76
1, 41704, Note_on_c, 0, 57, 58
1, 41709, Note_on_c, 0, 76, 58
1, 41719, Control_c, 0, 64, 0
1, 41778, Control_c, 0, 64, 34
1, 41793, Control_c, 0, 64, 70
1, 41807, Control_c, 0, 64, 81
1, 41809, Note_off_c, 0, 57, 61
1, 41822, Control_c, 0, 64, 89
1, 41824, Note_off_c, 0, 61, 61
1, 41837, Control_c, 0, 64, 90
1, 41853, Control_c, 0, 64, 91
1, 41854, Note_off_c, 0, 76, 38
1, 41868, Control_c, 0, 64, 92
1, 41883, Control_c, 0, 64, 94
1, 41889, Note_off_c, 0, 66, 59
1, 41897, Control_c, 0, 64, 96
1, 41912, Control_c, 0, 64, 97
1, 41927, Control_c, 0, 64, 99
1, 41929, Note_off_c, 0, 78, 59
1, 41942, Control_c, 0, 64, 100
1, 41956, Control_c, 0, 64, 101
1, 41971, Control_c, 0, 64, 102
1, 41986, Control_c, 0, 64, 103
1, 42001, Control_c, 0, 64, 104
1, 42016, Control_c, 0, 64, 105
1, 42092, Note_on_c, 0, 80, 89
1, 42097, Control_c, 0, 64, 102
1, 42101, Note_on_c, 0, 76, 76
1, 42104, Note_on_c, 0, 71, 63
1, 42111, Note_on_c, 0, 64, 57
1, 42112, Control_c, 0, 64, 95
1, 42114, Note_on_c, 0, 68, 61
1, 42120, Note_off_c, 0, 73, 61
1, 42123, Note_on_c, 0, 59, 45
1, 42127, Control_c, 0, 64, 84
1, 42142, Control_c, 0, 64, 68
1, 42156, Control_c, 0, 64, 0
1, 42349, Control_c, 0, 67, 8
1, 42363, Control_c, 0, 64, 55
1, 42363, Control_c, 0, 67, 15
1, 42378, Control_c, 0, 64, 64
1, 42378, Control_c, 0, 67, 29
1, 42393, Control_c, 0, 64, 67
1, 42393, Control_c, 0, 67, 51
1, 42408, Control_c, 0, 64, 70
1, 42408, Control_c, 0, 67, 70
1, 42423, Control_c, 0, 64, 75
1, 42423, Control_c, 0, 67, 87
1, 42438, Control_c, 0, 64, 79
1, 42438, Control_c, 0, 67, 100
1, 42452, Control_c, 0, 64, 81
1, 42452, Control_c, 0, 67, 112
1, 42467, Control_c, 0, 64, 83
1, 42467, Control_c, 0, 67, 122
1, 42481, Control_c, 0, 64, 84
1, 42481, Control_c, 0, 67, 127
1, 42488, Note_off_c, 0, 68, 60
1, 42494, Note_off_c, 0, 76, 57
1, 42496, Control_c, 0, 64, 86
1, 42511, Control_c, 0, 64, 87
1, 42526, Control_c, 0, 64, 89
1, 42541, Control_c, 0, 64, 90
1, 42555, Control_c, 0, 64, 91
1, 42570, Control_c, 0, 64, 92
1, 42600, Control_c, 0, 64, 92
1, 42629, Control_c, 0, 64, 93
1, 42808, Control_c, 0, 64, 92
1, 42831, Control_c, 0, 64, 91
1, 42838, Note_on_c, 0, 66, 40
1, 42838, Note_on_c, 0, 78, 71
1, 42846, Control_c, 0, 64, 87
1, 42850, Note_on_c, 0, 63, 42
1, 42852, Note_off_c, 0, 64, 38
1, 42856, Note_on_c, 0, 75, 48
1, 42860, Control_c, 0, 64, 78
1, 42875, Control_c, 0, 64, 65
1, 42890, Control_c, 0, 64, 0
1, 42903, Note_off_c, 0, 80, 54
1, 42993, Control_c, 0, 64, 54
1, 43008, Control_c, 0, 64, 66
1, 43023, Control_c, 0, 64, 72
1, 43024, Note_off_c, 0, 71, 59
1, 43038, Control_c, 0, 64, 78
1, 43052, Control_c, 0, 64, 81
1, 43067, Control_c, 0, 64, 82
1, 43082, Control_c, 0, 64, 82
1, 43087, Note_off_c, 0, 66, 64
1, 43097, Control_c, 0, 64, 83
1, 43111, Control_c, 0, 64, 84
1, 43126, Control_c, 0, 64, 85
1, 43141, Control_c, 0, 64, 86
1, 43156, Control_c, 0, 64, 87
1, 43171, Control_c, 0, 64, 87
1, 43174, Note_off_c, 0, 63, 40
1, 43201, Control_c, 0, 64, 88
1, 43204, Note_off_c, 0, 59, 38
1, 43222, Note_off_c, 0, 75, 40
1, 43229, Note_on_c, 0, 69, 60
1, 43231, Control_c, 0, 64, 88
1, 43240, Note_off_c, 0, 78, 61
1, 43290, Control_c, 0, 64, 89
1, 43326, Note_off_c, 0, 69, 61
1, 43334, Control_c, 0, 64, 89
1, 43364, Control_c, 0, 64, 90
1, 43393, Control_c, 0, 64, 90
1, 43408, Control_c, 0, 64, 91
1, 43422, Control_c, 0, 64, 91
1, 43437, Control_c, 0, 64, 92
1, 43454, Control_c, 0, 64, 92
1, 43498, Control_c, 0, 64, 93
1, 43557, Control_c, 0, 64, 93
1, 43713, Control_c, 0, 64, 93
1, 43727, Control_c, 0, 64, 92
1, 43732, Note_on_c, 0, 68, 63
1, 43742, Control_c, 0, 64, 91
1, 43746, Note_on_c, 0, 52, 43
1, 43749, Note_on_c, 0, 64, 47
1, 43752, Note_on_c, 0, 56, 31
1, 43757, Control_c, 0, 64, 89
1, 43761, Note_on_c, 0, 59, 35
1, 43772, Control_c, 0, 64, 85
1, 43787, Control_c, 0, 64, 80
1, 43801, Control_c, 0, 64, 73
1, 43816, Control_c, 0, 64, 61
1, 43831, Control_c, 0, 64, 0
1, 43949, Control_c, 0, 64, 59
1, 43964, Control_c, 0, 64, 66
1, 43979, Control_c, 0, 64, 70
1, 43994, Control_c, 0, 64, 74
1, 44009, Control_c, 0, 64, 77
1, 44024, Control_c, 0, 64, 79
1, 44039, Control_c, 0, 64, 81
1, 44053, Control_c, 0, 64, 82
1, 44068, Control_c, 0, 64, 83
1, 44083, Control_c, 0, 64, 84
1, 44098, Control_c, 0, 64, 85
1, 44113, Control_c, 0, 64, 86
1, 44127, Control_c, 0, 64, 87
1, 44142, Control_c, 0, 64, 88
1, 44145, Note_off_c, 0, 59, 38
1, 44146, Note_off_c, 0, 64, 56
1, 44172, Control_c, 0, 64, 89
1, 44176, Note_off_c, 0, 56, 34
1, 44201, Control_c, 0, 64, 89
1, 44231, Control_c, 0, 64, 90
1, 44277, Control_c, 0, 64, 90
1, 44311, Note_off_c, 0, 68, 56
1, 44406, Note_off_c, 0, 52, 34
1, 44432, Control_c, 0, 64, 90
1, 44444, Note_on_c, 0, 66, 66
1, 44447, Control_c, 0, 64, 87
1, 44460, Note_on_c, 0, 47, 39
1, 44462, Control_c, 0, 64, 80
1, 44466, Note_on_c, 0, 63, 51
1, 44468, Note_on_c, 0, 57, 42
1, 44476, Control_c, 0, 64, 67
1, 44485, Note_on_c, 0, 51, 34
1, 44491, Control_c, 0, 64, 0
1, 44550, Control_c, 0, 64, 61
1, 44559, Note_off_c, 0, 63, 52
1, 44565, Control_c, 0, 64, 70
1, 44580, Control_c, 0, 64, 76
1, 44584, Note_off_c, 0, 57, 40
1, 44595, Control_c, 0, 64, 79
1, 44610, Control_c, 0, 64, 79
1, 44639, Control_c, 0, 64, 80
1, 44654, Control_c, 0, 64, 81
1, 44669, Control_c, 0, 64, 82
1, 44683, Control_c, 0, 64, 83
1, 44721, Note_off_c, 0, 66, 61
1, 44743, Control_c, 0, 64, 82
1, 44745, Note_off_c, 0, 47, 43
1, 44750, Note_off_c, 0, 51, 32
1, 44758, Note_on_c, 0, 64, 66
1, 44758, Control_c, 0, 64, 79
1, 44764, Note_on_c, 0, 61, 59
1, 44768, Note_on_c, 0, 49, 46
1, 44773, Control_c, 0, 64, 72
1, 44775, Note_on_c, 0, 52, 42
1, 44785, Note_on_c, 0, 56, 42
1, 44788, Control_c, 0, 64, 44
1, 44803, Control_c, 0, 64, 0
1, 44831, Note_off_c, 0, 61, 0
1, 44854, Note_off_c, 0, 56, 0
1, 44854, Note_on_c, 0, 56, 3
1, 44860, Poly_aftertouch_c, 0, 61, 0
1, 44862, Control_c, 0, 64, 63
1, 44876, Control_c, 0, 64, 69
1, 44891, Control_c, 0, 64, 74
1, 44906, Control_c, 0, 64, 78
1, 44921, Control_c, 0, 64, 79
1, 44928, Note_off_c, 0, 49, 59
1, 44936, Control_c, 0, 64, 80
1, 44942, Note_off_c, 0, 56, 37
1, 44951, Control_c, 0, 64, 82
1, 44966, Control_c, 0, 64, 83
1, 44980, Control_c, 0, 64, 84
1, 44994, Note_off_c, 0, 64, 61
1, 44995, Control_c, 0, 64, 85
1, 45010, Control_c, 0, 64, 85
1, 45078, Note_off_c, 0, 52, 42
1, 45107, Control_c, 0, 64, 83
1, 45116, Note_on_c, 0, 63, 65
1, 45122, Control_c, 0, 64, 77
1, 45126, Note_on_c, 0, 54, 48
1, 45131, Note_on_c, 0, 51, 40
1, 45135, Note_on_c, 0, 44, 34
1, 45135, Note_on_c, 0, 48, 44
1, 45135, Note_on_c, 0, 60, 48
1, 45137, Control_c, 0, 64, 67
1, 45152, Control_c, 0, 64, 0
1, 45285, Control_c, 0, 64, 58
1, 45300, Control_c, 0, 64, 66
1, 45314, Control_c, 0, 64, 70
1, 45329, Control_c, 0, 64, 75
1, 45344, Control_c, 0, 64, 77
1, 45359, Control_c, 0, 64, 79
1, 45374, Control_c, 0, 64, 80
1, 45380, Note_off_c, 0, 54, 40
1, 45389, Control_c, 0, 64, 81
1, 45404, Control_c, 0, 64, 83
1, 45419, Control_c, 0, 64, 84
1, 45434, Control_c, 0, 64, 85
1, 45435, Note_off_c, 0, 44, 40
1, 45440, Note_off_c, 0, 48, 40
1, 45448, Control_c, 0, 64, 86
1, 45463, Control_c, 0, 64, 87
1, 45478, Control_c, 0, 64, 87
1, 45507, Control_c, 0, 64, 88
1, 45615, Note_off_c, 0, 60, 37
1, 45741, Note_off_c, 0, 51, 34
1, 45773, Control_c, 0, 64, 86
1, 45788, Control_c, 0, 64, 83
1, 45792, Note_on_c, 0, 61, 52
1, 45795, Note_off_c, 0, 63, 49
1, 45803, Note_on_c, 0, 52, 33
1, 45803, Control_c, 0, 64, 75
1, 45808, Note_on_c, 0, 49, 36
1, 45812, Note_on_c, 0, 45, 34
1, 45812, Note_on_c, 0, 57, 35
1, 45825, Control_c, 0, 64, 62
1, 45840, Control_c, 0, 64, 0
1, 45975, Control_c, 0, 64, 59
1, 45990, Control_c, 0, 64, 67
1, 46004, Control_c, 0, 64, 72
1, 46019, Control_c, 0, 64, 76
1, 46034, Control_c, 0, 64, 78
1, 46042, Note_off_c, 0, 52, 42
1, 46046, Note_off_c, 0, 61, 62
1, 46049, Control_c, 0, 64, 79
1, 46064, Control_c, 0, 64, 80
1, 46078, Control_c, 0, 64, 81
1, 46088, Note_off_c, 0, 49, 40
1, 46093, Control_c, 0, 64, 82
1, 46108, Control_c, 0, 64, 83
1, 46111, Note_off_c, 0, 57, 40
1, 46122, Control_c, 0, 64, 84
1, 46137, Control_c, 0, 64, 85
1, 46147, Note_off_c, 0, 45, 43
1, 46152, Control_c, 0, 64, 85
1, 46167, Control_c, 0, 64, 86
1, 46212, Control_c, 0, 64, 86
1, 46493, Control_c, 0, 64, 84
1, 46507, Note_on_c, 0, 59, 66
1, 46508, Control_c, 0, 64, 79
1, 46513, Note_on_c, 0, 47, 54
1, 46513, Note_on_c, 0, 56, 61
1, 46516, Note_on_c, 0, 35, 49
1, 46522, Control_c, 0, 64, 68
1, 46530, Note_on_c, 0, 52, 44
1, 46537, Control_c, 0, 64, 0
1, 46604, Control_c, 0, 64, 10
1, 46619, Control_c, 0, 64, 63
1, 46634, Control_c, 0, 64, 69
1, 46650, Control_c, 0, 64, 73
1, 46665, Control_c, 0, 64, 77
1, 46677, Note_off_c, 0, 52, 50
1, 46680, Control_c, 0, 64, 78
1, 46694, Control_c, 0, 64, 79
1, 46700, Note_off_c, 0, 56, 62
1, 46709, Control_c, 0, 64, 79
1, 46724, Control_c, 0, 64, 80
1, 46739, Control_c, 0, 64, 80
1, 46753, Control_c, 0, 64, 81
1, 46830, Note_on_c, 0, 57, 55
1, 46842, Control_c, 0, 64, 80
1, 46850, Note_on_c, 0, 54, 54
1, 46857, Control_c, 0, 64, 75
1, 46871, Control_c, 0, 64, 62
1, 46886, Control_c, 0, 64, 0
1, 46960, Control_c, 0, 64, 21
1, 46975, Control_c, 0, 64, 63
1, 46990, Control_c, 0, 64, 67
1, 47005, Control_c, 0, 64, 71
1, 47019, Control_c, 0, 64, 75
1, 47034, Control_c, 0, 64, 78
1, 47049, Control_c, 0, 64, 79
1, 47064, Control_c, 0, 64, 80
1, 47064, Note_off_c, 0, 35, 48
1, 47078, Control_c, 0, 64, 80
1, 47093, Control_c, 0, 64, 81
1, 47108, Control_c, 0, 64, 82
1, 47135, Note_off_c, 0, 47, 46
1, 47138, Control_c, 0, 64, 82
1, 47165, Note_on_c, 0, 61, 68
1, 47167, Control_c, 0, 64, 83
1, 47226, Control_c, 0, 64, 83
1, 47287, Note_off_c, 0, 57, 59
1, 47290, Note_off_c, 0, 59, 27
1, 47412, Control_c, 0, 64, 84
1, 47508, Note_on_c, 0, 63, 70
1, 47539, Note_off_c, 0, 61, 56
1, 47604, Note_off_c, 0, 54, 55
1, 47664, Note_off_c, 0, 63, 61
1, 47917, Control_c, 0, 64, 83
1, 47932, Control_c, 0, 64, 79
1, 47940, Note_on_c, 0, 64, 56
1, 47946, Control_c, 0, 64, 68
1, 47961, Note_on_c, 0, 56, 44
1, 47961, Control_c, 0, 64, 0
1, 47970, Note_on_c, 0, 52, 42
1, 47972, Note_on_c, 0, 40, 42
1, 48023, Note_off_c, 0, 56, 55
1, 48035, Control_c, 0, 64, 61
1, 48050, Control_c, 0, 64, 69
1, 48072, Control_c, 0, 64, 74
1, 48077, Note_off_c, 0, 64, 51
1, 48087, Control_c, 0, 64, 77
1, 48089, Note_on_c, 0, 66, 53
1, 48101, Control_c, 0, 64, 78
1, 48122, Note_off_c, 0, 52, 57
1, 48124, Note_off_c, 0, 40, 34
1, 48131, Control_c, 0, 64, 78
1, 48146, Control_c, 0, 64, 79
1, 48184, Note_off_c, 0, 66, 53
1, 48190, Note_on_c, 0, 68, 56
1, 48262, Note_off_c, 0, 68, 62
1, 48307, Note_on_c, 0, 69, 55
1, 48310, Control_c, 0, 64, 78
1, 48325, Control_c, 0, 64, 76
1, 48340, Control_c, 0, 64, 73
1, 48355, Control_c, 0, 64, 67
1, 48367, Note_off_c, 0, 69, 56
1, 48370, Control_c, 0, 64, 51
1, 48385, Control_c, 0, 64, 0
1, 48396, Note_on_c, 0, 71, 62
1, 48460, Note_off_c, 0, 71, 58
1, 48504, Note_on_c, 0, 73, 65
1, 48579, Note_off_c, 0, 73, 63
1, 48590, Note_on_c, 0, 74, 68
1, 48669, Note_off_c, 0, 74, 61
1, 48697, Note_on_c, 0, 75, 66
1, 48765, Note_off_c, 0, 75, 63
1, 48791, Note_on_c, 0, 76, 66
1, 48860, Note_off_c, 0, 76, 61
1, 48894, Note_on_c, 0, 77, 70
1, 48964, Note_off_c, 0, 77, 50
1, 48993, Note_on_c, 0, 78, 62
1, 49071, Note_off_c, 0, 78, 53
1, 49073, Control_c, 0, 64, 39
1, 49088, Control_c, 0, 64, 52
1, 49103, Note_on_c, 0, 79, 55
1, 49103, Control_c, 0, 64, 58
1, 49118, Control_c, 0, 64, 61
1, 49133, Control_c, 0, 64, 63
1, 49148, Control_c, 0, 64, 64
1, 49155, Note_off_c, 0, 79, 57
1, 49163, Control_c, 0, 64, 65
1, 49178, Control_c, 0, 64, 65
1, 49192, Control_c, 0, 64, 66
1, 49281, Control_c, 0, 64, 65
1, 49296, Note_on_c, 0, 68, 55
1, 49296, Control_c, 0, 64, 64
1, 49299, Note_on_c, 0, 64, 41
1, 49311, Control_c, 0, 64, 61
1, 49326, Control_c, 0, 64, 43
1, 49327, Note_on_c, 0, 80, 42
1, 49333, Note_on_c, 0, 71, 33
1, 49340, Control_c, 0, 64, 0
1, 49385, Note_off_c, 0, 80, 46
1, 49397, Note_off_c, 0, 71, 0
1, 49431, Note_on_c, 0, 79, 51
1, 49434, Poly_aftertouch_c, 0, 71, 127
1, 49458, Control_c, 0, 64, 54
1, 49473, Control_c, 0, 64, 65
1, 49488, Control_c, 0, 64, 68
1, 49503, Control_c, 0, 64, 70
1, 49514, Note_off_c, 0, 79, 37
1, 49515, Note_on_c, 0, 80, 61
1, 49518, Control_c, 0, 64, 72
1, 49533, Control_c, 0, 64, 74
1, 49547, Control_c, 0, 64, 77
1, 49570, Control_c, 0, 64, 79
1, 49585, Control_c, 0, 64, 80
1, 49600, Control_c, 0, 64, 80
1, 49612, Note_off_c, 0, 80, 60
1, 49615, Control_c, 0, 64, 81
1, 49631, Note_on_c, 0, 81, 63
1, 49644, Control_c, 0, 64, 81
1, 49658, Note_off_c, 0, 64, 55
1, 49659, Control_c, 0, 64, 82
1, 49695, Note_off_c, 0, 81, 60
1, 49703, Control_c, 0, 64, 82
1, 49738, Note_on_c, 0, 79, 54
1, 49780, Poly_aftertouch_c, 0, 71, 0
1, 49810, Note_off_c, 0, 79, 48
1, 49833, Note_on_c, 0, 80, 54
1, 49872, Note_off_c, 0, 80, 47
1, 49926, Control_c, 0, 64, 81
1, 49932, Note_on_c, 0, 66, 70
1, 49941, Control_c, 0, 64, 75
1, 49944, Note_on_c, 0, 59, 37
1, 49950, Note_on_c, 0, 69, 54
1, 49955, Note_on_c, 0, 63, 45
1, 49956, Control_c, 0, 64, 64
1, 49967, Note_off_c, 0, 68, 64
1, 49971, Control_c, 0, 64, 0
1, 49984, Note_off_c, 0, 69, 51
1, 50030, Control_c, 0, 64, 45
1, 50045, Control_c, 0, 64, 65
1, 50051, Note_on_c, 0, 80, 53
1, 50060, Control_c, 0, 64, 70
1, 50075, Control_c, 0, 64, 73
1, 50089, Control_c, 0, 64, 75
1, 50095, Note_off_c, 0, 80, 58
1, 50104, Control_c, 0, 64, 77
1, 50119, Control_c, 0, 64, 78
1, 50134, Control_c, 0, 64, 79
1, 50140, Note_off_c, 0, 63, 31
1, 50149, Note_on_c, 0, 78, 62
1, 50149, Control_c, 0, 64, 79
1, 50163, Control_c, 0, 64, 80
1, 50178, Control_c, 0, 64, 80
1, 50182, Note_off_c, 0, 59, 38
1, 50188, Note_off_c, 0, 78, 61
1, 50239, Note_off_c, 0, 66, 60
1, 50244, Note_on_c, 0, 64, 65
1, 50252, Control_c, 0, 64, 78
1, 50256, Note_on_c, 0, 68, 57
1, 50260, Note_on_c, 0, 61, 39
1, 50267, Control_c, 0, 64, 70
1, 50282, Control_c, 0, 64, 0
1, 50349, Control_c, 0, 64, 22
1, 50363, Control_c, 0, 64, 64
1, 50378, Control_c, 0, 64, 71
1, 50387, Note_on_c, 0, 78, 53
1, 50393, Control_c, 0, 64, 75
1, 50408, Control_c, 0, 64, 78
1, 50409, Note_off_c, 0, 61, 61
1, 50415, Note_off_c, 0, 68, 58
1, 50422, Control_c, 0, 64, 79
1, 50437, Control_c, 0, 64, 79
1, 50452, Control_c, 0, 64, 80
1, 50456, Note_off_c, 0, 78, 49
1, 50467, Control_c, 0, 64, 81
1, 50481, Note_on_c, 0, 76, 50
1, 50482, Control_c, 0, 64, 82
1, 50496, Control_c, 0, 64, 83
1, 50524, Note_off_c, 0, 76, 49
1, 50558, Note_off_c, 0, 64, 53
1, 50592, Note_on_c, 0, 63, 65
1, 50600, Control_c, 0, 64, 82
1, 50609, Note_on_c, 0, 60, 52
1, 50614, Note_on_c, 0, 56, 40
1, 50614, Control_c, 0, 64, 78
1, 50615, Note_on_c, 0, 66, 50
1, 50629, Control_c, 0, 64, 69
1, 50646, Control_c, 0, 64, 0
1, 50731, Note_on_c, 0, 72, 49
1, 50764, Control_c, 0, 64, 44
1, 50766, Note_off_c, 0, 66, 39
1, 50779, Control_c, 0, 64, 61
1, 50793, Control_c, 0, 64, 64
1, 50808, Control_c, 0, 64, 65
1, 50823, Control_c, 0, 64, 65
1, 50837, Note_on_c, 0, 75, 34
1, 50838, Control_c, 0, 64, 67
1, 50853, Control_c, 0, 64, 69
1, 50868, Control_c, 0, 64, 73
1, 50883, Control_c, 0, 64, 76
1, 50886, Note_off_c, 0, 72, 26
1, 50898, Control_c, 0, 64, 78
1, 50912, Control_c, 0, 64, 78
1, 50917, Note_on_c, 0, 76, 47
1, 50927, Control_c, 0, 64, 79
1, 50942, Control_c, 0, 64, 80
1, 50953, Note_off_c, 0, 56, 38
1, 50957, Control_c, 0, 64, 80
1, 50972, Control_c, 0, 64, 81
1, 50976, Note_off_c, 0, 60, 47
1, 50986, Control_c, 0, 64, 81
1, 50999, Note_off_c, 0, 75, 19
1, 51001, Control_c, 0, 64, 82
1, 51016, Note_off_c, 0, 76, 37
1, 51022, Note_on_c, 0, 72, 53
1, 51045, Control_c, 0, 64, 82
1, 51111, Note_off_c, 0, 72, 56
1, 51130, Note_on_c, 0, 75, 46
1, 51164, Note_off_c, 0, 75, 53
1, 51239, Note_on_c, 0, 61, 50
1, 51245, Control_c, 0, 64, 82
1, 51247, Note_on_c, 0, 57, 42
1, 51255, Note_on_c, 0, 64, 35
1, 51260, Control_c, 0, 64, 79
1, 51261, Note_off_c, 0, 63, 39
1, 51275, Control_c, 0, 64, 70
1, 51290, Control_c, 0, 64, 0
1, 51330, Note_on_c, 0, 69, 46
1, 51379, Control_c, 0, 64, 38
1, 51393, Control_c, 0, 64, 63
1, 51406, Note_off_c, 0, 69, 48
1, 51408, Control_c, 0, 64, 67
1, 51423, Control_c, 0, 64, 69
1, 51425, Note_on_c, 0, 73, 51
1, 51439, Control_c, 0, 64, 72
1, 51454, Control_c, 0, 64, 74
1, 51459, Note_off_c, 0, 64, 38
1, 51468, Control_c, 0, 64, 76
1, 51476, Note_off_c, 0, 57, 52
1, 51483, Control_c, 0, 64, 78
1, 51485, Note_off_c, 0, 73, 55
1, 51498, Control_c, 0, 64, 78
1, 51513, Control_c, 0, 64, 79
1, 51528, Control_c, 0, 64, 79
1, 51542, Control_c, 0, 64, 80
1, 51543, Note_on_c, 0, 75, 40
1, 51557, Control_c, 0, 64, 81
1, 51565, Note_off_c, 0, 61, 60
1, 51572, Control_c, 0, 64, 82
1, 51580, Note_off_c, 0, 75, 50
1, 51602, Control_c, 0, 64, 82
1, 51616, Control_c, 0, 64, 83
1, 51645, Note_on_c, 0, 69, 50
1, 51646, Control_c, 0, 64, 83
1, 51661, Control_c, 0, 64, 84
1, 51676, Control_c, 0, 64, 84
1, 51720, Control_c, 0, 64, 85
1, 51723, Note_off_c, 0, 69, 38
1, 51738, Note_on_c, 0, 73, 55
1, 51781, Note_off_c, 0, 73, 56
1, 51861, Control_c, 0, 64, 84
1, 51863, Note_on_c, 0, 63, 63
1, 51871, Note_on_c, 0, 57, 47
1, 51872, Note_on_c, 0, 59, 49
1, 51875, Control_c, 0, 64, 82
1, 51884, Note_on_c, 0, 54, 38
1, 51890, Control_c, 0, 64, 76
1, 51894, Note_on_c, 0, 69, 46
1, 51905, Control_c, 0, 64, 64
1, 51920, Control_c, 0, 64, 0
1, 51987, Note_off_c, 0, 69, 58
1, 51994, Note_on_c, 0, 74, 51
1, 52009, Control_c, 0, 64, 52
1, 52024, Control_c, 0, 64, 64
1, 52039, Control_c, 0, 64, 68
1, 52054, Control_c, 0, 64, 70
1, 52068, Control_c, 0, 64, 73
1, 52075, Note_off_c, 0, 74, 61
1, 52083, Control_c, 0, 64, 76
1, 52092, Note_on_c, 0, 75, 55
1, 52098, Control_c, 0, 64, 78
1, 52113, Control_c, 0, 64, 79
1, 52128, Control_c, 0, 64, 80
1, 52142, Control_c, 0, 64, 80
1, 52157, Control_c, 0, 64, 81
1, 52170, Note_on_c, 0, 76, 67
1, 52172, Control_c, 0, 64, 82
1, 52177, Note_off_c, 0, 75, 50
1, 52186, Control_c, 0, 64, 83
1, 52201, Control_c, 0, 64, 84
1, 52216, Control_c, 0, 64, 84
1, 52232, Control_c, 0, 64, 85
1, 52262, Control_c, 0, 64, 86
1, 52269, Note_off_c, 0, 76, 53
1, 52270, Note_on_c, 0, 74, 71
1, 52276, Note_off_c, 0, 57, 29
1, 52277, Control_c, 0, 64, 86
1, 52291, Control_c, 0, 64, 87
1, 52321, Control_c, 0, 64, 87
1, 52323, Note_off_c, 0, 74, 63
1, 52328, Note_off_c, 0, 63, 39
1, 52351, Control_c, 0, 64, 88
1, 52370, Note_on_c, 0, 75, 74
1, 52379, Note_off_c, 0, 59, 0
1, 52380, Control_c, 0, 64, 88
1, 52410, Control_c, 0, 64, 89
1, 52417, Poly_aftertouch_c, 0, 59, 127
1, 52422, Note_off_c, 0, 54, 40
1, 52437, Note_off_c, 0, 75, 64
1, 52439, Control_c, 0, 64, 88
1, 52454, Control_c, 0, 64, 83
1, 52458, Note_on_c, 0, 56, 60
1, 52460, Note_on_c, 0, 64, 74
1, 52469, Control_c, 0, 64, 71
1, 52474, Note_on_c, 0, 71, 63
1, 52483, Control_c, 0, 64, 0
1, 52537, Poly_aftertouch_c, 0, 59, 0
1, 52543, Control_c, 0, 64, 60
1, 52546, Note_off_c, 0, 71, 57
1, 52553, Note_off_c, 0, 56, 61
1, 52565, Control_c, 0, 64, 69
1, 52569, Note_on_c, 0, 78, 75
1, 52580, Control_c, 0, 64, 75
1, 52595, Control_c, 0, 64, 80
1, 52610, Control_c, 0, 64, 82
1, 52625, Control_c, 0, 64, 82
1, 52633, Note_off_c, 0, 64, 42
1, 52639, Control_c, 0, 64, 83
1, 52647, Note_off_c, 0, 78, 61
1, 52654, Control_c, 0, 64, 85
1, 52662, Note_on_c, 0, 76, 75
1, 52669, Control_c, 0, 64, 87
1, 52684, Control_c, 0, 64, 88
1, 52698, Control_c, 0, 64, 89
1, 52721, Note_off_c, 0, 76, 66
1, 52743, Control_c, 0, 64, 88
1, 52752, Note_on_c, 0, 66, 90
1, 52758, Control_c, 0, 64, 79
1, 52761, Note_on_c, 0, 61, 64
1, 52766, Note_on_c, 0, 57, 57
1, 52767, Note_on_c, 0, 73, 74
1, 52773, Control_c, 0, 64, 60
1, 52787, Control_c, 0, 64, 0
1, 52841, Note_off_c, 0, 73, 58
1, 52847, Control_c, 0, 64, 62
1, 52862, Control_c, 0, 64, 71
1, 52865, Note_on_c, 0, 80, 79
1, 52866, Note_off_c, 0, 57, 61
1, 52877, Control_c, 0, 64, 78
1, 52891, Control_c, 0, 64, 82
1, 52906, Control_c, 0, 64, 83
1, 52921, Control_c, 0, 64, 84
1, 52934, Control_c, 0, 64, 86
1, 52949, Control_c, 0, 64, 88
1, 52954, Note_off_c, 0, 66, 59
1, 52963, Note_on_c, 0, 78, 80
1, 52963, Control_c, 0, 64, 90
1, 52978, Control_c, 0, 64, 92
1, 52986, Note_off_c, 0, 80, 55
1, 52993, Control_c, 0, 64, 94
1, 53008, Control_c, 0, 64, 96
1, 53017, Note_off_c, 0, 78, 61
1, 53023, Control_c, 0, 64, 99
1, 53039, Control_c, 0, 64, 101
1, 53053, Control_c, 0, 64, 102
1, 53071, Note_off_c, 0, 61, 60
1, 53107, Note_on_c, 0, 68, 90
1, 53109, Note_on_c, 0, 59, 60
1, 53111, Note_on_c, 0, 64, 70
1, 53112, Control_c, 0, 64, 98
1, 53127, Note_on_c, 0, 80, 78
1, 53127, Control_c, 0, 64, 89
1, 53142, Control_c, 0, 64, 76
1, 53147, Note_on_c, 0, 76, 51
1, 53157, Control_c, 0, 64, 36
1, 53172, Control_c, 0, 64, 0
1, 53216, Note_off_c, 0, 76, 0
1, 53216, Note_on_c, 0, 76, 17
1, 53223, Note_on_c, 0, 79, 81
1, 53238, Note_off_c, 0, 80, 59
1, 53327, Note_on_c, 0, 80, 87
1, 53341, Note_off_c, 0, 79, 56
1, 53422, Note_on_c, 0, 83, 83
1, 53422, Note_off_c, 0, 80, 64
1, 53485, Note_off_c, 0, 76, 62
1, 53510, Note_on_c, 0, 81, 82
1, 53524, Note_off_c, 0, 68, 58
1, 53542, Note_off_c, 0, 83, 56
1, 53595, Note_off_c, 0, 81, 59
1, 53598, Note_on_c, 0, 80, 79
1, 53670, Note_off_c, 0, 80, 62
1, 53698, Control_c, 0, 64, 70
1, 53699, Note_on_c, 0, 78, 72
1, 53700, Note_off_c, 0, 64, 55
1, 53712, Control_c, 0, 64, 82
1, 53720, Note_off_c, 0, 78, 69
1, 53722, Note_on_c, 0, 63, 63
1, 53726, Note_on_c, 0, 66, 56
1, 53727, Control_c, 0, 64, 88
1, 53728, Note_on_c, 0, 75, 59
1, 53742, Control_c, 0, 64, 89
1, 53746, Note_off_c, 0, 75, 64
1, 53750, Note_off_c, 0, 59, 62
1, 53751, Note_off_c, 0, 63, 64
1, 53751, Note_off_c, 0, 66, 65
1, 53757, Control_c, 0, 64, 90
1, 53772, Control_c, 0, 64, 93
1, 53786, Control_c, 0, 64, 97
1, 53801, Control_c, 0, 64, 101
1, 53816, Control_c, 0, 64, 103
1, 53818, Note_on_c, 0, 76, 64
1, 53821, Note_on_c, 0, 73, 61
1, 53832, Control_c, 0, 64, 104
1, 53847, Control_c, 0, 64, 104
1, 53856, Note_off_c, 0, 73, 62
1, 53876, Control_c, 0, 64, 105
1, 53884, Note_off_c, 0, 76, 60
1, 53913, Note_on_c, 0, 75, 64
1, 53921, Control_c, 0, 64, 105
1, 53935, Note_on_c, 0, 71, 40
1, 53962, Note_off_c, 0, 71, 49
1, 53976, Note_off_c, 0, 75, 64
1, 53986, Note_on_c, 0, 47, 63
1, 53992, Note_on_c, 0, 73, 62
1, 54013, Note_on_c, 0, 69, 60
1, 54022, Note_off_c, 0, 73, 66
1, 54041, Note_off_c, 0, 47, 60
1, 54043, Note_off_c, 0, 69, 69
1, 54094, Note_on_c, 0, 49, 67
1, 54108, Note_on_c, 0, 71, 62
1, 54168, Note_off_c, 0, 71, 59
1, 54174, Note_off_c, 0, 49, 54
1, 54191, Note_on_c, 0, 51, 71
1, 54206, Note_on_c, 0, 69, 66
1, 54236, Note_off_c, 0, 69, 68
1, 54277, Note_off_c, 0, 51, 53
1, 54343, Note_on_c, 0, 68, 61
1, 54343, Control_c, 0, 64, 104
1, 54354, Note_on_c, 0, 56, 77
1, 54358, Control_c, 0, 64, 101
1, 54364, Note_on_c, 0, 52, 61
1, 54366, Note_on_c, 0, 59, 45
1, 54373, Control_c, 0, 64, 94
1, 54388, Control_c, 0, 64, 81
1, 54403, Control_c, 0, 64, 62
1, 54412, Note_off_c, 0, 68, 59
1, 54417, Control_c, 0, 64, 0
1, 54454, Note_on_c, 0, 67, 54
1, 54522, Control_c, 0, 64, 60
1, 54536, Control_c, 0, 64, 64
1, 54551, Control_c, 0, 64, 66
1, 54552, Note_off_c, 0, 67, 38
1, 54559, Note_on_c, 0, 68, 63
1, 54566, Control_c, 0, 64, 68
1, 54580, Control_c, 0, 64, 71
1, 54595, Control_c, 0, 64, 76
1, 54610, Control_c, 0, 64, 80
1, 54625, Control_c, 0, 64, 82
1, 54636, Note_off_c, 0, 68, 62
1, 54654, Note_on_c, 0, 69, 70
1, 54656, Control_c, 0, 64, 82
1, 54671, Control_c, 0, 64, 83
1, 54685, Control_c, 0, 64, 84
1, 54700, Control_c, 0, 64, 85
1, 54715, Control_c, 0, 64, 85
1, 54717, Note_off_c, 0, 69, 63
1, 54730, Control_c, 0, 64, 86
1, 54745, Control_c, 0, 64, 86
1, 54752, Note_on_c, 0, 67, 68
1, 54759, Control_c, 0, 64, 87
1, 54774, Control_c, 0, 64, 88
1, 54789, Control_c, 0, 64, 88
1, 54810, Note_off_c, 0, 56, 61
1, 54811, Note_off_c, 0, 59, 4
1, 54811, Control_c, 0, 64, 89
1, 54826, Control_c, 0, 64, 89
1, 54841, Control_c, 0, 64, 90
1, 54849, Note_off_c, 0, 67, 54
1, 54860, Note_on_c, 0, 68, 64
1, 54885, Control_c, 0, 64, 90
1, 54911, Note_off_c, 0, 68, 51
1, 54974, Control_c, 0, 64, 89
1, 54978, Note_on_c, 0, 47, 50
1, 54979, Note_on_c, 0, 54, 72
1, 54988, Note_on_c, 0, 57, 51
1, 54989, Control_c, 0, 64, 82
1, 54993, Note_on_c, 0, 51, 50
1, 55003, Control_c, 0, 64, 68
1, 55018, Note_off_c, 0, 52, 53
1, 55018, Control_c, 0, 64, 0
1, 55023, Note_off_c, 0, 57, 58
1, 55078, Control_c, 0, 64, 51
1, 55092, Control_c, 0, 64, 69
1, 55101, Note_on_c, 0, 68, 42
1, 55107, Control_c, 0, 64, 77
1, 55122, Control_c, 0, 64, 82
1, 55137, Control_c, 0, 64, 83
1, 55145, Note_off_c, 0, 68, 47
1, 55166, Control_c, 0, 64, 84
1, 55181, Control_c, 0, 64, 84
1, 55184, Note_on_c, 0, 66, 60
1, 55184, Note_off_c, 0, 54, 61
1, 55196, Control_c, 0, 64, 85
1, 55211, Control_c, 0, 64, 85
1, 55220, Note_off_c, 0, 66, 66
1, 55265, Note_off_c, 0, 47, 40
1, 55285, Control_c, 0, 64, 84
1, 55285, Note_on_c, 0, 56, 59
1, 55294, Note_on_c, 0, 52, 72
1, 55299, Note_on_c, 0, 49, 45
1, 55300, Control_c, 0, 64, 79
1, 55315, Control_c, 0, 64, 66
1, 55324, Note_off_c, 0, 51, 30
1, 55330, Control_c, 0, 64, 0
1, 55403, Note_on_c, 0, 66, 58
1, 55403, Control_c, 0, 64, 65
1, 55418, Control_c, 0, 64, 72
1, 55424, Note_off_c, 0, 56, 46
1, 55435, Control_c, 0, 64, 78
1, 55449, Control_c, 0, 64, 80
1, 55461, Note_off_c, 0, 49, 62
1, 55464, Control_c, 0, 64, 81
1, 55479, Control_c, 0, 64, 81
1, 55481, Note_on_c, 0, 64, 65
1, 55491, Note_off_c, 0, 66, 59
1, 55494, Control_c, 0, 64, 82
1, 55508, Control_c, 0, 64, 83
1, 55523, Control_c, 0, 64, 84
1, 55529, Note_off_c, 0, 64, 57
1, 55596, Note_off_c, 0, 52, 62
1, 55604, Control_c, 0, 64, 83
1, 55605, Note_on_c, 0, 51, 64
1, 55616, Note_on_c, 0, 48, 57
1, 55619, Control_c, 0, 64, 81
1, 55626, Note_on_c, 0, 54, 58
1, 55632, Note_on_c, 0, 44, 44
1, 55634, Control_c, 0, 64, 75
1, 55649, Control_c, 0, 64, 65
1, 55664, Control_c, 0, 64, 0
1, 55738, Note_on_c, 0, 60, 54
1, 55813, Note_on_c, 0, 63, 63
1, 55841, Control_c, 0, 64, 56
1, 55856, Control_c, 0, 64, 65
1, 55863, Note_off_c, 0, 60, 55
1, 55871, Control_c, 0, 64, 69
1, 55886, Control_c, 0, 64, 73
1, 55887, Note_on_c, 0, 64, 65
1, 55901, Control_c, 0, 64, 77
1, 55915, Control_c, 0, 64, 80
1, 55930, Control_c, 0, 64, 81
1, 55931, Note_off_c, 0, 63, 48
1, 55945, Control_c, 0, 64, 82
1, 55958, Note_off_c, 0, 54, 37
1, 55960, Control_c, 0, 64, 84
1, 55968, Note_off_c, 0, 48, 50
1, 55975, Control_c, 0, 64, 85
1, 55987, Note_off_c, 0, 64, 55
1, 55989, Control_c, 0, 64, 86
1, 55990, Note_on_c, 0, 60, 62
1, 56004, Control_c, 0, 64, 87
1, 56019, Control_c, 0, 64, 88
1, 56047, Note_off_c, 0, 44, 42
1, 56067, Note_off_c, 0, 60, 58
1, 56078, Control_c, 0, 64, 89
1, 56100, Note_on_c, 0, 63, 58
1, 56137, Note_off_c, 0, 63, 64
1, 56167, Control_c, 0, 64, 88
1, 56182, Control_c, 0, 64, 88
1, 56186, Note_off_c, 0, 51, 57
1, 56195, Note_on_c, 0, 49, 60
1, 56197, Control_c, 0, 64, 85
1, 56204, Note_on_c, 0, 45, 46
1, 56212, Control_c, 0, 64, 78
1, 56227, Control_c, 0, 64, 68
1, 56231, Note_on_c, 0, 52, 31
1, 56242, Control_c, 0, 64, 0
1, 56315, Note_on_c, 0, 57, 60
1, 56353, Control_c, 0, 64, 22
1, 56368, Control_c, 0, 64, 56
1, 56383, Control_c, 0, 64, 63
1, 56398, Control_c, 0, 64, 64
1, 56408, Note_on_c, 0, 61, 63
1, 56412, Control_c, 0, 64, 65
1, 56425, Note_off_c, 0, 57, 36
1, 56427, Control_c, 0, 64, 67
1, 56442, Control_c, 0, 64, 70
1, 56445, Note_off_c, 0, 52, 42
1, 56449, Note_off_c, 0, 61, 58
1, 56457, Control_c, 0, 64, 73
1, 56472, Control_c, 0, 64, 76
1, 56487, Control_c, 0, 64, 77
1, 56502, Note_on_c, 0, 63, 59
1, 56502, Control_c, 0, 64, 78
1, 56517, Control_c, 0, 64, 79
1, 56523, Note_off_c, 0, 49, 58
1, 56531, Control_c, 0, 64, 80
1, 56537, Note_off_c, 0, 45, 61
1, 56546, Control_c, 0, 64, 81
1, 56561, Control_c, 0, 64, 83
1, 56576, Control_c, 0, 64, 83
1, 56577, Note_on_c, 0, 57, 61
1, 56591, Control_c, 0, 64, 84
1, 56605, Control_c, 0, 64, 84
1, 56620, Control_c, 0, 64, 85
1, 56625, Note_off_c, 0, 63, 37
1, 56635, Control_c, 0, 64, 86
1, 56636, Note_off_c, 0, 57, 60
1, 56650, Control_c, 0, 64, 86
1, 56664, Control_c, 0, 64, 87
1, 56679, Control_c, 0, 64, 88
1, 56683, Note_on_c, 0, 61, 67
1, 56709, Control_c, 0, 64, 88
1, 56714, Note_off_c, 0, 61, 64
1, 56753, Control_c, 0, 64, 89
1, 56827, Control_c, 0, 64, 88
1, 56856, Control_c, 0, 64, 86
1, 56860, Note_on_c, 0, 47, 79
1, 56870, Note_on_c, 0, 35, 60
1, 56871, Control_c, 0, 64, 81
1, 56877, Note_on_c, 0, 52, 59
1, 56886, Control_c, 0, 64, 71
1, 56901, Control_c, 0, 64, 0
1, 56949, Note_off_c, 0, 52, 53
1, 56968, Note_on_c, 0, 56, 61
1, 56975, Control_c, 0, 64, 32
1, 56990, Control_c, 0, 64, 61
1, 57005, Control_c, 0, 64, 65
1, 57020, Control_c, 0, 64, 67
1, 57035, Control_c, 0, 64, 68
1, 57058, Control_c, 0, 64, 71
1, 57065, Note_off_c, 0, 56, 58
1, 57073, Control_c, 0, 64, 73
1, 57079, Note_on_c, 0, 59, 68
1, 57087, Control_c, 0, 64, 76
1, 57102, Control_c, 0, 64, 76
1, 57145, Note_off_c, 0, 59, 62
1, 57178, Note_on_c, 0, 54, 77
1, 57191, Control_c, 0, 64, 75
1, 57206, Control_c, 0, 64, 68
1, 57221, Control_c, 0, 64, 30
1, 57235, Control_c, 0, 64, 0
1, 57267, Note_on_c, 0, 57, 71
1, 57272, Note_off_c, 0, 54, 60
1, 57295, Control_c, 0, 64, 45
1, 57309, Control_c, 0, 64, 66
1, 57324, Control_c, 0, 64, 71
1, 57339, Control_c, 0, 64, 75
1, 57339, Control_c, 0, 67, 125
1, 57354, Control_c, 0, 64, 78
1, 57354, Control_c, 0, 67, 102
1, 57357, Note_on_c, 0, 59, 72
1, 57363, Note_off_c, 0, 57, 56
1, 57369, Control_c, 0, 64, 80
1, 57369, Control_c, 0, 67, 70
1, 57384, Control_c, 0, 64, 81
1, 57384, Control_c, 0, 67, 41
1, 57399, Note_off_c, 0, 35, 60
1, 57399, Control_c, 0, 64, 83
1, 57399, Control_c, 0, 67, 12
1, 57413, Control_c, 0, 64, 85
1, 57413, Control_c, 0, 67, 0
1, 57428, Control_c, 0, 64, 87
1, 57443, Control_c, 0, 64, 88
1, 57456, Note_off_c, 0, 47, 63
1, 57456, Note_on_c, 0, 54, 80
1, 57458, Control_c, 0, 64, 88
1, 57461, Note_off_c, 0, 59, 58
1, 57473, Control_c, 0, 64, 89
1, 57487, Control_c, 0, 64, 90
1, 57502, Control_c, 0, 64, 91
1, 57517, Control_c, 0, 64, 91
1, 57532, Control_c, 0, 64, 92
1, 57547, Control_c, 0, 64, 92
1, 57551, Note_off_c, 0, 54, 59
1, 57555, Note_on_c, 0, 57, 72
1, 57561, Control_c, 0, 64, 93
1, 57576, Control_c, 0, 64, 94
1, 57591, Control_c, 0, 64, 95
1, 57605, Control_c, 0, 64, 96
1, 57620, Control_c, 0, 64, 98
1, 57635, Control_c, 0, 64, 102
1, 57644, Note_off_c, 0, 57, 53
1, 57649, Note_on_c, 0, 61, 75
1, 57650, Control_c, 0, 64, 107
1, 57665, Control_c, 0, 64, 117
1, 57679, Control_c, 0, 64, 127
1, 57721, Note_off_c, 0, 61, 62
1, 57733, Note_on_c, 0, 54, 80
1, 57810, Note_off_c, 0, 54, 59
1, 57841, Note_on_c, 0, 57, 75
1, 57900, Note_off_c, 0, 57, 58
1, 57931, Note_on_c, 0, 63, 76
1, 58000, Note_off_c, 0, 63, 62
1, 58049, Note_on_c, 0, 52, 99
1, 58057, Note_on_c, 0, 40, 80
1, 58057, Note_on_c, 0, 64, 72
1, 58068, Note_on_c, 0, 56, 70
1, 58073, Control_c, 0, 64, 100
1, 58088, Control_c, 0, 64, 68
1, 58102, Control_c, 0, 64, 0
1, 58147, Control_c, 0, 64, 40
1, 58152, Note_off_c, 0, 64, 62
1, 58160, Note_on_c, 0, 59, 67
1, 58161, Note_off_c, 0, 56, 59
1, 58162, Control_c, 0, 64, 68
1, 58177, Control_c, 0, 64, 75
1, 58192, Control_c, 0, 64, 83
1, 58207, Control_c, 0, 64, 87
1, 58222, Control_c, 0, 64, 89
1, 58236, Control_c, 0, 64, 91
1, 58238, Note_off_c, 0, 59, 62
1, 58251, Control_c, 0, 64, 94
1, 58256, Note_on_c, 0, 56, 76
1, 58266, Control_c, 0, 64, 97
1, 58280, Note_off_c, 0, 40, 37
1, 58281, Control_c, 0, 64, 99
1, 58295, Note_off_c, 0, 56, 63
1, 58296, Control_c, 0, 64, 102
1, 58310, Control_c, 0, 64, 104
1, 58325, Control_c, 0, 64, 106
1, 58331, Note_off_c, 0, 52, 61
1, 58340, Control_c, 0, 64, 107
1, 58357, Note_on_c, 0, 59, 72
1, 58363, Note_on_c, 0, 47, 90
1, 58384, Control_c, 0, 64, 107
1, 58399, Control_c, 0, 64, 104
1, 58414, Control_c, 0, 64, 98
1, 58428, Control_c, 0, 64, 90
1, 58443, Control_c, 0, 64, 78
1, 58458, Control_c, 0, 64, 65
1, 58462, Note_on_c, 0, 64, 60
1, 58473, Control_c, 0, 64, 0
1, 58544, Note_off_c, 0, 64, 60
1, 58570, Note_on_c, 0, 68, 80
1, 58651, Note_on_c, 0, 66, 85
1, 58672, Note_off_c, 0, 68, 63
1, 58699, Note_off_c, 0, 59, 30
1, 58748, Control_c, 0, 64, 58
1, 58751, Note_on_c, 0, 63, 71
1, 58754, Note_off_c, 0, 66, 61
1, 58763, Control_c, 0, 64, 67
1, 58778, Control_c, 0, 64, 73
1, 58793, Control_c, 0, 64, 80
1, 58807, Control_c, 0, 64, 85
1, 58812, Note_off_c, 0, 47, 54
1, 58817, Note_off_c, 0, 63, 60
1, 58822, Control_c, 0, 64, 89
1, 58837, Control_c, 0, 64, 92
1, 58846, Note_on_c, 0, 59, 62
1, 58851, Control_c, 0, 64, 95
1, 58866, Control_c, 0, 64, 98
1, 58881, Control_c, 0, 64, 100
1, 58896, Control_c, 0, 64, 103
1, 58911, Control_c, 0, 64, 105
1, 58925, Control_c, 0, 64, 107
1, 58932, Poly_aftertouch_c, 0, 66, 127
1, 58940, Control_c, 0, 64, 108
1, 58955, Control_c, 0, 64, 110
1, 58961, Note_on_c, 0, 47, 92
1, 58962, Note_on_c, 0, 63, 70
1, 58970, Control_c, 0, 64, 110
1, 58978, Poly_aftertouch_c, 0, 66, 0
1, 59057, Note_on_c, 0, 66, 80
1, 59059, Note_off_c, 0, 63, 63
1, 59059, Control_c, 0, 64, 110
1, 59074, Control_c, 0, 64, 109
1, 59089, Control_c, 0, 64, 108
1, 59104, Control_c, 0, 64, 107
1, 59119, Control_c, 0, 64, 104
1, 59133, Control_c, 0, 64, 101
1, 59148, Control_c, 0, 64, 98
1, 59152, Note_on_c, 0, 69, 82
1, 59158, Note_off_c, 0, 66, 62
1, 59163, Control_c, 0, 64, 95
1, 59177, Control_c, 0, 64, 92
1, 59192, Control_c, 0, 64, 89
1, 59207, Control_c, 0, 64, 84
1, 59222, Control_c, 0, 64, 79
1, 59237, Control_c, 0, 64, 70
1, 59251, Note_on_c, 0, 68, 86
1, 59251, Control_c, 0, 64, 0
1, 59269, Note_off_c, 0, 69, 60
1, 59330, Note_off_c, 0, 59, 22
1, 59351, Note_on_c, 0, 64, 73
1, 59377, Control_c, 0, 64, 65
1, 59379, Note_off_c, 0, 68, 52
1, 59392, Control_c, 0, 64, 75
1, 59401, Note_off_c, 0, 47, 56
1, 59407, Control_c, 0, 64, 81
1, 59418, Note_off_c, 0, 64, 63
1, 59422, Control_c, 0, 64, 83
1, 59438, Control_c, 0, 64, 84
1, 59453, Control_c, 0, 64, 86
1, 59459, Note_on_c, 0, 59, 72
1, 59468, Control_c, 0, 64, 88
1, 59482, Control_c, 0, 64, 91
1, 59497, Control_c, 0, 64, 94
1, 59512, Control_c, 0, 64, 95
1, 59527, Control_c, 0, 64, 96
1, 59542, Control_c, 0, 64, 97
1, 59546, Note_on_c, 0, 64, 76
1, 59551, Note_on_c, 0, 47, 85
1, 59554, Note_off_c, 0, 59, 50
1, 59556, Control_c, 0, 64, 97
1, 59571, Control_c, 0, 64, 98
1, 59636, Note_off_c, 0, 64, 54
1, 59638, Note_on_c, 0, 68, 76
1, 59704, Control_c, 0, 64, 97
1, 59734, Control_c, 0, 64, 97
1, 59736, Note_on_c, 0, 71, 79
1, 59741, Note_off_c, 0, 68, 62
1, 59763, Control_c, 0, 64, 96
1, 59778, Control_c, 0, 64, 95
1, 59793, Control_c, 0, 64, 94
1, 59807, Control_c, 0, 64, 87
1, 59822, Control_c, 0, 64, 69
1, 59827, Note_on_c, 0, 69, 80
1, 59830, Note_off_c, 0, 71, 60
1, 59837, Control_c, 0, 64, 0
1, 59891, Note_off_c, 0, 69, 64
1, 59913, Note_on_c, 0, 66, 76
1, 59927, Control_c, 0, 64, 71
1, 59942, Control_c, 0, 64, 79
1, 59956, Control_c, 0, 64, 85
1, 59961, Note_off_c, 0, 66, 66
1, 59971, Control_c, 0, 64, 86
1, 59986, Control_c, 0, 64, 87
1, 60000, Control_c, 0, 64, 89
1, 60015, Control_c, 0, 64, 92
1, 60020, Note_on_c, 0, 63, 64
1, 60030, Control_c, 0, 64, 95
1, 60031, Note_off_c, 0, 47, 31
1, 60052, Control_c, 0, 64, 98
1, 60067, Control_c, 0, 64, 102
1, 60077, Note_off_c, 0, 63, 59
1, 60082, Control_c, 0, 64, 105
1, 60097, Control_c, 0, 64, 109
1, 60110, Note_on_c, 0, 75, 92
1, 60112, Control_c, 0, 64, 114
1, 60117, Note_on_c, 0, 47, 73
1, 60126, Control_c, 0, 64, 121
1, 60141, Note_off_c, 0, 47, 67
1, 60141, Control_c, 0, 64, 127
1, 60212, Note_on_c, 0, 69, 62
1, 60222, Note_off_c, 0, 75, 62
1, 60283, Note_off_c, 0, 69, 57
1, 60295, Note_on_c, 0, 66, 69
1, 60361, Note_off_c, 0, 66, 64
1, 60394, Control_c, 0, 64, 98
1, 60409, Control_c, 0, 64, 66
1, 60413, Note_on_c, 0, 76, 94
1, 60422, Note_on_c, 0, 52, 75
1, 60423, Control_c, 0, 64, 0
1, 60432, Note_on_c, 0, 68, 72
1, 60453, Control_c, 0, 64, 57
1, 60457, Note_off_c, 0, 68, 69
1, 60468, Control_c, 0, 64, 76
1, 60483, Control_c, 0, 64, 95
1, 60497, Control_c, 0, 64, 117
1, 60511, Note_on_c, 0, 47, 71
1, 60512, Control_c, 0, 64, 123
1, 60516, Note_off_c, 0, 52, 64
1, 60527, Control_c, 0, 64, 123
1, 60542, Control_c, 0, 64, 124
1, 60547, Note_off_c, 0, 76, 56
1, 60557, Control_c, 0, 64, 125
1, 60571, Control_c, 0, 64, 127
1, 60586, Control_c, 0, 64, 127
1, 60596, Note_on_c, 0, 44, 58
1, 60597, Note_off_c, 0, 47, 59
1, 60688, Note_off_c, 0, 44, 60
1, 60714, Note_on_c, 0, 71, 85
1, 60715, Note_on_c, 0, 47, 64
1, 60773, Note_off_c, 0, 47, 61
1, 60814, Note_on_c, 0, 52, 61
1, 60841, Note_off_c, 0, 52, 68
1, 60904, Note_on_c, 0, 56, 74
1, 60951, Note_off_c, 0, 56, 62
1, 60994, Control_c, 0, 64, 120
1, 60997, Note_on_c, 0, 54, 82
1, 61009, Control_c, 0, 64, 89
1, 61024, Control_c, 0, 64, 0
1, 61059, Note_off_c, 0, 71, 61
1, 61083, Control_c, 0, 64, 68
1, 61097, Note_on_c, 0, 51, 63
1, 61098, Control_c, 0, 64, 80
1, 61109, Note_off_c, 0, 54, 55
1, 61113, Control_c, 0, 64, 93
1, 61128, Control_c, 0, 64, 97
1, 61143, Control_c, 0, 64, 98
1, 61158, Control_c, 0, 64, 99
1, 61173, Control_c, 0, 64, 101
1, 61178, Note_off_c, 0, 51, 61
1, 61181, Note_on_c, 0, 47, 68
1, 61188, Control_c, 0, 64, 102
1, 61202, Control_c, 0, 64, 104
1, 61217, Control_c, 0, 64, 106
1, 61232, Control_c, 0, 64, 108
1, 61246, Control_c, 0, 64, 111
1, 61261, Control_c, 0, 64, 114
1, 61276, Control_c, 0, 64, 118
1, 61287, Note_off_c, 0, 47, 51
1, 61291, Control_c, 0, 64, 123
1, 61298, Note_on_c, 0, 51, 62
1, 61306, Control_c, 0, 64, 127
1, 61307, Note_on_c, 0, 71, 87
1, 61384, Note_off_c, 0, 51, 59
1, 61387, Note_on_c, 0, 54, 70
1, 61466, Note_off_c, 0, 54, 61
1, 61482, Note_on_c, 0, 57, 79
1, 61576, Note_off_c, 0, 57, 54
1, 61582, Note_on_c, 0, 56, 89
1, 61609, Control_c, 0, 64, 109
1, 61624, Control_c, 0, 64, 76
1, 61639, Control_c, 0, 64, 0
1, 61679, Note_on_c, 0, 52, 71
1, 61683, Control_c, 0, 64, 49
1, 61698, Control_c, 0, 64, 74
1, 61703, Note_off_c, 0, 56, 61
1, 61711, Note_off_c, 0, 71, 57
1, 61713, Control_c, 0, 64, 86
1, 61727, Control_c, 0, 64, 95
1, 61742, Control_c, 0, 64, 97
1, 61757, Control_c, 0, 64, 98
1, 61766, Note_on_c, 0, 47, 69
1, 61772, Note_off_c, 0, 52, 61
1, 61772, Control_c, 0, 64, 99
1, 61787, Control_c, 0, 64, 101
1, 61802, Control_c, 0, 64, 103
1, 61817, Control_c, 0, 64, 104
1, 61832, Control_c, 0, 64, 106
1, 61847, Control_c, 0, 64, 108
1, 61860, Note_off_c, 0, 47, 63
1, 61862, Control_c, 0, 64, 111
1, 61871, Note_on_c, 0, 71, 92
1, 61876, Control_c, 0, 64, 114
1, 61882, Note_on_c, 0, 52, 66
1, 61891, Control_c, 0, 64, 119
1, 61906, Control_c, 0, 64, 125
1, 61921, Control_c, 0, 64, 127
1, 61955, Note_off_c, 0, 52, 62
1, 61966, Note_on_c, 0, 56, 77
1, 62039, Note_off_c, 0, 56, 64
1, 62065, Note_on_c, 0, 59, 82
1, 62140, Note_off_c, 0, 59, 58
1, 62153, Note_on_c, 0, 57, 84
1, 62188, Control_c, 0, 64, 99
1, 62202, Control_c, 0, 64, 66
1, 62217, Control_c, 0, 64, 0
1, 62242, Note_on_c, 0, 54, 70
1, 62247, Control_c, 0, 64, 60
1, 62262, Control_c, 0, 64, 79
1, 62276, Control_c, 0, 64, 90
1, 62281, Note_off_c, 0, 57, 55
1, 62299, Control_c, 0, 64, 99
1, 62314, Control_c, 0, 64, 102
1, 62322, Note_off_c, 0, 71, 47
1, 62329, Control_c, 0, 64, 105
1, 62338, Note_on_c, 0, 51, 73
1, 62344, Note_off_c, 0, 54, 60
1, 62344, Control_c, 0, 64, 111
1, 62358, Control_c, 0, 64, 117
1, 62373, Control_c, 0, 64, 122
1, 62388, Control_c, 0, 64, 126
1, 62402, Control_c, 0, 64, 127
1, 62443, Note_on_c, 0, 71, 87
1, 62450, Note_on_c, 0, 63, 78
1, 62532, Note_off_c, 0, 71, 54
1, 62533, Note_on_c, 0, 57, 72
1, 62533, Note_off_c, 0, 63, 62
1, 62538, Note_off_c, 0, 51, 33
1, 62610, Note_off_c, 0, 57, 62
1, 62629, Note_on_c, 0, 54, 62
1, 62699, Note_off_c, 0, 54, 57
1, 62744, Control_c, 0, 64, 115
1, 62756, Note_on_c, 0, 76, 95
1, 62759, Control_c, 0, 64, 87
1, 62761, Note_on_c, 0, 56, 66
1, 62773, Control_c, 0, 64, 0
1, 62833, Control_c, 0, 64, 68
1, 62843, Note_off_c, 0, 56, 59
1, 62848, Control_c, 0, 64, 84
1, 62863, Control_c, 0, 64, 95
1, 62869, Note_off_c, 0, 76, 65
1, 62872, Note_on_c, 0, 71, 59
1, 62876, Note_on_c, 0, 59, 51
1, 62878, Control_c, 0, 64, 100
1, 62892, Control_c, 0, 64, 101
1, 62907, Control_c, 0, 64, 103
1, 62922, Control_c, 0, 64, 106
1, 62937, Control_c, 0, 64, 111
1, 62941, Note_off_c, 0, 59, 54
1, 62952, Note_off_c, 0, 71, 59
1, 62952, Control_c, 0, 64, 115
1, 62954, Note_on_c, 0, 68, 66
1, 62964, Note_on_c, 0, 64, 59
1, 62966, Control_c, 0, 64, 121
1, 62981, Control_c, 0, 64, 127
1, 63015, Note_off_c, 0, 64, 53
1, 63034, Note_on_c, 0, 71, 61
1, 63036, Note_off_c, 0, 68, 61
1, 63054, Note_on_c, 0, 59, 59
1, 63089, Note_off_c, 0, 59, 62
1, 63105, Note_off_c, 0, 71, 61
1, 63121, Note_on_c, 0, 56, 62
1, 63134, Note_on_c, 0, 76, 65
1, 63177, Note_off_c, 0, 56, 63
1, 63203, Note_off_c, 0, 76, 59
1, 63215, Note_on_c, 0, 52, 60
1, 63221, Note_on_c, 0, 80, 78
1, 63300, Note_off_c, 0, 52, 64
1, 63309, Note_on_c, 0, 78, 86
1, 63313, Note_on_c, 0, 51, 65
1, 63329, Control_c, 0, 64, 109
1, 63341, Note_off_c, 0, 80, 48
1, 63343, Control_c, 0, 64, 82
1, 63358, Control_c, 0, 64, 40
1, 63373, Control_c, 0, 64, 0
1, 63403, Control_c, 0, 64, 64
1, 63407, Note_off_c, 0, 51, 59
1, 63408, Note_on_c, 0, 75, 72
1, 63411, Note_on_c, 0, 54, 58
1, 63419, Control_c, 0, 64, 76
1, 63420, Note_off_c, 0, 78, 55
1, 63434, Control_c, 0, 64, 88
1, 63448, Control_c, 0, 64, 98
1, 63463, Control_c, 0, 64, 100
1, 63475, Note_off_c, 0, 75, 62
1, 63478, Control_c, 0, 64, 101
1, 63492, Note_off_c, 0, 54, 62
1, 63493, Control_c, 0, 64, 103
1, 63495, Note_on_c, 0, 71, 71
1, 63505, Note_on_c, 0, 57, 63
1, 63508, Control_c, 0, 64, 105
1, 63522, Control_c, 0, 64, 108
1, 63537, Control_c, 0, 64, 112
1, 63552, Control_c, 0, 64, 116
1, 63567, Control_c, 0, 64, 121
1, 63582, Control_c, 0, 64, 127
1, 63587, Note_off_c, 0, 57, 54
1, 63590, Note_on_c, 0, 75, 80
1, 63595, Note_on_c, 0, 54, 71
1, 63666, Note_on_c, 0, 51, 67
1, 63671, Note_on_c, 0, 78, 85
1, 63673, Note_off_c, 0, 75, 64
1, 63676, Note_off_c, 0, 54, 53
1, 63760, Note_on_c, 0, 81, 91
1, 63760, Note_off_c, 0, 78, 63
1, 63781, Note_on_c, 0, 47, 72
1, 63800, Note_off_c, 0, 51, 59
1, 63822, Note_off_c, 0, 71, 59
1, 63859, Note_on_c, 0, 80, 93
1, 63873, Note_on_c, 0, 52, 69
1, 63879, Note_off_c, 0, 81, 59
1, 63900, Control_c, 0, 64, 98
1, 63915, Control_c, 0, 64, 70
1, 63930, Control_c, 0, 64, 0
1, 63942, Note_on_c, 0, 76, 82
1, 63964, Note_on_c, 0, 56, 77
1, 63969, Note_off_c, 0, 52, 65
1, 63974, Control_c, 0, 64, 66
1, 63989, Control_c, 0, 64, 80
1, 64004, Control_c, 0, 64, 92
1, 64005, Note_off_c, 0, 80, 61
1, 64019, Control_c, 0, 64, 98
1, 64028, Note_off_c, 0, 56, 62
1, 64032, Note_on_c, 0, 71, 83
1, 64034, Control_c, 0, 64, 101
1, 64048, Control_c, 0, 64, 103
1, 64051, Note_on_c, 0, 59, 72
1, 64057, Note_off_c, 0, 76, 63
1, 64063, Control_c, 0, 64, 108
1, 64078, Control_c, 0, 64, 114
1, 64093, Control_c, 0, 64, 120
1, 64108, Control_c, 0, 64, 127
1, 64125, Note_on_c, 0, 56, 75
1, 64130, Note_on_c, 0, 76, 80
1, 64133, Note_off_c, 0, 59, 54
1, 64175, Note_off_c, 0, 47, 18
1, 64207, Note_on_c, 0, 52, 70
1, 64216, Note_on_c, 0, 80, 88
1, 64221, Note_off_c, 0, 56, 49
1, 64232, Note_off_c, 0, 76, 61
1, 64294, Note_off_c, 0, 71, 22
1, 64297, Note_on_c, 0, 47, 73
1, 64300, Note_off_c, 0, 52, 65
1, 64316, Note_on_c, 0, 83, 87
1, 64330, Note_off_c, 0, 80, 60
1, 64396, Note_off_c, 0, 47, 60
1, 64407, Note_on_c, 0, 81, 89
1, 64411, Note_on_c, 0, 54, 72
1, 64420, Control_c, 0, 64, 103
1, 64429, Note_off_c, 0, 83, 62
1, 64435, Control_c, 0, 64, 70
1, 64450, Control_c, 0, 64, 0
1, 64479, Control_c, 0, 64, 47
1, 64494, Control_c, 0, 64, 74
1, 64496, Note_off_c, 0, 54, 59
1, 64499, Note_off_c, 0, 81, 60
1, 64504, Note_on_c, 0, 78, 84
1, 64509, Control_c, 0, 64, 91
1, 64510, Note_on_c, 0, 57, 75
1, 64524, Control_c, 0, 64, 109
1, 64546, Control_c, 0, 64, 114
1, 64556, Note_off_c, 0, 78, 64
1, 64561, Control_c, 0, 64, 114
1, 64568, Note_off_c, 0, 57, 63
1, 64576, Control_c, 0, 64, 117
1, 64591, Control_c, 0, 64, 123
1, 64603, Note_on_c, 0, 59, 74
1, 64605, Control_c, 0, 64, 127
1, 64615, Note_on_c, 0, 75, 62
1, 64648, Note_off_c, 0, 59, 59
1, 64666, Note_off_c, 0, 75, 64
1, 64715, Note_on_c, 0, 87, 98
1, 64719, Note_on_c, 0, 57, 67
1, 64770, Note_off_c, 0, 57, 60
1, 64798, Note_on_c, 0, 59, 58
1, 64820, Note_on_c, 0, 83, 69
1, 64820, Note_off_c, 0, 87, 62
1, 64875, Note_off_c, 0, 83, 60
1, 64915, Note_on_c, 0, 78, 70
1, 64935, Note_on_c, 0, 66, 51
1, 64959, Note_off_c, 0, 78, 60
1, 64974, Note_off_c, 0, 59, 35
1, 64984, Note_off_c, 0, 66, 63
1, 65019, Note_on_c, 0, 88, 94
1, 65021, Note_on_c, 0, 56, 71
1, 65036, Control_c, 0, 64, 118
1, 65051, Control_c, 0, 64, 78
1, 65066, Control_c, 0, 64, 0
1, 65110, Control_c, 0, 64, 66
1, 65116, Note_on_c, 0, 83, 54
1, 65125, Control_c, 0, 64, 82
1, 65130, Note_on_c, 0, 59, 55
1, 65132, Note_off_c, 0, 56, 61
1, 65140, Control_c, 0, 64, 103
1, 65155, Control_c, 0, 64, 110
1, 65180, Note_off_c, 0, 59, 60
1, 65184, Control_c, 0, 64, 111
1, 65186, Note_off_c, 0, 88, 39
1, 65192, Note_off_c, 0, 83, 60
1, 65199, Control_c, 0, 64, 111
1, 65203, Note_on_c, 0, 80, 66
1, 65213, Control_c, 0, 64, 112
1, 65228, Control_c, 0, 64, 113
1, 65231, Note_on_c, 0, 64, 48
1, 65243, Control_c, 0, 64, 113
1, 65257, Note_off_c, 0, 64, 58
1, 65258, Control_c, 0, 64, 114
1, 65259, Note_off_c, 0, 80, 62
1, 65273, Control_c, 0, 64, 114
1, 65295, Control_c, 0, 64, 116
1, 65308, Note_on_c, 0, 83, 64
1, 65310, Control_c, 0, 64, 117
1, 65319, Note_on_c, 0, 52, 56
1, 65325, Control_c, 0, 64, 118
1, 65340, Control_c, 0, 64, 119
1, 65355, Control_c, 0, 64, 119
1, 65369, Control_c, 0, 64, 121
1, 65384, Control_c, 0, 64, 122
1, 65391, Note_off_c, 0, 52, 47
1, 65395, Note_on_c, 0, 80, 63
1, 65398, Note_off_c, 0, 83, 58
1, 65399, Control_c, 0, 64, 125
1, 65404, Note_on_c, 0, 56, 54
1, 65414, Control_c, 0, 64, 127
1, 65453, Note_off_c, 0, 80, 62
1, 65472, Note_off_c, 0, 56, 61
1, 65480, Note_on_c, 0, 76, 60
1, 65508, Note_on_c, 0, 59, 49
1, 65526, Note_off_c, 0, 76, 59
1, 65567, Note_off_c, 0, 59, 50
1, 65579, Note_on_c, 0, 81, 77
1, 65585, Note_on_c, 0, 54, 55
1, 65591, Control_c, 0, 64, 103
1, 65606, Control_c, 0, 64, 84
1, 65620, Control_c, 0, 64, 59
1, 65635, Control_c, 0, 64, 0
1, 65659, Note_off_c, 0, 81, 60
1, 65662, Note_on_c, 0, 78, 72
1, 65664, Control_c, 0, 64, 59
1, 65669, Note_off_c, 0, 54, 57
1, 65679, Control_c, 0, 64, 74
1, 65680, Note_on_c, 0, 57, 53
1, 65693, Control_c, 0, 64, 86
1, 65704, Note_off_c, 0, 78, 62
1, 65708, Control_c, 0, 64, 94
1, 65713, Note_off_c, 0, 57, 63
1, 65723, Control_c, 0, 64, 94
1, 65752, Control_c, 0, 64, 95
1, 65763, Note_on_c, 0, 59, 49
1, 65767, Control_c, 0, 64, 95
1, 65782, Control_c, 0, 64, 96
1, 65784, Note_on_c, 0, 75, 35
1, 65797, Control_c, 0, 64, 97
1, 65799, Note_off_c, 0, 59, 48
1, 65813, Control_c, 0, 64, 98
1, 65816, Note_off_c, 0, 75, 49
1, 65828, Control_c, 0, 64, 98
1, 65842, Control_c, 0, 64, 99
1, 65851, Note_on_c, 0, 57, 51
1, 65853, Note_on_c, 0, 87, 81
1, 65872, Control_c, 0, 64, 100
1, 65894, Note_off_c, 0, 57, 57
1, 65902, Control_c, 0, 64, 100
1, 65916, Control_c, 0, 64, 101
1, 65930, Note_off_c, 0, 87, 62
1, 65933, Note_on_c, 0, 59, 47
1, 65946, Control_c, 0, 64, 101
1, 65955, Note_on_c, 0, 83, 54
1, 65961, Control_c, 0, 64, 102
1, 65976, Control_c, 0, 64, 103
1, 65993, Note_off_c, 0, 83, 61
1, 66005, Control_c, 0, 64, 103
1, 66020, Control_c, 0, 64, 104
1, 66050, Note_on_c, 0, 78, 65
1, 66057, Control_c, 0, 64, 104
1, 66061, Note_off_c, 0, 59, 30
1, 66066, Note_on_c, 0, 66, 46
1, 66072, Control_c, 0, 64, 105
1, 66080, Note_off_c, 0, 78, 63
1, 66087, Control_c, 0, 64, 105
1, 66101, Note_off_c, 0, 66, 51
1, 66102, Control_c, 0, 64, 106
1, 66131, Control_c, 0, 64, 103
1, 66145, Note_on_c, 0, 88, 80
1, 66146, Control_c, 0, 64, 92
1, 66152, Note_on_c, 0, 56, 54
1, 66161, Control_c, 0, 64, 74
1, 66176, Control_c, 0, 64, 0
1, 66205, Note_off_c, 0, 56, 56
1, 66220, Control_c, 0, 64, 61
1, 66228, Note_off_c, 0, 88, 58
1, 66235, Control_c, 0, 64, 73
1, 66243, Note_on_c, 0, 83, 45
1, 66247, Note_on_c, 0, 59, 40
1, 66249, Control_c, 0, 64, 83
1, 66264, Control_c, 0, 64, 90
1, 66278, Note_off_c, 0, 59, 54
1, 66279, Control_c, 0, 64, 91
1, 66294, Control_c, 0, 64, 91
1, 66300, Note_off_c, 0, 83, 54
1, 66324, Control_c, 0, 64, 92
1, 66329, Note_on_c, 0, 80, 59
1, 66339, Note_on_c, 0, 64, 45
1, 66339, Control_c, 0, 64, 92
1, 66354, Control_c, 0, 64, 93
1, 66363, Note_off_c, 0, 80, 58
1, 66365, Note_off_c, 0, 64, 57
1, 66368, Control_c, 0, 64, 93
1, 66398, Control_c, 0, 64, 94
1, 66423, Note_on_c, 0, 83, 60
1, 66446, Note_on_c, 0, 52, 29
1, 66457, Control_c, 0, 64, 94
1, 66497, Note_off_c, 0, 52, 45
1, 66502, Note_off_c, 0, 83, 58
1, 66506, Note_on_c, 0, 56, 45
1, 66515, Note_on_c, 0, 80, 59
1, 66557, Note_off_c, 0, 56, 57
1, 66559, Note_off_c, 0, 80, 61
1, 66590, Control_c, 0, 64, 95
1, 66601, Note_on_c, 0, 59, 45
1, 66607, Note_on_c, 0, 76, 51
1, 66651, Note_off_c, 0, 76, 46
1, 66662, Note_off_c, 0, 59, 54
1, 66665, Control_c, 0, 64, 94
1, 66680, Control_c, 0, 64, 88
1, 66691, Note_on_c, 0, 54, 47
1, 66695, Control_c, 0, 64, 75
1, 66709, Note_on_c, 0, 81, 57
1, 66710, Control_c, 0, 64, 18
1, 66725, Control_c, 0, 64, 0
1, 66754, Control_c, 0, 64, 43
1, 66765, Note_off_c, 0, 81, 57
1, 66768, Note_off_c, 0, 54, 49
1, 66769, Control_c, 0, 64, 67
1, 66791, Control_c, 0, 64, 76
1, 66795, Note_on_c, 0, 78, 57
1, 66795, Note_on_c, 0, 57, 38
1, 66806, Control_c, 0, 64, 84
1, 66821, Control_c, 0, 64, 86
1, 66835, Note_off_c, 0, 78, 62
1, 66836, Note_off_c, 0, 57, 62
1, 66851, Control_c, 0, 64, 87
1, 66865, Control_c, 0, 64, 89
1, 66880, Control_c, 0, 64, 91
1, 66887, Note_on_c, 0, 59, 43
1, 66895, Control_c, 0, 64, 93
1, 66910, Control_c, 0, 64, 95
1, 66912, Note_on_c, 0, 75, 48
1, 66920, Note_off_c, 0, 59, 49
1, 66925, Control_c, 0, 64, 97
1, 66935, Note_off_c, 0, 75, 61
1, 66939, Control_c, 0, 64, 98
1, 66954, Control_c, 0, 64, 100
1, 66969, Control_c, 0, 64, 102
1, 66984, Control_c, 0, 64, 104
1, 66992, Note_on_c, 0, 57, 34
1, 66998, Control_c, 0, 64, 106
1, 67010, Note_on_c, 0, 87, 66
1, 67013, Control_c, 0, 64, 108
1, 67028, Control_c, 0, 64, 109
1, 67034, Note_off_c, 0, 57, 61
1, 67043, Control_c, 0, 64, 111
1, 67058, Control_c, 0, 64, 113
1, 67072, Control_c, 0, 64, 114
1, 67084, Note_off_c, 0, 87, 59
1, 67087, Control_c, 0, 64, 115
1, 67090, Note_on_c, 0, 59, 46
1, 67102, Control_c, 0, 64, 116
1, 67108, Note_on_c, 0, 83, 48
1, 67134, Note_off_c, 0, 83, 57
1, 67141, Note_off_c, 0, 59, 58
1, 67177, Control_c, 0, 64, 116
1, 67183, Note_on_c, 0, 66, 52
1, 67185, Note_on_c, 0, 78, 60
1, 67204, Note_off_c, 0, 78, 63
1, 67207, Note_off_c, 0, 66, 65
1, 67281, Control_c, 0, 64, 114
1, 67289, Note_on_c, 0, 56, 44
1, 67296, Control_c, 0, 64, 102
1, 67300, Note_on_c, 0, 88, 70
1, 67310, Control_c, 0, 64, 87
1, 67315, Note_off_c, 0, 56, 57
1, 67325, Control_c, 0, 64, 68
1, 67340, Control_c, 0, 64, 0
1, 67361, Note_off_c, 0, 88, 55
1, 67362, Note_on_c, 0, 59, 52
1, 67366, Note_on_c, 0, 83, 51
1, 67394, Note_off_c, 0, 59, 53
1, 67437, Note_on_c, 0, 80, 56
1, 67439, Note_off_c, 0, 83, 56
1, 67449, Note_on_c, 0, 52, 45
1, 67478, Note_off_c, 0, 80, 65
1, 67487, Note_off_c, 0, 52, 56
1, 67492, Note_on_c, 0, 76, 59
1, 67497, Note_on_c, 0, 59, 45
1, 67525, Note_off_c, 0, 76, 67
1, 67539, Note_off_c, 0, 59, 57
1, 67569, Note_on_c, 0, 81, 60
1, 67579, Note_on_c, 0, 54, 41
1, 67594, Note_off_c, 0, 81, 64
1, 67628, Note_on_c, 0, 59, 54
1, 67631, Note_off_c, 0, 54, 42
1, 67638, Note_on_c, 0, 78, 64
1, 67671, Note_off_c, 0, 59, 59
1, 67682, Note_off_c, 0, 78, 58
1, 67689, Control_c, 0, 64, 13
1, 67700, Note_on_c, 0, 87, 68
1, 67704, Control_c, 0, 64, 18
1, 67713, Note_on_c, 0, 57, 48
1, 67719, Control_c, 0, 64, 19
1, 67731, Note_off_c, 0, 87, 64
1, 67743, Note_off_c, 0, 57, 58
1, 67763, Control_c, 0, 64, 18
1, 67772, Note_on_c, 0, 59, 60
1, 67790, Note_on_c, 0, 83, 47
1, 67808, Control_c, 0, 64, 21
1, 67811, Note_off_c, 0, 59, 62
1, 67814, Note_off_c, 0, 83, 55
1, 67822, Control_c, 0, 64, 25
1, 67831, Note_on_c, 0, 88, 67
1, 67837, Control_c, 0, 64, 29
1, 67844, Note_on_c, 0, 56, 36
1, 67852, Control_c, 0, 64, 31
1, 67877, Note_off_c, 0, 56, 53
1, 67882, Control_c, 0, 64, 32
1, 67895, Note_on_c, 0, 83, 55
1, 67896, Note_off_c, 0, 88, 57
1, 67907, Note_on_c, 0, 52, 18
1, 67910, Control_c, 0, 64, 33
1, 67925, Control_c, 0, 64, 36
1, 67930, Note_on_c, 0, 59, 35
1, 67939, Control_c, 0, 64, 38
1, 67949, Note_off_c, 0, 52, 35
1, 67954, Control_c, 0, 64, 40
1, 67956, Note_off_c, 0, 83, 59
1, 67962, Note_on_c, 0, 80, 70
1, 67963, Note_off_c, 0, 59, 52
1, 67969, Control_c, 0, 64, 41
1, 67999, Control_c, 0, 64, 40
1, 68001, Note_on_c, 0, 54, 59
1, 68014, Control_c, 0, 64, 40
1, 68015, Note_off_c, 0, 80, 61
1, 68036, Note_on_c, 0, 76, 63
1, 68044, Control_c, 0, 64, 40
1, 68044, Note_off_c, 0, 54, 62
1, 68052, Note_on_c, 0, 59, 57
1, 68059, Control_c, 0, 64, 41
1, 68064, Note_off_c, 0, 76, 69
1, 68074, Control_c, 0, 64, 43
1, 68100, Note_off_c, 0, 59, 55
1, 68101, Note_on_c, 0, 81, 60
1, 68118, Control_c, 0, 64, 42
1, 68124, Note_on_c, 0, 57, 65
1, 68131, Note_off_c, 0, 81, 64
1, 68132, Control_c, 0, 64, 42
1, 68157, Note_off_c, 0, 57, 62
1, 68162, Control_c, 0, 64, 42
1, 68172, Note_on_c, 0, 78, 61
1, 68177, Control_c, 0, 64, 43
1, 68192, Note_on_c, 0, 59, 63
1, 68197, Note_off_c, 0, 78, 61
1, 68228, Note_off_c, 0, 59, 61
1, 68232, Note_on_c, 0, 87, 62
1, 68237, Control_c, 0, 64, 42
1, 68249, Note_on_c, 0, 56, 63
1, 68252, Control_c, 0, 64, 41
1, 68267, Control_c, 0, 64, 41
1, 68297, Note_off_c, 0, 56, 63
1, 68303, Note_off_c, 0, 87, 61
1, 68304, Control_c, 0, 64, 40
1, 68305, Note_on_c, 0, 83, 59
1, 68316, Note_on_c, 0, 59, 71
1, 68318, Control_c, 0, 64, 40
1, 68333, Control_c, 0, 64, 39
1, 68337, Note_off_c, 0, 83, 62
1, 68348, Control_c, 0, 64, 38
1, 68360, Note_off_c, 0, 59, 56
1, 68363, Control_c, 0, 64, 38
1, 68377, Note_on_c, 0, 88, 65
1, 68378, Control_c, 0, 64, 37
1, 68384, Note_on_c, 0, 57, 66
1, 68416, Note_off_c, 0, 57, 63
1, 68423, Note_off_c, 0, 88, 55
1, 68433, Note_on_c, 0, 83, 67
1, 68439, Note_on_c, 0, 59, 66
1, 68473, Note_off_c, 0, 83, 54
1, 68474, Note_off_c, 0, 59, 59
1, 68482, Control_c, 0, 64, 38
1, 68497, Control_c, 0, 64, 39
1, 68500, Note_on_c, 0, 87, 71
1, 68511, Control_c, 0, 64, 40
1, 68513, Note_on_c, 0, 56, 49
1, 68539, Note_off_c, 0, 87, 58
1, 68540, Note_off_c, 0, 56, 52
1, 68541, Control_c, 0, 64, 34
1, 68556, Control_c, 0, 64, 0
1, 68559, Note_on_c, 0, 59, 64
1, 68566, Note_on_c, 0, 83, 71
1, 68593, Note_off_c, 0, 59, 60
1, 68604, Note_off_c, 0, 83, 60
1, 68625, Note_on_c, 0, 88, 83
1, 68645, Note_on_c, 0, 57, 25
1, 68667, Note_on_c, 0, 59, 66
1, 68686, Note_off_c, 0, 57, 30
1, 68694, Note_on_c, 0, 83, 74
1, 68700, Note_off_c, 0, 88, 61
1, 68732, Note_off_c, 0, 83, 58
1, 68740, Note_off_c, 0, 59, 61
1, 68756, Note_on_c, 0, 87, 85
1, 68765, Note_on_c, 0, 56, 59
1, 68804, Note_off_c, 0, 56, 63
1, 68818, Note_off_c, 0, 87, 63
1, 68823, Note_on_c, 0, 83, 86
1, 68840, Note_on_c, 0, 59, 60
1, 68877, Note_off_c, 0, 59, 61
1, 68881, Note_off_c, 0, 83, 58
1, 68883, Note_on_c, 0, 88, 91
1, 68928, Note_on_c, 0, 57, 46
1, 68953, Note_on_c, 0, 83, 82
1, 68954, Note_off_c, 0, 57, 53
1, 68960, Note_off_c, 0, 88, 62
1, 68985, Note_on_c, 0, 59, 61
1, 69007, Note_off_c, 0, 83, 57
1, 69017, Note_on_c, 0, 87, 89
1, 69045, Note_off_c, 0, 59, 58
1, 69084, Note_off_c, 0, 87, 62
1, 69085, Note_on_c, 0, 83, 86
1, 69093, Note_on_c, 0, 56, 58
1, 69126, Note_off_c, 0, 56, 64
1, 69139, Note_off_c, 0, 83, 56
1, 69147, Note_on_c, 0, 59, 68
1, 69152, Note_on_c, 0, 88, 92
1, 69156, Control_c, 0, 64, 67
1, 69171, Control_c, 0, 64, 55
1, 69183, Note_off_c, 0, 59, 62
1, 69185, Control_c, 0, 64, 0
1, 69224, Note_on_c, 0, 83, 81
1, 69234, Note_off_c, 0, 88, 62
1, 69237, Note_on_c, 0, 57, 56
1, 69269, Note_off_c, 0, 57, 63
1, 69275, Note_off_c, 0, 83, 61
1, 69278, Note_on_c, 0, 87, 83
1, 69287, Note_on_c, 0, 59, 71
1, 69331, Note_off_c, 0, 59, 60
1, 69332, Note_on_c, 0, 83, 80
1, 69347, Note_off_c, 0, 87, 64
1, 69376, Note_off_c, 0, 83, 62
1, 69384, Note_on_c, 0, 56, 60
1, 69403, Note_on_c, 0, 88, 103
1, 69438, Control_c, 0, 64, 63
1, 69453, Control_c, 0, 64, 127
1, 69454, Note_off_c, 0, 56, 63
1, 69468, Note_on_c, 0, 59, 56
1, 69474, Note_on_c, 0, 83, 92
1, 69497, Note_off_c, 0, 88, 60
1, 69515, Note_off_c, 0, 59, 62
1, 69516, Note_off_c, 0, 83, 62
1, 69550, Note_on_c, 0, 86, 95
1, 69579, Note_on_c, 0, 44, 76
1, 69608, Note_on_c, 0, 83, 85
1, 69613, Note_off_c, 0, 86, 65
1, 69617, Note_off_c, 0, 44, 58
1, 69650, Note_on_c, 0, 52, 75
1, 69665, Note_off_c, 0, 83, 53
1, 69679, Note_on_c, 0, 86, 86
1, 69710, Note_off_c, 0, 52, 64
1, 69711, Note_on_c, 0, 44, 68
1, 69735, Note_off_c, 0, 86, 65
1, 69743, Note_on_c, 0, 83, 79
1, 69748, Note_off_c, 0, 44, 60
1, 69767, Note_on_c, 0, 52, 64
1, 69808, Note_off_c, 0, 83, 55
1, 69825, Note_on_c, 0, 86, 81
1, 69835, Note_off_c, 0, 52, 65
1, 69857, Note_on_c, 0, 44, 75
1, 69883, Note_off_c, 0, 86, 63
1, 69886, Note_on_c, 0, 83, 89
1, 69914, Note_off_c, 0, 44, 62
1, 69931, Note_on_c, 0, 52, 76
1, 69935, Note_off_c, 0, 83, 61
1, 69966, Note_on_c, 0, 86, 91
1, 69977, Note_off_c, 0, 52, 61
1, 69995, Note_on_c, 0, 44, 83
1, 70031, Note_off_c, 0, 86, 66
1, 70035, Note_on_c, 0, 83, 82
1, 70050, Note_off_c, 0, 44, 62
1, 70067, Note_on_c, 0, 52, 79
1, 70095, Note_off_c, 0, 83, 61
1, 70114, Note_off_c, 0, 52, 62
1, 70118, Note_on_c, 0, 86, 78
1, 70145, Note_on_c, 0, 44, 67
1, 70172, Note_on_c, 0, 83, 81
1, 70172, Note_off_c, 0, 86, 64
1, 70187, Note_off_c, 0, 44, 63
1, 70200, Note_on_c, 0, 52, 81
1, 70233, Note_off_c, 0, 83, 58
1, 70248, Note_on_c, 0, 86, 87
1, 70250, Note_off_c, 0, 52, 65
1, 70267, Note_on_c, 0, 44, 83
1, 70312, Note_on_c, 0, 83, 87
1, 70313, Note_off_c, 0, 86, 65
1, 70322, Note_off_c, 0, 44, 62
1, 70329, Note_on_c, 0, 52, 85
1, 70365, Note_off_c, 0, 83, 56
1, 70378, Note_off_c, 0, 52, 66
1, 70388, Note_on_c, 0, 86, 82
1, 70405, Note_on_c, 0, 44, 73
1, 70437, Note_off_c, 0, 44, 58
1, 70443, Note_on_c, 0, 83, 85
1, 70449, Note_off_c, 0, 86, 65
1, 70458, Note_on_c, 0, 52, 79
1, 70487, Note_off_c, 0, 83, 63
1, 70503, Note_off_c, 0, 52, 66
1, 70518, Note_on_c, 0, 86, 100
1, 70532, Note_on_c, 0, 44, 92
1, 70605, Note_off_c, 0, 44, 62
1, 70608, Note_on_c, 0, 52, 82
1, 70657, Note_off_c, 0, 86, 57
1, 70658, Note_off_c, 0, 52, 62
1, 70702, Note_on_c, 0, 44, 59
1, 70706, Note_on_c, 0, 85, 66
1, 70733, Note_off_c, 0, 44, 63
1, 70765, Note_on_c, 0, 52, 73
1, 70779, Note_on_c, 0, 83, 70
1, 70791, Note_off_c, 0, 85, 64
1, 70815, Note_off_c, 0, 52, 61
1, 70819, Note_off_c, 0, 83, 53
1, 70838, Note_on_c, 0, 44, 67
1, 70839, Note_on_c, 0, 81, 80
1, 70882, Note_off_c, 0, 44, 55
1, 70890, Note_off_c, 0, 81, 48
1, 70901, Note_on_c, 0, 80, 78
1, 70906, Note_on_c, 0, 52, 76
1, 70921, Control_c, 0, 64, 114
1, 70936, Control_c, 0, 64, 98
1, 70951, Control_c, 0, 64, 81
1, 70952, Note_off_c, 0, 52, 65
1, 70965, Control_c, 0, 64, 46
1, 70975, Note_on_c, 0, 78, 81
1, 70980, Control_c, 0, 64, 0
1, 70983, Note_on_c, 0, 44, 73
1, 70997, Note_off_c, 0, 80, 60
1, 71022, Note_off_c, 0, 44, 67
1, 71041, Note_on_c, 0, 76, 78
1, 71045, Note_on_c, 0, 52, 81
1, 71068, Note_off_c, 0, 78, 60
1, 71084, Note_off_c, 0, 52, 67
1, 71105, Note_off_c, 0, 76, 65
1, 71108, Note_on_c, 0, 74, 81
1, 71117, Note_on_c, 0, 44, 89
1, 71144, Control_c, 0, 64, 59
1, 71158, Control_c, 0, 64, 0
1, 71159, Note_off_c, 0, 74, 62
1, 71165, Note_off_c, 0, 44, 62
1, 71177, Note_on_c, 0, 73, 64
1, 71183, Note_on_c, 0, 52, 77
1, 71218, Note_off_c, 0, 52, 64
1, 71249, Note_on_c, 0, 71, 71
1, 71260, Note_on_c, 0, 44, 75
1, 71264, Note_off_c, 0, 73, 62
1, 71304, Note_off_c, 0, 44, 64
1, 71309, Note_off_c, 0, 71, 60
1, 71318, Note_on_c, 0, 69, 81
1, 71322, Note_on_c, 0, 52, 73
1, 71359, Note_off_c, 0, 52, 64
1, 71378, Note_off_c, 0, 69, 42
1, 71390, Note_on_c, 0, 44, 76
1, 71391, Note_on_c, 0, 68, 74
1, 71418, Control_c, 0, 64, 68
1, 71433, Control_c, 0, 64, 62
1, 71438, Note_off_c, 0, 44, 62
1, 71448, Control_c, 0, 64, 0
1, 71458, Note_on_c, 0, 66, 69
1, 71463, Note_on_c, 0, 52, 82
1, 71471, Note_off_c, 0, 68, 59
1, 71510, Note_on_c, 0, 64, 71
1, 71515, Note_on_c, 0, 44, 61
1, 71518, Note_off_c, 0, 52, 62
1, 71520, Note_off_c, 0, 66, 64
1, 71547, Note_off_c, 0, 44, 65
1, 71563, Note_off_c, 0, 64, 63
1, 71567, Note_on_c, 0, 62, 81
1, 71604, Note_off_c, 0, 62, 64
1, 71639, Note_on_c, 0, 52, 108
1, 71641, Control_c, 0, 64, 74
1, 71643, Note_on_c, 0, 61, 89
1, 71648, Note_on_c, 0, 45, 90
1, 71648, Note_on_c, 0, 49, 93
1, 71654, Control_c, 0, 64, 79
1, 71669, Note_off_c, 0, 49, 69
1, 71669, Control_c, 0, 64, 66
1, 71671, Note_off_c, 0, 45, 70
1, 71673, Note_off_c, 0, 52, 70
1, 71684, Control_c, 0, 64, 0
1, 71708, Note_off_c, 0, 61, 60
1, 71710, Note_on_c, 0, 63, 81
1, 71770, Note_off_c, 0, 63, 64
1, 71783, Note_on_c, 0, 64, 78
1, 71791, Note_on_c, 0, 52, 87
1, 71796, Note_on_c, 0, 45, 75
1, 71797, Note_on_c, 0, 49, 73
1, 71811, Note_off_c, 0, 52, 73
1, 71816, Note_off_c, 0, 49, 62
1, 71822, Note_off_c, 0, 45, 66
1, 71837, Note_off_c, 0, 64, 64
1, 71854, Note_on_c, 0, 63, 69
1, 71888, Note_off_c, 0, 63, 65
1, 71913, Note_on_c, 0, 64, 75
1, 71956, Note_off_c, 0, 64, 63
1, 71990, Note_on_c, 0, 68, 71
1, 72060, Note_on_c, 0, 52, 90
1, 72062, Note_on_c, 0, 69, 67
1, 72068, Note_on_c, 0, 45, 76
1, 72074, Note_on_c, 0, 49, 66
1, 72085, Note_off_c, 0, 52, 69
1, 72095, Note_off_c, 0, 45, 66
1, 72096, Note_off_c, 0, 49, 59
1, 72104, Note_off_c, 0, 68, 0
1, 72117, Note_on_c, 0, 68, 58
1, 72119, Note_off_c, 0, 69, 64
1, 72176, Note_off_c, 0, 68, 63
1, 72194, Note_on_c, 0, 52, 98
1, 72196, Note_on_c, 0, 49, 83
1, 72198, Note_on_c, 0, 45, 81
1, 72205, Note_on_c, 0, 69, 74
1, 72222, Note_off_c, 0, 49, 65
1, 72226, Note_off_c, 0, 52, 70
1, 72229, Note_off_c, 0, 45, 68
1, 72252, Note_off_c, 0, 69, 63
1, 72277, Note_on_c, 0, 72, 72
1, 72332, Note_on_c, 0, 52, 83
1, 72333, Note_on_c, 0, 49, 62
1, 72333, Note_on_c, 0, 45, 79
1, 72339, Note_off_c, 0, 72, 61
1, 72351, Note_on_c, 0, 73, 69
1, 72354, Note_off_c, 0, 52, 72
1, 72359, Note_off_c, 0, 49, 63
1, 72361, Note_off_c, 0, 45, 65
1, 72408, Note_off_c, 0, 73, 64
1, 72417, Note_on_c, 0, 72, 76
1, 72483, Note_off_c, 0, 72, 63
1, 72491, Note_on_c, 0, 73, 72
1, 72545, Note_off_c, 0, 73, 62
1, 72547, Note_on_c, 0, 75, 76
1, 72593, Note_on_c, 0, 52, 81
1, 72594, Note_on_c, 0, 49, 81
1, 72597, Note_on_c, 0, 45, 73
1, 72602, Note_off_c, 0, 75, 64
1, 72609, Note_on_c, 0, 76, 90
1, 72616, Note_off_c, 0, 52, 72
1, 72620, Note_off_c, 0, 49, 65
1, 72625, Note_off_c, 0, 45, 66
1, 72668, Note_off_c, 0, 76, 67
1, 72670, Note_on_c, 0, 75, 80
1, 72695, Note_off_c, 0, 75, 64
1, 72715, Control_c, 0, 64, 27
1, 72724, Note_on_c, 0, 52, 96
1, 72726, Note_on_c, 0, 49, 89
1, 72727, Note_on_c, 0, 45, 84
1, 72729, Control_c, 0, 64, 56
1, 72734, Note_on_c, 0, 76, 77
1, 72744, Control_c, 0, 64, 0
1, 72760, Note_off_c, 0, 45, 66
1, 72760, Note_off_c, 0, 49, 65
1, 72763, Note_off_c, 0, 52, 67
1, 72787, Note_off_c, 0, 76, 65
1, 72817, Note_on_c, 0, 80, 76
1, 72870, Note_on_c, 0, 45, 85
1, 72870, Note_on_c, 0, 52, 82
1, 72873, Note_off_c, 0, 80, 64
1, 72874, Note_on_c, 0, 49, 82
1, 72876, Note_on_c, 0, 81, 79
1, 72895, Note_off_c, 0, 52, 69
1, 72902, Note_off_c, 0, 49, 65
1, 72906, Note_off_c, 0, 45, 64
1, 72929, Control_c, 0, 64, 48
1, 72940, Note_off_c, 0, 81, 61
1, 72943, Note_on_c, 0, 80, 76
1, 72944, Control_c, 0, 64, 0
1, 72986, Note_off_c, 0, 80, 64
1, 73011, Note_on_c, 0, 81, 86
1, 73019, Note_on_c, 0, 49, 54
1, 73048, Note_off_c, 0, 49, 35
1, 73078, Note_off_c, 0, 81, 60
1, 73083, Note_on_c, 0, 84, 80
1, 73120, Note_on_c, 0, 52, 96
1, 73120, Note_on_c, 0, 49, 88
1, 73127, Note_on_c, 0, 45, 80
1, 73144, Note_off_c, 0, 84, 65
1, 73147, Note_on_c, 0, 85, 73
1, 73156, Note_off_c, 0, 45, 68
1, 73156, Note_off_c, 0, 52, 69
1, 73159, Note_off_c, 0, 49, 64
1, 73198, Note_off_c, 0, 85, 65
1, 73199, Note_on_c, 0, 84, 82
1, 73256, Note_on_c, 0, 49, 97
1, 73256, Note_on_c, 0, 52, 98
1, 73257, Note_on_c, 0, 45, 89
1, 73274, Note_on_c, 0, 85, 76
1, 73275, Note_off_c, 0, 84, 63
1, 73286, Control_c, 0, 64, 69
1, 73288, Note_off_c, 0, 52, 70
1, 73289, Note_off_c, 0, 49, 68
1, 73293, Note_off_c, 0, 45, 65
1, 73300, Control_c, 0, 64, 25
1, 73315, Control_c, 0, 64, 0
1, 73336, Note_on_c, 0, 87, 81
1, 73336, Note_off_c, 0, 85, 65
1, 73393, Note_on_c, 0, 49, 87
1, 73393, Note_on_c, 0, 52, 89
1, 73397, Note_on_c, 0, 45, 81
1, 73399, Note_on_c, 0, 88, 89
1, 73399, Note_off_c, 0, 87, 64
1, 73417, Note_off_c, 0, 52, 71
1, 73424, Note_off_c, 0, 45, 68
1, 73425, Note_off_c, 0, 49, 62
1, 73472, Note_off_c, 0, 88, 63
1, 73472, Note_on_c, 0, 87, 73
1, 73531, Note_on_c, 0, 88, 82
1, 73535, Note_off_c, 0, 87, 63
1, 73610, Note_on_c, 0, 87, 65
1, 73642, Note_on_c, 0, 52, 91
1, 73649, Note_on_c, 0, 45, 80
1, 73650, Note_on_c, 0, 85, 84
1, 73656, Note_on_c, 0, 49, 68
1, 73657, Note_off_c, 0, 88, 51
1, 73664, Note_off_c, 0, 52, 71
1, 73675, Note_off_c, 0, 45, 66
1, 73678, Note_off_c, 0, 49, 39
1, 73679, Note_off_c, 0, 87, 64
1, 73716, Note_on_c, 0, 84, 87
1, 73719, Note_off_c, 0, 85, 66
1, 73769, Note_on_c, 0, 54, 101
1, 73772, Note_on_c, 0, 46, 94
1, 73787, Note_on_c, 0, 85, 92
1, 73794, Note_off_c, 0, 84, 64
1, 73809, Note_off_c, 0, 46, 64
1, 73809, Note_off_c, 0, 54, 65
1, 73812, Control_c, 0, 64, 88
1, 73827, Control_c, 0, 64, 93
1, 73842, Control_c, 0, 64, 73
1, 73850, Note_off_c, 0, 85, 66
1, 73856, Control_c, 0, 64, 0
1, 73861, Poly_aftertouch_c, 0, 49, 0
1, 73863, Note_on_c, 0, 84, 79
1, 73914, Note_on_c, 0, 54, 86
1, 73919, Note_on_c, 0, 46, 76
1, 73919, Note_off_c, 0, 84, 65
1, 73923, Note_on_c, 0, 85, 63
1, 73936, Note_off_c, 0, 54, 67
1, 73947, Note_on_c, 0, 51, 33
1, 73948, Note_off_c, 0, 51, 50
1, 73952, Note_off_c, 0, 46, 64
1, 73978, Note_on_c, 0, 87, 78
1, 73985, Note_off_c, 0, 85, 64
1, 74038, Note_off_c, 0, 87, 63
1, 74046, Note_on_c, 0, 88, 83
1, 74106, Note_on_c, 0, 87, 72
1, 74133, Note_off_c, 0, 88, 57
1, 74169, Note_on_c, 0, 85, 85
1, 74179, Note_on_c, 0, 54, 81
1, 74187, Note_on_c, 0, 46, 67
1, 74188, Note_on_c, 0, 49, 58
1, 74193, Note_on_c, 0, 52, 61
1, 74205, Note_off_c, 0, 87, 63
1, 74207, Note_off_c, 0, 54, 63
1, 74216, Note_off_c, 0, 46, 64
1, 74217, Note_off_c, 0, 49, 63
1, 74222, Note_off_c, 0, 52, 67
1, 74232, Note_on_c, 0, 84, 88
1, 74236, Note_off_c, 0, 85, 68
1, 74315, Note_off_c, 0, 84, 54
1, 74318, Note_on_c, 0, 85, 93
1, 74319, Note_on_c, 0, 54, 91
1, 74320, Note_on_c, 0, 49, 79
1, 74321, Note_on_c, 0, 46, 82
1, 74323, Note_on_c, 0, 52, 70
1, 74339, Control_c, 0, 64, 46
1, 74348, Note_off_c, 0, 52, 68
1, 74353, Note_off_c, 0, 49, 63
1, 74354, Control_c, 0, 64, 0
1, 74354, Note_off_c, 0, 46, 66
1, 74360, Note_off_c, 0, 54, 63
1, 74373, Note_off_c, 0, 85, 64
1, 74388, Note_on_c, 0, 84, 86
1, 74449, Note_off_c, 0, 84, 61
1, 74451, Note_on_c, 0, 54, 84
1, 74456, Note_on_c, 0, 85, 66
1, 74457, Note_on_c, 0, 46, 75
1, 74461, Note_on_c, 0, 49, 64
1, 74466, Note_on_c, 0, 52, 40
1, 74477, Note_off_c, 0, 54, 63
1, 74482, Note_off_c, 0, 49, 62
1, 74488, Note_off_c, 0, 46, 64
1, 74498, Note_off_c, 0, 52, 48
1, 74504, Note_on_c, 0, 87, 82
1, 74517, Note_off_c, 0, 85, 62
1, 74574, Note_on_c, 0, 88, 89
1, 74574, Note_off_c, 0, 87, 65
1, 74632, Note_on_c, 0, 87, 76
1, 74670, Note_off_c, 0, 88, 56
1, 74696, Note_on_c, 0, 85, 86
1, 74709, Note_on_c, 0, 54, 86
1, 74719, Note_on_c, 0, 46, 69
1, 74720, Note_on_c, 0, 49, 65
1, 74721, Note_on_c, 0, 52, 66
1, 74730, Note_off_c, 0, 87, 63
1, 74740, Note_off_c, 0, 49, 61
1, 74746, Note_off_c, 0, 54, 63
1, 74748, Note_off_c, 0, 52, 69
1, 74749, Note_off_c, 0, 46, 63
1, 74752, Note_on_c, 0, 84, 89
1, 74760, Note_off_c, 0, 85, 66
1, 74829, Note_on_c, 0, 85, 91
1, 74831, Note_on_c, 0, 54, 103
1, 74834, Note_on_c, 0, 46, 94
1, 74835, Note_on_c, 0, 49, 78
1, 74836, Note_off_c, 0, 84, 65
1, 74847, Note_on_c, 0, 52, 60
1, 74858, Note_on_c, 0, 53, 59
1, 74859, Note_off_c, 0, 53, 127
1, 74869, Note_off_c, 0, 52, 61
1, 74873, Note_off_c, 0, 54, 63
1, 74878, Note_off_c, 0, 49, 64
1, 74879, Note_off_c, 0, 46, 59
1, 74888, Control_c, 0, 64, 54
1, 74893, Note_off_c, 0, 85, 63
1, 74900, Note_on_c, 0, 84, 88
1, 74903, Control_c, 0, 64, 0
1, 74962, Note_off_c, 0, 84, 64
1, 74973, Note_on_c, 0, 85, 69
1, 74974, Note_on_c, 0, 46, 89
1, 74974, Note_on_c, 0, 54, 87
1, 74989, Note_on_c, 0, 49, 67
1, 74996, Note_on_c, 0, 52, 26
1, 75004, Note_off_c, 0, 46, 64
1, 75010, Note_off_c, 0, 49, 59
1, 75010, Note_off_c, 0, 54, 65
1, 75028, Note_on_c, 0, 87, 86
1, 75038, Note_off_c, 0, 52, 42
1, 75040, Note_off_c, 0, 85, 65
1, 75101, Note_on_c, 0, 88, 91
1, 75103, Note_off_c, 0, 87, 64
1, 75169, Note_on_c, 0, 87, 76
1, 75210, Note_off_c, 0, 88, 52
1, 75231, Note_on_c, 0, 85, 85
1, 75240, Note_on_c, 0, 54, 95
1, 75253, Note_on_c, 0, 46, 76
1, 75253, Note_on_c, 0, 49, 74
1, 75253, Note_on_c, 0, 52, 70
1, 75266, Control_c, 0, 64, 57
1, 75268, Note_off_c, 0, 87, 64
1, 75279, Note_off_c, 0, 46, 64
1, 75280, Control_c, 0, 64, 0
1, 75281, Note_off_c, 0, 52, 68
1, 75281, Note_off_c, 0, 54, 61
1, 75282, Note_off_c, 0, 49, 63
1, 75298, Note_on_c, 0, 84, 89
1, 75302, Note_off_c, 0, 85, 67
1, 75368, Note_on_c, 0, 54, 104
1, 75371, Note_on_c, 0, 49, 83
1, 75374, Note_on_c, 0, 85, 92
1, 75382, Note_on_c, 0, 47, 72
1, 75382, Note_on_c, 0, 52, 68
1, 75384, Note_off_c, 0, 84, 62
1, 75384, Control_c, 0, 64, 32
1, 75400, Control_c, 0, 64, 0
1, 75405, Note_off_c, 0, 52, 66
1, 75407, Note_off_c, 0, 47, 67
1, 75411, Note_off_c, 0, 49, 59
1, 75411, Note_off_c, 0, 54, 64
1, 75434, Note_off_c, 0, 85, 65
1, 75442, Note_on_c, 0, 84, 80
1, 75502, Note_on_c, 0, 54, 103
1, 75507, Note_off_c, 0, 84, 65
1, 75508, Note_on_c, 0, 85, 75
1, 75509, Note_on_c, 0, 46, 85
1, 75514, Note_on_c, 0, 49, 79
1, 75535, Note_off_c, 0, 54, 63
1, 75540, Note_off_c, 0, 49, 66
1, 75541, Note_off_c, 0, 46, 67
1, 75543, Note_on_c, 0, 52, 17
1, 75544, Note_off_c, 0, 52, 127
1, 75560, Note_on_c, 0, 87, 84
1, 75565, Note_off_c, 0, 85, 66
1, 75633, Note_on_c, 0, 88, 93
1, 75638, Note_off_c, 0, 87, 63
1, 75691, Note_on_c, 0, 87, 78
1, 75698, Note_off_c, 0, 88, 64
1, 75757, Note_on_c, 0, 54, 98
1, 75759, Note_on_c, 0, 88, 82
1, 75761, Note_on_c, 0, 46, 84
1, 75765, Note_off_c, 0, 87, 65
1, 75815, Note_off_c, 0, 54, 62
1, 75817, Note_off_c, 0, 46, 57
1, 75824, Note_on_c, 0, 85, 86
1, 75830, Note_off_c, 0, 88, 66
1, 75839, Note_off_c, 0, 85, 74
1, 75892, Note_on_c, 0, 47, 88
1, 75910, Control_c, 0, 64, 60
1, 75922, Note_on_c, 0, 83, 97
1, 75925, Control_c, 0, 64, 127
1, 75929, Note_on_c, 0, 71, 92
1, 75940, Control_c, 0, 64, 127
1, 75961, Note_off_c, 0, 83, 64
1, 75966, Note_off_c, 0, 71, 60
1, 75981, Note_on_c, 0, 52, 63
1, 76013, Note_off_c, 0, 47, 60
1, 76058, Note_on_c, 0, 56, 82
1, 76073, Note_on_c, 0, 83, 92
1, 76079, Note_on_c, 0, 71, 80
1, 76084, Note_on_c, 0, 81, 65
1, 76102, Note_off_c, 0, 71, 65
1, 76104, Note_off_c, 0, 81, 58
1, 76108, Note_off_c, 0, 83, 62
1, 76120, Note_off_c, 0, 56, 64
1, 76144, Note_on_c, 0, 59, 67
1, 76162, Note_off_c, 0, 52, 37
1, 76193, Note_off_c, 0, 59, 62
1, 76207, Note_on_c, 0, 47, 83
1, 76209, Note_on_c, 0, 80, 89
1, 76216, Note_on_c, 0, 68, 90
1, 76226, Note_off_c, 0, 80, 74
1, 76237, Note_off_c, 0, 68, 71
1, 76253, Note_on_c, 0, 78, 28
1, 76254, Note_off_c, 0, 78, 127
1, 76272, Note_on_c, 0, 52, 63
1, 76279, Note_off_c, 0, 47, 63
1, 76331, Note_on_c, 0, 56, 78
1, 76334, Note_on_c, 0, 76, 95
1, 76349, Note_on_c, 0, 64, 68
1, 76361, Note_off_c, 0, 52, 64
1, 76367, Note_off_c, 0, 64, 65
1, 76369, Note_off_c, 0, 76, 68
1, 76386, Note_off_c, 0, 56, 63
1, 76399, Control_c, 0, 64, 86
1, 76404, Note_on_c, 0, 59, 76
1, 76414, Control_c, 0, 64, 0
1, 76456, Note_off_c, 0, 59, 60
1, 76480, Note_on_c, 0, 47, 84
1, 76488, Note_on_c, 0, 88, 103
1, 76489, Control_c, 0, 64, 69
1, 76493, Note_on_c, 0, 86, 86
1, 76494, Note_on_c, 0, 76, 88
1, 76504, Control_c, 0, 64, 85
1, 76511, Note_on_c, 0, 74, 49
1, 76512, Note_off_c, 0, 74, 127
1, 76524, Note_off_c, 0, 76, 68
1, 76525, Control_c, 0, 64, 92
1, 76526, Note_off_c, 0, 88, 65
1, 76535, Note_off_c, 0, 86, 64
1, 76540, Control_c, 0, 64, 93
1, 76555, Control_c, 0, 64, 93
1, 76563, Note_on_c, 0, 52, 66
1, 76566, Note_off_c, 0, 47, 60
1, 76570, Control_c, 0, 64, 96
1, 76584, Control_c, 0, 64, 101
1, 76599, Control_c, 0, 64, 106
1, 76614, Control_c, 0, 64, 109
1, 76615, Note_on_c, 0, 56, 70
1, 76629, Control_c, 0, 64, 111
1, 76630, Note_on_c, 0, 88, 100
1, 76637, Note_on_c, 0, 76, 92
1, 76639, Note_off_c, 0, 52, 62
1, 76644, Control_c, 0, 64, 112
1, 76659, Control_c, 0, 64, 112
1, 76662, Note_off_c, 0, 88, 65
1, 76666, Note_off_c, 0, 56, 59
1, 76668, Note_off_c, 0, 76, 64
1, 76679, Note_on_c, 0, 59, 77
1, 76688, Control_c, 0, 64, 113
1, 76733, Control_c, 0, 64, 112
1, 76743, Note_off_c, 0, 59, 60
1, 76748, Control_c, 0, 64, 101
1, 76762, Note_on_c, 0, 47, 86
1, 76763, Control_c, 0, 64, 80
1, 76766, Note_on_c, 0, 83, 98
1, 76775, Note_on_c, 0, 71, 82
1, 76777, Control_c, 0, 64, 0
1, 76796, Note_off_c, 0, 71, 69
1, 76806, Note_off_c, 0, 83, 62
1, 76831, Note_on_c, 0, 52, 66
1, 76833, Note_off_c, 0, 47, 61
1, 76837, Control_c, 0, 64, 25
1, 76851, Control_c, 0, 64, 45
1, 76866, Control_c, 0, 64, 0
1, 76888, Note_on_c, 0, 56, 72
1, 76901, Note_on_c, 0, 80, 95
1, 76915, Note_on_c, 0, 68, 76
1, 76940, Note_off_c, 0, 68, 68
1, 76944, Note_off_c, 0, 80, 66
1, 76951, Note_off_c, 0, 56, 65
1, 76957, Note_on_c, 0, 59, 72
1, 76994, Note_off_c, 0, 52, 36
1, 77019, Note_off_c, 0, 59, 61
1, 77034, Note_on_c, 0, 47, 81
1, 77035, Note_on_c, 0, 83, 99
1, 77046, Control_c, 0, 64, 68
1, 77049, Note_on_c, 0, 71, 79
1, 77060, Note_on_c, 0, 69, 61
1, 77061, Control_c, 0, 64, 85
1, 77069, Note_off_c, 0, 71, 69
1, 77075, Control_c, 0, 64, 89
1, 77079, Note_off_c, 0, 83, 59
1, 77079, Note_off_c, 0, 69, 43
1, 77102, Note_on_c, 0, 52, 69
1, 77110, Note_off_c, 0, 47, 60
1, 77162, Note_on_c, 0, 56, 79
1, 77172, Note_on_c, 0, 83, 95
1, 77180, Note_on_c, 0, 71, 83
1, 77201, Note_off_c, 0, 71, 68
1, 77213, Note_off_c, 0, 83, 60
1, 77220, Note_off_c, 0, 56, 62
1, 77233, Note_on_c, 0, 59, 75
1, 77248, Note_off_c, 0, 52, 33
1, 77293, Note_off_c, 0, 59, 61
1, 77310, Note_on_c, 0, 47, 83
1, 77312, Note_on_c, 0, 80, 91
1, 77320, Control_c, 0, 64, 87
1, 77323, Note_on_c, 0, 68, 83
1, 77333, Note_off_c, 0, 80, 68
1, 77335, Control_c, 0, 64, 77
1, 77344, Note_off_c, 0, 68, 71
1, 77349, Control_c, 0, 64, 56
1, 77364, Control_c, 0, 64, 0
1, 77376, Note_off_c, 0, 47, 59
1, 77385, Note_on_c, 0, 52, 58
1, 77440, Note_on_c, 0, 76, 92
1, 77442, Note_on_c, 0, 56, 77
1, 77454, Note_on_c, 0, 64, 74
1, 77466, Note_off_c, 0, 52, 64
1, 77469, Note_off_c, 0, 64, 69
1, 77479, Note_off_c, 0, 76, 66
1, 77497, Note_off_c, 0, 56, 64
1, 77503, Note_on_c, 0, 59, 83
1, 77559, Note_off_c, 0, 59, 59
1, 77581, Note_on_c, 0, 56, 84
1, 77586, Control_c, 0, 64, 83
1, 77588, Note_on_c, 0, 88, 109
1, 77592, Note_on_c, 0, 76, 100
1, 77601, Control_c, 0, 64, 100
1, 77615, Control_c, 0, 64, 102
1, 77618, Note_off_c, 0, 56, 63
1, 77624, Note_off_c, 0, 76, 66
1, 77626, Note_off_c, 0, 88, 65
1, 77660, Control_c, 0, 64, 101
1, 77674, Control_c, 0, 64, 97
1, 77689, Control_c, 0, 64, 91
1, 77704, Control_c, 0, 64, 82
1, 77718, Control_c, 0, 64, 71
1, 77720, Note_on_c, 0, 56, 78
1, 77721, Note_on_c, 0, 88, 105
1, 77726, Note_on_c, 0, 76, 92
1, 77733, Control_c, 0, 64, 25
1, 77748, Control_c, 0, 64, 0
1, 77756, Note_off_c, 0, 56, 58
1, 77758, Note_off_c, 0, 88, 63
1, 77759, Note_off_c, 0, 76, 67
1, 77853, Note_on_c, 0, 52, 79
1, 77858, Note_on_c, 0, 83, 94
1, 77867, Note_on_c, 0, 71, 86
1, 77893, Note_off_c, 0, 71, 62
1, 77896, Note_off_c, 0, 83, 66
1, 77897, Note_off_c, 0, 52, 64
1, 77976, Note_on_c, 0, 47, 89
1, 77985, Note_on_c, 0, 80, 94
1, 77989, Note_on_c, 0, 68, 86
1, 78012, Note_off_c, 0, 47, 67
1, 78028, Note_off_c, 0, 68, 63
1, 78042, Note_off_c, 0, 80, 62
1, 78119, Note_on_c, 0, 59, 97
1, 78150, Note_off_c, 0, 59, 66
1, 78171, Control_c, 0, 64, 80
1, 78182, Note_on_c, 0, 82, 26
1, 78186, Control_c, 0, 64, 91
1, 78201, Control_c, 0, 64, 92
1, 78203, Note_on_c, 0, 80, 69
1, 78214, Note_off_c, 0, 82, 55
1, 78230, Control_c, 0, 64, 91
1, 78245, Control_c, 0, 64, 91
1, 78247, Note_off_c, 0, 80, 61
1, 78258, Note_on_c, 0, 56, 73
1, 78260, Control_c, 0, 64, 90
1, 78271, Note_on_c, 0, 83, 67
1, 78275, Control_c, 0, 64, 88
1, 78285, Note_off_c, 0, 56, 65
1, 78290, Control_c, 0, 64, 82
1, 78304, Control_c, 0, 64, 74
1, 78319, Control_c, 0, 64, 64
1, 78331, Note_off_c, 0, 83, 61
1, 78334, Control_c, 0, 64, 0
1, 78341, Note_on_c, 0, 80, 73
1, 78378, Note_off_c, 0, 80, 59
1, 78389, Note_on_c, 0, 64, 61
1, 78393, Note_on_c, 0, 83, 55
1, 78411, Note_off_c, 0, 64, 64
1, 78456, Note_off_c, 0, 83, 61
1, 78467, Note_on_c, 0, 80, 72
1, 78510, Note_on_c, 0, 59, 68
1, 78511, Note_off_c, 0, 80, 62
1, 78519, Note_on_c, 0, 83, 69
1, 78537, Note_off_c, 0, 59, 62
1, 78580, Note_off_c, 0, 83, 62
1, 78588, Note_on_c, 0, 80, 74
1, 78646, Note_on_c, 0, 83, 70
1, 78646, Note_off_c, 0, 80, 64
1, 78647, Note_on_c, 0, 68, 79
1, 78671, Note_off_c, 0, 68, 68
1, 78704, Note_off_c, 0, 83, 61
1, 78709, Note_on_c, 0, 80, 75
1, 78778, Note_off_c, 0, 80, 65
1, 78781, Note_on_c, 0, 83, 72
1, 78787, Note_on_c, 0, 64, 74
1, 78816, Note_off_c, 0, 64, 65
1, 78838, Note_off_c, 0, 83, 62
1, 78844, Note_on_c, 0, 80, 73
1, 78904, Note_off_c, 0, 80, 64
1, 78907, Note_on_c, 0, 83, 68
1, 78910, Note_on_c, 0, 71, 81
1, 78936, Note_off_c, 0, 71, 60
1, 78967, Note_off_c, 0, 83, 62
1, 78971, Note_on_c, 0, 80, 73
1, 79031, Note_on_c, 0, 68, 69
1, 79033, Note_off_c, 0, 80, 64
1, 79041, Note_on_c, 0, 83, 69
1, 79051, Note_off_c, 0, 68, 67
1, 79097, Note_off_c, 0, 83, 62
1, 79103, Note_on_c, 0, 80, 68
1, 79162, Note_off_c, 0, 80, 64
1, 79165, Note_on_c, 0, 83, 61
1, 79169, Note_on_c, 0, 76, 79
1, 79204, Note_off_c, 0, 76, 63
1, 79225, Note_off_c, 0, 83, 60
1, 79234, Note_on_c, 0, 80, 65
1, 79285, Note_off_c, 0, 80, 63
1, 79295, Note_on_c, 0, 83, 55
1, 79304, Note_on_c, 0, 71, 56
1, 79324, Note_off_c, 0, 71, 59
1, 79346, Note_off_c, 0, 83, 60
1, 79357, Note_on_c, 0, 80, 64
1, 79407, Note_off_c, 0, 80, 62
1, 79422, Note_on_c, 0, 83, 55
1, 79436, Note_on_c, 0, 76, 57
1, 79455, Note_off_c, 0, 76, 65
1, 79455, Control_c, 0, 67, 9
1, 79469, Control_c, 0, 67, 19
1, 79470, Note_off_c, 0, 83, 60
1, 79484, Control_c, 0, 67, 34
1, 79485, Note_on_c, 0, 80, 60
1, 79499, Control_c, 0, 67, 57
1, 79521, Control_c, 0, 67, 84
1, 79536, Control_c, 0, 67, 114
1, 79538, Note_off_c, 0, 80, 61
1, 79550, Control_c, 0, 67, 127
1, 79562, Note_on_c, 0, 83, 55
1, 79571, Note_on_c, 0, 71, 55
1, 79591, Note_off_c, 0, 71, 57
1, 79598, Note_off_c, 0, 83, 61
1, 79620, Note_on_c, 0, 80, 57
1, 79662, Note_off_c, 0, 80, 61
1, 79687, Note_on_c, 0, 83, 62
1, 79723, Note_on_c, 0, 76, 28
1, 79729, Note_off_c, 0, 83, 55
1, 79752, Note_off_c, 0, 76, 33
1, 79753, Note_on_c, 0, 80, 64
1, 79789, Note_off_c, 0, 80, 62
1, 79817, Note_on_c, 0, 83, 59
1, 79830, Note_on_c, 0, 71, 58
1, 79849, Note_off_c, 0, 71, 61
1, 79853, Note_off_c, 0, 83, 59
1, 79882, Note_on_c, 0, 80, 63
1, 79914, Note_off_c, 0, 80, 56
1, 79943, Note_on_c, 0, 83, 62
1, 79965, Note_on_c, 0, 76, 46
1, 79983, Note_off_c, 0, 83, 57
1, 79987, Note_off_c, 0, 76, 55
1, 80000, Note_on_c, 0, 80, 70
1, 80042, Note_off_c, 0, 80, 58
1, 80067, Note_on_c, 0, 83, 50
1, 80092, Note_on_c, 0, 71, 53
1, 80114, Note_off_c, 0, 71, 58
1, 80119, Note_off_c, 0, 83, 56
1, 80119, Note_on_c, 0, 80, 57
1, 80149, Note_off_c, 0, 80, 61
1, 80212, Note_on_c, 0, 75, 62
1, 80237, Note_off_c, 0, 75, 67
1, 80271, Note_on_c, 0, 81, 57
1, 80295, Note_off_c, 0, 81, 57
1, 80335, Note_on_c, 0, 83, 61
1, 80351, Note_on_c, 0, 71, 51
1, 80371, Note_off_c, 0, 83, 57
1, 80374, Note_off_c, 0, 71, 57
1, 80386, Note_on_c, 0, 81, 68
1, 80432, Note_off_c, 0, 81, 59
1, 80459, Note_on_c, 0, 84, 66
1, 80478, Note_on_c, 0, 75, 45
1, 80501, Note_off_c, 0, 75, 58
1, 80507, Note_off_c, 0, 84, 63
1, 80512, Note_on_c, 0, 81, 74
1, 80567, Note_off_c, 0, 81, 51
1, 80585, Note_on_c, 0, 83, 75
1, 80596, Note_on_c, 0, 71, 51
1, 80620, Note_off_c, 0, 71, 56
1, 80639, Note_on_c, 0, 81, 79
1, 80641, Note_off_c, 0, 83, 60
1, 80700, Note_off_c, 0, 81, 61
1, 80704, Note_on_c, 0, 84, 79
1, 80719, Note_on_c, 0, 75, 48
1, 80742, Note_off_c, 0, 75, 60
1, 80768, Note_off_c, 0, 84, 64
1, 80770, Note_on_c, 0, 81, 79
1, 80835, Note_off_c, 0, 81, 60
1, 80842, Note_on_c, 0, 83, 68
1, 80844, Note_on_c, 0, 71, 55
1, 80868, Note_off_c, 0, 71, 55
1, 80896, Note_on_c, 0, 81, 70
1, 80898, Note_off_c, 0, 83, 58
1, 80954, Note_off_c, 0, 81, 60
1, 80966, Note_on_c, 0, 84, 71
1, 80969, Note_on_c, 0, 75, 60
1, 81000, Note_off_c, 0, 75, 68
1, 81031, Note_off_c, 0, 84, 63
1, 81037, Note_on_c, 0, 81, 68
1, 81081, Note_off_c, 0, 81, 58
1, 81113, Note_on_c, 0, 83, 59
1, 81118, Note_on_c, 0, 71, 42
1, 81144, Note_off_c, 0, 71, 50
1, 81145, Note_off_c, 0, 83, 50
1, 81171, Note_on_c, 0, 81, 69
1, 81207, Note_off_c, 0, 81, 55
1, 81237, Note_on_c, 0, 75, 58
1, 81242, Note_on_c, 0, 84, 60
1, 81261, Note_off_c, 0, 75, 65
1, 81286, Note_off_c, 0, 84, 62
1, 81310, Note_on_c, 0, 81, 65
1, 81336, Note_off_c, 0, 81, 56
1, 81372, Note_on_c, 0, 71, 40
1, 81381, Note_on_c, 0, 83, 51
1, 81397, Note_off_c, 0, 71, 54
1, 81406, Note_off_c, 0, 83, 54
1, 81431, Note_on_c, 0, 81, 63
1, 81470, Note_off_c, 0, 81, 57
1, 81503, Note_on_c, 0, 75, 55
1, 81505, Note_on_c, 0, 84, 57
1, 81529, Note_off_c, 0, 75, 66
1, 81545, Note_off_c, 0, 84, 64
1, 81577, Note_on_c, 0, 81, 49
1, 81599, Note_off_c, 0, 81, 55
1, 81640, Note_on_c, 0, 83, 51
1, 81654, Note_on_c, 0, 71, 25
1, 81664, Note_off_c, 0, 83, 57
1, 81689, Note_off_c, 0, 71, 39
1, 81690, Note_on_c, 0, 81, 61
1, 81729, Note_off_c, 0, 81, 59
1, 81772, Note_on_c, 0, 84, 55
1, 81773, Note_on_c, 0, 75, 47
1, 81798, Note_off_c, 0, 75, 62
1, 81806, Note_off_c, 0, 84, 55
1, 81838, Note_on_c, 0, 81, 59
1, 81860, Note_off_c, 0, 81, 59
1, 81908, Note_on_c, 0, 83, 50
1, 81914, Note_on_c, 0, 71, 21
1, 81932, Note_off_c, 0, 83, 58
1, 81950, Note_off_c, 0, 71, 30
1, 81953, Note_on_c, 0, 81, 63
1, 81991, Note_off_c, 0, 81, 57
1, 82024, Note_on_c, 0, 75, 55
1, 82039, Note_on_c, 0, 84, 50
1, 82049, Note_off_c, 0, 75, 65
1, 82066, Note_off_c, 0, 84, 57
1, 82096, Note_on_c, 0, 81, 65
1, 82128, Note_off_c, 0, 81, 60
1, 82160, Note_on_c, 0, 71, 28
1, 82168, Control_c, 0, 64, 48
1, 82180, Note_on_c, 0, 83, 48
1, 82183, Control_c, 0, 64, 61
1, 82193, Note_off_c, 0, 71, 31
1, 82197, Control_c, 0, 64, 65
1, 82203, Note_off_c, 0, 83, 57
1, 82212, Control_c, 0, 64, 67
1, 82227, Control_c, 0, 64, 70
1, 82242, Note_on_c, 0, 81, 60
1, 82242, Control_c, 0, 64, 74
1, 82257, Control_c, 0, 64, 78
1, 82270, Note_off_c, 0, 81, 53
1, 82272, Control_c, 0, 64, 80
1, 82286, Control_c, 0, 64, 81
1, 82301, Control_c, 0, 64, 81
1, 82316, Control_c, 0, 64, 82
1, 82319, Note_on_c, 0, 75, 25
1, 82328, Note_on_c, 0, 85, 53
1, 82331, Control_c, 0, 64, 83
1, 82346, Control_c, 0, 64, 84
1, 82357, Note_off_c, 0, 75, 39
1, 82361, Control_c, 0, 64, 85
1, 82361, Note_on_c, 0, 76, 50
1, 82376, Control_c, 0, 64, 85
1, 82377, Note_off_c, 0, 85, 58
1, 82385, Note_on_c, 0, 81, 55
1, 82390, Control_c, 0, 64, 86
1, 82400, Note_off_c, 0, 76, 49
1, 82425, Note_off_c, 0, 81, 56
1, 82444, Note_on_c, 0, 75, 52
1, 82469, Note_off_c, 0, 75, 62
1, 82486, Note_on_c, 0, 83, 35
1, 82519, Note_off_c, 0, 83, 52
1, 82525, Note_on_c, 0, 76, 45
1, 82531, Note_on_c, 0, 81, 63
1, 82563, Note_off_c, 0, 76, 50
1, 82570, Note_off_c, 0, 81, 56
1, 82583, Note_on_c, 0, 75, 51
1, 82604, Note_on_c, 0, 85, 63
1, 82623, Note_off_c, 0, 75, 66
1, 82635, Control_c, 0, 64, 86
1, 82650, Note_off_c, 0, 85, 58
1, 82665, Note_on_c, 0, 76, 52
1, 82671, Note_on_c, 0, 81, 69
1, 82699, Note_off_c, 0, 76, 52
1, 82706, Note_off_c, 0, 81, 56
1, 82729, Note_on_c, 0, 75, 54
1, 82738, Note_on_c, 0, 83, 65
1, 82752, Note_off_c, 0, 75, 61
1, 82772, Note_off_c, 0, 83, 57
1, 82784, Control_c, 0, 64, 87
1, 82798, Note_on_c, 0, 81, 81
1, 82799, Note_on_c, 0, 76, 52
1, 82834, Note_off_c, 0, 76, 51
1, 82843, Control_c, 0, 64, 87
1, 82844, Note_off_c, 0, 81, 53
1, 82850, Note_on_c, 0, 75, 60
1, 82858, Control_c, 0, 64, 88
1, 82867, Note_on_c, 0, 85, 74
1, 82887, Note_off_c, 0, 75, 61
1, 82887, Control_c, 0, 64, 88
1, 82902, Control_c, 0, 64, 89
1, 82924, Note_on_c, 0, 81, 77
1, 82927, Note_off_c, 0, 85, 62
1, 82930, Note_on_c, 0, 76, 55
1, 82932, Control_c, 0, 64, 89
1, 82969, Note_off_c, 0, 76, 52
1, 82976, Control_c, 0, 64, 90
1, 82985, Note_off_c, 0, 81, 59
1, 83001, Note_on_c, 0, 83, 69
1, 83002, Note_on_c, 0, 75, 57
1, 83006, Control_c, 0, 64, 90
1, 83026, Note_off_c, 0, 75, 63
1, 83035, Control_c, 0, 64, 91
1, 83043, Note_off_c, 0, 83, 48
1, 83053, Note_on_c, 0, 81, 74
1, 83065, Control_c, 0, 64, 91
1, 83066, Note_on_c, 0, 76, 57
1, 83106, Note_off_c, 0, 76, 58
1, 83108, Note_off_c, 0, 81, 60
1, 83109, Control_c, 0, 64, 92
1, 83120, Note_on_c, 0, 75, 65
1, 83128, Note_on_c, 0, 85, 76
1, 83154, Control_c, 0, 64, 92
1, 83167, Note_off_c, 0, 75, 60
1, 83183, Note_on_c, 0, 81, 80
1, 83184, Control_c, 0, 64, 93
1, 83188, Note_off_c, 0, 85, 63
1, 83194, Note_on_c, 0, 76, 64
1, 83213, Control_c, 0, 64, 93
1, 83243, Control_c, 0, 64, 94
1, 83249, Note_off_c, 0, 81, 57
1, 83253, Note_off_c, 0, 76, 63
1, 83270, Note_on_c, 0, 83, 72
1, 83271, Note_on_c, 0, 75, 65
1, 83279, Control_c, 0, 64, 94
1, 83309, Control_c, 0, 64, 95
1, 83312, Note_off_c, 0, 75, 58
1, 83327, Note_on_c, 0, 81, 72
1, 83327, Note_off_c, 0, 83, 56
1, 83339, Control_c, 0, 64, 95
1, 83342, Note_on_c, 0, 76, 60
1, 83369, Control_c, 0, 64, 96
1, 83383, Control_c, 0, 64, 96
1, 83399, Control_c, 0, 64, 97
1, 83404, Note_on_c, 0, 90, 94
1, 83409, Note_off_c, 0, 76, 64
1, 83414, Control_c, 0, 64, 97
1, 83423, Note_on_c, 0, 75, 68
1, 83429, Control_c, 0, 64, 98
1, 83430, Note_off_c, 0, 81, 54
1, 83443, Control_c, 0, 64, 98
1, 83458, Control_c, 0, 64, 99
1, 83460, Note_off_c, 0, 75, 59
1, 83473, Control_c, 0, 64, 99
1, 83485, Note_on_c, 0, 83, 64
1, 83488, Note_on_c, 0, 76, 56
1, 83497, Note_off_c, 0, 90, 62
1, 83503, Control_c, 0, 64, 100
1, 83533, Control_c, 0, 64, 100
1, 83549, Note_off_c, 0, 76, 63
1, 83551, Note_on_c, 0, 90, 75
1, 83562, Note_off_c, 0, 83, 61
1, 83568, Note_on_c, 0, 75, 60
1, 83577, Control_c, 0, 64, 101
1, 83604, Note_off_c, 0, 75, 59
1, 83621, Note_on_c, 0, 83, 58
1, 83622, Control_c, 0, 64, 101
1, 83625, Note_off_c, 0, 90, 63
1, 83636, Note_on_c, 0, 76, 61
1, 83637, Control_c, 0, 64, 102
1, 83652, Control_c, 0, 64, 102
1, 83667, Control_c, 0, 64, 103
1, 83682, Control_c, 0, 64, 104
1, 83689, Note_on_c, 0, 90, 85
1, 83696, Control_c, 0, 64, 105
1, 83699, Note_off_c, 0, 76, 63
1, 83701, Note_off_c, 0, 83, 61
1, 83711, Control_c, 0, 64, 107
1, 83714, Note_on_c, 0, 75, 64
1, 83726, Control_c, 0, 64, 109
1, 83741, Control_c, 0, 64, 111
1, 83750, Note_off_c, 0, 75, 62
1, 83756, Control_c, 0, 64, 112
1, 83759, Note_on_c, 0, 83, 69
1, 83770, Note_on_c, 0, 76, 61
1, 83770, Control_c, 0, 64, 114
1, 83771, Note_off_c, 0, 90, 64
1, 83785, Control_c, 0, 64, 116
1, 83800, Control_c, 0, 64, 118
1, 83815, Control_c, 0, 64, 121
1, 83830, Note_on_c, 0, 90, 81
1, 83830, Control_c, 0, 64, 123
1, 83830, Control_c, 0, 67, 124
1, 83834, Note_off_c, 0, 83, 60
1, 83840, Note_off_c, 0, 76, 64
1, 83844, Control_c, 0, 64, 127
1, 83844, Control_c, 0, 67, 107
1, 83850, Note_on_c, 0, 75, 67
1, 83859, Control_c, 0, 64, 127
1, 83859, Control_c, 0, 67, 86
1, 83874, Control_c, 0, 67, 59
1, 83887, Note_on_c, 0, 83, 68
1, 83888, Control_c, 0, 67, 37
1, 83898, Note_off_c, 0, 75, 60
1, 83903, Control_c, 0, 67, 18
1, 83907, Note_off_c, 0, 90, 64
1, 83911, Note_on_c, 0, 76, 68
1, 83918, Control_c, 0, 67, 0
1, 83966, Note_on_c, 0, 90, 86
1, 83972, Note_off_c, 0, 83, 59
1, 83980, Note_off_c, 0, 76, 66
1, 83983, Note_on_c, 0, 75, 66
1, 84034, Note_on_c, 0, 83, 64
1, 84044, Note_on_c, 0, 81, 55
1, 84046, Note_off_c, 0, 75, 63
1, 84052, Note_off_c, 0, 90, 64
1, 84055, Note_on_c, 0, 76, 68
1, 84081, Note_off_c, 0, 81, 59
1, 84107, Note_on_c, 0, 90, 85
1, 84111, Note_off_c, 0, 83, 61
1, 84120, Note_on_c, 0, 75, 66
1, 84121, Note_off_c, 0, 76, 66
1, 84164, Note_on_c, 0, 83, 68
1, 84175, Note_on_c, 0, 81, 68
1, 84176, Note_off_c, 0, 75, 64
1, 84184, Note_off_c, 0, 90, 64
1, 84194, Note_on_c, 0, 76, 68
1, 84203, Note_off_c, 0, 81, 63
1, 84227, Note_on_c, 0, 90, 77
1, 84236, Note_off_c, 0, 83, 60
1, 84243, Note_off_c, 0, 76, 66
1, 84247, Note_on_c, 0, 75, 64
1, 84284, Note_on_c, 0, 83, 65
1, 84297, Note_off_c, 0, 75, 64
1, 84300, Note_on_c, 0, 81, 76
1, 84303, Note_off_c, 0, 90, 64
1, 84312, Note_on_c, 0, 76, 72
1, 84343, Note_on_c, 0, 90, 73
1, 84346, Note_off_c, 0, 83, 61
1, 84373, Note_off_c, 0, 76, 66
1, 84381, Note_on_c, 0, 75, 57
1, 84397, Note_off_c, 0, 90, 65
1, 84401, Note_off_c, 0, 75, 67
1, 84407, Note_off_c, 0, 81, 56
1, 84409, Note_on_c, 0, 73, 75
1, 84472, Note_off_c, 0, 73, 63
1, 84474, Note_on_c, 0, 75, 76
1, 84496, Note_off_c, 0, 75, 71
1, 84601, Note_on_c, 0, 88, 95
1, 84607, Note_on_c, 0, 80, 99
1, 84611, Note_on_c, 0, 83, 88
1, 84616, Note_on_c, 0, 76, 73
1, 84624, Note_on_c, 0, 64, 65
1, 84653, Control_c, 0, 64, 109
1, 84667, Control_c, 0, 64, 91
1, 84682, Control_c, 0, 64, 72
1, 84697, Control_c, 0, 64, 0
1, 84838, Control_c, 0, 64, 18
1, 84853, Control_c, 0, 64, 63
1, 84867, Control_c, 0, 64, 69
1, 84882, Control_c, 0, 64, 74
1, 84897, Control_c, 0, 64, 80
1, 84911, Control_c, 0, 64, 83
1, 84926, Control_c, 0, 64, 85
1, 84926, Control_c, 0, 67, 9
1, 84941, Control_c, 0, 64, 87
1, 84941, Control_c, 0, 67, 15
1, 84956, Control_c, 0, 64, 89
1, 84956, Control_c, 0, 67, 21
1, 84971, Control_c, 0, 64, 91
1, 84971, Control_c, 0, 67, 27
1, 84986, Control_c, 0, 64, 93
1, 84986, Control_c, 0, 67, 35
1, 85002, Control_c, 0, 64, 95
1, 85002, Control_c, 0, 67, 48
1, 85016, Control_c, 0, 64, 96
1, 85016, Control_c, 0, 67, 63
1, 85031, Control_c, 0, 64, 97
1, 85031, Control_c, 0, 67, 78
1, 85046, Control_c, 0, 64, 98
1, 85046, Control_c, 0, 67, 91
1, 85061, Control_c, 0, 64, 99
1, 85061, Control_c, 0, 67, 103
1, 85076, Control_c, 0, 64, 99
1, 85076, Control_c, 0, 67, 113
1, 85090, Control_c, 0, 64, 100
1, 85090, Control_c, 0, 67, 123
1, 85105, Control_c, 0, 67, 127
1, 85120, Control_c, 0, 64, 100
1, 85179, Control_c, 0, 64, 101
1, 85190, Note_off_c, 0, 76, 36
1, 85303, Note_off_c, 0, 83, 14
1, 85312, Control_c, 0, 64, 101
1, 85532, Note_off_c, 0, 80, 34
1, 85642, Note_on_c, 0, 74, 27
1, 85645, Note_on_c, 0, 68, 29
1, 85658, Note_on_c, 0, 71, 27
1, 85775, Note_off_c, 0, 88, 56
1, 86011, Note_on_c, 0, 88, 59
1, 86052, Note_off_c, 0, 74, 51
1, 86098, Note_on_c, 0, 86, 53
1, 86109, Note_off_c, 0, 88, 52
1, 86158, Note_on_c, 0, 84, 55
1, 86163, Note_off_c, 0, 86, 54
1, 86206, Note_off_c, 0, 84, 61
1, 86216, Note_on_c, 0, 83, 54
1, 86276, Control_c, 0, 64, 101
1, 86277, Note_off_c, 0, 83, 46
1, 86290, Note_off_c, 0, 68, 40
1, 86305, Note_on_c, 0, 84, 64
1, 86305, Control_c, 0, 64, 100
1, 86320, Control_c, 0, 64, 98
1, 86330, Note_on_c, 0, 69, 40
1, 86335, Control_c, 0, 64, 95
1, 86343, Note_on_c, 0, 72, 43
1, 86350, Control_c, 0, 64, 90
1, 86361, Note_off_c, 0, 71, 39
1, 86364, Control_c, 0, 64, 84
1, 86379, Control_c, 0, 64, 76
1, 86386, Note_on_c, 0, 83, 63
1, 86387, Note_off_c, 0, 84, 58
1, 86394, Control_c, 0, 64, 65
1, 86409, Control_c, 0, 64, 0
1, 86416, Note_off_c, 0, 83, 51
1, 86451, Note_on_c, 0, 81, 64
1, 86485, Note_off_c, 0, 81, 58
1, 86514, Note_on_c, 0, 80, 63
1, 86528, Control_c, 0, 64, 33
1, 86543, Control_c, 0, 64, 62
1, 86557, Control_c, 0, 64, 66
1, 86561, Note_off_c, 0, 80, 62
1, 86572, Control_c, 0, 64, 69
1, 86581, Note_on_c, 0, 81, 68
1, 86588, Control_c, 0, 64, 72
1, 86603, Control_c, 0, 64, 75
1, 86618, Control_c, 0, 64, 77
1, 86632, Note_off_c, 0, 81, 53
1, 86632, Control_c, 0, 64, 79
1, 86647, Control_c, 0, 64, 79
1, 86651, Note_on_c, 0, 83, 66
1, 86676, Control_c, 0, 64, 80
1, 86680, Note_off_c, 0, 72, 61
1, 86707, Note_off_c, 0, 83, 61
1, 86714, Note_on_c, 0, 84, 67
1, 86735, Control_c, 0, 64, 80
1, 86754, Note_off_c, 0, 84, 62
1, 86795, Note_on_c, 0, 86, 66
1, 86839, Note_off_c, 0, 86, 48
1, 86839, Control_c, 0, 64, 80
1, 86840, Note_off_c, 0, 69, 60
1, 86854, Control_c, 0, 64, 78
1, 86865, Note_on_c, 0, 88, 71
1, 86868, Control_c, 0, 64, 75
1, 86883, Control_c, 0, 64, 68
1, 86889, Note_on_c, 0, 68, 40
1, 86895, Note_on_c, 0, 74, 38
1, 86898, Control_c, 0, 64, 54
1, 86907, Note_on_c, 0, 71, 30
1, 86913, Control_c, 0, 64, 0
1, 86922, Note_off_c, 0, 88, 62
1, 86946, Note_on_c, 0, 89, 61
1, 87035, Note_on_c, 0, 88, 57
1, 87046, Note_off_c, 0, 89, 58
1, 87054, Control_c, 0, 64, 43
1, 87068, Control_c, 0, 64, 52
1, 87083, Control_c, 0, 64, 56
1, 87085, Note_off_c, 0, 88, 62
1, 87089, Note_on_c, 0, 87, 66
1, 87098, Control_c, 0, 64, 59
1, 87113, Control_c, 0, 64, 61
1, 87127, Control_c, 0, 64, 62
1, 87142, Note_off_c, 0, 87, 64
1, 87142, Control_c, 0, 64, 62
1, 87157, Note_on_c, 0, 88, 66
1, 87202, Control_c, 0, 64, 62
1, 87217, Control_c, 0, 64, 61
1, 87232, Control_c, 0, 64, 59
1, 87247, Control_c, 0, 64, 56
1, 87249, Note_on_c, 0, 86, 64
1, 87253, Note_off_c, 0, 74, 56
1, 87261, Control_c, 0, 64, 54
1, 87268, Note_off_c, 0, 88, 60
1, 87276, Control_c, 0, 64, 54
1, 87305, Note_on_c, 0, 84, 64
1, 87317, Note_off_c, 0, 86, 60
1, 87335, Control_c, 0, 64, 54
1, 87365, Control_c, 0, 64, 55
1, 87366, Note_off_c, 0, 84, 64
1, 87381, Note_on_c, 0, 83, 62
1, 87381, Control_c, 0, 64, 55
1, 87420, Note_off_c, 0, 68, 50
1, 87421, Note_off_c, 0, 83, 51
1, 87440, Control_c, 0, 64, 55
1, 87449, Note_on_c, 0, 84, 60
1, 87449, Note_off_c, 0, 71, 51
1, 87455, Control_c, 0, 64, 51
1, 87464, Note_on_c, 0, 69, 45
1, 87466, Note_on_c, 0, 72, 40
1, 87470, Control_c, 0, 64, 24
1, 87485, Control_c, 0, 64, 0
1, 87500, Note_off_c, 0, 84, 63
1, 87515, Note_on_c, 0, 86, 61
1, 87574, Control_c, 0, 64, 41
1, 87589, Control_c, 0, 64, 60
1, 87590, Note_on_c, 0, 84, 57
1, 87591, Note_off_c, 0, 72, 53
1, 87603, Control_c, 0, 64, 63
1, 87607, Note_off_c, 0, 86, 55
1, 87618, Control_c, 0, 64, 65
1, 87633, Control_c, 0, 64, 66
1, 87648, Control_c, 0, 64, 67
1, 87650, Note_off_c, 0, 69, 61
1, 87655, Note_off_c, 0, 84, 62
1, 87659, Note_on_c, 0, 83, 62
1, 87663, Control_c, 0, 64, 69
1, 87677, Control_c, 0, 64, 70
1, 87692, Control_c, 0, 64, 72
1, 87703, Note_off_c, 0, 83, 59
1, 87707, Control_c, 0, 64, 73
1, 87731, Note_on_c, 0, 81, 62
1, 87731, Note_off_c, 0, 64, 40
1, 87736, Control_c, 0, 64, 73
1, 87773, Note_off_c, 0, 81, 45
1, 87797, Note_on_c, 0, 80, 67
1, 87848, Control_c, 0, 64, 73
1, 87875, Note_on_c, 0, 81, 71
1, 87878, Control_c, 0, 64, 72
1, 87886, Note_off_c, 0, 80, 54
1, 87892, Control_c, 0, 64, 72
1, 87907, Control_c, 0, 64, 71
1, 87922, Control_c, 0, 64, 68
1, 87936, Control_c, 0, 64, 63
1, 87937, Note_on_c, 0, 83, 69
1, 87946, Note_off_c, 0, 81, 59
1, 87951, Control_c, 0, 64, 43
1, 87966, Control_c, 0, 64, 0
1, 88038, Note_off_c, 0, 83, 57
1, 88040, Note_on_c, 0, 84, 81
1, 88055, Note_on_c, 0, 60, 32
1, 88058, Note_on_c, 0, 66, 36
1, 88058, Note_on_c, 0, 72, 58
1, 88077, Note_on_c, 0, 69, 29
1, 88091, Note_on_c, 0, 57, 33
1, 88189, Control_c, 0, 64, 56
1, 88204, Control_c, 0, 64, 64
1, 88219, Control_c, 0, 64, 66
1, 88233, Control_c, 0, 64, 68
1, 88248, Control_c, 0, 64, 71
1, 88263, Control_c, 0, 64, 74
1, 88272, Note_off_c, 0, 69, 41
1, 88278, Control_c, 0, 64, 76
1, 88293, Control_c, 0, 64, 78
1, 88299, Note_off_c, 0, 57, 40
1, 88308, Control_c, 0, 64, 79
1, 88323, Control_c, 0, 64, 79
1, 88338, Control_c, 0, 64, 80
1, 88352, Control_c, 0, 64, 80
1, 88367, Control_c, 0, 64, 81
1, 88373, Note_off_c, 0, 66, 50
1, 88382, Control_c, 0, 64, 82
1, 88396, Note_on_c, 0, 81, 64
1, 88402, Note_off_c, 0, 84, 45
1, 88441, Control_c, 0, 64, 82
1, 88495, Note_off_c, 0, 72, 40
1, 88539, Note_off_c, 0, 81, 55
1, 88551, Note_on_c, 0, 78, 73
1, 88639, Note_off_c, 0, 60, 15
1, 88685, Control_c, 0, 64, 82
1, 88715, Control_c, 0, 64, 81
1, 88725, Note_on_c, 0, 83, 66
1, 88727, Note_off_c, 0, 78, 59
1, 88730, Control_c, 0, 64, 80
1, 88745, Control_c, 0, 64, 78
1, 88746, Note_on_c, 0, 67, 41
1, 88753, Note_on_c, 0, 71, 41
1, 88755, Note_on_c, 0, 59, 28
1, 88758, Note_on_c, 0, 64, 33
1, 88759, Control_c, 0, 64, 74
1, 88774, Control_c, 0, 64, 66
1, 88789, Control_c, 0, 64, 51
1, 88804, Control_c, 0, 64, 0
1, 88922, Control_c, 0, 64, 36
1, 88937, Control_c, 0, 64, 59
1, 88952, Control_c, 0, 64, 64
1, 88967, Control_c, 0, 64, 65
1, 88982, Control_c, 0, 64, 67
1, 88997, Control_c, 0, 64, 69
1, 89012, Control_c, 0, 64, 72
1, 89017, Note_off_c, 0, 83, 54
1, 89027, Control_c, 0, 64, 75
1, 89042, Control_c, 0, 64, 77
1, 89050, Note_off_c, 0, 64, 41
1, 89054, Note_on_c, 0, 79, 55
1, 89056, Control_c, 0, 64, 78
1, 89071, Note_off_c, 0, 59, 38
1, 89071, Control_c, 0, 64, 79
1, 89086, Control_c, 0, 64, 80
1, 89101, Control_c, 0, 64, 80
1, 89116, Control_c, 0, 64, 81
1, 89152, Note_off_c, 0, 71, 32
1, 89160, Control_c, 0, 64, 81
1, 89191, Note_on_c, 0, 76, 61
1, 89205, Note_off_c, 0, 79, 34
1, 89298, Note_off_c, 0, 67, 24
1, 89315, Control_c, 0, 64, 81
1, 89345, Control_c, 0, 64, 80
1, 89360, Control_c, 0, 64, 79
1, 89371, Note_off_c, 0, 76, 51
1, 89372, Note_on_c, 0, 81, 63
1, 89375, Control_c, 0, 64, 75
1, 89378, Note_on_c, 0, 66, 42
1, 89382, Note_on_c, 0, 69, 50
1, 89390, Control_c, 0, 64, 69
1, 89403, Note_on_c, 0, 63, 29
1, 89405, Control_c, 0, 64, 49
1, 89411, Note_on_c, 0, 59, 20
1, 89420, Control_c, 0, 64, 0
1, 89538, Control_c, 0, 64, 59
1, 89553, Control_c, 0, 64, 66
1, 89568, Control_c, 0, 64, 68
1, 89582, Control_c, 0, 64, 69
1, 89597, Control_c, 0, 64, 71
1, 89612, Control_c, 0, 64, 74
1, 89617, Note_off_c, 0, 66, 42
1, 89627, Control_c, 0, 64, 77
1, 89642, Control_c, 0, 64, 78
1, 89656, Control_c, 0, 64, 79
1, 89669, Note_off_c, 0, 81, 56
1, 89671, Control_c, 0, 64, 80
1, 89680, Note_off_c, 0, 63, 40
1, 89686, Control_c, 0, 64, 80
1, 89693, Note_on_c, 0, 78, 63
1, 89701, Control_c, 0, 64, 82
1, 89715, Control_c, 0, 64, 82
1, 89730, Control_c, 0, 64, 84
1, 89745, Control_c, 0, 64, 85
1, 89760, Control_c, 0, 64, 85
1, 89760, Control_c, 0, 67, 126
1, 89776, Control_c, 0, 64, 86
1, 89776, Control_c, 0, 67, 111
1, 89777, Note_off_c, 0, 59, 40
1, 89791, Control_c, 0, 64, 87
1, 89791, Control_c, 0, 67, 93
1, 89805, Control_c, 0, 64, 88
1, 89805, Control_c, 0, 67, 71
1, 89820, Control_c, 0, 64, 88
1, 89820, Control_c, 0, 67, 47
1, 89835, Control_c, 0, 64, 89
1, 89835, Control_c, 0, 67, 24
1, 89850, Control_c, 0, 64, 90
1, 89850, Control_c, 0, 67, 0
1, 89864, Note_on_c, 0, 75, 72
1, 89865, Control_c, 0, 64, 90
1, 89866, Note_off_c, 0, 69, 36
1, 89894, Control_c, 0, 64, 91
1, 89909, Control_c, 0, 64, 91
1, 89924, Control_c, 0, 64, 92
1, 89935, Note_off_c, 0, 78, 28
1, 89938, Control_c, 0, 64, 92
1, 89947, Note_off_c, 0, 75, 60
1, 89968, Control_c, 0, 64, 93
1, 89983, Control_c, 0, 64, 94
1, 90005, Control_c, 0, 64, 94
1, 90020, Control_c, 0, 64, 95
1, 90050, Control_c, 0, 64, 95
1, 90131, Note_on_c, 0, 76, 85
1, 90138, Control_c, 0, 64, 95
1, 90150, Note_on_c, 0, 64, 51
1, 90153, Control_c, 0, 64, 92
1, 90155, Note_on_c, 0, 52, 47
1, 90168, Control_c, 0, 64, 88
1, 90183, Control_c, 0, 64, 80
1, 90198, Control_c, 0, 64, 70
1, 90213, Control_c, 0, 64, 0
1, 90317, Control_c, 0, 67, 11
1, 90331, Control_c, 0, 67, 18
1, 90346, Control_c, 0, 67, 27
1, 90361, Control_c, 0, 67, 40
1, 90375, Control_c, 0, 64, 60
1, 90375, Control_c, 0, 67, 57
1, 90390, Control_c, 0, 64, 66
1, 90390, Control_c, 0, 67, 75
1, 90404, Control_c, 0, 64, 68
1, 90404, Control_c, 0, 67, 91
1, 90419, Control_c, 0, 64, 70
1, 90419, Control_c, 0, 67, 103
1, 90434, Control_c, 0, 64, 73
1, 90434, Control_c, 0, 67, 109
1, 90448, Control_c, 0, 64, 77
1, 90448, Control_c, 0, 67, 113
1, 90462, Note_off_c, 0, 64, 58
1, 90463, Control_c, 0, 64, 80
1, 90478, Control_c, 0, 64, 80
1, 90478, Control_c, 0, 67, 113
1, 90493, Control_c, 0, 64, 81
1, 90493, Control_c, 0, 67, 115
1, 90508, Control_c, 0, 64, 82
1, 90508, Control_c, 0, 67, 118
1, 90523, Control_c, 0, 64, 83
1, 90523, Control_c, 0, 67, 124
1, 90538, Control_c, 0, 64, 84
1, 90538, Control_c, 0, 67, 127
1, 90553, Control_c, 0, 64, 86
1, 90567, Control_c, 0, 64, 86
1, 90583, Control_c, 0, 64, 87
1, 90598, Control_c, 0, 64, 88
1, 90613, Control_c, 0, 64, 88
1, 90672, Control_c, 0, 64, 89
1, 90834, Note_off_c, 0, 76, 61
1, 90842, Note_on_c, 0, 62, 29
1, 90853, Note_on_c, 0, 56, 33
1, 90867, Note_on_c, 0, 59, 26
1, 91183, Note_on_c, 0, 76, 48
1, 91217, Note_off_c, 0, 62, 39
1, 91262, Note_on_c, 0, 74, 48
1, 91281, Note_off_c, 0, 76, 38
1, 91286, Control_c, 0, 64, 88
1, 91316, Note_on_c, 0, 72, 55
1, 91316, Control_c, 0, 64, 87
1, 91331, Control_c, 0, 64, 87
1, 91335, Note_off_c, 0, 74, 51
1, 91345, Control_c, 0, 64, 86
1, 91360, Control_c, 0, 64, 84
1, 91369, Note_off_c, 0, 72, 60
1, 91376, Control_c, 0, 64, 82
1, 91389, Note_on_c, 0, 71, 50
1, 91391, Control_c, 0, 64, 79
1, 91406, Control_c, 0, 64, 75
1, 91421, Control_c, 0, 64, 70
1, 91435, Note_off_c, 0, 56, 37
1, 91436, Control_c, 0, 64, 64
1, 91445, Note_off_c, 0, 71, 56
1, 91450, Control_c, 0, 64, 24
1, 91465, Note_on_c, 0, 72, 59
1, 91465, Control_c, 0, 64, 0
1, 91467, Note_on_c, 0, 57, 36
1, 91483, Note_on_c, 0, 60, 34
1, 91489, Note_off_c, 0, 59, 41
1, 91546, Note_off_c, 0, 72, 62
1, 91566, Note_on_c, 0, 71, 49
1, 91590, Note_off_c, 0, 71, 56
1, 91622, Note_on_c, 0, 69, 59
1, 91647, Note_off_c, 0, 69, 56
1, 91686, Note_on_c, 0, 68, 65
1, 91729, Note_off_c, 0, 68, 65
1, 91748, Note_on_c, 0, 69, 63
1, 91769, Control_c, 0, 64, 45
1, 91784, Control_c, 0, 64, 58
1, 91799, Control_c, 0, 64, 62
1, 91801, Note_off_c, 0, 69, 61
1, 91813, Control_c, 0, 64, 64
1, 91816, Note_on_c, 0, 71, 64
1, 91816, Note_off_c, 0, 60, 59
1, 91828, Control_c, 0, 64, 65
1, 91843, Control_c, 0, 64, 67
1, 91858, Control_c, 0, 64, 68
1, 91873, Control_c, 0, 64, 68
1, 91878, Note_off_c, 0, 71, 60
1, 91879, Note_on_c, 0, 72, 68
1, 91888, Control_c, 0, 64, 69
1, 91911, Note_off_c, 0, 72, 64
1, 91955, Note_on_c, 0, 74, 63
1, 91962, Control_c, 0, 64, 68
1, 91976, Control_c, 0, 64, 66
1, 91991, Control_c, 0, 64, 60
1, 92001, Note_off_c, 0, 74, 59
1, 92005, Note_off_c, 0, 57, 56
1, 92006, Control_c, 0, 64, 34
1, 92021, Note_on_c, 0, 76, 67
1, 92021, Control_c, 0, 64, 0
1, 92039, Note_on_c, 0, 56, 39
1, 92051, Note_on_c, 0, 59, 32
1, 92052, Note_on_c, 0, 62, 34
1, 92081, Note_off_c, 0, 76, 64
1, 92099, Note_on_c, 0, 77, 68
1, 92177, Note_on_c, 0, 76, 61
1, 92210, Note_off_c, 0, 77, 46
1, 92240, Note_off_c, 0, 76, 65
1, 92253, Note_on_c, 0, 75, 67
1, 92290, Note_off_c, 0, 75, 66
1, 92328, Note_on_c, 0, 76, 71
1, 92406, Note_off_c, 0, 62, 50
1, 92418, Note_on_c, 0, 74, 64
1, 92419, Note_off_c, 0, 76, 65
1, 92478, Note_on_c, 0, 72, 63
1, 92491, Note_off_c, 0, 74, 63
1, 92536, Note_off_c, 0, 72, 62
1, 92549, Note_on_c, 0, 71, 62
1, 92577, Control_c, 0, 64, 10
1, 92592, Note_off_c, 0, 71, 53
1, 92592, Control_c, 0, 64, 18
1, 92602, Note_off_c, 0, 56, 41
1, 92606, Control_c, 0, 64, 19
1, 92612, Note_on_c, 0, 57, 42
1, 92621, Note_on_c, 0, 72, 67
1, 92621, Control_c, 0, 64, 21
1, 92627, Note_off_c, 0, 59, 44
1, 92635, Note_on_c, 0, 60, 34
1, 92650, Control_c, 0, 64, 22
1, 92680, Control_c, 0, 64, 21
1, 92684, Note_off_c, 0, 72, 64
1, 92695, Control_c, 0, 64, 0
1, 92696, Note_on_c, 0, 74, 61
1, 92766, Note_on_c, 0, 72, 58
1, 92777, Note_off_c, 0, 60, 51
1, 92783, Note_off_c, 0, 74, 56
1, 92828, Control_c, 0, 64, 30
1, 92833, Note_off_c, 0, 57, 55
1, 92833, Note_off_c, 0, 72, 61
1, 92835, Note_on_c, 0, 71, 61
1, 92842, Control_c, 0, 64, 53
1, 92857, Control_c, 0, 64, 58
1, 92872, Control_c, 0, 64, 60
1, 92878, Note_off_c, 0, 71, 60
1, 92887, Control_c, 0, 64, 61
1, 92902, Control_c, 0, 64, 62
1, 92904, Note_on_c, 0, 69, 64
1, 92911, Note_off_c, 0, 52, 53
1, 92916, Control_c, 0, 64, 63
1, 92946, Control_c, 0, 64, 62
1, 92956, Note_off_c, 0, 69, 53
1, 92961, Control_c, 0, 64, 62
1, 92977, Control_c, 0, 64, 58
1, 92979, Note_on_c, 0, 68, 65
1, 93000, Control_c, 0, 64, 46
1, 93015, Control_c, 0, 64, 0
1, 93055, Note_on_c, 0, 69, 62
1, 93079, Note_off_c, 0, 68, 47
1, 93117, Note_off_c, 0, 69, 64
1, 93119, Note_on_c, 0, 71, 70
1, 93221, Note_on_c, 0, 72, 75
1, 93222, Note_off_c, 0, 71, 55
1, 93239, Note_on_c, 0, 48, 44
1, 93240, Note_on_c, 0, 60, 60
1, 93244, Note_on_c, 0, 54, 45
1, 93251, Note_on_c, 0, 57, 41
1, 93268, Note_on_c, 0, 45, 42
1, 93370, Control_c, 0, 64, 49
1, 93385, Control_c, 0, 64, 62
1, 93400, Control_c, 0, 64, 65
1, 93415, Control_c, 0, 64, 67
1, 93429, Control_c, 0, 64, 70
1, 93444, Control_c, 0, 64, 73
1, 93459, Control_c, 0, 64, 77
1, 93474, Control_c, 0, 64, 79
1, 93489, Control_c, 0, 64, 79
1, 93497, Note_off_c, 0, 45, 41
1, 93501, Note_off_c, 0, 57, 51
1, 93504, Control_c, 0, 64, 80
1, 93519, Control_c, 0, 64, 80
1, 93533, Control_c, 0, 64, 81
1, 93548, Control_c, 0, 64, 82
1, 93563, Control_c, 0, 64, 83
1, 93569, Note_on_c, 0, 69, 67
1, 93593, Control_c, 0, 64, 83
1, 93599, Note_off_c, 0, 72, 61
1, 93602, Note_off_c, 0, 54, 58
1, 93622, Control_c, 0, 64, 84
1, 93652, Control_c, 0, 64, 84
1, 93674, Note_off_c, 0, 60, 58
1, 93719, Note_on_c, 0, 66, 78
1, 93719, Note_off_c, 0, 69, 60
1, 93885, Note_off_c, 0, 48, 36
1, 93907, Note_on_c, 0, 71, 70
1, 93909, Note_off_c, 0, 66, 65
1, 93912, Control_c, 0, 64, 82
1, 93919, Note_on_c, 0, 59, 53
1, 93922, Note_on_c, 0, 47, 46
1, 93927, Control_c, 0, 64, 79
1, 93934, Note_on_c, 0, 52, 45
1, 93942, Control_c, 0, 64, 69
1, 93946, Note_on_c, 0, 55, 36
1, 93957, Control_c, 0, 64, 32
1, 93971, Control_c, 0, 64, 0
1, 94090, Control_c, 0, 64, 40
1, 94104, Control_c, 0, 64, 61
1, 94119, Control_c, 0, 64, 65
1, 94134, Control_c, 0, 64, 68
1, 94149, Control_c, 0, 64, 71
1, 94164, Control_c, 0, 64, 74
1, 94178, Control_c, 0, 64, 77
1, 94193, Control_c, 0, 64, 78
1, 94208, Control_c, 0, 64, 79
1, 94219, Note_off_c, 0, 71, 49
1, 94223, Control_c, 0, 64, 80
1, 94234, Note_on_c, 0, 67, 64
1, 94236, Note_off_c, 0, 52, 60
1, 94238, Control_c, 0, 64, 80
1, 94252, Control_c, 0, 64, 81
1, 94267, Control_c, 0, 64, 81
1, 94270, Note_off_c, 0, 47, 42
1, 94345, Note_off_c, 0, 67, 57
1, 94359, Note_off_c, 0, 59, 38
1, 94384, Note_on_c, 0, 64, 63
1, 94398, Note_off_c, 0, 55, 36
1, 94511, Control_c, 0, 64, 81
1, 94526, Control_c, 0, 64, 80
1, 94541, Control_c, 0, 64, 77
1, 94556, Control_c, 0, 64, 70
1, 94559, Note_off_c, 0, 64, 59
1, 94565, Note_on_c, 0, 69, 58
1, 94571, Note_on_c, 0, 47, 33
1, 94572, Control_c, 0, 64, 36
1, 94573, Note_on_c, 0, 54, 39
1, 94574, Note_on_c, 0, 51, 36
1, 94587, Control_c, 0, 64, 0
1, 94594, Note_on_c, 0, 57, 30
1, 94705, Control_c, 0, 64, 61
1, 94720, Control_c, 0, 64, 65
1, 94735, Control_c, 0, 64, 67
1, 94750, Control_c, 0, 64, 69
1, 94765, Control_c, 0, 64, 70
1, 94772, Note_off_c, 0, 57, 38
1, 94779, Control_c, 0, 64, 73
1, 94794, Control_c, 0, 64, 75
1, 94809, Control_c, 0, 64, 76
1, 94824, Control_c, 0, 64, 76
1, 94834, Note_off_c, 0, 69, 58
1, 94854, Control_c, 0, 64, 77
1, 94873, Note_on_c, 0, 66, 60
1, 94874, Note_off_c, 0, 51, 38
1, 94942, Control_c, 0, 64, 77
1, 94947, Note_off_c, 0, 47, 25
1, 95026, Note_on_c, 0, 63, 68
1, 95038, Note_off_c, 0, 66, 39
1, 95164, Control_c, 0, 64, 77
1, 95170, Note_off_c, 0, 63, 61
1, 95194, Control_c, 0, 64, 76
1, 95209, Control_c, 0, 64, 73
1, 95215, Note_off_c, 0, 54, 27
1, 95224, Control_c, 0, 64, 66
1, 95227, Note_on_c, 0, 64, 61
1, 95239, Control_c, 0, 64, 0
1, 95249, Note_on_c, 0, 55, 31
1, 95250, Note_on_c, 0, 52, 26
1, 95349, Control_c, 0, 64, 46
1, 95364, Control_c, 0, 64, 64
1, 95380, Control_c, 0, 64, 69
1, 95393, Note_off_c, 0, 55, 48
1, 95395, Control_c, 0, 64, 72
1, 95410, Control_c, 0, 64, 74
1, 95420, Note_off_c, 0, 52, 52
1, 95424, Control_c, 0, 64, 77
1, 95439, Control_c, 0, 64, 78
1, 95454, Control_c, 0, 64, 79
1, 95469, Control_c, 0, 64, 80
1, 95484, Control_c, 0, 64, 81
1, 95513, Control_c, 0, 64, 81
1, 95557, Control_c, 0, 64, 82
1, 95632, Control_c, 0, 64, 81
1, 95642, Note_off_c, 0, 64, 23
1, 95647, Control_c, 0, 64, 81
1, 95650, Note_on_c, 0, 76, 71
1, 95662, Control_c, 0, 64, 77
1, 95665, Note_on_c, 0, 43, 47
1, 95671, Note_on_c, 0, 52, 42
1, 95676, Control_c, 0, 64, 69
1, 95691, Control_c, 0, 64, 0
1, 95780, Control_c, 0, 64, 51
1, 95795, Control_c, 0, 64, 63
1, 95810, Control_c, 0, 64, 65
1, 95820, Note_on_c, 0, 74, 72
1, 95824, Control_c, 0, 64, 65
1, 95839, Control_c, 0, 64, 66
1, 95854, Control_c, 0, 64, 67
1, 95863, Note_off_c, 0, 76, 61
1, 95868, Control_c, 0, 64, 69
1, 95883, Control_c, 0, 64, 70
1, 95898, Control_c, 0, 64, 71
1, 95913, Control_c, 0, 64, 71
1, 95928, Control_c, 0, 64, 72
1, 95972, Control_c, 0, 64, 71
1, 95975, Note_off_c, 0, 74, 63
1, 95978, Note_on_c, 0, 45, 60
1, 95979, Note_off_c, 0, 43, 53
1, 95981, Note_on_c, 0, 72, 76
1, 95995, Control_c, 0, 64, 69
1, 96010, Control_c, 0, 64, 64
1, 96024, Control_c, 0, 64, 0
1, 96139, Note_on_c, 0, 53, 75
1, 96186, Note_off_c, 0, 52, 59
1, 96276, Note_off_c, 0, 45, 62
1, 96292, Note_on_c, 0, 55, 67
1, 96294, Note_on_c, 0, 69, 76
1, 96296, Note_off_c, 0, 53, 65
1, 96315, Note_off_c, 0, 72, 61
1, 96336, Control_c, 0, 64, 51
1, 96351, Control_c, 0, 64, 63
1, 96365, Control_c, 0, 64, 64
1, 96432, Note_off_c, 0, 55, 61
1, 96435, Note_on_c, 0, 65, 79
1, 96437, Note_on_c, 0, 57, 65
1, 96457, Note_off_c, 0, 69, 60
1, 96470, Control_c, 0, 64, 64
1, 96485, Control_c, 0, 64, 62
1, 96499, Control_c, 0, 64, 54
1, 96514, Control_c, 0, 64, 0
1, 96602, Note_off_c, 0, 57, 35
1, 96634, Note_off_c, 0, 65, 62
1, 96637, Note_on_c, 0, 71, 62
1, 96641, Note_on_c, 0, 55, 43
1, 96645, Note_on_c, 0, 59, 46
1, 96668, Note_on_c, 0, 47, 36
1, 96921, Control_c, 0, 64, 47
1, 96936, Control_c, 0, 64, 59
1, 96951, Control_c, 0, 64, 62
1, 96966, Control_c, 0, 64, 63
1, 96976, Note_on_c, 0, 67, 54
1, 96982, Control_c, 0, 64, 64
1, 96996, Control_c, 0, 64, 66
1, 96997, Note_off_c, 0, 71, 51
1, 97011, Control_c, 0, 64, 68
1, 97026, Control_c, 0, 64, 70
1, 97041, Control_c, 0, 64, 72
1, 97056, Control_c, 0, 64, 74
1, 97070, Control_c, 0, 64, 75
1, 97085, Control_c, 0, 64, 76
1, 97100, Control_c, 0, 64, 76
1, 97122, Note_on_c, 0, 64, 60
1, 97239, Note_off_c, 0, 64, 50
1, 97248, Note_off_c, 0, 67, 37
1, 97248, Control_c, 0, 64, 76
1, 97263, Control_c, 0, 64, 75
1, 97276, Note_on_c, 0, 69, 51
1, 97277, Control_c, 0, 64, 72
1, 97292, Control_c, 0, 64, 66
1, 97298, Note_on_c, 0, 54, 46
1, 97307, Control_c, 0, 64, 0
1, 97311, Note_on_c, 0, 57, 35
1, 97321, Note_off_c, 0, 55, 31
1, 97333, Note_off_c, 0, 59, 41
1, 97424, Note_off_c, 0, 57, 0
1, 97424, Note_on_c, 0, 57, 6
1, 97440, Control_c, 0, 64, 59
1, 97455, Control_c, 0, 64, 66
1, 97470, Control_c, 0, 64, 68
1, 97492, Control_c, 0, 64, 70
1, 97507, Control_c, 0, 64, 71
1, 97522, Control_c, 0, 64, 73
1, 97537, Control_c, 0, 64, 75
1, 97552, Control_c, 0, 64, 77
1, 97567, Control_c, 0, 64, 77
1, 97576, Note_off_c, 0, 54, 38
1, 97594, Note_off_c, 0, 69, 60
1, 97596, Control_c, 0, 64, 78
1, 97606, Note_on_c, 0, 66, 60
1, 97626, Control_c, 0, 64, 78
1, 97626, Note_off_c, 0, 57, 39
1, 97714, Note_off_c, 0, 47, 40
1, 97750, Note_off_c, 0, 66, 56
1, 97755, Note_on_c, 0, 63, 64
1, 97893, Control_c, 0, 64, 78
1, 97901, Note_off_c, 0, 63, 60
1, 97908, Control_c, 0, 64, 76
1, 97923, Control_c, 0, 64, 72
1, 97938, Control_c, 0, 64, 60
1, 97948, Note_on_c, 0, 64, 53
1, 97952, Control_c, 0, 64, 0
1, 97970, Note_on_c, 0, 52, 31
1, 97974, Note_on_c, 0, 48, 29
1, 97979, Note_on_c, 0, 55, 22
1, 98056, Control_c, 0, 64, 51
1, 98070, Control_c, 0, 64, 65
1, 98085, Control_c, 0, 64, 68
1, 98100, Control_c, 0, 64, 70
1, 98112, Note_off_c, 0, 52, 30
1, 98113, Note_off_c, 0, 55, 44
1, 98115, Control_c, 0, 64, 72
1, 98130, Control_c, 0, 64, 74
1, 98145, Control_c, 0, 64, 77
1, 98160, Control_c, 0, 64, 78
1, 98175, Control_c, 0, 64, 78
1, 98181, Note_off_c, 0, 48, 50
1, 98190, Control_c, 0, 64, 79
1, 98209, Note_off_c, 0, 64, 56
1, 98219, Control_c, 0, 64, 79
1, 98270, Control_c, 0, 64, 80
1, 98434, Control_c, 0, 64, 79
1, 98443, Note_on_c, 0, 40, 42
1, 98446, Note_on_c, 0, 72, 60
1, 98456, Note_on_c, 0, 48, 32
1, 98463, Control_c, 0, 64, 78
1, 98478, Control_c, 0, 64, 76
1, 98493, Control_c, 0, 64, 71
1, 98508, Control_c, 0, 64, 61
1, 98523, Control_c, 0, 64, 0
1, 98583, Control_c, 0, 64, 51
1, 98598, Control_c, 0, 64, 62
1, 98610, Note_off_c, 0, 72, 60
1, 98610, Note_on_c, 0, 71, 63
1, 98613, Control_c, 0, 64, 63
1, 98642, Control_c, 0, 64, 64
1, 98657, Control_c, 0, 64, 65
1, 98672, Control_c, 0, 64, 67
1, 98686, Control_c, 0, 64, 68
1, 98701, Control_c, 0, 64, 68
1, 98731, Control_c, 0, 64, 68
1, 98746, Control_c, 0, 64, 64
1, 98747, Note_off_c, 0, 71, 60
1, 98759, Note_off_c, 0, 40, 57
1, 98760, Control_c, 0, 64, 48
1, 98766, Note_on_c, 0, 69, 68
1, 98768, Note_on_c, 0, 41, 57
1, 98775, Control_c, 0, 64, 0
1, 98834, Control_c, 0, 64, 49
1, 98849, Control_c, 0, 64, 61
1, 98864, Control_c, 0, 64, 62
1, 98893, Control_c, 0, 64, 62
1, 98908, Control_c, 0, 64, 61
1, 98919, Note_on_c, 0, 50, 73
1, 98923, Control_c, 0, 64, 60
1, 98938, Control_c, 0, 64, 55
1, 98953, Control_c, 0, 64, 0
1, 98955, Note_off_c, 0, 48, 51
1, 99058, Note_off_c, 0, 41, 61
1, 99075, Note_on_c, 0, 65, 71
1, 99075, Note_off_c, 0, 50, 63
1, 99080, Note_on_c, 0, 52, 65
1, 99082, Note_off_c, 0, 69, 60
1, 99093, Control_c, 0, 64, 56
1, 99108, Control_c, 0, 64, 63
1, 99123, Control_c, 0, 64, 64
1, 99167, Control_c, 0, 64, 64
1, 99182, Control_c, 0, 64, 64
1, 99197, Control_c, 0, 64, 63
1, 99199, Note_off_c, 0, 52, 62
1, 99207, Note_off_c, 0, 65, 63
1, 99209, Note_on_c, 0, 62, 71
1, 99212, Control_c, 0, 64, 60
1, 99225, Note_on_c, 0, 53, 49
1, 99227, Control_c, 0, 64, 49
1, 99242, Control_c, 0, 64, 0
1, 99381, Note_off_c, 0, 53, 35
1, 99391, Note_off_c, 0, 62, 60
1, 99409, Note_on_c, 0, 67, 58
1, 99412, Note_on_c, 0, 55, 43
1, 99414, Note_on_c, 0, 52, 35
1, 99435, Note_on_c, 0, 43, 37
1, 99628, Control_c, 0, 64, 44
1, 99643, Control_c, 0, 64, 56
1, 99657, Control_c, 0, 64, 58
1, 99672, Control_c, 0, 64, 60
1, 99687, Control_c, 0, 64, 63
1, 99702, Control_c, 0, 64, 65
1, 99713, Note_on_c, 0, 64, 50
1, 99716, Control_c, 0, 64, 67
1, 99727, Note_off_c, 0, 67, 51
1, 99731, Control_c, 0, 64, 69
1, 99754, Control_c, 0, 64, 70
1, 99769, Control_c, 0, 64, 72
1, 99784, Control_c, 0, 64, 74
1, 99798, Control_c, 0, 64, 74
1, 99813, Control_c, 0, 64, 75
1, 99828, Control_c, 0, 64, 75
1, 99842, Control_c, 0, 64, 76
1, 99860, Note_on_c, 0, 60, 67
1, 99887, Control_c, 0, 64, 76
1, 99921, Note_off_c, 0, 55, 39
1, 99924, Note_off_c, 0, 64, 30
1, 99961, Note_off_c, 0, 60, 50
1, 100006, Note_off_c, 0, 52, 40
1, 100019, Note_on_c, 0, 65, 62
1, 100020, Control_c, 0, 64, 76
1, 100034, Note_on_c, 0, 53, 43
1, 100035, Control_c, 0, 64, 73
1, 100036, Note_on_c, 0, 50, 39
1, 100050, Control_c, 0, 64, 65
1, 100065, Control_c, 0, 64, 0
1, 100185, Control_c, 0, 64, 61
1, 100200, Control_c, 0, 64, 66
1, 100214, Control_c, 0, 64, 68
1, 100229, Control_c, 0, 64, 69
1, 100258, Control_c, 0, 64, 70
1, 100273, Control_c, 0, 64, 72
1, 100288, Control_c, 0, 64, 73
1, 100296, Note_off_c, 0, 65, 58
1, 100303, Control_c, 0, 64, 74
1, 100318, Control_c, 0, 64, 75
1, 100333, Note_on_c, 0, 62, 61
1, 100348, Control_c, 0, 64, 75
1, 100375, Note_off_c, 0, 43, 39
1, 100392, Control_c, 0, 64, 76
1, 100425, Note_off_c, 0, 62, 60
1, 100437, Control_c, 0, 64, 76
1, 100465, Note_on_c, 0, 59, 66
1, 100524, Note_off_c, 0, 53, 33
1, 100568, Note_off_c, 0, 59, 57
1, 100592, Control_c, 0, 64, 76
1, 100607, Control_c, 0, 64, 75
1, 100622, Control_c, 0, 64, 70
1, 100637, Control_c, 0, 64, 0
1, 100643, Note_on_c, 0, 60, 69
1, 100653, Note_off_c, 0, 50, 48
1, 100655, Note_on_c, 0, 52, 45
1, 100667, Note_on_c, 0, 48, 42
1, 100740, Control_c, 0, 64, 61
1, 100755, Control_c, 0, 64, 69
1, 100756, Note_off_c, 0, 60, 60
1, 100770, Control_c, 0, 64, 75
1, 100785, Control_c, 0, 64, 79
1, 100800, Control_c, 0, 64, 80
1, 100814, Control_c, 0, 64, 81
1, 100829, Control_c, 0, 64, 82
1, 100844, Control_c, 0, 64, 83
1, 100844, Control_c, 0, 67, 118
1, 100858, Control_c, 0, 64, 84
1, 100858, Control_c, 0, 67, 92
1, 100872, Control_c, 0, 64, 84
1, 100872, Control_c, 0, 67, 61
1, 100887, Control_c, 0, 67, 26
1, 100902, Control_c, 0, 64, 85
1, 100902, Control_c, 0, 67, 0
1, 100932, Control_c, 0, 64, 84
1, 100942, Note_on_c, 0, 77, 80
1, 100944, Note_off_c, 0, 52, 48
1, 100947, Control_c, 0, 64, 81
1, 100949, Note_off_c, 0, 48, 39
1, 100950, Note_on_c, 0, 45, 48
1, 100950, Note_on_c, 0, 53, 47
1, 100962, Control_c, 0, 64, 72
1, 100977, Control_c, 0, 64, 31
1, 100992, Control_c, 0, 64, 0
1, 101036, Control_c, 0, 64, 56
1, 101039, Note_off_c, 0, 45, 63
1, 101051, Control_c, 0, 64, 69
1, 101066, Control_c, 0, 64, 75
1, 101081, Control_c, 0, 64, 80
1, 101084, Note_on_c, 0, 76, 78
1, 101096, Control_c, 0, 64, 80
1, 101106, Note_off_c, 0, 77, 53
1, 101111, Control_c, 0, 64, 81
1, 101126, Control_c, 0, 64, 82
1, 101141, Control_c, 0, 64, 83
1, 101155, Control_c, 0, 64, 84
1, 101170, Control_c, 0, 64, 85
1, 101185, Control_c, 0, 64, 86
1, 101236, Control_c, 0, 64, 85
1, 101237, Note_off_c, 0, 76, 65
1, 101244, Note_on_c, 0, 74, 75
1, 101251, Control_c, 0, 64, 81
1, 101253, Note_on_c, 0, 46, 60
1, 101266, Control_c, 0, 64, 70
1, 101281, Control_c, 0, 64, 0
1, 101335, Note_off_c, 0, 53, 62
1, 101347, Note_off_c, 0, 46, 63
1, 101355, Control_c, 0, 64, 63
1, 101370, Control_c, 0, 64, 69
1, 101379, Note_on_c, 0, 55, 73
1, 101385, Control_c, 0, 64, 73
1, 101400, Control_c, 0, 64, 76
1, 101414, Control_c, 0, 64, 77
1, 101429, Control_c, 0, 64, 77
1, 101444, Control_c, 0, 64, 78
1, 101459, Control_c, 0, 64, 79
1, 101474, Control_c, 0, 64, 80
1, 101496, Note_off_c, 0, 55, 64
1, 101503, Control_c, 0, 64, 80
1, 101522, Note_on_c, 0, 70, 78
1, 101524, Note_on_c, 0, 57, 69
1, 101542, Note_off_c, 0, 74, 58
1, 101628, Note_off_c, 0, 57, 48
1, 101648, Note_on_c, 0, 58, 69
1, 101655, Note_on_c, 0, 67, 79
1, 101695, Control_c, 0, 64, 79
1, 101697, Note_off_c, 0, 70, 56
1, 101710, Control_c, 0, 64, 74
1, 101725, Control_c, 0, 64, 64
1, 101740, Control_c, 0, 64, 0
1, 101751, Note_off_c, 0, 58, 60
1, 101771, Control_c, 0, 67, 10
1, 101785, Control_c, 0, 67, 16
1, 101800, Control_c, 0, 67, 22
1, 101815, Control_c, 0, 67, 30
1, 101830, Control_c, 0, 67, 40
1, 101835, Note_on_c, 0, 72, 65
1, 101844, Note_off_c, 0, 67, 57
1, 101844, Control_c, 0, 67, 52
1, 101850, Note_on_c, 0, 57, 36
1, 101856, Note_on_c, 0, 60, 44
1, 101859, Control_c, 0, 67, 68
1, 101869, Note_on_c, 0, 48, 42
1, 101874, Control_c, 0, 67, 90
1, 101889, Control_c, 0, 67, 119
1, 101904, Control_c, 0, 67, 127
1, 102044, Control_c, 0, 64, 51
1, 102059, Control_c, 0, 64, 61
1, 102074, Control_c, 0, 64, 64
1, 102089, Control_c, 0, 64, 65
1, 102104, Control_c, 0, 64, 66
1, 102118, Control_c, 0, 64, 68
1, 102119, Note_off_c, 0, 60, 58
1, 102133, Control_c, 0, 64, 70
1, 102148, Control_c, 0, 64, 74
1, 102157, Note_on_c, 0, 69, 48
1, 102163, Control_c, 0, 64, 77
1, 102178, Control_c, 0, 64, 78
1, 102193, Control_c, 0, 64, 79
1, 102208, Control_c, 0, 64, 79
1, 102214, Note_off_c, 0, 69, 56
1, 102223, Control_c, 0, 64, 80
1, 102237, Control_c, 0, 64, 80
1, 102252, Control_c, 0, 64, 81
1, 102267, Control_c, 0, 64, 82
1, 102282, Note_on_c, 0, 65, 53
1, 102282, Control_c, 0, 64, 82
1, 102297, Control_c, 0, 64, 83
1, 102425, Note_off_c, 0, 65, 38
1, 102429, Note_on_c, 0, 70, 61
1, 102444, Control_c, 0, 64, 81
1, 102459, Control_c, 0, 64, 75
1, 102464, Note_on_c, 0, 55, 39
1, 102467, Note_off_c, 0, 57, 50
1, 102474, Note_on_c, 0, 58, 29
1, 102474, Control_c, 0, 64, 64
1, 102489, Control_c, 0, 64, 0
1, 102517, Note_off_c, 0, 72, 33
1, 102564, Control_c, 0, 64, 49
1, 102579, Control_c, 0, 64, 65
1, 102594, Control_c, 0, 64, 68
1, 102608, Control_c, 0, 64, 71
1, 102623, Control_c, 0, 64, 72
1, 102638, Control_c, 0, 64, 75
1, 102653, Control_c, 0, 64, 76
1, 102667, Control_c, 0, 64, 77
1, 102682, Control_c, 0, 64, 78
1, 102689, Note_off_c, 0, 70, 56
1, 102712, Control_c, 0, 64, 78
1, 102713, Note_off_c, 0, 58, 40
1, 102741, Note_off_c, 0, 48, 42
1, 102747, Note_on_c, 0, 67, 56
1, 102758, Note_off_c, 0, 55, 42
1, 102846, Note_off_c, 0, 67, 60
1, 102888, Note_on_c, 0, 64, 58
1, 103004, Note_off_c, 0, 64, 57
1, 103016, Control_c, 0, 64, 76
1, 103031, Control_c, 0, 64, 67
1, 103045, Control_c, 0, 64, 0
1, 103051, Note_on_c, 0, 65, 58
1, 103062, Note_on_c, 0, 53, 33
1, 103080, Note_on_c, 0, 50, 37
1, 103084, Note_on_c, 0, 57, 33
1, 103104, Control_c, 0, 64, 18
1, 103119, Control_c, 0, 64, 66
1, 103126, Note_off_c, 0, 57, 62
1, 103127, Note_off_c, 0, 65, 65
1, 103133, Control_c, 0, 64, 72
1, 103148, Control_c, 0, 64, 75
1, 103158, Note_off_c, 0, 53, 62
1, 103163, Control_c, 0, 64, 77
1, 103178, Control_c, 0, 64, 77
1, 103180, Note_off_c, 0, 50, 57
1, 103193, Control_c, 0, 64, 78
1, 103207, Control_c, 0, 64, 78
1, 103222, Control_c, 0, 64, 79
1, 103251, Control_c, 0, 64, 80
1, 103266, Control_c, 0, 64, 80
1, 103296, Control_c, 0, 64, 81
1, 103356, Control_c, 0, 64, 80
1, 103370, Note_on_c, 0, 65, 66
1, 103371, Control_c, 0, 64, 78
1, 103386, Control_c, 0, 64, 71
1, 103401, Control_c, 0, 64, 0
1, 103403, Note_on_c, 0, 33, 45
1, 103417, Note_on_c, 0, 41, 46
1, 103482, Control_c, 0, 64, 63
1, 103497, Control_c, 0, 64, 69
1, 103512, Control_c, 0, 64, 73
1, 103518, Note_on_c, 0, 64, 76
1, 103522, Note_off_c, 0, 65, 62
1, 103527, Control_c, 0, 64, 75
1, 103540, Note_off_c, 0, 33, 57
1, 103542, Control_c, 0, 64, 76
1, 103557, Control_c, 0, 64, 77
1, 103571, Control_c, 0, 64, 78
1, 103586, Control_c, 0, 64, 79
1, 103601, Control_c, 0, 64, 79
1, 103616, Control_c, 0, 64, 80
1, 103655, Note_off_c, 0, 64, 63
1, 103666, Note_on_c, 0, 62, 72
1, 103675, Control_c, 0, 64, 79
1, 103689, Control_c, 0, 64, 73
1, 103704, Control_c, 0, 64, 59
1, 103719, Note_on_c, 0, 34, 51
1, 103719, Control_c, 0, 64, 0
1, 103779, Control_c, 0, 64, 57
1, 103794, Control_c, 0, 64, 67
1, 103807, Note_off_c, 0, 34, 63
1, 103808, Control_c, 0, 64, 71
1, 103819, Note_off_c, 0, 41, 49
1, 103823, Control_c, 0, 64, 73
1, 103834, Note_on_c, 0, 43, 74
1, 103838, Control_c, 0, 64, 73
1, 103853, Control_c, 0, 64, 74
1, 103868, Control_c, 0, 64, 74
1, 103882, Control_c, 0, 64, 75
1, 103927, Control_c, 0, 64, 74
1, 103942, Control_c, 0, 64, 68
1, 103956, Control_c, 0, 64, 29
1, 103964, Note_on_c, 0, 58, 72
1, 103964, Note_off_c, 0, 43, 61
1, 103970, Note_off_c, 0, 62, 60
1, 103971, Control_c, 0, 64, 0
1, 103985, Note_on_c, 0, 45, 68
1, 104060, Control_c, 0, 64, 55
1, 104074, Control_c, 0, 64, 58
1, 104089, Control_c, 0, 64, 57
1, 104095, Note_off_c, 0, 45, 58
1, 104103, Note_on_c, 0, 55, 70
1, 104104, Control_c, 0, 64, 56
1, 104113, Note_on_c, 0, 46, 67
1, 104119, Control_c, 0, 64, 53
1, 104134, Control_c, 0, 64, 40
1, 104146, Note_off_c, 0, 58, 57
1, 104150, Control_c, 0, 64, 0
1, 104195, Note_off_c, 0, 46, 49
1, 104315, Note_off_c, 0, 55, 59
1, 104332, Note_on_c, 0, 60, 51
1, 104349, Note_on_c, 0, 45, 32
1, 104354, Note_on_c, 0, 48, 39
1, 104362, Note_on_c, 0, 36, 35
1, 104483, Control_c, 0, 64, 43
1, 104498, Control_c, 0, 64, 58
1, 104512, Control_c, 0, 64, 62
1, 104527, Control_c, 0, 64, 64
1, 104542, Control_c, 0, 64, 65
1, 104557, Control_c, 0, 64, 67
1, 104572, Control_c, 0, 64, 69
1, 104587, Control_c, 0, 64, 71
1, 104602, Control_c, 0, 64, 74
1, 104612, Note_off_c, 0, 48, 54
1, 104616, Control_c, 0, 64, 76
1, 104631, Control_c, 0, 64, 77
1, 104646, Control_c, 0, 64, 77
1, 104664, Note_on_c, 0, 57, 44
1, 104676, Control_c, 0, 64, 78
1, 104721, Note_off_c, 0, 57, 56
1, 104750, Control_c, 0, 64, 78
1, 104797, Note_on_c, 0, 53, 51
1, 104909, Note_off_c, 0, 53, 34
1, 104928, Note_off_c, 0, 60, 56
1, 104942, Control_c, 0, 64, 78
1, 104954, Note_on_c, 0, 58, 56
1, 104958, Control_c, 0, 64, 75
1, 104959, Note_off_c, 0, 45, 53
1, 104980, Note_on_c, 0, 43, 35
1, 104980, Control_c, 0, 64, 67
1, 104986, Note_on_c, 0, 46, 34
1, 104995, Control_c, 0, 64, 0
1, 105084, Control_c, 0, 64, 61
1, 105099, Control_c, 0, 64, 66
1, 105114, Control_c, 0, 64, 68
1, 105128, Control_c, 0, 64, 69
1, 105143, Control_c, 0, 64, 70
1, 105158, Control_c, 0, 64, 70
1, 105159, Note_off_c, 0, 46, 41
1, 105173, Control_c, 0, 64, 71
1, 105188, Control_c, 0, 64, 72
1, 105202, Control_c, 0, 64, 72
1, 105206, Note_off_c, 0, 43, 41
1, 105217, Control_c, 0, 64, 73
1, 105232, Control_c, 0, 64, 73
1, 105291, Control_c, 0, 64, 74
1, 105295, Note_off_c, 0, 58, 34
1, 105308, Note_on_c, 0, 55, 50
1, 105336, Note_off_c, 0, 36, 41
1, 105380, Control_c, 0, 64, 74
1, 105388, Note_off_c, 0, 55, 61
1, 105454, Control_c, 0, 64, 75
1, 105463, Note_on_c, 0, 52, 55
1, 105499, Control_c, 0, 64, 75
1, 105510, Note_off_c, 0, 52, 61
1, 105647, Control_c, 0, 64, 74
1, 105661, Control_c, 0, 64, 68
1, 105676, Control_c, 0, 64, 18
1, 105682, Note_on_c, 0, 53, 50
1, 105691, Control_c, 0, 64, 0
1, 105699, Note_on_c, 0, 41, 34
1, 105704, Note_on_c, 0, 29, 35
1, 105733, Note_on_c, 0, 45, 13
1, 105750, Note_off_c, 0, 41, 54
1, 105758, Control_c, 0, 64, 54
1, 105767, Note_off_c, 0, 29, 50
1, 105773, Control_c, 0, 64, 65
1, 105788, Control_c, 0, 64, 67
1, 105803, Note_off_c, 0, 45, 41
1, 105833, Control_c, 0, 64, 65
1, 105848, Control_c, 0, 64, 58
1, 105862, Control_c, 0, 64, 0
1, 105865, Note_off_c, 0, 53, 38
1, 105869, Note_on_c, 0, 36, 38
1, 105869, Note_on_c, 0, 45, 41
1, 105879, Note_on_c, 0, 41, 34
1, 105902, Note_off_c, 0, 36, 52
1, 105915, Poly_aftertouch_c, 0, 29, 127
1, 105917, Note_off_c, 0, 45, 60
1, 105919, Note_off_c, 0, 41, 46
1, 105980, Poly_aftertouch_c, 0, 29, 0
1, 105994, Note_on_c, 0, 36, 49
1, 106005, Note_on_c, 0, 45, 52
1, 106007, Note_on_c, 0, 29, 5
1, 106020, Note_on_c, 0, 41, 18
1, 106029, Note_off_c, 0, 36, 60
1, 106047, Note_off_c, 0, 45, 62
1, 106057, Note_off_c, 0, 29, 40
1, 106066, Note_off_c, 0, 41, 44
1, 106132, Note_on_c, 0, 36, 41
1, 106146, Note_on_c, 0, 45, 44
1, 106165, Note_off_c, 0, 36, 49
1, 106175, Note_off_c, 0, 45, 60
1, 106261, Note_on_c, 0, 45, 60
1, 106264, Note_on_c, 0, 36, 53
1, 106291, Note_on_c, 0, 29, 19
1, 106292, Note_off_c, 0, 36, 59
1, 106304, Note_off_c, 0, 45, 63
1, 106339, Note_off_c, 0, 29, 40
1, 106393, Note_on_c, 0, 36, 42
1, 106400, Note_on_c, 0, 45, 55
1, 106427, Note_off_c, 0, 36, 47
1, 106437, Note_off_c, 0, 45, 64
1, 106533, Note_on_c, 0, 36, 45
1, 106542, Note_on_c, 0, 45, 51
1, 106566, Note_off_c, 0, 36, 51
1, 106576, Note_off_c, 0, 45, 65
1, 106659, Note_on_c, 0, 36, 52
1, 106668, Note_on_c, 0, 45, 56
1, 106688, Note_off_c, 0, 36, 59
1, 106703, Note_off_c, 0, 45, 63
1, 106795, Note_on_c, 0, 36, 48
1, 106806, Note_on_c, 0, 45, 54
1, 106823, Note_off_c, 0, 36, 57
1, 106830, Note_on_c, 0, 29, 15
1, 106841, Note_off_c, 0, 45, 64
1, 106880, Note_off_c, 0, 29, 41
1, 106934, Note_on_c, 0, 36, 40
1, 106943, Note_on_c, 0, 45, 49
1, 106968, Note_off_c, 0, 36, 47
1, 106977, Note_off_c, 0, 45, 63
1, 106997, Poly_aftertouch_c, 0, 29, 127
1, 107017, Poly_aftertouch_c, 0, 29, 0
1, 107070, Note_on_c, 0, 36, 52
1, 107078, Note_on_c, 0, 45, 50
1, 107098, Note_off_c, 0, 36, 57
1, 107112, Note_off_c, 0, 45, 65
1, 107142, Poly_aftertouch_c, 0, 29, 127
1, 107167, Poly_aftertouch_c, 0, 29, 0
1, 107207, Note_on_c, 0, 36, 45
1, 107208, Note_on_c, 0, 45, 56
1, 107246, Note_off_c, 0, 36, 50
1, 107252, Note_off_c, 0, 45, 64
1, 107344, Note_on_c, 0, 36, 54
1, 107354, Note_on_c, 0, 45, 56
1, 107370, Note_on_c, 0, 29, 36
1, 107373, Note_off_c, 0, 36, 60
1, 107374, Note_on_c, 0, 41, 36
1, 107390, Note_off_c, 0, 45, 63
1, 107411, Note_off_c, 0, 41, 47
1, 107413, Note_off_c, 0, 29, 45
1, 107478, Note_on_c, 0, 45, 61
1, 107486, Note_on_c, 0, 36, 38
1, 107492, Note_on_c, 0, 41, 49
1, 107504, Note_on_c, 0, 29, 35
1, 107520, Note_off_c, 0, 45, 65
1, 107521, Note_off_c, 0, 36, 47
1, 107521, Note_off_c, 0, 41, 58
1, 107547, Note_off_c, 0, 29, 51
1, 107608, Note_on_c, 0, 47, 76
1, 107619, Note_on_c, 0, 38, 51
1, 107622, Note_on_c, 0, 43, 55
1, 107641, Note_on_c, 0, 29, 34
1, 107648, Note_off_c, 0, 38, 55
1, 107650, Note_off_c, 0, 43, 58
1, 107656, Note_off_c, 0, 47, 63
1, 107685, Note_off_c, 0, 29, 51
1, 107734, Note_on_c, 0, 47, 67
1, 107737, Note_on_c, 0, 38, 54
1, 107749, Note_on_c, 0, 29, 27
1, 107749, Note_on_c, 0, 43, 41
1, 107764, Note_off_c, 0, 38, 55
1, 107775, Note_off_c, 0, 47, 64
1, 107782, Note_off_c, 0, 43, 52
1, 107795, Note_off_c, 0, 29, 49
1, 107864, Note_on_c, 0, 43, 52
1, 107864, Note_on_c, 0, 48, 75
1, 107866, Note_on_c, 0, 40, 63
1, 107894, Note_off_c, 0, 40, 59
1, 107897, Note_off_c, 0, 43, 58
1, 107997, Note_on_c, 0, 40, 55
1, 108006, Note_on_c, 0, 43, 33
1, 108027, Note_off_c, 0, 40, 62
1, 108045, Note_off_c, 0, 43, 45
1, 108131, Note_on_c, 0, 43, 54
1, 108132, Note_on_c, 0, 40, 53
1, 108161, Note_off_c, 0, 40, 58
1, 108166, Note_off_c, 0, 43, 62
1, 108274, Note_off_c, 0, 48, 52
1, 108275, Note_on_c, 0, 40, 47
1, 108282, Note_on_c, 0, 43, 42
1, 108283, Note_on_c, 0, 52, 50
1, 108305, Note_off_c, 0, 40, 57
1, 108315, Note_off_c, 0, 43, 51
1, 108333, Note_on_c, 0, 50, 63
1, 108335, Note_off_c, 0, 52, 65
1, 108372, Note_off_c, 0, 50, 65
1, 108393, Note_on_c, 0, 48, 66
1, 108397, Note_on_c, 0, 43, 54
1, 108401, Note_on_c, 0, 40, 54
1, 108421, Note_off_c, 0, 48, 66
1, 108430, Note_off_c, 0, 40, 57
1, 108435, Note_off_c, 0, 43, 62
1, 108524, Note_on_c, 0, 40, 56
1, 108531, Note_on_c, 0, 43, 50
1, 108553, Note_off_c, 0, 40, 58
1, 108562, Note_off_c, 0, 43, 57
1, 108652, Note_on_c, 0, 40, 58
1, 108653, Note_on_c, 0, 43, 51
1, 108678, Note_off_c, 0, 40, 61
1, 108685, Note_off_c, 0, 43, 62
1, 108778, Note_on_c, 0, 40, 61
1, 108783, Note_on_c, 0, 43, 52
1, 108802, Note_off_c, 0, 40, 60
1, 108815, Note_off_c, 0, 43, 62
1, 108855, Note_on_c, 0, 78, 67
1, 108885, Note_on_c, 0, 79, 74
1, 108891, Note_on_c, 0, 39, 56
1, 108909, Note_off_c, 0, 78, 64
1, 108912, Note_on_c, 0, 43, 37
1, 108918, Note_off_c, 0, 39, 60
1, 108948, Note_off_c, 0, 43, 46
1, 109025, Note_on_c, 0, 39, 47
1, 109029, Note_on_c, 0, 43, 43
1, 109053, Note_off_c, 0, 39, 52
1, 109063, Note_off_c, 0, 43, 49
1, 109159, Note_on_c, 0, 39, 41
1, 109162, Note_on_c, 0, 43, 41
1, 109187, Note_off_c, 0, 39, 54
1, 109195, Note_off_c, 0, 43, 53
1, 109216, Note_off_c, 0, 79, 50
1, 109222, Note_on_c, 0, 77, 42
1, 109271, Note_on_c, 0, 75, 58
1, 109279, Note_off_c, 0, 77, 42
1, 109290, Note_on_c, 0, 39, 48
1, 109303, Note_off_c, 0, 75, 67
1, 109306, Note_on_c, 0, 43, 20
1, 109314, Note_on_c, 0, 74, 57
1, 109317, Note_off_c, 0, 39, 58
1, 109350, Note_off_c, 0, 43, 40
1, 109366, Note_off_c, 0, 74, 53
1, 109403, Note_on_c, 0, 72, 54
1, 109406, Note_on_c, 0, 39, 54
1, 109438, Note_off_c, 0, 39, 63
1, 109543, Note_off_c, 0, 72, 64
1, 109546, Note_on_c, 0, 39, 58
1, 109580, Note_off_c, 0, 39, 63
1, 109681, Note_on_c, 0, 39, 59
1, 109714, Note_off_c, 0, 39, 63
1, 109719, Note_on_c, 0, 43, 13
1, 109769, Note_off_c, 0, 43, 27
1, 109812, Note_on_c, 0, 39, 57
1, 109838, Note_off_c, 0, 39, 58
1, 109935, Note_on_c, 0, 54, 62
1, 109943, Note_on_c, 0, 38, 58
1, 109954, Note_on_c, 0, 45, 43
1, 109976, Note_off_c, 0, 38, 63
1, 109985, Note_off_c, 0, 45, 54
1, 110066, Note_on_c, 0, 45, 60
1, 110071, Note_on_c, 0, 38, 61
1, 110098, Note_off_c, 0, 45, 64
1, 110102, Note_off_c, 0, 38, 63
1, 110198, Note_on_c, 0, 45, 62
1, 110201, Note_on_c, 0, 38, 63
1, 110238, Note_off_c, 0, 45, 64
1, 110241, Note_off_c, 0, 38, 61
1, 110343, Note_off_c, 0, 54, 54
1, 110352, Note_on_c, 0, 57, 59
1, 110357, Note_on_c, 0, 38, 49
1, 110361, Note_on_c, 0, 45, 44
1, 110385, Note_off_c, 0, 38, 59
1, 110390, Note_off_c, 0, 45, 53
1, 110396, Note_on_c, 0, 55, 63
1, 110412, Note_off_c, 0, 57, 57
1, 110449, Note_off_c, 0, 55, 65
1, 110459, Note_on_c, 0, 54, 67
1, 110468, Note_on_c, 0, 45, 57
1, 110474, Note_on_c, 0, 38, 61
1, 110491, Note_off_c, 0, 54, 62
1, 110502, Note_off_c, 0, 45, 64
1, 110506, Note_off_c, 0, 38, 62
1, 110598, Note_on_c, 0, 45, 51
1, 110599, Note_on_c, 0, 38, 55
1, 110626, Note_off_c, 0, 38, 59
1, 110626, Note_off_c, 0, 45, 60
1, 110733, Note_on_c, 0, 38, 54
1, 110733, Note_on_c, 0, 45, 46
1, 110760, Note_off_c, 0, 45, 57
1, 110760, Note_off_c, 0, 38, 58
1, 110849, Note_on_c, 0, 45, 52
1, 110850, Note_on_c, 0, 38, 59
1, 110879, Note_off_c, 0, 38, 62
1, 110879, Note_off_c, 0, 45, 64
1, 110917, Note_on_c, 0, 86, 72
1, 110960, Note_on_c, 0, 87, 82
1, 110972, Note_off_c, 0, 86, 63
1, 110984, Note_on_c, 0, 42, 54
1, 111000, Control_c, 0, 64, 10
1, 111010, Note_off_c, 0, 42, 57
1, 111015, Note_on_c, 0, 50, 12
1, 111015, Control_c, 0, 64, 13
1, 111064, Note_off_c, 0, 50, 28
1, 111074, Control_c, 0, 64, 16
1, 111089, Control_c, 0, 64, 18
1, 111098, Note_on_c, 0, 42, 56
1, 111138, Note_off_c, 0, 42, 63
1, 111237, Note_on_c, 0, 42, 49
1, 111240, Note_on_c, 0, 50, 45
1, 111267, Note_off_c, 0, 42, 60
1, 111267, Note_off_c, 0, 50, 55
1, 111280, Note_on_c, 0, 86, 63
1, 111283, Note_off_c, 0, 87, 60
1, 111312, Note_off_c, 0, 86, 63
1, 111341, Control_c, 0, 64, 19
1, 111353, Note_on_c, 0, 84, 57
1, 111356, Control_c, 0, 64, 21
1, 111365, Note_on_c, 0, 42, 55
1, 111368, Note_on_c, 0, 50, 48
1, 111371, Control_c, 0, 64, 22
1, 111386, Control_c, 0, 64, 25
1, 111391, Note_off_c, 0, 84, 50
1, 111398, Note_off_c, 0, 50, 59
1, 111401, Control_c, 0, 64, 26
1, 111401, Note_off_c, 0, 42, 64
1, 111410, Note_on_c, 0, 82, 65
1, 111430, Control_c, 0, 64, 27
1, 111445, Control_c, 0, 64, 28
1, 111475, Note_off_c, 0, 82, 59
1, 111475, Control_c, 0, 64, 29
1, 111480, Note_on_c, 0, 81, 66
1, 111489, Control_c, 0, 64, 30
1, 111495, Note_on_c, 0, 42, 58
1, 111504, Note_on_c, 0, 50, 38
1, 111504, Control_c, 0, 64, 32
1, 111519, Control_c, 0, 64, 32
1, 111532, Note_off_c, 0, 42, 64
1, 111532, Note_off_c, 0, 50, 48
1, 111534, Control_c, 0, 64, 33
1, 111563, Control_c, 0, 64, 34
1, 111578, Control_c, 0, 64, 34
1, 111589, Note_off_c, 0, 81, 61
1, 111608, Control_c, 0, 64, 36
1, 111622, Note_on_c, 0, 42, 60
1, 111622, Control_c, 0, 64, 37
1, 111623, Note_on_c, 0, 50, 52
1, 111637, Control_c, 0, 64, 38
1, 111650, Note_off_c, 0, 50, 59
1, 111652, Control_c, 0, 64, 39
1, 111657, Note_off_c, 0, 42, 64
1, 111667, Control_c, 0, 64, 39
1, 111749, Control_c, 0, 64, 40
1, 111762, Note_on_c, 0, 42, 60
1, 111764, Control_c, 0, 64, 40
1, 111767, Note_on_c, 0, 50, 43
1, 111786, Note_off_c, 0, 42, 60
1, 111792, Note_off_c, 0, 50, 50
1, 111793, Control_c, 0, 64, 41
1, 111837, Control_c, 0, 64, 40
1, 111875, Note_on_c, 0, 42, 61
1, 111896, Control_c, 0, 64, 40
1, 111909, Note_off_c, 0, 42, 64
1, 112000, Control_c, 0, 64, 40
1, 112003, Note_on_c, 0, 58, 60
1, 112006, Note_on_c, 0, 43, 59
1, 112053, Note_off_c, 0, 43, 57
1, 112075, Note_on_c, 0, 50, 56
1, 112104, Control_c, 0, 64, 41
1, 112122, Note_off_c, 0, 50, 60
1, 112134, Control_c, 0, 64, 41
1, 112138, Note_off_c, 0, 58, 58
1, 112149, Control_c, 0, 64, 42
1, 112158, Note_on_c, 0, 62, 54
1, 112164, Note_on_c, 0, 43, 48
1, 112179, Control_c, 0, 64, 42
1, 112194, Control_c, 0, 64, 43
1, 112202, Note_off_c, 0, 43, 60
1, 112209, Control_c, 0, 64, 43
1, 112209, Note_on_c, 0, 60, 65
1, 112224, Control_c, 0, 64, 44
1, 112229, Note_off_c, 0, 62, 61
1, 112239, Note_on_c, 0, 50, 46
1, 112253, Control_c, 0, 64, 44
1, 112254, Note_on_c, 0, 58, 75
1, 112265, Note_off_c, 0, 60, 60
1, 112271, Note_off_c, 0, 50, 58
1, 112289, Note_on_c, 0, 43, 61
1, 112295, Note_off_c, 0, 58, 65
1, 112327, Control_c, 0, 64, 45
1, 112328, Note_off_c, 0, 43, 63
1, 112342, Control_c, 0, 64, 45
1, 112357, Note_on_c, 0, 50, 67
1, 112357, Control_c, 0, 64, 46
1, 112386, Control_c, 0, 64, 47
1, 112403, Note_off_c, 0, 50, 61
1, 112422, Note_on_c, 0, 43, 51
1, 112431, Control_c, 0, 64, 46
1, 112471, Note_off_c, 0, 43, 62
1, 112504, Note_on_c, 0, 50, 55
1, 112541, Note_off_c, 0, 50, 62
1, 112543, Note_on_c, 0, 84, 79
1, 112555, Note_on_c, 0, 45, 63
1, 112596, Note_off_c, 0, 45, 64
1, 112601, Note_on_c, 0, 82, 62
1, 112626, Note_on_c, 0, 50, 65
1, 112631, Control_c, 0, 64, 47
1, 112656, Note_off_c, 0, 84, 60
1, 112660, Control_c, 0, 64, 47
1, 112668, Note_on_c, 0, 81, 63
1, 112669, Note_off_c, 0, 50, 62
1, 112683, Note_off_c, 0, 82, 63
1, 112689, Note_on_c, 0, 45, 52
1, 112690, Note_off_c, 0, 81, 57
1, 112726, Note_on_c, 0, 79, 65
1, 112726, Note_off_c, 0, 45, 62
1, 112734, Control_c, 0, 64, 48
1, 112749, Control_c, 0, 64, 48
1, 112752, Note_on_c, 0, 50, 50
1, 112761, Note_off_c, 0, 79, 58
1, 112764, Control_c, 0, 64, 49
1, 112779, Control_c, 0, 64, 49
1, 112786, Note_on_c, 0, 78, 73
1, 112792, Note_off_c, 0, 50, 64
1, 112808, Note_off_c, 0, 78, 70
1, 112817, Note_on_c, 0, 45, 54
1, 112850, Note_off_c, 0, 45, 65
1, 112880, Note_on_c, 0, 50, 60
1, 112917, Note_off_c, 0, 50, 64
1, 112941, Note_on_c, 0, 45, 54
1, 112958, Control_c, 0, 64, 49
1, 112975, Note_off_c, 0, 45, 65
1, 112999, Note_on_c, 0, 50, 66
1, 113003, Control_c, 0, 64, 48
1, 113047, Control_c, 0, 64, 48
1, 113049, Note_on_c, 0, 67, 66
1, 113051, Note_off_c, 0, 50, 61
1, 113065, Note_on_c, 0, 46, 56
1, 113076, Control_c, 0, 64, 47
1, 113109, Note_off_c, 0, 46, 61
1, 113137, Note_on_c, 0, 50, 57
1, 113184, Note_off_c, 0, 50, 58
1, 113203, Note_on_c, 0, 46, 60
1, 113205, Note_on_c, 0, 70, 58
1, 113232, Control_c, 0, 64, 48
1, 113233, Note_off_c, 0, 67, 27
1, 113247, Control_c, 0, 64, 48
1, 113261, Note_off_c, 0, 46, 60
1, 113268, Note_on_c, 0, 69, 71
1, 113285, Note_on_c, 0, 50, 59
1, 113294, Note_off_c, 0, 70, 63
1, 113312, Note_off_c, 0, 69, 65
1, 113325, Note_off_c, 0, 50, 64
1, 113327, Note_on_c, 0, 67, 81
1, 113339, Note_on_c, 0, 46, 71
1, 113356, Note_off_c, 0, 67, 62
1, 113365, Control_c, 0, 64, 49
1, 113377, Note_off_c, 0, 46, 61
1, 113380, Control_c, 0, 64, 49
1, 113402, Note_on_c, 0, 50, 68
1, 113410, Control_c, 0, 64, 50
1, 113446, Note_off_c, 0, 50, 63
1, 113453, Note_on_c, 0, 46, 65
1, 113497, Note_off_c, 0, 46, 65
1, 113514, Control_c, 0, 64, 49
1, 113529, Note_on_c, 0, 50, 61
1, 113571, Note_off_c, 0, 50, 64
1, 113573, Control_c, 0, 64, 49
1, 113588, Note_on_c, 0, 87, 71
1, 113588, Control_c, 0, 64, 48
1, 113597, Note_on_c, 0, 42, 52
1, 113603, Control_c, 0, 64, 48
1, 113618, Control_c, 0, 64, 47
1, 113628, Note_off_c, 0, 42, 37
1, 113652, Note_off_c, 0, 87, 60
1, 113661, Note_on_c, 0, 50, 61
1, 113661, Note_on_c, 0, 86, 54
1, 113681, Note_off_c, 0, 86, 62
1, 113692, Control_c, 0, 64, 48
1, 113698, Note_off_c, 0, 50, 64
1, 113705, Note_on_c, 0, 84, 63
1, 113707, Control_c, 0, 64, 48
1, 113720, Note_on_c, 0, 42, 62
1, 113722, Control_c, 0, 64, 49
1, 113737, Control_c, 0, 64, 50
1, 113750, Note_off_c, 0, 84, 55
1, 113753, Control_c, 0, 64, 51
1, 113765, Note_off_c, 0, 42, 64
1, 113767, Control_c, 0, 64, 51
1, 113768, Note_on_c, 0, 82, 67
1, 113782, Control_c, 0, 64, 52
1, 113793, Note_on_c, 0, 50, 61
1, 113797, Control_c, 0, 64, 53
1, 113812, Control_c, 0, 64, 53
1, 113820, Note_off_c, 0, 82, 63
1, 113826, Control_c, 0, 64, 54
1, 113827, Note_on_c, 0, 81, 78
1, 113839, Note_off_c, 0, 50, 62
1, 113841, Control_c, 0, 64, 54
1, 113852, Note_on_c, 0, 42, 61
1, 113854, Note_off_c, 0, 81, 62
1, 113871, Control_c, 0, 64, 55
1, 113886, Control_c, 0, 64, 55
1, 113890, Note_off_c, 0, 42, 63
1, 113900, Control_c, 0, 64, 56
1, 113913, Note_on_c, 0, 50, 65
1, 113930, Control_c, 0, 64, 55
1, 113945, Control_c, 0, 64, 55
1, 113980, Note_off_c, 0, 50, 60
1, 113983, Note_on_c, 0, 42, 51
1, 114024, Note_off_c, 0, 42, 64
1, 114043, Note_on_c, 0, 50, 58
1, 114093, Note_off_c, 0, 50, 60
1, 114113, Note_on_c, 0, 58, 59
1, 114132, Note_on_c, 0, 43, 53
1, 114145, Control_c, 0, 64, 54
1, 114169, Note_off_c, 0, 43, 61
1, 114196, Note_on_c, 0, 50, 59
1, 114215, Note_off_c, 0, 58, 53
1, 114240, Note_off_c, 0, 50, 62
1, 114258, Note_on_c, 0, 43, 56
1, 114269, Note_on_c, 0, 62, 58
1, 114292, Control_c, 0, 64, 55
1, 114299, Note_off_c, 0, 43, 63
1, 114307, Control_c, 0, 64, 55
1, 114319, Note_on_c, 0, 60, 65
1, 114328, Note_on_c, 0, 50, 62
1, 114355, Note_off_c, 0, 62, 56
1, 114372, Note_on_c, 0, 58, 78
1, 114372, Note_off_c, 0, 50, 64
1, 114384, Note_off_c, 0, 60, 61
1, 114385, Note_on_c, 0, 43, 67
1, 114404, Note_off_c, 0, 58, 68
1, 114411, Control_c, 0, 64, 56
1, 114425, Note_off_c, 0, 43, 63
1, 114426, Control_c, 0, 64, 57
1, 114441, Control_c, 0, 64, 57
1, 114446, Note_on_c, 0, 50, 68
1, 114456, Control_c, 0, 64, 58
1, 114471, Control_c, 0, 64, 58
1, 114500, Control_c, 0, 64, 59
1, 114501, Note_off_c, 0, 50, 61
1, 114508, Note_on_c, 0, 43, 61
1, 114515, Control_c, 0, 64, 59
1, 114546, Control_c, 0, 64, 59
1, 114562, Note_off_c, 0, 43, 60
1, 114586, Note_on_c, 0, 50, 64
1, 114632, Note_off_c, 0, 50, 64
1, 114644, Note_on_c, 0, 84, 79
1, 114647, Note_on_c, 0, 45, 59
1, 114688, Note_off_c, 0, 45, 64
1, 114694, Control_c, 0, 64, 59
1, 114697, Note_on_c, 0, 82, 65
1, 114707, Note_on_c, 0, 50, 67
1, 114731, Control_c, 0, 64, 60
1, 114760, Control_c, 0, 64, 60
1, 114771, Note_off_c, 0, 50, 59
1, 114772, Note_on_c, 0, 81, 76
1, 114780, Note_off_c, 0, 84, 59
1, 114789, Note_on_c, 0, 45, 58
1, 114790, Control_c, 0, 64, 61
1, 114793, Note_off_c, 0, 82, 62
1, 114818, Note_off_c, 0, 81, 58
1, 114826, Note_off_c, 0, 45, 64
1, 114835, Control_c, 0, 64, 61
1, 114837, Note_on_c, 0, 79, 74
1, 114847, Note_on_c, 0, 50, 65
1, 114864, Control_c, 0, 64, 62
1, 114877, Note_off_c, 0, 79, 60
1, 114897, Note_off_c, 0, 50, 58
1, 114907, Note_on_c, 0, 78, 75
1, 114912, Note_on_c, 0, 45, 66
1, 114923, Control_c, 0, 64, 62
1, 114924, Note_off_c, 0, 78, 67
1, 114953, Control_c, 0, 64, 63
1, 114953, Control_c, 0, 67, 108
1, 114956, Note_off_c, 0, 45, 66
1, 114967, Control_c, 0, 67, 79
1, 114978, Note_on_c, 0, 50, 62
1, 114982, Control_c, 0, 67, 49
1, 114997, Control_c, 0, 67, 22
1, 115012, Control_c, 0, 67, 0
1, 115026, Note_off_c, 0, 50, 56
1, 115041, Note_on_c, 0, 45, 64
1, 115080, Note_off_c, 0, 45, 65
1, 115103, Note_on_c, 0, 50, 72
1, 115114, Control_c, 0, 64, 62
1, 115129, Control_c, 0, 64, 59
1, 115144, Note_off_c, 0, 50, 64
1, 115144, Control_c, 0, 64, 0
1, 115163, Note_on_c, 0, 46, 74
1, 115172, Note_on_c, 0, 74, 77
1, 115202, Note_off_c, 0, 46, 65
1, 115223, Note_on_c, 0, 72, 57
1, 115228, Note_on_c, 0, 50, 72
1, 115271, Note_off_c, 0, 50, 63
1, 115278, Note_off_c, 0, 74, 60
1, 115279, Note_on_c, 0, 70, 71
1, 115288, Note_on_c, 0, 46, 68
1, 115321, Note_off_c, 0, 72, 63
1, 115328, Note_on_c, 0, 69, 79
1, 115329, Note_off_c, 0, 46, 64
1, 115346, Note_on_c, 0, 50, 62
1, 115348, Note_off_c, 0, 70, 65
1, 115371, Note_off_c, 0, 69, 66
1, 115375, Note_off_c, 0, 50, 65
1, 115405, Note_on_c, 0, 67, 87
1, 115410, Note_on_c, 0, 46, 82
1, 115440, Note_off_c, 0, 67, 62
1, 115442, Control_c, 0, 64, 63
1, 115448, Note_off_c, 0, 46, 64
1, 115464, Control_c, 0, 64, 78
1, 115479, Control_c, 0, 64, 74
1, 115490, Note_on_c, 0, 55, 78
1, 115494, Control_c, 0, 64, 22
1, 115509, Control_c, 0, 64, 0
1, 115536, Note_off_c, 0, 55, 63
1, 115548, Note_on_c, 0, 46, 70
1, 115584, Note_off_c, 0, 46, 63
1, 115609, Note_on_c, 0, 55, 74
1, 115652, Note_off_c, 0, 55, 67
1, 115670, Note_on_c, 0, 47, 84
1, 115677, Note_on_c, 0, 80, 92
1, 115686, Control_c, 0, 64, 66
1, 115701, Control_c, 0, 64, 93
1, 115716, Control_c, 0, 64, 98
1, 115731, Control_c, 0, 64, 98
1, 115733, Note_on_c, 0, 79, 87
1, 115736, Note_off_c, 0, 47, 59
1, 115738, Note_on_c, 0, 55, 87
1, 115753, Note_off_c, 0, 80, 63
1, 115791, Note_off_c, 0, 79, 63
1, 115792, Note_off_c, 0, 55, 63
1, 115798, Note_on_c, 0, 77, 83
1, 115807, Note_on_c, 0, 47, 70
1, 115834, Control_c, 0, 64, 94
1, 115849, Control_c, 0, 64, 76
1, 115859, Note_on_c, 0, 75, 83
1, 115863, Note_off_c, 0, 47, 63
1, 115863, Control_c, 0, 64, 0
1, 115864, Note_off_c, 0, 77, 63
1, 115875, Note_on_c, 0, 55, 78
1, 115914, Note_on_c, 0, 74, 89
1, 115923, Control_c, 0, 64, 19
1, 115928, Note_off_c, 0, 55, 58
1, 115932, Note_on_c, 0, 47, 75
1, 115932, Note_off_c, 0, 75, 64
1, 115938, Control_c, 0, 64, 67
1, 115944, Note_off_c, 0, 74, 68
1, 115953, Control_c, 0, 64, 71
1, 115968, Control_c, 0, 64, 73
1, 115985, Note_off_c, 0, 47, 61
1, 115997, Control_c, 0, 64, 72
1, 116005, Note_on_c, 0, 55, 76
1, 116012, Control_c, 0, 64, 70
1, 116027, Control_c, 0, 64, 65
1, 116027, Control_c, 0, 67, 15
1, 116042, Control_c, 0, 64, 0
1, 116042, Control_c, 0, 67, 26
1, 116051, Note_off_c, 0, 55, 59
1, 116057, Control_c, 0, 67, 45
1, 116071, Control_c, 0, 67, 67
1, 116072, Note_on_c, 0, 47, 60
1, 116086, Control_c, 0, 67, 93
1, 116101, Control_c, 0, 67, 122
1, 116116, Control_c, 0, 67, 127
1, 116117, Note_off_c, 0, 47, 65
1, 116157, Note_on_c, 0, 55, 59
1, 116197, Note_off_c, 0, 55, 62
1, 116212, Note_on_c, 0, 63, 58
1, 116229, Note_on_c, 0, 48, 54
1, 116266, Note_off_c, 0, 48, 65
1, 116298, Note_on_c, 0, 55, 65
1, 116326, Note_off_c, 0, 63, 51
1, 116347, Note_off_c, 0, 55, 59
1, 116365, Note_on_c, 0, 48, 56
1, 116370, Note_on_c, 0, 67, 62
1, 116408, Note_off_c, 0, 48, 64
1, 116415, Note_on_c, 0, 65, 66
1, 116435, Note_off_c, 0, 67, 62
1, 116438, Note_on_c, 0, 55, 61
1, 116466, Note_on_c, 0, 63, 79
1, 116474, Note_off_c, 0, 65, 65
1, 116475, Note_off_c, 0, 55, 64
1, 116495, Note_off_c, 0, 63, 69
1, 116498, Note_on_c, 0, 48, 71
1, 116537, Note_off_c, 0, 48, 64
1, 116559, Note_on_c, 0, 55, 74
1, 116604, Note_off_c, 0, 55, 63
1, 116624, Note_on_c, 0, 48, 63
1, 116664, Note_off_c, 0, 48, 67
1, 116690, Note_on_c, 0, 55, 66
1, 116734, Note_off_c, 0, 55, 62
1, 116749, Note_on_c, 0, 77, 72
1, 116756, Note_on_c, 0, 50, 68
1, 116793, Note_off_c, 0, 50, 63
1, 116798, Note_on_c, 0, 75, 59
1, 116828, Note_on_c, 0, 55, 66
1, 116856, Note_off_c, 0, 77, 55
1, 116857, Note_on_c, 0, 74, 64
1, 116871, Note_off_c, 0, 55, 59
1, 116884, Note_off_c, 0, 75, 64
1, 116898, Note_on_c, 0, 50, 52
1, 116905, Note_off_c, 0, 74, 64
1, 116919, Note_on_c, 0, 72, 71
1, 116931, Note_off_c, 0, 50, 63
1, 116962, Note_on_c, 0, 55, 65
1, 116978, Note_off_c, 0, 72, 65
1, 116987, Note_on_c, 0, 71, 65
1, 117003, Note_off_c, 0, 71, 64
1, 117005, Note_off_c, 0, 55, 61
1, 117019, Note_on_c, 0, 50, 70
1, 117060, Note_off_c, 0, 50, 62
1, 117081, Control_c, 0, 64, 37
1, 117090, Note_on_c, 0, 55, 64
1, 117096, Control_c, 0, 64, 47
1, 117110, Control_c, 0, 64, 49
1, 117125, Control_c, 0, 64, 49
1, 117139, Note_off_c, 0, 55, 64
1, 117153, Note_on_c, 0, 50, 62
1, 117155, Control_c, 0, 64, 50
1, 117170, Control_c, 0, 64, 51
1, 117184, Control_c, 0, 64, 53
1, 117197, Note_off_c, 0, 50, 65
1, 117199, Control_c, 0, 64, 54
1, 117224, Note_on_c, 0, 55, 66
1, 117244, Control_c, 0, 64, 54
1, 117256, Note_on_c, 0, 60, 71
1, 117272, Note_off_c, 0, 55, 62
1, 117288, Control_c, 0, 64, 53
1, 117293, Note_on_c, 0, 51, 60
1, 117332, Note_off_c, 0, 51, 59
1, 117333, Control_c, 0, 64, 54
1, 117353, Note_on_c, 0, 55, 67
1, 117403, Note_off_c, 0, 55, 62
1, 117416, Note_on_c, 0, 51, 63
1, 117416, Note_on_c, 0, 63, 62
1, 117421, Note_off_c, 0, 60, 52
1, 117436, Control_c, 0, 64, 52
1, 117451, Control_c, 0, 64, 43
1, 117453, Note_off_c, 0, 51, 63
1, 117461, Note_on_c, 0, 62, 77
1, 117466, Control_c, 0, 64, 0
1, 117484, Note_on_c, 0, 55, 64
1, 117485, Note_off_c, 0, 63, 64
1, 117494, Note_off_c, 0, 62, 62
1, 117524, Note_on_c, 0, 60, 77
1, 117536, Note_off_c, 0, 55, 60
1, 117543, Note_on_c, 0, 51, 64
1, 117546, Note_off_c, 0, 60, 70
1, 117569, Control_c, 0, 64, 25
1, 117577, Note_off_c, 0, 51, 64
1, 117584, Control_c, 0, 64, 31
1, 117595, Note_on_c, 0, 55, 66
1, 117599, Control_c, 0, 64, 35
1, 117614, Control_c, 0, 64, 40
1, 117629, Control_c, 0, 64, 43
1, 117643, Control_c, 0, 64, 44
1, 117657, Note_off_c, 0, 55, 61
1, 117658, Control_c, 0, 64, 46
1, 117663, Note_on_c, 0, 51, 58
1, 117673, Control_c, 0, 64, 47
1, 117688, Control_c, 0, 64, 48
1, 117703, Control_c, 0, 64, 48
1, 117713, Note_off_c, 0, 51, 65
1, 117738, Note_on_c, 0, 55, 67
1, 117785, Note_off_c, 0, 55, 64
1, 117795, Note_on_c, 0, 80, 88
1, 117797, Note_on_c, 0, 47, 80
1, 117815, Control_c, 0, 64, 50
1, 117830, Control_c, 0, 64, 52
1, 117845, Control_c, 0, 64, 54
1, 117857, Note_off_c, 0, 47, 60
1, 117859, Control_c, 0, 64, 55
1, 117860, Note_on_c, 0, 79, 78
1, 117868, Note_off_c, 0, 80, 64
1, 117873, Note_on_c, 0, 55, 72
1, 117874, Control_c, 0, 64, 55
1, 117902, Note_off_c, 0, 79, 63
1, 117911, Note_on_c, 0, 77, 68
1, 117920, Note_off_c, 0, 55, 62
1, 117940, Note_on_c, 0, 47, 60
1, 117974, Note_off_c, 0, 77, 61
1, 117976, Note_on_c, 0, 75, 71
1, 117977, Note_off_c, 0, 47, 66
1, 118004, Note_on_c, 0, 55, 60
1, 118007, Control_c, 0, 64, 55
1, 118022, Control_c, 0, 64, 54
1, 118037, Note_off_c, 0, 75, 64
1, 118038, Note_on_c, 0, 74, 72
1, 118050, Note_off_c, 0, 55, 59
1, 118059, Note_off_c, 0, 74, 73
1, 118060, Note_on_c, 0, 47, 71
1, 118104, Note_off_c, 0, 47, 65
1, 118136, Note_on_c, 0, 55, 63
1, 118174, Note_off_c, 0, 55, 63
1, 118188, Note_on_c, 0, 47, 65
1, 118199, Control_c, 0, 64, 55
1, 118239, Note_off_c, 0, 47, 61
1, 118257, Note_on_c, 0, 55, 66
1, 118273, Control_c, 0, 64, 54
1, 118310, Note_off_c, 0, 55, 60
1, 118318, Control_c, 0, 64, 54
1, 118319, Note_on_c, 0, 63, 67
1, 118326, Note_on_c, 0, 48, 60
1, 118370, Note_off_c, 0, 48, 60
1, 118377, Control_c, 0, 64, 53
1, 118391, Control_c, 0, 64, 53
1, 118396, Note_on_c, 0, 55, 56
1, 118451, Note_off_c, 0, 55, 59
1, 118451, Note_off_c, 0, 63, 36
1, 118468, Note_on_c, 0, 48, 64
1, 118483, Note_on_c, 0, 67, 61
1, 118488, Control_c, 0, 64, 52
1, 118503, Control_c, 0, 64, 49
1, 118509, Note_off_c, 0, 48, 65
1, 118518, Control_c, 0, 64, 0
1, 118536, Note_on_c, 0, 65, 67
1, 118540, Note_on_c, 0, 55, 63
1, 118559, Note_off_c, 0, 67, 61
1, 118585, Note_off_c, 0, 55, 65
1, 118586, Note_on_c, 0, 63, 83
1, 118592, Note_off_c, 0, 65, 67
1, 118597, Note_on_c, 0, 48, 68
1, 118618, Note_off_c, 0, 63, 65
1, 118641, Note_off_c, 0, 48, 66
1, 118667, Note_on_c, 0, 55, 75
1, 118718, Note_off_c, 0, 55, 63
1, 118725, Note_on_c, 0, 48, 60
1, 118766, Note_off_c, 0, 48, 67
1, 118792, Note_on_c, 0, 55, 70
1, 118847, Note_on_c, 0, 77, 97
1, 118850, Note_off_c, 0, 55, 59
1, 118856, Note_on_c, 0, 50, 74
1, 118859, Control_c, 0, 67, 105
1, 118874, Control_c, 0, 64, 63
1, 118874, Control_c, 0, 67, 70
1, 118889, Control_c, 0, 64, 74
1, 118889, Control_c, 0, 67, 23
1, 118904, Control_c, 0, 64, 71
1, 118904, Control_c, 0, 67, 0
1, 118907, Note_off_c, 0, 50, 61
1, 118918, Note_on_c, 0, 75, 70
1, 118919, Control_c, 0, 64, 0
1, 118935, Note_on_c, 0, 55, 77
1, 118961, Note_off_c, 0, 77, 58
1, 118969, Note_on_c, 0, 74, 71
1, 118983, Note_off_c, 0, 55, 61
1, 119012, Note_on_c, 0, 50, 50
1, 119013, Note_off_c, 0, 75, 61
1, 119029, Note_off_c, 0, 74, 65
1, 119031, Note_on_c, 0, 72, 74
1, 119041, Note_off_c, 0, 50, 61
1, 119068, Note_on_c, 0, 55, 63
1, 119077, Note_off_c, 0, 72, 61
1, 119089, Note_on_c, 0, 71, 77
1, 119106, Note_off_c, 0, 55, 60
1, 119118, Note_off_c, 0, 71, 61
1, 119122, Note_on_c, 0, 50, 72
1, 119164, Note_off_c, 0, 50, 65
1, 119188, Note_on_c, 0, 55, 74
1, 119248, Note_off_c, 0, 55, 62
1, 119256, Note_on_c, 0, 50, 59
1, 119300, Note_off_c, 0, 50, 66
1, 119321, Note_on_c, 0, 55, 75
1, 119364, Note_off_c, 0, 55, 66
1, 119378, Note_on_c, 0, 79, 94
1, 119387, Note_on_c, 0, 51, 74
1, 119401, Control_c, 0, 64, 83
1, 119416, Control_c, 0, 64, 95
1, 119429, Note_off_c, 0, 51, 61
1, 119431, Control_c, 0, 64, 97
1, 119434, Note_on_c, 0, 77, 70
1, 119448, Note_on_c, 0, 55, 79
1, 119493, Note_off_c, 0, 55, 61
1, 119499, Note_on_c, 0, 75, 71
1, 119505, Control_c, 0, 64, 97
1, 119512, Note_on_c, 0, 51, 66
1, 119519, Control_c, 0, 64, 98
1, 119534, Control_c, 0, 64, 98
1, 119544, Note_off_c, 0, 51, 64
1, 119548, Note_off_c, 0, 79, 56
1, 119549, Control_c, 0, 64, 99
1, 119551, Note_on_c, 0, 74, 79
1, 119556, Note_off_c, 0, 77, 58
1, 119563, Note_on_c, 0, 55, 76
1, 119563, Control_c, 0, 64, 98
1, 119569, Note_off_c, 0, 75, 66
1, 119579, Control_c, 0, 64, 91
1, 119586, Note_off_c, 0, 74, 67
1, 119592, Note_off_c, 0, 55, 65
1, 119594, Control_c, 0, 64, 71
1, 119609, Control_c, 0, 64, 0
1, 119627, Note_on_c, 0, 72, 84
1, 119630, Note_on_c, 0, 51, 76
1, 119657, Note_off_c, 0, 72, 61
1, 119668, Note_off_c, 0, 51, 65
1, 119683, Control_c, 0, 64, 59
1, 119698, Control_c, 0, 64, 22
1, 119699, Note_on_c, 0, 60, 82
1, 119712, Control_c, 0, 64, 0
1, 119747, Note_off_c, 0, 60, 59
1, 119758, Note_on_c, 0, 51, 65
1, 119797, Note_off_c, 0, 51, 64
1, 119824, Note_on_c, 0, 60, 79
1, 119874, Note_on_c, 0, 85, 94
1, 119876, Note_off_c, 0, 60, 57
1, 119879, Note_on_c, 0, 52, 83
1, 119891, Control_c, 0, 64, 77
1, 119905, Control_c, 0, 64, 104
1, 119920, Control_c, 0, 64, 115
1, 119935, Note_off_c, 0, 85, 66
1, 119942, Note_off_c, 0, 52, 62
1, 119944, Note_on_c, 0, 84, 91
1, 119947, Note_on_c, 0, 60, 81
1, 119956, Control_c, 0, 64, 116
1, 119971, Control_c, 0, 64, 119
1, 119986, Control_c, 0, 64, 127
1, 119995, Note_off_c, 0, 84, 59
1, 120004, Note_off_c, 0, 60, 59
1, 120016, Note_on_c, 0, 82, 79
1, 120026, Note_on_c, 0, 52, 76
1, 120074, Note_on_c, 0, 80, 90
1, 120075, Control_c, 0, 64, 108
1, 120088, Note_off_c, 0, 52, 64
1, 120090, Note_off_c, 0, 82, 63
1, 120090, Control_c, 0, 64, 81
1, 120095, Note_on_c, 0, 60, 80
1, 120105, Control_c, 0, 64, 0
1, 120109, Note_off_c, 0, 80, 67
1, 120132, Note_on_c, 0, 79, 92
1, 120151, Note_off_c, 0, 60, 59
1, 120152, Note_on_c, 0, 52, 76
1, 120165, Control_c, 0, 64, 63
1, 120171, Note_off_c, 0, 79, 68
1, 120180, Control_c, 0, 64, 76
1, 120195, Control_c, 0, 64, 87
1, 120210, Control_c, 0, 64, 91
1, 120230, Note_off_c, 0, 52, 63
1, 120243, Note_on_c, 0, 60, 76
1, 120278, Note_off_c, 0, 60, 61
1, 120299, Control_c, 0, 64, 91
1, 120312, Note_on_c, 0, 52, 51
1, 120314, Control_c, 0, 64, 90
1, 120329, Control_c, 0, 64, 87
1, 120343, Control_c, 0, 64, 77
1, 120343, Control_c, 0, 67, 10
1, 120357, Note_off_c, 0, 52, 65
1, 120358, Control_c, 0, 64, 61
1, 120358, Control_c, 0, 67, 15
1, 120373, Control_c, 0, 64, 0
1, 120373, Control_c, 0, 67, 23
1, 120387, Control_c, 0, 67, 33
1, 120390, Note_on_c, 0, 60, 60
1, 120402, Control_c, 0, 67, 45
1, 120417, Control_c, 0, 67, 63
1, 120418, Note_off_c, 0, 60, 52
1, 120432, Control_c, 0, 67, 81
1, 120447, Control_c, 0, 67, 100
1, 120461, Control_c, 0, 67, 117
1, 120476, Control_c, 0, 67, 127
1, 120526, Note_on_c, 0, 80, 60
1, 120537, Note_on_c, 0, 53, 50
1, 120579, Control_c, 0, 64, 53
1, 120585, Note_off_c, 0, 53, 61
1, 120594, Control_c, 0, 64, 63
1, 120601, Note_off_c, 0, 80, 56
1, 120609, Control_c, 0, 64, 65
1, 120624, Note_on_c, 0, 56, 43
1, 120624, Control_c, 0, 64, 65
1, 120662, Note_off_c, 0, 56, 59
1, 120669, Control_c, 0, 64, 66
1, 120705, Note_on_c, 0, 84, 53
1, 120706, Control_c, 0, 64, 66
1, 120707, Note_on_c, 0, 60, 25
1, 120739, Note_off_c, 0, 60, 47
1, 120745, Note_off_c, 0, 84, 62
1, 120750, Control_c, 0, 64, 66
1, 120758, Note_on_c, 0, 82, 59
1, 120765, Control_c, 0, 64, 63
1, 120766, Note_on_c, 0, 65, 45
1, 120780, Control_c, 0, 64, 13
1, 120794, Control_c, 0, 64, 0
1, 120804, Note_off_c, 0, 82, 64
1, 120831, Note_on_c, 0, 80, 62
1, 120848, Note_on_c, 0, 53, 46
1, 120868, Control_c, 0, 64, 57
1, 120870, Note_off_c, 0, 65, 36
1, 120877, Note_off_c, 0, 80, 66
1, 120883, Control_c, 0, 64, 68
1, 120889, Note_off_c, 0, 53, 63
1, 120898, Control_c, 0, 64, 74
1, 120907, Note_on_c, 0, 56, 49
1, 120913, Control_c, 0, 64, 78
1, 120929, Control_c, 0, 64, 79
1, 120953, Note_off_c, 0, 56, 58
1, 120958, Control_c, 0, 64, 80
1, 120973, Control_c, 0, 64, 81
1, 120988, Control_c, 0, 64, 82
1, 120993, Note_on_c, 0, 60, 29
1, 121002, Control_c, 0, 64, 83
1, 121017, Control_c, 0, 64, 83
1, 121025, Note_off_c, 0, 60, 45
1, 121048, Note_on_c, 0, 65, 48
1, 121095, Note_off_c, 0, 65, 45
1, 121107, Control_c, 0, 64, 82
1, 121122, Control_c, 0, 64, 75
1, 121123, Note_on_c, 0, 53, 57
1, 121137, Control_c, 0, 64, 59
1, 121143, Note_on_c, 0, 85, 68
1, 121152, Control_c, 0, 64, 0
1, 121170, Note_off_c, 0, 53, 61
1, 121205, Note_on_c, 0, 58, 39
1, 121208, Note_off_c, 0, 85, 61
1, 121210, Control_c, 0, 64, 60
1, 121225, Control_c, 0, 64, 68
1, 121240, Control_c, 0, 64, 71
1, 121241, Note_off_c, 0, 58, 55
1, 121255, Control_c, 0, 64, 72
1, 121270, Control_c, 0, 64, 73
1, 121277, Note_on_c, 0, 61, 36
1, 121284, Control_c, 0, 64, 74
1, 121299, Control_c, 0, 64, 75
1, 121307, Note_off_c, 0, 61, 43
1, 121312, Note_on_c, 0, 89, 59
1, 121314, Control_c, 0, 64, 76
1, 121339, Note_on_c, 0, 65, 45
1, 121356, Note_off_c, 0, 89, 60
1, 121358, Control_c, 0, 64, 75
1, 121371, Note_on_c, 0, 87, 60
1, 121373, Control_c, 0, 64, 70
1, 121388, Control_c, 0, 64, 0
1, 121390, Note_off_c, 0, 65, 42
1, 121408, Note_on_c, 0, 53, 48
1, 121417, Note_off_c, 0, 87, 63
1, 121431, Note_on_c, 0, 85, 72
1, 121448, Note_off_c, 0, 53, 56
1, 121470, Control_c, 0, 64, 54
1, 121484, Control_c, 0, 64, 68
1, 121490, Note_on_c, 0, 58, 40
1, 121491, Note_off_c, 0, 85, 64
1, 121499, Control_c, 0, 64, 74
1, 121514, Control_c, 0, 64, 77
1, 121529, Control_c, 0, 64, 77
1, 121533, Note_off_c, 0, 58, 60
1, 121543, Control_c, 0, 64, 78
1, 121545, Note_on_c, 0, 61, 49
1, 121558, Control_c, 0, 64, 79
1, 121573, Control_c, 0, 64, 79
1, 121580, Note_off_c, 0, 61, 64
1, 121588, Control_c, 0, 64, 80
1, 121617, Control_c, 0, 64, 80
1, 121631, Note_on_c, 0, 65, 50
1, 121647, Control_c, 0, 64, 81
1, 121664, Note_off_c, 0, 65, 53
1, 121691, Control_c, 0, 64, 80
1, 121706, Control_c, 0, 64, 74
1, 121721, Control_c, 0, 64, 63
1, 121731, Note_on_c, 0, 66, 58
1, 121737, Control_c, 0, 64, 0
1, 121743, Note_on_c, 0, 53, 31
1, 121775, Note_off_c, 0, 53, 55
1, 121781, Control_c, 0, 64, 26
1, 121795, Note_on_c, 0, 54, 48
1, 121796, Control_c, 0, 64, 64
1, 121806, Note_off_c, 0, 66, 52
1, 121811, Control_c, 0, 64, 70
1, 121825, Control_c, 0, 64, 73
1, 121840, Control_c, 0, 64, 74
1, 121855, Control_c, 0, 64, 75
1, 121860, Note_off_c, 0, 54, 57
1, 121870, Control_c, 0, 64, 75
1, 121889, Note_on_c, 0, 70, 60
1, 121906, Note_on_c, 0, 58, 33
1, 121937, Note_off_c, 0, 58, 55
1, 121956, Note_on_c, 0, 68, 52
1, 121958, Control_c, 0, 64, 75
1, 121964, Note_on_c, 0, 61, 38
1, 121973, Control_c, 0, 64, 70
1, 121975, Note_off_c, 0, 70, 52
1, 121988, Control_c, 0, 64, 54
1, 122003, Control_c, 0, 64, 0
1, 122004, Note_on_c, 0, 53, 39
1, 122007, Note_off_c, 0, 61, 51
1, 122013, Note_off_c, 0, 68, 57
1, 122014, Note_on_c, 0, 66, 58
1, 122061, Note_off_c, 0, 53, 64
1, 122099, Note_on_c, 0, 54, 38
1, 122106, Control_c, 0, 64, 62
1, 122121, Control_c, 0, 64, 69
1, 122126, Note_off_c, 0, 66, 62
1, 122136, Control_c, 0, 64, 74
1, 122144, Note_on_c, 0, 58, 48
1, 122150, Control_c, 0, 64, 78
1, 122165, Control_c, 0, 64, 79
1, 122180, Control_c, 0, 64, 79
1, 122186, Note_off_c, 0, 58, 63
1, 122195, Control_c, 0, 64, 80
1, 122196, Note_off_c, 0, 54, 0
1, 122218, Control_c, 0, 64, 80
1, 122232, Control_c, 0, 64, 81
1, 122240, Poly_aftertouch_c, 0, 54, 127
1, 122244, Note_on_c, 0, 61, 42
1, 122287, Note_off_c, 0, 61, 44
1, 122302, Poly_aftertouch_c, 0, 54, 0
1, 122321, Note_on_c, 0, 51, 48
1, 122344, Note_on_c, 0, 71, 71
1, 122351, Control_c, 0, 64, 79
1, 122365, Control_c, 0, 64, 74
1, 122380, Control_c, 0, 64, 63
1, 122384, Note_off_c, 0, 51, 54
1, 122395, Control_c, 0, 64, 0
1, 122410, Note_on_c, 0, 54, 51
1, 122469, Control_c, 0, 64, 48
1, 122484, Control_c, 0, 64, 65
1, 122499, Note_on_c, 0, 59, 42
1, 122499, Control_c, 0, 64, 70
1, 122514, Control_c, 0, 64, 75
1, 122529, Control_c, 0, 64, 78
1, 122544, Control_c, 0, 64, 79
1, 122545, Note_off_c, 0, 59, 45
1, 122559, Control_c, 0, 64, 80
1, 122573, Control_c, 0, 64, 81
1, 122579, Note_on_c, 0, 63, 37
1, 122588, Control_c, 0, 64, 82
1, 122592, Note_off_c, 0, 54, 23
1, 122603, Note_off_c, 0, 71, 57
1, 122603, Control_c, 0, 64, 82
1, 122618, Note_on_c, 0, 51, 49
1, 122618, Control_c, 0, 64, 83
1, 122624, Note_off_c, 0, 63, 46
1, 122633, Control_c, 0, 64, 84
1, 122663, Control_c, 0, 64, 84
1, 122669, Note_off_c, 0, 51, 60
1, 122708, Note_on_c, 0, 54, 46
1, 122759, Note_off_c, 0, 54, 44
1, 122780, Note_on_c, 0, 59, 39
1, 122807, Note_off_c, 0, 59, 54
1, 122848, Note_on_c, 0, 63, 52
1, 122888, Note_off_c, 0, 63, 47
1, 122915, Control_c, 0, 64, 84
1, 122929, Control_c, 0, 64, 83
1, 122952, Control_c, 0, 64, 79
1, 122962, Note_on_c, 0, 51, 47
1, 122967, Control_c, 0, 64, 68
1, 122971, Note_on_c, 0, 77, 60
1, 122981, Control_c, 0, 64, 0
1, 123017, Note_off_c, 0, 51, 55
1, 123018, Note_on_c, 0, 53, 48
1, 123041, Control_c, 0, 64, 49
1, 123055, Control_c, 0, 64, 66
1, 123065, Note_off_c, 0, 77, 54
1, 123070, Control_c, 0, 64, 70
1, 123085, Control_c, 0, 64, 74
1, 123100, Control_c, 0, 64, 75
1, 123115, Control_c, 0, 64, 76
1, 123118, Note_on_c, 0, 57, 29
1, 123125, Note_on_c, 0, 81, 55
1, 123157, Note_off_c, 0, 57, 41
1, 123159, Note_on_c, 0, 60, 55
1, 123186, Note_on_c, 0, 79, 56
1, 123188, Control_c, 0, 64, 74
1, 123195, Note_off_c, 0, 53, 23
1, 123202, Note_off_c, 0, 81, 49
1, 123203, Control_c, 0, 64, 66
1, 123208, Note_off_c, 0, 60, 55
1, 123218, Control_c, 0, 64, 0
1, 123232, Note_off_c, 0, 79, 60
1, 123241, Note_on_c, 0, 51, 51
1, 123246, Note_on_c, 0, 77, 58
1, 123300, Note_off_c, 0, 51, 57
1, 123307, Control_c, 0, 64, 65
1, 123307, Note_on_c, 0, 53, 46
1, 123322, Control_c, 0, 64, 71
1, 123339, Control_c, 0, 64, 74
1, 123353, Control_c, 0, 64, 76
1, 123368, Control_c, 0, 64, 77
1, 123383, Control_c, 0, 64, 78
1, 123384, Note_on_c, 0, 57, 34
1, 123397, Control_c, 0, 64, 79
1, 123412, Control_c, 0, 64, 79
1, 123420, Note_off_c, 0, 57, 42
1, 123427, Control_c, 0, 64, 80
1, 123442, Control_c, 0, 64, 81
1, 123446, Note_on_c, 0, 60, 43
1, 123457, Control_c, 0, 64, 81
1, 123479, Note_off_c, 0, 60, 49
1, 123500, Note_off_c, 0, 53, 43
1, 123516, Control_c, 0, 64, 78
1, 123517, Note_off_c, 0, 77, 37
1, 123524, Note_on_c, 0, 82, 70
1, 123528, Note_on_c, 0, 49, 52
1, 123531, Control_c, 0, 64, 68
1, 123545, Control_c, 0, 64, 0
1, 123598, Note_on_c, 0, 53, 45
1, 123605, Note_off_c, 0, 49, 43
1, 123605, Control_c, 0, 64, 59
1, 123620, Control_c, 0, 64, 69
1, 123635, Control_c, 0, 64, 74
1, 123650, Control_c, 0, 64, 77
1, 123657, Note_off_c, 0, 82, 49
1, 123664, Control_c, 0, 64, 78
1, 123667, Note_on_c, 0, 58, 53
1, 123679, Control_c, 0, 64, 78
1, 123682, Note_on_c, 0, 85, 59
1, 123703, Note_off_c, 0, 58, 53
1, 123716, Control_c, 0, 64, 79
1, 123719, Note_off_c, 0, 85, 53
1, 123750, Note_on_c, 0, 84, 61
1, 123753, Note_on_c, 0, 61, 39
1, 123775, Control_c, 0, 64, 76
1, 123779, Note_off_c, 0, 53, 37
1, 123790, Note_off_c, 0, 61, 47
1, 123790, Control_c, 0, 64, 62
1, 123803, Note_on_c, 0, 49, 48
1, 123805, Control_c, 0, 64, 0
1, 123822, Note_on_c, 0, 82, 71
1, 123822, Note_off_c, 0, 84, 63
1, 123864, Control_c, 0, 64, 48
1, 123865, Note_off_c, 0, 82, 64
1, 123876, Note_off_c, 0, 49, 49
1, 123879, Control_c, 0, 64, 69
1, 123886, Note_on_c, 0, 53, 38
1, 123894, Control_c, 0, 64, 75
1, 123909, Control_c, 0, 64, 79
1, 123923, Control_c, 0, 64, 80
1, 123936, Note_on_c, 0, 58, 55
1, 123938, Control_c, 0, 64, 80
1, 123951, Note_off_c, 0, 53, 54
1, 123953, Control_c, 0, 64, 81
1, 123968, Control_c, 0, 64, 82
1, 123977, Note_off_c, 0, 58, 62
1, 123983, Control_c, 0, 64, 84
1, 123998, Control_c, 0, 64, 85
1, 124012, Control_c, 0, 64, 86
1, 124027, Note_on_c, 0, 61, 48
1, 124027, Control_c, 0, 64, 87
1, 124042, Control_c, 0, 64, 88
1, 124057, Control_c, 0, 64, 88
1, 124071, Note_off_c, 0, 61, 58
1, 124107, Note_on_c, 0, 49, 54
1, 124107, Note_on_c, 0, 63, 66
1, 124116, Control_c, 0, 64, 86
1, 124132, Control_c, 0, 64, 79
1, 124147, Control_c, 0, 64, 65
1, 124156, Note_off_c, 0, 49, 59
1, 124162, Control_c, 0, 64, 0
1, 124188, Note_on_c, 0, 51, 48
1, 124206, Control_c, 0, 64, 55
1, 124221, Control_c, 0, 64, 68
1, 124222, Note_off_c, 0, 63, 53
1, 124235, Control_c, 0, 64, 74
1, 124250, Control_c, 0, 64, 78
1, 124265, Control_c, 0, 64, 78
1, 124275, Note_on_c, 0, 55, 44
1, 124275, Note_on_c, 0, 67, 62
1, 124314, Note_off_c, 0, 51, 0
1, 124319, Note_off_c, 0, 55, 45
1, 124326, Note_on_c, 0, 65, 61
1, 124344, Note_on_c, 0, 58, 30
1, 124348, Note_off_c, 0, 67, 59
1, 124351, Poly_aftertouch_c, 0, 51, 127
1, 124353, Control_c, 0, 64, 76
1, 124368, Control_c, 0, 64, 66
1, 124380, Poly_aftertouch_c, 0, 51, 0
1, 124383, Note_off_c, 0, 58, 49
1, 124383, Control_c, 0, 64, 0
1, 124392, Note_off_c, 0, 65, 65
1, 124400, Note_on_c, 0, 63, 68
1, 124406, Note_on_c, 0, 49, 54
1, 124462, Note_off_c, 0, 49, 60
1, 124465, Control_c, 0, 64, 49
1, 124480, Control_c, 0, 64, 66
1, 124493, Note_on_c, 0, 51, 44
1, 124495, Control_c, 0, 64, 71
1, 124509, Control_c, 0, 64, 75
1, 124524, Control_c, 0, 64, 77
1, 124535, Note_off_c, 0, 63, 63
1, 124539, Control_c, 0, 64, 79
1, 124541, Note_off_c, 0, 51, 57
1, 124549, Note_on_c, 0, 55, 46
1, 124553, Control_c, 0, 64, 80
1, 124568, Control_c, 0, 64, 81
1, 124580, Note_off_c, 0, 55, 55
1, 124583, Control_c, 0, 64, 82
1, 124598, Control_c, 0, 64, 83
1, 124613, Note_on_c, 0, 58, 45
1, 124613, Control_c, 0, 64, 84
1, 124627, Control_c, 0, 64, 85
1, 124639, Note_off_c, 0, 58, 55
1, 124642, Control_c, 0, 64, 85
1, 124737, Note_on_c, 0, 48, 46
1, 124746, Control_c, 0, 64, 85
1, 124749, Note_on_c, 0, 68, 68
1, 124761, Control_c, 0, 64, 81
1, 124776, Control_c, 0, 64, 72
1, 124791, Control_c, 0, 64, 0
1, 124797, Note_off_c, 0, 48, 59
1, 124813, Note_on_c, 0, 51, 48
1, 124866, Control_c, 0, 64, 50
1, 124881, Control_c, 0, 64, 66
1, 124886, Note_on_c, 0, 56, 55
1, 124895, Control_c, 0, 64, 71
1, 124910, Control_c, 0, 64, 75
1, 124921, Note_off_c, 0, 56, 63
1, 124925, Control_c, 0, 64, 77
1, 124938, Note_off_c, 0, 51, 0
1, 124940, Control_c, 0, 64, 78
1, 124955, Control_c, 0, 64, 79
1, 124970, Control_c, 0, 64, 80
1, 124976, Poly_aftertouch_c, 0, 51, 127
1, 124982, Note_on_c, 0, 60, 44
1, 124985, Control_c, 0, 64, 81
1, 125000, Control_c, 0, 64, 81
1, 125015, Control_c, 0, 64, 82
1, 125019, Poly_aftertouch_c, 0, 51, 0
1, 125024, Note_off_c, 0, 60, 43
1, 125054, Note_on_c, 0, 48, 53
1, 125074, Control_c, 0, 64, 82
1, 125089, Note_off_c, 0, 48, 64
1, 125125, Note_on_c, 0, 51, 48
1, 125158, Note_off_c, 0, 51, 51
1, 125193, Note_on_c, 0, 56, 30
1, 125235, Note_off_c, 0, 56, 46
1, 125268, Note_on_c, 0, 60, 28
1, 125299, Note_off_c, 0, 60, 45
1, 125312, Note_off_c, 0, 68, 41
1, 125319, Control_c, 0, 64, 79
1, 125333, Control_c, 0, 64, 71
1, 125336, Note_on_c, 0, 73, 62
1, 125348, Control_c, 0, 64, 0
1, 125350, Note_on_c, 0, 48, 41
1, 125393, Note_off_c, 0, 48, 58
1, 125396, Note_on_c, 0, 49, 51
1, 125422, Control_c, 0, 64, 64
1, 125435, Note_off_c, 0, 73, 56
1, 125437, Control_c, 0, 64, 69
1, 125451, Control_c, 0, 64, 72
1, 125466, Control_c, 0, 64, 75
1, 125481, Control_c, 0, 64, 76
1, 125496, Control_c, 0, 64, 76
1, 125501, Note_on_c, 0, 53, 50
1, 125501, Note_on_c, 0, 77, 57
1, 125511, Control_c, 0, 64, 77
1, 125531, Note_off_c, 0, 53, 56
1, 125533, Note_off_c, 0, 49, 32
1, 125543, Note_off_c, 0, 77, 60
1, 125544, Note_on_c, 0, 75, 68
1, 125554, Note_on_c, 0, 56, 54
1, 125555, Control_c, 0, 64, 76
1, 125569, Control_c, 0, 64, 74
1, 125584, Control_c, 0, 64, 66
1, 125599, Control_c, 0, 64, 0
1, 125603, Note_off_c, 0, 56, 46
1, 125614, Note_on_c, 0, 48, 48
1, 125619, Note_on_c, 0, 73, 76
1, 125619, Note_off_c, 0, 75, 64
1, 125669, Note_off_c, 0, 48, 63
1, 125670, Note_on_c, 0, 49, 53
1, 125674, Control_c, 0, 64, 58
1, 125688, Control_c, 0, 64, 69
1, 125697, Note_off_c, 0, 73, 62
1, 125703, Control_c, 0, 64, 75
1, 125719, Control_c, 0, 64, 79
1, 125734, Control_c, 0, 64, 80
1, 125745, Note_on_c, 0, 53, 60
1, 125748, Control_c, 0, 64, 80
1, 125763, Control_c, 0, 64, 81
1, 125778, Control_c, 0, 64, 83
1, 125781, Note_off_c, 0, 53, 66
1, 125793, Control_c, 0, 64, 84
1, 125808, Control_c, 0, 64, 85
1, 125814, Note_on_c, 0, 56, 53
1, 125823, Control_c, 0, 64, 87
1, 125837, Control_c, 0, 64, 88
1, 125852, Control_c, 0, 67, 124
1, 125855, Note_off_c, 0, 56, 54
1, 125867, Control_c, 0, 67, 105
1, 125881, Note_off_c, 0, 49, 58
1, 125882, Control_c, 0, 64, 85
1, 125882, Control_c, 0, 67, 88
1, 125891, Note_on_c, 0, 46, 68
1, 125897, Control_c, 0, 64, 76
1, 125897, Control_c, 0, 67, 72
1, 125903, Note_on_c, 0, 78, 78
1, 125912, Control_c, 0, 64, 40
1, 125912, Control_c, 0, 67, 57
1, 125927, Control_c, 0, 64, 0
1, 125927, Control_c, 0, 67, 42
1, 125942, Control_c, 0, 67, 27
1, 125963, Control_c, 0, 67, 12
1, 125966, Note_off_c, 0, 46, 62
1, 125973, Note_on_c, 0, 49, 49
1, 125978, Control_c, 0, 64, 22
1, 125978, Control_c, 0, 67, 0
1, 125993, Control_c, 0, 64, 67
1, 126007, Control_c, 0, 64, 74
1, 126022, Control_c, 0, 64, 80
1, 126037, Note_off_c, 0, 78, 52
1, 126037, Control_c, 0, 64, 82
1, 126059, Note_on_c, 0, 54, 52
1, 126067, Control_c, 0, 64, 83
1, 126070, Note_on_c, 0, 82, 69
1, 126082, Control_c, 0, 64, 83
1, 126091, Note_off_c, 0, 54, 55
1, 126097, Control_c, 0, 64, 84
1, 126099, Note_off_c, 0, 49, 0
1, 126122, Note_on_c, 0, 58, 55
1, 126127, Note_on_c, 0, 80, 68
1, 126136, Poly_aftertouch_c, 0, 49, 127
1, 126141, Control_c, 0, 64, 83
1, 126148, Note_off_c, 0, 82, 63
1, 126156, Control_c, 0, 64, 77
1, 126170, Note_off_c, 0, 58, 55
1, 126171, Control_c, 0, 64, 61
1, 126181, Poly_aftertouch_c, 0, 49, 0
1, 126186, Control_c, 0, 64, 0
1, 126189, Note_on_c, 0, 78, 78
1, 126194, Note_on_c, 0, 46, 62
1, 126211, Note_off_c, 0, 80, 63
1, 126243, Note_off_c, 0, 78, 63
1, 126245, Control_c, 0, 64, 60
1, 126257, Note_off_c, 0, 46, 56
1, 126260, Control_c, 0, 64, 71
1, 126261, Note_on_c, 0, 49, 59
1, 126274, Control_c, 0, 64, 81
1, 126289, Control_c, 0, 64, 85
1, 126304, Control_c, 0, 64, 86
1, 126319, Control_c, 0, 64, 86
1, 126331, Note_on_c, 0, 54, 60
1, 126333, Control_c, 0, 64, 87
1, 126348, Control_c, 0, 64, 89
1, 126363, Control_c, 0, 64, 92
1, 126377, Note_off_c, 0, 54, 61
1, 126378, Control_c, 0, 64, 95
1, 126393, Control_c, 0, 64, 97
1, 126401, Note_off_c, 0, 49, 29
1, 126407, Control_c, 0, 64, 99
1, 126413, Note_on_c, 0, 58, 53
1, 126422, Control_c, 0, 64, 101
1, 126437, Control_c, 0, 64, 101
1, 126452, Control_c, 0, 64, 102
1, 126459, Note_off_c, 0, 58, 59
1, 126479, Note_on_c, 0, 46, 65
1, 126480, Note_on_c, 0, 60, 74
1, 126481, Control_c, 0, 64, 101
1, 126496, Control_c, 0, 64, 100
1, 126511, Control_c, 0, 64, 90
1, 126517, Note_on_c, 0, 48, 65
1, 126527, Control_c, 0, 64, 72
1, 126542, Control_c, 0, 64, 0
1, 126601, Control_c, 0, 64, 64
1, 126616, Control_c, 0, 64, 73
1, 126621, Note_on_c, 0, 52, 54
1, 126630, Control_c, 0, 64, 81
1, 126633, Note_off_c, 0, 46, 33
1, 126637, Note_on_c, 0, 64, 67
1, 126638, Note_off_c, 0, 60, 56
1, 126645, Control_c, 0, 64, 85
1, 126660, Control_c, 0, 64, 86
1, 126666, Note_off_c, 0, 52, 65
1, 126675, Control_c, 0, 64, 86
1, 126680, Note_on_c, 0, 55, 61
1, 126697, Control_c, 0, 64, 88
1, 126708, Note_on_c, 0, 62, 77
1, 126711, Note_off_c, 0, 64, 63
1, 126712, Control_c, 0, 64, 89
1, 126727, Control_c, 0, 64, 91
1, 126742, Control_c, 0, 64, 92
1, 126753, Note_off_c, 0, 55, 58
1, 126756, Control_c, 0, 64, 93
1, 126770, Note_on_c, 0, 46, 73
1, 126770, Note_off_c, 0, 62, 61
1, 126780, Note_off_c, 0, 48, 40
1, 126781, Note_on_c, 0, 60, 83
1, 126816, Control_c, 0, 64, 92
1, 126830, Control_c, 0, 64, 86
1, 126845, Control_c, 0, 64, 70
1, 126850, Note_on_c, 0, 48, 68
1, 126860, Control_c, 0, 64, 0
1, 126867, Poly_aftertouch_c, 0, 52, 0
1, 126887, Note_off_c, 0, 46, 60
1, 126917, Note_on_c, 0, 52, 47
1, 126949, Control_c, 0, 64, 66
1, 126964, Note_off_c, 0, 52, 67
1, 126964, Control_c, 0, 64, 73
1, 126979, Control_c, 0, 64, 80
1, 126994, Control_c, 0, 64, 83
1, 127009, Note_on_c, 0, 55, 54
1, 127009, Control_c, 0, 64, 84
1, 127023, Control_c, 0, 64, 84
1, 127038, Control_c, 0, 64, 85
1, 127051, Note_off_c, 0, 55, 59
1, 127053, Control_c, 0, 64, 86
1, 127068, Control_c, 0, 64, 87
1, 127077, Note_off_c, 0, 48, 59
1, 127088, Note_on_c, 0, 44, 67
1, 127110, Note_on_c, 0, 72, 90
1, 127112, Control_c, 0, 64, 85
1, 127127, Control_c, 0, 64, 78
1, 127142, Control_c, 0, 64, 52
1, 127156, Control_c, 0, 64, 0
1, 127185, Note_on_c, 0, 48, 60
1, 127206, Note_off_c, 0, 44, 54
1, 127216, Control_c, 0, 64, 53
1, 127230, Control_c, 0, 64, 67
1, 127245, Control_c, 0, 64, 72
1, 127258, Note_on_c, 0, 53, 62
1, 127260, Control_c, 0, 64, 76
1, 127275, Control_c, 0, 64, 78
1, 127277, Note_off_c, 0, 60, 56
1, 127289, Control_c, 0, 64, 80
1, 127304, Control_c, 0, 64, 81
1, 127310, Note_off_c, 0, 53, 62
1, 127320, Control_c, 0, 64, 83
1, 127332, Note_on_c, 0, 56, 54
1, 127335, Control_c, 0, 64, 85
1, 127350, Control_c, 0, 64, 87
1, 127361, Note_off_c, 0, 56, 61
1, 127364, Control_c, 0, 64, 89
1, 127379, Control_c, 0, 64, 92
1, 127394, Control_c, 0, 64, 94
1, 127398, Note_on_c, 0, 44, 70
1, 127409, Control_c, 0, 64, 97
1, 127424, Control_c, 0, 64, 101
1, 127432, Note_off_c, 0, 48, 0
1, 127446, Control_c, 0, 64, 107
1, 127453, Note_on_c, 0, 48, 48
1, 127461, Control_c, 0, 64, 115
1, 127475, Note_off_c, 0, 72, 61
1, 127476, Control_c, 0, 64, 127
1, 127495, Note_off_c, 0, 44, 63
1, 127525, Note_on_c, 0, 53, 62
1, 127587, Note_off_c, 0, 48, 59
1, 127587, Note_off_c, 0, 53, 65
1, 127602, Note_on_c, 0, 56, 60
1, 127631, Note_off_c, 0, 56, 64
1, 127705, Note_on_c, 0, 72, 91
1, 127713, Control_c, 0, 64, 103
1, 127714, Note_on_c, 0, 43, 78
1, 127727, Control_c, 0, 64, 76
1, 127742, Control_c, 0, 64, 0
1, 127766, Note_on_c, 0, 46, 70
1, 127787, Control_c, 0, 64, 64
1, 127802, Control_c, 0, 64, 78
1, 127816, Control_c, 0, 64, 97
1, 127831, Control_c, 0, 64, 107
1, 127839, Note_on_c, 0, 52, 60
1, 127841, Note_off_c, 0, 43, 35
1, 127845, Control_c, 0, 64, 108
1, 127856, Note_on_c, 0, 76, 77
1, 127860, Control_c, 0, 64, 109
1, 127871, Note_off_c, 0, 72, 60
1, 127875, Control_c, 0, 64, 112
1, 127890, Control_c, 0, 64, 118
1, 127905, Note_off_c, 0, 52, 65
1, 127905, Control_c, 0, 64, 127
1, 127909, Note_on_c, 0, 55, 69
1, 127923, Note_on_c, 0, 74, 82
1, 127936, Note_off_c, 0, 76, 63
1, 127959, Note_off_c, 0, 74, 68
1, 127968, Note_off_c, 0, 55, 65
1, 127985, Note_on_c, 0, 72, 91
1, 127996, Note_on_c, 0, 43, 83
1, 128001, Note_off_c, 0, 46, 63
1, 128008, Control_c, 0, 64, 102
1, 128023, Control_c, 0, 64, 72
1, 128038, Control_c, 0, 64, 0
1, 128050, Note_on_c, 0, 46, 57
1, 128082, Control_c, 0, 64, 66
1, 128095, Note_on_c, 0, 52, 60
1, 128097, Control_c, 0, 64, 81
1, 128112, Control_c, 0, 64, 101
1, 128128, Control_c, 0, 64, 119
1, 128142, Control_c, 0, 64, 127
1, 128152, Note_off_c, 0, 43, 34
1, 128183, Note_off_c, 0, 52, 65
1, 128201, Note_on_c, 0, 55, 68
1, 128246, Note_off_c, 0, 46, 62
1, 128273, Note_off_c, 0, 55, 62
1, 128298, Control_c, 0, 64, 113
1, 128300, Note_on_c, 0, 41, 91
1, 128311, Note_on_c, 0, 84, 99
1, 128313, Control_c, 0, 64, 77
1, 128328, Control_c, 0, 64, 0
1, 128372, Control_c, 0, 64, 61
1, 128377, Note_on_c, 0, 44, 65
1, 128387, Control_c, 0, 64, 79
1, 128401, Control_c, 0, 64, 98
1, 128416, Control_c, 0, 64, 114
1, 128431, Control_c, 0, 64, 115
1, 128445, Note_off_c, 0, 41, 64
1, 128446, Control_c, 0, 64, 116
1, 128455, Note_on_c, 0, 48, 74
1, 128460, Note_off_c, 0, 72, 61
1, 128461, Control_c, 0, 64, 116
1, 128476, Control_c, 0, 64, 118
1, 128490, Control_c, 0, 64, 120
1, 128505, Control_c, 0, 64, 121
1, 128520, Control_c, 0, 64, 123
1, 128526, Note_on_c, 0, 53, 82
1, 128535, Control_c, 0, 64, 126
1, 128547, Note_off_c, 0, 48, 56
1, 128550, Control_c, 0, 64, 127
1, 128570, Note_off_c, 0, 84, 59
1, 128577, Note_off_c, 0, 44, 62
1, 128618, Note_on_c, 0, 41, 89
1, 128672, Note_off_c, 0, 53, 57
1, 128696, Note_on_c, 0, 44, 77
1, 128729, Note_off_c, 0, 41, 63
1, 128758, Note_on_c, 0, 46, 28
1, 128791, Note_on_c, 0, 53, 80
1, 128807, Note_off_c, 0, 46, 45
1, 128836, Note_off_c, 0, 44, 55
1, 128857, Note_off_c, 0, 53, 62
1, 128875, Control_c, 0, 64, 121
1, 128890, Control_c, 0, 64, 97
1, 128890, Note_on_c, 0, 40, 95
1, 128896, Note_on_c, 0, 84, 102
1, 128905, Control_c, 0, 64, 68
1, 128920, Control_c, 0, 64, 0
1, 128971, Note_off_c, 0, 84, 57
1, 128972, Control_c, 0, 64, 68
1, 128987, Control_c, 0, 64, 84
1, 128993, Note_on_c, 0, 43, 74
1, 129002, Control_c, 0, 64, 101
1, 129016, Control_c, 0, 64, 108
1, 129029, Note_off_c, 0, 40, 64
1, 129031, Control_c, 0, 64, 109
1, 129046, Control_c, 0, 64, 110
1, 129061, Control_c, 0, 64, 113
1, 129066, Note_on_c, 0, 88, 75
1, 129076, Control_c, 0, 64, 118
1, 129084, Note_on_c, 0, 52, 79
1, 129091, Control_c, 0, 64, 127
1, 129122, Note_on_c, 0, 86, 90
1, 129129, Note_off_c, 0, 88, 63
1, 129144, Note_off_c, 0, 52, 67
1, 129173, Note_on_c, 0, 39, 83
1, 129179, Control_c, 0, 64, 116
1, 129185, Note_on_c, 0, 84, 102
1, 129186, Note_off_c, 0, 43, 55
1, 129194, Control_c, 0, 64, 87
1, 129198, Note_off_c, 0, 86, 49
1, 129209, Control_c, 0, 64, 52
1, 129223, Note_off_c, 0, 84, 68
1, 129224, Control_c, 0, 64, 0
1, 129254, Control_c, 0, 64, 65
1, 129269, Control_c, 0, 64, 78
1, 129277, Note_on_c, 0, 43, 71
1, 129283, Control_c, 0, 64, 91
1, 129298, Control_c, 0, 64, 97
1, 129301, Note_off_c, 0, 39, 61
1, 129319, Note_on_c, 0, 84, 104
1, 129358, Control_c, 0, 64, 94
1, 129364, Note_off_c, 0, 84, 61
1, 129366, Note_off_c, 0, 43, 59
1, 129373, Control_c, 0, 64, 80
1, 129377, Note_on_c, 0, 51, 83
1, 129388, Control_c, 0, 64, 0
1, 129438, Note_off_c, 0, 51, 61
1, 129453, Note_on_c, 0, 38, 85
1, 129466, Note_on_c, 0, 84, 110
1, 129513, Note_off_c, 0, 84, 63
1, 129565, Control_c, 0, 64, 56
1, 129569, Note_on_c, 0, 41, 76
1, 129580, Control_c, 0, 64, 95
1, 129587, Note_off_c, 0, 38, 62
1, 129595, Control_c, 0, 64, 127
1, 129608, Note_on_c, 0, 84, 106
1, 129673, Note_on_c, 0, 50, 87
1, 129723, Note_off_c, 0, 41, 58
1, 129745, Note_off_c, 0, 50, 62
1, 129748, Note_off_c, 0, 84, 56
1, 129761, Note_on_c, 0, 89, 108
1, 129769, Note_on_c, 0, 37, 89
1, 129865, Note_on_c, 0, 41, 71
1, 129893, Note_off_c, 0, 37, 63
1, 129907, Note_off_c, 0, 89, 56
1, 129908, Note_on_c, 0, 83, 100
1, 129977, Note_on_c, 0, 49, 91
1, 130027, Note_off_c, 0, 41, 62
1, 130030, Note_off_c, 0, 83, 58
1, 130037, Note_off_c, 0, 49, 62
1, 130047, Control_c, 0, 64, 82
1, 130062, Control_c, 0, 64, 0
1, 130064, Note_on_c, 0, 84, 103
1, 130082, Note_on_c, 0, 48, 115
1, 130087, Note_on_c, 0, 36, 96
1, 130107, Control_c, 0, 64, 72
1, 130108, Note_off_c, 0, 84, 70
1, 130121, Note_on_c, 0, 43, 32
1, 130121, Control_c, 0, 64, 127
1, 130158, Note_off_c, 0, 43, 53
1, 130191, Note_off_c, 0, 36, 62
1, 130214, Note_off_c, 0, 48, 58
1, 130258, Note_on_c, 0, 43, 81
1, 130357, Note_on_c, 0, 40, 87
1, 130395, Note_off_c, 0, 43, 35
1, 130488, Note_on_c, 0, 43, 81
1, 130494, Note_on_c, 0, 67, 103
1, 130498, Note_off_c, 0, 40, 62
1, 130569, Note_off_c, 0, 43, 62
1, 130589, Note_on_c, 0, 48, 82
1, 130649, Note_off_c, 0, 48, 57
1, 130679, Note_on_c, 0, 52, 87
1, 130757, Note_off_c, 0, 52, 65
1, 130774, Note_on_c, 0, 50, 98
1, 130811, Control_c, 0, 64, 98
1, 130826, Control_c, 0, 64, 64
1, 130841, Control_c, 0, 64, 0
1, 130863, Note_on_c, 0, 47, 75
1, 130870, Control_c, 0, 64, 16
1, 130885, Control_c, 0, 64, 71
1, 130900, Control_c, 0, 64, 87
1, 130914, Control_c, 0, 64, 106
1, 130929, Control_c, 0, 64, 117
1, 130936, Note_off_c, 0, 67, 44
1, 130941, Note_off_c, 0, 50, 39
1, 130944, Note_on_c, 0, 43, 77
1, 130944, Control_c, 0, 64, 120
1, 130959, Note_off_c, 0, 47, 64
1, 130959, Control_c, 0, 64, 127
1, 131042, Note_on_c, 0, 47, 73
1, 131058, Note_on_c, 0, 67, 98
1, 131077, Note_off_c, 0, 43, 58
1, 131137, Note_on_c, 0, 50, 68
1, 131145, Note_off_c, 0, 47, 61
1, 131227, Note_off_c, 0, 50, 63
1, 131241, Note_on_c, 0, 53, 76
1, 131289, Note_off_c, 0, 53, 64
1, 131356, Note_off_c, 0, 67, 60
1, 131381, Note_on_c, 0, 72, 102
1, 131383, Note_on_c, 0, 52, 95
1, 131397, Control_c, 0, 64, 93
1, 131412, Control_c, 0, 64, 61
1, 131427, Control_c, 0, 64, 0
1, 131456, Control_c, 0, 64, 44
1, 131471, Control_c, 0, 64, 72
1, 131486, Note_on_c, 0, 55, 76
1, 131486, Control_c, 0, 64, 87
1, 131488, Note_on_c, 0, 67, 71
1, 131501, Control_c, 0, 64, 102
1, 131510, Note_off_c, 0, 52, 60
1, 131516, Control_c, 0, 64, 107
1, 131522, Note_off_c, 0, 72, 61
1, 131531, Control_c, 0, 64, 107
1, 131545, Control_c, 0, 64, 109
1, 131558, Note_off_c, 0, 55, 63
1, 131560, Control_c, 0, 64, 111
1, 131570, Note_on_c, 0, 64, 76
1, 131575, Note_off_c, 0, 67, 61
1, 131575, Control_c, 0, 64, 114
1, 131584, Note_on_c, 0, 60, 75
1, 131590, Control_c, 0, 64, 121
1, 131605, Control_c, 0, 64, 127
1, 131650, Note_off_c, 0, 64, 61
1, 131674, Note_on_c, 0, 67, 76
1, 131677, Note_on_c, 0, 55, 71
1, 131737, Note_off_c, 0, 67, 63
1, 131752, Note_on_c, 0, 52, 78
1, 131752, Note_off_c, 0, 55, 60
1, 131772, Note_on_c, 0, 72, 81
1, 131855, Note_on_c, 0, 48, 85
1, 131859, Note_off_c, 0, 72, 62
1, 131861, Note_on_c, 0, 76, 87
1, 131861, Note_off_c, 0, 52, 63
1, 131959, Note_on_c, 0, 74, 77
1, 131963, Note_on_c, 0, 53, 87
1, 131982, Control_c, 0, 64, 94
1, 131987, Note_off_c, 0, 76, 64
1, 131997, Control_c, 0, 64, 70
1, 132010, Note_off_c, 0, 60, 41
1, 132012, Control_c, 0, 64, 0
1, 132035, Note_off_c, 0, 74, 65
1, 132041, Note_on_c, 0, 71, 73
1, 132041, Control_c, 0, 64, 54
1, 132051, Note_on_c, 0, 56, 89
1, 132056, Control_c, 0, 64, 73
1, 132057, Note_off_c, 0, 53, 66
1, 132071, Control_c, 0, 64, 87
1, 132083, Note_off_c, 0, 48, 58
1, 132085, Control_c, 0, 64, 100
1, 132100, Control_c, 0, 64, 105
1, 132116, Control_c, 0, 64, 107
1, 132131, Control_c, 0, 64, 110
1, 132134, Note_off_c, 0, 56, 58
1, 132140, Note_off_c, 0, 71, 61
1, 132145, Note_on_c, 0, 60, 81
1, 132146, Control_c, 0, 64, 115
1, 132148, Note_on_c, 0, 68, 87
1, 132160, Control_c, 0, 64, 127
1, 132226, Note_off_c, 0, 68, 61
1, 132245, Note_on_c, 0, 56, 47
1, 132246, Note_on_c, 0, 71, 78
1, 132262, Note_on_c, 0, 55, 61
1, 132294, Note_off_c, 0, 55, 50
1, 132321, Note_on_c, 0, 53, 70
1, 132325, Note_on_c, 0, 74, 80
1, 132325, Note_off_c, 0, 71, 50
1, 132333, Note_off_c, 0, 56, 39
1, 132385, Note_off_c, 0, 60, 50
1, 132402, Note_off_c, 0, 53, 60
1, 132414, Note_on_c, 0, 77, 94
1, 132417, Note_off_c, 0, 74, 66
1, 132418, Note_on_c, 0, 48, 83
1, 132501, Control_c, 0, 64, 118
1, 132509, Note_on_c, 0, 76, 91
1, 132512, Note_on_c, 0, 55, 84
1, 132515, Note_off_c, 0, 77, 59
1, 132515, Control_c, 0, 64, 96
1, 132530, Control_c, 0, 64, 69
1, 132545, Control_c, 0, 64, 0
1, 132574, Control_c, 0, 64, 55
1, 132580, Note_off_c, 0, 76, 67
1, 132589, Control_c, 0, 64, 75
1, 132592, Note_off_c, 0, 55, 63
1, 132594, Note_on_c, 0, 58, 81
1, 132604, Control_c, 0, 64, 89
1, 132606, Note_on_c, 0, 73, 85
1, 132619, Control_c, 0, 64, 102
1, 132633, Note_off_c, 0, 48, 34
1, 132634, Control_c, 0, 64, 107
1, 132649, Control_c, 0, 64, 108
1, 132664, Control_c, 0, 64, 110
1, 132669, Note_off_c, 0, 73, 60
1, 132679, Control_c, 0, 64, 114
1, 132697, Note_off_c, 0, 58, 59
1, 132700, Control_c, 0, 64, 120
1, 132704, Note_on_c, 0, 60, 82
1, 132705, Note_on_c, 0, 70, 81
1, 132715, Control_c, 0, 64, 127
1, 132778, Note_off_c, 0, 70, 57
1, 132789, Note_on_c, 0, 58, 85
1, 132797, Note_on_c, 0, 73, 83
1, 132856, Note_on_c, 0, 55, 64
1, 132881, Note_on_c, 0, 76, 72
1, 132887, Note_off_c, 0, 73, 60
1, 132941, Note_off_c, 0, 76, 68
1, 132950, Note_on_c, 0, 79, 76
1, 132963, Note_on_c, 0, 48, 64
1, 132977, Note_off_c, 0, 79, 63
1, 133053, Note_on_c, 0, 82, 91
1, 133148, Note_on_c, 0, 76, 76
1, 133183, Note_off_c, 0, 82, 63
1, 133184, Note_off_c, 0, 76, 66
1, 133229, Note_on_c, 0, 85, 92
1, 133297, Note_off_c, 0, 85, 65
1, 133328, Note_on_c, 0, 76, 76
1, 133379, Note_off_c, 0, 76, 63
1, 133406, Note_on_c, 0, 73, 78
1, 133454, Note_off_c, 0, 73, 58
1, 133504, Note_on_c, 0, 82, 83
1, 133570, Note_off_c, 0, 82, 64
1, 133585, Note_on_c, 0, 73, 64
1, 133626, Note_off_c, 0, 73, 57
1, 133659, Note_on_c, 0, 70, 69
1, 133685, Note_off_c, 0, 70, 67
1, 133760, Note_on_c, 0, 76, 74
1, 133835, Note_off_c, 0, 76, 62
1, 133844, Note_on_c, 0, 70, 70
1, 133912, Note_off_c, 0, 70, 57
1, 133920, Note_on_c, 0, 64, 68
1, 134005, Note_on_c, 0, 73, 87
1, 134028, Note_off_c, 0, 64, 47
1, 134085, Note_off_c, 0, 60, 40
1, 134086, Note_off_c, 0, 73, 63
1, 134088, Note_on_c, 0, 70, 72
1, 134155, Note_off_c, 0, 58, 62
1, 134160, Note_off_c, 0, 70, 44
1, 134166, Note_on_c, 0, 64, 72
1, 134239, Note_off_c, 0, 48, 33
1, 134240, Note_off_c, 0, 55, 41
1, 134253, Note_off_c, 0, 64, 47
1, 134259, Note_on_c, 0, 72, 88
1, 134349, Note_on_c, 0, 70, 77
1, 134387, Note_off_c, 0, 72, 61
1, 134430, Note_on_c, 0, 64, 75
1, 134450, Note_off_c, 0, 70, 62
1, 134512, Note_on_c, 0, 72, 78
1, 134531, Note_off_c, 0, 64, 61
1, 134568, Note_off_c, 0, 72, 63
1, 134619, Note_on_c, 0, 72, 93
1, 134621, Note_on_c, 0, 65, 99
1, 134622, Note_on_c, 0, 53, 97
1, 134623, Note_on_c, 0, 69, 96
1, 134627, Note_on_c, 0, 41, 85
1, 134629, Control_c, 0, 64, 117
1, 134644, Control_c, 0, 64, 80
1, 134659, Control_c, 0, 64, 0
1, 134689, Control_c, 0, 64, 63
1, 134704, Control_c, 0, 64, 82
1, 134718, Control_c, 0, 64, 108
1, 134723, Note_off_c, 0, 69, 66
1, 134732, Note_on_c, 0, 48, 85
1, 134733, Control_c, 0, 64, 127
1, 134738, Note_off_c, 0, 65, 58
1, 134750, Note_off_c, 0, 41, 62
1, 134750, Note_off_c, 0, 53, 61
1, 134772, Note_off_c, 0, 72, 60
1, 134829, Note_on_c, 0, 45, 77
1, 134841, Note_off_c, 0, 48, 59
1, 134935, Note_on_c, 0, 72, 94
1, 134944, Note_off_c, 0, 45, 62
1, 134947, Note_on_c, 0, 48, 78
1, 135006, Note_off_c, 0, 48, 65
1, 135035, Note_on_c, 0, 53, 77
1, 135107, Note_off_c, 0, 53, 43
1, 135120, Note_on_c, 0, 57, 76
1, 135185, Note_off_c, 0, 57, 57
1, 135202, Note_on_c, 0, 55, 92
1, 135230, Control_c, 0, 64, 94
1, 135244, Control_c, 0, 64, 66
1, 135259, Control_c, 0, 64, 0
1, 135295, Note_on_c, 0, 52, 73
1, 135303, Control_c, 0, 64, 68
1, 135319, Control_c, 0, 64, 80
1, 135324, Note_off_c, 0, 55, 54
1, 135334, Control_c, 0, 64, 92
1, 135349, Control_c, 0, 64, 100
1, 135364, Control_c, 0, 64, 103
1, 135368, Note_off_c, 0, 72, 58
1, 135379, Control_c, 0, 64, 107
1, 135389, Note_off_c, 0, 52, 65
1, 135393, Control_c, 0, 64, 110
1, 135394, Note_on_c, 0, 48, 58
1, 135403, Note_on_c, 0, 47, 50
1, 135408, Control_c, 0, 64, 115
1, 135423, Control_c, 0, 64, 120
1, 135434, Note_off_c, 0, 47, 55
1, 135438, Control_c, 0, 64, 127
1, 135465, Note_on_c, 0, 52, 64
1, 135479, Note_off_c, 0, 48, 58
1, 135481, Note_on_c, 0, 72, 90
1, 135557, Note_off_c, 0, 52, 62
1, 135572, Note_on_c, 0, 55, 64
1, 135630, Note_off_c, 0, 55, 62
1, 135665, Note_on_c, 0, 58, 71
1, 135701, Note_off_c, 0, 58, 66
1, 135781, Note_off_c, 0, 72, 61
1, 135811, Note_on_c, 0, 77, 85
1, 135816, Note_on_c, 0, 57, 72
1, 135830, Control_c, 0, 64, 95
1, 135845, Control_c, 0, 64, 67
1, 135859, Control_c, 0, 64, 0
1, 135889, Control_c, 0, 64, 26
1, 135903, Note_on_c, 0, 72, 78
1, 135904, Control_c, 0, 64, 67
1, 135906, Note_on_c, 0, 60, 68
1, 135913, Note_off_c, 0, 77, 59
1, 135914, Note_off_c, 0, 57, 59
1, 135919, Control_c, 0, 64, 78
1, 135934, Control_c, 0, 64, 92
1, 135949, Control_c, 0, 64, 97
1, 135964, Control_c, 0, 64, 98
1, 135970, Note_off_c, 0, 60, 61
1, 135978, Control_c, 0, 64, 100
1, 135982, Note_off_c, 0, 72, 61
1, 135987, Note_on_c, 0, 69, 80
1, 135990, Note_on_c, 0, 65, 75
1, 135993, Control_c, 0, 64, 102
1, 136008, Control_c, 0, 64, 105
1, 136023, Control_c, 0, 64, 108
1, 136038, Control_c, 0, 64, 113
1, 136053, Control_c, 0, 64, 117
1, 136068, Control_c, 0, 64, 122
1, 136071, Note_off_c, 0, 69, 61
1, 136080, Note_on_c, 0, 72, 76
1, 136080, Note_on_c, 0, 60, 75
1, 136083, Control_c, 0, 64, 127
1, 136132, Note_off_c, 0, 72, 64
1, 136160, Note_on_c, 0, 57, 71
1, 136163, Note_off_c, 0, 60, 58
1, 136171, Note_on_c, 0, 77, 84
1, 136178, Note_off_c, 0, 65, 0
1, 136178, Note_on_c, 0, 65, 22
1, 136252, Note_off_c, 0, 57, 61
1, 136253, Note_on_c, 0, 53, 80
1, 136258, Note_on_c, 0, 81, 91
1, 136260, Note_off_c, 0, 77, 62
1, 136334, Note_on_c, 0, 58, 88
1, 136347, Note_on_c, 0, 79, 84
1, 136369, Note_off_c, 0, 65, 42
1, 136379, Note_off_c, 0, 81, 58
1, 136380, Control_c, 0, 64, 100
1, 136395, Control_c, 0, 64, 75
1, 136409, Control_c, 0, 64, 0
1, 136420, Note_off_c, 0, 79, 63
1, 136439, Note_on_c, 0, 61, 82
1, 136444, Note_off_c, 0, 58, 64
1, 136445, Note_on_c, 0, 76, 75
1, 136461, Control_c, 0, 64, 66
1, 136476, Control_c, 0, 64, 77
1, 136491, Control_c, 0, 64, 88
1, 136497, Note_off_c, 0, 61, 64
1, 136506, Control_c, 0, 64, 95
1, 136516, Note_off_c, 0, 76, 67
1, 136521, Control_c, 0, 64, 97
1, 136527, Note_on_c, 0, 65, 78
1, 136535, Control_c, 0, 64, 99
1, 136541, Note_on_c, 0, 73, 85
1, 136550, Control_c, 0, 64, 102
1, 136565, Control_c, 0, 64, 106
1, 136580, Control_c, 0, 64, 112
1, 136595, Control_c, 0, 64, 121
1, 136609, Control_c, 0, 64, 127
1, 136617, Note_on_c, 0, 61, 72
1, 136622, Note_off_c, 0, 73, 60
1, 136630, Note_on_c, 0, 76, 83
1, 136691, Note_on_c, 0, 58, 71
1, 136706, Note_off_c, 0, 53, 38
1, 136718, Note_on_c, 0, 79, 72
1, 136724, Note_off_c, 0, 76, 60
1, 136784, Note_on_c, 0, 82, 84
1, 136791, Note_off_c, 0, 79, 63
1, 136798, Note_off_c, 0, 61, 61
1, 136798, Note_on_c, 0, 53, 78
1, 136810, Note_off_c, 0, 58, 63
1, 136810, Note_off_c, 0, 65, 35
1, 136826, Note_off_c, 0, 82, 60
1, 136882, Note_on_c, 0, 81, 79
1, 136897, Note_on_c, 0, 60, 73
1, 136906, Control_c, 0, 64, 104
1, 136920, Control_c, 0, 64, 74
1, 136935, Control_c, 0, 64, 0
1, 136961, Note_off_c, 0, 81, 62
1, 136980, Control_c, 0, 64, 67
1, 136983, Note_on_c, 0, 78, 90
1, 136986, Note_on_c, 0, 63, 79
1, 136995, Control_c, 0, 64, 83
1, 137001, Note_off_c, 0, 60, 51
1, 137010, Control_c, 0, 64, 103
1, 137025, Control_c, 0, 64, 119
1, 137039, Control_c, 0, 64, 121
1, 137047, Note_off_c, 0, 53, 37
1, 137053, Note_off_c, 0, 78, 62
1, 137054, Control_c, 0, 64, 121
1, 137058, Note_off_c, 0, 63, 64
1, 137069, Control_c, 0, 64, 123
1, 137072, Note_on_c, 0, 75, 86
1, 137073, Note_on_c, 0, 65, 76
1, 137084, Control_c, 0, 64, 127
1, 137144, Note_on_c, 0, 63, 77
1, 137161, Note_on_c, 0, 78, 85
1, 137164, Note_off_c, 0, 75, 57
1, 137227, Note_on_c, 0, 60, 68
1, 137236, Note_on_c, 0, 81, 74
1, 137242, Note_off_c, 0, 78, 60
1, 137320, Note_off_c, 0, 81, 64
1, 137324, Note_on_c, 0, 84, 84
1, 137328, Note_on_c, 0, 53, 67
1, 137403, Note_off_c, 0, 84, 63
1, 137429, Note_on_c, 0, 81, 80
1, 137481, Note_off_c, 0, 81, 65
1, 137510, Note_on_c, 0, 78, 79
1, 137557, Note_off_c, 0, 78, 61
1, 137590, Note_on_c, 0, 87, 87
1, 137648, Note_off_c, 0, 87, 65
1, 137673, Note_on_c, 0, 78, 73
1, 137740, Note_off_c, 0, 78, 57
1, 137757, Note_on_c, 0, 75, 59
1, 137777, Note_off_c, 0, 75, 59
1, 137844, Note_on_c, 0, 84, 78
1, 137898, Note_off_c, 0, 84, 58
1, 137952, Note_on_c, 0, 75, 69
1, 138014, Note_off_c, 0, 75, 59
1, 138016, Note_on_c, 0, 72, 66
1, 138066, Note_off_c, 0, 72, 60
1, 138108, Note_on_c, 0, 81, 85
1, 138153, Note_off_c, 0, 65, 52
1, 138201, Note_off_c, 0, 81, 60
1, 138202, Note_on_c, 0, 75, 62
1, 138250, Note_off_c, 0, 63, 61
1, 138267, Note_on_c, 0, 69, 65
1, 138287, Note_off_c, 0, 75, 60
1, 138310, Note_off_c, 0, 53, 49
1, 138311, Note_off_c, 0, 60, 54
1, 138354, Note_on_c, 0, 78, 90
1, 138429, Note_off_c, 0, 69, 0
1, 138448, Note_on_c, 0, 75, 76
1, 138449, Note_off_c, 0, 78, 62
1, 138479, Poly_aftertouch_c, 0, 69, 0
1, 138506, Note_off_c, 0, 75, 62
1, 138524, Note_on_c, 0, 69, 63
1, 138608, Note_on_c, 0, 77, 85
1, 138617, Note_off_c, 0, 69, 53
1, 138703, Note_on_c, 0, 75, 78
1, 138745, Note_off_c, 0, 77, 54
1, 138778, Note_on_c, 0, 69, 83
1, 138792, Note_off_c, 0, 75, 59
1, 138849, Note_off_c, 0, 69, 64
1, 138873, Note_on_c, 0, 77, 90
1, 138923, Note_off_c, 0, 77, 64
1, 138961, Poly_aftertouch_c, 0, 74, 0
1, 138971, Note_on_c, 0, 46, 103
1, 138972, Note_on_c, 0, 34, 86
1, 138972, Note_on_c, 0, 77, 94
1, 138974, Note_on_c, 0, 74, 24
1, 138974, Control_c, 0, 64, 103
1, 138976, Note_on_c, 0, 70, 103
1, 138989, Control_c, 0, 64, 71
1, 139003, Control_c, 0, 64, 0
1, 139019, Note_off_c, 0, 77, 66
1, 139033, Control_c, 0, 64, 71
1, 139034, Note_off_c, 0, 70, 59
1, 139040, Note_off_c, 0, 74, 64
1, 139048, Control_c, 0, 64, 97
1, 139062, Control_c, 0, 64, 127
1, 139063, Note_on_c, 0, 41, 75
1, 139082, Note_off_c, 0, 46, 60
1, 139136, Note_off_c, 0, 34, 61
1, 139147, Note_on_c, 0, 38, 73
1, 139159, Note_off_c, 0, 41, 64
1, 139262, Note_on_c, 0, 41, 70
1, 139270, Note_off_c, 0, 38, 60
1, 139283, Note_on_c, 0, 65, 101
1, 139335, Note_off_c, 0, 41, 65
1, 139359, Note_on_c, 0, 46, 74
1, 139389, Note_off_c, 0, 46, 63
1, 139467, Note_on_c, 0, 50, 76
1, 139536, Note_off_c, 0, 50, 61
1, 139550, Note_on_c, 0, 48, 100
1, 139574, Control_c, 0, 64, 107
1, 139589, Control_c, 0, 64, 74
1, 139604, Control_c, 0, 64, 0
1, 139637, Note_on_c, 0, 45, 74
1, 139648, Control_c, 0, 64, 59
1, 139663, Control_c, 0, 64, 77
1, 139664, Note_off_c, 0, 48, 60
1, 139678, Control_c, 0, 64, 93
1, 139693, Control_c, 0, 64, 105
1, 139699, Note_off_c, 0, 65, 51
1, 139708, Control_c, 0, 64, 106
1, 139723, Control_c, 0, 64, 107
1, 139728, Note_on_c, 0, 41, 78
1, 139735, Note_off_c, 0, 45, 64
1, 139737, Control_c, 0, 64, 108
1, 139752, Control_c, 0, 64, 110
1, 139767, Control_c, 0, 64, 113
1, 139782, Control_c, 0, 64, 116
1, 139796, Control_c, 0, 64, 121
1, 139811, Control_c, 0, 64, 127
1, 139822, Note_on_c, 0, 45, 64
1, 139824, Note_off_c, 0, 41, 64
1, 139824, Note_on_c, 0, 65, 89
1, 139916, Note_off_c, 0, 45, 63
1, 139930, Note_on_c, 0, 48, 73
1, 139998, Note_off_c, 0, 48, 64
1, 140015, Note_on_c, 0, 51, 73
1, 140053, Note_off_c, 0, 51, 56
1, 140143, Note_off_c, 0, 65, 62
1, 140159, Note_on_c, 0, 70, 90
1, 140167, Note_on_c, 0, 50, 87
1, 140167, Control_c, 0, 64, 94
1, 140189, Control_c, 0, 64, 63
1, 140204, Control_c, 0, 64, 0
1, 140249, Control_c, 0, 64, 72
1, 140263, Control_c, 0, 64, 87
1, 140268, Note_on_c, 0, 65, 74
1, 140275, Note_on_c, 0, 53, 68
1, 140275, Note_off_c, 0, 50, 59
1, 140278, Control_c, 0, 64, 102
1, 140282, Note_off_c, 0, 70, 55
1, 140293, Control_c, 0, 64, 106
1, 140322, Control_c, 0, 64, 106
1, 140337, Control_c, 0, 64, 108
1, 140349, Note_off_c, 0, 65, 63
1, 140352, Note_on_c, 0, 62, 71
1, 140352, Control_c, 0, 64, 111
1, 140367, Control_c, 0, 64, 116
1, 140373, Note_off_c, 0, 53, 63
1, 140381, Control_c, 0, 64, 123
1, 140384, Note_on_c, 0, 58, 62
1, 140396, Control_c, 0, 64, 127
1, 140427, Note_off_c, 0, 62, 60
1, 140431, Note_on_c, 0, 65, 64
1, 140458, Note_off_c, 0, 58, 40
1, 140476, Note_on_c, 0, 53, 52
1, 140491, Note_off_c, 0, 65, 64
1, 140517, Note_on_c, 0, 70, 70
1, 140520, Note_off_c, 0, 53, 65
1, 140531, Note_on_c, 0, 50, 64
1, 140603, Note_off_c, 0, 70, 52
1, 140609, Note_on_c, 0, 74, 78
1, 140621, Note_on_c, 0, 46, 76
1, 140621, Note_off_c, 0, 50, 64
1, 140699, Note_off_c, 0, 74, 63
1, 140700, Note_on_c, 0, 51, 74
1, 140714, Note_on_c, 0, 71, 65
1, 140715, Note_on_c, 0, 72, 65
1, 140767, Control_c, 0, 64, 98
1, 140778, Note_off_c, 0, 72, 61
1, 140781, Control_c, 0, 64, 78
1, 140788, Note_on_c, 0, 68, 60
1, 140792, Note_on_c, 0, 54, 76
1, 140796, Control_c, 0, 64, 55
1, 140811, Note_off_c, 0, 51, 56
1, 140811, Control_c, 0, 64, 0
1, 140819, Note_off_c, 0, 71, 61
1, 140826, Control_c, 0, 64, 61
1, 140841, Control_c, 0, 64, 74
1, 140855, Control_c, 0, 64, 88
1, 140870, Control_c, 0, 64, 99
1, 140876, Note_off_c, 0, 54, 61
1, 140885, Note_on_c, 0, 58, 76
1, 140885, Note_off_c, 0, 68, 65
1, 140885, Control_c, 0, 64, 102
1, 140899, Note_on_c, 0, 66, 88
1, 140901, Control_c, 0, 64, 103
1, 140916, Control_c, 0, 64, 104
1, 140938, Control_c, 0, 64, 106
1, 140953, Control_c, 0, 64, 109
1, 140968, Control_c, 0, 64, 111
1, 140972, Note_on_c, 0, 54, 74
1, 140980, Note_on_c, 0, 69, 76
1, 140983, Control_c, 0, 64, 111
1, 140988, Note_off_c, 0, 66, 58
1, 140998, Control_c, 0, 64, 110
1, 141003, Note_off_c, 0, 58, 51
1, 141012, Control_c, 0, 64, 99
1, 141027, Control_c, 0, 64, 86
1, 141042, Control_c, 0, 64, 76
1, 141047, Note_off_c, 0, 46, 54
1, 141052, Note_on_c, 0, 51, 71
1, 141057, Control_c, 0, 64, 73
1, 141058, Note_on_c, 0, 72, 78
1, 141069, Note_off_c, 0, 69, 62
1, 141072, Control_c, 0, 64, 77
1, 141086, Control_c, 0, 64, 87
1, 141101, Control_c, 0, 64, 105
1, 141116, Control_c, 0, 64, 126
1, 141130, Control_c, 0, 64, 127
1, 141134, Note_on_c, 0, 46, 83
1, 141138, Note_off_c, 0, 72, 64
1, 141141, Note_on_c, 0, 75, 85
1, 141143, Note_off_c, 0, 51, 62
1, 141145, Note_off_c, 0, 54, 52
1, 141195, Note_off_c, 0, 75, 62
1, 141219, Control_c, 0, 64, 116
1, 141228, Note_on_c, 0, 74, 93
1, 141231, Note_on_c, 0, 53, 73
1, 141234, Control_c, 0, 64, 82
1, 141249, Control_c, 0, 64, 0
1, 141302, Note_off_c, 0, 74, 64
1, 141308, Control_c, 0, 64, 64
1, 141320, Note_on_c, 0, 71, 85
1, 141323, Control_c, 0, 64, 81
1, 141327, Note_on_c, 0, 56, 81
1, 141337, Note_off_c, 0, 46, 60
1, 141338, Control_c, 0, 64, 96
1, 141353, Control_c, 0, 64, 105
1, 141362, Note_off_c, 0, 53, 60
1, 141368, Control_c, 0, 64, 106
1, 141383, Control_c, 0, 64, 107
1, 141397, Control_c, 0, 64, 109
1, 141412, Control_c, 0, 64, 113
1, 141415, Note_on_c, 0, 58, 83
1, 141415, Note_on_c, 0, 68, 87
1, 141419, Note_off_c, 0, 56, 63
1, 141427, Control_c, 0, 64, 116
1, 141429, Note_off_c, 0, 71, 60
1, 141441, Control_c, 0, 64, 120
1, 141456, Control_c, 0, 64, 124
1, 141471, Control_c, 0, 64, 127
1, 141491, Note_on_c, 0, 56, 69
1, 141505, Note_off_c, 0, 68, 62
1, 141508, Note_on_c, 0, 71, 72
1, 141562, Note_on_c, 0, 74, 69
1, 141573, Note_on_c, 0, 53, 62
1, 141590, Note_off_c, 0, 71, 57
1, 141638, Note_off_c, 0, 74, 64
1, 141642, Note_on_c, 0, 77, 80
1, 141682, Note_off_c, 0, 77, 58
1, 141693, Note_on_c, 0, 46, 64
1, 141748, Note_on_c, 0, 80, 88
1, 141842, Note_on_c, 0, 74, 73
1, 141880, Note_off_c, 0, 80, 59
1, 141889, Note_off_c, 0, 74, 64
1, 141930, Note_on_c, 0, 83, 90
1, 141997, Note_off_c, 0, 83, 58
1, 142010, Note_on_c, 0, 74, 75
1, 142051, Note_off_c, 0, 74, 60
1, 142107, Note_on_c, 0, 71, 66
1, 142134, Note_off_c, 0, 71, 67
1, 142185, Note_on_c, 0, 80, 81
1, 142244, Note_off_c, 0, 80, 62
1, 142269, Note_on_c, 0, 71, 74
1, 142337, Note_off_c, 0, 71, 60
1, 142360, Note_on_c, 0, 68, 52
1, 142382, Note_off_c, 0, 68, 60
1, 142441, Note_on_c, 0, 77, 79
1, 142508, Note_off_c, 0, 77, 56
1, 142525, Note_on_c, 0, 68, 62
1, 142597, Note_off_c, 0, 68, 63
1, 142599, Note_on_c, 0, 65, 66
1, 142637, Note_off_c, 0, 65, 61
1, 142686, Note_on_c, 0, 74, 70
1, 142763, Note_on_c, 0, 68, 72
1, 142821, Note_off_c, 0, 74, 52
1, 142847, Note_off_c, 0, 68, 45
1, 142850, Note_on_c, 0, 62, 71
1, 142926, Note_on_c, 0, 71, 74
1, 142967, Note_off_c, 0, 62, 54
1, 142993, Note_off_c, 0, 53, 56
1, 143005, Note_on_c, 0, 68, 78
1, 143021, Note_off_c, 0, 71, 59
1, 143033, Note_off_c, 0, 56, 45
1, 143076, Note_on_c, 0, 62, 72
1, 143081, Note_off_c, 0, 68, 63
1, 143142, Note_off_c, 0, 62, 58
1, 143157, Note_on_c, 0, 70, 82
1, 143202, Note_off_c, 0, 70, 58
1, 143228, Control_c, 0, 64, 91
1, 143243, Control_c, 0, 64, 25
1, 143258, Control_c, 0, 64, 0
1, 143285, Note_on_c, 0, 51, 76
1, 143300, Note_on_c, 0, 78, 97
1, 143303, Note_off_c, 0, 58, 62
1, 143303, Control_c, 0, 64, 75
1, 143318, Control_c, 0, 64, 97
1, 143332, Control_c, 0, 64, 119
1, 143347, Control_c, 0, 64, 127
1, 143368, Note_off_c, 0, 78, 61
1, 143375, Note_on_c, 0, 54, 77
1, 143392, Note_on_c, 0, 75, 82
1, 143397, Note_off_c, 0, 46, 52
1, 143407, Note_off_c, 0, 51, 61
1, 143448, Note_off_c, 0, 75, 63
1, 143449, Note_off_c, 0, 54, 61
1, 143464, Note_on_c, 0, 58, 80
1, 143472, Note_on_c, 0, 70, 87
1, 143554, Note_on_c, 0, 54, 76
1, 143558, Note_on_c, 0, 75, 82
1, 143562, Note_off_c, 0, 70, 56
1, 143606, Poly_aftertouch_c, 0, 46, 127
1, 143619, Note_on_c, 0, 51, 74
1, 143636, Note_on_c, 0, 78, 80
1, 143639, Poly_aftertouch_c, 0, 46, 0
1, 143639, Note_off_c, 0, 75, 64
1, 143705, Note_off_c, 0, 78, 60
1, 143716, Note_on_c, 0, 46, 78
1, 143717, Note_on_c, 0, 82, 85
1, 143794, Note_off_c, 0, 82, 63
1, 143803, Note_on_c, 0, 78, 86
1, 143861, Note_off_c, 0, 78, 60
1, 143910, Note_on_c, 0, 76, 54
1, 143923, Note_on_c, 0, 77, 53
1, 143938, Note_off_c, 0, 76, 63
1, 143944, Note_off_c, 0, 77, 58
1, 143969, Note_on_c, 0, 87, 68
1, 143988, Note_off_c, 0, 87, 66
1, 144073, Note_on_c, 0, 75, 77
1, 144146, Note_on_c, 0, 70, 81
1, 144167, Note_off_c, 0, 75, 51
1, 144212, Note_off_c, 0, 70, 61
1, 144228, Note_on_c, 0, 82, 78
1, 144248, Note_off_c, 0, 82, 70
1, 144322, Note_on_c, 0, 70, 88
1, 144400, Note_off_c, 0, 70, 51
1, 144400, Note_on_c, 0, 66, 80
1, 144459, Note_off_c, 0, 66, 63
1, 144480, Note_on_c, 0, 78, 80
1, 144499, Note_off_c, 0, 78, 72
1, 144572, Note_on_c, 0, 66, 84
1, 144614, Note_off_c, 0, 66, 62
1, 144657, Note_on_c, 0, 63, 79
1, 144716, Note_off_c, 0, 63, 62
1, 144757, Note_on_c, 0, 75, 76
1, 144846, Note_on_c, 0, 66, 76
1, 144934, Note_off_c, 0, 75, 57
1, 144945, Note_on_c, 0, 63, 78
1, 144948, Note_off_c, 0, 66, 63
1, 145032, Note_on_c, 0, 75, 88
1, 145047, Note_off_c, 0, 63, 58
1, 145112, Note_on_c, 0, 66, 83
1, 145173, Note_off_c, 0, 75, 47
1, 145195, Note_on_c, 0, 63, 71
1, 145196, Note_off_c, 0, 66, 64
1, 145250, Note_off_c, 0, 63, 63
1, 145282, Note_on_c, 0, 75, 73
1, 145312, Note_off_c, 0, 75, 63
1, 145317, Note_off_c, 0, 51, 54
1, 145379, Control_c, 0, 64, 99
1, 145386, Note_on_c, 0, 49, 77
1, 145389, Note_off_c, 0, 54, 39
1, 145394, Control_c, 0, 64, 68
1, 145401, Note_off_c, 0, 58, 63
1, 145409, Control_c, 0, 64, 0
1, 145418, Note_on_c, 0, 78, 86
1, 145461, Control_c, 0, 64, 70
1, 145476, Control_c, 0, 64, 87
1, 145480, Note_off_c, 0, 78, 62
1, 145491, Control_c, 0, 64, 109
1, 145491, Note_on_c, 0, 54, 75
1, 145504, Note_on_c, 0, 76, 81
1, 145505, Control_c, 0, 64, 122
1, 145520, Control_c, 0, 64, 123
1, 145530, Note_off_c, 0, 49, 59
1, 145535, Control_c, 0, 64, 124
1, 145550, Control_c, 0, 64, 127
1, 145567, Note_off_c, 0, 54, 62
1, 145580, Note_on_c, 0, 58, 82
1, 145595, Note_on_c, 0, 73, 80
1, 145600, Note_off_c, 0, 76, 56
1, 145604, Note_on_c, 0, 49, 25
1, 145648, Note_off_c, 0, 49, 54
1, 145663, Note_on_c, 0, 76, 70
1, 145665, Note_on_c, 0, 54, 78
1, 145666, Note_off_c, 0, 73, 62
1, 145677, Note_off_c, 0, 46, 53
1, 145735, Note_on_c, 0, 49, 70
1, 145747, Note_on_c, 0, 78, 82
1, 145750, Note_off_c, 0, 76, 66
1, 145819, Note_on_c, 0, 46, 78
1, 145824, Note_off_c, 0, 78, 60
1, 145824, Note_on_c, 0, 85, 78
1, 145906, Note_on_c, 0, 78, 75
1, 145923, Note_off_c, 0, 85, 51
1, 145973, Note_on_c, 0, 76, 76
1, 145979, Note_off_c, 0, 78, 59
1, 146029, Note_off_c, 0, 76, 66
1, 146061, Note_on_c, 0, 88, 72
1, 146075, Note_off_c, 0, 88, 67
1, 146200, Note_on_c, 0, 76, 67
1, 146242, Note_off_c, 0, 76, 62
1, 146244, Note_on_c, 0, 73, 63
1, 146292, Note_off_c, 0, 73, 63
1, 146313, Note_on_c, 0, 85, 76
1, 146333, Note_off_c, 0, 85, 72
1, 146418, Note_on_c, 0, 73, 78
1, 146504, Note_on_c, 0, 66, 79
1, 146514, Note_off_c, 0, 73, 60
1, 146566, Note_off_c, 0, 66, 64
1, 146585, Note_on_c, 0, 78, 72
1, 146604, Note_off_c, 0, 78, 67
1, 146665, Note_on_c, 0, 66, 89
1, 146712, Note_off_c, 0, 58, 57
1, 146720, Note_off_c, 0, 66, 61
1, 146754, Note_on_c, 0, 64, 72
1, 146831, Note_on_c, 0, 76, 80
1, 146847, Note_off_c, 0, 46, 48
1, 146906, Note_off_c, 0, 54, 59
1, 146908, Note_on_c, 0, 66, 82
1, 146909, Note_off_c, 0, 49, 53
1, 146930, Note_off_c, 0, 64, 56
1, 146984, Note_off_c, 0, 66, 65
1, 146984, Note_off_c, 0, 76, 59
1, 147005, Note_on_c, 0, 64, 78
1, 147088, Note_on_c, 0, 76, 88
1, 147113, Note_off_c, 0, 64, 57
1, 147172, Note_on_c, 0, 66, 84
1, 147177, Note_off_c, 0, 76, 58
1, 147242, Note_on_c, 0, 64, 77
1, 147247, Note_off_c, 0, 66, 65
1, 147312, Note_off_c, 0, 64, 63
1, 147348, Note_on_c, 0, 76, 68
1, 147371, Note_off_c, 0, 76, 67
1, 147433, Note_on_c, 0, 50, 81
1, 147434, Control_c, 0, 64, 119
1, 147448, Note_on_c, 0, 78, 87
1, 147448, Control_c, 0, 64, 81
1, 147463, Control_c, 0, 64, 0
1, 147507, Control_c, 0, 64, 63
1, 147522, Control_c, 0, 64, 78
1, 147524, Note_off_c, 0, 78, 53
1, 147527, Note_on_c, 0, 54, 76
1, 147530, Note_on_c, 0, 74, 82
1, 147537, Control_c, 0, 64, 95
1, 147552, Control_c, 0, 64, 109
1, 147562, Note_off_c, 0, 50, 56
1, 147566, Control_c, 0, 64, 112
1, 147581, Control_c, 0, 64, 113
1, 147584, Note_off_c, 0, 74, 60
1, 147596, Control_c, 0, 64, 115
1, 147601, Note_off_c, 0, 54, 61
1, 147604, Note_on_c, 0, 59, 77
1, 147605, Note_on_c, 0, 71, 78
1, 147611, Control_c, 0, 64, 122
1, 147626, Control_c, 0, 64, 127
1, 147690, Note_on_c, 0, 74, 81
1, 147690, Note_on_c, 0, 54, 76
1, 147696, Note_off_c, 0, 71, 60
1, 147701, Poly_aftertouch_c, 0, 50, 0
1, 147730, Note_off_c, 0, 74, 65
1, 147768, Note_on_c, 0, 50, 70
1, 147771, Note_on_c, 0, 78, 81
1, 147845, Note_off_c, 0, 78, 60
1, 147847, Note_on_c, 0, 47, 78
1, 147851, Note_on_c, 0, 83, 83
1, 147940, Note_off_c, 0, 83, 59
1, 147942, Note_on_c, 0, 78, 90
1, 148017, Note_on_c, 0, 74, 78
1, 148025, Note_off_c, 0, 78, 62
1, 148104, Note_on_c, 0, 86, 82
1, 148108, Note_off_c, 0, 74, 54
1, 148121, Note_off_c, 0, 86, 75
1, 148203, Note_on_c, 0, 74, 88
1, 148253, Note_off_c, 0, 74, 56
1, 148276, Note_on_c, 0, 71, 76
1, 148339, Note_off_c, 0, 71, 57
1, 148355, Note_on_c, 0, 83, 66
1, 148380, Note_off_c, 0, 83, 64
1, 148462, Note_on_c, 0, 71, 80
1, 148545, Note_on_c, 0, 66, 69
1, 148564, Note_off_c, 0, 71, 59
1, 148606, Note_off_c, 0, 66, 61
1, 148606, Note_on_c, 0, 78, 77
1, 148626, Note_off_c, 0, 78, 71
1, 148704, Note_on_c, 0, 66, 83
1, 148755, Note_off_c, 0, 66, 65
1, 148790, Note_on_c, 0, 62, 74
1, 148872, Note_on_c, 0, 74, 73
1, 148883, Note_off_c, 0, 59, 55
1, 148912, Note_off_c, 0, 62, 30
1, 148958, Note_on_c, 0, 66, 79
1, 149025, Note_off_c, 0, 74, 55
1, 149026, Note_off_c, 0, 66, 64
1, 149045, Note_on_c, 0, 62, 77
1, 149130, Note_on_c, 0, 74, 79
1, 149135, Note_off_c, 0, 50, 31
1, 149186, Note_off_c, 0, 54, 31
1, 149216, Note_on_c, 0, 66, 76
1, 149216, Note_off_c, 0, 62, 47
1, 149245, Note_off_c, 0, 74, 49
1, 149303, Note_off_c, 0, 66, 65
1, 149309, Note_on_c, 0, 62, 67
1, 149343, Note_off_c, 0, 62, 58
1, 149376, Note_on_c, 0, 74, 71
1, 149425, Note_off_c, 0, 74, 64
1, 149509, Note_on_c, 0, 50, 74
1, 149526, Note_on_c, 0, 79, 97
1, 149532, Control_c, 0, 64, 86
1, 149546, Control_c, 0, 64, 0
1, 149603, Note_on_c, 0, 55, 75
1, 149606, Control_c, 0, 64, 71
1, 149610, Note_off_c, 0, 79, 60
1, 149620, Control_c, 0, 64, 90
1, 149627, Note_on_c, 0, 74, 87
1, 149629, Note_off_c, 0, 50, 61
1, 149635, Control_c, 0, 64, 109
1, 149650, Control_c, 0, 64, 116
1, 149652, Note_off_c, 0, 47, 43
1, 149664, Control_c, 0, 64, 116
1, 149680, Control_c, 0, 64, 119
1, 149688, Note_off_c, 0, 74, 62
1, 149690, Note_on_c, 0, 59, 84
1, 149693, Note_off_c, 0, 55, 64
1, 149695, Control_c, 0, 64, 124
1, 149697, Note_on_c, 0, 71, 83
1, 149710, Control_c, 0, 64, 127
1, 149726, Note_on_c, 0, 50, 30
1, 149758, Note_off_c, 0, 50, 50
1, 149774, Note_off_c, 0, 71, 60
1, 149779, Note_on_c, 0, 55, 78
1, 149780, Note_on_c, 0, 74, 81
1, 149829, Note_off_c, 0, 74, 64
1, 149844, Note_on_c, 0, 50, 65
1, 149855, Note_on_c, 0, 79, 83
1, 149948, Note_off_c, 0, 79, 63
1, 149950, Note_on_c, 0, 47, 76
1, 149952, Note_on_c, 0, 83, 82
1, 150034, Note_on_c, 0, 79, 81
1, 150036, Note_off_c, 0, 83, 61
1, 150110, Note_on_c, 0, 74, 80
1, 150123, Note_off_c, 0, 79, 59
1, 150186, Note_off_c, 0, 74, 59
1, 150192, Note_on_c, 0, 86, 82
1, 150213, Note_off_c, 0, 86, 69
1, 150286, Note_on_c, 0, 74, 85
1, 150355, Note_off_c, 0, 74, 52
1, 150369, Note_on_c, 0, 71, 77
1, 150444, Note_off_c, 0, 71, 58
1, 150451, Note_on_c, 0, 83, 77
1, 150471, Note_off_c, 0, 83, 68
1, 150543, Note_on_c, 0, 71, 83
1, 150588, Note_off_c, 0, 71, 57
1, 150618, Note_on_c, 0, 67, 70
1, 150674, Note_off_c, 0, 67, 63
1, 150704, Note_on_c, 0, 79, 83
1, 150731, Note_off_c, 0, 79, 62
1, 150822, Note_on_c, 0, 69, 57
1, 150826, Note_on_c, 0, 67, 57
1, 150842, Note_off_c, 0, 69, 62
1, 150843, Note_off_c, 0, 67, 64
1, 150884, Note_on_c, 0, 65, 77
1, 150932, Note_off_c, 0, 65, 62
1, 150985, Note_on_c, 0, 77, 65
1, 151002, Note_off_c, 0, 77, 64
1, 151060, Note_on_c, 0, 67, 76
1, 151137, Note_off_c, 0, 67, 56
1, 151141, Note_on_c, 0, 62, 74
1, 151230, Note_off_c, 0, 62, 53
1, 151232, Note_on_c, 0, 74, 85
1, 151244, Note_off_c, 0, 59, 49
1, 151311, Note_on_c, 0, 67, 70
1, 151340, Note_off_c, 0, 74, 62
1, 151350, Note_off_c, 0, 47, 56
1, 151363, Note_off_c, 0, 50, 40
1, 151380, Note_on_c, 0, 62, 81
1, 151437, Note_off_c, 0, 67, 59
1, 151455, Note_off_c, 0, 62, 61
1, 151472, Note_on_c, 0, 74, 80
1, 151510, Note_off_c, 0, 55, 0
1, 151513, Note_off_c, 0, 74, 65
1, 151545, Note_on_c, 0, 55, 20
1, 151640, Note_on_c, 0, 51, 80
1, 151653, Note_off_c, 0, 55, 54
1, 151662, Note_on_c, 0, 84, 93
1, 151673, Control_c, 0, 64, 101
1, 151688, Control_c, 0, 64, 66
1, 151703, Control_c, 0, 64, 0
1, 151733, Control_c, 0, 64, 65
1, 151736, Note_off_c, 0, 84, 65
1, 151747, Note_on_c, 0, 55, 75
1, 151748, Control_c, 0, 64, 85
1, 151756, Note_on_c, 0, 79, 74
1, 151762, Note_on_c, 0, 80, 67
1, 151762, Control_c, 0, 64, 127
1, 151765, Note_off_c, 0, 51, 60
1, 151777, Control_c, 0, 64, 127
1, 151797, Note_off_c, 0, 80, 66
1, 151831, Note_on_c, 0, 60, 84
1, 151838, Note_off_c, 0, 55, 64
1, 151849, Note_on_c, 0, 75, 72
1, 151861, Note_off_c, 0, 79, 62
1, 151883, Note_on_c, 0, 51, 25
1, 151908, Note_off_c, 0, 51, 58
1, 151910, Note_on_c, 0, 79, 72
1, 151912, Note_on_c, 0, 55, 74
1, 151929, Note_off_c, 0, 75, 54
1, 151989, Note_on_c, 0, 51, 67
1, 151994, Note_on_c, 0, 84, 85
1, 152020, Note_off_c, 0, 79, 61
1, 152069, Note_on_c, 0, 87, 89
1, 152071, Note_on_c, 0, 48, 88
1, 152100, Note_off_c, 0, 84, 63
1, 152119, Control_c, 0, 64, 112
1, 152134, Control_c, 0, 64, 93
1, 152149, Control_c, 0, 64, 81
1, 152168, Note_on_c, 0, 79, 74
1, 152171, Control_c, 0, 64, 78
1, 152186, Control_c, 0, 64, 79
1, 152201, Control_c, 0, 64, 88
1, 152216, Control_c, 0, 64, 99
1, 152222, Note_off_c, 0, 87, 60
1, 152230, Control_c, 0, 64, 108
1, 152242, Note_on_c, 0, 75, 85
1, 152245, Control_c, 0, 64, 113
1, 152260, Control_c, 0, 64, 115
1, 152266, Note_off_c, 0, 79, 61
1, 152275, Control_c, 0, 64, 117
1, 152289, Control_c, 0, 64, 119
1, 152304, Control_c, 0, 64, 124
1, 152311, Note_off_c, 0, 75, 62
1, 152319, Control_c, 0, 64, 127
1, 152339, Note_on_c, 0, 85, 55
1, 152359, Note_off_c, 0, 85, 62
1, 152429, Note_on_c, 0, 74, 73
1, 152453, Note_off_c, 0, 74, 70
1, 152488, Note_on_c, 0, 72, 61
1, 152562, Note_off_c, 0, 72, 63
1, 152579, Note_on_c, 0, 84, 76
1, 152594, Note_off_c, 0, 84, 70
1, 152681, Note_on_c, 0, 72, 86
1, 152753, Note_off_c, 0, 72, 61
1, 152754, Note_on_c, 0, 67, 68
1, 152827, Note_on_c, 0, 79, 80
1, 152833, Note_off_c, 0, 67, 59
1, 152852, Note_off_c, 0, 79, 66
1, 152943, Note_on_c, 0, 67, 81
1, 153005, Note_off_c, 0, 67, 59
1, 153027, Note_on_c, 0, 63, 76
1, 153090, Note_off_c, 0, 63, 60
1, 153107, Note_on_c, 0, 75, 81
1, 153143, Note_off_c, 0, 60, 35
1, 153177, Note_off_c, 0, 48, 59
1, 153190, Note_on_c, 0, 67, 79
1, 153236, Note_off_c, 0, 55, 57
1, 153256, Note_off_c, 0, 51, 56
1, 153273, Note_off_c, 0, 75, 59
1, 153273, Note_on_c, 0, 63, 80
1, 153291, Note_off_c, 0, 67, 60
1, 153363, Note_on_c, 0, 75, 88
1, 153385, Note_off_c, 0, 63, 58
1, 153444, Note_on_c, 0, 67, 70
1, 153494, Note_off_c, 0, 75, 58
1, 153530, Note_on_c, 0, 63, 69
1, 153555, Note_off_c, 0, 67, 59
1, 153586, Note_off_c, 0, 63, 63
1, 153611, Note_on_c, 0, 75, 71
1, 153655, Note_off_c, 0, 75, 65
1, 153712, Control_c, 0, 64, 106
1, 153714, Note_on_c, 0, 56, 81
1, 153727, Control_c, 0, 64, 71
1, 153733, Note_on_c, 0, 77, 88
1, 153742, Control_c, 0, 64, 0
1, 153786, Control_c, 0, 64, 51
1, 153801, Control_c, 0, 64, 75
1, 153812, Note_off_c, 0, 77, 62
1, 153814, Note_on_c, 0, 61, 79
1, 153816, Control_c, 0, 64, 89
1, 153823, Note_on_c, 0, 73, 84
1, 153831, Control_c, 0, 64, 102
1, 153837, Note_off_c, 0, 56, 62
1, 153846, Control_c, 0, 64, 104
1, 153860, Control_c, 0, 64, 104
1, 153875, Control_c, 0, 64, 106
1, 153889, Note_off_c, 0, 73, 63
1, 153890, Control_c, 0, 64, 108
1, 153891, Note_off_c, 0, 61, 62
1, 153904, Note_on_c, 0, 65, 77
1, 153905, Control_c, 0, 64, 111
1, 153917, Note_on_c, 0, 68, 80
1, 153920, Control_c, 0, 64, 114
1, 153934, Control_c, 0, 64, 115
1, 153949, Control_c, 0, 64, 116
1, 153956, Note_on_c, 0, 56, 29
1, 153964, Control_c, 0, 64, 117
1, 153979, Control_c, 0, 64, 118
1, 153983, Note_off_c, 0, 56, 54
1, 153992, Note_on_c, 0, 61, 79
1, 153994, Control_c, 0, 64, 119
1, 153998, Note_on_c, 0, 73, 78
1, 154008, Control_c, 0, 64, 119
1, 154023, Control_c, 0, 64, 120
1, 154052, Control_c, 0, 64, 121
1, 154055, Note_on_c, 0, 56, 64
1, 154067, Note_on_c, 0, 77, 77
1, 154083, Note_off_c, 0, 73, 61
1, 154097, Control_c, 0, 64, 121
1, 154126, Control_c, 0, 64, 122
1, 154141, Control_c, 0, 64, 123
1, 154144, Note_on_c, 0, 53, 64
1, 154156, Control_c, 0, 64, 123
1, 154158, Note_on_c, 0, 80, 85
1, 154171, Control_c, 0, 64, 124
1, 154175, Note_off_c, 0, 77, 59
1, 154186, Note_off_c, 0, 65, 39
1, 154186, Control_c, 0, 64, 125
1, 154201, Control_c, 0, 64, 127
1, 154216, Control_c, 0, 64, 127
1, 154256, Note_on_c, 0, 77, 75
1, 154263, Note_off_c, 0, 53, 58
1, 154293, Note_off_c, 0, 68, 46
1, 154293, Note_off_c, 0, 80, 62
1, 154339, Note_on_c, 0, 73, 75
1, 154362, Note_off_c, 0, 56, 64
1, 154369, Note_off_c, 0, 77, 61
1, 154423, Note_on_c, 0, 68, 79
1, 154433, Note_off_c, 0, 73, 62
1, 154524, Note_on_c, 0, 77, 83
1, 154541, Note_off_c, 0, 68, 60
1, 154549, Note_off_c, 0, 61, 61
1, 154606, Note_on_c, 0, 73, 78
1, 154616, Note_off_c, 0, 77, 60
1, 154688, Note_on_c, 0, 68, 75
1, 154702, Note_off_c, 0, 73, 61
1, 154750, Note_off_c, 0, 68, 59
1, 154773, Note_on_c, 0, 60, 86
1, 154777, Note_on_c, 0, 75, 90
1, 154802, Control_c, 0, 64, 106
1, 154817, Control_c, 0, 64, 71
1, 154831, Control_c, 0, 64, 0
1, 154864, Note_on_c, 0, 63, 80
1, 154869, Note_on_c, 0, 72, 87
1, 154875, Control_c, 0, 64, 67
1, 154890, Control_c, 0, 64, 86
1, 154892, Note_off_c, 0, 60, 49
1, 154905, Control_c, 0, 64, 108
1, 154906, Note_off_c, 0, 75, 60
1, 154920, Control_c, 0, 64, 121
1, 154935, Control_c, 0, 64, 121
1, 154938, Note_off_c, 0, 63, 64
1, 154943, Note_on_c, 0, 66, 79
1, 154948, Note_on_c, 0, 69, 87
1, 154958, Note_off_c, 0, 72, 55
1, 154964, Control_c, 0, 64, 123
1, 154979, Control_c, 0, 64, 127
1, 155019, Note_on_c, 0, 63, 79
1, 155036, Note_on_c, 0, 72, 86
1, 155092, Note_on_c, 0, 60, 73
1, 155104, Note_off_c, 0, 66, 62
1, 155116, Note_on_c, 0, 75, 86
1, 155122, Note_off_c, 0, 72, 62
1, 155201, Note_on_c, 0, 54, 75
1, 155204, Note_off_c, 0, 75, 65
1, 155205, Note_on_c, 0, 81, 97
1, 155241, Note_off_c, 0, 63, 60
1, 155270, Note_off_c, 0, 54, 63
1, 155277, Note_off_c, 0, 60, 62
1, 155298, Note_on_c, 0, 75, 83
1, 155337, Note_off_c, 0, 81, 40
1, 155342, Note_off_c, 0, 69, 47
1, 155376, Note_on_c, 0, 72, 81
1, 155456, Note_off_c, 0, 75, 61
1, 155474, Note_on_c, 0, 69, 83
1, 155497, Note_off_c, 0, 72, 61
1, 155558, Note_on_c, 0, 75, 82
1, 155602, Note_off_c, 0, 69, 60
1, 155623, Note_on_c, 0, 72, 81
1, 155680, Note_off_c, 0, 75, 63
1, 155710, Note_on_c, 0, 69, 87
1, 155730, Note_off_c, 0, 72, 61
1, 155771, Note_on_c, 0, 59, 92
1, 155781, Note_off_c, 0, 69, 63
1, 155788, Control_c, 0, 64, 112
1, 155803, Control_c, 0, 64, 76
1, 155818, Control_c, 0, 64, 0
1, 155862, Control_c, 0, 64, 67
1, 155870, Note_on_c, 0, 62, 88
1, 155877, Control_c, 0, 64, 82
1, 155892, Control_c, 0, 64, 99
1, 155914, Control_c, 0, 64, 107
1, 155944, Control_c, 0, 64, 108
1, 155959, Control_c, 0, 64, 110
1, 155973, Note_on_c, 0, 67, 93
1, 155974, Control_c, 0, 64, 114
1, 155979, Note_off_c, 0, 62, 61
1, 155988, Control_c, 0, 64, 120
1, 156003, Control_c, 0, 64, 127
1, 156062, Note_on_c, 0, 62, 91
1, 156064, Note_off_c, 0, 59, 59
1, 156067, Note_on_c, 0, 71, 102
1, 156147, Note_on_c, 0, 59, 76
1, 156151, Note_on_c, 0, 74, 89
1, 156174, Note_off_c, 0, 71, 60
1, 156175, Note_off_c, 0, 67, 54
1, 156240, Note_off_c, 0, 74, 68
1, 156240, Note_on_c, 0, 55, 77
1, 156242, Note_on_c, 0, 79, 96
1, 156246, Note_off_c, 0, 59, 62
1, 156280, Note_off_c, 0, 62, 61
1, 156322, Note_on_c, 0, 74, 83
1, 156362, Note_off_c, 0, 79, 58
1, 156410, Note_off_c, 0, 74, 63
1, 156417, Note_on_c, 0, 71, 70
1, 156448, Control_c, 0, 64, 108
1, 156460, Note_off_c, 0, 71, 47
1, 156463, Control_c, 0, 64, 91
1, 156478, Control_c, 0, 64, 75
1, 156490, Note_on_c, 0, 67, 61
1, 156493, Control_c, 0, 64, 48
1, 156508, Control_c, 0, 64, 0
1, 156574, Note_off_c, 0, 67, 38
1, 156614, Note_on_c, 0, 77, 61
1, 156620, Note_on_c, 0, 62, 42
1, 156663, Control_c, 0, 67, 19
1, 156678, Control_c, 0, 67, 42
1, 156693, Control_c, 0, 64, 32
1, 156693, Control_c, 0, 67, 75
1, 156708, Control_c, 0, 64, 44
1, 156708, Control_c, 0, 67, 107
1, 156717, Note_off_c, 0, 77, 52
1, 156723, Control_c, 0, 64, 54
1, 156723, Control_c, 0, 67, 127
1, 156737, Control_c, 0, 64, 61
1, 156738, Note_on_c, 0, 71, 37
1, 156752, Control_c, 0, 64, 64
1, 156767, Control_c, 0, 64, 66
1, 156767, Note_off_c, 0, 71, 56
1, 156781, Control_c, 0, 64, 66
1, 156796, Control_c, 0, 64, 67
1, 156811, Control_c, 0, 64, 68
1, 156826, Control_c, 0, 64, 69
1, 156831, Note_on_c, 0, 67, 45
1, 156841, Control_c, 0, 64, 71
1, 156855, Control_c, 0, 64, 73
1, 156870, Control_c, 0, 64, 74
1, 156886, Control_c, 0, 64, 75
1, 156919, Note_on_c, 0, 77, 66
1, 156942, Note_on_c, 0, 59, 37
1, 156946, Control_c, 0, 64, 74
1, 156960, Control_c, 0, 64, 69
1, 156975, Control_c, 0, 64, 54
1, 156990, Control_c, 0, 64, 0
1, 156994, Note_off_c, 0, 67, 34
1, 157007, Note_on_c, 0, 74, 41
1, 157034, Control_c, 0, 64, 24
1, 157049, Control_c, 0, 64, 66
1, 157056, Note_off_c, 0, 74, 59
1, 157064, Control_c, 0, 64, 74
1, 157078, Note_off_c, 0, 55, 40
1, 157078, Control_c, 0, 64, 81
1, 157093, Control_c, 0, 64, 84
1, 157108, Control_c, 0, 64, 85
1, 157123, Control_c, 0, 64, 86
1, 157131, Note_on_c, 0, 67, 40
1, 157138, Control_c, 0, 64, 87
1, 157152, Control_c, 0, 64, 88
1, 157167, Control_c, 0, 64, 89
1, 157182, Control_c, 0, 64, 89
1, 157202, Note_off_c, 0, 59, 35
1, 157205, Note_on_c, 0, 75, 56
1, 157209, Note_on_c, 0, 55, 42
1, 157226, Control_c, 0, 64, 87
1, 157241, Control_c, 0, 64, 80
1, 157247, Note_off_c, 0, 62, 27
1, 157256, Control_c, 0, 64, 69
1, 157271, Control_c, 0, 64, 0
1, 157276, Note_off_c, 0, 67, 39
1, 157284, Note_off_c, 0, 77, 37
1, 157303, Note_on_c, 0, 74, 39
1, 157313, Note_off_c, 0, 75, 54
1, 157316, Control_c, 0, 64, 63
1, 157331, Control_c, 0, 64, 72
1, 157345, Control_c, 0, 64, 79
1, 157354, Note_off_c, 0, 74, 51
1, 157360, Control_c, 0, 64, 82
1, 157390, Control_c, 0, 64, 83
1, 157411, Control_c, 0, 64, 84
1, 157413, Note_on_c, 0, 67, 45
1, 157426, Control_c, 0, 64, 85
1, 157441, Control_c, 0, 64, 87
1, 157486, Control_c, 0, 64, 85
1, 157492, Note_on_c, 0, 60, 43
1, 157497, Note_on_c, 0, 75, 55
1, 157501, Control_c, 0, 64, 77
1, 157516, Control_c, 0, 64, 64
1, 157530, Control_c, 0, 64, 0
1, 157568, Note_off_c, 0, 67, 33
1, 157575, Control_c, 0, 64, 63
1, 157585, Note_off_c, 0, 55, 56
1, 157590, Control_c, 0, 64, 72
1, 157596, Note_off_c, 0, 75, 51
1, 157599, Note_on_c, 0, 72, 42
1, 157604, Control_c, 0, 64, 79
1, 157619, Control_c, 0, 64, 83
1, 157634, Control_c, 0, 64, 83
1, 157638, Note_off_c, 0, 72, 48
1, 157640, Note_off_c, 0, 60, 60
1, 157649, Control_c, 0, 64, 84
1, 157664, Control_c, 0, 64, 85
1, 157680, Control_c, 0, 64, 86
1, 157694, Control_c, 0, 64, 87
1, 157699, Note_on_c, 0, 67, 38
1, 157709, Control_c, 0, 64, 88
1, 157724, Control_c, 0, 64, 88
1, 157730, Note_off_c, 0, 67, 53
1, 157739, Control_c, 0, 64, 89
1, 157754, Control_c, 0, 64, 89
1, 157768, Control_c, 0, 64, 90
1, 157778, Note_on_c, 0, 74, 51
1, 157779, Note_on_c, 0, 66, 52
1, 157782, Control_c, 0, 64, 90
1, 157808, Note_off_c, 0, 66, 63
1, 157826, Control_c, 0, 64, 91
1, 157849, Note_off_c, 0, 74, 58
1, 157856, Control_c, 0, 64, 92
1, 157864, Note_on_c, 0, 72, 50
1, 157871, Control_c, 0, 64, 92
1, 157886, Control_c, 0, 64, 93
1, 157900, Control_c, 0, 64, 95
1, 157915, Control_c, 0, 64, 96
1, 157918, Note_off_c, 0, 72, 60
1, 157930, Control_c, 0, 64, 98
1, 157930, Control_c, 0, 67, 123
1, 157945, Control_c, 0, 64, 99
1, 157945, Control_c, 0, 67, 89
1, 157960, Control_c, 0, 64, 100
1, 157960, Control_c, 0, 67, 56
1, 157962, Note_on_c, 0, 69, 50
1, 157975, Control_c, 0, 64, 102
1, 157975, Control_c, 0, 67, 24
1, 157990, Control_c, 0, 64, 103
1, 157990, Control_c, 0, 67, 0
1, 157995, Note_off_c, 0, 69, 65
1, 158004, Control_c, 0, 64, 104
1, 158019, Control_c, 0, 64, 105
1, 158034, Control_c, 0, 64, 104
1, 158049, Control_c, 0, 64, 98
1, 158050, Note_on_c, 0, 47, 94
1, 158064, Control_c, 0, 64, 81
1, 158079, Control_c, 0, 64, 0
1, 158138, Control_c, 0, 64, 67
1, 158139, Note_on_c, 0, 50, 82
1, 158160, Control_c, 0, 64, 79
1, 158174, Control_c, 0, 64, 89
1, 158189, Control_c, 0, 64, 91
1, 158204, Control_c, 0, 64, 91
1, 158228, Note_on_c, 0, 55, 90
1, 158244, Note_off_c, 0, 50, 62
1, 158308, Control_c, 0, 64, 91
1, 158317, Note_off_c, 0, 47, 52
1, 158317, Note_on_c, 0, 50, 81
1, 158323, Control_c, 0, 64, 89
1, 158338, Note_on_c, 0, 59, 84
1, 158338, Control_c, 0, 64, 83
1, 158353, Control_c, 0, 64, 73
1, 158368, Control_c, 0, 64, 56
1, 158382, Control_c, 0, 64, 0
1, 158396, Note_off_c, 0, 55, 54
1, 158398, Note_on_c, 0, 47, 75
1, 158419, Note_on_c, 0, 62, 76
1, 158431, Note_off_c, 0, 59, 56
1, 158490, Note_on_c, 0, 43, 62
1, 158511, Note_off_c, 0, 62, 61
1, 158518, Note_on_c, 0, 67, 71
1, 158523, Note_off_c, 0, 47, 56
1, 158529, Note_off_c, 0, 50, 57
1, 158576, Control_c, 0, 67, 9
1, 158591, Control_c, 0, 67, 15
1, 158601, Note_off_c, 0, 67, 61
1, 158605, Control_c, 0, 67, 22
1, 158610, Note_on_c, 0, 62, 61
1, 158620, Control_c, 0, 67, 33
1, 158635, Control_c, 0, 67, 49
1, 158649, Control_c, 0, 67, 67
1, 158664, Control_c, 0, 67, 88
1, 158679, Note_off_c, 0, 62, 62
1, 158679, Control_c, 0, 67, 103
1, 158694, Control_c, 0, 67, 115
1, 158705, Note_on_c, 0, 59, 50
1, 158709, Control_c, 0, 64, 13
1, 158709, Control_c, 0, 67, 125
1, 158723, Control_c, 0, 64, 16
1, 158723, Control_c, 0, 67, 127
1, 158753, Control_c, 0, 64, 13
1, 158763, Note_off_c, 0, 59, 56
1, 158797, Control_c, 0, 64, 18
1, 158803, Note_on_c, 0, 55, 40
1, 158812, Control_c, 0, 64, 22
1, 158827, Control_c, 0, 64, 25
1, 158842, Control_c, 0, 64, 26
1, 158857, Control_c, 0, 64, 32
1, 158872, Control_c, 0, 64, 44
1, 158887, Control_c, 0, 64, 57
1, 158909, Control_c, 0, 64, 63
1, 158917, Note_on_c, 0, 65, 56
1, 158921, Note_off_c, 0, 55, 34
1, 158923, Note_on_c, 0, 50, 28
1, 158923, Control_c, 0, 64, 66
1, 158938, Control_c, 0, 64, 68
1, 158953, Control_c, 0, 64, 70
1, 158968, Control_c, 0, 64, 72
1, 158983, Control_c, 0, 64, 75
1, 158997, Control_c, 0, 64, 78
1, 159011, Note_on_c, 0, 59, 47
1, 159012, Control_c, 0, 64, 79
1, 159027, Control_c, 0, 64, 80
1, 159042, Control_c, 0, 64, 81
1, 159045, Note_off_c, 0, 65, 38
1, 159051, Note_off_c, 0, 59, 59
1, 159057, Control_c, 0, 64, 82
1, 159072, Control_c, 0, 64, 83
1, 159086, Control_c, 0, 64, 84
1, 159110, Note_on_c, 0, 55, 47
1, 159201, Note_on_c, 0, 65, 70
1, 159205, Control_c, 0, 64, 82
1, 159220, Control_c, 0, 64, 78
1, 159221, Note_on_c, 0, 47, 41
1, 159235, Control_c, 0, 64, 68
1, 159249, Control_c, 0, 64, 0
1, 159275, Note_off_c, 0, 43, 38
1, 159286, Note_off_c, 0, 55, 34
1, 159310, Control_c, 0, 64, 52
1, 159316, Note_on_c, 0, 62, 46
1, 159325, Control_c, 0, 64, 67
1, 159340, Control_c, 0, 64, 72
1, 159348, Note_off_c, 0, 50, 24
1, 159355, Control_c, 0, 64, 75
1, 159358, Note_off_c, 0, 62, 60
1, 159370, Control_c, 0, 64, 76
1, 159385, Control_c, 0, 64, 77
1, 159399, Control_c, 0, 64, 77
1, 159414, Control_c, 0, 64, 78
1, 159421, Note_on_c, 0, 55, 40
1, 159488, Control_c, 0, 64, 76
1, 159492, Note_off_c, 0, 47, 37
1, 159495, Note_on_c, 0, 43, 32
1, 159495, Note_on_c, 0, 63, 62
1, 159499, Note_off_c, 0, 65, 36
1, 159503, Control_c, 0, 64, 70
1, 159518, Control_c, 0, 64, 51
1, 159533, Control_c, 0, 64, 0
1, 159540, Note_off_c, 0, 55, 26
1, 159578, Note_off_c, 0, 63, 60
1, 159591, Note_on_c, 0, 62, 52
1, 159591, Control_c, 0, 64, 64
1, 159606, Control_c, 0, 64, 71
1, 159621, Control_c, 0, 64, 76
1, 159636, Control_c, 0, 64, 78
1, 159655, Note_off_c, 0, 62, 55
1, 159659, Control_c, 0, 64, 78
1, 159673, Control_c, 0, 64, 79
1, 159688, Control_c, 0, 64, 80
1, 159703, Control_c, 0, 64, 81
1, 159715, Note_on_c, 0, 55, 42
1, 159718, Control_c, 0, 64, 81
1, 159777, Control_c, 0, 64, 79
1, 159791, Note_on_c, 0, 63, 60
1, 159792, Control_c, 0, 64, 72
1, 159794, Note_on_c, 0, 48, 47
1, 159806, Control_c, 0, 64, 58
1, 159821, Control_c, 0, 64, 0
1, 159858, Note_off_c, 0, 55, 39
1, 159866, Control_c, 0, 64, 63
1, 159873, Note_off_c, 0, 63, 60
1, 159880, Control_c, 0, 64, 71
1, 159895, Control_c, 0, 64, 77
1, 159897, Note_on_c, 0, 60, 43
1, 159910, Control_c, 0, 64, 80
1, 159936, Note_off_c, 0, 60, 49
1, 159940, Control_c, 0, 64, 81
1, 159954, Control_c, 0, 64, 82
1, 159969, Control_c, 0, 64, 82
1, 159984, Control_c, 0, 64, 84
1, 159990, Note_on_c, 0, 55, 39
1, 159999, Control_c, 0, 64, 85
1, 160014, Control_c, 0, 64, 85
1, 160025, Note_off_c, 0, 55, 51
1, 160074, Control_c, 0, 64, 84
1, 160077, Note_on_c, 0, 54, 48
1, 160080, Note_on_c, 0, 62, 55
1, 160088, Control_c, 0, 64, 78
1, 160103, Control_c, 0, 64, 69
1, 160118, Control_c, 0, 64, 0
1, 160152, Note_off_c, 0, 48, 38
1, 160163, Control_c, 0, 64, 57
1, 160163, Note_off_c, 0, 62, 53
1, 160177, Control_c, 0, 64, 69
1, 160180, Note_on_c, 0, 60, 37
1, 160192, Control_c, 0, 64, 76
1, 160207, Control_c, 0, 64, 80
1, 160222, Control_c, 0, 64, 81
1, 160223, Note_off_c, 0, 60, 49
1, 160228, Note_off_c, 0, 54, 51
1, 160252, Control_c, 0, 64, 81
1, 160267, Control_c, 0, 64, 82
1, 160272, Note_on_c, 0, 57, 41
1, 160282, Control_c, 0, 64, 83
1, 160315, Note_off_c, 0, 57, 48
1, 160341, Control_c, 0, 64, 81
1, 160356, Control_c, 0, 64, 75
1, 160362, Note_on_c, 0, 55, 49
1, 160365, Note_on_c, 0, 62, 53
1, 160370, Control_c, 0, 64, 64
1, 160385, Control_c, 0, 64, 0
1, 160437, Control_c, 0, 64, 56
1, 160449, Note_off_c, 0, 55, 57
1, 160449, Note_off_c, 0, 62, 57
1, 160452, Control_c, 0, 64, 69
1, 160467, Control_c, 0, 64, 75
1, 160478, Note_on_c, 0, 59, 46
1, 160482, Control_c, 0, 64, 79
1, 160496, Control_c, 0, 64, 80
1, 160507, Note_off_c, 0, 59, 52
1, 160541, Control_c, 0, 64, 80
1, 160556, Control_c, 0, 64, 81
1, 160570, Control_c, 0, 64, 81
1, 160575, Note_on_c, 0, 55, 42
1, 160601, Note_off_c, 0, 55, 56
1, 160615, Control_c, 0, 64, 81
1, 160629, Control_c, 0, 64, 79
1, 160644, Control_c, 0, 64, 72
1, 160649, Note_on_c, 0, 48, 50
1, 160657, Note_on_c, 0, 60, 60
1, 160659, Control_c, 0, 64, 56
1, 160674, Control_c, 0, 64, 0
1, 160718, Control_c, 0, 64, 63
1, 160729, Note_off_c, 0, 60, 62
1, 160733, Control_c, 0, 64, 72
1, 160735, Note_off_c, 0, 48, 62
1, 160748, Control_c, 0, 64, 78
1, 160754, Note_on_c, 0, 55, 36
1, 160763, Control_c, 0, 64, 80
1, 160777, Control_c, 0, 64, 81
1, 160809, Note_off_c, 0, 43, 40
1, 160821, Control_c, 0, 64, 81
1, 160836, Control_c, 0, 64, 82
1, 160848, Note_on_c, 0, 51, 48
1, 160887, Note_off_c, 0, 51, 50
1, 160911, Control_c, 0, 64, 81
1, 160921, Note_off_c, 0, 55, 26
1, 160926, Control_c, 0, 64, 75
1, 160929, Note_on_c, 0, 43, 39
1, 160932, Note_on_c, 0, 59, 57
1, 160941, Control_c, 0, 64, 65
1, 160956, Control_c, 0, 64, 0
1, 161006, Note_off_c, 0, 59, 60
1, 161015, Control_c, 0, 64, 62
1, 161030, Control_c, 0, 64, 69
1, 161036, Note_on_c, 0, 55, 45
1, 161045, Control_c, 0, 64, 74
1, 161060, Control_c, 0, 64, 76
1, 161065, Note_off_c, 0, 55, 56
1, 161075, Control_c, 0, 64, 77
1, 161090, Control_c, 0, 64, 77
1, 161105, Control_c, 0, 64, 78
1, 161119, Control_c, 0, 64, 78
1, 161124, Note_on_c, 0, 50, 45
1, 161141, Control_c, 0, 64, 79
1, 161156, Control_c, 0, 64, 79
1, 161215, Control_c, 0, 64, 78
1, 161217, Note_off_c, 0, 43, 38
1, 161218, Note_off_c, 0, 50, 32
1, 161226, Note_on_c, 0, 36, 34
1, 161230, Control_c, 0, 64, 72
1, 161233, Note_on_c, 0, 57, 57
1, 161245, Control_c, 0, 64, 61
1, 161260, Control_c, 0, 64, 0
1, 161304, Control_c, 0, 64, 54
1, 161317, Note_off_c, 0, 57, 58
1, 161319, Control_c, 0, 64, 68
1, 161331, Note_on_c, 0, 51, 44
1, 161334, Control_c, 0, 64, 75
1, 161349, Control_c, 0, 64, 79
1, 161364, Control_c, 0, 64, 79
1, 161385, Note_off_c, 0, 51, 53
1, 161408, Control_c, 0, 64, 80
1, 161432, Note_on_c, 0, 48, 44
1, 161441, Note_off_c, 0, 36, 40
1, 161497, Control_c, 0, 64, 79
1, 161510, Note_off_c, 0, 48, 39
1, 161511, Control_c, 0, 64, 74
1, 161514, Note_on_c, 0, 31, 35
1, 161522, Note_on_c, 0, 55, 54
1, 161525, Control_c, 0, 64, 64
1, 161540, Control_c, 0, 64, 0
1, 161614, Control_c, 0, 64, 59
1, 161621, Note_on_c, 0, 50, 38
1, 161629, Control_c, 0, 64, 65
1, 161644, Control_c, 0, 64, 67
1, 161659, Control_c, 0, 64, 70
1, 161671, Note_off_c, 0, 50, 45
1, 161674, Control_c, 0, 64, 75
1, 161689, Control_c, 0, 64, 78
1, 161704, Control_c, 0, 64, 80
1, 161713, Note_on_c, 0, 47, 40
1, 161719, Control_c, 0, 64, 80
1, 161720, Note_off_c, 0, 55, 38
1, 161748, Control_c, 0, 64, 81
1, 161807, Note_on_c, 0, 54, 47
1, 161808, Note_on_c, 0, 36, 37
1, 161811, Note_off_c, 0, 31, 35
1, 161819, Note_off_c, 0, 47, 36
1, 161823, Control_c, 0, 64, 78
1, 161838, Control_c, 0, 64, 72
1, 161853, Control_c, 0, 64, 52
1, 161867, Control_c, 0, 64, 0
1, 161906, Note_off_c, 0, 54, 61
1, 161919, Control_c, 0, 64, 58
1, 161921, Note_on_c, 0, 51, 35
1, 161934, Control_c, 0, 64, 68
1, 161948, Control_c, 0, 64, 74
1, 161963, Control_c, 0, 64, 77
1, 161978, Control_c, 0, 64, 77
1, 161979, Note_off_c, 0, 51, 40
1, 162012, Note_on_c, 0, 45, 42
1, 162023, Control_c, 0, 64, 78
1, 162070, Note_off_c, 0, 45, 44
1, 162112, Control_c, 0, 64, 77
1, 162119, Note_on_c, 0, 55, 48
1, 162127, Control_c, 0, 64, 74
1, 162130, Note_on_c, 0, 31, 35
1, 162141, Note_off_c, 0, 36, 37
1, 162141, Control_c, 0, 64, 66
1, 162156, Control_c, 0, 64, 0
1, 162215, Control_c, 0, 64, 57
1, 162224, Note_off_c, 0, 55, 52
1, 162230, Control_c, 0, 64, 68
1, 162245, Control_c, 0, 64, 73
1, 162261, Control_c, 0, 64, 75
1, 162273, Poly_aftertouch_c, 0, 50, 127
1, 162290, Control_c, 0, 64, 76
1, 162305, Control_c, 0, 64, 76
1, 162319, Poly_aftertouch_c, 0, 50, 0
1, 162320, Control_c, 0, 64, 77
1, 162335, Control_c, 0, 64, 78
1, 162336, Note_on_c, 0, 47, 36
1, 162349, Control_c, 0, 64, 79
1, 162393, Control_c, 0, 64, 79
1, 162443, Note_off_c, 0, 47, 32
1, 162446, Note_on_c, 0, 54, 50
1, 162469, Control_c, 0, 64, 79
1, 162478, Note_on_c, 0, 36, 32
1, 162484, Control_c, 0, 64, 77
1, 162498, Control_c, 0, 64, 71
1, 162510, Note_off_c, 0, 31, 26
1, 162513, Control_c, 0, 64, 60
1, 162528, Control_c, 0, 64, 0
1, 162572, Control_c, 0, 64, 54
1, 162587, Control_c, 0, 64, 68
1, 162602, Control_c, 0, 64, 74
1, 162603, Note_off_c, 0, 54, 59
1, 162616, Control_c, 0, 64, 77
1, 162622, Note_on_c, 0, 51, 20
1, 162631, Control_c, 0, 64, 78
1, 162669, Control_c, 0, 64, 79
1, 162684, Control_c, 0, 64, 79
1, 162698, Control_c, 0, 64, 81
1, 162713, Control_c, 0, 64, 82
1, 162724, Note_on_c, 0, 45, 45
1, 162728, Control_c, 0, 64, 82
1, 162743, Control_c, 0, 64, 83
1, 162772, Control_c, 0, 64, 83
1, 162780, Note_off_c, 0, 45, 56
1, 162812, Note_off_c, 0, 36, 38
1, 162833, Note_off_c, 0, 51, 16
1, 162947, Note_on_c, 0, 31, 34
1, 162980, Control_c, 0, 64, 83
1, 162994, Control_c, 0, 64, 80
1, 163009, Control_c, 0, 64, 73
1, 163010, Note_on_c, 0, 47, 49
1, 163015, Note_on_c, 0, 55, 47
1, 163021, Note_on_c, 0, 50, 37
1, 163024, Control_c, 0, 64, 64
1, 163039, Control_c, 0, 64, 0
1, 163143, Poly_aftertouch_c, 0, 36, 127
1, 163162, Note_off_c, 0, 31, 32
1, 163194, Note_on_c, 0, 35, 34
1, 163195, Poly_aftertouch_c, 0, 36, 0
1, 163233, Note_off_c, 0, 35, 49
1, 163244, Note_on_c, 0, 33, 52
1, 163313, Note_off_c, 0, 33, 58
1, 163331, Note_on_c, 0, 31, 55
1, 163402, Note_off_c, 0, 31, 54
1, 163409, Note_on_c, 0, 36, 42
1, 163457, Note_off_c, 0, 36, 57
1, 163471, Note_on_c, 0, 35, 45
1, 163511, Note_off_c, 0, 35, 59
1, 163531, Note_on_c, 0, 33, 45
1, 163594, Note_off_c, 0, 33, 60
1, 163603, Note_on_c, 0, 31, 56
1, 163656, Note_off_c, 0, 31, 55
1, 163671, Note_on_c, 0, 36, 43
1, 163713, Note_off_c, 0, 36, 59
1, 163739, Note_on_c, 0, 35, 39
1, 163772, Note_off_c, 0, 35, 58
1, 163805, Note_on_c, 0, 33, 40
1, 163856, Note_off_c, 0, 33, 59
1, 163864, Note_on_c, 0, 31, 53
1, 163925, Note_off_c, 0, 31, 54
1, 163930, Note_on_c, 0, 36, 34
1, 163966, Note_off_c, 0, 36, 55
1, 163990, Note_on_c, 0, 35, 38
1, 164029, Note_off_c, 0, 35, 57
1, 164059, Note_on_c, 0, 33, 46
1, 164102, Note_off_c, 0, 50, 47
1, 164109, Note_off_c, 0, 33, 59
1, 164110, Note_off_c, 0, 47, 45
1, 164148, Note_on_c, 0, 31, 52
1, 164192, Note_off_c, 0, 55, 34
1, 164229, Note_on_c, 0, 50, 48
1, 164273, Note_off_c, 0, 50, 60
1, 164317, Note_on_c, 0, 52, 46
1, 164353, Note_off_c, 0, 52, 56
1, 164368, Note_on_c, 0, 54, 41
1, 164410, Note_on_c, 0, 55, 60
1, 164413, Note_off_c, 0, 54, 59
1, 164470, Note_off_c, 0, 55, 60
1, 164499, Note_on_c, 0, 50, 53
1, 164568, Note_off_c, 0, 50, 57
1, 164582, Note_on_c, 0, 52, 45
1, 164622, Note_off_c, 0, 52, 56
1, 164633, Note_on_c, 0, 54, 54
1, 164682, Note_on_c, 0, 55, 60
1, 164692, Note_off_c, 0, 54, 55
1, 164741, Note_off_c, 0, 55, 59
1, 164753, Note_on_c, 0, 50, 56
1, 164827, Note_off_c, 0, 50, 55
1, 164843, Note_on_c, 0, 52, 49
1, 164903, Note_on_c, 0, 54, 54
1, 164907, Note_off_c, 0, 52, 55
1, 164959, Note_on_c, 0, 55, 52
1, 164967, Note_off_c, 0, 54, 55
1, 165014, Note_off_c, 0, 55, 59
1, 165030, Note_on_c, 0, 50, 52
1, 165116, Note_on_c, 0, 52, 48
1, 165122, Note_off_c, 0, 50, 51
1, 165165, Note_on_c, 0, 54, 57
1, 165170, Note_off_c, 0, 52, 61
1, 165228, Note_on_c, 0, 55, 49
1, 165233, Note_off_c, 0, 54, 59
1, 165314, Note_on_c, 0, 36, 20
1, 165369, Note_on_c, 0, 35, 47
1, 165373, Note_off_c, 0, 36, 43
1, 165373, Note_off_c, 0, 31, 38
1, 165441, Note_on_c, 0, 33, 53
1, 165445, Note_off_c, 0, 35, 46
1, 165505, Note_on_c, 0, 31, 53
1, 165516, Note_off_c, 0, 33, 58
1, 165605, Note_on_c, 0, 36, 26
1, 165641, Note_off_c, 0, 31, 34
1, 165653, Note_off_c, 0, 36, 48
1, 165686, Note_on_c, 0, 35, 7
1, 165706, Note_on_c, 0, 33, 53
1, 165735, Note_off_c, 0, 35, 35
1, 165765, Note_on_c, 0, 31, 52
1, 165771, Note_off_c, 0, 33, 57
1, 165848, Note_on_c, 0, 36, 38
1, 165852, Note_off_c, 0, 31, 50
1, 165882, Note_off_c, 0, 36, 59
1, 165920, Note_on_c, 0, 35, 34
1, 165957, Note_off_c, 0, 35, 56
1, 165972, Note_on_c, 0, 33, 53
1, 166025, Note_on_c, 0, 31, 56
1, 166025, Note_off_c, 0, 33, 56
1, 166098, Note_off_c, 0, 31, 46
1, 166109, Note_on_c, 0, 36, 38
1, 166143, Note_off_c, 0, 36, 48
1, 166161, Note_on_c, 0, 35, 47
1, 166202, Note_off_c, 0, 35, 62
1, 166223, Note_on_c, 0, 33, 50
1, 166270, Note_off_c, 0, 33, 62
1, 166298, Note_on_c, 0, 31, 53
1, 166330, Note_off_c, 0, 55, 61
1, 166368, Note_on_c, 0, 54, 37
1, 166417, Note_off_c, 0, 54, 50
1, 166456, Note_on_c, 0, 55, 49
1, 166500, Note_on_c, 0, 57, 47
1, 166506, Note_off_c, 0, 55, 55
1, 166557, Note_on_c, 0, 59, 52
1, 166583, Note_off_c, 0, 57, 55
1, 166622, Note_on_c, 0, 54, 56
1, 166658, Note_off_c, 0, 59, 32
1, 166668, Note_off_c, 0, 54, 57
1, 166688, Note_on_c, 0, 55, 54
1, 166744, Note_on_c, 0, 57, 48
1, 166745, Note_off_c, 0, 55, 55
1, 166810, Note_on_c, 0, 59, 60
1, 166813, Note_off_c, 0, 57, 61
1, 166867, Note_off_c, 0, 59, 58
1, 166873, Note_on_c, 0, 54, 59
1, 166932, Note_off_c, 0, 54, 58
1, 166948, Note_on_c, 0, 55, 56
1, 166993, Note_off_c, 0, 55, 60
1, 167010, Note_on_c, 0, 57, 51
1, 167062, Note_off_c, 0, 57, 59
1, 167066, Note_on_c, 0, 59, 53
1, 167136, Note_off_c, 0, 59, 50
1, 167143, Note_on_c, 0, 54, 58
1, 167190, Note_off_c, 0, 54, 59
1, 167211, Note_on_c, 0, 55, 53
1, 167261, Note_off_c, 0, 55, 57
1, 167266, Note_on_c, 0, 57, 44
1, 167320, Note_off_c, 0, 57, 61
1, 167332, Note_on_c, 0, 59, 52
1, 167419, Note_on_c, 0, 36, 31
1, 167473, Note_off_c, 0, 31, 41
1, 167475, Note_off_c, 0, 36, 52
1, 167488, Note_on_c, 0, 35, 32
1, 167519, Note_on_c, 0, 33, 55
1, 167526, Note_off_c, 0, 35, 48
1, 167570, Note_off_c, 0, 59, 42
1, 167588, Note_on_c, 0, 31, 55
1, 167588, Note_off_c, 0, 33, 61
1, 167656, Note_on_c, 0, 36, 44
1, 167692, Note_off_c, 0, 36, 63
1, 167695, Note_off_c, 0, 31, 35
1, 167727, Note_on_c, 0, 35, 42
1, 167767, Note_off_c, 0, 35, 60
1, 167784, Note_on_c, 0, 33, 54
1, 167794, Note_on_c, 0, 60, 58
1, 167827, Note_off_c, 0, 60, 61
1, 167846, Note_off_c, 0, 33, 56
1, 167852, Note_on_c, 0, 31, 49
1, 167854, Note_on_c, 0, 62, 61
1, 167904, Note_off_c, 0, 62, 62
1, 167921, Note_on_c, 0, 36, 51
1, 167925, Note_off_c, 0, 31, 55
1, 167964, Note_off_c, 0, 36, 61
1, 167997, Note_on_c, 0, 35, 44
1, 168035, Note_off_c, 0, 35, 61
1, 168058, Note_on_c, 0, 33, 52
1, 168111, Note_off_c, 0, 33, 61
1, 168118, Note_on_c, 0, 31, 57
1, 168163, Note_on_c, 0, 36, 52
1, 168176, Note_off_c, 0, 31, 51
1, 168202, Note_off_c, 0, 36, 63
1, 168220, Note_on_c, 0, 35, 46
1, 168250, Note_on_c, 0, 62, 48
1, 168283, Note_off_c, 0, 62, 55
1, 168286, Note_off_c, 0, 35, 58
1, 168294, Note_on_c, 0, 64, 55
1, 168297, Note_on_c, 0, 33, 60
1, 168322, Note_on_c, 0, 66, 62
1, 168354, Note_off_c, 0, 64, 49
1, 168362, Note_off_c, 0, 33, 58
1, 168374, Note_on_c, 0, 31, 58
1, 168376, Note_off_c, 0, 66, 66
1, 168380, Note_on_c, 0, 67, 54
1, 168428, Note_off_c, 0, 67, 62
1, 168431, Note_on_c, 0, 36, 51
1, 168455, Note_off_c, 0, 31, 52
1, 168475, Note_off_c, 0, 36, 58
1, 168486, Note_on_c, 0, 35, 52
1, 168541, Note_off_c, 0, 35, 61
1, 168557, Note_on_c, 0, 33, 58
1, 168629, Note_off_c, 0, 33, 60
1, 168630, Note_on_c, 0, 31, 62
1, 168696, Note_on_c, 0, 36, 47
1, 168711, Note_off_c, 0, 31, 51
1, 168741, Note_off_c, 0, 36, 58
1, 168760, Note_on_c, 0, 35, 48
1, 168791, Note_on_c, 0, 67, 49
1, 168805, Note_off_c, 0, 35, 60
1, 168822, Note_off_c, 0, 67, 55
1, 168826, Note_on_c, 0, 33, 59
1, 168836, Note_on_c, 0, 69, 60
1, 168864, Note_off_c, 0, 69, 66
1, 168876, Note_on_c, 0, 71, 64
1, 168896, Note_on_c, 0, 31, 47
1, 168905, Note_off_c, 0, 33, 57
1, 168906, Note_off_c, 0, 71, 62
1, 168960, Note_on_c, 0, 36, 47
1, 169019, Note_off_c, 0, 36, 60
1, 169028, Note_on_c, 0, 35, 57
1, 169041, Note_on_c, 0, 71, 55
1, 169064, Note_off_c, 0, 31, 37
1, 169075, Note_off_c, 0, 35, 63
1, 169080, Note_off_c, 0, 71, 62
1, 169084, Note_on_c, 0, 72, 65
1, 169089, Note_on_c, 0, 33, 60
1, 169114, Note_off_c, 0, 72, 65
1, 169123, Note_on_c, 0, 74, 57
1, 169152, Note_off_c, 0, 74, 67
1, 169160, Note_off_c, 0, 33, 60
1, 169162, Note_on_c, 0, 31, 60
1, 169208, Note_on_c, 0, 36, 51
1, 169267, Note_on_c, 0, 74, 50
1, 169272, Note_off_c, 0, 36, 59
1, 169287, Note_on_c, 0, 35, 52
1, 169299, Note_on_c, 0, 76, 58
1, 169312, Note_off_c, 0, 74, 47
1, 169329, Note_off_c, 0, 35, 63
1, 169331, Note_off_c, 0, 31, 33
1, 169341, Note_on_c, 0, 78, 65
1, 169345, Note_on_c, 0, 33, 63
1, 169369, Note_off_c, 0, 76, 60
1, 169388, Note_on_c, 0, 79, 66
1, 169395, Note_off_c, 0, 78, 64
1, 169421, Control_c, 0, 64, 13
1, 169428, Note_off_c, 0, 33, 60
1, 169431, Note_off_c, 0, 79, 64
1, 169436, Control_c, 0, 64, 39
1, 169442, Note_on_c, 0, 31, 52
1, 169451, Control_c, 0, 64, 47
1, 169466, Control_c, 0, 64, 50
1, 169481, Note_on_c, 0, 36, 43
1, 169481, Control_c, 0, 64, 51
1, 169496, Control_c, 0, 64, 52
1, 169511, Control_c, 0, 64, 54
1, 169518, Note_off_c, 0, 31, 51
1, 169526, Control_c, 0, 64, 56
1, 169540, Control_c, 0, 64, 57
1, 169545, Note_off_c, 0, 36, 58
1, 169548, Note_on_c, 0, 35, 57
1, 169555, Control_c, 0, 64, 58
1, 169570, Control_c, 0, 64, 58
1, 169601, Note_off_c, 0, 35, 60
1, 169614, Control_c, 0, 64, 57
1, 169615, Note_on_c, 0, 33, 62
1, 169629, Control_c, 0, 64, 55
1, 169644, Control_c, 0, 64, 51
1, 169660, Control_c, 0, 64, 47
1, 169662, Note_on_c, 0, 31, 53
1, 169675, Control_c, 0, 64, 45
1, 169689, Note_off_c, 0, 33, 54
1, 169689, Control_c, 0, 64, 44
1, 169704, Control_c, 0, 64, 43
1, 169719, Control_c, 0, 64, 39
1, 169719, Note_on_c, 0, 36, 53
1, 169734, Control_c, 0, 64, 35
1, 169749, Control_c, 0, 64, 33
1, 169763, Control_c, 0, 64, 32
1, 169773, Note_off_c, 0, 36, 61
1, 169778, Control_c, 0, 64, 30
1, 169793, Control_c, 0, 64, 0
1, 169800, Note_on_c, 0, 35, 56
1, 169806, Note_off_c, 0, 31, 37
1, 169812, Note_on_c, 0, 62, 44
1, 169845, Note_on_c, 0, 64, 60
1, 169846, Note_off_c, 0, 62, 54
1, 169856, Note_off_c, 0, 35, 62
1, 169869, Note_on_c, 0, 66, 64
1, 169871, Note_on_c, 0, 33, 55
1, 169895, Note_off_c, 0, 64, 58
1, 169901, Note_off_c, 0, 66, 68
1, 169917, Note_on_c, 0, 67, 67
1, 169928, Note_on_c, 0, 31, 54
1, 169941, Control_c, 0, 64, 47
1, 169943, Note_off_c, 0, 33, 56
1, 169955, Control_c, 0, 64, 62
1, 169970, Control_c, 0, 64, 64
1, 169973, Note_off_c, 0, 67, 63
1, 169997, Note_on_c, 0, 36, 49
1, 170029, Control_c, 0, 64, 65
1, 170053, Note_off_c, 0, 36, 59
1, 170056, Note_off_c, 0, 31, 37
1, 170061, Note_on_c, 0, 35, 55
1, 170112, Note_off_c, 0, 35, 63
1, 170119, Control_c, 0, 64, 64
1, 170120, Note_on_c, 0, 33, 59
1, 170141, Control_c, 0, 64, 63
1, 170155, Control_c, 0, 64, 52
1, 170170, Control_c, 0, 64, 0
1, 170181, Note_on_c, 0, 31, 63
1, 170198, Note_off_c, 0, 33, 59
1, 170243, Note_on_c, 0, 36, 56
1, 170286, Note_off_c, 0, 31, 43
1, 170303, Note_off_c, 0, 36, 61
1, 170314, Note_on_c, 0, 35, 58
1, 170342, Note_on_c, 0, 67, 64
1, 170378, Note_on_c, 0, 33, 54
1, 170378, Note_off_c, 0, 35, 57
1, 170381, Note_off_c, 0, 67, 60
1, 170382, Note_on_c, 0, 69, 69
1, 170432, Note_off_c, 0, 69, 56
1, 170437, Note_on_c, 0, 31, 57
1, 170438, Note_on_c, 0, 71, 75
1, 170456, Note_off_c, 0, 33, 48
1, 170468, Control_c, 0, 64, 54
1, 170478, Note_off_c, 0, 71, 62
1, 170482, Control_c, 0, 64, 63
1, 170497, Control_c, 0, 64, 64
1, 170503, Note_on_c, 0, 36, 56
1, 170512, Control_c, 0, 64, 64
1, 170527, Control_c, 0, 64, 65
1, 170542, Control_c, 0, 64, 65
1, 170557, Control_c, 0, 64, 66
1, 170565, Note_off_c, 0, 36, 61
1, 170566, Note_off_c, 0, 31, 41
1, 170572, Control_c, 0, 64, 67
1, 170573, Note_on_c, 0, 35, 62
1, 170586, Control_c, 0, 64, 68
1, 170635, Note_off_c, 0, 35, 61
1, 170643, Note_on_c, 0, 33, 57
1, 170645, Control_c, 0, 64, 67
1, 170660, Control_c, 0, 64, 63
1, 170675, Control_c, 0, 64, 42
1, 170690, Control_c, 0, 64, 0
1, 170695, Note_on_c, 0, 31, 65
1, 170721, Note_off_c, 0, 33, 56
1, 170750, Note_on_c, 0, 36, 59
1, 170813, Note_off_c, 0, 36, 62
1, 170816, Note_off_c, 0, 31, 31
1, 170822, Note_on_c, 0, 35, 63
1, 170840, Note_on_c, 0, 71, 61
1, 170890, Note_off_c, 0, 71, 60
1, 170894, Note_on_c, 0, 72, 64
1, 170898, Note_off_c, 0, 35, 62
1, 170905, Note_on_c, 0, 33, 58
1, 170923, Note_off_c, 0, 72, 65
1, 170942, Note_on_c, 0, 74, 61
1, 170968, Note_on_c, 0, 31, 63
1, 170970, Note_off_c, 0, 74, 66
1, 170984, Note_off_c, 0, 33, 56
1, 170993, Control_c, 0, 67, 110
1, 171008, Control_c, 0, 67, 59
1, 171023, Control_c, 0, 67, 14
1, 171029, Note_on_c, 0, 36, 58
1, 171037, Control_c, 0, 67, 0
1, 171087, Note_off_c, 0, 31, 37
1, 171088, Note_on_c, 0, 74, 54
1, 171098, Note_on_c, 0, 35, 65
1, 171108, Note_off_c, 0, 36, 55
1, 171111, Note_off_c, 0, 74, 63
1, 171125, Note_on_c, 0, 76, 62
1, 171157, Note_off_c, 0, 35, 60
1, 171162, Note_on_c, 0, 78, 70
1, 171168, Note_on_c, 0, 33, 62
1, 171173, Note_off_c, 0, 76, 64
1, 171201, Note_on_c, 0, 79, 60
1, 171216, Note_off_c, 0, 78, 63
1, 171228, Note_on_c, 0, 31, 59
1, 171239, Note_off_c, 0, 79, 62
1, 171303, Note_on_c, 0, 36, 56
1, 171308, Note_off_c, 0, 33, 33
1, 171343, Note_on_c, 0, 79, 54
1, 171359, Note_on_c, 0, 35, 62
1, 171362, Note_off_c, 0, 31, 52
1, 171365, Note_off_c, 0, 36, 56
1, 171369, Note_off_c, 0, 79, 57
1, 171380, Note_on_c, 0, 81, 79
1, 171417, Note_off_c, 0, 35, 62
1, 171424, Control_c, 0, 64, 62
1, 171431, Note_on_c, 0, 33, 62
1, 171433, Note_off_c, 0, 81, 62
1, 171433, Note_on_c, 0, 83, 76
1, 171439, Control_c, 0, 64, 67
1, 171453, Control_c, 0, 64, 70
1, 171468, Control_c, 0, 64, 72
1, 171469, Note_off_c, 0, 83, 61
1, 171483, Control_c, 0, 64, 73
1, 171487, Note_on_c, 0, 31, 61
1, 171498, Control_c, 0, 64, 76
1, 171511, Note_off_c, 0, 33, 55
1, 171513, Control_c, 0, 64, 78
1, 171527, Control_c, 0, 64, 78
1, 171536, Note_on_c, 0, 36, 60
1, 171542, Control_c, 0, 64, 79
1, 171594, Note_off_c, 0, 31, 55
1, 171609, Note_on_c, 0, 35, 64
1, 171616, Note_off_c, 0, 36, 54
1, 171668, Note_off_c, 0, 35, 62
1, 171668, Control_c, 0, 64, 78
1, 171681, Note_on_c, 0, 33, 60
1, 171683, Control_c, 0, 64, 73
1, 171698, Control_c, 0, 64, 63
1, 171713, Control_c, 0, 64, 0
1, 171729, Note_on_c, 0, 31, 61
1, 171745, Note_off_c, 0, 33, 59
1, 171779, Note_on_c, 0, 36, 58
1, 171830, Note_off_c, 0, 31, 57
1, 171842, Note_off_c, 0, 36, 61
1, 171847, Note_on_c, 0, 35, 62
1, 171856, Note_on_c, 0, 74, 61
1, 171893, Note_off_c, 0, 74, 61
1, 171903, Note_on_c, 0, 76, 62
1, 171919, Note_on_c, 0, 33, 54
1, 171931, Note_on_c, 0, 78, 70
1, 171940, Note_off_c, 0, 35, 51
1, 171969, Note_off_c, 0, 76, 59
1, 171972, Note_off_c, 0, 78, 66
1, 171980, Note_on_c, 0, 31, 50
1, 171985, Note_on_c, 0, 79, 80
1, 172004, Note_off_c, 0, 33, 48
1, 172009, Control_c, 0, 64, 34
1, 172024, Control_c, 0, 64, 69
1, 172035, Note_off_c, 0, 79, 65
1, 172039, Control_c, 0, 64, 73
1, 172055, Control_c, 0, 64, 75
1, 172070, Control_c, 0, 64, 76
1, 172074, Note_on_c, 0, 36, 60
1, 172084, Control_c, 0, 64, 78
1, 172099, Control_c, 0, 64, 81
1, 172114, Control_c, 0, 64, 84
1, 172129, Control_c, 0, 64, 86
1, 172143, Control_c, 0, 64, 87
1, 172154, Note_on_c, 0, 35, 66
1, 172157, Note_off_c, 0, 36, 54
1, 172158, Control_c, 0, 64, 88
1, 172173, Control_c, 0, 64, 88
1, 172175, Note_off_c, 0, 31, 38
1, 172218, Note_on_c, 0, 33, 69
1, 172220, Note_off_c, 0, 35, 63
1, 172232, Control_c, 0, 64, 87
1, 172247, Control_c, 0, 64, 82
1, 172262, Control_c, 0, 64, 71
1, 172271, Note_on_c, 0, 31, 70
1, 172277, Control_c, 0, 64, 0
1, 172289, Note_off_c, 0, 33, 60
1, 172331, Note_on_c, 0, 36, 62
1, 172392, Note_on_c, 0, 79, 64
1, 172411, Note_on_c, 0, 35, 67
1, 172411, Note_off_c, 0, 31, 62
1, 172432, Note_off_c, 0, 36, 42
1, 172436, Note_off_c, 0, 79, 56
1, 172444, Note_on_c, 0, 81, 77
1, 172493, Note_on_c, 0, 33, 65
1, 172498, Note_on_c, 0, 83, 82
1, 172500, Note_off_c, 0, 81, 57
1, 172502, Note_off_c, 0, 35, 54
1, 172551, Control_c, 0, 64, 70
1, 172551, Note_on_c, 0, 31, 69
1, 172555, Note_off_c, 0, 83, 62
1, 172566, Control_c, 0, 64, 79
1, 172581, Control_c, 0, 64, 84
1, 172596, Control_c, 0, 64, 85
1, 172610, Control_c, 0, 64, 86
1, 172611, Note_on_c, 0, 36, 64
1, 172625, Control_c, 0, 64, 88
1, 172640, Control_c, 0, 64, 92
1, 172647, Note_off_c, 0, 33, 39
1, 172655, Control_c, 0, 64, 96
1, 172670, Note_off_c, 0, 31, 56
1, 172670, Control_c, 0, 64, 100
1, 172675, Note_on_c, 0, 35, 73
1, 172684, Control_c, 0, 64, 102
1, 172696, Note_off_c, 0, 36, 62
1, 172699, Control_c, 0, 64, 103
1, 172714, Control_c, 0, 64, 104
1, 172728, Control_c, 0, 64, 104
1, 172744, Note_on_c, 0, 33, 69
1, 172773, Control_c, 0, 64, 104
1, 172788, Control_c, 0, 64, 98
1, 172798, Note_on_c, 0, 31, 73
1, 172798, Note_off_c, 0, 35, 42
1, 172802, Control_c, 0, 64, 86
1, 172817, Control_c, 0, 64, 69
1, 172832, Control_c, 0, 64, 0
1, 172863, Note_on_c, 0, 36, 68
1, 172909, Note_off_c, 0, 33, 34
1, 172913, Note_on_c, 0, 79, 56
1, 172931, Note_on_c, 0, 35, 70
1, 172937, Note_off_c, 0, 31, 39
1, 172956, Note_off_c, 0, 36, 53
1, 172966, Note_on_c, 0, 81, 74
1, 172966, Note_off_c, 0, 79, 50
1, 172995, Note_on_c, 0, 33, 68
1, 173014, Note_off_c, 0, 81, 60
1, 173016, Note_off_c, 0, 35, 61
1, 173024, Note_on_c, 0, 83, 70
1, 173055, Note_off_c, 0, 83, 58
1, 173067, Note_on_c, 0, 31, 73
1, 173140, Note_on_c, 0, 36, 61
1, 173178, Note_on_c, 0, 83, 56
1, 173180, Note_off_c, 0, 33, 30
1, 173192, Note_off_c, 0, 31, 57
1, 173195, Note_on_c, 0, 35, 72
1, 173214, Note_on_c, 0, 84, 75
1, 173215, Note_off_c, 0, 83, 63
1, 173256, Note_off_c, 0, 36, 38
1, 173261, Note_on_c, 0, 33, 76
1, 173273, Note_on_c, 0, 86, 76
1, 173273, Note_off_c, 0, 84, 65
1, 173286, Note_off_c, 0, 35, 58
1, 173299, Control_c, 0, 64, 61
1, 173308, Note_off_c, 0, 86, 64
1, 173314, Control_c, 0, 64, 0
1, 173317, Note_on_c, 0, 31, 71
1, 173357, Note_off_c, 0, 33, 57
1, 173365, Note_on_c, 0, 36, 72
1, 173426, Note_on_c, 0, 86, 66
1, 173441, Note_on_c, 0, 35, 77
1, 173447, Note_off_c, 0, 31, 61
1, 173466, Note_off_c, 0, 36, 62
1, 173474, Note_on_c, 0, 88, 78
1, 173481, Note_off_c, 0, 86, 64
1, 173510, Note_on_c, 0, 33, 81
1, 173523, Note_on_c, 0, 89, 100
1, 173533, Note_off_c, 0, 88, 66
1, 173537, Note_off_c, 0, 35, 53
1, 173537, Control_c, 0, 64, 66
1, 173551, Control_c, 0, 64, 89
1, 173566, Control_c, 0, 64, 100
1, 173577, Note_on_c, 0, 31, 72
1, 173581, Control_c, 0, 64, 103
1, 173596, Control_c, 0, 64, 104
1, 173611, Control_c, 0, 64, 107
1, 173625, Control_c, 0, 64, 114
1, 173640, Control_c, 0, 64, 122
1, 173642, Note_on_c, 0, 36, 67
1, 173656, Control_c, 0, 64, 127
1, 173707, Note_on_c, 0, 35, 70
1, 173711, Note_off_c, 0, 33, 59
1, 173717, Note_off_c, 0, 31, 61
1, 173732, Note_off_c, 0, 36, 63
1, 173766, Note_on_c, 0, 33, 60
1, 173769, Note_off_c, 0, 89, 59
1, 173842, Note_on_c, 0, 31, 72
1, 173883, Note_off_c, 0, 35, 0
1, 173905, Poly_aftertouch_c, 0, 35, 0
1, 173919, Note_on_c, 0, 86, 70
1, 173958, Note_off_c, 0, 31, 48
1, 173959, Note_on_c, 0, 35, 42
1, 173964, Note_off_c, 0, 33, 0
1, 173966, Note_on_c, 0, 36, 27
1, 173973, Note_on_c, 0, 88, 79
1, 173984, Note_off_c, 0, 86, 57
1, 173994, Note_off_c, 0, 36, 58
1, 174001, Note_off_c, 0, 35, 0
1, 174001, Note_on_c, 0, 35, 13
1, 174001, Poly_aftertouch_c, 0, 33, 127
1, 174034, Control_c, 0, 64, 125
1, 174036, Note_on_c, 0, 89, 99
1, 174048, Control_c, 0, 64, 87
1, 174049, Note_on_c, 0, 31, 67
1, 174054, Note_off_c, 0, 88, 57
1, 174057, Poly_aftertouch_c, 0, 33, 0
1, 174063, Control_c, 0, 64, 53
1, 174078, Note_off_c, 0, 35, 0
1, 174078, Control_c, 0, 64, 0
1, 174108, Control_c, 0, 64, 63
1, 174112, Note_on_c, 0, 35, 11
1, 174122, Control_c, 0, 64, 80
1, 174134, Note_on_c, 0, 33, 50
1, 174134, Note_on_c, 0, 37, 75
1, 174137, Control_c, 0, 64, 100
1, 174142, Note_off_c, 0, 31, 62
1, 174146, Note_on_c, 0, 32, 6
1, 174152, Control_c, 0, 64, 119
1, 174167, Control_c, 0, 64, 123
1, 174183, Note_off_c, 0, 33, 61
1, 174186, Note_off_c, 0, 32, 53
1, 174192, Note_off_c, 0, 89, 63
1, 174197, Note_off_c, 0, 35, 0
1, 174197, Note_on_c, 0, 35, 3
1, 174197, Control_c, 0, 64, 125
1, 174212, Note_off_c, 0, 37, 58
1, 174212, Control_c, 0, 64, 127
1, 174271, Note_on_c, 0, 33, 61
1, 174282, Note_on_c, 0, 31, 70
1, 174312, Note_on_c, 0, 32, 19
1, 174361, Note_on_c, 0, 37, 70
1, 174366, Note_off_c, 0, 31, 62
1, 174398, Note_off_c, 0, 35, 38
1, 174399, Note_off_c, 0, 33, 57
1, 174419, Note_off_c, 0, 32, 32
1, 174423, Note_on_c, 0, 86, 68
1, 174432, Note_on_c, 0, 35, 53
1, 174448, Note_off_c, 0, 37, 63
1, 174462, Note_on_c, 0, 88, 84
1, 174480, Note_off_c, 0, 86, 62
1, 174510, Note_off_c, 0, 88, 66
1, 174515, Note_on_c, 0, 89, 81
1, 174525, Note_on_c, 0, 31, 86
1, 174553, Control_c, 0, 64, 97
1, 174560, Note_off_c, 0, 35, 53
1, 174568, Control_c, 0, 64, 72
1, 174583, Control_c, 0, 64, 0
1, 174587, Note_off_c, 0, 89, 62
1, 174594, Note_on_c, 0, 38, 78
1, 174612, Control_c, 0, 64, 59
1, 174635, Control_c, 0, 64, 75
1, 174650, Control_c, 0, 64, 88
1, 174665, Control_c, 0, 64, 97
1, 174678, Note_on_c, 0, 35, 83
1, 174679, Control_c, 0, 64, 98
1, 174686, Note_off_c, 0, 31, 62
1, 174694, Control_c, 0, 64, 99
1, 174700, Note_on_c, 0, 86, 75
1, 174709, Control_c, 0, 64, 100
1, 174724, Control_c, 0, 64, 103
1, 174726, Note_on_c, 0, 88, 73
1, 174739, Control_c, 0, 64, 106
1, 174751, Note_off_c, 0, 86, 62
1, 174753, Control_c, 0, 64, 110
1, 174756, Note_on_c, 0, 33, 71
1, 174766, Note_off_c, 0, 38, 58
1, 174768, Control_c, 0, 64, 114
1, 174783, Control_c, 0, 64, 116
1, 174788, Note_on_c, 0, 89, 91
1, 174795, Note_off_c, 0, 88, 64
1, 174797, Control_c, 0, 64, 119
1, 174812, Control_c, 0, 64, 123
1, 174816, Note_on_c, 0, 31, 82
1, 174825, Note_off_c, 0, 35, 59
1, 174827, Control_c, 0, 64, 127
1, 174854, Note_off_c, 0, 33, 63
1, 174861, Note_off_c, 0, 89, 60
1, 174871, Note_on_c, 0, 38, 77
1, 174933, Note_on_c, 0, 35, 81
1, 174943, Note_off_c, 0, 31, 62
1, 174952, Note_on_c, 0, 86, 76
1, 174978, Note_off_c, 0, 38, 62
1, 174993, Note_on_c, 0, 88, 83
1, 175003, Note_off_c, 0, 86, 63
1, 175019, Note_on_c, 0, 33, 77
1, 175030, Note_on_c, 0, 89, 97
1, 175046, Note_off_c, 0, 88, 65
1, 175052, Note_off_c, 0, 35, 62
1, 175054, Note_on_c, 0, 31, 87
1, 175098, Note_off_c, 0, 33, 64
1, 175108, Note_off_c, 0, 89, 54
1, 175115, Note_on_c, 0, 38, 82
1, 175182, Note_on_c, 0, 35, 81
1, 175189, Note_off_c, 0, 31, 63
1, 175202, Note_on_c, 0, 86, 84
1, 175231, Note_off_c, 0, 38, 60
1, 175243, Note_on_c, 0, 88, 81
1, 175267, Note_on_c, 0, 33, 64
1, 175288, Note_off_c, 0, 86, 35
1, 175297, Note_off_c, 0, 35, 56
1, 175301, Note_on_c, 0, 89, 102
1, 175315, Note_on_c, 0, 31, 93
1, 175323, Note_off_c, 0, 88, 62
1, 175350, Note_off_c, 0, 33, 63
1, 175377, Poly_aftertouch_c, 0, 35, 127
1, 175392, Note_on_c, 0, 38, 82
1, 175403, Note_off_c, 0, 89, 0
1, 175422, Poly_aftertouch_c, 0, 35, 0
1, 175440, Poly_aftertouch_c, 0, 89, 127
1, 175459, Note_on_c, 0, 35, 75
1, 175471, Note_off_c, 0, 31, 61
1, 175480, Note_on_c, 0, 86, 79
1, 175487, Note_off_c, 0, 38, 62
1, 175502, Poly_aftertouch_c, 0, 89, 0
1, 175521, Note_on_c, 0, 88, 50
1, 175553, Note_off_c, 0, 35, 63
1, 175575, Note_on_c, 0, 33, 4
1, 175575, Note_off_c, 0, 88, 64
1, 175582, Note_off_c, 0, 86, 59
1, 175592, Note_on_c, 0, 89, 104
1, 175598, Note_on_c, 0, 31, 96
1, 175606, Control_c, 0, 64, 94
1, 175620, Control_c, 0, 64, 66
1, 175623, Note_off_c, 0, 33, 51
1, 175635, Control_c, 0, 64, 0
1, 175659, Note_on_c, 0, 88, 42
1, 175663, Note_on_c, 0, 33, 57
1, 175665, Control_c, 0, 64, 70
1, 175680, Control_c, 0, 64, 93
1, 175694, Control_c, 0, 64, 127
1, 175711, Poly_aftertouch_c, 0, 36, 0
1, 175730, Note_on_c, 0, 35, 70
1, 175742, Note_on_c, 0, 86, 85
1, 175759, Note_off_c, 0, 89, 58
1, 175780, Note_off_c, 0, 88, 63
1, 175794, Note_off_c, 0, 33, 59
1, 175796, Note_on_c, 0, 36, 78
1, 175797, Note_on_c, 0, 84, 85
1, 175800, Note_off_c, 0, 86, 64
1, 175816, Note_off_c, 0, 31, 51
1, 175836, Note_off_c, 0, 35, 51
1, 175854, Note_on_c, 0, 38, 75
1, 175855, Note_off_c, 0, 36, 63
1, 175860, Note_off_c, 0, 84, 64
1, 175864, Note_on_c, 0, 83, 79
1, 175894, Note_on_c, 0, 35, 14
1, 175915, Note_on_c, 0, 36, 67
1, 175917, Note_off_c, 0, 83, 62
1, 175918, Note_off_c, 0, 35, 61
1, 175925, Note_off_c, 0, 38, 61
1, 175931, Note_on_c, 0, 84, 77
1, 175935, Poly_aftertouch_c, 0, 31, 127
1, 175976, Poly_aftertouch_c, 0, 31, 0
1, 175985, Note_on_c, 0, 35, 76
1, 175995, Note_on_c, 0, 86, 82
1, 175997, Note_off_c, 0, 84, 65
1, 176000, Note_off_c, 0, 36, 63
1, 176009, Note_on_c, 0, 33, 68
1, 176051, Note_on_c, 0, 88, 89
1, 176058, Note_off_c, 0, 86, 65
1, 176060, Note_off_c, 0, 35, 62
1, 176072, Note_off_c, 0, 33, 65
1, 176091, Note_off_c, 0, 88, 64
1, 176125, Note_on_c, 0, 31, 98
1, 176126, Note_on_c, 0, 89, 112
1, 176148, Control_c, 0, 64, 91
1, 176163, Control_c, 0, 64, 65
1, 176177, Control_c, 0, 64, 0
1, 176195, Note_on_c, 0, 88, 91
1, 176207, Control_c, 0, 64, 70
1, 176222, Control_c, 0, 64, 92
1, 176229, Note_on_c, 0, 33, 38
1, 176230, Note_on_c, 0, 35, 65
1, 176237, Control_c, 0, 64, 114
1, 176251, Control_c, 0, 64, 124
1, 176268, Note_on_c, 0, 86, 81
1, 176281, Control_c, 0, 64, 124
1, 176290, Note_off_c, 0, 33, 63
1, 176296, Control_c, 0, 64, 126
1, 176298, Note_off_c, 0, 89, 60
1, 176302, Note_off_c, 0, 88, 63
1, 176306, Note_on_c, 0, 36, 77
1, 176311, Control_c, 0, 64, 127
1, 176319, Note_on_c, 0, 84, 85
1, 176324, Note_off_c, 0, 86, 66
1, 176353, Note_off_c, 0, 35, 56
1, 176360, Note_off_c, 0, 36, 63
1, 176370, Note_on_c, 0, 38, 75
1, 176380, Note_off_c, 0, 84, 64
1, 176385, Note_on_c, 0, 83, 84
1, 176397, Note_on_c, 0, 33, 52
1, 176419, Note_off_c, 0, 31, 0
1, 176421, Note_on_c, 0, 36, 75
1, 176431, Note_off_c, 0, 33, 64
1, 176432, Note_off_c, 0, 38, 62
1, 176447, Note_off_c, 0, 83, 60
1, 176456, Poly_aftertouch_c, 0, 31, 127
1, 176460, Note_on_c, 0, 84, 83
1, 176495, Poly_aftertouch_c, 0, 31, 0
1, 176501, Note_on_c, 0, 35, 62
1, 176511, Note_on_c, 0, 33, 75
1, 176513, Note_off_c, 0, 36, 63
1, 176519, Note_on_c, 0, 86, 86
1, 176527, Note_off_c, 0, 84, 64
1, 176569, Note_off_c, 0, 35, 62
1, 176572, Note_on_c, 0, 88, 88
1, 176578, Note_off_c, 0, 86, 65
1, 176590, Note_off_c, 0, 33, 63
1, 176612, Note_off_c, 0, 88, 65
1, 176621, Control_c, 0, 64, 125
1, 176636, Control_c, 0, 64, 108
1, 176640, Note_on_c, 0, 31, 105
1, 176641, Note_on_c, 0, 89, 109
1, 176650, Control_c, 0, 64, 80
1, 176665, Control_c, 0, 64, 18
1, 176680, Control_c, 0, 64, 0
1, 176695, Control_c, 0, 64, 59
1, 176710, Control_c, 0, 64, 81
1, 176724, Control_c, 0, 64, 111
1, 176739, Control_c, 0, 64, 127
1, 176772, Note_off_c, 0, 89, 57
1, 176799, Note_on_c, 0, 33, 51
1, 176802, Note_off_c, 0, 31, 59
1, 176814, Note_on_c, 0, 88, 78
1, 176853, Note_on_c, 0, 35, 68
1, 176885, Note_on_c, 0, 86, 80
1, 176912, Note_off_c, 0, 33, 60
1, 176929, Note_on_c, 0, 36, 79
1, 176942, Note_on_c, 0, 84, 82
1, 176955, Note_off_c, 0, 88, 61
1, 176963, Note_off_c, 0, 35, 61
1, 176974, Note_off_c, 0, 86, 63
1, 176984, Note_off_c, 0, 36, 64
1, 176985, Note_on_c, 0, 38, 84
1, 176993, Note_on_c, 0, 83, 85
1, 176999, Note_off_c, 0, 84, 67
1, 177045, Control_c, 0, 64, 123
1, 177056, Note_on_c, 0, 40, 81
1, 177059, Note_on_c, 0, 81, 85
1, 177059, Note_off_c, 0, 38, 62
1, 177060, Note_off_c, 0, 83, 56
1, 177060, Control_c, 0, 64, 97
1, 177074, Control_c, 0, 64, 74
1, 177089, Control_c, 0, 64, 0
1, 177106, Note_on_c, 0, 41, 79
1, 177127, Note_off_c, 0, 40, 63
1, 177128, Note_on_c, 0, 79, 78
1, 177147, Note_off_c, 0, 81, 61
1, 177165, Note_off_c, 0, 41, 66
1, 177171, Note_on_c, 0, 43, 82
1, 177180, Note_on_c, 0, 77, 86
1, 177182, Note_off_c, 0, 79, 64
1, 177222, Note_on_c, 0, 45, 63
1, 177230, Note_on_c, 0, 76, 86
1, 177231, Note_off_c, 0, 43, 53
1, 177296, Note_on_c, 0, 47, 74
1, 177303, Note_off_c, 0, 77, 52
1, 177313, Note_on_c, 0, 74, 73
1, 177316, Note_off_c, 0, 45, 62
1, 177353, Note_on_c, 0, 48, 74
1, 177359, Note_off_c, 0, 76, 65
1, 177361, Note_on_c, 0, 72, 77
1, 177380, Note_off_c, 0, 47, 64
1, 177390, Note_off_c, 0, 74, 65
1, 177391, Note_off_c, 0, 48, 66
1, 177410, Note_on_c, 0, 50, 79
1, 177411, Note_on_c, 0, 71, 76
1, 177413, Note_off_c, 0, 72, 66
1, 177461, Note_off_c, 0, 50, 63
1, 177469, Note_on_c, 0, 52, 60
1, 177474, Note_on_c, 0, 69, 80
1, 177477, Note_off_c, 0, 71, 59
1, 177523, Note_on_c, 0, 53, 75
1, 177530, Note_off_c, 0, 52, 63
1, 177539, Note_on_c, 0, 67, 81
1, 177550, Note_off_c, 0, 69, 64
1, 177577, Note_off_c, 0, 53, 64
1, 177595, Note_off_c, 0, 67, 65
1, 177597, Note_on_c, 0, 65, 83
1, 177604, Note_on_c, 0, 55, 68
1, 177645, Control_c, 0, 64, 67
1, 177650, Note_on_c, 0, 48, 92
1, 177654, Note_on_c, 0, 64, 96
1, 177660, Note_off_c, 0, 55, 66
1, 177660, Control_c, 0, 64, 127
1, 177673, Note_off_c, 0, 65, 65
1, 177687, Note_off_c, 0, 48, 67
1, 177687, Note_off_c, 0, 64, 70
1, 177763, Control_c, 0, 64, 112
1, 177778, Control_c, 0, 64, 83
1, 177793, Control_c, 0, 64, 45
1, 177808, Control_c, 0, 64, 0
1, 177822, Control_c, 0, 67, 17
1, 177837, Control_c, 0, 67, 38
1, 177852, Control_c, 0, 67, 68
1, 177867, Control_c, 0, 67, 106
1, 177875, Note_on_c, 0, 52, 60
1, 177882, Control_c, 0, 67, 127
1, 177883, Note_on_c, 0, 36, 40
1, 177888, Note_on_c, 0, 43, 33
1, 177912, Note_off_c, 0, 52, 66
1, 177914, Note_on_c, 0, 48, 6
1, 177915, Note_off_c, 0, 48, 127
1, 177916, Note_off_c, 0, 36, 48
1, 177926, Note_off_c, 0, 43, 31
1, 177995, Note_on_c, 0, 52, 67
1, 178000, Note_on_c, 0, 36, 61
1, 178007, Note_on_c, 0, 43, 45
1, 178030, Note_off_c, 0, 36, 64
1, 178032, Note_off_c, 0, 52, 64
1, 178039, Note_off_c, 0, 43, 51
1, 178121, Note_on_c, 0, 43, 59
1, 178132, Note_on_c, 0, 52, 68
1, 178133, Note_on_c, 0, 36, 50
1, 178151, Note_off_c, 0, 43, 62
1, 178161, Note_off_c, 0, 36, 56
1, 178161, Note_off_c, 0, 52, 68
1, 178170, Note_on_c, 0, 48, 15
1, 178171, Note_off_c, 0, 48, 40
1, 178254, Note_on_c, 0, 52, 71
1, 178258, Note_on_c, 0, 36, 61
1, 178271, Note_on_c, 0, 43, 41
1, 178288, Note_off_c, 0, 36, 65
1, 178288, Note_off_c, 0, 52, 63
1, 178304, Note_off_c, 0, 43, 50
1, 178400, Note_on_c, 0, 36, 50
1, 178400, Note_on_c, 0, 43, 42
1, 178403, Note_on_c, 0, 52, 66
1, 178425, Note_off_c, 0, 52, 66
1, 178430, Note_off_c, 0, 36, 55
1, 178435, Note_off_c, 0, 43, 50
1, 178536, Note_on_c, 0, 52, 55
1, 178537, Note_on_c, 0, 36, 45
1, 178543, Note_on_c, 0, 43, 27
1, 178563, Note_off_c, 0, 52, 62
1, 178568, Note_off_c, 0, 36, 48
1, 178585, Note_off_c, 0, 43, 46
1, 178665, Note_on_c, 0, 52, 55
1, 178671, Note_on_c, 0, 43, 52
1, 178674, Note_on_c, 0, 36, 49
1, 178700, Note_off_c, 0, 43, 56
1, 178700, Note_off_c, 0, 52, 67
1, 178703, Note_off_c, 0, 36, 59
1, 178797, Note_on_c, 0, 52, 60
1, 178799, Note_on_c, 0, 43, 48
1, 178802, Note_on_c, 0, 36, 55
1, 178824, Note_on_c, 0, 48, 31
1, 178829, Note_off_c, 0, 43, 57
1, 178832, Note_off_c, 0, 52, 65
1, 178834, Note_off_c, 0, 36, 64
1, 178839, Note_off_c, 0, 48, 37
1, 178924, Note_on_c, 0, 52, 56
1, 178927, Note_on_c, 0, 43, 45
1, 178930, Note_on_c, 0, 36, 53
1, 178958, Note_off_c, 0, 36, 60
1, 178958, Note_off_c, 0, 52, 66
1, 178960, Note_off_c, 0, 43, 52
1, 179061, Note_on_c, 0, 52, 55
1, 179062, Note_on_c, 0, 36, 49
1, 179062, Note_on_c, 0, 43, 39
1, 179091, Note_off_c, 0, 36, 57
1, 179094, Note_off_c, 0, 52, 67
1, 179099, Note_off_c, 0, 43, 45
1, 179201, Note_on_c, 0, 36, 49
1, 179201, Note_on_c, 0, 43, 44
1, 179203, Note_on_c, 0, 52, 55
1, 179230, Note_off_c, 0, 36, 56
1, 179234, Note_off_c, 0, 43, 49
1, 179237, Note_off_c, 0, 52, 66
1, 179336, Note_on_c, 0, 43, 48
1, 179336, Note_on_c, 0, 52, 60
1, 179342, Note_on_c, 0, 36, 45
1, 179364, Note_off_c, 0, 43, 56
1, 179365, Note_on_c, 0, 48, 25
1, 179370, Note_off_c, 0, 52, 65
1, 179373, Note_off_c, 0, 36, 51
1, 179405, Note_off_c, 0, 48, 43
1, 179465, Note_on_c, 0, 43, 48
1, 179467, Note_on_c, 0, 36, 57
1, 179470, Note_on_c, 0, 52, 63
1, 179496, Note_off_c, 0, 43, 56
1, 179498, Note_off_c, 0, 36, 64
1, 179500, Note_off_c, 0, 52, 68
1, 179502, Note_on_c, 0, 48, 29
1, 179542, Note_off_c, 0, 48, 31
1, 179592, Note_on_c, 0, 54, 76
1, 179604, Note_on_c, 0, 50, 59
1, 179607, Note_on_c, 0, 36, 49
1, 179619, Note_on_c, 0, 45, 33
1, 179626, Note_off_c, 0, 54, 61
1, 179634, Note_off_c, 0, 50, 65
1, 179637, Note_off_c, 0, 36, 54
1, 179655, Note_off_c, 0, 45, 51
1, 179716, Note_on_c, 0, 54, 71
1, 179721, Note_on_c, 0, 36, 55
1, 179735, Note_on_c, 0, 50, 39
1, 179738, Note_on_c, 0, 45, 41
1, 179750, Note_off_c, 0, 36, 62
1, 179754, Note_off_c, 0, 54, 57
1, 179768, Note_off_c, 0, 50, 45
1, 179772, Note_off_c, 0, 45, 33
1, 179850, Note_on_c, 0, 55, 68
1, 179852, Note_on_c, 0, 50, 56
1, 179872, Note_on_c, 0, 43, 48
1, 179879, Note_on_c, 0, 35, 44
1, 179905, Note_off_c, 0, 43, 51
1, 179914, Note_off_c, 0, 35, 51
1, 179991, Note_on_c, 0, 43, 54
1, 180001, Note_on_c, 0, 35, 53
1, 180020, Note_off_c, 0, 43, 58
1, 180029, Note_off_c, 0, 35, 58
1, 180127, Note_on_c, 0, 43, 47
1, 180129, Note_on_c, 0, 35, 54
1, 180156, Note_off_c, 0, 35, 60
1, 180156, Note_off_c, 0, 43, 55
1, 180224, Note_off_c, 0, 55, 58
1, 180271, Note_on_c, 0, 43, 48
1, 180275, Note_on_c, 0, 59, 51
1, 180277, Note_on_c, 0, 35, 49
1, 180302, Note_off_c, 0, 43, 55
1, 180305, Note_off_c, 0, 35, 59
1, 180314, Note_on_c, 0, 57, 51
1, 180316, Note_off_c, 0, 50, 39
1, 180316, Note_off_c, 0, 59, 49
1, 180356, Note_on_c, 0, 55, 61
1, 180364, Note_off_c, 0, 57, 57
1, 180399, Note_on_c, 0, 43, 48
1, 180401, Note_on_c, 0, 35, 54
1, 180413, Note_off_c, 0, 55, 65
1, 180429, Note_off_c, 0, 35, 58
1, 180429, Note_off_c, 0, 43, 55
1, 180525, Note_on_c, 0, 43, 50
1, 180528, Note_on_c, 0, 35, 53
1, 180555, Note_off_c, 0, 43, 56
1, 180556, Note_off_c, 0, 35, 57
1, 180656, Note_on_c, 0, 43, 60
1, 180664, Note_on_c, 0, 35, 57
1, 180689, Note_off_c, 0, 43, 62
1, 180691, Note_off_c, 0, 35, 61
1, 180787, Note_on_c, 0, 35, 53
1, 180793, Note_on_c, 0, 43, 41
1, 180816, Note_off_c, 0, 35, 59
1, 180828, Note_off_c, 0, 43, 48
1, 180868, Note_on_c, 0, 85, 65
1, 180905, Note_on_c, 0, 86, 76
1, 180911, Note_on_c, 0, 35, 61
1, 180911, Note_on_c, 0, 43, 56
1, 180928, Note_off_c, 0, 85, 66
1, 180941, Note_off_c, 0, 43, 56
1, 180942, Note_off_c, 0, 35, 64
1, 181046, Note_on_c, 0, 43, 46
1, 181050, Note_on_c, 0, 35, 54
1, 181078, Note_off_c, 0, 35, 59
1, 181079, Note_off_c, 0, 43, 52
1, 181183, Note_on_c, 0, 35, 54
1, 181185, Note_on_c, 0, 43, 43
1, 181213, Note_off_c, 0, 35, 63
1, 181216, Note_off_c, 0, 43, 55
1, 181240, Note_off_c, 0, 86, 56
1, 181258, Note_on_c, 0, 84, 52
1, 181309, Note_on_c, 0, 83, 60
1, 181313, Note_off_c, 0, 84, 56
1, 181324, Note_on_c, 0, 43, 39
1, 181324, Note_on_c, 0, 35, 50
1, 181336, Control_c, 0, 64, 10
1, 181351, Control_c, 0, 64, 13
1, 181353, Note_off_c, 0, 83, 60
1, 181354, Note_off_c, 0, 35, 59
1, 181366, Note_off_c, 0, 43, 49
1, 181373, Control_c, 0, 64, 18
1, 181387, Note_on_c, 0, 81, 49
1, 181403, Control_c, 0, 64, 19
1, 181414, Note_off_c, 0, 81, 54
1, 181433, Control_c, 0, 64, 21
1, 181447, Control_c, 0, 64, 22
1, 181448, Note_on_c, 0, 43, 48
1, 181452, Note_on_c, 0, 35, 53
1, 181457, Note_on_c, 0, 79, 49
1, 181462, Control_c, 0, 64, 26
1, 181477, Control_c, 0, 64, 30
1, 181479, Note_off_c, 0, 43, 54
1, 181484, Note_off_c, 0, 35, 61
1, 181491, Control_c, 0, 64, 31
1, 181499, Note_off_c, 0, 79, 0
1, 181499, Note_on_c, 0, 79, 27
1, 181506, Control_c, 0, 64, 32
1, 181521, Control_c, 0, 64, 32
1, 181536, Control_c, 0, 64, 33
1, 181551, Control_c, 0, 64, 32
1, 181559, Note_off_c, 0, 79, 63
1, 181565, Control_c, 0, 64, 32
1, 181580, Control_c, 0, 64, 30
1, 181582, Note_on_c, 0, 35, 51
1, 181582, Note_on_c, 0, 43, 40
1, 181595, Control_c, 0, 64, 28
1, 181610, Control_c, 0, 64, 25
1, 181613, Note_off_c, 0, 35, 60
1, 181615, Note_off_c, 0, 43, 53
1, 181625, Control_c, 0, 64, 21
1, 181641, Control_c, 0, 64, 18
1, 181670, Control_c, 0, 64, 16
1, 181700, Control_c, 0, 64, 13
1, 181715, Note_on_c, 0, 35, 51
1, 181718, Note_on_c, 0, 43, 39
1, 181744, Note_off_c, 0, 35, 58
1, 181756, Note_off_c, 0, 43, 46
1, 181804, Control_c, 0, 64, 10
1, 181819, Control_c, 0, 64, 0
1, 181835, Note_on_c, 0, 35, 60
1, 181841, Note_on_c, 0, 43, 50
1, 181869, Note_off_c, 0, 35, 63
1, 181870, Note_off_c, 0, 43, 54
1, 181959, Note_on_c, 0, 46, 69
1, 181966, Note_on_c, 0, 50, 59
1, 181976, Note_on_c, 0, 34, 56
1, 181979, Note_on_c, 0, 41, 46
1, 181993, Note_off_c, 0, 46, 61
1, 182004, Note_off_c, 0, 34, 52
1, 182005, Note_off_c, 0, 50, 63
1, 182013, Note_off_c, 0, 41, 56
1, 182097, Note_on_c, 0, 34, 52
1, 182097, Note_on_c, 0, 46, 56
1, 182097, Note_on_c, 0, 50, 53
1, 182099, Note_on_c, 0, 41, 51
1, 182132, Note_off_c, 0, 34, 59
1, 182138, Note_off_c, 0, 41, 55
1, 182138, Note_off_c, 0, 50, 62
1, 182141, Note_off_c, 0, 46, 61
1, 182237, Note_on_c, 0, 46, 54
1, 182239, Note_on_c, 0, 50, 49
1, 182243, Note_on_c, 0, 34, 47
1, 182270, Note_off_c, 0, 34, 55
1, 182272, Note_off_c, 0, 46, 63
1, 182275, Poly_aftertouch_c, 0, 41, 127
1, 182281, Note_off_c, 0, 50, 62
1, 182320, Poly_aftertouch_c, 0, 41, 0
1, 182369, Note_on_c, 0, 34, 52
1, 182370, Note_on_c, 0, 46, 54
1, 182377, Note_on_c, 0, 50, 48
1, 182398, Note_off_c, 0, 34, 62
1, 182406, Note_off_c, 0, 46, 62
1, 182409, Note_off_c, 0, 50, 62
1, 182501, Note_on_c, 0, 34, 57
1, 182504, Note_on_c, 0, 46, 57
1, 182507, Note_on_c, 0, 50, 50
1, 182533, Note_off_c, 0, 34, 64
1, 182534, Note_off_c, 0, 46, 62
1, 182544, Note_off_c, 0, 50, 63
1, 182635, Note_on_c, 0, 46, 50
1, 182637, Note_on_c, 0, 34, 52
1, 182650, Note_on_c, 0, 50, 42
1, 182665, Note_off_c, 0, 34, 54
1, 182665, Note_off_c, 0, 46, 59
1, 182679, Note_off_c, 0, 50, 58
1, 182767, Note_on_c, 0, 46, 55
1, 182767, Note_on_c, 0, 50, 56
1, 182767, Note_on_c, 0, 34, 56
1, 182800, Note_off_c, 0, 34, 65
1, 182804, Note_off_c, 0, 46, 64
1, 182810, Note_off_c, 0, 50, 61
1, 182908, Note_on_c, 0, 46, 57
1, 182910, Note_on_c, 0, 34, 58
1, 182916, Note_on_c, 0, 50, 51
1, 182936, Note_off_c, 0, 34, 61
1, 182941, Note_off_c, 0, 46, 62
1, 182952, Note_off_c, 0, 50, 65
1, 183044, Note_on_c, 0, 34, 59
1, 183046, Note_on_c, 0, 46, 54
1, 183047, Note_on_c, 0, 50, 58
1, 183074, Note_off_c, 0, 34, 64
1, 183078, Note_off_c, 0, 46, 63
1, 183084, Note_off_c, 0, 50, 64
1, 183172, Note_on_c, 0, 50, 59
1, 183174, Note_on_c, 0, 46, 54
1, 183176, Note_on_c, 0, 34, 59
1, 183202, Note_off_c, 0, 34, 60
1, 183202, Note_off_c, 0, 46, 60
1, 183211, Note_off_c, 0, 50, 64
1, 183309, Note_on_c, 0, 50, 55
1, 183310, Note_on_c, 0, 34, 55
1, 183310, Note_on_c, 0, 46, 52
1, 183341, Note_off_c, 0, 34, 63
1, 183342, Note_off_c, 0, 46, 61
1, 183348, Note_off_c, 0, 50, 64
1, 183435, Note_on_c, 0, 34, 66
1, 183436, Note_on_c, 0, 50, 66
1, 183448, Note_on_c, 0, 46, 42
1, 183464, Note_off_c, 0, 34, 65
1, 183473, Note_off_c, 0, 50, 64
1, 183478, Note_off_c, 0, 46, 50
1, 183567, Note_on_c, 0, 46, 59
1, 183571, Note_on_c, 0, 34, 61
1, 183572, Note_on_c, 0, 50, 61
1, 183597, Note_off_c, 0, 46, 59
1, 183602, Note_off_c, 0, 34, 64
1, 183618, Note_on_c, 0, 41, 15
1, 183619, Note_off_c, 0, 50, 64
1, 183671, Note_off_c, 0, 41, 27
1, 183697, Note_on_c, 0, 46, 58
1, 183701, Note_on_c, 0, 50, 59
1, 183704, Note_on_c, 0, 34, 59
1, 183727, Note_off_c, 0, 46, 56
1, 183738, Note_off_c, 0, 34, 65
1, 183743, Note_off_c, 0, 50, 64
1, 183822, Note_on_c, 0, 52, 68
1, 183827, Note_on_c, 0, 34, 68
1, 183839, Note_on_c, 0, 48, 56
1, 183856, Note_off_c, 0, 34, 65
1, 183861, Note_off_c, 0, 52, 62
1, 183864, Note_off_c, 0, 48, 61
1, 183949, Note_on_c, 0, 34, 61
1, 183952, Note_on_c, 0, 48, 59
1, 183955, Note_on_c, 0, 52, 68
1, 183984, Note_off_c, 0, 34, 63
1, 183988, Note_off_c, 0, 48, 64
1, 183988, Note_off_c, 0, 52, 66
1, 184078, Note_on_c, 0, 53, 70
1, 184087, Note_on_c, 0, 33, 58
1, 184090, Note_on_c, 0, 48, 54
1, 184099, Note_on_c, 0, 41, 43
1, 184120, Note_off_c, 0, 33, 66
1, 184135, Note_off_c, 0, 41, 52
1, 184216, Note_on_c, 0, 41, 57
1, 184218, Note_on_c, 0, 33, 58
1, 184245, Note_off_c, 0, 41, 62
1, 184250, Note_off_c, 0, 33, 65
1, 184343, Note_on_c, 0, 41, 53
1, 184344, Note_on_c, 0, 33, 62
1, 184380, Note_off_c, 0, 33, 65
1, 184381, Note_off_c, 0, 41, 64
1, 184470, Note_off_c, 0, 53, 58
1, 184493, Note_on_c, 0, 33, 57
1, 184499, Note_on_c, 0, 41, 45
1, 184517, Note_on_c, 0, 57, 48
1, 184521, Note_off_c, 0, 33, 64
1, 184531, Note_off_c, 0, 41, 52
1, 184546, Note_off_c, 0, 57, 59
1, 184557, Note_on_c, 0, 55, 60
1, 184570, Note_off_c, 0, 48, 43
1, 184604, Note_on_c, 0, 53, 58
1, 184607, Note_off_c, 0, 55, 63
1, 184616, Note_on_c, 0, 33, 64
1, 184622, Note_on_c, 0, 41, 52
1, 184647, Note_off_c, 0, 33, 65
1, 184652, Note_off_c, 0, 41, 56
1, 184657, Note_off_c, 0, 53, 64
1, 184738, Note_on_c, 0, 41, 59
1, 184740, Note_on_c, 0, 33, 62
1, 184772, Note_off_c, 0, 33, 65
1, 184772, Note_off_c, 0, 41, 66
1, 184877, Note_on_c, 0, 33, 61
1, 184877, Note_on_c, 0, 41, 58
1, 184904, Note_off_c, 0, 41, 63
1, 184906, Note_off_c, 0, 33, 64
1, 184988, Note_on_c, 0, 33, 68
1, 184991, Note_on_c, 0, 41, 57
1, 185020, Note_off_c, 0, 41, 64
1, 185021, Note_off_c, 0, 33, 66
1, 185036, Control_c, 0, 64, 16
1, 185051, Control_c, 0, 64, 24
1, 185066, Control_c, 0, 64, 27
1, 185085, Note_on_c, 0, 83, 63
1, 185095, Control_c, 0, 64, 26
1, 185114, Note_on_c, 0, 41, 61
1, 185115, Note_on_c, 0, 32, 74
1, 185120, Note_on_c, 0, 84, 74
1, 185138, Note_off_c, 0, 83, 59
1, 185140, Note_off_c, 0, 41, 64
1, 185144, Note_off_c, 0, 32, 63
1, 185147, Control_c, 0, 64, 27
1, 185162, Control_c, 0, 64, 29
1, 185177, Control_c, 0, 64, 32
1, 185192, Control_c, 0, 64, 34
1, 185206, Control_c, 0, 64, 38
1, 185221, Control_c, 0, 64, 39
1, 185236, Control_c, 0, 64, 41
1, 185242, Note_on_c, 0, 32, 68
1, 185247, Note_on_c, 0, 41, 51
1, 185251, Control_c, 0, 64, 42
1, 185266, Control_c, 0, 64, 43
1, 185276, Note_off_c, 0, 41, 63
1, 185278, Note_off_c, 0, 32, 62
1, 185369, Control_c, 0, 64, 43
1, 185381, Note_on_c, 0, 32, 64
1, 185389, Note_on_c, 0, 41, 49
1, 185411, Note_off_c, 0, 32, 63
1, 185419, Note_off_c, 0, 41, 58
1, 185477, Note_on_c, 0, 82, 50
1, 185480, Note_off_c, 0, 84, 56
1, 185511, Note_on_c, 0, 41, 53
1, 185514, Note_on_c, 0, 32, 58
1, 185527, Note_on_c, 0, 80, 67
1, 185540, Note_off_c, 0, 41, 62
1, 185546, Note_off_c, 0, 32, 63
1, 185548, Control_c, 0, 64, 44
1, 185561, Note_off_c, 0, 82, 60
1, 185563, Note_off_c, 0, 80, 60
1, 185584, Note_on_c, 0, 79, 66
1, 185635, Note_on_c, 0, 32, 68
1, 185637, Note_on_c, 0, 41, 52
1, 185643, Note_off_c, 0, 79, 60
1, 185649, Note_on_c, 0, 77, 73
1, 185668, Note_off_c, 0, 41, 65
1, 185671, Note_off_c, 0, 32, 64
1, 185756, Control_c, 0, 64, 44
1, 185767, Note_on_c, 0, 32, 66
1, 185767, Note_on_c, 0, 41, 63
1, 185797, Note_off_c, 0, 77, 59
1, 185798, Note_off_c, 0, 41, 66
1, 185799, Note_off_c, 0, 32, 63
1, 185801, Control_c, 0, 64, 45
1, 185816, Control_c, 0, 64, 46
1, 185830, Control_c, 0, 64, 46
1, 185845, Control_c, 0, 64, 47
1, 185882, Control_c, 0, 64, 47
1, 185895, Note_on_c, 0, 32, 73
1, 185897, Note_on_c, 0, 41, 60
1, 185912, Control_c, 0, 64, 48
1, 185919, Note_off_c, 0, 32, 65
1, 185927, Note_off_c, 0, 41, 66
1, 185927, Control_c, 0, 64, 48
1, 186000, Note_on_c, 0, 32, 74
1, 186001, Control_c, 0, 64, 49
1, 186007, Note_on_c, 0, 41, 65
1, 186016, Control_c, 0, 64, 49
1, 186030, Control_c, 0, 64, 50
1, 186037, Note_off_c, 0, 41, 67
1, 186040, Note_off_c, 0, 32, 62
1, 186108, Note_on_c, 0, 88, 74
1, 186135, Note_on_c, 0, 41, 67
1, 186137, Note_on_c, 0, 89, 90
1, 186138, Note_on_c, 0, 31, 69
1, 186162, Note_off_c, 0, 88, 65
1, 186168, Note_off_c, 0, 41, 67
1, 186174, Note_off_c, 0, 31, 64
1, 186193, Control_c, 0, 64, 49
1, 186237, Control_c, 0, 64, 48
1, 186252, Control_c, 0, 64, 47
1, 186267, Control_c, 0, 64, 42
1, 186272, Note_on_c, 0, 31, 63
1, 186276, Note_on_c, 0, 41, 44
1, 186281, Control_c, 0, 64, 29
1, 186296, Control_c, 0, 64, 0
1, 186304, Note_off_c, 0, 31, 64
1, 186311, Note_off_c, 0, 41, 52
1, 186406, Note_on_c, 0, 31, 55
1, 186409, Note_on_c, 0, 41, 41
1, 186438, Note_off_c, 0, 31, 56
1, 186446, Note_off_c, 0, 41, 50
1, 186522, Note_on_c, 0, 31, 60
1, 186526, Note_on_c, 0, 41, 55
1, 186554, Note_off_c, 0, 31, 64
1, 186557, Note_off_c, 0, 41, 62
1, 186662, Note_on_c, 0, 31, 55
1, 186662, Note_on_c, 0, 41, 56
1, 186690, Note_off_c, 0, 31, 58
1, 186693, Note_off_c, 0, 41, 64
1, 186795, Note_on_c, 0, 31, 57
1, 186795, Note_on_c, 0, 41, 57
1, 186797, Note_off_c, 0, 89, 62
1, 186823, Note_off_c, 0, 41, 60
1, 186824, Note_off_c, 0, 31, 61
1, 186902, Note_on_c, 0, 41, 63
1, 186905, Note_on_c, 0, 32, 75
1, 186922, Note_on_c, 0, 89, 56
1, 186934, Note_off_c, 0, 41, 66
1, 186935, Note_off_c, 0, 32, 63
1, 186951, Note_on_c, 0, 87, 62
1, 186973, Note_off_c, 0, 89, 53
1, 187020, Note_on_c, 0, 32, 66
1, 187024, Note_on_c, 0, 41, 54
1, 187026, Note_on_c, 0, 86, 70
1, 187035, Note_off_c, 0, 87, 62
1, 187052, Note_off_c, 0, 41, 61
1, 187055, Note_off_c, 0, 32, 62
1, 187064, Note_off_c, 0, 86, 57
1, 187082, Note_on_c, 0, 84, 66
1, 187119, Note_off_c, 0, 84, 63
1, 187137, Note_on_c, 0, 41, 74
1, 187142, Note_on_c, 0, 31, 78
1, 187142, Note_on_c, 0, 83, 63
1, 187171, Note_off_c, 0, 83, 61
1, 187176, Note_off_c, 0, 41, 66
1, 187179, Note_off_c, 0, 31, 65
1, 187200, Note_on_c, 0, 84, 77
1, 187223, Control_c, 0, 67, 84
1, 187238, Control_c, 0, 67, 0
1, 187241, Note_off_c, 0, 84, 58
1, 187256, Note_on_c, 0, 31, 76
1, 187262, Note_on_c, 0, 86, 70
1, 187268, Note_on_c, 0, 41, 63
1, 187294, Note_off_c, 0, 31, 64
1, 187295, Note_off_c, 0, 41, 59
1, 187307, Note_off_c, 0, 86, 64
1, 187309, Note_on_c, 0, 87, 75
1, 187369, Note_off_c, 0, 87, 64
1, 187382, Note_on_c, 0, 41, 75
1, 187384, Note_on_c, 0, 89, 82
1, 187387, Note_on_c, 0, 32, 89
1, 187418, Note_off_c, 0, 41, 68
1, 187423, Note_off_c, 0, 32, 62
1, 187441, Note_on_c, 0, 87, 67
1, 187492, Note_off_c, 0, 89, 56
1, 187503, Note_on_c, 0, 32, 88
1, 187506, Note_on_c, 0, 86, 73
1, 187510, Note_on_c, 0, 41, 72
1, 187530, Note_off_c, 0, 87, 62
1, 187533, Note_off_c, 0, 32, 65
1, 187538, Note_off_c, 0, 41, 67
1, 187550, Note_on_c, 0, 84, 82
1, 187555, Note_off_c, 0, 86, 65
1, 187597, Note_off_c, 0, 84, 63
1, 187621, Note_on_c, 0, 83, 74
1, 187627, Note_on_c, 0, 41, 87
1, 187633, Note_on_c, 0, 31, 94
1, 187661, Note_off_c, 0, 31, 69
1, 187668, Note_off_c, 0, 41, 65
1, 187673, Note_off_c, 0, 83, 57
1, 187687, Note_on_c, 0, 84, 85
1, 187742, Note_off_c, 0, 84, 63
1, 187753, Note_on_c, 0, 31, 91
1, 187755, Note_on_c, 0, 86, 65
1, 187758, Note_on_c, 0, 41, 93
1, 187785, Note_off_c, 0, 41, 71
1, 187789, Note_off_c, 0, 31, 64
1, 187798, Note_on_c, 0, 87, 78
1, 187802, Note_off_c, 0, 86, 64
1, 187852, Note_off_c, 0, 87, 63
1, 187871, Note_on_c, 0, 89, 84
1, 187873, Note_on_c, 0, 41, 92
1, 187876, Note_on_c, 0, 32, 91
1, 187914, Note_off_c, 0, 41, 64
1, 187915, Note_off_c, 0, 32, 60
1, 187930, Note_on_c, 0, 87, 67
1, 187965, Note_off_c, 0, 89, 59
1, 187986, Note_on_c, 0, 32, 94
1, 187988, Note_on_c, 0, 86, 76
1, 187989, Note_on_c, 0, 41, 91
1, 187989, Poly_aftertouch_c, 0, 31, 0
1, 188019, Note_off_c, 0, 41, 68
1, 188025, Note_off_c, 0, 32, 60
1, 188025, Note_off_c, 0, 87, 61
1, 188042, Note_on_c, 0, 84, 82
1, 188046, Note_off_c, 0, 86, 65
1, 188091, Note_off_c, 0, 84, 58
1, 188117, Note_on_c, 0, 41, 108
1, 188120, Note_on_c, 0, 31, 98
1, 188123, Note_on_c, 0, 83, 81
1, 188128, Control_c, 0, 64, 53
1, 188143, Control_c, 0, 64, 72
1, 188144, Note_off_c, 0, 31, 72
1, 188151, Note_off_c, 0, 41, 68
1, 188157, Control_c, 0, 64, 60
1, 188172, Control_c, 0, 64, 0
1, 188185, Note_off_c, 0, 83, 62
1, 188189, Note_on_c, 0, 84, 94
1, 188228, Poly_aftertouch_c, 0, 32, 0
1, 188259, Note_on_c, 0, 86, 81
1, 188262, Note_off_c, 0, 84, 64
1, 188320, Note_on_c, 0, 87, 81
1, 188325, Note_off_c, 0, 86, 63
1, 188377, Note_off_c, 0, 87, 62
1, 188390, Note_on_c, 0, 55, 109
1, 188391, Note_on_c, 0, 89, 96
1, 188392, Note_on_c, 0, 43, 102
1, 188424, Control_c, 0, 64, 43
1, 188439, Control_c, 0, 64, 103
1, 188454, Control_c, 0, 64, 127
1, 188460, Note_on_c, 0, 87, 81
1, 188532, Note_on_c, 0, 86, 84
1, 188560, Note_off_c, 0, 89, 60
1, 188573, Note_off_c, 0, 87, 63
1, 188594, Note_off_c, 0, 86, 66
1, 188596, Note_on_c, 0, 84, 85
1, 188635, Note_off_c, 0, 43, 58
1, 188658, Note_on_c, 0, 83, 82
1, 188719, Note_off_c, 0, 84, 24
1, 188722, Note_on_c, 0, 80, 88
1, 188769, Note_off_c, 0, 83, 55
1, 188780, Note_on_c, 0, 79, 85
1, 188809, Note_off_c, 0, 80, 64
1, 188828, Note_on_c, 0, 77, 78
1, 188833, Note_off_c, 0, 79, 65
1, 188872, Note_off_c, 0, 55, 56
1, 188904, Note_on_c, 0, 75, 79
1, 188910, Note_off_c, 0, 77, 59
1, 188964, Note_on_c, 0, 74, 87
1, 188996, Control_c, 0, 64, 106
1, 188997, Note_off_c, 0, 75, 65
1, 189011, Control_c, 0, 64, 90
1, 189026, Control_c, 0, 64, 72
1, 189030, Note_on_c, 0, 72, 84
1, 189030, Note_off_c, 0, 74, 63
1, 189041, Control_c, 0, 64, 0
1, 189045, Note_on_c, 0, 57, 55
1, 189083, Note_off_c, 0, 72, 64
1, 189086, Note_on_c, 0, 71, 87
1, 189090, Note_off_c, 0, 57, 56
1, 189096, Note_on_c, 0, 59, 78
1, 189139, Note_on_c, 0, 72, 98
1, 189149, Note_off_c, 0, 59, 64
1, 189152, Note_on_c, 0, 60, 82
1, 189159, Control_c, 0, 64, 61
1, 189173, Note_off_c, 0, 71, 30
1, 189173, Note_off_c, 0, 72, 67
1, 189174, Note_off_c, 0, 60, 66
1, 189174, Control_c, 0, 64, 71
1, 189188, Control_c, 0, 64, 61
1, 189203, Control_c, 0, 64, 0
1, 189408, Note_on_c, 0, 67, 97
1, 189409, Note_on_c, 0, 43, 75
1, 189415, Note_on_c, 0, 55, 71
1, 189434, Note_off_c, 0, 55, 67
1, 189441, Note_off_c, 0, 43, 63
1, 189447, Note_off_c, 0, 67, 64
1, 189673, Note_on_c, 0, 63, 88
1, 189685, Control_c, 0, 67, 10
1, 189700, Control_c, 0, 67, 16
1, 189701, Note_on_c, 0, 39, 56
1, 189705, Note_on_c, 0, 51, 47
1, 189714, Note_off_c, 0, 63, 64
1, 189715, Control_c, 0, 67, 25
1, 189727, Note_off_c, 0, 39, 59
1, 189730, Control_c, 0, 67, 38
1, 189731, Note_off_c, 0, 51, 56
1, 189745, Control_c, 0, 67, 53
1, 189760, Control_c, 0, 67, 72
1, 189775, Control_c, 0, 67, 90
1, 189790, Control_c, 0, 67, 106
1, 189804, Control_c, 0, 67, 117
1, 189819, Control_c, 0, 67, 125
1, 189834, Control_c, 0, 67, 127
1, 189945, Note_on_c, 0, 60, 74
1, 189947, Note_on_c, 0, 36, 56
1, 189971, Note_off_c, 0, 60, 64
1, 189977, Note_off_c, 0, 36, 64
1, 190293, Note_on_c, 0, 56, 58
1, 190316, Note_on_c, 0, 44, 25
1, 190321, Note_on_c, 0, 32, 24
1, 190566, Control_c, 0, 64, 13
1, 190581, Control_c, 0, 64, 32
1, 190596, Control_c, 0, 64, 40
1, 190611, Control_c, 0, 64, 47
1, 190625, Control_c, 0, 64, 53
1, 190640, Control_c, 0, 64, 58
1, 190655, Control_c, 0, 64, 60
1, 190670, Control_c, 0, 64, 62
1, 190685, Control_c, 0, 64, 64
1, 190699, Control_c, 0, 64, 64
1, 190714, Control_c, 0, 64, 65
1, 190729, Control_c, 0, 64, 66
1, 190744, Control_c, 0, 64, 67
1, 190759, Control_c, 0, 64, 68
1, 190773, Control_c, 0, 64, 69
1, 190788, Control_c, 0, 64, 70
1, 190803, Control_c, 0, 64, 72
1, 190818, Control_c, 0, 64, 73
1, 190833, Control_c, 0, 64, 74
1, 190848, Control_c, 0, 64, 75
1, 190863, Control_c, 0, 64, 75
1, 190877, Control_c, 0, 64, 76
1, 190892, Control_c, 0, 64, 76
1, 190907, Control_c, 0, 64, 77
1, 190922, Control_c, 0, 64, 77
1, 190966, Control_c, 0, 64, 78
1, 191040, Control_c, 0, 64, 78
1, 191055, Control_c, 0, 64, 79
1, 191069, Control_c, 0, 64, 79
1, 191084, Control_c, 0, 64, 80
1, 191107, Control_c, 0, 64, 81
1, 191122, Control_c, 0, 64, 82
1, 191137, Control_c, 0, 64, 82
1, 191151, Control_c, 0, 64, 84
1, 191166, Control_c, 0, 64, 85
1, 191181, Control_c, 0, 64, 86
1, 191196, Control_c, 0, 64, 87
1, 191211, Control_c, 0, 64, 87
1, 191227, Control_c, 0, 64, 88
1, 191236, Note_off_c, 0, 32, 41
1, 191241, Control_c, 0, 64, 89
1, 191256, Control_c, 0, 64, 90
1, 191271, Control_c, 0, 64, 91
1, 191286, Control_c, 0, 64, 92
1, 191300, Control_c, 0, 64, 93
1, 191315, Control_c, 0, 64, 94
1, 191330, Control_c, 0, 64, 95
1, 191345, Control_c, 0, 64, 96
1, 191360, Control_c, 0, 64, 96
1, 191374, Control_c, 0, 64, 97
1, 191387, Note_off_c, 0, 44, 39
1, 191389, Control_c, 0, 64, 98
1, 191419, Control_c, 0, 64, 98
1, 191446, Note_off_c, 0, 56, 60
1, 191448, Control_c, 0, 64, 99
1, 191686, Control_c, 0, 64, 98
1, 191715, Control_c, 0, 64, 98
1, 191730, Control_c, 0, 64, 97
1, 191745, Control_c, 0, 64, 95
1, 191760, Control_c, 0, 64, 93
1, 191775, Control_c, 0, 64, 91
1, 191790, Control_c, 0, 64, 87
1, 191805, Control_c, 0, 64, 78
1, 191820, Control_c, 0, 64, 67
1, 191835, Control_c, 0, 64, 0
1, 191944, Note_on_c, 0, 73, 67
1, 191962, Note_on_c, 0, 61, 49
1, 191982, Note_off_c, 0, 73, 58
1, 191990, Note_off_c, 0, 61, 57
1, 192216, Note_on_c, 0, 68, 68
1, 192221, Note_on_c, 0, 56, 42
1, 192255, Note_off_c, 0, 56, 58
1, 192257, Note_off_c, 0, 68, 61
1, 192474, Note_on_c, 0, 65, 65
1, 192489, Note_on_c, 0, 53, 44
1, 192520, Note_off_c, 0, 65, 61
1, 192532, Note_off_c, 0, 53, 64
1, 192776, Note_on_c, 0, 61, 60
1, 192785, Note_on_c, 0, 49, 45
1, 192822, Note_off_c, 0, 49, 63
1, 192841, Note_off_c, 0, 61, 61
1, 193180, Note_on_c, 0, 46, 35
1, 193188, Note_on_c, 0, 58, 48
1, 193200, Note_on_c, 0, 34, 20
1, 194080, Control_c, 0, 64, 32
1, 194102, Control_c, 0, 64, 50
1, 194117, Control_c, 0, 64, 58
1, 194132, Control_c, 0, 64, 61
1, 194147, Control_c, 0, 64, 63
1, 194162, Control_c, 0, 64, 64
1, 194176, Control_c, 0, 64, 65
1, 194191, Control_c, 0, 64, 67
1, 194206, Control_c, 0, 64, 68
1, 194220, Control_c, 0, 64, 71
1, 194235, Control_c, 0, 64, 73
1, 194250, Control_c, 0, 64, 75
1, 194265, Control_c, 0, 64, 77
1, 194280, Control_c, 0, 64, 77
1, 194294, Control_c, 0, 64, 78
1, 194309, Control_c, 0, 64, 78
1, 194324, Control_c, 0, 64, 79
1, 194354, Control_c, 0, 64, 80
1, 194368, Control_c, 0, 64, 80
1, 194383, Control_c, 0, 64, 81
1, 194397, Note_off_c, 0, 34, 27
1, 194414, Control_c, 0, 64, 81
1, 194429, Control_c, 0, 64, 82
1, 194459, Control_c, 0, 64, 82
1, 194473, Control_c, 0, 64, 83
1, 194488, Control_c, 0, 64, 84
1, 194503, Control_c, 0, 64, 84
1, 194518, Control_c, 0, 64, 85
1, 194547, Control_c, 0, 64, 85
1, 194562, Control_c, 0, 64, 86
1, 194592, Control_c, 0, 64, 86
1, 194663, Note_off_c, 0, 46, 39
1, 194674, Note_off_c, 0, 58, 42
1, 194911, Control_c, 0, 64, 86
1, 194970, Control_c, 0, 64, 85
1, 194999, Control_c, 0, 64, 85
1, 195029, Control_c, 0, 64, 84
1, 195043, Control_c, 0, 64, 83
1, 195058, Control_c, 0, 64, 82
1, 195073, Control_c, 0, 64, 78
1, 195088, Control_c, 0, 64, 73
1, 195103, Control_c, 0, 64, 68
1, 195117, Control_c, 0, 64, 58
1, 195132, Control_c, 0, 64, 0
1, 195699, Note_on_c, 0, 63, 59
1, 195723, Note_off_c, 0, 63, 65
1, 195785, Note_on_c, 0, 67, 29
1, 195829, Note_on_c, 0, 70, 49
1, 195831, Note_off_c, 0, 67, 45
1, 195868, Note_off_c, 0, 70, 58
1, 195894, Note_on_c, 0, 75, 27
1, 195924, Note_off_c, 0, 75, 47
1, 195956, Note_on_c, 0, 58, 57
1, 195978, Note_off_c, 0, 58, 63
1, 196016, Note_on_c, 0, 67, 47
1, 196056, Note_off_c, 0, 67, 52
1, 196076, Note_on_c, 0, 70, 59
1, 196112, Note_off_c, 0, 70, 60
1, 196116, Note_on_c, 0, 75, 45
1, 196160, Note_off_c, 0, 75, 61
1, 196206, Note_on_c, 0, 55, 61
1, 196239, Note_off_c, 0, 55, 65
1, 196264, Note_on_c, 0, 67, 56
1, 196318, Note_off_c, 0, 67, 57
1, 196326, Note_on_c, 0, 70, 60
1, 196386, Note_off_c, 0, 70, 56
1, 196401, Note_on_c, 0, 75, 49
1, 196428, Note_off_c, 0, 75, 59
1, 196468, Note_on_c, 0, 51, 62
1, 196523, Note_on_c, 0, 67, 56
1, 196530, Note_off_c, 0, 51, 58
1, 196573, Note_off_c, 0, 67, 53
1, 196595, Note_on_c, 0, 70, 60
1, 196632, Note_off_c, 0, 70, 60
1, 196640, Note_on_c, 0, 75, 46
1, 196684, Note_off_c, 0, 75, 65
1, 196721, Note_on_c, 0, 53, 71
1, 196758, Note_off_c, 0, 53, 62
1, 196777, Note_on_c, 0, 65, 56
1, 196827, Note_off_c, 0, 65, 57
1, 196849, Note_on_c, 0, 68, 59
1, 196892, Note_off_c, 0, 68, 59
1, 196896, Note_on_c, 0, 75, 53
1, 196943, Note_off_c, 0, 75, 59
1, 196975, Note_on_c, 0, 56, 72
1, 197010, Note_off_c, 0, 56, 62
1, 197015, Note_on_c, 0, 65, 55
1, 197063, Note_off_c, 0, 65, 57
1, 197108, Note_on_c, 0, 71, 52
1, 197148, Note_off_c, 0, 71, 61
1, 197173, Note_on_c, 0, 74, 44
1, 197198, Note_off_c, 0, 74, 62
1, 197240, Note_on_c, 0, 57, 70
1, 197272, Note_off_c, 0, 57, 65
1, 197289, Note_on_c, 0, 63, 54
1, 197337, Note_off_c, 0, 63, 57
1, 197361, Note_on_c, 0, 66, 55
1, 197409, Note_on_c, 0, 74, 55
1, 197436, Note_off_c, 0, 66, 60
1, 197447, Note_off_c, 0, 74, 60
1, 197487, Note_on_c, 0, 54, 70
1, 197519, Note_off_c, 0, 54, 63
1, 197559, Note_on_c, 0, 63, 56
1, 197588, Note_off_c, 0, 63, 65
1, 197615, Note_on_c, 0, 69, 46
1, 197650, Note_off_c, 0, 69, 65
1, 197659, Note_on_c, 0, 72, 64
1, 197712, Note_off_c, 0, 72, 61
1, 197746, Note_on_c, 0, 55, 75
1, 197773, Note_off_c, 0, 55, 68
1, 197804, Note_on_c, 0, 62, 55
1, 197873, Note_on_c, 0, 67, 57
1, 197883, Note_off_c, 0, 62, 55
1, 197930, Note_off_c, 0, 67, 55
1, 197943, Note_on_c, 0, 72, 56
1, 197981, Note_off_c, 0, 72, 63
1, 198014, Note_on_c, 0, 54, 72
1, 198046, Note_off_c, 0, 54, 65
1, 198071, Note_on_c, 0, 62, 51
1, 198138, Note_off_c, 0, 62, 52
1, 198143, Note_on_c, 0, 67, 54
1, 198183, Note_off_c, 0, 67, 61
1, 198186, Note_on_c, 0, 72, 53
1, 198238, Note_off_c, 0, 72, 54
1, 198275, Note_on_c, 0, 55, 51
1, 198300, Note_off_c, 0, 55, 57
1, 198321, Note_on_c, 0, 62, 56
1, 198380, Note_off_c, 0, 62, 54
1, 198386, Note_on_c, 0, 67, 55
1, 198425, Note_off_c, 0, 67, 64
1, 198446, Note_on_c, 0, 71, 54
1, 198482, Note_off_c, 0, 71, 63
1, 198509, Note_on_c, 0, 43, 71
1, 198546, Note_off_c, 0, 43, 64
1, 198553, Note_on_c, 0, 62, 59
1, 198599, Note_off_c, 0, 62, 58
1, 198633, Note_on_c, 0, 65, 64
1, 198670, Note_off_c, 0, 65, 63
1, 198670, Control_c, 0, 67, 121
1, 198685, Note_on_c, 0, 71, 67
1, 198685, Control_c, 0, 67, 92
1, 198700, Control_c, 0, 67, 53
1, 198715, Control_c, 0, 67, 10
1, 198729, Note_off_c, 0, 71, 62
1, 198730, Control_c, 0, 67, 0
1, 198771, Note_on_c, 0, 72, 92
1, 198774, Note_on_c, 0, 64, 94
1, 198774, Control_c, 0, 64, 56
1, 198779, Note_on_c, 0, 48, 101
1, 198781, Note_on_c, 0, 36, 91
1, 198789, Control_c, 0, 64, 96
1, 198804, Control_c, 0, 64, 103
1, 198807, Note_off_c, 0, 36, 70
1, 198808, Note_off_c, 0, 72, 64
1, 198810, Note_off_c, 0, 64, 64
1, 198811, Note_off_c, 0, 48, 66
1, 198819, Control_c, 0, 64, 93
1, 198833, Control_c, 0, 64, 74
1, 198848, Control_c, 0, 64, 0
1, 198952, Control_c, 0, 67, 10
1, 198966, Control_c, 0, 67, 27
1, 198981, Control_c, 0, 67, 56
1, 198983, Note_on_c, 0, 48, 65
1, 198995, Note_on_c, 0, 64, 64
1, 198996, Control_c, 0, 67, 101
1, 199011, Control_c, 0, 67, 127
1, 199028, Note_off_c, 0, 48, 65
1, 199034, Note_off_c, 0, 64, 60
1, 199050, Note_on_c, 0, 55, 57
1, 199068, Note_on_c, 0, 60, 64
1, 199094, Note_off_c, 0, 55, 61
1, 199098, Note_off_c, 0, 60, 65
1, 199132, Note_on_c, 0, 48, 34
1, 199132, Note_on_c, 0, 64, 48
1, 199167, Note_off_c, 0, 48, 52
1, 199172, Note_off_c, 0, 64, 64
1, 199186, Note_on_c, 0, 55, 55
1, 199187, Note_on_c, 0, 60, 64
1, 199224, Note_off_c, 0, 55, 65
1, 199224, Note_off_c, 0, 60, 59
1, 199251, Note_on_c, 0, 48, 55
1, 199267, Note_on_c, 0, 64, 48
1, 199286, Note_off_c, 0, 48, 64
1, 199294, Note_off_c, 0, 64, 61
1, 199313, Note_on_c, 0, 55, 53
1, 199317, Note_on_c, 0, 60, 59
1, 199355, Note_off_c, 0, 55, 66
1, 199361, Note_off_c, 0, 60, 63
1, 199380, Note_on_c, 0, 48, 63
1, 199385, Note_on_c, 0, 64, 56
1, 199418, Note_off_c, 0, 48, 62
1, 199418, Note_off_c, 0, 64, 57
1, 199454, Note_on_c, 0, 55, 43
1, 199455, Note_on_c, 0, 60, 47
1, 199492, Note_off_c, 0, 55, 60
1, 199493, Note_off_c, 0, 60, 52
1, 199507, Note_on_c, 0, 64, 60
1, 199519, Note_on_c, 0, 48, 44
1, 199552, Note_off_c, 0, 64, 61
1, 199558, Note_off_c, 0, 48, 49
1, 199590, Note_on_c, 0, 55, 49
1, 199590, Note_on_c, 0, 60, 55
1, 199621, Note_off_c, 0, 55, 59
1, 199622, Note_off_c, 0, 60, 62
1, 199647, Note_on_c, 0, 64, 55
1, 199649, Note_on_c, 0, 48, 51
1, 199684, Note_off_c, 0, 64, 65
1, 199688, Note_off_c, 0, 48, 62
1, 199712, Note_on_c, 0, 60, 55
1, 199719, Note_on_c, 0, 55, 45
1, 199742, Note_off_c, 0, 60, 58
1, 199752, Note_off_c, 0, 55, 60
1, 199773, Note_on_c, 0, 64, 52
1, 199782, Note_on_c, 0, 48, 52
1, 199810, Note_off_c, 0, 64, 63
1, 199819, Note_off_c, 0, 48, 64
1, 199829, Note_on_c, 0, 60, 57
1, 199849, Note_on_c, 0, 55, 53
1, 199870, Note_off_c, 0, 60, 60
1, 199889, Note_off_c, 0, 55, 63
1, 199898, Note_on_c, 0, 64, 62
1, 199910, Note_on_c, 0, 48, 59
1, 199937, Note_off_c, 0, 64, 62
1, 199943, Note_off_c, 0, 48, 65
1, 199969, Note_on_c, 0, 60, 51
1, 199977, Note_on_c, 0, 55, 48
1, 200001, Note_off_c, 0, 60, 53
1, 200020, Note_off_c, 0, 55, 60
1, 200038, Note_on_c, 0, 48, 52
1, 200043, Note_on_c, 0, 64, 47
1, 200070, Note_off_c, 0, 64, 60
1, 200086, Note_off_c, 0, 48, 60
1, 200107, Note_on_c, 0, 60, 54
1, 200113, Note_on_c, 0, 55, 42
1, 200145, Note_off_c, 0, 60, 63
1, 200147, Note_off_c, 0, 55, 58
1, 200162, Note_on_c, 0, 64, 61
1, 200169, Note_on_c, 0, 48, 50
1, 200204, Note_off_c, 0, 64, 62
1, 200207, Note_off_c, 0, 48, 62
1, 200238, Note_on_c, 0, 60, 53
1, 200253, Note_on_c, 0, 55, 33
1, 200271, Note_off_c, 0, 60, 58
1, 200290, Note_off_c, 0, 55, 48
1, 200304, Note_on_c, 0, 64, 59
1, 200313, Note_on_c, 0, 48, 46
1, 200339, Note_off_c, 0, 64, 65
1, 200343, Note_off_c, 0, 48, 57
1, 200364, Note_on_c, 0, 60, 55
1, 200381, Note_on_c, 0, 55, 14
1, 200402, Note_off_c, 0, 60, 63
1, 200419, Note_on_c, 0, 64, 64
1, 200423, Note_off_c, 0, 55, 46
1, 200433, Note_on_c, 0, 48, 56
1, 200456, Note_off_c, 0, 64, 63
1, 200464, Note_off_c, 0, 48, 66
1, 200484, Note_on_c, 0, 60, 53
1, 200514, Note_off_c, 0, 60, 60
1, 200515, Note_on_c, 0, 55, 32
1, 200545, Note_off_c, 0, 55, 51
1, 200551, Note_on_c, 0, 48, 57
1, 200552, Note_on_c, 0, 64, 50
1, 200589, Note_off_c, 0, 48, 64
1, 200593, Note_off_c, 0, 64, 63
1, 200595, Note_on_c, 0, 60, 67
1, 200634, Note_off_c, 0, 60, 57
1, 200644, Note_on_c, 0, 55, 28
1, 200659, Note_on_c, 0, 66, 68
1, 200678, Note_on_c, 0, 48, 59
1, 200685, Note_off_c, 0, 55, 30
1, 200703, Note_off_c, 0, 66, 64
1, 200712, Note_off_c, 0, 48, 65
1, 200721, Note_on_c, 0, 62, 65
1, 200759, Note_on_c, 0, 57, 38
1, 200766, Note_off_c, 0, 62, 60
1, 200776, Note_on_c, 0, 66, 59
1, 200788, Note_off_c, 0, 57, 47
1, 200792, Note_on_c, 0, 48, 62
1, 200833, Note_off_c, 0, 48, 64
1, 200841, Note_off_c, 0, 66, 61
1, 200846, Note_on_c, 0, 62, 65
1, 200906, Note_off_c, 0, 62, 60
1, 200917, Note_on_c, 0, 67, 69
1, 200932, Note_on_c, 0, 47, 57
1, 200935, Note_on_c, 0, 50, 45
1, 200978, Note_off_c, 0, 50, 50
1, 200980, Note_off_c, 0, 47, 60
1, 200994, Note_on_c, 0, 55, 52
1, 201039, Note_off_c, 0, 55, 63
1, 201060, Note_on_c, 0, 47, 50
1, 201067, Note_on_c, 0, 50, 41
1, 201099, Note_off_c, 0, 47, 56
1, 201102, Note_off_c, 0, 50, 54
1, 201126, Note_on_c, 0, 55, 57
1, 201166, Note_off_c, 0, 55, 64
1, 201201, Note_on_c, 0, 47, 52
1, 201207, Note_on_c, 0, 50, 45
1, 201235, Note_off_c, 0, 50, 59
1, 201237, Note_off_c, 0, 47, 60
1, 201254, Note_on_c, 0, 55, 58
1, 201296, Note_off_c, 0, 55, 63
1, 201319, Note_off_c, 0, 67, 54
1, 201328, Note_on_c, 0, 50, 48
1, 201331, Note_on_c, 0, 47, 55
1, 201340, Note_on_c, 0, 71, 55
1, 201362, Note_off_c, 0, 50, 56
1, 201370, Note_off_c, 0, 47, 63
1, 201380, Note_on_c, 0, 69, 60
1, 201386, Note_on_c, 0, 55, 57
1, 201390, Note_off_c, 0, 71, 54
1, 201425, Note_off_c, 0, 55, 64
1, 201434, Note_off_c, 0, 69, 64
1, 201439, Note_on_c, 0, 67, 60
1, 201458, Note_on_c, 0, 50, 47
1, 201472, Note_on_c, 0, 47, 46
1, 201476, Note_off_c, 0, 67, 62
1, 201488, Note_off_c, 0, 50, 58
1, 201502, Note_off_c, 0, 47, 55
1, 201510, Note_on_c, 0, 55, 64
1, 201555, Note_off_c, 0, 55, 63
1, 201597, Note_on_c, 0, 50, 47
1, 201598, Note_on_c, 0, 47, 47
1, 201628, Note_off_c, 0, 50, 54
1, 201634, Note_off_c, 0, 47, 53
1, 201655, Note_on_c, 0, 55, 54
1, 201693, Note_off_c, 0, 55, 65
1, 201716, Note_on_c, 0, 47, 49
1, 201716, Note_on_c, 0, 50, 56
1, 201742, Note_off_c, 0, 50, 56
1, 201761, Note_off_c, 0, 47, 49
1, 201770, Note_on_c, 0, 55, 66
1, 201815, Note_off_c, 0, 55, 63
1, 201833, Note_on_c, 0, 50, 52
1, 201867, Note_off_c, 0, 50, 54
1, 201880, Poly_aftertouch_c, 0, 47, 127
1, 201898, Note_on_c, 0, 55, 48
1, 201925, Note_on_c, 0, 85, 68
1, 201940, Note_off_c, 0, 55, 62
1, 201946, Note_on_c, 0, 50, 52
1, 201948, Note_on_c, 0, 47, 19
1, 201959, Note_on_c, 0, 86, 87
1, 201988, Note_off_c, 0, 50, 64
1, 201988, Note_off_c, 0, 85, 66
1, 202009, Note_off_c, 0, 47, 56
1, 202011, Note_on_c, 0, 55, 53
1, 202065, Note_off_c, 0, 55, 62
1, 202082, Note_on_c, 0, 50, 57
1, 202098, Note_on_c, 0, 47, 34
1, 202119, Note_off_c, 0, 50, 58
1, 202147, Note_off_c, 0, 47, 47
1, 202156, Note_on_c, 0, 55, 51
1, 202197, Note_off_c, 0, 55, 62
1, 202228, Note_on_c, 0, 47, 37
1, 202229, Note_on_c, 0, 50, 40
1, 202265, Note_off_c, 0, 50, 51
1, 202270, Note_off_c, 0, 47, 54
1, 202292, Note_on_c, 0, 55, 52
1, 202301, Note_off_c, 0, 86, 56
1, 202307, Note_on_c, 0, 84, 59
1, 202337, Note_off_c, 0, 55, 64
1, 202369, Note_on_c, 0, 50, 38
1, 202374, Note_on_c, 0, 47, 40
1, 202374, Note_on_c, 0, 83, 51
1, 202377, Note_off_c, 0, 84, 60
1, 202405, Note_off_c, 0, 50, 52
1, 202412, Note_off_c, 0, 83, 55
1, 202422, Note_off_c, 0, 47, 45
1, 202428, Note_on_c, 0, 55, 57
1, 202435, Note_on_c, 0, 81, 64
1, 202470, Note_off_c, 0, 55, 62
1, 202478, Note_off_c, 0, 81, 57
1, 202500, Note_on_c, 0, 47, 30
1, 202500, Note_on_c, 0, 50, 47
1, 202506, Note_on_c, 0, 79, 59
1, 202540, Note_off_c, 0, 50, 58
1, 202556, Note_off_c, 0, 79, 61
1, 202569, Note_on_c, 0, 55, 53
1, 202607, Note_off_c, 0, 55, 63
1, 202612, Note_off_c, 0, 47, 0
1, 202612, Note_on_c, 0, 47, 27
1, 202618, Note_on_c, 0, 50, 49
1, 202663, Note_off_c, 0, 50, 61
1, 202695, Note_on_c, 0, 55, 57
1, 202726, Note_off_c, 0, 47, 0
1, 202726, Note_on_c, 0, 47, 14
1, 202731, Note_off_c, 0, 55, 65
1, 202742, Note_on_c, 0, 50, 58
1, 202781, Note_off_c, 0, 50, 64
1, 202784, Control_c, 0, 64, 16
1, 202798, Control_c, 0, 64, 32
1, 202813, Control_c, 0, 64, 41
1, 202816, Note_on_c, 0, 55, 59
1, 202828, Control_c, 0, 64, 44
1, 202843, Control_c, 0, 64, 46
1, 202849, Note_off_c, 0, 55, 66
1, 202858, Control_c, 0, 64, 47
1, 202864, Note_on_c, 0, 50, 57
1, 202873, Control_c, 0, 64, 47
1, 202887, Note_off_c, 0, 50, 60
1, 202900, Note_off_c, 0, 47, 56
1, 202903, Control_c, 0, 64, 48
1, 202918, Control_c, 0, 64, 48
1, 202924, Note_on_c, 0, 55, 70
1, 202932, Control_c, 0, 64, 49
1, 202962, Control_c, 0, 64, 48
1, 202977, Control_c, 0, 64, 44
1, 202989, Note_off_c, 0, 55, 59
1, 202992, Control_c, 0, 64, 28
1, 202998, Note_on_c, 0, 65, 73
1, 203000, Note_on_c, 0, 50, 63
1, 203001, Note_on_c, 0, 38, 72
1, 203006, Control_c, 0, 64, 0
1, 203032, Note_off_c, 0, 38, 63
1, 203032, Note_off_c, 0, 50, 64
1, 203059, Note_off_c, 0, 65, 64
1, 203088, Note_on_c, 0, 62, 63
1, 203103, Control_c, 0, 64, 19
1, 203117, Control_c, 0, 64, 25
1, 203123, Note_off_c, 0, 62, 63
1, 203132, Control_c, 0, 64, 29
1, 203132, Note_on_c, 0, 65, 50
1, 203147, Control_c, 0, 64, 32
1, 203156, Note_on_c, 0, 50, 52
1, 203162, Control_c, 0, 64, 33
1, 203168, Note_off_c, 0, 65, 67
1, 203195, Note_on_c, 0, 62, 56
1, 203203, Note_off_c, 0, 50, 51
1, 203219, Note_on_c, 0, 57, 54
1, 203222, Control_c, 0, 64, 29
1, 203235, Note_off_c, 0, 62, 61
1, 203237, Control_c, 0, 64, 22
1, 203252, Note_off_c, 0, 57, 56
1, 203252, Control_c, 0, 64, 18
1, 203263, Note_on_c, 0, 65, 58
1, 203266, Control_c, 0, 64, 16
1, 203281, Control_c, 0, 64, 18
1, 203287, Note_on_c, 0, 50, 37
1, 203296, Control_c, 0, 64, 19
1, 203311, Control_c, 0, 64, 21
1, 203311, Note_off_c, 0, 65, 61
1, 203323, Note_off_c, 0, 50, 55
1, 203327, Note_on_c, 0, 62, 59
1, 203341, Control_c, 0, 64, 22
1, 203345, Note_on_c, 0, 57, 50
1, 203355, Control_c, 0, 64, 24
1, 203368, Note_off_c, 0, 62, 60
1, 203370, Control_c, 0, 64, 25
1, 203380, Note_off_c, 0, 57, 62
1, 203385, Control_c, 0, 64, 27
1, 203396, Note_on_c, 0, 65, 45
1, 203411, Note_on_c, 0, 50, 48
1, 203415, Control_c, 0, 64, 28
1, 203438, Note_off_c, 0, 65, 64
1, 203444, Note_off_c, 0, 50, 61
1, 203452, Note_on_c, 0, 62, 62
1, 203458, Control_c, 0, 64, 29
1, 203474, Note_on_c, 0, 57, 47
1, 203487, Control_c, 0, 64, 30
1, 203492, Note_off_c, 0, 62, 59
1, 203502, Control_c, 0, 64, 31
1, 203511, Note_off_c, 0, 57, 61
1, 203518, Note_on_c, 0, 65, 55
1, 203531, Note_on_c, 0, 50, 55
1, 203561, Note_off_c, 0, 65, 63
1, 203573, Note_off_c, 0, 50, 62
1, 203574, Note_on_c, 0, 62, 59
1, 203602, Note_on_c, 0, 57, 50
1, 203621, Control_c, 0, 64, 32
1, 203633, Note_off_c, 0, 62, 59
1, 203636, Note_off_c, 0, 57, 58
1, 203636, Control_c, 0, 64, 32
1, 203651, Control_c, 0, 64, 34
1, 203651, Note_on_c, 0, 65, 56
1, 203666, Control_c, 0, 64, 35
1, 203667, Note_on_c, 0, 50, 48
1, 203690, Note_off_c, 0, 65, 65
1, 203695, Control_c, 0, 64, 36
1, 203701, Note_off_c, 0, 50, 62
1, 203705, Note_on_c, 0, 62, 52
1, 203723, Note_on_c, 0, 57, 55
1, 203749, Note_off_c, 0, 62, 60
1, 203761, Note_off_c, 0, 57, 62
1, 203769, Control_c, 0, 64, 36
1, 203779, Note_on_c, 0, 65, 53
1, 203784, Control_c, 0, 64, 37
1, 203791, Note_on_c, 0, 50, 50
1, 203798, Control_c, 0, 64, 38
1, 203813, Control_c, 0, 64, 39
1, 203816, Note_off_c, 0, 65, 64
1, 203834, Note_on_c, 0, 62, 62
1, 203836, Note_off_c, 0, 50, 64
1, 203836, Control_c, 0, 64, 40
1, 203851, Control_c, 0, 64, 40
1, 203860, Note_on_c, 0, 57, 53
1, 203866, Control_c, 0, 64, 41
1, 203878, Note_off_c, 0, 62, 60
1, 203880, Control_c, 0, 64, 42
1, 203895, Control_c, 0, 64, 42
1, 203899, Note_off_c, 0, 57, 62
1, 203910, Control_c, 0, 64, 43
1, 203915, Note_on_c, 0, 65, 53
1, 203925, Control_c, 0, 64, 44
1, 203927, Note_on_c, 0, 50, 58
1, 203940, Control_c, 0, 64, 44
1, 203951, Note_off_c, 0, 65, 65
1, 203954, Control_c, 0, 64, 45
1, 203962, Note_on_c, 0, 62, 66
1, 203965, Note_off_c, 0, 50, 62
1, 203969, Control_c, 0, 64, 45
1, 203990, Note_on_c, 0, 57, 52
1, 204012, Note_off_c, 0, 62, 58
1, 204028, Note_off_c, 0, 57, 62
1, 204039, Note_on_c, 0, 65, 60
1, 204051, Note_on_c, 0, 50, 61
1, 204078, Note_off_c, 0, 65, 63
1, 204088, Note_off_c, 0, 50, 61
1, 204093, Note_on_c, 0, 62, 66
1, 204103, Control_c, 0, 64, 46
1, 204115, Note_on_c, 0, 57, 51
1, 204144, Note_off_c, 0, 62, 57
1, 204148, Control_c, 0, 64, 45
1, 204151, Note_off_c, 0, 57, 62
1, 204163, Control_c, 0, 64, 45
1, 204177, Note_on_c, 0, 65, 53
1, 204178, Note_on_c, 0, 50, 55
1, 204211, Note_off_c, 0, 65, 64
1, 204214, Note_off_c, 0, 50, 61
1, 204226, Note_on_c, 0, 62, 62
1, 204237, Note_on_c, 0, 57, 54
1, 204266, Control_c, 0, 64, 44
1, 204270, Note_off_c, 0, 62, 60
1, 204275, Note_off_c, 0, 57, 62
1, 204301, Note_on_c, 0, 65, 62
1, 204304, Note_on_c, 0, 50, 52
1, 204340, Note_off_c, 0, 65, 64
1, 204343, Note_off_c, 0, 50, 62
1, 204351, Note_on_c, 0, 62, 64
1, 204363, Note_on_c, 0, 57, 54
1, 204403, Note_off_c, 0, 57, 61
1, 204404, Note_off_c, 0, 62, 56
1, 204414, Control_c, 0, 64, 44
1, 204434, Note_on_c, 0, 50, 53
1, 204435, Note_on_c, 0, 65, 57
1, 204444, Control_c, 0, 64, 43
1, 204471, Note_off_c, 0, 50, 62
1, 204471, Note_off_c, 0, 65, 67
1, 204486, Note_on_c, 0, 62, 68
1, 204492, Note_on_c, 0, 57, 58
1, 204529, Note_off_c, 0, 57, 61
1, 204534, Note_off_c, 0, 62, 56
1, 204548, Control_c, 0, 64, 43
1, 204555, Note_on_c, 0, 65, 68
1, 204557, Note_on_c, 0, 50, 56
1, 204584, Control_c, 0, 64, 43
1, 204599, Control_c, 0, 64, 44
1, 204601, Note_off_c, 0, 50, 61
1, 204602, Note_off_c, 0, 65, 61
1, 204613, Note_on_c, 0, 62, 71
1, 204626, Note_on_c, 0, 57, 61
1, 204659, Control_c, 0, 64, 43
1, 204660, Note_off_c, 0, 62, 58
1, 204661, Note_off_c, 0, 57, 62
1, 204687, Note_on_c, 0, 50, 55
1, 204692, Note_on_c, 0, 65, 58
1, 204720, Note_off_c, 0, 50, 63
1, 204730, Note_off_c, 0, 65, 65
1, 204741, Note_on_c, 0, 62, 68
1, 204742, Note_on_c, 0, 57, 57
1, 204763, Control_c, 0, 64, 44
1, 204775, Note_off_c, 0, 57, 63
1, 204779, Note_off_c, 0, 62, 58
1, 204808, Note_on_c, 0, 50, 59
1, 204811, Note_on_c, 0, 68, 71
1, 204843, Note_off_c, 0, 50, 63
1, 204852, Control_c, 0, 64, 44
1, 204860, Note_off_c, 0, 68, 62
1, 204866, Note_on_c, 0, 64, 73
1, 204877, Note_on_c, 0, 59, 52
1, 204904, Note_off_c, 0, 59, 57
1, 204917, Note_off_c, 0, 64, 61
1, 204926, Note_on_c, 0, 50, 62
1, 204927, Note_on_c, 0, 68, 65
1, 204963, Note_off_c, 0, 50, 65
1, 204985, Note_on_c, 0, 59, 55
1, 204993, Note_on_c, 0, 64, 69
1, 205000, Note_off_c, 0, 68, 63
1, 205013, Note_off_c, 0, 59, 57
1, 205046, Control_c, 0, 64, 42
1, 205049, Note_off_c, 0, 64, 62
1, 205060, Control_c, 0, 64, 26
1, 205062, Note_on_c, 0, 69, 73
1, 205064, Note_on_c, 0, 48, 50
1, 205070, Note_on_c, 0, 52, 36
1, 205075, Control_c, 0, 64, 0
1, 205100, Note_off_c, 0, 48, 62
1, 205104, Note_off_c, 0, 52, 55
1, 205115, Note_on_c, 0, 57, 59
1, 205156, Note_off_c, 0, 57, 60
1, 205191, Note_on_c, 0, 52, 44
1, 205194, Note_on_c, 0, 48, 50
1, 205222, Note_off_c, 0, 48, 57
1, 205224, Note_off_c, 0, 52, 55
1, 205255, Note_on_c, 0, 57, 58
1, 205291, Note_off_c, 0, 57, 61
1, 205326, Note_on_c, 0, 52, 55
1, 205327, Note_on_c, 0, 48, 50
1, 205368, Note_off_c, 0, 52, 65
1, 205368, Note_off_c, 0, 48, 63
1, 205395, Note_on_c, 0, 57, 58
1, 205435, Note_off_c, 0, 57, 60
1, 205449, Note_off_c, 0, 69, 64
1, 205472, Note_on_c, 0, 48, 50
1, 205480, Note_on_c, 0, 72, 47
1, 205495, Note_on_c, 0, 52, 19
1, 205507, Note_off_c, 0, 72, 55
1, 205514, Note_off_c, 0, 48, 63
1, 205520, Note_on_c, 0, 71, 56
1, 205538, Note_off_c, 0, 52, 38
1, 205546, Note_on_c, 0, 57, 43
1, 205562, Note_off_c, 0, 71, 59
1, 205574, Note_off_c, 0, 57, 56
1, 205574, Note_on_c, 0, 69, 65
1, 205592, Note_on_c, 0, 52, 51
1, 205603, Note_on_c, 0, 48, 54
1, 205624, Note_off_c, 0, 69, 62
1, 205638, Note_off_c, 0, 48, 63
1, 205638, Note_off_c, 0, 52, 62
1, 205654, Note_on_c, 0, 57, 60
1, 205705, Note_off_c, 0, 57, 59
1, 205735, Note_on_c, 0, 52, 50
1, 205739, Note_on_c, 0, 48, 48
1, 205764, Note_off_c, 0, 52, 61
1, 205773, Note_off_c, 0, 48, 54
1, 205791, Note_on_c, 0, 57, 54
1, 205830, Note_off_c, 0, 57, 63
1, 205844, Note_on_c, 0, 52, 65
1, 205850, Note_on_c, 0, 48, 55
1, 205880, Note_off_c, 0, 52, 63
1, 205897, Note_off_c, 0, 48, 55
1, 205911, Note_on_c, 0, 57, 63
1, 205952, Note_off_c, 0, 57, 59
1, 205983, Note_on_c, 0, 52, 49
1, 205991, Note_on_c, 0, 48, 41
1, 206024, Note_off_c, 0, 52, 56
1, 206033, Note_off_c, 0, 48, 54
1, 206050, Note_on_c, 0, 57, 57
1, 206052, Note_on_c, 0, 87, 70
1, 206094, Note_off_c, 0, 57, 62
1, 206099, Note_on_c, 0, 88, 81
1, 206107, Note_off_c, 0, 87, 65
1, 206118, Note_on_c, 0, 52, 46
1, 206121, Note_on_c, 0, 48, 55
1, 206149, Note_off_c, 0, 52, 58
1, 206169, Note_off_c, 0, 48, 58
1, 206178, Note_on_c, 0, 57, 63
1, 206232, Note_off_c, 0, 57, 57
1, 206244, Note_on_c, 0, 52, 56
1, 206271, Note_on_c, 0, 48, 34
1, 206280, Note_off_c, 0, 52, 63
1, 206310, Note_off_c, 0, 48, 52
1, 206313, Note_on_c, 0, 57, 56
1, 206358, Note_off_c, 0, 57, 57
1, 206381, Note_on_c, 0, 52, 51
1, 206399, Note_on_c, 0, 48, 40
1, 206429, Note_off_c, 0, 52, 62
1, 206435, Note_off_c, 0, 48, 54
1, 206457, Note_on_c, 0, 57, 46
1, 206476, Note_on_c, 0, 86, 56
1, 206498, Note_off_c, 0, 57, 61
1, 206500, Note_off_c, 0, 88, 53
1, 206528, Note_on_c, 0, 84, 65
1, 206529, Note_on_c, 0, 52, 44
1, 206534, Note_off_c, 0, 86, 59
1, 206541, Note_on_c, 0, 48, 40
1, 206559, Note_off_c, 0, 52, 54
1, 206562, Note_off_c, 0, 84, 62
1, 206577, Note_off_c, 0, 48, 50
1, 206584, Note_on_c, 0, 57, 60
1, 206587, Note_on_c, 0, 83, 61
1, 206623, Note_off_c, 0, 57, 60
1, 206628, Note_off_c, 0, 83, 55
1, 206649, Note_on_c, 0, 81, 67
1, 206654, Note_on_c, 0, 52, 54
1, 206667, Note_on_c, 0, 48, 37
1, 206689, Note_off_c, 0, 52, 58
1, 206695, Note_off_c, 0, 81, 59
1, 206712, Note_off_c, 0, 48, 46
1, 206715, Note_on_c, 0, 57, 62
1, 206752, Note_off_c, 0, 57, 60
1, 206775, Note_on_c, 0, 52, 58
1, 206784, Note_on_c, 0, 48, 29
1, 206824, Note_off_c, 0, 52, 65
1, 206839, Note_on_c, 0, 57, 63
1, 206841, Note_off_c, 0, 48, 49
1, 206885, Note_off_c, 0, 57, 57
1, 206905, Note_on_c, 0, 48, 41
1, 206906, Control_c, 0, 64, 25
1, 206910, Note_on_c, 0, 52, 52
1, 206921, Control_c, 0, 64, 47
1, 206936, Control_c, 0, 64, 58
1, 206944, Note_off_c, 0, 52, 65
1, 206951, Control_c, 0, 64, 62
1, 206957, Note_off_c, 0, 48, 49
1, 206966, Control_c, 0, 64, 64
1, 206969, Note_on_c, 0, 57, 59
1, 206980, Control_c, 0, 64, 65
1, 206995, Control_c, 0, 64, 67
1, 207005, Note_off_c, 0, 57, 62
1, 207010, Control_c, 0, 64, 68
1, 207024, Note_on_c, 0, 48, 50
1, 207024, Control_c, 0, 64, 71
1, 207030, Note_on_c, 0, 52, 61
1, 207039, Control_c, 0, 64, 73
1, 207054, Control_c, 0, 64, 75
1, 207060, Note_off_c, 0, 48, 65
1, 207064, Note_off_c, 0, 52, 67
1, 207069, Control_c, 0, 64, 76
1, 207084, Control_c, 0, 64, 77
1, 207089, Note_on_c, 0, 57, 56
1, 207110, Note_off_c, 0, 57, 60
1, 207118, Note_on_c, 0, 83, 68
1, 207172, Note_off_c, 0, 83, 56
1, 207172, Control_c, 0, 64, 75
1, 207183, Note_on_c, 0, 84, 75
1, 207187, Control_c, 0, 64, 71
1, 207188, Note_on_c, 0, 57, 56
1, 207197, Note_on_c, 0, 53, 44
1, 207203, Control_c, 0, 64, 63
1, 207218, Control_c, 0, 64, 0
1, 207249, Note_off_c, 0, 57, 59
1, 207254, Note_off_c, 0, 53, 53
1, 207264, Note_on_c, 0, 60, 64
1, 207323, Note_off_c, 0, 60, 58
1, 207340, Note_on_c, 0, 57, 53
1, 207345, Note_on_c, 0, 53, 16
1, 207381, Control_c, 0, 64, 13
1, 207383, Note_off_c, 0, 57, 58
1, 207395, Control_c, 0, 64, 22
1, 207398, Note_off_c, 0, 53, 56
1, 207405, Note_on_c, 0, 60, 54
1, 207446, Note_off_c, 0, 60, 63
1, 207470, Control_c, 0, 64, 21
1, 207470, Note_on_c, 0, 57, 56
1, 207505, Poly_aftertouch_c, 0, 53, 127
1, 207511, Note_off_c, 0, 57, 59
1, 207514, Note_on_c, 0, 83, 65
1, 207514, Note_off_c, 0, 84, 57
1, 207544, Note_off_c, 0, 83, 62
1, 207546, Note_on_c, 0, 60, 55
1, 207553, Poly_aftertouch_c, 0, 53, 0
1, 207580, Note_on_c, 0, 81, 73
1, 207590, Note_off_c, 0, 60, 61
1, 207595, Control_c, 0, 64, 19
1, 207610, Note_on_c, 0, 57, 60
1, 207625, Control_c, 0, 64, 21
1, 207635, Note_off_c, 0, 81, 60
1, 207636, Note_on_c, 0, 80, 82
1, 207647, Note_off_c, 0, 57, 62
1, 207654, Control_c, 0, 64, 22
1, 207667, Note_on_c, 0, 60, 66
1, 207669, Control_c, 0, 64, 0
1, 207670, Poly_aftertouch_c, 0, 53, 0
1, 207698, Note_off_c, 0, 80, 61
1, 207699, Note_on_c, 0, 81, 86
1, 207716, Note_off_c, 0, 60, 59
1, 207735, Note_on_c, 0, 57, 56
1, 207738, Note_on_c, 0, 53, 58
1, 207774, Note_off_c, 0, 53, 63
1, 207774, Note_off_c, 0, 57, 63
1, 207798, Note_on_c, 0, 62, 74
1, 207803, Control_c, 0, 64, 58
1, 207818, Control_c, 0, 64, 64
1, 207833, Control_c, 0, 64, 66
1, 207839, Note_off_c, 0, 81, 61
1, 207847, Control_c, 0, 64, 66
1, 207862, Control_c, 0, 64, 67
1, 207863, Note_off_c, 0, 62, 61
1, 207867, Note_on_c, 0, 53, 43
1, 207871, Note_on_c, 0, 57, 67
1, 207877, Control_c, 0, 64, 70
1, 207892, Control_c, 0, 64, 74
1, 207902, Note_off_c, 0, 53, 58
1, 207907, Note_off_c, 0, 57, 62
1, 207907, Control_c, 0, 64, 79
1, 207921, Control_c, 0, 64, 82
1, 207925, Note_on_c, 0, 62, 66
1, 207936, Control_c, 0, 64, 83
1, 207951, Control_c, 0, 64, 84
1, 207965, Note_off_c, 0, 62, 60
1, 207966, Control_c, 0, 64, 85
1, 207979, Note_on_c, 0, 57, 62
1, 207980, Control_c, 0, 64, 86
1, 207983, Note_on_c, 0, 53, 58
1, 207997, Control_c, 0, 64, 88
1, 207997, Control_c, 0, 67, 109
1, 208012, Control_c, 0, 64, 90
1, 208012, Control_c, 0, 67, 60
1, 208018, Note_off_c, 0, 53, 66
1, 208020, Note_off_c, 0, 57, 58
1, 208026, Control_c, 0, 64, 92
1, 208026, Control_c, 0, 67, 8
1, 208041, Control_c, 0, 64, 93
1, 208041, Control_c, 0, 67, 0
1, 208045, Note_on_c, 0, 62, 74
1, 208056, Control_c, 0, 64, 94
1, 208070, Control_c, 0, 64, 95
1, 208081, Note_off_c, 0, 62, 61
1, 208085, Control_c, 0, 64, 95
1, 208100, Control_c, 0, 64, 96
1, 208107, Note_on_c, 0, 53, 53
1, 208113, Note_on_c, 0, 57, 57
1, 208130, Control_c, 0, 64, 96
1, 208144, Note_off_c, 0, 53, 61
1, 208146, Note_off_c, 0, 57, 55
1, 208159, Control_c, 0, 64, 96
1, 208165, Note_on_c, 0, 62, 80
1, 208174, Control_c, 0, 64, 95
1, 208183, Note_on_c, 0, 83, 80
1, 208189, Control_c, 0, 64, 91
1, 208204, Control_c, 0, 64, 81
1, 208209, Note_off_c, 0, 62, 59
1, 208212, Note_on_c, 0, 57, 49
1, 208218, Control_c, 0, 64, 66
1, 208233, Note_on_c, 0, 84, 94
1, 208233, Control_c, 0, 64, 0
1, 208241, Note_on_c, 0, 53, 59
1, 208260, Note_off_c, 0, 83, 60
1, 208277, Control_c, 0, 64, 34
1, 208292, Control_c, 0, 64, 67
1, 208304, Note_on_c, 0, 63, 80
1, 208306, Note_off_c, 0, 57, 61
1, 208307, Control_c, 0, 64, 74
1, 208330, Control_c, 0, 64, 80
1, 208344, Control_c, 0, 64, 81
1, 208357, Note_off_c, 0, 53, 0
1, 208374, Control_c, 0, 64, 81
1, 208379, Note_off_c, 0, 63, 63
1, 208382, Note_on_c, 0, 57, 54
1, 208385, Note_on_c, 0, 53, 8
1, 208403, Control_c, 0, 64, 82
1, 208433, Control_c, 0, 64, 82
1, 208436, Note_on_c, 0, 63, 74
1, 208437, Note_off_c, 0, 57, 62
1, 208463, Control_c, 0, 64, 83
1, 208475, Note_off_c, 0, 53, 38
1, 208505, Note_off_c, 0, 63, 63
1, 208514, Note_on_c, 0, 57, 65
1, 208546, Note_on_c, 0, 53, 5
1, 208572, Note_on_c, 0, 63, 78
1, 208572, Note_off_c, 0, 57, 60
1, 208583, Note_on_c, 0, 83, 70
1, 208590, Note_off_c, 0, 84, 57
1, 208593, Note_off_c, 0, 53, 52
1, 208625, Note_off_c, 0, 83, 58
1, 208630, Note_off_c, 0, 63, 63
1, 208643, Note_on_c, 0, 81, 86
1, 208655, Note_on_c, 0, 57, 53
1, 208686, Note_off_c, 0, 57, 55
1, 208687, Note_on_c, 0, 53, 44
1, 208689, Note_on_c, 0, 63, 74
1, 208713, Note_off_c, 0, 53, 57
1, 208716, Note_on_c, 0, 80, 89
1, 208719, Note_off_c, 0, 81, 58
1, 208730, Control_c, 0, 64, 80
1, 208744, Note_off_c, 0, 63, 65
1, 208744, Control_c, 0, 64, 71
1, 208759, Control_c, 0, 64, 53
1, 208769, Note_off_c, 0, 80, 61
1, 208773, Note_on_c, 0, 57, 67
1, 208774, Control_c, 0, 64, 0
1, 208782, Note_on_c, 0, 53, 75
1, 208784, Note_on_c, 0, 81, 90
1, 208826, Note_off_c, 0, 57, 60
1, 208836, Note_on_c, 0, 60, 70
1, 208841, Note_off_c, 0, 81, 61
1, 208871, Note_on_c, 0, 79, 66
1, 208872, Note_on_c, 0, 80, 41
1, 208890, Note_off_c, 0, 79, 64
1, 208902, Note_off_c, 0, 80, 54
1, 208904, Note_off_c, 0, 60, 62
1, 208907, Note_on_c, 0, 57, 74
1, 208921, Note_on_c, 0, 81, 75
1, 208957, Note_off_c, 0, 57, 58
1, 208975, Note_on_c, 0, 60, 71
1, 208983, Note_off_c, 0, 81, 61
1, 208989, Note_on_c, 0, 83, 76
1, 209002, Note_off_c, 0, 53, 0
1, 209015, Note_off_c, 0, 60, 59
1, 209023, Note_on_c, 0, 53, 25
1, 209056, Note_on_c, 0, 84, 64
1, 209060, Note_off_c, 0, 83, 56
1, 209100, Note_on_c, 0, 85, 65
1, 209109, Note_off_c, 0, 84, 64
1, 209110, Note_off_c, 0, 53, 64
1, 209126, Note_on_c, 0, 57, 74
1, 209126, Note_off_c, 0, 85, 68
1, 209154, Note_on_c, 0, 86, 73
1, 209157, Note_off_c, 0, 57, 62
1, 209175, Note_on_c, 0, 53, 35
1, 209195, Note_off_c, 0, 86, 56
1, 209221, Note_on_c, 0, 87, 70
1, 209226, Control_c, 0, 67, 13
1, 209236, Note_off_c, 0, 53, 64
1, 209241, Control_c, 0, 67, 22
1, 209256, Control_c, 0, 67, 36
1, 209271, Control_c, 0, 67, 50
1, 209279, Note_off_c, 0, 87, 63
1, 209286, Control_c, 0, 67, 68
1, 209291, Note_on_c, 0, 52, 59
1, 209294, Note_on_c, 0, 88, 76
1, 209300, Control_c, 0, 67, 90
1, 209315, Control_c, 0, 67, 113
1, 209330, Control_c, 0, 67, 127
1, 209364, Note_off_c, 0, 52, 64
1, 209365, Note_on_c, 0, 56, 57
1, 209411, Note_off_c, 0, 56, 59
1, 209434, Note_on_c, 0, 59, 54
1, 209470, Note_off_c, 0, 59, 62
1, 209523, Note_on_c, 0, 64, 42
1, 209553, Note_off_c, 0, 64, 52
1, 209587, Note_on_c, 0, 52, 60
1, 209598, Control_c, 0, 64, 19
1, 209613, Control_c, 0, 64, 56
1, 209628, Control_c, 0, 64, 61
1, 209629, Note_off_c, 0, 52, 63
1, 209642, Control_c, 0, 64, 62
1, 209646, Note_on_c, 0, 86, 52
1, 209650, Note_on_c, 0, 56, 47
1, 209657, Control_c, 0, 64, 63
1, 209672, Control_c, 0, 64, 63
1, 209685, Note_off_c, 0, 56, 62
1, 209687, Control_c, 0, 64, 64
1, 209702, Control_c, 0, 64, 65
1, 209716, Control_c, 0, 64, 66
1, 209717, Note_on_c, 0, 59, 45
1, 209721, Note_on_c, 0, 84, 53
1, 209731, Control_c, 0, 64, 67
1, 209735, Note_off_c, 0, 86, 54
1, 209744, Note_off_c, 0, 59, 57
1, 209746, Control_c, 0, 64, 68
1, 209761, Control_c, 0, 64, 69
1, 209762, Note_off_c, 0, 84, 64
1, 209774, Note_on_c, 0, 64, 45
1, 209777, Note_on_c, 0, 83, 62
1, 209818, Note_off_c, 0, 64, 49
1, 209826, Note_off_c, 0, 88, 20
1, 209836, Note_off_c, 0, 83, 59
1, 209842, Control_c, 0, 64, 67
1, 209847, Note_on_c, 0, 52, 62
1, 209853, Note_on_c, 0, 84, 65
1, 209857, Control_c, 0, 64, 63
1, 209872, Control_c, 0, 64, 27
1, 209887, Control_c, 0, 64, 0
1, 209888, Note_off_c, 0, 52, 61
1, 209916, Note_on_c, 0, 83, 60
1, 209916, Note_off_c, 0, 84, 63
1, 209923, Note_on_c, 0, 57, 44
1, 209950, Note_off_c, 0, 83, 59
1, 209971, Note_off_c, 0, 57, 57
1, 209979, Note_on_c, 0, 81, 69
1, 209991, Note_on_c, 0, 60, 41
1, 210017, Note_off_c, 0, 60, 50
1, 210023, Note_off_c, 0, 81, 52
1, 210041, Note_on_c, 0, 80, 75
1, 210051, Note_on_c, 0, 64, 42
1, 210077, Note_off_c, 0, 80, 59
1, 210078, Note_off_c, 0, 64, 56
1, 210117, Note_on_c, 0, 52, 59
1, 210117, Note_on_c, 0, 81, 69
1, 210152, Note_off_c, 0, 52, 62
1, 210166, Note_off_c, 0, 81, 53
1, 210174, Note_on_c, 0, 84, 63
1, 210175, Note_on_c, 0, 57, 49
1, 210220, Note_off_c, 0, 57, 58
1, 210227, Control_c, 0, 64, 10
1, 210239, Note_on_c, 0, 60, 53
1, 210242, Control_c, 0, 64, 32
1, 210244, Note_on_c, 0, 83, 67
1, 210244, Note_off_c, 0, 84, 62
1, 210257, Control_c, 0, 64, 40
1, 210272, Control_c, 0, 64, 45
1, 210277, Note_off_c, 0, 60, 62
1, 210286, Control_c, 0, 64, 46
1, 210292, Note_off_c, 0, 83, 60
1, 210298, Note_on_c, 0, 64, 52
1, 210301, Control_c, 0, 64, 46
1, 210308, Note_on_c, 0, 81, 71
1, 210328, Note_off_c, 0, 64, 60
1, 210346, Control_c, 0, 64, 47
1, 210360, Note_off_c, 0, 81, 48
1, 210375, Control_c, 0, 64, 46
1, 210377, Note_on_c, 0, 80, 65
1, 210385, Note_on_c, 0, 52, 58
1, 210391, Control_c, 0, 64, 43
1, 210406, Control_c, 0, 64, 40
1, 210418, Note_off_c, 0, 52, 66
1, 210421, Control_c, 0, 64, 39
1, 210436, Control_c, 0, 64, 38
1, 210442, Note_on_c, 0, 78, 71
1, 210445, Note_off_c, 0, 80, 62
1, 210448, Note_on_c, 0, 59, 46
1, 210450, Control_c, 0, 64, 38
1, 210465, Control_c, 0, 64, 38
1, 210480, Note_off_c, 0, 78, 62
1, 210480, Control_c, 0, 64, 39
1, 210495, Control_c, 0, 64, 40
1, 210507, Note_off_c, 0, 59, 60
1, 210510, Control_c, 0, 64, 41
1, 210510, Note_on_c, 0, 76, 68
1, 210518, Note_on_c, 0, 62, 43
1, 210525, Control_c, 0, 64, 42
1, 210546, Note_off_c, 0, 62, 49
1, 210555, Note_off_c, 0, 76, 59
1, 210572, Note_on_c, 0, 64, 64
1, 210589, Note_on_c, 0, 75, 70
1, 210604, Note_off_c, 0, 64, 64
1, 210619, Note_off_c, 0, 75, 66
1, 210620, Control_c, 0, 64, 40
1, 210635, Control_c, 0, 64, 38
1, 210650, Control_c, 0, 64, 38
1, 210665, Note_on_c, 0, 52, 58
1, 210667, Note_on_c, 0, 76, 58
1, 210696, Note_off_c, 0, 52, 60
1, 210697, Note_off_c, 0, 76, 52
1, 210713, Note_on_c, 0, 59, 55
1, 210714, Note_on_c, 0, 78, 68
1, 210725, Control_c, 0, 64, 38
1, 210739, Control_c, 0, 64, 39
1, 210754, Control_c, 0, 64, 40
1, 210769, Control_c, 0, 64, 41
1, 210781, Note_off_c, 0, 78, 60
1, 210787, Note_on_c, 0, 79, 54
1, 210788, Note_off_c, 0, 59, 60
1, 210797, Note_on_c, 0, 62, 40
1, 210813, Control_c, 0, 64, 40
1, 210829, Note_off_c, 0, 62, 44
1, 210841, Note_on_c, 0, 64, 58
1, 210843, Note_on_c, 0, 80, 66
1, 210853, Note_off_c, 0, 79, 60
1, 210872, Control_c, 0, 64, 41
1, 210886, Note_off_c, 0, 64, 59
1, 210887, Note_off_c, 0, 80, 65
1, 210913, Note_on_c, 0, 81, 71
1, 210924, Note_on_c, 0, 52, 63
1, 210932, Control_c, 0, 64, 40
1, 210946, Control_c, 0, 64, 40
1, 210954, Note_off_c, 0, 81, 58
1, 210966, Note_off_c, 0, 52, 58
1, 210975, Note_on_c, 0, 80, 63
1, 210981, Note_on_c, 0, 57, 56
1, 211006, Note_off_c, 0, 80, 66
1, 211020, Control_c, 0, 64, 40
1, 211032, Note_on_c, 0, 60, 52
1, 211045, Note_on_c, 0, 81, 68
1, 211051, Note_off_c, 0, 57, 57
1, 211065, Note_off_c, 0, 60, 63
1, 211078, Note_off_c, 0, 81, 57
1, 211109, Note_on_c, 0, 83, 62
1, 211112, Note_on_c, 0, 64, 52
1, 211143, Note_off_c, 0, 64, 60
1, 211172, Note_off_c, 0, 83, 55
1, 211179, Note_on_c, 0, 84, 60
1, 211190, Note_on_c, 0, 52, 62
1, 211229, Note_off_c, 0, 84, 65
1, 211232, Note_on_c, 0, 85, 50
1, 211232, Note_off_c, 0, 52, 60
1, 211244, Note_on_c, 0, 57, 50
1, 211253, Note_off_c, 0, 85, 58
1, 211258, Control_c, 0, 64, 41
1, 211273, Control_c, 0, 64, 41
1, 211285, Note_on_c, 0, 60, 51
1, 211288, Control_c, 0, 64, 42
1, 211289, Note_on_c, 0, 86, 64
1, 211303, Control_c, 0, 64, 43
1, 211324, Note_off_c, 0, 60, 63
1, 211325, Control_c, 0, 64, 43
1, 211326, Note_off_c, 0, 86, 61
1, 211340, Control_c, 0, 64, 44
1, 211356, Note_on_c, 0, 64, 60
1, 211357, Note_on_c, 0, 87, 66
1, 211380, Note_off_c, 0, 57, 54
1, 211400, Note_off_c, 0, 64, 58
1, 211411, Note_off_c, 0, 87, 64
1, 211418, Note_on_c, 0, 88, 73
1, 211431, Note_on_c, 0, 52, 65
1, 211443, Control_c, 0, 64, 44
1, 211487, Note_off_c, 0, 88, 62
1, 211489, Note_on_c, 0, 87, 66
1, 211495, Note_off_c, 0, 52, 63
1, 211503, Control_c, 0, 64, 44
1, 211505, Note_on_c, 0, 56, 55
1, 211547, Control_c, 0, 64, 44
1, 211550, Note_off_c, 0, 56, 59
1, 211552, Note_off_c, 0, 87, 63
1, 211562, Control_c, 0, 64, 45
1, 211563, Note_on_c, 0, 88, 66
1, 211576, Note_on_c, 0, 59, 48
1, 211577, Control_c, 0, 64, 45
1, 211611, Note_off_c, 0, 59, 50
1, 211614, Note_off_c, 0, 88, 63
1, 211616, Note_on_c, 0, 87, 58
1, 211636, Control_c, 0, 64, 45
1, 211647, Note_on_c, 0, 64, 47
1, 211666, Note_off_c, 0, 87, 63
1, 211666, Control_c, 0, 64, 45
1, 211675, Note_on_c, 0, 88, 67
1, 211681, Note_off_c, 0, 64, 53
1, 211695, Control_c, 0, 64, 46
1, 211700, Note_on_c, 0, 52, 69
1, 211755, Note_on_c, 0, 86, 66
1, 211755, Control_c, 0, 64, 47
1, 211762, Note_off_c, 0, 52, 62
1, 211768, Note_on_c, 0, 56, 52
1, 211769, Control_c, 0, 64, 50
1, 211784, Control_c, 0, 64, 54
1, 211799, Control_c, 0, 64, 58
1, 211813, Control_c, 0, 64, 59
1, 211826, Note_off_c, 0, 56, 56
1, 211828, Note_off_c, 0, 88, 52
1, 211828, Control_c, 0, 64, 60
1, 211831, Note_on_c, 0, 84, 66
1, 211832, Note_on_c, 0, 59, 48
1, 211858, Control_c, 0, 64, 60
1, 211865, Note_off_c, 0, 59, 54
1, 211866, Note_off_c, 0, 86, 62
1, 211881, Note_off_c, 0, 84, 64
1, 211884, Note_on_c, 0, 83, 70
1, 211894, Note_on_c, 0, 64, 53
1, 211928, Note_off_c, 0, 64, 63
1, 211932, Control_c, 0, 64, 59
1, 211944, Note_off_c, 0, 83, 60
1, 211947, Control_c, 0, 64, 51
1, 211956, Note_on_c, 0, 84, 70
1, 211959, Note_on_c, 0, 52, 64
1, 211962, Control_c, 0, 64, 0
1, 212015, Note_on_c, 0, 83, 60
1, 212018, Note_off_c, 0, 52, 58
1, 212023, Note_off_c, 0, 84, 63
1, 212024, Note_on_c, 0, 57, 52
1, 212072, Note_off_c, 0, 83, 61
1, 212073, Note_off_c, 0, 57, 61
1, 212087, Note_on_c, 0, 81, 70
1, 212102, Note_on_c, 0, 60, 41
1, 212104, Control_c, 0, 64, 46
1, 212118, Control_c, 0, 64, 50
1, 212126, Note_off_c, 0, 81, 58
1, 212127, Note_off_c, 0, 60, 48
1, 212133, Control_c, 0, 64, 49
1, 212148, Control_c, 0, 64, 49
1, 212149, Note_on_c, 0, 80, 72
1, 212163, Note_on_c, 0, 64, 48
1, 212178, Control_c, 0, 64, 48
1, 212184, Note_off_c, 0, 80, 58
1, 212191, Note_off_c, 0, 64, 57
1, 212192, Control_c, 0, 64, 46
1, 212207, Control_c, 0, 64, 39
1, 212222, Control_c, 0, 64, 31
1, 212225, Note_on_c, 0, 81, 70
1, 212234, Note_on_c, 0, 52, 62
1, 212236, Control_c, 0, 64, 27
1, 212251, Control_c, 0, 64, 28
1, 212266, Control_c, 0, 64, 30
1, 212274, Note_off_c, 0, 81, 53
1, 212279, Note_on_c, 0, 84, 68
1, 212281, Control_c, 0, 64, 33
1, 212292, Note_off_c, 0, 52, 54
1, 212296, Control_c, 0, 64, 34
1, 212305, Note_on_c, 0, 57, 48
1, 212311, Control_c, 0, 64, 38
1, 212325, Control_c, 0, 64, 40
1, 212340, Control_c, 0, 64, 44
1, 212342, Note_off_c, 0, 57, 62
1, 212355, Control_c, 0, 64, 46
1, 212358, Note_on_c, 0, 83, 68
1, 212358, Note_on_c, 0, 60, 58
1, 212364, Note_off_c, 0, 84, 60
1, 212370, Control_c, 0, 64, 46
1, 212397, Note_off_c, 0, 60, 59
1, 212406, Note_off_c, 0, 83, 61
1, 212418, Note_on_c, 0, 81, 73
1, 212426, Note_on_c, 0, 64, 41
1, 212444, Control_c, 0, 64, 47
1, 212454, Note_off_c, 0, 64, 59
1, 212455, Note_off_c, 0, 81, 55
1, 212459, Control_c, 0, 64, 47
1, 212474, Control_c, 0, 64, 48
1, 212489, Control_c, 0, 64, 46
1, 212489, Note_on_c, 0, 80, 66
1, 212504, Control_c, 0, 64, 40
1, 212505, Note_on_c, 0, 52, 60
1, 212518, Control_c, 0, 64, 32
1, 212533, Control_c, 0, 64, 28
1, 212538, Note_off_c, 0, 52, 64
1, 212556, Note_on_c, 0, 78, 71
1, 212559, Note_off_c, 0, 80, 60
1, 212562, Control_c, 0, 64, 30
1, 212567, Note_on_c, 0, 59, 47
1, 212577, Control_c, 0, 64, 33
1, 212592, Control_c, 0, 64, 36
1, 212599, Note_off_c, 0, 78, 62
1, 212607, Control_c, 0, 64, 39
1, 212620, Note_off_c, 0, 59, 58
1, 212622, Control_c, 0, 64, 40
1, 212624, Note_on_c, 0, 76, 70
1, 212636, Control_c, 0, 64, 41
1, 212638, Note_on_c, 0, 62, 52
1, 212651, Control_c, 0, 64, 41
1, 212660, Note_off_c, 0, 62, 60
1, 212662, Note_off_c, 0, 76, 57
1, 212686, Note_on_c, 0, 64, 58
1, 212695, Note_on_c, 0, 75, 63
1, 212710, Control_c, 0, 64, 42
1, 212719, Note_off_c, 0, 64, 64
1, 212719, Note_off_c, 0, 75, 65
1, 212740, Control_c, 0, 64, 40
1, 212755, Control_c, 0, 64, 39
1, 212758, Note_on_c, 0, 76, 71
1, 212767, Note_on_c, 0, 52, 59
1, 212770, Control_c, 0, 64, 38
1, 212802, Note_off_c, 0, 76, 62
1, 212819, Note_off_c, 0, 52, 49
1, 212824, Note_on_c, 0, 78, 68
1, 212832, Note_on_c, 0, 59, 53
1, 212853, Control_c, 0, 64, 39
1, 212867, Control_c, 0, 64, 40
1, 212882, Control_c, 0, 64, 41
1, 212884, Note_on_c, 0, 79, 59
1, 212896, Note_off_c, 0, 78, 51
1, 212897, Control_c, 0, 64, 42
1, 212899, Note_on_c, 0, 62, 55
1, 212899, Note_off_c, 0, 59, 59
1, 212912, Control_c, 0, 64, 42
1, 212923, Note_off_c, 0, 62, 61
1, 212927, Control_c, 0, 64, 43
1, 212941, Control_c, 0, 64, 44
1, 212951, Note_on_c, 0, 80, 69
1, 212956, Note_on_c, 0, 64, 59
1, 212956, Control_c, 0, 64, 44
1, 212970, Note_off_c, 0, 79, 62
1, 212971, Control_c, 0, 64, 45
1, 212985, Control_c, 0, 64, 46
1, 212993, Note_off_c, 0, 64, 63
1, 213008, Note_off_c, 0, 80, 64
1, 213015, Control_c, 0, 64, 44
1, 213017, Note_on_c, 0, 81, 71
1, 213023, Note_on_c, 0, 52, 74
1, 213030, Control_c, 0, 64, 38
1, 213045, Control_c, 0, 64, 32
1, 213059, Control_c, 0, 64, 32
1, 213060, Note_off_c, 0, 81, 53
1, 213076, Note_on_c, 0, 80, 64
1, 213080, Note_on_c, 0, 57, 54
1, 213089, Control_c, 0, 64, 34
1, 213097, Note_off_c, 0, 52, 52
1, 213104, Control_c, 0, 64, 37
1, 213119, Control_c, 0, 64, 39
1, 213126, Note_off_c, 0, 80, 63
1, 213133, Control_c, 0, 64, 42
1, 213141, Note_on_c, 0, 60, 57
1, 213148, Control_c, 0, 64, 44
1, 213149, Note_on_c, 0, 81, 76
1, 213158, Note_off_c, 0, 57, 53
1, 213163, Control_c, 0, 64, 46
1, 213172, Note_off_c, 0, 60, 65
1, 213178, Control_c, 0, 64, 46
1, 213189, Note_off_c, 0, 81, 59
1, 213191, Note_on_c, 0, 64, 67
1, 213193, Control_c, 0, 64, 47
1, 213213, Note_on_c, 0, 83, 68
1, 213238, Control_c, 0, 64, 46
1, 213252, Control_c, 0, 64, 40
1, 213257, Note_off_c, 0, 64, 61
1, 213267, Control_c, 0, 64, 34
1, 213281, Note_on_c, 0, 84, 60
1, 213282, Note_on_c, 0, 52, 73
1, 213297, Control_c, 0, 64, 38
1, 213300, Note_off_c, 0, 83, 41
1, 213312, Control_c, 0, 64, 46
1, 213324, Note_on_c, 0, 85, 69
1, 213327, Control_c, 0, 64, 55
1, 213336, Note_on_c, 0, 57, 62
1, 213341, Control_c, 0, 64, 63
1, 213346, Note_off_c, 0, 84, 64
1, 213356, Control_c, 0, 64, 66
1, 213357, Note_off_c, 0, 85, 65
1, 213358, Note_off_c, 0, 52, 63
1, 213371, Control_c, 0, 64, 69
1, 213385, Control_c, 0, 64, 73
1, 213392, Note_on_c, 0, 86, 76
1, 213396, Note_on_c, 0, 60, 51
1, 213400, Control_c, 0, 64, 79
1, 213415, Control_c, 0, 64, 84
1, 213421, Note_off_c, 0, 60, 59
1, 213428, Note_off_c, 0, 86, 55
1, 213430, Control_c, 0, 64, 90
1, 213445, Control_c, 0, 64, 95
1, 213452, Note_on_c, 0, 64, 69
1, 213454, Note_on_c, 0, 87, 79
1, 213455, Note_off_c, 0, 57, 37
1, 213459, Control_c, 0, 64, 102
1, 213474, Control_c, 0, 64, 113
1, 213474, Control_c, 0, 67, 107
1, 213476, Note_off_c, 0, 87, 66
1, 213489, Control_c, 0, 64, 123
1, 213489, Control_c, 0, 67, 51
1, 213504, Control_c, 0, 64, 127
1, 213504, Control_c, 0, 67, 0
1, 213519, Note_on_c, 0, 88, 78
1, 213519, Control_c, 0, 64, 125
1, 213529, Note_on_c, 0, 52, 78
1, 213530, Note_off_c, 0, 64, 55
1, 213533, Control_c, 0, 64, 108
1, 213548, Control_c, 0, 64, 89
1, 213571, Control_c, 0, 64, 69
1, 213586, Control_c, 0, 64, 0
1, 213588, Note_on_c, 0, 56, 69
1, 213603, Note_on_c, 0, 83, 73
1, 213616, Note_off_c, 0, 88, 55
1, 213618, Note_off_c, 0, 52, 61
1, 213667, Note_off_c, 0, 83, 61
1, 213669, Note_off_c, 0, 56, 62
1, 213670, Note_on_c, 0, 59, 62
1, 213671, Note_on_c, 0, 80, 76
1, 213699, Note_off_c, 0, 59, 64
1, 213712, Note_off_c, 0, 80, 66
1, 213729, Note_on_c, 0, 76, 78
1, 213729, Note_on_c, 0, 64, 71
1, 213780, Note_off_c, 0, 76, 59
1, 213789, Note_off_c, 0, 64, 62
1, 213794, Note_on_c, 0, 75, 79
1, 213801, Note_on_c, 0, 63, 78
1, 213832, Note_off_c, 0, 75, 64
1, 213838, Note_off_c, 0, 63, 61
1, 213854, Note_on_c, 0, 76, 83
1, 213880, Note_on_c, 0, 64, 52
1, 213903, Note_off_c, 0, 64, 64
1, 213924, Note_on_c, 0, 60, 65
1, 213924, Note_off_c, 0, 76, 64
1, 213931, Note_on_c, 0, 81, 73
1, 213948, Note_off_c, 0, 60, 60
1, 213986, Note_on_c, 0, 84, 69
1, 213988, Note_off_c, 0, 81, 61
1, 213989, Note_on_c, 0, 57, 64
1, 214024, Note_off_c, 0, 57, 57
1, 214041, Note_on_c, 0, 52, 72
1, 214043, Note_off_c, 0, 84, 64
1, 214044, Note_on_c, 0, 88, 84
1, 214060, Control_c, 0, 64, 64
1, 214075, Control_c, 0, 64, 66
1, 214090, Control_c, 0, 64, 63
1, 214099, Note_on_c, 0, 56, 74
1, 214104, Note_on_c, 0, 83, 81
1, 214105, Control_c, 0, 64, 0
1, 214112, Note_off_c, 0, 52, 66
1, 214130, Note_off_c, 0, 88, 61
1, 214159, Note_off_c, 0, 56, 64
1, 214168, Note_on_c, 0, 59, 66
1, 214168, Note_on_c, 0, 80, 83
1, 214180, Note_off_c, 0, 83, 58
1, 214199, Note_off_c, 0, 59, 63
1, 214216, Note_on_c, 0, 64, 73
1, 214218, Note_off_c, 0, 80, 65
1, 214228, Note_on_c, 0, 76, 85
1, 214287, Note_off_c, 0, 64, 63
1, 214287, Note_on_c, 0, 63, 84
1, 214294, Note_off_c, 0, 76, 69
1, 214296, Note_on_c, 0, 75, 83
1, 214320, Control_c, 0, 64, 64
1, 214335, Control_c, 0, 64, 0
1, 214342, Note_off_c, 0, 75, 62
1, 214347, Note_off_c, 0, 63, 63
1, 214358, Note_on_c, 0, 64, 76
1, 214367, Note_on_c, 0, 76, 79
1, 214409, Note_off_c, 0, 64, 62
1, 214427, Note_on_c, 0, 60, 61
1, 214433, Note_on_c, 0, 81, 77
1, 214433, Note_off_c, 0, 76, 65
1, 214470, Note_off_c, 0, 60, 56
1, 214478, Note_on_c, 0, 57, 72
1, 214491, Note_on_c, 0, 84, 77
1, 214501, Note_off_c, 0, 81, 60
1, 214523, Note_off_c, 0, 57, 59
1, 214542, Note_on_c, 0, 52, 77
1, 214552, Note_on_c, 0, 88, 88
1, 214555, Note_off_c, 0, 84, 63
1, 214587, Control_c, 0, 64, 76
1, 214602, Control_c, 0, 64, 80
1, 214603, Note_on_c, 0, 56, 70
1, 214617, Control_c, 0, 64, 82
1, 214624, Note_on_c, 0, 83, 73
1, 214629, Note_off_c, 0, 52, 61
1, 214631, Control_c, 0, 64, 82
1, 214646, Control_c, 0, 64, 86
1, 214656, Note_off_c, 0, 88, 58
1, 214661, Control_c, 0, 64, 92
1, 214669, Note_off_c, 0, 56, 65
1, 214673, Note_on_c, 0, 80, 76
1, 214676, Note_on_c, 0, 59, 61
1, 214676, Control_c, 0, 64, 102
1, 214690, Control_c, 0, 64, 111
1, 214699, Note_off_c, 0, 83, 61
1, 214704, Control_c, 0, 64, 119
1, 214719, Control_c, 0, 64, 127
1, 214726, Note_off_c, 0, 59, 56
1, 214728, Note_on_c, 0, 76, 77
1, 214731, Note_off_c, 0, 80, 64
1, 214733, Note_on_c, 0, 64, 65
1, 214770, Note_off_c, 0, 64, 63
1, 214797, Note_on_c, 0, 52, 89
1, 214799, Note_on_c, 0, 88, 98
1, 214823, Control_c, 0, 64, 107
1, 214838, Control_c, 0, 64, 77
1, 214853, Control_c, 0, 64, 0
1, 214868, Note_on_c, 0, 57, 55
1, 214877, Note_on_c, 0, 84, 56
1, 214898, Control_c, 0, 64, 38
1, 214912, Control_c, 0, 64, 74
1, 214917, Note_on_c, 0, 60, 51
1, 214925, Note_off_c, 0, 52, 56
1, 214927, Control_c, 0, 64, 91
1, 214942, Control_c, 0, 64, 107
1, 214943, Note_off_c, 0, 88, 52
1, 214943, Note_on_c, 0, 81, 74
1, 214956, Control_c, 0, 64, 112
1, 214962, Note_off_c, 0, 76, 66
1, 214971, Control_c, 0, 64, 114
1, 214986, Control_c, 0, 64, 118
1, 214988, Note_off_c, 0, 60, 62
1, 215001, Control_c, 0, 64, 127
1, 215002, Note_on_c, 0, 64, 68
1, 215005, Note_off_c, 0, 81, 54
1, 215022, Note_on_c, 0, 76, 73
1, 215026, Note_off_c, 0, 84, 65
1, 215035, Note_off_c, 0, 57, 62
1, 215084, Note_on_c, 0, 52, 82
1, 215090, Note_on_c, 0, 88, 100
1, 215108, Note_off_c, 0, 64, 0
1, 215112, Control_c, 0, 64, 85
1, 215127, Control_c, 0, 64, 0
1, 215145, Poly_aftertouch_c, 0, 64, 127
1, 215152, Note_on_c, 0, 56, 65
1, 215184, Note_on_c, 0, 83, 75
1, 215202, Poly_aftertouch_c, 0, 64, 0
1, 215202, Control_c, 0, 64, 66
1, 215217, Control_c, 0, 64, 77
1, 215223, Note_on_c, 0, 59, 44
1, 215225, Note_off_c, 0, 52, 60
1, 215227, Note_on_c, 0, 80, 79
1, 215232, Control_c, 0, 64, 92
1, 215238, Note_off_c, 0, 76, 66
1, 215247, Control_c, 0, 64, 106
1, 215253, Note_off_c, 0, 56, 61
1, 215261, Control_c, 0, 64, 118
1, 215271, Note_off_c, 0, 83, 56
1, 215276, Control_c, 0, 64, 127
1, 215279, Note_off_c, 0, 88, 49
1, 215299, Note_off_c, 0, 80, 59
1, 215309, Note_off_c, 0, 59, 59
1, 215309, Note_on_c, 0, 76, 79
1, 215318, Note_on_c, 0, 64, 63
1, 215354, Note_off_c, 0, 64, 63
1, 215363, Note_on_c, 0, 52, 87
1, 215375, Note_on_c, 0, 88, 106
1, 215380, Control_c, 0, 64, 94
1, 215394, Control_c, 0, 64, 64
1, 215409, Control_c, 0, 64, 0
1, 215436, Note_on_c, 0, 57, 71
1, 215442, Note_on_c, 0, 84, 67
1, 215453, Control_c, 0, 64, 68
1, 215468, Control_c, 0, 64, 86
1, 215483, Control_c, 0, 64, 106
1, 215491, Note_on_c, 0, 60, 68
1, 215498, Control_c, 0, 64, 122
1, 215503, Note_off_c, 0, 52, 38
1, 215512, Note_off_c, 0, 88, 54
1, 215513, Note_on_c, 0, 81, 81
1, 215513, Control_c, 0, 64, 127
1, 215525, Note_off_c, 0, 57, 60
1, 215530, Note_off_c, 0, 76, 64
1, 215548, Note_off_c, 0, 60, 60
1, 215571, Note_on_c, 0, 64, 55
1, 215594, Note_on_c, 0, 76, 81
1, 215597, Note_off_c, 0, 81, 55
1, 215615, Note_off_c, 0, 64, 61
1, 215616, Note_off_c, 0, 84, 55
1, 215676, Note_on_c, 0, 88, 101
1, 215676, Control_c, 0, 64, 114
1, 215676, Note_on_c, 0, 52, 83
1, 215678, Note_on_c, 0, 64, 98
1, 215679, Note_on_c, 0, 56, 81
1, 215682, Note_on_c, 0, 59, 87
1, 215691, Control_c, 0, 64, 77
1, 215706, Control_c, 0, 64, 0
1, 215758, Note_on_c, 0, 83, 76
1, 215785, Note_off_c, 0, 88, 58
1, 215800, Note_on_c, 0, 80, 78
1, 215816, Control_c, 0, 64, 57
1, 215819, Note_off_c, 0, 76, 63
1, 215831, Control_c, 0, 64, 77
1, 215846, Note_off_c, 0, 83, 54
1, 215846, Control_c, 0, 64, 85
1, 215861, Control_c, 0, 64, 91
1, 215876, Control_c, 0, 64, 92
1, 215878, Note_off_c, 0, 80, 64
1, 215881, Note_on_c, 0, 76, 71
1, 215891, Control_c, 0, 64, 95
1, 215905, Control_c, 0, 64, 98
1, 215920, Control_c, 0, 64, 102
1, 215924, Note_off_c, 0, 76, 66
1, 215935, Control_c, 0, 64, 104
1, 215950, Control_c, 0, 64, 105
1, 215957, Note_on_c, 0, 83, 85
1, 215965, Control_c, 0, 64, 106
1, 215980, Control_c, 0, 64, 106
1, 215995, Control_c, 0, 64, 108
1, 216010, Control_c, 0, 64, 110
1, 216025, Control_c, 0, 64, 113
1, 216028, Note_off_c, 0, 52, 60
1, 216031, Note_on_c, 0, 80, 63
1, 216038, Note_off_c, 0, 64, 59
1, 216040, Control_c, 0, 64, 116
1, 216055, Control_c, 0, 64, 119
1, 216069, Control_c, 0, 64, 123
1, 216084, Control_c, 0, 64, 127
1, 216086, Note_off_c, 0, 83, 51
1, 216088, Note_on_c, 0, 76, 64
1, 216115, Note_off_c, 0, 59, 55
1, 216120, Note_off_c, 0, 80, 63
1, 216141, Note_off_c, 0, 56, 62
1, 216147, Note_on_c, 0, 71, 74
1, 216179, Note_off_c, 0, 76, 64
1, 216210, Note_on_c, 0, 80, 88
1, 216217, Control_c, 0, 64, 104
1, 216224, Note_off_c, 0, 71, 59
1, 216232, Control_c, 0, 64, 78
1, 216247, Control_c, 0, 64, 0
1, 216267, Note_on_c, 0, 76, 61
1, 216289, Note_off_c, 0, 76, 68
1, 216290, Note_off_c, 0, 80, 63
1, 216291, Control_c, 0, 64, 60
1, 216306, Control_c, 0, 64, 78
1, 216321, Control_c, 0, 64, 94
1, 216326, Note_on_c, 0, 71, 71
1, 216336, Control_c, 0, 64, 106
1, 216349, Note_off_c, 0, 71, 62
1, 216350, Control_c, 0, 64, 109
1, 216365, Control_c, 0, 64, 112
1, 216380, Control_c, 0, 64, 116
1, 216395, Control_c, 0, 64, 125
1, 216403, Note_on_c, 0, 68, 64
1, 216409, Control_c, 0, 64, 127
1, 216426, Note_off_c, 0, 68, 63
1, 216457, Note_on_c, 0, 76, 84
1, 216469, Control_c, 0, 64, 103
1, 216484, Control_c, 0, 64, 79
1, 216499, Control_c, 0, 64, 0
1, 216536, Note_on_c, 0, 71, 63
1, 216540, Note_off_c, 0, 76, 62
1, 216543, Control_c, 0, 64, 64
1, 216565, Control_c, 0, 64, 77
1, 216580, Control_c, 0, 64, 90
1, 216587, Note_off_c, 0, 71, 59
1, 216589, Note_on_c, 0, 68, 71
1, 216595, Control_c, 0, 64, 102
1, 216609, Control_c, 0, 64, 105
1, 216621, Note_off_c, 0, 68, 64
1, 216624, Control_c, 0, 64, 108
1, 216639, Control_c, 0, 64, 114
1, 216651, Note_on_c, 0, 64, 73
1, 216654, Control_c, 0, 64, 122
1, 216669, Control_c, 0, 64, 127
1, 216678, Note_off_c, 0, 64, 69
1, 216713, Control_c, 0, 64, 105
1, 216715, Note_on_c, 0, 71, 75
1, 216728, Control_c, 0, 64, 82
1, 216743, Control_c, 0, 64, 39
1, 216758, Control_c, 0, 64, 0
1, 216759, Note_on_c, 0, 68, 62
1, 216788, Control_c, 0, 64, 52
1, 216797, Note_off_c, 0, 71, 59
1, 216803, Control_c, 0, 64, 72
1, 216818, Control_c, 0, 64, 85
1, 216826, Note_on_c, 0, 64, 70
1, 216833, Control_c, 0, 64, 97
1, 216847, Control_c, 0, 64, 101
1, 216862, Control_c, 0, 64, 104
1, 216863, Note_off_c, 0, 68, 63
1, 216877, Control_c, 0, 64, 109
1, 216892, Control_c, 0, 64, 116
1, 216895, Note_on_c, 0, 59, 73
1, 216907, Control_c, 0, 64, 127
1, 216923, Note_off_c, 0, 64, 60
1, 216952, Control_c, 0, 64, 111
1, 216958, Note_on_c, 0, 68, 84
1, 216967, Control_c, 0, 64, 84
1, 216970, Note_off_c, 0, 59, 59
1, 216981, Control_c, 0, 64, 58
1, 216996, Control_c, 0, 64, 0
1, 217026, Control_c, 0, 64, 65
1, 217026, Note_off_c, 0, 68, 63
1, 217040, Control_c, 0, 64, 79
1, 217055, Control_c, 0, 64, 94
1, 217070, Control_c, 0, 64, 106
1, 217078, Note_on_c, 0, 59, 58
1, 217085, Control_c, 0, 64, 108
1, 217100, Control_c, 0, 64, 111
1, 217101, Poly_aftertouch_c, 0, 64, 0
1, 217107, Note_off_c, 0, 59, 48
1, 217114, Control_c, 0, 64, 114
1, 217129, Control_c, 0, 64, 121
1, 217143, Note_on_c, 0, 56, 68
1, 217144, Control_c, 0, 64, 127
1, 217181, Note_off_c, 0, 56, 54
1, 217200, Note_on_c, 0, 64, 82
1, 217203, Control_c, 0, 64, 114
1, 217218, Control_c, 0, 64, 93
1, 217232, Control_c, 0, 64, 73
1, 217247, Control_c, 0, 64, 0
1, 217274, Note_on_c, 0, 59, 71
1, 217333, Note_on_c, 0, 56, 71
1, 217358, Control_c, 0, 64, 36
1, 217361, Note_off_c, 0, 64, 39
1, 217373, Control_c, 0, 64, 65
1, 217375, Note_off_c, 0, 59, 59
1, 217388, Control_c, 0, 64, 73
1, 217397, Note_on_c, 0, 52, 74
1, 217403, Control_c, 0, 64, 82
1, 217417, Note_off_c, 0, 56, 60
1, 217418, Control_c, 0, 64, 92
1, 217432, Control_c, 0, 64, 97
1, 217447, Control_c, 0, 64, 100
1, 217459, Note_on_c, 0, 40, 83
1, 217462, Control_c, 0, 64, 100
1, 217467, Note_off_c, 0, 52, 61
1, 217477, Control_c, 0, 64, 98
1, 217492, Control_c, 0, 64, 86
1, 217504, Note_on_c, 0, 44, 76
1, 217506, Control_c, 0, 64, 68
1, 217521, Control_c, 0, 64, 0
1, 217562, Note_off_c, 0, 40, 59
1, 217577, Note_on_c, 0, 47, 79
1, 217617, Note_off_c, 0, 44, 63
1, 217642, Note_on_c, 0, 52, 85
1, 217647, Note_off_c, 0, 47, 63
1, 217682, Note_off_c, 0, 52, 68
1, 217707, Note_on_c, 0, 40, 92
1, 217764, Note_off_c, 0, 40, 65
1, 217852, Note_on_c, 0, 52, 81
1, 217892, Note_off_c, 0, 52, 68
1, 217980, Note_on_c, 0, 42, 86
1, 218014, Note_off_c, 0, 42, 67
1, 218124, Note_on_c, 0, 54, 88
1, 218159, Note_off_c, 0, 54, 64
1, 218263, Note_on_c, 0, 44, 84
1, 218265, Note_on_c, 0, 76, 92
1, 218294, Note_off_c, 0, 44, 67
1, 218326, Note_off_c, 0, 76, 65
1, 218396, Note_on_c, 0, 64, 74
1, 218404, Note_on_c, 0, 56, 77
1, 218432, Note_off_c, 0, 56, 67
1, 218436, Note_off_c, 0, 64, 64
1, 218531, Note_on_c, 0, 78, 95
1, 218580, Note_off_c, 0, 78, 64
1, 218664, Note_on_c, 0, 66, 78
1, 218702, Note_off_c, 0, 66, 65
1, 218794, Note_on_c, 0, 80, 98
1, 218795, Note_on_c, 0, 44, 78
1, 218840, Note_off_c, 0, 44, 66
1, 218850, Note_off_c, 0, 80, 65
1, 218945, Note_on_c, 0, 56, 71
1, 218945, Note_on_c, 0, 68, 75
1, 218969, Note_off_c, 0, 68, 69
1, 218979, Note_off_c, 0, 56, 62
1, 219072, Note_on_c, 0, 45, 76
1, 219118, Note_off_c, 0, 45, 65
1, 219202, Note_on_c, 0, 57, 88
1, 219249, Note_off_c, 0, 57, 62
1, 219340, Note_on_c, 0, 47, 86
1, 219341, Note_on_c, 0, 80, 88
1, 219389, Note_off_c, 0, 47, 62
1, 219400, Note_off_c, 0, 80, 64
1, 219476, Note_on_c, 0, 68, 75
1, 219478, Note_on_c, 0, 59, 69
1, 219506, Note_off_c, 0, 59, 66
1, 219523, Note_off_c, 0, 68, 62
1, 219623, Note_on_c, 0, 81, 75
1, 219661, Note_off_c, 0, 81, 58
1, 219694, Control_c, 0, 67, 10
1, 219709, Control_c, 0, 67, 18
1, 219724, Control_c, 0, 67, 32
1, 219739, Control_c, 0, 67, 50
1, 219753, Control_c, 0, 67, 68
1, 219755, Note_on_c, 0, 69, 69
1, 219768, Control_c, 0, 67, 87
1, 219783, Control_c, 0, 67, 111
1, 219795, Note_off_c, 0, 69, 62
1, 219798, Control_c, 0, 67, 127
1, 219887, Note_on_c, 0, 83, 78
1, 219933, Note_off_c, 0, 83, 59
1, 220022, Note_on_c, 0, 71, 63
1, 220051, Note_off_c, 0, 71, 65
1, 220153, Note_on_c, 0, 85, 72
1, 220193, Note_off_c, 0, 85, 57
1, 220307, Note_on_c, 0, 73, 58
1, 220346, Note_off_c, 0, 73, 61
1, 220445, Note_on_c, 0, 86, 67
1, 220454, Note_on_c, 0, 47, 43
1, 220488, Note_off_c, 0, 47, 57
1, 220488, Note_off_c, 0, 86, 58
1, 220580, Note_on_c, 0, 59, 45
1, 220581, Note_on_c, 0, 74, 61
1, 220612, Note_off_c, 0, 74, 63
1, 220615, Note_off_c, 0, 59, 57
1, 220717, Note_on_c, 0, 86, 70
1, 220728, Note_on_c, 0, 49, 45
1, 220764, Note_off_c, 0, 86, 55
1, 220765, Note_off_c, 0, 49, 49
1, 220842, Note_on_c, 0, 76, 73
1, 220855, Note_on_c, 0, 61, 51
1, 220877, Note_off_c, 0, 61, 62
1, 220899, Note_off_c, 0, 76, 64
1, 220979, Note_on_c, 0, 50, 54
1, 220982, Note_on_c, 0, 86, 76
1, 221024, Note_off_c, 0, 50, 62
1, 221050, Note_off_c, 0, 86, 58
1, 221116, Note_on_c, 0, 78, 83
1, 221125, Note_on_c, 0, 62, 50
1, 221169, Note_off_c, 0, 78, 63
1, 221170, Note_off_c, 0, 62, 59
1, 221259, Note_on_c, 0, 86, 71
1, 221269, Note_on_c, 0, 52, 44
1, 221298, Note_off_c, 0, 52, 62
1, 221316, Note_off_c, 0, 86, 59
1, 221391, Note_on_c, 0, 80, 79
1, 221399, Note_on_c, 0, 64, 48
1, 221436, Note_off_c, 0, 64, 64
1, 221450, Note_off_c, 0, 80, 63
1, 221551, Note_on_c, 0, 54, 54
1, 221552, Note_on_c, 0, 86, 64
1, 221590, Note_off_c, 0, 54, 60
1, 221608, Note_off_c, 0, 86, 55
1, 221696, Note_on_c, 0, 81, 69
1, 221706, Note_on_c, 0, 66, 57
1, 221742, Note_off_c, 0, 81, 61
1, 221743, Note_off_c, 0, 66, 66
1, 221884, Note_on_c, 0, 86, 68
1, 221898, Note_on_c, 0, 56, 50
1, 221942, Note_off_c, 0, 56, 60
1, 221954, Note_off_c, 0, 86, 61
1, 222118, Note_on_c, 0, 83, 68
1, 222124, Note_on_c, 0, 68, 49
1, 222187, Note_off_c, 0, 83, 59
1, 222204, Note_off_c, 0, 68, 47
1, 222550, Note_on_c, 0, 85, 72
1, 222559, Note_on_c, 0, 81, 56
1, 222564, Note_on_c, 0, 76, 41
1, 222576, Note_on_c, 0, 73, 24
1, 222580, Note_on_c, 0, 64, 31
1, 222583, Note_on_c, 0, 57, 33
1, 222586, Note_on_c, 0, 61, 29
1, 222592, Note_on_c, 0, 69, 7
1, 222675, Control_c, 0, 64, 34
1, 222690, Control_c, 0, 64, 56
1, 222705, Control_c, 0, 64, 63
1, 222720, Control_c, 0, 64, 66
1, 222734, Control_c, 0, 64, 69
1, 222749, Control_c, 0, 64, 73
1, 222764, Control_c, 0, 64, 77
1, 222778, Control_c, 0, 64, 81
1, 222785, Note_off_c, 0, 69, 41
1, 222793, Control_c, 0, 64, 82
1, 222808, Control_c, 0, 64, 83
1, 222823, Control_c, 0, 64, 84
1, 222838, Note_off_c, 0, 64, 41
1, 222838, Control_c, 0, 64, 85
1, 222848, Note_off_c, 0, 73, 37
1, 222849, Note_off_c, 0, 81, 58
1, 222852, Control_c, 0, 64, 86
1, 222866, Note_off_c, 0, 85, 64
1, 222867, Control_c, 0, 64, 87
1, 222882, Control_c, 0, 64, 87
1, 222897, Control_c, 0, 64, 88
1, 222912, Control_c, 0, 64, 88
1, 222926, Control_c, 0, 64, 89
1, 222937, Note_off_c, 0, 57, 35
1, 222955, Note_off_c, 0, 61, 40
1, 222956, Control_c, 0, 64, 89
1, 222985, Control_c, 0, 64, 90
1, 223062, Note_off_c, 0, 76, 33
1, 223224, Control_c, 0, 64, 89
1, 223239, Control_c, 0, 64, 88
1, 223253, Control_c, 0, 64, 84
1, 223268, Note_on_c, 0, 83, 70
1, 223268, Control_c, 0, 64, 74
1, 223283, Control_c, 0, 64, 0
1, 223284, Note_on_c, 0, 52, 40
1, 223285, Note_on_c, 0, 56, 33
1, 223286, Note_on_c, 0, 80, 56
1, 223304, Note_on_c, 0, 76, 35
1, 223311, Note_on_c, 0, 59, 27
1, 223313, Note_on_c, 0, 64, 13
1, 223321, Note_on_c, 0, 71, 16
1, 223364, Control_c, 0, 64, 64
1, 223375, Note_off_c, 0, 76, 50
1, 223379, Control_c, 0, 64, 75
1, 223394, Control_c, 0, 64, 82
1, 223401, Note_off_c, 0, 52, 65
1, 223408, Control_c, 0, 64, 85
1, 223411, Note_off_c, 0, 83, 56
1, 223422, Note_off_c, 0, 59, 37
1, 223423, Control_c, 0, 64, 85
1, 223433, Note_off_c, 0, 56, 48
1, 223438, Control_c, 0, 64, 86
1, 223443, Note_off_c, 0, 64, 40
1, 223453, Control_c, 0, 64, 87
1, 223466, Note_off_c, 0, 71, 49
1, 223468, Control_c, 0, 64, 88
1, 223475, Note_off_c, 0, 80, 60
1, 223483, Control_c, 0, 64, 89
1, 223498, Control_c, 0, 64, 90
1, 223513, Control_c, 0, 64, 90
1, 223543, Control_c, 0, 64, 91
1, 223601, Control_c, 0, 64, 90
1, 223616, Control_c, 0, 64, 87
1, 223624, Note_on_c, 0, 81, 80
1, 223631, Control_c, 0, 64, 79
1, 223638, Note_on_c, 0, 69, 54
1, 223639, Note_on_c, 0, 78, 67
1, 223641, Note_on_c, 0, 61, 45
1, 223646, Control_c, 0, 64, 66
1, 223652, Note_on_c, 0, 66, 42
1, 223660, Note_on_c, 0, 57, 22
1, 223661, Control_c, 0, 64, 0
1, 223662, Note_on_c, 0, 73, 35
1, 223665, Note_on_c, 0, 54, 33
1, 223680, Note_off_c, 0, 69, 0
1, 223680, Note_on_c, 0, 69, 25
1, 223719, Control_c, 0, 64, 61
1, 223726, Note_off_c, 0, 66, 55
1, 223734, Control_c, 0, 64, 70
1, 223744, Note_off_c, 0, 61, 61
1, 223746, Note_off_c, 0, 81, 60
1, 223749, Control_c, 0, 64, 77
1, 223764, Control_c, 0, 64, 83
1, 223766, Note_off_c, 0, 78, 64
1, 223769, Note_off_c, 0, 57, 40
1, 223778, Note_off_c, 0, 69, 60
1, 223779, Control_c, 0, 64, 84
1, 223793, Control_c, 0, 64, 84
1, 223808, Control_c, 0, 64, 85
1, 223810, Note_off_c, 0, 54, 54
1, 223821, Note_off_c, 0, 73, 57
1, 223823, Control_c, 0, 64, 87
1, 223838, Control_c, 0, 64, 88
1, 223853, Control_c, 0, 64, 89
1, 223867, Control_c, 0, 64, 90
1, 223882, Control_c, 0, 64, 91
1, 223897, Control_c, 0, 64, 92
1, 223912, Control_c, 0, 64, 92
1, 223927, Control_c, 0, 64, 93
1, 224031, Control_c, 0, 64, 92
1, 224054, Control_c, 0, 64, 88
1, 224056, Note_on_c, 0, 80, 82
1, 224060, Note_on_c, 0, 77, 63
1, 224066, Note_on_c, 0, 71, 56
1, 224069, Control_c, 0, 64, 81
1, 224070, Note_on_c, 0, 68, 47
1, 224071, Note_on_c, 0, 49, 39
1, 224077, Note_on_c, 0, 56, 44
1, 224084, Note_on_c, 0, 53, 44
1, 224084, Note_on_c, 0, 61, 30
1, 224084, Control_c, 0, 64, 70
1, 224098, Control_c, 0, 64, 0
1, 224231, Control_c, 0, 64, 60
1, 224246, Control_c, 0, 64, 66
1, 224261, Control_c, 0, 64, 69
1, 224276, Control_c, 0, 64, 73
1, 224291, Control_c, 0, 64, 78
1, 224306, Control_c, 0, 64, 81
1, 224321, Control_c, 0, 64, 82
1, 224330, Note_off_c, 0, 80, 64
1, 224335, Control_c, 0, 64, 84
1, 224347, Note_off_c, 0, 49, 51
1, 224350, Control_c, 0, 64, 85
1, 224359, Note_off_c, 0, 61, 38
1, 224365, Control_c, 0, 64, 86
1, 224380, Control_c, 0, 64, 87
1, 224389, Note_off_c, 0, 53, 33
1, 224395, Control_c, 0, 64, 88
1, 224400, Note_off_c, 0, 71, 59
1, 224410, Control_c, 0, 64, 89
1, 224425, Control_c, 0, 64, 89
1, 224440, Control_c, 0, 64, 90
1, 224461, Note_off_c, 0, 56, 36
1, 224487, Note_off_c, 0, 77, 34
1, 224507, Note_off_c, 0, 68, 58
1, 224766, Control_c, 0, 64, 89
1, 224781, Control_c, 0, 64, 86
1, 224803, Control_c, 0, 64, 80
1, 224812, Note_on_c, 0, 78, 68
1, 224817, Note_on_c, 0, 66, 44
1, 224818, Control_c, 0, 64, 70
1, 224821, Note_on_c, 0, 54, 43
1, 224828, Note_on_c, 0, 57, 28
1, 224830, Note_on_c, 0, 50, 27
1, 224830, Note_on_c, 0, 69, 39
1, 224833, Control_c, 0, 64, 35
1, 224835, Note_on_c, 0, 74, 39
1, 224843, Note_on_c, 0, 62, 7
1, 224848, Control_c, 0, 64, 0
1, 224966, Control_c, 0, 64, 58
1, 224981, Control_c, 0, 64, 67
1, 224996, Control_c, 0, 64, 72
1, 225011, Control_c, 0, 64, 77
1, 225025, Note_off_c, 0, 62, 39
1, 225026, Control_c, 0, 64, 78
1, 225040, Control_c, 0, 64, 79
1, 225047, Note_off_c, 0, 69, 42
1, 225055, Control_c, 0, 64, 80
1, 225067, Note_off_c, 0, 57, 40
1, 225070, Control_c, 0, 64, 81
1, 225085, Control_c, 0, 64, 82
1, 225100, Control_c, 0, 64, 83
1, 225105, Note_off_c, 0, 66, 43
1, 225108, Note_off_c, 0, 74, 37
1, 225114, Control_c, 0, 64, 84
1, 225129, Control_c, 0, 64, 84
1, 225131, Note_off_c, 0, 50, 35
1, 225159, Control_c, 0, 64, 85
1, 225173, Control_c, 0, 64, 85
1, 225203, Control_c, 0, 64, 86
1, 225212, Note_off_c, 0, 54, 34
1, 225221, Note_off_c, 0, 78, 57
1, 225233, Control_c, 0, 64, 86
1, 225292, Control_c, 0, 64, 87
1, 225529, Control_c, 0, 64, 86
1, 225552, Control_c, 0, 64, 85
1, 225557, Note_on_c, 0, 80, 80
1, 225558, Note_on_c, 0, 68, 61
1, 225561, Note_on_c, 0, 56, 46
1, 225567, Note_on_c, 0, 52, 46
1, 225567, Control_c, 0, 64, 83
1, 225573, Note_on_c, 0, 59, 45
1, 225573, Note_on_c, 0, 74, 47
1, 225573, Note_on_c, 0, 76, 54
1, 225576, Note_on_c, 0, 47, 43
1, 225582, Control_c, 0, 64, 79
1, 225596, Control_c, 0, 64, 74
1, 225611, Control_c, 0, 64, 65
1, 225626, Control_c, 0, 64, 0
1, 225641, Note_off_c, 0, 59, 0
1, 225641, Note_on_c, 0, 59, 3
1, 225731, Control_c, 0, 64, 59
1, 225745, Control_c, 0, 64, 68
1, 225760, Control_c, 0, 64, 74
1, 225775, Control_c, 0, 64, 80
1, 225789, Control_c, 0, 64, 82
1, 225804, Control_c, 0, 64, 83
1, 225805, Note_off_c, 0, 52, 60
1, 225816, Note_off_c, 0, 47, 44
1, 225816, Note_off_c, 0, 59, 41
1, 225819, Control_c, 0, 64, 85
1, 225833, Note_off_c, 0, 76, 36
1, 225834, Control_c, 0, 64, 87
1, 225834, Control_c, 0, 67, 125
1, 225849, Control_c, 0, 64, 89
1, 225849, Control_c, 0, 67, 105
1, 225863, Control_c, 0, 64, 91
1, 225863, Control_c, 0, 67, 88
1, 225878, Control_c, 0, 64, 93
1, 225878, Control_c, 0, 67, 72
1, 225893, Control_c, 0, 64, 94
1, 225893, Control_c, 0, 67, 56
1, 225908, Control_c, 0, 64, 96
1, 225908, Control_c, 0, 67, 41
1, 225915, Note_off_c, 0, 80, 48
1, 225916, Note_off_c, 0, 68, 56
1, 225923, Control_c, 0, 64, 97
1, 225923, Control_c, 0, 67, 30
1, 225937, Control_c, 0, 64, 99
1, 225937, Control_c, 0, 67, 21
1, 225952, Control_c, 0, 64, 100
1, 225952, Control_c, 0, 67, 13
1, 225966, Note_off_c, 0, 56, 52
1, 225967, Control_c, 0, 64, 101
1, 225967, Control_c, 0, 67, 8
1, 225982, Control_c, 0, 64, 102
1, 225982, Control_c, 0, 67, 0
1, 225996, Control_c, 0, 64, 103
1, 226011, Control_c, 0, 64, 103
1, 226041, Control_c, 0, 64, 104
1, 226070, Control_c, 0, 64, 104
1, 226100, Control_c, 0, 64, 105
1, 226219, Control_c, 0, 64, 101
1, 226234, Control_c, 0, 64, 91
1, 226249, Control_c, 0, 64, 73
1, 226251, Note_on_c, 0, 57, 49
1, 226251, Note_on_c, 0, 81, 85
1, 226255, Note_on_c, 0, 49, 50
1, 226261, Note_on_c, 0, 61, 41
1, 226263, Control_c, 0, 64, 0
1, 226265, Note_on_c, 0, 69, 61
1, 226265, Note_on_c, 0, 76, 59
1, 226285, Note_on_c, 0, 52, 34
1, 226297, Note_off_c, 0, 74, 58
1, 226330, Control_c, 0, 64, 58
1, 226345, Note_off_c, 0, 76, 64
1, 226345, Control_c, 0, 64, 72
1, 226352, Note_off_c, 0, 52, 59
1, 226356, Note_off_c, 0, 57, 61
1, 226360, Control_c, 0, 64, 80
1, 226375, Control_c, 0, 64, 85
1, 226388, Note_off_c, 0, 69, 57
1, 226390, Control_c, 0, 64, 86
1, 226399, Note_off_c, 0, 49, 52
1, 226405, Control_c, 0, 64, 86
1, 226410, Note_off_c, 0, 61, 56
1, 226414, Note_off_c, 0, 81, 59
1, 226419, Control_c, 0, 64, 87
1, 226434, Control_c, 0, 64, 88
1, 226449, Control_c, 0, 64, 90
1, 226464, Control_c, 0, 64, 92
1, 226479, Control_c, 0, 64, 93
1, 226494, Control_c, 0, 64, 94
1, 226509, Control_c, 0, 64, 95
1, 226523, Control_c, 0, 64, 97
1, 226538, Control_c, 0, 64, 98
1, 226553, Control_c, 0, 64, 99
1, 226598, Control_c, 0, 64, 99
1, 226599, Note_on_c, 0, 83, 86
1, 226612, Note_on_c, 0, 78, 74
1, 226612, Control_c, 0, 64, 92
1, 226622, Note_on_c, 0, 59, 42
1, 226622, Note_on_c, 0, 71, 60
1, 226623, Note_on_c, 0, 54, 51
1, 226627, Control_c, 0, 64, 78
1, 226628, Note_on_c, 0, 62, 50
1, 226642, Control_c, 0, 64, 0
1, 226646, Note_on_c, 0, 50, 38
1, 226658, Note_off_c, 0, 59, 0
1, 226658, Note_on_c, 0, 59, 7
1, 226699, Control_c, 0, 64, 55
1, 226714, Control_c, 0, 64, 70
1, 226729, Control_c, 0, 64, 79
1, 226744, Control_c, 0, 64, 84
1, 226750, Note_off_c, 0, 83, 61
1, 226760, Note_off_c, 0, 50, 39
1, 226774, Control_c, 0, 64, 84
1, 226775, Note_off_c, 0, 71, 45
1, 226782, Note_off_c, 0, 59, 37
1, 226789, Control_c, 0, 64, 85
1, 226801, Note_off_c, 0, 54, 34
1, 226804, Control_c, 0, 64, 86
1, 226813, Note_off_c, 0, 78, 58
1, 226818, Control_c, 0, 64, 88
1, 226833, Control_c, 0, 64, 89
1, 226842, Note_off_c, 0, 62, 39
1, 226848, Control_c, 0, 64, 90
1, 226863, Control_c, 0, 64, 91
1, 226878, Control_c, 0, 64, 92
1, 226892, Control_c, 0, 64, 93
1, 226907, Control_c, 0, 64, 94
1, 226922, Control_c, 0, 64, 95
1, 226936, Control_c, 0, 64, 96
1, 226951, Control_c, 0, 64, 97
1, 226966, Control_c, 0, 64, 98
1, 226981, Control_c, 0, 64, 98
1, 227063, Control_c, 0, 64, 98
1, 227072, Note_on_c, 0, 85, 90
1, 227078, Control_c, 0, 64, 95
1, 227080, Note_on_c, 0, 76, 70
1, 227081, Note_on_c, 0, 81, 76
1, 227084, Note_on_c, 0, 73, 68
1, 227084, Note_on_c, 0, 52, 53
1, 227084, Note_on_c, 0, 61, 54
1, 227085, Note_on_c, 0, 64, 56
1, 227087, Note_on_c, 0, 57, 52
1, 227092, Control_c, 0, 64, 89
1, 227107, Control_c, 0, 64, 80
1, 227122, Control_c, 0, 64, 65
1, 227136, Control_c, 0, 64, 0
1, 227286, Control_c, 0, 64, 43
1, 227301, Control_c, 0, 64, 65
1, 227315, Control_c, 0, 64, 69
1, 227330, Control_c, 0, 64, 73
1, 227345, Control_c, 0, 64, 78
1, 227360, Control_c, 0, 64, 81
1, 227374, Control_c, 0, 64, 82
1, 227380, Note_off_c, 0, 64, 52
1, 227389, Control_c, 0, 64, 84
1, 227404, Control_c, 0, 64, 86
1, 227404, Control_c, 0, 67, 8
1, 227405, Note_off_c, 0, 85, 63
1, 227419, Control_c, 0, 64, 88
1, 227419, Control_c, 0, 67, 11
1, 227430, Note_off_c, 0, 73, 59
1, 227433, Note_off_c, 0, 81, 53
1, 227434, Control_c, 0, 64, 89
1, 227434, Control_c, 0, 67, 16
1, 227448, Control_c, 0, 64, 91
1, 227448, Control_c, 0, 67, 22
1, 227463, Control_c, 0, 64, 92
1, 227463, Control_c, 0, 67, 31
1, 227478, Control_c, 0, 64, 93
1, 227478, Control_c, 0, 67, 38
1, 227493, Control_c, 0, 64, 93
1, 227493, Control_c, 0, 67, 46
1, 227502, Note_off_c, 0, 57, 37
1, 227508, Control_c, 0, 64, 94
1, 227508, Control_c, 0, 67, 53
1, 227522, Control_c, 0, 64, 95
1, 227522, Control_c, 0, 67, 62
1, 227537, Control_c, 0, 67, 70
1, 227539, Note_off_c, 0, 61, 62
1, 227552, Control_c, 0, 64, 95
1, 227552, Control_c, 0, 67, 79
1, 227567, Control_c, 0, 67, 89
1, 227582, Control_c, 0, 67, 98
1, 227597, Control_c, 0, 67, 106
1, 227611, Control_c, 0, 64, 96
1, 227611, Control_c, 0, 67, 112
1, 227626, Control_c, 0, 67, 117
1, 227641, Control_c, 0, 67, 122
1, 227656, Control_c, 0, 67, 127
1, 227671, Control_c, 0, 67, 127
1, 227796, Control_c, 0, 64, 95
1, 227841, Control_c, 0, 64, 94
1, 227856, Control_c, 0, 64, 89
1, 227871, Control_c, 0, 64, 82
1, 227871, Note_on_c, 0, 83, 65
1, 227881, Note_on_c, 0, 56, 40
1, 227884, Note_on_c, 0, 80, 55
1, 227885, Control_c, 0, 64, 69
1, 227886, Note_on_c, 0, 64, 32
1, 227900, Control_c, 0, 64, 0
1, 227904, Note_on_c, 0, 59, 24
1, 227954, Poly_aftertouch_c, 0, 71, 127
1, 228014, Note_off_c, 0, 76, 64
1, 228020, Control_c, 0, 64, 57
1, 228035, Control_c, 0, 64, 67
1, 228050, Control_c, 0, 64, 71
1, 228064, Control_c, 0, 64, 75
1, 228079, Control_c, 0, 64, 78
1, 228094, Control_c, 0, 64, 79
1, 228109, Control_c, 0, 64, 79
1, 228124, Control_c, 0, 64, 80
1, 228138, Control_c, 0, 64, 81
1, 228153, Control_c, 0, 64, 82
1, 228155, Note_off_c, 0, 83, 32
1, 228169, Control_c, 0, 64, 82
1, 228184, Control_c, 0, 64, 83
1, 228186, Note_off_c, 0, 80, 56
1, 228209, Note_off_c, 0, 64, 39
1, 228226, Note_on_c, 0, 74, 57
1, 228228, Control_c, 0, 64, 83
1, 228243, Control_c, 0, 64, 84
1, 228283, Poly_aftertouch_c, 0, 71, 0
1, 228287, Control_c, 0, 64, 84
1, 228290, Note_off_c, 0, 56, 37
1, 228317, Note_off_c, 0, 74, 64
1, 228320, Poly_aftertouch_c, 0, 71, 127
1, 228346, Control_c, 0, 64, 85
1, 228378, Poly_aftertouch_c, 0, 71, 0
1, 228395, Note_off_c, 0, 52, 42
1, 228606, Note_off_c, 0, 59, 24
1, 228664, Control_c, 0, 64, 84
1, 228670, Note_on_c, 0, 72, 63
1, 228679, Control_c, 0, 64, 83
1, 228685, Note_on_c, 0, 60, 35
1, 228688, Note_on_c, 0, 57, 28
1, 228689, Note_on_c, 0, 69, 45
1, 228694, Control_c, 0, 64, 80
1, 228699, Note_on_c, 0, 64, 41
1, 228708, Control_c, 0, 64, 77
1, 228723, Control_c, 0, 64, 73
1, 228738, Control_c, 0, 64, 64
1, 228753, Control_c, 0, 64, 0
1, 228806, Note_off_c, 0, 69, 0
1, 228840, Note_on_c, 0, 69, 15
1, 228946, Control_c, 0, 64, 42
1, 228961, Control_c, 0, 64, 63
1, 228976, Control_c, 0, 64, 68
1, 228991, Control_c, 0, 64, 71
1, 229005, Control_c, 0, 64, 74
1, 229020, Control_c, 0, 64, 77
1, 229035, Control_c, 0, 64, 79
1, 229050, Control_c, 0, 64, 80
1, 229065, Control_c, 0, 64, 80
1, 229079, Control_c, 0, 64, 81
1, 229094, Control_c, 0, 64, 82
1, 229109, Control_c, 0, 64, 82
1, 229123, Note_off_c, 0, 57, 40
1, 229138, Control_c, 0, 64, 83
1, 229165, Note_off_c, 0, 69, 42
1, 229183, Control_c, 0, 64, 83
1, 229207, Note_off_c, 0, 64, 36
1, 229294, Note_off_c, 0, 60, 32
1, 229368, Control_c, 0, 64, 83
1, 229371, Note_off_c, 0, 72, 57
1, 229398, Control_c, 0, 64, 82
1, 229412, Control_c, 0, 64, 79
1, 229421, Note_on_c, 0, 71, 48
1, 229427, Control_c, 0, 64, 74
1, 229435, Note_on_c, 0, 67, 49
1, 229442, Control_c, 0, 64, 65
1, 229453, Note_on_c, 0, 52, 19
1, 229457, Note_on_c, 0, 64, 27
1, 229457, Control_c, 0, 64, 0
1, 229488, Poly_aftertouch_c, 0, 59, 127
1, 229489, Poly_aftertouch_c, 0, 55, 127
1, 229489, Note_on_c, 0, 55, 3
1, 229546, Control_c, 0, 64, 54
1, 229561, Control_c, 0, 64, 66
1, 229576, Control_c, 0, 64, 72
1, 229591, Control_c, 0, 64, 76
1, 229594, Note_off_c, 0, 67, 59
1, 229596, Note_off_c, 0, 64, 44
1, 229598, Note_off_c, 0, 55, 35
1, 229606, Control_c, 0, 64, 78
1, 229621, Control_c, 0, 64, 79
1, 229650, Control_c, 0, 64, 79
1, 229665, Control_c, 0, 64, 80
1, 229680, Control_c, 0, 64, 80
1, 229698, Poly_aftertouch_c, 0, 59, 0
1, 229747, Note_off_c, 0, 52, 41
1, 229752, Note_off_c, 0, 71, 59
1, 229754, Control_c, 0, 64, 79
1, 229767, Note_on_c, 0, 69, 60
1, 229769, Control_c, 0, 64, 76
1, 229773, Note_on_c, 0, 65, 45
1, 229778, Note_on_c, 0, 57, 34
1, 229784, Control_c, 0, 64, 68
1, 229787, Note_on_c, 0, 53, 38
1, 229794, Note_on_c, 0, 60, 27
1, 229799, Control_c, 0, 64, 0
1, 229868, Note_off_c, 0, 60, 0
1, 229873, Control_c, 0, 64, 62
1, 229888, Control_c, 0, 64, 69
1, 229902, Control_c, 0, 64, 73
1, 229904, Poly_aftertouch_c, 0, 60, 127
1, 229917, Control_c, 0, 64, 76
1, 229932, Control_c, 0, 64, 77
1, 229946, Note_off_c, 0, 65, 41
1, 229947, Note_off_c, 0, 53, 50
1, 229947, Control_c, 0, 64, 78
1, 229961, Control_c, 0, 64, 78
1, 229976, Control_c, 0, 64, 79
1, 229991, Control_c, 0, 64, 80
1, 229999, Poly_aftertouch_c, 0, 60, 0
1, 230021, Control_c, 0, 64, 80
1, 230132, Control_c, 0, 64, 79
1, 230139, Note_off_c, 0, 69, 60
1, 230145, Note_off_c, 0, 57, 37
1, 230147, Control_c, 0, 64, 77
1, 230152, Note_on_c, 0, 67, 59
1, 230161, Control_c, 0, 64, 72
1, 230169, Note_on_c, 0, 64, 40
1, 230173, Note_on_c, 0, 60, 23
1, 230176, Control_c, 0, 64, 59
1, 230181, Note_on_c, 0, 48, 37
1, 230182, Note_on_c, 0, 52, 30
1, 230184, Note_on_c, 0, 55, 27
1, 230191, Control_c, 0, 64, 0
1, 230370, Control_c, 0, 64, 60
1, 230384, Control_c, 0, 64, 66
1, 230399, Control_c, 0, 64, 68
1, 230414, Control_c, 0, 64, 72
1, 230429, Control_c, 0, 64, 75
1, 230439, Note_off_c, 0, 60, 48
1, 230444, Control_c, 0, 64, 78
1, 230458, Control_c, 0, 64, 79
1, 230473, Control_c, 0, 64, 80
1, 230486, Note_off_c, 0, 64, 49
1, 230488, Control_c, 0, 64, 81
1, 230503, Control_c, 0, 64, 82
1, 230510, Note_off_c, 0, 52, 40
1, 230518, Control_c, 0, 64, 83
1, 230533, Control_c, 0, 64, 84
1, 230548, Control_c, 0, 64, 84
1, 230563, Control_c, 0, 64, 85
1, 230613, Note_off_c, 0, 48, 42
1, 230846, Note_off_c, 0, 67, 38
1, 230881, Control_c, 0, 64, 84
1, 230896, Control_c, 0, 64, 81
1, 230904, Note_on_c, 0, 50, 38
1, 230905, Note_on_c, 0, 53, 40
1, 230905, Note_on_c, 0, 65, 42
1, 230910, Control_c, 0, 64, 74
1, 230916, Note_on_c, 0, 57, 32
1, 230916, Note_on_c, 0, 62, 26
1, 230925, Control_c, 0, 64, 61
1, 230928, Note_off_c, 0, 55, 36
1, 230940, Control_c, 0, 64, 0
1, 231132, Control_c, 0, 64, 59
1, 231147, Control_c, 0, 64, 64
1, 231164, Control_c, 0, 64, 65
1, 231179, Control_c, 0, 64, 67
1, 231194, Control_c, 0, 64, 69
1, 231208, Control_c, 0, 64, 73
1, 231212, Note_off_c, 0, 57, 37
1, 231222, Note_off_c, 0, 53, 41
1, 231223, Control_c, 0, 64, 77
1, 231238, Control_c, 0, 64, 79
1, 231253, Control_c, 0, 64, 80
1, 231268, Control_c, 0, 64, 81
1, 231282, Control_c, 0, 64, 82
1, 231297, Control_c, 0, 64, 82
1, 231308, Note_off_c, 0, 62, 38
1, 231327, Control_c, 0, 64, 83
1, 231356, Note_off_c, 0, 65, 39
1, 231379, Note_off_c, 0, 50, 38
1, 231764, Control_c, 0, 64, 82
1, 231779, Control_c, 0, 64, 82
1, 231787, Note_on_c, 0, 67, 62
1, 231794, Control_c, 0, 64, 79
1, 231808, Note_on_c, 0, 52, 38
1, 231808, Control_c, 0, 64, 73
1, 231809, Note_on_c, 0, 48, 37
1, 231809, Note_on_c, 0, 64, 52
1, 231815, Note_on_c, 0, 43, 31
1, 231815, Note_on_c, 0, 60, 40
1, 231823, Control_c, 0, 64, 62
1, 231838, Control_c, 0, 64, 0
1, 231927, Control_c, 0, 64, 57
1, 231928, Note_off_c, 0, 64, 61
1, 231941, Control_c, 0, 64, 65
1, 231957, Control_c, 0, 64, 68
1, 231972, Control_c, 0, 64, 70
1, 231980, Note_off_c, 0, 60, 56
1, 231987, Control_c, 0, 64, 72
1, 231996, Note_off_c, 0, 52, 41
1, 232002, Control_c, 0, 64, 73
1, 232017, Control_c, 0, 64, 75
1, 232031, Control_c, 0, 64, 76
1, 232046, Control_c, 0, 64, 76
1, 232131, Note_on_c, 0, 65, 63
1, 232148, Note_on_c, 0, 62, 54
1, 232151, Note_on_c, 0, 50, 45
1, 232158, Note_on_c, 0, 53, 42
1, 232164, Control_c, 0, 64, 75
1, 232172, Note_off_c, 0, 48, 41
1, 232179, Control_c, 0, 64, 70
1, 232194, Control_c, 0, 64, 54
1, 232209, Control_c, 0, 64, 0
1, 232320, Control_c, 0, 64, 40
1, 232335, Control_c, 0, 64, 63
1, 232350, Control_c, 0, 64, 67
1, 232364, Control_c, 0, 64, 68
1, 232379, Control_c, 0, 64, 70
1, 232394, Control_c, 0, 64, 72
1, 232409, Control_c, 0, 64, 74
1, 232424, Control_c, 0, 64, 76
1, 232438, Control_c, 0, 64, 77
1, 232453, Control_c, 0, 64, 77
1, 232468, Control_c, 0, 64, 78
1, 232473, Note_on_c, 0, 69, 74
1, 232480, Note_off_c, 0, 43, 41
1, 232482, Control_c, 0, 64, 79
1, 232497, Control_c, 0, 64, 80
1, 232500, Note_off_c, 0, 67, 56
1, 232512, Control_c, 0, 67, 124
1, 232527, Control_c, 0, 64, 81
1, 232527, Control_c, 0, 67, 109
1, 232542, Control_c, 0, 64, 81
1, 232542, Control_c, 0, 67, 95
1, 232557, Control_c, 0, 64, 82
1, 232557, Control_c, 0, 67, 80
1, 232563, Note_off_c, 0, 53, 37
1, 232572, Control_c, 0, 64, 82
1, 232572, Control_c, 0, 67, 64
1, 232587, Control_c, 0, 64, 83
1, 232587, Control_c, 0, 67, 47
1, 232591, Note_off_c, 0, 65, 64
1, 232602, Control_c, 0, 64, 83
1, 232602, Control_c, 0, 67, 30
1, 232613, Note_off_c, 0, 50, 63
1, 232616, Control_c, 0, 64, 84
1, 232616, Control_c, 0, 67, 14
1, 232631, Control_c, 0, 64, 84
1, 232631, Control_c, 0, 67, 0
1, 232646, Control_c, 0, 64, 85
1, 232674, Control_c, 0, 64, 85
1, 232689, Control_c, 0, 64, 86
1, 232734, Control_c, 0, 64, 86
1, 232776, Note_on_c, 0, 71, 70
1, 232811, Note_off_c, 0, 69, 61
1, 232843, Note_off_c, 0, 62, 55
1, 232881, Note_off_c, 0, 71, 60
1, 233054, Control_c, 0, 67, 9
1, 233068, Control_c, 0, 67, 11
1, 233083, Control_c, 0, 64, 86
1, 233083, Control_c, 0, 67, 14
1, 233098, Control_c, 0, 64, 85
1, 233098, Control_c, 0, 67, 19
1, 233112, Control_c, 0, 64, 83
1, 233112, Control_c, 0, 67, 24
1, 233127, Control_c, 0, 64, 76
1, 233127, Control_c, 0, 67, 31
1, 233142, Control_c, 0, 64, 62
1, 233142, Control_c, 0, 67, 41
1, 233157, Control_c, 0, 64, 0
1, 233157, Control_c, 0, 67, 57
1, 233171, Note_on_c, 0, 72, 43
1, 233172, Control_c, 0, 67, 81
1, 233174, Note_on_c, 0, 52, 36
1, 233179, Note_on_c, 0, 48, 34
1, 233186, Note_on_c, 0, 60, 26
1, 233186, Control_c, 0, 67, 108
1, 233201, Control_c, 0, 67, 127
1, 233202, Note_on_c, 0, 64, 17
1, 233241, Note_off_c, 0, 64, 52
1, 233246, Control_c, 0, 64, 27
1, 233260, Control_c, 0, 64, 61
1, 233275, Control_c, 0, 64, 65
1, 233290, Control_c, 0, 64, 67
1, 233296, Note_off_c, 0, 72, 52
1, 233305, Control_c, 0, 64, 67
1, 233317, Note_on_c, 0, 74, 50
1, 233320, Control_c, 0, 64, 68
1, 233322, Note_off_c, 0, 48, 52
1, 233335, Control_c, 0, 64, 69
1, 233350, Control_c, 0, 64, 71
1, 233365, Control_c, 0, 64, 72
1, 233374, Note_off_c, 0, 74, 54
1, 233379, Control_c, 0, 64, 73
1, 233380, Note_off_c, 0, 60, 40
1, 233403, Note_off_c, 0, 52, 42
1, 233406, Note_on_c, 0, 76, 43
1, 233437, Note_off_c, 0, 76, 58
1, 233483, Control_c, 0, 64, 72
1, 233497, Control_c, 0, 64, 70
1, 233499, Note_on_c, 0, 77, 63
1, 233512, Control_c, 0, 64, 66
1, 233527, Control_c, 0, 64, 48
1, 233542, Control_c, 0, 64, 0
1, 233570, Note_off_c, 0, 77, 56
1, 233596, Note_on_c, 0, 79, 57
1, 233687, Note_off_c, 0, 79, 58
1, 233694, Note_on_c, 0, 81, 57
1, 233781, Note_off_c, 0, 81, 58
1, 233784, Note_on_c, 0, 82, 65
1, 233836, Note_off_c, 0, 82, 63
1, 233874, Note_on_c, 0, 83, 63
1, 233937, Note_off_c, 0, 83, 56
1, 233962, Note_on_c, 0, 84, 57
1, 234011, Note_off_c, 0, 84, 60
1, 234048, Note_on_c, 0, 85, 57
1, 234114, Note_off_c, 0, 85, 57
1, 234138, Note_on_c, 0, 86, 61
1, 234202, Note_off_c, 0, 86, 56
1, 234238, Note_on_c, 0, 87, 63
1, 234298, Note_off_c, 0, 87, 55
1, 234390, Note_on_c, 0, 76, 70
1, 234394, Note_on_c, 0, 72, 52
1, 234412, Note_on_c, 0, 88, 48
1, 234450, Note_on_c, 0, 84, 8
1, 234503, Note_off_c, 0, 88, 57
1, 234512, Note_on_c, 0, 87, 56
1, 234581, Control_c, 0, 64, 54
1, 234591, Note_off_c, 0, 84, 39
1, 234596, Control_c, 0, 64, 65
1, 234607, Note_off_c, 0, 87, 52
1, 234611, Control_c, 0, 64, 67
1, 234614, Note_on_c, 0, 88, 52
1, 234626, Control_c, 0, 64, 68
1, 234640, Control_c, 0, 64, 69
1, 234655, Control_c, 0, 64, 71
1, 234670, Control_c, 0, 64, 74
1, 234685, Control_c, 0, 64, 75
1, 234693, Note_off_c, 0, 88, 57
1, 234700, Control_c, 0, 64, 76
1, 234705, Note_on_c, 0, 89, 61
1, 234715, Control_c, 0, 64, 77
1, 234745, Control_c, 0, 64, 77
1, 234774, Control_c, 0, 64, 78
1, 234781, Note_off_c, 0, 89, 56
1, 234813, Note_on_c, 0, 87, 51
1, 234868, Note_off_c, 0, 87, 56
1, 234870, Note_off_c, 0, 72, 23
1, 234996, Control_c, 0, 64, 76
1, 235011, Control_c, 0, 64, 69
1, 235016, Note_on_c, 0, 74, 62
1, 235016, Poly_aftertouch_c, 0, 88, 0
1, 235024, Note_on_c, 0, 83, 52
1, 235025, Control_c, 0, 64, 40
1, 235028, Note_on_c, 0, 68, 46
1, 235031, Note_on_c, 0, 71, 42
1, 235039, Note_off_c, 0, 76, 39
1, 235040, Control_c, 0, 64, 0
1, 235050, Note_on_c, 0, 77, 26
1, 235079, Note_off_c, 0, 83, 48
1, 235100, Control_c, 0, 64, 25
1, 235114, Control_c, 0, 64, 64
1, 235119, Note_off_c, 0, 77, 35
1, 235126, Note_on_c, 0, 88, 57
1, 235129, Control_c, 0, 64, 69
1, 235145, Control_c, 0, 64, 73
1, 235160, Control_c, 0, 64, 76
1, 235174, Control_c, 0, 64, 77
1, 235182, Note_off_c, 0, 68, 56
1, 235189, Control_c, 0, 64, 78
1, 235195, Note_off_c, 0, 88, 54
1, 235204, Control_c, 0, 64, 79
1, 235219, Control_c, 0, 64, 79
1, 235225, Note_on_c, 0, 86, 60
1, 235234, Control_c, 0, 64, 80
1, 235258, Note_off_c, 0, 86, 59
1, 235305, Note_off_c, 0, 74, 60
1, 235316, Control_c, 0, 64, 79
1, 235326, Note_on_c, 0, 72, 66
1, 235330, Control_c, 0, 64, 74
1, 235338, Note_on_c, 0, 69, 52
1, 235345, Control_c, 0, 64, 59
1, 235353, Note_on_c, 0, 81, 47
1, 235360, Control_c, 0, 64, 0
1, 235377, Note_on_c, 0, 76, 27
1, 235388, Note_off_c, 0, 81, 46
1, 235393, Note_off_c, 0, 71, 15
1, 235419, Control_c, 0, 64, 58
1, 235431, Note_off_c, 0, 69, 63
1, 235434, Control_c, 0, 64, 68
1, 235442, Note_off_c, 0, 76, 41
1, 235448, Control_c, 0, 64, 72
1, 235449, Note_on_c, 0, 86, 61
1, 235463, Control_c, 0, 64, 75
1, 235478, Control_c, 0, 64, 76
1, 235493, Control_c, 0, 64, 77
1, 235508, Control_c, 0, 64, 79
1, 235515, Note_off_c, 0, 86, 59
1, 235523, Control_c, 0, 64, 80
1, 235531, Note_on_c, 0, 84, 64
1, 235538, Control_c, 0, 64, 80
1, 235553, Control_c, 0, 64, 81
1, 235568, Control_c, 0, 64, 82
1, 235579, Note_off_c, 0, 84, 55
1, 235579, Note_off_c, 0, 72, 56
1, 235641, Note_on_c, 0, 71, 67
1, 235642, Control_c, 0, 64, 80
1, 235650, Note_on_c, 0, 80, 64
1, 235654, Note_on_c, 0, 64, 49
1, 235656, Control_c, 0, 64, 76
1, 235659, Note_on_c, 0, 68, 54
1, 235671, Control_c, 0, 64, 69
1, 235673, Note_on_c, 0, 74, 44
1, 235686, Control_c, 0, 64, 26
1, 235700, Control_c, 0, 64, 0
1, 235728, Note_off_c, 0, 64, 0
1, 235728, Note_on_c, 0, 64, 11
1, 235731, Note_off_c, 0, 80, 57
1, 235748, Note_on_c, 0, 82, 59
1, 235841, Note_off_c, 0, 82, 54
1, 235848, Control_c, 0, 64, 54
1, 235851, Note_on_c, 0, 83, 57
1, 235863, Control_c, 0, 64, 61
1, 235878, Control_c, 0, 64, 63
1, 235893, Control_c, 0, 64, 65
1, 235901, Note_off_c, 0, 74, 37
1, 235907, Control_c, 0, 64, 68
1, 235922, Control_c, 0, 64, 71
1, 235937, Control_c, 0, 64, 76
1, 235943, Note_on_c, 0, 84, 65
1, 235953, Control_c, 0, 64, 79
1, 235965, Note_off_c, 0, 83, 48
1, 235968, Control_c, 0, 64, 80
1, 235976, Note_off_c, 0, 68, 60
1, 235983, Control_c, 0, 64, 81
1, 236012, Control_c, 0, 64, 82
1, 236026, Note_off_c, 0, 84, 60
1, 236030, Note_off_c, 0, 71, 52
1, 236035, Control_c, 0, 64, 82
1, 236050, Control_c, 0, 64, 83
1, 236052, Note_on_c, 0, 82, 57
1, 236065, Control_c, 0, 64, 84
1, 236094, Control_c, 0, 64, 84
1, 236109, Control_c, 0, 64, 85
1, 236123, Control_c, 0, 64, 85
1, 236138, Control_c, 0, 64, 86
1, 236145, Note_off_c, 0, 82, 38
1, 236146, Note_on_c, 0, 83, 54
1, 236185, Note_off_c, 0, 83, 59
1, 236215, Note_off_c, 0, 64, 41
1, 236242, Control_c, 0, 64, 85
1, 236256, Note_on_c, 0, 69, 58
1, 236257, Control_c, 0, 64, 83
1, 236258, Note_on_c, 0, 65, 48
1, 236271, Control_c, 0, 64, 76
1, 236282, Note_on_c, 0, 77, 44
1, 236286, Control_c, 0, 64, 63
1, 236301, Control_c, 0, 64, 0
1, 236313, Note_on_c, 0, 72, 17
1, 236319, Note_off_c, 0, 77, 47
1, 236366, Note_off_c, 0, 72, 43
1, 236369, Note_on_c, 0, 80, 53
1, 236390, Control_c, 0, 64, 61
1, 236405, Control_c, 0, 64, 66
1, 236420, Control_c, 0, 64, 68
1, 236435, Control_c, 0, 64, 71
1, 236444, Note_off_c, 0, 80, 56
1, 236450, Control_c, 0, 64, 73
1, 236465, Control_c, 0, 64, 76
1, 236466, Note_on_c, 0, 81, 63
1, 236479, Control_c, 0, 64, 78
1, 236490, Note_off_c, 0, 69, 57
1, 236494, Control_c, 0, 64, 79
1, 236523, Control_c, 0, 64, 79
1, 236534, Note_off_c, 0, 65, 51
1, 236538, Control_c, 0, 64, 80
1, 236553, Control_c, 0, 64, 80
1, 236563, Note_on_c, 0, 83, 58
1, 236568, Control_c, 0, 64, 81
1, 236569, Note_off_c, 0, 81, 48
1, 236583, Control_c, 0, 64, 82
1, 236597, Control_c, 0, 64, 82
1, 236612, Control_c, 0, 64, 83
1, 236627, Control_c, 0, 64, 83
1, 236638, Note_off_c, 0, 83, 54
1, 236644, Note_on_c, 0, 80, 62
1, 236656, Control_c, 0, 64, 84
1, 236686, Control_c, 0, 64, 84
1, 236715, Note_off_c, 0, 80, 58
1, 236716, Control_c, 0, 64, 85
1, 236743, Note_on_c, 0, 81, 64
1, 236746, Control_c, 0, 64, 85
1, 236761, Control_c, 0, 64, 86
1, 236816, Note_off_c, 0, 81, 59
1, 236877, Note_on_c, 0, 71, 69
1, 236878, Note_on_c, 0, 65, 52
1, 236878, Note_on_c, 0, 77, 61
1, 236888, Note_on_c, 0, 62, 50
1, 236888, Control_c, 0, 64, 85
1, 236898, Note_on_c, 0, 67, 54
1, 236902, Control_c, 0, 64, 81
1, 236917, Control_c, 0, 64, 73
1, 236932, Control_c, 0, 64, 34
1, 236947, Control_c, 0, 64, 0
1, 236975, Note_on_c, 0, 82, 61
1, 236989, Note_off_c, 0, 77, 53
1, 237006, Control_c, 0, 64, 46
1, 237020, Control_c, 0, 64, 65
1, 237035, Control_c, 0, 64, 70
1, 237050, Control_c, 0, 64, 73
1, 237053, Note_off_c, 0, 82, 51
1, 237065, Control_c, 0, 64, 76
1, 237072, Note_on_c, 0, 83, 67
1, 237080, Control_c, 0, 64, 77
1, 237094, Control_c, 0, 64, 78
1, 237109, Control_c, 0, 64, 78
1, 237121, Note_off_c, 0, 65, 54
1, 237124, Control_c, 0, 64, 79
1, 237125, Note_off_c, 0, 62, 56
1, 237139, Control_c, 0, 64, 80
1, 237141, Note_off_c, 0, 83, 51
1, 237150, Note_off_c, 0, 67, 64
1, 237153, Control_c, 0, 64, 81
1, 237160, Note_on_c, 0, 84, 70
1, 237168, Control_c, 0, 64, 82
1, 237183, Control_c, 0, 64, 83
1, 237198, Control_c, 0, 64, 83
1, 237213, Control_c, 0, 64, 84
1, 237227, Control_c, 0, 64, 84
1, 237230, Note_off_c, 0, 71, 55
1, 237257, Note_on_c, 0, 82, 70
1, 237257, Control_c, 0, 64, 85
1, 237271, Control_c, 0, 64, 85
1, 237274, Note_off_c, 0, 84, 55
1, 237286, Control_c, 0, 64, 86
1, 237316, Control_c, 0, 64, 86
1, 237324, Note_off_c, 0, 82, 62
1, 237331, Control_c, 0, 64, 87
1, 237341, Note_on_c, 0, 83, 71
1, 237345, Control_c, 0, 64, 87
1, 237360, Control_c, 0, 64, 88
1, 237390, Control_c, 0, 64, 88
1, 237409, Note_off_c, 0, 83, 57
1, 237419, Control_c, 0, 64, 88
1, 237434, Control_c, 0, 64, 86
1, 237449, Control_c, 0, 64, 79
1, 237454, Note_on_c, 0, 67, 58
1, 237458, Note_on_c, 0, 72, 77
1, 237460, Note_on_c, 0, 64, 62
1, 237463, Note_on_c, 0, 79, 66
1, 237464, Control_c, 0, 64, 67
1, 237478, Control_c, 0, 64, 0
1, 237544, Note_off_c, 0, 67, 63
1, 237546, Note_off_c, 0, 79, 60
1, 237546, Control_c, 0, 64, 64
1, 237562, Control_c, 0, 64, 71
1, 237566, Note_on_c, 0, 86, 68
1, 237568, Note_off_c, 0, 64, 63
1, 237576, Control_c, 0, 64, 76
1, 237591, Control_c, 0, 64, 78
1, 237621, Control_c, 0, 64, 79
1, 237627, Note_off_c, 0, 72, 62
1, 237636, Control_c, 0, 64, 80
1, 237641, Note_off_c, 0, 86, 57
1, 237650, Control_c, 0, 64, 81
1, 237660, Note_on_c, 0, 84, 75
1, 237665, Control_c, 0, 64, 82
1, 237680, Control_c, 0, 64, 83
1, 237695, Control_c, 0, 64, 84
1, 237709, Control_c, 0, 64, 85
1, 237722, Note_off_c, 0, 84, 63
1, 237724, Control_c, 0, 64, 86
1, 237759, Note_on_c, 0, 72, 55
1, 237759, Note_on_c, 0, 74, 89
1, 237760, Note_on_c, 0, 65, 63
1, 237770, Note_on_c, 0, 69, 59
1, 237783, Control_c, 0, 64, 83
1, 237785, Note_on_c, 0, 81, 73
1, 237798, Control_c, 0, 64, 73
1, 237813, Control_c, 0, 64, 0
1, 237853, Note_off_c, 0, 81, 56
1, 237868, Note_on_c, 0, 88, 77
1, 237872, Control_c, 0, 64, 54
1, 237887, Control_c, 0, 64, 68
1, 237892, Note_off_c, 0, 65, 62
1, 237902, Control_c, 0, 64, 76
1, 237917, Control_c, 0, 64, 81
1, 237932, Control_c, 0, 64, 83
1, 237937, Note_off_c, 0, 88, 61
1, 237947, Control_c, 0, 64, 83
1, 237961, Note_on_c, 0, 86, 86
1, 237962, Control_c, 0, 64, 84
1, 237976, Control_c, 0, 64, 85
1, 237983, Note_off_c, 0, 74, 62
1, 237991, Control_c, 0, 64, 87
1, 238006, Control_c, 0, 64, 89
1, 238021, Control_c, 0, 64, 91
1, 238030, Note_off_c, 0, 72, 30
1, 238036, Control_c, 0, 64, 93
1, 238044, Note_off_c, 0, 86, 61
1, 238051, Control_c, 0, 64, 95
1, 238066, Control_c, 0, 64, 96
1, 238079, Note_off_c, 0, 69, 64
1, 238080, Control_c, 0, 64, 97
1, 238106, Note_on_c, 0, 76, 92
1, 238107, Note_on_c, 0, 67, 63
1, 238110, Note_on_c, 0, 72, 57
1, 238115, Note_on_c, 0, 88, 84
1, 238117, Note_on_c, 0, 84, 78
1, 238125, Control_c, 0, 64, 96
1, 238140, Control_c, 0, 64, 94
1, 238155, Control_c, 0, 64, 87
1, 238169, Control_c, 0, 64, 76
1, 238184, Control_c, 0, 64, 56
1, 238199, Control_c, 0, 64, 0
1, 238222, Note_on_c, 0, 87, 89
1, 238239, Note_off_c, 0, 88, 59
1, 238325, Note_on_c, 0, 88, 86
1, 238334, Note_off_c, 0, 87, 63
1, 238430, Note_on_c, 0, 91, 89
1, 238459, Note_off_c, 0, 88, 62
1, 238489, Note_off_c, 0, 84, 63
1, 238503, Note_off_c, 0, 76, 60
1, 238524, Note_on_c, 0, 89, 81
1, 238570, Note_off_c, 0, 91, 52
1, 238578, Control_c, 0, 64, 10
1, 238593, Control_c, 0, 64, 0
1, 238623, Note_on_c, 0, 88, 81
1, 238656, Note_off_c, 0, 89, 63
1, 238681, Control_c, 0, 64, 55
1, 238689, Note_off_c, 0, 72, 60
1, 238694, Note_off_c, 0, 88, 60
1, 238696, Control_c, 0, 64, 67
1, 238711, Control_c, 0, 64, 72
1, 238724, Note_on_c, 0, 86, 58
1, 238725, Control_c, 0, 64, 77
1, 238733, Note_on_c, 0, 71, 56
1, 238733, Note_on_c, 0, 74, 58
1, 238739, Note_on_c, 0, 83, 67
1, 238740, Control_c, 0, 64, 81
1, 238745, Note_off_c, 0, 86, 60
1, 238754, Note_off_c, 0, 74, 66
1, 238755, Control_c, 0, 64, 82
1, 238763, Note_off_c, 0, 83, 66
1, 238769, Note_off_c, 0, 71, 64
1, 238770, Control_c, 0, 64, 83
1, 238772, Note_off_c, 0, 67, 59
1, 238785, Control_c, 0, 64, 84
1, 238799, Control_c, 0, 64, 86
1, 238814, Control_c, 0, 64, 87
1, 238823, Note_on_c, 0, 84, 75
1, 238829, Note_on_c, 0, 81, 70
1, 238829, Control_c, 0, 64, 88
1, 238844, Control_c, 0, 64, 89
1, 238859, Control_c, 0, 64, 90
1, 238873, Control_c, 0, 64, 90
1, 238874, Note_off_c, 0, 81, 54
1, 238888, Control_c, 0, 64, 91
1, 238889, Note_off_c, 0, 84, 59
1, 238903, Control_c, 0, 64, 91
1, 238918, Control_c, 0, 64, 92
1, 238930, Note_on_c, 0, 79, 69
1, 238932, Note_on_c, 0, 83, 65
1, 238963, Control_c, 0, 64, 92
1, 238968, Note_off_c, 0, 79, 57
1, 239006, Note_on_c, 0, 55, 58
1, 239020, Note_off_c, 0, 83, 59
1, 239049, Note_on_c, 0, 77, 58
1, 239060, Note_off_c, 0, 55, 60
1, 239068, Note_off_c, 0, 77, 62
1, 239106, Note_on_c, 0, 57, 65
1, 239118, Control_c, 0, 64, 93
1, 239126, Note_on_c, 0, 79, 63
1, 239136, Note_on_c, 0, 76, 62
1, 239168, Note_off_c, 0, 79, 57
1, 239173, Note_off_c, 0, 76, 61
1, 239178, Control_c, 0, 64, 93
1, 239190, Note_off_c, 0, 57, 56
1, 239197, Note_on_c, 0, 59, 66
1, 239226, Note_on_c, 0, 77, 53
1, 239232, Note_on_c, 0, 74, 59
1, 239263, Note_off_c, 0, 74, 68
1, 239297, Note_off_c, 0, 59, 54
1, 239339, Note_off_c, 0, 77, 46
1, 239350, Note_on_c, 0, 64, 75
1, 239356, Control_c, 0, 64, 92
1, 239371, Control_c, 0, 64, 88
1, 239375, Note_on_c, 0, 67, 50
1, 239376, Note_on_c, 0, 76, 54
1, 239377, Note_on_c, 0, 60, 53
1, 239386, Control_c, 0, 64, 79
1, 239399, Control_c, 0, 64, 64
1, 239414, Control_c, 0, 64, 0
1, 239475, Note_off_c, 0, 76, 62
1, 239492, Note_on_c, 0, 75, 57
1, 239532, Control_c, 0, 64, 53
1, 239547, Control_c, 0, 64, 68
1, 239557, Note_off_c, 0, 75, 62
1, 239562, Control_c, 0, 64, 72
1, 239571, Note_on_c, 0, 76, 50
1, 239577, Control_c, 0, 64, 75
1, 239592, Control_c, 0, 64, 77
1, 239607, Control_c, 0, 64, 78
1, 239621, Control_c, 0, 64, 78
1, 239636, Control_c, 0, 64, 80
1, 239651, Control_c, 0, 64, 82
1, 239654, Note_off_c, 0, 76, 60
1, 239665, Control_c, 0, 64, 83
1, 239668, Note_on_c, 0, 77, 64
1, 239680, Control_c, 0, 64, 84
1, 239695, Control_c, 0, 64, 85
1, 239710, Control_c, 0, 64, 86
1, 239720, Note_off_c, 0, 64, 59
1, 239725, Control_c, 0, 64, 87
1, 239728, Note_off_c, 0, 77, 60
1, 239739, Control_c, 0, 64, 89
1, 239754, Control_c, 0, 64, 90
1, 239777, Control_c, 0, 64, 91
1, 239788, Note_on_c, 0, 75, 62
1, 239791, Control_c, 0, 64, 91
1, 239806, Control_c, 0, 64, 92
1, 239821, Control_c, 0, 64, 92
1, 239824, Note_off_c, 0, 67, 26
1, 239836, Control_c, 0, 64, 93
1, 239853, Note_off_c, 0, 75, 59
1, 239865, Control_c, 0, 64, 93
1, 239879, Note_on_c, 0, 76, 59
1, 239945, Note_off_c, 0, 76, 59
1, 239946, Note_off_c, 0, 60, 32
1, 239970, Control_c, 0, 64, 92
1, 239982, Note_on_c, 0, 62, 70
1, 239985, Control_c, 0, 64, 88
1, 239991, Note_on_c, 0, 56, 50
1, 239998, Note_on_c, 0, 65, 59
1, 239999, Note_on_c, 0, 59, 41
1, 240000, Control_c, 0, 64, 79
1, 240015, Control_c, 0, 64, 66
1, 240030, Control_c, 0, 64, 0
1, 240059, Control_c, 0, 64, 36
1, 240069, Note_off_c, 0, 65, 42
1, 240074, Control_c, 0, 64, 65
1, 240088, Control_c, 0, 64, 72
1, 240103, Control_c, 0, 64, 79
1, 240118, Control_c, 0, 64, 82
1, 240122, Note_off_c, 0, 56, 55
1, 240124, Note_on_c, 0, 76, 44
1, 240146, Note_off_c, 0, 62, 58
1, 240148, Control_c, 0, 64, 83
1, 240158, Note_off_c, 0, 59, 34
1, 240162, Control_c, 0, 64, 83
1, 240163, Note_off_c, 0, 76, 54
1, 240177, Control_c, 0, 64, 84
1, 240192, Control_c, 0, 64, 85
1, 240204, Note_on_c, 0, 74, 42
1, 240207, Control_c, 0, 64, 85
1, 240230, Note_off_c, 0, 74, 59
1, 240281, Control_c, 0, 64, 85
1, 240295, Control_c, 0, 64, 80
1, 240296, Note_on_c, 0, 60, 70
1, 240298, Note_on_c, 0, 57, 52
1, 240310, Control_c, 0, 64, 68
1, 240324, Note_on_c, 0, 64, 46
1, 240325, Control_c, 0, 64, 0
1, 240376, Note_off_c, 0, 64, 56
1, 240385, Control_c, 0, 64, 61
1, 240400, Control_c, 0, 64, 70
1, 240405, Note_off_c, 0, 57, 60
1, 240414, Note_on_c, 0, 74, 41
1, 240414, Control_c, 0, 64, 77
1, 240429, Control_c, 0, 64, 80
1, 240444, Control_c, 0, 64, 81
1, 240459, Control_c, 0, 64, 82
1, 240474, Note_off_c, 0, 74, 56
1, 240474, Control_c, 0, 64, 83
1, 240488, Control_c, 0, 64, 84
1, 240503, Control_c, 0, 64, 86
1, 240515, Note_on_c, 0, 72, 47
1, 240525, Control_c, 0, 64, 86
1, 240555, Control_c, 0, 64, 87
1, 240558, Note_off_c, 0, 72, 43
1, 240592, Note_off_c, 0, 60, 53
1, 240614, Control_c, 0, 64, 86
1, 240629, Control_c, 0, 64, 85
1, 240632, Note_on_c, 0, 59, 61
1, 240644, Control_c, 0, 64, 80
1, 240646, Note_on_c, 0, 52, 53
1, 240653, Note_on_c, 0, 62, 46
1, 240654, Note_on_c, 0, 56, 36
1, 240659, Control_c, 0, 64, 73
1, 240674, Control_c, 0, 64, 63
1, 240689, Control_c, 0, 64, 0
1, 240752, Note_on_c, 0, 70, 50
1, 240758, Note_off_c, 0, 62, 28
1, 240800, Note_off_c, 0, 70, 57
1, 240808, Control_c, 0, 64, 22
1, 240823, Control_c, 0, 64, 56
1, 240838, Control_c, 0, 64, 62
1, 240850, Note_on_c, 0, 71, 49
1, 240853, Control_c, 0, 64, 64
1, 240867, Control_c, 0, 64, 66
1, 240882, Control_c, 0, 64, 68
1, 240897, Control_c, 0, 64, 71
1, 240912, Control_c, 0, 64, 75
1, 240927, Control_c, 0, 64, 78
1, 240942, Control_c, 0, 64, 79
1, 240951, Note_on_c, 0, 72, 48
1, 240957, Control_c, 0, 64, 79
1, 240972, Control_c, 0, 64, 80
1, 240981, Note_off_c, 0, 71, 34
1, 240986, Control_c, 0, 64, 81
1, 241001, Control_c, 0, 64, 82
1, 241003, Note_off_c, 0, 72, 41
1, 241016, Control_c, 0, 64, 82
1, 241046, Control_c, 0, 64, 83
1, 241052, Note_on_c, 0, 70, 39
1, 241060, Control_c, 0, 64, 83
1, 241075, Control_c, 0, 64, 84
1, 241103, Note_off_c, 0, 56, 37
1, 241105, Control_c, 0, 64, 84
1, 241115, Note_off_c, 0, 70, 41
1, 241136, Note_on_c, 0, 71, 56
1, 241175, Note_off_c, 0, 71, 57
1, 241223, Control_c, 0, 64, 84
1, 241225, Note_off_c, 0, 59, 49
1, 241237, Control_c, 0, 64, 81
1, 241251, Note_on_c, 0, 57, 55
1, 241252, Control_c, 0, 64, 75
1, 241269, Note_on_c, 0, 53, 42
1, 241275, Control_c, 0, 64, 63
1, 241277, Note_off_c, 0, 52, 35
1, 241288, Note_on_c, 0, 60, 44
1, 241290, Control_c, 0, 64, 0
1, 241348, Note_off_c, 0, 60, 52
1, 241379, Control_c, 0, 64, 27
1, 241391, Note_on_c, 0, 68, 46
1, 241393, Control_c, 0, 64, 61
1, 241408, Control_c, 0, 64, 65
1, 241423, Control_c, 0, 64, 67
1, 241438, Control_c, 0, 64, 69
1, 241440, Note_off_c, 0, 68, 61
1, 241452, Control_c, 0, 64, 71
1, 241467, Control_c, 0, 64, 74
1, 241476, Note_on_c, 0, 69, 57
1, 241482, Control_c, 0, 64, 77
1, 241497, Control_c, 0, 64, 78
1, 241512, Control_c, 0, 64, 79
1, 241518, Note_off_c, 0, 57, 47
1, 241526, Control_c, 0, 64, 79
1, 241542, Control_c, 0, 64, 80
1, 241557, Control_c, 0, 64, 80
1, 241572, Control_c, 0, 64, 81
1, 241587, Control_c, 0, 64, 81
1, 241596, Note_off_c, 0, 69, 38
1, 241601, Note_on_c, 0, 71, 50
1, 241602, Control_c, 0, 64, 82
1, 241603, Note_off_c, 0, 53, 51
1, 241616, Control_c, 0, 64, 82
1, 241646, Control_c, 0, 64, 83
1, 241679, Note_off_c, 0, 71, 42
1, 241690, Control_c, 0, 64, 83
1, 241705, Note_on_c, 0, 68, 51
1, 241720, Control_c, 0, 64, 84
1, 241750, Control_c, 0, 64, 84
1, 241774, Note_off_c, 0, 68, 52
1, 241780, Control_c, 0, 64, 85
1, 241805, Note_on_c, 0, 69, 52
1, 241863, Note_off_c, 0, 69, 50
1, 241942, Control_c, 0, 64, 82
1, 241945, Note_on_c, 0, 52, 72
1, 241950, Note_on_c, 0, 60, 53
1, 241951, Note_on_c, 0, 43, 54
1, 241956, Note_on_c, 0, 48, 54
1, 241957, Control_c, 0, 64, 75
1, 241972, Control_c, 0, 64, 64
1, 241987, Control_c, 0, 64, 0
1, 242021, Note_off_c, 0, 60, 54
1, 242054, Control_c, 0, 64, 51
1, 242064, Note_on_c, 0, 64, 55
1, 242068, Control_c, 0, 64, 67
1, 242083, Control_c, 0, 64, 73
1, 242098, Control_c, 0, 64, 79
1, 242113, Control_c, 0, 64, 81
1, 242128, Control_c, 0, 64, 82
1, 242136, Note_off_c, 0, 64, 58
1, 242142, Control_c, 0, 64, 82
1, 242157, Control_c, 0, 64, 84
1, 242172, Control_c, 0, 64, 85
1, 242173, Note_on_c, 0, 67, 62
1, 242181, Note_off_c, 0, 52, 63
1, 242187, Control_c, 0, 64, 86
1, 242187, Control_c, 0, 67, 115
1, 242202, Control_c, 0, 64, 87
1, 242202, Control_c, 0, 67, 94
1, 242216, Control_c, 0, 64, 87
1, 242216, Control_c, 0, 67, 72
1, 242231, Control_c, 0, 64, 88
1, 242231, Control_c, 0, 67, 51
1, 242245, Note_off_c, 0, 67, 55
1, 242246, Control_c, 0, 67, 30
1, 242261, Control_c, 0, 67, 18
1, 242275, Control_c, 0, 67, 11
1, 242277, Note_off_c, 0, 48, 59
1, 242282, Note_on_c, 0, 62, 63
1, 242284, Note_on_c, 0, 53, 76
1, 242290, Control_c, 0, 67, 8
1, 242295, Note_on_c, 0, 50, 61
1, 242305, Control_c, 0, 67, 0
1, 242320, Control_c, 0, 64, 87
1, 242335, Control_c, 0, 64, 83
1, 242351, Control_c, 0, 64, 74
1, 242365, Control_c, 0, 64, 46
1, 242380, Control_c, 0, 64, 0
1, 242388, Note_off_c, 0, 62, 54
1, 242389, Note_on_c, 0, 65, 66
1, 242439, Control_c, 0, 64, 55
1, 242454, Control_c, 0, 64, 65
1, 242469, Control_c, 0, 64, 68
1, 242471, Note_off_c, 0, 65, 60
1, 242483, Control_c, 0, 64, 70
1, 242487, Note_on_c, 0, 67, 65
1, 242498, Control_c, 0, 64, 71
1, 242513, Control_c, 0, 64, 73
1, 242528, Control_c, 0, 64, 75
1, 242543, Control_c, 0, 64, 77
1, 242558, Control_c, 0, 64, 78
1, 242591, Note_on_c, 0, 62, 77
1, 242602, Control_c, 0, 64, 78
1, 242613, Note_off_c, 0, 67, 34
1, 242617, Control_c, 0, 64, 79
1, 242632, Control_c, 0, 64, 79
1, 242647, Control_c, 0, 64, 80
1, 242662, Control_c, 0, 64, 80
1, 242677, Control_c, 0, 64, 81
1, 242679, Note_off_c, 0, 53, 65
1, 242690, Note_on_c, 0, 65, 78
1, 242691, Control_c, 0, 64, 81
1, 242706, Control_c, 0, 64, 82
1, 242707, Note_off_c, 0, 62, 49
1, 242712, Note_off_c, 0, 43, 51
1, 242721, Control_c, 0, 64, 82
1, 242736, Control_c, 0, 64, 83
1, 242751, Control_c, 0, 64, 83
1, 242772, Control_c, 0, 64, 84
1, 242775, Note_off_c, 0, 65, 64
1, 242778, Note_off_c, 0, 50, 54
1, 242787, Control_c, 0, 64, 84
1, 242792, Note_on_c, 0, 69, 80
1, 242802, Control_c, 0, 64, 85
1, 242817, Control_c, 0, 64, 86
1, 242832, Control_c, 0, 64, 87
1, 242847, Control_c, 0, 64, 88
1, 242862, Control_c, 0, 64, 89
1, 242877, Control_c, 0, 64, 90
1, 242891, Control_c, 0, 64, 92
1, 242893, Note_on_c, 0, 62, 83
1, 242897, Note_off_c, 0, 69, 59
1, 242906, Control_c, 0, 64, 93
1, 242921, Control_c, 0, 64, 95
1, 242936, Control_c, 0, 64, 97
1, 242951, Control_c, 0, 64, 99
1, 242965, Control_c, 0, 64, 101
1, 242973, Note_off_c, 0, 62, 55
1, 242980, Control_c, 0, 64, 104
1, 242991, Note_on_c, 0, 65, 85
1, 242995, Control_c, 0, 64, 109
1, 243009, Control_c, 0, 64, 114
1, 243024, Control_c, 0, 64, 118
1, 243039, Control_c, 0, 64, 121
1, 243050, Note_off_c, 0, 65, 65
1, 243054, Control_c, 0, 64, 124
1, 243069, Control_c, 0, 64, 126
1, 243085, Note_on_c, 0, 71, 82
1, 243098, Control_c, 0, 64, 125
1, 243113, Control_c, 0, 64, 110
1, 243128, Control_c, 0, 64, 87
1, 243136, Note_off_c, 0, 71, 61
1, 243143, Control_c, 0, 64, 19
1, 243158, Control_c, 0, 64, 0
1, 243185, Note_on_c, 0, 72, 84
1, 243186, Note_on_c, 0, 64, 86
1, 243190, Note_on_c, 0, 36, 73
1, 243190, Note_on_c, 0, 48, 92
1, 243212, Note_off_c, 0, 64, 64
1, 243217, Control_c, 0, 64, 68
1, 243220, Note_off_c, 0, 72, 60
1, 243220, Note_off_c, 0, 36, 64
1, 243232, Control_c, 0, 64, 80
1, 243246, Note_off_c, 0, 48, 66
1, 243247, Control_c, 0, 64, 90
1, 243261, Control_c, 0, 64, 92
1, 243276, Control_c, 0, 64, 93
1, 243291, Control_c, 0, 64, 95
1, 243299, Note_on_c, 0, 55, 82
1, 243306, Control_c, 0, 64, 98
1, 243321, Control_c, 0, 64, 102
1, 243328, Note_off_c, 0, 55, 64
1, 243336, Control_c, 0, 64, 107
1, 243351, Control_c, 0, 64, 113
1, 243366, Control_c, 0, 64, 120
1, 243380, Control_c, 0, 64, 127
1, 243425, Note_on_c, 0, 52, 85
1, 243515, Note_off_c, 0, 52, 64
1, 243547, Note_on_c, 0, 43, 94
1, 243563, Note_on_c, 0, 55, 83
1, 243580, Control_c, 0, 64, 112
1, 243595, Control_c, 0, 64, 84
1, 243610, Control_c, 0, 64, 30
1, 243625, Control_c, 0, 64, 0
1, 243685, Note_on_c, 0, 60, 65
1, 243699, Control_c, 0, 64, 54
1, 243713, Control_c, 0, 64, 63
1, 243743, Control_c, 0, 64, 63
1, 243771, Note_off_c, 0, 60, 55
1, 243783, Note_on_c, 0, 64, 71
1, 243846, Control_c, 0, 64, 61
1, 243861, Control_c, 0, 64, 47
1, 243872, Note_off_c, 0, 55, 39
1, 243876, Control_c, 0, 64, 0
1, 243878, Note_on_c, 0, 62, 74
1, 243923, Note_off_c, 0, 64, 50
1, 243967, Control_c, 0, 64, 58
1, 243977, Note_on_c, 0, 59, 66
1, 243980, Note_off_c, 0, 62, 60
1, 243982, Control_c, 0, 64, 72
1, 243997, Control_c, 0, 64, 82
1, 244011, Control_c, 0, 64, 91
1, 244026, Control_c, 0, 64, 93
1, 244041, Control_c, 0, 64, 94
1, 244056, Control_c, 0, 64, 95
1, 244069, Note_off_c, 0, 59, 55
1, 244071, Control_c, 0, 64, 96
1, 244081, Note_on_c, 0, 55, 67
1, 244085, Control_c, 0, 64, 98
1, 244100, Control_c, 0, 64, 101
1, 244113, Note_off_c, 0, 43, 47
1, 244115, Control_c, 0, 64, 102
1, 244130, Control_c, 0, 64, 103
1, 244144, Control_c, 0, 64, 104
1, 244185, Note_on_c, 0, 43, 81
1, 244188, Note_on_c, 0, 59, 75
1, 244248, Control_c, 0, 64, 103
1, 244270, Control_c, 0, 64, 100
1, 244285, Control_c, 0, 64, 93
1, 244286, Note_off_c, 0, 59, 50
1, 244295, Note_on_c, 0, 62, 73
1, 244300, Control_c, 0, 64, 83
1, 244315, Control_c, 0, 64, 68
1, 244330, Control_c, 0, 64, 0
1, 244388, Note_on_c, 0, 65, 79
1, 244391, Note_off_c, 0, 62, 62
1, 244437, Note_off_c, 0, 55, 26
1, 244473, Note_on_c, 0, 64, 87
1, 244502, Note_off_c, 0, 65, 64
1, 244552, Control_c, 0, 64, 77
1, 244567, Control_c, 0, 64, 92
1, 244580, Note_on_c, 0, 60, 74
1, 244582, Control_c, 0, 64, 103
1, 244591, Note_off_c, 0, 64, 61
1, 244597, Control_c, 0, 64, 105
1, 244611, Control_c, 0, 64, 106
1, 244626, Note_off_c, 0, 43, 49
1, 244626, Control_c, 0, 64, 108
1, 244641, Control_c, 0, 64, 111
1, 244647, Note_off_c, 0, 60, 61
1, 244655, Control_c, 0, 64, 113
1, 244670, Control_c, 0, 64, 116
1, 244676, Note_on_c, 0, 55, 71
1, 244685, Control_c, 0, 64, 118
1, 244700, Control_c, 0, 64, 120
1, 244715, Control_c, 0, 64, 124
1, 244731, Control_c, 0, 64, 127
1, 244752, Note_off_c, 0, 55, 62
1, 244775, Note_on_c, 0, 43, 75
1, 244779, Note_on_c, 0, 60, 74
1, 244847, Note_off_c, 0, 60, 62
1, 244864, Note_on_c, 0, 64, 73
1, 244923, Control_c, 0, 64, 123
1, 244938, Control_c, 0, 64, 119
1, 244953, Control_c, 0, 64, 116
1, 244960, Note_on_c, 0, 67, 85
1, 244963, Note_off_c, 0, 64, 63
1, 244967, Control_c, 0, 64, 114
1, 244982, Control_c, 0, 64, 111
1, 244997, Control_c, 0, 64, 104
1, 245020, Control_c, 0, 64, 90
1, 245035, Control_c, 0, 64, 68
1, 245049, Control_c, 0, 64, 0
1, 245056, Note_on_c, 0, 65, 81
1, 245100, Note_off_c, 0, 67, 54
1, 245151, Note_on_c, 0, 62, 71
1, 245163, Note_off_c, 0, 65, 62
1, 245167, Control_c, 0, 64, 78
1, 245177, Note_off_c, 0, 43, 55
1, 245182, Control_c, 0, 64, 87
1, 245197, Control_c, 0, 64, 91
1, 245209, Note_off_c, 0, 62, 61
1, 245227, Control_c, 0, 64, 92
1, 245232, Note_on_c, 0, 59, 71
1, 245241, Control_c, 0, 64, 93
1, 245256, Control_c, 0, 64, 96
1, 245271, Control_c, 0, 64, 98
1, 245285, Control_c, 0, 64, 101
1, 245292, Note_off_c, 0, 59, 61
1, 245300, Control_c, 0, 64, 103
1, 245315, Control_c, 0, 64, 104
1, 245330, Control_c, 0, 64, 106
1, 245345, Control_c, 0, 64, 108
1, 245350, Note_on_c, 0, 71, 86
1, 245353, Note_on_c, 0, 43, 77
1, 245360, Control_c, 0, 64, 111
1, 245375, Control_c, 0, 64, 115
1, 245390, Note_off_c, 0, 43, 62
1, 245390, Control_c, 0, 64, 123
1, 245405, Control_c, 0, 64, 127
1, 245449, Note_on_c, 0, 65, 67
1, 245479, Note_off_c, 0, 71, 59
1, 245527, Note_off_c, 0, 65, 59
1, 245545, Note_on_c, 0, 62, 72
1, 245594, Note_off_c, 0, 62, 60
1, 245661, Note_on_c, 0, 72, 94
1, 245663, Note_on_c, 0, 48, 81
1, 245672, Control_c, 0, 64, 109
1, 245673, Note_on_c, 0, 64, 77
1, 245687, Control_c, 0, 64, 78
1, 245701, Control_c, 0, 64, 0
1, 245720, Note_off_c, 0, 64, 64
1, 245746, Control_c, 0, 64, 66
1, 245768, Note_on_c, 0, 43, 68
1, 245768, Note_off_c, 0, 48, 63
1, 245768, Control_c, 0, 64, 83
1, 245771, Note_off_c, 0, 72, 63
1, 245783, Control_c, 0, 64, 99
1, 245798, Control_c, 0, 64, 106
1, 245813, Control_c, 0, 64, 106
1, 245843, Control_c, 0, 64, 107
1, 245858, Control_c, 0, 64, 108
1, 245866, Note_on_c, 0, 40, 66
1, 245870, Note_off_c, 0, 43, 56
1, 245872, Control_c, 0, 64, 110
1, 245887, Control_c, 0, 64, 112
1, 245902, Control_c, 0, 64, 113
1, 245916, Control_c, 0, 64, 115
1, 245931, Control_c, 0, 64, 116
1, 245946, Control_c, 0, 64, 119
1, 245961, Control_c, 0, 64, 121
1, 245965, Note_off_c, 0, 40, 59
1, 245974, Note_on_c, 0, 67, 92
1, 245976, Control_c, 0, 64, 123
1, 245983, Note_on_c, 0, 43, 64
1, 245990, Control_c, 0, 64, 127
1, 246050, Note_off_c, 0, 43, 61
1, 246083, Note_on_c, 0, 48, 62
1, 246111, Note_off_c, 0, 48, 66
1, 246165, Note_on_c, 0, 52, 73
1, 246225, Note_off_c, 0, 52, 66
1, 246236, Note_on_c, 0, 50, 94
1, 246257, Control_c, 0, 64, 96
1, 246272, Control_c, 0, 64, 70
1, 246287, Control_c, 0, 64, 0
1, 246332, Control_c, 0, 64, 63
1, 246334, Note_on_c, 0, 47, 76
1, 246346, Control_c, 0, 64, 76
1, 246361, Control_c, 0, 64, 88
1, 246376, Control_c, 0, 64, 93
1, 246389, Note_off_c, 0, 67, 55
1, 246391, Control_c, 0, 64, 94
1, 246401, Note_off_c, 0, 50, 56
1, 246406, Control_c, 0, 64, 95
1, 246421, Control_c, 0, 64, 97
1, 246424, Note_on_c, 0, 43, 74
1, 246430, Note_off_c, 0, 47, 63
1, 246436, Control_c, 0, 64, 100
1, 246450, Control_c, 0, 64, 103
1, 246465, Control_c, 0, 64, 106
1, 246480, Control_c, 0, 64, 109
1, 246495, Control_c, 0, 64, 112
1, 246517, Control_c, 0, 64, 114
1, 246531, Control_c, 0, 64, 118
1, 246534, Note_on_c, 0, 47, 71
1, 246544, Note_on_c, 0, 67, 89
1, 246546, Control_c, 0, 64, 122
1, 246561, Control_c, 0, 64, 127
1, 246624, Note_on_c, 0, 50, 80
1, 246630, Note_off_c, 0, 43, 29
1, 246633, Note_off_c, 0, 47, 63
1, 246707, Note_off_c, 0, 50, 63
1, 246713, Note_on_c, 0, 53, 84
1, 246811, Note_on_c, 0, 52, 90
1, 246811, Note_off_c, 0, 53, 56
1, 246843, Control_c, 0, 64, 100
1, 246857, Control_c, 0, 64, 70
1, 246872, Control_c, 0, 64, 0
1, 246902, Note_on_c, 0, 48, 79
1, 246917, Control_c, 0, 64, 66
1, 246931, Note_off_c, 0, 67, 60
1, 246931, Control_c, 0, 64, 79
1, 246946, Control_c, 0, 64, 93
1, 246956, Note_off_c, 0, 52, 57
1, 246961, Control_c, 0, 64, 98
1, 246990, Note_on_c, 0, 43, 72
1, 246991, Control_c, 0, 64, 99
1, 247005, Control_c, 0, 64, 100
1, 247007, Note_off_c, 0, 48, 64
1, 247020, Control_c, 0, 64, 101
1, 247035, Control_c, 0, 64, 103
1, 247050, Control_c, 0, 64, 105
1, 247065, Control_c, 0, 64, 107
1, 247080, Control_c, 0, 64, 109
1, 247095, Control_c, 0, 64, 111
1, 247098, Note_on_c, 0, 48, 65
1, 247101, Note_off_c, 0, 43, 60
1, 247110, Note_on_c, 0, 67, 94
1, 247110, Control_c, 0, 64, 115
1, 247124, Control_c, 0, 64, 119
1, 247140, Control_c, 0, 64, 125
1, 247154, Control_c, 0, 64, 127
1, 247178, Note_off_c, 0, 48, 62
1, 247203, Note_on_c, 0, 52, 77
1, 247296, Note_off_c, 0, 52, 65
1, 247311, Note_on_c, 0, 55, 85
1, 247390, Note_off_c, 0, 55, 56
1, 247407, Note_on_c, 0, 53, 87
1, 247429, Control_c, 0, 64, 116
1, 247443, Control_c, 0, 64, 85
1, 247458, Control_c, 0, 64, 0
1, 247498, Note_on_c, 0, 50, 72
1, 247518, Control_c, 0, 64, 65
1, 247533, Control_c, 0, 64, 76
1, 247548, Control_c, 0, 64, 87
1, 247560, Note_off_c, 0, 67, 47
1, 247562, Control_c, 0, 64, 93
1, 247577, Control_c, 0, 64, 93
1, 247578, Note_on_c, 0, 47, 75
1, 247592, Control_c, 0, 64, 94
1, 247599, Note_off_c, 0, 50, 58
1, 247607, Control_c, 0, 64, 96
1, 247622, Control_c, 0, 64, 98
1, 247636, Control_c, 0, 64, 99
1, 247651, Control_c, 0, 64, 101
1, 247666, Control_c, 0, 64, 103
1, 247668, Note_off_c, 0, 53, 61
1, 247680, Control_c, 0, 64, 105
1, 247695, Control_c, 0, 64, 106
1, 247700, Note_on_c, 0, 59, 67
1, 247708, Note_on_c, 0, 67, 87
1, 247710, Control_c, 0, 64, 108
1, 247725, Control_c, 0, 64, 110
1, 247740, Control_c, 0, 64, 112
1, 247749, Note_off_c, 0, 47, 34
1, 247754, Control_c, 0, 64, 113
1, 247769, Control_c, 0, 64, 115
1, 247784, Note_on_c, 0, 53, 71
1, 247784, Control_c, 0, 64, 117
1, 247793, Note_off_c, 0, 59, 58
1, 247799, Control_c, 0, 64, 119
1, 247813, Control_c, 0, 64, 121
1, 247828, Control_c, 0, 64, 123
1, 247843, Control_c, 0, 64, 125
1, 247858, Control_c, 0, 64, 126
1, 247873, Note_off_c, 0, 53, 64
1, 247873, Control_c, 0, 64, 127
1, 247881, Note_on_c, 0, 50, 68
1, 247968, Note_off_c, 0, 50, 52
1, 247991, Note_off_c, 0, 67, 59
1, 248028, Note_on_c, 0, 52, 62
1, 248030, Control_c, 0, 64, 122
1, 248033, Note_on_c, 0, 72, 92
1, 248044, Control_c, 0, 64, 96
1, 248059, Control_c, 0, 64, 71
1, 248074, Control_c, 0, 64, 0
1, 248119, Note_off_c, 0, 52, 63
1, 248132, Note_on_c, 0, 55, 68
1, 248145, Note_on_c, 0, 67, 63
1, 248148, Control_c, 0, 64, 63
1, 248163, Control_c, 0, 64, 76
1, 248178, Control_c, 0, 64, 87
1, 248192, Control_c, 0, 64, 93
1, 248207, Control_c, 0, 64, 95
1, 248212, Note_off_c, 0, 55, 60
1, 248214, Note_off_c, 0, 72, 55
1, 248222, Control_c, 0, 64, 96
1, 248235, Note_off_c, 0, 67, 62
1, 248236, Note_on_c, 0, 60, 63
1, 248236, Control_c, 0, 64, 97
1, 248239, Note_on_c, 0, 64, 60
1, 248251, Control_c, 0, 64, 99
1, 248266, Control_c, 0, 64, 100
1, 248281, Control_c, 0, 64, 102
1, 248296, Control_c, 0, 64, 103
1, 248307, Note_off_c, 0, 60, 59
1, 248311, Control_c, 0, 64, 104
1, 248320, Note_off_c, 0, 64, 62
1, 248324, Note_on_c, 0, 55, 56
1, 248326, Note_on_c, 0, 67, 69
1, 248326, Control_c, 0, 64, 106
1, 248341, Control_c, 0, 64, 108
1, 248356, Control_c, 0, 64, 111
1, 248357, Note_off_c, 0, 55, 65
1, 248371, Control_c, 0, 64, 113
1, 248385, Note_off_c, 0, 67, 61
1, 248385, Control_c, 0, 64, 116
1, 248398, Note_on_c, 0, 52, 61
1, 248400, Control_c, 0, 64, 119
1, 248415, Control_c, 0, 64, 122
1, 248421, Note_on_c, 0, 72, 75
1, 248429, Control_c, 0, 64, 127
1, 248460, Note_off_c, 0, 52, 66
1, 248492, Note_on_c, 0, 48, 60
1, 248507, Note_on_c, 0, 76, 84
1, 248511, Note_off_c, 0, 72, 62
1, 248562, Note_off_c, 0, 48, 57
1, 248594, Note_on_c, 0, 47, 57
1, 248600, Note_on_c, 0, 74, 88
1, 248620, Note_off_c, 0, 76, 62
1, 248636, Control_c, 0, 64, 93
1, 248651, Control_c, 0, 64, 67
1, 248666, Control_c, 0, 64, 0
1, 248697, Note_on_c, 0, 71, 76
1, 248702, Note_on_c, 0, 50, 60
1, 248710, Note_off_c, 0, 74, 59
1, 248710, Control_c, 0, 64, 62
1, 248717, Note_off_c, 0, 47, 59
1, 248726, Control_c, 0, 64, 76
1, 248741, Control_c, 0, 64, 87
1, 248764, Control_c, 0, 64, 93
1, 248771, Note_off_c, 0, 50, 61
1, 248779, Control_c, 0, 64, 94
1, 248794, Note_on_c, 0, 53, 63
1, 248794, Note_off_c, 0, 71, 57
1, 248794, Control_c, 0, 64, 95
1, 248798, Note_on_c, 0, 67, 69
1, 248808, Control_c, 0, 64, 97
1, 248823, Control_c, 0, 64, 101
1, 248838, Control_c, 0, 64, 106
1, 248853, Control_c, 0, 64, 113
1, 248867, Control_c, 0, 64, 121
1, 248875, Note_on_c, 0, 50, 64
1, 248882, Control_c, 0, 64, 127
1, 248890, Note_on_c, 0, 71, 74
1, 248899, Poly_aftertouch_c, 0, 47, 0
1, 248943, Note_on_c, 0, 47, 62
1, 248970, Note_off_c, 0, 71, 56
1, 248972, Note_on_c, 0, 74, 76
1, 249043, Note_on_c, 0, 43, 79
1, 249049, Note_off_c, 0, 47, 61
1, 249053, Note_off_c, 0, 74, 65
1, 249053, Note_off_c, 0, 50, 28
1, 249056, Note_on_c, 0, 77, 88
1, 249113, Note_off_c, 0, 53, 11
1, 249149, Note_on_c, 0, 76, 91
1, 249155, Note_on_c, 0, 48, 82
1, 249186, Note_off_c, 0, 77, 59
1, 249193, Note_off_c, 0, 67, 48
1, 249193, Control_c, 0, 64, 100
1, 249208, Control_c, 0, 64, 65
1, 249223, Control_c, 0, 64, 0
1, 249244, Note_on_c, 0, 72, 85
1, 249245, Note_on_c, 0, 52, 78
1, 249250, Note_off_c, 0, 48, 66
1, 249252, Control_c, 0, 64, 41
1, 249267, Control_c, 0, 64, 71
1, 249280, Note_off_c, 0, 76, 63
1, 249282, Control_c, 0, 64, 84
1, 249297, Control_c, 0, 64, 96
1, 249312, Control_c, 0, 64, 100
1, 249324, Note_off_c, 0, 52, 50
1, 249325, Note_off_c, 0, 72, 61
1, 249326, Control_c, 0, 64, 101
1, 249339, Note_on_c, 0, 55, 76
1, 249340, Note_on_c, 0, 67, 78
1, 249341, Control_c, 0, 64, 102
1, 249356, Control_c, 0, 64, 105
1, 249371, Control_c, 0, 64, 108
1, 249386, Control_c, 0, 64, 113
1, 249400, Control_c, 0, 64, 119
1, 249411, Note_on_c, 0, 52, 67
1, 249411, Note_off_c, 0, 55, 59
1, 249414, Note_off_c, 0, 43, 32
1, 249415, Control_c, 0, 64, 127
1, 249420, Note_off_c, 0, 67, 54
1, 249432, Note_on_c, 0, 72, 83
1, 249481, Note_off_c, 0, 52, 65
1, 249485, Note_on_c, 0, 48, 67
1, 249492, Note_off_c, 0, 72, 62
1, 249526, Note_on_c, 0, 76, 74
1, 249576, Note_off_c, 0, 48, 64
1, 249584, Note_on_c, 0, 43, 62
1, 249609, Note_off_c, 0, 76, 65
1, 249611, Note_on_c, 0, 79, 84
1, 249680, Note_off_c, 0, 43, 50
1, 249690, Note_on_c, 0, 50, 71
1, 249699, Note_on_c, 0, 77, 92
1, 249717, Note_off_c, 0, 79, 56
1, 249720, Control_c, 0, 64, 93
1, 249735, Control_c, 0, 64, 65
1, 249750, Control_c, 0, 64, 0
1, 249777, Note_off_c, 0, 50, 62
1, 249779, Control_c, 0, 64, 57
1, 249788, Note_on_c, 0, 53, 68
1, 249794, Control_c, 0, 64, 78
1, 249795, Note_on_c, 0, 74, 79
1, 249809, Control_c, 0, 64, 94
1, 249810, Note_off_c, 0, 77, 58
1, 249824, Control_c, 0, 64, 106
1, 249838, Control_c, 0, 64, 107
1, 249852, Note_off_c, 0, 74, 65
1, 249853, Control_c, 0, 64, 108
1, 249857, Note_off_c, 0, 53, 66
1, 249868, Control_c, 0, 64, 109
1, 249882, Control_c, 0, 64, 112
1, 249884, Note_on_c, 0, 71, 70
1, 249892, Note_on_c, 0, 55, 65
1, 249897, Control_c, 0, 64, 115
1, 249912, Control_c, 0, 64, 119
1, 249927, Control_c, 0, 64, 122
1, 249929, Note_off_c, 0, 71, 56
1, 249930, Note_off_c, 0, 55, 58
1, 249942, Control_c, 0, 64, 126
1, 249956, Control_c, 0, 64, 127
1, 250001, Note_on_c, 0, 83, 98
1, 250009, Note_on_c, 0, 53, 69
1, 250076, Note_off_c, 0, 53, 65
1, 250107, Note_on_c, 0, 79, 71
1, 250110, Note_on_c, 0, 55, 62
1, 250129, Note_off_c, 0, 83, 58
1, 250171, Note_off_c, 0, 55, 64
1, 250174, Note_off_c, 0, 79, 62
1, 250204, Note_on_c, 0, 74, 63
1, 250222, Note_on_c, 0, 62, 57
1, 250261, Note_off_c, 0, 62, 64
1, 250269, Note_off_c, 0, 74, 62
1, 250310, Note_on_c, 0, 84, 93
1, 250317, Note_on_c, 0, 52, 80
1, 250320, Control_c, 0, 64, 97
1, 250335, Control_c, 0, 64, 67
1, 250350, Control_c, 0, 64, 0
1, 250395, Control_c, 0, 64, 66
1, 250400, Note_on_c, 0, 79, 66
1, 250409, Control_c, 0, 64, 78
1, 250418, Note_on_c, 0, 55, 62
1, 250422, Note_off_c, 0, 52, 64
1, 250424, Control_c, 0, 64, 89
1, 250439, Control_c, 0, 64, 94
1, 250448, Note_off_c, 0, 84, 55
1, 250454, Control_c, 0, 64, 95
1, 250469, Control_c, 0, 64, 95
1, 250478, Note_off_c, 0, 55, 64
1, 250484, Control_c, 0, 64, 97
1, 250490, Note_off_c, 0, 79, 60
1, 250499, Control_c, 0, 64, 99
1, 250513, Control_c, 0, 64, 101
1, 250515, Note_on_c, 0, 60, 49
1, 250517, Note_on_c, 0, 76, 62
1, 250528, Control_c, 0, 64, 103
1, 250543, Control_c, 0, 64, 104
1, 250558, Note_off_c, 0, 60, 59
1, 250558, Note_off_c, 0, 76, 58
1, 250558, Control_c, 0, 64, 104
1, 250573, Control_c, 0, 64, 105
1, 250587, Control_c, 0, 64, 106
1, 250594, Note_on_c, 0, 48, 54
1, 250602, Control_c, 0, 64, 106
1, 250606, Note_on_c, 0, 79, 75
1, 250617, Control_c, 0, 64, 107
1, 250632, Control_c, 0, 64, 107
1, 250647, Control_c, 0, 64, 108
1, 250662, Control_c, 0, 64, 109
1, 250677, Control_c, 0, 64, 110
1, 250685, Note_off_c, 0, 48, 58
1, 250692, Control_c, 0, 64, 111
1, 250701, Note_on_c, 0, 52, 52
1, 250705, Note_on_c, 0, 76, 56
1, 250706, Control_c, 0, 64, 112
1, 250716, Note_off_c, 0, 79, 53
1, 250721, Control_c, 0, 64, 112
1, 250731, Note_off_c, 0, 76, 62
1, 250736, Control_c, 0, 64, 113
1, 250751, Control_c, 0, 64, 115
1, 250766, Control_c, 0, 64, 116
1, 250770, Note_off_c, 0, 52, 57
1, 250780, Control_c, 0, 64, 118
1, 250795, Control_c, 0, 64, 119
1, 250797, Note_on_c, 0, 55, 56
1, 250810, Control_c, 0, 64, 120
1, 250818, Note_on_c, 0, 72, 37
1, 250824, Control_c, 0, 64, 121
1, 250846, Note_off_c, 0, 72, 50
1, 250854, Note_off_c, 0, 55, 53
1, 250854, Control_c, 0, 64, 117
1, 250869, Control_c, 0, 64, 103
1, 250876, Note_on_c, 0, 77, 78
1, 250880, Note_on_c, 0, 50, 59
1, 250884, Control_c, 0, 64, 86
1, 250898, Control_c, 0, 64, 66
1, 250913, Control_c, 0, 64, 0
1, 250943, Control_c, 0, 64, 16
1, 250955, Note_off_c, 0, 77, 60
1, 250958, Control_c, 0, 64, 68
1, 250964, Note_on_c, 0, 74, 66
1, 250964, Note_off_c, 0, 50, 61
1, 250973, Control_c, 0, 64, 79
1, 250986, Note_on_c, 0, 53, 56
1, 250988, Control_c, 0, 64, 88
1, 251010, Control_c, 0, 64, 91
1, 251023, Note_off_c, 0, 74, 62
1, 251025, Control_c, 0, 64, 92
1, 251035, Note_off_c, 0, 53, 64
1, 251054, Control_c, 0, 64, 92
1, 251064, Note_on_c, 0, 71, 59
1, 251069, Control_c, 0, 64, 93
1, 251080, Note_on_c, 0, 55, 48
1, 251084, Control_c, 0, 64, 94
1, 251089, Note_off_c, 0, 71, 58
1, 251098, Control_c, 0, 64, 94
1, 251113, Control_c, 0, 64, 95
1, 251121, Note_off_c, 0, 55, 52
1, 251144, Control_c, 0, 64, 95
1, 251161, Note_on_c, 0, 83, 84
1, 251178, Note_on_c, 0, 53, 58
1, 251189, Control_c, 0, 64, 96
1, 251230, Note_off_c, 0, 53, 61
1, 251233, Control_c, 0, 64, 96
1, 251247, Note_off_c, 0, 83, 58
1, 251262, Note_on_c, 0, 79, 54
1, 251277, Control_c, 0, 64, 97
1, 251280, Note_on_c, 0, 55, 47
1, 251293, Note_off_c, 0, 79, 58
1, 251307, Control_c, 0, 64, 97
1, 251322, Control_c, 0, 64, 98
1, 251326, Note_off_c, 0, 55, 63
1, 251337, Control_c, 0, 64, 98
1, 251351, Control_c, 0, 64, 99
1, 251366, Note_on_c, 0, 62, 56
1, 251366, Control_c, 0, 64, 100
1, 251367, Note_on_c, 0, 74, 41
1, 251380, Control_c, 0, 64, 101
1, 251390, Note_off_c, 0, 74, 60
1, 251395, Control_c, 0, 64, 102
1, 251408, Note_off_c, 0, 62, 57
1, 251424, Control_c, 0, 64, 99
1, 251439, Control_c, 0, 64, 86
1, 251446, Note_on_c, 0, 84, 80
1, 251453, Control_c, 0, 64, 66
1, 251466, Note_on_c, 0, 52, 59
1, 251468, Control_c, 0, 64, 0
1, 251513, Control_c, 0, 64, 58
1, 251527, Control_c, 0, 64, 71
1, 251530, Note_off_c, 0, 84, 58
1, 251533, Note_off_c, 0, 52, 62
1, 251539, Note_on_c, 0, 79, 51
1, 251542, Control_c, 0, 64, 80
1, 251557, Control_c, 0, 64, 87
1, 251572, Control_c, 0, 64, 88
1, 251575, Note_on_c, 0, 55, 51
1, 251587, Control_c, 0, 64, 88
1, 251591, Note_off_c, 0, 79, 55
1, 251602, Note_off_c, 0, 55, 60
1, 251617, Control_c, 0, 64, 89
1, 251626, Note_on_c, 0, 76, 58
1, 251632, Control_c, 0, 64, 90
1, 251646, Control_c, 0, 64, 91
1, 251647, Note_on_c, 0, 60, 48
1, 251655, Note_off_c, 0, 76, 58
1, 251661, Control_c, 0, 64, 93
1, 251675, Note_off_c, 0, 60, 54
1, 251676, Control_c, 0, 64, 95
1, 251691, Control_c, 0, 64, 95
1, 251706, Control_c, 0, 64, 96
1, 251720, Control_c, 0, 64, 96
1, 251728, Note_on_c, 0, 79, 53
1, 251747, Note_on_c, 0, 48, 48
1, 251787, Control_c, 0, 64, 97
1, 251805, Note_off_c, 0, 48, 59
1, 251808, Note_off_c, 0, 79, 60
1, 251816, Control_c, 0, 67, 11
1, 251817, Note_on_c, 0, 76, 54
1, 251831, Control_c, 0, 67, 16
1, 251835, Note_on_c, 0, 52, 51
1, 251846, Control_c, 0, 67, 24
1, 251852, Note_off_c, 0, 76, 66
1, 251861, Control_c, 0, 67, 33
1, 251876, Control_c, 0, 67, 41
1, 251882, Note_off_c, 0, 52, 60
1, 251891, Control_c, 0, 67, 49
1, 251906, Control_c, 0, 67, 56
1, 251915, Note_on_c, 0, 72, 53
1, 251921, Control_c, 0, 67, 63
1, 251928, Note_on_c, 0, 55, 45
1, 251936, Control_c, 0, 67, 70
1, 251948, Note_off_c, 0, 72, 62
1, 251951, Control_c, 0, 67, 78
1, 251965, Control_c, 0, 67, 86
1, 251980, Control_c, 0, 67, 95
1, 251989, Note_off_c, 0, 55, 43
1, 251995, Control_c, 0, 64, 92
1, 251995, Control_c, 0, 67, 108
1, 252006, Note_on_c, 0, 77, 71
1, 252010, Control_c, 0, 64, 80
1, 252010, Control_c, 0, 67, 123
1, 252019, Note_on_c, 0, 50, 58
1, 252025, Control_c, 0, 64, 63
1, 252025, Control_c, 0, 67, 127
1, 252040, Control_c, 0, 64, 0
1, 252076, Note_off_c, 0, 77, 58
1, 252084, Control_c, 0, 64, 63
1, 252097, Note_off_c, 0, 50, 59
1, 252099, Control_c, 0, 64, 73
1, 252107, Note_on_c, 0, 74, 53
1, 252114, Control_c, 0, 64, 82
1, 252129, Control_c, 0, 64, 87
1, 252129, Note_on_c, 0, 53, 53
1, 252132, Note_off_c, 0, 74, 65
1, 252143, Control_c, 0, 64, 88
1, 252158, Control_c, 0, 64, 88
1, 252173, Control_c, 0, 64, 89
1, 252179, Note_off_c, 0, 53, 63
1, 252188, Control_c, 0, 64, 91
1, 252202, Note_on_c, 0, 71, 44
1, 252203, Control_c, 0, 64, 93
1, 252215, Note_on_c, 0, 55, 54
1, 252217, Control_c, 0, 64, 95
1, 252225, Note_off_c, 0, 71, 56
1, 252232, Control_c, 0, 64, 97
1, 252247, Control_c, 0, 64, 99
1, 252262, Control_c, 0, 64, 99
1, 252264, Note_off_c, 0, 55, 55
1, 252276, Control_c, 0, 64, 100
1, 252291, Control_c, 0, 64, 99
1, 252304, Note_on_c, 0, 83, 76
1, 252306, Control_c, 0, 64, 95
1, 252321, Control_c, 0, 64, 83
1, 252322, Note_on_c, 0, 53, 55
1, 252336, Control_c, 0, 64, 66
1, 252350, Control_c, 0, 64, 0
1, 252369, Note_off_c, 0, 53, 64
1, 252386, Note_off_c, 0, 83, 58
1, 252395, Control_c, 0, 64, 64
1, 252407, Note_on_c, 0, 79, 53
1, 252410, Control_c, 0, 64, 73
1, 252425, Control_c, 0, 64, 82
1, 252428, Note_on_c, 0, 55, 50
1, 252436, Note_off_c, 0, 79, 57
1, 252439, Control_c, 0, 64, 86
1, 252469, Control_c, 0, 64, 86
1, 252474, Note_off_c, 0, 55, 63
1, 252484, Control_c, 0, 64, 87
1, 252506, Control_c, 0, 64, 88
1, 252516, Note_on_c, 0, 74, 46
1, 252521, Control_c, 0, 64, 90
1, 252532, Note_on_c, 0, 62, 53
1, 252536, Control_c, 0, 64, 92
1, 252538, Note_off_c, 0, 74, 64
1, 252550, Control_c, 0, 64, 93
1, 252560, Note_off_c, 0, 62, 59
1, 252565, Control_c, 0, 64, 94
1, 252580, Control_c, 0, 64, 94
1, 252595, Control_c, 0, 64, 93
1, 252602, Note_on_c, 0, 84, 78
1, 252609, Control_c, 0, 64, 85
1, 252619, Note_on_c, 0, 52, 60
1, 252624, Control_c, 0, 64, 69
1, 252639, Control_c, 0, 64, 0
1, 252664, Note_off_c, 0, 52, 58
1, 252669, Note_on_c, 0, 79, 57
1, 252669, Note_off_c, 0, 84, 61
1, 252702, Note_on_c, 0, 55, 58
1, 252723, Note_off_c, 0, 79, 57
1, 252731, Note_on_c, 0, 76, 62
1, 252737, Note_off_c, 0, 55, 62
1, 252767, Note_on_c, 0, 48, 54
1, 252769, Note_off_c, 0, 76, 60
1, 252797, Note_on_c, 0, 72, 66
1, 252819, Note_off_c, 0, 48, 62
1, 252833, Note_off_c, 0, 72, 61
1, 252838, Note_on_c, 0, 55, 38
1, 252868, Note_off_c, 0, 55, 56
1, 252874, Note_on_c, 0, 77, 58
1, 252894, Note_off_c, 0, 77, 60
1, 252897, Note_on_c, 0, 50, 48
1, 252928, Note_on_c, 0, 74, 66
1, 252946, Note_off_c, 0, 50, 56
1, 252954, Note_on_c, 0, 55, 58
1, 252973, Note_off_c, 0, 74, 60
1, 252995, Note_off_c, 0, 55, 62
1, 253003, Note_on_c, 0, 83, 73
1, 253029, Note_on_c, 0, 53, 53
1, 253063, Note_off_c, 0, 53, 66
1, 253069, Note_on_c, 0, 79, 70
1, 253074, Note_off_c, 0, 83, 57
1, 253081, Note_on_c, 0, 55, 63
1, 253112, Note_off_c, 0, 79, 59
1, 253119, Note_off_c, 0, 55, 61
1, 253122, Note_on_c, 0, 84, 73
1, 253150, Note_on_c, 0, 52, 58
1, 253187, Note_off_c, 0, 52, 65
1, 253196, Note_off_c, 0, 84, 63
1, 253203, Note_on_c, 0, 79, 62
1, 253208, Note_on_c, 0, 55, 67
1, 253254, Note_off_c, 0, 55, 59
1, 253268, Note_off_c, 0, 79, 61
1, 253276, Note_on_c, 0, 76, 62
1, 253301, Note_on_c, 0, 48, 45
1, 253301, Note_off_c, 0, 76, 59
1, 253336, Note_on_c, 0, 72, 64
1, 253343, Note_off_c, 0, 48, 64
1, 253349, Note_on_c, 0, 55, 60
1, 253368, Note_off_c, 0, 72, 60
1, 253384, Note_off_c, 0, 55, 63
1, 253405, Note_on_c, 0, 77, 62
1, 253413, Note_on_c, 0, 50, 59
1, 253431, Note_off_c, 0, 77, 61
1, 253456, Note_off_c, 0, 50, 62
1, 253462, Note_on_c, 0, 74, 65
1, 253466, Note_on_c, 0, 55, 63
1, 253506, Note_off_c, 0, 74, 61
1, 253515, Note_off_c, 0, 55, 59
1, 253533, Note_on_c, 0, 83, 70
1, 253544, Note_on_c, 0, 53, 57
1, 253575, Note_off_c, 0, 53, 67
1, 253592, Note_on_c, 0, 55, 62
1, 253597, Note_off_c, 0, 83, 59
1, 253599, Note_on_c, 0, 79, 61
1, 253629, Note_off_c, 0, 79, 55
1, 253632, Note_off_c, 0, 55, 61
1, 253657, Note_on_c, 0, 84, 71
1, 253670, Note_on_c, 0, 52, 61
1, 253703, Note_off_c, 0, 52, 69
1, 253711, Note_off_c, 0, 84, 61
1, 253715, Note_on_c, 0, 79, 59
1, 253717, Note_on_c, 0, 55, 69
1, 253762, Note_off_c, 0, 79, 55
1, 253772, Note_off_c, 0, 55, 59
1, 253778, Note_on_c, 0, 83, 69
1, 253802, Note_on_c, 0, 53, 45
1, 253827, Note_off_c, 0, 53, 57
1, 253832, Note_off_c, 0, 83, 57
1, 253839, Note_on_c, 0, 55, 56
1, 253849, Note_on_c, 0, 79, 71
1, 253885, Note_off_c, 0, 55, 61
1, 253888, Note_off_c, 0, 79, 58
1, 253915, Note_on_c, 0, 84, 83
1, 253921, Note_on_c, 0, 52, 67
1, 253954, Note_off_c, 0, 52, 67
1, 253972, Note_on_c, 0, 55, 66
1, 253975, Note_off_c, 0, 84, 61
1, 253987, Note_on_c, 0, 79, 76
1, 254025, Note_off_c, 0, 55, 60
1, 254038, Note_off_c, 0, 79, 59
1, 254055, Note_on_c, 0, 83, 70
1, 254067, Note_on_c, 0, 53, 61
1, 254092, Note_off_c, 0, 53, 66
1, 254111, Note_off_c, 0, 83, 58
1, 254118, Note_on_c, 0, 55, 63
1, 254127, Note_on_c, 0, 79, 71
1, 254152, Note_off_c, 0, 79, 65
1, 254156, Note_off_c, 0, 55, 61
1, 254188, Note_on_c, 0, 84, 90
1, 254189, Note_on_c, 0, 52, 76
1, 254228, Note_off_c, 0, 52, 62
1, 254249, Note_on_c, 0, 55, 70
1, 254255, Note_on_c, 0, 79, 78
1, 254256, Note_off_c, 0, 84, 60
1, 254303, Note_off_c, 0, 79, 59
1, 254303, Note_off_c, 0, 55, 59
1, 254323, Note_on_c, 0, 53, 66
1, 254325, Note_on_c, 0, 83, 68
1, 254355, Note_off_c, 0, 53, 66
1, 254374, Note_off_c, 0, 83, 60
1, 254376, Note_on_c, 0, 55, 65
1, 254379, Note_on_c, 0, 79, 80
1, 254416, Note_off_c, 0, 79, 64
1, 254424, Note_off_c, 0, 55, 62
1, 254443, Note_on_c, 0, 84, 93
1, 254444, Note_on_c, 0, 52, 82
1, 254449, Control_c, 0, 67, 122
1, 254464, Control_c, 0, 67, 88
1, 254478, Control_c, 0, 67, 32
1, 254488, Note_off_c, 0, 52, 64
1, 254493, Control_c, 0, 67, 0
1, 254506, Note_on_c, 0, 55, 74
1, 254511, Note_on_c, 0, 79, 86
1, 254523, Note_off_c, 0, 84, 64
1, 254560, Note_off_c, 0, 79, 61
1, 254561, Note_off_c, 0, 55, 63
1, 254571, Note_on_c, 0, 53, 68
1, 254576, Note_on_c, 0, 83, 81
1, 254621, Note_off_c, 0, 53, 63
1, 254636, Note_off_c, 0, 83, 61
1, 254638, Note_on_c, 0, 55, 73
1, 254640, Note_on_c, 0, 79, 89
1, 254683, Note_off_c, 0, 79, 64
1, 254687, Note_off_c, 0, 55, 63
1, 254701, Control_c, 0, 64, 65
1, 254709, Note_on_c, 0, 52, 67
1, 254711, Note_on_c, 0, 84, 104
1, 254716, Control_c, 0, 64, 107
1, 254731, Control_c, 0, 64, 127
1, 254747, Note_off_c, 0, 52, 67
1, 254772, Note_on_c, 0, 55, 68
1, 254791, Note_on_c, 0, 79, 87
1, 254799, Note_off_c, 0, 55, 67
1, 254818, Note_off_c, 0, 84, 63
1, 254851, Note_off_c, 0, 79, 59
1, 254863, Note_on_c, 0, 82, 96
1, 254867, Note_on_c, 0, 40, 79
1, 254930, Note_on_c, 0, 79, 93
1, 254934, Note_on_c, 0, 48, 63
1, 254935, Note_off_c, 0, 82, 65
1, 254936, Note_off_c, 0, 40, 63
1, 254994, Note_off_c, 0, 48, 63
1, 254995, Note_on_c, 0, 82, 85
1, 254996, Note_off_c, 0, 79, 61
1, 255012, Note_on_c, 0, 40, 74
1, 255062, Note_off_c, 0, 40, 61
1, 255063, Note_off_c, 0, 82, 63
1, 255064, Note_on_c, 0, 79, 91
1, 255069, Note_on_c, 0, 48, 81
1, 255121, Note_off_c, 0, 79, 56
1, 255125, Note_off_c, 0, 48, 62
1, 255136, Note_on_c, 0, 82, 90
1, 255143, Note_on_c, 0, 40, 76
1, 255194, Note_off_c, 0, 82, 64
1, 255195, Note_on_c, 0, 79, 91
1, 255198, Note_on_c, 0, 48, 82
1, 255207, Note_off_c, 0, 40, 61
1, 255255, Note_off_c, 0, 48, 63
1, 255261, Note_off_c, 0, 79, 52
1, 255267, Note_on_c, 0, 82, 91
1, 255271, Note_on_c, 0, 40, 77
1, 255328, Note_off_c, 0, 82, 64
1, 255330, Note_on_c, 0, 79, 90
1, 255331, Note_on_c, 0, 48, 85
1, 255337, Note_off_c, 0, 40, 63
1, 255394, Note_off_c, 0, 48, 60
1, 255397, Note_off_c, 0, 79, 55
1, 255401, Note_on_c, 0, 82, 93
1, 255405, Note_on_c, 0, 40, 82
1, 255456, Note_off_c, 0, 40, 60
1, 255456, Note_off_c, 0, 82, 64
1, 255463, Note_on_c, 0, 79, 92
1, 255465, Note_on_c, 0, 48, 84
1, 255528, Note_off_c, 0, 48, 60
1, 255528, Note_off_c, 0, 79, 60
1, 255541, Note_on_c, 0, 40, 86
1, 255547, Note_on_c, 0, 82, 92
1, 255598, Note_off_c, 0, 82, 63
1, 255605, Note_on_c, 0, 48, 91
1, 255605, Note_on_c, 0, 79, 93
1, 255605, Note_off_c, 0, 40, 62
1, 255654, Note_off_c, 0, 79, 64
1, 255670, Note_off_c, 0, 48, 58
1, 255677, Note_on_c, 0, 40, 81
1, 255680, Note_on_c, 0, 82, 89
1, 255733, Note_off_c, 0, 82, 62
1, 255736, Note_off_c, 0, 40, 63
1, 255738, Note_on_c, 0, 79, 91
1, 255745, Note_on_c, 0, 48, 86
1, 255775, Note_off_c, 0, 79, 65
1, 255802, Note_off_c, 0, 48, 59
1, 255810, Note_on_c, 0, 40, 92
1, 255826, Note_on_c, 0, 81, 70
1, 255838, Note_on_c, 0, 80, 56
1, 255867, Note_off_c, 0, 80, 51
1, 255885, Note_off_c, 0, 81, 60
1, 255886, Note_on_c, 0, 48, 85
1, 255888, Poly_aftertouch_c, 0, 45, 127
1, 255894, Note_off_c, 0, 40, 63
1, 255954, Note_off_c, 0, 48, 59
1, 255972, Note_on_c, 0, 40, 68
1, 255979, Note_on_c, 0, 81, 61
1, 256028, Note_off_c, 0, 40, 63
1, 256037, Note_on_c, 0, 79, 76
1, 256037, Note_on_c, 0, 48, 79
1, 256054, Note_off_c, 0, 81, 58
1, 256071, Poly_aftertouch_c, 0, 45, 0
1, 256081, Control_c, 0, 64, 117
1, 256096, Control_c, 0, 64, 103
1, 256097, Note_on_c, 0, 77, 80
1, 256097, Note_off_c, 0, 79, 64
1, 256103, Note_off_c, 0, 48, 57
1, 256111, Control_c, 0, 64, 90
1, 256115, Note_on_c, 0, 40, 80
1, 256125, Control_c, 0, 64, 73
1, 256140, Control_c, 0, 64, 0
1, 256160, Note_off_c, 0, 77, 58
1, 256164, Note_on_c, 0, 76, 73
1, 256183, Note_off_c, 0, 40, 64
1, 256192, Note_on_c, 0, 48, 81
1, 256234, Note_on_c, 0, 74, 75
1, 256253, Note_off_c, 0, 48, 63
1, 256268, Note_off_c, 0, 76, 58
1, 256279, Note_on_c, 0, 40, 74
1, 256294, Note_off_c, 0, 74, 62
1, 256310, Note_on_c, 0, 72, 75
1, 256325, Note_off_c, 0, 40, 64
1, 256345, Note_on_c, 0, 48, 79
1, 256356, Note_off_c, 0, 72, 47
1, 256369, Note_on_c, 0, 70, 82
1, 256388, Note_off_c, 0, 48, 65
1, 256410, Note_on_c, 0, 40, 71
1, 256442, Note_on_c, 0, 69, 82
1, 256452, Note_off_c, 0, 40, 64
1, 256479, Note_on_c, 0, 48, 70
1, 256486, Note_off_c, 0, 70, 56
1, 256520, Note_on_c, 0, 67, 73
1, 256531, Note_off_c, 0, 48, 60
1, 256532, Note_off_c, 0, 69, 60
1, 256557, Note_on_c, 0, 40, 76
1, 256571, Note_on_c, 0, 65, 80
1, 256577, Note_off_c, 0, 67, 63
1, 256605, Note_off_c, 0, 40, 63
1, 256628, Note_on_c, 0, 48, 81
1, 256628, Note_off_c, 0, 65, 49
1, 256643, Note_on_c, 0, 64, 78
1, 256665, Note_off_c, 0, 48, 69
1, 256666, Control_c, 0, 64, 79
1, 256681, Control_c, 0, 64, 85
1, 256695, Note_on_c, 0, 40, 76
1, 256704, Note_on_c, 0, 62, 76
1, 256710, Note_off_c, 0, 64, 61
1, 256711, Control_c, 0, 64, 84
1, 256741, Control_c, 0, 64, 87
1, 256756, Control_c, 0, 64, 95
1, 256756, Note_off_c, 0, 62, 63
1, 256761, Note_on_c, 0, 48, 83
1, 256762, Note_on_c, 0, 60, 75
1, 256771, Control_c, 0, 64, 121
1, 256774, Note_off_c, 0, 40, 61
1, 256786, Control_c, 0, 64, 127
1, 256791, Note_off_c, 0, 60, 58
1, 256797, Note_off_c, 0, 48, 64
1, 256825, Note_on_c, 0, 58, 83
1, 256884, Note_off_c, 0, 58, 63
1, 256889, Note_on_c, 0, 48, 105
1, 256895, Note_on_c, 0, 41, 100
1, 256897, Note_on_c, 0, 45, 96
1, 256899, Note_on_c, 0, 57, 81
1, 256919, Note_off_c, 0, 45, 68
1, 256919, Control_c, 0, 64, 91
1, 256920, Note_off_c, 0, 48, 71
1, 256929, Note_off_c, 0, 41, 66
1, 256934, Control_c, 0, 64, 54
1, 256942, Note_off_c, 0, 57, 65
1, 256948, Control_c, 0, 64, 0
1, 256977, Note_on_c, 0, 59, 72
1, 257039, Note_off_c, 0, 59, 61
1, 257048, Note_on_c, 0, 41, 86
1, 257048, Note_on_c, 0, 45, 36
1, 257048, Note_on_c, 0, 48, 89
1, 257056, Note_on_c, 0, 60, 68
1, 257065, Note_off_c, 0, 45, 50
1, 257070, Note_off_c, 0, 48, 72
1, 257077, Note_off_c, 0, 41, 68
1, 257108, Note_off_c, 0, 60, 62
1, 257113, Note_on_c, 0, 59, 68
1, 257157, Note_off_c, 0, 59, 47
1, 257179, Note_on_c, 0, 60, 53
1, 257201, Note_off_c, 0, 60, 37
1, 257236, Note_on_c, 0, 64, 75
1, 257278, Note_off_c, 0, 64, 58
1, 257301, Note_on_c, 0, 65, 82
1, 257309, Note_on_c, 0, 48, 90
1, 257317, Note_on_c, 0, 45, 73
1, 257318, Note_on_c, 0, 41, 77
1, 257332, Note_off_c, 0, 48, 71
1, 257337, Note_off_c, 0, 45, 65
1, 257341, Note_off_c, 0, 41, 67
1, 257359, Note_off_c, 0, 65, 64
1, 257373, Note_on_c, 0, 64, 78
1, 257421, Note_off_c, 0, 64, 43
1, 257433, Note_on_c, 0, 65, 78
1, 257438, Note_on_c, 0, 45, 86
1, 257438, Note_on_c, 0, 48, 97
1, 257439, Note_on_c, 0, 41, 88
1, 257463, Note_off_c, 0, 45, 68
1, 257467, Note_off_c, 0, 65, 63
1, 257470, Note_off_c, 0, 48, 67
1, 257477, Note_off_c, 0, 41, 65
1, 257504, Note_on_c, 0, 68, 75
1, 257569, Note_off_c, 0, 68, 64
1, 257572, Note_on_c, 0, 69, 80
1, 257575, Note_on_c, 0, 48, 76
1, 257577, Note_on_c, 0, 41, 75
1, 257578, Note_on_c, 0, 45, 68
1, 257593, Note_off_c, 0, 48, 67
1, 257599, Note_off_c, 0, 45, 63
1, 257607, Note_off_c, 0, 41, 67
1, 257614, Note_off_c, 0, 69, 68
1, 257630, Note_on_c, 0, 68, 71
1, 257668, Note_off_c, 0, 68, 64
1, 257701, Note_on_c, 0, 69, 83
1, 257772, Note_on_c, 0, 71, 76
1, 257774, Note_off_c, 0, 69, 62
1, 257828, Note_off_c, 0, 71, 57
1, 257832, Note_on_c, 0, 48, 88
1, 257835, Note_on_c, 0, 72, 81
1, 257835, Note_on_c, 0, 45, 82
1, 257838, Note_on_c, 0, 41, 80
1, 257859, Note_off_c, 0, 45, 68
1, 257860, Note_off_c, 0, 48, 67
1, 257871, Note_off_c, 0, 41, 67
1, 257892, Note_off_c, 0, 72, 65
1, 257901, Note_on_c, 0, 71, 79
1, 257955, Note_off_c, 0, 71, 58
1, 257959, Note_on_c, 0, 72, 77
1, 257960, Note_on_c, 0, 45, 84
1, 257963, Note_on_c, 0, 48, 101
1, 257964, Note_on_c, 0, 41, 88
1, 257979, Note_off_c, 0, 72, 71
1, 257989, Note_off_c, 0, 45, 64
1, 257994, Note_off_c, 0, 48, 68
1, 258002, Note_off_c, 0, 41, 65
1, 258034, Note_on_c, 0, 76, 82
1, 258082, Note_off_c, 0, 76, 64
1, 258092, Note_on_c, 0, 77, 84
1, 258102, Note_on_c, 0, 48, 80
1, 258103, Note_on_c, 0, 45, 73
1, 258105, Note_on_c, 0, 41, 78
1, 258123, Note_off_c, 0, 45, 67
1, 258127, Note_off_c, 0, 48, 68
1, 258133, Note_off_c, 0, 41, 68
1, 258148, Note_off_c, 0, 77, 62
1, 258163, Note_on_c, 0, 76, 81
1, 258214, Note_on_c, 0, 77, 72
1, 258215, Note_off_c, 0, 76, 64
1, 258279, Note_off_c, 0, 77, 62
1, 258282, Note_on_c, 0, 80, 75
1, 258339, Note_off_c, 0, 80, 64
1, 258344, Note_on_c, 0, 81, 90
1, 258348, Note_on_c, 0, 48, 86
1, 258354, Note_on_c, 0, 45, 80
1, 258354, Note_on_c, 0, 41, 79
1, 258374, Note_off_c, 0, 48, 69
1, 258376, Note_off_c, 0, 45, 68
1, 258387, Note_off_c, 0, 41, 68
1, 258398, Note_off_c, 0, 81, 60
1, 258407, Note_on_c, 0, 80, 84
1, 258443, Note_off_c, 0, 80, 66
1, 258476, Note_on_c, 0, 45, 84
1, 258477, Note_on_c, 0, 48, 106
1, 258479, Note_on_c, 0, 81, 90
1, 258481, Note_on_c, 0, 41, 98
1, 258510, Note_off_c, 0, 45, 69
1, 258513, Note_off_c, 0, 48, 70
1, 258525, Note_off_c, 0, 41, 65
1, 258544, Note_on_c, 0, 83, 87
1, 258571, Note_off_c, 0, 81, 38
1, 258598, Note_off_c, 0, 83, 58
1, 258619, Note_on_c, 0, 84, 83
1, 258623, Note_on_c, 0, 41, 86
1, 258623, Note_on_c, 0, 48, 82
1, 258626, Note_on_c, 0, 45, 75
1, 258645, Note_off_c, 0, 45, 67
1, 258649, Note_off_c, 0, 48, 69
1, 258658, Note_off_c, 0, 41, 67
1, 258670, Note_off_c, 0, 84, 63
1, 258680, Note_on_c, 0, 83, 84
1, 258730, Note_off_c, 0, 83, 57
1, 258746, Note_on_c, 0, 84, 87
1, 258807, Note_on_c, 0, 83, 77
1, 258825, Note_off_c, 0, 84, 64
1, 258856, Note_on_c, 0, 48, 96
1, 258862, Note_on_c, 0, 41, 86
1, 258867, Note_on_c, 0, 81, 85
1, 258867, Note_off_c, 0, 83, 58
1, 258870, Note_on_c, 0, 45, 64
1, 258885, Note_off_c, 0, 48, 66
1, 258891, Note_off_c, 0, 41, 69
1, 258897, Note_off_c, 0, 45, 41
1, 258941, Note_on_c, 0, 80, 86
1, 258944, Note_off_c, 0, 81, 58
1, 258991, Note_on_c, 0, 50, 95
1, 258994, Note_on_c, 0, 48, 99
1, 259004, Note_off_c, 0, 80, 62
1, 259006, Note_on_c, 0, 41, 65
1, 259006, Note_on_c, 0, 81, 96
1, 259014, Note_off_c, 0, 48, 70
1, 259016, Control_c, 0, 64, 91
1, 259018, Note_off_c, 0, 50, 65
1, 259031, Control_c, 0, 64, 127
1, 259034, Note_on_c, 0, 44, 21
1, 259035, Note_off_c, 0, 44, 127
1, 259036, Note_off_c, 0, 41, 58
1, 259051, Note_off_c, 0, 81, 66
1, 259075, Poly_aftertouch_c, 0, 44, 0
1, 259075, Control_c, 0, 64, 105
1, 259090, Control_c, 0, 64, 82
1, 259097, Note_on_c, 0, 83, 86
1, 259102, Poly_aftertouch_c, 0, 46, 0
1, 259105, Control_c, 0, 64, 0
1, 259132, Note_on_c, 0, 50, 77
1, 259134, Note_on_c, 0, 48, 82
1, 259142, Note_on_c, 0, 42, 66
1, 259153, Note_off_c, 0, 48, 75
1, 259154, Note_off_c, 0, 83, 59
1, 259155, Note_off_c, 0, 50, 67
1, 259167, Note_off_c, 0, 42, 63
1, 259178, Note_on_c, 0, 84, 76
1, 259240, Note_on_c, 0, 83, 77
1, 259250, Note_off_c, 0, 84, 63
1, 259310, Note_on_c, 0, 81, 87
1, 259310, Note_off_c, 0, 83, 61
1, 259373, Note_off_c, 0, 81, 44
1, 259382, Note_on_c, 0, 80, 84
1, 259404, Note_on_c, 0, 50, 82
1, 259408, Note_on_c, 0, 48, 77
1, 259409, Note_on_c, 0, 42, 69
1, 259432, Note_off_c, 0, 50, 67
1, 259436, Note_off_c, 0, 48, 66
1, 259448, Note_off_c, 0, 80, 64
1, 259451, Note_off_c, 0, 42, 64
1, 259454, Note_on_c, 0, 81, 89
1, 259455, Note_on_c, 0, 45, 13
1, 259498, Note_off_c, 0, 45, 43
1, 259501, Note_off_c, 0, 81, 59
1, 259517, Note_on_c, 0, 80, 79
1, 259522, Note_on_c, 0, 50, 99
1, 259526, Note_on_c, 0, 48, 89
1, 259533, Note_on_c, 0, 42, 87
1, 259543, Control_c, 0, 64, 71
1, 259555, Note_on_c, 0, 45, 39
1, 259558, Control_c, 0, 64, 84
1, 259570, Note_off_c, 0, 80, 64
1, 259573, Control_c, 0, 64, 90
1, 259574, Note_off_c, 0, 48, 47
1, 259577, Note_on_c, 0, 81, 96
1, 259584, Note_off_c, 0, 50, 53
1, 259603, Note_off_c, 0, 45, 43
1, 259615, Note_off_c, 0, 42, 62
1, 259620, Note_off_c, 0, 81, 58
1, 259651, Note_on_c, 0, 83, 85
1, 259680, Note_on_c, 0, 50, 92
1, 259687, Note_on_c, 0, 42, 70
1, 259689, Note_on_c, 0, 48, 78
1, 259699, Note_off_c, 0, 83, 56
1, 259713, Note_on_c, 0, 45, 21
1, 259716, Note_off_c, 0, 48, 62
1, 259716, Note_off_c, 0, 50, 63
1, 259722, Note_on_c, 0, 84, 82
1, 259737, Note_off_c, 0, 42, 61
1, 259755, Note_off_c, 0, 45, 53
1, 259765, Control_c, 0, 64, 87
1, 259780, Control_c, 0, 64, 78
1, 259781, Note_on_c, 0, 83, 80
1, 259787, Note_off_c, 0, 84, 63
1, 259794, Control_c, 0, 64, 56
1, 259809, Control_c, 0, 64, 0
1, 259844, Note_off_c, 0, 83, 61
1, 259847, Note_on_c, 0, 81, 83
1, 259922, Note_on_c, 0, 80, 86
1, 259924, Note_off_c, 0, 81, 58
1, 259932, Note_on_c, 0, 48, 80
1, 259932, Note_on_c, 0, 50, 79
1, 259934, Note_on_c, 0, 42, 68
1, 259962, Note_off_c, 0, 50, 65
1, 259963, Note_off_c, 0, 48, 64
1, 259977, Note_off_c, 0, 42, 63
1, 259978, Note_off_c, 0, 80, 63
1, 260002, Note_on_c, 0, 81, 90
1, 260051, Note_on_c, 0, 48, 96
1, 260054, Note_on_c, 0, 50, 95
1, 260056, Note_off_c, 0, 81, 56
1, 260059, Note_on_c, 0, 42, 80
1, 260074, Note_on_c, 0, 80, 87
1, 260087, Note_on_c, 0, 45, 37
1, 260094, Note_off_c, 0, 48, 59
1, 260097, Note_off_c, 0, 50, 54
1, 260099, Control_c, 0, 64, 81
1, 260114, Control_c, 0, 64, 103
1, 260129, Control_c, 0, 64, 110
1, 260132, Note_off_c, 0, 42, 62
1, 260133, Note_off_c, 0, 80, 61
1, 260133, Note_off_c, 0, 45, 46
1, 260149, Note_on_c, 0, 81, 88
1, 260188, Note_on_c, 0, 50, 96
1, 260196, Note_on_c, 0, 48, 75
1, 260197, Note_on_c, 0, 42, 71
1, 260211, Note_on_c, 0, 45, 42
1, 260213, Note_off_c, 0, 81, 56
1, 260215, Note_off_c, 0, 48, 73
1, 260217, Note_on_c, 0, 83, 84
1, 260218, Note_off_c, 0, 50, 60
1, 260232, Control_c, 0, 64, 107
1, 260242, Note_off_c, 0, 45, 53
1, 260243, Note_off_c, 0, 42, 61
1, 260247, Control_c, 0, 64, 99
1, 260262, Control_c, 0, 64, 83
1, 260266, Note_off_c, 0, 83, 58
1, 260277, Control_c, 0, 64, 60
1, 260288, Note_on_c, 0, 84, 81
1, 260291, Control_c, 0, 64, 0
1, 260345, Note_on_c, 0, 83, 79
1, 260357, Note_off_c, 0, 84, 61
1, 260403, Note_off_c, 0, 83, 63
1, 260406, Note_on_c, 0, 81, 84
1, 260431, Note_on_c, 0, 48, 92
1, 260436, Note_on_c, 0, 42, 75
1, 260436, Note_on_c, 0, 50, 84
1, 260462, Note_off_c, 0, 50, 63
1, 260468, Note_off_c, 0, 48, 63
1, 260473, Note_on_c, 0, 80, 90
1, 260481, Note_off_c, 0, 81, 60
1, 260484, Note_off_c, 0, 42, 59
1, 260530, Note_off_c, 0, 80, 61
1, 260548, Note_on_c, 0, 81, 91
1, 260556, Note_on_c, 0, 50, 99
1, 260557, Note_on_c, 0, 48, 101
1, 260564, Note_on_c, 0, 42, 80
1, 260576, Note_on_c, 0, 45, 56
1, 260590, Note_off_c, 0, 48, 67
1, 260592, Note_off_c, 0, 50, 63
1, 260594, Note_off_c, 0, 81, 64
1, 260602, Note_on_c, 0, 80, 82
1, 260604, Control_c, 0, 64, 56
1, 260612, Note_off_c, 0, 45, 62
1, 260618, Control_c, 0, 64, 85
1, 260624, Note_off_c, 0, 42, 63
1, 260629, Note_off_c, 0, 80, 64
1, 260633, Control_c, 0, 64, 86
1, 260648, Control_c, 0, 64, 76
1, 260663, Control_c, 0, 64, 0
1, 260678, Note_on_c, 0, 81, 95
1, 260682, Note_on_c, 0, 48, 96
1, 260684, Note_on_c, 0, 50, 96
1, 260689, Note_on_c, 0, 42, 72
1, 260696, Note_on_c, 0, 45, 66
1, 260713, Note_off_c, 0, 81, 58
1, 260719, Note_off_c, 0, 48, 67
1, 260721, Note_off_c, 0, 50, 65
1, 260741, Note_off_c, 0, 45, 62
1, 260751, Note_on_c, 0, 83, 82
1, 260756, Note_off_c, 0, 42, 62
1, 260798, Note_off_c, 0, 83, 58
1, 260817, Note_on_c, 0, 84, 87
1, 260875, Note_off_c, 0, 84, 64
1, 260878, Note_on_c, 0, 83, 86
1, 260880, Note_on_c, 0, 48, 18
1, 260915, Note_off_c, 0, 48, 56
1, 260921, Note_on_c, 0, 84, 76
1, 260926, Note_off_c, 0, 83, 61
1, 260934, Poly_aftertouch_c, 0, 45, 0
1, 260945, Note_on_c, 0, 42, 72
1, 260950, Note_on_c, 0, 50, 79
1, 260954, Note_on_c, 0, 48, 80
1, 260968, Control_c, 0, 64, 54
1, 260974, Note_off_c, 0, 84, 66
1, 260982, Note_off_c, 0, 42, 65
1, 260983, Control_c, 0, 64, 127
1, 260986, Note_on_c, 0, 81, 68
1, 261003, Note_off_c, 0, 50, 60
1, 261004, Note_off_c, 0, 81, 64
1, 261039, Note_off_c, 0, 48, 0
1, 261056, Control_c, 0, 64, 94
1, 261065, Note_on_c, 0, 43, 86
1, 261071, Control_c, 0, 64, 57
1, 261086, Control_c, 0, 64, 0
1, 261087, Note_on_c, 0, 79, 100
1, 261090, Note_on_c, 0, 67, 95
1, 261109, Poly_aftertouch_c, 0, 48, 0
1, 261122, Note_off_c, 0, 67, 63
1, 261127, Note_off_c, 0, 79, 64
1, 261145, Control_c, 0, 64, 71
1, 261151, Note_on_c, 0, 48, 62
1, 261160, Control_c, 0, 64, 80
1, 261171, Note_off_c, 0, 43, 59
1, 261175, Control_c, 0, 64, 84
1, 261228, Note_on_c, 0, 79, 93
1, 261231, Note_on_c, 0, 52, 80
1, 261233, Note_on_c, 0, 67, 90
1, 261233, Note_off_c, 0, 48, 66
1, 261260, Note_off_c, 0, 67, 60
1, 261267, Note_off_c, 0, 79, 65
1, 261275, Note_off_c, 0, 52, 59
1, 261297, Note_on_c, 0, 55, 74
1, 261354, Note_off_c, 0, 55, 57
1, 261367, Note_on_c, 0, 76, 93
1, 261369, Note_on_c, 0, 43, 83
1, 261373, Note_on_c, 0, 64, 89
1, 261398, Note_off_c, 0, 64, 68
1, 261406, Note_off_c, 0, 76, 65
1, 261428, Note_on_c, 0, 48, 75
1, 261448, Note_off_c, 0, 43, 57
1, 261504, Note_on_c, 0, 52, 79
1, 261504, Note_on_c, 0, 72, 96
1, 261508, Note_off_c, 0, 48, 62
1, 261508, Control_c, 0, 64, 85
1, 261513, Note_on_c, 0, 60, 78
1, 261524, Control_c, 0, 64, 86
1, 261536, Note_off_c, 0, 60, 69
1, 261538, Control_c, 0, 64, 89
1, 261543, Note_off_c, 0, 72, 63
1, 261551, Note_off_c, 0, 52, 65
1, 261553, Control_c, 0, 64, 91
1, 261562, Note_on_c, 0, 55, 75
1, 261568, Control_c, 0, 64, 92
1, 261598, Control_c, 0, 64, 88
1, 261612, Control_c, 0, 64, 76
1, 261627, Control_c, 0, 64, 0
1, 261641, Note_on_c, 0, 43, 87
1, 261650, Note_on_c, 0, 84, 107
1, 261654, Note_on_c, 0, 72, 94
1, 261658, Note_off_c, 0, 55, 49
1, 261683, Note_off_c, 0, 72, 66
1, 261686, Control_c, 0, 64, 64
1, 261687, Note_off_c, 0, 84, 69
1, 261698, Note_on_c, 0, 48, 70
1, 261701, Control_c, 0, 64, 75
1, 261714, Note_off_c, 0, 43, 61
1, 261716, Control_c, 0, 64, 85
1, 261731, Control_c, 0, 64, 91
1, 261746, Control_c, 0, 64, 91
1, 261761, Control_c, 0, 64, 92
1, 261776, Control_c, 0, 64, 92
1, 261776, Note_on_c, 0, 52, 77
1, 261779, Note_off_c, 0, 48, 65
1, 261788, Note_on_c, 0, 84, 92
1, 261790, Control_c, 0, 64, 94
1, 261797, Note_on_c, 0, 72, 83
1, 261805, Control_c, 0, 64, 96
1, 261816, Note_off_c, 0, 52, 61
1, 261820, Control_c, 0, 64, 99
1, 261820, Note_off_c, 0, 72, 69
1, 261823, Note_off_c, 0, 84, 65
1, 261835, Control_c, 0, 64, 102
1, 261841, Note_on_c, 0, 55, 72
1, 261850, Control_c, 0, 64, 104
1, 261863, Control_c, 0, 64, 105
1, 261878, Control_c, 0, 64, 106
1, 261893, Control_c, 0, 64, 106
1, 261900, Note_off_c, 0, 55, 58
1, 261919, Note_on_c, 0, 43, 81
1, 261923, Note_on_c, 0, 79, 96
1, 261923, Control_c, 0, 64, 106
1, 261929, Note_on_c, 0, 67, 89
1, 261937, Control_c, 0, 64, 101
1, 261952, Note_off_c, 0, 67, 65
1, 261952, Control_c, 0, 64, 91
1, 261956, Note_off_c, 0, 79, 67
1, 261967, Control_c, 0, 64, 78
1, 261972, Note_on_c, 0, 48, 70
1, 261981, Control_c, 0, 64, 58
1, 261990, Note_off_c, 0, 43, 59
1, 261996, Control_c, 0, 64, 0
1, 262046, Note_on_c, 0, 52, 79
1, 262048, Note_off_c, 0, 48, 65
1, 262060, Note_on_c, 0, 76, 98
1, 262067, Note_on_c, 0, 64, 86
1, 262086, Note_off_c, 0, 64, 73
1, 262092, Note_off_c, 0, 52, 64
1, 262098, Note_off_c, 0, 76, 68
1, 262113, Note_on_c, 0, 55, 75
1, 262188, Note_off_c, 0, 55, 47
1, 262190, Note_on_c, 0, 43, 85
1, 262196, Note_on_c, 0, 79, 103
1, 262200, Note_on_c, 0, 67, 95
1, 262204, Control_c, 0, 64, 75
1, 262219, Control_c, 0, 64, 89
1, 262241, Control_c, 0, 64, 90
1, 262244, Note_off_c, 0, 67, 63
1, 262244, Note_off_c, 0, 79, 66
1, 262256, Note_on_c, 0, 48, 78
1, 262256, Control_c, 0, 64, 89
1, 262270, Control_c, 0, 64, 89
1, 262280, Note_off_c, 0, 43, 60
1, 262327, Note_on_c, 0, 52, 80
1, 262331, Note_off_c, 0, 48, 63
1, 262346, Control_c, 0, 64, 88
1, 262348, Note_on_c, 0, 79, 97
1, 262352, Note_on_c, 0, 67, 85
1, 262360, Control_c, 0, 64, 88
1, 262375, Control_c, 0, 64, 86
1, 262376, Note_off_c, 0, 79, 61
1, 262378, Note_off_c, 0, 67, 66
1, 262379, Note_off_c, 0, 52, 62
1, 262387, Note_on_c, 0, 55, 80
1, 262390, Control_c, 0, 64, 79
1, 262405, Control_c, 0, 64, 68
1, 262420, Control_c, 0, 64, 0
1, 262449, Note_off_c, 0, 55, 58
1, 262469, Note_on_c, 0, 43, 76
1, 262486, Note_on_c, 0, 76, 90
1, 262494, Note_on_c, 0, 64, 81
1, 262513, Note_on_c, 0, 48, 77
1, 262516, Note_off_c, 0, 64, 70
1, 262519, Note_off_c, 0, 76, 69
1, 262540, Note_off_c, 0, 43, 61
1, 262596, Note_off_c, 0, 48, 62
1, 262598, Note_on_c, 0, 52, 80
1, 262616, Note_on_c, 0, 72, 92
1, 262636, Note_on_c, 0, 60, 55
1, 262647, Note_on_c, 0, 55, 78
1, 262649, Note_off_c, 0, 72, 68
1, 262654, Note_off_c, 0, 52, 66
1, 262658, Note_off_c, 0, 60, 39
1, 262697, Note_off_c, 0, 55, 64
1, 262737, Note_on_c, 0, 52, 94
1, 262754, Note_on_c, 0, 84, 101
1, 262759, Note_on_c, 0, 72, 93
1, 262760, Control_c, 0, 64, 55
1, 262773, Note_off_c, 0, 52, 68
1, 262775, Control_c, 0, 64, 80
1, 262789, Note_off_c, 0, 72, 64
1, 262790, Control_c, 0, 64, 81
1, 262792, Note_off_c, 0, 84, 67
1, 262804, Control_c, 0, 64, 76
1, 262819, Control_c, 0, 64, 41
1, 262834, Control_c, 0, 64, 0
1, 262882, Note_on_c, 0, 52, 73
1, 262887, Note_on_c, 0, 84, 98
1, 262888, Note_on_c, 0, 72, 91
1, 262917, Note_off_c, 0, 52, 62
1, 262919, Note_off_c, 0, 72, 66
1, 262920, Note_off_c, 0, 84, 66
1, 263020, Note_on_c, 0, 48, 77
1, 263028, Note_on_c, 0, 79, 91
1, 263031, Note_on_c, 0, 67, 84
1, 263057, Note_off_c, 0, 79, 52
1, 263063, Note_off_c, 0, 48, 64
1, 263065, Note_off_c, 0, 67, 63
1, 263133, Note_on_c, 0, 43, 79
1, 263147, Note_on_c, 0, 76, 95
1, 263158, Note_on_c, 0, 64, 73
1, 263167, Note_off_c, 0, 43, 65
1, 263175, Note_off_c, 0, 64, 68
1, 263200, Note_off_c, 0, 76, 67
1, 263284, Note_on_c, 0, 55, 91
1, 263308, Note_off_c, 0, 55, 66
1, 263317, Control_c, 0, 64, 58
1, 263332, Control_c, 0, 64, 79
1, 263347, Control_c, 0, 64, 83
1, 263348, Note_on_c, 0, 84, 81
1, 263361, Control_c, 0, 64, 73
1, 263376, Control_c, 0, 64, 0
1, 263394, Note_off_c, 0, 84, 66
1, 263410, Note_on_c, 0, 52, 71
1, 263417, Note_on_c, 0, 88, 71
1, 263441, Note_off_c, 0, 52, 68
1, 263484, Note_off_c, 0, 88, 58
1, 263487, Note_on_c, 0, 84, 62
1, 263517, Note_off_c, 0, 84, 64
1, 263530, Note_on_c, 0, 91, 60
1, 263564, Note_on_c, 0, 60, 29
1, 263582, Note_off_c, 0, 91, 61
1, 263588, Note_on_c, 0, 88, 70
1, 263599, Note_off_c, 0, 60, 32
1, 263630, Note_off_c, 0, 88, 46
1, 263655, Note_on_c, 0, 91, 53
1, 263669, Note_on_c, 0, 55, 45
1, 263695, Note_off_c, 0, 91, 60
1, 263698, Note_off_c, 0, 55, 55
1, 263713, Note_on_c, 0, 88, 73
1, 263771, Note_off_c, 0, 88, 60
1, 263784, Note_on_c, 0, 91, 68
1, 263788, Note_on_c, 0, 64, 72
1, 263818, Note_off_c, 0, 64, 64
1, 263838, Note_off_c, 0, 91, 60
1, 263840, Note_on_c, 0, 88, 74
1, 263905, Note_off_c, 0, 88, 61
1, 263910, Note_on_c, 0, 91, 72
1, 263922, Note_on_c, 0, 60, 71
1, 263947, Note_off_c, 0, 60, 68
1, 263967, Note_off_c, 0, 91, 61
1, 263973, Note_on_c, 0, 88, 74
1, 264036, Note_on_c, 0, 91, 71
1, 264037, Note_off_c, 0, 88, 63
1, 264053, Note_on_c, 0, 67, 81
1, 264088, Note_off_c, 0, 67, 57
1, 264098, Note_on_c, 0, 88, 79
1, 264098, Note_off_c, 0, 91, 59
1, 264160, Note_off_c, 0, 88, 62
1, 264164, Note_on_c, 0, 91, 66
1, 264181, Note_on_c, 0, 64, 74
1, 264219, Note_off_c, 0, 64, 65
1, 264230, Note_off_c, 0, 91, 60
1, 264232, Note_on_c, 0, 88, 78
1, 264294, Note_on_c, 0, 91, 71
1, 264294, Note_off_c, 0, 88, 62
1, 264308, Note_on_c, 0, 72, 70
1, 264339, Note_off_c, 0, 72, 60
1, 264363, Note_off_c, 0, 91, 60
1, 264370, Note_on_c, 0, 88, 81
1, 264422, Note_on_c, 0, 67, 69
1, 264426, Note_off_c, 0, 88, 62
1, 264433, Note_on_c, 0, 91, 63
1, 264453, Note_off_c, 0, 67, 62
1, 264503, Note_off_c, 0, 91, 60
1, 264510, Note_on_c, 0, 88, 78
1, 264560, Note_on_c, 0, 76, 65
1, 264561, Note_off_c, 0, 88, 61
1, 264572, Note_on_c, 0, 91, 64
1, 264591, Note_off_c, 0, 76, 64
1, 264630, Note_off_c, 0, 91, 60
1, 264642, Note_on_c, 0, 88, 75
1, 264689, Note_off_c, 0, 88, 61
1, 264690, Note_on_c, 0, 72, 67
1, 264700, Note_on_c, 0, 91, 66
1, 264715, Note_off_c, 0, 72, 65
1, 264757, Note_off_c, 0, 91, 60
1, 264768, Note_on_c, 0, 88, 76
1, 264821, Note_off_c, 0, 88, 62
1, 264825, Note_on_c, 0, 79, 67
1, 264828, Note_on_c, 0, 91, 67
1, 264851, Note_off_c, 0, 79, 59
1, 264882, Note_off_c, 0, 91, 59
1, 264893, Note_on_c, 0, 88, 74
1, 264947, Note_off_c, 0, 88, 61
1, 264951, Note_on_c, 0, 76, 58
1, 264959, Note_on_c, 0, 91, 67
1, 264970, Note_off_c, 0, 76, 59
1, 265010, Note_off_c, 0, 91, 59
1, 265019, Note_on_c, 0, 88, 75
1, 265072, Note_off_c, 0, 88, 62
1, 265075, Note_on_c, 0, 84, 62
1, 265086, Note_on_c, 0, 91, 56
1, 265106, Note_off_c, 0, 84, 66
1, 265126, Note_off_c, 0, 91, 55
1, 265141, Note_on_c, 0, 88, 74
1, 265181, Note_off_c, 0, 88, 63
1, 265201, Note_on_c, 0, 91, 45
1, 265202, Note_on_c, 0, 79, 56
1, 265235, Note_off_c, 0, 79, 57
1, 265241, Note_off_c, 0, 91, 47
1, 265266, Note_on_c, 0, 88, 71
1, 265291, Note_off_c, 0, 88, 64
1, 265332, Note_on_c, 0, 83, 59
1, 265352, Note_off_c, 0, 83, 62
1, 265395, Note_on_c, 0, 89, 72
1, 265421, Note_off_c, 0, 89, 65
1, 265459, Note_on_c, 0, 79, 59
1, 265465, Note_on_c, 0, 91, 67
1, 265481, Note_off_c, 0, 79, 59
1, 265496, Note_off_c, 0, 91, 57
1, 265515, Note_on_c, 0, 89, 79
1, 265557, Note_off_c, 0, 89, 56
1, 265567, Note_on_c, 0, 83, 61
1, 265576, Note_on_c, 0, 92, 78
1, 265598, Note_off_c, 0, 83, 61
1, 265642, Note_on_c, 0, 89, 76
1, 265644, Note_off_c, 0, 92, 64
1, 265684, Note_off_c, 0, 89, 62
1, 265700, Note_on_c, 0, 91, 72
1, 265701, Note_on_c, 0, 79, 57
1, 265728, Note_off_c, 0, 79, 54
1, 265757, Note_off_c, 0, 91, 57
1, 265761, Note_on_c, 0, 89, 76
1, 265820, Note_on_c, 0, 83, 70
1, 265822, Note_off_c, 0, 89, 62
1, 265828, Note_on_c, 0, 92, 85
1, 265846, Note_off_c, 0, 83, 62
1, 265889, Control_c, 0, 67, 12
1, 265892, Note_on_c, 0, 89, 76
1, 265895, Note_off_c, 0, 92, 63
1, 265903, Control_c, 0, 67, 24
1, 265918, Control_c, 0, 67, 51
1, 265933, Control_c, 0, 67, 76
1, 265947, Note_off_c, 0, 89, 63
1, 265947, Control_c, 0, 67, 96
1, 265948, Note_on_c, 0, 91, 72
1, 265961, Note_on_c, 0, 79, 59
1, 265962, Control_c, 0, 67, 110
1, 265985, Control_c, 0, 67, 123
1, 265996, Note_off_c, 0, 79, 57
1, 266000, Control_c, 0, 67, 127
1, 266013, Note_off_c, 0, 91, 56
1, 266026, Note_on_c, 0, 89, 71
1, 266074, Note_off_c, 0, 89, 57
1, 266095, Note_on_c, 0, 92, 74
1, 266095, Note_on_c, 0, 83, 62
1, 266116, Note_off_c, 0, 83, 60
1, 266151, Note_off_c, 0, 92, 63
1, 266161, Note_on_c, 0, 89, 67
1, 266201, Note_off_c, 0, 89, 60
1, 266231, Note_on_c, 0, 79, 59
1, 266232, Note_on_c, 0, 91, 54
1, 266254, Note_off_c, 0, 79, 58
1, 266265, Note_off_c, 0, 91, 48
1, 266300, Note_on_c, 0, 89, 64
1, 266341, Note_off_c, 0, 89, 58
1, 266352, Note_on_c, 0, 83, 57
1, 266363, Note_on_c, 0, 92, 67
1, 266375, Note_off_c, 0, 83, 59
1, 266405, Note_off_c, 0, 92, 52
1, 266428, Note_on_c, 0, 89, 64
1, 266469, Note_off_c, 0, 89, 60
1, 266493, Note_on_c, 0, 79, 52
1, 266497, Note_on_c, 0, 91, 52
1, 266521, Note_off_c, 0, 79, 51
1, 266531, Note_off_c, 0, 91, 45
1, 266566, Note_on_c, 0, 89, 55
1, 266597, Note_off_c, 0, 89, 51
1, 266618, Note_on_c, 0, 83, 60
1, 266628, Note_on_c, 0, 92, 68
1, 266647, Note_off_c, 0, 83, 63
1, 266669, Note_off_c, 0, 92, 56
1, 266691, Note_on_c, 0, 89, 55
1, 266733, Note_off_c, 0, 89, 57
1, 266760, Note_on_c, 0, 91, 53
1, 266766, Note_on_c, 0, 79, 48
1, 266790, Note_off_c, 0, 79, 56
1, 266797, Note_off_c, 0, 91, 44
1, 266825, Note_on_c, 0, 89, 68
1, 266867, Note_off_c, 0, 89, 56
1, 266895, Note_on_c, 0, 83, 52
1, 266903, Note_on_c, 0, 92, 58
1, 266915, Note_off_c, 0, 83, 59
1, 266924, Note_off_c, 0, 92, 60
1, 266963, Note_on_c, 0, 89, 66
1, 266988, Note_off_c, 0, 89, 57
1, 267030, Note_on_c, 0, 79, 50
1, 267037, Note_on_c, 0, 91, 50
1, 267052, Note_off_c, 0, 79, 56
1, 267057, Note_off_c, 0, 91, 54
1, 267087, Note_on_c, 0, 89, 67
1, 267131, Note_off_c, 0, 89, 60
1, 267159, Note_on_c, 0, 83, 45
1, 267165, Note_on_c, 0, 92, 65
1, 267180, Note_off_c, 0, 83, 55
1, 267197, Note_off_c, 0, 92, 60
1, 267232, Note_on_c, 0, 89, 66
1, 267255, Note_off_c, 0, 89, 60
1, 267272, Note_on_c, 0, 79, 59
1, 267294, Note_off_c, 0, 79, 58
1, 267306, Note_on_c, 0, 91, 51
1, 267338, Note_off_c, 0, 91, 53
1, 267343, Control_c, 0, 64, 22
1, 267353, Note_on_c, 0, 89, 63
1, 267357, Control_c, 0, 64, 52
1, 267372, Control_c, 0, 64, 59
1, 267387, Control_c, 0, 64, 63
1, 267401, Control_c, 0, 64, 65
1, 267410, Note_off_c, 0, 89, 57
1, 267416, Control_c, 0, 64, 67
1, 267431, Control_c, 0, 64, 70
1, 267437, Note_on_c, 0, 83, 48
1, 267446, Control_c, 0, 64, 74
1, 267461, Control_c, 0, 64, 78
1, 267482, Note_on_c, 0, 93, 41
1, 267483, Control_c, 0, 64, 81
1, 267489, Note_off_c, 0, 83, 58
1, 267498, Control_c, 0, 64, 83
1, 267511, Note_off_c, 0, 93, 51
1, 267513, Control_c, 0, 64, 83
1, 267520, Note_on_c, 0, 89, 58
1, 267527, Note_on_c, 0, 84, 55
1, 267528, Control_c, 0, 64, 84
1, 267543, Control_c, 0, 64, 85
1, 267557, Control_c, 0, 64, 86
1, 267561, Note_off_c, 0, 89, 62
1, 267572, Note_off_c, 0, 84, 55
1, 267572, Control_c, 0, 64, 87
1, 267587, Control_c, 0, 64, 87
1, 267590, Note_on_c, 0, 91, 58
1, 267601, Control_c, 0, 64, 88
1, 267614, Note_on_c, 0, 83, 42
1, 267616, Control_c, 0, 64, 89
1, 267626, Note_off_c, 0, 91, 57
1, 267631, Control_c, 0, 64, 89
1, 267639, Note_off_c, 0, 83, 55
1, 267646, Control_c, 0, 64, 90
1, 267654, Note_on_c, 0, 89, 70
1, 267673, Note_on_c, 0, 84, 54
1, 267675, Control_c, 0, 64, 90
1, 267708, Note_off_c, 0, 89, 58
1, 267709, Note_off_c, 0, 84, 58
1, 267720, Control_c, 0, 64, 91
1, 267724, Note_on_c, 0, 83, 57
1, 267726, Note_on_c, 0, 93, 65
1, 267761, Note_off_c, 0, 83, 59
1, 267764, Control_c, 0, 64, 91
1, 267771, Note_off_c, 0, 93, 53
1, 267792, Note_on_c, 0, 89, 64
1, 267794, Control_c, 0, 64, 92
1, 267806, Note_on_c, 0, 84, 53
1, 267836, Note_off_c, 0, 84, 58
1, 267839, Control_c, 0, 64, 92
1, 267839, Note_off_c, 0, 89, 60
1, 267864, Note_on_c, 0, 91, 61
1, 267865, Note_on_c, 0, 83, 54
1, 267883, Control_c, 0, 64, 93
1, 267898, Control_c, 0, 64, 93
1, 267901, Note_off_c, 0, 83, 61
1, 267901, Note_off_c, 0, 91, 55
1, 267913, Control_c, 0, 64, 94
1, 267923, Note_on_c, 0, 89, 69
1, 267928, Note_on_c, 0, 84, 59
1, 267969, Note_off_c, 0, 84, 61
1, 267979, Note_off_c, 0, 89, 61
1, 267988, Control_c, 0, 64, 94
1, 267991, Note_on_c, 0, 83, 59
1, 267991, Note_on_c, 0, 93, 72
1, 268027, Note_off_c, 0, 83, 60
1, 268041, Note_off_c, 0, 93, 60
1, 268047, Note_on_c, 0, 84, 59
1, 268049, Note_on_c, 0, 89, 63
1, 268099, Note_off_c, 0, 84, 62
1, 268100, Note_off_c, 0, 89, 64
1, 268113, Note_on_c, 0, 91, 70
1, 268118, Note_on_c, 0, 83, 56
1, 268153, Note_off_c, 0, 83, 59
1, 268168, Note_off_c, 0, 91, 57
1, 268175, Note_on_c, 0, 89, 76
1, 268177, Note_on_c, 0, 84, 57
1, 268235, Note_off_c, 0, 84, 62
1, 268236, Note_off_c, 0, 89, 60
1, 268256, Note_on_c, 0, 93, 73
1, 268257, Note_on_c, 0, 83, 63
1, 268293, Note_off_c, 0, 83, 59
1, 268308, Note_off_c, 0, 93, 61
1, 268310, Note_on_c, 0, 84, 55
1, 268310, Note_on_c, 0, 89, 74
1, 268363, Note_off_c, 0, 89, 64
1, 268368, Note_off_c, 0, 84, 64
1, 268375, Note_on_c, 0, 91, 77
1, 268378, Note_on_c, 0, 83, 65
1, 268430, Note_off_c, 0, 83, 56
1, 268444, Note_on_c, 0, 84, 59
1, 268447, Note_on_c, 0, 89, 75
1, 268447, Note_off_c, 0, 91, 60
1, 268498, Note_on_c, 0, 83, 59
1, 268501, Note_off_c, 0, 84, 64
1, 268507, Note_off_c, 0, 89, 64
1, 268508, Note_on_c, 0, 93, 79
1, 268535, Note_off_c, 0, 93, 58
1, 268559, Note_off_c, 0, 83, 61
1, 268573, Note_on_c, 0, 84, 60
1, 268634, Note_off_c, 0, 84, 64
1, 268636, Note_on_c, 0, 83, 59
1, 268644, Note_on_c, 0, 91, 71
1, 268646, Note_on_c, 0, 89, 63
1, 268676, Control_c, 0, 64, 95
1, 268676, Note_off_c, 0, 89, 56
1, 268677, Note_off_c, 0, 91, 55
1, 268699, Note_off_c, 0, 83, 60
1, 268704, Note_on_c, 0, 84, 61
1, 268766, Note_on_c, 0, 83, 59
1, 268767, Note_off_c, 0, 84, 64
1, 268772, Note_on_c, 0, 91, 84
1, 268783, Note_on_c, 0, 89, 61
1, 268795, Control_c, 0, 64, 95
1, 268810, Control_c, 0, 64, 96
1, 268817, Note_off_c, 0, 89, 63
1, 268820, Note_off_c, 0, 91, 59
1, 268825, Control_c, 0, 64, 97
1, 268829, Note_off_c, 0, 83, 60
1, 268839, Control_c, 0, 64, 98
1, 268839, Control_c, 0, 67, 110
1, 268846, Note_on_c, 0, 84, 68
1, 268854, Control_c, 0, 64, 99
1, 268854, Control_c, 0, 67, 62
1, 268869, Control_c, 0, 64, 100
1, 268869, Control_c, 0, 67, 20
1, 268884, Control_c, 0, 64, 102
1, 268884, Control_c, 0, 67, 0
1, 268899, Control_c, 0, 64, 105
1, 268903, Note_on_c, 0, 89, 79
1, 268904, Note_on_c, 0, 91, 75
1, 268912, Note_on_c, 0, 83, 66
1, 268913, Note_off_c, 0, 84, 64
1, 268914, Control_c, 0, 64, 108
1, 268927, Note_off_c, 0, 91, 64
1, 268928, Control_c, 0, 64, 110
1, 268929, Note_off_c, 0, 89, 64
1, 268943, Control_c, 0, 64, 113
1, 268958, Control_c, 0, 64, 115
1, 268977, Note_off_c, 0, 83, 59
1, 268980, Control_c, 0, 64, 116
1, 268986, Note_on_c, 0, 84, 70
1, 268995, Control_c, 0, 64, 118
1, 269010, Control_c, 0, 64, 119
1, 269025, Control_c, 0, 64, 120
1, 269033, Note_on_c, 0, 91, 93
1, 269040, Note_on_c, 0, 89, 84
1, 269040, Control_c, 0, 64, 121
1, 269054, Control_c, 0, 64, 123
1, 269055, Note_on_c, 0, 83, 76
1, 269058, Note_off_c, 0, 84, 65
1, 269069, Control_c, 0, 64, 125
1, 269083, Note_off_c, 0, 89, 65
1, 269084, Control_c, 0, 64, 127
1, 269089, Note_off_c, 0, 91, 61
1, 269099, Control_c, 0, 64, 127
1, 269110, Note_off_c, 0, 83, 59
1, 269127, Note_on_c, 0, 84, 75
1, 269175, Note_on_c, 0, 91, 98
1, 269182, Note_on_c, 0, 89, 91
1, 269194, Note_on_c, 0, 83, 73
1, 269195, Note_off_c, 0, 84, 64
1, 269222, Note_off_c, 0, 89, 68
1, 269224, Note_off_c, 0, 91, 63
1, 269243, Note_off_c, 0, 83, 58
1, 269261, Note_on_c, 0, 84, 74
1, 269312, Note_on_c, 0, 91, 95
1, 269313, Note_on_c, 0, 89, 90
1, 269316, Note_on_c, 0, 83, 79
1, 269317, Note_off_c, 0, 84, 63
1, 269362, Note_off_c, 0, 91, 61
1, 269362, Note_off_c, 0, 89, 64
1, 269367, Note_on_c, 0, 84, 71
1, 269368, Note_off_c, 0, 83, 54
1, 269395, Note_off_c, 0, 84, 66
1, 269461, Note_on_c, 0, 81, 90
1, 269472, Note_on_c, 0, 91, 66
1, 269487, Note_off_c, 0, 91, 42
1, 269499, Note_off_c, 0, 81, 57
1, 269534, Note_on_c, 0, 83, 93
1, 269571, Note_off_c, 0, 83, 64
1, 269615, Note_on_c, 0, 84, 103
1, 269624, Note_on_c, 0, 72, 92
1, 269629, Note_on_c, 0, 60, 81
1, 269648, Control_c, 0, 64, 94
1, 269663, Control_c, 0, 64, 70
1, 269677, Control_c, 0, 64, 0
1, 269892, Control_c, 0, 64, 46
1, 269907, Control_c, 0, 64, 57
1, 269921, Control_c, 0, 64, 60
1, 269966, Control_c, 0, 64, 61
1, 269981, Control_c, 0, 64, 63
1, 269995, Control_c, 0, 64, 63
1, 270010, Control_c, 0, 64, 64
1, 270010, Control_c, 0, 67, 8
1, 270025, Control_c, 0, 64, 64
1, 270025, Control_c, 0, 67, 10
1, 270040, Control_c, 0, 64, 65
1, 270040, Control_c, 0, 67, 12
1, 270055, Control_c, 0, 67, 15
1, 270069, Control_c, 0, 64, 65
1, 270069, Control_c, 0, 67, 21
1, 270084, Control_c, 0, 67, 27
1, 270100, Control_c, 0, 64, 66
1, 270100, Control_c, 0, 67, 35
1, 270115, Control_c, 0, 67, 43
1, 270129, Control_c, 0, 64, 66
1, 270129, Control_c, 0, 67, 51
1, 270144, Control_c, 0, 64, 67
1, 270144, Control_c, 0, 67, 59
1, 270159, Control_c, 0, 64, 68
1, 270159, Control_c, 0, 67, 67
1, 270174, Control_c, 0, 64, 69
1, 270174, Control_c, 0, 67, 76
1, 270189, Control_c, 0, 64, 70
1, 270189, Control_c, 0, 67, 84
1, 270203, Control_c, 0, 64, 72
1, 270203, Control_c, 0, 67, 92
1, 270218, Control_c, 0, 64, 74
1, 270218, Control_c, 0, 67, 100
1, 270233, Control_c, 0, 64, 76
1, 270233, Control_c, 0, 67, 106
1, 270248, Control_c, 0, 64, 78
1, 270248, Control_c, 0, 67, 110
1, 270263, Control_c, 0, 64, 79
1, 270263, Control_c, 0, 67, 113
1, 270277, Control_c, 0, 64, 80
1, 270277, Control_c, 0, 67, 114
1, 270293, Control_c, 0, 64, 81
1, 270308, Control_c, 0, 64, 82
1, 270308, Control_c, 0, 67, 114
1, 270323, Control_c, 0, 64, 83
1, 270338, Control_c, 0, 64, 84
1, 270353, Control_c, 0, 64, 85
1, 270367, Control_c, 0, 64, 86
1, 270382, Control_c, 0, 64, 87
1, 270397, Control_c, 0, 64, 88
1, 270412, Control_c, 0, 64, 89
1, 270426, Control_c, 0, 64, 90
1, 270441, Control_c, 0, 64, 91
1, 270456, Control_c, 0, 64, 92
1, 270479, Control_c, 0, 64, 92
1, 270494, Control_c, 0, 64, 93
1, 270508, Control_c, 0, 64, 93
1, 270523, Control_c, 0, 64, 94
1, 270538, Control_c, 0, 64, 94
1, 270553, Control_c, 0, 64, 95
1, 270582, Control_c, 0, 64, 95
1, 270597, Control_c, 0, 64, 96
1, 270599, Note_on_c, 0, 70, 49
1, 270612, Control_c, 0, 67, 114
1, 270621, Note_on_c, 0, 67, 31
1, 270628, Note_on_c, 0, 64, 41
1, 270641, Control_c, 0, 64, 96
1, 270656, Control_c, 0, 64, 97
1, 270686, Control_c, 0, 64, 97
1, 270700, Control_c, 0, 67, 113
1, 270703, Note_off_c, 0, 84, 54
1, 270715, Control_c, 0, 64, 98
1, 270730, Control_c, 0, 67, 113
1, 270757, Note_off_c, 0, 72, 60
1, 270760, Control_c, 0, 64, 98
1, 270819, Control_c, 0, 64, 99
1, 270879, Control_c, 0, 67, 112
1, 270948, Note_off_c, 0, 67, 52
1, 270967, Control_c, 0, 64, 99
1, 270970, Note_on_c, 0, 84, 57
1, 270982, Control_c, 0, 67, 113
1, 271050, Note_off_c, 0, 84, 59
1, 271056, Note_on_c, 0, 82, 54
1, 271056, Control_c, 0, 67, 113
1, 271071, Control_c, 0, 67, 114
1, 271102, Control_c, 0, 64, 99
1, 271111, Note_on_c, 0, 80, 61
1, 271150, Note_off_c, 0, 82, 57
1, 271175, Note_off_c, 0, 80, 62
1, 271186, Note_on_c, 0, 79, 61
1, 271242, Note_off_c, 0, 64, 41
1, 271246, Note_off_c, 0, 79, 46
1, 271257, Control_c, 0, 64, 98
1, 271270, Note_on_c, 0, 80, 64
1, 271272, Control_c, 0, 64, 96
1, 271279, Note_on_c, 0, 65, 45
1, 271280, Note_on_c, 0, 68, 47
1, 271287, Control_c, 0, 64, 91
1, 271302, Control_c, 0, 64, 81
1, 271317, Control_c, 0, 64, 66
1, 271317, Control_c, 0, 67, 114
1, 271321, Note_off_c, 0, 70, 33
1, 271331, Control_c, 0, 64, 0
1, 271346, Control_c, 0, 67, 115
1, 271350, Note_off_c, 0, 80, 59
1, 271351, Note_on_c, 0, 79, 66
1, 271398, Note_off_c, 0, 79, 63
1, 271405, Control_c, 0, 64, 59
1, 271419, Note_on_c, 0, 77, 67
1, 271420, Control_c, 0, 64, 66
1, 271435, Control_c, 0, 64, 68
1, 271449, Control_c, 0, 64, 70
1, 271464, Control_c, 0, 64, 73
1, 271471, Note_off_c, 0, 77, 59
1, 271479, Control_c, 0, 64, 75
1, 271479, Control_c, 0, 67, 115
1, 271487, Note_on_c, 0, 76, 65
1, 271494, Control_c, 0, 64, 76
1, 271509, Control_c, 0, 64, 76
1, 271509, Control_c, 0, 67, 116
1, 271530, Note_off_c, 0, 76, 63
1, 271563, Note_on_c, 0, 77, 73
1, 271598, Control_c, 0, 67, 117
1, 271613, Control_c, 0, 67, 119
1, 271622, Note_off_c, 0, 77, 59
1, 271628, Control_c, 0, 67, 121
1, 271631, Note_on_c, 0, 79, 69
1, 271642, Control_c, 0, 67, 122
1, 271657, Control_c, 0, 67, 123
1, 271672, Control_c, 0, 67, 126
1, 271687, Control_c, 0, 64, 77
1, 271687, Control_c, 0, 67, 127
1, 271687, Note_off_c, 0, 68, 56
1, 271700, Note_on_c, 0, 80, 63
1, 271702, Control_c, 0, 64, 77
1, 271716, Control_c, 0, 64, 78
1, 271731, Note_off_c, 0, 79, 35
1, 271757, Note_on_c, 0, 82, 69
1, 271779, Note_off_c, 0, 80, 65
1, 271795, Note_off_c, 0, 82, 64
1, 271841, Note_on_c, 0, 67, 43
1, 271845, Note_on_c, 0, 70, 51
1, 271847, Note_off_c, 0, 65, 36
1, 271849, Control_c, 0, 64, 76
1, 271851, Note_on_c, 0, 64, 40
1, 271854, Note_on_c, 0, 84, 60
1, 271864, Control_c, 0, 64, 71
1, 271879, Control_c, 0, 64, 60
1, 271890, Note_off_c, 0, 84, 48
1, 271895, Control_c, 0, 64, 0
1, 271917, Note_on_c, 0, 85, 72
1, 271977, Note_off_c, 0, 85, 64
1, 271996, Note_on_c, 0, 84, 72
1, 272062, Note_off_c, 0, 84, 62
1, 272066, Note_on_c, 0, 83, 63
1, 272108, Note_off_c, 0, 83, 51
1, 272125, Note_on_c, 0, 84, 64
1, 272169, Control_c, 0, 64, 25
1, 272184, Control_c, 0, 64, 57
1, 272191, Note_off_c, 0, 70, 61
1, 272198, Control_c, 0, 64, 64
1, 272212, Note_on_c, 0, 82, 71
1, 272213, Control_c, 0, 64, 65
1, 272228, Control_c, 0, 64, 67
1, 272233, Note_off_c, 0, 84, 60
1, 272243, Control_c, 0, 64, 68
1, 272258, Control_c, 0, 64, 70
1, 272272, Control_c, 0, 64, 73
1, 272273, Note_on_c, 0, 80, 70
1, 272287, Control_c, 0, 64, 76
1, 272296, Note_off_c, 0, 82, 63
1, 272302, Control_c, 0, 64, 77
1, 272317, Control_c, 0, 64, 78
1, 272336, Note_off_c, 0, 80, 63
1, 272342, Note_off_c, 0, 64, 54
1, 272346, Note_on_c, 0, 79, 60
1, 272390, Control_c, 0, 64, 77
1, 272395, Note_off_c, 0, 79, 40
1, 272405, Control_c, 0, 64, 75
1, 272409, Note_on_c, 0, 80, 64
1, 272411, Note_on_c, 0, 65, 44
1, 272420, Control_c, 0, 64, 67
1, 272423, Note_on_c, 0, 68, 34
1, 272432, Note_off_c, 0, 67, 38
1, 272435, Control_c, 0, 64, 0
1, 272466, Note_off_c, 0, 80, 63
1, 272473, Note_on_c, 0, 82, 67
1, 272538, Control_c, 0, 64, 54
1, 272541, Note_on_c, 0, 80, 66
1, 272553, Control_c, 0, 64, 65
1, 272568, Control_c, 0, 64, 68
1, 272569, Note_off_c, 0, 82, 55
1, 272583, Control_c, 0, 64, 70
1, 272593, Note_off_c, 0, 68, 57
1, 272597, Control_c, 0, 64, 72
1, 272612, Control_c, 0, 64, 74
1, 272619, Note_on_c, 0, 79, 66
1, 272627, Note_off_c, 0, 65, 38
1, 272627, Control_c, 0, 64, 76
1, 272629, Note_off_c, 0, 80, 58
1, 272642, Control_c, 0, 64, 77
1, 272656, Control_c, 0, 64, 78
1, 272659, Note_off_c, 0, 79, 58
1, 272671, Control_c, 0, 64, 78
1, 272683, Note_on_c, 0, 77, 65
1, 272702, Control_c, 0, 64, 79
1, 272703, Note_off_c, 0, 60, 60
1, 272750, Note_off_c, 0, 77, 42
1, 272763, Note_on_c, 0, 76, 71
1, 272830, Note_on_c, 0, 77, 64
1, 272831, Note_off_c, 0, 76, 59
1, 272902, Note_on_c, 0, 79, 70
1, 272905, Note_off_c, 0, 77, 59
1, 272962, Control_c, 0, 64, 78
1, 272981, Note_off_c, 0, 79, 62
1, 272991, Control_c, 0, 64, 77
1, 272999, Note_on_c, 0, 56, 45
1, 273006, Control_c, 0, 64, 73
1, 273010, Note_on_c, 0, 53, 41
1, 273020, Control_c, 0, 64, 67
1, 273025, Note_on_c, 0, 61, 42
1, 273035, Control_c, 0, 64, 47
1, 273050, Control_c, 0, 64, 0
1, 273061, Note_on_c, 0, 80, 76
1, 273064, Note_on_c, 0, 65, 30
1, 273071, Note_on_c, 0, 68, 57
1, 273228, Control_c, 0, 64, 60
1, 273243, Control_c, 0, 64, 67
1, 273258, Control_c, 0, 64, 71
1, 273273, Control_c, 0, 64, 74
1, 273287, Control_c, 0, 64, 77
1, 273302, Control_c, 0, 64, 79
1, 273312, Note_off_c, 0, 65, 42
1, 273317, Control_c, 0, 64, 80
1, 273332, Control_c, 0, 64, 81
1, 273336, Note_off_c, 0, 53, 63
1, 273346, Control_c, 0, 64, 82
1, 273361, Control_c, 0, 64, 83
1, 273376, Control_c, 0, 64, 84
1, 273391, Control_c, 0, 64, 85
1, 273398, Note_on_c, 0, 77, 62
1, 273406, Control_c, 0, 64, 85
1, 273416, Note_off_c, 0, 56, 63
1, 273420, Control_c, 0, 64, 86
1, 273435, Control_c, 0, 64, 86
1, 273441, Note_off_c, 0, 61, 47
1, 273446, Note_off_c, 0, 80, 59
1, 273450, Control_c, 0, 64, 87
1, 273488, Control_c, 0, 64, 87
1, 273517, Control_c, 0, 64, 88
1, 273538, Note_on_c, 0, 73, 71
1, 273577, Control_c, 0, 64, 88
1, 273617, Note_off_c, 0, 68, 37
1, 273636, Note_off_c, 0, 77, 29
1, 273681, Control_c, 0, 64, 88
1, 273711, Control_c, 0, 64, 85
1, 273711, Note_on_c, 0, 79, 70
1, 273714, Note_off_c, 0, 73, 58
1, 273725, Note_on_c, 0, 67, 58
1, 273725, Control_c, 0, 64, 81
1, 273730, Note_on_c, 0, 63, 39
1, 273731, Note_on_c, 0, 55, 40
1, 273732, Note_on_c, 0, 60, 39
1, 273740, Control_c, 0, 64, 74
1, 273755, Control_c, 0, 64, 66
1, 273769, Control_c, 0, 64, 0
1, 273904, Control_c, 0, 64, 54
1, 273918, Control_c, 0, 64, 66
1, 273933, Control_c, 0, 64, 70
1, 273948, Control_c, 0, 64, 74
1, 273962, Control_c, 0, 64, 77
1, 273977, Control_c, 0, 64, 79
1, 273992, Control_c, 0, 64, 80
1, 274003, Note_off_c, 0, 79, 49
1, 274007, Control_c, 0, 64, 81
1, 274022, Control_c, 0, 64, 81
1, 274035, Note_on_c, 0, 75, 60
1, 274036, Control_c, 0, 64, 82
1, 274051, Control_c, 0, 64, 83
1, 274066, Control_c, 0, 64, 83
1, 274087, Note_off_c, 0, 55, 41
1, 274111, Note_off_c, 0, 63, 39
1, 274140, Control_c, 0, 64, 84
1, 274148, Note_off_c, 0, 67, 40
1, 274170, Note_on_c, 0, 72, 69
1, 274179, Note_off_c, 0, 75, 52
1, 274281, Control_c, 0, 64, 83
1, 274327, Control_c, 0, 64, 81
1, 274339, Note_off_c, 0, 60, 25
1, 274341, Control_c, 0, 64, 76
1, 274343, Note_off_c, 0, 72, 59
1, 274351, Note_on_c, 0, 77, 68
1, 274356, Control_c, 0, 64, 66
1, 274361, Note_on_c, 0, 62, 35
1, 274365, Note_on_c, 0, 55, 32
1, 274370, Note_on_c, 0, 65, 46
1, 274371, Control_c, 0, 64, 0
1, 274387, Note_on_c, 0, 59, 25
1, 274519, Control_c, 0, 64, 53
1, 274534, Control_c, 0, 64, 64
1, 274549, Control_c, 0, 64, 67
1, 274564, Control_c, 0, 64, 70
1, 274579, Control_c, 0, 64, 72
1, 274593, Control_c, 0, 64, 75
1, 274608, Control_c, 0, 64, 77
1, 274612, Note_off_c, 0, 62, 40
1, 274623, Control_c, 0, 64, 78
1, 274627, Note_off_c, 0, 59, 38
1, 274638, Control_c, 0, 64, 79
1, 274653, Control_c, 0, 64, 80
1, 274667, Control_c, 0, 64, 81
1, 274674, Note_on_c, 0, 74, 60
1, 274682, Control_c, 0, 64, 82
1, 274692, Note_off_c, 0, 77, 37
1, 274697, Control_c, 0, 64, 82
1, 274697, Control_c, 0, 67, 124
1, 274711, Control_c, 0, 64, 83
1, 274711, Control_c, 0, 67, 101
1, 274713, Note_off_c, 0, 55, 50
1, 274726, Control_c, 0, 64, 84
1, 274726, Control_c, 0, 67, 78
1, 274741, Control_c, 0, 64, 84
1, 274741, Control_c, 0, 67, 53
1, 274756, Control_c, 0, 67, 30
1, 274771, Control_c, 0, 64, 85
1, 274771, Control_c, 0, 67, 12
1, 274785, Control_c, 0, 67, 0
1, 274800, Control_c, 0, 64, 85
1, 274830, Control_c, 0, 64, 86
1, 274831, Note_on_c, 0, 71, 71
1, 274859, Note_off_c, 0, 65, 38
1, 274883, Note_off_c, 0, 74, 38
1, 274904, Control_c, 0, 64, 86
1, 274986, Control_c, 0, 64, 87
1, 275059, Note_on_c, 0, 72, 88
1, 275073, Note_on_c, 0, 60, 47
1, 275073, Note_off_c, 0, 71, 50
1, 275074, Control_c, 0, 64, 86
1, 275079, Note_on_c, 0, 48, 44
1, 275090, Control_c, 0, 64, 83
1, 275105, Control_c, 0, 64, 76
1, 275120, Control_c, 0, 64, 65
1, 275135, Control_c, 0, 64, 0
1, 275342, Control_c, 0, 67, 10
1, 275357, Control_c, 0, 67, 15
1, 275372, Control_c, 0, 67, 23
1, 275386, Control_c, 0, 67, 38
1, 275401, Control_c, 0, 67, 57
1, 275416, Control_c, 0, 67, 77
1, 275431, Control_c, 0, 64, 56
1, 275431, Control_c, 0, 67, 98
1, 275446, Control_c, 0, 64, 61
1, 275446, Control_c, 0, 67, 113
1, 275461, Control_c, 0, 64, 63
1, 275461, Control_c, 0, 67, 126
1, 275476, Control_c, 0, 64, 64
1, 275476, Control_c, 0, 67, 127
1, 275490, Control_c, 0, 64, 65
1, 275505, Control_c, 0, 64, 67
1, 275520, Control_c, 0, 64, 69
1, 275534, Control_c, 0, 64, 71
1, 275549, Control_c, 0, 64, 74
1, 275564, Control_c, 0, 64, 76
1, 275579, Control_c, 0, 64, 77
1, 275594, Control_c, 0, 64, 78
1, 275608, Control_c, 0, 64, 79
1, 275623, Control_c, 0, 64, 80
1, 275638, Control_c, 0, 64, 80
1, 275653, Control_c, 0, 64, 81
1, 275668, Control_c, 0, 64, 81
1, 275697, Control_c, 0, 64, 82
1, 275831, Note_on_c, 0, 58, 36
1, 275840, Note_on_c, 0, 52, 32
1, 275854, Note_on_c, 0, 55, 26
1, 275887, Note_off_c, 0, 72, 61
1, 276032, Note_off_c, 0, 60, 37
1, 276053, Note_off_c, 0, 55, 40
1, 276160, Note_on_c, 0, 72, 48
1, 276179, Control_c, 0, 64, 81
1, 276194, Control_c, 0, 64, 76
1, 276209, Control_c, 0, 64, 68
1, 276218, Note_on_c, 0, 70, 53
1, 276224, Control_c, 0, 64, 27
1, 276239, Control_c, 0, 64, 0
1, 276251, Note_off_c, 0, 72, 34
1, 276289, Note_on_c, 0, 69, 59
1, 276305, Note_off_c, 0, 70, 52
1, 276337, Note_off_c, 0, 69, 62
1, 276356, Note_on_c, 0, 67, 54
1, 276366, Note_off_c, 0, 52, 41
1, 276376, Note_off_c, 0, 58, 60
1, 276400, Note_off_c, 0, 67, 56
1, 276428, Note_on_c, 0, 57, 39
1, 276433, Note_on_c, 0, 53, 26
1, 276438, Note_on_c, 0, 69, 60
1, 276498, Note_off_c, 0, 69, 61
1, 276513, Note_on_c, 0, 67, 59
1, 276552, Note_off_c, 0, 67, 63
1, 276577, Note_on_c, 0, 65, 59
1, 276615, Note_off_c, 0, 65, 55
1, 276640, Note_on_c, 0, 64, 64
1, 276677, Note_off_c, 0, 64, 63
1, 276709, Note_on_c, 0, 65, 66
1, 276726, Note_off_c, 0, 57, 59
1, 276758, Note_off_c, 0, 65, 62
1, 276776, Note_on_c, 0, 67, 61
1, 276844, Note_on_c, 0, 69, 57
1, 276847, Note_off_c, 0, 67, 57
1, 276903, Note_off_c, 0, 69, 64
1, 276907, Note_on_c, 0, 70, 46
1, 276931, Note_off_c, 0, 70, 54
1, 276933, Note_off_c, 0, 53, 43
1, 276978, Note_on_c, 0, 55, 32
1, 276981, Note_on_c, 0, 72, 63
1, 276988, Note_on_c, 0, 58, 36
1, 276996, Note_on_c, 0, 52, 36
1, 277019, Note_off_c, 0, 72, 59
1, 277053, Note_on_c, 0, 74, 63
1, 277086, Note_off_c, 0, 74, 63
1, 277121, Note_on_c, 0, 72, 64
1, 277178, Note_off_c, 0, 72, 55
1, 277196, Note_on_c, 0, 71, 53
1, 277232, Note_off_c, 0, 71, 51
1, 277275, Note_on_c, 0, 72, 61
1, 277342, Note_on_c, 0, 70, 67
1, 277350, Note_off_c, 0, 72, 59
1, 277369, Note_off_c, 0, 58, 60
1, 277408, Note_on_c, 0, 69, 66
1, 277418, Note_off_c, 0, 70, 57
1, 277455, Note_off_c, 0, 69, 65
1, 277477, Note_on_c, 0, 67, 59
1, 277486, Note_off_c, 0, 52, 47
1, 277524, Note_off_c, 0, 67, 55
1, 277540, Note_on_c, 0, 69, 61
1, 277551, Note_on_c, 0, 53, 36
1, 277559, Note_off_c, 0, 55, 43
1, 277580, Note_on_c, 0, 57, 31
1, 277592, Note_off_c, 0, 69, 62
1, 277611, Note_on_c, 0, 70, 64
1, 277685, Note_on_c, 0, 69, 64
1, 277697, Note_off_c, 0, 70, 57
1, 277700, Note_off_c, 0, 57, 46
1, 277753, Note_on_c, 0, 67, 66
1, 277756, Note_off_c, 0, 69, 59
1, 277768, Note_off_c, 0, 53, 51
1, 277801, Note_off_c, 0, 67, 62
1, 277818, Note_on_c, 0, 65, 63
1, 277843, Note_off_c, 0, 48, 51
1, 277868, Note_off_c, 0, 65, 62
1, 277881, Note_on_c, 0, 64, 64
1, 277965, Note_on_c, 0, 65, 57
1, 277973, Note_off_c, 0, 64, 61
1, 278025, Note_on_c, 0, 67, 63
1, 278036, Note_off_c, 0, 65, 56
1, 278114, Note_off_c, 0, 67, 59
1, 278126, Note_on_c, 0, 69, 60
1, 278144, Note_on_c, 0, 57, 46
1, 278149, Note_on_c, 0, 41, 40
1, 278158, Note_on_c, 0, 45, 43
1, 278168, Note_on_c, 0, 50, 34
1, 278248, Control_c, 0, 64, 43
1, 278263, Control_c, 0, 64, 57
1, 278278, Control_c, 0, 64, 62
1, 278293, Control_c, 0, 64, 64
1, 278308, Control_c, 0, 64, 65
1, 278323, Control_c, 0, 64, 67
1, 278338, Control_c, 0, 64, 69
1, 278352, Control_c, 0, 64, 73
1, 278367, Control_c, 0, 64, 77
1, 278382, Control_c, 0, 64, 80
1, 278397, Control_c, 0, 64, 81
1, 278412, Control_c, 0, 64, 82
1, 278427, Control_c, 0, 64, 82
1, 278441, Control_c, 0, 64, 83
1, 278456, Control_c, 0, 64, 83
1, 278459, Note_off_c, 0, 41, 44
1, 278471, Control_c, 0, 64, 84
1, 278477, Note_on_c, 0, 65, 57
1, 278478, Note_off_c, 0, 69, 57
1, 278487, Note_off_c, 0, 50, 37
1, 278515, Control_c, 0, 64, 84
1, 278559, Control_c, 0, 64, 85
1, 278584, Note_off_c, 0, 65, 60
1, 278613, Note_off_c, 0, 57, 36
1, 278620, Note_on_c, 0, 62, 67
1, 278759, Control_c, 0, 64, 84
1, 278774, Control_c, 0, 64, 84
1, 278779, Note_off_c, 0, 62, 58
1, 278789, Control_c, 0, 64, 83
1, 278804, Control_c, 0, 64, 79
1, 278811, Note_off_c, 0, 45, 42
1, 278817, Note_on_c, 0, 67, 57
1, 278819, Control_c, 0, 64, 73
1, 278829, Note_on_c, 0, 55, 47
1, 278831, Note_on_c, 0, 48, 36
1, 278833, Control_c, 0, 64, 61
1, 278836, Note_on_c, 0, 52, 35
1, 278837, Note_on_c, 0, 43, 25
1, 278848, Control_c, 0, 64, 0
1, 278967, Control_c, 0, 64, 53
1, 278981, Control_c, 0, 64, 64
1, 278996, Control_c, 0, 64, 67
1, 279011, Control_c, 0, 64, 68
1, 279026, Control_c, 0, 64, 69
1, 279041, Control_c, 0, 64, 71
1, 279056, Control_c, 0, 64, 73
1, 279071, Control_c, 0, 64, 75
1, 279086, Control_c, 0, 64, 76
1, 279091, Note_off_c, 0, 67, 56
1, 279101, Control_c, 0, 64, 77
1, 279126, Note_on_c, 0, 64, 53
1, 279130, Control_c, 0, 64, 77
1, 279183, Note_off_c, 0, 52, 42
1, 279204, Control_c, 0, 64, 78
1, 279241, Note_off_c, 0, 64, 59
1, 279266, Note_on_c, 0, 60, 64
1, 279381, Control_c, 0, 64, 77
1, 279405, Note_off_c, 0, 48, 43
1, 279411, Control_c, 0, 64, 76
1, 279426, Control_c, 0, 64, 72
1, 279432, Note_on_c, 0, 65, 62
1, 279435, Note_off_c, 0, 60, 53
1, 279441, Control_c, 0, 64, 63
1, 279460, Note_on_c, 0, 53, 33
1, 279463, Note_on_c, 0, 50, 31
1, 279463, Control_c, 0, 64, 0
1, 279574, Note_off_c, 0, 55, 13
1, 279581, Control_c, 0, 64, 59
1, 279596, Control_c, 0, 64, 65
1, 279611, Control_c, 0, 64, 67
1, 279626, Control_c, 0, 64, 68
1, 279641, Control_c, 0, 64, 69
1, 279655, Control_c, 0, 64, 71
1, 279670, Control_c, 0, 64, 72
1, 279685, Control_c, 0, 64, 74
1, 279700, Control_c, 0, 64, 75
1, 279715, Control_c, 0, 64, 75
1, 279719, Note_off_c, 0, 53, 42
1, 279724, Note_off_c, 0, 65, 58
1, 279748, Note_on_c, 0, 62, 64
1, 279824, Note_off_c, 0, 43, 36
1, 279880, Note_off_c, 0, 62, 57
1, 279894, Note_on_c, 0, 59, 66
1, 279953, Control_c, 0, 64, 75
1, 279968, Control_c, 0, 64, 74
1, 279983, Control_c, 0, 64, 74
1, 279998, Control_c, 0, 64, 72
1, 280013, Control_c, 0, 64, 70
1, 280024, Note_off_c, 0, 59, 58
1, 280028, Control_c, 0, 64, 62
1, 280043, Control_c, 0, 64, 0
1, 280051, Note_off_c, 0, 50, 53
1, 280078, Note_on_c, 0, 48, 45
1, 280085, Note_on_c, 0, 60, 65
1, 280087, Note_on_c, 0, 52, 26
1, 280161, Control_c, 0, 64, 60
1, 280176, Control_c, 0, 64, 68
1, 280191, Control_c, 0, 64, 72
1, 280213, Control_c, 0, 64, 75
1, 280224, Note_off_c, 0, 52, 48
1, 280227, Control_c, 0, 64, 76
1, 280242, Control_c, 0, 64, 76
1, 280257, Control_c, 0, 64, 77
1, 280260, Note_off_c, 0, 48, 55
1, 280272, Control_c, 0, 64, 78
1, 280287, Control_c, 0, 64, 79
1, 280302, Control_c, 0, 64, 79
1, 280317, Control_c, 0, 64, 80
1, 280346, Control_c, 0, 64, 81
1, 280376, Control_c, 0, 64, 81
1, 280465, Control_c, 0, 64, 81
1, 280472, Note_off_c, 0, 60, 31
1, 280477, Note_on_c, 0, 72, 75
1, 280479, Control_c, 0, 64, 77
1, 280481, Note_on_c, 0, 40, 52
1, 280489, Note_on_c, 0, 48, 44
1, 280494, Control_c, 0, 64, 67
1, 280509, Control_c, 0, 64, 0
1, 280583, Control_c, 0, 64, 34
1, 280598, Control_c, 0, 64, 64
1, 280612, Control_c, 0, 64, 67
1, 280627, Control_c, 0, 64, 68
1, 280642, Control_c, 0, 64, 69
1, 280644, Note_on_c, 0, 71, 76
1, 280657, Control_c, 0, 64, 70
1, 280672, Control_c, 0, 64, 71
1, 280687, Note_off_c, 0, 72, 60
1, 280688, Control_c, 0, 64, 74
1, 280702, Control_c, 0, 64, 75
1, 280717, Control_c, 0, 64, 76
1, 280747, Control_c, 0, 64, 77
1, 280782, Note_off_c, 0, 40, 63
1, 280791, Control_c, 0, 64, 76
1, 280792, Note_off_c, 0, 71, 59
1, 280794, Note_on_c, 0, 41, 60
1, 280797, Note_on_c, 0, 69, 76
1, 280806, Control_c, 0, 64, 74
1, 280821, Control_c, 0, 64, 68
1, 280836, Control_c, 0, 64, 47
1, 280850, Control_c, 0, 64, 0
1, 280945, Note_on_c, 0, 50, 80
1, 280958, Note_off_c, 0, 48, 58
1, 281098, Note_on_c, 0, 52, 73
1, 281099, Note_on_c, 0, 65, 77
1, 281107, Note_off_c, 0, 50, 61
1, 281110, Note_off_c, 0, 41, 59
1, 281119, Note_off_c, 0, 69, 59
1, 281140, Control_c, 0, 64, 51
1, 281154, Control_c, 0, 64, 65
1, 281169, Control_c, 0, 64, 68
1, 281184, Control_c, 0, 64, 69
1, 281231, Note_off_c, 0, 52, 55
1, 281238, Note_on_c, 0, 62, 80
1, 281244, Note_on_c, 0, 53, 62
1, 281263, Note_off_c, 0, 65, 51
1, 281273, Control_c, 0, 64, 67
1, 281287, Control_c, 0, 64, 62
1, 281302, Control_c, 0, 64, 33
1, 281317, Control_c, 0, 64, 0
1, 281368, Note_off_c, 0, 53, 56
1, 281447, Note_off_c, 0, 62, 57
1, 281450, Note_on_c, 0, 67, 62
1, 281457, Note_on_c, 0, 43, 43
1, 281462, Note_on_c, 0, 52, 33
1, 281463, Note_on_c, 0, 55, 47
1, 281614, Control_c, 0, 64, 44
1, 281629, Control_c, 0, 64, 59
1, 281644, Control_c, 0, 64, 62
1, 281658, Control_c, 0, 64, 63
1, 281673, Control_c, 0, 64, 64
1, 281688, Control_c, 0, 64, 64
1, 281710, Control_c, 0, 64, 65
1, 281725, Control_c, 0, 64, 66
1, 281740, Control_c, 0, 64, 67
1, 281755, Control_c, 0, 64, 68
1, 281770, Control_c, 0, 64, 68
1, 281784, Control_c, 0, 64, 70
1, 281799, Control_c, 0, 64, 71
1, 281804, Note_on_c, 0, 64, 58
1, 281814, Control_c, 0, 64, 73
1, 281816, Note_off_c, 0, 67, 53
1, 281829, Control_c, 0, 64, 74
1, 281844, Control_c, 0, 64, 75
1, 281858, Control_c, 0, 64, 76
1, 281888, Control_c, 0, 64, 77
1, 281918, Control_c, 0, 64, 77
1, 281933, Control_c, 0, 64, 78
1, 281946, Note_off_c, 0, 64, 55
1, 281950, Note_on_c, 0, 60, 60
1, 282057, Note_off_c, 0, 55, 36
1, 282081, Control_c, 0, 64, 76
1, 282093, Note_off_c, 0, 52, 39
1, 282096, Control_c, 0, 64, 72
1, 282106, Note_off_c, 0, 60, 27
1, 282110, Control_c, 0, 64, 61
1, 282119, Note_on_c, 0, 53, 29
1, 282125, Note_on_c, 0, 50, 18
1, 282125, Control_c, 0, 64, 0
1, 282126, Note_on_c, 0, 65, 49
1, 282229, Control_c, 0, 64, 43
1, 282244, Control_c, 0, 64, 63
1, 282258, Control_c, 0, 64, 65
1, 282274, Control_c, 0, 64, 66
1, 282289, Control_c, 0, 64, 67
1, 282304, Control_c, 0, 64, 68
1, 282319, Control_c, 0, 64, 71
1, 282333, Control_c, 0, 64, 73
1, 282348, Control_c, 0, 64, 75
1, 282363, Control_c, 0, 64, 76
1, 282378, Control_c, 0, 64, 76
1, 282407, Control_c, 0, 64, 77
1, 282437, Control_c, 0, 64, 77
1, 282457, Note_off_c, 0, 65, 37
1, 282464, Note_on_c, 0, 62, 52
1, 282480, Note_off_c, 0, 43, 39
1, 282504, Control_c, 0, 64, 78
1, 282578, Note_off_c, 0, 62, 56
1, 282606, Note_on_c, 0, 59, 58
1, 282653, Note_off_c, 0, 53, 37
1, 282694, Note_off_c, 0, 59, 57
1, 282696, Control_c, 0, 64, 77
1, 282725, Control_c, 0, 64, 76
1, 282740, Control_c, 0, 64, 71
1, 282755, Control_c, 0, 64, 60
1, 282770, Control_c, 0, 64, 0
1, 282780, Note_on_c, 0, 60, 56
1, 282782, Note_on_c, 0, 48, 42
1, 282785, Note_off_c, 0, 50, 37
1, 282794, Note_on_c, 0, 52, 33
1, 282859, Control_c, 0, 64, 62
1, 282873, Control_c, 0, 64, 68
1, 282888, Control_c, 0, 64, 73
1, 282895, Note_off_c, 0, 60, 59
1, 282903, Control_c, 0, 64, 75
1, 282917, Control_c, 0, 64, 76
1, 282932, Control_c, 0, 64, 77
1, 282947, Control_c, 0, 64, 77
1, 282962, Control_c, 0, 64, 78
1, 282977, Control_c, 0, 64, 79
1, 283006, Control_c, 0, 64, 79
1, 283121, Note_off_c, 0, 52, 41
1, 283126, Control_c, 0, 64, 76
1, 283130, Note_on_c, 0, 77, 69
1, 283136, Note_on_c, 0, 45, 36
1, 283139, Note_on_c, 0, 53, 44
1, 283141, Control_c, 0, 64, 69
1, 283143, Note_off_c, 0, 48, 31
1, 283155, Control_c, 0, 64, 29
1, 283170, Control_c, 0, 64, 0
1, 283237, Control_c, 0, 64, 63
1, 283241, Note_off_c, 0, 45, 58
1, 283252, Control_c, 0, 64, 68
1, 283267, Control_c, 0, 64, 70
1, 283282, Control_c, 0, 64, 71
1, 283293, Note_on_c, 0, 76, 69
1, 283297, Control_c, 0, 64, 72
1, 283299, Note_off_c, 0, 77, 57
1, 283311, Control_c, 0, 64, 74
1, 283326, Control_c, 0, 64, 75
1, 283341, Control_c, 0, 64, 76
1, 283355, Control_c, 0, 64, 77
1, 283417, Note_off_c, 0, 76, 64
1, 283429, Control_c, 0, 64, 75
1, 283435, Note_on_c, 0, 74, 66
1, 283444, Control_c, 0, 64, 71
1, 283456, Note_on_c, 0, 46, 56
1, 283459, Control_c, 0, 64, 52
1, 283474, Control_c, 0, 64, 0
1, 283540, Note_off_c, 0, 46, 63
1, 283548, Control_c, 0, 64, 53
1, 283548, Note_off_c, 0, 53, 57
1, 283563, Control_c, 0, 64, 64
1, 283578, Control_c, 0, 64, 65
1, 283579, Note_on_c, 0, 55, 67
1, 283608, Control_c, 0, 64, 66
1, 283623, Control_c, 0, 64, 67
1, 283638, Control_c, 0, 64, 68
1, 283652, Control_c, 0, 64, 69
1, 283667, Control_c, 0, 64, 70
1, 283696, Note_off_c, 0, 55, 63
1, 283724, Note_on_c, 0, 57, 61
1, 283724, Note_on_c, 0, 70, 78
1, 283748, Note_off_c, 0, 74, 57
1, 283830, Control_c, 0, 64, 70
1, 283831, Note_off_c, 0, 57, 61
1, 283845, Control_c, 0, 64, 69
1, 283856, Note_on_c, 0, 58, 58
1, 283860, Control_c, 0, 64, 67
1, 283865, Note_on_c, 0, 67, 69
1, 283876, Control_c, 0, 64, 64
1, 283891, Control_c, 0, 64, 54
1, 283899, Note_off_c, 0, 70, 54
1, 283906, Control_c, 0, 64, 0
1, 283940, Note_off_c, 0, 58, 59
1, 284064, Note_off_c, 0, 67, 57
1, 284070, Note_on_c, 0, 72, 59
1, 284072, Note_on_c, 0, 60, 39
1, 284083, Note_on_c, 0, 48, 50
1, 284085, Note_on_c, 0, 57, 25
1, 284209, Control_c, 0, 64, 34
1, 284224, Control_c, 0, 64, 61
1, 284239, Control_c, 0, 64, 65
1, 284253, Control_c, 0, 64, 66
1, 284268, Control_c, 0, 64, 66
1, 284283, Control_c, 0, 64, 67
1, 284297, Control_c, 0, 64, 69
1, 284312, Control_c, 0, 64, 72
1, 284327, Control_c, 0, 64, 74
1, 284333, Note_off_c, 0, 60, 54
1, 284342, Control_c, 0, 64, 75
1, 284357, Control_c, 0, 64, 76
1, 284386, Control_c, 0, 64, 77
1, 284387, Note_on_c, 0, 69, 48
1, 284416, Control_c, 0, 64, 77
1, 284459, Note_off_c, 0, 69, 59
1, 284505, Control_c, 0, 64, 78
1, 284513, Note_on_c, 0, 65, 55
1, 284624, Control_c, 0, 64, 77
1, 284653, Control_c, 0, 64, 77
1, 284658, Note_off_c, 0, 57, 55
1, 284669, Control_c, 0, 64, 74
1, 284672, Note_off_c, 0, 65, 45
1, 284674, Note_off_c, 0, 72, 53
1, 284677, Note_on_c, 0, 70, 58
1, 284684, Control_c, 0, 64, 68
1, 284688, Note_on_c, 0, 58, 27
1, 284690, Note_on_c, 0, 55, 48
1, 284706, Control_c, 0, 64, 0
1, 284809, Control_c, 0, 64, 63
1, 284824, Control_c, 0, 64, 67
1, 284839, Control_c, 0, 64, 69
1, 284854, Control_c, 0, 64, 70
1, 284869, Control_c, 0, 64, 71
1, 284884, Control_c, 0, 64, 72
1, 284899, Control_c, 0, 64, 74
1, 284913, Control_c, 0, 64, 76
1, 284928, Control_c, 0, 64, 77
1, 284994, Note_off_c, 0, 48, 43
1, 285002, Control_c, 0, 64, 77
1, 285003, Note_off_c, 0, 70, 31
1, 285021, Note_on_c, 0, 67, 51
1, 285064, Note_off_c, 0, 58, 33
1, 285119, Note_off_c, 0, 67, 51
1, 285167, Note_on_c, 0, 64, 57
1, 285298, Control_c, 0, 64, 77
1, 285313, Note_off_c, 0, 64, 58
1, 285328, Control_c, 0, 64, 76
1, 285340, Note_off_c, 0, 55, 43
1, 285343, Control_c, 0, 64, 75
1, 285358, Control_c, 0, 64, 71
1, 285370, Note_on_c, 0, 65, 53
1, 285372, Note_on_c, 0, 56, 42
1, 285372, Control_c, 0, 64, 58
1, 285387, Control_c, 0, 64, 0
1, 285399, Note_on_c, 0, 53, 32
1, 285485, Control_c, 0, 64, 53
1, 285499, Control_c, 0, 64, 65
1, 285514, Control_c, 0, 64, 69
1, 285529, Control_c, 0, 64, 71
1, 285544, Control_c, 0, 64, 73
1, 285551, Note_off_c, 0, 56, 58
1, 285558, Control_c, 0, 64, 73
1, 285573, Control_c, 0, 64, 75
1, 285588, Control_c, 0, 64, 76
1, 285596, Note_off_c, 0, 53, 56
1, 285603, Control_c, 0, 64, 77
1, 285617, Control_c, 0, 64, 77
1, 285662, Control_c, 0, 64, 78
1, 285855, Control_c, 0, 64, 76
1, 285867, Note_on_c, 0, 77, 63
1, 285869, Control_c, 0, 64, 72
1, 285871, Note_on_c, 0, 44, 40
1, 285875, Note_on_c, 0, 53, 39
1, 285884, Control_c, 0, 64, 64
1, 285899, Control_c, 0, 64, 0
1, 285973, Control_c, 0, 64, 39
1, 285988, Control_c, 0, 64, 63
1, 286003, Control_c, 0, 64, 66
1, 286017, Control_c, 0, 64, 68
1, 286032, Control_c, 0, 64, 69
1, 286037, Note_off_c, 0, 44, 56
1, 286047, Control_c, 0, 64, 72
1, 286054, Note_on_c, 0, 75, 70
1, 286055, Note_off_c, 0, 77, 58
1, 286062, Control_c, 0, 64, 74
1, 286076, Control_c, 0, 64, 76
1, 286091, Control_c, 0, 64, 77
1, 286121, Control_c, 0, 64, 77
1, 286136, Control_c, 0, 64, 78
1, 286232, Control_c, 0, 64, 77
1, 286236, Note_off_c, 0, 65, 43
1, 286240, Note_on_c, 0, 73, 67
1, 286246, Note_on_c, 0, 46, 56
1, 286247, Control_c, 0, 64, 70
1, 286262, Control_c, 0, 64, 54
1, 286278, Control_c, 0, 64, 0
1, 286297, Note_off_c, 0, 75, 56
1, 286367, Control_c, 0, 64, 51
1, 286369, Note_off_c, 0, 53, 53
1, 286381, Control_c, 0, 64, 61
1, 286396, Control_c, 0, 64, 63
1, 286400, Note_on_c, 0, 55, 62
1, 286411, Control_c, 0, 64, 64
1, 286426, Control_c, 0, 64, 65
1, 286441, Control_c, 0, 64, 67
1, 286455, Control_c, 0, 64, 68
1, 286470, Control_c, 0, 64, 69
1, 286485, Control_c, 0, 64, 70
1, 286529, Control_c, 0, 64, 68
1, 286544, Note_on_c, 0, 70, 66
1, 286544, Control_c, 0, 64, 61
1, 286557, Note_off_c, 0, 55, 63
1, 286558, Note_on_c, 0, 56, 74
1, 286559, Control_c, 0, 64, 0
1, 286593, Note_off_c, 0, 73, 53
1, 286639, Note_off_c, 0, 56, 65
1, 286648, Control_c, 0, 64, 62
1, 286663, Control_c, 0, 64, 67
1, 286678, Control_c, 0, 64, 69
1, 286693, Control_c, 0, 64, 70
1, 286708, Control_c, 0, 64, 71
1, 286711, Note_on_c, 0, 58, 70
1, 286713, Note_on_c, 0, 67, 73
1, 286714, Note_off_c, 0, 70, 59
1, 286723, Control_c, 0, 64, 72
1, 286738, Control_c, 0, 64, 74
1, 286753, Control_c, 0, 64, 75
1, 286768, Control_c, 0, 64, 75
1, 286793, Note_off_c, 0, 46, 63
1, 286797, Control_c, 0, 64, 76
1, 286812, Control_c, 0, 64, 76
1, 286827, Control_c, 0, 64, 77
1, 286841, Control_c, 0, 64, 77
1, 286858, Note_off_c, 0, 58, 62
1, 286886, Control_c, 0, 64, 78
1, 286982, Control_c, 0, 64, 77
1, 286993, Note_on_c, 0, 72, 61
1, 286997, Control_c, 0, 64, 73
1, 286999, Note_off_c, 0, 67, 54
1, 287012, Control_c, 0, 64, 62
1, 287024, Note_on_c, 0, 48, 37
1, 287024, Note_on_c, 0, 56, 39
1, 287025, Note_on_c, 0, 60, 39
1, 287027, Control_c, 0, 64, 0
1, 287176, Control_c, 0, 64, 32
1, 287191, Control_c, 0, 64, 58
1, 287205, Control_c, 0, 64, 62
1, 287220, Control_c, 0, 64, 63
1, 287235, Control_c, 0, 64, 63
1, 287250, Control_c, 0, 64, 64
1, 287265, Control_c, 0, 64, 66
1, 287279, Control_c, 0, 64, 68
1, 287282, Note_off_c, 0, 60, 54
1, 287294, Control_c, 0, 64, 70
1, 287309, Control_c, 0, 64, 71
1, 287322, Control_c, 0, 64, 73
1, 287337, Control_c, 0, 64, 74
1, 287340, Note_on_c, 0, 68, 52
1, 287352, Control_c, 0, 64, 75
1, 287367, Control_c, 0, 64, 76
1, 287382, Control_c, 0, 64, 77
1, 287394, Note_off_c, 0, 56, 53
1, 287397, Control_c, 0, 64, 77
1, 287411, Control_c, 0, 64, 78
1, 287426, Control_c, 0, 64, 78
1, 287427, Note_off_c, 0, 68, 56
1, 287456, Control_c, 0, 64, 79
1, 287471, Note_on_c, 0, 65, 55
1, 287604, Control_c, 0, 64, 77
1, 287619, Control_c, 0, 64, 72
1, 287623, Note_off_c, 0, 72, 52
1, 287632, Note_off_c, 0, 65, 40
1, 287634, Control_c, 0, 64, 59
1, 287642, Note_on_c, 0, 70, 52
1, 287644, Note_on_c, 0, 55, 39
1, 287649, Control_c, 0, 64, 0
1, 287651, Note_on_c, 0, 58, 30
1, 287730, Control_c, 0, 64, 21
1, 287745, Control_c, 0, 64, 61
1, 287760, Control_c, 0, 64, 65
1, 287775, Control_c, 0, 64, 67
1, 287790, Control_c, 0, 64, 67
1, 287804, Control_c, 0, 64, 68
1, 287819, Control_c, 0, 64, 69
1, 287834, Control_c, 0, 64, 71
1, 287848, Control_c, 0, 64, 73
1, 287863, Control_c, 0, 64, 74
1, 287871, Note_off_c, 0, 55, 51
1, 287872, Note_off_c, 0, 58, 41
1, 287879, Control_c, 0, 64, 75
1, 287927, Note_off_c, 0, 70, 31
1, 287969, Note_on_c, 0, 67, 48
1, 288013, Control_c, 0, 64, 75
1, 288068, Note_off_c, 0, 67, 57
1, 288094, Note_off_c, 0, 48, 41
1, 288136, Note_on_c, 0, 64, 49
1, 288231, Note_off_c, 0, 64, 57
1, 288309, Control_c, 0, 64, 74
1, 288324, Control_c, 0, 64, 70
1, 288338, Control_c, 0, 64, 38
1, 288353, Control_c, 0, 64, 0
1, 288363, Note_on_c, 0, 53, 36
1, 288368, Note_on_c, 0, 65, 47
1, 288374, Note_on_c, 0, 49, 34
1, 288383, Note_on_c, 0, 56, 35
1, 288427, Control_c, 0, 64, 54
1, 288442, Note_off_c, 0, 65, 63
1, 288443, Note_off_c, 0, 53, 63
1, 288446, Note_off_c, 0, 56, 58
1, 288449, Control_c, 0, 64, 66
1, 288464, Control_c, 0, 64, 68
1, 288479, Control_c, 0, 64, 69
1, 288493, Control_c, 0, 64, 70
1, 288499, Note_off_c, 0, 49, 54
1, 288508, Control_c, 0, 64, 70
1, 288523, Control_c, 0, 64, 72
1, 288538, Control_c, 0, 64, 73
1, 288553, Control_c, 0, 64, 74
1, 288568, Control_c, 0, 64, 75
1, 288627, Control_c, 0, 64, 74
1, 288642, Control_c, 0, 64, 71
1, 288657, Control_c, 0, 64, 64
1, 288662, Note_on_c, 0, 44, 50
1, 288672, Note_on_c, 0, 37, 42
1, 288672, Control_c, 0, 64, 0
1, 288681, Note_on_c, 0, 53, 45
1, 288686, Note_on_c, 0, 49, 14
1, 288689, Note_off_c, 0, 44, 58
1, 288703, Note_off_c, 0, 37, 50
1, 288707, Note_off_c, 0, 53, 57
1, 288730, Note_off_c, 0, 49, 27
1, 288790, Note_on_c, 0, 44, 41
1, 288792, Note_on_c, 0, 37, 50
1, 288801, Note_on_c, 0, 53, 49
1, 288821, Note_off_c, 0, 44, 54
1, 288827, Note_off_c, 0, 37, 63
1, 288830, Note_off_c, 0, 53, 64
1, 288911, Note_on_c, 0, 53, 71
1, 288916, Note_on_c, 0, 44, 46
1, 288923, Note_on_c, 0, 37, 48
1, 288945, Note_off_c, 0, 44, 59
1, 288952, Note_off_c, 0, 53, 61
1, 288953, Note_off_c, 0, 37, 58
1, 289044, Note_on_c, 0, 44, 56
1, 289048, Note_on_c, 0, 37, 53
1, 289062, Note_on_c, 0, 53, 53
1, 289070, Note_off_c, 0, 44, 61
1, 289075, Note_on_c, 0, 49, 45
1, 289078, Note_off_c, 0, 37, 59
1, 289093, Note_off_c, 0, 53, 55
1, 289103, Note_off_c, 0, 49, 52
1, 289175, Note_on_c, 0, 37, 46
1, 289180, Note_on_c, 0, 49, 61
1, 289194, Note_on_c, 0, 44, 27
1, 289200, Note_on_c, 0, 53, 49
1, 289213, Note_off_c, 0, 37, 57
1, 289220, Note_off_c, 0, 49, 62
1, 289228, Note_off_c, 0, 44, 41
1, 289230, Note_off_c, 0, 53, 60
1, 289310, Note_on_c, 0, 44, 52
1, 289313, Note_on_c, 0, 37, 44
1, 289318, Note_on_c, 0, 53, 56
1, 289319, Note_on_c, 0, 49, 45
1, 289335, Note_off_c, 0, 44, 59
1, 289342, Note_off_c, 0, 37, 59
1, 289349, Note_off_c, 0, 49, 55
1, 289354, Note_off_c, 0, 53, 66
1, 289435, Note_on_c, 0, 37, 52
1, 289435, Note_on_c, 0, 44, 47
1, 289440, Note_on_c, 0, 49, 49
1, 289442, Note_on_c, 0, 53, 57
1, 289463, Note_off_c, 0, 44, 57
1, 289467, Note_off_c, 0, 37, 63
1, 289475, Note_off_c, 0, 49, 57
1, 289483, Note_off_c, 0, 53, 65
1, 289572, Note_on_c, 0, 44, 48
1, 289575, Note_on_c, 0, 37, 44
1, 289576, Note_on_c, 0, 49, 54
1, 289581, Note_on_c, 0, 53, 53
1, 289599, Note_off_c, 0, 44, 56
1, 289604, Note_off_c, 0, 37, 54
1, 289606, Note_off_c, 0, 49, 59
1, 289611, Note_off_c, 0, 53, 64
1, 289692, Note_on_c, 0, 44, 54
1, 289696, Note_on_c, 0, 37, 53
1, 289701, Note_on_c, 0, 49, 58
1, 289704, Note_on_c, 0, 53, 54
1, 289718, Note_off_c, 0, 44, 59
1, 289725, Note_off_c, 0, 37, 60
1, 289737, Note_off_c, 0, 49, 61
1, 289741, Note_off_c, 0, 53, 64
1, 289830, Note_on_c, 0, 37, 46
1, 289837, Note_on_c, 0, 44, 32
1, 289838, Note_on_c, 0, 49, 45
1, 289841, Note_on_c, 0, 53, 49
1, 289859, Note_off_c, 0, 37, 56
1, 289867, Note_off_c, 0, 49, 51
1, 289868, Note_off_c, 0, 44, 44
1, 289873, Note_off_c, 0, 53, 57
1, 289962, Note_on_c, 0, 37, 47
1, 289963, Note_on_c, 0, 44, 48
1, 289967, Note_on_c, 0, 49, 51
1, 289981, Note_on_c, 0, 53, 48
1, 289990, Note_off_c, 0, 37, 58
1, 289992, Note_off_c, 0, 44, 52
1, 290004, Note_off_c, 0, 49, 61
1, 290010, Note_off_c, 0, 53, 60
1, 290091, Note_on_c, 0, 44, 47
1, 290095, Note_on_c, 0, 37, 44
1, 290098, Note_on_c, 0, 49, 60
1, 290098, Note_on_c, 0, 53, 59
1, 290118, Note_off_c, 0, 44, 53
1, 290127, Note_off_c, 0, 37, 56
1, 290130, Note_off_c, 0, 49, 62
1, 290143, Note_off_c, 0, 53, 63
1, 290211, Note_on_c, 0, 44, 52
1, 290213, Note_on_c, 0, 49, 60
1, 290216, Note_on_c, 0, 37, 55
1, 290236, Note_off_c, 0, 44, 58
1, 290238, Note_on_c, 0, 53, 45
1, 290243, Note_off_c, 0, 37, 59
1, 290253, Note_off_c, 0, 49, 59
1, 290269, Note_off_c, 0, 53, 60
1, 290343, Note_on_c, 0, 37, 57
1, 290349, Note_on_c, 0, 51, 60
1, 290352, Note_on_c, 0, 55, 54
1, 290354, Note_on_c, 0, 46, 51
1, 290377, Note_off_c, 0, 37, 64
1, 290380, Note_off_c, 0, 46, 55
1, 290382, Note_off_c, 0, 55, 56
1, 290388, Note_off_c, 0, 51, 62
1, 290458, Note_on_c, 0, 55, 74
1, 290465, Note_on_c, 0, 37, 64
1, 290467, Note_on_c, 0, 46, 55
1, 290473, Note_on_c, 0, 51, 51
1, 290495, Note_off_c, 0, 46, 57
1, 290500, Note_off_c, 0, 51, 53
1, 290504, Note_off_c, 0, 55, 64
1, 290504, Note_off_c, 0, 37, 63
1, 290606, Note_on_c, 0, 56, 68
1, 290611, Note_on_c, 0, 44, 52
1, 290612, Note_on_c, 0, 51, 45
1, 290613, Note_on_c, 0, 39, 51
1, 290621, Note_on_c, 0, 36, 42
1, 290640, Note_off_c, 0, 44, 55
1, 290645, Note_off_c, 0, 39, 56
1, 290655, Note_off_c, 0, 36, 52
1, 290737, Note_on_c, 0, 44, 44
1, 290741, Note_on_c, 0, 39, 53
1, 290753, Note_on_c, 0, 36, 38
1, 290767, Note_off_c, 0, 44, 49
1, 290771, Note_off_c, 0, 39, 59
1, 290790, Note_off_c, 0, 36, 48
1, 290863, Note_on_c, 0, 44, 52
1, 290863, Note_on_c, 0, 39, 57
1, 290869, Note_on_c, 0, 36, 53
1, 290890, Note_off_c, 0, 44, 57
1, 290894, Note_off_c, 0, 39, 59
1, 290897, Note_off_c, 0, 36, 58
1, 291002, Note_off_c, 0, 56, 35
1, 291003, Note_on_c, 0, 44, 52
1, 291007, Note_on_c, 0, 39, 49
1, 291011, Note_on_c, 0, 36, 45
1, 291018, Note_on_c, 0, 60, 51
1, 291030, Note_off_c, 0, 44, 58
1, 291037, Note_off_c, 0, 39, 58
1, 291042, Note_off_c, 0, 36, 57
1, 291060, Note_on_c, 0, 58, 62
1, 291062, Note_off_c, 0, 60, 60
1, 291082, Note_off_c, 0, 51, 58
1, 291117, Note_on_c, 0, 56, 67
1, 291122, Note_off_c, 0, 58, 64
1, 291131, Note_on_c, 0, 44, 56
1, 291132, Note_on_c, 0, 39, 56
1, 291134, Note_on_c, 0, 36, 56
1, 291162, Note_off_c, 0, 56, 61
1, 291167, Note_off_c, 0, 44, 61
1, 291168, Note_off_c, 0, 39, 61
1, 291173, Note_off_c, 0, 36, 64
1, 291255, Note_on_c, 0, 44, 62
1, 291260, Note_on_c, 0, 39, 59
1, 291263, Note_on_c, 0, 36, 55
1, 291274, Control_c, 0, 67, 123
1, 291285, Note_off_c, 0, 44, 60
1, 291288, Control_c, 0, 67, 94
1, 291298, Note_off_c, 0, 36, 62
1, 291298, Note_off_c, 0, 39, 63
1, 291303, Control_c, 0, 67, 60
1, 291318, Control_c, 0, 67, 19
1, 291333, Control_c, 0, 67, 0
1, 291379, Note_on_c, 0, 44, 67
1, 291387, Note_on_c, 0, 39, 59
1, 291388, Note_on_c, 0, 36, 60
1, 291411, Note_off_c, 0, 44, 65
1, 291420, Note_off_c, 0, 39, 62
1, 291421, Note_off_c, 0, 36, 60
1, 291490, Note_on_c, 0, 44, 74
1, 291507, Note_on_c, 0, 39, 60
1, 291514, Note_on_c, 0, 36, 53
1, 291549, Note_off_c, 0, 36, 64
1, 291554, Note_off_c, 0, 44, 62
1, 291556, Note_on_c, 0, 86, 73
1, 291565, Note_off_c, 0, 39, 58
1, 291595, Note_on_c, 0, 87, 97
1, 291607, Note_off_c, 0, 86, 67
1, 291614, Note_on_c, 0, 45, 96
1, 291614, Note_on_c, 0, 36, 92
1, 291614, Note_on_c, 0, 41, 98
1, 291617, Note_on_c, 0, 39, 79
1, 291622, Control_c, 0, 64, 91
1, 291636, Control_c, 0, 64, 127
1, 291664, Note_on_c, 0, 88, 72
1, 291669, Note_off_c, 0, 87, 58
1, 291678, Note_off_c, 0, 36, 63
1, 291682, Note_off_c, 0, 39, 62
1, 291683, Note_off_c, 0, 45, 61
1, 291685, Note_off_c, 0, 41, 65
1, 291727, Note_on_c, 0, 41, 70
1, 291731, Note_on_c, 0, 36, 78
1, 291731, Note_on_c, 0, 45, 76
1, 291734, Note_on_c, 0, 39, 67
1, 291777, Note_off_c, 0, 45, 61
1, 291781, Note_off_c, 0, 36, 61
1, 291781, Note_off_c, 0, 41, 65
1, 291793, Note_off_c, 0, 39, 61
1, 291799, Control_c, 0, 64, 109
1, 291814, Control_c, 0, 64, 105
1, 291859, Control_c, 0, 64, 107
1, 291863, Note_on_c, 0, 45, 77
1, 291868, Note_on_c, 0, 36, 78
1, 291869, Note_on_c, 0, 41, 69
1, 291874, Control_c, 0, 64, 114
1, 291875, Note_on_c, 0, 39, 62
1, 291889, Control_c, 0, 64, 125
1, 291904, Control_c, 0, 64, 127
1, 291909, Note_off_c, 0, 45, 48
1, 291915, Note_off_c, 0, 39, 61
1, 291923, Note_on_c, 0, 85, 72
1, 291924, Note_off_c, 0, 36, 63
1, 291927, Note_off_c, 0, 88, 63
1, 291931, Note_off_c, 0, 41, 64
1, 291978, Note_off_c, 0, 85, 65
1, 291984, Note_on_c, 0, 84, 80
1, 291995, Note_on_c, 0, 36, 72
1, 291996, Note_on_c, 0, 45, 75
1, 291999, Note_on_c, 0, 39, 71
1, 292007, Note_on_c, 0, 41, 53
1, 292026, Note_off_c, 0, 45, 63
1, 292038, Control_c, 0, 64, 105
1, 292041, Note_off_c, 0, 41, 65
1, 292044, Note_off_c, 0, 36, 62
1, 292044, Note_off_c, 0, 84, 65
1, 292050, Note_off_c, 0, 39, 63
1, 292053, Control_c, 0, 64, 83
1, 292068, Control_c, 0, 64, 0
1, 292078, Note_on_c, 0, 83, 39
1, 292104, Note_on_c, 0, 81, 93
1, 292106, Note_off_c, 0, 83, 47
1, 292121, Note_on_c, 0, 45, 75
1, 292124, Note_on_c, 0, 41, 71
1, 292126, Note_on_c, 0, 36, 84
1, 292130, Note_on_c, 0, 39, 74
1, 292130, Poly_aftertouch_c, 0, 82, 0
1, 292142, Note_off_c, 0, 81, 63
1, 292151, Note_off_c, 0, 45, 59
1, 292157, Control_c, 0, 64, 64
1, 292165, Note_off_c, 0, 41, 67
1, 292166, Note_off_c, 0, 39, 62
1, 292172, Control_c, 0, 64, 76
1, 292175, Note_off_c, 0, 36, 61
1, 292193, Control_c, 0, 64, 78
1, 292208, Control_c, 0, 64, 75
1, 292223, Control_c, 0, 64, 69
1, 292238, Control_c, 0, 64, 49
1, 292249, Note_on_c, 0, 36, 64
1, 292250, Note_on_c, 0, 45, 65
1, 292252, Note_on_c, 0, 41, 60
1, 292253, Control_c, 0, 64, 0
1, 292259, Note_on_c, 0, 39, 58
1, 292289, Note_off_c, 0, 36, 66
1, 292289, Note_off_c, 0, 45, 61
1, 292294, Note_off_c, 0, 41, 59
1, 292294, Note_off_c, 0, 39, 63
1, 292375, Note_on_c, 0, 45, 68
1, 292387, Note_on_c, 0, 39, 52
1, 292387, Note_on_c, 0, 41, 48
1, 292388, Note_on_c, 0, 36, 57
1, 292406, Note_off_c, 0, 45, 64
1, 292416, Note_off_c, 0, 36, 60
1, 292422, Note_off_c, 0, 41, 55
1, 292426, Note_off_c, 0, 39, 63
1, 292491, Note_on_c, 0, 36, 72
1, 292496, Note_on_c, 0, 45, 58
1, 292507, Note_on_c, 0, 41, 42
1, 292526, Note_off_c, 0, 45, 65
1, 292529, Note_off_c, 0, 36, 62
1, 292544, Note_off_c, 0, 41, 54
1, 292622, Note_on_c, 0, 41, 56
1, 292633, Note_on_c, 0, 46, 60
1, 292637, Note_on_c, 0, 37, 52
1, 292670, Note_off_c, 0, 41, 54
1, 292671, Note_off_c, 0, 46, 60
1, 292678, Note_off_c, 0, 37, 62
1, 292714, Poly_aftertouch_c, 0, 59, 127
1, 292765, Note_on_c, 0, 46, 60
1, 292770, Note_on_c, 0, 37, 58
1, 292770, Note_on_c, 0, 41, 59
1, 292799, Note_off_c, 0, 46, 62
1, 292806, Note_off_c, 0, 41, 66
1, 292807, Note_off_c, 0, 37, 64
1, 292846, Control_c, 0, 64, 47
1, 292860, Control_c, 0, 64, 54
1, 292873, Note_on_c, 0, 46, 66
1, 292875, Control_c, 0, 64, 57
1, 292882, Note_on_c, 0, 41, 65
1, 292890, Control_c, 0, 64, 58
1, 292893, Note_on_c, 0, 37, 58
1, 292898, Poly_aftertouch_c, 0, 59, 0
1, 292907, Note_off_c, 0, 46, 60
1, 292920, Note_off_c, 0, 41, 66
1, 292920, Control_c, 0, 64, 58
1, 292933, Note_off_c, 0, 37, 64
1, 292957, Control_c, 0, 64, 59
1, 292972, Control_c, 0, 64, 60
1, 293002, Control_c, 0, 64, 60
1, 293016, Note_on_c, 0, 46, 59
1, 293019, Note_on_c, 0, 41, 59
1, 293020, Note_on_c, 0, 37, 60
1, 293022, Note_on_c, 0, 61, 61
1, 293031, Control_c, 0, 64, 60
1, 293046, Control_c, 0, 64, 59
1, 293050, Note_off_c, 0, 46, 62
1, 293056, Note_off_c, 0, 41, 66
1, 293060, Note_off_c, 0, 37, 65
1, 293060, Control_c, 0, 64, 59
1, 293072, Note_on_c, 0, 60, 61
1, 293075, Control_c, 0, 64, 56
1, 293090, Control_c, 0, 64, 52
1, 293101, Note_off_c, 0, 61, 53
1, 293105, Control_c, 0, 64, 51
1, 293120, Control_c, 0, 64, 53
1, 293122, Note_off_c, 0, 60, 61
1, 293127, Note_on_c, 0, 58, 71
1, 293135, Control_c, 0, 64, 53
1, 293138, Note_on_c, 0, 46, 62
1, 293143, Note_on_c, 0, 41, 65
1, 293147, Note_on_c, 0, 37, 62
1, 293150, Control_c, 0, 64, 52
1, 293165, Control_c, 0, 64, 51
1, 293165, Note_off_c, 0, 58, 64
1, 293173, Note_off_c, 0, 46, 60
1, 293179, Control_c, 0, 64, 50
1, 293181, Note_off_c, 0, 41, 65
1, 293186, Note_off_c, 0, 37, 64
1, 293194, Control_c, 0, 64, 49
1, 293239, Control_c, 0, 64, 45
1, 293254, Control_c, 0, 64, 0
1, 293255, Note_on_c, 0, 46, 67
1, 293260, Note_on_c, 0, 41, 65
1, 293271, Note_on_c, 0, 37, 58
1, 293291, Note_off_c, 0, 46, 59
1, 293299, Note_off_c, 0, 41, 66
1, 293301, Note_off_c, 0, 37, 65
1, 293381, Note_on_c, 0, 41, 75
1, 293386, Note_on_c, 0, 37, 66
1, 293388, Note_on_c, 0, 46, 62
1, 293413, Note_off_c, 0, 46, 62
1, 293415, Note_off_c, 0, 37, 65
1, 293419, Note_off_c, 0, 41, 67
1, 293487, Note_on_c, 0, 46, 73
1, 293492, Note_on_c, 0, 41, 73
1, 293495, Note_on_c, 0, 37, 69
1, 293532, Note_off_c, 0, 41, 67
1, 293535, Note_off_c, 0, 46, 59
1, 293537, Note_off_c, 0, 37, 67
1, 293544, Note_on_c, 0, 88, 80
1, 293599, Note_on_c, 0, 89, 104
1, 293609, Note_on_c, 0, 47, 102
1, 293612, Note_on_c, 0, 41, 95
1, 293613, Note_on_c, 0, 38, 97
1, 293627, Note_off_c, 0, 88, 63
1, 293637, Note_on_c, 0, 40, 49
1, 293638, Note_off_c, 0, 40, 127
1, 293639, Control_c, 0, 64, 83
1, 293650, Note_off_c, 0, 47, 63
1, 293652, Note_off_c, 0, 41, 65
1, 293654, Control_c, 0, 64, 127
1, 293671, Note_off_c, 0, 38, 62
1, 293673, Poly_aftertouch_c, 0, 40, 0
1, 293751, Note_on_c, 0, 41, 91
1, 293751, Note_on_c, 0, 47, 91
1, 293756, Note_on_c, 0, 38, 82
1, 293784, Note_off_c, 0, 47, 60
1, 293794, Note_off_c, 0, 41, 64
1, 293805, Note_off_c, 0, 38, 60
1, 293825, Control_c, 0, 64, 114
1, 293839, Control_c, 0, 64, 99
1, 293854, Control_c, 0, 64, 86
1, 293869, Control_c, 0, 64, 71
1, 293881, Note_on_c, 0, 41, 83
1, 293883, Note_on_c, 0, 47, 72
1, 293883, Note_on_c, 0, 38, 79
1, 293883, Control_c, 0, 64, 0
1, 293907, Note_off_c, 0, 47, 61
1, 293918, Note_off_c, 0, 41, 58
1, 293927, Note_off_c, 0, 38, 64
1, 293931, Note_on_c, 0, 87, 67
1, 293964, Note_off_c, 0, 89, 50
1, 294005, Note_on_c, 0, 86, 55
1, 294011, Note_on_c, 0, 41, 82
1, 294017, Note_on_c, 0, 38, 75
1, 294017, Note_on_c, 0, 47, 56
1, 294032, Note_off_c, 0, 87, 63
1, 294052, Note_off_c, 0, 47, 63
1, 294053, Note_off_c, 0, 41, 63
1, 294055, Note_on_c, 0, 84, 28
1, 294056, Note_off_c, 0, 86, 53
1, 294064, Note_off_c, 0, 38, 61
1, 294108, Note_off_c, 0, 84, 59
1, 294133, Note_on_c, 0, 83, 73
1, 294136, Note_on_c, 0, 47, 70
1, 294137, Note_on_c, 0, 41, 81
1, 294139, Note_on_c, 0, 81, 70
1, 294143, Note_on_c, 0, 38, 68
1, 294156, Note_off_c, 0, 83, 67
1, 294163, Note_off_c, 0, 47, 65
1, 294163, Note_off_c, 0, 81, 66
1, 294175, Note_off_c, 0, 41, 67
1, 294184, Note_off_c, 0, 38, 65
1, 294209, Control_c, 0, 64, 27
1, 294224, Control_c, 0, 64, 38
1, 294239, Control_c, 0, 64, 46
1, 294255, Control_c, 0, 64, 50
1, 294257, Note_on_c, 0, 47, 67
1, 294259, Note_on_c, 0, 41, 80
1, 294267, Note_on_c, 0, 38, 71
1, 294270, Control_c, 0, 64, 53
1, 294285, Control_c, 0, 64, 55
1, 294291, Note_off_c, 0, 47, 64
1, 294295, Note_off_c, 0, 41, 66
1, 294300, Control_c, 0, 64, 57
1, 294309, Note_off_c, 0, 38, 66
1, 294314, Control_c, 0, 64, 59
1, 294329, Control_c, 0, 64, 60
1, 294344, Control_c, 0, 64, 61
1, 294359, Control_c, 0, 64, 61
1, 294385, Note_on_c, 0, 47, 79
1, 294386, Note_on_c, 0, 41, 78
1, 294388, Control_c, 0, 64, 62
1, 294393, Note_on_c, 0, 38, 76
1, 294403, Control_c, 0, 64, 63
1, 294415, Note_off_c, 0, 47, 66
1, 294418, Control_c, 0, 64, 64
1, 294421, Note_off_c, 0, 41, 62
1, 294441, Note_off_c, 0, 38, 65
1, 294503, Note_on_c, 0, 41, 79
1, 294505, Note_on_c, 0, 47, 76
1, 294515, Note_on_c, 0, 38, 64
1, 294529, Control_c, 0, 64, 63
1, 294530, Note_off_c, 0, 47, 67
1, 294535, Note_off_c, 0, 41, 64
1, 294555, Note_off_c, 0, 38, 64
1, 294559, Control_c, 0, 64, 60
1, 294574, Control_c, 0, 64, 30
1, 294588, Control_c, 0, 64, 0
1, 294632, Note_on_c, 0, 47, 74
1, 294637, Note_on_c, 0, 43, 75
1, 294642, Note_on_c, 0, 39, 70
1, 294646, Note_on_c, 0, 60, 62
1, 294666, Note_off_c, 0, 47, 65
1, 294670, Note_off_c, 0, 43, 59
1, 294684, Note_off_c, 0, 39, 63
1, 294692, Control_c, 0, 64, 60
1, 294706, Control_c, 0, 64, 67
1, 294721, Control_c, 0, 64, 69
1, 294736, Control_c, 0, 64, 70
1, 294751, Control_c, 0, 64, 71
1, 294756, Note_on_c, 0, 47, 72
1, 294760, Note_on_c, 0, 43, 59
1, 294766, Control_c, 0, 64, 74
1, 294771, Note_on_c, 0, 39, 66
1, 294772, Note_on_c, 0, 63, 72
1, 294780, Control_c, 0, 64, 79
1, 294786, Note_off_c, 0, 60, 34
1, 294793, Note_off_c, 0, 47, 61
1, 294795, Control_c, 0, 64, 85
1, 294804, Note_off_c, 0, 43, 60
1, 294807, Note_off_c, 0, 39, 63
1, 294810, Control_c, 0, 64, 92
1, 294825, Control_c, 0, 64, 103
1, 294827, Note_on_c, 0, 62, 83
1, 294840, Control_c, 0, 64, 123
1, 294849, Note_off_c, 0, 62, 68
1, 294849, Note_off_c, 0, 63, 62
1, 294855, Control_c, 0, 64, 127
1, 294874, Note_on_c, 0, 48, 95
1, 294876, Note_on_c, 0, 60, 104
1, 294877, Note_on_c, 0, 39, 93
1, 294879, Note_on_c, 0, 43, 87
1, 294917, Note_off_c, 0, 60, 66
1, 294926, Note_off_c, 0, 48, 64
1, 294929, Control_c, 0, 64, 114
1, 294930, Note_off_c, 0, 43, 61
1, 294942, Note_off_c, 0, 39, 62
1, 294944, Control_c, 0, 64, 92
1, 294959, Control_c, 0, 64, 75
1, 294974, Control_c, 0, 64, 0
1, 295002, Note_on_c, 0, 43, 64
1, 295034, Note_on_c, 0, 48, 24
1, 295038, Note_off_c, 0, 43, 61
1, 295069, Note_off_c, 0, 48, 31
1, 295130, Note_on_c, 0, 44, 72
1, 295130, Note_on_c, 0, 48, 80
1, 295132, Note_on_c, 0, 41, 73
1, 295141, Note_on_c, 0, 80, 73
1, 295168, Note_off_c, 0, 48, 64
1, 295170, Note_off_c, 0, 44, 66
1, 295174, Note_off_c, 0, 41, 67
1, 295204, Note_on_c, 0, 79, 84
1, 295218, Note_off_c, 0, 80, 63
1, 295245, Note_off_c, 0, 79, 64
1, 295256, Note_on_c, 0, 77, 70
1, 295270, Note_on_c, 0, 44, 79
1, 295272, Note_on_c, 0, 41, 80
1, 295278, Note_on_c, 0, 50, 61
1, 295289, Note_on_c, 0, 48, 56
1, 295300, Note_off_c, 0, 50, 61
1, 295302, Note_off_c, 0, 44, 65
1, 295306, Note_on_c, 0, 75, 84
1, 295308, Note_off_c, 0, 41, 67
1, 295310, Note_off_c, 0, 77, 60
1, 295315, Note_off_c, 0, 48, 58
1, 295340, Note_off_c, 0, 75, 68
1, 295360, Note_on_c, 0, 74, 90
1, 295369, Note_on_c, 0, 50, 100
1, 295375, Note_on_c, 0, 44, 94
1, 295376, Note_on_c, 0, 41, 94
1, 295388, Note_off_c, 0, 74, 72
1, 295397, Control_c, 0, 64, 77
1, 295409, Note_off_c, 0, 44, 60
1, 295411, Control_c, 0, 64, 127
1, 295416, Note_off_c, 0, 50, 61
1, 295424, Note_off_c, 0, 41, 66
1, 295466, Poly_aftertouch_c, 0, 43, 127
1, 295502, Poly_aftertouch_c, 0, 43, 0
1, 295507, Note_on_c, 0, 50, 75
1, 295508, Note_on_c, 0, 44, 69
1, 295509, Note_on_c, 0, 41, 74
1, 295531, Note_off_c, 0, 50, 65
1, 295532, Note_off_c, 0, 44, 63
1, 295534, Note_off_c, 0, 41, 66
1, 295544, Control_c, 0, 64, 105
1, 295559, Control_c, 0, 64, 82
1, 295574, Control_c, 0, 64, 35
1, 295589, Control_c, 0, 64, 0
1, 295639, Note_on_c, 0, 43, 75
1, 295641, Note_on_c, 0, 50, 79
1, 295654, Note_on_c, 0, 46, 52
1, 295666, Note_on_c, 0, 64, 55
1, 295673, Note_off_c, 0, 50, 63
1, 295674, Note_on_c, 0, 62, 51
1, 295677, Control_c, 0, 64, 69
1, 295680, Note_off_c, 0, 43, 64
1, 295686, Note_off_c, 0, 46, 36
1, 295692, Control_c, 0, 64, 76
1, 295704, Note_off_c, 0, 62, 58
1, 295707, Control_c, 0, 64, 81
1, 295722, Control_c, 0, 64, 82
1, 295737, Control_c, 0, 64, 83
1, 295752, Control_c, 0, 64, 85
1, 295767, Control_c, 0, 64, 93
1, 295773, Note_on_c, 0, 46, 85
1, 295776, Note_on_c, 0, 67, 75
1, 295777, Note_on_c, 0, 52, 84
1, 295780, Note_on_c, 0, 43, 80
1, 295782, Control_c, 0, 64, 107
1, 295788, Note_off_c, 0, 64, 59
1, 295797, Control_c, 0, 64, 127
1, 295809, Note_off_c, 0, 52, 62
1, 295811, Note_off_c, 0, 43, 64
1, 295815, Note_off_c, 0, 46, 61
1, 295826, Note_on_c, 0, 65, 83
1, 295846, Note_off_c, 0, 67, 59
1, 295886, Control_c, 0, 64, 109
1, 295886, Note_on_c, 0, 64, 96
1, 295889, Note_on_c, 0, 52, 104
1, 295889, Note_on_c, 0, 46, 102
1, 295891, Note_on_c, 0, 43, 99
1, 295892, Poly_aftertouch_c, 0, 50, 0
1, 295894, Note_off_c, 0, 65, 59
1, 295901, Control_c, 0, 64, 85
1, 295916, Control_c, 0, 64, 18
1, 295931, Note_off_c, 0, 64, 66
1, 295935, Note_off_c, 0, 52, 62
1, 295938, Control_c, 0, 64, 0
1, 295950, Note_off_c, 0, 43, 58
1, 295955, Note_off_c, 0, 46, 60
1, 296029, Note_on_c, 0, 43, 62
1, 296030, Note_on_c, 0, 52, 69
1, 296035, Note_on_c, 0, 46, 53
1, 296067, Note_off_c, 0, 52, 66
1, 296074, Note_off_c, 0, 46, 63
1, 296084, Note_off_c, 0, 43, 60
1, 296150, Note_on_c, 0, 84, 80
1, 296151, Note_on_c, 0, 48, 80
1, 296154, Note_on_c, 0, 52, 81
1, 296157, Note_on_c, 0, 44, 73
1, 296160, Control_c, 0, 64, 64
1, 296175, Control_c, 0, 64, 80
1, 296181, Note_off_c, 0, 52, 67
1, 296186, Note_on_c, 0, 46, 31
1, 296190, Control_c, 0, 64, 82
1, 296203, Note_off_c, 0, 48, 64
1, 296205, Control_c, 0, 64, 73
1, 296207, Note_off_c, 0, 44, 60
1, 296210, Note_on_c, 0, 82, 69
1, 296220, Control_c, 0, 64, 0
1, 296223, Note_off_c, 0, 46, 47
1, 296268, Note_on_c, 0, 80, 82
1, 296270, Note_on_c, 0, 52, 78
1, 296271, Note_on_c, 0, 44, 72
1, 296276, Note_on_c, 0, 48, 60
1, 296297, Note_off_c, 0, 52, 68
1, 296309, Note_off_c, 0, 84, 55
1, 296312, Note_off_c, 0, 82, 65
1, 296317, Note_off_c, 0, 44, 64
1, 296318, Note_off_c, 0, 48, 66
1, 296322, Note_on_c, 0, 81, 21
1, 296334, Note_on_c, 0, 79, 89
1, 296337, Note_off_c, 0, 80, 63
1, 296360, Note_off_c, 0, 81, 31
1, 296366, Note_off_c, 0, 79, 52
1, 296384, Note_on_c, 0, 53, 92
1, 296384, Note_on_c, 0, 77, 99
1, 296384, Note_on_c, 0, 48, 95
1, 296387, Note_on_c, 0, 44, 85
1, 296397, Note_on_c, 0, 79, 41
1, 296419, Note_off_c, 0, 79, 40
1, 296421, Note_on_c, 0, 46, 35
1, 296422, Note_off_c, 0, 46, 127
1, 296422, Note_off_c, 0, 53, 66
1, 296422, Note_off_c, 0, 77, 69
1, 296427, Control_c, 0, 64, 111
1, 296435, Note_off_c, 0, 48, 64
1, 296442, Control_c, 0, 64, 127
1, 296453, Note_off_c, 0, 44, 62
1, 296500, Note_on_c, 0, 53, 88
1, 296529, Note_on_c, 0, 48, 30
1, 296546, Note_off_c, 0, 48, 68
1, 296547, Note_off_c, 0, 53, 64
1, 296619, Control_c, 0, 64, 94
1, 296623, Note_on_c, 0, 48, 46
1, 296634, Control_c, 0, 64, 54
1, 296650, Control_c, 0, 64, 0
1, 296660, Note_on_c, 0, 45, 75
1, 296662, Note_on_c, 0, 54, 92
1, 296664, Note_on_c, 0, 87, 101
1, 296666, Note_off_c, 0, 48, 0
1, 296666, Note_on_c, 0, 48, 55
1, 296692, Note_on_c, 0, 88, 76
1, 296702, Control_c, 0, 64, 68
1, 296707, Note_off_c, 0, 45, 60
1, 296717, Control_c, 0, 64, 89
1, 296731, Note_on_c, 0, 86, 83
1, 296732, Control_c, 0, 64, 117
1, 296733, Note_off_c, 0, 48, 56
1, 296738, Note_off_c, 0, 54, 57
1, 296747, Note_off_c, 0, 88, 57
1, 296747, Control_c, 0, 64, 127
1, 296757, Note_off_c, 0, 87, 61
1, 296779, Note_on_c, 0, 84, 84
1, 296782, Note_off_c, 0, 86, 65
1, 296793, Note_on_c, 0, 48, 56
1, 296800, Note_on_c, 0, 54, 74
1, 296803, Note_on_c, 0, 45, 68
1, 296839, Note_on_c, 0, 83, 83
1, 296840, Note_off_c, 0, 84, 60
1, 296844, Note_off_c, 0, 45, 57
1, 296851, Control_c, 0, 64, 121
1, 296858, Note_off_c, 0, 54, 59
1, 296864, Note_off_c, 0, 48, 59
1, 296865, Control_c, 0, 64, 88
1, 296880, Control_c, 0, 64, 44
1, 296895, Control_c, 0, 64, 0
1, 296902, Note_on_c, 0, 84, 104
1, 296913, Note_on_c, 0, 48, 66
1, 296916, Note_on_c, 0, 54, 80
1, 296920, Note_on_c, 0, 45, 76
1, 296932, Note_off_c, 0, 84, 73
1, 296937, Note_off_c, 0, 83, 28
1, 296954, Control_c, 0, 64, 67
1, 296968, Note_off_c, 0, 45, 58
1, 296969, Control_c, 0, 64, 75
1, 296983, Control_c, 0, 64, 80
1, 296986, Note_off_c, 0, 54, 56
1, 296989, Note_off_c, 0, 48, 62
1, 296998, Control_c, 0, 64, 81
1, 297013, Control_c, 0, 64, 81
1, 297033, Note_on_c, 0, 48, 61
1, 297040, Note_on_c, 0, 54, 67
1, 297040, Note_on_c, 0, 45, 61
1, 297043, Control_c, 0, 64, 82
1, 297058, Control_c, 0, 64, 83
1, 297073, Control_c, 0, 64, 84
1, 297087, Control_c, 0, 64, 85
1, 297098, Note_off_c, 0, 45, 55
1, 297102, Note_off_c, 0, 54, 53
1, 297106, Note_off_c, 0, 48, 60
1, 297132, Control_c, 0, 64, 82
1, 297147, Control_c, 0, 64, 67
1, 297162, Control_c, 0, 64, 0
1, 297167, Note_on_c, 0, 48, 65
1, 297169, Note_on_c, 0, 54, 74
1, 297171, Note_on_c, 0, 45, 64
1, 297191, Note_on_c, 0, 76, 51
1, 297210, Note_off_c, 0, 54, 58
1, 297214, Note_off_c, 0, 45, 63
1, 297215, Note_on_c, 0, 74, 83
1, 297217, Note_off_c, 0, 48, 64
1, 297231, Poly_aftertouch_c, 0, 75, 0
1, 297242, Note_off_c, 0, 76, 45
1, 297265, Note_off_c, 0, 74, 67
1, 297281, Note_on_c, 0, 72, 83
1, 297302, Note_on_c, 0, 48, 61
1, 297303, Note_on_c, 0, 54, 64
1, 297314, Note_on_c, 0, 45, 43
1, 297326, Note_off_c, 0, 72, 65
1, 297330, Note_on_c, 0, 71, 86
1, 297340, Note_off_c, 0, 54, 60
1, 297343, Note_off_c, 0, 45, 58
1, 297354, Note_off_c, 0, 48, 62
1, 297362, Note_off_c, 0, 71, 66
1, 297391, Note_on_c, 0, 72, 102
1, 297398, Control_c, 0, 64, 40
1, 297409, Note_on_c, 0, 54, 72
1, 297412, Note_on_c, 0, 48, 67
1, 297413, Control_c, 0, 64, 74
1, 297416, Note_on_c, 0, 45, 73
1, 297418, Note_off_c, 0, 72, 70
1, 297435, Control_c, 0, 64, 82
1, 297450, Control_c, 0, 64, 84
1, 297466, Note_off_c, 0, 45, 58
1, 297466, Control_c, 0, 64, 84
1, 297469, Note_off_c, 0, 54, 55
1, 297472, Note_off_c, 0, 48, 62
1, 297481, Control_c, 0, 64, 85
1, 297496, Control_c, 0, 64, 88
1, 297511, Control_c, 0, 64, 93
1, 297526, Control_c, 0, 64, 101
1, 297536, Note_on_c, 0, 45, 68
1, 297540, Control_c, 0, 64, 112
1, 297542, Note_on_c, 0, 48, 69
1, 297552, Note_on_c, 0, 54, 60
1, 297555, Control_c, 0, 64, 127
1, 297566, Note_off_c, 0, 45, 64
1, 297584, Note_off_c, 0, 54, 58
1, 297604, Note_off_c, 0, 48, 63
1, 297651, Poly_aftertouch_c, 0, 48, 0
1, 297658, Control_c, 0, 64, 98
1, 297659, Note_on_c, 0, 48, 72
1, 297659, Note_on_c, 0, 63, 96
1, 297665, Note_on_c, 0, 54, 80
1, 297668, Note_on_c, 0, 44, 71
1, 297673, Control_c, 0, 64, 79
1, 297688, Control_c, 0, 64, 49
1, 297703, Control_c, 0, 64, 0
1, 297714, Note_off_c, 0, 54, 53
1, 297722, Note_off_c, 0, 48, 62
1, 297723, Note_on_c, 0, 62, 81
1, 297730, Note_off_c, 0, 44, 57
1, 297758, Note_off_c, 0, 63, 62
1, 297782, Note_on_c, 0, 60, 80
1, 297786, Note_on_c, 0, 44, 48
1, 297788, Note_on_c, 0, 48, 60
1, 297811, Note_off_c, 0, 62, 36
1, 297829, Note_on_c, 0, 54, 20
1, 297836, Note_off_c, 0, 44, 59
1, 297837, Note_off_c, 0, 60, 59
1, 297838, Note_off_c, 0, 48, 62
1, 297841, Note_on_c, 0, 59, 85
1, 297867, Note_off_c, 0, 54, 29
1, 297877, Note_off_c, 0, 59, 66
1, 297925, Note_on_c, 0, 48, 72
1, 297928, Note_on_c, 0, 60, 67
1, 297931, Note_on_c, 0, 44, 61
1, 297937, Note_on_c, 0, 62, 51
1, 297943, Note_on_c, 0, 54, 56
1, 297946, Note_off_c, 0, 60, 65
1, 297954, Control_c, 0, 64, 53
1, 297963, Note_off_c, 0, 62, 55
1, 297969, Control_c, 0, 64, 62
1, 297970, Note_off_c, 0, 48, 65
1, 297972, Note_off_c, 0, 44, 61
1, 297972, Note_off_c, 0, 54, 53
1, 297984, Control_c, 0, 64, 63
1, 297999, Control_c, 0, 64, 64
1, 298013, Control_c, 0, 64, 65
1, 298028, Control_c, 0, 64, 67
1, 298043, Control_c, 0, 64, 70
1, 298047, Note_on_c, 0, 44, 57
1, 298047, Note_on_c, 0, 54, 67
1, 298052, Note_on_c, 0, 48, 56
1, 298057, Control_c, 0, 64, 74
1, 298072, Control_c, 0, 64, 78
1, 298077, Note_off_c, 0, 54, 64
1, 298083, Note_off_c, 0, 48, 66
1, 298087, Control_c, 0, 64, 79
1, 298102, Control_c, 0, 64, 80
1, 298103, Note_off_c, 0, 44, 63
1, 298146, Control_c, 0, 64, 79
1, 298161, Control_c, 0, 64, 76
1, 298166, Note_on_c, 0, 75, 76
1, 298167, Note_on_c, 0, 48, 70
1, 298181, Note_on_c, 0, 44, 62
1, 298184, Control_c, 0, 64, 70
1, 298196, Note_on_c, 0, 51, 46
1, 298199, Control_c, 0, 64, 60
1, 298207, Note_off_c, 0, 48, 65
1, 298211, Note_off_c, 0, 44, 63
1, 298213, Control_c, 0, 64, 0
1, 298225, Note_off_c, 0, 51, 34
1, 298242, Note_on_c, 0, 74, 76
1, 298244, Note_off_c, 0, 75, 63
1, 298259, Control_c, 0, 64, 43
1, 298274, Control_c, 0, 64, 54
1, 298282, Note_on_c, 0, 48, 59
1, 298288, Control_c, 0, 64, 56
1, 298292, Note_off_c, 0, 74, 65
1, 298302, Note_on_c, 0, 44, 48
1, 298303, Control_c, 0, 64, 57
1, 298304, Note_on_c, 0, 72, 68
1, 298313, Note_on_c, 0, 51, 29
1, 298316, Note_off_c, 0, 48, 65
1, 298318, Control_c, 0, 64, 56
1, 298333, Control_c, 0, 64, 42
1, 298334, Note_off_c, 0, 44, 59
1, 298346, Note_off_c, 0, 72, 63
1, 298348, Control_c, 0, 64, 0
1, 298350, Note_off_c, 0, 51, 31
1, 298363, Note_on_c, 0, 71, 65
1, 298390, Note_off_c, 0, 71, 65
1, 298399, Note_on_c, 0, 48, 81
1, 298401, Note_on_c, 0, 44, 84
1, 298423, Note_on_c, 0, 72, 82
1, 298430, Note_off_c, 0, 44, 67
1, 298434, Note_off_c, 0, 48, 67
1, 298475, Note_off_c, 0, 72, 61
1, 298479, Note_on_c, 0, 74, 76
1, 298501, Note_on_c, 0, 44, 79
1, 298509, Note_on_c, 0, 48, 72
1, 298528, Note_on_c, 0, 75, 67
1, 298532, Note_off_c, 0, 74, 58
1, 298542, Note_off_c, 0, 48, 65
1, 298553, Note_off_c, 0, 44, 61
1, 298569, Note_off_c, 0, 75, 67
1, 298580, Note_on_c, 0, 78, 81
1, 298630, Note_on_c, 0, 47, 97
1, 298634, Note_on_c, 0, 43, 94
1, 298644, Note_on_c, 0, 79, 69
1, 298649, Note_off_c, 0, 78, 64
1, 298657, Note_off_c, 0, 43, 69
1, 298658, Note_off_c, 0, 47, 70
1, 298673, Control_c, 0, 64, 73
1, 298675, Note_off_c, 0, 79, 60
1, 298688, Control_c, 0, 64, 127
1, 298781, Note_on_c, 0, 79, 58
1, 298783, Note_on_c, 0, 67, 50
1, 298792, Control_c, 0, 64, 112
1, 298802, Note_off_c, 0, 79, 61
1, 298807, Control_c, 0, 64, 96
1, 298811, Note_off_c, 0, 67, 51
1, 298821, Control_c, 0, 64, 83
1, 298836, Control_c, 0, 64, 69
1, 298851, Control_c, 0, 64, 0
1, 298905, Note_on_c, 0, 79, 57
1, 298911, Note_on_c, 0, 67, 55
1, 298950, Note_off_c, 0, 79, 60
1, 298956, Note_off_c, 0, 67, 63
1, 299055, Note_on_c, 0, 67, 59
1, 299059, Note_on_c, 0, 79, 59
1, 299079, Note_off_c, 0, 79, 62
1, 299079, Note_off_c, 0, 67, 61
1, 299176, Note_on_c, 0, 79, 60
1, 299178, Note_on_c, 0, 67, 60
1, 299211, Note_off_c, 0, 79, 62
1, 299214, Note_off_c, 0, 67, 62
1, 299306, Note_on_c, 0, 67, 64
1, 299311, Note_on_c, 0, 79, 63
1, 299331, Note_off_c, 0, 79, 63
1, 299338, Note_off_c, 0, 67, 63
1, 299427, Note_on_c, 0, 79, 65
1, 299433, Note_on_c, 0, 67, 61
1, 299457, Note_off_c, 0, 79, 63
1, 299465, Note_off_c, 0, 67, 64
1, 299548, Note_on_c, 0, 67, 72
1, 299553, Note_on_c, 0, 79, 73
1, 299587, Note_off_c, 0, 79, 57
1, 299587, Note_off_c, 0, 67, 53
1, 299686, Note_on_c, 0, 79, 72
1, 299688, Note_on_c, 0, 67, 70
1, 299690, Note_on_c, 0, 70, 65
1, 299690, Note_on_c, 0, 73, 63
1, 299719, Note_off_c, 0, 67, 61
1, 299719, Note_off_c, 0, 79, 61
1, 299722, Note_off_c, 0, 70, 63
1, 299723, Note_off_c, 0, 73, 62
1, 299816, Note_on_c, 0, 67, 74
1, 299818, Note_on_c, 0, 70, 70
1, 299818, Note_on_c, 0, 79, 71
1, 299826, Note_on_c, 0, 73, 62
1, 299851, Note_off_c, 0, 79, 59
1, 299851, Note_off_c, 0, 67, 56
1, 299854, Note_off_c, 0, 70, 60
1, 299858, Note_off_c, 0, 73, 63
1, 299942, Note_on_c, 0, 79, 84
1, 299943, Note_on_c, 0, 67, 79
1, 299945, Note_on_c, 0, 70, 75
1, 299945, Note_on_c, 0, 73, 65
1, 299978, Note_off_c, 0, 67, 59
1, 299981, Note_off_c, 0, 70, 57
1, 299984, Note_off_c, 0, 79, 63
1, 299987, Note_off_c, 0, 73, 61
1, 300064, Note_on_c, 0, 79, 92
1, 300065, Note_on_c, 0, 67, 84
1, 300067, Note_on_c, 0, 70, 81
1, 300074, Note_on_c, 0, 73, 67
1, 300114, Note_off_c, 0, 67, 61
1, 300116, Note_off_c, 0, 70, 59
1, 300120, Note_off_c, 0, 73, 60
1, 300122, Note_off_c, 0, 79, 62
1, 300189, Note_on_c, 0, 79, 92
1, 300191, Note_on_c, 0, 67, 92
1, 300191, Note_on_c, 0, 70, 90
1, 300193, Note_on_c, 0, 73, 75
1, 300247, Note_off_c, 0, 67, 58
1, 300248, Note_off_c, 0, 70, 61
1, 300252, Note_off_c, 0, 73, 63
1, 300255, Note_off_c, 0, 79, 63
1, 300315, Note_on_c, 0, 79, 92
1, 300318, Note_on_c, 0, 67, 90
1, 300318, Note_on_c, 0, 70, 82
1, 300324, Note_on_c, 0, 73, 70
1, 300358, Note_off_c, 0, 70, 62
1, 300360, Note_off_c, 0, 73, 58
1, 300363, Note_off_c, 0, 67, 60
1, 300373, Note_off_c, 0, 79, 62
1, 300452, Note_on_c, 0, 79, 85
1, 300457, Note_on_c, 0, 67, 79
1, 300459, Note_on_c, 0, 70, 76
1, 300471, Note_on_c, 0, 73, 60
1, 300475, Control_c, 0, 67, 8
1, 300484, Note_off_c, 0, 67, 62
1, 300486, Note_off_c, 0, 70, 62
1, 300490, Control_c, 0, 67, 19
1, 300495, Note_off_c, 0, 73, 63
1, 300496, Note_off_c, 0, 79, 62
1, 300505, Control_c, 0, 67, 36
1, 300520, Control_c, 0, 67, 57
1, 300534, Control_c, 0, 67, 88
1, 300549, Control_c, 0, 67, 121
1, 300564, Control_c, 0, 67, 127
1, 300575, Note_on_c, 0, 70, 64
1, 300578, Note_on_c, 0, 79, 59
1, 300584, Note_on_c, 0, 67, 56
1, 300590, Note_on_c, 0, 73, 35
1, 300599, Note_off_c, 0, 79, 59
1, 300604, Note_off_c, 0, 70, 52
1, 300608, Note_off_c, 0, 67, 55
1, 300638, Note_off_c, 0, 73, 44
1, 300697, Note_on_c, 0, 79, 76
1, 300708, Note_on_c, 0, 67, 48
1, 300724, Note_on_c, 0, 47, 43
1, 300734, Note_off_c, 0, 67, 54
1, 300739, Note_off_c, 0, 79, 66
1, 300757, Note_off_c, 0, 47, 52
1, 300840, Note_on_c, 0, 47, 59
1, 300851, Note_on_c, 0, 91, 72
1, 300873, Note_on_c, 0, 50, 29
1, 300882, Note_off_c, 0, 47, 62
1, 300911, Note_off_c, 0, 50, 40
1, 300987, Note_on_c, 0, 50, 47
1, 300992, Note_on_c, 0, 47, 26
1, 301014, Note_off_c, 0, 50, 54
1, 301034, Note_off_c, 0, 47, 43
1, 301061, Note_off_c, 0, 91, 52
1, 301101, Note_on_c, 0, 50, 56
1, 301110, Note_on_c, 0, 89, 72
1, 301114, Note_on_c, 0, 47, 51
1, 301123, Note_on_c, 0, 77, 59
1, 301142, Note_off_c, 0, 47, 56
1, 301144, Note_off_c, 0, 50, 61
1, 301167, Note_off_c, 0, 77, 48
1, 301242, Note_on_c, 0, 47, 60
1, 301242, Note_on_c, 0, 50, 68
1, 301276, Note_off_c, 0, 47, 64
1, 301278, Note_off_c, 0, 50, 62
1, 301332, Note_off_c, 0, 89, 54
1, 301376, Note_on_c, 0, 47, 57
1, 301376, Note_on_c, 0, 88, 68
1, 301378, Note_on_c, 0, 50, 59
1, 301382, Note_on_c, 0, 76, 60
1, 301407, Note_off_c, 0, 47, 63
1, 301413, Note_off_c, 0, 50, 64
1, 301422, Note_off_c, 0, 76, 54
1, 301505, Note_on_c, 0, 50, 61
1, 301509, Note_on_c, 0, 47, 51
1, 301538, Note_off_c, 0, 47, 61
1, 301540, Note_off_c, 0, 50, 63
1, 301583, Note_off_c, 0, 88, 57
1, 301625, Note_on_c, 0, 86, 67
1, 301629, Note_on_c, 0, 50, 57
1, 301630, Note_on_c, 0, 47, 52
1, 301636, Note_on_c, 0, 74, 55
1, 301660, Note_off_c, 0, 47, 61
1, 301664, Note_off_c, 0, 50, 64
1, 301669, Note_off_c, 0, 74, 55
1, 301752, Note_on_c, 0, 47, 54
1, 301760, Note_on_c, 0, 50, 54
1, 301786, Note_off_c, 0, 47, 63
1, 301797, Note_off_c, 0, 50, 62
1, 301848, Note_off_c, 0, 86, 57
1, 301882, Note_on_c, 0, 47, 52
1, 301884, Note_on_c, 0, 84, 66
1, 301887, Note_on_c, 0, 50, 54
1, 301896, Note_on_c, 0, 72, 53
1, 301911, Note_off_c, 0, 47, 59
1, 301915, Note_off_c, 0, 50, 61
1, 301938, Note_off_c, 0, 72, 54
1, 302016, Note_on_c, 0, 47, 52
1, 302021, Note_on_c, 0, 50, 49
1, 302048, Note_off_c, 0, 47, 59
1, 302051, Note_off_c, 0, 50, 59
1, 302102, Note_off_c, 0, 84, 60
1, 302141, Note_on_c, 0, 50, 55
1, 302143, Note_on_c, 0, 47, 54
1, 302143, Note_on_c, 0, 83, 66
1, 302149, Note_on_c, 0, 71, 59
1, 302173, Note_off_c, 0, 47, 60
1, 302177, Note_off_c, 0, 50, 64
1, 302191, Note_off_c, 0, 71, 57
1, 302268, Note_on_c, 0, 47, 56
1, 302275, Note_on_c, 0, 50, 51
1, 302301, Note_off_c, 0, 47, 60
1, 302303, Note_off_c, 0, 50, 60
1, 302351, Note_off_c, 0, 83, 56
1, 302382, Note_on_c, 0, 47, 67
1, 302388, Note_on_c, 0, 50, 58
1, 302394, Note_on_c, 0, 81, 67
1, 302402, Note_on_c, 0, 69, 60
1, 302411, Note_off_c, 0, 47, 66
1, 302420, Note_off_c, 0, 50, 65
1, 302449, Note_off_c, 0, 69, 60
1, 302521, Note_on_c, 0, 52, 74
1, 302530, Note_on_c, 0, 49, 56
1, 302550, Control_c, 0, 64, 18
1, 302556, Note_off_c, 0, 49, 56
1, 302561, Note_off_c, 0, 52, 67
1, 302565, Control_c, 0, 64, 19
1, 302580, Note_off_c, 0, 81, 58
1, 302609, Control_c, 0, 64, 21
1, 302624, Control_c, 0, 64, 22
1, 302632, Note_on_c, 0, 79, 59
1, 302633, Note_on_c, 0, 49, 64
1, 302638, Note_on_c, 0, 52, 66
1, 302639, Note_on_c, 0, 67, 55
1, 302654, Note_off_c, 0, 79, 56
1, 302672, Note_off_c, 0, 49, 63
1, 302674, Note_off_c, 0, 52, 67
1, 302677, Note_off_c, 0, 67, 59
1, 302706, Control_c, 0, 64, 21
1, 302720, Control_c, 0, 64, 0
1, 302761, Note_on_c, 0, 50, 66
1, 302763, Note_on_c, 0, 77, 65
1, 302772, Note_on_c, 0, 53, 63
1, 302772, Note_on_c, 0, 65, 66
1, 302781, Note_off_c, 0, 77, 61
1, 302802, Note_off_c, 0, 65, 68
1, 302843, Note_on_c, 0, 62, 73
1, 302882, Note_off_c, 0, 62, 59
1, 302893, Note_on_c, 0, 64, 60
1, 302942, Note_off_c, 0, 64, 62
1, 302951, Note_on_c, 0, 65, 56
1, 302974, Note_off_c, 0, 65, 59
1, 303008, Note_on_c, 0, 67, 77
1, 303060, Note_off_c, 0, 67, 59
1, 303071, Note_on_c, 0, 69, 77
1, 303130, Note_on_c, 0, 71, 62
1, 303141, Note_on_c, 0, 57, 48
1, 303148, Note_off_c, 0, 69, 57
1, 303174, Note_off_c, 0, 53, 60
1, 303186, Note_off_c, 0, 57, 61
1, 303189, Note_on_c, 0, 73, 58
1, 303196, Note_on_c, 0, 55, 67
1, 303198, Note_off_c, 0, 71, 57
1, 303240, Note_on_c, 0, 74, 61
1, 303241, Note_off_c, 0, 55, 63
1, 303247, Note_off_c, 0, 50, 61
1, 303250, Note_on_c, 0, 53, 76
1, 303258, Note_off_c, 0, 73, 61
1, 303282, Note_off_c, 0, 53, 67
1, 303285, Control_c, 0, 64, 43
1, 303300, Control_c, 0, 64, 54
1, 303315, Control_c, 0, 64, 57
1, 303316, Note_on_c, 0, 65, 71
1, 303359, Control_c, 0, 64, 57
1, 303371, Note_off_c, 0, 65, 58
1, 303384, Note_on_c, 0, 67, 71
1, 303389, Control_c, 0, 64, 57
1, 303397, Note_off_c, 0, 74, 35
1, 303425, Control_c, 0, 64, 56
1, 303426, Note_off_c, 0, 67, 65
1, 303440, Control_c, 0, 64, 56
1, 303441, Note_on_c, 0, 69, 63
1, 303455, Control_c, 0, 64, 55
1, 303469, Note_off_c, 0, 69, 66
1, 303470, Control_c, 0, 64, 55
1, 303484, Control_c, 0, 64, 54
1, 303499, Note_on_c, 0, 71, 73
1, 303514, Control_c, 0, 64, 54
1, 303529, Control_c, 0, 64, 53
1, 303544, Control_c, 0, 64, 53
1, 303550, Note_off_c, 0, 71, 55
1, 303559, Note_on_c, 0, 73, 74
1, 303559, Control_c, 0, 64, 52
1, 303574, Control_c, 0, 64, 52
1, 303603, Control_c, 0, 64, 51
1, 303610, Note_on_c, 0, 74, 64
1, 303664, Note_off_c, 0, 73, 62
1, 303677, Control_c, 0, 64, 51
1, 303679, Note_on_c, 0, 76, 64
1, 303732, Note_off_c, 0, 74, 58
1, 303749, Note_on_c, 0, 77, 62
1, 303751, Control_c, 0, 64, 50
1, 303754, Note_off_c, 0, 76, 64
1, 303761, Note_on_c, 0, 69, 92
1, 303766, Control_c, 0, 64, 49
1, 303781, Control_c, 0, 64, 48
1, 303789, Note_off_c, 0, 77, 59
1, 303794, Control_c, 0, 64, 46
1, 303809, Control_c, 0, 64, 45
1, 303815, Note_on_c, 0, 74, 61
1, 303824, Control_c, 0, 64, 44
1, 303855, Control_c, 0, 64, 44
1, 303872, Note_off_c, 0, 74, 61
1, 303883, Note_on_c, 0, 76, 68
1, 303885, Control_c, 0, 64, 44
1, 303929, Control_c, 0, 64, 45
1, 303943, Note_off_c, 0, 76, 64
1, 303943, Note_on_c, 0, 77, 73
1, 303944, Control_c, 0, 64, 45
1, 303973, Control_c, 0, 64, 46
1, 303988, Note_off_c, 0, 77, 60
1, 304022, Note_on_c, 0, 79, 70
1, 304033, Control_c, 0, 64, 45
1, 304068, Note_off_c, 0, 79, 62
1, 304077, Note_on_c, 0, 81, 71
1, 304080, Note_on_c, 0, 67, 52
1, 304099, Note_off_c, 0, 69, 55
1, 304149, Note_on_c, 0, 83, 60
1, 304169, Note_on_c, 0, 65, 57
1, 304176, Note_off_c, 0, 81, 57
1, 304181, Note_off_c, 0, 67, 62
1, 304215, Note_on_c, 0, 64, 59
1, 304224, Note_off_c, 0, 65, 61
1, 304227, Note_on_c, 0, 85, 72
1, 304233, Note_off_c, 0, 83, 62
1, 304278, Note_on_c, 0, 86, 64
1, 304278, Note_off_c, 0, 85, 66
1, 304280, Note_on_c, 0, 62, 65
1, 304280, Note_off_c, 0, 64, 64
1, 304306, Note_off_c, 0, 86, 65
1, 304337, Control_c, 0, 64, 46
1, 304338, Note_off_c, 0, 62, 64
1, 304340, Note_on_c, 0, 85, 68
1, 304402, Note_on_c, 0, 86, 62
1, 304440, Control_c, 0, 64, 46
1, 304441, Note_off_c, 0, 85, 62
1, 304452, Note_on_c, 0, 88, 68
1, 304494, Note_off_c, 0, 86, 59
1, 304517, Note_on_c, 0, 89, 71
1, 304563, Note_on_c, 0, 85, 69
1, 304572, Note_off_c, 0, 88, 55
1, 304617, Note_off_c, 0, 89, 62
1, 304617, Note_on_c, 0, 86, 69
1, 304675, Note_off_c, 0, 85, 61
1, 304680, Note_on_c, 0, 88, 73
1, 304718, Note_off_c, 0, 86, 58
1, 304734, Note_on_c, 0, 89, 75
1, 304737, Control_c, 0, 64, 42
1, 304752, Control_c, 0, 64, 19
1, 304753, Note_on_c, 0, 48, 66
1, 304760, Note_on_c, 0, 45, 49
1, 304763, Note_off_c, 0, 88, 63
1, 304767, Control_c, 0, 64, 0
1, 304778, Note_off_c, 0, 89, 63
1, 304788, Note_off_c, 0, 48, 64
1, 304791, Note_off_c, 0, 45, 62
1, 304880, Note_on_c, 0, 89, 78
1, 304886, Note_on_c, 0, 77, 58
1, 304891, Note_on_c, 0, 45, 46
1, 304921, Note_on_c, 0, 48, 36
1, 304939, Note_off_c, 0, 45, 62
1, 304954, Note_off_c, 0, 48, 54
1, 305011, Note_off_c, 0, 77, 44
1, 305034, Note_on_c, 0, 45, 49
1, 305035, Note_on_c, 0, 48, 56
1, 305062, Note_off_c, 0, 48, 58
1, 305072, Note_off_c, 0, 45, 59
1, 305149, Note_off_c, 0, 89, 58
1, 305160, Note_on_c, 0, 88, 72
1, 305161, Note_on_c, 0, 48, 41
1, 305169, Note_on_c, 0, 45, 47
1, 305176, Note_on_c, 0, 76, 48
1, 305200, Note_off_c, 0, 45, 60
1, 305214, Note_off_c, 0, 48, 47
1, 305280, Note_off_c, 0, 76, 25
1, 305305, Note_on_c, 0, 45, 48
1, 305319, Note_on_c, 0, 48, 46
1, 305336, Note_off_c, 0, 45, 63
1, 305348, Note_off_c, 0, 48, 58
1, 305390, Note_off_c, 0, 88, 58
1, 305428, Note_on_c, 0, 86, 65
1, 305429, Note_on_c, 0, 45, 53
1, 305431, Note_on_c, 0, 48, 59
1, 305461, Note_on_c, 0, 74, 33
1, 305467, Note_off_c, 0, 48, 65
1, 305467, Note_off_c, 0, 45, 62
1, 305498, Note_off_c, 0, 74, 49
1, 305562, Note_on_c, 0, 45, 50
1, 305574, Note_on_c, 0, 48, 39
1, 305599, Note_off_c, 0, 45, 62
1, 305607, Note_off_c, 0, 48, 54
1, 305685, Note_off_c, 0, 86, 61
1, 305705, Note_on_c, 0, 48, 56
1, 305707, Note_on_c, 0, 45, 57
1, 305711, Note_on_c, 0, 84, 64
1, 305735, Note_on_c, 0, 72, 45
1, 305744, Note_off_c, 0, 45, 65
1, 305744, Note_off_c, 0, 48, 63
1, 305798, Note_off_c, 0, 72, 35
1, 305845, Note_on_c, 0, 48, 48
1, 305846, Note_on_c, 0, 45, 44
1, 305874, Note_off_c, 0, 48, 59
1, 305875, Note_off_c, 0, 45, 55
1, 305952, Note_off_c, 0, 84, 63
1, 305968, Note_on_c, 0, 48, 55
1, 305971, Note_on_c, 0, 45, 44
1, 305985, Note_on_c, 0, 83, 58
1, 305998, Note_on_c, 0, 71, 47
1, 306000, Note_off_c, 0, 45, 58
1, 306005, Note_off_c, 0, 48, 64
1, 306037, Note_off_c, 0, 71, 48
1, 306108, Note_on_c, 0, 48, 51
1, 306111, Note_on_c, 0, 45, 39
1, 306141, Note_off_c, 0, 45, 53
1, 306142, Note_off_c, 0, 48, 64
1, 306221, Note_off_c, 0, 83, 55
1, 306239, Note_on_c, 0, 48, 56
1, 306244, Note_on_c, 0, 45, 45
1, 306248, Note_on_c, 0, 81, 63
1, 306270, Note_on_c, 0, 69, 44
1, 306274, Note_off_c, 0, 45, 59
1, 306274, Note_off_c, 0, 48, 66
1, 306301, Note_off_c, 0, 69, 54
1, 306370, Note_on_c, 0, 45, 53
1, 306376, Note_on_c, 0, 48, 46
1, 306403, Note_off_c, 0, 48, 61
1, 306406, Note_off_c, 0, 45, 64
1, 306465, Note_off_c, 0, 81, 57
1, 306490, Note_on_c, 0, 45, 67
1, 306493, Note_on_c, 0, 48, 60
1, 306518, Note_on_c, 0, 79, 59
1, 306519, Note_off_c, 0, 45, 65
1, 306525, Note_off_c, 0, 48, 65
1, 306542, Note_on_c, 0, 67, 44
1, 306576, Note_off_c, 0, 67, 54
1, 306581, Note_off_c, 0, 79, 0
1, 306581, Note_on_c, 0, 79, 31
1, 306629, Note_on_c, 0, 50, 67
1, 306637, Note_on_c, 0, 47, 52
1, 306662, Note_off_c, 0, 50, 63
1, 306667, Note_off_c, 0, 47, 58
1, 306688, Note_off_c, 0, 79, 60
1, 306735, Note_on_c, 0, 50, 67
1, 306736, Note_on_c, 0, 47, 65
1, 306743, Note_on_c, 0, 77, 68
1, 306763, Note_off_c, 0, 50, 65
1, 306766, Note_off_c, 0, 47, 65
1, 306770, Note_on_c, 0, 65, 39
1, 306770, Note_off_c, 0, 77, 62
1, 306799, Note_off_c, 0, 65, 50
1, 306871, Note_on_c, 0, 52, 71
1, 306874, Note_on_c, 0, 48, 61
1, 306888, Note_on_c, 0, 64, 59
1, 306912, Note_off_c, 0, 64, 56
1, 306950, Note_on_c, 0, 64, 59
1, 307009, Note_off_c, 0, 64, 59
1, 307026, Note_on_c, 0, 65, 57
1, 307057, Note_on_c, 0, 67, 63
1, 307062, Note_off_c, 0, 65, 67
1, 307082, Note_off_c, 0, 67, 65
1, 307127, Note_on_c, 0, 69, 71
1, 307179, Note_off_c, 0, 69, 65
1, 307195, Note_on_c, 0, 71, 65
1, 307249, Note_on_c, 0, 55, 54
1, 307255, Note_on_c, 0, 72, 62
1, 307267, Note_off_c, 0, 71, 54
1, 307295, Note_off_c, 0, 55, 61
1, 307303, Note_on_c, 0, 74, 58
1, 307305, Note_off_c, 0, 52, 47
1, 307319, Note_on_c, 0, 53, 59
1, 307324, Note_off_c, 0, 72, 58
1, 307374, Note_on_c, 0, 76, 59
1, 307380, Note_off_c, 0, 74, 56
1, 307381, Note_off_c, 0, 53, 63
1, 307382, Note_on_c, 0, 52, 79
1, 307389, Note_off_c, 0, 48, 59
1, 307420, Note_off_c, 0, 52, 68
1, 307426, Note_on_c, 0, 69, 71
1, 307491, Note_off_c, 0, 69, 61
1, 307500, Note_on_c, 0, 71, 67
1, 307506, Note_off_c, 0, 76, 29
1, 307548, Note_off_c, 0, 71, 62
1, 307551, Note_on_c, 0, 72, 67
1, 307581, Note_off_c, 0, 72, 64
1, 307599, Control_c, 0, 64, 32
1, 307614, Control_c, 0, 64, 54
1, 307618, Note_on_c, 0, 74, 74
1, 307629, Control_c, 0, 64, 61
1, 307643, Control_c, 0, 64, 63
1, 307658, Control_c, 0, 64, 65
1, 307667, Note_off_c, 0, 74, 63
1, 307673, Control_c, 0, 64, 67
1, 307679, Note_on_c, 0, 76, 69
1, 307688, Control_c, 0, 64, 70
1, 307703, Control_c, 0, 64, 74
1, 307717, Control_c, 0, 64, 77
1, 307732, Note_on_c, 0, 78, 69
1, 307732, Control_c, 0, 64, 80
1, 307747, Control_c, 0, 64, 80
1, 307749, Note_off_c, 0, 76, 52
1, 307762, Control_c, 0, 64, 81
1, 307766, Note_on_c, 0, 48, 75
1, 307777, Control_c, 0, 64, 82
1, 307792, Control_c, 0, 64, 82
1, 307795, Note_off_c, 0, 48, 66
1, 307803, Note_on_c, 0, 80, 69
1, 307807, Control_c, 0, 64, 83
1, 307822, Control_c, 0, 64, 84
1, 307829, Note_off_c, 0, 78, 58
1, 307879, Note_off_c, 0, 80, 56
1, 307884, Note_on_c, 0, 81, 60
1, 307894, Note_on_c, 0, 64, 94
1, 307930, Note_off_c, 0, 81, 56
1, 307934, Control_c, 0, 64, 83
1, 307948, Control_c, 0, 64, 81
1, 307962, Note_on_c, 0, 76, 70
1, 307963, Control_c, 0, 64, 73
1, 307978, Control_c, 0, 64, 55
1, 307993, Control_c, 0, 64, 0
1, 308033, Note_off_c, 0, 76, 64
1, 308037, Note_on_c, 0, 78, 71
1, 308098, Note_off_c, 0, 78, 62
1, 308102, Note_on_c, 0, 80, 69
1, 308141, Control_c, 0, 64, 50
1, 308144, Note_off_c, 0, 80, 64
1, 308156, Control_c, 0, 64, 63
1, 308165, Note_on_c, 0, 81, 78
1, 308170, Control_c, 0, 64, 65
1, 308185, Control_c, 0, 64, 65
1, 308206, Note_off_c, 0, 64, 59
1, 308208, Note_on_c, 0, 62, 58
1, 308215, Control_c, 0, 64, 66
1, 308225, Note_off_c, 0, 81, 61
1, 308230, Control_c, 0, 64, 66
1, 308233, Note_on_c, 0, 83, 68
1, 308245, Control_c, 0, 64, 67
1, 308274, Control_c, 0, 64, 66
1, 308286, Note_off_c, 0, 62, 57
1, 308288, Control_c, 0, 64, 66
1, 308297, Note_on_c, 0, 60, 57
1, 308297, Note_on_c, 0, 84, 66
1, 308299, Note_off_c, 0, 83, 58
1, 308303, Control_c, 0, 64, 64
1, 308318, Control_c, 0, 64, 60
1, 308329, Note_on_c, 0, 59, 61
1, 308332, Control_c, 0, 64, 30
1, 308343, Note_off_c, 0, 60, 54
1, 308347, Control_c, 0, 64, 0
1, 308358, Note_on_c, 0, 86, 61
1, 308385, Note_off_c, 0, 84, 60
1, 308397, Note_off_c, 0, 59, 62
1, 308406, Note_off_c, 0, 86, 64
1, 308414, Note_on_c, 0, 57, 67
1, 308418, Note_on_c, 0, 88, 65
1, 308468, Note_on_c, 0, 86, 50
1, 308510, Control_c, 0, 64, 22
1, 308525, Control_c, 0, 64, 62
1, 308540, Control_c, 0, 64, 65
1, 308542, Note_off_c, 0, 88, 52
1, 308543, Note_on_c, 0, 84, 57
1, 308555, Control_c, 0, 64, 66
1, 308570, Control_c, 0, 64, 66
1, 308572, Note_off_c, 0, 57, 61
1, 308576, Note_off_c, 0, 86, 62
1, 308584, Control_c, 0, 64, 67
1, 308588, Note_on_c, 0, 83, 70
1, 308599, Control_c, 0, 64, 68
1, 308614, Control_c, 0, 64, 69
1, 308629, Control_c, 0, 64, 70
1, 308644, Note_off_c, 0, 83, 61
1, 308662, Note_on_c, 0, 81, 71
1, 308682, Control_c, 0, 64, 68
1, 308689, Note_off_c, 0, 84, 28
1, 308696, Control_c, 0, 64, 61
1, 308711, Control_c, 0, 64, 0
1, 308717, Note_on_c, 0, 83, 64
1, 308728, Note_off_c, 0, 81, 56
1, 308787, Note_on_c, 0, 84, 71
1, 308787, Note_off_c, 0, 83, 60
1, 308800, Control_c, 0, 64, 40
1, 308814, Control_c, 0, 64, 66
1, 308817, Note_off_c, 0, 84, 64
1, 308829, Control_c, 0, 64, 71
1, 308840, Note_on_c, 0, 81, 71
1, 308844, Control_c, 0, 64, 74
1, 308856, Note_off_c, 0, 81, 66
1, 308859, Control_c, 0, 64, 76
1, 308874, Control_c, 0, 64, 76
1, 308889, Control_c, 0, 64, 77
1, 308919, Control_c, 0, 64, 76
1, 308931, Note_on_c, 0, 53, 81
1, 308934, Control_c, 0, 64, 74
1, 308944, Note_on_c, 0, 50, 59
1, 308948, Control_c, 0, 64, 69
1, 308963, Control_c, 0, 64, 35
1, 308978, Control_c, 0, 64, 0
1, 309011, Note_on_c, 0, 65, 74
1, 309056, Note_off_c, 0, 65, 63
1, 309067, Note_on_c, 0, 67, 65
1, 309115, Note_off_c, 0, 67, 62
1, 309122, Note_on_c, 0, 69, 73
1, 309153, Note_off_c, 0, 69, 60
1, 309195, Note_on_c, 0, 71, 70
1, 309246, Note_off_c, 0, 71, 61
1, 309252, Note_on_c, 0, 72, 71
1, 309299, Note_on_c, 0, 57, 57
1, 309303, Control_c, 0, 64, 47
1, 309309, Note_on_c, 0, 74, 58
1, 309318, Control_c, 0, 64, 61
1, 309333, Control_c, 0, 64, 63
1, 309336, Note_off_c, 0, 72, 53
1, 309345, Note_off_c, 0, 53, 61
1, 309362, Note_off_c, 0, 57, 59
1, 309366, Note_on_c, 0, 76, 67
1, 309373, Note_on_c, 0, 55, 62
1, 309378, Control_c, 0, 64, 62
1, 309393, Control_c, 0, 64, 54
1, 309396, Note_off_c, 0, 74, 61
1, 309414, Control_c, 0, 64, 0
1, 309427, Note_on_c, 0, 53, 86
1, 309431, Note_off_c, 0, 50, 62
1, 309431, Note_off_c, 0, 55, 66
1, 309435, Note_on_c, 0, 77, 66
1, 309435, Note_off_c, 0, 76, 66
1, 309466, Note_off_c, 0, 53, 69
1, 309487, Note_on_c, 0, 71, 69
1, 309505, Control_c, 0, 64, 48
1, 309518, Note_off_c, 0, 77, 50
1, 309519, Control_c, 0, 64, 64
1, 309534, Control_c, 0, 64, 67
1, 309548, Note_off_c, 0, 71, 53
1, 309549, Control_c, 0, 64, 68
1, 309554, Note_on_c, 0, 72, 75
1, 309579, Control_c, 0, 64, 68
1, 309595, Note_off_c, 0, 72, 64
1, 309601, Note_on_c, 0, 74, 71
1, 309637, Note_off_c, 0, 74, 55
1, 309637, Control_c, 0, 64, 66
1, 309652, Control_c, 0, 64, 55
1, 309667, Control_c, 0, 64, 0
1, 309669, Note_on_c, 0, 76, 79
1, 309726, Note_on_c, 0, 77, 78
1, 309727, Note_off_c, 0, 76, 66
1, 309756, Control_c, 0, 64, 64
1, 309771, Control_c, 0, 64, 70
1, 309785, Note_on_c, 0, 79, 64
1, 309786, Control_c, 0, 64, 73
1, 309801, Control_c, 0, 64, 76
1, 309804, Note_on_c, 0, 50, 69
1, 309816, Control_c, 0, 64, 78
1, 309819, Note_off_c, 0, 77, 58
1, 309831, Note_off_c, 0, 50, 65
1, 309831, Note_on_c, 0, 81, 69
1, 309831, Control_c, 0, 64, 80
1, 309846, Control_c, 0, 64, 81
1, 309861, Control_c, 0, 64, 82
1, 309875, Control_c, 0, 64, 83
1, 309878, Note_off_c, 0, 79, 57
1, 309890, Control_c, 0, 64, 84
1, 309895, Note_off_c, 0, 81, 61
1, 309910, Note_on_c, 0, 83, 60
1, 309914, Note_on_c, 0, 65, 96
1, 309935, Control_c, 0, 64, 84
1, 309950, Control_c, 0, 64, 80
1, 309962, Note_on_c, 0, 77, 70
1, 309965, Control_c, 0, 64, 71
1, 309970, Note_off_c, 0, 83, 48
1, 309979, Control_c, 0, 64, 16
1, 309994, Control_c, 0, 64, 0
1, 310028, Note_off_c, 0, 77, 61
1, 310031, Note_on_c, 0, 79, 73
1, 310053, Control_c, 0, 64, 63
1, 310068, Control_c, 0, 64, 67
1, 310083, Control_c, 0, 64, 68
1, 310089, Note_off_c, 0, 79, 61
1, 310098, Control_c, 0, 64, 69
1, 310099, Note_on_c, 0, 81, 71
1, 310112, Control_c, 0, 64, 70
1, 310127, Control_c, 0, 64, 71
1, 310131, Note_off_c, 0, 81, 57
1, 310142, Control_c, 0, 64, 73
1, 310164, Control_c, 0, 64, 73
1, 310179, Note_on_c, 0, 83, 78
1, 310213, Note_off_c, 0, 65, 60
1, 310221, Note_on_c, 0, 64, 61
1, 310236, Note_off_c, 0, 83, 60
1, 310239, Control_c, 0, 64, 73
1, 310245, Note_on_c, 0, 84, 71
1, 310254, Control_c, 0, 64, 72
1, 310269, Control_c, 0, 64, 70
1, 310284, Control_c, 0, 64, 69
1, 310287, Note_off_c, 0, 64, 62
1, 310299, Control_c, 0, 64, 67
1, 310304, Note_on_c, 0, 86, 67
1, 310305, Note_off_c, 0, 84, 63
1, 310307, Note_on_c, 0, 62, 47
1, 310314, Control_c, 0, 64, 60
1, 310329, Control_c, 0, 64, 0
1, 310342, Note_off_c, 0, 62, 53
1, 310343, Note_on_c, 0, 60, 58
1, 310357, Note_on_c, 0, 88, 70
1, 310385, Note_off_c, 0, 86, 61
1, 310406, Note_off_c, 0, 60, 62
1, 310409, Note_off_c, 0, 88, 62
1, 310421, Note_on_c, 0, 89, 72
1, 310427, Note_on_c, 0, 59, 64
1, 310473, Note_on_c, 0, 88, 52
1, 310537, Note_on_c, 0, 86, 67
1, 310546, Note_off_c, 0, 89, 59
1, 310550, Control_c, 0, 64, 67
1, 310556, Note_off_c, 0, 59, 63
1, 310565, Control_c, 0, 64, 72
1, 310579, Control_c, 0, 64, 75
1, 310585, Note_off_c, 0, 88, 62
1, 310588, Note_on_c, 0, 84, 79
1, 310594, Control_c, 0, 64, 77
1, 310609, Control_c, 0, 64, 79
1, 310624, Control_c, 0, 64, 82
1, 310639, Control_c, 0, 64, 85
1, 310648, Note_off_c, 0, 84, 66
1, 310654, Control_c, 0, 64, 86
1, 310656, Note_on_c, 0, 83, 73
1, 310668, Control_c, 0, 64, 87
1, 310671, Note_off_c, 0, 86, 40
1, 310683, Control_c, 0, 64, 87
1, 310716, Note_on_c, 0, 84, 71
1, 310728, Note_off_c, 0, 83, 56
1, 310728, Control_c, 0, 64, 87
1, 310743, Control_c, 0, 64, 85
1, 310758, Control_c, 0, 64, 78
1, 310766, Note_on_c, 0, 86, 74
1, 310772, Note_off_c, 0, 84, 64
1, 310773, Control_c, 0, 64, 65
1, 310787, Control_c, 0, 64, 0
1, 310803, Note_on_c, 0, 52, 78
1, 310813, Note_off_c, 0, 86, 61
1, 310819, Note_on_c, 0, 83, 74
1, 310841, Note_off_c, 0, 52, 67
1, 310853, Note_off_c, 0, 83, 54
1, 310891, Control_c, 0, 64, 62
1, 310913, Note_on_c, 0, 67, 96
1, 310913, Control_c, 0, 64, 67
1, 310928, Control_c, 0, 64, 71
1, 310943, Control_c, 0, 64, 73
1, 310958, Control_c, 0, 64, 75
1, 310972, Control_c, 0, 64, 76
1, 310981, Note_on_c, 0, 79, 80
1, 310987, Control_c, 0, 64, 77
1, 311017, Control_c, 0, 64, 77
1, 311032, Control_c, 0, 64, 78
1, 311045, Note_off_c, 0, 79, 60
1, 311048, Note_on_c, 0, 81, 77
1, 311092, Control_c, 0, 64, 78
1, 311102, Note_off_c, 0, 81, 63
1, 311103, Note_on_c, 0, 83, 74
1, 311136, Note_off_c, 0, 83, 54
1, 311181, Note_on_c, 0, 84, 79
1, 311189, Note_off_c, 0, 67, 51
1, 311212, Note_on_c, 0, 65, 56
1, 311239, Note_off_c, 0, 84, 64
1, 311241, Note_on_c, 0, 86, 79
1, 311282, Note_on_c, 0, 64, 62
1, 311288, Note_off_c, 0, 65, 64
1, 311299, Control_c, 0, 64, 77
1, 311300, Note_on_c, 0, 88, 70
1, 311309, Note_off_c, 0, 86, 61
1, 311314, Control_c, 0, 64, 75
1, 311329, Control_c, 0, 64, 70
1, 311332, Note_on_c, 0, 62, 60
1, 311344, Control_c, 0, 64, 39
1, 311345, Note_off_c, 0, 64, 62
1, 311354, Note_on_c, 0, 89, 74
1, 311358, Control_c, 0, 64, 0
1, 311388, Note_off_c, 0, 88, 60
1, 311401, Note_off_c, 0, 62, 59
1, 311410, Note_on_c, 0, 61, 81
1, 311410, Note_off_c, 0, 89, 65
1, 311419, Note_on_c, 0, 91, 75
1, 311476, Control_c, 0, 64, 66
1, 311477, Note_on_c, 0, 89, 56
1, 311491, Control_c, 0, 64, 74
1, 311506, Control_c, 0, 64, 79
1, 311521, Control_c, 0, 64, 79
1, 311525, Note_off_c, 0, 61, 61
1, 311532, Note_on_c, 0, 88, 73
1, 311536, Control_c, 0, 64, 81
1, 311541, Note_off_c, 0, 91, 56
1, 311551, Control_c, 0, 64, 83
1, 311566, Control_c, 0, 64, 87
1, 311572, Note_off_c, 0, 89, 64
1, 311581, Control_c, 0, 64, 92
1, 311595, Note_on_c, 0, 86, 81
1, 311595, Control_c, 0, 64, 95
1, 311598, Note_off_c, 0, 88, 63
1, 311610, Control_c, 0, 64, 96
1, 311625, Control_c, 0, 64, 97
1, 311676, Note_off_c, 0, 86, 61
1, 311682, Note_on_c, 0, 85, 71
1, 311736, Note_on_c, 0, 86, 52
1, 311737, Note_off_c, 0, 85, 64
1, 311747, Note_on_c, 0, 88, 62
1, 311751, Control_c, 0, 64, 95
1, 311765, Control_c, 0, 64, 89
1, 311766, Note_off_c, 0, 88, 64
1, 311780, Control_c, 0, 64, 77
1, 311795, Control_c, 0, 64, 57
1, 311805, Note_on_c, 0, 53, 67
1, 311810, Control_c, 0, 64, 0
1, 311821, Note_on_c, 0, 85, 79
1, 311828, Note_off_c, 0, 86, 64
1, 311849, Note_off_c, 0, 85, 66
1, 311853, Note_off_c, 0, 53, 67
1, 311870, Control_c, 0, 64, 63
1, 311885, Control_c, 0, 64, 69
1, 311900, Control_c, 0, 64, 71
1, 311908, Note_on_c, 0, 69, 93
1, 311914, Control_c, 0, 64, 69
1, 311929, Control_c, 0, 64, 63
1, 311944, Control_c, 0, 64, 0
1, 311967, Note_off_c, 0, 69, 67
1, 311974, Control_c, 0, 64, 62
1, 311985, Note_on_c, 0, 73, 79
1, 311989, Control_c, 0, 64, 73
1, 312004, Control_c, 0, 64, 84
1, 312019, Control_c, 0, 64, 93
1, 312026, Note_off_c, 0, 73, 59
1, 312032, Control_c, 0, 64, 96
1, 312047, Control_c, 0, 64, 97
1, 312059, Note_on_c, 0, 74, 73
1, 312062, Control_c, 0, 64, 98
1, 312114, Note_off_c, 0, 74, 63
1, 312123, Note_on_c, 0, 76, 75
1, 312150, Note_on_c, 0, 67, 76
1, 312151, Control_c, 0, 64, 97
1, 312158, Note_on_c, 0, 77, 74
1, 312166, Control_c, 0, 64, 89
1, 312180, Control_c, 0, 64, 77
1, 312188, Note_off_c, 0, 76, 64
1, 312192, Note_on_c, 0, 79, 69
1, 312195, Control_c, 0, 64, 53
1, 312197, Note_off_c, 0, 67, 60
1, 312209, Note_on_c, 0, 65, 63
1, 312210, Control_c, 0, 64, 0
1, 312219, Note_off_c, 0, 77, 56
1, 312230, Note_off_c, 0, 65, 61
1, 312240, Note_on_c, 0, 81, 55
1, 312260, Note_off_c, 0, 79, 47
1, 312261, Note_on_c, 0, 64, 61
1, 312280, Note_off_c, 0, 64, 65
1, 312296, Note_off_c, 0, 81, 57
1, 312296, Note_on_c, 0, 77, 65
1, 312325, Note_on_c, 0, 62, 65
1, 312338, Note_off_c, 0, 77, 56
1, 312365, Note_off_c, 0, 62, 59
1, 312373, Note_on_c, 0, 55, 84
1, 312418, Note_on_c, 0, 71, 81
1, 312419, Note_off_c, 0, 55, 68
1, 312439, Control_c, 0, 64, 71
1, 312454, Control_c, 0, 64, 86
1, 312469, Control_c, 0, 64, 92
1, 312471, Note_off_c, 0, 71, 58
1, 312499, Control_c, 0, 64, 93
1, 312501, Note_on_c, 0, 75, 68
1, 312514, Control_c, 0, 64, 94
1, 312528, Control_c, 0, 64, 95
1, 312531, Note_off_c, 0, 75, 67
1, 312543, Control_c, 0, 64, 97
1, 312558, Control_c, 0, 64, 98
1, 312559, Note_on_c, 0, 76, 78
1, 312573, Control_c, 0, 64, 98
1, 312614, Note_on_c, 0, 77, 81
1, 312615, Note_off_c, 0, 76, 65
1, 312644, Note_on_c, 0, 79, 71
1, 312648, Note_on_c, 0, 69, 79
1, 312648, Control_c, 0, 64, 95
1, 312663, Control_c, 0, 64, 86
1, 312678, Control_c, 0, 64, 71
1, 312682, Note_off_c, 0, 69, 64
1, 312686, Note_on_c, 0, 81, 75
1, 312690, Note_on_c, 0, 67, 62
1, 312690, Note_off_c, 0, 77, 59
1, 312692, Control_c, 0, 64, 0
1, 312710, Note_off_c, 0, 67, 62
1, 312711, Note_off_c, 0, 79, 62
1, 312728, Note_on_c, 0, 83, 64
1, 312735, Note_on_c, 0, 65, 68
1, 312766, Note_off_c, 0, 65, 62
1, 312785, Note_off_c, 0, 81, 39
1, 312792, Note_off_c, 0, 83, 61
1, 312796, Note_on_c, 0, 79, 74
1, 312804, Note_on_c, 0, 64, 68
1, 312836, Note_off_c, 0, 79, 59
1, 312845, Note_off_c, 0, 64, 58
1, 312862, Note_on_c, 0, 57, 79
1, 312903, Note_on_c, 0, 72, 83
1, 312913, Note_off_c, 0, 57, 64
1, 312930, Control_c, 0, 64, 85
1, 312945, Control_c, 0, 64, 101
1, 312960, Control_c, 0, 64, 105
1, 312961, Note_off_c, 0, 72, 64
1, 312969, Note_on_c, 0, 76, 73
1, 312974, Control_c, 0, 64, 106
1, 312989, Control_c, 0, 64, 107
1, 313004, Control_c, 0, 64, 109
1, 313010, Note_on_c, 0, 77, 65
1, 313011, Note_off_c, 0, 76, 67
1, 313019, Control_c, 0, 64, 114
1, 313034, Control_c, 0, 64, 116
1, 313039, Note_off_c, 0, 77, 60
1, 313048, Control_c, 0, 64, 117
1, 313076, Note_on_c, 0, 79, 78
1, 313108, Control_c, 0, 64, 116
1, 313122, Control_c, 0, 64, 108
1, 313132, Note_on_c, 0, 81, 84
1, 313132, Note_off_c, 0, 79, 60
1, 313134, Note_on_c, 0, 71, 71
1, 313137, Control_c, 0, 64, 96
1, 313160, Control_c, 0, 64, 83
1, 313167, Note_off_c, 0, 71, 66
1, 313175, Control_c, 0, 64, 67
1, 313183, Note_on_c, 0, 69, 58
1, 313189, Control_c, 0, 64, 0
1, 313193, Note_on_c, 0, 83, 68
1, 313202, Note_off_c, 0, 69, 63
1, 313217, Note_off_c, 0, 81, 54
1, 313224, Note_on_c, 0, 84, 74
1, 313231, Note_on_c, 0, 67, 66
1, 313259, Note_off_c, 0, 67, 63
1, 313264, Note_off_c, 0, 83, 49
1, 313285, Note_on_c, 0, 65, 68
1, 313289, Note_on_c, 0, 81, 75
1, 313292, Note_off_c, 0, 84, 65
1, 313327, Note_off_c, 0, 65, 65
1, 313341, Note_off_c, 0, 81, 59
1, 313353, Note_on_c, 0, 59, 82
1, 313396, Control_c, 0, 64, 46
1, 313397, Note_off_c, 0, 59, 66
1, 313402, Note_on_c, 0, 74, 84
1, 313411, Control_c, 0, 64, 94
1, 313427, Control_c, 0, 64, 115
1, 313442, Control_c, 0, 64, 120
1, 313446, Note_off_c, 0, 74, 65
1, 313457, Control_c, 0, 64, 123
1, 313472, Control_c, 0, 64, 127
1, 313472, Control_c, 0, 67, 114
1, 313486, Control_c, 0, 64, 127
1, 313486, Control_c, 0, 67, 44
1, 313488, Note_on_c, 0, 78, 80
1, 313501, Control_c, 0, 67, 0
1, 313534, Note_off_c, 0, 78, 60
1, 313551, Note_on_c, 0, 79, 80
1, 313611, Note_on_c, 0, 81, 85
1, 313611, Note_off_c, 0, 79, 60
1, 313625, Note_on_c, 0, 72, 74
1, 313646, Note_on_c, 0, 83, 68
1, 313655, Note_off_c, 0, 72, 64
1, 313664, Control_c, 0, 64, 106
1, 313678, Control_c, 0, 64, 87
1, 313680, Note_on_c, 0, 71, 54
1, 313682, Note_off_c, 0, 81, 61
1, 313682, Note_on_c, 0, 84, 78
1, 313693, Control_c, 0, 64, 63
1, 313703, Note_off_c, 0, 71, 53
1, 313708, Control_c, 0, 64, 0
1, 313712, Note_off_c, 0, 83, 61
1, 313727, Note_on_c, 0, 69, 62
1, 313727, Note_on_c, 0, 86, 70
1, 313745, Note_off_c, 0, 69, 67
1, 313756, Note_off_c, 0, 84, 54
1, 313782, Note_on_c, 0, 67, 73
1, 313788, Note_off_c, 0, 86, 63
1, 313792, Note_on_c, 0, 83, 78
1, 313820, Note_off_c, 0, 67, 63
1, 313832, Note_off_c, 0, 83, 58
1, 313846, Note_on_c, 0, 60, 80
1, 313890, Note_off_c, 0, 60, 65
1, 313908, Control_c, 0, 64, 87
1, 313913, Note_on_c, 0, 76, 92
1, 313923, Control_c, 0, 64, 112
1, 313938, Control_c, 0, 64, 123
1, 313952, Control_c, 0, 64, 125
1, 313959, Note_off_c, 0, 76, 66
1, 313967, Control_c, 0, 64, 126
1, 313982, Control_c, 0, 64, 127
1, 314001, Note_on_c, 0, 80, 72
1, 314035, Note_off_c, 0, 80, 63
1, 314058, Note_on_c, 0, 81, 83
1, 314123, Note_on_c, 0, 83, 77
1, 314126, Note_off_c, 0, 81, 56
1, 314132, Note_on_c, 0, 74, 71
1, 314150, Note_on_c, 0, 84, 80
1, 314157, Note_off_c, 0, 74, 69
1, 314165, Note_on_c, 0, 72, 69
1, 314190, Note_off_c, 0, 72, 71
1, 314195, Note_on_c, 0, 86, 78
1, 314199, Note_off_c, 0, 83, 57
1, 314220, Note_off_c, 0, 84, 64
1, 314229, Note_on_c, 0, 88, 75
1, 314249, Control_c, 0, 64, 125
1, 314264, Control_c, 0, 64, 90
1, 314278, Control_c, 0, 64, 53
1, 314284, Note_on_c, 0, 69, 81
1, 314293, Control_c, 0, 64, 0
1, 314299, Note_off_c, 0, 86, 38
1, 314302, Note_off_c, 0, 88, 64
1, 314309, Note_on_c, 0, 84, 73
1, 314318, Note_off_c, 0, 69, 65
1, 314341, Note_off_c, 0, 84, 61
1, 314355, Note_on_c, 0, 62, 82
1, 314402, Note_off_c, 0, 62, 65
1, 314412, Control_c, 0, 64, 82
1, 314412, Note_on_c, 0, 77, 93
1, 314426, Control_c, 0, 64, 108
1, 314441, Control_c, 0, 64, 127
1, 314460, Note_off_c, 0, 77, 60
1, 314495, Note_on_c, 0, 82, 78
1, 314534, Note_off_c, 0, 82, 61
1, 314559, Note_on_c, 0, 83, 78
1, 314619, Note_on_c, 0, 84, 82
1, 314622, Note_off_c, 0, 83, 59
1, 314654, Note_on_c, 0, 76, 76
1, 314659, Note_on_c, 0, 86, 76
1, 314684, Note_off_c, 0, 76, 66
1, 314694, Note_on_c, 0, 74, 67
1, 314696, Note_on_c, 0, 88, 78
1, 314701, Note_off_c, 0, 84, 64
1, 314719, Note_off_c, 0, 74, 70
1, 314731, Note_off_c, 0, 86, 64
1, 314737, Note_on_c, 0, 89, 82
1, 314748, Note_on_c, 0, 72, 65
1, 314778, Note_off_c, 0, 72, 63
1, 314816, Note_off_c, 0, 89, 66
1, 314818, Note_on_c, 0, 86, 72
1, 314818, Note_on_c, 0, 71, 70
1, 314818, Note_off_c, 0, 88, 61
1, 314833, Control_c, 0, 64, 93
1, 314839, Note_off_c, 0, 86, 69
1, 314846, Note_off_c, 0, 71, 62
1, 314848, Control_c, 0, 64, 0
1, 314891, Note_on_c, 0, 64, 73
1, 314937, Control_c, 0, 64, 68
1, 314952, Control_c, 0, 64, 81
1, 314964, Note_on_c, 0, 72, 59
1, 314967, Control_c, 0, 64, 91
1, 314982, Control_c, 0, 64, 97
1, 314994, Note_on_c, 0, 71, 28
1, 314997, Control_c, 0, 64, 100
1, 315011, Note_off_c, 0, 72, 62
1, 315012, Control_c, 0, 64, 105
1, 315015, Note_off_c, 0, 64, 61
1, 315020, Note_on_c, 0, 79, 71
1, 315021, Note_on_c, 0, 76, 73
1, 315027, Control_c, 0, 64, 112
1, 315028, Note_off_c, 0, 71, 32
1, 315042, Control_c, 0, 64, 118
1, 315056, Control_c, 0, 64, 121
1, 315071, Control_c, 0, 64, 125
1, 315081, Note_on_c, 0, 84, 70
1, 315081, Note_off_c, 0, 76, 59
1, 315086, Control_c, 0, 64, 127
1, 315101, Control_c, 0, 64, 127
1, 315133, Note_on_c, 0, 91, 89
1, 315155, Note_off_c, 0, 84, 64
1, 315176, Note_off_c, 0, 79, 57
1, 315182, Note_on_c, 0, 64, 70
1, 315193, Note_off_c, 0, 91, 61
1, 315244, Note_on_c, 0, 72, 73
1, 315272, Note_off_c, 0, 64, 60
1, 315285, Note_off_c, 0, 72, 62
1, 315288, Note_on_c, 0, 76, 79
1, 315298, Note_on_c, 0, 79, 78
1, 315344, Note_on_c, 0, 84, 69
1, 315347, Note_off_c, 0, 76, 64
1, 315374, Note_off_c, 0, 79, 62
1, 315387, Note_on_c, 0, 91, 87
1, 315423, Note_off_c, 0, 84, 65
1, 315432, Note_on_c, 0, 64, 77
1, 315453, Note_off_c, 0, 91, 59
1, 315499, Note_on_c, 0, 72, 75
1, 315524, Note_off_c, 0, 64, 59
1, 315544, Note_on_c, 0, 76, 79
1, 315551, Note_on_c, 0, 80, 78
1, 315552, Note_off_c, 0, 72, 62
1, 315607, Note_on_c, 0, 84, 60
1, 315622, Note_off_c, 0, 76, 61
1, 315627, Note_off_c, 0, 80, 63
1, 315652, Note_on_c, 0, 92, 82
1, 315664, Note_on_c, 0, 64, 74
1, 315667, Note_off_c, 0, 84, 64
1, 315727, Note_on_c, 0, 72, 69
1, 315738, Note_off_c, 0, 64, 63
1, 315781, Note_on_c, 0, 76, 76
1, 315781, Note_on_c, 0, 80, 86
1, 315785, Note_off_c, 0, 72, 64
1, 315798, Note_on_c, 0, 84, 47
1, 315807, Note_off_c, 0, 92, 24
1, 315866, Note_off_c, 0, 76, 64
1, 315867, Note_off_c, 0, 84, 35
1, 315868, Note_off_c, 0, 80, 63
1, 315879, Control_c, 0, 64, 103
1, 315889, Note_on_c, 0, 92, 84
1, 315894, Control_c, 0, 64, 60
1, 315909, Control_c, 0, 64, 0
1, 315936, Note_off_c, 0, 92, 65
1, 315946, Note_on_c, 0, 65, 81
1, 315952, Note_on_c, 0, 72, 85
1, 315953, Note_on_c, 0, 77, 96
1, 315968, Note_on_c, 0, 81, 91
1, 315983, Control_c, 0, 64, 62
1, 315997, Note_off_c, 0, 65, 67
1, 315998, Control_c, 0, 64, 106
1, 316003, Note_off_c, 0, 77, 63
1, 316011, Note_off_c, 0, 72, 65
1, 316013, Control_c, 0, 64, 127
1, 316038, Note_on_c, 0, 93, 84
1, 316043, Note_off_c, 0, 81, 58
1, 316101, Note_on_c, 0, 91, 78
1, 316168, Note_on_c, 0, 89, 79
1, 316192, Note_off_c, 0, 93, 52
1, 316215, Note_on_c, 0, 88, 85
1, 316230, Note_off_c, 0, 91, 55
1, 316248, Note_off_c, 0, 89, 66
1, 316278, Note_on_c, 0, 86, 82
1, 316278, Note_off_c, 0, 88, 64
1, 316331, Note_off_c, 0, 86, 62
1, 316344, Note_on_c, 0, 84, 77
1, 316404, Note_on_c, 0, 83, 78
1, 316426, Note_off_c, 0, 84, 65
1, 316457, Note_off_c, 0, 83, 62
1, 316463, Note_on_c, 0, 81, 86
1, 316494, Control_c, 0, 64, 118
1, 316509, Control_c, 0, 64, 97
1, 316514, Note_on_c, 0, 79, 79
1, 316524, Control_c, 0, 64, 81
1, 316539, Control_c, 0, 64, 65
1, 316554, Control_c, 0, 64, 0
1, 316572, Note_off_c, 0, 81, 56
1, 316585, Note_on_c, 0, 77, 75
1, 316630, Note_on_c, 0, 76, 79
1, 316641, Note_off_c, 0, 79, 60
1, 316660, Note_off_c, 0, 77, 63
1, 316684, Note_off_c, 0, 76, 68
1, 316686, Note_on_c, 0, 74, 71
1, 316743, Note_off_c, 0, 74, 58
1, 316751, Note_on_c, 0, 72, 76
1, 316809, Note_on_c, 0, 71, 64
1, 316812, Note_off_c, 0, 72, 63
1, 316848, Note_off_c, 0, 71, 62
1, 316858, Note_on_c, 0, 69, 77
1, 316914, Note_off_c, 0, 69, 51
1, 316918, Control_c, 0, 64, 22
1, 316927, Note_on_c, 0, 68, 72
1, 316933, Control_c, 0, 64, 0
1, 316967, Note_on_c, 0, 69, 69
1, 316990, Note_off_c, 0, 68, 64
1, 317045, Note_on_c, 0, 67, 80
1, 317077, Note_off_c, 0, 69, 65
1, 317108, Note_on_c, 0, 65, 76
1, 317141, Note_off_c, 0, 67, 62
1, 317155, Control_c, 0, 64, 29
1, 317170, Note_on_c, 0, 64, 82
1, 317170, Control_c, 0, 64, 38
1, 317173, Note_off_c, 0, 65, 65
1, 317177, Note_on_c, 0, 29, 92
1, 317185, Control_c, 0, 64, 34
1, 317199, Note_on_c, 0, 31, 48
1, 317200, Control_c, 0, 64, 18
1, 317214, Control_c, 0, 64, 0
1, 317233, Note_off_c, 0, 64, 59
1, 317237, Note_on_c, 0, 62, 81
1, 317311, Note_on_c, 0, 60, 73
1, 317328, Note_off_c, 0, 62, 57
1, 317331, Note_off_c, 0, 31, 19
1, 317365, Note_off_c, 0, 60, 61
1, 317377, Note_on_c, 0, 59, 69
1, 317409, Note_off_c, 0, 59, 57
1, 317436, Note_on_c, 0, 57, 78
1, 317438, Control_c, 0, 64, 13
1, 317452, Control_c, 0, 64, 19
1, 317467, Control_c, 0, 64, 22
1, 317482, Control_c, 0, 64, 24
1, 317497, Control_c, 0, 64, 26
1, 317504, Note_on_c, 0, 55, 78
1, 317512, Control_c, 0, 64, 30
1, 317523, Note_on_c, 0, 31, 68
1, 317526, Control_c, 0, 64, 35
1, 317529, Note_off_c, 0, 29, 63
1, 317541, Control_c, 0, 64, 38
1, 317556, Control_c, 0, 64, 40
1, 317560, Note_off_c, 0, 57, 58
1, 317566, Note_on_c, 0, 53, 72
1, 317570, Control_c, 0, 64, 40
1, 317577, Note_on_c, 0, 33, 73
1, 317585, Control_c, 0, 64, 41
1, 317592, Note_off_c, 0, 55, 64
1, 317600, Control_c, 0, 64, 43
1, 317615, Control_c, 0, 64, 46
1, 317616, Note_off_c, 0, 31, 59
1, 317624, Note_off_c, 0, 53, 66
1, 317626, Note_on_c, 0, 52, 79
1, 317630, Control_c, 0, 64, 47
1, 317647, Note_on_c, 0, 35, 70
1, 317652, Control_c, 0, 64, 48
1, 317667, Note_off_c, 0, 52, 60
1, 317667, Control_c, 0, 64, 50
1, 317668, Note_off_c, 0, 33, 64
1, 317682, Note_off_c, 0, 35, 64
1, 317682, Control_c, 0, 64, 52
1, 317690, Note_on_c, 0, 36, 82
1, 317697, Control_c, 0, 64, 54
1, 317700, Note_on_c, 0, 50, 75
1, 317712, Control_c, 0, 64, 56
1, 317726, Control_c, 0, 64, 58
1, 317741, Control_c, 0, 64, 61
1, 317746, Note_on_c, 0, 48, 73
1, 317754, Note_off_c, 0, 36, 63
1, 317756, Control_c, 0, 64, 64
1, 317761, Note_off_c, 0, 50, 64
1, 317769, Note_on_c, 0, 38, 55
1, 317770, Control_c, 0, 64, 66
1, 317785, Control_c, 0, 64, 68
1, 317793, Note_off_c, 0, 48, 66
1, 317800, Note_off_c, 0, 38, 58
1, 317800, Control_c, 0, 64, 70
1, 317802, Note_on_c, 0, 47, 80
1, 317808, Note_on_c, 0, 40, 70
1, 317815, Control_c, 0, 64, 73
1, 317830, Control_c, 0, 64, 77
1, 317844, Control_c, 0, 64, 79
1, 317855, Note_on_c, 0, 45, 80
1, 317858, Note_off_c, 0, 47, 63
1, 317859, Control_c, 0, 64, 80
1, 317874, Control_c, 0, 64, 81
1, 317888, Note_off_c, 0, 45, 67
1, 317889, Note_off_c, 0, 40, 62
1, 317889, Control_c, 0, 64, 82
1, 317918, Control_c, 0, 64, 80
1, 317931, Note_on_c, 0, 40, 73
1, 317933, Control_c, 0, 64, 73
1, 317934, Note_on_c, 0, 31, 77
1, 317934, Note_on_c, 0, 43, 98
1, 317948, Control_c, 0, 64, 43
1, 317951, Note_on_c, 0, 36, 61
1, 317963, Control_c, 0, 64, 0
1, 317992, Note_on_c, 0, 48, 79
1, 318045, Note_off_c, 0, 48, 62
1, 318063, Note_on_c, 0, 47, 75
1, 318067, Control_c, 0, 64, 53
1, 318082, Control_c, 0, 64, 62
1, 318097, Control_c, 0, 64, 66
1, 318100, Note_off_c, 0, 47, 63
1, 318112, Control_c, 0, 64, 68
1, 318126, Control_c, 0, 64, 72
1, 318130, Note_on_c, 0, 50, 65
1, 318141, Control_c, 0, 64, 75
1, 318156, Control_c, 0, 64, 77
1, 318169, Note_off_c, 0, 50, 61
1, 318170, Control_c, 0, 64, 78
1, 318174, Note_off_c, 0, 31, 63
1, 318192, Note_on_c, 0, 48, 77
1, 318192, Note_off_c, 0, 43, 62
1, 318231, Control_c, 0, 64, 77
1, 318234, Note_off_c, 0, 48, 53
1, 318234, Note_off_c, 0, 36, 54
1, 318246, Control_c, 0, 64, 75
1, 318249, Note_off_c, 0, 40, 62
1, 318255, Note_on_c, 0, 52, 81
1, 318261, Control_c, 0, 64, 70
1, 318275, Control_c, 0, 64, 59
1, 318290, Control_c, 0, 64, 0
1, 318317, Note_on_c, 0, 51, 69
1, 318318, Note_off_c, 0, 52, 65
1, 318362, Note_on_c, 0, 53, 65
1, 318374, Note_off_c, 0, 51, 61
1, 318407, Note_off_c, 0, 53, 66
1, 318445, Note_on_c, 0, 52, 76
1, 318502, Note_off_c, 0, 52, 61
1, 318515, Note_on_c, 0, 55, 67
1, 318565, Note_on_c, 0, 54, 65
1, 318568, Note_off_c, 0, 55, 64
1, 318613, Note_off_c, 0, 54, 62
1, 318613, Note_on_c, 0, 57, 61
1, 318644, Note_off_c, 0, 57, 63
1, 318681, Note_on_c, 0, 55, 72
1, 318747, Note_off_c, 0, 55, 62
1, 318748, Note_on_c, 0, 60, 60
1, 318806, Note_on_c, 0, 59, 64
1, 318809, Note_off_c, 0, 60, 62
1, 318848, Note_off_c, 0, 59, 61
1, 318867, Note_on_c, 0, 62, 62
1, 318896, Note_off_c, 0, 62, 63
1, 318928, Note_on_c, 0, 60, 71
1, 318989, Note_off_c, 0, 60, 59
1, 318996, Note_on_c, 0, 64, 64
1, 319046, Note_on_c, 0, 63, 70
1, 319051, Note_off_c, 0, 64, 58
1, 319096, Note_on_c, 0, 65, 59
1, 319099, Note_off_c, 0, 63, 63
1, 319122, Note_off_c, 0, 65, 62
1, 319166, Note_on_c, 0, 64, 77
1, 319237, Note_on_c, 0, 67, 66
1, 319237, Note_off_c, 0, 64, 62
1, 319294, Note_on_c, 0, 66, 69
1, 319312, Note_off_c, 0, 67, 53
1, 319312, Control_c, 0, 64, 18
1, 319327, Control_c, 0, 64, 27
1, 319328, Note_off_c, 0, 66, 66
1, 319337, Note_on_c, 0, 69, 62
1, 319342, Control_c, 0, 64, 34
1, 319356, Control_c, 0, 64, 37
1, 319367, Note_off_c, 0, 69, 68
1, 319371, Control_c, 0, 64, 38
1, 319401, Control_c, 0, 64, 39
1, 319411, Note_on_c, 0, 67, 79
1, 319416, Control_c, 0, 64, 39
1, 319470, Note_off_c, 0, 67, 57
1, 319477, Note_on_c, 0, 72, 63
1, 319504, Control_c, 0, 64, 40
1, 319520, Control_c, 0, 64, 40
1, 319535, Control_c, 0, 64, 41
1, 319537, Note_on_c, 0, 71, 66
1, 319537, Note_off_c, 0, 72, 63
1, 319549, Control_c, 0, 64, 41
1, 319564, Control_c, 0, 64, 42
1, 319572, Note_off_c, 0, 71, 61
1, 319579, Control_c, 0, 64, 43
1, 319587, Note_on_c, 0, 74, 60
1, 319594, Control_c, 0, 64, 43
1, 319609, Control_c, 0, 64, 44
1, 319614, Note_off_c, 0, 74, 67
1, 319651, Note_on_c, 0, 72, 75
1, 319715, Note_off_c, 0, 72, 60
1, 319724, Note_on_c, 0, 76, 70
1, 319727, Control_c, 0, 64, 44
1, 319742, Control_c, 0, 64, 45
1, 319757, Control_c, 0, 64, 46
1, 319772, Control_c, 0, 64, 47
1, 319780, Note_on_c, 0, 75, 63
1, 319787, Note_off_c, 0, 76, 60
1, 319787, Control_c, 0, 64, 49
1, 319802, Control_c, 0, 64, 49
1, 319825, Note_off_c, 0, 75, 60
1, 319828, Note_on_c, 0, 77, 65
1, 319865, Note_off_c, 0, 77, 56
1, 319876, Control_c, 0, 64, 49
1, 319899, Control_c, 0, 64, 48
1, 319905, Note_on_c, 0, 76, 76
1, 319914, Control_c, 0, 64, 47
1, 319943, Control_c, 0, 64, 47
1, 319964, Note_off_c, 0, 76, 63
1, 319973, Note_on_c, 0, 79, 72
1, 319987, Control_c, 0, 64, 47
1, 320032, Control_c, 0, 64, 48
1, 320033, Note_off_c, 0, 79, 62
1, 320036, Note_on_c, 0, 78, 71
1, 320046, Control_c, 0, 64, 48
1, 320074, Note_off_c, 0, 78, 62
1, 320079, Note_on_c, 0, 81, 66
1, 320091, Control_c, 0, 64, 47
1, 320105, Note_off_c, 0, 81, 67
1, 320106, Control_c, 0, 64, 47
1, 320121, Control_c, 0, 64, 46
1, 320136, Control_c, 0, 64, 45
1, 320151, Control_c, 0, 64, 44
1, 320154, Note_on_c, 0, 79, 70
1, 320165, Control_c, 0, 64, 42
1, 320180, Control_c, 0, 64, 39
1, 320195, Control_c, 0, 64, 38
1, 320209, Note_off_c, 0, 79, 59
1, 320216, Note_on_c, 0, 84, 72
1, 320227, Note_on_c, 0, 76, 60
1, 320254, Control_c, 0, 64, 38
1, 320258, Note_off_c, 0, 76, 59
1, 320264, Note_off_c, 0, 84, 63
1, 320269, Control_c, 0, 64, 39
1, 320276, Note_on_c, 0, 83, 71
1, 320279, Note_on_c, 0, 75, 61
1, 320284, Control_c, 0, 64, 39
1, 320299, Control_c, 0, 64, 40
1, 320309, Note_off_c, 0, 75, 69
1, 320314, Control_c, 0, 64, 41
1, 320326, Note_off_c, 0, 83, 58
1, 320328, Control_c, 0, 64, 41
1, 320333, Note_on_c, 0, 76, 78
1, 320343, Note_on_c, 0, 84, 47
1, 320343, Control_c, 0, 64, 42
1, 320358, Control_c, 0, 64, 42
1, 320359, Note_off_c, 0, 76, 64
1, 320372, Control_c, 0, 64, 43
1, 320387, Control_c, 0, 64, 43
1, 320390, Note_off_c, 0, 84, 58
1, 320404, Note_on_c, 0, 79, 72
1, 320408, Note_on_c, 0, 67, 52
1, 320417, Control_c, 0, 64, 44
1, 320446, Control_c, 0, 64, 44
1, 320454, Note_off_c, 0, 67, 59
1, 320461, Control_c, 0, 64, 45
1, 320470, Note_off_c, 0, 79, 60
1, 320471, Note_on_c, 0, 72, 62
1, 320476, Note_on_c, 0, 88, 55
1, 320476, Control_c, 0, 64, 46
1, 320494, Note_off_c, 0, 72, 62
1, 320505, Note_off_c, 0, 88, 54
1, 320505, Control_c, 0, 64, 47
1, 320520, Control_c, 0, 64, 47
1, 320525, Note_on_c, 0, 87, 70
1, 320535, Control_c, 0, 64, 48
1, 320543, Note_on_c, 0, 71, 49
1, 320567, Note_off_c, 0, 71, 57
1, 320585, Note_on_c, 0, 88, 75
1, 320586, Note_on_c, 0, 72, 56
1, 320589, Note_off_c, 0, 87, 63
1, 320595, Control_c, 0, 64, 48
1, 320607, Note_off_c, 0, 72, 61
1, 320610, Control_c, 0, 64, 47
1, 320625, Control_c, 0, 64, 47
1, 320648, Control_c, 0, 64, 46
1, 320657, Note_on_c, 0, 67, 65
1, 320663, Note_on_c, 0, 79, 75
1, 320664, Note_off_c, 0, 88, 50
1, 320693, Note_off_c, 0, 67, 61
1, 320703, Note_off_c, 0, 79, 60
1, 320713, Note_on_c, 0, 84, 70
1, 320717, Note_on_c, 0, 76, 74
1, 320751, Control_c, 0, 64, 47
1, 320753, Note_off_c, 0, 84, 62
1, 320759, Note_off_c, 0, 76, 66
1, 320766, Control_c, 0, 64, 47
1, 320772, Note_on_c, 0, 83, 74
1, 320781, Control_c, 0, 64, 48
1, 320782, Note_on_c, 0, 75, 65
1, 320795, Control_c, 0, 64, 50
1, 320809, Note_off_c, 0, 75, 69
1, 320810, Control_c, 0, 64, 51
1, 320833, Note_off_c, 0, 83, 59
1, 320839, Note_on_c, 0, 84, 71
1, 320840, Control_c, 0, 64, 50
1, 320841, Note_on_c, 0, 76, 67
1, 320867, Note_off_c, 0, 76, 69
1, 320869, Control_c, 0, 64, 50
1, 320872, Note_off_c, 0, 84, 59
1, 320905, Note_on_c, 0, 67, 62
1, 320905, Note_on_c, 0, 79, 78
1, 320929, Control_c, 0, 64, 49
1, 320956, Note_on_c, 0, 88, 79
1, 320957, Note_off_c, 0, 67, 60
1, 320961, Note_off_c, 0, 79, 62
1, 320968, Note_on_c, 0, 72, 67
1, 320973, Control_c, 0, 64, 50
1, 320997, Note_off_c, 0, 72, 66
1, 321018, Note_off_c, 0, 88, 60
1, 321035, Note_on_c, 0, 87, 74
1, 321046, Note_on_c, 0, 71, 52
1, 321048, Control_c, 0, 64, 51
1, 321062, Control_c, 0, 64, 51
1, 321066, Note_off_c, 0, 71, 61
1, 321077, Control_c, 0, 64, 52
1, 321105, Note_on_c, 0, 72, 41
1, 321105, Note_on_c, 0, 88, 76
1, 321108, Note_off_c, 0, 87, 63
1, 321122, Control_c, 0, 64, 51
1, 321132, Note_off_c, 0, 72, 36
1, 321137, Control_c, 0, 64, 50
1, 321151, Control_c, 0, 64, 50
1, 321156, Note_on_c, 0, 67, 69
1, 321164, Note_on_c, 0, 79, 82
1, 321173, Note_off_c, 0, 88, 59
1, 321190, Note_off_c, 0, 67, 62
1, 321210, Note_on_c, 0, 76, 74
1, 321215, Note_off_c, 0, 79, 60
1, 321233, Note_on_c, 0, 84, 83
1, 321255, Control_c, 0, 64, 50
1, 321256, Note_off_c, 0, 76, 64
1, 321269, Control_c, 0, 64, 51
1, 321277, Note_on_c, 0, 75, 61
1, 321284, Control_c, 0, 64, 51
1, 321286, Note_off_c, 0, 84, 64
1, 321291, Note_on_c, 0, 83, 78
1, 321299, Control_c, 0, 64, 52
1, 321308, Note_off_c, 0, 75, 68
1, 321313, Control_c, 0, 64, 52
1, 321328, Control_c, 0, 64, 53
1, 321334, Note_on_c, 0, 76, 73
1, 321343, Control_c, 0, 64, 53
1, 321358, Note_on_c, 0, 84, 75
1, 321358, Note_off_c, 0, 83, 60
1, 321372, Note_off_c, 0, 76, 66
1, 321395, Control_c, 0, 64, 53
1, 321417, Note_on_c, 0, 67, 64
1, 321426, Note_off_c, 0, 84, 64
1, 321435, Note_on_c, 0, 79, 81
1, 321441, Control_c, 0, 64, 53
1, 321471, Control_c, 0, 64, 54
1, 321483, Note_on_c, 0, 72, 73
1, 321488, Note_off_c, 0, 67, 61
1, 321489, Note_on_c, 0, 88, 83
1, 321505, Note_off_c, 0, 79, 63
1, 321530, Control_c, 0, 64, 54
1, 321534, Note_off_c, 0, 72, 63
1, 321560, Control_c, 0, 64, 55
1, 321564, Note_off_c, 0, 88, 62
1, 321564, Note_on_c, 0, 71, 69
1, 321564, Note_on_c, 0, 87, 82
1, 321574, Control_c, 0, 64, 55
1, 321589, Control_c, 0, 64, 56
1, 321604, Control_c, 0, 64, 56
1, 321620, Note_off_c, 0, 71, 54
1, 321635, Note_on_c, 0, 72, 61
1, 321641, Note_on_c, 0, 88, 81
1, 321645, Note_off_c, 0, 87, 66
1, 321661, Note_off_c, 0, 72, 61
1, 321678, Control_c, 0, 64, 56
1, 321690, Note_on_c, 0, 67, 66
1, 321709, Note_on_c, 0, 79, 81
1, 321737, Note_off_c, 0, 88, 59
1, 321760, Note_on_c, 0, 76, 78
1, 321775, Note_on_c, 0, 84, 90
1, 321776, Note_off_c, 0, 79, 61
1, 321781, Note_off_c, 0, 67, 60
1, 321781, Control_c, 0, 64, 56
1, 321796, Control_c, 0, 64, 59
1, 321811, Control_c, 0, 64, 63
1, 321822, Note_off_c, 0, 76, 65
1, 321826, Control_c, 0, 64, 66
1, 321838, Note_on_c, 0, 75, 71
1, 321841, Control_c, 0, 64, 71
1, 321852, Note_on_c, 0, 83, 85
1, 321852, Note_off_c, 0, 84, 65
1, 321856, Control_c, 0, 64, 79
1, 321871, Control_c, 0, 64, 88
1, 321885, Control_c, 0, 64, 95
1, 321891, Note_off_c, 0, 75, 50
1, 321900, Control_c, 0, 64, 102
1, 321900, Note_on_c, 0, 76, 72
1, 321915, Control_c, 0, 64, 110
1, 321920, Note_on_c, 0, 84, 91
1, 321930, Control_c, 0, 64, 120
1, 321931, Note_off_c, 0, 83, 62
1, 321944, Control_c, 0, 64, 127
1, 321963, Note_off_c, 0, 76, 64
1, 322008, Note_off_c, 0, 84, 65
1, 322029, Note_on_c, 0, 83, 97
1, 322031, Note_on_c, 0, 89, 99
1, 322038, Note_on_c, 0, 67, 76
1, 322039, Note_on_c, 0, 77, 93
1, 322040, Note_on_c, 0, 74, 75
1, 322063, Control_c, 0, 64, 109
1, 322078, Control_c, 0, 64, 83
1, 322092, Control_c, 0, 64, 51
1, 322107, Control_c, 0, 64, 0
1, 323042, Control_c, 0, 64, 61
1, 323057, Control_c, 0, 64, 75
1, 323072, Control_c, 0, 64, 89
1, 323087, Control_c, 0, 64, 98
1, 323102, Control_c, 0, 64, 102
1, 323117, Control_c, 0, 64, 106
1, 323118, Note_off_c, 0, 89, 60
1, 323132, Control_c, 0, 64, 112
1, 323146, Control_c, 0, 64, 119
1, 323161, Control_c, 0, 64, 126
1, 323176, Control_c, 0, 64, 127
1, 323200, Note_off_c, 0, 83, 52
1, 323215, Note_off_c, 0, 77, 55
1, 323241, Note_on_c, 0, 89, 86
1, 323281, Note_off_c, 0, 67, 59
1, 323290, Note_off_c, 0, 74, 60
1, 323313, Note_on_c, 0, 88, 70
1, 323361, Note_on_c, 0, 86, 75
1, 323374, Note_off_c, 0, 89, 64
1, 323392, Note_off_c, 0, 88, 63
1, 323414, Note_off_c, 0, 86, 62
1, 323418, Note_on_c, 0, 84, 76
1, 323448, Note_off_c, 0, 84, 55
1, 323474, Note_on_c, 0, 83, 77
1, 323546, Note_on_c, 0, 81, 71
1, 323586, Note_off_c, 0, 83, 62
1, 323593, Note_on_c, 0, 79, 69
1, 323614, Note_off_c, 0, 81, 62
1, 323638, Note_on_c, 0, 77, 75
1, 323642, Note_off_c, 0, 79, 61
1, 323693, Note_off_c, 0, 77, 54
1, 323699, Note_on_c, 0, 76, 78
1, 323771, Note_on_c, 0, 74, 75
1, 323824, Note_on_c, 0, 72, 80
1, 323831, Note_off_c, 0, 76, 64
1, 323856, Note_off_c, 0, 74, 64
1, 323884, Note_on_c, 0, 71, 78
1, 323886, Note_off_c, 0, 72, 66
1, 323944, Note_off_c, 0, 71, 57
1, 323993, Note_on_c, 0, 55, 60
1, 323994, Note_on_c, 0, 65, 69
1, 323997, Note_on_c, 0, 62, 64
1, 323998, Note_on_c, 0, 71, 82
1, 323998, Note_on_c, 0, 77, 95
1, 324058, Control_c, 0, 64, 113
1, 324073, Control_c, 0, 64, 93
1, 324087, Control_c, 0, 64, 75
1, 324102, Control_c, 0, 64, 24
1, 324117, Control_c, 0, 64, 0
1, 324294, Control_c, 0, 64, 45
1, 324309, Control_c, 0, 64, 58
1, 324324, Control_c, 0, 64, 62
1, 324339, Control_c, 0, 64, 63
1, 324354, Control_c, 0, 64, 64
1, 324369, Control_c, 0, 64, 65
1, 324391, Control_c, 0, 64, 66
1, 324406, Control_c, 0, 64, 67
1, 324420, Control_c, 0, 64, 70
1, 324435, Control_c, 0, 64, 72
1, 324450, Control_c, 0, 64, 75
1, 324465, Control_c, 0, 64, 76
1, 324480, Control_c, 0, 64, 77
1, 324494, Control_c, 0, 64, 78
1, 324509, Control_c, 0, 64, 80
1, 324524, Control_c, 0, 64, 81
1, 324539, Control_c, 0, 64, 83
1, 324553, Control_c, 0, 64, 85
1, 324568, Control_c, 0, 64, 86
1, 324583, Control_c, 0, 64, 87
1, 324598, Control_c, 0, 64, 89
1, 324614, Control_c, 0, 64, 90
1, 324629, Control_c, 0, 64, 92
1, 324643, Control_c, 0, 64, 94
1, 324658, Control_c, 0, 64, 97
1, 324673, Control_c, 0, 64, 100
1, 324688, Control_c, 0, 64, 103
1, 324703, Control_c, 0, 64, 108
1, 324717, Control_c, 0, 64, 111
1, 324732, Control_c, 0, 64, 114
1, 324747, Control_c, 0, 64, 116
1, 324762, Control_c, 0, 64, 118
1, 324777, Control_c, 0, 64, 120
1, 324792, Control_c, 0, 64, 121
1, 324807, Control_c, 0, 64, 124
1, 324822, Control_c, 0, 64, 126
1, 324836, Control_c, 0, 64, 127
1, 325144, Note_off_c, 0, 55, 37
1, 325214, Note_off_c, 0, 65, 30
1, 325263, Note_off_c, 0, 77, 53
1, 325311, Note_off_c, 0, 62, 57
1, 325400, Note_off_c, 0, 71, 35
1, 325572, Note_on_c, 0, 77, 62
1, 325653, Note_on_c, 0, 76, 64
1, 325690, Note_off_c, 0, 77, 52
1, 325738, Note_on_c, 0, 74, 61
1, 325755, Note_off_c, 0, 76, 56
1, 325797, Note_off_c, 0, 74, 63
1, 325813, Note_on_c, 0, 72, 72
1, 325911, Note_on_c, 0, 71, 64
1, 326000, Note_on_c, 0, 69, 67
1, 326012, Note_off_c, 0, 72, 41
1, 326054, Note_off_c, 0, 71, 56
1, 326089, Note_on_c, 0, 67, 67
1, 326121, Note_off_c, 0, 69, 57
1, 326179, Note_off_c, 0, 67, 61
1, 326205, Note_on_c, 0, 65, 75
1, 326308, Note_off_c, 0, 65, 63
1, 326652, Control_c, 0, 64, 117
1, 326656, Note_on_c, 0, 64, 69
1, 326664, Note_on_c, 0, 48, 43
1, 326667, Control_c, 0, 64, 109
1, 326667, Note_on_c, 0, 55, 47
1, 326676, Note_on_c, 0, 60, 49
1, 326681, Control_c, 0, 64, 101
1, 326696, Control_c, 0, 64, 93
1, 326697, Note_on_c, 0, 36, 35
1, 326711, Control_c, 0, 64, 84
1, 326726, Control_c, 0, 64, 74
1, 326740, Control_c, 0, 64, 61
1, 326755, Control_c, 0, 64, 0
1, 326903, Control_c, 0, 64, 31
1, 326918, Control_c, 0, 64, 61
1, 326932, Control_c, 0, 64, 66
1, 326947, Control_c, 0, 64, 70
1, 326962, Control_c, 0, 64, 75
1, 326977, Control_c, 0, 64, 80
1, 326977, Control_c, 0, 67, 9
1, 326992, Control_c, 0, 64, 83
1, 326992, Control_c, 0, 67, 11
1, 327008, Control_c, 0, 64, 85
1, 327008, Control_c, 0, 67, 15
1, 327023, Control_c, 0, 64, 86
1, 327023, Control_c, 0, 67, 20
1, 327037, Control_c, 0, 64, 87
1, 327037, Control_c, 0, 67, 27
1, 327045, Note_off_c, 0, 48, 43
1, 327052, Control_c, 0, 64, 89
1, 327052, Control_c, 0, 67, 34
1, 327067, Control_c, 0, 64, 91
1, 327067, Control_c, 0, 67, 43
1, 327082, Control_c, 0, 64, 93
1, 327082, Control_c, 0, 67, 55
1, 327097, Control_c, 0, 64, 94
1, 327097, Control_c, 0, 67, 70
1, 327111, Control_c, 0, 64, 96
1, 327111, Control_c, 0, 67, 86
1, 327113, Note_off_c, 0, 55, 41
1, 327120, Note_off_c, 0, 36, 40
1, 327126, Control_c, 0, 64, 98
1, 327126, Control_c, 0, 67, 100
1, 327141, Control_c, 0, 64, 99
1, 327141, Control_c, 0, 67, 114
1, 327146, Note_off_c, 0, 64, 63
1, 327156, Control_c, 0, 64, 100
1, 327156, Control_c, 0, 67, 123
1, 327171, Control_c, 0, 64, 102
1, 327171, Control_c, 0, 67, 127
1, 327186, Control_c, 0, 64, 103
1, 327201, Control_c, 0, 64, 103
1, 327215, Control_c, 0, 64, 104
1, 327230, Control_c, 0, 64, 105
1, 327245, Control_c, 0, 64, 106
1, 327260, Control_c, 0, 64, 106
1, 327275, Control_c, 0, 64, 107
1, 327290, Control_c, 0, 64, 107
1, 327304, Control_c, 0, 64, 108
1, 327319, Control_c, 0, 64, 108
1, 327348, Control_c, 0, 64, 109
1, 327355, Note_off_c, 0, 60, 38
1, 327400, Control_c, 0, 64, 109
1, 327593, Control_c, 0, 64, 109
1, 327608, Control_c, 0, 64, 108
1, 327623, Control_c, 0, 64, 107
1, 327627, Note_on_c, 0, 62, 63
1, 327637, Control_c, 0, 64, 104
1, 327645, Note_on_c, 0, 53, 48
1, 327652, Control_c, 0, 64, 98
1, 327653, Note_on_c, 0, 59, 45
1, 327654, Note_on_c, 0, 32, 48
1, 327655, Note_on_c, 0, 44, 42
1, 327667, Control_c, 0, 64, 88
1, 327681, Control_c, 0, 64, 77
1, 327696, Control_c, 0, 64, 65
1, 327711, Control_c, 0, 64, 0
1, 327770, Control_c, 0, 64, 61
1, 327785, Control_c, 0, 64, 68
1, 327800, Control_c, 0, 64, 74
1, 327816, Control_c, 0, 64, 80
1, 327826, Note_off_c, 0, 53, 63
1, 327831, Control_c, 0, 64, 82
1, 327846, Note_off_c, 0, 59, 51
1, 327846, Control_c, 0, 64, 83
1, 327860, Control_c, 0, 64, 85
1, 327875, Control_c, 0, 64, 87
1, 327890, Control_c, 0, 64, 89
1, 327905, Control_c, 0, 64, 91
1, 327920, Control_c, 0, 64, 92
1, 327929, Note_off_c, 0, 32, 35
1, 327934, Note_off_c, 0, 44, 39
1, 327934, Control_c, 0, 64, 93
1, 327949, Control_c, 0, 64, 93
1, 327969, Note_off_c, 0, 62, 35
1, 328038, Note_on_c, 0, 60, 65
1, 328038, Control_c, 0, 64, 91
1, 328050, Note_on_c, 0, 57, 56
1, 328053, Control_c, 0, 64, 85
1, 328059, Note_on_c, 0, 45, 40
1, 328059, Note_on_c, 0, 52, 50
1, 328068, Control_c, 0, 64, 76
1, 328080, Note_on_c, 0, 33, 35
1, 328083, Control_c, 0, 64, 60
1, 328097, Control_c, 0, 64, 0
1, 328122, Note_off_c, 0, 57, 0
1, 328166, Poly_aftertouch_c, 0, 57, 127
1, 328193, Control_c, 0, 64, 59
1, 328208, Control_c, 0, 64, 67
1, 328223, Control_c, 0, 64, 72
1, 328235, Poly_aftertouch_c, 0, 57, 0
1, 328238, Control_c, 0, 64, 80
1, 328253, Control_c, 0, 64, 83
1, 328268, Note_off_c, 0, 52, 42
1, 328268, Control_c, 0, 64, 85
1, 328283, Control_c, 0, 64, 86
1, 328297, Control_c, 0, 64, 88
1, 328312, Control_c, 0, 64, 89
1, 328327, Control_c, 0, 64, 90
1, 328342, Control_c, 0, 64, 91
1, 328372, Control_c, 0, 64, 91
1, 328397, Note_off_c, 0, 33, 29
1, 328424, Note_off_c, 0, 45, 32
1, 328447, Note_off_c, 0, 60, 59
1, 328460, Control_c, 0, 64, 91
1, 328469, Note_on_c, 0, 59, 63
1, 328475, Control_c, 0, 64, 88
1, 328476, Note_on_c, 0, 40, 46
1, 328478, Note_on_c, 0, 56, 54
1, 328490, Control_c, 0, 64, 84
1, 328492, Note_on_c, 0, 50, 43
1, 328504, Control_c, 0, 64, 78
1, 328519, Control_c, 0, 64, 66
1, 328534, Control_c, 0, 64, 0
1, 328713, Control_c, 0, 64, 10
1, 328727, Control_c, 0, 64, 58
1, 328742, Control_c, 0, 64, 65
1, 328757, Control_c, 0, 64, 68
1, 328772, Control_c, 0, 64, 71
1, 328787, Control_c, 0, 64, 75
1, 328801, Control_c, 0, 64, 79
1, 328816, Control_c, 0, 64, 81
1, 328831, Control_c, 0, 64, 82
1, 328846, Control_c, 0, 64, 84
1, 328861, Control_c, 0, 64, 85
1, 328883, Control_c, 0, 64, 86
1, 328898, Control_c, 0, 64, 87
1, 328913, Control_c, 0, 64, 88
1, 328921, Note_off_c, 0, 56, 57
1, 328927, Control_c, 0, 64, 89
1, 328942, Control_c, 0, 64, 89
1, 328947, Note_off_c, 0, 50, 40
1, 328957, Control_c, 0, 64, 90
1, 328972, Control_c, 0, 64, 90
1, 329239, Control_c, 0, 64, 90
1, 329246, Note_off_c, 0, 59, 50
1, 329254, Control_c, 0, 64, 89
1, 329269, Control_c, 0, 64, 88
1, 329283, Control_c, 0, 64, 86
1, 329285, Note_on_c, 0, 57, 49
1, 329298, Control_c, 0, 64, 81
1, 329313, Control_c, 0, 64, 74
1, 329317, Note_on_c, 0, 41, 40
1, 329319, Note_on_c, 0, 48, 36
1, 329327, Control_c, 0, 64, 62
1, 329342, Control_c, 0, 64, 0
1, 329383, Note_off_c, 0, 40, 34
1, 329477, Control_c, 0, 64, 59
1, 329492, Control_c, 0, 64, 67
1, 329506, Control_c, 0, 64, 71
1, 329521, Control_c, 0, 64, 75
1, 329536, Control_c, 0, 64, 79
1, 329550, Control_c, 0, 64, 82
1, 329553, Note_off_c, 0, 48, 42
1, 329565, Note_off_c, 0, 41, 42
1, 329565, Control_c, 0, 64, 83
1, 329580, Control_c, 0, 64, 85
1, 329595, Control_c, 0, 64, 86
1, 329610, Control_c, 0, 64, 88
1, 329632, Control_c, 0, 64, 89
1, 329647, Control_c, 0, 64, 89
1, 329648, Note_off_c, 0, 57, 59
1, 329662, Control_c, 0, 64, 90
1, 329677, Control_c, 0, 64, 90
1, 329706, Control_c, 0, 64, 91
1, 329765, Control_c, 0, 64, 91
1, 330150, Control_c, 0, 64, 91
1, 330180, Control_c, 0, 64, 89
1, 330181, Note_on_c, 0, 71, 68
1, 330193, Note_on_c, 0, 50, 37
1, 330196, Control_c, 0, 64, 87
1, 330199, Note_on_c, 0, 67, 52
1, 330200, Note_on_c, 0, 65, 50
1, 330201, Note_on_c, 0, 59, 31
1, 330204, Note_on_c, 0, 55, 37
1, 330211, Control_c, 0, 64, 82
1, 330217, Note_on_c, 0, 53, 42
1, 330226, Control_c, 0, 64, 75
1, 330241, Control_c, 0, 64, 61
1, 330255, Control_c, 0, 64, 0
1, 330344, Control_c, 0, 64, 51
1, 330359, Control_c, 0, 64, 65
1, 330381, Control_c, 0, 64, 69
1, 330396, Control_c, 0, 64, 73
1, 330411, Control_c, 0, 64, 76
1, 330426, Control_c, 0, 64, 78
1, 330441, Control_c, 0, 64, 80
1, 330455, Control_c, 0, 64, 81
1, 330470, Control_c, 0, 64, 82
1, 330485, Control_c, 0, 64, 84
1, 330500, Control_c, 0, 64, 85
1, 330514, Control_c, 0, 64, 86
1, 330529, Note_off_c, 0, 53, 30
1, 330529, Control_c, 0, 64, 88
1, 330529, Control_c, 0, 67, 122
1, 330539, Note_off_c, 0, 50, 41
1, 330544, Control_c, 0, 64, 88
1, 330544, Control_c, 0, 67, 111
1, 330559, Control_c, 0, 64, 89
1, 330559, Control_c, 0, 67, 101
1, 330574, Control_c, 0, 64, 90
1, 330574, Control_c, 0, 67, 91
1, 330581, Note_off_c, 0, 65, 38
1, 330588, Control_c, 0, 64, 91
1, 330588, Control_c, 0, 67, 82
1, 330603, Control_c, 0, 64, 91
1, 330603, Control_c, 0, 67, 74
1, 330618, Control_c, 0, 64, 92
1, 330618, Control_c, 0, 67, 65
1, 330629, Note_off_c, 0, 59, 37
1, 330633, Control_c, 0, 67, 57
1, 330648, Control_c, 0, 64, 92
1, 330648, Control_c, 0, 67, 48
1, 330658, Note_off_c, 0, 67, 35
1, 330662, Control_c, 0, 64, 93
1, 330662, Control_c, 0, 67, 40
1, 330677, Control_c, 0, 64, 93
1, 330677, Control_c, 0, 67, 31
1, 330692, Control_c, 0, 67, 26
1, 330706, Control_c, 0, 67, 22
1, 330721, Control_c, 0, 67, 19
1, 330730, Note_off_c, 0, 55, 41
1, 330736, Control_c, 0, 64, 94
1, 330736, Control_c, 0, 67, 15
1, 330751, Control_c, 0, 67, 10
1, 330766, Control_c, 0, 67, 0
1, 330770, Note_off_c, 0, 71, 58
1, 330958, Note_on_c, 0, 72, 76
1, 330971, Note_on_c, 0, 67, 62
1, 330973, Control_c, 0, 64, 91
1, 330974, Note_on_c, 0, 55, 47
1, 330977, Note_on_c, 0, 52, 50
1, 330983, Note_on_c, 0, 60, 40
1, 330988, Control_c, 0, 64, 84
1, 331004, Control_c, 0, 64, 68
1, 331019, Control_c, 0, 64, 0
1, 331078, Control_c, 0, 64, 52
1, 331093, Control_c, 0, 64, 68
1, 331108, Control_c, 0, 64, 76
1, 331123, Note_off_c, 0, 55, 64
1, 331129, Control_c, 0, 64, 80
1, 331138, Note_off_c, 0, 52, 62
1, 331144, Control_c, 0, 64, 81
1, 331159, Control_c, 0, 64, 82
1, 331174, Control_c, 0, 64, 82
1, 331186, Note_off_c, 0, 60, 57
1, 331189, Control_c, 0, 64, 84
1, 331194, Note_off_c, 0, 67, 45
1, 331204, Control_c, 0, 64, 85
1, 331209, Note_off_c, 0, 72, 56
1, 331219, Control_c, 0, 64, 87
1, 331234, Control_c, 0, 64, 88
1, 331249, Control_c, 0, 64, 89
1, 331263, Control_c, 0, 64, 90
1, 331278, Control_c, 0, 64, 90
1, 331293, Control_c, 0, 64, 91
1, 331322, Control_c, 0, 64, 91
1, 331347, Note_on_c, 0, 74, 80
1, 331352, Control_c, 0, 64, 91
1, 331361, Note_on_c, 0, 69, 73
1, 331367, Control_c, 0, 64, 87
1, 331374, Note_on_c, 0, 72, 50
1, 331377, Note_on_c, 0, 62, 44
1, 331380, Note_on_c, 0, 53, 42
1, 331380, Note_on_c, 0, 60, 41
1, 331381, Note_on_c, 0, 57, 46
1, 331382, Control_c, 0, 64, 79
1, 331397, Control_c, 0, 64, 59
1, 331411, Control_c, 0, 64, 0
1, 331424, Note_off_c, 0, 62, 0
1, 331424, Note_on_c, 0, 62, 8
1, 331471, Control_c, 0, 64, 56
1, 331485, Control_c, 0, 64, 69
1, 331500, Control_c, 0, 64, 75
1, 331515, Control_c, 0, 64, 79
1, 331529, Control_c, 0, 64, 80
1, 331544, Control_c, 0, 64, 80
1, 331545, Note_off_c, 0, 53, 45
1, 331559, Control_c, 0, 64, 81
1, 331570, Note_off_c, 0, 72, 15
1, 331571, Note_off_c, 0, 69, 60
1, 331574, Control_c, 0, 64, 83
1, 331589, Control_c, 0, 64, 85
1, 331590, Note_off_c, 0, 62, 44
1, 331603, Control_c, 0, 64, 87
1, 331618, Control_c, 0, 64, 88
1, 331633, Control_c, 0, 64, 90
1, 331639, Note_off_c, 0, 60, 31
1, 331648, Control_c, 0, 64, 91
1, 331663, Control_c, 0, 64, 92
1, 331678, Control_c, 0, 64, 94
1, 331678, Note_off_c, 0, 74, 52
1, 331693, Control_c, 0, 64, 95
1, 331708, Control_c, 0, 64, 96
1, 331722, Control_c, 0, 64, 98
1, 331737, Control_c, 0, 64, 99
1, 331752, Control_c, 0, 64, 100
1, 331767, Control_c, 0, 64, 100
1, 331782, Control_c, 0, 64, 101
1, 331812, Control_c, 0, 64, 101
1, 331827, Control_c, 0, 64, 102
1, 331854, Note_off_c, 0, 57, 51
1, 331888, Note_on_c, 0, 76, 87
1, 331894, Control_c, 0, 64, 101
1, 331898, Note_on_c, 0, 55, 49
1, 331899, Note_on_c, 0, 72, 74
1, 331900, Note_on_c, 0, 67, 69
1, 331906, Note_on_c, 0, 64, 45
1, 331907, Note_on_c, 0, 60, 48
1, 331908, Control_c, 0, 64, 99
1, 331923, Control_c, 0, 64, 92
1, 331938, Control_c, 0, 64, 83
1, 331952, Control_c, 0, 64, 70
1, 331967, Control_c, 0, 64, 0
1, 332190, Control_c, 0, 64, 58
1, 332190, Control_c, 0, 67, 9
1, 332205, Control_c, 0, 64, 66
1, 332205, Control_c, 0, 67, 13
1, 332219, Control_c, 0, 64, 70
1, 332219, Control_c, 0, 67, 17
1, 332234, Control_c, 0, 64, 74
1, 332234, Control_c, 0, 67, 22
1, 332250, Control_c, 0, 64, 78
1, 332250, Control_c, 0, 67, 28
1, 332265, Control_c, 0, 64, 80
1, 332265, Control_c, 0, 67, 35
1, 332279, Control_c, 0, 64, 81
1, 332279, Control_c, 0, 67, 42
1, 332294, Control_c, 0, 64, 83
1, 332294, Control_c, 0, 67, 51
1, 332309, Control_c, 0, 64, 85
1, 332309, Control_c, 0, 67, 58
1, 332324, Control_c, 0, 64, 86
1, 332324, Control_c, 0, 67, 66
1, 332339, Control_c, 0, 64, 87
1, 332339, Control_c, 0, 67, 75
1, 332353, Control_c, 0, 64, 89
1, 332353, Control_c, 0, 67, 87
1, 332368, Control_c, 0, 64, 90
1, 332368, Control_c, 0, 67, 98
1, 332383, Control_c, 0, 64, 91
1, 332383, Control_c, 0, 67, 108
1, 332398, Control_c, 0, 64, 91
1, 332398, Control_c, 0, 67, 120
1, 332413, Control_c, 0, 64, 92
1, 332413, Control_c, 0, 67, 127
1, 332421, Note_off_c, 0, 64, 42
1, 332426, Note_off_c, 0, 72, 59
1, 332427, Control_c, 0, 64, 92
1, 332457, Control_c, 0, 64, 93
1, 332501, Control_c, 0, 64, 93
1, 332703, Note_off_c, 0, 76, 58
1, 332703, Control_c, 0, 64, 92
1, 332710, Note_on_c, 0, 74, 59
1, 332718, Control_c, 0, 64, 88
1, 332730, Note_off_c, 0, 60, 30
1, 332732, Control_c, 0, 64, 79
1, 332734, Note_on_c, 0, 59, 38
1, 332744, Note_on_c, 0, 62, 33
1, 332747, Control_c, 0, 64, 64
1, 332762, Control_c, 0, 64, 0
1, 332768, Note_on_c, 0, 71, 21
1, 332831, Note_off_c, 0, 71, 56
1, 332865, Control_c, 0, 64, 44
1, 332880, Control_c, 0, 64, 65
1, 332894, Control_c, 0, 64, 69
1, 332909, Control_c, 0, 64, 73
1, 332924, Control_c, 0, 64, 76
1, 332939, Control_c, 0, 64, 77
1, 332954, Control_c, 0, 64, 79
1, 332969, Control_c, 0, 64, 80
1, 332983, Control_c, 0, 64, 81
1, 332998, Control_c, 0, 64, 82
1, 333009, Note_off_c, 0, 55, 41
1, 333013, Control_c, 0, 64, 83
1, 333028, Control_c, 0, 64, 84
1, 333042, Control_c, 0, 64, 85
1, 333049, Note_off_c, 0, 62, 38
1, 333052, Note_off_c, 0, 59, 40
1, 333057, Control_c, 0, 64, 85
1, 333065, Note_off_c, 0, 67, 31
1, 333072, Control_c, 0, 64, 86
1, 333074, Note_on_c, 0, 79, 64
1, 333081, Note_off_c, 0, 74, 62
1, 333087, Control_c, 0, 64, 86
1, 333116, Control_c, 0, 64, 87
1, 333238, Note_off_c, 0, 79, 56
1, 333246, Note_on_c, 0, 77, 72
1, 333390, Control_c, 0, 64, 86
1, 333391, Note_off_c, 0, 77, 60
1, 333406, Control_c, 0, 64, 85
1, 333421, Control_c, 0, 64, 84
1, 333436, Control_c, 0, 64, 82
1, 333451, Control_c, 0, 64, 79
1, 333466, Control_c, 0, 64, 74
1, 333480, Control_c, 0, 64, 67
1, 333495, Control_c, 0, 64, 0
1, 333518, Note_on_c, 0, 76, 61
1, 333532, Note_on_c, 0, 72, 45
1, 333791, Control_c, 0, 64, 38
1, 333806, Control_c, 0, 64, 43
1, 333821, Control_c, 0, 64, 48
1, 333836, Control_c, 0, 64, 55
1, 333851, Control_c, 0, 64, 61
1, 333865, Control_c, 0, 64, 63
1, 333880, Control_c, 0, 64, 64
1, 333895, Control_c, 0, 64, 65
1, 333910, Control_c, 0, 64, 66
1, 333919, Note_on_c, 0, 88, 56
1, 333924, Control_c, 0, 64, 68
1, 333926, Note_on_c, 0, 84, 46
1, 333939, Control_c, 0, 64, 72
1, 333954, Control_c, 0, 64, 75
1, 333969, Control_c, 0, 64, 79
1, 333984, Control_c, 0, 64, 80
1, 333998, Control_c, 0, 64, 81
1, 334013, Control_c, 0, 64, 81
1, 334028, Control_c, 0, 64, 82
1, 334043, Control_c, 0, 64, 83
1, 334058, Control_c, 0, 64, 84
1, 334071, Note_off_c, 0, 76, 37
1, 334072, Control_c, 0, 64, 84
1, 334087, Control_c, 0, 64, 85
1, 334096, Note_off_c, 0, 84, 38
1, 334102, Control_c, 0, 64, 85
1, 334124, Control_c, 0, 64, 86
1, 334169, Control_c, 0, 64, 86
1, 334188, Note_off_c, 0, 72, 24
1, 334279, Note_off_c, 0, 88, 51
1, 334303, Control_c, 0, 64, 86
1, 334318, Control_c, 0, 64, 85
1, 334330, Note_on_c, 0, 86, 59
1, 334333, Control_c, 0, 64, 84
1, 334335, Note_on_c, 0, 68, 51
1, 334340, Note_on_c, 0, 83, 54
1, 334346, Note_on_c, 0, 74, 44
1, 334347, Control_c, 0, 64, 79
1, 334355, Note_on_c, 0, 77, 38
1, 334362, Control_c, 0, 64, 70
1, 334370, Note_on_c, 0, 71, 13
1, 334377, Control_c, 0, 64, 10
1, 334392, Control_c, 0, 64, 0
1, 334453, Note_off_c, 0, 71, 0
1, 334481, Note_off_c, 0, 83, 57
1, 334481, Control_c, 0, 64, 58
1, 334495, Control_c, 0, 64, 67
1, 334510, Control_c, 0, 64, 71
1, 334513, Note_off_c, 0, 77, 38
1, 334525, Control_c, 0, 64, 75
1, 334539, Control_c, 0, 64, 78
1, 334542, Note_off_c, 0, 74, 43
1, 334554, Control_c, 0, 64, 79
1, 334557, Poly_aftertouch_c, 0, 71, 0
1, 334569, Control_c, 0, 64, 80
1, 334584, Control_c, 0, 64, 80
1, 334597, Note_off_c, 0, 68, 42
1, 334599, Control_c, 0, 64, 81
1, 334614, Control_c, 0, 64, 81
1, 334629, Control_c, 0, 64, 82
1, 334707, Note_off_c, 0, 86, 57
1, 334745, Note_on_c, 0, 84, 60
1, 334747, Control_c, 0, 64, 81
1, 334757, Note_on_c, 0, 69, 45
1, 334759, Note_on_c, 0, 72, 44
1, 334760, Note_on_c, 0, 76, 46
1, 334762, Control_c, 0, 64, 78
1, 334766, Note_on_c, 0, 81, 44
1, 334777, Control_c, 0, 64, 71
1, 334792, Control_c, 0, 64, 56
1, 334807, Control_c, 0, 64, 0
1, 334933, Control_c, 0, 64, 63
1, 334947, Control_c, 0, 64, 67
1, 334950, Note_off_c, 0, 69, 54
1, 334962, Control_c, 0, 64, 70
1, 334966, Note_off_c, 0, 81, 56
1, 334977, Control_c, 0, 64, 73
1, 334981, Note_off_c, 0, 76, 53
1, 334993, Control_c, 0, 64, 75
1, 335007, Control_c, 0, 64, 78
1, 335022, Control_c, 0, 64, 79
1, 335037, Control_c, 0, 64, 80
1, 335052, Control_c, 0, 64, 80
1, 335067, Control_c, 0, 64, 81
1, 335082, Control_c, 0, 64, 82
1, 335097, Control_c, 0, 64, 82
1, 335112, Control_c, 0, 64, 83
1, 335126, Control_c, 0, 64, 83
1, 335164, Note_off_c, 0, 72, 32
1, 335170, Control_c, 0, 64, 84
1, 335240, Note_off_c, 0, 84, 54
1, 335274, Control_c, 0, 64, 83
1, 335287, Note_on_c, 0, 83, 58
1, 335289, Control_c, 0, 64, 81
1, 335292, Note_on_c, 0, 80, 54
1, 335299, Note_on_c, 0, 71, 32
1, 335303, Note_on_c, 0, 64, 34
1, 335303, Control_c, 0, 64, 75
1, 335308, Note_on_c, 0, 74, 37
1, 335317, Note_on_c, 0, 68, 20
1, 335318, Control_c, 0, 64, 62
1, 335333, Control_c, 0, 64, 0
1, 335481, Control_c, 0, 64, 51
1, 335496, Control_c, 0, 64, 64
1, 335511, Control_c, 0, 64, 66
1, 335526, Control_c, 0, 64, 68
1, 335541, Control_c, 0, 64, 70
1, 335556, Control_c, 0, 64, 73
1, 335570, Control_c, 0, 64, 76
1, 335585, Control_c, 0, 64, 79
1, 335600, Control_c, 0, 64, 80
1, 335622, Control_c, 0, 64, 81
1, 335637, Control_c, 0, 64, 82
1, 335651, Control_c, 0, 64, 83
1, 335666, Control_c, 0, 64, 85
1, 335669, Note_off_c, 0, 68, 39
1, 335681, Control_c, 0, 64, 85
1, 335696, Control_c, 0, 64, 86
1, 335726, Control_c, 0, 64, 86
1, 335726, Note_off_c, 0, 74, 40
1, 335745, Note_off_c, 0, 80, 42
1, 335756, Control_c, 0, 64, 87
1, 335830, Control_c, 0, 64, 87
1, 335936, Note_off_c, 0, 71, 25
1, 335980, Note_off_c, 0, 64, 36
1, 336216, Note_off_c, 0, 83, 35
1, 336216, Control_c, 0, 64, 87
1, 336237, Note_on_c, 0, 81, 52
1, 336246, Control_c, 0, 64, 85
1, 336261, Control_c, 0, 64, 82
1, 336265, Note_on_c, 0, 69, 32
1, 336266, Note_on_c, 0, 65, 34
1, 336275, Control_c, 0, 64, 75
1, 336280, Note_on_c, 0, 72, 24
1, 336290, Control_c, 0, 64, 64
1, 336305, Control_c, 0, 64, 0
1, 336460, Control_c, 0, 64, 54
1, 336475, Control_c, 0, 64, 64
1, 336490, Control_c, 0, 64, 66
1, 336505, Control_c, 0, 64, 68
1, 336519, Control_c, 0, 64, 70
1, 336534, Control_c, 0, 64, 73
1, 336544, Note_off_c, 0, 69, 38
1, 336549, Control_c, 0, 64, 76
1, 336564, Control_c, 0, 64, 80
1, 336574, Note_off_c, 0, 72, 34
1, 336579, Control_c, 0, 64, 81
1, 336595, Control_c, 0, 64, 82
1, 336622, Note_off_c, 0, 81, 36
1, 336624, Control_c, 0, 64, 82
1, 336639, Control_c, 0, 64, 83
1, 336669, Control_c, 0, 64, 83
1, 336693, Note_off_c, 0, 65, 38
1, 336728, Control_c, 0, 64, 84
1, 337268, Control_c, 0, 64, 83
1, 337272, Note_on_c, 0, 79, 64
1, 337280, Note_on_c, 0, 60, 40
1, 337283, Control_c, 0, 64, 82
1, 337291, Note_on_c, 0, 76, 48
1, 337294, Note_on_c, 0, 55, 33
1, 337298, Control_c, 0, 64, 80
1, 337310, Note_on_c, 0, 72, 32
1, 337313, Control_c, 0, 64, 76
1, 337321, Note_on_c, 0, 64, 21
1, 337328, Control_c, 0, 64, 65
1, 337342, Control_c, 0, 64, 0
1, 337349, Note_off_c, 0, 76, 0
1, 337349, Note_on_c, 0, 76, 7
1, 337431, Note_off_c, 0, 76, 54
1, 337433, Control_c, 0, 64, 44
1, 337447, Control_c, 0, 64, 64
1, 337462, Control_c, 0, 64, 68
1, 337477, Control_c, 0, 64, 71
1, 337483, Note_off_c, 0, 64, 43
1, 337491, Control_c, 0, 64, 75
1, 337503, Note_off_c, 0, 72, 41
1, 337505, Control_c, 0, 64, 77
1, 337520, Control_c, 0, 64, 79
1, 337535, Control_c, 0, 64, 79
1, 337550, Control_c, 0, 64, 80
1, 337565, Control_c, 0, 64, 81
1, 337580, Control_c, 0, 64, 81
1, 337595, Control_c, 0, 64, 82
1, 337610, Control_c, 0, 64, 82
1, 337696, Note_on_c, 0, 77, 67
1, 337707, Note_on_c, 0, 74, 56
1, 337709, Note_on_c, 0, 62, 49
1, 337713, Note_on_c, 0, 65, 44
1, 337717, Note_off_c, 0, 60, 41
1, 337728, Control_c, 0, 64, 80
1, 337743, Control_c, 0, 64, 75
1, 337757, Control_c, 0, 64, 66
1, 337772, Control_c, 0, 64, 0
1, 337869, Control_c, 0, 64, 22
1, 337884, Control_c, 0, 64, 62
1, 337898, Control_c, 0, 64, 67
1, 337913, Control_c, 0, 64, 70
1, 337928, Control_c, 0, 64, 73
1, 337943, Control_c, 0, 64, 75
1, 337958, Control_c, 0, 64, 77
1, 337972, Control_c, 0, 64, 77
1, 337987, Control_c, 0, 64, 78
1, 338002, Control_c, 0, 64, 78
1, 338017, Control_c, 0, 64, 79
1, 338046, Control_c, 0, 64, 79
1, 338076, Control_c, 0, 64, 80
1, 338189, Note_on_c, 0, 81, 69
1, 338218, Note_off_c, 0, 79, 54
1, 338239, Control_c, 0, 64, 79
1, 338254, Control_c, 0, 64, 78
1, 338269, Control_c, 0, 64, 75
1, 338284, Control_c, 0, 64, 70
1, 338298, Control_c, 0, 64, 62
1, 338313, Control_c, 0, 64, 0
1, 338491, Control_c, 0, 64, 31
1, 338505, Control_c, 0, 64, 42
1, 338520, Control_c, 0, 64, 43
1, 338535, Control_c, 0, 64, 44
1, 338550, Control_c, 0, 64, 46
1, 338565, Control_c, 0, 64, 54
1, 338579, Control_c, 0, 64, 59
1, 338594, Control_c, 0, 64, 61
1, 338617, Control_c, 0, 64, 62
1, 338661, Control_c, 0, 64, 63
1, 338691, Control_c, 0, 64, 63
1, 338824, Control_c, 0, 64, 63
1, 338838, Control_c, 0, 64, 62
1, 338853, Control_c, 0, 64, 61
1, 338865, Note_on_c, 0, 83, 48
1, 338868, Control_c, 0, 64, 58
1, 338883, Control_c, 0, 64, 46
1, 338898, Control_c, 0, 64, 0
1, 338964, Note_off_c, 0, 81, 51
1, 339136, Control_c, 0, 64, 44
1, 339151, Control_c, 0, 64, 62
1, 339166, Control_c, 0, 64, 65
1, 339181, Control_c, 0, 64, 67
1, 339196, Control_c, 0, 64, 68
1, 339211, Control_c, 0, 64, 70
1, 339225, Control_c, 0, 64, 73
1, 339240, Control_c, 0, 64, 76
1, 339255, Control_c, 0, 64, 78
1, 339270, Control_c, 0, 64, 79
1, 339285, Control_c, 0, 64, 80
1, 339300, Control_c, 0, 64, 80
1, 339315, Control_c, 0, 64, 81
1, 339329, Control_c, 0, 64, 82
1, 339344, Control_c, 0, 64, 82
1, 339367, Note_off_c, 0, 77, 54
1, 339381, Control_c, 0, 64, 83
1, 339390, Note_off_c, 0, 74, 41
1, 339395, Note_off_c, 0, 65, 38
1, 339410, Control_c, 0, 64, 83
1, 339417, Note_off_c, 0, 83, 57
1, 339425, Control_c, 0, 64, 84
1, 339440, Control_c, 0, 64, 84
1, 339441, Note_off_c, 0, 62, 51
1, 339530, Control_c, 0, 64, 85
1, 339693, Note_off_c, 0, 55, 42
1, 339840, Control_c, 0, 64, 85
1, 340278, Control_c, 0, 64, 85
1, 340278, Note_on_c, 0, 67, 57
1, 340287, Note_on_c, 0, 43, 35
1, 340292, Control_c, 0, 64, 84
1, 340293, Note_on_c, 0, 64, 50
1, 340294, Note_on_c, 0, 52, 31
1, 340296, Note_on_c, 0, 48, 46
1, 340298, Note_on_c, 0, 60, 42
1, 340307, Control_c, 0, 64, 84
1, 340322, Control_c, 0, 64, 82
1, 340337, Control_c, 0, 64, 80
1, 340352, Control_c, 0, 64, 76
1, 340366, Control_c, 0, 64, 69
1, 340381, Control_c, 0, 64, 0
1, 340484, Control_c, 0, 64, 58
1, 340499, Control_c, 0, 64, 66
1, 340514, Control_c, 0, 64, 69
1, 340529, Control_c, 0, 64, 71
1, 340535, Note_off_c, 0, 64, 64
1, 340544, Control_c, 0, 64, 73
1, 340558, Control_c, 0, 64, 75
1, 340560, Note_off_c, 0, 60, 57
1, 340573, Control_c, 0, 64, 78
1, 340587, Note_off_c, 0, 52, 43
1, 340589, Control_c, 0, 64, 79
1, 340604, Control_c, 0, 64, 80
1, 340619, Control_c, 0, 64, 80
1, 340634, Control_c, 0, 64, 81
1, 340649, Control_c, 0, 64, 82
1, 340678, Control_c, 0, 64, 82
1, 340693, Control_c, 0, 64, 83
1, 340774, Note_on_c, 0, 65, 68
1, 340782, Note_on_c, 0, 62, 61
1, 340790, Note_on_c, 0, 50, 54
1, 340793, Note_on_c, 0, 53, 50
1, 340811, Control_c, 0, 64, 81
1, 340826, Control_c, 0, 64, 77
1, 340841, Control_c, 0, 64, 71
1, 340863, Note_off_c, 0, 48, 42
1, 340863, Control_c, 0, 64, 55
1, 340878, Control_c, 0, 64, 0
1, 341026, Control_c, 0, 64, 56
1, 341041, Control_c, 0, 64, 62
1, 341056, Control_c, 0, 64, 63
1, 341071, Control_c, 0, 64, 64
1, 341086, Control_c, 0, 64, 66
1, 341100, Control_c, 0, 64, 68
1, 341115, Control_c, 0, 64, 71
1, 341130, Control_c, 0, 64, 74
1, 341145, Control_c, 0, 64, 76
1, 341160, Control_c, 0, 64, 77
1, 341175, Control_c, 0, 64, 78
1, 341189, Control_c, 0, 64, 79
1, 341204, Control_c, 0, 64, 79
1, 341219, Control_c, 0, 64, 80
1, 341233, Control_c, 0, 64, 80
1, 341248, Control_c, 0, 64, 81
1, 341263, Control_c, 0, 64, 82
1, 341278, Control_c, 0, 64, 82
1, 341293, Control_c, 0, 64, 83
1, 341322, Control_c, 0, 64, 83
1, 341352, Control_c, 0, 64, 84
1, 341427, Control_c, 0, 64, 84
1, 341612, Control_c, 0, 64, 85
1, 342009, Note_off_c, 0, 67, 38
1, 342107, Note_on_c, 0, 68, 69
1, 343762, Control_c, 0, 64, 84
1, 343792, Control_c, 0, 64, 84
1, 343807, Control_c, 0, 64, 83
1, 343811, Note_on_c, 0, 71, 45
1, 343822, Control_c, 0, 64, 81
1, 343837, Control_c, 0, 64, 79
1, 343858, Control_c, 0, 64, 76
1, 343873, Control_c, 0, 64, 72
1, 343888, Control_c, 0, 64, 65
1, 343903, Control_c, 0, 64, 29
1, 343918, Control_c, 0, 64, 0
1, 343925, Note_off_c, 0, 68, 51
1, 344481, Control_c, 0, 64, 50
1, 344496, Control_c, 0, 64, 60
1, 344511, Control_c, 0, 64, 61
1, 344525, Control_c, 0, 64, 62
1, 344540, Control_c, 0, 64, 64
1, 344555, Control_c, 0, 64, 66
1, 344570, Control_c, 0, 64, 67
1, 344585, Control_c, 0, 64, 69
1, 344608, Control_c, 0, 64, 72
1, 344623, Control_c, 0, 64, 74
1, 344637, Control_c, 0, 64, 76
1, 344652, Control_c, 0, 64, 78
1, 344667, Control_c, 0, 64, 79
1, 344681, Control_c, 0, 64, 80
1, 344696, Control_c, 0, 64, 81
1, 344711, Control_c, 0, 64, 82
1, 344726, Control_c, 0, 64, 84
1, 344741, Control_c, 0, 64, 85
1, 344755, Control_c, 0, 64, 86
1, 344770, Control_c, 0, 64, 87
1, 344785, Control_c, 0, 64, 88
1, 344800, Control_c, 0, 64, 89
1, 344815, Control_c, 0, 64, 90
1, 344827, Note_off_c, 0, 62, 33
1, 344830, Control_c, 0, 64, 90
1, 344844, Note_off_c, 0, 53, 40
1, 344844, Control_c, 0, 64, 91
1, 344859, Control_c, 0, 64, 91
1, 344874, Control_c, 0, 64, 92
1, 344886, Note_off_c, 0, 65, 46
1, 344889, Control_c, 0, 64, 92
1, 344904, Control_c, 0, 64, 93
1, 344919, Control_c, 0, 64, 94
1, 344934, Control_c, 0, 64, 94
1, 344946, Note_off_c, 0, 50, 40
1, 344948, Control_c, 0, 64, 95
1, 344967, Note_off_c, 0, 71, 36
1, 344978, Control_c, 0, 64, 95
1, 344993, Control_c, 0, 64, 96
1, 345008, Control_c, 0, 64, 96
1, 345022, Control_c, 0, 64, 97
1, 345037, Control_c, 0, 64, 97
1, 345052, Control_c, 0, 64, 98
1, 345067, Control_c, 0, 64, 98
1, 345096, Control_c, 0, 64, 99
1, 345111, Control_c, 0, 64, 99
1, 345155, Control_c, 0, 64, 100
1, 345185, Control_c, 0, 64, 100
1, 345202, Note_off_c, 0, 43, 39
1, 345215, Control_c, 0, 64, 101
1, 345259, Control_c, 0, 64, 101
1, 345274, Control_c, 0, 64, 102
1, 345333, Control_c, 0, 64, 102
1, 345370, Control_c, 0, 64, 103
1, 345460, Control_c, 0, 64, 103
1, 345990, Note_on_c, 0, 55, 54
1, 345994, Note_on_c, 0, 52, 50
1, 345994, Control_c, 0, 64, 103
1, 345996, Note_on_c, 0, 31, 50
1, 345998, Note_on_c, 0, 48, 44
1, 345999, Note_on_c, 0, 40, 45
1, 346001, Note_on_c, 0, 36, 47
1, 346009, Control_c, 0, 64, 101
1, 346023, Control_c, 0, 64, 99
1, 346038, Control_c, 0, 64, 96
1, 346053, Control_c, 0, 64, 91
1, 346068, Control_c, 0, 64, 85
1, 346083, Control_c, 0, 64, 76
1, 346105, Control_c, 0, 64, 64
1, 346120, Control_c, 0, 64, 0
1, 346195, Control_c, 0, 64, 32
1, 346210, Control_c, 0, 64, 61
1, 346225, Control_c, 0, 64, 66
1, 346240, Control_c, 0, 64, 69
1, 346254, Control_c, 0, 64, 72
1, 346269, Control_c, 0, 64, 76
1, 346284, Control_c, 0, 64, 78
1, 346299, Control_c, 0, 64, 80
1, 346314, Control_c, 0, 64, 81
1, 346320, Note_off_c, 0, 52, 59
1, 346328, Control_c, 0, 64, 83
1, 346343, Control_c, 0, 64, 84
1, 346358, Control_c, 0, 64, 85
1, 346373, Control_c, 0, 64, 86
1, 346374, Note_off_c, 0, 48, 42
1, 346388, Control_c, 0, 64, 87
1, 346401, Note_off_c, 0, 40, 41
1, 346402, Control_c, 0, 64, 88
1, 346417, Control_c, 0, 64, 88
1, 346461, Control_c, 0, 64, 89
1, 346597, Note_on_c, 0, 53, 69
1, 346609, Control_c, 0, 64, 87
1, 346610, Note_on_c, 0, 38, 65
1, 346610, Note_on_c, 0, 41, 67
1, 346610, Note_on_c, 0, 50, 65
1, 346624, Control_c, 0, 64, 84
1, 346639, Control_c, 0, 64, 78
1, 346654, Control_c, 0, 64, 70
1, 346668, Note_off_c, 0, 36, 43
1, 346669, Control_c, 0, 64, 44
1, 346684, Control_c, 0, 64, 0
1, 346854, Control_c, 0, 64, 39
1, 346869, Control_c, 0, 64, 56
1, 346883, Control_c, 0, 64, 60
1, 346898, Control_c, 0, 64, 63
1, 346913, Control_c, 0, 64, 64
1, 346928, Control_c, 0, 64, 66
1, 346943, Control_c, 0, 64, 68
1, 346958, Control_c, 0, 64, 71
1, 346973, Control_c, 0, 64, 73
1, 346988, Control_c, 0, 64, 76
1, 347003, Control_c, 0, 64, 77
1, 347018, Control_c, 0, 64, 78
1, 347032, Control_c, 0, 64, 78
1, 347047, Control_c, 0, 64, 79
1, 347062, Control_c, 0, 64, 80
1, 347077, Control_c, 0, 64, 80
1, 347092, Control_c, 0, 64, 81
1, 347107, Control_c, 0, 64, 82
1, 347122, Control_c, 0, 64, 83
1, 347137, Control_c, 0, 64, 83
1, 347151, Control_c, 0, 64, 84
1, 347166, Control_c, 0, 64, 84
1, 347181, Control_c, 0, 64, 85
1, 347196, Control_c, 0, 64, 85
1, 347211, Control_c, 0, 64, 86
1, 347225, Control_c, 0, 64, 87
1, 347240, Control_c, 0, 64, 87
1, 347255, Control_c, 0, 64, 88
1, 347270, Control_c, 0, 64, 88
1, 347284, Control_c, 0, 64, 89
1, 347299, Control_c, 0, 64, 90
1, 347314, Control_c, 0, 64, 90
1, 347329, Control_c, 0, 64, 91
1, 347344, Control_c, 0, 64, 91
1, 347358, Control_c, 0, 64, 92
1, 347373, Control_c, 0, 64, 92
1, 347403, Control_c, 0, 64, 93
1, 347432, Control_c, 0, 64, 93
1, 347477, Control_c, 0, 64, 94
1, 347506, Control_c, 0, 64, 94
1, 347536, Control_c, 0, 64, 95
1, 347551, Control_c, 0, 64, 95
1, 347566, Control_c, 0, 64, 96
1, 347602, Control_c, 0, 64, 96
1, 347617, Control_c, 0, 64, 97
1, 347647, Control_c, 0, 64, 97
1, 347662, Control_c, 0, 64, 98
1, 347691, Control_c, 0, 64, 98
1, 347706, Control_c, 0, 64, 99
1, 347736, Control_c, 0, 64, 99
1, 347766, Control_c, 0, 64, 100
1, 347796, Control_c, 0, 64, 100
1, 347826, Control_c, 0, 64, 101
1, 347841, Control_c, 0, 64, 101
1, 347870, Control_c, 0, 64, 102
1, 347885, Control_c, 0, 64, 102
1, 347915, Control_c, 0, 64, 103
1, 347945, Control_c, 0, 64, 103
1, 347973, Control_c, 0, 64, 104
1, 347999, Note_on_c, 0, 57, 74
1, 348103, Note_off_c, 0, 55, 63
1, 348425, Control_c, 0, 64, 104
1, 348603, Control_c, 0, 64, 105
1, 348663, Control_c, 0, 64, 105
1, 348678, Control_c, 0, 64, 106
1, 348723, Control_c, 0, 64, 106
1, 348812, Control_c, 0, 64, 107
1, 348975, Control_c, 0, 64, 107
1, 349145, Control_c, 0, 64, 108
1, 349968, Control_c, 0, 64, 107
1, 350145, Control_c, 0, 64, 107
1, 350280, Control_c, 0, 64, 106
1, 350324, Control_c, 0, 64, 106
1, 350338, Note_on_c, 0, 59, 47
1, 350339, Control_c, 0, 64, 105
1, 350354, Control_c, 0, 64, 103
1, 350368, Control_c, 0, 64, 101
1, 350383, Control_c, 0, 64, 96
1, 350398, Control_c, 0, 64, 91
1, 350413, Control_c, 0, 64, 85
1, 350428, Control_c, 0, 64, 78
1, 350443, Control_c, 0, 64, 70
1, 350458, Control_c, 0, 64, 52
1, 350472, Control_c, 0, 64, 0
1, 350487, Note_off_c, 0, 57, 58
1, 350835, Control_c, 0, 64, 32
1, 350850, Control_c, 0, 64, 42
1, 350865, Control_c, 0, 64, 46
1, 350880, Control_c, 0, 64, 48
1, 350894, Control_c, 0, 64, 50
1, 350909, Control_c, 0, 64, 51
1, 350924, Control_c, 0, 64, 53
1, 350939, Control_c, 0, 64, 54
1, 350954, Control_c, 0, 64, 56
1, 350968, Control_c, 0, 64, 57
1, 350983, Control_c, 0, 64, 58
1, 350997, Control_c, 0, 64, 59
1, 351012, Control_c, 0, 64, 60
1, 351027, Control_c, 0, 64, 61
1, 351042, Control_c, 0, 64, 62
1, 351057, Control_c, 0, 64, 63
1, 351072, Control_c, 0, 64, 64
1, 351086, Control_c, 0, 64, 64
1, 351101, Control_c, 0, 64, 65
1, 351116, Control_c, 0, 64, 66
1, 351131, Control_c, 0, 64, 66
1, 351146, Control_c, 0, 64, 67
1, 351161, Control_c, 0, 64, 68
1, 351176, Control_c, 0, 64, 69
1, 351190, Control_c, 0, 64, 71
1, 351205, Control_c, 0, 64, 72
1, 351220, Control_c, 0, 64, 74
1, 351235, Control_c, 0, 64, 75
1, 351249, Control_c, 0, 64, 75
1, 351264, Control_c, 0, 64, 76
1, 351279, Control_c, 0, 64, 77
1, 351294, Control_c, 0, 64, 77
1, 351309, Control_c, 0, 64, 78
1, 351346, Control_c, 0, 64, 78
1, 351361, Control_c, 0, 64, 79
1, 351391, Control_c, 0, 64, 79
1, 351405, Control_c, 0, 64, 80
1, 351435, Control_c, 0, 64, 80
1, 351449, Control_c, 0, 64, 81
1, 351464, Control_c, 0, 64, 81
1, 351479, Control_c, 0, 64, 82
1, 351494, Control_c, 0, 64, 82
1, 351509, Control_c, 0, 64, 83
1, 351523, Control_c, 0, 64, 83
1, 351538, Control_c, 0, 64, 84
1, 351553, Control_c, 0, 64, 84
1, 351568, Control_c, 0, 64, 85
1, 351583, Control_c, 0, 64, 85
1, 351597, Control_c, 0, 64, 86
1, 351612, Control_c, 0, 64, 86
1, 351627, Control_c, 0, 64, 87
1, 351641, Control_c, 0, 64, 88
1, 351656, Control_c, 0, 64, 88
1, 351671, Control_c, 0, 64, 89
1, 351686, Control_c, 0, 64, 89
1, 351701, Control_c, 0, 64, 90
1, 351715, Control_c, 0, 64, 90
1, 351730, Control_c, 0, 64, 91
1, 351745, Control_c, 0, 64, 92
1, 351761, Control_c, 0, 64, 92
1, 351776, Control_c, 0, 64, 93
1, 351791, Control_c, 0, 64, 94
1, 351806, Control_c, 0, 64, 94
1, 351820, Control_c, 0, 64, 95
1, 351835, Control_c, 0, 64, 95
1, 351850, Control_c, 0, 64, 96
1, 351865, Control_c, 0, 64, 97
1, 351879, Control_c, 0, 64, 97
1, 351894, Control_c, 0, 64, 98
1, 351909, Control_c, 0, 64, 98
1, 351924, Control_c, 0, 64, 99
1, 351939, Control_c, 0, 64, 99
1, 351954, Control_c, 0, 64, 100
1, 351969, Control_c, 0, 64, 100
1, 351970, Note_off_c, 0, 31, 38
1, 351984, Control_c, 0, 64, 101
1, 351999, Control_c, 0, 64, 101
1, 351999, Note_off_c, 0, 38, 35
1, 352028, Control_c, 0, 64, 102
1, 352043, Control_c, 0, 64, 102
1, 352059, Note_off_c, 0, 53, 37
1, 352072, Control_c, 0, 64, 103
1, 352112, Note_off_c, 0, 41, 43
1, 352154, Control_c, 0, 64, 103
1, 352205, Note_off_c, 0, 50, 17
1, 352289, Note_off_c, 0, 59, 33
1, 353364, Control_c, 0, 64, 103
1, 353393, Control_c, 0, 64, 102
1, 353408, Control_c, 0, 64, 100
1, 353423, Control_c, 0, 64, 96
1, 353437, Control_c, 0, 64, 90
1, 353445, Note_on_c, 0, 60, 38
1, 353452, Control_c, 0, 64, 82
1, 353456, Note_on_c, 0, 36, 34
1, 353458, Note_on_c, 0, 48, 36
1, 353467, Control_c, 0, 64, 70
1, 353482, Note_on_c, 0, 52, 32
1, 353482, Control_c, 0, 64, 0
1, 353556, Control_c, 0, 64, 38
1, 353571, Control_c, 0, 64, 64
1, 353593, Control_c, 0, 64, 70
1, 353608, Control_c, 0, 64, 73
1, 353611, Note_off_c, 0, 36, 55
1, 353619, Note_off_c, 0, 52, 51
1, 353623, Control_c, 0, 64, 76
1, 353638, Control_c, 0, 64, 78
1, 353652, Control_c, 0, 64, 79
1, 353667, Control_c, 0, 64, 79
1, 353668, Note_off_c, 0, 48, 38
1, 353672, Note_off_c, 0, 60, 61
1, 353682, Control_c, 0, 64, 80
1, 353697, Control_c, 0, 64, 81
1, 353712, Control_c, 0, 64, 81
1, 353918, Control_c, 0, 64, 80
1, 353933, Control_c, 0, 64, 76
1, 353945, Note_on_c, 0, 64, 50
1, 353948, Note_on_c, 0, 48, 45
1, 353948, Control_c, 0, 64, 67
1, 353957, Note_on_c, 0, 55, 31
1, 353962, Control_c, 0, 64, 0
1, 353972, Note_off_c, 0, 64, 57
1, 353975, Note_off_c, 0, 48, 56
1, 353990, Note_off_c, 0, 55, 45
1, 354076, Note_on_c, 0, 64, 51
1, 354079, Note_on_c, 0, 48, 33
1, 354082, Note_on_c, 0, 55, 45
1, 354109, Note_off_c, 0, 55, 56
1, 354115, Note_off_c, 0, 48, 48
1, 354116, Note_off_c, 0, 64, 63
1, 354207, Note_on_c, 0, 48, 49
1, 354207, Note_on_c, 0, 55, 47
1, 354211, Note_on_c, 0, 64, 53
1, 354234, Note_off_c, 0, 48, 61
1, 354234, Note_off_c, 0, 55, 56
1, 354240, Note_off_c, 0, 64, 61
1, 354330, Note_on_c, 0, 64, 64
1, 354331, Note_on_c, 0, 48, 52
1, 354345, Note_on_c, 0, 55, 41
1, 354369, Note_off_c, 0, 48, 64
1, 354372, Note_off_c, 0, 55, 56
1, 354376, Note_on_c, 0, 60, 10
1, 354380, Note_off_c, 0, 64, 58
1, 354419, Note_off_c, 0, 60, 28
1, 354467, Note_on_c, 0, 48, 52
1, 354470, Note_on_c, 0, 55, 40
1, 354487, Note_on_c, 0, 64, 51
1, 354497, Note_off_c, 0, 48, 64
1, 354500, Note_off_c, 0, 55, 56
1, 354510, Note_off_c, 0, 64, 62
1, 354602, Note_on_c, 0, 64, 58
1, 354610, Note_on_c, 0, 48, 42
1, 354610, Note_on_c, 0, 55, 34
1, 354640, Note_off_c, 0, 64, 63
1, 354640, Note_off_c, 0, 48, 52
1, 354643, Note_off_c, 0, 55, 47
1, 354725, Note_on_c, 0, 55, 57
1, 354729, Note_on_c, 0, 48, 53
1, 354729, Note_on_c, 0, 64, 60
1, 354753, Note_off_c, 0, 55, 62
1, 354757, Note_off_c, 0, 48, 62
1, 354765, Note_off_c, 0, 64, 62
1, 354863, Note_on_c, 0, 64, 57
1, 354870, Note_on_c, 0, 48, 48
1, 354888, Note_on_c, 0, 60, 37
1, 354897, Note_off_c, 0, 48, 57
1, 354899, Note_off_c, 0, 64, 63
1, 354918, Note_off_c, 0, 60, 34
1, 354997, Note_on_c, 0, 64, 55
1, 355004, Note_on_c, 0, 60, 53
1, 355025, Note_off_c, 0, 60, 60
1, 355033, Note_off_c, 0, 64, 65
1, 355135, Note_on_c, 0, 64, 62
1, 355143, Note_on_c, 0, 60, 40
1, 355170, Note_off_c, 0, 60, 56
1, 355171, Note_on_c, 0, 48, 30
1, 355171, Note_off_c, 0, 64, 63
1, 355210, Note_off_c, 0, 48, 30
1, 355268, Note_on_c, 0, 64, 60
1, 355269, Note_on_c, 0, 60, 50
1, 355278, Note_on_c, 0, 48, 42
1, 355296, Note_off_c, 0, 60, 57
1, 355302, Note_off_c, 0, 64, 63
1, 355307, Note_off_c, 0, 48, 51
1, 355391, Note_on_c, 0, 48, 60
1, 355394, Note_on_c, 0, 64, 62
1, 355397, Note_on_c, 0, 60, 52
1, 355412, Note_on_c, 0, 55, 48
1, 355430, Note_off_c, 0, 48, 63
1, 355431, Note_off_c, 0, 64, 62
1, 355433, Note_off_c, 0, 60, 64
1, 355442, Note_off_c, 0, 55, 35
1, 355517, Note_on_c, 0, 60, 59
1, 355518, Note_on_c, 0, 48, 63
1, 355518, Note_on_c, 0, 55, 60
1, 355526, Note_on_c, 0, 64, 58
1, 355543, Note_off_c, 0, 55, 63
1, 355548, Note_off_c, 0, 60, 64
1, 355551, Note_off_c, 0, 64, 64
1, 355554, Note_off_c, 0, 48, 64
1, 355642, Note_on_c, 0, 66, 71
1, 355643, Note_on_c, 0, 48, 70
1, 355652, Note_on_c, 0, 62, 67
1, 355656, Note_on_c, 0, 57, 50
1, 355676, Note_off_c, 0, 48, 66
1, 355677, Note_off_c, 0, 66, 62
1, 355678, Note_off_c, 0, 57, 56
1, 355681, Note_off_c, 0, 62, 64
1, 355748, Note_on_c, 0, 62, 64
1, 355752, Note_on_c, 0, 66, 72
1, 355756, Note_on_c, 0, 57, 64
1, 355758, Note_on_c, 0, 48, 71
1, 355775, Note_off_c, 0, 62, 62
1, 355787, Note_off_c, 0, 57, 63
1, 355790, Note_off_c, 0, 48, 64
1, 355796, Note_off_c, 0, 66, 63
1, 355895, Note_on_c, 0, 47, 74
1, 355898, Note_on_c, 0, 55, 66
1, 355898, Note_on_c, 0, 67, 79
1, 355899, Control_c, 0, 64, 74
1, 355907, Note_on_c, 0, 50, 51
1, 355913, Control_c, 0, 64, 80
1, 355917, Note_off_c, 0, 55, 63
1, 355927, Note_off_c, 0, 47, 63
1, 355928, Control_c, 0, 64, 82
1, 355933, Note_off_c, 0, 50, 55
1, 355960, Note_off_c, 0, 67, 59
1, 355973, Control_c, 0, 64, 83
1, 355987, Control_c, 0, 64, 85
1, 356002, Control_c, 0, 64, 86
1, 356017, Control_c, 0, 64, 87
1, 356032, Control_c, 0, 64, 88
1, 356032, Control_c, 0, 67, 115
1, 356044, Note_on_c, 0, 71, 62
1, 356046, Note_on_c, 0, 55, 50
1, 356047, Control_c, 0, 67, 101
1, 356050, Note_on_c, 0, 47, 48
1, 356056, Note_on_c, 0, 50, 32
1, 356062, Control_c, 0, 64, 87
1, 356062, Control_c, 0, 67, 86
1, 356069, Note_off_c, 0, 55, 61
1, 356077, Control_c, 0, 64, 80
1, 356077, Control_c, 0, 67, 63
1, 356085, Note_on_c, 0, 69, 75
1, 356086, Note_off_c, 0, 71, 61
1, 356088, Note_off_c, 0, 47, 51
1, 356088, Note_off_c, 0, 50, 47
1, 356092, Control_c, 0, 64, 66
1, 356092, Control_c, 0, 67, 39
1, 356102, Note_off_c, 0, 69, 69
1, 356106, Control_c, 0, 64, 0
1, 356106, Control_c, 0, 67, 13
1, 356121, Control_c, 0, 67, 0
1, 356148, Note_on_c, 0, 67, 81
1, 356161, Note_on_c, 0, 47, 67
1, 356161, Note_on_c, 0, 55, 54
1, 356162, Note_on_c, 0, 50, 65
1, 356169, Note_off_c, 0, 67, 70
1, 356190, Note_off_c, 0, 55, 66
1, 356194, Note_off_c, 0, 50, 64
1, 356199, Note_off_c, 0, 47, 59
1, 356273, Note_on_c, 0, 55, 61
1, 356275, Note_on_c, 0, 50, 59
1, 356277, Note_on_c, 0, 47, 69
1, 356294, Note_off_c, 0, 55, 63
1, 356298, Note_off_c, 0, 50, 58
1, 356309, Note_off_c, 0, 47, 61
1, 356388, Control_c, 0, 64, 71
1, 356391, Note_on_c, 0, 55, 73
1, 356393, Note_on_c, 0, 46, 84
1, 356394, Note_on_c, 0, 72, 95
1, 356397, Note_on_c, 0, 48, 75
1, 356403, Control_c, 0, 64, 102
1, 356418, Control_c, 0, 64, 115
1, 356422, Note_off_c, 0, 55, 65
1, 356425, Note_off_c, 0, 48, 67
1, 356429, Note_off_c, 0, 46, 62
1, 356447, Control_c, 0, 64, 115
1, 356450, Note_off_c, 0, 72, 62
1, 356462, Control_c, 0, 64, 116
1, 356477, Control_c, 0, 64, 118
1, 356492, Control_c, 0, 64, 121
1, 356506, Control_c, 0, 64, 123
1, 356521, Control_c, 0, 64, 127
1, 356528, Note_on_c, 0, 46, 77
1, 356533, Note_on_c, 0, 76, 73
1, 356534, Note_on_c, 0, 55, 70
1, 356536, Control_c, 0, 64, 127
1, 356541, Note_on_c, 0, 48, 49
1, 356559, Note_off_c, 0, 55, 71
1, 356561, Note_off_c, 0, 46, 62
1, 356562, Note_off_c, 0, 48, 65
1, 356588, Note_on_c, 0, 74, 78
1, 356589, Control_c, 0, 64, 121
1, 356595, Note_off_c, 0, 76, 66
1, 356604, Control_c, 0, 64, 105
1, 356610, Note_off_c, 0, 74, 67
1, 356619, Control_c, 0, 64, 87
1, 356634, Control_c, 0, 64, 65
1, 356649, Control_c, 0, 64, 0
1, 356656, Note_on_c, 0, 72, 85
1, 356658, Note_on_c, 0, 48, 71
1, 356661, Note_on_c, 0, 46, 74
1, 356664, Note_on_c, 0, 55, 76
1, 356679, Note_off_c, 0, 72, 67
1, 356693, Note_off_c, 0, 55, 66
1, 356694, Note_off_c, 0, 46, 62
1, 356701, Note_off_c, 0, 48, 67
1, 356766, Note_on_c, 0, 55, 70
1, 356770, Note_on_c, 0, 48, 66
1, 356780, Note_on_c, 0, 46, 57
1, 356799, Note_off_c, 0, 55, 66
1, 356804, Note_off_c, 0, 48, 65
1, 356815, Note_off_c, 0, 46, 63
1, 356885, Control_c, 0, 64, 39
1, 356896, Note_on_c, 0, 53, 96
1, 356896, Note_on_c, 0, 77, 101
1, 356899, Note_on_c, 0, 45, 90
1, 356900, Note_on_c, 0, 48, 87
1, 356900, Control_c, 0, 64, 101
1, 356915, Control_c, 0, 64, 127
1, 356930, Note_off_c, 0, 48, 64
1, 356934, Note_off_c, 0, 53, 60
1, 356935, Note_off_c, 0, 45, 63
1, 356965, Note_off_c, 0, 77, 54
1, 357033, Note_on_c, 0, 48, 80
1, 357033, Note_on_c, 0, 45, 81
1, 357036, Note_on_c, 0, 53, 82
1, 357040, Note_on_c, 0, 81, 77
1, 357061, Note_off_c, 0, 48, 68
1, 357061, Note_off_c, 0, 53, 67
1, 357063, Control_c, 0, 64, 108
1, 357076, Note_off_c, 0, 45, 63
1, 357078, Control_c, 0, 64, 78
1, 357088, Note_on_c, 0, 79, 81
1, 357093, Control_c, 0, 64, 0
1, 357099, Note_off_c, 0, 81, 60
1, 357111, Note_off_c, 0, 79, 65
1, 357150, Note_on_c, 0, 48, 85
1, 357151, Note_on_c, 0, 77, 84
1, 357152, Note_on_c, 0, 53, 85
1, 357156, Note_on_c, 0, 45, 81
1, 357177, Note_off_c, 0, 53, 67
1, 357187, Note_off_c, 0, 45, 66
1, 357188, Note_off_c, 0, 48, 67
1, 357197, Note_off_c, 0, 77, 60
1, 357263, Note_on_c, 0, 45, 84
1, 357265, Note_on_c, 0, 53, 85
1, 357269, Note_on_c, 0, 48, 73
1, 357292, Note_off_c, 0, 45, 68
1, 357293, Note_off_c, 0, 53, 66
1, 357301, Note_off_c, 0, 48, 65
1, 357379, Note_on_c, 0, 53, 75
1, 357384, Note_on_c, 0, 89, 101
1, 357386, Note_on_c, 0, 44, 85
1, 357402, Note_off_c, 0, 53, 69
1, 357409, Note_on_c, 0, 43, 64
1, 357409, Note_off_c, 0, 44, 57
1, 357412, Control_c, 0, 64, 74
1, 357427, Control_c, 0, 64, 127
1, 357438, Note_off_c, 0, 43, 57
1, 357448, Note_on_c, 0, 88, 86
1, 357464, Note_off_c, 0, 89, 67
1, 357520, Note_on_c, 0, 44, 93
1, 357524, Note_on_c, 0, 89, 89
1, 357525, Note_off_c, 0, 88, 63
1, 357530, Note_on_c, 0, 32, 88
1, 357553, Note_off_c, 0, 32, 66
1, 357554, Note_off_c, 0, 44, 65
1, 357585, Note_on_c, 0, 88, 80
1, 357597, Note_off_c, 0, 89, 66
1, 357634, Control_c, 0, 64, 111
1, 357646, Note_on_c, 0, 89, 87
1, 357649, Control_c, 0, 64, 80
1, 357654, Note_on_c, 0, 32, 78
1, 357654, Note_off_c, 0, 88, 63
1, 357656, Note_on_c, 0, 44, 114
1, 357664, Control_c, 0, 64, 0
1, 357689, Note_off_c, 0, 32, 63
1, 357695, Note_off_c, 0, 44, 65
1, 357722, Note_on_c, 0, 88, 78
1, 357729, Note_off_c, 0, 89, 67
1, 357776, Note_on_c, 0, 44, 98
1, 357777, Note_on_c, 0, 89, 75
1, 357778, Note_off_c, 0, 88, 63
1, 357782, Note_on_c, 0, 32, 99
1, 357823, Note_off_c, 0, 32, 63
1, 357828, Note_off_c, 0, 44, 65
1, 357841, Note_on_c, 0, 88, 70
1, 357843, Note_off_c, 0, 89, 66
1, 357867, Note_off_c, 0, 88, 68
1, 357900, Note_on_c, 0, 89, 96
1, 357901, Note_on_c, 0, 43, 96
1, 357903, Note_on_c, 0, 31, 90
1, 357916, Control_c, 0, 64, 92
1, 357928, Note_off_c, 0, 43, 67
1, 357929, Note_on_c, 0, 33, 64
1, 357931, Control_c, 0, 64, 127
1, 357966, Note_on_c, 0, 88, 79
1, 357973, Note_off_c, 0, 31, 65
1, 358004, Note_on_c, 0, 35, 73
1, 358020, Note_on_c, 0, 86, 81
1, 358041, Note_off_c, 0, 89, 61
1, 358047, Note_off_c, 0, 33, 62
1, 358086, Note_on_c, 0, 36, 78
1, 358094, Note_on_c, 0, 84, 84
1, 358106, Note_off_c, 0, 88, 62
1, 358120, Note_off_c, 0, 86, 65
1, 358127, Note_off_c, 0, 35, 61
1, 358146, Note_off_c, 0, 36, 64
1, 358146, Note_off_c, 0, 84, 67
1, 358148, Note_on_c, 0, 38, 86
1, 358150, Note_on_c, 0, 83, 79
1, 358196, Note_off_c, 0, 83, 52
1, 358214, Note_off_c, 0, 38, 62
1, 358215, Note_on_c, 0, 81, 84
1, 358218, Note_on_c, 0, 40, 77
1, 358272, Note_on_c, 0, 41, 79
1, 358279, Note_on_c, 0, 79, 82
1, 358279, Control_c, 0, 64, 88
1, 358284, Note_off_c, 0, 40, 63
1, 358294, Control_c, 0, 64, 59
1, 358303, Note_off_c, 0, 81, 60
1, 358309, Control_c, 0, 64, 0
1, 358324, Note_off_c, 0, 41, 67
1, 358326, Note_on_c, 0, 43, 77
1, 358339, Note_off_c, 0, 79, 64
1, 358340, Note_on_c, 0, 77, 86
1, 358387, Note_on_c, 0, 45, 79
1, 358388, Note_off_c, 0, 77, 50
1, 358392, Note_off_c, 0, 43, 62
1, 358393, Note_on_c, 0, 76, 85
1, 358459, Note_on_c, 0, 47, 78
1, 358477, Note_off_c, 0, 45, 63
1, 358482, Note_on_c, 0, 74, 69
1, 358497, Note_on_c, 0, 48, 82
1, 358509, Note_off_c, 0, 47, 65
1, 358515, Note_off_c, 0, 76, 64
1, 358516, Control_c, 0, 64, 67
1, 358517, Note_on_c, 0, 72, 73
1, 358531, Control_c, 0, 64, 79
1, 358542, Note_off_c, 0, 74, 65
1, 358544, Note_off_c, 0, 48, 65
1, 358546, Control_c, 0, 64, 83
1, 358554, Note_on_c, 0, 50, 72
1, 358561, Control_c, 0, 64, 83
1, 358571, Note_on_c, 0, 71, 80
1, 358571, Note_off_c, 0, 72, 65
1, 358590, Control_c, 0, 64, 84
1, 358605, Control_c, 0, 64, 84
1, 358613, Note_off_c, 0, 50, 61
1, 358613, Note_on_c, 0, 52, 73
1, 358619, Note_on_c, 0, 69, 82
1, 358634, Control_c, 0, 64, 84
1, 358649, Control_c, 0, 64, 77
1, 358664, Control_c, 0, 64, 54
1, 358672, Note_on_c, 0, 53, 57
1, 358679, Note_on_c, 0, 67, 72
1, 358679, Note_off_c, 0, 52, 59
1, 358679, Control_c, 0, 64, 0
1, 358683, Note_off_c, 0, 71, 29
1, 358700, Note_on_c, 0, 55, 69
1, 358712, Note_off_c, 0, 69, 60
1, 358721, Note_off_c, 0, 53, 60
1, 358729, Note_on_c, 0, 65, 81
1, 358746, Note_off_c, 0, 55, 66
1, 358758, Note_off_c, 0, 67, 64
1, 358780, Note_on_c, 0, 57, 62
1, 358782, Note_on_c, 0, 64, 83
1, 358784, Note_off_c, 0, 65, 66
1, 358800, Note_off_c, 0, 57, 62
1, 358833, Note_off_c, 0, 64, 0
1, 358846, Note_on_c, 0, 62, 101
1, 358849, Control_c, 0, 64, 21
1, 358852, Poly_aftertouch_c, 0, 64, 0
1, 358853, Note_on_c, 0, 53, 91
1, 358857, Note_on_c, 0, 41, 95
1, 358864, Control_c, 0, 64, 51
1, 358874, Note_off_c, 0, 53, 73
1, 358879, Control_c, 0, 64, 0
1, 358883, Note_off_c, 0, 41, 71
1, 358898, Note_off_c, 0, 62, 65
1, 359153, Note_on_c, 0, 67, 105
1, 359154, Note_on_c, 0, 71, 98
1, 359155, Note_on_c, 0, 55, 98
1, 359155, Note_on_c, 0, 79, 100
1, 359158, Note_on_c, 0, 47, 92
1, 359159, Note_on_c, 0, 43, 89
1, 359159, Note_on_c, 0, 74, 88
1, 359165, Note_on_c, 0, 50, 86
1, 359176, Control_c, 0, 64, 67
1, 359186, Note_off_c, 0, 50, 68
1, 359187, Note_off_c, 0, 47, 66
1, 359188, Note_off_c, 0, 43, 65
1, 359191, Control_c, 0, 64, 127
1, 359198, Note_off_c, 0, 71, 63
1, 359199, Note_off_c, 0, 55, 62
1, 359201, Note_off_c, 0, 67, 64
1, 359204, Note_off_c, 0, 74, 67
1, 359207, Note_off_c, 0, 79, 66
1, 359383, Control_c, 0, 64, 89
1, 359398, Control_c, 0, 64, 42
1, 359413, Control_c, 0, 64, 0
1, 359972, Note_on_c, 0, 64, 101
1, 359973, Note_on_c, 0, 76, 100
1, 359979, Note_on_c, 0, 60, 93
1, 359980, Note_on_c, 0, 67, 88
1, 359981, Note_on_c, 0, 48, 86
1, 359981, Note_on_c, 0, 52, 85
1, 359984, Note_on_c, 0, 72, 79
1, 359984, Note_on_c, 0, 55, 82
1, 359998, Note_off_c, 0, 60, 68
1, 360002, Note_off_c, 0, 52, 73
1, 360003, Note_off_c, 0, 67, 68
1, 360005, Note_off_c, 0, 48, 71
1, 360005, Note_off_c, 0, 55, 69
1, 360014, Control_c, 0, 64, 127
1, 360016, Note_off_c, 0, 64, 67
1, 360021, Note_off_c, 0, 72, 66
1, 360047, Note_off_c, 0, 76, 63
1, 360133, Control_c, 0, 64, 101
1, 360147, Control_c, 0, 64, 73
1, 360162, Control_c, 0, 64, 0
1, 360554, Note_on_c, 0, 55, 97
1, 360554, Note_on_c, 0, 67, 99
1, 360556, Note_on_c, 0, 79, 99
1, 360558, Note_on_c, 0, 43, 84
1, 360558, Note_on_c, 0, 71, 95
1, 360559, Note_on_c, 0, 47, 86
1, 360562, Note_on_c, 0, 50, 88
1, 360563, Note_on_c, 0, 74, 86
1, 360583, Note_off_c, 0, 50, 68
1, 360585, Control_c, 0, 64, 112
1, 360587, Note_off_c, 0, 55, 68
1, 360588, Note_off_c, 0, 43, 65
1, 360592, Note_off_c, 0, 47, 65
1, 360598, Note_off_c, 0, 67, 64
1, 360600, Note_off_c, 0, 71, 64
1, 360600, Control_c, 0, 64, 127
1, 360610, Note_off_c, 0, 74, 64
1, 360634, Note_off_c, 0, 79, 65
1, 360748, Control_c, 0, 64, 97
1, 360763, Control_c, 0, 64, 65
1, 360777, Control_c, 0, 64, 0
1, 361166, Note_on_c, 0, 72, 108
1, 361166, Note_on_c, 0, 84, 99
1, 361167, Note_on_c, 0, 48, 100
1, 361168, Note_on_c, 0, 76, 103
1, 361172, Note_on_c, 0, 36, 82
1, 361172, Note_on_c, 0, 79, 92
1, 361174, Note_on_c, 0, 40, 87
1, 361176, Note_on_c, 0, 43, 89
1, 361185, Control_c, 0, 64, 65
1, 361200, Control_c, 0, 64, 127
1, 361204, Note_off_c, 0, 43, 65
1, 361213, Note_off_c, 0, 40, 61
1, 361214, Note_off_c, 0, 72, 69
1, 361216, Note_off_c, 0, 36, 65
1, 361222, Note_off_c, 0, 48, 62
1, 361227, Note_off_c, 0, 76, 72
1, 361235, Note_off_c, 0, 84, 65
1, 361239, Note_off_c, 0, 79, 67
1, 361423, Control_c, 0, 64, 83
1, 361438, Control_c, 0, 64, 0
1, 361438, End_track
0, 0, End_of_file
