0, 0, Header, 0, 1, 384
1, 0, Start_track
1, 0, Title_t, "Fantasie Op. 49--Amy Toscano    "
1, 0, Text_t, "2009 Piano-e-Competition audition round"
1, 0, Text_t, "captured January 2009"
1, 0, Text_t, "http://www.piano-e-competition.com/"
1, 0, Text_t, "File processed for distribution by software from Zenph Studios, Inc., http://www.zenph.com"
1, 0, Instrument_name_t, "Yamaha Disklavier Pro Mark IV concert grand piano, model DCFIIISM4PRO"
1, 0, Sequencer_specific, 39, 67, 113, 0, 1, 0, 1, 0, 70, 97, 110, 116, 97, 115, 105, 101, 32, 79, 112, 46, 32, 52, 57, 32, 65, 109, 121, 32, 84, 111, 115, 99, 97, 110, 111, 32, 32, 32, 32, 32
1, 0, Sequencer_specific, 6, 67, 113, 0, 0, 0, 69
1, 0, System_exclusive, 21, 67, 113, 126, 21, 0, 2, 2, 0, 3, 14, 1, 4, 1, 13, 13, 10, 11, 9, 2, 7, 247
1, 0, Sequencer_specific, 5, 67, 123, 12, 2, 1
1, 0, Tempo, 512820
1, 0, Time_signature, 4, 2, 24, 8
1, 0, System_exclusive, 5, 126, 127, 9, 1, 247
1, 1, System_exclusive, 8, 67, 16, 76, 0, 0, 126, 0, 247
1, 2, System_exclusive, 8, 67, 16, 76, 8, 9, 7, 1, 247
1, 3, Control_c, 0, 0, 0
1, 3, Control_c, 1, 0, 0
1, 3, Control_c, 2, 0, 0
1, 3, Control_c, 3, 0, 0
1, 3, Control_c, 4, 0, 0
1, 3, Control_c, 5, 0, 0
1, 3, Control_c, 6, 0, 0
1, 3, Control_c, 7, 0, 0
1, 3, Control_c, 8, 0, 0
1, 3, Control_c, 9, 0, 127
1, 3, Control_c, 10, 0, 0
1, 3, Control_c, 11, 0, 0
1, 3, Control_c, 12, 0, 0
1, 3, Control_c, 13, 0, 0
1, 3, Control_c, 14, 0, 0
1, 3, Control_c, 15, 0, 0
1, 4, Control_c, 0, 32, 0
1, 4, Control_c, 1, 32, 0
1, 4, Control_c, 2, 32, 0
1, 4, Control_c, 3, 32, 0
1, 4, Control_c, 4, 32, 0
1, 4, Control_c, 5, 32, 0
1, 4, Control_c, 6, 32, 0
1, 4, Control_c, 7, 32, 0
1, 4, Control_c, 8, 32, 0
1, 4, Control_c, 9, 32, 0
1, 4, Control_c, 10, 32, 0
1, 4, Control_c, 11, 32, 0
1, 4, Control_c, 12, 32, 0
1, 4, Control_c, 13, 32, 0
1, 4, Control_c, 14, 32, 0
1, 4, Control_c, 15, 32, 0
1, 5, Program_c, 0, 0
1, 5, Program_c, 1, 0
1, 5, Program_c, 2, 0
1, 5, Program_c, 3, 0
1, 5, Program_c, 4, 0
1, 5, Program_c, 5, 0
1, 5, Program_c, 6, 0
1, 5, Program_c, 7, 0
1, 5, Program_c, 8, 0
1, 5, Program_c, 9, 0
1, 5, Program_c, 10, 0
1, 5, Program_c, 11, 0
1, 5, Program_c, 12, 0
1, 5, Program_c, 13, 0
1, 5, Program_c, 14, 0
1, 5, Program_c, 15, 0
1, 6, Control_c, 0, 7, 100
1, 6, Control_c, 1, 7, 100
1, 6, Control_c, 2, 7, 100
1, 6, Control_c, 3, 7, 100
1, 6, Control_c, 4, 7, 100
1, 6, Control_c, 5, 7, 100
1, 6, Control_c, 6, 7, 100
1, 6, Control_c, 7, 7, 100
1, 6, Control_c, 8, 7, 100
1, 6, Control_c, 9, 7, 100
1, 6, Control_c, 10, 7, 100
1, 6, Control_c, 11, 7, 100
1, 6, Control_c, 12, 7, 100
1, 6, Control_c, 13, 7, 100
1, 6, Control_c, 14, 7, 100
1, 6, Control_c, 15, 7, 100
1, 1125, Control_c, 0, 64, 69
1, 1132, Note_on_c, 0, 53, 58
1, 1133, Note_on_c, 0, 41, 37
1, 1140, Control_c, 0, 64, 74
1, 1155, Control_c, 0, 64, 80
1, 1171, Control_c, 0, 64, 86
1, 1186, Control_c, 0, 64, 92
1, 1191, Note_off_c, 0, 41, 60
1, 1191, Note_off_c, 0, 53, 63
1, 1201, Control_c, 0, 64, 97
1, 1215, Control_c, 0, 64, 103
1, 1230, Control_c, 0, 64, 107
1, 1245, Control_c, 0, 64, 111
1, 1260, Control_c, 0, 64, 115
1, 1275, Control_c, 0, 64, 121
1, 1289, Control_c, 0, 64, 127
1, 1768, Note_on_c, 0, 36, 38
1, 1770, Note_on_c, 0, 48, 44
1, 1801, Control_c, 0, 64, 118
1, 1816, Control_c, 0, 64, 110
1, 1830, Control_c, 0, 64, 102
1, 1845, Control_c, 0, 64, 95
1, 1860, Control_c, 0, 64, 89
1, 1875, Control_c, 0, 64, 82
1, 1890, Control_c, 0, 64, 77
1, 1905, Control_c, 0, 64, 72
1, 1920, Control_c, 0, 64, 65
1, 1924, Note_off_c, 0, 48, 63
1, 1926, Note_off_c, 0, 36, 56
1, 1934, Control_c, 0, 64, 56
1, 1949, Control_c, 0, 64, 39
1, 1965, Control_c, 0, 64, 22
1, 1980, Control_c, 0, 64, 15
1, 2069, Control_c, 0, 64, 16
1, 2084, Control_c, 0, 64, 17
1, 2128, Control_c, 0, 64, 18
1, 2239, Note_on_c, 0, 53, 52
1, 2257, Note_on_c, 0, 41, 33
1, 2365, Note_on_c, 0, 51, 56
1, 2390, Note_on_c, 0, 39, 29
1, 2419, Note_off_c, 0, 41, 40
1, 2453, Note_off_c, 0, 53, 59
1, 2468, Control_c, 0, 64, 19
1, 2483, Control_c, 0, 64, 21
1, 2498, Control_c, 0, 64, 23
1, 2513, Control_c, 0, 64, 25
1, 2535, Control_c, 0, 64, 26
1, 2550, Control_c, 0, 64, 27
1, 2564, Control_c, 0, 64, 28
1, 2579, Control_c, 0, 64, 29
1, 2594, Control_c, 0, 64, 29
1, 2624, Control_c, 0, 64, 30
1, 2653, Control_c, 0, 64, 31
1, 2683, Control_c, 0, 64, 31
1, 2713, Control_c, 0, 64, 32
1, 2728, Control_c, 0, 64, 33
1, 2743, Control_c, 0, 64, 34
1, 2758, Control_c, 0, 64, 35
1, 2773, Control_c, 0, 64, 36
1, 2787, Control_c, 0, 64, 37
1, 2802, Control_c, 0, 64, 38
1, 2817, Control_c, 0, 64, 38
1, 2832, Control_c, 0, 64, 39
1, 2847, Control_c, 0, 64, 39
1, 2862, Control_c, 0, 64, 40
1, 2877, Control_c, 0, 64, 41
1, 3019, Note_on_c, 0, 46, 44
1, 3027, Note_on_c, 0, 34, 36
1, 3056, Note_off_c, 0, 39, 41
1, 3084, Control_c, 0, 64, 42
1, 3099, Control_c, 0, 64, 45
1, 3113, Note_off_c, 0, 51, 35
1, 3113, Control_c, 0, 64, 49
1, 3128, Control_c, 0, 64, 53
1, 3143, Control_c, 0, 64, 57
1, 3158, Control_c, 0, 64, 59
1, 3173, Control_c, 0, 64, 61
1, 3187, Control_c, 0, 64, 63
1, 3195, Note_off_c, 0, 34, 59
1, 3197, Note_off_c, 0, 46, 64
1, 3202, Control_c, 0, 64, 64
1, 3217, Control_c, 0, 64, 65
1, 3232, Control_c, 0, 64, 66
1, 3343, Control_c, 0, 64, 66
1, 3358, Control_c, 0, 64, 65
1, 3402, Control_c, 0, 64, 65
1, 3417, Control_c, 0, 64, 64
1, 3432, Control_c, 0, 64, 64
1, 3447, Control_c, 0, 64, 63
1, 3461, Control_c, 0, 64, 61
1, 3476, Control_c, 0, 64, 59
1, 3491, Control_c, 0, 64, 56
1, 3506, Control_c, 0, 64, 54
1, 3521, Note_on_c, 0, 51, 57
1, 3521, Control_c, 0, 64, 50
1, 3533, Note_on_c, 0, 39, 40
1, 3536, Control_c, 0, 64, 43
1, 3550, Control_c, 0, 64, 32
1, 3566, Control_c, 0, 64, 14
1, 3581, Control_c, 0, 64, 0
1, 3662, Note_on_c, 0, 49, 63
1, 3676, Note_on_c, 0, 37, 43
1, 3702, Note_off_c, 0, 39, 38
1, 3760, Note_off_c, 0, 51, 60
1, 4325, Note_on_c, 0, 32, 37
1, 4326, Note_on_c, 0, 44, 41
1, 4383, Note_off_c, 0, 37, 41
1, 4385, Note_off_c, 0, 49, 37
1, 4433, Control_c, 0, 64, 23
1, 4448, Control_c, 0, 64, 33
1, 4463, Control_c, 0, 64, 37
1, 4478, Control_c, 0, 64, 39
1, 4493, Control_c, 0, 64, 41
1, 4498, Note_off_c, 0, 32, 58
1, 4507, Control_c, 0, 64, 43
1, 4511, Note_off_c, 0, 44, 61
1, 4522, Control_c, 0, 64, 44
1, 4537, Control_c, 0, 64, 45
1, 4552, Control_c, 0, 64, 45
1, 4685, Control_c, 0, 64, 46
1, 4862, Note_on_c, 0, 37, 33
1, 4868, Note_on_c, 0, 49, 39
1, 5019, Control_c, 0, 64, 45
1, 5032, Note_on_c, 0, 36, 31
1, 5050, Note_on_c, 0, 48, 34
1, 5063, Control_c, 0, 64, 45
1, 5106, Control_c, 0, 64, 44
1, 5118, Note_off_c, 0, 37, 31
1, 5121, Control_c, 0, 64, 44
1, 5133, Note_off_c, 0, 49, 42
1, 5152, Control_c, 0, 64, 43
1, 5167, Control_c, 0, 64, 43
1, 5181, Control_c, 0, 64, 42
1, 5196, Control_c, 0, 64, 42
1, 5211, Control_c, 0, 64, 41
1, 5226, Control_c, 0, 64, 41
1, 5241, Control_c, 0, 64, 40
1, 5256, Control_c, 0, 64, 40
1, 5270, Control_c, 0, 64, 39
1, 5285, Control_c, 0, 64, 39
1, 5300, Control_c, 0, 64, 38
1, 5315, Control_c, 0, 64, 38
1, 5345, Control_c, 0, 64, 37
1, 5374, Control_c, 0, 64, 37
1, 5463, Control_c, 0, 64, 37
1, 5478, Control_c, 0, 64, 38
1, 5493, Control_c, 0, 64, 40
1, 5507, Control_c, 0, 64, 43
1, 5530, Control_c, 0, 64, 46
1, 5545, Control_c, 0, 64, 51
1, 5560, Control_c, 0, 64, 57
1, 5575, Control_c, 0, 64, 62
1, 5589, Control_c, 0, 64, 66
1, 5604, Control_c, 0, 64, 71
1, 5619, Control_c, 0, 64, 76
1, 5634, Control_c, 0, 64, 82
1, 5649, Control_c, 0, 64, 86
1, 5663, Control_c, 0, 64, 89
1, 5678, Note_off_c, 0, 48, 55
1, 5678, Control_c, 0, 64, 93
1, 5693, Control_c, 0, 64, 95
1, 5694, Note_off_c, 0, 36, 51
1, 5707, Control_c, 0, 64, 97
1, 5722, Control_c, 0, 64, 99
1, 5737, Control_c, 0, 64, 100
1, 5752, Control_c, 0, 64, 101
1, 6513, Note_on_c, 0, 72, 59
1, 6525, Note_on_c, 0, 48, 36
1, 6527, Note_on_c, 0, 55, 35
1, 6530, Note_on_c, 0, 60, 33
1, 6535, Note_on_c, 0, 64, 29
1, 6535, Note_on_c, 0, 70, 42
1, 6544, Control_c, 0, 64, 100
1, 6559, Control_c, 0, 64, 100
1, 6574, Control_c, 0, 64, 98
1, 6589, Control_c, 0, 64, 96
1, 6603, Control_c, 0, 64, 93
1, 6618, Control_c, 0, 64, 89
1, 6633, Control_c, 0, 64, 86
1, 6644, Note_off_c, 0, 70, 0
1, 6644, Note_on_c, 0, 70, 6
1, 6648, Control_c, 0, 64, 85
1, 6752, Control_c, 0, 64, 85
1, 6767, Control_c, 0, 64, 86
1, 6782, Control_c, 0, 64, 89
1, 6797, Control_c, 0, 64, 92
1, 6812, Control_c, 0, 64, 95
1, 6826, Control_c, 0, 64, 99
1, 6830, Note_off_c, 0, 72, 62
1, 6832, Note_off_c, 0, 64, 44
1, 6832, Note_off_c, 0, 70, 57
1, 6841, Control_c, 0, 64, 101
1, 6845, Note_off_c, 0, 60, 43
1, 6847, Note_off_c, 0, 48, 49
1, 6848, Note_off_c, 0, 55, 61
1, 6856, Control_c, 0, 64, 104
1, 6871, Control_c, 0, 64, 107
1, 6886, Control_c, 0, 64, 109
1, 6901, Control_c, 0, 64, 110
1, 6916, Control_c, 0, 64, 110
1, 7223, Note_on_c, 0, 72, 73
1, 7232, Note_on_c, 0, 64, 45
1, 7232, Note_on_c, 0, 55, 36
1, 7244, Note_on_c, 0, 48, 39
1, 7244, Note_on_c, 0, 60, 38
1, 7244, Note_on_c, 0, 70, 48
1, 7264, Control_c, 0, 64, 110
1, 7278, Control_c, 0, 64, 107
1, 7293, Control_c, 0, 64, 102
1, 7308, Control_c, 0, 64, 97
1, 7323, Control_c, 0, 64, 91
1, 7338, Control_c, 0, 64, 86
1, 7352, Control_c, 0, 64, 82
1, 7367, Control_c, 0, 64, 80
1, 7397, Control_c, 0, 64, 81
1, 7412, Control_c, 0, 64, 82
1, 7426, Control_c, 0, 64, 84
1, 7441, Control_c, 0, 64, 88
1, 7456, Control_c, 0, 64, 92
1, 7461, Note_off_c, 0, 60, 55
1, 7470, Control_c, 0, 64, 94
1, 7475, Note_off_c, 0, 48, 51
1, 7475, Note_off_c, 0, 64, 55
1, 7482, Note_off_c, 0, 55, 61
1, 7485, Control_c, 0, 64, 95
1, 7488, Note_off_c, 0, 72, 61
1, 7500, Control_c, 0, 64, 97
1, 7515, Control_c, 0, 64, 99
1, 7530, Control_c, 0, 64, 101
1, 7545, Control_c, 0, 64, 103
1, 7561, Control_c, 0, 64, 104
1, 7575, Control_c, 0, 64, 104
1, 7590, Control_c, 0, 64, 105
1, 7605, Control_c, 0, 64, 106
1, 7620, Control_c, 0, 64, 107
1, 7635, Control_c, 0, 64, 109
1, 7649, Control_c, 0, 64, 110
1, 7664, Control_c, 0, 64, 111
1, 7733, Note_on_c, 0, 72, 75
1, 7742, Note_on_c, 0, 55, 51
1, 7748, Note_on_c, 0, 64, 58
1, 7757, Note_on_c, 0, 48, 27
1, 7760, Note_on_c, 0, 60, 27
1, 7767, Note_off_c, 0, 55, 57
1, 7780, Note_off_c, 0, 64, 59
1, 7784, Note_off_c, 0, 70, 35
1, 7802, Note_off_c, 0, 60, 53
1, 7803, Note_off_c, 0, 48, 51
1, 7850, Control_c, 0, 64, 110
1, 7881, Note_on_c, 0, 73, 73
1, 7894, Control_c, 0, 64, 106
1, 7899, Note_on_c, 0, 48, 49
1, 7901, Note_on_c, 0, 56, 45
1, 7905, Note_on_c, 0, 65, 51
1, 7909, Control_c, 0, 64, 99
1, 7909, Note_off_c, 0, 72, 64
1, 7913, Note_on_c, 0, 60, 43
1, 7923, Control_c, 0, 64, 89
1, 7938, Control_c, 0, 64, 79
1, 7953, Control_c, 0, 64, 69
1, 7968, Control_c, 0, 64, 55
1, 7983, Control_c, 0, 64, 41
1, 7998, Control_c, 0, 64, 44
1, 8013, Control_c, 0, 64, 51
1, 8028, Control_c, 0, 64, 56
1, 8043, Control_c, 0, 64, 60
1, 8057, Control_c, 0, 64, 64
1, 8072, Control_c, 0, 64, 68
1, 8087, Control_c, 0, 64, 74
1, 8102, Control_c, 0, 64, 81
1, 8114, Note_off_c, 0, 48, 54
1, 8117, Control_c, 0, 64, 88
1, 8132, Control_c, 0, 64, 94
1, 8147, Control_c, 0, 64, 101
1, 8162, Control_c, 0, 64, 106
1, 8176, Control_c, 0, 64, 112
1, 8180, Note_off_c, 0, 60, 62
1, 8182, Note_off_c, 0, 56, 63
1, 8191, Control_c, 0, 64, 123
1, 8206, Control_c, 0, 64, 127
1, 8212, Note_off_c, 0, 65, 57
1, 8383, Note_off_c, 0, 73, 63
1, 8403, Note_on_c, 0, 72, 74
1, 8558, Note_on_c, 0, 77, 73
1, 8564, Note_on_c, 0, 68, 48
1, 8565, Note_on_c, 0, 65, 44
1, 8572, Note_on_c, 0, 60, 36
1, 8585, Control_c, 0, 64, 107
1, 8600, Control_c, 0, 64, 90
1, 8614, Control_c, 0, 64, 77
1, 8629, Control_c, 0, 64, 65
1, 8644, Control_c, 0, 64, 57
1, 8659, Control_c, 0, 64, 59
1, 8674, Control_c, 0, 64, 63
1, 8688, Control_c, 0, 64, 69
1, 8703, Control_c, 0, 64, 77
1, 8710, Note_off_c, 0, 72, 62
1, 8718, Control_c, 0, 64, 86
1, 8732, Control_c, 0, 64, 106
1, 8747, Control_c, 0, 64, 127
1, 8763, Note_off_c, 0, 68, 62
1, 8781, Note_off_c, 0, 60, 63
1, 8795, Note_off_c, 0, 65, 51
1, 9035, Note_off_c, 0, 77, 61
1, 9042, Note_on_c, 0, 65, 54
1, 9044, Note_on_c, 0, 80, 76
1, 9049, Note_on_c, 0, 68, 39
1, 9054, Note_on_c, 0, 60, 38
1, 9057, Note_on_c, 0, 72, 59
1, 9077, Note_off_c, 0, 68, 56
1, 9087, Note_off_c, 0, 60, 53
1, 9101, Note_off_c, 0, 72, 54
1, 9190, Note_off_c, 0, 65, 59
1, 9211, Note_on_c, 0, 72, 46
1, 9211, Note_on_c, 0, 79, 67
1, 9220, Note_on_c, 0, 60, 26
1, 9222, Control_c, 0, 64, 114
1, 9225, Note_on_c, 0, 64, 43
1, 9226, Note_on_c, 0, 70, 42
1, 9237, Control_c, 0, 64, 96
1, 9252, Control_c, 0, 64, 81
1, 9258, Note_off_c, 0, 80, 62
1, 9274, Control_c, 0, 64, 69
1, 9289, Control_c, 0, 64, 50
1, 9304, Control_c, 0, 64, 0
1, 9333, Control_c, 0, 64, 13
1, 9348, Control_c, 0, 64, 36
1, 9363, Control_c, 0, 64, 47
1, 9378, Control_c, 0, 64, 56
1, 9393, Control_c, 0, 64, 65
1, 9408, Control_c, 0, 64, 72
1, 9423, Control_c, 0, 64, 82
1, 9437, Control_c, 0, 64, 91
1, 9452, Control_c, 0, 64, 99
1, 9467, Control_c, 0, 64, 106
1, 9481, Control_c, 0, 64, 113
1, 9482, Note_off_c, 0, 72, 59
1, 9496, Control_c, 0, 64, 118
1, 9502, Note_off_c, 0, 64, 61
1, 9511, Control_c, 0, 64, 127
1, 9512, Note_off_c, 0, 60, 48
1, 9515, Note_off_c, 0, 70, 56
1, 9850, Note_on_c, 0, 67, 48
1, 9852, Note_on_c, 0, 72, 59
1, 9858, Note_on_c, 0, 60, 39
1, 9864, Note_on_c, 0, 70, 41
1, 9907, Note_off_c, 0, 67, 60
1, 9913, Note_off_c, 0, 60, 61
1, 9915, Note_off_c, 0, 70, 61
1, 9947, Note_off_c, 0, 79, 60
1, 9964, Note_off_c, 0, 72, 62
1, 10505, Note_on_c, 0, 79, 64
1, 10506, Note_on_c, 0, 68, 47
1, 10508, Note_on_c, 0, 72, 51
1, 10511, Control_c, 0, 64, 115
1, 10515, Note_on_c, 0, 60, 40
1, 10526, Control_c, 0, 64, 97
1, 10528, Note_on_c, 0, 53, 28
1, 10529, Note_on_c, 0, 67, 34
1, 10541, Control_c, 0, 64, 84
1, 10556, Control_c, 0, 64, 73
1, 10570, Control_c, 0, 64, 62
1, 10585, Control_c, 0, 64, 41
1, 10600, Control_c, 0, 64, 27
1, 10615, Control_c, 0, 64, 33
1, 10629, Control_c, 0, 64, 45
1, 10644, Control_c, 0, 64, 50
1, 10659, Control_c, 0, 64, 54
1, 10674, Control_c, 0, 64, 58
1, 10689, Control_c, 0, 64, 62
1, 10695, Note_off_c, 0, 67, 54
1, 10703, Control_c, 0, 64, 66
1, 10718, Control_c, 0, 64, 72
1, 10733, Control_c, 0, 64, 79
1, 10749, Control_c, 0, 64, 85
1, 10771, Control_c, 0, 64, 89
1, 10786, Control_c, 0, 64, 92
1, 10800, Control_c, 0, 64, 94
1, 10815, Control_c, 0, 64, 95
1, 10830, Control_c, 0, 64, 96
1, 10845, Control_c, 0, 64, 96
1, 10860, Control_c, 0, 64, 97
1, 10875, Control_c, 0, 64, 97
1, 10889, Control_c, 0, 64, 98
1, 11187, Control_c, 0, 64, 97
1, 11191, Note_on_c, 0, 77, 51
1, 11194, Note_on_c, 0, 65, 42
1, 11201, Control_c, 0, 64, 93
1, 11211, Note_off_c, 0, 79, 47
1, 11216, Control_c, 0, 64, 86
1, 11231, Control_c, 0, 64, 77
1, 11245, Control_c, 0, 64, 68
1, 11260, Control_c, 0, 64, 60
1, 11275, Control_c, 0, 64, 55
1, 11290, Control_c, 0, 64, 59
1, 11305, Control_c, 0, 64, 63
1, 11319, Control_c, 0, 64, 67
1, 11334, Control_c, 0, 64, 72
1, 11349, Control_c, 0, 64, 78
1, 11364, Control_c, 0, 64, 83
1, 11370, Note_off_c, 0, 72, 63
1, 11379, Control_c, 0, 64, 88
1, 11382, Note_off_c, 0, 65, 54
1, 11393, Control_c, 0, 64, 91
1, 11401, Note_off_c, 0, 60, 57
1, 11408, Control_c, 0, 64, 93
1, 11423, Control_c, 0, 64, 95
1, 11438, Control_c, 0, 64, 96
1, 11453, Control_c, 0, 64, 97
1, 11468, Control_c, 0, 64, 98
1, 11483, Control_c, 0, 64, 98
1, 11498, Control_c, 0, 64, 99
1, 11502, Note_off_c, 0, 68, 27
1, 11698, Control_c, 0, 64, 98
1, 11715, Note_on_c, 0, 73, 53
1, 11718, Note_on_c, 0, 61, 45
1, 11802, Control_c, 0, 64, 98
1, 11817, Control_c, 0, 64, 96
1, 11831, Control_c, 0, 64, 92
1, 11833, Note_off_c, 0, 61, 28
1, 11846, Control_c, 0, 64, 85
1, 11848, Note_on_c, 0, 72, 48
1, 11861, Control_c, 0, 64, 75
1, 11863, Note_on_c, 0, 60, 38
1, 11868, Note_off_c, 0, 73, 37
1, 11876, Control_c, 0, 64, 66
1, 11891, Control_c, 0, 64, 56
1, 11906, Control_c, 0, 64, 40
1, 11921, Control_c, 0, 64, 36
1, 11936, Control_c, 0, 64, 41
1, 11950, Control_c, 0, 64, 53
1, 11965, Control_c, 0, 64, 60
1, 11980, Control_c, 0, 64, 65
1, 11995, Control_c, 0, 64, 72
1, 12010, Control_c, 0, 64, 83
1, 12024, Control_c, 0, 64, 95
1, 12039, Control_c, 0, 64, 104
1, 12050, Note_off_c, 0, 60, 57
1, 12054, Control_c, 0, 64, 112
1, 12056, Note_off_c, 0, 77, 44
1, 12066, Note_off_c, 0, 72, 64
1, 12068, Control_c, 0, 64, 116
1, 12083, Control_c, 0, 64, 121
1, 12098, Control_c, 0, 64, 125
1, 12100, Note_off_c, 0, 53, 52
1, 12113, Control_c, 0, 64, 127
1, 12328, Control_c, 0, 64, 125
1, 12343, Control_c, 0, 64, 122
1, 12359, Control_c, 0, 64, 120
1, 12373, Control_c, 0, 64, 118
1, 12388, Control_c, 0, 64, 117
1, 12403, Control_c, 0, 64, 117
1, 12418, Control_c, 0, 64, 116
1, 12433, Control_c, 0, 64, 116
1, 12447, Control_c, 0, 64, 115
1, 12462, Control_c, 0, 64, 115
1, 12492, Control_c, 0, 64, 114
1, 12506, Control_c, 0, 64, 114
1, 12521, Control_c, 0, 64, 113
1, 12536, Control_c, 0, 64, 112
1, 12551, Control_c, 0, 64, 110
1, 12560, Note_on_c, 0, 48, 45
1, 12562, Note_on_c, 0, 36, 37
1, 12565, Control_c, 0, 64, 106
1, 12580, Control_c, 0, 64, 100
1, 12595, Control_c, 0, 64, 94
1, 12610, Control_c, 0, 64, 87
1, 12625, Control_c, 0, 64, 79
1, 12640, Control_c, 0, 64, 72
1, 12654, Control_c, 0, 64, 64
1, 12669, Control_c, 0, 64, 50
1, 12684, Control_c, 0, 64, 26
1, 12699, Control_c, 0, 64, 0
1, 12738, Note_off_c, 0, 36, 54
1, 12738, Note_off_c, 0, 48, 63
1, 13066, Note_on_c, 0, 53, 55
1, 13074, Note_on_c, 0, 41, 33
1, 13205, Note_on_c, 0, 51, 57
1, 13211, Note_on_c, 0, 39, 38
1, 13235, Note_off_c, 0, 41, 38
1, 13296, Note_off_c, 0, 53, 59
1, 13876, Note_on_c, 0, 46, 44
1, 13879, Note_on_c, 0, 34, 31
1, 13933, Note_off_c, 0, 39, 39
1, 13945, Note_off_c, 0, 51, 32
1, 14057, Note_off_c, 0, 34, 57
1, 14058, Note_off_c, 0, 46, 64
1, 14371, Note_on_c, 0, 51, 49
1, 14382, Note_on_c, 0, 39, 34
1, 14502, Note_on_c, 0, 49, 49
1, 14526, Note_on_c, 0, 37, 36
1, 14532, Note_off_c, 0, 39, 38
1, 14610, Note_off_c, 0, 51, 36
1, 15169, Note_on_c, 0, 32, 31
1, 15170, Note_on_c, 0, 44, 39
1, 15235, Note_off_c, 0, 37, 41
1, 15247, Note_off_c, 0, 49, 35
1, 15323, Control_c, 0, 64, 25
1, 15338, Control_c, 0, 64, 39
1, 15353, Control_c, 0, 64, 50
1, 15367, Control_c, 0, 64, 58
1, 15370, Note_off_c, 0, 32, 57
1, 15375, Note_off_c, 0, 44, 56
1, 15382, Control_c, 0, 64, 62
1, 15397, Control_c, 0, 64, 64
1, 15412, Control_c, 0, 64, 65
1, 15426, Control_c, 0, 64, 65
1, 15471, Control_c, 0, 64, 65
1, 15590, Control_c, 0, 64, 64
1, 15650, Control_c, 0, 64, 64
1, 15680, Control_c, 0, 64, 63
1, 15695, Control_c, 0, 64, 63
1, 15710, Control_c, 0, 64, 61
1, 15712, Note_on_c, 0, 49, 44
1, 15720, Note_on_c, 0, 37, 28
1, 15724, Control_c, 0, 64, 59
1, 15739, Control_c, 0, 64, 55
1, 15754, Control_c, 0, 64, 47
1, 15769, Control_c, 0, 64, 31
1, 15783, Control_c, 0, 64, 0
1, 15859, Note_off_c, 0, 37, 47
1, 15865, Note_on_c, 0, 48, 42
1, 15872, Note_on_c, 0, 36, 27
1, 15915, Note_off_c, 0, 49, 34
1, 16541, Note_on_c, 0, 32, 35
1, 16546, Note_on_c, 0, 44, 36
1, 16624, Note_off_c, 0, 36, 38
1, 16652, Note_off_c, 0, 48, 43
1, 16762, Control_c, 0, 64, 16
1, 16777, Control_c, 0, 64, 39
1, 16792, Control_c, 0, 64, 51
1, 16807, Control_c, 0, 64, 58
1, 16821, Control_c, 0, 64, 62
1, 16829, Note_off_c, 0, 44, 40
1, 16836, Control_c, 0, 64, 64
1, 16848, Note_off_c, 0, 32, 46
1, 16851, Control_c, 0, 64, 66
1, 16865, Control_c, 0, 64, 69
1, 16880, Control_c, 0, 64, 72
1, 16895, Control_c, 0, 64, 75
1, 16910, Control_c, 0, 64, 77
1, 16925, Control_c, 0, 64, 78
1, 16939, Control_c, 0, 64, 79
1, 16954, Control_c, 0, 64, 80
1, 16969, Control_c, 0, 64, 81
1, 16984, Control_c, 0, 64, 81
1, 16998, Control_c, 0, 64, 82
1, 17013, Control_c, 0, 64, 82
1, 17028, Control_c, 0, 64, 83
1, 17147, Note_on_c, 0, 29, 43
1, 17148, Note_on_c, 0, 41, 46
1, 17221, Note_off_c, 0, 29, 51
1, 17349, Note_off_c, 0, 41, 35
1, 17388, Note_on_c, 0, 39, 62
1, 17397, Note_on_c, 0, 27, 44
1, 17459, Control_c, 0, 64, 82
1, 17474, Control_c, 0, 64, 79
1, 17489, Control_c, 0, 64, 74
1, 17511, Control_c, 0, 64, 68
1, 17526, Control_c, 0, 64, 60
1, 17541, Control_c, 0, 64, 46
1, 17556, Control_c, 0, 64, 38
1, 17570, Control_c, 0, 64, 43
1, 17585, Control_c, 0, 64, 49
1, 17600, Control_c, 0, 64, 54
1, 17614, Control_c, 0, 64, 59
1, 17629, Control_c, 0, 64, 63
1, 17644, Control_c, 0, 64, 66
1, 17659, Control_c, 0, 64, 71
1, 17674, Control_c, 0, 64, 77
1, 17689, Control_c, 0, 64, 83
1, 17689, Note_off_c, 0, 39, 61
1, 17690, Note_off_c, 0, 27, 55
1, 17704, Control_c, 0, 64, 88
1, 17719, Control_c, 0, 64, 92
1, 17734, Control_c, 0, 64, 96
1, 17749, Control_c, 0, 64, 101
1, 17763, Control_c, 0, 64, 106
1, 17778, Control_c, 0, 64, 110
1, 17793, Control_c, 0, 64, 113
1, 17808, Control_c, 0, 64, 114
1, 17822, Control_c, 0, 64, 114
1, 17880, Control_c, 0, 64, 115
1, 17984, Control_c, 0, 64, 114
1, 18240, Note_on_c, 0, 75, 66
1, 18245, Note_on_c, 0, 73, 55
1, 18261, Note_on_c, 0, 51, 36
1, 18264, Note_on_c, 0, 58, 36
1, 18266, Note_on_c, 0, 67, 44
1, 18275, Note_on_c, 0, 63, 34
1, 18497, Note_off_c, 0, 67, 63
1, 18508, Note_off_c, 0, 58, 50
1, 18512, Note_off_c, 0, 51, 39
1, 18516, Note_off_c, 0, 75, 63
1, 18522, Note_off_c, 0, 63, 42
1, 18782, Note_on_c, 0, 75, 76
1, 18786, Note_on_c, 0, 58, 57
1, 18793, Note_on_c, 0, 67, 53
1, 18794, Note_on_c, 0, 51, 43
1, 18795, Note_on_c, 0, 63, 40
1, 18814, Note_off_c, 0, 58, 65
1, 18818, Note_off_c, 0, 67, 57
1, 18823, Note_off_c, 0, 51, 54
1, 18824, Note_off_c, 0, 63, 55
1, 18911, Control_c, 0, 64, 114
1, 18921, Note_on_c, 0, 51, 46
1, 18926, Control_c, 0, 64, 109
1, 18928, Note_on_c, 0, 63, 37
1, 18933, Note_on_c, 0, 68, 53
1, 18933, Note_on_c, 0, 77, 77
1, 18938, Note_off_c, 0, 73, 51
1, 18941, Note_on_c, 0, 60, 51
1, 18941, Control_c, 0, 64, 101
1, 18954, Note_off_c, 0, 75, 63
1, 18956, Control_c, 0, 64, 92
1, 18971, Control_c, 0, 64, 82
1, 18986, Control_c, 0, 64, 72
1, 19000, Control_c, 0, 64, 66
1, 19022, Control_c, 0, 64, 63
1, 19037, Control_c, 0, 64, 65
1, 19052, Control_c, 0, 64, 67
1, 19066, Control_c, 0, 64, 70
1, 19081, Control_c, 0, 64, 75
1, 19096, Control_c, 0, 64, 80
1, 19111, Control_c, 0, 64, 85
1, 19126, Control_c, 0, 64, 88
1, 19141, Control_c, 0, 64, 91
1, 19155, Control_c, 0, 64, 94
1, 19170, Control_c, 0, 64, 96
1, 19185, Control_c, 0, 64, 98
1, 19200, Control_c, 0, 64, 99
1, 19215, Control_c, 0, 64, 100
1, 19230, Control_c, 0, 64, 100
1, 19259, Control_c, 0, 64, 101
1, 19337, Note_off_c, 0, 68, 37
1, 19361, Note_off_c, 0, 77, 48
1, 19371, Note_off_c, 0, 51, 35
1, 19374, Note_off_c, 0, 63, 42
1, 19383, Note_off_c, 0, 60, 38
1, 19489, Note_on_c, 0, 75, 79
1, 19616, Control_c, 0, 64, 100
1, 19630, Control_c, 0, 64, 100
1, 19636, Note_on_c, 0, 80, 83
1, 19640, Note_on_c, 0, 60, 45
1, 19645, Control_c, 0, 64, 92
1, 19647, Note_on_c, 0, 68, 54
1, 19649, Note_on_c, 0, 51, 39
1, 19660, Control_c, 0, 64, 81
1, 19663, Note_on_c, 0, 63, 19
1, 19675, Control_c, 0, 64, 67
1, 19689, Control_c, 0, 64, 42
1, 19704, Control_c, 0, 64, 0
1, 19749, Control_c, 0, 64, 38
1, 19771, Control_c, 0, 64, 59
1, 19786, Control_c, 0, 64, 67
1, 19801, Control_c, 0, 64, 77
1, 19814, Note_off_c, 0, 51, 54
1, 19814, Note_off_c, 0, 68, 59
1, 19815, Control_c, 0, 64, 89
1, 19830, Control_c, 0, 64, 100
1, 19845, Control_c, 0, 64, 113
1, 19856, Note_off_c, 0, 60, 63
1, 19860, Control_c, 0, 64, 127
1, 19866, Note_off_c, 0, 75, 62
1, 19879, Note_off_c, 0, 63, 55
1, 20153, Note_off_c, 0, 80, 63
1, 20165, Note_on_c, 0, 68, 59
1, 20169, Note_on_c, 0, 84, 77
1, 20181, Note_on_c, 0, 72, 31
1, 20182, Note_on_c, 0, 75, 55
1, 20199, Note_on_c, 0, 63, 6
1, 20202, Note_off_c, 0, 75, 62
1, 20214, Note_off_c, 0, 72, 52
1, 20247, Note_off_c, 0, 63, 51
1, 20359, Note_off_c, 0, 68, 56
1, 20366, Note_on_c, 0, 63, 35
1, 20370, Note_on_c, 0, 75, 48
1, 20370, Note_on_c, 0, 82, 75
1, 20386, Note_on_c, 0, 67, 50
1, 20404, Note_on_c, 0, 73, 37
1, 20408, Note_off_c, 0, 84, 63
1, 20409, Control_c, 0, 64, 97
1, 20423, Control_c, 0, 64, 81
1, 20438, Control_c, 0, 64, 67
1, 20453, Control_c, 0, 64, 46
1, 20468, Control_c, 0, 64, 0
1, 20498, Control_c, 0, 64, 31
1, 20520, Control_c, 0, 64, 50
1, 20535, Control_c, 0, 64, 59
1, 20550, Control_c, 0, 64, 64
1, 20565, Control_c, 0, 64, 70
1, 20580, Control_c, 0, 64, 78
1, 20594, Control_c, 0, 64, 89
1, 20609, Control_c, 0, 64, 101
1, 20610, Note_off_c, 0, 73, 55
1, 20624, Control_c, 0, 64, 112
1, 20638, Control_c, 0, 64, 127
1, 20655, Note_off_c, 0, 82, 63
1, 20656, Note_off_c, 0, 67, 61
1, 20676, Note_off_c, 0, 63, 47
1, 20677, Note_off_c, 0, 75, 63
1, 21051, Note_on_c, 0, 75, 60
1, 21054, Note_on_c, 0, 58, 44
1, 21060, Note_on_c, 0, 73, 47
1, 21066, Note_on_c, 0, 63, 32
1, 21069, Note_on_c, 0, 67, 46
1, 21075, Note_on_c, 0, 51, 28
1, 21083, Control_c, 0, 64, 112
1, 21098, Control_c, 0, 64, 96
1, 21112, Control_c, 0, 64, 84
1, 21128, Control_c, 0, 64, 75
1, 21143, Control_c, 0, 64, 68
1, 21158, Control_c, 0, 64, 65
1, 21173, Control_c, 0, 64, 65
1, 21188, Control_c, 0, 64, 67
1, 21202, Control_c, 0, 64, 71
1, 21217, Control_c, 0, 64, 75
1, 21232, Control_c, 0, 64, 81
1, 21254, Control_c, 0, 64, 88
1, 21269, Control_c, 0, 64, 95
1, 21284, Control_c, 0, 64, 102
1, 21299, Control_c, 0, 64, 113
1, 21311, Note_off_c, 0, 67, 62
1, 21314, Control_c, 0, 64, 127
1, 21329, Note_off_c, 0, 58, 52
1, 21330, Note_off_c, 0, 63, 48
1, 21338, Note_off_c, 0, 73, 63
1, 21345, Note_off_c, 0, 51, 40
1, 21752, Note_on_c, 0, 72, 49
1, 21757, Note_on_c, 0, 60, 38
1, 21758, Note_on_c, 0, 68, 43
1, 21761, Note_on_c, 0, 51, 35
1, 21761, Note_on_c, 0, 80, 52
1, 21776, Note_on_c, 0, 63, 31
1, 21787, Control_c, 0, 64, 102
1, 21802, Control_c, 0, 64, 89
1, 21817, Control_c, 0, 64, 78
1, 21829, Note_off_c, 0, 75, 33
1, 21832, Control_c, 0, 64, 69
1, 21847, Control_c, 0, 64, 61
1, 21861, Control_c, 0, 64, 58
1, 21876, Control_c, 0, 64, 60
1, 21891, Control_c, 0, 64, 61
1, 21906, Control_c, 0, 64, 63
1, 21921, Control_c, 0, 64, 65
1, 21937, Control_c, 0, 64, 69
1, 21951, Control_c, 0, 64, 75
1, 21966, Control_c, 0, 64, 82
1, 21981, Control_c, 0, 64, 91
1, 22003, Control_c, 0, 64, 101
1, 22018, Control_c, 0, 64, 113
1, 22032, Control_c, 0, 64, 127
1, 22039, Note_off_c, 0, 63, 41
1, 22041, Note_off_c, 0, 68, 45
1, 22062, Note_off_c, 0, 72, 43
1, 22071, Note_off_c, 0, 60, 42
1, 22080, Note_off_c, 0, 80, 36
1, 22109, Note_off_c, 0, 51, 40
1, 22535, Note_on_c, 0, 79, 69
1, 22539, Note_on_c, 0, 51, 46
1, 22545, Note_on_c, 0, 68, 46
1, 22546, Note_on_c, 0, 72, 47
1, 22550, Note_on_c, 0, 39, 39
1, 22551, Control_c, 0, 64, 118
1, 22566, Control_c, 0, 64, 99
1, 22581, Control_c, 0, 64, 85
1, 22595, Control_c, 0, 64, 73
1, 22610, Control_c, 0, 64, 66
1, 22625, Control_c, 0, 64, 64
1, 22640, Control_c, 0, 64, 67
1, 22655, Control_c, 0, 64, 70
1, 22670, Control_c, 0, 64, 75
1, 22684, Control_c, 0, 64, 81
1, 22699, Control_c, 0, 64, 88
1, 22714, Control_c, 0, 64, 93
1, 22730, Control_c, 0, 64, 99
1, 22745, Control_c, 0, 64, 107
1, 22767, Control_c, 0, 64, 127
1, 22956, Note_off_c, 0, 72, 63
1, 22980, Note_off_c, 0, 68, 63
1, 22991, Note_off_c, 0, 79, 38
1, 23019, Note_off_c, 0, 39, 37
1, 23025, Note_off_c, 0, 51, 43
1, 23115, Note_on_c, 0, 51, 61
1, 23127, Note_on_c, 0, 39, 46
1, 23145, Note_off_c, 0, 51, 65
1, 23151, Note_on_c, 0, 77, 78
1, 23157, Note_off_c, 0, 39, 52
1, 23220, Note_off_c, 0, 77, 62
1, 23284, Note_on_c, 0, 77, 69
1, 23287, Note_on_c, 0, 39, 39
1, 23288, Note_on_c, 0, 73, 66
1, 23294, Note_on_c, 0, 67, 62
1, 23299, Control_c, 0, 64, 105
1, 23304, Note_on_c, 0, 51, 42
1, 23314, Control_c, 0, 64, 89
1, 23329, Control_c, 0, 64, 77
1, 23344, Control_c, 0, 64, 67
1, 23359, Control_c, 0, 64, 62
1, 23373, Control_c, 0, 64, 64
1, 23385, Note_off_c, 0, 39, 0
1, 23385, Note_on_c, 0, 39, 3
1, 23388, Control_c, 0, 64, 67
1, 23403, Control_c, 0, 64, 71
1, 23418, Control_c, 0, 64, 76
1, 23433, Control_c, 0, 64, 82
1, 23448, Control_c, 0, 64, 90
1, 23463, Control_c, 0, 64, 95
1, 23478, Control_c, 0, 64, 98
1, 23493, Control_c, 0, 64, 100
1, 23514, Control_c, 0, 64, 103
1, 23530, Control_c, 0, 64, 104
1, 23545, Control_c, 0, 64, 106
1, 23560, Control_c, 0, 64, 108
1, 23575, Control_c, 0, 64, 109
1, 23590, Control_c, 0, 64, 109
1, 23755, Note_off_c, 0, 39, 34
1, 23794, Note_off_c, 0, 51, 39
1, 24008, Note_on_c, 0, 51, 62
1, 24014, Note_on_c, 0, 75, 71
1, 24021, Note_on_c, 0, 39, 62
1, 24035, Control_c, 0, 64, 104
1, 24049, Control_c, 0, 64, 93
1, 24050, Note_off_c, 0, 77, 61
1, 24064, Control_c, 0, 64, 78
1, 24079, Control_c, 0, 64, 64
1, 24094, Control_c, 0, 64, 35
1, 24109, Control_c, 0, 64, 0
1, 24138, Control_c, 0, 64, 32
1, 24153, Control_c, 0, 64, 48
1, 24167, Control_c, 0, 64, 56
1, 24182, Control_c, 0, 64, 62
1, 24184, Note_off_c, 0, 73, 60
1, 24197, Control_c, 0, 64, 66
1, 24212, Control_c, 0, 64, 73
1, 24227, Control_c, 0, 64, 81
1, 24242, Control_c, 0, 64, 89
1, 24264, Control_c, 0, 64, 97
1, 24279, Control_c, 0, 64, 105
1, 24294, Control_c, 0, 64, 118
1, 24308, Note_off_c, 0, 75, 59
1, 24309, Control_c, 0, 64, 127
1, 24317, Note_off_c, 0, 67, 62
1, 24500, Note_off_c, 0, 51, 56
1, 24507, Note_off_c, 0, 39, 53
1, 24597, Note_on_c, 0, 51, 77
1, 24608, Note_on_c, 0, 39, 54
1, 24619, Note_off_c, 0, 51, 66
1, 24632, Note_off_c, 0, 39, 57
1, 24634, Note_on_c, 0, 60, 66
1, 24653, Note_off_c, 0, 60, 65
1, 24719, Note_on_c, 0, 60, 61
1, 24751, Note_off_c, 0, 60, 64
1, 24765, Note_on_c, 0, 68, 61
1, 24845, Note_on_c, 0, 75, 77
1, 24848, Note_on_c, 0, 53, 76
1, 24851, Note_on_c, 0, 41, 67
1, 24857, Control_c, 0, 64, 99
1, 24871, Control_c, 0, 64, 82
1, 24886, Control_c, 0, 64, 65
1, 24901, Control_c, 0, 64, 42
1, 24916, Control_c, 0, 64, 26
1, 24931, Control_c, 0, 64, 38
1, 24945, Control_c, 0, 64, 50
1, 24960, Control_c, 0, 64, 56
1, 24975, Control_c, 0, 64, 60
1, 24997, Control_c, 0, 64, 63
1, 25012, Control_c, 0, 64, 67
1, 25027, Control_c, 0, 64, 71
1, 25042, Control_c, 0, 64, 77
1, 25057, Control_c, 0, 64, 82
1, 25071, Control_c, 0, 64, 88
1, 25086, Control_c, 0, 64, 92
1, 25101, Control_c, 0, 64, 95
1, 25116, Control_c, 0, 64, 96
1, 25132, Control_c, 0, 64, 97
1, 25147, Control_c, 0, 64, 98
1, 25162, Control_c, 0, 64, 99
1, 25176, Control_c, 0, 64, 100
1, 25190, Note_off_c, 0, 75, 54
1, 25191, Note_off_c, 0, 68, 59
1, 25191, Control_c, 0, 64, 100
1, 25198, Note_off_c, 0, 53, 61
1, 25213, Note_off_c, 0, 41, 59
1, 25221, Control_c, 0, 64, 101
1, 25250, Control_c, 0, 64, 101
1, 25290, Poly_aftertouch_c, 0, 70, 127
1, 25295, Control_c, 0, 64, 102
1, 25340, Poly_aftertouch_c, 0, 70, 0
1, 25389, Note_on_c, 0, 51, 82
1, 25391, Note_on_c, 0, 39, 78
1, 25413, Note_off_c, 0, 51, 68
1, 25414, Note_off_c, 0, 39, 63
1, 25454, Note_on_c, 0, 63, 66
1, 25496, Note_on_c, 0, 68, 64
1, 25519, Note_on_c, 0, 75, 71
1, 25532, Control_c, 0, 64, 100
1, 25547, Control_c, 0, 64, 93
1, 25557, Note_on_c, 0, 56, 78
1, 25559, Note_on_c, 0, 44, 71
1, 25561, Control_c, 0, 64, 83
1, 25567, Note_on_c, 0, 73, 77
1, 25576, Control_c, 0, 64, 72
1, 25591, Control_c, 0, 64, 59
1, 25606, Control_c, 0, 64, 0
1, 25610, Note_off_c, 0, 75, 59
1, 25665, Control_c, 0, 64, 18
1, 25680, Control_c, 0, 64, 37
1, 25694, Control_c, 0, 64, 49
1, 25709, Control_c, 0, 64, 58
1, 25724, Control_c, 0, 64, 63
1, 25739, Control_c, 0, 64, 67
1, 25761, Control_c, 0, 64, 73
1, 25776, Control_c, 0, 64, 79
1, 25791, Control_c, 0, 64, 85
1, 25794, Note_off_c, 0, 44, 61
1, 25806, Control_c, 0, 64, 88
1, 25806, Note_off_c, 0, 56, 63
1, 25806, Note_off_c, 0, 68, 64
1, 25821, Control_c, 0, 64, 89
1, 25835, Control_c, 0, 64, 91
1, 25850, Control_c, 0, 64, 92
1, 25865, Control_c, 0, 64, 92
1, 25888, Note_off_c, 0, 63, 37
1, 25894, Control_c, 0, 64, 93
1, 25940, Control_c, 0, 64, 93
1, 25952, Note_off_c, 0, 73, 57
1, 26058, Control_c, 0, 64, 94
1, 26083, Note_on_c, 0, 72, 68
1, 26085, Note_on_c, 0, 48, 71
1, 26088, Control_c, 0, 64, 95
1, 26089, Note_on_c, 0, 60, 63
1, 26103, Control_c, 0, 64, 95
1, 26106, Note_off_c, 0, 48, 63
1, 26109, Note_off_c, 0, 60, 64
1, 26147, Control_c, 0, 64, 96
1, 26177, Control_c, 0, 64, 96
1, 26242, Note_on_c, 0, 75, 61
1, 26247, Note_on_c, 0, 67, 58
1, 26250, Note_on_c, 0, 46, 58
1, 26250, Control_c, 0, 64, 94
1, 26253, Note_on_c, 0, 58, 57
1, 26254, Note_on_c, 0, 61, 59
1, 26265, Control_c, 0, 64, 90
1, 26266, Note_off_c, 0, 72, 38
1, 26280, Control_c, 0, 64, 82
1, 26295, Control_c, 0, 64, 70
1, 26310, Control_c, 0, 64, 27
1, 26325, Control_c, 0, 64, 0
1, 26443, Control_c, 0, 64, 12
1, 26458, Control_c, 0, 64, 49
1, 26473, Control_c, 0, 64, 62
1, 26488, Control_c, 0, 64, 68
1, 26510, Control_c, 0, 64, 74
1, 26524, Control_c, 0, 64, 82
1, 26539, Control_c, 0, 64, 89
1, 26549, Note_off_c, 0, 58, 64
1, 26554, Control_c, 0, 64, 94
1, 26569, Control_c, 0, 64, 97
1, 26584, Control_c, 0, 64, 97
1, 26599, Control_c, 0, 64, 98
1, 26605, Note_off_c, 0, 46, 63
1, 26614, Control_c, 0, 64, 98
1, 26629, Control_c, 0, 64, 99
1, 26688, Control_c, 0, 64, 99
1, 26703, Control_c, 0, 64, 100
1, 26956, Control_c, 0, 64, 99
1, 26980, Note_on_c, 0, 39, 47
1, 26985, Note_on_c, 0, 51, 50
1, 26986, Control_c, 0, 64, 99
1, 27000, Control_c, 0, 64, 95
1, 27015, Control_c, 0, 64, 89
1, 27030, Control_c, 0, 64, 81
1, 27045, Control_c, 0, 64, 72
1, 27060, Control_c, 0, 64, 63
1, 27074, Control_c, 0, 64, 55
1, 27089, Control_c, 0, 64, 56
1, 27104, Control_c, 0, 64, 59
1, 27119, Control_c, 0, 64, 63
1, 27134, Control_c, 0, 64, 66
1, 27148, Control_c, 0, 64, 70
1, 27163, Control_c, 0, 64, 76
1, 27178, Control_c, 0, 64, 80
1, 27192, Control_c, 0, 64, 84
1, 27207, Control_c, 0, 64, 87
1, 27212, Note_off_c, 0, 75, 39
1, 27222, Control_c, 0, 64, 89
1, 27237, Control_c, 0, 64, 91
1, 27238, Note_off_c, 0, 61, 35
1, 27253, Note_on_c, 0, 70, 56
1, 27253, Note_off_c, 0, 39, 60
1, 27257, Note_off_c, 0, 51, 62
1, 27260, Control_c, 0, 64, 93
1, 27274, Control_c, 0, 64, 95
1, 27289, Control_c, 0, 64, 96
1, 27304, Control_c, 0, 64, 96
1, 27334, Control_c, 0, 64, 97
1, 27445, Note_off_c, 0, 70, 54
1, 27456, Note_off_c, 0, 67, 35
1, 27466, Note_on_c, 0, 72, 56
1, 27489, Note_off_c, 0, 72, 58
1, 27749, Control_c, 0, 64, 96
1, 27764, Control_c, 0, 64, 93
1, 27774, Note_on_c, 0, 56, 37
1, 27775, Note_on_c, 0, 44, 37
1, 27776, Note_on_c, 0, 63, 44
1, 27777, Note_on_c, 0, 68, 44
1, 27779, Control_c, 0, 64, 87
1, 27793, Note_on_c, 0, 60, 30
1, 27794, Control_c, 0, 64, 80
1, 27809, Control_c, 0, 64, 72
1, 27823, Control_c, 0, 64, 63
1, 27838, Control_c, 0, 64, 48
1, 27853, Control_c, 0, 64, 35
1, 27868, Control_c, 0, 64, 35
1, 27883, Control_c, 0, 64, 36
1, 27897, Control_c, 0, 64, 38
1, 27912, Control_c, 0, 64, 40
1, 27927, Control_c, 0, 64, 43
1, 27942, Control_c, 0, 64, 45
1, 27957, Control_c, 0, 64, 49
1, 27971, Control_c, 0, 64, 51
1, 27986, Control_c, 0, 64, 54
1, 28009, Control_c, 0, 64, 57
1, 28023, Control_c, 0, 64, 60
1, 28038, Control_c, 0, 64, 64
1, 28053, Control_c, 0, 64, 67
1, 28068, Control_c, 0, 64, 72
1, 28083, Control_c, 0, 64, 77
1, 28097, Control_c, 0, 64, 83
1, 28112, Control_c, 0, 64, 87
1, 28127, Control_c, 0, 64, 90
1, 28136, Note_off_c, 0, 56, 41
1, 28142, Control_c, 0, 64, 92
1, 28151, Note_off_c, 0, 44, 40
1, 28156, Control_c, 0, 64, 93
1, 28158, Note_off_c, 0, 68, 61
1, 28159, Note_off_c, 0, 60, 43
1, 28171, Control_c, 0, 64, 93
1, 28186, Control_c, 0, 64, 94
1, 28201, Control_c, 0, 64, 94
1, 28216, Control_c, 0, 64, 95
1, 28230, Control_c, 0, 64, 97
1, 28245, Control_c, 0, 64, 98
1, 28260, Control_c, 0, 64, 99
1, 28262, Note_off_c, 0, 63, 41
1, 28275, Control_c, 0, 64, 99
1, 28290, Control_c, 0, 64, 100
1, 28304, Control_c, 0, 64, 100
1, 28335, Control_c, 0, 64, 101
1, 28394, Control_c, 0, 64, 101
1, 28632, Control_c, 0, 64, 101
1, 28674, Note_on_c, 0, 48, 51
1, 28674, Note_on_c, 0, 68, 73
1, 28676, Control_c, 0, 64, 96
1, 28677, Note_on_c, 0, 36, 45
1, 28679, Note_on_c, 0, 58, 61
1, 28680, Note_on_c, 0, 64, 61
1, 28691, Control_c, 0, 64, 89
1, 28706, Control_c, 0, 64, 79
1, 28720, Control_c, 0, 64, 66
1, 28742, Control_c, 0, 64, 35
1, 28757, Control_c, 0, 64, 0
1, 29028, Note_on_c, 0, 67, 75
1, 29077, Note_off_c, 0, 68, 58
1, 29276, Control_c, 0, 64, 28
1, 29291, Control_c, 0, 64, 47
1, 29305, Control_c, 0, 64, 56
1, 29320, Control_c, 0, 64, 62
1, 29328, Note_off_c, 0, 64, 65
1, 29335, Control_c, 0, 64, 66
1, 29350, Control_c, 0, 64, 72
1, 29365, Control_c, 0, 64, 77
1, 29373, Note_off_c, 0, 36, 57
1, 29380, Control_c, 0, 64, 81
1, 29394, Note_off_c, 0, 48, 59
1, 29394, Control_c, 0, 64, 83
1, 29409, Control_c, 0, 64, 86
1, 29424, Control_c, 0, 64, 89
1, 29439, Control_c, 0, 64, 93
1, 29454, Control_c, 0, 64, 95
1, 29468, Control_c, 0, 64, 97
1, 29483, Control_c, 0, 64, 99
1, 29505, Control_c, 0, 64, 100
1, 29535, Control_c, 0, 64, 100
1, 29586, Note_off_c, 0, 67, 61
1, 29602, Note_on_c, 0, 65, 77
1, 29608, Note_off_c, 0, 58, 61
1, 29665, Note_off_c, 0, 65, 60
1, 29726, Note_on_c, 0, 65, 65
1, 29728, Control_c, 0, 64, 100
1, 29742, Control_c, 0, 64, 96
1, 29745, Note_on_c, 0, 56, 46
1, 29746, Note_on_c, 0, 41, 35
1, 29757, Control_c, 0, 64, 89
1, 29772, Control_c, 0, 64, 79
1, 29786, Control_c, 0, 64, 69
1, 29801, Control_c, 0, 64, 59
1, 29815, Control_c, 0, 64, 52
1, 29830, Control_c, 0, 64, 58
1, 29845, Control_c, 0, 64, 62
1, 29860, Control_c, 0, 64, 66
1, 29875, Control_c, 0, 64, 71
1, 29890, Control_c, 0, 64, 79
1, 29905, Control_c, 0, 64, 86
1, 29920, Control_c, 0, 64, 93
1, 29935, Control_c, 0, 64, 98
1, 29943, Note_off_c, 0, 65, 63
1, 29950, Control_c, 0, 64, 101
1, 29964, Control_c, 0, 64, 104
1, 29979, Control_c, 0, 64, 106
1, 29985, Note_off_c, 0, 41, 54
1, 29987, Note_off_c, 0, 56, 64
1, 29994, Control_c, 0, 64, 109
1, 30009, Control_c, 0, 64, 113
1, 30024, Control_c, 0, 64, 115
1, 30039, Control_c, 0, 64, 116
1, 30054, Control_c, 0, 64, 116
1, 30202, Control_c, 0, 64, 116
1, 30268, Control_c, 0, 64, 115
1, 30283, Control_c, 0, 64, 114
1, 30298, Control_c, 0, 64, 112
1, 30313, Control_c, 0, 64, 111
1, 30328, Control_c, 0, 64, 110
1, 30342, Control_c, 0, 64, 109
1, 30357, Control_c, 0, 64, 108
1, 30372, Control_c, 0, 64, 107
1, 30387, Control_c, 0, 64, 106
1, 30402, Control_c, 0, 64, 104
1, 30416, Control_c, 0, 64, 102
1, 30431, Control_c, 0, 64, 100
1, 30432, Note_on_c, 0, 36, 36
1, 30435, Note_on_c, 0, 48, 47
1, 30446, Control_c, 0, 64, 96
1, 30461, Control_c, 0, 64, 92
1, 30476, Control_c, 0, 64, 87
1, 30490, Control_c, 0, 64, 82
1, 30505, Control_c, 0, 64, 76
1, 30520, Control_c, 0, 64, 71
1, 30534, Control_c, 0, 64, 65
1, 30549, Control_c, 0, 64, 57
1, 30565, Control_c, 0, 64, 45
1, 30580, Control_c, 0, 64, 41
1, 30620, Note_off_c, 0, 48, 63
1, 30640, Note_off_c, 0, 36, 55
1, 30833, Control_c, 0, 64, 40
1, 30847, Control_c, 0, 64, 40
1, 30862, Control_c, 0, 64, 39
1, 30877, Control_c, 0, 64, 38
1, 30892, Control_c, 0, 64, 38
1, 30907, Control_c, 0, 64, 37
1, 30921, Control_c, 0, 64, 37
1, 30936, Control_c, 0, 64, 36
1, 30966, Control_c, 0, 64, 35
1, 30966, Note_on_c, 0, 53, 54
1, 30976, Note_on_c, 0, 29, 38
1, 31035, Poly_aftertouch_c, 0, 41, 127
1, 31058, Note_off_c, 0, 29, 55
1, 31092, Control_c, 0, 64, 35
1, 31095, Poly_aftertouch_c, 0, 41, 0
1, 31099, Note_on_c, 0, 39, 36
1, 31103, Note_on_c, 0, 51, 56
1, 31111, Note_on_c, 0, 27, 27
1, 31124, Note_off_c, 0, 53, 48
1, 31739, Note_on_c, 0, 46, 42
1, 31753, Note_on_c, 0, 34, 27
1, 31766, Control_c, 0, 64, 36
1, 31774, Note_off_c, 0, 39, 38
1, 31781, Control_c, 0, 64, 39
1, 31795, Control_c, 0, 64, 46
1, 31798, Note_off_c, 0, 51, 35
1, 31801, Note_off_c, 0, 27, 44
1, 31810, Control_c, 0, 64, 52
1, 31825, Control_c, 0, 64, 56
1, 31840, Control_c, 0, 64, 59
1, 31855, Control_c, 0, 64, 62
1, 31869, Control_c, 0, 64, 63
1, 31884, Control_c, 0, 64, 65
1, 31899, Control_c, 0, 64, 66
1, 31914, Control_c, 0, 64, 66
1, 31938, Note_off_c, 0, 46, 64
1, 31944, Note_off_c, 0, 34, 56
1, 31944, Control_c, 0, 64, 66
1, 31958, Control_c, 0, 64, 65
1, 31973, Control_c, 0, 64, 65
1, 31988, Control_c, 0, 64, 64
1, 32003, Control_c, 0, 64, 62
1, 32018, Control_c, 0, 64, 60
1, 32033, Control_c, 0, 64, 57
1, 32048, Control_c, 0, 64, 55
1, 32062, Control_c, 0, 64, 53
1, 32077, Control_c, 0, 64, 50
1, 32092, Control_c, 0, 64, 49
1, 32107, Control_c, 0, 64, 48
1, 32121, Control_c, 0, 64, 47
1, 32136, Control_c, 0, 64, 46
1, 32151, Control_c, 0, 64, 45
1, 32166, Control_c, 0, 64, 44
1, 32181, Control_c, 0, 64, 42
1, 32195, Control_c, 0, 64, 40
1, 32210, Control_c, 0, 64, 39
1, 32225, Control_c, 0, 64, 38
1, 32240, Control_c, 0, 64, 37
1, 32255, Control_c, 0, 64, 37
1, 32257, Note_on_c, 0, 27, 40
1, 32260, Note_on_c, 0, 51, 47
1, 32284, Control_c, 0, 64, 36
1, 32287, Note_on_c, 0, 39, 16
1, 32299, Control_c, 0, 64, 36
1, 32352, Note_off_c, 0, 27, 53
1, 32366, Note_off_c, 0, 51, 58
1, 32385, Note_on_c, 0, 49, 49
1, 32397, Note_on_c, 0, 25, 30
1, 32409, Note_off_c, 0, 39, 30
1, 32418, Note_on_c, 0, 37, 22
1, 33028, Note_on_c, 0, 44, 38
1, 33038, Note_on_c, 0, 32, 32
1, 33071, Note_off_c, 0, 37, 39
1, 33085, Note_off_c, 0, 25, 42
1, 33133, Note_off_c, 0, 49, 36
1, 33234, Note_off_c, 0, 44, 55
1, 33245, Note_off_c, 0, 32, 55
1, 33607, Note_on_c, 0, 49, 40
1, 33616, Note_on_c, 0, 25, 29
1, 33667, Poly_aftertouch_c, 0, 37, 127
1, 33767, Note_off_c, 0, 25, 38
1, 33774, Note_off_c, 0, 49, 37
1, 33774, Note_on_c, 0, 48, 34
1, 33789, Note_on_c, 0, 24, 30
1, 33810, Poly_aftertouch_c, 0, 37, 0
1, 33832, Poly_aftertouch_c, 0, 36, 127
1, 33977, Control_c, 0, 64, 37
1, 33998, Control_c, 0, 64, 37
1, 34013, Control_c, 0, 64, 38
1, 34028, Control_c, 0, 64, 38
1, 34043, Control_c, 0, 64, 39
1, 34058, Control_c, 0, 64, 40
1, 34072, Control_c, 0, 64, 41
1, 34087, Control_c, 0, 64, 42
1, 34102, Control_c, 0, 64, 45
1, 34117, Control_c, 0, 64, 47
1, 34132, Control_c, 0, 64, 49
1, 34146, Control_c, 0, 64, 52
1, 34161, Control_c, 0, 64, 54
1, 34176, Control_c, 0, 64, 57
1, 34191, Control_c, 0, 64, 60
1, 34206, Control_c, 0, 64, 63
1, 34221, Control_c, 0, 64, 65
1, 34236, Control_c, 0, 64, 68
1, 34251, Control_c, 0, 64, 71
1, 34265, Control_c, 0, 64, 74
1, 34280, Control_c, 0, 64, 78
1, 34295, Control_c, 0, 64, 80
1, 34310, Control_c, 0, 64, 82
1, 34325, Control_c, 0, 64, 83
1, 34339, Control_c, 0, 64, 85
1, 34354, Control_c, 0, 64, 86
1, 34362, Note_off_c, 0, 24, 38
1, 34369, Control_c, 0, 64, 87
1, 34383, Control_c, 0, 64, 89
1, 34398, Control_c, 0, 64, 90
1, 34413, Control_c, 0, 64, 91
1, 34428, Control_c, 0, 64, 92
1, 34439, Poly_aftertouch_c, 0, 36, 0
1, 34443, Control_c, 0, 64, 93
1, 34445, Note_off_c, 0, 48, 42
1, 34457, Control_c, 0, 64, 94
1, 34472, Control_c, 0, 64, 95
1, 34487, Control_c, 0, 64, 96
1, 34502, Control_c, 0, 64, 97
1, 34516, Control_c, 0, 64, 97
1, 34531, Control_c, 0, 64, 98
1, 34546, Control_c, 0, 64, 98
1, 34561, Control_c, 0, 64, 99
1, 35406, Note_on_c, 0, 72, 50
1, 35413, Control_c, 0, 64, 97
1, 35415, Note_on_c, 0, 70, 38
1, 35419, Note_on_c, 0, 55, 29
1, 35419, Note_on_c, 0, 64, 37
1, 35426, Note_on_c, 0, 48, 28
1, 35428, Control_c, 0, 64, 95
1, 35430, Note_on_c, 0, 60, 20
1, 35443, Control_c, 0, 64, 91
1, 35458, Control_c, 0, 64, 87
1, 35473, Control_c, 0, 64, 82
1, 35494, Control_c, 0, 64, 77
1, 35510, Control_c, 0, 64, 74
1, 35525, Control_c, 0, 64, 72
1, 35569, Control_c, 0, 64, 72
1, 35584, Control_c, 0, 64, 73
1, 35599, Control_c, 0, 64, 74
1, 35614, Control_c, 0, 64, 76
1, 35629, Control_c, 0, 64, 78
1, 35643, Control_c, 0, 64, 80
1, 35658, Control_c, 0, 64, 83
1, 35673, Control_c, 0, 64, 86
1, 35688, Control_c, 0, 64, 90
1, 35703, Control_c, 0, 64, 93
1, 35717, Control_c, 0, 64, 96
1, 35732, Control_c, 0, 64, 98
1, 35747, Control_c, 0, 64, 100
1, 35756, Note_off_c, 0, 64, 41
1, 35762, Control_c, 0, 64, 101
1, 35768, Note_off_c, 0, 60, 44
1, 35777, Control_c, 0, 64, 101
1, 35788, Note_off_c, 0, 48, 40
1, 35807, Control_c, 0, 64, 102
1, 35808, Note_off_c, 0, 55, 40
1, 35810, Note_off_c, 0, 70, 37
1, 35810, Note_off_c, 0, 72, 35
1, 35822, Control_c, 0, 64, 102
1, 35851, Control_c, 0, 64, 103
1, 36228, Note_on_c, 0, 48, 36
1, 36228, Note_on_c, 0, 72, 71
1, 36233, Note_on_c, 0, 55, 35
1, 36235, Note_on_c, 0, 60, 37
1, 36245, Note_on_c, 0, 64, 44
1, 36250, Note_on_c, 0, 70, 49
1, 36418, Note_off_c, 0, 60, 44
1, 36431, Note_off_c, 0, 48, 41
1, 36457, Note_off_c, 0, 64, 42
1, 36460, Note_off_c, 0, 55, 44
1, 36486, Note_off_c, 0, 72, 62
1, 36556, Control_c, 0, 64, 103
1, 36585, Control_c, 0, 64, 104
1, 36753, Note_on_c, 0, 72, 74
1, 36757, Note_on_c, 0, 55, 53
1, 36764, Note_on_c, 0, 48, 40
1, 36764, Note_on_c, 0, 60, 40
1, 36766, Note_on_c, 0, 64, 58
1, 36781, Note_off_c, 0, 70, 36
1, 36783, Note_off_c, 0, 55, 62
1, 36788, Note_off_c, 0, 64, 61
1, 36796, Note_off_c, 0, 60, 52
1, 36800, Note_off_c, 0, 48, 51
1, 36897, Note_on_c, 0, 73, 72
1, 36897, Control_c, 0, 64, 103
1, 36899, Note_on_c, 0, 48, 47
1, 36909, Note_on_c, 0, 60, 22
1, 36911, Control_c, 0, 64, 99
1, 36912, Note_on_c, 0, 56, 50
1, 36912, Note_on_c, 0, 65, 54
1, 36915, Note_off_c, 0, 72, 64
1, 36926, Control_c, 0, 64, 92
1, 36941, Control_c, 0, 64, 83
1, 36956, Control_c, 0, 64, 73
1, 36971, Control_c, 0, 64, 64
1, 36993, Control_c, 0, 64, 56
1, 37023, Control_c, 0, 64, 60
1, 37038, Control_c, 0, 64, 63
1, 37053, Control_c, 0, 64, 66
1, 37067, Control_c, 0, 64, 69
1, 37082, Control_c, 0, 64, 73
1, 37097, Control_c, 0, 64, 77
1, 37112, Control_c, 0, 64, 82
1, 37127, Control_c, 0, 64, 87
1, 37142, Control_c, 0, 64, 93
1, 37157, Control_c, 0, 64, 98
1, 37172, Control_c, 0, 64, 103
1, 37174, Note_off_c, 0, 48, 39
1, 37187, Control_c, 0, 64, 106
1, 37201, Control_c, 0, 64, 110
1, 37216, Control_c, 0, 64, 114
1, 37229, Note_off_c, 0, 65, 58
1, 37231, Control_c, 0, 64, 116
1, 37246, Control_c, 0, 64, 117
1, 37261, Note_off_c, 0, 56, 53
1, 37261, Control_c, 0, 64, 118
1, 37276, Note_off_c, 0, 60, 40
1, 37290, Control_c, 0, 64, 118
1, 37422, Note_off_c, 0, 73, 61
1, 37464, Note_on_c, 0, 72, 73
1, 37601, Control_c, 0, 64, 117
1, 37606, Note_on_c, 0, 77, 78
1, 37610, Note_on_c, 0, 68, 60
1, 37616, Control_c, 0, 64, 105
1, 37619, Note_on_c, 0, 60, 44
1, 37619, Note_on_c, 0, 65, 46
1, 37631, Control_c, 0, 64, 93
1, 37646, Control_c, 0, 64, 80
1, 37661, Control_c, 0, 64, 69
1, 37675, Control_c, 0, 64, 58
1, 37690, Control_c, 0, 64, 52
1, 37705, Control_c, 0, 64, 59
1, 37720, Control_c, 0, 64, 64
1, 37741, Control_c, 0, 64, 69
1, 37756, Control_c, 0, 64, 78
1, 37771, Control_c, 0, 64, 89
1, 37786, Control_c, 0, 64, 100
1, 37794, Note_off_c, 0, 72, 63
1, 37801, Control_c, 0, 64, 110
1, 37816, Control_c, 0, 64, 127
1, 37840, Note_off_c, 0, 68, 63
1, 37855, Note_off_c, 0, 60, 62
1, 37864, Note_off_c, 0, 65, 60
1, 38123, Note_off_c, 0, 77, 61
1, 38138, Note_on_c, 0, 68, 51
1, 38143, Note_on_c, 0, 80, 75
1, 38146, Note_on_c, 0, 65, 56
1, 38152, Note_on_c, 0, 60, 41
1, 38155, Note_on_c, 0, 72, 61
1, 38162, Note_off_c, 0, 68, 63
1, 38180, Note_off_c, 0, 60, 55
1, 38195, Note_off_c, 0, 72, 58
1, 38270, Note_off_c, 0, 65, 60
1, 38282, Note_on_c, 0, 79, 78
1, 38291, Control_c, 0, 64, 120
1, 38295, Note_on_c, 0, 60, 38
1, 38295, Note_on_c, 0, 72, 56
1, 38296, Note_on_c, 0, 64, 48
1, 38301, Note_on_c, 0, 70, 43
1, 38305, Control_c, 0, 64, 98
1, 38313, Note_off_c, 0, 80, 64
1, 38320, Control_c, 0, 64, 83
1, 38335, Control_c, 0, 64, 70
1, 38350, Control_c, 0, 64, 57
1, 38364, Control_c, 0, 64, 31
1, 38379, Control_c, 0, 64, 27
1, 38394, Control_c, 0, 64, 37
1, 38409, Control_c, 0, 64, 46
1, 38424, Control_c, 0, 64, 52
1, 38439, Control_c, 0, 64, 57
1, 38454, Control_c, 0, 64, 62
1, 38469, Control_c, 0, 64, 68
1, 38491, Control_c, 0, 64, 77
1, 38505, Control_c, 0, 64, 87
1, 38520, Control_c, 0, 64, 97
1, 38535, Control_c, 0, 64, 105
1, 38550, Control_c, 0, 64, 114
1, 38556, Note_off_c, 0, 72, 57
1, 38564, Control_c, 0, 64, 127
1, 38566, Note_off_c, 0, 60, 59
1, 38576, Note_off_c, 0, 64, 61
1, 38588, Note_off_c, 0, 70, 55
1, 38943, Note_on_c, 0, 72, 68
1, 38944, Note_on_c, 0, 60, 40
1, 38945, Note_on_c, 0, 67, 46
1, 38954, Note_on_c, 0, 70, 46
1, 39035, Note_off_c, 0, 70, 62
1, 39043, Note_off_c, 0, 67, 61
1, 39046, Note_off_c, 0, 60, 62
1, 39098, Note_off_c, 0, 79, 59
1, 39119, Note_off_c, 0, 72, 64
1, 39614, Note_on_c, 0, 79, 73
1, 39616, Note_on_c, 0, 68, 57
1, 39619, Note_on_c, 0, 53, 51
1, 39622, Note_on_c, 0, 60, 49
1, 39622, Note_on_c, 0, 67, 46
1, 39622, Note_on_c, 0, 72, 51
1, 39625, Control_c, 0, 64, 116
1, 39640, Control_c, 0, 64, 98
1, 39655, Control_c, 0, 64, 85
1, 39670, Control_c, 0, 64, 73
1, 39685, Control_c, 0, 64, 62
1, 39700, Control_c, 0, 64, 40
1, 39715, Control_c, 0, 64, 34
1, 39729, Control_c, 0, 64, 42
1, 39744, Control_c, 0, 64, 49
1, 39759, Control_c, 0, 64, 53
1, 39774, Control_c, 0, 64, 56
1, 39789, Control_c, 0, 64, 60
1, 39803, Control_c, 0, 64, 64
1, 39818, Control_c, 0, 64, 67
1, 39833, Control_c, 0, 64, 72
1, 39843, Note_off_c, 0, 67, 61
1, 39848, Control_c, 0, 64, 79
1, 39863, Control_c, 0, 64, 85
1, 39877, Control_c, 0, 64, 90
1, 39892, Control_c, 0, 64, 94
1, 39907, Control_c, 0, 64, 96
1, 39921, Control_c, 0, 64, 97
1, 39936, Control_c, 0, 64, 98
1, 39951, Control_c, 0, 64, 98
1, 39989, Control_c, 0, 64, 99
1, 40323, Note_on_c, 0, 77, 70
1, 40326, Note_on_c, 0, 65, 49
1, 40338, Note_off_c, 0, 79, 58
1, 40345, Control_c, 0, 64, 96
1, 40359, Control_c, 0, 64, 91
1, 40374, Control_c, 0, 64, 83
1, 40389, Control_c, 0, 64, 75
1, 40404, Control_c, 0, 64, 68
1, 40419, Control_c, 0, 64, 63
1, 40433, Control_c, 0, 64, 62
1, 40448, Control_c, 0, 64, 64
1, 40463, Control_c, 0, 64, 66
1, 40478, Control_c, 0, 64, 71
1, 40493, Control_c, 0, 64, 76
1, 40508, Control_c, 0, 64, 82
1, 40523, Control_c, 0, 64, 87
1, 40538, Control_c, 0, 64, 91
1, 40541, Note_off_c, 0, 72, 63
1, 40544, Note_off_c, 0, 65, 62
1, 40552, Control_c, 0, 64, 94
1, 40561, Note_off_c, 0, 60, 65
1, 40567, Control_c, 0, 64, 96
1, 40582, Control_c, 0, 64, 98
1, 40597, Control_c, 0, 64, 99
1, 40612, Control_c, 0, 64, 100
1, 40641, Control_c, 0, 64, 100
1, 40749, Note_off_c, 0, 68, 33
1, 40906, Note_on_c, 0, 73, 63
1, 40910, Note_on_c, 0, 61, 45
1, 40974, Control_c, 0, 64, 100
1, 40982, Note_off_c, 0, 61, 53
1, 40989, Control_c, 0, 64, 96
1, 41004, Control_c, 0, 64, 89
1, 41019, Control_c, 0, 64, 80
1, 41028, Note_on_c, 0, 72, 62
1, 41033, Control_c, 0, 64, 68
1, 41035, Note_on_c, 0, 60, 38
1, 41048, Control_c, 0, 64, 60
1, 41063, Control_c, 0, 64, 54
1, 41064, Note_off_c, 0, 73, 60
1, 41077, Control_c, 0, 64, 57
1, 41092, Control_c, 0, 64, 61
1, 41109, Control_c, 0, 64, 64
1, 41123, Control_c, 0, 64, 68
1, 41138, Control_c, 0, 64, 75
1, 41153, Control_c, 0, 64, 84
1, 41168, Control_c, 0, 64, 97
1, 41180, Note_off_c, 0, 77, 60
1, 41182, Control_c, 0, 64, 114
1, 41192, Note_off_c, 0, 60, 64
1, 41197, Control_c, 0, 64, 127
1, 41226, Note_off_c, 0, 72, 63
1, 41244, Note_off_c, 0, 53, 64
1, 41679, Control_c, 0, 64, 125
1, 41694, Control_c, 0, 64, 118
1, 41708, Control_c, 0, 64, 113
1, 41723, Control_c, 0, 64, 109
1, 41730, Note_on_c, 0, 48, 51
1, 41736, Note_on_c, 0, 36, 37
1, 41738, Control_c, 0, 64, 104
1, 41753, Control_c, 0, 64, 99
1, 41767, Control_c, 0, 64, 93
1, 41782, Control_c, 0, 64, 87
1, 41797, Control_c, 0, 64, 79
1, 41812, Control_c, 0, 64, 73
1, 41827, Control_c, 0, 64, 66
1, 41841, Control_c, 0, 64, 58
1, 41856, Control_c, 0, 64, 50
1, 41871, Control_c, 0, 64, 49
1, 41934, Note_off_c, 0, 48, 63
1, 41944, Note_off_c, 0, 36, 55
1, 42079, Control_c, 0, 64, 48
1, 42123, Control_c, 0, 64, 48
1, 42138, Control_c, 0, 64, 47
1, 42168, Control_c, 0, 64, 47
1, 42183, Control_c, 0, 64, 46
1, 42213, Control_c, 0, 64, 46
1, 42235, Control_c, 0, 64, 45
1, 42250, Control_c, 0, 64, 44
1, 42265, Control_c, 0, 64, 43
1, 42279, Control_c, 0, 64, 42
1, 42294, Control_c, 0, 64, 41
1, 42304, Note_on_c, 0, 53, 59
1, 42309, Control_c, 0, 64, 40
1, 42311, Note_on_c, 0, 29, 41
1, 42315, Note_on_c, 0, 41, 37
1, 42323, Control_c, 0, 64, 39
1, 42338, Control_c, 0, 64, 39
1, 42353, Control_c, 0, 64, 38
1, 42368, Control_c, 0, 64, 37
1, 42383, Control_c, 0, 64, 37
1, 42398, Control_c, 0, 64, 36
1, 42405, Note_off_c, 0, 29, 57
1, 42413, Control_c, 0, 64, 36
1, 42429, Note_on_c, 0, 39, 38
1, 42431, Note_on_c, 0, 27, 35
1, 42442, Note_on_c, 0, 51, 59
1, 42442, Control_c, 0, 64, 35
1, 42448, Note_off_c, 0, 53, 58
1, 42453, Note_off_c, 0, 41, 37
1, 42457, Control_c, 0, 64, 35
1, 42472, Control_c, 0, 64, 34
1, 42517, Control_c, 0, 64, 34
1, 43131, Note_on_c, 0, 46, 47
1, 43138, Note_on_c, 0, 34, 35
1, 43158, Note_off_c, 0, 39, 39
1, 43160, Control_c, 0, 64, 34
1, 43175, Control_c, 0, 64, 37
1, 43190, Control_c, 0, 64, 42
1, 43205, Control_c, 0, 64, 48
1, 43214, Note_off_c, 0, 51, 35
1, 43216, Note_off_c, 0, 27, 42
1, 43219, Control_c, 0, 64, 52
1, 43234, Control_c, 0, 64, 54
1, 43249, Control_c, 0, 64, 56
1, 43264, Control_c, 0, 64, 58
1, 43278, Control_c, 0, 64, 60
1, 43294, Control_c, 0, 64, 60
1, 43339, Control_c, 0, 64, 60
1, 43343, Note_off_c, 0, 46, 64
1, 43353, Note_off_c, 0, 34, 57
1, 43353, Control_c, 0, 64, 59
1, 43368, Control_c, 0, 64, 59
1, 43383, Control_c, 0, 64, 58
1, 43398, Control_c, 0, 64, 57
1, 43413, Control_c, 0, 64, 56
1, 43427, Control_c, 0, 64, 55
1, 43442, Control_c, 0, 64, 55
1, 43457, Control_c, 0, 64, 54
1, 43471, Control_c, 0, 64, 54
1, 43503, Control_c, 0, 64, 53
1, 43517, Control_c, 0, 64, 53
1, 43547, Control_c, 0, 64, 52
1, 43561, Control_c, 0, 64, 52
1, 43576, Control_c, 0, 64, 51
1, 43591, Control_c, 0, 64, 51
1, 43606, Control_c, 0, 64, 50
1, 43621, Control_c, 0, 64, 50
1, 43635, Control_c, 0, 64, 49
1, 43650, Control_c, 0, 64, 49
1, 43665, Control_c, 0, 64, 48
1, 43680, Control_c, 0, 64, 47
1, 43694, Control_c, 0, 64, 47
1, 43700, Note_on_c, 0, 51, 45
1, 43700, Note_on_c, 0, 27, 36
1, 43709, Control_c, 0, 64, 46
1, 43721, Note_on_c, 0, 39, 22
1, 43732, Control_c, 0, 64, 46
1, 43747, Control_c, 0, 64, 45
1, 43791, Control_c, 0, 64, 45
1, 43802, Note_off_c, 0, 27, 48
1, 43822, Note_off_c, 0, 51, 55
1, 43840, Note_on_c, 0, 25, 34
1, 43844, Note_on_c, 0, 49, 49
1, 43862, Note_off_c, 0, 39, 25
1, 43875, Note_on_c, 0, 37, 21
1, 43894, Control_c, 0, 64, 44
1, 44073, Control_c, 0, 64, 44
1, 44568, Note_on_c, 0, 32, 33
1, 44568, Note_on_c, 0, 44, 36
1, 44594, Note_off_c, 0, 37, 37
1, 44639, Note_off_c, 0, 25, 41
1, 44647, Note_off_c, 0, 49, 31
1, 44732, Control_c, 0, 64, 45
1, 44747, Control_c, 0, 64, 47
1, 44762, Control_c, 0, 64, 49
1, 44777, Control_c, 0, 64, 52
1, 44791, Control_c, 0, 64, 55
1, 44806, Control_c, 0, 64, 57
1, 44813, Note_off_c, 0, 44, 42
1, 44821, Control_c, 0, 64, 59
1, 44836, Control_c, 0, 64, 62
1, 44848, Note_off_c, 0, 32, 51
1, 44851, Control_c, 0, 64, 63
1, 44866, Control_c, 0, 64, 65
1, 44881, Control_c, 0, 64, 66
1, 44896, Control_c, 0, 64, 67
1, 44911, Control_c, 0, 64, 67
1, 45119, Control_c, 0, 64, 67
1, 45178, Control_c, 0, 64, 66
1, 45363, Control_c, 0, 64, 66
1, 45373, Note_on_c, 0, 49, 37
1, 45386, Note_on_c, 0, 25, 30
1, 45419, Note_on_c, 0, 37, 3
1, 45511, Control_c, 0, 64, 65
1, 45561, Note_off_c, 0, 25, 40
1, 45569, Control_c, 0, 64, 65
1, 45584, Control_c, 0, 64, 64
1, 45599, Note_off_c, 0, 49, 45
1, 45599, Control_c, 0, 64, 63
1, 45608, Note_on_c, 0, 23, 36
1, 45608, Note_on_c, 0, 47, 37
1, 45614, Control_c, 0, 64, 62
1, 45629, Control_c, 0, 64, 59
1, 45641, Note_on_c, 0, 35, 13
1, 45643, Note_off_c, 0, 37, 15
1, 45644, Control_c, 0, 64, 55
1, 45659, Control_c, 0, 64, 52
1, 45673, Control_c, 0, 64, 48
1, 45688, Control_c, 0, 64, 45
1, 45703, Control_c, 0, 64, 42
1, 45718, Control_c, 0, 64, 40
1, 45733, Control_c, 0, 64, 40
1, 45747, Control_c, 0, 64, 39
1, 45865, Control_c, 0, 64, 40
1, 45897, Control_c, 0, 64, 40
1, 45911, Control_c, 0, 64, 42
1, 45926, Control_c, 0, 64, 43
1, 45941, Control_c, 0, 64, 45
1, 45956, Control_c, 0, 64, 46
1, 45978, Control_c, 0, 64, 48
1, 45993, Control_c, 0, 64, 51
1, 46007, Control_c, 0, 64, 54
1, 46022, Control_c, 0, 64, 56
1, 46037, Control_c, 0, 64, 58
1, 46052, Control_c, 0, 64, 59
1, 46067, Control_c, 0, 64, 60
1, 46082, Control_c, 0, 64, 62
1, 46096, Control_c, 0, 64, 64
1, 46111, Control_c, 0, 64, 66
1, 46126, Control_c, 0, 64, 69
1, 46141, Control_c, 0, 64, 72
1, 46156, Control_c, 0, 64, 76
1, 46170, Control_c, 0, 64, 79
1, 46185, Control_c, 0, 64, 81
1, 46200, Control_c, 0, 64, 82
1, 46215, Control_c, 0, 64, 83
1, 46217, Note_off_c, 0, 23, 37
1, 46230, Control_c, 0, 64, 84
1, 46244, Control_c, 0, 64, 84
1, 46259, Control_c, 0, 64, 85
1, 46274, Control_c, 0, 64, 86
1, 46289, Control_c, 0, 64, 86
1, 46304, Control_c, 0, 64, 87
1, 46319, Control_c, 0, 64, 87
1, 46320, Note_off_c, 0, 47, 38
1, 46334, Control_c, 0, 64, 88
1, 46342, Note_off_c, 0, 35, 38
1, 46349, Control_c, 0, 64, 89
1, 46363, Control_c, 0, 64, 90
1, 46393, Control_c, 0, 64, 90
1, 46408, Control_c, 0, 64, 91
1, 46437, Control_c, 0, 64, 91
1, 46467, Control_c, 0, 64, 92
1, 46496, Control_c, 0, 64, 92
1, 46526, Control_c, 0, 64, 93
1, 46660, Control_c, 0, 64, 93
1, 46727, Control_c, 0, 64, 94
1, 46742, Control_c, 0, 64, 94
1, 46772, Control_c, 0, 64, 95
1, 46801, Control_c, 0, 64, 95
1, 46831, Control_c, 0, 64, 96
1, 46846, Control_c, 0, 64, 96
1, 46861, Control_c, 0, 64, 97
1, 46905, Control_c, 0, 64, 97
1, 46964, Control_c, 0, 64, 98
1, 47009, Control_c, 0, 64, 98
1, 47054, Control_c, 0, 64, 99
1, 47142, Control_c, 0, 64, 99
1, 47305, Control_c, 0, 64, 100
1, 47564, Note_on_c, 0, 71, 42
1, 47575, Note_on_c, 0, 54, 28
1, 47575, Note_on_c, 0, 47, 27
1, 47575, Note_on_c, 0, 69, 30
1, 47577, Note_on_c, 0, 63, 36
1, 47599, Note_on_c, 0, 59, 17
1, 47624, Control_c, 0, 64, 100
1, 47698, Control_c, 0, 64, 101
1, 47742, Control_c, 0, 64, 101
1, 47757, Control_c, 0, 64, 102
1, 47772, Control_c, 0, 64, 103
1, 47787, Control_c, 0, 64, 104
1, 47802, Control_c, 0, 64, 106
1, 47817, Control_c, 0, 64, 107
1, 47832, Control_c, 0, 64, 109
1, 47847, Control_c, 0, 64, 110
1, 47851, Note_off_c, 0, 59, 39
1, 47861, Control_c, 0, 64, 111
1, 47876, Control_c, 0, 64, 112
1, 47877, Note_off_c, 0, 47, 41
1, 47891, Control_c, 0, 64, 113
1, 47893, Note_off_c, 0, 71, 42
1, 47903, Note_off_c, 0, 63, 43
1, 47906, Control_c, 0, 64, 113
1, 47915, Note_off_c, 0, 54, 42
1, 47921, Control_c, 0, 64, 114
1, 47932, Note_off_c, 0, 69, 41
1, 47935, Control_c, 0, 64, 115
1, 47965, Control_c, 0, 64, 116
1, 47980, Control_c, 0, 64, 117
1, 48009, Control_c, 0, 64, 117
1, 48039, Control_c, 0, 64, 118
1, 48157, Control_c, 0, 64, 118
1, 48403, Note_on_c, 0, 71, 58
1, 48407, Note_on_c, 0, 54, 34
1, 48415, Note_on_c, 0, 47, 25
1, 48416, Note_on_c, 0, 69, 42
1, 48416, Note_on_c, 0, 63, 38
1, 48422, Note_on_c, 0, 59, 23
1, 48433, Control_c, 0, 64, 120
1, 48447, Control_c, 0, 64, 127
1, 48619, Note_off_c, 0, 59, 42
1, 48641, Note_off_c, 0, 47, 42
1, 48650, Note_off_c, 0, 54, 51
1, 48652, Note_off_c, 0, 71, 65
1, 48663, Note_off_c, 0, 63, 38
1, 48988, Note_on_c, 0, 71, 67
1, 48990, Note_off_c, 0, 69, 64
1, 48991, Note_on_c, 0, 54, 42
1, 49000, Note_on_c, 0, 63, 44
1, 49010, Note_on_c, 0, 47, 17
1, 49017, Note_on_c, 0, 59, 12
1, 49021, Note_off_c, 0, 54, 55
1, 49027, Note_off_c, 0, 63, 56
1, 49070, Note_off_c, 0, 59, 44
1, 49097, Note_off_c, 0, 71, 63
1, 49102, Note_off_c, 0, 47, 0
1, 49118, Note_on_c, 0, 73, 65
1, 49126, Note_on_c, 0, 47, 8
1, 49126, Note_on_c, 0, 64, 52
1, 49137, Control_c, 0, 64, 104
1, 49143, Note_on_c, 0, 59, 29
1, 49147, Note_on_c, 0, 56, 48
1, 49152, Control_c, 0, 64, 90
1, 49167, Control_c, 0, 64, 78
1, 49181, Control_c, 0, 64, 69
1, 49196, Control_c, 0, 64, 62
1, 49211, Control_c, 0, 64, 60
1, 49226, Control_c, 0, 64, 62
1, 49241, Control_c, 0, 64, 63
1, 49255, Control_c, 0, 64, 64
1, 49270, Control_c, 0, 64, 65
1, 49286, Control_c, 0, 64, 67
1, 49301, Control_c, 0, 64, 69
1, 49315, Control_c, 0, 64, 72
1, 49330, Control_c, 0, 64, 75
1, 49345, Control_c, 0, 64, 78
1, 49360, Control_c, 0, 64, 82
1, 49375, Control_c, 0, 64, 85
1, 49389, Control_c, 0, 64, 89
1, 49404, Control_c, 0, 64, 93
1, 49419, Control_c, 0, 64, 97
1, 49434, Control_c, 0, 64, 101
1, 49449, Control_c, 0, 64, 104
1, 49463, Control_c, 0, 64, 108
1, 49478, Control_c, 0, 64, 110
1, 49493, Control_c, 0, 64, 113
1, 49506, Note_off_c, 0, 47, 36
1, 49507, Control_c, 0, 64, 114
1, 49522, Control_c, 0, 64, 114
1, 49540, Note_off_c, 0, 59, 35
1, 49647, Note_off_c, 0, 73, 57
1, 49656, Note_off_c, 0, 56, 41
1, 49689, Note_on_c, 0, 71, 75
1, 49724, Note_off_c, 0, 64, 43
1, 49811, Control_c, 0, 64, 111
1, 49826, Control_c, 0, 64, 101
1, 49829, Note_on_c, 0, 68, 41
1, 49834, Note_on_c, 0, 76, 69
1, 49838, Note_on_c, 0, 64, 45
1, 49841, Control_c, 0, 64, 88
1, 49844, Note_on_c, 0, 47, 40
1, 49847, Note_on_c, 0, 59, 36
1, 49856, Control_c, 0, 64, 75
1, 49871, Control_c, 0, 64, 63
1, 49886, Control_c, 0, 64, 47
1, 49901, Control_c, 0, 64, 50
1, 49916, Control_c, 0, 64, 57
1, 49931, Control_c, 0, 64, 62
1, 49945, Control_c, 0, 64, 66
1, 49960, Control_c, 0, 64, 72
1, 49964, Note_off_c, 0, 68, 0
1, 49975, Control_c, 0, 64, 83
1, 49987, Note_off_c, 0, 47, 41
1, 49988, Note_on_c, 0, 68, 23
1, 49990, Control_c, 0, 64, 96
1, 49999, Note_off_c, 0, 64, 42
1, 50005, Control_c, 0, 64, 110
1, 50020, Control_c, 0, 64, 127
1, 50041, Note_off_c, 0, 68, 51
1, 50043, Note_off_c, 0, 71, 60
1, 50050, Note_off_c, 0, 59, 43
1, 50051, Note_off_c, 0, 76, 58
1, 50383, Note_on_c, 0, 80, 76
1, 50388, Note_on_c, 0, 68, 45
1, 50389, Note_on_c, 0, 64, 53
1, 50392, Note_on_c, 0, 59, 45
1, 50394, Note_on_c, 0, 71, 59
1, 50414, Note_off_c, 0, 68, 56
1, 50422, Note_off_c, 0, 59, 53
1, 50431, Note_off_c, 0, 71, 60
1, 50539, Note_off_c, 0, 64, 60
1, 50546, Note_on_c, 0, 78, 73
1, 50550, Note_on_c, 0, 63, 48
1, 50553, Note_on_c, 0, 71, 43
1, 50574, Control_c, 0, 64, 110
1, 50577, Note_on_c, 0, 59, 18
1, 50583, Note_on_c, 0, 69, 35
1, 50589, Control_c, 0, 64, 92
1, 50594, Note_off_c, 0, 80, 62
1, 50604, Control_c, 0, 64, 78
1, 50619, Control_c, 0, 64, 65
1, 50634, Control_c, 0, 64, 51
1, 50649, Control_c, 0, 64, 46
1, 50663, Control_c, 0, 64, 53
1, 50678, Control_c, 0, 64, 58
1, 50693, Control_c, 0, 64, 63
1, 50708, Control_c, 0, 64, 67
1, 50723, Control_c, 0, 64, 74
1, 50738, Control_c, 0, 64, 86
1, 50753, Control_c, 0, 64, 97
1, 50768, Control_c, 0, 64, 106
1, 50783, Control_c, 0, 64, 114
1, 50796, Note_off_c, 0, 69, 44
1, 50798, Control_c, 0, 64, 127
1, 50813, Note_off_c, 0, 71, 55
1, 50829, Note_off_c, 0, 78, 61
1, 50866, Note_off_c, 0, 63, 41
1, 50877, Note_off_c, 0, 59, 42
1, 51290, Note_on_c, 0, 71, 72
1, 51298, Note_on_c, 0, 47, 43
1, 51298, Note_on_c, 0, 69, 48
1, 51302, Note_on_c, 0, 54, 37
1, 51308, Control_c, 0, 64, 97
1, 51312, Note_on_c, 0, 63, 46
1, 51323, Control_c, 0, 64, 80
1, 51326, Note_on_c, 0, 59, 17
1, 51338, Control_c, 0, 64, 67
1, 51353, Control_c, 0, 64, 55
1, 51367, Control_c, 0, 64, 54
1, 51382, Control_c, 0, 64, 60
1, 51397, Control_c, 0, 64, 66
1, 51412, Control_c, 0, 64, 72
1, 51427, Control_c, 0, 64, 82
1, 51430, Note_off_c, 0, 59, 0
1, 51437, Note_off_c, 0, 47, 0
1, 51442, Control_c, 0, 64, 93
1, 51457, Control_c, 0, 64, 107
1, 51466, Poly_aftertouch_c, 0, 59, 127
1, 51471, Control_c, 0, 64, 127
1, 51474, Poly_aftertouch_c, 0, 47, 127
1, 51590, Note_off_c, 0, 63, 52
1, 51604, Poly_aftertouch_c, 0, 59, 0
1, 51639, Note_off_c, 0, 54, 52
1, 51699, Poly_aftertouch_c, 0, 47, 0
1, 51713, Note_off_c, 0, 69, 59
1, 51999, Note_on_c, 0, 40, 54
1, 52050, Note_off_c, 0, 71, 64
1, 52052, Note_on_c, 0, 68, 79
1, 52073, Note_off_c, 0, 40, 59
1, 52073, Note_off_c, 0, 68, 72
1, 52102, Note_on_c, 0, 47, 60
1, 52133, Note_on_c, 0, 68, 75
1, 52181, Note_off_c, 0, 68, 64
1, 52212, Note_on_c, 0, 74, 68
1, 52315, Note_on_c, 0, 83, 86
1, 52315, Note_on_c, 0, 56, 68
1, 52369, Control_c, 0, 64, 100
1, 52384, Control_c, 0, 64, 87
1, 52399, Control_c, 0, 64, 80
1, 52413, Control_c, 0, 64, 79
1, 52428, Control_c, 0, 64, 81
1, 52443, Control_c, 0, 64, 86
1, 52458, Control_c, 0, 64, 95
1, 52473, Control_c, 0, 64, 105
1, 52488, Control_c, 0, 64, 127
1, 52598, Note_off_c, 0, 47, 61
1, 52662, Note_off_c, 0, 83, 61
1, 52769, Note_off_c, 0, 74, 62
1, 53052, Note_on_c, 0, 58, 79
1, 53053, Note_on_c, 0, 74, 81
1, 53053, Note_on_c, 0, 82, 90
1, 53054, Note_on_c, 0, 70, 85
1, 53076, Note_off_c, 0, 56, 61
1, 53089, Control_c, 0, 64, 94
1, 53104, Control_c, 0, 64, 75
1, 53119, Control_c, 0, 64, 56
1, 53134, Control_c, 0, 64, 46
1, 53149, Control_c, 0, 64, 55
1, 53163, Control_c, 0, 64, 64
1, 53178, Control_c, 0, 64, 73
1, 53193, Control_c, 0, 64, 93
1, 53208, Control_c, 0, 64, 127
1, 53518, Note_off_c, 0, 70, 56
1, 53527, Note_off_c, 0, 82, 60
1, 53567, Note_off_c, 0, 74, 51
1, 53692, Note_on_c, 0, 59, 82
1, 53692, Note_off_c, 0, 58, 64
1, 53693, Note_on_c, 0, 80, 91
1, 53695, Note_on_c, 0, 74, 83
1, 53695, Note_on_c, 0, 68, 87
1, 53713, Note_off_c, 0, 68, 74
1, 53717, Note_off_c, 0, 74, 70
1, 53719, Note_off_c, 0, 59, 66
1, 53762, Note_off_c, 0, 80, 60
1, 53898, Note_on_c, 0, 60, 79
1, 53898, Note_on_c, 0, 51, 78
1, 53899, Note_on_c, 0, 63, 80
1, 53900, Note_on_c, 0, 80, 79
1, 53901, Note_on_c, 0, 84, 86
1, 53902, Note_on_c, 0, 72, 91
1, 53902, Note_on_c, 0, 75, 80
1, 53905, Note_on_c, 0, 56, 75
1, 53956, Control_c, 0, 64, 92
1, 53971, Control_c, 0, 64, 60
1, 53985, Control_c, 0, 64, 0
1, 53990, Poly_aftertouch_c, 0, 82, 0
1, 54074, Control_c, 0, 64, 54
1, 54089, Control_c, 0, 64, 64
1, 54104, Control_c, 0, 64, 68
1, 54119, Control_c, 0, 64, 75
1, 54133, Control_c, 0, 64, 82
1, 54148, Control_c, 0, 64, 94
1, 54163, Control_c, 0, 64, 108
1, 54178, Control_c, 0, 64, 127
1, 54253, Note_off_c, 0, 75, 60
1, 54333, Note_off_c, 0, 84, 56
1, 54364, Note_off_c, 0, 51, 61
1, 54372, Note_off_c, 0, 63, 62
1, 54374, Note_off_c, 0, 60, 58
1, 54396, Note_off_c, 0, 72, 53
1, 54592, Note_off_c, 0, 80, 62
1, 54615, Control_c, 0, 64, 107
1, 54616, Note_on_c, 0, 79, 91
1, 54618, Note_on_c, 0, 64, 86
1, 54618, Note_on_c, 0, 84, 92
1, 54619, Note_on_c, 0, 72, 95
1, 54620, Note_on_c, 0, 60, 82
1, 54621, Note_on_c, 0, 52, 73
1, 54622, Note_on_c, 0, 55, 77
1, 54629, Control_c, 0, 64, 81
1, 54644, Control_c, 0, 64, 65
1, 54659, Control_c, 0, 64, 46
1, 54675, Control_c, 0, 64, 46
1, 54677, Note_off_c, 0, 56, 55
1, 54690, Control_c, 0, 64, 54
1, 54705, Control_c, 0, 64, 63
1, 54719, Control_c, 0, 64, 71
1, 54734, Control_c, 0, 64, 85
1, 54749, Control_c, 0, 64, 98
1, 54764, Control_c, 0, 64, 103
1, 54779, Control_c, 0, 64, 104
1, 54808, Note_off_c, 0, 84, 60
1, 54808, Control_c, 0, 64, 105
1, 54823, Control_c, 0, 64, 106
1, 54838, Control_c, 0, 64, 106
1, 54847, Note_off_c, 0, 72, 59
1, 54851, Note_off_c, 0, 79, 60
1, 54867, Control_c, 0, 64, 108
1, 54882, Control_c, 0, 64, 113
1, 54897, Control_c, 0, 64, 127
1, 55017, Note_off_c, 0, 52, 54
1, 55075, Note_off_c, 0, 60, 55
1, 55094, Note_off_c, 0, 64, 59
1, 55218, Note_on_c, 0, 82, 96
1, 55221, Note_on_c, 0, 70, 94
1, 55260, Note_off_c, 0, 70, 62
1, 55268, Note_off_c, 0, 82, 59
1, 55350, Note_on_c, 0, 72, 81
1, 55353, Note_on_c, 0, 60, 81
1, 55354, Note_on_c, 0, 65, 80
1, 55354, Note_on_c, 0, 77, 68
1, 55356, Note_on_c, 0, 70, 81
1, 55358, Note_on_c, 0, 53, 72
1, 55360, Note_on_c, 0, 82, 82
1, 55363, Control_c, 0, 64, 114
1, 55378, Control_c, 0, 64, 96
1, 55391, Note_off_c, 0, 55, 62
1, 55393, Control_c, 0, 64, 82
1, 55399, Note_on_c, 0, 80, 37
1, 55407, Control_c, 0, 64, 71
1, 55422, Control_c, 0, 64, 62
1, 55433, Note_off_c, 0, 80, 36
1, 55437, Control_c, 0, 64, 55
1, 55451, Control_c, 0, 64, 56
1, 55466, Control_c, 0, 64, 58
1, 55482, Control_c, 0, 64, 61
1, 55497, Control_c, 0, 64, 65
1, 55512, Control_c, 0, 64, 71
1, 55527, Control_c, 0, 64, 81
1, 55542, Control_c, 0, 64, 93
1, 55556, Control_c, 0, 64, 105
1, 55563, Note_off_c, 0, 65, 61
1, 55571, Control_c, 0, 64, 122
1, 55586, Control_c, 0, 64, 127
1, 55600, Note_off_c, 0, 82, 60
1, 55610, Note_off_c, 0, 53, 63
1, 55637, Note_off_c, 0, 60, 62
1, 55705, Note_off_c, 0, 70, 61
1, 55854, Note_off_c, 0, 77, 53
1, 55872, Note_off_c, 0, 72, 60
1, 55912, Note_on_c, 0, 80, 81
1, 55916, Note_on_c, 0, 68, 85
1, 55938, Note_off_c, 0, 80, 67
1, 55939, Note_off_c, 0, 68, 70
1, 56060, Note_on_c, 0, 77, 74
1, 56065, Note_on_c, 0, 46, 62
1, 56065, Note_on_c, 0, 65, 86
1, 56070, Note_on_c, 0, 73, 73
1, 56071, Note_on_c, 0, 34, 56
1, 56082, Control_c, 0, 64, 107
1, 56097, Control_c, 0, 64, 85
1, 56112, Control_c, 0, 64, 69
1, 56127, Control_c, 0, 64, 52
1, 56142, Control_c, 0, 64, 34
1, 56156, Control_c, 0, 64, 47
1, 56171, Control_c, 0, 64, 59
1, 56186, Control_c, 0, 64, 65
1, 56200, Control_c, 0, 64, 71
1, 56215, Control_c, 0, 64, 82
1, 56230, Control_c, 0, 64, 96
1, 56245, Note_off_c, 0, 77, 60
1, 56245, Control_c, 0, 64, 127
1, 56282, Note_off_c, 0, 73, 62
1, 56297, Note_off_c, 0, 65, 58
1, 56315, Note_off_c, 0, 46, 62
1, 56355, Note_off_c, 0, 34, 56
1, 56641, Note_on_c, 0, 66, 87
1, 56645, Note_on_c, 0, 54, 78
1, 56669, Note_off_c, 0, 54, 69
1, 56795, Note_on_c, 0, 61, 73
1, 56795, Note_on_c, 0, 70, 85
1, 56795, Note_on_c, 0, 58, 81
1, 56796, Note_on_c, 0, 42, 76
1, 56798, Note_on_c, 0, 30, 76
1, 56801, Control_c, 0, 64, 92
1, 56816, Control_c, 0, 64, 68
1, 56831, Control_c, 0, 64, 59
1, 56846, Control_c, 0, 64, 64
1, 56861, Control_c, 0, 64, 72
1, 56866, Note_off_c, 0, 30, 61
1, 56872, Note_off_c, 0, 42, 61
1, 56876, Control_c, 0, 64, 84
1, 56891, Control_c, 0, 64, 99
1, 56905, Control_c, 0, 64, 127
1, 56907, Note_off_c, 0, 70, 64
1, 56925, Note_off_c, 0, 61, 61
1, 56932, Note_off_c, 0, 66, 61
1, 56937, Note_off_c, 0, 58, 60
1, 57452, Note_on_c, 0, 58, 76
1, 57453, Note_on_c, 0, 64, 80
1, 57455, Note_on_c, 0, 48, 73
1, 57455, Note_on_c, 0, 55, 76
1, 57457, Note_on_c, 0, 36, 72
1, 57460, Note_on_c, 0, 60, 76
1, 57491, Control_c, 0, 64, 115
1, 57506, Control_c, 0, 64, 92
1, 57520, Control_c, 0, 64, 75
1, 57535, Control_c, 0, 64, 61
1, 57550, Control_c, 0, 64, 40
1, 57565, Control_c, 0, 64, 41
1, 57580, Control_c, 0, 64, 52
1, 57594, Control_c, 0, 64, 58
1, 57609, Control_c, 0, 64, 62
1, 57624, Control_c, 0, 64, 65
1, 57639, Control_c, 0, 64, 69
1, 57654, Control_c, 0, 64, 74
1, 57669, Control_c, 0, 64, 82
1, 57684, Note_off_c, 0, 48, 63
1, 57684, Control_c, 0, 64, 89
1, 57699, Control_c, 0, 64, 94
1, 57713, Control_c, 0, 64, 97
1, 57728, Control_c, 0, 64, 99
1, 57741, Note_off_c, 0, 64, 60
1, 57742, Note_off_c, 0, 36, 60
1, 57743, Control_c, 0, 64, 102
1, 57754, Note_off_c, 0, 60, 60
1, 57756, Note_off_c, 0, 55, 59
1, 57758, Control_c, 0, 64, 103
1, 57773, Note_off_c, 0, 58, 57
1, 57773, Control_c, 0, 64, 104
1, 57788, Control_c, 0, 64, 106
1, 57802, Control_c, 0, 64, 108
1, 57817, Control_c, 0, 64, 111
1, 57832, Control_c, 0, 64, 114
1, 57846, Control_c, 0, 64, 115
1, 57861, Control_c, 0, 64, 115
1, 57877, Control_c, 0, 64, 116
1, 57892, Control_c, 0, 64, 118
1, 57907, Control_c, 0, 64, 119
1, 57922, Control_c, 0, 64, 120
1, 57973, Control_c, 0, 64, 121
1, 58255, Control_c, 0, 64, 120
1, 58256, Note_on_c, 0, 41, 59
1, 58261, Note_on_c, 0, 65, 86
1, 58264, Note_on_c, 0, 29, 69
1, 58269, Control_c, 0, 64, 119
1, 58284, Control_c, 0, 64, 105
1, 58299, Control_c, 0, 64, 91
1, 58314, Control_c, 0, 64, 75
1, 58329, Control_c, 0, 64, 61
1, 58343, Control_c, 0, 64, 0
1, 58373, Control_c, 0, 64, 19
1, 58388, Control_c, 0, 64, 42
1, 58402, Control_c, 0, 64, 54
1, 58417, Control_c, 0, 64, 60
1, 58432, Control_c, 0, 64, 65
1, 58447, Control_c, 0, 64, 70
1, 58455, Note_off_c, 0, 29, 61
1, 58462, Control_c, 0, 64, 77
1, 58477, Control_c, 0, 64, 83
1, 58492, Control_c, 0, 64, 90
1, 58506, Control_c, 0, 64, 94
1, 58521, Control_c, 0, 64, 96
1, 58528, Note_off_c, 0, 41, 63
1, 58536, Control_c, 0, 64, 97
1, 58551, Control_c, 0, 64, 97
1, 59028, Note_on_c, 0, 53, 44
1, 59028, Note_on_c, 0, 60, 42
1, 59034, Control_c, 0, 64, 96
1, 59037, Note_on_c, 0, 48, 36
1, 59043, Note_on_c, 0, 57, 42
1, 59049, Control_c, 0, 64, 93
1, 59064, Control_c, 0, 64, 88
1, 59079, Control_c, 0, 64, 80
1, 59093, Control_c, 0, 64, 72
1, 59108, Control_c, 0, 64, 63
1, 59123, Control_c, 0, 64, 52
1, 59138, Control_c, 0, 64, 50
1, 59153, Control_c, 0, 64, 54
1, 59167, Control_c, 0, 64, 58
1, 59182, Control_c, 0, 64, 60
1, 59197, Control_c, 0, 64, 63
1, 59212, Control_c, 0, 64, 66
1, 59226, Control_c, 0, 64, 69
1, 59241, Control_c, 0, 64, 72
1, 59256, Control_c, 0, 64, 76
1, 59271, Control_c, 0, 64, 81
1, 59286, Control_c, 0, 64, 86
1, 59300, Control_c, 0, 64, 89
1, 59315, Control_c, 0, 64, 91
1, 59327, Note_off_c, 0, 65, 37
1, 59330, Control_c, 0, 64, 93
1, 59334, Note_off_c, 0, 53, 53
1, 59343, Note_off_c, 0, 57, 42
1, 59345, Control_c, 0, 64, 93
1, 59360, Control_c, 0, 64, 94
1, 59364, Note_off_c, 0, 48, 41
1, 59377, Note_off_c, 0, 60, 44
1, 59901, Control_c, 0, 64, 93
1, 59961, Control_c, 0, 64, 93
1, 59976, Control_c, 0, 64, 92
1, 59990, Control_c, 0, 64, 90
1, 59996, Note_on_c, 0, 38, 40
1, 60005, Control_c, 0, 64, 82
1, 60017, Note_on_c, 0, 69, 59
1, 60020, Control_c, 0, 64, 72
1, 60035, Control_c, 0, 64, 62
1, 60049, Control_c, 0, 64, 28
1, 60064, Control_c, 0, 64, 0
1, 60109, Control_c, 0, 64, 26
1, 60123, Control_c, 0, 64, 48
1, 60138, Control_c, 0, 64, 61
1, 60153, Control_c, 0, 64, 68
1, 60168, Control_c, 0, 64, 76
1, 60183, Control_c, 0, 64, 86
1, 60205, Control_c, 0, 64, 94
1, 60220, Control_c, 0, 64, 100
1, 60235, Control_c, 0, 64, 103
1, 60240, Note_off_c, 0, 38, 52
1, 60249, Control_c, 0, 64, 106
1, 60264, Control_c, 0, 64, 106
1, 60280, Control_c, 0, 64, 107
1, 60282, Note_off_c, 0, 69, 65
1, 60310, Control_c, 0, 64, 107
1, 60575, Control_c, 0, 64, 107
1, 60694, Note_on_c, 0, 50, 45
1, 60694, Note_on_c, 0, 69, 64
1, 60694, Control_c, 0, 64, 105
1, 60701, Note_on_c, 0, 55, 41
1, 60705, Note_on_c, 0, 59, 40
1, 60709, Control_c, 0, 64, 98
1, 60712, Note_on_c, 0, 65, 43
1, 60724, Control_c, 0, 64, 89
1, 60738, Control_c, 0, 64, 79
1, 60753, Control_c, 0, 64, 69
1, 60768, Control_c, 0, 64, 59
1, 60783, Control_c, 0, 64, 41
1, 60797, Control_c, 0, 64, 37
1, 60812, Control_c, 0, 64, 46
1, 60827, Control_c, 0, 64, 54
1, 60842, Control_c, 0, 64, 57
1, 60857, Control_c, 0, 64, 60
1, 60871, Control_c, 0, 64, 63
1, 60886, Control_c, 0, 64, 67
1, 60901, Control_c, 0, 64, 74
1, 60916, Control_c, 0, 64, 81
1, 60931, Control_c, 0, 64, 88
1, 60953, Control_c, 0, 64, 95
1, 60968, Control_c, 0, 64, 100
1, 60983, Control_c, 0, 64, 104
1, 60988, Note_off_c, 0, 55, 62
1, 60992, Note_off_c, 0, 69, 66
1, 60997, Control_c, 0, 64, 107
1, 61007, Note_off_c, 0, 50, 63
1, 61012, Control_c, 0, 64, 109
1, 61027, Control_c, 0, 64, 110
1, 61042, Control_c, 0, 64, 112
1, 61057, Control_c, 0, 64, 114
1, 61073, Control_c, 0, 64, 115
1, 61088, Control_c, 0, 64, 117
1, 61102, Control_c, 0, 64, 119
1, 61117, Control_c, 0, 64, 120
1, 61132, Note_off_c, 0, 59, 34
1, 61132, Control_c, 0, 64, 120
1, 61162, Control_c, 0, 64, 121
1, 61321, Note_on_c, 0, 69, 61
1, 61369, Note_off_c, 0, 69, 58
1, 61375, Note_off_c, 0, 65, 37
1, 61428, Control_c, 0, 64, 120
1, 61443, Control_c, 0, 64, 115
1, 61455, Note_on_c, 0, 36, 36
1, 61458, Control_c, 0, 64, 103
1, 61463, Note_on_c, 0, 69, 54
1, 61472, Control_c, 0, 64, 86
1, 61487, Control_c, 0, 64, 72
1, 61502, Control_c, 0, 64, 57
1, 61517, Control_c, 0, 64, 23
1, 61532, Control_c, 0, 64, 21
1, 61547, Control_c, 0, 64, 39
1, 61561, Control_c, 0, 64, 56
1, 61576, Control_c, 0, 64, 61
1, 61591, Control_c, 0, 64, 66
1, 61606, Control_c, 0, 64, 73
1, 61620, Control_c, 0, 64, 83
1, 61635, Control_c, 0, 64, 94
1, 61650, Control_c, 0, 64, 103
1, 61665, Control_c, 0, 64, 112
1, 61677, Note_off_c, 0, 36, 38
1, 61680, Control_c, 0, 64, 119
1, 61702, Control_c, 0, 64, 127
1, 62137, Note_on_c, 0, 58, 40
1, 62143, Note_on_c, 0, 55, 39
1, 62145, Note_on_c, 0, 64, 42
1, 62148, Control_c, 0, 64, 117
1, 62154, Note_on_c, 0, 48, 34
1, 62163, Control_c, 0, 64, 102
1, 62178, Control_c, 0, 64, 88
1, 62192, Control_c, 0, 64, 76
1, 62207, Control_c, 0, 64, 65
1, 62222, Control_c, 0, 64, 58
1, 62236, Control_c, 0, 64, 59
1, 62251, Control_c, 0, 64, 63
1, 62266, Control_c, 0, 64, 67
1, 62281, Control_c, 0, 64, 72
1, 62296, Control_c, 0, 64, 79
1, 62310, Control_c, 0, 64, 85
1, 62325, Control_c, 0, 64, 91
1, 62337, Note_off_c, 0, 55, 56
1, 62340, Control_c, 0, 64, 95
1, 62355, Control_c, 0, 64, 99
1, 62370, Control_c, 0, 64, 103
1, 62378, Note_off_c, 0, 48, 48
1, 62385, Control_c, 0, 64, 105
1, 62399, Control_c, 0, 64, 107
1, 62414, Control_c, 0, 64, 110
1, 62425, Note_off_c, 0, 69, 59
1, 62429, Control_c, 0, 64, 113
1, 62451, Control_c, 0, 64, 115
1, 62455, Note_off_c, 0, 64, 52
1, 62466, Control_c, 0, 64, 115
1, 62467, Note_on_c, 0, 67, 62
1, 62481, Control_c, 0, 64, 116
1, 62494, Note_off_c, 0, 58, 40
1, 62495, Note_off_c, 0, 67, 64
1, 62496, Control_c, 0, 64, 116
1, 62763, Control_c, 0, 64, 116
1, 62778, Control_c, 0, 64, 114
1, 62793, Note_on_c, 0, 65, 55
1, 62793, Control_c, 0, 64, 105
1, 62796, Note_on_c, 0, 50, 40
1, 62799, Note_on_c, 0, 60, 46
1, 62799, Note_on_c, 0, 38, 35
1, 62799, Note_on_c, 0, 57, 42
1, 62808, Control_c, 0, 64, 92
1, 62823, Control_c, 0, 64, 79
1, 62838, Control_c, 0, 64, 68
1, 62853, Control_c, 0, 64, 56
1, 62867, Control_c, 0, 64, 49
1, 62882, Control_c, 0, 64, 54
1, 62897, Control_c, 0, 64, 61
1, 62912, Control_c, 0, 64, 64
1, 62927, Control_c, 0, 64, 68
1, 62941, Control_c, 0, 64, 73
1, 62956, Control_c, 0, 64, 80
1, 62971, Control_c, 0, 64, 88
1, 62981, Note_off_c, 0, 50, 46
1, 62985, Control_c, 0, 64, 94
1, 63000, Control_c, 0, 64, 99
1, 63003, Note_off_c, 0, 60, 65
1, 63015, Control_c, 0, 64, 102
1, 63018, Note_off_c, 0, 57, 62
1, 63029, Note_off_c, 0, 38, 38
1, 63030, Control_c, 0, 64, 104
1, 63044, Note_off_c, 0, 65, 62
1, 63045, Control_c, 0, 64, 106
1, 63059, Control_c, 0, 64, 108
1, 63074, Control_c, 0, 64, 109
1, 63089, Control_c, 0, 64, 109
1, 63360, Note_on_c, 0, 67, 65
1, 63422, Control_c, 0, 64, 109
1, 63437, Control_c, 0, 64, 102
1, 63452, Control_c, 0, 64, 92
1, 63454, Note_off_c, 0, 67, 59
1, 63461, Note_on_c, 0, 65, 56
1, 63468, Control_c, 0, 64, 77
1, 63470, Note_on_c, 0, 59, 46
1, 63474, Note_on_c, 0, 31, 38
1, 63474, Note_on_c, 0, 69, 64
1, 63483, Control_c, 0, 64, 64
1, 63484, Note_on_c, 0, 43, 36
1, 63497, Control_c, 0, 64, 47
1, 63512, Control_c, 0, 64, 35
1, 63527, Control_c, 0, 64, 41
1, 63542, Control_c, 0, 64, 53
1, 63557, Control_c, 0, 64, 59
1, 63571, Control_c, 0, 64, 64
1, 63586, Control_c, 0, 64, 68
1, 63595, Note_off_c, 0, 65, 60
1, 63601, Note_off_c, 0, 43, 49
1, 63601, Control_c, 0, 64, 74
1, 63616, Control_c, 0, 64, 82
1, 63631, Control_c, 0, 64, 90
1, 63645, Control_c, 0, 64, 95
1, 63646, Note_off_c, 0, 59, 61
1, 63654, Note_off_c, 0, 31, 51
1, 63660, Control_c, 0, 64, 98
1, 63675, Control_c, 0, 64, 100
1, 63690, Control_c, 0, 64, 101
1, 63705, Control_c, 0, 64, 103
1, 63720, Control_c, 0, 64, 105
1, 63735, Control_c, 0, 64, 107
1, 63750, Control_c, 0, 64, 108
1, 63764, Control_c, 0, 64, 108
1, 63779, Control_c, 0, 64, 109
1, 63941, Note_off_c, 0, 69, 63
1, 63995, Note_on_c, 0, 71, 66
1, 64097, Control_c, 0, 64, 108
1, 64112, Control_c, 0, 64, 102
1, 64127, Control_c, 0, 64, 92
1, 64130, Note_on_c, 0, 72, 70
1, 64142, Control_c, 0, 64, 77
1, 64145, Note_on_c, 0, 64, 45
1, 64148, Note_on_c, 0, 24, 37
1, 64154, Note_off_c, 0, 71, 56
1, 64157, Control_c, 0, 64, 64
1, 64158, Note_on_c, 0, 36, 29
1, 64171, Control_c, 0, 64, 40
1, 64186, Control_c, 0, 64, 0
1, 64215, Control_c, 0, 64, 19
1, 64230, Control_c, 0, 64, 39
1, 64245, Control_c, 0, 64, 48
1, 64260, Control_c, 0, 64, 55
1, 64275, Control_c, 0, 64, 59
1, 64290, Control_c, 0, 64, 64
1, 64305, Control_c, 0, 64, 68
1, 64319, Note_off_c, 0, 24, 48
1, 64319, Control_c, 0, 64, 76
1, 64334, Control_c, 0, 64, 84
1, 64349, Control_c, 0, 64, 90
1, 64364, Control_c, 0, 64, 93
1, 64378, Note_off_c, 0, 36, 54
1, 64379, Control_c, 0, 64, 95
1, 64394, Control_c, 0, 64, 95
1, 64409, Control_c, 0, 64, 96
1, 64453, Control_c, 0, 64, 97
1, 64468, Control_c, 0, 64, 97
1, 64801, Control_c, 0, 64, 97
1, 64845, Control_c, 0, 64, 96
1, 64853, Note_on_c, 0, 67, 57
1, 64855, Note_on_c, 0, 52, 34
1, 64860, Control_c, 0, 64, 93
1, 64866, Note_on_c, 0, 60, 32
1, 64875, Control_c, 0, 64, 86
1, 64885, Note_off_c, 0, 64, 47
1, 64890, Control_c, 0, 64, 76
1, 64905, Control_c, 0, 64, 63
1, 64917, Note_off_c, 0, 72, 37
1, 64919, Control_c, 0, 64, 49
1, 64934, Control_c, 0, 64, 47
1, 64949, Control_c, 0, 64, 55
1, 64963, Control_c, 0, 64, 61
1, 64978, Control_c, 0, 64, 66
1, 64993, Control_c, 0, 64, 72
1, 65008, Control_c, 0, 64, 81
1, 65023, Control_c, 0, 64, 90
1, 65038, Control_c, 0, 64, 97
1, 65053, Control_c, 0, 64, 101
1, 65068, Control_c, 0, 64, 103
1, 65081, Note_off_c, 0, 60, 43
1, 65083, Control_c, 0, 64, 104
1, 65095, Note_off_c, 0, 52, 51
1, 65122, Note_off_c, 0, 67, 62
1, 65594, Control_c, 0, 64, 104
1, 65609, Control_c, 0, 64, 102
1, 65615, Note_on_c, 0, 41, 27
1, 65624, Control_c, 0, 64, 98
1, 65628, Note_on_c, 0, 67, 53
1, 65639, Control_c, 0, 64, 90
1, 65654, Control_c, 0, 64, 77
1, 65668, Control_c, 0, 64, 66
1, 65683, Control_c, 0, 64, 54
1, 65698, Control_c, 0, 64, 51
1, 65713, Control_c, 0, 64, 57
1, 65728, Control_c, 0, 64, 62
1, 65742, Control_c, 0, 64, 66
1, 65758, Control_c, 0, 64, 74
1, 65773, Control_c, 0, 64, 84
1, 65787, Control_c, 0, 64, 92
1, 65802, Control_c, 0, 64, 99
1, 65817, Control_c, 0, 64, 103
1, 65830, Note_off_c, 0, 41, 53
1, 65832, Control_c, 0, 64, 107
1, 65846, Note_off_c, 0, 67, 63
1, 65847, Control_c, 0, 64, 110
1, 65863, Control_c, 0, 64, 111
1, 65878, Control_c, 0, 64, 112
1, 66173, Control_c, 0, 64, 111
1, 66196, Control_c, 0, 64, 111
1, 66210, Control_c, 0, 64, 110
1, 66225, Control_c, 0, 64, 110
1, 66240, Control_c, 0, 64, 109
1, 66255, Control_c, 0, 64, 108
1, 66270, Control_c, 0, 64, 108
1, 66284, Control_c, 0, 64, 106
1, 66299, Control_c, 0, 64, 103
1, 66313, Note_on_c, 0, 53, 38
1, 66314, Control_c, 0, 64, 97
1, 66318, Note_on_c, 0, 60, 38
1, 66321, Note_on_c, 0, 67, 58
1, 66328, Note_on_c, 0, 63, 42
1, 66329, Control_c, 0, 64, 87
1, 66339, Note_on_c, 0, 57, 40
1, 66344, Control_c, 0, 64, 77
1, 66358, Control_c, 0, 64, 67
1, 66373, Control_c, 0, 64, 56
1, 66388, Control_c, 0, 64, 42
1, 66403, Control_c, 0, 64, 44
1, 66418, Control_c, 0, 64, 51
1, 66427, Note_off_c, 0, 63, 0
1, 66433, Control_c, 0, 64, 56
1, 66448, Control_c, 0, 64, 60
1, 66462, Control_c, 0, 64, 62
1, 66464, Poly_aftertouch_c, 0, 63, 127
1, 66477, Control_c, 0, 64, 64
1, 66492, Control_c, 0, 64, 67
1, 66507, Control_c, 0, 64, 71
1, 66522, Control_c, 0, 64, 76
1, 66537, Control_c, 0, 64, 81
1, 66552, Control_c, 0, 64, 85
1, 66561, Note_off_c, 0, 60, 42
1, 66566, Control_c, 0, 64, 87
1, 66567, Note_off_c, 0, 53, 65
1, 66581, Control_c, 0, 64, 88
1, 66582, Note_off_c, 0, 67, 61
1, 66596, Control_c, 0, 64, 89
1, 66640, Control_c, 0, 64, 89
1, 66671, Control_c, 0, 64, 90
1, 66701, Control_c, 0, 64, 90
1, 66907, Control_c, 0, 64, 90
1, 66957, Note_on_c, 0, 67, 58
1, 66958, Poly_aftertouch_c, 0, 63, 0
1, 66996, Note_off_c, 0, 67, 60
1, 67009, Note_off_c, 0, 57, 40
1, 67063, Control_c, 0, 64, 89
1, 67078, Control_c, 0, 64, 87
1, 67088, Note_on_c, 0, 34, 38
1, 67092, Note_on_c, 0, 67, 52
1, 67093, Control_c, 0, 64, 81
1, 67108, Control_c, 0, 64, 72
1, 67122, Control_c, 0, 64, 61
1, 67137, Control_c, 0, 64, 38
1, 67152, Control_c, 0, 64, 0
1, 67181, Control_c, 0, 64, 29
1, 67196, Control_c, 0, 64, 47
1, 67211, Control_c, 0, 64, 57
1, 67226, Control_c, 0, 64, 62
1, 67240, Control_c, 0, 64, 67
1, 67255, Control_c, 0, 64, 72
1, 67270, Control_c, 0, 64, 80
1, 67285, Control_c, 0, 64, 85
1, 67300, Control_c, 0, 64, 90
1, 67302, Note_off_c, 0, 34, 53
1, 67315, Control_c, 0, 64, 92
1, 67330, Control_c, 0, 64, 94
1, 67345, Control_c, 0, 64, 94
1, 67389, Control_c, 0, 64, 95
1, 67404, Control_c, 0, 64, 95
1, 67419, Control_c, 0, 64, 96
1, 67797, Control_c, 0, 64, 94
1, 67798, Note_on_c, 0, 62, 40
1, 67804, Note_on_c, 0, 53, 38
1, 67807, Note_on_c, 0, 56, 42
1, 67812, Control_c, 0, 64, 90
1, 67819, Note_on_c, 0, 46, 32
1, 67827, Control_c, 0, 64, 83
1, 67840, Note_on_c, 0, 58, 18
1, 67842, Control_c, 0, 64, 74
1, 67856, Control_c, 0, 64, 66
1, 67871, Control_c, 0, 64, 59
1, 67886, Control_c, 0, 64, 56
1, 67901, Control_c, 0, 64, 58
1, 67916, Control_c, 0, 64, 61
1, 67930, Control_c, 0, 64, 64
1, 67945, Control_c, 0, 64, 68
1, 67960, Control_c, 0, 64, 73
1, 67975, Control_c, 0, 64, 78
1, 67989, Control_c, 0, 64, 83
1, 68003, Control_c, 0, 64, 88
1, 68018, Control_c, 0, 64, 91
1, 68033, Control_c, 0, 64, 94
1, 68046, Note_off_c, 0, 58, 39
1, 68048, Control_c, 0, 64, 95
1, 68062, Control_c, 0, 64, 96
1, 68077, Control_c, 0, 64, 97
1, 68081, Note_off_c, 0, 56, 40
1, 68082, Note_off_c, 0, 53, 58
1, 68092, Control_c, 0, 64, 97
1, 68107, Control_c, 0, 64, 98
1, 68108, Note_off_c, 0, 67, 54
1, 68122, Control_c, 0, 64, 99
1, 68124, Note_off_c, 0, 62, 47
1, 68140, Note_on_c, 0, 65, 62
1, 68142, Note_off_c, 0, 46, 48
1, 68151, Control_c, 0, 64, 99
1, 68173, Note_off_c, 0, 65, 64
1, 68456, Control_c, 0, 64, 98
1, 68471, Control_c, 0, 64, 95
1, 68485, Control_c, 0, 64, 88
1, 68500, Control_c, 0, 64, 79
1, 68501, Note_on_c, 0, 63, 44
1, 68502, Note_on_c, 0, 55, 41
1, 68505, Note_on_c, 0, 48, 33
1, 68510, Note_on_c, 0, 58, 36
1, 68515, Control_c, 0, 64, 68
1, 68516, Note_on_c, 0, 36, 21
1, 68530, Control_c, 0, 64, 58
1, 68545, Control_c, 0, 64, 44
1, 68559, Control_c, 0, 64, 44
1, 68574, Control_c, 0, 64, 49
1, 68589, Control_c, 0, 64, 54
1, 68603, Control_c, 0, 64, 58
1, 68618, Control_c, 0, 64, 61
1, 68633, Control_c, 0, 64, 63
1, 68648, Control_c, 0, 64, 66
1, 68663, Control_c, 0, 64, 70
1, 68677, Control_c, 0, 64, 77
1, 68692, Control_c, 0, 64, 85
1, 68702, Note_off_c, 0, 48, 39
1, 68707, Control_c, 0, 64, 90
1, 68722, Note_off_c, 0, 36, 37
1, 68722, Control_c, 0, 64, 93
1, 68737, Control_c, 0, 64, 95
1, 68747, Note_off_c, 0, 58, 39
1, 68749, Note_off_c, 0, 55, 42
1, 68752, Control_c, 0, 64, 95
1, 68782, Control_c, 0, 64, 96
1, 68797, Control_c, 0, 64, 96
1, 68811, Control_c, 0, 64, 97
1, 68826, Control_c, 0, 64, 98
1, 68829, Note_off_c, 0, 63, 35
1, 68841, Control_c, 0, 64, 98
1, 69042, Note_on_c, 0, 65, 57
1, 69095, Control_c, 0, 64, 98
1, 69109, Control_c, 0, 64, 94
1, 69124, Control_c, 0, 64, 88
1, 69130, Note_off_c, 0, 65, 48
1, 69139, Control_c, 0, 64, 79
1, 69154, Control_c, 0, 64, 69
1, 69157, Note_on_c, 0, 67, 47
1, 69160, Note_on_c, 0, 29, 37
1, 69162, Note_on_c, 0, 57, 38
1, 69169, Control_c, 0, 64, 58
1, 69184, Note_on_c, 0, 41, 10
1, 69187, Note_on_c, 0, 63, 25
1, 69190, Control_c, 0, 64, 48
1, 69205, Control_c, 0, 64, 50
1, 69220, Control_c, 0, 64, 57
1, 69235, Control_c, 0, 64, 62
1, 69250, Control_c, 0, 64, 66
1, 69264, Control_c, 0, 64, 71
1, 69279, Control_c, 0, 64, 79
1, 69294, Control_c, 0, 64, 85
1, 69295, Note_off_c, 0, 57, 57
1, 69309, Note_off_c, 0, 67, 61
1, 69309, Control_c, 0, 64, 90
1, 69318, Note_off_c, 0, 41, 38
1, 69324, Control_c, 0, 64, 94
1, 69324, Note_off_c, 0, 29, 37
1, 69328, Note_off_c, 0, 63, 56
1, 69339, Control_c, 0, 64, 97
1, 69354, Control_c, 0, 64, 99
1, 69369, Control_c, 0, 64, 100
1, 69383, Control_c, 0, 64, 100
1, 69398, Control_c, 0, 64, 101
1, 69413, Control_c, 0, 64, 101
1, 69427, Control_c, 0, 64, 102
1, 69442, Control_c, 0, 64, 102
1, 69457, Control_c, 0, 64, 103
1, 69501, Control_c, 0, 64, 103
1, 69516, Control_c, 0, 64, 104
1, 69531, Control_c, 0, 64, 104
1, 69560, Control_c, 0, 64, 105
1, 69658, Note_on_c, 0, 69, 53
1, 69682, Note_off_c, 0, 69, 64
1, 69873, Control_c, 0, 64, 104
1, 69887, Control_c, 0, 64, 100
1, 69902, Control_c, 0, 64, 94
1, 69906, Note_on_c, 0, 62, 40
1, 69907, Note_on_c, 0, 70, 47
1, 69917, Control_c, 0, 64, 85
1, 69927, Note_on_c, 0, 58, 36
1, 69928, Note_on_c, 0, 34, 29
1, 69939, Control_c, 0, 64, 73
1, 69941, Note_on_c, 0, 46, 16
1, 69954, Control_c, 0, 64, 63
1, 69969, Control_c, 0, 64, 51
1, 69983, Control_c, 0, 64, 49
1, 69998, Control_c, 0, 64, 54
1, 70013, Control_c, 0, 64, 58
1, 70028, Control_c, 0, 64, 62
1, 70043, Control_c, 0, 64, 65
1, 70053, Note_off_c, 0, 46, 0
1, 70057, Control_c, 0, 64, 68
1, 70072, Control_c, 0, 64, 72
1, 70087, Control_c, 0, 64, 77
1, 70090, Poly_aftertouch_c, 0, 46, 127
1, 70102, Control_c, 0, 64, 84
1, 70117, Control_c, 0, 64, 91
1, 70132, Control_c, 0, 64, 95
1, 70138, Note_off_c, 0, 58, 40
1, 70143, Note_off_c, 0, 34, 39
1, 70147, Control_c, 0, 64, 98
1, 70153, Note_off_c, 0, 62, 39
1, 70158, Poly_aftertouch_c, 0, 46, 0
1, 70162, Control_c, 0, 64, 98
1, 70176, Control_c, 0, 64, 99
1, 70651, Control_c, 0, 64, 97
1, 70658, Note_on_c, 0, 65, 51
1, 70673, Note_on_c, 0, 50, 30
1, 70673, Control_c, 0, 64, 94
1, 70677, Note_on_c, 0, 58, 32
1, 70688, Control_c, 0, 64, 89
1, 70698, Note_off_c, 0, 70, 35
1, 70703, Control_c, 0, 64, 79
1, 70718, Control_c, 0, 64, 70
1, 70733, Control_c, 0, 64, 62
1, 70748, Control_c, 0, 64, 54
1, 70762, Control_c, 0, 64, 53
1, 70777, Control_c, 0, 64, 56
1, 70792, Control_c, 0, 64, 60
1, 70806, Control_c, 0, 64, 63
1, 70821, Control_c, 0, 64, 66
1, 70829, Note_off_c, 0, 58, 0
1, 70836, Control_c, 0, 64, 69
1, 70851, Control_c, 0, 64, 73
1, 70866, Poly_aftertouch_c, 0, 58, 127
1, 70866, Control_c, 0, 64, 78
1, 70880, Control_c, 0, 64, 86
1, 70895, Control_c, 0, 64, 91
1, 70910, Control_c, 0, 64, 95
1, 70925, Control_c, 0, 64, 97
1, 70929, Poly_aftertouch_c, 0, 58, 0
1, 70940, Control_c, 0, 64, 98
1, 70955, Control_c, 0, 64, 99
1, 70958, Note_off_c, 0, 65, 52
1, 70961, Note_off_c, 0, 50, 45
1, 70970, Control_c, 0, 64, 99
1, 70984, Control_c, 0, 64, 100
1, 70998, Control_c, 0, 64, 101
1, 71013, Control_c, 0, 64, 102
1, 71043, Control_c, 0, 64, 102
1, 71072, Control_c, 0, 64, 103
1, 71481, Control_c, 0, 64, 102
1, 71510, Control_c, 0, 64, 102
1, 71522, Note_on_c, 0, 37, 35
1, 71525, Control_c, 0, 64, 101
1, 71528, Note_on_c, 0, 65, 72
1, 71540, Control_c, 0, 64, 99
1, 71555, Control_c, 0, 64, 94
1, 71570, Control_c, 0, 64, 87
1, 71584, Control_c, 0, 64, 78
1, 71599, Control_c, 0, 64, 69
1, 71614, Control_c, 0, 64, 60
1, 71628, Control_c, 0, 64, 48
1, 71643, Control_c, 0, 64, 46
1, 71658, Control_c, 0, 64, 51
1, 71673, Control_c, 0, 64, 58
1, 71688, Control_c, 0, 64, 62
1, 71703, Control_c, 0, 64, 66
1, 71718, Control_c, 0, 64, 72
1, 71733, Control_c, 0, 64, 80
1, 71748, Control_c, 0, 64, 88
1, 71762, Control_c, 0, 64, 94
1, 71777, Control_c, 0, 64, 98
1, 71792, Control_c, 0, 64, 100
1, 71798, Note_off_c, 0, 37, 50
1, 71807, Control_c, 0, 64, 101
1, 71814, Note_off_c, 0, 65, 62
1, 71837, Control_c, 0, 64, 101
1, 71852, Control_c, 0, 64, 102
1, 71867, Control_c, 0, 64, 102
1, 71882, Control_c, 0, 64, 103
1, 72118, Control_c, 0, 64, 102
1, 72162, Control_c, 0, 64, 102
1, 72185, Control_c, 0, 64, 101
1, 72200, Control_c, 0, 64, 100
1, 72215, Control_c, 0, 64, 98
1, 72229, Note_on_c, 0, 49, 47
1, 72229, Control_c, 0, 64, 94
1, 72236, Note_on_c, 0, 65, 74
1, 72244, Control_c, 0, 64, 86
1, 72251, Note_on_c, 0, 56, 29
1, 72253, Note_on_c, 0, 53, 46
1, 72254, Note_on_c, 0, 61, 43
1, 72260, Control_c, 0, 64, 76
1, 72275, Control_c, 0, 64, 66
1, 72290, Control_c, 0, 64, 55
1, 72305, Control_c, 0, 64, 46
1, 72318, Note_off_c, 0, 61, 0
1, 72320, Control_c, 0, 64, 51
1, 72334, Control_c, 0, 64, 57
1, 72349, Control_c, 0, 64, 61
1, 72353, Note_off_c, 0, 56, 0
1, 72355, Poly_aftertouch_c, 0, 61, 127
1, 72364, Control_c, 0, 64, 65
1, 72378, Control_c, 0, 64, 68
1, 72390, Poly_aftertouch_c, 0, 56, 127
1, 72393, Control_c, 0, 64, 73
1, 72408, Control_c, 0, 64, 78
1, 72423, Control_c, 0, 64, 82
1, 72438, Control_c, 0, 64, 85
1, 72452, Control_c, 0, 64, 88
1, 72464, Poly_aftertouch_c, 0, 56, 0
1, 72467, Control_c, 0, 64, 89
1, 72482, Control_c, 0, 64, 90
1, 72487, Note_off_c, 0, 53, 59
1, 72497, Control_c, 0, 64, 90
1, 72512, Control_c, 0, 64, 91
1, 72526, Control_c, 0, 64, 93
1, 72534, Note_off_c, 0, 49, 61
1, 72541, Control_c, 0, 64, 94
1, 72564, Note_off_c, 0, 65, 62
1, 72585, Control_c, 0, 64, 94
1, 72615, Control_c, 0, 64, 95
1, 72630, Control_c, 0, 64, 95
1, 72823, Control_c, 0, 64, 95
1, 72835, Note_on_c, 0, 65, 76
1, 72894, Note_off_c, 0, 65, 61
1, 72925, Poly_aftertouch_c, 0, 61, 0
1, 72934, Control_c, 0, 64, 94
1, 72949, Control_c, 0, 64, 91
1, 72961, Note_on_c, 0, 65, 67
1, 72964, Control_c, 0, 64, 84
1, 72978, Control_c, 0, 64, 72
1, 72979, Note_on_c, 0, 32, 37
1, 72993, Control_c, 0, 64, 61
1, 73008, Control_c, 0, 64, 32
1, 73023, Control_c, 0, 64, 0
1, 73083, Control_c, 0, 64, 33
1, 73098, Control_c, 0, 64, 51
1, 73113, Control_c, 0, 64, 62
1, 73128, Control_c, 0, 64, 68
1, 73143, Control_c, 0, 64, 77
1, 73157, Control_c, 0, 64, 87
1, 73172, Control_c, 0, 64, 97
1, 73184, Note_off_c, 0, 32, 52
1, 73187, Control_c, 0, 64, 103
1, 73201, Control_c, 0, 64, 106
1, 73216, Control_c, 0, 64, 107
1, 73231, Control_c, 0, 64, 108
1, 73246, Control_c, 0, 64, 109
1, 73261, Control_c, 0, 64, 109
1, 73616, Control_c, 0, 64, 105
1, 73629, Note_on_c, 0, 60, 50
1, 73631, Control_c, 0, 64, 95
1, 73636, Note_on_c, 0, 51, 38
1, 73643, Note_on_c, 0, 44, 31
1, 73646, Control_c, 0, 64, 84
1, 73654, Note_on_c, 0, 56, 25
1, 73658, Note_on_c, 0, 54, 27
1, 73661, Control_c, 0, 64, 73
1, 73682, Control_c, 0, 64, 63
1, 73697, Control_c, 0, 64, 48
1, 73712, Control_c, 0, 64, 44
1, 73727, Control_c, 0, 64, 50
1, 73742, Control_c, 0, 64, 58
1, 73757, Control_c, 0, 64, 63
1, 73772, Control_c, 0, 64, 66
1, 73787, Control_c, 0, 64, 71
1, 73801, Control_c, 0, 64, 77
1, 73816, Control_c, 0, 64, 83
1, 73831, Control_c, 0, 64, 90
1, 73846, Control_c, 0, 64, 94
1, 73861, Control_c, 0, 64, 97
1, 73868, Note_off_c, 0, 56, 42
1, 73876, Control_c, 0, 64, 99
1, 73891, Control_c, 0, 64, 99
1, 73906, Control_c, 0, 64, 100
1, 73921, Control_c, 0, 64, 101
1, 73936, Control_c, 0, 64, 102
1, 73950, Note_off_c, 0, 51, 49
1, 73950, Control_c, 0, 64, 103
1, 73967, Note_off_c, 0, 44, 50
1, 74001, Note_on_c, 0, 63, 70
1, 74019, Note_off_c, 0, 60, 60
1, 74068, Note_off_c, 0, 54, 41
1, 74141, Note_off_c, 0, 65, 32
1, 74330, Note_on_c, 0, 37, 34
1, 74365, Control_c, 0, 64, 101
1, 74380, Control_c, 0, 64, 98
1, 74383, Note_on_c, 0, 53, 49
1, 74384, Note_on_c, 0, 61, 65
1, 74395, Control_c, 0, 64, 90
1, 74410, Control_c, 0, 64, 80
1, 74431, Control_c, 0, 64, 69
1, 74446, Control_c, 0, 64, 58
1, 74448, Note_off_c, 0, 63, 61
1, 74461, Control_c, 0, 64, 38
1, 74476, Control_c, 0, 64, 41
1, 74491, Control_c, 0, 64, 53
1, 74505, Control_c, 0, 64, 62
1, 74513, Note_off_c, 0, 53, 57
1, 74520, Control_c, 0, 64, 68
1, 74535, Control_c, 0, 64, 75
1, 74550, Control_c, 0, 64, 85
1, 74565, Control_c, 0, 64, 91
1, 74579, Control_c, 0, 64, 94
1, 74588, Note_off_c, 0, 61, 64
1, 74591, Note_off_c, 0, 37, 54
1, 74594, Control_c, 0, 64, 96
1, 74609, Control_c, 0, 64, 97
1, 74639, Control_c, 0, 64, 98
1, 74669, Control_c, 0, 64, 98
1, 74684, Control_c, 0, 64, 99
1, 74965, Note_on_c, 0, 63, 69
1, 74970, Note_on_c, 0, 56, 56
1, 75039, Control_c, 0, 64, 98
1, 75054, Control_c, 0, 64, 96
1, 75069, Control_c, 0, 64, 92
1, 75084, Control_c, 0, 64, 84
1, 75094, Note_on_c, 0, 61, 64
1, 75094, Note_on_c, 0, 65, 69
1, 75099, Note_off_c, 0, 63, 62
1, 75099, Control_c, 0, 64, 74
1, 75107, Note_on_c, 0, 49, 29
1, 75113, Note_on_c, 0, 53, 31
1, 75113, Control_c, 0, 64, 64
1, 75128, Control_c, 0, 64, 48
1, 75137, Note_off_c, 0, 56, 39
1, 75143, Control_c, 0, 64, 29
1, 75180, Control_c, 0, 64, 36
1, 75195, Control_c, 0, 64, 45
1, 75210, Control_c, 0, 64, 52
1, 75225, Control_c, 0, 64, 57
1, 75240, Control_c, 0, 64, 61
1, 75254, Control_c, 0, 64, 65
1, 75269, Control_c, 0, 64, 69
1, 75284, Control_c, 0, 64, 74
1, 75298, Control_c, 0, 64, 80
1, 75313, Control_c, 0, 64, 86
1, 75328, Control_c, 0, 64, 90
1, 75343, Control_c, 0, 64, 92
1, 75351, Note_off_c, 0, 53, 54
1, 75358, Control_c, 0, 64, 93
1, 75372, Control_c, 0, 64, 93
1, 75380, Note_off_c, 0, 49, 53
1, 75417, Control_c, 0, 64, 94
1, 75432, Control_c, 0, 64, 94
1, 75610, Note_off_c, 0, 61, 60
1, 75623, Note_off_c, 0, 65, 60
1, 75641, Note_on_c, 0, 70, 69
1, 75654, Note_on_c, 0, 58, 48
1, 75680, Note_off_c, 0, 58, 56
1, 75818, Control_c, 0, 64, 93
1, 75833, Control_c, 0, 64, 90
1, 75840, Note_on_c, 0, 32, 41
1, 75845, Note_on_c, 0, 68, 62
1, 75848, Control_c, 0, 64, 82
1, 75853, Note_on_c, 0, 60, 48
1, 75859, Note_off_c, 0, 70, 53
1, 75862, Control_c, 0, 64, 72
1, 75877, Control_c, 0, 64, 61
1, 75892, Control_c, 0, 64, 32
1, 75907, Control_c, 0, 64, 0
1, 75974, Control_c, 0, 64, 18
1, 75975, Note_off_c, 0, 60, 0
1, 75975, Note_on_c, 0, 60, 18
1, 75989, Control_c, 0, 64, 39
1, 76003, Control_c, 0, 64, 54
1, 76018, Control_c, 0, 64, 63
1, 76033, Control_c, 0, 64, 68
1, 76048, Control_c, 0, 64, 75
1, 76063, Control_c, 0, 64, 83
1, 76077, Control_c, 0, 64, 89
1, 76078, Note_off_c, 0, 32, 55
1, 76092, Control_c, 0, 64, 92
1, 76107, Control_c, 0, 64, 93
1, 76121, Control_c, 0, 64, 94
1, 76210, Control_c, 0, 64, 95
1, 76561, Note_on_c, 0, 63, 37
1, 76565, Note_on_c, 0, 56, 28
1, 76579, Note_on_c, 0, 51, 29
1, 76812, Note_off_c, 0, 63, 43
1, 76875, Note_off_c, 0, 56, 51
1, 76916, Note_off_c, 0, 51, 40
1, 76943, Note_on_c, 0, 66, 58
1, 76967, Note_off_c, 0, 60, 43
1, 77119, Note_off_c, 0, 68, 30
1, 77227, Control_c, 0, 64, 94
1, 77271, Control_c, 0, 64, 94
1, 77301, Control_c, 0, 64, 93
1, 77316, Control_c, 0, 64, 93
1, 77331, Note_on_c, 0, 37, 30
1, 77331, Control_c, 0, 64, 92
1, 77340, Note_off_c, 0, 66, 57
1, 77346, Control_c, 0, 64, 87
1, 77352, Note_on_c, 0, 65, 47
1, 77355, Note_on_c, 0, 61, 38
1, 77360, Control_c, 0, 64, 81
1, 77375, Control_c, 0, 64, 73
1, 77390, Control_c, 0, 64, 64
1, 77405, Control_c, 0, 64, 53
1, 77427, Control_c, 0, 64, 42
1, 77456, Control_c, 0, 64, 47
1, 77471, Control_c, 0, 64, 52
1, 77486, Control_c, 0, 64, 57
1, 77501, Control_c, 0, 64, 61
1, 77516, Control_c, 0, 64, 65
1, 77531, Control_c, 0, 64, 69
1, 77545, Control_c, 0, 64, 77
1, 77560, Control_c, 0, 64, 84
1, 77575, Control_c, 0, 64, 90
1, 77590, Control_c, 0, 64, 93
1, 77593, Note_off_c, 0, 37, 54
1, 77605, Control_c, 0, 64, 95
1, 77620, Control_c, 0, 64, 96
1, 77635, Control_c, 0, 64, 97
1, 77816, Note_off_c, 0, 61, 38
1, 77874, Note_off_c, 0, 65, 25
1, 77942, Note_on_c, 0, 66, 49
1, 78016, Note_off_c, 0, 66, 52
1, 78020, Control_c, 0, 64, 94
1, 78035, Control_c, 0, 64, 89
1, 78050, Control_c, 0, 64, 81
1, 78055, Note_on_c, 0, 49, 32
1, 78061, Note_on_c, 0, 67, 56
1, 78064, Control_c, 0, 64, 72
1, 78069, Note_on_c, 0, 60, 34
1, 78070, Note_on_c, 0, 53, 34
1, 78079, Control_c, 0, 64, 63
1, 78094, Control_c, 0, 64, 51
1, 78109, Control_c, 0, 64, 45
1, 78124, Control_c, 0, 64, 49
1, 78139, Control_c, 0, 64, 54
1, 78154, Control_c, 0, 64, 57
1, 78176, Control_c, 0, 64, 61
1, 78190, Control_c, 0, 64, 64
1, 78205, Control_c, 0, 64, 68
1, 78220, Control_c, 0, 64, 74
1, 78235, Control_c, 0, 64, 81
1, 78249, Note_off_c, 0, 53, 56
1, 78250, Control_c, 0, 64, 88
1, 78265, Control_c, 0, 64, 93
1, 78279, Control_c, 0, 64, 97
1, 78283, Note_off_c, 0, 49, 40
1, 78294, Control_c, 0, 64, 99
1, 78309, Control_c, 0, 64, 100
1, 78316, Note_off_c, 0, 60, 44
1, 78323, Control_c, 0, 64, 100
1, 78360, Note_off_c, 0, 67, 60
1, 78398, Control_c, 0, 64, 101
1, 78613, Note_on_c, 0, 68, 61
1, 78666, Poly_aftertouch_c, 0, 59, 127
1, 78678, Note_off_c, 0, 68, 43
1, 78696, Control_c, 0, 64, 100
1, 78706, Poly_aftertouch_c, 0, 59, 0
1, 78711, Control_c, 0, 64, 96
1, 78726, Control_c, 0, 64, 87
1, 78740, Control_c, 0, 64, 75
1, 78754, Note_on_c, 0, 36, 33
1, 78755, Control_c, 0, 64, 64
1, 78759, Note_on_c, 0, 57, 47
1, 78764, Note_on_c, 0, 65, 44
1, 78770, Note_on_c, 0, 69, 42
1, 78770, Control_c, 0, 64, 39
1, 78785, Control_c, 0, 64, 24
1, 78800, Control_c, 0, 64, 35
1, 78814, Control_c, 0, 64, 50
1, 78829, Control_c, 0, 64, 60
1, 78844, Control_c, 0, 64, 66
1, 78859, Control_c, 0, 64, 73
1, 78866, Note_off_c, 0, 65, 0
1, 78874, Control_c, 0, 64, 83
1, 78888, Control_c, 0, 64, 91
1, 78897, Note_off_c, 0, 57, 40
1, 78903, Poly_aftertouch_c, 0, 65, 127
1, 78903, Control_c, 0, 64, 95
1, 78908, Note_off_c, 0, 36, 52
1, 78919, Note_off_c, 0, 69, 63
1, 78926, Control_c, 0, 64, 99
1, 78940, Control_c, 0, 64, 102
1, 78942, Poly_aftertouch_c, 0, 65, 0
1, 78955, Control_c, 0, 64, 104
1, 78961, Poly_aftertouch_c, 0, 65, 0
1, 78970, Control_c, 0, 64, 105
1, 79000, Control_c, 0, 64, 106
1, 79014, Control_c, 0, 64, 107
1, 79029, Control_c, 0, 64, 108
1, 79345, Note_on_c, 0, 70, 66
1, 79367, Note_on_c, 0, 67, 40
1, 79411, Note_off_c, 0, 67, 48
1, 79444, Control_c, 0, 64, 108
1, 79459, Note_off_c, 0, 70, 57
1, 79459, Control_c, 0, 64, 105
1, 79464, Note_on_c, 0, 71, 66
1, 79466, Note_on_c, 0, 68, 45
1, 79474, Control_c, 0, 64, 100
1, 79482, Note_on_c, 0, 57, 40
1, 79483, Note_on_c, 0, 60, 36
1, 79489, Control_c, 0, 64, 90
1, 79495, Note_on_c, 0, 65, 33
1, 79504, Control_c, 0, 64, 79
1, 79518, Control_c, 0, 64, 67
1, 79533, Control_c, 0, 64, 50
1, 79548, Control_c, 0, 64, 34
1, 79562, Control_c, 0, 64, 40
1, 79577, Control_c, 0, 64, 50
1, 79592, Control_c, 0, 64, 59
1, 79607, Control_c, 0, 64, 64
1, 79622, Control_c, 0, 64, 70
1, 79636, Control_c, 0, 64, 77
1, 79651, Control_c, 0, 64, 85
1, 79674, Note_off_c, 0, 71, 65
1, 79674, Control_c, 0, 64, 92
1, 79675, Note_off_c, 0, 68, 39
1, 79689, Control_c, 0, 64, 97
1, 79704, Control_c, 0, 64, 102
1, 79713, Note_off_c, 0, 65, 41
1, 79718, Control_c, 0, 64, 106
1, 79733, Control_c, 0, 64, 111
1, 79748, Control_c, 0, 64, 113
1, 79775, Note_off_c, 0, 60, 45
1, 79777, Control_c, 0, 64, 113
1, 79785, Note_off_c, 0, 57, 40
1, 79792, Control_c, 0, 64, 114
1, 79822, Control_c, 0, 64, 114
1, 79988, Note_on_c, 0, 72, 61
1, 80007, Note_off_c, 0, 72, 64
1, 80011, Note_on_c, 0, 69, 25
1, 80048, Note_off_c, 0, 69, 52
1, 80079, Note_on_c, 0, 72, 58
1, 80330, Note_on_c, 0, 48, 36
1, 80385, Control_c, 0, 64, 114
1, 80386, Note_on_c, 0, 81, 70
1, 80400, Control_c, 0, 64, 111
1, 80422, Control_c, 0, 64, 108
1, 80437, Control_c, 0, 64, 102
1, 80452, Control_c, 0, 64, 92
1, 80467, Control_c, 0, 64, 81
1, 80482, Control_c, 0, 64, 70
1, 80497, Control_c, 0, 64, 56
1, 80511, Control_c, 0, 64, 38
1, 80526, Control_c, 0, 64, 39
1, 80541, Control_c, 0, 64, 49
1, 80556, Control_c, 0, 64, 58
1, 80571, Control_c, 0, 64, 64
1, 80585, Control_c, 0, 64, 72
1, 80600, Control_c, 0, 64, 82
1, 80615, Control_c, 0, 64, 92
1, 80630, Control_c, 0, 64, 99
1, 80645, Control_c, 0, 64, 104
1, 80658, Note_off_c, 0, 72, 64
1, 80659, Control_c, 0, 64, 107
1, 80674, Control_c, 0, 64, 109
1, 80689, Control_c, 0, 64, 111
1, 80718, Control_c, 0, 64, 111
1, 80730, Note_off_c, 0, 48, 55
1, 80732, Control_c, 0, 64, 112
1, 80762, Control_c, 0, 64, 112
1, 80777, Control_c, 0, 64, 113
1, 81060, Control_c, 0, 64, 112
1, 81067, Note_off_c, 0, 81, 58
1, 81070, Note_on_c, 0, 79, 59
1, 81075, Control_c, 0, 64, 107
1, 81077, Note_on_c, 0, 60, 31
1, 81087, Note_on_c, 0, 64, 35
1, 81089, Control_c, 0, 64, 99
1, 81090, Note_on_c, 0, 70, 39
1, 81104, Control_c, 0, 64, 88
1, 81119, Control_c, 0, 64, 78
1, 81133, Control_c, 0, 64, 69
1, 81148, Control_c, 0, 64, 63
1, 81170, Control_c, 0, 64, 64
1, 81185, Control_c, 0, 64, 67
1, 81200, Control_c, 0, 64, 72
1, 81215, Control_c, 0, 64, 81
1, 81230, Control_c, 0, 64, 92
1, 81245, Control_c, 0, 64, 102
1, 81245, Note_off_c, 0, 64, 42
1, 81253, Note_off_c, 0, 60, 53
1, 81260, Control_c, 0, 64, 106
1, 81275, Control_c, 0, 64, 108
1, 81289, Control_c, 0, 64, 111
1, 81303, Note_off_c, 0, 70, 43
1, 81304, Control_c, 0, 64, 112
1, 81319, Control_c, 0, 64, 113
1, 81333, Control_c, 0, 64, 113
1, 81348, Control_c, 0, 64, 114
1, 81363, Control_c, 0, 64, 115
1, 81378, Control_c, 0, 64, 116
1, 81393, Control_c, 0, 64, 117
1, 81422, Control_c, 0, 64, 118
1, 81481, Control_c, 0, 64, 118
1, 81824, Note_off_c, 0, 79, 39
1, 81853, Control_c, 0, 64, 118
1, 81862, Note_on_c, 0, 69, 33
1, 81863, Note_on_c, 0, 77, 39
1, 81868, Control_c, 0, 64, 114
1, 81883, Control_c, 0, 64, 105
1, 81884, Note_on_c, 0, 41, 13
1, 81898, Control_c, 0, 64, 95
1, 81919, Control_c, 0, 64, 81
1, 81934, Control_c, 0, 64, 71
1, 81949, Control_c, 0, 64, 61
1, 81963, Control_c, 0, 64, 49
1, 81967, Note_off_c, 0, 41, 0
1, 81993, Control_c, 0, 64, 52
1, 82005, Poly_aftertouch_c, 0, 41, 127
1, 82008, Control_c, 0, 64, 56
1, 82023, Control_c, 0, 64, 59
1, 82038, Control_c, 0, 64, 62
1, 82053, Control_c, 0, 64, 65
1, 82067, Control_c, 0, 64, 70
1, 82082, Control_c, 0, 64, 77
1, 82097, Control_c, 0, 64, 87
1, 82112, Control_c, 0, 64, 96
1, 82127, Control_c, 0, 64, 102
1, 82142, Control_c, 0, 64, 106
1, 82148, Note_off_c, 0, 69, 36
1, 82156, Control_c, 0, 64, 108
1, 82160, Poly_aftertouch_c, 0, 41, 0
1, 82160, Note_off_c, 0, 77, 43
1, 82171, Control_c, 0, 64, 109
1, 82186, Control_c, 0, 64, 110
1, 82201, Control_c, 0, 64, 110
1, 82786, Control_c, 0, 64, 108
1, 82801, Control_c, 0, 64, 103
1, 82804, Note_on_c, 0, 69, 59
1, 82810, Note_on_c, 0, 53, 38
1, 82816, Control_c, 0, 64, 95
1, 82820, Note_on_c, 0, 60, 37
1, 82825, Note_on_c, 0, 65, 33
1, 82831, Control_c, 0, 64, 85
1, 82846, Control_c, 0, 64, 74
1, 82860, Control_c, 0, 64, 63
1, 82875, Control_c, 0, 64, 51
1, 82890, Control_c, 0, 64, 49
1, 82905, Control_c, 0, 64, 52
1, 82920, Control_c, 0, 64, 55
1, 82935, Control_c, 0, 64, 58
1, 82950, Control_c, 0, 64, 60
1, 82965, Control_c, 0, 64, 62
1, 82980, Control_c, 0, 64, 65
1, 82994, Control_c, 0, 64, 68
1, 83009, Control_c, 0, 64, 73
1, 83024, Control_c, 0, 64, 79
1, 83039, Control_c, 0, 64, 86
1, 83053, Control_c, 0, 64, 92
1, 83068, Control_c, 0, 64, 95
1, 83083, Control_c, 0, 64, 98
1, 83098, Control_c, 0, 64, 99
1, 83112, Control_c, 0, 64, 99
1, 83127, Control_c, 0, 64, 100
1, 83138, Note_off_c, 0, 60, 61
1, 83142, Control_c, 0, 64, 101
1, 83147, Note_off_c, 0, 53, 59
1, 83157, Control_c, 0, 64, 101
1, 83172, Control_c, 0, 64, 102
1, 83233, Note_off_c, 0, 69, 63
1, 83877, Control_c, 0, 64, 101
1, 83884, Note_on_c, 0, 38, 29
1, 83891, Control_c, 0, 64, 98
1, 83892, Note_on_c, 0, 69, 35
1, 83906, Control_c, 0, 64, 90
1, 83921, Control_c, 0, 64, 82
1, 83935, Control_c, 0, 64, 72
1, 83950, Control_c, 0, 64, 64
1, 83951, Note_off_c, 0, 65, 39
1, 83965, Control_c, 0, 64, 56
1, 83980, Control_c, 0, 64, 55
1, 83995, Control_c, 0, 64, 58
1, 84009, Control_c, 0, 64, 62
1, 84024, Control_c, 0, 64, 65
1, 84039, Control_c, 0, 64, 70
1, 84054, Control_c, 0, 64, 78
1, 84069, Control_c, 0, 64, 87
1, 84083, Control_c, 0, 64, 95
1, 84098, Control_c, 0, 64, 100
1, 84113, Control_c, 0, 64, 101
1, 84123, Note_off_c, 0, 38, 41
1, 84127, Control_c, 0, 64, 101
1, 84138, Note_off_c, 0, 69, 55
1, 84432, Control_c, 0, 64, 101
1, 84537, Control_c, 0, 64, 100
1, 84611, Control_c, 0, 64, 100
1, 84625, Control_c, 0, 64, 98
1, 84640, Control_c, 0, 64, 94
1, 84652, Note_on_c, 0, 50, 38
1, 84655, Note_on_c, 0, 69, 44
1, 84655, Control_c, 0, 64, 87
1, 84664, Note_on_c, 0, 55, 34
1, 84665, Note_on_c, 0, 65, 27
1, 84670, Control_c, 0, 64, 76
1, 84675, Note_on_c, 0, 59, 28
1, 84685, Control_c, 0, 64, 67
1, 84700, Control_c, 0, 64, 58
1, 84715, Control_c, 0, 64, 51
1, 84729, Control_c, 0, 64, 53
1, 84744, Control_c, 0, 64, 57
1, 84759, Control_c, 0, 64, 61
1, 84774, Control_c, 0, 64, 63
1, 84789, Control_c, 0, 64, 66
1, 84804, Control_c, 0, 64, 70
1, 84819, Control_c, 0, 64, 75
1, 84833, Control_c, 0, 64, 79
1, 84848, Control_c, 0, 64, 84
1, 84863, Control_c, 0, 64, 90
1, 84877, Control_c, 0, 64, 93
1, 84888, Note_off_c, 0, 69, 64
1, 84892, Control_c, 0, 64, 95
1, 84894, Note_off_c, 0, 55, 40
1, 84914, Control_c, 0, 64, 96
1, 84924, Note_off_c, 0, 50, 41
1, 84959, Control_c, 0, 64, 96
1, 84960, Note_off_c, 0, 59, 40
1, 85326, Note_off_c, 0, 65, 33
1, 85340, Note_on_c, 0, 69, 49
1, 85375, Note_off_c, 0, 69, 58
1, 85418, Control_c, 0, 64, 96
1, 85448, Control_c, 0, 64, 94
1, 85463, Control_c, 0, 64, 91
1, 85472, Note_on_c, 0, 36, 27
1, 85478, Control_c, 0, 64, 85
1, 85484, Note_on_c, 0, 69, 53
1, 85493, Control_c, 0, 64, 75
1, 85507, Control_c, 0, 64, 66
1, 85522, Control_c, 0, 64, 50
1, 85537, Control_c, 0, 64, 37
1, 85567, Control_c, 0, 64, 40
1, 85581, Control_c, 0, 64, 47
1, 85596, Control_c, 0, 64, 53
1, 85611, Control_c, 0, 64, 61
1, 85614, Note_off_c, 0, 69, 0
1, 85614, Note_on_c, 0, 69, 3
1, 85626, Control_c, 0, 64, 65
1, 85641, Control_c, 0, 64, 70
1, 85662, Control_c, 0, 64, 78
1, 85677, Control_c, 0, 64, 86
1, 85692, Control_c, 0, 64, 92
1, 85707, Control_c, 0, 64, 95
1, 85716, Note_off_c, 0, 36, 51
1, 85722, Control_c, 0, 64, 98
1, 85737, Control_c, 0, 64, 99
1, 86182, Control_c, 0, 64, 99
1, 86196, Control_c, 0, 64, 98
1, 86211, Control_c, 0, 64, 97
1, 86220, Note_on_c, 0, 64, 41
1, 86226, Control_c, 0, 64, 94
1, 86227, Note_on_c, 0, 58, 20
1, 86237, Note_on_c, 0, 48, 25
1, 86241, Control_c, 0, 64, 89
1, 86244, Note_on_c, 0, 55, 26
1, 86256, Control_c, 0, 64, 81
1, 86271, Control_c, 0, 64, 73
1, 86285, Control_c, 0, 64, 64
1, 86300, Control_c, 0, 64, 57
1, 86315, Control_c, 0, 64, 56
1, 86330, Control_c, 0, 64, 58
1, 86345, Control_c, 0, 64, 61
1, 86360, Control_c, 0, 64, 63
1, 86375, Control_c, 0, 64, 65
1, 86390, Control_c, 0, 64, 68
1, 86411, Control_c, 0, 64, 71
1, 86417, Note_off_c, 0, 55, 0
1, 86426, Control_c, 0, 64, 75
1, 86441, Control_c, 0, 64, 80
1, 86455, Poly_aftertouch_c, 0, 55, 127
1, 86456, Control_c, 0, 64, 84
1, 86471, Control_c, 0, 64, 88
1, 86485, Control_c, 0, 64, 90
1, 86500, Control_c, 0, 64, 91
1, 86506, Poly_aftertouch_c, 0, 55, 0
1, 86515, Control_c, 0, 64, 92
1, 86530, Control_c, 0, 64, 92
1, 86538, Note_off_c, 0, 48, 38
1, 86560, Control_c, 0, 64, 93
1, 86570, Note_off_c, 0, 58, 42
1, 86574, Note_off_c, 0, 64, 54
1, 86579, Note_off_c, 0, 69, 43
1, 86584, Note_on_c, 0, 67, 64
1, 86616, Note_off_c, 0, 67, 66
1, 86916, Control_c, 0, 64, 91
1, 86929, Note_on_c, 0, 65, 50
1, 86931, Control_c, 0, 64, 87
1, 86937, Note_on_c, 0, 57, 39
1, 86938, Note_on_c, 0, 38, 30
1, 86943, Note_on_c, 0, 60, 37
1, 86945, Control_c, 0, 64, 80
1, 86952, Note_on_c, 0, 50, 29
1, 86960, Control_c, 0, 64, 73
1, 86975, Control_c, 0, 64, 65
1, 86990, Control_c, 0, 64, 56
1, 87005, Control_c, 0, 64, 49
1, 87019, Control_c, 0, 64, 50
1, 87034, Control_c, 0, 64, 54
1, 87049, Control_c, 0, 64, 57
1, 87064, Control_c, 0, 64, 59
1, 87078, Control_c, 0, 64, 61
1, 87093, Control_c, 0, 64, 64
1, 87108, Control_c, 0, 64, 67
1, 87123, Control_c, 0, 64, 71
1, 87138, Control_c, 0, 64, 77
1, 87156, Note_off_c, 0, 50, 41
1, 87160, Control_c, 0, 64, 81
1, 87169, Note_off_c, 0, 60, 59
1, 87175, Control_c, 0, 64, 85
1, 87190, Control_c, 0, 64, 88
1, 87205, Control_c, 0, 64, 91
1, 87215, Note_off_c, 0, 57, 51
1, 87220, Control_c, 0, 64, 92
1, 87230, Note_off_c, 0, 65, 62
1, 87234, Control_c, 0, 64, 92
1, 87249, Control_c, 0, 64, 93
1, 87257, Note_off_c, 0, 38, 36
1, 87264, Control_c, 0, 64, 93
1, 87278, Control_c, 0, 64, 94
1, 87293, Control_c, 0, 64, 94
1, 87509, Note_on_c, 0, 67, 62
1, 87591, Control_c, 0, 64, 92
1, 87606, Control_c, 0, 64, 88
1, 87621, Control_c, 0, 64, 80
1, 87630, Note_on_c, 0, 69, 62
1, 87634, Note_on_c, 0, 31, 27
1, 87636, Control_c, 0, 64, 71
1, 87642, Note_on_c, 0, 59, 40
1, 87645, Note_on_c, 0, 65, 41
1, 87650, Control_c, 0, 64, 62
1, 87654, Note_off_c, 0, 67, 36
1, 87665, Control_c, 0, 64, 50
1, 87680, Control_c, 0, 64, 45
1, 87688, Poly_aftertouch_c, 0, 43, 127
1, 87694, Control_c, 0, 64, 49
1, 87709, Control_c, 0, 64, 56
1, 87724, Control_c, 0, 64, 61
1, 87739, Control_c, 0, 64, 65
1, 87742, Note_off_c, 0, 65, 43
1, 87754, Control_c, 0, 64, 69
1, 87768, Control_c, 0, 64, 75
1, 87783, Control_c, 0, 64, 82
1, 87789, Poly_aftertouch_c, 0, 43, 0
1, 87798, Control_c, 0, 64, 89
1, 87813, Control_c, 0, 64, 95
1, 87828, Note_off_c, 0, 31, 50
1, 87828, Control_c, 0, 64, 99
1, 87830, Note_off_c, 0, 59, 43
1, 87842, Control_c, 0, 64, 101
1, 87857, Control_c, 0, 64, 103
1, 87872, Control_c, 0, 64, 104
1, 87887, Control_c, 0, 64, 105
1, 87909, Control_c, 0, 64, 106
1, 87924, Control_c, 0, 64, 107
1, 87939, Control_c, 0, 64, 107
1, 88180, Note_off_c, 0, 69, 64
1, 88202, Note_on_c, 0, 71, 62
1, 88340, Control_c, 0, 64, 107
1, 88355, Control_c, 0, 64, 103
1, 88370, Control_c, 0, 64, 96
1, 88381, Note_on_c, 0, 72, 56
1, 88385, Control_c, 0, 64, 86
1, 88399, Control_c, 0, 64, 75
1, 88407, Note_on_c, 0, 64, 42
1, 88407, Note_off_c, 0, 71, 62
1, 88411, Note_on_c, 0, 24, 27
1, 88414, Note_on_c, 0, 36, 23
1, 88414, Control_c, 0, 64, 65
1, 88429, Control_c, 0, 64, 51
1, 88444, Control_c, 0, 64, 40
1, 88473, Control_c, 0, 64, 43
1, 88488, Control_c, 0, 64, 47
1, 88503, Control_c, 0, 64, 51
1, 88518, Control_c, 0, 64, 55
1, 88533, Control_c, 0, 64, 60
1, 88548, Control_c, 0, 64, 64
1, 88563, Control_c, 0, 64, 68
1, 88578, Control_c, 0, 64, 73
1, 88593, Control_c, 0, 64, 80
1, 88607, Control_c, 0, 64, 87
1, 88611, Note_off_c, 0, 24, 40
1, 88622, Control_c, 0, 64, 93
1, 88637, Control_c, 0, 64, 97
1, 88658, Control_c, 0, 64, 101
1, 88673, Control_c, 0, 64, 104
1, 88680, Note_off_c, 0, 36, 39
1, 88688, Control_c, 0, 64, 106
1, 88703, Control_c, 0, 64, 107
1, 88718, Control_c, 0, 64, 108
1, 88733, Control_c, 0, 64, 108
1, 88748, Control_c, 0, 64, 109
1, 89147, Note_on_c, 0, 67, 53
1, 89159, Note_on_c, 0, 52, 30
1, 89163, Control_c, 0, 64, 106
1, 89168, Note_on_c, 0, 60, 28
1, 89178, Control_c, 0, 64, 101
1, 89193, Control_c, 0, 64, 93
1, 89208, Control_c, 0, 64, 82
1, 89222, Control_c, 0, 64, 69
1, 89227, Note_off_c, 0, 64, 44
1, 89237, Control_c, 0, 64, 61
1, 89252, Control_c, 0, 64, 59
1, 89266, Control_c, 0, 64, 63
1, 89281, Control_c, 0, 64, 68
1, 89290, Note_off_c, 0, 72, 34
1, 89296, Control_c, 0, 64, 75
1, 89311, Control_c, 0, 64, 85
1, 89326, Control_c, 0, 64, 99
1, 89341, Control_c, 0, 64, 110
1, 89356, Control_c, 0, 64, 127
1, 89369, Note_off_c, 0, 60, 50
1, 89395, Note_off_c, 0, 52, 51
1, 89429, Note_off_c, 0, 67, 61
1, 89907, Note_on_c, 0, 41, 35
1, 89912, Note_on_c, 0, 67, 75
1, 89956, Control_c, 0, 64, 115
1, 89970, Control_c, 0, 64, 97
1, 89985, Control_c, 0, 64, 80
1, 90000, Control_c, 0, 64, 68
1, 90015, Control_c, 0, 64, 58
1, 90030, Control_c, 0, 64, 57
1, 90044, Control_c, 0, 64, 62
1, 90059, Control_c, 0, 64, 67
1, 90074, Control_c, 0, 64, 77
1, 90089, Control_c, 0, 64, 92
1, 90104, Control_c, 0, 64, 109
1, 90119, Control_c, 0, 64, 127
1, 90128, Note_off_c, 0, 41, 52
1, 90187, Note_off_c, 0, 67, 62
1, 90610, Note_on_c, 0, 67, 77
1, 90620, Note_on_c, 0, 60, 46
1, 90622, Note_on_c, 0, 57, 54
1, 90623, Note_on_c, 0, 63, 49
1, 90625, Note_on_c, 0, 53, 36
1, 90631, Control_c, 0, 64, 108
1, 90646, Control_c, 0, 64, 93
1, 90661, Control_c, 0, 64, 79
1, 90675, Control_c, 0, 64, 68
1, 90690, Control_c, 0, 64, 59
1, 90705, Control_c, 0, 64, 57
1, 90720, Control_c, 0, 64, 60
1, 90734, Control_c, 0, 64, 64
1, 90749, Control_c, 0, 64, 69
1, 90764, Control_c, 0, 64, 76
1, 90779, Control_c, 0, 64, 85
1, 90793, Control_c, 0, 64, 93
1, 90808, Control_c, 0, 64, 99
1, 90823, Control_c, 0, 64, 105
1, 90838, Control_c, 0, 64, 109
1, 90853, Control_c, 0, 64, 111
1, 90860, Note_off_c, 0, 60, 60
1, 90867, Control_c, 0, 64, 113
1, 90905, Control_c, 0, 64, 113
1, 90907, Note_off_c, 0, 53, 65
1, 90919, Control_c, 0, 64, 114
1, 90963, Note_off_c, 0, 57, 62
1, 90980, Note_off_c, 0, 67, 61
1, 91249, Note_on_c, 0, 67, 78
1, 91290, Control_c, 0, 64, 113
1, 91296, Note_off_c, 0, 67, 57
1, 91305, Control_c, 0, 64, 113
1, 91314, Note_off_c, 0, 63, 58
1, 91320, Control_c, 0, 64, 110
1, 91335, Control_c, 0, 64, 107
1, 91350, Control_c, 0, 64, 99
1, 91356, Note_on_c, 0, 67, 72
1, 91360, Note_on_c, 0, 34, 44
1, 91365, Control_c, 0, 64, 87
1, 91380, Control_c, 0, 64, 74
1, 91394, Control_c, 0, 64, 61
1, 91409, Control_c, 0, 64, 0
1, 91469, Control_c, 0, 64, 21
1, 91484, Control_c, 0, 64, 43
1, 91499, Control_c, 0, 64, 57
1, 91514, Control_c, 0, 64, 66
1, 91529, Control_c, 0, 64, 73
1, 91543, Control_c, 0, 64, 85
1, 91558, Control_c, 0, 64, 98
1, 91573, Control_c, 0, 64, 114
1, 91587, Note_off_c, 0, 34, 60
1, 91588, Control_c, 0, 64, 127
1, 92048, Note_on_c, 0, 46, 36
1, 92053, Note_on_c, 0, 62, 56
1, 92054, Control_c, 0, 64, 125
1, 92057, Note_on_c, 0, 53, 46
1, 92062, Note_on_c, 0, 56, 52
1, 92064, Note_on_c, 0, 58, 32
1, 92068, Control_c, 0, 64, 101
1, 92083, Control_c, 0, 64, 85
1, 92098, Control_c, 0, 64, 73
1, 92113, Control_c, 0, 64, 62
1, 92128, Control_c, 0, 64, 52
1, 92143, Control_c, 0, 64, 54
1, 92158, Control_c, 0, 64, 59
1, 92173, Control_c, 0, 64, 64
1, 92188, Control_c, 0, 64, 69
1, 92203, Control_c, 0, 64, 75
1, 92218, Control_c, 0, 64, 82
1, 92233, Control_c, 0, 64, 88
1, 92247, Control_c, 0, 64, 92
1, 92262, Control_c, 0, 64, 96
1, 92275, Note_off_c, 0, 58, 44
1, 92277, Control_c, 0, 64, 99
1, 92292, Control_c, 0, 64, 101
1, 92307, Control_c, 0, 64, 103
1, 92318, Note_off_c, 0, 56, 59
1, 92322, Control_c, 0, 64, 104
1, 92336, Note_off_c, 0, 53, 63
1, 92337, Control_c, 0, 64, 105
1, 92343, Note_off_c, 0, 67, 56
1, 92352, Control_c, 0, 64, 107
1, 92366, Control_c, 0, 64, 108
1, 92366, Note_off_c, 0, 62, 61
1, 92368, Note_off_c, 0, 46, 62
1, 92377, Note_on_c, 0, 65, 77
1, 92381, Control_c, 0, 64, 109
1, 92447, Control_c, 0, 64, 109
1, 92671, Note_off_c, 0, 65, 33
1, 92712, Control_c, 0, 64, 109
1, 92727, Control_c, 0, 64, 103
1, 92729, Note_on_c, 0, 63, 69
1, 92730, Note_on_c, 0, 48, 44
1, 92737, Note_on_c, 0, 55, 50
1, 92739, Note_on_c, 0, 36, 30
1, 92739, Note_on_c, 0, 58, 61
1, 92742, Control_c, 0, 64, 95
1, 92757, Control_c, 0, 64, 84
1, 92772, Control_c, 0, 64, 74
1, 92787, Control_c, 0, 64, 63
1, 92802, Control_c, 0, 64, 48
1, 92816, Control_c, 0, 64, 35
1, 92831, Control_c, 0, 64, 37
1, 92846, Control_c, 0, 64, 46
1, 92861, Control_c, 0, 64, 55
1, 92876, Control_c, 0, 64, 61
1, 92890, Control_c, 0, 64, 65
1, 92903, Note_off_c, 0, 48, 61
1, 92905, Control_c, 0, 64, 70
1, 92920, Control_c, 0, 64, 77
1, 92935, Control_c, 0, 64, 84
1, 92950, Control_c, 0, 64, 89
1, 92953, Note_off_c, 0, 36, 41
1, 92963, Note_off_c, 0, 58, 62
1, 92964, Control_c, 0, 64, 92
1, 92979, Control_c, 0, 64, 94
1, 92981, Note_off_c, 0, 55, 58
1, 92994, Control_c, 0, 64, 96
1, 93010, Control_c, 0, 64, 97
1, 93025, Control_c, 0, 64, 98
1, 93040, Control_c, 0, 64, 98
1, 93055, Control_c, 0, 64, 99
1, 93084, Control_c, 0, 64, 99
1, 93085, Note_off_c, 0, 63, 34
1, 93301, Note_on_c, 0, 65, 84
1, 93373, Control_c, 0, 64, 97
1, 93387, Control_c, 0, 64, 89
1, 93391, Note_off_c, 0, 65, 39
1, 93402, Control_c, 0, 64, 74
1, 93411, Note_on_c, 0, 29, 45
1, 93415, Note_on_c, 0, 67, 70
1, 93417, Note_on_c, 0, 63, 55
1, 93417, Control_c, 0, 64, 41
1, 93423, Note_on_c, 0, 57, 59
1, 93425, Note_on_c, 0, 41, 24
1, 93432, Control_c, 0, 64, 0
1, 93550, Control_c, 0, 64, 39
1, 93565, Control_c, 0, 64, 59
1, 93580, Control_c, 0, 64, 67
1, 93595, Control_c, 0, 64, 79
1, 93610, Control_c, 0, 64, 92
1, 93624, Control_c, 0, 64, 105
1, 93630, Note_off_c, 0, 57, 60
1, 93633, Note_off_c, 0, 29, 40
1, 93636, Note_off_c, 0, 67, 60
1, 93639, Control_c, 0, 64, 118
1, 93654, Control_c, 0, 64, 127
1, 93654, Note_off_c, 0, 41, 40
1, 93669, Note_off_c, 0, 63, 63
1, 93980, Note_on_c, 0, 69, 77
1, 94027, Note_off_c, 0, 69, 63
1, 94203, Note_on_c, 0, 70, 66
1, 94212, Note_on_c, 0, 34, 39
1, 94212, Control_c, 0, 64, 120
1, 94215, Note_on_c, 0, 58, 53
1, 94215, Note_on_c, 0, 62, 57
1, 94215, Note_on_c, 0, 46, 36
1, 94226, Control_c, 0, 64, 97
1, 94241, Control_c, 0, 64, 81
1, 94256, Control_c, 0, 64, 67
1, 94270, Control_c, 0, 64, 48
1, 94285, Control_c, 0, 64, 42
1, 94300, Control_c, 0, 64, 51
1, 94315, Control_c, 0, 64, 59
1, 94330, Control_c, 0, 64, 63
1, 94344, Control_c, 0, 64, 67
1, 94359, Control_c, 0, 64, 73
1, 94374, Control_c, 0, 64, 79
1, 94389, Control_c, 0, 64, 85
1, 94404, Control_c, 0, 64, 90
1, 94418, Control_c, 0, 64, 93
1, 94433, Control_c, 0, 64, 95
1, 94437, Note_off_c, 0, 34, 60
1, 94448, Control_c, 0, 64, 95
1, 94462, Control_c, 0, 64, 96
1, 94467, Note_off_c, 0, 62, 63
1, 94469, Note_off_c, 0, 46, 52
1, 94477, Control_c, 0, 64, 96
1, 94479, Note_off_c, 0, 58, 60
1, 94507, Control_c, 0, 64, 97
1, 94945, Control_c, 0, 64, 96
1, 94952, Note_on_c, 0, 65, 60
1, 94956, Note_on_c, 0, 50, 43
1, 94960, Control_c, 0, 64, 92
1, 94968, Note_on_c, 0, 58, 37
1, 94975, Control_c, 0, 64, 85
1, 94990, Control_c, 0, 64, 74
1, 95005, Control_c, 0, 64, 63
1, 95019, Control_c, 0, 64, 50
1, 95034, Control_c, 0, 64, 51
1, 95043, Note_off_c, 0, 70, 56
1, 95049, Control_c, 0, 64, 56
1, 95064, Control_c, 0, 64, 60
1, 95079, Control_c, 0, 64, 63
1, 95093, Control_c, 0, 64, 67
1, 95108, Control_c, 0, 64, 73
1, 95123, Control_c, 0, 64, 81
1, 95138, Control_c, 0, 64, 88
1, 95153, Control_c, 0, 64, 94
1, 95167, Control_c, 0, 64, 99
1, 95182, Control_c, 0, 64, 101
1, 95197, Control_c, 0, 64, 102
1, 95211, Control_c, 0, 64, 103
1, 95228, Note_off_c, 0, 58, 41
1, 95231, Note_off_c, 0, 50, 64
1, 95252, Note_off_c, 0, 65, 61
1, 95413, Control_c, 0, 67, 8
1, 95428, Control_c, 0, 67, 8
1, 95458, Control_c, 0, 67, 9
1, 95487, Control_c, 0, 67, 9
1, 95561, Control_c, 0, 67, 9
1, 95605, Control_c, 0, 67, 8
1, 95679, Control_c, 0, 67, 8
1, 95901, Control_c, 0, 64, 102
1, 95915, Control_c, 0, 64, 101
1, 95930, Control_c, 0, 64, 98
1, 95938, Note_on_c, 0, 37, 27
1, 95938, Note_on_c, 0, 65, 44
1, 95945, Control_c, 0, 64, 93
1, 95960, Control_c, 0, 64, 84
1, 95975, Control_c, 0, 64, 71
1, 95989, Control_c, 0, 64, 59
1, 96004, Control_c, 0, 64, 41
1, 96019, Control_c, 0, 64, 38
1, 96033, Control_c, 0, 64, 43
1, 96048, Control_c, 0, 64, 49
1, 96048, Control_c, 0, 67, 0
1, 96063, Control_c, 0, 64, 55
1, 96078, Control_c, 0, 64, 59
1, 96093, Control_c, 0, 64, 64
1, 96108, Control_c, 0, 64, 68
1, 96122, Control_c, 0, 64, 76
1, 96145, Control_c, 0, 64, 85
1, 96160, Control_c, 0, 64, 94
1, 96175, Control_c, 0, 64, 103
1, 96175, Control_c, 0, 67, 8
1, 96189, Control_c, 0, 64, 109
1, 96204, Control_c, 0, 64, 114
1, 96204, Control_c, 0, 67, 8
1, 96215, Note_off_c, 0, 65, 60
1, 96220, Control_c, 0, 64, 116
1, 96220, Control_c, 0, 67, 9
1, 96235, Control_c, 0, 64, 117
1, 96244, Note_off_c, 0, 37, 37
1, 96250, Control_c, 0, 67, 9
1, 96264, Control_c, 0, 64, 118
1, 96279, Control_c, 0, 67, 10
1, 96294, Control_c, 0, 67, 10
1, 96324, Control_c, 0, 67, 11
1, 96338, Control_c, 0, 67, 12
1, 96353, Control_c, 0, 67, 12
1, 96368, Control_c, 0, 67, 13
1, 96442, Control_c, 0, 67, 12
1, 96516, Control_c, 0, 64, 117
1, 96576, Control_c, 0, 67, 12
1, 96679, Control_c, 0, 67, 11
1, 96709, Control_c, 0, 64, 117
1, 96724, Control_c, 0, 64, 115
1, 96738, Control_c, 0, 64, 110
1, 96751, Note_on_c, 0, 65, 44
1, 96751, Note_on_c, 0, 49, 35
1, 96753, Control_c, 0, 64, 102
1, 96756, Note_on_c, 0, 56, 30
1, 96757, Note_on_c, 0, 61, 32
1, 96763, Note_on_c, 0, 53, 32
1, 96768, Control_c, 0, 64, 91
1, 96768, Control_c, 0, 67, 12
1, 96783, Control_c, 0, 64, 80
1, 96798, Control_c, 0, 64, 70
1, 96812, Control_c, 0, 64, 62
1, 96827, Control_c, 0, 64, 59
1, 96827, Control_c, 0, 67, 12
1, 96842, Control_c, 0, 64, 61
1, 96856, Control_c, 0, 64, 64
1, 96871, Control_c, 0, 64, 68
1, 96871, Control_c, 0, 67, 13
1, 96894, Control_c, 0, 64, 73
1, 96894, Control_c, 0, 67, 13
1, 96909, Control_c, 0, 64, 80
1, 96924, Control_c, 0, 64, 87
1, 96938, Control_c, 0, 64, 94
1, 96938, Control_c, 0, 67, 14
1, 96953, Note_off_c, 0, 56, 41
1, 96953, Control_c, 0, 64, 98
1, 96953, Control_c, 0, 67, 14
1, 96968, Control_c, 0, 64, 101
1, 96968, Control_c, 0, 67, 15
1, 96983, Control_c, 0, 64, 103
1, 96983, Control_c, 0, 67, 18
1, 96984, Note_off_c, 0, 61, 0
1, 96985, Note_off_c, 0, 49, 41
1, 96997, Control_c, 0, 64, 103
1, 96997, Control_c, 0, 67, 21
1, 97014, Control_c, 0, 67, 25
1, 97023, Poly_aftertouch_c, 0, 61, 127
1, 97029, Control_c, 0, 64, 104
1, 97029, Control_c, 0, 67, 28
1, 97043, Control_c, 0, 64, 105
1, 97043, Control_c, 0, 67, 31
1, 97046, Note_off_c, 0, 53, 45
1, 97058, Control_c, 0, 64, 106
1, 97058, Control_c, 0, 67, 34
1, 97073, Control_c, 0, 64, 107
1, 97073, Control_c, 0, 67, 36
1, 97082, Note_off_c, 0, 65, 59
1, 97087, Control_c, 0, 64, 107
1, 97087, Control_c, 0, 67, 39
1, 97102, Control_c, 0, 64, 108
1, 97102, Control_c, 0, 67, 41
1, 97117, Control_c, 0, 67, 42
1, 97132, Control_c, 0, 67, 43
1, 97147, Control_c, 0, 67, 44
1, 97191, Control_c, 0, 67, 44
1, 97528, Note_on_c, 0, 65, 50
1, 97543, Poly_aftertouch_c, 0, 61, 0
1, 97576, Note_off_c, 0, 65, 54
1, 97687, Control_c, 0, 64, 107
1, 97702, Control_c, 0, 64, 104
1, 97717, Note_on_c, 0, 65, 49
1, 97717, Control_c, 0, 64, 99
1, 97722, Note_on_c, 0, 32, 33
1, 97732, Control_c, 0, 64, 90
1, 97747, Control_c, 0, 64, 79
1, 97762, Control_c, 0, 64, 68
1, 97777, Control_c, 0, 64, 56
1, 97792, Control_c, 0, 64, 34
1, 97807, Control_c, 0, 64, 33
1, 97822, Control_c, 0, 64, 39
1, 97836, Control_c, 0, 64, 49
1, 97851, Control_c, 0, 64, 55
1, 97866, Control_c, 0, 64, 59
1, 97866, Control_c, 0, 67, 44
1, 97881, Control_c, 0, 64, 63
1, 97896, Control_c, 0, 64, 69
1, 97896, Control_c, 0, 67, 43
1, 97911, Control_c, 0, 64, 76
1, 97926, Control_c, 0, 64, 84
1, 97941, Control_c, 0, 64, 90
1, 97944, Note_off_c, 0, 32, 52
1, 97956, Control_c, 0, 64, 93
1, 97971, Control_c, 0, 64, 95
1, 98000, Control_c, 0, 64, 95
1, 98118, Control_c, 0, 67, 43
1, 98236, Control_c, 0, 67, 43
1, 98407, Control_c, 0, 67, 43
1, 98481, Control_c, 0, 64, 95
1, 98495, Note_on_c, 0, 60, 38
1, 98496, Note_on_c, 0, 51, 33
1, 98501, Note_on_c, 0, 44, 25
1, 98508, Note_on_c, 0, 54, 32
1, 98510, Control_c, 0, 64, 92
1, 98525, Control_c, 0, 64, 88
1, 98530, Note_on_c, 0, 56, 22
1, 98540, Control_c, 0, 64, 80
1, 98555, Control_c, 0, 64, 72
1, 98570, Control_c, 0, 64, 65
1, 98585, Control_c, 0, 64, 61
1, 98600, Control_c, 0, 64, 62
1, 98615, Control_c, 0, 64, 64
1, 98630, Control_c, 0, 64, 67
1, 98645, Control_c, 0, 64, 72
1, 98645, Control_c, 0, 67, 42
1, 98659, Control_c, 0, 64, 76
1, 98674, Control_c, 0, 64, 81
1, 98689, Control_c, 0, 64, 84
1, 98689, Control_c, 0, 67, 42
1, 98695, Note_off_c, 0, 56, 31
1, 98704, Control_c, 0, 64, 88
1, 98719, Control_c, 0, 64, 91
1, 98734, Control_c, 0, 64, 94
1, 98749, Control_c, 0, 64, 96
1, 98749, Control_c, 0, 67, 41
1, 98764, Control_c, 0, 64, 97
1, 98778, Control_c, 0, 64, 99
1, 98793, Control_c, 0, 67, 41
1, 98808, Control_c, 0, 64, 99
1, 98808, Control_c, 0, 67, 40
1, 98823, Control_c, 0, 64, 100
1, 98823, Control_c, 0, 67, 40
1, 98826, Note_off_c, 0, 51, 43
1, 98838, Control_c, 0, 67, 39
1, 98853, Control_c, 0, 64, 100
1, 98862, Note_off_c, 0, 44, 39
1, 98873, Note_off_c, 0, 54, 39
1, 98922, Note_off_c, 0, 60, 44
1, 98927, Control_c, 0, 64, 101
1, 98927, Control_c, 0, 67, 40
1, 98935, Note_on_c, 0, 63, 47
1, 98986, Control_c, 0, 67, 40
1, 98989, Note_off_c, 0, 65, 38
1, 99284, Note_on_c, 0, 37, 28
1, 99304, Control_c, 0, 64, 100
1, 99319, Control_c, 0, 64, 97
1, 99319, Control_c, 0, 67, 41
1, 99325, Note_off_c, 0, 63, 42
1, 99333, Control_c, 0, 64, 91
1, 99335, Note_on_c, 0, 61, 40
1, 99339, Note_on_c, 0, 53, 32
1, 99348, Control_c, 0, 64, 82
1, 99363, Control_c, 0, 64, 72
1, 99378, Control_c, 0, 64, 63
1, 99392, Control_c, 0, 64, 54
1, 99409, Control_c, 0, 64, 56
1, 99424, Control_c, 0, 64, 60
1, 99438, Control_c, 0, 64, 63
1, 99453, Control_c, 0, 64, 68
1, 99453, Control_c, 0, 67, 40
1, 99468, Control_c, 0, 64, 75
1, 99482, Control_c, 0, 64, 83
1, 99482, Control_c, 0, 67, 40
1, 99497, Control_c, 0, 64, 91
1, 99512, Control_c, 0, 64, 95
1, 99515, Note_off_c, 0, 53, 44
1, 99524, Note_off_c, 0, 37, 42
1, 99527, Control_c, 0, 64, 97
1, 99542, Note_off_c, 0, 61, 54
1, 99542, Control_c, 0, 64, 97
1, 99556, Control_c, 0, 64, 98
1, 99586, Control_c, 0, 67, 39
1, 99676, Control_c, 0, 67, 39
1, 99853, Control_c, 0, 67, 38
1, 99956, Note_on_c, 0, 63, 52
1, 99980, Note_on_c, 0, 56, 38
1, 100053, Control_c, 0, 64, 98
1, 100068, Control_c, 0, 64, 93
1, 100072, Note_off_c, 0, 63, 51
1, 100082, Control_c, 0, 64, 86
1, 100096, Note_on_c, 0, 65, 47
1, 100097, Control_c, 0, 64, 77
1, 100112, Control_c, 0, 64, 67
1, 100113, Note_on_c, 0, 61, 37
1, 100122, Note_on_c, 0, 53, 26
1, 100127, Control_c, 0, 64, 58
1, 100128, Note_on_c, 0, 49, 18
1, 100142, Control_c, 0, 64, 48
1, 100156, Note_off_c, 0, 56, 46
1, 100156, Control_c, 0, 64, 50
1, 100171, Control_c, 0, 64, 55
1, 100171, Control_c, 0, 67, 37
1, 100186, Control_c, 0, 64, 59
1, 100186, Control_c, 0, 67, 37
1, 100201, Control_c, 0, 64, 62
1, 100201, Control_c, 0, 67, 36
1, 100216, Control_c, 0, 64, 64
1, 100216, Control_c, 0, 67, 36
1, 100231, Control_c, 0, 64, 67
1, 100231, Control_c, 0, 67, 35
1, 100246, Control_c, 0, 64, 72
1, 100246, Control_c, 0, 67, 35
1, 100260, Control_c, 0, 64, 78
1, 100260, Control_c, 0, 67, 34
1, 100275, Control_c, 0, 64, 85
1, 100275, Control_c, 0, 67, 32
1, 100290, Control_c, 0, 64, 91
1, 100290, Control_c, 0, 67, 30
1, 100305, Control_c, 0, 64, 95
1, 100305, Control_c, 0, 67, 27
1, 100320, Control_c, 0, 64, 98
1, 100320, Control_c, 0, 67, 23
1, 100334, Control_c, 0, 64, 101
1, 100334, Control_c, 0, 67, 18
1, 100349, Control_c, 0, 64, 103
1, 100349, Control_c, 0, 67, 11
1, 100364, Control_c, 0, 64, 105
1, 100364, Control_c, 0, 67, 0
1, 100379, Control_c, 0, 64, 107
1, 100388, Note_off_c, 0, 53, 47
1, 100394, Control_c, 0, 64, 108
1, 100403, Note_off_c, 0, 49, 49
1, 100409, Control_c, 0, 64, 109
1, 100423, Control_c, 0, 64, 110
1, 100438, Control_c, 0, 64, 110
1, 100453, Control_c, 0, 64, 111
1, 100468, Control_c, 0, 64, 112
1, 100483, Control_c, 0, 64, 113
1, 100512, Control_c, 0, 64, 113
1, 100527, Control_c, 0, 64, 114
1, 100557, Control_c, 0, 64, 114
1, 100572, Control_c, 0, 64, 115
1, 100586, Control_c, 0, 64, 115
1, 100668, Note_off_c, 0, 61, 40
1, 100683, Note_off_c, 0, 65, 40
1, 100688, Note_on_c, 0, 70, 53
1, 100698, Note_on_c, 0, 58, 37
1, 100743, Note_off_c, 0, 58, 47
1, 100845, Control_c, 0, 64, 115
1, 100904, Control_c, 0, 64, 114
1, 100919, Control_c, 0, 64, 111
1, 100931, Note_on_c, 0, 68, 47
1, 100933, Note_on_c, 0, 32, 31
1, 100934, Control_c, 0, 64, 107
1, 100950, Control_c, 0, 64, 100
1, 100954, Note_on_c, 0, 60, 35
1, 100965, Control_c, 0, 64, 90
1, 100975, Note_off_c, 0, 70, 31
1, 100979, Control_c, 0, 64, 79
1, 100994, Control_c, 0, 64, 68
1, 101010, Control_c, 0, 64, 54
1, 101025, Control_c, 0, 64, 39
1, 101040, Control_c, 0, 64, 39
1, 101054, Control_c, 0, 64, 45
1, 101069, Control_c, 0, 64, 53
1, 101084, Control_c, 0, 64, 59
1, 101099, Control_c, 0, 64, 63
1, 101114, Control_c, 0, 64, 70
1, 101128, Control_c, 0, 64, 79
1, 101143, Control_c, 0, 64, 90
1, 101158, Control_c, 0, 64, 100
1, 101173, Control_c, 0, 64, 108
1, 101179, Note_off_c, 0, 32, 52
1, 101188, Control_c, 0, 64, 115
1, 101202, Control_c, 0, 64, 127
1, 101703, Note_on_c, 0, 63, 31
1, 101712, Note_on_c, 0, 56, 26
1, 101722, Note_on_c, 0, 51, 23
1, 101957, Note_off_c, 0, 63, 41
1, 102038, Note_off_c, 0, 56, 47
1, 102071, Note_off_c, 0, 51, 39
1, 102081, Note_on_c, 0, 66, 56
1, 102135, Note_off_c, 0, 60, 44
1, 102266, Note_off_c, 0, 68, 30
1, 102420, Note_on_c, 0, 37, 32
1, 102477, Control_c, 0, 64, 117
1, 102479, Note_off_c, 0, 66, 57
1, 102486, Note_on_c, 0, 65, 49
1, 102492, Control_c, 0, 64, 104
1, 102493, Note_on_c, 0, 61, 41
1, 102507, Control_c, 0, 64, 92
1, 102522, Control_c, 0, 64, 81
1, 102537, Control_c, 0, 64, 69
1, 102551, Control_c, 0, 64, 60
1, 102566, Control_c, 0, 64, 51
1, 102581, Control_c, 0, 64, 53
1, 102597, Control_c, 0, 64, 58
1, 102612, Control_c, 0, 64, 62
1, 102626, Control_c, 0, 64, 66
1, 102641, Control_c, 0, 64, 70
1, 102656, Control_c, 0, 64, 77
1, 102671, Control_c, 0, 64, 85
1, 102686, Control_c, 0, 64, 93
1, 102700, Control_c, 0, 64, 99
1, 102715, Control_c, 0, 64, 103
1, 102730, Control_c, 0, 64, 106
1, 102733, Note_off_c, 0, 37, 47
1, 102745, Control_c, 0, 64, 108
1, 102760, Control_c, 0, 64, 110
1, 102774, Control_c, 0, 64, 111
1, 102789, Control_c, 0, 64, 113
1, 102804, Control_c, 0, 64, 114
1, 102848, Control_c, 0, 64, 114
1, 102963, Note_off_c, 0, 61, 38
1, 103059, Note_off_c, 0, 65, 26
1, 103098, Note_on_c, 0, 66, 62
1, 103181, Control_c, 0, 64, 114
1, 103196, Control_c, 0, 64, 109
1, 103211, Control_c, 0, 64, 101
1, 103223, Note_off_c, 0, 66, 63
1, 103226, Control_c, 0, 64, 92
1, 103229, Note_on_c, 0, 67, 73
1, 103235, Note_on_c, 0, 60, 50
1, 103237, Note_on_c, 0, 53, 38
1, 103241, Control_c, 0, 64, 82
1, 103256, Control_c, 0, 64, 73
1, 103260, Note_on_c, 0, 49, 25
1, 103271, Control_c, 0, 64, 64
1, 103286, Control_c, 0, 64, 53
1, 103300, Control_c, 0, 64, 52
1, 103315, Control_c, 0, 64, 56
1, 103330, Control_c, 0, 64, 60
1, 103345, Control_c, 0, 64, 63
1, 103355, Note_off_c, 0, 60, 0
1, 103355, Note_on_c, 0, 60, 8
1, 103360, Control_c, 0, 64, 66
1, 103374, Control_c, 0, 64, 69
1, 103389, Control_c, 0, 64, 75
1, 103405, Control_c, 0, 64, 81
1, 103420, Control_c, 0, 64, 86
1, 103435, Control_c, 0, 64, 90
1, 103449, Control_c, 0, 64, 93
1, 103464, Control_c, 0, 64, 95
1, 103479, Control_c, 0, 64, 96
1, 103494, Control_c, 0, 64, 99
1, 103509, Control_c, 0, 64, 101
1, 103523, Control_c, 0, 64, 103
1, 103538, Control_c, 0, 64, 104
1, 103550, Note_off_c, 0, 60, 40
1, 103553, Control_c, 0, 64, 106
1, 103566, Note_off_c, 0, 49, 41
1, 103568, Control_c, 0, 64, 107
1, 103575, Note_off_c, 0, 53, 47
1, 103583, Control_c, 0, 64, 108
1, 103597, Control_c, 0, 64, 109
1, 103612, Control_c, 0, 64, 109
1, 103634, Control_c, 0, 64, 110
1, 103639, Note_off_c, 0, 67, 49
1, 103649, Control_c, 0, 64, 110
1, 103819, Note_on_c, 0, 68, 71
1, 103824, Note_on_c, 0, 59, 63
1, 103848, Note_off_c, 0, 59, 64
1, 103908, Note_off_c, 0, 68, 63
1, 103916, Control_c, 0, 64, 108
1, 103930, Control_c, 0, 64, 99
1, 103940, Note_on_c, 0, 36, 44
1, 103942, Note_on_c, 0, 65, 55
1, 103945, Control_c, 0, 64, 88
1, 103950, Note_on_c, 0, 57, 60
1, 103954, Note_on_c, 0, 69, 60
1, 103960, Control_c, 0, 64, 74
1, 103974, Control_c, 0, 64, 63
1, 103989, Control_c, 0, 64, 39
1, 104004, Control_c, 0, 64, 21
1, 104019, Control_c, 0, 64, 34
1, 104034, Control_c, 0, 64, 50
1, 104049, Control_c, 0, 64, 61
1, 104064, Control_c, 0, 64, 68
1, 104078, Control_c, 0, 64, 76
1, 104087, Note_off_c, 0, 57, 60
1, 104093, Control_c, 0, 64, 86
1, 104094, Note_off_c, 0, 36, 60
1, 104108, Control_c, 0, 64, 94
1, 104123, Control_c, 0, 64, 99
1, 104132, Note_off_c, 0, 65, 62
1, 104132, Note_off_c, 0, 69, 64
1, 104138, Control_c, 0, 64, 101
1, 104153, Control_c, 0, 64, 103
1, 104167, Control_c, 0, 64, 103
1, 104213, Control_c, 0, 64, 104
1, 104522, Note_on_c, 0, 67, 67
1, 104524, Note_on_c, 0, 70, 74
1, 104547, Note_off_c, 0, 67, 62
1, 104635, Control_c, 0, 64, 102
1, 104638, Note_off_c, 0, 70, 58
1, 104642, Note_on_c, 0, 71, 73
1, 104645, Note_on_c, 0, 57, 35
1, 104645, Note_on_c, 0, 68, 59
1, 104650, Control_c, 0, 64, 96
1, 104657, Note_on_c, 0, 60, 32
1, 104659, Note_on_c, 0, 65, 34
1, 104665, Control_c, 0, 64, 87
1, 104679, Control_c, 0, 64, 76
1, 104694, Control_c, 0, 64, 65
1, 104709, Control_c, 0, 64, 48
1, 104724, Control_c, 0, 64, 19
1, 104739, Control_c, 0, 64, 21
1, 104753, Control_c, 0, 64, 31
1, 104768, Control_c, 0, 64, 44
1, 104783, Control_c, 0, 64, 53
1, 104797, Control_c, 0, 64, 60
1, 104812, Control_c, 0, 64, 67
1, 104827, Control_c, 0, 64, 74
1, 104842, Control_c, 0, 64, 84
1, 104857, Control_c, 0, 64, 94
1, 104870, Note_off_c, 0, 68, 56
1, 104871, Control_c, 0, 64, 102
1, 104880, Note_off_c, 0, 71, 65
1, 104886, Control_c, 0, 64, 109
1, 104901, Control_c, 0, 64, 115
1, 104916, Control_c, 0, 64, 118
1, 104926, Note_off_c, 0, 65, 41
1, 104931, Control_c, 0, 64, 120
1, 104946, Control_c, 0, 64, 120
1, 104961, Control_c, 0, 64, 122
1, 104976, Control_c, 0, 64, 127
1, 104978, Note_off_c, 0, 60, 51
1, 104992, Note_off_c, 0, 57, 45
1, 105206, Note_on_c, 0, 69, 57
1, 105206, Note_on_c, 0, 72, 65
1, 105223, Note_off_c, 0, 72, 65
1, 105226, Note_off_c, 0, 69, 63
1, 105296, Note_on_c, 0, 72, 64
1, 105568, Note_on_c, 0, 48, 40
1, 105609, Note_on_c, 0, 81, 78
1, 105634, Control_c, 0, 64, 113
1, 105649, Control_c, 0, 64, 101
1, 105664, Control_c, 0, 64, 86
1, 105679, Control_c, 0, 64, 74
1, 105694, Control_c, 0, 64, 64
1, 105709, Control_c, 0, 64, 48
1, 105724, Control_c, 0, 64, 39
1, 105738, Control_c, 0, 64, 44
1, 105753, Control_c, 0, 64, 52
1, 105768, Control_c, 0, 64, 59
1, 105783, Control_c, 0, 64, 63
1, 105798, Control_c, 0, 64, 68
1, 105813, Control_c, 0, 64, 76
1, 105828, Control_c, 0, 64, 88
1, 105843, Control_c, 0, 64, 101
1, 105858, Control_c, 0, 64, 122
1, 105880, Control_c, 0, 64, 127
1, 105919, Note_off_c, 0, 72, 64
1, 105977, Note_off_c, 0, 48, 54
1, 106341, Note_on_c, 0, 79, 60
1, 106343, Note_off_c, 0, 81, 56
1, 106345, Note_on_c, 0, 70, 44
1, 106351, Note_on_c, 0, 60, 34
1, 106362, Note_on_c, 0, 64, 34
1, 106368, Control_c, 0, 64, 115
1, 106383, Control_c, 0, 64, 98
1, 106398, Control_c, 0, 64, 85
1, 106413, Control_c, 0, 64, 74
1, 106427, Control_c, 0, 64, 63
1, 106442, Control_c, 0, 64, 57
1, 106457, Control_c, 0, 64, 60
1, 106472, Control_c, 0, 64, 63
1, 106487, Control_c, 0, 64, 66
1, 106502, Control_c, 0, 64, 72
1, 106516, Control_c, 0, 64, 82
1, 106531, Control_c, 0, 64, 90
1, 106546, Control_c, 0, 64, 96
1, 106560, Control_c, 0, 64, 100
1, 106575, Control_c, 0, 64, 103
1, 106591, Control_c, 0, 64, 106
1, 106606, Control_c, 0, 64, 109
1, 106628, Control_c, 0, 64, 111
1, 106630, Note_off_c, 0, 64, 43
1, 106643, Control_c, 0, 64, 111
1, 106658, Control_c, 0, 64, 112
1, 106670, Note_off_c, 0, 70, 33
1, 106687, Control_c, 0, 64, 112
1, 106702, Control_c, 0, 64, 113
1, 106717, Control_c, 0, 64, 115
1, 106732, Control_c, 0, 64, 116
1, 106746, Control_c, 0, 64, 117
1, 106761, Control_c, 0, 64, 118
1, 106776, Control_c, 0, 64, 120
1, 106791, Control_c, 0, 64, 121
1, 106806, Control_c, 0, 64, 123
1, 106836, Control_c, 0, 64, 125
1, 106880, Control_c, 0, 64, 127
1, 106903, Note_off_c, 0, 79, 34
1, 107310, Control_c, 0, 64, 116
1, 107316, Note_on_c, 0, 77, 39
1, 107322, Note_on_c, 0, 69, 36
1, 107325, Control_c, 0, 64, 109
1, 107328, Note_on_c, 0, 53, 30
1, 107331, Note_on_c, 0, 65, 22
1, 107340, Control_c, 0, 64, 102
1, 107354, Control_c, 0, 64, 95
1, 107377, Control_c, 0, 64, 87
1, 107393, Control_c, 0, 64, 79
1, 107408, Control_c, 0, 64, 72
1, 107422, Control_c, 0, 64, 64
1, 107437, Control_c, 0, 64, 55
1, 107452, Control_c, 0, 64, 50
1, 107467, Control_c, 0, 64, 49
1, 107482, Control_c, 0, 64, 50
1, 107718, Control_c, 0, 64, 50
1, 107733, Control_c, 0, 64, 51
1, 107748, Control_c, 0, 64, 52
1, 107763, Control_c, 0, 64, 53
1, 107778, Control_c, 0, 64, 54
1, 107793, Control_c, 0, 64, 56
1, 107808, Control_c, 0, 64, 57
1, 107822, Control_c, 0, 64, 58
1, 107837, Control_c, 0, 64, 59
1, 107852, Control_c, 0, 64, 62
1, 107867, Control_c, 0, 64, 64
1, 107882, Control_c, 0, 64, 66
1, 107896, Control_c, 0, 64, 68
1, 107911, Control_c, 0, 64, 70
1, 107926, Control_c, 0, 64, 73
1, 107941, Control_c, 0, 64, 76
1, 107956, Control_c, 0, 64, 79
1, 107970, Control_c, 0, 64, 82
1, 107985, Control_c, 0, 64, 83
1, 108000, Control_c, 0, 64, 85
1, 108014, Control_c, 0, 64, 86
1, 108029, Control_c, 0, 64, 87
1, 108044, Control_c, 0, 64, 88
1, 108059, Control_c, 0, 64, 89
1, 108080, Note_off_c, 0, 65, 39
1, 108088, Control_c, 0, 64, 90
1, 108102, Note_off_c, 0, 77, 44
1, 108143, Note_off_c, 0, 69, 46
1, 108144, Note_off_c, 0, 60, 43
1, 108157, Note_off_c, 0, 53, 46
1, 108393, Control_c, 0, 64, 89
1, 108408, Control_c, 0, 64, 89
1, 108423, Control_c, 0, 64, 88
1, 108437, Control_c, 0, 64, 87
1, 108452, Control_c, 0, 64, 86
1, 108467, Control_c, 0, 64, 85
1, 108482, Control_c, 0, 64, 83
1, 108497, Control_c, 0, 64, 81
1, 108511, Control_c, 0, 64, 79
1, 108526, Control_c, 0, 64, 77
1, 108541, Control_c, 0, 64, 75
1, 108556, Control_c, 0, 64, 73
1, 108571, Control_c, 0, 64, 72
1, 108586, Control_c, 0, 64, 71
1, 108600, Control_c, 0, 64, 69
1, 108615, Control_c, 0, 64, 67
1, 108630, Control_c, 0, 64, 65
1, 108645, Control_c, 0, 64, 62
1, 108660, Control_c, 0, 64, 60
1, 108675, Control_c, 0, 64, 58
1, 108690, Control_c, 0, 64, 57
1, 108705, Control_c, 0, 64, 56
1, 108719, Control_c, 0, 64, 54
1, 108734, Control_c, 0, 64, 53
1, 108749, Control_c, 0, 64, 52
1, 108763, Control_c, 0, 64, 50
1, 108778, Control_c, 0, 64, 49
1, 108793, Control_c, 0, 64, 48
1, 108808, Control_c, 0, 64, 46
1, 108823, Control_c, 0, 64, 45
1, 108837, Control_c, 0, 64, 45
1, 108852, Control_c, 0, 64, 44
1, 108875, Control_c, 0, 64, 44
1, 108905, Control_c, 0, 64, 43
1, 108934, Control_c, 0, 64, 43
1, 108963, Control_c, 0, 64, 42
1, 109039, Control_c, 0, 64, 42
1, 109083, Control_c, 0, 64, 41
1, 109142, Control_c, 0, 64, 41
1, 109231, Control_c, 0, 64, 40
1, 109320, Control_c, 0, 64, 40
1, 109349, Control_c, 0, 64, 39
1, 109364, Control_c, 0, 64, 38
1, 109379, Control_c, 0, 64, 37
1, 109384, Note_on_c, 0, 67, 73
1, 109388, Note_on_c, 0, 61, 68
1, 109391, Note_on_c, 0, 53, 67
1, 109391, Note_on_c, 0, 55, 62
1, 109392, Note_on_c, 0, 46, 53
1, 109393, Control_c, 0, 64, 35
1, 109396, Note_on_c, 0, 34, 47
1, 109408, Control_c, 0, 64, 31
1, 109423, Control_c, 0, 64, 25
1, 109438, Control_c, 0, 64, 14
1, 109453, Control_c, 0, 64, 0
1, 109906, Control_c, 0, 64, 26
1, 109921, Control_c, 0, 64, 39
1, 109936, Control_c, 0, 64, 48
1, 109951, Control_c, 0, 64, 52
1, 109965, Control_c, 0, 64, 55
1, 109980, Control_c, 0, 64, 58
1, 109995, Control_c, 0, 64, 60
1, 110009, Control_c, 0, 64, 61
1, 110024, Control_c, 0, 64, 63
1, 110039, Control_c, 0, 64, 66
1, 110054, Control_c, 0, 64, 70
1, 110069, Control_c, 0, 64, 74
1, 110084, Control_c, 0, 64, 79
1, 110098, Control_c, 0, 64, 82
1, 110113, Control_c, 0, 64, 84
1, 110124, Note_off_c, 0, 67, 49
1, 110128, Control_c, 0, 64, 86
1, 110143, Control_c, 0, 64, 88
1, 110151, Note_off_c, 0, 53, 55
1, 110153, Note_off_c, 0, 55, 54
1, 110157, Control_c, 0, 64, 89
1, 110172, Control_c, 0, 64, 90
1, 110174, Note_off_c, 0, 34, 37
1, 110185, Note_off_c, 0, 46, 60
1, 110187, Control_c, 0, 64, 90
1, 110202, Control_c, 0, 64, 91
1, 110216, Control_c, 0, 64, 91
1, 110246, Note_off_c, 0, 61, 36
1, 110246, Control_c, 0, 64, 92
1, 110684, Control_c, 0, 64, 90
1, 110696, Note_on_c, 0, 65, 68
1, 110699, Control_c, 0, 64, 86
1, 110701, Note_on_c, 0, 58, 55
1, 110702, Note_on_c, 0, 49, 47
1, 110703, Note_on_c, 0, 53, 57
1, 110705, Note_on_c, 0, 55, 55
1, 110712, Note_on_c, 0, 37, 39
1, 110714, Control_c, 0, 64, 80
1, 110729, Control_c, 0, 64, 74
1, 110744, Control_c, 0, 64, 68
1, 110759, Control_c, 0, 64, 62
1, 110774, Control_c, 0, 64, 52
1, 110788, Control_c, 0, 64, 49
1, 110803, Control_c, 0, 64, 53
1, 110818, Control_c, 0, 64, 57
1, 110833, Control_c, 0, 64, 59
1, 110847, Control_c, 0, 64, 61
1, 110862, Control_c, 0, 64, 63
1, 110877, Control_c, 0, 64, 65
1, 110892, Control_c, 0, 64, 70
1, 110907, Control_c, 0, 64, 75
1, 110921, Control_c, 0, 64, 80
1, 110936, Control_c, 0, 64, 84
1, 110951, Control_c, 0, 64, 87
1, 110956, Note_off_c, 0, 55, 60
1, 110957, Note_off_c, 0, 53, 65
1, 110961, Note_off_c, 0, 65, 62
1, 110965, Control_c, 0, 64, 89
1, 110969, Note_off_c, 0, 58, 63
1, 110970, Note_off_c, 0, 49, 61
1, 110980, Control_c, 0, 64, 90
1, 110993, Note_off_c, 0, 37, 41
1, 110995, Control_c, 0, 64, 90
1, 111039, Control_c, 0, 64, 91
1, 111309, Note_on_c, 0, 65, 75
1, 111310, Note_on_c, 0, 49, 48
1, 111311, Note_on_c, 0, 37, 44
1, 111318, Note_on_c, 0, 58, 60
1, 111321, Note_on_c, 0, 53, 48
1, 111325, Note_on_c, 0, 55, 44
1, 111338, Note_off_c, 0, 49, 54
1, 111340, Note_off_c, 0, 58, 60
1, 111341, Note_off_c, 0, 65, 61
1, 111343, Control_c, 0, 64, 89
1, 111344, Note_off_c, 0, 37, 49
1, 111352, Note_off_c, 0, 53, 55
1, 111353, Note_off_c, 0, 55, 56
1, 111358, Control_c, 0, 64, 87
1, 111373, Control_c, 0, 64, 83
1, 111388, Control_c, 0, 64, 77
1, 111403, Control_c, 0, 64, 71
1, 111418, Control_c, 0, 64, 65
1, 111420, Note_on_c, 0, 65, 64
1, 111424, Note_on_c, 0, 58, 50
1, 111427, Note_on_c, 0, 49, 46
1, 111433, Control_c, 0, 64, 57
1, 111435, Note_on_c, 0, 55, 49
1, 111437, Note_on_c, 0, 53, 61
1, 111448, Control_c, 0, 64, 49
1, 111469, Note_on_c, 0, 37, 37
1, 111477, Control_c, 0, 64, 53
1, 111492, Control_c, 0, 64, 56
1, 111507, Control_c, 0, 64, 59
1, 111522, Control_c, 0, 64, 62
1, 111537, Control_c, 0, 64, 65
1, 111552, Control_c, 0, 64, 68
1, 111566, Control_c, 0, 64, 72
1, 111581, Control_c, 0, 64, 76
1, 111592, Note_off_c, 0, 65, 63
1, 111595, Note_off_c, 0, 49, 60
1, 111596, Control_c, 0, 64, 79
1, 111602, Note_off_c, 0, 37, 62
1, 111603, Note_off_c, 0, 55, 56
1, 111604, Note_off_c, 0, 53, 59
1, 111611, Control_c, 0, 64, 79
1, 111614, Note_off_c, 0, 58, 62
1, 111730, Control_c, 0, 64, 79
1, 111744, Control_c, 0, 64, 77
1, 111759, Control_c, 0, 64, 72
1, 111774, Control_c, 0, 64, 67
1, 111788, Control_c, 0, 64, 61
1, 111803, Control_c, 0, 64, 54
1, 111818, Control_c, 0, 64, 47
1, 111833, Control_c, 0, 64, 45
1, 112092, Control_c, 0, 64, 45
1, 112115, Note_on_c, 0, 60, 59
1, 112118, Note_on_c, 0, 53, 52
1, 112121, Note_on_c, 0, 55, 52
1, 112124, Note_on_c, 0, 48, 38
1, 112127, Note_on_c, 0, 36, 38
1, 112151, Control_c, 0, 64, 44
1, 112182, Control_c, 0, 64, 44
1, 112197, Control_c, 0, 64, 43
1, 112226, Control_c, 0, 64, 43
1, 112315, Control_c, 0, 64, 42
1, 112351, Note_off_c, 0, 53, 64
1, 112356, Note_off_c, 0, 55, 62
1, 112356, Note_off_c, 0, 60, 64
1, 112358, Note_off_c, 0, 36, 54
1, 112360, Note_off_c, 0, 48, 51
1, 112389, Control_c, 0, 64, 42
1, 112449, Control_c, 0, 64, 41
1, 112508, Control_c, 0, 64, 41
1, 112582, Control_c, 0, 64, 40
1, 112723, Control_c, 0, 64, 40
1, 112784, Note_on_c, 0, 55, 39
1, 112789, Note_on_c, 0, 36, 28
1, 112790, Note_on_c, 0, 60, 44
1, 112791, Note_on_c, 0, 48, 33
1, 112795, Note_on_c, 0, 52, 38
1, 112797, Control_c, 0, 64, 39
1, 112841, Control_c, 0, 64, 39
1, 112885, Control_c, 0, 64, 38
1, 112915, Control_c, 0, 64, 39
1, 112929, Control_c, 0, 64, 44
1, 112944, Control_c, 0, 64, 50
1, 112959, Control_c, 0, 64, 55
1, 112974, Control_c, 0, 64, 58
1, 112990, Control_c, 0, 64, 61
1, 113005, Control_c, 0, 64, 62
1, 113020, Note_off_c, 0, 55, 60
1, 113020, Control_c, 0, 64, 62
1, 113024, Note_off_c, 0, 60, 63
1, 113027, Note_off_c, 0, 52, 57
1, 113030, Note_off_c, 0, 36, 48
1, 113030, Note_off_c, 0, 48, 56
1, 113034, Control_c, 0, 64, 63
1, 113049, Control_c, 0, 64, 62
1, 113064, Control_c, 0, 64, 62
1, 113079, Control_c, 0, 64, 61
1, 113094, Control_c, 0, 64, 60
1, 113108, Control_c, 0, 64, 59
1, 113123, Control_c, 0, 64, 57
1, 113138, Control_c, 0, 64, 56
1, 113152, Control_c, 0, 64, 55
1, 113167, Control_c, 0, 64, 55
1, 113182, Control_c, 0, 64, 54
1, 113212, Control_c, 0, 64, 54
1, 113227, Control_c, 0, 64, 53
1, 113591, Note_on_c, 0, 60, 35
1, 113593, Note_on_c, 0, 41, 21
1, 113611, Note_on_c, 0, 48, 14
1, 113615, Note_on_c, 0, 57, 21
1, 113622, Note_on_c, 0, 53, 16
1, 113709, Control_c, 0, 64, 53
1, 113754, Control_c, 0, 64, 52
1, 113947, Control_c, 0, 64, 52
1, 114065, Control_c, 0, 64, 51
1, 114147, Control_c, 0, 64, 51
1, 114147, Control_c, 0, 67, 8
1, 114162, Control_c, 0, 67, 8
1, 114177, Control_c, 0, 67, 9
1, 114191, Control_c, 0, 64, 50
1, 114191, Control_c, 0, 67, 9
1, 114206, Control_c, 0, 67, 10
1, 114221, Control_c, 0, 67, 11
1, 114236, Control_c, 0, 64, 50
1, 114236, Control_c, 0, 67, 11
1, 114251, Control_c, 0, 67, 13
1, 114265, Control_c, 0, 67, 14
1, 114272, Note_off_c, 0, 53, 43
1, 114280, Control_c, 0, 64, 49
1, 114280, Control_c, 0, 67, 16
1, 114295, Control_c, 0, 67, 19
1, 114309, Control_c, 0, 67, 23
1, 114324, Control_c, 0, 67, 29
1, 114327, Note_off_c, 0, 48, 41
1, 114339, Control_c, 0, 64, 49
1, 114339, Control_c, 0, 67, 35
1, 114341, Note_off_c, 0, 57, 28
1, 114347, Note_off_c, 0, 41, 40
1, 114353, Note_off_c, 0, 60, 43
1, 114354, Control_c, 0, 67, 40
1, 114369, Control_c, 0, 67, 43
1, 114383, Control_c, 0, 67, 46
1, 114398, Control_c, 0, 64, 48
1, 114398, Control_c, 0, 67, 50
1, 114413, Control_c, 0, 67, 55
1, 114428, Control_c, 0, 67, 59
1, 114443, Control_c, 0, 67, 62
1, 114457, Control_c, 0, 64, 48
1, 114457, Control_c, 0, 67, 66
1, 114472, Control_c, 0, 67, 70
1, 114487, Control_c, 0, 67, 75
1, 114502, Control_c, 0, 67, 80
1, 114516, Control_c, 0, 67, 85
1, 114531, Control_c, 0, 67, 92
1, 114546, Control_c, 0, 67, 98
1, 114561, Control_c, 0, 67, 104
1, 114577, Control_c, 0, 67, 109
1, 114592, Control_c, 0, 64, 47
1, 114592, Control_c, 0, 67, 114
1, 114606, Control_c, 0, 67, 119
1, 114621, Control_c, 0, 67, 123
1, 114636, Control_c, 0, 67, 127
1, 114651, Control_c, 0, 67, 127
1, 114666, Control_c, 0, 64, 47
1, 114695, Control_c, 0, 64, 46
1, 114910, Control_c, 0, 64, 46
1, 115502, Note_on_c, 0, 67, 52
1, 115506, Note_on_c, 0, 61, 37
1, 115507, Note_on_c, 0, 46, 32
1, 115515, Note_on_c, 0, 34, 24
1, 115518, Note_on_c, 0, 53, 42
1, 115520, Note_on_c, 0, 55, 38
1, 115762, Control_c, 0, 64, 47
1, 115777, Control_c, 0, 64, 49
1, 115792, Control_c, 0, 64, 53
1, 115807, Control_c, 0, 64, 56
1, 115822, Control_c, 0, 64, 58
1, 115836, Control_c, 0, 64, 60
1, 115851, Control_c, 0, 64, 62
1, 115866, Control_c, 0, 64, 64
1, 115881, Control_c, 0, 64, 66
1, 115896, Control_c, 0, 64, 69
1, 115910, Control_c, 0, 64, 72
1, 115925, Control_c, 0, 64, 76
1, 115940, Control_c, 0, 64, 80
1, 115954, Control_c, 0, 64, 82
1, 115969, Control_c, 0, 64, 85
1, 115984, Control_c, 0, 64, 86
1, 115999, Control_c, 0, 64, 88
1, 116014, Control_c, 0, 64, 90
1, 116029, Control_c, 0, 64, 92
1, 116044, Control_c, 0, 64, 93
1, 116059, Control_c, 0, 64, 94
1, 116074, Control_c, 0, 64, 94
1, 116103, Control_c, 0, 64, 95
1, 116109, Note_off_c, 0, 67, 40
1, 116110, Note_off_c, 0, 34, 38
1, 116110, Note_off_c, 0, 46, 42
1, 116119, Note_off_c, 0, 53, 43
1, 116133, Control_c, 0, 64, 95
1, 116134, Note_off_c, 0, 55, 38
1, 116165, Note_off_c, 0, 61, 41
1, 116193, Control_c, 0, 64, 96
1, 116911, Control_c, 0, 64, 95
1, 116926, Control_c, 0, 64, 94
1, 116941, Control_c, 0, 64, 92
1, 116955, Note_on_c, 0, 49, 36
1, 116956, Note_on_c, 0, 37, 33
1, 116956, Note_on_c, 0, 65, 47
1, 116956, Control_c, 0, 64, 88
1, 116965, Note_on_c, 0, 58, 36
1, 116972, Control_c, 0, 64, 82
1, 116973, Note_on_c, 0, 53, 33
1, 116974, Note_on_c, 0, 55, 33
1, 116987, Control_c, 0, 64, 76
1, 117001, Control_c, 0, 64, 70
1, 117016, Control_c, 0, 64, 64
1, 117031, Control_c, 0, 64, 59
1, 117061, Control_c, 0, 64, 61
1, 117075, Control_c, 0, 64, 64
1, 117090, Control_c, 0, 64, 67
1, 117113, Control_c, 0, 64, 72
1, 117119, Note_off_c, 0, 53, 52
1, 117121, Note_off_c, 0, 55, 49
1, 117122, Note_off_c, 0, 65, 61
1, 117127, Note_off_c, 0, 49, 55
1, 117128, Control_c, 0, 64, 78
1, 117133, Note_off_c, 0, 58, 48
1, 117143, Control_c, 0, 64, 82
1, 117150, Note_off_c, 0, 37, 39
1, 117157, Control_c, 0, 64, 86
1, 117172, Control_c, 0, 64, 89
1, 117187, Control_c, 0, 64, 91
1, 117201, Control_c, 0, 64, 92
1, 117216, Control_c, 0, 64, 93
1, 117231, Control_c, 0, 64, 93
1, 117246, Control_c, 0, 64, 94
1, 117275, Control_c, 0, 64, 94
1, 117559, Note_on_c, 0, 65, 44
1, 117561, Note_on_c, 0, 37, 37
1, 117568, Note_on_c, 0, 49, 33
1, 117573, Note_on_c, 0, 53, 34
1, 117573, Note_on_c, 0, 58, 38
1, 117576, Note_on_c, 0, 55, 29
1, 117601, Control_c, 0, 64, 93
1, 117603, Note_off_c, 0, 65, 45
1, 117604, Note_off_c, 0, 37, 45
1, 117608, Note_off_c, 0, 58, 51
1, 117612, Note_off_c, 0, 49, 47
1, 117615, Note_off_c, 0, 53, 49
1, 117615, Note_off_c, 0, 55, 47
1, 117616, Control_c, 0, 64, 91
1, 117631, Control_c, 0, 64, 86
1, 117646, Control_c, 0, 64, 80
1, 117661, Control_c, 0, 64, 73
1, 117675, Control_c, 0, 64, 68
1, 117690, Control_c, 0, 64, 66
1, 117705, Control_c, 0, 64, 66
1, 117719, Note_on_c, 0, 53, 35
1, 117719, Control_c, 0, 64, 68
1, 117722, Note_on_c, 0, 55, 34
1, 117727, Note_on_c, 0, 65, 40
1, 117731, Note_on_c, 0, 58, 34
1, 117733, Note_on_c, 0, 49, 26
1, 117734, Control_c, 0, 64, 72
1, 117736, Note_on_c, 0, 37, 21
1, 117749, Control_c, 0, 64, 77
1, 117764, Control_c, 0, 64, 81
1, 117780, Control_c, 0, 64, 84
1, 117795, Control_c, 0, 64, 85
1, 117800, Note_off_c, 0, 58, 36
1, 117810, Control_c, 0, 64, 85
1, 117820, Note_off_c, 0, 37, 35
1, 117824, Control_c, 0, 64, 86
1, 117857, Note_off_c, 0, 55, 33
1, 117862, Note_off_c, 0, 53, 33
1, 117868, Note_off_c, 0, 49, 28
1, 117880, Note_off_c, 0, 65, 32
1, 118069, Control_c, 0, 64, 85
1, 118084, Control_c, 0, 64, 84
1, 118098, Control_c, 0, 64, 83
1, 118113, Control_c, 0, 64, 82
1, 118128, Control_c, 0, 64, 78
1, 118143, Control_c, 0, 64, 73
1, 118157, Control_c, 0, 64, 67
1, 118171, Control_c, 0, 64, 60
1, 118186, Control_c, 0, 64, 50
1, 118201, Control_c, 0, 64, 41
1, 118216, Control_c, 0, 64, 39
1, 118319, Control_c, 0, 64, 38
1, 118393, Control_c, 0, 64, 38
1, 118437, Control_c, 0, 64, 37
1, 118467, Control_c, 0, 64, 37
1, 118527, Control_c, 0, 64, 36
1, 118572, Control_c, 0, 64, 36
1, 118653, Control_c, 0, 64, 35
1, 118786, Control_c, 0, 64, 35
1, 118846, Control_c, 0, 64, 34
1, 119112, Control_c, 0, 64, 34
1, 119174, Note_on_c, 0, 53, 31
1, 119174, Note_on_c, 0, 60, 31
1, 119177, Note_on_c, 0, 55, 31
1, 119187, Note_on_c, 0, 48, 12
1, 119195, Note_on_c, 0, 36, 7
1, 119231, Control_c, 0, 64, 33
1, 119372, Control_c, 0, 64, 33
1, 119402, Control_c, 0, 64, 32
1, 119447, Control_c, 0, 64, 32
1, 119462, Control_c, 0, 64, 31
1, 119463, Note_off_c, 0, 48, 42
1, 119463, Note_off_c, 0, 53, 46
1, 119464, Note_off_c, 0, 60, 54
1, 119465, Note_off_c, 0, 55, 42
1, 119472, Note_off_c, 0, 36, 41
1, 119491, Control_c, 0, 64, 31
1, 119506, Control_c, 0, 64, 30
1, 119521, Control_c, 0, 64, 29
1, 119550, Control_c, 0, 64, 29
1, 119565, Control_c, 0, 64, 28
1, 119580, Control_c, 0, 64, 28
1, 119594, Control_c, 0, 64, 27
1, 119624, Control_c, 0, 64, 27
1, 119654, Control_c, 0, 64, 26
1, 119698, Control_c, 0, 64, 26
1, 119743, Control_c, 0, 64, 25
1, 119788, Control_c, 0, 64, 25
1, 119817, Control_c, 0, 64, 24
1, 119862, Control_c, 0, 64, 24
1, 119994, Control_c, 0, 64, 23
1, 120444, Note_on_c, 0, 36, 25
1, 120445, Note_on_c, 0, 48, 26
1, 120445, Note_on_c, 0, 60, 35
1, 120451, Note_on_c, 0, 55, 25
1, 120459, Note_on_c, 0, 52, 17
1, 120507, Control_c, 0, 64, 24
1, 120522, Control_c, 0, 64, 27
1, 120537, Control_c, 0, 64, 32
1, 120551, Control_c, 0, 64, 36
1, 120566, Control_c, 0, 64, 42
1, 120581, Control_c, 0, 64, 50
1, 120596, Control_c, 0, 64, 58
1, 120611, Control_c, 0, 64, 63
1, 120625, Control_c, 0, 64, 65
1, 120640, Control_c, 0, 64, 68
1, 120655, Note_off_c, 0, 55, 47
1, 120655, Control_c, 0, 64, 72
1, 120660, Note_off_c, 0, 60, 57
1, 120666, Note_off_c, 0, 48, 55
1, 120670, Control_c, 0, 64, 76
1, 120680, Note_off_c, 0, 52, 43
1, 120685, Control_c, 0, 64, 79
1, 120690, Note_off_c, 0, 36, 51
1, 120700, Control_c, 0, 64, 80
1, 120715, Control_c, 0, 64, 81
1, 120804, Control_c, 0, 64, 80
1, 120818, Control_c, 0, 64, 79
1, 120833, Control_c, 0, 64, 79
1, 120855, Control_c, 0, 64, 78
1, 120870, Control_c, 0, 64, 77
1, 120885, Control_c, 0, 64, 75
1, 120900, Control_c, 0, 64, 73
1, 120915, Control_c, 0, 64, 71
1, 120930, Control_c, 0, 64, 68
1, 120944, Control_c, 0, 64, 66
1, 120959, Control_c, 0, 64, 64
1, 120974, Control_c, 0, 64, 63
1, 120989, Control_c, 0, 64, 61
1, 121004, Control_c, 0, 64, 59
1, 121019, Control_c, 0, 64, 57
1, 121034, Control_c, 0, 64, 56
1, 121049, Control_c, 0, 64, 55
1, 121064, Control_c, 0, 64, 54
1, 121079, Control_c, 0, 64, 53
1, 121093, Control_c, 0, 64, 52
1, 121108, Control_c, 0, 64, 51
1, 121123, Control_c, 0, 64, 50
1, 121138, Control_c, 0, 64, 49
1, 121153, Control_c, 0, 64, 48
1, 121167, Control_c, 0, 64, 48
1, 121181, Control_c, 0, 64, 47
1, 121192, Note_on_c, 0, 57, 39
1, 121194, Note_on_c, 0, 29, 34
1, 121196, Control_c, 0, 64, 47
1, 121201, Note_on_c, 0, 48, 29
1, 121201, Note_on_c, 0, 60, 43
1, 121205, Note_on_c, 0, 41, 19
1, 121207, Note_on_c, 0, 53, 22
1, 121211, Control_c, 0, 64, 46
1, 121241, Control_c, 0, 64, 46
1, 121255, Control_c, 0, 64, 45
1, 121344, Control_c, 0, 64, 46
1, 121359, Control_c, 0, 64, 48
1, 121374, Control_c, 0, 64, 52
1, 121389, Control_c, 0, 64, 55
1, 121403, Control_c, 0, 64, 59
1, 121418, Control_c, 0, 64, 61
1, 121433, Control_c, 0, 64, 64
1, 121448, Control_c, 0, 64, 67
1, 121463, Control_c, 0, 64, 70
1, 121478, Control_c, 0, 64, 74
1, 121492, Control_c, 0, 64, 78
1, 121507, Control_c, 0, 64, 80
1, 121522, Control_c, 0, 64, 82
1, 121537, Control_c, 0, 64, 83
1, 121552, Control_c, 0, 64, 84
1, 121566, Control_c, 0, 64, 84
1, 121581, Control_c, 0, 67, 127
1, 121603, Control_c, 0, 67, 126
1, 121618, Control_c, 0, 64, 85
1, 121633, Control_c, 0, 67, 126
1, 121692, Control_c, 0, 67, 125
1, 121737, Control_c, 0, 67, 125
1, 121767, Control_c, 0, 67, 124
1, 121782, Control_c, 0, 67, 124
1, 121797, Control_c, 0, 67, 123
1, 121812, Control_c, 0, 67, 123
1, 121827, Control_c, 0, 67, 122
1, 121842, Control_c, 0, 67, 121
1, 121857, Control_c, 0, 67, 120
1, 121871, Control_c, 0, 67, 119
1, 121886, Control_c, 0, 67, 118
1, 121901, Control_c, 0, 67, 117
1, 121916, Control_c, 0, 67, 115
1, 121930, Control_c, 0, 67, 113
1, 121945, Control_c, 0, 67, 111
1, 121946, Note_on_c, 0, 36, 36
1, 121960, Control_c, 0, 67, 108
1, 121975, Control_c, 0, 67, 105
1, 121990, Control_c, 0, 67, 101
1, 122004, Control_c, 0, 67, 97
1, 122014, Note_off_c, 0, 41, 40
1, 122019, Control_c, 0, 67, 92
1, 122030, Note_off_c, 0, 29, 40
1, 122034, Control_c, 0, 67, 88
1, 122049, Control_c, 0, 67, 84
1, 122053, Note_off_c, 0, 36, 55
1, 122064, Control_c, 0, 67, 82
1, 122078, Control_c, 0, 67, 81
1, 122137, Control_c, 0, 67, 81
1, 122167, Control_c, 0, 67, 82
1, 122196, Control_c, 0, 67, 82
1, 122211, Control_c, 0, 67, 83
1, 122241, Note_off_c, 0, 48, 54
1, 122256, Control_c, 0, 67, 83
1, 122260, Note_off_c, 0, 53, 43
1, 122265, Note_off_c, 0, 60, 64
1, 122315, Control_c, 0, 67, 84
1, 122397, Control_c, 0, 67, 84
1, 122471, Control_c, 0, 67, 85
1, 122506, Note_on_c, 0, 41, 43
1, 122540, Note_off_c, 0, 41, 50
1, 122560, Control_c, 0, 67, 85
1, 122635, Control_c, 0, 64, 84
1, 122649, Control_c, 0, 64, 83
1, 122658, Note_on_c, 0, 41, 33
1, 122664, Control_c, 0, 64, 79
1, 122670, Note_on_c, 0, 49, 41
1, 122672, Note_on_c, 0, 58, 45
1, 122674, Note_on_c, 0, 53, 38
1, 122677, Note_on_c, 0, 61, 37
1, 122679, Control_c, 0, 64, 73
1, 122687, Note_on_c, 0, 29, 44
1, 122688, Note_off_c, 0, 57, 34
1, 122694, Control_c, 0, 64, 66
1, 122709, Control_c, 0, 64, 57
1, 122724, Control_c, 0, 64, 43
1, 122738, Control_c, 0, 64, 27
1, 122753, Control_c, 0, 64, 22
1, 122768, Control_c, 0, 64, 21
1, 122812, Control_c, 0, 64, 21
1, 122857, Control_c, 0, 67, 85
1, 122916, Control_c, 0, 64, 21
1, 122916, Control_c, 0, 67, 84
1, 122960, Control_c, 0, 67, 84
1, 122975, Control_c, 0, 64, 22
1, 123005, Control_c, 0, 67, 83
1, 123019, Control_c, 0, 64, 23
1, 123019, Control_c, 0, 67, 83
1, 123034, Control_c, 0, 67, 82
1, 123049, Control_c, 0, 64, 23
1, 123101, Control_c, 0, 64, 24
1, 123145, Control_c, 0, 67, 82
1, 123278, Control_c, 0, 64, 24
1, 123293, Control_c, 0, 64, 25
1, 123293, Control_c, 0, 67, 82
1, 123308, Control_c, 0, 64, 26
1, 123323, Control_c, 0, 64, 27
1, 123338, Control_c, 0, 64, 28
1, 123338, Control_c, 0, 67, 83
1, 123353, Control_c, 0, 64, 29
1, 123368, Control_c, 0, 64, 31
1, 123370, Note_on_c, 0, 37, 44
1, 123383, Control_c, 0, 64, 33
1, 123398, Control_c, 0, 64, 35
1, 123398, Control_c, 0, 67, 83
1, 123414, Control_c, 0, 64, 38
1, 123429, Control_c, 0, 64, 41
1, 123439, Note_off_c, 0, 29, 39
1, 123443, Control_c, 0, 64, 43
1, 123454, Note_off_c, 0, 41, 33
1, 123458, Control_c, 0, 64, 45
1, 123473, Control_c, 0, 64, 49
1, 123488, Control_c, 0, 64, 53
1, 123488, Control_c, 0, 67, 84
1, 123503, Control_c, 0, 64, 56
1, 123517, Control_c, 0, 64, 58
1, 123532, Control_c, 0, 64, 61
1, 123547, Control_c, 0, 64, 65
1, 123562, Control_c, 0, 64, 69
1, 123577, Control_c, 0, 64, 73
1, 123591, Control_c, 0, 64, 77
1, 123606, Control_c, 0, 64, 79
1, 123609, Note_off_c, 0, 37, 63
1, 123621, Control_c, 0, 64, 81
1, 123636, Control_c, 0, 64, 82
1, 123639, Note_off_c, 0, 49, 57
1, 123645, Note_off_c, 0, 61, 39
1, 123651, Control_c, 0, 64, 82
1, 123651, Control_c, 0, 67, 84
1, 123663, Note_off_c, 0, 53, 47
1, 123666, Control_c, 0, 64, 83
1, 123769, Control_c, 0, 67, 85
1, 123895, Control_c, 0, 67, 84
1, 123979, Note_on_c, 0, 41, 46
1, 124008, Note_off_c, 0, 41, 53
1, 124073, Control_c, 0, 64, 82
1, 124088, Control_c, 0, 64, 80
1, 124102, Control_c, 0, 64, 77
1, 124113, Note_on_c, 0, 41, 31
1, 124117, Control_c, 0, 64, 70
1, 124127, Note_on_c, 0, 57, 40
1, 124132, Control_c, 0, 64, 62
1, 124134, Note_on_c, 0, 53, 35
1, 124134, Note_on_c, 0, 60, 44
1, 124141, Note_off_c, 0, 58, 31
1, 124145, Note_on_c, 0, 29, 40
1, 124147, Control_c, 0, 64, 47
1, 124148, Note_on_c, 0, 48, 36
1, 124162, Control_c, 0, 64, 0
1, 124192, Control_c, 0, 67, 85
1, 124763, Control_c, 0, 67, 84
1, 124887, Note_on_c, 0, 36, 32
1, 124896, Control_c, 0, 64, 9
1, 124910, Control_c, 0, 64, 24
1, 124924, Control_c, 0, 64, 33
1, 124936, Note_off_c, 0, 41, 39
1, 124939, Control_c, 0, 64, 39
1, 124939, Control_c, 0, 67, 84
1, 124949, Note_off_c, 0, 29, 41
1, 124954, Control_c, 0, 64, 44
1, 124970, Control_c, 0, 64, 49
1, 124985, Control_c, 0, 64, 52
1, 125000, Control_c, 0, 64, 54
1, 125014, Control_c, 0, 64, 57
1, 125029, Control_c, 0, 64, 60
1, 125044, Control_c, 0, 64, 63
1, 125059, Control_c, 0, 64, 65
1, 125074, Control_c, 0, 64, 68
1, 125088, Control_c, 0, 64, 72
1, 125103, Control_c, 0, 64, 76
1, 125118, Control_c, 0, 64, 80
1, 125133, Control_c, 0, 64, 82
1, 125142, Note_off_c, 0, 36, 55
1, 125147, Control_c, 0, 64, 84
1, 125162, Control_c, 0, 64, 85
1, 125177, Control_c, 0, 64, 86
1, 125192, Control_c, 0, 64, 87
1, 125210, Note_off_c, 0, 48, 39
1, 125221, Note_off_c, 0, 60, 63
1, 125222, Control_c, 0, 64, 87
1, 125236, Note_off_c, 0, 53, 46
1, 125281, Control_c, 0, 67, 84
1, 125503, Note_on_c, 0, 41, 28
1, 125539, Note_off_c, 0, 41, 47
1, 125673, Control_c, 0, 64, 86
1, 125688, Control_c, 0, 64, 84
1, 125688, Control_c, 0, 67, 85
1, 125703, Control_c, 0, 64, 80
1, 125705, Note_on_c, 0, 41, 13
1, 125711, Note_on_c, 0, 29, 35
1, 125718, Control_c, 0, 64, 73
1, 125724, Note_on_c, 0, 58, 36
1, 125726, Note_on_c, 0, 49, 24
1, 125727, Note_off_c, 0, 57, 42
1, 125733, Control_c, 0, 64, 64
1, 125733, Control_c, 0, 67, 85
1, 125735, Note_on_c, 0, 61, 30
1, 125747, Control_c, 0, 64, 51
1, 125750, Note_on_c, 0, 53, 19
1, 125763, Control_c, 0, 64, 21
1, 125763, Control_c, 0, 67, 86
1, 125778, Control_c, 0, 64, 0
1, 125793, Control_c, 0, 67, 86
1, 125837, Control_c, 0, 67, 87
1, 125900, Note_off_c, 0, 53, 0
1, 125937, Poly_aftertouch_c, 0, 53, 127
1, 126596, Note_on_c, 0, 37, 20
1, 126655, Note_off_c, 0, 41, 35
1, 126719, Note_off_c, 0, 29, 36
1, 126780, Control_c, 0, 64, 10
1, 126794, Control_c, 0, 64, 23
1, 126809, Control_c, 0, 64, 34
1, 126809, Control_c, 0, 67, 86
1, 126824, Control_c, 0, 64, 42
1, 126847, Control_c, 0, 64, 49
1, 126862, Control_c, 0, 64, 53
1, 126876, Control_c, 0, 64, 57
1, 126891, Control_c, 0, 64, 60
1, 126906, Control_c, 0, 64, 63
1, 126920, Control_c, 0, 64, 65
1, 126935, Control_c, 0, 64, 68
1, 126950, Control_c, 0, 64, 71
1, 126965, Control_c, 0, 64, 74
1, 126980, Control_c, 0, 64, 76
1, 126994, Control_c, 0, 64, 77
1, 127009, Control_c, 0, 64, 78
1, 127024, Control_c, 0, 64, 79
1, 127039, Control_c, 0, 64, 80
1, 127054, Control_c, 0, 64, 80
1, 127064, Note_off_c, 0, 37, 38
1, 127068, Control_c, 0, 64, 81
1, 127068, Control_c, 0, 67, 87
1, 127083, Control_c, 0, 64, 82
1, 127098, Control_c, 0, 64, 82
1, 127112, Control_c, 0, 64, 83
1, 127127, Control_c, 0, 64, 83
1, 127142, Control_c, 0, 64, 84
1, 127157, Control_c, 0, 64, 85
1, 127157, Control_c, 0, 67, 87
1, 127172, Control_c, 0, 64, 85
1, 127186, Control_c, 0, 64, 86
1, 127201, Control_c, 0, 64, 86
1, 127231, Control_c, 0, 64, 87
1, 127231, Control_c, 0, 67, 88
1, 127276, Control_c, 0, 64, 87
1, 127529, Control_c, 0, 67, 87
1, 127534, Note_on_c, 0, 41, 23
1, 127684, Control_c, 0, 64, 88
1, 127699, Control_c, 0, 64, 89
1, 127714, Control_c, 0, 64, 90
1, 127729, Control_c, 0, 64, 91
1, 127743, Control_c, 0, 64, 92
1, 127758, Control_c, 0, 64, 93
1, 127773, Control_c, 0, 64, 95
1, 127773, Control_c, 0, 67, 87
1, 127788, Control_c, 0, 64, 95
1, 127803, Control_c, 0, 64, 96
1, 127832, Control_c, 0, 64, 97
1, 127906, Control_c, 0, 67, 86
1, 128146, Note_off_c, 0, 49, 40
1, 128284, Note_on_c, 0, 29, 44
1, 128292, Control_c, 0, 64, 96
1, 128307, Control_c, 0, 64, 96
1, 128322, Control_c, 0, 64, 95
1, 128344, Control_c, 0, 64, 92
1, 128349, Poly_aftertouch_c, 0, 53, 0
1, 128358, Control_c, 0, 64, 87
1, 128373, Control_c, 0, 64, 79
1, 128373, Control_c, 0, 67, 87
1, 128388, Control_c, 0, 64, 69
1, 128403, Control_c, 0, 64, 61
1, 128418, Control_c, 0, 64, 52
1, 128432, Control_c, 0, 64, 54
1, 128447, Control_c, 0, 64, 60
1, 128462, Control_c, 0, 64, 64
1, 128477, Control_c, 0, 64, 69
1, 128481, Note_off_c, 0, 61, 33
1, 128492, Control_c, 0, 64, 75
1, 128507, Control_c, 0, 64, 80
1, 128520, Note_off_c, 0, 29, 56
1, 128522, Control_c, 0, 64, 84
1, 128537, Control_c, 0, 64, 86
1, 128552, Control_c, 0, 64, 89
1, 128561, Note_off_c, 0, 41, 38
1, 128566, Control_c, 0, 64, 92
1, 128581, Control_c, 0, 64, 93
1, 128596, Control_c, 0, 64, 93
1, 128626, Control_c, 0, 64, 94
1, 128773, Control_c, 0, 67, 87
1, 128775, Note_off_c, 0, 58, 29
1, 128918, Note_on_c, 0, 41, 37
1, 128936, Control_c, 0, 67, 87
1, 129342, Note_on_c, 0, 48, 49
1, 129672, Note_on_c, 0, 53, 55
1, 129978, Note_on_c, 0, 55, 59
1, 130041, Note_off_c, 0, 53, 36
1, 130078, Control_c, 0, 64, 93
1, 130093, Control_c, 0, 64, 93
1, 130108, Control_c, 0, 64, 92
1, 130138, Control_c, 0, 64, 92
1, 130167, Control_c, 0, 64, 91
1, 130182, Control_c, 0, 64, 90
1, 130196, Note_on_c, 0, 58, 57
1, 130197, Control_c, 0, 64, 90
1, 130211, Control_c, 0, 64, 89
1, 130218, Note_off_c, 0, 55, 56
1, 130226, Control_c, 0, 64, 89
1, 130241, Control_c, 0, 64, 88
1, 130255, Control_c, 0, 64, 88
1, 130270, Control_c, 0, 64, 87
1, 130285, Control_c, 0, 64, 86
1, 130300, Control_c, 0, 64, 86
1, 130315, Control_c, 0, 64, 85
1, 130329, Control_c, 0, 64, 85
1, 130344, Control_c, 0, 64, 84
1, 130359, Control_c, 0, 64, 83
1, 130359, Control_c, 0, 67, 87
1, 130374, Control_c, 0, 64, 83
1, 130389, Control_c, 0, 64, 82
1, 130391, Note_on_c, 0, 56, 59
1, 130418, Control_c, 0, 64, 82
1, 130433, Control_c, 0, 64, 81
1, 130448, Control_c, 0, 64, 81
1, 130477, Control_c, 0, 64, 80
1, 130492, Control_c, 0, 64, 80
1, 130507, Control_c, 0, 64, 79
1, 130537, Control_c, 0, 64, 79
1, 130552, Control_c, 0, 64, 78
1, 130567, Note_on_c, 0, 55, 63
1, 130567, Control_c, 0, 64, 78
1, 130567, Control_c, 0, 67, 88
1, 130590, Control_c, 0, 64, 77
1, 130591, Note_off_c, 0, 58, 33
1, 130605, Control_c, 0, 64, 77
1, 130620, Control_c, 0, 64, 76
1, 130634, Control_c, 0, 64, 76
1, 130649, Control_c, 0, 64, 75
1, 130664, Control_c, 0, 64, 74
1, 130678, Control_c, 0, 64, 73
1, 130680, Note_off_c, 0, 56, 37
1, 130693, Control_c, 0, 64, 72
1, 130708, Control_c, 0, 64, 71
1, 130723, Control_c, 0, 64, 69
1, 130738, Control_c, 0, 64, 68
1, 130753, Control_c, 0, 64, 67
1, 130754, Note_off_c, 0, 55, 62
1, 130767, Control_c, 0, 64, 66
1, 130775, Note_on_c, 0, 53, 59
1, 130782, Control_c, 0, 64, 66
1, 130812, Control_c, 0, 64, 65
1, 130841, Control_c, 0, 64, 65
1, 130871, Control_c, 0, 64, 64
1, 130901, Control_c, 0, 67, 87
1, 130916, Control_c, 0, 64, 64
1, 130945, Control_c, 0, 64, 63
1, 130960, Control_c, 0, 64, 62
1, 130975, Control_c, 0, 64, 61
1, 130975, Note_on_c, 0, 56, 55
1, 130990, Control_c, 0, 64, 59
1, 131005, Control_c, 0, 64, 57
1, 131020, Control_c, 0, 64, 56
1, 131034, Control_c, 0, 64, 55
1, 131049, Control_c, 0, 64, 54
1, 131064, Control_c, 0, 64, 53
1, 131078, Control_c, 0, 64, 52
1, 131093, Control_c, 0, 64, 52
1, 131108, Control_c, 0, 64, 51
1, 131123, Control_c, 0, 64, 50
1, 131138, Control_c, 0, 64, 49
1, 131152, Control_c, 0, 64, 48
1, 131167, Control_c, 0, 64, 47
1, 131182, Control_c, 0, 64, 46
1, 131197, Control_c, 0, 64, 45
1, 131207, Note_on_c, 0, 58, 54
1, 131212, Control_c, 0, 64, 44
1, 131226, Control_c, 0, 64, 43
1, 131241, Control_c, 0, 64, 42
1, 131241, Control_c, 0, 67, 87
1, 131256, Control_c, 0, 64, 41
1, 131271, Control_c, 0, 64, 40
1, 131285, Control_c, 0, 64, 39
1, 131300, Control_c, 0, 64, 38
1, 131315, Control_c, 0, 64, 37
1, 131315, Control_c, 0, 67, 86
1, 131338, Control_c, 0, 64, 36
1, 131353, Control_c, 0, 64, 36
1, 131369, Control_c, 0, 64, 35
1, 131369, Control_c, 0, 67, 86
1, 131383, Control_c, 0, 64, 34
1, 131383, Control_c, 0, 67, 85
1, 131398, Control_c, 0, 64, 33
1, 131398, Control_c, 0, 67, 85
1, 131413, Control_c, 0, 64, 33
1, 131428, Control_c, 0, 64, 32
1, 131428, Control_c, 0, 67, 84
1, 131443, Control_c, 0, 64, 31
1, 131457, Control_c, 0, 67, 84
1, 131472, Control_c, 0, 64, 31
1, 131487, Control_c, 0, 64, 30
1, 131494, Note_off_c, 0, 58, 62
1, 131495, Note_on_c, 0, 61, 53
1, 131502, Control_c, 0, 64, 30
1, 131531, Control_c, 0, 64, 29
1, 131590, Control_c, 0, 64, 29
1, 131620, Control_c, 0, 64, 28
1, 131679, Control_c, 0, 64, 28
1, 131708, Control_c, 0, 67, 84
1, 131723, Control_c, 0, 64, 27
1, 131768, Control_c, 0, 64, 27
1, 131827, Control_c, 0, 64, 26
1, 131871, Control_c, 0, 64, 26
1, 131880, Note_on_c, 0, 60, 43
1, 131900, Control_c, 0, 64, 25
1, 131930, Note_off_c, 0, 61, 34
1, 131945, Control_c, 0, 64, 25
1, 131974, Control_c, 0, 64, 24
1, 132004, Control_c, 0, 64, 24
1, 132100, Control_c, 0, 64, 23
1, 132220, Control_c, 0, 64, 24
1, 132235, Control_c, 0, 64, 25
1, 132250, Control_c, 0, 64, 29
1, 132265, Control_c, 0, 64, 34
1, 132265, Control_c, 0, 67, 84
1, 132279, Control_c, 0, 64, 39
1, 132294, Control_c, 0, 64, 45
1, 132309, Control_c, 0, 64, 51
1, 132324, Control_c, 0, 64, 55
1, 132324, Control_c, 0, 67, 83
1, 132338, Control_c, 0, 64, 57
1, 132353, Control_c, 0, 64, 60
1, 132368, Control_c, 0, 64, 62
1, 132383, Control_c, 0, 64, 64
1, 132398, Control_c, 0, 64, 66
1, 132412, Control_c, 0, 64, 68
1, 132427, Control_c, 0, 64, 70
1, 132442, Control_c, 0, 64, 72
1, 132442, Control_c, 0, 67, 83
1, 132457, Control_c, 0, 64, 74
1, 132472, Control_c, 0, 64, 76
1, 132486, Control_c, 0, 64, 77
1, 132501, Control_c, 0, 64, 78
1, 132516, Control_c, 0, 64, 80
1, 132531, Control_c, 0, 64, 81
1, 132531, Control_c, 0, 67, 82
1, 132546, Control_c, 0, 64, 82
1, 132561, Control_c, 0, 64, 83
1, 132576, Control_c, 0, 64, 85
1, 132576, Control_c, 0, 67, 82
1, 132591, Control_c, 0, 64, 86
1, 132605, Control_c, 0, 64, 87
1, 132620, Control_c, 0, 64, 88
1, 132635, Control_c, 0, 64, 89
1, 132649, Control_c, 0, 64, 90
1, 132649, Control_c, 0, 67, 81
1, 132664, Control_c, 0, 64, 91
1, 132679, Control_c, 0, 64, 92
1, 132694, Control_c, 0, 64, 93
1, 132709, Control_c, 0, 64, 94
1, 132709, Control_c, 0, 67, 81
1, 132723, Control_c, 0, 64, 94
1, 132738, Control_c, 0, 64, 95
1, 132753, Control_c, 0, 64, 95
1, 132768, Control_c, 0, 64, 96
1, 132797, Control_c, 0, 64, 97
1, 132797, Control_c, 0, 67, 80
1, 132832, Note_off_c, 0, 41, 36
1, 132835, Control_c, 0, 64, 97
1, 132841, Note_off_c, 0, 48, 39
1, 132938, Control_c, 0, 67, 80
1, 132954, Control_c, 0, 67, 79
1, 132969, Control_c, 0, 67, 79
1, 132984, Control_c, 0, 67, 76
1, 132999, Control_c, 0, 67, 70
1, 133014, Control_c, 0, 67, 64
1, 133028, Control_c, 0, 67, 58
1, 133043, Control_c, 0, 67, 53
1, 133058, Control_c, 0, 67, 50
1, 133072, Control_c, 0, 67, 48
1, 133280, Control_c, 0, 67, 48
1, 133384, Control_c, 0, 67, 49
1, 133488, Control_c, 0, 67, 49
1, 133562, Control_c, 0, 64, 97
1, 133614, Control_c, 0, 64, 96
1, 133703, Control_c, 0, 64, 95
1, 133718, Control_c, 0, 64, 90
1, 133732, Control_c, 0, 64, 82
1, 133748, Note_on_c, 0, 32, 50
1, 133748, Control_c, 0, 64, 72
1, 133763, Control_c, 0, 64, 63
1, 133767, Note_off_c, 0, 56, 43
1, 133777, Control_c, 0, 64, 58
1, 133782, Note_off_c, 0, 53, 43
1, 133792, Control_c, 0, 64, 62
1, 133807, Control_c, 0, 64, 66
1, 133816, Note_off_c, 0, 32, 60
1, 133822, Control_c, 0, 64, 71
1, 133837, Control_c, 0, 64, 77
1, 133852, Control_c, 0, 64, 83
1, 133867, Control_c, 0, 64, 87
1, 133882, Control_c, 0, 64, 92
1, 133896, Control_c, 0, 64, 95
1, 133911, Control_c, 0, 64, 99
1, 133926, Control_c, 0, 64, 100
1, 133970, Control_c, 0, 64, 101
1, 134128, Note_off_c, 0, 60, 43
1, 134163, Control_c, 0, 64, 100
1, 134171, Note_on_c, 0, 44, 56
1, 134207, Control_c, 0, 64, 99
1, 134221, Control_c, 0, 64, 99
1, 134236, Control_c, 0, 64, 98
1, 134251, Control_c, 0, 64, 97
1, 134266, Control_c, 0, 64, 97
1, 134281, Control_c, 0, 64, 96
1, 134296, Control_c, 0, 64, 95
1, 134333, Control_c, 0, 64, 95
1, 134363, Control_c, 0, 64, 94
1, 134392, Control_c, 0, 64, 94
1, 134422, Control_c, 0, 64, 93
1, 134436, Control_c, 0, 64, 93
1, 134465, Note_on_c, 0, 51, 61
1, 134466, Control_c, 0, 64, 92
1, 134481, Control_c, 0, 64, 92
1, 134496, Control_c, 0, 64, 91
1, 134511, Control_c, 0, 64, 91
1, 134525, Control_c, 0, 64, 90
1, 134540, Control_c, 0, 64, 89
1, 134556, Control_c, 0, 64, 88
1, 134571, Control_c, 0, 64, 87
1, 134586, Control_c, 0, 64, 86
1, 134600, Control_c, 0, 64, 85
1, 134615, Control_c, 0, 64, 84
1, 134630, Control_c, 0, 64, 84
1, 134630, Control_c, 0, 67, 50
1, 134645, Control_c, 0, 64, 83
1, 134674, Control_c, 0, 64, 83
1, 134694, Note_on_c, 0, 56, 61
1, 134719, Control_c, 0, 64, 82
1, 134734, Control_c, 0, 67, 50
1, 134764, Control_c, 0, 64, 82
1, 134808, Control_c, 0, 64, 81
1, 134838, Control_c, 0, 64, 81
1, 134867, Control_c, 0, 64, 80
1, 134882, Control_c, 0, 64, 80
1, 134900, Note_on_c, 0, 58, 70
1, 134912, Control_c, 0, 64, 79
1, 134956, Control_c, 0, 64, 79
1, 134986, Control_c, 0, 64, 78
1, 135000, Control_c, 0, 64, 78
1, 135015, Control_c, 0, 64, 77
1, 135030, Control_c, 0, 64, 76
1, 135044, Control_c, 0, 64, 76
1, 135054, Note_on_c, 0, 61, 71
1, 135059, Control_c, 0, 64, 75
1, 135082, Control_c, 0, 64, 75
1, 135082, Control_c, 0, 67, 50
1, 135097, Control_c, 0, 64, 74
1, 135116, Note_off_c, 0, 58, 47
1, 135141, Control_c, 0, 64, 74
1, 135203, Note_on_c, 0, 60, 68
1, 135215, Control_c, 0, 64, 73
1, 135304, Control_c, 0, 64, 73
1, 135322, Note_off_c, 0, 56, 54
1, 135348, Note_on_c, 0, 58, 68
1, 135349, Control_c, 0, 64, 72
1, 135379, Control_c, 0, 64, 72
1, 135388, Note_off_c, 0, 61, 37
1, 135393, Control_c, 0, 64, 71
1, 135423, Control_c, 0, 64, 71
1, 135427, Note_off_c, 0, 60, 62
1, 135452, Control_c, 0, 64, 70
1, 135467, Control_c, 0, 64, 69
1, 135472, Note_off_c, 0, 58, 65
1, 135482, Control_c, 0, 64, 68
1, 135491, Note_on_c, 0, 56, 67
1, 135497, Control_c, 0, 64, 67
1, 135512, Control_c, 0, 64, 66
1, 135527, Control_c, 0, 64, 65
1, 135541, Control_c, 0, 64, 64
1, 135556, Control_c, 0, 64, 63
1, 135571, Control_c, 0, 64, 62
1, 135586, Control_c, 0, 64, 61
1, 135601, Control_c, 0, 64, 60
1, 135615, Control_c, 0, 64, 59
1, 135630, Control_c, 0, 64, 58
1, 135640, Note_on_c, 0, 60, 66
1, 135645, Control_c, 0, 64, 57
1, 135660, Control_c, 0, 64, 55
1, 135674, Control_c, 0, 64, 53
1, 135689, Control_c, 0, 64, 51
1, 135704, Control_c, 0, 64, 49
1, 135719, Control_c, 0, 64, 47
1, 135734, Control_c, 0, 64, 45
1, 135748, Control_c, 0, 64, 42
1, 135763, Control_c, 0, 64, 39
1, 135778, Control_c, 0, 64, 36
1, 135787, Note_on_c, 0, 61, 67
1, 135793, Control_c, 0, 64, 32
1, 135808, Control_c, 0, 64, 27
1, 135830, Control_c, 0, 64, 19
1, 135845, Control_c, 0, 64, 9
1, 135860, Control_c, 0, 64, 0
1, 135964, Note_off_c, 0, 61, 63
1, 135969, Note_on_c, 0, 65, 68
1, 136232, Control_c, 0, 67, 49
1, 136261, Note_on_c, 0, 63, 58
1, 136261, Control_c, 0, 67, 49
1, 136276, Control_c, 0, 67, 48
1, 136305, Control_c, 0, 67, 48
1, 136332, Note_off_c, 0, 65, 51
1, 136350, Control_c, 0, 67, 47
1, 136454, Control_c, 0, 67, 47
1, 136624, Control_c, 0, 67, 46
1, 136698, Control_c, 0, 67, 45
1, 136713, Control_c, 0, 67, 43
1, 136728, Control_c, 0, 67, 41
1, 136743, Control_c, 0, 67, 39
1, 136758, Control_c, 0, 67, 38
1, 136772, Control_c, 0, 67, 37
1, 136787, Control_c, 0, 64, 28
1, 136787, Control_c, 0, 67, 36
1, 136802, Control_c, 0, 64, 41
1, 136802, Control_c, 0, 67, 36
1, 136816, Control_c, 0, 64, 50
1, 136816, Control_c, 0, 67, 35
1, 136831, Control_c, 0, 64, 56
1, 136831, Control_c, 0, 67, 35
1, 136846, Control_c, 0, 64, 61
1, 136846, Control_c, 0, 67, 34
1, 136861, Control_c, 0, 64, 63
1, 136861, Control_c, 0, 67, 34
1, 136876, Control_c, 0, 64, 66
1, 136891, Control_c, 0, 64, 69
1, 136891, Control_c, 0, 67, 33
1, 136905, Control_c, 0, 64, 73
1, 136920, Control_c, 0, 64, 78
1, 136920, Control_c, 0, 67, 33
1, 136935, Control_c, 0, 64, 81
1, 136944, Note_off_c, 0, 51, 57
1, 136951, Control_c, 0, 64, 85
1, 136959, Note_off_c, 0, 44, 37
1, 136966, Control_c, 0, 64, 88
1, 136981, Control_c, 0, 64, 92
1, 136995, Control_c, 0, 64, 94
1, 137010, Control_c, 0, 64, 96
1, 137025, Control_c, 0, 64, 99
1, 137040, Control_c, 0, 64, 101
1, 137050, Note_off_c, 0, 60, 56
1, 137054, Control_c, 0, 64, 103
1, 137069, Control_c, 0, 64, 104
1, 137084, Control_c, 0, 64, 106
1, 137099, Control_c, 0, 64, 107
1, 137113, Control_c, 0, 64, 108
1, 137128, Control_c, 0, 64, 108
1, 137173, Control_c, 0, 64, 109
1, 137188, Note_off_c, 0, 56, 26
1, 137402, Control_c, 0, 64, 108
1, 137595, Control_c, 0, 64, 108
1, 137699, Control_c, 0, 64, 107
1, 137713, Control_c, 0, 64, 104
1, 137728, Control_c, 0, 64, 96
1, 137744, Control_c, 0, 64, 83
1, 137759, Control_c, 0, 64, 69
1, 137762, Note_on_c, 0, 36, 45
1, 137774, Control_c, 0, 64, 53
1, 137789, Control_c, 0, 64, 44
1, 137799, Note_off_c, 0, 63, 41
1, 137804, Control_c, 0, 64, 57
1, 137818, Control_c, 0, 64, 63
1, 137828, Note_off_c, 0, 36, 60
1, 137833, Control_c, 0, 64, 69
1, 137848, Control_c, 0, 64, 77
1, 137863, Control_c, 0, 64, 87
1, 137877, Control_c, 0, 64, 94
1, 137892, Control_c, 0, 64, 98
1, 137907, Control_c, 0, 64, 101
1, 137922, Control_c, 0, 64, 102
1, 137937, Control_c, 0, 64, 103
1, 137951, Control_c, 0, 64, 103
1, 137966, Control_c, 0, 64, 104
1, 138092, Control_c, 0, 67, 32
1, 138096, Note_on_c, 0, 48, 45
1, 138166, Control_c, 0, 67, 32
1, 138211, Control_c, 0, 67, 30
1, 138225, Control_c, 0, 67, 28
1, 138240, Control_c, 0, 67, 26
1, 138255, Control_c, 0, 67, 23
1, 138269, Control_c, 0, 67, 21
1, 138284, Control_c, 0, 67, 20
1, 138299, Control_c, 0, 67, 19
1, 138312, Note_on_c, 0, 55, 46
1, 138314, Control_c, 0, 67, 18
1, 138329, Control_c, 0, 67, 17
1, 138344, Control_c, 0, 67, 17
1, 138359, Control_c, 0, 67, 16
1, 138388, Control_c, 0, 67, 16
1, 138418, Control_c, 0, 67, 15
1, 138448, Control_c, 0, 67, 15
1, 138492, Note_on_c, 0, 60, 45
1, 138507, Control_c, 0, 67, 14
1, 138567, Control_c, 0, 67, 14
1, 138597, Control_c, 0, 67, 13
1, 138627, Control_c, 0, 67, 13
1, 138641, Control_c, 0, 67, 12
1, 138642, Note_on_c, 0, 62, 53
1, 138656, Note_off_c, 0, 60, 37
1, 138656, Control_c, 0, 67, 11
1, 138671, Control_c, 0, 67, 10
1, 138685, Control_c, 0, 67, 9
1, 138700, Control_c, 0, 67, 8
1, 138715, Control_c, 0, 67, 0
1, 138767, Note_off_c, 0, 62, 35
1, 138776, Note_on_c, 0, 65, 59
1, 138860, Note_off_c, 0, 55, 57
1, 138892, Note_off_c, 0, 65, 55
1, 138897, Note_on_c, 0, 63, 60
1, 139010, Note_on_c, 0, 62, 56
1, 139024, Note_off_c, 0, 63, 54
1, 139062, Note_off_c, 0, 62, 60
1, 139101, Note_on_c, 0, 60, 58
1, 139120, Note_off_c, 0, 48, 64
1, 139205, Note_on_c, 0, 63, 53
1, 139283, Note_off_c, 0, 63, 60
1, 139298, Note_on_c, 0, 65, 56
1, 139370, Note_off_c, 0, 65, 58
1, 139406, Note_on_c, 0, 68, 54
1, 139509, Control_c, 0, 64, 103
1, 139521, Note_off_c, 0, 68, 59
1, 139524, Control_c, 0, 64, 103
1, 139531, Note_on_c, 0, 39, 43
1, 139539, Control_c, 0, 64, 97
1, 139553, Note_on_c, 0, 67, 56
1, 139554, Control_c, 0, 64, 87
1, 139576, Control_c, 0, 64, 76
1, 139591, Control_c, 0, 64, 64
1, 139605, Control_c, 0, 64, 35
1, 139620, Control_c, 0, 64, 21
1, 139622, Note_off_c, 0, 60, 33
1, 139635, Control_c, 0, 64, 44
1, 139650, Control_c, 0, 64, 60
1, 139664, Control_c, 0, 64, 68
1, 139679, Control_c, 0, 64, 77
1, 139687, Note_off_c, 0, 39, 59
1, 139694, Control_c, 0, 64, 87
1, 139699, Note_off_c, 0, 67, 63
1, 139709, Control_c, 0, 64, 95
1, 139723, Note_on_c, 0, 51, 47
1, 139724, Control_c, 0, 64, 98
1, 139739, Control_c, 0, 64, 101
1, 139754, Control_c, 0, 64, 103
1, 139769, Control_c, 0, 64, 104
1, 139784, Control_c, 0, 64, 105
1, 139794, Note_off_c, 0, 51, 56
1, 139798, Control_c, 0, 64, 106
1, 139813, Control_c, 0, 64, 107
1, 139834, Note_on_c, 0, 58, 58
1, 139842, Control_c, 0, 64, 108
1, 139857, Control_c, 0, 64, 108
1, 139860, Note_off_c, 0, 58, 65
1, 139872, Control_c, 0, 64, 109
1, 139886, Control_c, 0, 64, 110
1, 139901, Control_c, 0, 64, 112
1, 139915, Note_on_c, 0, 63, 59
1, 140007, Note_off_c, 0, 63, 51
1, 140009, Note_on_c, 0, 65, 59
1, 140078, Note_off_c, 0, 65, 58
1, 140080, Note_on_c, 0, 68, 69
1, 140174, Note_on_c, 0, 67, 67
1, 140213, Note_off_c, 0, 68, 57
1, 140247, Note_on_c, 0, 65, 69
1, 140265, Note_off_c, 0, 67, 60
1, 140282, Note_off_c, 0, 65, 63
1, 140340, Note_on_c, 0, 63, 67
1, 140407, Note_on_c, 0, 67, 70
1, 140409, Note_off_c, 0, 63, 59
1, 140477, Note_off_c, 0, 67, 62
1, 140500, Note_on_c, 0, 68, 61
1, 140559, Note_off_c, 0, 68, 65
1, 140570, Note_on_c, 0, 72, 69
1, 140576, Control_c, 0, 64, 106
1, 140591, Control_c, 0, 64, 93
1, 140606, Control_c, 0, 64, 78
1, 140620, Control_c, 0, 64, 63
1, 140635, Control_c, 0, 64, 36
1, 140638, Note_on_c, 0, 43, 57
1, 140640, Note_on_c, 0, 70, 80
1, 140650, Control_c, 0, 64, 40
1, 140664, Note_off_c, 0, 72, 63
1, 140664, Control_c, 0, 64, 58
1, 140679, Control_c, 0, 64, 67
1, 140694, Control_c, 0, 64, 78
1, 140696, Note_off_c, 0, 70, 66
1, 140706, Note_off_c, 0, 43, 63
1, 140709, Control_c, 0, 64, 94
1, 140724, Control_c, 0, 64, 113
1, 140735, Note_on_c, 0, 55, 65
1, 140738, Control_c, 0, 64, 127
1, 140793, Note_off_c, 0, 55, 58
1, 140802, Note_on_c, 0, 62, 76
1, 140827, Note_off_c, 0, 62, 68
1, 140887, Note_on_c, 0, 67, 84
1, 140953, Note_on_c, 0, 69, 78
1, 140961, Note_off_c, 0, 67, 59
1, 141015, Note_off_c, 0, 69, 66
1, 141023, Note_on_c, 0, 72, 78
1, 141095, Note_on_c, 0, 70, 80
1, 141132, Note_off_c, 0, 72, 62
1, 141172, Note_on_c, 0, 69, 73
1, 141172, Note_off_c, 0, 70, 65
1, 141216, Note_off_c, 0, 69, 64
1, 141241, Note_on_c, 0, 67, 73
1, 141301, Note_on_c, 0, 70, 74
1, 141370, Note_off_c, 0, 70, 62
1, 141385, Note_on_c, 0, 72, 66
1, 141456, Note_off_c, 0, 72, 62
1, 141470, Note_on_c, 0, 75, 72
1, 141557, Note_on_c, 0, 46, 56
1, 141591, Control_c, 0, 64, 118
1, 141603, Note_on_c, 0, 74, 78
1, 141606, Control_c, 0, 64, 90
1, 141620, Control_c, 0, 64, 72
1, 141634, Note_off_c, 0, 75, 61
1, 141635, Control_c, 0, 64, 57
1, 141650, Control_c, 0, 64, 49
1, 141665, Control_c, 0, 64, 60
1, 141666, Note_off_c, 0, 67, 60
1, 141680, Control_c, 0, 64, 69
1, 141694, Control_c, 0, 64, 85
1, 141708, Note_on_c, 0, 56, 76
1, 141709, Control_c, 0, 64, 110
1, 141711, Note_off_c, 0, 74, 66
1, 141715, Note_off_c, 0, 46, 63
1, 141724, Control_c, 0, 64, 127
1, 141733, Note_off_c, 0, 56, 68
1, 141834, Note_on_c, 0, 65, 78
1, 141858, Note_off_c, 0, 65, 68
1, 141901, Note_on_c, 0, 70, 73
1, 141981, Note_on_c, 0, 72, 75
1, 141982, Note_off_c, 0, 70, 60
1, 142063, Note_on_c, 0, 75, 75
1, 142072, Note_off_c, 0, 72, 61
1, 142149, Note_on_c, 0, 56, 66
1, 142151, Note_on_c, 0, 58, 76
1, 142152, Note_on_c, 0, 62, 72
1, 142157, Note_on_c, 0, 65, 72
1, 142178, Control_c, 0, 64, 103
1, 142192, Note_on_c, 0, 74, 77
1, 142192, Control_c, 0, 64, 84
1, 142207, Control_c, 0, 64, 70
1, 142222, Control_c, 0, 64, 55
1, 142237, Control_c, 0, 64, 44
1, 142252, Control_c, 0, 64, 54
1, 142267, Control_c, 0, 64, 65
1, 142282, Control_c, 0, 64, 75
1, 142288, Note_off_c, 0, 75, 34
1, 142295, Note_off_c, 0, 74, 64
1, 142297, Control_c, 0, 64, 93
1, 142297, Note_on_c, 0, 72, 76
1, 142311, Control_c, 0, 64, 127
1, 142335, Note_off_c, 0, 65, 64
1, 142336, Note_off_c, 0, 72, 61
1, 142350, Note_off_c, 0, 62, 62
1, 142389, Note_on_c, 0, 70, 68
1, 142444, Note_off_c, 0, 70, 62
1, 142450, Note_on_c, 0, 74, 61
1, 142511, Note_off_c, 0, 74, 64
1, 142529, Note_on_c, 0, 75, 63
1, 142540, Note_on_c, 0, 63, 80
1, 142540, Note_on_c, 0, 67, 77
1, 142571, Note_off_c, 0, 67, 69
1, 142573, Note_off_c, 0, 63, 68
1, 142585, Note_off_c, 0, 75, 63
1, 142587, Note_on_c, 0, 79, 71
1, 142595, Note_off_c, 0, 56, 62
1, 142597, Note_off_c, 0, 58, 63
1, 142630, Control_c, 0, 64, 100
1, 142645, Control_c, 0, 64, 71
1, 142647, Note_on_c, 0, 58, 74
1, 142648, Note_on_c, 0, 62, 85
1, 142652, Note_on_c, 0, 65, 89
1, 142654, Note_on_c, 0, 56, 61
1, 142660, Control_c, 0, 64, 0
1, 142665, Note_on_c, 0, 77, 74
1, 142672, Note_off_c, 0, 79, 59
1, 142705, Control_c, 0, 64, 34
1, 142720, Control_c, 0, 64, 62
1, 142735, Control_c, 0, 64, 76
1, 142735, Note_on_c, 0, 74, 59
1, 142749, Control_c, 0, 64, 98
1, 142756, Note_off_c, 0, 77, 62
1, 142764, Control_c, 0, 64, 127
1, 142766, Note_off_c, 0, 74, 65
1, 142802, Note_on_c, 0, 70, 75
1, 142816, Note_off_c, 0, 65, 62
1, 142824, Note_off_c, 0, 62, 63
1, 142862, Note_off_c, 0, 70, 53
1, 142866, Note_on_c, 0, 72, 79
1, 142930, Note_off_c, 0, 72, 62
1, 142943, Note_on_c, 0, 75, 66
1, 142982, Note_on_c, 0, 67, 84
1, 142985, Note_on_c, 0, 63, 80
1, 143006, Note_off_c, 0, 67, 67
1, 143008, Note_off_c, 0, 75, 62
1, 143009, Note_on_c, 0, 79, 77
1, 143015, Note_off_c, 0, 63, 65
1, 143030, Note_off_c, 0, 56, 62
1, 143037, Note_off_c, 0, 58, 64
1, 143073, Control_c, 0, 64, 109
1, 143085, Note_on_c, 0, 62, 99
1, 143087, Note_on_c, 0, 65, 101
1, 143088, Note_on_c, 0, 58, 78
1, 143088, Note_on_c, 0, 77, 84
1, 143088, Control_c, 0, 64, 77
1, 143098, Note_on_c, 0, 56, 76
1, 143103, Note_off_c, 0, 79, 61
1, 143103, Control_c, 0, 64, 19
1, 143118, Control_c, 0, 64, 0
1, 143147, Control_c, 0, 64, 22
1, 143161, Note_on_c, 0, 74, 65
1, 143162, Control_c, 0, 64, 61
1, 143176, Control_c, 0, 64, 73
1, 143185, Note_off_c, 0, 77, 62
1, 143191, Control_c, 0, 64, 93
1, 143206, Note_off_c, 0, 74, 64
1, 143206, Control_c, 0, 64, 127
1, 143227, Note_on_c, 0, 70, 82
1, 143242, Note_off_c, 0, 65, 61
1, 143253, Note_off_c, 0, 70, 64
1, 143256, Note_off_c, 0, 62, 62
1, 143300, Note_on_c, 0, 72, 81
1, 143365, Note_off_c, 0, 72, 62
1, 143383, Note_on_c, 0, 75, 68
1, 143406, Note_on_c, 0, 63, 77
1, 143410, Note_on_c, 0, 67, 70
1, 143438, Note_off_c, 0, 67, 67
1, 143445, Note_on_c, 0, 79, 79
1, 143450, Note_off_c, 0, 75, 62
1, 143458, Note_off_c, 0, 63, 59
1, 143482, Control_c, 0, 64, 109
1, 143496, Control_c, 0, 64, 75
1, 143507, Note_on_c, 0, 62, 86
1, 143509, Note_on_c, 0, 65, 95
1, 143510, Note_on_c, 0, 74, 94
1, 143511, Note_on_c, 0, 77, 88
1, 143511, Control_c, 0, 64, 0
1, 143540, Note_off_c, 0, 79, 65
1, 143555, Note_off_c, 0, 65, 65
1, 143555, Note_off_c, 0, 74, 69
1, 143563, Note_off_c, 0, 56, 64
1, 143567, Note_off_c, 0, 77, 66
1, 143569, Note_off_c, 0, 58, 64
1, 143570, Control_c, 0, 64, 47
1, 143572, Note_off_c, 0, 62, 65
1, 143585, Control_c, 0, 64, 70
1, 143600, Control_c, 0, 64, 92
1, 143614, Control_c, 0, 64, 127
1, 143896, Control_c, 0, 64, 88
1, 143911, Control_c, 0, 64, 61
1, 143926, Control_c, 0, 64, 0
1, 143981, Note_on_c, 0, 70, 82
1, 143981, Note_on_c, 0, 82, 98
1, 143984, Note_on_c, 0, 58, 85
1, 143984, Note_on_c, 0, 94, 97
1, 144002, Note_off_c, 0, 70, 69
1, 144014, Note_off_c, 0, 94, 68
1, 144014, Control_c, 0, 64, 67
1, 144029, Control_c, 0, 64, 89
1, 144032, Note_off_c, 0, 58, 64
1, 144037, Note_off_c, 0, 82, 65
1, 144044, Control_c, 0, 64, 127
1, 144282, Note_on_c, 0, 82, 97
1, 144283, Note_on_c, 0, 70, 98
1, 144284, Note_on_c, 0, 58, 83
1, 144285, Note_on_c, 0, 46, 81
1, 144318, Note_off_c, 0, 58, 63
1, 144321, Note_off_c, 0, 82, 68
1, 144332, Note_off_c, 0, 70, 56
1, 144336, Note_off_c, 0, 46, 64
1, 144407, Poly_aftertouch_c, 0, 49, 0
1, 144622, Note_on_c, 0, 34, 82
1, 144623, Note_on_c, 0, 70, 94
1, 144624, Note_on_c, 0, 46, 88
1, 144625, Note_on_c, 0, 58, 95
1, 145284, Note_off_c, 0, 46, 60
1, 145471, Note_off_c, 0, 34, 55
1, 146009, Control_c, 0, 64, 123
1, 146024, Control_c, 0, 64, 88
1, 146039, Control_c, 0, 64, 66
1, 146046, Note_on_c, 0, 27, 76
1, 146054, Control_c, 0, 64, 0
1, 146083, Control_c, 0, 64, 44
1, 146098, Note_off_c, 0, 27, 63
1, 146098, Control_c, 0, 64, 63
1, 146113, Control_c, 0, 64, 72
1, 146128, Control_c, 0, 64, 87
1, 146143, Control_c, 0, 64, 111
1, 146157, Control_c, 0, 64, 127
1, 146369, Note_off_c, 0, 58, 60
1, 146372, Note_off_c, 0, 70, 60
1, 146407, Note_on_c, 0, 39, 75
1, 146566, Control_c, 0, 64, 125
1, 146580, Control_c, 0, 64, 110
1, 146595, Control_c, 0, 64, 102
1, 146610, Control_c, 0, 64, 97
1, 146625, Control_c, 0, 64, 92
1, 146640, Control_c, 0, 64, 86
1, 146646, Note_on_c, 0, 46, 68
1, 146655, Control_c, 0, 64, 82
1, 146670, Control_c, 0, 64, 80
1, 146685, Control_c, 0, 64, 78
1, 146699, Control_c, 0, 64, 77
1, 146714, Control_c, 0, 64, 76
1, 146729, Control_c, 0, 64, 76
1, 146773, Control_c, 0, 64, 77
1, 146788, Control_c, 0, 64, 78
1, 146803, Control_c, 0, 64, 81
1, 146810, Note_on_c, 0, 51, 77
1, 146818, Control_c, 0, 64, 83
1, 146832, Control_c, 0, 64, 85
1, 146847, Control_c, 0, 64, 86
1, 146862, Control_c, 0, 64, 87
1, 146877, Control_c, 0, 64, 87
1, 146951, Note_on_c, 0, 53, 76
1, 146980, Control_c, 0, 64, 86
1, 146995, Control_c, 0, 64, 85
1, 147010, Control_c, 0, 64, 83
1, 147024, Control_c, 0, 64, 80
1, 147039, Control_c, 0, 64, 78
1, 147062, Control_c, 0, 64, 76
1, 147076, Note_on_c, 0, 56, 79
1, 147077, Control_c, 0, 64, 73
1, 147081, Note_off_c, 0, 53, 66
1, 147092, Control_c, 0, 64, 71
1, 147106, Control_c, 0, 64, 68
1, 147121, Control_c, 0, 64, 66
1, 147136, Control_c, 0, 64, 65
1, 147151, Control_c, 0, 64, 64
1, 147215, Note_on_c, 0, 54, 74
1, 147288, Note_off_c, 0, 51, 55
1, 147322, Note_off_c, 0, 56, 46
1, 147346, Note_on_c, 0, 53, 75
1, 147359, Control_c, 0, 64, 64
1, 147374, Control_c, 0, 64, 63
1, 147389, Control_c, 0, 64, 62
1, 147394, Note_off_c, 0, 54, 57
1, 147403, Control_c, 0, 64, 60
1, 147418, Control_c, 0, 64, 59
1, 147433, Control_c, 0, 64, 57
1, 147448, Control_c, 0, 64, 56
1, 147468, Note_off_c, 0, 53, 66
1, 147476, Note_on_c, 0, 51, 72
1, 147626, Control_c, 0, 64, 55
1, 147640, Note_on_c, 0, 54, 65
1, 147641, Control_c, 0, 64, 55
1, 147670, Control_c, 0, 64, 54
1, 147685, Control_c, 0, 64, 54
1, 147700, Control_c, 0, 64, 53
1, 147715, Control_c, 0, 64, 52
1, 147729, Control_c, 0, 64, 52
1, 147759, Control_c, 0, 64, 51
1, 147773, Control_c, 0, 64, 50
1, 147788, Note_on_c, 0, 56, 66
1, 147788, Control_c, 0, 64, 50
1, 147811, Control_c, 0, 64, 49
1, 147826, Control_c, 0, 64, 48
1, 147841, Control_c, 0, 64, 47
1, 147855, Control_c, 0, 64, 47
1, 147870, Control_c, 0, 64, 45
1, 147885, Control_c, 0, 64, 45
1, 147900, Control_c, 0, 64, 44
1, 147915, Control_c, 0, 64, 43
1, 147929, Control_c, 0, 64, 42
1, 147944, Control_c, 0, 64, 42
1, 147959, Control_c, 0, 64, 41
1, 147974, Control_c, 0, 64, 40
1, 147987, Note_off_c, 0, 56, 63
1, 147988, Control_c, 0, 64, 39
1, 147989, Note_on_c, 0, 59, 67
1, 148003, Control_c, 0, 64, 38
1, 148018, Control_c, 0, 64, 37
1, 148033, Control_c, 0, 64, 35
1, 148048, Control_c, 0, 64, 34
1, 148062, Control_c, 0, 64, 34
1, 148077, Control_c, 0, 64, 33
1, 148092, Control_c, 0, 64, 33
1, 148138, Control_c, 0, 64, 32
1, 148284, Note_on_c, 0, 58, 62
1, 148351, Note_off_c, 0, 59, 54
1, 148589, Control_c, 0, 64, 33
1, 148604, Control_c, 0, 64, 34
1, 148619, Control_c, 0, 64, 35
1, 148634, Control_c, 0, 64, 37
1, 148649, Control_c, 0, 64, 38
1, 148664, Control_c, 0, 64, 40
1, 148679, Control_c, 0, 64, 42
1, 148693, Control_c, 0, 64, 44
1, 148708, Control_c, 0, 64, 46
1, 148723, Control_c, 0, 64, 48
1, 148738, Control_c, 0, 64, 50
1, 148752, Control_c, 0, 64, 52
1, 148767, Control_c, 0, 64, 54
1, 148782, Control_c, 0, 64, 56
1, 148796, Control_c, 0, 64, 58
1, 148811, Control_c, 0, 64, 60
1, 148826, Control_c, 0, 64, 62
1, 148841, Control_c, 0, 64, 63
1, 148856, Control_c, 0, 64, 65
1, 148872, Control_c, 0, 64, 67
1, 148886, Control_c, 0, 64, 69
1, 148901, Control_c, 0, 64, 70
1, 148916, Control_c, 0, 64, 72
1, 148932, Control_c, 0, 64, 74
1, 148947, Control_c, 0, 64, 76
1, 148962, Control_c, 0, 64, 78
1, 148976, Control_c, 0, 64, 80
1, 148991, Control_c, 0, 64, 81
1, 149006, Control_c, 0, 64, 83
1, 149021, Control_c, 0, 64, 84
1, 149035, Control_c, 0, 64, 86
1, 149050, Control_c, 0, 64, 87
1, 149065, Control_c, 0, 64, 88
1, 149080, Control_c, 0, 64, 89
1, 149095, Control_c, 0, 64, 90
1, 149109, Control_c, 0, 64, 91
1, 149114, Note_off_c, 0, 46, 63
1, 149124, Control_c, 0, 64, 92
1, 149139, Control_c, 0, 64, 93
1, 149154, Control_c, 0, 64, 94
1, 149163, Note_off_c, 0, 39, 53
1, 149169, Control_c, 0, 64, 95
1, 149183, Control_c, 0, 64, 97
1, 149198, Control_c, 0, 64, 99
1, 149213, Control_c, 0, 64, 100
1, 149227, Control_c, 0, 64, 101
1, 149242, Control_c, 0, 64, 102
1, 149248, Note_off_c, 0, 51, 34
1, 149257, Control_c, 0, 64, 103
1, 149287, Control_c, 0, 64, 103
1, 149324, Control_c, 0, 64, 104
1, 149327, Note_off_c, 0, 54, 48
1, 149339, Control_c, 0, 64, 104
1, 149353, Control_c, 0, 64, 105
1, 149368, Control_c, 0, 64, 105
1, 149383, Control_c, 0, 64, 106
1, 149398, Control_c, 0, 64, 107
1, 149413, Control_c, 0, 64, 108
1, 149442, Control_c, 0, 64, 108
1, 149694, Control_c, 0, 64, 109
1, 149709, Control_c, 0, 64, 110
1, 149725, Control_c, 0, 64, 112
1, 149740, Control_c, 0, 64, 115
1, 149755, Control_c, 0, 64, 119
1, 149770, Control_c, 0, 64, 123
1, 149785, Control_c, 0, 64, 125
1, 149799, Control_c, 0, 64, 127
1, 149843, Control_c, 0, 64, 125
1, 149858, Control_c, 0, 64, 109
1, 149872, Note_on_c, 0, 30, 72
1, 149873, Control_c, 0, 64, 88
1, 149888, Control_c, 0, 64, 70
1, 149903, Control_c, 0, 64, 49
1, 149918, Control_c, 0, 64, 45
1, 149930, Note_off_c, 0, 30, 62
1, 149932, Control_c, 0, 64, 59
1, 149947, Control_c, 0, 64, 66
1, 149962, Control_c, 0, 64, 75
1, 149976, Control_c, 0, 64, 87
1, 149978, Note_off_c, 0, 58, 44
1, 149991, Control_c, 0, 64, 102
1, 150006, Control_c, 0, 64, 127
1, 150251, Note_on_c, 0, 42, 77
1, 150458, Note_on_c, 0, 49, 75
1, 150562, Control_c, 0, 64, 118
1, 150577, Control_c, 0, 64, 114
1, 150591, Control_c, 0, 64, 112
1, 150606, Control_c, 0, 64, 109
1, 150619, Note_on_c, 0, 54, 74
1, 150621, Control_c, 0, 64, 107
1, 150636, Control_c, 0, 64, 104
1, 150651, Control_c, 0, 64, 102
1, 150665, Control_c, 0, 64, 100
1, 150680, Control_c, 0, 64, 97
1, 150695, Control_c, 0, 64, 93
1, 150710, Control_c, 0, 64, 89
1, 150725, Control_c, 0, 64, 85
1, 150740, Control_c, 0, 64, 83
1, 150754, Control_c, 0, 64, 82
1, 150761, Note_on_c, 0, 56, 74
1, 150769, Control_c, 0, 64, 81
1, 150784, Control_c, 0, 64, 80
1, 150806, Control_c, 0, 64, 80
1, 150821, Control_c, 0, 64, 79
1, 150836, Control_c, 0, 64, 78
1, 150851, Control_c, 0, 64, 78
1, 150866, Control_c, 0, 64, 77
1, 150880, Control_c, 0, 64, 77
1, 150887, Note_on_c, 0, 59, 74
1, 150910, Control_c, 0, 64, 76
1, 150912, Note_off_c, 0, 56, 60
1, 151013, Note_on_c, 0, 58, 75
1, 151124, Note_off_c, 0, 59, 60
1, 151128, Note_on_c, 0, 56, 77
1, 151131, Note_off_c, 0, 54, 61
1, 151132, Control_c, 0, 64, 76
1, 151147, Control_c, 0, 64, 75
1, 151162, Control_c, 0, 64, 74
1, 151177, Control_c, 0, 64, 73
1, 151192, Control_c, 0, 64, 71
1, 151196, Note_off_c, 0, 58, 61
1, 151206, Control_c, 0, 64, 69
1, 151221, Control_c, 0, 64, 67
1, 151236, Control_c, 0, 64, 65
1, 151239, Note_off_c, 0, 56, 63
1, 151251, Control_c, 0, 64, 65
1, 151257, Note_on_c, 0, 54, 75
1, 151394, Note_on_c, 0, 58, 73
1, 151488, Control_c, 0, 64, 64
1, 151518, Control_c, 0, 64, 64
1, 151523, Note_on_c, 0, 59, 70
1, 151533, Control_c, 0, 64, 63
1, 151555, Control_c, 0, 64, 63
1, 151570, Control_c, 0, 64, 62
1, 151585, Control_c, 0, 64, 61
1, 151600, Control_c, 0, 64, 60
1, 151615, Control_c, 0, 64, 59
1, 151674, Control_c, 0, 64, 58
1, 151689, Control_c, 0, 64, 58
1, 151695, Note_on_c, 0, 63, 73
1, 151703, Control_c, 0, 64, 57
1, 151705, Note_off_c, 0, 59, 62
1, 151718, Control_c, 0, 64, 55
1, 151733, Control_c, 0, 64, 53
1, 151747, Control_c, 0, 64, 51
1, 151762, Control_c, 0, 64, 49
1, 151777, Control_c, 0, 64, 47
1, 151792, Control_c, 0, 64, 45
1, 151807, Control_c, 0, 64, 43
1, 151821, Control_c, 0, 64, 42
1, 151836, Control_c, 0, 64, 40
1, 151851, Control_c, 0, 64, 39
1, 151867, Control_c, 0, 64, 38
1, 151882, Control_c, 0, 64, 38
1, 151896, Control_c, 0, 64, 37
1, 151911, Control_c, 0, 64, 37
1, 151926, Control_c, 0, 64, 36
1, 151941, Control_c, 0, 64, 35
1, 151955, Control_c, 0, 64, 35
1, 151970, Control_c, 0, 64, 34
1, 151979, Note_on_c, 0, 61, 65
1, 152000, Control_c, 0, 64, 34
1, 152015, Control_c, 0, 64, 33
1, 152050, Note_off_c, 0, 63, 54
1, 152089, Control_c, 0, 64, 33
1, 152119, Control_c, 0, 64, 32
1, 152268, Control_c, 0, 64, 33
1, 152283, Control_c, 0, 64, 35
1, 152305, Control_c, 0, 64, 38
1, 152319, Control_c, 0, 64, 42
1, 152334, Control_c, 0, 64, 44
1, 152349, Control_c, 0, 64, 47
1, 152364, Control_c, 0, 64, 50
1, 152378, Control_c, 0, 64, 54
1, 152393, Control_c, 0, 64, 57
1, 152408, Control_c, 0, 64, 60
1, 152423, Control_c, 0, 64, 62
1, 152438, Control_c, 0, 64, 65
1, 152453, Control_c, 0, 64, 68
1, 152467, Control_c, 0, 64, 72
1, 152482, Control_c, 0, 64, 76
1, 152497, Control_c, 0, 64, 81
1, 152512, Control_c, 0, 64, 85
1, 152527, Control_c, 0, 64, 89
1, 152542, Control_c, 0, 64, 91
1, 152557, Control_c, 0, 64, 93
1, 152571, Control_c, 0, 64, 94
1, 152586, Control_c, 0, 64, 96
1, 152595, Note_off_c, 0, 49, 32
1, 152601, Control_c, 0, 64, 97
1, 152616, Control_c, 0, 64, 98
1, 152631, Control_c, 0, 64, 98
1, 152631, Note_off_c, 0, 42, 28
1, 152645, Control_c, 0, 64, 99
1, 152675, Control_c, 0, 64, 99
1, 152749, Control_c, 0, 64, 100
1, 152808, Control_c, 0, 64, 100
1, 152925, Note_off_c, 0, 58, 33
1, 153150, Note_off_c, 0, 54, 22
1, 153465, Note_off_c, 0, 61, 36
1, 153528, Control_c, 0, 64, 100
1, 153572, Control_c, 0, 64, 99
1, 153616, Control_c, 0, 64, 99
1, 153690, Control_c, 0, 64, 98
1, 153803, Control_c, 0, 64, 98
1, 153818, Control_c, 0, 64, 96
1, 153832, Control_c, 0, 64, 92
1, 153845, Note_on_c, 0, 34, 42
1, 153847, Control_c, 0, 64, 85
1, 153862, Control_c, 0, 64, 75
1, 153877, Control_c, 0, 64, 69
1, 153892, Control_c, 0, 64, 67
1, 153906, Control_c, 0, 64, 69
1, 153921, Control_c, 0, 64, 73
1, 153936, Control_c, 0, 64, 80
1, 153946, Note_off_c, 0, 34, 61
1, 153951, Control_c, 0, 64, 88
1, 153966, Control_c, 0, 64, 95
1, 153980, Control_c, 0, 64, 99
1, 153995, Control_c, 0, 64, 100
1, 154157, Control_c, 0, 64, 99
1, 154172, Control_c, 0, 64, 99
1, 154187, Control_c, 0, 64, 96
1, 154190, Note_on_c, 0, 46, 53
1, 154202, Control_c, 0, 64, 88
1, 154216, Control_c, 0, 64, 77
1, 154231, Control_c, 0, 64, 65
1, 154246, Control_c, 0, 64, 55
1, 154261, Control_c, 0, 64, 58
1, 154276, Control_c, 0, 64, 64
1, 154290, Control_c, 0, 64, 70
1, 154305, Control_c, 0, 64, 79
1, 154320, Control_c, 0, 64, 88
1, 154334, Control_c, 0, 64, 96
1, 154349, Control_c, 0, 64, 99
1, 154364, Control_c, 0, 64, 101
1, 154379, Control_c, 0, 64, 103
1, 154394, Control_c, 0, 64, 103
1, 154419, Note_on_c, 0, 53, 50
1, 154607, Note_on_c, 0, 58, 54
1, 154766, Note_on_c, 0, 60, 54
1, 154773, Note_off_c, 0, 46, 47
1, 154863, Note_off_c, 0, 58, 39
1, 154881, Note_off_c, 0, 60, 59
1, 154887, Note_on_c, 0, 63, 66
1, 155003, Note_on_c, 0, 61, 66
1, 155033, Note_off_c, 0, 63, 38
1, 155103, Note_on_c, 0, 60, 64
1, 155117, Note_off_c, 0, 61, 53
1, 155120, Note_off_c, 0, 53, 66
1, 155168, Note_off_c, 0, 60, 63
1, 155195, Note_on_c, 0, 58, 67
1, 155296, Note_on_c, 0, 61, 62
1, 155377, Note_off_c, 0, 61, 62
1, 155387, Note_on_c, 0, 63, 59
1, 155467, Note_off_c, 0, 63, 61
1, 155498, Note_on_c, 0, 66, 58
1, 155566, Control_c, 0, 64, 103
1, 155610, Control_c, 0, 64, 101
1, 155616, Note_on_c, 0, 37, 50
1, 155617, Note_off_c, 0, 58, 58
1, 155625, Control_c, 0, 64, 95
1, 155640, Note_off_c, 0, 66, 58
1, 155640, Control_c, 0, 64, 83
1, 155646, Note_on_c, 0, 65, 64
1, 155655, Control_c, 0, 64, 70
1, 155669, Control_c, 0, 64, 47
1, 155684, Control_c, 0, 64, 10
1, 155699, Control_c, 0, 64, 29
1, 155714, Control_c, 0, 64, 53
1, 155729, Control_c, 0, 64, 64
1, 155743, Control_c, 0, 64, 72
1, 155758, Control_c, 0, 64, 88
1, 155761, Note_off_c, 0, 37, 57
1, 155773, Note_on_c, 0, 49, 62
1, 155773, Control_c, 0, 64, 104
1, 155788, Control_c, 0, 64, 127
1, 155791, Note_off_c, 0, 65, 64
1, 155848, Note_off_c, 0, 49, 61
1, 155873, Note_on_c, 0, 56, 72
1, 155904, Note_off_c, 0, 56, 67
1, 155953, Note_on_c, 0, 61, 72
1, 156029, Note_on_c, 0, 63, 70
1, 156053, Note_off_c, 0, 61, 58
1, 156113, Note_on_c, 0, 66, 76
1, 156116, Note_off_c, 0, 63, 61
1, 156191, Note_on_c, 0, 65, 70
1, 156235, Note_off_c, 0, 66, 62
1, 156278, Note_on_c, 0, 63, 69
1, 156284, Note_off_c, 0, 65, 63
1, 156312, Note_off_c, 0, 63, 66
1, 156344, Note_on_c, 0, 61, 70
1, 156413, Note_on_c, 0, 65, 68
1, 156494, Note_off_c, 0, 65, 61
1, 156498, Note_on_c, 0, 67, 71
1, 156566, Note_off_c, 0, 67, 61
1, 156599, Note_on_c, 0, 70, 62
1, 156729, Note_on_c, 0, 53, 77
1, 156733, Note_on_c, 0, 41, 67
1, 156766, Note_on_c, 0, 68, 67
1, 156773, Control_c, 0, 64, 111
1, 156790, Note_off_c, 0, 70, 55
1, 156796, Control_c, 0, 64, 95
1, 156811, Control_c, 0, 64, 79
1, 156825, Control_c, 0, 64, 66
1, 156827, Note_off_c, 0, 61, 43
1, 156840, Control_c, 0, 64, 47
1, 156855, Control_c, 0, 64, 0
1, 156885, Control_c, 0, 64, 9
1, 156899, Control_c, 0, 64, 32
1, 156915, Control_c, 0, 64, 42
1, 156930, Control_c, 0, 64, 48
1, 156939, Note_on_c, 0, 65, 56
1, 156945, Control_c, 0, 64, 53
1, 156959, Control_c, 0, 64, 56
1, 156963, Note_off_c, 0, 68, 58
1, 156974, Control_c, 0, 64, 60
1, 156989, Control_c, 0, 64, 62
1, 157004, Control_c, 0, 64, 66
1, 157011, Note_off_c, 0, 65, 59
1, 157019, Control_c, 0, 64, 69
1, 157031, Note_on_c, 0, 60, 54
1, 157034, Control_c, 0, 64, 74
1, 157048, Control_c, 0, 64, 79
1, 157063, Control_c, 0, 64, 83
1, 157078, Control_c, 0, 64, 86
1, 157093, Control_c, 0, 64, 88
1, 157094, Note_off_c, 0, 53, 64
1, 157106, Note_on_c, 0, 65, 52
1, 157108, Control_c, 0, 64, 89
1, 157122, Control_c, 0, 64, 90
1, 157146, Note_off_c, 0, 41, 60
1, 157166, Note_off_c, 0, 65, 54
1, 157166, Control_c, 0, 64, 90
1, 157178, Note_on_c, 0, 67, 60
1, 157196, Control_c, 0, 64, 91
1, 157221, Note_off_c, 0, 67, 63
1, 157240, Control_c, 0, 64, 91
1, 157249, Note_on_c, 0, 70, 64
1, 157285, Control_c, 0, 64, 92
1, 157326, Note_on_c, 0, 48, 80
1, 157329, Control_c, 0, 64, 90
1, 157330, Note_on_c, 0, 36, 74
1, 157334, Note_off_c, 0, 70, 60
1, 157339, Note_on_c, 0, 68, 68
1, 157344, Control_c, 0, 64, 84
1, 157359, Control_c, 0, 64, 75
1, 157361, Note_off_c, 0, 60, 42
1, 157374, Control_c, 0, 64, 63
1, 157389, Control_c, 0, 64, 51
1, 157404, Control_c, 0, 64, 54
1, 157419, Control_c, 0, 64, 61
1, 157433, Control_c, 0, 64, 68
1, 157448, Control_c, 0, 64, 79
1, 157463, Control_c, 0, 64, 104
1, 157467, Note_on_c, 0, 65, 67
1, 157477, Note_off_c, 0, 68, 58
1, 157478, Control_c, 0, 64, 127
1, 157527, Note_off_c, 0, 65, 58
1, 157543, Note_off_c, 0, 48, 63
1, 157545, Note_on_c, 0, 60, 60
1, 157580, Note_off_c, 0, 60, 66
1, 157582, Note_off_c, 0, 36, 60
1, 157613, Note_on_c, 0, 65, 54
1, 157660, Note_off_c, 0, 65, 60
1, 157679, Note_on_c, 0, 68, 58
1, 157705, Note_off_c, 0, 68, 63
1, 157737, Note_on_c, 0, 73, 73
1, 157790, Note_off_c, 0, 73, 63
1, 157803, Note_on_c, 0, 43, 87
1, 157807, Note_on_c, 0, 31, 81
1, 157815, Note_on_c, 0, 72, 69
1, 157827, Control_c, 0, 64, 109
1, 157842, Control_c, 0, 64, 85
1, 157857, Control_c, 0, 64, 65
1, 157871, Control_c, 0, 64, 54
1, 157886, Control_c, 0, 64, 59
1, 157901, Control_c, 0, 64, 66
1, 157911, Note_off_c, 0, 72, 64
1, 157912, Note_on_c, 0, 68, 67
1, 157916, Control_c, 0, 64, 75
1, 157930, Control_c, 0, 64, 92
1, 157945, Control_c, 0, 64, 127
1, 157967, Note_off_c, 0, 68, 63
1, 157980, Note_on_c, 0, 65, 65
1, 157995, Note_off_c, 0, 31, 61
1, 158009, Note_off_c, 0, 43, 62
1, 158014, Note_off_c, 0, 65, 61
1, 158029, Note_on_c, 0, 68, 72
1, 158049, Note_off_c, 0, 68, 72
1, 158114, Note_on_c, 0, 72, 75
1, 158140, Note_off_c, 0, 72, 62
1, 158175, Note_on_c, 0, 79, 66
1, 158230, Note_on_c, 0, 46, 93
1, 158231, Note_on_c, 0, 34, 89
1, 158241, Control_c, 0, 64, 92
1, 158243, Note_on_c, 0, 77, 78
1, 158255, Note_off_c, 0, 79, 59
1, 158256, Control_c, 0, 64, 72
1, 158271, Control_c, 0, 64, 62
1, 158292, Note_off_c, 0, 77, 62
1, 158308, Control_c, 0, 64, 68
1, 158311, Note_on_c, 0, 72, 66
1, 158322, Control_c, 0, 64, 78
1, 158337, Control_c, 0, 64, 99
1, 158352, Control_c, 0, 64, 127
1, 158373, Note_off_c, 0, 72, 63
1, 158377, Note_on_c, 0, 68, 73
1, 158400, Note_off_c, 0, 68, 71
1, 158431, Note_off_c, 0, 46, 63
1, 158444, Note_on_c, 0, 72, 63
1, 158462, Note_off_c, 0, 34, 58
1, 158483, Note_off_c, 0, 72, 59
1, 158513, Note_on_c, 0, 77, 62
1, 158544, Note_on_c, 0, 32, 79
1, 158546, Note_on_c, 0, 44, 80
1, 158574, Note_off_c, 0, 32, 63
1, 158574, Note_off_c, 0, 44, 65
1, 158577, Note_on_c, 0, 82, 87
1, 158579, Note_off_c, 0, 77, 62
1, 158635, Note_on_c, 0, 43, 96
1, 158635, Control_c, 0, 64, 120
1, 158637, Note_on_c, 0, 31, 86
1, 158640, Note_on_c, 0, 80, 86
1, 158650, Control_c, 0, 64, 80
1, 158665, Note_on_c, 0, 32, 37
1, 158665, Control_c, 0, 64, 35
1, 158680, Control_c, 0, 64, 0
1, 158703, Note_off_c, 0, 32, 49
1, 158706, Note_off_c, 0, 82, 61
1, 158720, Note_on_c, 0, 77, 77
1, 158739, Control_c, 0, 64, 33
1, 158754, Control_c, 0, 64, 59
1, 158755, Note_off_c, 0, 80, 63
1, 158769, Control_c, 0, 64, 73
1, 158784, Control_c, 0, 64, 97
1, 158795, Note_on_c, 0, 72, 78
1, 158799, Control_c, 0, 64, 127
1, 158802, Note_off_c, 0, 77, 62
1, 158864, Note_on_c, 0, 77, 73
1, 158864, Note_off_c, 0, 72, 52
1, 158927, Note_off_c, 0, 43, 61
1, 158932, Note_on_c, 0, 80, 81
1, 158948, Note_off_c, 0, 77, 62
1, 159017, Note_on_c, 0, 85, 82
1, 159021, Note_off_c, 0, 80, 63
1, 159120, Note_off_c, 0, 85, 66
1, 159144, Note_on_c, 0, 41, 88
1, 159145, Note_on_c, 0, 29, 87
1, 159150, Note_off_c, 0, 31, 61
1, 159189, Note_on_c, 0, 84, 93
1, 159191, Control_c, 0, 64, 90
1, 159206, Control_c, 0, 64, 57
1, 159220, Control_c, 0, 64, 0
1, 159294, Control_c, 0, 64, 19
1, 159303, Note_on_c, 0, 80, 71
1, 159310, Control_c, 0, 64, 64
1, 159325, Control_c, 0, 64, 78
1, 159340, Control_c, 0, 64, 118
1, 159355, Control_c, 0, 64, 127
1, 159365, Note_off_c, 0, 80, 64
1, 159371, Note_on_c, 0, 77, 72
1, 159379, Note_off_c, 0, 84, 61
1, 159428, Note_on_c, 0, 80, 77
1, 159431, Note_off_c, 0, 77, 58
1, 159447, Note_off_c, 0, 80, 70
1, 159505, Note_on_c, 0, 84, 88
1, 159556, Note_off_c, 0, 84, 48
1, 159576, Note_on_c, 0, 91, 86
1, 159642, Note_on_c, 0, 89, 86
1, 159669, Note_off_c, 0, 91, 64
1, 159699, Note_off_c, 0, 89, 61
1, 159702, Note_on_c, 0, 84, 76
1, 159741, Note_off_c, 0, 84, 59
1, 159772, Note_on_c, 0, 80, 85
1, 159814, Note_off_c, 0, 41, 60
1, 159817, Note_off_c, 0, 80, 58
1, 159854, Note_on_c, 0, 84, 77
1, 159899, Note_off_c, 0, 84, 58
1, 159914, Note_on_c, 0, 89, 77
1, 159994, Note_on_c, 0, 94, 89
1, 159995, Note_off_c, 0, 89, 57
1, 160081, Note_on_c, 0, 39, 96
1, 160084, Note_on_c, 0, 27, 96
1, 160090, Note_on_c, 0, 92, 94
1, 160102, Control_c, 0, 64, 103
1, 160106, Note_off_c, 0, 29, 57
1, 160119, Control_c, 0, 64, 77
1, 160133, Control_c, 0, 64, 48
1, 160148, Control_c, 0, 64, 25
1, 160163, Control_c, 0, 64, 55
1, 160178, Control_c, 0, 64, 68
1, 160180, Note_off_c, 0, 94, 39
1, 160190, Note_on_c, 0, 89, 87
1, 160192, Control_c, 0, 64, 80
1, 160207, Control_c, 0, 64, 104
1, 160222, Control_c, 0, 64, 127
1, 160235, Note_off_c, 0, 92, 62
1, 160281, Note_on_c, 0, 84, 82
1, 160294, Note_off_c, 0, 89, 60
1, 160374, Note_on_c, 0, 89, 90
1, 160391, Note_off_c, 0, 84, 58
1, 160464, Note_off_c, 0, 39, 54
1, 160474, Note_on_c, 0, 92, 95
1, 160493, Note_off_c, 0, 89, 63
1, 160508, Note_off_c, 0, 27, 56
1, 160518, Note_off_c, 0, 92, 67
1, 160608, Note_on_c, 0, 96, 103
1, 160787, Note_off_c, 0, 96, 65
1, 160811, Note_on_c, 0, 25, 88
1, 160816, Note_on_c, 0, 37, 85
1, 160816, Note_on_c, 0, 101, 94
1, 160822, Control_c, 0, 64, 96
1, 160837, Control_c, 0, 64, 65
1, 160851, Control_c, 0, 64, 0
1, 160911, Control_c, 0, 64, 42
1, 160925, Control_c, 0, 64, 64
1, 160940, Control_c, 0, 64, 81
1, 160955, Control_c, 0, 64, 127
1, 160985, Note_off_c, 0, 25, 59
1, 161034, Note_off_c, 0, 37, 63
1, 161035, Note_on_c, 0, 99, 88
1, 161099, Note_off_c, 0, 101, 58
1, 161159, Note_on_c, 0, 97, 91
1, 161229, Note_off_c, 0, 99, 64
1, 161254, Note_on_c, 0, 96, 90
1, 161260, Note_off_c, 0, 97, 66
1, 161327, Note_off_c, 0, 96, 67
1, 161345, Note_on_c, 0, 95, 93
1, 161424, Note_on_c, 0, 94, 88
1, 161455, Note_off_c, 0, 95, 66
1, 161476, Note_on_c, 0, 61, 84
1, 161478, Note_on_c, 0, 71, 89
1, 161481, Note_on_c, 0, 65, 83
1, 161482, Note_on_c, 0, 59, 78
1, 161497, Note_on_c, 0, 92, 89
1, 161559, Note_off_c, 0, 94, 64
1, 161605, Note_on_c, 0, 90, 83
1, 161647, Note_off_c, 0, 92, 63
1, 161670, Note_off_c, 0, 90, 67
1, 161681, Note_on_c, 0, 89, 80
1, 161762, Note_on_c, 0, 87, 86
1, 161777, Note_off_c, 0, 89, 63
1, 161826, Note_on_c, 0, 85, 85
1, 161878, Note_off_c, 0, 87, 63
1, 161889, Note_on_c, 0, 84, 86
1, 161920, Note_off_c, 0, 85, 62
1, 161941, Note_off_c, 0, 84, 67
1, 161945, Note_off_c, 0, 71, 63
1, 161952, Note_on_c, 0, 83, 81
1, 162009, Note_off_c, 0, 59, 60
1, 162010, Note_off_c, 0, 65, 62
1, 162013, Note_on_c, 0, 82, 86
1, 162018, Note_off_c, 0, 61, 63
1, 162044, Note_off_c, 0, 83, 62
1, 162086, Note_on_c, 0, 80, 84
1, 162135, Note_off_c, 0, 82, 64
1, 162150, Note_on_c, 0, 78, 88
1, 162171, Note_off_c, 0, 80, 65
1, 162197, Note_off_c, 0, 78, 68
1, 162217, Note_on_c, 0, 77, 78
1, 162275, Note_on_c, 0, 75, 83
1, 162290, Note_off_c, 0, 77, 62
1, 162341, Note_on_c, 0, 73, 87
1, 162343, Note_on_c, 0, 65, 84
1, 162343, Note_on_c, 0, 53, 77
1, 162343, Note_on_c, 0, 59, 84
1, 162344, Note_on_c, 0, 61, 84
1, 162349, Control_c, 0, 64, 107
1, 162364, Control_c, 0, 64, 85
1, 162379, Control_c, 0, 64, 69
1, 162394, Control_c, 0, 64, 60
1, 162402, Note_off_c, 0, 75, 61
1, 162409, Control_c, 0, 64, 61
1, 162417, Note_on_c, 0, 72, 85
1, 162424, Control_c, 0, 64, 66
1, 162438, Note_off_c, 0, 73, 65
1, 162438, Control_c, 0, 64, 72
1, 162453, Control_c, 0, 64, 81
1, 162468, Control_c, 0, 64, 91
1, 162474, Note_off_c, 0, 72, 65
1, 162482, Control_c, 0, 64, 98
1, 162491, Note_on_c, 0, 71, 78
1, 162497, Control_c, 0, 64, 101
1, 162513, Control_c, 0, 64, 104
1, 162528, Control_c, 0, 64, 108
1, 162543, Control_c, 0, 64, 120
1, 162558, Control_c, 0, 64, 127
1, 162567, Note_on_c, 0, 70, 79
1, 162569, Note_off_c, 0, 53, 62
1, 162583, Note_off_c, 0, 65, 60
1, 162609, Note_off_c, 0, 71, 61
1, 162618, Note_off_c, 0, 59, 58
1, 162640, Note_off_c, 0, 61, 59
1, 162645, Note_on_c, 0, 68, 87
1, 162710, Note_off_c, 0, 70, 62
1, 162733, Note_on_c, 0, 66, 94
1, 162758, Note_off_c, 0, 68, 64
1, 162814, Note_on_c, 0, 56, 76
1, 162825, Note_on_c, 0, 59, 80
1, 162860, Note_on_c, 0, 61, 57
1, 162881, Note_on_c, 0, 65, 93
1, 162881, Note_on_c, 0, 68, 93
1, 162891, Control_c, 0, 64, 94
1, 162905, Control_c, 0, 64, 74
1, 162912, Note_off_c, 0, 66, 64
1, 162920, Control_c, 0, 64, 54
1, 162935, Control_c, 0, 64, 0
1, 162950, Control_c, 0, 64, 17
1, 162965, Control_c, 0, 64, 53
1, 162979, Control_c, 0, 64, 64
1, 162994, Control_c, 0, 64, 74
1, 163005, Note_on_c, 0, 63, 75
1, 163009, Control_c, 0, 64, 85
1, 163011, Note_off_c, 0, 61, 62
1, 163024, Control_c, 0, 64, 94
1, 163039, Control_c, 0, 64, 97
1, 163053, Control_c, 0, 64, 98
1, 163056, Note_off_c, 0, 65, 62
1, 163072, Note_off_c, 0, 63, 62
1, 163077, Note_off_c, 0, 68, 63
1, 163085, Note_on_c, 0, 61, 68
1, 163098, Control_c, 0, 64, 99
1, 163109, Note_off_c, 0, 59, 60
1, 163112, Control_c, 0, 64, 99
1, 163115, Note_off_c, 0, 56, 54
1, 163127, Control_c, 0, 64, 100
1, 163151, Note_on_c, 0, 60, 81
1, 163151, Note_off_c, 0, 61, 63
1, 163223, Note_on_c, 0, 59, 84
1, 163238, Note_off_c, 0, 60, 61
1, 163291, Note_off_c, 0, 59, 64
1, 163300, Note_on_c, 0, 58, 65
1, 163306, Control_c, 0, 64, 99
1, 163321, Control_c, 0, 64, 97
1, 163322, Note_off_c, 0, 58, 64
1, 163336, Control_c, 0, 64, 95
1, 163351, Control_c, 0, 64, 91
1, 163357, Note_on_c, 0, 56, 88
1, 163366, Control_c, 0, 64, 86
1, 163381, Control_c, 0, 64, 82
1, 163395, Control_c, 0, 64, 79
1, 163410, Control_c, 0, 64, 78
1, 163425, Control_c, 0, 64, 78
1, 163442, Note_on_c, 0, 54, 84
1, 163455, Control_c, 0, 64, 77
1, 163469, Note_off_c, 0, 56, 63
1, 163470, Control_c, 0, 64, 77
1, 163484, Control_c, 0, 64, 76
1, 163499, Control_c, 0, 64, 75
1, 163502, Note_off_c, 0, 54, 66
1, 163513, Note_on_c, 0, 53, 79
1, 163514, Control_c, 0, 64, 74
1, 163536, Control_c, 0, 64, 73
1, 163550, Control_c, 0, 64, 73
1, 163604, Note_on_c, 0, 51, 79
1, 163623, Note_off_c, 0, 53, 63
1, 163625, Control_c, 0, 64, 72
1, 163670, Control_c, 0, 64, 72
1, 163684, Control_c, 0, 64, 71
1, 163688, Note_on_c, 0, 49, 81
1, 163714, Control_c, 0, 64, 71
1, 163728, Control_c, 0, 64, 70
1, 163732, Note_off_c, 0, 51, 63
1, 163743, Control_c, 0, 64, 69
1, 163758, Control_c, 0, 64, 68
1, 163768, Note_on_c, 0, 48, 81
1, 163773, Control_c, 0, 64, 66
1, 163788, Control_c, 0, 64, 65
1, 163796, Note_off_c, 0, 49, 63
1, 163802, Control_c, 0, 64, 62
1, 163817, Control_c, 0, 64, 60
1, 163832, Control_c, 0, 64, 59
1, 163849, Note_off_c, 0, 48, 61
1, 163859, Note_on_c, 0, 47, 87
1, 163876, Control_c, 0, 64, 59
1, 163968, Note_on_c, 0, 46, 72
1, 164012, Note_off_c, 0, 47, 58
1, 164049, Note_on_c, 0, 44, 76
1, 164108, Note_off_c, 0, 46, 60
1, 164114, Control_c, 0, 64, 59
1, 164128, Note_on_c, 0, 42, 83
1, 164159, Control_c, 0, 64, 58
1, 164163, Note_off_c, 0, 44, 62
1, 164173, Control_c, 0, 64, 58
1, 164188, Note_off_c, 0, 42, 64
1, 164188, Control_c, 0, 64, 57
1, 164194, Note_on_c, 0, 41, 75
1, 164218, Control_c, 0, 64, 56
1, 164248, Control_c, 0, 64, 56
1, 164281, Note_on_c, 0, 39, 77
1, 164299, Note_off_c, 0, 41, 59
1, 164329, Control_c, 0, 64, 55
1, 164356, Note_on_c, 0, 37, 80
1, 164406, Note_off_c, 0, 39, 61
1, 164427, Note_on_c, 0, 36, 81
1, 164455, Note_off_c, 0, 37, 62
1, 164498, Note_off_c, 0, 36, 58
1, 164508, Note_on_c, 0, 35, 85
1, 164600, Note_on_c, 0, 34, 76
1, 164633, Note_off_c, 0, 35, 64
1, 164640, Control_c, 0, 64, 56
1, 164694, Note_on_c, 0, 32, 81
1, 164729, Note_off_c, 0, 34, 62
1, 164796, Note_on_c, 0, 30, 86
1, 164815, Note_off_c, 0, 32, 58
1, 164913, Note_off_c, 0, 30, 60
1, 164914, Note_on_c, 0, 29, 88
1, 165051, Note_on_c, 0, 27, 84
1, 165076, Note_off_c, 0, 29, 61
1, 165161, Note_off_c, 0, 27, 62
1, 165196, Note_on_c, 0, 26, 87
1, 165270, Control_c, 0, 64, 55
1, 165300, Control_c, 0, 64, 55
1, 165311, Note_off_c, 0, 26, 63
1, 165315, Control_c, 0, 64, 54
1, 165330, Control_c, 0, 64, 54
1, 165345, Control_c, 0, 64, 53
1, 165347, Note_on_c, 0, 25, 92
1, 165374, Control_c, 0, 64, 52
1, 165404, Control_c, 0, 64, 52
1, 165434, Control_c, 0, 64, 51
1, 165463, Control_c, 0, 64, 51
1, 165478, Control_c, 0, 64, 50
1, 165492, Control_c, 0, 64, 50
1, 165507, Control_c, 0, 64, 49
1, 165566, Control_c, 0, 64, 49
1, 165575, Note_on_c, 0, 24, 85
1, 165596, Control_c, 0, 64, 48
1, 165606, Note_off_c, 0, 25, 61
1, 165611, Control_c, 0, 64, 47
1, 165626, Control_c, 0, 64, 45
1, 165640, Control_c, 0, 64, 43
1, 165655, Control_c, 0, 64, 42
1, 165670, Control_c, 0, 64, 42
1, 165760, Control_c, 0, 64, 43
1, 165783, Control_c, 0, 64, 44
1, 165798, Control_c, 0, 64, 46
1, 165812, Control_c, 0, 64, 50
1, 165827, Control_c, 0, 64, 55
1, 165842, Control_c, 0, 64, 60
1, 165857, Control_c, 0, 64, 62
1, 165872, Control_c, 0, 64, 64
1, 165886, Control_c, 0, 64, 66
1, 165901, Control_c, 0, 64, 67
1, 165916, Control_c, 0, 64, 68
1, 165929, Note_off_c, 0, 24, 61
1, 165930, Control_c, 0, 64, 68
1, 166064, Control_c, 0, 64, 69
1, 166212, Control_c, 0, 64, 68
1, 166242, Control_c, 0, 64, 68
1, 166257, Control_c, 0, 64, 66
1, 166271, Control_c, 0, 64, 64
1, 166286, Control_c, 0, 64, 60
1, 166301, Control_c, 0, 64, 53
1, 166316, Control_c, 0, 64, 26
1, 166330, Control_c, 0, 64, 0
1, 166409, Note_on_c, 0, 60, 69
1, 166849, Note_on_c, 0, 40, 46
1, 166857, Control_c, 0, 64, 23
1, 166871, Control_c, 0, 64, 48
1, 166886, Control_c, 0, 64, 60
1, 166901, Control_c, 0, 64, 64
1, 166916, Control_c, 0, 64, 66
1, 166931, Control_c, 0, 64, 68
1, 166946, Control_c, 0, 64, 71
1, 166961, Control_c, 0, 64, 74
1, 166976, Control_c, 0, 64, 77
1, 166990, Control_c, 0, 64, 79
1, 166996, Note_on_c, 0, 48, 47
1, 167005, Control_c, 0, 64, 80
1, 167020, Control_c, 0, 64, 81
1, 167035, Control_c, 0, 64, 83
1, 167050, Control_c, 0, 64, 84
1, 167065, Control_c, 0, 64, 86
1, 167079, Control_c, 0, 64, 87
1, 167094, Control_c, 0, 64, 87
1, 167105, Note_off_c, 0, 48, 58
1, 167109, Control_c, 0, 64, 88
1, 167136, Note_on_c, 0, 49, 51
1, 167139, Control_c, 0, 64, 89
1, 167183, Control_c, 0, 64, 89
1, 167198, Control_c, 0, 64, 90
1, 167213, Control_c, 0, 64, 90
1, 167227, Control_c, 0, 64, 91
1, 167242, Control_c, 0, 64, 91
1, 167253, Note_off_c, 0, 49, 58
1, 167257, Control_c, 0, 64, 92
1, 167279, Control_c, 0, 64, 93
1, 167287, Note_on_c, 0, 48, 48
1, 167292, Note_on_c, 0, 55, 73
1, 167375, Note_off_c, 0, 48, 61
1, 167399, Note_off_c, 0, 40, 48
1, 167411, Note_on_c, 0, 49, 41
1, 167453, Note_off_c, 0, 49, 48
1, 167502, Note_on_c, 0, 48, 45
1, 167538, Note_off_c, 0, 48, 50
1, 167559, Note_on_c, 0, 41, 50
1, 167591, Control_c, 0, 64, 92
1, 167606, Control_c, 0, 64, 88
1, 167621, Control_c, 0, 64, 81
1, 167630, Note_on_c, 0, 48, 55
1, 167636, Control_c, 0, 64, 71
1, 167650, Control_c, 0, 64, 61
1, 167665, Control_c, 0, 64, 57
1, 167680, Control_c, 0, 64, 61
1, 167694, Control_c, 0, 64, 65
1, 167709, Control_c, 0, 64, 71
1, 167711, Note_off_c, 0, 48, 62
1, 167724, Note_on_c, 0, 56, 76
1, 167724, Control_c, 0, 64, 78
1, 167739, Control_c, 0, 64, 87
1, 167745, Note_on_c, 0, 49, 53
1, 167749, Note_off_c, 0, 55, 61
1, 167754, Control_c, 0, 64, 91
1, 167768, Control_c, 0, 64, 93
1, 167783, Control_c, 0, 64, 94
1, 167798, Note_off_c, 0, 60, 64
1, 167809, Note_off_c, 0, 49, 59
1, 167813, Control_c, 0, 64, 94
1, 167828, Control_c, 0, 64, 95
1, 167843, Control_c, 0, 64, 96
1, 167849, Note_on_c, 0, 48, 42
1, 167858, Control_c, 0, 64, 96
1, 167873, Control_c, 0, 64, 97
1, 167888, Control_c, 0, 64, 97
1, 167900, Note_off_c, 0, 48, 49
1, 167953, Note_on_c, 0, 49, 36
1, 168153, Note_on_c, 0, 68, 71
1, 168156, Note_on_c, 0, 48, 44
1, 168160, Note_off_c, 0, 41, 33
1, 168166, Note_off_c, 0, 49, 42
1, 168207, Control_c, 0, 64, 97
1, 168222, Control_c, 0, 64, 91
1, 168236, Control_c, 0, 64, 83
1, 168251, Control_c, 0, 64, 73
1, 168266, Control_c, 0, 64, 66
1, 168281, Control_c, 0, 64, 65
1, 168296, Control_c, 0, 64, 67
1, 168305, Note_off_c, 0, 48, 59
1, 168311, Control_c, 0, 64, 71
1, 168312, Note_on_c, 0, 41, 36
1, 168325, Control_c, 0, 64, 76
1, 168339, Control_c, 0, 64, 81
1, 168347, Note_off_c, 0, 56, 58
1, 168354, Control_c, 0, 64, 84
1, 168362, Note_off_c, 0, 41, 61
1, 168369, Control_c, 0, 64, 85
1, 168384, Control_c, 0, 64, 86
1, 168390, Note_on_c, 0, 49, 49
1, 168398, Control_c, 0, 64, 87
1, 168413, Control_c, 0, 64, 88
1, 168426, Note_off_c, 0, 49, 50
1, 168475, Note_on_c, 0, 67, 72
1, 168477, Note_off_c, 0, 68, 63
1, 168487, Note_on_c, 0, 56, 53
1, 168487, Control_c, 0, 64, 88
1, 168530, Note_off_c, 0, 56, 55
1, 168582, Note_on_c, 0, 50, 45
1, 168622, Note_off_c, 0, 50, 55
1, 168661, Note_on_c, 0, 56, 40
1, 168752, Note_off_c, 0, 56, 55
1, 168755, Note_on_c, 0, 50, 40
1, 168807, Note_on_c, 0, 65, 62
1, 168865, Control_c, 0, 64, 88
1, 168880, Control_c, 0, 64, 83
1, 168895, Control_c, 0, 64, 74
1, 168898, Note_off_c, 0, 67, 54
1, 168910, Control_c, 0, 64, 63
1, 168916, Note_on_c, 0, 43, 56
1, 168916, Note_off_c, 0, 50, 38
1, 168925, Control_c, 0, 64, 51
1, 168940, Control_c, 0, 64, 53
1, 168955, Control_c, 0, 64, 60
1, 168960, Note_off_c, 0, 43, 64
1, 168970, Control_c, 0, 64, 65
1, 168985, Control_c, 0, 64, 70
1, 169000, Control_c, 0, 64, 77
1, 169009, Note_on_c, 0, 51, 49
1, 169014, Control_c, 0, 64, 84
1, 169029, Control_c, 0, 64, 87
1, 169044, Control_c, 0, 64, 89
1, 169059, Control_c, 0, 64, 91
1, 169074, Control_c, 0, 64, 92
1, 169076, Note_off_c, 0, 51, 55
1, 169084, Note_on_c, 0, 63, 70
1, 169089, Control_c, 0, 64, 92
1, 169101, Note_on_c, 0, 58, 45
1, 169103, Control_c, 0, 64, 93
1, 169104, Note_off_c, 0, 65, 61
1, 169131, Note_off_c, 0, 58, 55
1, 169171, Note_on_c, 0, 51, 33
1, 169192, Control_c, 0, 64, 93
1, 169206, Note_off_c, 0, 51, 52
1, 169214, Note_on_c, 0, 58, 60
1, 169262, Note_off_c, 0, 58, 59
1, 169280, Control_c, 0, 64, 94
1, 169306, Note_on_c, 0, 51, 41
1, 169333, Note_on_c, 0, 67, 75
1, 169372, Note_off_c, 0, 63, 56
1, 169380, Note_on_c, 0, 65, 73
1, 169414, Control_c, 0, 64, 90
1, 169429, Control_c, 0, 64, 81
1, 169442, Note_off_c, 0, 67, 60
1, 169444, Control_c, 0, 64, 68
1, 169456, Note_off_c, 0, 51, 37
1, 169458, Note_on_c, 0, 43, 56
1, 169459, Control_c, 0, 64, 56
1, 169473, Control_c, 0, 64, 53
1, 169488, Control_c, 0, 64, 60
1, 169503, Control_c, 0, 64, 66
1, 169525, Control_c, 0, 64, 72
1, 169530, Note_off_c, 0, 43, 62
1, 169540, Control_c, 0, 64, 81
1, 169554, Control_c, 0, 64, 89
1, 169566, Note_on_c, 0, 51, 60
1, 169569, Control_c, 0, 64, 96
1, 169584, Control_c, 0, 64, 102
1, 169599, Control_c, 0, 64, 107
1, 169614, Note_off_c, 0, 51, 61
1, 169614, Control_c, 0, 64, 112
1, 169629, Control_c, 0, 64, 118
1, 169643, Note_on_c, 0, 63, 83
1, 169643, Control_c, 0, 64, 127
1, 169655, Note_on_c, 0, 59, 64
1, 169684, Note_off_c, 0, 65, 61
1, 169718, Note_off_c, 0, 59, 59
1, 169745, Note_on_c, 0, 51, 50
1, 169783, Note_off_c, 0, 51, 60
1, 169807, Note_on_c, 0, 59, 53
1, 169839, Note_off_c, 0, 59, 65
1, 169884, Note_on_c, 0, 51, 51
1, 169922, Note_off_c, 0, 63, 59
1, 169934, Note_on_c, 0, 59, 72
1, 169953, Note_off_c, 0, 51, 45
1, 169968, Note_off_c, 0, 59, 63
1, 170000, Control_c, 0, 64, 117
1, 170015, Control_c, 0, 64, 89
1, 170022, Note_on_c, 0, 44, 54
1, 170030, Control_c, 0, 64, 73
1, 170031, Note_on_c, 0, 59, 73
1, 170044, Control_c, 0, 64, 60
1, 170059, Control_c, 0, 64, 54
1, 170074, Control_c, 0, 64, 62
1, 170088, Control_c, 0, 64, 68
1, 170103, Control_c, 0, 64, 77
1, 170118, Control_c, 0, 64, 90
1, 170119, Note_off_c, 0, 44, 60
1, 170133, Control_c, 0, 64, 102
1, 170148, Control_c, 0, 64, 114
1, 170158, Note_on_c, 0, 51, 56
1, 170162, Control_c, 0, 64, 127
1, 170193, Note_on_c, 0, 60, 77
1, 170195, Note_off_c, 0, 59, 62
1, 170213, Note_off_c, 0, 51, 59
1, 170216, Note_off_c, 0, 60, 66
1, 170275, Poly_aftertouch_c, 0, 60, 127
1, 170326, Poly_aftertouch_c, 0, 60, 0
1, 170341, Note_on_c, 0, 51, 62
1, 170398, Note_off_c, 0, 51, 54
1, 170433, Note_on_c, 0, 60, 58
1, 170508, Note_off_c, 0, 60, 55
1, 170531, Note_on_c, 0, 72, 91
1, 170535, Note_on_c, 0, 51, 56
1, 170586, Control_c, 0, 64, 108
1, 170600, Control_c, 0, 64, 88
1, 170615, Control_c, 0, 64, 74
1, 170630, Control_c, 0, 64, 65
1, 170645, Control_c, 0, 64, 64
1, 170660, Control_c, 0, 64, 68
1, 170675, Control_c, 0, 64, 74
1, 170685, Note_on_c, 0, 44, 69
1, 170690, Control_c, 0, 64, 85
1, 170705, Control_c, 0, 64, 95
1, 170719, Control_c, 0, 64, 103
1, 170734, Control_c, 0, 64, 108
1, 170749, Control_c, 0, 64, 112
1, 170764, Note_off_c, 0, 44, 61
1, 170764, Control_c, 0, 64, 120
1, 170779, Control_c, 0, 64, 127
1, 170782, Note_on_c, 0, 52, 60
1, 170788, Note_off_c, 0, 51, 29
1, 170843, Note_off_c, 0, 52, 61
1, 170878, Note_on_c, 0, 60, 64
1, 170886, Note_on_c, 0, 70, 88
1, 170968, Note_on_c, 0, 52, 60
1, 170973, Note_off_c, 0, 60, 61
1, 171041, Note_off_c, 0, 52, 62
1, 171066, Note_on_c, 0, 60, 60
1, 171146, Note_off_c, 0, 60, 63
1, 171164, Note_on_c, 0, 68, 86
1, 171166, Note_on_c, 0, 53, 58
1, 171200, Control_c, 0, 64, 116
1, 171215, Control_c, 0, 64, 94
1, 171230, Control_c, 0, 64, 75
1, 171240, Note_off_c, 0, 53, 64
1, 171240, Note_off_c, 0, 72, 37
1, 171244, Control_c, 0, 64, 58
1, 171259, Control_c, 0, 64, 0
1, 171267, Note_on_c, 0, 47, 57
1, 171290, Control_c, 0, 64, 17
1, 171305, Control_c, 0, 64, 51
1, 171317, Note_off_c, 0, 47, 65
1, 171320, Control_c, 0, 64, 64
1, 171335, Control_c, 0, 64, 71
1, 171349, Control_c, 0, 64, 81
1, 171359, Note_on_c, 0, 53, 60
1, 171364, Control_c, 0, 64, 89
1, 171379, Control_c, 0, 64, 93
1, 171394, Control_c, 0, 64, 95
1, 171407, Note_off_c, 0, 70, 61
1, 171409, Control_c, 0, 64, 96
1, 171420, Note_off_c, 0, 53, 60
1, 171423, Control_c, 0, 64, 96
1, 171438, Note_off_c, 0, 68, 66
1, 171438, Control_c, 0, 64, 97
1, 171447, Note_on_c, 0, 67, 78
1, 171448, Note_on_c, 0, 62, 55
1, 171522, Note_off_c, 0, 62, 61
1, 171532, Note_on_c, 0, 53, 63
1, 171581, Note_off_c, 0, 53, 57
1, 171617, Note_on_c, 0, 62, 41
1, 171656, Note_off_c, 0, 62, 51
1, 171682, Note_on_c, 0, 53, 56
1, 171699, Note_on_c, 0, 70, 71
1, 171726, Note_off_c, 0, 67, 52
1, 171734, Control_c, 0, 64, 92
1, 171742, Note_on_c, 0, 68, 69
1, 171749, Control_c, 0, 64, 81
1, 171772, Control_c, 0, 64, 68
1, 171787, Note_off_c, 0, 53, 64
1, 171787, Control_c, 0, 64, 46
1, 171801, Note_off_c, 0, 70, 56
1, 171802, Control_c, 0, 64, 0
1, 171831, Control_c, 0, 64, 45
1, 171837, Note_on_c, 0, 47, 45
1, 171846, Control_c, 0, 64, 62
1, 171861, Control_c, 0, 64, 70
1, 171873, Note_off_c, 0, 47, 63
1, 171875, Control_c, 0, 64, 81
1, 171890, Control_c, 0, 64, 91
1, 171905, Control_c, 0, 64, 96
1, 171920, Control_c, 0, 64, 99
1, 171934, Note_on_c, 0, 55, 51
1, 171934, Control_c, 0, 64, 100
1, 171949, Control_c, 0, 64, 102
1, 171964, Control_c, 0, 64, 104
1, 171979, Control_c, 0, 64, 105
1, 171986, Note_off_c, 0, 55, 58
1, 171994, Control_c, 0, 64, 105
1, 172015, Note_on_c, 0, 62, 49
1, 172021, Note_on_c, 0, 67, 72
1, 172062, Note_off_c, 0, 68, 61
1, 172118, Note_on_c, 0, 55, 49
1, 172150, Note_off_c, 0, 62, 41
1, 172158, Note_off_c, 0, 55, 61
1, 172231, Note_on_c, 0, 62, 21
1, 172293, Note_off_c, 0, 67, 62
1, 172302, Note_off_c, 0, 62, 41
1, 172319, Note_on_c, 0, 65, 63
1, 172329, Note_on_c, 0, 56, 42
1, 172342, Note_off_c, 0, 65, 62
1, 172530, Note_on_c, 0, 48, 42
1, 172533, Note_off_c, 0, 56, 42
1, 172535, Control_c, 0, 64, 105
1, 172550, Note_on_c, 0, 65, 56
1, 172550, Control_c, 0, 64, 101
1, 172565, Control_c, 0, 64, 91
1, 172580, Control_c, 0, 64, 76
1, 172595, Control_c, 0, 64, 63
1, 172609, Control_c, 0, 64, 47
1, 172624, Control_c, 0, 64, 50
1, 172639, Control_c, 0, 64, 58
1, 172642, Note_off_c, 0, 48, 63
1, 172654, Control_c, 0, 64, 64
1, 172669, Control_c, 0, 64, 69
1, 172684, Control_c, 0, 64, 78
1, 172689, Note_on_c, 0, 55, 43
1, 172698, Control_c, 0, 64, 84
1, 172713, Control_c, 0, 64, 88
1, 172726, Note_off_c, 0, 65, 59
1, 172728, Control_c, 0, 64, 89
1, 172730, Note_off_c, 0, 55, 62
1, 172743, Control_c, 0, 64, 91
1, 172750, Note_on_c, 0, 64, 54
1, 172758, Control_c, 0, 64, 91
1, 172762, Note_on_c, 0, 58, 48
1, 172771, Note_off_c, 0, 64, 60
1, 172772, Control_c, 0, 64, 92
1, 172794, Note_off_c, 0, 58, 52
1, 172879, Note_on_c, 0, 61, 14
1, 172926, Note_off_c, 0, 61, 52
1, 172970, Poly_aftertouch_c, 0, 58, 127
1, 173000, Poly_aftertouch_c, 0, 58, 0
1, 173019, Note_on_c, 0, 55, 24
1, 173076, Note_on_c, 0, 73, 56
1, 173083, Note_on_c, 0, 70, 40
1, 173188, Control_c, 0, 64, 87
1, 173203, Control_c, 0, 64, 81
1, 173210, Note_off_c, 0, 70, 56
1, 173212, Note_on_c, 0, 48, 43
1, 173218, Control_c, 0, 64, 72
1, 173220, Note_off_c, 0, 55, 39
1, 173232, Control_c, 0, 64, 67
1, 173242, Note_off_c, 0, 73, 62
1, 173247, Control_c, 0, 64, 65
1, 173263, Note_on_c, 0, 72, 59
1, 173269, Control_c, 0, 64, 66
1, 173274, Note_on_c, 0, 68, 44
1, 173284, Control_c, 0, 64, 68
1, 173299, Control_c, 0, 64, 71
1, 173312, Note_off_c, 0, 48, 60
1, 173313, Control_c, 0, 64, 75
1, 173328, Control_c, 0, 64, 79
1, 173343, Control_c, 0, 64, 82
1, 173349, Note_off_c, 0, 68, 59
1, 173358, Control_c, 0, 64, 84
1, 173370, Note_on_c, 0, 56, 51
1, 173373, Control_c, 0, 64, 86
1, 173387, Control_c, 0, 64, 89
1, 173398, Note_off_c, 0, 72, 62
1, 173402, Control_c, 0, 64, 90
1, 173405, Note_on_c, 0, 70, 67
1, 173409, Note_on_c, 0, 67, 54
1, 173416, Note_off_c, 0, 56, 55
1, 173417, Control_c, 0, 64, 91
1, 173432, Control_c, 0, 64, 92
1, 173435, Note_off_c, 0, 67, 55
1, 173444, Note_on_c, 0, 59, 48
1, 173447, Control_c, 0, 64, 93
1, 173462, Control_c, 0, 64, 93
1, 173469, Note_off_c, 0, 70, 63
1, 173470, Note_off_c, 0, 59, 60
1, 173477, Control_c, 0, 64, 94
1, 173492, Control_c, 0, 64, 94
1, 173538, Note_on_c, 0, 68, 57
1, 173540, Note_on_c, 0, 65, 49
1, 173551, Control_c, 0, 64, 95
1, 173557, Poly_aftertouch_c, 0, 62, 127
1, 173583, Note_off_c, 0, 65, 44
1, 173598, Note_on_c, 0, 56, 52
1, 173598, Poly_aftertouch_c, 0, 62, 0
1, 173607, Note_off_c, 0, 68, 62
1, 173610, Control_c, 0, 64, 95
1, 173630, Note_off_c, 0, 56, 58
1, 173654, Control_c, 0, 64, 96
1, 173666, Note_on_c, 0, 77, 55
1, 173674, Note_on_c, 0, 74, 40
1, 173685, Control_c, 0, 64, 96
1, 173699, Note_off_c, 0, 77, 52
1, 173700, Control_c, 0, 64, 97
1, 173709, Note_off_c, 0, 74, 50
1, 173715, Control_c, 0, 64, 97
1, 173730, Control_c, 0, 64, 98
1, 173759, Control_c, 0, 64, 97
1, 173774, Control_c, 0, 64, 91
1, 173788, Note_on_c, 0, 48, 38
1, 173789, Control_c, 0, 64, 82
1, 173803, Control_c, 0, 64, 70
1, 173811, Note_on_c, 0, 76, 57
1, 173818, Control_c, 0, 64, 58
1, 173826, Note_on_c, 0, 72, 51
1, 173833, Control_c, 0, 64, 57
1, 173844, Note_off_c, 0, 48, 61
1, 173848, Control_c, 0, 64, 62
1, 173862, Control_c, 0, 64, 66
1, 173877, Control_c, 0, 64, 72
1, 173885, Note_off_c, 0, 76, 51
1, 173892, Control_c, 0, 64, 79
1, 173906, Note_on_c, 0, 55, 33
1, 173907, Control_c, 0, 64, 87
1, 173922, Control_c, 0, 64, 92
1, 173936, Note_off_c, 0, 72, 62
1, 173936, Control_c, 0, 64, 95
1, 173942, Note_on_c, 0, 67, 60
1, 173945, Note_off_c, 0, 55, 53
1, 173951, Note_on_c, 0, 64, 52
1, 173951, Control_c, 0, 64, 97
1, 173966, Control_c, 0, 64, 98
1, 173969, Note_off_c, 0, 67, 63
1, 173975, Note_off_c, 0, 64, 61
1, 173981, Control_c, 0, 64, 98
1, 173996, Control_c, 0, 64, 99
1, 174075, Note_on_c, 0, 61, 39
1, 174106, Note_off_c, 0, 61, 55
1, 174171, Note_on_c, 0, 55, 47
1, 174219, Note_on_c, 0, 70, 62
1, 174225, Note_on_c, 0, 73, 75
1, 174240, Control_c, 0, 64, 97
1, 174255, Control_c, 0, 64, 89
1, 174267, Note_off_c, 0, 55, 52
1, 174270, Control_c, 0, 64, 77
1, 174285, Control_c, 0, 64, 64
1, 174300, Control_c, 0, 64, 40
1, 174315, Note_on_c, 0, 48, 46
1, 174315, Control_c, 0, 64, 39
1, 174325, Note_off_c, 0, 70, 60
1, 174330, Control_c, 0, 64, 51
1, 174344, Control_c, 0, 64, 61
1, 174351, Note_on_c, 0, 72, 73
1, 174359, Note_on_c, 0, 68, 64
1, 174359, Control_c, 0, 64, 67
1, 174374, Control_c, 0, 64, 74
1, 174384, Note_off_c, 0, 48, 58
1, 174389, Note_off_c, 0, 73, 62
1, 174389, Control_c, 0, 64, 84
1, 174404, Control_c, 0, 64, 90
1, 174419, Control_c, 0, 64, 93
1, 174422, Note_on_c, 0, 56, 53
1, 174434, Control_c, 0, 64, 95
1, 174436, Note_off_c, 0, 68, 61
1, 174449, Control_c, 0, 64, 97
1, 174463, Control_c, 0, 64, 99
1, 174478, Note_on_c, 0, 67, 65
1, 174478, Control_c, 0, 64, 101
1, 174484, Note_off_c, 0, 56, 60
1, 174486, Note_on_c, 0, 70, 82
1, 174493, Control_c, 0, 64, 102
1, 174497, Note_on_c, 0, 59, 60
1, 174508, Control_c, 0, 64, 105
1, 174510, Note_off_c, 0, 67, 64
1, 174522, Note_off_c, 0, 72, 60
1, 174523, Control_c, 0, 64, 108
1, 174538, Control_c, 0, 64, 111
1, 174542, Note_off_c, 0, 59, 59
1, 174553, Control_c, 0, 64, 115
1, 174568, Control_c, 0, 64, 119
1, 174580, Note_on_c, 0, 62, 46
1, 174583, Control_c, 0, 64, 125
1, 174596, Note_off_c, 0, 70, 63
1, 174598, Control_c, 0, 64, 127
1, 174601, Note_on_c, 0, 65, 74
1, 174603, Note_on_c, 0, 68, 73
1, 174624, Note_off_c, 0, 62, 57
1, 174674, Note_on_c, 0, 56, 53
1, 174686, Note_off_c, 0, 65, 59
1, 174695, Note_off_c, 0, 68, 61
1, 174717, Note_off_c, 0, 56, 60
1, 174736, Note_on_c, 0, 74, 66
1, 174738, Note_on_c, 0, 77, 75
1, 174801, Note_off_c, 0, 77, 59
1, 174809, Note_off_c, 0, 74, 57
1, 174857, Control_c, 0, 64, 117
1, 174872, Control_c, 0, 64, 91
1, 174878, Note_on_c, 0, 48, 50
1, 174886, Control_c, 0, 64, 73
1, 174901, Control_c, 0, 64, 57
1, 174902, Note_on_c, 0, 76, 74
1, 174905, Note_on_c, 0, 72, 73
1, 174916, Control_c, 0, 64, 44
1, 174931, Control_c, 0, 64, 54
1, 174946, Control_c, 0, 64, 62
1, 174960, Control_c, 0, 64, 68
1, 174975, Control_c, 0, 64, 77
1, 174988, Note_off_c, 0, 48, 60
1, 174990, Control_c, 0, 64, 89
1, 175005, Control_c, 0, 64, 104
1, 175008, Note_off_c, 0, 76, 62
1, 175020, Control_c, 0, 64, 127
1, 175024, Note_on_c, 0, 55, 53
1, 175030, Note_on_c, 0, 67, 67
1, 175049, Note_off_c, 0, 72, 62
1, 175051, Note_on_c, 0, 64, 60
1, 175062, Note_off_c, 0, 67, 66
1, 175070, Note_off_c, 0, 64, 64
1, 175096, Note_on_c, 0, 60, 57
1, 175101, Note_off_c, 0, 55, 56
1, 175158, Note_off_c, 0, 60, 62
1, 175159, Note_on_c, 0, 64, 56
1, 175221, Note_off_c, 0, 64, 59
1, 175244, Note_on_c, 0, 60, 47
1, 175285, Note_off_c, 0, 60, 63
1, 175293, Note_on_c, 0, 80, 80
1, 175295, Note_on_c, 0, 77, 74
1, 175307, Note_on_c, 0, 55, 60
1, 175319, Note_off_c, 0, 77, 68
1, 175346, Note_off_c, 0, 80, 64
1, 175414, Note_off_c, 0, 55, 58
1, 175432, Note_on_c, 0, 48, 66
1, 175435, Control_c, 0, 64, 91
1, 175450, Note_on_c, 0, 79, 74
1, 175450, Control_c, 0, 64, 73
1, 175453, Note_on_c, 0, 76, 80
1, 175464, Control_c, 0, 64, 61
1, 175479, Control_c, 0, 64, 59
1, 175494, Control_c, 0, 64, 65
1, 175516, Control_c, 0, 64, 72
1, 175519, Note_off_c, 0, 48, 58
1, 175531, Control_c, 0, 64, 84
1, 175546, Note_on_c, 0, 55, 51
1, 175546, Control_c, 0, 64, 97
1, 175561, Control_c, 0, 64, 109
1, 175575, Control_c, 0, 64, 123
1, 175580, Note_on_c, 0, 72, 73
1, 175584, Note_on_c, 0, 67, 76
1, 175585, Note_off_c, 0, 79, 57
1, 175590, Control_c, 0, 64, 127
1, 175593, Note_off_c, 0, 76, 59
1, 175605, Note_off_c, 0, 72, 68
1, 175611, Note_off_c, 0, 67, 68
1, 175622, Note_on_c, 0, 60, 63
1, 175632, Note_off_c, 0, 55, 61
1, 175685, Note_off_c, 0, 60, 64
1, 175710, Note_on_c, 0, 64, 53
1, 175769, Note_off_c, 0, 64, 61
1, 175783, Note_on_c, 0, 60, 52
1, 175830, Note_off_c, 0, 60, 61
1, 175861, Note_on_c, 0, 55, 51
1, 175867, Note_on_c, 0, 80, 81
1, 175867, Note_on_c, 0, 84, 82
1, 175993, Note_off_c, 0, 84, 58
1, 176069, Note_off_c, 0, 80, 61
1, 176071, Note_on_c, 0, 48, 55
1, 176077, Note_off_c, 0, 55, 45
1, 176089, Note_on_c, 0, 79, 80
1, 176094, Control_c, 0, 64, 91
1, 176096, Note_on_c, 0, 84, 79
1, 176109, Control_c, 0, 64, 71
1, 176124, Control_c, 0, 64, 50
1, 176139, Control_c, 0, 64, 37
1, 176154, Control_c, 0, 64, 53
1, 176169, Control_c, 0, 64, 64
1, 176177, Note_off_c, 0, 48, 61
1, 176184, Control_c, 0, 64, 72
1, 176198, Control_c, 0, 64, 88
1, 176202, Note_on_c, 0, 55, 58
1, 176213, Control_c, 0, 64, 106
1, 176228, Control_c, 0, 64, 127
1, 176261, Note_off_c, 0, 84, 63
1, 176286, Note_off_c, 0, 55, 59
1, 176288, Note_on_c, 0, 60, 64
1, 176324, Note_on_c, 0, 84, 68
1, 176330, Note_on_c, 0, 72, 63
1, 176386, Note_off_c, 0, 60, 62
1, 176434, Note_on_c, 0, 64, 40
1, 176486, Note_off_c, 0, 72, 57
1, 176488, Note_off_c, 0, 64, 59
1, 176497, Note_off_c, 0, 84, 63
1, 176523, Note_on_c, 0, 60, 46
1, 176573, Note_off_c, 0, 60, 59
1, 176616, Note_on_c, 0, 55, 47
1, 176652, Note_on_c, 0, 84, 72
1, 176658, Note_off_c, 0, 79, 59
1, 176662, Note_on_c, 0, 72, 60
1, 176733, Note_off_c, 0, 55, 56
1, 176780, Note_on_c, 0, 48, 45
1, 176824, Note_off_c, 0, 48, 54
1, 176862, Note_off_c, 0, 84, 59
1, 176865, Note_off_c, 0, 72, 54
1, 176872, Note_on_c, 0, 55, 44
1, 176959, Note_off_c, 0, 55, 55
1, 176994, Note_on_c, 0, 60, 49
1, 177014, Note_on_c, 0, 84, 64
1, 177019, Note_on_c, 0, 72, 50
1, 177155, Note_off_c, 0, 60, 34
1, 177195, Note_on_c, 0, 64, 39
1, 177231, Note_off_c, 0, 72, 37
1, 177260, Note_off_c, 0, 84, 56
1, 177309, Note_off_c, 0, 64, 32
1, 177314, Note_on_c, 0, 60, 30
1, 177499, Note_on_c, 0, 55, 48
1, 177507, Note_on_c, 0, 84, 65
1, 177516, Note_on_c, 0, 72, 46
1, 177523, Note_off_c, 0, 60, 45
1, 177537, Note_off_c, 0, 55, 63
1, 177540, Note_off_c, 0, 72, 57
1, 177560, Note_off_c, 0, 84, 60
1, 177916, Note_on_c, 0, 44, 36
1, 177970, Control_c, 0, 64, 110
1, 177973, Note_on_c, 0, 84, 65
1, 177981, Note_on_c, 0, 80, 46
1, 177984, Control_c, 0, 64, 92
1, 177999, Control_c, 0, 64, 75
1, 178014, Control_c, 0, 64, 61
1, 178029, Control_c, 0, 64, 36
1, 178059, Control_c, 0, 64, 50
1, 178074, Control_c, 0, 64, 60
1, 178089, Control_c, 0, 64, 66
1, 178103, Control_c, 0, 64, 76
1, 178118, Control_c, 0, 64, 87
1, 178133, Control_c, 0, 64, 97
1, 178134, Note_off_c, 0, 44, 54
1, 178148, Control_c, 0, 64, 102
1, 178163, Control_c, 0, 64, 107
1, 178178, Control_c, 0, 64, 111
1, 178193, Control_c, 0, 64, 114
1, 178208, Control_c, 0, 64, 115
1, 178222, Control_c, 0, 64, 117
1, 178237, Control_c, 0, 64, 120
1, 178252, Control_c, 0, 64, 127
1, 178327, Note_on_c, 0, 63, 41
1, 178399, Note_off_c, 0, 80, 63
1, 178401, Note_off_c, 0, 84, 64
1, 178417, Note_on_c, 0, 85, 79
1, 178442, Note_on_c, 0, 75, 36
1, 178485, Note_off_c, 0, 63, 37
1, 178513, Note_on_c, 0, 56, 48
1, 178615, Note_off_c, 0, 75, 40
1, 178631, Note_off_c, 0, 56, 54
1, 178637, Note_on_c, 0, 86, 77
1, 178637, Note_off_c, 0, 85, 61
1, 178643, Note_on_c, 0, 51, 48
1, 178655, Note_on_c, 0, 80, 34
1, 178687, Note_off_c, 0, 80, 53
1, 178696, Note_off_c, 0, 51, 56
1, 178732, Note_on_c, 0, 63, 38
1, 178765, Note_off_c, 0, 63, 59
1, 178787, Note_on_c, 0, 87, 84
1, 178804, Note_off_c, 0, 86, 63
1, 178807, Note_on_c, 0, 56, 57
1, 178840, Note_off_c, 0, 56, 65
1, 178882, Control_c, 0, 64, 112
1, 178897, Control_c, 0, 64, 92
1, 178912, Control_c, 0, 64, 76
1, 178921, Note_on_c, 0, 46, 60
1, 178926, Control_c, 0, 64, 67
1, 178938, Note_off_c, 0, 87, 62
1, 178941, Control_c, 0, 64, 65
1, 178946, Note_on_c, 0, 89, 80
1, 178947, Note_off_c, 0, 46, 67
1, 178956, Control_c, 0, 64, 68
1, 178964, Note_on_c, 0, 79, 59
1, 178971, Control_c, 0, 64, 75
1, 178986, Control_c, 0, 64, 86
1, 179000, Control_c, 0, 64, 101
1, 179015, Control_c, 0, 64, 123
1, 179030, Control_c, 0, 64, 127
1, 179051, Note_off_c, 0, 79, 31
1, 179066, Note_on_c, 0, 63, 48
1, 179125, Note_on_c, 0, 85, 55
1, 179133, Note_off_c, 0, 63, 55
1, 179135, Note_on_c, 0, 87, 80
1, 179139, Note_off_c, 0, 89, 62
1, 179144, Note_off_c, 0, 85, 63
1, 179167, Note_on_c, 0, 55, 47
1, 179173, Note_off_c, 0, 87, 62
1, 179208, Note_on_c, 0, 85, 81
1, 179382, Note_on_c, 0, 51, 43
1, 179390, Note_off_c, 0, 55, 36
1, 179424, Control_c, 0, 64, 107
1, 179425, Note_on_c, 0, 96, 84
1, 179439, Control_c, 0, 64, 90
1, 179454, Control_c, 0, 64, 82
1, 179468, Control_c, 0, 64, 81
1, 179481, Note_off_c, 0, 85, 61
1, 179483, Control_c, 0, 64, 82
1, 179498, Control_c, 0, 64, 87
1, 179513, Control_c, 0, 64, 95
1, 179528, Control_c, 0, 64, 110
1, 179543, Control_c, 0, 64, 127
1, 179544, Note_on_c, 0, 63, 57
1, 179618, Note_off_c, 0, 63, 62
1, 179645, Note_off_c, 0, 51, 57
1, 179646, Note_on_c, 0, 55, 56
1, 179668, Note_off_c, 0, 96, 57
1, 179674, Note_off_c, 0, 55, 63
1, 179700, Note_on_c, 0, 94, 75
1, 179713, Note_on_c, 0, 87, 57
1, 179722, Note_off_c, 0, 94, 71
1, 179733, Note_off_c, 0, 87, 61
1, 179749, Control_c, 0, 64, 108
1, 179764, Control_c, 0, 64, 88
1, 179775, Note_on_c, 0, 48, 57
1, 179779, Control_c, 0, 64, 72
1, 179793, Note_on_c, 0, 94, 84
1, 179793, Control_c, 0, 64, 63
1, 179796, Note_on_c, 0, 84, 63
1, 179808, Control_c, 0, 64, 64
1, 179812, Note_off_c, 0, 48, 63
1, 179823, Control_c, 0, 64, 70
1, 179838, Control_c, 0, 64, 79
1, 179853, Control_c, 0, 64, 90
1, 179868, Control_c, 0, 64, 99
1, 179882, Control_c, 0, 64, 105
1, 179897, Note_off_c, 0, 84, 0
1, 179897, Note_on_c, 0, 84, 9
1, 179897, Control_c, 0, 64, 109
1, 179912, Control_c, 0, 64, 111
1, 179927, Control_c, 0, 64, 113
1, 179942, Control_c, 0, 64, 116
1, 179956, Control_c, 0, 64, 118
1, 179971, Control_c, 0, 64, 120
1, 179975, Note_on_c, 0, 63, 53
1, 179986, Control_c, 0, 64, 121
1, 179989, Note_off_c, 0, 94, 59
1, 180008, Control_c, 0, 64, 122
1, 180035, Note_off_c, 0, 84, 52
1, 180036, Note_off_c, 0, 63, 59
1, 180038, Control_c, 0, 64, 123
1, 180053, Control_c, 0, 64, 125
1, 180066, Note_on_c, 0, 92, 85
1, 180068, Control_c, 0, 64, 127
1, 180094, Note_on_c, 0, 87, 52
1, 180148, Note_on_c, 0, 56, 37
1, 180165, Note_off_c, 0, 87, 0
1, 180165, Note_on_c, 0, 87, 21
1, 180217, Control_c, 0, 64, 113
1, 180231, Control_c, 0, 64, 94
1, 180239, Note_off_c, 0, 92, 62
1, 180242, Note_off_c, 0, 87, 59
1, 180246, Control_c, 0, 64, 79
1, 180248, Note_on_c, 0, 48, 52
1, 180261, Control_c, 0, 64, 70
1, 180265, Note_on_c, 0, 91, 76
1, 180276, Control_c, 0, 64, 69
1, 180280, Note_off_c, 0, 48, 60
1, 180282, Note_on_c, 0, 82, 51
1, 180291, Control_c, 0, 64, 72
1, 180294, Note_off_c, 0, 56, 41
1, 180305, Note_off_c, 0, 82, 59
1, 180305, Control_c, 0, 64, 78
1, 180320, Control_c, 0, 64, 87
1, 180335, Control_c, 0, 64, 98
1, 180350, Control_c, 0, 64, 108
1, 180365, Control_c, 0, 64, 113
1, 180379, Control_c, 0, 64, 117
1, 180394, Control_c, 0, 64, 118
1, 180399, Note_on_c, 0, 64, 57
1, 180401, Note_on_c, 0, 80, 60
1, 180402, Note_on_c, 0, 89, 74
1, 180407, Note_off_c, 0, 91, 60
1, 180409, Control_c, 0, 64, 120
1, 180419, Note_off_c, 0, 80, 66
1, 180424, Control_c, 0, 64, 125
1, 180429, Note_off_c, 0, 64, 63
1, 180438, Control_c, 0, 64, 127
1, 180472, Note_off_c, 0, 89, 55
1, 180491, Note_on_c, 0, 58, 57
1, 180499, Note_on_c, 0, 88, 78
1, 180522, Note_on_c, 0, 79, 33
1, 180532, Note_off_c, 0, 58, 59
1, 180542, Control_c, 0, 64, 117
1, 180550, Note_off_c, 0, 88, 67
1, 180557, Control_c, 0, 64, 100
1, 180559, Note_off_c, 0, 79, 50
1, 180571, Control_c, 0, 64, 80
1, 180586, Control_c, 0, 64, 66
1, 180593, Note_on_c, 0, 53, 49
1, 180601, Control_c, 0, 64, 56
1, 180604, Note_on_c, 0, 82, 69
1, 180609, Note_on_c, 0, 91, 71
1, 180616, Control_c, 0, 64, 59
1, 180625, Note_off_c, 0, 53, 67
1, 180631, Note_off_c, 0, 82, 68
1, 180631, Control_c, 0, 64, 64
1, 180640, Note_off_c, 0, 91, 66
1, 180646, Control_c, 0, 64, 71
1, 180661, Control_c, 0, 64, 85
1, 180676, Control_c, 0, 64, 103
1, 180691, Control_c, 0, 64, 127
1, 180701, Note_on_c, 0, 68, 65
1, 180795, Note_off_c, 0, 68, 54
1, 180820, Note_on_c, 0, 60, 54
1, 180874, Note_on_c, 0, 89, 64
1, 180881, Note_on_c, 0, 80, 57
1, 180892, Note_off_c, 0, 89, 64
1, 180900, Note_off_c, 0, 80, 63
1, 180902, Note_off_c, 0, 60, 56
1, 180921, Control_c, 0, 64, 114
1, 180935, Control_c, 0, 64, 92
1, 180950, Control_c, 0, 64, 70
1, 180952, Note_on_c, 0, 58, 56
1, 180952, Note_on_c, 0, 80, 71
1, 180959, Note_on_c, 0, 89, 68
1, 180965, Control_c, 0, 64, 51
1, 180980, Control_c, 0, 64, 13
1, 180995, Control_c, 0, 64, 29
1, 181010, Control_c, 0, 64, 49
1, 181025, Control_c, 0, 64, 60
1, 181039, Control_c, 0, 64, 66
1, 181054, Control_c, 0, 64, 75
1, 181069, Control_c, 0, 64, 85
1, 181074, Note_off_c, 0, 58, 0
1, 181074, Note_on_c, 0, 58, 3
1, 181084, Control_c, 0, 64, 95
1, 181087, Note_on_c, 0, 68, 44
1, 181099, Control_c, 0, 64, 101
1, 181104, Note_on_c, 0, 87, 74
1, 181114, Control_c, 0, 64, 104
1, 181128, Control_c, 0, 64, 106
1, 181143, Control_c, 0, 64, 109
1, 181158, Control_c, 0, 64, 110
1, 181165, Note_off_c, 0, 89, 46
1, 181173, Control_c, 0, 64, 111
1, 181177, Note_off_c, 0, 68, 60
1, 181200, Note_on_c, 0, 65, 56
1, 181201, Note_off_c, 0, 80, 58
1, 181202, Control_c, 0, 64, 112
1, 181215, Note_on_c, 0, 86, 64
1, 181217, Control_c, 0, 64, 113
1, 181218, Note_off_c, 0, 58, 51
1, 181219, Note_on_c, 0, 82, 59
1, 181224, Note_off_c, 0, 65, 58
1, 181230, Note_off_c, 0, 87, 53
1, 181320, Control_c, 0, 64, 113
1, 181350, Control_c, 0, 64, 113
1, 181365, Control_c, 0, 64, 111
1, 181380, Control_c, 0, 64, 101
1, 181389, Note_off_c, 0, 82, 47
1, 181393, Note_on_c, 0, 51, 50
1, 181393, Note_off_c, 0, 86, 59
1, 181394, Control_c, 0, 64, 88
1, 181409, Control_c, 0, 64, 76
1, 181424, Control_c, 0, 64, 70
1, 181430, Note_on_c, 0, 89, 57
1, 181436, Note_on_c, 0, 79, 46
1, 181439, Control_c, 0, 64, 71
1, 181454, Control_c, 0, 64, 74
1, 181469, Note_off_c, 0, 51, 62
1, 181469, Control_c, 0, 64, 80
1, 181484, Control_c, 0, 64, 88
1, 181506, Control_c, 0, 64, 96
1, 181521, Control_c, 0, 64, 102
1, 181535, Control_c, 0, 64, 104
1, 181550, Control_c, 0, 64, 106
1, 181565, Control_c, 0, 64, 107
1, 181587, Note_on_c, 0, 67, 37
1, 181630, Note_off_c, 0, 79, 37
1, 181645, Note_on_c, 0, 87, 75
1, 181653, Note_on_c, 0, 82, 58
1, 181670, Note_off_c, 0, 67, 38
1, 181678, Note_on_c, 0, 63, 44
1, 181689, Note_off_c, 0, 89, 54
1, 181714, Control_c, 0, 64, 106
1, 181729, Control_c, 0, 64, 99
1, 181740, Note_off_c, 0, 63, 57
1, 181744, Control_c, 0, 64, 86
1, 181758, Control_c, 0, 64, 72
1, 181768, Note_off_c, 0, 82, 50
1, 181773, Control_c, 0, 64, 58
1, 181783, Note_on_c, 0, 85, 72
1, 181788, Note_on_c, 0, 56, 47
1, 181788, Note_off_c, 0, 87, 62
1, 181788, Control_c, 0, 64, 49
1, 181803, Control_c, 0, 64, 58
1, 181806, Note_on_c, 0, 78, 51
1, 181817, Control_c, 0, 64, 64
1, 181832, Control_c, 0, 64, 70
1, 181847, Control_c, 0, 64, 78
1, 181862, Control_c, 0, 64, 87
1, 181862, Note_off_c, 0, 78, 54
1, 181876, Control_c, 0, 64, 95
1, 181886, Note_on_c, 0, 66, 52
1, 181891, Control_c, 0, 64, 98
1, 181906, Control_c, 0, 64, 101
1, 181921, Control_c, 0, 64, 101
1, 181935, Note_on_c, 0, 84, 77
1, 181935, Note_off_c, 0, 66, 62
1, 181936, Control_c, 0, 64, 102
1, 181942, Note_on_c, 0, 80, 69
1, 181965, Control_c, 0, 64, 102
1, 181974, Note_on_c, 0, 63, 42
1, 181977, Note_off_c, 0, 56, 63
1, 181980, Control_c, 0, 64, 103
1, 181995, Control_c, 0, 64, 105
1, 182003, Note_off_c, 0, 85, 33
1, 182004, Note_off_c, 0, 63, 56
1, 182010, Control_c, 0, 64, 107
1, 182024, Control_c, 0, 64, 109
1, 182039, Control_c, 0, 64, 108
1, 182054, Control_c, 0, 64, 106
1, 182068, Note_off_c, 0, 80, 64
1, 182068, Control_c, 0, 64, 99
1, 182077, Note_on_c, 0, 49, 66
1, 182079, Note_off_c, 0, 84, 64
1, 182083, Control_c, 0, 64, 86
1, 182098, Control_c, 0, 64, 78
1, 182100, Note_on_c, 0, 87, 83
1, 182110, Note_off_c, 0, 49, 63
1, 182113, Control_c, 0, 64, 77
1, 182117, Note_on_c, 0, 77, 49
1, 182128, Control_c, 0, 64, 79
1, 182142, Control_c, 0, 64, 84
1, 182157, Control_c, 0, 64, 94
1, 182172, Note_off_c, 0, 77, 44
1, 182172, Control_c, 0, 64, 106
1, 182187, Control_c, 0, 64, 127
1, 182227, Note_on_c, 0, 65, 46
1, 182259, Note_on_c, 0, 85, 79
1, 182271, Note_on_c, 0, 80, 67
1, 182284, Note_off_c, 0, 65, 54
1, 182298, Note_off_c, 0, 87, 64
1, 182309, Note_on_c, 0, 61, 48
1, 182354, Note_off_c, 0, 61, 49
1, 182358, Note_off_c, 0, 80, 63
1, 182372, Control_c, 0, 64, 111
1, 182378, Note_off_c, 0, 85, 62
1, 182387, Control_c, 0, 64, 99
1, 182402, Control_c, 0, 64, 94
1, 182412, Note_on_c, 0, 58, 48
1, 182413, Note_on_c, 0, 84, 78
1, 182432, Control_c, 0, 64, 96
1, 182433, Note_on_c, 0, 73, 59
1, 182446, Control_c, 0, 64, 102
1, 182458, Note_off_c, 0, 58, 49
1, 182461, Control_c, 0, 64, 114
1, 182477, Control_c, 0, 64, 127
1, 182496, Note_off_c, 0, 73, 35
1, 182530, Note_on_c, 0, 65, 38
1, 182569, Note_off_c, 0, 84, 63
1, 182572, Note_on_c, 0, 82, 80
1, 182582, Note_on_c, 0, 77, 61
1, 182583, Note_off_c, 0, 65, 59
1, 182609, Note_on_c, 0, 61, 50
1, 182610, Note_off_c, 0, 77, 67
1, 182631, Note_off_c, 0, 61, 58
1, 182635, Note_off_c, 0, 82, 64
1, 182789, Note_on_c, 0, 51, 35
1, 182803, Control_c, 0, 64, 108
1, 182817, Control_c, 0, 64, 88
1, 182825, Note_on_c, 0, 82, 73
1, 182832, Control_c, 0, 64, 72
1, 182840, Note_on_c, 0, 72, 50
1, 182847, Control_c, 0, 64, 57
1, 182862, Control_c, 0, 64, 55
1, 182877, Control_c, 0, 64, 62
1, 182891, Control_c, 0, 64, 68
1, 182906, Control_c, 0, 64, 76
1, 182921, Control_c, 0, 64, 90
1, 182936, Control_c, 0, 64, 106
1, 182951, Control_c, 0, 64, 115
1, 182965, Control_c, 0, 64, 120
1, 182966, Note_on_c, 0, 63, 47
1, 182980, Control_c, 0, 64, 127
1, 182998, Note_off_c, 0, 72, 56
1, 183024, Note_off_c, 0, 82, 65
1, 183028, Note_on_c, 0, 80, 76
1, 183031, Note_off_c, 0, 63, 58
1, 183042, Note_on_c, 0, 75, 55
1, 183084, Note_on_c, 0, 60, 43
1, 183142, Note_off_c, 0, 60, 59
1, 183145, Note_off_c, 0, 75, 62
1, 183160, Note_off_c, 0, 80, 62
1, 183179, Note_on_c, 0, 56, 51
1, 183182, Note_off_c, 0, 51, 43
1, 183183, Note_on_c, 0, 79, 79
1, 183203, Note_on_c, 0, 68, 56
1, 183212, Note_off_c, 0, 56, 64
1, 183225, Note_off_c, 0, 68, 63
1, 183266, Note_on_c, 0, 63, 50
1, 183329, Note_off_c, 0, 63, 59
1, 183338, Note_on_c, 0, 77, 76
1, 183349, Note_on_c, 0, 60, 51
1, 183356, Note_off_c, 0, 79, 42
1, 183369, Note_on_c, 0, 72, 36
1, 183371, Note_off_c, 0, 60, 61
1, 183400, Note_off_c, 0, 72, 52
1, 183525, Note_on_c, 0, 39, 59
1, 183537, Control_c, 0, 64, 97
1, 183543, Note_on_c, 0, 75, 74
1, 183552, Control_c, 0, 64, 79
1, 183558, Note_on_c, 0, 67, 55
1, 183561, Note_off_c, 0, 39, 63
1, 183567, Control_c, 0, 64, 67
1, 183567, Note_off_c, 0, 77, 58
1, 183582, Control_c, 0, 64, 62
1, 183596, Control_c, 0, 64, 65
1, 183611, Control_c, 0, 64, 71
1, 183626, Control_c, 0, 64, 80
1, 183640, Control_c, 0, 64, 93
1, 183655, Control_c, 0, 64, 110
1, 183670, Control_c, 0, 64, 127
1, 183751, Note_on_c, 0, 61, 46
1, 183766, Note_on_c, 0, 76, 81
1, 183770, Note_off_c, 0, 67, 43
1, 183791, Note_on_c, 0, 73, 48
1, 183807, Note_off_c, 0, 75, 52
1, 183817, Note_off_c, 0, 61, 59
1, 183848, Note_on_c, 0, 55, 44
1, 183985, Note_off_c, 0, 76, 57
1, 183988, Note_off_c, 0, 55, 35
1, 184003, Note_off_c, 0, 73, 43
1, 184010, Note_on_c, 0, 51, 42
1, 184026, Note_on_c, 0, 79, 69
1, 184026, Note_on_c, 0, 67, 56
1, 184196, Note_on_c, 0, 77, 68
1, 184202, Note_on_c, 0, 61, 40
1, 184211, Note_off_c, 0, 79, 56
1, 184314, Note_off_c, 0, 61, 35
1, 184357, Note_on_c, 0, 55, 38
1, 184360, Note_on_c, 0, 73, 69
1, 184372, Note_on_c, 0, 70, 58
1, 184374, Note_off_c, 0, 77, 61
1, 184391, Note_off_c, 0, 55, 49
1, 184396, Note_off_c, 0, 51, 49
1, 184405, Note_off_c, 0, 70, 64
1, 184423, Note_off_c, 0, 73, 60
1, 184619, Note_on_c, 0, 44, 46
1, 184634, Control_c, 0, 64, 117
1, 184637, Note_on_c, 0, 72, 71
1, 184646, Note_on_c, 0, 68, 61
1, 184649, Control_c, 0, 64, 94
1, 184664, Control_c, 0, 64, 74
1, 184671, Note_off_c, 0, 67, 54
1, 184679, Control_c, 0, 64, 61
1, 184694, Control_c, 0, 64, 51
1, 184709, Control_c, 0, 64, 58
1, 184724, Control_c, 0, 64, 65
1, 184739, Control_c, 0, 64, 74
1, 184753, Control_c, 0, 64, 94
1, 184761, Note_off_c, 0, 44, 60
1, 184768, Control_c, 0, 64, 127
1, 184908, Note_on_c, 0, 60, 40
1, 184951, Note_off_c, 0, 68, 63
1, 184988, Note_on_c, 0, 73, 80
1, 185016, Note_on_c, 0, 63, 42
1, 185017, Note_off_c, 0, 72, 60
1, 185086, Note_off_c, 0, 60, 43
1, 185118, Note_on_c, 0, 56, 34
1, 185146, Note_off_c, 0, 63, 54
1, 185162, Note_off_c, 0, 56, 47
1, 185186, Note_on_c, 0, 74, 78
1, 185187, Note_off_c, 0, 73, 60
1, 185189, Note_on_c, 0, 51, 51
1, 185203, Note_on_c, 0, 68, 44
1, 185229, Note_off_c, 0, 68, 56
1, 185252, Note_off_c, 0, 51, 56
1, 185313, Note_on_c, 0, 60, 44
1, 185342, Note_on_c, 0, 75, 81
1, 185355, Note_off_c, 0, 74, 63
1, 185363, Note_off_c, 0, 60, 63
1, 185364, Note_on_c, 0, 63, 38
1, 185395, Note_off_c, 0, 63, 54
1, 185404, Note_on_c, 0, 56, 56
1, 185433, Note_off_c, 0, 56, 63
1, 185442, Control_c, 0, 64, 125
1, 185457, Control_c, 0, 64, 95
1, 185472, Control_c, 0, 64, 77
1, 185479, Note_off_c, 0, 75, 59
1, 185487, Control_c, 0, 64, 65
1, 185490, Note_on_c, 0, 46, 67
1, 185502, Control_c, 0, 64, 61
1, 185508, Note_on_c, 0, 77, 80
1, 185517, Control_c, 0, 64, 65
1, 185525, Note_on_c, 0, 67, 67
1, 185532, Control_c, 0, 64, 71
1, 185533, Note_off_c, 0, 46, 66
1, 185547, Control_c, 0, 64, 83
1, 185561, Control_c, 0, 64, 102
1, 185575, Control_c, 0, 64, 127
1, 185635, Note_on_c, 0, 61, 53
1, 185703, Note_on_c, 0, 73, 64
1, 185705, Note_off_c, 0, 61, 47
1, 185707, Note_off_c, 0, 67, 40
1, 185710, Note_on_c, 0, 75, 73
1, 185728, Note_off_c, 0, 77, 63
1, 185731, Note_off_c, 0, 73, 67
1, 185740, Note_on_c, 0, 55, 52
1, 185770, Note_off_c, 0, 75, 65
1, 185823, Note_on_c, 0, 73, 78
1, 185989, Note_on_c, 0, 51, 50
1, 186035, Note_off_c, 0, 55, 21
1, 186044, Note_on_c, 0, 84, 88
1, 186057, Control_c, 0, 64, 115
1, 186072, Control_c, 0, 64, 95
1, 186087, Control_c, 0, 64, 79
1, 186100, Note_off_c, 0, 73, 52
1, 186102, Control_c, 0, 64, 73
1, 186131, Control_c, 0, 64, 77
1, 186146, Control_c, 0, 64, 86
1, 186161, Control_c, 0, 64, 99
1, 186176, Control_c, 0, 64, 127
1, 186184, Note_on_c, 0, 63, 61
1, 186282, Note_off_c, 0, 63, 62
1, 186290, Note_on_c, 0, 55, 61
1, 186316, Note_off_c, 0, 55, 65
1, 186321, Note_off_c, 0, 51, 61
1, 186327, Note_off_c, 0, 84, 63
1, 186343, Note_on_c, 0, 82, 77
1, 186348, Note_on_c, 0, 75, 63
1, 186365, Note_off_c, 0, 82, 70
1, 186376, Note_off_c, 0, 75, 66
1, 186398, Control_c, 0, 64, 98
1, 186413, Control_c, 0, 64, 80
1, 186428, Control_c, 0, 64, 66
1, 186438, Note_on_c, 0, 48, 58
1, 186439, Note_on_c, 0, 82, 81
1, 186442, Control_c, 0, 64, 61
1, 186448, Note_on_c, 0, 72, 62
1, 186457, Control_c, 0, 64, 66
1, 186473, Control_c, 0, 64, 73
1, 186488, Control_c, 0, 64, 83
1, 186496, Note_off_c, 0, 48, 61
1, 186498, Note_off_c, 0, 72, 0
1, 186503, Control_c, 0, 64, 95
1, 186518, Control_c, 0, 64, 109
1, 186528, Note_on_c, 0, 72, 30
1, 186533, Control_c, 0, 64, 127
1, 186635, Note_off_c, 0, 82, 58
1, 186639, Note_on_c, 0, 63, 58
1, 186680, Note_off_c, 0, 63, 59
1, 186691, Note_off_c, 0, 72, 62
1, 186718, Note_on_c, 0, 80, 84
1, 186750, Note_on_c, 0, 75, 55
1, 186802, Note_on_c, 0, 56, 50
1, 186895, Control_c, 0, 64, 125
1, 186906, Note_on_c, 0, 48, 55
1, 186910, Control_c, 0, 64, 97
1, 186921, Note_off_c, 0, 75, 61
1, 186925, Control_c, 0, 64, 85
1, 186930, Note_off_c, 0, 80, 61
1, 186940, Control_c, 0, 64, 79
1, 186944, Note_on_c, 0, 79, 73
1, 186948, Note_off_c, 0, 48, 63
1, 186952, Note_off_c, 0, 56, 62
1, 186957, Note_on_c, 0, 70, 68
1, 186969, Control_c, 0, 64, 81
1, 186983, Note_off_c, 0, 70, 67
1, 186983, Control_c, 0, 64, 87
1, 186998, Control_c, 0, 64, 97
1, 187013, Control_c, 0, 64, 109
1, 187028, Control_c, 0, 64, 127
1, 187088, Note_on_c, 0, 64, 52
1, 187089, Note_on_c, 0, 77, 71
1, 187092, Note_on_c, 0, 68, 64
1, 187118, Note_off_c, 0, 68, 66
1, 187120, Note_off_c, 0, 79, 28
1, 187144, Note_off_c, 0, 64, 53
1, 187146, Note_off_c, 0, 77, 59
1, 187183, Note_on_c, 0, 58, 56
1, 187190, Note_on_c, 0, 76, 70
1, 187201, Note_on_c, 0, 67, 47
1, 187227, Note_off_c, 0, 67, 58
1, 187237, Control_c, 0, 64, 108
1, 187244, Note_off_c, 0, 76, 63
1, 187252, Control_c, 0, 64, 91
1, 187263, Note_off_c, 0, 58, 58
1, 187267, Control_c, 0, 64, 74
1, 187282, Control_c, 0, 64, 58
1, 187294, Note_on_c, 0, 79, 72
1, 187296, Control_c, 0, 64, 0
1, 187301, Note_on_c, 0, 53, 44
1, 187305, Note_on_c, 0, 70, 56
1, 187311, Control_c, 0, 64, 20
1, 187326, Control_c, 0, 64, 48
1, 187341, Control_c, 0, 64, 61
1, 187352, Note_off_c, 0, 79, 61
1, 187354, Note_off_c, 0, 70, 55
1, 187356, Control_c, 0, 64, 68
1, 187371, Control_c, 0, 64, 79
1, 187386, Control_c, 0, 64, 95
1, 187401, Control_c, 0, 64, 113
1, 187402, Note_on_c, 0, 65, 54
1, 187415, Control_c, 0, 64, 127
1, 187473, Note_off_c, 0, 65, 59
1, 187489, Note_off_c, 0, 53, 60
1, 187509, Note_on_c, 0, 60, 57
1, 187535, Note_off_c, 0, 60, 64
1, 187585, Note_on_c, 0, 77, 63
1, 187587, Note_on_c, 0, 68, 63
1, 187603, Note_off_c, 0, 77, 65
1, 187606, Note_off_c, 0, 68, 65
1, 187630, Control_c, 0, 64, 115
1, 187645, Control_c, 0, 64, 93
1, 187653, Note_on_c, 0, 46, 60
1, 187660, Control_c, 0, 64, 75
1, 187674, Note_on_c, 0, 68, 61
1, 187675, Control_c, 0, 64, 62
1, 187676, Note_on_c, 0, 77, 61
1, 187685, Note_off_c, 0, 46, 66
1, 187689, Control_c, 0, 64, 56
1, 187704, Control_c, 0, 64, 61
1, 187719, Control_c, 0, 64, 67
1, 187734, Control_c, 0, 64, 77
1, 187749, Control_c, 0, 64, 92
1, 187763, Control_c, 0, 64, 111
1, 187778, Control_c, 0, 64, 127
1, 187815, Note_off_c, 0, 77, 56
1, 187827, Note_on_c, 0, 75, 64
1, 187828, Note_on_c, 0, 65, 44
1, 187887, Note_off_c, 0, 68, 55
1, 187924, Note_off_c, 0, 65, 36
1, 187944, Note_off_c, 0, 75, 54
1, 187955, Note_on_c, 0, 58, 47
1, 187969, Note_on_c, 0, 74, 57
1, 187973, Note_on_c, 0, 70, 40
1, 187979, Note_off_c, 0, 58, 59
1, 188133, Note_off_c, 0, 70, 26
1, 188151, Note_on_c, 0, 51, 41
1, 188158, Note_off_c, 0, 74, 52
1, 188179, Control_c, 0, 64, 120
1, 188186, Note_on_c, 0, 67, 52
1, 188194, Note_on_c, 0, 77, 60
1, 188194, Control_c, 0, 64, 101
1, 188209, Control_c, 0, 64, 86
1, 188223, Control_c, 0, 64, 74
1, 188245, Control_c, 0, 64, 63
1, 188260, Control_c, 0, 64, 54
1, 188275, Control_c, 0, 64, 58
1, 188290, Control_c, 0, 64, 63
1, 188305, Control_c, 0, 64, 67
1, 188319, Control_c, 0, 64, 74
1, 188334, Control_c, 0, 64, 84
1, 188343, Note_on_c, 0, 63, 46
1, 188349, Control_c, 0, 64, 95
1, 188364, Control_c, 0, 64, 104
1, 188378, Control_c, 0, 64, 108
1, 188390, Note_off_c, 0, 67, 47
1, 188393, Control_c, 0, 64, 110
1, 188403, Note_off_c, 0, 63, 59
1, 188404, Note_on_c, 0, 75, 69
1, 188408, Control_c, 0, 64, 111
1, 188426, Note_on_c, 0, 70, 51
1, 188438, Note_off_c, 0, 77, 49
1, 188438, Control_c, 0, 64, 111
1, 188453, Control_c, 0, 64, 112
1, 188468, Control_c, 0, 64, 115
1, 188478, Note_on_c, 0, 58, 52
1, 188483, Control_c, 0, 64, 119
1, 188495, Note_off_c, 0, 51, 62
1, 188498, Control_c, 0, 64, 120
1, 188503, Note_off_c, 0, 58, 59
1, 188527, Control_c, 0, 64, 117
1, 188542, Control_c, 0, 64, 106
1, 188557, Control_c, 0, 64, 91
1, 188558, Note_on_c, 0, 73, 70
1, 188561, Note_off_c, 0, 70, 61
1, 188563, Note_off_c, 0, 75, 63
1, 188571, Control_c, 0, 64, 82
1, 188577, Note_on_c, 0, 66, 57
1, 188580, Note_on_c, 0, 44, 62
1, 188586, Control_c, 0, 64, 80
1, 188601, Control_c, 0, 64, 82
1, 188613, Note_off_c, 0, 44, 63
1, 188616, Control_c, 0, 64, 88
1, 188631, Control_c, 0, 64, 100
1, 188645, Control_c, 0, 64, 127
1, 188697, Note_off_c, 0, 66, 38
1, 188714, Note_on_c, 0, 63, 61
1, 188715, Note_on_c, 0, 72, 73
1, 188726, Note_on_c, 0, 68, 62
1, 188748, Note_off_c, 0, 73, 52
1, 188769, Note_off_c, 0, 63, 56
1, 188824, Note_on_c, 0, 56, 55
1, 188853, Control_c, 0, 64, 96
1, 188855, Note_off_c, 0, 68, 65
1, 188868, Control_c, 0, 64, 78
1, 188870, Note_off_c, 0, 56, 60
1, 188873, Note_off_c, 0, 72, 62
1, 188882, Note_on_c, 0, 75, 78
1, 188883, Control_c, 0, 64, 66
1, 188894, Note_on_c, 0, 65, 61
1, 188897, Note_on_c, 0, 49, 56
1, 188898, Control_c, 0, 64, 63
1, 188913, Control_c, 0, 64, 67
1, 188928, Control_c, 0, 64, 75
1, 188942, Control_c, 0, 64, 87
1, 188957, Control_c, 0, 64, 102
1, 188972, Control_c, 0, 64, 127
1, 188995, Note_on_c, 0, 61, 50
1, 188995, Note_off_c, 0, 65, 0
1, 189019, Note_on_c, 0, 65, 24
1, 189032, Note_off_c, 0, 61, 65
1, 189048, Note_on_c, 0, 73, 80
1, 189055, Note_on_c, 0, 68, 72
1, 189061, Note_off_c, 0, 65, 61
1, 189065, Note_off_c, 0, 75, 64
1, 189072, Note_on_c, 0, 56, 65
1, 189100, Note_off_c, 0, 49, 62
1, 189100, Note_off_c, 0, 56, 65
1, 189157, Note_off_c, 0, 73, 62
1, 189160, Note_off_c, 0, 68, 63
1, 189172, Control_c, 0, 64, 99
1, 189180, Note_on_c, 0, 37, 75
1, 189186, Control_c, 0, 64, 81
1, 189201, Control_c, 0, 64, 68
1, 189204, Note_on_c, 0, 72, 75
1, 189206, Note_off_c, 0, 37, 65
1, 189216, Control_c, 0, 64, 64
1, 189219, Note_on_c, 0, 61, 67
1, 189231, Control_c, 0, 64, 69
1, 189246, Control_c, 0, 64, 76
1, 189261, Control_c, 0, 64, 87
1, 189276, Control_c, 0, 64, 100
1, 189291, Control_c, 0, 64, 112
1, 189305, Control_c, 0, 64, 121
1, 189309, Note_on_c, 0, 58, 66
1, 189320, Control_c, 0, 64, 127
1, 189341, Note_off_c, 0, 72, 62
1, 189346, Note_on_c, 0, 70, 77
1, 189348, Note_on_c, 0, 65, 75
1, 189351, Note_off_c, 0, 61, 60
1, 189369, Note_off_c, 0, 58, 63
1, 189375, Note_off_c, 0, 65, 66
1, 189386, Note_on_c, 0, 53, 60
1, 189401, Note_off_c, 0, 70, 64
1, 189412, Note_off_c, 0, 53, 64
1, 189468, Control_c, 0, 64, 94
1, 189483, Control_c, 0, 64, 73
1, 189490, Note_on_c, 0, 39, 69
1, 189498, Control_c, 0, 64, 42
1, 189513, Control_c, 0, 64, 0
1, 189517, Note_on_c, 0, 70, 79
1, 189527, Note_on_c, 0, 60, 60
1, 189527, Note_off_c, 0, 39, 64
1, 189528, Control_c, 0, 64, 45
1, 189542, Control_c, 0, 64, 63
1, 189557, Control_c, 0, 64, 72
1, 189572, Control_c, 0, 64, 88
1, 189586, Control_c, 0, 64, 127
1, 189619, Note_on_c, 0, 56, 72
1, 189636, Note_off_c, 0, 60, 60
1, 189657, Note_off_c, 0, 56, 56
1, 189669, Note_off_c, 0, 70, 63
1, 189675, Note_on_c, 0, 68, 75
1, 189678, Note_on_c, 0, 63, 67
1, 189738, Note_on_c, 0, 51, 55
1, 189776, Note_off_c, 0, 68, 62
1, 189785, Note_off_c, 0, 63, 62
1, 189807, Note_off_c, 0, 51, 55
1, 189816, Note_on_c, 0, 67, 84
1, 189824, Note_on_c, 0, 48, 59
1, 189824, Note_on_c, 0, 56, 71
1, 189851, Note_off_c, 0, 56, 68
1, 189929, Note_on_c, 0, 56, 58
1, 189955, Note_on_c, 0, 68, 82
1, 189957, Note_off_c, 0, 56, 68
1, 189966, Note_off_c, 0, 67, 60
1, 189967, Note_on_c, 0, 60, 59
1, 189994, Note_on_c, 0, 51, 65
1, 189994, Note_off_c, 0, 48, 64
1, 190003, Note_off_c, 0, 60, 60
1, 190021, Note_off_c, 0, 51, 63
1, 190083, Control_c, 0, 64, 96
1, 190092, Note_on_c, 0, 39, 66
1, 190098, Control_c, 0, 64, 74
1, 190103, Note_off_c, 0, 68, 61
1, 190111, Note_on_c, 0, 69, 79
1, 190113, Control_c, 0, 64, 56
1, 190119, Note_on_c, 0, 61, 74
1, 190124, Note_off_c, 0, 39, 63
1, 190128, Control_c, 0, 64, 42
1, 190143, Control_c, 0, 64, 56
1, 190157, Control_c, 0, 64, 64
1, 190172, Control_c, 0, 64, 72
1, 190187, Control_c, 0, 64, 82
1, 190202, Control_c, 0, 64, 93
1, 190203, Note_on_c, 0, 55, 64
1, 190216, Control_c, 0, 64, 102
1, 190231, Control_c, 0, 64, 108
1, 190246, Control_c, 0, 64, 111
1, 190261, Control_c, 0, 64, 117
1, 190271, Note_on_c, 0, 70, 78
1, 190274, Note_on_c, 0, 63, 72
1, 190276, Control_c, 0, 64, 127
1, 190277, Note_off_c, 0, 69, 66
1, 190287, Note_off_c, 0, 55, 59
1, 190313, Note_off_c, 0, 63, 60
1, 190317, Note_on_c, 0, 51, 50
1, 190339, Note_off_c, 0, 61, 44
1, 190394, Note_off_c, 0, 51, 52
1, 190408, Note_on_c, 0, 46, 58
1, 190423, Control_c, 0, 64, 111
1, 190426, Note_off_c, 0, 70, 63
1, 190435, Note_on_c, 0, 72, 85
1, 190438, Control_c, 0, 64, 88
1, 190453, Note_on_c, 0, 61, 60
1, 190454, Control_c, 0, 64, 70
1, 190469, Control_c, 0, 64, 65
1, 190471, Note_off_c, 0, 61, 64
1, 190492, Control_c, 0, 64, 69
1, 190498, Note_on_c, 0, 55, 51
1, 190506, Control_c, 0, 64, 77
1, 190521, Control_c, 0, 64, 88
1, 190536, Control_c, 0, 64, 101
1, 190551, Control_c, 0, 64, 127
1, 190590, Note_off_c, 0, 55, 62
1, 190603, Note_on_c, 0, 51, 68
1, 190606, Note_on_c, 0, 73, 91
1, 190609, Note_on_c, 0, 63, 74
1, 190614, Note_off_c, 0, 72, 65
1, 190629, Note_off_c, 0, 46, 64
1, 190631, Note_off_c, 0, 51, 67
1, 190635, Note_off_c, 0, 73, 63
1, 190636, Note_off_c, 0, 63, 68
1, 190752, Note_on_c, 0, 38, 56
1, 190818, Note_off_c, 0, 38, 61
1, 190835, Note_on_c, 0, 47, 62
1, 190844, Note_on_c, 0, 56, 67
1, 190847, Control_c, 0, 64, 103
1, 190862, Control_c, 0, 64, 81
1, 190873, Note_off_c, 0, 56, 67
1, 190877, Control_c, 0, 64, 60
1, 190892, Control_c, 0, 64, 0
1, 190900, Note_on_c, 0, 53, 81
1, 190908, Note_on_c, 0, 71, 85
1, 191070, Control_c, 0, 64, 46
1, 191085, Control_c, 0, 64, 61
1, 191096, Note_on_c, 0, 68, 66
1, 191100, Control_c, 0, 64, 66
1, 191114, Control_c, 0, 64, 71
1, 191125, Note_off_c, 0, 71, 63
1, 191129, Control_c, 0, 64, 77
1, 191144, Control_c, 0, 64, 82
1, 191158, Control_c, 0, 64, 86
1, 191173, Control_c, 0, 64, 89
1, 191188, Control_c, 0, 64, 92
1, 191203, Control_c, 0, 64, 96
1, 191213, Note_on_c, 0, 65, 70
1, 191218, Control_c, 0, 64, 102
1, 191240, Control_c, 0, 64, 107
1, 191243, Note_off_c, 0, 53, 61
1, 191255, Control_c, 0, 64, 110
1, 191265, Note_off_c, 0, 68, 63
1, 191270, Control_c, 0, 64, 111
1, 191289, Note_off_c, 0, 65, 63
1, 191312, Note_off_c, 0, 47, 63
1, 191324, Note_on_c, 0, 58, 67
1, 191353, Note_off_c, 0, 58, 66
1, 191425, Note_on_c, 0, 59, 59
1, 191520, Note_off_c, 0, 59, 60
1, 191521, Note_on_c, 0, 56, 64
1, 191537, Control_c, 0, 64, 110
1, 191552, Control_c, 0, 64, 107
1, 191567, Control_c, 0, 64, 102
1, 191581, Control_c, 0, 64, 93
1, 191590, Note_on_c, 0, 39, 55
1, 191593, Note_off_c, 0, 56, 62
1, 191596, Control_c, 0, 64, 79
1, 191600, Note_on_c, 0, 46, 55
1, 191611, Control_c, 0, 64, 66
1, 191614, Note_on_c, 0, 55, 66
1, 191626, Control_c, 0, 64, 44
1, 191641, Control_c, 0, 64, 0
1, 191670, Control_c, 0, 64, 22
1, 191685, Control_c, 0, 64, 47
1, 191687, Note_off_c, 0, 55, 50
1, 191690, Note_on_c, 0, 58, 73
1, 191700, Control_c, 0, 64, 56
1, 191715, Control_c, 0, 64, 60
1, 191729, Control_c, 0, 64, 64
1, 191739, Note_off_c, 0, 39, 60
1, 191742, Note_off_c, 0, 46, 60
1, 191744, Control_c, 0, 64, 67
1, 191759, Note_off_c, 0, 58, 63
1, 191759, Control_c, 0, 64, 71
1, 191768, Note_on_c, 0, 62, 73
1, 191774, Control_c, 0, 64, 75
1, 191789, Control_c, 0, 64, 80
1, 191803, Control_c, 0, 64, 84
1, 191818, Control_c, 0, 64, 86
1, 191833, Control_c, 0, 64, 87
1, 191843, Note_on_c, 0, 64, 72
1, 191847, Note_off_c, 0, 62, 63
1, 191848, Control_c, 0, 64, 87
1, 191863, Control_c, 0, 64, 88
1, 191868, Note_off_c, 0, 64, 69
1, 191918, Note_on_c, 0, 63, 75
1, 191952, Control_c, 0, 64, 87
1, 191967, Control_c, 0, 64, 82
1, 191985, Note_off_c, 0, 63, 62
1, 191988, Control_c, 0, 64, 73
1, 192003, Note_on_c, 0, 75, 72
1, 192003, Control_c, 0, 64, 57
1, 192018, Control_c, 0, 64, 0
1, 192021, Note_off_c, 0, 75, 63
1, 192032, Note_on_c, 0, 40, 49
1, 192081, Note_off_c, 0, 40, 60
1, 192086, Note_on_c, 0, 49, 65
1, 192126, Note_on_c, 0, 58, 69
1, 192147, Note_on_c, 0, 55, 80
1, 192151, Note_off_c, 0, 58, 67
1, 192167, Control_c, 0, 64, 17
1, 192182, Control_c, 0, 64, 59
1, 192185, Note_off_c, 0, 55, 63
1, 192191, Note_on_c, 0, 73, 79
1, 192194, Note_off_c, 0, 49, 64
1, 192197, Control_c, 0, 64, 67
1, 192212, Control_c, 0, 64, 76
1, 192217, Note_on_c, 0, 74, 66
1, 192227, Control_c, 0, 64, 85
1, 192242, Control_c, 0, 64, 93
1, 192245, Note_off_c, 0, 74, 49
1, 192257, Control_c, 0, 64, 96
1, 192271, Control_c, 0, 64, 98
1, 192286, Control_c, 0, 64, 100
1, 192288, Note_on_c, 0, 70, 70
1, 192298, Note_off_c, 0, 73, 58
1, 192301, Control_c, 0, 64, 101
1, 192316, Control_c, 0, 64, 102
1, 192330, Control_c, 0, 64, 103
1, 192355, Note_on_c, 0, 67, 77
1, 192360, Control_c, 0, 64, 103
1, 192376, Note_off_c, 0, 70, 62
1, 192404, Note_off_c, 0, 67, 61
1, 192438, Note_on_c, 0, 60, 72
1, 192513, Note_off_c, 0, 60, 59
1, 192523, Note_on_c, 0, 61, 66
1, 192597, Control_c, 0, 64, 100
1, 192599, Note_on_c, 0, 58, 71
1, 192605, Note_off_c, 0, 61, 63
1, 192611, Control_c, 0, 64, 90
1, 192626, Control_c, 0, 64, 77
1, 192637, Note_on_c, 0, 41, 43
1, 192641, Control_c, 0, 64, 62
1, 192650, Note_on_c, 0, 48, 55
1, 192654, Note_off_c, 0, 58, 65
1, 192656, Control_c, 0, 64, 38
1, 192671, Control_c, 0, 64, 41
1, 192673, Note_on_c, 0, 57, 75
1, 192686, Control_c, 0, 64, 55
1, 192701, Control_c, 0, 64, 63
1, 192711, Note_off_c, 0, 57, 62
1, 192713, Note_off_c, 0, 41, 63
1, 192716, Control_c, 0, 64, 68
1, 192717, Note_off_c, 0, 48, 63
1, 192737, Control_c, 0, 64, 74
1, 192752, Note_on_c, 0, 60, 73
1, 192752, Control_c, 0, 64, 80
1, 192767, Control_c, 0, 64, 83
1, 192782, Control_c, 0, 64, 84
1, 192797, Control_c, 0, 64, 85
1, 192811, Control_c, 0, 64, 86
1, 192823, Note_off_c, 0, 60, 63
1, 192826, Control_c, 0, 64, 86
1, 192835, Note_on_c, 0, 64, 72
1, 192841, Control_c, 0, 64, 87
1, 192902, Note_on_c, 0, 66, 77
1, 192902, Note_off_c, 0, 64, 64
1, 192916, Control_c, 0, 64, 87
1, 192934, Note_off_c, 0, 66, 64
1, 192986, Note_on_c, 0, 65, 69
1, 193012, Note_off_c, 0, 65, 65
1, 193020, Control_c, 0, 64, 88
1, 193035, Control_c, 0, 64, 88
1, 193041, Note_on_c, 0, 45, 45
1, 193065, Note_on_c, 0, 77, 69
1, 193078, Control_c, 0, 64, 88
1, 193093, Note_on_c, 0, 53, 60
1, 193093, Control_c, 0, 64, 83
1, 193098, Note_off_c, 0, 45, 58
1, 193107, Control_c, 0, 64, 73
1, 193122, Control_c, 0, 64, 54
1, 193137, Control_c, 0, 64, 0
1, 193160, Note_off_c, 0, 53, 65
1, 193166, Control_c, 0, 64, 40
1, 193178, Note_on_c, 0, 60, 65
1, 193181, Control_c, 0, 64, 59
1, 193184, Note_off_c, 0, 77, 58
1, 193190, Note_on_c, 0, 73, 67
1, 193196, Control_c, 0, 64, 66
1, 193211, Control_c, 0, 64, 76
1, 193225, Control_c, 0, 64, 88
1, 193232, Note_off_c, 0, 60, 50
1, 193240, Control_c, 0, 64, 99
1, 193255, Note_off_c, 0, 73, 63
1, 193255, Control_c, 0, 64, 107
1, 193270, Control_c, 0, 64, 110
1, 193283, Note_on_c, 0, 72, 65
1, 193285, Control_c, 0, 64, 110
1, 193300, Control_c, 0, 64, 111
1, 193311, Note_off_c, 0, 72, 67
1, 193339, Note_on_c, 0, 48, 59
1, 193362, Note_off_c, 0, 48, 59
1, 193366, Note_on_c, 0, 84, 72
1, 193367, Note_on_c, 0, 57, 68
1, 193389, Control_c, 0, 64, 111
1, 193395, Note_off_c, 0, 57, 66
1, 193404, Control_c, 0, 64, 112
1, 193419, Control_c, 0, 64, 114
1, 193419, Note_on_c, 0, 65, 69
1, 193433, Note_off_c, 0, 84, 60
1, 193433, Control_c, 0, 64, 115
1, 193441, Note_on_c, 0, 78, 72
1, 193448, Control_c, 0, 64, 117
1, 193463, Control_c, 0, 64, 120
1, 193480, Note_off_c, 0, 65, 57
1, 193485, Note_off_c, 0, 78, 57
1, 193485, Control_c, 0, 64, 127
1, 193522, Note_on_c, 0, 77, 60
1, 193542, Note_off_c, 0, 77, 65
1, 193570, Note_on_c, 0, 53, 54
1, 193575, Note_on_c, 0, 79, 12
1, 193598, Note_on_c, 0, 89, 81
1, 193607, Note_on_c, 0, 60, 69
1, 193626, Note_off_c, 0, 53, 66
1, 193628, Note_off_c, 0, 79, 38
1, 193652, Note_off_c, 0, 60, 64
1, 193658, Note_on_c, 0, 69, 81
1, 193672, Note_on_c, 0, 85, 80
1, 193684, Note_off_c, 0, 89, 61
1, 193734, Note_off_c, 0, 85, 63
1, 193741, Note_off_c, 0, 69, 59
1, 193753, Note_on_c, 0, 84, 71
1, 193791, Note_off_c, 0, 84, 60
1, 193825, Note_on_c, 0, 57, 69
1, 193836, Note_on_c, 0, 96, 83
1, 193857, Note_on_c, 0, 65, 75
1, 193869, Note_off_c, 0, 57, 65
1, 193905, Note_on_c, 0, 72, 94
1, 193907, Note_off_c, 0, 65, 65
1, 193923, Note_on_c, 0, 90, 78
1, 193927, Note_on_c, 0, 66, 49
1, 193927, Note_off_c, 0, 96, 66
1, 193952, Note_off_c, 0, 66, 59
1, 193984, Note_off_c, 0, 90, 66
1, 193986, Note_off_c, 0, 72, 58
1, 194006, Note_on_c, 0, 89, 79
1, 194102, Note_on_c, 0, 60, 68
1, 194103, Note_on_c, 0, 101, 89
1, 194156, Note_off_c, 0, 89, 0
1, 194156, Note_on_c, 0, 89, 4
1, 194166, Note_on_c, 0, 69, 77
1, 194171, Note_off_c, 0, 60, 64
1, 194241, Note_on_c, 0, 96, 85
1, 194248, Note_on_c, 0, 77, 93
1, 194253, Note_off_c, 0, 101, 64
1, 194266, Note_off_c, 0, 89, 55
1, 194337, Note_on_c, 0, 93, 83
1, 194352, Note_off_c, 0, 77, 55
1, 194361, Note_off_c, 0, 96, 66
1, 194378, Note_off_c, 0, 93, 65
1, 194394, Note_on_c, 0, 89, 71
1, 194424, Note_off_c, 0, 89, 65
1, 194477, Note_on_c, 0, 84, 84
1, 194549, Note_on_c, 0, 81, 82
1, 194558, Note_off_c, 0, 84, 64
1, 194575, Note_off_c, 0, 69, 69
1, 194593, Note_off_c, 0, 81, 67
1, 194619, Note_on_c, 0, 77, 75
1, 194643, Note_off_c, 0, 77, 69
1, 194693, Note_on_c, 0, 72, 83
1, 194763, Note_on_c, 0, 69, 79
1, 194771, Note_off_c, 0, 72, 64
1, 194804, Note_off_c, 0, 69, 67
1, 194835, Note_on_c, 0, 65, 76
1, 194859, Note_off_c, 0, 65, 67
1, 194916, Note_on_c, 0, 60, 82
1, 194999, Note_on_c, 0, 53, 80
1, 195008, Note_off_c, 0, 60, 62
1, 195027, Note_off_c, 0, 53, 69
1, 195077, Note_on_c, 0, 41, 39
1, 195106, Note_on_c, 0, 40, 69
1, 195112, Note_off_c, 0, 41, 48
1, 195161, Control_c, 0, 64, 99
1, 195176, Control_c, 0, 64, 75
1, 195191, Control_c, 0, 64, 29
1, 195192, Note_on_c, 0, 49, 68
1, 195196, Note_off_c, 0, 40, 59
1, 195205, Control_c, 0, 64, 0
1, 195220, Note_on_c, 0, 58, 71
1, 195249, Note_off_c, 0, 58, 67
1, 195264, Note_on_c, 0, 55, 80
1, 195281, Control_c, 0, 64, 26
1, 195288, Note_on_c, 0, 73, 83
1, 195295, Control_c, 0, 64, 58
1, 195310, Control_c, 0, 64, 71
1, 195321, Note_off_c, 0, 55, 63
1, 195325, Control_c, 0, 64, 84
1, 195340, Control_c, 0, 64, 100
1, 195344, Note_off_c, 0, 49, 63
1, 195355, Control_c, 0, 64, 112
1, 195369, Control_c, 0, 64, 116
1, 195397, Note_on_c, 0, 70, 75
1, 195452, Note_off_c, 0, 73, 57
1, 195465, Note_on_c, 0, 67, 75
1, 195485, Note_off_c, 0, 70, 62
1, 195511, Note_off_c, 0, 67, 62
1, 195537, Note_on_c, 0, 60, 65
1, 195613, Note_off_c, 0, 60, 38
1, 195624, Note_on_c, 0, 61, 68
1, 195666, Control_c, 0, 64, 115
1, 195681, Control_c, 0, 64, 114
1, 195695, Control_c, 0, 64, 106
1, 195705, Note_on_c, 0, 58, 70
1, 195706, Note_off_c, 0, 61, 63
1, 195710, Control_c, 0, 64, 93
1, 195732, Control_c, 0, 64, 79
1, 195747, Control_c, 0, 64, 65
1, 195752, Note_on_c, 0, 41, 45
1, 195757, Note_off_c, 0, 58, 62
1, 195761, Note_on_c, 0, 48, 58
1, 195762, Control_c, 0, 64, 35
1, 195777, Control_c, 0, 64, 0
1, 195781, Note_on_c, 0, 57, 72
1, 195807, Control_c, 0, 64, 40
1, 195822, Control_c, 0, 64, 55
1, 195822, Note_off_c, 0, 57, 55
1, 195825, Note_off_c, 0, 48, 61
1, 195827, Note_off_c, 0, 41, 62
1, 195836, Control_c, 0, 64, 61
1, 195846, Note_on_c, 0, 60, 71
1, 195851, Control_c, 0, 64, 65
1, 195866, Control_c, 0, 64, 70
1, 195881, Control_c, 0, 64, 79
1, 195896, Control_c, 0, 64, 86
1, 195910, Control_c, 0, 64, 90
1, 195916, Note_off_c, 0, 60, 64
1, 195923, Note_on_c, 0, 64, 72
1, 195925, Control_c, 0, 64, 93
1, 195940, Control_c, 0, 64, 96
1, 195954, Control_c, 0, 64, 98
1, 195969, Control_c, 0, 64, 100
1, 195983, Note_on_c, 0, 66, 78
1, 195984, Note_off_c, 0, 64, 63
1, 196014, Note_off_c, 0, 66, 62
1, 196069, Note_on_c, 0, 65, 79
1, 196073, Control_c, 0, 64, 97
1, 196088, Control_c, 0, 64, 92
1, 196096, Note_off_c, 0, 65, 67
1, 196103, Control_c, 0, 64, 81
1, 196118, Control_c, 0, 64, 67
1, 196132, Control_c, 0, 64, 16
1, 196133, Note_on_c, 0, 77, 68
1, 196147, Control_c, 0, 64, 0
1, 196151, Note_off_c, 0, 77, 66
1, 196191, Note_on_c, 0, 42, 58
1, 196228, Note_on_c, 0, 51, 68
1, 196234, Note_off_c, 0, 42, 65
1, 196247, Note_on_c, 0, 60, 79
1, 196272, Note_off_c, 0, 60, 66
1, 196276, Note_on_c, 0, 57, 85
1, 196281, Control_c, 0, 64, 49
1, 196296, Control_c, 0, 64, 64
1, 196303, Note_off_c, 0, 57, 68
1, 196308, Note_off_c, 0, 51, 64
1, 196311, Control_c, 0, 64, 71
1, 196317, Note_on_c, 0, 75, 77
1, 196325, Control_c, 0, 64, 83
1, 196340, Control_c, 0, 64, 101
1, 196355, Control_c, 0, 64, 123
1, 196369, Control_c, 0, 64, 127
1, 196393, Note_on_c, 0, 72, 68
1, 196436, Note_off_c, 0, 75, 59
1, 196459, Note_on_c, 0, 69, 75
1, 196480, Note_off_c, 0, 72, 64
1, 196516, Note_off_c, 0, 69, 65
1, 196543, Note_on_c, 0, 62, 63
1, 196612, Note_off_c, 0, 62, 39
1, 196630, Note_on_c, 0, 63, 67
1, 196715, Note_off_c, 0, 63, 62
1, 196716, Note_on_c, 0, 60, 68
1, 196747, Control_c, 0, 64, 103
1, 196761, Note_off_c, 0, 60, 63
1, 196762, Control_c, 0, 64, 84
1, 196764, Note_on_c, 0, 43, 56
1, 196767, Note_on_c, 0, 50, 59
1, 196776, Control_c, 0, 64, 69
1, 196787, Note_on_c, 0, 59, 66
1, 196792, Control_c, 0, 64, 56
1, 196807, Control_c, 0, 64, 52
1, 196822, Control_c, 0, 64, 61
1, 196833, Note_off_c, 0, 59, 54
1, 196837, Control_c, 0, 64, 66
1, 196845, Note_off_c, 0, 50, 65
1, 196851, Note_off_c, 0, 43, 63
1, 196853, Control_c, 0, 64, 73
1, 196859, Note_on_c, 0, 62, 68
1, 196868, Control_c, 0, 64, 83
1, 196882, Control_c, 0, 64, 92
1, 196897, Control_c, 0, 64, 98
1, 196912, Control_c, 0, 64, 101
1, 196927, Control_c, 0, 64, 102
1, 196933, Note_off_c, 0, 62, 58
1, 196940, Note_on_c, 0, 66, 73
1, 196942, Control_c, 0, 64, 103
1, 196971, Control_c, 0, 64, 103
1, 197004, Note_off_c, 0, 66, 64
1, 197008, Note_on_c, 0, 68, 72
1, 197047, Note_off_c, 0, 68, 64
1, 197060, Control_c, 0, 64, 104
1, 197074, Control_c, 0, 64, 104
1, 197085, Note_on_c, 0, 67, 71
1, 197089, Control_c, 0, 64, 105
1, 197104, Control_c, 0, 64, 106
1, 197119, Control_c, 0, 64, 106
1, 197121, Note_off_c, 0, 67, 62
1, 197135, Note_on_c, 0, 43, 53
1, 197148, Control_c, 0, 64, 106
1, 197163, Control_c, 0, 64, 103
1, 197170, Note_on_c, 0, 79, 72
1, 197178, Control_c, 0, 64, 93
1, 197193, Control_c, 0, 64, 81
1, 197195, Note_on_c, 0, 50, 62
1, 197196, Note_off_c, 0, 43, 61
1, 197208, Control_c, 0, 64, 68
1, 197230, Control_c, 0, 64, 64
1, 197245, Note_off_c, 0, 50, 68
1, 197245, Control_c, 0, 64, 67
1, 197260, Control_c, 0, 64, 72
1, 197273, Note_on_c, 0, 59, 61
1, 197274, Control_c, 0, 64, 82
1, 197289, Control_c, 0, 64, 95
1, 197290, Note_on_c, 0, 70, 70
1, 197303, Note_off_c, 0, 59, 65
1, 197304, Control_c, 0, 64, 119
1, 197308, Note_off_c, 0, 79, 35
1, 197319, Control_c, 0, 64, 127
1, 197350, Note_off_c, 0, 70, 62
1, 197385, Note_on_c, 0, 71, 61
1, 197412, Note_off_c, 0, 71, 67
1, 197419, Note_on_c, 0, 50, 66
1, 197442, Note_on_c, 0, 59, 60
1, 197451, Note_off_c, 0, 50, 66
1, 197456, Note_on_c, 0, 83, 79
1, 197491, Note_off_c, 0, 59, 64
1, 197499, Note_on_c, 0, 67, 77
1, 197528, Note_off_c, 0, 83, 43
1, 197533, Note_on_c, 0, 73, 80
1, 197542, Note_off_c, 0, 67, 49
1, 197592, Note_off_c, 0, 73, 60
1, 197610, Note_on_c, 0, 74, 70
1, 197636, Note_off_c, 0, 74, 68
1, 197677, Note_on_c, 0, 55, 67
1, 197690, Note_on_c, 0, 86, 80
1, 197698, Note_on_c, 0, 62, 73
1, 197705, Control_c, 0, 64, 107
1, 197707, Note_off_c, 0, 55, 65
1, 197720, Control_c, 0, 64, 89
1, 197735, Control_c, 0, 64, 82
1, 197749, Control_c, 0, 64, 81
1, 197750, Note_on_c, 0, 71, 84
1, 197751, Note_off_c, 0, 62, 66
1, 197764, Control_c, 0, 64, 83
1, 197774, Note_on_c, 0, 78, 80
1, 197779, Control_c, 0, 64, 89
1, 197794, Control_c, 0, 64, 99
1, 197795, Note_off_c, 0, 86, 61
1, 197809, Control_c, 0, 64, 118
1, 197823, Control_c, 0, 64, 127
1, 197824, Note_off_c, 0, 71, 61
1, 197838, Note_off_c, 0, 78, 61
1, 197865, Note_on_c, 0, 79, 73
1, 197911, Note_off_c, 0, 79, 63
1, 197950, Note_on_c, 0, 59, 76
1, 197952, Note_on_c, 0, 91, 88
1, 197989, Note_on_c, 0, 67, 82
1, 198001, Note_off_c, 0, 59, 63
1, 198045, Note_on_c, 0, 74, 85
1, 198049, Note_off_c, 0, 67, 66
1, 198065, Note_on_c, 0, 82, 84
1, 198109, Note_off_c, 0, 74, 59
1, 198120, Note_off_c, 0, 91, 51
1, 198157, Note_on_c, 0, 83, 86
1, 198158, Note_off_c, 0, 82, 63
1, 198194, Note_off_c, 0, 83, 61
1, 198275, Note_on_c, 0, 62, 65
1, 198287, Note_on_c, 0, 98, 93
1, 198342, Note_off_c, 0, 62, 63
1, 198351, Note_on_c, 0, 71, 84
1, 198409, Poly_aftertouch_c, 0, 70, 127
1, 198431, Poly_aftertouch_c, 0, 70, 0
1, 198438, Control_c, 0, 64, 123
1, 198442, Note_on_c, 0, 79, 88
1, 198450, Note_on_c, 0, 95, 101
1, 198454, Control_c, 0, 64, 87
1, 198469, Control_c, 0, 64, 66
1, 198484, Control_c, 0, 64, 44
1, 198485, Note_off_c, 0, 98, 64
1, 198499, Control_c, 0, 64, 47
1, 198513, Control_c, 0, 64, 61
1, 198528, Control_c, 0, 64, 72
1, 198543, Control_c, 0, 64, 89
1, 198558, Control_c, 0, 64, 127
1, 198597, Note_on_c, 0, 91, 86
1, 198626, Note_off_c, 0, 79, 55
1, 198636, Note_off_c, 0, 95, 66
1, 198667, Note_off_c, 0, 91, 64
1, 198683, Note_on_c, 0, 86, 80
1, 198723, Note_off_c, 0, 86, 62
1, 198779, Note_on_c, 0, 83, 89
1, 198864, Note_on_c, 0, 79, 89
1, 198864, Note_off_c, 0, 71, 71
1, 198890, Note_off_c, 0, 83, 62
1, 198934, Note_off_c, 0, 79, 63
1, 198950, Note_on_c, 0, 74, 80
1, 198981, Note_off_c, 0, 74, 63
1, 199042, Note_on_c, 0, 71, 84
1, 199136, Note_on_c, 0, 67, 93
1, 199164, Note_off_c, 0, 71, 65
1, 199217, Note_off_c, 0, 67, 65
1, 199235, Note_on_c, 0, 62, 83
1, 199330, Note_off_c, 0, 62, 59
1, 199357, Note_on_c, 0, 59, 89
1, 199485, Note_on_c, 0, 55, 88
1, 199569, Note_off_c, 0, 55, 61
1, 199570, Note_off_c, 0, 59, 60
1, 199622, Note_on_c, 0, 43, 92
1, 199649, Note_on_c, 0, 41, 49
1, 199667, Note_off_c, 0, 43, 61
1, 199679, Note_off_c, 0, 41, 37
1, 199898, Note_on_c, 0, 63, 91
1, 199900, Note_on_c, 0, 75, 90
1, 199906, Note_on_c, 0, 36, 86
1, 199906, Control_c, 0, 64, 108
1, 199920, Control_c, 0, 64, 78
1, 199935, Control_c, 0, 64, 49
1, 199950, Control_c, 0, 64, 0
1, 200129, Control_c, 0, 64, 37
1, 200144, Control_c, 0, 64, 50
1, 200159, Control_c, 0, 64, 57
1, 200174, Control_c, 0, 64, 62
1, 200174, Note_on_c, 0, 43, 79
1, 200186, Note_off_c, 0, 36, 59
1, 200189, Control_c, 0, 64, 66
1, 200204, Control_c, 0, 64, 71
1, 200225, Control_c, 0, 64, 77
1, 200240, Control_c, 0, 64, 84
1, 200255, Control_c, 0, 64, 93
1, 200270, Control_c, 0, 64, 102
1, 200285, Control_c, 0, 64, 115
1, 200299, Control_c, 0, 64, 127
1, 200319, Note_on_c, 0, 51, 75
1, 200350, Note_off_c, 0, 75, 63
1, 200356, Note_off_c, 0, 43, 61
1, 200361, Note_off_c, 0, 63, 61
1, 200427, Note_on_c, 0, 43, 70
1, 200433, Note_off_c, 0, 51, 61
1, 200507, Note_off_c, 0, 43, 59
1, 200514, Note_on_c, 0, 51, 59
1, 200543, Note_off_c, 0, 51, 64
1, 200588, Note_on_c, 0, 43, 70
1, 200676, Note_on_c, 0, 36, 86
1, 200681, Note_on_c, 0, 74, 95
1, 200683, Note_on_c, 0, 62, 88
1, 200685, Control_c, 0, 64, 118
1, 200694, Note_off_c, 0, 43, 63
1, 200699, Control_c, 0, 64, 92
1, 200714, Control_c, 0, 64, 72
1, 200723, Note_on_c, 0, 64, 37
1, 200729, Control_c, 0, 64, 62
1, 200755, Note_off_c, 0, 64, 56
1, 200758, Control_c, 0, 64, 68
1, 200773, Control_c, 0, 64, 76
1, 200788, Control_c, 0, 64, 91
1, 200803, Control_c, 0, 64, 115
1, 200818, Control_c, 0, 64, 127
1, 200844, Note_off_c, 0, 62, 58
1, 200876, Note_off_c, 0, 36, 56
1, 200883, Note_on_c, 0, 44, 64
1, 200905, Note_off_c, 0, 74, 53
1, 200942, Note_on_c, 0, 73, 85
1, 200943, Note_on_c, 0, 61, 84
1, 200992, Note_off_c, 0, 44, 60
1, 201002, Note_on_c, 0, 51, 63
1, 201010, Note_off_c, 0, 61, 64
1, 201032, Note_off_c, 0, 73, 60
1, 201048, Note_off_c, 0, 51, 59
1, 201066, Note_on_c, 0, 44, 60
1, 201079, Note_on_c, 0, 60, 85
1, 201080, Note_on_c, 0, 72, 86
1, 201116, Note_off_c, 0, 44, 54
1, 201123, Note_off_c, 0, 60, 64
1, 201127, Note_off_c, 0, 72, 62
1, 201139, Note_on_c, 0, 51, 53
1, 201172, Note_off_c, 0, 51, 64
1, 201199, Note_on_c, 0, 44, 67
1, 201210, Note_on_c, 0, 59, 82
1, 201210, Note_on_c, 0, 71, 87
1, 201249, Note_off_c, 0, 59, 63
1, 201351, Note_on_c, 0, 36, 67
1, 201369, Note_off_c, 0, 44, 54
1, 201394, Note_on_c, 0, 58, 89
1, 201396, Note_on_c, 0, 70, 87
1, 201419, Control_c, 0, 64, 93
1, 201434, Control_c, 0, 64, 71
1, 201435, Note_off_c, 0, 71, 62
1, 201448, Control_c, 0, 64, 45
1, 201463, Control_c, 0, 64, 16
1, 201477, Note_off_c, 0, 58, 65
1, 201478, Control_c, 0, 64, 53
1, 201492, Control_c, 0, 64, 65
1, 201494, Note_off_c, 0, 70, 63
1, 201507, Control_c, 0, 64, 75
1, 201522, Note_off_c, 0, 36, 60
1, 201522, Control_c, 0, 64, 89
1, 201535, Note_on_c, 0, 44, 61
1, 201537, Control_c, 0, 64, 106
1, 201552, Control_c, 0, 64, 127
1, 201560, Note_on_c, 0, 57, 85
1, 201560, Note_on_c, 0, 69, 78
1, 201584, Note_off_c, 0, 69, 69
1, 201585, Note_off_c, 0, 57, 68
1, 201601, Note_off_c, 0, 44, 59
1, 201667, Note_on_c, 0, 53, 60
1, 201667, Note_on_c, 0, 56, 91
1, 201667, Note_on_c, 0, 68, 91
1, 201692, Note_off_c, 0, 56, 64
1, 201696, Note_off_c, 0, 68, 56
1, 201747, Note_on_c, 0, 56, 95
1, 201747, Note_off_c, 0, 53, 61
1, 201748, Note_on_c, 0, 44, 65
1, 201748, Note_on_c, 0, 68, 89
1, 201753, Control_c, 0, 64, 104
1, 201768, Control_c, 0, 64, 81
1, 201783, Control_c, 0, 64, 69
1, 201797, Control_c, 0, 64, 66
1, 201812, Control_c, 0, 64, 70
1, 201827, Control_c, 0, 64, 78
1, 201835, Note_off_c, 0, 44, 59
1, 201836, Note_on_c, 0, 53, 60
1, 201842, Control_c, 0, 64, 92
1, 201857, Control_c, 0, 64, 116
1, 201871, Control_c, 0, 64, 127
1, 201903, Note_off_c, 0, 53, 66
1, 201923, Note_on_c, 0, 44, 61
1, 201949, Note_off_c, 0, 44, 57
1, 201989, Control_c, 0, 64, 115
1, 202004, Control_c, 0, 64, 84
1, 202019, Note_on_c, 0, 65, 76
1, 202019, Control_c, 0, 64, 61
1, 202022, Note_on_c, 0, 62, 72
1, 202034, Control_c, 0, 64, 0
1, 202040, Note_on_c, 0, 35, 28
1, 202049, Control_c, 0, 64, 38
1, 202064, Control_c, 0, 64, 63
1, 202078, Note_off_c, 0, 35, 51
1, 202079, Control_c, 0, 64, 74
1, 202094, Control_c, 0, 64, 95
1, 202108, Control_c, 0, 64, 127
1, 202137, Note_on_c, 0, 43, 62
1, 202160, Note_off_c, 0, 68, 60
1, 202177, Note_off_c, 0, 43, 59
1, 202188, Note_off_c, 0, 56, 61
1, 202228, Note_on_c, 0, 53, 58
1, 202277, Note_off_c, 0, 53, 57
1, 202296, Note_on_c, 0, 43, 61
1, 202303, Note_on_c, 0, 67, 88
1, 202303, Note_off_c, 0, 65, 60
1, 202306, Note_on_c, 0, 55, 86
1, 202317, Note_off_c, 0, 62, 55
1, 202347, Note_off_c, 0, 43, 54
1, 202372, Note_on_c, 0, 53, 52
1, 202418, Note_off_c, 0, 53, 63
1, 202463, Note_on_c, 0, 43, 45
1, 202493, Note_off_c, 0, 43, 53
1, 202650, Control_c, 0, 64, 98
1, 202651, Note_on_c, 0, 36, 53
1, 202665, Control_c, 0, 64, 75
1, 202680, Control_c, 0, 64, 57
1, 202686, Note_on_c, 0, 63, 70
1, 202694, Control_c, 0, 64, 42
1, 202699, Note_on_c, 0, 60, 60
1, 202709, Control_c, 0, 64, 57
1, 202720, Note_off_c, 0, 67, 56
1, 202724, Control_c, 0, 64, 67
1, 202728, Note_off_c, 0, 36, 61
1, 202732, Note_off_c, 0, 55, 61
1, 202739, Control_c, 0, 64, 78
1, 202753, Control_c, 0, 64, 96
1, 202768, Control_c, 0, 64, 127
1, 202789, Note_off_c, 0, 60, 64
1, 202805, Note_off_c, 0, 63, 67
1, 203035, Note_on_c, 0, 63, 55
1, 203038, Note_on_c, 0, 79, 76
1, 203048, Note_on_c, 0, 75, 60
1, 203111, Note_off_c, 0, 63, 58
1, 203152, Note_on_c, 0, 60, 39
1, 203194, Note_off_c, 0, 60, 64
1, 203206, Note_on_c, 0, 87, 67
1, 203216, Note_on_c, 0, 84, 62
1, 203217, Note_off_c, 0, 75, 63
1, 203219, Note_off_c, 0, 79, 61
1, 203246, Note_off_c, 0, 84, 67
1, 203246, Note_off_c, 0, 87, 65
1, 203248, Note_on_c, 0, 55, 47
1, 203384, Control_c, 0, 64, 93
1, 203393, Note_off_c, 0, 55, 33
1, 203396, Note_on_c, 0, 84, 66
1, 203399, Control_c, 0, 64, 76
1, 203404, Note_on_c, 0, 48, 47
1, 203405, Note_on_c, 0, 80, 61
1, 203414, Control_c, 0, 64, 65
1, 203429, Control_c, 0, 64, 61
1, 203443, Control_c, 0, 64, 64
1, 203458, Control_c, 0, 64, 68
1, 203473, Control_c, 0, 64, 75
1, 203487, Note_off_c, 0, 48, 57
1, 203488, Control_c, 0, 64, 81
1, 203503, Control_c, 0, 64, 86
1, 203517, Control_c, 0, 64, 89
1, 203526, Note_off_c, 0, 84, 63
1, 203533, Control_c, 0, 64, 91
1, 203537, Note_on_c, 0, 72, 58
1, 203539, Note_on_c, 0, 56, 58
1, 203547, Note_off_c, 0, 80, 64
1, 203548, Control_c, 0, 64, 93
1, 203562, Control_c, 0, 64, 94
1, 203566, Note_off_c, 0, 72, 64
1, 203577, Control_c, 0, 64, 94
1, 203583, Note_off_c, 0, 56, 59
1, 203599, Note_on_c, 0, 60, 59
1, 203602, Poly_aftertouch_c, 0, 75, 127
1, 203607, Control_c, 0, 64, 95
1, 203622, Control_c, 0, 64, 95
1, 203633, Poly_aftertouch_c, 0, 75, 0
1, 203636, Control_c, 0, 64, 97
1, 203651, Note_on_c, 0, 72, 69
1, 203651, Control_c, 0, 64, 97
1, 203657, Note_off_c, 0, 60, 59
1, 203665, Note_on_c, 0, 68, 65
1, 203666, Control_c, 0, 64, 98
1, 203674, Note_on_c, 0, 63, 59
1, 203719, Note_off_c, 0, 63, 61
1, 203725, Control_c, 0, 64, 98
1, 203765, Note_on_c, 0, 60, 45
1, 203769, Note_on_c, 0, 75, 60
1, 203769, Control_c, 0, 64, 99
1, 203778, Note_on_c, 0, 80, 71
1, 203785, Note_off_c, 0, 72, 60
1, 203787, Note_off_c, 0, 68, 52
1, 203800, Note_off_c, 0, 60, 52
1, 203806, Note_off_c, 0, 80, 66
1, 203811, Note_off_c, 0, 75, 56
1, 203813, Note_on_c, 0, 56, 58
1, 203843, Control_c, 0, 64, 94
1, 203858, Control_c, 0, 64, 80
1, 203873, Control_c, 0, 64, 65
1, 203881, Note_off_c, 0, 56, 61
1, 203888, Control_c, 0, 64, 22
1, 203893, Note_on_c, 0, 77, 74
1, 203894, Note_on_c, 0, 74, 70
1, 203896, Note_on_c, 0, 50, 58
1, 203903, Control_c, 0, 64, 0
1, 203933, Control_c, 0, 64, 43
1, 203948, Control_c, 0, 64, 63
1, 203969, Control_c, 0, 64, 72
1, 203984, Control_c, 0, 64, 85
1, 203985, Note_off_c, 0, 50, 65
1, 203999, Control_c, 0, 64, 103
1, 204007, Note_on_c, 0, 56, 59
1, 204014, Control_c, 0, 64, 127
1, 204015, Note_on_c, 0, 65, 76
1, 204022, Note_on_c, 0, 72, 71
1, 204025, Note_off_c, 0, 77, 60
1, 204049, Note_off_c, 0, 65, 63
1, 204058, Note_on_c, 0, 60, 59
1, 204061, Note_off_c, 0, 56, 60
1, 204062, Note_off_c, 0, 74, 63
1, 204082, Note_off_c, 0, 72, 62
1, 204104, Control_c, 0, 64, 98
1, 204110, Note_off_c, 0, 60, 63
1, 204119, Control_c, 0, 64, 86
1, 204121, Note_on_c, 0, 62, 64
1, 204132, Note_on_c, 0, 72, 69
1, 204134, Note_on_c, 0, 66, 80
1, 204134, Control_c, 0, 64, 82
1, 204148, Control_c, 0, 64, 83
1, 204163, Control_c, 0, 64, 90
1, 204178, Control_c, 0, 64, 103
1, 204192, Control_c, 0, 64, 127
1, 204201, Note_off_c, 0, 62, 57
1, 204201, Note_on_c, 0, 60, 48
1, 204232, Note_off_c, 0, 60, 66
1, 204234, Note_on_c, 0, 56, 80
1, 204243, Note_on_c, 0, 74, 74
1, 204247, Note_on_c, 0, 78, 84
1, 204248, Note_off_c, 0, 66, 63
1, 204258, Note_off_c, 0, 56, 69
1, 204267, Note_off_c, 0, 72, 59
1, 204296, Note_off_c, 0, 78, 67
1, 204308, Note_off_c, 0, 74, 60
1, 204353, Note_on_c, 0, 43, 69
1, 204370, Control_c, 0, 64, 94
1, 204382, Note_on_c, 0, 79, 83
1, 204384, Note_on_c, 0, 74, 84
1, 204384, Control_c, 0, 64, 70
1, 204399, Control_c, 0, 64, 23
1, 204414, Control_c, 0, 64, 0
1, 204429, Control_c, 0, 64, 37
1, 204444, Control_c, 0, 64, 61
1, 204458, Control_c, 0, 64, 73
1, 204460, Note_off_c, 0, 43, 59
1, 204473, Control_c, 0, 64, 91
1, 204484, Note_on_c, 0, 50, 64
1, 204488, Control_c, 0, 64, 127
1, 204502, Note_on_c, 0, 67, 84
1, 204503, Note_on_c, 0, 71, 76
1, 204514, Note_off_c, 0, 79, 50
1, 204558, Note_on_c, 0, 55, 58
1, 204571, Note_off_c, 0, 67, 57
1, 204572, Note_off_c, 0, 50, 58
1, 204578, Note_off_c, 0, 74, 59
1, 204620, Note_off_c, 0, 71, 62
1, 204643, Note_off_c, 0, 55, 60
1, 204654, Note_on_c, 0, 67, 103
1, 204655, Note_on_c, 0, 59, 70
1, 204659, Note_on_c, 0, 65, 94
1, 204764, Note_on_c, 0, 55, 71
1, 204766, Note_off_c, 0, 59, 60
1, 204792, Note_on_c, 0, 71, 73
1, 204796, Note_on_c, 0, 74, 81
1, 204797, Note_off_c, 0, 67, 57
1, 204797, Note_off_c, 0, 65, 60
1, 204827, Note_off_c, 0, 71, 66
1, 204849, Note_off_c, 0, 74, 68
1, 204875, Note_on_c, 0, 50, 65
1, 204882, Note_off_c, 0, 55, 61
1, 204910, Note_off_c, 0, 50, 67
1, 205119, Control_c, 0, 64, 109
1, 205133, Control_c, 0, 64, 71
1, 205148, Control_c, 0, 64, 0
1, 205149, Note_on_c, 0, 39, 98
1, 205152, Note_on_c, 0, 79, 95
1, 205155, Note_on_c, 0, 91, 89
1, 205157, Note_on_c, 0, 82, 88
1, 205174, Note_off_c, 0, 39, 67
1, 205207, Control_c, 0, 64, 50
1, 205222, Control_c, 0, 64, 77
1, 205237, Control_c, 0, 64, 127
1, 205389, Note_on_c, 0, 46, 79
1, 205488, Note_off_c, 0, 91, 58
1, 205522, Note_off_c, 0, 79, 56
1, 205530, Note_on_c, 0, 51, 83
1, 205557, Note_off_c, 0, 46, 60
1, 205575, Note_off_c, 0, 82, 59
1, 205614, Note_off_c, 0, 51, 62
1, 205629, Note_on_c, 0, 55, 78
1, 205720, Note_off_c, 0, 55, 40
1, 205724, Note_on_c, 0, 58, 83
1, 205814, Note_on_c, 0, 63, 84
1, 205852, Note_off_c, 0, 58, 60
1, 205924, Note_on_c, 0, 82, 97
1, 205926, Note_on_c, 0, 89, 93
1, 205927, Note_on_c, 0, 67, 89
1, 205927, Note_on_c, 0, 77, 92
1, 205957, Note_off_c, 0, 63, 64
1, 206028, Note_off_c, 0, 89, 59
1, 206037, Note_off_c, 0, 77, 59
1, 206096, Note_on_c, 0, 63, 56
1, 206106, Note_off_c, 0, 67, 56
1, 206166, Note_on_c, 0, 75, 88
1, 206168, Note_on_c, 0, 87, 91
1, 206174, Note_on_c, 0, 58, 68
1, 206187, Note_off_c, 0, 63, 62
1, 206210, Note_off_c, 0, 82, 57
1, 206231, Note_off_c, 0, 58, 66
1, 206238, Note_off_c, 0, 75, 66
1, 206263, Note_off_c, 0, 87, 62
1, 206295, Note_on_c, 0, 55, 61
1, 206316, Note_on_c, 0, 86, 94
1, 206318, Note_on_c, 0, 74, 87
1, 206353, Note_off_c, 0, 74, 66
1, 206390, Note_off_c, 0, 86, 62
1, 206398, Note_off_c, 0, 55, 58
1, 206404, Note_on_c, 0, 51, 67
1, 206444, Note_on_c, 0, 73, 94
1, 206447, Note_on_c, 0, 85, 90
1, 206472, Note_on_c, 0, 46, 73
1, 206475, Note_off_c, 0, 51, 61
1, 206512, Note_off_c, 0, 46, 64
1, 206514, Note_off_c, 0, 73, 63
1, 206557, Note_off_c, 0, 85, 62
1, 206604, Note_on_c, 0, 41, 79
1, 206630, Note_on_c, 0, 72, 98
1, 206630, Note_on_c, 0, 84, 91
1, 206630, Control_c, 0, 64, 114
1, 206636, Note_on_c, 0, 80, 85
1, 206645, Control_c, 0, 64, 82
1, 206660, Control_c, 0, 64, 64
1, 206675, Control_c, 0, 64, 57
1, 206690, Control_c, 0, 64, 64
1, 206696, Note_off_c, 0, 84, 63
1, 206700, Note_off_c, 0, 72, 57
1, 206702, Note_off_c, 0, 80, 62
1, 206705, Control_c, 0, 64, 74
1, 206719, Control_c, 0, 64, 92
1, 206734, Control_c, 0, 64, 127
1, 206763, Note_off_c, 0, 41, 62
1, 206779, Note_on_c, 0, 50, 73
1, 206784, Note_on_c, 0, 71, 92
1, 206785, Note_on_c, 0, 83, 90
1, 206806, Note_on_c, 0, 72, 66
1, 206809, Note_off_c, 0, 83, 64
1, 206812, Note_off_c, 0, 71, 64
1, 206816, Note_on_c, 0, 82, 51
1, 206822, Note_off_c, 0, 72, 68
1, 206839, Note_off_c, 0, 82, 59
1, 206882, Note_off_c, 0, 50, 60
1, 206883, Note_on_c, 0, 56, 71
1, 206889, Note_on_c, 0, 70, 99
1, 206890, Note_on_c, 0, 82, 104
1, 206924, Note_off_c, 0, 70, 60
1, 206931, Note_off_c, 0, 82, 60
1, 206962, Note_off_c, 0, 56, 62
1, 206970, Note_on_c, 0, 70, 88
1, 206973, Note_on_c, 0, 82, 98
1, 206983, Note_on_c, 0, 50, 64
1, 207023, Note_on_c, 0, 56, 66
1, 207030, Note_off_c, 0, 50, 65
1, 207088, Note_off_c, 0, 56, 63
1, 207110, Note_on_c, 0, 50, 73
1, 207134, Note_off_c, 0, 50, 69
1, 207215, Control_c, 0, 64, 86
1, 207228, Note_on_c, 0, 34, 79
1, 207231, Control_c, 0, 64, 61
1, 207240, Note_on_c, 0, 74, 87
1, 207246, Control_c, 0, 64, 0
1, 207260, Note_off_c, 0, 34, 66
1, 207261, Control_c, 0, 64, 34
1, 207276, Control_c, 0, 64, 66
1, 207280, Note_off_c, 0, 82, 62
1, 207290, Control_c, 0, 64, 81
1, 207305, Control_c, 0, 64, 127
1, 207340, Note_on_c, 0, 46, 74
1, 207371, Note_off_c, 0, 70, 54
1, 207379, Note_off_c, 0, 46, 60
1, 207391, Note_on_c, 0, 56, 73
1, 207466, Note_off_c, 0, 56, 59
1, 207478, Note_on_c, 0, 46, 61
1, 207502, Note_on_c, 0, 68, 95
1, 207504, Note_on_c, 0, 80, 94
1, 207507, Note_off_c, 0, 46, 65
1, 207531, Note_on_c, 0, 56, 48
1, 207594, Note_off_c, 0, 56, 59
1, 207619, Note_on_c, 0, 46, 64
1, 207643, Note_off_c, 0, 46, 66
1, 207649, Note_off_c, 0, 80, 62
1, 207653, Note_off_c, 0, 68, 62
1, 207831, Control_c, 0, 64, 104
1, 207835, Note_on_c, 0, 39, 70
1, 207846, Control_c, 0, 64, 70
1, 207860, Control_c, 0, 64, 0
1, 207869, Note_on_c, 0, 67, 92
1, 207869, Note_on_c, 0, 79, 82
1, 207871, Note_on_c, 0, 75, 83
1, 207890, Control_c, 0, 64, 40
1, 207900, Note_off_c, 0, 39, 60
1, 207903, Note_off_c, 0, 74, 62
1, 207905, Control_c, 0, 64, 64
1, 207920, Control_c, 0, 64, 78
1, 207934, Note_off_c, 0, 67, 64
1, 207934, Control_c, 0, 64, 110
1, 207942, Note_off_c, 0, 79, 64
1, 207949, Control_c, 0, 64, 127
1, 207954, Note_off_c, 0, 75, 65
1, 208184, Note_on_c, 0, 67, 57
1, 208217, Note_on_c, 0, 82, 82
1, 208219, Note_on_c, 0, 79, 75
1, 208309, Note_off_c, 0, 67, 53
1, 208328, Note_on_c, 0, 63, 49
1, 208363, Note_on_c, 0, 87, 78
1, 208363, Note_off_c, 0, 63, 65
1, 208368, Note_on_c, 0, 91, 84
1, 208369, Note_off_c, 0, 82, 63
1, 208371, Note_on_c, 0, 58, 57
1, 208387, Note_off_c, 0, 87, 68
1, 208394, Note_off_c, 0, 58, 59
1, 208399, Note_off_c, 0, 91, 62
1, 208538, Note_on_c, 0, 48, 52
1, 208550, Control_c, 0, 64, 110
1, 208557, Note_on_c, 0, 85, 68
1, 208563, Note_off_c, 0, 79, 59
1, 208565, Control_c, 0, 64, 87
1, 208580, Control_c, 0, 64, 71
1, 208582, Note_on_c, 0, 87, 74
1, 208584, Note_off_c, 0, 85, 66
1, 208595, Control_c, 0, 64, 60
1, 208599, Note_on_c, 0, 84, 69
1, 208625, Control_c, 0, 64, 65
1, 208639, Control_c, 0, 64, 71
1, 208654, Control_c, 0, 64, 78
1, 208657, Note_off_c, 0, 48, 59
1, 208669, Control_c, 0, 64, 86
1, 208683, Control_c, 0, 64, 93
1, 208695, Note_on_c, 0, 51, 50
1, 208698, Control_c, 0, 64, 98
1, 208713, Control_c, 0, 64, 102
1, 208728, Control_c, 0, 64, 106
1, 208731, Note_on_c, 0, 80, 73
1, 208736, Note_off_c, 0, 87, 61
1, 208741, Note_on_c, 0, 75, 58
1, 208742, Note_off_c, 0, 84, 64
1, 208743, Control_c, 0, 64, 110
1, 208749, Note_off_c, 0, 51, 60
1, 208756, Note_off_c, 0, 80, 65
1, 208757, Control_c, 0, 64, 117
1, 208768, Note_off_c, 0, 75, 65
1, 208772, Control_c, 0, 64, 127
1, 208775, Note_on_c, 0, 56, 59
1, 208814, Note_off_c, 0, 56, 62
1, 208833, Control_c, 0, 64, 110
1, 208845, Note_on_c, 0, 63, 57
1, 208848, Control_c, 0, 64, 93
1, 208854, Note_on_c, 0, 75, 73
1, 208855, Note_on_c, 0, 72, 70
1, 208862, Control_c, 0, 64, 83
1, 208877, Control_c, 0, 64, 82
1, 208892, Control_c, 0, 64, 84
1, 208899, Note_off_c, 0, 63, 59
1, 208906, Control_c, 0, 64, 88
1, 208916, Note_on_c, 0, 56, 45
1, 208921, Control_c, 0, 64, 95
1, 208936, Control_c, 0, 64, 105
1, 208951, Note_off_c, 0, 56, 50
1, 208951, Control_c, 0, 64, 127
1, 208964, Note_on_c, 0, 80, 74
1, 208972, Note_on_c, 0, 51, 56
1, 208974, Note_on_c, 0, 84, 68
1, 208978, Note_off_c, 0, 75, 62
1, 208983, Note_off_c, 0, 72, 62
1, 208987, Note_off_c, 0, 80, 69
1, 208991, Note_off_c, 0, 84, 68
1, 209040, Control_c, 0, 64, 117
1, 209045, Note_off_c, 0, 51, 51
1, 209054, Control_c, 0, 64, 90
1, 209069, Control_c, 0, 64, 69
1, 209084, Note_on_c, 0, 50, 45
1, 209084, Control_c, 0, 64, 14
1, 209092, Note_on_c, 0, 82, 73
1, 209099, Control_c, 0, 64, 0
1, 209108, Note_on_c, 0, 80, 65
1, 209114, Control_c, 0, 64, 24
1, 209128, Control_c, 0, 64, 55
1, 209143, Control_c, 0, 64, 65
1, 209150, Note_off_c, 0, 50, 59
1, 209158, Control_c, 0, 64, 74
1, 209173, Control_c, 0, 64, 90
1, 209188, Control_c, 0, 64, 102
1, 209210, Note_on_c, 0, 56, 52
1, 209210, Control_c, 0, 64, 110
1, 209217, Note_on_c, 0, 74, 58
1, 209224, Note_on_c, 0, 70, 58
1, 209225, Control_c, 0, 64, 116
1, 209230, Note_off_c, 0, 82, 56
1, 209240, Control_c, 0, 64, 127
1, 209244, Note_off_c, 0, 80, 59
1, 209250, Note_off_c, 0, 70, 64
1, 209258, Note_off_c, 0, 56, 61
1, 209259, Note_off_c, 0, 74, 62
1, 209297, Note_on_c, 0, 58, 40
1, 209313, Control_c, 0, 64, 104
1, 209328, Note_off_c, 0, 58, 53
1, 209328, Control_c, 0, 64, 89
1, 209334, Note_on_c, 0, 65, 56
1, 209343, Control_c, 0, 64, 83
1, 209344, Note_on_c, 0, 71, 64
1, 209355, Note_on_c, 0, 74, 58
1, 209358, Control_c, 0, 64, 84
1, 209373, Control_c, 0, 64, 90
1, 209388, Control_c, 0, 64, 98
1, 209393, Note_off_c, 0, 65, 54
1, 209403, Control_c, 0, 64, 107
1, 209418, Control_c, 0, 64, 118
1, 209422, Note_on_c, 0, 58, 50
1, 209424, Note_off_c, 0, 74, 57
1, 209433, Control_c, 0, 64, 127
1, 209446, Note_off_c, 0, 58, 63
1, 209456, Note_on_c, 0, 80, 63
1, 209459, Note_on_c, 0, 56, 48
1, 209459, Note_off_c, 0, 71, 57
1, 209467, Note_on_c, 0, 83, 68
1, 209484, Note_off_c, 0, 56, 58
1, 209484, Note_off_c, 0, 80, 68
1, 209495, Note_off_c, 0, 83, 66
1, 209552, Control_c, 0, 64, 98
1, 209558, Note_on_c, 0, 46, 60
1, 209567, Control_c, 0, 64, 77
1, 209581, Control_c, 0, 64, 66
1, 209589, Note_on_c, 0, 80, 59
1, 209591, Note_on_c, 0, 84, 65
1, 209593, Note_off_c, 0, 46, 66
1, 209596, Control_c, 0, 64, 64
1, 209611, Control_c, 0, 64, 68
1, 209626, Control_c, 0, 64, 74
1, 209641, Control_c, 0, 64, 83
1, 209656, Control_c, 0, 64, 93
1, 209671, Control_c, 0, 64, 100
1, 209680, Note_off_c, 0, 84, 64
1, 209686, Control_c, 0, 64, 105
1, 209697, Note_on_c, 0, 72, 64
1, 209700, Note_on_c, 0, 56, 47
1, 209701, Note_off_c, 0, 80, 65
1, 209701, Control_c, 0, 64, 109
1, 209705, Note_on_c, 0, 74, 32
1, 209716, Control_c, 0, 64, 113
1, 209722, Note_off_c, 0, 72, 64
1, 209730, Control_c, 0, 64, 116
1, 209738, Note_off_c, 0, 74, 53
1, 209739, Note_off_c, 0, 56, 53
1, 209745, Control_c, 0, 64, 117
1, 209760, Control_c, 0, 64, 117
1, 209764, Note_on_c, 0, 58, 49
1, 209775, Control_c, 0, 64, 111
1, 209790, Note_off_c, 0, 58, 59
1, 209790, Control_c, 0, 64, 99
1, 209804, Control_c, 0, 64, 84
1, 209819, Note_on_c, 0, 68, 63
1, 209819, Control_c, 0, 64, 71
1, 209825, Note_on_c, 0, 62, 48
1, 209829, Note_on_c, 0, 70, 57
1, 209834, Control_c, 0, 64, 60
1, 209849, Control_c, 0, 64, 58
1, 209864, Control_c, 0, 64, 65
1, 209878, Control_c, 0, 64, 73
1, 209888, Note_off_c, 0, 62, 55
1, 209893, Control_c, 0, 64, 83
1, 209898, Note_on_c, 0, 58, 41
1, 209908, Control_c, 0, 64, 92
1, 209922, Control_c, 0, 64, 99
1, 209924, Note_off_c, 0, 68, 39
1, 209934, Note_off_c, 0, 58, 65
1, 209937, Note_on_c, 0, 74, 48
1, 209937, Control_c, 0, 64, 101
1, 209942, Note_on_c, 0, 56, 51
1, 209951, Note_off_c, 0, 70, 34
1, 209957, Note_on_c, 0, 78, 62
1, 209960, Control_c, 0, 64, 102
1, 209969, Note_off_c, 0, 74, 62
1, 209975, Control_c, 0, 64, 103
1, 209978, Note_off_c, 0, 56, 56
1, 209990, Control_c, 0, 64, 105
1, 209992, Note_off_c, 0, 78, 64
1, 210004, Control_c, 0, 64, 106
1, 210019, Control_c, 0, 64, 108
1, 210034, Control_c, 0, 64, 109
1, 210078, Control_c, 0, 64, 105
1, 210093, Control_c, 0, 64, 93
1, 210108, Control_c, 0, 64, 78
1, 210122, Note_on_c, 0, 39, 50
1, 210123, Control_c, 0, 64, 59
1, 210133, Note_on_c, 0, 51, 44
1, 210137, Control_c, 0, 64, 41
1, 210141, Note_on_c, 0, 79, 54
1, 210148, Note_on_c, 0, 75, 38
1, 210152, Control_c, 0, 64, 51
1, 210153, Note_off_c, 0, 39, 55
1, 210163, Note_off_c, 0, 51, 57
1, 210167, Control_c, 0, 64, 61
1, 210182, Control_c, 0, 64, 66
1, 210197, Control_c, 0, 64, 73
1, 210202, Note_off_c, 0, 79, 45
1, 210211, Control_c, 0, 64, 81
1, 210226, Control_c, 0, 64, 90
1, 210241, Control_c, 0, 64, 94
1, 210255, Control_c, 0, 64, 97
1, 210270, Control_c, 0, 64, 100
1, 210285, Control_c, 0, 64, 103
1, 210290, Note_on_c, 0, 67, 49
1, 210291, Note_on_c, 0, 70, 49
1, 210294, Note_off_c, 0, 75, 35
1, 210300, Control_c, 0, 64, 104
1, 210315, Control_c, 0, 64, 105
1, 210316, Note_off_c, 0, 67, 58
1, 210320, Note_off_c, 0, 70, 61
1, 210330, Control_c, 0, 64, 104
1, 210360, Control_c, 0, 64, 104
1, 210377, Note_on_c, 0, 58, 65
1, 210384, Note_on_c, 0, 55, 56
1, 210389, Note_on_c, 0, 63, 45
1, 210398, Note_on_c, 0, 70, 66
1, 210404, Note_off_c, 0, 58, 66
1, 210404, Control_c, 0, 64, 103
1, 210405, Note_on_c, 0, 67, 50
1, 210409, Note_off_c, 0, 55, 61
1, 210417, Note_off_c, 0, 63, 56
1, 210419, Control_c, 0, 64, 103
1, 210430, Note_off_c, 0, 70, 63
1, 210434, Control_c, 0, 64, 102
1, 210449, Control_c, 0, 64, 101
1, 210456, Note_off_c, 0, 67, 45
1, 210464, Control_c, 0, 64, 99
1, 210479, Control_c, 0, 64, 95
1, 210494, Control_c, 0, 64, 88
1, 210506, Note_on_c, 0, 79, 65
1, 210509, Control_c, 0, 64, 78
1, 210513, Note_on_c, 0, 75, 51
1, 210524, Control_c, 0, 64, 67
1, 210535, Note_off_c, 0, 79, 66
1, 210538, Control_c, 0, 64, 39
1, 210541, Note_off_c, 0, 75, 58
1, 210553, Control_c, 0, 64, 0
1, 210619, Note_on_c, 0, 38, 41
1, 210629, Note_on_c, 0, 80, 69
1, 210631, Note_on_c, 0, 50, 48
1, 210637, Note_on_c, 0, 76, 65
1, 210652, Note_off_c, 0, 38, 50
1, 210657, Control_c, 0, 64, 44
1, 210664, Note_off_c, 0, 50, 57
1, 210671, Control_c, 0, 64, 65
1, 210686, Control_c, 0, 64, 73
1, 210708, Control_c, 0, 64, 85
1, 210712, Note_off_c, 0, 80, 56
1, 210720, Note_off_c, 0, 76, 60
1, 210723, Control_c, 0, 64, 91
1, 210738, Control_c, 0, 64, 94
1, 210753, Control_c, 0, 64, 95
1, 210753, Note_on_c, 0, 71, 60
1, 210759, Note_on_c, 0, 68, 57
1, 210768, Control_c, 0, 64, 95
1, 210790, Note_off_c, 0, 68, 63
1, 210792, Note_off_c, 0, 71, 61
1, 210798, Control_c, 0, 64, 95
1, 210813, Control_c, 0, 64, 91
1, 210827, Control_c, 0, 64, 84
1, 210842, Control_c, 0, 64, 74
1, 210857, Note_on_c, 0, 56, 59
1, 210857, Control_c, 0, 64, 68
1, 210860, Note_on_c, 0, 59, 54
1, 210871, Note_on_c, 0, 71, 65
1, 210872, Control_c, 0, 64, 70
1, 210874, Note_on_c, 0, 68, 54
1, 210878, Note_on_c, 0, 64, 22
1, 210884, Note_off_c, 0, 56, 66
1, 210884, Note_off_c, 0, 59, 57
1, 210886, Control_c, 0, 64, 78
1, 210901, Control_c, 0, 64, 88
1, 210907, Note_off_c, 0, 68, 64
1, 210916, Control_c, 0, 64, 99
1, 210917, Note_off_c, 0, 71, 59
1, 210918, Note_off_c, 0, 64, 53
1, 210931, Control_c, 0, 64, 106
1, 210946, Control_c, 0, 64, 108
1, 210981, Note_on_c, 0, 76, 60
1, 210988, Note_on_c, 0, 80, 67
1, 211005, Control_c, 0, 64, 107
1, 211014, Note_off_c, 0, 80, 69
1, 211018, Note_off_c, 0, 76, 61
1, 211020, Control_c, 0, 64, 100
1, 211033, Control_c, 0, 64, 87
1, 211048, Control_c, 0, 64, 71
1, 211063, Control_c, 0, 64, 48
1, 211078, Control_c, 0, 64, 0
1, 211087, Note_on_c, 0, 37, 51
1, 211090, Note_on_c, 0, 49, 60
1, 211103, Note_on_c, 0, 81, 63
1, 211106, Note_on_c, 0, 77, 62
1, 211108, Control_c, 0, 64, 45
1, 211116, Note_off_c, 0, 37, 54
1, 211120, Note_off_c, 0, 49, 62
1, 211123, Control_c, 0, 64, 65
1, 211138, Control_c, 0, 64, 75
1, 211152, Control_c, 0, 64, 91
1, 211167, Control_c, 0, 64, 105
1, 211175, Note_off_c, 0, 77, 54
1, 211182, Control_c, 0, 64, 107
1, 211214, Note_on_c, 0, 73, 64
1, 211220, Note_on_c, 0, 71, 60
1, 211226, Note_off_c, 0, 81, 55
1, 211251, Note_off_c, 0, 73, 59
1, 211252, Note_off_c, 0, 71, 65
1, 211272, Control_c, 0, 64, 105
1, 211287, Control_c, 0, 64, 94
1, 211301, Control_c, 0, 64, 79
1, 211313, Note_on_c, 0, 56, 62
1, 211315, Note_on_c, 0, 61, 63
1, 211316, Control_c, 0, 64, 64
1, 211319, Note_on_c, 0, 65, 59
1, 211331, Control_c, 0, 64, 45
1, 211337, Note_on_c, 0, 71, 68
1, 211339, Note_on_c, 0, 73, 74
1, 211340, Note_off_c, 0, 65, 60
1, 211343, Note_off_c, 0, 61, 64
1, 211346, Control_c, 0, 64, 53
1, 211346, Note_off_c, 0, 56, 64
1, 211361, Control_c, 0, 64, 65
1, 211367, Note_off_c, 0, 71, 63
1, 211375, Control_c, 0, 64, 73
1, 211384, Note_off_c, 0, 73, 59
1, 211390, Control_c, 0, 64, 86
1, 211405, Control_c, 0, 64, 102
1, 211420, Control_c, 0, 64, 116
1, 211435, Control_c, 0, 64, 120
1, 211436, Note_on_c, 0, 81, 69
1, 211442, Note_on_c, 0, 77, 56
1, 211471, Control_c, 0, 64, 116
1, 211475, Note_off_c, 0, 81, 65
1, 211486, Control_c, 0, 64, 103
1, 211491, Note_off_c, 0, 77, 59
1, 211501, Control_c, 0, 64, 89
1, 211516, Control_c, 0, 64, 74
1, 211531, Control_c, 0, 64, 60
1, 211546, Control_c, 0, 64, 46
1, 211558, Note_on_c, 0, 42, 53
1, 211558, Note_on_c, 0, 54, 61
1, 211561, Control_c, 0, 64, 60
1, 211570, Note_on_c, 0, 82, 77
1, 211575, Control_c, 0, 64, 68
1, 211581, Note_on_c, 0, 78, 70
1, 211585, Note_off_c, 0, 42, 56
1, 211586, Note_off_c, 0, 54, 65
1, 211590, Control_c, 0, 64, 78
1, 211605, Control_c, 0, 64, 93
1, 211620, Control_c, 0, 64, 110
1, 211635, Note_off_c, 0, 82, 60
1, 211635, Control_c, 0, 64, 120
1, 211649, Control_c, 0, 64, 120
1, 211664, Control_c, 0, 64, 122
1, 211669, Note_on_c, 0, 73, 72
1, 211672, Note_off_c, 0, 78, 51
1, 211677, Note_on_c, 0, 70, 65
1, 211679, Control_c, 0, 64, 127
1, 211708, Note_off_c, 0, 70, 63
1, 211725, Note_off_c, 0, 73, 60
1, 211738, Control_c, 0, 64, 106
1, 211753, Control_c, 0, 64, 85
1, 211768, Control_c, 0, 64, 68
1, 211782, Control_c, 0, 64, 47
1, 211784, Note_on_c, 0, 54, 55
1, 211790, Note_on_c, 0, 60, 42
1, 211792, Note_on_c, 0, 72, 73
1, 211797, Control_c, 0, 64, 41
1, 211808, Note_on_c, 0, 70, 45
1, 211812, Control_c, 0, 64, 59
1, 211813, Note_off_c, 0, 54, 65
1, 211819, Note_off_c, 0, 60, 56
1, 211827, Control_c, 0, 64, 67
1, 211828, Note_off_c, 0, 72, 53
1, 211836, Note_off_c, 0, 70, 55
1, 211842, Control_c, 0, 64, 78
1, 211856, Control_c, 0, 64, 87
1, 211871, Control_c, 0, 64, 102
1, 211886, Control_c, 0, 64, 105
1, 211892, Note_on_c, 0, 76, 58
1, 211904, Note_on_c, 0, 82, 69
1, 211916, Control_c, 0, 64, 105
1, 211921, Note_off_c, 0, 76, 57
1, 211954, Note_off_c, 0, 82, 62
1, 211990, Control_c, 0, 64, 104
1, 212005, Control_c, 0, 64, 95
1, 212020, Control_c, 0, 64, 80
1, 212035, Note_on_c, 0, 41, 50
1, 212035, Control_c, 0, 64, 61
1, 212045, Note_on_c, 0, 53, 59
1, 212050, Control_c, 0, 64, 0
1, 212055, Note_on_c, 0, 81, 63
1, 212056, Note_on_c, 0, 77, 59
1, 212062, Note_off_c, 0, 41, 54
1, 212065, Control_c, 0, 64, 10
1, 212077, Note_off_c, 0, 53, 66
1, 212080, Control_c, 0, 64, 53
1, 212094, Control_c, 0, 64, 65
1, 212100, Note_off_c, 0, 81, 62
1, 212109, Control_c, 0, 64, 74
1, 212124, Control_c, 0, 64, 91
1, 212139, Control_c, 0, 64, 104
1, 212143, Note_off_c, 0, 77, 61
1, 212154, Control_c, 0, 64, 111
1, 212169, Control_c, 0, 64, 112
1, 212177, Note_on_c, 0, 72, 61
1, 212187, Note_on_c, 0, 69, 54
1, 212217, Note_off_c, 0, 72, 63
1, 212220, Note_off_c, 0, 69, 63
1, 212285, Note_on_c, 0, 60, 58
1, 212285, Note_on_c, 0, 65, 56
1, 212290, Note_on_c, 0, 69, 70
1, 212293, Note_on_c, 0, 57, 53
1, 212299, Note_on_c, 0, 72, 64
1, 212309, Note_off_c, 0, 60, 64
1, 212309, Note_off_c, 0, 65, 59
1, 212318, Note_off_c, 0, 57, 60
1, 212320, Note_off_c, 0, 69, 67
1, 212321, Note_off_c, 0, 72, 63
1, 212396, Note_on_c, 0, 81, 69
1, 212410, Note_on_c, 0, 77, 47
1, 212413, Control_c, 0, 64, 111
1, 212427, Note_off_c, 0, 81, 65
1, 212428, Control_c, 0, 64, 102
1, 212439, Note_off_c, 0, 77, 60
1, 212443, Control_c, 0, 64, 86
1, 212457, Control_c, 0, 64, 68
1, 212472, Control_c, 0, 64, 27
1, 212486, Note_on_c, 0, 40, 68
1, 212487, Control_c, 0, 64, 0
1, 212490, Note_on_c, 0, 52, 68
1, 212511, Note_off_c, 0, 40, 56
1, 212512, Note_on_c, 0, 82, 76
1, 212515, Note_on_c, 0, 78, 73
1, 212517, Note_off_c, 0, 52, 66
1, 212517, Control_c, 0, 64, 51
1, 212531, Control_c, 0, 64, 65
1, 212546, Control_c, 0, 64, 74
1, 212561, Control_c, 0, 64, 88
1, 212576, Control_c, 0, 64, 100
1, 212589, Note_off_c, 0, 82, 56
1, 212591, Control_c, 0, 64, 104
1, 212605, Note_on_c, 0, 70, 69
1, 212606, Note_on_c, 0, 73, 73
1, 212623, Note_off_c, 0, 78, 61
1, 212636, Note_off_c, 0, 70, 64
1, 212649, Note_off_c, 0, 73, 59
1, 212649, Control_c, 0, 64, 104
1, 212702, Note_on_c, 0, 58, 64
1, 212706, Note_on_c, 0, 66, 60
1, 212707, Note_on_c, 0, 61, 65
1, 212721, Note_on_c, 0, 73, 87
1, 212722, Note_on_c, 0, 70, 77
1, 212723, Control_c, 0, 64, 105
1, 212728, Note_off_c, 0, 66, 65
1, 212737, Note_off_c, 0, 58, 61
1, 212737, Note_off_c, 0, 61, 65
1, 212738, Control_c, 0, 64, 106
1, 212753, Control_c, 0, 64, 107
1, 212768, Control_c, 0, 64, 108
1, 212788, Note_off_c, 0, 70, 58
1, 212798, Control_c, 0, 64, 108
1, 212820, Note_on_c, 0, 78, 71
1, 212822, Note_on_c, 0, 82, 80
1, 212828, Control_c, 0, 64, 108
1, 212831, Note_off_c, 0, 73, 61
1, 212843, Control_c, 0, 64, 107
1, 212858, Control_c, 0, 64, 97
1, 212873, Control_c, 0, 64, 78
1, 212875, Note_off_c, 0, 82, 64
1, 212884, Note_off_c, 0, 78, 60
1, 212888, Control_c, 0, 64, 34
1, 212902, Control_c, 0, 64, 0
1, 212929, Note_on_c, 0, 51, 84
1, 212935, Note_on_c, 0, 39, 67
1, 212947, Note_on_c, 0, 83, 80
1, 212950, Note_on_c, 0, 79, 79
1, 212960, Note_off_c, 0, 51, 69
1, 212969, Control_c, 0, 64, 55
1, 212973, Note_off_c, 0, 39, 63
1, 212984, Control_c, 0, 64, 70
1, 212999, Control_c, 0, 64, 83
1, 213014, Control_c, 0, 64, 102
1, 213028, Control_c, 0, 64, 127
1, 213043, Note_off_c, 0, 83, 53
1, 213047, Note_on_c, 0, 75, 75
1, 213051, Note_on_c, 0, 73, 74
1, 213057, Note_off_c, 0, 79, 62
1, 213081, Note_off_c, 0, 73, 62
1, 213095, Note_off_c, 0, 75, 61
1, 213150, Note_on_c, 0, 58, 74
1, 213150, Note_on_c, 0, 67, 70
1, 213150, Note_on_c, 0, 63, 71
1, 213159, Note_on_c, 0, 73, 85
1, 213160, Note_on_c, 0, 75, 77
1, 213177, Note_off_c, 0, 63, 68
1, 213180, Note_off_c, 0, 67, 65
1, 213181, Note_off_c, 0, 58, 65
1, 213233, Note_off_c, 0, 73, 59
1, 213259, Note_on_c, 0, 79, 72
1, 213266, Note_on_c, 0, 83, 82
1, 213276, Note_off_c, 0, 75, 59
1, 213326, Note_off_c, 0, 83, 63
1, 213333, Note_off_c, 0, 79, 56
1, 213370, Control_c, 0, 64, 101
1, 213385, Control_c, 0, 64, 80
1, 213391, Note_on_c, 0, 56, 85
1, 213394, Note_on_c, 0, 44, 83
1, 213394, Note_on_c, 0, 84, 81
1, 213397, Note_on_c, 0, 80, 77
1, 213400, Control_c, 0, 64, 61
1, 213415, Control_c, 0, 64, 0
1, 213422, Note_off_c, 0, 44, 65
1, 213442, Note_off_c, 0, 56, 65
1, 213444, Control_c, 0, 64, 49
1, 213459, Control_c, 0, 64, 65
1, 213473, Control_c, 0, 64, 76
1, 213488, Control_c, 0, 64, 91
1, 213503, Note_on_c, 0, 75, 78
1, 213503, Control_c, 0, 64, 108
1, 213504, Note_off_c, 0, 84, 58
1, 213508, Note_on_c, 0, 72, 76
1, 213518, Control_c, 0, 64, 121
1, 213533, Control_c, 0, 64, 127
1, 213544, Note_off_c, 0, 72, 60
1, 213545, Note_off_c, 0, 80, 62
1, 213561, Note_off_c, 0, 75, 61
1, 213607, Note_on_c, 0, 60, 72
1, 213607, Note_on_c, 0, 68, 72
1, 213612, Note_on_c, 0, 62, 67
1, 213618, Note_on_c, 0, 74, 75
1, 213621, Note_on_c, 0, 72, 82
1, 213633, Note_off_c, 0, 68, 70
1, 213644, Note_off_c, 0, 62, 65
1, 213646, Note_off_c, 0, 60, 63
1, 213721, Note_on_c, 0, 78, 79
1, 213726, Note_on_c, 0, 84, 81
1, 213736, Note_off_c, 0, 72, 61
1, 213737, Note_off_c, 0, 74, 62
1, 213769, Note_off_c, 0, 78, 64
1, 213788, Note_off_c, 0, 84, 59
1, 213867, Control_c, 0, 64, 94
1, 213873, Note_on_c, 0, 55, 96
1, 213876, Note_on_c, 0, 43, 90
1, 213882, Control_c, 0, 64, 71
1, 213892, Note_on_c, 0, 79, 73
1, 213896, Control_c, 0, 64, 29
1, 213898, Note_on_c, 0, 83, 78
1, 213911, Control_c, 0, 64, 0
1, 213917, Note_off_c, 0, 43, 62
1, 213926, Control_c, 0, 64, 10
1, 213941, Control_c, 0, 64, 57
1, 213956, Note_off_c, 0, 55, 62
1, 213956, Control_c, 0, 64, 69
1, 213970, Control_c, 0, 64, 82
1, 213985, Control_c, 0, 64, 104
1, 213986, Note_off_c, 0, 83, 57
1, 214000, Control_c, 0, 64, 127
1, 214026, Note_on_c, 0, 74, 74
1, 214026, Note_on_c, 0, 71, 80
1, 214044, Note_off_c, 0, 79, 41
1, 214049, Note_off_c, 0, 71, 70
1, 214064, Note_off_c, 0, 74, 59
1, 214107, Note_on_c, 0, 59, 67
1, 214110, Note_on_c, 0, 62, 69
1, 214114, Note_on_c, 0, 67, 65
1, 214126, Note_on_c, 0, 71, 79
1, 214131, Note_on_c, 0, 74, 72
1, 214144, Note_off_c, 0, 67, 66
1, 214156, Note_off_c, 0, 62, 60
1, 214169, Note_off_c, 0, 59, 63
1, 214172, Note_off_c, 0, 71, 54
1, 214205, Note_off_c, 0, 74, 58
1, 214211, Note_on_c, 0, 79, 71
1, 214221, Note_on_c, 0, 83, 79
1, 214260, Note_off_c, 0, 83, 58
1, 214278, Note_off_c, 0, 79, 59
1, 214282, Control_c, 0, 64, 86
1, 214296, Control_c, 0, 64, 53
1, 214311, Control_c, 0, 64, 0
1, 214320, Note_on_c, 0, 54, 88
1, 214324, Note_on_c, 0, 84, 86
1, 214328, Note_on_c, 0, 42, 82
1, 214330, Note_on_c, 0, 80, 81
1, 214356, Note_off_c, 0, 42, 65
1, 214356, Note_off_c, 0, 54, 67
1, 214356, Control_c, 0, 64, 31
1, 214370, Control_c, 0, 64, 61
1, 214385, Control_c, 0, 64, 73
1, 214400, Control_c, 0, 64, 100
1, 214416, Control_c, 0, 64, 127
1, 214417, Note_off_c, 0, 84, 59
1, 214438, Note_on_c, 0, 75, 75
1, 214450, Note_on_c, 0, 72, 68
1, 214478, Note_off_c, 0, 72, 66
1, 214479, Note_off_c, 0, 80, 62
1, 214495, Note_off_c, 0, 75, 64
1, 214542, Note_on_c, 0, 63, 74
1, 214546, Note_on_c, 0, 68, 68
1, 214548, Note_on_c, 0, 60, 69
1, 214554, Note_on_c, 0, 72, 79
1, 214557, Note_on_c, 0, 75, 84
1, 214573, Note_off_c, 0, 68, 69
1, 214574, Note_off_c, 0, 63, 65
1, 214584, Note_off_c, 0, 60, 65
1, 214611, Note_off_c, 0, 72, 58
1, 214646, Note_on_c, 0, 84, 79
1, 214653, Note_on_c, 0, 80, 71
1, 214656, Note_off_c, 0, 75, 58
1, 214694, Note_off_c, 0, 84, 65
1, 214739, Note_off_c, 0, 80, 62
1, 214749, Control_c, 0, 64, 115
1, 214764, Control_c, 0, 64, 80
1, 214769, Note_on_c, 0, 53, 95
1, 214774, Note_on_c, 0, 85, 80
1, 214775, Note_on_c, 0, 41, 86
1, 214778, Control_c, 0, 64, 28
1, 214779, Note_on_c, 0, 81, 77
1, 214792, Control_c, 0, 64, 0
1, 214799, Note_off_c, 0, 41, 67
1, 214807, Control_c, 0, 64, 26
1, 214819, Note_off_c, 0, 53, 69
1, 214822, Control_c, 0, 64, 58
1, 214837, Control_c, 0, 64, 70
1, 214852, Control_c, 0, 64, 87
1, 214867, Control_c, 0, 64, 127
1, 214887, Note_on_c, 0, 77, 78
1, 214897, Note_on_c, 0, 75, 74
1, 214916, Note_off_c, 0, 85, 62
1, 214935, Note_off_c, 0, 75, 57
1, 214935, Note_off_c, 0, 81, 62
1, 214947, Note_off_c, 0, 77, 60
1, 214987, Note_on_c, 0, 69, 76
1, 214989, Note_on_c, 0, 65, 75
1, 214993, Note_on_c, 0, 60, 67
1, 215002, Note_on_c, 0, 75, 85
1, 215006, Note_on_c, 0, 77, 85
1, 215013, Note_off_c, 0, 69, 68
1, 215049, Note_off_c, 0, 65, 63
1, 215063, Note_off_c, 0, 60, 65
1, 215108, Note_on_c, 0, 81, 75
1, 215111, Note_off_c, 0, 75, 61
1, 215117, Note_on_c, 0, 85, 82
1, 215120, Note_off_c, 0, 77, 59
1, 215180, Note_off_c, 0, 85, 62
1, 215201, Note_off_c, 0, 81, 46
1, 215245, Control_c, 0, 64, 80
1, 215260, Control_c, 0, 64, 0
1, 215267, Note_on_c, 0, 46, 94
1, 215277, Note_on_c, 0, 34, 81
1, 215278, Note_on_c, 0, 86, 84
1, 215281, Note_on_c, 0, 82, 86
1, 215299, Note_off_c, 0, 34, 66
1, 215311, Note_off_c, 0, 46, 65
1, 215314, Note_on_c, 0, 84, 39
1, 215315, Note_off_c, 0, 84, 127
1, 215320, Control_c, 0, 64, 55
1, 215335, Control_c, 0, 64, 67
1, 215349, Control_c, 0, 64, 81
1, 215364, Control_c, 0, 64, 105
1, 215379, Control_c, 0, 64, 127
1, 215385, Note_off_c, 0, 86, 50
1, 215419, Note_on_c, 0, 77, 79
1, 215421, Note_on_c, 0, 74, 71
1, 215429, Note_off_c, 0, 82, 63
1, 215448, Note_off_c, 0, 74, 69
1, 215466, Note_off_c, 0, 77, 61
1, 215496, Note_on_c, 0, 65, 72
1, 215501, Note_on_c, 0, 62, 67
1, 215501, Note_on_c, 0, 70, 73
1, 215513, Note_on_c, 0, 74, 87
1, 215513, Note_on_c, 0, 77, 77
1, 215524, Note_off_c, 0, 70, 69
1, 215550, Note_off_c, 0, 65, 62
1, 215563, Note_off_c, 0, 62, 61
1, 215582, Note_off_c, 0, 74, 61
1, 215587, Note_off_c, 0, 77, 60
1, 215606, Note_on_c, 0, 86, 81
1, 215607, Note_on_c, 0, 82, 76
1, 215655, Note_off_c, 0, 86, 64
1, 215689, Control_c, 0, 64, 89
1, 215694, Note_off_c, 0, 82, 63
1, 215704, Control_c, 0, 64, 56
1, 215715, Note_on_c, 0, 46, 90
1, 215719, Control_c, 0, 64, 0
1, 215722, Note_on_c, 0, 34, 86
1, 215723, Note_on_c, 0, 87, 95
1, 215725, Note_on_c, 0, 83, 86
1, 215730, Note_on_c, 0, 44, 75
1, 215731, Note_off_c, 0, 44, 127
1, 215745, Note_off_c, 0, 34, 69
1, 215758, Note_off_c, 0, 46, 64
1, 215764, Control_c, 0, 64, 62
1, 215779, Control_c, 0, 64, 75
1, 215794, Control_c, 0, 64, 98
1, 215806, Note_off_c, 0, 87, 60
1, 215809, Control_c, 0, 64, 127
1, 215822, Note_on_c, 0, 78, 81
1, 215828, Note_on_c, 0, 75, 74
1, 215856, Note_off_c, 0, 83, 57
1, 215875, Note_off_c, 0, 75, 62
1, 215888, Note_off_c, 0, 78, 63
1, 215928, Note_on_c, 0, 63, 77
1, 215930, Note_on_c, 0, 59, 74
1, 215931, Note_on_c, 0, 54, 76
1, 215933, Note_on_c, 0, 75, 80
1, 215934, Note_on_c, 0, 78, 79
1, 215960, Note_off_c, 0, 63, 70
1, 215973, Note_off_c, 0, 59, 62
1, 215991, Note_off_c, 0, 54, 63
1, 216026, Note_off_c, 0, 75, 62
1, 216032, Note_on_c, 0, 83, 71
1, 216045, Note_on_c, 0, 87, 80
1, 216050, Note_off_c, 0, 78, 64
1, 216098, Note_off_c, 0, 87, 63
1, 216136, Note_off_c, 0, 83, 60
1, 216143, Control_c, 0, 64, 100
1, 216157, Control_c, 0, 64, 69
1, 216163, Note_on_c, 0, 46, 91
1, 216172, Note_on_c, 0, 34, 80
1, 216172, Control_c, 0, 64, 0
1, 216173, Note_on_c, 0, 84, 89
1, 216174, Note_on_c, 0, 44, 77
1, 216174, Note_on_c, 0, 88, 93
1, 216194, Note_off_c, 0, 34, 70
1, 216195, Note_off_c, 0, 44, 39
1, 216206, Note_off_c, 0, 46, 65
1, 216217, Control_c, 0, 64, 58
1, 216232, Control_c, 0, 64, 71
1, 216246, Control_c, 0, 64, 87
1, 216262, Control_c, 0, 64, 109
1, 216269, Note_off_c, 0, 88, 57
1, 216277, Control_c, 0, 64, 127
1, 216280, Note_on_c, 0, 79, 75
1, 216289, Note_on_c, 0, 76, 83
1, 216303, Note_off_c, 0, 84, 62
1, 216339, Note_off_c, 0, 76, 60
1, 216351, Note_off_c, 0, 79, 58
1, 216384, Note_on_c, 0, 64, 80
1, 216387, Note_on_c, 0, 79, 74
1, 216389, Note_on_c, 0, 60, 75
1, 216392, Note_on_c, 0, 76, 80
1, 216393, Note_on_c, 0, 55, 69
1, 216406, Note_off_c, 0, 64, 71
1, 216417, Note_off_c, 0, 60, 69
1, 216441, Note_off_c, 0, 55, 63
1, 216464, Note_off_c, 0, 76, 55
1, 216468, Note_off_c, 0, 79, 55
1, 216488, Note_on_c, 0, 84, 70
1, 216488, Note_on_c, 0, 88, 81
1, 216551, Note_off_c, 0, 88, 65
1, 216572, Control_c, 0, 64, 108
1, 216581, Note_off_c, 0, 84, 64
1, 216587, Control_c, 0, 64, 69
1, 216600, Note_on_c, 0, 46, 96
1, 216602, Control_c, 0, 64, 0
1, 216609, Note_on_c, 0, 34, 80
1, 216609, Note_on_c, 0, 89, 91
1, 216612, Note_on_c, 0, 85, 90
1, 216632, Note_on_c, 0, 84, 53
1, 216634, Note_off_c, 0, 34, 62
1, 216645, Note_off_c, 0, 46, 66
1, 216646, Control_c, 0, 64, 37
1, 216653, Note_off_c, 0, 84, 63
1, 216657, Note_on_c, 0, 44, 28
1, 216658, Note_off_c, 0, 44, 127
1, 216661, Control_c, 0, 64, 67
1, 216676, Control_c, 0, 64, 80
1, 216698, Control_c, 0, 64, 127
1, 216719, Note_off_c, 0, 89, 57
1, 216722, Note_on_c, 0, 80, 85
1, 216727, Note_on_c, 0, 77, 78
1, 216766, Note_off_c, 0, 85, 64
1, 216777, Note_off_c, 0, 77, 61
1, 216784, Note_off_c, 0, 80, 65
1, 216839, Note_on_c, 0, 61, 79
1, 216839, Note_on_c, 0, 65, 81
1, 216840, Note_on_c, 0, 56, 78
1, 216843, Note_on_c, 0, 77, 90
1, 216847, Note_on_c, 0, 80, 98
1, 216871, Note_off_c, 0, 65, 62
1, 216889, Note_off_c, 0, 61, 63
1, 216897, Note_off_c, 0, 56, 62
1, 216947, Note_on_c, 0, 85, 85
1, 216948, Note_on_c, 0, 89, 85
1, 216951, Note_off_c, 0, 77, 41
1, 216971, Note_off_c, 0, 80, 58
1, 217015, Note_off_c, 0, 89, 62
1, 217085, Control_c, 0, 64, 104
1, 217093, Note_on_c, 0, 46, 104
1, 217096, Note_on_c, 0, 86, 88
1, 217099, Note_on_c, 0, 90, 93
1, 217099, Note_on_c, 0, 34, 96
1, 217099, Control_c, 0, 64, 69
1, 217114, Control_c, 0, 64, 0
1, 217123, Note_off_c, 0, 34, 70
1, 217138, Note_off_c, 0, 85, 62
1, 217153, Note_off_c, 0, 46, 66
1, 217159, Control_c, 0, 64, 60
1, 217165, Note_on_c, 0, 47, 29
1, 217174, Control_c, 0, 64, 76
1, 217188, Control_c, 0, 64, 127
1, 217204, Note_off_c, 0, 47, 29
1, 217250, Note_on_c, 0, 82, 87
1, 217253, Note_on_c, 0, 80, 88
1, 217262, Note_off_c, 0, 90, 62
1, 217272, Note_off_c, 0, 86, 62
1, 217318, Note_off_c, 0, 80, 56
1, 217353, Note_off_c, 0, 82, 63
1, 217378, Note_on_c, 0, 66, 80
1, 217382, Note_on_c, 0, 56, 74
1, 217383, Note_on_c, 0, 62, 73
1, 217388, Note_on_c, 0, 58, 78
1, 217394, Note_on_c, 0, 80, 104
1, 217400, Note_on_c, 0, 82, 87
1, 217401, Note_off_c, 0, 66, 69
1, 217433, Note_off_c, 0, 62, 62
1, 217436, Note_off_c, 0, 56, 63
1, 217445, Note_off_c, 0, 58, 63
1, 217552, Note_on_c, 0, 86, 89
1, 217553, Note_on_c, 0, 90, 91
1, 217576, Note_off_c, 0, 80, 59
1, 217579, Note_off_c, 0, 82, 63
1, 217629, Note_off_c, 0, 90, 62
1, 217737, Note_off_c, 0, 86, 60
1, 217744, Control_c, 0, 64, 104
1, 217757, Note_on_c, 0, 39, 97
1, 217757, Note_on_c, 0, 87, 97
1, 217759, Control_c, 0, 64, 68
1, 217760, Note_on_c, 0, 79, 106
1, 217762, Note_on_c, 0, 82, 95
1, 217763, Note_on_c, 0, 27, 89
1, 217765, Note_on_c, 0, 91, 92
1, 217768, Poly_aftertouch_c, 0, 86, 0
1, 217773, Note_on_c, 0, 86, 52
1, 217774, Control_c, 0, 64, 0
1, 217785, Note_off_c, 0, 91, 69
1, 217791, Note_off_c, 0, 27, 68
1, 217796, Note_off_c, 0, 86, 65
1, 217807, Note_off_c, 0, 87, 66
1, 217807, Note_off_c, 0, 82, 67
1, 217818, Control_c, 0, 64, 58
1, 217821, Note_off_c, 0, 79, 67
1, 217822, Note_off_c, 0, 39, 62
1, 217833, Control_c, 0, 64, 77
1, 217848, Control_c, 0, 64, 127
1, 218105, Note_on_c, 0, 54, 86
1, 218107, Note_on_c, 0, 69, 86
1, 218107, Note_on_c, 0, 57, 90
1, 218110, Note_on_c, 0, 42, 76
1, 218127, Note_off_c, 0, 54, 71
1, 218133, Note_off_c, 0, 57, 66
1, 218134, Note_off_c, 0, 42, 64
1, 218255, Note_on_c, 0, 55, 75
1, 218256, Note_on_c, 0, 43, 80
1, 218264, Note_on_c, 0, 58, 80
1, 218265, Note_on_c, 0, 70, 85
1, 218277, Note_off_c, 0, 69, 66
1, 218281, Note_off_c, 0, 55, 65
1, 218289, Note_off_c, 0, 43, 63
1, 218289, Note_off_c, 0, 58, 68
1, 218333, Note_off_c, 0, 70, 63
1, 218359, Control_c, 0, 64, 112
1, 218374, Control_c, 0, 64, 83
1, 218382, Note_on_c, 0, 38, 83
1, 218388, Control_c, 0, 64, 65
1, 218390, Note_on_c, 0, 50, 69
1, 218396, Note_on_c, 0, 74, 86
1, 218397, Note_on_c, 0, 62, 84
1, 218403, Control_c, 0, 64, 57
1, 218416, Note_off_c, 0, 50, 62
1, 218420, Control_c, 0, 64, 64
1, 218424, Note_off_c, 0, 62, 66
1, 218435, Control_c, 0, 64, 71
1, 218445, Note_off_c, 0, 38, 55
1, 218449, Control_c, 0, 64, 81
1, 218455, Note_off_c, 0, 74, 59
1, 218464, Control_c, 0, 64, 93
1, 218479, Control_c, 0, 64, 110
1, 218486, Note_on_c, 0, 51, 83
1, 218488, Note_on_c, 0, 39, 75
1, 218493, Control_c, 0, 64, 127
1, 218494, Note_on_c, 0, 63, 90
1, 218498, Note_on_c, 0, 75, 89
1, 218509, Note_off_c, 0, 51, 68
1, 218514, Note_off_c, 0, 63, 70
1, 218517, Note_off_c, 0, 39, 64
1, 218548, Note_off_c, 0, 75, 62
1, 218571, Poly_aftertouch_c, 0, 74, 0
1, 218599, Note_on_c, 0, 46, 87
1, 218600, Note_on_c, 0, 34, 88
1, 218610, Note_on_c, 0, 67, 94
1, 218610, Note_on_c, 0, 79, 93
1, 218620, Note_off_c, 0, 46, 70
1, 218630, Note_off_c, 0, 34, 66
1, 218630, Note_off_c, 0, 67, 66
1, 218649, Note_off_c, 0, 79, 61
1, 218700, Note_on_c, 0, 70, 92
1, 218702, Note_on_c, 0, 43, 88
1, 218704, Note_on_c, 0, 31, 82
1, 218705, Note_on_c, 0, 82, 89
1, 218727, Note_on_c, 0, 81, 34
1, 218730, Note_off_c, 0, 70, 57
1, 218733, Note_off_c, 0, 43, 64
1, 218737, Note_off_c, 0, 31, 63
1, 218751, Note_off_c, 0, 82, 63
1, 218758, Note_off_c, 0, 81, 59
1, 218773, Control_c, 0, 64, 74
1, 218788, Control_c, 0, 64, 0
1, 218811, Note_on_c, 0, 39, 92
1, 218816, Note_on_c, 0, 75, 105
1, 218819, Note_on_c, 0, 27, 85
1, 218819, Note_on_c, 0, 87, 102
1, 218837, Note_off_c, 0, 87, 68
1, 218840, Note_off_c, 0, 39, 63
1, 218847, Control_c, 0, 64, 58
1, 218849, Note_off_c, 0, 27, 66
1, 218852, Note_on_c, 0, 40, 65
1, 218861, Note_off_c, 0, 75, 63
1, 218862, Control_c, 0, 64, 87
1, 218877, Control_c, 0, 64, 127
1, 218879, Note_off_c, 0, 40, 37
1, 219135, Note_on_c, 0, 63, 94
1, 219136, Note_on_c, 0, 43, 84
1, 219136, Note_on_c, 0, 58, 96
1, 219138, Note_on_c, 0, 51, 83
1, 219138, Note_on_c, 0, 55, 82
1, 219138, Note_on_c, 0, 70, 90
1, 219165, Control_c, 0, 64, 94
1, 219180, Control_c, 0, 64, 64
1, 219195, Control_c, 0, 64, 0
1, 219345, Control_c, 0, 64, 61
1, 219360, Control_c, 0, 64, 74
1, 219375, Control_c, 0, 64, 93
1, 219389, Control_c, 0, 64, 127
1, 219414, Note_off_c, 0, 70, 59
1, 219427, Note_off_c, 0, 43, 62
1, 219434, Note_off_c, 0, 58, 61
1, 219436, Note_off_c, 0, 55, 59
1, 219448, Note_off_c, 0, 51, 62
1, 219487, Note_off_c, 0, 63, 61
1, 219620, Note_on_c, 0, 44, 80
1, 219620, Note_on_c, 0, 56, 79
1, 219624, Note_on_c, 0, 51, 76
1, 219627, Note_on_c, 0, 61, 101
1, 219629, Note_on_c, 0, 73, 96
1, 219644, Note_off_c, 0, 56, 69
1, 219647, Note_off_c, 0, 51, 67
1, 219649, Note_off_c, 0, 44, 64
1, 219663, Note_off_c, 0, 61, 65
1, 219669, Note_off_c, 0, 73, 63
1, 219672, Note_on_c, 0, 68, 22
1, 219717, Note_off_c, 0, 68, 53
1, 219829, Note_on_c, 0, 44, 71
1, 219831, Note_on_c, 0, 56, 72
1, 219833, Note_on_c, 0, 71, 72
1, 219834, Note_on_c, 0, 51, 75
1, 219836, Note_on_c, 0, 63, 82
1, 219836, Note_on_c, 0, 59, 78
1, 219848, Note_off_c, 0, 71, 69
1, 219857, Note_off_c, 0, 63, 71
1, 219857, Note_off_c, 0, 51, 68
1, 219857, Note_off_c, 0, 56, 67
1, 219859, Note_off_c, 0, 59, 69
1, 219861, Note_off_c, 0, 44, 62
1, 219871, Control_c, 0, 64, 99
1, 219886, Control_c, 0, 64, 66
1, 219901, Control_c, 0, 64, 0
1, 219904, Note_on_c, 0, 51, 80
1, 219906, Note_on_c, 0, 58, 94
1, 219907, Note_on_c, 0, 70, 93
1, 219908, Note_on_c, 0, 63, 92
1, 219910, Note_on_c, 0, 55, 78
1, 219910, Note_on_c, 0, 43, 81
1, 219964, Note_on_c, 0, 68, 26
1, 219989, Control_c, 0, 64, 61
1, 220004, Control_c, 0, 64, 71
1, 220020, Control_c, 0, 64, 88
1, 220024, Note_off_c, 0, 68, 41
1, 220035, Control_c, 0, 64, 109
1, 220050, Control_c, 0, 64, 127
1, 220051, Note_off_c, 0, 55, 54
1, 220060, Note_off_c, 0, 43, 61
1, 220074, Note_off_c, 0, 70, 63
1, 220076, Note_off_c, 0, 58, 60
1, 220104, Note_off_c, 0, 51, 60
1, 220137, Note_off_c, 0, 63, 59
1, 220153, Control_c, 0, 64, 80
1, 220168, Control_c, 0, 64, 0
1, 220180, Note_on_c, 0, 42, 83
1, 220183, Note_on_c, 0, 54, 75
1, 220190, Note_on_c, 0, 69, 89
1, 220194, Note_on_c, 0, 57, 87
1, 220206, Note_off_c, 0, 54, 70
1, 220212, Note_off_c, 0, 42, 65
1, 220212, Control_c, 0, 64, 54
1, 220216, Note_off_c, 0, 57, 70
1, 220227, Control_c, 0, 64, 72
1, 220242, Control_c, 0, 64, 91
1, 220256, Control_c, 0, 64, 127
1, 220307, Note_on_c, 0, 55, 69
1, 220308, Note_on_c, 0, 58, 77
1, 220308, Note_on_c, 0, 70, 84
1, 220315, Note_on_c, 0, 43, 66
1, 220316, Note_off_c, 0, 69, 65
1, 220327, Note_off_c, 0, 55, 64
1, 220330, Note_off_c, 0, 58, 69
1, 220343, Note_off_c, 0, 43, 61
1, 220346, Control_c, 0, 64, 113
1, 220361, Control_c, 0, 64, 76
1, 220369, Note_off_c, 0, 70, 63
1, 220375, Control_c, 0, 64, 0
1, 220411, Note_on_c, 0, 38, 83
1, 220413, Note_on_c, 0, 50, 75
1, 220420, Control_c, 0, 64, 61
1, 220426, Note_on_c, 0, 74, 84
1, 220436, Note_on_c, 0, 62, 80
1, 220442, Note_off_c, 0, 50, 66
1, 220442, Control_c, 0, 64, 80
1, 220450, Note_off_c, 0, 38, 60
1, 220457, Control_c, 0, 64, 127
1, 220459, Note_off_c, 0, 62, 69
1, 220489, Note_off_c, 0, 74, 56
1, 220518, Note_on_c, 0, 51, 75
1, 220519, Note_on_c, 0, 39, 75
1, 220524, Note_on_c, 0, 74, 48
1, 220528, Note_on_c, 0, 63, 80
1, 220532, Note_on_c, 0, 75, 84
1, 220540, Poly_aftertouch_c, 0, 73, 0
1, 220542, Note_off_c, 0, 51, 66
1, 220548, Note_off_c, 0, 39, 62
1, 220550, Note_off_c, 0, 63, 70
1, 220550, Note_off_c, 0, 74, 58
1, 220580, Note_off_c, 0, 75, 64
1, 220629, Note_on_c, 0, 34, 77
1, 220635, Note_on_c, 0, 46, 61
1, 220636, Note_off_c, 0, 46, 127
1, 220639, Note_on_c, 0, 79, 94
1, 220644, Note_on_c, 0, 67, 87
1, 220658, Note_off_c, 0, 34, 64
1, 220665, Note_off_c, 0, 67, 70
1, 220678, Note_off_c, 0, 79, 62
1, 220726, Poly_aftertouch_c, 0, 39, 0
1, 220729, Note_on_c, 0, 31, 75
1, 220736, Note_on_c, 0, 82, 93
1, 220737, Note_on_c, 0, 43, 57
1, 220739, Note_on_c, 0, 70, 75
1, 220755, Note_off_c, 0, 31, 64
1, 220762, Note_off_c, 0, 70, 70
1, 220765, Note_off_c, 0, 43, 56
1, 220781, Note_off_c, 0, 82, 65
1, 220814, Control_c, 0, 64, 94
1, 220829, Control_c, 0, 64, 62
1, 220843, Control_c, 0, 64, 0
1, 220858, Note_on_c, 0, 34, 84
1, 220867, Note_on_c, 0, 79, 99
1, 220868, Note_on_c, 0, 91, 99
1, 220882, Note_off_c, 0, 34, 64
1, 220884, Note_off_c, 0, 91, 74
1, 220885, Note_on_c, 0, 25, 47
1, 220886, Note_off_c, 0, 25, 127
1, 220886, Note_on_c, 0, 35, 56
1, 220888, Control_c, 0, 64, 34
1, 220889, Note_on_c, 0, 23, 44
1, 220891, Note_off_c, 0, 79, 65
1, 220899, Note_on_c, 0, 36, 49
1, 220903, Control_c, 0, 64, 69
1, 220917, Note_off_c, 0, 35, 55
1, 220918, Control_c, 0, 64, 94
1, 220932, Note_off_c, 0, 36, 34
1, 220933, Control_c, 0, 64, 127
1, 220945, Note_off_c, 0, 23, 46
1, 221169, Note_on_c, 0, 46, 81
1, 221169, Control_c, 0, 64, 107
1, 221175, Note_on_c, 0, 34, 82
1, 221175, Note_on_c, 0, 55, 98
1, 221176, Note_on_c, 0, 58, 86
1, 221184, Note_on_c, 0, 67, 87
1, 221184, Note_on_c, 0, 63, 86
1, 221192, Control_c, 0, 64, 77
1, 221207, Control_c, 0, 64, 41
1, 221221, Control_c, 0, 64, 0
1, 221355, Control_c, 0, 64, 25
1, 221369, Control_c, 0, 64, 60
1, 221384, Control_c, 0, 64, 71
1, 221399, Control_c, 0, 64, 88
1, 221414, Control_c, 0, 64, 127
1, 221461, Note_off_c, 0, 58, 62
1, 221461, Poly_aftertouch_c, 0, 41, 127
1, 221490, Note_off_c, 0, 55, 57
1, 221495, Note_off_c, 0, 67, 55
1, 221560, Note_off_c, 0, 46, 58
1, 221584, Note_off_c, 0, 34, 48
1, 221664, Note_off_c, 0, 63, 60
1, 221666, Control_c, 0, 64, 108
1, 221681, Control_c, 0, 64, 90
1, 221691, Note_on_c, 0, 46, 81
1, 221696, Control_c, 0, 64, 84
1, 221697, Note_on_c, 0, 62, 80
1, 221699, Note_on_c, 0, 56, 91
1, 221700, Note_on_c, 0, 67, 92
1, 221703, Note_on_c, 0, 34, 74
1, 221724, Note_off_c, 0, 34, 70
1, 221725, Control_c, 0, 64, 86
1, 221732, Note_off_c, 0, 56, 57
1, 221736, Note_off_c, 0, 46, 61
1, 221740, Note_off_c, 0, 62, 58
1, 221740, Control_c, 0, 64, 91
1, 221741, Poly_aftertouch_c, 0, 41, 0
1, 221755, Control_c, 0, 64, 98
1, 221770, Control_c, 0, 64, 109
1, 221784, Control_c, 0, 64, 127
1, 221861, Note_off_c, 0, 67, 59
1, 221909, Note_on_c, 0, 46, 87
1, 221911, Note_on_c, 0, 56, 85
1, 221911, Note_on_c, 0, 62, 82
1, 221914, Note_on_c, 0, 34, 76
1, 221914, Note_on_c, 0, 65, 81
1, 221918, Control_c, 0, 64, 85
1, 221936, Note_off_c, 0, 56, 73
1, 221940, Control_c, 0, 64, 54
1, 221947, Note_off_c, 0, 46, 68
1, 221947, Note_off_c, 0, 62, 62
1, 221953, Note_off_c, 0, 65, 62
1, 221955, Control_c, 0, 64, 0
1, 221956, Note_off_c, 0, 34, 65
1, 221980, Note_on_c, 0, 39, 36
1, 221986, Note_on_c, 0, 46, 91
1, 221990, Note_on_c, 0, 55, 95
1, 221995, Note_on_c, 0, 67, 84
1, 221998, Note_on_c, 0, 63, 84
1, 222010, Note_on_c, 0, 65, 51
1, 222011, Note_off_c, 0, 46, 68
1, 222014, Control_c, 0, 64, 32
1, 222027, Note_off_c, 0, 39, 62
1, 222029, Control_c, 0, 64, 65
1, 222033, Note_off_c, 0, 55, 61
1, 222039, Note_off_c, 0, 65, 57
1, 222043, Control_c, 0, 64, 76
1, 222055, Note_off_c, 0, 63, 66
1, 222057, Note_off_c, 0, 67, 63
1, 222058, Control_c, 0, 64, 94
1, 222073, Control_c, 0, 64, 122
1, 222088, Control_c, 0, 64, 127
1, 222094, Poly_aftertouch_c, 0, 62, 0
1, 222251, Control_c, 0, 64, 91
1, 222266, Control_c, 0, 64, 59
1, 222281, Control_c, 0, 64, 0
1, 222284, Note_on_c, 0, 54, 88
1, 222291, Note_on_c, 0, 42, 80
1, 222299, Note_on_c, 0, 57, 93
1, 222299, Note_on_c, 0, 69, 93
1, 222311, Note_off_c, 0, 54, 65
1, 222320, Note_off_c, 0, 42, 64
1, 222329, Note_off_c, 0, 57, 65
1, 222332, Note_on_c, 0, 59, 47
1, 222341, Control_c, 0, 64, 54
1, 222356, Control_c, 0, 64, 76
1, 222358, Note_off_c, 0, 59, 40
1, 222371, Control_c, 0, 64, 102
1, 222385, Control_c, 0, 64, 127
1, 222425, Note_on_c, 0, 43, 75
1, 222426, Note_on_c, 0, 55, 63
1, 222433, Note_on_c, 0, 58, 84
1, 222436, Note_on_c, 0, 70, 82
1, 222448, Note_off_c, 0, 69, 67
1, 222452, Note_off_c, 0, 43, 65
1, 222454, Note_off_c, 0, 58, 70
1, 222455, Note_off_c, 0, 55, 63
1, 222490, Note_off_c, 0, 70, 64
1, 222505, Control_c, 0, 64, 118
1, 222520, Control_c, 0, 64, 86
1, 222534, Control_c, 0, 64, 70
1, 222539, Note_on_c, 0, 38, 80
1, 222542, Note_on_c, 0, 50, 74
1, 222549, Control_c, 0, 64, 66
1, 222555, Note_on_c, 0, 74, 89
1, 222556, Note_on_c, 0, 62, 84
1, 222564, Control_c, 0, 64, 72
1, 222567, Note_off_c, 0, 38, 60
1, 222567, Note_off_c, 0, 50, 65
1, 222578, Note_off_c, 0, 62, 68
1, 222579, Control_c, 0, 64, 89
1, 222594, Control_c, 0, 64, 122
1, 222597, Note_off_c, 0, 74, 64
1, 222608, Control_c, 0, 64, 127
1, 222639, Note_on_c, 0, 39, 73
1, 222641, Note_on_c, 0, 51, 76
1, 222647, Note_on_c, 0, 63, 85
1, 222651, Note_on_c, 0, 75, 87
1, 222667, Note_off_c, 0, 63, 71
1, 222669, Note_off_c, 0, 39, 64
1, 222669, Note_off_c, 0, 51, 69
1, 222703, Note_off_c, 0, 75, 64
1, 222752, Note_on_c, 0, 34, 77
1, 222764, Note_on_c, 0, 79, 89
1, 222765, Note_on_c, 0, 46, 48
1, 222765, Note_on_c, 0, 67, 85
1, 222778, Note_on_c, 0, 39, 22
1, 222779, Note_off_c, 0, 39, 127
1, 222785, Note_off_c, 0, 34, 63
1, 222788, Note_off_c, 0, 67, 70
1, 222788, Note_off_c, 0, 79, 63
1, 222796, Note_off_c, 0, 46, 59
1, 222824, Poly_aftertouch_c, 0, 44, 127
1, 222857, Note_on_c, 0, 43, 80
1, 222862, Note_on_c, 0, 70, 85
1, 222863, Note_on_c, 0, 31, 65
1, 222867, Note_on_c, 0, 82, 85
1, 222868, Poly_aftertouch_c, 0, 44, 0
1, 222882, Note_off_c, 0, 70, 67
1, 222888, Note_off_c, 0, 43, 65
1, 222898, Note_off_c, 0, 31, 52
1, 222911, Note_off_c, 0, 82, 64
1, 222912, Control_c, 0, 64, 108
1, 222924, Poly_aftertouch_c, 0, 33, 127
1, 222927, Control_c, 0, 64, 72
1, 222941, Control_c, 0, 64, 0
1, 222957, Poly_aftertouch_c, 0, 33, 0
1, 222964, Note_on_c, 0, 39, 91
1, 222970, Note_on_c, 0, 27, 78
1, 222974, Note_on_c, 0, 75, 99
1, 222976, Note_on_c, 0, 87, 100
1, 222990, Note_off_c, 0, 39, 66
1, 222990, Note_off_c, 0, 87, 75
1, 223000, Control_c, 0, 64, 64
1, 223003, Note_on_c, 0, 40, 59
1, 223003, Note_off_c, 0, 27, 65
1, 223013, Note_off_c, 0, 75, 63
1, 223015, Control_c, 0, 64, 82
1, 223030, Control_c, 0, 64, 127
1, 223032, Note_off_c, 0, 40, 36
1, 223287, Note_on_c, 0, 58, 95
1, 223288, Note_on_c, 0, 43, 85
1, 223288, Note_on_c, 0, 55, 85
1, 223289, Note_on_c, 0, 63, 93
1, 223289, Note_on_c, 0, 70, 88
1, 223290, Note_on_c, 0, 51, 85
1, 223313, Control_c, 0, 64, 112
1, 223328, Control_c, 0, 64, 77
1, 223342, Control_c, 0, 64, 0
1, 223453, Control_c, 0, 64, 36
1, 223468, Control_c, 0, 64, 64
1, 223483, Control_c, 0, 64, 75
1, 223497, Control_c, 0, 64, 99
1, 223512, Control_c, 0, 64, 127
1, 223536, Note_off_c, 0, 70, 60
1, 223554, Note_off_c, 0, 43, 61
1, 223561, Note_off_c, 0, 58, 61
1, 223579, Note_off_c, 0, 55, 59
1, 223600, Note_off_c, 0, 51, 57
1, 223639, Note_off_c, 0, 63, 58
1, 223745, Note_on_c, 0, 46, 61
1, 223772, Note_on_c, 0, 51, 64
1, 223800, Note_on_c, 0, 58, 82
1, 223830, Note_on_c, 0, 61, 103
1, 223833, Note_on_c, 0, 73, 100
1, 223846, Note_off_c, 0, 58, 64
1, 223861, Note_off_c, 0, 51, 62
1, 223867, Note_off_c, 0, 61, 64
1, 223871, Note_off_c, 0, 73, 60
1, 223872, Note_off_c, 0, 46, 63
1, 223974, Note_on_c, 0, 56, 85
1, 223980, Note_on_c, 0, 44, 74
1, 223980, Note_on_c, 0, 59, 98
1, 223980, Note_on_c, 0, 71, 91
1, 223983, Note_on_c, 0, 63, 87
1, 223990, Note_on_c, 0, 52, 68
1, 223998, Note_off_c, 0, 56, 69
1, 224011, Note_off_c, 0, 63, 64
1, 224014, Note_off_c, 0, 59, 56
1, 224022, Note_off_c, 0, 52, 65
1, 224026, Note_off_c, 0, 71, 64
1, 224028, Note_on_c, 0, 51, 2
1, 224034, Note_off_c, 0, 44, 60
1, 224067, Note_off_c, 0, 51, 41
1, 224262, Note_on_c, 0, 51, 77
1, 224262, Note_on_c, 0, 55, 78
1, 224265, Note_on_c, 0, 58, 87
1, 224266, Note_on_c, 0, 63, 83
1, 224267, Note_on_c, 0, 43, 70
1, 224267, Note_on_c, 0, 70, 79
1, 224284, Note_off_c, 0, 58, 70
1, 224285, Note_off_c, 0, 55, 67
1, 224287, Note_off_c, 0, 70, 71
1, 224291, Note_off_c, 0, 51, 65
1, 224291, Note_off_c, 0, 63, 67
1, 224293, Note_off_c, 0, 43, 56
1, 224332, Note_on_c, 0, 55, 92
1, 224335, Control_c, 0, 64, 91
1, 224336, Note_on_c, 0, 63, 87
1, 224337, Note_on_c, 0, 58, 99
1, 224338, Note_on_c, 0, 70, 89
1, 224339, Note_on_c, 0, 51, 86
1, 224343, Note_on_c, 0, 43, 73
1, 224350, Control_c, 0, 64, 60
1, 224365, Control_c, 0, 64, 0
1, 224425, Control_c, 0, 64, 41
1, 224439, Control_c, 0, 64, 65
1, 224454, Control_c, 0, 64, 77
1, 224469, Control_c, 0, 64, 103
1, 224484, Control_c, 0, 64, 127
1, 224526, Note_off_c, 0, 55, 54
1, 224551, Note_off_c, 0, 70, 62
1, 224553, Note_off_c, 0, 58, 60
1, 224556, Note_off_c, 0, 43, 40
1, 224597, Note_off_c, 0, 51, 59
1, 224628, Note_off_c, 0, 63, 58
1, 224631, Control_c, 0, 64, 93
1, 224646, Control_c, 0, 64, 62
1, 224661, Control_c, 0, 64, 0
1, 224664, Note_on_c, 0, 54, 83
1, 224669, Note_on_c, 0, 42, 75
1, 224671, Note_on_c, 0, 57, 94
1, 224673, Note_on_c, 0, 69, 87
1, 224676, Control_c, 0, 64, 19
1, 224689, Note_off_c, 0, 54, 69
1, 224691, Control_c, 0, 64, 60
1, 224698, Note_off_c, 0, 42, 64
1, 224705, Note_off_c, 0, 57, 62
1, 224705, Control_c, 0, 64, 79
1, 224711, Note_on_c, 0, 67, 34
1, 224712, Note_off_c, 0, 67, 127
1, 224720, Control_c, 0, 64, 127
1, 224807, Note_on_c, 0, 55, 75
1, 224809, Note_on_c, 0, 43, 75
1, 224821, Note_on_c, 0, 58, 84
1, 224823, Note_on_c, 0, 70, 83
1, 224835, Note_off_c, 0, 55, 65
1, 224835, Note_off_c, 0, 69, 66
1, 224841, Note_off_c, 0, 43, 63
1, 224844, Note_off_c, 0, 58, 69
1, 224887, Note_off_c, 0, 70, 64
1, 224914, Control_c, 0, 64, 89
1, 224936, Control_c, 0, 64, 66
1, 224938, Note_on_c, 0, 50, 82
1, 224940, Note_on_c, 0, 38, 77
1, 224951, Control_c, 0, 64, 31
1, 224960, Note_on_c, 0, 74, 83
1, 224961, Note_off_c, 0, 50, 71
1, 224966, Control_c, 0, 64, 57
1, 224969, Note_on_c, 0, 62, 69
1, 224973, Note_on_c, 0, 60, 69
1, 224981, Control_c, 0, 64, 72
1, 224983, Note_off_c, 0, 38, 51
1, 224991, Note_on_c, 0, 72, 49
1, 224992, Note_off_c, 0, 72, 127
1, 224992, Note_off_c, 0, 60, 64
1, 224997, Control_c, 0, 64, 92
1, 224999, Note_off_c, 0, 62, 66
1, 225008, Note_off_c, 0, 74, 62
1, 225011, Control_c, 0, 64, 127
1, 225043, Poly_aftertouch_c, 0, 73, 127
1, 225052, Note_on_c, 0, 51, 80
1, 225054, Note_on_c, 0, 39, 72
1, 225063, Note_on_c, 0, 63, 91
1, 225065, Note_on_c, 0, 75, 93
1, 225074, Poly_aftertouch_c, 0, 73, 0
1, 225079, Note_off_c, 0, 51, 65
1, 225093, Note_off_c, 0, 39, 61
1, 225102, Note_off_c, 0, 63, 61
1, 225128, Note_off_c, 0, 75, 62
1, 225194, Note_on_c, 0, 46, 82
1, 225196, Note_on_c, 0, 34, 81
1, 225207, Note_on_c, 0, 67, 93
1, 225209, Note_on_c, 0, 79, 85
1, 225212, Note_on_c, 0, 39, 50
1, 225213, Note_off_c, 0, 39, 127
1, 225221, Note_off_c, 0, 46, 68
1, 225225, Note_on_c, 0, 81, 53
1, 225226, Note_off_c, 0, 81, 127
1, 225226, Note_off_c, 0, 67, 70
1, 225227, Note_off_c, 0, 34, 65
1, 225238, Poly_aftertouch_c, 0, 39, 0
1, 225240, Note_on_c, 0, 69, 43
1, 225241, Note_off_c, 0, 69, 127
1, 225243, Note_on_c, 0, 80, 33
1, 225251, Note_off_c, 0, 79, 58
1, 225275, Note_off_c, 0, 80, 56
1, 225321, Note_on_c, 0, 31, 78
1, 225327, Note_on_c, 0, 82, 100
1, 225329, Note_on_c, 0, 70, 90
1, 225347, Note_off_c, 0, 70, 72
1, 225348, Note_off_c, 0, 31, 63
1, 225350, Note_on_c, 0, 41, 27
1, 225375, Note_off_c, 0, 82, 63
1, 225384, Note_off_c, 0, 41, 48
1, 225469, Control_c, 0, 64, 105
1, 225484, Control_c, 0, 64, 70
1, 225499, Note_on_c, 0, 34, 94
1, 225499, Control_c, 0, 64, 0
1, 225506, Note_on_c, 0, 79, 107
1, 225507, Note_on_c, 0, 22, 87
1, 225508, Note_on_c, 0, 91, 101
1, 225525, Note_off_c, 0, 91, 67
1, 225530, Note_off_c, 0, 22, 66
1, 225543, Note_off_c, 0, 79, 61
1, 225543, Control_c, 0, 64, 63
1, 225558, Control_c, 0, 64, 84
1, 225561, Note_off_c, 0, 34, 62
1, 225573, Control_c, 0, 64, 127
1, 225654, Poly_aftertouch_c, 0, 35, 0
1, 225900, Note_on_c, 0, 55, 91
1, 225901, Note_on_c, 0, 46, 86
1, 225901, Note_on_c, 0, 34, 81
1, 225901, Note_on_c, 0, 67, 86
1, 225902, Note_on_c, 0, 58, 88
1, 225903, Note_on_c, 0, 63, 83
1, 225907, Control_c, 0, 64, 114
1, 225922, Control_c, 0, 64, 82
1, 225937, Control_c, 0, 64, 58
1, 225952, Control_c, 0, 64, 0
1, 226086, Control_c, 0, 64, 40
1, 226101, Control_c, 0, 64, 57
1, 226116, Control_c, 0, 64, 63
1, 226131, Control_c, 0, 64, 66
1, 226145, Control_c, 0, 64, 69
1, 226160, Control_c, 0, 64, 75
1, 226175, Control_c, 0, 64, 86
1, 226190, Control_c, 0, 64, 109
1, 226204, Control_c, 0, 64, 127
1, 226244, Note_off_c, 0, 58, 62
1, 226268, Note_off_c, 0, 55, 59
1, 226283, Note_off_c, 0, 67, 56
1, 226382, Note_off_c, 0, 34, 58
1, 226385, Note_off_c, 0, 46, 58
1, 226435, Control_c, 0, 64, 107
1, 226450, Control_c, 0, 64, 84
1, 226454, Note_off_c, 0, 63, 61
1, 226464, Control_c, 0, 64, 67
1, 226470, Note_on_c, 0, 46, 81
1, 226475, Note_on_c, 0, 62, 77
1, 226479, Note_on_c, 0, 56, 85
1, 226479, Note_on_c, 0, 67, 86
1, 226479, Control_c, 0, 64, 45
1, 226489, Note_on_c, 0, 34, 66
1, 226494, Control_c, 0, 64, 54
1, 226506, Note_off_c, 0, 56, 62
1, 226509, Control_c, 0, 64, 65
1, 226513, Note_off_c, 0, 46, 64
1, 226513, Note_off_c, 0, 62, 61
1, 226516, Note_off_c, 0, 34, 62
1, 226524, Control_c, 0, 64, 73
1, 226539, Control_c, 0, 64, 85
1, 226554, Control_c, 0, 64, 101
1, 226569, Control_c, 0, 64, 123
1, 226583, Control_c, 0, 64, 127
1, 226687, Note_off_c, 0, 67, 59
1, 226691, Note_on_c, 0, 46, 85
1, 226692, Note_on_c, 0, 34, 73
1, 226697, Note_on_c, 0, 62, 75
1, 226698, Note_on_c, 0, 65, 80
1, 226700, Note_on_c, 0, 56, 74
1, 226701, Control_c, 0, 64, 100
1, 226709, Note_on_c, 0, 39, 48
1, 226710, Note_off_c, 0, 39, 127
1, 226716, Note_off_c, 0, 46, 68
1, 226716, Control_c, 0, 64, 75
1, 226721, Note_off_c, 0, 62, 66
1, 226727, Note_off_c, 0, 56, 65
1, 226730, Note_off_c, 0, 65, 61
1, 226731, Note_off_c, 0, 34, 63
1, 226731, Control_c, 0, 64, 42
1, 226746, Control_c, 0, 64, 0
1, 226760, Note_on_c, 0, 39, 65
1, 226761, Note_on_c, 0, 55, 91
1, 226761, Control_c, 0, 64, 22
1, 226763, Note_on_c, 0, 46, 82
1, 226766, Note_on_c, 0, 63, 84
1, 226775, Note_on_c, 0, 67, 74
1, 226776, Control_c, 0, 64, 60
1, 226783, Note_off_c, 0, 46, 72
1, 226784, Note_off_c, 0, 55, 65
1, 226790, Note_off_c, 0, 39, 66
1, 226790, Control_c, 0, 64, 75
1, 226799, Note_off_c, 0, 63, 63
1, 226802, Note_off_c, 0, 67, 66
1, 226805, Control_c, 0, 64, 102
1, 226820, Control_c, 0, 64, 127
1, 226869, Poly_aftertouch_c, 0, 62, 0
1, 226923, Control_c, 0, 64, 119
1, 226938, Control_c, 0, 64, 87
1, 226953, Control_c, 0, 64, 60
1, 226968, Control_c, 0, 64, 0
1, 227040, Note_on_c, 0, 46, 77
1, 227043, Note_on_c, 0, 56, 90
1, 227045, Note_on_c, 0, 34, 71
1, 227045, Note_on_c, 0, 62, 84
1, 227048, Note_on_c, 0, 67, 87
1, 227105, Note_off_c, 0, 56, 0
1, 227117, Note_on_c, 0, 56, 51
1, 227243, Control_c, 0, 64, 29
1, 227257, Control_c, 0, 64, 56
1, 227272, Control_c, 0, 64, 66
1, 227287, Control_c, 0, 64, 77
1, 227302, Control_c, 0, 64, 96
1, 227317, Control_c, 0, 64, 127
1, 227431, Poly_aftertouch_c, 0, 41, 127
1, 227438, Note_off_c, 0, 67, 49
1, 227469, Note_off_c, 0, 34, 56
1, 227475, Note_off_c, 0, 46, 48
1, 227477, Note_off_c, 0, 56, 51
1, 227493, Note_off_c, 0, 62, 54
1, 227539, Control_c, 0, 64, 102
1, 227553, Note_on_c, 0, 46, 79
1, 227554, Control_c, 0, 64, 88
1, 227561, Note_on_c, 0, 67, 87
1, 227562, Note_on_c, 0, 34, 71
1, 227562, Note_on_c, 0, 62, 79
1, 227564, Note_on_c, 0, 56, 92
1, 227569, Control_c, 0, 64, 85
1, 227579, Poly_aftertouch_c, 0, 41, 0
1, 227582, Note_off_c, 0, 46, 68
1, 227583, Note_off_c, 0, 56, 69
1, 227583, Control_c, 0, 64, 86
1, 227591, Note_off_c, 0, 34, 64
1, 227598, Control_c, 0, 64, 90
1, 227603, Note_off_c, 0, 62, 54
1, 227604, Note_on_c, 0, 66, 32
1, 227613, Control_c, 0, 64, 102
1, 227628, Control_c, 0, 64, 127
1, 227637, Note_off_c, 0, 66, 55
1, 227760, Note_on_c, 0, 46, 84
1, 227761, Control_c, 0, 64, 113
1, 227764, Note_on_c, 0, 34, 70
1, 227764, Note_on_c, 0, 56, 81
1, 227767, Note_on_c, 0, 62, 74
1, 227768, Note_on_c, 0, 65, 77
1, 227773, Note_off_c, 0, 67, 62
1, 227776, Control_c, 0, 64, 81
1, 227782, Note_off_c, 0, 46, 70
1, 227783, Note_off_c, 0, 56, 72
1, 227791, Control_c, 0, 64, 55
1, 227794, Note_off_c, 0, 34, 61
1, 227795, Note_off_c, 0, 62, 67
1, 227806, Control_c, 0, 64, 0
1, 227836, Note_on_c, 0, 39, 77
1, 227836, Control_c, 0, 64, 31
1, 227836, Note_on_c, 0, 46, 83
1, 227840, Note_on_c, 0, 55, 81
1, 227842, Note_on_c, 0, 63, 82
1, 227848, Note_on_c, 0, 67, 73
1, 227850, Control_c, 0, 64, 65
1, 227862, Note_off_c, 0, 46, 70
1, 227862, Note_off_c, 0, 55, 68
1, 227865, Control_c, 0, 64, 82
1, 227866, Note_off_c, 0, 39, 68
1, 227878, Note_off_c, 0, 67, 66
1, 227880, Control_c, 0, 64, 127
1, 227881, Note_off_c, 0, 65, 49
1, 227890, Note_off_c, 0, 63, 61
1, 228080, Control_c, 0, 64, 88
1, 228095, Control_c, 0, 64, 60
1, 228110, Control_c, 0, 64, 0
1, 228139, Note_on_c, 0, 46, 85
1, 228139, Note_on_c, 0, 56, 94
1, 228141, Note_on_c, 0, 34, 76
1, 228141, Note_on_c, 0, 62, 84
1, 228143, Note_on_c, 0, 67, 81
1, 228288, Control_c, 0, 64, 25
1, 228303, Control_c, 0, 64, 57
1, 228318, Control_c, 0, 64, 69
1, 228333, Control_c, 0, 64, 87
1, 228347, Control_c, 0, 64, 127
1, 228453, Poly_aftertouch_c, 0, 41, 127
1, 228560, Note_off_c, 0, 67, 52
1, 228564, Note_off_c, 0, 34, 51
1, 228565, Note_off_c, 0, 46, 56
1, 228570, Note_off_c, 0, 56, 53
1, 228597, Note_off_c, 0, 62, 55
1, 228735, Note_on_c, 0, 46, 84
1, 228739, Note_on_c, 0, 62, 89
1, 228740, Note_on_c, 0, 56, 98
1, 228740, Note_on_c, 0, 67, 91
1, 228742, Note_on_c, 0, 34, 69
1, 228775, Note_off_c, 0, 34, 65
1, 228789, Note_off_c, 0, 46, 64
1, 228798, Poly_aftertouch_c, 0, 41, 0
1, 228958, Note_off_c, 0, 56, 56
1, 228959, Note_off_c, 0, 62, 55
1, 229100, Note_off_c, 0, 67, 45
1, 229119, Note_on_c, 0, 46, 84
1, 229121, Note_on_c, 0, 56, 85
1, 229122, Note_on_c, 0, 34, 79
1, 229123, Note_on_c, 0, 62, 81
1, 229125, Note_on_c, 0, 65, 84
1, 229147, Note_off_c, 0, 56, 69
1, 229149, Note_off_c, 0, 46, 67
1, 229151, Note_off_c, 0, 34, 67
1, 229165, Note_off_c, 0, 62, 59
1, 229177, Note_off_c, 0, 65, 59
1, 229201, Control_c, 0, 64, 93
1, 229209, Note_on_c, 0, 65, 71
1, 229213, Note_on_c, 0, 55, 96
1, 229213, Note_on_c, 0, 62, 73
1, 229214, Note_on_c, 0, 47, 89
1, 229216, Control_c, 0, 64, 71
1, 229217, Note_on_c, 0, 35, 82
1, 229222, Note_on_c, 0, 67, 79
1, 229230, Control_c, 0, 64, 0
1, 229275, Control_c, 0, 64, 41
1, 229288, Note_off_c, 0, 35, 64
1, 229290, Control_c, 0, 64, 62
1, 229300, Note_off_c, 0, 55, 63
1, 229303, Note_off_c, 0, 47, 65
1, 229304, Control_c, 0, 64, 72
1, 229318, Note_off_c, 0, 67, 63
1, 229319, Control_c, 0, 64, 87
1, 229320, Note_off_c, 0, 62, 63
1, 229327, Note_off_c, 0, 65, 64
1, 229334, Control_c, 0, 64, 127
1, 229687, Note_on_c, 0, 55, 81
1, 229687, Note_on_c, 0, 67, 96
1, 229690, Note_on_c, 0, 59, 75
1, 229690, Note_on_c, 0, 79, 83
1, 229690, Note_on_c, 0, 47, 71
1, 229691, Note_on_c, 0, 77, 90
1, 229692, Note_on_c, 0, 74, 88
1, 229695, Note_on_c, 0, 50, 79
1, 229727, Control_c, 0, 64, 104
1, 229742, Control_c, 0, 64, 82
1, 229756, Control_c, 0, 64, 66
1, 229771, Control_c, 0, 64, 51
1, 229786, Control_c, 0, 64, 52
1, 229800, Control_c, 0, 64, 63
1, 229815, Control_c, 0, 64, 72
1, 229830, Control_c, 0, 64, 84
1, 229845, Control_c, 0, 64, 103
1, 229860, Control_c, 0, 64, 127
1, 230117, Note_off_c, 0, 79, 55
1, 230137, Note_off_c, 0, 77, 53
1, 230139, Note_off_c, 0, 67, 55
1, 230152, Note_off_c, 0, 59, 55
1, 230174, Note_off_c, 0, 74, 54
1, 230179, Note_off_c, 0, 47, 51
1, 230179, Note_off_c, 0, 50, 63
1, 230239, Note_off_c, 0, 55, 51
1, 230387, Note_on_c, 0, 67, 85
1, 230390, Note_on_c, 0, 59, 70
1, 230396, Note_on_c, 0, 77, 75
1, 230396, Note_on_c, 0, 47, 55
1, 230396, Note_on_c, 0, 50, 60
1, 230396, Note_on_c, 0, 79, 66
1, 230399, Note_on_c, 0, 74, 69
1, 230400, Note_on_c, 0, 55, 49
1, 230411, Note_off_c, 0, 67, 69
1, 230423, Note_off_c, 0, 74, 69
1, 230424, Note_off_c, 0, 47, 55
1, 230425, Note_off_c, 0, 79, 62
1, 230426, Note_off_c, 0, 55, 58
1, 230426, Note_off_c, 0, 59, 59
1, 230426, Note_off_c, 0, 77, 62
1, 230426, Note_off_c, 0, 50, 65
1, 230594, Poly_aftertouch_c, 0, 74, 0
1, 230604, Note_on_c, 0, 55, 49
1, 230609, Note_on_c, 0, 74, 52
1, 230611, Note_on_c, 0, 59, 58
1, 230612, Note_on_c, 0, 47, 54
1, 230614, Note_on_c, 0, 50, 53
1, 230614, Note_on_c, 0, 67, 79
1, 230615, Note_on_c, 0, 77, 69
1, 230625, Note_on_c, 0, 79, 61
1, 230638, Note_off_c, 0, 59, 64
1, 230640, Note_off_c, 0, 67, 65
1, 230644, Note_off_c, 0, 47, 54
1, 230645, Note_off_c, 0, 50, 61
1, 230647, Note_off_c, 0, 55, 60
1, 230657, Note_off_c, 0, 79, 62
1, 230662, Note_off_c, 0, 74, 62
1, 230667, Note_off_c, 0, 77, 56
1, 230766, Note_on_c, 0, 55, 67
1, 230766, Note_on_c, 0, 59, 56
1, 230767, Note_on_c, 0, 50, 59
1, 230769, Note_on_c, 0, 47, 56
1, 230780, Note_on_c, 0, 67, 80
1, 230780, Note_on_c, 0, 77, 69
1, 230781, Note_on_c, 0, 74, 68
1, 230787, Note_on_c, 0, 79, 60
1, 230797, Note_off_c, 0, 50, 69
1, 230799, Note_off_c, 0, 59, 62
1, 230801, Note_off_c, 0, 47, 52
1, 230802, Note_off_c, 0, 55, 58
1, 230808, Note_off_c, 0, 67, 61
1, 230819, Note_off_c, 0, 79, 61
1, 230834, Note_off_c, 0, 74, 59
1, 230840, Note_off_c, 0, 77, 57
1, 230898, Note_on_c, 0, 50, 60
1, 230901, Note_on_c, 0, 47, 54
1, 230901, Note_on_c, 0, 55, 70
1, 230901, Note_on_c, 0, 59, 60
1, 230909, Note_on_c, 0, 67, 76
1, 230913, Note_on_c, 0, 77, 65
1, 230924, Note_on_c, 0, 79, 59
1, 230933, Note_on_c, 0, 74, 61
1, 230939, Note_off_c, 0, 50, 67
1, 230940, Note_off_c, 0, 47, 53
1, 230940, Note_off_c, 0, 59, 65
1, 230940, Note_off_c, 0, 67, 68
1, 230943, Note_off_c, 0, 55, 55
1, 230949, Note_off_c, 0, 79, 62
1, 230959, Note_off_c, 0, 74, 67
1, 230960, Note_off_c, 0, 77, 58
1, 231013, Note_on_c, 0, 59, 67
1, 231015, Note_on_c, 0, 50, 70
1, 231017, Note_on_c, 0, 67, 85
1, 231019, Note_on_c, 0, 47, 58
1, 231019, Note_on_c, 0, 74, 72
1, 231022, Note_on_c, 0, 77, 72
1, 231024, Note_on_c, 0, 79, 62
1, 231027, Note_on_c, 0, 55, 70
1, 231041, Note_off_c, 0, 67, 67
1, 231043, Note_off_c, 0, 47, 59
1, 231043, Note_off_c, 0, 50, 70
1, 231043, Note_off_c, 0, 59, 66
1, 231044, Note_off_c, 0, 79, 63
1, 231052, Note_off_c, 0, 77, 66
1, 231054, Note_off_c, 0, 74, 64
1, 231058, Note_off_c, 0, 55, 65
1, 231103, Note_on_c, 0, 59, 76
1, 231105, Note_on_c, 0, 50, 77
1, 231111, Note_on_c, 0, 77, 79
1, 231112, Note_on_c, 0, 55, 78
1, 231113, Note_on_c, 0, 67, 82
1, 231114, Note_on_c, 0, 47, 58
1, 231116, Note_on_c, 0, 79, 66
1, 231119, Note_on_c, 0, 74, 70
1, 231130, Note_off_c, 0, 59, 61
1, 231133, Note_off_c, 0, 67, 67
1, 231133, Note_off_c, 0, 79, 66
1, 231134, Note_off_c, 0, 50, 67
1, 231135, Note_off_c, 0, 47, 62
1, 231140, Note_off_c, 0, 55, 59
1, 231145, Note_off_c, 0, 74, 69
1, 231148, Note_off_c, 0, 77, 61
1, 231189, Note_on_c, 0, 59, 80
1, 231192, Note_on_c, 0, 55, 77
1, 231193, Note_on_c, 0, 67, 87
1, 231194, Note_on_c, 0, 79, 73
1, 231195, Note_on_c, 0, 77, 68
1, 231203, Note_on_c, 0, 50, 63
1, 231204, Note_on_c, 0, 74, 78
1, 231210, Note_off_c, 0, 59, 70
1, 231215, Note_off_c, 0, 67, 69
1, 231217, Note_on_c, 0, 47, 40
1, 231220, Note_off_c, 0, 79, 66
1, 231221, Note_off_c, 0, 55, 63
1, 231222, Note_off_c, 0, 74, 72
1, 231230, Note_off_c, 0, 50, 66
1, 231236, Note_off_c, 0, 77, 61
1, 231254, Note_off_c, 0, 47, 50
1, 231520, Control_c, 0, 64, 89
1, 231535, Control_c, 0, 64, 65
1, 231550, Control_c, 0, 64, 0
1, 231630, Note_on_c, 0, 59, 80
1, 231630, Note_on_c, 0, 56, 81
1, 231632, Note_on_c, 0, 68, 97
1, 231634, Note_on_c, 0, 80, 86
1, 231636, Note_on_c, 0, 47, 69
1, 231637, Note_on_c, 0, 76, 90
1, 231639, Note_on_c, 0, 74, 86
1, 231642, Note_on_c, 0, 50, 75
1, 231644, Note_on_c, 0, 52, 66
1, 231657, Note_off_c, 0, 59, 65
1, 231675, Control_c, 0, 64, 50
1, 231678, Note_off_c, 0, 47, 67
1, 231682, Note_off_c, 0, 52, 64
1, 231684, Note_off_c, 0, 50, 69
1, 231684, Note_off_c, 0, 74, 68
1, 231685, Note_off_c, 0, 76, 67
1, 231686, Note_off_c, 0, 80, 63
1, 231689, Note_off_c, 0, 56, 63
1, 231690, Control_c, 0, 64, 76
1, 231696, Note_off_c, 0, 68, 53
1, 231705, Control_c, 0, 64, 127
1, 232083, Note_on_c, 0, 28, 77
1, 232083, Note_on_c, 0, 40, 85
1, 232089, Note_on_c, 0, 52, 85
1, 232090, Note_on_c, 0, 64, 79
1, 232110, Note_off_c, 0, 28, 61
1, 232115, Note_off_c, 0, 52, 66
1, 232126, Note_off_c, 0, 40, 60
1, 232137, Note_off_c, 0, 64, 67
1, 232382, Note_on_c, 0, 52, 63
1, 232390, Note_on_c, 0, 62, 58
1, 232390, Note_on_c, 0, 68, 72
1, 232391, Note_on_c, 0, 80, 68
1, 232394, Note_on_c, 0, 76, 67
1, 232396, Note_on_c, 0, 71, 62
1, 232397, Note_on_c, 0, 64, 57
1, 232398, Note_on_c, 0, 59, 59
1, 232425, Note_off_c, 0, 52, 58
1, 232427, Note_off_c, 0, 62, 58
1, 232429, Note_off_c, 0, 64, 61
1, 232439, Note_off_c, 0, 59, 63
1, 232444, Note_off_c, 0, 68, 59
1, 232453, Note_off_c, 0, 71, 52
1, 232459, Note_off_c, 0, 80, 59
1, 232461, Note_off_c, 0, 76, 55
1, 232531, Note_on_c, 0, 62, 53
1, 232534, Note_on_c, 0, 52, 58
1, 232534, Note_on_c, 0, 59, 55
1, 232536, Note_on_c, 0, 64, 51
1, 232545, Note_on_c, 0, 80, 59
1, 232547, Note_on_c, 0, 76, 64
1, 232549, Note_on_c, 0, 68, 60
1, 232565, Note_off_c, 0, 68, 68
1, 232566, Note_off_c, 0, 64, 64
1, 232567, Note_on_c, 0, 71, 47
1, 232568, Note_off_c, 0, 52, 63
1, 232569, Note_off_c, 0, 62, 62
1, 232573, Note_off_c, 0, 80, 64
1, 232577, Note_off_c, 0, 59, 62
1, 232581, Note_off_c, 0, 76, 62
1, 232596, Note_off_c, 0, 71, 55
1, 232635, Note_on_c, 0, 68, 66
1, 232640, Note_on_c, 0, 62, 70
1, 232642, Note_on_c, 0, 52, 64
1, 232644, Note_on_c, 0, 76, 70
1, 232645, Note_on_c, 0, 80, 68
1, 232650, Note_on_c, 0, 64, 55
1, 232662, Note_on_c, 0, 59, 55
1, 232663, Note_on_c, 0, 71, 55
1, 232668, Note_off_c, 0, 68, 66
1, 232669, Note_off_c, 0, 52, 67
1, 232670, Note_off_c, 0, 80, 70
1, 232672, Note_off_c, 0, 64, 62
1, 232677, Note_off_c, 0, 62, 58
1, 232677, Note_off_c, 0, 76, 66
1, 232681, Note_off_c, 0, 71, 66
1, 232686, Note_off_c, 0, 59, 63
1, 232730, Note_on_c, 0, 52, 68
1, 232731, Note_on_c, 0, 76, 72
1, 232738, Note_on_c, 0, 68, 67
1, 232741, Note_on_c, 0, 62, 44
1, 232742, Note_on_c, 0, 80, 66
1, 232743, Note_on_c, 0, 59, 65
1, 232745, Note_on_c, 0, 64, 53
1, 232752, Note_off_c, 0, 68, 72
1, 232753, Note_on_c, 0, 71, 63
1, 232753, Note_off_c, 0, 52, 71
1, 232759, Note_off_c, 0, 80, 65
1, 232762, Note_off_c, 0, 62, 61
1, 232768, Note_off_c, 0, 76, 61
1, 232772, Note_off_c, 0, 59, 60
1, 232772, Note_off_c, 0, 64, 56
1, 232778, Note_off_c, 0, 71, 64
1, 232808, Note_on_c, 0, 68, 74
1, 232809, Note_on_c, 0, 62, 63
1, 232811, Note_on_c, 0, 59, 72
1, 232814, Note_on_c, 0, 76, 69
1, 232818, Note_on_c, 0, 52, 68
1, 232821, Note_on_c, 0, 64, 62
1, 232829, Note_on_c, 0, 71, 65
1, 232835, Note_on_c, 0, 80, 59
1, 232840, Note_off_c, 0, 64, 67
1, 232841, Note_off_c, 0, 68, 63
1, 232848, Note_off_c, 0, 62, 55
1, 232849, Note_off_c, 0, 52, 66
1, 232851, Note_off_c, 0, 71, 70
1, 232853, Note_off_c, 0, 80, 61
1, 232878, Note_off_c, 0, 76, 0
1, 232893, Note_on_c, 0, 76, 62
1, 232896, Note_on_c, 0, 62, 67
1, 232897, Note_on_c, 0, 68, 73
1, 232900, Note_on_c, 0, 52, 71
1, 232900, Note_on_c, 0, 64, 70
1, 232903, Note_on_c, 0, 80, 61
1, 232912, Note_on_c, 0, 71, 68
1, 232922, Note_off_c, 0, 68, 62
1, 232927, Note_off_c, 0, 64, 67
1, 232929, Note_off_c, 0, 52, 66
1, 232930, Note_off_c, 0, 62, 65
1, 232930, Note_off_c, 0, 80, 60
1, 232937, Note_off_c, 0, 71, 69
1, 232942, Note_off_c, 0, 59, 64
1, 232946, Note_off_c, 0, 76, 64
1, 232972, Poly_aftertouch_c, 0, 59, 0
1, 232979, Note_on_c, 0, 59, 74
1, 232981, Note_on_c, 0, 76, 70
1, 232982, Note_on_c, 0, 52, 76
1, 232984, Note_on_c, 0, 64, 83
1, 232984, Note_on_c, 0, 68, 86
1, 232984, Note_on_c, 0, 62, 73
1, 232989, Note_on_c, 0, 80, 76
1, 232991, Note_on_c, 0, 71, 89
1, 233004, Note_off_c, 0, 68, 69
1, 233005, Note_off_c, 0, 64, 68
1, 233006, Note_off_c, 0, 62, 70
1, 233014, Note_off_c, 0, 80, 67
1, 233015, Note_off_c, 0, 52, 64
1, 233019, Note_off_c, 0, 71, 62
1, 233027, Note_off_c, 0, 59, 64
1, 233032, Note_off_c, 0, 76, 63
1, 233350, Control_c, 0, 64, 114
1, 233365, Control_c, 0, 64, 83
1, 233380, Control_c, 0, 64, 55
1, 233395, Control_c, 0, 64, 0
1, 233413, Note_on_c, 0, 56, 81
1, 233413, Note_on_c, 0, 68, 91
1, 233416, Note_on_c, 0, 80, 81
1, 233416, Note_on_c, 0, 59, 81
1, 233418, Note_on_c, 0, 47, 71
1, 233419, Note_on_c, 0, 76, 89
1, 233419, Note_on_c, 0, 74, 85
1, 233420, Note_on_c, 0, 52, 75
1, 233573, Control_c, 0, 64, 51
1, 233589, Control_c, 0, 64, 66
1, 233604, Control_c, 0, 64, 82
1, 233618, Control_c, 0, 64, 106
1, 233633, Control_c, 0, 64, 127
1, 233639, Note_off_c, 0, 74, 62
1, 233645, Note_off_c, 0, 76, 59
1, 233665, Note_off_c, 0, 52, 62
1, 233670, Note_off_c, 0, 68, 54
1, 233675, Note_off_c, 0, 59, 53
1, 233679, Note_off_c, 0, 80, 60
1, 233687, Note_off_c, 0, 47, 36
1, 233694, Note_off_c, 0, 56, 51
1, 233811, Control_c, 0, 64, 104
1, 233823, Note_on_c, 0, 56, 80
1, 233825, Control_c, 0, 64, 79
1, 233827, Note_on_c, 0, 59, 79
1, 233827, Note_on_c, 0, 68, 102
1, 233828, Note_on_c, 0, 47, 77
1, 233829, Note_on_c, 0, 73, 94
1, 233830, Note_on_c, 0, 77, 85
1, 233831, Note_on_c, 0, 53, 78
1, 233833, Note_on_c, 0, 80, 85
1, 233840, Control_c, 0, 64, 62
1, 233855, Control_c, 0, 64, 49
1, 233866, Note_off_c, 0, 47, 65
1, 233870, Control_c, 0, 64, 63
1, 233884, Note_off_c, 0, 59, 58
1, 233885, Control_c, 0, 64, 74
1, 233887, Note_off_c, 0, 53, 66
1, 233887, Note_off_c, 0, 68, 65
1, 233887, Note_off_c, 0, 80, 65
1, 233893, Note_off_c, 0, 56, 63
1, 233899, Control_c, 0, 64, 95
1, 233902, Note_off_c, 0, 77, 63
1, 233917, Note_off_c, 0, 73, 62
1, 233922, Control_c, 0, 64, 127
1, 234218, Control_c, 0, 64, 97
1, 234227, Note_on_c, 0, 68, 94
1, 234227, Note_on_c, 0, 80, 86
1, 234227, Note_on_c, 0, 48, 80
1, 234229, Note_on_c, 0, 56, 82
1, 234229, Note_on_c, 0, 60, 80
1, 234229, Note_on_c, 0, 72, 93
1, 234230, Note_on_c, 0, 77, 89
1, 234233, Control_c, 0, 64, 75
1, 234235, Note_on_c, 0, 53, 76
1, 234248, Control_c, 0, 64, 61
1, 234262, Control_c, 0, 64, 60
1, 234268, Note_off_c, 0, 48, 63
1, 234277, Control_c, 0, 64, 72
1, 234280, Note_off_c, 0, 60, 64
1, 234281, Note_off_c, 0, 68, 64
1, 234282, Note_off_c, 0, 53, 64
1, 234283, Note_off_c, 0, 80, 65
1, 234284, Note_off_c, 0, 56, 64
1, 234292, Control_c, 0, 64, 89
1, 234307, Control_c, 0, 64, 127
1, 234310, Note_off_c, 0, 72, 59
1, 234314, Note_off_c, 0, 77, 58
1, 234648, Control_c, 0, 64, 106
1, 234655, Note_on_c, 0, 70, 86
1, 234656, Note_on_c, 0, 68, 90
1, 234656, Note_on_c, 0, 58, 83
1, 234657, Note_on_c, 0, 62, 83
1, 234657, Note_on_c, 0, 80, 85
1, 234667, Note_on_c, 0, 77, 84
1, 234668, Note_on_c, 0, 50, 82
1, 234668, Note_on_c, 0, 53, 82
1, 234671, Control_c, 0, 64, 81
1, 234686, Control_c, 0, 64, 61
1, 234701, Control_c, 0, 64, 0
1, 234730, Control_c, 0, 64, 41
1, 234745, Control_c, 0, 64, 64
1, 234760, Control_c, 0, 64, 83
1, 234774, Control_c, 0, 64, 127
1, 234817, Note_off_c, 0, 80, 58
1, 234842, Note_off_c, 0, 70, 59
1, 234863, Note_off_c, 0, 68, 62
1, 234877, Note_off_c, 0, 50, 60
1, 234905, Note_off_c, 0, 62, 58
1, 234922, Note_off_c, 0, 58, 56
1, 235126, Note_off_c, 0, 77, 26
1, 235145, Control_c, 0, 64, 90
1, 235157, Note_on_c, 0, 51, 78
1, 235158, Note_on_c, 0, 63, 86
1, 235159, Control_c, 0, 64, 59
1, 235160, Note_on_c, 0, 67, 100
1, 235160, Note_on_c, 0, 58, 83
1, 235160, Note_on_c, 0, 70, 80
1, 235161, Note_on_c, 0, 79, 85
1, 235163, Note_on_c, 0, 75, 86
1, 235174, Control_c, 0, 64, 0
1, 235201, Note_off_c, 0, 53, 65
1, 235213, Note_off_c, 0, 63, 63
1, 235219, Control_c, 0, 64, 34
1, 235222, Note_off_c, 0, 51, 63
1, 235225, Note_off_c, 0, 58, 63
1, 235234, Control_c, 0, 64, 70
1, 235249, Control_c, 0, 64, 91
1, 235264, Control_c, 0, 64, 127
1, 235422, Note_off_c, 0, 67, 56
1, 235453, Note_off_c, 0, 70, 57
1, 235505, Note_off_c, 0, 79, 60
1, 235514, Note_off_c, 0, 75, 58
1, 235524, Note_on_c, 0, 46, 96
1, 235560, Note_off_c, 0, 46, 62
1, 235798, Note_on_c, 0, 77, 86
1, 235799, Note_on_c, 0, 58, 83
1, 235804, Note_on_c, 0, 63, 87
1, 235804, Control_c, 0, 64, 113
1, 235806, Note_on_c, 0, 72, 98
1, 235806, Note_on_c, 0, 75, 87
1, 235808, Note_on_c, 0, 53, 79
1, 235808, Note_on_c, 0, 84, 85
1, 235819, Control_c, 0, 64, 79
1, 235833, Note_on_c, 0, 83, 60
1, 235834, Note_off_c, 0, 83, 68
1, 235834, Control_c, 0, 64, 43
1, 235849, Control_c, 0, 64, 0
1, 235881, Note_off_c, 0, 63, 63
1, 235893, Control_c, 0, 64, 58
1, 235906, Note_off_c, 0, 53, 64
1, 235908, Control_c, 0, 64, 69
1, 235915, Note_off_c, 0, 58, 60
1, 235923, Control_c, 0, 64, 84
1, 235938, Control_c, 0, 64, 107
1, 235953, Control_c, 0, 64, 127
1, 235953, Note_off_c, 0, 84, 64
1, 235997, Note_off_c, 0, 77, 58
1, 236000, Note_off_c, 0, 72, 58
1, 236015, Note_off_c, 0, 75, 60
1, 236518, Note_on_c, 0, 46, 85
1, 236520, Note_on_c, 0, 34, 77
1, 236522, Note_on_c, 0, 50, 96
1, 236523, Note_on_c, 0, 62, 81
1, 236525, Note_on_c, 0, 56, 81
1, 236528, Note_on_c, 0, 58, 85
1, 236538, Control_c, 0, 64, 104
1, 236553, Control_c, 0, 64, 76
1, 236568, Control_c, 0, 64, 44
1, 236583, Control_c, 0, 64, 0
1, 236791, Control_c, 0, 64, 43
1, 236806, Control_c, 0, 64, 58
1, 236821, Control_c, 0, 64, 65
1, 236835, Control_c, 0, 64, 75
1, 236850, Control_c, 0, 64, 85
1, 236865, Control_c, 0, 64, 94
1, 236880, Control_c, 0, 64, 100
1, 236895, Control_c, 0, 64, 107
1, 236917, Control_c, 0, 64, 113
1, 236932, Control_c, 0, 64, 118
1, 236947, Control_c, 0, 64, 120
1, 236969, Note_off_c, 0, 46, 64
1, 236976, Control_c, 0, 64, 121
1, 237008, Note_off_c, 0, 56, 55
1, 237032, Note_off_c, 0, 62, 59
1, 237066, Note_off_c, 0, 50, 64
1, 237088, Note_off_c, 0, 34, 47
1, 237288, Control_c, 0, 64, 120
1, 237303, Control_c, 0, 64, 107
1, 237317, Control_c, 0, 64, 90
1, 237332, Control_c, 0, 64, 75
1, 237347, Control_c, 0, 64, 60
1, 237356, Note_on_c, 0, 55, 72
1, 237357, Note_on_c, 0, 39, 68
1, 237358, Note_on_c, 0, 27, 68
1, 237358, Note_on_c, 0, 63, 76
1, 237361, Control_c, 0, 64, 26
1, 237363, Note_on_c, 0, 51, 70
1, 237372, Note_off_c, 0, 58, 62
1, 237376, Control_c, 0, 64, 38
1, 237386, Note_off_c, 0, 27, 64
1, 237388, Note_off_c, 0, 39, 61
1, 237391, Control_c, 0, 64, 56
1, 237394, Note_off_c, 0, 51, 64
1, 237398, Note_off_c, 0, 55, 63
1, 237406, Control_c, 0, 64, 65
1, 237421, Control_c, 0, 64, 70
1, 237435, Control_c, 0, 64, 77
1, 237443, Note_off_c, 0, 63, 65
1, 237450, Control_c, 0, 64, 80
1, 237465, Control_c, 0, 64, 81
1, 237644, Control_c, 0, 64, 80
1, 237666, Control_c, 0, 64, 77
1, 237681, Control_c, 0, 64, 70
1, 237696, Control_c, 0, 64, 52
1, 237711, Control_c, 0, 64, 0
1, 237728, Note_on_c, 0, 29, 54
1, 237729, Note_on_c, 0, 58, 81
1, 237735, Note_on_c, 0, 41, 46
1, 237739, Note_on_c, 0, 50, 62
1, 237762, Note_off_c, 0, 41, 57
1, 237762, Note_off_c, 0, 29, 55
1, 237765, Note_off_c, 0, 50, 62
1, 238006, Control_c, 0, 64, 47
1, 238009, Note_on_c, 0, 31, 51
1, 238021, Control_c, 0, 64, 64
1, 238022, Note_on_c, 0, 51, 43
1, 238036, Control_c, 0, 64, 70
1, 238045, Note_off_c, 0, 31, 60
1, 238051, Control_c, 0, 64, 77
1, 238052, Note_off_c, 0, 58, 63
1, 238056, Note_off_c, 0, 51, 53
1, 238066, Control_c, 0, 64, 80
1, 238081, Control_c, 0, 64, 83
1, 238096, Control_c, 0, 64, 84
1, 238110, Control_c, 0, 64, 85
1, 238125, Control_c, 0, 64, 85
1, 238140, Control_c, 0, 64, 86
1, 238214, Control_c, 0, 64, 85
1, 238229, Control_c, 0, 64, 80
1, 238244, Control_c, 0, 64, 69
1, 238258, Control_c, 0, 64, 31
1, 238266, Note_on_c, 0, 24, 54
1, 238272, Note_on_c, 0, 67, 73
1, 238273, Control_c, 0, 64, 0
1, 238276, Note_on_c, 0, 36, 41
1, 238276, Note_on_c, 0, 56, 59
1, 238308, Note_off_c, 0, 24, 46
1, 238309, Note_off_c, 0, 36, 48
1, 238313, Note_off_c, 0, 56, 63
1, 238541, Note_on_c, 0, 26, 51
1, 238549, Control_c, 0, 64, 34
1, 238552, Note_on_c, 0, 65, 70
1, 238555, Note_on_c, 0, 56, 54
1, 238559, Note_on_c, 0, 38, 49
1, 238563, Control_c, 0, 64, 60
1, 238567, Note_off_c, 0, 67, 63
1, 238571, Note_on_c, 0, 58, 40
1, 238577, Note_off_c, 0, 26, 49
1, 238578, Control_c, 0, 64, 67
1, 238580, Note_off_c, 0, 56, 58
1, 238582, Note_off_c, 0, 65, 64
1, 238588, Note_off_c, 0, 38, 52
1, 238593, Control_c, 0, 64, 74
1, 238602, Note_off_c, 0, 58, 52
1, 238607, Control_c, 0, 64, 80
1, 238622, Control_c, 0, 64, 83
1, 238637, Control_c, 0, 64, 86
1, 238652, Control_c, 0, 64, 87
1, 238667, Control_c, 0, 64, 88
1, 238681, Control_c, 0, 64, 89
1, 238696, Control_c, 0, 64, 90
1, 238711, Control_c, 0, 64, 91
1, 238726, Control_c, 0, 64, 91
1, 238771, Control_c, 0, 64, 91
1, 238786, Control_c, 0, 64, 87
1, 238801, Control_c, 0, 64, 79
1, 238814, Note_on_c, 0, 56, 63
1, 238815, Control_c, 0, 64, 69
1, 238823, Note_on_c, 0, 36, 49
1, 238827, Note_on_c, 0, 48, 46
1, 238828, Note_on_c, 0, 63, 61
1, 238829, Note_on_c, 0, 51, 53
1, 238830, Control_c, 0, 64, 53
1, 238845, Control_c, 0, 64, 0
1, 238847, Note_off_c, 0, 56, 65
1, 238853, Note_off_c, 0, 36, 55
1, 238856, Note_off_c, 0, 48, 53
1, 238863, Note_off_c, 0, 51, 62
1, 238889, Control_c, 0, 64, 27
1, 238904, Control_c, 0, 64, 35
1, 238919, Control_c, 0, 64, 37
1, 238963, Control_c, 0, 64, 38
1, 238978, Control_c, 0, 64, 38
1, 239060, Note_off_c, 0, 63, 64
1, 239068, Control_c, 0, 64, 38
1, 239082, Control_c, 0, 64, 37
1, 239091, Note_on_c, 0, 46, 46
1, 239092, Note_on_c, 0, 34, 44
1, 239093, Note_on_c, 0, 62, 62
1, 239097, Control_c, 0, 64, 37
1, 239102, Note_on_c, 0, 53, 59
1, 239112, Control_c, 0, 64, 36
1, 239120, Note_off_c, 0, 46, 58
1, 239124, Note_off_c, 0, 34, 52
1, 239127, Control_c, 0, 64, 35
1, 239141, Control_c, 0, 64, 34
1, 239142, Note_off_c, 0, 53, 64
1, 239163, Control_c, 0, 64, 33
1, 239178, Note_off_c, 0, 62, 0
1, 239178, Control_c, 0, 64, 32
1, 239194, Control_c, 0, 64, 32
1, 239198, Note_on_c, 0, 62, 31
1, 239209, Control_c, 0, 64, 31
1, 239238, Control_c, 0, 64, 31
1, 239253, Control_c, 0, 64, 30
1, 239268, Control_c, 0, 64, 29
1, 239298, Control_c, 0, 64, 29
1, 239312, Control_c, 0, 64, 28
1, 239364, Note_on_c, 0, 32, 55
1, 239367, Note_off_c, 0, 62, 62
1, 239368, Note_on_c, 0, 44, 54
1, 239370, Note_on_c, 0, 60, 64
1, 239376, Note_on_c, 0, 50, 52
1, 239387, Control_c, 0, 64, 28
1, 239396, Note_off_c, 0, 44, 55
1, 239397, Note_off_c, 0, 32, 60
1, 239402, Control_c, 0, 64, 27
1, 239408, Note_off_c, 0, 50, 56
1, 239416, Control_c, 0, 64, 27
1, 239431, Control_c, 0, 64, 26
1, 239469, Note_off_c, 0, 60, 64
1, 239491, Note_on_c, 0, 62, 61
1, 239505, Control_c, 0, 64, 26
1, 239620, Note_off_c, 0, 62, 59
1, 239624, Note_on_c, 0, 31, 54
1, 239624, Note_on_c, 0, 43, 57
1, 239630, Note_on_c, 0, 60, 60
1, 239645, Note_on_c, 0, 51, 32
1, 239652, Note_off_c, 0, 43, 55
1, 239653, Control_c, 0, 64, 25
1, 239655, Note_off_c, 0, 31, 57
1, 239682, Note_off_c, 0, 51, 50
1, 239683, Control_c, 0, 64, 25
1, 239698, Control_c, 0, 64, 24
1, 239750, Note_on_c, 0, 58, 64
1, 239756, Note_off_c, 0, 60, 56
1, 239786, Control_c, 0, 64, 24
1, 239846, Control_c, 0, 64, 23
1, 239876, Control_c, 0, 64, 27
1, 239885, Note_on_c, 0, 56, 49
1, 239887, Note_on_c, 0, 29, 48
1, 239890, Control_c, 0, 64, 33
1, 239897, Note_on_c, 0, 41, 22
1, 239908, Note_on_c, 0, 50, 33
1, 239912, Control_c, 0, 64, 37
1, 239920, Note_off_c, 0, 56, 60
1, 239927, Control_c, 0, 64, 38
1, 239932, Note_off_c, 0, 29, 54
1, 239942, Control_c, 0, 64, 39
1, 239943, Note_off_c, 0, 41, 42
1, 239948, Note_off_c, 0, 50, 56
1, 239956, Control_c, 0, 64, 40
1, 239987, Control_c, 0, 64, 41
1, 240061, Control_c, 0, 64, 40
1, 240076, Control_c, 0, 64, 39
1, 240091, Control_c, 0, 64, 39
1, 240121, Control_c, 0, 64, 42
1, 240135, Control_c, 0, 64, 51
1, 240149, Note_on_c, 0, 55, 58
1, 240150, Control_c, 0, 64, 59
1, 240156, Note_on_c, 0, 27, 44
1, 240159, Note_on_c, 0, 39, 35
1, 240165, Control_c, 0, 64, 65
1, 240180, Note_off_c, 0, 55, 64
1, 240180, Control_c, 0, 64, 68
1, 240192, Note_off_c, 0, 39, 52
1, 240194, Control_c, 0, 64, 72
1, 240195, Note_off_c, 0, 27, 57
1, 240203, Note_off_c, 0, 58, 64
1, 240209, Control_c, 0, 64, 75
1, 240224, Control_c, 0, 64, 77
1, 240239, Control_c, 0, 64, 77
1, 240313, Control_c, 0, 64, 78
1, 240342, Control_c, 0, 64, 77
1, 240357, Control_c, 0, 64, 73
1, 240372, Control_c, 0, 64, 66
1, 240386, Control_c, 0, 64, 51
1, 240401, Control_c, 0, 64, 0
1, 240410, Note_on_c, 0, 67, 82
1, 240413, Note_on_c, 0, 24, 57
1, 240416, Note_on_c, 0, 56, 61
1, 240426, Note_on_c, 0, 36, 40
1, 240431, Control_c, 0, 64, 31
1, 240433, Note_on_c, 0, 63, 28
1, 240446, Control_c, 0, 64, 61
1, 240447, Note_off_c, 0, 56, 64
1, 240450, Note_off_c, 0, 24, 57
1, 240457, Note_off_c, 0, 36, 48
1, 240460, Control_c, 0, 64, 70
1, 240469, Note_off_c, 0, 63, 48
1, 240475, Control_c, 0, 64, 81
1, 240490, Control_c, 0, 64, 92
1, 240504, Control_c, 0, 64, 98
1, 240519, Control_c, 0, 64, 99
1, 240564, Control_c, 0, 64, 100
1, 240609, Control_c, 0, 64, 99
1, 240624, Control_c, 0, 64, 92
1, 240639, Control_c, 0, 64, 76
1, 240660, Control_c, 0, 64, 60
1, 240674, Note_on_c, 0, 26, 55
1, 240675, Control_c, 0, 64, 0
1, 240678, Note_on_c, 0, 65, 81
1, 240683, Note_on_c, 0, 56, 65
1, 240689, Note_off_c, 0, 67, 63
1, 240693, Note_on_c, 0, 38, 48
1, 240698, Note_on_c, 0, 58, 51
1, 240704, Control_c, 0, 64, 52
1, 240707, Note_off_c, 0, 26, 60
1, 240713, Note_off_c, 0, 56, 66
1, 240716, Note_off_c, 0, 65, 60
1, 240719, Control_c, 0, 64, 64
1, 240722, Note_off_c, 0, 58, 58
1, 240722, Note_off_c, 0, 38, 51
1, 240734, Control_c, 0, 64, 73
1, 240749, Control_c, 0, 64, 83
1, 240764, Control_c, 0, 64, 90
1, 240780, Control_c, 0, 64, 94
1, 240795, Control_c, 0, 64, 96
1, 240809, Control_c, 0, 64, 98
1, 240824, Control_c, 0, 64, 100
1, 240839, Control_c, 0, 64, 101
1, 240854, Control_c, 0, 64, 102
1, 240883, Control_c, 0, 64, 103
1, 240898, Control_c, 0, 64, 102
1, 240928, Control_c, 0, 64, 99
1, 240943, Control_c, 0, 64, 88
1, 240954, Note_on_c, 0, 48, 60
1, 240954, Note_on_c, 0, 56, 67
1, 240955, Note_on_c, 0, 36, 56
1, 240957, Note_on_c, 0, 63, 73
1, 240958, Note_on_c, 0, 51, 64
1, 240958, Control_c, 0, 64, 72
1, 240972, Control_c, 0, 64, 38
1, 240977, Note_off_c, 0, 48, 58
1, 240979, Note_off_c, 0, 56, 68
1, 240982, Note_off_c, 0, 36, 54
1, 240987, Control_c, 0, 64, 0
1, 240990, Note_off_c, 0, 51, 64
1, 241208, Note_off_c, 0, 63, 65
1, 241213, Note_on_c, 0, 34, 54
1, 241217, Note_on_c, 0, 46, 50
1, 241220, Note_on_c, 0, 62, 73
1, 241226, Note_on_c, 0, 53, 63
1, 241243, Note_off_c, 0, 34, 59
1, 241244, Note_off_c, 0, 46, 57
1, 241263, Note_off_c, 0, 53, 64
1, 241484, Note_on_c, 0, 32, 57
1, 241486, Note_on_c, 0, 53, 63
1, 241487, Note_on_c, 0, 60, 64
1, 241487, Note_off_c, 0, 62, 59
1, 241490, Note_on_c, 0, 44, 45
1, 241490, Note_on_c, 0, 63, 66
1, 241513, Note_off_c, 0, 32, 55
1, 241521, Note_off_c, 0, 44, 52
1, 241526, Note_off_c, 0, 53, 64
1, 241581, Note_off_c, 0, 60, 57
1, 241599, Note_on_c, 0, 65, 70
1, 241609, Note_on_c, 0, 62, 60
1, 241646, Note_off_c, 0, 63, 53
1, 241733, Note_on_c, 0, 32, 57
1, 241737, Note_off_c, 0, 65, 56
1, 241741, Note_on_c, 0, 53, 49
1, 241742, Note_on_c, 0, 58, 76
1, 241746, Note_on_c, 0, 44, 47
1, 241751, Note_off_c, 0, 62, 63
1, 241768, Note_off_c, 0, 32, 62
1, 241774, Note_off_c, 0, 44, 54
1, 241774, Note_off_c, 0, 53, 55
1, 241781, Control_c, 0, 64, 34
1, 241796, Control_c, 0, 64, 46
1, 241811, Control_c, 0, 64, 54
1, 241825, Control_c, 0, 64, 58
1, 241840, Control_c, 0, 64, 60
1, 241855, Control_c, 0, 64, 62
1, 241870, Control_c, 0, 64, 63
1, 241885, Control_c, 0, 64, 65
1, 241900, Control_c, 0, 64, 66
1, 241914, Control_c, 0, 64, 67
1, 241944, Control_c, 0, 64, 65
1, 241959, Control_c, 0, 64, 61
1, 241974, Control_c, 0, 64, 50
1, 241978, Note_on_c, 0, 31, 49
1, 241986, Note_on_c, 0, 43, 46
1, 241989, Control_c, 0, 64, 35
1, 241991, Note_on_c, 0, 60, 76
1, 242004, Control_c, 0, 64, 28
1, 242005, Note_on_c, 0, 51, 50
1, 242008, Note_off_c, 0, 58, 62
1, 242013, Note_off_c, 0, 31, 49
1, 242018, Note_off_c, 0, 43, 51
1, 242019, Control_c, 0, 64, 39
1, 242033, Control_c, 0, 64, 55
1, 242048, Control_c, 0, 64, 62
1, 242063, Control_c, 0, 64, 65
1, 242078, Control_c, 0, 64, 69
1, 242093, Control_c, 0, 64, 72
1, 242103, Note_on_c, 0, 58, 83
1, 242107, Control_c, 0, 64, 74
1, 242122, Control_c, 0, 64, 75
1, 242130, Note_off_c, 0, 51, 56
1, 242157, Note_off_c, 0, 60, 61
1, 242159, Control_c, 0, 64, 73
1, 242174, Control_c, 0, 64, 67
1, 242189, Control_c, 0, 64, 56
1, 242190, Note_off_c, 0, 58, 63
1, 242204, Control_c, 0, 64, 0
1, 242237, Note_on_c, 0, 31, 56
1, 242237, Note_on_c, 0, 63, 80
1, 242246, Note_on_c, 0, 51, 61
1, 242248, Control_c, 0, 64, 40
1, 242250, Note_on_c, 0, 43, 20
1, 242257, Note_on_c, 0, 58, 52
1, 242263, Control_c, 0, 64, 60
1, 242270, Note_off_c, 0, 51, 62
1, 242271, Note_off_c, 0, 31, 62
1, 242278, Control_c, 0, 64, 65
1, 242292, Control_c, 0, 64, 68
1, 242293, Note_off_c, 0, 43, 50
1, 242307, Note_off_c, 0, 58, 51
1, 242307, Control_c, 0, 64, 71
1, 242322, Control_c, 0, 64, 73
1, 242337, Control_c, 0, 64, 75
1, 242352, Control_c, 0, 64, 76
1, 242366, Control_c, 0, 64, 77
1, 242382, Control_c, 0, 64, 78
1, 242397, Control_c, 0, 64, 78
1, 242427, Control_c, 0, 64, 77
1, 242442, Control_c, 0, 64, 73
1, 242456, Control_c, 0, 64, 61
1, 242471, Control_c, 0, 64, 0
1, 242472, Note_off_c, 0, 63, 54
1, 242497, Note_on_c, 0, 26, 58
1, 242499, Note_on_c, 0, 58, 67
1, 242499, Note_on_c, 0, 65, 78
1, 242504, Note_on_c, 0, 53, 66
1, 242510, Note_on_c, 0, 38, 39
1, 242516, Control_c, 0, 64, 30
1, 242529, Note_off_c, 0, 26, 57
1, 242530, Control_c, 0, 64, 59
1, 242532, Note_off_c, 0, 58, 63
1, 242535, Note_off_c, 0, 53, 64
1, 242544, Note_off_c, 0, 38, 49
1, 242545, Control_c, 0, 64, 68
1, 242560, Control_c, 0, 64, 75
1, 242574, Control_c, 0, 64, 81
1, 242589, Control_c, 0, 64, 85
1, 242604, Control_c, 0, 64, 86
1, 242619, Control_c, 0, 64, 86
1, 242634, Control_c, 0, 64, 87
1, 242648, Control_c, 0, 64, 87
1, 242693, Control_c, 0, 64, 83
1, 242708, Control_c, 0, 64, 72
1, 242722, Control_c, 0, 64, 53
1, 242737, Control_c, 0, 64, 0
1, 242761, Note_on_c, 0, 67, 80
1, 242764, Note_on_c, 0, 55, 72
1, 242765, Note_on_c, 0, 27, 51
1, 242766, Note_on_c, 0, 58, 67
1, 242769, Note_on_c, 0, 39, 55
1, 242780, Note_off_c, 0, 65, 62
1, 242782, Control_c, 0, 64, 49
1, 242793, Note_off_c, 0, 58, 66
1, 242797, Note_off_c, 0, 39, 55
1, 242797, Control_c, 0, 64, 65
1, 242797, Note_off_c, 0, 27, 57
1, 242800, Note_off_c, 0, 55, 62
1, 242812, Control_c, 0, 64, 75
1, 242818, Note_off_c, 0, 67, 59
1, 242827, Control_c, 0, 64, 89
1, 242842, Control_c, 0, 64, 99
1, 242856, Control_c, 0, 64, 102
1, 242907, Control_c, 0, 64, 102
1, 242922, Control_c, 0, 64, 103
1, 242937, Control_c, 0, 64, 103
1, 242997, Control_c, 0, 64, 101
1, 243011, Control_c, 0, 64, 91
1, 243026, Control_c, 0, 64, 74
1, 243041, Control_c, 0, 64, 57
1, 243053, Note_on_c, 0, 34, 60
1, 243055, Note_on_c, 0, 62, 76
1, 243056, Control_c, 0, 64, 0
1, 243056, Note_on_c, 0, 67, 79
1, 243058, Note_on_c, 0, 55, 72
1, 243060, Note_on_c, 0, 46, 61
1, 243071, Control_c, 0, 64, 24
1, 243080, Note_off_c, 0, 55, 69
1, 243086, Control_c, 0, 64, 54
1, 243092, Note_off_c, 0, 34, 63
1, 243092, Note_off_c, 0, 46, 66
1, 243101, Control_c, 0, 64, 63
1, 243115, Control_c, 0, 64, 67
1, 243130, Control_c, 0, 64, 69
1, 243220, Control_c, 0, 64, 68
1, 243235, Control_c, 0, 64, 65
1, 243250, Control_c, 0, 64, 57
1, 243265, Control_c, 0, 64, 0
1, 243322, Note_on_c, 0, 36, 65
1, 243322, Note_on_c, 0, 55, 69
1, 243325, Note_on_c, 0, 48, 60
1, 243327, Note_on_c, 0, 63, 69
1, 243342, Note_off_c, 0, 62, 63
1, 243348, Note_off_c, 0, 55, 65
1, 243352, Note_off_c, 0, 48, 63
1, 243353, Control_c, 0, 64, 35
1, 243360, Note_off_c, 0, 36, 59
1, 243368, Control_c, 0, 64, 56
1, 243383, Control_c, 0, 64, 63
1, 243397, Control_c, 0, 64, 64
1, 243427, Control_c, 0, 64, 63
1, 243430, Note_off_c, 0, 67, 58
1, 243442, Control_c, 0, 64, 62
1, 243457, Control_c, 0, 64, 60
1, 243471, Control_c, 0, 64, 55
1, 243486, Control_c, 0, 64, 36
1, 243501, Control_c, 0, 64, 0
1, 243570, Note_off_c, 0, 63, 61
1, 243582, Note_on_c, 0, 31, 65
1, 243583, Note_on_c, 0, 43, 63
1, 243586, Note_on_c, 0, 62, 70
1, 243588, Note_on_c, 0, 58, 83
1, 243589, Note_on_c, 0, 67, 82
1, 243614, Note_off_c, 0, 58, 65
1, 243616, Note_off_c, 0, 43, 63
1, 243617, Note_off_c, 0, 31, 63
1, 243617, Note_off_c, 0, 62, 66
1, 243657, Control_c, 0, 64, 57
1, 243672, Control_c, 0, 64, 61
1, 243686, Control_c, 0, 64, 62
1, 243701, Control_c, 0, 64, 63
1, 243716, Control_c, 0, 64, 64
1, 243730, Control_c, 0, 64, 65
1, 243760, Control_c, 0, 64, 64
1, 243775, Control_c, 0, 64, 63
1, 243790, Control_c, 0, 64, 60
1, 243804, Control_c, 0, 64, 57
1, 243819, Control_c, 0, 64, 58
1, 243834, Control_c, 0, 64, 62
1, 243849, Control_c, 0, 64, 66
1, 243851, Note_on_c, 0, 44, 70
1, 243853, Note_on_c, 0, 32, 65
1, 243857, Note_on_c, 0, 56, 78
1, 243860, Note_on_c, 0, 60, 70
1, 243864, Control_c, 0, 64, 70
1, 243879, Control_c, 0, 64, 74
1, 243882, Note_off_c, 0, 56, 68
1, 243883, Note_off_c, 0, 32, 63
1, 243886, Note_off_c, 0, 44, 64
1, 243888, Note_off_c, 0, 60, 67
1, 243894, Control_c, 0, 64, 77
1, 243909, Control_c, 0, 64, 77
1, 244026, Control_c, 0, 64, 75
1, 244041, Control_c, 0, 64, 68
1, 244056, Control_c, 0, 64, 54
1, 244071, Control_c, 0, 64, 0
1, 244108, Note_on_c, 0, 56, 75
1, 244111, Note_on_c, 0, 44, 75
1, 244115, Note_on_c, 0, 65, 83
1, 244115, Note_off_c, 0, 67, 56
1, 244116, Note_on_c, 0, 60, 77
1, 244130, Control_c, 0, 64, 40
1, 244131, Note_off_c, 0, 56, 67
1, 244144, Note_off_c, 0, 44, 63
1, 244144, Control_c, 0, 64, 59
1, 244159, Control_c, 0, 64, 64
1, 244174, Control_c, 0, 64, 67
1, 244189, Control_c, 0, 64, 70
1, 244204, Control_c, 0, 64, 73
1, 244219, Control_c, 0, 64, 75
1, 244226, Note_off_c, 0, 60, 0
1, 244234, Control_c, 0, 64, 77
1, 244249, Control_c, 0, 64, 77
1, 244263, Poly_aftertouch_c, 0, 60, 127
1, 244293, Control_c, 0, 64, 76
1, 244308, Control_c, 0, 64, 72
1, 244323, Control_c, 0, 64, 64
1, 244338, Control_c, 0, 64, 19
1, 244343, Poly_aftertouch_c, 0, 60, 0
1, 244352, Control_c, 0, 64, 0
1, 244368, Note_on_c, 0, 46, 70
1, 244371, Note_on_c, 0, 55, 82
1, 244371, Note_on_c, 0, 67, 84
1, 244373, Note_on_c, 0, 34, 63
1, 244375, Note_on_c, 0, 62, 71
1, 244404, Note_off_c, 0, 46, 66
1, 244404, Control_c, 0, 64, 48
1, 244413, Note_off_c, 0, 34, 63
1, 244414, Note_off_c, 0, 62, 66
1, 244418, Note_off_c, 0, 65, 53
1, 244419, Control_c, 0, 64, 62
1, 244424, Note_off_c, 0, 67, 63
1, 244425, Note_off_c, 0, 55, 61
1, 244433, Control_c, 0, 64, 67
1, 244448, Control_c, 0, 64, 73
1, 244463, Control_c, 0, 64, 77
1, 244478, Control_c, 0, 64, 79
1, 244493, Control_c, 0, 64, 81
1, 244508, Control_c, 0, 64, 82
1, 244523, Control_c, 0, 64, 82
1, 244582, Control_c, 0, 64, 82
1, 244597, Control_c, 0, 64, 78
1, 244612, Control_c, 0, 64, 70
1, 244626, Control_c, 0, 64, 54
1, 244639, Note_on_c, 0, 48, 79
1, 244641, Control_c, 0, 64, 0
1, 244643, Note_on_c, 0, 56, 73
1, 244645, Note_on_c, 0, 36, 70
1, 244646, Note_on_c, 0, 60, 74
1, 244649, Note_on_c, 0, 51, 76
1, 244672, Note_off_c, 0, 48, 65
1, 244684, Note_off_c, 0, 36, 63
1, 244758, Note_off_c, 0, 51, 51
1, 244907, Note_on_c, 0, 43, 75
1, 244909, Note_on_c, 0, 31, 75
1, 244909, Note_on_c, 0, 63, 75
1, 244913, Note_on_c, 0, 51, 74
1, 244919, Note_on_c, 0, 58, 71
1, 244947, Note_off_c, 0, 31, 64
1, 244949, Note_off_c, 0, 43, 64
1, 244958, Note_off_c, 0, 56, 57
1, 244973, Note_off_c, 0, 60, 57
1, 245006, Note_off_c, 0, 51, 58
1, 245040, Note_off_c, 0, 63, 59
1, 245053, Note_off_c, 0, 58, 52
1, 245193, Note_on_c, 0, 60, 77
1, 245195, Note_on_c, 0, 44, 72
1, 245199, Note_on_c, 0, 51, 77
1, 245199, Note_on_c, 0, 32, 67
1, 245202, Note_on_c, 0, 63, 75
1, 245228, Note_off_c, 0, 44, 61
1, 245238, Note_off_c, 0, 32, 63
1, 245452, Note_on_c, 0, 29, 69
1, 245454, Note_on_c, 0, 41, 62
1, 245456, Note_on_c, 0, 56, 72
1, 245465, Control_c, 0, 64, 23
1, 245480, Control_c, 0, 64, 57
1, 245483, Note_off_c, 0, 51, 62
1, 245489, Note_off_c, 0, 29, 64
1, 245489, Note_off_c, 0, 60, 63
1, 245490, Note_off_c, 0, 41, 63
1, 245494, Note_off_c, 0, 56, 63
1, 245494, Control_c, 0, 64, 67
1, 245509, Control_c, 0, 64, 75
1, 245524, Control_c, 0, 64, 84
1, 245539, Control_c, 0, 64, 90
1, 245554, Control_c, 0, 64, 93
1, 245569, Control_c, 0, 64, 93
1, 245584, Control_c, 0, 64, 94
1, 245673, Control_c, 0, 64, 91
1, 245688, Control_c, 0, 64, 82
1, 245703, Control_c, 0, 64, 69
1, 245717, Control_c, 0, 64, 46
1, 245718, Note_off_c, 0, 63, 56
1, 245730, Note_on_c, 0, 46, 66
1, 245730, Note_on_c, 0, 58, 70
1, 245730, Note_on_c, 0, 62, 81
1, 245732, Control_c, 0, 64, 0
1, 245733, Note_on_c, 0, 34, 60
1, 245739, Note_on_c, 0, 53, 69
1, 245762, Control_c, 0, 64, 40
1, 245765, Note_off_c, 0, 34, 63
1, 245772, Note_off_c, 0, 53, 67
1, 245773, Note_off_c, 0, 46, 66
1, 245775, Note_off_c, 0, 58, 60
1, 245777, Control_c, 0, 64, 62
1, 245792, Control_c, 0, 64, 69
1, 245806, Control_c, 0, 64, 79
1, 245821, Control_c, 0, 64, 91
1, 245836, Control_c, 0, 64, 99
1, 245851, Control_c, 0, 64, 101
1, 245903, Control_c, 0, 64, 101
1, 245918, Control_c, 0, 64, 103
1, 245932, Control_c, 0, 64, 103
1, 245962, Control_c, 0, 64, 102
1, 245977, Control_c, 0, 64, 87
1, 245992, Control_c, 0, 64, 70
1, 246006, Control_c, 0, 64, 33
1, 246021, Control_c, 0, 64, 0
1, 246029, Note_on_c, 0, 58, 86
1, 246030, Note_on_c, 0, 55, 74
1, 246033, Note_on_c, 0, 39, 67
1, 246034, Note_on_c, 0, 51, 65
1, 246051, Control_c, 0, 64, 50
1, 246056, Note_off_c, 0, 55, 65
1, 246066, Control_c, 0, 64, 69
1, 246069, Note_off_c, 0, 51, 65
1, 246070, Note_off_c, 0, 62, 62
1, 246072, Note_off_c, 0, 39, 63
1, 246073, Note_off_c, 0, 58, 66
1, 246080, Control_c, 0, 64, 84
1, 246095, Control_c, 0, 64, 112
1, 246110, Control_c, 0, 64, 127
1, 246316, Control_c, 0, 64, 100
1, 246331, Control_c, 0, 64, 76
1, 246345, Note_on_c, 0, 41, 61
1, 246345, Note_on_c, 0, 70, 82
1, 246346, Control_c, 0, 64, 51
1, 246348, Note_on_c, 0, 68, 79
1, 246349, Note_on_c, 0, 53, 67
1, 246353, Note_on_c, 0, 62, 76
1, 246361, Control_c, 0, 64, 39
1, 246377, Control_c, 0, 64, 60
1, 246380, Note_off_c, 0, 62, 68
1, 246386, Note_off_c, 0, 41, 62
1, 246389, Note_off_c, 0, 53, 66
1, 246392, Control_c, 0, 64, 68
1, 246407, Control_c, 0, 64, 76
1, 246421, Control_c, 0, 64, 88
1, 246436, Control_c, 0, 64, 103
1, 246451, Control_c, 0, 64, 114
1, 246466, Control_c, 0, 64, 127
1, 246599, Control_c, 0, 64, 101
1, 246613, Control_c, 0, 64, 77
1, 246624, Note_on_c, 0, 55, 70
1, 246628, Control_c, 0, 64, 53
1, 246629, Note_on_c, 0, 43, 67
1, 246630, Note_on_c, 0, 63, 74
1, 246630, Note_on_c, 0, 67, 73
1, 246651, Control_c, 0, 64, 49
1, 246661, Note_off_c, 0, 55, 66
1, 246663, Note_off_c, 0, 63, 68
1, 246666, Control_c, 0, 64, 65
1, 246670, Note_off_c, 0, 67, 65
1, 246681, Control_c, 0, 64, 75
1, 246681, Note_off_c, 0, 68, 60
1, 246687, Note_off_c, 0, 43, 63
1, 246690, Note_off_c, 0, 70, 64
1, 246696, Control_c, 0, 64, 91
1, 246710, Control_c, 0, 64, 127
1, 246888, Control_c, 0, 64, 92
1, 246902, Control_c, 0, 64, 71
1, 246906, Note_on_c, 0, 68, 84
1, 246907, Note_on_c, 0, 48, 68
1, 246907, Note_on_c, 0, 79, 86
1, 246907, Note_on_c, 0, 36, 66
1, 246907, Note_on_c, 0, 75, 72
1, 246917, Control_c, 0, 64, 41
1, 246932, Control_c, 0, 64, 44
1, 246946, Control_c, 0, 64, 62
1, 246947, Note_off_c, 0, 36, 61
1, 246949, Note_off_c, 0, 48, 63
1, 246949, Note_off_c, 0, 68, 64
1, 246961, Control_c, 0, 64, 70
1, 246967, Note_off_c, 0, 75, 60
1, 246976, Control_c, 0, 64, 80
1, 246991, Control_c, 0, 64, 95
1, 247006, Control_c, 0, 64, 116
1, 247021, Control_c, 0, 64, 127
1, 247170, Control_c, 0, 64, 103
1, 247185, Control_c, 0, 64, 78
1, 247200, Note_on_c, 0, 38, 70
1, 247200, Note_on_c, 0, 77, 81
1, 247200, Control_c, 0, 64, 53
1, 247203, Note_on_c, 0, 50, 80
1, 247203, Note_on_c, 0, 70, 79
1, 247204, Note_on_c, 0, 68, 82
1, 247215, Control_c, 0, 64, 43
1, 247218, Note_off_c, 0, 79, 60
1, 247229, Control_c, 0, 64, 63
1, 247232, Note_off_c, 0, 38, 64
1, 247238, Note_off_c, 0, 50, 68
1, 247244, Note_off_c, 0, 77, 65
1, 247244, Control_c, 0, 64, 72
1, 247255, Note_off_c, 0, 68, 62
1, 247257, Note_off_c, 0, 70, 64
1, 247259, Control_c, 0, 64, 86
1, 247274, Control_c, 0, 64, 107
1, 247289, Control_c, 0, 64, 127
1, 247444, Control_c, 0, 64, 120
1, 247459, Control_c, 0, 64, 86
1, 247466, Note_on_c, 0, 60, 74
1, 247468, Note_on_c, 0, 48, 74
1, 247468, Note_on_c, 0, 68, 68
1, 247471, Note_on_c, 0, 63, 81
1, 247473, Note_on_c, 0, 75, 76
1, 247474, Control_c, 0, 64, 64
1, 247489, Control_c, 0, 64, 0
1, 247496, Note_off_c, 0, 60, 66
1, 247503, Control_c, 0, 64, 21
1, 247504, Note_off_c, 0, 63, 63
1, 247512, Note_off_c, 0, 48, 64
1, 247518, Control_c, 0, 64, 55
1, 247524, Note_off_c, 0, 68, 65
1, 247533, Control_c, 0, 64, 65
1, 247548, Control_c, 0, 64, 72
1, 247563, Control_c, 0, 64, 81
1, 247577, Control_c, 0, 64, 90
1, 247592, Control_c, 0, 64, 93
1, 247607, Control_c, 0, 64, 94
1, 247622, Control_c, 0, 64, 96
1, 247666, Control_c, 0, 64, 95
1, 247681, Control_c, 0, 64, 86
1, 247695, Control_c, 0, 64, 73
1, 247710, Control_c, 0, 64, 56
1, 247725, Control_c, 0, 64, 0
1, 247736, Note_on_c, 0, 58, 72
1, 247736, Note_on_c, 0, 46, 69
1, 247742, Note_on_c, 0, 65, 85
1, 247749, Note_on_c, 0, 70, 72
1, 247755, Control_c, 0, 64, 37
1, 247765, Note_off_c, 0, 58, 67
1, 247769, Note_off_c, 0, 46, 65
1, 247769, Note_on_c, 0, 74, 71
1, 247769, Control_c, 0, 64, 57
1, 247776, Note_off_c, 0, 75, 62
1, 247784, Control_c, 0, 64, 61
1, 247789, Note_off_c, 0, 70, 52
1, 247799, Control_c, 0, 64, 63
1, 247814, Control_c, 0, 64, 67
1, 247816, Note_off_c, 0, 65, 55
1, 247829, Control_c, 0, 64, 73
1, 247843, Control_c, 0, 64, 82
1, 247858, Control_c, 0, 64, 90
1, 247873, Control_c, 0, 64, 91
1, 247948, Control_c, 0, 64, 90
1, 247963, Control_c, 0, 64, 86
1, 247978, Control_c, 0, 64, 79
1, 247993, Control_c, 0, 64, 70
1, 248002, Note_on_c, 0, 44, 69
1, 248004, Note_on_c, 0, 56, 70
1, 248006, Note_on_c, 0, 72, 85
1, 248007, Control_c, 0, 64, 59
1, 248010, Note_off_c, 0, 74, 62
1, 248012, Note_on_c, 0, 62, 77
1, 248022, Control_c, 0, 64, 31
1, 248036, Note_off_c, 0, 56, 65
1, 248037, Control_c, 0, 64, 0
1, 248040, Note_off_c, 0, 62, 66
1, 248041, Note_off_c, 0, 44, 62
1, 248091, Note_off_c, 0, 72, 62
1, 248124, Note_on_c, 0, 74, 81
1, 248207, Control_c, 0, 64, 19
1, 248222, Control_c, 0, 64, 54
1, 248237, Control_c, 0, 64, 63
1, 248252, Control_c, 0, 64, 65
1, 248266, Note_on_c, 0, 43, 69
1, 248266, Note_on_c, 0, 55, 64
1, 248266, Note_on_c, 0, 72, 83
1, 248267, Control_c, 0, 64, 66
1, 248269, Note_on_c, 0, 63, 78
1, 248282, Control_c, 0, 64, 68
1, 248294, Note_off_c, 0, 74, 59
1, 248297, Note_off_c, 0, 55, 64
1, 248297, Control_c, 0, 64, 69
1, 248304, Note_off_c, 0, 43, 62
1, 248311, Control_c, 0, 64, 70
1, 248320, Note_off_c, 0, 63, 59
1, 248326, Control_c, 0, 64, 69
1, 248341, Control_c, 0, 64, 68
1, 248371, Control_c, 0, 64, 68
1, 248380, Note_on_c, 0, 70, 85
1, 248386, Control_c, 0, 64, 67
1, 248400, Control_c, 0, 64, 65
1, 248415, Control_c, 0, 64, 62
1, 248430, Control_c, 0, 64, 48
1, 248434, Note_off_c, 0, 72, 50
1, 248445, Control_c, 0, 64, 0
1, 248509, Note_on_c, 0, 68, 76
1, 248514, Note_on_c, 0, 41, 58
1, 248520, Note_on_c, 0, 53, 58
1, 248520, Note_on_c, 0, 62, 67
1, 248534, Control_c, 0, 64, 31
1, 248545, Note_off_c, 0, 53, 61
1, 248548, Note_off_c, 0, 62, 66
1, 248549, Control_c, 0, 64, 60
1, 248550, Note_off_c, 0, 41, 62
1, 248563, Note_off_c, 0, 68, 65
1, 248564, Control_c, 0, 64, 68
1, 248579, Control_c, 0, 64, 74
1, 248593, Control_c, 0, 64, 81
1, 248608, Control_c, 0, 64, 85
1, 248623, Control_c, 0, 64, 86
1, 248638, Control_c, 0, 64, 87
1, 248697, Control_c, 0, 64, 84
1, 248712, Control_c, 0, 64, 77
1, 248726, Control_c, 0, 64, 63
1, 248741, Control_c, 0, 64, 24
1, 248756, Control_c, 0, 64, 0
1, 248772, Control_c, 0, 64, 21
1, 248775, Note_on_c, 0, 51, 58
1, 248775, Note_on_c, 0, 67, 82
1, 248776, Note_on_c, 0, 39, 64
1, 248778, Note_on_c, 0, 63, 77
1, 248787, Control_c, 0, 64, 56
1, 248802, Note_off_c, 0, 63, 70
1, 248802, Control_c, 0, 64, 68
1, 248805, Note_off_c, 0, 51, 63
1, 248806, Note_off_c, 0, 67, 63
1, 248811, Note_off_c, 0, 39, 62
1, 248816, Control_c, 0, 64, 82
1, 248831, Control_c, 0, 64, 95
1, 248836, Note_off_c, 0, 70, 65
1, 248846, Control_c, 0, 64, 103
1, 248861, Control_c, 0, 64, 104
1, 248942, Control_c, 0, 64, 104
1, 248957, Control_c, 0, 64, 105
1, 248972, Control_c, 0, 64, 105
1, 249016, Control_c, 0, 64, 103
1, 249031, Control_c, 0, 64, 93
1, 249046, Control_c, 0, 64, 80
1, 249061, Control_c, 0, 64, 67
1, 249069, Note_on_c, 0, 79, 82
1, 249074, Note_on_c, 0, 36, 64
1, 249074, Note_on_c, 0, 75, 68
1, 249075, Note_on_c, 0, 68, 69
1, 249076, Control_c, 0, 64, 55
1, 249078, Note_on_c, 0, 48, 64
1, 249090, Control_c, 0, 64, 57
1, 249104, Note_off_c, 0, 68, 66
1, 249105, Control_c, 0, 64, 65
1, 249107, Note_off_c, 0, 36, 60
1, 249110, Note_off_c, 0, 48, 63
1, 249120, Note_off_c, 0, 75, 60
1, 249120, Control_c, 0, 64, 74
1, 249135, Control_c, 0, 64, 86
1, 249149, Control_c, 0, 64, 103
1, 249164, Control_c, 0, 64, 117
1, 249179, Control_c, 0, 64, 127
1, 249313, Control_c, 0, 64, 107
1, 249328, Control_c, 0, 64, 86
1, 249342, Control_c, 0, 64, 69
1, 249345, Note_on_c, 0, 77, 82
1, 249346, Note_on_c, 0, 68, 83
1, 249346, Note_on_c, 0, 38, 70
1, 249350, Note_on_c, 0, 70, 76
1, 249354, Note_on_c, 0, 50, 74
1, 249357, Control_c, 0, 64, 54
1, 249364, Note_off_c, 0, 79, 61
1, 249372, Control_c, 0, 64, 58
1, 249382, Note_off_c, 0, 38, 64
1, 249386, Note_off_c, 0, 50, 69
1, 249387, Control_c, 0, 64, 67
1, 249392, Note_off_c, 0, 77, 63
1, 249393, Note_off_c, 0, 70, 59
1, 249394, Note_off_c, 0, 68, 63
1, 249402, Control_c, 0, 64, 75
1, 249416, Control_c, 0, 64, 87
1, 249431, Control_c, 0, 64, 101
1, 249446, Control_c, 0, 64, 110
1, 249461, Control_c, 0, 64, 111
1, 249475, Control_c, 0, 64, 112
1, 249490, Control_c, 0, 64, 112
1, 249505, Control_c, 0, 64, 114
1, 249520, Control_c, 0, 64, 115
1, 249565, Control_c, 0, 64, 112
1, 249580, Control_c, 0, 64, 96
1, 249595, Control_c, 0, 64, 80
1, 249610, Control_c, 0, 64, 64
1, 249616, Note_on_c, 0, 48, 70
1, 249616, Note_on_c, 0, 60, 73
1, 249619, Note_on_c, 0, 68, 78
1, 249620, Note_on_c, 0, 75, 82
1, 249621, Note_on_c, 0, 63, 79
1, 249625, Control_c, 0, 64, 40
1, 249647, Control_c, 0, 64, 46
1, 249647, Note_off_c, 0, 60, 68
1, 249660, Note_off_c, 0, 48, 64
1, 249662, Control_c, 0, 64, 60
1, 249670, Note_off_c, 0, 68, 61
1, 249677, Control_c, 0, 64, 67
1, 249680, Note_off_c, 0, 63, 49
1, 249692, Control_c, 0, 64, 75
1, 249706, Control_c, 0, 64, 84
1, 249721, Control_c, 0, 64, 90
1, 249736, Control_c, 0, 64, 91
1, 249766, Control_c, 0, 64, 91
1, 249780, Control_c, 0, 64, 92
1, 249795, Control_c, 0, 64, 94
1, 249810, Control_c, 0, 64, 95
1, 249840, Note_off_c, 0, 75, 61
1, 249840, Control_c, 0, 64, 94
1, 249854, Control_c, 0, 64, 87
1, 249869, Control_c, 0, 64, 72
1, 249884, Control_c, 0, 64, 57
1, 249888, Note_on_c, 0, 46, 71
1, 249888, Note_on_c, 0, 58, 73
1, 249891, Note_on_c, 0, 74, 89
1, 249896, Note_on_c, 0, 65, 86
1, 249898, Control_c, 0, 64, 31
1, 249910, Note_on_c, 0, 70, 58
1, 249913, Control_c, 0, 64, 49
1, 249915, Note_off_c, 0, 58, 68
1, 249919, Note_off_c, 0, 46, 65
1, 249928, Control_c, 0, 64, 61
1, 249930, Note_off_c, 0, 70, 61
1, 249943, Control_c, 0, 64, 68
1, 249955, Note_off_c, 0, 65, 55
1, 249958, Control_c, 0, 64, 80
1, 249972, Control_c, 0, 64, 92
1, 249987, Control_c, 0, 64, 99
1, 250002, Control_c, 0, 64, 100
1, 250076, Control_c, 0, 64, 98
1, 250091, Control_c, 0, 64, 91
1, 250106, Control_c, 0, 64, 76
1, 250109, Note_off_c, 0, 74, 62
1, 250121, Control_c, 0, 64, 57
1, 250136, Control_c, 0, 64, 0
1, 250145, Note_on_c, 0, 56, 76
1, 250147, Note_on_c, 0, 65, 87
1, 250147, Note_on_c, 0, 72, 82
1, 250148, Note_on_c, 0, 75, 80
1, 250150, Note_on_c, 0, 44, 67
1, 250169, Note_off_c, 0, 56, 67
1, 250173, Note_off_c, 0, 44, 58
1, 250206, Note_off_c, 0, 65, 57
1, 250230, Note_off_c, 0, 72, 60
1, 250260, Note_on_c, 0, 77, 83
1, 250265, Note_on_c, 0, 74, 74
1, 250346, Note_off_c, 0, 75, 38
1, 250405, Note_on_c, 0, 44, 70
1, 250406, Note_on_c, 0, 70, 89
1, 250407, Note_on_c, 0, 56, 73
1, 250414, Note_on_c, 0, 65, 77
1, 250416, Note_off_c, 0, 77, 59
1, 250422, Note_off_c, 0, 74, 65
1, 250437, Note_off_c, 0, 56, 64
1, 250440, Control_c, 0, 64, 56
1, 250443, Note_off_c, 0, 44, 62
1, 250455, Control_c, 0, 64, 65
1, 250469, Note_off_c, 0, 65, 61
1, 250470, Control_c, 0, 64, 72
1, 250485, Control_c, 0, 64, 81
1, 250499, Control_c, 0, 64, 88
1, 250514, Control_c, 0, 64, 93
1, 250529, Control_c, 0, 64, 96
1, 250544, Control_c, 0, 64, 97
1, 250574, Control_c, 0, 64, 98
1, 250603, Control_c, 0, 64, 97
1, 250618, Control_c, 0, 64, 97
1, 250633, Control_c, 0, 64, 89
1, 250648, Control_c, 0, 64, 78
1, 250650, Note_on_c, 0, 55, 66
1, 250651, Note_on_c, 0, 43, 68
1, 250656, Note_on_c, 0, 72, 85
1, 250660, Note_on_c, 0, 63, 81
1, 250663, Control_c, 0, 64, 67
1, 250671, Note_off_c, 0, 70, 61
1, 250677, Control_c, 0, 64, 58
1, 250681, Note_off_c, 0, 55, 63
1, 250692, Control_c, 0, 64, 59
1, 250695, Note_off_c, 0, 43, 58
1, 250707, Control_c, 0, 64, 65
1, 250720, Control_c, 0, 64, 72
1, 250735, Control_c, 0, 64, 83
1, 250750, Control_c, 0, 64, 94
1, 250759, Note_on_c, 0, 70, 84
1, 250765, Control_c, 0, 64, 102
1, 250780, Control_c, 0, 64, 104
1, 250786, Note_off_c, 0, 63, 61
1, 250799, Note_off_c, 0, 72, 59
1, 250824, Control_c, 0, 64, 104
1, 250837, Note_off_c, 0, 70, 63
1, 250839, Control_c, 0, 64, 97
1, 250854, Control_c, 0, 64, 86
1, 250869, Control_c, 0, 64, 74
1, 250884, Control_c, 0, 64, 63
1, 250890, Note_on_c, 0, 43, 69
1, 250895, Note_on_c, 0, 75, 85
1, 250896, Note_on_c, 0, 55, 49
1, 250897, Note_on_c, 0, 63, 79
1, 250899, Control_c, 0, 64, 55
1, 250902, Note_on_c, 0, 70, 76
1, 250913, Control_c, 0, 64, 63
1, 250918, Note_off_c, 0, 55, 59
1, 250919, Note_off_c, 0, 43, 65
1, 250925, Note_off_c, 0, 63, 67
1, 250928, Control_c, 0, 64, 69
1, 250943, Control_c, 0, 64, 77
1, 250958, Control_c, 0, 64, 86
1, 250973, Control_c, 0, 64, 95
1, 250985, Note_off_c, 0, 70, 55
1, 250987, Control_c, 0, 64, 98
1, 251061, Control_c, 0, 64, 98
1, 251120, Control_c, 0, 64, 95
1, 251122, Note_off_c, 0, 75, 57
1, 251143, Control_c, 0, 64, 84
1, 251158, Control_c, 0, 64, 70
1, 251173, Note_on_c, 0, 38, 72
1, 251173, Note_on_c, 0, 50, 73
1, 251173, Note_on_c, 0, 77, 88
1, 251173, Control_c, 0, 64, 53
1, 251176, Note_on_c, 0, 65, 92
1, 251179, Note_on_c, 0, 70, 80
1, 251188, Control_c, 0, 64, 40
1, 251201, Note_off_c, 0, 38, 64
1, 251203, Control_c, 0, 64, 59
1, 251205, Note_off_c, 0, 50, 68
1, 251212, Note_off_c, 0, 65, 62
1, 251215, Note_off_c, 0, 70, 61
1, 251218, Control_c, 0, 64, 66
1, 251233, Control_c, 0, 64, 74
1, 251248, Control_c, 0, 64, 87
1, 251263, Control_c, 0, 64, 99
1, 251277, Control_c, 0, 64, 105
1, 251281, Note_off_c, 0, 77, 57
1, 251336, Control_c, 0, 64, 105
1, 251366, Control_c, 0, 64, 106
1, 251411, Control_c, 0, 64, 104
1, 251425, Control_c, 0, 64, 94
1, 251440, Control_c, 0, 64, 79
1, 251455, Control_c, 0, 64, 63
1, 251459, Note_on_c, 0, 51, 72
1, 251462, Note_on_c, 0, 39, 65
1, 251469, Note_on_c, 0, 70, 87
1, 251471, Note_on_c, 0, 79, 88
1, 251471, Control_c, 0, 64, 19
1, 251473, Note_on_c, 0, 67, 89
1, 251486, Control_c, 0, 64, 42
1, 251498, Note_off_c, 0, 51, 63
1, 251500, Control_c, 0, 64, 62
1, 251507, Note_off_c, 0, 39, 59
1, 251512, Note_off_c, 0, 70, 64
1, 251515, Control_c, 0, 64, 70
1, 251520, Note_off_c, 0, 67, 60
1, 251530, Control_c, 0, 64, 82
1, 251544, Control_c, 0, 64, 98
1, 251559, Control_c, 0, 64, 114
1, 251574, Control_c, 0, 64, 119
1, 251582, Note_off_c, 0, 79, 52
1, 251648, Control_c, 0, 64, 120
1, 251692, Control_c, 0, 64, 119
1, 251707, Control_c, 0, 64, 117
1, 251722, Control_c, 0, 64, 100
1, 251737, Control_c, 0, 64, 81
1, 251751, Control_c, 0, 64, 61
1, 251766, Control_c, 0, 64, 0
1, 251774, Note_on_c, 0, 46, 80
1, 251777, Note_on_c, 0, 79, 86
1, 251778, Note_on_c, 0, 74, 97
1, 251778, Note_on_c, 0, 34, 73
1, 251779, Note_on_c, 0, 67, 95
1, 251805, Note_off_c, 0, 46, 67
1, 251811, Control_c, 0, 64, 48
1, 251812, Note_off_c, 0, 34, 63
1, 251820, Note_off_c, 0, 67, 62
1, 251826, Control_c, 0, 64, 64
1, 251841, Control_c, 0, 64, 73
1, 251855, Control_c, 0, 64, 88
1, 251870, Control_c, 0, 64, 97
1, 251892, Control_c, 0, 64, 101
1, 251907, Control_c, 0, 64, 101
1, 251922, Control_c, 0, 64, 102
1, 251936, Control_c, 0, 64, 103
1, 251951, Control_c, 0, 64, 106
1, 251967, Control_c, 0, 64, 108
1, 251982, Control_c, 0, 64, 110
1, 251997, Control_c, 0, 64, 110
1, 252041, Control_c, 0, 64, 103
1, 252056, Control_c, 0, 64, 86
1, 252071, Control_c, 0, 64, 68
1, 252078, Note_on_c, 0, 48, 75
1, 252079, Note_on_c, 0, 36, 71
1, 252080, Note_on_c, 0, 75, 88
1, 252082, Note_on_c, 0, 67, 90
1, 252086, Control_c, 0, 64, 36
1, 252100, Note_off_c, 0, 79, 59
1, 252100, Control_c, 0, 64, 0
1, 252103, Note_off_c, 0, 74, 66
1, 252112, Note_off_c, 0, 48, 65
1, 252112, Note_off_c, 0, 67, 64
1, 252115, Control_c, 0, 64, 38
1, 252130, Control_c, 0, 64, 61
1, 252140, Note_off_c, 0, 36, 61
1, 252145, Control_c, 0, 64, 70
1, 252157, Note_off_c, 0, 75, 61
1, 252160, Control_c, 0, 64, 82
1, 252175, Control_c, 0, 64, 94
1, 252190, Control_c, 0, 64, 103
1, 252205, Control_c, 0, 64, 105
1, 252219, Control_c, 0, 64, 106
1, 252234, Control_c, 0, 64, 106
1, 252279, Control_c, 0, 64, 106
1, 252293, Control_c, 0, 64, 96
1, 252308, Control_c, 0, 64, 80
1, 252323, Control_c, 0, 64, 62
1, 252338, Control_c, 0, 64, 0
1, 252347, Note_on_c, 0, 43, 75
1, 252348, Note_on_c, 0, 31, 78
1, 252348, Note_on_c, 0, 74, 82
1, 252349, Note_on_c, 0, 70, 90
1, 252349, Note_on_c, 0, 79, 89
1, 252367, Control_c, 0, 64, 24
1, 252371, Note_off_c, 0, 74, 66
1, 252377, Note_off_c, 0, 70, 66
1, 252380, Note_off_c, 0, 43, 64
1, 252381, Note_off_c, 0, 31, 63
1, 252382, Control_c, 0, 64, 59
1, 252397, Control_c, 0, 64, 70
1, 252412, Control_c, 0, 64, 82
1, 252427, Control_c, 0, 64, 103
1, 252441, Control_c, 0, 64, 119
1, 252456, Control_c, 0, 64, 127
1, 252473, Poly_aftertouch_c, 0, 78, 0
1, 252545, Control_c, 0, 64, 110
1, 252559, Control_c, 0, 64, 90
1, 252574, Control_c, 0, 64, 71
1, 252588, Note_on_c, 0, 44, 80
1, 252589, Control_c, 0, 64, 39
1, 252590, Note_on_c, 0, 32, 74
1, 252600, Note_on_c, 0, 68, 88
1, 252600, Note_on_c, 0, 72, 90
1, 252604, Control_c, 0, 64, 0
1, 252616, Note_off_c, 0, 32, 63
1, 252619, Control_c, 0, 64, 37
1, 252628, Note_off_c, 0, 68, 67
1, 252631, Note_off_c, 0, 44, 61
1, 252641, Control_c, 0, 64, 61
1, 252652, Note_off_c, 0, 72, 61
1, 252656, Control_c, 0, 64, 72
1, 252671, Control_c, 0, 64, 90
1, 252686, Control_c, 0, 64, 127
1, 252835, Control_c, 0, 64, 113
1, 252850, Control_c, 0, 64, 87
1, 252854, Note_off_c, 0, 79, 58
1, 252860, Note_on_c, 0, 72, 86
1, 252863, Note_on_c, 0, 56, 86
1, 252864, Note_on_c, 0, 44, 78
1, 252864, Note_on_c, 0, 68, 91
1, 252864, Note_on_c, 0, 77, 82
1, 252864, Control_c, 0, 64, 68
1, 252879, Control_c, 0, 64, 44
1, 252894, Control_c, 0, 64, 38
1, 252897, Note_off_c, 0, 56, 63
1, 252899, Note_off_c, 0, 44, 63
1, 252908, Control_c, 0, 64, 61
1, 252920, Note_off_c, 0, 68, 63
1, 252923, Control_c, 0, 64, 69
1, 252938, Control_c, 0, 64, 81
1, 252953, Control_c, 0, 64, 98
1, 252968, Control_c, 0, 64, 117
1, 252983, Control_c, 0, 64, 127
1, 253016, Note_off_c, 0, 77, 52
1, 253055, Note_off_c, 0, 72, 52
1, 253057, Control_c, 0, 64, 106
1, 253072, Control_c, 0, 64, 87
1, 253087, Control_c, 0, 64, 68
1, 253102, Control_c, 0, 64, 0
1, 253117, Note_on_c, 0, 46, 80
1, 253117, Note_on_c, 0, 58, 87
1, 253118, Note_on_c, 0, 79, 85
1, 253119, Note_on_c, 0, 67, 97
1, 253121, Note_on_c, 0, 74, 80
1, 253131, Control_c, 0, 64, 41
1, 253144, Note_off_c, 0, 74, 71
1, 253145, Note_off_c, 0, 46, 69
1, 253146, Control_c, 0, 64, 63
1, 253149, Note_off_c, 0, 58, 63
1, 253152, Note_off_c, 0, 79, 64
1, 253161, Control_c, 0, 64, 74
1, 253166, Note_off_c, 0, 67, 63
1, 253176, Control_c, 0, 64, 89
1, 253190, Control_c, 0, 64, 113
1, 253205, Control_c, 0, 64, 127
1, 253338, Control_c, 0, 64, 116
1, 253353, Control_c, 0, 64, 95
1, 253368, Control_c, 0, 64, 73
1, 253373, Note_on_c, 0, 60, 77
1, 253375, Note_on_c, 0, 48, 77
1, 253375, Note_on_c, 0, 68, 85
1, 253376, Note_on_c, 0, 72, 84
1, 253376, Note_on_c, 0, 63, 83
1, 253390, Control_c, 0, 64, 51
1, 253405, Control_c, 0, 64, 9
1, 253409, Note_off_c, 0, 60, 67
1, 253420, Control_c, 0, 64, 43
1, 253431, Note_off_c, 0, 48, 63
1, 253435, Control_c, 0, 64, 61
1, 253442, Note_off_c, 0, 63, 56
1, 253449, Control_c, 0, 64, 71
1, 253464, Control_c, 0, 64, 86
1, 253479, Control_c, 0, 64, 127
1, 253584, Control_c, 0, 64, 106
1, 253599, Control_c, 0, 64, 81
1, 253613, Control_c, 0, 64, 57
1, 253628, Control_c, 0, 64, 0
1, 253635, Note_on_c, 0, 55, 84
1, 253639, Note_off_c, 0, 72, 0
1, 253640, Note_on_c, 0, 43, 86
1, 253641, Note_on_c, 0, 75, 80
1, 253642, Note_on_c, 0, 63, 89
1, 253643, Note_on_c, 0, 70, 83
1, 253669, Note_off_c, 0, 68, 65
1, 253673, Note_off_c, 0, 63, 65
1, 253673, Control_c, 0, 64, 45
1, 253674, Note_off_c, 0, 43, 67
1, 253675, Poly_aftertouch_c, 0, 72, 0
1, 253679, Note_off_c, 0, 55, 62
1, 253688, Control_c, 0, 64, 64
1, 253702, Control_c, 0, 64, 72
1, 253713, Note_off_c, 0, 75, 58
1, 253717, Control_c, 0, 64, 83
1, 253731, Control_c, 0, 64, 90
1, 253746, Control_c, 0, 64, 92
1, 253761, Control_c, 0, 64, 93
1, 253776, Control_c, 0, 64, 94
1, 253791, Control_c, 0, 64, 94
1, 253820, Control_c, 0, 64, 94
1, 253835, Control_c, 0, 64, 89
1, 253850, Control_c, 0, 64, 72
1, 253865, Control_c, 0, 64, 21
1, 253880, Control_c, 0, 64, 0
1, 253882, Note_off_c, 0, 70, 42
1, 253896, Note_on_c, 0, 56, 87
1, 253899, Note_on_c, 0, 44, 86
1, 253899, Note_on_c, 0, 72, 86
1, 253900, Note_on_c, 0, 63, 92
1, 253903, Note_on_c, 0, 75, 84
1, 253929, Note_off_c, 0, 56, 66
1, 253939, Control_c, 0, 64, 55
1, 253946, Note_off_c, 0, 44, 55
1, 253954, Control_c, 0, 64, 67
1, 253969, Control_c, 0, 64, 76
1, 253984, Control_c, 0, 64, 90
1, 253999, Control_c, 0, 64, 105
1, 254013, Control_c, 0, 64, 127
1, 254087, Control_c, 0, 64, 97
1, 254102, Control_c, 0, 64, 78
1, 254117, Control_c, 0, 64, 62
1, 254139, Control_c, 0, 64, 9
1, 254154, Control_c, 0, 64, 45
1, 254155, Note_on_c, 0, 53, 86
1, 254156, Note_on_c, 0, 41, 76
1, 254160, Note_on_c, 0, 68, 87
1, 254169, Control_c, 0, 64, 64
1, 254182, Note_off_c, 0, 41, 65
1, 254184, Control_c, 0, 64, 77
1, 254188, Note_off_c, 0, 63, 65
1, 254190, Note_off_c, 0, 75, 58
1, 254193, Note_off_c, 0, 72, 60
1, 254198, Note_off_c, 0, 53, 62
1, 254199, Control_c, 0, 64, 101
1, 254213, Control_c, 0, 64, 127
1, 254220, Note_off_c, 0, 68, 58
1, 254407, Control_c, 0, 64, 95
1, 254422, Control_c, 0, 64, 72
1, 254424, Note_on_c, 0, 58, 83
1, 254425, Note_on_c, 0, 46, 83
1, 254428, Note_on_c, 0, 62, 92
1, 254431, Note_on_c, 0, 68, 88
1, 254431, Note_on_c, 0, 74, 84
1, 254432, Note_on_c, 0, 70, 84
1, 254436, Control_c, 0, 64, 56
1, 254451, Control_c, 0, 64, 46
1, 254452, Note_off_c, 0, 58, 64
1, 254466, Control_c, 0, 64, 59
1, 254472, Note_off_c, 0, 46, 64
1, 254480, Control_c, 0, 64, 67
1, 254495, Control_c, 0, 64, 75
1, 254510, Control_c, 0, 64, 87
1, 254525, Control_c, 0, 64, 102
1, 254527, Note_off_c, 0, 62, 60
1, 254533, Note_off_c, 0, 74, 60
1, 254540, Control_c, 0, 64, 113
1, 254546, Note_off_c, 0, 68, 62
1, 254554, Control_c, 0, 64, 125
1, 254569, Control_c, 0, 64, 127
1, 254605, Note_off_c, 0, 70, 55
1, 254762, Control_c, 0, 64, 110
1, 254777, Control_c, 0, 64, 78
1, 254792, Control_c, 0, 64, 0
1, 254798, Note_on_c, 0, 45, 84
1, 254801, Note_on_c, 0, 71, 84
1, 254801, Note_on_c, 0, 33, 80
1, 254801, Note_on_c, 0, 75, 87
1, 254804, Note_on_c, 0, 66, 87
1, 254806, Note_on_c, 0, 63, 85
1, 254866, Control_c, 0, 64, 21
1, 254887, Control_c, 0, 64, 59
1, 254902, Control_c, 0, 64, 71
1, 254917, Control_c, 0, 64, 88
1, 254922, Note_off_c, 0, 75, 63
1, 254923, Note_off_c, 0, 63, 61
1, 254932, Note_off_c, 0, 71, 64
1, 254932, Control_c, 0, 64, 118
1, 254947, Control_c, 0, 64, 127
1, 254953, Note_off_c, 0, 66, 63
1, 255144, Note_on_c, 0, 54, 82
1, 255200, Note_off_c, 0, 45, 53
1, 255262, Note_off_c, 0, 54, 39
1, 255271, Note_on_c, 0, 59, 82
1, 255360, Note_off_c, 0, 59, 60
1, 255378, Note_on_c, 0, 64, 77
1, 255392, Control_c, 0, 64, 113
1, 255407, Control_c, 0, 64, 100
1, 255422, Control_c, 0, 64, 94
1, 255437, Control_c, 0, 64, 93
1, 255472, Note_on_c, 0, 63, 80
1, 255481, Control_c, 0, 64, 93
1, 255496, Control_c, 0, 64, 94
1, 255510, Control_c, 0, 64, 95
1, 255525, Control_c, 0, 64, 95
1, 255537, Note_off_c, 0, 33, 62
1, 255540, Control_c, 0, 64, 96
1, 255544, Note_off_c, 0, 64, 58
1, 255553, Note_on_c, 0, 61, 78
1, 255555, Control_c, 0, 64, 96
1, 255570, Control_c, 0, 64, 97
1, 255585, Control_c, 0, 64, 98
1, 255600, Control_c, 0, 64, 98
1, 255615, Control_c, 0, 64, 99
1, 255637, Control_c, 0, 64, 99
1, 255639, Note_on_c, 0, 59, 74
1, 255652, Control_c, 0, 64, 100
1, 255659, Note_off_c, 0, 63, 54
1, 255661, Note_off_c, 0, 59, 69
1, 255666, Control_c, 0, 64, 101
1, 255670, Note_off_c, 0, 61, 63
1, 255681, Control_c, 0, 64, 102
1, 255696, Control_c, 0, 64, 102
1, 255725, Control_c, 0, 64, 103
1, 255743, Note_on_c, 0, 66, 81
1, 255755, Control_c, 0, 64, 103
1, 255770, Control_c, 0, 64, 105
1, 255785, Control_c, 0, 64, 107
1, 255800, Control_c, 0, 64, 110
1, 255812, Note_off_c, 0, 66, 61
1, 255814, Control_c, 0, 64, 114
1, 255820, Note_on_c, 0, 71, 70
1, 255829, Control_c, 0, 64, 118
1, 255844, Control_c, 0, 64, 127
1, 255894, Note_off_c, 0, 71, 63
1, 255903, Note_on_c, 0, 76, 78
1, 255904, Control_c, 0, 64, 111
1, 255918, Control_c, 0, 64, 91
1, 255933, Control_c, 0, 64, 71
1, 255948, Control_c, 0, 64, 29
1, 255951, Note_on_c, 0, 66, 79
1, 255955, Note_on_c, 0, 63, 77
1, 255962, Note_on_c, 0, 59, 63
1, 255963, Control_c, 0, 64, 0
1, 255967, Note_on_c, 0, 75, 79
1, 255969, Note_on_c, 0, 57, 63
1, 255978, Control_c, 0, 64, 28
1, 255984, Note_off_c, 0, 66, 67
1, 255988, Note_off_c, 0, 59, 67
1, 255992, Note_off_c, 0, 63, 63
1, 255993, Control_c, 0, 64, 56
1, 255994, Note_off_c, 0, 57, 63
1, 256007, Control_c, 0, 64, 67
1, 256022, Control_c, 0, 64, 76
1, 256031, Note_off_c, 0, 76, 61
1, 256037, Control_c, 0, 64, 91
1, 256040, Note_on_c, 0, 73, 81
1, 256052, Control_c, 0, 64, 99
1, 256067, Control_c, 0, 64, 102
1, 256081, Control_c, 0, 64, 102
1, 256096, Control_c, 0, 64, 103
1, 256104, Note_on_c, 0, 71, 80
1, 256111, Control_c, 0, 64, 103
1, 256122, Note_off_c, 0, 75, 59
1, 256124, Note_off_c, 0, 71, 72
1, 256131, Note_off_c, 0, 73, 64
1, 256140, Control_c, 0, 64, 104
1, 256170, Control_c, 0, 64, 104
1, 256202, Note_on_c, 0, 78, 86
1, 256244, Control_c, 0, 64, 105
1, 256259, Control_c, 0, 64, 106
1, 256267, Note_on_c, 0, 83, 75
1, 256273, Control_c, 0, 64, 110
1, 256281, Note_off_c, 0, 78, 54
1, 256288, Control_c, 0, 64, 116
1, 256303, Control_c, 0, 64, 127
1, 256349, Note_on_c, 0, 88, 81
1, 256349, Note_off_c, 0, 83, 63
1, 256363, Control_c, 0, 64, 110
1, 256385, Control_c, 0, 64, 88
1, 256400, Control_c, 0, 64, 67
1, 256408, Note_on_c, 0, 78, 82
1, 256414, Control_c, 0, 64, 0
1, 256415, Note_on_c, 0, 75, 78
1, 256417, Note_on_c, 0, 69, 68
1, 256417, Note_on_c, 0, 71, 73
1, 256422, Note_on_c, 0, 87, 86
1, 256444, Control_c, 0, 64, 45
1, 256458, Control_c, 0, 64, 62
1, 256473, Control_c, 0, 64, 70
1, 256484, Note_on_c, 0, 85, 85
1, 256488, Control_c, 0, 64, 83
1, 256490, Note_off_c, 0, 88, 63
1, 256503, Control_c, 0, 64, 103
1, 256518, Control_c, 0, 64, 127
1, 256526, Note_off_c, 0, 78, 64
1, 256551, Note_on_c, 0, 83, 81
1, 256566, Note_off_c, 0, 69, 0
1, 256566, Note_on_c, 0, 69, 4
1, 256572, Note_off_c, 0, 83, 71
1, 256578, Note_off_c, 0, 85, 64
1, 256578, Note_off_c, 0, 87, 62
1, 256640, Note_on_c, 0, 90, 84
1, 256715, Note_on_c, 0, 95, 82
1, 256730, Note_on_c, 0, 80, 68
1, 256759, Note_off_c, 0, 80, 66
1, 256783, Note_on_c, 0, 100, 83
1, 256784, Note_off_c, 0, 69, 53
1, 256787, Note_off_c, 0, 71, 60
1, 256791, Note_off_c, 0, 75, 63
1, 256827, Note_on_c, 0, 78, 85
1, 256829, Note_on_c, 0, 99, 97
1, 256831, Note_on_c, 0, 69, 62
1, 256832, Note_on_c, 0, 71, 58
1, 256834, Note_on_c, 0, 75, 66
1, 256851, Note_off_c, 0, 100, 65
1, 256854, Note_off_c, 0, 78, 64
1, 256855, Note_off_c, 0, 95, 66
1, 256863, Note_off_c, 0, 90, 64
1, 256867, Note_off_c, 0, 75, 64
1, 256870, Note_off_c, 0, 69, 68
1, 256873, Note_off_c, 0, 99, 65
1, 256876, Note_off_c, 0, 71, 64
1, 257117, Note_on_c, 0, 54, 87
1, 257207, Note_off_c, 0, 54, 63
1, 257218, Note_on_c, 0, 59, 77
1, 257305, Note_off_c, 0, 59, 61
1, 257310, Note_on_c, 0, 64, 77
1, 257399, Note_on_c, 0, 45, 88
1, 257400, Control_c, 0, 64, 89
1, 257403, Note_on_c, 0, 33, 78
1, 257413, Note_on_c, 0, 63, 80
1, 257414, Control_c, 0, 64, 66
1, 257429, Control_c, 0, 64, 0
1, 257459, Control_c, 0, 64, 21
1, 257465, Note_off_c, 0, 33, 61
1, 257473, Control_c, 0, 64, 56
1, 257484, Note_off_c, 0, 64, 57
1, 257488, Note_off_c, 0, 45, 63
1, 257488, Control_c, 0, 64, 67
1, 257497, Note_on_c, 0, 61, 76
1, 257503, Control_c, 0, 64, 78
1, 257518, Control_c, 0, 64, 92
1, 257533, Control_c, 0, 64, 104
1, 257549, Control_c, 0, 64, 111
1, 257564, Control_c, 0, 64, 113
1, 257578, Control_c, 0, 64, 114
1, 257582, Note_on_c, 0, 59, 74
1, 257593, Control_c, 0, 64, 115
1, 257594, Note_off_c, 0, 63, 57
1, 257607, Note_off_c, 0, 61, 63
1, 257608, Note_off_c, 0, 59, 67
1, 257608, Control_c, 0, 64, 117
1, 257623, Control_c, 0, 64, 120
1, 257638, Control_c, 0, 64, 125
1, 257652, Control_c, 0, 64, 127
1, 257691, Note_on_c, 0, 66, 75
1, 257746, Note_off_c, 0, 66, 62
1, 257754, Note_on_c, 0, 71, 68
1, 257830, Note_off_c, 0, 71, 64
1, 257835, Note_on_c, 0, 76, 77
1, 257859, Control_c, 0, 64, 114
1, 257882, Control_c, 0, 64, 88
1, 257883, Note_on_c, 0, 66, 82
1, 257888, Note_on_c, 0, 63, 77
1, 257892, Note_on_c, 0, 57, 67
1, 257896, Note_on_c, 0, 59, 67
1, 257897, Control_c, 0, 64, 69
1, 257898, Note_on_c, 0, 75, 78
1, 257911, Control_c, 0, 64, 51
1, 257919, Note_off_c, 0, 59, 68
1, 257920, Note_off_c, 0, 57, 66
1, 257926, Control_c, 0, 64, 50
1, 257928, Note_off_c, 0, 66, 60
1, 257932, Note_off_c, 0, 63, 61
1, 257941, Control_c, 0, 64, 63
1, 257952, Note_on_c, 0, 73, 81
1, 257952, Note_off_c, 0, 76, 61
1, 257956, Control_c, 0, 64, 72
1, 257971, Control_c, 0, 64, 86
1, 257985, Control_c, 0, 64, 109
1, 258000, Control_c, 0, 64, 127
1, 258017, Note_on_c, 0, 71, 77
1, 258038, Note_off_c, 0, 71, 72
1, 258044, Note_off_c, 0, 75, 56
1, 258047, Note_off_c, 0, 73, 63
1, 258119, Note_on_c, 0, 78, 81
1, 258174, Note_on_c, 0, 82, 77
1, 258188, Note_off_c, 0, 78, 61
1, 258217, Note_on_c, 0, 83, 62
1, 258220, Note_off_c, 0, 82, 55
1, 258259, Note_off_c, 0, 83, 63
1, 258259, Note_on_c, 0, 88, 79
1, 258298, Control_c, 0, 64, 91
1, 258312, Control_c, 0, 64, 70
1, 258313, Note_on_c, 0, 78, 84
1, 258315, Note_on_c, 0, 75, 77
1, 258319, Note_on_c, 0, 87, 83
1, 258321, Note_on_c, 0, 71, 69
1, 258321, Note_on_c, 0, 69, 62
1, 258327, Control_c, 0, 64, 35
1, 258342, Control_c, 0, 64, 32
1, 258357, Control_c, 0, 64, 54
1, 258372, Note_off_c, 0, 88, 66
1, 258372, Control_c, 0, 64, 64
1, 258375, Note_on_c, 0, 85, 78
1, 258387, Control_c, 0, 64, 73
1, 258402, Control_c, 0, 64, 86
1, 258417, Control_c, 0, 64, 110
1, 258421, Note_off_c, 0, 78, 64
1, 258432, Control_c, 0, 64, 127
1, 258444, Note_on_c, 0, 83, 79
1, 258455, Note_off_c, 0, 87, 60
1, 258464, Note_off_c, 0, 83, 69
1, 258466, Note_off_c, 0, 85, 64
1, 258539, Note_on_c, 0, 90, 78
1, 258597, Note_on_c, 0, 95, 76
1, 258610, Note_on_c, 0, 80, 65
1, 258650, Note_off_c, 0, 80, 62
1, 258667, Note_off_c, 0, 69, 62
1, 258674, Note_off_c, 0, 71, 64
1, 258685, Note_on_c, 0, 100, 73
1, 258693, Note_off_c, 0, 75, 62
1, 258706, Control_c, 0, 64, 101
1, 258721, Control_c, 0, 64, 74
1, 258723, Note_on_c, 0, 99, 96
1, 258727, Note_on_c, 0, 78, 85
1, 258730, Note_on_c, 0, 75, 54
1, 258735, Control_c, 0, 64, 42
1, 258736, Note_on_c, 0, 72, 73
1, 258742, Note_on_c, 0, 69, 61
1, 258750, Note_off_c, 0, 100, 64
1, 258750, Control_c, 0, 64, 0
1, 258751, Note_off_c, 0, 95, 67
1, 258760, Note_off_c, 0, 78, 65
1, 258763, Note_off_c, 0, 90, 65
1, 258765, Note_off_c, 0, 75, 65
1, 258765, Control_c, 0, 64, 57
1, 258771, Note_off_c, 0, 99, 65
1, 258773, Note_off_c, 0, 69, 68
1, 258777, Note_off_c, 0, 72, 64
1, 258780, Control_c, 0, 64, 70
1, 258795, Control_c, 0, 64, 88
1, 258809, Control_c, 0, 64, 127
1, 259010, Note_on_c, 0, 54, 81
1, 259094, Note_on_c, 0, 60, 71
1, 259098, Note_off_c, 0, 54, 63
1, 259183, Note_on_c, 0, 65, 80
1, 259204, Note_off_c, 0, 60, 58
1, 259225, Control_c, 0, 64, 102
1, 259239, Control_c, 0, 64, 78
1, 259254, Control_c, 0, 64, 55
1, 259269, Control_c, 0, 64, 0
1, 259270, Note_on_c, 0, 63, 82
1, 259276, Note_on_c, 0, 33, 66
1, 259281, Note_on_c, 0, 45, 62
1, 259299, Control_c, 0, 64, 46
1, 259300, Note_on_c, 0, 44, 27
1, 259308, Note_on_c, 0, 39, 15
1, 259309, Note_off_c, 0, 39, 127
1, 259309, Note_off_c, 0, 33, 62
1, 259314, Control_c, 0, 64, 63
1, 259317, Note_off_c, 0, 45, 64
1, 259329, Control_c, 0, 64, 72
1, 259341, Note_off_c, 0, 44, 49
1, 259343, Control_c, 0, 64, 85
1, 259347, Note_off_c, 0, 65, 55
1, 259351, Note_on_c, 0, 61, 82
1, 259358, Control_c, 0, 64, 99
1, 259380, Control_c, 0, 64, 106
1, 259395, Control_c, 0, 64, 109
1, 259410, Control_c, 0, 64, 110
1, 259421, Note_on_c, 0, 60, 75
1, 259424, Control_c, 0, 64, 111
1, 259435, Note_off_c, 0, 63, 60
1, 259439, Control_c, 0, 64, 112
1, 259444, Note_off_c, 0, 60, 69
1, 259444, Note_off_c, 0, 61, 65
1, 259454, Control_c, 0, 64, 118
1, 259469, Control_c, 0, 64, 127
1, 259514, Note_on_c, 0, 66, 79
1, 259568, Note_off_c, 0, 66, 62
1, 259579, Note_on_c, 0, 72, 70
1, 259648, Note_on_c, 0, 77, 77
1, 259652, Note_off_c, 0, 72, 63
1, 259691, Control_c, 0, 64, 94
1, 259706, Control_c, 0, 64, 71
1, 259707, Note_on_c, 0, 66, 78
1, 259710, Note_on_c, 0, 57, 73
1, 259710, Note_on_c, 0, 63, 79
1, 259713, Note_on_c, 0, 75, 78
1, 259715, Note_on_c, 0, 60, 65
1, 259721, Control_c, 0, 64, 44
1, 259736, Control_c, 0, 64, 24
1, 259737, Note_off_c, 0, 57, 66
1, 259739, Note_off_c, 0, 66, 64
1, 259746, Note_off_c, 0, 63, 63
1, 259749, Note_off_c, 0, 60, 68
1, 259750, Control_c, 0, 64, 57
1, 259765, Control_c, 0, 64, 66
1, 259767, Note_on_c, 0, 73, 77
1, 259776, Note_off_c, 0, 77, 57
1, 259780, Control_c, 0, 64, 77
1, 259795, Control_c, 0, 64, 93
1, 259809, Control_c, 0, 64, 114
1, 259824, Control_c, 0, 64, 127
1, 259826, Note_on_c, 0, 72, 80
1, 259849, Note_off_c, 0, 72, 70
1, 259854, Note_off_c, 0, 75, 62
1, 259857, Note_off_c, 0, 73, 64
1, 259926, Note_on_c, 0, 78, 84
1, 259990, Note_on_c, 0, 84, 72
1, 259994, Note_off_c, 0, 78, 64
1, 260071, Note_on_c, 0, 89, 81
1, 260077, Note_off_c, 0, 84, 64
1, 260129, Control_c, 0, 64, 86
1, 260144, Control_c, 0, 64, 64
1, 260150, Note_on_c, 0, 75, 80
1, 260150, Note_on_c, 0, 78, 91
1, 260151, Note_on_c, 0, 87, 83
1, 260152, Note_on_c, 0, 69, 71
1, 260157, Note_on_c, 0, 72, 74
1, 260159, Control_c, 0, 64, 0
1, 260173, Control_c, 0, 64, 19
1, 260188, Control_c, 0, 64, 52
1, 260203, Control_c, 0, 64, 63
1, 260214, Note_on_c, 0, 85, 80
1, 260218, Note_off_c, 0, 89, 58
1, 260218, Control_c, 0, 64, 70
1, 260233, Control_c, 0, 64, 79
1, 260247, Control_c, 0, 64, 91
1, 260262, Control_c, 0, 64, 108
1, 260277, Control_c, 0, 64, 127
1, 260283, Note_on_c, 0, 84, 74
1, 260283, Note_off_c, 0, 78, 63
1, 260303, Note_off_c, 0, 87, 62
1, 260304, Note_off_c, 0, 84, 69
1, 260322, Note_off_c, 0, 85, 55
1, 260373, Note_on_c, 0, 90, 95
1, 260438, Note_on_c, 0, 96, 73
1, 260468, Note_on_c, 0, 80, 63
1, 260494, Note_off_c, 0, 80, 68
1, 260501, Note_on_c, 0, 101, 86
1, 260510, Note_off_c, 0, 69, 55
1, 260522, Note_off_c, 0, 72, 64
1, 260533, Note_off_c, 0, 75, 63
1, 260544, Control_c, 0, 64, 94
1, 260559, Control_c, 0, 64, 70
1, 260562, Note_on_c, 0, 99, 92
1, 260562, Poly_aftertouch_c, 0, 75, 0
1, 260565, Note_on_c, 0, 78, 94
1, 260571, Note_on_c, 0, 75, 61
1, 260574, Control_c, 0, 64, 49
1, 260576, Note_on_c, 0, 72, 71
1, 260580, Note_off_c, 0, 101, 66
1, 260584, Note_on_c, 0, 69, 65
1, 260588, Control_c, 0, 64, 59
1, 260596, Note_off_c, 0, 96, 67
1, 260603, Control_c, 0, 64, 72
1, 260607, Note_off_c, 0, 78, 64
1, 260608, Note_off_c, 0, 90, 64
1, 260610, Note_off_c, 0, 99, 65
1, 260612, Note_off_c, 0, 69, 69
1, 260618, Control_c, 0, 64, 90
1, 260623, Note_off_c, 0, 72, 65
1, 260624, Note_off_c, 0, 75, 62
1, 260632, Control_c, 0, 64, 127
1, 260877, Note_on_c, 0, 54, 89
1, 260983, Note_on_c, 0, 60, 70
1, 260992, Note_off_c, 0, 54, 59
1, 261094, Note_on_c, 0, 65, 82
1, 261164, Note_off_c, 0, 60, 31
1, 261204, Control_c, 0, 64, 92
1, 261206, Note_on_c, 0, 44, 90
1, 261208, Note_on_c, 0, 32, 88
1, 261219, Control_c, 0, 64, 70
1, 261221, Note_on_c, 0, 63, 83
1, 261234, Control_c, 0, 64, 43
1, 261248, Control_c, 0, 64, 33
1, 261260, Note_off_c, 0, 32, 63
1, 261263, Control_c, 0, 64, 59
1, 261278, Control_c, 0, 64, 69
1, 261281, Note_off_c, 0, 44, 63
1, 261293, Control_c, 0, 64, 81
1, 261308, Control_c, 0, 64, 102
1, 261322, Control_c, 0, 64, 127
1, 261338, Note_on_c, 0, 61, 81
1, 261354, Note_off_c, 0, 65, 53
1, 261426, Note_on_c, 0, 60, 74
1, 261456, Note_off_c, 0, 63, 59
1, 261459, Note_off_c, 0, 60, 66
1, 261464, Note_off_c, 0, 61, 62
1, 261532, Note_on_c, 0, 66, 79
1, 261624, Note_off_c, 0, 66, 61
1, 261625, Note_on_c, 0, 72, 69
1, 261702, Note_on_c, 0, 77, 78
1, 261711, Note_off_c, 0, 72, 62
1, 261760, Control_c, 0, 64, 100
1, 261764, Note_on_c, 0, 66, 87
1, 261769, Note_on_c, 0, 54, 75
1, 261771, Note_on_c, 0, 60, 80
1, 261772, Note_on_c, 0, 56, 81
1, 261775, Control_c, 0, 64, 78
1, 261779, Note_on_c, 0, 75, 80
1, 261790, Control_c, 0, 64, 62
1, 261804, Note_off_c, 0, 54, 66
1, 261805, Control_c, 0, 64, 55
1, 261819, Note_off_c, 0, 66, 65
1, 261820, Control_c, 0, 64, 63
1, 261822, Note_off_c, 0, 56, 64
1, 261823, Note_off_c, 0, 60, 65
1, 261834, Control_c, 0, 64, 72
1, 261849, Control_c, 0, 64, 84
1, 261857, Note_on_c, 0, 73, 77
1, 261864, Control_c, 0, 64, 103
1, 261868, Note_off_c, 0, 77, 54
1, 261878, Control_c, 0, 64, 127
1, 261934, Note_on_c, 0, 72, 67
1, 261961, Note_off_c, 0, 72, 69
1, 261961, Note_off_c, 0, 75, 62
1, 261967, Note_off_c, 0, 73, 62
1, 262033, Note_on_c, 0, 78, 86
1, 262118, Note_on_c, 0, 84, 68
1, 262131, Note_off_c, 0, 78, 59
1, 262209, Note_on_c, 0, 89, 79
1, 262217, Note_off_c, 0, 84, 61
1, 262301, Note_on_c, 0, 78, 90
1, 262301, Note_on_c, 0, 68, 76
1, 262302, Note_on_c, 0, 72, 81
1, 262307, Note_on_c, 0, 66, 74
1, 262308, Control_c, 0, 64, 94
1, 262310, Note_on_c, 0, 87, 84
1, 262323, Control_c, 0, 64, 73
1, 262339, Control_c, 0, 64, 53
1, 262354, Control_c, 0, 64, 34
1, 262375, Control_c, 0, 64, 52
1, 262390, Control_c, 0, 64, 63
1, 262405, Control_c, 0, 64, 73
1, 262420, Control_c, 0, 64, 89
1, 262423, Note_on_c, 0, 85, 80
1, 262435, Note_off_c, 0, 89, 54
1, 262435, Control_c, 0, 64, 127
1, 262524, Note_on_c, 0, 84, 76
1, 262568, Note_off_c, 0, 87, 62
1, 262569, Note_off_c, 0, 84, 66
1, 262576, Note_off_c, 0, 85, 65
1, 262640, Note_on_c, 0, 90, 93
1, 262658, Note_off_c, 0, 78, 63
1, 262741, Note_on_c, 0, 96, 77
1, 262745, Note_off_c, 0, 66, 50
1, 262802, Note_off_c, 0, 90, 62
1, 262812, Note_on_c, 0, 80, 88
1, 262863, Note_off_c, 0, 96, 65
1, 262887, Note_on_c, 0, 101, 88
1, 262894, Note_off_c, 0, 80, 60
1, 262932, Note_off_c, 0, 72, 61
1, 262940, Note_off_c, 0, 68, 59
1, 263056, Note_on_c, 0, 68, 74
1, 263057, Note_on_c, 0, 72, 82
1, 263058, Note_on_c, 0, 78, 92
1, 263061, Note_on_c, 0, 99, 89
1, 263069, Note_on_c, 0, 66, 76
1, 263086, Control_c, 0, 64, 96
1, 263100, Note_off_c, 0, 101, 58
1, 263101, Control_c, 0, 64, 76
1, 263124, Control_c, 0, 64, 61
1, 263138, Control_c, 0, 64, 51
1, 263154, Control_c, 0, 64, 59
1, 263169, Control_c, 0, 64, 67
1, 263184, Control_c, 0, 64, 76
1, 263198, Control_c, 0, 64, 90
1, 263213, Control_c, 0, 64, 127
1, 263249, Note_on_c, 0, 96, 88
1, 263310, Note_off_c, 0, 99, 62
1, 263362, Note_off_c, 0, 96, 67
1, 263367, Note_on_c, 0, 92, 82
1, 263416, Note_off_c, 0, 92, 62
1, 263430, Note_off_c, 0, 78, 61
1, 263474, Note_on_c, 0, 90, 81
1, 263487, Note_off_c, 0, 68, 54
1, 263527, Note_off_c, 0, 66, 55
1, 263574, Note_on_c, 0, 87, 82
1, 263602, Note_off_c, 0, 90, 63
1, 263639, Note_off_c, 0, 87, 64
1, 263663, Note_on_c, 0, 84, 66
1, 263723, Note_off_c, 0, 84, 59
1, 263760, Note_on_c, 0, 80, 76
1, 263770, Note_off_c, 0, 72, 68
1, 263848, Note_on_c, 0, 78, 73
1, 263871, Note_off_c, 0, 80, 64
1, 263938, Note_on_c, 0, 75, 68
1, 263938, Note_off_c, 0, 78, 65
1, 263985, Note_off_c, 0, 75, 63
1, 264015, Note_on_c, 0, 72, 68
1, 264063, Note_off_c, 0, 72, 52
1, 264089, Note_on_c, 0, 68, 77
1, 264161, Note_on_c, 0, 66, 76
1, 264170, Note_off_c, 0, 68, 64
1, 264236, Note_on_c, 0, 63, 80
1, 264238, Note_off_c, 0, 66, 66
1, 264280, Note_off_c, 0, 63, 66
1, 264307, Note_on_c, 0, 60, 71
1, 264378, Note_off_c, 0, 60, 59
1, 264380, Note_on_c, 0, 56, 83
1, 264460, Note_on_c, 0, 54, 81
1, 264487, Note_off_c, 0, 56, 64
1, 264534, Note_on_c, 0, 51, 84
1, 264543, Note_off_c, 0, 54, 65
1, 264593, Note_off_c, 0, 51, 64
1, 264622, Note_on_c, 0, 48, 79
1, 264703, Note_on_c, 0, 44, 84
1, 264718, Note_off_c, 0, 48, 58
1, 264799, Note_on_c, 0, 42, 83
1, 264835, Note_off_c, 0, 44, 61
1, 264888, Note_on_c, 0, 39, 85
1, 264899, Note_off_c, 0, 42, 60
1, 264999, Note_off_c, 0, 39, 55
1, 265001, Note_on_c, 0, 33, 89
1, 265037, Control_c, 0, 64, 118
1, 265052, Control_c, 0, 64, 100
1, 265067, Control_c, 0, 64, 85
1, 265082, Control_c, 0, 64, 72
1, 265094, Note_off_c, 0, 33, 60
1, 265096, Control_c, 0, 64, 59
1, 265111, Control_c, 0, 64, 0
1, 265127, Note_on_c, 0, 35, 81
1, 265182, Note_off_c, 0, 35, 62
1, 265213, Note_on_c, 0, 33, 78
1, 265297, Note_off_c, 0, 33, 60
1, 265330, Note_on_c, 0, 32, 90
1, 265623, Control_c, 0, 64, 41
1, 265638, Control_c, 0, 64, 60
1, 265652, Control_c, 0, 64, 66
1, 265665, Note_off_c, 0, 32, 62
1, 265667, Control_c, 0, 64, 71
1, 265682, Control_c, 0, 64, 77
1, 265697, Control_c, 0, 64, 82
1, 265712, Control_c, 0, 64, 84
1, 265726, Control_c, 0, 64, 84
1, 265830, Control_c, 0, 64, 82
1, 265845, Control_c, 0, 64, 79
1, 265860, Control_c, 0, 64, 74
1, 265875, Control_c, 0, 64, 65
1, 265890, Control_c, 0, 64, 49
1, 265905, Control_c, 0, 64, 0
1, 266043, Note_on_c, 0, 92, 92
1, 266045, Note_on_c, 0, 56, 71
1, 266045, Note_on_c, 0, 68, 69
1, 266048, Note_on_c, 0, 80, 84
1, 266067, Control_c, 0, 64, 54
1, 266071, Note_off_c, 0, 68, 70
1, 266082, Control_c, 0, 64, 73
1, 266084, Note_off_c, 0, 92, 66
1, 266084, Note_off_c, 0, 56, 62
1, 266096, Note_off_c, 0, 80, 62
1, 266097, Control_c, 0, 64, 95
1, 266119, Control_c, 0, 64, 127
1, 266394, Note_on_c, 0, 80, 92
1, 266396, Note_on_c, 0, 68, 85
1, 266398, Note_on_c, 0, 56, 72
1, 266402, Note_on_c, 0, 44, 65
1, 266441, Note_off_c, 0, 68, 67
1, 266445, Note_off_c, 0, 56, 60
1, 266445, Note_off_c, 0, 80, 67
1, 266487, Note_off_c, 0, 44, 54
1, 266921, Note_on_c, 0, 56, 80
1, 266923, Note_on_c, 0, 32, 55
1, 266924, Note_on_c, 0, 68, 82
1, 266927, Note_on_c, 0, 44, 55
1, 267001, Control_c, 0, 64, 107
1, 267016, Control_c, 0, 64, 92
1, 267031, Control_c, 0, 64, 81
1, 267046, Control_c, 0, 64, 73
1, 267061, Control_c, 0, 64, 66
1, 267075, Control_c, 0, 64, 60
1, 267090, Control_c, 0, 64, 58
1, 267105, Control_c, 0, 64, 58
1, 267120, Control_c, 0, 64, 59
1, 267136, Control_c, 0, 64, 60
1, 267151, Control_c, 0, 64, 60
1, 267165, Control_c, 0, 64, 61
1, 267210, Control_c, 0, 64, 61
1, 267225, Control_c, 0, 64, 62
1, 267240, Control_c, 0, 64, 62
1, 267255, Control_c, 0, 64, 64
1, 267270, Control_c, 0, 64, 64
1, 267285, Control_c, 0, 64, 65
1, 267299, Control_c, 0, 64, 67
1, 267314, Control_c, 0, 64, 70
1, 267329, Control_c, 0, 64, 73
1, 267344, Control_c, 0, 64, 76
1, 267359, Control_c, 0, 64, 79
1, 267373, Control_c, 0, 64, 82
1, 267388, Control_c, 0, 64, 84
1, 267403, Control_c, 0, 64, 86
1, 267417, Control_c, 0, 64, 89
1, 267432, Control_c, 0, 64, 91
1, 267447, Control_c, 0, 64, 94
1, 267462, Control_c, 0, 64, 95
1, 267477, Control_c, 0, 64, 97
1, 267491, Control_c, 0, 64, 98
1, 267506, Control_c, 0, 64, 100
1, 267521, Control_c, 0, 64, 101
1, 267531, Note_off_c, 0, 44, 36
1, 267536, Control_c, 0, 64, 103
1, 267551, Control_c, 0, 64, 105
1, 267557, Note_off_c, 0, 32, 39
1, 267565, Control_c, 0, 64, 107
1, 267580, Control_c, 0, 64, 108
1, 267595, Control_c, 0, 64, 109
1, 267632, Control_c, 0, 64, 109
1, 267647, Control_c, 0, 64, 110
1, 267649, Note_off_c, 0, 68, 47
1, 267669, Note_off_c, 0, 56, 33
1, 267736, Control_c, 0, 64, 110
1, 268152, Control_c, 0, 64, 110
1, 268366, Note_on_c, 0, 67, 53
1, 268374, Note_on_c, 0, 31, 29
1, 268380, Note_on_c, 0, 43, 21
1, 268390, Note_on_c, 0, 55, 11
1, 268411, Note_off_c, 0, 67, 56
1, 268425, Note_off_c, 0, 43, 49
1, 268427, Note_off_c, 0, 31, 45
1, 268438, Note_off_c, 0, 55, 51
1, 268500, Control_c, 0, 64, 106
1, 268514, Control_c, 0, 64, 98
1, 268529, Control_c, 0, 64, 89
1, 268537, Note_on_c, 0, 67, 51
1, 268544, Control_c, 0, 64, 79
1, 268555, Note_on_c, 0, 31, 31
1, 268558, Note_on_c, 0, 55, 37
1, 268558, Control_c, 0, 64, 69
1, 268562, Note_on_c, 0, 43, 30
1, 268573, Control_c, 0, 64, 60
1, 268588, Control_c, 0, 64, 45
1, 268603, Control_c, 0, 64, 48
1, 268618, Control_c, 0, 64, 56
1, 268633, Control_c, 0, 64, 62
1, 268647, Control_c, 0, 64, 66
1, 268662, Control_c, 0, 64, 71
1, 268677, Control_c, 0, 64, 79
1, 268691, Control_c, 0, 64, 86
1, 268705, Control_c, 0, 64, 93
1, 268720, Control_c, 0, 64, 99
1, 268734, Note_off_c, 0, 67, 54
1, 268736, Control_c, 0, 64, 103
1, 268751, Control_c, 0, 64, 107
1, 268762, Note_off_c, 0, 55, 40
1, 268766, Control_c, 0, 64, 110
1, 268778, Note_off_c, 0, 43, 16
1, 268781, Control_c, 0, 64, 112
1, 268796, Control_c, 0, 64, 113
1, 269062, Control_c, 0, 64, 112
1, 269076, Control_c, 0, 64, 111
1, 269091, Control_c, 0, 64, 110
1, 269114, Control_c, 0, 64, 109
1, 269129, Control_c, 0, 64, 108
1, 269143, Control_c, 0, 64, 107
1, 269158, Control_c, 0, 64, 106
1, 269187, Control_c, 0, 64, 106
1, 269217, Control_c, 0, 64, 105
1, 269232, Control_c, 0, 64, 104
1, 269247, Control_c, 0, 64, 103
1, 269261, Control_c, 0, 64, 102
1, 269267, Note_off_c, 0, 31, 52
1, 269276, Control_c, 0, 64, 100
1, 269291, Control_c, 0, 64, 97
1, 269293, Note_on_c, 0, 55, 58
1, 269306, Control_c, 0, 64, 93
1, 269321, Control_c, 0, 64, 89
1, 269336, Control_c, 0, 64, 85
1, 269351, Control_c, 0, 64, 80
1, 269366, Control_c, 0, 64, 77
1, 269381, Control_c, 0, 64, 74
1, 269395, Control_c, 0, 64, 71
1, 269410, Control_c, 0, 64, 68
1, 269425, Control_c, 0, 64, 64
1, 269440, Control_c, 0, 64, 61
1, 269455, Control_c, 0, 64, 58
1, 269663, Control_c, 0, 64, 59
1, 269707, Control_c, 0, 64, 59
1, 269722, Control_c, 0, 64, 60
1, 269751, Control_c, 0, 64, 60
1, 269766, Control_c, 0, 64, 61
1, 269774, Note_on_c, 0, 35, 23
1, 269781, Control_c, 0, 64, 62
1, 269796, Control_c, 0, 64, 63
1, 269810, Control_c, 0, 64, 64
1, 269825, Control_c, 0, 64, 65
1, 269840, Control_c, 0, 64, 66
1, 269863, Control_c, 0, 64, 69
1, 269878, Control_c, 0, 64, 72
1, 269892, Control_c, 0, 64, 76
1, 269907, Control_c, 0, 64, 80
1, 269922, Control_c, 0, 64, 83
1, 269937, Control_c, 0, 64, 85
1, 269952, Control_c, 0, 64, 86
1, 269963, Note_on_c, 0, 43, 40
1, 269966, Control_c, 0, 64, 87
1, 269981, Control_c, 0, 64, 89
1, 269996, Control_c, 0, 64, 90
1, 270010, Control_c, 0, 64, 90
1, 270025, Control_c, 0, 64, 91
1, 270040, Control_c, 0, 64, 92
1, 270055, Control_c, 0, 64, 92
1, 270070, Control_c, 0, 64, 93
1, 270111, Note_off_c, 0, 43, 38
1, 270126, Note_on_c, 0, 44, 31
1, 270203, Control_c, 0, 64, 93
1, 270218, Control_c, 0, 64, 94
1, 270233, Control_c, 0, 64, 94
1, 270249, Note_off_c, 0, 44, 26
1, 270263, Control_c, 0, 64, 95
1, 270265, Note_on_c, 0, 43, 39
1, 270307, Control_c, 0, 64, 95
1, 270310, Note_on_c, 0, 50, 62
1, 270426, Note_off_c, 0, 43, 38
1, 270456, Note_on_c, 0, 44, 34
1, 270493, Note_off_c, 0, 35, 37
1, 270504, Note_off_c, 0, 44, 44
1, 270532, Note_on_c, 0, 43, 50
1, 270627, Control_c, 0, 64, 94
1, 270641, Control_c, 0, 64, 89
1, 270650, Note_on_c, 0, 36, 44
1, 270656, Note_off_c, 0, 43, 42
1, 270656, Control_c, 0, 64, 81
1, 270671, Control_c, 0, 64, 72
1, 270686, Control_c, 0, 64, 64
1, 270701, Control_c, 0, 64, 62
1, 270715, Control_c, 0, 64, 65
1, 270730, Control_c, 0, 64, 69
1, 270745, Control_c, 0, 64, 75
1, 270746, Note_on_c, 0, 43, 25
1, 270759, Control_c, 0, 64, 83
1, 270774, Control_c, 0, 64, 90
1, 270784, Note_on_c, 0, 51, 69
1, 270787, Note_off_c, 0, 50, 65
1, 270789, Control_c, 0, 64, 94
1, 270804, Control_c, 0, 64, 96
1, 270817, Note_off_c, 0, 43, 39
1, 270819, Control_c, 0, 64, 97
1, 270834, Note_on_c, 0, 44, 42
1, 270886, Note_off_c, 0, 55, 61
1, 270901, Note_off_c, 0, 44, 48
1, 270942, Note_on_c, 0, 43, 37
1, 271075, Note_on_c, 0, 44, 33
1, 271076, Note_off_c, 0, 43, 39
1, 271189, Note_on_c, 0, 63, 63
1, 271196, Note_off_c, 0, 44, 39
1, 271211, Note_off_c, 0, 36, 32
1, 271223, Note_on_c, 0, 43, 33
1, 271290, Note_off_c, 0, 51, 34
1, 271294, Control_c, 0, 64, 97
1, 271309, Control_c, 0, 64, 93
1, 271324, Control_c, 0, 64, 86
1, 271339, Control_c, 0, 64, 77
1, 271341, Note_off_c, 0, 43, 40
1, 271361, Control_c, 0, 64, 72
1, 271366, Note_on_c, 0, 36, 37
1, 271390, Control_c, 0, 64, 74
1, 271405, Control_c, 0, 64, 79
1, 271418, Note_off_c, 0, 36, 48
1, 271420, Control_c, 0, 64, 84
1, 271435, Control_c, 0, 64, 90
1, 271450, Control_c, 0, 64, 94
1, 271464, Note_on_c, 0, 44, 47
1, 271464, Control_c, 0, 64, 95
1, 271479, Control_c, 0, 64, 97
1, 271494, Control_c, 0, 64, 98
1, 271509, Control_c, 0, 64, 99
1, 271533, Note_on_c, 0, 62, 59
1, 271539, Note_off_c, 0, 44, 58
1, 271539, Control_c, 0, 64, 99
1, 271555, Note_off_c, 0, 63, 58
1, 271581, Note_on_c, 0, 51, 25
1, 271583, Control_c, 0, 64, 100
1, 271620, Note_off_c, 0, 51, 53
1, 271652, Note_on_c, 0, 44, 22
1, 271686, Control_c, 0, 64, 99
1, 271697, Note_off_c, 0, 44, 48
1, 271718, Note_on_c, 0, 51, 42
1, 271759, Note_off_c, 0, 51, 57
1, 271807, Note_on_c, 0, 44, 47
1, 271816, Note_on_c, 0, 60, 72
1, 271864, Control_c, 0, 64, 99
1, 271879, Control_c, 0, 64, 93
1, 271891, Note_off_c, 0, 44, 53
1, 271893, Control_c, 0, 64, 82
1, 271908, Control_c, 0, 64, 67
1, 271923, Control_c, 0, 64, 47
1, 271927, Note_on_c, 0, 38, 51
1, 271939, Control_c, 0, 64, 19
1, 271953, Control_c, 0, 64, 37
1, 271968, Control_c, 0, 64, 54
1, 271982, Note_off_c, 0, 38, 62
1, 271983, Control_c, 0, 64, 63
1, 271998, Control_c, 0, 64, 70
1, 272011, Note_on_c, 0, 44, 55
1, 272013, Control_c, 0, 64, 78
1, 272028, Control_c, 0, 64, 83
1, 272042, Note_off_c, 0, 62, 37
1, 272042, Control_c, 0, 64, 85
1, 272047, Note_off_c, 0, 44, 62
1, 272095, Note_on_c, 0, 53, 55
1, 272096, Note_on_c, 0, 58, 80
1, 272133, Note_off_c, 0, 60, 65
1, 272171, Note_off_c, 0, 53, 58
1, 272203, Note_on_c, 0, 46, 42
1, 272212, Control_c, 0, 64, 85
1, 272237, Note_off_c, 0, 46, 52
1, 272359, Poly_aftertouch_c, 0, 53, 127
1, 272369, Note_on_c, 0, 46, 37
1, 272406, Poly_aftertouch_c, 0, 53, 0
1, 272415, Note_on_c, 0, 61, 64
1, 272467, Note_on_c, 0, 59, 68
1, 272478, Note_off_c, 0, 58, 51
1, 272479, Control_c, 0, 64, 85
1, 272494, Control_c, 0, 64, 82
1, 272509, Control_c, 0, 64, 77
1, 272517, Note_off_c, 0, 61, 62
1, 272524, Note_off_c, 0, 46, 42
1, 272524, Control_c, 0, 64, 67
1, 272539, Control_c, 0, 64, 53
1, 272553, Control_c, 0, 64, 0
1, 272597, Control_c, 0, 64, 30
1, 272612, Control_c, 0, 64, 48
1, 272627, Control_c, 0, 64, 58
1, 272642, Control_c, 0, 64, 63
1, 272657, Control_c, 0, 64, 66
1, 272672, Control_c, 0, 64, 70
1, 272674, Poly_aftertouch_c, 0, 38, 0
1, 272686, Control_c, 0, 64, 74
1, 272691, Note_on_c, 0, 47, 42
1, 272701, Control_c, 0, 64, 78
1, 272716, Control_c, 0, 64, 81
1, 272732, Control_c, 0, 64, 82
1, 272746, Note_off_c, 0, 47, 50
1, 272747, Control_c, 0, 64, 82
1, 272752, Note_on_c, 0, 58, 68
1, 272762, Control_c, 0, 64, 83
1, 272773, Note_off_c, 0, 59, 58
1, 272778, Note_on_c, 0, 53, 45
1, 272791, Control_c, 0, 64, 83
1, 272821, Control_c, 0, 64, 84
1, 272823, Note_off_c, 0, 53, 48
1, 272835, Control_c, 0, 64, 85
1, 272858, Control_c, 0, 64, 86
1, 272870, Note_on_c, 0, 47, 44
1, 272873, Control_c, 0, 64, 87
1, 272888, Control_c, 0, 64, 87
1, 272903, Control_c, 0, 64, 88
1, 272906, Note_off_c, 0, 47, 50
1, 272917, Control_c, 0, 64, 89
1, 272932, Control_c, 0, 64, 90
1, 272935, Note_on_c, 0, 53, 49
1, 272947, Control_c, 0, 64, 90
1, 272962, Control_c, 0, 64, 91
1, 272967, Note_off_c, 0, 53, 54
1, 272991, Control_c, 0, 64, 92
1, 273011, Note_on_c, 0, 47, 48
1, 273035, Control_c, 0, 64, 92
1, 273052, Note_off_c, 0, 47, 60
1, 273086, Note_on_c, 0, 53, 57
1, 273117, Note_off_c, 0, 53, 67
1, 273169, Control_c, 0, 64, 91
1, 273184, Control_c, 0, 64, 85
1, 273184, Note_on_c, 0, 39, 46
1, 273189, Note_on_c, 0, 53, 58
1, 273199, Control_c, 0, 64, 76
1, 273214, Control_c, 0, 64, 65
1, 273228, Control_c, 0, 64, 41
1, 273243, Control_c, 0, 64, 0
1, 273273, Control_c, 0, 64, 38
1, 273288, Control_c, 0, 64, 56
1, 273302, Control_c, 0, 64, 62
1, 273303, Note_off_c, 0, 39, 52
1, 273317, Control_c, 0, 64, 66
1, 273332, Control_c, 0, 64, 71
1, 273346, Control_c, 0, 64, 76
1, 273350, Note_on_c, 0, 46, 38
1, 273361, Control_c, 0, 64, 81
1, 273375, Note_off_c, 0, 53, 57
1, 273376, Control_c, 0, 64, 85
1, 273384, Note_on_c, 0, 54, 63
1, 273391, Control_c, 0, 64, 88
1, 273406, Control_c, 0, 64, 90
1, 273409, Note_off_c, 0, 46, 61
1, 273412, Note_off_c, 0, 54, 65
1, 273420, Control_c, 0, 64, 91
1, 273425, Note_off_c, 0, 58, 41
1, 273473, Note_on_c, 0, 54, 40
1, 273511, Note_off_c, 0, 54, 54
1, 273540, Note_on_c, 0, 46, 47
1, 273578, Note_off_c, 0, 46, 65
1, 273646, Note_on_c, 0, 54, 33
1, 273694, Note_off_c, 0, 54, 49
1, 273742, Note_on_c, 0, 46, 39
1, 273751, Note_on_c, 0, 70, 75
1, 273858, Control_c, 0, 64, 86
1, 273873, Control_c, 0, 64, 78
1, 273888, Control_c, 0, 64, 67
1, 273903, Control_c, 0, 64, 51
1, 273918, Control_c, 0, 64, 43
1, 273923, Note_on_c, 0, 39, 49
1, 273929, Note_off_c, 0, 46, 59
1, 273933, Control_c, 0, 64, 54
1, 273948, Control_c, 0, 64, 62
1, 273963, Control_c, 0, 64, 66
1, 273977, Control_c, 0, 64, 72
1, 273992, Control_c, 0, 64, 80
1, 274007, Control_c, 0, 64, 86
1, 274018, Note_off_c, 0, 39, 59
1, 274022, Control_c, 0, 64, 92
1, 274034, Note_on_c, 0, 47, 51
1, 274037, Control_c, 0, 64, 94
1, 274052, Control_c, 0, 64, 97
1, 274066, Control_c, 0, 64, 99
1, 274081, Control_c, 0, 64, 101
1, 274094, Note_off_c, 0, 47, 60
1, 274096, Control_c, 0, 64, 102
1, 274138, Note_on_c, 0, 68, 79
1, 274141, Control_c, 0, 64, 102
1, 274144, Note_on_c, 0, 54, 52
1, 274156, Control_c, 0, 64, 103
1, 274221, Note_off_c, 0, 54, 57
1, 274227, Note_on_c, 0, 47, 53
1, 274270, Note_off_c, 0, 47, 62
1, 274317, Note_on_c, 0, 54, 51
1, 274368, Note_off_c, 0, 54, 58
1, 274422, Note_on_c, 0, 48, 55
1, 274425, Note_on_c, 0, 66, 78
1, 274475, Control_c, 0, 64, 99
1, 274482, Note_off_c, 0, 48, 58
1, 274490, Control_c, 0, 64, 89
1, 274505, Control_c, 0, 64, 76
1, 274520, Control_c, 0, 64, 61
1, 274530, Note_on_c, 0, 45, 44
1, 274534, Control_c, 0, 64, 0
1, 274564, Control_c, 0, 64, 25
1, 274566, Note_off_c, 0, 45, 64
1, 274579, Control_c, 0, 64, 56
1, 274594, Control_c, 0, 64, 65
1, 274608, Control_c, 0, 64, 72
1, 274615, Note_on_c, 0, 51, 58
1, 274623, Control_c, 0, 64, 81
1, 274629, Note_off_c, 0, 68, 59
1, 274638, Control_c, 0, 64, 87
1, 274653, Control_c, 0, 64, 90
1, 274663, Note_off_c, 0, 70, 35
1, 274668, Control_c, 0, 64, 91
1, 274674, Note_off_c, 0, 51, 56
1, 274695, Note_off_c, 0, 66, 62
1, 274702, Note_on_c, 0, 60, 60
1, 274711, Note_on_c, 0, 65, 72
1, 274756, Control_c, 0, 64, 90
1, 274760, Note_off_c, 0, 60, 43
1, 274771, Control_c, 0, 64, 85
1, 274786, Control_c, 0, 64, 77
1, 274793, Note_on_c, 0, 51, 54
1, 274800, Control_c, 0, 64, 68
1, 274815, Control_c, 0, 64, 65
1, 274826, Note_off_c, 0, 51, 62
1, 274830, Control_c, 0, 64, 70
1, 274845, Control_c, 0, 64, 80
1, 274860, Control_c, 0, 64, 97
1, 274870, Note_on_c, 0, 60, 53
1, 274874, Control_c, 0, 64, 115
1, 274889, Control_c, 0, 64, 127
1, 274925, Note_off_c, 0, 60, 50
1, 274955, Note_on_c, 0, 51, 39
1, 274984, Note_on_c, 0, 68, 61
1, 275000, Note_off_c, 0, 65, 54
1, 275042, Note_on_c, 0, 66, 65
1, 275053, Control_c, 0, 64, 94
1, 275068, Control_c, 0, 64, 72
1, 275068, Note_off_c, 0, 68, 58
1, 275077, Note_off_c, 0, 51, 60
1, 275082, Control_c, 0, 64, 38
1, 275104, Control_c, 0, 64, 0
1, 275119, Control_c, 0, 64, 47
1, 275130, Note_on_c, 0, 45, 43
1, 275135, Control_c, 0, 64, 63
1, 275150, Control_c, 0, 64, 72
1, 275165, Control_c, 0, 64, 84
1, 275179, Control_c, 0, 64, 95
1, 275182, Note_off_c, 0, 45, 63
1, 275194, Control_c, 0, 64, 101
1, 275209, Control_c, 0, 64, 102
1, 275223, Control_c, 0, 64, 104
1, 275229, Note_on_c, 0, 53, 52
1, 275238, Control_c, 0, 64, 111
1, 275253, Control_c, 0, 64, 127
1, 275313, Control_c, 0, 64, 108
1, 275314, Note_off_c, 0, 66, 60
1, 275316, Note_off_c, 0, 53, 51
1, 275327, Control_c, 0, 64, 90
1, 275335, Note_on_c, 0, 65, 62
1, 275342, Control_c, 0, 64, 74
1, 275348, Note_on_c, 0, 60, 33
1, 275357, Control_c, 0, 64, 68
1, 275372, Control_c, 0, 64, 69
1, 275387, Control_c, 0, 64, 74
1, 275402, Control_c, 0, 64, 80
1, 275417, Control_c, 0, 64, 86
1, 275445, Control_c, 0, 64, 85
1, 275447, Note_on_c, 0, 53, 42
1, 275450, Note_off_c, 0, 60, 43
1, 275460, Control_c, 0, 64, 83
1, 275475, Control_c, 0, 64, 83
1, 275479, Note_off_c, 0, 53, 60
1, 275504, Control_c, 0, 64, 84
1, 275519, Control_c, 0, 64, 87
1, 275534, Control_c, 0, 64, 90
1, 275548, Control_c, 0, 64, 92
1, 275563, Note_on_c, 0, 60, 27
1, 275563, Control_c, 0, 64, 93
1, 275578, Control_c, 0, 64, 93
1, 275608, Control_c, 0, 64, 94
1, 275623, Control_c, 0, 64, 94
1, 275628, Note_off_c, 0, 60, 43
1, 275637, Control_c, 0, 64, 95
1, 275667, Control_c, 0, 64, 95
1, 275685, Note_on_c, 0, 54, 39
1, 275700, Note_on_c, 0, 63, 53
1, 275736, Note_off_c, 0, 63, 65
1, 275934, Note_on_c, 0, 46, 31
1, 275982, Note_off_c, 0, 65, 50
1, 275983, Note_off_c, 0, 54, 39
1, 275984, Note_on_c, 0, 63, 51
1, 276001, Control_c, 0, 64, 95
1, 276016, Control_c, 0, 64, 90
1, 276031, Control_c, 0, 64, 82
1, 276046, Control_c, 0, 64, 71
1, 276061, Control_c, 0, 64, 58
1, 276076, Control_c, 0, 64, 37
1, 276091, Control_c, 0, 64, 42
1, 276105, Control_c, 0, 64, 54
1, 276120, Control_c, 0, 64, 61
1, 276135, Control_c, 0, 64, 65
1, 276150, Control_c, 0, 64, 70
1, 276158, Note_on_c, 0, 53, 38
1, 276161, Note_off_c, 0, 46, 45
1, 276165, Control_c, 0, 64, 75
1, 276179, Control_c, 0, 64, 80
1, 276194, Control_c, 0, 64, 83
1, 276209, Note_off_c, 0, 63, 52
1, 276209, Control_c, 0, 64, 85
1, 276224, Note_on_c, 0, 62, 41
1, 276224, Control_c, 0, 64, 86
1, 276225, Note_off_c, 0, 53, 60
1, 276239, Control_c, 0, 64, 87
1, 276253, Control_c, 0, 64, 88
1, 276254, Note_on_c, 0, 56, 45
1, 276261, Note_off_c, 0, 62, 64
1, 276268, Control_c, 0, 64, 88
1, 276283, Control_c, 0, 64, 89
1, 276298, Control_c, 0, 64, 89
1, 276300, Note_off_c, 0, 56, 62
1, 276313, Control_c, 0, 64, 90
1, 276327, Control_c, 0, 64, 90
1, 276342, Control_c, 0, 64, 91
1, 276371, Control_c, 0, 64, 91
1, 276399, Poly_aftertouch_c, 0, 59, 127
1, 276447, Poly_aftertouch_c, 0, 59, 0
1, 276463, Poly_aftertouch_c, 0, 56, 127
1, 276485, Note_on_c, 0, 53, 49
1, 276500, Poly_aftertouch_c, 0, 56, 0
1, 276604, Note_on_c, 0, 71, 53
1, 276605, Note_on_c, 0, 68, 40
1, 276649, Note_off_c, 0, 53, 0
1, 276711, Poly_aftertouch_c, 0, 53, 0
1, 276750, Control_c, 0, 64, 91
1, 276758, Note_on_c, 0, 46, 36
1, 276765, Control_c, 0, 64, 86
1, 276780, Control_c, 0, 64, 80
1, 276782, Note_off_c, 0, 68, 61
1, 276795, Control_c, 0, 64, 71
1, 276809, Note_on_c, 0, 70, 62
1, 276809, Control_c, 0, 64, 62
1, 276824, Note_on_c, 0, 66, 42
1, 276824, Control_c, 0, 64, 54
1, 276839, Control_c, 0, 64, 57
1, 276854, Control_c, 0, 64, 62
1, 276869, Note_off_c, 0, 71, 53
1, 276869, Control_c, 0, 64, 65
1, 276883, Control_c, 0, 64, 69
1, 276898, Control_c, 0, 64, 74
1, 276910, Note_off_c, 0, 46, 58
1, 276913, Control_c, 0, 64, 79
1, 276929, Control_c, 0, 64, 82
1, 276944, Control_c, 0, 64, 85
1, 276950, Note_on_c, 0, 54, 45
1, 276958, Control_c, 0, 64, 87
1, 276970, Note_off_c, 0, 66, 52
1, 276973, Control_c, 0, 64, 88
1, 276980, Note_on_c, 0, 68, 71
1, 276997, Note_on_c, 0, 65, 39
1, 277003, Control_c, 0, 64, 88
1, 277004, Note_off_c, 0, 54, 54
1, 277021, Note_off_c, 0, 70, 58
1, 277030, Note_off_c, 0, 65, 50
1, 277032, Control_c, 0, 64, 89
1, 277040, Note_on_c, 0, 57, 45
1, 277047, Control_c, 0, 64, 89
1, 277062, Control_c, 0, 64, 90
1, 277070, Note_off_c, 0, 57, 54
1, 277092, Note_off_c, 0, 68, 64
1, 277101, Note_on_c, 0, 60, 41
1, 277105, Note_on_c, 0, 66, 64
1, 277107, Control_c, 0, 64, 90
1, 277115, Note_on_c, 0, 63, 61
1, 277137, Control_c, 0, 64, 91
1, 277158, Note_off_c, 0, 60, 43
1, 277166, Control_c, 0, 64, 91
1, 277181, Control_c, 0, 64, 92
1, 277182, Note_off_c, 0, 63, 55
1, 277195, Control_c, 0, 64, 92
1, 277206, Note_on_c, 0, 54, 55
1, 277210, Control_c, 0, 64, 93
1, 277225, Control_c, 0, 64, 93
1, 277238, Note_on_c, 0, 75, 65
1, 277239, Note_off_c, 0, 66, 61
1, 277240, Note_on_c, 0, 72, 50
1, 277240, Control_c, 0, 64, 94
1, 277243, Poly_aftertouch_c, 0, 57, 0
1, 277244, Note_off_c, 0, 54, 62
1, 277269, Control_c, 0, 64, 94
1, 277280, Note_off_c, 0, 72, 46
1, 277284, Control_c, 0, 64, 95
1, 277292, Note_off_c, 0, 75, 60
1, 277299, Control_c, 0, 64, 95
1, 277398, Note_on_c, 0, 46, 36
1, 277410, Control_c, 0, 64, 95
1, 277425, Control_c, 0, 64, 88
1, 277440, Note_on_c, 0, 70, 56
1, 277440, Control_c, 0, 64, 79
1, 277441, Note_on_c, 0, 74, 63
1, 277455, Control_c, 0, 64, 68
1, 277470, Control_c, 0, 64, 55
1, 277484, Control_c, 0, 64, 45
1, 277499, Control_c, 0, 64, 53
1, 277514, Control_c, 0, 64, 62
1, 277530, Control_c, 0, 64, 66
1, 277545, Control_c, 0, 64, 72
1, 277548, Note_off_c, 0, 74, 62
1, 277560, Control_c, 0, 64, 78
1, 277574, Control_c, 0, 64, 83
1, 277581, Note_on_c, 0, 53, 39
1, 277584, Note_on_c, 0, 65, 56
1, 277584, Note_off_c, 0, 46, 40
1, 277589, Control_c, 0, 64, 86
1, 277597, Note_off_c, 0, 70, 63
1, 277604, Control_c, 0, 64, 88
1, 277611, Note_on_c, 0, 62, 48
1, 277617, Note_off_c, 0, 65, 64
1, 277619, Control_c, 0, 64, 89
1, 277623, Note_off_c, 0, 53, 62
1, 277638, Note_off_c, 0, 62, 57
1, 277648, Control_c, 0, 64, 90
1, 277650, Note_on_c, 0, 56, 49
1, 277695, Note_off_c, 0, 56, 46
1, 277737, Note_on_c, 0, 59, 35
1, 277737, Control_c, 0, 64, 90
1, 277793, Note_off_c, 0, 59, 44
1, 277816, Note_on_c, 0, 53, 44
1, 277849, Note_on_c, 0, 71, 69
1, 277852, Note_on_c, 0, 68, 60
1, 277930, Control_c, 0, 64, 90
1, 277944, Note_off_c, 0, 53, 38
1, 277944, Control_c, 0, 64, 89
1, 277959, Control_c, 0, 64, 84
1, 277974, Control_c, 0, 64, 75
1, 277989, Control_c, 0, 64, 64
1, 277992, Note_on_c, 0, 70, 74
1, 278001, Note_on_c, 0, 46, 40
1, 278004, Control_c, 0, 64, 48
1, 278008, Note_off_c, 0, 68, 58
1, 278014, Note_on_c, 0, 66, 64
1, 278018, Control_c, 0, 64, 41
1, 278033, Control_c, 0, 64, 47
1, 278048, Control_c, 0, 64, 55
1, 278063, Control_c, 0, 64, 61
1, 278070, Note_off_c, 0, 71, 60
1, 278078, Control_c, 0, 64, 65
1, 278085, Note_off_c, 0, 46, 58
1, 278100, Control_c, 0, 64, 70
1, 278115, Control_c, 0, 64, 75
1, 278129, Control_c, 0, 64, 80
1, 278130, Note_on_c, 0, 68, 74
1, 278132, Note_off_c, 0, 66, 63
1, 278135, Note_on_c, 0, 54, 46
1, 278144, Control_c, 0, 64, 84
1, 278147, Note_on_c, 0, 65, 41
1, 278159, Control_c, 0, 64, 88
1, 278174, Control_c, 0, 64, 92
1, 278178, Note_off_c, 0, 65, 53
1, 278189, Control_c, 0, 64, 95
1, 278191, Note_off_c, 0, 70, 58
1, 278193, Note_off_c, 0, 54, 45
1, 278201, Note_on_c, 0, 57, 49
1, 278204, Control_c, 0, 64, 96
1, 278218, Control_c, 0, 64, 99
1, 278233, Control_c, 0, 64, 102
1, 278238, Note_off_c, 0, 57, 62
1, 278248, Control_c, 0, 64, 106
1, 278261, Note_on_c, 0, 60, 57
1, 278261, Note_off_c, 0, 68, 65
1, 278261, Note_on_c, 0, 66, 78
1, 278263, Control_c, 0, 64, 112
1, 278264, Note_on_c, 0, 63, 71
1, 278278, Control_c, 0, 64, 120
1, 278293, Control_c, 0, 64, 127
1, 278306, Note_off_c, 0, 60, 56
1, 278339, Note_off_c, 0, 63, 59
1, 278370, Note_on_c, 0, 54, 57
1, 278380, Note_on_c, 0, 72, 72
1, 278386, Note_on_c, 0, 75, 75
1, 278395, Note_off_c, 0, 66, 62
1, 278399, Note_off_c, 0, 54, 65
1, 278454, Note_off_c, 0, 72, 56
1, 278459, Note_off_c, 0, 75, 61
1, 278509, Note_on_c, 0, 46, 51
1, 278545, Control_c, 0, 64, 100
1, 278555, Note_on_c, 0, 74, 77
1, 278560, Control_c, 0, 64, 78
1, 278562, Note_on_c, 0, 70, 74
1, 278574, Control_c, 0, 64, 62
1, 278589, Control_c, 0, 64, 13
1, 278619, Control_c, 0, 64, 48
1, 278634, Control_c, 0, 64, 62
1, 278648, Control_c, 0, 64, 69
1, 278660, Note_off_c, 0, 46, 62
1, 278663, Control_c, 0, 64, 82
1, 278677, Note_off_c, 0, 74, 63
1, 278678, Control_c, 0, 64, 94
1, 278681, Note_on_c, 0, 53, 53
1, 278693, Control_c, 0, 64, 102
1, 278694, Note_on_c, 0, 65, 67
1, 278703, Note_on_c, 0, 62, 65
1, 278708, Control_c, 0, 64, 106
1, 278723, Control_c, 0, 64, 109
1, 278727, Note_off_c, 0, 65, 66
1, 278733, Note_off_c, 0, 62, 66
1, 278738, Control_c, 0, 64, 112
1, 278741, Note_on_c, 0, 58, 60
1, 278745, Note_off_c, 0, 70, 59
1, 278752, Control_c, 0, 64, 116
1, 278756, Note_off_c, 0, 53, 46
1, 278767, Control_c, 0, 64, 120
1, 278782, Control_c, 0, 64, 125
1, 278797, Control_c, 0, 64, 127
1, 278810, Note_off_c, 0, 58, 53
1, 278819, Note_on_c, 0, 62, 52
1, 278891, Note_off_c, 0, 62, 42
1, 278929, Note_on_c, 0, 58, 49
1, 278958, Note_off_c, 0, 58, 57
1, 278967, Note_on_c, 0, 78, 79
1, 278971, Note_on_c, 0, 75, 63
1, 278984, Note_on_c, 0, 53, 59
1, 278998, Note_off_c, 0, 75, 65
1, 279035, Note_off_c, 0, 78, 64
1, 279097, Note_off_c, 0, 53, 61
1, 279116, Control_c, 0, 64, 122
1, 279131, Control_c, 0, 64, 104
1, 279140, Note_on_c, 0, 77, 75
1, 279141, Note_on_c, 0, 46, 56
1, 279141, Note_on_c, 0, 74, 70
1, 279146, Control_c, 0, 64, 86
1, 279161, Control_c, 0, 64, 71
1, 279176, Control_c, 0, 64, 56
1, 279190, Control_c, 0, 64, 45
1, 279205, Control_c, 0, 64, 53
1, 279220, Control_c, 0, 64, 62
1, 279235, Control_c, 0, 64, 69
1, 279238, Note_off_c, 0, 46, 63
1, 279250, Control_c, 0, 64, 77
1, 279264, Note_off_c, 0, 77, 58
1, 279265, Control_c, 0, 64, 88
1, 279271, Note_on_c, 0, 53, 23
1, 279279, Control_c, 0, 64, 95
1, 279289, Note_on_c, 0, 65, 64
1, 279292, Note_on_c, 0, 70, 57
1, 279294, Note_off_c, 0, 74, 65
1, 279294, Control_c, 0, 64, 97
1, 279309, Control_c, 0, 64, 98
1, 279313, Note_on_c, 0, 58, 62
1, 279321, Note_off_c, 0, 65, 63
1, 279322, Note_off_c, 0, 53, 49
1, 279323, Note_off_c, 0, 70, 66
1, 279368, Control_c, 0, 64, 98
1, 279381, Note_off_c, 0, 58, 60
1, 279421, Note_on_c, 0, 62, 44
1, 279487, Note_off_c, 0, 62, 55
1, 279509, Note_on_c, 0, 58, 49
1, 279554, Note_off_c, 0, 58, 57
1, 279604, Note_on_c, 0, 53, 53
1, 279604, Note_on_c, 0, 82, 71
1, 279609, Note_on_c, 0, 78, 69
1, 279627, Control_c, 0, 64, 99
1, 279667, Note_off_c, 0, 78, 49
1, 279699, Note_off_c, 0, 82, 58
1, 279745, Control_c, 0, 64, 99
1, 279775, Poly_aftertouch_c, 0, 78, 127
1, 279814, Note_off_c, 0, 53, 54
1, 279849, Note_on_c, 0, 46, 49
1, 279849, Control_c, 0, 64, 98
1, 279864, Control_c, 0, 64, 89
1, 279864, Note_on_c, 0, 77, 63
1, 279866, Note_on_c, 0, 82, 77
1, 279879, Control_c, 0, 64, 77
1, 279894, Control_c, 0, 64, 62
1, 279897, Poly_aftertouch_c, 0, 78, 0
1, 279909, Control_c, 0, 64, 46
1, 279924, Control_c, 0, 64, 50
1, 279938, Control_c, 0, 64, 59
1, 279953, Control_c, 0, 64, 65
1, 279968, Control_c, 0, 64, 73
1, 279983, Note_off_c, 0, 46, 56
1, 279983, Control_c, 0, 64, 85
1, 279987, Note_off_c, 0, 82, 60
1, 279998, Control_c, 0, 64, 99
1, 280000, Note_on_c, 0, 53, 51
1, 280012, Control_c, 0, 64, 104
1, 280027, Control_c, 0, 64, 105
1, 280077, Note_off_c, 0, 53, 60
1, 280103, Note_on_c, 0, 82, 72
1, 280104, Note_on_c, 0, 70, 58
1, 280112, Note_on_c, 0, 58, 52
1, 280116, Control_c, 0, 64, 106
1, 280122, Note_off_c, 0, 77, 60
1, 280131, Note_off_c, 0, 70, 63
1, 280139, Note_off_c, 0, 82, 61
1, 280145, Control_c, 0, 64, 106
1, 280167, Note_off_c, 0, 58, 58
1, 280175, Control_c, 0, 64, 107
1, 280219, Control_c, 0, 64, 107
1, 280234, Control_c, 0, 64, 108
1, 280238, Note_on_c, 0, 62, 34
1, 280287, Note_off_c, 0, 62, 47
1, 280308, Control_c, 0, 64, 108
1, 280329, Note_on_c, 0, 58, 45
1, 280378, Note_off_c, 0, 58, 55
1, 280458, Note_on_c, 0, 53, 31
1, 280461, Note_on_c, 0, 82, 55
1, 280473, Note_on_c, 0, 70, 44
1, 280621, Note_on_c, 0, 46, 44
1, 280621, Note_off_c, 0, 53, 45
1, 280654, Note_off_c, 0, 82, 59
1, 280672, Note_off_c, 0, 70, 38
1, 280687, Control_c, 0, 67, 8
1, 280690, Note_off_c, 0, 46, 57
1, 280702, Control_c, 0, 67, 9
1, 280717, Control_c, 0, 67, 10
1, 280732, Control_c, 0, 67, 11
1, 280747, Note_on_c, 0, 53, 41
1, 280747, Control_c, 0, 67, 12
1, 280762, Control_c, 0, 67, 13
1, 280777, Control_c, 0, 67, 13
1, 280791, Control_c, 0, 67, 14
1, 280806, Control_c, 0, 67, 14
1, 280821, Control_c, 0, 67, 15
1, 280836, Control_c, 0, 67, 15
1, 280851, Control_c, 0, 67, 16
1, 280866, Control_c, 0, 67, 18
1, 280881, Control_c, 0, 67, 19
1, 280891, Note_on_c, 0, 82, 52
1, 280893, Note_off_c, 0, 53, 36
1, 280895, Note_on_c, 0, 70, 44
1, 280896, Note_on_c, 0, 58, 37
1, 280896, Control_c, 0, 67, 20
1, 280910, Control_c, 0, 67, 21
1, 280925, Control_c, 0, 67, 23
1, 280940, Control_c, 0, 67, 23
1, 280955, Control_c, 0, 67, 24
1, 280969, Control_c, 0, 67, 25
1, 280984, Control_c, 0, 67, 26
1, 280999, Control_c, 0, 67, 28
1, 281014, Control_c, 0, 67, 31
1, 281029, Control_c, 0, 67, 33
1, 281034, Note_off_c, 0, 58, 42
1, 281040, Note_off_c, 0, 70, 50
1, 281043, Control_c, 0, 67, 35
1, 281048, Note_off_c, 0, 82, 57
1, 281058, Note_on_c, 0, 62, 39
1, 281058, Control_c, 0, 67, 37
1, 281073, Control_c, 0, 67, 39
1, 281095, Control_c, 0, 67, 40
1, 281110, Control_c, 0, 67, 41
1, 281125, Control_c, 0, 67, 41
1, 281140, Control_c, 0, 67, 42
1, 281155, Control_c, 0, 67, 42
1, 281169, Control_c, 0, 67, 43
1, 281184, Control_c, 0, 67, 44
1, 281199, Control_c, 0, 67, 46
1, 281214, Control_c, 0, 67, 48
1, 281229, Control_c, 0, 67, 51
1, 281240, Note_on_c, 0, 58, 41
1, 281243, Control_c, 0, 67, 54
1, 281247, Note_off_c, 0, 62, 40
1, 281258, Control_c, 0, 67, 56
1, 281273, Control_c, 0, 67, 59
1, 281288, Control_c, 0, 67, 62
1, 281303, Control_c, 0, 67, 64
1, 281317, Control_c, 0, 67, 66
1, 281332, Control_c, 0, 67, 67
1, 281347, Control_c, 0, 67, 69
1, 281362, Control_c, 0, 67, 71
1, 281376, Control_c, 0, 67, 72
1, 281391, Control_c, 0, 67, 74
1, 281406, Control_c, 0, 67, 75
1, 281420, Control_c, 0, 67, 76
1, 281435, Control_c, 0, 67, 77
1, 281450, Control_c, 0, 67, 77
1, 281470, Note_off_c, 0, 58, 46
1, 281504, Note_on_c, 0, 53, 39
1, 281543, Note_on_c, 0, 82, 54
1, 281552, Note_on_c, 0, 70, 38
1, 281554, Note_off_c, 0, 53, 59
1, 281582, Note_off_c, 0, 70, 53
1, 281612, Note_off_c, 0, 82, 63
1, 281873, Control_c, 0, 64, 108
1, 281932, Control_c, 0, 64, 107
1, 281977, Control_c, 0, 64, 107
1, 282036, Control_c, 0, 64, 106
1, 282070, Note_on_c, 0, 42, 39
1, 282080, Control_c, 0, 64, 106
1, 282095, Control_c, 0, 64, 105
1, 282110, Control_c, 0, 64, 101
1, 282110, Control_c, 0, 67, 77
1, 282124, Control_c, 0, 64, 94
1, 282136, Note_on_c, 0, 82, 61
1, 282139, Control_c, 0, 64, 83
1, 282149, Note_on_c, 0, 78, 45
1, 282154, Control_c, 0, 64, 71
1, 282169, Control_c, 0, 64, 59
1, 282183, Control_c, 0, 64, 10
1, 282183, Control_c, 0, 67, 76
1, 282198, Control_c, 0, 64, 0
1, 282213, Control_c, 0, 67, 76
1, 282228, Control_c, 0, 64, 35
1, 282243, Control_c, 0, 64, 50
1, 282243, Control_c, 0, 67, 75
1, 282258, Control_c, 0, 64, 60
1, 282272, Control_c, 0, 64, 67
1, 282272, Control_c, 0, 67, 75
1, 282287, Control_c, 0, 64, 75
1, 282302, Control_c, 0, 64, 84
1, 282318, Control_c, 0, 64, 93
1, 282327, Note_off_c, 0, 42, 55
1, 282333, Control_c, 0, 64, 99
1, 282347, Control_c, 0, 64, 103
1, 282362, Control_c, 0, 64, 105
1, 282362, Control_c, 0, 67, 74
1, 282377, Control_c, 0, 64, 107
1, 282392, Control_c, 0, 64, 107
1, 282436, Control_c, 0, 67, 75
1, 282451, Control_c, 0, 64, 108
1, 282466, Control_c, 0, 64, 109
1, 282466, Control_c, 0, 67, 75
1, 282481, Control_c, 0, 64, 110
1, 282495, Control_c, 0, 64, 110
1, 282525, Control_c, 0, 67, 76
1, 282561, Note_on_c, 0, 61, 37
1, 282687, Note_off_c, 0, 78, 55
1, 282702, Note_off_c, 0, 82, 36
1, 282707, Note_on_c, 0, 83, 64
1, 282719, Note_off_c, 0, 61, 41
1, 282729, Note_on_c, 0, 73, 44
1, 282784, Note_on_c, 0, 54, 32
1, 282851, Note_off_c, 0, 73, 28
1, 282920, Note_on_c, 0, 49, 45
1, 282954, Note_off_c, 0, 83, 61
1, 282963, Note_on_c, 0, 84, 71
1, 282975, Note_off_c, 0, 54, 43
1, 282981, Note_off_c, 0, 49, 51
1, 283026, Note_on_c, 0, 61, 42
1, 283082, Note_off_c, 0, 61, 47
1, 283125, Note_on_c, 0, 85, 78
1, 283134, Note_on_c, 0, 54, 48
1, 283139, Note_off_c, 0, 84, 63
1, 283147, Note_on_c, 0, 73, 33
1, 283162, Note_off_c, 0, 54, 63
1, 283179, Note_off_c, 0, 73, 52
1, 283244, Control_c, 0, 64, 105
1, 283259, Control_c, 0, 64, 92
1, 283274, Control_c, 0, 64, 78
1, 283277, Note_on_c, 0, 44, 54
1, 283289, Control_c, 0, 64, 65
1, 283296, Note_off_c, 0, 85, 64
1, 283299, Note_on_c, 0, 87, 76
1, 283304, Control_c, 0, 64, 58
1, 283318, Control_c, 0, 64, 60
1, 283320, Note_off_c, 0, 44, 62
1, 283337, Note_on_c, 0, 77, 47
1, 283340, Control_c, 0, 64, 65
1, 283355, Control_c, 0, 64, 71
1, 283370, Control_c, 0, 64, 82
1, 283385, Control_c, 0, 64, 96
1, 283400, Control_c, 0, 64, 108
1, 283415, Control_c, 0, 64, 112
1, 283430, Control_c, 0, 64, 112
1, 283460, Note_on_c, 0, 61, 42
1, 283489, Note_off_c, 0, 77, 46
1, 283516, Note_on_c, 0, 83, 49
1, 283519, Note_off_c, 0, 61, 44
1, 283528, Note_on_c, 0, 85, 70
1, 283540, Note_off_c, 0, 83, 61
1, 283548, Control_c, 0, 64, 113
1, 283554, Note_off_c, 0, 87, 60
1, 283570, Note_off_c, 0, 85, 63
1, 283576, Note_on_c, 0, 53, 44
1, 283625, Note_on_c, 0, 83, 63
1, 283775, Note_off_c, 0, 53, 18
1, 283816, Note_on_c, 0, 49, 43
1, 283892, Note_on_c, 0, 94, 73
1, 283993, Control_c, 0, 64, 114
1, 283994, Note_on_c, 0, 61, 45
1, 284008, Control_c, 0, 64, 115
1, 284023, Control_c, 0, 64, 116
1, 284038, Control_c, 0, 64, 116
1, 284053, Control_c, 0, 64, 117
1, 284067, Control_c, 0, 64, 118
1, 284086, Note_off_c, 0, 94, 57
1, 284101, Note_off_c, 0, 83, 46
1, 284136, Note_off_c, 0, 61, 35
1, 284139, Note_off_c, 0, 49, 52
1, 284144, Note_on_c, 0, 53, 48
1, 284171, Note_off_c, 0, 53, 58
1, 284193, Control_c, 0, 64, 117
1, 284196, Note_on_c, 0, 92, 72
1, 284208, Control_c, 0, 64, 110
1, 284209, Note_on_c, 0, 85, 54
1, 284223, Note_off_c, 0, 92, 67
1, 284223, Control_c, 0, 64, 97
1, 284228, Note_off_c, 0, 85, 61
1, 284238, Control_c, 0, 64, 83
1, 284253, Control_c, 0, 64, 70
1, 284267, Control_c, 0, 64, 59
1, 284270, Note_on_c, 0, 46, 49
1, 284282, Note_on_c, 0, 92, 76
1, 284282, Control_c, 0, 64, 61
1, 284296, Note_on_c, 0, 82, 60
1, 284297, Control_c, 0, 64, 67
1, 284306, Note_off_c, 0, 46, 57
1, 284312, Control_c, 0, 64, 75
1, 284327, Control_c, 0, 64, 87
1, 284342, Control_c, 0, 64, 103
1, 284357, Control_c, 0, 64, 122
1, 284371, Control_c, 0, 64, 127
1, 284414, Note_off_c, 0, 82, 0
1, 284440, Note_on_c, 0, 82, 8
1, 284482, Note_on_c, 0, 61, 41
1, 284566, Note_off_c, 0, 61, 47
1, 284566, Note_off_c, 0, 82, 36
1, 284573, Note_off_c, 0, 92, 63
1, 284589, Note_on_c, 0, 90, 72
1, 284614, Note_on_c, 0, 85, 46
1, 284643, Note_on_c, 0, 54, 40
1, 284727, Control_c, 0, 64, 119
1, 284742, Control_c, 0, 64, 99
1, 284757, Control_c, 0, 64, 85
1, 284772, Control_c, 0, 64, 74
1, 284781, Note_on_c, 0, 46, 50
1, 284787, Control_c, 0, 64, 70
1, 284797, Note_off_c, 0, 85, 62
1, 284802, Control_c, 0, 64, 70
1, 284804, Note_off_c, 0, 54, 60
1, 284810, Note_off_c, 0, 90, 63
1, 284814, Note_off_c, 0, 46, 63
1, 284816, Control_c, 0, 64, 74
1, 284819, Note_on_c, 0, 89, 69
1, 284839, Control_c, 0, 64, 81
1, 284839, Control_c, 0, 67, 75
1, 284842, Note_on_c, 0, 80, 55
1, 284854, Control_c, 0, 64, 91
1, 284869, Control_c, 0, 64, 100
1, 284872, Note_off_c, 0, 80, 57
1, 284884, Control_c, 0, 64, 106
1, 284898, Control_c, 0, 64, 109
1, 284898, Control_c, 0, 67, 75
1, 284913, Control_c, 0, 64, 109
1, 284942, Control_c, 0, 67, 74
1, 284961, Note_off_c, 0, 89, 36
1, 284963, Note_on_c, 0, 62, 48
1, 284971, Note_on_c, 0, 87, 74
1, 284980, Note_on_c, 0, 78, 55
1, 285000, Note_off_c, 0, 78, 63
1, 285006, Note_off_c, 0, 62, 48
1, 285068, Note_on_c, 0, 56, 46
1, 285072, Note_off_c, 0, 87, 60
1, 285074, Note_on_c, 0, 77, 49
1, 285074, Note_on_c, 0, 86, 66
1, 285090, Control_c, 0, 64, 109
1, 285096, Note_off_c, 0, 56, 57
1, 285098, Note_off_c, 0, 77, 60
1, 285105, Control_c, 0, 64, 104
1, 285120, Control_c, 0, 64, 92
1, 285135, Control_c, 0, 64, 79
1, 285141, Note_off_c, 0, 86, 63
1, 285149, Control_c, 0, 64, 66
1, 285164, Control_c, 0, 64, 55
1, 285174, Note_on_c, 0, 89, 59
1, 285176, Note_on_c, 0, 51, 42
1, 285179, Control_c, 0, 64, 58
1, 285182, Note_on_c, 0, 80, 54
1, 285194, Control_c, 0, 64, 65
1, 285209, Control_c, 0, 64, 73
1, 285212, Note_off_c, 0, 51, 62
1, 285224, Note_off_c, 0, 80, 60
1, 285224, Control_c, 0, 64, 89
1, 285233, Note_off_c, 0, 89, 61
1, 285239, Control_c, 0, 64, 110
1, 285239, Control_c, 0, 67, 75
1, 285254, Control_c, 0, 64, 127
1, 285304, Note_on_c, 0, 66, 42
1, 285357, Note_off_c, 0, 66, 57
1, 285372, Control_c, 0, 67, 75
1, 285389, Note_on_c, 0, 58, 55
1, 285414, Note_off_c, 0, 58, 64
1, 285456, Note_on_c, 0, 87, 63
1, 285462, Note_on_c, 0, 78, 54
1, 285474, Note_off_c, 0, 87, 62
1, 285483, Note_off_c, 0, 78, 62
1, 285490, Control_c, 0, 64, 115
1, 285506, Control_c, 0, 64, 91
1, 285519, Note_on_c, 0, 44, 59
1, 285521, Control_c, 0, 64, 75
1, 285535, Note_on_c, 0, 78, 63
1, 285536, Control_c, 0, 64, 64
1, 285540, Note_on_c, 0, 87, 67
1, 285544, Note_off_c, 0, 44, 57
1, 285550, Control_c, 0, 64, 59
1, 285565, Control_c, 0, 64, 63
1, 285588, Control_c, 0, 64, 69
1, 285603, Control_c, 0, 64, 81
1, 285617, Control_c, 0, 64, 94
1, 285632, Control_c, 0, 64, 107
1, 285647, Control_c, 0, 64, 118
1, 285662, Control_c, 0, 64, 127
1, 285701, Note_on_c, 0, 85, 65
1, 285710, Note_on_c, 0, 66, 45
1, 285725, Note_off_c, 0, 87, 36
1, 285737, Note_off_c, 0, 66, 59
1, 285800, Note_off_c, 0, 78, 57
1, 285802, Note_on_c, 0, 56, 52
1, 285805, Note_off_c, 0, 85, 57
1, 285820, Note_on_c, 0, 84, 63
1, 285826, Note_on_c, 0, 80, 51
1, 285838, Note_off_c, 0, 56, 63
1, 285957, Control_c, 0, 64, 120
1, 285972, Control_c, 0, 64, 105
1, 285987, Control_c, 0, 64, 89
1, 285990, Note_off_c, 0, 80, 51
1, 285990, Note_on_c, 0, 49, 51
1, 285992, Note_off_c, 0, 84, 62
1, 286002, Control_c, 0, 64, 77
1, 286017, Control_c, 0, 64, 70
1, 286031, Control_c, 0, 64, 68
1, 286033, Note_on_c, 0, 87, 60
1, 286034, Note_on_c, 0, 77, 52
1, 286046, Control_c, 0, 64, 71
1, 286061, Control_c, 0, 64, 76
1, 286066, Note_off_c, 0, 49, 62
1, 286076, Control_c, 0, 64, 84
1, 286090, Control_c, 0, 64, 91
1, 286105, Control_c, 0, 64, 97
1, 286120, Control_c, 0, 64, 101
1, 286135, Control_c, 0, 64, 103
1, 286150, Control_c, 0, 64, 105
1, 286164, Control_c, 0, 64, 106
1, 286179, Control_c, 0, 64, 107
1, 286189, Note_on_c, 0, 65, 42
1, 286209, Control_c, 0, 64, 108
1, 286224, Control_c, 0, 64, 108
1, 286238, Control_c, 0, 64, 109
1, 286252, Note_on_c, 0, 85, 72
1, 286253, Control_c, 0, 64, 110
1, 286253, Control_c, 0, 67, 75
1, 286256, Note_off_c, 0, 77, 62
1, 286261, Note_off_c, 0, 87, 63
1, 286267, Note_on_c, 0, 80, 57
1, 286268, Control_c, 0, 64, 111
1, 286282, Control_c, 0, 64, 112
1, 286285, Note_off_c, 0, 65, 36
1, 286299, Control_c, 0, 64, 113
1, 286319, Note_on_c, 0, 56, 45
1, 286351, Control_c, 0, 64, 112
1, 286366, Control_c, 0, 64, 101
1, 286373, Note_off_c, 0, 85, 63
1, 286375, Note_off_c, 0, 56, 59
1, 286380, Control_c, 0, 64, 90
1, 286395, Control_c, 0, 64, 78
1, 286397, Note_off_c, 0, 80, 59
1, 286410, Control_c, 0, 64, 68
1, 286413, Note_on_c, 0, 83, 73
1, 286418, Note_on_c, 0, 54, 49
1, 286425, Control_c, 0, 64, 63
1, 286431, Note_on_c, 0, 76, 52
1, 286440, Control_c, 0, 64, 64
1, 286440, Control_c, 0, 67, 74
1, 286454, Control_c, 0, 64, 68
1, 286454, Control_c, 0, 67, 74
1, 286469, Control_c, 0, 64, 75
1, 286484, Control_c, 0, 64, 85
1, 286484, Control_c, 0, 67, 73
1, 286499, Control_c, 0, 64, 96
1, 286499, Control_c, 0, 67, 73
1, 286513, Note_on_c, 0, 64, 35
1, 286513, Control_c, 0, 64, 102
1, 286513, Control_c, 0, 67, 72
1, 286521, Note_off_c, 0, 76, 34
1, 286528, Control_c, 0, 64, 103
1, 286528, Control_c, 0, 67, 72
1, 286547, Note_off_c, 0, 64, 54
1, 286558, Control_c, 0, 67, 71
1, 286560, Note_on_c, 0, 82, 79
1, 286560, Note_off_c, 0, 83, 63
1, 286571, Note_on_c, 0, 78, 63
1, 286574, Note_off_c, 0, 54, 61
1, 286587, Note_on_c, 0, 58, 52
1, 286611, Note_off_c, 0, 58, 59
1, 286617, Control_c, 0, 64, 104
1, 286662, Control_c, 0, 64, 103
1, 286677, Control_c, 0, 64, 99
1, 286685, Note_on_c, 0, 47, 58
1, 286692, Control_c, 0, 64, 90
1, 286706, Control_c, 0, 64, 79
1, 286706, Control_c, 0, 67, 72
1, 286711, Note_off_c, 0, 78, 58
1, 286719, Note_off_c, 0, 47, 65
1, 286721, Control_c, 0, 64, 69
1, 286730, Note_off_c, 0, 82, 64
1, 286735, Note_on_c, 0, 85, 76
1, 286736, Control_c, 0, 64, 63
1, 286740, Note_on_c, 0, 75, 64
1, 286751, Control_c, 0, 64, 66
1, 286766, Control_c, 0, 64, 71
1, 286780, Control_c, 0, 64, 81
1, 286795, Control_c, 0, 64, 95
1, 286810, Control_c, 0, 64, 111
1, 286810, Control_c, 0, 67, 71
1, 286825, Control_c, 0, 64, 127
1, 286837, Note_on_c, 0, 63, 49
1, 286840, Control_c, 0, 67, 71
1, 286869, Control_c, 0, 67, 70
1, 286899, Control_c, 0, 67, 70
1, 286908, Note_on_c, 0, 83, 73
1, 286918, Note_off_c, 0, 85, 61
1, 286922, Note_off_c, 0, 75, 62
1, 286924, Note_off_c, 0, 63, 54
1, 286926, Note_on_c, 0, 78, 65
1, 286944, Control_c, 0, 67, 69
1, 286946, Note_on_c, 0, 59, 49
1, 286983, Note_off_c, 0, 83, 62
1, 287003, Control_c, 0, 67, 70
1, 287033, Control_c, 0, 67, 70
1, 287123, Note_off_c, 0, 59, 43
1, 287139, Note_on_c, 0, 56, 46
1, 287159, Control_c, 0, 67, 71
1, 287177, Note_off_c, 0, 78, 64
1, 287193, Note_on_c, 0, 82, 69
1, 287200, Note_on_c, 0, 71, 48
1, 287218, Control_c, 0, 64, 114
1, 287233, Control_c, 0, 64, 100
1, 287248, Control_c, 0, 64, 88
1, 287263, Control_c, 0, 64, 77
1, 287278, Control_c, 0, 64, 67
1, 287293, Control_c, 0, 64, 62
1, 287308, Control_c, 0, 64, 64
1, 287323, Control_c, 0, 64, 69
1, 287336, Note_on_c, 0, 63, 38
1, 287337, Control_c, 0, 64, 75
1, 287352, Control_c, 0, 64, 85
1, 287367, Control_c, 0, 64, 94
1, 287382, Control_c, 0, 64, 100
1, 287397, Control_c, 0, 64, 103
1, 287411, Control_c, 0, 64, 106
1, 287411, Control_c, 0, 67, 71
1, 287426, Control_c, 0, 64, 108
1, 287441, Control_c, 0, 64, 109
1, 287456, Control_c, 0, 64, 110
1, 287471, Control_c, 0, 64, 111
1, 287485, Control_c, 0, 64, 113
1, 287492, Note_off_c, 0, 63, 32
1, 287500, Note_on_c, 0, 59, 38
1, 287500, Control_c, 0, 64, 120
1, 287500, Control_c, 0, 67, 72
1, 287515, Control_c, 0, 64, 127
1, 287526, Note_off_c, 0, 59, 59
1, 287554, Note_off_c, 0, 56, 61
1, 287585, Note_off_c, 0, 71, 63
1, 287588, Note_off_c, 0, 82, 62
1, 287597, Note_on_c, 0, 80, 66
1, 287609, Note_on_c, 0, 75, 45
1, 287680, Note_off_c, 0, 80, 60
1, 287788, Note_on_c, 0, 49, 30
1, 287840, Note_off_c, 0, 75, 62
1, 287859, Note_on_c, 0, 80, 61
1, 287862, Control_c, 0, 64, 119
1, 287864, Note_on_c, 0, 70, 52
1, 287877, Control_c, 0, 64, 102
1, 287892, Control_c, 0, 64, 85
1, 287908, Control_c, 0, 64, 72
1, 287923, Control_c, 0, 64, 63
1, 287938, Control_c, 0, 64, 59
1, 287952, Control_c, 0, 64, 64
1, 287967, Control_c, 0, 64, 70
1, 287982, Control_c, 0, 64, 79
1, 287997, Control_c, 0, 64, 90
1, 288012, Control_c, 0, 64, 101
1, 288027, Control_c, 0, 64, 108
1, 288041, Control_c, 0, 64, 114
1, 288056, Control_c, 0, 64, 120
1, 288069, Note_on_c, 0, 61, 44
1, 288071, Control_c, 0, 64, 127
1, 288099, Note_off_c, 0, 80, 64
1, 288118, Note_off_c, 0, 70, 37
1, 288121, Note_on_c, 0, 78, 71
1, 288130, Note_on_c, 0, 73, 57
1, 288161, Note_off_c, 0, 61, 54
1, 288242, Note_on_c, 0, 58, 42
1, 288264, Control_c, 0, 67, 71
1, 288271, Note_off_c, 0, 73, 60
1, 288271, Note_off_c, 0, 78, 61
1, 288284, Note_off_c, 0, 58, 60
1, 288285, Note_on_c, 0, 77, 79
1, 288293, Control_c, 0, 67, 71
1, 288306, Note_off_c, 0, 49, 40
1, 288308, Control_c, 0, 67, 70
1, 288314, Note_on_c, 0, 54, 50
1, 288314, Note_on_c, 0, 66, 52
1, 288323, Control_c, 0, 67, 69
1, 288338, Control_c, 0, 67, 68
1, 288343, Note_off_c, 0, 66, 51
1, 288352, Control_c, 0, 67, 68
1, 288356, Note_off_c, 0, 54, 57
1, 288367, Control_c, 0, 67, 66
1, 288382, Control_c, 0, 67, 65
1, 288396, Note_on_c, 0, 61, 48
1, 288397, Control_c, 0, 67, 64
1, 288412, Control_c, 0, 67, 63
1, 288426, Control_c, 0, 67, 63
1, 288428, Note_off_c, 0, 61, 62
1, 288451, Note_on_c, 0, 75, 75
1, 288453, Note_on_c, 0, 58, 58
1, 288473, Note_off_c, 0, 58, 63
1, 288477, Note_on_c, 0, 70, 53
1, 288531, Note_off_c, 0, 70, 50
1, 288538, Note_off_c, 0, 77, 31
1, 288545, Control_c, 0, 67, 63
1, 288616, Note_on_c, 0, 37, 58
1, 288627, Control_c, 0, 64, 107
1, 288641, Note_on_c, 0, 73, 79
1, 288641, Control_c, 0, 64, 85
1, 288641, Control_c, 0, 67, 64
1, 288656, Control_c, 0, 64, 69
1, 288661, Note_off_c, 0, 37, 63
1, 288664, Note_on_c, 0, 65, 54
1, 288671, Control_c, 0, 64, 57
1, 288680, Note_off_c, 0, 75, 62
1, 288685, Control_c, 0, 64, 57
1, 288700, Control_c, 0, 64, 62
1, 288700, Control_c, 0, 67, 63
1, 288717, Control_c, 0, 64, 68
1, 288731, Control_c, 0, 64, 79
1, 288746, Control_c, 0, 64, 98
1, 288761, Control_c, 0, 64, 121
1, 288776, Control_c, 0, 64, 127
1, 288810, Note_on_c, 0, 59, 38
1, 288850, Control_c, 0, 67, 64
1, 288867, Note_off_c, 0, 65, 39
1, 288867, Note_on_c, 0, 74, 76
1, 288870, Note_on_c, 0, 71, 53
1, 288885, Note_off_c, 0, 59, 58
1, 288908, Control_c, 0, 67, 64
1, 288919, Note_off_c, 0, 73, 37
1, 288929, Note_on_c, 0, 53, 41
1, 288953, Control_c, 0, 67, 65
1, 289012, Note_on_c, 0, 73, 13
1, 289013, Control_c, 0, 67, 65
1, 289031, Note_off_c, 0, 53, 49
1, 289059, Note_off_c, 0, 71, 50
1, 289061, Note_off_c, 0, 74, 59
1, 289074, Note_on_c, 0, 49, 44
1, 289117, Note_off_c, 0, 73, 43
1, 289127, Note_on_c, 0, 77, 69
1, 289132, Note_on_c, 0, 65, 52
1, 289189, Note_off_c, 0, 65, 0
1, 289189, Note_on_c, 0, 65, 8
1, 289244, Note_on_c, 0, 59, 39
1, 289291, Note_on_c, 0, 75, 66
1, 289294, Control_c, 0, 67, 65
1, 289387, Note_off_c, 0, 59, 53
1, 289435, Note_off_c, 0, 77, 54
1, 289448, Note_on_c, 0, 71, 66
1, 289457, Note_off_c, 0, 49, 61
1, 289457, Note_on_c, 0, 68, 52
1, 289471, Note_off_c, 0, 75, 62
1, 289499, Poly_aftertouch_c, 0, 53, 127
1, 289506, Note_off_c, 0, 68, 56
1, 289510, Control_c, 0, 67, 65
1, 289519, Note_off_c, 0, 71, 61
1, 289534, Poly_aftertouch_c, 0, 53, 0
1, 289654, Note_on_c, 0, 42, 52
1, 289688, Control_c, 0, 64, 96
1, 289697, Note_on_c, 0, 70, 63
1, 289703, Control_c, 0, 64, 78
1, 289706, Note_on_c, 0, 66, 62
1, 289718, Control_c, 0, 64, 64
1, 289732, Control_c, 0, 64, 53
1, 289732, Control_c, 0, 67, 65
1, 289747, Control_c, 0, 64, 58
1, 289760, Note_off_c, 0, 65, 51
1, 289762, Control_c, 0, 64, 63
1, 289777, Control_c, 0, 64, 72
1, 289785, Note_off_c, 0, 42, 60
1, 289792, Control_c, 0, 64, 84
1, 289806, Control_c, 0, 64, 100
1, 289821, Control_c, 0, 64, 115
1, 289836, Control_c, 0, 64, 127
1, 289940, Note_on_c, 0, 58, 51
1, 289970, Control_c, 0, 67, 64
1, 289999, Control_c, 0, 67, 64
1, 290023, Note_off_c, 0, 66, 56
1, 290029, Control_c, 0, 67, 63
1, 290037, Note_on_c, 0, 71, 75
1, 290058, Control_c, 0, 67, 63
1, 290062, Note_on_c, 0, 61, 44
1, 290063, Note_off_c, 0, 58, 53
1, 290080, Note_off_c, 0, 70, 31
1, 290110, Control_c, 0, 67, 62
1, 290121, Note_on_c, 0, 54, 40
1, 290140, Control_c, 0, 67, 62
1, 290229, Note_on_c, 0, 49, 53
1, 290229, Note_off_c, 0, 61, 42
1, 290244, Control_c, 0, 67, 61
1, 290256, Note_on_c, 0, 72, 78
1, 290259, Note_off_c, 0, 54, 36
1, 290265, Note_off_c, 0, 71, 63
1, 290273, Control_c, 0, 67, 61
1, 290280, Note_on_c, 0, 66, 50
1, 290288, Control_c, 0, 67, 60
1, 290303, Note_off_c, 0, 66, 60
1, 290303, Control_c, 0, 67, 60
1, 290333, Control_c, 0, 67, 59
1, 290368, Note_on_c, 0, 58, 44
1, 290393, Control_c, 0, 67, 59
1, 290414, Note_off_c, 0, 58, 63
1, 290421, Note_on_c, 0, 73, 82
1, 290429, Note_on_c, 0, 61, 51
1, 290441, Note_off_c, 0, 72, 62
1, 290457, Note_off_c, 0, 61, 54
1, 290463, Note_on_c, 0, 54, 50
1, 290466, Control_c, 0, 67, 59
1, 290478, Note_off_c, 0, 49, 39
1, 290493, Note_off_c, 0, 54, 65
1, 290540, Control_c, 0, 64, 115
1, 290554, Control_c, 0, 64, 96
1, 290560, Note_on_c, 0, 44, 72
1, 290569, Control_c, 0, 64, 79
1, 290584, Control_c, 0, 64, 65
1, 290596, Note_on_c, 0, 75, 74
1, 290599, Note_off_c, 0, 73, 62
1, 290599, Control_c, 0, 64, 57
1, 290614, Control_c, 0, 64, 62
1, 290619, Note_on_c, 0, 65, 60
1, 290628, Control_c, 0, 64, 68
1, 290633, Note_off_c, 0, 44, 59
1, 290643, Control_c, 0, 64, 79
1, 290643, Control_c, 0, 67, 59
1, 290658, Control_c, 0, 64, 98
1, 290673, Control_c, 0, 64, 127
1, 290718, Control_c, 0, 67, 58
1, 290730, Note_on_c, 0, 59, 58
1, 290777, Control_c, 0, 67, 58
1, 290779, Note_off_c, 0, 65, 48
1, 290832, Note_on_c, 0, 71, 62
1, 290844, Note_on_c, 0, 73, 68
1, 290849, Note_off_c, 0, 75, 63
1, 290885, Note_on_c, 0, 53, 57
1, 290889, Note_off_c, 0, 71, 64
1, 290901, Note_off_c, 0, 59, 38
1, 290931, Note_off_c, 0, 73, 64
1, 290977, Control_c, 0, 67, 57
1, 290992, Control_c, 0, 67, 56
1, 290999, Note_on_c, 0, 71, 71
1, 291007, Control_c, 0, 67, 54
1, 291022, Control_c, 0, 67, 49
1, 291036, Control_c, 0, 67, 44
1, 291051, Control_c, 0, 67, 40
1, 291066, Control_c, 0, 67, 34
1, 291080, Control_c, 0, 67, 28
1, 291096, Control_c, 0, 67, 21
1, 291111, Control_c, 0, 67, 15
1, 291114, Note_off_c, 0, 53, 27
1, 291122, Note_on_c, 0, 49, 53
1, 291126, Control_c, 0, 67, 10
1, 291141, Control_c, 0, 67, 0
1, 291170, Control_c, 0, 64, 113
1, 291185, Control_c, 0, 64, 86
1, 291187, Note_on_c, 0, 82, 83
1, 291200, Control_c, 0, 64, 65
1, 291215, Control_c, 0, 64, 0
1, 291244, Control_c, 0, 64, 44
1, 291259, Control_c, 0, 64, 65
1, 291274, Control_c, 0, 64, 78
1, 291289, Control_c, 0, 64, 107
1, 291303, Control_c, 0, 64, 127
1, 291316, Note_on_c, 0, 61, 59
1, 291427, Note_off_c, 0, 82, 63
1, 291430, Note_off_c, 0, 61, 62
1, 291432, Note_off_c, 0, 71, 55
1, 291451, Note_on_c, 0, 53, 60
1, 291477, Note_off_c, 0, 49, 61
1, 291477, Note_off_c, 0, 53, 68
1, 291532, Note_on_c, 0, 80, 78
1, 291535, Note_on_c, 0, 73, 73
1, 291559, Note_off_c, 0, 73, 69
1, 291592, Note_off_c, 0, 80, 62
1, 291622, Control_c, 0, 64, 118
1, 291637, Control_c, 0, 64, 90
1, 291643, Note_on_c, 0, 80, 71
1, 291644, Note_on_c, 0, 46, 59
1, 291651, Control_c, 0, 64, 72
1, 291663, Note_on_c, 0, 70, 64
1, 291666, Control_c, 0, 64, 60
1, 291666, Control_c, 0, 67, 8
1, 291681, Control_c, 0, 64, 59
1, 291696, Control_c, 0, 64, 66
1, 291696, Control_c, 0, 67, 8
1, 291702, Note_off_c, 0, 46, 57
1, 291710, Control_c, 0, 64, 75
1, 291725, Control_c, 0, 64, 89
1, 291740, Control_c, 0, 64, 106
1, 291755, Control_c, 0, 64, 127
1, 291815, Control_c, 0, 67, 9
1, 291836, Note_on_c, 0, 61, 60
1, 291845, Control_c, 0, 67, 9
1, 291874, Control_c, 0, 67, 10
1, 291900, Note_off_c, 0, 80, 60
1, 291926, Note_off_c, 0, 61, 59
1, 291937, Note_on_c, 0, 78, 81
1, 291948, Note_off_c, 0, 70, 59
1, 291949, Note_on_c, 0, 73, 66
1, 291964, Control_c, 0, 67, 10
1, 292002, Note_on_c, 0, 54, 46
1, 292112, Control_c, 0, 64, 123
1, 292126, Control_c, 0, 64, 93
1, 292138, Note_on_c, 0, 46, 51
1, 292141, Control_c, 0, 64, 73
1, 292152, Note_off_c, 0, 78, 62
1, 292155, Note_off_c, 0, 73, 57
1, 292156, Control_c, 0, 64, 52
1, 292156, Control_c, 0, 67, 10
1, 292160, Note_on_c, 0, 77, 73
1, 292170, Note_on_c, 0, 68, 64
1, 292171, Control_c, 0, 64, 44
1, 292171, Control_c, 0, 67, 9
1, 292179, Note_off_c, 0, 54, 62
1, 292186, Note_off_c, 0, 46, 65
1, 292186, Control_c, 0, 64, 57
1, 292200, Control_c, 0, 64, 66
1, 292208, Note_off_c, 0, 68, 60
1, 292215, Control_c, 0, 64, 78
1, 292215, Control_c, 0, 67, 9
1, 292230, Control_c, 0, 64, 99
1, 292245, Control_c, 0, 64, 127
1, 292260, Control_c, 0, 67, 8
1, 292289, Control_c, 0, 67, 8
1, 292306, Note_on_c, 0, 62, 54
1, 292323, Note_on_c, 0, 75, 76
1, 292328, Note_on_c, 0, 66, 70
1, 292333, Note_off_c, 0, 77, 57
1, 292341, Control_c, 0, 67, 0
1, 292353, Note_off_c, 0, 66, 69
1, 292375, Note_off_c, 0, 62, 51
1, 292416, Note_on_c, 0, 56, 53
1, 292429, Note_on_c, 0, 74, 71
1, 292434, Note_on_c, 0, 65, 57
1, 292435, Note_off_c, 0, 75, 52
1, 292455, Note_off_c, 0, 65, 60
1, 292465, Note_off_c, 0, 56, 57
1, 292491, Note_off_c, 0, 74, 60
1, 292504, Control_c, 0, 64, 104
1, 292519, Control_c, 0, 64, 84
1, 292519, Control_c, 0, 67, 8
1, 292533, Control_c, 0, 64, 65
1, 292536, Note_on_c, 0, 68, 66
1, 292539, Note_on_c, 0, 77, 63
1, 292544, Note_on_c, 0, 51, 39
1, 292548, Control_c, 0, 64, 37
1, 292548, Control_c, 0, 67, 8
1, 292563, Control_c, 0, 64, 0
1, 292578, Control_c, 0, 64, 26
1, 292593, Control_c, 0, 64, 54
1, 292593, Control_c, 0, 67, 9
1, 292602, Note_off_c, 0, 77, 62
1, 292608, Control_c, 0, 64, 65
1, 292620, Note_off_c, 0, 68, 57
1, 292623, Control_c, 0, 64, 74
1, 292638, Control_c, 0, 64, 90
1, 292639, Note_on_c, 0, 63, 59
1, 292652, Control_c, 0, 64, 103
1, 292652, Control_c, 0, 67, 9
1, 292667, Control_c, 0, 64, 111
1, 292682, Control_c, 0, 64, 115
1, 292697, Control_c, 0, 64, 117
1, 292712, Control_c, 0, 64, 119
1, 292713, Note_off_c, 0, 63, 62
1, 292727, Control_c, 0, 64, 120
1, 292742, Note_on_c, 0, 58, 64
1, 292742, Control_c, 0, 64, 122
1, 292757, Note_off_c, 0, 51, 61
1, 292757, Control_c, 0, 64, 127
1, 292763, Note_off_c, 0, 58, 65
1, 292813, Note_on_c, 0, 75, 72
1, 292831, Note_on_c, 0, 66, 51
1, 292835, Note_off_c, 0, 75, 69
1, 292854, Note_off_c, 0, 66, 59
1, 292861, Control_c, 0, 64, 104
1, 292876, Control_c, 0, 64, 86
1, 292884, Note_on_c, 0, 44, 66
1, 292890, Control_c, 0, 64, 70
1, 292902, Note_on_c, 0, 75, 69
1, 292905, Note_on_c, 0, 66, 63
1, 292905, Control_c, 0, 64, 52
1, 292905, Control_c, 0, 67, 10
1, 292918, Note_off_c, 0, 44, 63
1, 292935, Control_c, 0, 64, 61
1, 292949, Control_c, 0, 64, 67
1, 292964, Control_c, 0, 64, 77
1, 292979, Control_c, 0, 64, 91
1, 292994, Control_c, 0, 64, 104
1, 293009, Control_c, 0, 64, 109
1, 293043, Note_on_c, 0, 63, 53
1, 293063, Note_on_c, 0, 73, 65
1, 293106, Note_off_c, 0, 75, 54
1, 293138, Note_off_c, 0, 63, 56
1, 293142, Note_off_c, 0, 66, 51
1, 293176, Note_on_c, 0, 56, 52
1, 293177, Note_on_c, 0, 68, 45
1, 293197, Note_on_c, 0, 72, 69
1, 293262, Note_off_c, 0, 73, 38
1, 293284, Note_off_c, 0, 56, 35
1, 293344, Note_off_c, 0, 72, 62
1, 293355, Note_off_c, 0, 68, 45
1, 293356, Note_on_c, 0, 49, 39
1, 293371, Note_on_c, 0, 75, 68
1, 293373, Note_on_c, 0, 65, 63
1, 293386, Control_c, 0, 64, 106
1, 293402, Control_c, 0, 64, 93
1, 293417, Control_c, 0, 64, 79
1, 293431, Control_c, 0, 64, 66
1, 293446, Control_c, 0, 64, 54
1, 293461, Control_c, 0, 64, 54
1, 293475, Control_c, 0, 64, 61
1, 293490, Control_c, 0, 64, 68
1, 293506, Control_c, 0, 64, 78
1, 293511, Note_on_c, 0, 61, 44
1, 293521, Control_c, 0, 64, 92
1, 293536, Control_c, 0, 64, 106
1, 293551, Control_c, 0, 64, 114
1, 293564, Note_off_c, 0, 61, 62
1, 293566, Control_c, 0, 64, 115
1, 293585, Note_on_c, 0, 73, 77
1, 293591, Note_on_c, 0, 68, 55
1, 293592, Note_off_c, 0, 65, 58
1, 293601, Note_off_c, 0, 75, 63
1, 293640, Control_c, 0, 64, 116
1, 293649, Note_on_c, 0, 56, 53
1, 293654, Control_c, 0, 64, 118
1, 293669, Note_off_c, 0, 49, 62
1, 293675, Note_off_c, 0, 56, 61
1, 293699, Control_c, 0, 64, 112
1, 293714, Control_c, 0, 64, 100
1, 293720, Note_off_c, 0, 73, 62
1, 293729, Control_c, 0, 64, 86
1, 293743, Control_c, 0, 64, 73
1, 293743, Control_c, 0, 67, 9
1, 293752, Note_off_c, 0, 68, 63
1, 293755, Note_on_c, 0, 42, 65
1, 293758, Control_c, 0, 64, 64
1, 293767, Note_on_c, 0, 71, 71
1, 293773, Control_c, 0, 64, 62
1, 293776, Note_on_c, 0, 64, 55
1, 293783, Note_off_c, 0, 42, 64
1, 293788, Control_c, 0, 64, 67
1, 293788, Control_c, 0, 67, 9
1, 293803, Control_c, 0, 64, 74
1, 293825, Control_c, 0, 64, 87
1, 293840, Control_c, 0, 64, 104
1, 293840, Control_c, 0, 67, 8
1, 293854, Control_c, 0, 64, 127
1, 293907, Note_off_c, 0, 64, 27
1, 293913, Note_off_c, 0, 71, 64
1, 293917, Note_on_c, 0, 61, 43
1, 293919, Note_on_c, 0, 70, 75
1, 293928, Control_c, 0, 67, 8
1, 293930, Note_on_c, 0, 66, 63
1, 293949, Note_off_c, 0, 61, 54
1, 293995, Note_on_c, 0, 54, 60
1, 294062, Control_c, 0, 64, 102
1, 294077, Control_c, 0, 64, 85
1, 294083, Note_off_c, 0, 66, 58
1, 294085, Note_off_c, 0, 54, 55
1, 294092, Control_c, 0, 64, 70
1, 294098, Note_off_c, 0, 70, 63
1, 294101, Note_on_c, 0, 47, 57
1, 294104, Note_on_c, 0, 73, 71
1, 294106, Control_c, 0, 64, 55
1, 294106, Control_c, 0, 67, 8
1, 294118, Note_on_c, 0, 63, 48
1, 294121, Control_c, 0, 64, 48
1, 294136, Control_c, 0, 64, 59
1, 294149, Control_c, 0, 64, 68
1, 294149, Control_c, 0, 67, 9
1, 294164, Control_c, 0, 64, 77
1, 294179, Control_c, 0, 64, 91
1, 294194, Control_c, 0, 64, 104
1, 294208, Control_c, 0, 64, 116
1, 294209, Note_on_c, 0, 59, 46
1, 294223, Control_c, 0, 64, 121
1, 294238, Control_c, 0, 64, 127
1, 294253, Note_off_c, 0, 47, 0
1, 294259, Note_off_c, 0, 59, 54
1, 294265, Note_on_c, 0, 71, 69
1, 294271, Note_off_c, 0, 73, 50
1, 294276, Note_on_c, 0, 66, 58
1, 294291, Note_on_c, 0, 47, 3
1, 294292, Note_on_c, 0, 54, 61
1, 294309, Note_off_c, 0, 63, 36
1, 294315, Note_off_c, 0, 54, 62
1, 294322, Note_off_c, 0, 47, 46
1, 294325, Note_off_c, 0, 71, 63
1, 294380, Note_off_c, 0, 66, 61
1, 294387, Control_c, 0, 64, 98
1, 294387, Control_c, 0, 67, 8
1, 294399, Note_on_c, 0, 35, 71
1, 294402, Control_c, 0, 64, 80
1, 294417, Control_c, 0, 64, 65
1, 294423, Note_off_c, 0, 35, 59
1, 294423, Note_on_c, 0, 70, 78
1, 294432, Control_c, 0, 64, 57
1, 294432, Note_on_c, 0, 59, 67
1, 294447, Control_c, 0, 64, 63
1, 294447, Control_c, 0, 67, 8
1, 294462, Control_c, 0, 64, 70
1, 294462, Control_c, 0, 67, 0
1, 294476, Control_c, 0, 64, 81
1, 294491, Control_c, 0, 64, 96
1, 294506, Control_c, 0, 64, 115
1, 294520, Control_c, 0, 64, 127
1, 294527, Note_on_c, 0, 56, 64
1, 294590, Note_on_c, 0, 63, 68
1, 294590, Note_on_c, 0, 68, 75
1, 294596, Note_off_c, 0, 56, 42
1, 294599, Note_off_c, 0, 59, 60
1, 294610, Note_off_c, 0, 70, 61
1, 294618, Note_off_c, 0, 63, 68
1, 294633, Note_on_c, 0, 51, 64
1, 294637, Note_off_c, 0, 68, 66
1, 294662, Note_off_c, 0, 51, 65
1, 294720, Control_c, 0, 64, 111
1, 294735, Control_c, 0, 64, 84
1, 294750, Control_c, 0, 64, 65
1, 294756, Note_on_c, 0, 37, 63
1, 294765, Control_c, 0, 64, 17
1, 294780, Control_c, 0, 64, 0
1, 294785, Note_on_c, 0, 68, 74
1, 294790, Note_on_c, 0, 58, 65
1, 294794, Control_c, 0, 64, 47
1, 294809, Control_c, 0, 64, 64
1, 294814, Note_off_c, 0, 37, 61
1, 294824, Control_c, 0, 64, 77
1, 294838, Control_c, 0, 64, 98
1, 294853, Control_c, 0, 64, 127
1, 294913, Note_on_c, 0, 54, 65
1, 294971, Note_off_c, 0, 54, 63
1, 294975, Note_off_c, 0, 68, 63
1, 294983, Note_on_c, 0, 66, 74
1, 294983, Note_on_c, 0, 61, 69
1, 294990, Note_off_c, 0, 58, 59
1, 295028, Note_on_c, 0, 49, 52
1, 295071, Note_off_c, 0, 66, 61
1, 295088, Note_off_c, 0, 49, 62
1, 295112, Note_on_c, 0, 46, 61
1, 295115, Note_on_c, 0, 65, 80
1, 295119, Note_on_c, 0, 54, 67
1, 295135, Note_off_c, 0, 61, 55
1, 295145, Note_off_c, 0, 54, 67
1, 295208, Note_on_c, 0, 54, 60
1, 295256, Note_on_c, 0, 66, 83
1, 295264, Note_on_c, 0, 58, 67
1, 295268, Note_off_c, 0, 54, 63
1, 295271, Note_off_c, 0, 65, 59
1, 295294, Note_on_c, 0, 49, 66
1, 295294, Note_off_c, 0, 58, 65
1, 295321, Note_off_c, 0, 46, 64
1, 295329, Note_off_c, 0, 49, 65
1, 295385, Note_off_c, 0, 66, 61
1, 295395, Control_c, 0, 64, 90
1, 295401, Note_on_c, 0, 37, 70
1, 295410, Control_c, 0, 64, 70
1, 295418, Note_on_c, 0, 67, 83
1, 295425, Control_c, 0, 64, 54
1, 295425, Note_on_c, 0, 59, 72
1, 295428, Note_off_c, 0, 37, 65
1, 295440, Control_c, 0, 64, 53
1, 295454, Control_c, 0, 64, 62
1, 295469, Control_c, 0, 64, 68
1, 295484, Control_c, 0, 64, 77
1, 295499, Control_c, 0, 64, 88
1, 295514, Control_c, 0, 64, 99
1, 295529, Control_c, 0, 64, 106
1, 295529, Note_on_c, 0, 53, 59
1, 295543, Control_c, 0, 64, 108
1, 295573, Control_c, 0, 64, 109
1, 295579, Note_on_c, 0, 68, 81
1, 295583, Note_on_c, 0, 61, 69
1, 295585, Note_off_c, 0, 67, 61
1, 295588, Control_c, 0, 64, 111
1, 295603, Control_c, 0, 64, 115
1, 295606, Note_off_c, 0, 59, 27
1, 295609, Note_off_c, 0, 53, 63
1, 295617, Control_c, 0, 64, 119
1, 295632, Control_c, 0, 64, 127
1, 295639, Note_on_c, 0, 49, 47
1, 295652, Note_off_c, 0, 61, 59
1, 295715, Note_off_c, 0, 49, 59
1, 295747, Note_on_c, 0, 44, 61
1, 295750, Control_c, 0, 64, 118
1, 295756, Note_on_c, 0, 70, 85
1, 295759, Note_on_c, 0, 59, 81
1, 295765, Note_off_c, 0, 68, 62
1, 295765, Control_c, 0, 64, 87
1, 295780, Control_c, 0, 64, 69
1, 295795, Control_c, 0, 64, 57
1, 295809, Control_c, 0, 64, 60
1, 295818, Note_off_c, 0, 59, 54
1, 295824, Control_c, 0, 64, 67
1, 295839, Note_on_c, 0, 53, 60
1, 295839, Control_c, 0, 64, 74
1, 295854, Control_c, 0, 64, 86
1, 295869, Control_c, 0, 64, 109
1, 295884, Control_c, 0, 64, 127
1, 295950, Note_off_c, 0, 53, 61
1, 295955, Note_on_c, 0, 71, 86
1, 295957, Note_on_c, 0, 61, 85
1, 295963, Note_on_c, 0, 49, 70
1, 295975, Note_off_c, 0, 44, 59
1, 295977, Note_off_c, 0, 61, 70
1, 295977, Note_off_c, 0, 70, 64
1, 295990, Note_off_c, 0, 49, 66
1, 295992, Note_off_c, 0, 71, 63
1, 296074, Note_on_c, 0, 36, 77
1, 296100, Note_off_c, 0, 36, 63
1, 296182, Note_on_c, 0, 54, 79
1, 296206, Note_off_c, 0, 54, 69
1, 296351, Note_on_c, 0, 51, 82
1, 296381, Control_c, 0, 64, 114
1, 296396, Note_on_c, 0, 69, 84
1, 296396, Control_c, 0, 64, 85
1, 296411, Control_c, 0, 64, 60
1, 296425, Control_c, 0, 64, 0
1, 296544, Control_c, 0, 64, 21
1, 296559, Control_c, 0, 64, 44
1, 296573, Control_c, 0, 64, 57
1, 296576, Note_on_c, 0, 66, 76
1, 296588, Control_c, 0, 64, 65
1, 296603, Control_c, 0, 64, 73
1, 296617, Control_c, 0, 64, 85
1, 296629, Note_off_c, 0, 69, 58
1, 296632, Control_c, 0, 64, 94
1, 296647, Control_c, 0, 64, 97
1, 296662, Control_c, 0, 64, 97
1, 296693, Note_on_c, 0, 63, 79
1, 296707, Control_c, 0, 64, 98
1, 296722, Control_c, 0, 64, 98
1, 296742, Note_off_c, 0, 66, 63
1, 296789, Note_off_c, 0, 63, 66
1, 296796, Control_c, 0, 64, 99
1, 296799, Note_on_c, 0, 56, 86
1, 296834, Control_c, 0, 64, 99
1, 296835, Note_off_c, 0, 51, 64
1, 296853, Note_off_c, 0, 56, 61
1, 296914, Note_on_c, 0, 57, 70
1, 297022, Note_on_c, 0, 54, 70
1, 297034, Note_off_c, 0, 57, 55
1, 297055, Control_c, 0, 64, 99
1, 297100, Control_c, 0, 64, 97
1, 297115, Control_c, 0, 64, 91
1, 297117, Note_off_c, 0, 54, 60
1, 297124, Note_on_c, 0, 37, 60
1, 297130, Control_c, 0, 64, 81
1, 297132, Note_on_c, 0, 44, 63
1, 297139, Note_on_c, 0, 53, 69
1, 297145, Control_c, 0, 64, 69
1, 297160, Control_c, 0, 64, 55
1, 297174, Control_c, 0, 64, 28
1, 297189, Control_c, 0, 64, 12
1, 297204, Control_c, 0, 64, 17
1, 297219, Control_c, 0, 64, 27
1, 297228, Note_off_c, 0, 53, 55
1, 297231, Note_on_c, 0, 56, 71
1, 297234, Control_c, 0, 64, 38
1, 297248, Control_c, 0, 64, 47
1, 297263, Control_c, 0, 64, 52
1, 297278, Control_c, 0, 64, 55
1, 297293, Control_c, 0, 64, 57
1, 297294, Note_off_c, 0, 37, 62
1, 297308, Control_c, 0, 64, 60
1, 297312, Note_off_c, 0, 56, 63
1, 297318, Note_on_c, 0, 60, 73
1, 297322, Control_c, 0, 64, 62
1, 297337, Control_c, 0, 64, 63
1, 297352, Control_c, 0, 64, 65
1, 297367, Control_c, 0, 64, 66
1, 297382, Control_c, 0, 64, 70
1, 297396, Control_c, 0, 64, 73
1, 297398, Note_on_c, 0, 62, 72
1, 297404, Note_off_c, 0, 60, 65
1, 297411, Control_c, 0, 64, 78
1, 297426, Control_c, 0, 64, 81
1, 297428, Note_off_c, 0, 62, 67
1, 297440, Control_c, 0, 64, 82
1, 297450, Note_off_c, 0, 44, 32
1, 297455, Control_c, 0, 64, 83
1, 297481, Note_on_c, 0, 61, 76
1, 297486, Control_c, 0, 64, 83
1, 297501, Control_c, 0, 64, 84
1, 297516, Control_c, 0, 64, 85
1, 297530, Control_c, 0, 64, 86
1, 297538, Note_off_c, 0, 61, 60
1, 297545, Control_c, 0, 64, 87
1, 297568, Control_c, 0, 64, 87
1, 297570, Note_on_c, 0, 73, 85
1, 297574, Note_on_c, 0, 36, 68
1, 297583, Control_c, 0, 64, 88
1, 297591, Note_off_c, 0, 73, 70
1, 297598, Control_c, 0, 64, 89
1, 297602, Note_off_c, 0, 36, 63
1, 297612, Control_c, 0, 64, 90
1, 297627, Control_c, 0, 64, 90
1, 297642, Control_c, 0, 64, 91
1, 297657, Control_c, 0, 64, 92
1, 297671, Control_c, 0, 64, 94
1, 297686, Control_c, 0, 64, 95
1, 297701, Control_c, 0, 64, 95
1, 297716, Control_c, 0, 64, 96
1, 297724, Note_on_c, 0, 54, 78
1, 297773, Note_off_c, 0, 54, 65
1, 297790, Control_c, 0, 64, 94
1, 297805, Control_c, 0, 64, 83
1, 297812, Note_on_c, 0, 51, 90
1, 297819, Control_c, 0, 64, 65
1, 297829, Note_on_c, 0, 69, 80
1, 297834, Control_c, 0, 64, 0
1, 297952, Control_c, 0, 64, 45
1, 297967, Control_c, 0, 64, 58
1, 297982, Control_c, 0, 64, 63
1, 297985, Note_on_c, 0, 66, 68
1, 297997, Control_c, 0, 64, 68
1, 298011, Note_off_c, 0, 69, 63
1, 298012, Control_c, 0, 64, 74
1, 298027, Control_c, 0, 64, 81
1, 298042, Control_c, 0, 64, 89
1, 298057, Control_c, 0, 64, 95
1, 298071, Control_c, 0, 64, 97
1, 298086, Control_c, 0, 64, 99
1, 298087, Note_on_c, 0, 63, 78
1, 298101, Control_c, 0, 64, 101
1, 298114, Note_off_c, 0, 51, 65
1, 298114, Note_off_c, 0, 66, 61
1, 298116, Control_c, 0, 64, 102
1, 298131, Control_c, 0, 64, 103
1, 298152, Note_off_c, 0, 63, 63
1, 298170, Note_on_c, 0, 56, 86
1, 298202, Note_off_c, 0, 56, 57
1, 298262, Note_on_c, 0, 57, 66
1, 298361, Note_off_c, 0, 57, 62
1, 298364, Note_on_c, 0, 54, 67
1, 298391, Control_c, 0, 64, 101
1, 298406, Control_c, 0, 64, 93
1, 298417, Note_on_c, 0, 37, 59
1, 298420, Note_off_c, 0, 54, 61
1, 298420, Control_c, 0, 64, 81
1, 298424, Note_on_c, 0, 44, 57
1, 298435, Control_c, 0, 64, 65
1, 298448, Note_on_c, 0, 53, 65
1, 298450, Control_c, 0, 64, 37
1, 298465, Control_c, 0, 64, 0
1, 298480, Control_c, 0, 64, 14
1, 298492, Note_off_c, 0, 37, 62
1, 298494, Control_c, 0, 64, 48
1, 298507, Note_off_c, 0, 44, 61
1, 298508, Note_off_c, 0, 53, 53
1, 298509, Control_c, 0, 64, 60
1, 298521, Note_on_c, 0, 56, 70
1, 298524, Control_c, 0, 64, 65
1, 298539, Control_c, 0, 64, 68
1, 298554, Control_c, 0, 64, 71
1, 298568, Control_c, 0, 64, 73
1, 298583, Control_c, 0, 64, 75
1, 298590, Note_off_c, 0, 56, 62
1, 298598, Control_c, 0, 64, 78
1, 298604, Note_on_c, 0, 60, 69
1, 298613, Control_c, 0, 64, 81
1, 298628, Control_c, 0, 64, 84
1, 298642, Control_c, 0, 64, 85
1, 298657, Control_c, 0, 64, 87
1, 298672, Control_c, 0, 64, 88
1, 298676, Note_off_c, 0, 60, 65
1, 298677, Note_on_c, 0, 62, 71
1, 298686, Control_c, 0, 64, 89
1, 298701, Control_c, 0, 64, 90
1, 298703, Note_off_c, 0, 62, 66
1, 298716, Control_c, 0, 64, 90
1, 298731, Control_c, 0, 64, 91
1, 298760, Control_c, 0, 64, 91
1, 298762, Note_on_c, 0, 61, 67
1, 298775, Control_c, 0, 64, 92
1, 298790, Control_c, 0, 64, 92
1, 298791, Note_on_c, 0, 41, 43
1, 298805, Control_c, 0, 64, 93
1, 298807, Note_off_c, 0, 61, 53
1, 298820, Control_c, 0, 64, 94
1, 298835, Control_c, 0, 64, 94
1, 298848, Note_off_c, 0, 41, 47
1, 298850, Control_c, 0, 64, 95
1, 298858, Note_on_c, 0, 49, 56
1, 298862, Note_on_c, 0, 73, 67
1, 298865, Control_c, 0, 64, 95
1, 298894, Control_c, 0, 64, 95
1, 298909, Control_c, 0, 64, 92
1, 298924, Control_c, 0, 64, 84
1, 298939, Control_c, 0, 64, 72
1, 298954, Control_c, 0, 64, 60
1, 298957, Note_off_c, 0, 49, 63
1, 298963, Note_on_c, 0, 56, 72
1, 298968, Control_c, 0, 64, 53
1, 298983, Control_c, 0, 64, 60
1, 298996, Note_on_c, 0, 69, 63
1, 298998, Control_c, 0, 64, 66
1, 299006, Note_off_c, 0, 73, 59
1, 299012, Control_c, 0, 64, 72
1, 299027, Control_c, 0, 64, 80
1, 299042, Control_c, 0, 64, 87
1, 299047, Note_off_c, 0, 56, 60
1, 299064, Control_c, 0, 64, 92
1, 299077, Note_off_c, 0, 69, 65
1, 299080, Control_c, 0, 64, 94
1, 299095, Control_c, 0, 64, 96
1, 299110, Control_c, 0, 64, 97
1, 299113, Note_on_c, 0, 68, 67
1, 299124, Control_c, 0, 64, 97
1, 299145, Note_on_c, 0, 44, 59
1, 299160, Note_off_c, 0, 68, 61
1, 299184, Control_c, 0, 64, 96
1, 299192, Note_off_c, 0, 44, 61
1, 299198, Control_c, 0, 64, 91
1, 299199, Note_on_c, 0, 80, 77
1, 299204, Note_on_c, 0, 53, 63
1, 299213, Control_c, 0, 64, 84
1, 299228, Control_c, 0, 64, 81
1, 299237, Note_off_c, 0, 53, 65
1, 299243, Control_c, 0, 64, 82
1, 299258, Note_on_c, 0, 61, 70
1, 299258, Control_c, 0, 64, 85
1, 299270, Note_on_c, 0, 75, 80
1, 299273, Control_c, 0, 64, 92
1, 299288, Control_c, 0, 64, 103
1, 299290, Note_off_c, 0, 80, 63
1, 299292, Note_off_c, 0, 75, 68
1, 299303, Control_c, 0, 64, 113
1, 299309, Note_off_c, 0, 61, 60
1, 299317, Control_c, 0, 64, 127
1, 299366, Note_on_c, 0, 73, 70
1, 299408, Note_on_c, 0, 51, 17
1, 299409, Note_off_c, 0, 73, 59
1, 299448, Note_on_c, 0, 85, 86
1, 299452, Note_on_c, 0, 50, 8
1, 299452, Note_on_c, 0, 56, 68
1, 299466, Control_c, 0, 64, 112
1, 299481, Control_c, 0, 64, 93
1, 299494, Note_on_c, 0, 65, 83
1, 299494, Note_off_c, 0, 51, 39
1, 299496, Control_c, 0, 64, 80
1, 299506, Note_off_c, 0, 56, 58
1, 299508, Note_off_c, 0, 50, 54
1, 299510, Control_c, 0, 64, 74
1, 299523, Note_on_c, 0, 81, 77
1, 299525, Control_c, 0, 64, 73
1, 299540, Control_c, 0, 64, 75
1, 299553, Note_off_c, 0, 65, 56
1, 299555, Note_off_c, 0, 85, 64
1, 299555, Control_c, 0, 64, 79
1, 299570, Control_c, 0, 64, 87
1, 299583, Note_off_c, 0, 81, 65
1, 299584, Control_c, 0, 64, 95
1, 299599, Control_c, 0, 64, 99
1, 299614, Control_c, 0, 64, 102
1, 299616, Note_on_c, 0, 80, 81
1, 299628, Control_c, 0, 64, 104
1, 299643, Control_c, 0, 64, 106
1, 299650, Note_on_c, 0, 53, 55
1, 299658, Control_c, 0, 64, 108
1, 299672, Note_off_c, 0, 80, 64
1, 299673, Control_c, 0, 64, 109
1, 299703, Note_on_c, 0, 61, 69
1, 299703, Control_c, 0, 64, 104
1, 299705, Note_off_c, 0, 53, 66
1, 299711, Note_on_c, 0, 92, 90
1, 299718, Control_c, 0, 64, 92
1, 299733, Control_c, 0, 64, 77
1, 299748, Control_c, 0, 64, 63
1, 299755, Note_on_c, 0, 68, 87
1, 299760, Note_off_c, 0, 61, 66
1, 299763, Control_c, 0, 64, 50
1, 299778, Control_c, 0, 64, 58
1, 299788, Note_on_c, 0, 86, 83
1, 299792, Control_c, 0, 64, 65
1, 299812, Note_off_c, 0, 68, 65
1, 299815, Control_c, 0, 64, 74
1, 299830, Control_c, 0, 64, 87
1, 299844, Control_c, 0, 64, 103
1, 299857, Note_off_c, 0, 92, 64
1, 299859, Control_c, 0, 64, 118
1, 299874, Control_c, 0, 64, 125
1, 299877, Note_off_c, 0, 86, 65
1, 299890, Control_c, 0, 64, 127
1, 299901, Note_on_c, 0, 85, 79
1, 299936, Note_off_c, 0, 85, 62
1, 299977, Note_on_c, 0, 56, 74
1, 300015, Note_on_c, 0, 101, 90
1, 300021, Note_on_c, 0, 65, 74
1, 300036, Note_off_c, 0, 56, 64
1, 300127, Control_c, 0, 64, 110
1, 300140, Note_on_c, 0, 73, 91
1, 300141, Control_c, 0, 64, 81
1, 300151, Note_on_c, 0, 97, 89
1, 300156, Control_c, 0, 64, 64
1, 300171, Control_c, 0, 64, 51
1, 300186, Control_c, 0, 64, 60
1, 300193, Note_off_c, 0, 101, 57
1, 300201, Control_c, 0, 64, 68
1, 300215, Control_c, 0, 64, 79
1, 300230, Control_c, 0, 64, 96
1, 300245, Control_c, 0, 64, 127
1, 300257, Note_on_c, 0, 92, 79
1, 300263, Poly_aftertouch_c, 0, 99, 0
1, 300286, Note_off_c, 0, 97, 64
1, 300287, Note_off_c, 0, 73, 57
1, 300309, Note_off_c, 0, 92, 64
1, 300325, Note_on_c, 0, 89, 76
1, 300363, Note_off_c, 0, 89, 60
1, 300417, Note_on_c, 0, 85, 82
1, 300492, Note_on_c, 0, 80, 81
1, 300507, Note_off_c, 0, 85, 65
1, 300534, Note_off_c, 0, 80, 65
1, 300570, Note_on_c, 0, 77, 71
1, 300587, Note_off_c, 0, 65, 66
1, 300599, Note_off_c, 0, 77, 66
1, 300653, Note_on_c, 0, 73, 81
1, 300725, Note_on_c, 0, 68, 79
1, 300729, Note_off_c, 0, 73, 64
1, 300769, Note_off_c, 0, 68, 65
1, 300796, Note_on_c, 0, 65, 74
1, 300854, Note_off_c, 0, 65, 61
1, 300877, Note_on_c, 0, 61, 83
1, 300950, Note_on_c, 0, 56, 83
1, 300965, Note_off_c, 0, 61, 63
1, 300972, Note_off_c, 0, 56, 70
1, 301002, Note_on_c, 0, 49, 75
1, 301047, Note_off_c, 0, 49, 57
1, 301111, Note_on_c, 0, 38, 69
1, 301175, Note_off_c, 0, 38, 62
1, 301180, Note_on_c, 0, 47, 81
1, 301181, Note_on_c, 0, 56, 76
1, 301186, Control_c, 0, 64, 94
1, 301201, Control_c, 0, 64, 71
1, 301215, Control_c, 0, 64, 0
1, 301224, Note_off_c, 0, 56, 62
1, 301239, Note_on_c, 0, 53, 88
1, 301255, Note_on_c, 0, 71, 83
1, 301386, Control_c, 0, 64, 42
1, 301401, Control_c, 0, 64, 58
1, 301415, Control_c, 0, 64, 65
1, 301418, Note_on_c, 0, 68, 67
1, 301430, Control_c, 0, 64, 69
1, 301445, Control_c, 0, 64, 74
1, 301452, Note_off_c, 0, 71, 63
1, 301460, Control_c, 0, 64, 78
1, 301475, Control_c, 0, 64, 82
1, 301491, Control_c, 0, 64, 83
1, 301501, Note_off_c, 0, 53, 62
1, 301505, Note_on_c, 0, 65, 70
1, 301506, Control_c, 0, 64, 83
1, 301539, Note_off_c, 0, 68, 63
1, 301557, Note_off_c, 0, 47, 64
1, 301569, Note_off_c, 0, 65, 62
1, 301583, Note_on_c, 0, 58, 77
1, 301615, Note_off_c, 0, 58, 62
1, 301684, Note_on_c, 0, 59, 54
1, 301702, Note_on_c, 0, 60, 38
1, 301732, Note_off_c, 0, 60, 54
1, 301742, Control_c, 0, 64, 83
1, 301753, Note_on_c, 0, 56, 70
1, 301757, Control_c, 0, 64, 81
1, 301772, Control_c, 0, 64, 77
1, 301780, Note_off_c, 0, 59, 60
1, 301786, Control_c, 0, 64, 67
1, 301799, Note_on_c, 0, 39, 52
1, 301801, Control_c, 0, 64, 38
1, 301813, Note_off_c, 0, 56, 63
1, 301816, Note_on_c, 0, 46, 60
1, 301816, Control_c, 0, 64, 0
1, 301834, Note_on_c, 0, 55, 67
1, 301896, Note_off_c, 0, 46, 64
1, 301899, Note_off_c, 0, 39, 61
1, 301899, Note_off_c, 0, 55, 40
1, 301904, Note_on_c, 0, 58, 72
1, 301920, Control_c, 0, 64, 40
1, 301935, Control_c, 0, 64, 56
1, 301950, Control_c, 0, 64, 64
1, 301965, Control_c, 0, 64, 67
1, 301979, Note_off_c, 0, 58, 63
1, 301979, Control_c, 0, 64, 72
1, 301989, Note_on_c, 0, 62, 51
1, 301993, Note_on_c, 0, 60, 58
1, 301994, Control_c, 0, 64, 76
1, 302009, Control_c, 0, 64, 80
1, 302024, Note_off_c, 0, 60, 66
1, 302024, Control_c, 0, 64, 82
1, 302038, Control_c, 0, 64, 83
1, 302042, Note_on_c, 0, 64, 74
1, 302048, Note_off_c, 0, 62, 64
1, 302060, Control_c, 0, 64, 84
1, 302074, Note_off_c, 0, 64, 69
1, 302075, Control_c, 0, 64, 85
1, 302090, Control_c, 0, 64, 85
1, 302105, Control_c, 0, 64, 86
1, 302120, Control_c, 0, 64, 87
1, 302131, Note_on_c, 0, 63, 77
1, 302135, Control_c, 0, 64, 87
1, 302179, Control_c, 0, 64, 87
1, 302188, Note_off_c, 0, 63, 61
1, 302194, Control_c, 0, 64, 82
1, 302199, Note_on_c, 0, 75, 76
1, 302209, Control_c, 0, 64, 72
1, 302222, Note_off_c, 0, 75, 68
1, 302224, Control_c, 0, 64, 49
1, 302230, Note_on_c, 0, 38, 60
1, 302238, Control_c, 0, 64, 0
1, 302270, Note_off_c, 0, 38, 65
1, 302280, Note_on_c, 0, 47, 73
1, 302311, Note_on_c, 0, 56, 80
1, 302326, Note_on_c, 0, 53, 80
1, 302335, Note_off_c, 0, 56, 69
1, 302358, Control_c, 0, 64, 56
1, 302373, Note_off_c, 0, 53, 66
1, 302373, Control_c, 0, 64, 64
1, 302382, Note_on_c, 0, 71, 74
1, 302382, Note_off_c, 0, 47, 64
1, 302388, Control_c, 0, 64, 69
1, 302402, Control_c, 0, 64, 75
1, 302417, Note_on_c, 0, 69, 44
1, 302417, Control_c, 0, 64, 83
1, 302432, Control_c, 0, 64, 89
1, 302447, Control_c, 0, 64, 94
1, 302460, Note_off_c, 0, 69, 31
1, 302461, Control_c, 0, 64, 97
1, 302476, Control_c, 0, 64, 98
1, 302482, Note_on_c, 0, 68, 74
1, 302491, Control_c, 0, 64, 99
1, 302515, Note_off_c, 0, 71, 61
1, 302521, Control_c, 0, 64, 100
1, 302552, Note_on_c, 0, 65, 77
1, 302574, Note_off_c, 0, 68, 62
1, 302604, Note_off_c, 0, 65, 63
1, 302625, Note_on_c, 0, 58, 84
1, 302650, Note_off_c, 0, 58, 62
1, 302706, Note_on_c, 0, 59, 73
1, 302787, Control_c, 0, 64, 98
1, 302790, Note_on_c, 0, 56, 78
1, 302806, Note_off_c, 0, 59, 60
1, 302809, Control_c, 0, 64, 89
1, 302824, Control_c, 0, 64, 76
1, 302830, Note_on_c, 0, 39, 57
1, 302839, Control_c, 0, 64, 63
1, 302847, Note_on_c, 0, 46, 57
1, 302854, Control_c, 0, 64, 21
1, 302855, Note_off_c, 0, 56, 64
1, 302868, Control_c, 0, 64, 0
1, 302871, Note_on_c, 0, 55, 73
1, 302886, Note_off_c, 0, 39, 60
1, 302890, Note_off_c, 0, 46, 65
1, 302898, Control_c, 0, 64, 51
1, 302907, Note_off_c, 0, 55, 56
1, 302913, Control_c, 0, 64, 63
1, 302928, Control_c, 0, 64, 68
1, 302940, Note_on_c, 0, 58, 73
1, 302943, Control_c, 0, 64, 75
1, 302957, Control_c, 0, 64, 80
1, 302972, Control_c, 0, 64, 82
1, 302987, Control_c, 0, 64, 83
1, 303002, Control_c, 0, 64, 84
1, 303011, Note_on_c, 0, 62, 68
1, 303012, Note_off_c, 0, 58, 63
1, 303017, Control_c, 0, 64, 84
1, 303032, Control_c, 0, 64, 85
1, 303086, Note_off_c, 0, 62, 64
1, 303090, Note_on_c, 0, 64, 64
1, 303109, Note_off_c, 0, 64, 64
1, 303163, Note_on_c, 0, 63, 73
1, 303166, Control_c, 0, 64, 85
1, 303196, Control_c, 0, 64, 86
1, 303205, Note_on_c, 0, 43, 53
1, 303224, Note_off_c, 0, 63, 62
1, 303226, Control_c, 0, 64, 85
1, 303241, Control_c, 0, 64, 81
1, 303254, Note_on_c, 0, 75, 71
1, 303254, Note_off_c, 0, 43, 60
1, 303255, Control_c, 0, 64, 69
1, 303270, Control_c, 0, 64, 0
1, 303275, Note_on_c, 0, 51, 57
1, 303338, Note_off_c, 0, 51, 62
1, 303345, Note_on_c, 0, 58, 74
1, 303357, Note_on_c, 0, 71, 64
1, 303359, Control_c, 0, 64, 56
1, 303365, Note_off_c, 0, 75, 59
1, 303374, Control_c, 0, 64, 70
1, 303389, Control_c, 0, 64, 84
1, 303397, Note_off_c, 0, 58, 58
1, 303403, Control_c, 0, 64, 99
1, 303415, Note_off_c, 0, 71, 63
1, 303418, Control_c, 0, 64, 111
1, 303433, Control_c, 0, 64, 117
1, 303448, Control_c, 0, 64, 120
1, 303454, Note_on_c, 0, 70, 71
1, 303463, Control_c, 0, 64, 122
1, 303477, Control_c, 0, 64, 123
1, 303489, Note_on_c, 0, 46, 63
1, 303492, Control_c, 0, 64, 125
1, 303509, Note_off_c, 0, 70, 60
1, 303526, Note_off_c, 0, 46, 68
1, 303528, Note_on_c, 0, 55, 62
1, 303532, Note_on_c, 0, 82, 86
1, 303559, Control_c, 0, 64, 127
1, 303571, Note_off_c, 0, 55, 64
1, 303593, Note_on_c, 0, 63, 73
1, 303608, Note_on_c, 0, 76, 80
1, 303652, Note_off_c, 0, 82, 62
1, 303655, Note_off_c, 0, 63, 58
1, 303670, Note_off_c, 0, 76, 63
1, 303702, Note_on_c, 0, 75, 69
1, 303737, Note_on_c, 0, 51, 55
1, 303762, Note_off_c, 0, 75, 62
1, 303790, Note_on_c, 0, 87, 88
1, 303801, Note_on_c, 0, 58, 75
1, 303813, Note_off_c, 0, 51, 62
1, 303825, Note_on_c, 0, 88, 54
1, 303846, Note_on_c, 0, 67, 82
1, 303852, Note_off_c, 0, 88, 52
1, 303861, Note_off_c, 0, 58, 65
1, 303881, Note_on_c, 0, 83, 76
1, 303911, Note_off_c, 0, 67, 57
1, 303914, Note_off_c, 0, 87, 55
1, 303944, Note_off_c, 0, 83, 62
1, 303968, Note_on_c, 0, 82, 77
1, 304016, Note_on_c, 0, 55, 40
1, 304036, Note_off_c, 0, 82, 62
1, 304061, Note_on_c, 0, 63, 69
1, 304067, Note_off_c, 0, 55, 63
1, 304070, Note_on_c, 0, 94, 85
1, 304124, Note_on_c, 0, 70, 79
1, 304126, Note_off_c, 0, 63, 65
1, 304147, Note_on_c, 0, 88, 81
1, 304176, Note_off_c, 0, 70, 60
1, 304197, Note_off_c, 0, 94, 63
1, 304205, Note_off_c, 0, 88, 64
1, 304239, Note_on_c, 0, 87, 80
1, 304348, Note_on_c, 0, 99, 87
1, 304350, Note_on_c, 0, 58, 71
1, 304401, Note_off_c, 0, 58, 65
1, 304408, Note_on_c, 0, 67, 75
1, 304456, Control_c, 0, 64, 98
1, 304471, Control_c, 0, 64, 76
1, 304477, Note_on_c, 0, 75, 89
1, 304484, Note_on_c, 0, 94, 91
1, 304486, Control_c, 0, 64, 63
1, 304490, Note_off_c, 0, 67, 64
1, 304493, Note_off_c, 0, 87, 50
1, 304501, Control_c, 0, 64, 62
1, 304515, Control_c, 0, 64, 71
1, 304525, Note_off_c, 0, 75, 64
1, 304530, Control_c, 0, 64, 84
1, 304543, Poly_aftertouch_c, 0, 68, 127
1, 304545, Control_c, 0, 64, 107
1, 304560, Control_c, 0, 64, 127
1, 304577, Note_off_c, 0, 99, 56
1, 304579, Poly_aftertouch_c, 0, 68, 0
1, 304601, Note_on_c, 0, 91, 89
1, 304686, Note_on_c, 0, 87, 95
1, 304688, Note_off_c, 0, 94, 63
1, 304689, Note_off_c, 0, 91, 66
1, 304718, Note_off_c, 0, 87, 64
1, 304762, Note_on_c, 0, 82, 81
1, 304850, Note_on_c, 0, 79, 76
1, 304851, Note_off_c, 0, 82, 63
1, 304910, Note_on_c, 0, 75, 73
1, 304928, Note_off_c, 0, 79, 61
1, 304968, Note_off_c, 0, 75, 62
1, 305001, Note_on_c, 0, 70, 79
1, 305097, Note_on_c, 0, 67, 77
1, 305169, Note_off_c, 0, 70, 62
1, 305190, Note_off_c, 0, 67, 64
1, 305194, Note_on_c, 0, 63, 78
1, 305220, Note_off_c, 0, 63, 67
1, 305302, Note_on_c, 0, 58, 82
1, 305395, Note_off_c, 0, 58, 62
1, 305426, Note_on_c, 0, 51, 79
1, 305551, Note_on_c, 0, 39, 82
1, 305589, Note_off_c, 0, 39, 60
1, 305745, Note_off_c, 0, 51, 62
1, 305764, Note_on_c, 0, 27, 84
1, 305819, Control_c, 0, 64, 106
1, 305834, Control_c, 0, 64, 94
1, 305849, Control_c, 0, 64, 85
1, 305864, Control_c, 0, 64, 77
1, 305879, Control_c, 0, 64, 70
1, 305894, Control_c, 0, 64, 64
1, 305908, Control_c, 0, 64, 58
1, 305923, Control_c, 0, 64, 56
1, 306071, Control_c, 0, 64, 56
1, 306086, Control_c, 0, 64, 57
1, 306101, Control_c, 0, 64, 57
1, 306116, Control_c, 0, 64, 58
1, 306131, Control_c, 0, 64, 58
1, 306146, Control_c, 0, 64, 59
1, 306160, Control_c, 0, 64, 59
1, 306175, Control_c, 0, 64, 61
1, 306190, Control_c, 0, 64, 63
1, 306204, Control_c, 0, 64, 65
1, 306219, Control_c, 0, 64, 67
1, 306225, Note_on_c, 0, 46, 71
1, 306234, Control_c, 0, 64, 69
1, 306249, Control_c, 0, 64, 71
1, 306264, Control_c, 0, 64, 74
1, 306280, Control_c, 0, 64, 77
1, 306295, Control_c, 0, 64, 78
1, 306309, Control_c, 0, 64, 79
1, 306397, Note_on_c, 0, 51, 66
1, 306457, Note_off_c, 0, 46, 57
1, 306517, Control_c, 0, 64, 78
1, 306517, Note_on_c, 0, 56, 71
1, 306520, Note_off_c, 0, 51, 50
1, 306532, Control_c, 0, 64, 78
1, 306569, Control_c, 0, 64, 77
1, 306583, Control_c, 0, 64, 77
1, 306598, Control_c, 0, 64, 76
1, 306613, Control_c, 0, 64, 76
1, 306627, Note_on_c, 0, 55, 74
1, 306642, Control_c, 0, 64, 75
1, 306723, Note_off_c, 0, 56, 58
1, 306725, Note_on_c, 0, 53, 75
1, 306763, Note_off_c, 0, 55, 61
1, 306787, Note_off_c, 0, 53, 66
1, 306812, Note_on_c, 0, 51, 73
1, 306821, Control_c, 0, 64, 75
1, 306865, Control_c, 0, 64, 74
1, 306879, Control_c, 0, 64, 73
1, 306892, Note_on_c, 0, 55, 70
1, 306894, Control_c, 0, 64, 70
1, 306908, Control_c, 0, 64, 67
1, 306923, Control_c, 0, 64, 62
1, 306938, Control_c, 0, 64, 52
1, 306953, Control_c, 0, 64, 33
1, 306968, Control_c, 0, 64, 0
1, 306990, Note_on_c, 0, 56, 75
1, 307073, Note_off_c, 0, 56, 62
1, 307076, Note_on_c, 0, 60, 70
1, 307136, Note_off_c, 0, 27, 56
1, 307197, Note_on_c, 0, 58, 78
1, 307224, Note_off_c, 0, 60, 63
1, 307331, Control_c, 0, 64, 52
1, 307346, Control_c, 0, 64, 67
1, 307361, Control_c, 0, 64, 81
1, 307376, Control_c, 0, 64, 95
1, 307384, Note_off_c, 0, 51, 62
1, 307391, Control_c, 0, 64, 102
1, 307405, Note_off_c, 0, 55, 59
1, 307405, Control_c, 0, 64, 104
1, 307420, Control_c, 0, 64, 105
1, 307428, Note_off_c, 0, 58, 64
1, 307465, Control_c, 0, 64, 105
1, 307494, Control_c, 0, 64, 106
1, 307509, Control_c, 0, 64, 106
1, 307524, Control_c, 0, 64, 107
1, 307539, Control_c, 0, 64, 107
1, 307583, Control_c, 0, 64, 108
1, 307598, Control_c, 0, 64, 109
1, 307613, Control_c, 0, 64, 110
1, 307628, Control_c, 0, 64, 110
1, 307687, Control_c, 0, 64, 111
1, 307849, Control_c, 0, 64, 110
1, 307850, Note_on_c, 0, 58, 47
1, 307861, Note_on_c, 0, 70, 77
1, 307862, Note_on_c, 0, 67, 66
1, 307864, Control_c, 0, 64, 104
1, 307868, Note_on_c, 0, 63, 56
1, 307871, Note_on_c, 0, 51, 47
1, 307880, Control_c, 0, 64, 98
1, 307895, Control_c, 0, 64, 89
1, 307910, Control_c, 0, 64, 79
1, 307925, Control_c, 0, 64, 67
1, 307939, Control_c, 0, 64, 36
1, 307954, Control_c, 0, 64, 0
1, 308418, Note_on_c, 0, 72, 75
1, 308427, Note_off_c, 0, 58, 49
1, 308428, Note_on_c, 0, 60, 46
1, 308439, Note_off_c, 0, 70, 62
1, 308597, Note_on_c, 0, 70, 67
1, 308605, Note_off_c, 0, 60, 56
1, 308612, Note_on_c, 0, 58, 46
1, 308623, Note_off_c, 0, 72, 62
1, 308643, Control_c, 0, 64, 9
1, 308658, Control_c, 0, 64, 47
1, 308674, Control_c, 0, 64, 62
1, 308689, Control_c, 0, 64, 71
1, 308703, Control_c, 0, 64, 81
1, 308718, Control_c, 0, 64, 91
1, 308722, Note_off_c, 0, 58, 63
1, 308723, Note_off_c, 0, 51, 60
1, 308733, Control_c, 0, 64, 97
1, 308748, Control_c, 0, 64, 101
1, 308762, Control_c, 0, 64, 103
1, 308777, Control_c, 0, 64, 104
1, 308800, Note_off_c, 0, 70, 60
1, 308803, Note_off_c, 0, 67, 60
1, 308808, Note_off_c, 0, 63, 59
1, 308815, Control_c, 0, 64, 105
1, 308829, Control_c, 0, 64, 105
1, 309006, Note_on_c, 0, 46, 70
1, 309051, Control_c, 0, 64, 105
1, 309161, Note_on_c, 0, 51, 66
1, 309286, Note_on_c, 0, 56, 69
1, 309378, Control_c, 0, 64, 103
1, 309393, Control_c, 0, 64, 102
1, 309405, Note_on_c, 0, 39, 62
1, 309408, Control_c, 0, 64, 101
1, 309411, Note_on_c, 0, 55, 73
1, 309411, Note_off_c, 0, 51, 57
1, 309422, Control_c, 0, 64, 99
1, 309437, Control_c, 0, 64, 97
1, 309452, Control_c, 0, 64, 94
1, 309459, Note_off_c, 0, 46, 63
1, 309468, Control_c, 0, 64, 89
1, 309483, Control_c, 0, 64, 83
1, 309498, Control_c, 0, 64, 76
1, 309506, Note_off_c, 0, 56, 35
1, 309512, Control_c, 0, 64, 69
1, 309518, Note_on_c, 0, 53, 70
1, 309527, Control_c, 0, 64, 61
1, 309549, Control_c, 0, 64, 54
1, 309564, Control_c, 0, 64, 58
1, 309566, Note_off_c, 0, 55, 61
1, 309579, Control_c, 0, 64, 60
1, 309594, Control_c, 0, 64, 63
1, 309605, Note_off_c, 0, 53, 66
1, 309608, Control_c, 0, 64, 65
1, 309623, Control_c, 0, 64, 67
1, 309624, Note_on_c, 0, 51, 72
1, 309638, Control_c, 0, 64, 68
1, 309653, Control_c, 0, 64, 69
1, 309722, Note_on_c, 0, 55, 69
1, 309749, Note_off_c, 0, 51, 55
1, 309757, Control_c, 0, 64, 68
1, 309772, Control_c, 0, 64, 67
1, 309787, Control_c, 0, 64, 66
1, 309801, Control_c, 0, 64, 63
1, 309816, Control_c, 0, 64, 55
1, 309823, Note_on_c, 0, 58, 67
1, 309831, Control_c, 0, 64, 40
1, 309845, Control_c, 0, 64, 0
1, 309917, Note_off_c, 0, 58, 63
1, 309921, Note_on_c, 0, 63, 71
1, 310031, Note_on_c, 0, 58, 76
1, 310063, Note_off_c, 0, 63, 64
1, 310156, Control_c, 0, 64, 32
1, 310171, Control_c, 0, 64, 56
1, 310186, Control_c, 0, 64, 64
1, 310196, Note_off_c, 0, 39, 61
1, 310201, Control_c, 0, 64, 70
1, 310216, Control_c, 0, 64, 77
1, 310231, Control_c, 0, 64, 83
1, 310236, Note_off_c, 0, 55, 62
1, 310245, Control_c, 0, 64, 87
1, 310252, Note_off_c, 0, 58, 64
1, 310260, Control_c, 0, 64, 89
1, 310276, Control_c, 0, 64, 90
1, 310298, Control_c, 0, 64, 91
1, 310313, Control_c, 0, 64, 91
1, 310328, Control_c, 0, 64, 92
1, 310357, Control_c, 0, 64, 93
1, 310372, Control_c, 0, 64, 93
1, 310387, Control_c, 0, 64, 94
1, 310683, Control_c, 0, 64, 92
1, 310698, Control_c, 0, 64, 87
1, 310699, Note_on_c, 0, 70, 54
1, 310703, Note_on_c, 0, 63, 47
1, 310708, Note_on_c, 0, 79, 68
1, 310710, Note_on_c, 0, 82, 83
1, 310713, Control_c, 0, 64, 78
1, 310714, Note_on_c, 0, 75, 66
1, 310728, Control_c, 0, 64, 68
1, 310742, Control_c, 0, 64, 55
1, 310757, Control_c, 0, 64, 17
1, 310772, Control_c, 0, 64, 9
1, 310787, Control_c, 0, 64, 43
1, 310801, Control_c, 0, 64, 57
1, 310816, Control_c, 0, 64, 64
1, 310831, Control_c, 0, 64, 70
1, 310846, Control_c, 0, 64, 77
1, 310861, Control_c, 0, 64, 84
1, 310875, Control_c, 0, 64, 91
1, 310890, Control_c, 0, 64, 95
1, 310905, Control_c, 0, 64, 100
1, 310920, Control_c, 0, 64, 105
1, 310935, Control_c, 0, 64, 110
1, 310949, Control_c, 0, 64, 117
1, 310964, Control_c, 0, 64, 127
1, 311054, Note_off_c, 0, 75, 55
1, 311290, Note_off_c, 0, 82, 62
1, 311299, Note_on_c, 0, 75, 52
1, 311300, Note_on_c, 0, 87, 79
1, 311313, Note_off_c, 0, 70, 48
1, 311364, Note_off_c, 0, 75, 56
1, 311536, Note_on_c, 0, 82, 66
1, 311536, Note_on_c, 0, 70, 36
1, 311558, Note_off_c, 0, 87, 57
1, 311644, Note_off_c, 0, 79, 54
1, 311670, Note_off_c, 0, 82, 60
1, 311720, Note_off_c, 0, 70, 25
1, 311794, Control_c, 0, 67, 8
1, 311809, Control_c, 0, 67, 9
1, 311823, Control_c, 0, 67, 9
1, 311838, Control_c, 0, 67, 10
1, 311866, Note_off_c, 0, 63, 44
1, 311899, Control_c, 0, 67, 10
1, 312032, Control_c, 0, 67, 10
1, 312151, Control_c, 0, 67, 9
1, 312216, Note_on_c, 0, 46, 42
1, 312240, Control_c, 0, 67, 9
1, 312377, Note_off_c, 0, 46, 55
1, 312439, Note_on_c, 0, 51, 46
1, 312603, Control_c, 0, 67, 8
1, 312606, Note_on_c, 0, 56, 51
1, 312801, Note_on_c, 0, 27, 39
1, 312801, Note_on_c, 0, 39, 36
1, 312826, Control_c, 0, 67, 9
1, 312828, Note_on_c, 0, 54, 48
1, 312841, Control_c, 0, 64, 122
1, 312856, Control_c, 0, 64, 111
1, 312870, Control_c, 0, 64, 104
1, 312874, Note_off_c, 0, 56, 31
1, 312885, Control_c, 0, 64, 98
1, 312885, Control_c, 0, 67, 9
1, 312900, Control_c, 0, 64, 94
1, 312915, Control_c, 0, 64, 91
1, 312915, Control_c, 0, 67, 10
1, 312930, Control_c, 0, 64, 88
1, 312934, Note_off_c, 0, 51, 38
1, 312944, Control_c, 0, 64, 87
1, 312959, Control_c, 0, 64, 85
1, 312974, Control_c, 0, 64, 84
1, 312974, Control_c, 0, 67, 10
1, 312979, Note_on_c, 0, 53, 52
1, 312988, Control_c, 0, 64, 83
1, 313003, Control_c, 0, 64, 82
1, 313003, Control_c, 0, 67, 11
1, 313018, Control_c, 0, 64, 81
1, 313018, Control_c, 0, 67, 11
1, 313021, Note_off_c, 0, 54, 37
1, 313033, Control_c, 0, 64, 80
1, 313048, Control_c, 0, 64, 79
1, 313048, Control_c, 0, 67, 12
1, 313063, Control_c, 0, 64, 77
1, 313063, Control_c, 0, 67, 13
1, 313078, Control_c, 0, 64, 75
1, 313078, Control_c, 0, 67, 14
1, 313089, Note_off_c, 0, 53, 65
1, 313092, Control_c, 0, 64, 73
1, 313092, Control_c, 0, 67, 15
1, 313107, Control_c, 0, 64, 70
1, 313107, Control_c, 0, 67, 16
1, 313122, Control_c, 0, 64, 68
1, 313122, Control_c, 0, 67, 16
1, 313123, Note_on_c, 0, 51, 51
1, 313137, Control_c, 0, 64, 66
1, 313137, Control_c, 0, 67, 17
1, 313152, Control_c, 0, 64, 65
1, 313152, Control_c, 0, 67, 17
1, 313182, Control_c, 0, 64, 65
1, 313226, Control_c, 0, 64, 64
1, 313226, Control_c, 0, 67, 18
1, 313248, Note_on_c, 0, 54, 48
1, 313256, Control_c, 0, 64, 64
1, 313270, Control_c, 0, 64, 63
1, 313292, Control_c, 0, 64, 62
1, 313307, Control_c, 0, 64, 61
1, 313322, Control_c, 0, 64, 60
1, 313337, Control_c, 0, 64, 58
1, 313352, Control_c, 0, 64, 57
1, 313367, Control_c, 0, 64, 55
1, 313382, Control_c, 0, 64, 53
1, 313385, Note_on_c, 0, 56, 48
1, 313396, Control_c, 0, 64, 51
1, 313411, Control_c, 0, 64, 49
1, 313426, Control_c, 0, 64, 48
1, 313441, Control_c, 0, 64, 45
1, 313456, Control_c, 0, 64, 37
1, 313471, Control_c, 0, 64, 25
1, 313486, Control_c, 0, 64, 0
1, 313491, Note_off_c, 0, 56, 59
1, 313522, Note_on_c, 0, 59, 44
1, 313709, Note_off_c, 0, 59, 44
1, 313727, Note_on_c, 0, 58, 40
1, 313826, Control_c, 0, 67, 18
1, 313885, Control_c, 0, 64, 42
1, 313900, Control_c, 0, 64, 59
1, 313915, Control_c, 0, 64, 65
1, 313915, Control_c, 0, 67, 19
1, 313927, Note_off_c, 0, 27, 52
1, 313930, Control_c, 0, 64, 71
1, 313930, Control_c, 0, 67, 19
1, 313945, Control_c, 0, 64, 76
1, 313945, Control_c, 0, 67, 21
1, 313960, Control_c, 0, 64, 82
1, 313960, Control_c, 0, 67, 23
1, 313975, Control_c, 0, 64, 86
1, 313975, Control_c, 0, 67, 25
1, 313990, Control_c, 0, 64, 89
1, 313990, Control_c, 0, 67, 27
1, 314002, Note_off_c, 0, 39, 52
1, 314005, Control_c, 0, 64, 91
1, 314005, Control_c, 0, 67, 30
1, 314012, Note_off_c, 0, 51, 44
1, 314019, Control_c, 0, 64, 94
1, 314019, Control_c, 0, 67, 33
1, 314028, Note_off_c, 0, 54, 46
1, 314041, Control_c, 0, 64, 96
1, 314041, Control_c, 0, 67, 35
1, 314056, Control_c, 0, 64, 98
1, 314056, Control_c, 0, 67, 38
1, 314071, Control_c, 0, 64, 100
1, 314071, Control_c, 0, 67, 40
1, 314078, Note_off_c, 0, 58, 51
1, 314086, Control_c, 0, 64, 101
1, 314086, Control_c, 0, 67, 42
1, 314100, Control_c, 0, 64, 102
1, 314100, Control_c, 0, 67, 44
1, 314115, Control_c, 0, 67, 46
1, 314130, Control_c, 0, 67, 48
1, 314145, Control_c, 0, 64, 102
1, 314145, Control_c, 0, 67, 50
1, 314160, Control_c, 0, 67, 51
1, 314175, Control_c, 0, 67, 52
1, 314189, Control_c, 0, 67, 53
1, 314219, Control_c, 0, 67, 53
1, 314309, Control_c, 0, 67, 54
1, 314679, Control_c, 0, 64, 102
1, 314694, Control_c, 0, 64, 101
1, 314708, Control_c, 0, 64, 98
1, 314709, Note_on_c, 0, 70, 55
1, 314717, Note_on_c, 0, 63, 38
1, 314717, Note_on_c, 0, 66, 42
1, 314717, Note_on_c, 0, 58, 26
1, 314722, Note_on_c, 0, 51, 31
1, 314723, Control_c, 0, 64, 94
1, 314738, Control_c, 0, 64, 89
1, 314753, Control_c, 0, 64, 83
1, 314753, Control_c, 0, 67, 54
1, 314768, Control_c, 0, 64, 77
1, 314790, Control_c, 0, 64, 69
1, 314801, Note_off_c, 0, 66, 0
1, 314801, Note_on_c, 0, 66, 9
1, 314805, Control_c, 0, 64, 62
1, 314805, Control_c, 0, 67, 55
1, 314820, Control_c, 0, 64, 56
1, 314835, Control_c, 0, 64, 55
1, 314849, Control_c, 0, 64, 56
1, 314864, Control_c, 0, 64, 58
1, 314879, Control_c, 0, 64, 61
1, 314894, Control_c, 0, 64, 62
1, 314894, Control_c, 0, 67, 55
1, 314909, Control_c, 0, 64, 63
1, 314909, Control_c, 0, 67, 56
1, 314923, Control_c, 0, 64, 63
1, 314923, Control_c, 0, 67, 56
1, 314938, Control_c, 0, 64, 64
1, 314953, Control_c, 0, 64, 66
1, 314953, Control_c, 0, 67, 57
1, 314967, Control_c, 0, 64, 68
1, 314982, Control_c, 0, 64, 69
1, 314997, Control_c, 0, 64, 71
1, 315146, Control_c, 0, 64, 70
1, 315205, Control_c, 0, 64, 70
1, 315264, Control_c, 0, 64, 69
1, 315309, Control_c, 0, 64, 69
1, 315338, Control_c, 0, 64, 68
1, 315353, Control_c, 0, 64, 68
1, 315367, Note_off_c, 0, 70, 54
1, 315368, Control_c, 0, 64, 67
1, 315382, Note_off_c, 0, 58, 45
1, 315382, Control_c, 0, 64, 65
1, 315386, Note_on_c, 0, 71, 45
1, 315392, Note_on_c, 0, 59, 33
1, 315397, Control_c, 0, 64, 64
1, 315412, Control_c, 0, 64, 61
1, 315412, Control_c, 0, 67, 57
1, 315427, Control_c, 0, 64, 59
1, 315442, Control_c, 0, 64, 57
1, 315456, Control_c, 0, 64, 55
1, 315471, Control_c, 0, 64, 55
1, 315486, Control_c, 0, 64, 54
1, 315501, Control_c, 0, 64, 54
1, 315516, Control_c, 0, 64, 53
1, 315538, Control_c, 0, 64, 53
1, 315553, Control_c, 0, 64, 52
1, 315568, Control_c, 0, 64, 52
1, 315597, Control_c, 0, 64, 51
1, 315602, Note_off_c, 0, 71, 54
1, 315627, Note_off_c, 0, 59, 35
1, 315634, Note_on_c, 0, 70, 34
1, 315651, Note_on_c, 0, 58, 23
1, 315657, Control_c, 0, 67, 58
1, 315716, Control_c, 0, 64, 52
1, 315731, Control_c, 0, 64, 54
1, 315745, Control_c, 0, 64, 57
1, 315760, Control_c, 0, 64, 60
1, 315775, Control_c, 0, 64, 63
1, 315790, Control_c, 0, 64, 65
1, 315805, Control_c, 0, 64, 69
1, 315820, Control_c, 0, 64, 73
1, 315835, Control_c, 0, 64, 80
1, 315850, Control_c, 0, 64, 84
1, 315866, Control_c, 0, 64, 88
1, 315881, Control_c, 0, 64, 90
1, 315891, Note_off_c, 0, 58, 42
1, 315895, Control_c, 0, 64, 91
1, 315910, Control_c, 0, 64, 92
1, 315923, Note_off_c, 0, 51, 40
1, 315925, Control_c, 0, 64, 93
1, 315940, Control_c, 0, 64, 93
1, 315955, Control_c, 0, 64, 94
1, 315957, Note_off_c, 0, 70, 39
1, 315969, Control_c, 0, 64, 95
1, 315984, Control_c, 0, 64, 95
1, 315999, Control_c, 0, 64, 96
1, 316014, Control_c, 0, 64, 96
1, 316028, Note_off_c, 0, 66, 39
1, 316044, Control_c, 0, 64, 97
1, 316049, Note_off_c, 0, 63, 44
1, 316118, Control_c, 0, 64, 97
1, 316354, Note_on_c, 0, 46, 29
1, 316582, Note_on_c, 0, 51, 44
1, 316699, Note_off_c, 0, 46, 43
1, 316726, Note_on_c, 0, 56, 53
1, 316729, Note_off_c, 0, 51, 34
1, 316843, Note_on_c, 0, 39, 40
1, 316851, Control_c, 0, 64, 97
1, 316866, Control_c, 0, 64, 96
1, 316880, Note_on_c, 0, 54, 60
1, 316881, Control_c, 0, 64, 95
1, 316896, Control_c, 0, 64, 94
1, 316911, Control_c, 0, 64, 92
1, 316926, Control_c, 0, 64, 91
1, 316941, Control_c, 0, 64, 89
1, 316955, Control_c, 0, 64, 86
1, 316970, Control_c, 0, 64, 83
1, 316979, Note_off_c, 0, 56, 29
1, 316985, Control_c, 0, 64, 81
1, 317000, Control_c, 0, 64, 79
1, 317014, Note_on_c, 0, 53, 59
1, 317015, Control_c, 0, 64, 77
1, 317036, Control_c, 0, 64, 75
1, 317051, Control_c, 0, 64, 73
1, 317066, Control_c, 0, 64, 70
1, 317081, Control_c, 0, 64, 68
1, 317096, Control_c, 0, 64, 67
1, 317097, Note_off_c, 0, 54, 60
1, 317111, Control_c, 0, 64, 67
1, 317134, Note_off_c, 0, 53, 65
1, 317147, Note_on_c, 0, 51, 54
1, 317155, Control_c, 0, 64, 66
1, 317244, Control_c, 0, 64, 66
1, 317259, Control_c, 0, 64, 65
1, 317274, Control_c, 0, 64, 65
1, 317287, Note_off_c, 0, 51, 57
1, 317289, Control_c, 0, 64, 64
1, 317291, Note_on_c, 0, 54, 56
1, 317304, Control_c, 0, 64, 64
1, 317318, Control_c, 0, 64, 63
1, 317333, Control_c, 0, 64, 62
1, 317348, Control_c, 0, 64, 61
1, 317362, Control_c, 0, 64, 61
1, 317377, Control_c, 0, 64, 60
1, 317392, Control_c, 0, 64, 59
1, 317407, Control_c, 0, 64, 58
1, 317422, Control_c, 0, 64, 56
1, 317436, Control_c, 0, 64, 55
1, 317442, Note_on_c, 0, 58, 50
1, 317451, Control_c, 0, 64, 54
1, 317467, Control_c, 0, 64, 53
1, 317482, Control_c, 0, 64, 52
1, 317497, Control_c, 0, 64, 51
1, 317512, Control_c, 0, 64, 51
1, 317527, Control_c, 0, 64, 50
1, 317541, Control_c, 0, 64, 50
1, 317556, Control_c, 0, 64, 49
1, 317571, Control_c, 0, 64, 49
1, 317593, Note_off_c, 0, 58, 55
1, 317600, Control_c, 0, 64, 48
1, 317616, Note_on_c, 0, 63, 50
1, 317645, Control_c, 0, 64, 48
1, 317674, Control_c, 0, 64, 47
1, 317734, Control_c, 0, 64, 47
1, 317889, Control_c, 0, 64, 46
1, 317914, Note_on_c, 0, 58, 38
1, 317928, Note_off_c, 0, 63, 38
1, 318053, Control_c, 0, 64, 48
1, 318067, Control_c, 0, 64, 50
1, 318082, Control_c, 0, 64, 54
1, 318097, Control_c, 0, 64, 59
1, 318111, Control_c, 0, 64, 62
1, 318126, Control_c, 0, 64, 64
1, 318126, Control_c, 0, 67, 58
1, 318141, Control_c, 0, 64, 68
1, 318156, Control_c, 0, 64, 73
1, 318156, Control_c, 0, 67, 59
1, 318171, Control_c, 0, 64, 78
1, 318171, Control_c, 0, 67, 62
1, 318185, Control_c, 0, 64, 84
1, 318185, Control_c, 0, 67, 65
1, 318200, Control_c, 0, 64, 89
1, 318200, Control_c, 0, 67, 68
1, 318212, Note_off_c, 0, 39, 59
1, 318215, Control_c, 0, 64, 92
1, 318215, Control_c, 0, 67, 72
1, 318230, Control_c, 0, 64, 93
1, 318230, Control_c, 0, 67, 76
1, 318245, Control_c, 0, 64, 94
1, 318245, Control_c, 0, 67, 80
1, 318246, Note_off_c, 0, 54, 37
1, 318261, Control_c, 0, 64, 95
1, 318261, Control_c, 0, 67, 84
1, 318276, Control_c, 0, 67, 87
1, 318290, Control_c, 0, 67, 89
1, 318291, Note_off_c, 0, 58, 42
1, 318305, Control_c, 0, 67, 91
1, 318320, Control_c, 0, 64, 95
1, 318320, Control_c, 0, 67, 93
1, 318335, Control_c, 0, 67, 94
1, 318350, Control_c, 0, 67, 95
1, 318364, Control_c, 0, 67, 96
1, 318379, Control_c, 0, 67, 97
1, 318394, Control_c, 0, 67, 97
1, 318408, Control_c, 0, 67, 99
1, 318423, Control_c, 0, 67, 100
1, 318438, Control_c, 0, 67, 102
1, 318453, Control_c, 0, 67, 102
1, 318933, Control_c, 0, 64, 95
1, 319022, Control_c, 0, 64, 94
1, 319053, Control_c, 0, 64, 94
1, 319068, Control_c, 0, 64, 93
1, 319083, Control_c, 0, 64, 92
1, 319098, Note_on_c, 0, 70, 42
1, 319098, Control_c, 0, 64, 91
1, 319108, Note_on_c, 0, 63, 36
1, 319108, Note_on_c, 0, 82, 59
1, 319112, Control_c, 0, 64, 87
1, 319113, Note_on_c, 0, 78, 45
1, 319120, Note_on_c, 0, 75, 38
1, 319127, Control_c, 0, 64, 83
1, 319142, Control_c, 0, 64, 78
1, 319156, Control_c, 0, 64, 71
1, 319171, Control_c, 0, 64, 65
1, 319186, Control_c, 0, 64, 60
1, 319201, Control_c, 0, 64, 58
1, 319216, Control_c, 0, 64, 59
1, 319230, Control_c, 0, 64, 61
1, 319245, Control_c, 0, 64, 62
1, 319260, Control_c, 0, 64, 63
1, 319283, Control_c, 0, 64, 64
1, 319298, Control_c, 0, 64, 65
1, 319312, Control_c, 0, 64, 67
1, 319327, Control_c, 0, 64, 70
1, 319342, Control_c, 0, 64, 75
1, 319356, Control_c, 0, 64, 80
1, 319371, Control_c, 0, 64, 85
1, 319386, Control_c, 0, 64, 90
1, 319401, Control_c, 0, 64, 94
1, 319416, Control_c, 0, 64, 96
1, 319430, Control_c, 0, 64, 99
1, 319445, Control_c, 0, 64, 100
1, 319460, Control_c, 0, 64, 102
1, 319475, Control_c, 0, 64, 103
1, 319490, Control_c, 0, 64, 103
1, 319504, Control_c, 0, 64, 104
1, 319519, Control_c, 0, 64, 105
1, 319534, Control_c, 0, 64, 106
1, 319537, Note_off_c, 0, 63, 41
1, 319549, Control_c, 0, 64, 107
1, 319564, Control_c, 0, 64, 108
1, 319579, Control_c, 0, 64, 109
1, 319589, Note_off_c, 0, 75, 40
1, 319594, Control_c, 0, 64, 109
1, 319603, Note_off_c, 0, 70, 42
1, 319609, Control_c, 0, 64, 110
1, 319624, Control_c, 0, 64, 111
1, 319653, Control_c, 0, 64, 111
1, 319672, Note_off_c, 0, 78, 44
1, 319683, Control_c, 0, 64, 112
1, 319737, Note_off_c, 0, 82, 37
1, 319742, Control_c, 0, 64, 112
1, 319786, Control_c, 0, 64, 113
1, 320254, Note_on_c, 0, 90, 58
1, 320256, Note_on_c, 0, 78, 39
1, 320284, Note_off_c, 0, 78, 57
1, 320303, Note_off_c, 0, 90, 57
1, 320721, Note_on_c, 0, 90, 49
1, 320734, Note_on_c, 0, 78, 37
1, 321076, Control_c, 0, 64, 114
1, 321091, Control_c, 0, 64, 115
1, 321106, Control_c, 0, 64, 118
1, 321121, Control_c, 0, 64, 120
1, 321131, Note_off_c, 0, 78, 45
1, 321135, Control_c, 0, 64, 125
1, 321150, Control_c, 0, 64, 127
1, 321272, Note_off_c, 0, 90, 42
1, 322468, Note_on_c, 0, 49, 33
1, 322750, Note_on_c, 0, 54, 33
1, 322766, Note_off_c, 0, 49, 41
1, 322944, Control_c, 0, 67, 103
1, 322974, Control_c, 0, 67, 103
1, 322976, Note_off_c, 0, 54, 38
1, 322986, Note_on_c, 0, 59, 28
1, 323101, Control_c, 0, 67, 104
1, 323234, Control_c, 0, 64, 125
1, 323235, Note_off_c, 0, 59, 40
1, 323249, Control_c, 0, 64, 117
1, 323257, Note_on_c, 0, 58, 39
1, 323264, Control_c, 0, 64, 113
1, 323266, Note_on_c, 0, 30, 32
1, 323276, Note_on_c, 0, 42, 32
1, 323278, Control_c, 0, 64, 107
1, 323293, Control_c, 0, 64, 100
1, 323308, Control_c, 0, 64, 92
1, 323323, Control_c, 0, 64, 84
1, 323338, Control_c, 0, 64, 76
1, 323353, Control_c, 0, 64, 68
1, 323368, Control_c, 0, 64, 59
1, 323368, Control_c, 0, 67, 104
1, 323383, Control_c, 0, 64, 49
1, 323397, Control_c, 0, 64, 50
1, 323412, Control_c, 0, 64, 54
1, 323412, Control_c, 0, 67, 105
1, 323427, Control_c, 0, 64, 59
1, 323427, Control_c, 0, 67, 106
1, 323442, Control_c, 0, 64, 61
1, 323442, Control_c, 0, 67, 106
1, 323457, Control_c, 0, 64, 63
1, 323471, Control_c, 0, 64, 65
1, 323486, Control_c, 0, 64, 68
1, 323487, Note_off_c, 0, 58, 42
1, 323493, Note_on_c, 0, 54, 30
1, 323501, Control_c, 0, 64, 71
1, 323516, Control_c, 0, 64, 75
1, 323530, Control_c, 0, 64, 80
1, 323545, Control_c, 0, 64, 85
1, 323560, Control_c, 0, 64, 88
1, 323575, Control_c, 0, 64, 91
1, 323590, Control_c, 0, 64, 93
1, 323604, Control_c, 0, 64, 94
1, 323619, Control_c, 0, 64, 96
1, 323634, Control_c, 0, 64, 97
1, 323649, Control_c, 0, 64, 97
1, 323664, Control_c, 0, 64, 98
1, 323667, Note_off_c, 0, 54, 45
1, 323678, Control_c, 0, 64, 98
1, 323690, Note_on_c, 0, 49, 32
1, 323708, Control_c, 0, 64, 99
1, 323722, Control_c, 0, 64, 99
1, 323737, Control_c, 0, 64, 100
1, 323752, Control_c, 0, 64, 101
1, 323775, Control_c, 0, 64, 102
1, 323786, Note_off_c, 0, 49, 37
1, 323790, Control_c, 0, 64, 102
1, 323804, Control_c, 0, 64, 103
1, 323814, Note_on_c, 0, 54, 31
1, 323880, Control_c, 0, 64, 103
1, 323980, Note_off_c, 0, 54, 50
1, 323988, Note_on_c, 0, 58, 38
1, 324042, Control_c, 0, 64, 104
1, 324044, Note_off_c, 0, 58, 44
1, 324087, Control_c, 0, 64, 104
1, 324108, Note_on_c, 0, 63, 39
1, 324146, Control_c, 0, 64, 105
1, 324161, Control_c, 0, 64, 105
1, 324188, Note_off_c, 0, 30, 37
1, 324190, Control_c, 0, 64, 106
1, 324208, Note_off_c, 0, 63, 38
1, 324232, Note_on_c, 0, 61, 44
1, 324235, Control_c, 0, 64, 106
1, 324265, Control_c, 0, 64, 107
1, 324280, Control_c, 0, 64, 107
1, 324290, Note_off_c, 0, 42, 35
1, 324309, Control_c, 0, 64, 108
1, 324331, Note_off_c, 0, 61, 35
1, 324350, Note_on_c, 0, 58, 33
1, 324384, Note_off_c, 0, 58, 52
1, 324431, Note_on_c, 0, 54, 27
1, 324474, Note_off_c, 0, 54, 50
1, 324490, Note_on_c, 0, 58, 43
1, 324568, Control_c, 0, 64, 108
1, 324573, Note_off_c, 0, 58, 58
1, 324623, Note_on_c, 0, 61, 30
1, 324661, Note_off_c, 0, 61, 49
1, 324694, Note_on_c, 0, 68, 50
1, 324746, Note_off_c, 0, 68, 58
1, 324784, Note_on_c, 0, 66, 49
1, 324849, Note_off_c, 0, 66, 56
1, 324850, Control_c, 0, 64, 109
1, 324879, Note_on_c, 0, 61, 44
1, 324880, Control_c, 0, 64, 109
1, 324905, Note_off_c, 0, 61, 57
1, 324924, Control_c, 0, 64, 110
1, 324981, Note_on_c, 0, 58, 16
1, 325018, Note_on_c, 0, 61, 48
1, 325022, Note_off_c, 0, 58, 48
1, 325080, Note_off_c, 0, 61, 58
1, 325114, Note_on_c, 0, 42, 42
1, 325125, Note_on_c, 0, 66, 47
1, 325149, Note_off_c, 0, 42, 52
1, 325181, Note_off_c, 0, 66, 52
1, 325193, Note_on_c, 0, 49, 39
1, 325232, Note_on_c, 0, 71, 53
1, 325250, Control_c, 0, 64, 109
1, 325272, Control_c, 0, 64, 103
1, 325287, Control_c, 0, 64, 94
1, 325302, Control_c, 0, 64, 84
1, 325308, Note_off_c, 0, 71, 60
1, 325309, Note_on_c, 0, 58, 41
1, 325317, Control_c, 0, 64, 74
1, 325332, Control_c, 0, 64, 66
1, 325347, Note_on_c, 0, 70, 48
1, 325347, Control_c, 0, 64, 63
1, 325362, Control_c, 0, 64, 65
1, 325376, Control_c, 0, 64, 68
1, 325391, Control_c, 0, 64, 74
1, 325406, Control_c, 0, 64, 81
1, 325421, Control_c, 0, 64, 88
1, 325429, Note_off_c, 0, 70, 60
1, 325436, Control_c, 0, 64, 94
1, 325445, Note_on_c, 0, 66, 56
1, 325451, Control_c, 0, 64, 97
1, 325466, Control_c, 0, 64, 99
1, 325475, Note_off_c, 0, 66, 62
1, 325481, Control_c, 0, 64, 101
1, 325496, Control_c, 0, 64, 102
1, 325507, Note_on_c, 0, 61, 57
1, 325511, Control_c, 0, 64, 103
1, 325526, Control_c, 0, 64, 103
1, 325537, Note_off_c, 0, 61, 62
1, 325555, Control_c, 0, 64, 104
1, 325561, Note_on_c, 0, 66, 62
1, 325570, Control_c, 0, 64, 105
1, 325585, Control_c, 0, 64, 106
1, 325599, Control_c, 0, 64, 107
1, 325623, Note_off_c, 0, 66, 42
1, 325643, Note_on_c, 0, 70, 58
1, 325678, Note_off_c, 0, 58, 48
1, 325685, Note_off_c, 0, 70, 60
1, 325688, Control_c, 0, 67, 106
1, 325720, Note_on_c, 0, 75, 62
1, 325732, Control_c, 0, 67, 105
1, 325771, Note_off_c, 0, 75, 56
1, 325791, Note_on_c, 0, 73, 62
1, 325864, Note_off_c, 0, 73, 61
1, 325875, Note_on_c, 0, 70, 59
1, 325906, Note_off_c, 0, 70, 63
1, 325934, Note_on_c, 0, 66, 56
1, 325968, Note_off_c, 0, 66, 65
1, 325979, Note_on_c, 0, 70, 69
1, 326036, Control_c, 0, 67, 106
1, 326049, Note_off_c, 0, 70, 58
1, 326068, Note_on_c, 0, 73, 62
1, 326075, Note_off_c, 0, 49, 54
1, 326080, Control_c, 0, 67, 106
1, 326090, Note_off_c, 0, 73, 62
1, 326095, Control_c, 0, 67, 107
1, 326110, Control_c, 0, 67, 107
1, 326125, Control_c, 0, 67, 108
1, 326134, Note_on_c, 0, 80, 71
1, 326140, Control_c, 0, 67, 109
1, 326155, Control_c, 0, 67, 113
1, 326170, Control_c, 0, 67, 115
1, 326185, Control_c, 0, 67, 117
1, 326194, Note_off_c, 0, 80, 61
1, 326199, Control_c, 0, 67, 119
1, 326209, Note_on_c, 0, 78, 65
1, 326214, Control_c, 0, 67, 120
1, 326229, Control_c, 0, 67, 122
1, 326244, Control_c, 0, 67, 123
1, 326259, Control_c, 0, 67, 125
1, 326274, Control_c, 0, 67, 127
1, 326286, Note_on_c, 0, 73, 62
1, 326298, Note_off_c, 0, 78, 60
1, 326321, Note_off_c, 0, 73, 65
1, 326335, Note_on_c, 0, 70, 70
1, 326378, Note_off_c, 0, 70, 61
1, 326402, Note_on_c, 0, 73, 72
1, 326456, Note_off_c, 0, 73, 39
1, 326474, Note_on_c, 0, 78, 66
1, 326501, Note_off_c, 0, 78, 67
1, 326532, Note_on_c, 0, 83, 69
1, 326593, Note_off_c, 0, 83, 64
1, 326599, Note_on_c, 0, 82, 75
1, 326666, Note_on_c, 0, 78, 76
1, 326680, Note_off_c, 0, 82, 61
1, 326701, Note_off_c, 0, 78, 56
1, 326736, Note_on_c, 0, 73, 68
1, 326789, Note_off_c, 0, 73, 61
1, 326814, Note_on_c, 0, 78, 59
1, 326846, Note_off_c, 0, 78, 52
1, 326867, Note_on_c, 0, 82, 68
1, 326915, Note_on_c, 0, 54, 38
1, 326930, Note_off_c, 0, 82, 62
1, 326948, Note_off_c, 0, 54, 51
1, 326963, Note_on_c, 0, 87, 65
1, 326989, Note_on_c, 0, 61, 41
1, 327037, Control_c, 0, 64, 99
1, 327052, Control_c, 0, 64, 89
1, 327066, Note_on_c, 0, 70, 49
1, 327067, Control_c, 0, 64, 77
1, 327075, Note_on_c, 0, 85, 60
1, 327080, Note_off_c, 0, 87, 62
1, 327082, Control_c, 0, 64, 69
1, 327097, Control_c, 0, 64, 65
1, 327127, Control_c, 0, 64, 68
1, 327141, Control_c, 0, 64, 74
1, 327156, Note_on_c, 0, 82, 62
1, 327156, Control_c, 0, 64, 82
1, 327161, Note_off_c, 0, 85, 62
1, 327171, Control_c, 0, 64, 89
1, 327186, Control_c, 0, 64, 96
1, 327189, Note_off_c, 0, 82, 65
1, 327201, Control_c, 0, 64, 100
1, 327212, Note_on_c, 0, 78, 66
1, 327216, Control_c, 0, 64, 103
1, 327231, Control_c, 0, 64, 107
1, 327245, Control_c, 0, 64, 109
1, 327260, Control_c, 0, 64, 110
1, 327270, Note_off_c, 0, 78, 62
1, 327275, Control_c, 0, 64, 111
1, 327279, Note_on_c, 0, 82, 70
1, 327290, Control_c, 0, 64, 112
1, 327305, Control_c, 0, 64, 113
1, 327319, Control_c, 0, 64, 115
1, 327334, Control_c, 0, 64, 116
1, 327336, Note_off_c, 0, 82, 61
1, 327347, Note_on_c, 0, 85, 62
1, 327349, Control_c, 0, 64, 117
1, 327363, Control_c, 0, 64, 117
1, 327372, Note_off_c, 0, 85, 64
1, 327378, Control_c, 0, 64, 118
1, 327393, Control_c, 0, 64, 119
1, 327404, Note_on_c, 0, 92, 75
1, 327417, Note_off_c, 0, 70, 32
1, 327437, Control_c, 0, 64, 120
1, 327469, Note_on_c, 0, 90, 79
1, 327482, Control_c, 0, 64, 120
1, 327488, Note_off_c, 0, 92, 55
1, 327496, Control_c, 0, 64, 121
1, 327534, Control_c, 0, 64, 122
1, 327547, Note_on_c, 0, 85, 79
1, 327571, Note_off_c, 0, 90, 63
1, 327597, Note_off_c, 0, 85, 64
1, 327598, Note_on_c, 0, 82, 78
1, 327623, Control_c, 0, 64, 123
1, 327663, Note_off_c, 0, 82, 63
1, 327666, Note_on_c, 0, 85, 75
1, 327682, Control_c, 0, 64, 125
1, 327728, Note_off_c, 0, 85, 63
1, 327735, Note_on_c, 0, 90, 73
1, 327770, Note_off_c, 0, 90, 60
1, 327800, Note_on_c, 0, 95, 71
1, 327863, Note_on_c, 0, 94, 79
1, 327866, Note_off_c, 0, 95, 63
1, 327919, Control_c, 0, 64, 127
1, 327934, Note_on_c, 0, 90, 76
1, 327957, Note_off_c, 0, 94, 63
1, 327991, Note_off_c, 0, 90, 48
1, 328002, Note_on_c, 0, 85, 70
1, 328048, Note_off_c, 0, 85, 62
1, 328058, Note_on_c, 0, 90, 64
1, 328101, Note_off_c, 0, 61, 52
1, 328113, Note_off_c, 0, 90, 62
1, 328119, Note_on_c, 0, 94, 70
1, 328154, Note_off_c, 0, 94, 62
1, 328183, Note_on_c, 0, 99, 70
1, 328257, Note_on_c, 0, 97, 69
1, 328284, Note_off_c, 0, 99, 57
1, 328329, Note_off_c, 0, 97, 63
1, 328332, Note_on_c, 0, 94, 69
1, 328362, Note_off_c, 0, 94, 61
1, 328396, Note_on_c, 0, 90, 58
1, 328454, Note_off_c, 0, 90, 57
1, 328462, Note_on_c, 0, 94, 61
1, 328511, Note_off_c, 0, 94, 54
1, 328531, Note_on_c, 0, 97, 55
1, 328572, Note_on_c, 0, 54, 41
1, 328596, Note_off_c, 0, 97, 59
1, 328602, Note_off_c, 0, 54, 56
1, 328625, Note_on_c, 0, 99, 59
1, 328644, Note_on_c, 0, 61, 35
1, 328682, Note_off_c, 0, 61, 51
1, 328708, Note_on_c, 0, 70, 42
1, 328727, Note_off_c, 0, 99, 51
1, 328730, Note_on_c, 0, 97, 48
1, 328751, Note_off_c, 0, 70, 57
1, 328787, Note_off_c, 0, 97, 59
1, 328806, Note_on_c, 0, 94, 55
1, 328841, Note_off_c, 0, 94, 65
1, 328879, Note_on_c, 0, 90, 50
1, 328920, Note_off_c, 0, 90, 47
1, 328939, Note_on_c, 0, 94, 57
1, 328981, Note_off_c, 0, 94, 47
1, 329028, Note_on_c, 0, 97, 47
1, 329067, Note_off_c, 0, 97, 46
1, 329093, Note_on_c, 0, 99, 60
1, 329168, Note_off_c, 0, 99, 57
1, 329171, Note_on_c, 0, 97, 49
1, 329228, Note_off_c, 0, 97, 59
1, 329261, Note_on_c, 0, 94, 45
1, 329291, Note_off_c, 0, 94, 50
1, 329368, Note_on_c, 0, 90, 29
1, 329410, Note_off_c, 0, 90, 47
1, 329416, Note_on_c, 0, 94, 44
1, 329481, Note_off_c, 0, 94, 56
1, 329511, Note_on_c, 0, 97, 49
1, 329537, Note_on_c, 0, 54, 27
1, 329572, Note_off_c, 0, 97, 58
1, 329577, Note_off_c, 0, 54, 47
1, 329601, Note_on_c, 0, 99, 53
1, 329616, Note_on_c, 0, 61, 21
1, 329660, Note_off_c, 0, 61, 49
1, 329679, Note_off_c, 0, 99, 52
1, 329681, Note_on_c, 0, 70, 52
1, 329712, Note_on_c, 0, 97, 44
1, 329718, Note_off_c, 0, 70, 64
1, 329809, Note_off_c, 0, 97, 39
1, 329824, Note_on_c, 0, 94, 41
1, 329852, Note_off_c, 0, 94, 53
1, 329898, Note_on_c, 0, 90, 40
1, 329971, Note_on_c, 0, 94, 41
1, 329978, Note_off_c, 0, 90, 37
1, 330039, Note_off_c, 0, 94, 54
1, 330073, Note_on_c, 0, 97, 49
1, 330155, Note_off_c, 0, 97, 59
1, 330170, Note_on_c, 0, 54, 44
1, 330191, Note_on_c, 0, 99, 47
1, 330209, Note_off_c, 0, 54, 63
1, 330272, Note_on_c, 0, 61, 28
1, 330304, Note_off_c, 0, 99, 55
1, 330311, Note_on_c, 0, 97, 46
1, 330311, Note_off_c, 0, 61, 49
1, 330328, Note_on_c, 0, 70, 56
1, 330361, Note_off_c, 0, 70, 60
1, 330427, Note_off_c, 0, 97, 56
1, 330462, Note_on_c, 0, 94, 41
1, 330526, Note_off_c, 0, 94, 43
1, 330584, Note_on_c, 0, 90, 29
1, 330702, Note_off_c, 0, 90, 39
1, 330727, Note_on_c, 0, 94, 42
1, 330843, Note_on_c, 0, 97, 52
1, 330860, Note_off_c, 0, 94, 36
1, 330956, Note_off_c, 0, 97, 35
1, 330997, Note_on_c, 0, 54, 39
1, 331037, Note_on_c, 0, 99, 45
1, 331050, Note_off_c, 0, 54, 61
1, 331123, Control_c, 0, 64, 123
1, 331137, Control_c, 0, 64, 120
1, 331152, Control_c, 0, 64, 118
1, 331157, Note_on_c, 0, 61, 25
1, 331167, Control_c, 0, 64, 116
1, 331182, Control_c, 0, 64, 114
1, 331197, Control_c, 0, 64, 113
1, 331211, Control_c, 0, 64, 112
1, 331226, Control_c, 0, 64, 111
1, 331241, Control_c, 0, 64, 110
1, 331264, Control_c, 0, 64, 110
1, 331279, Control_c, 0, 64, 109
1, 331293, Control_c, 0, 64, 108
1, 331308, Control_c, 0, 64, 108
1, 331323, Control_c, 0, 64, 106
1, 331337, Control_c, 0, 64, 105
1, 331352, Control_c, 0, 64, 104
1, 331367, Control_c, 0, 64, 104
1, 331373, Note_off_c, 0, 99, 32
1, 331377, Note_on_c, 0, 97, 44
1, 331382, Control_c, 0, 64, 103
1, 331396, Note_on_c, 0, 70, 40
1, 331397, Control_c, 0, 64, 102
1, 331412, Control_c, 0, 64, 101
1, 331426, Control_c, 0, 64, 100
1, 331441, Control_c, 0, 64, 99
1, 331456, Control_c, 0, 64, 98
1, 331470, Control_c, 0, 64, 97
1, 331485, Control_c, 0, 64, 95
1, 331500, Control_c, 0, 64, 94
1, 331515, Control_c, 0, 64, 92
1, 331530, Control_c, 0, 64, 91
1, 331544, Control_c, 0, 64, 90
1, 331559, Control_c, 0, 64, 89
1, 331574, Control_c, 0, 64, 89
1, 331589, Control_c, 0, 64, 88
1, 331604, Control_c, 0, 64, 87
1, 331619, Control_c, 0, 64, 87
1, 331634, Control_c, 0, 64, 86
1, 331678, Control_c, 0, 64, 86
1, 331782, Control_c, 0, 64, 85
1, 331856, Note_off_c, 0, 70, 35
1, 331857, Control_c, 0, 64, 85
1, 331902, Control_c, 0, 64, 84
1, 331946, Control_c, 0, 64, 84
1, 331975, Control_c, 0, 64, 83
1, 332011, Note_off_c, 0, 97, 40
1, 332042, Control_c, 0, 64, 83
1, 332045, Note_off_c, 0, 61, 40
1, 332116, Control_c, 0, 64, 82
1, 332146, Control_c, 0, 64, 82
1, 332175, Control_c, 0, 64, 81
1, 332190, Control_c, 0, 64, 81
1, 332220, Control_c, 0, 64, 80
1, 332234, Control_c, 0, 64, 80
1, 332264, Control_c, 0, 64, 79
1, 332279, Control_c, 0, 64, 78
1, 332293, Control_c, 0, 64, 77
1, 332308, Control_c, 0, 64, 77
1, 332323, Control_c, 0, 64, 76
1, 332337, Control_c, 0, 64, 74
1, 332352, Control_c, 0, 64, 73
1, 332367, Control_c, 0, 64, 71
1, 332382, Control_c, 0, 64, 69
1, 332397, Control_c, 0, 64, 67
1, 332412, Control_c, 0, 64, 66
1, 332427, Control_c, 0, 64, 65
1, 332500, Control_c, 0, 64, 64
1, 332805, Control_c, 0, 64, 64
1, 332923, Control_c, 0, 64, 63
1, 333548, Note_on_c, 0, 90, 47
1, 333554, Note_on_c, 0, 66, 31
1, 333557, Note_on_c, 0, 54, 31
1, 333566, Note_on_c, 0, 78, 26
1, 333568, Control_c, 0, 64, 64
1, 333583, Control_c, 0, 64, 64
1, 333598, Control_c, 0, 64, 65
1, 333613, Control_c, 0, 64, 65
1, 333628, Control_c, 0, 64, 67
1, 333643, Control_c, 0, 64, 69
1, 333658, Control_c, 0, 64, 71
1, 333673, Control_c, 0, 64, 74
1, 333687, Control_c, 0, 64, 77
1, 333699, Note_off_c, 0, 78, 0
1, 333699, Note_on_c, 0, 78, 5
1, 333702, Control_c, 0, 64, 83
1, 333717, Control_c, 0, 64, 89
1, 333731, Control_c, 0, 64, 93
1, 333746, Control_c, 0, 64, 97
1, 333761, Control_c, 0, 64, 100
1, 333776, Control_c, 0, 64, 102
1, 333791, Control_c, 0, 64, 105
1, 333805, Control_c, 0, 64, 106
1, 333820, Control_c, 0, 64, 107
1, 333835, Control_c, 0, 64, 108
1, 333850, Control_c, 0, 64, 110
1, 333860, Note_off_c, 0, 66, 41
1, 333864, Control_c, 0, 64, 111
1, 333876, Note_off_c, 0, 90, 60
1, 333879, Control_c, 0, 64, 114
1, 333894, Control_c, 0, 64, 115
1, 333909, Control_c, 0, 64, 117
1, 333924, Control_c, 0, 64, 119
1, 333938, Control_c, 0, 64, 122
1, 333953, Control_c, 0, 64, 127
1, 333960, Note_off_c, 0, 78, 44
1, 334044, Note_off_c, 0, 54, 43
1, 334886, Note_on_c, 0, 78, 46
1, 334897, Note_on_c, 0, 66, 42
1, 334904, Note_on_c, 0, 42, 30
1, 334909, Note_on_c, 0, 54, 26
1, 335398, Note_off_c, 0, 54, 41
1, 335601, Note_off_c, 0, 42, 36
1, 335601, Note_off_c, 0, 78, 42
1, 335887, Note_off_c, 0, 66, 41
1, 336927, Note_on_c, 0, 42, 31
1, 336928, Note_on_c, 0, 30, 27
1, 336928, Note_on_c, 0, 66, 41
1, 336931, Note_on_c, 0, 54, 33
1, 338751, Control_c, 0, 67, 127
1, 338854, Control_c, 0, 67, 126
1, 338869, Control_c, 0, 67, 126
1, 338899, Control_c, 0, 67, 124
1, 338914, Control_c, 0, 67, 123
1, 338928, Control_c, 0, 67, 121
1, 338943, Control_c, 0, 67, 118
1, 338958, Control_c, 0, 67, 116
1, 338973, Control_c, 0, 67, 115
1, 338988, Control_c, 0, 67, 113
1, 339002, Control_c, 0, 67, 112
1, 339017, Control_c, 0, 67, 111
1, 339033, Control_c, 0, 67, 110
1, 339048, Control_c, 0, 67, 109
1, 339063, Control_c, 0, 67, 108
1, 339077, Control_c, 0, 67, 107
1, 339092, Control_c, 0, 67, 106
1, 339107, Note_off_c, 0, 42, 25
1, 339107, Control_c, 0, 67, 105
1, 339122, Control_c, 0, 67, 103
1, 339137, Control_c, 0, 67, 101
1, 339152, Control_c, 0, 67, 99
1, 339166, Control_c, 0, 67, 96
1, 339181, Control_c, 0, 67, 93
1, 339190, Note_off_c, 0, 30, 35
1, 339196, Control_c, 0, 67, 90
1, 339211, Control_c, 0, 67, 87
1, 339226, Control_c, 0, 67, 84
1, 339241, Control_c, 0, 67, 81
1, 339256, Control_c, 0, 67, 79
1, 339270, Control_c, 0, 67, 76
1, 339285, Control_c, 0, 67, 74
1, 339300, Control_c, 0, 67, 72
1, 339315, Control_c, 0, 67, 70
1, 339330, Control_c, 0, 67, 68
1, 339344, Control_c, 0, 67, 66
1, 339359, Control_c, 0, 67, 65
1, 339374, Control_c, 0, 67, 64
1, 339389, Control_c, 0, 67, 63
1, 339404, Control_c, 0, 67, 62
1, 339418, Control_c, 0, 67, 61
1, 339433, Control_c, 0, 67, 60
1, 339448, Control_c, 0, 67, 59
1, 339463, Control_c, 0, 67, 58
1, 339477, Control_c, 0, 67, 57
1, 339500, Control_c, 0, 67, 56
1, 339515, Control_c, 0, 67, 55
1, 339530, Control_c, 0, 67, 54
1, 339545, Control_c, 0, 67, 54
1, 339559, Control_c, 0, 67, 53
1, 339574, Control_c, 0, 67, 52
1, 339589, Control_c, 0, 67, 51
1, 339604, Control_c, 0, 67, 51
1, 339619, Control_c, 0, 67, 50
1, 339633, Control_c, 0, 67, 50
1, 339648, Control_c, 0, 67, 49
1, 339663, Control_c, 0, 67, 49
1, 339692, Control_c, 0, 67, 48
1, 339707, Control_c, 0, 67, 48
1, 339737, Control_c, 0, 67, 47
1, 339766, Control_c, 0, 67, 47
1, 339796, Control_c, 0, 67, 46
1, 339842, Control_c, 0, 67, 46
1, 339856, Control_c, 0, 67, 45
1, 339871, Control_c, 0, 67, 45
1, 339882, Note_off_c, 0, 54, 26
1, 339886, Control_c, 0, 67, 44
1, 339915, Control_c, 0, 67, 43
1, 339930, Control_c, 0, 67, 42
1, 339945, Control_c, 0, 67, 39
1, 339960, Control_c, 0, 67, 37
1, 339974, Control_c, 0, 67, 34
1, 339989, Control_c, 0, 67, 32
1, 339996, Note_off_c, 0, 66, 35
1, 340004, Control_c, 0, 67, 29
1, 340019, Control_c, 0, 67, 27
1, 340034, Control_c, 0, 67, 26
1, 340049, Control_c, 0, 67, 25
1, 340079, Control_c, 0, 67, 25
1, 340123, Control_c, 0, 67, 24
1, 341443, Control_c, 0, 64, 113
1, 341455, Note_on_c, 0, 66, 59
1, 341458, Control_c, 0, 64, 100
1, 341460, Note_on_c, 0, 47, 34
1, 341462, Note_on_c, 0, 63, 46
1, 341465, Note_on_c, 0, 54, 46
1, 341471, Note_on_c, 0, 35, 30
1, 341472, Control_c, 0, 64, 87
1, 341487, Control_c, 0, 64, 75
1, 341502, Control_c, 0, 64, 65
1, 341517, Control_c, 0, 64, 50
1, 341532, Control_c, 0, 64, 29
1, 341546, Control_c, 0, 64, 27
1, 341561, Control_c, 0, 64, 32
1, 341576, Control_c, 0, 64, 45
1, 341591, Control_c, 0, 64, 52
1, 341606, Control_c, 0, 64, 56
1, 341620, Control_c, 0, 64, 59
1, 341635, Control_c, 0, 64, 62
1, 341650, Control_c, 0, 64, 66
1, 341664, Control_c, 0, 64, 71
1, 341679, Control_c, 0, 64, 80
1, 341694, Control_c, 0, 64, 87
1, 341709, Control_c, 0, 64, 94
1, 341724, Control_c, 0, 64, 98
1, 341727, Note_off_c, 0, 63, 61
1, 341729, Note_off_c, 0, 47, 42
1, 341730, Note_off_c, 0, 66, 63
1, 341744, Note_off_c, 0, 35, 40
1, 341746, Control_c, 0, 64, 101
1, 341748, Note_off_c, 0, 54, 62
1, 341761, Control_c, 0, 64, 103
1, 341776, Control_c, 0, 64, 103
1, 341791, Control_c, 0, 64, 104
1, 341806, Control_c, 0, 64, 104
1, 341820, Control_c, 0, 64, 105
1, 341835, Control_c, 0, 64, 107
1, 341850, Control_c, 0, 64, 108
1, 341865, Control_c, 0, 64, 109
1, 341924, Control_c, 0, 64, 109
1, 342310, Control_c, 0, 64, 108
1, 342325, Control_c, 0, 64, 103
1, 342340, Control_c, 0, 64, 95
1, 342353, Note_on_c, 0, 63, 37
1, 342355, Control_c, 0, 64, 85
1, 342369, Control_c, 0, 64, 75
1, 342379, Note_on_c, 0, 35, 18
1, 342380, Note_on_c, 0, 47, 9
1, 342382, Note_on_c, 0, 54, 18
1, 342384, Control_c, 0, 64, 66
1, 342399, Control_c, 0, 64, 54
1, 342413, Poly_aftertouch_c, 0, 59, 127
1, 342414, Control_c, 0, 64, 35
1, 342429, Control_c, 0, 64, 31
1, 342443, Control_c, 0, 64, 32
1, 342473, Control_c, 0, 64, 32
1, 342525, Control_c, 0, 64, 33
1, 342540, Control_c, 0, 64, 35
1, 342555, Control_c, 0, 64, 38
1, 342556, Poly_aftertouch_c, 0, 59, 0
1, 342569, Control_c, 0, 64, 42
1, 342584, Control_c, 0, 64, 45
1, 342593, Poly_aftertouch_c, 0, 59, 127
1, 342599, Control_c, 0, 64, 48
1, 342614, Control_c, 0, 64, 50
1, 342628, Control_c, 0, 64, 55
1, 342643, Control_c, 0, 64, 57
1, 342658, Control_c, 0, 64, 59
1, 342673, Control_c, 0, 64, 60
1, 342688, Control_c, 0, 64, 62
1, 342702, Control_c, 0, 64, 65
1, 342717, Control_c, 0, 64, 68
1, 342732, Control_c, 0, 64, 71
1, 342747, Control_c, 0, 64, 74
1, 342762, Control_c, 0, 64, 77
1, 342776, Control_c, 0, 64, 79
1, 342791, Control_c, 0, 64, 80
1, 342806, Control_c, 0, 64, 81
1, 342821, Control_c, 0, 64, 82
1, 342821, Poly_aftertouch_c, 0, 59, 0
1, 342834, Note_off_c, 0, 35, 39
1, 342842, Note_off_c, 0, 54, 36
1, 342851, Control_c, 0, 64, 82
1, 342881, Control_c, 0, 64, 83
1, 342895, Control_c, 0, 64, 83
1, 342910, Control_c, 0, 64, 84
1, 342925, Note_off_c, 0, 47, 34
1, 342940, Control_c, 0, 64, 85
1, 342984, Control_c, 0, 64, 85
1, 343010, Note_off_c, 0, 63, 41
1, 343540, Control_c, 0, 64, 85
1, 343555, Control_c, 0, 64, 82
1, 343570, Control_c, 0, 64, 78
1, 343585, Control_c, 0, 64, 70
1, 343587, Note_on_c, 0, 66, 70
1, 343592, Note_on_c, 0, 54, 30
1, 343599, Control_c, 0, 64, 63
1, 343600, Note_on_c, 0, 47, 6
1, 343608, Note_on_c, 0, 63, 44
1, 343614, Control_c, 0, 64, 58
1, 343629, Control_c, 0, 64, 60
1, 343644, Control_c, 0, 64, 63
1, 343645, Note_off_c, 0, 63, 51
1, 343659, Control_c, 0, 64, 68
1, 343674, Control_c, 0, 64, 76
1, 343683, Note_off_c, 0, 54, 52
1, 343688, Control_c, 0, 64, 85
1, 343703, Control_c, 0, 64, 92
1, 343718, Control_c, 0, 64, 97
1, 343733, Control_c, 0, 64, 101
1, 343736, Note_off_c, 0, 47, 44
1, 343748, Control_c, 0, 64, 103
1, 343760, Note_off_c, 0, 66, 66
1, 343762, Control_c, 0, 64, 104
1, 343777, Control_c, 0, 64, 104
1, 343792, Control_c, 0, 67, 25
1, 343823, Control_c, 0, 64, 105
1, 343823, Control_c, 0, 67, 25
1, 343838, Control_c, 0, 64, 106
1, 343852, Control_c, 0, 64, 108
1, 343912, Control_c, 0, 64, 108
1, 343941, Control_c, 0, 67, 26
1, 344097, Control_c, 0, 64, 108
1, 344141, Control_c, 0, 64, 107
1, 344144, Note_on_c, 0, 47, 35
1, 344153, Note_on_c, 0, 54, 36
1, 344156, Control_c, 0, 64, 103
1, 344156, Control_c, 0, 67, 26
1, 344168, Note_on_c, 0, 71, 55
1, 344171, Control_c, 0, 64, 96
1, 344174, Note_on_c, 0, 63, 42
1, 344186, Control_c, 0, 64, 88
1, 344201, Control_c, 0, 64, 79
1, 344215, Control_c, 0, 64, 69
1, 344230, Control_c, 0, 64, 56
1, 344230, Control_c, 0, 67, 27
1, 344245, Control_c, 0, 64, 0
1, 344570, Control_c, 0, 67, 27
1, 344944, Note_on_c, 0, 70, 54
1, 344963, Note_off_c, 0, 71, 60
1, 344993, Control_c, 0, 67, 28
1, 345067, Control_c, 0, 67, 29
1, 345331, Note_on_c, 0, 68, 55
1, 345408, Note_off_c, 0, 70, 55
1, 345857, Note_on_c, 0, 66, 31
1, 345888, Note_off_c, 0, 68, 38
1, 345979, Control_c, 0, 67, 28
1, 346008, Control_c, 0, 67, 28
1, 346023, Control_c, 0, 67, 27
1, 346052, Control_c, 0, 64, 16
1, 346052, Control_c, 0, 67, 27
1, 346067, Control_c, 0, 64, 38
1, 346082, Control_c, 0, 64, 52
1, 346082, Control_c, 0, 67, 26
1, 346097, Control_c, 0, 64, 58
1, 346112, Control_c, 0, 64, 61
1, 346127, Control_c, 0, 64, 64
1, 346127, Control_c, 0, 67, 26
1, 346142, Control_c, 0, 64, 68
1, 346157, Control_c, 0, 64, 72
1, 346171, Control_c, 0, 64, 77
1, 346186, Note_off_c, 0, 54, 50
1, 346186, Control_c, 0, 64, 81
1, 346201, Control_c, 0, 64, 85
1, 346216, Control_c, 0, 64, 89
1, 346239, Control_c, 0, 64, 93
1, 346249, Note_off_c, 0, 47, 41
1, 346252, Note_off_c, 0, 66, 42
1, 346254, Control_c, 0, 64, 95
1, 346268, Control_c, 0, 64, 97
1, 346273, Note_off_c, 0, 63, 44
1, 346283, Control_c, 0, 64, 99
1, 346298, Control_c, 0, 64, 100
1, 346313, Control_c, 0, 64, 101
1, 346328, Control_c, 0, 64, 101
1, 346754, Note_on_c, 0, 63, 55
1, 346761, Note_on_c, 0, 35, 38
1, 346777, Note_on_c, 0, 59, 36
1, 346781, Note_on_c, 0, 54, 21
1, 346802, Poly_aftertouch_c, 0, 47, 127
1, 346805, Note_off_c, 0, 35, 47
1, 346807, Note_off_c, 0, 63, 50
1, 346821, Note_off_c, 0, 59, 46
1, 346827, Note_off_c, 0, 54, 48
1, 346842, Poly_aftertouch_c, 0, 47, 0
1, 346920, Control_c, 0, 64, 101
1, 346934, Control_c, 0, 64, 100
1, 346949, Control_c, 0, 64, 97
1, 346964, Control_c, 0, 64, 93
1, 346970, Note_on_c, 0, 63, 50
1, 346985, Control_c, 0, 64, 88
1, 346991, Note_on_c, 0, 47, 36
1, 346991, Note_on_c, 0, 35, 30
1, 346992, Note_on_c, 0, 54, 35
1, 347000, Note_on_c, 0, 59, 35
1, 347000, Control_c, 0, 64, 82
1, 347016, Control_c, 0, 64, 77
1, 347031, Control_c, 0, 64, 72
1, 347046, Control_c, 0, 64, 67
1, 347061, Control_c, 0, 64, 62
1, 347076, Control_c, 0, 64, 58
1, 347105, Control_c, 0, 64, 60
1, 347120, Control_c, 0, 64, 61
1, 347135, Control_c, 0, 64, 61
1, 347135, Control_c, 0, 67, 25
1, 347150, Control_c, 0, 64, 62
1, 347164, Control_c, 0, 64, 63
1, 347179, Control_c, 0, 64, 64
1, 347179, Control_c, 0, 67, 25
1, 347194, Control_c, 0, 64, 65
1, 347209, Control_c, 0, 64, 67
1, 347224, Control_c, 0, 64, 69
1, 347239, Control_c, 0, 64, 72
1, 347254, Control_c, 0, 64, 76
1, 347269, Control_c, 0, 64, 81
1, 347283, Control_c, 0, 64, 85
1, 347298, Control_c, 0, 64, 87
1, 347313, Control_c, 0, 64, 88
1, 347328, Control_c, 0, 64, 90
1, 347343, Control_c, 0, 64, 91
1, 347356, Note_off_c, 0, 47, 56
1, 347358, Control_c, 0, 64, 91
1, 347366, Note_off_c, 0, 54, 53
1, 347367, Note_off_c, 0, 59, 41
1, 347403, Control_c, 0, 64, 92
1, 347536, Control_c, 0, 67, 25
1, 347551, Control_c, 0, 67, 26
1, 347580, Control_c, 0, 67, 26
1, 347624, Control_c, 0, 67, 27
1, 347654, Control_c, 0, 67, 27
1, 347736, Control_c, 0, 67, 28
1, 347780, Control_c, 0, 67, 28
1, 347870, Control_c, 0, 64, 90
1, 347877, Note_on_c, 0, 40, 40
1, 347885, Control_c, 0, 64, 86
1, 347889, Note_on_c, 0, 64, 57
1, 347895, Note_on_c, 0, 59, 49
1, 347898, Note_on_c, 0, 56, 37
1, 347900, Control_c, 0, 64, 81
1, 347914, Control_c, 0, 64, 74
1, 347915, Note_off_c, 0, 63, 55
1, 347929, Control_c, 0, 64, 67
1, 347944, Control_c, 0, 64, 62
1, 347953, Note_off_c, 0, 35, 42
1, 347959, Control_c, 0, 64, 61
1, 347964, Note_off_c, 0, 56, 0
1, 347964, Note_on_c, 0, 56, 9
1, 347974, Control_c, 0, 64, 64
1, 347988, Control_c, 0, 64, 66
1, 348003, Control_c, 0, 64, 70
1, 348018, Control_c, 0, 64, 73
1, 348032, Control_c, 0, 64, 78
1, 348047, Control_c, 0, 64, 82
1, 348062, Control_c, 0, 64, 86
1, 348077, Control_c, 0, 64, 90
1, 348092, Control_c, 0, 64, 93
1, 348106, Note_off_c, 0, 59, 60
1, 348107, Control_c, 0, 64, 95
1, 348121, Control_c, 0, 64, 97
1, 348129, Note_off_c, 0, 56, 48
1, 348136, Control_c, 0, 64, 98
1, 348136, Control_c, 0, 67, 28
1, 348166, Control_c, 0, 67, 27
1, 348196, Control_c, 0, 67, 27
1, 348270, Control_c, 0, 67, 26
1, 348300, Control_c, 0, 67, 26
1, 348329, Control_c, 0, 64, 96
1, 348336, Note_on_c, 0, 59, 51
1, 348338, Note_on_c, 0, 63, 72
1, 348344, Control_c, 0, 64, 91
1, 348344, Control_c, 0, 67, 25
1, 348349, Note_on_c, 0, 47, 42
1, 348355, Note_on_c, 0, 54, 52
1, 348358, Note_off_c, 0, 64, 61
1, 348359, Control_c, 0, 64, 83
1, 348374, Control_c, 0, 64, 75
1, 348375, Note_off_c, 0, 40, 52
1, 348375, Note_off_c, 0, 59, 60
1, 348388, Control_c, 0, 64, 67
1, 348403, Control_c, 0, 64, 64
1, 348418, Control_c, 0, 64, 66
1, 348432, Control_c, 0, 64, 70
1, 348432, Control_c, 0, 67, 25
1, 348447, Control_c, 0, 64, 75
1, 348462, Control_c, 0, 64, 81
1, 348485, Control_c, 0, 64, 85
1, 348486, Note_off_c, 0, 54, 47
1, 348500, Control_c, 0, 64, 89
1, 348514, Control_c, 0, 64, 91
1, 348529, Control_c, 0, 64, 93
1, 348544, Control_c, 0, 64, 95
1, 348558, Control_c, 0, 64, 97
1, 348573, Control_c, 0, 64, 98
1, 348588, Control_c, 0, 64, 98
1, 348603, Control_c, 0, 64, 99
1, 348619, Control_c, 0, 64, 100
1, 348634, Control_c, 0, 64, 100
1, 348678, Control_c, 0, 64, 97
1, 348693, Control_c, 0, 64, 88
1, 348699, Note_off_c, 0, 47, 58
1, 348701, Note_on_c, 0, 40, 54
1, 348708, Control_c, 0, 64, 74
1, 348714, Note_on_c, 0, 64, 69
1, 348716, Note_on_c, 0, 59, 49
1, 348723, Note_off_c, 0, 63, 61
1, 348723, Control_c, 0, 64, 63
1, 348726, Note_on_c, 0, 56, 53
1, 348737, Control_c, 0, 64, 52
1, 348752, Control_c, 0, 64, 56
1, 348765, Note_off_c, 0, 59, 64
1, 348767, Control_c, 0, 64, 63
1, 348780, Note_off_c, 0, 56, 57
1, 348782, Control_c, 0, 64, 69
1, 348797, Control_c, 0, 64, 78
1, 348811, Control_c, 0, 64, 91
1, 348826, Control_c, 0, 64, 99
1, 348826, Control_c, 0, 67, 24
1, 348841, Control_c, 0, 64, 102
1, 348852, Note_off_c, 0, 64, 65
1, 348856, Control_c, 0, 64, 103
1, 348870, Control_c, 0, 64, 105
1, 348885, Control_c, 0, 64, 106
1, 348900, Control_c, 0, 64, 107
1, 348915, Control_c, 0, 64, 108
1, 348959, Control_c, 0, 64, 108
1, 348974, Control_c, 0, 64, 109
1, 348989, Control_c, 0, 64, 109
1, 349003, Control_c, 0, 64, 110
1, 349063, Control_c, 0, 64, 107
1, 349078, Control_c, 0, 64, 98
1, 349093, Control_c, 0, 64, 85
1, 349095, Note_on_c, 0, 68, 66
1, 349105, Note_on_c, 0, 37, 41
1, 349108, Control_c, 0, 64, 74
1, 349108, Control_c, 0, 67, 25
1, 349108, Note_on_c, 0, 64, 49
1, 349123, Control_c, 0, 64, 65
1, 349123, Note_on_c, 0, 59, 39
1, 349137, Control_c, 0, 64, 62
1, 349149, Note_off_c, 0, 59, 60
1, 349152, Control_c, 0, 64, 65
1, 349167, Control_c, 0, 64, 70
1, 349176, Note_off_c, 0, 40, 27
1, 349181, Control_c, 0, 64, 79
1, 349191, Note_off_c, 0, 37, 58
1, 349196, Control_c, 0, 64, 89
1, 349211, Control_c, 0, 64, 97
1, 349226, Control_c, 0, 64, 101
1, 349248, Control_c, 0, 64, 102
1, 349263, Control_c, 0, 64, 103
1, 349267, Note_off_c, 0, 64, 0
1, 349267, Note_on_c, 0, 64, 4
1, 349278, Control_c, 0, 64, 103
1, 349293, Control_c, 0, 64, 104
1, 349307, Control_c, 0, 64, 105
1, 349307, Control_c, 0, 67, 25
1, 349322, Control_c, 0, 64, 106
1, 349367, Control_c, 0, 67, 26
1, 349396, Control_c, 0, 67, 26
1, 349486, Control_c, 0, 67, 27
1, 349590, Control_c, 0, 64, 104
1, 349591, Note_on_c, 0, 42, 42
1, 349599, Note_on_c, 0, 61, 66
1, 349602, Note_on_c, 0, 58, 50
1, 349603, Note_on_c, 0, 52, 34
1, 349604, Control_c, 0, 64, 101
1, 349619, Control_c, 0, 64, 97
1, 349619, Control_c, 0, 67, 27
1, 349634, Control_c, 0, 64, 92
1, 349649, Control_c, 0, 64, 84
1, 349664, Control_c, 0, 64, 75
1, 349678, Control_c, 0, 64, 66
1, 349693, Control_c, 0, 64, 52
1, 349708, Control_c, 0, 64, 16
1, 349723, Control_c, 0, 64, 0
1, 349752, Note_off_c, 0, 64, 56
1, 349770, Note_off_c, 0, 68, 57
1, 350390, Note_on_c, 0, 51, 34
1, 350427, Note_on_c, 0, 60, 60
1, 350454, Note_off_c, 0, 61, 62
1, 350455, Note_off_c, 0, 52, 57
1, 350760, Control_c, 0, 67, 27
1, 350775, Control_c, 0, 67, 26
1, 350777, Note_on_c, 0, 61, 71
1, 350783, Note_on_c, 0, 52, 41
1, 350805, Control_c, 0, 67, 26
1, 350820, Control_c, 0, 64, 9
1, 350821, Note_off_c, 0, 58, 38
1, 350830, Note_off_c, 0, 51, 55
1, 350834, Note_off_c, 0, 42, 45
1, 350834, Note_off_c, 0, 60, 59
1, 350834, Control_c, 0, 64, 31
1, 350834, Control_c, 0, 67, 25
1, 350849, Control_c, 0, 64, 44
1, 350864, Control_c, 0, 64, 52
1, 350879, Control_c, 0, 64, 56
1, 350894, Control_c, 0, 64, 59
1, 350908, Control_c, 0, 64, 61
1, 350923, Control_c, 0, 64, 63
1, 350938, Control_c, 0, 64, 64
1, 350953, Control_c, 0, 64, 65
1, 350968, Control_c, 0, 64, 66
1, 350983, Control_c, 0, 64, 67
1, 351072, Control_c, 0, 64, 67
1, 351117, Control_c, 0, 64, 66
1, 351162, Control_c, 0, 64, 66
1, 351191, Control_c, 0, 64, 65
1, 351206, Control_c, 0, 64, 65
1, 351236, Control_c, 0, 64, 64
1, 351265, Control_c, 0, 64, 64
1, 351280, Control_c, 0, 64, 63
1, 351295, Control_c, 0, 64, 62
1, 351296, Note_on_c, 0, 64, 58
1, 351301, Note_on_c, 0, 56, 34
1, 351303, Note_on_c, 0, 58, 42
1, 351310, Control_c, 0, 64, 60
1, 351324, Control_c, 0, 64, 57
1, 351339, Control_c, 0, 64, 54
1, 351354, Control_c, 0, 64, 51
1, 351368, Note_off_c, 0, 61, 58
1, 351369, Control_c, 0, 64, 48
1, 351383, Control_c, 0, 64, 47
1, 351453, Note_off_c, 0, 52, 52
1, 351457, Control_c, 0, 64, 47
1, 351480, Control_c, 0, 64, 49
1, 351480, Control_c, 0, 67, 26
1, 351495, Control_c, 0, 64, 52
1, 351510, Control_c, 0, 64, 55
1, 351525, Control_c, 0, 64, 58
1, 351539, Control_c, 0, 64, 62
1, 351554, Control_c, 0, 64, 64
1, 351569, Control_c, 0, 64, 69
1, 351583, Control_c, 0, 64, 74
1, 351598, Control_c, 0, 64, 80
1, 351613, Control_c, 0, 64, 84
1, 351628, Control_c, 0, 64, 88
1, 351643, Control_c, 0, 64, 91
1, 351657, Control_c, 0, 64, 94
1, 351672, Control_c, 0, 64, 95
1, 351687, Control_c, 0, 64, 97
1, 351702, Control_c, 0, 64, 99
1, 351717, Control_c, 0, 64, 101
1, 351725, Note_off_c, 0, 58, 36
1, 351731, Control_c, 0, 64, 105
1, 351746, Control_c, 0, 64, 108
1, 351761, Control_c, 0, 64, 112
1, 351776, Control_c, 0, 64, 115
1, 351791, Control_c, 0, 64, 117
1, 351806, Control_c, 0, 64, 120
1, 351821, Control_c, 0, 64, 125
1, 351836, Control_c, 0, 64, 127
1, 351988, Note_on_c, 0, 63, 54
1, 351990, Note_off_c, 0, 64, 54
1, 351991, Note_off_c, 0, 56, 43
1, 351992, Note_on_c, 0, 54, 44
1, 352023, Note_off_c, 0, 54, 63
1, 352031, Note_off_c, 0, 63, 60
1, 352177, Control_c, 0, 64, 121
1, 352192, Control_c, 0, 64, 117
1, 352206, Control_c, 0, 64, 113
1, 352229, Control_c, 0, 64, 106
1, 352244, Control_c, 0, 64, 99
1, 352259, Control_c, 0, 64, 92
1, 352262, Note_on_c, 0, 63, 44
1, 352266, Note_on_c, 0, 54, 30
1, 352269, Note_on_c, 0, 59, 35
1, 352273, Control_c, 0, 64, 85
1, 352274, Note_on_c, 0, 47, 28
1, 352288, Control_c, 0, 64, 79
1, 352288, Control_c, 0, 67, 26
1, 352303, Control_c, 0, 64, 73
1, 352318, Control_c, 0, 64, 68
1, 352333, Control_c, 0, 64, 61
1, 352348, Control_c, 0, 64, 56
1, 352362, Control_c, 0, 64, 55
1, 352377, Control_c, 0, 64, 56
1, 352392, Control_c, 0, 64, 57
1, 352406, Control_c, 0, 64, 58
1, 352421, Control_c, 0, 64, 59
1, 352436, Control_c, 0, 64, 60
1, 352451, Control_c, 0, 64, 61
1, 352466, Control_c, 0, 64, 63
1, 352480, Control_c, 0, 64, 64
1, 352495, Control_c, 0, 64, 65
1, 352510, Control_c, 0, 64, 67
1, 352510, Control_c, 0, 67, 26
1, 352525, Control_c, 0, 64, 69
1, 352525, Control_c, 0, 67, 25
1, 352540, Control_c, 0, 64, 71
1, 352554, Control_c, 0, 64, 75
1, 352569, Control_c, 0, 64, 79
1, 352576, Note_off_c, 0, 54, 0
1, 352584, Control_c, 0, 64, 83
1, 352600, Note_off_c, 0, 59, 40
1, 352600, Control_c, 0, 64, 86
1, 352600, Control_c, 0, 67, 25
1, 352614, Poly_aftertouch_c, 0, 54, 127
1, 352615, Control_c, 0, 64, 89
1, 352629, Control_c, 0, 64, 91
1, 352644, Control_c, 0, 64, 93
1, 352659, Control_c, 0, 64, 95
1, 352670, Note_off_c, 0, 47, 41
1, 352674, Control_c, 0, 64, 96
1, 352689, Control_c, 0, 64, 96
1, 352700, Poly_aftertouch_c, 0, 54, 0
1, 352703, Control_c, 0, 64, 97
1, 352733, Control_c, 0, 64, 97
1, 352756, Note_off_c, 0, 63, 45
1, 353007, Control_c, 0, 64, 97
1, 353037, Control_c, 0, 67, 25
1, 353096, Control_c, 0, 64, 95
1, 353106, Note_on_c, 0, 65, 66
1, 353111, Note_on_c, 0, 46, 36
1, 353111, Control_c, 0, 64, 91
1, 353115, Note_on_c, 0, 56, 37
1, 353126, Control_c, 0, 64, 84
1, 353126, Control_c, 0, 67, 26
1, 353128, Note_on_c, 0, 63, 39
1, 353141, Control_c, 0, 64, 76
1, 353155, Control_c, 0, 64, 69
1, 353170, Control_c, 0, 64, 61
1, 353185, Control_c, 0, 64, 49
1, 353200, Control_c, 0, 67, 26
1, 353215, Control_c, 0, 64, 54
1, 353229, Control_c, 0, 64, 58
1, 353244, Control_c, 0, 64, 60
1, 353259, Control_c, 0, 64, 62
1, 353274, Control_c, 0, 64, 64
1, 353289, Control_c, 0, 64, 66
1, 353289, Control_c, 0, 67, 27
1, 353303, Control_c, 0, 64, 70
1, 353318, Control_c, 0, 64, 75
1, 353333, Control_c, 0, 64, 80
1, 353347, Control_c, 0, 64, 84
1, 353362, Control_c, 0, 64, 88
1, 353377, Control_c, 0, 64, 92
1, 353377, Control_c, 0, 67, 27
1, 353392, Control_c, 0, 64, 95
1, 353408, Control_c, 0, 64, 97
1, 353423, Control_c, 0, 64, 98
1, 353438, Control_c, 0, 64, 99
1, 353452, Control_c, 0, 64, 100
1, 353582, Note_off_c, 0, 63, 41
1, 353651, Note_on_c, 0, 66, 77
1, 353680, Note_off_c, 0, 65, 57
1, 353770, Note_off_c, 0, 56, 43
1, 353950, Note_on_c, 0, 53, 52
1, 354008, Control_c, 0, 64, 99
1, 354023, Control_c, 0, 64, 99
1, 354038, Control_c, 0, 64, 96
1, 354041, Note_on_c, 0, 68, 73
1, 354053, Control_c, 0, 64, 91
1, 354056, Note_on_c, 0, 62, 47
1, 354068, Control_c, 0, 64, 83
1, 354083, Note_off_c, 0, 66, 51
1, 354083, Control_c, 0, 64, 74
1, 354098, Control_c, 0, 64, 65
1, 354113, Control_c, 0, 64, 51
1, 354127, Control_c, 0, 64, 37
1, 354142, Control_c, 0, 64, 45
1, 354157, Control_c, 0, 64, 55
1, 354171, Control_c, 0, 64, 60
1, 354186, Control_c, 0, 64, 64
1, 354202, Control_c, 0, 64, 68
1, 354217, Control_c, 0, 64, 73
1, 354232, Control_c, 0, 64, 80
1, 354247, Control_c, 0, 64, 86
1, 354262, Control_c, 0, 64, 90
1, 354276, Control_c, 0, 64, 94
1, 354291, Control_c, 0, 64, 97
1, 354306, Control_c, 0, 64, 99
1, 354321, Control_c, 0, 64, 100
1, 354328, Note_on_c, 0, 58, 60
1, 354350, Control_c, 0, 64, 101
1, 354368, Note_off_c, 0, 53, 63
1, 354409, Control_c, 0, 64, 101
1, 354424, Control_c, 0, 64, 102
1, 354439, Control_c, 0, 64, 102
1, 354454, Control_c, 0, 64, 103
1, 354576, Note_on_c, 0, 53, 51
1, 354581, Note_off_c, 0, 58, 51
1, 354635, Note_off_c, 0, 46, 42
1, 354653, Note_off_c, 0, 68, 63
1, 354656, Note_on_c, 0, 70, 71
1, 354890, Control_c, 0, 64, 102
1, 354903, Note_on_c, 0, 51, 36
1, 354905, Control_c, 0, 64, 100
1, 354919, Control_c, 0, 64, 96
1, 354922, Note_on_c, 0, 58, 42
1, 354926, Note_on_c, 0, 68, 60
1, 354934, Note_on_c, 0, 63, 50
1, 354934, Control_c, 0, 64, 91
1, 354948, Note_off_c, 0, 70, 53
1, 354949, Control_c, 0, 64, 84
1, 354964, Control_c, 0, 64, 76
1, 354979, Control_c, 0, 64, 65
1, 354989, Note_off_c, 0, 62, 55
1, 354990, Note_off_c, 0, 53, 42
1, 354995, Control_c, 0, 64, 49
1, 355010, Control_c, 0, 64, 0
1, 355446, Control_c, 0, 67, 28
1, 355461, Control_c, 0, 67, 28
1, 355476, Control_c, 0, 67, 29
1, 355491, Control_c, 0, 67, 29
1, 355505, Control_c, 0, 67, 30
1, 355520, Control_c, 0, 67, 30
1, 355549, Control_c, 0, 67, 31
1, 355564, Control_c, 0, 67, 31
1, 355594, Control_c, 0, 67, 32
1, 355624, Control_c, 0, 67, 32
1, 355654, Control_c, 0, 67, 33
1, 355684, Control_c, 0, 67, 33
1, 355728, Control_c, 0, 67, 34
1, 355760, Note_on_c, 0, 66, 45
1, 355803, Control_c, 0, 67, 34
1, 355812, Note_off_c, 0, 68, 37
1, 355818, Control_c, 0, 67, 35
1, 355833, Control_c, 0, 67, 35
1, 355847, Control_c, 0, 67, 36
1, 355862, Control_c, 0, 67, 37
1, 355877, Control_c, 0, 67, 40
1, 355892, Control_c, 0, 67, 43
1, 355907, Control_c, 0, 64, 17
1, 355907, Control_c, 0, 67, 47
1, 355921, Control_c, 0, 64, 32
1, 355921, Control_c, 0, 67, 52
1, 355936, Control_c, 0, 64, 44
1, 355936, Control_c, 0, 67, 59
1, 355951, Control_c, 0, 64, 52
1, 355951, Control_c, 0, 67, 66
1, 355973, Control_c, 0, 64, 58
1, 355973, Control_c, 0, 67, 74
1, 355988, Control_c, 0, 64, 61
1, 355988, Control_c, 0, 67, 82
1, 356003, Control_c, 0, 64, 64
1, 356003, Control_c, 0, 67, 90
1, 356017, Control_c, 0, 64, 67
1, 356017, Control_c, 0, 67, 95
1, 356032, Control_c, 0, 64, 71
1, 356032, Control_c, 0, 67, 97
1, 356047, Control_c, 0, 64, 76
1, 356047, Control_c, 0, 67, 99
1, 356062, Control_c, 0, 64, 81
1, 356062, Control_c, 0, 67, 101
1, 356077, Control_c, 0, 64, 85
1, 356077, Control_c, 0, 67, 103
1, 356080, Note_off_c, 0, 58, 42
1, 356092, Control_c, 0, 64, 88
1, 356092, Control_c, 0, 67, 105
1, 356107, Control_c, 0, 64, 90
1, 356107, Control_c, 0, 67, 106
1, 356121, Control_c, 0, 64, 93
1, 356136, Control_c, 0, 64, 95
1, 356147, Note_off_c, 0, 66, 34
1, 356151, Control_c, 0, 64, 96
1, 356166, Control_c, 0, 64, 98
1, 356180, Control_c, 0, 64, 98
1, 356181, Note_off_c, 0, 51, 42
1, 356195, Control_c, 0, 64, 99
1, 356344, Note_off_c, 0, 63, 30
1, 356626, Control_c, 0, 67, 105
1, 356781, Control_c, 0, 64, 98
1, 356796, Control_c, 0, 64, 97
1, 356810, Control_c, 0, 64, 96
1, 356825, Control_c, 0, 64, 93
1, 356836, Note_on_c, 0, 56, 36
1, 356838, Note_on_c, 0, 44, 37
1, 356840, Control_c, 0, 64, 88
1, 356841, Note_on_c, 0, 51, 35
1, 356849, Note_on_c, 0, 66, 44
1, 356849, Note_on_c, 0, 60, 35
1, 356855, Control_c, 0, 64, 82
1, 356870, Control_c, 0, 64, 75
1, 356885, Control_c, 0, 64, 67
1, 356900, Control_c, 0, 64, 59
1, 356915, Control_c, 0, 64, 47
1, 356930, Control_c, 0, 64, 44
1, 356944, Control_c, 0, 64, 46
1, 356959, Control_c, 0, 64, 48
1, 356974, Control_c, 0, 64, 50
1, 356989, Control_c, 0, 64, 52
1, 357003, Control_c, 0, 64, 54
1, 357018, Control_c, 0, 64, 56
1, 357033, Control_c, 0, 64, 57
1, 357047, Control_c, 0, 64, 59
1, 357047, Control_c, 0, 67, 105
1, 357062, Control_c, 0, 64, 60
1, 357076, Control_c, 0, 64, 62
1, 357091, Control_c, 0, 64, 64
1, 357106, Control_c, 0, 64, 67
1, 357120, Control_c, 0, 64, 71
1, 357120, Control_c, 0, 67, 104
1, 357135, Control_c, 0, 64, 75
1, 357150, Control_c, 0, 64, 80
1, 357165, Control_c, 0, 64, 83
1, 357180, Control_c, 0, 64, 86
1, 357195, Control_c, 0, 64, 87
1, 357210, Control_c, 0, 64, 89
1, 357225, Control_c, 0, 64, 90
1, 357240, Control_c, 0, 64, 91
1, 357255, Control_c, 0, 64, 92
1, 357269, Control_c, 0, 64, 94
1, 357284, Control_c, 0, 64, 95
1, 357299, Control_c, 0, 64, 96
1, 357313, Control_c, 0, 64, 97
1, 357328, Control_c, 0, 64, 97
1, 357335, Note_off_c, 0, 44, 31
1, 357338, Note_off_c, 0, 56, 38
1, 357343, Control_c, 0, 64, 98
1, 357358, Control_c, 0, 64, 98
1, 357373, Control_c, 0, 64, 99
1, 357404, Control_c, 0, 64, 99
1, 357499, Control_c, 0, 64, 100
1, 357505, Note_off_c, 0, 60, 43
1, 357658, Note_off_c, 0, 66, 39
1, 357678, Note_on_c, 0, 68, 48
1, 357905, Note_off_c, 0, 68, 26
1, 357943, Control_c, 0, 64, 99
1, 357958, Control_c, 0, 64, 98
1, 357973, Control_c, 0, 64, 94
1, 357974, Note_on_c, 0, 64, 44
1, 357977, Note_on_c, 0, 49, 35
1, 357985, Note_on_c, 0, 56, 30
1, 357988, Control_c, 0, 64, 88
1, 357993, Note_on_c, 0, 61, 36
1, 358003, Control_c, 0, 64, 81
1, 358018, Control_c, 0, 64, 72
1, 358033, Control_c, 0, 64, 64
1, 358037, Note_off_c, 0, 51, 43
1, 358047, Control_c, 0, 64, 55
1, 358062, Control_c, 0, 64, 48
1, 358077, Control_c, 0, 64, 50
1, 358092, Control_c, 0, 64, 52
1, 358107, Control_c, 0, 64, 54
1, 358122, Control_c, 0, 64, 55
1, 358136, Control_c, 0, 64, 55
1, 358151, Control_c, 0, 64, 56
1, 358166, Control_c, 0, 64, 58
1, 358181, Control_c, 0, 64, 60
1, 358197, Control_c, 0, 64, 62
1, 358219, Control_c, 0, 64, 63
1, 358234, Control_c, 0, 64, 65
1, 358248, Control_c, 0, 64, 68
1, 358263, Control_c, 0, 64, 72
1, 358278, Control_c, 0, 64, 77
1, 358293, Control_c, 0, 64, 82
1, 358308, Control_c, 0, 64, 86
1, 358322, Control_c, 0, 64, 89
1, 358337, Control_c, 0, 64, 91
1, 358340, Note_off_c, 0, 56, 37
1, 358352, Control_c, 0, 64, 93
1, 358366, Control_c, 0, 64, 95
1, 358381, Control_c, 0, 64, 96
1, 358396, Control_c, 0, 64, 98
1, 358411, Control_c, 0, 64, 99
1, 358426, Control_c, 0, 64, 101
1, 358441, Control_c, 0, 64, 102
1, 358456, Control_c, 0, 64, 102
1, 358458, Note_off_c, 0, 64, 41
1, 358471, Control_c, 0, 64, 103
1, 358486, Control_c, 0, 64, 103
1, 358528, Note_off_c, 0, 61, 41
1, 358666, Note_off_c, 0, 49, 42
1, 358930, Control_c, 0, 64, 100
1, 358945, Control_c, 0, 64, 95
1, 358950, Note_on_c, 0, 64, 55
1, 358966, Note_on_c, 0, 61, 41
1, 358966, Control_c, 0, 64, 88
1, 358969, Note_on_c, 0, 56, 36
1, 358970, Note_on_c, 0, 49, 37
1, 358981, Control_c, 0, 64, 81
1, 358997, Control_c, 0, 64, 76
1, 359012, Control_c, 0, 64, 72
1, 359027, Control_c, 0, 64, 70
1, 359042, Control_c, 0, 64, 71
1, 359057, Control_c, 0, 64, 74
1, 359071, Control_c, 0, 64, 78
1, 359086, Control_c, 0, 64, 83
1, 359101, Control_c, 0, 64, 88
1, 359116, Control_c, 0, 64, 92
1, 359131, Control_c, 0, 64, 96
1, 359135, Note_off_c, 0, 61, 53
1, 359145, Control_c, 0, 64, 98
1, 359160, Control_c, 0, 64, 99
1, 359175, Control_c, 0, 64, 100
1, 359177, Note_off_c, 0, 56, 43
1, 359189, Control_c, 0, 64, 101
1, 359204, Control_c, 0, 64, 101
1, 359401, Note_off_c, 0, 64, 52
1, 359412, Control_c, 0, 64, 100
1, 359427, Control_c, 0, 64, 95
1, 359431, Note_on_c, 0, 63, 55
1, 359440, Note_on_c, 0, 44, 40
1, 359442, Control_c, 0, 64, 88
1, 359445, Note_on_c, 0, 59, 46
1, 359454, Note_off_c, 0, 49, 42
1, 359454, Note_on_c, 0, 56, 37
1, 359457, Control_c, 0, 64, 78
1, 359471, Control_c, 0, 64, 70
1, 359486, Control_c, 0, 64, 62
1, 359501, Control_c, 0, 64, 57
1, 359511, Note_off_c, 0, 56, 51
1, 359515, Control_c, 0, 64, 61
1, 359530, Control_c, 0, 64, 64
1, 359545, Control_c, 0, 64, 69
1, 359555, Note_off_c, 0, 59, 60
1, 359560, Control_c, 0, 64, 74
1, 359575, Control_c, 0, 64, 79
1, 359589, Control_c, 0, 64, 85
1, 359604, Control_c, 0, 64, 90
1, 359619, Control_c, 0, 64, 93
1, 359634, Control_c, 0, 64, 96
1, 359649, Control_c, 0, 64, 98
1, 359663, Control_c, 0, 64, 99
1, 359678, Control_c, 0, 64, 100
1, 359693, Control_c, 0, 64, 101
1, 359715, Control_c, 0, 64, 102
1, 359865, Control_c, 0, 64, 100
1, 359872, Note_off_c, 0, 63, 35
1, 359880, Control_c, 0, 64, 95
1, 359880, Control_c, 0, 67, 105
1, 359894, Control_c, 0, 64, 88
1, 359895, Note_on_c, 0, 64, 52
1, 359899, Note_on_c, 0, 49, 40
1, 359902, Note_on_c, 0, 61, 37
1, 359908, Note_on_c, 0, 56, 40
1, 359909, Control_c, 0, 64, 80
1, 359909, Control_c, 0, 67, 105
1, 359924, Control_c, 0, 64, 72
1, 359934, Note_off_c, 0, 44, 41
1, 359939, Control_c, 0, 64, 64
1, 359954, Control_c, 0, 64, 58
1, 359968, Control_c, 0, 64, 60
1, 359983, Control_c, 0, 64, 64
1, 359998, Control_c, 0, 64, 68
1, 360012, Control_c, 0, 64, 73
1, 360027, Control_c, 0, 64, 80
1, 360042, Control_c, 0, 64, 86
1, 360055, Note_off_c, 0, 61, 41
1, 360057, Control_c, 0, 64, 90
1, 360072, Control_c, 0, 64, 94
1, 360086, Control_c, 0, 64, 96
1, 360091, Note_off_c, 0, 56, 43
1, 360101, Control_c, 0, 64, 97
1, 360116, Control_c, 0, 64, 99
1, 360131, Control_c, 0, 64, 100
1, 360146, Control_c, 0, 64, 101
1, 360383, Control_c, 0, 64, 98
1, 360398, Control_c, 0, 64, 91
1, 360412, Control_c, 0, 64, 82
1, 360414, Note_on_c, 0, 66, 49
1, 360417, Note_on_c, 0, 58, 39
1, 360417, Note_off_c, 0, 64, 37
1, 360418, Note_on_c, 0, 61, 35
1, 360427, Note_on_c, 0, 42, 34
1, 360427, Control_c, 0, 64, 73
1, 360439, Note_off_c, 0, 49, 44
1, 360442, Control_c, 0, 64, 64
1, 360457, Control_c, 0, 64, 53
1, 360480, Control_c, 0, 64, 49
1, 360494, Control_c, 0, 64, 56
1, 360509, Control_c, 0, 64, 63
1, 360524, Control_c, 0, 64, 68
1, 360538, Control_c, 0, 64, 74
1, 360553, Control_c, 0, 64, 80
1, 360568, Control_c, 0, 64, 85
1, 360583, Control_c, 0, 64, 89
1, 360599, Control_c, 0, 64, 91
1, 360612, Note_off_c, 0, 66, 60
1, 360614, Control_c, 0, 64, 94
1, 360622, Note_off_c, 0, 58, 61
1, 360629, Control_c, 0, 64, 95
1, 360640, Note_off_c, 0, 61, 51
1, 360643, Control_c, 0, 64, 96
1, 360658, Control_c, 0, 64, 97
1, 360703, Control_c, 0, 64, 98
1, 361029, Control_c, 0, 64, 97
1, 361088, Control_c, 0, 64, 96
1, 361100, Note_on_c, 0, 64, 45
1, 361100, Note_on_c, 0, 66, 45
1, 361103, Control_c, 0, 64, 94
1, 361106, Note_on_c, 0, 30, 35
1, 361113, Note_on_c, 0, 54, 26
1, 361118, Control_c, 0, 64, 89
1, 361133, Control_c, 0, 64, 83
1, 361137, Note_on_c, 0, 58, 21
1, 361148, Control_c, 0, 64, 75
1, 361162, Control_c, 0, 64, 66
1, 361177, Control_c, 0, 64, 58
1, 361192, Control_c, 0, 64, 51
1, 361207, Control_c, 0, 64, 54
1, 361229, Control_c, 0, 64, 59
1, 361243, Control_c, 0, 64, 62
1, 361258, Control_c, 0, 64, 64
1, 361273, Control_c, 0, 64, 65
1, 361288, Control_c, 0, 64, 68
1, 361303, Control_c, 0, 64, 71
1, 361318, Control_c, 0, 64, 75
1, 361332, Control_c, 0, 64, 79
1, 361347, Control_c, 0, 64, 83
1, 361362, Control_c, 0, 64, 86
1, 361367, Note_off_c, 0, 30, 49
1, 361372, Note_off_c, 0, 42, 52
1, 361377, Control_c, 0, 64, 88
1, 361392, Control_c, 0, 64, 89
1, 361407, Control_c, 0, 64, 90
1, 361409, Note_off_c, 0, 64, 33
1, 361422, Control_c, 0, 64, 91
1, 361427, Note_off_c, 0, 58, 42
1, 361436, Note_off_c, 0, 54, 45
1, 361452, Control_c, 0, 64, 91
1, 362140, Control_c, 0, 64, 91
1, 362185, Control_c, 0, 64, 90
1, 362200, Control_c, 0, 64, 89
1, 362215, Note_on_c, 0, 63, 42
1, 362215, Control_c, 0, 64, 86
1, 362219, Note_on_c, 0, 35, 24
1, 362230, Control_c, 0, 64, 82
1, 362234, Note_on_c, 0, 59, 35
1, 362237, Note_on_c, 0, 54, 28
1, 362245, Control_c, 0, 64, 76
1, 362260, Note_off_c, 0, 66, 27
1, 362260, Control_c, 0, 64, 70
1, 362274, Control_c, 0, 64, 63
1, 362289, Control_c, 0, 64, 52
1, 362304, Control_c, 0, 64, 42
1, 362319, Control_c, 0, 64, 41
1, 362348, Control_c, 0, 64, 41
1, 362363, Control_c, 0, 64, 42
1, 362378, Control_c, 0, 64, 42
1, 362393, Control_c, 0, 64, 44
1, 362407, Control_c, 0, 64, 47
1, 362422, Control_c, 0, 64, 50
1, 362437, Control_c, 0, 64, 52
1, 362452, Control_c, 0, 64, 54
1, 362467, Control_c, 0, 64, 56
1, 362467, Control_c, 0, 67, 105
1, 362481, Control_c, 0, 64, 58
1, 362496, Control_c, 0, 64, 61
1, 362511, Control_c, 0, 64, 63
1, 362526, Control_c, 0, 64, 66
1, 362540, Control_c, 0, 64, 69
1, 362555, Control_c, 0, 64, 73
1, 362570, Control_c, 0, 64, 77
1, 362585, Control_c, 0, 64, 81
1, 362600, Control_c, 0, 64, 83
1, 362605, Note_off_c, 0, 59, 34
1, 362614, Control_c, 0, 64, 84
1, 362629, Control_c, 0, 64, 84
1, 362674, Control_c, 0, 64, 85
1, 362711, Control_c, 0, 64, 85
1, 362716, Note_off_c, 0, 35, 41
1, 362719, Note_off_c, 0, 54, 39
1, 362740, Control_c, 0, 67, 105
1, 362829, Control_c, 0, 67, 106
1, 362885, Note_off_c, 0, 63, 35
1, 363023, Control_c, 0, 67, 106
1, 363563, Control_c, 0, 64, 85
1, 363608, Control_c, 0, 64, 84
1, 363652, Control_c, 0, 64, 84
1, 363667, Control_c, 0, 64, 83
1, 363681, Control_c, 0, 64, 82
1, 363682, Note_on_c, 0, 75, 62
1, 363691, Note_on_c, 0, 63, 35
1, 363693, Note_on_c, 0, 66, 44
1, 363696, Control_c, 0, 64, 79
1, 363697, Note_on_c, 0, 59, 34
1, 363711, Control_c, 0, 64, 75
1, 363726, Control_c, 0, 64, 67
1, 363741, Control_c, 0, 64, 60
1, 363756, Control_c, 0, 64, 49
1, 363771, Control_c, 0, 64, 44
1, 363802, Control_c, 0, 64, 45
1, 363817, Control_c, 0, 64, 47
1, 363817, Control_c, 0, 67, 106
1, 363832, Control_c, 0, 64, 50
1, 363832, Control_c, 0, 67, 105
1, 363847, Control_c, 0, 64, 52
1, 363847, Control_c, 0, 67, 105
1, 363861, Control_c, 0, 64, 55
1, 363861, Control_c, 0, 67, 104
1, 363876, Control_c, 0, 64, 58
1, 363876, Control_c, 0, 67, 104
1, 363891, Control_c, 0, 64, 60
1, 363891, Control_c, 0, 67, 103
1, 363906, Control_c, 0, 64, 62
1, 363906, Control_c, 0, 67, 102
1, 363921, Control_c, 0, 64, 65
1, 363921, Control_c, 0, 67, 101
1, 363935, Control_c, 0, 64, 68
1, 363935, Control_c, 0, 67, 101
1, 363950, Control_c, 0, 64, 73
1, 363950, Control_c, 0, 67, 100
1, 363965, Control_c, 0, 64, 78
1, 363965, Control_c, 0, 67, 100
1, 363979, Control_c, 0, 64, 81
1, 363979, Control_c, 0, 67, 99
1, 363994, Control_c, 0, 64, 84
1, 363994, Control_c, 0, 67, 99
1, 364009, Control_c, 0, 64, 87
1, 364009, Control_c, 0, 67, 98
1, 364024, Control_c, 0, 64, 89
1, 364024, Control_c, 0, 67, 98
1, 364030, Note_off_c, 0, 63, 45
1, 364039, Control_c, 0, 64, 90
1, 364039, Control_c, 0, 67, 97
1, 364054, Control_c, 0, 64, 91
1, 364069, Control_c, 0, 64, 92
1, 364077, Note_off_c, 0, 66, 56
1, 364099, Control_c, 0, 64, 92
1, 364113, Control_c, 0, 67, 98
1, 364143, Control_c, 0, 67, 98
1, 364173, Control_c, 0, 67, 99
1, 364202, Control_c, 0, 67, 99
1, 364254, Control_c, 0, 67, 100
1, 364298, Control_c, 0, 67, 100
1, 364373, Control_c, 0, 67, 101
1, 364476, Control_c, 0, 64, 92
1, 364488, Note_on_c, 0, 73, 56
1, 364491, Control_c, 0, 64, 90
1, 364491, Control_c, 0, 67, 101
1, 364503, Note_on_c, 0, 66, 41
1, 364505, Control_c, 0, 64, 87
1, 364507, Note_off_c, 0, 75, 54
1, 364516, Note_on_c, 0, 61, 17
1, 364520, Control_c, 0, 64, 82
1, 364521, Note_on_c, 0, 58, 20
1, 364527, Note_off_c, 0, 59, 39
1, 364535, Control_c, 0, 64, 74
1, 364550, Control_c, 0, 64, 67
1, 364565, Control_c, 0, 64, 59
1, 364581, Control_c, 0, 64, 51
1, 364596, Control_c, 0, 64, 54
1, 364596, Control_c, 0, 67, 102
1, 364610, Control_c, 0, 64, 58
1, 364625, Note_off_c, 0, 58, 0
1, 364625, Note_on_c, 0, 58, 3
1, 364625, Control_c, 0, 64, 61
1, 364640, Control_c, 0, 64, 63
1, 364655, Control_c, 0, 64, 65
1, 364670, Control_c, 0, 64, 67
1, 364684, Control_c, 0, 64, 72
1, 364699, Control_c, 0, 64, 77
1, 364699, Control_c, 0, 67, 102
1, 364714, Control_c, 0, 64, 82
1, 364728, Control_c, 0, 64, 86
1, 364743, Control_c, 0, 64, 90
1, 364758, Control_c, 0, 64, 92
1, 364771, Note_off_c, 0, 58, 52
1, 364773, Control_c, 0, 64, 93
1, 364788, Control_c, 0, 64, 94
1, 364792, Note_off_c, 0, 61, 40
1, 364832, Control_c, 0, 64, 95
1, 364892, Control_c, 0, 64, 95
1, 365062, Control_c, 0, 64, 95
1, 365166, Control_c, 0, 64, 94
1, 365181, Control_c, 0, 64, 93
1, 365196, Control_c, 0, 64, 90
1, 365201, Note_on_c, 0, 56, 37
1, 365208, Note_off_c, 0, 66, 43
1, 365210, Note_on_c, 0, 64, 45
1, 365210, Control_c, 0, 64, 85
1, 365225, Control_c, 0, 64, 80
1, 365226, Note_on_c, 0, 59, 33
1, 365240, Control_c, 0, 64, 73
1, 365255, Control_c, 0, 64, 65
1, 365270, Control_c, 0, 64, 56
1, 365283, Control_c, 0, 64, 46
1, 365298, Control_c, 0, 64, 44
1, 365432, Control_c, 0, 64, 43
1, 365477, Control_c, 0, 64, 43
1, 365506, Control_c, 0, 64, 42
1, 365580, Control_c, 0, 64, 42
1, 365610, Control_c, 0, 64, 41
1, 365655, Control_c, 0, 64, 41
1, 365736, Control_c, 0, 64, 40
1, 365854, Control_c, 0, 64, 40
1, 365869, Control_c, 0, 67, 102
1, 365874, Note_on_c, 0, 55, 37
1, 365878, Note_on_c, 0, 71, 55
1, 365899, Control_c, 0, 67, 101
1, 365944, Control_c, 0, 67, 101
1, 365958, Control_c, 0, 67, 100
1, 365971, Note_off_c, 0, 73, 56
1, 365988, Control_c, 0, 67, 100
1, 365995, Note_off_c, 0, 56, 40
1, 366003, Control_c, 0, 64, 40
1, 366018, Control_c, 0, 64, 42
1, 366018, Control_c, 0, 67, 99
1, 366032, Control_c, 0, 64, 45
1, 366032, Control_c, 0, 67, 99
1, 366047, Control_c, 0, 64, 48
1, 366047, Control_c, 0, 67, 98
1, 366062, Control_c, 0, 64, 51
1, 366062, Control_c, 0, 67, 98
1, 366077, Control_c, 0, 64, 53
1, 366077, Control_c, 0, 67, 97
1, 366091, Control_c, 0, 64, 57
1, 366091, Control_c, 0, 67, 96
1, 366106, Control_c, 0, 64, 61
1, 366106, Control_c, 0, 67, 96
1, 366121, Control_c, 0, 64, 63
1, 366121, Control_c, 0, 67, 95
1, 366136, Control_c, 0, 64, 67
1, 366136, Control_c, 0, 67, 94
1, 366150, Control_c, 0, 64, 71
1, 366150, Control_c, 0, 67, 92
1, 366165, Control_c, 0, 64, 76
1, 366165, Control_c, 0, 67, 90
1, 366176, Note_off_c, 0, 59, 55
1, 366181, Control_c, 0, 64, 81
1, 366181, Control_c, 0, 67, 88
1, 366196, Control_c, 0, 64, 85
1, 366196, Control_c, 0, 67, 86
1, 366211, Control_c, 0, 64, 87
1, 366211, Control_c, 0, 67, 84
1, 366226, Control_c, 0, 64, 89
1, 366226, Control_c, 0, 67, 82
1, 366241, Control_c, 0, 64, 89
1, 366241, Control_c, 0, 67, 82
1, 366255, Control_c, 0, 64, 90
1, 366255, Control_c, 0, 67, 81
1, 366285, Control_c, 0, 64, 90
1, 366300, Control_c, 0, 64, 91
1, 366300, Control_c, 0, 67, 82
1, 366329, Control_c, 0, 64, 91
1, 366344, Control_c, 0, 67, 82
1, 366388, Control_c, 0, 67, 83
1, 366433, Control_c, 0, 67, 83
1, 366544, Control_c, 0, 64, 91
1, 366544, Control_c, 0, 67, 84
1, 366574, Control_c, 0, 64, 90
1, 366577, Note_on_c, 0, 70, 62
1, 366588, Note_on_c, 0, 61, 40
1, 366588, Control_c, 0, 64, 88
1, 366597, Note_on_c, 0, 54, 36
1, 366601, Note_off_c, 0, 71, 59
1, 366603, Control_c, 0, 64, 85
1, 366618, Control_c, 0, 64, 80
1, 366633, Control_c, 0, 64, 75
1, 366648, Control_c, 0, 64, 69
1, 366655, Note_off_c, 0, 55, 36
1, 366662, Control_c, 0, 64, 63
1, 366677, Control_c, 0, 64, 57
1, 366677, Control_c, 0, 67, 83
1, 366692, Control_c, 0, 64, 56
1, 366707, Control_c, 0, 64, 58
1, 366707, Control_c, 0, 67, 83
1, 366722, Control_c, 0, 64, 59
1, 366737, Control_c, 0, 64, 61
1, 366737, Control_c, 0, 67, 82
1, 366752, Control_c, 0, 64, 62
1, 366752, Control_c, 0, 67, 82
1, 366767, Control_c, 0, 64, 63
1, 366767, Control_c, 0, 67, 81
1, 366782, Control_c, 0, 64, 65
1, 366782, Control_c, 0, 67, 81
1, 366796, Control_c, 0, 64, 68
1, 366796, Control_c, 0, 67, 80
1, 366802, Note_off_c, 0, 64, 37
1, 366811, Control_c, 0, 64, 72
1, 366811, Control_c, 0, 67, 77
1, 366826, Control_c, 0, 64, 77
1, 366826, Control_c, 0, 67, 73
1, 366841, Control_c, 0, 64, 82
1, 366841, Control_c, 0, 67, 67
1, 366856, Control_c, 0, 64, 87
1, 366856, Control_c, 0, 67, 59
1, 366871, Control_c, 0, 64, 91
1, 366871, Control_c, 0, 67, 51
1, 366886, Control_c, 0, 64, 94
1, 366886, Control_c, 0, 67, 45
1, 366901, Control_c, 0, 64, 96
1, 366901, Control_c, 0, 67, 40
1, 366913, Note_off_c, 0, 54, 60
1, 366915, Control_c, 0, 64, 97
1, 366915, Control_c, 0, 67, 36
1, 366922, Note_off_c, 0, 61, 52
1, 366930, Control_c, 0, 67, 34
1, 366945, Control_c, 0, 67, 33
1, 366960, Control_c, 0, 67, 32
1, 367235, Control_c, 0, 64, 96
1, 367250, Control_c, 0, 64, 95
1, 367264, Control_c, 0, 64, 92
1, 367270, Note_on_c, 0, 56, 39
1, 367270, Note_on_c, 0, 68, 66
1, 367273, Note_on_c, 0, 52, 39
1, 367278, Note_on_c, 0, 61, 49
1, 367279, Control_c, 0, 64, 87
1, 367294, Control_c, 0, 64, 81
1, 367294, Control_c, 0, 67, 33
1, 367295, Note_off_c, 0, 70, 55
1, 367309, Control_c, 0, 64, 74
1, 367324, Control_c, 0, 64, 67
1, 367338, Control_c, 0, 64, 59
1, 367353, Control_c, 0, 64, 55
1, 367368, Control_c, 0, 64, 57
1, 367383, Control_c, 0, 64, 59
1, 367398, Control_c, 0, 64, 60
1, 367412, Control_c, 0, 64, 61
1, 367427, Control_c, 0, 64, 62
1, 367442, Control_c, 0, 64, 64
1, 367457, Control_c, 0, 64, 65
1, 367472, Control_c, 0, 64, 68
1, 367486, Control_c, 0, 64, 71
1, 367486, Control_c, 0, 67, 32
1, 367501, Control_c, 0, 64, 75
1, 367516, Control_c, 0, 64, 80
1, 367530, Control_c, 0, 64, 86
1, 367530, Control_c, 0, 67, 32
1, 367542, Note_off_c, 0, 61, 57
1, 367545, Control_c, 0, 64, 89
1, 367560, Control_c, 0, 64, 91
1, 367560, Control_c, 0, 67, 31
1, 367575, Control_c, 0, 64, 92
1, 367590, Control_c, 0, 64, 93
1, 367590, Control_c, 0, 67, 30
1, 367604, Control_c, 0, 64, 93
1, 367604, Control_c, 0, 67, 29
1, 367619, Control_c, 0, 67, 27
1, 367634, Control_c, 0, 64, 94
1, 367634, Control_c, 0, 67, 26
1, 367649, Control_c, 0, 67, 25
1, 367664, Control_c, 0, 67, 23
1, 367679, Control_c, 0, 67, 21
1, 367694, Control_c, 0, 67, 19
1, 367709, Control_c, 0, 67, 17
1, 367723, Control_c, 0, 67, 16
1, 367738, Control_c, 0, 67, 15
1, 367753, Control_c, 0, 67, 13
1, 367768, Control_c, 0, 67, 12
1, 367783, Control_c, 0, 67, 11
1, 367798, Control_c, 0, 67, 10
1, 367813, Control_c, 0, 67, 10
1, 367828, Control_c, 0, 67, 9
1, 367843, Control_c, 0, 67, 8
1, 367858, Control_c, 0, 67, 8
1, 367902, Control_c, 0, 67, 0
1, 367917, Control_c, 0, 64, 93
1, 367932, Control_c, 0, 64, 92
1, 367952, Note_on_c, 0, 58, 43
1, 367953, Note_on_c, 0, 51, 43
1, 367953, Control_c, 0, 64, 90
1, 367956, Note_on_c, 0, 63, 54
1, 367958, Note_on_c, 0, 67, 68
1, 367968, Control_c, 0, 64, 86
1, 367983, Control_c, 0, 64, 80
1, 367998, Control_c, 0, 64, 72
1, 368000, Note_off_c, 0, 52, 56
1, 368013, Control_c, 0, 64, 63
1, 368018, Note_off_c, 0, 56, 48
1, 368028, Control_c, 0, 64, 53
1, 368042, Control_c, 0, 64, 47
1, 368057, Control_c, 0, 64, 47
1, 368072, Control_c, 0, 64, 49
1, 368075, Note_off_c, 0, 68, 34
1, 368087, Control_c, 0, 64, 50
1, 368102, Control_c, 0, 64, 52
1, 368117, Control_c, 0, 64, 55
1, 368132, Control_c, 0, 64, 59
1, 368147, Control_c, 0, 64, 63
1, 368161, Control_c, 0, 64, 66
1, 368176, Control_c, 0, 64, 70
1, 368191, Control_c, 0, 64, 76
1, 368206, Control_c, 0, 64, 83
1, 368216, Note_off_c, 0, 63, 63
1, 368221, Control_c, 0, 64, 87
1, 368235, Control_c, 0, 64, 88
1, 368239, Note_off_c, 0, 67, 63
1, 368250, Control_c, 0, 64, 89
1, 368265, Control_c, 0, 64, 90
1, 368279, Control_c, 0, 64, 90
1, 368281, Note_off_c, 0, 58, 60
1, 368294, Control_c, 0, 64, 91
1, 368309, Control_c, 0, 64, 91
1, 368324, Control_c, 0, 64, 92
1, 368339, Control_c, 0, 64, 93
1, 368353, Control_c, 0, 64, 94
1, 368368, Control_c, 0, 64, 95
1, 368383, Control_c, 0, 64, 96
1, 368398, Control_c, 0, 64, 96
1, 368413, Control_c, 0, 64, 97
1, 368427, Control_c, 0, 64, 98
1, 368442, Control_c, 0, 64, 98
1, 368457, Control_c, 0, 64, 99
1, 368487, Control_c, 0, 64, 99
1, 368747, Control_c, 0, 64, 97
1, 368762, Control_c, 0, 64, 93
1, 368776, Note_on_c, 0, 76, 72
1, 368776, Note_on_c, 0, 68, 43
1, 368777, Control_c, 0, 64, 86
1, 368779, Note_on_c, 0, 61, 37
1, 368785, Note_on_c, 0, 49, 43
1, 368791, Note_on_c, 0, 64, 51
1, 368791, Control_c, 0, 64, 78
1, 368806, Control_c, 0, 64, 69
1, 368821, Control_c, 0, 64, 60
1, 368830, Note_off_c, 0, 51, 58
1, 368836, Control_c, 0, 64, 45
1, 368851, Control_c, 0, 64, 39
1, 368865, Control_c, 0, 64, 41
1, 368880, Control_c, 0, 64, 44
1, 368895, Control_c, 0, 64, 47
1, 368910, Control_c, 0, 64, 50
1, 368925, Control_c, 0, 64, 52
1, 368940, Control_c, 0, 64, 55
1, 368955, Control_c, 0, 64, 59
1, 368970, Control_c, 0, 64, 62
1, 368984, Control_c, 0, 64, 65
1, 368999, Control_c, 0, 64, 69
1, 369014, Control_c, 0, 64, 75
1, 369027, Control_c, 0, 64, 82
1, 369042, Control_c, 0, 64, 87
1, 369056, Control_c, 0, 64, 93
1, 369071, Control_c, 0, 64, 96
1, 369086, Control_c, 0, 64, 98
1, 369101, Control_c, 0, 64, 100
1, 369116, Control_c, 0, 64, 101
1, 369130, Control_c, 0, 64, 102
1, 369145, Control_c, 0, 64, 103
1, 369153, Note_off_c, 0, 64, 59
1, 369160, Note_off_c, 0, 68, 62
1, 369160, Control_c, 0, 64, 104
1, 369175, Control_c, 0, 64, 105
1, 369190, Control_c, 0, 64, 105
1, 369192, Note_off_c, 0, 61, 41
1, 369205, Control_c, 0, 64, 106
1, 369450, Control_c, 0, 64, 105
1, 369465, Control_c, 0, 64, 102
1, 369479, Control_c, 0, 64, 97
1, 369482, Note_on_c, 0, 69, 60
1, 369487, Note_on_c, 0, 60, 48
1, 369490, Note_on_c, 0, 64, 59
1, 369491, Note_on_c, 0, 48, 50
1, 369494, Control_c, 0, 64, 89
1, 369509, Control_c, 0, 64, 80
1, 369524, Control_c, 0, 64, 72
1, 369527, Note_off_c, 0, 49, 53
1, 369539, Control_c, 0, 64, 62
1, 369554, Control_c, 0, 64, 51
1, 369569, Control_c, 0, 64, 50
1, 369584, Control_c, 0, 64, 54
1, 369598, Control_c, 0, 64, 58
1, 369613, Control_c, 0, 64, 61
1, 369628, Control_c, 0, 64, 63
1, 369643, Control_c, 0, 64, 66
1, 369658, Control_c, 0, 64, 69
1, 369673, Control_c, 0, 64, 73
1, 369687, Control_c, 0, 64, 77
1, 369702, Control_c, 0, 64, 82
1, 369717, Control_c, 0, 64, 86
1, 369731, Control_c, 0, 64, 90
1, 369746, Control_c, 0, 64, 92
1, 369761, Control_c, 0, 64, 93
1, 369777, Control_c, 0, 64, 94
1, 369792, Control_c, 0, 64, 95
1, 369796, Note_off_c, 0, 64, 59
1, 369807, Note_off_c, 0, 69, 65
1, 369821, Control_c, 0, 64, 95
1, 369828, Note_off_c, 0, 60, 58
1, 369851, Control_c, 0, 64, 96
1, 370234, Note_on_c, 0, 75, 69
1, 370236, Note_on_c, 0, 59, 48
1, 370238, Note_on_c, 0, 69, 61
1, 370240, Note_on_c, 0, 47, 47
1, 370241, Note_on_c, 0, 65, 57
1, 370244, Control_c, 0, 64, 93
1, 370259, Control_c, 0, 64, 90
1, 370274, Control_c, 0, 64, 84
1, 370289, Control_c, 0, 64, 75
1, 370291, Note_off_c, 0, 76, 59
1, 370303, Control_c, 0, 64, 68
1, 370318, Control_c, 0, 64, 60
1, 370333, Control_c, 0, 64, 49
1, 370347, Control_c, 0, 64, 47
1, 370350, Note_off_c, 0, 48, 36
1, 370362, Control_c, 0, 64, 48
1, 370377, Control_c, 0, 64, 49
1, 370392, Control_c, 0, 64, 49
1, 370407, Control_c, 0, 64, 50
1, 370421, Control_c, 0, 64, 52
1, 370436, Control_c, 0, 64, 54
1, 370451, Control_c, 0, 64, 57
1, 370466, Control_c, 0, 64, 60
1, 370481, Control_c, 0, 64, 63
1, 370496, Control_c, 0, 64, 67
1, 370511, Control_c, 0, 64, 72
1, 370526, Control_c, 0, 64, 78
1, 370540, Control_c, 0, 64, 85
1, 370555, Control_c, 0, 64, 90
1, 370570, Control_c, 0, 64, 94
1, 370584, Note_off_c, 0, 69, 65
1, 370585, Control_c, 0, 64, 95
1, 370594, Note_off_c, 0, 65, 59
1, 370600, Control_c, 0, 64, 96
1, 370615, Control_c, 0, 64, 96
1, 370618, Note_off_c, 0, 59, 60
1, 370644, Control_c, 0, 64, 97
1, 370659, Control_c, 0, 64, 98
1, 370673, Control_c, 0, 64, 99
1, 370703, Control_c, 0, 64, 99
1, 370940, Note_on_c, 0, 46, 57
1, 370940, Control_c, 0, 64, 99
1, 370944, Note_on_c, 0, 74, 72
1, 370952, Note_on_c, 0, 58, 54
1, 370954, Note_on_c, 0, 65, 63
1, 370955, Note_on_c, 0, 70, 68
1, 370962, Control_c, 0, 64, 94
1, 370970, Note_off_c, 0, 75, 61
1, 370978, Control_c, 0, 64, 87
1, 370991, Note_off_c, 0, 47, 59
1, 370993, Control_c, 0, 64, 78
1, 371008, Control_c, 0, 64, 69
1, 371023, Control_c, 0, 64, 62
1, 371038, Control_c, 0, 64, 57
1, 371052, Control_c, 0, 64, 59
1, 371067, Control_c, 0, 64, 62
1, 371082, Control_c, 0, 64, 65
1, 371096, Control_c, 0, 64, 68
1, 371111, Control_c, 0, 64, 72
1, 371126, Control_c, 0, 64, 76
1, 371141, Control_c, 0, 64, 82
1, 371156, Control_c, 0, 64, 86
1, 371170, Control_c, 0, 64, 91
1, 371185, Control_c, 0, 64, 94
1, 371200, Control_c, 0, 64, 99
1, 371215, Control_c, 0, 64, 105
1, 371230, Control_c, 0, 64, 110
1, 371238, Note_off_c, 0, 65, 62
1, 371244, Control_c, 0, 64, 115
1, 371251, Note_off_c, 0, 70, 62
1, 371259, Control_c, 0, 64, 118
1, 371270, Note_off_c, 0, 58, 58
1, 371274, Control_c, 0, 64, 119
1, 371289, Control_c, 0, 64, 120
1, 371304, Control_c, 0, 64, 121
1, 371318, Control_c, 0, 64, 122
1, 371333, Control_c, 0, 64, 127
1, 371593, Note_on_c, 0, 73, 77
1, 371593, Note_on_c, 0, 57, 60
1, 371595, Note_on_c, 0, 61, 67
1, 371596, Note_on_c, 0, 45, 58
1, 371596, Note_on_c, 0, 67, 72
1, 371600, Control_c, 0, 64, 119
1, 371607, Note_off_c, 0, 74, 53
1, 371615, Control_c, 0, 64, 106
1, 371630, Control_c, 0, 64, 93
1, 371644, Control_c, 0, 64, 80
1, 371659, Control_c, 0, 64, 68
1, 371674, Control_c, 0, 64, 56
1, 371689, Note_off_c, 0, 46, 55
1, 371689, Control_c, 0, 64, 39
1, 371711, Control_c, 0, 64, 41
1, 371726, Control_c, 0, 64, 47
1, 371741, Control_c, 0, 64, 53
1, 371756, Control_c, 0, 64, 57
1, 371772, Control_c, 0, 64, 60
1, 371786, Control_c, 0, 64, 63
1, 371801, Control_c, 0, 64, 66
1, 371816, Control_c, 0, 64, 73
1, 371831, Control_c, 0, 64, 81
1, 371846, Control_c, 0, 64, 88
1, 371861, Control_c, 0, 64, 94
1, 371875, Control_c, 0, 64, 98
1, 371882, Note_off_c, 0, 61, 62
1, 371890, Control_c, 0, 64, 101
1, 371891, Note_off_c, 0, 67, 63
1, 371905, Control_c, 0, 64, 105
1, 371906, Note_off_c, 0, 73, 64
1, 371919, Control_c, 0, 64, 110
1, 371927, Note_off_c, 0, 57, 62
1, 371934, Control_c, 0, 64, 117
1, 371949, Control_c, 0, 64, 127
1, 372304, Note_on_c, 0, 44, 63
1, 372307, Note_on_c, 0, 68, 65
1, 372308, Note_on_c, 0, 73, 79
1, 372312, Note_on_c, 0, 56, 61
1, 372312, Note_on_c, 0, 64, 70
1, 372333, Control_c, 0, 64, 111
1, 372337, Note_off_c, 0, 45, 61
1, 372348, Control_c, 0, 64, 98
1, 372363, Control_c, 0, 64, 86
1, 372378, Control_c, 0, 64, 72
1, 372392, Control_c, 0, 64, 59
1, 372407, Control_c, 0, 64, 33
1, 372422, Control_c, 0, 64, 13
1, 372437, Control_c, 0, 64, 17
1, 372459, Control_c, 0, 64, 24
1, 372474, Control_c, 0, 64, 33
1, 372489, Control_c, 0, 64, 40
1, 372504, Control_c, 0, 64, 47
1, 372519, Control_c, 0, 64, 52
1, 372533, Control_c, 0, 64, 56
1, 372548, Control_c, 0, 64, 60
1, 372563, Control_c, 0, 64, 64
1, 372579, Control_c, 0, 64, 68
1, 372594, Control_c, 0, 64, 74
1, 372609, Control_c, 0, 64, 80
1, 372623, Control_c, 0, 64, 85
1, 372638, Control_c, 0, 64, 90
1, 372653, Control_c, 0, 64, 94
1, 372668, Control_c, 0, 64, 97
1, 372683, Control_c, 0, 64, 100
1, 372697, Control_c, 0, 64, 102
1, 372712, Control_c, 0, 64, 105
1, 372727, Control_c, 0, 64, 111
1, 372741, Control_c, 0, 64, 122
1, 372756, Control_c, 0, 64, 127
1, 372777, Note_off_c, 0, 56, 46
1, 373101, Note_on_c, 0, 55, 59
1, 373101, Note_on_c, 0, 71, 76
1, 373107, Note_on_c, 0, 43, 64
1, 373127, Control_c, 0, 64, 112
1, 373141, Control_c, 0, 64, 92
1, 373156, Control_c, 0, 64, 77
1, 373171, Control_c, 0, 64, 62
1, 373182, Note_off_c, 0, 44, 54
1, 373186, Control_c, 0, 64, 0
1, 373387, Control_c, 0, 64, 29
1, 373402, Control_c, 0, 64, 47
1, 373417, Control_c, 0, 64, 55
1, 373432, Control_c, 0, 64, 61
1, 373446, Control_c, 0, 64, 65
1, 373461, Control_c, 0, 64, 69
1, 373476, Control_c, 0, 64, 75
1, 373490, Control_c, 0, 64, 80
1, 373505, Control_c, 0, 64, 86
1, 373521, Control_c, 0, 64, 92
1, 373536, Control_c, 0, 64, 97
1, 373542, Note_off_c, 0, 64, 50
1, 373551, Control_c, 0, 64, 100
1, 373565, Control_c, 0, 64, 103
1, 373580, Control_c, 0, 64, 107
1, 373581, Note_off_c, 0, 68, 59
1, 373590, Note_off_c, 0, 71, 60
1, 373595, Control_c, 0, 64, 112
1, 373610, Control_c, 0, 64, 122
1, 373625, Control_c, 0, 64, 127
1, 373819, Note_off_c, 0, 73, 37
1, 373850, Note_off_c, 0, 43, 37
1, 373902, Note_off_c, 0, 55, 35
1, 373986, Note_on_c, 0, 74, 88
1, 374000, Note_on_c, 0, 65, 68
1, 374127, Note_off_c, 0, 65, 0
1, 374165, Poly_aftertouch_c, 0, 65, 127
1, 374212, Poly_aftertouch_c, 0, 65, 0
1, 374636, Note_on_c, 0, 42, 59
1, 374638, Note_off_c, 0, 74, 63
1, 374639, Note_on_c, 0, 75, 84
1, 374640, Note_on_c, 0, 54, 57
1, 374640, Note_on_c, 0, 63, 77
1, 374644, Note_on_c, 0, 70, 76
1, 374692, Control_c, 0, 64, 100
1, 374707, Control_c, 0, 64, 86
1, 374721, Control_c, 0, 64, 75
1, 374736, Control_c, 0, 64, 65
1, 374751, Control_c, 0, 64, 53
1, 374766, Control_c, 0, 64, 50
1, 374781, Control_c, 0, 64, 56
1, 374795, Control_c, 0, 64, 61
1, 374810, Control_c, 0, 64, 64
1, 374825, Control_c, 0, 64, 67
1, 374839, Control_c, 0, 64, 72
1, 374854, Control_c, 0, 64, 81
1, 374869, Control_c, 0, 64, 89
1, 374884, Control_c, 0, 64, 96
1, 374899, Control_c, 0, 64, 102
1, 374913, Control_c, 0, 64, 108
1, 374916, Note_off_c, 0, 63, 61
1, 374925, Note_off_c, 0, 70, 62
1, 374928, Control_c, 0, 64, 118
1, 374943, Control_c, 0, 64, 127
1, 374962, Note_off_c, 0, 54, 63
1, 375044, Note_off_c, 0, 42, 51
1, 375278, Note_off_c, 0, 75, 60
1, 375307, Note_on_c, 0, 68, 81
1, 375307, Note_on_c, 0, 77, 79
1, 375309, Note_on_c, 0, 38, 60
1, 375309, Note_on_c, 0, 70, 73
1, 375311, Note_on_c, 0, 50, 61
1, 375330, Control_c, 0, 64, 103
1, 375344, Control_c, 0, 64, 88
1, 375359, Control_c, 0, 64, 75
1, 375374, Control_c, 0, 64, 65
1, 375389, Control_c, 0, 64, 53
1, 375404, Control_c, 0, 64, 46
1, 375418, Control_c, 0, 64, 51
1, 375441, Control_c, 0, 64, 59
1, 375456, Control_c, 0, 64, 63
1, 375470, Control_c, 0, 64, 67
1, 375485, Control_c, 0, 64, 73
1, 375500, Control_c, 0, 64, 85
1, 375515, Control_c, 0, 64, 104
1, 375530, Control_c, 0, 64, 127
1, 375548, Note_off_c, 0, 38, 60
1, 375566, Note_off_c, 0, 50, 64
1, 375617, Note_off_c, 0, 68, 59
1, 375625, Note_off_c, 0, 70, 62
1, 375960, Note_on_c, 0, 39, 50
1, 375960, Note_on_c, 0, 78, 83
1, 375965, Note_on_c, 0, 70, 67
1, 375966, Note_on_c, 0, 51, 49
1, 375969, Note_on_c, 0, 66, 60
1, 375989, Control_c, 0, 64, 113
1, 376002, Note_off_c, 0, 77, 46
1, 376004, Control_c, 0, 64, 93
1, 376019, Control_c, 0, 64, 78
1, 376033, Control_c, 0, 64, 65
1, 376048, Control_c, 0, 64, 45
1, 376063, Control_c, 0, 64, 10
1, 376078, Control_c, 0, 64, 29
1, 376092, Control_c, 0, 64, 47
1, 376107, Control_c, 0, 64, 56
1, 376122, Control_c, 0, 64, 59
1, 376137, Control_c, 0, 64, 63
1, 376152, Control_c, 0, 64, 68
1, 376166, Control_c, 0, 64, 74
1, 376181, Control_c, 0, 64, 82
1, 376204, Control_c, 0, 64, 88
1, 376219, Control_c, 0, 64, 93
1, 376234, Control_c, 0, 64, 97
1, 376242, Note_off_c, 0, 39, 58
1, 376248, Control_c, 0, 64, 100
1, 376257, Note_off_c, 0, 78, 63
1, 376263, Control_c, 0, 64, 103
1, 376278, Control_c, 0, 64, 106
1, 376292, Control_c, 0, 64, 108
1, 376307, Control_c, 0, 64, 109
1, 376322, Control_c, 0, 64, 109
1, 376384, Note_off_c, 0, 70, 39
1, 376389, Note_off_c, 0, 66, 43
1, 376396, Note_off_c, 0, 51, 44
1, 376738, Control_c, 0, 64, 106
1, 376753, Control_c, 0, 64, 98
1, 376755, Note_on_c, 0, 56, 47
1, 376757, Note_on_c, 0, 44, 45
1, 376760, Note_on_c, 0, 71, 74
1, 376762, Note_on_c, 0, 68, 58
1, 376763, Note_on_c, 0, 63, 54
1, 376768, Control_c, 0, 64, 89
1, 376782, Control_c, 0, 64, 80
1, 376797, Control_c, 0, 64, 70
1, 376812, Control_c, 0, 64, 62
1, 376827, Control_c, 0, 64, 52
1, 376842, Control_c, 0, 64, 53
1, 376857, Control_c, 0, 64, 58
1, 376872, Control_c, 0, 64, 61
1, 376887, Control_c, 0, 64, 63
1, 376902, Control_c, 0, 64, 65
1, 376916, Control_c, 0, 64, 68
1, 376931, Control_c, 0, 64, 73
1, 376953, Control_c, 0, 64, 82
1, 376968, Control_c, 0, 64, 91
1, 376983, Control_c, 0, 64, 99
1, 376997, Control_c, 0, 64, 107
1, 377010, Note_off_c, 0, 56, 63
1, 377012, Control_c, 0, 64, 115
1, 377027, Control_c, 0, 64, 125
1, 377042, Control_c, 0, 64, 127
1, 377100, Note_off_c, 0, 68, 60
1, 377117, Note_off_c, 0, 63, 50
1, 377139, Note_off_c, 0, 44, 50
1, 377413, Control_c, 0, 64, 116
1, 377426, Note_on_c, 0, 75, 67
1, 377428, Control_c, 0, 64, 102
1, 377430, Note_on_c, 0, 35, 49
1, 377432, Note_on_c, 0, 68, 55
1, 377433, Note_on_c, 0, 63, 55
1, 377436, Note_on_c, 0, 47, 51
1, 377443, Control_c, 0, 64, 90
1, 377455, Note_off_c, 0, 71, 62
1, 377457, Control_c, 0, 64, 79
1, 377472, Control_c, 0, 64, 70
1, 377487, Control_c, 0, 64, 61
1, 377502, Control_c, 0, 64, 52
1, 377517, Control_c, 0, 64, 53
1, 377531, Control_c, 0, 64, 59
1, 377546, Control_c, 0, 64, 62
1, 377561, Control_c, 0, 64, 64
1, 377576, Control_c, 0, 64, 66
1, 377591, Control_c, 0, 64, 69
1, 377605, Control_c, 0, 64, 74
1, 377620, Control_c, 0, 64, 81
1, 377635, Control_c, 0, 64, 87
1, 377650, Control_c, 0, 64, 94
1, 377665, Control_c, 0, 64, 98
1, 377687, Control_c, 0, 64, 102
1, 377702, Control_c, 0, 64, 106
1, 377707, Note_off_c, 0, 68, 65
1, 377710, Note_off_c, 0, 63, 62
1, 377717, Control_c, 0, 64, 108
1, 377721, Note_off_c, 0, 47, 62
1, 377732, Control_c, 0, 64, 109
1, 377746, Control_c, 0, 64, 110
1, 377761, Control_c, 0, 64, 111
1, 377806, Control_c, 0, 64, 112
1, 378117, Control_c, 0, 64, 108
1, 378118, Note_on_c, 0, 44, 43
1, 378118, Note_on_c, 0, 71, 57
1, 378121, Note_on_c, 0, 63, 50
1, 378127, Note_on_c, 0, 68, 47
1, 378128, Note_on_c, 0, 32, 43
1, 378132, Control_c, 0, 64, 102
1, 378146, Control_c, 0, 64, 95
1, 378162, Control_c, 0, 64, 86
1, 378163, Note_off_c, 0, 35, 36
1, 378169, Note_off_c, 0, 75, 51
1, 378177, Control_c, 0, 64, 75
1, 378192, Control_c, 0, 64, 67
1, 378207, Control_c, 0, 64, 60
1, 378222, Control_c, 0, 64, 57
1, 378236, Control_c, 0, 64, 61
1, 378251, Control_c, 0, 64, 65
1, 378266, Control_c, 0, 64, 71
1, 378280, Control_c, 0, 64, 77
1, 378295, Control_c, 0, 64, 84
1, 378310, Control_c, 0, 64, 91
1, 378325, Control_c, 0, 64, 97
1, 378340, Control_c, 0, 64, 101
1, 378350, Note_off_c, 0, 32, 57
1, 378354, Control_c, 0, 64, 103
1, 378364, Note_off_c, 0, 44, 55
1, 378368, Note_off_c, 0, 71, 0
1, 378369, Control_c, 0, 64, 104
1, 378384, Control_c, 0, 64, 105
1, 378394, Note_on_c, 0, 71, 31
1, 378399, Control_c, 0, 64, 106
1, 378414, Control_c, 0, 64, 106
1, 378422, Note_off_c, 0, 68, 42
1, 378423, Note_off_c, 0, 63, 57
1, 378436, Control_c, 0, 64, 107
1, 378732, Control_c, 0, 64, 106
1, 378777, Control_c, 0, 64, 105
1, 378792, Control_c, 0, 64, 102
1, 378794, Note_off_c, 0, 71, 55
1, 378806, Control_c, 0, 64, 95
1, 378809, Note_on_c, 0, 46, 40
1, 378812, Note_on_c, 0, 34, 35
1, 378812, Note_on_c, 0, 70, 50
1, 378815, Note_on_c, 0, 65, 47
1, 378818, Note_on_c, 0, 62, 39
1, 378821, Control_c, 0, 64, 87
1, 378836, Control_c, 0, 64, 78
1, 378851, Control_c, 0, 64, 67
1, 378866, Control_c, 0, 64, 59
1, 378881, Control_c, 0, 64, 50
1, 378895, Control_c, 0, 64, 51
1, 378910, Control_c, 0, 64, 55
1, 378925, Control_c, 0, 64, 57
1, 378940, Control_c, 0, 64, 59
1, 378955, Control_c, 0, 64, 61
1, 378970, Control_c, 0, 64, 63
1, 378985, Control_c, 0, 64, 65
1, 379000, Control_c, 0, 64, 67
1, 379015, Control_c, 0, 64, 70
1, 379030, Control_c, 0, 64, 74
1, 379045, Control_c, 0, 64, 78
1, 379059, Control_c, 0, 64, 82
1, 379074, Control_c, 0, 64, 85
1, 379089, Control_c, 0, 64, 87
1, 379103, Control_c, 0, 64, 88
1, 379105, Note_off_c, 0, 46, 45
1, 379118, Control_c, 0, 64, 88
1, 379133, Control_c, 0, 64, 89
1, 379139, Note_off_c, 0, 62, 41
1, 379146, Note_off_c, 0, 65, 41
1, 379155, Note_off_c, 0, 70, 32
1, 379163, Control_c, 0, 64, 89
1, 379202, Note_off_c, 0, 34, 40
1, 379215, Control_c, 0, 64, 90
1, 379629, Control_c, 0, 64, 89
1, 379644, Control_c, 0, 64, 89
1, 379659, Control_c, 0, 64, 88
1, 379674, Control_c, 0, 64, 87
1, 379689, Control_c, 0, 64, 85
1, 379690, Note_on_c, 0, 39, 26
1, 379690, Note_on_c, 0, 70, 44
1, 379696, Note_on_c, 0, 63, 41
1, 379698, Note_on_c, 0, 27, 32
1, 379704, Note_on_c, 0, 66, 37
1, 379704, Control_c, 0, 64, 80
1, 379719, Control_c, 0, 64, 74
1, 379734, Control_c, 0, 64, 67
1, 379748, Control_c, 0, 64, 60
1, 379764, Control_c, 0, 64, 50
1, 379779, Control_c, 0, 64, 45
1, 379808, Control_c, 0, 64, 46
1, 379823, Control_c, 0, 64, 47
1, 379838, Control_c, 0, 64, 48
1, 379853, Control_c, 0, 64, 50
1, 379868, Control_c, 0, 64, 53
1, 379883, Control_c, 0, 64, 57
1, 379898, Control_c, 0, 64, 60
1, 379912, Control_c, 0, 64, 62
1, 379927, Control_c, 0, 64, 64
1, 379949, Control_c, 0, 64, 67
1, 379964, Control_c, 0, 64, 71
1, 379979, Control_c, 0, 64, 76
1, 379994, Control_c, 0, 64, 81
1, 380009, Control_c, 0, 64, 84
1, 380023, Control_c, 0, 64, 85
1, 380023, Control_c, 0, 67, 8
1, 380038, Control_c, 0, 64, 86
1, 380038, Control_c, 0, 67, 9
1, 380053, Control_c, 0, 64, 86
1, 380053, Control_c, 0, 67, 11
1, 380055, Note_off_c, 0, 27, 40
1, 380067, Control_c, 0, 67, 12
1, 380081, Note_off_c, 0, 39, 35
1, 380082, Control_c, 0, 67, 14
1, 380097, Control_c, 0, 64, 87
1, 380097, Control_c, 0, 67, 15
1, 380112, Control_c, 0, 67, 17
1, 380113, Note_off_c, 0, 70, 29
1, 380119, Note_off_c, 0, 66, 29
1, 380124, Note_off_c, 0, 63, 24
1, 380127, Control_c, 0, 67, 19
1, 380142, Control_c, 0, 67, 21
1, 380157, Control_c, 0, 67, 23
1, 380172, Control_c, 0, 67, 26
1, 380187, Control_c, 0, 67, 29
1, 380202, Control_c, 0, 67, 32
1, 380216, Control_c, 0, 67, 34
1, 380231, Control_c, 0, 67, 36
1, 380246, Control_c, 0, 67, 38
1, 380259, Control_c, 0, 67, 40
1, 380274, Control_c, 0, 67, 41
1, 380289, Control_c, 0, 67, 42
1, 380304, Control_c, 0, 67, 43
1, 380319, Control_c, 0, 67, 43
1, 380348, Control_c, 0, 67, 44
1, 380363, Control_c, 0, 67, 44
1, 380378, Control_c, 0, 67, 45
1, 380393, Control_c, 0, 67, 46
1, 380407, Control_c, 0, 67, 47
1, 380422, Control_c, 0, 67, 48
1, 380437, Control_c, 0, 67, 48
1, 380467, Control_c, 0, 67, 49
1, 380727, Control_c, 0, 64, 86
1, 380742, Control_c, 0, 64, 86
1, 380757, Control_c, 0, 64, 84
1, 380771, Control_c, 0, 64, 81
1, 380786, Control_c, 0, 64, 76
1, 380793, Note_on_c, 0, 42, 30
1, 380797, Note_on_c, 0, 30, 24
1, 380801, Note_on_c, 0, 70, 38
1, 380801, Control_c, 0, 64, 70
1, 380813, Note_on_c, 0, 64, 33
1, 380816, Note_on_c, 0, 61, 31
1, 380816, Control_c, 0, 64, 63
1, 380831, Control_c, 0, 64, 52
1, 380845, Control_c, 0, 64, 39
1, 380860, Control_c, 0, 64, 36
1, 380875, Control_c, 0, 64, 36
1, 380890, Control_c, 0, 64, 37
1, 380905, Control_c, 0, 64, 38
1, 380920, Control_c, 0, 64, 39
1, 380935, Control_c, 0, 64, 44
1, 380950, Control_c, 0, 64, 48
1, 380964, Control_c, 0, 64, 52
1, 380979, Control_c, 0, 64, 55
1, 380994, Control_c, 0, 64, 57
1, 381009, Control_c, 0, 64, 60
1, 381024, Control_c, 0, 64, 62
1, 381038, Control_c, 0, 64, 65
1, 381053, Control_c, 0, 64, 69
1, 381068, Control_c, 0, 64, 74
1, 381082, Control_c, 0, 64, 80
1, 381097, Control_c, 0, 64, 85
1, 381112, Control_c, 0, 64, 88
1, 381127, Control_c, 0, 64, 91
1, 381142, Control_c, 0, 64, 93
1, 381156, Note_off_c, 0, 64, 36
1, 381156, Control_c, 0, 64, 94
1, 381168, Note_off_c, 0, 70, 34
1, 381171, Control_c, 0, 64, 95
1, 381179, Note_off_c, 0, 61, 41
1, 381186, Control_c, 0, 64, 95
1, 381200, Control_c, 0, 64, 96
1, 381215, Control_c, 0, 64, 97
1, 381215, Control_c, 0, 67, 49
1, 381230, Control_c, 0, 67, 50
1, 381245, Control_c, 0, 67, 50
1, 381260, Control_c, 0, 64, 98
1, 381260, Control_c, 0, 67, 53
1, 381275, Control_c, 0, 67, 57
1, 381290, Control_c, 0, 67, 61
1, 381304, Control_c, 0, 67, 64
1, 381319, Control_c, 0, 67, 66
1, 381334, Control_c, 0, 67, 68
1, 381350, Control_c, 0, 67, 68
1, 381365, Control_c, 0, 67, 69
1, 381379, Control_c, 0, 67, 70
1, 381394, Control_c, 0, 67, 70
1, 381432, Control_c, 0, 67, 71
1, 381447, Control_c, 0, 67, 72
1, 381461, Control_c, 0, 67, 73
1, 381476, Control_c, 0, 67, 74
1, 381491, Control_c, 0, 67, 75
1, 381505, Control_c, 0, 67, 76
1, 381520, Control_c, 0, 67, 77
1, 381535, Control_c, 0, 67, 78
1, 381550, Control_c, 0, 67, 79
1, 381579, Control_c, 0, 67, 79
1, 381716, Note_on_c, 0, 59, 35
1, 381895, Note_on_c, 0, 64, 42
1, 381978, Control_c, 0, 64, 97
1, 382053, Control_c, 0, 64, 97
1, 382083, Control_c, 0, 64, 96
1, 382097, Note_on_c, 0, 70, 48
1, 382097, Control_c, 0, 64, 96
1, 382112, Control_c, 0, 64, 95
1, 382127, Control_c, 0, 64, 95
1, 382142, Control_c, 0, 64, 94
1, 382157, Control_c, 0, 64, 94
1, 382180, Control_c, 0, 64, 92
1, 382195, Control_c, 0, 64, 91
1, 382209, Control_c, 0, 64, 91
1, 382253, Control_c, 0, 64, 90
1, 382298, Control_c, 0, 64, 90
1, 382342, Control_c, 0, 64, 89
1, 382387, Control_c, 0, 64, 89
1, 382461, Control_c, 0, 64, 88
1, 382476, Control_c, 0, 64, 88
1, 382491, Control_c, 0, 64, 87
1, 382505, Control_c, 0, 64, 87
1, 382520, Control_c, 0, 64, 86
1, 382534, Control_c, 0, 64, 85
1, 382536, Note_on_c, 0, 68, 49
1, 382549, Control_c, 0, 64, 84
1, 382564, Control_c, 0, 64, 82
1, 382579, Control_c, 0, 64, 80
1, 382594, Control_c, 0, 64, 77
1, 382608, Control_c, 0, 64, 75
1, 382623, Control_c, 0, 64, 73
1, 382634, Note_off_c, 0, 70, 23
1, 382697, Control_c, 0, 64, 74
1, 382712, Control_c, 0, 64, 74
1, 382726, Control_c, 0, 64, 75
1, 382741, Control_c, 0, 64, 76
1, 382756, Control_c, 0, 64, 78
1, 382771, Control_c, 0, 64, 79
1, 382786, Control_c, 0, 64, 81
1, 382801, Control_c, 0, 64, 82
1, 382816, Control_c, 0, 64, 84
1, 382816, Control_c, 0, 67, 79
1, 382831, Control_c, 0, 64, 86
1, 382846, Control_c, 0, 64, 87
1, 382860, Control_c, 0, 64, 89
1, 382875, Control_c, 0, 64, 90
1, 382890, Control_c, 0, 64, 91
1, 382905, Control_c, 0, 64, 93
1, 382920, Control_c, 0, 64, 94
1, 382941, Control_c, 0, 64, 95
1, 382957, Control_c, 0, 64, 96
1, 382972, Control_c, 0, 64, 96
1, 382987, Control_c, 0, 64, 97
1, 383002, Control_c, 0, 64, 97
1, 383017, Control_c, 0, 64, 98
1, 383027, Note_off_c, 0, 30, 39
1, 383046, Control_c, 0, 64, 98
1, 383090, Control_c, 0, 64, 99
1, 383108, Note_off_c, 0, 68, 34
1, 383120, Control_c, 0, 64, 99
1, 383131, Note_off_c, 0, 42, 36
1, 383135, Control_c, 0, 67, 78
1, 383156, Note_off_c, 0, 64, 42
1, 383179, Control_c, 0, 64, 100
1, 383209, Control_c, 0, 64, 100
1, 383595, Note_off_c, 0, 59, 37
1, 383818, Note_on_c, 0, 66, 42
1, 383820, Note_on_c, 0, 58, 42
1, 383820, Note_on_c, 0, 64, 36
1, 383850, Note_off_c, 0, 64, 55
1, 383858, Note_off_c, 0, 58, 49
1, 383872, Note_off_c, 0, 66, 46
1, 384121, Control_c, 0, 64, 100
1, 384136, Control_c, 0, 64, 99
1, 384151, Control_c, 0, 64, 96
1, 384166, Control_c, 0, 64, 91
1, 384166, Control_c, 0, 67, 79
1, 384181, Note_on_c, 0, 66, 48
1, 384181, Control_c, 0, 64, 84
1, 384183, Note_on_c, 0, 63, 40
1, 384196, Note_on_c, 0, 54, 38
1, 384196, Control_c, 0, 64, 77
1, 384196, Note_on_c, 0, 35, 27
1, 384199, Note_on_c, 0, 47, 26
1, 384211, Control_c, 0, 64, 70
1, 384211, Control_c, 0, 67, 79
1, 384225, Control_c, 0, 64, 63
1, 384240, Control_c, 0, 64, 56
1, 384255, Control_c, 0, 64, 53
1, 384270, Control_c, 0, 64, 55
1, 384285, Control_c, 0, 64, 57
1, 384299, Control_c, 0, 64, 58
1, 384314, Control_c, 0, 64, 59
1, 384329, Control_c, 0, 64, 61
1, 384344, Control_c, 0, 64, 63
1, 384359, Control_c, 0, 64, 66
1, 384373, Control_c, 0, 64, 69
1, 384388, Control_c, 0, 64, 72
1, 384403, Control_c, 0, 64, 76
1, 384418, Control_c, 0, 64, 80
1, 384440, Control_c, 0, 64, 84
1, 384455, Control_c, 0, 64, 88
1, 384455, Control_c, 0, 67, 80
1, 384470, Control_c, 0, 64, 89
1, 384470, Control_c, 0, 67, 80
1, 384485, Control_c, 0, 64, 90
1, 384500, Control_c, 0, 64, 90
1, 384514, Control_c, 0, 67, 81
1, 384531, Note_off_c, 0, 66, 34
1, 384535, Note_off_c, 0, 35, 39
1, 384544, Note_off_c, 0, 47, 40
1, 384544, Control_c, 0, 64, 91
1, 384549, Note_off_c, 0, 63, 45
1, 384551, Note_off_c, 0, 54, 43
1, 384634, Control_c, 0, 67, 81
1, 384649, Control_c, 0, 67, 82
1, 384663, Control_c, 0, 67, 83
1, 384678, Control_c, 0, 67, 84
1, 384693, Control_c, 0, 67, 84
1, 384708, Control_c, 0, 67, 85
1, 384722, Control_c, 0, 67, 85
1, 384752, Control_c, 0, 67, 86
1, 384797, Control_c, 0, 67, 86
1, 385137, Control_c, 0, 64, 90
1, 385152, Control_c, 0, 64, 89
1, 385174, Control_c, 0, 64, 86
1, 385189, Note_on_c, 0, 63, 43
1, 385189, Control_c, 0, 64, 82
1, 385204, Control_c, 0, 64, 76
1, 385209, Note_on_c, 0, 35, 17
1, 385217, Note_on_c, 0, 54, 19
1, 385218, Control_c, 0, 64, 70
1, 385231, Note_on_c, 0, 59, 7
1, 385232, Poly_aftertouch_c, 0, 47, 127
1, 385233, Control_c, 0, 64, 65
1, 385248, Control_c, 0, 64, 60
1, 385263, Control_c, 0, 64, 57
1, 385278, Control_c, 0, 64, 57
1, 385353, Control_c, 0, 64, 57
1, 385367, Control_c, 0, 64, 58
1, 385382, Control_c, 0, 64, 58
1, 385397, Control_c, 0, 64, 59
1, 385412, Control_c, 0, 64, 59
1, 385427, Control_c, 0, 64, 60
1, 385442, Control_c, 0, 64, 61
1, 385457, Control_c, 0, 64, 62
1, 385472, Control_c, 0, 64, 63
1, 385486, Control_c, 0, 64, 64
1, 385486, Control_c, 0, 67, 86
1, 385501, Control_c, 0, 64, 65
1, 385501, Control_c, 0, 67, 85
1, 385516, Control_c, 0, 64, 66
1, 385516, Control_c, 0, 67, 85
1, 385531, Control_c, 0, 64, 68
1, 385540, Note_off_c, 0, 59, 10
1, 385545, Control_c, 0, 64, 69
1, 385560, Control_c, 0, 64, 71
1, 385575, Control_c, 0, 64, 72
1, 385575, Control_c, 0, 67, 84
1, 385590, Control_c, 0, 64, 75
1, 385605, Control_c, 0, 64, 76
1, 385605, Control_c, 0, 67, 84
1, 385620, Control_c, 0, 64, 77
1, 385634, Control_c, 0, 64, 78
1, 385649, Control_c, 0, 64, 79
1, 385678, Control_c, 0, 64, 79
1, 385678, Control_c, 0, 67, 83
1, 385708, Control_c, 0, 64, 80
1, 385775, Note_off_c, 0, 54, 25
1, 385787, Note_off_c, 0, 35, 35
1, 385830, Poly_aftertouch_c, 0, 47, 0
1, 385833, Note_off_c, 0, 63, 39
1, 385982, Control_c, 0, 64, 79
1, 386175, Control_c, 0, 64, 79
1, 386190, Control_c, 0, 67, 83
1, 386205, Control_c, 0, 64, 78
1, 386220, Control_c, 0, 67, 82
1, 386235, Control_c, 0, 64, 78
1, 386265, Control_c, 0, 64, 77
1, 386265, Control_c, 0, 67, 82
1, 386280, Control_c, 0, 64, 77
1, 386295, Control_c, 0, 64, 76
1, 386295, Control_c, 0, 67, 81
1, 386309, Control_c, 0, 64, 76
1, 386309, Control_c, 0, 67, 81
1, 386324, Control_c, 0, 64, 75
1, 386324, Control_c, 0, 67, 80
1, 386339, Control_c, 0, 67, 80
1, 386354, Control_c, 0, 67, 79
1, 386369, Control_c, 0, 67, 79
1, 386383, Control_c, 0, 64, 75
1, 386398, Control_c, 0, 67, 78
1, 386413, Control_c, 0, 67, 78
1, 386427, Control_c, 0, 64, 74
1, 386427, Control_c, 0, 67, 77
1, 386442, Control_c, 0, 67, 77
1, 386457, Control_c, 0, 67, 76
1, 386472, Control_c, 0, 67, 76
1, 386487, Control_c, 0, 67, 75
1, 386501, Control_c, 0, 67, 73
1, 386516, Control_c, 0, 67, 72
1, 386531, Control_c, 0, 67, 70
1, 386546, Control_c, 0, 67, 68
1, 386561, Control_c, 0, 67, 66
1, 386575, Control_c, 0, 67, 65
1, 386590, Control_c, 0, 64, 74
1, 386590, Control_c, 0, 67, 63
1, 386605, Control_c, 0, 64, 71
1, 386605, Control_c, 0, 67, 61
1, 386618, Note_on_c, 0, 66, 65
1, 386619, Control_c, 0, 64, 68
1, 386619, Control_c, 0, 67, 59
1, 386634, Control_c, 0, 64, 64
1, 386634, Control_c, 0, 67, 56
1, 386638, Note_on_c, 0, 54, 27
1, 386646, Note_on_c, 0, 47, 18
1, 386649, Control_c, 0, 64, 62
1, 386649, Control_c, 0, 67, 53
1, 386654, Note_on_c, 0, 63, 24
1, 386672, Control_c, 0, 64, 64
1, 386672, Control_c, 0, 67, 50
1, 386687, Control_c, 0, 64, 66
1, 386687, Control_c, 0, 67, 47
1, 386701, Control_c, 0, 64, 70
1, 386701, Control_c, 0, 67, 42
1, 386706, Note_off_c, 0, 63, 49
1, 386716, Control_c, 0, 64, 75
1, 386716, Control_c, 0, 67, 39
1, 386731, Control_c, 0, 64, 83
1, 386731, Control_c, 0, 67, 35
1, 386746, Control_c, 0, 64, 90
1, 386746, Control_c, 0, 67, 32
1, 386761, Control_c, 0, 64, 96
1, 386761, Control_c, 0, 67, 28
1, 386775, Control_c, 0, 64, 100
1, 386775, Control_c, 0, 67, 25
1, 386790, Control_c, 0, 64, 103
1, 386790, Control_c, 0, 67, 22
1, 386795, Note_off_c, 0, 47, 41
1, 386802, Note_off_c, 0, 54, 38
1, 386805, Control_c, 0, 64, 106
1, 386805, Control_c, 0, 67, 20
1, 386813, Note_off_c, 0, 66, 65
1, 386819, Control_c, 0, 64, 108
1, 386819, Control_c, 0, 67, 19
1, 386834, Control_c, 0, 64, 109
1, 386834, Control_c, 0, 67, 18
1, 386849, Control_c, 0, 64, 110
1, 386864, Control_c, 0, 64, 110
1, 386879, Control_c, 0, 64, 111
1, 386894, Control_c, 0, 64, 112
1, 386909, Control_c, 0, 64, 113
1, 386909, Control_c, 0, 67, 19
1, 386923, Control_c, 0, 64, 114
1, 386923, Control_c, 0, 67, 19
1, 386954, Control_c, 0, 67, 20
1, 386969, Control_c, 0, 67, 20
1, 386998, Control_c, 0, 67, 21
1, 387043, Control_c, 0, 67, 22
1, 387087, Control_c, 0, 67, 22
1, 387117, Control_c, 0, 67, 23
1, 387147, Control_c, 0, 64, 112
1, 387162, Control_c, 0, 64, 110
1, 387162, Control_c, 0, 67, 23
1, 387162, Note_on_c, 0, 54, 38
1, 387163, Note_on_c, 0, 47, 32
1, 387177, Control_c, 0, 64, 106
1, 387191, Control_c, 0, 64, 100
1, 387194, Note_on_c, 0, 71, 51
1, 387204, Note_on_c, 0, 63, 44
1, 387206, Control_c, 0, 64, 90
1, 387221, Control_c, 0, 64, 81
1, 387236, Control_c, 0, 64, 72
1, 387250, Control_c, 0, 64, 63
1, 387265, Control_c, 0, 64, 50
1, 387280, Control_c, 0, 64, 45
1, 387295, Control_c, 0, 64, 47
1, 387310, Control_c, 0, 64, 51
1, 387324, Control_c, 0, 64, 53
1, 387339, Control_c, 0, 64, 54
1, 387354, Control_c, 0, 64, 55
1, 387369, Control_c, 0, 64, 56
1, 387384, Control_c, 0, 64, 58
1, 387398, Control_c, 0, 64, 60
1, 387413, Control_c, 0, 64, 62
1, 387436, Control_c, 0, 64, 63
1, 387450, Control_c, 0, 64, 64
1, 387465, Control_c, 0, 64, 66
1, 387480, Control_c, 0, 64, 68
1, 387495, Control_c, 0, 64, 71
1, 387510, Control_c, 0, 64, 74
1, 387524, Control_c, 0, 64, 78
1, 387539, Control_c, 0, 64, 82
1, 387554, Control_c, 0, 64, 85
1, 387569, Control_c, 0, 64, 88
1, 387583, Control_c, 0, 64, 90
1, 387598, Control_c, 0, 64, 93
1, 387613, Control_c, 0, 64, 95
1, 387628, Control_c, 0, 64, 98
1, 387643, Control_c, 0, 64, 99
1, 387650, Note_off_c, 0, 63, 44
1, 387657, Note_off_c, 0, 47, 43
1, 387657, Control_c, 0, 64, 100
1, 387672, Control_c, 0, 64, 101
1, 387687, Control_c, 0, 64, 102
1, 387702, Control_c, 0, 64, 104
1, 387717, Control_c, 0, 64, 105
1, 387717, Control_c, 0, 67, 23
1, 387731, Control_c, 0, 64, 105
1, 388000, Note_off_c, 0, 71, 57
1, 388014, Control_c, 0, 64, 104
1, 388024, Note_on_c, 0, 47, 45
1, 388026, Note_on_c, 0, 55, 50
1, 388029, Control_c, 0, 64, 101
1, 388029, Note_on_c, 0, 70, 54
1, 388039, Note_on_c, 0, 63, 42
1, 388044, Control_c, 0, 64, 95
1, 388059, Control_c, 0, 64, 86
1, 388073, Control_c, 0, 64, 78
1, 388078, Note_off_c, 0, 54, 55
1, 388088, Control_c, 0, 64, 70
1, 388103, Control_c, 0, 64, 64
1, 388118, Control_c, 0, 64, 63
1, 388133, Control_c, 0, 64, 65
1, 388140, Note_off_c, 0, 47, 62
1, 388147, Control_c, 0, 64, 69
1, 388162, Control_c, 0, 64, 73
1, 388184, Control_c, 0, 64, 80
1, 388199, Control_c, 0, 64, 88
1, 388214, Control_c, 0, 64, 94
1, 388229, Control_c, 0, 64, 97
1, 388238, Note_off_c, 0, 63, 45
1, 388244, Control_c, 0, 64, 99
1, 388259, Control_c, 0, 64, 99
1, 388318, Control_c, 0, 67, 22
1, 388392, Control_c, 0, 64, 97
1, 388406, Control_c, 0, 64, 92
1, 388421, Control_c, 0, 64, 85
1, 388421, Control_c, 0, 67, 22
1, 388423, Note_on_c, 0, 56, 61
1, 388424, Note_on_c, 0, 47, 50
1, 388432, Note_on_c, 0, 68, 46
1, 388436, Control_c, 0, 64, 76
1, 388438, Note_on_c, 0, 63, 44
1, 388451, Control_c, 0, 64, 66
1, 388451, Control_c, 0, 67, 21
1, 388461, Note_off_c, 0, 55, 63
1, 388461, Note_off_c, 0, 70, 37
1, 388465, Control_c, 0, 64, 57
1, 388480, Control_c, 0, 64, 50
1, 388495, Control_c, 0, 64, 52
1, 388510, Control_c, 0, 64, 56
1, 388518, Note_off_c, 0, 47, 62
1, 388525, Control_c, 0, 64, 60
1, 388525, Control_c, 0, 67, 22
1, 388541, Control_c, 0, 64, 63
1, 388556, Control_c, 0, 64, 65
1, 388559, Note_off_c, 0, 63, 37
1, 388570, Control_c, 0, 64, 69
1, 388585, Control_c, 0, 64, 73
1, 388600, Control_c, 0, 64, 78
1, 388614, Control_c, 0, 64, 83
1, 388629, Control_c, 0, 64, 86
1, 388644, Control_c, 0, 64, 87
1, 388659, Control_c, 0, 64, 88
1, 388674, Control_c, 0, 64, 89
1, 388867, Control_c, 0, 64, 88
1, 388882, Control_c, 0, 64, 87
1, 388896, Control_c, 0, 64, 85
1, 388918, Control_c, 0, 64, 79
1, 388930, Note_on_c, 0, 47, 42
1, 388933, Note_on_c, 0, 57, 49
1, 388933, Control_c, 0, 64, 73
1, 388935, Note_off_c, 0, 68, 33
1, 388937, Note_on_c, 0, 66, 39
1, 388947, Note_on_c, 0, 63, 33
1, 388948, Control_c, 0, 64, 65
1, 388963, Control_c, 0, 64, 56
1, 388977, Control_c, 0, 64, 44
1, 388992, Control_c, 0, 64, 41
1, 389001, Note_off_c, 0, 56, 51
1, 389022, Control_c, 0, 67, 22
1, 389037, Control_c, 0, 64, 42
1, 389111, Control_c, 0, 64, 42
1, 389200, Control_c, 0, 64, 44
1, 389215, Control_c, 0, 64, 47
1, 389229, Control_c, 0, 64, 51
1, 389245, Control_c, 0, 64, 55
1, 389260, Control_c, 0, 64, 58
1, 389275, Control_c, 0, 64, 61
1, 389290, Control_c, 0, 64, 64
1, 389304, Control_c, 0, 64, 67
1, 389319, Control_c, 0, 64, 71
1, 389333, Note_off_c, 0, 66, 42
1, 389334, Control_c, 0, 64, 76
1, 389350, Control_c, 0, 64, 80
1, 389365, Control_c, 0, 64, 84
1, 389380, Control_c, 0, 64, 87
1, 389394, Control_c, 0, 64, 88
1, 389409, Control_c, 0, 64, 89
1, 389415, Note_off_c, 0, 63, 41
1, 389421, Note_off_c, 0, 47, 40
1, 389424, Control_c, 0, 64, 90
1, 389430, Note_off_c, 0, 57, 36
1, 389438, Control_c, 0, 64, 90
1, 389453, Control_c, 0, 64, 91
1, 389483, Control_c, 0, 64, 91
1, 389498, Control_c, 0, 64, 92
1, 389498, Control_c, 0, 67, 22
1, 389542, Control_c, 0, 64, 92
1, 389557, Control_c, 0, 67, 21
1, 389586, Control_c, 0, 67, 21
1, 389601, Control_c, 0, 67, 20
1, 389616, Control_c, 0, 67, 20
1, 389631, Control_c, 0, 64, 93
1, 389645, Control_c, 0, 67, 19
1, 389742, Control_c, 0, 67, 19
1, 389757, Control_c, 0, 64, 93
1, 389772, Control_c, 0, 64, 94
1, 389801, Control_c, 0, 64, 94
1, 389806, Note_on_c, 0, 63, 66
1, 389812, Note_on_c, 0, 47, 38
1, 389815, Note_on_c, 0, 57, 44
1, 389829, Note_on_c, 0, 59, 47
1, 389845, Control_c, 0, 64, 95
1, 389854, Note_off_c, 0, 57, 49
1, 389856, Note_off_c, 0, 47, 47
1, 389867, Note_off_c, 0, 59, 57
1, 389894, Note_off_c, 0, 63, 62
1, 389994, Control_c, 0, 64, 94
1, 389994, Control_c, 0, 67, 18
1, 390009, Control_c, 0, 64, 91
1, 390013, Note_on_c, 0, 63, 67
1, 390019, Note_on_c, 0, 59, 44
1, 390024, Control_c, 0, 64, 86
1, 390024, Control_c, 0, 67, 18
1, 390030, Note_on_c, 0, 47, 30
1, 390033, Note_on_c, 0, 57, 36
1, 390039, Control_c, 0, 64, 80
1, 390039, Control_c, 0, 67, 17
1, 390053, Control_c, 0, 64, 73
1, 390053, Control_c, 0, 67, 16
1, 390068, Control_c, 0, 64, 65
1, 390068, Control_c, 0, 67, 14
1, 390083, Control_c, 0, 64, 59
1, 390083, Control_c, 0, 67, 11
1, 390098, Control_c, 0, 64, 57
1, 390098, Control_c, 0, 67, 8
1, 390113, Control_c, 0, 64, 59
1, 390113, Control_c, 0, 67, 0
1, 390127, Control_c, 0, 64, 62
1, 390143, Control_c, 0, 64, 63
1, 390158, Control_c, 0, 64, 64
1, 390173, Control_c, 0, 64, 65
1, 390188, Control_c, 0, 64, 67
1, 390202, Control_c, 0, 64, 70
1, 390217, Control_c, 0, 64, 73
1, 390232, Control_c, 0, 64, 78
1, 390247, Control_c, 0, 64, 82
1, 390262, Control_c, 0, 64, 86
1, 390276, Control_c, 0, 64, 91
1, 390291, Control_c, 0, 64, 95
1, 390306, Control_c, 0, 64, 99
1, 390321, Control_c, 0, 64, 103
1, 390336, Control_c, 0, 64, 106
1, 390350, Control_c, 0, 64, 108
1, 390365, Control_c, 0, 64, 108
1, 390380, Control_c, 0, 64, 109
1, 390390, Note_off_c, 0, 57, 40
1, 390394, Control_c, 0, 64, 110
1, 390406, Note_off_c, 0, 59, 59
1, 390551, Note_off_c, 0, 47, 43
1, 390927, Note_on_c, 0, 40, 38
1, 390965, Control_c, 0, 64, 108
1, 390966, Note_on_c, 0, 56, 47
1, 390967, Note_on_c, 0, 64, 65
1, 390970, Note_on_c, 0, 59, 51
1, 390975, Note_off_c, 0, 63, 55
1, 390980, Control_c, 0, 64, 99
1, 390995, Control_c, 0, 64, 87
1, 391010, Control_c, 0, 64, 72
1, 391024, Control_c, 0, 64, 61
1, 391039, Control_c, 0, 64, 49
1, 391054, Control_c, 0, 64, 51
1, 391069, Control_c, 0, 64, 58
1, 391084, Control_c, 0, 64, 62
1, 391098, Control_c, 0, 64, 66
1, 391113, Control_c, 0, 64, 71
1, 391128, Control_c, 0, 64, 78
1, 391143, Control_c, 0, 64, 86
1, 391158, Control_c, 0, 64, 93
1, 391180, Control_c, 0, 64, 97
1, 391195, Control_c, 0, 64, 99
1, 391208, Note_off_c, 0, 59, 59
1, 391210, Control_c, 0, 64, 100
1, 391215, Note_off_c, 0, 56, 58
1, 391224, Control_c, 0, 64, 102
1, 391239, Control_c, 0, 64, 104
1, 391254, Control_c, 0, 64, 106
1, 391269, Control_c, 0, 64, 106
1, 391416, Control_c, 0, 64, 102
1, 391431, Control_c, 0, 64, 93
1, 391433, Note_on_c, 0, 59, 49
1, 391436, Note_on_c, 0, 63, 72
1, 391446, Control_c, 0, 64, 80
1, 391447, Note_on_c, 0, 54, 56
1, 391454, Note_on_c, 0, 47, 40
1, 391461, Control_c, 0, 64, 69
1, 391467, Note_off_c, 0, 64, 64
1, 391476, Control_c, 0, 64, 57
1, 391484, Note_off_c, 0, 40, 49
1, 391490, Control_c, 0, 64, 54
1, 391505, Control_c, 0, 64, 59
1, 391520, Control_c, 0, 64, 65
1, 391535, Control_c, 0, 64, 70
1, 391550, Control_c, 0, 64, 77
1, 391565, Control_c, 0, 64, 84
1, 391578, Note_off_c, 0, 59, 37
1, 391580, Control_c, 0, 64, 91
1, 391595, Control_c, 0, 64, 95
1, 391597, Note_off_c, 0, 54, 54
1, 391609, Control_c, 0, 64, 96
1, 391624, Control_c, 0, 64, 97
1, 391639, Control_c, 0, 64, 98
1, 391654, Control_c, 0, 64, 100
1, 391669, Control_c, 0, 64, 106
1, 391683, Control_c, 0, 64, 112
1, 391698, Control_c, 0, 64, 118
1, 391713, Control_c, 0, 64, 121
1, 391728, Control_c, 0, 64, 122
1, 391744, Control_c, 0, 64, 121
1, 391759, Control_c, 0, 64, 117
1, 391773, Control_c, 0, 64, 101
1, 391788, Control_c, 0, 64, 86
1, 391799, Note_off_c, 0, 63, 63
1, 391803, Control_c, 0, 64, 73
1, 391811, Note_on_c, 0, 64, 70
1, 391816, Note_on_c, 0, 40, 49
1, 391818, Note_on_c, 0, 56, 58
1, 391818, Control_c, 0, 64, 63
1, 391822, Note_on_c, 0, 59, 51
1, 391832, Control_c, 0, 64, 61
1, 391841, Note_off_c, 0, 47, 42
1, 391847, Control_c, 0, 64, 66
1, 391862, Control_c, 0, 64, 73
1, 391877, Control_c, 0, 64, 82
1, 391892, Control_c, 0, 64, 93
1, 391907, Control_c, 0, 64, 104
1, 391920, Note_off_c, 0, 59, 58
1, 391928, Control_c, 0, 64, 113
1, 391934, Note_off_c, 0, 56, 46
1, 391943, Control_c, 0, 64, 123
1, 391958, Control_c, 0, 64, 127
1, 391985, Note_off_c, 0, 64, 64
1, 392151, Control_c, 0, 64, 115
1, 392165, Control_c, 0, 64, 92
1, 392180, Control_c, 0, 64, 75
1, 392185, Note_on_c, 0, 68, 68
1, 392188, Note_on_c, 0, 64, 56
1, 392195, Control_c, 0, 64, 64
1, 392198, Note_on_c, 0, 37, 44
1, 392203, Note_on_c, 0, 59, 40
1, 392210, Control_c, 0, 64, 60
1, 392225, Control_c, 0, 64, 64
1, 392237, Note_off_c, 0, 59, 59
1, 392240, Control_c, 0, 64, 71
1, 392248, Note_off_c, 0, 40, 48
1, 392255, Control_c, 0, 64, 80
1, 392256, Note_off_c, 0, 37, 58
1, 392270, Control_c, 0, 64, 90
1, 392285, Control_c, 0, 64, 99
1, 392300, Control_c, 0, 64, 108
1, 392314, Control_c, 0, 64, 121
1, 392329, Control_c, 0, 64, 127
1, 392646, Note_on_c, 0, 42, 51
1, 392653, Note_on_c, 0, 52, 43
1, 392665, Note_on_c, 0, 61, 68
1, 392671, Note_on_c, 0, 58, 56
1, 392678, Control_c, 0, 64, 115
1, 392693, Control_c, 0, 64, 101
1, 392708, Control_c, 0, 64, 90
1, 392723, Control_c, 0, 64, 80
1, 392738, Control_c, 0, 64, 72
1, 392752, Control_c, 0, 64, 67
1, 392767, Control_c, 0, 64, 63
1, 392782, Control_c, 0, 64, 62
1, 392797, Note_off_c, 0, 68, 55
1, 392802, Note_off_c, 0, 64, 60
1, 392870, Control_c, 0, 64, 61
1, 392900, Control_c, 0, 64, 61
1, 392930, Control_c, 0, 64, 60
1, 392945, Control_c, 0, 64, 60
1, 392975, Control_c, 0, 64, 59
1, 392989, Control_c, 0, 64, 59
1, 393019, Control_c, 0, 64, 58
1, 393049, Control_c, 0, 64, 58
1, 393078, Control_c, 0, 64, 57
1, 393108, Control_c, 0, 64, 57
1, 393123, Control_c, 0, 64, 56
1, 393137, Control_c, 0, 64, 56
1, 393167, Control_c, 0, 64, 55
1, 393196, Control_c, 0, 64, 55
1, 393211, Control_c, 0, 64, 54
1, 393226, Control_c, 0, 64, 54
1, 393241, Control_c, 0, 64, 53
1, 393256, Control_c, 0, 64, 52
1, 393270, Control_c, 0, 64, 52
1, 393300, Control_c, 0, 64, 51
1, 393315, Control_c, 0, 64, 51
1, 393331, Control_c, 0, 64, 50
1, 393346, Control_c, 0, 64, 50
1, 393360, Control_c, 0, 64, 49
1, 393375, Control_c, 0, 64, 48
1, 393390, Control_c, 0, 64, 48
1, 393412, Control_c, 0, 64, 47
1, 393442, Control_c, 0, 64, 47
1, 393459, Note_on_c, 0, 51, 46
1, 393472, Control_c, 0, 64, 46
1, 393486, Control_c, 0, 64, 44
1, 393493, Note_on_c, 0, 60, 68
1, 393501, Control_c, 0, 64, 40
1, 393516, Control_c, 0, 64, 33
1, 393525, Note_off_c, 0, 61, 63
1, 393531, Control_c, 0, 64, 9
1, 393538, Note_off_c, 0, 52, 62
1, 393546, Control_c, 0, 64, 0
1, 393890, Note_on_c, 0, 52, 49
1, 393907, Note_on_c, 0, 61, 73
1, 393913, Note_off_c, 0, 51, 60
1, 393952, Note_off_c, 0, 60, 62
1, 393955, Note_off_c, 0, 58, 55
1, 393959, Note_off_c, 0, 42, 52
1, 394293, Note_on_c, 0, 64, 72
1, 394300, Note_on_c, 0, 56, 33
1, 394302, Note_on_c, 0, 58, 48
1, 394313, Note_off_c, 0, 61, 61
1, 394429, Note_off_c, 0, 52, 62
1, 394501, Control_c, 0, 64, 15
1, 394515, Control_c, 0, 64, 41
1, 394530, Control_c, 0, 64, 57
1, 394545, Control_c, 0, 64, 63
1, 394559, Control_c, 0, 64, 66
1, 394574, Control_c, 0, 64, 70
1, 394589, Control_c, 0, 64, 75
1, 394604, Control_c, 0, 64, 80
1, 394619, Control_c, 0, 64, 86
1, 394633, Control_c, 0, 64, 91
1, 394648, Control_c, 0, 64, 95
1, 394663, Control_c, 0, 64, 100
1, 394678, Control_c, 0, 64, 104
1, 394693, Control_c, 0, 64, 108
1, 394707, Control_c, 0, 64, 113
1, 394722, Control_c, 0, 64, 121
1, 394737, Control_c, 0, 64, 127
1, 394768, Note_off_c, 0, 58, 37
1, 394964, Note_on_c, 0, 54, 48
1, 394966, Note_on_c, 0, 63, 69
1, 394974, Note_off_c, 0, 56, 41
1, 394990, Note_off_c, 0, 64, 59
1, 394993, Note_off_c, 0, 54, 65
1, 395039, Note_off_c, 0, 63, 59
1, 395145, Control_c, 0, 64, 120
1, 395160, Control_c, 0, 64, 103
1, 395169, Note_on_c, 0, 63, 57
1, 395172, Note_on_c, 0, 47, 36
1, 395175, Control_c, 0, 64, 91
1, 395176, Note_on_c, 0, 54, 36
1, 395187, Note_on_c, 0, 59, 43
1, 395190, Control_c, 0, 64, 80
1, 395204, Control_c, 0, 64, 72
1, 395219, Control_c, 0, 64, 64
1, 395234, Control_c, 0, 64, 55
1, 395249, Control_c, 0, 64, 50
1, 395264, Control_c, 0, 64, 51
1, 395279, Control_c, 0, 64, 54
1, 395294, Control_c, 0, 64, 56
1, 395309, Control_c, 0, 64, 57
1, 395324, Control_c, 0, 64, 58
1, 395338, Control_c, 0, 64, 60
1, 395353, Control_c, 0, 64, 63
1, 395368, Control_c, 0, 64, 65
1, 395382, Control_c, 0, 64, 69
1, 395397, Control_c, 0, 64, 75
1, 395412, Control_c, 0, 64, 81
1, 395427, Control_c, 0, 64, 87
1, 395442, Control_c, 0, 64, 93
1, 395445, Note_off_c, 0, 59, 42
1, 395456, Control_c, 0, 64, 97
1, 395471, Control_c, 0, 64, 100
1, 395486, Control_c, 0, 64, 101
1, 395501, Control_c, 0, 64, 103
1, 395513, Note_off_c, 0, 47, 42
1, 395516, Control_c, 0, 64, 105
1, 395530, Control_c, 0, 64, 106
1, 395539, Note_off_c, 0, 54, 41
1, 395550, Note_off_c, 0, 63, 60
1, 395560, Control_c, 0, 64, 106
1, 395575, Control_c, 0, 64, 107
1, 395589, Control_c, 0, 64, 107
1, 395968, Control_c, 0, 64, 107
1, 395984, Note_on_c, 0, 46, 41
1, 395995, Note_on_c, 0, 56, 46
1, 395999, Control_c, 0, 64, 105
1, 396013, Control_c, 0, 64, 100
1, 396028, Control_c, 0, 64, 92
1, 396029, Note_on_c, 0, 65, 70
1, 396043, Note_on_c, 0, 63, 52
1, 396043, Control_c, 0, 64, 80
1, 396058, Control_c, 0, 64, 70
1, 396073, Control_c, 0, 64, 58
1, 396087, Control_c, 0, 64, 31
1, 396102, Control_c, 0, 64, 0
1, 396132, Control_c, 0, 64, 17
1, 396147, Control_c, 0, 64, 21
1, 396161, Control_c, 0, 64, 26
1, 396176, Control_c, 0, 64, 32
1, 396191, Control_c, 0, 64, 40
1, 396206, Control_c, 0, 64, 47
1, 396221, Control_c, 0, 64, 50
1, 396236, Control_c, 0, 64, 55
1, 396251, Control_c, 0, 64, 59
1, 396266, Control_c, 0, 64, 63
1, 396280, Control_c, 0, 64, 67
1, 396295, Control_c, 0, 64, 72
1, 396310, Control_c, 0, 64, 77
1, 396324, Control_c, 0, 64, 83
1, 396339, Control_c, 0, 64, 88
1, 396354, Control_c, 0, 64, 91
1, 396369, Control_c, 0, 64, 94
1, 396384, Control_c, 0, 64, 95
1, 396399, Control_c, 0, 64, 97
1, 396421, Control_c, 0, 64, 98
1, 396436, Control_c, 0, 64, 99
1, 396465, Control_c, 0, 64, 99
1, 396580, Note_off_c, 0, 63, 33
1, 396585, Note_on_c, 0, 66, 74
1, 396607, Note_off_c, 0, 65, 56
1, 396642, Note_off_c, 0, 56, 44
1, 396892, Note_on_c, 0, 53, 57
1, 396910, Control_c, 0, 64, 99
1, 396924, Control_c, 0, 64, 98
1, 396939, Control_c, 0, 64, 97
1, 396954, Control_c, 0, 64, 96
1, 396969, Control_c, 0, 64, 91
1, 396974, Note_off_c, 0, 66, 58
1, 396978, Note_on_c, 0, 68, 72
1, 396984, Control_c, 0, 64, 84
1, 396988, Note_on_c, 0, 62, 51
1, 396999, Control_c, 0, 64, 75
1, 397014, Control_c, 0, 64, 67
1, 397028, Control_c, 0, 64, 57
1, 397043, Control_c, 0, 64, 43
1, 397058, Control_c, 0, 64, 41
1, 397073, Control_c, 0, 64, 44
1, 397088, Control_c, 0, 64, 50
1, 397102, Control_c, 0, 64, 53
1, 397117, Control_c, 0, 64, 56
1, 397132, Control_c, 0, 64, 58
1, 397154, Control_c, 0, 64, 60
1, 397169, Control_c, 0, 64, 63
1, 397184, Control_c, 0, 64, 67
1, 397199, Control_c, 0, 64, 71
1, 397214, Control_c, 0, 64, 76
1, 397228, Control_c, 0, 64, 80
1, 397243, Control_c, 0, 64, 82
1, 397258, Control_c, 0, 64, 84
1, 397273, Control_c, 0, 64, 85
1, 397288, Control_c, 0, 64, 86
1, 397345, Note_on_c, 0, 58, 60
1, 397348, Control_c, 0, 64, 86
1, 397373, Note_off_c, 0, 53, 63
1, 397574, Note_on_c, 0, 53, 57
1, 397598, Note_off_c, 0, 46, 61
1, 397603, Note_off_c, 0, 58, 38
1, 397642, Note_off_c, 0, 68, 65
1, 397655, Note_on_c, 0, 70, 69
1, 397762, Control_c, 0, 64, 86
1, 397837, Control_c, 0, 64, 85
1, 397881, Control_c, 0, 64, 85
1, 397914, Note_on_c, 0, 51, 39
1, 397932, Control_c, 0, 64, 84
1, 397947, Control_c, 0, 64, 84
1, 397953, Note_on_c, 0, 58, 37
1, 397962, Control_c, 0, 64, 82
1, 397977, Control_c, 0, 64, 80
1, 397989, Note_off_c, 0, 70, 52
1, 397992, Control_c, 0, 64, 76
1, 397995, Note_on_c, 0, 68, 57
1, 397995, Note_on_c, 0, 63, 43
1, 398003, Note_off_c, 0, 53, 28
1, 398006, Control_c, 0, 64, 72
1, 398021, Control_c, 0, 64, 66
1, 398036, Control_c, 0, 64, 60
1, 398051, Note_off_c, 0, 62, 39
1, 398051, Control_c, 0, 64, 51
1, 398066, Control_c, 0, 64, 48
1, 398156, Control_c, 0, 64, 49
1, 398170, Control_c, 0, 64, 49
1, 398185, Control_c, 0, 64, 50
1, 398230, Control_c, 0, 64, 50
1, 398363, Control_c, 0, 64, 50
1, 398422, Control_c, 0, 64, 49
1, 398511, Control_c, 0, 64, 49
1, 398552, Note_off_c, 0, 68, 52
1, 398553, Note_on_c, 0, 67, 50
1, 398644, Control_c, 0, 64, 48
1, 398770, Control_c, 0, 64, 48
1, 398844, Control_c, 0, 64, 47
1, 398934, Control_c, 0, 64, 47
1, 399023, Control_c, 0, 64, 46
1, 399151, Note_on_c, 0, 66, 28
1, 399157, Note_off_c, 0, 67, 31
1, 399172, Control_c, 0, 64, 46
1, 399261, Control_c, 0, 64, 45
1, 399416, Control_c, 0, 64, 45
1, 399431, Control_c, 0, 67, 8
1, 399446, Control_c, 0, 67, 10
1, 399461, Control_c, 0, 67, 12
1, 399476, Control_c, 0, 67, 14
1, 399491, Control_c, 0, 67, 17
1, 399505, Control_c, 0, 64, 45
1, 399505, Control_c, 0, 67, 21
1, 399520, Control_c, 0, 64, 47
1, 399520, Control_c, 0, 67, 25
1, 399535, Control_c, 0, 64, 49
1, 399535, Control_c, 0, 67, 28
1, 399550, Control_c, 0, 64, 52
1, 399550, Control_c, 0, 67, 31
1, 399564, Control_c, 0, 64, 55
1, 399564, Control_c, 0, 67, 34
1, 399579, Control_c, 0, 64, 58
1, 399579, Control_c, 0, 67, 36
1, 399594, Control_c, 0, 64, 60
1, 399594, Control_c, 0, 67, 40
1, 399609, Control_c, 0, 64, 62
1, 399609, Control_c, 0, 67, 44
1, 399624, Control_c, 0, 64, 64
1, 399624, Control_c, 0, 67, 48
1, 399638, Control_c, 0, 64, 66
1, 399638, Control_c, 0, 67, 53
1, 399653, Control_c, 0, 64, 69
1, 399653, Control_c, 0, 67, 57
1, 399668, Control_c, 0, 64, 74
1, 399668, Control_c, 0, 67, 62
1, 399683, Control_c, 0, 64, 78
1, 399683, Control_c, 0, 67, 66
1, 399698, Control_c, 0, 64, 81
1, 399698, Control_c, 0, 67, 70
1, 399712, Control_c, 0, 64, 84
1, 399712, Control_c, 0, 67, 73
1, 399728, Control_c, 0, 64, 87
1, 399728, Control_c, 0, 67, 76
1, 399743, Control_c, 0, 64, 89
1, 399743, Control_c, 0, 67, 78
1, 399758, Control_c, 0, 64, 92
1, 399758, Control_c, 0, 67, 81
1, 399772, Control_c, 0, 64, 93
1, 399772, Control_c, 0, 67, 82
1, 399787, Control_c, 0, 64, 95
1, 399787, Control_c, 0, 67, 84
1, 399802, Control_c, 0, 64, 97
1, 399802, Control_c, 0, 67, 87
1, 399817, Control_c, 0, 64, 98
1, 399817, Control_c, 0, 67, 89
1, 399829, Note_off_c, 0, 58, 39
1, 399832, Control_c, 0, 64, 99
1, 399832, Control_c, 0, 67, 92
1, 399846, Control_c, 0, 67, 94
1, 399861, Control_c, 0, 64, 99
1, 399861, Control_c, 0, 67, 97
1, 399876, Control_c, 0, 67, 99
1, 399891, Control_c, 0, 67, 101
1, 399906, Note_off_c, 0, 51, 41
1, 399906, Control_c, 0, 67, 103
1, 399912, Note_off_c, 0, 66, 41
1, 399920, Control_c, 0, 67, 105
1, 399935, Control_c, 0, 67, 108
1, 399950, Control_c, 0, 67, 111
1, 399965, Control_c, 0, 67, 114
1, 399980, Control_c, 0, 67, 116
1, 399995, Control_c, 0, 67, 117
1, 400010, Control_c, 0, 67, 118
1, 400025, Control_c, 0, 67, 119
1, 400039, Control_c, 0, 67, 119
1, 400054, Control_c, 0, 67, 120
1, 400069, Control_c, 0, 67, 121
1, 400084, Control_c, 0, 67, 121
1, 400099, Control_c, 0, 67, 122
1, 400143, Control_c, 0, 67, 122
1, 400238, Note_off_c, 0, 63, 42
1, 400537, Control_c, 0, 64, 99
1, 400610, Control_c, 0, 64, 98
1, 400640, Control_c, 0, 64, 98
1, 400655, Control_c, 0, 64, 97
1, 400670, Control_c, 0, 64, 96
1, 400678, Note_on_c, 0, 51, 38
1, 400684, Control_c, 0, 64, 95
1, 400688, Note_on_c, 0, 66, 44
1, 400699, Control_c, 0, 64, 92
1, 400700, Note_on_c, 0, 44, 25
1, 400710, Note_on_c, 0, 60, 27
1, 400714, Control_c, 0, 64, 88
1, 400729, Control_c, 0, 64, 83
1, 400743, Control_c, 0, 64, 78
1, 400758, Control_c, 0, 64, 73
1, 400773, Control_c, 0, 64, 67
1, 400788, Control_c, 0, 64, 61
1, 400803, Control_c, 0, 64, 56
1, 400832, Control_c, 0, 64, 57
1, 400847, Control_c, 0, 64, 58
1, 400862, Control_c, 0, 64, 59
1, 400877, Control_c, 0, 64, 60
1, 400899, Control_c, 0, 64, 61
1, 400914, Control_c, 0, 64, 63
1, 400928, Control_c, 0, 64, 65
1, 400943, Control_c, 0, 64, 67
1, 400958, Control_c, 0, 64, 69
1, 400973, Control_c, 0, 64, 73
1, 400988, Control_c, 0, 64, 77
1, 401002, Control_c, 0, 64, 80
1, 401017, Control_c, 0, 64, 82
1, 401032, Control_c, 0, 64, 84
1, 401047, Control_c, 0, 64, 85
1, 401062, Control_c, 0, 64, 86
1, 401077, Control_c, 0, 64, 88
1, 401092, Control_c, 0, 64, 89
1, 401107, Control_c, 0, 64, 90
1, 401122, Control_c, 0, 64, 91
1, 401151, Control_c, 0, 64, 91
1, 401172, Note_on_c, 0, 56, 37
1, 401181, Control_c, 0, 64, 92
1, 401196, Control_c, 0, 64, 92
1, 401212, Note_off_c, 0, 51, 42
1, 401269, Control_c, 0, 64, 93
1, 401329, Control_c, 0, 64, 93
1, 401565, Note_on_c, 0, 51, 35
1, 401581, Note_off_c, 0, 56, 37
1, 401631, Note_off_c, 0, 44, 36
1, 401671, Note_off_c, 0, 60, 43
1, 401699, Note_on_c, 0, 68, 44
1, 401746, Note_off_c, 0, 66, 39
1, 402019, Control_c, 0, 64, 93
1, 402033, Control_c, 0, 64, 92
1, 402047, Note_on_c, 0, 49, 34
1, 402048, Control_c, 0, 64, 91
1, 402063, Control_c, 0, 64, 88
1, 402066, Note_on_c, 0, 56, 32
1, 402070, Note_on_c, 0, 64, 44
1, 402076, Note_off_c, 0, 51, 39
1, 402078, Control_c, 0, 64, 84
1, 402090, Note_on_c, 0, 61, 36
1, 402093, Control_c, 0, 64, 78
1, 402107, Control_c, 0, 64, 73
1, 402114, Note_off_c, 0, 68, 41
1, 402123, Control_c, 0, 64, 66
1, 402138, Control_c, 0, 64, 58
1, 402153, Control_c, 0, 64, 49
1, 402168, Control_c, 0, 64, 47
1, 402182, Control_c, 0, 64, 48
1, 402197, Control_c, 0, 64, 48
1, 402227, Control_c, 0, 64, 49
1, 402242, Control_c, 0, 64, 50
1, 402256, Control_c, 0, 64, 52
1, 402271, Control_c, 0, 64, 53
1, 402286, Control_c, 0, 64, 55
1, 402301, Control_c, 0, 64, 56
1, 402316, Control_c, 0, 64, 58
1, 402330, Control_c, 0, 64, 60
1, 402345, Control_c, 0, 64, 62
1, 402360, Control_c, 0, 64, 64
1, 402374, Control_c, 0, 64, 66
1, 402389, Control_c, 0, 64, 69
1, 402389, Control_c, 0, 67, 121
1, 402412, Control_c, 0, 64, 74
1, 402427, Control_c, 0, 64, 80
1, 402427, Control_c, 0, 67, 121
1, 402442, Control_c, 0, 64, 85
1, 402456, Control_c, 0, 64, 89
1, 402456, Control_c, 0, 67, 120
1, 402471, Control_c, 0, 64, 91
1, 402486, Control_c, 0, 64, 93
1, 402486, Control_c, 0, 67, 120
1, 402501, Control_c, 0, 64, 94
1, 402501, Control_c, 0, 67, 119
1, 402516, Control_c, 0, 64, 96
1, 402530, Control_c, 0, 64, 97
1, 402530, Control_c, 0, 67, 119
1, 402545, Control_c, 0, 64, 98
1, 402560, Control_c, 0, 64, 99
1, 402560, Control_c, 0, 67, 118
1, 402587, Note_off_c, 0, 56, 41
1, 402589, Control_c, 0, 64, 99
1, 402589, Control_c, 0, 67, 118
1, 402619, Control_c, 0, 64, 100
1, 402638, Note_off_c, 0, 64, 39
1, 402692, Control_c, 0, 64, 100
1, 402710, Note_off_c, 0, 61, 40
1, 402845, Note_off_c, 0, 49, 39
1, 403220, Control_c, 0, 64, 99
1, 403235, Control_c, 0, 64, 97
1, 403250, Control_c, 0, 64, 93
1, 403254, Note_on_c, 0, 64, 51
1, 403259, Note_on_c, 0, 49, 29
1, 403265, Control_c, 0, 64, 86
1, 403270, Note_on_c, 0, 61, 34
1, 403274, Note_on_c, 0, 56, 34
1, 403279, Control_c, 0, 64, 79
1, 403294, Control_c, 0, 64, 73
1, 403309, Control_c, 0, 64, 68
1, 403323, Control_c, 0, 64, 66
1, 403353, Control_c, 0, 64, 67
1, 403368, Control_c, 0, 64, 68
1, 403383, Control_c, 0, 64, 70
1, 403397, Control_c, 0, 64, 73
1, 403397, Control_c, 0, 67, 117
1, 403412, Control_c, 0, 64, 76
1, 403427, Control_c, 0, 64, 80
1, 403427, Control_c, 0, 67, 117
1, 403442, Control_c, 0, 64, 84
1, 403457, Control_c, 0, 64, 88
1, 403465, Note_off_c, 0, 61, 54
1, 403471, Control_c, 0, 64, 91
1, 403476, Note_off_c, 0, 56, 39
1, 403486, Control_c, 0, 64, 94
1, 403501, Control_c, 0, 64, 96
1, 403516, Control_c, 0, 64, 97
1, 403560, Control_c, 0, 64, 98
1, 403792, Note_off_c, 0, 64, 32
1, 403798, Control_c, 0, 64, 96
1, 403806, Note_on_c, 0, 63, 51
1, 403811, Note_on_c, 0, 44, 36
1, 403813, Control_c, 0, 64, 92
1, 403818, Note_on_c, 0, 56, 38
1, 403828, Control_c, 0, 64, 86
1, 403834, Note_on_c, 0, 59, 37
1, 403840, Note_off_c, 0, 49, 39
1, 403843, Control_c, 0, 64, 78
1, 403858, Control_c, 0, 64, 72
1, 403873, Control_c, 0, 64, 65
1, 403894, Control_c, 0, 64, 62
1, 403909, Control_c, 0, 64, 62
1, 403924, Control_c, 0, 64, 64
1, 403939, Control_c, 0, 64, 67
1, 403953, Control_c, 0, 64, 69
1, 403968, Control_c, 0, 64, 72
1, 403983, Control_c, 0, 64, 75
1, 403988, Note_off_c, 0, 59, 58
1, 403998, Control_c, 0, 64, 79
1, 404013, Control_c, 0, 64, 84
1, 404028, Control_c, 0, 64, 87
1, 404033, Note_off_c, 0, 56, 42
1, 404043, Control_c, 0, 64, 90
1, 404058, Control_c, 0, 64, 91
1, 404073, Control_c, 0, 64, 92
1, 404088, Control_c, 0, 64, 93
1, 404117, Control_c, 0, 67, 117
1, 404176, Control_c, 0, 67, 118
1, 404339, Control_c, 0, 64, 92
1, 404353, Control_c, 0, 64, 91
1, 404359, Note_off_c, 0, 63, 34
1, 404368, Control_c, 0, 64, 89
1, 404368, Control_c, 0, 67, 118
1, 404383, Control_c, 0, 64, 84
1, 404388, Note_on_c, 0, 64, 44
1, 404396, Note_on_c, 0, 56, 35
1, 404398, Control_c, 0, 64, 78
1, 404401, Note_on_c, 0, 49, 32
1, 404409, Note_on_c, 0, 61, 22
1, 404413, Control_c, 0, 64, 70
1, 404427, Control_c, 0, 64, 62
1, 404442, Control_c, 0, 64, 52
1, 404447, Note_off_c, 0, 44, 38
1, 404457, Control_c, 0, 64, 47
1, 404472, Control_c, 0, 64, 48
1, 404487, Control_c, 0, 64, 52
1, 404502, Control_c, 0, 64, 56
1, 404517, Control_c, 0, 64, 57
1, 404532, Control_c, 0, 64, 58
1, 404547, Control_c, 0, 64, 60
1, 404562, Control_c, 0, 64, 63
1, 404576, Control_c, 0, 64, 65
1, 404591, Control_c, 0, 64, 69
1, 404606, Control_c, 0, 64, 74
1, 404621, Control_c, 0, 64, 79
1, 404635, Note_off_c, 0, 61, 41
1, 404643, Control_c, 0, 64, 83
1, 404658, Control_c, 0, 64, 86
1, 404673, Control_c, 0, 64, 87
1, 404676, Note_off_c, 0, 56, 53
1, 404688, Control_c, 0, 64, 88
1, 404703, Control_c, 0, 64, 88
1, 404747, Control_c, 0, 67, 119
1, 404776, Control_c, 0, 64, 89
1, 405102, Control_c, 0, 64, 88
1, 405117, Control_c, 0, 64, 87
1, 405132, Control_c, 0, 64, 87
1, 405147, Control_c, 0, 64, 85
1, 405158, Note_on_c, 0, 42, 35
1, 405162, Control_c, 0, 64, 81
1, 405167, Note_off_c, 0, 64, 42
1, 405172, Note_on_c, 0, 66, 37
1, 405173, Note_on_c, 0, 58, 31
1, 405176, Control_c, 0, 64, 76
1, 405180, Note_on_c, 0, 61, 29
1, 405191, Control_c, 0, 64, 71
1, 405206, Control_c, 0, 64, 65
1, 405221, Control_c, 0, 64, 59
1, 405227, Note_off_c, 0, 49, 36
1, 405236, Control_c, 0, 64, 51
1, 405250, Control_c, 0, 64, 48
1, 405295, Control_c, 0, 64, 48
1, 405310, Control_c, 0, 64, 49
1, 405326, Control_c, 0, 64, 50
1, 405340, Control_c, 0, 64, 52
1, 405355, Control_c, 0, 64, 54
1, 405370, Control_c, 0, 64, 55
1, 405392, Control_c, 0, 64, 57
1, 405407, Control_c, 0, 64, 59
1, 405422, Control_c, 0, 64, 60
1, 405437, Control_c, 0, 64, 62
1, 405452, Control_c, 0, 64, 63
1, 405466, Control_c, 0, 64, 66
1, 405481, Control_c, 0, 64, 69
1, 405496, Control_c, 0, 64, 72
1, 405511, Control_c, 0, 64, 75
1, 405525, Control_c, 0, 64, 78
1, 405540, Control_c, 0, 64, 80
1, 405555, Control_c, 0, 64, 81
1, 405570, Control_c, 0, 64, 82
1, 405585, Control_c, 0, 64, 82
1, 405595, Note_off_c, 0, 58, 43
1, 405599, Control_c, 0, 64, 83
1, 405610, Note_off_c, 0, 61, 34
1, 405614, Control_c, 0, 64, 83
1, 405629, Control_c, 0, 64, 84
1, 405644, Note_off_c, 0, 66, 36
1, 405644, Control_c, 0, 64, 84
1, 405659, Control_c, 0, 64, 85
1, 405688, Control_c, 0, 64, 85
1, 405703, Control_c, 0, 64, 86
1, 405718, Control_c, 0, 64, 86
1, 405733, Control_c, 0, 64, 87
1, 406363, Control_c, 0, 64, 86
1, 406408, Control_c, 0, 64, 86
1, 406437, Control_c, 0, 64, 85
1, 406452, Control_c, 0, 64, 84
1, 406467, Control_c, 0, 64, 82
1, 406478, Note_on_c, 0, 30, 21
1, 406482, Control_c, 0, 64, 79
1, 406488, Note_on_c, 0, 64, 33
1, 406490, Note_on_c, 0, 54, 32
1, 406492, Note_on_c, 0, 66, 31
1, 406496, Control_c, 0, 64, 75
1, 406497, Note_on_c, 0, 58, 22
1, 406511, Control_c, 0, 64, 71
1, 406526, Control_c, 0, 64, 66
1, 406541, Control_c, 0, 64, 62
1, 406556, Control_c, 0, 64, 57
1, 406571, Control_c, 0, 64, 55
1, 406600, Control_c, 0, 64, 56
1, 406675, Control_c, 0, 64, 56
1, 406704, Control_c, 0, 64, 57
1, 406719, Control_c, 0, 64, 57
1, 406748, Control_c, 0, 64, 58
1, 406763, Control_c, 0, 64, 58
1, 406778, Control_c, 0, 64, 59
1, 406793, Control_c, 0, 64, 60
1, 406808, Control_c, 0, 64, 60
1, 406822, Control_c, 0, 64, 61
1, 406837, Control_c, 0, 64, 62
1, 406852, Control_c, 0, 64, 63
1, 406866, Control_c, 0, 64, 64
1, 406881, Control_c, 0, 64, 65
1, 406904, Control_c, 0, 64, 66
1, 406919, Control_c, 0, 64, 67
1, 406934, Control_c, 0, 64, 69
1, 406949, Control_c, 0, 64, 71
1, 406964, Control_c, 0, 64, 73
1, 406979, Control_c, 0, 64, 75
1, 406994, Control_c, 0, 64, 77
1, 407009, Control_c, 0, 64, 78
1, 407024, Control_c, 0, 64, 79
1, 407039, Control_c, 0, 64, 79
1, 407053, Control_c, 0, 64, 80
1, 407053, Control_c, 0, 67, 118
1, 407068, Control_c, 0, 64, 81
1, 407083, Control_c, 0, 64, 81
1, 407098, Control_c, 0, 64, 82
1, 407113, Control_c, 0, 64, 82
1, 407113, Control_c, 0, 67, 118
1, 407127, Control_c, 0, 64, 83
1, 407157, Control_c, 0, 64, 84
1, 407171, Control_c, 0, 64, 84
1, 407186, Control_c, 0, 64, 85
1, 407201, Control_c, 0, 64, 85
1, 407201, Control_c, 0, 67, 117
1, 407215, Control_c, 0, 64, 86
1, 407259, Control_c, 0, 64, 86
1, 407259, Control_c, 0, 67, 117
1, 407289, Control_c, 0, 64, 87
1, 407289, Control_c, 0, 67, 116
1, 407318, Control_c, 0, 64, 87
1, 407333, Control_c, 0, 67, 116
1, 407362, Control_c, 0, 67, 115
1, 407377, Control_c, 0, 67, 115
1, 407422, Control_c, 0, 67, 114
1, 407436, Control_c, 0, 67, 114
1, 407480, Control_c, 0, 64, 88
1, 407480, Control_c, 0, 67, 113
1, 407495, Control_c, 0, 67, 113
1, 407525, Control_c, 0, 67, 112
1, 407569, Control_c, 0, 67, 112
1, 407614, Control_c, 0, 67, 111
1, 407629, Control_c, 0, 67, 110
1, 407651, Control_c, 0, 67, 109
1, 407666, Control_c, 0, 67, 108
1, 407681, Control_c, 0, 67, 106
1, 407695, Control_c, 0, 67, 104
1, 407710, Control_c, 0, 67, 102
1, 407727, Control_c, 0, 67, 100
1, 407742, Control_c, 0, 67, 98
1, 407756, Control_c, 0, 67, 97
1, 407771, Control_c, 0, 67, 95
1, 407786, Control_c, 0, 67, 93
1, 407800, Control_c, 0, 67, 92
1, 407815, Control_c, 0, 67, 90
1, 407830, Control_c, 0, 67, 87
1, 407845, Control_c, 0, 67, 85
1, 407860, Control_c, 0, 67, 82
1, 407874, Control_c, 0, 67, 79
1, 407889, Control_c, 0, 67, 76
1, 407904, Control_c, 0, 67, 74
1, 407918, Control_c, 0, 67, 72
1, 407933, Control_c, 0, 67, 71
1, 407948, Control_c, 0, 67, 70
1, 407963, Control_c, 0, 67, 69
1, 407978, Control_c, 0, 67, 68
1, 407993, Control_c, 0, 67, 67
1, 408007, Control_c, 0, 67, 66
1, 408022, Control_c, 0, 67, 64
1, 408037, Control_c, 0, 67, 60
1, 408052, Control_c, 0, 67, 58
1, 408067, Control_c, 0, 67, 55
1, 408082, Control_c, 0, 67, 53
1, 408097, Control_c, 0, 67, 51
1, 408111, Control_c, 0, 67, 49
1, 408126, Control_c, 0, 67, 47
1, 408141, Control_c, 0, 67, 46
1, 408156, Control_c, 0, 67, 44
1, 408171, Control_c, 0, 67, 43
1, 408185, Control_c, 0, 67, 42
1, 408200, Control_c, 0, 67, 42
1, 408230, Control_c, 0, 67, 41
1, 408259, Control_c, 0, 67, 41
1, 408289, Control_c, 0, 67, 40
1, 408303, Control_c, 0, 67, 39
1, 408318, Control_c, 0, 67, 38
1, 408333, Control_c, 0, 67, 37
1, 408348, Control_c, 0, 67, 35
1, 408350, Note_off_c, 0, 58, 32
1, 408363, Control_c, 0, 67, 34
1, 408377, Note_off_c, 0, 54, 38
1, 408378, Control_c, 0, 67, 32
1, 408400, Control_c, 0, 67, 30
1, 408415, Control_c, 0, 67, 29
1, 408430, Control_c, 0, 67, 27
1, 408445, Control_c, 0, 67, 26
1, 408459, Control_c, 0, 67, 25
1, 408474, Control_c, 0, 67, 24
1, 408489, Control_c, 0, 67, 23
1, 408504, Control_c, 0, 67, 23
1, 408520, Control_c, 0, 67, 22
1, 408535, Control_c, 0, 67, 21
1, 408549, Control_c, 0, 67, 21
1, 408556, Note_off_c, 0, 64, 29
1, 408564, Control_c, 0, 67, 20
1, 408579, Control_c, 0, 67, 20
1, 408594, Control_c, 0, 67, 19
1, 408609, Control_c, 0, 67, 18
1, 408623, Control_c, 0, 67, 18
1, 408638, Control_c, 0, 67, 17
1, 408653, Control_c, 0, 67, 16
1, 408668, Control_c, 0, 67, 15
1, 408683, Control_c, 0, 67, 14
1, 408697, Control_c, 0, 67, 13
1, 408713, Control_c, 0, 67, 12
1, 408728, Control_c, 0, 67, 11
1, 408742, Control_c, 0, 67, 10
1, 408757, Control_c, 0, 67, 9
1, 408772, Control_c, 0, 67, 8
1, 408787, Control_c, 0, 67, 0
1, 409023, Note_off_c, 0, 66, 39
1, 409128, Control_c, 0, 64, 87
1, 409164, Control_c, 0, 64, 87
1, 409224, Control_c, 0, 64, 86
1, 409283, Control_c, 0, 64, 86
1, 409402, Control_c, 0, 64, 85
1, 409654, Control_c, 0, 64, 84
1, 409669, Control_c, 0, 64, 80
1, 409683, Control_c, 0, 64, 73
1, 409698, Control_c, 0, 64, 64
1, 409704, Note_on_c, 0, 63, 84
1, 409711, Note_on_c, 0, 57, 68
1, 409713, Control_c, 0, 64, 52
1, 409715, Note_on_c, 0, 60, 65
1, 409728, Control_c, 0, 64, 51
1, 409730, Note_off_c, 0, 57, 64
1, 409735, Note_off_c, 0, 60, 65
1, 409743, Control_c, 0, 64, 58
1, 409746, Note_off_c, 0, 63, 68
1, 409757, Control_c, 0, 64, 63
1, 409772, Control_c, 0, 64, 68
1, 409787, Control_c, 0, 64, 73
1, 409802, Control_c, 0, 64, 78
1, 409817, Control_c, 0, 64, 82
1, 409832, Control_c, 0, 64, 84
1, 409847, Control_c, 0, 64, 86
1, 409862, Control_c, 0, 64, 88
1, 409876, Control_c, 0, 64, 89
1, 409898, Control_c, 0, 64, 91
1, 409913, Control_c, 0, 64, 91
1, 409928, Control_c, 0, 64, 92
1, 410145, Note_on_c, 0, 51, 47
1, 410160, Note_off_c, 0, 42, 40
1, 410175, Note_off_c, 0, 30, 35
1, 410285, Note_on_c, 0, 57, 51
1, 410330, Note_off_c, 0, 51, 38
1, 410428, Note_on_c, 0, 61, 54
1, 410521, Control_c, 0, 64, 91
1, 410536, Control_c, 0, 64, 88
1, 410551, Control_c, 0, 64, 82
1, 410552, Note_on_c, 0, 30, 43
1, 410555, Note_on_c, 0, 42, 47
1, 410562, Note_on_c, 0, 60, 58
1, 410566, Control_c, 0, 64, 73
1, 410567, Note_off_c, 0, 61, 57
1, 410580, Note_off_c, 0, 57, 37
1, 410580, Control_c, 0, 64, 63
1, 410595, Control_c, 0, 64, 51
1, 410610, Control_c, 0, 64, 50
1, 410625, Control_c, 0, 64, 56
1, 410648, Control_c, 0, 64, 62
1, 410662, Control_c, 0, 64, 65
1, 410668, Note_off_c, 0, 30, 56
1, 410676, Note_on_c, 0, 58, 68
1, 410677, Control_c, 0, 64, 69
1, 410692, Control_c, 0, 64, 74
1, 410707, Control_c, 0, 64, 78
1, 410720, Note_off_c, 0, 42, 61
1, 410721, Control_c, 0, 64, 82
1, 410736, Control_c, 0, 64, 85
1, 410741, Note_off_c, 0, 60, 55
1, 410751, Control_c, 0, 64, 88
1, 410766, Control_c, 0, 64, 90
1, 410771, Note_on_c, 0, 57, 61
1, 410781, Note_off_c, 0, 58, 66
1, 410781, Control_c, 0, 64, 92
1, 410793, Note_off_c, 0, 57, 60
1, 410795, Control_c, 0, 64, 93
1, 410825, Control_c, 0, 64, 93
1, 410840, Control_c, 0, 64, 94
1, 410855, Control_c, 0, 64, 95
1, 410869, Note_on_c, 0, 63, 70
1, 410869, Control_c, 0, 64, 95
1, 410915, Control_c, 0, 64, 96
1, 410930, Control_c, 0, 64, 96
1, 410944, Control_c, 0, 64, 97
1, 410959, Note_on_c, 0, 69, 56
1, 410959, Note_off_c, 0, 63, 51
1, 410959, Control_c, 0, 64, 97
1, 410974, Control_c, 0, 64, 98
1, 410989, Control_c, 0, 64, 99
1, 411003, Control_c, 0, 64, 99
1, 411048, Note_on_c, 0, 73, 61
1, 411063, Control_c, 0, 64, 94
1, 411078, Control_c, 0, 64, 85
1, 411087, Note_on_c, 0, 57, 63
1, 411090, Note_on_c, 0, 60, 59
1, 411092, Note_on_c, 0, 54, 59
1, 411093, Control_c, 0, 64, 74
1, 411093, Note_off_c, 0, 69, 32
1, 411094, Note_on_c, 0, 51, 50
1, 411105, Note_on_c, 0, 72, 67
1, 411108, Control_c, 0, 64, 67
1, 411112, Note_off_c, 0, 73, 63
1, 411117, Note_off_c, 0, 57, 66
1, 411119, Note_off_c, 0, 51, 59
1, 411121, Note_off_c, 0, 54, 66
1, 411122, Control_c, 0, 64, 66
1, 411124, Note_off_c, 0, 60, 66
1, 411137, Control_c, 0, 64, 68
1, 411152, Control_c, 0, 64, 72
1, 411167, Control_c, 0, 64, 80
1, 411181, Note_on_c, 0, 70, 71
1, 411182, Control_c, 0, 64, 88
1, 411197, Control_c, 0, 64, 95
1, 411211, Control_c, 0, 64, 100
1, 411218, Note_off_c, 0, 72, 64
1, 411226, Control_c, 0, 64, 103
1, 411231, Note_on_c, 0, 69, 59
1, 411238, Note_off_c, 0, 70, 66
1, 411241, Control_c, 0, 64, 104
1, 411252, Note_off_c, 0, 69, 62
1, 411256, Control_c, 0, 64, 105
1, 411315, Control_c, 0, 64, 105
1, 411319, Note_on_c, 0, 75, 65
1, 411344, Control_c, 0, 64, 106
1, 411394, Note_on_c, 0, 81, 56
1, 411409, Note_off_c, 0, 75, 48
1, 411470, Control_c, 0, 64, 102
1, 411472, Note_on_c, 0, 85, 71
1, 411479, Note_off_c, 0, 81, 53
1, 411485, Control_c, 0, 64, 91
1, 411500, Control_c, 0, 64, 77
1, 411515, Note_on_c, 0, 63, 65
1, 411515, Control_c, 0, 64, 64
1, 411516, Note_on_c, 0, 69, 66
1, 411519, Note_on_c, 0, 72, 76
1, 411522, Note_on_c, 0, 66, 69
1, 411524, Note_on_c, 0, 84, 73
1, 411530, Control_c, 0, 64, 54
1, 411544, Control_c, 0, 64, 59
1, 411559, Control_c, 0, 64, 63
1, 411564, Note_off_c, 0, 85, 64
1, 411574, Control_c, 0, 64, 69
1, 411589, Control_c, 0, 64, 77
1, 411595, Note_on_c, 0, 82, 80
1, 411604, Control_c, 0, 64, 88
1, 411618, Control_c, 0, 64, 101
1, 411629, Note_off_c, 0, 72, 63
1, 411633, Control_c, 0, 64, 114
1, 411636, Note_off_c, 0, 84, 65
1, 411638, Note_on_c, 0, 81, 62
1, 411648, Control_c, 0, 64, 127
1, 411663, Note_off_c, 0, 81, 67
1, 411669, Note_off_c, 0, 82, 50
1, 411731, Note_on_c, 0, 87, 69
1, 411759, Note_on_c, 0, 92, 66
1, 411786, Note_off_c, 0, 92, 64
1, 411799, Note_on_c, 0, 93, 68
1, 411811, Note_on_c, 0, 73, 68
1, 411828, Note_off_c, 0, 63, 62
1, 411837, Note_off_c, 0, 73, 67
1, 411843, Note_off_c, 0, 66, 63
1, 411850, Note_on_c, 0, 97, 69
1, 411859, Note_off_c, 0, 69, 59
1, 411892, Note_on_c, 0, 96, 81
1, 411897, Note_on_c, 0, 69, 39
1, 411898, Note_on_c, 0, 63, 63
1, 411898, Note_off_c, 0, 87, 63
1, 411899, Note_on_c, 0, 66, 57
1, 411900, Note_on_c, 0, 72, 70
1, 411905, Note_off_c, 0, 93, 65
1, 411912, Note_off_c, 0, 96, 71
1, 411912, Note_off_c, 0, 97, 64
1, 411927, Note_off_c, 0, 69, 61
1, 411927, Note_off_c, 0, 72, 68
1, 411928, Note_off_c, 0, 63, 65
1, 411932, Note_off_c, 0, 66, 66
1, 412203, Note_on_c, 0, 51, 71
1, 412300, Note_on_c, 0, 57, 61
1, 412306, Note_off_c, 0, 51, 58
1, 412389, Note_on_c, 0, 61, 63
1, 412441, Control_c, 0, 64, 99
1, 412446, Note_on_c, 0, 30, 63
1, 412456, Control_c, 0, 64, 80
1, 412463, Note_on_c, 0, 42, 55
1, 412467, Note_off_c, 0, 57, 30
1, 412468, Note_off_c, 0, 61, 64
1, 412471, Control_c, 0, 64, 64
1, 412482, Note_on_c, 0, 60, 67
1, 412485, Control_c, 0, 64, 34
1, 412500, Control_c, 0, 64, 41
1, 412509, Note_off_c, 0, 30, 61
1, 412516, Control_c, 0, 64, 57
1, 412529, Note_off_c, 0, 42, 63
1, 412531, Control_c, 0, 64, 65
1, 412546, Control_c, 0, 64, 73
1, 412561, Control_c, 0, 64, 85
1, 412568, Note_on_c, 0, 58, 72
1, 412576, Control_c, 0, 64, 95
1, 412590, Control_c, 0, 64, 99
1, 412605, Control_c, 0, 64, 100
1, 412615, Note_off_c, 0, 60, 63
1, 412635, Control_c, 0, 64, 101
1, 412637, Note_on_c, 0, 57, 56
1, 412637, Note_off_c, 0, 58, 67
1, 412650, Control_c, 0, 64, 101
1, 412661, Note_off_c, 0, 57, 59
1, 412708, Control_c, 0, 64, 102
1, 412711, Note_on_c, 0, 63, 78
1, 412723, Control_c, 0, 64, 103
1, 412738, Control_c, 0, 64, 105
1, 412753, Control_c, 0, 64, 107
1, 412768, Control_c, 0, 64, 113
1, 412783, Control_c, 0, 64, 127
1, 412787, Note_on_c, 0, 69, 63
1, 412801, Note_off_c, 0, 63, 58
1, 412859, Note_on_c, 0, 73, 74
1, 412869, Note_off_c, 0, 69, 59
1, 412891, Note_on_c, 0, 51, 66
1, 412893, Note_on_c, 0, 60, 73
1, 412894, Control_c, 0, 64, 98
1, 412898, Note_on_c, 0, 54, 70
1, 412900, Note_on_c, 0, 57, 64
1, 412908, Control_c, 0, 64, 81
1, 412920, Note_on_c, 0, 72, 77
1, 412923, Control_c, 0, 64, 72
1, 412926, Note_off_c, 0, 51, 65
1, 412927, Note_off_c, 0, 73, 63
1, 412928, Note_off_c, 0, 54, 67
1, 412928, Note_off_c, 0, 60, 65
1, 412933, Note_off_c, 0, 57, 66
1, 412938, Control_c, 0, 64, 72
1, 412953, Control_c, 0, 64, 75
1, 412968, Control_c, 0, 64, 85
1, 412983, Control_c, 0, 64, 98
1, 412992, Note_on_c, 0, 70, 78
1, 412997, Control_c, 0, 64, 127
1, 413039, Note_off_c, 0, 72, 64
1, 413042, Note_on_c, 0, 69, 64
1, 413054, Note_off_c, 0, 70, 66
1, 413057, Note_off_c, 0, 69, 69
1, 413130, Note_on_c, 0, 75, 74
1, 413173, Note_on_c, 0, 82, 66
1, 413188, Note_off_c, 0, 75, 60
1, 413259, Note_on_c, 0, 85, 73
1, 413264, Note_off_c, 0, 82, 63
1, 413279, Control_c, 0, 64, 114
1, 413294, Control_c, 0, 64, 89
1, 413310, Note_on_c, 0, 75, 77
1, 413310, Control_c, 0, 64, 72
1, 413313, Note_on_c, 0, 84, 74
1, 413315, Note_on_c, 0, 69, 68
1, 413316, Note_on_c, 0, 66, 71
1, 413325, Control_c, 0, 64, 63
1, 413339, Note_off_c, 0, 85, 65
1, 413339, Control_c, 0, 64, 65
1, 413354, Control_c, 0, 64, 70
1, 413369, Control_c, 0, 64, 79
1, 413377, Note_on_c, 0, 82, 84
1, 413384, Control_c, 0, 64, 94
1, 413399, Control_c, 0, 64, 127
1, 413427, Note_off_c, 0, 84, 64
1, 413448, Note_on_c, 0, 81, 61
1, 413451, Note_off_c, 0, 82, 66
1, 413465, Note_off_c, 0, 81, 66
1, 413519, Note_on_c, 0, 87, 85
1, 413578, Note_on_c, 0, 93, 66
1, 413590, Note_off_c, 0, 66, 59
1, 413616, Note_on_c, 0, 77, 72
1, 413635, Note_off_c, 0, 75, 61
1, 413637, Note_off_c, 0, 69, 65
1, 413654, Note_on_c, 0, 97, 78
1, 413673, Control_c, 0, 64, 105
1, 413687, Control_c, 0, 64, 74
1, 413699, Note_on_c, 0, 96, 87
1, 413702, Control_c, 0, 64, 40
1, 413710, Note_on_c, 0, 75, 82
1, 413710, Note_on_c, 0, 66, 72
1, 413711, Note_on_c, 0, 69, 72
1, 413717, Control_c, 0, 64, 0
1, 413720, Note_off_c, 0, 77, 64
1, 413731, Note_off_c, 0, 93, 64
1, 413731, Control_c, 0, 64, 57
1, 413734, Note_off_c, 0, 96, 69
1, 413736, Note_off_c, 0, 87, 63
1, 413736, Note_off_c, 0, 97, 63
1, 413746, Control_c, 0, 64, 71
1, 413748, Note_off_c, 0, 75, 66
1, 413755, Note_off_c, 0, 69, 67
1, 413756, Note_off_c, 0, 66, 63
1, 413761, Control_c, 0, 64, 93
1, 413776, Control_c, 0, 64, 127
1, 413954, Note_on_c, 0, 52, 78
1, 414035, Note_on_c, 0, 58, 82
1, 414117, Note_on_c, 0, 63, 82
1, 414118, Control_c, 0, 64, 101
1, 414133, Control_c, 0, 64, 74
1, 414147, Note_off_c, 0, 58, 60
1, 414148, Control_c, 0, 64, 0
1, 414151, Note_off_c, 0, 52, 61
1, 414201, Note_on_c, 0, 30, 83
1, 414202, Note_on_c, 0, 42, 89
1, 414208, Note_on_c, 0, 61, 80
1, 414238, Note_off_c, 0, 30, 63
1, 414257, Note_off_c, 0, 42, 63
1, 414266, Control_c, 0, 64, 53
1, 414280, Control_c, 0, 64, 64
1, 414281, Note_on_c, 0, 59, 75
1, 414282, Note_off_c, 0, 63, 61
1, 414295, Control_c, 0, 64, 71
1, 414310, Control_c, 0, 64, 79
1, 414325, Control_c, 0, 64, 88
1, 414340, Control_c, 0, 64, 94
1, 414354, Note_on_c, 0, 58, 77
1, 414354, Control_c, 0, 64, 97
1, 414363, Note_off_c, 0, 61, 59
1, 414365, Note_off_c, 0, 59, 64
1, 414369, Control_c, 0, 64, 98
1, 414387, Note_off_c, 0, 58, 69
1, 414392, Control_c, 0, 64, 99
1, 414407, Control_c, 0, 64, 99
1, 414444, Note_on_c, 0, 64, 81
1, 414480, Control_c, 0, 64, 100
1, 414495, Control_c, 0, 64, 100
1, 414510, Control_c, 0, 64, 102
1, 414513, Note_on_c, 0, 70, 78
1, 414525, Control_c, 0, 64, 105
1, 414527, Note_off_c, 0, 64, 53
1, 414540, Control_c, 0, 64, 112
1, 414554, Control_c, 0, 64, 127
1, 414578, Note_on_c, 0, 75, 78
1, 414612, Note_off_c, 0, 70, 60
1, 414637, Note_on_c, 0, 61, 83
1, 414641, Note_on_c, 0, 52, 68
1, 414643, Note_on_c, 0, 58, 78
1, 414644, Note_on_c, 0, 54, 77
1, 414652, Note_on_c, 0, 73, 84
1, 414658, Control_c, 0, 64, 96
1, 414670, Note_off_c, 0, 52, 66
1, 414673, Control_c, 0, 64, 80
1, 414676, Note_off_c, 0, 58, 61
1, 414679, Note_off_c, 0, 54, 66
1, 414682, Note_off_c, 0, 61, 62
1, 414688, Control_c, 0, 64, 77
1, 414703, Control_c, 0, 64, 79
1, 414718, Note_off_c, 0, 75, 57
1, 414718, Control_c, 0, 64, 85
1, 414720, Note_on_c, 0, 71, 66
1, 414726, Note_on_c, 0, 72, 65
1, 414733, Control_c, 0, 64, 96
1, 414748, Control_c, 0, 64, 113
1, 414762, Control_c, 0, 64, 127
1, 414784, Note_off_c, 0, 72, 62
1, 414787, Note_on_c, 0, 70, 74
1, 414791, Note_off_c, 0, 73, 61
1, 414792, Note_off_c, 0, 71, 66
1, 414813, Note_off_c, 0, 70, 64
1, 414863, Note_on_c, 0, 76, 87
1, 414930, Note_on_c, 0, 82, 86
1, 414993, Note_on_c, 0, 87, 83
1, 415000, Note_off_c, 0, 76, 27
1, 415010, Note_off_c, 0, 82, 61
1, 415030, Control_c, 0, 64, 95
1, 415045, Control_c, 0, 64, 71
1, 415059, Note_on_c, 0, 70, 80
1, 415059, Note_on_c, 0, 73, 87
1, 415060, Control_c, 0, 64, 0
1, 415060, Note_on_c, 0, 64, 71
1, 415064, Note_on_c, 0, 66, 78
1, 415065, Note_on_c, 0, 85, 82
1, 415090, Control_c, 0, 64, 47
1, 415104, Control_c, 0, 64, 64
1, 415119, Control_c, 0, 64, 76
1, 415131, Note_on_c, 0, 83, 81
1, 415133, Note_off_c, 0, 87, 61
1, 415141, Control_c, 0, 64, 98
1, 415156, Control_c, 0, 64, 127
1, 415186, Note_off_c, 0, 73, 66
1, 415201, Note_on_c, 0, 82, 85
1, 415210, Note_off_c, 0, 83, 66
1, 415215, Note_off_c, 0, 85, 62
1, 415221, Note_off_c, 0, 82, 72
1, 415278, Note_on_c, 0, 88, 87
1, 415349, Note_on_c, 0, 94, 87
1, 415361, Note_on_c, 0, 75, 67
1, 415386, Note_off_c, 0, 75, 67
1, 415389, Note_on_c, 0, 99, 85
1, 415395, Note_off_c, 0, 64, 64
1, 415410, Note_off_c, 0, 66, 63
1, 415410, Note_off_c, 0, 70, 65
1, 415449, Note_on_c, 0, 97, 92
1, 415450, Note_on_c, 0, 73, 96
1, 415451, Note_on_c, 0, 64, 75
1, 415454, Note_on_c, 0, 70, 76
1, 415459, Note_on_c, 0, 66, 74
1, 415464, Note_off_c, 0, 88, 67
1, 415469, Note_off_c, 0, 94, 67
1, 415475, Note_off_c, 0, 99, 64
1, 415486, Note_off_c, 0, 97, 67
1, 415487, Note_off_c, 0, 73, 60
1, 415487, Note_off_c, 0, 64, 65
1, 415498, Note_off_c, 0, 70, 63
1, 415501, Note_off_c, 0, 66, 65
1, 415714, Note_on_c, 0, 52, 84
1, 415761, Note_on_c, 0, 53, 4
1, 415802, Note_on_c, 0, 58, 89
1, 415901, Note_on_c, 0, 63, 90
1, 415901, Note_off_c, 0, 53, 0
1, 415931, Note_off_c, 0, 58, 62
1, 415946, Note_off_c, 0, 52, 59
1, 415949, Control_c, 0, 64, 105
1, 415962, Poly_aftertouch_c, 0, 53, 0
1, 415963, Control_c, 0, 64, 73
1, 415975, Note_on_c, 0, 42, 97
1, 415978, Note_on_c, 0, 30, 91
1, 415978, Control_c, 0, 64, 0
1, 415984, Note_on_c, 0, 61, 90
1, 416008, Note_off_c, 0, 30, 67
1, 416021, Note_off_c, 0, 42, 66
1, 416023, Control_c, 0, 64, 32
1, 416038, Control_c, 0, 64, 62
1, 416052, Control_c, 0, 64, 73
1, 416067, Control_c, 0, 64, 90
1, 416068, Note_on_c, 0, 59, 80
1, 416082, Control_c, 0, 64, 116
1, 416097, Control_c, 0, 64, 127
1, 416140, Note_on_c, 0, 58, 80
1, 416150, Note_off_c, 0, 59, 64
1, 416151, Note_off_c, 0, 61, 56
1, 416160, Note_off_c, 0, 63, 28
1, 416163, Note_off_c, 0, 58, 68
1, 416227, Note_on_c, 0, 64, 83
1, 416270, Note_off_c, 0, 64, 60
1, 416270, Poly_aftertouch_c, 0, 58, 127
1, 416298, Note_on_c, 0, 70, 86
1, 416311, Poly_aftertouch_c, 0, 58, 0
1, 416372, Note_on_c, 0, 75, 84
1, 416380, Note_off_c, 0, 70, 53
1, 416437, Control_c, 0, 64, 118
1, 416443, Note_on_c, 0, 64, 93
1, 416447, Note_on_c, 0, 52, 74
1, 416449, Note_on_c, 0, 54, 85
1, 416451, Note_on_c, 0, 58, 90
1, 416452, Control_c, 0, 64, 86
1, 416453, Note_on_c, 0, 73, 92
1, 416467, Control_c, 0, 64, 66
1, 416479, Note_off_c, 0, 52, 65
1, 416482, Control_c, 0, 64, 49
1, 416491, Note_off_c, 0, 64, 66
1, 416497, Control_c, 0, 64, 60
1, 416503, Note_off_c, 0, 54, 64
1, 416503, Note_off_c, 0, 58, 65
1, 416512, Control_c, 0, 64, 69
1, 416527, Control_c, 0, 64, 82
1, 416530, Note_on_c, 0, 71, 73
1, 416542, Control_c, 0, 64, 106
1, 416554, Note_off_c, 0, 75, 58
1, 416557, Control_c, 0, 64, 127
1, 416606, Note_on_c, 0, 70, 61
1, 416629, Note_off_c, 0, 73, 61
1, 416632, Note_off_c, 0, 71, 66
1, 416654, Note_off_c, 0, 70, 64
1, 416715, Note_on_c, 0, 76, 88
1, 416792, Note_on_c, 0, 82, 92
1, 416807, Note_off_c, 0, 76, 32
1, 416876, Note_on_c, 0, 87, 88
1, 416904, Note_off_c, 0, 82, 60
1, 416964, Note_on_c, 0, 76, 100
1, 416964, Control_c, 0, 64, 95
1, 416966, Note_on_c, 0, 70, 90
1, 416968, Note_on_c, 0, 64, 82
1, 416968, Note_on_c, 0, 66, 85
1, 416970, Note_on_c, 0, 85, 90
1, 416979, Control_c, 0, 64, 73
1, 416994, Control_c, 0, 64, 51
1, 417009, Control_c, 0, 64, 29
1, 417023, Control_c, 0, 64, 52
1, 417038, Control_c, 0, 64, 64
1, 417053, Control_c, 0, 64, 76
1, 417060, Note_on_c, 0, 83, 85
1, 417068, Control_c, 0, 64, 95
1, 417082, Control_c, 0, 64, 127
1, 417110, Note_off_c, 0, 87, 38
1, 417141, Note_on_c, 0, 82, 87
1, 417150, Note_off_c, 0, 85, 61
1, 417153, Note_off_c, 0, 83, 65
1, 417170, Note_off_c, 0, 82, 63
1, 417186, Note_off_c, 0, 76, 63
1, 417236, Note_off_c, 0, 64, 55
1, 417241, Note_on_c, 0, 88, 87
1, 417327, Note_on_c, 0, 94, 94
1, 417407, Note_on_c, 0, 78, 93
1, 417440, Note_off_c, 0, 94, 62
1, 417443, Note_off_c, 0, 70, 62
1, 417451, Note_off_c, 0, 66, 64
1, 417465, Note_on_c, 0, 99, 95
1, 417478, Note_off_c, 0, 78, 62
1, 417490, Note_off_c, 0, 88, 0
1, 417490, Note_on_c, 0, 88, 10
1, 417585, Note_off_c, 0, 88, 57
1, 417619, Note_on_c, 0, 76, 101
1, 417621, Note_on_c, 0, 70, 90
1, 417624, Note_on_c, 0, 66, 88
1, 417624, Control_c, 0, 64, 110
1, 417626, Note_on_c, 0, 64, 83
1, 417628, Note_on_c, 0, 97, 79
1, 417639, Control_c, 0, 64, 81
1, 417654, Control_c, 0, 64, 61
1, 417669, Control_c, 0, 64, 0
1, 417683, Control_c, 0, 64, 34
1, 417698, Control_c, 0, 64, 61
1, 417713, Control_c, 0, 64, 73
1, 417728, Control_c, 0, 64, 90
1, 417743, Control_c, 0, 64, 127
1, 417769, Note_on_c, 0, 94, 91
1, 417776, Note_off_c, 0, 99, 50
1, 417861, Note_on_c, 0, 90, 93
1, 417886, Note_off_c, 0, 97, 63
1, 417907, Note_off_c, 0, 94, 65
1, 417928, Note_off_c, 0, 76, 56
1, 417933, Note_off_c, 0, 90, 66
1, 417942, Note_on_c, 0, 88, 85
1, 417958, Note_off_c, 0, 66, 61
1, 417976, Note_off_c, 0, 70, 61
1, 417991, Note_off_c, 0, 88, 65
1, 418026, Note_on_c, 0, 85, 84
1, 418100, Note_on_c, 0, 82, 84
1, 418131, Note_off_c, 0, 85, 64
1, 418186, Note_on_c, 0, 78, 86
1, 418208, Note_off_c, 0, 82, 65
1, 418243, Note_off_c, 0, 78, 65
1, 418263, Note_on_c, 0, 76, 75
1, 418319, Note_off_c, 0, 76, 48
1, 418337, Note_on_c, 0, 73, 80
1, 418338, Note_off_c, 0, 64, 69
1, 418410, Note_on_c, 0, 70, 78
1, 418420, Note_off_c, 0, 73, 63
1, 418476, Note_on_c, 0, 66, 83
1, 418488, Note_off_c, 0, 70, 64
1, 418520, Note_off_c, 0, 66, 66
1, 418546, Note_on_c, 0, 64, 74
1, 418611, Note_off_c, 0, 64, 59
1, 418616, Note_on_c, 0, 61, 83
1, 418691, Note_on_c, 0, 58, 85
1, 418703, Note_off_c, 0, 61, 64
1, 418764, Note_on_c, 0, 54, 87
1, 418780, Note_off_c, 0, 58, 66
1, 418820, Note_off_c, 0, 54, 66
1, 418835, Note_on_c, 0, 52, 77
1, 418921, Note_on_c, 0, 49, 81
1, 418933, Note_off_c, 0, 52, 62
1, 419001, Note_on_c, 0, 46, 84
1, 419022, Note_off_c, 0, 49, 64
1, 419090, Note_on_c, 0, 42, 91
1, 419098, Note_off_c, 0, 46, 66
1, 419161, Note_off_c, 0, 42, 62
1, 419175, Note_on_c, 0, 40, 84
1, 419265, Note_on_c, 0, 37, 87
1, 419302, Note_off_c, 0, 40, 58
1, 419374, Note_on_c, 0, 31, 92
1, 419388, Note_off_c, 0, 37, 56
1, 419388, Control_c, 0, 64, 109
1, 419403, Control_c, 0, 64, 95
1, 419417, Control_c, 0, 64, 85
1, 419432, Control_c, 0, 64, 79
1, 419436, Note_off_c, 0, 31, 58
1, 419447, Control_c, 0, 64, 77
1, 419481, Note_on_c, 0, 33, 82
1, 419522, Note_off_c, 0, 33, 59
1, 419535, Control_c, 0, 64, 76
1, 419550, Control_c, 0, 64, 74
1, 419563, Note_on_c, 0, 31, 83
1, 419565, Control_c, 0, 64, 70
1, 419580, Control_c, 0, 64, 64
1, 419595, Control_c, 0, 64, 54
1, 419610, Control_c, 0, 64, 0
1, 419641, Note_off_c, 0, 31, 60
1, 419669, Note_on_c, 0, 30, 92
1, 419751, Poly_aftertouch_c, 0, 31, 0
1, 419899, Control_c, 0, 64, 42
1, 419914, Control_c, 0, 64, 57
1, 419928, Note_off_c, 0, 30, 63
1, 419929, Control_c, 0, 64, 65
1, 419944, Control_c, 0, 64, 71
1, 419959, Control_c, 0, 64, 80
1, 419973, Control_c, 0, 64, 87
1, 419988, Control_c, 0, 64, 90
1, 420003, Control_c, 0, 64, 91
1, 420092, Control_c, 0, 64, 88
1, 420107, Control_c, 0, 64, 79
1, 420122, Control_c, 0, 64, 64
1, 420137, Control_c, 0, 64, 0
1, 420256, Note_on_c, 0, 66, 81
1, 420258, Note_on_c, 0, 78, 94
1, 420258, Note_on_c, 0, 90, 90
1, 420259, Note_on_c, 0, 54, 77
1, 420283, Note_off_c, 0, 66, 67
1, 420285, Control_c, 0, 64, 51
1, 420295, Note_off_c, 0, 90, 66
1, 420299, Control_c, 0, 64, 77
1, 420301, Note_off_c, 0, 54, 65
1, 420307, Note_off_c, 0, 78, 65
1, 420314, Control_c, 0, 64, 102
1, 420329, Control_c, 0, 64, 127
1, 420555, Note_on_c, 0, 54, 81
1, 420556, Note_on_c, 0, 66, 96
1, 420557, Note_on_c, 0, 42, 81
1, 420557, Note_on_c, 0, 78, 92
1, 420577, Note_off_c, 0, 54, 70
1, 420587, Note_off_c, 0, 42, 66
1, 420591, Note_off_c, 0, 78, 69
1, 420593, Note_off_c, 0, 66, 67
1, 420949, Note_on_c, 0, 42, 81
1, 420950, Note_on_c, 0, 54, 92
1, 420951, Note_on_c, 0, 30, 81
1, 420951, Note_on_c, 0, 66, 91
1, 421019, Control_c, 0, 64, 96
1, 421034, Control_c, 0, 64, 78
1, 421048, Control_c, 0, 64, 65
1, 421063, Control_c, 0, 64, 50
1, 421078, Control_c, 0, 64, 32
1, 421093, Control_c, 0, 64, 32
1, 421108, Control_c, 0, 64, 37
1, 421129, Control_c, 0, 64, 42
1, 421144, Control_c, 0, 64, 45
1, 421159, Control_c, 0, 64, 46
1, 421204, Control_c, 0, 64, 47
1, 421219, Control_c, 0, 64, 48
1, 421234, Control_c, 0, 64, 51
1, 421248, Control_c, 0, 64, 56
1, 421263, Control_c, 0, 64, 60
1, 421278, Control_c, 0, 64, 63
1, 421293, Control_c, 0, 64, 66
1, 421308, Control_c, 0, 64, 69
1, 421323, Control_c, 0, 64, 74
1, 421338, Control_c, 0, 64, 81
1, 421353, Control_c, 0, 64, 87
1, 421368, Control_c, 0, 64, 94
1, 421383, Control_c, 0, 64, 99
1, 421398, Control_c, 0, 64, 102
1, 421412, Control_c, 0, 64, 105
1, 421427, Control_c, 0, 64, 107
1, 421442, Control_c, 0, 64, 110
1, 421457, Control_c, 0, 64, 115
1, 421472, Control_c, 0, 64, 121
1, 421487, Control_c, 0, 64, 127
1, 421549, Note_off_c, 0, 66, 59
1, 421554, Note_off_c, 0, 42, 58
1, 421585, Note_off_c, 0, 54, 58
1, 421588, Note_off_c, 0, 30, 49
1, 421817, Note_on_c, 0, 41, 69
1, 421819, Note_on_c, 0, 29, 71
1, 421823, Note_on_c, 0, 65, 81
1, 421824, Note_on_c, 0, 53, 80
1, 421846, Note_off_c, 0, 41, 64
1, 421850, Note_off_c, 0, 53, 69
1, 421851, Note_off_c, 0, 65, 62
1, 421854, Note_off_c, 0, 29, 62
1, 421894, Control_c, 0, 64, 107
1, 421909, Control_c, 0, 64, 83
1, 421913, Note_on_c, 0, 53, 81
1, 421913, Note_on_c, 0, 65, 81
1, 421914, Note_on_c, 0, 41, 72
1, 421924, Control_c, 0, 64, 59
1, 421939, Control_c, 0, 64, 0
1, 421941, Note_on_c, 0, 29, 56
1, 422071, Control_c, 0, 64, 37
1, 422086, Control_c, 0, 64, 56
1, 422102, Control_c, 0, 64, 64
1, 422104, Note_off_c, 0, 53, 61
1, 422105, Note_off_c, 0, 65, 61
1, 422117, Control_c, 0, 64, 72
1, 422132, Control_c, 0, 64, 86
1, 422147, Control_c, 0, 64, 110
1, 422162, Control_c, 0, 64, 127
1, 422414, Note_on_c, 0, 53, 88
1, 422414, Note_on_c, 0, 65, 90
1, 422424, Note_off_c, 0, 29, 60
1, 422426, Note_off_c, 0, 41, 61
1, 422457, Control_c, 0, 64, 94
1, 422472, Control_c, 0, 64, 67
1, 422486, Control_c, 0, 64, 0
1, 422772, Note_on_c, 0, 33, 67
1, 422805, Control_c, 0, 64, 48
1, 422820, Control_c, 0, 64, 58
1, 422834, Control_c, 0, 64, 64
1, 422848, Note_off_c, 0, 65, 61
1, 422849, Control_c, 0, 64, 71
1, 422864, Control_c, 0, 64, 80
1, 422879, Control_c, 0, 64, 89
1, 422895, Control_c, 0, 64, 97
1, 422904, Note_off_c, 0, 53, 65
1, 422905, Note_on_c, 0, 41, 53
1, 422910, Control_c, 0, 64, 104
1, 422924, Control_c, 0, 64, 109
1, 422939, Control_c, 0, 64, 111
1, 422954, Control_c, 0, 64, 112
1, 423031, Note_on_c, 0, 42, 48
1, 423049, Note_off_c, 0, 41, 32
1, 423172, Note_on_c, 0, 41, 52
1, 423175, Note_off_c, 0, 42, 52
1, 423186, Note_on_c, 0, 60, 83
1, 423197, Note_on_c, 0, 48, 68
1, 423230, Note_off_c, 0, 48, 58
1, 423313, Note_on_c, 0, 42, 57
1, 423313, Note_off_c, 0, 41, 36
1, 423317, Note_off_c, 0, 33, 59
1, 423391, Note_off_c, 0, 42, 61
1, 423421, Control_c, 0, 64, 113
1, 423424, Note_on_c, 0, 41, 51
1, 423436, Control_c, 0, 64, 116
1, 423450, Control_c, 0, 64, 127
1, 423475, Note_off_c, 0, 41, 55
1, 423486, Note_on_c, 0, 34, 63
1, 423569, Note_on_c, 0, 41, 52
1, 423569, Control_c, 0, 64, 113
1, 423584, Control_c, 0, 64, 95
1, 423598, Control_c, 0, 64, 84
1, 423613, Control_c, 0, 64, 78
1, 423628, Control_c, 0, 64, 79
1, 423638, Note_off_c, 0, 41, 61
1, 423642, Note_on_c, 0, 61, 86
1, 423642, Control_c, 0, 64, 84
1, 423648, Note_on_c, 0, 49, 70
1, 423651, Note_on_c, 0, 42, 60
1, 423657, Control_c, 0, 64, 94
1, 423662, Note_off_c, 0, 60, 65
1, 423672, Control_c, 0, 64, 109
1, 423680, Note_off_c, 0, 49, 64
1, 423688, Control_c, 0, 64, 127
1, 423694, Note_off_c, 0, 61, 66
1, 423724, Note_off_c, 0, 42, 60
1, 423753, Note_on_c, 0, 41, 47
1, 423809, Note_off_c, 0, 41, 59
1, 423851, Note_on_c, 0, 42, 51
1, 423986, Note_off_c, 0, 34, 37
1, 424033, Note_off_c, 0, 42, 48
1, 424034, Note_on_c, 0, 41, 45
1, 424039, Note_on_c, 0, 73, 83
1, 424047, Note_on_c, 0, 61, 71
1, 424088, Control_c, 0, 64, 96
1, 424103, Control_c, 0, 64, 79
1, 424125, Control_c, 0, 64, 65
1, 424140, Control_c, 0, 64, 51
1, 424155, Control_c, 0, 64, 55
1, 424170, Control_c, 0, 64, 64
1, 424173, Note_off_c, 0, 41, 59
1, 424185, Control_c, 0, 64, 75
1, 424188, Note_on_c, 0, 34, 44
1, 424200, Control_c, 0, 64, 89
1, 424214, Control_c, 0, 64, 110
1, 424229, Control_c, 0, 64, 127
1, 424251, Note_off_c, 0, 34, 57
1, 424265, Note_on_c, 0, 42, 52
1, 424272, Note_off_c, 0, 61, 63
1, 424292, Note_off_c, 0, 73, 61
1, 424311, Note_off_c, 0, 42, 58
1, 424345, Note_on_c, 0, 72, 85
1, 424352, Note_on_c, 0, 49, 58
1, 424355, Note_on_c, 0, 60, 68
1, 424374, Note_off_c, 0, 60, 65
1, 424379, Note_off_c, 0, 72, 60
1, 424402, Note_off_c, 0, 49, 61
1, 424432, Note_on_c, 0, 43, 57
1, 424486, Note_off_c, 0, 43, 58
1, 424511, Note_on_c, 0, 49, 57
1, 424593, Note_off_c, 0, 49, 61
1, 424608, Note_on_c, 0, 43, 53
1, 424611, Note_on_c, 0, 70, 94
1, 424614, Note_on_c, 0, 58, 84
1, 424689, Control_c, 0, 64, 100
1, 424700, Note_off_c, 0, 43, 61
1, 424704, Control_c, 0, 64, 80
1, 424716, Note_on_c, 0, 36, 57
1, 424719, Control_c, 0, 64, 64
1, 424734, Control_c, 0, 64, 49
1, 424749, Control_c, 0, 64, 57
1, 424763, Note_off_c, 0, 36, 61
1, 424763, Control_c, 0, 64, 65
1, 424778, Control_c, 0, 64, 76
1, 424789, Note_on_c, 0, 44, 63
1, 424789, Note_off_c, 0, 70, 63
1, 424793, Note_off_c, 0, 58, 64
1, 424793, Control_c, 0, 64, 94
1, 424808, Control_c, 0, 64, 127
1, 424851, Note_on_c, 0, 68, 93
1, 424855, Note_on_c, 0, 56, 82
1, 424879, Note_on_c, 0, 51, 65
1, 424882, Note_off_c, 0, 44, 56
1, 424885, Note_off_c, 0, 56, 68
1, 424897, Note_off_c, 0, 68, 67
1, 424917, Note_off_c, 0, 51, 59
1, 424948, Note_on_c, 0, 44, 50
1, 424999, Note_off_c, 0, 44, 51
1, 425013, Note_on_c, 0, 51, 60
1, 425043, Note_off_c, 0, 51, 65
1, 425065, Note_on_c, 0, 60, 76
1, 425065, Note_on_c, 0, 72, 77
1, 425083, Note_off_c, 0, 60, 68
1, 425088, Note_off_c, 0, 72, 69
1, 425106, Note_on_c, 0, 44, 40
1, 425142, Control_c, 0, 64, 102
1, 425143, Note_on_c, 0, 58, 90
1, 425143, Note_on_c, 0, 70, 90
1, 425156, Control_c, 0, 64, 80
1, 425171, Control_c, 0, 64, 63
1, 425186, Control_c, 0, 64, 33
1, 425201, Control_c, 0, 64, 44
1, 425215, Control_c, 0, 64, 62
1, 425222, Note_off_c, 0, 44, 53
1, 425230, Control_c, 0, 64, 74
1, 425240, Note_on_c, 0, 36, 51
1, 425245, Control_c, 0, 64, 91
1, 425260, Control_c, 0, 64, 127
1, 425264, Note_off_c, 0, 70, 67
1, 425273, Note_off_c, 0, 58, 62
1, 425296, Note_off_c, 0, 36, 60
1, 425321, Note_on_c, 0, 44, 60
1, 425355, Note_off_c, 0, 44, 64
1, 425398, Note_on_c, 0, 52, 56
1, 425416, Note_on_c, 0, 56, 87
1, 425416, Note_on_c, 0, 68, 90
1, 425434, Note_off_c, 0, 68, 73
1, 425437, Note_off_c, 0, 56, 70
1, 425446, Note_off_c, 0, 52, 56
1, 425467, Note_on_c, 0, 44, 57
1, 425516, Note_off_c, 0, 44, 50
1, 425548, Note_on_c, 0, 52, 49
1, 425598, Note_off_c, 0, 52, 61
1, 425666, Note_on_c, 0, 44, 48
1, 425774, Note_on_c, 0, 64, 84
1, 425777, Note_on_c, 0, 52, 84
1, 425875, Control_c, 0, 64, 115
1, 425890, Control_c, 0, 64, 84
1, 425905, Note_on_c, 0, 37, 64
1, 425905, Control_c, 0, 64, 66
1, 425912, Note_off_c, 0, 44, 59
1, 425920, Control_c, 0, 64, 49
1, 425934, Control_c, 0, 64, 54
1, 425949, Control_c, 0, 64, 65
1, 425955, Note_off_c, 0, 52, 59
1, 425964, Control_c, 0, 64, 74
1, 425979, Control_c, 0, 64, 90
1, 425993, Control_c, 0, 64, 127
1, 426003, Note_off_c, 0, 37, 62
1, 426008, Note_on_c, 0, 44, 71
1, 426115, Note_on_c, 0, 65, 94
1, 426116, Note_on_c, 0, 53, 74
1, 426132, Note_off_c, 0, 44, 58
1, 426155, Note_off_c, 0, 64, 36
1, 426171, Note_off_c, 0, 65, 66
1, 426227, Note_on_c, 0, 44, 69
1, 426231, Note_off_c, 0, 53, 64
1, 426313, Note_off_c, 0, 44, 54
1, 426323, Note_on_c, 0, 53, 67
1, 426432, Note_off_c, 0, 53, 48
1, 426468, Note_on_c, 0, 44, 57
1, 426501, Note_on_c, 0, 77, 90
1, 426502, Note_on_c, 0, 65, 93
1, 426594, Control_c, 0, 64, 111
1, 426608, Control_c, 0, 64, 84
1, 426623, Control_c, 0, 64, 64
1, 426638, Control_c, 0, 64, 0
1, 426660, Note_on_c, 0, 37, 72
1, 426668, Control_c, 0, 64, 30
1, 426683, Control_c, 0, 64, 58
1, 426698, Control_c, 0, 64, 68
1, 426713, Control_c, 0, 64, 81
1, 426728, Control_c, 0, 64, 103
1, 426742, Control_c, 0, 64, 127
1, 426751, Note_off_c, 0, 77, 57
1, 426755, Note_off_c, 0, 44, 29
1, 426758, Note_off_c, 0, 37, 62
1, 426759, Note_on_c, 0, 45, 69
1, 426765, Note_off_c, 0, 65, 60
1, 426811, Note_off_c, 0, 45, 61
1, 426860, Note_on_c, 0, 53, 64
1, 426860, Note_on_c, 0, 63, 89
1, 426862, Note_on_c, 0, 75, 87
1, 426880, Note_off_c, 0, 75, 72
1, 426882, Note_off_c, 0, 63, 71
1, 426947, Note_on_c, 0, 45, 68
1, 426951, Note_off_c, 0, 53, 60
1, 427018, Note_off_c, 0, 45, 62
1, 427046, Note_on_c, 0, 53, 68
1, 427147, Note_on_c, 0, 73, 95
1, 427149, Note_on_c, 0, 61, 91
1, 427158, Note_off_c, 0, 53, 63
1, 427160, Note_on_c, 0, 46, 62
1, 427195, Control_c, 0, 64, 93
1, 427209, Control_c, 0, 64, 73
1, 427224, Control_c, 0, 64, 42
1, 427239, Control_c, 0, 64, 0
1, 427254, Control_c, 0, 64, 37
1, 427265, Note_off_c, 0, 46, 63
1, 427268, Note_on_c, 0, 40, 74
1, 427269, Control_c, 0, 64, 60
1, 427283, Control_c, 0, 64, 69
1, 427298, Control_c, 0, 64, 82
1, 427313, Control_c, 0, 64, 101
1, 427328, Control_c, 0, 64, 127
1, 427330, Note_off_c, 0, 40, 60
1, 427334, Note_off_c, 0, 61, 62
1, 427336, Note_off_c, 0, 73, 60
1, 427346, Note_on_c, 0, 46, 70
1, 427425, Note_off_c, 0, 46, 59
1, 427425, Note_on_c, 0, 60, 83
1, 427425, Note_on_c, 0, 72, 85
1, 427427, Note_on_c, 0, 55, 72
1, 427447, Note_off_c, 0, 60, 71
1, 427455, Note_off_c, 0, 72, 64
1, 427511, Note_off_c, 0, 55, 59
1, 427514, Note_on_c, 0, 46, 69
1, 427530, Poly_aftertouch_c, 0, 70, 0
1, 427571, Note_off_c, 0, 46, 57
1, 427592, Note_on_c, 0, 55, 61
1, 427626, Note_on_c, 0, 75, 74
1, 427632, Note_on_c, 0, 63, 67
1, 427641, Note_off_c, 0, 75, 69
1, 427646, Note_off_c, 0, 55, 44
1, 427651, Note_off_c, 0, 63, 66
1, 427682, Note_on_c, 0, 46, 64
1, 427697, Note_on_c, 0, 73, 89
1, 427699, Note_on_c, 0, 61, 85
1, 427714, Control_c, 0, 64, 94
1, 427729, Control_c, 0, 64, 75
1, 427744, Control_c, 0, 64, 61
1, 427759, Control_c, 0, 64, 49
1, 427774, Control_c, 0, 64, 60
1, 427788, Control_c, 0, 64, 70
1, 427789, Note_off_c, 0, 46, 61
1, 427802, Note_on_c, 0, 40, 58
1, 427803, Control_c, 0, 64, 82
1, 427818, Control_c, 0, 64, 99
1, 427832, Control_c, 0, 64, 125
1, 427854, Control_c, 0, 64, 127
1, 427869, Note_off_c, 0, 40, 59
1, 427887, Note_on_c, 0, 48, 66
1, 427914, Note_off_c, 0, 61, 62
1, 427935, Note_off_c, 0, 73, 58
1, 427975, Note_off_c, 0, 48, 55
1, 427980, Note_on_c, 0, 55, 59
1, 427989, Note_on_c, 0, 72, 81
1, 427994, Note_on_c, 0, 60, 73
1, 428011, Note_off_c, 0, 72, 70
1, 428022, Note_off_c, 0, 60, 65
1, 428053, Note_off_c, 0, 55, 60
1, 428085, Note_on_c, 0, 48, 53
1, 428120, Note_off_c, 0, 48, 54
1, 428157, Note_on_c, 0, 55, 51
1, 428245, Note_off_c, 0, 55, 53
1, 428295, Note_on_c, 0, 49, 50
1, 428322, Note_on_c, 0, 70, 81
1, 428325, Note_on_c, 0, 58, 74
1, 428343, Note_off_c, 0, 58, 67
1, 428360, Note_off_c, 0, 70, 59
1, 428523, Control_c, 0, 64, 118
1, 428528, Note_on_c, 0, 41, 39
1, 428537, Control_c, 0, 64, 93
1, 428546, Note_on_c, 0, 70, 71
1, 428552, Control_c, 0, 64, 72
1, 428556, Note_on_c, 0, 58, 61
1, 428560, Note_off_c, 0, 49, 36
1, 428567, Control_c, 0, 64, 55
1, 428582, Control_c, 0, 64, 43
1, 428597, Control_c, 0, 64, 55
1, 428619, Control_c, 0, 64, 63
1, 428634, Control_c, 0, 64, 70
1, 428647, Note_off_c, 0, 41, 56
1, 428649, Control_c, 0, 64, 81
1, 428663, Control_c, 0, 64, 92
1, 428668, Note_off_c, 0, 58, 64
1, 428677, Note_off_c, 0, 70, 62
1, 428678, Control_c, 0, 64, 98
1, 428681, Note_on_c, 0, 48, 46
1, 428693, Control_c, 0, 64, 99
1, 428708, Control_c, 0, 64, 100
1, 428723, Control_c, 0, 64, 101
1, 428737, Note_on_c, 0, 69, 75
1, 428737, Control_c, 0, 64, 103
1, 428743, Note_off_c, 0, 48, 55
1, 428747, Note_on_c, 0, 57, 51
1, 428752, Control_c, 0, 64, 104
1, 428754, Note_on_c, 0, 51, 51
1, 428760, Note_off_c, 0, 69, 72
1, 428767, Control_c, 0, 64, 106
1, 428773, Note_off_c, 0, 57, 58
1, 428782, Control_c, 0, 64, 107
1, 428787, Note_off_c, 0, 51, 61
1, 428797, Control_c, 0, 64, 108
1, 428811, Control_c, 0, 64, 112
1, 428826, Control_c, 0, 64, 116
1, 428829, Note_on_c, 0, 57, 45
1, 428841, Control_c, 0, 64, 125
1, 428856, Control_c, 0, 64, 127
1, 428876, Note_off_c, 0, 57, 46
1, 428948, Note_on_c, 0, 48, 49
1, 429048, Note_on_c, 0, 75, 53
1, 429050, Note_on_c, 0, 78, 63
1, 429053, Note_on_c, 0, 66, 50
1, 429069, Note_off_c, 0, 75, 62
1, 429084, Note_off_c, 0, 66, 56
1, 429112, Note_off_c, 0, 78, 62
1, 429223, Note_off_c, 0, 48, 41
1, 429223, Note_on_c, 0, 41, 46
1, 429241, Control_c, 0, 64, 102
1, 429247, Note_on_c, 0, 77, 65
1, 429248, Note_on_c, 0, 73, 59
1, 429255, Control_c, 0, 64, 86
1, 429257, Note_on_c, 0, 65, 48
1, 429270, Control_c, 0, 64, 74
1, 429286, Control_c, 0, 64, 67
1, 429299, Note_off_c, 0, 41, 56
1, 429301, Control_c, 0, 64, 66
1, 429316, Control_c, 0, 64, 69
1, 429331, Control_c, 0, 64, 75
1, 429346, Control_c, 0, 64, 85
1, 429368, Control_c, 0, 64, 96
1, 429372, Note_on_c, 0, 49, 57
1, 429383, Control_c, 0, 64, 105
1, 429398, Control_c, 0, 64, 111
1, 429403, Note_on_c, 0, 75, 72
1, 429404, Note_on_c, 0, 72, 60
1, 429412, Control_c, 0, 64, 115
1, 429414, Note_off_c, 0, 65, 30
1, 429427, Control_c, 0, 64, 117
1, 429431, Note_off_c, 0, 77, 58
1, 429436, Note_off_c, 0, 72, 66
1, 429436, Note_off_c, 0, 73, 63
1, 429440, Note_off_c, 0, 49, 60
1, 429440, Note_on_c, 0, 52, 58
1, 429442, Control_c, 0, 64, 118
1, 429457, Control_c, 0, 64, 120
1, 429472, Control_c, 0, 64, 123
1, 429477, Note_off_c, 0, 75, 61
1, 429480, Note_off_c, 0, 52, 64
1, 429486, Control_c, 0, 64, 127
1, 429499, Note_on_c, 0, 58, 66
1, 429515, Note_on_c, 0, 73, 81
1, 429519, Note_on_c, 0, 70, 73
1, 429576, Note_off_c, 0, 58, 61
1, 429579, Note_off_c, 0, 70, 61
1, 429605, Note_on_c, 0, 49, 66
1, 429631, Note_on_c, 0, 79, 74
1, 429639, Note_off_c, 0, 49, 60
1, 429641, Note_on_c, 0, 82, 78
1, 429650, Note_off_c, 0, 73, 63
1, 429684, Note_off_c, 0, 79, 53
1, 429696, Note_off_c, 0, 82, 63
1, 429766, Note_on_c, 0, 41, 51
1, 429768, Control_c, 0, 64, 100
1, 429772, Note_on_c, 0, 81, 81
1, 429780, Note_on_c, 0, 77, 77
1, 429783, Control_c, 0, 64, 74
1, 429797, Control_c, 0, 64, 55
1, 429812, Control_c, 0, 64, 34
1, 429827, Control_c, 0, 64, 53
1, 429842, Control_c, 0, 64, 64
1, 429857, Note_off_c, 0, 41, 56
1, 429857, Control_c, 0, 64, 73
1, 429872, Control_c, 0, 64, 87
1, 429874, Note_on_c, 0, 48, 53
1, 429881, Note_off_c, 0, 81, 64
1, 429886, Control_c, 0, 64, 117
1, 429901, Note_on_c, 0, 69, 64
1, 429901, Control_c, 0, 64, 127
1, 429907, Note_on_c, 0, 72, 64
1, 429916, Note_off_c, 0, 77, 63
1, 429927, Note_off_c, 0, 69, 66
1, 429934, Note_off_c, 0, 72, 66
1, 429938, Note_on_c, 0, 51, 64
1, 429943, Note_off_c, 0, 48, 53
1, 430008, Note_on_c, 0, 57, 63
1, 430009, Note_off_c, 0, 51, 58
1, 430074, Note_off_c, 0, 57, 54
1, 430117, Note_on_c, 0, 48, 47
1, 430162, Note_on_c, 0, 78, 75
1, 430165, Note_on_c, 0, 75, 61
1, 430168, Note_on_c, 0, 66, 62
1, 430186, Note_off_c, 0, 66, 65
1, 430192, Note_off_c, 0, 75, 66
1, 430207, Note_off_c, 0, 78, 64
1, 430257, Note_off_c, 0, 48, 55
1, 430290, Note_on_c, 0, 41, 50
1, 430295, Control_c, 0, 64, 94
1, 430308, Note_on_c, 0, 73, 73
1, 430309, Control_c, 0, 64, 77
1, 430311, Note_on_c, 0, 77, 69
1, 430317, Note_on_c, 0, 65, 59
1, 430324, Control_c, 0, 64, 63
1, 430339, Control_c, 0, 64, 40
1, 430349, Note_off_c, 0, 41, 56
1, 430354, Control_c, 0, 64, 47
1, 430368, Note_off_c, 0, 65, 49
1, 430369, Control_c, 0, 64, 60
1, 430383, Control_c, 0, 64, 68
1, 430398, Control_c, 0, 64, 78
1, 430403, Note_on_c, 0, 49, 57
1, 430413, Control_c, 0, 64, 92
1, 430427, Control_c, 0, 64, 108
1, 430429, Note_on_c, 0, 75, 75
1, 430440, Note_on_c, 0, 72, 59
1, 430442, Control_c, 0, 64, 127
1, 430447, Note_off_c, 0, 77, 51
1, 430465, Note_on_c, 0, 52, 69
1, 430465, Note_off_c, 0, 49, 62
1, 430472, Note_off_c, 0, 72, 67
1, 430479, Note_off_c, 0, 73, 64
1, 430507, Note_off_c, 0, 75, 63
1, 430538, Note_off_c, 0, 52, 63
1, 430540, Note_on_c, 0, 61, 67
1, 430549, Note_on_c, 0, 70, 81
1, 430552, Note_on_c, 0, 73, 86
1, 430589, Note_off_c, 0, 61, 60
1, 430613, Note_off_c, 0, 70, 61
1, 430630, Note_on_c, 0, 52, 49
1, 430663, Note_on_c, 0, 79, 81
1, 430665, Note_off_c, 0, 52, 65
1, 430671, Note_on_c, 0, 82, 87
1, 430678, Note_off_c, 0, 73, 64
1, 430679, Note_on_c, 0, 49, 71
1, 430722, Note_off_c, 0, 79, 56
1, 430738, Note_off_c, 0, 49, 55
1, 430746, Note_off_c, 0, 82, 63
1, 430823, Note_on_c, 0, 41, 61
1, 430831, Note_on_c, 0, 81, 83
1, 430836, Note_on_c, 0, 77, 83
1, 430864, Control_c, 0, 64, 94
1, 430880, Control_c, 0, 64, 73
1, 430894, Note_on_c, 0, 73, 31
1, 430895, Control_c, 0, 64, 55
1, 430910, Control_c, 0, 64, 49
1, 430925, Control_c, 0, 64, 60
1, 430925, Note_off_c, 0, 73, 32
1, 430937, Note_off_c, 0, 41, 59
1, 430939, Control_c, 0, 64, 68
1, 430954, Control_c, 0, 64, 76
1, 430960, Note_off_c, 0, 81, 60
1, 430962, Note_on_c, 0, 48, 56
1, 430969, Control_c, 0, 64, 88
1, 430984, Control_c, 0, 64, 101
1, 430995, Note_on_c, 0, 72, 71
1, 430999, Control_c, 0, 64, 113
1, 431003, Note_on_c, 0, 69, 66
1, 431013, Control_c, 0, 64, 122
1, 431016, Note_off_c, 0, 48, 60
1, 431020, Note_off_c, 0, 77, 60
1, 431022, Note_off_c, 0, 69, 66
1, 431023, Note_on_c, 0, 53, 72
1, 431023, Note_off_c, 0, 72, 66
1, 431028, Control_c, 0, 64, 127
1, 431083, Note_off_c, 0, 53, 65
1, 431092, Note_on_c, 0, 60, 67
1, 431140, Note_off_c, 0, 60, 53
1, 431192, Note_on_c, 0, 53, 68
1, 431235, Note_on_c, 0, 85, 86
1, 431236, Note_on_c, 0, 82, 79
1, 431255, Note_on_c, 0, 48, 75
1, 431255, Note_off_c, 0, 53, 63
1, 431287, Note_off_c, 0, 82, 64
1, 431301, Note_off_c, 0, 85, 64
1, 431384, Note_on_c, 0, 41, 81
1, 431394, Note_on_c, 0, 84, 83
1, 431395, Note_on_c, 0, 81, 87
1, 431399, Control_c, 0, 64, 94
1, 431399, Note_off_c, 0, 48, 63
1, 431413, Control_c, 0, 64, 73
1, 431428, Control_c, 0, 64, 53
1, 431443, Control_c, 0, 64, 32
1, 431458, Control_c, 0, 64, 50
1, 431473, Control_c, 0, 64, 63
1, 431486, Note_off_c, 0, 41, 58
1, 431488, Control_c, 0, 64, 70
1, 431503, Control_c, 0, 64, 86
1, 431506, Note_on_c, 0, 48, 64
1, 431518, Control_c, 0, 64, 106
1, 431527, Note_on_c, 0, 77, 82
1, 431528, Note_off_c, 0, 84, 58
1, 431530, Note_on_c, 0, 72, 80
1, 431532, Control_c, 0, 64, 127
1, 431551, Note_off_c, 0, 72, 71
1, 431568, Note_off_c, 0, 77, 65
1, 431570, Note_off_c, 0, 81, 63
1, 431574, Note_on_c, 0, 53, 66
1, 431590, Note_off_c, 0, 48, 62
1, 431684, Note_off_c, 0, 53, 65
1, 431688, Note_on_c, 0, 60, 73
1, 431773, Note_on_c, 0, 53, 72
1, 431781, Note_off_c, 0, 60, 64
1, 431861, Note_on_c, 0, 89, 91
1, 431862, Note_on_c, 0, 85, 91
1, 431874, Note_off_c, 0, 53, 64
1, 431876, Note_on_c, 0, 48, 73
1, 432033, Note_off_c, 0, 89, 56
1, 432059, Note_off_c, 0, 85, 62
1, 432090, Note_on_c, 0, 41, 73
1, 432105, Note_off_c, 0, 48, 62
1, 432105, Note_on_c, 0, 84, 94
1, 432107, Note_on_c, 0, 89, 91
1, 432132, Control_c, 0, 64, 98
1, 432147, Control_c, 0, 64, 77
1, 432162, Control_c, 0, 64, 54
1, 432177, Control_c, 0, 64, 24
1, 432191, Control_c, 0, 64, 46
1, 432206, Control_c, 0, 64, 61
1, 432221, Control_c, 0, 64, 70
1, 432236, Control_c, 0, 64, 85
1, 432251, Control_c, 0, 64, 120
1, 432266, Control_c, 0, 64, 127
1, 432316, Note_off_c, 0, 89, 60
1, 432317, Note_on_c, 0, 48, 65
1, 432325, Note_off_c, 0, 41, 58
1, 432391, Note_on_c, 0, 77, 88
1, 432392, Note_on_c, 0, 89, 87
1, 432451, Note_on_c, 0, 53, 66
1, 432472, Note_off_c, 0, 48, 54
1, 432524, Note_off_c, 0, 53, 65
1, 432534, Note_on_c, 0, 57, 77
1, 432585, Note_off_c, 0, 57, 65
1, 432621, Note_off_c, 0, 89, 61
1, 432627, Note_on_c, 0, 60, 80
1, 432629, Note_off_c, 0, 77, 54
1, 432686, Note_off_c, 0, 84, 59
1, 432713, Note_on_c, 0, 65, 81
1, 432719, Note_on_c, 0, 77, 90
1, 432719, Note_on_c, 0, 89, 91
1, 432756, Note_off_c, 0, 60, 60
1, 432827, Note_on_c, 0, 69, 86
1, 432843, Note_off_c, 0, 65, 60
1, 432938, Note_on_c, 0, 65, 91
1, 432955, Note_off_c, 0, 69, 64
1, 432966, Note_off_c, 0, 89, 53
1, 432971, Note_off_c, 0, 77, 53
1, 433056, Note_on_c, 0, 60, 70
1, 433076, Note_on_c, 0, 89, 91
1, 433077, Note_on_c, 0, 77, 91
1, 433081, Note_off_c, 0, 65, 59
1, 433181, Note_off_c, 0, 60, 63
1, 433223, Note_on_c, 0, 57, 85
1, 433352, Note_on_c, 0, 53, 84
1, 433361, Note_off_c, 0, 57, 61
1, 433391, Note_off_c, 0, 77, 53
1, 433407, Note_off_c, 0, 89, 39
1, 433518, Note_on_c, 0, 48, 77
1, 433527, Note_on_c, 0, 89, 92
1, 433530, Note_on_c, 0, 77, 90
1, 433536, Note_off_c, 0, 53, 66
1, 433552, Note_off_c, 0, 48, 64
1, 433556, Note_off_c, 0, 77, 62
1, 433583, Note_off_c, 0, 89, 62
1, 433837, Note_on_c, 0, 37, 83
1, 433837, Control_c, 0, 64, 90
1, 433858, Control_c, 0, 64, 66
1, 433861, Note_on_c, 0, 89, 90
1, 433863, Note_on_c, 0, 85, 86
1, 433873, Control_c, 0, 64, 0
1, 433901, Note_off_c, 0, 37, 64
1, 433903, Control_c, 0, 64, 41
1, 433918, Control_c, 0, 64, 65
1, 433932, Control_c, 0, 64, 81
1, 433947, Control_c, 0, 64, 127
1, 434183, Note_on_c, 0, 65, 76
1, 434243, Note_off_c, 0, 89, 61
1, 434262, Note_off_c, 0, 85, 63
1, 434284, Note_on_c, 0, 90, 95
1, 434293, Note_on_c, 0, 80, 79
1, 434365, Note_off_c, 0, 65, 55
1, 434369, Note_on_c, 0, 61, 58
1, 434410, Note_off_c, 0, 80, 59
1, 434452, Note_off_c, 0, 90, 63
1, 434478, Note_on_c, 0, 56, 59
1, 434493, Note_on_c, 0, 91, 91
1, 434494, Note_off_c, 0, 61, 37
1, 434502, Note_on_c, 0, 85, 75
1, 434524, Note_off_c, 0, 85, 70
1, 434537, Note_off_c, 0, 56, 54
1, 434583, Note_on_c, 0, 65, 56
1, 434651, Note_on_c, 0, 92, 92
1, 434663, Note_on_c, 0, 80, 74
1, 434669, Note_off_c, 0, 65, 61
1, 434673, Note_off_c, 0, 91, 64
1, 434686, Note_off_c, 0, 80, 67
1, 434691, Note_on_c, 0, 61, 60
1, 434723, Note_off_c, 0, 61, 65
1, 434742, Control_c, 0, 64, 115
1, 434756, Control_c, 0, 64, 81
1, 434771, Control_c, 0, 64, 58
1, 434786, Control_c, 0, 64, 32
1, 434788, Note_off_c, 0, 92, 63
1, 434791, Note_on_c, 0, 51, 67
1, 434800, Control_c, 0, 64, 56
1, 434803, Note_on_c, 0, 94, 89
1, 434809, Note_on_c, 0, 84, 79
1, 434815, Note_off_c, 0, 51, 65
1, 434815, Control_c, 0, 64, 67
1, 434830, Control_c, 0, 64, 81
1, 434845, Control_c, 0, 64, 104
1, 434860, Control_c, 0, 64, 127
1, 434901, Note_on_c, 0, 68, 72
1, 434955, Note_off_c, 0, 84, 59
1, 434973, Note_on_c, 0, 90, 78
1, 434977, Note_on_c, 0, 92, 83
1, 434994, Note_off_c, 0, 68, 62
1, 434995, Note_off_c, 0, 90, 70
1, 434995, Note_off_c, 0, 94, 66
1, 435008, Note_on_c, 0, 60, 64
1, 435017, Note_off_c, 0, 92, 64
1, 435061, Note_on_c, 0, 90, 93
1, 435223, Note_on_c, 0, 56, 60
1, 435244, Note_off_c, 0, 60, 59
1, 435261, Note_on_c, 0, 101, 92
1, 435339, Note_off_c, 0, 90, 48
1, 435406, Note_on_c, 0, 68, 71
1, 435503, Note_off_c, 0, 68, 65
1, 435509, Note_on_c, 0, 60, 77
1, 435514, Note_off_c, 0, 56, 63
1, 435542, Note_off_c, 0, 101, 64
1, 435552, Note_off_c, 0, 60, 64
1, 435556, Note_on_c, 0, 99, 90
1, 435566, Note_on_c, 0, 92, 68
1, 435593, Note_off_c, 0, 92, 67
1, 435599, Note_off_c, 0, 99, 61
1, 435637, Note_on_c, 0, 53, 74
1, 435638, Control_c, 0, 64, 89
1, 435643, Note_on_c, 0, 89, 86
1, 435649, Note_on_c, 0, 99, 83
1, 435653, Control_c, 0, 64, 69
1, 435669, Control_c, 0, 64, 55
1, 435684, Control_c, 0, 64, 61
1, 435699, Control_c, 0, 64, 68
1, 435714, Control_c, 0, 64, 76
1, 435716, Note_off_c, 0, 53, 64
1, 435728, Control_c, 0, 64, 86
1, 435743, Control_c, 0, 64, 100
1, 435758, Control_c, 0, 64, 127
1, 435840, Note_on_c, 0, 68, 73
1, 435851, Note_off_c, 0, 99, 62
1, 435903, Note_off_c, 0, 89, 50
1, 435912, Note_on_c, 0, 97, 90
1, 435915, Note_off_c, 0, 68, 64
1, 435918, Note_on_c, 0, 92, 77
1, 435969, Note_on_c, 0, 61, 60
1, 436054, Control_c, 0, 64, 106
1, 436069, Control_c, 0, 64, 86
1, 436072, Note_on_c, 0, 53, 58
1, 436073, Note_off_c, 0, 97, 59
1, 436076, Note_off_c, 0, 92, 60
1, 436091, Control_c, 0, 64, 74
1, 436105, Note_on_c, 0, 96, 85
1, 436106, Control_c, 0, 64, 70
1, 436112, Note_on_c, 0, 87, 77
1, 436112, Note_off_c, 0, 53, 67
1, 436120, Control_c, 0, 64, 73
1, 436125, Note_off_c, 0, 61, 60
1, 436135, Control_c, 0, 64, 80
1, 436137, Note_off_c, 0, 87, 66
1, 436150, Control_c, 0, 64, 91
1, 436165, Control_c, 0, 64, 104
1, 436180, Note_off_c, 0, 96, 54
1, 436180, Control_c, 0, 64, 114
1, 436195, Control_c, 0, 64, 119
1, 436210, Control_c, 0, 64, 125
1, 436212, Note_on_c, 0, 68, 69
1, 436225, Control_c, 0, 64, 127
1, 436227, Note_on_c, 0, 85, 81
1, 436228, Note_on_c, 0, 94, 85
1, 436248, Note_off_c, 0, 85, 69
1, 436284, Note_off_c, 0, 68, 53
1, 436311, Note_on_c, 0, 63, 63
1, 436318, Note_on_c, 0, 93, 82
1, 436328, Note_on_c, 0, 84, 63
1, 436335, Note_off_c, 0, 94, 54
1, 436341, Note_off_c, 0, 63, 67
1, 436346, Note_off_c, 0, 84, 66
1, 436358, Control_c, 0, 64, 99
1, 436372, Control_c, 0, 64, 76
1, 436381, Note_off_c, 0, 93, 65
1, 436387, Control_c, 0, 64, 53
1, 436402, Control_c, 0, 64, 0
1, 436412, Note_on_c, 0, 58, 68
1, 436414, Note_on_c, 0, 96, 86
1, 436416, Note_on_c, 0, 87, 86
1, 436416, Control_c, 0, 64, 38
1, 436431, Control_c, 0, 64, 62
1, 436445, Control_c, 0, 64, 73
1, 436452, Note_off_c, 0, 58, 64
1, 436454, Note_off_c, 0, 96, 67
1, 436457, Note_off_c, 0, 87, 64
1, 436460, Control_c, 0, 64, 89
1, 436476, Control_c, 0, 64, 127
1, 436514, Note_on_c, 0, 73, 70
1, 436576, Note_off_c, 0, 73, 62
1, 436597, Note_on_c, 0, 65, 74
1, 436621, Note_off_c, 0, 65, 66
1, 436654, Note_on_c, 0, 85, 77
1, 436654, Note_on_c, 0, 94, 79
1, 436675, Note_off_c, 0, 94, 70
1, 436676, Note_off_c, 0, 85, 70
1, 436684, Control_c, 0, 64, 109
1, 436699, Control_c, 0, 64, 83
1, 436714, Control_c, 0, 64, 64
1, 436715, Note_on_c, 0, 51, 74
1, 436726, Note_on_c, 0, 94, 84
1, 436728, Control_c, 0, 64, 34
1, 436729, Note_on_c, 0, 85, 88
1, 436737, Note_off_c, 0, 51, 67
1, 436743, Control_c, 0, 64, 48
1, 436758, Control_c, 0, 64, 64
1, 436773, Control_c, 0, 64, 73
1, 436787, Control_c, 0, 64, 85
1, 436802, Control_c, 0, 64, 99
1, 436817, Control_c, 0, 64, 115
1, 436832, Control_c, 0, 64, 127
1, 436867, Note_on_c, 0, 73, 61
1, 436881, Note_on_c, 0, 92, 82
1, 436920, Note_off_c, 0, 73, 61
1, 436943, Note_off_c, 0, 94, 59
1, 436968, Note_on_c, 0, 63, 59
1, 436987, Note_on_c, 0, 91, 82
1, 436987, Note_off_c, 0, 85, 64
1, 436988, Note_on_c, 0, 87, 72
1, 437054, Note_off_c, 0, 92, 54
1, 437097, Note_off_c, 0, 63, 55
1, 437106, Control_c, 0, 64, 104
1, 437108, Note_on_c, 0, 56, 66
1, 437121, Control_c, 0, 64, 84
1, 437128, Note_off_c, 0, 87, 62
1, 437136, Control_c, 0, 64, 69
1, 437149, Note_off_c, 0, 91, 63
1, 437150, Control_c, 0, 64, 58
1, 437163, Note_on_c, 0, 94, 81
1, 437164, Note_on_c, 0, 84, 70
1, 437166, Control_c, 0, 64, 59
1, 437181, Control_c, 0, 64, 67
1, 437186, Note_off_c, 0, 56, 63
1, 437195, Control_c, 0, 64, 75
1, 437210, Control_c, 0, 64, 89
1, 437225, Control_c, 0, 64, 102
1, 437240, Control_c, 0, 64, 118
1, 437255, Control_c, 0, 64, 127
1, 437277, Note_on_c, 0, 72, 63
1, 437356, Note_off_c, 0, 72, 59
1, 437360, Note_on_c, 0, 92, 85
1, 437384, Note_on_c, 0, 87, 71
1, 437387, Note_off_c, 0, 84, 57
1, 437392, Note_on_c, 0, 63, 56
1, 437463, Control_c, 0, 64, 97
1, 437477, Note_off_c, 0, 63, 59
1, 437478, Control_c, 0, 64, 79
1, 437483, Note_off_c, 0, 94, 60
1, 437492, Control_c, 0, 64, 67
1, 437495, Note_on_c, 0, 61, 62
1, 437502, Note_on_c, 0, 90, 71
1, 437507, Control_c, 0, 64, 65
1, 437513, Note_off_c, 0, 87, 63
1, 437518, Note_on_c, 0, 83, 62
1, 437519, Note_off_c, 0, 92, 61
1, 437522, Control_c, 0, 64, 68
1, 437537, Control_c, 0, 64, 75
1, 437552, Control_c, 0, 64, 87
1, 437566, Control_c, 0, 64, 103
1, 437581, Control_c, 0, 64, 127
1, 437606, Note_on_c, 0, 71, 52
1, 437649, Note_on_c, 0, 85, 76
1, 437651, Note_on_c, 0, 89, 76
1, 437653, Note_off_c, 0, 71, 60
1, 437661, Note_off_c, 0, 83, 49
1, 437679, Note_on_c, 0, 65, 66
1, 437691, Note_off_c, 0, 61, 62
1, 437697, Note_off_c, 0, 90, 64
1, 437709, Note_off_c, 0, 65, 64
1, 437751, Control_c, 0, 64, 102
1, 437766, Control_c, 0, 64, 77
1, 437781, Note_on_c, 0, 54, 65
1, 437781, Control_c, 0, 64, 60
1, 437782, Note_off_c, 0, 85, 65
1, 437796, Control_c, 0, 64, 44
1, 437802, Note_off_c, 0, 89, 61
1, 437809, Note_on_c, 0, 92, 87
1, 437811, Control_c, 0, 64, 58
1, 437812, Note_on_c, 0, 82, 81
1, 437813, Note_off_c, 0, 54, 67
1, 437825, Control_c, 0, 64, 68
1, 437840, Control_c, 0, 64, 78
1, 437855, Control_c, 0, 64, 95
1, 437870, Control_c, 0, 64, 127
1, 437892, Note_on_c, 0, 70, 66
1, 437957, Note_on_c, 0, 90, 83
1, 437963, Note_off_c, 0, 70, 61
1, 437965, Note_on_c, 0, 85, 79
1, 437978, Note_off_c, 0, 82, 60
1, 437980, Note_off_c, 0, 92, 65
1, 437988, Note_on_c, 0, 63, 55
1, 438072, Note_off_c, 0, 90, 62
1, 438094, Control_c, 0, 64, 110
1, 438097, Note_off_c, 0, 85, 63
1, 438108, Control_c, 0, 64, 87
1, 438113, Note_on_c, 0, 58, 46
1, 438116, Note_on_c, 0, 89, 83
1, 438123, Control_c, 0, 64, 70
1, 438129, Note_off_c, 0, 63, 35
1, 438135, Note_on_c, 0, 78, 74
1, 438138, Control_c, 0, 64, 60
1, 438153, Control_c, 0, 64, 61
1, 438167, Control_c, 0, 64, 67
1, 438182, Control_c, 0, 64, 74
1, 438193, Note_on_c, 0, 66, 54
1, 438197, Control_c, 0, 64, 84
1, 438212, Control_c, 0, 64, 96
1, 438227, Control_c, 0, 64, 109
1, 438241, Control_c, 0, 64, 127
1, 438271, Note_on_c, 0, 87, 87
1, 438275, Note_on_c, 0, 82, 82
1, 438277, Note_off_c, 0, 66, 63
1, 438296, Note_off_c, 0, 89, 59
1, 438302, Note_on_c, 0, 63, 62
1, 438302, Note_off_c, 0, 78, 54
1, 438323, Note_off_c, 0, 58, 62
1, 438327, Note_off_c, 0, 63, 64
1, 438340, Note_off_c, 0, 82, 63
1, 438365, Note_off_c, 0, 87, 64
1, 438468, Note_on_c, 0, 44, 68
1, 438486, Control_c, 0, 64, 97
1, 438501, Control_c, 0, 64, 76
1, 438515, Control_c, 0, 64, 60
1, 438520, Note_on_c, 0, 87, 89
1, 438527, Note_on_c, 0, 77, 68
1, 438530, Control_c, 0, 64, 51
1, 438545, Control_c, 0, 64, 62
1, 438549, Note_off_c, 0, 44, 61
1, 438560, Control_c, 0, 64, 70
1, 438574, Control_c, 0, 64, 81
1, 438589, Control_c, 0, 64, 99
1, 438604, Control_c, 0, 64, 127
1, 438673, Note_on_c, 0, 61, 63
1, 438691, Note_off_c, 0, 77, 62
1, 438697, Note_off_c, 0, 87, 59
1, 438732, Note_on_c, 0, 85, 84
1, 438748, Note_on_c, 0, 80, 64
1, 438756, Note_off_c, 0, 61, 61
1, 438785, Note_on_c, 0, 56, 49
1, 438833, Note_off_c, 0, 80, 65
1, 438837, Note_off_c, 0, 56, 57
1, 438856, Note_on_c, 0, 53, 58
1, 438859, Note_off_c, 0, 85, 63
1, 438871, Note_on_c, 0, 84, 83
1, 438888, Note_on_c, 0, 73, 70
1, 438892, Note_off_c, 0, 53, 64
1, 438955, Note_on_c, 0, 61, 51
1, 438962, Note_off_c, 0, 73, 58
1, 438991, Note_off_c, 0, 61, 63
1, 439006, Note_on_c, 0, 82, 80
1, 439014, Note_on_c, 0, 56, 62
1, 439029, Note_on_c, 0, 77, 64
1, 439033, Note_off_c, 0, 56, 65
1, 439063, Note_off_c, 0, 77, 62
1, 439103, Note_off_c, 0, 84, 34
1, 439164, Note_on_c, 0, 44, 57
1, 439176, Control_c, 0, 64, 108
1, 439190, Control_c, 0, 64, 85
1, 439191, Note_on_c, 0, 80, 84
1, 439197, Note_on_c, 0, 72, 65
1, 439205, Control_c, 0, 64, 68
1, 439207, Note_off_c, 0, 44, 62
1, 439220, Control_c, 0, 64, 62
1, 439235, Control_c, 0, 64, 66
1, 439246, Note_off_c, 0, 82, 60
1, 439250, Control_c, 0, 64, 72
1, 439264, Control_c, 0, 64, 85
1, 439279, Control_c, 0, 64, 106
1, 439294, Control_c, 0, 64, 127
1, 439314, Note_on_c, 0, 60, 54
1, 439379, Note_on_c, 0, 81, 78
1, 439390, Note_off_c, 0, 60, 59
1, 439398, Note_on_c, 0, 78, 57
1, 439407, Note_off_c, 0, 72, 36
1, 439422, Note_on_c, 0, 54, 46
1, 439498, Note_off_c, 0, 54, 46
1, 439554, Note_off_c, 0, 78, 37
1, 439554, Note_off_c, 0, 81, 60
1, 439563, Note_off_c, 0, 80, 60
1, 439564, Note_on_c, 0, 51, 53
1, 439614, Note_on_c, 0, 84, 79
1, 439621, Note_on_c, 0, 72, 71
1, 439647, Note_off_c, 0, 51, 58
1, 439762, Note_on_c, 0, 82, 81
1, 439768, Note_on_c, 0, 66, 52
1, 439823, Note_off_c, 0, 66, 57
1, 439905, Note_on_c, 0, 78, 74
1, 439906, Note_on_c, 0, 56, 55
1, 439912, Note_off_c, 0, 84, 63
1, 439921, Note_on_c, 0, 75, 63
1, 439939, Note_off_c, 0, 56, 65
1, 439942, Note_off_c, 0, 82, 63
1, 439949, Note_off_c, 0, 75, 63
1, 439986, Note_off_c, 0, 78, 63
1, 440124, Note_on_c, 0, 37, 66
1, 440132, Control_c, 0, 64, 94
1, 440136, Note_on_c, 0, 77, 78
1, 440139, Note_on_c, 0, 73, 75
1, 440144, Note_off_c, 0, 72, 62
1, 440146, Control_c, 0, 64, 68
1, 440161, Control_c, 0, 64, 44
1, 440176, Control_c, 0, 64, 42
1, 440187, Note_off_c, 0, 37, 63
1, 440191, Control_c, 0, 64, 58
1, 440206, Control_c, 0, 64, 67
1, 440220, Control_c, 0, 64, 78
1, 440235, Control_c, 0, 64, 98
1, 440250, Control_c, 0, 64, 127
1, 440368, Note_on_c, 0, 61, 58
1, 440417, Note_off_c, 0, 77, 61
1, 440440, Note_on_c, 0, 78, 86
1, 440456, Note_off_c, 0, 73, 49
1, 440459, Note_on_c, 0, 68, 65
1, 440461, Note_off_c, 0, 61, 62
1, 440495, Note_on_c, 0, 53, 53
1, 440592, Note_off_c, 0, 68, 62
1, 440620, Note_on_c, 0, 44, 63
1, 440633, Note_on_c, 0, 79, 86
1, 440639, Note_off_c, 0, 53, 61
1, 440642, Note_on_c, 0, 73, 70
1, 440644, Note_off_c, 0, 78, 58
1, 440658, Note_off_c, 0, 44, 60
1, 440670, Note_off_c, 0, 73, 66
1, 440730, Note_on_c, 0, 56, 52
1, 440775, Note_on_c, 0, 80, 86
1, 440779, Note_off_c, 0, 56, 63
1, 440790, Note_on_c, 0, 68, 60
1, 440802, Note_off_c, 0, 79, 61
1, 440803, Note_on_c, 0, 53, 59
1, 440818, Note_off_c, 0, 68, 68
1, 440830, Note_off_c, 0, 53, 68
1, 440910, Control_c, 0, 64, 88
1, 440913, Note_off_c, 0, 80, 63
1, 440918, Note_on_c, 0, 39, 75
1, 440925, Control_c, 0, 64, 69
1, 440936, Note_on_c, 0, 82, 84
1, 440940, Control_c, 0, 64, 55
1, 440945, Note_on_c, 0, 72, 74
1, 440952, Note_off_c, 0, 39, 64
1, 440955, Control_c, 0, 64, 55
1, 440969, Control_c, 0, 64, 62
1, 440984, Control_c, 0, 64, 71
1, 440999, Control_c, 0, 64, 87
1, 441014, Control_c, 0, 64, 127
1, 441045, Note_on_c, 0, 56, 67
1, 441124, Note_off_c, 0, 72, 62
1, 441125, Note_on_c, 0, 78, 74
1, 441128, Note_on_c, 0, 80, 80
1, 441161, Note_off_c, 0, 78, 64
1, 441164, Note_off_c, 0, 82, 64
1, 441168, Note_off_c, 0, 56, 58
1, 441177, Note_on_c, 0, 48, 55
1, 441185, Note_off_c, 0, 80, 66
1, 441236, Note_on_c, 0, 78, 84
1, 441394, Note_off_c, 0, 48, 56
1, 441411, Note_on_c, 0, 44, 48
1, 441460, Note_on_c, 0, 89, 93
1, 441481, Control_c, 0, 64, 98
1, 441496, Control_c, 0, 64, 82
1, 441511, Control_c, 0, 64, 72
1, 441514, Note_off_c, 0, 78, 59
1, 441526, Control_c, 0, 64, 69
1, 441541, Control_c, 0, 64, 71
1, 441555, Control_c, 0, 64, 77
1, 441570, Control_c, 0, 64, 91
1, 441584, Control_c, 0, 64, 114
1, 441593, Note_on_c, 0, 56, 69
1, 441599, Control_c, 0, 64, 127
1, 441693, Note_off_c, 0, 56, 63
1, 441700, Note_on_c, 0, 48, 68
1, 441705, Note_off_c, 0, 44, 59
1, 441725, Note_off_c, 0, 48, 65
1, 441748, Note_off_c, 0, 89, 60
1, 441761, Note_on_c, 0, 87, 83
1, 441768, Note_on_c, 0, 80, 67
1, 441789, Note_off_c, 0, 87, 60
1, 441795, Note_off_c, 0, 80, 68
1, 441822, Control_c, 0, 64, 117
1, 441837, Control_c, 0, 64, 91
1, 441851, Note_on_c, 0, 41, 53
1, 441851, Control_c, 0, 64, 70
1, 441866, Note_on_c, 0, 87, 90
1, 441866, Control_c, 0, 64, 57
1, 441871, Note_on_c, 0, 77, 69
1, 441881, Control_c, 0, 64, 57
1, 441896, Control_c, 0, 64, 65
1, 441910, Control_c, 0, 64, 73
1, 441925, Control_c, 0, 64, 86
1, 441930, Note_off_c, 0, 41, 63
1, 441940, Control_c, 0, 64, 103
1, 441955, Control_c, 0, 64, 127
1, 442060, Note_off_c, 0, 87, 60
1, 442064, Note_on_c, 0, 56, 60
1, 442097, Note_off_c, 0, 77, 56
1, 442134, Note_on_c, 0, 85, 89
1, 442141, Note_off_c, 0, 56, 62
1, 442145, Note_on_c, 0, 80, 68
1, 442219, Note_on_c, 0, 49, 57
1, 442289, Control_c, 0, 64, 115
1, 442304, Control_c, 0, 64, 89
1, 442319, Note_off_c, 0, 85, 61
1, 442319, Control_c, 0, 64, 70
1, 442321, Note_on_c, 0, 41, 51
1, 442333, Control_c, 0, 64, 53
1, 442336, Note_on_c, 0, 84, 78
1, 442343, Note_off_c, 0, 80, 39
1, 442345, Note_on_c, 0, 75, 72
1, 442348, Control_c, 0, 64, 53
1, 442360, Note_off_c, 0, 41, 62
1, 442362, Note_off_c, 0, 49, 60
1, 442363, Control_c, 0, 64, 61
1, 442376, Note_off_c, 0, 75, 58
1, 442378, Control_c, 0, 64, 68
1, 442393, Control_c, 0, 64, 80
1, 442407, Control_c, 0, 64, 98
1, 442422, Control_c, 0, 64, 122
1, 442437, Control_c, 0, 64, 127
1, 442473, Note_on_c, 0, 82, 82
1, 442476, Note_on_c, 0, 57, 62
1, 442480, Note_on_c, 0, 73, 72
1, 442482, Note_off_c, 0, 84, 55
1, 442507, Note_off_c, 0, 73, 67
1, 442521, Note_off_c, 0, 57, 57
1, 442564, Note_on_c, 0, 51, 58
1, 442571, Note_on_c, 0, 81, 83
1, 442579, Note_off_c, 0, 82, 59
1, 442583, Note_on_c, 0, 72, 60
1, 442595, Note_off_c, 0, 51, 64
1, 442602, Note_off_c, 0, 72, 64
1, 442615, Control_c, 0, 64, 113
1, 442630, Control_c, 0, 64, 95
1, 442637, Note_off_c, 0, 81, 62
1, 442645, Control_c, 0, 64, 77
1, 442660, Control_c, 0, 64, 61
1, 442675, Control_c, 0, 64, 15
1, 442677, Note_on_c, 0, 46, 56
1, 442678, Note_on_c, 0, 84, 78
1, 442680, Note_on_c, 0, 75, 69
1, 442689, Control_c, 0, 64, 14
1, 442704, Control_c, 0, 64, 50
1, 442710, Note_off_c, 0, 46, 66
1, 442719, Control_c, 0, 64, 65
1, 442733, Control_c, 0, 64, 74
1, 442748, Control_c, 0, 64, 86
1, 442756, Note_off_c, 0, 84, 64
1, 442763, Note_off_c, 0, 75, 56
1, 442763, Control_c, 0, 64, 108
1, 442778, Control_c, 0, 64, 127
1, 442781, Note_on_c, 0, 61, 63
1, 442863, Note_off_c, 0, 61, 59
1, 442883, Note_on_c, 0, 53, 58
1, 442912, Note_off_c, 0, 53, 66
1, 442946, Note_on_c, 0, 82, 74
1, 442950, Note_on_c, 0, 73, 67
1, 442968, Note_off_c, 0, 73, 65
1, 442970, Note_off_c, 0, 82, 69
1, 442979, Control_c, 0, 64, 115
1, 442994, Control_c, 0, 64, 90
1, 443003, Note_on_c, 0, 39, 64
1, 443009, Control_c, 0, 64, 69
1, 443022, Note_on_c, 0, 82, 76
1, 443024, Control_c, 0, 64, 48
1, 443031, Note_on_c, 0, 73, 74
1, 443036, Note_off_c, 0, 39, 63
1, 443038, Control_c, 0, 64, 38
1, 443053, Control_c, 0, 64, 55
1, 443068, Control_c, 0, 64, 66
1, 443083, Control_c, 0, 64, 75
1, 443098, Control_c, 0, 64, 93
1, 443112, Control_c, 0, 64, 113
1, 443127, Control_c, 0, 64, 127
1, 443179, Note_on_c, 0, 61, 49
1, 443185, Note_on_c, 0, 80, 71
1, 443226, Note_off_c, 0, 82, 58
1, 443235, Note_off_c, 0, 61, 60
1, 443287, Note_on_c, 0, 51, 48
1, 443303, Note_on_c, 0, 75, 57
1, 443306, Note_off_c, 0, 73, 58
1, 443307, Note_on_c, 0, 79, 69
1, 443337, Note_off_c, 0, 80, 58
1, 443338, Note_off_c, 0, 51, 57
1, 443475, Note_on_c, 0, 44, 46
1, 443477, Note_off_c, 0, 75, 51
1, 443498, Control_c, 0, 64, 97
1, 443502, Note_off_c, 0, 79, 59
1, 443512, Control_c, 0, 64, 78
1, 443527, Control_c, 0, 64, 64
1, 443532, Note_on_c, 0, 82, 67
1, 443540, Note_on_c, 0, 72, 50
1, 443542, Control_c, 0, 64, 54
1, 443556, Control_c, 0, 64, 59
1, 443571, Note_off_c, 0, 44, 59
1, 443571, Control_c, 0, 64, 66
1, 443593, Control_c, 0, 64, 74
1, 443608, Control_c, 0, 64, 88
1, 443623, Control_c, 0, 64, 107
1, 443638, Control_c, 0, 64, 127
1, 443697, Note_on_c, 0, 60, 44
1, 443750, Note_on_c, 0, 80, 76
1, 443754, Note_off_c, 0, 60, 59
1, 443763, Note_off_c, 0, 72, 57
1, 443778, Note_on_c, 0, 75, 56
1, 443804, Note_on_c, 0, 51, 40
1, 443832, Control_c, 0, 64, 123
1, 443847, Control_c, 0, 64, 98
1, 443861, Control_c, 0, 64, 79
1, 443872, Note_off_c, 0, 51, 53
1, 443874, Note_off_c, 0, 82, 62
1, 443876, Control_c, 0, 64, 68
1, 443891, Control_c, 0, 64, 63
1, 443894, Note_on_c, 0, 49, 62
1, 443896, Note_on_c, 0, 78, 65
1, 443904, Note_off_c, 0, 75, 60
1, 443906, Control_c, 0, 64, 67
1, 443908, Note_off_c, 0, 80, 61
1, 443921, Control_c, 0, 64, 74
1, 443926, Note_on_c, 0, 71, 46
1, 443936, Control_c, 0, 64, 86
1, 443944, Note_off_c, 0, 78, 0
1, 443951, Control_c, 0, 64, 109
1, 443966, Control_c, 0, 64, 127
1, 443979, Note_on_c, 0, 78, 22
1, 443996, Note_on_c, 0, 59, 46
1, 444035, Note_on_c, 0, 77, 76
1, 444039, Note_on_c, 0, 73, 70
1, 444045, Note_off_c, 0, 71, 44
1, 444047, Note_off_c, 0, 59, 58
1, 444079, Note_on_c, 0, 53, 55
1, 444087, Note_off_c, 0, 78, 53
1, 444089, Note_off_c, 0, 49, 62
1, 444105, Note_off_c, 0, 53, 65
1, 444128, Control_c, 0, 64, 97
1, 444143, Control_c, 0, 64, 72
1, 444158, Control_c, 0, 64, 55
1, 444166, Note_off_c, 0, 73, 63
1, 444173, Control_c, 0, 64, 50
1, 444181, Note_on_c, 0, 42, 61
1, 444187, Control_c, 0, 64, 63
1, 444192, Note_off_c, 0, 77, 64
1, 444198, Note_on_c, 0, 80, 81
1, 444202, Control_c, 0, 64, 72
1, 444208, Note_on_c, 0, 70, 72
1, 444211, Note_off_c, 0, 42, 64
1, 444217, Control_c, 0, 64, 89
1, 444232, Control_c, 0, 64, 127
1, 444293, Note_on_c, 0, 58, 59
1, 444340, Note_on_c, 0, 78, 80
1, 444345, Note_on_c, 0, 73, 76
1, 444354, Note_off_c, 0, 70, 61
1, 444357, Note_off_c, 0, 58, 59
1, 444358, Note_off_c, 0, 80, 62
1, 444386, Note_on_c, 0, 51, 53
1, 444419, Note_off_c, 0, 78, 63
1, 444423, Note_off_c, 0, 73, 61
1, 444447, Control_c, 0, 64, 116
1, 444463, Note_off_c, 0, 51, 58
1, 444463, Control_c, 0, 64, 89
1, 444476, Note_on_c, 0, 46, 61
1, 444477, Control_c, 0, 64, 72
1, 444484, Note_on_c, 0, 77, 83
1, 444492, Control_c, 0, 64, 65
1, 444507, Control_c, 0, 64, 68
1, 444512, Note_on_c, 0, 66, 59
1, 444522, Control_c, 0, 64, 78
1, 444536, Control_c, 0, 64, 91
1, 444542, Note_off_c, 0, 66, 50
1, 444551, Control_c, 0, 64, 105
1, 444566, Control_c, 0, 64, 127
1, 444584, Note_on_c, 0, 54, 45
1, 444628, Note_on_c, 0, 75, 78
1, 444637, Note_on_c, 0, 70, 72
1, 444639, Note_off_c, 0, 54, 62
1, 444643, Note_off_c, 0, 46, 61
1, 444663, Note_on_c, 0, 51, 57
1, 444665, Note_off_c, 0, 77, 58
1, 444748, Note_off_c, 0, 70, 62
1, 444749, Note_off_c, 0, 75, 61
1, 444757, Control_c, 0, 64, 104
1, 444770, Note_on_c, 0, 44, 62
1, 444772, Control_c, 0, 64, 78
1, 444780, Note_off_c, 0, 51, 61
1, 444787, Control_c, 0, 64, 58
1, 444801, Note_on_c, 0, 77, 80
1, 444801, Note_on_c, 0, 65, 83
1, 444801, Control_c, 0, 64, 0
1, 444816, Control_c, 0, 64, 27
1, 444831, Control_c, 0, 64, 57
1, 444846, Control_c, 0, 64, 68
1, 444861, Control_c, 0, 64, 82
1, 444875, Control_c, 0, 64, 111
1, 444890, Control_c, 0, 64, 127
1, 444913, Note_on_c, 0, 56, 65
1, 444942, Note_on_c, 0, 75, 78
1, 444947, Note_off_c, 0, 77, 61
1, 444951, Note_on_c, 0, 68, 79
1, 444976, Note_off_c, 0, 56, 62
1, 444986, Note_off_c, 0, 65, 62
1, 445009, Note_off_c, 0, 75, 62
1, 445014, Note_on_c, 0, 53, 56
1, 445038, Note_off_c, 0, 68, 64
1, 445095, Note_on_c, 0, 73, 88
1, 445098, Note_on_c, 0, 65, 81
1, 445101, Note_on_c, 0, 49, 72
1, 445102, Note_off_c, 0, 44, 59
1, 445108, Note_off_c, 0, 53, 64
1, 445167, Note_on_c, 0, 56, 60
1, 445219, Note_off_c, 0, 56, 63
1, 445231, Note_on_c, 0, 53, 67
1, 445236, Note_on_c, 0, 70, 82
1, 445241, Note_off_c, 0, 65, 56
1, 445243, Note_on_c, 0, 68, 77
1, 445251, Note_off_c, 0, 73, 57
1, 445257, Note_off_c, 0, 53, 68
1, 445264, Note_off_c, 0, 49, 63
1, 445359, Note_off_c, 0, 68, 63
1, 445362, Note_off_c, 0, 70, 61
1, 445373, Control_c, 0, 64, 94
1, 445377, Note_on_c, 0, 32, 79
1, 445388, Control_c, 0, 64, 69
1, 445397, Note_on_c, 0, 72, 79
1, 445398, Note_on_c, 0, 60, 86
1, 445403, Control_c, 0, 64, 40
1, 445408, Note_off_c, 0, 32, 63
1, 445432, Control_c, 0, 64, 58
1, 445447, Control_c, 0, 64, 67
1, 445459, Note_on_c, 0, 71, 4
1, 445460, Note_off_c, 0, 71, 127
1, 445462, Control_c, 0, 64, 76
1, 445477, Control_c, 0, 64, 94
1, 445492, Control_c, 0, 64, 127
1, 445525, Note_on_c, 0, 54, 72
1, 445547, Note_on_c, 0, 63, 77
1, 445551, Note_on_c, 0, 70, 74
1, 445595, Note_off_c, 0, 72, 58
1, 445617, Note_off_c, 0, 54, 60
1, 445622, Note_on_c, 0, 51, 71
1, 445650, Note_off_c, 0, 63, 58
1, 445716, Note_on_c, 0, 44, 74
1, 445721, Note_on_c, 0, 71, 39
1, 445726, Note_off_c, 0, 51, 60
1, 445728, Note_on_c, 0, 68, 89
1, 445728, Control_c, 0, 64, 97
1, 445743, Control_c, 0, 64, 76
1, 445749, Note_off_c, 0, 71, 57
1, 445758, Control_c, 0, 64, 59
1, 445772, Control_c, 0, 64, 50
1, 445787, Control_c, 0, 64, 58
1, 445802, Control_c, 0, 64, 64
1, 445812, Note_on_c, 0, 54, 54
1, 445817, Control_c, 0, 64, 70
1, 445834, Note_off_c, 0, 70, 61
1, 445839, Control_c, 0, 64, 79
1, 445854, Control_c, 0, 64, 92
1, 445869, Control_c, 0, 64, 106
1, 445884, Control_c, 0, 64, 127
1, 445910, Note_on_c, 0, 63, 85
1, 445918, Note_off_c, 0, 60, 66
1, 445929, Note_off_c, 0, 54, 63
1, 445942, Note_off_c, 0, 68, 67
1, 445951, Note_on_c, 0, 51, 75
1, 445954, Note_off_c, 0, 63, 66
1, 445981, Note_off_c, 0, 51, 66
1, 445995, Note_off_c, 0, 44, 61
1, 446151, Note_on_c, 0, 49, 83
1, 446193, Note_off_c, 0, 49, 60
1, 446329, Control_c, 0, 64, 125
1, 446342, Note_on_c, 0, 31, 86
1, 446344, Control_c, 0, 64, 94
1, 446352, Note_on_c, 0, 64, 82
1, 446359, Control_c, 0, 64, 72
1, 446373, Control_c, 0, 64, 27
1, 446388, Control_c, 0, 64, 0
1, 446533, Note_on_c, 0, 61, 73
1, 446588, Control_c, 0, 64, 16
1, 446603, Control_c, 0, 64, 41
1, 446618, Control_c, 0, 64, 57
1, 446633, Control_c, 0, 64, 64
1, 446648, Control_c, 0, 64, 69
1, 446660, Note_on_c, 0, 58, 78
1, 446662, Control_c, 0, 64, 75
1, 446665, Note_off_c, 0, 64, 59
1, 446677, Control_c, 0, 64, 79
1, 446692, Control_c, 0, 64, 82
1, 446706, Control_c, 0, 64, 82
1, 446736, Control_c, 0, 64, 83
1, 446747, Note_off_c, 0, 61, 62
1, 446775, Note_off_c, 0, 58, 64
1, 446777, Note_on_c, 0, 51, 78
1, 446827, Note_off_c, 0, 51, 60
1, 446882, Note_on_c, 0, 52, 70
1, 446985, Note_on_c, 0, 49, 73
1, 447004, Control_c, 0, 64, 82
1, 447018, Note_off_c, 0, 52, 60
1, 447033, Control_c, 0, 64, 82
1, 447048, Control_c, 0, 64, 81
1, 447063, Control_c, 0, 64, 80
1, 447078, Control_c, 0, 64, 78
1, 447081, Note_off_c, 0, 49, 63
1, 447083, Note_on_c, 0, 32, 75
1, 447093, Control_c, 0, 64, 74
1, 447093, Note_on_c, 0, 48, 68
1, 447108, Control_c, 0, 64, 69
1, 447122, Control_c, 0, 64, 60
1, 447125, Note_off_c, 0, 31, 62
1, 447137, Control_c, 0, 64, 31
1, 447152, Control_c, 0, 64, 0
1, 447184, Note_on_c, 0, 51, 74
1, 447188, Note_off_c, 0, 48, 53
1, 447266, Note_on_c, 0, 55, 70
1, 447269, Note_off_c, 0, 51, 62
1, 447303, Note_off_c, 0, 32, 62
1, 447346, Note_on_c, 0, 57, 80
1, 447352, Control_c, 0, 64, 42
1, 447357, Note_off_c, 0, 55, 62
1, 447367, Control_c, 0, 64, 54
1, 447376, Note_off_c, 0, 57, 67
1, 447382, Control_c, 0, 64, 63
1, 447397, Control_c, 0, 64, 69
1, 447411, Control_c, 0, 64, 74
1, 447424, Note_on_c, 0, 56, 80
1, 447426, Control_c, 0, 64, 80
1, 447441, Control_c, 0, 64, 83
1, 447456, Control_c, 0, 64, 84
1, 447471, Control_c, 0, 64, 85
1, 447477, Note_off_c, 0, 56, 64
1, 447504, Note_on_c, 0, 68, 78
1, 447526, Note_off_c, 0, 68, 70
1, 447544, Control_c, 0, 64, 84
1, 447574, Control_c, 0, 64, 83
1, 447589, Control_c, 0, 64, 80
1, 447603, Control_c, 0, 64, 73
1, 447618, Control_c, 0, 64, 60
1, 447624, Note_on_c, 0, 51, 78
1, 447633, Control_c, 0, 64, 0
1, 447651, Note_off_c, 0, 51, 68
1, 447689, Note_on_c, 0, 33, 89
1, 447700, Note_on_c, 0, 66, 82
1, 447727, Note_on_c, 0, 67, 62
1, 447749, Note_off_c, 0, 67, 56
1, 447812, Control_c, 0, 64, 37
1, 447817, Note_on_c, 0, 63, 68
1, 447826, Control_c, 0, 64, 56
1, 447841, Control_c, 0, 64, 64
1, 447856, Control_c, 0, 64, 67
1, 447871, Control_c, 0, 64, 71
1, 447874, Note_off_c, 0, 66, 57
1, 447886, Control_c, 0, 64, 75
1, 447889, Note_on_c, 0, 60, 73
1, 447901, Control_c, 0, 64, 77
1, 447916, Control_c, 0, 64, 79
1, 447931, Control_c, 0, 64, 80
1, 447932, Note_off_c, 0, 63, 63
1, 447945, Control_c, 0, 64, 80
1, 447954, Note_off_c, 0, 60, 66
1, 447972, Note_on_c, 0, 53, 74
1, 448055, Note_off_c, 0, 53, 58
1, 448059, Note_on_c, 0, 54, 70
1, 448101, Control_c, 0, 64, 80
1, 448143, Note_on_c, 0, 51, 70
1, 448145, Control_c, 0, 64, 79
1, 448150, Note_off_c, 0, 54, 62
1, 448160, Control_c, 0, 64, 78
1, 448175, Control_c, 0, 64, 75
1, 448190, Control_c, 0, 64, 69
1, 448205, Control_c, 0, 64, 57
1, 448206, Note_off_c, 0, 51, 61
1, 448220, Control_c, 0, 64, 0
1, 448224, Note_on_c, 0, 50, 81
1, 448225, Note_on_c, 0, 34, 78
1, 448236, Note_off_c, 0, 33, 60
1, 448266, Note_off_c, 0, 50, 60
1, 448300, Note_on_c, 0, 53, 77
1, 448379, Note_on_c, 0, 57, 76
1, 448383, Note_off_c, 0, 53, 64
1, 448404, Note_off_c, 0, 34, 62
1, 448426, Control_c, 0, 64, 34
1, 448441, Control_c, 0, 64, 55
1, 448452, Note_on_c, 0, 59, 76
1, 448457, Control_c, 0, 64, 59
1, 448458, Note_off_c, 0, 57, 65
1, 448472, Control_c, 0, 64, 63
1, 448476, Note_off_c, 0, 59, 68
1, 448487, Control_c, 0, 64, 67
1, 448502, Control_c, 0, 64, 72
1, 448516, Control_c, 0, 64, 77
1, 448531, Control_c, 0, 64, 81
1, 448535, Note_on_c, 0, 58, 78
1, 448546, Control_c, 0, 64, 84
1, 448561, Control_c, 0, 64, 87
1, 448572, Note_off_c, 0, 58, 60
1, 448575, Control_c, 0, 64, 88
1, 448590, Control_c, 0, 64, 89
1, 448605, Control_c, 0, 64, 89
1, 448618, Note_on_c, 0, 70, 76
1, 448639, Note_on_c, 0, 34, 54
1, 448664, Control_c, 0, 64, 85
1, 448675, Note_off_c, 0, 34, 64
1, 448679, Control_c, 0, 64, 76
1, 448694, Control_c, 0, 64, 64
1, 448709, Control_c, 0, 64, 42
1, 448724, Control_c, 0, 64, 48
1, 448726, Note_on_c, 0, 50, 70
1, 448727, Note_on_c, 0, 66, 72
1, 448738, Control_c, 0, 64, 61
1, 448746, Note_off_c, 0, 70, 63
1, 448753, Control_c, 0, 64, 68
1, 448757, Note_off_c, 0, 50, 67
1, 448768, Control_c, 0, 64, 76
1, 448783, Control_c, 0, 64, 87
1, 448792, Note_off_c, 0, 66, 61
1, 448798, Control_c, 0, 64, 96
1, 448813, Control_c, 0, 64, 98
1, 448835, Control_c, 0, 64, 98
1, 448836, Note_on_c, 0, 65, 66
1, 448873, Note_off_c, 0, 65, 63
1, 448889, Note_on_c, 0, 46, 52
1, 448908, Control_c, 0, 64, 96
1, 448918, Note_on_c, 0, 53, 71
1, 448921, Note_on_c, 0, 77, 74
1, 448923, Note_off_c, 0, 46, 65
1, 448923, Control_c, 0, 64, 90
1, 448938, Control_c, 0, 64, 82
1, 448953, Control_c, 0, 64, 75
1, 448968, Control_c, 0, 64, 74
1, 448969, Note_off_c, 0, 53, 63
1, 448973, Note_on_c, 0, 62, 75
1, 448974, Note_off_c, 0, 77, 59
1, 448983, Control_c, 0, 64, 78
1, 448984, Note_on_c, 0, 71, 80
1, 448998, Control_c, 0, 64, 86
1, 449013, Control_c, 0, 64, 99
1, 449028, Control_c, 0, 64, 115
1, 449031, Note_off_c, 0, 71, 64
1, 449034, Note_off_c, 0, 62, 56
1, 449043, Control_c, 0, 64, 127
1, 449075, Note_on_c, 0, 70, 73
1, 449127, Note_off_c, 0, 70, 63
1, 449142, Note_on_c, 0, 50, 67
1, 449164, Note_on_c, 0, 82, 82
1, 449167, Note_on_c, 0, 58, 75
1, 449179, Note_off_c, 0, 50, 68
1, 449190, Control_c, 0, 64, 96
1, 449205, Control_c, 0, 64, 78
1, 449216, Note_off_c, 0, 58, 65
1, 449220, Control_c, 0, 64, 69
1, 449221, Note_on_c, 0, 65, 83
1, 449235, Control_c, 0, 64, 68
1, 449239, Note_on_c, 0, 78, 81
1, 449251, Control_c, 0, 64, 73
1, 449266, Control_c, 0, 64, 81
1, 449268, Note_off_c, 0, 82, 63
1, 449280, Control_c, 0, 64, 97
1, 449283, Note_off_c, 0, 65, 61
1, 449295, Control_c, 0, 64, 120
1, 449297, Note_off_c, 0, 78, 64
1, 449310, Control_c, 0, 64, 127
1, 449325, Note_on_c, 0, 77, 77
1, 449355, Note_off_c, 0, 77, 63
1, 449382, Note_on_c, 0, 53, 74
1, 449406, Note_on_c, 0, 89, 89
1, 449413, Control_c, 0, 64, 105
1, 449415, Note_off_c, 0, 53, 67
1, 449416, Note_on_c, 0, 62, 77
1, 449428, Control_c, 0, 64, 84
1, 449443, Control_c, 0, 64, 68
1, 449458, Control_c, 0, 64, 57
1, 449469, Note_off_c, 0, 62, 62
1, 449472, Note_on_c, 0, 70, 91
1, 449472, Control_c, 0, 64, 63
1, 449475, Note_on_c, 0, 83, 88
1, 449487, Control_c, 0, 64, 69
1, 449495, Note_off_c, 0, 89, 60
1, 449502, Control_c, 0, 64, 81
1, 449508, Note_on_c, 0, 63, 21
1, 449517, Control_c, 0, 64, 100
1, 449531, Control_c, 0, 64, 127
1, 449541, Note_off_c, 0, 70, 64
1, 449549, Note_off_c, 0, 63, 52
1, 449549, Note_off_c, 0, 83, 65
1, 449579, Note_on_c, 0, 82, 92
1, 449621, Note_off_c, 0, 82, 64
1, 449664, Note_on_c, 0, 58, 74
1, 449713, Note_on_c, 0, 101, 76
1, 449719, Note_on_c, 0, 65, 83
1, 449741, Note_off_c, 0, 58, 66
1, 449791, Control_c, 0, 64, 92
1, 449806, Control_c, 0, 64, 69
1, 449821, Control_c, 0, 64, 29
1, 449827, Note_on_c, 0, 74, 102
1, 449829, Note_on_c, 0, 98, 89
1, 449835, Control_c, 0, 64, 0
1, 449850, Control_c, 0, 64, 58
1, 449865, Control_c, 0, 64, 74
1, 449880, Control_c, 0, 64, 98
1, 449895, Control_c, 0, 64, 127
1, 449908, Note_off_c, 0, 101, 38
1, 449924, Note_on_c, 0, 94, 90
1, 449961, Note_off_c, 0, 98, 66
1, 449990, Note_on_c, 0, 89, 78
1, 449993, Note_off_c, 0, 94, 66
1, 450012, Note_off_c, 0, 89, 68
1, 450031, Note_off_c, 0, 74, 61
1, 450071, Note_on_c, 0, 86, 82
1, 450149, Note_on_c, 0, 82, 87
1, 450167, Note_off_c, 0, 86, 61
1, 450194, Note_off_c, 0, 65, 67
1, 450198, Note_off_c, 0, 82, 67
1, 450214, Note_on_c, 0, 77, 69
1, 450242, Note_off_c, 0, 77, 68
1, 450289, Note_on_c, 0, 74, 78
1, 450372, Note_on_c, 0, 70, 80
1, 450378, Note_off_c, 0, 74, 64
1, 450412, Note_off_c, 0, 70, 64
1, 450441, Note_on_c, 0, 65, 68
1, 450469, Note_off_c, 0, 65, 66
1, 450521, Note_on_c, 0, 58, 83
1, 450577, Note_off_c, 0, 58, 64
1, 450595, Note_on_c, 0, 53, 84
1, 450618, Note_off_c, 0, 53, 71
1, 450674, Note_on_c, 0, 46, 82
1, 450712, Note_off_c, 0, 46, 62
1, 450756, Note_on_c, 0, 33, 68
1, 450776, Note_on_c, 0, 35, 54
1, 450790, Note_off_c, 0, 33, 62
1, 450807, Note_off_c, 0, 35, 60
1, 450813, Note_on_c, 0, 51, 79
1, 450822, Control_c, 0, 64, 93
1, 450837, Control_c, 0, 64, 70
1, 450843, Note_off_c, 0, 51, 67
1, 450852, Control_c, 0, 64, 0
1, 450885, Note_on_c, 0, 48, 95
1, 450892, Note_on_c, 0, 66, 84
1, 450971, Control_c, 0, 64, 33
1, 450986, Control_c, 0, 64, 49
1, 451001, Control_c, 0, 64, 59
1, 451011, Note_on_c, 0, 63, 69
1, 451016, Control_c, 0, 64, 65
1, 451031, Control_c, 0, 64, 71
1, 451045, Control_c, 0, 64, 80
1, 451060, Control_c, 0, 64, 87
1, 451073, Note_off_c, 0, 66, 55
1, 451082, Control_c, 0, 64, 93
1, 451096, Control_c, 0, 64, 96
1, 451097, Note_on_c, 0, 60, 73
1, 451111, Control_c, 0, 64, 98
1, 451126, Control_c, 0, 64, 99
1, 451129, Note_off_c, 0, 63, 63
1, 451147, Note_off_c, 0, 48, 67
1, 451150, Note_off_c, 0, 60, 66
1, 451168, Note_on_c, 0, 53, 71
1, 451254, Note_off_c, 0, 53, 58
1, 451257, Note_on_c, 0, 54, 68
1, 451319, Control_c, 0, 64, 97
1, 451329, Note_on_c, 0, 51, 70
1, 451334, Control_c, 0, 64, 96
1, 451341, Note_off_c, 0, 54, 61
1, 451349, Control_c, 0, 64, 94
1, 451364, Control_c, 0, 64, 90
1, 451378, Control_c, 0, 64, 83
1, 451389, Note_off_c, 0, 51, 62
1, 451392, Note_on_c, 0, 34, 66
1, 451392, Control_c, 0, 64, 71
1, 451395, Note_on_c, 0, 41, 54
1, 451406, Note_on_c, 0, 50, 76
1, 451407, Control_c, 0, 64, 46
1, 451422, Control_c, 0, 64, 0
1, 451462, Note_off_c, 0, 50, 60
1, 451475, Note_on_c, 0, 53, 75
1, 451549, Note_on_c, 0, 57, 78
1, 451555, Note_off_c, 0, 53, 63
1, 451555, Control_c, 0, 64, 46
1, 451561, Note_off_c, 0, 41, 61
1, 451565, Note_off_c, 0, 34, 63
1, 451570, Control_c, 0, 64, 60
1, 451585, Control_c, 0, 64, 65
1, 451600, Control_c, 0, 64, 71
1, 451611, Note_on_c, 0, 59, 76
1, 451615, Control_c, 0, 64, 77
1, 451619, Note_off_c, 0, 57, 64
1, 451630, Control_c, 0, 64, 82
1, 451641, Note_off_c, 0, 59, 67
1, 451645, Control_c, 0, 64, 86
1, 451660, Control_c, 0, 64, 88
1, 451675, Control_c, 0, 64, 89
1, 451697, Note_on_c, 0, 58, 76
1, 451749, Control_c, 0, 64, 86
1, 451752, Note_off_c, 0, 58, 62
1, 451762, Note_on_c, 0, 70, 85
1, 451764, Control_c, 0, 64, 80
1, 451779, Control_c, 0, 64, 68
1, 451783, Note_off_c, 0, 70, 69
1, 451788, Note_on_c, 0, 35, 71
1, 451793, Control_c, 0, 64, 15
1, 451808, Control_c, 0, 64, 0
1, 451821, Note_off_c, 0, 35, 65
1, 451876, Note_on_c, 0, 53, 81
1, 451900, Note_off_c, 0, 53, 70
1, 451912, Note_on_c, 0, 50, 92
1, 451949, Control_c, 0, 64, 60
1, 451957, Note_on_c, 0, 68, 75
1, 451964, Control_c, 0, 64, 65
1, 451979, Control_c, 0, 64, 70
1, 451993, Control_c, 0, 64, 76
1, 452008, Control_c, 0, 64, 85
1, 452023, Control_c, 0, 64, 93
1, 452038, Control_c, 0, 64, 103
1, 452047, Note_on_c, 0, 65, 75
1, 452053, Control_c, 0, 64, 111
1, 452059, Poly_aftertouch_c, 0, 69, 127
1, 452065, Note_off_c, 0, 68, 59
1, 452067, Control_c, 0, 64, 118
1, 452082, Control_c, 0, 64, 127
1, 452092, Poly_aftertouch_c, 0, 69, 0
1, 452112, Note_off_c, 0, 50, 69
1, 452113, Note_on_c, 0, 62, 72
1, 452128, Note_off_c, 0, 65, 60
1, 452164, Note_off_c, 0, 62, 62
1, 452180, Note_on_c, 0, 55, 74
1, 452221, Note_off_c, 0, 55, 49
1, 452268, Note_on_c, 0, 56, 79
1, 452352, Note_on_c, 0, 53, 72
1, 452356, Note_off_c, 0, 56, 62
1, 452393, Control_c, 0, 64, 108
1, 452402, Note_on_c, 0, 36, 57
1, 452404, Note_off_c, 0, 53, 63
1, 452405, Note_on_c, 0, 43, 68
1, 452408, Control_c, 0, 64, 87
1, 452418, Note_on_c, 0, 52, 72
1, 452423, Control_c, 0, 64, 70
1, 452438, Control_c, 0, 64, 45
1, 452453, Control_c, 0, 64, 0
1, 452462, Note_off_c, 0, 52, 59
1, 452483, Control_c, 0, 64, 47
1, 452486, Note_on_c, 0, 55, 76
1, 452497, Control_c, 0, 64, 64
1, 452512, Control_c, 0, 64, 73
1, 452527, Control_c, 0, 64, 85
1, 452542, Note_off_c, 0, 36, 60
1, 452542, Control_c, 0, 64, 97
1, 452555, Note_off_c, 0, 43, 63
1, 452557, Control_c, 0, 64, 104
1, 452571, Note_on_c, 0, 59, 77
1, 452572, Note_off_c, 0, 55, 62
1, 452579, Control_c, 0, 64, 108
1, 452594, Control_c, 0, 64, 111
1, 452609, Control_c, 0, 64, 115
1, 452623, Control_c, 0, 64, 118
1, 452633, Note_on_c, 0, 61, 75
1, 452635, Note_off_c, 0, 59, 64
1, 452638, Control_c, 0, 64, 120
1, 452653, Control_c, 0, 64, 127
1, 452659, Note_off_c, 0, 61, 68
1, 452715, Note_on_c, 0, 60, 71
1, 452742, Note_off_c, 0, 60, 69
1, 452786, Note_on_c, 0, 36, 59
1, 452797, Note_on_c, 0, 72, 71
1, 452801, Control_c, 0, 64, 125
1, 452816, Control_c, 0, 64, 96
1, 452822, Note_on_c, 0, 43, 61
1, 452830, Note_off_c, 0, 36, 59
1, 452831, Control_c, 0, 64, 74
1, 452846, Control_c, 0, 64, 41
1, 452861, Control_c, 0, 64, 0
1, 452878, Note_off_c, 0, 43, 63
1, 452890, Control_c, 0, 64, 51
1, 452892, Note_on_c, 0, 52, 61
1, 452903, Note_on_c, 0, 63, 77
1, 452905, Control_c, 0, 64, 67
1, 452919, Note_off_c, 0, 72, 52
1, 452920, Control_c, 0, 64, 80
1, 452923, Note_off_c, 0, 52, 62
1, 452935, Control_c, 0, 64, 100
1, 452949, Control_c, 0, 64, 127
1, 452990, Note_off_c, 0, 63, 62
1, 452994, Note_on_c, 0, 64, 72
1, 453036, Note_off_c, 0, 64, 63
1, 453060, Note_on_c, 0, 48, 72
1, 453078, Note_on_c, 0, 76, 82
1, 453082, Control_c, 0, 64, 98
1, 453088, Note_on_c, 0, 55, 70
1, 453091, Note_off_c, 0, 48, 67
1, 453097, Control_c, 0, 64, 77
1, 453112, Control_c, 0, 64, 65
1, 453120, Note_off_c, 0, 55, 65
1, 453127, Control_c, 0, 64, 64
1, 453132, Note_on_c, 0, 64, 81
1, 453141, Control_c, 0, 64, 71
1, 453154, Note_on_c, 0, 66, 82
1, 453156, Note_off_c, 0, 76, 54
1, 453156, Control_c, 0, 64, 83
1, 453171, Control_c, 0, 64, 116
1, 453186, Control_c, 0, 64, 127
1, 453195, Note_off_c, 0, 64, 61
1, 453217, Note_off_c, 0, 66, 62
1, 453232, Note_on_c, 0, 67, 75
1, 453261, Note_off_c, 0, 67, 66
1, 453315, Note_on_c, 0, 52, 53
1, 453329, Note_on_c, 0, 79, 80
1, 453356, Note_on_c, 0, 60, 75
1, 453372, Note_off_c, 0, 52, 63
1, 453372, Control_c, 0, 64, 103
1, 453387, Control_c, 0, 64, 84
1, 453402, Control_c, 0, 64, 75
1, 453410, Note_on_c, 0, 67, 92
1, 453413, Note_on_c, 0, 71, 87
1, 453417, Control_c, 0, 64, 73
1, 453420, Note_off_c, 0, 79, 59
1, 453421, Note_off_c, 0, 60, 66
1, 453432, Control_c, 0, 64, 76
1, 453446, Control_c, 0, 64, 83
1, 453460, Note_off_c, 0, 71, 63
1, 453461, Control_c, 0, 64, 98
1, 453476, Control_c, 0, 64, 120
1, 453487, Note_off_c, 0, 67, 61
1, 453490, Control_c, 0, 64, 127
1, 453499, Note_on_c, 0, 72, 77
1, 453551, Note_off_c, 0, 72, 65
1, 453587, Note_on_c, 0, 84, 83
1, 453615, Note_on_c, 0, 55, 71
1, 453639, Control_c, 0, 64, 113
1, 453654, Control_c, 0, 64, 84
1, 453656, Note_off_c, 0, 55, 63
1, 453660, Note_on_c, 0, 64, 84
1, 453669, Control_c, 0, 64, 66
1, 453684, Control_c, 0, 64, 45
1, 453693, Note_on_c, 0, 75, 88
1, 453699, Control_c, 0, 64, 48
1, 453714, Control_c, 0, 64, 63
1, 453717, Note_on_c, 0, 72, 81
1, 453723, Note_off_c, 0, 84, 57
1, 453727, Note_off_c, 0, 64, 66
1, 453729, Control_c, 0, 64, 74
1, 453743, Control_c, 0, 64, 98
1, 453758, Control_c, 0, 64, 127
1, 453798, Note_off_c, 0, 75, 62
1, 453802, Note_on_c, 0, 76, 83
1, 453805, Note_off_c, 0, 72, 58
1, 453824, Note_off_c, 0, 76, 72
1, 453934, Note_on_c, 0, 60, 74
1, 453955, Note_on_c, 0, 100, 85
1, 454013, Note_on_c, 0, 67, 88
1, 454022, Note_off_c, 0, 60, 61
1, 454092, Control_c, 0, 64, 96
1, 454096, Note_on_c, 0, 76, 100
1, 454107, Control_c, 0, 64, 72
1, 454115, Note_on_c, 0, 96, 95
1, 454121, Note_on_c, 0, 98, 47
1, 454122, Control_c, 0, 64, 22
1, 454137, Control_c, 0, 64, 0
1, 454143, Note_off_c, 0, 100, 60
1, 454152, Control_c, 0, 64, 46
1, 454152, Note_off_c, 0, 98, 51
1, 454167, Control_c, 0, 64, 67
1, 454182, Control_c, 0, 64, 83
1, 454196, Control_c, 0, 64, 127
1, 454223, Note_on_c, 0, 91, 94
1, 454253, Note_off_c, 0, 76, 53
1, 454276, Note_off_c, 0, 96, 65
1, 454299, Note_off_c, 0, 91, 66
1, 454300, Note_on_c, 0, 88, 87
1, 454331, Note_off_c, 0, 88, 65
1, 454383, Note_on_c, 0, 84, 90
1, 454456, Note_off_c, 0, 67, 68
1, 454464, Note_on_c, 0, 79, 86
1, 454504, Note_off_c, 0, 84, 63
1, 454537, Note_off_c, 0, 79, 63
1, 454542, Note_on_c, 0, 76, 83
1, 454575, Note_off_c, 0, 76, 64
1, 454640, Note_on_c, 0, 71, 78
1, 454644, Note_on_c, 0, 72, 79
1, 454730, Note_on_c, 0, 67, 88
1, 454736, Note_off_c, 0, 72, 62
1, 454751, Note_off_c, 0, 71, 64
1, 454787, Note_off_c, 0, 67, 64
1, 454823, Note_on_c, 0, 64, 78
1, 454882, Note_off_c, 0, 64, 61
1, 454935, Note_on_c, 0, 60, 95
1, 455044, Note_on_c, 0, 55, 90
1, 455109, Note_off_c, 0, 55, 63
1, 455125, Note_off_c, 0, 60, 66
1, 455179, Note_on_c, 0, 48, 95
1, 455220, Note_off_c, 0, 48, 63
1, 455418, Control_c, 0, 64, 123
1, 455433, Control_c, 0, 64, 80
1, 455448, Control_c, 0, 64, 0
1, 455471, Note_on_c, 0, 29, 77
1, 455475, Note_on_c, 0, 41, 81
1, 455480, Note_on_c, 0, 68, 97
1, 455481, Note_on_c, 0, 80, 93
1, 455499, Note_off_c, 0, 29, 63
1, 455520, Note_off_c, 0, 41, 64
1, 455536, Control_c, 0, 64, 26
1, 455551, Control_c, 0, 64, 64
1, 455574, Control_c, 0, 64, 77
1, 455589, Control_c, 0, 64, 103
1, 455604, Control_c, 0, 64, 127
1, 455729, Note_on_c, 0, 48, 70
1, 455845, Note_on_c, 0, 56, 75
1, 455872, Note_off_c, 0, 48, 60
1, 455948, Note_on_c, 0, 48, 76
1, 455968, Note_off_c, 0, 56, 62
1, 456016, Note_off_c, 0, 80, 61
1, 456021, Note_off_c, 0, 68, 61
1, 456039, Note_on_c, 0, 56, 74
1, 456051, Note_off_c, 0, 48, 61
1, 456088, Note_off_c, 0, 56, 64
1, 456128, Note_on_c, 0, 48, 70
1, 456174, Note_off_c, 0, 48, 62
1, 456224, Note_on_c, 0, 41, 83
1, 456236, Note_on_c, 0, 79, 89
1, 456237, Note_on_c, 0, 67, 98
1, 456241, Control_c, 0, 64, 118
1, 456256, Control_c, 0, 64, 89
1, 456271, Control_c, 0, 64, 69
1, 456285, Control_c, 0, 64, 47
1, 456300, Control_c, 0, 64, 48
1, 456322, Control_c, 0, 64, 64
1, 456337, Control_c, 0, 64, 75
1, 456352, Control_c, 0, 64, 99
1, 456367, Control_c, 0, 64, 127
1, 456432, Note_off_c, 0, 67, 62
1, 456441, Note_off_c, 0, 41, 61
1, 456462, Note_off_c, 0, 79, 59
1, 456463, Note_on_c, 0, 49, 64
1, 456528, Note_on_c, 0, 66, 86
1, 456530, Note_on_c, 0, 78, 85
1, 456550, Note_on_c, 0, 56, 67
1, 456550, Note_off_c, 0, 49, 61
1, 456588, Note_off_c, 0, 66, 65
1, 456593, Note_off_c, 0, 78, 66
1, 456611, Note_off_c, 0, 56, 59
1, 456638, Note_on_c, 0, 49, 58
1, 456655, Note_on_c, 0, 77, 84
1, 456656, Note_on_c, 0, 65, 88
1, 456686, Note_off_c, 0, 49, 57
1, 456698, Note_off_c, 0, 65, 59
1, 456699, Note_off_c, 0, 77, 63
1, 456706, Note_on_c, 0, 56, 55
1, 456759, Note_off_c, 0, 56, 58
1, 456778, Note_on_c, 0, 49, 60
1, 456783, Note_on_c, 0, 76, 90
1, 456783, Note_on_c, 0, 64, 86
1, 456814, Note_off_c, 0, 64, 64
1, 456829, Note_on_c, 0, 65, 33
1, 456853, Note_off_c, 0, 65, 59
1, 456934, Note_on_c, 0, 43, 72
1, 456945, Note_off_c, 0, 49, 57
1, 456951, Note_on_c, 0, 63, 86
1, 456953, Note_on_c, 0, 75, 84
1, 456961, Control_c, 0, 64, 100
1, 456976, Control_c, 0, 64, 75
1, 456982, Note_off_c, 0, 76, 62
1, 456990, Control_c, 0, 64, 60
1, 457005, Control_c, 0, 64, 57
1, 457019, Note_off_c, 0, 63, 65
1, 457020, Control_c, 0, 64, 66
1, 457033, Note_off_c, 0, 75, 62
1, 457034, Control_c, 0, 64, 75
1, 457049, Control_c, 0, 64, 90
1, 457072, Control_c, 0, 64, 118
1, 457087, Note_off_c, 0, 43, 63
1, 457087, Control_c, 0, 64, 127
1, 457103, Note_on_c, 0, 49, 63
1, 457103, Note_on_c, 0, 62, 84
1, 457103, Note_on_c, 0, 74, 81
1, 457136, Note_off_c, 0, 62, 62
1, 457139, Note_off_c, 0, 74, 58
1, 457171, Note_off_c, 0, 49, 61
1, 457213, Note_on_c, 0, 73, 92
1, 457216, Note_on_c, 0, 61, 95
1, 457225, Note_on_c, 0, 58, 62
1, 457240, Note_off_c, 0, 61, 66
1, 457257, Note_off_c, 0, 73, 60
1, 457283, Note_off_c, 0, 58, 51
1, 457289, Note_on_c, 0, 73, 90
1, 457291, Note_on_c, 0, 61, 93
1, 457294, Note_on_c, 0, 49, 69
1, 457295, Control_c, 0, 64, 99
1, 457310, Control_c, 0, 64, 78
1, 457325, Control_c, 0, 64, 64
1, 457339, Control_c, 0, 64, 59
1, 457354, Control_c, 0, 64, 67
1, 457366, Note_off_c, 0, 49, 61
1, 457369, Control_c, 0, 64, 76
1, 457376, Note_on_c, 0, 58, 64
1, 457383, Control_c, 0, 64, 89
1, 457398, Control_c, 0, 64, 107
1, 457405, Note_off_c, 0, 58, 68
1, 457412, Control_c, 0, 64, 127
1, 457445, Note_on_c, 0, 49, 66
1, 457473, Note_off_c, 0, 49, 65
1, 457516, Control_c, 0, 64, 113
1, 457530, Control_c, 0, 64, 85
1, 457538, Note_on_c, 0, 36, 69
1, 457545, Control_c, 0, 64, 59
1, 457551, Note_on_c, 0, 64, 78
1, 457551, Note_on_c, 0, 70, 76
1, 457560, Note_off_c, 0, 36, 59
1, 457560, Control_c, 0, 64, 0
1, 457575, Control_c, 0, 64, 46
1, 457590, Control_c, 0, 64, 64
1, 457604, Control_c, 0, 64, 76
1, 457619, Control_c, 0, 64, 99
1, 457627, Note_off_c, 0, 73, 62
1, 457634, Control_c, 0, 64, 127
1, 457657, Note_on_c, 0, 48, 68
1, 457673, Note_off_c, 0, 61, 61
1, 457710, Note_off_c, 0, 48, 57
1, 457756, Note_on_c, 0, 58, 63
1, 457803, Note_off_c, 0, 70, 56
1, 457829, Note_off_c, 0, 58, 62
1, 457830, Note_on_c, 0, 48, 67
1, 457840, Note_on_c, 0, 72, 86
1, 457842, Note_on_c, 0, 60, 89
1, 457861, Note_off_c, 0, 64, 64
1, 457890, Note_off_c, 0, 48, 58
1, 457930, Note_on_c, 0, 58, 60
1, 457976, Note_off_c, 0, 58, 62
1, 457998, Note_on_c, 0, 48, 44
1, 458015, Note_off_c, 0, 48, 63
1, 458181, Note_on_c, 0, 41, 59
1, 458191, Control_c, 0, 64, 110
1, 458206, Control_c, 0, 64, 83
1, 458221, Control_c, 0, 64, 66
1, 458222, Note_on_c, 0, 68, 70
1, 458229, Note_on_c, 0, 65, 70
1, 458235, Control_c, 0, 64, 54
1, 458250, Control_c, 0, 64, 58
1, 458251, Note_off_c, 0, 72, 57
1, 458253, Note_off_c, 0, 41, 64
1, 458265, Control_c, 0, 64, 65
1, 458265, Note_off_c, 0, 60, 64
1, 458279, Control_c, 0, 64, 74
1, 458294, Control_c, 0, 64, 90
1, 458309, Control_c, 0, 64, 127
1, 458318, Note_off_c, 0, 65, 62
1, 458332, Note_off_c, 0, 68, 69
1, 458566, Note_on_c, 0, 68, 51
1, 458572, Note_on_c, 0, 84, 69
1, 458584, Note_on_c, 0, 80, 60
1, 458640, Note_off_c, 0, 68, 58
1, 458688, Note_on_c, 0, 65, 40
1, 458730, Note_off_c, 0, 65, 59
1, 458754, Note_off_c, 0, 84, 63
1, 458754, Note_on_c, 0, 92, 62
1, 458755, Note_off_c, 0, 80, 61
1, 458769, Note_on_c, 0, 89, 42
1, 458772, Note_on_c, 0, 60, 44
1, 458787, Note_off_c, 0, 92, 65
1, 458796, Note_off_c, 0, 89, 53
1, 458906, Note_off_c, 0, 60, 25
1, 458909, Control_c, 0, 64, 110
1, 458924, Control_c, 0, 64, 90
1, 458938, Note_on_c, 0, 85, 57
1, 458939, Control_c, 0, 64, 74
1, 458940, Note_on_c, 0, 89, 55
1, 458942, Note_on_c, 0, 53, 44
1, 458954, Control_c, 0, 64, 63
1, 458969, Control_c, 0, 64, 59
1, 458984, Control_c, 0, 64, 63
1, 458999, Control_c, 0, 64, 68
1, 459014, Control_c, 0, 64, 75
1, 459022, Note_off_c, 0, 53, 53
1, 459029, Control_c, 0, 64, 85
1, 459043, Control_c, 0, 64, 94
1, 459055, Note_off_c, 0, 89, 56
1, 459058, Control_c, 0, 64, 99
1, 459073, Control_c, 0, 64, 99
1, 459088, Note_on_c, 0, 77, 47
1, 459088, Note_on_c, 0, 61, 53
1, 459089, Note_off_c, 0, 85, 64
1, 459098, Note_on_c, 0, 80, 39
1, 459112, Note_off_c, 0, 77, 57
1, 459122, Note_off_c, 0, 61, 60
1, 459128, Note_off_c, 0, 80, 53
1, 459151, Note_on_c, 0, 65, 50
1, 459192, Note_on_c, 0, 77, 68
1, 459196, Note_off_c, 0, 65, 62
1, 459205, Note_on_c, 0, 73, 64
1, 459207, Note_on_c, 0, 68, 59
1, 459247, Note_off_c, 0, 68, 61
1, 459309, Note_on_c, 0, 65, 37
1, 459324, Note_on_c, 0, 80, 60
1, 459330, Note_on_c, 0, 85, 72
1, 459333, Note_off_c, 0, 77, 56
1, 459338, Note_off_c, 0, 65, 54
1, 459346, Note_off_c, 0, 80, 62
1, 459351, Note_on_c, 0, 61, 56
1, 459355, Note_off_c, 0, 85, 69
1, 459368, Note_off_c, 0, 73, 41
1, 459391, Control_c, 0, 64, 97
1, 459406, Control_c, 0, 64, 89
1, 459416, Note_off_c, 0, 61, 57
1, 459421, Control_c, 0, 64, 77
1, 459435, Control_c, 0, 64, 63
1, 459441, Note_on_c, 0, 82, 73
1, 459448, Note_on_c, 0, 79, 66
1, 459450, Control_c, 0, 64, 33
1, 459455, Note_on_c, 0, 55, 38
1, 459465, Control_c, 0, 64, 35
1, 459480, Control_c, 0, 64, 53
1, 459495, Control_c, 0, 64, 63
1, 459509, Control_c, 0, 64, 70
1, 459514, Note_off_c, 0, 55, 58
1, 459524, Control_c, 0, 64, 80
1, 459539, Control_c, 0, 64, 92
1, 459542, Note_on_c, 0, 61, 57
1, 459554, Control_c, 0, 64, 99
1, 459562, Note_on_c, 0, 70, 66
1, 459562, Note_on_c, 0, 77, 69
1, 459569, Control_c, 0, 64, 101
1, 459583, Note_off_c, 0, 82, 56
1, 459583, Control_c, 0, 64, 101
1, 459589, Note_off_c, 0, 70, 65
1, 459604, Note_on_c, 0, 65, 58
1, 459605, Note_off_c, 0, 61, 59
1, 459605, Note_off_c, 0, 79, 52
1, 459623, Note_off_c, 0, 77, 60
1, 459641, Note_off_c, 0, 65, 64
1, 459645, Control_c, 0, 64, 102
1, 459666, Note_on_c, 0, 67, 56
1, 459676, Note_on_c, 0, 77, 74
1, 459678, Note_on_c, 0, 71, 77
1, 459742, Note_off_c, 0, 67, 59
1, 459783, Note_on_c, 0, 61, 55
1, 459801, Note_on_c, 0, 83, 77
1, 459801, Poly_aftertouch_c, 0, 65, 127
1, 459801, Note_on_c, 0, 79, 70
1, 459802, Note_off_c, 0, 61, 61
1, 459804, Note_off_c, 0, 71, 59
1, 459807, Control_c, 0, 64, 102
1, 459827, Note_off_c, 0, 77, 62
1, 459836, Poly_aftertouch_c, 0, 65, 0
1, 459851, Control_c, 0, 64, 103
1, 459854, Note_off_c, 0, 83, 63
1, 459860, Note_off_c, 0, 79, 60
1, 459866, Control_c, 0, 64, 102
1, 459881, Control_c, 0, 64, 101
1, 459896, Control_c, 0, 64, 91
1, 459902, Note_on_c, 0, 48, 58
1, 459911, Control_c, 0, 64, 74
1, 459918, Note_on_c, 0, 84, 83
1, 459924, Note_on_c, 0, 79, 79
1, 459926, Control_c, 0, 64, 59
1, 459941, Control_c, 0, 64, 14
1, 459956, Control_c, 0, 64, 27
1, 459971, Control_c, 0, 64, 52
1, 459985, Control_c, 0, 64, 64
1, 460000, Note_off_c, 0, 48, 60
1, 460000, Control_c, 0, 64, 73
1, 460015, Control_c, 0, 64, 90
1, 460030, Control_c, 0, 64, 111
1, 460031, Note_off_c, 0, 84, 56
1, 460033, Note_on_c, 0, 55, 58
1, 460039, Note_on_c, 0, 76, 74
1, 460041, Note_on_c, 0, 72, 72
1, 460045, Control_c, 0, 64, 127
1, 460063, Note_off_c, 0, 79, 62
1, 460072, Note_off_c, 0, 76, 66
1, 460093, Note_off_c, 0, 72, 60
1, 460105, Note_on_c, 0, 60, 63
1, 460129, Note_off_c, 0, 55, 60
1, 460180, Note_off_c, 0, 60, 63
1, 460192, Note_on_c, 0, 67, 90
1, 460194, Note_on_c, 0, 72, 85
1, 460196, Note_on_c, 0, 64, 70
1, 460297, Note_off_c, 0, 67, 60
1, 460301, Note_on_c, 0, 60, 66
1, 460310, Note_off_c, 0, 64, 61
1, 460321, Note_on_c, 0, 76, 86
1, 460325, Note_on_c, 0, 79, 81
1, 460330, Note_off_c, 0, 72, 64
1, 460358, Note_off_c, 0, 76, 60
1, 460366, Note_off_c, 0, 79, 59
1, 460404, Note_off_c, 0, 60, 64
1, 460414, Note_on_c, 0, 55, 62
1, 460441, Note_off_c, 0, 55, 63
1, 460660, Control_c, 0, 64, 89
1, 460668, Note_on_c, 0, 44, 98
1, 460669, Note_on_c, 0, 96, 88
1, 460671, Note_on_c, 0, 84, 87
1, 460674, Note_on_c, 0, 87, 81
1, 460675, Control_c, 0, 64, 36
1, 460675, Note_on_c, 0, 32, 79
1, 460689, Control_c, 0, 64, 0
1, 460699, Note_off_c, 0, 32, 65
1, 460708, Note_off_c, 0, 44, 62
1, 460734, Control_c, 0, 64, 56
1, 460749, Control_c, 0, 64, 74
1, 460763, Control_c, 0, 64, 107
1, 460778, Control_c, 0, 64, 127
1, 460936, Note_on_c, 0, 51, 77
1, 461069, Note_on_c, 0, 56, 79
1, 461115, Note_off_c, 0, 51, 60
1, 461139, Note_off_c, 0, 56, 63
1, 461139, Note_off_c, 0, 84, 58
1, 461154, Note_off_c, 0, 96, 37
1, 461165, Note_on_c, 0, 60, 75
1, 461215, Note_off_c, 0, 87, 60
1, 461217, Note_off_c, 0, 60, 63
1, 461249, Note_on_c, 0, 63, 80
1, 461330, Note_on_c, 0, 68, 88
1, 461365, Note_off_c, 0, 63, 62
1, 461452, Note_on_c, 0, 72, 84
1, 461482, Note_off_c, 0, 68, 64
1, 461484, Note_on_c, 0, 87, 93
1, 461485, Note_on_c, 0, 95, 95
1, 461486, Note_on_c, 0, 83, 92
1, 461610, Note_off_c, 0, 83, 60
1, 461623, Note_off_c, 0, 95, 63
1, 461643, Note_on_c, 0, 68, 60
1, 461656, Note_off_c, 0, 72, 56
1, 461723, Note_on_c, 0, 82, 95
1, 461723, Note_on_c, 0, 94, 94
1, 461747, Note_off_c, 0, 68, 65
1, 461750, Note_on_c, 0, 63, 56
1, 461776, Note_off_c, 0, 82, 63
1, 461777, Note_off_c, 0, 87, 25
1, 461784, Note_off_c, 0, 94, 66
1, 461794, Note_off_c, 0, 63, 63
1, 461861, Note_on_c, 0, 60, 60
1, 461865, Note_on_c, 0, 93, 93
1, 461869, Note_on_c, 0, 81, 92
1, 461889, Note_off_c, 0, 81, 72
1, 461905, Note_off_c, 0, 93, 63
1, 461959, Note_off_c, 0, 60, 57
1, 461965, Note_on_c, 0, 56, 68
1, 461978, Note_on_c, 0, 80, 88
1, 461983, Note_on_c, 0, 92, 86
1, 462000, Note_off_c, 0, 80, 69
1, 462009, Note_off_c, 0, 92, 61
1, 462056, Note_off_c, 0, 56, 62
1, 462060, Note_on_c, 0, 51, 65
1, 462078, Note_on_c, 0, 91, 86
1, 462084, Note_on_c, 0, 79, 77
1, 462087, Note_off_c, 0, 51, 65
1, 462099, Note_off_c, 0, 91, 67
1, 462107, Note_off_c, 0, 79, 69
1, 462127, Control_c, 0, 64, 83
1, 462142, Control_c, 0, 64, 59
1, 462152, Note_on_c, 0, 46, 74
1, 462157, Control_c, 0, 64, 0
1, 462161, Note_on_c, 0, 78, 95
1, 462165, Note_on_c, 0, 90, 87
1, 462172, Control_c, 0, 64, 51
1, 462187, Control_c, 0, 64, 68
1, 462196, Note_off_c, 0, 90, 65
1, 462200, Note_off_c, 0, 78, 63
1, 462201, Control_c, 0, 64, 87
1, 462216, Control_c, 0, 64, 127
1, 462254, Note_off_c, 0, 46, 63
1, 462255, Note_on_c, 0, 51, 68
1, 462257, Note_on_c, 0, 77, 79
1, 462259, Note_on_c, 0, 89, 76
1, 462275, Note_off_c, 0, 89, 68
1, 462279, Note_off_c, 0, 77, 69
1, 462331, Note_on_c, 0, 55, 64
1, 462334, Note_off_c, 0, 51, 63
1, 462338, Note_on_c, 0, 88, 88
1, 462342, Note_on_c, 0, 76, 86
1, 462349, Note_on_c, 0, 77, 72
1, 462360, Note_off_c, 0, 88, 68
1, 462363, Note_off_c, 0, 76, 71
1, 462370, Note_off_c, 0, 77, 66
1, 462407, Note_off_c, 0, 55, 61
1, 462419, Note_on_c, 0, 61, 72
1, 462422, Note_on_c, 0, 87, 86
1, 462426, Note_on_c, 0, 75, 102
1, 462494, Note_off_c, 0, 61, 63
1, 462508, Note_on_c, 0, 55, 64
1, 462577, Note_off_c, 0, 55, 63
1, 462581, Note_on_c, 0, 51, 79
1, 462605, Note_off_c, 0, 51, 66
1, 462678, Note_on_c, 0, 39, 82
1, 462683, Control_c, 0, 64, 89
1, 462698, Control_c, 0, 64, 66
1, 462699, Note_on_c, 0, 79, 87
1, 462704, Note_off_c, 0, 39, 64
1, 462713, Control_c, 0, 64, 49
1, 462727, Control_c, 0, 64, 62
1, 462742, Control_c, 0, 64, 73
1, 462757, Control_c, 0, 64, 95
1, 462772, Control_c, 0, 64, 127
1, 462788, Note_off_c, 0, 87, 61
1, 462793, Note_on_c, 0, 51, 70
1, 462866, Note_on_c, 0, 82, 12
1, 462872, Note_on_c, 0, 55, 69
1, 462874, Note_off_c, 0, 75, 54
1, 462896, Note_off_c, 0, 51, 56
1, 462945, Note_off_c, 0, 82, 44
1, 462956, Note_on_c, 0, 63, 72
1, 462959, Note_off_c, 0, 55, 60
1, 462963, Note_on_c, 0, 73, 100
1, 462965, Note_on_c, 0, 85, 99
1, 463067, Note_off_c, 0, 63, 62
1, 463082, Note_on_c, 0, 55, 66
1, 463130, Note_off_c, 0, 85, 63
1, 463142, Note_off_c, 0, 73, 61
1, 463159, Note_off_c, 0, 55, 62
1, 463161, Note_on_c, 0, 51, 70
1, 463184, Note_off_c, 0, 51, 66
1, 463334, Note_on_c, 0, 44, 82
1, 463334, Note_off_c, 0, 79, 58
1, 463352, Note_on_c, 0, 80, 87
1, 463352, Note_on_c, 0, 84, 83
1, 463353, Note_on_c, 0, 72, 92
1, 463357, Control_c, 0, 64, 99
1, 463373, Control_c, 0, 64, 70
1, 463388, Control_c, 0, 64, 0
1, 463447, Control_c, 0, 64, 18
1, 463462, Control_c, 0, 64, 57
1, 463476, Control_c, 0, 64, 70
1, 463491, Control_c, 0, 64, 88
1, 463501, Note_off_c, 0, 44, 62
1, 463506, Control_c, 0, 64, 127
1, 463601, Note_off_c, 0, 72, 61
1, 463621, Note_off_c, 0, 84, 57
1, 463646, Note_on_c, 0, 60, 58
1, 463661, Note_on_c, 0, 72, 81
1, 463664, Note_on_c, 0, 75, 86
1, 463664, Note_off_c, 0, 80, 48
1, 463807, Note_off_c, 0, 60, 58
1, 463814, Note_on_c, 0, 56, 60
1, 463820, Note_on_c, 0, 80, 77
1, 463826, Note_on_c, 0, 84, 78
1, 463828, Note_off_c, 0, 75, 65
1, 463841, Note_off_c, 0, 56, 66
1, 463846, Note_on_c, 0, 51, 48
1, 463847, Note_off_c, 0, 80, 61
1, 463852, Note_off_c, 0, 84, 64
1, 463874, Note_off_c, 0, 51, 55
1, 464008, Note_on_c, 0, 41, 58
1, 464018, Note_off_c, 0, 72, 62
1, 464026, Note_on_c, 0, 80, 73
1, 464033, Control_c, 0, 64, 101
1, 464034, Note_on_c, 0, 77, 68
1, 464048, Control_c, 0, 64, 78
1, 464063, Control_c, 0, 64, 65
1, 464078, Control_c, 0, 64, 62
1, 464078, Note_off_c, 0, 41, 63
1, 464093, Control_c, 0, 64, 69
1, 464107, Control_c, 0, 64, 83
1, 464122, Control_c, 0, 64, 110
1, 464137, Control_c, 0, 64, 127
1, 464179, Note_off_c, 0, 80, 62
1, 464193, Note_on_c, 0, 73, 70
1, 464196, Note_on_c, 0, 68, 63
1, 464203, Note_on_c, 0, 49, 62
1, 464203, Note_off_c, 0, 77, 62
1, 464229, Note_off_c, 0, 73, 59
1, 464230, Note_off_c, 0, 68, 64
1, 464274, Note_off_c, 0, 49, 62
1, 464275, Note_on_c, 0, 56, 61
1, 464320, Note_on_c, 0, 65, 77
1, 464323, Note_off_c, 0, 56, 59
1, 464332, Note_on_c, 0, 68, 73
1, 464342, Note_on_c, 0, 61, 55
1, 464387, Note_off_c, 0, 61, 62
1, 464417, Note_on_c, 0, 56, 52
1, 464430, Note_on_c, 0, 73, 75
1, 464439, Note_off_c, 0, 56, 62
1, 464442, Note_off_c, 0, 68, 60
1, 464453, Note_on_c, 0, 77, 48
1, 464454, Note_on_c, 0, 49, 60
1, 464469, Note_off_c, 0, 65, 62
1, 464478, Note_off_c, 0, 77, 58
1, 464481, Note_off_c, 0, 73, 60
1, 464486, Note_off_c, 0, 49, 62
1, 464522, Control_c, 0, 64, 91
1, 464537, Control_c, 0, 64, 70
1, 464560, Control_c, 0, 64, 41
1, 464564, Note_on_c, 0, 75, 74
1, 464565, Note_on_c, 0, 43, 63
1, 464575, Control_c, 0, 64, 17
1, 464590, Control_c, 0, 64, 54
1, 464601, Note_on_c, 0, 72, 50
1, 464604, Control_c, 0, 64, 67
1, 464617, Note_off_c, 0, 43, 61
1, 464619, Control_c, 0, 64, 79
1, 464634, Control_c, 0, 64, 99
1, 464648, Control_c, 0, 64, 127
1, 464670, Note_on_c, 0, 49, 61
1, 464686, Note_on_c, 0, 70, 65
1, 464688, Note_on_c, 0, 63, 64
1, 464707, Note_off_c, 0, 72, 61
1, 464718, Note_off_c, 0, 70, 63
1, 464719, Note_off_c, 0, 63, 66
1, 464719, Note_off_c, 0, 75, 55
1, 464730, Note_off_c, 0, 49, 61
1, 464744, Note_on_c, 0, 51, 51
1, 464782, Control_c, 0, 64, 102
1, 464783, Note_off_c, 0, 51, 60
1, 464797, Control_c, 0, 64, 79
1, 464803, Note_on_c, 0, 64, 62
1, 464807, Note_on_c, 0, 70, 69
1, 464812, Control_c, 0, 64, 67
1, 464815, Note_on_c, 0, 61, 44
1, 464826, Control_c, 0, 64, 68
1, 464841, Note_off_c, 0, 61, 58
1, 464841, Control_c, 0, 64, 78
1, 464856, Control_c, 0, 64, 92
1, 464871, Control_c, 0, 64, 121
1, 464880, Note_on_c, 0, 51, 59
1, 464886, Control_c, 0, 64, 127
1, 464889, Note_off_c, 0, 64, 54
1, 464927, Note_off_c, 0, 51, 60
1, 464929, Note_on_c, 0, 73, 59
1, 464933, Note_on_c, 0, 76, 69
1, 464940, Note_on_c, 0, 46, 50
1, 464945, Note_off_c, 0, 70, 32
1, 464960, Note_off_c, 0, 73, 64
1, 464965, Note_off_c, 0, 76, 63
1, 464968, Note_off_c, 0, 46, 55
1, 465004, Control_c, 0, 64, 108
1, 465019, Control_c, 0, 64, 80
1, 465034, Control_c, 0, 64, 55
1, 465041, Note_on_c, 0, 39, 53
1, 465048, Control_c, 0, 64, 0
1, 465059, Note_on_c, 0, 77, 65
1, 465064, Note_on_c, 0, 73, 60
1, 465078, Control_c, 0, 64, 52
1, 465080, Note_off_c, 0, 39, 61
1, 465093, Control_c, 0, 64, 66
1, 465108, Control_c, 0, 64, 76
1, 465122, Control_c, 0, 64, 89
1, 465137, Control_c, 0, 64, 101
1, 465141, Note_on_c, 0, 46, 45
1, 465147, Note_off_c, 0, 77, 58
1, 465152, Control_c, 0, 64, 110
1, 465167, Control_c, 0, 64, 116
1, 465170, Note_on_c, 0, 70, 60
1, 465178, Note_on_c, 0, 65, 58
1, 465181, Control_c, 0, 64, 127
1, 465187, Note_off_c, 0, 73, 63
1, 465193, Note_off_c, 0, 46, 59
1, 465199, Note_off_c, 0, 70, 64
1, 465200, Note_off_c, 0, 65, 62
1, 465220, Note_on_c, 0, 51, 54
1, 465260, Note_off_c, 0, 51, 62
1, 465271, Control_c, 0, 64, 108
1, 465284, Note_on_c, 0, 55, 52
1, 465286, Control_c, 0, 64, 85
1, 465309, Control_c, 0, 64, 67
1, 465319, Note_on_c, 0, 63, 59
1, 465324, Control_c, 0, 64, 49
1, 465325, Note_on_c, 0, 61, 49
1, 465339, Control_c, 0, 64, 53
1, 465351, Note_off_c, 0, 55, 51
1, 465353, Control_c, 0, 64, 64
1, 465368, Control_c, 0, 64, 71
1, 465377, Note_on_c, 0, 51, 39
1, 465383, Control_c, 0, 64, 81
1, 465384, Note_off_c, 0, 61, 54
1, 465398, Control_c, 0, 64, 92
1, 465413, Note_off_c, 0, 51, 63
1, 465413, Control_c, 0, 64, 99
1, 465427, Control_c, 0, 64, 102
1, 465428, Note_on_c, 0, 46, 49
1, 465442, Control_c, 0, 64, 103
1, 465445, Note_on_c, 0, 67, 52
1, 465451, Note_off_c, 0, 63, 33
1, 465457, Control_c, 0, 64, 104
1, 465458, Note_off_c, 0, 46, 55
1, 465467, Note_on_c, 0, 71, 52
1, 465471, Control_c, 0, 64, 105
1, 465474, Note_off_c, 0, 67, 62
1, 465486, Control_c, 0, 64, 107
1, 465500, Note_off_c, 0, 71, 64
1, 465501, Control_c, 0, 64, 109
1, 465516, Control_c, 0, 64, 113
1, 465531, Control_c, 0, 64, 116
1, 465545, Control_c, 0, 64, 117
1, 465560, Control_c, 0, 64, 116
1, 465575, Control_c, 0, 64, 109
1, 465590, Control_c, 0, 64, 95
1, 465605, Control_c, 0, 64, 79
1, 465618, Note_on_c, 0, 32, 46
1, 465619, Control_c, 0, 64, 62
1, 465621, Note_on_c, 0, 68, 44
1, 465630, Note_on_c, 0, 44, 37
1, 465631, Note_on_c, 0, 72, 56
1, 465634, Control_c, 0, 64, 37
1, 465649, Control_c, 0, 64, 44
1, 465655, Note_off_c, 0, 32, 61
1, 465664, Control_c, 0, 64, 60
1, 465669, Note_off_c, 0, 44, 60
1, 465678, Control_c, 0, 64, 67
1, 465693, Control_c, 0, 64, 74
1, 465708, Control_c, 0, 64, 84
1, 465721, Note_off_c, 0, 72, 37
1, 465723, Control_c, 0, 64, 92
1, 465738, Control_c, 0, 64, 96
1, 465752, Control_c, 0, 64, 98
1, 465767, Control_c, 0, 64, 102
1, 465782, Control_c, 0, 64, 109
1, 465784, Note_off_c, 0, 68, 34
1, 465794, Note_on_c, 0, 63, 49
1, 465796, Note_on_c, 0, 60, 50
1, 465796, Control_c, 0, 64, 119
1, 465811, Control_c, 0, 64, 127
1, 465821, Note_off_c, 0, 60, 61
1, 465826, Note_off_c, 0, 63, 56
1, 465856, Control_c, 0, 64, 109
1, 465870, Control_c, 0, 64, 92
1, 465885, Note_on_c, 0, 51, 57
1, 465885, Control_c, 0, 64, 76
1, 465891, Note_on_c, 0, 56, 48
1, 465900, Control_c, 0, 64, 63
1, 465908, Note_on_c, 0, 60, 44
1, 465911, Note_on_c, 0, 63, 57
1, 465911, Note_off_c, 0, 51, 61
1, 465915, Control_c, 0, 64, 62
1, 465918, Note_off_c, 0, 56, 56
1, 465930, Control_c, 0, 64, 68
1, 465944, Control_c, 0, 64, 76
1, 465945, Note_off_c, 0, 60, 60
1, 465947, Note_off_c, 0, 63, 65
1, 465959, Control_c, 0, 64, 91
1, 465974, Control_c, 0, 64, 110
1, 465989, Control_c, 0, 64, 127
1, 466018, Note_on_c, 0, 68, 53
1, 466022, Note_on_c, 0, 72, 57
1, 466049, Note_off_c, 0, 72, 62
1, 466057, Control_c, 0, 64, 113
1, 466061, Note_off_c, 0, 68, 65
1, 466072, Control_c, 0, 64, 91
1, 466087, Control_c, 0, 64, 73
1, 466101, Control_c, 0, 64, 48
1, 466116, Control_c, 0, 64, 0
1, 466124, Note_on_c, 0, 31, 49
1, 466131, Control_c, 0, 64, 28
1, 466135, Note_on_c, 0, 43, 52
1, 466142, Note_on_c, 0, 73, 63
1, 466146, Control_c, 0, 64, 58
1, 466148, Note_on_c, 0, 69, 59
1, 466160, Note_off_c, 0, 31, 51
1, 466161, Control_c, 0, 64, 69
1, 466165, Note_off_c, 0, 43, 53
1, 466175, Control_c, 0, 64, 81
1, 466190, Control_c, 0, 64, 104
1, 466205, Control_c, 0, 64, 127
1, 466208, Note_off_c, 0, 73, 51
1, 466226, Note_off_c, 0, 69, 62
1, 466263, Note_on_c, 0, 61, 55
1, 466263, Note_on_c, 0, 64, 55
1, 466288, Note_off_c, 0, 61, 62
1, 466301, Note_off_c, 0, 64, 64
1, 466308, Control_c, 0, 64, 114
1, 466323, Control_c, 0, 64, 90
1, 466338, Control_c, 0, 64, 71
1, 466353, Control_c, 0, 64, 50
1, 466365, Note_on_c, 0, 52, 54
1, 466366, Note_on_c, 0, 57, 55
1, 466369, Control_c, 0, 64, 0
1, 466371, Note_on_c, 0, 61, 60
1, 466380, Note_on_c, 0, 64, 62
1, 466383, Control_c, 0, 64, 34
1, 466391, Note_off_c, 0, 57, 58
1, 466397, Note_off_c, 0, 52, 64
1, 466398, Control_c, 0, 64, 60
1, 466409, Note_off_c, 0, 61, 59
1, 466413, Control_c, 0, 64, 70
1, 466420, Note_off_c, 0, 64, 59
1, 466427, Control_c, 0, 64, 83
1, 466442, Control_c, 0, 64, 101
1, 466457, Control_c, 0, 64, 125
1, 466472, Control_c, 0, 64, 127
1, 466482, Note_on_c, 0, 69, 61
1, 466491, Note_on_c, 0, 73, 67
1, 466514, Note_off_c, 0, 69, 66
1, 466527, Note_off_c, 0, 73, 62
1, 466532, Control_c, 0, 64, 118
1, 466546, Control_c, 0, 64, 98
1, 466561, Control_c, 0, 64, 80
1, 466576, Control_c, 0, 64, 60
1, 466591, Control_c, 0, 64, 16
1, 466592, Note_on_c, 0, 30, 57
1, 466597, Note_on_c, 0, 42, 60
1, 466606, Control_c, 0, 64, 34
1, 466612, Note_on_c, 0, 70, 67
1, 466618, Note_on_c, 0, 74, 64
1, 466620, Control_c, 0, 64, 59
1, 466623, Note_off_c, 0, 30, 57
1, 466630, Note_off_c, 0, 42, 63
1, 466635, Control_c, 0, 64, 68
1, 466650, Control_c, 0, 64, 79
1, 466665, Control_c, 0, 64, 97
1, 466680, Control_c, 0, 64, 109
1, 466694, Control_c, 0, 64, 115
1, 466709, Control_c, 0, 64, 116
1, 466724, Control_c, 0, 64, 116
1, 466732, Note_on_c, 0, 64, 60
1, 466732, Note_on_c, 0, 66, 59
1, 466732, Note_off_c, 0, 74, 38
1, 466758, Note_off_c, 0, 64, 62
1, 466764, Note_off_c, 0, 66, 66
1, 466768, Control_c, 0, 64, 114
1, 466775, Note_off_c, 0, 70, 35
1, 466783, Control_c, 0, 64, 102
1, 466806, Control_c, 0, 64, 86
1, 466821, Control_c, 0, 64, 68
1, 466836, Control_c, 0, 64, 44
1, 466839, Note_on_c, 0, 49, 57
1, 466840, Note_on_c, 0, 54, 51
1, 466844, Note_on_c, 0, 64, 65
1, 466846, Note_on_c, 0, 58, 42
1, 466850, Control_c, 0, 64, 0
1, 466853, Note_on_c, 0, 66, 76
1, 466865, Control_c, 0, 64, 51
1, 466867, Note_off_c, 0, 54, 62
1, 466868, Note_off_c, 0, 49, 65
1, 466875, Note_off_c, 0, 58, 55
1, 466880, Control_c, 0, 64, 66
1, 466895, Control_c, 0, 64, 78
1, 466901, Note_off_c, 0, 64, 56
1, 466910, Control_c, 0, 64, 98
1, 466916, Note_off_c, 0, 66, 61
1, 466925, Control_c, 0, 64, 127
1, 466964, Note_on_c, 0, 70, 67
1, 466965, Note_on_c, 0, 74, 67
1, 466992, Note_off_c, 0, 74, 68
1, 466995, Note_off_c, 0, 70, 59
1, 467014, Control_c, 0, 64, 95
1, 467029, Control_c, 0, 64, 75
1, 467043, Control_c, 0, 64, 52
1, 467058, Control_c, 0, 64, 0
1, 467074, Note_on_c, 0, 35, 54
1, 467082, Note_on_c, 0, 47, 56
1, 467088, Control_c, 0, 64, 29
1, 467095, Note_on_c, 0, 75, 68
1, 467101, Note_off_c, 0, 35, 57
1, 467103, Note_on_c, 0, 71, 61
1, 467103, Control_c, 0, 64, 60
1, 467111, Note_off_c, 0, 47, 64
1, 467117, Control_c, 0, 64, 70
1, 467132, Control_c, 0, 64, 84
1, 467140, Note_off_c, 0, 71, 60
1, 467147, Control_c, 0, 64, 105
1, 467157, Note_off_c, 0, 75, 60
1, 467162, Control_c, 0, 64, 120
1, 467177, Control_c, 0, 64, 127
1, 467202, Note_on_c, 0, 66, 61
1, 467207, Note_on_c, 0, 63, 56
1, 467233, Note_off_c, 0, 63, 63
1, 467237, Note_off_c, 0, 66, 61
1, 467265, Control_c, 0, 64, 115
1, 467280, Control_c, 0, 64, 96
1, 467295, Control_c, 0, 64, 78
1, 467310, Control_c, 0, 64, 62
1, 467313, Note_on_c, 0, 63, 61
1, 467315, Note_on_c, 0, 53, 51
1, 467317, Note_on_c, 0, 47, 51
1, 467317, Note_on_c, 0, 59, 40
1, 467324, Control_c, 0, 64, 37
1, 467327, Note_on_c, 0, 65, 59
1, 467339, Control_c, 0, 64, 54
1, 467342, Note_off_c, 0, 53, 59
1, 467345, Note_off_c, 0, 63, 65
1, 467345, Note_off_c, 0, 47, 63
1, 467349, Note_off_c, 0, 59, 54
1, 467354, Control_c, 0, 64, 65
1, 467363, Note_off_c, 0, 65, 63
1, 467369, Control_c, 0, 64, 73
1, 467384, Control_c, 0, 64, 87
1, 467399, Control_c, 0, 64, 104
1, 467414, Control_c, 0, 64, 125
1, 467429, Control_c, 0, 64, 127
1, 467434, Note_on_c, 0, 69, 46
1, 467437, Note_on_c, 0, 75, 60
1, 467458, Note_off_c, 0, 69, 61
1, 467483, Note_off_c, 0, 75, 51
1, 467554, Control_c, 0, 64, 110
1, 467569, Control_c, 0, 64, 92
1, 467584, Control_c, 0, 64, 73
1, 467597, Note_on_c, 0, 34, 48
1, 467599, Control_c, 0, 64, 53
1, 467613, Note_on_c, 0, 46, 47
1, 467614, Note_on_c, 0, 70, 51
1, 467614, Control_c, 0, 64, 0
1, 467621, Note_on_c, 0, 74, 56
1, 467629, Control_c, 0, 64, 28
1, 467637, Note_off_c, 0, 34, 63
1, 467644, Control_c, 0, 64, 58
1, 467655, Note_off_c, 0, 46, 65
1, 467659, Control_c, 0, 64, 68
1, 467673, Control_c, 0, 64, 80
1, 467680, Note_off_c, 0, 74, 58
1, 467688, Control_c, 0, 64, 97
1, 467703, Control_c, 0, 64, 122
1, 467718, Control_c, 0, 64, 127
1, 467729, Note_off_c, 0, 70, 52
1, 467758, Note_on_c, 0, 65, 68
1, 467779, Note_on_c, 0, 62, 44
1, 467795, Note_off_c, 0, 65, 59
1, 467807, Note_off_c, 0, 62, 54
1, 467807, Control_c, 0, 64, 118
1, 467822, Control_c, 0, 64, 93
1, 467837, Control_c, 0, 64, 74
1, 467852, Control_c, 0, 64, 59
1, 467859, Note_on_c, 0, 53, 57
1, 467864, Note_on_c, 0, 58, 50
1, 467866, Control_c, 0, 64, 54
1, 467873, Note_on_c, 0, 65, 61
1, 467881, Control_c, 0, 64, 64
1, 467889, Note_off_c, 0, 58, 58
1, 467890, Note_off_c, 0, 53, 66
1, 467891, Note_on_c, 0, 62, 46
1, 467896, Control_c, 0, 64, 73
1, 467908, Note_off_c, 0, 65, 62
1, 467911, Control_c, 0, 64, 93
1, 467917, Note_off_c, 0, 62, 56
1, 467926, Control_c, 0, 64, 127
1, 467967, Note_on_c, 0, 70, 70
1, 467982, Note_on_c, 0, 74, 66
1, 468000, Control_c, 0, 64, 110
1, 468007, Note_off_c, 0, 74, 71
1, 468010, Note_off_c, 0, 70, 55
1, 468015, Control_c, 0, 64, 87
1, 468029, Control_c, 0, 64, 69
1, 468044, Control_c, 0, 64, 46
1, 468059, Control_c, 0, 64, 25
1, 468071, Note_on_c, 0, 45, 62
1, 468073, Note_on_c, 0, 33, 48
1, 468073, Control_c, 0, 64, 55
1, 468087, Note_on_c, 0, 75, 71
1, 468088, Control_c, 0, 64, 69
1, 468096, Note_on_c, 0, 71, 68
1, 468101, Note_off_c, 0, 45, 66
1, 468103, Control_c, 0, 64, 82
1, 468105, Note_off_c, 0, 33, 51
1, 468118, Control_c, 0, 64, 104
1, 468133, Control_c, 0, 64, 127
1, 468139, Note_off_c, 0, 71, 51
1, 468152, Note_off_c, 0, 75, 57
1, 468192, Note_on_c, 0, 66, 69
1, 468199, Note_on_c, 0, 63, 59
1, 468227, Note_off_c, 0, 63, 64
1, 468231, Note_off_c, 0, 66, 58
1, 468251, Control_c, 0, 64, 104
1, 468266, Control_c, 0, 64, 83
1, 468281, Control_c, 0, 64, 63
1, 468303, Control_c, 0, 64, 31
1, 468304, Note_on_c, 0, 54, 53
1, 468305, Note_on_c, 0, 51, 58
1, 468308, Note_on_c, 0, 63, 69
1, 468311, Note_on_c, 0, 59, 41
1, 468317, Note_on_c, 0, 66, 79
1, 468318, Control_c, 0, 64, 32
1, 468333, Note_off_c, 0, 54, 64
1, 468333, Control_c, 0, 64, 58
1, 468334, Note_off_c, 0, 51, 65
1, 468338, Note_off_c, 0, 59, 54
1, 468347, Control_c, 0, 64, 68
1, 468362, Control_c, 0, 64, 79
1, 468372, Note_off_c, 0, 63, 57
1, 468377, Control_c, 0, 64, 101
1, 468392, Control_c, 0, 64, 127
1, 468420, Note_on_c, 0, 71, 65
1, 468424, Note_on_c, 0, 75, 72
1, 468426, Note_off_c, 0, 66, 57
1, 468470, Note_off_c, 0, 75, 61
1, 468474, Note_off_c, 0, 71, 56
1, 468482, Control_c, 0, 64, 96
1, 468496, Control_c, 0, 64, 76
1, 468511, Control_c, 0, 64, 57
1, 468522, Note_on_c, 0, 32, 67
1, 468523, Note_on_c, 0, 44, 73
1, 468526, Control_c, 0, 64, 0
1, 468532, Note_on_c, 0, 76, 77
1, 468538, Note_on_c, 0, 72, 73
1, 468541, Control_c, 0, 64, 12
1, 468551, Note_off_c, 0, 44, 63
1, 468556, Note_off_c, 0, 32, 62
1, 468556, Control_c, 0, 64, 56
1, 468570, Control_c, 0, 64, 70
1, 468585, Control_c, 0, 64, 84
1, 468600, Control_c, 0, 64, 105
1, 468608, Note_off_c, 0, 76, 54
1, 468615, Control_c, 0, 64, 127
1, 468638, Note_on_c, 0, 68, 72
1, 468639, Note_on_c, 0, 66, 72
1, 468651, Note_off_c, 0, 72, 63
1, 468670, Note_off_c, 0, 66, 63
1, 468677, Note_off_c, 0, 68, 60
1, 468719, Control_c, 0, 64, 109
1, 468734, Control_c, 0, 64, 88
1, 468739, Note_on_c, 0, 56, 71
1, 468741, Note_on_c, 0, 51, 67
1, 468743, Note_on_c, 0, 60, 62
1, 468749, Control_c, 0, 64, 71
1, 468755, Note_on_c, 0, 66, 81
1, 468757, Note_on_c, 0, 68, 82
1, 468763, Control_c, 0, 64, 54
1, 468764, Note_off_c, 0, 60, 62
1, 468766, Note_off_c, 0, 56, 66
1, 468778, Control_c, 0, 64, 56
1, 468782, Note_off_c, 0, 51, 63
1, 468793, Control_c, 0, 64, 65
1, 468808, Control_c, 0, 64, 74
1, 468809, Note_off_c, 0, 66, 62
1, 468822, Control_c, 0, 64, 92
1, 468837, Control_c, 0, 64, 127
1, 468852, Note_on_c, 0, 72, 75
1, 468863, Note_on_c, 0, 76, 77
1, 468872, Note_off_c, 0, 68, 62
1, 468910, Note_off_c, 0, 76, 59
1, 468923, Note_off_c, 0, 72, 61
1, 468926, Control_c, 0, 64, 105
1, 468941, Control_c, 0, 64, 78
1, 468956, Control_c, 0, 64, 58
1, 468970, Control_c, 0, 64, 0
1, 468973, Note_on_c, 0, 49, 66
1, 468974, Note_on_c, 0, 77, 81
1, 468979, Note_on_c, 0, 73, 82
1, 468994, Note_off_c, 0, 49, 62
1, 468997, Note_on_c, 0, 37, 24
1, 468998, Note_off_c, 0, 37, 127
1, 468998, Note_on_c, 0, 39, 38
1, 469000, Control_c, 0, 64, 54
1, 469015, Control_c, 0, 64, 68
1, 469030, Note_off_c, 0, 39, 47
1, 469030, Control_c, 0, 64, 80
1, 469052, Control_c, 0, 64, 105
1, 469067, Control_c, 0, 64, 127
1, 469075, Poly_aftertouch_c, 0, 50, 0
1, 469082, Note_off_c, 0, 77, 58
1, 469091, Note_on_c, 0, 68, 78
1, 469092, Note_on_c, 0, 65, 77
1, 469120, Note_off_c, 0, 65, 64
1, 469140, Note_off_c, 0, 73, 61
1, 469148, Note_off_c, 0, 68, 64
1, 469170, Control_c, 0, 64, 95
1, 469185, Control_c, 0, 64, 77
1, 469194, Note_on_c, 0, 55, 74
1, 469196, Note_on_c, 0, 61, 75
1, 469200, Control_c, 0, 64, 64
1, 469202, Note_on_c, 0, 65, 85
1, 469208, Note_on_c, 0, 49, 72
1, 469208, Note_on_c, 0, 67, 84
1, 469216, Control_c, 0, 64, 60
1, 469223, Note_off_c, 0, 61, 68
1, 469231, Control_c, 0, 64, 66
1, 469244, Note_off_c, 0, 55, 63
1, 469245, Control_c, 0, 64, 76
1, 469249, Note_off_c, 0, 49, 61
1, 469260, Control_c, 0, 64, 89
1, 469275, Control_c, 0, 64, 102
1, 469290, Control_c, 0, 64, 116
1, 469305, Control_c, 0, 64, 127
1, 469307, Note_on_c, 0, 77, 82
1, 469310, Note_on_c, 0, 71, 78
1, 469325, Note_off_c, 0, 65, 55
1, 469333, Note_off_c, 0, 67, 59
1, 469354, Note_off_c, 0, 71, 56
1, 469376, Note_off_c, 0, 77, 60
1, 469437, Control_c, 0, 64, 112
1, 469452, Control_c, 0, 64, 85
1, 469467, Note_on_c, 0, 48, 89
1, 469467, Control_c, 0, 64, 59
1, 469471, Note_on_c, 0, 36, 81
1, 469482, Control_c, 0, 64, 0
1, 469495, Note_on_c, 0, 72, 79
1, 469495, Note_on_c, 0, 76, 79
1, 469509, Note_off_c, 0, 36, 58
1, 469541, Control_c, 0, 64, 34
1, 469556, Note_off_c, 0, 48, 63
1, 469556, Control_c, 0, 64, 63
1, 469571, Control_c, 0, 64, 76
1, 469585, Control_c, 0, 64, 100
1, 469597, Note_off_c, 0, 76, 52
1, 469600, Control_c, 0, 64, 127
1, 469629, Note_on_c, 0, 67, 77
1, 469635, Note_on_c, 0, 64, 65
1, 469651, Note_off_c, 0, 72, 59
1, 469665, Note_off_c, 0, 64, 67
1, 469667, Note_off_c, 0, 67, 60
1, 469720, Note_on_c, 0, 52, 67
1, 469721, Note_on_c, 0, 55, 67
1, 469723, Note_on_c, 0, 60, 62
1, 469727, Note_on_c, 0, 64, 77
1, 469736, Note_on_c, 0, 67, 77
1, 469744, Note_off_c, 0, 60, 66
1, 469753, Note_off_c, 0, 55, 63
1, 469768, Note_off_c, 0, 52, 61
1, 469777, Note_off_c, 0, 64, 62
1, 469796, Note_off_c, 0, 67, 58
1, 469828, Note_on_c, 0, 72, 71
1, 469841, Note_on_c, 0, 76, 76
1, 469868, Note_off_c, 0, 76, 66
1, 469885, Note_off_c, 0, 72, 62
1, 469889, Control_c, 0, 64, 88
1, 469904, Control_c, 0, 64, 51
1, 469918, Control_c, 0, 64, 0
1, 469926, Note_on_c, 0, 47, 88
1, 469933, Note_on_c, 0, 35, 78
1, 469936, Note_on_c, 0, 77, 82
1, 469945, Note_on_c, 0, 73, 83
1, 469954, Note_off_c, 0, 35, 63
1, 469962, Note_off_c, 0, 47, 68
1, 469963, Control_c, 0, 64, 15
1, 469977, Control_c, 0, 64, 60
1, 469992, Control_c, 0, 64, 76
1, 470007, Control_c, 0, 64, 101
1, 470023, Control_c, 0, 64, 127
1, 470035, Note_off_c, 0, 77, 59
1, 470046, Note_on_c, 0, 68, 75
1, 470058, Note_on_c, 0, 65, 66
1, 470087, Note_off_c, 0, 65, 65
1, 470096, Note_off_c, 0, 73, 63
1, 470099, Note_off_c, 0, 68, 65
1, 470141, Note_on_c, 0, 56, 78
1, 470147, Note_on_c, 0, 61, 68
1, 470150, Note_on_c, 0, 53, 69
1, 470154, Note_on_c, 0, 65, 82
1, 470157, Note_on_c, 0, 68, 82
1, 470174, Note_off_c, 0, 61, 66
1, 470182, Note_off_c, 0, 56, 59
1, 470192, Note_off_c, 0, 53, 64
1, 470210, Note_off_c, 0, 65, 57
1, 470247, Note_on_c, 0, 73, 76
1, 470253, Note_off_c, 0, 68, 64
1, 470255, Note_on_c, 0, 77, 74
1, 470305, Note_off_c, 0, 77, 63
1, 470355, Note_off_c, 0, 73, 62
1, 470364, Control_c, 0, 64, 100
1, 470375, Note_on_c, 0, 46, 94
1, 470379, Control_c, 0, 64, 67
1, 470383, Note_on_c, 0, 34, 80
1, 470391, Note_on_c, 0, 74, 80
1, 470393, Control_c, 0, 64, 0
1, 470395, Note_on_c, 0, 78, 85
1, 470404, Note_off_c, 0, 34, 68
1, 470416, Note_off_c, 0, 46, 67
1, 470423, Control_c, 0, 64, 24
1, 470438, Control_c, 0, 64, 59
1, 470453, Control_c, 0, 64, 72
1, 470467, Control_c, 0, 64, 93
1, 470482, Control_c, 0, 64, 127
1, 470499, Note_on_c, 0, 70, 80
1, 470508, Note_on_c, 0, 68, 68
1, 470532, Note_off_c, 0, 78, 60
1, 470541, Note_off_c, 0, 68, 68
1, 470555, Note_off_c, 0, 74, 61
1, 470561, Note_off_c, 0, 70, 63
1, 470598, Note_on_c, 0, 54, 72
1, 470598, Note_on_c, 0, 58, 73
1, 470600, Note_on_c, 0, 62, 71
1, 470615, Note_on_c, 0, 68, 81
1, 470619, Note_on_c, 0, 70, 80
1, 470629, Note_off_c, 0, 62, 64
1, 470635, Note_off_c, 0, 58, 62
1, 470650, Note_off_c, 0, 54, 61
1, 470715, Note_on_c, 0, 74, 76
1, 470726, Note_on_c, 0, 78, 80
1, 470729, Note_off_c, 0, 68, 63
1, 470747, Note_off_c, 0, 70, 61
1, 470791, Note_off_c, 0, 78, 62
1, 470822, Note_off_c, 0, 74, 54
1, 470861, Control_c, 0, 64, 106
1, 470874, Note_on_c, 0, 51, 99
1, 470876, Control_c, 0, 64, 75
1, 470878, Note_on_c, 0, 39, 93
1, 470890, Control_c, 0, 64, 0
1, 470903, Note_on_c, 0, 75, 85
1, 470905, Note_on_c, 0, 79, 81
1, 470928, Note_off_c, 0, 39, 62
1, 470950, Control_c, 0, 64, 59
1, 470952, Note_off_c, 0, 51, 65
1, 470964, Control_c, 0, 64, 75
1, 470979, Control_c, 0, 64, 109
1, 470994, Control_c, 0, 64, 127
1, 471022, Note_off_c, 0, 79, 57
1, 471044, Note_on_c, 0, 70, 72
1, 471048, Note_on_c, 0, 67, 67
1, 471075, Note_off_c, 0, 75, 61
1, 471078, Note_off_c, 0, 67, 65
1, 471092, Note_off_c, 0, 70, 61
1, 471123, Note_on_c, 0, 58, 71
1, 471123, Note_on_c, 0, 63, 69
1, 471126, Note_on_c, 0, 55, 69
1, 471139, Note_on_c, 0, 67, 85
1, 471143, Note_on_c, 0, 70, 68
1, 471151, Note_off_c, 0, 63, 68
1, 471161, Note_off_c, 0, 58, 62
1, 471175, Note_off_c, 0, 55, 61
1, 471194, Note_off_c, 0, 67, 60
1, 471230, Note_on_c, 0, 75, 74
1, 471232, Note_on_c, 0, 79, 75
1, 471234, Note_off_c, 0, 70, 63
1, 471262, Note_off_c, 0, 79, 61
1, 471310, Note_off_c, 0, 75, 61
1, 471328, Control_c, 0, 64, 75
1, 471337, Note_on_c, 0, 51, 98
1, 471340, Note_on_c, 0, 75, 56
1, 471343, Control_c, 0, 64, 0
1, 471344, Note_on_c, 0, 39, 87
1, 471349, Note_on_c, 0, 80, 87
1, 471356, Note_on_c, 0, 76, 92
1, 471361, Note_off_c, 0, 75, 56
1, 471370, Note_off_c, 0, 39, 69
1, 471380, Note_on_c, 0, 49, 39
1, 471381, Note_off_c, 0, 49, 127
1, 471382, Note_off_c, 0, 51, 66
1, 471387, Control_c, 0, 64, 45
1, 471402, Control_c, 0, 64, 71
1, 471416, Control_c, 0, 64, 104
1, 471428, Poly_aftertouch_c, 0, 49, 0
1, 471430, Note_off_c, 0, 80, 62
1, 471431, Control_c, 0, 64, 127
1, 471454, Note_on_c, 0, 68, 72
1, 471455, Note_on_c, 0, 71, 71
1, 471497, Note_off_c, 0, 76, 60
1, 471501, Note_off_c, 0, 68, 63
1, 471521, Note_off_c, 0, 71, 63
1, 471555, Note_on_c, 0, 56, 74
1, 471557, Note_on_c, 0, 59, 73
1, 471557, Note_on_c, 0, 64, 72
1, 471561, Note_on_c, 0, 71, 75
1, 471562, Note_on_c, 0, 68, 81
1, 471583, Note_off_c, 0, 64, 69
1, 471589, Note_off_c, 0, 59, 64
1, 471603, Note_off_c, 0, 56, 62
1, 471614, Note_off_c, 0, 68, 63
1, 471658, Note_off_c, 0, 71, 56
1, 471663, Note_on_c, 0, 80, 81
1, 471665, Note_on_c, 0, 76, 68
1, 471709, Note_off_c, 0, 80, 67
1, 471746, Note_off_c, 0, 76, 60
1, 471758, Control_c, 0, 64, 98
1, 471773, Control_c, 0, 64, 62
1, 471778, Note_on_c, 0, 51, 101
1, 471786, Note_on_c, 0, 81, 87
1, 471787, Note_on_c, 0, 39, 84
1, 471787, Control_c, 0, 64, 0
1, 471788, Note_on_c, 0, 77, 88
1, 471806, Note_off_c, 0, 39, 68
1, 471831, Note_off_c, 0, 51, 61
1, 471832, Control_c, 0, 64, 47
1, 471846, Control_c, 0, 64, 76
1, 471861, Control_c, 0, 64, 116
1, 471873, Note_off_c, 0, 81, 54
1, 471876, Control_c, 0, 64, 127
1, 471891, Note_on_c, 0, 72, 73
1, 471900, Note_on_c, 0, 69, 71
1, 471918, Note_off_c, 0, 77, 61
1, 471930, Note_off_c, 0, 69, 67
1, 471943, Note_off_c, 0, 72, 64
1, 471984, Note_on_c, 0, 57, 75
1, 471984, Note_on_c, 0, 60, 77
1, 471986, Note_on_c, 0, 65, 80
1, 471990, Note_on_c, 0, 72, 81
1, 471996, Note_on_c, 0, 69, 82
1, 471996, Poly_aftertouch_c, 0, 61, 127
1, 472010, Note_off_c, 0, 65, 68
1, 472038, Note_off_c, 0, 60, 66
1, 472042, Poly_aftertouch_c, 0, 61, 0
1, 472047, Note_off_c, 0, 57, 65
1, 472078, Note_off_c, 0, 69, 53
1, 472091, Note_off_c, 0, 72, 63
1, 472098, Note_on_c, 0, 81, 78
1, 472104, Note_on_c, 0, 77, 68
1, 472143, Note_off_c, 0, 81, 62
1, 472180, Control_c, 0, 64, 100
1, 472195, Control_c, 0, 64, 64
1, 472210, Control_c, 0, 64, 0
1, 472213, Note_on_c, 0, 51, 102
1, 472221, Note_on_c, 0, 78, 91
1, 472221, Note_on_c, 0, 82, 88
1, 472222, Note_on_c, 0, 39, 92
1, 472242, Note_off_c, 0, 39, 68
1, 472254, Control_c, 0, 64, 44
1, 472262, Note_off_c, 0, 77, 61
1, 472264, Note_off_c, 0, 51, 63
1, 472269, Control_c, 0, 64, 78
1, 472284, Control_c, 0, 64, 127
1, 472327, Note_on_c, 0, 73, 86
1, 472330, Note_on_c, 0, 70, 81
1, 472332, Note_off_c, 0, 82, 62
1, 472379, Note_off_c, 0, 70, 64
1, 472387, Note_off_c, 0, 78, 55
1, 472400, Note_off_c, 0, 73, 62
1, 472401, Poly_aftertouch_c, 0, 39, 0
1, 472441, Note_on_c, 0, 61, 76
1, 472441, Note_on_c, 0, 66, 81
1, 472446, Note_on_c, 0, 73, 89
1, 472448, Note_on_c, 0, 58, 79
1, 472449, Note_on_c, 0, 70, 94
1, 472465, Note_off_c, 0, 66, 67
1, 472477, Note_off_c, 0, 61, 62
1, 472490, Note_off_c, 0, 58, 61
1, 472538, Note_off_c, 0, 70, 61
1, 472551, Note_on_c, 0, 82, 85
1, 472553, Note_on_c, 0, 78, 78
1, 472593, Note_off_c, 0, 73, 61
1, 472632, Note_off_c, 0, 82, 64
1, 472668, Note_off_c, 0, 78, 62
1, 472684, Control_c, 0, 64, 110
1, 472696, Note_on_c, 0, 51, 104
1, 472699, Control_c, 0, 64, 71
1, 472701, Note_on_c, 0, 39, 97
1, 472702, Note_on_c, 0, 83, 93
1, 472708, Note_on_c, 0, 79, 95
1, 472714, Control_c, 0, 64, 0
1, 472731, Note_off_c, 0, 39, 64
1, 472754, Note_off_c, 0, 51, 66
1, 472759, Control_c, 0, 64, 62
1, 472774, Control_c, 0, 64, 84
1, 472795, Control_c, 0, 64, 127
1, 472860, Note_on_c, 0, 75, 74
1, 472863, Note_on_c, 0, 73, 82
1, 472869, Note_off_c, 0, 83, 50
1, 472914, Note_off_c, 0, 79, 56
1, 472931, Note_off_c, 0, 73, 58
1, 472967, Note_off_c, 0, 75, 60
1, 472995, Note_on_c, 0, 58, 77
1, 472998, Note_on_c, 0, 63, 75
1, 472999, Note_on_c, 0, 67, 81
1, 473011, Note_on_c, 0, 73, 107
1, 473013, Note_on_c, 0, 75, 80
1, 473036, Note_off_c, 0, 67, 61
1, 473048, Note_off_c, 0, 58, 62
1, 473051, Note_off_c, 0, 63, 64
1, 473122, Note_off_c, 0, 73, 59
1, 473140, Note_off_c, 0, 75, 61
1, 473167, Note_on_c, 0, 79, 86
1, 473169, Note_on_c, 0, 83, 87
1, 473236, Note_off_c, 0, 83, 60
1, 473359, Control_c, 0, 64, 102
1, 473364, Note_off_c, 0, 79, 52
1, 473374, Control_c, 0, 64, 65
1, 473389, Control_c, 0, 64, 0
1, 473390, Note_on_c, 0, 80, 88
1, 473392, Note_on_c, 0, 44, 104
1, 473394, Note_on_c, 0, 72, 104
1, 473394, Note_on_c, 0, 75, 95
1, 473397, Note_on_c, 0, 32, 93
1, 473399, Note_on_c, 0, 84, 86
1, 473422, Note_off_c, 0, 32, 68
1, 473437, Note_off_c, 0, 84, 66
1, 473446, Note_off_c, 0, 44, 64
1, 473448, Control_c, 0, 64, 52
1, 473458, Note_off_c, 0, 80, 65
1, 473459, Note_off_c, 0, 75, 65
1, 473463, Control_c, 0, 64, 80
1, 473477, Note_off_c, 0, 72, 61
1, 473477, Control_c, 0, 64, 127
1, 473752, Control_c, 0, 64, 97
1, 473757, Note_on_c, 0, 59, 85
1, 473758, Note_on_c, 0, 47, 72
1, 473761, Note_on_c, 0, 74, 89
1, 473763, Note_on_c, 0, 62, 90
1, 473766, Control_c, 0, 64, 86
1, 473781, Note_off_c, 0, 59, 67
1, 473781, Control_c, 0, 64, 86
1, 473784, Note_off_c, 0, 47, 65
1, 473790, Note_off_c, 0, 62, 65
1, 473796, Control_c, 0, 64, 101
1, 473811, Control_c, 0, 64, 127
1, 473819, Note_on_c, 0, 64, 7
1, 473865, Note_off_c, 0, 64, 45
1, 473903, Note_on_c, 0, 60, 76
1, 473906, Note_on_c, 0, 75, 84
1, 473907, Note_on_c, 0, 63, 80
1, 473908, Note_on_c, 0, 48, 69
1, 473919, Note_off_c, 0, 74, 65
1, 473928, Note_off_c, 0, 60, 69
1, 473932, Note_off_c, 0, 63, 69
1, 473934, Note_off_c, 0, 48, 65
1, 473970, Note_off_c, 0, 75, 63
1, 474005, Control_c, 0, 64, 84
1, 474020, Control_c, 0, 64, 58
1, 474030, Note_on_c, 0, 43, 65
1, 474030, Note_on_c, 0, 79, 89
1, 474034, Control_c, 0, 64, 0
1, 474037, Note_on_c, 0, 67, 83
1, 474041, Note_on_c, 0, 41, 48
1, 474049, Control_c, 0, 64, 39
1, 474051, Note_on_c, 0, 55, 37
1, 474052, Note_off_c, 0, 55, 127
1, 474058, Note_off_c, 0, 67, 69
1, 474059, Note_on_c, 0, 53, 4
1, 474064, Control_c, 0, 64, 65
1, 474070, Note_off_c, 0, 41, 54
1, 474076, Note_off_c, 0, 43, 58
1, 474079, Control_c, 0, 64, 85
1, 474082, Note_off_c, 0, 79, 60
1, 474094, Control_c, 0, 64, 127
1, 474104, Note_off_c, 0, 53, 31
1, 474123, Note_on_c, 0, 44, 74
1, 474123, Note_on_c, 0, 56, 78
1, 474126, Poly_aftertouch_c, 0, 65, 0
1, 474128, Note_on_c, 0, 68, 88
1, 474129, Note_on_c, 0, 80, 94
1, 474147, Note_off_c, 0, 68, 73
1, 474149, Note_off_c, 0, 44, 64
1, 474151, Note_off_c, 0, 56, 65
1, 474176, Note_off_c, 0, 80, 62
1, 474212, Poly_aftertouch_c, 0, 79, 0
1, 474230, Note_on_c, 0, 39, 74
1, 474238, Note_on_c, 0, 84, 84
1, 474241, Note_on_c, 0, 49, 55
1, 474243, Note_on_c, 0, 72, 79
1, 474253, Note_off_c, 0, 39, 62
1, 474264, Note_off_c, 0, 84, 66
1, 474264, Note_on_c, 0, 83, 43
1, 474264, Note_off_c, 0, 72, 64
1, 474266, Note_off_c, 0, 49, 60
1, 474300, Note_off_c, 0, 83, 59
1, 474330, Poly_aftertouch_c, 0, 44, 0
1, 474341, Note_on_c, 0, 48, 71
1, 474341, Note_on_c, 0, 87, 99
1, 474344, Note_on_c, 0, 75, 87
1, 474353, Note_on_c, 0, 36, 58
1, 474362, Note_off_c, 0, 75, 69
1, 474368, Note_off_c, 0, 48, 64
1, 474380, Note_off_c, 0, 36, 53
1, 474383, Note_off_c, 0, 87, 64
1, 474397, Control_c, 0, 64, 112
1, 474412, Control_c, 0, 64, 74
1, 474427, Control_c, 0, 64, 0
1, 474437, Note_on_c, 0, 44, 90
1, 474448, Note_on_c, 0, 32, 77
1, 474448, Note_on_c, 0, 80, 102
1, 474449, Note_on_c, 0, 92, 105
1, 474464, Note_off_c, 0, 92, 73
1, 474471, Control_c, 0, 64, 60
1, 474478, Note_off_c, 0, 44, 60
1, 474480, Note_off_c, 0, 32, 64
1, 474486, Control_c, 0, 64, 79
1, 474494, Note_off_c, 0, 80, 61
1, 474501, Control_c, 0, 64, 127
1, 474750, Note_on_c, 0, 56, 87
1, 474751, Note_on_c, 0, 68, 91
1, 474753, Note_on_c, 0, 48, 78
1, 474753, Note_on_c, 0, 60, 81
1, 474753, Note_on_c, 0, 63, 94
1, 474753, Note_on_c, 0, 75, 85
1, 474782, Control_c, 0, 64, 111
1, 474797, Control_c, 0, 64, 77
1, 474812, Control_c, 0, 64, 29
1, 474827, Control_c, 0, 64, 0
1, 474931, Control_c, 0, 64, 31
1, 474946, Control_c, 0, 64, 58
1, 474961, Control_c, 0, 64, 69
1, 474975, Control_c, 0, 64, 86
1, 474990, Control_c, 0, 64, 127
1, 475038, Note_off_c, 0, 48, 60
1, 475046, Note_off_c, 0, 75, 55
1, 475062, Note_off_c, 0, 60, 62
1, 475074, Note_off_c, 0, 63, 62
1, 475087, Note_off_c, 0, 56, 60
1, 475144, Note_off_c, 0, 68, 62
1, 475299, Note_on_c, 0, 61, 80
1, 475301, Note_on_c, 0, 49, 81
1, 475301, Note_on_c, 0, 56, 82
1, 475304, Note_on_c, 0, 66, 101
1, 475308, Note_on_c, 0, 78, 97
1, 475322, Note_off_c, 0, 61, 69
1, 475325, Note_off_c, 0, 56, 69
1, 475328, Note_off_c, 0, 49, 66
1, 475336, Note_off_c, 0, 78, 65
1, 475338, Note_off_c, 0, 66, 68
1, 475498, Note_on_c, 0, 56, 77
1, 475500, Note_on_c, 0, 76, 76
1, 475501, Note_on_c, 0, 49, 69
1, 475501, Note_on_c, 0, 64, 79
1, 475504, Note_on_c, 0, 68, 73
1, 475504, Note_on_c, 0, 61, 69
1, 475516, Note_off_c, 0, 76, 69
1, 475522, Note_off_c, 0, 61, 66
1, 475523, Note_off_c, 0, 56, 67
1, 475523, Note_off_c, 0, 64, 71
1, 475525, Note_off_c, 0, 68, 72
1, 475532, Note_off_c, 0, 49, 64
1, 475546, Control_c, 0, 64, 99
1, 475561, Control_c, 0, 64, 70
1, 475573, Note_on_c, 0, 56, 78
1, 475576, Control_c, 0, 64, 0
1, 475576, Note_on_c, 0, 75, 88
1, 475577, Note_on_c, 0, 63, 92
1, 475580, Note_on_c, 0, 60, 79
1, 475581, Note_on_c, 0, 48, 71
1, 475592, Note_on_c, 0, 69, 75
1, 475618, Note_on_c, 0, 50, 40
1, 475620, Note_on_c, 0, 68, 28
1, 475635, Control_c, 0, 64, 58
1, 475650, Control_c, 0, 64, 71
1, 475653, Note_off_c, 0, 68, 31
1, 475656, Note_off_c, 0, 50, 33
1, 475662, Note_off_c, 0, 63, 55
1, 475664, Note_off_c, 0, 69, 61
1, 475665, Control_c, 0, 64, 90
1, 475680, Control_c, 0, 64, 127
1, 475689, Note_off_c, 0, 60, 62
1, 475718, Note_off_c, 0, 48, 61
1, 475728, Note_off_c, 0, 56, 61
1, 475730, Poly_aftertouch_c, 0, 64, 127
1, 475752, Note_off_c, 0, 75, 61
1, 475760, Poly_aftertouch_c, 0, 64, 0
1, 475850, Control_c, 0, 64, 90
1, 475865, Control_c, 0, 64, 62
1, 475873, Note_on_c, 0, 47, 76
1, 475877, Note_on_c, 0, 59, 75
1, 475880, Control_c, 0, 64, 0
1, 475885, Note_on_c, 0, 74, 91
1, 475889, Note_on_c, 0, 62, 81
1, 475895, Control_c, 0, 64, 13
1, 475898, Note_off_c, 0, 47, 67
1, 475900, Note_off_c, 0, 59, 67
1, 475909, Control_c, 0, 64, 58
1, 475912, Note_off_c, 0, 62, 69
1, 475924, Control_c, 0, 64, 73
1, 475939, Control_c, 0, 64, 92
1, 475954, Control_c, 0, 64, 127
1, 475994, Note_on_c, 0, 60, 76
1, 476001, Note_on_c, 0, 75, 85
1, 476003, Note_on_c, 0, 63, 78
1, 476004, Note_on_c, 0, 48, 62
1, 476008, Note_off_c, 0, 74, 64
1, 476018, Note_off_c, 0, 60, 68
1, 476027, Note_off_c, 0, 48, 62
1, 476028, Note_off_c, 0, 63, 69
1, 476054, Note_off_c, 0, 75, 62
1, 476073, Control_c, 0, 64, 107
1, 476087, Control_c, 0, 64, 72
1, 476096, Note_on_c, 0, 43, 84
1, 476102, Note_on_c, 0, 55, 69
1, 476102, Control_c, 0, 64, 0
1, 476112, Note_on_c, 0, 79, 89
1, 476116, Note_on_c, 0, 67, 82
1, 476122, Note_off_c, 0, 55, 61
1, 476131, Control_c, 0, 64, 44
1, 476133, Note_off_c, 0, 43, 63
1, 476136, Note_off_c, 0, 67, 70
1, 476146, Control_c, 0, 64, 67
1, 476161, Control_c, 0, 64, 83
1, 476166, Note_off_c, 0, 79, 61
1, 476176, Control_c, 0, 64, 127
1, 476196, Note_on_c, 0, 44, 80
1, 476197, Note_on_c, 0, 56, 76
1, 476211, Note_on_c, 0, 80, 86
1, 476213, Note_on_c, 0, 68, 73
1, 476213, Poly_aftertouch_c, 0, 69, 127
1, 476220, Note_off_c, 0, 56, 68
1, 476226, Note_off_c, 0, 44, 64
1, 476234, Poly_aftertouch_c, 0, 69, 0
1, 476235, Note_off_c, 0, 68, 71
1, 476261, Note_off_c, 0, 80, 64
1, 476309, Note_on_c, 0, 51, 78
1, 476311, Note_on_c, 0, 39, 79
1, 476324, Note_on_c, 0, 44, 52
1, 476325, Note_off_c, 0, 44, 127
1, 476325, Note_on_c, 0, 84, 89
1, 476327, Note_on_c, 0, 72, 84
1, 476334, Note_off_c, 0, 51, 67
1, 476340, Note_off_c, 0, 39, 65
1, 476347, Note_off_c, 0, 72, 72
1, 476358, Note_off_c, 0, 84, 60
1, 476416, Note_on_c, 0, 36, 74
1, 476419, Note_on_c, 0, 48, 63
1, 476422, Note_on_c, 0, 87, 97
1, 476424, Note_on_c, 0, 75, 73
1, 476442, Note_off_c, 0, 36, 63
1, 476442, Note_off_c, 0, 48, 59
1, 476445, Note_off_c, 0, 75, 70
1, 476466, Note_off_c, 0, 87, 64
1, 476488, Control_c, 0, 64, 108
1, 476503, Control_c, 0, 64, 72
1, 476518, Control_c, 0, 64, 0
1, 476557, Note_on_c, 0, 39, 82
1, 476565, Note_on_c, 0, 84, 97
1, 476566, Note_on_c, 0, 27, 76
1, 476567, Note_on_c, 0, 96, 95
1, 476583, Note_off_c, 0, 96, 74
1, 476584, Control_c, 0, 64, 56
1, 476589, Note_off_c, 0, 84, 69
1, 476596, Note_off_c, 0, 27, 64
1, 476596, Note_off_c, 0, 39, 59
1, 476599, Control_c, 0, 64, 77
1, 476611, Note_on_c, 0, 37, 3
1, 476612, Note_off_c, 0, 37, 127
1, 476614, Control_c, 0, 64, 127
1, 476648, Poly_aftertouch_c, 0, 37, 0
1, 476866, Note_on_c, 0, 51, 83
1, 476866, Note_on_c, 0, 63, 87
1, 476867, Note_on_c, 0, 39, 75
1, 476867, Note_on_c, 0, 60, 95
1, 476868, Note_on_c, 0, 72, 83
1, 476869, Note_on_c, 0, 68, 83
1, 476896, Control_c, 0, 64, 99
1, 476910, Control_c, 0, 64, 73
1, 476925, Control_c, 0, 64, 20
1, 476940, Control_c, 0, 64, 0
1, 477043, Control_c, 0, 64, 46
1, 477058, Control_c, 0, 64, 61
1, 477073, Control_c, 0, 64, 70
1, 477088, Control_c, 0, 64, 82
1, 477102, Control_c, 0, 64, 102
1, 477117, Control_c, 0, 64, 127
1, 477123, Note_off_c, 0, 63, 61
1, 477170, Note_off_c, 0, 60, 63
1, 477233, Note_off_c, 0, 72, 37
1, 477296, Note_off_c, 0, 39, 52
1, 477313, Note_off_c, 0, 51, 52
1, 477343, Note_off_c, 0, 68, 20
1, 477363, Control_c, 0, 64, 102
1, 477377, Control_c, 0, 64, 80
1, 477392, Control_c, 0, 64, 64
1, 477400, Note_on_c, 0, 51, 86
1, 477400, Note_on_c, 0, 61, 88
1, 477401, Note_on_c, 0, 67, 86
1, 477401, Note_on_c, 0, 72, 85
1, 477407, Note_on_c, 0, 39, 70
1, 477407, Control_c, 0, 64, 57
1, 477418, Note_off_c, 0, 51, 69
1, 477422, Control_c, 0, 64, 65
1, 477426, Note_off_c, 0, 61, 64
1, 477432, Note_off_c, 0, 67, 58
1, 477433, Note_off_c, 0, 39, 64
1, 477437, Control_c, 0, 64, 73
1, 477451, Control_c, 0, 64, 84
1, 477466, Control_c, 0, 64, 97
1, 477481, Control_c, 0, 64, 111
1, 477496, Control_c, 0, 64, 127
1, 477588, Note_off_c, 0, 72, 55
1, 477600, Note_on_c, 0, 39, 67
1, 477606, Note_on_c, 0, 51, 71
1, 477615, Note_on_c, 0, 61, 81
1, 477615, Note_on_c, 0, 67, 82
1, 477615, Note_on_c, 0, 70, 78
1, 477619, Note_on_c, 0, 46, 51
1, 477629, Control_c, 0, 64, 90
1, 477638, Note_off_c, 0, 51, 64
1, 477638, Note_off_c, 0, 61, 68
1, 477640, Note_off_c, 0, 67, 67
1, 477644, Control_c, 0, 64, 62
1, 477645, Note_off_c, 0, 46, 59
1, 477648, Note_off_c, 0, 70, 56
1, 477653, Note_off_c, 0, 39, 61
1, 477659, Control_c, 0, 64, 0
1, 477671, Poly_aftertouch_c, 0, 51, 0
1, 477676, Note_on_c, 0, 44, 77
1, 477678, Note_on_c, 0, 51, 79
1, 477683, Note_on_c, 0, 60, 93
1, 477689, Note_on_c, 0, 68, 84
1, 477690, Note_on_c, 0, 70, 50
1, 477690, Note_on_c, 0, 72, 81
1, 477704, Note_off_c, 0, 51, 67
1, 477713, Note_off_c, 0, 44, 62
1, 477716, Note_off_c, 0, 60, 63
1, 477719, Control_c, 0, 64, 41
1, 477721, Note_off_c, 0, 70, 64
1, 477733, Control_c, 0, 64, 68
1, 477739, Note_off_c, 0, 68, 64
1, 477748, Note_off_c, 0, 72, 62
1, 477748, Control_c, 0, 64, 82
1, 477763, Control_c, 0, 64, 117
1, 477777, Control_c, 0, 64, 127
1, 477955, Control_c, 0, 64, 95
1, 477969, Control_c, 0, 64, 58
1, 477984, Note_on_c, 0, 59, 86
1, 477984, Note_on_c, 0, 47, 82
1, 477984, Control_c, 0, 64, 0
1, 477998, Note_on_c, 0, 74, 95
1, 478000, Note_on_c, 0, 62, 92
1, 478014, Note_off_c, 0, 47, 67
1, 478015, Note_off_c, 0, 59, 64
1, 478036, Note_off_c, 0, 62, 66
1, 478038, Control_c, 0, 64, 62
1, 478053, Control_c, 0, 64, 76
1, 478068, Control_c, 0, 64, 107
1, 478082, Control_c, 0, 64, 127
1, 478130, Note_on_c, 0, 60, 80
1, 478137, Note_on_c, 0, 48, 71
1, 478140, Note_on_c, 0, 63, 79
1, 478143, Note_on_c, 0, 75, 80
1, 478148, Note_off_c, 0, 74, 66
1, 478154, Note_off_c, 0, 60, 69
1, 478163, Note_off_c, 0, 63, 69
1, 478165, Note_off_c, 0, 48, 65
1, 478202, Note_off_c, 0, 75, 61
1, 478230, Control_c, 0, 64, 86
1, 478243, Note_on_c, 0, 55, 82
1, 478244, Note_on_c, 0, 43, 85
1, 478245, Control_c, 0, 64, 64
1, 478260, Note_on_c, 0, 79, 87
1, 478260, Control_c, 0, 64, 36
1, 478261, Note_on_c, 0, 67, 90
1, 478267, Note_off_c, 0, 55, 68
1, 478274, Control_c, 0, 64, 60
1, 478282, Note_off_c, 0, 67, 69
1, 478282, Note_off_c, 0, 43, 57
1, 478289, Control_c, 0, 64, 72
1, 478298, Note_on_c, 0, 78, 29
1, 478304, Control_c, 0, 64, 90
1, 478308, Note_off_c, 0, 79, 61
1, 478319, Control_c, 0, 64, 127
1, 478336, Note_off_c, 0, 78, 32
1, 478342, Note_on_c, 0, 44, 79
1, 478344, Note_on_c, 0, 56, 80
1, 478353, Note_on_c, 0, 68, 87
1, 478357, Note_on_c, 0, 80, 91
1, 478367, Note_off_c, 0, 56, 68
1, 478373, Note_off_c, 0, 68, 70
1, 478378, Note_off_c, 0, 44, 62
1, 478402, Note_off_c, 0, 80, 65
1, 478457, Note_on_c, 0, 51, 84
1, 478461, Note_on_c, 0, 39, 78
1, 478465, Note_on_c, 0, 84, 90
1, 478467, Note_on_c, 0, 72, 86
1, 478479, Note_off_c, 0, 51, 69
1, 478485, Note_off_c, 0, 72, 71
1, 478491, Note_off_c, 0, 39, 64
1, 478503, Note_off_c, 0, 84, 66
1, 478565, Note_on_c, 0, 48, 76
1, 478565, Note_on_c, 0, 75, 92
1, 478565, Note_on_c, 0, 87, 97
1, 478565, Poly_aftertouch_c, 0, 44, 0
1, 478567, Note_on_c, 0, 36, 76
1, 478588, Note_off_c, 0, 75, 63
1, 478591, Note_off_c, 0, 48, 63
1, 478594, Note_off_c, 0, 36, 63
1, 478604, Note_off_c, 0, 87, 66
1, 478645, Control_c, 0, 64, 79
1, 478660, Control_c, 0, 64, 0
1, 478681, Note_on_c, 0, 44, 88
1, 478689, Note_on_c, 0, 80, 114
1, 478691, Note_on_c, 0, 32, 79
1, 478691, Note_on_c, 0, 92, 107
1, 478711, Note_off_c, 0, 92, 65
1, 478719, Control_c, 0, 64, 57
1, 478722, Note_off_c, 0, 32, 64
1, 478729, Note_off_c, 0, 44, 60
1, 478729, Note_off_c, 0, 80, 65
1, 478733, Control_c, 0, 64, 80
1, 478748, Control_c, 0, 64, 127
1, 479022, Note_on_c, 0, 68, 97
1, 479024, Note_on_c, 0, 56, 88
1, 479025, Note_on_c, 0, 63, 94
1, 479027, Note_on_c, 0, 48, 81
1, 479027, Note_on_c, 0, 75, 85
1, 479028, Note_on_c, 0, 60, 87
1, 479083, Control_c, 0, 64, 83
1, 479091, Note_on_c, 0, 73, 27
1, 479099, Control_c, 0, 64, 52
1, 479113, Control_c, 0, 64, 0
1, 479135, Note_off_c, 0, 73, 47
1, 479187, Control_c, 0, 64, 38
1, 479202, Control_c, 0, 64, 61
1, 479217, Control_c, 0, 64, 74
1, 479231, Control_c, 0, 64, 98
1, 479246, Control_c, 0, 64, 127
1, 479266, Note_off_c, 0, 75, 57
1, 479288, Note_off_c, 0, 48, 60
1, 479304, Note_off_c, 0, 63, 62
1, 479314, Note_off_c, 0, 60, 61
1, 479337, Note_off_c, 0, 56, 60
1, 479374, Note_off_c, 0, 68, 59
1, 479510, Note_on_c, 0, 51, 65
1, 479542, Note_on_c, 0, 56, 69
1, 479570, Note_on_c, 0, 63, 81
1, 479595, Note_on_c, 0, 66, 100
1, 479598, Note_on_c, 0, 78, 97
1, 479621, Note_off_c, 0, 63, 64
1, 479625, Note_off_c, 0, 51, 62
1, 479625, Note_off_c, 0, 56, 64
1, 479633, Note_off_c, 0, 66, 67
1, 479634, Note_off_c, 0, 78, 64
1, 479733, Note_on_c, 0, 56, 86
1, 479734, Note_on_c, 0, 61, 87
1, 479737, Note_on_c, 0, 64, 94
1, 479737, Note_on_c, 0, 68, 95
1, 479738, Note_on_c, 0, 76, 90
1, 479741, Note_on_c, 0, 49, 74
1, 479755, Note_off_c, 0, 61, 70
1, 479757, Note_off_c, 0, 64, 71
1, 479760, Note_off_c, 0, 56, 62
1, 479760, Note_off_c, 0, 68, 67
1, 479762, Note_off_c, 0, 76, 65
1, 479772, Note_off_c, 0, 49, 64
1, 480017, Note_on_c, 0, 56, 81
1, 480017, Note_on_c, 0, 60, 83
1, 480019, Note_on_c, 0, 48, 80
1, 480020, Note_on_c, 0, 63, 89
1, 480020, Note_on_c, 0, 68, 90
1, 480025, Note_on_c, 0, 75, 77
1, 480038, Note_off_c, 0, 60, 71
1, 480041, Note_off_c, 0, 63, 70
1, 480043, Note_off_c, 0, 48, 66
1, 480043, Note_off_c, 0, 56, 64
1, 480044, Note_off_c, 0, 75, 70
1, 480046, Note_off_c, 0, 68, 61
1, 480084, Control_c, 0, 64, 90
1, 480092, Note_on_c, 0, 48, 81
1, 480092, Note_on_c, 0, 60, 90
1, 480094, Note_on_c, 0, 56, 87
1, 480095, Note_on_c, 0, 63, 88
1, 480095, Note_on_c, 0, 68, 93
1, 480099, Control_c, 0, 64, 59
1, 480101, Note_on_c, 0, 75, 88
1, 480114, Control_c, 0, 64, 0
1, 480187, Control_c, 0, 64, 56
1, 480202, Control_c, 0, 64, 67
1, 480217, Control_c, 0, 64, 79
1, 480232, Control_c, 0, 64, 102
1, 480247, Control_c, 0, 64, 127
1, 480311, Note_off_c, 0, 60, 62
1, 480330, Note_off_c, 0, 75, 61
1, 480333, Note_off_c, 0, 48, 60
1, 480343, Note_off_c, 0, 63, 60
1, 480377, Note_off_c, 0, 56, 59
1, 480418, Control_c, 0, 64, 110
1, 480419, Note_off_c, 0, 68, 63
1, 480433, Control_c, 0, 64, 73
1, 480448, Control_c, 0, 64, 0
1, 480455, Note_on_c, 0, 59, 91
1, 480458, Note_on_c, 0, 62, 86
1, 480458, Note_on_c, 0, 47, 83
1, 480460, Note_on_c, 0, 74, 86
1, 480490, Note_off_c, 0, 47, 60
1, 480492, Control_c, 0, 64, 52
1, 480496, Note_on_c, 0, 72, 41
1, 480497, Note_off_c, 0, 72, 127
1, 480497, Note_off_c, 0, 62, 61
1, 480504, Note_off_c, 0, 59, 60
1, 480507, Control_c, 0, 64, 73
1, 480522, Control_c, 0, 64, 98
1, 480537, Control_c, 0, 64, 127
1, 480610, Note_on_c, 0, 60, 78
1, 480612, Note_on_c, 0, 48, 72
1, 480615, Note_on_c, 0, 63, 85
1, 480619, Note_on_c, 0, 75, 83
1, 480634, Note_off_c, 0, 60, 69
1, 480635, Note_off_c, 0, 74, 62
1, 480643, Note_off_c, 0, 48, 65
1, 480648, Note_off_c, 0, 63, 62
1, 480688, Note_off_c, 0, 75, 62
1, 480729, Control_c, 0, 64, 80
1, 480738, Note_on_c, 0, 55, 79
1, 480741, Note_on_c, 0, 43, 87
1, 480743, Control_c, 0, 64, 0
1, 480750, Note_on_c, 0, 79, 88
1, 480753, Note_on_c, 0, 67, 92
1, 480765, Note_off_c, 0, 55, 67
1, 480773, Control_c, 0, 64, 31
1, 480782, Note_off_c, 0, 67, 62
1, 480788, Control_c, 0, 64, 64
1, 480796, Note_off_c, 0, 43, 58
1, 480802, Control_c, 0, 64, 82
1, 480813, Note_off_c, 0, 79, 57
1, 480817, Control_c, 0, 64, 127
1, 480848, Poly_aftertouch_c, 0, 53, 0
1, 480849, Note_on_c, 0, 56, 78
1, 480852, Note_on_c, 0, 44, 76
1, 480858, Note_on_c, 0, 68, 83
1, 480859, Note_on_c, 0, 80, 90
1, 480872, Note_off_c, 0, 56, 69
1, 480878, Note_off_c, 0, 68, 73
1, 480885, Note_off_c, 0, 44, 63
1, 480925, Note_off_c, 0, 80, 64
1, 480935, Poly_aftertouch_c, 0, 79, 0
1, 480977, Note_on_c, 0, 51, 85
1, 480981, Note_on_c, 0, 39, 82
1, 480990, Note_on_c, 0, 84, 94
1, 480991, Note_on_c, 0, 72, 94
1, 481002, Note_off_c, 0, 51, 65
1, 481014, Note_off_c, 0, 39, 62
1, 481031, Note_off_c, 0, 72, 60
1, 481040, Note_off_c, 0, 84, 66
1, 481121, Note_on_c, 0, 48, 81
1, 481122, Note_on_c, 0, 36, 83
1, 481123, Note_on_c, 0, 87, 103
1, 481126, Note_on_c, 0, 75, 93
1, 481141, Note_off_c, 0, 75, 74
1, 481147, Note_off_c, 0, 48, 69
1, 481152, Note_off_c, 0, 36, 65
1, 481177, Note_off_c, 0, 87, 63
1, 481181, Note_on_c, 0, 37, 4
1, 481233, Note_off_c, 0, 37, 48
1, 481281, Note_on_c, 0, 34, 32
1, 481285, Control_c, 0, 64, 115
1, 481299, Control_c, 0, 64, 76
1, 481311, Note_on_c, 0, 39, 87
1, 481314, Note_on_c, 0, 84, 101
1, 481314, Control_c, 0, 64, 0
1, 481315, Note_on_c, 0, 27, 83
1, 481315, Note_on_c, 0, 96, 110
1, 481317, Note_off_c, 0, 34, 0
1, 481317, Note_on_c, 0, 34, 8
1, 481329, Note_off_c, 0, 96, 77
1, 481344, Note_off_c, 0, 27, 66
1, 481344, Control_c, 0, 64, 53
1, 481347, Note_off_c, 0, 84, 65
1, 481352, Note_off_c, 0, 34, 53
1, 481359, Control_c, 0, 64, 71
1, 481368, Note_off_c, 0, 39, 60
1, 481373, Control_c, 0, 64, 94
1, 481388, Control_c, 0, 64, 127
1, 481693, Note_on_c, 0, 51, 91
1, 481695, Note_on_c, 0, 39, 87
1, 481697, Note_on_c, 0, 60, 94
1, 481698, Note_on_c, 0, 63, 91
1, 481698, Note_on_c, 0, 68, 86
1, 481700, Note_on_c, 0, 72, 82
1, 481743, Control_c, 0, 64, 118
1, 481758, Control_c, 0, 64, 81
1, 481781, Control_c, 0, 64, 36
1, 481796, Control_c, 0, 64, 0
1, 481943, Control_c, 0, 64, 50
1, 481958, Control_c, 0, 64, 65
1, 481973, Control_c, 0, 64, 78
1, 481988, Control_c, 0, 64, 99
1, 482004, Control_c, 0, 64, 127
1, 482026, Note_off_c, 0, 63, 60
1, 482068, Note_off_c, 0, 60, 64
1, 482113, Note_off_c, 0, 72, 47
1, 482184, Note_off_c, 0, 39, 54
1, 482200, Note_off_c, 0, 51, 51
1, 482211, Note_off_c, 0, 68, 54
1, 482315, Control_c, 0, 64, 112
1, 482327, Note_on_c, 0, 51, 86
1, 482330, Control_c, 0, 64, 87
1, 482333, Note_on_c, 0, 39, 74
1, 482334, Note_on_c, 0, 67, 91
1, 482336, Note_on_c, 0, 61, 90
1, 482337, Note_on_c, 0, 72, 85
1, 482345, Control_c, 0, 64, 69
1, 482360, Note_off_c, 0, 61, 68
1, 482360, Control_c, 0, 64, 64
1, 482363, Note_off_c, 0, 39, 65
1, 482372, Note_off_c, 0, 51, 62
1, 482372, Note_off_c, 0, 67, 58
1, 482374, Control_c, 0, 64, 67
1, 482389, Control_c, 0, 64, 72
1, 482404, Control_c, 0, 64, 80
1, 482419, Control_c, 0, 64, 87
1, 482434, Control_c, 0, 64, 93
1, 482448, Control_c, 0, 64, 101
1, 482463, Control_c, 0, 64, 112
1, 482478, Control_c, 0, 64, 127
1, 482560, Note_on_c, 0, 39, 72
1, 482563, Note_off_c, 0, 72, 62
1, 482565, Note_on_c, 0, 67, 82
1, 482568, Note_on_c, 0, 70, 77
1, 482569, Note_on_c, 0, 61, 72
1, 482574, Control_c, 0, 64, 104
1, 482589, Control_c, 0, 64, 80
1, 482591, Note_off_c, 0, 61, 65
1, 482596, Note_off_c, 0, 67, 65
1, 482600, Note_off_c, 0, 39, 60
1, 482604, Control_c, 0, 64, 56
1, 482619, Control_c, 0, 64, 0
1, 482626, Note_on_c, 0, 60, 92
1, 482631, Poly_aftertouch_c, 0, 49, 127
1, 482631, Note_on_c, 0, 72, 73
1, 482637, Note_on_c, 0, 68, 77
1, 482645, Note_on_c, 0, 50, 4
1, 482646, Note_on_c, 0, 67, 40
1, 482648, Control_c, 0, 64, 56
1, 482649, Poly_aftertouch_c, 0, 49, 0
1, 482654, Note_off_c, 0, 60, 66
1, 482663, Control_c, 0, 64, 74
1, 482665, Note_off_c, 0, 70, 62
1, 482668, Note_off_c, 0, 68, 66
1, 482670, Note_off_c, 0, 72, 61
1, 482678, Note_off_c, 0, 67, 53
1, 482678, Control_c, 0, 64, 96
1, 482692, Control_c, 0, 64, 127
1, 482705, Note_off_c, 0, 50, 36
1, 482742, Poly_aftertouch_c, 0, 43, 0
1, 482827, Control_c, 0, 64, 92
1, 482841, Control_c, 0, 64, 68
1, 482856, Control_c, 0, 64, 0
1, 482915, Note_on_c, 0, 51, 81
1, 482916, Note_on_c, 0, 61, 96
1, 482917, Note_on_c, 0, 39, 80
1, 482918, Note_on_c, 0, 67, 88
1, 482921, Note_on_c, 0, 72, 82
1, 483137, Control_c, 0, 64, 35
1, 483152, Control_c, 0, 64, 64
1, 483167, Control_c, 0, 64, 76
1, 483182, Control_c, 0, 64, 98
1, 483196, Control_c, 0, 64, 127
1, 483293, Note_on_c, 0, 45, 8
1, 483324, Note_off_c, 0, 72, 46
1, 483350, Note_off_c, 0, 61, 55
1, 483368, Note_off_c, 0, 39, 55
1, 483370, Note_off_c, 0, 51, 37
1, 483384, Note_off_c, 0, 67, 51
1, 483440, Note_on_c, 0, 51, 85
1, 483445, Note_on_c, 0, 72, 85
1, 483446, Note_on_c, 0, 61, 91
1, 483447, Note_on_c, 0, 67, 82
1, 483449, Note_on_c, 0, 39, 67
1, 483467, Note_off_c, 0, 45, 53
1, 483468, Note_off_c, 0, 51, 66
1, 483468, Note_off_c, 0, 61, 67
1, 483477, Note_off_c, 0, 67, 61
1, 483484, Note_off_c, 0, 39, 62
1, 483646, Note_on_c, 0, 51, 80
1, 483648, Note_on_c, 0, 39, 79
1, 483655, Note_on_c, 0, 67, 81
1, 483657, Note_off_c, 0, 72, 61
1, 483661, Note_on_c, 0, 61, 69
1, 483662, Note_on_c, 0, 70, 73
1, 483664, Control_c, 0, 64, 109
1, 483675, Note_off_c, 0, 51, 65
1, 483679, Note_off_c, 0, 61, 65
1, 483679, Control_c, 0, 64, 74
1, 483680, Note_off_c, 0, 39, 59
1, 483685, Note_off_c, 0, 67, 64
1, 483693, Control_c, 0, 64, 0
1, 483711, Note_on_c, 0, 44, 36
1, 483716, Note_on_c, 0, 60, 90
1, 483718, Note_on_c, 0, 51, 92
1, 483724, Note_on_c, 0, 72, 69
1, 483725, Note_on_c, 0, 68, 79
1, 483737, Control_c, 0, 64, 42
1, 483738, Note_off_c, 0, 60, 68
1, 483743, Note_off_c, 0, 51, 67
1, 483744, Note_on_c, 0, 67, 17
1, 483752, Note_off_c, 0, 68, 65
1, 483752, Note_off_c, 0, 72, 66
1, 483752, Note_off_c, 0, 70, 63
1, 483752, Control_c, 0, 64, 68
1, 483758, Note_off_c, 0, 44, 62
1, 483767, Control_c, 0, 64, 87
1, 483775, Note_off_c, 0, 67, 29
1, 483782, Control_c, 0, 64, 127
1, 483945, Control_c, 0, 64, 88
1, 483960, Control_c, 0, 64, 60
1, 483975, Control_c, 0, 64, 0
1, 483995, Note_on_c, 0, 51, 81
1, 483999, Note_on_c, 0, 39, 79
1, 484000, Note_on_c, 0, 61, 88
1, 484003, Note_on_c, 0, 67, 93
1, 484003, Note_on_c, 0, 72, 83
1, 484145, Control_c, 0, 64, 33
1, 484160, Control_c, 0, 64, 65
1, 484175, Control_c, 0, 64, 82
1, 484190, Control_c, 0, 64, 127
1, 484427, Note_off_c, 0, 72, 56
1, 484441, Note_off_c, 0, 51, 52
1, 484447, Note_off_c, 0, 61, 56
1, 484454, Note_off_c, 0, 39, 52
1, 484485, Note_off_c, 0, 67, 53
1, 484536, Note_on_c, 0, 51, 84
1, 484536, Note_on_c, 0, 67, 82
1, 484538, Note_on_c, 0, 61, 96
1, 484539, Note_on_c, 0, 72, 84
1, 484540, Note_on_c, 0, 39, 70
1, 484576, Note_off_c, 0, 51, 59
1, 484577, Note_off_c, 0, 39, 62
1, 484608, Poly_aftertouch_c, 0, 45, 127
1, 484640, Poly_aftertouch_c, 0, 45, 0
1, 484749, Note_off_c, 0, 61, 52
1, 484782, Note_off_c, 0, 67, 51
1, 484876, Note_off_c, 0, 72, 40
1, 484887, Note_on_c, 0, 51, 89
1, 484893, Note_on_c, 0, 39, 77
1, 484894, Note_on_c, 0, 61, 88
1, 484897, Note_on_c, 0, 70, 84
1, 484898, Note_on_c, 0, 67, 89
1, 484918, Note_off_c, 0, 39, 64
1, 484934, Note_off_c, 0, 51, 61
1, 484935, Note_off_c, 0, 61, 63
1, 484948, Note_off_c, 0, 67, 61
1, 484953, Note_off_c, 0, 70, 58
1, 484983, Control_c, 0, 64, 89
1, 484986, Note_on_c, 0, 70, 70
1, 484987, Note_on_c, 0, 60, 97
1, 484988, Note_on_c, 0, 52, 91
1, 484989, Note_on_c, 0, 40, 83
1, 484990, Note_on_c, 0, 67, 82
1, 484993, Note_on_c, 0, 72, 79
1, 484998, Control_c, 0, 64, 53
1, 485013, Control_c, 0, 64, 0
1, 485027, Note_on_c, 0, 41, 39
1, 485028, Note_off_c, 0, 41, 127
1, 485028, Note_off_c, 0, 72, 0
1, 485028, Note_on_c, 0, 72, 52
1, 485037, Note_off_c, 0, 40, 63
1, 485043, Note_off_c, 0, 60, 67
1, 485050, Note_off_c, 0, 52, 64
1, 485057, Control_c, 0, 64, 63
1, 485060, Note_off_c, 0, 72, 62
1, 485067, Note_off_c, 0, 67, 64
1, 485072, Control_c, 0, 64, 78
1, 485075, Note_off_c, 0, 70, 65
1, 485087, Control_c, 0, 64, 116
1, 485101, Control_c, 0, 64, 127
1, 485392, Note_on_c, 0, 60, 78
1, 485393, Note_on_c, 0, 64, 83
1, 485395, Note_on_c, 0, 72, 98
1, 485395, Note_on_c, 0, 52, 73
1, 485395, Note_on_c, 0, 79, 89
1, 485396, Note_on_c, 0, 82, 95
1, 485397, Note_on_c, 0, 84, 84
1, 485399, Note_on_c, 0, 55, 77
1, 485443, Control_c, 0, 64, 93
1, 485457, Control_c, 0, 64, 73
1, 485472, Control_c, 0, 64, 53
1, 485487, Control_c, 0, 64, 0
1, 485502, Control_c, 0, 64, 54
1, 485524, Control_c, 0, 64, 69
1, 485539, Control_c, 0, 64, 90
1, 485554, Control_c, 0, 64, 127
1, 485860, Note_off_c, 0, 72, 45
1, 485866, Note_off_c, 0, 84, 38
1, 485878, Note_off_c, 0, 82, 47
1, 485882, Note_off_c, 0, 64, 38
1, 485892, Note_off_c, 0, 52, 27
1, 485907, Note_off_c, 0, 55, 35
1, 485915, Note_off_c, 0, 79, 47
1, 485955, Note_off_c, 0, 60, 53
1, 486021, Note_on_c, 0, 72, 92
1, 486022, Note_on_c, 0, 64, 74
1, 486024, Note_on_c, 0, 55, 69
1, 486024, Note_on_c, 0, 60, 62
1, 486024, Note_on_c, 0, 52, 62
1, 486024, Note_on_c, 0, 84, 82
1, 486027, Note_on_c, 0, 82, 83
1, 486030, Note_on_c, 0, 79, 85
1, 486045, Note_off_c, 0, 72, 63
1, 486048, Note_off_c, 0, 55, 67
1, 486049, Note_off_c, 0, 64, 62
1, 486052, Note_off_c, 0, 79, 67
1, 486053, Note_off_c, 0, 60, 67
1, 486053, Note_off_c, 0, 52, 66
1, 486074, Note_off_c, 0, 82, 60
1, 486080, Note_off_c, 0, 84, 57
1, 486226, Note_on_c, 0, 60, 47
1, 486235, Note_on_c, 0, 82, 91
1, 486236, Note_on_c, 0, 72, 86
1, 486238, Note_on_c, 0, 55, 66
1, 486239, Note_on_c, 0, 84, 77
1, 486240, Note_on_c, 0, 64, 68
1, 486241, Note_on_c, 0, 79, 79
1, 486248, Note_on_c, 0, 52, 57
1, 486271, Note_off_c, 0, 55, 67
1, 486272, Note_off_c, 0, 64, 70
1, 486275, Note_off_c, 0, 72, 56
1, 486279, Note_off_c, 0, 52, 64
1, 486287, Note_off_c, 0, 60, 61
1, 486297, Note_off_c, 0, 79, 58
1, 486298, Note_off_c, 0, 84, 56
1, 486304, Note_off_c, 0, 82, 53
1, 486411, Note_on_c, 0, 60, 69
1, 486413, Note_on_c, 0, 82, 80
1, 486414, Note_on_c, 0, 52, 43
1, 486417, Note_on_c, 0, 64, 70
1, 486418, Note_on_c, 0, 72, 87
1, 486419, Note_on_c, 0, 55, 57
1, 486419, Note_on_c, 0, 79, 78
1, 486421, Note_on_c, 0, 84, 74
1, 486438, Note_off_c, 0, 64, 64
1, 486444, Note_off_c, 0, 55, 62
1, 486450, Note_off_c, 0, 84, 63
1, 486452, Note_off_c, 0, 52, 50
1, 486453, Note_off_c, 0, 72, 58
1, 486459, Note_off_c, 0, 60, 60
1, 486471, Note_off_c, 0, 79, 60
1, 486477, Note_off_c, 0, 82, 59
1, 486550, Note_on_c, 0, 64, 60
1, 486551, Note_on_c, 0, 55, 59
1, 486553, Note_on_c, 0, 52, 52
1, 486553, Note_on_c, 0, 72, 88
1, 486557, Note_on_c, 0, 60, 70
1, 486557, Note_on_c, 0, 82, 80
1, 486563, Note_on_c, 0, 84, 64
1, 486563, Note_on_c, 0, 79, 74
1, 486579, Note_off_c, 0, 55, 64
1, 486580, Note_off_c, 0, 52, 56
1, 486581, Note_off_c, 0, 64, 65
1, 486582, Note_off_c, 0, 60, 66
1, 486589, Note_off_c, 0, 84, 68
1, 486590, Note_off_c, 0, 72, 54
1, 486594, Note_off_c, 0, 79, 61
1, 486603, Note_off_c, 0, 82, 63
1, 486664, Note_on_c, 0, 64, 79
1, 486665, Note_on_c, 0, 60, 72
1, 486665, Note_on_c, 0, 52, 59
1, 486669, Note_on_c, 0, 55, 73
1, 486673, Note_on_c, 0, 82, 81
1, 486675, Note_on_c, 0, 72, 85
1, 486679, Note_on_c, 0, 84, 56
1, 486681, Note_on_c, 0, 79, 79
1, 486687, Note_off_c, 0, 64, 68
1, 486695, Note_off_c, 0, 55, 66
1, 486697, Note_off_c, 0, 52, 62
1, 486698, Note_off_c, 0, 72, 66
1, 486698, Note_off_c, 0, 84, 65
1, 486702, Note_off_c, 0, 60, 63
1, 486706, Note_off_c, 0, 79, 65
1, 486718, Note_off_c, 0, 82, 61
1, 486753, Poly_aftertouch_c, 0, 82, 0
1, 486759, Note_on_c, 0, 82, 77
1, 486764, Note_on_c, 0, 55, 73
1, 486765, Note_on_c, 0, 64, 82
1, 486765, Note_on_c, 0, 72, 84
1, 486766, Note_on_c, 0, 60, 74
1, 486767, Note_on_c, 0, 52, 72
1, 486772, Note_on_c, 0, 84, 63
1, 486773, Note_on_c, 0, 79, 79
1, 486787, Note_off_c, 0, 64, 70
1, 486790, Note_off_c, 0, 72, 66
1, 486790, Note_off_c, 0, 84, 66
1, 486793, Note_off_c, 0, 52, 66
1, 486795, Note_off_c, 0, 55, 64
1, 486801, Note_off_c, 0, 79, 65
1, 486807, Note_off_c, 0, 60, 66
1, 486809, Note_off_c, 0, 82, 64
1, 486841, Poly_aftertouch_c, 0, 60, 0
1, 486843, Note_on_c, 0, 82, 79
1, 486846, Note_on_c, 0, 72, 91
1, 486847, Note_on_c, 0, 64, 93
1, 486848, Note_on_c, 0, 60, 68
1, 486849, Note_on_c, 0, 79, 80
1, 486849, Note_on_c, 0, 84, 74
1, 486853, Note_on_c, 0, 55, 72
1, 486855, Note_on_c, 0, 52, 65
1, 486871, Note_off_c, 0, 72, 63
1, 486873, Note_off_c, 0, 64, 62
1, 486875, Note_off_c, 0, 55, 69
1, 486875, Note_off_c, 0, 84, 68
1, 486886, Note_off_c, 0, 79, 61
1, 486888, Note_off_c, 0, 52, 66
1, 486888, Note_off_c, 0, 60, 67
1, 486893, Note_off_c, 0, 82, 65
1, 487171, Control_c, 0, 64, 93
1, 487186, Control_c, 0, 64, 69
1, 487201, Control_c, 0, 64, 0
1, 487283, Note_on_c, 0, 64, 79
1, 487285, Note_on_c, 0, 61, 83
1, 487285, Note_on_c, 0, 73, 103
1, 487287, Note_on_c, 0, 52, 67
1, 487287, Note_on_c, 0, 85, 91
1, 487288, Note_on_c, 0, 81, 87
1, 487290, Note_on_c, 0, 55, 75
1, 487291, Note_on_c, 0, 79, 87
1, 487294, Note_on_c, 0, 57, 76
1, 487314, Note_off_c, 0, 64, 65
1, 487319, Control_c, 0, 64, 58
1, 487325, Note_off_c, 0, 85, 63
1, 487329, Note_off_c, 0, 79, 65
1, 487329, Note_off_c, 0, 52, 63
1, 487332, Note_off_c, 0, 81, 65
1, 487334, Control_c, 0, 64, 78
1, 487335, Note_off_c, 0, 57, 64
1, 487336, Note_off_c, 0, 55, 64
1, 487338, Note_off_c, 0, 61, 64
1, 487349, Control_c, 0, 64, 127
1, 487353, Note_off_c, 0, 73, 62
1, 487737, Note_on_c, 0, 45, 98
1, 487737, Note_on_c, 0, 57, 88
1, 487738, Note_on_c, 0, 69, 83
1, 487747, Note_on_c, 0, 33, 71
1, 487767, Note_off_c, 0, 57, 69
1, 487773, Note_off_c, 0, 45, 67
1, 487778, Note_off_c, 0, 33, 60
1, 487790, Note_off_c, 0, 69, 70
1, 488024, Note_on_c, 0, 61, 69
1, 488030, Note_on_c, 0, 57, 60
1, 488030, Note_on_c, 0, 64, 67
1, 488034, Note_on_c, 0, 73, 80
1, 488035, Note_on_c, 0, 52, 49
1, 488037, Note_on_c, 0, 85, 74
1, 488042, Note_on_c, 0, 81, 73
1, 488045, Note_on_c, 0, 79, 70
1, 488050, Note_on_c, 0, 55, 51
1, 488060, Note_off_c, 0, 64, 64
1, 488073, Note_off_c, 0, 55, 62
1, 488073, Note_off_c, 0, 57, 56
1, 488074, Note_off_c, 0, 73, 53
1, 488077, Note_off_c, 0, 52, 59
1, 488086, Note_off_c, 0, 61, 62
1, 488098, Note_off_c, 0, 85, 49
1, 488101, Note_off_c, 0, 81, 55
1, 488102, Note_off_c, 0, 79, 41
1, 488172, Note_on_c, 0, 55, 55
1, 488172, Note_on_c, 0, 64, 72
1, 488173, Note_on_c, 0, 61, 73
1, 488175, Note_on_c, 0, 73, 76
1, 488179, Note_on_c, 0, 52, 52
1, 488181, Note_on_c, 0, 79, 65
1, 488182, Note_on_c, 0, 57, 63
1, 488182, Note_on_c, 0, 81, 67
1, 488187, Note_on_c, 0, 85, 66
1, 488197, Note_off_c, 0, 64, 66
1, 488204, Note_off_c, 0, 73, 58
1, 488209, Note_off_c, 0, 52, 53
1, 488209, Note_off_c, 0, 55, 62
1, 488212, Note_off_c, 0, 57, 66
1, 488218, Note_off_c, 0, 81, 59
1, 488218, Note_off_c, 0, 85, 64
1, 488223, Note_off_c, 0, 79, 59
1, 488226, Note_off_c, 0, 61, 60
1, 488285, Note_on_c, 0, 57, 73
1, 488287, Note_on_c, 0, 64, 77
1, 488289, Note_on_c, 0, 61, 66
1, 488290, Note_on_c, 0, 55, 65
1, 488292, Note_on_c, 0, 52, 53
1, 488296, Note_on_c, 0, 73, 75
1, 488300, Note_on_c, 0, 85, 69
1, 488301, Note_on_c, 0, 79, 62
1, 488303, Note_on_c, 0, 81, 65
1, 488312, Note_off_c, 0, 52, 65
1, 488313, Note_off_c, 0, 64, 66
1, 488319, Note_off_c, 0, 55, 63
1, 488321, Note_off_c, 0, 73, 68
1, 488324, Note_off_c, 0, 85, 69
1, 488325, Note_off_c, 0, 61, 64
1, 488325, Note_off_c, 0, 57, 61
1, 488327, Note_off_c, 0, 79, 66
1, 488328, Note_off_c, 0, 81, 69
1, 488385, Note_on_c, 0, 55, 71
1, 488387, Note_on_c, 0, 61, 71
1, 488387, Note_on_c, 0, 81, 73
1, 488388, Note_on_c, 0, 52, 51
1, 488390, Note_on_c, 0, 64, 79
1, 488392, Note_on_c, 0, 57, 73
1, 488392, Note_on_c, 0, 73, 83
1, 488396, Note_on_c, 0, 79, 76
1, 488399, Note_on_c, 0, 85, 74
1, 488411, Note_off_c, 0, 73, 68
1, 488412, Note_off_c, 0, 64, 69
1, 488414, Note_off_c, 0, 52, 56
1, 488419, Note_off_c, 0, 55, 57
1, 488419, Note_off_c, 0, 57, 66
1, 488419, Note_off_c, 0, 81, 59
1, 488420, Note_off_c, 0, 79, 67
1, 488425, Note_off_c, 0, 85, 66
1, 488426, Note_off_c, 0, 61, 64
1, 488468, Poly_aftertouch_c, 0, 61, 0
1, 488475, Note_on_c, 0, 61, 64
1, 488478, Note_on_c, 0, 64, 82
1, 488479, Note_on_c, 0, 85, 76
1, 488480, Note_on_c, 0, 73, 87
1, 488486, Note_on_c, 0, 57, 73
1, 488487, Note_on_c, 0, 55, 60
1, 488487, Note_on_c, 0, 81, 69
1, 488490, Note_on_c, 0, 52, 55
1, 488491, Note_on_c, 0, 79, 73
1, 488516, Note_off_c, 0, 73, 56
1, 488516, Note_off_c, 0, 85, 59
1, 488517, Note_off_c, 0, 64, 64
1, 488519, Note_off_c, 0, 57, 67
1, 488520, Note_off_c, 0, 79, 67
1, 488522, Note_off_c, 0, 55, 68
1, 488522, Note_off_c, 0, 52, 60
1, 488522, Note_off_c, 0, 81, 70
1, 488531, Note_off_c, 0, 61, 63
1, 488569, Note_on_c, 0, 61, 57
1, 488569, Note_on_c, 0, 64, 82
1, 488577, Note_on_c, 0, 73, 81
1, 488577, Note_on_c, 0, 79, 77
1, 488581, Note_on_c, 0, 55, 69
1, 488581, Note_on_c, 0, 57, 78
1, 488582, Note_on_c, 0, 81, 74
1, 488588, Note_off_c, 0, 64, 69
1, 488599, Note_off_c, 0, 73, 68
1, 488607, Note_on_c, 0, 52, 46
1, 488608, Note_off_c, 0, 57, 67
1, 488608, Note_off_c, 0, 81, 67
1, 488609, Note_on_c, 0, 85, 34
1, 488609, Note_off_c, 0, 55, 65
1, 488616, Note_off_c, 0, 61, 61
1, 488620, Note_off_c, 0, 79, 59
1, 488631, Note_off_c, 0, 52, 58
1, 488650, Note_off_c, 0, 85, 0
1, 488655, Poly_aftertouch_c, 0, 61, 0
1, 488658, Note_on_c, 0, 79, 68
1, 488658, Note_on_c, 0, 81, 81
1, 488661, Note_on_c, 0, 64, 91
1, 488662, Note_on_c, 0, 73, 87
1, 488662, Note_on_c, 0, 61, 65
1, 488663, Note_on_c, 0, 85, 53
1, 488666, Note_on_c, 0, 55, 73
1, 488669, Note_on_c, 0, 57, 80
1, 488679, Note_off_c, 0, 64, 72
1, 488680, Note_off_c, 0, 73, 72
1, 488683, Note_on_c, 0, 52, 45
1, 488700, Note_off_c, 0, 55, 63
1, 488703, Note_off_c, 0, 79, 64
1, 488704, Note_off_c, 0, 57, 66
1, 488704, Note_off_c, 0, 85, 63
1, 488706, Note_off_c, 0, 61, 63
1, 488709, Note_off_c, 0, 81, 67
1, 488709, Note_off_c, 0, 52, 61
1, 488996, Control_c, 0, 64, 110
1, 489011, Control_c, 0, 64, 90
1, 489025, Control_c, 0, 64, 77
1, 489040, Control_c, 0, 64, 66
1, 489055, Control_c, 0, 64, 51
1, 489070, Control_c, 0, 64, 0
1, 489084, Note_on_c, 0, 73, 96
1, 489086, Note_on_c, 0, 81, 85
1, 489088, Note_on_c, 0, 61, 77
1, 489088, Note_on_c, 0, 85, 80
1, 489089, Note_on_c, 0, 64, 76
1, 489089, Note_on_c, 0, 79, 87
1, 489090, Note_on_c, 0, 52, 66
1, 489091, Note_on_c, 0, 55, 73
1, 489094, Note_on_c, 0, 57, 81
1, 489159, Control_c, 0, 64, 54
1, 489174, Control_c, 0, 64, 66
1, 489189, Control_c, 0, 64, 80
1, 489204, Control_c, 0, 64, 103
1, 489219, Control_c, 0, 64, 127
1, 489239, Note_off_c, 0, 85, 63
1, 489239, Note_off_c, 0, 52, 60
1, 489247, Note_off_c, 0, 73, 62
1, 489247, Note_off_c, 0, 64, 63
1, 489261, Note_off_c, 0, 55, 62
1, 489263, Note_off_c, 0, 57, 64
1, 489271, Note_off_c, 0, 61, 63
1, 489274, Note_off_c, 0, 81, 59
1, 489276, Note_off_c, 0, 79, 52
1, 489479, Control_c, 0, 64, 98
1, 489493, Control_c, 0, 64, 75
1, 489499, Note_on_c, 0, 73, 99
1, 489499, Note_on_c, 0, 64, 85
1, 489501, Note_on_c, 0, 55, 78
1, 489501, Note_on_c, 0, 82, 91
1, 489501, Note_on_c, 0, 85, 86
1, 489502, Note_on_c, 0, 52, 70
1, 489502, Note_on_c, 0, 61, 83
1, 489505, Note_on_c, 0, 79, 87
1, 489507, Note_on_c, 0, 58, 79
1, 489508, Control_c, 0, 64, 56
1, 489523, Control_c, 0, 64, 50
1, 489537, Note_off_c, 0, 52, 63
1, 489538, Control_c, 0, 64, 65
1, 489546, Note_off_c, 0, 64, 65
1, 489549, Note_off_c, 0, 58, 61
1, 489550, Note_off_c, 0, 61, 65
1, 489553, Note_off_c, 0, 55, 62
1, 489553, Control_c, 0, 64, 78
1, 489559, Note_off_c, 0, 85, 65
1, 489561, Note_off_c, 0, 79, 63
1, 489562, Note_off_c, 0, 73, 62
1, 489567, Control_c, 0, 64, 110
1, 489582, Note_off_c, 0, 82, 64
1, 489582, Control_c, 0, 64, 127
1, 489878, Control_c, 0, 64, 107
1, 489893, Control_c, 0, 64, 81
1, 489896, Note_on_c, 0, 53, 84
1, 489896, Note_on_c, 0, 65, 90
1, 489898, Note_on_c, 0, 73, 99
1, 489898, Note_on_c, 0, 82, 95
1, 489898, Note_on_c, 0, 85, 87
1, 489900, Note_on_c, 0, 58, 82
1, 489900, Note_on_c, 0, 61, 85
1, 489900, Note_on_c, 0, 77, 89
1, 489908, Control_c, 0, 64, 63
1, 489923, Control_c, 0, 64, 51
1, 489938, Control_c, 0, 64, 64
1, 489949, Note_off_c, 0, 53, 66
1, 489952, Control_c, 0, 64, 79
1, 489959, Note_off_c, 0, 65, 63
1, 489965, Note_off_c, 0, 61, 64
1, 489967, Note_off_c, 0, 58, 64
1, 489967, Control_c, 0, 64, 117
1, 489973, Note_off_c, 0, 85, 65
1, 489982, Control_c, 0, 64, 127
1, 489983, Note_off_c, 0, 73, 60
1, 490018, Note_off_c, 0, 77, 58
1, 490066, Note_off_c, 0, 82, 60
1, 490331, Control_c, 0, 64, 114
1, 490338, Note_on_c, 0, 67, 103
1, 490338, Note_on_c, 0, 75, 87
1, 490339, Note_on_c, 0, 73, 99
1, 490339, Note_on_c, 0, 82, 93
1, 490340, Note_on_c, 0, 85, 88
1, 490340, Note_on_c, 0, 55, 84
1, 490342, Note_on_c, 0, 58, 90
1, 490343, Note_on_c, 0, 63, 92
1, 490346, Control_c, 0, 64, 81
1, 490361, Control_c, 0, 64, 59
1, 490376, Control_c, 0, 64, 0
1, 490405, Control_c, 0, 64, 34
1, 490420, Control_c, 0, 64, 63
1, 490435, Control_c, 0, 64, 82
1, 490450, Control_c, 0, 64, 127
1, 490482, Note_off_c, 0, 85, 56
1, 490497, Note_off_c, 0, 75, 53
1, 490534, Note_off_c, 0, 73, 56
1, 490538, Note_off_c, 0, 55, 57
1, 490569, Note_off_c, 0, 67, 65
1, 490593, Note_off_c, 0, 63, 59
1, 490716, Note_off_c, 0, 82, 39
1, 490784, Control_c, 0, 64, 115
1, 490799, Control_c, 0, 64, 78
1, 490800, Note_on_c, 0, 56, 83
1, 490802, Note_on_c, 0, 68, 90
1, 490807, Note_on_c, 0, 72, 100
1, 490808, Note_on_c, 0, 63, 91
1, 490809, Note_on_c, 0, 80, 95
1, 490809, Note_on_c, 0, 84, 86
1, 490810, Note_on_c, 0, 75, 88
1, 490813, Control_c, 0, 64, 0
1, 490856, Note_off_c, 0, 58, 62
1, 490873, Control_c, 0, 64, 62
1, 490874, Note_off_c, 0, 68, 64
1, 490878, Note_off_c, 0, 56, 64
1, 490887, Control_c, 0, 64, 80
1, 490894, Note_off_c, 0, 63, 60
1, 490902, Control_c, 0, 64, 127
1, 491066, Note_off_c, 0, 72, 52
1, 491115, Note_off_c, 0, 75, 51
1, 491149, Note_off_c, 0, 84, 62
1, 491170, Note_off_c, 0, 80, 61
1, 491190, Note_on_c, 0, 51, 96
1, 491231, Note_off_c, 0, 51, 64
1, 491410, Note_on_c, 0, 58, 88
1, 491411, Note_on_c, 0, 80, 94
1, 491413, Note_on_c, 0, 77, 99
1, 491414, Note_on_c, 0, 89, 87
1, 491415, Note_on_c, 0, 68, 91
1, 491419, Note_on_c, 0, 61, 84
1, 491419, Control_c, 0, 64, 87
1, 491434, Control_c, 0, 64, 60
1, 491444, Note_on_c, 0, 88, 57
1, 491445, Note_off_c, 0, 88, 127
1, 491449, Control_c, 0, 64, 0
1, 491451, Note_on_c, 0, 63, 44
1, 491469, Note_off_c, 0, 68, 65
1, 491477, Note_off_c, 0, 63, 58
1, 491479, Control_c, 0, 64, 62
1, 491488, Note_off_c, 0, 89, 65
1, 491490, Note_off_c, 0, 58, 62
1, 491494, Control_c, 0, 64, 79
1, 491505, Note_off_c, 0, 61, 62
1, 491510, Note_off_c, 0, 77, 57
1, 491516, Control_c, 0, 64, 127
1, 491541, Note_off_c, 0, 80, 63
1, 492067, Note_on_c, 0, 55, 100
1, 492068, Note_on_c, 0, 51, 97
1, 492070, Note_on_c, 0, 39, 89
1, 492070, Note_on_c, 0, 61, 86
1, 492070, Note_on_c, 0, 67, 86
1, 492072, Note_on_c, 0, 63, 87
1, 492095, Control_c, 0, 64, 100
1, 492110, Control_c, 0, 64, 73
1, 492125, Control_c, 0, 64, 0
1, 492340, Control_c, 0, 64, 15
1, 492355, Control_c, 0, 64, 49
1, 492369, Control_c, 0, 64, 63
1, 492385, Control_c, 0, 64, 72
1, 492400, Control_c, 0, 64, 86
1, 492415, Control_c, 0, 64, 104
1, 492430, Control_c, 0, 64, 127
1, 492474, Note_off_c, 0, 51, 62
1, 492552, Note_off_c, 0, 55, 59
1, 492555, Note_off_c, 0, 39, 55
1, 492561, Note_off_c, 0, 61, 57
1, 492567, Note_off_c, 0, 67, 59
1, 492829, Control_c, 0, 64, 108
1, 492844, Control_c, 0, 64, 80
1, 492859, Control_c, 0, 64, 53
1, 492871, Note_on_c, 0, 56, 94
1, 492871, Note_on_c, 0, 68, 87
1, 492871, Note_on_c, 0, 60, 85
1, 492872, Note_on_c, 0, 44, 92
1, 492874, Control_c, 0, 64, 0
1, 492877, Note_on_c, 0, 32, 85
1, 492897, Note_off_c, 0, 63, 54
1, 492903, Control_c, 0, 64, 40
1, 492905, Note_off_c, 0, 32, 66
1, 492910, Note_off_c, 0, 44, 62
1, 492918, Control_c, 0, 64, 64
1, 492925, Note_off_c, 0, 60, 64
1, 492933, Control_c, 0, 64, 74
1, 492948, Control_c, 0, 64, 88
1, 492953, Note_off_c, 0, 56, 55
1, 492958, Note_off_c, 0, 68, 66
1, 492963, Control_c, 0, 64, 102
1, 492977, Control_c, 0, 64, 109
1, 493073, Control_c, 0, 64, 107
1, 493088, Control_c, 0, 64, 99
1, 493103, Control_c, 0, 64, 87
1, 493118, Control_c, 0, 64, 71
1, 493133, Control_c, 0, 64, 45
1, 493148, Control_c, 0, 64, 0
1, 493224, Note_on_c, 0, 34, 69
1, 493226, Note_on_c, 0, 46, 74
1, 493227, Note_on_c, 0, 63, 93
1, 493228, Note_on_c, 0, 61, 83
1, 493231, Note_on_c, 0, 55, 80
1, 493252, Control_c, 0, 64, 21
1, 493255, Note_off_c, 0, 55, 68
1, 493258, Note_off_c, 0, 46, 67
1, 493261, Note_off_c, 0, 34, 66
1, 493267, Note_off_c, 0, 61, 60
1, 493267, Control_c, 0, 64, 58
1, 493282, Control_c, 0, 64, 66
1, 493297, Control_c, 0, 64, 71
1, 493312, Control_c, 0, 64, 74
1, 493327, Control_c, 0, 64, 77
1, 493341, Control_c, 0, 64, 78
1, 493356, Control_c, 0, 64, 79
1, 493371, Control_c, 0, 64, 80
1, 493386, Control_c, 0, 64, 81
1, 493430, Control_c, 0, 64, 80
1, 493445, Control_c, 0, 64, 72
1, 493460, Control_c, 0, 64, 52
1, 493475, Control_c, 0, 64, 0
1, 493498, Note_on_c, 0, 56, 76
1, 493498, Note_on_c, 0, 60, 75
1, 493502, Note_on_c, 0, 36, 62
1, 493505, Note_on_c, 0, 48, 53
1, 493524, Note_off_c, 0, 60, 69
1, 493524, Note_off_c, 0, 56, 68
1, 493530, Note_off_c, 0, 36, 62
1, 493530, Note_off_c, 0, 48, 56
1, 493533, Control_c, 0, 64, 59
1, 493548, Control_c, 0, 64, 70
1, 493551, Note_off_c, 0, 63, 65
1, 493563, Control_c, 0, 64, 86
1, 493578, Control_c, 0, 64, 102
1, 493593, Control_c, 0, 64, 116
1, 493607, Control_c, 0, 64, 127
1, 493726, Control_c, 0, 64, 102
1, 493741, Control_c, 0, 64, 79
1, 493763, Control_c, 0, 64, 55
1, 493765, Note_on_c, 0, 72, 82
1, 493768, Note_on_c, 0, 29, 64
1, 493771, Note_on_c, 0, 68, 71
1, 493774, Note_on_c, 0, 41, 47
1, 493774, Note_on_c, 0, 61, 66
1, 493778, Control_c, 0, 64, 0
1, 493793, Control_c, 0, 64, 28
1, 493801, Note_off_c, 0, 41, 55
1, 493802, Note_off_c, 0, 68, 64
1, 493803, Note_off_c, 0, 29, 62
1, 493803, Note_off_c, 0, 61, 65
1, 493807, Control_c, 0, 64, 60
1, 493822, Control_c, 0, 64, 70
1, 493837, Control_c, 0, 64, 81
1, 493851, Control_c, 0, 64, 99
1, 493866, Control_c, 0, 64, 116
1, 493881, Control_c, 0, 64, 127
1, 494001, Control_c, 0, 64, 96
1, 494016, Control_c, 0, 64, 75
1, 494026, Note_on_c, 0, 31, 65
1, 494027, Note_on_c, 0, 70, 82
1, 494030, Note_on_c, 0, 63, 81
1, 494030, Note_on_c, 0, 43, 72
1, 494031, Control_c, 0, 64, 56
1, 494034, Note_on_c, 0, 61, 77
1, 494039, Note_off_c, 0, 72, 65
1, 494046, Control_c, 0, 64, 33
1, 494059, Note_off_c, 0, 43, 64
1, 494059, Note_off_c, 0, 61, 67
1, 494060, Note_off_c, 0, 31, 60
1, 494061, Control_c, 0, 64, 56
1, 494072, Note_off_c, 0, 63, 62
1, 494076, Control_c, 0, 64, 66
1, 494077, Note_off_c, 0, 70, 63
1, 494091, Control_c, 0, 64, 74
1, 494105, Control_c, 0, 64, 85
1, 494120, Control_c, 0, 64, 94
1, 494135, Control_c, 0, 64, 100
1, 494150, Control_c, 0, 64, 103
1, 494164, Control_c, 0, 64, 108
1, 494179, Control_c, 0, 64, 114
1, 494194, Control_c, 0, 64, 127
1, 494254, Control_c, 0, 64, 109
1, 494269, Control_c, 0, 64, 88
1, 494283, Control_c, 0, 64, 68
1, 494286, Note_on_c, 0, 53, 73
1, 494290, Note_on_c, 0, 41, 61
1, 494291, Note_on_c, 0, 56, 77
1, 494291, Note_on_c, 0, 68, 81
1, 494293, Note_on_c, 0, 61, 78
1, 494298, Control_c, 0, 64, 32
1, 494313, Control_c, 0, 64, 0
1, 494314, Note_off_c, 0, 53, 68
1, 494319, Note_off_c, 0, 56, 64
1, 494321, Note_off_c, 0, 41, 63
1, 494322, Note_off_c, 0, 61, 62
1, 494328, Control_c, 0, 64, 44
1, 494343, Control_c, 0, 64, 62
1, 494357, Control_c, 0, 64, 69
1, 494372, Control_c, 0, 64, 76
1, 494387, Control_c, 0, 64, 81
1, 494402, Control_c, 0, 64, 82
1, 494446, Control_c, 0, 64, 81
1, 494461, Control_c, 0, 64, 78
1, 494475, Control_c, 0, 64, 70
1, 494490, Control_c, 0, 64, 48
1, 494513, Control_c, 0, 64, 0
1, 494553, Note_on_c, 0, 51, 63
1, 494554, Note_on_c, 0, 39, 62
1, 494554, Note_on_c, 0, 63, 81
1, 494557, Note_on_c, 0, 58, 78
1, 494557, Note_on_c, 0, 67, 83
1, 494561, Note_off_c, 0, 68, 64
1, 494582, Note_off_c, 0, 51, 65
1, 494584, Note_off_c, 0, 39, 59
1, 494587, Control_c, 0, 64, 45
1, 494602, Control_c, 0, 64, 63
1, 494606, Note_off_c, 0, 58, 57
1, 494610, Note_off_c, 0, 63, 60
1, 494617, Control_c, 0, 64, 73
1, 494631, Control_c, 0, 64, 85
1, 494646, Control_c, 0, 64, 99
1, 494661, Control_c, 0, 64, 111
1, 494675, Control_c, 0, 64, 114
1, 494735, Control_c, 0, 64, 111
1, 494749, Control_c, 0, 64, 96
1, 494764, Control_c, 0, 64, 76
1, 494780, Control_c, 0, 64, 49
1, 494795, Control_c, 0, 64, 0
1, 494807, Note_on_c, 0, 37, 61
1, 494807, Note_on_c, 0, 49, 67
1, 494807, Note_off_c, 0, 67, 56
1, 494814, Note_on_c, 0, 65, 88
1, 494819, Note_on_c, 0, 55, 76
1, 494837, Note_off_c, 0, 49, 65
1, 494841, Note_off_c, 0, 37, 64
1, 494846, Note_off_c, 0, 55, 66
1, 494853, Control_c, 0, 64, 32
1, 494868, Control_c, 0, 64, 56
1, 494883, Control_c, 0, 64, 64
1, 494898, Control_c, 0, 64, 71
1, 494913, Control_c, 0, 64, 79
1, 494924, Note_on_c, 0, 67, 81
1, 494928, Control_c, 0, 64, 85
1, 494943, Control_c, 0, 64, 89
1, 494944, Note_off_c, 0, 65, 37
1, 494957, Control_c, 0, 64, 90
1, 494987, Control_c, 0, 64, 90
1, 495002, Control_c, 0, 64, 81
1, 495017, Control_c, 0, 64, 66
1, 495032, Control_c, 0, 64, 0
1, 495045, Note_on_c, 0, 48, 49
1, 495047, Note_on_c, 0, 36, 50
1, 495047, Note_on_c, 0, 65, 89
1, 495053, Note_on_c, 0, 56, 75
1, 495071, Note_off_c, 0, 48, 56
1, 495071, Note_off_c, 0, 67, 61
1, 495074, Note_off_c, 0, 36, 53
1, 495078, Note_off_c, 0, 56, 68
1, 495091, Control_c, 0, 64, 31
1, 495105, Control_c, 0, 64, 55
1, 495120, Control_c, 0, 64, 63
1, 495150, Control_c, 0, 64, 54
1, 495157, Note_on_c, 0, 63, 82
1, 495165, Control_c, 0, 64, 0
1, 495220, Note_off_c, 0, 65, 54
1, 495276, Control_c, 0, 64, 29
1, 495284, Note_on_c, 0, 34, 65
1, 495285, Note_on_c, 0, 46, 65
1, 495286, Note_on_c, 0, 61, 77
1, 495291, Note_on_c, 0, 55, 73
1, 495291, Control_c, 0, 64, 65
1, 495305, Control_c, 0, 64, 76
1, 495312, Note_off_c, 0, 34, 64
1, 495315, Note_off_c, 0, 46, 66
1, 495315, Note_off_c, 0, 55, 65
1, 495320, Control_c, 0, 64, 90
1, 495335, Control_c, 0, 64, 97
1, 495338, Note_off_c, 0, 61, 61
1, 495350, Control_c, 0, 64, 97
1, 495409, Control_c, 0, 64, 95
1, 495424, Control_c, 0, 64, 89
1, 495439, Control_c, 0, 64, 74
1, 495453, Control_c, 0, 64, 52
1, 495468, Control_c, 0, 64, 0
1, 495532, Note_on_c, 0, 56, 76
1, 495534, Note_on_c, 0, 60, 74
1, 495538, Note_on_c, 0, 44, 62
1, 495539, Note_on_c, 0, 32, 60
1, 495542, Control_c, 0, 64, 33
1, 495557, Note_off_c, 0, 56, 67
1, 495557, Control_c, 0, 64, 64
1, 495559, Note_off_c, 0, 60, 69
1, 495572, Note_off_c, 0, 44, 62
1, 495573, Control_c, 0, 64, 80
1, 495577, Note_off_c, 0, 32, 63
1, 495588, Control_c, 0, 64, 104
1, 495591, Note_off_c, 0, 63, 64
1, 495602, Control_c, 0, 64, 127
1, 495750, Control_c, 0, 64, 91
1, 495765, Control_c, 0, 64, 70
1, 495780, Control_c, 0, 64, 41
1, 495789, Note_on_c, 0, 72, 85
1, 495791, Note_on_c, 0, 29, 66
1, 495793, Note_on_c, 0, 41, 57
1, 495794, Note_on_c, 0, 68, 77
1, 495795, Control_c, 0, 64, 14
1, 495796, Note_on_c, 0, 61, 74
1, 495810, Control_c, 0, 64, 54
1, 495821, Note_off_c, 0, 41, 60
1, 495825, Note_off_c, 0, 61, 66
1, 495825, Control_c, 0, 64, 66
1, 495825, Note_off_c, 0, 29, 63
1, 495834, Note_off_c, 0, 68, 62
1, 495840, Control_c, 0, 64, 75
1, 495854, Control_c, 0, 64, 91
1, 495869, Control_c, 0, 64, 106
1, 495884, Control_c, 0, 64, 127
1, 496010, Control_c, 0, 64, 99
1, 496025, Control_c, 0, 64, 76
1, 496039, Control_c, 0, 64, 48
1, 496051, Note_on_c, 0, 70, 80
1, 496054, Note_on_c, 0, 31, 64
1, 496054, Control_c, 0, 64, 0
1, 496057, Note_on_c, 0, 61, 76
1, 496057, Note_on_c, 0, 63, 81
1, 496060, Note_on_c, 0, 43, 68
1, 496066, Note_off_c, 0, 72, 64
1, 496069, Control_c, 0, 64, 40
1, 496082, Note_off_c, 0, 31, 57
1, 496084, Control_c, 0, 64, 62
1, 496084, Note_off_c, 0, 61, 64
1, 496090, Note_off_c, 0, 43, 65
1, 496099, Control_c, 0, 64, 71
1, 496102, Note_off_c, 0, 70, 65
1, 496102, Note_off_c, 0, 63, 60
1, 496114, Control_c, 0, 64, 82
1, 496128, Control_c, 0, 64, 93
1, 496143, Control_c, 0, 64, 103
1, 496158, Control_c, 0, 64, 108
1, 496173, Control_c, 0, 64, 114
1, 496188, Control_c, 0, 64, 127
1, 496276, Control_c, 0, 64, 92
1, 496291, Control_c, 0, 64, 71
1, 496306, Control_c, 0, 64, 46
1, 496313, Note_on_c, 0, 56, 76
1, 496313, Note_on_c, 0, 68, 80
1, 496316, Note_on_c, 0, 53, 65
1, 496316, Note_on_c, 0, 61, 75
1, 496318, Note_on_c, 0, 41, 61
1, 496321, Control_c, 0, 64, 0
1, 496335, Control_c, 0, 64, 48
1, 496338, Note_off_c, 0, 56, 67
1, 496342, Note_off_c, 0, 61, 66
1, 496344, Note_off_c, 0, 53, 66
1, 496350, Note_off_c, 0, 41, 63
1, 496350, Control_c, 0, 64, 63
1, 496365, Control_c, 0, 64, 69
1, 496381, Control_c, 0, 64, 76
1, 496396, Control_c, 0, 64, 82
1, 496411, Control_c, 0, 64, 84
1, 496425, Control_c, 0, 64, 84
1, 496485, Control_c, 0, 64, 82
1, 496499, Control_c, 0, 64, 75
1, 496514, Control_c, 0, 64, 59
1, 496529, Control_c, 0, 64, 0
1, 496564, Note_on_c, 0, 51, 66
1, 496566, Note_on_c, 0, 39, 67
1, 496567, Note_on_c, 0, 58, 86
1, 496567, Note_on_c, 0, 67, 85
1, 496573, Control_c, 0, 64, 24
1, 496576, Note_on_c, 0, 63, 73
1, 496588, Control_c, 0, 64, 60
1, 496595, Note_off_c, 0, 51, 65
1, 496598, Note_off_c, 0, 39, 60
1, 496603, Note_off_c, 0, 63, 69
1, 496603, Control_c, 0, 64, 71
1, 496604, Note_off_c, 0, 68, 60
1, 496618, Control_c, 0, 64, 79
1, 496629, Note_off_c, 0, 58, 52
1, 496633, Control_c, 0, 64, 82
1, 496662, Control_c, 0, 64, 81
1, 496677, Control_c, 0, 64, 80
1, 496692, Control_c, 0, 64, 79
1, 496707, Control_c, 0, 64, 77
1, 496722, Control_c, 0, 64, 71
1, 496737, Control_c, 0, 64, 59
1, 496758, Control_c, 0, 64, 0
1, 496815, Note_on_c, 0, 49, 72
1, 496817, Note_on_c, 0, 65, 79
1, 496818, Note_on_c, 0, 58, 85
1, 496823, Note_on_c, 0, 68, 78
1, 496823, Note_on_c, 0, 37, 60
1, 496844, Note_off_c, 0, 49, 66
1, 496847, Control_c, 0, 64, 37
1, 496848, Note_off_c, 0, 67, 55
1, 496850, Note_off_c, 0, 37, 55
1, 496862, Control_c, 0, 64, 39
1, 496866, Note_off_c, 0, 58, 60
1, 496877, Control_c, 0, 64, 0
1, 496898, Note_off_c, 0, 65, 61
1, 496933, Note_on_c, 0, 70, 80
1, 496937, Note_on_c, 0, 67, 73
1, 496997, Note_off_c, 0, 68, 51
1, 497057, Note_on_c, 0, 63, 84
1, 497060, Note_on_c, 0, 49, 64
1, 497061, Note_on_c, 0, 37, 62
1, 497061, Note_on_c, 0, 58, 80
1, 497079, Note_off_c, 0, 70, 59
1, 497083, Control_c, 0, 64, 57
1, 497088, Note_off_c, 0, 67, 60
1, 497089, Note_off_c, 0, 49, 65
1, 497095, Note_off_c, 0, 37, 63
1, 497098, Control_c, 0, 64, 64
1, 497113, Control_c, 0, 64, 69
1, 497128, Control_c, 0, 64, 75
1, 497137, Note_off_c, 0, 58, 59
1, 497143, Control_c, 0, 64, 81
1, 497157, Control_c, 0, 64, 86
1, 497173, Control_c, 0, 64, 91
1, 497188, Control_c, 0, 64, 93
1, 497233, Control_c, 0, 64, 92
1, 497247, Control_c, 0, 64, 86
1, 497262, Control_c, 0, 64, 74
1, 497277, Control_c, 0, 64, 49
1, 497291, Control_c, 0, 64, 0
1, 497298, Note_on_c, 0, 65, 89
1, 497299, Note_on_c, 0, 48, 67
1, 497302, Note_on_c, 0, 36, 59
1, 497308, Note_on_c, 0, 56, 77
1, 497318, Note_off_c, 0, 63, 64
1, 497328, Note_off_c, 0, 48, 64
1, 497331, Note_off_c, 0, 36, 56
1, 497336, Control_c, 0, 64, 50
1, 497338, Note_off_c, 0, 56, 61
1, 497351, Control_c, 0, 64, 64
1, 497366, Control_c, 0, 64, 72
1, 497381, Control_c, 0, 64, 80
1, 497396, Control_c, 0, 64, 86
1, 497400, Note_on_c, 0, 63, 82
1, 497411, Control_c, 0, 64, 93
1, 497426, Control_c, 0, 64, 98
1, 497440, Note_off_c, 0, 65, 58
1, 497440, Control_c, 0, 64, 101
1, 497442, Note_on_c, 0, 56, 6
1, 497470, Control_c, 0, 64, 100
1, 497474, Note_off_c, 0, 63, 61
1, 497479, Note_off_c, 0, 56, 53
1, 497485, Control_c, 0, 64, 95
1, 497506, Control_c, 0, 64, 84
1, 497521, Control_c, 0, 64, 70
1, 497530, Note_on_c, 0, 36, 56
1, 497536, Note_on_c, 0, 68, 89
1, 497536, Control_c, 0, 64, 53
1, 497537, Note_on_c, 0, 48, 48
1, 497547, Note_on_c, 0, 63, 68
1, 497551, Control_c, 0, 64, 36
1, 497558, Note_on_c, 0, 56, 53
1, 497563, Note_off_c, 0, 48, 56
1, 497564, Note_off_c, 0, 36, 61
1, 497566, Control_c, 0, 64, 56
1, 497573, Note_off_c, 0, 63, 62
1, 497581, Control_c, 0, 64, 65
1, 497584, Note_off_c, 0, 56, 57
1, 497596, Control_c, 0, 64, 73
1, 497610, Control_c, 0, 64, 83
1, 497625, Control_c, 0, 64, 92
1, 497640, Control_c, 0, 64, 98
1, 497655, Control_c, 0, 64, 101
1, 497670, Control_c, 0, 64, 103
1, 497729, Control_c, 0, 64, 98
1, 497744, Control_c, 0, 64, 82
1, 497759, Control_c, 0, 64, 66
1, 497773, Control_c, 0, 64, 15
1, 497784, Note_on_c, 0, 31, 65
1, 497786, Note_on_c, 0, 43, 63
1, 497786, Note_on_c, 0, 70, 89
1, 497788, Control_c, 0, 64, 0
1, 497790, Note_on_c, 0, 58, 82
1, 497790, Note_on_c, 0, 63, 75
1, 497803, Control_c, 0, 64, 25
1, 497811, Note_off_c, 0, 43, 59
1, 497817, Note_off_c, 0, 31, 63
1, 497818, Control_c, 0, 64, 58
1, 497820, Note_off_c, 0, 58, 62
1, 497822, Note_off_c, 0, 63, 65
1, 497833, Control_c, 0, 64, 68
1, 497846, Note_off_c, 0, 68, 56
1, 497847, Control_c, 0, 64, 78
1, 497862, Control_c, 0, 64, 86
1, 497877, Control_c, 0, 64, 90
1, 497900, Note_off_c, 0, 70, 64
1, 497906, Control_c, 0, 64, 90
1, 497921, Control_c, 0, 64, 92
1, 497936, Control_c, 0, 64, 93
1, 497951, Control_c, 0, 64, 94
1, 497966, Control_c, 0, 64, 95
1, 497982, Control_c, 0, 64, 94
1, 497996, Control_c, 0, 64, 92
1, 498011, Control_c, 0, 64, 82
1, 498026, Control_c, 0, 64, 67
1, 498041, Control_c, 0, 64, 0
1, 498055, Note_on_c, 0, 44, 61
1, 498058, Note_on_c, 0, 32, 62
1, 498058, Note_on_c, 0, 60, 84
1, 498058, Note_on_c, 0, 63, 54
1, 498058, Note_on_c, 0, 72, 78
1, 498062, Note_on_c, 0, 68, 78
1, 498085, Control_c, 0, 64, 53
1, 498088, Note_off_c, 0, 44, 62
1, 498090, Note_off_c, 0, 32, 62
1, 498093, Note_off_c, 0, 60, 64
1, 498093, Note_off_c, 0, 63, 68
1, 498094, Note_off_c, 0, 68, 67
1, 498100, Control_c, 0, 64, 69
1, 498115, Note_off_c, 0, 72, 64
1, 498115, Control_c, 0, 64, 83
1, 498129, Control_c, 0, 64, 110
1, 498144, Control_c, 0, 64, 127
1, 498285, Control_c, 0, 64, 103
1, 498300, Control_c, 0, 64, 79
1, 498315, Control_c, 0, 64, 48
1, 498329, Control_c, 0, 64, 0
1, 498352, Note_on_c, 0, 27, 70
1, 498353, Note_on_c, 0, 39, 67
1, 498355, Note_on_c, 0, 67, 91
1, 498355, Note_on_c, 0, 72, 85
1, 498356, Note_on_c, 0, 60, 85
1, 498380, Note_off_c, 0, 60, 70
1, 498385, Note_off_c, 0, 27, 64
1, 498385, Note_off_c, 0, 39, 63
1, 498389, Control_c, 0, 64, 34
1, 498403, Control_c, 0, 64, 63
1, 498418, Control_c, 0, 64, 74
1, 498433, Control_c, 0, 64, 88
1, 498448, Control_c, 0, 64, 101
1, 498463, Control_c, 0, 64, 110
1, 498478, Control_c, 0, 64, 114
1, 498493, Control_c, 0, 64, 121
1, 498508, Control_c, 0, 64, 127
1, 498612, Control_c, 0, 64, 110
1, 498627, Control_c, 0, 64, 86
1, 498639, Note_on_c, 0, 68, 87
1, 498639, Note_on_c, 0, 41, 65
1, 498639, Note_on_c, 0, 60, 84
1, 498642, Control_c, 0, 64, 67
1, 498642, Note_on_c, 0, 29, 69
1, 498656, Control_c, 0, 64, 43
1, 498667, Note_off_c, 0, 67, 63
1, 498668, Note_off_c, 0, 72, 62
1, 498669, Note_off_c, 0, 41, 63
1, 498671, Control_c, 0, 64, 54
1, 498672, Note_on_c, 0, 70, 43
1, 498672, Note_off_c, 0, 60, 67
1, 498686, Control_c, 0, 64, 66
1, 498697, Note_off_c, 0, 70, 55
1, 498700, Note_off_c, 0, 29, 62
1, 498701, Control_c, 0, 64, 78
1, 498715, Control_c, 0, 64, 95
1, 498725, Note_off_c, 0, 68, 59
1, 498730, Control_c, 0, 64, 127
1, 498835, Control_c, 0, 64, 102
1, 498850, Control_c, 0, 64, 73
1, 498865, Control_c, 0, 64, 0
1, 498901, Note_on_c, 0, 63, 90
1, 498901, Note_on_c, 0, 72, 88
1, 498901, Note_on_c, 0, 67, 81
1, 498903, Note_on_c, 0, 36, 67
1, 498904, Note_on_c, 0, 24, 71
1, 498924, Control_c, 0, 64, 47
1, 498925, Note_off_c, 0, 67, 68
1, 498927, Note_off_c, 0, 63, 66
1, 498935, Note_off_c, 0, 36, 62
1, 498939, Control_c, 0, 64, 68
1, 498940, Note_off_c, 0, 24, 61
1, 498953, Control_c, 0, 64, 82
1, 498968, Control_c, 0, 64, 107
1, 498983, Control_c, 0, 64, 127
1, 499109, Control_c, 0, 64, 99
1, 499124, Control_c, 0, 64, 71
1, 499139, Control_c, 0, 64, 0
1, 499157, Note_on_c, 0, 37, 78
1, 499158, Note_on_c, 0, 25, 73
1, 499160, Note_on_c, 0, 65, 92
1, 499162, Note_on_c, 0, 61, 85
1, 499187, Note_off_c, 0, 25, 61
1, 499190, Note_off_c, 0, 61, 66
1, 499198, Control_c, 0, 64, 52
1, 499202, Note_off_c, 0, 37, 63
1, 499213, Control_c, 0, 64, 66
1, 499216, Note_off_c, 0, 65, 60
1, 499227, Control_c, 0, 64, 76
1, 499242, Control_c, 0, 64, 89
1, 499257, Control_c, 0, 64, 101
1, 499271, Control_c, 0, 64, 109
1, 499286, Control_c, 0, 64, 112
1, 499301, Control_c, 0, 64, 115
1, 499316, Control_c, 0, 64, 116
1, 499345, Control_c, 0, 64, 115
1, 499360, Control_c, 0, 64, 97
1, 499375, Control_c, 0, 64, 70
1, 499390, Control_c, 0, 64, 0
1, 499417, Note_on_c, 0, 49, 79
1, 499420, Note_on_c, 0, 70, 85
1, 499421, Note_on_c, 0, 65, 83
1, 499422, Note_on_c, 0, 61, 90
1, 499423, Note_on_c, 0, 37, 68
1, 499438, Note_off_c, 0, 72, 59
1, 499444, Note_off_c, 0, 49, 67
1, 499450, Control_c, 0, 64, 44
1, 499453, Note_off_c, 0, 37, 66
1, 499459, Note_off_c, 0, 61, 55
1, 499463, Note_off_c, 0, 65, 55
1, 499464, Control_c, 0, 64, 66
1, 499479, Control_c, 0, 64, 77
1, 499494, Control_c, 0, 64, 91
1, 499509, Control_c, 0, 64, 106
1, 499524, Control_c, 0, 64, 118
1, 499538, Control_c, 0, 64, 123
1, 499584, Control_c, 0, 64, 121
1, 499599, Control_c, 0, 64, 104
1, 499614, Control_c, 0, 64, 83
1, 499624, Note_off_c, 0, 70, 59
1, 499628, Control_c, 0, 64, 60
1, 499643, Control_c, 0, 64, 0
1, 499673, Note_on_c, 0, 60, 93
1, 499673, Note_on_c, 0, 72, 86
1, 499675, Note_on_c, 0, 51, 73
1, 499677, Note_on_c, 0, 67, 80
1, 499679, Note_on_c, 0, 39, 64
1, 499700, Note_off_c, 0, 67, 69
1, 499702, Control_c, 0, 64, 31
1, 499706, Note_off_c, 0, 51, 64
1, 499707, Note_off_c, 0, 60, 63
1, 499707, Note_off_c, 0, 72, 66
1, 499712, Note_off_c, 0, 39, 62
1, 499717, Control_c, 0, 64, 63
1, 499732, Control_c, 0, 64, 73
1, 499754, Control_c, 0, 64, 92
1, 499769, Control_c, 0, 64, 127
1, 499917, Control_c, 0, 64, 99
1, 499932, Control_c, 0, 64, 72
1, 499944, Note_on_c, 0, 53, 71
1, 499947, Control_c, 0, 64, 0
1, 499947, Note_on_c, 0, 41, 62
1, 499948, Note_on_c, 0, 61, 80
1, 499949, Note_on_c, 0, 56, 80
1, 499949, Note_on_c, 0, 65, 86
1, 499971, Note_off_c, 0, 53, 68
1, 499980, Note_off_c, 0, 56, 64
1, 499990, Note_off_c, 0, 41, 64
1, 499991, Control_c, 0, 64, 9
1, 500006, Control_c, 0, 64, 61
1, 500021, Control_c, 0, 64, 73
1, 500036, Control_c, 0, 64, 92
1, 500050, Control_c, 0, 64, 119
1, 500065, Control_c, 0, 64, 127
1, 500154, Control_c, 0, 64, 103
1, 500168, Control_c, 0, 64, 77
1, 500183, Control_c, 0, 64, 34
1, 500198, Control_c, 0, 64, 0
1, 500201, Note_on_c, 0, 48, 66
1, 500203, Note_on_c, 0, 68, 80
1, 500204, Note_on_c, 0, 36, 69
1, 500204, Note_on_c, 0, 56, 89
1, 500207, Note_on_c, 0, 63, 79
1, 500234, Note_off_c, 0, 56, 65
1, 500235, Note_off_c, 0, 61, 65
1, 500240, Note_off_c, 0, 36, 62
1, 500240, Note_off_c, 0, 48, 64
1, 500240, Note_off_c, 0, 65, 60
1, 500243, Control_c, 0, 64, 32
1, 500255, Note_off_c, 0, 63, 62
1, 500257, Control_c, 0, 64, 65
1, 500260, Note_off_c, 0, 68, 66
1, 500272, Control_c, 0, 64, 77
1, 500287, Control_c, 0, 64, 95
1, 500302, Control_c, 0, 64, 120
1, 500317, Control_c, 0, 64, 127
1, 500421, Control_c, 0, 64, 108
1, 500436, Control_c, 0, 64, 82
1, 500451, Control_c, 0, 64, 55
1, 500466, Control_c, 0, 64, 0
1, 500477, Note_on_c, 0, 49, 72
1, 500478, Note_on_c, 0, 56, 95
1, 500479, Note_on_c, 0, 65, 86
1, 500481, Note_on_c, 0, 68, 80
1, 500482, Note_on_c, 0, 37, 63
1, 500516, Note_off_c, 0, 49, 65
1, 500523, Note_off_c, 0, 37, 64
1, 500532, Control_c, 0, 64, 38
1, 500547, Control_c, 0, 64, 64
1, 500562, Control_c, 0, 64, 74
1, 500577, Control_c, 0, 64, 87
1, 500591, Control_c, 0, 64, 100
1, 500606, Control_c, 0, 64, 111
1, 500621, Control_c, 0, 64, 122
1, 500636, Control_c, 0, 64, 127
1, 500696, Control_c, 0, 64, 99
1, 500711, Control_c, 0, 64, 74
1, 500725, Control_c, 0, 64, 26
1, 500737, Note_on_c, 0, 46, 83
1, 500740, Control_c, 0, 64, 0
1, 500746, Note_on_c, 0, 34, 68
1, 500748, Note_on_c, 0, 61, 80
1, 500763, Note_off_c, 0, 46, 65
1, 500770, Control_c, 0, 64, 55
1, 500773, Note_off_c, 0, 56, 64
1, 500779, Note_off_c, 0, 65, 60
1, 500781, Note_off_c, 0, 34, 63
1, 500785, Control_c, 0, 64, 70
1, 500797, Note_off_c, 0, 61, 62
1, 500799, Control_c, 0, 64, 87
1, 500814, Control_c, 0, 64, 110
1, 500829, Control_c, 0, 64, 127
1, 500863, Poly_aftertouch_c, 0, 47, 0
1, 500971, Note_off_c, 0, 68, 59
1, 500977, Control_c, 0, 64, 90
1, 500991, Control_c, 0, 64, 67
1, 501006, Control_c, 0, 64, 0
1, 501011, Note_on_c, 0, 51, 75
1, 501015, Note_on_c, 0, 39, 67
1, 501016, Note_on_c, 0, 67, 92
1, 501021, Note_on_c, 0, 63, 77
1, 501023, Note_on_c, 0, 58, 79
1, 501036, Control_c, 0, 64, 19
1, 501049, Note_off_c, 0, 58, 65
1, 501050, Control_c, 0, 64, 59
1, 501051, Note_off_c, 0, 51, 64
1, 501053, Note_off_c, 0, 39, 62
1, 501056, Note_off_c, 0, 63, 63
1, 501065, Control_c, 0, 64, 72
1, 501080, Control_c, 0, 64, 91
1, 501095, Control_c, 0, 64, 127
1, 501252, Control_c, 0, 64, 112
1, 501266, Control_c, 0, 64, 81
1, 501281, Control_c, 0, 64, 15
1, 501296, Control_c, 0, 64, 0
1, 501312, Note_on_c, 0, 56, 79
1, 501316, Note_on_c, 0, 44, 70
1, 501316, Note_on_c, 0, 60, 89
1, 501317, Note_on_c, 0, 63, 88
1, 501338, Note_off_c, 0, 60, 69
1, 501340, Note_on_c, 0, 66, 54
1, 501340, Control_c, 0, 64, 20
1, 501341, Note_off_c, 0, 56, 63
1, 501344, Note_off_c, 0, 67, 62
1, 501348, Note_off_c, 0, 44, 64
1, 501355, Control_c, 0, 64, 64
1, 501360, Note_off_c, 0, 63, 64
1, 501362, Note_off_c, 0, 66, 63
1, 501370, Control_c, 0, 64, 83
1, 501385, Control_c, 0, 64, 127
1, 501578, Control_c, 0, 64, 99
1, 501593, Control_c, 0, 64, 69
1, 501608, Control_c, 0, 64, 0
1, 501629, Note_on_c, 0, 58, 78
1, 501630, Note_on_c, 0, 46, 73
1, 501631, Note_on_c, 0, 75, 83
1, 501632, Note_on_c, 0, 63, 86
1, 501632, Note_on_c, 0, 73, 89
1, 501634, Note_on_c, 0, 67, 85
1, 501666, Control_c, 0, 64, 49
1, 501667, Note_off_c, 0, 58, 58
1, 501673, Note_off_c, 0, 46, 63
1, 501681, Control_c, 0, 64, 66
1, 501696, Control_c, 0, 64, 78
1, 501698, Note_off_c, 0, 67, 60
1, 501711, Control_c, 0, 64, 97
1, 501726, Control_c, 0, 64, 127
1, 501734, Note_off_c, 0, 63, 62
1, 501888, Control_c, 0, 64, 111
1, 501903, Control_c, 0, 64, 82
1, 501918, Control_c, 0, 64, 61
1, 501919, Note_on_c, 0, 60, 77
1, 501919, Note_on_c, 0, 63, 85
1, 501922, Note_on_c, 0, 48, 72
1, 501923, Note_on_c, 0, 68, 79
1, 501924, Note_on_c, 0, 72, 81
1, 501933, Control_c, 0, 64, 49
1, 501938, Note_off_c, 0, 63, 71
1, 501943, Note_off_c, 0, 60, 71
1, 501945, Note_off_c, 0, 75, 56
1, 501948, Control_c, 0, 64, 65
1, 501956, Note_off_c, 0, 68, 66
1, 501963, Control_c, 0, 64, 76
1, 501971, Note_off_c, 0, 48, 62
1, 501976, Note_off_c, 0, 72, 64
1, 501978, Control_c, 0, 64, 103
1, 502001, Control_c, 0, 64, 127
1, 502001, Note_off_c, 0, 73, 56
1, 502178, Control_c, 0, 64, 102
1, 502193, Control_c, 0, 64, 77
1, 502208, Control_c, 0, 64, 53
1, 502211, Note_on_c, 0, 41, 68
1, 502211, Note_on_c, 0, 53, 77
1, 502211, Note_on_c, 0, 80, 96
1, 502213, Note_on_c, 0, 73, 97
1, 502213, Note_on_c, 0, 84, 87
1, 502223, Control_c, 0, 64, 0
1, 502237, Control_c, 0, 64, 49
1, 502247, Note_off_c, 0, 41, 63
1, 502252, Control_c, 0, 64, 68
1, 502264, Note_off_c, 0, 53, 66
1, 502267, Control_c, 0, 64, 84
1, 502282, Control_c, 0, 64, 127
1, 502302, Note_off_c, 0, 80, 62
1, 502305, Note_off_c, 0, 73, 56
1, 502430, Note_off_c, 0, 84, 53
1, 502460, Control_c, 0, 64, 97
1, 502475, Control_c, 0, 64, 72
1, 502487, Note_on_c, 0, 43, 77
1, 502487, Note_on_c, 0, 82, 90
1, 502489, Control_c, 0, 64, 31
1, 502490, Note_on_c, 0, 73, 96
1, 502490, Note_on_c, 0, 75, 86
1, 502493, Note_on_c, 0, 55, 84
1, 502504, Control_c, 0, 64, 37
1, 502516, Note_off_c, 0, 43, 65
1, 502519, Control_c, 0, 64, 63
1, 502531, Note_off_c, 0, 55, 66
1, 502534, Control_c, 0, 64, 75
1, 502535, Note_off_c, 0, 82, 65
1, 502536, Note_off_c, 0, 73, 61
1, 502541, Note_off_c, 0, 75, 64
1, 502549, Control_c, 0, 64, 100
1, 502563, Control_c, 0, 64, 127
1, 502749, Control_c, 0, 64, 91
1, 502761, Note_on_c, 0, 65, 86
1, 502764, Note_on_c, 0, 80, 85
1, 502764, Control_c, 0, 64, 71
1, 502765, Note_on_c, 0, 53, 73
1, 502767, Note_on_c, 0, 73, 87
1, 502768, Note_on_c, 0, 68, 86
1, 502779, Control_c, 0, 64, 54
1, 502791, Note_off_c, 0, 65, 64
1, 502794, Control_c, 0, 64, 57
1, 502801, Note_off_c, 0, 53, 66
1, 502809, Control_c, 0, 64, 67
1, 502819, Note_off_c, 0, 73, 62
1, 502823, Note_off_c, 0, 68, 63
1, 502824, Control_c, 0, 64, 78
1, 502839, Control_c, 0, 64, 97
1, 502851, Note_off_c, 0, 80, 64
1, 502854, Control_c, 0, 64, 127
1, 502972, Control_c, 0, 64, 114
1, 502986, Control_c, 0, 64, 76
1, 503001, Control_c, 0, 64, 0
1, 503023, Note_on_c, 0, 63, 84
1, 503024, Note_on_c, 0, 51, 84
1, 503030, Note_on_c, 0, 67, 89
1, 503030, Note_on_c, 0, 75, 82
1, 503030, Note_on_c, 0, 79, 83
1, 503032, Note_on_c, 0, 70, 76
1, 503054, Note_off_c, 0, 63, 65
1, 503055, Note_off_c, 0, 67, 64
1, 503057, Note_off_c, 0, 51, 63
1, 503057, Note_off_c, 0, 70, 67
1, 503075, Control_c, 0, 64, 56
1, 503090, Control_c, 0, 64, 70
1, 503098, Note_off_c, 0, 75, 62
1, 503105, Control_c, 0, 64, 86
1, 503119, Control_c, 0, 64, 123
1, 503134, Control_c, 0, 64, 127
1, 503250, Note_off_c, 0, 79, 57
1, 503253, Control_c, 0, 64, 96
1, 503268, Control_c, 0, 64, 63
1, 503283, Control_c, 0, 64, 0
1, 503283, Note_on_c, 0, 61, 89
1, 503286, Note_on_c, 0, 49, 86
1, 503287, Note_on_c, 0, 68, 88
1, 503291, Note_on_c, 0, 77, 86
1, 503311, Note_off_c, 0, 61, 63
1, 503323, Note_off_c, 0, 49, 62
1, 503327, Control_c, 0, 64, 42
1, 503337, Note_off_c, 0, 68, 63
1, 503342, Control_c, 0, 64, 67
1, 503357, Control_c, 0, 64, 87
1, 503372, Control_c, 0, 64, 127
1, 503403, Note_on_c, 0, 79, 82
1, 503416, Note_off_c, 0, 77, 53
1, 503445, Control_c, 0, 64, 117
1, 503460, Control_c, 0, 64, 79
1, 503475, Control_c, 0, 64, 33
1, 503498, Control_c, 0, 64, 0
1, 503520, Note_on_c, 0, 60, 83
1, 503521, Note_on_c, 0, 77, 86
1, 503525, Note_on_c, 0, 48, 77
1, 503527, Note_on_c, 0, 68, 81
1, 503528, Note_off_c, 0, 79, 59
1, 503542, Note_off_c, 0, 60, 70
1, 503550, Note_off_c, 0, 68, 67
1, 503554, Note_off_c, 0, 48, 66
1, 503557, Note_off_c, 0, 77, 56
1, 503557, Control_c, 0, 64, 65
1, 503567, Note_on_c, 0, 56, 26
1, 503572, Control_c, 0, 64, 79
1, 503587, Control_c, 0, 64, 106
1, 503602, Control_c, 0, 64, 127
1, 503619, Note_off_c, 0, 56, 54
1, 503640, Note_on_c, 0, 75, 82
1, 503668, Note_on_c, 0, 73, 59
1, 503687, Note_off_c, 0, 73, 63
1, 503721, Control_c, 0, 64, 107
1, 503736, Control_c, 0, 64, 73
1, 503750, Control_c, 0, 64, 0
1, 503763, Note_on_c, 0, 73, 79
1, 503764, Note_on_c, 0, 58, 78
1, 503766, Note_on_c, 0, 46, 78
1, 503768, Note_on_c, 0, 67, 83
1, 503770, Note_on_c, 0, 63, 75
1, 503796, Note_off_c, 0, 58, 63
1, 503799, Note_off_c, 0, 46, 66
1, 503800, Note_off_c, 0, 63, 65
1, 503804, Note_off_c, 0, 67, 64
1, 503809, Control_c, 0, 64, 61
1, 503824, Control_c, 0, 64, 74
1, 503839, Control_c, 0, 64, 100
1, 503854, Control_c, 0, 64, 127
1, 503972, Control_c, 0, 64, 97
1, 503976, Note_off_c, 0, 73, 57
1, 503987, Control_c, 0, 64, 71
1, 504002, Control_c, 0, 64, 0
1, 504012, Note_on_c, 0, 63, 80
1, 504012, Note_on_c, 0, 68, 83
1, 504012, Note_on_c, 0, 72, 82
1, 504016, Note_on_c, 0, 56, 72
1, 504018, Note_on_c, 0, 44, 73
1, 504032, Note_off_c, 0, 63, 72
1, 504042, Note_off_c, 0, 68, 67
1, 504043, Note_off_c, 0, 56, 67
1, 504046, Control_c, 0, 64, 56
1, 504058, Note_off_c, 0, 44, 59
1, 504061, Control_c, 0, 64, 72
1, 504061, Note_off_c, 0, 72, 65
1, 504061, Note_off_c, 0, 75, 59
1, 504076, Control_c, 0, 64, 89
1, 504091, Control_c, 0, 64, 127
1, 504261, Control_c, 0, 64, 103
1, 504276, Control_c, 0, 64, 78
1, 504284, Note_on_c, 0, 41, 70
1, 504285, Note_on_c, 0, 73, 96
1, 504285, Note_on_c, 0, 84, 89
1, 504286, Note_on_c, 0, 53, 76
1, 504287, Note_on_c, 0, 80, 88
1, 504291, Control_c, 0, 64, 56
1, 504306, Control_c, 0, 64, 0
1, 504320, Note_off_c, 0, 41, 62
1, 504320, Control_c, 0, 64, 55
1, 504332, Note_off_c, 0, 53, 64
1, 504335, Control_c, 0, 64, 68
1, 504347, Note_off_c, 0, 73, 57
1, 504350, Control_c, 0, 64, 84
1, 504364, Note_off_c, 0, 80, 62
1, 504365, Control_c, 0, 64, 127
1, 504514, Control_c, 0, 64, 96
1, 504529, Control_c, 0, 64, 69
1, 504541, Note_on_c, 0, 43, 77
1, 504541, Note_on_c, 0, 82, 89
1, 504544, Control_c, 0, 64, 0
1, 504544, Note_on_c, 0, 73, 94
1, 504544, Note_on_c, 0, 75, 84
1, 504545, Note_on_c, 0, 55, 84
1, 504557, Note_off_c, 0, 84, 62
1, 504565, Note_off_c, 0, 43, 66
1, 504574, Control_c, 0, 64, 34
1, 504585, Note_off_c, 0, 55, 66
1, 504589, Control_c, 0, 64, 62
1, 504589, Note_off_c, 0, 73, 61
1, 504593, Note_off_c, 0, 82, 64
1, 504597, Note_off_c, 0, 75, 63
1, 504604, Control_c, 0, 64, 78
1, 504619, Control_c, 0, 64, 103
1, 504633, Control_c, 0, 64, 127
1, 504766, Control_c, 0, 64, 112
1, 504781, Control_c, 0, 64, 78
1, 504796, Control_c, 0, 64, 54
1, 504806, Note_on_c, 0, 73, 81
1, 504806, Note_on_c, 0, 65, 84
1, 504807, Note_on_c, 0, 68, 89
1, 504807, Note_on_c, 0, 80, 84
1, 504810, Control_c, 0, 64, 0
1, 504811, Note_on_c, 0, 53, 71
1, 504825, Control_c, 0, 64, 32
1, 504831, Note_off_c, 0, 65, 65
1, 504840, Note_off_c, 0, 53, 69
1, 504840, Control_c, 0, 64, 62
1, 504848, Note_off_c, 0, 73, 64
1, 504855, Control_c, 0, 64, 74
1, 504864, Note_off_c, 0, 68, 64
1, 504870, Control_c, 0, 64, 94
1, 504872, Note_off_c, 0, 80, 65
1, 504885, Control_c, 0, 64, 127
1, 505040, Control_c, 0, 64, 103
1, 505055, Control_c, 0, 64, 78
1, 505067, Note_on_c, 0, 51, 73
1, 505069, Note_on_c, 0, 63, 72
1, 505070, Control_c, 0, 64, 52
1, 505074, Note_on_c, 0, 75, 80
1, 505075, Note_on_c, 0, 70, 69
1, 505076, Note_on_c, 0, 79, 81
1, 505077, Note_on_c, 0, 67, 86
1, 505084, Control_c, 0, 64, 16
1, 505095, Note_off_c, 0, 63, 68
1, 505099, Note_off_c, 0, 67, 63
1, 505099, Note_off_c, 0, 70, 68
1, 505099, Control_c, 0, 64, 52
1, 505102, Note_off_c, 0, 51, 63
1, 505109, Note_off_c, 0, 75, 62
1, 505114, Control_c, 0, 64, 64
1, 505129, Control_c, 0, 64, 72
1, 505138, Note_off_c, 0, 79, 62
1, 505144, Control_c, 0, 64, 83
1, 505160, Control_c, 0, 64, 97
1, 505175, Control_c, 0, 64, 109
1, 505189, Control_c, 0, 64, 127
1, 505293, Control_c, 0, 64, 104
1, 505307, Control_c, 0, 64, 80
1, 505310, Note_on_c, 0, 61, 83
1, 505313, Note_on_c, 0, 80, 84
1, 505313, Note_on_c, 0, 49, 79
1, 505316, Note_on_c, 0, 77, 81
1, 505319, Note_on_c, 0, 68, 81
1, 505322, Control_c, 0, 64, 61
1, 505334, Note_off_c, 0, 61, 69
1, 505337, Control_c, 0, 64, 37
1, 505340, Note_off_c, 0, 49, 67
1, 505342, Note_off_c, 0, 68, 67
1, 505352, Control_c, 0, 64, 58
1, 505367, Control_c, 0, 64, 68
1, 505381, Control_c, 0, 64, 80
1, 505383, Note_off_c, 0, 77, 61
1, 505396, Control_c, 0, 64, 100
1, 505411, Control_c, 0, 64, 127
1, 505419, Note_on_c, 0, 79, 81
1, 505420, Note_on_c, 0, 70, 88
1, 505432, Note_on_c, 0, 82, 77
1, 505449, Note_off_c, 0, 80, 63
1, 505452, Note_off_c, 0, 79, 61
1, 505454, Note_off_c, 0, 82, 70
1, 505459, Note_off_c, 0, 70, 62
1, 505500, Control_c, 0, 64, 113
1, 505514, Control_c, 0, 64, 78
1, 505529, Control_c, 0, 64, 10
1, 505544, Control_c, 0, 64, 0
1, 505565, Note_on_c, 0, 49, 80
1, 505566, Note_on_c, 0, 63, 94
1, 505566, Note_on_c, 0, 61, 82
1, 505567, Note_on_c, 0, 75, 84
1, 505581, Note_on_c, 0, 70, 52
1, 505583, Note_on_c, 0, 69, 64
1, 505587, Note_off_c, 0, 63, 68
1, 505588, Note_off_c, 0, 61, 69
1, 505588, Control_c, 0, 64, 52
1, 505602, Note_off_c, 0, 49, 63
1, 505602, Note_off_c, 0, 69, 64
1, 505603, Control_c, 0, 64, 68
1, 505605, Note_off_c, 0, 70, 42
1, 505618, Control_c, 0, 64, 81
1, 505629, Note_off_c, 0, 75, 55
1, 505632, Control_c, 0, 64, 102
1, 505647, Control_c, 0, 64, 127
1, 505788, Control_c, 0, 64, 90
1, 505803, Control_c, 0, 64, 65
1, 505812, Note_on_c, 0, 60, 79
1, 505815, Note_on_c, 0, 77, 79
1, 505818, Control_c, 0, 64, 0
1, 505819, Note_on_c, 0, 48, 69
1, 505829, Note_on_c, 0, 65, 60
1, 505831, Note_on_c, 0, 69, 62
1, 505832, Control_c, 0, 64, 21
1, 505835, Note_off_c, 0, 77, 71
1, 505845, Note_off_c, 0, 60, 61
1, 505847, Control_c, 0, 64, 59
1, 505849, Note_off_c, 0, 69, 65
1, 505850, Note_off_c, 0, 65, 60
1, 505850, Note_off_c, 0, 48, 63
1, 505862, Control_c, 0, 64, 71
1, 505877, Control_c, 0, 64, 86
1, 505892, Control_c, 0, 64, 127
1, 505915, Note_on_c, 0, 75, 69
1, 505922, Note_on_c, 0, 63, 86
1, 505942, Note_off_c, 0, 63, 72
1, 505965, Note_off_c, 0, 75, 62
1, 505997, Control_c, 0, 64, 117
1, 506011, Control_c, 0, 64, 80
1, 506026, Control_c, 0, 64, 0
1, 506042, Note_on_c, 0, 60, 65
1, 506044, Note_on_c, 0, 48, 72
1, 506046, Note_on_c, 0, 80, 94
1, 506051, Note_on_c, 0, 68, 89
1, 506057, Note_off_c, 0, 60, 70
1, 506058, Note_on_c, 0, 75, 76
1, 506071, Note_off_c, 0, 68, 67
1, 506076, Note_off_c, 0, 48, 65
1, 506082, Note_off_c, 0, 75, 65
1, 506085, Control_c, 0, 64, 42
1, 506100, Control_c, 0, 64, 63
1, 506115, Control_c, 0, 64, 76
1, 506130, Control_c, 0, 64, 97
1, 506145, Control_c, 0, 64, 127
1, 506278, Control_c, 0, 64, 94
1, 506293, Control_c, 0, 64, 68
1, 506303, Note_on_c, 0, 55, 72
1, 506306, Note_on_c, 0, 43, 78
1, 506308, Note_on_c, 0, 70, 92
1, 506308, Control_c, 0, 64, 0
1, 506310, Note_on_c, 0, 75, 82
1, 506311, Note_on_c, 0, 82, 88
1, 506316, Note_off_c, 0, 80, 0
1, 506334, Note_off_c, 0, 75, 63
1, 506336, Note_off_c, 0, 70, 60
1, 506337, Control_c, 0, 64, 49
1, 506338, Note_off_c, 0, 43, 64
1, 506341, Note_off_c, 0, 55, 61
1, 506352, Control_c, 0, 64, 68
1, 506367, Control_c, 0, 64, 81
1, 506371, Poly_aftertouch_c, 0, 80, 0
1, 506382, Control_c, 0, 64, 105
1, 506390, Note_off_c, 0, 82, 64
1, 506397, Control_c, 0, 64, 127
1, 506537, Control_c, 0, 64, 100
1, 506552, Control_c, 0, 64, 72
1, 506567, Control_c, 0, 64, 0
1, 506583, Note_on_c, 0, 56, 80
1, 506583, Note_on_c, 0, 72, 91
1, 506586, Note_on_c, 0, 84, 77
1, 506587, Note_on_c, 0, 44, 76
1, 506587, Note_on_c, 0, 80, 89
1, 506588, Note_on_c, 0, 75, 82
1, 506611, Note_off_c, 0, 56, 64
1, 506620, Note_off_c, 0, 44, 64
1, 506625, Note_off_c, 0, 72, 62
1, 506626, Control_c, 0, 64, 54
1, 506641, Control_c, 0, 64, 72
1, 506644, Note_off_c, 0, 75, 62
1, 506656, Control_c, 0, 64, 92
1, 506670, Control_c, 0, 64, 127
1, 506677, Note_off_c, 0, 80, 62
1, 506712, Note_off_c, 0, 84, 49
1, 506834, Control_c, 0, 64, 99
1, 506849, Control_c, 0, 64, 70
1, 506864, Control_c, 0, 64, 0
1, 506877, Note_on_c, 0, 51, 83
1, 506882, Note_on_c, 0, 72, 93
1, 506884, Note_on_c, 0, 79, 89
1, 506884, Note_on_c, 0, 84, 86
1, 506884, Note_on_c, 0, 39, 77
1, 506912, Note_off_c, 0, 39, 63
1, 506913, Note_off_c, 0, 51, 64
1, 506923, Control_c, 0, 64, 45
1, 506938, Control_c, 0, 64, 66
1, 506943, Note_off_c, 0, 72, 47
1, 506953, Control_c, 0, 64, 78
1, 506967, Control_c, 0, 64, 105
1, 506982, Control_c, 0, 64, 127
1, 507131, Control_c, 0, 64, 95
1, 507146, Control_c, 0, 64, 73
1, 507153, Note_on_c, 0, 53, 79
1, 507154, Note_on_c, 0, 80, 89
1, 507155, Note_on_c, 0, 72, 90
1, 507156, Note_on_c, 0, 41, 66
1, 507160, Control_c, 0, 64, 57
1, 507167, Note_off_c, 0, 84, 58
1, 507175, Control_c, 0, 64, 64
1, 507179, Note_off_c, 0, 79, 62
1, 507187, Note_off_c, 0, 72, 61
1, 507188, Note_off_c, 0, 53, 67
1, 507190, Control_c, 0, 64, 75
1, 507191, Note_on_c, 0, 82, 40
1, 507204, Control_c, 0, 64, 92
1, 507212, Note_off_c, 0, 41, 62
1, 507219, Control_c, 0, 64, 127
1, 507222, Note_off_c, 0, 82, 33
1, 507255, Note_off_c, 0, 80, 55
1, 507293, Poly_aftertouch_c, 0, 43, 0
1, 507375, Control_c, 0, 64, 109
1, 507390, Control_c, 0, 64, 81
1, 507405, Control_c, 0, 64, 59
1, 507418, Note_on_c, 0, 48, 71
1, 507418, Note_on_c, 0, 79, 85
1, 507419, Note_on_c, 0, 84, 83
1, 507419, Control_c, 0, 64, 0
1, 507421, Note_on_c, 0, 36, 71
1, 507421, Note_on_c, 0, 75, 84
1, 507434, Control_c, 0, 64, 19
1, 507447, Note_off_c, 0, 79, 61
1, 507447, Note_off_c, 0, 48, 64
1, 507449, Control_c, 0, 64, 62
1, 507453, Note_off_c, 0, 36, 62
1, 507455, Note_off_c, 0, 75, 64
1, 507464, Control_c, 0, 64, 74
1, 507479, Control_c, 0, 64, 94
1, 507493, Control_c, 0, 64, 127
1, 507641, Control_c, 0, 64, 115
1, 507656, Control_c, 0, 64, 85
1, 507666, Note_on_c, 0, 49, 86
1, 507670, Note_on_c, 0, 37, 75
1, 507671, Control_c, 0, 64, 65
1, 507673, Note_on_c, 0, 77, 86
1, 507677, Note_on_c, 0, 73, 83
1, 507686, Control_c, 0, 64, 41
1, 507699, Note_off_c, 0, 37, 65
1, 507701, Control_c, 0, 64, 54
1, 507710, Note_off_c, 0, 73, 64
1, 507714, Note_off_c, 0, 49, 62
1, 507716, Control_c, 0, 64, 66
1, 507726, Note_off_c, 0, 77, 59
1, 507731, Control_c, 0, 64, 83
1, 507745, Control_c, 0, 64, 120
1, 507760, Control_c, 0, 64, 127
1, 507908, Control_c, 0, 64, 100
1, 507923, Control_c, 0, 64, 74
1, 507924, Note_on_c, 0, 61, 84
1, 507928, Note_on_c, 0, 49, 77
1, 507930, Note_on_c, 0, 73, 94
1, 507930, Note_on_c, 0, 82, 90
1, 507932, Note_on_c, 0, 77, 86
1, 507938, Control_c, 0, 64, 56
1, 507953, Control_c, 0, 64, 51
1, 507955, Note_off_c, 0, 84, 62
1, 507966, Note_off_c, 0, 49, 65
1, 507968, Control_c, 0, 64, 64
1, 507982, Note_off_c, 0, 61, 63
1, 507990, Control_c, 0, 64, 73
1, 507998, Note_off_c, 0, 73, 57
1, 508005, Control_c, 0, 64, 91
1, 508020, Control_c, 0, 64, 127
1, 508130, Note_off_c, 0, 82, 55
1, 508152, Note_off_c, 0, 77, 56
1, 508168, Control_c, 0, 64, 95
1, 508182, Control_c, 0, 64, 74
1, 508195, Note_on_c, 0, 63, 80
1, 508196, Note_on_c, 0, 51, 77
1, 508197, Control_c, 0, 64, 62
1, 508198, Note_on_c, 0, 84, 84
1, 508199, Note_on_c, 0, 72, 95
1, 508203, Note_on_c, 0, 79, 74
1, 508212, Control_c, 0, 64, 65
1, 508225, Note_off_c, 0, 79, 70
1, 508227, Control_c, 0, 64, 73
1, 508231, Note_off_c, 0, 84, 67
1, 508235, Note_off_c, 0, 51, 64
1, 508237, Note_off_c, 0, 72, 61
1, 508241, Control_c, 0, 64, 88
1, 508248, Note_off_c, 0, 63, 61
1, 508256, Control_c, 0, 64, 114
1, 508271, Control_c, 0, 64, 127
1, 508435, Control_c, 0, 64, 94
1, 508449, Control_c, 0, 64, 71
1, 508455, Note_on_c, 0, 65, 82
1, 508461, Note_on_c, 0, 73, 86
1, 508462, Note_on_c, 0, 53, 66
1, 508462, Note_on_c, 0, 68, 84
1, 508463, Note_on_c, 0, 77, 83
1, 508464, Control_c, 0, 64, 39
1, 508479, Control_c, 0, 64, 0
1, 508494, Control_c, 0, 64, 56
1, 508496, Note_off_c, 0, 65, 61
1, 508509, Control_c, 0, 64, 70
1, 508517, Note_off_c, 0, 53, 65
1, 508521, Note_off_c, 0, 68, 59
1, 508523, Control_c, 0, 64, 86
1, 508538, Control_c, 0, 64, 127
1, 508687, Control_c, 0, 64, 88
1, 508702, Control_c, 0, 64, 66
1, 508717, Control_c, 0, 64, 0
1, 508735, Note_on_c, 0, 60, 77
1, 508738, Note_on_c, 0, 48, 76
1, 508738, Note_on_c, 0, 80, 79
1, 508740, Note_on_c, 0, 68, 90
1, 508741, Note_on_c, 0, 75, 82
1, 508753, Control_c, 0, 64, 22
1, 508768, Control_c, 0, 64, 62
1, 508769, Note_off_c, 0, 73, 63
1, 508777, Note_off_c, 0, 48, 65
1, 508780, Note_off_c, 0, 68, 60
1, 508783, Control_c, 0, 64, 81
1, 508786, Note_off_c, 0, 60, 64
1, 508796, Note_off_c, 0, 80, 65
1, 508798, Control_c, 0, 64, 119
1, 508803, Note_off_c, 0, 77, 23
1, 508813, Control_c, 0, 64, 127
1, 508950, Note_off_c, 0, 75, 32
1, 508975, Control_c, 0, 64, 105
1, 508990, Control_c, 0, 64, 76
1, 509005, Control_c, 0, 64, 17
1, 509010, Note_on_c, 0, 61, 83
1, 509015, Note_on_c, 0, 49, 80
1, 509018, Note_on_c, 0, 77, 86
1, 509020, Note_on_c, 0, 68, 95
1, 509020, Control_c, 0, 64, 0
1, 509025, Note_on_c, 0, 80, 89
1, 509051, Note_off_c, 0, 49, 65
1, 509055, Note_off_c, 0, 61, 61
1, 509064, Control_c, 0, 64, 37
1, 509079, Control_c, 0, 64, 64
1, 509094, Control_c, 0, 64, 75
1, 509109, Control_c, 0, 64, 95
1, 509124, Control_c, 0, 64, 127
1, 509273, Control_c, 0, 64, 90
1, 509287, Control_c, 0, 64, 70
1, 509289, Note_on_c, 0, 58, 89
1, 509289, Note_on_c, 0, 73, 84
1, 509299, Note_on_c, 0, 46, 81
1, 509302, Control_c, 0, 64, 60
1, 509317, Control_c, 0, 64, 65
1, 509323, Note_off_c, 0, 68, 65
1, 509325, Note_off_c, 0, 46, 67
1, 509331, Note_off_c, 0, 77, 59
1, 509331, Note_off_c, 0, 80, 59
1, 509332, Control_c, 0, 64, 74
1, 509333, Note_off_c, 0, 58, 64
1, 509347, Control_c, 0, 64, 94
1, 509350, Note_off_c, 0, 73, 63
1, 509361, Control_c, 0, 64, 127
1, 509561, Control_c, 0, 64, 110
1, 509576, Control_c, 0, 64, 80
1, 509586, Note_on_c, 0, 51, 78
1, 509586, Note_on_c, 0, 63, 83
1, 509591, Note_on_c, 0, 67, 96
1, 509591, Control_c, 0, 64, 55
1, 509593, Note_on_c, 0, 79, 82
1, 509594, Note_on_c, 0, 70, 80
1, 509594, Note_on_c, 0, 75, 83
1, 509606, Control_c, 0, 64, 0
1, 509635, Control_c, 0, 64, 56
1, 509637, Note_off_c, 0, 63, 64
1, 509650, Control_c, 0, 64, 70
1, 509660, Note_off_c, 0, 51, 61
1, 509665, Control_c, 0, 64, 87
1, 509676, Note_off_c, 0, 67, 59
1, 509680, Control_c, 0, 64, 127
1, 509707, Note_off_c, 0, 70, 63
1, 509709, Note_off_c, 0, 79, 56
1, 509895, Note_off_c, 0, 75, 56
1, 509948, Control_c, 0, 64, 110
1, 509963, Control_c, 0, 64, 76
1, 509977, Control_c, 0, 64, 0
1, 510002, Note_on_c, 0, 38, 87
1, 510002, Note_on_c, 0, 68, 94
1, 510003, Note_on_c, 0, 80, 88
1, 510004, Note_on_c, 0, 76, 86
1, 510005, Note_on_c, 0, 71, 83
1, 510006, Note_on_c, 0, 26, 81
1, 510051, Control_c, 0, 64, 48
1, 510064, Note_off_c, 0, 80, 66
1, 510066, Control_c, 0, 64, 71
1, 510070, Note_off_c, 0, 68, 65
1, 510076, Note_off_c, 0, 76, 66
1, 510081, Control_c, 0, 64, 92
1, 510085, Note_off_c, 0, 71, 66
1, 510096, Control_c, 0, 64, 127
1, 510336, Note_off_c, 0, 38, 56
1, 510360, Note_on_c, 0, 47, 84
1, 510476, Note_off_c, 0, 47, 38
1, 510490, Note_on_c, 0, 52, 78
1, 510596, Note_on_c, 0, 57, 82
1, 510598, Note_off_c, 0, 52, 50
1, 510636, Control_c, 0, 64, 102
1, 510651, Control_c, 0, 64, 85
1, 510666, Control_c, 0, 64, 72
1, 510681, Control_c, 0, 64, 63
1, 510688, Note_on_c, 0, 56, 77
1, 510710, Control_c, 0, 64, 66
1, 510716, Note_off_c, 0, 26, 64
1, 510725, Control_c, 0, 64, 70
1, 510740, Control_c, 0, 64, 73
1, 510741, Note_off_c, 0, 57, 55
1, 510756, Control_c, 0, 64, 76
1, 510771, Control_c, 0, 64, 78
1, 510779, Note_on_c, 0, 54, 77
1, 510786, Control_c, 0, 64, 80
1, 510800, Control_c, 0, 64, 84
1, 510815, Control_c, 0, 64, 87
1, 510830, Control_c, 0, 64, 91
1, 510833, Note_off_c, 0, 56, 62
1, 510844, Control_c, 0, 64, 94
1, 510856, Note_on_c, 0, 52, 73
1, 510859, Control_c, 0, 64, 95
1, 510881, Note_off_c, 0, 54, 63
1, 510882, Note_off_c, 0, 52, 67
1, 510904, Control_c, 0, 64, 96
1, 510933, Control_c, 0, 64, 95
1, 510956, Note_on_c, 0, 59, 77
1, 511001, Note_off_c, 0, 59, 57
1, 511045, Note_on_c, 0, 64, 77
1, 511104, Control_c, 0, 64, 94
1, 511119, Control_c, 0, 64, 86
1, 511123, Note_on_c, 0, 69, 73
1, 511133, Control_c, 0, 64, 74
1, 511138, Note_off_c, 0, 64, 47
1, 511148, Control_c, 0, 64, 58
1, 511163, Control_c, 0, 64, 0
1, 511170, Note_on_c, 0, 59, 76
1, 511171, Note_on_c, 0, 56, 76
1, 511174, Note_on_c, 0, 50, 70
1, 511175, Note_on_c, 0, 52, 64
1, 511177, Control_c, 0, 64, 9
1, 511180, Note_on_c, 0, 68, 76
1, 511192, Control_c, 0, 64, 52
1, 511193, Note_off_c, 0, 59, 69
1, 511200, Note_off_c, 0, 56, 67
1, 511203, Note_off_c, 0, 50, 69
1, 511203, Note_off_c, 0, 52, 66
1, 511207, Control_c, 0, 64, 65
1, 511218, Note_off_c, 0, 69, 62
1, 511222, Control_c, 0, 64, 73
1, 511237, Control_c, 0, 64, 85
1, 511251, Control_c, 0, 64, 98
1, 511255, Note_on_c, 0, 66, 75
1, 511266, Control_c, 0, 64, 101
1, 511320, Note_off_c, 0, 68, 63
1, 511329, Note_on_c, 0, 64, 73
1, 511343, Note_off_c, 0, 66, 63
1, 511355, Note_off_c, 0, 64, 69
1, 511418, Note_on_c, 0, 71, 77
1, 511481, Note_on_c, 0, 76, 81
1, 511486, Note_off_c, 0, 71, 61
1, 511549, Control_c, 0, 64, 100
1, 511564, Control_c, 0, 64, 87
1, 511567, Note_on_c, 0, 81, 76
1, 511573, Note_off_c, 0, 76, 40
1, 511579, Control_c, 0, 64, 67
1, 511594, Control_c, 0, 64, 0
1, 511612, Note_on_c, 0, 68, 87
1, 511614, Note_on_c, 0, 71, 86
1, 511620, Note_on_c, 0, 64, 74
1, 511621, Note_on_c, 0, 62, 69
1, 511629, Note_on_c, 0, 80, 80
1, 511672, Note_off_c, 0, 81, 59
1, 511683, Control_c, 0, 64, 38
1, 511698, Control_c, 0, 64, 58
1, 511706, Note_on_c, 0, 78, 76
1, 511713, Control_c, 0, 64, 65
1, 511735, Control_c, 0, 64, 74
1, 511749, Control_c, 0, 64, 86
1, 511764, Control_c, 0, 64, 99
1, 511775, Note_on_c, 0, 76, 78
1, 511779, Note_off_c, 0, 80, 61
1, 511779, Control_c, 0, 64, 112
1, 511794, Control_c, 0, 64, 127
1, 511796, Note_off_c, 0, 78, 64
1, 511798, Note_off_c, 0, 76, 69
1, 511808, Note_off_c, 0, 71, 65
1, 511862, Note_on_c, 0, 83, 82
1, 511923, Note_on_c, 0, 88, 85
1, 511949, Note_on_c, 0, 73, 70
1, 511993, Note_off_c, 0, 62, 57
1, 511993, Note_off_c, 0, 64, 61
1, 511993, Note_on_c, 0, 93, 83
1, 511996, Note_off_c, 0, 88, 64
1, 512001, Note_off_c, 0, 68, 63
1, 512002, Note_off_c, 0, 73, 62
1, 512016, Control_c, 0, 64, 89
1, 512031, Control_c, 0, 64, 64
1, 512045, Control_c, 0, 64, 0
1, 512047, Note_on_c, 0, 92, 94
1, 512049, Note_on_c, 0, 68, 69
1, 512051, Note_on_c, 0, 71, 81
1, 512056, Note_on_c, 0, 64, 60
1, 512060, Note_on_c, 0, 62, 53
1, 512064, Note_off_c, 0, 83, 65
1, 512064, Note_off_c, 0, 93, 65
1, 512074, Control_c, 0, 64, 47
1, 512080, Note_off_c, 0, 92, 66
1, 512081, Note_off_c, 0, 68, 64
1, 512085, Note_off_c, 0, 71, 62
1, 512089, Note_off_c, 0, 64, 66
1, 512089, Control_c, 0, 64, 66
1, 512099, Note_off_c, 0, 62, 60
1, 512104, Control_c, 0, 64, 83
1, 512119, Control_c, 0, 64, 127
1, 512334, Note_on_c, 0, 47, 83
1, 512431, Note_on_c, 0, 52, 71
1, 512444, Note_off_c, 0, 47, 56
1, 512532, Note_on_c, 0, 57, 78
1, 512533, Note_off_c, 0, 52, 63
1, 512601, Control_c, 0, 64, 102
1, 512616, Control_c, 0, 64, 74
1, 512631, Control_c, 0, 64, 0
1, 512637, Note_on_c, 0, 56, 76
1, 512645, Note_on_c, 0, 38, 94
1, 512649, Note_on_c, 0, 26, 81
1, 512676, Note_off_c, 0, 57, 56
1, 512682, Note_off_c, 0, 26, 66
1, 512706, Note_off_c, 0, 38, 64
1, 512720, Control_c, 0, 64, 50
1, 512724, Note_on_c, 0, 54, 75
1, 512735, Control_c, 0, 64, 62
1, 512750, Control_c, 0, 64, 70
1, 512765, Control_c, 0, 64, 79
1, 512779, Control_c, 0, 64, 92
1, 512794, Control_c, 0, 64, 100
1, 512806, Note_off_c, 0, 56, 45
1, 512809, Control_c, 0, 64, 104
1, 512810, Note_on_c, 0, 52, 73
1, 512835, Note_off_c, 0, 54, 61
1, 512837, Note_off_c, 0, 52, 67
1, 512913, Note_on_c, 0, 59, 77
1, 512992, Note_on_c, 0, 64, 61
1, 512992, Note_off_c, 0, 59, 59
1, 513019, Note_on_c, 0, 62, 32
1, 513031, Control_c, 0, 64, 103
1, 513046, Control_c, 0, 64, 95
1, 513057, Note_off_c, 0, 62, 48
1, 513059, Note_off_c, 0, 64, 61
1, 513060, Control_c, 0, 64, 74
1, 513064, Note_on_c, 0, 69, 75
1, 513075, Control_c, 0, 64, 27
1, 513090, Control_c, 0, 64, 0
1, 513100, Note_on_c, 0, 59, 84
1, 513105, Note_on_c, 0, 56, 79
1, 513109, Note_on_c, 0, 50, 73
1, 513110, Note_on_c, 0, 52, 69
1, 513125, Note_on_c, 0, 68, 76
1, 513137, Note_off_c, 0, 59, 63
1, 513142, Note_off_c, 0, 50, 69
1, 513142, Note_off_c, 0, 52, 66
1, 513144, Note_off_c, 0, 56, 64
1, 513150, Control_c, 0, 64, 25
1, 513165, Control_c, 0, 64, 58
1, 513169, Note_off_c, 0, 69, 61
1, 513180, Control_c, 0, 64, 66
1, 513191, Note_on_c, 0, 66, 74
1, 513195, Control_c, 0, 64, 74
1, 513209, Control_c, 0, 64, 86
1, 513232, Control_c, 0, 64, 99
1, 513246, Control_c, 0, 64, 112
1, 513261, Control_c, 0, 64, 123
1, 513263, Note_off_c, 0, 68, 64
1, 513271, Note_on_c, 0, 64, 77
1, 513276, Control_c, 0, 64, 127
1, 513291, Note_off_c, 0, 66, 63
1, 513293, Note_off_c, 0, 64, 70
1, 513365, Note_on_c, 0, 71, 80
1, 513429, Note_off_c, 0, 71, 58
1, 513435, Note_on_c, 0, 76, 81
1, 513513, Note_off_c, 0, 76, 59
1, 513514, Control_c, 0, 64, 120
1, 513517, Note_on_c, 0, 81, 78
1, 513528, Control_c, 0, 64, 87
1, 513543, Control_c, 0, 64, 62
1, 513558, Control_c, 0, 64, 0
1, 513564, Note_on_c, 0, 68, 87
1, 513565, Note_on_c, 0, 71, 85
1, 513567, Note_on_c, 0, 64, 77
1, 513571, Note_on_c, 0, 62, 75
1, 513581, Note_on_c, 0, 80, 79
1, 513628, Note_off_c, 0, 81, 58
1, 513632, Control_c, 0, 64, 48
1, 513646, Control_c, 0, 64, 61
1, 513651, Note_on_c, 0, 78, 77
1, 513661, Control_c, 0, 64, 68
1, 513676, Control_c, 0, 64, 77
1, 513691, Control_c, 0, 64, 91
1, 513706, Control_c, 0, 64, 105
1, 513710, Note_on_c, 0, 76, 74
1, 513713, Note_off_c, 0, 80, 61
1, 513720, Control_c, 0, 64, 127
1, 513730, Note_off_c, 0, 78, 65
1, 513735, Note_off_c, 0, 76, 66
1, 513748, Note_off_c, 0, 71, 64
1, 513797, Note_on_c, 0, 83, 77
1, 513859, Note_on_c, 0, 88, 82
1, 513877, Note_on_c, 0, 73, 77
1, 513907, Note_off_c, 0, 64, 59
1, 513929, Note_off_c, 0, 73, 64
1, 513931, Note_off_c, 0, 68, 62
1, 513932, Note_off_c, 0, 62, 60
1, 513933, Note_on_c, 0, 93, 82
1, 513942, Note_off_c, 0, 88, 64
1, 513958, Control_c, 0, 64, 89
1, 513981, Control_c, 0, 64, 63
1, 513996, Control_c, 0, 64, 0
1, 513996, Note_on_c, 0, 92, 94
1, 513998, Note_on_c, 0, 65, 80
1, 513999, Note_on_c, 0, 71, 83
1, 514006, Note_on_c, 0, 62, 64
1, 514006, Note_on_c, 0, 68, 66
1, 514016, Note_off_c, 0, 83, 64
1, 514017, Note_off_c, 0, 93, 64
1, 514025, Control_c, 0, 64, 57
1, 514028, Note_off_c, 0, 71, 59
1, 514031, Note_off_c, 0, 68, 70
1, 514031, Note_off_c, 0, 92, 67
1, 514037, Note_off_c, 0, 65, 60
1, 514040, Control_c, 0, 64, 73
1, 514043, Note_off_c, 0, 62, 66
1, 514055, Control_c, 0, 64, 97
1, 514069, Control_c, 0, 64, 127
1, 514274, Note_on_c, 0, 47, 83
1, 514373, Note_on_c, 0, 53, 78
1, 514408, Note_off_c, 0, 47, 35
1, 514481, Note_off_c, 0, 53, 61
1, 514485, Note_on_c, 0, 57, 81
1, 514574, Control_c, 0, 64, 99
1, 514588, Control_c, 0, 64, 76
1, 514599, Note_on_c, 0, 38, 96
1, 514603, Note_on_c, 0, 56, 79
1, 514603, Control_c, 0, 64, 51
1, 514605, Note_on_c, 0, 26, 82
1, 514618, Control_c, 0, 64, 0
1, 514637, Note_off_c, 0, 26, 66
1, 514652, Note_off_c, 0, 57, 52
1, 514663, Control_c, 0, 64, 37
1, 514677, Control_c, 0, 64, 59
1, 514678, Note_off_c, 0, 38, 62
1, 514692, Control_c, 0, 64, 66
1, 514697, Note_on_c, 0, 54, 75
1, 514707, Control_c, 0, 64, 73
1, 514730, Control_c, 0, 64, 82
1, 514745, Control_c, 0, 64, 88
1, 514760, Control_c, 0, 64, 93
1, 514774, Control_c, 0, 64, 96
1, 514789, Control_c, 0, 64, 98
1, 514792, Note_on_c, 0, 53, 76
1, 514802, Note_off_c, 0, 56, 37
1, 514804, Control_c, 0, 64, 99
1, 514817, Note_off_c, 0, 54, 62
1, 514818, Note_off_c, 0, 53, 68
1, 514834, Control_c, 0, 64, 99
1, 514888, Note_on_c, 0, 59, 83
1, 514969, Note_off_c, 0, 59, 54
1, 514981, Note_on_c, 0, 65, 61
1, 514982, Note_on_c, 0, 64, 68
1, 515022, Note_off_c, 0, 64, 57
1, 515047, Note_off_c, 0, 65, 39
1, 515053, Note_on_c, 0, 69, 78
1, 515056, Control_c, 0, 64, 90
1, 515071, Control_c, 0, 64, 73
1, 515085, Control_c, 0, 64, 37
1, 515100, Control_c, 0, 64, 0
1, 515101, Note_on_c, 0, 59, 80
1, 515103, Note_on_c, 0, 56, 80
1, 515105, Note_on_c, 0, 50, 75
1, 515106, Note_on_c, 0, 53, 77
1, 515125, Note_on_c, 0, 68, 81
1, 515141, Note_off_c, 0, 59, 62
1, 515143, Note_off_c, 0, 50, 68
1, 515146, Note_off_c, 0, 53, 67
1, 515150, Note_off_c, 0, 56, 63
1, 515160, Control_c, 0, 64, 53
1, 515168, Note_off_c, 0, 69, 58
1, 515174, Control_c, 0, 64, 65
1, 515189, Control_c, 0, 64, 74
1, 515204, Note_on_c, 0, 66, 78
1, 515204, Control_c, 0, 64, 87
1, 515219, Control_c, 0, 64, 103
1, 515234, Control_c, 0, 64, 127
1, 515268, Note_off_c, 0, 68, 63
1, 515275, Note_on_c, 0, 65, 79
1, 515289, Note_off_c, 0, 66, 64
1, 515299, Note_off_c, 0, 65, 67
1, 515368, Note_on_c, 0, 71, 86
1, 515450, Note_on_c, 0, 77, 83
1, 515454, Note_off_c, 0, 71, 60
1, 515549, Note_off_c, 0, 77, 43
1, 515558, Note_on_c, 0, 81, 80
1, 515642, Control_c, 0, 64, 103
1, 515651, Note_on_c, 0, 68, 86
1, 515653, Note_on_c, 0, 71, 90
1, 515653, Note_on_c, 0, 80, 88
1, 515654, Note_on_c, 0, 62, 74
1, 515657, Control_c, 0, 64, 81
1, 515659, Note_on_c, 0, 65, 83
1, 515672, Control_c, 0, 64, 61
1, 515687, Control_c, 0, 64, 0
1, 515700, Note_off_c, 0, 81, 56
1, 515731, Control_c, 0, 64, 48
1, 515746, Control_c, 0, 64, 62
1, 515755, Note_on_c, 0, 78, 81
1, 515761, Control_c, 0, 64, 70
1, 515776, Control_c, 0, 64, 82
1, 515790, Control_c, 0, 64, 96
1, 515804, Control_c, 0, 64, 110
1, 515819, Control_c, 0, 64, 127
1, 515849, Note_on_c, 0, 77, 84
1, 515867, Note_off_c, 0, 80, 53
1, 515880, Note_off_c, 0, 78, 64
1, 515893, Note_off_c, 0, 77, 66
1, 515901, Note_off_c, 0, 71, 65
1, 515960, Note_on_c, 0, 83, 87
1, 516071, Note_on_c, 0, 89, 92
1, 516081, Note_off_c, 0, 83, 39
1, 516113, Note_on_c, 0, 73, 78
1, 516146, Note_off_c, 0, 62, 57
1, 516148, Note_off_c, 0, 89, 62
1, 516157, Note_off_c, 0, 65, 61
1, 516161, Note_off_c, 0, 68, 59
1, 516165, Note_off_c, 0, 73, 64
1, 516205, Note_on_c, 0, 93, 98
1, 516392, Note_on_c, 0, 68, 63
1, 516392, Note_on_c, 0, 71, 71
1, 516392, Note_on_c, 0, 92, 93
1, 516396, Note_on_c, 0, 62, 60
1, 516396, Note_on_c, 0, 86, 88
1, 516397, Note_on_c, 0, 65, 65
1, 516417, Note_off_c, 0, 93, 63
1, 516420, Control_c, 0, 64, 114
1, 516435, Control_c, 0, 64, 89
1, 516450, Control_c, 0, 64, 71
1, 516465, Control_c, 0, 64, 50
1, 516479, Control_c, 0, 64, 0
1, 516509, Control_c, 0, 64, 43
1, 516524, Control_c, 0, 64, 56
1, 516538, Control_c, 0, 64, 62
1, 516553, Control_c, 0, 64, 65
1, 516568, Control_c, 0, 64, 70
1, 516570, Note_on_c, 0, 85, 85
1, 516583, Control_c, 0, 64, 75
1, 516597, Control_c, 0, 64, 81
1, 516600, Note_off_c, 0, 86, 58
1, 516612, Control_c, 0, 64, 86
1, 516627, Control_c, 0, 64, 88
1, 516642, Control_c, 0, 64, 90
1, 516657, Control_c, 0, 64, 91
1, 516671, Control_c, 0, 64, 93
1, 516686, Control_c, 0, 64, 93
1, 516691, Note_off_c, 0, 92, 64
1, 516703, Note_on_c, 0, 84, 79
1, 516721, Note_off_c, 0, 85, 64
1, 516805, Note_on_c, 0, 83, 82
1, 516813, Note_off_c, 0, 84, 58
1, 516828, Note_off_c, 0, 71, 61
1, 516830, Note_off_c, 0, 62, 59
1, 516859, Note_off_c, 0, 65, 61
1, 516864, Note_off_c, 0, 68, 65
1, 516904, Note_on_c, 0, 82, 86
1, 516931, Note_off_c, 0, 83, 61
1, 516984, Note_off_c, 0, 82, 63
1, 517001, Note_on_c, 0, 81, 76
1, 517094, Control_c, 0, 64, 92
1, 517108, Control_c, 0, 64, 89
1, 517120, Note_on_c, 0, 71, 69
1, 517123, Control_c, 0, 64, 83
1, 517132, Note_on_c, 0, 86, 75
1, 517133, Note_on_c, 0, 80, 75
1, 517138, Control_c, 0, 64, 75
1, 517151, Note_off_c, 0, 81, 62
1, 517154, Control_c, 0, 64, 72
1, 517168, Control_c, 0, 64, 72
1, 517183, Control_c, 0, 64, 74
1, 517198, Control_c, 0, 64, 76
1, 517213, Control_c, 0, 64, 79
1, 517228, Control_c, 0, 64, 82
1, 517237, Note_off_c, 0, 71, 63
1, 517243, Control_c, 0, 64, 84
1, 517247, Note_on_c, 0, 70, 59
1, 517253, Note_off_c, 0, 80, 63
1, 517258, Control_c, 0, 64, 86
1, 517260, Note_on_c, 0, 79, 67
1, 517272, Control_c, 0, 64, 87
1, 517274, Note_off_c, 0, 86, 62
1, 517287, Control_c, 0, 64, 87
1, 517317, Control_c, 0, 64, 88
1, 517332, Note_off_c, 0, 70, 62
1, 517332, Control_c, 0, 64, 88
1, 517361, Note_on_c, 0, 69, 62
1, 517362, Note_on_c, 0, 78, 75
1, 517362, Control_c, 0, 64, 89
1, 517365, Note_off_c, 0, 79, 59
1, 517430, Note_off_c, 0, 69, 61
1, 517448, Note_on_c, 0, 77, 70
1, 517450, Note_on_c, 0, 68, 60
1, 517454, Note_off_c, 0, 78, 64
1, 517492, Note_off_c, 0, 77, 62
1, 517504, Note_off_c, 0, 68, 63
1, 517533, Note_on_c, 0, 76, 63
1, 517537, Note_on_c, 0, 67, 67
1, 517575, Note_off_c, 0, 67, 58
1, 517592, Note_on_c, 0, 66, 66
1, 517597, Note_on_c, 0, 75, 76
1, 517599, Note_off_c, 0, 76, 61
1, 517613, Control_c, 0, 64, 85
1, 517628, Control_c, 0, 64, 78
1, 517638, Note_off_c, 0, 75, 47
1, 517643, Control_c, 0, 64, 68
1, 517645, Note_off_c, 0, 66, 63
1, 517658, Control_c, 0, 64, 59
1, 517673, Control_c, 0, 64, 57
1, 517675, Note_on_c, 0, 65, 71
1, 517675, Note_on_c, 0, 80, 80
1, 517682, Note_on_c, 0, 74, 66
1, 517687, Control_c, 0, 64, 61
1, 517702, Control_c, 0, 64, 64
1, 517723, Note_off_c, 0, 65, 50
1, 517725, Control_c, 0, 64, 67
1, 517740, Control_c, 0, 64, 70
1, 517754, Control_c, 0, 64, 73
1, 517767, Note_on_c, 0, 64, 59
1, 517769, Control_c, 0, 64, 76
1, 517770, Note_off_c, 0, 74, 57
1, 517776, Note_on_c, 0, 73, 75
1, 517784, Control_c, 0, 64, 78
1, 517799, Control_c, 0, 64, 80
1, 517814, Control_c, 0, 64, 80
1, 517827, Note_off_c, 0, 64, 63
1, 517833, Note_off_c, 0, 80, 61
1, 517836, Note_on_c, 0, 63, 67
1, 517839, Note_off_c, 0, 73, 63
1, 517840, Note_on_c, 0, 72, 67
1, 517884, Note_off_c, 0, 63, 61
1, 517904, Note_on_c, 0, 62, 62
1, 517911, Note_off_c, 0, 72, 56
1, 517915, Note_on_c, 0, 71, 75
1, 517945, Note_off_c, 0, 62, 56
1, 517962, Note_on_c, 0, 61, 72
1, 517989, Note_on_c, 0, 70, 80
1, 517990, Note_off_c, 0, 71, 65
1, 518021, Note_off_c, 0, 61, 64
1, 518022, Control_c, 0, 64, 81
1, 518040, Note_off_c, 0, 70, 62
1, 518042, Note_on_c, 0, 60, 73
1, 518045, Note_on_c, 0, 69, 71
1, 518081, Control_c, 0, 64, 80
1, 518096, Control_c, 0, 64, 76
1, 518108, Note_on_c, 0, 59, 80
1, 518108, Note_off_c, 0, 60, 58
1, 518110, Control_c, 0, 64, 69
1, 518122, Note_on_c, 0, 74, 81
1, 518124, Note_on_c, 0, 68, 82
1, 518125, Control_c, 0, 64, 59
1, 518137, Note_off_c, 0, 69, 64
1, 518140, Control_c, 0, 64, 44
1, 518155, Control_c, 0, 64, 47
1, 518170, Control_c, 0, 64, 56
1, 518184, Note_off_c, 0, 59, 62
1, 518185, Control_c, 0, 64, 63
1, 518187, Note_on_c, 0, 58, 75
1, 518200, Control_c, 0, 64, 66
1, 518202, Note_off_c, 0, 68, 64
1, 518205, Note_on_c, 0, 67, 73
1, 518214, Control_c, 0, 64, 70
1, 518229, Control_c, 0, 64, 74
1, 518231, Note_off_c, 0, 74, 64
1, 518244, Control_c, 0, 64, 78
1, 518244, Note_off_c, 0, 58, 63
1, 518256, Note_on_c, 0, 57, 72
1, 518259, Control_c, 0, 64, 79
1, 518277, Note_on_c, 0, 66, 80
1, 518287, Note_off_c, 0, 67, 60
1, 518314, Note_off_c, 0, 57, 56
1, 518317, Note_on_c, 0, 56, 77
1, 518348, Note_on_c, 0, 65, 84
1, 518375, Note_off_c, 0, 56, 63
1, 518382, Note_off_c, 0, 66, 56
1, 518405, Note_on_c, 0, 55, 76
1, 518410, Note_off_c, 0, 65, 63
1, 518420, Note_on_c, 0, 64, 70
1, 518469, Note_off_c, 0, 55, 50
1, 518472, Note_on_c, 0, 54, 80
1, 518495, Note_on_c, 0, 63, 82
1, 518501, Note_off_c, 0, 64, 65
1, 518526, Note_off_c, 0, 63, 64
1, 518529, Note_off_c, 0, 54, 65
1, 518533, Control_c, 0, 64, 78
1, 518548, Control_c, 0, 64, 75
1, 518563, Control_c, 0, 64, 66
1, 518566, Note_on_c, 0, 53, 77
1, 518569, Note_on_c, 0, 68, 90
1, 518577, Note_on_c, 0, 62, 78
1, 518577, Control_c, 0, 64, 53
1, 518592, Control_c, 0, 64, 37
1, 518607, Control_c, 0, 64, 44
1, 518622, Control_c, 0, 64, 55
1, 518637, Control_c, 0, 64, 61
1, 518643, Note_off_c, 0, 53, 64
1, 518644, Note_on_c, 0, 52, 74
1, 518651, Control_c, 0, 64, 64
1, 518659, Note_on_c, 0, 61, 80
1, 518663, Note_off_c, 0, 62, 61
1, 518666, Control_c, 0, 64, 69
1, 518681, Control_c, 0, 64, 73
1, 518696, Control_c, 0, 64, 76
1, 518711, Control_c, 0, 64, 77
1, 518724, Note_off_c, 0, 52, 63
1, 518725, Note_on_c, 0, 51, 76
1, 518725, Control_c, 0, 64, 78
1, 518733, Note_on_c, 0, 60, 73
1, 518741, Note_off_c, 0, 68, 63
1, 518745, Note_off_c, 0, 61, 62
1, 518795, Note_off_c, 0, 51, 63
1, 518807, Note_on_c, 0, 50, 75
1, 518815, Note_on_c, 0, 59, 82
1, 518828, Note_off_c, 0, 60, 60
1, 518878, Note_on_c, 0, 49, 78
1, 518882, Note_off_c, 0, 50, 64
1, 518889, Control_c, 0, 64, 77
1, 518898, Note_on_c, 0, 58, 82
1, 518909, Note_off_c, 0, 59, 59
1, 518957, Note_off_c, 0, 49, 63
1, 518966, Note_off_c, 0, 58, 61
1, 518966, Note_on_c, 0, 57, 74
1, 518974, Note_on_c, 0, 48, 76
1, 519007, Control_c, 0, 64, 77
1, 519022, Control_c, 0, 64, 74
1, 519037, Control_c, 0, 64, 66
1, 519052, Control_c, 0, 64, 55
1, 519057, Note_on_c, 0, 47, 84
1, 519065, Note_on_c, 0, 56, 89
1, 519065, Note_on_c, 0, 62, 82
1, 519067, Control_c, 0, 64, 26
1, 519076, Note_off_c, 0, 48, 62
1, 519082, Control_c, 0, 64, 0
1, 519088, Note_off_c, 0, 57, 63
1, 519097, Control_c, 0, 64, 26
1, 519112, Control_c, 0, 64, 45
1, 519127, Control_c, 0, 64, 55
1, 519141, Control_c, 0, 64, 60
1, 519156, Note_on_c, 0, 46, 81
1, 519156, Control_c, 0, 64, 63
1, 519159, Note_off_c, 0, 56, 62
1, 519166, Note_on_c, 0, 55, 72
1, 519166, Note_off_c, 0, 47, 63
1, 519171, Control_c, 0, 64, 65
1, 519185, Control_c, 0, 64, 66
1, 519200, Control_c, 0, 64, 66
1, 519222, Control_c, 0, 64, 64
1, 519237, Control_c, 0, 64, 57
1, 519252, Control_c, 0, 64, 49
1, 519263, Note_off_c, 0, 46, 63
1, 519267, Control_c, 0, 64, 50
1, 519269, Note_on_c, 0, 45, 83
1, 519269, Note_on_c, 0, 54, 83
1, 519282, Control_c, 0, 64, 56
1, 519285, Note_off_c, 0, 55, 61
1, 519296, Control_c, 0, 64, 60
1, 519311, Control_c, 0, 64, 62
1, 519326, Control_c, 0, 64, 64
1, 519341, Control_c, 0, 64, 66
1, 519356, Control_c, 0, 64, 69
1, 519365, Note_on_c, 0, 44, 77
1, 519371, Control_c, 0, 64, 71
1, 519376, Note_on_c, 0, 53, 85
1, 519377, Note_off_c, 0, 62, 55
1, 519386, Note_off_c, 0, 45, 56
1, 519386, Control_c, 0, 64, 72
1, 519415, Control_c, 0, 64, 71
1, 519430, Control_c, 0, 64, 71
1, 519434, Note_off_c, 0, 54, 61
1, 519445, Control_c, 0, 64, 70
1, 519467, Note_off_c, 0, 44, 62
1, 519471, Note_on_c, 0, 43, 87
1, 519474, Control_c, 0, 64, 71
1, 519482, Note_on_c, 0, 52, 75
1, 519489, Control_c, 0, 64, 72
1, 519493, Note_off_c, 0, 53, 62
1, 519504, Control_c, 0, 64, 72
1, 519532, Control_c, 0, 64, 73
1, 519548, Control_c, 0, 64, 73
1, 519562, Control_c, 0, 64, 74
1, 519574, Note_on_c, 0, 42, 84
1, 519577, Note_on_c, 0, 51, 79
1, 519577, Control_c, 0, 64, 75
1, 519589, Note_off_c, 0, 43, 63
1, 519592, Note_off_c, 0, 52, 62
1, 519592, Control_c, 0, 64, 76
1, 519607, Note_off_c, 0, 51, 66
1, 519607, Control_c, 0, 64, 77
1, 519610, Note_off_c, 0, 42, 63
1, 519621, Control_c, 0, 64, 77
1, 519636, Control_c, 0, 64, 78
1, 519666, Control_c, 0, 64, 78
1, 519681, Control_c, 0, 64, 79
1, 519696, Control_c, 0, 64, 79
1, 519711, Control_c, 0, 64, 80
1, 519770, Control_c, 0, 64, 78
1, 519785, Control_c, 0, 64, 74
1, 519788, Note_on_c, 0, 41, 78
1, 519789, Note_on_c, 0, 29, 81
1, 519795, Note_on_c, 0, 50, 90
1, 519795, Note_on_c, 0, 56, 84
1, 519797, Note_on_c, 0, 59, 81
1, 519800, Control_c, 0, 64, 60
1, 519814, Control_c, 0, 64, 0
1, 520103, Control_c, 0, 64, 36
1, 520118, Control_c, 0, 64, 40
1, 520132, Control_c, 0, 64, 47
1, 520147, Control_c, 0, 64, 55
1, 520162, Control_c, 0, 64, 61
1, 520177, Control_c, 0, 64, 64
1, 520192, Control_c, 0, 64, 68
1, 520206, Control_c, 0, 64, 71
1, 520221, Control_c, 0, 64, 75
1, 520236, Control_c, 0, 64, 78
1, 520251, Control_c, 0, 64, 79
1, 520266, Control_c, 0, 64, 80
1, 520281, Control_c, 0, 64, 80
1, 520284, Note_off_c, 0, 41, 56
1, 520325, Control_c, 0, 64, 81
1, 520356, Control_c, 0, 64, 81
1, 520371, Control_c, 0, 64, 82
1, 520385, Note_off_c, 0, 29, 61
1, 520400, Control_c, 0, 64, 82
1, 520430, Control_c, 0, 64, 83
1, 520504, Control_c, 0, 64, 81
1, 520510, Note_on_c, 0, 40, 98
1, 520514, Note_on_c, 0, 28, 87
1, 520519, Control_c, 0, 64, 76
1, 520534, Control_c, 0, 64, 67
1, 520548, Control_c, 0, 64, 39
1, 520563, Control_c, 0, 64, 0
1, 520867, Control_c, 0, 64, 29
1, 520882, Control_c, 0, 64, 52
1, 520897, Control_c, 0, 64, 62
1, 520911, Control_c, 0, 64, 68
1, 520926, Control_c, 0, 64, 74
1, 520941, Control_c, 0, 64, 81
1, 520955, Control_c, 0, 64, 87
1, 520970, Control_c, 0, 64, 92
1, 520985, Control_c, 0, 64, 96
1, 521000, Control_c, 0, 64, 101
1, 521015, Control_c, 0, 64, 108
1, 521031, Note_off_c, 0, 59, 50
1, 521031, Control_c, 0, 64, 120
1, 521046, Control_c, 0, 64, 127
1, 521063, Note_off_c, 0, 50, 35
1, 521091, Note_off_c, 0, 56, 37
1, 521161, Note_on_c, 0, 60, 89
1, 521390, Note_on_c, 0, 48, 82
1, 521440, Note_off_c, 0, 48, 62
1, 521523, Note_on_c, 0, 48, 80
1, 521583, Note_off_c, 0, 60, 57
1, 521585, Note_off_c, 0, 40, 59
1, 521586, Poly_aftertouch_c, 0, 34, 127
1, 521623, Note_on_c, 0, 56, 81
1, 521633, Note_off_c, 0, 48, 58
1, 521634, Poly_aftertouch_c, 0, 34, 0
1, 521648, Poly_aftertouch_c, 0, 58, 127
1, 521688, Poly_aftertouch_c, 0, 58, 0
1, 521834, Note_on_c, 0, 39, 88
1, 521835, Note_on_c, 0, 27, 85
1, 521838, Note_off_c, 0, 28, 58
1, 521840, Note_on_c, 0, 63, 86
1, 521884, Control_c, 0, 64, 110
1, 521899, Control_c, 0, 64, 85
1, 521913, Control_c, 0, 64, 67
1, 521929, Control_c, 0, 64, 29
1, 521944, Control_c, 0, 64, 0
1, 522218, Control_c, 0, 64, 43
1, 522233, Control_c, 0, 64, 58
1, 522248, Control_c, 0, 64, 63
1, 522262, Control_c, 0, 64, 67
1, 522277, Control_c, 0, 64, 74
1, 522292, Control_c, 0, 64, 81
1, 522307, Control_c, 0, 64, 88
1, 522322, Control_c, 0, 64, 96
1, 522336, Control_c, 0, 64, 104
1, 522337, Note_off_c, 0, 63, 61
1, 522351, Control_c, 0, 64, 113
1, 522366, Control_c, 0, 64, 127
1, 522410, Note_off_c, 0, 39, 50
1, 522420, Note_off_c, 0, 56, 26
1, 522455, Note_off_c, 0, 27, 39
1, 522693, Note_on_c, 0, 27, 79
1, 522693, Note_on_c, 0, 39, 81
1, 522696, Note_on_c, 0, 56, 81
1, 522697, Note_on_c, 0, 60, 83
1, 522698, Note_on_c, 0, 51, 82
1, 522721, Control_c, 0, 64, 103
1, 522736, Control_c, 0, 64, 85
1, 522751, Control_c, 0, 64, 67
1, 522766, Control_c, 0, 64, 45
1, 522781, Control_c, 0, 64, 0
1, 522840, Control_c, 0, 64, 31
1, 522855, Control_c, 0, 64, 41
1, 522870, Control_c, 0, 64, 46
1, 522885, Control_c, 0, 64, 50
1, 522899, Control_c, 0, 64, 53
1, 522914, Control_c, 0, 64, 56
1, 522929, Control_c, 0, 64, 59
1, 522944, Control_c, 0, 64, 63
1, 522966, Control_c, 0, 64, 66
1, 522981, Control_c, 0, 64, 70
1, 522996, Control_c, 0, 64, 74
1, 523011, Control_c, 0, 64, 78
1, 523026, Control_c, 0, 64, 80
1, 523040, Control_c, 0, 64, 81
1, 523055, Control_c, 0, 64, 83
1, 523070, Control_c, 0, 64, 84
1, 523085, Control_c, 0, 64, 86
1, 523100, Control_c, 0, 64, 87
1, 523114, Control_c, 0, 64, 88
1, 523129, Control_c, 0, 64, 90
1, 523144, Control_c, 0, 64, 91
1, 523158, Control_c, 0, 64, 92
1, 523173, Control_c, 0, 64, 92
1, 523188, Control_c, 0, 64, 93
1, 523203, Control_c, 0, 64, 94
1, 523218, Control_c, 0, 64, 95
1, 523232, Control_c, 0, 64, 95
1, 523244, Note_off_c, 0, 27, 60
1, 523247, Control_c, 0, 64, 96
1, 523274, Note_off_c, 0, 51, 53
1, 523277, Control_c, 0, 64, 96
1, 523301, Note_off_c, 0, 60, 52
1, 523314, Note_off_c, 0, 39, 58
1, 523388, Note_off_c, 0, 56, 42
1, 523634, Control_c, 0, 64, 95
1, 523648, Control_c, 0, 64, 93
1, 523663, Control_c, 0, 64, 90
1, 523678, Control_c, 0, 64, 86
1, 523693, Control_c, 0, 64, 81
1, 523715, Control_c, 0, 64, 75
1, 523729, Control_c, 0, 64, 68
1, 523744, Control_c, 0, 64, 61
1, 523759, Control_c, 0, 64, 46
1, 523774, Control_c, 0, 64, 0
1, 523922, Note_on_c, 0, 48, 73
1, 523926, Note_on_c, 0, 51, 67
1, 523926, Note_on_c, 0, 39, 62
1, 523926, Note_on_c, 0, 63, 88
1, 523928, Note_on_c, 0, 56, 82
1, 523928, Note_on_c, 0, 60, 79
1, 523981, Control_c, 0, 64, 10
1, 523996, Control_c, 0, 64, 52
1, 524011, Control_c, 0, 64, 64
1, 524027, Control_c, 0, 64, 72
1, 524036, Note_off_c, 0, 51, 62
1, 524039, Note_off_c, 0, 48, 63
1, 524042, Control_c, 0, 64, 84
1, 524045, Note_off_c, 0, 39, 61
1, 524056, Control_c, 0, 64, 96
1, 524071, Control_c, 0, 64, 109
1, 524086, Control_c, 0, 64, 127
1, 524100, Note_off_c, 0, 60, 60
1, 524105, Note_off_c, 0, 56, 56
1, 524520, Note_on_c, 0, 48, 65
1, 524522, Note_on_c, 0, 68, 84
1, 524523, Note_on_c, 0, 39, 64
1, 524524, Note_on_c, 0, 56, 87
1, 524525, Note_on_c, 0, 60, 84
1, 524528, Note_on_c, 0, 51, 65
1, 524548, Note_off_c, 0, 63, 60
1, 524583, Control_c, 0, 64, 103
1, 524598, Control_c, 0, 64, 86
1, 524612, Control_c, 0, 64, 68
1, 524627, Control_c, 0, 64, 0
1, 524938, Control_c, 0, 64, 38
1, 524953, Control_c, 0, 64, 52
1, 524968, Control_c, 0, 64, 59
1, 524983, Control_c, 0, 64, 64
1, 524998, Control_c, 0, 64, 69
1, 525012, Control_c, 0, 64, 76
1, 525027, Control_c, 0, 64, 84
1, 525042, Control_c, 0, 64, 89
1, 525057, Control_c, 0, 64, 92
1, 525072, Control_c, 0, 64, 95
1, 525086, Control_c, 0, 64, 97
1, 525100, Note_off_c, 0, 60, 59
1, 525101, Control_c, 0, 64, 97
1, 525107, Note_off_c, 0, 56, 55
1, 525470, Note_on_c, 0, 67, 76
1, 525479, Note_off_c, 0, 68, 63
1, 525509, Control_c, 0, 64, 93
1, 525524, Control_c, 0, 64, 88
1, 525539, Control_c, 0, 64, 81
1, 525553, Control_c, 0, 64, 73
1, 525568, Control_c, 0, 64, 68
1, 525583, Control_c, 0, 64, 66
1, 525598, Control_c, 0, 64, 68
1, 525613, Control_c, 0, 64, 71
1, 525628, Control_c, 0, 64, 73
1, 525643, Control_c, 0, 64, 76
1, 525658, Control_c, 0, 64, 78
1, 525673, Control_c, 0, 64, 78
1, 525688, Control_c, 0, 64, 79
1, 525776, Control_c, 0, 64, 79
1, 525977, Control_c, 0, 64, 79
1, 525986, Note_on_c, 0, 65, 67
1, 525992, Control_c, 0, 64, 78
1, 526006, Control_c, 0, 64, 77
1, 526021, Control_c, 0, 64, 76
1, 526051, Control_c, 0, 64, 75
1, 526063, Note_off_c, 0, 67, 57
1, 526081, Control_c, 0, 64, 76
1, 526126, Control_c, 0, 64, 76
1, 526155, Control_c, 0, 64, 77
1, 526170, Control_c, 0, 64, 77
1, 526184, Control_c, 0, 64, 78
1, 526229, Control_c, 0, 64, 78
1, 526598, Control_c, 0, 64, 78
1, 526672, Control_c, 0, 64, 77
1, 526709, Control_c, 0, 64, 77
1, 526737, Note_on_c, 0, 63, 48
1, 526740, Control_c, 0, 64, 76
1, 526755, Control_c, 0, 64, 76
1, 526770, Control_c, 0, 64, 75
1, 526785, Control_c, 0, 64, 75
1, 526799, Control_c, 0, 64, 74
1, 526814, Control_c, 0, 64, 73
1, 526829, Control_c, 0, 64, 72
1, 526844, Control_c, 0, 64, 70
1, 526859, Control_c, 0, 64, 70
1, 526868, Note_off_c, 0, 65, 33
1, 526874, Control_c, 0, 64, 69
1, 526888, Control_c, 0, 64, 69
1, 527096, Control_c, 0, 64, 69
1, 527125, Control_c, 0, 64, 70
1, 527140, Control_c, 0, 64, 70
1, 527155, Control_c, 0, 64, 71
1, 527170, Control_c, 0, 64, 71
1, 527185, Control_c, 0, 64, 72
1, 527199, Control_c, 0, 64, 74
1, 527214, Control_c, 0, 64, 76
1, 527229, Control_c, 0, 64, 77
1, 527244, Control_c, 0, 64, 79
1, 527259, Control_c, 0, 64, 80
1, 527273, Control_c, 0, 64, 81
1, 527303, Control_c, 0, 64, 81
1, 527557, Note_off_c, 0, 48, 32
1, 527571, Note_off_c, 0, 39, 35
1, 527571, Note_off_c, 0, 51, 35
1, 527681, Note_off_c, 0, 63, 41
1, 527860, Control_c, 0, 64, 81
1, 527890, Control_c, 0, 64, 80
1, 527904, Control_c, 0, 64, 80
1, 527919, Control_c, 0, 64, 79
1, 527934, Control_c, 0, 64, 78
1, 527948, Control_c, 0, 64, 76
1, 527963, Control_c, 0, 64, 75
1, 528008, Control_c, 0, 64, 74
1, 528052, Control_c, 0, 64, 74
1, 528067, Control_c, 0, 64, 73
1, 528082, Control_c, 0, 64, 72
1, 528096, Control_c, 0, 64, 71
1, 528111, Control_c, 0, 64, 69
1, 528126, Control_c, 0, 64, 66
1, 528141, Control_c, 0, 64, 63
1, 528156, Control_c, 0, 64, 60
1, 528171, Control_c, 0, 64, 57
1, 528186, Control_c, 0, 64, 56
1, 528208, Control_c, 0, 64, 56
1, 528267, Control_c, 0, 64, 55
1, 528281, Control_c, 0, 64, 55
1, 528311, Control_c, 0, 64, 54
1, 528342, Control_c, 0, 64, 54
1, 528386, Control_c, 0, 64, 53
1, 528431, Control_c, 0, 64, 52
1, 528490, Control_c, 0, 64, 52
1, 528904, Control_c, 0, 64, 52
1, 528919, Control_c, 0, 64, 53
1, 528957, Control_c, 0, 64, 53
1, 528986, Control_c, 0, 64, 54
1, 529001, Control_c, 0, 64, 54
1, 529016, Control_c, 0, 64, 55
1, 529031, Control_c, 0, 64, 56
1, 529046, Control_c, 0, 64, 56
1, 529060, Control_c, 0, 64, 57
1, 529090, Control_c, 0, 64, 57
1, 529417, Control_c, 0, 64, 57
1, 529627, Note_on_c, 0, 60, 33
1, 529721, Control_c, 0, 64, 57
1, 529735, Control_c, 0, 64, 58
1, 529750, Control_c, 0, 64, 58
1, 529765, Control_c, 0, 64, 59
1, 529780, Control_c, 0, 64, 60
1, 529795, Control_c, 0, 64, 61
1, 529809, Control_c, 0, 64, 63
1, 529824, Control_c, 0, 64, 63
1, 529839, Control_c, 0, 64, 64
1, 529854, Control_c, 0, 64, 64
1, 529869, Control_c, 0, 64, 65
1, 529883, Control_c, 0, 64, 66
1, 529898, Control_c, 0, 64, 67
1, 529913, Control_c, 0, 64, 67
1, 529929, Control_c, 0, 64, 68
1, 529943, Control_c, 0, 64, 69
1, 529958, Control_c, 0, 64, 70
1, 529973, Control_c, 0, 64, 70
1, 529988, Control_c, 0, 64, 71
1, 530043, Note_on_c, 0, 63, 52
1, 530136, Note_off_c, 0, 60, 58
1, 530136, Control_c, 0, 64, 70
1, 530180, Control_c, 0, 64, 70
1, 530210, Control_c, 0, 64, 69
1, 530224, Control_c, 0, 64, 69
1, 530239, Control_c, 0, 64, 68
1, 530254, Control_c, 0, 64, 68
1, 530269, Control_c, 0, 64, 67
1, 530284, Control_c, 0, 64, 67
1, 530299, Control_c, 0, 64, 66
1, 530314, Control_c, 0, 64, 65
1, 530329, Control_c, 0, 64, 64
1, 530335, Note_on_c, 0, 72, 62
1, 530343, Control_c, 0, 64, 63
1, 530358, Control_c, 0, 64, 60
1, 530373, Control_c, 0, 64, 59
1, 530388, Control_c, 0, 64, 57
1, 530403, Control_c, 0, 64, 55
1, 530417, Control_c, 0, 64, 54
1, 530432, Control_c, 0, 64, 54
1, 530434, Note_off_c, 0, 63, 53
1, 530454, Control_c, 0, 64, 53
1, 530469, Control_c, 0, 64, 52
1, 530484, Control_c, 0, 64, 52
1, 530499, Control_c, 0, 64, 51
1, 530514, Control_c, 0, 64, 50
1, 530529, Control_c, 0, 64, 50
1, 530543, Control_c, 0, 64, 49
1, 530558, Control_c, 0, 64, 49
1, 530573, Control_c, 0, 64, 48
1, 530603, Control_c, 0, 64, 48
1, 530618, Control_c, 0, 64, 47
1, 530647, Control_c, 0, 64, 47
1, 530676, Control_c, 0, 64, 46
1, 530722, Control_c, 0, 64, 46
1, 530742, Note_on_c, 0, 70, 55
1, 530767, Control_c, 0, 64, 45
1, 530855, Note_off_c, 0, 72, 50
1, 530885, Control_c, 0, 64, 45
1, 531619, Control_c, 0, 64, 49
1, 531634, Control_c, 0, 64, 58
1, 531649, Control_c, 0, 64, 63
1, 531663, Control_c, 0, 64, 65
1, 531678, Control_c, 0, 64, 67
1, 531693, Control_c, 0, 64, 70
1, 531708, Control_c, 0, 64, 74
1, 531722, Control_c, 0, 64, 76
1, 531737, Control_c, 0, 64, 77
1, 531752, Control_c, 0, 64, 78
1, 531841, Control_c, 0, 64, 78
1, 532018, Note_on_c, 0, 68, 35
1, 532085, Control_c, 0, 64, 78
1, 532114, Control_c, 0, 64, 77
1, 532129, Control_c, 0, 64, 77
1, 532144, Control_c, 0, 64, 76
1, 532159, Control_c, 0, 64, 75
1, 532174, Control_c, 0, 64, 74
1, 532189, Control_c, 0, 64, 73
1, 532204, Control_c, 0, 64, 72
1, 532219, Control_c, 0, 64, 72
1, 532234, Control_c, 0, 64, 71
1, 532248, Control_c, 0, 64, 70
1, 532249, Note_off_c, 0, 70, 35
1, 532262, Control_c, 0, 64, 69
1, 532277, Control_c, 0, 64, 69
1, 532292, Control_c, 0, 64, 68
1, 532307, Control_c, 0, 64, 67
1, 532323, Control_c, 0, 64, 67
1, 532544, Control_c, 0, 64, 67
1, 532744, Control_c, 0, 64, 68
1, 532774, Control_c, 0, 64, 68
1, 532804, Control_c, 0, 64, 69
1, 532818, Note_off_c, 0, 68, 35
1, 532818, Control_c, 0, 64, 69
1, 532833, Control_c, 0, 64, 70
1, 532997, Control_c, 0, 64, 69
1, 533115, Control_c, 0, 64, 69
1, 533219, Control_c, 0, 64, 68
1, 533263, Control_c, 0, 64, 68
1, 533492, Control_c, 0, 64, 67
1, 533537, Control_c, 0, 64, 67
1, 533805, Control_c, 0, 64, 67
1, 533825, Note_on_c, 0, 60, 49
1, 533849, Control_c, 0, 64, 68
1, 533893, Control_c, 0, 64, 68
1, 533924, Control_c, 0, 64, 69
1, 533954, Control_c, 0, 64, 69
1, 534013, Control_c, 0, 64, 70
1, 534143, Note_on_c, 0, 63, 58
1, 534213, Control_c, 0, 64, 70
1, 534216, Note_off_c, 0, 60, 60
1, 534243, Control_c, 0, 64, 71
1, 534258, Control_c, 0, 64, 73
1, 534272, Control_c, 0, 64, 74
1, 534287, Control_c, 0, 64, 75
1, 534302, Control_c, 0, 64, 76
1, 534316, Control_c, 0, 64, 77
1, 534331, Control_c, 0, 64, 78
1, 534346, Control_c, 0, 64, 79
1, 534361, Control_c, 0, 64, 79
1, 534387, Note_on_c, 0, 75, 65
1, 534416, Note_off_c, 0, 63, 65
1, 534464, Control_c, 0, 64, 79
1, 534494, Control_c, 0, 64, 78
1, 534509, Control_c, 0, 64, 78
1, 534523, Control_c, 0, 64, 77
1, 534538, Control_c, 0, 64, 77
1, 534553, Control_c, 0, 64, 76
1, 534568, Control_c, 0, 64, 76
1, 534583, Control_c, 0, 64, 75
1, 534597, Control_c, 0, 64, 75
1, 534612, Control_c, 0, 64, 74
1, 534642, Control_c, 0, 64, 74
1, 534657, Control_c, 0, 64, 73
1, 534687, Control_c, 0, 64, 73
1, 534702, Control_c, 0, 64, 72
1, 534717, Control_c, 0, 64, 71
1, 534732, Control_c, 0, 64, 70
1, 534747, Control_c, 0, 64, 69
1, 534758, Note_on_c, 0, 73, 65
1, 534761, Control_c, 0, 64, 67
1, 534776, Control_c, 0, 64, 65
1, 534791, Control_c, 0, 64, 63
1, 534806, Control_c, 0, 64, 60
1, 534821, Control_c, 0, 64, 57
1, 534836, Control_c, 0, 64, 56
1, 534851, Control_c, 0, 64, 55
1, 534866, Control_c, 0, 64, 54
1, 534880, Control_c, 0, 64, 53
1, 534895, Control_c, 0, 64, 52
1, 534910, Control_c, 0, 64, 52
1, 534912, Note_off_c, 0, 75, 54
1, 534925, Control_c, 0, 64, 51
1, 534946, Control_c, 0, 64, 50
1, 534961, Control_c, 0, 64, 50
1, 534976, Control_c, 0, 64, 49
1, 535006, Control_c, 0, 64, 49
1, 535036, Control_c, 0, 64, 48
1, 535051, Control_c, 0, 64, 48
1, 535080, Control_c, 0, 64, 47
1, 535139, Control_c, 0, 64, 48
1, 535169, Control_c, 0, 64, 48
1, 535169, Control_c, 0, 67, 8
1, 535199, Control_c, 0, 64, 49
1, 535199, Control_c, 0, 67, 8
1, 535228, Control_c, 0, 64, 49
1, 535258, Control_c, 0, 64, 50
1, 535317, Control_c, 0, 67, 9
1, 535376, Control_c, 0, 67, 9
1, 535391, Control_c, 0, 64, 50
1, 535450, Control_c, 0, 64, 51
1, 535450, Control_c, 0, 67, 10
1, 535480, Control_c, 0, 64, 51
1, 535495, Control_c, 0, 64, 52
1, 535510, Control_c, 0, 64, 52
1, 535525, Control_c, 0, 64, 53
1, 535540, Control_c, 0, 64, 54
1, 535555, Control_c, 0, 64, 55
1, 535569, Control_c, 0, 64, 56
1, 535584, Control_c, 0, 64, 57
1, 535599, Control_c, 0, 64, 58
1, 535614, Control_c, 0, 64, 59
1, 535614, Control_c, 0, 67, 9
1, 535629, Control_c, 0, 64, 60
1, 535644, Control_c, 0, 64, 61
1, 535659, Control_c, 0, 64, 62
1, 535674, Control_c, 0, 64, 63
1, 535695, Control_c, 0, 64, 64
1, 535710, Control_c, 0, 64, 64
1, 535725, Control_c, 0, 64, 65
1, 535740, Control_c, 0, 64, 65
1, 535755, Control_c, 0, 64, 66
1, 535755, Control_c, 0, 67, 9
1, 535769, Control_c, 0, 64, 67
1, 535799, Control_c, 0, 64, 67
1, 536007, Control_c, 0, 64, 67
1, 536066, Control_c, 0, 64, 66
1, 536081, Control_c, 0, 67, 9
1, 536110, Control_c, 0, 64, 66
1, 536140, Control_c, 0, 64, 65
1, 536155, Control_c, 0, 64, 65
1, 536169, Control_c, 0, 64, 64
1, 536180, Note_on_c, 0, 72, 34
1, 536184, Control_c, 0, 64, 64
1, 536199, Control_c, 0, 64, 63
1, 536214, Control_c, 0, 64, 63
1, 536229, Control_c, 0, 64, 62
1, 536243, Control_c, 0, 64, 61
1, 536258, Control_c, 0, 64, 60
1, 536273, Control_c, 0, 64, 59
1, 536288, Control_c, 0, 64, 57
1, 536303, Control_c, 0, 64, 56
1, 536318, Control_c, 0, 64, 55
1, 536332, Note_off_c, 0, 73, 25
1, 536333, Control_c, 0, 64, 55
1, 536348, Control_c, 0, 64, 54
1, 536363, Control_c, 0, 64, 54
1, 536377, Control_c, 0, 64, 53
1, 536392, Control_c, 0, 64, 53
1, 536407, Control_c, 0, 64, 52
1, 536445, Control_c, 0, 64, 52
1, 536474, Control_c, 0, 64, 51
1, 536504, Control_c, 0, 64, 51
1, 536771, Control_c, 0, 64, 51
1, 536800, Control_c, 0, 64, 52
1, 536815, Control_c, 0, 64, 53
1, 536830, Control_c, 0, 64, 54
1, 536845, Control_c, 0, 64, 54
1, 536859, Control_c, 0, 64, 55
1, 536874, Control_c, 0, 64, 55
1, 536889, Control_c, 0, 64, 56
1, 536904, Control_c, 0, 64, 57
1, 536918, Control_c, 0, 64, 58
1, 536933, Control_c, 0, 64, 59
1, 536948, Control_c, 0, 64, 59
1, 536963, Control_c, 0, 64, 60
1, 536978, Control_c, 0, 64, 61
1, 536992, Control_c, 0, 64, 62
1, 537007, Control_c, 0, 64, 63
1, 537022, Control_c, 0, 64, 64
1, 537036, Control_c, 0, 64, 65
1, 537051, Control_c, 0, 64, 67
1, 537051, Control_c, 0, 67, 10
1, 537066, Control_c, 0, 64, 68
1, 537081, Control_c, 0, 64, 70
1, 537096, Control_c, 0, 64, 71
1, 537112, Control_c, 0, 64, 73
1, 537118, Note_off_c, 0, 72, 39
1, 537127, Control_c, 0, 64, 74
1, 537127, Control_c, 0, 67, 10
1, 537141, Control_c, 0, 64, 75
1, 537156, Control_c, 0, 64, 75
1, 537156, Control_c, 0, 67, 11
1, 537194, Control_c, 0, 64, 76
1, 537253, Control_c, 0, 67, 11
1, 537283, Control_c, 0, 67, 12
1, 537297, Control_c, 0, 67, 14
1, 537312, Control_c, 0, 67, 15
1, 537356, Control_c, 0, 64, 75
1, 537401, Control_c, 0, 64, 75
1, 537474, Control_c, 0, 64, 74
1, 537549, Control_c, 0, 64, 74
1, 537563, Control_c, 0, 64, 73
1, 537608, Control_c, 0, 64, 73
1, 537652, Control_c, 0, 64, 72
1, 537987, Control_c, 0, 64, 72
1, 538017, Control_c, 0, 64, 71
1, 538061, Control_c, 0, 64, 71
1, 538090, Control_c, 0, 67, 15
1, 538150, Control_c, 0, 64, 70
1, 538224, Control_c, 0, 64, 70
1, 538282, Control_c, 0, 64, 69
1, 538386, Control_c, 0, 64, 69
1, 538425, Note_on_c, 0, 63, 38
1, 538550, Control_c, 0, 64, 69
1, 538564, Control_c, 0, 67, 15
1, 538579, Control_c, 0, 64, 70
1, 538594, Control_c, 0, 64, 70
1, 538609, Control_c, 0, 64, 71
1, 538623, Control_c, 0, 64, 71
1, 538638, Control_c, 0, 64, 72
1, 538638, Control_c, 0, 67, 14
1, 538653, Control_c, 0, 64, 73
1, 538668, Control_c, 0, 64, 74
1, 538690, Control_c, 0, 64, 75
1, 538705, Control_c, 0, 64, 76
1, 538720, Control_c, 0, 64, 78
1, 538735, Control_c, 0, 64, 79
1, 538750, Control_c, 0, 64, 80
1, 538765, Control_c, 0, 64, 81
1, 538780, Control_c, 0, 64, 82
1, 538795, Control_c, 0, 64, 83
1, 538809, Control_c, 0, 64, 83
1, 538809, Control_c, 0, 67, 14
1, 538824, Control_c, 0, 64, 84
1, 538854, Control_c, 0, 64, 85
1, 538913, Control_c, 0, 64, 85
1, 538950, Note_on_c, 0, 68, 38
1, 538958, Control_c, 0, 64, 86
1, 538987, Control_c, 0, 64, 86
1, 539032, Control_c, 0, 64, 87
1, 539047, Control_c, 0, 64, 87
1, 539071, Note_off_c, 0, 63, 23
1, 539076, Control_c, 0, 64, 88
1, 539091, Control_c, 0, 64, 88
1, 539105, Control_c, 0, 64, 89
1, 539135, Control_c, 0, 64, 89
1, 539165, Control_c, 0, 64, 90
1, 539239, Control_c, 0, 64, 90
1, 539244, Note_off_c, 0, 68, 63
1, 539294, Note_on_c, 0, 72, 44
1, 539530, Note_off_c, 0, 72, 41
1, 539662, Control_c, 0, 64, 90
1, 539722, Control_c, 0, 64, 89
1, 539766, Control_c, 0, 64, 89
1, 539781, Control_c, 0, 67, 13
1, 539811, Control_c, 0, 64, 88
1, 539841, Control_c, 0, 64, 88
1, 539855, Control_c, 0, 64, 87
1, 539885, Control_c, 0, 64, 87
1, 539900, Control_c, 0, 64, 86
1, 539929, Control_c, 0, 64, 86
1, 539959, Control_c, 0, 64, 85
1, 539959, Control_c, 0, 67, 14
1, 539974, Control_c, 0, 64, 85
1, 539985, Note_on_c, 0, 79, 62
1, 539989, Control_c, 0, 64, 84
1, 540003, Control_c, 0, 64, 84
1, 540018, Control_c, 0, 64, 83
1, 540033, Control_c, 0, 64, 82
1, 540033, Control_c, 0, 67, 14
1, 540048, Control_c, 0, 64, 81
1, 540062, Control_c, 0, 64, 79
1, 540077, Control_c, 0, 64, 78
1, 540077, Control_c, 0, 67, 15
1, 540092, Control_c, 0, 64, 76
1, 540107, Control_c, 0, 64, 75
1, 540122, Control_c, 0, 64, 73
1, 540136, Control_c, 0, 64, 72
1, 540151, Control_c, 0, 64, 70
1, 540166, Control_c, 0, 64, 68
1, 540189, Control_c, 0, 64, 67
1, 540204, Control_c, 0, 64, 67
1, 540397, Control_c, 0, 64, 67
1, 540397, Control_c, 0, 67, 14
1, 540426, Control_c, 0, 64, 68
1, 540441, Control_c, 0, 64, 68
1, 540456, Control_c, 0, 64, 69
1, 540471, Control_c, 0, 64, 70
1, 540485, Control_c, 0, 64, 71
1, 540500, Control_c, 0, 64, 72
1, 540515, Control_c, 0, 64, 72
1, 540530, Control_c, 0, 64, 74
1, 540530, Control_c, 0, 67, 14
1, 540545, Control_c, 0, 64, 74
1, 540559, Control_c, 0, 64, 75
1, 540574, Control_c, 0, 64, 76
1, 540589, Control_c, 0, 64, 76
1, 540604, Control_c, 0, 64, 77
1, 540619, Control_c, 0, 64, 77
1, 540649, Control_c, 0, 64, 78
1, 540678, Control_c, 0, 64, 78
1, 540693, Control_c, 0, 64, 79
1, 540752, Control_c, 0, 64, 79
1, 540812, Control_c, 0, 67, 14
1, 541427, Control_c, 0, 64, 79
1, 541515, Control_c, 0, 64, 78
1, 541558, Note_on_c, 0, 77, 39
1, 541574, Control_c, 0, 64, 78
1, 541589, Control_c, 0, 64, 77
1, 541604, Control_c, 0, 64, 77
1, 541619, Control_c, 0, 64, 76
1, 541633, Control_c, 0, 64, 74
1, 541648, Control_c, 0, 64, 71
1, 541663, Control_c, 0, 64, 68
1, 541680, Note_off_c, 0, 79, 31
1, 541686, Control_c, 0, 64, 66
1, 541701, Control_c, 0, 64, 65
1, 541715, Control_c, 0, 64, 64
1, 541775, Control_c, 0, 64, 64
1, 541789, Control_c, 0, 64, 65
1, 541804, Control_c, 0, 64, 66
1, 541819, Control_c, 0, 64, 66
1, 541833, Control_c, 0, 64, 67
1, 541848, Control_c, 0, 64, 68
1, 541863, Control_c, 0, 64, 69
1, 541878, Control_c, 0, 64, 70
1, 541893, Control_c, 0, 64, 71
1, 541893, Control_c, 0, 67, 14
1, 541909, Control_c, 0, 64, 72
1, 541924, Control_c, 0, 64, 73
1, 541938, Control_c, 0, 64, 74
1, 541953, Control_c, 0, 64, 75
1, 541968, Control_c, 0, 64, 76
1, 541983, Control_c, 0, 64, 77
1, 541998, Control_c, 0, 64, 77
1, 542012, Control_c, 0, 64, 78
1, 542027, Control_c, 0, 64, 79
1, 542042, Control_c, 0, 64, 80
1, 542056, Control_c, 0, 64, 81
1, 542071, Control_c, 0, 64, 81
1, 542086, Control_c, 0, 64, 82
1, 542101, Control_c, 0, 64, 82
1, 542116, Control_c, 0, 64, 83
1, 542175, Control_c, 0, 64, 83
1, 542205, Control_c, 0, 64, 84
1, 542235, Control_c, 0, 64, 84
1, 542294, Control_c, 0, 64, 85
1, 542323, Control_c, 0, 64, 85
1, 542353, Control_c, 0, 64, 86
1, 542383, Control_c, 0, 64, 86
1, 542434, Control_c, 0, 67, 13
1, 542449, Control_c, 0, 64, 87
1, 542806, Control_c, 0, 67, 14
1, 542879, Control_c, 0, 67, 14
1, 542939, Control_c, 0, 67, 15
1, 543429, Note_on_c, 0, 75, 34
1, 543479, Control_c, 0, 64, 86
1, 543495, Control_c, 0, 64, 86
1, 543510, Control_c, 0, 64, 85
1, 543525, Control_c, 0, 64, 83
1, 543540, Control_c, 0, 64, 81
1, 543555, Control_c, 0, 64, 79
1, 543570, Control_c, 0, 64, 76
1, 543585, Control_c, 0, 64, 74
1, 543600, Control_c, 0, 64, 72
1, 543615, Control_c, 0, 64, 70
1, 543630, Control_c, 0, 64, 69
1, 543645, Control_c, 0, 64, 68
1, 543763, Control_c, 0, 64, 69
1, 543821, Control_c, 0, 64, 69
1, 543836, Control_c, 0, 67, 15
1, 543866, Control_c, 0, 64, 70
1, 543881, Control_c, 0, 64, 70
1, 543895, Control_c, 0, 64, 71
1, 543910, Control_c, 0, 64, 71
1, 543910, Control_c, 0, 67, 16
1, 543933, Control_c, 0, 64, 72
1, 543937, Note_off_c, 0, 77, 33
1, 543948, Control_c, 0, 64, 74
1, 543948, Control_c, 0, 67, 16
1, 543963, Control_c, 0, 64, 75
1, 543977, Control_c, 0, 64, 77
1, 543977, Control_c, 0, 67, 17
1, 543992, Control_c, 0, 64, 78
1, 543992, Control_c, 0, 67, 17
1, 544007, Control_c, 0, 64, 79
1, 544007, Control_c, 0, 67, 21
1, 544022, Control_c, 0, 64, 80
1, 544022, Control_c, 0, 67, 25
1, 544036, Control_c, 0, 64, 82
1, 544036, Control_c, 0, 67, 29
1, 544051, Control_c, 0, 64, 83
1, 544051, Control_c, 0, 67, 33
1, 544066, Control_c, 0, 64, 84
1, 544066, Control_c, 0, 67, 38
1, 544081, Control_c, 0, 64, 85
1, 544081, Control_c, 0, 67, 42
1, 544096, Control_c, 0, 64, 86
1, 544096, Control_c, 0, 67, 45
1, 544110, Control_c, 0, 64, 88
1, 544110, Control_c, 0, 67, 48
1, 544125, Control_c, 0, 64, 89
1, 544125, Control_c, 0, 67, 50
1, 544140, Control_c, 0, 64, 91
1, 544140, Control_c, 0, 67, 53
1, 544155, Control_c, 0, 64, 92
1, 544155, Control_c, 0, 67, 55
1, 544170, Control_c, 0, 64, 92
1, 544170, Control_c, 0, 67, 57
1, 544184, Control_c, 0, 64, 93
1, 544184, Control_c, 0, 67, 58
1, 544199, Control_c, 0, 64, 94
1, 544199, Control_c, 0, 67, 59
1, 544214, Control_c, 0, 64, 95
1, 544214, Control_c, 0, 67, 60
1, 544229, Control_c, 0, 64, 96
1, 544229, Control_c, 0, 67, 62
1, 544244, Control_c, 0, 64, 96
1, 544244, Control_c, 0, 67, 63
1, 544259, Control_c, 0, 64, 97
1, 544259, Control_c, 0, 67, 65
1, 544273, Control_c, 0, 64, 98
1, 544273, Control_c, 0, 67, 67
1, 544288, Control_c, 0, 64, 98
1, 544288, Control_c, 0, 67, 69
1, 544304, Control_c, 0, 67, 71
1, 544319, Control_c, 0, 64, 99
1, 544319, Control_c, 0, 67, 73
1, 544333, Control_c, 0, 67, 75
1, 544348, Control_c, 0, 64, 99
1, 544348, Control_c, 0, 67, 77
1, 544363, Control_c, 0, 67, 79
1, 544378, Control_c, 0, 67, 80
1, 544393, Control_c, 0, 64, 100
1, 544393, Control_c, 0, 67, 82
1, 544408, Control_c, 0, 67, 83
1, 544423, Control_c, 0, 64, 100
1, 544423, Control_c, 0, 67, 85
1, 544437, Control_c, 0, 67, 87
1, 544452, Control_c, 0, 64, 101
1, 544452, Control_c, 0, 67, 88
1, 544467, Control_c, 0, 67, 90
1, 544482, Control_c, 0, 67, 90
1, 544497, Control_c, 0, 67, 91
1, 544512, Control_c, 0, 67, 92
1, 544526, Control_c, 0, 64, 101
1, 544526, Control_c, 0, 67, 94
1, 544541, Control_c, 0, 67, 95
1, 544556, Control_c, 0, 67, 97
1, 544571, Control_c, 0, 67, 98
1, 544586, Control_c, 0, 67, 99
1, 544600, Control_c, 0, 67, 101
1, 544615, Control_c, 0, 67, 102
1, 544630, Control_c, 0, 67, 103
1, 544644, Control_c, 0, 67, 104
1, 544659, Control_c, 0, 67, 105
1, 544682, Control_c, 0, 67, 106
1, 544697, Control_c, 0, 67, 108
1, 544712, Control_c, 0, 67, 109
1, 544726, Control_c, 0, 67, 110
1, 544741, Control_c, 0, 67, 111
1, 544756, Control_c, 0, 67, 112
1, 544771, Control_c, 0, 67, 113
1, 544786, Control_c, 0, 67, 113
1, 544800, Control_c, 0, 67, 114
1, 544815, Control_c, 0, 67, 115
1, 544830, Control_c, 0, 67, 115
1, 544845, Control_c, 0, 67, 116
1, 544859, Control_c, 0, 67, 116
1, 544874, Control_c, 0, 67, 117
1, 544889, Control_c, 0, 67, 117
1, 544904, Control_c, 0, 67, 118
1, 544919, Control_c, 0, 67, 118
1, 544933, Control_c, 0, 67, 119
1, 544963, Control_c, 0, 67, 119
1, 545021, Control_c, 0, 67, 120
1, 545155, Control_c, 0, 67, 120
1, 545351, Note_off_c, 0, 75, 39
1, 545362, Control_c, 0, 67, 121
1, 545533, Control_c, 0, 67, 121
1, 545547, Control_c, 0, 67, 122
1, 545562, Control_c, 0, 67, 123
1, 545577, Control_c, 0, 67, 124
1, 545592, Control_c, 0, 67, 125
1, 545606, Control_c, 0, 67, 126
1, 545621, Control_c, 0, 67, 127
1, 545636, Control_c, 0, 67, 127
1, 546651, Note_on_c, 0, 39, 33
1, 547026, Note_on_c, 0, 51, 33
1, 547235, Note_on_c, 0, 55, 34
1, 547579, Control_c, 0, 67, 127
1, 547602, Note_on_c, 0, 61, 35
1, 547794, Control_c, 0, 67, 126
1, 547868, Control_c, 0, 67, 126
1, 547913, Control_c, 0, 67, 125
1, 547942, Control_c, 0, 67, 125
1, 547972, Control_c, 0, 67, 124
1, 548001, Control_c, 0, 67, 124
1, 548016, Control_c, 0, 67, 123
1, 548046, Control_c, 0, 67, 123
1, 548090, Control_c, 0, 67, 122
1, 548105, Control_c, 0, 67, 122
1, 548110, Note_off_c, 0, 51, 38
1, 548164, Control_c, 0, 67, 121
1, 548439, Note_off_c, 0, 39, 35
1, 548780, Control_c, 0, 67, 121
1, 548810, Control_c, 0, 67, 120
1, 548839, Control_c, 0, 67, 120
1, 548854, Control_c, 0, 67, 119
1, 548883, Control_c, 0, 67, 119
1, 548913, Control_c, 0, 67, 118
1, 548928, Control_c, 0, 67, 118
1, 548972, Control_c, 0, 67, 117
1, 548987, Control_c, 0, 67, 117
1, 549002, Control_c, 0, 67, 115
1, 549016, Control_c, 0, 67, 114
1, 549031, Control_c, 0, 67, 113
1, 549046, Control_c, 0, 67, 112
1, 549061, Control_c, 0, 67, 110
1, 549076, Control_c, 0, 67, 109
1, 549092, Control_c, 0, 67, 108
1, 549107, Control_c, 0, 67, 108
1, 549121, Control_c, 0, 67, 107
1, 549247, Control_c, 0, 67, 108
1, 549292, Control_c, 0, 67, 108
1, 549336, Control_c, 0, 67, 109
1, 549395, Control_c, 0, 67, 109
1, 549544, Control_c, 0, 67, 110
1, 550145, Control_c, 0, 64, 101
1, 550148, Note_on_c, 0, 32, 30
1, 550160, Control_c, 0, 64, 98
1, 550175, Control_c, 0, 64, 94
1, 550190, Control_c, 0, 64, 88
1, 550205, Control_c, 0, 64, 82
1, 550205, Control_c, 0, 67, 110
1, 550219, Control_c, 0, 64, 75
1, 550234, Control_c, 0, 64, 72
1, 550249, Control_c, 0, 64, 71
1, 550263, Control_c, 0, 64, 72
1, 550278, Control_c, 0, 64, 73
1, 550293, Control_c, 0, 64, 75
1, 550308, Control_c, 0, 64, 77
1, 550323, Control_c, 0, 64, 79
1, 550337, Control_c, 0, 64, 82
1, 550352, Control_c, 0, 64, 84
1, 550367, Control_c, 0, 64, 86
1, 550382, Control_c, 0, 64, 89
1, 550396, Control_c, 0, 64, 91
1, 550411, Control_c, 0, 64, 94
1, 550426, Control_c, 0, 64, 96
1, 550441, Control_c, 0, 64, 98
1, 550456, Control_c, 0, 64, 99
1, 550471, Control_c, 0, 67, 110
1, 550486, Control_c, 0, 64, 99
1, 550501, Control_c, 0, 64, 100
1, 550540, Note_off_c, 0, 32, 38
1, 550587, Note_on_c, 0, 39, 33
1, 550604, Control_c, 0, 64, 100
1, 550670, Control_c, 0, 64, 101
1, 550701, Control_c, 0, 64, 101
1, 550716, Control_c, 0, 64, 102
1, 550760, Control_c, 0, 64, 102
1, 550775, Control_c, 0, 64, 103
1, 550805, Control_c, 0, 64, 103
1, 550834, Control_c, 0, 64, 104
1, 550849, Control_c, 0, 64, 104
1, 550861, Note_on_c, 0, 44, 41
1, 550894, Control_c, 0, 64, 105
1, 550954, Control_c, 0, 64, 105
1, 551058, Note_off_c, 0, 44, 39
1, 551088, Note_on_c, 0, 51, 22
1, 551232, Note_off_c, 0, 51, 38
1, 551233, Note_off_c, 0, 55, 30
1, 551248, Note_off_c, 0, 39, 7
1, 551264, Control_c, 0, 67, 109
1, 551265, Note_on_c, 0, 44, 32
1, 551280, Note_off_c, 0, 61, 39
1, 551296, Note_on_c, 0, 56, 37
1, 551338, Control_c, 0, 67, 109
1, 551447, Note_off_c, 0, 44, 39
1, 551451, Note_on_c, 0, 39, 35
1, 551477, Note_on_c, 0, 61, 42
1, 551490, Note_off_c, 0, 56, 28
1, 551667, Note_off_c, 0, 39, 36
1, 551669, Note_on_c, 0, 32, 43
1, 551672, Control_c, 0, 64, 104
1, 551674, Note_on_c, 0, 60, 45
1, 551687, Control_c, 0, 64, 100
1, 551694, Note_off_c, 0, 61, 37
1, 551702, Control_c, 0, 64, 95
1, 551717, Control_c, 0, 64, 88
1, 551731, Control_c, 0, 64, 82
1, 551746, Control_c, 0, 64, 78
1, 551790, Control_c, 0, 64, 80
1, 551805, Control_c, 0, 64, 82
1, 551817, Note_off_c, 0, 32, 49
1, 551820, Control_c, 0, 64, 85
1, 551834, Control_c, 0, 64, 88
1, 551844, Note_on_c, 0, 56, 41
1, 551848, Note_on_c, 0, 39, 25
1, 551849, Control_c, 0, 64, 91
1, 551864, Control_c, 0, 64, 93
1, 551879, Control_c, 0, 64, 95
1, 551894, Control_c, 0, 64, 96
1, 551908, Control_c, 0, 64, 97
1, 551923, Control_c, 0, 64, 98
1, 551938, Control_c, 0, 64, 99
1, 551948, Note_off_c, 0, 56, 52
1, 551953, Control_c, 0, 64, 100
1, 551968, Control_c, 0, 64, 100
1, 551982, Control_c, 0, 64, 101
1, 551995, Note_off_c, 0, 39, 36
1, 552010, Note_on_c, 0, 44, 33
1, 552014, Note_on_c, 0, 51, 29
1, 552027, Control_c, 0, 64, 101
1, 552038, Note_off_c, 0, 60, 58
1, 552063, Note_off_c, 0, 51, 46
1, 552092, Note_off_c, 0, 44, 35
1, 552125, Note_on_c, 0, 56, 46
1, 552206, Poly_aftertouch_c, 0, 51, 127
1, 552236, Note_off_c, 0, 56, 48
1, 552256, Poly_aftertouch_c, 0, 51, 0
1, 552258, Note_on_c, 0, 44, 30
1, 552259, Note_on_c, 0, 60, 48
1, 552301, Note_off_c, 0, 44, 46
1, 552308, Note_off_c, 0, 60, 59
1, 552363, Note_on_c, 0, 39, 35
1, 552369, Note_on_c, 0, 65, 54
1, 552432, Note_off_c, 0, 39, 37
1, 552450, Control_c, 0, 64, 99
1, 552465, Control_c, 0, 64, 94
1, 552474, Note_off_c, 0, 65, 58
1, 552480, Control_c, 0, 64, 87
1, 552483, Note_on_c, 0, 32, 38
1, 552495, Control_c, 0, 64, 80
1, 552503, Note_on_c, 0, 63, 52
1, 552510, Control_c, 0, 64, 78
1, 552533, Note_off_c, 0, 32, 56
1, 552540, Control_c, 0, 64, 81
1, 552554, Control_c, 0, 64, 86
1, 552569, Control_c, 0, 64, 92
1, 552584, Control_c, 0, 64, 97
1, 552599, Control_c, 0, 64, 103
1, 552602, Note_on_c, 0, 39, 34
1, 552614, Control_c, 0, 64, 107
1, 552619, Note_off_c, 0, 63, 57
1, 552620, Note_on_c, 0, 60, 51
1, 552629, Control_c, 0, 64, 110
1, 552644, Control_c, 0, 64, 114
1, 552658, Control_c, 0, 64, 115
1, 552673, Control_c, 0, 64, 116
1, 552685, Note_off_c, 0, 60, 57
1, 552703, Control_c, 0, 64, 117
1, 552710, Note_on_c, 0, 44, 45
1, 552715, Note_on_c, 0, 56, 59
1, 552726, Note_off_c, 0, 39, 34
1, 552732, Control_c, 0, 64, 117
1, 552769, Note_off_c, 0, 44, 57
1, 552769, Note_off_c, 0, 56, 52
1, 552791, Control_c, 0, 64, 118
1, 552817, Note_on_c, 0, 60, 48
1, 552835, Note_on_c, 0, 51, 24
1, 552851, Note_off_c, 0, 60, 61
1, 552873, Note_off_c, 0, 51, 53
1, 552886, Note_on_c, 0, 63, 56
1, 552900, Note_on_c, 0, 44, 39
1, 552937, Note_off_c, 0, 44, 54
1, 552942, Note_off_c, 0, 63, 56
1, 552974, Note_on_c, 0, 39, 46
1, 552985, Note_on_c, 0, 70, 58
1, 553006, Control_c, 0, 64, 117
1, 553025, Note_off_c, 0, 39, 55
1, 553036, Control_c, 0, 64, 111
1, 553051, Control_c, 0, 64, 103
1, 553065, Note_on_c, 0, 32, 45
1, 553065, Control_c, 0, 64, 93
1, 553074, Note_off_c, 0, 70, 55
1, 553080, Note_on_c, 0, 68, 59
1, 553080, Control_c, 0, 64, 88
1, 553096, Control_c, 0, 64, 87
1, 553104, Note_off_c, 0, 32, 60
1, 553111, Control_c, 0, 64, 87
1, 553126, Control_c, 0, 64, 90
1, 553141, Control_c, 0, 64, 95
1, 553156, Control_c, 0, 64, 102
1, 553158, Note_on_c, 0, 39, 39
1, 553170, Control_c, 0, 64, 110
1, 553183, Note_on_c, 0, 63, 55
1, 553185, Control_c, 0, 64, 118
1, 553188, Note_off_c, 0, 68, 59
1, 553200, Control_c, 0, 64, 127
1, 553229, Note_off_c, 0, 63, 61
1, 553245, Note_on_c, 0, 44, 46
1, 553263, Note_on_c, 0, 60, 50
1, 553286, Note_off_c, 0, 44, 59
1, 553296, Note_off_c, 0, 39, 34
1, 553297, Note_off_c, 0, 60, 65
1, 553327, Note_on_c, 0, 63, 61
1, 553338, Note_on_c, 0, 51, 38
1, 553369, Note_off_c, 0, 63, 57
1, 553371, Note_off_c, 0, 51, 52
1, 553403, Note_on_c, 0, 68, 59
1, 553434, Note_on_c, 0, 39, 52
1, 553443, Note_off_c, 0, 68, 58
1, 553479, Note_on_c, 0, 73, 66
1, 553489, Note_off_c, 0, 39, 57
1, 553538, Note_on_c, 0, 32, 43
1, 553554, Note_on_c, 0, 72, 66
1, 553574, Note_off_c, 0, 73, 50
1, 553584, Note_off_c, 0, 32, 50
1, 553619, Note_on_c, 0, 39, 46
1, 553636, Note_on_c, 0, 68, 63
1, 553668, Note_off_c, 0, 72, 62
1, 553705, Note_off_c, 0, 68, 62
1, 553714, Note_off_c, 0, 39, 53
1, 553715, Note_on_c, 0, 44, 51
1, 553715, Note_on_c, 0, 63, 63
1, 553755, Note_off_c, 0, 44, 61
1, 553773, Note_off_c, 0, 63, 60
1, 553776, Note_on_c, 0, 68, 64
1, 553835, Poly_aftertouch_c, 0, 51, 127
1, 553839, Note_off_c, 0, 68, 63
1, 553854, Note_on_c, 0, 72, 63
1, 553860, Note_on_c, 0, 44, 31
1, 553872, Poly_aftertouch_c, 0, 51, 0
1, 553880, Note_on_c, 0, 39, 55
1, 553890, Note_off_c, 0, 72, 59
1, 553900, Note_off_c, 0, 44, 49
1, 553923, Note_on_c, 0, 77, 64
1, 553932, Note_off_c, 0, 39, 57
1, 553951, Note_on_c, 0, 32, 54
1, 553985, Note_off_c, 0, 32, 60
1, 553999, Note_on_c, 0, 75, 76
1, 554008, Control_c, 0, 67, 108
1, 554012, Note_off_c, 0, 77, 59
1, 554023, Control_c, 0, 67, 107
1, 554037, Control_c, 0, 67, 107
1, 554045, Note_on_c, 0, 39, 45
1, 554052, Control_c, 0, 67, 106
1, 554067, Control_c, 0, 67, 104
1, 554074, Note_on_c, 0, 72, 73
1, 554082, Control_c, 0, 67, 98
1, 554096, Note_off_c, 0, 39, 56
1, 554097, Control_c, 0, 67, 91
1, 554102, Note_off_c, 0, 75, 61
1, 554108, Note_on_c, 0, 44, 58
1, 554111, Control_c, 0, 67, 82
1, 554126, Control_c, 0, 67, 72
1, 554137, Note_off_c, 0, 72, 64
1, 554141, Control_c, 0, 67, 63
1, 554146, Note_on_c, 0, 68, 70
1, 554148, Note_off_c, 0, 44, 59
1, 554156, Control_c, 0, 67, 55
1, 554171, Control_c, 0, 67, 48
1, 554185, Control_c, 0, 67, 44
1, 554189, Note_on_c, 0, 51, 45
1, 554199, Note_off_c, 0, 68, 61
1, 554202, Note_on_c, 0, 72, 68
1, 554218, Note_off_c, 0, 51, 56
1, 554262, Note_off_c, 0, 72, 63
1, 554263, Note_on_c, 0, 44, 37
1, 554273, Note_on_c, 0, 75, 72
1, 554291, Note_off_c, 0, 44, 53
1, 554295, Note_on_c, 0, 39, 56
1, 554314, Note_off_c, 0, 75, 48
1, 554337, Note_on_c, 0, 82, 77
1, 554348, Note_off_c, 0, 39, 57
1, 554363, Note_on_c, 0, 32, 52
1, 554397, Note_off_c, 0, 32, 60
1, 554415, Note_on_c, 0, 80, 82
1, 554459, Note_off_c, 0, 82, 60
1, 554459, Control_c, 0, 67, 43
1, 554468, Note_on_c, 0, 39, 48
1, 554474, Control_c, 0, 67, 43
1, 554489, Control_c, 0, 67, 41
1, 554496, Note_on_c, 0, 75, 78
1, 554504, Control_c, 0, 67, 39
1, 554518, Note_on_c, 0, 44, 59
1, 554519, Control_c, 0, 67, 36
1, 554521, Note_off_c, 0, 39, 54
1, 554528, Note_off_c, 0, 80, 64
1, 554534, Control_c, 0, 67, 33
1, 554549, Control_c, 0, 67, 30
1, 554558, Note_on_c, 0, 72, 76
1, 554558, Note_off_c, 0, 75, 62
1, 554563, Control_c, 0, 67, 26
1, 554575, Note_off_c, 0, 44, 54
1, 554578, Control_c, 0, 67, 23
1, 554593, Control_c, 0, 67, 19
1, 554598, Note_off_c, 0, 72, 61
1, 554608, Note_on_c, 0, 51, 45
1, 554608, Control_c, 0, 67, 17
1, 554623, Control_c, 0, 67, 16
1, 554626, Note_on_c, 0, 75, 73
1, 554637, Control_c, 0, 67, 15
1, 554641, Note_off_c, 0, 51, 52
1, 554652, Control_c, 0, 67, 15
1, 554653, Note_on_c, 0, 44, 50
1, 554695, Note_off_c, 0, 75, 62
1, 554696, Note_off_c, 0, 44, 60
1, 554697, Note_on_c, 0, 80, 76
1, 554710, Note_on_c, 0, 39, 60
1, 554748, Note_off_c, 0, 80, 62
1, 554760, Note_on_c, 0, 85, 79
1, 554769, Note_off_c, 0, 39, 54
1, 554785, Note_on_c, 0, 32, 55
1, 554820, Note_off_c, 0, 32, 62
1, 554834, Note_on_c, 0, 84, 75
1, 554870, Note_off_c, 0, 85, 62
1, 554872, Note_on_c, 0, 39, 50
1, 554911, Note_on_c, 0, 80, 76
1, 554936, Note_off_c, 0, 39, 55
1, 554944, Note_on_c, 0, 44, 63
1, 554950, Note_off_c, 0, 84, 62
1, 554964, Control_c, 0, 67, 14
1, 554984, Note_off_c, 0, 80, 65
1, 554987, Note_on_c, 0, 75, 73
1, 554992, Note_off_c, 0, 44, 59
1, 555012, Note_on_c, 0, 51, 58
1, 555038, Control_c, 0, 67, 14
1, 555040, Note_off_c, 0, 75, 63
1, 555047, Note_on_c, 0, 80, 75
1, 555047, Note_off_c, 0, 51, 64
1, 555074, Note_on_c, 0, 44, 58
1, 555097, Control_c, 0, 67, 13
1, 555109, Note_off_c, 0, 44, 62
1, 555115, Note_on_c, 0, 84, 72
1, 555116, Note_off_c, 0, 80, 64
1, 555134, Note_on_c, 0, 39, 59
1, 555164, Control_c, 0, 67, 13
1, 555176, Note_off_c, 0, 84, 64
1, 555179, Control_c, 0, 67, 12
1, 555184, Note_on_c, 0, 89, 79
1, 555193, Control_c, 0, 67, 11
1, 555198, Note_off_c, 0, 39, 53
1, 555207, Note_on_c, 0, 32, 57
1, 555208, Control_c, 0, 67, 10
1, 555223, Control_c, 0, 67, 9
1, 555238, Control_c, 0, 67, 0
1, 555243, Note_off_c, 0, 32, 61
1, 555259, Note_on_c, 0, 87, 88
1, 555291, Note_off_c, 0, 89, 61
1, 555293, Note_on_c, 0, 39, 48
1, 555337, Note_on_c, 0, 84, 73
1, 555357, Note_on_c, 0, 44, 64
1, 555367, Note_off_c, 0, 39, 55
1, 555368, Note_off_c, 0, 87, 63
1, 555395, Note_off_c, 0, 84, 65
1, 555401, Note_on_c, 0, 80, 80
1, 555427, Note_off_c, 0, 44, 60
1, 555440, Note_on_c, 0, 51, 58
1, 555470, Note_off_c, 0, 51, 65
1, 555470, Note_off_c, 0, 80, 62
1, 555471, Note_on_c, 0, 84, 73
1, 555505, Note_on_c, 0, 44, 53
1, 555532, Note_off_c, 0, 84, 66
1, 555540, Note_on_c, 0, 87, 79
1, 555544, Note_off_c, 0, 44, 59
1, 555556, Note_on_c, 0, 39, 63
1, 555577, Note_off_c, 0, 87, 55
1, 555604, Note_on_c, 0, 94, 77
1, 555627, Note_off_c, 0, 39, 57
1, 555635, Note_on_c, 0, 32, 57
1, 555672, Note_off_c, 0, 32, 62
1, 555675, Note_on_c, 0, 92, 83
1, 555717, Note_on_c, 0, 39, 43
1, 555723, Note_off_c, 0, 94, 64
1, 555753, Note_on_c, 0, 87, 83
1, 555791, Note_on_c, 0, 44, 58
1, 555807, Note_off_c, 0, 92, 62
1, 555827, Note_on_c, 0, 84, 77
1, 555827, Note_off_c, 0, 87, 63
1, 555839, Note_off_c, 0, 39, 34
1, 555846, Note_off_c, 0, 44, 57
1, 555862, Note_off_c, 0, 84, 60
1, 555872, Note_on_c, 0, 51, 51
1, 555890, Note_on_c, 0, 87, 82
1, 555912, Note_off_c, 0, 51, 61
1, 555940, Note_on_c, 0, 44, 53
1, 555965, Note_on_c, 0, 92, 83
1, 555966, Note_off_c, 0, 87, 63
1, 555974, Note_off_c, 0, 44, 62
1, 555985, Note_on_c, 0, 39, 58
1, 556015, Note_off_c, 0, 92, 63
1, 556033, Note_on_c, 0, 97, 82
1, 556057, Note_off_c, 0, 39, 58
1, 556066, Note_on_c, 0, 32, 60
1, 556104, Note_off_c, 0, 32, 61
1, 556105, Note_on_c, 0, 96, 81
1, 556152, Note_on_c, 0, 39, 48
1, 556154, Note_off_c, 0, 97, 60
1, 556181, Note_on_c, 0, 92, 83
1, 556221, Note_off_c, 0, 96, 65
1, 556230, Note_on_c, 0, 44, 64
1, 556245, Note_off_c, 0, 39, 54
1, 556261, Note_on_c, 0, 87, 81
1, 556261, Note_off_c, 0, 92, 64
1, 556292, Note_off_c, 0, 44, 59
1, 556307, Note_on_c, 0, 51, 55
1, 556331, Note_on_c, 0, 92, 79
1, 556331, Note_off_c, 0, 87, 61
1, 556351, Note_off_c, 0, 51, 61
1, 556377, Note_on_c, 0, 44, 60
1, 556394, Note_on_c, 0, 96, 74
1, 556406, Note_off_c, 0, 92, 63
1, 556421, Note_off_c, 0, 44, 57
1, 556432, Note_on_c, 0, 39, 65
1, 556447, Note_off_c, 0, 96, 66
1, 556470, Note_on_c, 0, 101, 81
1, 556540, Note_off_c, 0, 39, 58
1, 556546, Note_on_c, 0, 32, 61
1, 556576, Note_on_c, 0, 99, 85
1, 556610, Control_c, 0, 64, 114
1, 556613, Note_off_c, 0, 32, 56
1, 556624, Control_c, 0, 64, 95
1, 556633, Note_off_c, 0, 101, 62
1, 556639, Control_c, 0, 64, 84
1, 556662, Control_c, 0, 64, 81
1, 556669, Note_on_c, 0, 39, 57
1, 556677, Control_c, 0, 64, 81
1, 556683, Note_on_c, 0, 96, 86
1, 556692, Control_c, 0, 64, 86
1, 556706, Control_c, 0, 64, 95
1, 556721, Control_c, 0, 64, 106
1, 556736, Control_c, 0, 64, 125
1, 556751, Control_c, 0, 64, 127
1, 556755, Note_off_c, 0, 99, 62
1, 556760, Note_on_c, 0, 44, 65
1, 556761, Note_off_c, 0, 39, 51
1, 556768, Note_on_c, 0, 92, 84
1, 556775, Note_off_c, 0, 96, 67
1, 556828, Note_off_c, 0, 44, 58
1, 556841, Note_on_c, 0, 51, 53
1, 556844, Note_on_c, 0, 96, 81
1, 556858, Note_off_c, 0, 92, 61
1, 556882, Note_off_c, 0, 51, 62
1, 556905, Note_on_c, 0, 44, 49
1, 556911, Note_on_c, 0, 99, 82
1, 556916, Note_off_c, 0, 96, 66
1, 556948, Note_off_c, 0, 44, 62
1, 556965, Note_on_c, 0, 39, 58
1, 556975, Note_off_c, 0, 99, 62
1, 556984, Note_on_c, 0, 101, 74
1, 557012, Note_off_c, 0, 39, 56
1, 557039, Note_on_c, 0, 32, 51
1, 557053, Note_on_c, 0, 99, 86
1, 557071, Note_off_c, 0, 32, 52
1, 557090, Note_off_c, 0, 101, 64
1, 557116, Note_on_c, 0, 39, 48
1, 557124, Note_on_c, 0, 96, 75
1, 557140, Note_off_c, 0, 99, 63
1, 557188, Note_off_c, 0, 96, 66
1, 557202, Note_off_c, 0, 39, 57
1, 557205, Note_on_c, 0, 92, 65
1, 557207, Note_on_c, 0, 44, 51
1, 557263, Note_off_c, 0, 92, 59
1, 557264, Note_off_c, 0, 44, 56
1, 557278, Note_on_c, 0, 96, 55
1, 557302, Note_on_c, 0, 51, 37
1, 557335, Note_off_c, 0, 96, 65
1, 557337, Note_off_c, 0, 51, 52
1, 557345, Note_on_c, 0, 99, 66
1, 557381, Note_on_c, 0, 44, 28
1, 557423, Note_on_c, 0, 39, 51
1, 557423, Note_off_c, 0, 44, 49
1, 557425, Control_c, 0, 67, 8
1, 557428, Note_off_c, 0, 99, 59
1, 557440, Control_c, 0, 67, 10
1, 557454, Note_on_c, 0, 101, 61
1, 557454, Control_c, 0, 67, 12
1, 557469, Control_c, 0, 67, 14
1, 557478, Note_off_c, 0, 39, 56
1, 557484, Control_c, 0, 67, 19
1, 557499, Control_c, 0, 67, 24
1, 557509, Note_on_c, 0, 32, 46
1, 557514, Control_c, 0, 67, 28
1, 557528, Control_c, 0, 67, 31
1, 557534, Note_off_c, 0, 101, 60
1, 557540, Note_on_c, 0, 99, 63
1, 557543, Control_c, 0, 64, 120
1, 557543, Control_c, 0, 67, 33
1, 557550, Note_off_c, 0, 32, 58
1, 557558, Control_c, 0, 64, 116
1, 557558, Control_c, 0, 67, 35
1, 557573, Control_c, 0, 64, 114
1, 557573, Control_c, 0, 67, 38
1, 557587, Control_c, 0, 64, 113
1, 557587, Control_c, 0, 67, 43
1, 557602, Control_c, 0, 64, 112
1, 557602, Control_c, 0, 67, 49
1, 557607, Note_on_c, 0, 39, 46
1, 557617, Control_c, 0, 64, 111
1, 557617, Control_c, 0, 67, 53
1, 557618, Note_off_c, 0, 99, 61
1, 557631, Note_on_c, 0, 96, 51
1, 557632, Control_c, 0, 64, 111
1, 557632, Control_c, 0, 67, 57
1, 557647, Control_c, 0, 64, 110
1, 557647, Control_c, 0, 67, 60
1, 557661, Control_c, 0, 67, 62
1, 557676, Control_c, 0, 64, 110
1, 557676, Control_c, 0, 67, 64
1, 557680, Note_off_c, 0, 96, 50
1, 557691, Control_c, 0, 64, 109
1, 557691, Control_c, 0, 67, 66
1, 557706, Control_c, 0, 64, 109
1, 557706, Control_c, 0, 67, 68
1, 557719, Note_on_c, 0, 44, 45
1, 557720, Control_c, 0, 64, 108
1, 557720, Control_c, 0, 67, 70
1, 557723, Note_on_c, 0, 92, 45
1, 557733, Note_off_c, 0, 39, 37
1, 557735, Control_c, 0, 64, 108
1, 557735, Control_c, 0, 67, 72
1, 557750, Control_c, 0, 64, 107
1, 557750, Control_c, 0, 67, 73
1, 557765, Control_c, 0, 64, 107
1, 557765, Control_c, 0, 67, 74
1, 557777, Note_off_c, 0, 44, 53
1, 557779, Control_c, 0, 64, 106
1, 557779, Control_c, 0, 67, 75
1, 557794, Control_c, 0, 64, 105
1, 557794, Control_c, 0, 67, 75
1, 557796, Note_off_c, 0, 92, 38
1, 557798, Note_on_c, 0, 96, 47
1, 557809, Control_c, 0, 64, 104
1, 557824, Control_c, 0, 64, 103
1, 557839, Control_c, 0, 64, 103
1, 557853, Control_c, 0, 64, 102
1, 557868, Note_on_c, 0, 51, 3
1, 557868, Control_c, 0, 64, 101
1, 557871, Note_off_c, 0, 96, 46
1, 557883, Note_on_c, 0, 99, 52
1, 557884, Control_c, 0, 64, 101
1, 557899, Control_c, 0, 64, 100
1, 557911, Note_off_c, 0, 51, 50
1, 557914, Control_c, 0, 64, 100
1, 557920, Note_on_c, 0, 44, 30
1, 557929, Control_c, 0, 64, 99
1, 557929, Control_c, 0, 67, 76
1, 557950, Note_off_c, 0, 44, 52
1, 557958, Control_c, 0, 64, 98
1, 557961, Note_off_c, 0, 99, 60
1, 557971, Note_on_c, 0, 39, 46
1, 557973, Control_c, 0, 64, 97
1, 557988, Control_c, 0, 64, 97
1, 557988, Control_c, 0, 67, 76
1, 557993, Note_on_c, 0, 101, 56
1, 558002, Control_c, 0, 64, 96
1, 558017, Control_c, 0, 64, 96
1, 558017, Control_c, 0, 67, 77
1, 558032, Control_c, 0, 64, 95
1, 558032, Control_c, 0, 67, 78
1, 558044, Note_off_c, 0, 39, 36
1, 558047, Control_c, 0, 64, 95
1, 558047, Control_c, 0, 67, 80
1, 558062, Control_c, 0, 64, 94
1, 558062, Control_c, 0, 67, 81
1, 558075, Note_off_c, 0, 101, 61
1, 558076, Control_c, 0, 64, 94
1, 558076, Control_c, 0, 67, 82
1, 558088, Note_on_c, 0, 99, 58
1, 558091, Control_c, 0, 64, 93
1, 558094, Note_on_c, 0, 32, 26
1, 558106, Control_c, 0, 64, 93
1, 558106, Control_c, 0, 67, 82
1, 558129, Note_off_c, 0, 32, 46
1, 558136, Control_c, 0, 64, 92
1, 558158, Control_c, 0, 64, 92
1, 558158, Control_c, 0, 67, 83
1, 558185, Note_off_c, 0, 99, 58
1, 558191, Note_on_c, 0, 39, 41
1, 558202, Control_c, 0, 64, 91
1, 558214, Note_on_c, 0, 96, 44
1, 558261, Note_off_c, 0, 96, 48
1, 558262, Control_c, 0, 64, 91
1, 558262, Control_c, 0, 67, 83
1, 558306, Control_c, 0, 64, 90
1, 558306, Control_c, 0, 67, 84
1, 558310, Note_on_c, 0, 92, 45
1, 558321, Control_c, 0, 64, 90
1, 558321, Control_c, 0, 67, 85
1, 558328, Note_on_c, 0, 44, 38
1, 558329, Note_off_c, 0, 39, 35
1, 558336, Control_c, 0, 67, 86
1, 558350, Control_c, 0, 67, 87
1, 558365, Control_c, 0, 64, 89
1, 558365, Control_c, 0, 67, 88
1, 558380, Control_c, 0, 67, 88
1, 558395, Control_c, 0, 64, 89
1, 558395, Control_c, 0, 67, 89
1, 558409, Control_c, 0, 64, 88
1, 558418, Note_off_c, 0, 92, 37
1, 558439, Control_c, 0, 64, 88
1, 558454, Control_c, 0, 64, 87
1, 558459, Note_on_c, 0, 96, 43
1, 558463, Note_off_c, 0, 44, 32
1, 558469, Control_c, 0, 64, 87
1, 558483, Control_c, 0, 64, 86
1, 558500, Note_on_c, 0, 51, 23
1, 558513, Control_c, 0, 64, 86
1, 558528, Control_c, 0, 64, 85
1, 558528, Control_c, 0, 67, 89
1, 558543, Control_c, 0, 64, 85
1, 558552, Note_off_c, 0, 51, 45
1, 558573, Control_c, 0, 64, 84
1, 558579, Note_off_c, 0, 96, 45
1, 558588, Control_c, 0, 64, 84
1, 558589, Note_on_c, 0, 99, 47
1, 558593, Note_on_c, 0, 44, 36
1, 558632, Control_c, 0, 64, 83
1, 558647, Control_c, 0, 64, 83
1, 558677, Control_c, 0, 64, 82
1, 558692, Control_c, 0, 64, 82
1, 558722, Control_c, 0, 64, 81
1, 558737, Control_c, 0, 64, 80
1, 558752, Control_c, 0, 64, 80
1, 558754, Note_off_c, 0, 44, 21
1, 558764, Note_off_c, 0, 99, 44
1, 558767, Control_c, 0, 64, 79
1, 558781, Control_c, 0, 64, 78
1, 558786, Note_on_c, 0, 39, 24
1, 558796, Control_c, 0, 64, 78
1, 558799, Note_on_c, 0, 101, 44
1, 558811, Control_c, 0, 64, 77
1, 558825, Control_c, 0, 64, 77
1, 558840, Control_c, 0, 64, 76
1, 558855, Control_c, 0, 64, 76
1, 558870, Control_c, 0, 64, 75
1, 558885, Control_c, 0, 64, 75
1, 558907, Control_c, 0, 64, 74
1, 558937, Control_c, 0, 64, 74
1, 558951, Control_c, 0, 64, 73
1, 558966, Control_c, 0, 64, 73
1, 558996, Control_c, 0, 64, 72
1, 559011, Control_c, 0, 64, 72
1, 559040, Control_c, 0, 64, 71
1, 559085, Control_c, 0, 64, 71
1, 559109, Note_off_c, 0, 101, 42
1, 559114, Control_c, 0, 64, 70
1, 559128, Note_on_c, 0, 99, 46
1, 559129, Control_c, 0, 64, 70
1, 559143, Control_c, 0, 64, 69
1, 559145, Note_on_c, 0, 32, 28
1, 559158, Control_c, 0, 64, 68
1, 559173, Control_c, 0, 64, 67
1, 559186, Note_off_c, 0, 39, 26
1, 559188, Control_c, 0, 64, 65
1, 559203, Control_c, 0, 64, 63
1, 559219, Control_c, 0, 64, 62
1, 559233, Control_c, 0, 64, 61
1, 559278, Control_c, 0, 64, 61
1, 559307, Control_c, 0, 64, 60
1, 559337, Control_c, 0, 64, 60
1, 559381, Control_c, 0, 64, 59
1, 559516, Control_c, 0, 67, 89
1, 559560, Control_c, 0, 67, 88
1, 559589, Control_c, 0, 64, 60
1, 559589, Control_c, 0, 67, 88
1, 559604, Control_c, 0, 64, 60
1, 559619, Control_c, 0, 64, 61
1, 559634, Control_c, 0, 64, 62
1, 559656, Control_c, 0, 64, 64
1, 559670, Note_off_c, 0, 99, 47
1, 559671, Control_c, 0, 64, 64
1, 559686, Control_c, 0, 64, 65
1, 559701, Control_c, 0, 64, 66
1, 559716, Control_c, 0, 64, 67
1, 559744, Note_off_c, 0, 32, 42
1, 559774, Control_c, 0, 67, 87
1, 559804, Control_c, 0, 64, 66
1, 559819, Control_c, 0, 67, 87
1, 559834, Control_c, 0, 67, 86
1, 559849, Control_c, 0, 64, 66
1, 559849, Control_c, 0, 67, 86
1, 559864, Control_c, 0, 67, 85
1, 559879, Control_c, 0, 67, 84
1, 559893, Control_c, 0, 64, 65
1, 559893, Control_c, 0, 67, 83
1, 559908, Control_c, 0, 67, 83
1, 559923, Control_c, 0, 64, 65
1, 559923, Control_c, 0, 67, 82
1, 559938, Control_c, 0, 64, 64
1, 559938, Control_c, 0, 67, 81
1, 559953, Control_c, 0, 64, 64
1, 559953, Control_c, 0, 67, 80
1, 559968, Control_c, 0, 64, 63
1, 559968, Control_c, 0, 67, 79
1, 559982, Control_c, 0, 64, 63
1, 559982, Control_c, 0, 67, 78
1, 559997, Control_c, 0, 64, 62
1, 559997, Control_c, 0, 67, 76
1, 560012, Control_c, 0, 64, 60
1, 560012, Control_c, 0, 67, 72
1, 560027, Control_c, 0, 64, 59
1, 560027, Control_c, 0, 67, 64
1, 560042, Control_c, 0, 64, 57
1, 560042, Control_c, 0, 67, 50
1, 560056, Control_c, 0, 64, 54
1, 560056, Control_c, 0, 67, 32
1, 560071, Control_c, 0, 64, 52
1, 560071, Control_c, 0, 67, 14
1, 560086, Control_c, 0, 64, 50
1, 560086, Control_c, 0, 67, 0
1, 560101, Control_c, 0, 64, 47
1, 560115, Control_c, 0, 64, 44
1, 560130, Control_c, 0, 64, 41
1, 560145, Control_c, 0, 64, 37
1, 560160, Control_c, 0, 64, 33
1, 560174, Control_c, 0, 64, 28
1, 560189, Control_c, 0, 64, 22
1, 560204, Control_c, 0, 64, 13
1, 560219, Control_c, 0, 64, 0
1, 560594, Note_on_c, 0, 49, 88
1, 560594, Note_on_c, 0, 56, 96
1, 560594, Note_on_c, 0, 68, 84
1, 560597, Note_on_c, 0, 37, 79
1, 560597, Note_on_c, 0, 61, 87
1, 560597, Note_on_c, 0, 64, 88
1, 561132, Control_c, 0, 64, 33
1, 561154, Control_c, 0, 64, 47
1, 561169, Control_c, 0, 64, 53
1, 561184, Control_c, 0, 64, 57
1, 561199, Control_c, 0, 64, 59
1, 561214, Control_c, 0, 64, 61
1, 561228, Control_c, 0, 64, 63
1, 561243, Control_c, 0, 64, 66
1, 561258, Control_c, 0, 64, 70
1, 561262, Note_off_c, 0, 56, 52
1, 561273, Control_c, 0, 64, 74
1, 561288, Control_c, 0, 64, 78
1, 561302, Control_c, 0, 64, 81
1, 561317, Control_c, 0, 64, 84
1, 561332, Control_c, 0, 64, 87
1, 561346, Control_c, 0, 64, 90
1, 561361, Control_c, 0, 64, 93
1, 561376, Control_c, 0, 64, 96
1, 561391, Control_c, 0, 64, 99
1, 561406, Control_c, 0, 64, 101
1, 561420, Control_c, 0, 64, 103
1, 561426, Note_off_c, 0, 49, 58
1, 561430, Note_off_c, 0, 37, 36
1, 561435, Control_c, 0, 64, 106
1, 561443, Note_off_c, 0, 68, 39
1, 561450, Control_c, 0, 64, 108
1, 561456, Note_off_c, 0, 64, 34
1, 561463, Note_off_c, 0, 61, 25
1, 561465, Control_c, 0, 64, 110
1, 561480, Control_c, 0, 64, 111
1, 561494, Control_c, 0, 64, 112
1, 561509, Control_c, 0, 64, 113
1, 561524, Control_c, 0, 64, 114
1, 561850, Control_c, 0, 64, 114
1, 561917, Control_c, 0, 64, 115
1, 561977, Control_c, 0, 64, 115
1, 562066, Control_c, 0, 64, 116
1, 562214, Control_c, 0, 64, 116
1, 562273, Control_c, 0, 64, 117
1, 562288, Control_c, 0, 64, 117
1, 562303, Control_c, 0, 64, 118
1, 562317, Control_c, 0, 64, 119
1, 562347, Control_c, 0, 64, 120
1, 562418, Note_on_c, 0, 80, 94
1, 562418, Note_on_c, 0, 32, 81
1, 562418, Note_on_c, 0, 44, 88
1, 562419, Note_on_c, 0, 68, 93
1, 562421, Note_on_c, 0, 72, 94
1, 562421, Note_on_c, 0, 75, 88
1, 562421, Control_c, 0, 64, 113
1, 562436, Control_c, 0, 64, 101
1, 562451, Control_c, 0, 64, 88
1, 562466, Control_c, 0, 64, 73
1, 562481, Control_c, 0, 64, 44
1, 562496, Control_c, 0, 64, 0
1, 563289, Control_c, 0, 64, 12
1, 563304, Control_c, 0, 64, 18
1, 563318, Control_c, 0, 64, 22
1, 563333, Control_c, 0, 64, 27
1, 563348, Control_c, 0, 64, 31
1, 563363, Control_c, 0, 64, 35
1, 563378, Control_c, 0, 64, 38
1, 563399, Control_c, 0, 64, 41
1, 563414, Control_c, 0, 64, 45
1, 563429, Control_c, 0, 64, 51
1, 563444, Control_c, 0, 64, 55
1, 563459, Control_c, 0, 64, 57
1, 563475, Control_c, 0, 64, 59
1, 563490, Control_c, 0, 64, 61
1, 563504, Control_c, 0, 64, 62
1, 563519, Control_c, 0, 64, 63
1, 563534, Control_c, 0, 64, 65
1, 563549, Control_c, 0, 64, 66
1, 563564, Control_c, 0, 64, 67
1, 563578, Control_c, 0, 64, 69
1, 563593, Control_c, 0, 64, 70
1, 563608, Control_c, 0, 64, 71
1, 563623, Control_c, 0, 64, 72
1, 563637, Control_c, 0, 64, 73
1, 563652, Control_c, 0, 64, 75
1, 563667, Control_c, 0, 64, 76
1, 563682, Control_c, 0, 64, 77
1, 563697, Control_c, 0, 64, 78
1, 563712, Control_c, 0, 64, 79
1, 563727, Control_c, 0, 64, 80
1, 563741, Control_c, 0, 64, 81
1, 563756, Control_c, 0, 64, 82
1, 563771, Control_c, 0, 64, 82
1, 563786, Control_c, 0, 64, 83
1, 563801, Control_c, 0, 64, 84
1, 563815, Control_c, 0, 64, 84
1, 563830, Control_c, 0, 64, 85
1, 563845, Control_c, 0, 64, 86
1, 563860, Control_c, 0, 64, 87
1, 563875, Control_c, 0, 64, 87
1, 563889, Control_c, 0, 64, 88
1, 563904, Control_c, 0, 64, 88
1, 563919, Control_c, 0, 64, 89
1, 563934, Control_c, 0, 64, 89
1, 563948, Control_c, 0, 64, 90
1, 563978, Control_c, 0, 64, 90
1, 563993, Control_c, 0, 64, 91
1, 564008, Control_c, 0, 64, 91
1, 564037, Control_c, 0, 64, 92
1, 564052, Control_c, 0, 64, 92
1, 564082, Control_c, 0, 64, 93
1, 564096, Control_c, 0, 64, 93
1, 564111, Control_c, 0, 64, 94
1, 564126, Control_c, 0, 64, 94
1, 564148, Control_c, 0, 64, 95
1, 564163, Control_c, 0, 64, 95
1, 564193, Control_c, 0, 64, 96
1, 564208, Control_c, 0, 64, 96
1, 564283, Control_c, 0, 64, 97
1, 564342, Control_c, 0, 64, 97
1, 564401, Control_c, 0, 64, 98
1, 564431, Control_c, 0, 64, 98
1, 564445, Control_c, 0, 64, 99
1, 564460, Control_c, 0, 64, 99
1, 564475, Control_c, 0, 64, 100
1, 564490, Control_c, 0, 64, 100
1, 564520, Control_c, 0, 64, 101
1, 564550, Control_c, 0, 64, 101
1, 564579, Control_c, 0, 64, 102
1, 564609, Control_c, 0, 64, 102
1, 564624, Control_c, 0, 64, 103
1, 564653, Control_c, 0, 64, 103
1, 564668, Control_c, 0, 64, 104
1, 564698, Control_c, 0, 64, 104
1, 564742, Control_c, 0, 64, 105
1, 564771, Control_c, 0, 64, 105
1, 564816, Control_c, 0, 64, 106
1, 564860, Control_c, 0, 64, 106
1, 564971, Control_c, 0, 64, 107
1, 565091, Control_c, 0, 64, 107
1, 565180, Control_c, 0, 64, 108
1, 565822, Note_off_c, 0, 72, 22
1, 565869, Note_off_c, 0, 68, 21
1, 566009, Note_off_c, 0, 80, 17
1, 566058, Note_off_c, 0, 75, 10
1, 566124, Note_off_c, 0, 32, 20
1, 566124, Note_off_c, 0, 44, 24
1, 566284, Control_c, 0, 64, 107
1, 566299, Control_c, 0, 64, 106
1, 566314, Control_c, 0, 64, 106
1, 566329, Control_c, 0, 64, 105
1, 566343, Control_c, 0, 64, 104
1, 566358, Control_c, 0, 64, 104
1, 566373, Control_c, 0, 64, 103
1, 566395, Control_c, 0, 64, 102
1, 566410, Control_c, 0, 64, 102
1, 566425, Control_c, 0, 64, 101
1, 566439, Control_c, 0, 64, 101
1, 566454, Control_c, 0, 64, 100
1, 566469, Control_c, 0, 64, 100
1, 566484, Control_c, 0, 64, 99
1, 566514, Control_c, 0, 64, 99
1, 566558, Control_c, 0, 64, 98
1, 566573, Control_c, 0, 64, 98
1, 566603, Control_c, 0, 64, 97
1, 566632, Control_c, 0, 64, 97
1, 566663, Control_c, 0, 64, 96
1, 566708, Control_c, 0, 64, 96
1, 566737, Control_c, 0, 64, 95
1, 566752, Control_c, 0, 64, 95
1, 566766, Control_c, 0, 64, 94
1, 566781, Control_c, 0, 64, 94
1, 566796, Control_c, 0, 64, 93
1, 566811, Control_c, 0, 64, 92
1, 566826, Control_c, 0, 64, 90
1, 566840, Control_c, 0, 64, 88
1, 566855, Control_c, 0, 64, 86
1, 566870, Control_c, 0, 64, 83
1, 566885, Control_c, 0, 64, 81
1, 566900, Control_c, 0, 64, 77
1, 566914, Control_c, 0, 64, 73
1, 566929, Control_c, 0, 64, 68
1, 566944, Control_c, 0, 64, 62
1, 566958, Control_c, 0, 64, 55
1, 566973, Control_c, 0, 64, 52
1, 567033, Control_c, 0, 64, 52
1, 567048, Control_c, 0, 64, 51
1, 567062, Control_c, 0, 64, 50
1, 567077, Control_c, 0, 64, 48
1, 567092, Control_c, 0, 64, 47
1, 567107, Control_c, 0, 64, 46
1, 567122, Control_c, 0, 64, 45
1, 567144, Control_c, 0, 64, 44
1, 567173, Control_c, 0, 64, 43
1, 567218, Control_c, 0, 64, 43
1, 567247, Control_c, 0, 64, 42
1, 568398, Control_c, 0, 64, 42
1, 568473, End_track
0, 0, End_of_file
