0, 0, Header, 0, 1, 384
1, 0, Start_track
1, 0, Title_t, "Tran. Etude No.10--Katelyn Tran    "
1, 0, Text_t, "2008 e-Piano Junior Competition virtual audition round"
1, 0, Text_t, "recorded January and February 2008"
1, 0, Text_t, "http://www.piano-e-competition.com/"
1, 0, Text_t, "File processed for distribution by software from Zenph Studios, Inc., http://www.zenph.com"
1, 0, Instrument_name_t, "Yamaha Disklavier Pro Mark IV concert grand piano, model DCFIIISM4PRO"
1, 0, Sequencer_specific, 39, 67, 113, 0, 1, 0, 1, 0, 84, 114, 97, 110, 46, 69, 116, 117, 100, 101, 32, 78, 111, 46, 49, 48, 75, 97, 116, 101, 108, 121, 110, 32, 84, 114, 97, 110, 32, 32, 32, 32
1, 0, Sequencer_specific, 6, 67, 113, 0, 0, 0, 69
1, 0, System_exclusive, 21, 67, 113, 126, 21, 0, 2, 2, 0, 9, 10, 6, 4, 7, 8, 3, 14, 9, 7, 12, 2, 247
1, 0, Sequencer_specific, 5, 67, 123, 12, 2, 1
1, 0, Tempo, 512820
1, 0, Time_signature, 4, 2, 24, 8
1, 0, System_exclusive, 5, 126, 127, 9, 1, 247
1, 1, System_exclusive, 8, 67, 16, 76, 0, 0, 126, 0, 247
1, 2, System_exclusive, 8, 67, 16, 76, 8, 9, 7, 1, 247
1, 3, Control_c, 0, 0, 0
1, 3, Control_c, 1, 0, 0
1, 3, Control_c, 2, 0, 0
1, 3, Control_c, 3, 0, 0
1, 3, Control_c, 4, 0, 0
1, 3, Control_c, 5, 0, 0
1, 3, Control_c, 6, 0, 0
1, 3, Control_c, 7, 0, 0
1, 3, Control_c, 8, 0, 0
1, 3, Control_c, 9, 0, 127
1, 3, Control_c, 10, 0, 0
1, 3, Control_c, 11, 0, 0
1, 3, Control_c, 12, 0, 0
1, 3, Control_c, 13, 0, 0
1, 3, Control_c, 14, 0, 0
1, 3, Control_c, 15, 0, 0
1, 4, Control_c, 0, 32, 0
1, 4, Control_c, 1, 32, 0
1, 4, Control_c, 2, 32, 0
1, 4, Control_c, 3, 32, 0
1, 4, Control_c, 4, 32, 0
1, 4, Control_c, 5, 32, 0
1, 4, Control_c, 6, 32, 0
1, 4, Control_c, 7, 32, 0
1, 4, Control_c, 8, 32, 0
1, 4, Control_c, 9, 32, 0
1, 4, Control_c, 10, 32, 0
1, 4, Control_c, 11, 32, 0
1, 4, Control_c, 12, 32, 0
1, 4, Control_c, 13, 32, 0
1, 4, Control_c, 14, 32, 0
1, 4, Control_c, 15, 32, 0
1, 5, Program_c, 0, 0
1, 5, Program_c, 1, 0
1, 5, Program_c, 2, 0
1, 5, Program_c, 3, 0
1, 5, Program_c, 4, 0
1, 5, Program_c, 5, 0
1, 5, Program_c, 6, 0
1, 5, Program_c, 7, 0
1, 5, Program_c, 8, 0
1, 5, Program_c, 9, 0
1, 5, Program_c, 10, 0
1, 5, Program_c, 11, 0
1, 5, Program_c, 12, 0
1, 5, Program_c, 13, 0
1, 5, Program_c, 14, 0
1, 5, Program_c, 15, 0
1, 6, Control_c, 0, 7, 100
1, 117, Control_c, 0, 67, 15
1, 229, Control_c, 0, 67, 31
1, 341, Control_c, 0, 67, 46
1, 452, Control_c, 0, 67, 63
1, 564, Control_c, 0, 67, 77
1, 676, Control_c, 0, 67, 94
1, 787, Control_c, 0, 67, 108
1, 899, Control_c, 0, 67, 127
1, 899, Control_c, 1, 7, 100
1, 899, Control_c, 2, 7, 100
1, 899, Control_c, 3, 7, 100
1, 899, Control_c, 4, 7, 100
1, 899, Control_c, 5, 7, 100
1, 899, Control_c, 6, 7, 100
1, 899, Control_c, 7, 7, 100
1, 899, Control_c, 8, 7, 100
1, 899, Control_c, 9, 7, 100
1, 899, Control_c, 10, 7, 100
1, 899, Control_c, 11, 7, 100
1, 899, Control_c, 12, 7, 100
1, 899, Control_c, 13, 7, 100
1, 899, Control_c, 14, 7, 100
1, 899, Control_c, 15, 7, 100
1, 1130, Note_on_c, 0, 77, 51
1, 1148, Note_on_c, 0, 68, 32
1, 1162, Note_on_c, 0, 72, 29
1, 1192, Control_c, 0, 64, 13
1, 1207, Control_c, 0, 64, 40
1, 1222, Control_c, 0, 64, 53
1, 1237, Control_c, 0, 64, 58
1, 1252, Control_c, 0, 64, 60
1, 1267, Control_c, 0, 64, 62
1, 1282, Control_c, 0, 64, 63
1, 1296, Control_c, 0, 64, 66
1, 1311, Control_c, 0, 64, 69
1, 1326, Control_c, 0, 64, 71
1, 1341, Control_c, 0, 64, 74
1, 1356, Control_c, 0, 64, 77
1, 1370, Control_c, 0, 64, 80
1, 1385, Control_c, 0, 64, 82
1, 1400, Control_c, 0, 64, 84
1, 1416, Control_c, 0, 64, 85
1, 1431, Control_c, 0, 64, 87
1, 1446, Control_c, 0, 64, 88
1, 1460, Control_c, 0, 64, 88
1, 1475, Control_c, 0, 64, 89
1, 1476, Note_on_c, 0, 79, 46
1, 1487, Note_off_c, 0, 72, 40
1, 1493, Note_on_c, 0, 70, 37
1, 1507, Note_off_c, 0, 68, 43
1, 1515, Note_on_c, 0, 73, 42
1, 1533, Note_off_c, 0, 77, 36
1, 1590, Note_off_c, 0, 79, 62
1, 1640, Note_off_c, 0, 73, 43
1, 1646, Note_off_c, 0, 70, 44
1, 1664, Note_on_c, 0, 77, 55
1, 1686, Note_on_c, 0, 68, 50
1, 1706, Note_on_c, 0, 72, 30
1, 1742, Note_off_c, 0, 72, 50
1, 1766, Note_off_c, 0, 68, 37
1, 1771, Control_c, 0, 64, 88
1, 1793, Control_c, 0, 64, 88
1, 1794, Note_off_c, 0, 77, 47
1, 1808, Control_c, 0, 64, 86
1, 1816, Note_on_c, 0, 67, 55
1, 1823, Control_c, 0, 64, 81
1, 1833, Note_on_c, 0, 75, 50
1, 1837, Control_c, 0, 64, 74
1, 1843, Note_on_c, 0, 70, 40
1, 1852, Control_c, 0, 64, 66
1, 1867, Control_c, 0, 64, 62
1, 1882, Control_c, 0, 64, 65
1, 1896, Note_off_c, 0, 75, 54
1, 1897, Control_c, 0, 64, 68
1, 1899, Note_off_c, 0, 67, 57
1, 1905, Note_off_c, 0, 70, 44
1, 1911, Control_c, 0, 64, 71
1, 1926, Control_c, 0, 64, 73
1, 1932, Note_on_c, 0, 77, 66
1, 1941, Control_c, 0, 64, 72
1, 1949, Note_on_c, 0, 72, 56
1, 1956, Control_c, 0, 64, 70
1, 1970, Note_on_c, 0, 68, 39
1, 1971, Control_c, 0, 64, 70
1, 1985, Control_c, 0, 64, 70
1, 1997, Note_off_c, 0, 72, 55
1, 1998, Note_off_c, 0, 77, 59
1, 2009, Note_on_c, 0, 75, 55
1, 2013, Note_off_c, 0, 68, 46
1, 2018, Note_on_c, 0, 70, 51
1, 2021, Note_on_c, 0, 67, 55
1, 2030, Control_c, 0, 64, 70
1, 2059, Note_off_c, 0, 67, 62
1, 2060, Control_c, 0, 64, 71
1, 2064, Note_off_c, 0, 70, 55
1, 2075, Control_c, 0, 64, 72
1, 2078, Note_off_c, 0, 75, 59
1, 2090, Control_c, 0, 64, 73
1, 2102, Note_on_c, 0, 73, 67
1, 2105, Note_on_c, 0, 68, 59
1, 2108, Note_on_c, 0, 65, 58
1, 2148, Note_off_c, 0, 65, 64
1, 2155, Note_off_c, 0, 73, 58
1, 2179, Control_c, 0, 64, 73
1, 2182, Note_on_c, 0, 70, 56
1, 2193, Control_c, 0, 64, 72
1, 2212, Note_off_c, 0, 70, 59
1, 2222, Note_off_c, 0, 68, 0
1, 2222, Note_on_c, 0, 68, 7
1, 2236, Note_on_c, 0, 73, 49
1, 2239, Note_on_c, 0, 65, 56
1, 2268, Control_c, 0, 64, 71
1, 2268, Note_off_c, 0, 65, 53
1, 2283, Control_c, 0, 64, 68
1, 2290, Note_off_c, 0, 73, 56
1, 2298, Control_c, 0, 64, 66
1, 2313, Control_c, 0, 64, 66
1, 2316, Note_on_c, 0, 72, 61
1, 2323, Note_off_c, 0, 68, 38
1, 2324, Note_on_c, 0, 67, 58
1, 2325, Note_on_c, 0, 63, 62
1, 2328, Control_c, 0, 64, 67
1, 2357, Control_c, 0, 64, 65
1, 2362, Note_off_c, 0, 63, 59
1, 2372, Control_c, 0, 64, 65
1, 2373, Note_off_c, 0, 72, 64
1, 2377, Note_off_c, 0, 67, 58
1, 2378, Note_on_c, 0, 68, 52
1, 2385, Note_on_c, 0, 65, 51
1, 2387, Control_c, 0, 64, 66
1, 2402, Control_c, 0, 64, 68
1, 2406, Note_off_c, 0, 65, 62
1, 2409, Note_off_c, 0, 68, 66
1, 2416, Control_c, 0, 64, 69
1, 2431, Control_c, 0, 64, 70
1, 2446, Control_c, 0, 64, 69
1, 2448, Note_on_c, 0, 72, 62
1, 2452, Note_on_c, 0, 63, 66
1, 2453, Note_on_c, 0, 67, 54
1, 2460, Control_c, 0, 64, 68
1, 2475, Control_c, 0, 64, 69
1, 2490, Control_c, 0, 64, 70
1, 2494, Note_off_c, 0, 63, 52
1, 2497, Note_off_c, 0, 72, 60
1, 2505, Control_c, 0, 64, 70
1, 2511, Note_off_c, 0, 67, 56
1, 2521, Note_on_c, 0, 70, 68
1, 2524, Note_on_c, 0, 61, 67
1, 2539, Note_on_c, 0, 65, 33
1, 2557, Control_c, 0, 64, 71
1, 2572, Note_off_c, 0, 61, 56
1, 2572, Control_c, 0, 64, 73
1, 2574, Note_off_c, 0, 65, 53
1, 2587, Control_c, 0, 64, 74
1, 2593, Note_off_c, 0, 70, 60
1, 2600, Note_on_c, 0, 63, 64
1, 2616, Control_c, 0, 64, 74
1, 2620, Note_off_c, 0, 63, 61
1, 2631, Control_c, 0, 64, 73
1, 2646, Control_c, 0, 64, 72
1, 2651, Note_on_c, 0, 70, 50
1, 2660, Control_c, 0, 64, 70
1, 2662, Note_on_c, 0, 61, 68
1, 2667, Note_on_c, 0, 65, 57
1, 2675, Control_c, 0, 64, 66
1, 2690, Control_c, 0, 64, 60
1, 2705, Note_off_c, 0, 70, 60
1, 2705, Control_c, 0, 64, 57
1, 2710, Note_off_c, 0, 61, 57
1, 2720, Control_c, 0, 64, 61
1, 2728, Note_on_c, 0, 68, 72
1, 2734, Control_c, 0, 64, 64
1, 2736, Note_on_c, 0, 60, 67
1, 2740, Note_on_c, 0, 63, 48
1, 2748, Note_off_c, 0, 65, 57
1, 2749, Control_c, 0, 64, 66
1, 2764, Control_c, 0, 64, 68
1, 2779, Control_c, 0, 64, 70
1, 2794, Control_c, 0, 64, 73
1, 2796, Note_off_c, 0, 60, 59
1, 2799, Note_on_c, 0, 65, 45
1, 2805, Note_on_c, 0, 61, 67
1, 2807, Note_off_c, 0, 68, 59
1, 2808, Control_c, 0, 64, 76
1, 2814, Note_on_c, 0, 70, 61
1, 2814, Note_off_c, 0, 63, 56
1, 2823, Control_c, 0, 64, 77
1, 2838, Control_c, 0, 64, 78
1, 2844, Note_off_c, 0, 65, 61
1, 2844, Note_off_c, 0, 70, 67
1, 2853, Control_c, 0, 64, 78
1, 2878, Note_off_c, 0, 61, 48
1, 2883, Control_c, 0, 64, 78
1, 2891, Note_on_c, 0, 63, 44
1, 2897, Control_c, 0, 64, 75
1, 2898, Note_on_c, 0, 68, 61
1, 2910, Note_on_c, 0, 60, 64
1, 2912, Control_c, 0, 64, 68
1, 2927, Control_c, 0, 64, 58
1, 2942, Control_c, 0, 64, 48
1, 2957, Control_c, 0, 64, 52
1, 2969, Note_on_c, 0, 67, 64
1, 2972, Control_c, 0, 64, 59
1, 2974, Note_off_c, 0, 68, 62
1, 2978, Note_on_c, 0, 58, 68
1, 2987, Control_c, 0, 64, 63
1, 2989, Note_off_c, 0, 60, 58
1, 2998, Note_on_c, 0, 61, 57
1, 3002, Control_c, 0, 64, 66
1, 3012, Note_off_c, 0, 63, 56
1, 3017, Control_c, 0, 64, 67
1, 3032, Control_c, 0, 64, 69
1, 3046, Control_c, 0, 64, 72
1, 3061, Control_c, 0, 64, 75
1, 3064, Note_off_c, 0, 61, 50
1, 3064, Note_off_c, 0, 67, 59
1, 3076, Control_c, 0, 64, 78
1, 3076, Note_off_c, 0, 58, 60
1, 3081, Note_on_c, 0, 63, 39
1, 3085, Note_on_c, 0, 60, 61
1, 3091, Control_c, 0, 64, 80
1, 3097, Note_on_c, 0, 68, 55
1, 3106, Control_c, 0, 64, 81
1, 3121, Control_c, 0, 64, 82
1, 3121, Note_off_c, 0, 68, 58
1, 3136, Control_c, 0, 64, 82
1, 3138, Note_off_c, 0, 60, 63
1, 3139, Note_off_c, 0, 63, 61
1, 3151, Control_c, 0, 64, 83
1, 3162, Note_on_c, 0, 67, 49
1, 3165, Control_c, 0, 64, 83
1, 3172, Note_on_c, 0, 58, 43
1, 3180, Control_c, 0, 64, 84
1, 3184, Note_on_c, 0, 61, 44
1, 3200, Note_off_c, 0, 58, 61
1, 3233, Note_off_c, 0, 61, 60
1, 3244, Note_off_c, 0, 67, 55
1, 3291, Control_c, 0, 64, 81
1, 3306, Control_c, 0, 64, 77
1, 3321, Control_c, 0, 64, 68
1, 3336, Control_c, 0, 64, 53
1, 3338, Note_on_c, 0, 65, 65
1, 3351, Control_c, 0, 64, 0
1, 3351, Note_on_c, 0, 56, 56
1, 3483, Control_c, 0, 64, 54
1, 3494, Note_on_c, 0, 60, 52
1, 3498, Control_c, 0, 64, 63
1, 3513, Control_c, 0, 64, 66
1, 3523, Note_off_c, 0, 65, 65
1, 3528, Control_c, 0, 64, 67
1, 3543, Control_c, 0, 64, 69
1, 3557, Control_c, 0, 64, 73
1, 3572, Control_c, 0, 64, 79
1, 3572, Control_c, 0, 67, 126
1, 3579, Note_on_c, 0, 53, 56
1, 3587, Control_c, 0, 64, 85
1, 3587, Control_c, 0, 67, 123
1, 3596, Note_off_c, 0, 60, 59
1, 3602, Control_c, 0, 64, 90
1, 3602, Control_c, 0, 67, 120
1, 3616, Control_c, 0, 64, 95
1, 3616, Control_c, 0, 67, 115
1, 3630, Note_off_c, 0, 56, 59
1, 3631, Control_c, 0, 64, 99
1, 3631, Control_c, 0, 67, 103
1, 3633, Note_off_c, 0, 53, 59
1, 3646, Control_c, 0, 64, 105
1, 3646, Control_c, 0, 67, 95
1, 3661, Control_c, 0, 64, 112
1, 3661, Control_c, 0, 67, 92
1, 3675, Note_on_c, 0, 71, 72
1, 3676, Control_c, 0, 64, 122
1, 3676, Control_c, 0, 67, 91
1, 3684, Note_on_c, 0, 59, 67
1, 3690, Control_c, 0, 64, 127
1, 3690, Control_c, 0, 67, 90
1, 3705, Control_c, 0, 67, 86
1, 3720, Control_c, 0, 67, 82
1, 3735, Control_c, 0, 67, 80
1, 3750, Note_off_c, 0, 59, 54
1, 3750, Control_c, 0, 67, 79
1, 3765, Control_c, 0, 67, 77
1, 3768, Note_off_c, 0, 71, 59
1, 3780, Control_c, 0, 67, 72
1, 3782, Note_on_c, 0, 68, 64
1, 3790, Note_on_c, 0, 65, 49
1, 3795, Control_c, 0, 67, 66
1, 3810, Control_c, 0, 67, 61
1, 3825, Control_c, 0, 64, 122
1, 3825, Control_c, 0, 67, 59
1, 3840, Control_c, 0, 64, 112
1, 3840, Control_c, 0, 67, 56
1, 3854, Control_c, 0, 64, 100
1, 3854, Control_c, 0, 67, 51
1, 3869, Note_on_c, 0, 72, 67
1, 3869, Control_c, 0, 64, 82
1, 3869, Control_c, 0, 67, 44
1, 3877, Note_on_c, 0, 60, 52
1, 3884, Control_c, 0, 64, 67
1, 3884, Control_c, 0, 67, 41
1, 3899, Control_c, 0, 64, 54
1, 3914, Control_c, 0, 64, 55
1, 3914, Control_c, 0, 67, 41
1, 3929, Control_c, 0, 64, 63
1, 3929, Control_c, 0, 67, 38
1, 3935, Note_off_c, 0, 60, 64
1, 3944, Control_c, 0, 64, 69
1, 3944, Control_c, 0, 67, 34
1, 3952, Note_off_c, 0, 68, 63
1, 3952, Note_off_c, 0, 72, 65
1, 3953, Note_on_c, 0, 64, 66
1, 3953, Note_off_c, 0, 65, 58
1, 3959, Control_c, 0, 64, 75
1, 3959, Control_c, 0, 67, 31
1, 3973, Note_on_c, 0, 55, 55
1, 3974, Control_c, 0, 64, 80
1, 3974, Control_c, 0, 67, 28
1, 3988, Control_c, 0, 64, 84
1, 3988, Control_c, 0, 67, 26
1, 4003, Control_c, 0, 64, 88
1, 4003, Control_c, 0, 67, 22
1, 4018, Control_c, 0, 64, 90
1, 4018, Control_c, 0, 67, 17
1, 4039, Control_c, 0, 64, 93
1, 4039, Control_c, 0, 67, 12
1, 4054, Control_c, 0, 64, 95
1, 4054, Control_c, 0, 67, 10
1, 4069, Control_c, 0, 64, 95
1, 4069, Control_c, 0, 67, 9
1, 4081, Note_on_c, 0, 58, 53
1, 4084, Control_c, 0, 67, 0
1, 4143, Note_off_c, 0, 64, 49
1, 4154, Note_on_c, 0, 53, 52
1, 4203, Control_c, 0, 64, 95
1, 4239, Note_on_c, 0, 73, 70
1, 4263, Note_on_c, 0, 61, 59
1, 4272, Note_off_c, 0, 58, 27
1, 4277, Control_c, 0, 64, 94
1, 4292, Control_c, 0, 64, 94
1, 4315, Note_off_c, 0, 55, 30
1, 4351, Control_c, 0, 64, 93
1, 4352, Note_off_c, 0, 53, 55
1, 4376, Note_off_c, 0, 61, 59
1, 4379, Note_on_c, 0, 67, 57
1, 4379, Note_on_c, 0, 64, 49
1, 4395, Control_c, 0, 64, 93
1, 4399, Note_off_c, 0, 73, 55
1, 4410, Control_c, 0, 64, 92
1, 4425, Control_c, 0, 64, 91
1, 4439, Control_c, 0, 64, 90
1, 4454, Control_c, 0, 64, 89
1, 4469, Control_c, 0, 64, 88
1, 4484, Control_c, 0, 64, 86
1, 4496, Note_on_c, 0, 72, 61
1, 4499, Control_c, 0, 64, 84
1, 4506, Note_off_c, 0, 64, 55
1, 4507, Note_on_c, 0, 60, 54
1, 4513, Control_c, 0, 64, 82
1, 4528, Control_c, 0, 64, 81
1, 4543, Note_off_c, 0, 67, 37
1, 4543, Control_c, 0, 64, 79
1, 4555, Note_off_c, 0, 60, 63
1, 4558, Control_c, 0, 64, 77
1, 4573, Control_c, 0, 64, 74
1, 4576, Note_off_c, 0, 72, 57
1, 4588, Control_c, 0, 64, 69
1, 4603, Control_c, 0, 64, 61
1, 4618, Control_c, 0, 64, 45
1, 4633, Control_c, 0, 64, 0
1, 4645, Note_on_c, 0, 65, 45
1, 4647, Note_on_c, 0, 56, 43
1, 4877, Control_c, 0, 64, 40
1, 4880, Note_on_c, 0, 60, 25
1, 4892, Control_c, 0, 64, 55
1, 4907, Control_c, 0, 64, 61
1, 4922, Control_c, 0, 64, 63
1, 4936, Control_c, 0, 64, 65
1, 4951, Control_c, 0, 64, 67
1, 4966, Control_c, 0, 64, 69
1, 4981, Control_c, 0, 64, 72
1, 4996, Control_c, 0, 64, 75
1, 5011, Control_c, 0, 64, 78
1, 5026, Control_c, 0, 64, 80
1, 5041, Control_c, 0, 64, 82
1, 5055, Control_c, 0, 64, 84
1, 5070, Control_c, 0, 64, 86
1, 5085, Control_c, 0, 64, 88
1, 5100, Control_c, 0, 64, 91
1, 5113, Note_on_c, 0, 53, 41
1, 5115, Control_c, 0, 64, 93
1, 5129, Control_c, 0, 64, 96
1, 5144, Control_c, 0, 64, 99
1, 5159, Control_c, 0, 64, 102
1, 5174, Control_c, 0, 64, 105
1, 5180, Note_off_c, 0, 53, 61
1, 5189, Control_c, 0, 64, 108
1, 5203, Control_c, 0, 64, 111
1, 5207, Note_off_c, 0, 65, 40
1, 5214, Note_off_c, 0, 56, 42
1, 5218, Note_off_c, 0, 60, 37
1, 5218, Control_c, 0, 64, 112
1, 5233, Control_c, 0, 64, 113
1, 5366, Control_c, 0, 64, 112
1, 5381, Control_c, 0, 64, 112
1, 5395, Control_c, 0, 64, 109
1, 5412, Control_c, 0, 64, 108
1, 5426, Control_c, 0, 64, 106
1, 5441, Control_c, 0, 64, 105
1, 5456, Control_c, 0, 64, 104
1, 5471, Control_c, 0, 64, 102
1, 5485, Control_c, 0, 64, 100
1, 5500, Control_c, 0, 64, 98
1, 5515, Control_c, 0, 64, 96
1, 5538, Control_c, 0, 64, 95
1, 5553, Control_c, 0, 64, 93
1, 5567, Control_c, 0, 64, 91
1, 5582, Control_c, 0, 64, 87
1, 5594, Note_on_c, 0, 77, 64
1, 5597, Control_c, 0, 64, 83
1, 5609, Note_on_c, 0, 68, 38
1, 5612, Control_c, 0, 64, 78
1, 5627, Control_c, 0, 64, 73
1, 5641, Control_c, 0, 64, 67
1, 5645, Note_on_c, 0, 72, 27
1, 5656, Control_c, 0, 64, 58
1, 5671, Control_c, 0, 64, 33
1, 5685, Control_c, 0, 64, 0
1, 5715, Control_c, 0, 64, 20
1, 5730, Control_c, 0, 64, 35
1, 5745, Control_c, 0, 64, 46
1, 5759, Control_c, 0, 64, 56
1, 5774, Control_c, 0, 64, 63
1, 5789, Control_c, 0, 64, 67
1, 5804, Control_c, 0, 64, 70
1, 5816, Note_off_c, 0, 72, 39
1, 5819, Control_c, 0, 64, 75
1, 5824, Note_on_c, 0, 79, 53
1, 5834, Control_c, 0, 64, 79
1, 5835, Note_on_c, 0, 70, 52
1, 5837, Note_off_c, 0, 68, 42
1, 5846, Note_off_c, 0, 77, 55
1, 5849, Control_c, 0, 64, 83
1, 5860, Note_on_c, 0, 73, 36
1, 5863, Control_c, 0, 64, 88
1, 5864, Note_off_c, 0, 79, 63
1, 5878, Control_c, 0, 64, 91
1, 5892, Note_off_c, 0, 70, 46
1, 5893, Control_c, 0, 64, 95
1, 5893, Note_off_c, 0, 73, 53
1, 5908, Control_c, 0, 64, 99
1, 5923, Control_c, 0, 64, 101
1, 5950, Note_on_c, 0, 68, 57
1, 5952, Note_on_c, 0, 77, 65
1, 5953, Control_c, 0, 64, 98
1, 5955, Note_on_c, 0, 72, 52
1, 5967, Control_c, 0, 64, 93
1, 5982, Control_c, 0, 64, 92
1, 6009, Note_off_c, 0, 68, 51
1, 6011, Control_c, 0, 64, 93
1, 6014, Note_off_c, 0, 72, 51
1, 6026, Control_c, 0, 64, 94
1, 6031, Note_off_c, 0, 77, 53
1, 6038, Note_on_c, 0, 75, 60
1, 6039, Note_on_c, 0, 67, 61
1, 6041, Control_c, 0, 64, 93
1, 6056, Control_c, 0, 64, 88
1, 6071, Note_on_c, 0, 70, 31
1, 6071, Control_c, 0, 64, 80
1, 6085, Control_c, 0, 64, 75
1, 6093, Note_off_c, 0, 67, 56
1, 6096, Note_off_c, 0, 75, 54
1, 6100, Control_c, 0, 64, 73
1, 6102, Note_off_c, 0, 70, 55
1, 6115, Control_c, 0, 64, 74
1, 6141, Note_on_c, 0, 77, 74
1, 6145, Control_c, 0, 64, 73
1, 6146, Note_on_c, 0, 72, 64
1, 6148, Note_on_c, 0, 68, 58
1, 6174, Control_c, 0, 64, 75
1, 6182, Note_off_c, 0, 72, 61
1, 6189, Control_c, 0, 64, 77
1, 6192, Note_off_c, 0, 68, 59
1, 6199, Note_on_c, 0, 70, 49
1, 6199, Note_on_c, 0, 75, 62
1, 6205, Note_off_c, 0, 77, 59
1, 6205, Control_c, 0, 64, 79
1, 6206, Note_on_c, 0, 67, 60
1, 6233, Note_off_c, 0, 75, 59
1, 6235, Control_c, 0, 64, 77
1, 6238, Note_off_c, 0, 67, 58
1, 6244, Note_off_c, 0, 70, 60
1, 6249, Control_c, 0, 64, 71
1, 6264, Control_c, 0, 64, 69
1, 6284, Note_on_c, 0, 68, 71
1, 6286, Note_on_c, 0, 73, 71
1, 6287, Control_c, 0, 64, 72
1, 6291, Note_on_c, 0, 65, 66
1, 6302, Control_c, 0, 64, 74
1, 6316, Control_c, 0, 64, 76
1, 6331, Note_off_c, 0, 65, 59
1, 6336, Note_on_c, 0, 67, 57
1, 6346, Control_c, 0, 64, 78
1, 6346, Note_off_c, 0, 68, 44
1, 6349, Note_on_c, 0, 75, 53
1, 6349, Note_off_c, 0, 73, 63
1, 6352, Note_on_c, 0, 70, 56
1, 6361, Control_c, 0, 64, 83
1, 6364, Note_off_c, 0, 67, 57
1, 6370, Note_off_c, 0, 75, 59
1, 6376, Control_c, 0, 64, 89
1, 6379, Note_off_c, 0, 70, 63
1, 6390, Control_c, 0, 64, 90
1, 6405, Control_c, 0, 64, 88
1, 6411, Note_on_c, 0, 68, 54
1, 6412, Note_on_c, 0, 73, 59
1, 6420, Control_c, 0, 64, 80
1, 6424, Note_on_c, 0, 65, 66
1, 6434, Control_c, 0, 64, 71
1, 6449, Control_c, 0, 64, 67
1, 6460, Note_off_c, 0, 65, 63
1, 6464, Note_off_c, 0, 68, 50
1, 6464, Control_c, 0, 64, 70
1, 6466, Note_off_c, 0, 73, 57
1, 6468, Note_on_c, 0, 72, 68
1, 6479, Control_c, 0, 64, 73
1, 6482, Note_on_c, 0, 63, 69
1, 6483, Note_on_c, 0, 67, 46
1, 6494, Control_c, 0, 64, 76
1, 6508, Control_c, 0, 64, 75
1, 6523, Control_c, 0, 64, 72
1, 6536, Note_off_c, 0, 63, 61
1, 6537, Note_off_c, 0, 72, 60
1, 6538, Control_c, 0, 64, 69
1, 6547, Note_off_c, 0, 67, 62
1, 6552, Note_on_c, 0, 68, 69
1, 6553, Control_c, 0, 64, 71
1, 6565, Note_on_c, 0, 65, 59
1, 6568, Control_c, 0, 64, 75
1, 6579, Note_off_c, 0, 68, 68
1, 6582, Control_c, 0, 64, 77
1, 6585, Note_off_c, 0, 65, 62
1, 6597, Control_c, 0, 64, 77
1, 6608, Note_on_c, 0, 63, 71
1, 6612, Control_c, 0, 64, 73
1, 6616, Note_on_c, 0, 67, 53
1, 6618, Note_on_c, 0, 72, 61
1, 6627, Control_c, 0, 64, 67
1, 6641, Control_c, 0, 64, 66
1, 6656, Control_c, 0, 64, 68
1, 6660, Note_off_c, 0, 72, 58
1, 6664, Note_off_c, 0, 63, 61
1, 6671, Control_c, 0, 64, 68
1, 6674, Note_off_c, 0, 67, 61
1, 6677, Note_on_c, 0, 65, 54
1, 6680, Note_on_c, 0, 70, 70
1, 6682, Note_on_c, 0, 61, 72
1, 6686, Control_c, 0, 64, 67
1, 6701, Control_c, 0, 64, 66
1, 6716, Control_c, 0, 64, 68
1, 6726, Note_off_c, 0, 61, 54
1, 6731, Control_c, 0, 64, 72
1, 6734, Note_off_c, 0, 65, 59
1, 6735, Note_off_c, 0, 70, 62
1, 6740, Note_on_c, 0, 63, 66
1, 6746, Control_c, 0, 64, 75
1, 6761, Control_c, 0, 64, 76
1, 6775, Control_c, 0, 64, 75
1, 6782, Note_off_c, 0, 63, 55
1, 6790, Control_c, 0, 64, 69
1, 6801, Note_on_c, 0, 70, 59
1, 6802, Note_on_c, 0, 61, 64
1, 6805, Control_c, 0, 64, 62
1, 6810, Note_on_c, 0, 65, 43
1, 6820, Control_c, 0, 64, 55
1, 6834, Control_c, 0, 64, 57
1, 6849, Control_c, 0, 64, 59
1, 6861, Note_off_c, 0, 65, 59
1, 6864, Note_off_c, 0, 70, 63
1, 6864, Control_c, 0, 64, 62
1, 6866, Note_off_c, 0, 61, 56
1, 6868, Note_on_c, 0, 68, 75
1, 6879, Control_c, 0, 64, 64
1, 6886, Note_on_c, 0, 60, 71
1, 6895, Control_c, 0, 64, 66
1, 6896, Note_on_c, 0, 63, 60
1, 6909, Control_c, 0, 64, 69
1, 6924, Control_c, 0, 64, 71
1, 6939, Control_c, 0, 64, 74
1, 6946, Note_on_c, 0, 61, 66
1, 6946, Note_off_c, 0, 60, 61
1, 6954, Control_c, 0, 64, 75
1, 6957, Note_off_c, 0, 68, 57
1, 6963, Note_off_c, 0, 63, 55
1, 6965, Note_on_c, 0, 65, 58
1, 6965, Note_on_c, 0, 70, 56
1, 6969, Control_c, 0, 64, 75
1, 6983, Control_c, 0, 64, 76
1, 6989, Note_off_c, 0, 70, 67
1, 6990, Note_off_c, 0, 65, 60
1, 7014, Control_c, 0, 64, 76
1, 7020, Note_off_c, 0, 61, 60
1, 7035, Note_on_c, 0, 68, 58
1, 7039, Note_on_c, 0, 63, 46
1, 7054, Note_on_c, 0, 60, 57
1, 7065, Control_c, 0, 64, 75
1, 7080, Control_c, 0, 64, 72
1, 7095, Control_c, 0, 64, 65
1, 7103, Note_off_c, 0, 60, 47
1, 7110, Control_c, 0, 64, 47
1, 7114, Note_on_c, 0, 67, 66
1, 7116, Note_off_c, 0, 68, 48
1, 7125, Control_c, 0, 64, 0
1, 7143, Note_on_c, 0, 57, 59
1, 7154, Control_c, 0, 64, 22
1, 7156, Note_on_c, 0, 60, 23
1, 7169, Control_c, 0, 64, 45
1, 7174, Note_off_c, 0, 57, 52
1, 7184, Control_c, 0, 64, 57
1, 7190, Note_off_c, 0, 60, 47
1, 7199, Control_c, 0, 64, 63
1, 7202, Note_off_c, 0, 67, 59
1, 7214, Control_c, 0, 64, 64
1, 7229, Note_on_c, 0, 60, 58
1, 7229, Control_c, 0, 64, 66
1, 7232, Note_on_c, 0, 68, 61
1, 7244, Control_c, 0, 64, 70
1, 7258, Control_c, 0, 64, 74
1, 7266, Note_off_c, 0, 68, 62
1, 7273, Control_c, 0, 64, 79
1, 7288, Control_c, 0, 64, 83
1, 7291, Note_off_c, 0, 60, 62
1, 7294, Note_on_c, 0, 58, 68
1, 7294, Note_on_c, 0, 67, 65
1, 7303, Control_c, 0, 64, 85
1, 7304, Note_on_c, 0, 61, 59
1, 7318, Control_c, 0, 64, 86
1, 7325, Note_off_c, 0, 58, 66
1, 7334, Note_off_c, 0, 67, 56
1, 7347, Control_c, 0, 64, 87
1, 7350, Note_off_c, 0, 63, 28
1, 7354, Note_off_c, 0, 61, 61
1, 7362, Control_c, 0, 64, 87
1, 7392, Control_c, 0, 64, 86
1, 7406, Control_c, 0, 64, 82
1, 7421, Control_c, 0, 64, 72
1, 7436, Control_c, 0, 64, 59
1, 7437, Note_on_c, 0, 65, 64
1, 7445, Note_on_c, 0, 56, 55
1, 7450, Control_c, 0, 64, 24
1, 7465, Control_c, 0, 64, 11
1, 7480, Control_c, 0, 64, 49
1, 7495, Control_c, 0, 64, 62
1, 7510, Control_c, 0, 64, 67
1, 7524, Control_c, 0, 64, 71
1, 7534, Note_on_c, 0, 60, 64
1, 7536, Note_off_c, 0, 65, 51
1, 7539, Control_c, 0, 64, 76
1, 7554, Control_c, 0, 64, 80
1, 7569, Control_c, 0, 64, 84
1, 7584, Control_c, 0, 64, 88
1, 7596, Note_on_c, 0, 53, 63
1, 7599, Control_c, 0, 64, 89
1, 7615, Note_off_c, 0, 60, 62
1, 7634, Note_off_c, 0, 56, 62
1, 7652, Note_off_c, 0, 53, 64
1, 7686, Note_on_c, 0, 71, 74
1, 7691, Note_on_c, 0, 59, 74
1, 7744, Note_off_c, 0, 59, 55
1, 7761, Note_off_c, 0, 71, 61
1, 7762, Control_c, 0, 64, 89
1, 7768, Note_on_c, 0, 68, 71
1, 7780, Note_on_c, 0, 65, 58
1, 7783, Control_c, 0, 64, 87
1, 7798, Control_c, 0, 64, 84
1, 7815, Control_c, 0, 64, 76
1, 7829, Control_c, 0, 64, 64
1, 7843, Note_on_c, 0, 72, 80
1, 7844, Control_c, 0, 64, 23
1, 7846, Note_on_c, 0, 60, 71
1, 7859, Control_c, 0, 64, 0
1, 7879, Note_off_c, 0, 60, 65
1, 7888, Control_c, 0, 64, 37
1, 7899, Note_off_c, 0, 68, 64
1, 7902, Note_off_c, 0, 72, 65
1, 7903, Control_c, 0, 64, 61
1, 7904, Note_off_c, 0, 65, 65
1, 7916, Note_on_c, 0, 64, 74
1, 7918, Control_c, 0, 64, 69
1, 7930, Note_on_c, 0, 55, 58
1, 7933, Control_c, 0, 64, 77
1, 7948, Control_c, 0, 64, 87
1, 7962, Control_c, 0, 64, 99
1, 7977, Control_c, 0, 64, 118
1, 7992, Control_c, 0, 64, 127
1, 8005, Note_on_c, 0, 58, 74
1, 8073, Note_off_c, 0, 64, 54
1, 8077, Note_on_c, 0, 53, 69
1, 8155, Note_on_c, 0, 73, 85
1, 8165, Note_off_c, 0, 58, 57
1, 8169, Note_on_c, 0, 61, 72
1, 8195, Note_off_c, 0, 55, 33
1, 8252, Note_on_c, 0, 64, 65
1, 8263, Note_on_c, 0, 67, 74
1, 8264, Note_off_c, 0, 61, 61
1, 8283, Note_off_c, 0, 73, 61
1, 8293, Note_off_c, 0, 53, 56
1, 8347, Note_on_c, 0, 60, 76
1, 8350, Note_on_c, 0, 72, 80
1, 8371, Note_off_c, 0, 60, 69
1, 8392, Control_c, 0, 64, 121
1, 8400, Note_off_c, 0, 64, 58
1, 8406, Control_c, 0, 64, 104
1, 8412, Note_off_c, 0, 67, 60
1, 8421, Control_c, 0, 64, 86
1, 8424, Note_off_c, 0, 72, 62
1, 8436, Control_c, 0, 64, 64
1, 8451, Control_c, 0, 64, 0
1, 8460, Note_on_c, 0, 65, 81
1, 8481, Control_c, 0, 64, 14
1, 8481, Note_on_c, 0, 56, 63
1, 8496, Control_c, 0, 64, 53
1, 8510, Control_c, 0, 64, 65
1, 8533, Control_c, 0, 64, 71
1, 8548, Control_c, 0, 64, 80
1, 8562, Control_c, 0, 64, 89
1, 8565, Note_on_c, 0, 60, 74
1, 8577, Control_c, 0, 64, 98
1, 8591, Note_off_c, 0, 65, 55
1, 8592, Control_c, 0, 64, 105
1, 8608, Control_c, 0, 64, 109
1, 8622, Note_on_c, 0, 53, 70
1, 8622, Control_c, 0, 64, 111
1, 8637, Control_c, 0, 64, 112
1, 8642, Note_off_c, 0, 60, 64
1, 8655, Note_off_c, 0, 56, 61
1, 8668, Note_off_c, 0, 53, 63
1, 8682, Control_c, 0, 64, 111
1, 8688, Note_on_c, 0, 71, 77
1, 8697, Control_c, 0, 64, 110
1, 8698, Note_on_c, 0, 59, 83
1, 8711, Control_c, 0, 64, 109
1, 8726, Control_c, 0, 64, 107
1, 8741, Control_c, 0, 64, 107
1, 8769, Note_on_c, 0, 65, 65
1, 8769, Note_on_c, 0, 68, 79
1, 8771, Control_c, 0, 64, 106
1, 8774, Note_off_c, 0, 59, 65
1, 8774, Note_off_c, 0, 71, 61
1, 8844, Control_c, 0, 64, 107
1, 8859, Control_c, 0, 64, 107
1, 8868, Note_on_c, 0, 73, 85
1, 8874, Control_c, 0, 64, 108
1, 8877, Note_on_c, 0, 61, 79
1, 8892, Note_off_c, 0, 68, 62
1, 8904, Control_c, 0, 64, 109
1, 8919, Control_c, 0, 64, 110
1, 8933, Note_off_c, 0, 65, 36
1, 8967, Note_off_c, 0, 61, 62
1, 8999, Note_off_c, 0, 73, 62
1, 9008, Control_c, 0, 64, 108
1, 9022, Control_c, 0, 64, 103
1, 9037, Control_c, 0, 64, 95
1, 9052, Control_c, 0, 64, 85
1, 9067, Control_c, 0, 64, 72
1, 9069, Note_on_c, 0, 65, 29
1, 9074, Note_on_c, 0, 68, 5
1, 9080, Note_on_c, 0, 60, 73
1, 9082, Control_c, 0, 64, 57
1, 9083, Note_on_c, 0, 72, 81
1, 9096, Control_c, 0, 64, 0
1, 9106, Note_off_c, 0, 68, 46
1, 9109, Note_off_c, 0, 65, 55
1, 9140, Control_c, 0, 64, 47
1, 9155, Control_c, 0, 64, 63
1, 9169, Control_c, 0, 64, 70
1, 9174, Note_off_c, 0, 60, 62
1, 9184, Control_c, 0, 64, 76
1, 9194, Note_on_c, 0, 41, 63
1, 9199, Control_c, 0, 64, 84
1, 9214, Control_c, 0, 64, 91
1, 9218, Note_off_c, 0, 72, 65
1, 9229, Control_c, 0, 64, 99
1, 9244, Control_c, 0, 64, 111
1, 9259, Control_c, 0, 64, 127
1, 9298, Note_off_c, 0, 41, 58
1, 9314, Note_on_c, 0, 80, 76
1, 9315, Note_on_c, 0, 68, 79
1, 9337, Note_on_c, 0, 48, 44
1, 9360, Note_off_c, 0, 68, 57
1, 9365, Note_off_c, 0, 80, 62
1, 9399, Note_off_c, 0, 48, 54
1, 9414, Note_on_c, 0, 53, 55
1, 9470, Note_off_c, 0, 53, 62
1, 9530, Note_on_c, 0, 56, 37
1, 9530, Note_on_c, 0, 77, 68
1, 9541, Note_on_c, 0, 65, 61
1, 9637, Note_off_c, 0, 56, 30
1, 9637, Note_on_c, 0, 59, 65
1, 9670, Note_off_c, 0, 59, 63
1, 9800, Control_c, 0, 64, 120
1, 9815, Control_c, 0, 64, 105
1, 9830, Control_c, 0, 64, 86
1, 9840, Note_on_c, 0, 60, 53
1, 9844, Control_c, 0, 64, 68
1, 9859, Control_c, 0, 64, 44
1, 9870, Note_on_c, 0, 68, 67
1, 9874, Control_c, 0, 64, 27
1, 9879, Note_off_c, 0, 65, 66
1, 9890, Control_c, 0, 64, 54
1, 9899, Note_off_c, 0, 77, 62
1, 9905, Control_c, 0, 64, 66
1, 9919, Control_c, 0, 64, 74
1, 9934, Control_c, 0, 64, 89
1, 9949, Control_c, 0, 64, 127
1, 9954, Note_off_c, 0, 68, 64
1, 9960, Note_on_c, 0, 63, 69
1, 9981, Note_off_c, 0, 60, 59
1, 10006, Note_off_c, 0, 63, 59
1, 10047, Note_on_c, 0, 51, 73
1, 10105, Note_on_c, 0, 74, 78
1, 10115, Note_on_c, 0, 62, 74
1, 10128, Note_off_c, 0, 51, 54
1, 10161, Note_off_c, 0, 62, 59
1, 10165, Note_off_c, 0, 74, 66
1, 10169, Note_on_c, 0, 68, 72
1, 10183, Note_on_c, 0, 71, 65
1, 10224, Control_c, 0, 64, 112
1, 10234, Note_on_c, 0, 75, 87
1, 10239, Control_c, 0, 64, 84
1, 10251, Note_on_c, 0, 63, 81
1, 10254, Control_c, 0, 64, 60
1, 10258, Note_off_c, 0, 71, 53
1, 10268, Control_c, 0, 64, 24
1, 10283, Control_c, 0, 64, 36
1, 10287, Note_off_c, 0, 68, 54
1, 10298, Control_c, 0, 64, 57
1, 10310, Note_on_c, 0, 67, 87
1, 10313, Control_c, 0, 64, 66
1, 10317, Note_on_c, 0, 58, 76
1, 10323, Note_off_c, 0, 63, 63
1, 10328, Control_c, 0, 64, 73
1, 10343, Control_c, 0, 64, 81
1, 10357, Control_c, 0, 64, 90
1, 10367, Note_off_c, 0, 67, 58
1, 10372, Control_c, 0, 64, 96
1, 10380, Note_on_c, 0, 61, 80
1, 10387, Control_c, 0, 64, 99
1, 10412, Note_off_c, 0, 58, 63
1, 10417, Control_c, 0, 64, 100
1, 10425, Note_off_c, 0, 75, 37
1, 10443, Note_off_c, 0, 61, 62
1, 10445, Note_on_c, 0, 51, 84
1, 10446, Control_c, 0, 64, 101
1, 10461, Control_c, 0, 64, 102
1, 10492, Note_off_c, 0, 51, 54
1, 10528, Note_on_c, 0, 76, 89
1, 10529, Note_on_c, 0, 64, 87
1, 10610, Note_on_c, 0, 67, 79
1, 10614, Note_off_c, 0, 64, 66
1, 10615, Note_off_c, 0, 76, 66
1, 10620, Note_on_c, 0, 70, 76
1, 10638, Control_c, 0, 64, 102
1, 10653, Control_c, 0, 64, 103
1, 10667, Control_c, 0, 64, 104
1, 10682, Control_c, 0, 64, 107
1, 10697, Control_c, 0, 64, 111
1, 10698, Note_on_c, 0, 75, 87
1, 10701, Note_on_c, 0, 63, 88
1, 10712, Control_c, 0, 64, 113
1, 10721, Note_off_c, 0, 63, 68
1, 10733, Note_off_c, 0, 67, 58
1, 10742, Control_c, 0, 64, 111
1, 10746, Note_off_c, 0, 70, 62
1, 10756, Control_c, 0, 64, 101
1, 10776, Note_off_c, 0, 75, 63
1, 10779, Control_c, 0, 64, 82
1, 10794, Control_c, 0, 64, 62
1, 10808, Control_c, 0, 64, 0
1, 10815, Note_on_c, 0, 68, 87
1, 10815, Note_on_c, 0, 60, 71
1, 10838, Control_c, 0, 64, 47
1, 10853, Control_c, 0, 64, 62
1, 10868, Control_c, 0, 64, 68
1, 10882, Control_c, 0, 64, 73
1, 10893, Note_on_c, 0, 63, 80
1, 10895, Note_off_c, 0, 68, 65
1, 10897, Control_c, 0, 64, 80
1, 10912, Control_c, 0, 64, 88
1, 10927, Control_c, 0, 64, 97
1, 10940, Note_on_c, 0, 56, 83
1, 10942, Control_c, 0, 64, 105
1, 10956, Control_c, 0, 64, 111
1, 10957, Note_off_c, 0, 60, 56
1, 10961, Note_off_c, 0, 63, 62
1, 10971, Control_c, 0, 64, 112
1, 10984, Note_off_c, 0, 56, 62
1, 10991, Note_on_c, 0, 74, 69
1, 11000, Note_on_c, 0, 62, 86
1, 11002, Control_c, 0, 64, 113
1, 11017, Control_c, 0, 64, 115
1, 11055, Note_off_c, 0, 74, 65
1, 11057, Note_off_c, 0, 62, 61
1, 11060, Note_on_c, 0, 68, 78
1, 11086, Note_on_c, 0, 71, 53
1, 11107, Note_off_c, 0, 71, 57
1, 11139, Note_on_c, 0, 77, 88
1, 11140, Note_off_c, 0, 68, 61
1, 11149, Note_on_c, 0, 65, 78
1, 11188, Note_off_c, 0, 65, 61
1, 11194, Control_c, 0, 64, 115
1, 11209, Control_c, 0, 64, 114
1, 11223, Control_c, 0, 64, 111
1, 11238, Control_c, 0, 64, 103
1, 11253, Control_c, 0, 64, 90
1, 11268, Control_c, 0, 64, 72
1, 11283, Control_c, 0, 64, 50
1, 11289, Note_on_c, 0, 75, 91
1, 11289, Note_on_c, 0, 63, 96
1, 11298, Control_c, 0, 64, 0
1, 11327, Note_off_c, 0, 77, 58
1, 11327, Control_c, 0, 64, 57
1, 11342, Control_c, 0, 64, 69
1, 11346, Note_off_c, 0, 63, 65
1, 11357, Control_c, 0, 64, 81
1, 11372, Control_c, 0, 64, 97
1, 11372, Note_on_c, 0, 44, 79
1, 11387, Control_c, 0, 64, 127
1, 11387, Note_off_c, 0, 75, 68
1, 11476, Note_on_c, 0, 51, 72
1, 11493, Note_on_c, 0, 84, 91
1, 11497, Note_on_c, 0, 72, 83
1, 11507, Note_off_c, 0, 44, 61
1, 11586, Note_off_c, 0, 84, 63
1, 11590, Note_off_c, 0, 72, 62
1, 11600, Note_on_c, 0, 56, 82
1, 11620, Note_off_c, 0, 51, 59
1, 11679, Note_off_c, 0, 56, 60
1, 11692, Note_on_c, 0, 60, 83
1, 11703, Note_on_c, 0, 68, 89
1, 11704, Note_on_c, 0, 80, 88
1, 11746, Note_off_c, 0, 68, 62
1, 11755, Note_off_c, 0, 80, 62
1, 11804, Note_off_c, 0, 60, 61
1, 11818, Note_on_c, 0, 62, 56
1, 11841, Note_off_c, 0, 62, 62
1, 11891, Poly_aftertouch_c, 0, 61, 0
1, 11958, Control_c, 0, 64, 90
1, 11973, Control_c, 0, 64, 64
1, 11980, Note_on_c, 0, 73, 84
1, 11988, Note_on_c, 0, 64, 59
1, 11988, Control_c, 0, 64, 35
1, 12002, Control_c, 0, 64, 44
1, 12017, Control_c, 0, 64, 60
1, 12032, Control_c, 0, 64, 66
1, 12034, Note_off_c, 0, 73, 65
1, 12046, Control_c, 0, 64, 71
1, 12061, Control_c, 0, 64, 80
1, 12067, Note_on_c, 0, 71, 43
1, 12076, Control_c, 0, 64, 93
1, 12088, Note_on_c, 0, 69, 47
1, 12091, Control_c, 0, 64, 106
1, 12094, Note_off_c, 0, 71, 54
1, 12106, Control_c, 0, 64, 127
1, 12111, Note_off_c, 0, 69, 58
1, 12117, Note_off_c, 0, 64, 62
1, 12142, Note_on_c, 0, 56, 78
1, 12167, Note_on_c, 0, 79, 88
1, 12172, Note_on_c, 0, 67, 84
1, 12199, Note_off_c, 0, 56, 41
1, 12211, Poly_aftertouch_c, 0, 58, 127
1, 12215, Note_off_c, 0, 67, 63
1, 12218, Note_on_c, 0, 73, 78
1, 12221, Note_off_c, 0, 79, 63
1, 12225, Note_on_c, 0, 76, 68
1, 12237, Poly_aftertouch_c, 0, 58, 0
1, 12291, Control_c, 0, 64, 105
1, 12294, Note_on_c, 0, 80, 89
1, 12299, Note_off_c, 0, 76, 63
1, 12302, Note_on_c, 0, 68, 89
1, 12306, Control_c, 0, 64, 80
1, 12320, Note_off_c, 0, 73, 63
1, 12320, Control_c, 0, 64, 61
1, 12329, Note_off_c, 0, 68, 60
1, 12335, Control_c, 0, 64, 48
1, 12344, Note_off_c, 0, 80, 66
1, 12350, Control_c, 0, 64, 63
1, 12359, Note_on_c, 0, 72, 90
1, 12365, Control_c, 0, 64, 74
1, 12367, Note_on_c, 0, 63, 80
1, 12380, Control_c, 0, 64, 89
1, 12395, Control_c, 0, 64, 121
1, 12409, Control_c, 0, 64, 127
1, 12413, Note_off_c, 0, 72, 62
1, 12415, Note_on_c, 0, 66, 80
1, 12442, Note_off_c, 0, 63, 60
1, 12475, Note_off_c, 0, 66, 61
1, 12481, Note_on_c, 0, 56, 83
1, 12520, Note_on_c, 0, 69, 98
1, 12521, Note_on_c, 0, 81, 93
1, 12545, Note_off_c, 0, 56, 53
1, 12583, Note_on_c, 0, 72, 81
1, 12583, Note_off_c, 0, 69, 63
1, 12588, Note_off_c, 0, 81, 62
1, 12591, Note_on_c, 0, 75, 87
1, 12657, Note_on_c, 0, 80, 100
1, 12660, Note_on_c, 0, 68, 95
1, 12671, Note_off_c, 0, 72, 63
1, 12673, Note_off_c, 0, 75, 59
1, 12677, Control_c, 0, 64, 112
1, 12692, Control_c, 0, 64, 81
1, 12693, Note_off_c, 0, 68, 60
1, 12707, Note_off_c, 0, 80, 68
1, 12707, Control_c, 0, 64, 61
1, 12722, Control_c, 0, 64, 49
1, 12737, Control_c, 0, 64, 63
1, 12751, Control_c, 0, 64, 75
1, 12764, Note_on_c, 0, 73, 86
1, 12766, Control_c, 0, 64, 95
1, 12781, Control_c, 0, 64, 127
1, 12792, Note_on_c, 0, 61, 48
1, 12802, Note_off_c, 0, 73, 60
1, 12816, Note_on_c, 0, 72, 35
1, 12818, Note_off_c, 0, 61, 54
1, 12821, Note_on_c, 0, 68, 80
1, 12844, Note_off_c, 0, 72, 55
1, 12849, Note_on_c, 0, 71, 6
1, 12858, Note_on_c, 0, 63, 41
1, 12878, Note_off_c, 0, 68, 63
1, 12888, Note_on_c, 0, 56, 84
1, 12893, Note_off_c, 0, 71, 40
1, 12912, Note_off_c, 0, 63, 62
1, 12933, Note_off_c, 0, 56, 59
1, 12957, Note_on_c, 0, 79, 92
1, 12958, Note_on_c, 0, 67, 99
1, 12972, Poly_aftertouch_c, 0, 66, 0
1, 13041, Note_on_c, 0, 73, 92
1, 13042, Note_off_c, 0, 67, 52
1, 13047, Note_on_c, 0, 76, 80
1, 13050, Note_off_c, 0, 79, 64
1, 13126, Note_on_c, 0, 68, 95
1, 13126, Note_on_c, 0, 80, 101
1, 13131, Note_off_c, 0, 76, 65
1, 13140, Note_off_c, 0, 73, 64
1, 13142, Note_off_c, 0, 68, 73
1, 13184, Note_off_c, 0, 80, 63
1, 13235, Poly_aftertouch_c, 0, 70, 0
1, 13292, Control_c, 0, 64, 106
1, 13300, Note_on_c, 0, 80, 96
1, 13301, Note_on_c, 0, 92, 98
1, 13307, Control_c, 0, 64, 74
1, 13322, Control_c, 0, 64, 55
1, 13337, Control_c, 0, 64, 40
1, 13351, Control_c, 0, 64, 57
1, 13366, Control_c, 0, 64, 69
1, 13381, Note_on_c, 0, 44, 77
1, 13381, Control_c, 0, 64, 82
1, 13396, Control_c, 0, 64, 116
1, 13402, Note_off_c, 0, 92, 68
1, 13408, Note_off_c, 0, 80, 64
1, 13411, Control_c, 0, 64, 127
1, 13483, Note_on_c, 0, 52, 69
1, 13485, Note_off_c, 0, 44, 62
1, 13490, Note_on_c, 0, 88, 100
1, 13495, Note_on_c, 0, 76, 94
1, 13560, Note_on_c, 0, 56, 75
1, 13568, Note_off_c, 0, 76, 64
1, 13597, Note_off_c, 0, 52, 64
1, 13638, Note_off_c, 0, 56, 62
1, 13651, Note_on_c, 0, 60, 79
1, 13652, Note_off_c, 0, 88, 47
1, 13689, Note_on_c, 0, 81, 67
1, 13691, Note_on_c, 0, 73, 92
1, 13692, Note_on_c, 0, 85, 81
1, 13717, Note_off_c, 0, 81, 62
1, 13722, Note_off_c, 0, 73, 62
1, 13750, Note_off_c, 0, 85, 62
1, 13751, Note_on_c, 0, 61, 77
1, 13794, Note_off_c, 0, 60, 30
1, 13810, Note_off_c, 0, 61, 61
1, 13938, Control_c, 0, 64, 97
1, 13953, Control_c, 0, 64, 72
1, 13967, Control_c, 0, 64, 52
1, 13980, Note_on_c, 0, 64, 73
1, 13982, Note_on_c, 0, 73, 86
1, 13982, Control_c, 0, 64, 49
1, 13997, Control_c, 0, 64, 61
1, 14012, Control_c, 0, 64, 67
1, 14026, Control_c, 0, 64, 76
1, 14028, Note_off_c, 0, 73, 67
1, 14039, Note_on_c, 0, 68, 82
1, 14041, Control_c, 0, 64, 92
1, 14056, Control_c, 0, 64, 127
1, 14060, Note_off_c, 0, 68, 72
1, 14081, Note_on_c, 0, 67, 53
1, 14088, Note_off_c, 0, 64, 50
1, 14103, Note_off_c, 0, 67, 58
1, 14113, Note_on_c, 0, 56, 86
1, 14147, Note_on_c, 0, 79, 83
1, 14154, Note_on_c, 0, 67, 93
1, 14199, Note_off_c, 0, 67, 64
1, 14201, Note_off_c, 0, 79, 64
1, 14207, Note_on_c, 0, 73, 65
1, 14210, Note_on_c, 0, 76, 69
1, 14227, Note_off_c, 0, 56, 39
1, 14235, Note_on_c, 0, 75, 50
1, 14245, Note_on_c, 0, 72, 45
1, 14260, Note_off_c, 0, 75, 36
1, 14268, Note_on_c, 0, 80, 95
1, 14273, Note_off_c, 0, 76, 68
1, 14275, Note_off_c, 0, 72, 55
1, 14279, Note_on_c, 0, 68, 96
1, 14294, Control_c, 0, 64, 97
1, 14309, Control_c, 0, 64, 71
1, 14317, Note_off_c, 0, 73, 49
1, 14319, Note_off_c, 0, 68, 64
1, 14323, Control_c, 0, 64, 50
1, 14332, Note_off_c, 0, 80, 64
1, 14338, Control_c, 0, 64, 49
1, 14342, Note_on_c, 0, 71, 86
1, 14344, Note_on_c, 0, 63, 89
1, 14353, Control_c, 0, 64, 65
1, 14368, Control_c, 0, 64, 75
1, 14383, Control_c, 0, 64, 92
1, 14397, Control_c, 0, 64, 127
1, 14399, Note_on_c, 0, 66, 85
1, 14412, Note_off_c, 0, 71, 61
1, 14466, Note_off_c, 0, 66, 64
1, 14466, Note_off_c, 0, 63, 61
1, 14472, Note_on_c, 0, 56, 77
1, 14495, Note_off_c, 0, 56, 68
1, 14508, Note_on_c, 0, 69, 93
1, 14508, Note_on_c, 0, 81, 94
1, 14578, Note_off_c, 0, 81, 64
1, 14582, Note_on_c, 0, 75, 87
1, 14582, Note_off_c, 0, 69, 63
1, 14591, Note_on_c, 0, 72, 66
1, 14625, Note_on_c, 0, 73, 9
1, 14642, Note_off_c, 0, 75, 59
1, 14654, Note_on_c, 0, 68, 103
1, 14654, Note_off_c, 0, 72, 58
1, 14657, Note_on_c, 0, 80, 94
1, 14678, Note_off_c, 0, 73, 26
1, 14680, Note_off_c, 0, 68, 61
1, 14704, Note_off_c, 0, 80, 67
1, 14728, Note_on_c, 0, 47, 83
1, 14752, Note_on_c, 0, 53, 75
1, 14774, Control_c, 0, 64, 94
1, 14789, Control_c, 0, 64, 72
1, 14790, Note_off_c, 0, 47, 63
1, 14800, Note_on_c, 0, 56, 77
1, 14804, Control_c, 0, 64, 45
1, 14819, Control_c, 0, 64, 0
1, 14834, Control_c, 0, 64, 33
1, 14848, Control_c, 0, 64, 64
1, 14857, Note_on_c, 0, 92, 109
1, 14860, Note_on_c, 0, 80, 98
1, 14862, Note_on_c, 0, 62, 99
1, 14863, Note_on_c, 0, 86, 89
1, 14863, Control_c, 0, 64, 81
1, 14878, Control_c, 0, 64, 127
1, 14884, Note_off_c, 0, 53, 66
1, 14885, Note_off_c, 0, 86, 65
1, 14889, Note_off_c, 0, 62, 62
1, 14898, Note_off_c, 0, 56, 64
1, 14901, Note_off_c, 0, 80, 62
1, 14902, Note_off_c, 0, 92, 67
1, 15220, Control_c, 0, 64, 92
1, 15235, Control_c, 0, 64, 69
1, 15250, Control_c, 0, 64, 32
1, 15267, Note_on_c, 0, 76, 77
1, 15271, Control_c, 0, 64, 0
1, 15286, Control_c, 0, 64, 41
1, 15289, Note_on_c, 0, 68, 42
1, 15290, Note_on_c, 0, 67, 57
1, 15301, Control_c, 0, 64, 65
1, 15311, Note_off_c, 0, 67, 60
1, 15316, Control_c, 0, 64, 77
1, 15319, Note_off_c, 0, 68, 54
1, 15331, Control_c, 0, 64, 89
1, 15337, Note_off_c, 0, 76, 66
1, 15346, Control_c, 0, 64, 105
1, 15348, Note_on_c, 0, 71, 71
1, 15349, Note_on_c, 0, 74, 64
1, 15349, Note_on_c, 0, 79, 70
1, 15361, Control_c, 0, 64, 127
1, 15370, Note_off_c, 0, 79, 62
1, 15374, Note_off_c, 0, 71, 63
1, 15375, Note_off_c, 0, 74, 68
1, 15408, Note_on_c, 0, 68, 75
1, 15417, Note_on_c, 0, 77, 76
1, 15456, Note_off_c, 0, 77, 54
1, 15466, Note_on_c, 0, 71, 81
1, 15467, Note_off_c, 0, 68, 63
1, 15468, Note_on_c, 0, 76, 83
1, 15474, Note_on_c, 0, 67, 81
1, 15502, Note_off_c, 0, 67, 60
1, 15522, Note_off_c, 0, 71, 60
1, 15534, Note_off_c, 0, 76, 64
1, 15548, Note_on_c, 0, 77, 85
1, 15549, Note_on_c, 0, 68, 85
1, 15588, Note_off_c, 0, 77, 59
1, 15595, Note_off_c, 0, 68, 65
1, 15601, Note_on_c, 0, 71, 84
1, 15603, Note_on_c, 0, 76, 86
1, 15605, Note_on_c, 0, 67, 82
1, 15624, Note_off_c, 0, 67, 68
1, 15648, Note_off_c, 0, 71, 58
1, 15659, Note_off_c, 0, 76, 66
1, 15676, Note_on_c, 0, 68, 87
1, 15677, Note_on_c, 0, 77, 84
1, 15705, Note_off_c, 0, 77, 58
1, 15718, Note_off_c, 0, 68, 63
1, 15739, Note_on_c, 0, 79, 87
1, 15743, Note_on_c, 0, 71, 82
1, 15749, Note_on_c, 0, 74, 65
1, 15778, Note_off_c, 0, 74, 66
1, 15784, Note_off_c, 0, 71, 51
1, 15787, Note_off_c, 0, 79, 62
1, 15806, Note_on_c, 0, 68, 97
1, 15811, Note_on_c, 0, 77, 77
1, 15832, Note_off_c, 0, 77, 67
1, 15854, Note_off_c, 0, 68, 64
1, 15857, Note_on_c, 0, 71, 94
1, 15859, Note_on_c, 0, 74, 84
1, 15859, Note_on_c, 0, 80, 100
1, 15875, Note_off_c, 0, 74, 76
1, 15893, Note_off_c, 0, 71, 60
1, 15894, Note_off_c, 0, 80, 66
1, 16080, Control_c, 0, 64, 108
1, 16094, Control_c, 0, 64, 72
1, 16099, Note_on_c, 0, 53, 84
1, 16109, Note_on_c, 0, 47, 95
1, 16109, Control_c, 0, 64, 25
1, 16114, Note_on_c, 0, 44, 80
1, 16115, Note_on_c, 0, 35, 79
1, 16121, Note_on_c, 0, 41, 76
1, 16124, Control_c, 0, 64, 0
1, 16139, Control_c, 0, 64, 21
1, 16154, Control_c, 0, 64, 55
1, 16163, Note_on_c, 0, 55, 77
1, 16168, Control_c, 0, 64, 67
1, 16171, Note_off_c, 0, 53, 63
1, 16183, Control_c, 0, 64, 77
1, 16198, Control_c, 0, 64, 92
1, 16213, Control_c, 0, 64, 127
1, 16222, Note_off_c, 0, 55, 58
1, 16246, Note_on_c, 0, 53, 80
1, 16252, Note_off_c, 0, 35, 48
1, 16265, Note_off_c, 0, 41, 56
1, 16266, Note_off_c, 0, 47, 59
1, 16272, Note_off_c, 0, 44, 57
1, 16290, Note_off_c, 0, 53, 64
1, 16320, Note_on_c, 0, 65, 89
1, 16334, Note_on_c, 0, 47, 94
1, 16338, Note_on_c, 0, 44, 73
1, 16340, Note_on_c, 0, 35, 73
1, 16346, Note_on_c, 0, 41, 68
1, 16397, Note_on_c, 0, 67, 81
1, 16400, Note_off_c, 0, 65, 66
1, 16418, Note_off_c, 0, 67, 69
1, 16428, Note_off_c, 0, 35, 58
1, 16459, Note_off_c, 0, 44, 55
1, 16468, Note_on_c, 0, 65, 92
1, 16468, Note_off_c, 0, 47, 51
1, 16478, Note_off_c, 0, 41, 48
1, 16519, Note_off_c, 0, 65, 61
1, 16542, Note_on_c, 0, 77, 92
1, 16562, Note_on_c, 0, 47, 101
1, 16565, Note_on_c, 0, 44, 85
1, 16566, Note_on_c, 0, 35, 76
1, 16571, Note_on_c, 0, 41, 74
1, 16621, Note_on_c, 0, 79, 92
1, 16627, Note_off_c, 0, 77, 64
1, 16630, Note_off_c, 0, 35, 60
1, 16646, Note_off_c, 0, 41, 58
1, 16647, Note_off_c, 0, 44, 59
1, 16651, Note_off_c, 0, 79, 62
1, 16666, Note_off_c, 0, 47, 57
1, 16704, Note_on_c, 0, 77, 89
1, 16764, Note_off_c, 0, 77, 63
1, 16785, Control_c, 0, 64, 89
1, 16800, Control_c, 0, 64, 65
1, 16815, Control_c, 0, 64, 0
1, 16835, Note_on_c, 0, 48, 103
1, 16835, Note_on_c, 0, 92, 94
1, 16837, Note_on_c, 0, 44, 83
1, 16844, Control_c, 0, 64, 57
1, 16845, Note_on_c, 0, 36, 62
1, 16850, Note_on_c, 0, 93, 84
1, 16859, Control_c, 0, 64, 72
1, 16862, Note_off_c, 0, 44, 67
1, 16864, Note_off_c, 0, 93, 67
1, 16865, Note_off_c, 0, 48, 65
1, 16871, Note_off_c, 0, 36, 53
1, 16873, Note_off_c, 0, 92, 69
1, 16874, Control_c, 0, 64, 87
1, 16889, Control_c, 0, 64, 110
1, 16904, Control_c, 0, 64, 127
1, 17121, Note_on_c, 0, 77, 76
1, 17125, Control_c, 0, 64, 93
1, 17129, Note_on_c, 0, 68, 68
1, 17138, Note_on_c, 0, 72, 61
1, 17140, Control_c, 0, 64, 67
1, 17155, Control_c, 0, 64, 13
1, 17170, Control_c, 0, 64, 0
1, 17185, Control_c, 0, 64, 43
1, 17196, Note_off_c, 0, 77, 59
1, 17197, Note_off_c, 0, 68, 62
1, 17200, Control_c, 0, 64, 64
1, 17207, Note_on_c, 0, 79, 74
1, 17208, Note_off_c, 0, 72, 62
1, 17210, Note_on_c, 0, 73, 75
1, 17211, Note_on_c, 0, 70, 78
1, 17215, Control_c, 0, 64, 77
1, 17230, Control_c, 0, 64, 93
1, 17244, Control_c, 0, 64, 127
1, 17259, Note_off_c, 0, 73, 61
1, 17259, Note_off_c, 0, 79, 58
1, 17268, Note_off_c, 0, 70, 64
1, 17271, Note_on_c, 0, 77, 70
1, 17273, Note_on_c, 0, 68, 72
1, 17274, Note_on_c, 0, 72, 51
1, 17323, Note_off_c, 0, 72, 57
1, 17323, Note_off_c, 0, 77, 59
1, 17325, Note_off_c, 0, 68, 62
1, 17328, Note_on_c, 0, 70, 75
1, 17328, Note_on_c, 0, 76, 80
1, 17329, Note_on_c, 0, 67, 87
1, 17385, Note_off_c, 0, 67, 61
1, 17394, Note_off_c, 0, 76, 66
1, 17399, Note_off_c, 0, 70, 61
1, 17403, Note_on_c, 0, 68, 85
1, 17408, Note_on_c, 0, 77, 78
1, 17429, Note_on_c, 0, 72, 56
1, 17453, Note_off_c, 0, 72, 57
1, 17455, Note_off_c, 0, 68, 63
1, 17459, Note_off_c, 0, 77, 59
1, 17459, Note_on_c, 0, 76, 82
1, 17464, Note_on_c, 0, 67, 92
1, 17467, Note_on_c, 0, 70, 67
1, 17523, Note_off_c, 0, 67, 64
1, 17534, Note_on_c, 0, 68, 92
1, 17536, Note_off_c, 0, 70, 63
1, 17540, Note_on_c, 0, 77, 81
1, 17544, Note_on_c, 0, 72, 71
1, 17546, Note_off_c, 0, 76, 66
1, 17581, Note_off_c, 0, 68, 62
1, 17584, Note_off_c, 0, 77, 57
1, 17602, Note_off_c, 0, 72, 59
1, 17607, Note_on_c, 0, 79, 83
1, 17611, Note_on_c, 0, 70, 68
1, 17611, Note_on_c, 0, 73, 75
1, 17632, Note_off_c, 0, 73, 71
1, 17634, Note_off_c, 0, 70, 69
1, 17660, Note_off_c, 0, 79, 64
1, 17674, Note_on_c, 0, 68, 91
1, 17679, Note_on_c, 0, 77, 74
1, 17693, Note_on_c, 0, 72, 61
1, 17701, Note_off_c, 0, 77, 65
1, 17713, Note_on_c, 0, 73, 25
1, 17715, Note_off_c, 0, 72, 67
1, 17722, Note_off_c, 0, 68, 65
1, 17732, Note_on_c, 0, 72, 81
1, 17736, Note_on_c, 0, 80, 96
1, 17742, Note_off_c, 0, 73, 57
1, 17745, Note_on_c, 0, 77, 72
1, 17754, Note_on_c, 0, 76, 69
1, 17763, Note_off_c, 0, 77, 68
1, 17769, Note_off_c, 0, 76, 70
1, 17769, Note_off_c, 0, 72, 65
1, 17775, Note_off_c, 0, 80, 64
1, 17841, Poly_aftertouch_c, 0, 75, 0
1, 17985, Note_on_c, 0, 48, 98
1, 17993, Control_c, 0, 64, 97
1, 17996, Note_on_c, 0, 36, 83
1, 17996, Note_on_c, 0, 44, 77
1, 17999, Note_on_c, 0, 53, 88
1, 18008, Note_on_c, 0, 41, 68
1, 18008, Control_c, 0, 64, 68
1, 18023, Control_c, 0, 64, 11
1, 18038, Control_c, 0, 64, 0
1, 18053, Control_c, 0, 64, 52
1, 18067, Control_c, 0, 64, 69
1, 18070, Note_on_c, 0, 55, 80
1, 18082, Control_c, 0, 64, 82
1, 18085, Note_off_c, 0, 53, 60
1, 18097, Control_c, 0, 64, 107
1, 18112, Control_c, 0, 64, 127
1, 18136, Note_off_c, 0, 55, 60
1, 18137, Note_off_c, 0, 36, 58
1, 18148, Note_on_c, 0, 53, 81
1, 18151, Note_off_c, 0, 48, 61
1, 18163, Note_off_c, 0, 44, 57
1, 18178, Note_off_c, 0, 41, 56
1, 18194, Note_off_c, 0, 53, 64
1, 18215, Note_on_c, 0, 48, 98
1, 18220, Note_on_c, 0, 44, 71
1, 18222, Note_on_c, 0, 65, 89
1, 18227, Note_on_c, 0, 41, 49
1, 18228, Note_on_c, 0, 36, 78
1, 18306, Note_on_c, 0, 67, 87
1, 18321, Note_off_c, 0, 65, 64
1, 18344, Note_off_c, 0, 67, 63
1, 18383, Note_off_c, 0, 36, 57
1, 18389, Note_on_c, 0, 65, 88
1, 18401, Note_off_c, 0, 48, 60
1, 18407, Note_off_c, 0, 44, 55
1, 18431, Note_on_c, 0, 67, 35
1, 18438, Note_off_c, 0, 41, 36
1, 18451, Note_off_c, 0, 65, 64
1, 18459, Note_off_c, 0, 67, 57
1, 18469, Note_on_c, 0, 48, 95
1, 18470, Note_on_c, 0, 77, 95
1, 18476, Note_on_c, 0, 44, 77
1, 18477, Note_on_c, 0, 36, 74
1, 18477, Note_on_c, 0, 41, 58
1, 18556, Note_off_c, 0, 36, 57
1, 18559, Note_on_c, 0, 79, 92
1, 18577, Note_off_c, 0, 77, 61
1, 18586, Note_off_c, 0, 41, 60
1, 18599, Note_off_c, 0, 79, 66
1, 18603, Note_off_c, 0, 48, 56
1, 18614, Note_off_c, 0, 44, 61
1, 18654, Note_on_c, 0, 77, 93
1, 18714, Note_off_c, 0, 77, 60
1, 18757, Control_c, 0, 64, 90
1, 18772, Control_c, 0, 64, 67
1, 18787, Control_c, 0, 64, 32
1, 18802, Control_c, 0, 64, 0
1, 18810, Note_on_c, 0, 49, 101
1, 18816, Control_c, 0, 64, 54
1, 18817, Note_on_c, 0, 37, 77
1, 18818, Note_on_c, 0, 92, 102
1, 18819, Note_on_c, 0, 47, 79
1, 18830, Note_on_c, 0, 41, 57
1, 18831, Control_c, 0, 64, 71
1, 18844, Note_off_c, 0, 37, 65
1, 18846, Control_c, 0, 64, 83
1, 18851, Note_on_c, 0, 90, 48
1, 18857, Note_off_c, 0, 41, 64
1, 18861, Control_c, 0, 64, 96
1, 18863, Note_off_c, 0, 49, 62
1, 18867, Note_off_c, 0, 92, 68
1, 18872, Note_off_c, 0, 47, 63
1, 18875, Control_c, 0, 64, 112
1, 18877, Note_off_c, 0, 90, 37
1, 18890, Control_c, 0, 64, 127
1, 19032, Control_c, 0, 67, 12
1, 19046, Control_c, 0, 67, 17
1, 19061, Control_c, 0, 67, 23
1, 19076, Control_c, 0, 67, 30
1, 19091, Control_c, 0, 67, 41
1, 19106, Control_c, 0, 67, 53
1, 19120, Control_c, 0, 67, 64
1, 19135, Control_c, 0, 67, 72
1, 19150, Control_c, 0, 67, 79
1, 19165, Control_c, 0, 67, 85
1, 19180, Control_c, 0, 67, 90
1, 19194, Control_c, 0, 67, 94
1, 19209, Control_c, 0, 67, 97
1, 19224, Control_c, 0, 67, 99
1, 19239, Control_c, 0, 67, 100
1, 19254, Control_c, 0, 64, 115
1, 19254, Control_c, 0, 67, 101
1, 19269, Control_c, 0, 64, 109
1, 19269, Control_c, 0, 67, 104
1, 19283, Control_c, 0, 64, 104
1, 19283, Control_c, 0, 67, 108
1, 19298, Control_c, 0, 64, 97
1, 19298, Control_c, 0, 67, 113
1, 19307, Note_on_c, 0, 61, 50
1, 19313, Control_c, 0, 64, 86
1, 19313, Control_c, 0, 67, 115
1, 19328, Control_c, 0, 64, 78
1, 19328, Control_c, 0, 67, 117
1, 19332, Note_on_c, 0, 68, 41
1, 19343, Control_c, 0, 64, 71
1, 19343, Control_c, 0, 67, 117
1, 19357, Control_c, 0, 64, 65
1, 19357, Control_c, 0, 67, 118
1, 19367, Note_on_c, 0, 71, 34
1, 19368, Note_on_c, 0, 77, 61
1, 19372, Control_c, 0, 64, 59
1, 19372, Control_c, 0, 67, 118
1, 19387, Control_c, 0, 64, 48
1, 19387, Control_c, 0, 67, 120
1, 19402, Control_c, 0, 64, 29
1, 19402, Control_c, 0, 67, 123
1, 19417, Control_c, 0, 64, 0
1, 19417, Control_c, 0, 67, 126
1, 19431, Control_c, 0, 67, 127
1, 19538, Note_on_c, 0, 90, 77
1, 19554, Note_off_c, 0, 61, 53
1, 19564, Control_c, 0, 64, 42
1, 19579, Control_c, 0, 64, 57
1, 19594, Control_c, 0, 64, 64
1, 19609, Control_c, 0, 64, 68
1, 19610, Note_on_c, 0, 73, 57
1, 19620, Note_off_c, 0, 68, 55
1, 19625, Control_c, 0, 64, 72
1, 19627, Note_off_c, 0, 71, 42
1, 19639, Control_c, 0, 64, 76
1, 19648, Note_off_c, 0, 77, 54
1, 19654, Control_c, 0, 64, 82
1, 19669, Control_c, 0, 64, 88
1, 19676, Note_on_c, 0, 89, 81
1, 19684, Control_c, 0, 64, 95
1, 19699, Control_c, 0, 64, 103
1, 19713, Control_c, 0, 64, 111
1, 19716, Note_off_c, 0, 90, 58
1, 19720, Note_on_c, 0, 70, 61
1, 19728, Control_c, 0, 64, 118
1, 19733, Note_on_c, 0, 66, 55
1, 19737, Note_off_c, 0, 89, 64
1, 19743, Control_c, 0, 64, 127
1, 19745, Note_off_c, 0, 73, 38
1, 19826, Control_c, 0, 64, 112
1, 19841, Control_c, 0, 64, 96
1, 19842, Note_on_c, 0, 87, 83
1, 19855, Control_c, 0, 64, 80
1, 19870, Control_c, 0, 64, 67
1, 19885, Control_c, 0, 64, 59
1, 19900, Control_c, 0, 64, 62
1, 19915, Control_c, 0, 64, 66
1, 19930, Control_c, 0, 64, 72
1, 19939, Note_on_c, 0, 77, 64
1, 19944, Control_c, 0, 64, 78
1, 19959, Control_c, 0, 64, 84
1, 19964, Note_on_c, 0, 71, 62
1, 19965, Note_off_c, 0, 66, 36
1, 19974, Control_c, 0, 64, 90
1, 19988, Control_c, 0, 64, 96
1, 20003, Control_c, 0, 64, 102
1, 20018, Control_c, 0, 64, 108
1, 20025, Note_on_c, 0, 75, 81
1, 20033, Control_c, 0, 64, 117
1, 20042, Note_off_c, 0, 70, 31
1, 20048, Control_c, 0, 64, 127
1, 20053, Note_off_c, 0, 77, 60
1, 20061, Note_off_c, 0, 75, 65
1, 20067, Note_off_c, 0, 71, 56
1, 20072, Note_on_c, 0, 65, 57
1, 20077, Control_c, 0, 64, 121
1, 20079, Note_on_c, 0, 68, 58
1, 20092, Control_c, 0, 64, 104
1, 20100, Note_off_c, 0, 87, 63
1, 20107, Control_c, 0, 64, 88
1, 20116, Note_on_c, 0, 73, 84
1, 20122, Control_c, 0, 64, 76
1, 20136, Control_c, 0, 64, 70
1, 20151, Control_c, 0, 64, 71
1, 20166, Control_c, 0, 64, 78
1, 20181, Control_c, 0, 64, 86
1, 20182, Note_on_c, 0, 87, 80
1, 20196, Control_c, 0, 64, 94
1, 20208, Note_off_c, 0, 65, 64
1, 20211, Note_off_c, 0, 68, 62
1, 20211, Control_c, 0, 64, 104
1, 20221, Note_off_c, 0, 73, 57
1, 20225, Control_c, 0, 64, 120
1, 20230, Note_on_c, 0, 70, 62
1, 20240, Control_c, 0, 64, 127
1, 20252, Note_on_c, 0, 85, 69
1, 20260, Note_off_c, 0, 87, 65
1, 20274, Note_off_c, 0, 85, 70
1, 20305, Note_off_c, 0, 70, 63
1, 20311, Note_on_c, 0, 66, 61
1, 20315, Note_on_c, 0, 63, 60
1, 20315, Control_c, 0, 64, 105
1, 20329, Control_c, 0, 64, 85
1, 20333, Note_on_c, 0, 83, 84
1, 20344, Control_c, 0, 64, 72
1, 20359, Control_c, 0, 64, 64
1, 20388, Control_c, 0, 64, 66
1, 20403, Control_c, 0, 64, 70
1, 20410, Note_on_c, 0, 73, 82
1, 20415, Note_off_c, 0, 63, 60
1, 20418, Control_c, 0, 64, 77
1, 20433, Control_c, 0, 64, 85
1, 20442, Note_on_c, 0, 68, 65
1, 20448, Control_c, 0, 64, 93
1, 20452, Note_off_c, 0, 66, 56
1, 20462, Control_c, 0, 64, 99
1, 20467, Note_on_c, 0, 71, 66
1, 20477, Control_c, 0, 64, 99
1, 20485, Note_off_c, 0, 71, 63
1, 20491, Note_off_c, 0, 73, 63
1, 20492, Control_c, 0, 64, 98
1, 20515, Control_c, 0, 64, 91
1, 20527, Note_off_c, 0, 68, 58
1, 20529, Control_c, 0, 64, 79
1, 20535, Note_on_c, 0, 65, 56
1, 20538, Note_on_c, 0, 61, 57
1, 20544, Control_c, 0, 64, 67
1, 20559, Control_c, 0, 64, 57
1, 20565, Note_on_c, 0, 70, 88
1, 20568, Note_off_c, 0, 83, 53
1, 20574, Control_c, 0, 64, 60
1, 20589, Control_c, 0, 64, 65
1, 20604, Control_c, 0, 64, 71
1, 20619, Control_c, 0, 64, 79
1, 20629, Note_off_c, 0, 65, 64
1, 20634, Control_c, 0, 64, 85
1, 20643, Note_off_c, 0, 61, 61
1, 20649, Control_c, 0, 64, 90
1, 20656, Note_on_c, 0, 83, 76
1, 20662, Note_on_c, 0, 66, 60
1, 20664, Control_c, 0, 64, 94
1, 20678, Control_c, 0, 64, 97
1, 20687, Note_off_c, 0, 70, 53
1, 20693, Control_c, 0, 64, 98
1, 20726, Note_on_c, 0, 82, 81
1, 20743, Note_off_c, 0, 83, 57
1, 20759, Note_off_c, 0, 66, 58
1, 20777, Note_off_c, 0, 82, 62
1, 20786, Note_on_c, 0, 59, 50
1, 20789, Note_on_c, 0, 63, 52
1, 20797, Control_c, 0, 64, 97
1, 20811, Control_c, 0, 64, 95
1, 20826, Control_c, 0, 64, 92
1, 20841, Control_c, 0, 64, 86
1, 20856, Control_c, 0, 64, 77
1, 20866, Note_on_c, 0, 80, 70
1, 20871, Control_c, 0, 64, 66
1, 20885, Control_c, 0, 64, 52
1, 20900, Control_c, 0, 64, 33
1, 20915, Control_c, 0, 64, 39
1, 20930, Control_c, 0, 64, 54
1, 20945, Control_c, 0, 64, 61
1, 20956, Note_on_c, 0, 70, 60
1, 20959, Control_c, 0, 64, 64
1, 20974, Control_c, 0, 64, 66
1, 20989, Control_c, 0, 64, 69
1, 20997, Note_off_c, 0, 59, 44
1, 21003, Control_c, 0, 64, 73
1, 21018, Control_c, 0, 64, 79
1, 21029, Note_on_c, 0, 68, 76
1, 21033, Control_c, 0, 64, 87
1, 21034, Note_off_c, 0, 63, 55
1, 21043, Note_off_c, 0, 70, 63
1, 21045, Note_on_c, 0, 65, 52
1, 21048, Control_c, 0, 64, 92
1, 21063, Control_c, 0, 64, 96
1, 21067, Note_off_c, 0, 68, 60
1, 21078, Control_c, 0, 64, 98
1, 21100, Note_off_c, 0, 65, 58
1, 21108, Control_c, 0, 64, 96
1, 21120, Note_on_c, 0, 58, 53
1, 21121, Control_c, 0, 64, 88
1, 21133, Note_on_c, 0, 66, 77
1, 21136, Control_c, 0, 64, 78
1, 21148, Note_on_c, 0, 61, 41
1, 21150, Control_c, 0, 64, 67
1, 21156, Note_off_c, 0, 80, 35
1, 21165, Control_c, 0, 64, 59
1, 21195, Control_c, 0, 64, 63
1, 21209, Control_c, 0, 64, 69
1, 21218, Note_on_c, 0, 80, 73
1, 21219, Note_off_c, 0, 66, 59
1, 21224, Control_c, 0, 64, 75
1, 21233, Note_off_c, 0, 58, 62
1, 21239, Control_c, 0, 64, 82
1, 21262, Control_c, 0, 64, 87
1, 21269, Note_on_c, 0, 63, 55
1, 21277, Control_c, 0, 64, 92
1, 21291, Control_c, 0, 64, 98
1, 21298, Note_off_c, 0, 61, 35
1, 21303, Note_on_c, 0, 78, 76
1, 21306, Control_c, 0, 64, 102
1, 21318, Note_off_c, 0, 80, 61
1, 21334, Note_off_c, 0, 78, 54
1, 21335, Control_c, 0, 64, 97
1, 21350, Control_c, 0, 64, 86
1, 21365, Control_c, 0, 64, 72
1, 21381, Control_c, 0, 64, 60
1, 21388, Note_on_c, 0, 59, 49
1, 21388, Note_on_c, 0, 77, 78
1, 21396, Control_c, 0, 64, 49
1, 21399, Note_on_c, 0, 56, 53
1, 21411, Control_c, 0, 64, 56
1, 21424, Note_off_c, 0, 63, 29
1, 21426, Control_c, 0, 64, 62
1, 21440, Control_c, 0, 64, 65
1, 21453, Note_off_c, 0, 59, 62
1, 21455, Control_c, 0, 64, 68
1, 21465, Note_off_c, 0, 56, 63
1, 21470, Control_c, 0, 64, 70
1, 21473, Note_on_c, 0, 66, 80
1, 21485, Control_c, 0, 64, 74
1, 21500, Control_c, 0, 64, 79
1, 21514, Control_c, 0, 64, 86
1, 21529, Control_c, 0, 64, 90
1, 21531, Note_off_c, 0, 66, 65
1, 21544, Control_c, 0, 64, 91
1, 21552, Note_on_c, 0, 65, 74
1, 21584, Note_off_c, 0, 65, 64
1, 21588, Control_c, 0, 64, 90
1, 21603, Control_c, 0, 64, 85
1, 21618, Control_c, 0, 64, 75
1, 21632, Control_c, 0, 64, 64
1, 21636, Note_off_c, 0, 77, 42
1, 21645, Note_on_c, 0, 55, 43
1, 21647, Control_c, 0, 64, 42
1, 21659, Note_on_c, 0, 49, 41
1, 21661, Note_on_c, 0, 58, 44
1, 21662, Note_on_c, 0, 64, 71
1, 21662, Control_c, 0, 64, 0
1, 21692, Control_c, 0, 64, 38
1, 21707, Control_c, 0, 64, 52
1, 21722, Control_c, 0, 64, 59
1, 21737, Control_c, 0, 64, 61
1, 21751, Note_off_c, 0, 64, 56
1, 21751, Control_c, 0, 64, 63
1, 21752, Note_on_c, 0, 75, 63
1, 21766, Control_c, 0, 64, 66
1, 21781, Control_c, 0, 64, 69
1, 21782, Note_off_c, 0, 55, 58
1, 21787, Note_off_c, 0, 58, 55
1, 21796, Control_c, 0, 64, 74
1, 21811, Control_c, 0, 64, 78
1, 21826, Control_c, 0, 64, 81
1, 21829, Note_on_c, 0, 76, 59
1, 21840, Control_c, 0, 64, 83
1, 21855, Control_c, 0, 64, 83
1, 21864, Note_off_c, 0, 75, 60
1, 21870, Control_c, 0, 64, 83
1, 21885, Control_c, 0, 64, 81
1, 21899, Control_c, 0, 64, 75
1, 21902, Note_off_c, 0, 76, 62
1, 21914, Control_c, 0, 64, 66
1, 21919, Note_on_c, 0, 65, 63
1, 21929, Control_c, 0, 64, 55
1, 21944, Control_c, 0, 64, 52
1, 21949, Note_on_c, 0, 56, 40
1, 21949, Note_off_c, 0, 49, 55
1, 21955, Note_on_c, 0, 59, 33
1, 21958, Control_c, 0, 64, 58
1, 21973, Control_c, 0, 64, 62
1, 21984, Note_off_c, 0, 59, 56
1, 21988, Control_c, 0, 64, 65
1, 21993, Note_off_c, 0, 65, 54
1, 21998, Note_off_c, 0, 56, 58
1, 22011, Control_c, 0, 64, 67
1, 22026, Control_c, 0, 64, 71
1, 22040, Control_c, 0, 64, 75
1, 22042, Note_on_c, 0, 79, 43
1, 22055, Control_c, 0, 64, 80
1, 22070, Control_c, 0, 64, 84
1, 22085, Control_c, 0, 64, 87
1, 22097, Note_off_c, 0, 79, 62
1, 22100, Control_c, 0, 64, 89
1, 22103, Note_on_c, 0, 77, 58
1, 22114, Control_c, 0, 64, 90
1, 22127, Note_off_c, 0, 77, 58
1, 22129, Control_c, 0, 64, 91
1, 22144, Control_c, 0, 64, 91
1, 22173, Control_c, 0, 64, 91
1, 22189, Control_c, 0, 64, 88
1, 22193, Note_on_c, 0, 37, 57
1, 22204, Control_c, 0, 64, 82
1, 22219, Control_c, 0, 64, 73
1, 22220, Note_off_c, 0, 37, 58
1, 22234, Control_c, 0, 64, 64
1, 22249, Control_c, 0, 64, 56
1, 22263, Control_c, 0, 64, 58
1, 22278, Control_c, 0, 64, 63
1, 22286, Note_on_c, 0, 59, 54
1, 22293, Control_c, 0, 64, 67
1, 22301, Note_on_c, 0, 53, 52
1, 22308, Control_c, 0, 64, 71
1, 22323, Control_c, 0, 64, 74
1, 22337, Control_c, 0, 64, 77
1, 22342, Note_off_c, 0, 53, 64
1, 22352, Control_c, 0, 64, 78
1, 22367, Control_c, 0, 64, 80
1, 22381, Control_c, 0, 64, 80
1, 22410, Note_on_c, 0, 70, 51
1, 22530, Control_c, 0, 64, 80
1, 22576, Note_on_c, 0, 71, 48
1, 22613, Note_off_c, 0, 59, 41
1, 22613, Note_off_c, 0, 70, 54
1, 22634, Note_off_c, 0, 71, 38
1, 22722, Control_c, 0, 64, 79
1, 22789, Control_c, 0, 64, 79
1, 22804, Control_c, 0, 64, 78
1, 22849, Control_c, 0, 64, 77
1, 22863, Control_c, 0, 64, 76
1, 22878, Control_c, 0, 64, 74
1, 22893, Control_c, 0, 64, 71
1, 22907, Control_c, 0, 64, 67
1, 22911, Note_on_c, 0, 72, 44
1, 22916, Note_on_c, 0, 52, 34
1, 22922, Control_c, 0, 64, 63
1, 22926, Note_on_c, 0, 60, 36
1, 22937, Control_c, 0, 64, 58
1, 22940, Note_on_c, 0, 36, 31
1, 22952, Control_c, 0, 64, 51
1, 22967, Control_c, 0, 64, 40
1, 22983, Control_c, 0, 64, 18
1, 22998, Control_c, 0, 64, 0
1, 23131, Control_c, 0, 64, 46
1, 23146, Control_c, 0, 64, 59
1, 23160, Control_c, 0, 64, 64
1, 23165, Note_off_c, 0, 36, 54
1, 23175, Control_c, 0, 64, 68
1, 23190, Control_c, 0, 64, 72
1, 23192, Note_off_c, 0, 52, 63
1, 23204, Control_c, 0, 64, 77
1, 23219, Control_c, 0, 64, 86
1, 23234, Control_c, 0, 64, 94
1, 23249, Control_c, 0, 64, 102
1, 23264, Control_c, 0, 64, 112
1, 23278, Control_c, 0, 64, 127
1, 23343, Note_off_c, 0, 60, 41
1, 23421, Note_off_c, 0, 72, 27
1, 23553, Control_c, 0, 64, 122
1, 23568, Control_c, 0, 64, 118
1, 23583, Control_c, 0, 64, 115
1, 23598, Control_c, 0, 64, 112
1, 23612, Control_c, 0, 64, 107
1, 23627, Control_c, 0, 64, 103
1, 23642, Control_c, 0, 64, 99
1, 23657, Control_c, 0, 64, 96
1, 23660, Note_on_c, 0, 73, 43
1, 23672, Note_on_c, 0, 68, 42
1, 23672, Control_c, 0, 64, 94
1, 23674, Note_on_c, 0, 65, 36
1, 23686, Control_c, 0, 64, 90
1, 23701, Control_c, 0, 64, 87
1, 23716, Control_c, 0, 64, 83
1, 23729, Note_off_c, 0, 73, 0
1, 23729, Note_on_c, 0, 73, 3
1, 23731, Control_c, 0, 64, 77
1, 23746, Control_c, 0, 64, 70
1, 23761, Control_c, 0, 64, 61
1, 23776, Control_c, 0, 64, 44
1, 23791, Control_c, 0, 64, 17
1, 23806, Control_c, 0, 64, 27
1, 23821, Control_c, 0, 64, 43
1, 23835, Control_c, 0, 64, 54
1, 23840, Note_off_c, 0, 73, 48
1, 23850, Control_c, 0, 64, 61
1, 23856, Note_on_c, 0, 75, 47
1, 23858, Note_off_c, 0, 65, 41
1, 23864, Note_on_c, 0, 70, 40
1, 23865, Control_c, 0, 64, 65
1, 23868, Note_off_c, 0, 68, 44
1, 23871, Note_on_c, 0, 67, 38
1, 23880, Control_c, 0, 64, 70
1, 23895, Note_off_c, 0, 75, 56
1, 23895, Control_c, 0, 64, 78
1, 23910, Control_c, 0, 64, 84
1, 23911, Note_off_c, 0, 70, 44
1, 23923, Note_off_c, 0, 67, 43
1, 23925, Control_c, 0, 64, 85
1, 23940, Control_c, 0, 64, 83
1, 23947, Note_on_c, 0, 73, 52
1, 23955, Control_c, 0, 64, 79
1, 23969, Control_c, 0, 64, 72
1, 23975, Note_on_c, 0, 65, 41
1, 23976, Note_on_c, 0, 68, 40
1, 23984, Control_c, 0, 64, 67
1, 23999, Note_off_c, 0, 73, 43
1, 23999, Control_c, 0, 64, 69
1, 24001, Note_off_c, 0, 65, 57
1, 24005, Note_off_c, 0, 68, 55
1, 24014, Control_c, 0, 64, 73
1, 24028, Control_c, 0, 64, 77
1, 24031, Note_on_c, 0, 67, 59
1, 24044, Note_on_c, 0, 72, 59
1, 24046, Note_on_c, 0, 64, 57
1, 24058, Control_c, 0, 64, 75
1, 24073, Control_c, 0, 64, 73
1, 24081, Note_off_c, 0, 67, 52
1, 24084, Note_off_c, 0, 72, 61
1, 24087, Note_off_c, 0, 64, 61
1, 24088, Control_c, 0, 64, 72
1, 24102, Control_c, 0, 64, 73
1, 24104, Note_on_c, 0, 68, 53
1, 24107, Note_on_c, 0, 65, 51
1, 24113, Note_on_c, 0, 73, 46
1, 24117, Control_c, 0, 64, 74
1, 24138, Note_off_c, 0, 73, 57
1, 24139, Note_off_c, 0, 65, 66
1, 24145, Note_off_c, 0, 68, 63
1, 24146, Control_c, 0, 64, 73
1, 24161, Control_c, 0, 64, 71
1, 24176, Control_c, 0, 64, 73
1, 24186, Note_on_c, 0, 67, 48
1, 24187, Note_on_c, 0, 64, 56
1, 24191, Control_c, 0, 64, 75
1, 24195, Note_on_c, 0, 72, 42
1, 24206, Control_c, 0, 64, 77
1, 24220, Control_c, 0, 64, 77
1, 24225, Note_off_c, 0, 64, 56
1, 24228, Note_off_c, 0, 72, 51
1, 24230, Note_off_c, 0, 67, 55
1, 24235, Control_c, 0, 64, 75
1, 24240, Note_on_c, 0, 70, 63
1, 24252, Note_on_c, 0, 61, 65
1, 24258, Control_c, 0, 64, 71
1, 24262, Note_on_c, 0, 65, 54
1, 24273, Control_c, 0, 64, 69
1, 24288, Control_c, 0, 64, 71
1, 24302, Control_c, 0, 64, 73
1, 24306, Note_off_c, 0, 70, 62
1, 24311, Note_off_c, 0, 61, 60
1, 24316, Note_off_c, 0, 65, 56
1, 24325, Note_on_c, 0, 72, 67
1, 24332, Control_c, 0, 64, 71
1, 24333, Note_on_c, 0, 64, 57
1, 24337, Note_on_c, 0, 67, 58
1, 24347, Control_c, 0, 64, 67
1, 24360, Note_off_c, 0, 72, 60
1, 24361, Note_off_c, 0, 64, 60
1, 24361, Control_c, 0, 64, 66
1, 24362, Note_off_c, 0, 67, 58
1, 24376, Control_c, 0, 64, 68
1, 24391, Control_c, 0, 64, 70
1, 24400, Note_on_c, 0, 61, 65
1, 24406, Control_c, 0, 64, 71
1, 24409, Note_on_c, 0, 70, 60
1, 24426, Note_on_c, 0, 65, 40
1, 24435, Control_c, 0, 64, 72
1, 24445, Note_off_c, 0, 70, 52
1, 24449, Note_off_c, 0, 61, 60
1, 24450, Control_c, 0, 64, 73
1, 24455, Note_off_c, 0, 65, 58
1, 24465, Control_c, 0, 64, 76
1, 24469, Note_on_c, 0, 63, 69
1, 24470, Note_on_c, 0, 60, 65
1, 24473, Note_on_c, 0, 68, 66
1, 24480, Control_c, 0, 64, 77
1, 24495, Control_c, 0, 64, 79
1, 24505, Note_off_c, 0, 60, 61
1, 24509, Note_off_c, 0, 63, 53
1, 24509, Control_c, 0, 64, 80
1, 24518, Note_off_c, 0, 68, 56
1, 24524, Control_c, 0, 64, 81
1, 24527, Note_on_c, 0, 61, 67
1, 24539, Note_on_c, 0, 70, 48
1, 24539, Control_c, 0, 64, 82
1, 24551, Note_on_c, 0, 65, 38
1, 24554, Control_c, 0, 64, 83
1, 24559, Note_off_c, 0, 70, 62
1, 24574, Note_off_c, 0, 61, 58
1, 24581, Note_off_c, 0, 65, 49
1, 24592, Note_on_c, 0, 63, 66
1, 24598, Note_on_c, 0, 60, 62
1, 24599, Control_c, 0, 64, 83
1, 24603, Note_on_c, 0, 68, 56
1, 24614, Control_c, 0, 64, 81
1, 24629, Control_c, 0, 64, 75
1, 24644, Control_c, 0, 64, 67
1, 24655, Note_off_c, 0, 60, 51
1, 24658, Control_c, 0, 64, 52
1, 24664, Note_off_c, 0, 63, 45
1, 24670, Note_on_c, 0, 67, 70
1, 24673, Control_c, 0, 64, 0
1, 24676, Note_on_c, 0, 58, 67
1, 24692, Note_on_c, 0, 61, 54
1, 24713, Note_off_c, 0, 68, 36
1, 24739, Note_off_c, 0, 58, 63
1, 24741, Note_off_c, 0, 61, 51
1, 24747, Control_c, 0, 64, 31
1, 24753, Note_off_c, 0, 67, 53
1, 24762, Control_c, 0, 64, 50
1, 24777, Control_c, 0, 64, 61
1, 24782, Note_on_c, 0, 63, 66
1, 24785, Note_on_c, 0, 60, 65
1, 24789, Note_on_c, 0, 68, 58
1, 24792, Control_c, 0, 64, 64
1, 24807, Control_c, 0, 64, 66
1, 24817, Note_off_c, 0, 68, 66
1, 24822, Control_c, 0, 64, 68
1, 24825, Note_off_c, 0, 60, 57
1, 24827, Note_off_c, 0, 63, 50
1, 24837, Control_c, 0, 64, 71
1, 24851, Control_c, 0, 64, 75
1, 24855, Note_on_c, 0, 58, 64
1, 24865, Control_c, 0, 64, 79
1, 24873, Note_on_c, 0, 61, 44
1, 24880, Control_c, 0, 64, 81
1, 24895, Control_c, 0, 64, 81
1, 24900, Note_off_c, 0, 61, 53
1, 24910, Control_c, 0, 64, 81
1, 24917, Note_off_c, 0, 58, 60
1, 24924, Control_c, 0, 64, 80
1, 24939, Control_c, 0, 64, 79
1, 24954, Control_c, 0, 64, 78
1, 24968, Note_on_c, 0, 58, 29
1, 24968, Control_c, 0, 64, 75
1, 24970, Note_on_c, 0, 64, 58
1, 24983, Control_c, 0, 64, 69
1, 24987, Note_on_c, 0, 55, 44
1, 25006, Control_c, 0, 64, 61
1, 25021, Control_c, 0, 64, 42
1, 25036, Control_c, 0, 64, 0
1, 25131, Note_on_c, 0, 56, 49
1, 25133, Note_on_c, 0, 65, 46
1, 25142, Note_off_c, 0, 64, 60
1, 25147, Note_on_c, 0, 60, 44
1, 25152, Note_off_c, 0, 58, 57
1, 25157, Note_off_c, 0, 55, 57
1, 25183, Control_c, 0, 64, 31
1, 25198, Control_c, 0, 64, 49
1, 25212, Note_off_c, 0, 65, 65
1, 25213, Control_c, 0, 64, 59
1, 25218, Note_off_c, 0, 60, 57
1, 25228, Control_c, 0, 64, 63
1, 25243, Control_c, 0, 64, 66
1, 25246, Note_off_c, 0, 56, 62
1, 25257, Control_c, 0, 64, 68
1, 25269, Note_on_c, 0, 64, 56
1, 25272, Control_c, 0, 64, 72
1, 25279, Note_on_c, 0, 55, 46
1, 25279, Note_on_c, 0, 58, 49
1, 25287, Control_c, 0, 64, 76
1, 25302, Control_c, 0, 64, 80
1, 25314, Note_off_c, 0, 64, 59
1, 25316, Note_off_c, 0, 58, 62
1, 25317, Control_c, 0, 64, 82
1, 25323, Note_off_c, 0, 55, 44
1, 25332, Control_c, 0, 64, 82
1, 25377, Control_c, 0, 64, 82
1, 25392, Control_c, 0, 64, 81
1, 25406, Control_c, 0, 64, 81
1, 25421, Control_c, 0, 64, 78
1, 25436, Control_c, 0, 64, 76
1, 25446, Note_on_c, 0, 55, 44
1, 25448, Note_on_c, 0, 52, 41
1, 25451, Control_c, 0, 64, 72
1, 25452, Note_on_c, 0, 60, 49
1, 25466, Control_c, 0, 64, 67
1, 25481, Control_c, 0, 64, 61
1, 25496, Control_c, 0, 64, 53
1, 25511, Control_c, 0, 64, 45
1, 25525, Control_c, 0, 64, 40
1, 25540, Control_c, 0, 64, 36
1, 25555, Control_c, 0, 64, 31
1, 25570, Control_c, 0, 64, 23
1, 25585, Control_c, 0, 64, 0
1, 25704, Note_on_c, 0, 61, 49
1, 25710, Note_on_c, 0, 56, 40
1, 25718, Control_c, 0, 64, 10
1, 25725, Note_on_c, 0, 53, 37
1, 25733, Control_c, 0, 64, 33
1, 25734, Note_off_c, 0, 52, 57
1, 25734, Note_off_c, 0, 60, 58
1, 25755, Control_c, 0, 64, 46
1, 25761, Note_off_c, 0, 55, 49
1, 25770, Control_c, 0, 64, 55
1, 25785, Control_c, 0, 64, 60
1, 25799, Control_c, 0, 64, 63
1, 25814, Control_c, 0, 64, 65
1, 25829, Control_c, 0, 64, 67
1, 25844, Control_c, 0, 64, 69
1, 25859, Control_c, 0, 64, 72
1, 25873, Control_c, 0, 64, 75
1, 25888, Control_c, 0, 64, 77
1, 25903, Control_c, 0, 64, 78
1, 25992, Control_c, 0, 64, 77
1, 26006, Control_c, 0, 64, 75
1, 26021, Control_c, 0, 64, 72
1, 26026, Note_off_c, 0, 61, 53
1, 26036, Control_c, 0, 64, 67
1, 26047, Note_off_c, 0, 53, 45
1, 26051, Control_c, 0, 64, 60
1, 26056, Note_off_c, 0, 56, 36
1, 26057, Note_on_c, 0, 60, 35
1, 26060, Note_on_c, 0, 52, 32
1, 26062, Note_on_c, 0, 55, 27
1, 26066, Control_c, 0, 64, 47
1, 26080, Control_c, 0, 64, 39
1, 26095, Control_c, 0, 64, 45
1, 26110, Control_c, 0, 64, 51
1, 26125, Control_c, 0, 64, 57
1, 26140, Control_c, 0, 64, 61
1, 26154, Control_c, 0, 64, 64
1, 26170, Control_c, 0, 64, 67
1, 26185, Control_c, 0, 64, 71
1, 26200, Control_c, 0, 64, 76
1, 26215, Control_c, 0, 64, 79
1, 26226, Note_off_c, 0, 60, 55
1, 26229, Control_c, 0, 64, 83
1, 26244, Control_c, 0, 64, 86
1, 26259, Control_c, 0, 64, 89
1, 26266, Note_off_c, 0, 52, 54
1, 26271, Note_off_c, 0, 55, 39
1, 26274, Control_c, 0, 64, 92
1, 26289, Control_c, 0, 64, 94
1, 26303, Control_c, 0, 64, 97
1, 26318, Control_c, 0, 64, 99
1, 26333, Control_c, 0, 64, 99
1, 26348, Control_c, 0, 64, 100
1, 26467, Control_c, 0, 64, 99
1, 26504, Control_c, 0, 64, 98
1, 26519, Control_c, 0, 64, 97
1, 26534, Control_c, 0, 64, 96
1, 26548, Control_c, 0, 64, 94
1, 26563, Control_c, 0, 64, 89
1, 26578, Control_c, 0, 64, 84
1, 26581, Note_on_c, 0, 41, 48
1, 26593, Control_c, 0, 64, 76
1, 26608, Control_c, 0, 64, 69
1, 26622, Control_c, 0, 64, 61
1, 26637, Control_c, 0, 64, 53
1, 26652, Control_c, 0, 64, 55
1, 26667, Control_c, 0, 64, 59
1, 26682, Control_c, 0, 64, 61
1, 26697, Control_c, 0, 64, 63
1, 26712, Control_c, 0, 64, 66
1, 26727, Control_c, 0, 64, 70
1, 26739, Note_off_c, 0, 41, 60
1, 26742, Control_c, 0, 64, 75
1, 26756, Control_c, 0, 64, 81
1, 26763, Note_on_c, 0, 48, 45
1, 26771, Control_c, 0, 64, 85
1, 26786, Control_c, 0, 64, 88
1, 26801, Control_c, 0, 64, 91
1, 26816, Control_c, 0, 64, 94
1, 26830, Control_c, 0, 64, 98
1, 26831, Note_on_c, 0, 83, 73
1, 26845, Control_c, 0, 64, 102
1, 26854, Note_on_c, 0, 71, 53
1, 26860, Control_c, 0, 64, 106
1, 26875, Control_c, 0, 64, 115
1, 26890, Control_c, 0, 64, 127
1, 26909, Note_off_c, 0, 48, 41
1, 26932, Note_on_c, 0, 56, 56
1, 26963, Note_off_c, 0, 56, 56
1, 27060, Note_off_c, 0, 71, 40
1, 27079, Note_on_c, 0, 56, 43
1, 27171, Note_on_c, 0, 65, 49
1, 27263, Note_on_c, 0, 84, 61
1, 27281, Note_on_c, 0, 72, 39
1, 27284, Note_off_c, 0, 83, 45
1, 27293, Note_off_c, 0, 65, 36
1, 27337, Note_on_c, 0, 60, 61
1, 27365, Note_off_c, 0, 60, 64
1, 27381, Note_off_c, 0, 56, 40
1, 27460, Control_c, 0, 64, 117
1, 27460, Control_c, 0, 67, 126
1, 27475, Control_c, 0, 64, 107
1, 27475, Control_c, 0, 67, 121
1, 27490, Control_c, 0, 64, 97
1, 27490, Control_c, 0, 67, 116
1, 27505, Control_c, 0, 64, 85
1, 27505, Control_c, 0, 67, 111
1, 27520, Control_c, 0, 64, 71
1, 27520, Control_c, 0, 67, 102
1, 27522, Note_on_c, 0, 41, 55
1, 27535, Control_c, 0, 64, 63
1, 27535, Control_c, 0, 67, 95
1, 27549, Control_c, 0, 64, 62
1, 27549, Control_c, 0, 67, 90
1, 27561, Note_off_c, 0, 72, 54
1, 27564, Control_c, 0, 64, 67
1, 27564, Control_c, 0, 67, 88
1, 27579, Control_c, 0, 64, 74
1, 27579, Control_c, 0, 67, 86
1, 27594, Control_c, 0, 64, 83
1, 27594, Control_c, 0, 67, 84
1, 27609, Control_c, 0, 64, 93
1, 27609, Control_c, 0, 67, 81
1, 27624, Control_c, 0, 64, 103
1, 27624, Control_c, 0, 67, 78
1, 27626, Note_off_c, 0, 41, 58
1, 27639, Control_c, 0, 64, 119
1, 27639, Control_c, 0, 67, 76
1, 27653, Control_c, 0, 64, 127
1, 27653, Control_c, 0, 67, 75
1, 27657, Note_on_c, 0, 52, 60
1, 27668, Control_c, 0, 67, 74
1, 27683, Control_c, 0, 67, 72
1, 27698, Control_c, 0, 67, 69
1, 27713, Control_c, 0, 67, 66
1, 27727, Control_c, 0, 67, 64
1, 27742, Control_c, 0, 67, 62
1, 27757, Control_c, 0, 67, 59
1, 27766, Note_on_c, 0, 85, 79
1, 27773, Control_c, 0, 67, 56
1, 27785, Note_on_c, 0, 73, 61
1, 27788, Control_c, 0, 67, 52
1, 27802, Note_off_c, 0, 84, 59
1, 27802, Control_c, 0, 67, 48
1, 27817, Control_c, 0, 67, 45
1, 27832, Control_c, 0, 67, 43
1, 27835, Note_off_c, 0, 52, 59
1, 27847, Control_c, 0, 67, 42
1, 27862, Control_c, 0, 67, 40
1, 27876, Control_c, 0, 67, 39
1, 27877, Note_on_c, 0, 58, 55
1, 27891, Control_c, 0, 67, 37
1, 27906, Control_c, 0, 67, 35
1, 27919, Note_off_c, 0, 58, 60
1, 27921, Control_c, 0, 67, 33
1, 27936, Control_c, 0, 67, 32
1, 27950, Control_c, 0, 67, 31
1, 27965, Control_c, 0, 67, 29
1, 27980, Control_c, 0, 67, 26
1, 28002, Control_c, 0, 67, 23
1, 28017, Control_c, 0, 67, 19
1, 28032, Control_c, 0, 67, 15
1, 28041, Note_on_c, 0, 55, 27
1, 28047, Control_c, 0, 67, 10
1, 28062, Control_c, 0, 67, 0
1, 28089, Note_off_c, 0, 73, 60
1, 28126, Note_on_c, 0, 64, 39
1, 28140, Note_off_c, 0, 85, 62
1, 28204, Note_on_c, 0, 84, 64
1, 28209, Note_off_c, 0, 64, 37
1, 28226, Note_on_c, 0, 72, 49
1, 28311, Note_on_c, 0, 58, 48
1, 28321, Note_off_c, 0, 55, 38
1, 28333, Note_off_c, 0, 58, 62
1, 28432, Control_c, 0, 64, 118
1, 28447, Control_c, 0, 64, 106
1, 28462, Control_c, 0, 64, 94
1, 28476, Control_c, 0, 64, 79
1, 28488, Note_on_c, 0, 41, 61
1, 28491, Control_c, 0, 64, 67
1, 28506, Control_c, 0, 64, 58
1, 28520, Control_c, 0, 64, 59
1, 28535, Control_c, 0, 64, 66
1, 28550, Control_c, 0, 64, 75
1, 28566, Control_c, 0, 64, 90
1, 28572, Note_off_c, 0, 41, 62
1, 28581, Control_c, 0, 64, 105
1, 28587, Note_on_c, 0, 48, 59
1, 28594, Note_off_c, 0, 84, 61
1, 28596, Note_off_c, 0, 72, 66
1, 28596, Control_c, 0, 64, 127
1, 28646, Note_off_c, 0, 48, 62
1, 28656, Note_on_c, 0, 56, 71
1, 28685, Note_off_c, 0, 56, 64
1, 28714, Note_on_c, 0, 77, 21
1, 28715, Note_on_c, 0, 83, 78
1, 28726, Note_on_c, 0, 71, 64
1, 28761, Note_off_c, 0, 71, 58
1, 28763, Note_off_c, 0, 77, 41
1, 28813, Note_on_c, 0, 56, 44
1, 28816, Note_on_c, 0, 60, 50
1, 28855, Note_on_c, 0, 85, 86
1, 28856, Note_on_c, 0, 67, 71
1, 28868, Note_on_c, 0, 73, 71
1, 28869, Note_off_c, 0, 83, 53
1, 28924, Note_off_c, 0, 60, 36
1, 28938, Note_on_c, 0, 65, 62
1, 28943, Control_c, 0, 64, 124
1, 28945, Note_off_c, 0, 56, 37
1, 28951, Note_off_c, 0, 67, 55
1, 28951, Note_off_c, 0, 73, 62
1, 28958, Control_c, 0, 64, 101
1, 28973, Control_c, 0, 64, 84
1, 28982, Note_off_c, 0, 85, 63
1, 28988, Control_c, 0, 64, 69
1, 29003, Control_c, 0, 64, 52
1, 29004, Note_off_c, 0, 65, 61
1, 29017, Note_on_c, 0, 58, 59
1, 29017, Control_c, 0, 64, 30
1, 29027, Note_on_c, 0, 84, 87
1, 29030, Note_on_c, 0, 72, 79
1, 29032, Control_c, 0, 64, 43
1, 29033, Note_on_c, 0, 55, 53
1, 29047, Control_c, 0, 64, 61
1, 29062, Control_c, 0, 64, 68
1, 29077, Control_c, 0, 64, 75
1, 29091, Control_c, 0, 64, 83
1, 29105, Note_off_c, 0, 72, 56
1, 29106, Control_c, 0, 64, 91
1, 29121, Control_c, 0, 64, 99
1, 29136, Control_c, 0, 64, 109
1, 29150, Control_c, 0, 64, 115
1, 29153, Note_on_c, 0, 65, 67
1, 29165, Note_off_c, 0, 84, 63
1, 29165, Control_c, 0, 64, 124
1, 29180, Control_c, 0, 64, 127
1, 29323, Note_on_c, 0, 92, 88
1, 29338, Note_on_c, 0, 80, 70
1, 29352, Note_off_c, 0, 55, 51
1, 29421, Note_off_c, 0, 65, 36
1, 29424, Note_off_c, 0, 58, 36
1, 29432, Note_on_c, 0, 63, 39
1, 29445, Note_off_c, 0, 92, 64
1, 29466, Note_off_c, 0, 80, 61
1, 29527, Note_on_c, 0, 53, 55
1, 29532, Note_off_c, 0, 63, 57
1, 29556, Note_on_c, 0, 56, 42
1, 29618, Control_c, 0, 64, 115
1, 29633, Control_c, 0, 64, 105
1, 29640, Note_on_c, 0, 89, 77
1, 29648, Control_c, 0, 64, 94
1, 29658, Note_on_c, 0, 77, 58
1, 29663, Control_c, 0, 64, 81
1, 29678, Note_off_c, 0, 56, 34
1, 29678, Control_c, 0, 64, 69
1, 29693, Control_c, 0, 64, 59
1, 29708, Control_c, 0, 64, 58
1, 29722, Control_c, 0, 64, 64
1, 29737, Control_c, 0, 64, 70
1, 29751, Note_on_c, 0, 63, 67
1, 29752, Control_c, 0, 64, 77
1, 29756, Note_off_c, 0, 53, 55
1, 29766, Control_c, 0, 64, 86
1, 29781, Control_c, 0, 64, 95
1, 29796, Control_c, 0, 64, 106
1, 29811, Control_c, 0, 64, 127
1, 29850, Note_on_c, 0, 61, 73
1, 29863, Note_off_c, 0, 63, 58
1, 29944, Control_c, 0, 64, 107
1, 29947, Note_on_c, 0, 51, 68
1, 29958, Note_on_c, 0, 55, 62
1, 29959, Control_c, 0, 64, 89
1, 29973, Control_c, 0, 64, 74
1, 29976, Note_off_c, 0, 61, 53
1, 29988, Control_c, 0, 64, 62
1, 30003, Control_c, 0, 64, 61
1, 30018, Control_c, 0, 64, 66
1, 30033, Control_c, 0, 64, 74
1, 30044, Note_on_c, 0, 61, 55
1, 30047, Control_c, 0, 64, 85
1, 30062, Control_c, 0, 64, 98
1, 30077, Control_c, 0, 64, 109
1, 30086, Note_off_c, 0, 89, 57
1, 30092, Note_off_c, 0, 51, 54
1, 30092, Control_c, 0, 64, 127
1, 30113, Note_off_c, 0, 55, 57
1, 30122, Control_c, 0, 67, 8
1, 30137, Control_c, 0, 67, 9
1, 30146, Note_on_c, 0, 60, 66
1, 30149, Note_off_c, 0, 61, 62
1, 30167, Control_c, 0, 67, 10
1, 30174, Note_off_c, 0, 77, 52
1, 30182, Control_c, 0, 64, 105
1, 30182, Control_c, 0, 67, 12
1, 30194, Note_off_c, 0, 60, 46
1, 30197, Control_c, 0, 64, 88
1, 30197, Control_c, 0, 67, 16
1, 30211, Note_on_c, 0, 49, 71
1, 30211, Control_c, 0, 64, 72
1, 30211, Control_c, 0, 67, 21
1, 30221, Note_on_c, 0, 53, 56
1, 30226, Control_c, 0, 64, 59
1, 30226, Control_c, 0, 67, 26
1, 30249, Control_c, 0, 64, 51
1, 30249, Control_c, 0, 67, 29
1, 30264, Control_c, 0, 64, 59
1, 30264, Control_c, 0, 67, 30
1, 30278, Control_c, 0, 64, 67
1, 30292, Note_on_c, 0, 60, 54
1, 30293, Control_c, 0, 64, 73
1, 30293, Control_c, 0, 67, 31
1, 30308, Control_c, 0, 64, 81
1, 30308, Control_c, 0, 67, 32
1, 30323, Control_c, 0, 64, 89
1, 30323, Control_c, 0, 67, 34
1, 30330, Note_off_c, 0, 53, 60
1, 30338, Control_c, 0, 64, 97
1, 30338, Control_c, 0, 67, 37
1, 30342, Note_off_c, 0, 49, 48
1, 30352, Control_c, 0, 64, 103
1, 30352, Control_c, 0, 67, 39
1, 30353, Note_off_c, 0, 60, 54
1, 30357, Note_on_c, 0, 58, 63
1, 30367, Control_c, 0, 64, 107
1, 30367, Control_c, 0, 67, 40
1, 30382, Control_c, 0, 64, 108
1, 30382, Control_c, 0, 67, 41
1, 30396, Control_c, 0, 64, 106
1, 30396, Control_c, 0, 67, 41
1, 30411, Control_c, 0, 64, 99
1, 30411, Control_c, 0, 67, 44
1, 30426, Control_c, 0, 64, 87
1, 30426, Control_c, 0, 67, 48
1, 30429, Note_off_c, 0, 58, 60
1, 30438, Note_on_c, 0, 48, 70
1, 30441, Control_c, 0, 64, 74
1, 30441, Control_c, 0, 67, 53
1, 30453, Note_on_c, 0, 51, 61
1, 30456, Control_c, 0, 64, 62
1, 30456, Control_c, 0, 67, 56
1, 30471, Control_c, 0, 64, 39
1, 30471, Control_c, 0, 67, 58
1, 30486, Control_c, 0, 64, 41
1, 30486, Control_c, 0, 67, 58
1, 30501, Control_c, 0, 64, 56
1, 30501, Control_c, 0, 67, 59
1, 30515, Control_c, 0, 64, 64
1, 30530, Control_c, 0, 64, 68
1, 30530, Control_c, 0, 67, 60
1, 30545, Note_on_c, 0, 58, 63
1, 30545, Control_c, 0, 64, 71
1, 30545, Control_c, 0, 67, 61
1, 30560, Control_c, 0, 64, 76
1, 30560, Control_c, 0, 67, 63
1, 30575, Control_c, 0, 64, 82
1, 30575, Control_c, 0, 67, 65
1, 30589, Control_c, 0, 64, 87
1, 30589, Control_c, 0, 67, 67
1, 30591, Note_off_c, 0, 48, 58
1, 30604, Control_c, 0, 64, 89
1, 30604, Control_c, 0, 67, 70
1, 30619, Note_off_c, 0, 51, 59
1, 30619, Control_c, 0, 64, 90
1, 30619, Control_c, 0, 67, 74
1, 30625, Note_off_c, 0, 58, 55
1, 30634, Control_c, 0, 67, 76
1, 30639, Note_on_c, 0, 56, 53
1, 30649, Control_c, 0, 67, 78
1, 30663, Control_c, 0, 67, 79
1, 30678, Control_c, 0, 64, 89
1, 30678, Control_c, 0, 67, 81
1, 30693, Control_c, 0, 64, 87
1, 30693, Control_c, 0, 67, 82
1, 30708, Control_c, 0, 64, 82
1, 30708, Control_c, 0, 67, 84
1, 30722, Control_c, 0, 64, 73
1, 30722, Control_c, 0, 67, 85
1, 30732, Note_on_c, 0, 46, 57
1, 30732, Note_off_c, 0, 56, 58
1, 30737, Control_c, 0, 64, 64
1, 30737, Control_c, 0, 67, 86
1, 30746, Note_on_c, 0, 49, 47
1, 30752, Control_c, 0, 64, 46
1, 30752, Control_c, 0, 67, 87
1, 30767, Control_c, 0, 64, 25
1, 30767, Control_c, 0, 67, 89
1, 30782, Control_c, 0, 64, 28
1, 30782, Control_c, 0, 67, 90
1, 30796, Control_c, 0, 64, 37
1, 30811, Control_c, 0, 64, 44
1, 30811, Control_c, 0, 67, 90
1, 30826, Control_c, 0, 64, 51
1, 30826, Control_c, 0, 67, 91
1, 30841, Control_c, 0, 64, 57
1, 30841, Control_c, 0, 67, 92
1, 30856, Control_c, 0, 64, 63
1, 30856, Control_c, 0, 67, 96
1, 30858, Note_on_c, 0, 56, 44
1, 30870, Control_c, 0, 64, 65
1, 30870, Control_c, 0, 67, 100
1, 30885, Control_c, 0, 64, 68
1, 30885, Control_c, 0, 67, 104
1, 30900, Control_c, 0, 64, 71
1, 30900, Control_c, 0, 67, 108
1, 30915, Control_c, 0, 64, 76
1, 30915, Control_c, 0, 67, 110
1, 30930, Control_c, 0, 64, 81
1, 30930, Control_c, 0, 67, 112
1, 30945, Control_c, 0, 64, 85
1, 30945, Control_c, 0, 67, 114
1, 30960, Control_c, 0, 64, 87
1, 30960, Control_c, 0, 67, 117
1, 30972, Note_off_c, 0, 46, 45
1, 30975, Control_c, 0, 64, 87
1, 30975, Control_c, 0, 67, 118
1, 30979, Note_on_c, 0, 55, 45
1, 30998, Note_off_c, 0, 49, 38
1, 31002, Note_off_c, 0, 56, 56
1, 31013, Control_c, 0, 67, 118
1, 31016, Note_off_c, 0, 55, 53
1, 31072, Control_c, 0, 64, 87
1, 31101, Control_c, 0, 64, 86
1, 31116, Control_c, 0, 64, 86
1, 31116, Control_c, 0, 67, 118
1, 31145, Control_c, 0, 64, 85
1, 31175, Control_c, 0, 64, 85
1, 31190, Control_c, 0, 64, 84
1, 31190, Control_c, 0, 67, 117
1, 31205, Control_c, 0, 64, 83
1, 31205, Control_c, 0, 67, 117
1, 31219, Control_c, 0, 64, 82
1, 31234, Control_c, 0, 64, 77
1, 31249, Control_c, 0, 64, 72
1, 31264, Control_c, 0, 64, 65
1, 31279, Control_c, 0, 64, 56
1, 31285, Note_on_c, 0, 41, 42
1, 31294, Control_c, 0, 64, 37
1, 31308, Control_c, 0, 64, 0
1, 31338, Control_c, 0, 67, 116
1, 31368, Control_c, 0, 64, 34
1, 31383, Control_c, 0, 64, 52
1, 31383, Control_c, 0, 67, 116
1, 31398, Control_c, 0, 64, 61
1, 31412, Control_c, 0, 64, 65
1, 31412, Control_c, 0, 67, 115
1, 31421, Note_off_c, 0, 41, 52
1, 31427, Control_c, 0, 64, 68
1, 31442, Control_c, 0, 64, 72
1, 31457, Note_on_c, 0, 48, 43
1, 31457, Control_c, 0, 64, 77
1, 31472, Control_c, 0, 64, 81
1, 31472, Control_c, 0, 67, 115
1, 31486, Control_c, 0, 64, 86
1, 31501, Control_c, 0, 64, 90
1, 31516, Control_c, 0, 64, 94
1, 31531, Control_c, 0, 64, 97
1, 31545, Control_c, 0, 64, 100
1, 31547, Note_off_c, 0, 48, 61
1, 31560, Control_c, 0, 64, 102
1, 31571, Note_on_c, 0, 56, 43
1, 31575, Control_c, 0, 64, 103
1, 31590, Control_c, 0, 64, 103
1, 31601, Note_off_c, 0, 56, 54
1, 31711, Note_on_c, 0, 83, 59
1, 31720, Note_on_c, 0, 56, 40
1, 31745, Note_on_c, 0, 71, 44
1, 31868, Note_on_c, 0, 65, 36
1, 31880, Note_off_c, 0, 71, 40
1, 31952, Note_on_c, 0, 60, 54
1, 31961, Note_off_c, 0, 65, 39
1, 31976, Note_off_c, 0, 60, 61
1, 31985, Note_off_c, 0, 56, 48
1, 32013, Control_c, 0, 64, 104
1, 32066, Note_on_c, 0, 84, 54
1, 32076, Note_on_c, 0, 72, 42
1, 32088, Note_off_c, 0, 83, 36
1, 32102, Control_c, 0, 64, 101
1, 32116, Control_c, 0, 64, 95
1, 32131, Control_c, 0, 64, 85
1, 32137, Note_off_c, 0, 72, 0
1, 32137, Note_on_c, 0, 72, 3
1, 32146, Control_c, 0, 64, 72
1, 32161, Control_c, 0, 64, 59
1, 32174, Note_on_c, 0, 41, 57
1, 32176, Control_c, 0, 64, 45
1, 32191, Control_c, 0, 64, 55
1, 32191, Control_c, 0, 67, 114
1, 32206, Control_c, 0, 64, 64
1, 32221, Control_c, 0, 64, 70
1, 32229, Note_off_c, 0, 41, 60
1, 32235, Control_c, 0, 64, 76
1, 32235, Control_c, 0, 67, 113
1, 32250, Control_c, 0, 64, 85
1, 32250, Control_c, 0, 67, 113
1, 32265, Control_c, 0, 64, 95
1, 32266, Note_on_c, 0, 52, 55
1, 32280, Control_c, 0, 64, 113
1, 32292, Note_off_c, 0, 72, 43
1, 32294, Control_c, 0, 64, 127
1, 32340, Note_off_c, 0, 52, 64
1, 32369, Note_on_c, 0, 58, 58
1, 32409, Note_off_c, 0, 58, 61
1, 32523, Note_on_c, 0, 85, 70
1, 32543, Note_on_c, 0, 73, 49
1, 32562, Note_off_c, 0, 84, 55
1, 32565, Note_on_c, 0, 55, 32
1, 32665, Note_on_c, 0, 64, 34
1, 32673, Control_c, 0, 67, 112
1, 32758, Note_off_c, 0, 64, 37
1, 32766, Note_on_c, 0, 58, 52
1, 32790, Note_off_c, 0, 58, 64
1, 32793, Note_off_c, 0, 55, 39
1, 32800, Note_off_c, 0, 73, 60
1, 32868, Note_off_c, 0, 85, 58
1, 32895, Control_c, 0, 67, 112
1, 32918, Note_on_c, 0, 84, 66
1, 32936, Note_on_c, 0, 72, 53
1, 32969, Control_c, 0, 64, 119
1, 32984, Control_c, 0, 64, 108
1, 32999, Control_c, 0, 64, 97
1, 33013, Control_c, 0, 64, 85
1, 33028, Control_c, 0, 64, 72
1, 33028, Control_c, 0, 67, 111
1, 33043, Control_c, 0, 64, 56
1, 33043, Control_c, 0, 67, 111
1, 33058, Control_c, 0, 64, 38
1, 33058, Control_c, 0, 67, 110
1, 33073, Control_c, 0, 64, 48
1, 33073, Control_c, 0, 67, 110
1, 33085, Note_on_c, 0, 41, 50
1, 33088, Control_c, 0, 64, 62
1, 33088, Control_c, 0, 67, 109
1, 33103, Control_c, 0, 64, 71
1, 33103, Control_c, 0, 67, 107
1, 33117, Control_c, 0, 64, 80
1, 33117, Control_c, 0, 67, 107
1, 33132, Control_c, 0, 64, 92
1, 33132, Control_c, 0, 67, 106
1, 33147, Control_c, 0, 64, 107
1, 33147, Control_c, 0, 67, 105
1, 33148, Note_off_c, 0, 41, 59
1, 33160, Note_off_c, 0, 84, 60
1, 33162, Control_c, 0, 64, 127
1, 33162, Control_c, 0, 67, 104
1, 33173, Note_off_c, 0, 72, 56
1, 33177, Control_c, 0, 67, 102
1, 33191, Control_c, 0, 67, 101
1, 33198, Note_on_c, 0, 48, 47
1, 33255, Note_off_c, 0, 48, 63
1, 33258, Control_c, 0, 67, 100
1, 33267, Note_on_c, 0, 56, 60
1, 33273, Control_c, 0, 67, 99
1, 33288, Control_c, 0, 67, 98
1, 33296, Note_off_c, 0, 56, 63
1, 33303, Control_c, 0, 67, 98
1, 33317, Control_c, 0, 67, 97
1, 33332, Control_c, 0, 67, 96
1, 33338, Note_on_c, 0, 83, 69
1, 33347, Control_c, 0, 67, 96
1, 33356, Note_on_c, 0, 71, 40
1, 33362, Control_c, 0, 67, 95
1, 33383, Note_off_c, 0, 71, 52
1, 33392, Note_on_c, 0, 56, 46
1, 33407, Control_c, 0, 67, 95
1, 33421, Note_on_c, 0, 60, 38
1, 33452, Control_c, 0, 67, 95
1, 33474, Note_on_c, 0, 67, 65
1, 33496, Control_c, 0, 67, 95
1, 33499, Note_off_c, 0, 83, 59
1, 33502, Note_on_c, 0, 85, 75
1, 33526, Control_c, 0, 67, 95
1, 33529, Note_on_c, 0, 73, 55
1, 33555, Control_c, 0, 67, 95
1, 33583, Note_off_c, 0, 56, 41
1, 33584, Note_off_c, 0, 67, 56
1, 33586, Note_on_c, 0, 65, 58
1, 33598, Note_off_c, 0, 73, 55
1, 33600, Control_c, 0, 67, 95
1, 33614, Control_c, 0, 64, 113
1, 33629, Control_c, 0, 64, 93
1, 33644, Control_c, 0, 64, 77
1, 33659, Control_c, 0, 64, 63
1, 33672, Note_off_c, 0, 65, 60
1, 33674, Control_c, 0, 64, 56
1, 33677, Note_on_c, 0, 84, 74
1, 33681, Note_on_c, 0, 72, 67
1, 33681, Note_off_c, 0, 85, 62
1, 33687, Note_on_c, 0, 58, 52
1, 33688, Control_c, 0, 64, 61
1, 33688, Control_c, 0, 67, 95
1, 33696, Note_on_c, 0, 55, 52
1, 33703, Control_c, 0, 64, 68
1, 33703, Control_c, 0, 67, 94
1, 33718, Control_c, 0, 64, 77
1, 33718, Control_c, 0, 67, 93
1, 33732, Control_c, 0, 64, 88
1, 33732, Control_c, 0, 67, 89
1, 33741, Note_off_c, 0, 72, 65
1, 33747, Control_c, 0, 64, 100
1, 33747, Control_c, 0, 67, 82
1, 33762, Note_off_c, 0, 60, 16
1, 33762, Control_c, 0, 64, 118
1, 33762, Control_c, 0, 67, 72
1, 33777, Control_c, 0, 64, 127
1, 33777, Control_c, 0, 67, 61
1, 33780, Note_off_c, 0, 84, 63
1, 33792, Control_c, 0, 67, 53
1, 33806, Note_on_c, 0, 65, 59
1, 33807, Control_c, 0, 67, 47
1, 33821, Control_c, 0, 67, 43
1, 33836, Control_c, 0, 67, 40
1, 33851, Control_c, 0, 67, 38
1, 33866, Control_c, 0, 67, 37
1, 33880, Control_c, 0, 67, 37
1, 33895, Control_c, 0, 67, 35
1, 33910, Control_c, 0, 67, 34
1, 33925, Control_c, 0, 67, 32
1, 33939, Note_on_c, 0, 92, 75
1, 33939, Control_c, 0, 67, 31
1, 33952, Note_on_c, 0, 80, 63
1, 33954, Control_c, 0, 67, 30
1, 33969, Control_c, 0, 67, 29
1, 33976, Note_off_c, 0, 55, 53
1, 33991, Control_c, 0, 67, 26
1, 34006, Control_c, 0, 67, 22
1, 34010, Note_off_c, 0, 65, 35
1, 34019, Note_off_c, 0, 92, 65
1, 34021, Control_c, 0, 67, 19
1, 34026, Note_off_c, 0, 80, 59
1, 34034, Note_on_c, 0, 63, 44
1, 34036, Control_c, 0, 67, 16
1, 34047, Note_off_c, 0, 58, 40
1, 34051, Control_c, 0, 67, 14
1, 34066, Control_c, 0, 67, 11
1, 34081, Control_c, 0, 67, 8
1, 34095, Control_c, 0, 67, 0
1, 34132, Note_off_c, 0, 63, 57
1, 34153, Note_on_c, 0, 53, 44
1, 34200, Control_c, 0, 64, 122
1, 34209, Note_on_c, 0, 56, 25
1, 34215, Control_c, 0, 64, 104
1, 34227, Note_on_c, 0, 89, 63
1, 34230, Control_c, 0, 64, 91
1, 34244, Control_c, 0, 64, 80
1, 34247, Note_on_c, 0, 77, 51
1, 34259, Control_c, 0, 64, 70
1, 34274, Control_c, 0, 64, 62
1, 34275, Note_off_c, 0, 56, 39
1, 34289, Control_c, 0, 64, 58
1, 34304, Control_c, 0, 64, 60
1, 34318, Control_c, 0, 64, 64
1, 34333, Control_c, 0, 64, 67
1, 34348, Control_c, 0, 64, 72
1, 34355, Note_on_c, 0, 63, 51
1, 34362, Control_c, 0, 64, 79
1, 34377, Control_c, 0, 64, 88
1, 34392, Control_c, 0, 64, 97
1, 34407, Control_c, 0, 64, 105
1, 34422, Control_c, 0, 64, 113
1, 34436, Control_c, 0, 64, 121
1, 34443, Note_off_c, 0, 53, 48
1, 34451, Control_c, 0, 64, 127
1, 34453, Note_off_c, 0, 63, 60
1, 34474, Note_on_c, 0, 61, 46
1, 34501, Note_off_c, 0, 61, 53
1, 34629, Control_c, 0, 64, 122
1, 34644, Control_c, 0, 64, 102
1, 34659, Control_c, 0, 64, 82
1, 34668, Note_on_c, 0, 39, 65
1, 34674, Control_c, 0, 64, 68
1, 34688, Control_c, 0, 64, 60
1, 34703, Control_c, 0, 64, 61
1, 34715, Note_off_c, 0, 89, 60
1, 34718, Control_c, 0, 64, 68
1, 34740, Control_c, 0, 64, 78
1, 34753, Note_off_c, 0, 39, 63
1, 34755, Control_c, 0, 64, 95
1, 34763, Note_off_c, 0, 77, 64
1, 34769, Control_c, 0, 64, 127
1, 34775, Note_on_c, 0, 47, 59
1, 34855, Note_off_c, 0, 47, 62
1, 34869, Note_on_c, 0, 56, 78
1, 34893, Note_off_c, 0, 56, 67
1, 34956, Note_on_c, 0, 86, 83
1, 34971, Note_on_c, 0, 74, 66
1, 35015, Note_on_c, 0, 59, 58
1, 35072, Note_off_c, 0, 74, 62
1, 35103, Note_on_c, 0, 68, 74
1, 35148, Note_off_c, 0, 59, 58
1, 35161, Note_on_c, 0, 63, 72
1, 35163, Note_off_c, 0, 68, 66
1, 35191, Note_off_c, 0, 63, 62
1, 35244, Note_on_c, 0, 87, 87
1, 35250, Note_on_c, 0, 75, 78
1, 35270, Note_off_c, 0, 86, 62
1, 35333, Control_c, 0, 64, 90
1, 35339, Note_on_c, 0, 39, 87
1, 35348, Control_c, 0, 64, 69
1, 35362, Control_c, 0, 64, 50
1, 35377, Control_c, 0, 64, 48
1, 35392, Control_c, 0, 64, 62
1, 35407, Control_c, 0, 64, 71
1, 35422, Control_c, 0, 64, 84
1, 35437, Control_c, 0, 64, 103
1, 35446, Note_on_c, 0, 48, 76
1, 35451, Control_c, 0, 64, 127
1, 35461, Note_off_c, 0, 39, 66
1, 35511, Note_off_c, 0, 48, 65
1, 35517, Note_on_c, 0, 53, 76
1, 35550, Note_off_c, 0, 53, 63
1, 35556, Note_off_c, 0, 75, 59
1, 35616, Note_off_c, 0, 87, 54
1, 35632, Note_on_c, 0, 88, 95
1, 35637, Note_on_c, 0, 76, 87
1, 35649, Note_on_c, 0, 58, 78
1, 35764, Note_on_c, 0, 67, 82
1, 35789, Note_off_c, 0, 76, 61
1, 35841, Note_on_c, 0, 61, 81
1, 35842, Note_off_c, 0, 67, 62
1, 35864, Note_off_c, 0, 58, 62
1, 35882, Note_off_c, 0, 61, 63
1, 35943, Note_on_c, 0, 87, 91
1, 35948, Note_on_c, 0, 75, 92
1, 35973, Note_off_c, 0, 88, 58
1, 36022, Control_c, 0, 64, 89
1, 36026, Note_on_c, 0, 44, 91
1, 36037, Control_c, 0, 64, 68
1, 36052, Control_c, 0, 64, 51
1, 36063, Poly_aftertouch_c, 0, 51, 0
1, 36081, Control_c, 0, 64, 63
1, 36097, Control_c, 0, 64, 74
1, 36112, Control_c, 0, 64, 89
1, 36114, Note_on_c, 0, 51, 79
1, 36126, Control_c, 0, 64, 127
1, 36142, Note_off_c, 0, 44, 61
1, 36148, Note_off_c, 0, 75, 62
1, 36167, Note_off_c, 0, 87, 60
1, 36181, Note_on_c, 0, 59, 74
1, 36185, Note_off_c, 0, 51, 60
1, 36188, Note_on_c, 0, 60, 78
1, 36196, Note_on_c, 0, 86, 95
1, 36197, Note_on_c, 0, 74, 90
1, 36200, Note_off_c, 0, 59, 63
1, 36203, Note_off_c, 0, 60, 67
1, 36261, Note_off_c, 0, 74, 59
1, 36282, Note_on_c, 0, 59, 69
1, 36298, Note_off_c, 0, 86, 60
1, 36325, Note_on_c, 0, 63, 73
1, 36399, Note_on_c, 0, 88, 90
1, 36406, Note_on_c, 0, 70, 85
1, 36407, Note_on_c, 0, 76, 71
1, 36417, Note_on_c, 0, 77, 69
1, 36419, Note_off_c, 0, 63, 60
1, 36428, Note_off_c, 0, 59, 53
1, 36450, Note_off_c, 0, 77, 55
1, 36455, Note_off_c, 0, 76, 62
1, 36462, Note_on_c, 0, 68, 83
1, 36484, Note_off_c, 0, 70, 61
1, 36534, Note_on_c, 0, 58, 81
1, 36541, Note_on_c, 0, 61, 71
1, 36543, Note_off_c, 0, 68, 61
1, 36549, Control_c, 0, 64, 85
1, 36549, Note_on_c, 0, 75, 102
1, 36549, Note_on_c, 0, 87, 97
1, 36564, Control_c, 0, 64, 65
1, 36579, Control_c, 0, 64, 52
1, 36594, Control_c, 0, 64, 60
1, 36595, Note_off_c, 0, 88, 61
1, 36609, Control_c, 0, 64, 69
1, 36624, Control_c, 0, 64, 80
1, 36629, Note_off_c, 0, 75, 63
1, 36635, Note_on_c, 0, 68, 91
1, 36638, Control_c, 0, 64, 99
1, 36653, Control_c, 0, 64, 127
1, 36663, Note_off_c, 0, 87, 67
1, 36763, Note_on_c, 0, 66, 79
1, 36764, Note_off_c, 0, 61, 56
1, 36782, Note_off_c, 0, 58, 55
1, 36787, Note_on_c, 0, 95, 97
1, 36799, Note_on_c, 0, 83, 77
1, 36816, Note_off_c, 0, 68, 58
1, 36829, Note_on_c, 0, 84, 47
1, 36830, Note_off_c, 0, 84, 127
1, 36864, Note_off_c, 0, 83, 60
1, 36872, Note_off_c, 0, 95, 66
1, 36906, Note_on_c, 0, 56, 79
1, 36906, Note_on_c, 0, 59, 68
1, 36906, Note_off_c, 0, 66, 63
1, 37002, Control_c, 0, 64, 118
1, 37017, Control_c, 0, 64, 86
1, 37031, Control_c, 0, 64, 67
1, 37032, Note_on_c, 0, 80, 93
1, 37034, Note_on_c, 0, 92, 97
1, 37046, Control_c, 0, 64, 53
1, 37061, Control_c, 0, 64, 56
1, 37076, Control_c, 0, 64, 65
1, 37090, Control_c, 0, 64, 74
1, 37105, Control_c, 0, 64, 89
1, 37120, Control_c, 0, 64, 127
1, 37148, Note_on_c, 0, 66, 92
1, 37154, Note_off_c, 0, 56, 54
1, 37226, Note_off_c, 0, 66, 67
1, 37228, Note_on_c, 0, 64, 76
1, 37234, Note_off_c, 0, 59, 35
1, 37251, Note_off_c, 0, 64, 69
1, 37342, Control_c, 0, 64, 95
1, 37358, Control_c, 0, 64, 70
1, 37359, Note_on_c, 0, 42, 98
1, 37373, Control_c, 0, 64, 46
1, 37387, Control_c, 0, 64, 39
1, 37402, Control_c, 0, 64, 60
1, 37409, Note_off_c, 0, 92, 64
1, 37417, Control_c, 0, 64, 73
1, 37432, Control_c, 0, 64, 102
1, 37447, Control_c, 0, 64, 127
1, 37456, Note_off_c, 0, 80, 58
1, 37464, Note_on_c, 0, 51, 83
1, 37483, Note_off_c, 0, 42, 60
1, 37538, Note_off_c, 0, 51, 56
1, 37550, Note_on_c, 0, 59, 82
1, 37583, Note_off_c, 0, 59, 64
1, 37633, Note_on_c, 0, 77, 97
1, 37633, Note_on_c, 0, 89, 95
1, 37663, Note_on_c, 0, 63, 89
1, 37664, Note_on_c, 0, 88, 49
1, 37688, Note_off_c, 0, 88, 39
1, 37730, Note_off_c, 0, 77, 55
1, 37754, Note_on_c, 0, 71, 80
1, 37820, Note_on_c, 0, 66, 83
1, 37828, Note_off_c, 0, 63, 63
1, 37829, Note_off_c, 0, 71, 61
1, 37843, Note_off_c, 0, 66, 70
1, 37890, Note_on_c, 0, 78, 98
1, 37896, Note_on_c, 0, 90, 93
1, 37926, Note_off_c, 0, 89, 64
1, 37973, Control_c, 0, 64, 88
1, 37987, Control_c, 0, 64, 66
1, 37994, Note_on_c, 0, 42, 94
1, 38002, Control_c, 0, 64, 37
1, 38017, Control_c, 0, 64, 48
1, 38032, Control_c, 0, 64, 63
1, 38047, Control_c, 0, 64, 74
1, 38061, Control_c, 0, 64, 92
1, 38076, Note_on_c, 0, 52, 84
1, 38076, Control_c, 0, 64, 127
1, 38090, Note_off_c, 0, 42, 63
1, 38105, Poly_aftertouch_c, 0, 44, 0
1, 38115, Poly_aftertouch_c, 0, 41, 0
1, 38159, Note_off_c, 0, 78, 51
1, 38167, Note_on_c, 0, 58, 94
1, 38176, Note_off_c, 0, 52, 63
1, 38215, Note_off_c, 0, 58, 63
1, 38228, Note_off_c, 0, 90, 61
1, 38272, Note_on_c, 0, 91, 104
1, 38275, Note_on_c, 0, 79, 96
1, 38319, Note_on_c, 0, 61, 84
1, 38410, Note_on_c, 0, 70, 86
1, 38441, Note_off_c, 0, 79, 57
1, 38488, Note_on_c, 0, 64, 77
1, 38488, Note_off_c, 0, 61, 59
1, 38488, Note_off_c, 0, 70, 68
1, 38533, Note_off_c, 0, 64, 66
1, 38572, Note_on_c, 0, 90, 97
1, 38576, Note_on_c, 0, 78, 106
1, 38603, Control_c, 0, 64, 115
1, 38605, Note_off_c, 0, 91, 52
1, 38618, Control_c, 0, 64, 87
1, 38632, Control_c, 0, 64, 67
1, 38647, Control_c, 0, 64, 46
1, 38656, Note_on_c, 0, 42, 95
1, 38662, Control_c, 0, 64, 41
1, 38677, Control_c, 0, 64, 61
1, 38692, Control_c, 0, 64, 71
1, 38707, Control_c, 0, 64, 84
1, 38722, Control_c, 0, 64, 106
1, 38736, Control_c, 0, 64, 127
1, 38744, Note_on_c, 0, 51, 82
1, 38762, Note_off_c, 0, 42, 60
1, 38765, Note_off_c, 0, 78, 60
1, 38786, Note_off_c, 0, 90, 60
1, 38817, Note_off_c, 0, 51, 59
1, 38826, Note_on_c, 0, 59, 83
1, 38832, Note_on_c, 0, 89, 105
1, 38835, Note_on_c, 0, 77, 98
1, 38870, Note_off_c, 0, 59, 66
1, 38919, Note_on_c, 0, 54, 83
1, 38931, Note_off_c, 0, 77, 60
1, 39020, Note_on_c, 0, 90, 100
1, 39021, Note_on_c, 0, 78, 111
1, 39056, Note_off_c, 0, 89, 63
1, 39064, Note_on_c, 0, 63, 78
1, 39116, Note_on_c, 0, 59, 77
1, 39121, Note_off_c, 0, 54, 59
1, 39125, Note_off_c, 0, 78, 56
1, 39135, Note_off_c, 0, 63, 63
1, 39154, Note_off_c, 0, 90, 56
1, 39156, Note_off_c, 0, 59, 62
1, 39290, Note_on_c, 0, 42, 86
1, 39308, Control_c, 0, 64, 95
1, 39323, Control_c, 0, 64, 73
1, 39327, Note_on_c, 0, 93, 101
1, 39327, Note_on_c, 0, 81, 99
1, 39336, Note_on_c, 0, 86, 7
1, 39338, Control_c, 0, 64, 51
1, 39352, Control_c, 0, 64, 0
1, 39363, Note_off_c, 0, 86, 46
1, 39367, Control_c, 0, 64, 33
1, 39382, Control_c, 0, 64, 59
1, 39397, Control_c, 0, 64, 69
1, 39412, Control_c, 0, 64, 78
1, 39426, Control_c, 0, 64, 90
1, 39441, Control_c, 0, 64, 119
1, 39456, Control_c, 0, 64, 127
1, 39468, Note_on_c, 0, 52, 82
1, 39472, Note_off_c, 0, 42, 60
1, 39493, Note_off_c, 0, 93, 58
1, 39499, Note_off_c, 0, 81, 59
1, 39503, Note_on_c, 0, 86, 41
1, 39546, Note_off_c, 0, 86, 45
1, 39576, Note_off_c, 0, 52, 63
1, 39577, Note_on_c, 0, 91, 96
1, 39577, Note_on_c, 0, 79, 99
1, 39594, Note_on_c, 0, 58, 84
1, 39654, Note_off_c, 0, 58, 63
1, 39673, Note_off_c, 0, 91, 60
1, 39674, Note_off_c, 0, 79, 60
1, 39704, Note_on_c, 0, 52, 76
1, 39825, Note_on_c, 0, 61, 90
1, 39918, Note_on_c, 0, 58, 85
1, 40058, Note_on_c, 0, 78, 101
1, 40061, Note_on_c, 0, 90, 100
1, 40091, Note_on_c, 0, 91, 60
1, 40111, Note_off_c, 0, 91, 56
1, 40112, Note_off_c, 0, 52, 60
1, 40155, Note_off_c, 0, 61, 57
1, 40181, Note_off_c, 0, 78, 61
1, 40223, Note_off_c, 0, 90, 62
1, 40253, Note_off_c, 0, 58, 62
1, 40425, Note_on_c, 0, 47, 80
1, 40620, Control_c, 0, 64, 112
1, 40635, Control_c, 0, 64, 101
1, 40639, Note_on_c, 0, 99, 92
1, 40650, Control_c, 0, 64, 93
1, 40651, Note_on_c, 0, 87, 70
1, 40665, Control_c, 0, 64, 86
1, 40679, Control_c, 0, 64, 79
1, 40694, Control_c, 0, 64, 73
1, 40709, Control_c, 0, 64, 67
1, 40731, Control_c, 0, 64, 62
1, 40746, Control_c, 0, 64, 58
1, 40761, Control_c, 0, 64, 54
1, 40776, Control_c, 0, 64, 49
1, 40791, Control_c, 0, 64, 40
1, 40805, Control_c, 0, 64, 24
1, 40820, Control_c, 0, 64, 12
1, 40835, Control_c, 0, 64, 26
1, 40850, Control_c, 0, 64, 42
1, 40865, Control_c, 0, 64, 55
1, 40879, Control_c, 0, 64, 62
1, 40892, Note_on_c, 0, 57, 57
1, 40894, Control_c, 0, 64, 65
1, 40909, Control_c, 0, 64, 69
1, 40923, Control_c, 0, 64, 77
1, 40938, Control_c, 0, 64, 88
1, 40953, Control_c, 0, 64, 103
1, 40968, Control_c, 0, 64, 127
1, 41007, Note_off_c, 0, 87, 62
1, 41018, Note_off_c, 0, 99, 64
1, 41027, Note_on_c, 0, 54, 60
1, 41062, Note_off_c, 0, 47, 39
1, 41089, Note_off_c, 0, 57, 54
1, 41122, Note_on_c, 0, 60, 74
1, 41178, Note_off_c, 0, 60, 61
1, 41204, Note_on_c, 0, 57, 68
1, 41247, Note_off_c, 0, 54, 50
1, 41266, Note_off_c, 0, 57, 62
1, 41306, Note_on_c, 0, 66, 74
1, 41344, Note_off_c, 0, 66, 57
1, 41403, Note_on_c, 0, 99, 93
1, 41413, Note_on_c, 0, 60, 74
1, 41416, Note_on_c, 0, 87, 74
1, 41529, Note_on_c, 0, 69, 71
1, 41544, Note_off_c, 0, 87, 64
1, 41549, Note_off_c, 0, 60, 50
1, 41589, Note_on_c, 0, 66, 68
1, 41613, Note_off_c, 0, 99, 65
1, 41640, Note_on_c, 0, 72, 75
1, 41648, Note_off_c, 0, 69, 56
1, 41685, Note_off_c, 0, 66, 63
1, 41714, Note_off_c, 0, 72, 61
1, 41729, Note_on_c, 0, 60, 80
1, 41773, Note_on_c, 0, 69, 77
1, 41813, Note_off_c, 0, 69, 64
1, 41816, Note_off_c, 0, 60, 60
1, 41857, Note_on_c, 0, 99, 91
1, 41870, Note_on_c, 0, 87, 78
1, 41906, Note_off_c, 0, 87, 56
1, 41961, Note_off_c, 0, 99, 59
1, 41984, Note_on_c, 0, 47, 73
1, 42072, Control_c, 0, 64, 117
1, 42087, Control_c, 0, 64, 100
1, 42102, Control_c, 0, 64, 84
1, 42112, Note_on_c, 0, 99, 88
1, 42117, Control_c, 0, 64, 71
1, 42126, Note_on_c, 0, 87, 68
1, 42132, Control_c, 0, 64, 59
1, 42148, Control_c, 0, 64, 35
1, 42163, Control_c, 0, 64, 22
1, 42177, Control_c, 0, 64, 42
1, 42192, Control_c, 0, 64, 57
1, 42207, Note_on_c, 0, 56, 44
1, 42207, Control_c, 0, 64, 64
1, 42230, Control_c, 0, 64, 67
1, 42245, Note_off_c, 0, 47, 62
1, 42245, Control_c, 0, 64, 72
1, 42259, Control_c, 0, 64, 79
1, 42264, Note_on_c, 0, 53, 57
1, 42274, Control_c, 0, 64, 90
1, 42289, Control_c, 0, 64, 105
1, 42292, Note_off_c, 0, 56, 56
1, 42303, Control_c, 0, 64, 127
1, 42317, Note_off_c, 0, 53, 62
1, 42329, Note_on_c, 0, 59, 57
1, 42350, Note_off_c, 0, 59, 62
1, 42419, Note_on_c, 0, 56, 68
1, 42499, Note_on_c, 0, 65, 59
1, 42533, Note_off_c, 0, 87, 59
1, 42552, Note_off_c, 0, 99, 65
1, 42553, Note_off_c, 0, 56, 56
1, 42573, Note_on_c, 0, 59, 58
1, 42609, Note_off_c, 0, 65, 47
1, 42613, Note_on_c, 0, 98, 73
1, 42630, Note_on_c, 0, 86, 39
1, 42681, Note_off_c, 0, 59, 58
1, 42686, Note_on_c, 0, 68, 45
1, 42747, Note_off_c, 0, 68, 62
1, 42749, Note_on_c, 0, 65, 62
1, 42842, Note_on_c, 0, 71, 64
1, 42894, Note_off_c, 0, 65, 31
1, 42897, Note_off_c, 0, 71, 59
1, 42947, Note_on_c, 0, 59, 63
1, 43074, Note_on_c, 0, 68, 60
1, 43096, Note_off_c, 0, 59, 63
1, 43105, Note_off_c, 0, 68, 64
1, 43236, Note_off_c, 0, 86, 41
1, 43246, Note_on_c, 0, 47, 80
1, 43261, Control_c, 0, 64, 116
1, 43275, Control_c, 0, 64, 90
1, 43290, Control_c, 0, 64, 72
1, 43305, Control_c, 0, 64, 57
1, 43320, Control_c, 0, 64, 49
1, 43334, Control_c, 0, 64, 59
1, 43340, Note_on_c, 0, 55, 70
1, 43349, Control_c, 0, 64, 69
1, 43364, Control_c, 0, 64, 79
1, 43369, Note_off_c, 0, 47, 61
1, 43379, Control_c, 0, 64, 95
1, 43384, Note_on_c, 0, 52, 76
1, 43393, Control_c, 0, 64, 127
1, 43402, Note_off_c, 0, 55, 59
1, 43455, Note_on_c, 0, 58, 77
1, 43468, Note_off_c, 0, 52, 63
1, 43469, Note_on_c, 0, 97, 94
1, 43477, Note_on_c, 0, 85, 84
1, 43492, Note_off_c, 0, 58, 62
1, 43509, Note_off_c, 0, 98, 64
1, 43550, Note_off_c, 0, 85, 61
1, 43569, Note_on_c, 0, 55, 78
1, 43637, Note_on_c, 0, 64, 86
1, 43665, Note_off_c, 0, 55, 55
1, 43693, Note_on_c, 0, 99, 100
1, 43696, Note_on_c, 0, 87, 89
1, 43724, Note_on_c, 0, 58, 78
1, 43736, Note_off_c, 0, 64, 62
1, 43754, Note_off_c, 0, 97, 60
1, 43796, Note_on_c, 0, 67, 85
1, 43838, Note_off_c, 0, 87, 52
1, 43846, Note_off_c, 0, 58, 61
1, 43846, Note_off_c, 0, 67, 64
1, 43852, Note_on_c, 0, 64, 77
1, 43863, Note_off_c, 0, 99, 55
1, 43942, Note_on_c, 0, 70, 88
1, 43965, Note_on_c, 0, 100, 96
1, 43967, Note_on_c, 0, 88, 92
1, 43992, Note_off_c, 0, 64, 0
1, 44029, Note_on_c, 0, 58, 68
1, 44029, Poly_aftertouch_c, 0, 64, 127
1, 44030, Note_off_c, 0, 70, 63
1, 44034, Poly_aftertouch_c, 0, 93, 0
1, 44093, Note_off_c, 0, 88, 60
1, 44112, Note_off_c, 0, 100, 62
1, 44129, Note_on_c, 0, 67, 82
1, 44129, Poly_aftertouch_c, 0, 60, 127
1, 44159, Note_off_c, 0, 67, 61
1, 44164, Note_off_c, 0, 58, 62
1, 44168, Poly_aftertouch_c, 0, 64, 0
1, 44183, Poly_aftertouch_c, 0, 60, 0
1, 44284, Note_on_c, 0, 47, 78
1, 44349, Control_c, 0, 64, 115
1, 44364, Control_c, 0, 64, 103
1, 44379, Control_c, 0, 64, 93
1, 44394, Control_c, 0, 64, 84
1, 44397, Note_on_c, 0, 102, 98
1, 44401, Note_on_c, 0, 90, 87
1, 44409, Control_c, 0, 64, 76
1, 44423, Control_c, 0, 64, 66
1, 44438, Control_c, 0, 64, 51
1, 44453, Control_c, 0, 64, 25
1, 44475, Control_c, 0, 64, 37
1, 44490, Control_c, 0, 64, 59
1, 44505, Control_c, 0, 64, 66
1, 44520, Control_c, 0, 64, 71
1, 44525, Note_on_c, 0, 54, 68
1, 44535, Control_c, 0, 64, 78
1, 44550, Control_c, 0, 64, 91
1, 44565, Control_c, 0, 64, 127
1, 44587, Note_off_c, 0, 102, 66
1, 44593, Note_off_c, 0, 90, 63
1, 44594, Note_off_c, 0, 47, 61
1, 44601, Note_on_c, 0, 51, 66
1, 44648, Note_off_c, 0, 54, 60
1, 44669, Note_on_c, 0, 59, 70
1, 44676, Note_off_c, 0, 51, 59
1, 44705, Note_off_c, 0, 59, 61
1, 44775, Note_on_c, 0, 54, 66
1, 44816, Note_on_c, 0, 56, 34
1, 44852, Note_on_c, 0, 99, 79
1, 44854, Note_on_c, 0, 63, 67
1, 44859, Note_on_c, 0, 87, 73
1, 44860, Note_off_c, 0, 56, 44
1, 44892, Note_off_c, 0, 87, 59
1, 44897, Note_off_c, 0, 99, 66
1, 44924, Note_off_c, 0, 63, 59
1, 44943, Note_on_c, 0, 59, 61
1, 44951, Note_off_c, 0, 54, 51
1, 44997, Note_on_c, 0, 95, 80
1, 45012, Note_on_c, 0, 83, 55
1, 45030, Note_on_c, 0, 66, 58
1, 45055, Note_off_c, 0, 59, 52
1, 45100, Note_off_c, 0, 66, 50
1, 45112, Note_on_c, 0, 63, 68
1, 45128, Note_off_c, 0, 95, 64
1, 45164, Note_off_c, 0, 83, 51
1, 45193, Note_off_c, 0, 63, 53
1, 45225, Note_on_c, 0, 71, 65
1, 45256, Note_off_c, 0, 71, 58
1, 45331, Note_on_c, 0, 59, 55
1, 45448, Note_on_c, 0, 66, 56
1, 45471, Note_off_c, 0, 59, 61
1, 45495, Note_off_c, 0, 66, 63
1, 45625, Control_c, 0, 64, 118
1, 45640, Control_c, 0, 64, 108
1, 45655, Control_c, 0, 64, 103
1, 45669, Control_c, 0, 64, 97
1, 45684, Control_c, 0, 64, 93
1, 45699, Control_c, 0, 64, 88
1, 45711, Note_on_c, 0, 47, 58
1, 45713, Control_c, 0, 64, 83
1, 45728, Control_c, 0, 64, 78
1, 45743, Control_c, 0, 64, 75
1, 45758, Control_c, 0, 64, 72
1, 45773, Control_c, 0, 64, 68
1, 45787, Control_c, 0, 64, 64
1, 45802, Control_c, 0, 64, 58
1, 45817, Control_c, 0, 64, 51
1, 45833, Control_c, 0, 64, 43
1, 45834, Note_on_c, 0, 87, 74
1, 45847, Control_c, 0, 64, 41
1, 45852, Note_on_c, 0, 75, 54
1, 45877, Control_c, 0, 64, 41
1, 45892, Control_c, 0, 64, 44
1, 45907, Control_c, 0, 64, 51
1, 45921, Control_c, 0, 64, 59
1, 45936, Control_c, 0, 64, 64
1, 45951, Control_c, 0, 64, 68
1, 45952, Note_on_c, 0, 57, 59
1, 45974, Control_c, 0, 64, 73
1, 45989, Control_c, 0, 64, 79
1, 46003, Control_c, 0, 64, 87
1, 46016, Note_off_c, 0, 47, 38
1, 46018, Control_c, 0, 64, 100
1, 46033, Control_c, 0, 64, 127
1, 46034, Note_off_c, 0, 57, 62
1, 46043, Note_on_c, 0, 54, 63
1, 46082, Note_off_c, 0, 75, 60
1, 46097, Note_on_c, 0, 60, 73
1, 46114, Note_off_c, 0, 87, 59
1, 46134, Note_off_c, 0, 60, 60
1, 46151, Note_on_c, 0, 57, 67
1, 46184, Note_off_c, 0, 54, 28
1, 46207, Note_off_c, 0, 57, 64
1, 46244, Note_on_c, 0, 66, 85
1, 46290, Note_on_c, 0, 87, 86
1, 46296, Note_off_c, 0, 66, 64
1, 46299, Note_on_c, 0, 75, 70
1, 46368, Note_on_c, 0, 60, 65
1, 46395, Note_off_c, 0, 75, 61
1, 46401, Note_off_c, 0, 87, 62
1, 46433, Note_on_c, 0, 69, 60
1, 46446, Note_off_c, 0, 60, 59
1, 46449, Note_on_c, 0, 68, 37
1, 46470, Note_on_c, 0, 66, 68
1, 46480, Note_off_c, 0, 68, 57
1, 46514, Note_on_c, 0, 72, 71
1, 46535, Note_off_c, 0, 69, 39
1, 46568, Note_off_c, 0, 72, 60
1, 46586, Note_on_c, 0, 60, 69
1, 46633, Note_on_c, 0, 69, 72
1, 46639, Note_off_c, 0, 66, 32
1, 46658, Note_off_c, 0, 69, 71
1, 46682, Note_off_c, 0, 60, 61
1, 46699, Note_on_c, 0, 87, 76
1, 46719, Note_on_c, 0, 75, 59
1, 46745, Note_off_c, 0, 75, 64
1, 46761, Note_off_c, 0, 87, 54
1, 46830, Note_on_c, 0, 47, 64
1, 46839, Control_c, 0, 64, 118
1, 46854, Control_c, 0, 64, 104
1, 46869, Control_c, 0, 64, 91
1, 46884, Control_c, 0, 64, 78
1, 46899, Control_c, 0, 64, 68
1, 46913, Control_c, 0, 64, 59
1, 46928, Control_c, 0, 64, 47
1, 46943, Note_on_c, 0, 87, 75
1, 46944, Control_c, 0, 64, 41
1, 46959, Control_c, 0, 64, 43
1, 46965, Note_on_c, 0, 75, 51
1, 46973, Control_c, 0, 64, 49
1, 46988, Control_c, 0, 64, 54
1, 47003, Control_c, 0, 64, 59
1, 47018, Control_c, 0, 64, 64
1, 47033, Control_c, 0, 64, 70
1, 47038, Note_on_c, 0, 56, 43
1, 47048, Control_c, 0, 64, 79
1, 47059, Note_off_c, 0, 47, 60
1, 47062, Control_c, 0, 64, 95
1, 47076, Note_on_c, 0, 53, 61
1, 47077, Control_c, 0, 64, 109
1, 47078, Note_off_c, 0, 56, 57
1, 47092, Control_c, 0, 64, 127
1, 47133, Note_off_c, 0, 53, 65
1, 47148, Note_on_c, 0, 59, 60
1, 47176, Note_off_c, 0, 59, 65
1, 47191, Note_off_c, 0, 75, 54
1, 47228, Note_off_c, 0, 87, 62
1, 47238, Note_on_c, 0, 56, 64
1, 47322, Note_on_c, 0, 65, 54
1, 47393, Note_on_c, 0, 86, 65
1, 47396, Note_off_c, 0, 56, 55
1, 47411, Note_on_c, 0, 74, 44
1, 47414, Note_on_c, 0, 59, 48
1, 47488, Note_off_c, 0, 65, 28
1, 47507, Note_on_c, 0, 68, 55
1, 47560, Note_off_c, 0, 59, 34
1, 47590, Note_on_c, 0, 65, 54
1, 47591, Note_off_c, 0, 68, 59
1, 47687, Note_on_c, 0, 71, 58
1, 47745, Note_off_c, 0, 71, 58
1, 47749, Note_off_c, 0, 65, 45
1, 47800, Note_on_c, 0, 59, 56
1, 47927, Note_on_c, 0, 68, 52
1, 47962, Note_off_c, 0, 68, 64
1, 47981, Note_off_c, 0, 59, 63
1, 48078, Control_c, 0, 64, 99
1, 48093, Control_c, 0, 64, 79
1, 48096, Note_on_c, 0, 46, 87
1, 48107, Control_c, 0, 64, 63
1, 48122, Control_c, 0, 64, 61
1, 48137, Control_c, 0, 64, 66
1, 48152, Control_c, 0, 64, 74
1, 48167, Control_c, 0, 64, 88
1, 48181, Control_c, 0, 64, 107
1, 48196, Control_c, 0, 64, 127
1, 48198, Note_on_c, 0, 56, 71
1, 48200, Note_off_c, 0, 74, 64
1, 48206, Note_off_c, 0, 46, 58
1, 48220, Note_off_c, 0, 86, 57
1, 48270, Note_on_c, 0, 53, 65
1, 48273, Note_off_c, 0, 56, 58
1, 48317, Note_on_c, 0, 59, 75
1, 48317, Note_on_c, 0, 74, 85
1, 48317, Note_on_c, 0, 86, 92
1, 48366, Note_off_c, 0, 59, 63
1, 48377, Note_off_c, 0, 74, 63
1, 48381, Note_on_c, 0, 56, 69
1, 48434, Note_on_c, 0, 62, 89
1, 48435, Note_off_c, 0, 53, 35
1, 48456, Note_off_c, 0, 56, 62
1, 48463, Note_off_c, 0, 62, 62
1, 48485, Control_c, 0, 64, 116
1, 48500, Control_c, 0, 64, 76
1, 48514, Control_c, 0, 64, 59
1, 48520, Note_on_c, 0, 75, 96
1, 48521, Note_on_c, 0, 87, 94
1, 48529, Control_c, 0, 64, 53
1, 48540, Note_on_c, 0, 44, 80
1, 48545, Control_c, 0, 64, 61
1, 48556, Note_off_c, 0, 86, 59
1, 48560, Control_c, 0, 64, 67
1, 48575, Control_c, 0, 64, 75
1, 48590, Control_c, 0, 64, 91
1, 48592, Note_on_c, 0, 53, 77
1, 48599, Note_off_c, 0, 44, 64
1, 48605, Note_off_c, 0, 75, 65
1, 48605, Control_c, 0, 64, 112
1, 48619, Control_c, 0, 64, 127
1, 48651, Note_on_c, 0, 50, 81
1, 48711, Note_off_c, 0, 53, 62
1, 48720, Note_on_c, 0, 89, 98
1, 48721, Note_on_c, 0, 77, 98
1, 48735, Note_on_c, 0, 59, 89
1, 48756, Note_off_c, 0, 87, 63
1, 48764, Note_off_c, 0, 77, 62
1, 48782, Note_off_c, 0, 50, 58
1, 48783, Note_off_c, 0, 89, 63
1, 48787, Note_off_c, 0, 59, 65
1, 48797, Note_on_c, 0, 53, 68
1, 48871, Note_on_c, 0, 58, 89
1, 48885, Note_off_c, 0, 53, 59
1, 48920, Note_off_c, 0, 58, 64
1, 49011, Note_on_c, 0, 42, 86
1, 49042, Control_c, 0, 64, 99
1, 49057, Control_c, 0, 64, 81
1, 49071, Control_c, 0, 64, 64
1, 49086, Control_c, 0, 64, 40
1, 49101, Control_c, 0, 64, 21
1, 49104, Note_on_c, 0, 92, 92
1, 49106, Note_on_c, 0, 80, 90
1, 49116, Control_c, 0, 64, 40
1, 49131, Control_c, 0, 64, 56
1, 49145, Control_c, 0, 64, 64
1, 49160, Control_c, 0, 64, 70
1, 49175, Control_c, 0, 64, 81
1, 49190, Control_c, 0, 64, 102
1, 49205, Control_c, 0, 64, 127
1, 49206, Note_off_c, 0, 42, 61
1, 49218, Note_on_c, 0, 54, 86
1, 49237, Note_off_c, 0, 80, 64
1, 49244, Note_off_c, 0, 54, 64
1, 49245, Note_off_c, 0, 92, 65
1, 49307, Note_on_c, 0, 51, 76
1, 49359, Note_on_c, 0, 58, 77
1, 49361, Note_on_c, 0, 78, 94
1, 49361, Note_on_c, 0, 90, 94
1, 49391, Note_off_c, 0, 51, 56
1, 49425, Note_off_c, 0, 58, 64
1, 49430, Note_on_c, 0, 54, 59
1, 49471, Note_on_c, 0, 63, 80
1, 49486, Note_off_c, 0, 54, 64
1, 49495, Note_off_c, 0, 63, 67
1, 49516, Control_c, 0, 64, 88
1, 49531, Control_c, 0, 64, 65
1, 49546, Control_c, 0, 64, 48
1, 49552, Note_on_c, 0, 44, 98
1, 49560, Control_c, 0, 64, 60
1, 49576, Control_c, 0, 64, 71
1, 49591, Control_c, 0, 64, 85
1, 49606, Control_c, 0, 64, 113
1, 49621, Control_c, 0, 64, 127
1, 49628, Note_off_c, 0, 44, 62
1, 49650, Note_on_c, 0, 56, 56
1, 49659, Note_off_c, 0, 90, 62
1, 49672, Note_off_c, 0, 56, 59
1, 49680, Note_on_c, 0, 58, 21
1, 49681, Note_off_c, 0, 58, 127
1, 49681, Note_off_c, 0, 78, 59
1, 49721, Poly_aftertouch_c, 0, 58, 0
1, 49737, Note_on_c, 0, 52, 73
1, 49791, Note_on_c, 0, 88, 89
1, 49794, Note_on_c, 0, 76, 87
1, 49811, Note_on_c, 0, 59, 65
1, 49819, Note_off_c, 0, 52, 63
1, 49869, Note_off_c, 0, 59, 63
1, 49881, Note_on_c, 0, 56, 66
1, 49923, Note_on_c, 0, 64, 74
1, 49945, Note_off_c, 0, 56, 63
1, 49951, Note_off_c, 0, 64, 68
1, 49969, Control_c, 0, 64, 101
1, 49984, Control_c, 0, 64, 74
1, 49999, Control_c, 0, 64, 57
1, 50007, Note_on_c, 0, 46, 102
1, 50027, Note_on_c, 0, 45, 76
1, 50028, Control_c, 0, 64, 68
1, 50043, Control_c, 0, 64, 80
1, 50045, Note_off_c, 0, 45, 65
1, 50058, Control_c, 0, 64, 103
1, 50073, Control_c, 0, 64, 127
1, 50090, Note_off_c, 0, 46, 60
1, 50091, Note_off_c, 0, 76, 63
1, 50101, Note_on_c, 0, 58, 86
1, 50151, Note_off_c, 0, 58, 59
1, 50205, Note_on_c, 0, 54, 74
1, 50250, Note_on_c, 0, 63, 80
1, 50259, Note_on_c, 0, 87, 90
1, 50261, Note_on_c, 0, 75, 89
1, 50276, Note_off_c, 0, 54, 62
1, 50285, Note_off_c, 0, 88, 59
1, 50314, Note_on_c, 0, 58, 68
1, 50315, Note_off_c, 0, 63, 60
1, 50374, Note_on_c, 0, 66, 84
1, 50398, Note_off_c, 0, 66, 70
1, 50405, Note_off_c, 0, 58, 64
1, 50465, Control_c, 0, 64, 99
1, 50480, Control_c, 0, 64, 71
1, 50485, Note_on_c, 0, 44, 98
1, 50495, Control_c, 0, 64, 50
1, 50509, Control_c, 0, 64, 56
1, 50517, Note_on_c, 0, 43, 50
1, 50524, Control_c, 0, 64, 67
1, 50539, Control_c, 0, 64, 79
1, 50550, Note_off_c, 0, 43, 37
1, 50554, Control_c, 0, 64, 99
1, 50560, Note_off_c, 0, 44, 62
1, 50561, Note_off_c, 0, 75, 62
1, 50569, Control_c, 0, 64, 127
1, 50575, Note_off_c, 0, 87, 61
1, 50592, Note_on_c, 0, 58, 75
1, 50594, Note_on_c, 0, 56, 50
1, 50608, Note_off_c, 0, 58, 67
1, 50622, Note_off_c, 0, 56, 57
1, 50631, Note_on_c, 0, 86, 101
1, 50635, Note_on_c, 0, 74, 91
1, 50674, Note_off_c, 0, 74, 64
1, 50686, Note_on_c, 0, 53, 67
1, 50743, Note_on_c, 0, 59, 77
1, 50757, Note_on_c, 0, 75, 102
1, 50757, Note_on_c, 0, 87, 101
1, 50780, Note_off_c, 0, 53, 65
1, 50781, Note_off_c, 0, 86, 61
1, 50798, Note_off_c, 0, 75, 67
1, 50820, Note_on_c, 0, 56, 75
1, 50827, Note_off_c, 0, 87, 63
1, 50831, Note_off_c, 0, 59, 60
1, 50845, Note_on_c, 0, 62, 84
1, 50868, Note_on_c, 0, 77, 98
1, 50868, Note_on_c, 0, 89, 109
1, 50886, Note_off_c, 0, 56, 63
1, 50887, Note_off_c, 0, 62, 59
1, 50904, Note_off_c, 0, 77, 61
1, 50929, Note_off_c, 0, 89, 66
1, 50999, Note_on_c, 0, 42, 95
1, 51044, Control_c, 0, 64, 86
1, 51058, Control_c, 0, 64, 65
1, 51073, Control_c, 0, 64, 46
1, 51075, Note_on_c, 0, 80, 98
1, 51078, Note_on_c, 0, 92, 101
1, 51088, Control_c, 0, 64, 56
1, 51103, Control_c, 0, 64, 66
1, 51118, Control_c, 0, 64, 76
1, 51119, Note_on_c, 0, 93, 44
1, 51132, Control_c, 0, 64, 93
1, 51147, Control_c, 0, 64, 127
1, 51159, Note_off_c, 0, 42, 62
1, 51161, Note_off_c, 0, 93, 33
1, 51178, Note_on_c, 0, 54, 83
1, 51195, Note_off_c, 0, 80, 62
1, 51200, Note_off_c, 0, 92, 63
1, 51203, Note_off_c, 0, 54, 63
1, 51271, Note_on_c, 0, 51, 84
1, 51273, Note_on_c, 0, 90, 102
1, 51276, Note_on_c, 0, 78, 96
1, 51306, Note_off_c, 0, 78, 61
1, 51337, Note_off_c, 0, 90, 64
1, 51343, Note_on_c, 0, 58, 67
1, 51376, Note_off_c, 0, 58, 47
1, 51381, Note_off_c, 0, 51, 55
1, 51392, Note_on_c, 0, 54, 76
1, 51397, Note_on_c, 0, 59, 15
1, 51413, Note_on_c, 0, 83, 99
1, 51413, Note_on_c, 0, 95, 105
1, 51437, Note_off_c, 0, 59, 41
1, 51453, Note_on_c, 0, 63, 83
1, 51480, Note_off_c, 0, 54, 61
1, 51493, Note_off_c, 0, 63, 60
1, 51510, Control_c, 0, 64, 105
1, 51525, Control_c, 0, 64, 72
1, 51540, Control_c, 0, 64, 45
1, 51542, Note_on_c, 0, 44, 93
1, 51552, Note_on_c, 0, 46, 73
1, 51555, Control_c, 0, 64, 52
1, 51566, Note_off_c, 0, 95, 67
1, 51570, Control_c, 0, 64, 68
1, 51576, Note_off_c, 0, 83, 61
1, 51585, Control_c, 0, 64, 83
1, 51589, Note_off_c, 0, 46, 44
1, 51599, Control_c, 0, 64, 127
1, 51619, Note_on_c, 0, 56, 85
1, 51621, Note_off_c, 0, 44, 62
1, 51662, Note_off_c, 0, 56, 62
1, 51695, Note_on_c, 0, 76, 96
1, 51697, Note_on_c, 0, 88, 102
1, 51711, Note_on_c, 0, 52, 81
1, 51722, Note_off_c, 0, 76, 58
1, 51752, Note_off_c, 0, 88, 62
1, 51774, Note_on_c, 0, 59, 76
1, 51787, Note_off_c, 0, 52, 63
1, 51839, Note_off_c, 0, 59, 63
1, 51846, Note_on_c, 0, 95, 103
1, 51847, Note_on_c, 0, 56, 62
1, 51847, Note_on_c, 0, 83, 100
1, 51874, Note_on_c, 0, 64, 81
1, 51899, Note_off_c, 0, 56, 61
1, 51924, Note_off_c, 0, 64, 65
1, 51978, Control_c, 0, 64, 80
1, 51980, Note_on_c, 0, 46, 102
1, 51991, Note_off_c, 0, 95, 67
1, 51993, Control_c, 0, 64, 57
1, 52008, Control_c, 0, 64, 32
1, 52009, Note_off_c, 0, 83, 59
1, 52023, Control_c, 0, 64, 60
1, 52037, Control_c, 0, 64, 77
1, 52052, Control_c, 0, 64, 127
1, 52076, Note_off_c, 0, 46, 61
1, 52079, Note_on_c, 0, 58, 90
1, 52121, Note_off_c, 0, 58, 64
1, 52149, Note_on_c, 0, 75, 96
1, 52154, Note_on_c, 0, 87, 93
1, 52168, Note_on_c, 0, 88, 83
1, 52171, Note_on_c, 0, 54, 77
1, 52179, Note_off_c, 0, 75, 61
1, 52181, Note_off_c, 0, 88, 66
1, 52196, Note_off_c, 0, 87, 61
1, 52224, Note_on_c, 0, 63, 79
1, 52273, Note_off_c, 0, 54, 53
1, 52288, Note_on_c, 0, 58, 71
1, 52294, Note_off_c, 0, 63, 60
1, 52320, Note_on_c, 0, 95, 106
1, 52321, Note_on_c, 0, 83, 94
1, 52363, Note_on_c, 0, 66, 82
1, 52382, Note_off_c, 0, 58, 67
1, 52408, Note_off_c, 0, 66, 66
1, 52481, Control_c, 0, 64, 109
1, 52496, Control_c, 0, 64, 70
1, 52505, Note_off_c, 0, 95, 67
1, 52507, Note_on_c, 0, 46, 94
1, 52511, Control_c, 0, 64, 54
1, 52515, Note_on_c, 0, 44, 74
1, 52521, Note_off_c, 0, 83, 61
1, 52526, Control_c, 0, 64, 62
1, 52541, Control_c, 0, 64, 74
1, 52545, Note_off_c, 0, 44, 65
1, 52556, Control_c, 0, 64, 96
1, 52572, Control_c, 0, 64, 127
1, 52589, Note_on_c, 0, 53, 69
1, 52598, Note_off_c, 0, 46, 61
1, 52701, Note_on_c, 0, 56, 87
1, 52714, Note_on_c, 0, 74, 97
1, 52719, Note_on_c, 0, 86, 97
1, 52736, Note_on_c, 0, 84, 69
1, 52737, Note_off_c, 0, 84, 127
1, 52747, Note_off_c, 0, 74, 70
1, 52768, Note_off_c, 0, 86, 65
1, 52822, Note_on_c, 0, 62, 94
1, 52845, Note_off_c, 0, 56, 65
1, 52860, Note_off_c, 0, 53, 35
1, 52875, Note_off_c, 0, 62, 66
1, 53018, Note_on_c, 0, 71, 104
1, 53024, Note_on_c, 0, 83, 96
1, 53024, Note_on_c, 0, 95, 103
1, 53088, Note_off_c, 0, 71, 57
1, 53105, Note_off_c, 0, 83, 56
1, 53109, Note_off_c, 0, 95, 64
1, 53380, Control_c, 0, 64, 105
1, 53395, Control_c, 0, 64, 89
1, 53409, Control_c, 0, 64, 74
1, 53424, Control_c, 0, 64, 60
1, 53439, Control_c, 0, 64, 35
1, 53461, Control_c, 0, 64, 0
1, 53535, Control_c, 0, 64, 12
1, 53540, Note_on_c, 0, 70, 88
1, 53550, Control_c, 0, 64, 63
1, 53553, Note_on_c, 0, 82, 102
1, 53555, Note_on_c, 0, 94, 95
1, 53565, Control_c, 0, 64, 74
1, 53574, Note_off_c, 0, 70, 68
1, 53576, Note_on_c, 0, 71, 41
1, 53580, Control_c, 0, 64, 89
1, 53592, Note_off_c, 0, 94, 69
1, 53595, Control_c, 0, 64, 115
1, 53601, Note_off_c, 0, 71, 56
1, 53603, Note_off_c, 0, 82, 60
1, 53609, Control_c, 0, 64, 127
1, 53671, Note_on_c, 0, 51, 86
1, 53748, Note_off_c, 0, 51, 60
1, 53759, Note_on_c, 0, 75, 105
1, 53762, Note_on_c, 0, 82, 95
1, 53762, Note_on_c, 0, 87, 96
1, 53766, Note_on_c, 0, 66, 102
1, 53796, Note_off_c, 0, 75, 66
1, 53797, Note_off_c, 0, 66, 68
1, 53799, Note_off_c, 0, 87, 65
1, 53808, Note_off_c, 0, 82, 61
1, 53995, Control_c, 0, 64, 87
1, 54005, Note_on_c, 0, 78, 88
1, 54009, Control_c, 0, 64, 67
1, 54023, Note_on_c, 0, 69, 59
1, 54024, Control_c, 0, 64, 56
1, 54039, Control_c, 0, 64, 64
1, 54053, Note_off_c, 0, 69, 58
1, 54053, Control_c, 0, 64, 74
1, 54065, Note_off_c, 0, 78, 60
1, 54068, Control_c, 0, 64, 93
1, 54074, Note_on_c, 0, 75, 75
1, 54076, Note_on_c, 0, 72, 74
1, 54077, Note_on_c, 0, 80, 80
1, 54083, Control_c, 0, 64, 127
1, 54103, Note_off_c, 0, 72, 65
1, 54113, Note_off_c, 0, 75, 48
1, 54127, Note_off_c, 0, 80, 62
1, 54136, Note_on_c, 0, 78, 84
1, 54139, Note_on_c, 0, 69, 75
1, 54186, Note_off_c, 0, 78, 61
1, 54187, Note_off_c, 0, 69, 67
1, 54191, Note_on_c, 0, 77, 84
1, 54204, Note_on_c, 0, 75, 77
1, 54207, Note_on_c, 0, 72, 82
1, 54227, Note_off_c, 0, 72, 70
1, 54257, Note_off_c, 0, 75, 61
1, 54262, Note_off_c, 0, 77, 61
1, 54266, Note_on_c, 0, 78, 94
1, 54274, Note_on_c, 0, 69, 82
1, 54310, Note_off_c, 0, 78, 61
1, 54315, Note_off_c, 0, 69, 64
1, 54330, Note_on_c, 0, 75, 80
1, 54330, Note_on_c, 0, 77, 81
1, 54335, Note_on_c, 0, 72, 80
1, 54357, Note_off_c, 0, 72, 65
1, 54373, Note_off_c, 0, 75, 61
1, 54375, Note_off_c, 0, 77, 62
1, 54383, Note_on_c, 0, 78, 102
1, 54390, Note_on_c, 0, 69, 88
1, 54437, Note_off_c, 0, 69, 64
1, 54446, Note_off_c, 0, 78, 56
1, 54455, Note_on_c, 0, 72, 81
1, 54459, Note_on_c, 0, 75, 65
1, 54459, Note_on_c, 0, 80, 84
1, 54495, Note_off_c, 0, 72, 57
1, 54501, Note_off_c, 0, 75, 52
1, 54503, Note_off_c, 0, 80, 57
1, 54521, Note_on_c, 0, 69, 93
1, 54523, Note_on_c, 0, 78, 98
1, 54561, Note_off_c, 0, 78, 66
1, 54565, Note_on_c, 0, 72, 92
1, 54566, Note_off_c, 0, 69, 68
1, 54568, Note_on_c, 0, 81, 101
1, 54568, Note_on_c, 0, 75, 88
1, 54599, Note_off_c, 0, 72, 67
1, 54604, Note_off_c, 0, 81, 60
1, 54608, Note_off_c, 0, 75, 64
1, 54787, Control_c, 0, 64, 74
1, 54795, Note_on_c, 0, 51, 102
1, 54795, Note_on_c, 0, 54, 79
1, 54801, Control_c, 0, 64, 51
1, 54802, Note_on_c, 0, 48, 78
1, 54807, Note_on_c, 0, 45, 73
1, 54809, Note_on_c, 0, 39, 80
1, 54816, Control_c, 0, 64, 44
1, 54831, Control_c, 0, 64, 61
1, 54846, Control_c, 0, 64, 71
1, 54861, Control_c, 0, 64, 84
1, 54865, Note_off_c, 0, 54, 63
1, 54875, Control_c, 0, 64, 108
1, 54881, Note_on_c, 0, 57, 60
1, 54890, Control_c, 0, 64, 127
1, 54915, Note_off_c, 0, 57, 65
1, 54921, Note_on_c, 0, 54, 73
1, 54923, Note_off_c, 0, 39, 62
1, 54935, Note_off_c, 0, 51, 54
1, 54959, Note_off_c, 0, 48, 59
1, 54968, Note_off_c, 0, 45, 58
1, 54983, Note_off_c, 0, 54, 61
1, 55016, Note_on_c, 0, 66, 94
1, 55024, Note_on_c, 0, 51, 100
1, 55030, Note_on_c, 0, 48, 74
1, 55032, Note_on_c, 0, 39, 78
1, 55034, Note_on_c, 0, 45, 67
1, 55045, Poly_aftertouch_c, 0, 56, 0
1, 55090, Note_on_c, 0, 68, 82
1, 55108, Note_off_c, 0, 66, 61
1, 55122, Note_off_c, 0, 39, 61
1, 55131, Note_off_c, 0, 68, 64
1, 55144, Note_off_c, 0, 48, 54
1, 55147, Note_off_c, 0, 51, 52
1, 55149, Note_off_c, 0, 45, 53
1, 55172, Note_on_c, 0, 66, 86
1, 55211, Note_off_c, 0, 66, 64
1, 55242, Note_on_c, 0, 78, 100
1, 55249, Note_on_c, 0, 51, 101
1, 55254, Note_on_c, 0, 48, 77
1, 55258, Note_on_c, 0, 39, 76
1, 55266, Note_on_c, 0, 45, 70
1, 55290, Note_off_c, 0, 48, 55
1, 55293, Note_off_c, 0, 45, 67
1, 55314, Note_on_c, 0, 80, 87
1, 55332, Note_off_c, 0, 78, 58
1, 55340, Note_off_c, 0, 51, 53
1, 55346, Note_off_c, 0, 39, 57
1, 55353, Note_off_c, 0, 80, 65
1, 55400, Note_on_c, 0, 78, 89
1, 55432, Control_c, 0, 64, 107
1, 55447, Control_c, 0, 64, 75
1, 55462, Control_c, 0, 64, 45
1, 55463, Note_on_c, 0, 51, 102
1, 55469, Note_on_c, 0, 46, 84
1, 55470, Note_on_c, 0, 39, 69
1, 55473, Note_on_c, 0, 90, 103
1, 55477, Control_c, 0, 64, 48
1, 55492, Note_on_c, 0, 91, 76
1, 55492, Control_c, 0, 64, 65
1, 55494, Note_on_c, 0, 80, 47
1, 55496, Note_off_c, 0, 46, 65
1, 55498, Note_off_c, 0, 51, 60
1, 55500, Note_off_c, 0, 39, 65
1, 55506, Note_off_c, 0, 78, 64
1, 55506, Control_c, 0, 64, 79
1, 55507, Note_off_c, 0, 91, 45
1, 55517, Note_off_c, 0, 90, 65
1, 55519, Note_off_c, 0, 80, 36
1, 55521, Control_c, 0, 64, 104
1, 55536, Control_c, 0, 64, 127
1, 55685, Control_c, 0, 64, 88
1, 55690, Note_on_c, 0, 69, 72
1, 55694, Note_on_c, 0, 78, 82
1, 55707, Control_c, 0, 64, 66
1, 55722, Control_c, 0, 64, 49
1, 55737, Control_c, 0, 64, 54
1, 55752, Control_c, 0, 64, 63
1, 55767, Note_off_c, 0, 69, 64
1, 55767, Control_c, 0, 64, 69
1, 55774, Note_off_c, 0, 78, 60
1, 55780, Note_on_c, 0, 75, 79
1, 55782, Control_c, 0, 64, 78
1, 55788, Note_on_c, 0, 80, 81
1, 55789, Note_on_c, 0, 72, 78
1, 55797, Control_c, 0, 64, 93
1, 55811, Control_c, 0, 64, 127
1, 55821, Note_off_c, 0, 72, 59
1, 55838, Note_on_c, 0, 78, 93
1, 55840, Note_off_c, 0, 80, 62
1, 55858, Note_on_c, 0, 69, 76
1, 55862, Note_off_c, 0, 75, 38
1, 55888, Note_off_c, 0, 69, 67
1, 55897, Note_on_c, 0, 75, 67
1, 55899, Note_on_c, 0, 77, 90
1, 55904, Note_off_c, 0, 78, 61
1, 55908, Note_on_c, 0, 72, 82
1, 55931, Note_off_c, 0, 72, 62
1, 55964, Note_off_c, 0, 75, 61
1, 55966, Note_off_c, 0, 77, 60
1, 55967, Note_on_c, 0, 78, 96
1, 55979, Note_on_c, 0, 69, 88
1, 56017, Note_off_c, 0, 78, 62
1, 56019, Note_off_c, 0, 69, 66
1, 56030, Note_on_c, 0, 75, 79
1, 56030, Note_on_c, 0, 77, 80
1, 56032, Note_on_c, 0, 72, 84
1, 56086, Note_off_c, 0, 72, 64
1, 56090, Note_on_c, 0, 78, 100
1, 56092, Note_off_c, 0, 77, 59
1, 56101, Note_on_c, 0, 69, 94
1, 56104, Note_off_c, 0, 75, 51
1, 56138, Note_off_c, 0, 69, 68
1, 56150, Note_off_c, 0, 78, 55
1, 56160, Note_on_c, 0, 75, 64
1, 56164, Note_on_c, 0, 72, 85
1, 56171, Note_on_c, 0, 80, 83
1, 56217, Note_off_c, 0, 72, 63
1, 56227, Note_on_c, 0, 78, 101
1, 56227, Note_off_c, 0, 80, 61
1, 56230, Note_off_c, 0, 75, 60
1, 56234, Note_on_c, 0, 69, 94
1, 56271, Note_off_c, 0, 78, 64
1, 56276, Note_off_c, 0, 69, 68
1, 56279, Note_on_c, 0, 72, 93
1, 56280, Note_on_c, 0, 75, 81
1, 56282, Note_on_c, 0, 81, 101
1, 56317, Note_off_c, 0, 72, 66
1, 56318, Note_off_c, 0, 81, 64
1, 56325, Note_off_c, 0, 75, 66
1, 56515, Control_c, 0, 64, 89
1, 56531, Control_c, 0, 64, 64
1, 56534, Note_on_c, 0, 51, 95
1, 56541, Note_on_c, 0, 48, 76
1, 56542, Note_on_c, 0, 54, 80
1, 56546, Control_c, 0, 64, 11
1, 56548, Note_on_c, 0, 39, 80
1, 56550, Note_on_c, 0, 45, 69
1, 56560, Control_c, 0, 64, 23
1, 56575, Control_c, 0, 64, 59
1, 56590, Control_c, 0, 64, 72
1, 56605, Control_c, 0, 64, 93
1, 56612, Note_on_c, 0, 56, 77
1, 56620, Control_c, 0, 64, 127
1, 56630, Note_off_c, 0, 54, 59
1, 56666, Note_off_c, 0, 39, 59
1, 56667, Poly_aftertouch_c, 0, 54, 0
1, 56673, Note_on_c, 0, 54, 67
1, 56674, Note_off_c, 0, 56, 65
1, 56682, Note_off_c, 0, 45, 58
1, 56684, Note_off_c, 0, 51, 56
1, 56693, Note_off_c, 0, 48, 57
1, 56733, Note_off_c, 0, 54, 61
1, 56762, Note_on_c, 0, 66, 94
1, 56766, Note_on_c, 0, 51, 104
1, 56774, Note_on_c, 0, 39, 79
1, 56777, Note_on_c, 0, 48, 76
1, 56784, Note_on_c, 0, 45, 72
1, 56843, Note_off_c, 0, 39, 62
1, 56851, Note_on_c, 0, 67, 78
1, 56860, Note_off_c, 0, 45, 58
1, 56864, Note_off_c, 0, 51, 55
1, 56870, Note_off_c, 0, 48, 54
1, 56872, Note_off_c, 0, 66, 63
1, 56877, Note_off_c, 0, 67, 66
1, 56949, Note_on_c, 0, 66, 50
1, 56971, Note_on_c, 0, 65, 38
1, 56980, Note_on_c, 0, 64, 12
1, 57001, Note_on_c, 0, 48, 80
1, 57001, Note_off_c, 0, 65, 53
1, 57001, Note_on_c, 0, 51, 103
1, 57011, Note_on_c, 0, 39, 75
1, 57013, Note_off_c, 0, 66, 49
1, 57014, Note_on_c, 0, 46, 47
1, 57016, Note_on_c, 0, 75, 65
1, 57025, Note_off_c, 0, 64, 40
1, 57028, Note_off_c, 0, 48, 66
1, 57029, Note_on_c, 0, 45, 58
1, 57031, Note_on_c, 0, 77, 60
1, 57041, Note_on_c, 0, 76, 64
1, 57041, Note_off_c, 0, 39, 65
1, 57043, Note_off_c, 0, 75, 49
1, 57043, Note_off_c, 0, 46, 56
1, 57049, Note_off_c, 0, 51, 55
1, 57051, Note_off_c, 0, 45, 61
1, 57071, Note_off_c, 0, 76, 66
1, 57095, Note_off_c, 0, 77, 61
1, 57114, Note_on_c, 0, 78, 17
1, 57115, Note_off_c, 0, 78, 127
1, 57117, Note_on_c, 0, 79, 38
1, 57149, Note_off_c, 0, 79, 52
1, 57153, Note_on_c, 0, 78, 55
1, 57250, Note_off_c, 0, 78, 58
1, 57264, Control_c, 0, 64, 84
1, 57265, Note_on_c, 0, 90, 87
1, 57269, Note_on_c, 0, 51, 108
1, 57270, Note_on_c, 0, 46, 90
1, 57273, Note_on_c, 0, 39, 81
1, 57278, Control_c, 0, 64, 61
1, 57293, Control_c, 0, 64, 57
1, 57308, Control_c, 0, 64, 65
1, 57324, Control_c, 0, 64, 75
1, 57339, Control_c, 0, 64, 91
1, 57347, Note_on_c, 0, 92, 78
1, 57348, Note_off_c, 0, 90, 63
1, 57354, Control_c, 0, 64, 127
1, 57438, Note_on_c, 0, 90, 81
1, 57477, Note_off_c, 0, 92, 63
1, 57500, Note_off_c, 0, 90, 58
1, 57503, Note_on_c, 0, 78, 83
1, 57556, Note_off_c, 0, 46, 60
1, 57577, Note_off_c, 0, 51, 43
1, 57578, Note_off_c, 0, 78, 62
1, 57579, Note_off_c, 0, 39, 32
1, 57583, Note_on_c, 0, 80, 74
1, 57647, Note_off_c, 0, 80, 64
1, 57648, Note_on_c, 0, 78, 83
1, 57689, Note_off_c, 0, 78, 59
1, 57709, Control_c, 0, 64, 88
1, 57710, Note_on_c, 0, 47, 92
1, 57710, Note_on_c, 0, 49, 112
1, 57716, Note_on_c, 0, 41, 85
1, 57722, Note_on_c, 0, 37, 83
1, 57724, Control_c, 0, 64, 71
1, 57731, Note_on_c, 0, 92, 93
1, 57739, Control_c, 0, 64, 66
1, 57747, Note_on_c, 0, 42, 39
1, 57754, Control_c, 0, 64, 73
1, 57768, Control_c, 0, 64, 84
1, 57783, Control_c, 0, 64, 102
1, 57791, Note_off_c, 0, 37, 63
1, 57794, Note_off_c, 0, 49, 63
1, 57798, Control_c, 0, 64, 127
1, 57812, Note_on_c, 0, 94, 83
1, 57818, Note_off_c, 0, 41, 61
1, 57819, Note_off_c, 0, 47, 61
1, 57824, Note_off_c, 0, 92, 64
1, 57857, Note_off_c, 0, 42, 35
1, 57900, Note_on_c, 0, 92, 82
1, 57933, Note_off_c, 0, 94, 66
1, 57965, Note_on_c, 0, 80, 87
1, 57995, Note_off_c, 0, 92, 39
1, 58037, Note_off_c, 0, 80, 63
1, 58038, Note_on_c, 0, 82, 71
1, 58056, Note_off_c, 0, 82, 63
1, 58103, Note_on_c, 0, 80, 76
1, 58147, Control_c, 0, 64, 100
1, 58162, Control_c, 0, 64, 73
1, 58166, Note_off_c, 0, 80, 62
1, 58177, Control_c, 0, 64, 57
1, 58181, Note_on_c, 0, 54, 93
1, 58187, Note_on_c, 0, 42, 71
1, 58187, Note_on_c, 0, 49, 79
1, 58192, Control_c, 0, 64, 56
1, 58194, Note_on_c, 0, 46, 77
1, 58199, Note_on_c, 0, 95, 84
1, 58206, Control_c, 0, 64, 65
1, 58221, Control_c, 0, 64, 77
1, 58236, Control_c, 0, 64, 96
1, 58249, Note_off_c, 0, 42, 62
1, 58250, Note_off_c, 0, 46, 59
1, 58250, Control_c, 0, 64, 127
1, 58259, Note_off_c, 0, 49, 60
1, 58282, Note_off_c, 0, 54, 57
1, 58286, Note_on_c, 0, 94, 75
1, 58312, Note_off_c, 0, 95, 48
1, 58351, Note_on_c, 0, 82, 74
1, 58351, Note_off_c, 0, 94, 64
1, 58399, Control_c, 0, 64, 90
1, 58414, Control_c, 0, 64, 68
1, 58420, Note_on_c, 0, 56, 104
1, 58426, Note_on_c, 0, 53, 75
1, 58429, Control_c, 0, 64, 64
1, 58430, Note_on_c, 0, 44, 82
1, 58431, Note_on_c, 0, 47, 73
1, 58434, Note_on_c, 0, 94, 92
1, 58443, Control_c, 0, 64, 68
1, 58458, Control_c, 0, 64, 77
1, 58473, Control_c, 0, 64, 91
1, 58485, Note_off_c, 0, 82, 50
1, 58488, Control_c, 0, 64, 127
1, 58488, Note_off_c, 0, 47, 63
1, 58497, Note_off_c, 0, 53, 64
1, 58508, Note_off_c, 0, 44, 63
1, 58519, Note_on_c, 0, 92, 77
1, 58551, Note_off_c, 0, 94, 64
1, 58554, Note_off_c, 0, 56, 55
1, 58585, Note_on_c, 0, 80, 82
1, 58599, Note_off_c, 0, 92, 64
1, 58634, Control_c, 0, 64, 98
1, 58649, Control_c, 0, 64, 72
1, 58664, Control_c, 0, 64, 56
1, 58670, Note_on_c, 0, 58, 99
1, 58670, Note_on_c, 0, 51, 68
1, 58673, Note_on_c, 0, 54, 83
1, 58676, Note_on_c, 0, 92, 95
1, 58681, Note_on_c, 0, 46, 77
1, 58701, Control_c, 0, 64, 66
1, 58716, Control_c, 0, 64, 75
1, 58724, Note_off_c, 0, 80, 58
1, 58730, Control_c, 0, 64, 89
1, 58745, Control_c, 0, 64, 114
1, 58760, Note_off_c, 0, 54, 60
1, 58760, Control_c, 0, 64, 127
1, 58769, Note_on_c, 0, 90, 87
1, 58771, Note_off_c, 0, 46, 57
1, 58786, Note_off_c, 0, 51, 61
1, 58808, Note_off_c, 0, 92, 63
1, 58813, Note_off_c, 0, 58, 58
1, 58831, Note_on_c, 0, 78, 90
1, 58851, Note_off_c, 0, 90, 63
1, 58879, Control_c, 0, 64, 100
1, 58894, Control_c, 0, 64, 73
1, 58909, Control_c, 0, 64, 62
1, 58916, Note_off_c, 0, 78, 57
1, 58924, Control_c, 0, 64, 66
1, 58926, Note_on_c, 0, 58, 103
1, 58929, Note_on_c, 0, 56, 90
1, 58932, Note_on_c, 0, 90, 100
1, 58937, Note_on_c, 0, 46, 76
1, 58939, Control_c, 0, 64, 77
1, 58944, Note_on_c, 0, 50, 54
1, 58953, Control_c, 0, 64, 100
1, 58959, Note_off_c, 0, 46, 65
1, 58968, Control_c, 0, 64, 127
1, 58970, Note_off_c, 0, 50, 55
1, 58986, Note_off_c, 0, 56, 58
1, 58996, Note_off_c, 0, 90, 62
1, 59013, Note_off_c, 0, 58, 59
1, 59019, Note_on_c, 0, 89, 89
1, 59096, Note_on_c, 0, 77, 85
1, 59135, Note_off_c, 0, 89, 64
1, 59141, Note_on_c, 0, 51, 76
1, 59152, Note_off_c, 0, 77, 62
1, 59170, Note_on_c, 0, 54, 69
1, 59176, Control_c, 0, 64, 105
1, 59191, Control_c, 0, 64, 75
1, 59205, Control_c, 0, 64, 54
1, 59220, Control_c, 0, 64, 53
1, 59231, Note_on_c, 0, 63, 97
1, 59235, Control_c, 0, 64, 67
1, 59237, Note_on_c, 0, 75, 98
1, 59237, Note_on_c, 0, 87, 99
1, 59250, Control_c, 0, 64, 87
1, 59262, Note_on_c, 0, 58, 49
1, 59264, Control_c, 0, 64, 127
1, 59268, Note_off_c, 0, 51, 62
1, 59272, Note_off_c, 0, 87, 61
1, 59272, Note_off_c, 0, 63, 65
1, 59274, Note_off_c, 0, 75, 61
1, 59283, Note_off_c, 0, 58, 62
1, 59287, Note_off_c, 0, 54, 62
1, 59508, Note_on_c, 0, 58, 68
1, 59510, Control_c, 0, 64, 88
1, 59512, Note_on_c, 0, 66, 88
1, 59525, Control_c, 0, 64, 66
1, 59526, Note_off_c, 0, 58, 64
1, 59538, Note_on_c, 0, 57, 68
1, 59540, Control_c, 0, 64, 31
1, 59554, Control_c, 0, 64, 0
1, 59568, Note_off_c, 0, 57, 65
1, 59569, Control_c, 0, 64, 53
1, 59572, Note_off_c, 0, 66, 63
1, 59580, Note_on_c, 0, 63, 75
1, 59584, Control_c, 0, 64, 67
1, 59585, Note_on_c, 0, 60, 75
1, 59588, Note_on_c, 0, 68, 72
1, 59598, Control_c, 0, 64, 77
1, 59613, Control_c, 0, 64, 90
1, 59618, Note_off_c, 0, 60, 59
1, 59628, Control_c, 0, 64, 105
1, 59639, Note_off_c, 0, 63, 60
1, 59640, Note_on_c, 0, 66, 82
1, 59641, Note_off_c, 0, 68, 60
1, 59643, Control_c, 0, 64, 127
1, 59652, Note_on_c, 0, 57, 75
1, 59694, Note_off_c, 0, 66, 65
1, 59696, Note_off_c, 0, 57, 61
1, 59705, Note_on_c, 0, 65, 86
1, 59707, Note_on_c, 0, 63, 75
1, 59710, Note_on_c, 0, 60, 87
1, 59761, Note_off_c, 0, 60, 59
1, 59770, Note_off_c, 0, 63, 58
1, 59773, Note_on_c, 0, 66, 88
1, 59776, Note_off_c, 0, 65, 64
1, 59786, Note_on_c, 0, 57, 74
1, 59809, Note_off_c, 0, 57, 63
1, 59817, Note_off_c, 0, 66, 59
1, 59844, Note_on_c, 0, 65, 79
1, 59845, Note_on_c, 0, 63, 74
1, 59849, Note_on_c, 0, 60, 82
1, 59890, Note_off_c, 0, 63, 61
1, 59893, Note_on_c, 0, 66, 97
1, 59896, Note_off_c, 0, 65, 63
1, 59898, Note_on_c, 0, 57, 86
1, 59899, Note_off_c, 0, 60, 60
1, 59939, Note_off_c, 0, 66, 63
1, 59940, Note_off_c, 0, 57, 64
1, 59973, Note_on_c, 0, 60, 83
1, 59976, Note_on_c, 0, 63, 75
1, 59977, Note_on_c, 0, 68, 85
1, 60023, Note_off_c, 0, 60, 61
1, 60029, Note_on_c, 0, 66, 93
1, 60033, Note_on_c, 0, 57, 87
1, 60035, Note_off_c, 0, 63, 58
1, 60035, Note_off_c, 0, 68, 62
1, 60074, Note_off_c, 0, 66, 70
1, 60078, Note_off_c, 0, 57, 65
1, 60098, Note_on_c, 0, 60, 101
1, 60098, Note_on_c, 0, 69, 98
1, 60104, Note_on_c, 0, 63, 86
1, 60134, Note_off_c, 0, 60, 63
1, 60159, Note_off_c, 0, 63, 59
1, 60196, Note_off_c, 0, 69, 58
1, 60318, Control_c, 0, 64, 119
1, 60324, Note_on_c, 0, 63, 82
1, 60328, Note_on_c, 0, 51, 102
1, 60333, Control_c, 0, 64, 81
1, 60334, Note_on_c, 0, 49, 85
1, 60340, Note_on_c, 0, 39, 76
1, 60348, Control_c, 0, 64, 63
1, 60351, Note_on_c, 0, 42, 65
1, 60360, Note_on_c, 0, 46, 33
1, 60363, Control_c, 0, 64, 59
1, 60366, Note_on_c, 0, 45, 55
1, 60371, Note_on_c, 0, 52, 39
1, 60377, Control_c, 0, 64, 67
1, 60392, Control_c, 0, 64, 82
1, 60396, Note_on_c, 0, 65, 73
1, 60403, Note_off_c, 0, 52, 56
1, 60407, Control_c, 0, 64, 127
1, 60410, Note_off_c, 0, 63, 59
1, 60457, Note_off_c, 0, 65, 62
1, 60467, Note_off_c, 0, 42, 39
1, 60468, Note_off_c, 0, 49, 48
1, 60475, Note_on_c, 0, 63, 86
1, 60477, Note_off_c, 0, 39, 62
1, 60493, Note_off_c, 0, 51, 52
1, 60507, Note_off_c, 0, 45, 36
1, 60524, Note_off_c, 0, 46, 39
1, 60542, Note_off_c, 0, 63, 61
1, 60569, Note_on_c, 0, 75, 93
1, 60573, Note_on_c, 0, 51, 110
1, 60580, Note_on_c, 0, 39, 84
1, 60581, Note_on_c, 0, 42, 69
1, 60582, Note_on_c, 0, 48, 80
1, 60585, Note_on_c, 0, 45, 61
1, 60626, Note_on_c, 0, 76, 38
1, 60661, Note_off_c, 0, 75, 61
1, 60668, Note_on_c, 0, 77, 60
1, 60670, Note_on_c, 0, 79, 78
1, 60678, Note_off_c, 0, 76, 51
1, 60691, Note_off_c, 0, 39, 58
1, 60691, Note_off_c, 0, 79, 69
1, 60694, Note_off_c, 0, 45, 57
1, 60698, Note_off_c, 0, 77, 65
1, 60702, Note_off_c, 0, 48, 57
1, 60711, Note_off_c, 0, 42, 56
1, 60723, Note_off_c, 0, 51, 53
1, 60754, Note_on_c, 0, 73, 77
1, 60769, Note_on_c, 0, 75, 66
1, 60803, Note_off_c, 0, 73, 62
1, 60819, Note_off_c, 0, 75, 0
1, 60819, Note_on_c, 0, 75, 8
1, 60821, Note_on_c, 0, 51, 106
1, 60824, Note_on_c, 0, 48, 84
1, 60829, Note_on_c, 0, 45, 75
1, 60833, Note_on_c, 0, 39, 73
1, 60837, Note_on_c, 0, 85, 83
1, 60841, Note_on_c, 0, 87, 81
1, 60843, Note_on_c, 0, 42, 57
1, 60876, Note_off_c, 0, 75, 34
1, 60879, Note_off_c, 0, 42, 61
1, 60896, Note_off_c, 0, 45, 61
1, 60899, Note_off_c, 0, 39, 63
1, 60909, Note_off_c, 0, 85, 62
1, 60910, Note_off_c, 0, 48, 61
1, 60915, Note_on_c, 0, 86, 36
1, 60923, Note_on_c, 0, 89, 81
1, 60924, Note_off_c, 0, 87, 64
1, 60943, Note_off_c, 0, 51, 57
1, 60950, Note_off_c, 0, 86, 49
1, 60952, Note_off_c, 0, 89, 71
1, 60961, Note_on_c, 0, 88, 25
1, 60998, Note_off_c, 0, 88, 30
1, 61018, Note_on_c, 0, 87, 88
1, 61081, Control_c, 0, 64, 81
1, 61096, Control_c, 0, 64, 62
1, 61111, Control_c, 0, 64, 62
1, 61121, Note_on_c, 0, 51, 101
1, 61125, Note_on_c, 0, 99, 98
1, 61125, Control_c, 0, 64, 75
1, 61128, Note_on_c, 0, 39, 73
1, 61128, Note_on_c, 0, 46, 83
1, 61137, Note_off_c, 0, 87, 62
1, 61138, Note_on_c, 0, 100, 85
1, 61140, Control_c, 0, 64, 112
1, 61144, Note_on_c, 0, 42, 52
1, 61150, Note_off_c, 0, 100, 69
1, 61155, Note_off_c, 0, 39, 67
1, 61155, Note_off_c, 0, 46, 66
1, 61155, Control_c, 0, 64, 127
1, 61163, Note_off_c, 0, 51, 60
1, 61165, Note_off_c, 0, 42, 64
1, 61165, Note_off_c, 0, 99, 65
1, 61458, Note_on_c, 0, 66, 89
1, 61466, Control_c, 0, 64, 113
1, 61467, Note_on_c, 0, 57, 67
1, 61481, Control_c, 0, 64, 84
1, 61496, Control_c, 0, 64, 65
1, 61511, Control_c, 0, 64, 38
1, 61526, Control_c, 0, 64, 37
1, 61541, Control_c, 0, 64, 57
1, 61553, Note_off_c, 0, 66, 57
1, 61554, Note_on_c, 0, 68, 80
1, 61556, Control_c, 0, 64, 69
1, 61559, Note_on_c, 0, 60, 74
1, 61559, Note_on_c, 0, 63, 74
1, 61569, Note_off_c, 0, 57, 60
1, 61571, Control_c, 0, 64, 78
1, 61585, Control_c, 0, 64, 92
1, 61600, Control_c, 0, 64, 120
1, 61612, Note_off_c, 0, 60, 59
1, 61615, Control_c, 0, 64, 127
1, 61633, Note_off_c, 0, 68, 60
1, 61633, Note_off_c, 0, 63, 59
1, 61641, Note_on_c, 0, 66, 91
1, 61653, Note_on_c, 0, 57, 75
1, 61702, Note_off_c, 0, 66, 62
1, 61710, Note_off_c, 0, 57, 61
1, 61717, Note_on_c, 0, 63, 76
1, 61717, Note_on_c, 0, 65, 82
1, 61720, Note_on_c, 0, 60, 86
1, 61773, Note_off_c, 0, 60, 59
1, 61778, Note_off_c, 0, 65, 65
1, 61785, Note_off_c, 0, 63, 60
1, 61787, Note_on_c, 0, 66, 92
1, 61794, Note_on_c, 0, 57, 85
1, 61800, Control_c, 0, 64, 108
1, 61815, Control_c, 0, 64, 91
1, 61830, Control_c, 0, 64, 87
1, 61830, Note_off_c, 0, 66, 62
1, 61836, Note_off_c, 0, 57, 61
1, 61845, Control_c, 0, 64, 92
1, 61852, Note_on_c, 0, 63, 77
1, 61855, Note_on_c, 0, 65, 84
1, 61856, Note_on_c, 0, 60, 90
1, 61860, Control_c, 0, 64, 105
1, 61874, Control_c, 0, 64, 127
1, 61904, Note_off_c, 0, 60, 61
1, 61907, Note_off_c, 0, 65, 0
1, 61916, Note_on_c, 0, 65, 84
1, 61917, Note_off_c, 0, 63, 62
1, 61918, Note_on_c, 0, 57, 87
1, 61943, Note_off_c, 0, 65, 63
1, 61963, Note_off_c, 0, 57, 63
1, 61984, Note_on_c, 0, 63, 70
1, 61988, Note_on_c, 0, 60, 91
1, 61991, Note_on_c, 0, 68, 88
1, 62031, Note_off_c, 0, 60, 60
1, 62039, Note_off_c, 0, 63, 54
1, 62045, Note_off_c, 0, 68, 62
1, 62050, Note_on_c, 0, 66, 92
1, 62051, Note_on_c, 0, 57, 88
1, 62092, Note_off_c, 0, 57, 64
1, 62097, Note_off_c, 0, 66, 67
1, 62105, Note_on_c, 0, 63, 86
1, 62107, Note_on_c, 0, 60, 92
1, 62107, Note_on_c, 0, 69, 97
1, 62146, Note_off_c, 0, 60, 59
1, 62170, Note_off_c, 0, 63, 62
1, 62181, Note_off_c, 0, 69, 59
1, 62320, Control_c, 0, 64, 81
1, 62325, Note_on_c, 0, 63, 88
1, 62335, Control_c, 0, 64, 61
1, 62337, Note_on_c, 0, 51, 99
1, 62340, Note_on_c, 0, 49, 80
1, 62349, Note_on_c, 0, 39, 80
1, 62350, Control_c, 0, 64, 46
1, 62362, Note_on_c, 0, 45, 58
1, 62364, Control_c, 0, 64, 59
1, 62372, Note_on_c, 0, 42, 52
1, 62379, Control_c, 0, 64, 69
1, 62384, Note_on_c, 0, 52, 27
1, 62385, Note_off_c, 0, 52, 127
1, 62394, Control_c, 0, 64, 83
1, 62395, Note_on_c, 0, 65, 79
1, 62408, Control_c, 0, 64, 116
1, 62410, Note_off_c, 0, 63, 61
1, 62419, Poly_aftertouch_c, 0, 52, 0
1, 62423, Control_c, 0, 64, 127
1, 62453, Note_off_c, 0, 65, 63
1, 62460, Note_off_c, 0, 49, 51
1, 62480, Note_off_c, 0, 42, 55
1, 62482, Note_off_c, 0, 45, 57
1, 62489, Note_on_c, 0, 63, 80
1, 62497, Note_off_c, 0, 51, 53
1, 62501, Note_off_c, 0, 39, 60
1, 62510, Note_off_c, 0, 63, 64
1, 62575, Note_on_c, 0, 75, 77
1, 62582, Note_on_c, 0, 51, 98
1, 62585, Note_on_c, 0, 48, 81
1, 62589, Note_on_c, 0, 39, 79
1, 62592, Note_on_c, 0, 42, 69
1, 62593, Note_on_c, 0, 76, 69
1, 62597, Note_on_c, 0, 45, 69
1, 62602, Poly_aftertouch_c, 0, 64, 0
1, 62611, Note_on_c, 0, 77, 56
1, 62638, Note_off_c, 0, 75, 60
1, 62648, Note_on_c, 0, 78, 70
1, 62652, Note_off_c, 0, 77, 42
1, 62665, Note_off_c, 0, 39, 62
1, 62667, Note_on_c, 0, 79, 72
1, 62668, Note_off_c, 0, 76, 63
1, 62676, Note_off_c, 0, 42, 56
1, 62678, Note_off_c, 0, 78, 51
1, 62679, Note_off_c, 0, 45, 54
1, 62682, Note_off_c, 0, 79, 67
1, 62688, Note_off_c, 0, 48, 59
1, 62690, Note_off_c, 0, 51, 53
1, 62733, Note_on_c, 0, 75, 90
1, 62804, Note_off_c, 0, 75, 62
1, 62811, Note_on_c, 0, 87, 92
1, 62816, Note_on_c, 0, 48, 75
1, 62822, Note_on_c, 0, 51, 99
1, 62828, Note_on_c, 0, 45, 69
1, 62837, Note_on_c, 0, 39, 70
1, 62860, Note_off_c, 0, 45, 65
1, 62875, Note_off_c, 0, 48, 60
1, 62891, Note_on_c, 0, 89, 75
1, 62906, Note_off_c, 0, 87, 62
1, 62913, Note_off_c, 0, 51, 54
1, 62915, Note_off_c, 0, 89, 70
1, 62918, Note_off_c, 0, 39, 57
1, 62971, Note_on_c, 0, 87, 84
1, 63084, Control_c, 0, 64, 90
1, 63085, Note_on_c, 0, 51, 107
1, 63085, Note_off_c, 0, 87, 63
1, 63089, Note_on_c, 0, 46, 85
1, 63092, Note_on_c, 0, 39, 79
1, 63096, Note_on_c, 0, 42, 74
1, 63099, Control_c, 0, 64, 71
1, 63113, Control_c, 0, 64, 60
1, 63114, Note_on_c, 0, 99, 75
1, 63128, Control_c, 0, 64, 57
1, 63130, Note_on_c, 0, 100, 69
1, 63143, Control_c, 0, 64, 65
1, 63149, Note_on_c, 0, 101, 44
1, 63158, Control_c, 0, 64, 75
1, 63173, Control_c, 0, 64, 93
1, 63174, Note_off_c, 0, 101, 48
1, 63195, Control_c, 0, 64, 112
1, 63210, Control_c, 0, 64, 127
1, 63222, Note_off_c, 0, 99, 61
1, 63226, Note_on_c, 0, 101, 79
1, 63231, Note_off_c, 0, 100, 64
1, 63279, Note_off_c, 0, 39, 55
1, 63290, Note_off_c, 0, 51, 56
1, 63304, Note_off_c, 0, 42, 59
1, 63314, Note_off_c, 0, 46, 57
1, 63315, Note_on_c, 0, 99, 92
1, 63324, Note_off_c, 0, 101, 61
1, 63386, Note_off_c, 0, 99, 64
1, 63387, Note_on_c, 0, 87, 86
1, 63466, Note_on_c, 0, 89, 73
1, 63468, Note_off_c, 0, 87, 62
1, 63541, Note_on_c, 0, 87, 81
1, 63550, Note_off_c, 0, 89, 65
1, 63565, Control_c, 0, 64, 107
1, 63580, Control_c, 0, 64, 79
1, 63580, Note_on_c, 0, 53, 101
1, 63586, Note_on_c, 0, 41, 87
1, 63587, Note_on_c, 0, 49, 88
1, 63595, Control_c, 0, 64, 63
1, 63600, Note_on_c, 0, 44, 71
1, 63609, Control_c, 0, 64, 56
1, 63617, Note_on_c, 0, 97, 92
1, 63624, Control_c, 0, 64, 62
1, 63639, Control_c, 0, 64, 72
1, 63654, Control_c, 0, 64, 90
1, 63669, Control_c, 0, 64, 127
1, 63675, Note_off_c, 0, 87, 60
1, 63693, Note_on_c, 0, 99, 84
1, 63701, Note_off_c, 0, 97, 66
1, 63764, Note_off_c, 0, 53, 58
1, 63764, Note_off_c, 0, 41, 60
1, 63788, Note_on_c, 0, 97, 80
1, 63797, Note_off_c, 0, 44, 60
1, 63806, Note_off_c, 0, 49, 59
1, 63806, Note_off_c, 0, 99, 66
1, 63848, Note_on_c, 0, 85, 84
1, 63869, Note_off_c, 0, 97, 55
1, 63925, Note_on_c, 0, 87, 76
1, 63927, Note_off_c, 0, 85, 61
1, 64009, Note_on_c, 0, 85, 73
1, 64027, Note_off_c, 0, 87, 62
1, 64048, Control_c, 0, 64, 80
1, 64062, Control_c, 0, 64, 63
1, 64069, Note_on_c, 0, 42, 82
1, 64069, Note_on_c, 0, 54, 99
1, 64070, Note_on_c, 0, 49, 85
1, 64075, Note_on_c, 0, 46, 86
1, 64077, Control_c, 0, 64, 60
1, 64085, Note_on_c, 0, 95, 93
1, 64092, Control_c, 0, 64, 69
1, 64107, Control_c, 0, 64, 84
1, 64122, Control_c, 0, 64, 127
1, 64134, Note_off_c, 0, 85, 60
1, 64135, Note_off_c, 0, 46, 60
1, 64143, Note_off_c, 0, 49, 62
1, 64147, Note_off_c, 0, 42, 62
1, 64179, Note_off_c, 0, 54, 57
1, 64180, Note_on_c, 0, 94, 86
1, 64214, Note_off_c, 0, 95, 63
1, 64267, Note_on_c, 0, 82, 84
1, 64268, Note_off_c, 0, 94, 63
1, 64314, Control_c, 0, 64, 99
1, 64329, Control_c, 0, 64, 71
1, 64339, Note_on_c, 0, 56, 104
1, 64343, Control_c, 0, 64, 62
1, 64345, Note_on_c, 0, 47, 79
1, 64346, Note_on_c, 0, 53, 77
1, 64349, Note_on_c, 0, 44, 82
1, 64352, Note_on_c, 0, 94, 99
1, 64358, Control_c, 0, 64, 66
1, 64373, Control_c, 0, 64, 77
1, 64387, Control_c, 0, 64, 103
1, 64390, Note_off_c, 0, 82, 59
1, 64402, Control_c, 0, 64, 127
1, 64405, Note_off_c, 0, 47, 62
1, 64418, Note_off_c, 0, 53, 62
1, 64429, Note_off_c, 0, 44, 62
1, 64438, Note_on_c, 0, 92, 92
1, 64462, Note_off_c, 0, 56, 58
1, 64489, Note_off_c, 0, 94, 64
1, 64507, Note_on_c, 0, 80, 90
1, 64529, Note_off_c, 0, 92, 64
1, 64581, Control_c, 0, 64, 100
1, 64596, Control_c, 0, 64, 74
1, 64608, Note_on_c, 0, 58, 97
1, 64610, Control_c, 0, 64, 63
1, 64611, Note_on_c, 0, 54, 84
1, 64611, Note_on_c, 0, 92, 105
1, 64618, Note_on_c, 0, 51, 78
1, 64625, Control_c, 0, 64, 67
1, 64627, Note_on_c, 0, 46, 79
1, 64640, Control_c, 0, 64, 79
1, 64645, Note_off_c, 0, 80, 64
1, 64655, Control_c, 0, 64, 103
1, 64670, Control_c, 0, 64, 127
1, 64705, Note_on_c, 0, 90, 95
1, 64763, Note_off_c, 0, 51, 56
1, 64765, Note_off_c, 0, 92, 63
1, 64788, Note_off_c, 0, 46, 57
1, 64790, Note_on_c, 0, 78, 100
1, 64790, Note_off_c, 0, 54, 51
1, 64814, Note_off_c, 0, 90, 61
1, 64817, Note_off_c, 0, 58, 62
1, 64840, Control_c, 0, 64, 105
1, 64855, Control_c, 0, 64, 78
1, 64870, Control_c, 0, 64, 65
1, 64884, Control_c, 0, 64, 69
1, 64897, Note_off_c, 0, 78, 58
1, 64899, Control_c, 0, 64, 92
1, 64901, Note_on_c, 0, 46, 86
1, 64903, Note_on_c, 0, 58, 104
1, 64903, Note_on_c, 0, 56, 92
1, 64905, Note_on_c, 0, 90, 103
1, 64909, Note_on_c, 0, 50, 73
1, 64914, Control_c, 0, 64, 127
1, 64937, Note_off_c, 0, 50, 65
1, 64937, Note_off_c, 0, 58, 67
1, 64947, Note_off_c, 0, 56, 63
1, 64956, Note_off_c, 0, 46, 62
1, 64969, Note_off_c, 0, 90, 65
1, 65029, Note_on_c, 0, 89, 103
1, 65136, Note_on_c, 0, 79, 84
1, 65137, Note_on_c, 0, 77, 95
1, 65151, Note_off_c, 0, 89, 63
1, 65160, Note_off_c, 0, 77, 61
1, 65163, Note_off_c, 0, 79, 58
1, 65235, Note_on_c, 0, 39, 86
1, 65260, Note_on_c, 0, 42, 85
1, 65324, Note_on_c, 0, 46, 80
1, 65360, Control_c, 0, 64, 98
1, 65375, Control_c, 0, 64, 67
1, 65389, Control_c, 0, 64, 46
1, 65401, Note_on_c, 0, 51, 109
1, 65404, Control_c, 0, 64, 54
1, 65419, Control_c, 0, 64, 69
1, 65424, Note_on_c, 0, 63, 99
1, 65441, Control_c, 0, 64, 89
1, 65456, Control_c, 0, 64, 127
1, 65471, Note_off_c, 0, 39, 62
1, 65493, Note_off_c, 0, 46, 58
1, 65494, Note_off_c, 0, 42, 60
1, 65494, Note_off_c, 0, 51, 60
1, 65502, Note_on_c, 0, 64, 9
1, 65535, Note_off_c, 0, 64, 38
1, 65552, Note_off_c, 0, 63, 58
1, 65558, Note_on_c, 0, 66, 67
1, 65558, Note_on_c, 0, 75, 65
1, 65669, Note_on_c, 0, 70, 78
1, 65682, Note_off_c, 0, 66, 62
1, 65690, Note_off_c, 0, 75, 60
1, 65717, Note_off_c, 0, 70, 64
1, 65788, Note_on_c, 0, 75, 91
1, 65881, Note_on_c, 0, 87, 84
1, 65887, Note_on_c, 0, 78, 82
1, 65908, Note_off_c, 0, 75, 59
1, 65988, Note_on_c, 0, 82, 90
1, 66013, Note_off_c, 0, 78, 60
1, 66024, Note_off_c, 0, 87, 61
1, 66050, Note_off_c, 0, 82, 63
1, 66095, Note_on_c, 0, 63, 109
1, 66102, Note_on_c, 0, 51, 89
1, 66110, Note_on_c, 0, 87, 103
1, 66126, Note_off_c, 0, 51, 65
1, 66134, Note_off_c, 0, 63, 65
1, 66218, Note_on_c, 0, 90, 80
1, 66220, Poly_aftertouch_c, 0, 54, 0
1, 66222, Note_on_c, 0, 99, 79
1, 66252, Note_off_c, 0, 87, 58
1, 66322, Note_on_c, 0, 94, 80
1, 66331, Note_off_c, 0, 99, 64
1, 66332, Note_off_c, 0, 90, 60
1, 66360, Note_off_c, 0, 94, 58
1, 66698, Note_on_c, 0, 63, 102
1, 66701, Note_on_c, 0, 51, 82
1, 66736, Note_off_c, 0, 63, 62
1, 66754, Note_off_c, 0, 51, 61
1, 66856, Note_on_c, 0, 39, 80
1, 66863, Note_on_c, 0, 43, 73
1, 66919, Note_on_c, 0, 46, 74
1, 66960, Note_on_c, 0, 50, 95
1, 66969, Note_on_c, 0, 62, 103
1, 66984, Control_c, 0, 64, 87
1, 66999, Control_c, 0, 64, 62
1, 67013, Control_c, 0, 64, 51
1, 67028, Control_c, 0, 64, 62
1, 67043, Control_c, 0, 64, 74
1, 67058, Control_c, 0, 64, 94
1, 67073, Control_c, 0, 64, 127
1, 67080, Note_on_c, 0, 65, 77
1, 67109, Note_off_c, 0, 62, 55
1, 67134, Note_off_c, 0, 39, 54
1, 67142, Note_on_c, 0, 74, 50
1, 67155, Note_off_c, 0, 50, 55
1, 67172, Note_on_c, 0, 68, 85
1, 67176, Note_off_c, 0, 43, 31
1, 67185, Note_off_c, 0, 65, 64
1, 67192, Note_off_c, 0, 46, 52
1, 67193, Note_off_c, 0, 68, 71
1, 67215, Note_off_c, 0, 74, 66
1, 67261, Note_on_c, 0, 74, 91
1, 67345, Note_on_c, 0, 77, 83
1, 67377, Note_on_c, 0, 86, 50
1, 67381, Note_off_c, 0, 74, 61
1, 67412, Note_on_c, 0, 80, 89
1, 67416, Note_off_c, 0, 86, 0
1, 67416, Note_on_c, 0, 86, 24
1, 67425, Note_off_c, 0, 77, 63
1, 67434, Note_off_c, 0, 80, 68
1, 67446, Note_off_c, 0, 86, 64
1, 67495, Note_on_c, 0, 86, 101
1, 67538, Note_on_c, 0, 88, 29
1, 67539, Note_off_c, 0, 88, 127
1, 67577, Note_on_c, 0, 89, 80
1, 67580, Note_on_c, 0, 98, 87
1, 67634, Note_on_c, 0, 92, 94
1, 67646, Note_off_c, 0, 98, 67
1, 67657, Note_on_c, 0, 94, 54
1, 67658, Note_off_c, 0, 86, 59
1, 67665, Note_off_c, 0, 89, 64
1, 67684, Note_off_c, 0, 94, 60
1, 67695, Note_off_c, 0, 92, 67
1, 67711, Note_on_c, 0, 62, 106
1, 67715, Note_on_c, 0, 50, 79
1, 67741, Note_off_c, 0, 62, 67
1, 67755, Note_off_c, 0, 50, 60
1, 67885, Note_on_c, 0, 39, 71
1, 67892, Note_on_c, 0, 43, 63
1, 67940, Control_c, 0, 64, 94
1, 67942, Note_on_c, 0, 46, 85
1, 67955, Control_c, 0, 64, 66
1, 67969, Note_on_c, 0, 49, 99
1, 67970, Control_c, 0, 64, 50
1, 67976, Note_on_c, 0, 61, 95
1, 67984, Control_c, 0, 64, 60
1, 67998, Note_off_c, 0, 39, 65
1, 67999, Control_c, 0, 64, 74
1, 68003, Note_off_c, 0, 43, 60
1, 68009, Note_off_c, 0, 46, 62
1, 68010, Note_off_c, 0, 49, 62
1, 68014, Control_c, 0, 64, 103
1, 68028, Control_c, 0, 64, 127
1, 68049, Note_off_c, 0, 61, 63
1, 68051, Note_on_c, 0, 64, 73
1, 68098, Note_on_c, 0, 67, 75
1, 68131, Note_off_c, 0, 64, 58
1, 68176, Note_on_c, 0, 73, 81
1, 68180, Note_off_c, 0, 67, 63
1, 68237, Note_off_c, 0, 73, 64
1, 68292, Note_on_c, 0, 61, 101
1, 68299, Note_on_c, 0, 73, 79
1, 68301, Note_on_c, 0, 49, 84
1, 68306, Note_on_c, 0, 75, 79
1, 68319, Note_on_c, 0, 51, 53
1, 68322, Note_on_c, 0, 60, 51
1, 68323, Note_off_c, 0, 60, 127
1, 68325, Note_on_c, 0, 48, 62
1, 68343, Note_off_c, 0, 51, 58
1, 68359, Note_off_c, 0, 48, 45
1, 68363, Note_off_c, 0, 75, 57
1, 68402, Note_on_c, 0, 77, 56
1, 68403, Note_on_c, 0, 76, 57
1, 68403, Note_off_c, 0, 73, 61
1, 68433, Note_on_c, 0, 80, 81
1, 68483, Note_off_c, 0, 49, 57
1, 68486, Note_off_c, 0, 76, 59
1, 68488, Note_off_c, 0, 61, 58
1, 68489, Note_off_c, 0, 77, 57
1, 68499, Note_on_c, 0, 85, 85
1, 68510, Note_off_c, 0, 80, 64
1, 68530, Note_off_c, 0, 85, 63
1, 68573, Note_on_c, 0, 63, 103
1, 68580, Note_on_c, 0, 51, 83
1, 68583, Note_on_c, 0, 85, 89
1, 68599, Note_on_c, 0, 87, 75
1, 68617, Note_off_c, 0, 87, 59
1, 68643, Note_on_c, 0, 97, 75
1, 68656, Note_on_c, 0, 88, 76
1, 68674, Note_off_c, 0, 51, 63
1, 68693, Note_off_c, 0, 63, 59
1, 68719, Note_on_c, 0, 91, 87
1, 68737, Note_off_c, 0, 97, 66
1, 68765, Note_off_c, 0, 88, 62
1, 68768, Note_off_c, 0, 91, 64
1, 68775, Note_off_c, 0, 85, 61
1, 68787, Note_on_c, 0, 64, 104
1, 68792, Note_on_c, 0, 52, 83
1, 68814, Note_off_c, 0, 64, 66
1, 68826, Note_off_c, 0, 52, 65
1, 68967, Note_on_c, 0, 39, 80
1, 68999, Note_on_c, 0, 45, 68
1, 68999, Control_c, 0, 64, 99
1, 69014, Control_c, 0, 64, 72
1, 69029, Control_c, 0, 64, 52
1, 69034, Note_off_c, 0, 39, 68
1, 69036, Note_on_c, 0, 48, 76
1, 69044, Control_c, 0, 64, 48
1, 69059, Control_c, 0, 64, 64
1, 69060, Note_on_c, 0, 60, 100
1, 69062, Note_on_c, 0, 66, 93
1, 69068, Note_on_c, 0, 54, 107
1, 69073, Control_c, 0, 64, 79
1, 69085, Note_off_c, 0, 45, 62
1, 69088, Control_c, 0, 64, 127
1, 69099, Note_off_c, 0, 48, 64
1, 69107, Note_off_c, 0, 54, 64
1, 69154, Note_on_c, 0, 72, 75
1, 69199, Note_off_c, 0, 60, 56
1, 69209, Note_off_c, 0, 66, 55
1, 69236, Note_on_c, 0, 63, 80
1, 69251, Note_off_c, 0, 63, 67
1, 69282, Note_off_c, 0, 72, 65
1, 69364, Note_on_c, 0, 72, 85
1, 69453, Note_on_c, 0, 75, 79
1, 69453, Note_on_c, 0, 84, 67
1, 69482, Note_off_c, 0, 72, 59
1, 69519, Note_on_c, 0, 78, 97
1, 69521, Note_on_c, 0, 63, 93
1, 69538, Note_on_c, 0, 51, 71
1, 69543, Note_off_c, 0, 75, 64
1, 69548, Note_on_c, 0, 61, 51
1, 69550, Note_off_c, 0, 63, 61
1, 69556, Note_off_c, 0, 51, 63
1, 69558, Note_off_c, 0, 78, 65
1, 69559, Note_off_c, 0, 84, 64
1, 69572, Note_off_c, 0, 61, 59
1, 69604, Note_on_c, 0, 60, 92
1, 69607, Note_on_c, 0, 84, 93
1, 69610, Note_on_c, 0, 48, 83
1, 69694, Note_on_c, 0, 96, 80
1, 69701, Note_on_c, 0, 87, 80
1, 69754, Note_off_c, 0, 60, 52
1, 69782, Note_on_c, 0, 90, 79
1, 69783, Note_off_c, 0, 96, 63
1, 69798, Note_off_c, 0, 84, 59
1, 69827, Note_off_c, 0, 87, 59
1, 69835, Note_off_c, 0, 48, 62
1, 69841, Note_off_c, 0, 90, 60
1, 70121, Note_on_c, 0, 38, 82
1, 70121, Note_on_c, 0, 41, 85
1, 70184, Note_on_c, 0, 44, 81
1, 70275, Control_c, 0, 64, 108
1, 70290, Control_c, 0, 64, 85
1, 70296, Note_on_c, 0, 47, 102
1, 70299, Note_on_c, 0, 59, 97
1, 70305, Control_c, 0, 64, 68
1, 70319, Control_c, 0, 64, 52
1, 70334, Control_c, 0, 64, 49
1, 70349, Control_c, 0, 64, 62
1, 70364, Control_c, 0, 64, 74
1, 70379, Control_c, 0, 64, 92
1, 70394, Control_c, 0, 64, 127
1, 70409, Note_on_c, 0, 62, 81
1, 70436, Note_off_c, 0, 59, 60
1, 70443, Note_on_c, 0, 71, 59
1, 70493, Note_on_c, 0, 65, 83
1, 70512, Note_off_c, 0, 62, 61
1, 70529, Note_off_c, 0, 38, 36
1, 70532, Note_off_c, 0, 41, 58
1, 70534, Note_off_c, 0, 65, 67
1, 70543, Note_off_c, 0, 71, 60
1, 70543, Note_off_c, 0, 47, 59
1, 70549, Note_off_c, 0, 44, 56
1, 70594, Note_on_c, 0, 71, 93
1, 70692, Note_on_c, 0, 74, 81
1, 70714, Note_on_c, 0, 83, 62
1, 70725, Note_off_c, 0, 71, 60
1, 70776, Note_on_c, 0, 77, 87
1, 70795, Note_off_c, 0, 74, 64
1, 70827, Note_off_c, 0, 77, 64
1, 70835, Note_off_c, 0, 83, 62
1, 70866, Note_on_c, 0, 59, 99
1, 70875, Note_on_c, 0, 47, 79
1, 70882, Note_on_c, 0, 83, 92
1, 70913, Note_off_c, 0, 59, 66
1, 70915, Note_off_c, 0, 47, 60
1, 70968, Note_on_c, 0, 86, 82
1, 70972, Note_on_c, 0, 95, 86
1, 71041, Note_on_c, 0, 89, 76
1, 71071, Note_off_c, 0, 95, 64
1, 71104, Note_off_c, 0, 83, 53
1, 71111, Note_off_c, 0, 86, 53
1, 71121, Note_off_c, 0, 89, 62
1, 71387, Note_on_c, 0, 59, 104
1, 71390, Note_on_c, 0, 47, 87
1, 71428, Note_off_c, 0, 59, 67
1, 71440, Note_off_c, 0, 47, 61
1, 71555, Note_on_c, 0, 37, 76
1, 71567, Note_on_c, 0, 40, 66
1, 71607, Note_on_c, 0, 43, 69
1, 71611, Note_on_c, 0, 46, 101
1, 71631, Note_on_c, 0, 58, 102
1, 71637, Control_c, 0, 64, 88
1, 71652, Control_c, 0, 64, 67
1, 71667, Control_c, 0, 64, 47
1, 71682, Control_c, 0, 64, 51
1, 71697, Control_c, 0, 64, 64
1, 71712, Control_c, 0, 64, 75
1, 71718, Note_on_c, 0, 61, 78
1, 71727, Control_c, 0, 64, 93
1, 71742, Note_off_c, 0, 58, 57
1, 71742, Control_c, 0, 64, 127
1, 71762, Note_off_c, 0, 37, 51
1, 71769, Note_on_c, 0, 64, 70
1, 71812, Note_on_c, 0, 70, 78
1, 71819, Note_off_c, 0, 61, 60
1, 71825, Note_off_c, 0, 43, 32
1, 71830, Note_off_c, 0, 64, 65
1, 71844, Note_off_c, 0, 46, 56
1, 71859, Note_off_c, 0, 70, 66
1, 71864, Note_off_c, 0, 40, 33
1, 71906, Note_on_c, 0, 70, 91
1, 71976, Note_on_c, 0, 73, 75
1, 72025, Note_on_c, 0, 76, 72
1, 72031, Note_off_c, 0, 70, 60
1, 72063, Note_on_c, 0, 82, 85
1, 72069, Note_off_c, 0, 73, 64
1, 72073, Note_off_c, 0, 76, 68
1, 72093, Note_off_c, 0, 82, 63
1, 72144, Note_on_c, 0, 82, 93
1, 72237, Note_on_c, 0, 94, 83
1, 72247, Note_on_c, 0, 84, 61
1, 72254, Note_on_c, 0, 92, 59
1, 72273, Note_on_c, 0, 85, 43
1, 72276, Note_on_c, 0, 87, 65
1, 72280, Note_off_c, 0, 94, 66
1, 72287, Note_off_c, 0, 92, 0
1, 72287, Note_on_c, 0, 92, 36
1, 72302, Note_on_c, 0, 93, 51
1, 72328, Note_off_c, 0, 93, 55
1, 72341, Note_off_c, 0, 92, 65
1, 72354, Note_off_c, 0, 84, 64
1, 72358, Note_off_c, 0, 87, 65
1, 72360, Note_off_c, 0, 82, 61
1, 72362, Note_on_c, 0, 58, 109
1, 72366, Note_on_c, 0, 46, 83
1, 72367, Note_off_c, 0, 85, 40
1, 72402, Note_off_c, 0, 58, 67
1, 72413, Note_off_c, 0, 46, 61
1, 72480, Poly_aftertouch_c, 0, 59, 0
1, 72563, Note_on_c, 0, 36, 68
1, 72572, Note_on_c, 0, 39, 61
1, 72591, Note_on_c, 0, 42, 62
1, 72595, Control_c, 0, 64, 98
1, 72610, Control_c, 0, 64, 71
1, 72624, Control_c, 0, 64, 21
1, 72639, Control_c, 0, 64, 0
1, 72642, Note_on_c, 0, 57, 94
1, 72645, Note_on_c, 0, 45, 90
1, 72654, Control_c, 0, 64, 47
1, 72665, Note_on_c, 0, 43, 59
1, 72669, Control_c, 0, 64, 69
1, 72671, Note_off_c, 0, 36, 63
1, 72680, Note_off_c, 0, 39, 63
1, 72684, Control_c, 0, 64, 87
1, 72692, Note_off_c, 0, 45, 61
1, 72693, Note_off_c, 0, 43, 37
1, 72695, Note_off_c, 0, 42, 62
1, 72698, Control_c, 0, 64, 127
1, 72719, Note_on_c, 0, 60, 70
1, 72733, Note_off_c, 0, 57, 63
1, 72792, Note_on_c, 0, 63, 74
1, 72793, Note_on_c, 0, 69, 67
1, 72817, Note_off_c, 0, 60, 60
1, 72845, Note_off_c, 0, 63, 63
1, 72877, Note_off_c, 0, 69, 66
1, 72946, Note_on_c, 0, 57, 97
1, 72946, Note_on_c, 0, 69, 89
1, 72951, Note_on_c, 0, 45, 81
1, 73041, Note_on_c, 0, 72, 76
1, 73057, Note_on_c, 0, 81, 63
1, 73078, Note_off_c, 0, 69, 61
1, 73098, Note_off_c, 0, 45, 59
1, 73122, Note_on_c, 0, 75, 84
1, 73130, Note_off_c, 0, 57, 58
1, 73135, Note_off_c, 0, 72, 64
1, 73145, Note_off_c, 0, 75, 66
1, 73160, Note_off_c, 0, 81, 62
1, 73213, Note_on_c, 0, 81, 95
1, 73214, Note_on_c, 0, 58, 105
1, 73220, Note_on_c, 0, 46, 83
1, 73297, Note_on_c, 0, 84, 81
1, 73312, Note_on_c, 0, 93, 78
1, 73381, Note_off_c, 0, 46, 60
1, 73385, Note_on_c, 0, 87, 84
1, 73390, Note_off_c, 0, 58, 55
1, 73423, Note_off_c, 0, 93, 58
1, 73435, Note_off_c, 0, 81, 53
1, 73443, Note_off_c, 0, 84, 53
1, 73497, Note_off_c, 0, 87, 62
1, 73499, Note_on_c, 0, 60, 101
1, 73505, Note_on_c, 0, 48, 82
1, 73530, Note_off_c, 0, 60, 64
1, 73549, Note_off_c, 0, 48, 59
1, 73677, Control_c, 0, 64, 118
1, 73692, Control_c, 0, 64, 115
1, 73707, Control_c, 0, 64, 110
1, 73721, Control_c, 0, 64, 107
1, 73736, Control_c, 0, 64, 103
1, 73751, Control_c, 0, 64, 101
1, 73766, Control_c, 0, 64, 97
1, 73780, Control_c, 0, 64, 93
1, 73795, Control_c, 0, 64, 89
1, 73810, Control_c, 0, 64, 84
1, 73825, Control_c, 0, 64, 80
1, 73840, Control_c, 0, 64, 75
1, 73855, Control_c, 0, 64, 70
1, 73870, Control_c, 0, 64, 63
1, 73885, Control_c, 0, 64, 58
1, 73900, Control_c, 0, 64, 54
1, 73944, Control_c, 0, 64, 53
1, 73959, Control_c, 0, 64, 51
1, 73962, Note_on_c, 0, 35, 37
1, 73973, Control_c, 0, 64, 47
1, 73973, Control_c, 0, 67, 10
1, 73988, Control_c, 0, 64, 44
1, 73988, Control_c, 0, 67, 15
1, 74003, Control_c, 0, 64, 42
1, 74003, Control_c, 0, 67, 22
1, 74018, Control_c, 0, 64, 39
1, 74018, Control_c, 0, 67, 27
1, 74033, Control_c, 0, 64, 33
1, 74033, Control_c, 0, 67, 32
1, 74047, Control_c, 0, 64, 22
1, 74047, Control_c, 0, 67, 37
1, 74062, Control_c, 0, 64, 0
1, 74062, Control_c, 0, 67, 42
1, 74065, Note_on_c, 0, 50, 55
1, 74077, Control_c, 0, 67, 47
1, 74092, Control_c, 0, 67, 51
1, 74108, Control_c, 0, 64, 21
1, 74108, Control_c, 0, 67, 57
1, 74123, Control_c, 0, 64, 33
1, 74123, Control_c, 0, 67, 62
1, 74138, Control_c, 0, 64, 45
1, 74138, Control_c, 0, 67, 67
1, 74152, Control_c, 0, 64, 58
1, 74152, Control_c, 0, 67, 72
1, 74167, Control_c, 0, 64, 65
1, 74167, Control_c, 0, 67, 78
1, 74182, Control_c, 0, 64, 72
1, 74182, Control_c, 0, 67, 84
1, 74196, Control_c, 0, 64, 82
1, 74196, Control_c, 0, 67, 90
1, 74200, Note_off_c, 0, 50, 62
1, 74211, Control_c, 0, 64, 94
1, 74211, Control_c, 0, 67, 95
1, 74223, Note_on_c, 0, 47, 61
1, 74226, Control_c, 0, 64, 110
1, 74226, Control_c, 0, 67, 99
1, 74241, Control_c, 0, 64, 127
1, 74241, Control_c, 0, 67, 102
1, 74256, Control_c, 0, 67, 104
1, 74278, Note_on_c, 0, 43, 54
1, 74300, Control_c, 0, 67, 104
1, 74329, Note_off_c, 0, 47, 50
1, 74330, Control_c, 0, 67, 105
1, 74332, Note_off_c, 0, 35, 39
1, 74337, Note_off_c, 0, 43, 59
1, 74365, Note_on_c, 0, 54, 62
1, 74373, Note_on_c, 0, 66, 64
1, 74391, Note_off_c, 0, 54, 65
1, 74411, Note_off_c, 0, 66, 63
1, 74449, Note_on_c, 0, 62, 58
1, 74475, Note_on_c, 0, 59, 37
1, 74500, Control_c, 0, 64, 115
1, 74502, Note_off_c, 0, 62, 59
1, 74510, Note_on_c, 0, 67, 68
1, 74512, Note_off_c, 0, 59, 50
1, 74515, Control_c, 0, 64, 92
1, 74522, Note_on_c, 0, 55, 56
1, 74530, Control_c, 0, 64, 73
1, 74530, Control_c, 0, 67, 104
1, 74544, Control_c, 0, 64, 60
1, 74559, Control_c, 0, 64, 52
1, 74574, Control_c, 0, 64, 60
1, 74588, Note_on_c, 0, 47, 45
1, 74589, Control_c, 0, 64, 68
1, 74589, Control_c, 0, 67, 104
1, 74596, Note_on_c, 0, 62, 68
1, 74602, Note_off_c, 0, 55, 62
1, 74603, Control_c, 0, 64, 78
1, 74603, Control_c, 0, 67, 103
1, 74618, Control_c, 0, 64, 92
1, 74619, Note_off_c, 0, 67, 49
1, 74633, Control_c, 0, 64, 101
1, 74648, Control_c, 0, 64, 113
1, 74651, Note_off_c, 0, 62, 63
1, 74663, Control_c, 0, 64, 127
1, 74689, Note_on_c, 0, 59, 43
1, 74722, Control_c, 0, 67, 102
1, 74753, Note_on_c, 0, 55, 46
1, 74909, Note_on_c, 0, 80, 72
1, 74931, Control_c, 0, 67, 102
1, 74932, Note_on_c, 0, 68, 54
1, 74941, Note_off_c, 0, 59, 26
1, 74986, Note_off_c, 0, 47, 38
1, 75001, Note_off_c, 0, 55, 55
1, 75041, Note_off_c, 0, 68, 51
1, 75073, Note_on_c, 0, 74, 45
1, 75077, Note_on_c, 0, 71, 38
1, 75079, Note_off_c, 0, 80, 58
1, 75138, Control_c, 0, 67, 101
1, 75149, Note_off_c, 0, 71, 0
1, 75188, Note_on_c, 0, 79, 59
1, 75193, Poly_aftertouch_c, 0, 71, 127
1, 75212, Note_on_c, 0, 67, 37
1, 75229, Note_off_c, 0, 74, 54
1, 75262, Poly_aftertouch_c, 0, 71, 0
1, 75264, Control_c, 0, 67, 101
1, 75271, Note_off_c, 0, 67, 0
1, 75271, Note_on_c, 0, 67, 12
1, 75279, Control_c, 0, 67, 100
1, 75293, Control_c, 0, 67, 100
1, 75338, Control_c, 0, 64, 115
1, 75352, Control_c, 0, 64, 92
1, 75367, Control_c, 0, 64, 75
1, 75378, Note_on_c, 0, 36, 43
1, 75382, Control_c, 0, 64, 61
1, 75382, Control_c, 0, 67, 99
1, 75397, Control_c, 0, 64, 49
1, 75397, Control_c, 0, 67, 98
1, 75412, Control_c, 0, 64, 60
1, 75412, Control_c, 0, 67, 97
1, 75426, Control_c, 0, 64, 71
1, 75426, Control_c, 0, 67, 94
1, 75441, Control_c, 0, 64, 87
1, 75441, Control_c, 0, 67, 88
1, 75456, Control_c, 0, 64, 124
1, 75456, Control_c, 0, 67, 81
1, 75462, Note_off_c, 0, 36, 58
1, 75470, Note_off_c, 0, 67, 55
1, 75471, Control_c, 0, 64, 127
1, 75471, Control_c, 0, 67, 72
1, 75480, Note_on_c, 0, 48, 62
1, 75486, Control_c, 0, 67, 63
1, 75500, Control_c, 0, 67, 55
1, 75511, Note_off_c, 0, 48, 66
1, 75515, Control_c, 0, 67, 48
1, 75530, Control_c, 0, 67, 46
1, 75545, Control_c, 0, 67, 45
1, 75557, Note_off_c, 0, 79, 62
1, 75560, Control_c, 0, 67, 43
1, 75567, Note_on_c, 0, 78, 73
1, 75575, Control_c, 0, 67, 37
1, 75590, Control_c, 0, 67, 28
1, 75590, Note_on_c, 0, 66, 58
1, 75605, Control_c, 0, 67, 19
1, 75606, Note_on_c, 0, 43, 46
1, 75614, Note_off_c, 0, 66, 57
1, 75619, Control_c, 0, 67, 13
1, 75634, Control_c, 0, 67, 12
1, 75648, Note_on_c, 0, 51, 44
1, 75649, Control_c, 0, 67, 11
1, 75664, Control_c, 0, 67, 10
1, 75679, Control_c, 0, 67, 0
1, 75691, Note_on_c, 0, 48, 55
1, 75695, Note_off_c, 0, 43, 56
1, 75708, Note_off_c, 0, 51, 54
1, 75718, Note_on_c, 0, 80, 82
1, 75724, Note_off_c, 0, 48, 66
1, 75730, Note_on_c, 0, 55, 64
1, 75733, Note_on_c, 0, 68, 72
1, 75767, Note_off_c, 0, 55, 62
1, 75801, Note_off_c, 0, 68, 63
1, 75804, Note_off_c, 0, 80, 63
1, 75829, Note_off_c, 0, 78, 34
1, 75852, Note_on_c, 0, 51, 60
1, 75877, Note_on_c, 0, 79, 78
1, 75885, Note_on_c, 0, 67, 55
1, 75919, Note_off_c, 0, 67, 56
1, 75945, Note_on_c, 0, 60, 59
1, 76003, Note_on_c, 0, 55, 54
1, 76013, Note_off_c, 0, 79, 61
1, 76070, Note_off_c, 0, 51, 30
1, 76132, Note_on_c, 0, 87, 74
1, 76165, Note_on_c, 0, 75, 54
1, 76199, Note_on_c, 0, 63, 55
1, 76216, Note_off_c, 0, 87, 61
1, 76229, Note_off_c, 0, 75, 57
1, 76293, Note_off_c, 0, 60, 20
1, 76342, Note_off_c, 0, 63, 53
1, 76355, Note_on_c, 0, 51, 49
1, 76373, Note_on_c, 0, 84, 66
1, 76375, Note_on_c, 0, 72, 63
1, 76401, Note_off_c, 0, 84, 67
1, 76405, Note_off_c, 0, 72, 64
1, 76449, Note_on_c, 0, 60, 56
1, 76449, Note_off_c, 0, 55, 16
1, 76479, Note_off_c, 0, 60, 64
1, 76516, Note_off_c, 0, 51, 41
1, 76683, Note_on_c, 0, 38, 51
1, 76732, Control_c, 0, 64, 109
1, 76746, Control_c, 0, 64, 92
1, 76761, Control_c, 0, 64, 78
1, 76776, Control_c, 0, 64, 67
1, 76785, Note_on_c, 0, 53, 77
1, 76791, Control_c, 0, 64, 57
1, 76806, Control_c, 0, 64, 54
1, 76821, Control_c, 0, 64, 61
1, 76836, Control_c, 0, 64, 66
1, 76851, Control_c, 0, 64, 72
1, 76866, Control_c, 0, 64, 81
1, 76877, Note_off_c, 0, 53, 63
1, 76880, Control_c, 0, 64, 92
1, 76881, Note_on_c, 0, 47, 60
1, 76895, Control_c, 0, 64, 110
1, 76910, Control_c, 0, 64, 127
1, 76922, Note_on_c, 0, 43, 67
1, 76943, Note_off_c, 0, 47, 62
1, 76943, Note_off_c, 0, 38, 61
1, 76949, Note_off_c, 0, 43, 63
1, 77000, Note_on_c, 0, 54, 71
1, 77012, Note_on_c, 0, 66, 58
1, 77030, Note_off_c, 0, 54, 63
1, 77046, Note_off_c, 0, 66, 62
1, 77070, Note_on_c, 0, 62, 64
1, 77111, Note_on_c, 0, 59, 30
1, 77139, Note_on_c, 0, 55, 57
1, 77139, Note_off_c, 0, 62, 60
1, 77143, Note_on_c, 0, 67, 76
1, 77146, Control_c, 0, 64, 110
1, 77153, Note_off_c, 0, 59, 58
1, 77161, Control_c, 0, 64, 91
1, 77176, Control_c, 0, 64, 76
1, 77190, Control_c, 0, 64, 63
1, 77205, Control_c, 0, 64, 35
1, 77220, Control_c, 0, 64, 15
1, 77224, Note_on_c, 0, 47, 52
1, 77230, Note_on_c, 0, 65, 77
1, 77235, Control_c, 0, 64, 46
1, 77250, Control_c, 0, 64, 63
1, 77257, Note_off_c, 0, 55, 62
1, 77265, Control_c, 0, 64, 70
1, 77280, Note_off_c, 0, 67, 59
1, 77280, Control_c, 0, 64, 79
1, 77295, Control_c, 0, 64, 90
1, 77310, Control_c, 0, 64, 103
1, 77311, Note_off_c, 0, 65, 65
1, 77325, Control_c, 0, 64, 127
1, 77329, Note_on_c, 0, 59, 64
1, 77402, Note_on_c, 0, 55, 56
1, 77542, Note_on_c, 0, 80, 81
1, 77554, Note_on_c, 0, 68, 67
1, 77602, Note_off_c, 0, 59, 31
1, 77634, Note_off_c, 0, 55, 60
1, 77664, Note_off_c, 0, 47, 49
1, 77677, Note_on_c, 0, 74, 70
1, 77680, Note_on_c, 0, 71, 64
1, 77686, Note_off_c, 0, 68, 62
1, 77702, Note_off_c, 0, 80, 61
1, 77784, Note_on_c, 0, 79, 81
1, 77785, Note_on_c, 0, 67, 81
1, 77846, Note_off_c, 0, 74, 53
1, 77851, Control_c, 0, 64, 110
1, 77866, Control_c, 0, 64, 81
1, 77881, Control_c, 0, 64, 65
1, 77884, Note_on_c, 0, 40, 63
1, 77895, Control_c, 0, 64, 53
1, 77899, Note_off_c, 0, 71, 52
1, 77910, Control_c, 0, 64, 59
1, 77924, Note_off_c, 0, 67, 61
1, 77925, Control_c, 0, 64, 70
1, 77939, Control_c, 0, 64, 86
1, 77954, Control_c, 0, 64, 127
1, 77957, Note_off_c, 0, 40, 63
1, 77959, Note_on_c, 0, 52, 78
1, 77959, Note_off_c, 0, 79, 60
1, 78003, Note_off_c, 0, 52, 61
1, 78064, Note_on_c, 0, 83, 86
1, 78070, Note_on_c, 0, 71, 79
1, 78077, Note_on_c, 0, 48, 65
1, 78115, Note_off_c, 0, 71, 57
1, 78159, Note_on_c, 0, 55, 59
1, 78201, Note_on_c, 0, 52, 66
1, 78216, Note_on_c, 0, 85, 86
1, 78217, Note_off_c, 0, 83, 60
1, 78225, Note_on_c, 0, 73, 80
1, 78229, Note_off_c, 0, 48, 63
1, 78245, Note_off_c, 0, 55, 58
1, 78267, Note_off_c, 0, 52, 62
1, 78275, Note_on_c, 0, 60, 62
1, 78296, Note_off_c, 0, 60, 62
1, 78307, Note_off_c, 0, 73, 62
1, 78346, Note_off_c, 0, 85, 63
1, 78362, Note_on_c, 0, 84, 88
1, 78365, Note_on_c, 0, 72, 81
1, 78366, Note_on_c, 0, 55, 61
1, 78412, Note_off_c, 0, 72, 65
1, 78472, Note_off_c, 0, 84, 57
1, 78481, Note_on_c, 0, 64, 58
1, 78544, Note_on_c, 0, 60, 47
1, 78598, Note_on_c, 0, 91, 85
1, 78604, Note_on_c, 0, 79, 75
1, 78681, Note_off_c, 0, 79, 60
1, 78693, Note_off_c, 0, 91, 54
1, 78698, Note_off_c, 0, 55, 57
1, 78715, Note_on_c, 0, 67, 55
1, 78773, Note_off_c, 0, 64, 41
1, 78778, Control_c, 0, 67, 8
1, 78785, Note_off_c, 0, 67, 53
1, 78793, Control_c, 0, 67, 12
1, 78799, Note_on_c, 0, 88, 76
1, 78808, Control_c, 0, 67, 24
1, 78809, Note_on_c, 0, 76, 70
1, 78823, Control_c, 0, 67, 42
1, 78824, Note_off_c, 0, 88, 65
1, 78830, Note_on_c, 0, 55, 47
1, 78836, Note_off_c, 0, 76, 67
1, 78837, Control_c, 0, 67, 57
1, 78852, Control_c, 0, 67, 69
1, 78867, Control_c, 0, 67, 78
1, 78875, Note_on_c, 0, 64, 59
1, 78883, Control_c, 0, 67, 86
1, 78898, Control_c, 0, 67, 91
1, 78905, Note_off_c, 0, 64, 66
1, 78920, Control_c, 0, 67, 93
1, 78924, Note_off_c, 0, 55, 58
1, 78931, Note_off_c, 0, 60, 39
1, 79024, Control_c, 0, 67, 92
1, 79054, Control_c, 0, 67, 92
1, 79113, Control_c, 0, 67, 91
1, 79140, Note_on_c, 0, 41, 45
1, 79142, Control_c, 0, 64, 121
1, 79142, Control_c, 0, 67, 91
1, 79157, Control_c, 0, 64, 113
1, 79172, Control_c, 0, 64, 103
1, 79186, Control_c, 0, 64, 92
1, 79201, Control_c, 0, 64, 79
1, 79216, Control_c, 0, 64, 68
1, 79231, Control_c, 0, 64, 59
1, 79246, Control_c, 0, 64, 51
1, 79247, Note_on_c, 0, 56, 71
1, 79275, Control_c, 0, 64, 54
1, 79275, Control_c, 0, 67, 90
1, 79290, Control_c, 0, 64, 58
1, 79305, Control_c, 0, 64, 62
1, 79305, Control_c, 0, 67, 90
1, 79320, Control_c, 0, 64, 65
1, 79320, Control_c, 0, 67, 89
1, 79334, Control_c, 0, 64, 71
1, 79334, Control_c, 0, 67, 89
1, 79349, Control_c, 0, 64, 82
1, 79364, Control_c, 0, 64, 100
1, 79378, Note_off_c, 0, 56, 62
1, 79379, Control_c, 0, 64, 127
1, 79402, Note_on_c, 0, 53, 57
1, 79438, Note_on_c, 0, 48, 54
1, 79444, Note_off_c, 0, 53, 65
1, 79462, Note_off_c, 0, 48, 63
1, 79473, Note_off_c, 0, 41, 42
1, 79483, Control_c, 0, 67, 88
1, 79498, Control_c, 0, 67, 88
1, 79526, Control_c, 0, 67, 87
1, 79541, Control_c, 0, 67, 86
1, 79544, Note_on_c, 0, 59, 3
1, 79551, Note_on_c, 0, 72, 9
1, 79551, Note_on_c, 0, 71, 16
1, 79554, Note_off_c, 0, 59, 0
1, 79556, Control_c, 0, 67, 85
1, 79571, Control_c, 0, 67, 84
1, 79575, Note_on_c, 0, 68, 56
1, 79575, Note_on_c, 0, 65, 41
1, 79579, Poly_aftertouch_c, 0, 59, 0
1, 79585, Control_c, 0, 67, 84
1, 79592, Note_off_c, 0, 71, 38
1, 79596, Note_off_c, 0, 72, 38
1, 79600, Control_c, 0, 67, 83
1, 79601, Note_off_c, 0, 65, 58
1, 79608, Note_on_c, 0, 60, 77
1, 79611, Note_off_c, 0, 68, 53
1, 79615, Control_c, 0, 67, 81
1, 79630, Control_c, 0, 64, 105
1, 79630, Control_c, 0, 67, 77
1, 79645, Control_c, 0, 64, 85
1, 79645, Control_c, 0, 67, 71
1, 79667, Control_c, 0, 64, 70
1, 79667, Control_c, 0, 67, 67
1, 79682, Control_c, 0, 64, 62
1, 79682, Control_c, 0, 67, 64
1, 79696, Note_on_c, 0, 58, 85
1, 79697, Note_on_c, 0, 43, 51
1, 79697, Control_c, 0, 64, 66
1, 79697, Control_c, 0, 67, 58
1, 79712, Control_c, 0, 64, 76
1, 79712, Control_c, 0, 67, 45
1, 79723, Note_off_c, 0, 60, 57
1, 79727, Control_c, 0, 64, 92
1, 79727, Control_c, 0, 67, 24
1, 79742, Control_c, 0, 64, 127
1, 79742, Control_c, 0, 67, 0
1, 79748, Note_off_c, 0, 58, 64
1, 79763, Note_on_c, 0, 52, 67
1, 79839, Note_on_c, 0, 48, 63
1, 79927, Note_on_c, 0, 73, 79
1, 79927, Note_on_c, 0, 85, 79
1, 80010, Note_off_c, 0, 43, 34
1, 80013, Note_off_c, 0, 52, 62
1, 80031, Note_on_c, 0, 76, 67
1, 80032, Note_off_c, 0, 73, 63
1, 80037, Note_off_c, 0, 85, 62
1, 80038, Note_off_c, 0, 48, 61
1, 80039, Note_on_c, 0, 79, 68
1, 80115, Note_on_c, 0, 84, 66
1, 80118, Note_on_c, 0, 72, 85
1, 80118, Note_off_c, 0, 76, 61
1, 80125, Note_off_c, 0, 79, 62
1, 80130, Note_off_c, 0, 84, 66
1, 80156, Note_off_c, 0, 72, 66
1, 80198, Note_on_c, 0, 44, 73
1, 80261, Control_c, 0, 64, 110
1, 80276, Control_c, 0, 64, 88
1, 80290, Control_c, 0, 64, 71
1, 80297, Note_on_c, 0, 60, 89
1, 80305, Control_c, 0, 64, 60
1, 80320, Control_c, 0, 64, 59
1, 80334, Control_c, 0, 64, 66
1, 80349, Control_c, 0, 64, 79
1, 80364, Control_c, 0, 64, 100
1, 80379, Control_c, 0, 64, 127
1, 80383, Note_on_c, 0, 56, 81
1, 80401, Note_off_c, 0, 60, 62
1, 80461, Note_on_c, 0, 53, 67
1, 80477, Note_on_c, 0, 59, 83
1, 80487, Note_off_c, 0, 44, 35
1, 80493, Note_on_c, 0, 71, 70
1, 80517, Note_off_c, 0, 71, 66
1, 80522, Note_off_c, 0, 56, 57
1, 80538, Note_off_c, 0, 59, 61
1, 80538, Note_on_c, 0, 65, 69
1, 80547, Note_on_c, 0, 68, 75
1, 80599, Note_off_c, 0, 68, 64
1, 80602, Note_off_c, 0, 65, 66
1, 80604, Note_on_c, 0, 72, 73
1, 80610, Note_on_c, 0, 60, 85
1, 80633, Note_off_c, 0, 53, 54
1, 80636, Note_off_c, 0, 72, 57
1, 80639, Control_c, 0, 64, 94
1, 80654, Control_c, 0, 64, 75
1, 80669, Control_c, 0, 64, 58
1, 80684, Control_c, 0, 64, 0
1, 80690, Note_on_c, 0, 62, 88
1, 80698, Note_on_c, 0, 47, 59
1, 80713, Control_c, 0, 64, 40
1, 80718, Note_off_c, 0, 60, 63
1, 80728, Control_c, 0, 64, 64
1, 80743, Control_c, 0, 64, 72
1, 80753, Note_off_c, 0, 62, 64
1, 80757, Control_c, 0, 64, 79
1, 80772, Control_c, 0, 64, 86
1, 80782, Note_on_c, 0, 56, 75
1, 80787, Control_c, 0, 64, 96
1, 80802, Control_c, 0, 64, 117
1, 80817, Control_c, 0, 64, 127
1, 80851, Poly_aftertouch_c, 0, 54, 127
1, 80852, Note_on_c, 0, 53, 60
1, 80887, Poly_aftertouch_c, 0, 54, 0
1, 80946, Note_on_c, 0, 86, 78
1, 80964, Note_on_c, 0, 74, 67
1, 81050, Note_off_c, 0, 74, 64
1, 81067, Note_off_c, 0, 86, 64
1, 81069, Note_on_c, 0, 77, 57
1, 81073, Note_on_c, 0, 80, 71
1, 81095, Note_off_c, 0, 56, 59
1, 81098, Note_off_c, 0, 47, 38
1, 81113, Note_off_c, 0, 53, 59
1, 81133, Note_off_c, 0, 77, 57
1, 81166, Note_on_c, 0, 85, 68
1, 81175, Note_off_c, 0, 80, 63
1, 81192, Note_off_c, 0, 85, 66
1, 81194, Note_on_c, 0, 73, 65
1, 81213, Note_off_c, 0, 73, 67
1, 81280, Note_on_c, 0, 46, 72
1, 81373, Control_c, 0, 64, 119
1, 81388, Control_c, 0, 64, 99
1, 81400, Note_on_c, 0, 61, 86
1, 81402, Control_c, 0, 64, 81
1, 81417, Control_c, 0, 64, 67
1, 81432, Control_c, 0, 64, 48
1, 81435, Note_on_c, 0, 68, 23
1, 81447, Control_c, 0, 64, 15
1, 81462, Control_c, 0, 64, 44
1, 81476, Note_off_c, 0, 68, 52
1, 81477, Control_c, 0, 64, 64
1, 81489, Note_on_c, 0, 58, 80
1, 81492, Control_c, 0, 64, 77
1, 81507, Control_c, 0, 64, 93
1, 81514, Note_off_c, 0, 61, 62
1, 81522, Control_c, 0, 64, 112
1, 81536, Control_c, 0, 64, 127
1, 81544, Note_on_c, 0, 54, 75
1, 81574, Note_off_c, 0, 46, 60
1, 81581, Note_on_c, 0, 60, 80
1, 81582, Note_on_c, 0, 72, 85
1, 81590, Note_off_c, 0, 58, 62
1, 81607, Note_off_c, 0, 54, 58
1, 81629, Note_off_c, 0, 60, 62
1, 81632, Note_on_c, 0, 66, 81
1, 81632, Note_off_c, 0, 72, 65
1, 81647, Note_on_c, 0, 70, 70
1, 81701, Note_on_c, 0, 61, 94
1, 81702, Note_off_c, 0, 66, 53
1, 81707, Note_on_c, 0, 73, 84
1, 81713, Control_c, 0, 64, 114
1, 81716, Note_off_c, 0, 70, 61
1, 81728, Control_c, 0, 64, 90
1, 81743, Control_c, 0, 64, 71
1, 81758, Control_c, 0, 64, 48
1, 81774, Note_on_c, 0, 63, 64
1, 81775, Note_off_c, 0, 63, 127
1, 81775, Control_c, 0, 64, 21
1, 81778, Note_on_c, 0, 49, 79
1, 81778, Note_off_c, 0, 61, 64
1, 81782, Note_on_c, 0, 64, 82
1, 81788, Control_c, 0, 64, 57
1, 81791, Note_off_c, 0, 73, 60
1, 81803, Control_c, 0, 64, 71
1, 81818, Control_c, 0, 64, 85
1, 81823, Note_off_c, 0, 64, 63
1, 81833, Control_c, 0, 64, 102
1, 81847, Note_on_c, 0, 58, 93
1, 81848, Control_c, 0, 64, 119
1, 81862, Control_c, 0, 64, 127
1, 81938, Note_on_c, 0, 55, 79
1, 82006, Note_on_c, 0, 88, 97
1, 82011, Note_on_c, 0, 76, 95
1, 82089, Note_off_c, 0, 58, 61
1, 82107, Note_on_c, 0, 79, 73
1, 82109, Note_off_c, 0, 55, 62
1, 82109, Note_off_c, 0, 49, 52
1, 82118, Note_on_c, 0, 82, 81
1, 82121, Note_off_c, 0, 88, 64
1, 82125, Note_off_c, 0, 76, 64
1, 82195, Note_off_c, 0, 79, 58
1, 82197, Note_on_c, 0, 87, 78
1, 82206, Note_on_c, 0, 75, 95
1, 82210, Note_off_c, 0, 82, 53
1, 82219, Note_off_c, 0, 87, 69
1, 82243, Note_off_c, 0, 75, 61
1, 82247, Note_on_c, 0, 74, 43
1, 82272, Note_off_c, 0, 74, 56
1, 82291, Note_on_c, 0, 48, 83
1, 82330, Control_c, 0, 64, 101
1, 82344, Control_c, 0, 64, 77
1, 82359, Control_c, 0, 64, 63
1, 82374, Control_c, 0, 64, 50
1, 82383, Note_on_c, 0, 63, 97
1, 82389, Control_c, 0, 64, 57
1, 82404, Control_c, 0, 64, 67
1, 82419, Control_c, 0, 64, 79
1, 82434, Control_c, 0, 64, 99
1, 82447, Note_on_c, 0, 60, 86
1, 82449, Control_c, 0, 64, 127
1, 82479, Note_off_c, 0, 63, 62
1, 82520, Note_on_c, 0, 56, 81
1, 82546, Note_off_c, 0, 48, 64
1, 82553, Note_on_c, 0, 62, 90
1, 82553, Note_on_c, 0, 74, 86
1, 82563, Note_off_c, 0, 60, 59
1, 82586, Note_off_c, 0, 56, 59
1, 82608, Note_off_c, 0, 62, 59
1, 82610, Note_on_c, 0, 66, 84
1, 82614, Note_off_c, 0, 74, 67
1, 82620, Note_on_c, 0, 71, 65
1, 82666, Note_off_c, 0, 66, 68
1, 82701, Note_on_c, 0, 63, 89
1, 82702, Note_on_c, 0, 75, 80
1, 82726, Note_off_c, 0, 71, 58
1, 82737, Control_c, 0, 64, 78
1, 82752, Control_c, 0, 64, 53
1, 82764, Note_on_c, 0, 66, 90
1, 82767, Control_c, 0, 64, 0
1, 82771, Note_on_c, 0, 51, 82
1, 82782, Control_c, 0, 64, 41
1, 82790, Note_off_c, 0, 75, 66
1, 82792, Note_off_c, 0, 63, 66
1, 82797, Control_c, 0, 64, 66
1, 82811, Control_c, 0, 64, 80
1, 82812, Note_off_c, 0, 66, 67
1, 82826, Control_c, 0, 64, 114
1, 82841, Control_c, 0, 64, 127
1, 82878, Note_on_c, 0, 60, 93
1, 82887, Note_off_c, 0, 51, 59
1, 82963, Note_on_c, 0, 57, 85
1, 82994, Note_off_c, 0, 60, 61
1, 83048, Note_off_c, 0, 57, 63
1, 83057, Note_on_c, 0, 78, 101
1, 83059, Note_on_c, 0, 90, 95
1, 83183, Note_off_c, 0, 78, 58
1, 83189, Note_on_c, 0, 84, 83
1, 83194, Note_off_c, 0, 90, 59
1, 83198, Note_on_c, 0, 81, 70
1, 83283, Note_on_c, 0, 77, 99
1, 83286, Note_on_c, 0, 89, 90
1, 83338, Note_on_c, 0, 87, 29
1, 83358, Control_c, 0, 64, 86
1, 83373, Control_c, 0, 64, 64
1, 83377, Note_off_c, 0, 77, 63
1, 83379, Note_off_c, 0, 89, 65
1, 83388, Control_c, 0, 64, 38
1, 83389, Note_off_c, 0, 87, 62
1, 83391, Note_off_c, 0, 81, 60
1, 83397, Note_off_c, 0, 84, 60
1, 83411, Control_c, 0, 64, 55
1, 83415, Note_on_c, 0, 61, 108
1, 83423, Note_on_c, 0, 49, 77
1, 83426, Control_c, 0, 64, 69
1, 83440, Control_c, 0, 64, 85
1, 83447, Note_off_c, 0, 49, 65
1, 83455, Control_c, 0, 64, 127
1, 83469, Note_off_c, 0, 61, 60
1, 83630, Note_on_c, 0, 70, 62
1, 83633, Note_on_c, 0, 76, 94
1, 83637, Note_on_c, 0, 88, 92
1, 83648, Note_on_c, 0, 82, 72
1, 83682, Note_on_c, 0, 73, 72
1, 83682, Note_off_c, 0, 76, 66
1, 83695, Note_off_c, 0, 70, 62
1, 83713, Note_off_c, 0, 82, 53
1, 83716, Note_off_c, 0, 88, 58
1, 83754, Note_on_c, 0, 65, 58
1, 83757, Note_off_c, 0, 73, 63
1, 83796, Note_on_c, 0, 77, 95
1, 83796, Note_on_c, 0, 89, 95
1, 83797, Note_on_c, 0, 70, 80
1, 83802, Note_on_c, 0, 82, 89
1, 83823, Note_off_c, 0, 65, 64
1, 83835, Note_off_c, 0, 77, 61
1, 83846, Note_off_c, 0, 89, 62
1, 83850, Note_off_c, 0, 70, 64
1, 83863, Note_off_c, 0, 82, 62
1, 83903, Note_on_c, 0, 61, 78
1, 83926, Note_on_c, 0, 78, 102
1, 83930, Note_on_c, 0, 90, 99
1, 83934, Note_on_c, 0, 82, 84
1, 83957, Note_on_c, 0, 65, 77
1, 83960, Note_off_c, 0, 61, 62
1, 83986, Note_off_c, 0, 78, 61
1, 83995, Note_off_c, 0, 90, 63
1, 84005, Note_off_c, 0, 82, 62
1, 84014, Note_off_c, 0, 65, 58
1, 84032, Note_on_c, 0, 61, 83
1, 84054, Note_on_c, 0, 82, 91
1, 84059, Note_on_c, 0, 58, 69
1, 84059, Note_on_c, 0, 91, 76
1, 84060, Note_on_c, 0, 79, 94
1, 84094, Note_off_c, 0, 61, 62
1, 84103, Note_off_c, 0, 79, 58
1, 84114, Note_off_c, 0, 91, 61
1, 84116, Note_off_c, 0, 58, 63
1, 84117, Note_off_c, 0, 82, 64
1, 84118, Note_on_c, 0, 55, 72
1, 84163, Note_on_c, 0, 58, 65
1, 84172, Note_on_c, 0, 80, 105
1, 84173, Note_on_c, 0, 92, 96
1, 84183, Note_on_c, 0, 82, 82
1, 84194, Note_off_c, 0, 55, 62
1, 84202, Note_off_c, 0, 58, 64
1, 84219, Control_c, 0, 64, 113
1, 84234, Control_c, 0, 64, 80
1, 84249, Control_c, 0, 64, 62
1, 84263, Note_off_c, 0, 82, 61
1, 84263, Control_c, 0, 64, 55
1, 84275, Note_off_c, 0, 80, 57
1, 84278, Control_c, 0, 64, 65
1, 84282, Note_on_c, 0, 55, 102
1, 84289, Note_on_c, 0, 43, 89
1, 84293, Control_c, 0, 64, 76
1, 84295, Note_off_c, 0, 92, 59
1, 84307, Control_c, 0, 64, 96
1, 84312, Note_off_c, 0, 43, 69
1, 84322, Control_c, 0, 64, 127
1, 84325, Note_on_c, 0, 53, 25
1, 84326, Note_off_c, 0, 53, 127
1, 84329, Note_off_c, 0, 55, 65
1, 84453, Note_on_c, 0, 81, 106
1, 84454, Note_on_c, 0, 93, 106
1, 84458, Note_on_c, 0, 89, 87
1, 84465, Note_on_c, 0, 70, 65
1, 84506, Note_off_c, 0, 70, 60
1, 84538, Note_on_c, 0, 73, 76
1, 84541, Note_off_c, 0, 81, 57
1, 84543, Note_off_c, 0, 93, 57
1, 84585, Note_on_c, 0, 66, 60
1, 84587, Note_off_c, 0, 89, 65
1, 84601, Note_off_c, 0, 73, 62
1, 84613, Note_on_c, 0, 67, 70
1, 84628, Note_off_c, 0, 66, 0
1, 84628, Note_on_c, 0, 66, 45
1, 84628, Note_on_c, 0, 70, 79
1, 84634, Note_on_c, 0, 82, 98
1, 84635, Note_on_c, 0, 89, 74
1, 84640, Note_on_c, 0, 94, 97
1, 84645, Note_off_c, 0, 67, 60
1, 84657, Note_off_c, 0, 66, 57
1, 84690, Note_off_c, 0, 70, 62
1, 84708, Note_off_c, 0, 82, 61
1, 84715, Note_off_c, 0, 89, 65
1, 84717, Note_off_c, 0, 94, 66
1, 84741, Note_on_c, 0, 61, 82
1, 84774, Note_on_c, 0, 83, 84
1, 84777, Note_on_c, 0, 95, 97
1, 84795, Note_off_c, 0, 61, 61
1, 84813, Note_on_c, 0, 65, 73
1, 84819, Note_off_c, 0, 83, 63
1, 84835, Note_off_c, 0, 95, 66
1, 84864, Note_off_c, 0, 65, 58
1, 84890, Note_on_c, 0, 61, 70
1, 84891, Note_on_c, 0, 58, 59
1, 84907, Note_on_c, 0, 96, 94
1, 84911, Note_on_c, 0, 84, 86
1, 84938, Note_off_c, 0, 84, 64
1, 84950, Note_off_c, 0, 96, 65
1, 84953, Note_on_c, 0, 94, 13
1, 84954, Note_off_c, 0, 94, 127
1, 84956, Note_off_c, 0, 58, 57
1, 84960, Note_off_c, 0, 61, 61
1, 84974, Note_on_c, 0, 55, 66
1, 85021, Note_on_c, 0, 97, 93
1, 85023, Note_on_c, 0, 85, 87
1, 85037, Note_on_c, 0, 58, 71
1, 85039, Note_off_c, 0, 55, 61
1, 85045, Note_on_c, 0, 92, 58
1, 85047, Note_off_c, 0, 97, 59
1, 85052, Note_off_c, 0, 85, 57
1, 85063, Note_off_c, 0, 92, 64
1, 85075, Note_off_c, 0, 58, 58
1, 85086, Control_c, 0, 64, 104
1, 85101, Control_c, 0, 64, 76
1, 85116, Control_c, 0, 64, 57
1, 85126, Note_on_c, 0, 62, 102
1, 85130, Control_c, 0, 64, 58
1, 85132, Note_on_c, 0, 50, 88
1, 85145, Control_c, 0, 64, 68
1, 85160, Note_off_c, 0, 50, 64
1, 85160, Control_c, 0, 64, 81
1, 85175, Control_c, 0, 64, 104
1, 85179, Note_off_c, 0, 62, 65
1, 85190, Control_c, 0, 64, 127
1, 85300, Note_on_c, 0, 71, 72
1, 85319, Note_on_c, 0, 76, 92
1, 85323, Note_on_c, 0, 88, 88
1, 85360, Note_off_c, 0, 71, 57
1, 85368, Note_on_c, 0, 74, 74
1, 85373, Note_off_c, 0, 76, 65
1, 85406, Note_off_c, 0, 88, 58
1, 85424, Note_off_c, 0, 74, 66
1, 85449, Note_on_c, 0, 65, 78
1, 85457, Note_on_c, 0, 77, 87
1, 85465, Note_on_c, 0, 89, 93
1, 85469, Note_on_c, 0, 83, 54
1, 85510, Note_off_c, 0, 65, 66
1, 85512, Note_off_c, 0, 77, 60
1, 85521, Note_on_c, 0, 71, 81
1, 85525, Note_off_c, 0, 89, 63
1, 85557, Note_off_c, 0, 83, 60
1, 85575, Note_off_c, 0, 71, 61
1, 85588, Note_on_c, 0, 78, 101
1, 85591, Note_on_c, 0, 62, 84
1, 85597, Note_on_c, 0, 90, 94
1, 85614, Note_on_c, 0, 83, 44
1, 85631, Note_on_c, 0, 65, 80
1, 85645, Note_off_c, 0, 78, 64
1, 85666, Note_off_c, 0, 90, 63
1, 85671, Note_off_c, 0, 62, 52
1, 85678, Note_off_c, 0, 83, 62
1, 85702, Note_on_c, 0, 59, 80
1, 85717, Note_off_c, 0, 65, 65
1, 85722, Note_on_c, 0, 83, 62
1, 85723, Note_on_c, 0, 79, 96
1, 85729, Note_on_c, 0, 91, 97
1, 85765, Note_on_c, 0, 87, 49
1, 85777, Note_on_c, 0, 62, 55
1, 85777, Note_on_c, 0, 89, 10
1, 85779, Note_off_c, 0, 79, 60
1, 85784, Note_off_c, 0, 91, 62
1, 85789, Note_off_c, 0, 87, 60
1, 85794, Note_off_c, 0, 59, 63
1, 85826, Note_off_c, 0, 89, 36
1, 85830, Note_on_c, 0, 55, 79
1, 85837, Note_on_c, 0, 80, 100
1, 85838, Note_on_c, 0, 92, 98
1, 85848, Note_off_c, 0, 62, 61
1, 85856, Note_on_c, 0, 59, 19
1, 85877, Note_off_c, 0, 55, 63
1, 85892, Note_off_c, 0, 59, 44
1, 85909, Control_c, 0, 64, 89
1, 85916, Note_off_c, 0, 83, 62
1, 85924, Control_c, 0, 64, 69
1, 85939, Control_c, 0, 64, 59
1, 85953, Control_c, 0, 64, 63
1, 85961, Note_on_c, 0, 55, 99
1, 85968, Control_c, 0, 64, 77
1, 85972, Note_on_c, 0, 43, 92
1, 85972, Note_off_c, 0, 80, 60
1, 85982, Note_off_c, 0, 92, 60
1, 85983, Control_c, 0, 64, 113
1, 85996, Note_off_c, 0, 43, 68
1, 85998, Control_c, 0, 64, 127
1, 86012, Note_off_c, 0, 55, 65
1, 86123, Note_on_c, 0, 81, 99
1, 86124, Note_on_c, 0, 93, 98
1, 86131, Note_on_c, 0, 89, 83
1, 86154, Note_on_c, 0, 71, 67
1, 86157, Note_on_c, 0, 69, 69
1, 86183, Note_off_c, 0, 69, 70
1, 86183, Note_off_c, 0, 81, 57
1, 86196, Note_off_c, 0, 93, 61
1, 86200, Note_off_c, 0, 71, 59
1, 86211, Note_on_c, 0, 74, 80
1, 86267, Note_off_c, 0, 74, 65
1, 86268, Note_off_c, 0, 89, 54
1, 86301, Note_on_c, 0, 65, 77
1, 86304, Note_on_c, 0, 89, 58
1, 86309, Note_on_c, 0, 82, 103
1, 86318, Note_on_c, 0, 94, 92
1, 86327, Note_on_c, 0, 64, 12
1, 86362, Note_off_c, 0, 65, 65
1, 86369, Note_on_c, 0, 71, 86
1, 86372, Note_off_c, 0, 89, 64
1, 86373, Note_off_c, 0, 64, 43
1, 86419, Note_off_c, 0, 82, 59
1, 86426, Note_off_c, 0, 94, 66
1, 86442, Note_off_c, 0, 71, 59
1, 86467, Note_on_c, 0, 62, 82
1, 86490, Note_on_c, 0, 83, 93
1, 86490, Note_on_c, 0, 95, 100
1, 86506, Note_on_c, 0, 92, 76
1, 86514, Note_on_c, 0, 65, 75
1, 86527, Note_off_c, 0, 83, 63
1, 86531, Note_on_c, 0, 87, 31
1, 86532, Note_off_c, 0, 87, 127
1, 86532, Note_off_c, 0, 92, 67
1, 86544, Note_off_c, 0, 95, 65
1, 86548, Note_off_c, 0, 62, 60
1, 86586, Note_on_c, 0, 59, 79
1, 86594, Note_off_c, 0, 65, 63
1, 86619, Note_on_c, 0, 85, 94
1, 86619, Note_on_c, 0, 97, 106
1, 86646, Note_off_c, 0, 59, 63
1, 86655, Note_on_c, 0, 62, 57
1, 86664, Note_off_c, 0, 85, 61
1, 86669, Note_off_c, 0, 97, 66
1, 86705, Note_on_c, 0, 55, 78
1, 86711, Note_off_c, 0, 62, 63
1, 86729, Note_on_c, 0, 86, 89
1, 86729, Note_on_c, 0, 98, 91
1, 86734, Note_off_c, 0, 55, 61
1, 86738, Note_on_c, 0, 57, 17
1, 86772, Note_on_c, 0, 88, 31
1, 86773, Note_off_c, 0, 88, 127
1, 86775, Note_off_c, 0, 57, 43
1, 86775, Note_off_c, 0, 86, 60
1, 86776, Control_c, 0, 64, 96
1, 86784, Note_on_c, 0, 97, 22
1, 86788, Note_off_c, 0, 98, 67
1, 86791, Control_c, 0, 64, 73
1, 86806, Control_c, 0, 64, 49
1, 86809, Note_off_c, 0, 97, 45
1, 86810, Note_on_c, 0, 95, 41
1, 86821, Control_c, 0, 64, 0
1, 86836, Control_c, 0, 64, 55
1, 86840, Note_on_c, 0, 54, 110
1, 86850, Control_c, 0, 64, 75
1, 86851, Note_on_c, 0, 42, 76
1, 86851, Note_off_c, 0, 95, 0
1, 86851, Note_on_c, 0, 95, 42
1, 86858, Note_on_c, 0, 87, 100
1, 86860, Note_on_c, 0, 99, 95
1, 86865, Control_c, 0, 64, 109
1, 86871, Note_off_c, 0, 42, 65
1, 86879, Note_off_c, 0, 54, 62
1, 86881, Control_c, 0, 64, 127
1, 86881, Note_off_c, 0, 95, 65
1, 86905, Note_off_c, 0, 99, 67
1, 86911, Note_off_c, 0, 87, 63
1, 86996, Note_on_c, 0, 95, 79
1, 87044, Note_on_c, 0, 87, 78
1, 87065, Note_off_c, 0, 95, 63
1, 87111, Note_on_c, 0, 92, 86
1, 87139, Note_on_c, 0, 84, 85
1, 87141, Note_off_c, 0, 87, 60
1, 87155, Note_on_c, 0, 75, 99
1, 87168, Note_off_c, 0, 92, 67
1, 87176, Note_off_c, 0, 84, 63
1, 87182, Note_on_c, 0, 66, 52
1, 87182, Note_on_c, 0, 71, 50
1, 87190, Note_off_c, 0, 75, 65
1, 87203, Note_off_c, 0, 71, 60
1, 87208, Note_off_c, 0, 66, 56
1, 87235, Note_on_c, 0, 63, 20
1, 87239, Note_on_c, 0, 75, 101
1, 87243, Note_on_c, 0, 66, 83
1, 87245, Note_on_c, 0, 87, 87
1, 87248, Note_on_c, 0, 71, 69
1, 87262, Note_off_c, 0, 75, 65
1, 87278, Note_off_c, 0, 71, 63
1, 87298, Note_on_c, 0, 78, 83
1, 87302, Note_off_c, 0, 66, 63
1, 87308, Note_off_c, 0, 63, 59
1, 87364, Note_off_c, 0, 87, 64
1, 87376, Note_on_c, 0, 83, 74
1, 87376, Note_off_c, 0, 78, 61
1, 87409, Note_on_c, 0, 75, 78
1, 87472, Note_on_c, 0, 78, 87
1, 87474, Note_off_c, 0, 75, 63
1, 87487, Note_off_c, 0, 83, 60
1, 87544, Note_on_c, 0, 72, 89
1, 87547, Note_off_c, 0, 78, 66
1, 87585, Note_off_c, 0, 72, 65
1, 87599, Control_c, 0, 64, 115
1, 87614, Control_c, 0, 64, 80
1, 87629, Control_c, 0, 64, 60
1, 87644, Control_c, 0, 64, 46
1, 87646, Note_on_c, 0, 52, 104
1, 87650, Note_on_c, 0, 40, 75
1, 87659, Control_c, 0, 64, 61
1, 87674, Control_c, 0, 64, 73
1, 87679, Note_off_c, 0, 40, 66
1, 87688, Note_on_c, 0, 100, 100
1, 87689, Control_c, 0, 64, 101
1, 87692, Note_on_c, 0, 88, 96
1, 87693, Note_on_c, 0, 96, 90
1, 87701, Note_off_c, 0, 52, 65
1, 87704, Control_c, 0, 64, 127
1, 87708, Note_on_c, 0, 98, 66
1, 87726, Note_off_c, 0, 98, 43
1, 87729, Note_off_c, 0, 100, 67
1, 87731, Note_off_c, 0, 96, 63
1, 87736, Note_off_c, 0, 88, 58
1, 87764, Poly_aftertouch_c, 0, 41, 0
1, 87829, Note_on_c, 0, 96, 96
1, 87910, Note_on_c, 0, 88, 85
1, 87913, Note_off_c, 0, 96, 60
1, 87978, Note_on_c, 0, 91, 92
1, 87994, Note_on_c, 0, 76, 92
1, 88008, Note_off_c, 0, 88, 57
1, 88018, Note_on_c, 0, 64, 43
1, 88018, Note_on_c, 0, 84, 89
1, 88020, Note_on_c, 0, 72, 54
1, 88022, Note_off_c, 0, 76, 65
1, 88031, Note_off_c, 0, 91, 62
1, 88038, Note_on_c, 0, 67, 19
1, 88040, Note_off_c, 0, 72, 61
1, 88041, Note_off_c, 0, 64, 56
1, 88044, Note_off_c, 0, 84, 63
1, 88071, Note_off_c, 0, 67, 0
1, 88071, Note_on_c, 0, 67, 22
1, 88073, Note_on_c, 0, 76, 97
1, 88075, Note_on_c, 0, 64, 83
1, 88083, Note_on_c, 0, 72, 79
1, 88095, Note_on_c, 0, 88, 96
1, 88107, Note_off_c, 0, 76, 67
1, 88109, Note_off_c, 0, 72, 62
1, 88138, Note_off_c, 0, 64, 65
1, 88139, Note_off_c, 0, 67, 62
1, 88158, Note_on_c, 0, 79, 91
1, 88184, Note_off_c, 0, 88, 57
1, 88237, Note_on_c, 0, 84, 79
1, 88252, Note_off_c, 0, 79, 58
1, 88276, Note_on_c, 0, 76, 90
1, 88348, Note_on_c, 0, 79, 93
1, 88357, Note_off_c, 0, 76, 65
1, 88364, Note_off_c, 0, 84, 63
1, 88420, Note_on_c, 0, 72, 84
1, 88438, Note_off_c, 0, 79, 56
1, 88452, Note_off_c, 0, 72, 61
1, 88572, Control_c, 0, 64, 95
1, 88586, Control_c, 0, 64, 73
1, 88597, Note_on_c, 0, 47, 100
1, 88601, Note_on_c, 0, 35, 76
1, 88601, Control_c, 0, 64, 53
1, 88616, Control_c, 0, 64, 30
1, 88631, Control_c, 0, 64, 53
1, 88633, Note_on_c, 0, 97, 92
1, 88634, Note_on_c, 0, 89, 99
1, 88635, Note_on_c, 0, 100, 94
1, 88653, Control_c, 0, 64, 70
1, 88661, Note_off_c, 0, 35, 63
1, 88668, Control_c, 0, 64, 88
1, 88674, Note_on_c, 0, 96, 62
1, 88683, Control_c, 0, 64, 127
1, 88686, Note_off_c, 0, 97, 61
1, 88690, Note_off_c, 0, 47, 63
1, 88694, Note_off_c, 0, 96, 65
1, 88710, Note_off_c, 0, 100, 63
1, 88736, Note_off_c, 0, 89, 59
1, 88832, Note_on_c, 0, 97, 80
1, 88899, Note_on_c, 0, 89, 72
1, 88933, Note_off_c, 0, 97, 58
1, 88973, Note_on_c, 0, 92, 81
1, 89006, Note_off_c, 0, 89, 62
1, 89022, Note_on_c, 0, 85, 79
1, 89028, Note_off_c, 0, 92, 66
1, 89035, Note_on_c, 0, 77, 82
1, 89049, Note_off_c, 0, 85, 63
1, 89050, Note_on_c, 0, 65, 50
1, 89057, Note_off_c, 0, 77, 68
1, 89090, Note_off_c, 0, 65, 0
1, 89090, Note_on_c, 0, 65, 60
1, 89090, Note_on_c, 0, 73, 56
1, 89093, Note_on_c, 0, 77, 95
1, 89108, Note_on_c, 0, 68, 80
1, 89108, Note_on_c, 0, 89, 77
1, 89145, Note_off_c, 0, 77, 62
1, 89149, Note_on_c, 0, 80, 79
1, 89151, Note_on_c, 0, 88, 43
1, 89162, Note_off_c, 0, 65, 65
1, 89173, Note_off_c, 0, 68, 62
1, 89174, Note_off_c, 0, 73, 63
1, 89176, Note_off_c, 0, 88, 35
1, 89177, Note_off_c, 0, 89, 58
1, 89226, Note_on_c, 0, 85, 71
1, 89230, Note_off_c, 0, 80, 62
1, 89274, Note_on_c, 0, 77, 66
1, 89289, Note_off_c, 0, 85, 60
1, 89322, Note_off_c, 0, 77, 61
1, 89331, Note_on_c, 0, 80, 71
1, 89379, Note_off_c, 0, 80, 64
1, 89412, Note_on_c, 0, 73, 81
1, 89431, Note_off_c, 0, 73, 72
1, 89486, Note_on_c, 0, 77, 80
1, 89552, Note_off_c, 0, 77, 55
1, 89554, Note_on_c, 0, 68, 67
1, 89621, Note_on_c, 0, 73, 69
1, 89630, Note_off_c, 0, 68, 62
1, 89672, Note_on_c, 0, 65, 71
1, 89686, Note_off_c, 0, 73, 60
1, 89721, Note_off_c, 0, 65, 61
1, 89728, Control_c, 0, 64, 112
1, 89743, Control_c, 0, 64, 104
1, 89746, Note_on_c, 0, 68, 65
1, 89758, Control_c, 0, 64, 99
1, 89773, Control_c, 0, 64, 96
1, 89782, Note_off_c, 0, 68, 66
1, 89788, Control_c, 0, 64, 95
1, 89802, Control_c, 0, 64, 94
1, 89808, Note_on_c, 0, 61, 76
1, 89817, Control_c, 0, 64, 94
1, 89830, Note_off_c, 0, 61, 68
1, 89832, Control_c, 0, 64, 93
1, 89847, Control_c, 0, 64, 91
1, 89847, Control_c, 0, 67, 9
1, 89862, Control_c, 0, 64, 90
1, 89862, Control_c, 0, 67, 13
1, 89876, Control_c, 0, 64, 88
1, 89876, Control_c, 0, 67, 19
1, 89888, Note_on_c, 0, 65, 73
1, 89891, Control_c, 0, 64, 86
1, 89891, Control_c, 0, 67, 28
1, 89906, Control_c, 0, 64, 84
1, 89906, Control_c, 0, 67, 35
1, 89920, Control_c, 0, 64, 82
1, 89920, Control_c, 0, 67, 43
1, 89935, Control_c, 0, 64, 81
1, 89935, Control_c, 0, 67, 48
1, 89950, Control_c, 0, 64, 80
1, 89950, Control_c, 0, 67, 52
1, 89957, Note_off_c, 0, 65, 57
1, 89965, Control_c, 0, 64, 79
1, 89965, Control_c, 0, 67, 56
1, 89980, Control_c, 0, 64, 77
1, 89980, Control_c, 0, 67, 60
1, 89986, Note_on_c, 0, 56, 52
1, 89994, Control_c, 0, 64, 75
1, 89994, Control_c, 0, 67, 66
1, 90008, Control_c, 0, 64, 73
1, 90008, Control_c, 0, 67, 73
1, 90023, Control_c, 0, 64, 71
1, 90023, Control_c, 0, 67, 79
1, 90038, Control_c, 0, 64, 69
1, 90038, Control_c, 0, 67, 84
1, 90053, Control_c, 0, 64, 69
1, 90053, Control_c, 0, 67, 88
1, 90069, Control_c, 0, 64, 68
1, 90069, Control_c, 0, 67, 90
1, 90073, Note_on_c, 0, 61, 56
1, 90084, Control_c, 0, 64, 67
1, 90084, Control_c, 0, 67, 91
1, 90098, Control_c, 0, 64, 66
1, 90098, Control_c, 0, 67, 93
1, 90113, Control_c, 0, 64, 66
1, 90113, Control_c, 0, 67, 96
1, 90116, Note_off_c, 0, 56, 36
1, 90128, Control_c, 0, 64, 65
1, 90128, Control_c, 0, 67, 101
1, 90150, Control_c, 0, 64, 65
1, 90150, Control_c, 0, 67, 105
1, 90165, Control_c, 0, 64, 64
1, 90165, Control_c, 0, 67, 107
1, 90178, Note_on_c, 0, 53, 50
1, 90180, Control_c, 0, 64, 63
1, 90180, Control_c, 0, 67, 108
1, 90195, Control_c, 0, 64, 63
1, 90210, Control_c, 0, 64, 62
1, 90224, Control_c, 0, 64, 61
1, 90224, Control_c, 0, 67, 108
1, 90239, Control_c, 0, 64, 60
1, 90254, Control_c, 0, 64, 60
1, 90254, Control_c, 0, 67, 109
1, 90269, Control_c, 0, 64, 59
1, 90271, Note_off_c, 0, 53, 64
1, 90283, Note_off_c, 0, 61, 50
1, 90298, Control_c, 0, 64, 59
1, 90300, Note_on_c, 0, 56, 48
1, 90313, Control_c, 0, 64, 58
1, 90328, Control_c, 0, 67, 109
1, 90342, Control_c, 0, 64, 58
1, 90342, Control_c, 0, 67, 111
1, 90357, Control_c, 0, 67, 114
1, 90372, Control_c, 0, 67, 117
1, 90387, Control_c, 0, 64, 57
1, 90387, Control_c, 0, 67, 117
1, 90402, Control_c, 0, 67, 119
1, 90404, Note_on_c, 0, 49, 53
1, 90415, Note_off_c, 0, 56, 61
1, 90417, Control_c, 0, 67, 120
1, 90432, Control_c, 0, 67, 121
1, 90447, Control_c, 0, 67, 124
1, 90461, Control_c, 0, 67, 127
1, 90495, Note_off_c, 0, 49, 53
1, 90550, Control_c, 0, 64, 57
1, 90565, Control_c, 0, 64, 54
1, 90580, Control_c, 0, 64, 47
1, 90595, Control_c, 0, 64, 20
1, 90601, Note_on_c, 0, 35, 60
1, 90610, Control_c, 0, 64, 0
1, 90629, Note_off_c, 0, 35, 63
1, 90686, Note_on_c, 0, 35, 34
1, 90722, Note_off_c, 0, 35, 53
1, 90882, Note_on_c, 0, 36, 45
1, 90885, Note_on_c, 0, 52, 46
1, 90888, Note_on_c, 0, 55, 31
1, 90897, Note_on_c, 0, 59, 37
1, 90922, Note_off_c, 0, 36, 61
1, 90923, Note_off_c, 0, 52, 57
1, 90929, Note_off_c, 0, 55, 48
1, 90930, Note_off_c, 0, 59, 52
1, 91117, Note_on_c, 0, 52, 58
1, 91117, Note_on_c, 0, 55, 44
1, 91122, Note_on_c, 0, 60, 52
1, 91139, Note_off_c, 0, 52, 64
1, 91143, Note_off_c, 0, 55, 54
1, 91147, Note_off_c, 0, 60, 58
1, 91239, Control_c, 0, 67, 127
1, 91272, Note_on_c, 0, 34, 74
1, 91309, Note_off_c, 0, 34, 63
1, 91434, Note_on_c, 0, 62, 51
1, 91439, Note_on_c, 0, 35, 47
1, 91439, Note_on_c, 0, 53, 47
1, 91442, Note_on_c, 0, 56, 42
1, 91467, Note_off_c, 0, 53, 56
1, 91467, Note_off_c, 0, 62, 57
1, 91469, Note_off_c, 0, 35, 60
1, 91478, Note_off_c, 0, 56, 51
1, 91576, Note_on_c, 0, 56, 53
1, 91587, Note_on_c, 0, 61, 54
1, 91589, Note_on_c, 0, 53, 33
1, 91612, Note_off_c, 0, 56, 59
1, 91617, Note_off_c, 0, 61, 63
1, 91620, Note_off_c, 0, 53, 53
1, 91729, Note_on_c, 0, 32, 55
1, 91768, Note_off_c, 0, 32, 60
1, 91855, Note_on_c, 0, 33, 54
1, 91864, Note_on_c, 0, 60, 54
1, 91871, Note_on_c, 0, 53, 39
1, 91882, Note_off_c, 0, 33, 61
1, 91902, Note_off_c, 0, 53, 54
1, 91903, Note_off_c, 0, 60, 61
1, 91916, Control_c, 0, 67, 126
1, 91985, Note_on_c, 0, 53, 59
1, 91989, Control_c, 0, 67, 126
1, 91991, Note_on_c, 0, 61, 57
1, 91999, Note_on_c, 0, 57, 30
1, 92017, Note_off_c, 0, 53, 67
1, 92028, Note_off_c, 0, 61, 59
1, 92029, Note_off_c, 0, 57, 48
1, 92107, Note_on_c, 0, 34, 80
1, 92143, Note_off_c, 0, 34, 62
1, 92250, Note_on_c, 0, 56, 52
1, 92250, Note_on_c, 0, 63, 54
1, 92253, Note_on_c, 0, 53, 51
1, 92288, Note_off_c, 0, 53, 59
1, 92300, Note_off_c, 0, 56, 54
1, 92301, Note_off_c, 0, 63, 56
1, 92345, Control_c, 0, 67, 125
1, 92360, Control_c, 0, 67, 125
1, 92389, Note_on_c, 0, 53, 53
1, 92400, Note_on_c, 0, 56, 55
1, 92405, Note_on_c, 0, 61, 63
1, 92418, Note_off_c, 0, 53, 60
1, 92426, Control_c, 0, 67, 124
1, 92429, Note_off_c, 0, 56, 63
1, 92439, Note_off_c, 0, 61, 61
1, 92456, Control_c, 0, 67, 124
1, 92487, Control_c, 0, 67, 123
1, 92501, Control_c, 0, 67, 122
1, 92516, Control_c, 0, 67, 121
1, 92533, Note_on_c, 0, 47, 72
1, 92533, Note_on_c, 0, 35, 69
1, 92560, Note_off_c, 0, 35, 65
1, 92567, Note_off_c, 0, 47, 64
1, 92575, Control_c, 0, 67, 120
1, 92590, Control_c, 0, 67, 119
1, 92605, Control_c, 0, 67, 119
1, 92649, Note_on_c, 0, 59, 68
1, 92649, Control_c, 0, 67, 118
1, 92660, Note_on_c, 0, 48, 68
1, 92664, Note_on_c, 0, 71, 55
1, 92664, Control_c, 0, 67, 117
1, 92665, Note_on_c, 0, 64, 43
1, 92666, Note_on_c, 0, 36, 64
1, 92674, Note_on_c, 0, 67, 42
1, 92679, Control_c, 0, 67, 115
1, 92681, Note_off_c, 0, 59, 61
1, 92688, Note_off_c, 0, 48, 66
1, 92693, Note_off_c, 0, 71, 55
1, 92694, Control_c, 0, 67, 115
1, 92699, Note_off_c, 0, 36, 63
1, 92706, Note_off_c, 0, 64, 47
1, 92709, Control_c, 0, 67, 114
1, 92721, Note_off_c, 0, 67, 44
1, 92724, Control_c, 0, 67, 113
1, 92739, Control_c, 0, 67, 110
1, 92753, Control_c, 0, 67, 104
1, 92768, Control_c, 0, 67, 99
1, 92779, Note_on_c, 0, 64, 59
1, 92781, Note_on_c, 0, 60, 63
1, 92781, Note_on_c, 0, 67, 46
1, 92783, Note_on_c, 0, 72, 68
1, 92783, Control_c, 0, 67, 96
1, 92798, Control_c, 0, 67, 94
1, 92798, Note_off_c, 0, 60, 63
1, 92801, Note_off_c, 0, 64, 65
1, 92806, Note_off_c, 0, 67, 58
1, 92813, Control_c, 0, 67, 89
1, 92827, Control_c, 0, 67, 81
1, 92834, Note_off_c, 0, 72, 61
1, 92842, Control_c, 0, 67, 76
1, 92857, Control_c, 0, 67, 75
1, 92870, Note_on_c, 0, 46, 90
1, 92872, Control_c, 0, 67, 74
1, 92882, Note_on_c, 0, 34, 76
1, 92887, Control_c, 0, 67, 71
1, 92901, Control_c, 0, 67, 67
1, 92911, Note_off_c, 0, 34, 65
1, 92916, Control_c, 0, 67, 63
1, 92917, Note_off_c, 0, 46, 62
1, 92931, Control_c, 0, 67, 60
1, 92945, Control_c, 0, 67, 59
1, 92960, Control_c, 0, 67, 57
1, 92975, Control_c, 0, 67, 53
1, 92990, Control_c, 0, 67, 50
1, 92995, Note_on_c, 0, 47, 77
1, 92995, Note_on_c, 0, 62, 77
1, 92999, Note_on_c, 0, 74, 69
1, 93001, Note_on_c, 0, 35, 64
1, 93001, Note_on_c, 0, 68, 70
1, 93005, Control_c, 0, 67, 48
1, 93014, Note_on_c, 0, 65, 44
1, 93017, Note_off_c, 0, 62, 67
1, 93019, Control_c, 0, 67, 47
1, 93022, Note_off_c, 0, 47, 65
1, 93023, Note_off_c, 0, 74, 68
1, 93034, Note_off_c, 0, 35, 65
1, 93034, Control_c, 0, 67, 46
1, 93046, Note_off_c, 0, 65, 55
1, 93049, Note_off_c, 0, 68, 62
1, 93049, Control_c, 0, 67, 44
1, 93064, Control_c, 0, 67, 40
1, 93079, Control_c, 0, 67, 35
1, 93094, Control_c, 0, 67, 33
1, 93108, Control_c, 0, 67, 32
1, 93118, Note_on_c, 0, 61, 80
1, 93123, Control_c, 0, 67, 32
1, 93124, Note_on_c, 0, 68, 59
1, 93129, Note_on_c, 0, 73, 65
1, 93130, Note_on_c, 0, 65, 61
1, 93145, Control_c, 0, 67, 31
1, 93160, Control_c, 0, 67, 30
1, 93162, Note_off_c, 0, 65, 67
1, 93175, Note_off_c, 0, 68, 59
1, 93175, Control_c, 0, 67, 29
1, 93205, Control_c, 0, 67, 29
1, 93206, Note_off_c, 0, 61, 51
1, 93213, Note_off_c, 0, 73, 61
1, 93219, Control_c, 0, 67, 27
1, 93227, Note_on_c, 0, 44, 76
1, 93234, Control_c, 0, 67, 25
1, 93235, Note_on_c, 0, 32, 70
1, 93249, Control_c, 0, 67, 25
1, 93255, Note_off_c, 0, 44, 67
1, 93268, Note_off_c, 0, 32, 64
1, 93295, Control_c, 0, 67, 24
1, 93310, Control_c, 0, 67, 22
1, 93324, Control_c, 0, 67, 18
1, 93332, Note_on_c, 0, 45, 71
1, 93338, Note_on_c, 0, 33, 63
1, 93339, Control_c, 0, 67, 14
1, 93340, Note_on_c, 0, 60, 79
1, 93341, Note_on_c, 0, 66, 79
1, 93346, Note_on_c, 0, 72, 67
1, 93354, Control_c, 0, 67, 12
1, 93362, Note_off_c, 0, 60, 68
1, 93362, Note_off_c, 0, 72, 68
1, 93365, Note_off_c, 0, 45, 66
1, 93368, Note_off_c, 0, 33, 65
1, 93368, Control_c, 0, 67, 10
1, 93371, Note_off_c, 0, 66, 66
1, 93383, Control_c, 0, 67, 0
1, 93436, Note_on_c, 0, 61, 87
1, 93443, Note_on_c, 0, 66, 77
1, 93445, Note_on_c, 0, 73, 76
1, 93487, Note_off_c, 0, 61, 61
1, 93493, Note_off_c, 0, 66, 59
1, 93510, Note_off_c, 0, 73, 58
1, 93534, Note_on_c, 0, 46, 99
1, 93542, Note_on_c, 0, 34, 84
1, 93577, Note_off_c, 0, 34, 63
1, 93585, Note_off_c, 0, 46, 62
1, 93648, Note_on_c, 0, 63, 87
1, 93652, Note_on_c, 0, 68, 79
1, 93654, Note_on_c, 0, 47, 87
1, 93660, Note_on_c, 0, 35, 76
1, 93660, Note_on_c, 0, 65, 66
1, 93663, Note_on_c, 0, 73, 58
1, 93669, Note_on_c, 0, 62, 69
1, 93683, Note_off_c, 0, 73, 62
1, 93687, Note_off_c, 0, 62, 63
1, 93690, Note_off_c, 0, 68, 62
1, 93690, Note_off_c, 0, 35, 66
1, 93690, Note_off_c, 0, 63, 59
1, 93693, Note_off_c, 0, 47, 61
1, 93693, Note_off_c, 0, 65, 64
1, 93743, Note_on_c, 0, 73, 91
1, 93749, Note_on_c, 0, 61, 76
1, 93764, Note_off_c, 0, 61, 67
1, 93807, Note_off_c, 0, 73, 64
1, 93830, Note_on_c, 0, 47, 96
1, 93836, Note_on_c, 0, 35, 75
1, 93860, Note_off_c, 0, 47, 62
1, 93864, Note_off_c, 0, 35, 65
1, 93926, Note_on_c, 0, 71, 91
1, 93928, Note_on_c, 0, 48, 88
1, 93930, Note_on_c, 0, 83, 86
1, 93934, Note_on_c, 0, 36, 74
1, 93941, Note_on_c, 0, 76, 59
1, 93941, Note_on_c, 0, 79, 64
1, 93949, Note_off_c, 0, 71, 63
1, 93951, Note_off_c, 0, 83, 68
1, 93959, Note_off_c, 0, 48, 63
1, 93959, Note_off_c, 0, 79, 63
1, 93961, Note_off_c, 0, 76, 64
1, 93962, Note_off_c, 0, 36, 63
1, 94018, Note_on_c, 0, 84, 84
1, 94019, Note_on_c, 0, 79, 74
1, 94020, Note_on_c, 0, 72, 82
1, 94021, Note_on_c, 0, 76, 73
1, 94034, Note_on_c, 0, 83, 67
1, 94049, Note_off_c, 0, 76, 67
1, 94050, Note_off_c, 0, 79, 60
1, 94052, Note_off_c, 0, 83, 60
1, 94063, Note_off_c, 0, 72, 62
1, 94092, Note_on_c, 0, 46, 109
1, 94095, Note_off_c, 0, 84, 62
1, 94103, Note_on_c, 0, 34, 85
1, 94128, Note_off_c, 0, 34, 66
1, 94128, Note_off_c, 0, 46, 63
1, 94130, Note_on_c, 0, 47, 47
1, 94161, Control_c, 0, 64, 46
1, 94164, Note_off_c, 0, 47, 0
1, 94173, Note_on_c, 0, 47, 87
1, 94176, Control_c, 0, 64, 62
1, 94179, Note_on_c, 0, 80, 91
1, 94179, Note_on_c, 0, 74, 91
1, 94184, Note_on_c, 0, 86, 83
1, 94185, Note_on_c, 0, 35, 75
1, 94186, Note_on_c, 0, 77, 66
1, 94191, Control_c, 0, 64, 67
1, 94194, Note_off_c, 0, 74, 76
1, 94196, Note_off_c, 0, 86, 70
1, 94200, Note_off_c, 0, 80, 64
1, 94205, Control_c, 0, 64, 71
1, 94214, Note_off_c, 0, 77, 67
1, 94214, Note_off_c, 0, 35, 66
1, 94218, Note_off_c, 0, 47, 64
1, 94220, Control_c, 0, 64, 75
1, 94235, Control_c, 0, 64, 80
1, 94250, Control_c, 0, 64, 86
1, 94263, Note_on_c, 0, 77, 65
1, 94265, Control_c, 0, 64, 92
1, 94267, Note_on_c, 0, 73, 86
1, 94268, Note_on_c, 0, 85, 85
1, 94274, Note_on_c, 0, 80, 73
1, 94280, Control_c, 0, 64, 94
1, 94295, Note_off_c, 0, 77, 64
1, 94310, Control_c, 0, 64, 91
1, 94324, Control_c, 0, 64, 81
1, 94325, Note_off_c, 0, 80, 40
1, 94339, Control_c, 0, 64, 64
1, 94341, Note_on_c, 0, 44, 105
1, 94342, Note_off_c, 0, 73, 62
1, 94343, Note_off_c, 0, 85, 63
1, 94349, Note_on_c, 0, 32, 87
1, 94354, Control_c, 0, 64, 0
1, 94369, Note_off_c, 0, 44, 63
1, 94375, Note_off_c, 0, 32, 67
1, 94384, Control_c, 0, 64, 15
1, 94398, Control_c, 0, 64, 57
1, 94413, Control_c, 0, 64, 68
1, 94414, Note_on_c, 0, 45, 80
1, 94420, Note_on_c, 0, 72, 98
1, 94423, Note_on_c, 0, 84, 89
1, 94428, Control_c, 0, 64, 78
1, 94432, Note_on_c, 0, 78, 65
1, 94433, Note_off_c, 0, 78, 127
1, 94435, Note_on_c, 0, 33, 58
1, 94438, Note_off_c, 0, 72, 70
1, 94441, Note_off_c, 0, 84, 74
1, 94443, Control_c, 0, 64, 91
1, 94453, Note_off_c, 0, 45, 65
1, 94458, Control_c, 0, 64, 113
1, 94459, Note_on_c, 0, 35, 32
1, 94464, Note_off_c, 0, 33, 57
1, 94472, Control_c, 0, 64, 127
1, 94497, Note_on_c, 0, 73, 90
1, 94503, Note_off_c, 0, 35, 46
1, 94507, Note_on_c, 0, 78, 65
1, 94512, Note_on_c, 0, 85, 76
1, 94526, Note_on_c, 0, 79, 59
1, 94529, Poly_aftertouch_c, 0, 77, 0
1, 94544, Note_off_c, 0, 73, 63
1, 94545, Note_off_c, 0, 78, 43
1, 94557, Note_off_c, 0, 85, 60
1, 94557, Note_off_c, 0, 79, 53
1, 94561, Control_c, 0, 64, 93
1, 94569, Note_on_c, 0, 46, 108
1, 94576, Control_c, 0, 64, 68
1, 94579, Note_on_c, 0, 34, 82
1, 94590, Control_c, 0, 64, 51
1, 94592, Note_off_c, 0, 46, 63
1, 94603, Note_off_c, 0, 34, 65
1, 94605, Note_on_c, 0, 47, 54
1, 94605, Control_c, 0, 64, 60
1, 94620, Control_c, 0, 64, 72
1, 94629, Note_off_c, 0, 47, 0
1, 94641, Note_on_c, 0, 75, 104
1, 94643, Control_c, 0, 64, 90
1, 94647, Note_on_c, 0, 87, 99
1, 94648, Note_on_c, 0, 47, 73
1, 94658, Control_c, 0, 64, 127
1, 94664, Note_on_c, 0, 80, 60
1, 94665, Note_off_c, 0, 75, 66
1, 94665, Note_off_c, 0, 87, 70
1, 94675, Note_on_c, 0, 35, 57
1, 94684, Note_off_c, 0, 80, 63
1, 94685, Note_on_c, 0, 36, 46
1, 94696, Note_off_c, 0, 47, 62
1, 94703, Note_off_c, 0, 35, 56
1, 94714, Note_on_c, 0, 85, 58
1, 94718, Note_off_c, 0, 36, 49
1, 94726, Note_on_c, 0, 73, 93
1, 94742, Note_off_c, 0, 73, 76
1, 94750, Poly_aftertouch_c, 0, 83, 0
1, 94776, Control_c, 0, 64, 98
1, 94787, Note_off_c, 0, 85, 65
1, 94790, Note_on_c, 0, 47, 112
1, 94790, Control_c, 0, 64, 70
1, 94796, Note_on_c, 0, 35, 78
1, 94805, Control_c, 0, 64, 47
1, 94820, Control_c, 0, 64, 54
1, 94822, Note_off_c, 0, 35, 67
1, 94825, Note_off_c, 0, 47, 64
1, 94835, Control_c, 0, 64, 68
1, 94849, Control_c, 0, 64, 86
1, 94855, Note_on_c, 0, 83, 93
1, 94858, Note_on_c, 0, 95, 104
1, 94866, Control_c, 0, 64, 127
1, 94873, Note_on_c, 0, 36, 52
1, 94873, Note_on_c, 0, 48, 98
1, 94879, Note_off_c, 0, 83, 65
1, 94881, Note_off_c, 0, 95, 65
1, 94906, Note_on_c, 0, 47, 42
1, 94907, Note_off_c, 0, 47, 127
1, 94911, Note_off_c, 0, 48, 63
1, 94914, Note_off_c, 0, 36, 62
1, 94937, Note_on_c, 0, 96, 102
1, 94939, Note_on_c, 0, 84, 90
1, 94962, Note_off_c, 0, 84, 66
1, 94974, Note_on_c, 0, 95, 45
1, 94975, Note_off_c, 0, 95, 127
1, 94983, Note_off_c, 0, 96, 65
1, 94998, Note_on_c, 0, 46, 102
1, 94999, Control_c, 0, 64, 79
1, 95006, Note_on_c, 0, 34, 88
1, 95013, Note_on_c, 0, 44, 71
1, 95013, Control_c, 0, 64, 57
1, 95028, Control_c, 0, 64, 56
1, 95030, Note_on_c, 0, 33, 51
1, 95033, Note_off_c, 0, 46, 66
1, 95037, Note_off_c, 0, 44, 40
1, 95039, Note_off_c, 0, 34, 65
1, 95043, Control_c, 0, 64, 68
1, 95058, Control_c, 0, 64, 79
1, 95061, Note_on_c, 0, 86, 97
1, 95061, Note_off_c, 0, 33, 59
1, 95065, Note_on_c, 0, 98, 94
1, 95070, Note_on_c, 0, 89, 72
1, 95071, Note_on_c, 0, 92, 86
1, 95073, Note_on_c, 0, 47, 88
1, 95073, Control_c, 0, 64, 100
1, 95081, Note_off_c, 0, 86, 66
1, 95082, Note_on_c, 0, 35, 84
1, 95082, Note_off_c, 0, 98, 70
1, 95088, Control_c, 0, 64, 127
1, 95094, Poly_aftertouch_c, 0, 39, 127
1, 95100, Note_off_c, 0, 89, 47
1, 95106, Note_on_c, 0, 37, 38
1, 95107, Note_off_c, 0, 92, 61
1, 95115, Poly_aftertouch_c, 0, 39, 0
1, 95118, Note_off_c, 0, 35, 62
1, 95119, Note_off_c, 0, 47, 64
1, 95143, Note_off_c, 0, 37, 53
1, 95151, Note_on_c, 0, 85, 100
1, 95152, Note_on_c, 0, 97, 104
1, 95166, Note_on_c, 0, 92, 50
1, 95208, Note_off_c, 0, 92, 43
1, 95212, Note_off_c, 0, 85, 61
1, 95213, Note_off_c, 0, 97, 67
1, 95221, Control_c, 0, 64, 94
1, 95222, Poly_aftertouch_c, 0, 89, 0
1, 95222, Note_on_c, 0, 44, 98
1, 95234, Note_on_c, 0, 31, 83
1, 95236, Control_c, 0, 64, 68
1, 95240, Note_on_c, 0, 32, 65
1, 95246, Note_on_c, 0, 42, 55
1, 95252, Control_c, 0, 64, 60
1, 95252, Note_on_c, 0, 37, 42
1, 95253, Note_off_c, 0, 37, 127
1, 95258, Note_off_c, 0, 44, 67
1, 95259, Note_off_c, 0, 31, 66
1, 95266, Note_off_c, 0, 32, 59
1, 95266, Control_c, 0, 64, 68
1, 95275, Note_off_c, 0, 42, 37
1, 95281, Control_c, 0, 64, 81
1, 95285, Note_on_c, 0, 84, 100
1, 95288, Note_on_c, 0, 96, 96
1, 95296, Control_c, 0, 64, 117
1, 95302, Note_off_c, 0, 96, 74
1, 95303, Note_on_c, 0, 90, 66
1, 95304, Note_off_c, 0, 84, 70
1, 95305, Note_on_c, 0, 45, 96
1, 95310, Note_on_c, 0, 33, 74
1, 95311, Control_c, 0, 64, 127
1, 95321, Note_off_c, 0, 90, 62
1, 95330, Poly_aftertouch_c, 0, 39, 0
1, 95346, Note_off_c, 0, 33, 64
1, 95354, Note_off_c, 0, 45, 66
1, 95359, Note_on_c, 0, 85, 97
1, 95362, Note_on_c, 0, 97, 96
1, 95392, Control_c, 0, 64, 116
1, 95407, Control_c, 0, 64, 78
1, 95409, Note_off_c, 0, 85, 62
1, 95420, Poly_aftertouch_c, 0, 35, 0
1, 95422, Control_c, 0, 64, 62
1, 95423, Note_off_c, 0, 97, 66
1, 95437, Control_c, 0, 64, 67
1, 95449, Note_on_c, 0, 46, 109
1, 95451, Control_c, 0, 64, 82
1, 95454, Note_on_c, 0, 34, 95
1, 95466, Control_c, 0, 64, 127
1, 95491, Note_on_c, 0, 87, 102
1, 95493, Note_on_c, 0, 99, 101
1, 95499, Note_off_c, 0, 46, 62
1, 95501, Note_off_c, 0, 34, 62
1, 95523, Note_off_c, 0, 87, 63
1, 95529, Note_off_c, 0, 99, 64
1, 95574, Note_on_c, 0, 85, 103
1, 95576, Note_on_c, 0, 97, 95
1, 95591, Note_on_c, 0, 47, 3
1, 95614, Note_on_c, 0, 36, 78
1, 95614, Control_c, 0, 64, 105
1, 95618, Note_on_c, 0, 84, 32
1, 95622, Note_off_c, 0, 47, 42
1, 95624, Note_off_c, 0, 97, 67
1, 95629, Control_c, 0, 64, 77
1, 95642, Note_on_c, 0, 43, 18
1, 95644, Control_c, 0, 64, 53
1, 95645, Note_off_c, 0, 85, 62
1, 95648, Note_off_c, 0, 84, 53
1, 95660, Control_c, 0, 64, 0
1, 95690, Note_on_c, 0, 48, 98
1, 95725, Note_on_c, 0, 82, 91
1, 95734, Control_c, 0, 64, 31
1, 95748, Note_off_c, 0, 43, 28
1, 95749, Control_c, 0, 64, 56
1, 95763, Control_c, 0, 64, 68
1, 95777, Note_on_c, 0, 88, 69
1, 95778, Control_c, 0, 64, 80
1, 95788, Note_off_c, 0, 82, 64
1, 95793, Control_c, 0, 64, 103
1, 95808, Control_c, 0, 64, 127
1, 95821, Note_on_c, 0, 91, 82
1, 95838, Note_off_c, 0, 36, 59
1, 95859, Note_on_c, 0, 97, 105
1, 95878, Note_off_c, 0, 91, 61
1, 95879, Note_off_c, 0, 88, 63
1, 95884, Note_off_c, 0, 48, 63
1, 95893, Note_off_c, 0, 97, 70
1, 96614, Control_c, 0, 64, 112
1, 96629, Control_c, 0, 64, 103
1, 96644, Control_c, 0, 64, 96
1, 96659, Control_c, 0, 64, 89
1, 96671, Note_on_c, 0, 73, 52
1, 96673, Note_on_c, 0, 68, 44
1, 96674, Control_c, 0, 64, 83
1, 96689, Control_c, 0, 64, 77
1, 96692, Note_on_c, 0, 65, 37
1, 96703, Control_c, 0, 64, 71
1, 96718, Control_c, 0, 64, 66
1, 96733, Control_c, 0, 64, 61
1, 96748, Control_c, 0, 64, 56
1, 96763, Control_c, 0, 64, 52
1, 96777, Control_c, 0, 64, 52
1, 96807, Control_c, 0, 64, 51
1, 96822, Control_c, 0, 64, 48
1, 96837, Control_c, 0, 64, 42
1, 96851, Control_c, 0, 64, 36
1, 96866, Control_c, 0, 64, 30
1, 96888, Control_c, 0, 64, 26
1, 96888, Control_c, 0, 67, 10
1, 96903, Control_c, 0, 64, 23
1, 96903, Control_c, 0, 67, 15
1, 96918, Control_c, 0, 67, 19
1, 96933, Control_c, 0, 64, 26
1, 96933, Control_c, 0, 67, 21
1, 96948, Control_c, 0, 64, 34
1, 96963, Control_c, 0, 64, 41
1, 96963, Control_c, 0, 67, 22
1, 96978, Control_c, 0, 64, 50
1, 96978, Control_c, 0, 67, 23
1, 96992, Control_c, 0, 64, 57
1, 96992, Control_c, 0, 67, 27
1, 97007, Control_c, 0, 64, 61
1, 97007, Control_c, 0, 67, 31
1, 97012, Note_on_c, 0, 75, 49
1, 97016, Note_on_c, 0, 70, 42
1, 97019, Note_on_c, 0, 67, 45
1, 97022, Control_c, 0, 64, 64
1, 97022, Control_c, 0, 67, 34
1, 97037, Control_c, 0, 64, 67
1, 97037, Control_c, 0, 67, 36
1, 97043, Note_off_c, 0, 73, 45
1, 97050, Note_off_c, 0, 65, 44
1, 97052, Control_c, 0, 64, 71
1, 97052, Control_c, 0, 67, 39
1, 97066, Control_c, 0, 64, 75
1, 97066, Control_c, 0, 67, 43
1, 97078, Note_off_c, 0, 68, 35
1, 97078, Note_off_c, 0, 70, 56
1, 97081, Control_c, 0, 64, 81
1, 97081, Control_c, 0, 67, 49
1, 97088, Note_off_c, 0, 75, 56
1, 97096, Control_c, 0, 64, 86
1, 97096, Control_c, 0, 67, 54
1, 97105, Note_off_c, 0, 67, 53
1, 97110, Control_c, 0, 64, 90
1, 97110, Control_c, 0, 67, 57
1, 97125, Control_c, 0, 64, 95
1, 97125, Control_c, 0, 67, 59
1, 97140, Control_c, 0, 64, 97
1, 97140, Control_c, 0, 67, 60
1, 97146, Note_on_c, 0, 73, 55
1, 97155, Control_c, 0, 64, 98
1, 97155, Control_c, 0, 67, 61
1, 97157, Note_on_c, 0, 65, 53
1, 97163, Note_on_c, 0, 68, 25
1, 97170, Control_c, 0, 64, 97
1, 97170, Control_c, 0, 67, 61
1, 97184, Control_c, 0, 64, 93
1, 97199, Control_c, 0, 64, 86
1, 97199, Control_c, 0, 67, 62
1, 97206, Note_off_c, 0, 65, 45
1, 97213, Note_off_c, 0, 68, 46
1, 97214, Control_c, 0, 64, 80
1, 97229, Control_c, 0, 64, 77
1, 97238, Note_on_c, 0, 67, 62
1, 97243, Control_c, 0, 64, 77
1, 97246, Note_off_c, 0, 73, 41
1, 97252, Note_on_c, 0, 64, 59
1, 97253, Note_on_c, 0, 72, 57
1, 97260, Control_c, 0, 64, 79
1, 97260, Control_c, 0, 67, 62
1, 97275, Control_c, 0, 64, 81
1, 97275, Control_c, 0, 67, 63
1, 97289, Control_c, 0, 64, 81
1, 97289, Control_c, 0, 67, 63
1, 97291, Note_off_c, 0, 64, 56
1, 97293, Note_off_c, 0, 72, 50
1, 97294, Note_off_c, 0, 67, 51
1, 97304, Control_c, 0, 64, 81
1, 97304, Control_c, 0, 67, 65
1, 97318, Note_on_c, 0, 73, 49
1, 97319, Control_c, 0, 64, 80
1, 97319, Control_c, 0, 67, 66
1, 97323, Note_on_c, 0, 68, 58
1, 97326, Note_on_c, 0, 65, 57
1, 97333, Control_c, 0, 64, 82
1, 97333, Control_c, 0, 67, 67
1, 97344, Note_off_c, 0, 73, 55
1, 97348, Control_c, 0, 64, 85
1, 97348, Control_c, 0, 67, 70
1, 97359, Note_off_c, 0, 65, 66
1, 97363, Control_c, 0, 64, 88
1, 97363, Control_c, 0, 67, 72
1, 97365, Note_off_c, 0, 68, 61
1, 97378, Control_c, 0, 64, 88
1, 97378, Control_c, 0, 67, 74
1, 97389, Note_on_c, 0, 64, 61
1, 97393, Control_c, 0, 64, 88
1, 97393, Control_c, 0, 67, 78
1, 97395, Note_on_c, 0, 67, 60
1, 97399, Note_on_c, 0, 72, 58
1, 97407, Control_c, 0, 64, 86
1, 97407, Control_c, 0, 67, 81
1, 97422, Control_c, 0, 67, 83
1, 97430, Note_off_c, 0, 72, 52
1, 97433, Note_off_c, 0, 64, 56
1, 97437, Control_c, 0, 67, 85
1, 97438, Note_off_c, 0, 67, 60
1, 97452, Control_c, 0, 67, 87
1, 97462, Note_on_c, 0, 70, 64
1, 97467, Control_c, 0, 64, 85
1, 97467, Control_c, 0, 67, 89
1, 97479, Note_on_c, 0, 61, 58
1, 97481, Control_c, 0, 64, 85
1, 97481, Control_c, 0, 67, 90
1, 97484, Note_on_c, 0, 65, 47
1, 97496, Control_c, 0, 64, 85
1, 97496, Control_c, 0, 67, 90
1, 97508, Note_off_c, 0, 61, 51
1, 97511, Control_c, 0, 64, 86
1, 97511, Control_c, 0, 67, 91
1, 97520, Note_off_c, 0, 70, 62
1, 97524, Note_off_c, 0, 65, 48
1, 97526, Control_c, 0, 64, 87
1, 97531, Note_on_c, 0, 67, 60
1, 97536, Note_on_c, 0, 64, 48
1, 97536, Note_on_c, 0, 72, 54
1, 97541, Control_c, 0, 64, 86
1, 97541, Control_c, 0, 67, 91
1, 97549, Note_off_c, 0, 67, 64
1, 97556, Control_c, 0, 64, 82
1, 97556, Control_c, 0, 67, 92
1, 97557, Note_off_c, 0, 64, 62
1, 97558, Note_off_c, 0, 72, 59
1, 97571, Control_c, 0, 64, 78
1, 97571, Control_c, 0, 67, 93
1, 97586, Control_c, 0, 64, 76
1, 97586, Control_c, 0, 67, 95
1, 97592, Note_on_c, 0, 61, 66
1, 97600, Control_c, 0, 64, 72
1, 97600, Control_c, 0, 67, 96
1, 97607, Note_on_c, 0, 65, 60
1, 97610, Note_on_c, 0, 70, 52
1, 97615, Control_c, 0, 64, 65
1, 97615, Control_c, 0, 67, 97
1, 97637, Control_c, 0, 64, 64
1, 97637, Control_c, 0, 67, 98
1, 97646, Note_off_c, 0, 61, 59
1, 97651, Note_off_c, 0, 70, 60
1, 97652, Control_c, 0, 64, 67
1, 97652, Control_c, 0, 67, 99
1, 97660, Note_on_c, 0, 68, 68
1, 97661, Note_on_c, 0, 60, 68
1, 97662, Note_off_c, 0, 65, 60
1, 97666, Note_on_c, 0, 63, 65
1, 97666, Control_c, 0, 64, 72
1, 97666, Control_c, 0, 67, 100
1, 97681, Control_c, 0, 64, 78
1, 97681, Control_c, 0, 67, 102
1, 97693, Note_off_c, 0, 60, 63
1, 97696, Control_c, 0, 64, 84
1, 97696, Control_c, 0, 67, 105
1, 97698, Note_off_c, 0, 63, 62
1, 97698, Note_off_c, 0, 68, 62
1, 97711, Control_c, 0, 64, 90
1, 97711, Control_c, 0, 67, 107
1, 97726, Note_on_c, 0, 61, 69
1, 97726, Control_c, 0, 64, 96
1, 97726, Control_c, 0, 67, 110
1, 97732, Note_on_c, 0, 70, 57
1, 97741, Control_c, 0, 64, 99
1, 97741, Control_c, 0, 67, 113
1, 97750, Note_off_c, 0, 70, 64
1, 97756, Control_c, 0, 64, 99
1, 97756, Control_c, 0, 67, 116
1, 97771, Control_c, 0, 67, 118
1, 97773, Note_off_c, 0, 61, 58
1, 97783, Note_on_c, 0, 63, 66
1, 97784, Note_on_c, 0, 60, 67
1, 97786, Control_c, 0, 64, 97
1, 97786, Control_c, 0, 67, 120
1, 97789, Poly_aftertouch_c, 0, 65, 127
1, 97791, Note_on_c, 0, 68, 62
1, 97800, Control_c, 0, 64, 92
1, 97800, Control_c, 0, 67, 124
1, 97811, Poly_aftertouch_c, 0, 65, 0
1, 97815, Control_c, 0, 64, 84
1, 97815, Control_c, 0, 67, 127
1, 97820, Note_off_c, 0, 60, 56
1, 97830, Control_c, 0, 64, 72
1, 97836, Note_off_c, 0, 63, 45
1, 97841, Note_on_c, 0, 67, 81
1, 97845, Note_on_c, 0, 58, 73
1, 97845, Control_c, 0, 64, 63
1, 97853, Note_off_c, 0, 68, 47
1, 97859, Control_c, 0, 64, 61
1, 97874, Control_c, 0, 64, 66
1, 97882, Note_on_c, 0, 61, 35
1, 97889, Control_c, 0, 64, 77
1, 97900, Note_on_c, 0, 63, 58
1, 97904, Control_c, 0, 64, 89
1, 97909, Note_on_c, 0, 68, 51
1, 97914, Note_off_c, 0, 61, 53
1, 97914, Note_off_c, 0, 58, 62
1, 97919, Control_c, 0, 64, 99
1, 97920, Note_on_c, 0, 60, 72
1, 97923, Note_off_c, 0, 67, 57
1, 97933, Control_c, 0, 64, 107
1, 97937, Note_off_c, 0, 68, 62
1, 97947, Note_off_c, 0, 60, 67
1, 97948, Control_c, 0, 64, 112
1, 97951, Note_off_c, 0, 63, 62
1, 97963, Control_c, 0, 64, 110
1, 97976, Note_on_c, 0, 67, 65
1, 97978, Control_c, 0, 64, 101
1, 97979, Note_on_c, 0, 58, 66
1, 97993, Note_on_c, 0, 61, 62
1, 97993, Control_c, 0, 64, 84
1, 98007, Control_c, 0, 64, 71
1, 98022, Control_c, 0, 64, 63
1, 98037, Note_off_c, 0, 67, 55
1, 98039, Note_off_c, 0, 58, 61
1, 98042, Note_on_c, 0, 65, 72
1, 98050, Note_on_c, 0, 56, 72
1, 98052, Control_c, 0, 64, 67
1, 98060, Note_on_c, 0, 60, 54
1, 98068, Control_c, 0, 64, 75
1, 98083, Control_c, 0, 64, 85
1, 98098, Control_c, 0, 64, 90
1, 98105, Note_off_c, 0, 65, 63
1, 98106, Note_off_c, 0, 56, 62
1, 98107, Note_off_c, 0, 60, 51
1, 98107, Note_off_c, 0, 61, 0
1, 98112, Control_c, 0, 64, 93
1, 98127, Control_c, 0, 64, 94
1, 98130, Note_on_c, 0, 58, 71
1, 98142, Note_on_c, 0, 61, 22
1, 98142, Control_c, 0, 64, 95
1, 98146, Note_on_c, 0, 67, 51
1, 98165, Note_off_c, 0, 67, 61
1, 98183, Note_off_c, 0, 61, 59
1, 98185, Note_on_c, 0, 56, 65
1, 98188, Note_on_c, 0, 65, 59
1, 98191, Note_on_c, 0, 60, 54
1, 98193, Note_off_c, 0, 58, 59
1, 98216, Control_c, 0, 64, 94
1, 98230, Note_off_c, 0, 60, 60
1, 98230, Control_c, 0, 64, 93
1, 98246, Control_c, 0, 64, 93
1, 98251, Note_off_c, 0, 56, 57
1, 98257, Note_off_c, 0, 65, 59
1, 98261, Control_c, 0, 64, 92
1, 98276, Control_c, 0, 64, 90
1, 98290, Note_on_c, 0, 64, 63
1, 98290, Control_c, 0, 64, 87
1, 98304, Note_on_c, 0, 55, 58
1, 98305, Control_c, 0, 64, 79
1, 98320, Note_on_c, 0, 58, 55
1, 98320, Control_c, 0, 64, 70
1, 98335, Control_c, 0, 64, 61
1, 98350, Control_c, 0, 64, 45
1, 98364, Control_c, 0, 64, 12
1, 98387, Control_c, 0, 64, 0
1, 98401, Note_off_c, 0, 55, 55
1, 98402, Control_c, 0, 64, 30
1, 98405, Note_off_c, 0, 64, 57
1, 98412, Note_on_c, 0, 65, 56
1, 98417, Control_c, 0, 64, 46
1, 98420, Note_off_c, 0, 58, 54
1, 98428, Note_on_c, 0, 60, 52
1, 98429, Note_on_c, 0, 56, 53
1, 98432, Control_c, 0, 64, 58
1, 98446, Control_c, 0, 64, 64
1, 98461, Control_c, 0, 64, 68
1, 98476, Control_c, 0, 64, 71
1, 98490, Control_c, 0, 64, 75
1, 98505, Control_c, 0, 64, 78
1, 98520, Control_c, 0, 64, 80
1, 98535, Control_c, 0, 64, 81
1, 98536, Note_off_c, 0, 65, 59
1, 98542, Note_on_c, 0, 58, 55
1, 98544, Note_on_c, 0, 55, 49
1, 98545, Note_on_c, 0, 64, 44
1, 98550, Control_c, 0, 64, 81
1, 98564, Control_c, 0, 64, 82
1, 98570, Note_off_c, 0, 64, 54
1, 98572, Note_off_c, 0, 60, 54
1, 98577, Note_off_c, 0, 56, 55
1, 98578, Note_off_c, 0, 55, 48
1, 98579, Control_c, 0, 64, 82
1, 98584, Note_off_c, 0, 58, 57
1, 98594, Control_c, 0, 64, 83
1, 98609, Control_c, 0, 64, 84
1, 98624, Control_c, 0, 64, 84
1, 98638, Control_c, 0, 64, 85
1, 98728, Control_c, 0, 64, 84
1, 98742, Note_on_c, 0, 61, 46
1, 98742, Control_c, 0, 64, 82
1, 98754, Note_on_c, 0, 53, 46
1, 98757, Control_c, 0, 64, 80
1, 98772, Control_c, 0, 64, 76
1, 98781, Note_on_c, 0, 56, 33
1, 98787, Control_c, 0, 64, 70
1, 98802, Control_c, 0, 64, 62
1, 98817, Control_c, 0, 64, 46
1, 98831, Control_c, 0, 64, 36
1, 98846, Control_c, 0, 64, 49
1, 98862, Control_c, 0, 64, 60
1, 98877, Control_c, 0, 64, 64
1, 98891, Control_c, 0, 64, 66
1, 98896, Note_on_c, 0, 63, 52
1, 98899, Note_on_c, 0, 55, 50
1, 98900, Note_on_c, 0, 58, 47
1, 98906, Note_off_c, 0, 53, 57
1, 98906, Control_c, 0, 64, 69
1, 98918, Note_off_c, 0, 61, 57
1, 98921, Control_c, 0, 64, 76
1, 98922, Note_off_c, 0, 56, 45
1, 98936, Control_c, 0, 64, 86
1, 98939, Note_off_c, 0, 63, 59
1, 98948, Note_off_c, 0, 58, 53
1, 98951, Control_c, 0, 64, 93
1, 98957, Note_off_c, 0, 55, 55
1, 98966, Control_c, 0, 64, 93
1, 98980, Control_c, 0, 64, 93
1, 98989, Note_on_c, 0, 53, 44
1, 98995, Control_c, 0, 64, 90
1, 98999, Note_on_c, 0, 61, 40
1, 99010, Control_c, 0, 64, 84
1, 99020, Note_on_c, 0, 56, 33
1, 99025, Control_c, 0, 64, 76
1, 99040, Control_c, 0, 64, 69
1, 99054, Control_c, 0, 64, 68
1, 99058, Note_off_c, 0, 53, 63
1, 99069, Control_c, 0, 64, 72
1, 99073, Note_off_c, 0, 61, 55
1, 99084, Control_c, 0, 64, 79
1, 99091, Note_on_c, 0, 52, 48
1, 99098, Note_on_c, 0, 55, 35
1, 99099, Control_c, 0, 64, 88
1, 99113, Control_c, 0, 64, 92
1, 99134, Note_off_c, 0, 56, 0
1, 99136, Control_c, 0, 64, 92
1, 99145, Note_off_c, 0, 52, 48
1, 99151, Control_c, 0, 64, 89
1, 99166, Control_c, 0, 64, 83
1, 99169, Note_on_c, 0, 61, 59
1, 99169, Note_off_c, 0, 55, 0
1, 99172, Poly_aftertouch_c, 0, 56, 127
1, 99181, Control_c, 0, 64, 76
1, 99192, Note_on_c, 0, 53, 50
1, 99195, Control_c, 0, 64, 71
1, 99196, Note_on_c, 0, 55, 24
1, 99210, Control_c, 0, 64, 70
1, 99213, Note_on_c, 0, 60, 29
1, 99215, Note_off_c, 0, 61, 58
1, 99220, Note_off_c, 0, 53, 55
1, 99225, Control_c, 0, 64, 72
1, 99232, Poly_aftertouch_c, 0, 56, 0
1, 99240, Control_c, 0, 64, 77
1, 99245, Note_off_c, 0, 55, 57
1, 99255, Control_c, 0, 64, 82
1, 99269, Control_c, 0, 64, 83
1, 99270, Note_off_c, 0, 60, 42
1, 99284, Control_c, 0, 64, 84
1, 99299, Control_c, 0, 64, 83
1, 99309, Note_on_c, 0, 61, 53
1, 99313, Control_c, 0, 64, 81
1, 99315, Note_on_c, 0, 53, 29
1, 99328, Control_c, 0, 64, 74
1, 99330, Note_on_c, 0, 56, 48
1, 99343, Control_c, 0, 64, 67
1, 99351, Note_off_c, 0, 53, 53
1, 99351, Note_off_c, 0, 61, 45
1, 99356, Note_off_c, 0, 56, 57
1, 99358, Control_c, 0, 64, 64
1, 99373, Control_c, 0, 64, 65
1, 99379, Note_on_c, 0, 58, 59
1, 99387, Note_on_c, 0, 55, 45
1, 99387, Control_c, 0, 64, 68
1, 99388, Note_on_c, 0, 63, 52
1, 99402, Control_c, 0, 64, 73
1, 99417, Control_c, 0, 64, 79
1, 99431, Note_off_c, 0, 55, 48
1, 99431, Note_off_c, 0, 63, 60
1, 99431, Control_c, 0, 64, 82
1, 99438, Note_off_c, 0, 58, 47
1, 99452, Note_on_c, 0, 56, 47
1, 99452, Note_on_c, 0, 61, 58
1, 99461, Control_c, 0, 64, 80
1, 99463, Note_on_c, 0, 53, 46
1, 99476, Control_c, 0, 64, 77
1, 99491, Control_c, 0, 64, 70
1, 99503, Note_off_c, 0, 61, 54
1, 99504, Note_off_c, 0, 56, 57
1, 99505, Note_off_c, 0, 53, 52
1, 99506, Control_c, 0, 64, 62
1, 99520, Control_c, 0, 64, 60
1, 99535, Note_on_c, 0, 55, 58
1, 99535, Control_c, 0, 64, 62
1, 99544, Note_on_c, 0, 60, 53
1, 99547, Note_on_c, 0, 52, 59
1, 99550, Control_c, 0, 64, 66
1, 99565, Control_c, 0, 64, 70
1, 99580, Control_c, 0, 64, 74
1, 99589, Note_off_c, 0, 60, 58
1, 99589, Note_off_c, 0, 52, 59
1, 99595, Control_c, 0, 64, 77
1, 99603, Note_off_c, 0, 55, 54
1, 99610, Control_c, 0, 64, 79
1, 99616, Note_on_c, 0, 53, 46
1, 99619, Note_on_c, 0, 56, 43
1, 99623, Note_on_c, 0, 61, 54
1, 99624, Control_c, 0, 64, 80
1, 99639, Control_c, 0, 64, 80
1, 99655, Control_c, 0, 64, 78
1, 99666, Note_off_c, 0, 53, 60
1, 99666, Note_off_c, 0, 61, 57
1, 99670, Control_c, 0, 64, 74
1, 99671, Note_off_c, 0, 56, 56
1, 99684, Control_c, 0, 64, 70
1, 99691, Note_on_c, 0, 52, 56
1, 99699, Control_c, 0, 64, 66
1, 99702, Note_on_c, 0, 60, 51
1, 99702, Note_on_c, 0, 55, 45
1, 99714, Control_c, 0, 64, 64
1, 99721, Note_off_c, 0, 52, 58
1, 99729, Control_c, 0, 64, 62
1, 99737, Note_off_c, 0, 55, 58
1, 99738, Note_off_c, 0, 60, 59
1, 99744, Control_c, 0, 64, 62
1, 99759, Control_c, 0, 64, 63
1, 99771, Note_on_c, 0, 61, 55
1, 99774, Control_c, 0, 64, 65
1, 99781, Note_on_c, 0, 56, 46
1, 99786, Note_on_c, 0, 53, 46
1, 99789, Control_c, 0, 64, 67
1, 99803, Control_c, 0, 64, 68
1, 99833, Control_c, 0, 64, 67
1, 99838, Note_off_c, 0, 53, 58
1, 99845, Note_off_c, 0, 61, 55
1, 99848, Control_c, 0, 64, 67
1, 99857, Note_off_c, 0, 56, 54
1, 99884, Control_c, 0, 64, 65
1, 99887, Note_on_c, 0, 55, 43
1, 99888, Note_on_c, 0, 63, 52
1, 99892, Note_on_c, 0, 58, 46
1, 99899, Control_c, 0, 64, 63
1, 99914, Control_c, 0, 64, 61
1, 99929, Note_off_c, 0, 63, 60
1, 99929, Control_c, 0, 64, 62
1, 99935, Note_off_c, 0, 55, 56
1, 99940, Note_off_c, 0, 58, 61
1, 99944, Control_c, 0, 64, 63
1, 99959, Control_c, 0, 64, 64
1, 99974, Control_c, 0, 64, 66
1, 99984, Note_on_c, 0, 61, 47
1, 99988, Control_c, 0, 64, 67
1, 100001, Note_on_c, 0, 56, 36
1, 100003, Control_c, 0, 64, 68
1, 100009, Note_on_c, 0, 53, 26
1, 100018, Control_c, 0, 64, 70
1, 100033, Control_c, 0, 64, 71
1, 100040, Note_off_c, 0, 61, 54
1, 100048, Control_c, 0, 64, 71
1, 100052, Note_off_c, 0, 53, 49
1, 100054, Note_on_c, 0, 55, 44
1, 100062, Note_off_c, 0, 56, 41
1, 100072, Note_on_c, 0, 60, 46
1, 100088, Note_on_c, 0, 52, 40
1, 100107, Control_c, 0, 64, 71
1, 100122, Control_c, 0, 64, 69
1, 100123, Note_off_c, 0, 60, 56
1, 100127, Note_off_c, 0, 52, 50
1, 100131, Note_off_c, 0, 55, 51
1, 100136, Control_c, 0, 64, 66
1, 100151, Control_c, 0, 64, 63
1, 100165, Note_on_c, 0, 61, 47
1, 100166, Control_c, 0, 64, 62
1, 100181, Control_c, 0, 64, 63
1, 100183, Note_on_c, 0, 53, 42
1, 100189, Note_on_c, 0, 56, 38
1, 100196, Control_c, 0, 64, 64
1, 100210, Control_c, 0, 64, 65
1, 100225, Control_c, 0, 64, 67
1, 100235, Note_on_c, 0, 52, 41
1, 100235, Note_off_c, 0, 53, 59
1, 100240, Control_c, 0, 64, 68
1, 100243, Note_on_c, 0, 60, 48
1, 100243, Note_off_c, 0, 56, 53
1, 100244, Note_off_c, 0, 61, 56
1, 100254, Control_c, 0, 64, 70
1, 100260, Note_on_c, 0, 55, 35
1, 100263, Note_off_c, 0, 52, 56
1, 100269, Control_c, 0, 64, 72
1, 100289, Note_off_c, 0, 60, 59
1, 100292, Note_off_c, 0, 55, 50
1, 100299, Control_c, 0, 64, 71
1, 100314, Control_c, 0, 64, 70
1, 100358, Control_c, 0, 64, 70
1, 100373, Control_c, 0, 64, 68
1, 100374, Note_on_c, 0, 61, 36
1, 100382, Note_on_c, 0, 56, 40
1, 100383, Note_on_c, 0, 53, 28
1, 100388, Control_c, 0, 64, 66
1, 100403, Control_c, 0, 64, 65
1, 100418, Control_c, 0, 64, 64
1, 100433, Control_c, 0, 64, 63
1, 100445, Note_off_c, 0, 53, 51
1, 100448, Control_c, 0, 64, 61
1, 100456, Note_off_c, 0, 56, 52
1, 100462, Note_off_c, 0, 61, 42
1, 100463, Control_c, 0, 64, 58
1, 100470, Note_on_c, 0, 63, 48
1, 100477, Control_c, 0, 64, 57
1, 100478, Note_on_c, 0, 58, 37
1, 100480, Note_on_c, 0, 55, 35
1, 100492, Control_c, 0, 64, 57
1, 100507, Control_c, 0, 64, 58
1, 100522, Control_c, 0, 64, 59
1, 100528, Note_off_c, 0, 58, 60
1, 100530, Note_off_c, 0, 63, 57
1, 100536, Note_off_c, 0, 55, 56
1, 100537, Control_c, 0, 64, 59
1, 100551, Control_c, 0, 64, 60
1, 100588, Note_on_c, 0, 61, 44
1, 100596, Control_c, 0, 64, 60
1, 100615, Note_on_c, 0, 53, 39
1, 100622, Note_on_c, 0, 56, 21
1, 100647, Control_c, 0, 64, 60
1, 100707, Control_c, 0, 64, 59
1, 100712, Note_off_c, 0, 53, 53
1, 100719, Note_off_c, 0, 61, 46
1, 100737, Note_off_c, 0, 56, 35
1, 100757, Note_on_c, 0, 55, 24
1, 100763, Note_on_c, 0, 60, 39
1, 100779, Note_on_c, 0, 52, 23
1, 100796, Control_c, 0, 64, 59
1, 100855, Control_c, 0, 64, 58
1, 100884, Control_c, 0, 64, 58
1, 100944, Control_c, 0, 64, 57
1, 100973, Note_off_c, 0, 60, 59
1, 100975, Note_on_c, 0, 61, 32
1, 100986, Note_on_c, 0, 53, 32
1, 100986, Note_off_c, 0, 55, 44
1, 100992, Note_off_c, 0, 52, 48
1, 100999, Note_on_c, 0, 56, 29
1, 101340, Note_on_c, 0, 60, 28
1, 101352, Note_on_c, 0, 52, 14
1, 101358, Note_on_c, 0, 55, 3
1, 101360, Note_off_c, 0, 53, 42
1, 101387, Note_off_c, 0, 61, 51
1, 101401, Note_off_c, 0, 56, 42
1, 101442, Control_c, 0, 64, 58
1, 101471, Control_c, 0, 64, 58
1, 101486, Control_c, 0, 64, 59
1, 101500, Control_c, 0, 64, 60
1, 101515, Control_c, 0, 64, 61
1, 101530, Control_c, 0, 64, 61
1, 101545, Control_c, 0, 64, 62
1, 101560, Control_c, 0, 64, 64
1, 101574, Control_c, 0, 64, 66
1, 101589, Control_c, 0, 64, 68
1, 101604, Control_c, 0, 64, 71
1, 101619, Control_c, 0, 64, 74
1, 101634, Control_c, 0, 64, 77
1, 101649, Control_c, 0, 64, 80
1, 101664, Control_c, 0, 64, 83
1, 101679, Control_c, 0, 64, 87
1, 101694, Control_c, 0, 64, 90
1, 101708, Control_c, 0, 64, 95
1, 101723, Control_c, 0, 64, 98
1, 101738, Control_c, 0, 64, 100
1, 101753, Control_c, 0, 64, 101
1, 101768, Control_c, 0, 64, 102
1, 101782, Control_c, 0, 64, 103
1, 101797, Control_c, 0, 64, 105
1, 101812, Control_c, 0, 64, 106
1, 101827, Control_c, 0, 64, 106
1, 101881, Note_off_c, 0, 52, 43
1, 101938, Note_off_c, 0, 60, 35
1, 101956, Note_off_c, 0, 55, 35
1, 101960, Note_on_c, 0, 41, 44
1, 102019, Control_c, 0, 64, 107
1, 102050, Control_c, 0, 64, 106
1, 102065, Control_c, 0, 64, 103
1, 102079, Control_c, 0, 64, 97
1, 102094, Control_c, 0, 64, 87
1, 102109, Control_c, 0, 64, 78
1, 102131, Control_c, 0, 64, 72
1, 102146, Control_c, 0, 64, 72
1, 102161, Control_c, 0, 64, 77
1, 102176, Control_c, 0, 64, 86
1, 102191, Control_c, 0, 64, 99
1, 102197, Note_on_c, 0, 48, 47
1, 102205, Control_c, 0, 64, 113
1, 102210, Note_off_c, 0, 41, 44
1, 102220, Control_c, 0, 64, 127
1, 102306, Note_off_c, 0, 48, 60
1, 102318, Note_on_c, 0, 56, 56
1, 102359, Note_off_c, 0, 56, 59
1, 102532, Note_on_c, 0, 56, 42
1, 102534, Note_on_c, 0, 83, 63
1, 102549, Note_on_c, 0, 71, 51
1, 102692, Note_on_c, 0, 65, 32
1, 102703, Note_off_c, 0, 71, 51
1, 102806, Note_on_c, 0, 60, 42
1, 102817, Note_off_c, 0, 65, 40
1, 102832, Note_off_c, 0, 60, 57
1, 102850, Note_off_c, 0, 56, 40
1, 102888, Note_on_c, 0, 84, 58
1, 102888, Note_off_c, 0, 83, 53
1, 102905, Note_on_c, 0, 72, 42
1, 102940, Control_c, 0, 67, 127
1, 102949, Note_off_c, 0, 72, 0
1, 102949, Note_on_c, 0, 72, 4
1, 102954, Control_c, 0, 67, 122
1, 102969, Control_c, 0, 67, 116
1, 102984, Control_c, 0, 67, 110
1, 102999, Control_c, 0, 67, 103
1, 103014, Control_c, 0, 64, 105
1, 103014, Control_c, 0, 67, 95
1, 103026, Note_on_c, 0, 41, 68
1, 103028, Control_c, 0, 64, 89
1, 103028, Control_c, 0, 67, 84
1, 103043, Control_c, 0, 64, 72
1, 103043, Control_c, 0, 67, 73
1, 103058, Control_c, 0, 64, 60
1, 103058, Control_c, 0, 67, 65
1, 103073, Control_c, 0, 64, 52
1, 103073, Control_c, 0, 67, 62
1, 103087, Control_c, 0, 64, 58
1, 103087, Control_c, 0, 67, 60
1, 103102, Control_c, 0, 64, 64
1, 103102, Control_c, 0, 67, 55
1, 103117, Control_c, 0, 64, 69
1, 103117, Control_c, 0, 67, 47
1, 103132, Control_c, 0, 64, 75
1, 103132, Control_c, 0, 67, 35
1, 103134, Note_off_c, 0, 41, 61
1, 103147, Control_c, 0, 64, 86
1, 103147, Control_c, 0, 67, 26
1, 103157, Note_on_c, 0, 52, 65
1, 103161, Control_c, 0, 64, 98
1, 103161, Control_c, 0, 67, 20
1, 103176, Control_c, 0, 64, 120
1, 103176, Control_c, 0, 67, 19
1, 103191, Control_c, 0, 64, 127
1, 103191, Control_c, 0, 67, 18
1, 103198, Note_off_c, 0, 72, 55
1, 103206, Control_c, 0, 67, 16
1, 103219, Note_off_c, 0, 52, 65
1, 103221, Control_c, 0, 67, 12
1, 103235, Control_c, 0, 67, 0
1, 103251, Note_on_c, 0, 58, 70
1, 103316, Note_off_c, 0, 58, 59
1, 103383, Note_on_c, 0, 85, 80
1, 103396, Note_on_c, 0, 73, 67
1, 103416, Note_off_c, 0, 84, 63
1, 103442, Note_on_c, 0, 55, 40
1, 103549, Note_on_c, 0, 64, 44
1, 103656, Note_off_c, 0, 64, 57
1, 103670, Note_off_c, 0, 73, 63
1, 103683, Note_on_c, 0, 58, 44
1, 103685, Note_off_c, 0, 55, 48
1, 103704, Note_off_c, 0, 58, 61
1, 103738, Note_off_c, 0, 85, 62
1, 103773, Note_on_c, 0, 84, 67
1, 103789, Note_on_c, 0, 72, 57
1, 103867, Control_c, 0, 64, 102
1, 103881, Control_c, 0, 64, 84
1, 103896, Control_c, 0, 64, 69
1, 103911, Control_c, 0, 64, 52
1, 103914, Note_on_c, 0, 41, 66
1, 103926, Control_c, 0, 64, 44
1, 103941, Control_c, 0, 64, 54
1, 103956, Control_c, 0, 64, 63
1, 103971, Control_c, 0, 64, 69
1, 103985, Control_c, 0, 64, 76
1, 103990, Note_off_c, 0, 41, 62
1, 104000, Control_c, 0, 64, 87
1, 104004, Note_on_c, 0, 48, 64
1, 104012, Note_off_c, 0, 84, 58
1, 104015, Control_c, 0, 64, 100
1, 104029, Control_c, 0, 64, 127
1, 104037, Note_off_c, 0, 72, 62
1, 104070, Note_off_c, 0, 48, 64
1, 104087, Note_on_c, 0, 56, 73
1, 104114, Note_off_c, 0, 56, 66
1, 104146, Note_on_c, 0, 83, 80
1, 104159, Note_on_c, 0, 71, 66
1, 104180, Note_off_c, 0, 71, 57
1, 104203, Note_on_c, 0, 56, 48
1, 104212, Note_on_c, 0, 60, 59
1, 104269, Note_on_c, 0, 67, 71
1, 104276, Note_on_c, 0, 85, 86
1, 104278, Note_off_c, 0, 83, 60
1, 104290, Note_on_c, 0, 73, 77
1, 104327, Note_off_c, 0, 56, 57
1, 104340, Control_c, 0, 64, 111
1, 104345, Note_on_c, 0, 65, 67
1, 104355, Control_c, 0, 64, 90
1, 104367, Note_off_c, 0, 67, 56
1, 104376, Note_off_c, 0, 73, 63
1, 104376, Control_c, 0, 64, 71
1, 104391, Control_c, 0, 64, 58
1, 104406, Control_c, 0, 64, 42
1, 104407, Note_off_c, 0, 85, 62
1, 104414, Note_off_c, 0, 60, 24
1, 104421, Control_c, 0, 64, 46
1, 104433, Note_on_c, 0, 58, 63
1, 104435, Note_off_c, 0, 65, 60
1, 104436, Control_c, 0, 64, 54
1, 104446, Note_on_c, 0, 55, 60
1, 104452, Control_c, 0, 64, 58
1, 104456, Note_on_c, 0, 84, 79
1, 104459, Note_on_c, 0, 72, 76
1, 104467, Control_c, 0, 64, 61
1, 104481, Control_c, 0, 64, 64
1, 104496, Control_c, 0, 64, 67
1, 104511, Control_c, 0, 64, 72
1, 104525, Control_c, 0, 64, 80
1, 104535, Note_off_c, 0, 72, 63
1, 104540, Control_c, 0, 64, 90
1, 104555, Control_c, 0, 64, 97
1, 104570, Control_c, 0, 64, 103
1, 104575, Note_on_c, 0, 65, 72
1, 104585, Control_c, 0, 64, 109
1, 104592, Note_off_c, 0, 84, 63
1, 104600, Control_c, 0, 64, 127
1, 104773, Note_on_c, 0, 92, 84
1, 104795, Note_on_c, 0, 80, 64
1, 104804, Note_on_c, 0, 63, 40
1, 104854, Note_off_c, 0, 55, 30
1, 104877, Note_off_c, 0, 58, 33
1, 104887, Note_off_c, 0, 65, 37
1, 104898, Note_off_c, 0, 92, 64
1, 104922, Note_off_c, 0, 80, 58
1, 104987, Note_on_c, 0, 53, 55
1, 105014, Note_off_c, 0, 63, 39
1, 105014, Note_on_c, 0, 56, 44
1, 105044, Control_c, 0, 64, 117
1, 105059, Control_c, 0, 64, 106
1, 105074, Control_c, 0, 64, 96
1, 105089, Control_c, 0, 64, 84
1, 105097, Note_on_c, 0, 89, 74
1, 105104, Control_c, 0, 64, 72
1, 105114, Note_on_c, 0, 77, 58
1, 105125, Note_off_c, 0, 56, 48
1, 105126, Control_c, 0, 64, 61
1, 105141, Control_c, 0, 64, 51
1, 105156, Control_c, 0, 64, 57
1, 105171, Control_c, 0, 64, 64
1, 105186, Control_c, 0, 64, 70
1, 105200, Control_c, 0, 64, 78
1, 105205, Note_on_c, 0, 63, 70
1, 105215, Control_c, 0, 64, 87
1, 105222, Note_off_c, 0, 53, 54
1, 105230, Control_c, 0, 64, 96
1, 105246, Control_c, 0, 64, 106
1, 105261, Control_c, 0, 64, 114
1, 105275, Control_c, 0, 64, 127
1, 105312, Note_off_c, 0, 63, 60
1, 105314, Note_on_c, 0, 61, 62
1, 105349, Note_on_c, 0, 60, 61
1, 105371, Note_off_c, 0, 61, 36
1, 105379, Control_c, 0, 64, 110
1, 105389, Note_off_c, 0, 60, 59
1, 105394, Control_c, 0, 64, 94
1, 105405, Note_on_c, 0, 55, 58
1, 105409, Control_c, 0, 64, 80
1, 105414, Note_on_c, 0, 51, 63
1, 105423, Control_c, 0, 64, 65
1, 105438, Control_c, 0, 64, 58
1, 105453, Control_c, 0, 64, 61
1, 105468, Control_c, 0, 64, 67
1, 105482, Control_c, 0, 64, 73
1, 105492, Note_on_c, 0, 61, 62
1, 105497, Control_c, 0, 64, 82
1, 105512, Control_c, 0, 64, 91
1, 105520, Note_off_c, 0, 89, 53
1, 105527, Control_c, 0, 64, 103
1, 105536, Note_off_c, 0, 51, 59
1, 105542, Control_c, 0, 64, 118
1, 105548, Note_off_c, 0, 55, 57
1, 105557, Control_c, 0, 64, 127
1, 105564, Note_off_c, 0, 77, 50
1, 105566, Note_off_c, 0, 61, 61
1, 105567, Note_on_c, 0, 60, 64
1, 105601, Control_c, 0, 64, 109
1, 105616, Control_c, 0, 64, 92
1, 105631, Control_c, 0, 64, 77
1, 105637, Note_off_c, 0, 60, 60
1, 105646, Control_c, 0, 64, 64
1, 105647, Note_on_c, 0, 49, 71
1, 105652, Note_on_c, 0, 53, 60
1, 105661, Control_c, 0, 64, 58
1, 105675, Control_c, 0, 64, 61
1, 105675, Control_c, 0, 67, 9
1, 105690, Control_c, 0, 64, 66
1, 105690, Control_c, 0, 67, 14
1, 105705, Control_c, 0, 64, 70
1, 105705, Control_c, 0, 67, 20
1, 105720, Control_c, 0, 64, 76
1, 105720, Control_c, 0, 67, 25
1, 105724, Note_on_c, 0, 60, 58
1, 105735, Control_c, 0, 64, 83
1, 105735, Control_c, 0, 67, 30
1, 105749, Control_c, 0, 64, 92
1, 105749, Control_c, 0, 67, 34
1, 105759, Note_off_c, 0, 53, 63
1, 105764, Control_c, 0, 64, 102
1, 105764, Control_c, 0, 67, 35
1, 105770, Note_off_c, 0, 49, 47
1, 105779, Control_c, 0, 64, 107
1, 105779, Control_c, 0, 67, 36
1, 105782, Note_off_c, 0, 60, 60
1, 105783, Note_on_c, 0, 58, 66
1, 105794, Control_c, 0, 67, 37
1, 105809, Control_c, 0, 64, 105
1, 105809, Control_c, 0, 67, 37
1, 105823, Control_c, 0, 64, 100
1, 105823, Control_c, 0, 67, 39
1, 105838, Control_c, 0, 64, 92
1, 105838, Control_c, 0, 67, 42
1, 105853, Control_c, 0, 64, 81
1, 105853, Control_c, 0, 67, 47
1, 105862, Note_off_c, 0, 58, 59
1, 105874, Note_on_c, 0, 48, 67
1, 105875, Control_c, 0, 64, 69
1, 105875, Control_c, 0, 67, 51
1, 105882, Note_on_c, 0, 51, 63
1, 105890, Control_c, 0, 64, 58
1, 105890, Control_c, 0, 67, 56
1, 105905, Control_c, 0, 64, 47
1, 105905, Control_c, 0, 67, 60
1, 105920, Control_c, 0, 64, 53
1, 105920, Control_c, 0, 67, 62
1, 105935, Control_c, 0, 64, 60
1, 105935, Control_c, 0, 67, 65
1, 105949, Control_c, 0, 64, 62
1, 105949, Control_c, 0, 67, 68
1, 105956, Note_off_c, 0, 48, 59
1, 105961, Note_on_c, 0, 58, 63
1, 105964, Control_c, 0, 64, 63
1, 105964, Control_c, 0, 67, 71
1, 105979, Control_c, 0, 64, 64
1, 105979, Control_c, 0, 67, 74
1, 105994, Control_c, 0, 64, 68
1, 105994, Control_c, 0, 67, 78
1, 106008, Control_c, 0, 64, 73
1, 106008, Control_c, 0, 67, 81
1, 106023, Control_c, 0, 64, 78
1, 106023, Control_c, 0, 67, 83
1, 106034, Note_off_c, 0, 51, 56
1, 106038, Control_c, 0, 64, 82
1, 106038, Control_c, 0, 67, 85
1, 106051, Note_off_c, 0, 58, 56
1, 106054, Control_c, 0, 64, 85
1, 106054, Control_c, 0, 67, 86
1, 106056, Note_on_c, 0, 56, 55
1, 106069, Control_c, 0, 64, 86
1, 106069, Control_c, 0, 67, 87
1, 106084, Control_c, 0, 67, 88
1, 106098, Control_c, 0, 64, 87
1, 106098, Control_c, 0, 67, 88
1, 106113, Control_c, 0, 67, 89
1, 106128, Control_c, 0, 67, 90
1, 106143, Control_c, 0, 64, 86
1, 106143, Control_c, 0, 67, 92
1, 106150, Note_off_c, 0, 56, 59
1, 106156, Note_on_c, 0, 46, 61
1, 106158, Control_c, 0, 64, 83
1, 106158, Control_c, 0, 67, 95
1, 106169, Note_on_c, 0, 49, 47
1, 106172, Control_c, 0, 64, 76
1, 106172, Control_c, 0, 67, 96
1, 106187, Control_c, 0, 64, 66
1, 106187, Control_c, 0, 67, 97
1, 106202, Control_c, 0, 64, 55
1, 106202, Control_c, 0, 67, 97
1, 106217, Control_c, 0, 64, 35
1, 106217, Control_c, 0, 67, 99
1, 106232, Control_c, 0, 64, 29
1, 106232, Control_c, 0, 67, 105
1, 106246, Control_c, 0, 64, 39
1, 106246, Control_c, 0, 67, 112
1, 106261, Control_c, 0, 64, 49
1, 106261, Control_c, 0, 67, 117
1, 106266, Note_on_c, 0, 56, 44
1, 106276, Control_c, 0, 64, 55
1, 106276, Control_c, 0, 67, 121
1, 106290, Control_c, 0, 64, 61
1, 106290, Control_c, 0, 67, 124
1, 106305, Control_c, 0, 64, 65
1, 106305, Control_c, 0, 67, 127
1, 106320, Control_c, 0, 64, 70
1, 106320, Control_c, 0, 67, 127
1, 106335, Control_c, 0, 64, 75
1, 106350, Control_c, 0, 64, 79
1, 106365, Control_c, 0, 64, 81
1, 106379, Control_c, 0, 64, 84
1, 106394, Control_c, 0, 64, 87
1, 106402, Note_on_c, 0, 55, 48
1, 106409, Note_off_c, 0, 46, 49
1, 106409, Control_c, 0, 64, 90
1, 106424, Control_c, 0, 64, 92
1, 106424, Note_off_c, 0, 56, 56
1, 106433, Note_off_c, 0, 49, 31
1, 106435, Note_off_c, 0, 55, 54
1, 106439, Control_c, 0, 64, 93
1, 106528, Control_c, 0, 64, 92
1, 106572, Control_c, 0, 64, 92
1, 106587, Control_c, 0, 64, 90
1, 106602, Control_c, 0, 64, 89
1, 106624, Control_c, 0, 64, 88
1, 106639, Control_c, 0, 64, 88
1, 106654, Control_c, 0, 64, 87
1, 106669, Control_c, 0, 64, 84
1, 106684, Control_c, 0, 64, 78
1, 106698, Control_c, 0, 64, 72
1, 106713, Control_c, 0, 64, 66
1, 106721, Note_on_c, 0, 41, 37
1, 106728, Control_c, 0, 64, 62
1, 106743, Control_c, 0, 64, 58
1, 106758, Control_c, 0, 64, 55
1, 106772, Control_c, 0, 64, 53
1, 106787, Control_c, 0, 64, 53
1, 106802, Control_c, 0, 64, 55
1, 106817, Control_c, 0, 64, 58
1, 106831, Control_c, 0, 64, 62
1, 106847, Control_c, 0, 64, 64
1, 106849, Note_off_c, 0, 41, 51
1, 106862, Control_c, 0, 64, 67
1, 106877, Control_c, 0, 64, 71
1, 106887, Note_on_c, 0, 48, 41
1, 106892, Control_c, 0, 64, 75
1, 106907, Control_c, 0, 64, 79
1, 106921, Control_c, 0, 64, 83
1, 106936, Control_c, 0, 64, 87
1, 106951, Control_c, 0, 64, 91
1, 106966, Control_c, 0, 64, 95
1, 106972, Note_off_c, 0, 48, 61
1, 106981, Control_c, 0, 64, 100
1, 106991, Note_on_c, 0, 56, 49
1, 106995, Control_c, 0, 64, 106
1, 107010, Control_c, 0, 64, 111
1, 107023, Note_off_c, 0, 56, 54
1, 107113, Control_c, 0, 64, 110
1, 107155, Note_on_c, 0, 83, 56
1, 107156, Note_on_c, 0, 56, 41
1, 107179, Note_on_c, 0, 71, 42
1, 107277, Control_c, 0, 64, 110
1, 107283, Note_on_c, 0, 65, 44
1, 107303, Note_off_c, 0, 71, 39
1, 107336, Control_c, 0, 64, 111
1, 107351, Control_c, 0, 64, 112
1, 107373, Note_on_c, 0, 60, 56
1, 107373, Control_c, 0, 64, 113
1, 107375, Note_off_c, 0, 65, 50
1, 107388, Control_c, 0, 64, 113
1, 107397, Note_off_c, 0, 56, 43
1, 107402, Note_off_c, 0, 60, 63
1, 107451, Note_off_c, 0, 83, 53
1, 107464, Note_on_c, 0, 84, 59
1, 107475, Note_on_c, 0, 72, 48
1, 107491, Control_c, 0, 64, 113
1, 107506, Control_c, 0, 64, 112
1, 107514, Note_off_c, 0, 72, 0
1, 107514, Note_on_c, 0, 72, 8
1, 107521, Control_c, 0, 64, 106
1, 107536, Control_c, 0, 64, 98
1, 107551, Control_c, 0, 64, 87
1, 107566, Control_c, 0, 64, 75
1, 107581, Control_c, 0, 64, 63
1, 107593, Note_on_c, 0, 41, 56
1, 107595, Control_c, 0, 64, 52
1, 107610, Control_c, 0, 64, 57
1, 107625, Control_c, 0, 64, 66
1, 107638, Note_off_c, 0, 41, 61
1, 107640, Control_c, 0, 64, 74
1, 107655, Control_c, 0, 64, 88
1, 107670, Control_c, 0, 64, 107
1, 107673, Note_on_c, 0, 52, 57
1, 107685, Control_c, 0, 64, 127
1, 107712, Note_off_c, 0, 72, 42
1, 107748, Note_off_c, 0, 52, 62
1, 107769, Note_on_c, 0, 58, 66
1, 107823, Note_off_c, 0, 58, 52
1, 107922, Note_on_c, 0, 85, 66
1, 107941, Note_on_c, 0, 73, 55
1, 107968, Note_off_c, 0, 84, 44
1, 107969, Note_on_c, 0, 55, 13
1, 108062, Note_on_c, 0, 64, 51
1, 108138, Note_off_c, 0, 64, 63
1, 108158, Note_off_c, 0, 73, 62
1, 108163, Note_on_c, 0, 58, 48
1, 108173, Note_off_c, 0, 55, 42
1, 108180, Control_c, 0, 67, 127
1, 108195, Note_off_c, 0, 58, 52
1, 108195, Control_c, 0, 67, 126
1, 108203, Note_off_c, 0, 85, 62
1, 108240, Control_c, 0, 67, 126
1, 108254, Control_c, 0, 67, 125
1, 108257, Note_on_c, 0, 84, 64
1, 108269, Control_c, 0, 67, 123
1, 108274, Note_on_c, 0, 72, 53
1, 108284, Control_c, 0, 67, 121
1, 108299, Control_c, 0, 64, 115
1, 108299, Control_c, 0, 67, 120
1, 108314, Control_c, 0, 64, 98
1, 108314, Control_c, 0, 67, 119
1, 108329, Control_c, 0, 64, 83
1, 108329, Control_c, 0, 67, 118
1, 108343, Control_c, 0, 64, 69
1, 108343, Control_c, 0, 67, 115
1, 108358, Control_c, 0, 64, 57
1, 108358, Control_c, 0, 67, 110
1, 108373, Control_c, 0, 64, 52
1, 108373, Control_c, 0, 67, 104
1, 108388, Control_c, 0, 64, 62
1, 108388, Control_c, 0, 67, 100
1, 108389, Note_on_c, 0, 41, 58
1, 108402, Control_c, 0, 64, 70
1, 108402, Control_c, 0, 67, 96
1, 108417, Control_c, 0, 64, 81
1, 108417, Control_c, 0, 67, 91
1, 108432, Control_c, 0, 64, 97
1, 108432, Control_c, 0, 67, 82
1, 108445, Note_off_c, 0, 41, 62
1, 108448, Control_c, 0, 64, 119
1, 108448, Control_c, 0, 67, 75
1, 108463, Control_c, 0, 64, 127
1, 108463, Control_c, 0, 67, 70
1, 108469, Note_on_c, 0, 48, 57
1, 108478, Control_c, 0, 67, 70
1, 108479, Note_off_c, 0, 84, 57
1, 108499, Note_off_c, 0, 72, 64
1, 108507, Control_c, 0, 67, 69
1, 108521, Note_off_c, 0, 48, 63
1, 108537, Control_c, 0, 67, 69
1, 108541, Note_on_c, 0, 56, 65
1, 108569, Note_off_c, 0, 56, 63
1, 108581, Control_c, 0, 67, 69
1, 108596, Control_c, 0, 67, 68
1, 108611, Note_on_c, 0, 83, 71
1, 108611, Control_c, 0, 67, 69
1, 108621, Note_on_c, 0, 71, 54
1, 108640, Control_c, 0, 67, 68
1, 108642, Note_off_c, 0, 71, 58
1, 108655, Control_c, 0, 67, 67
1, 108660, Note_on_c, 0, 60, 61
1, 108670, Note_on_c, 0, 56, 34
1, 108670, Control_c, 0, 67, 66
1, 108685, Control_c, 0, 67, 66
1, 108714, Note_on_c, 0, 67, 69
1, 108729, Control_c, 0, 67, 65
1, 108744, Control_c, 0, 67, 64
1, 108746, Note_off_c, 0, 56, 36
1, 108746, Note_off_c, 0, 83, 56
1, 108748, Note_on_c, 0, 84, 73
1, 108748, Note_off_c, 0, 60, 51
1, 108759, Control_c, 0, 67, 62
1, 108761, Note_on_c, 0, 73, 61
1, 108773, Control_c, 0, 67, 62
1, 108793, Note_on_c, 0, 65, 57
1, 108800, Note_off_c, 0, 67, 57
1, 108818, Control_c, 0, 67, 61
1, 108833, Control_c, 0, 64, 112
1, 108833, Control_c, 0, 67, 60
1, 108833, Note_off_c, 0, 73, 60
1, 108836, Note_off_c, 0, 84, 56
1, 108848, Control_c, 0, 64, 98
1, 108848, Control_c, 0, 67, 59
1, 108852, Note_off_c, 0, 65, 55
1, 108870, Control_c, 0, 64, 83
1, 108870, Control_c, 0, 67, 59
1, 108877, Note_on_c, 0, 58, 59
1, 108885, Control_c, 0, 64, 72
1, 108885, Control_c, 0, 67, 58
1, 108899, Note_on_c, 0, 55, 46
1, 108899, Control_c, 0, 64, 61
1, 108899, Control_c, 0, 67, 54
1, 108914, Control_c, 0, 64, 46
1, 108914, Control_c, 0, 67, 49
1, 108923, Note_on_c, 0, 84, 61
1, 108929, Control_c, 0, 64, 43
1, 108929, Control_c, 0, 67, 46
1, 108930, Note_on_c, 0, 72, 62
1, 108944, Control_c, 0, 64, 54
1, 108944, Control_c, 0, 67, 45
1, 108955, Note_on_c, 0, 83, 36
1, 108959, Control_c, 0, 64, 63
1, 108959, Control_c, 0, 67, 43
1, 108973, Control_c, 0, 64, 68
1, 108973, Control_c, 0, 67, 38
1, 108983, Note_off_c, 0, 72, 64
1, 108985, Note_off_c, 0, 83, 33
1, 108988, Control_c, 0, 64, 74
1, 108988, Control_c, 0, 67, 30
1, 109000, Note_on_c, 0, 65, 63
1, 109003, Control_c, 0, 64, 82
1, 109003, Control_c, 0, 67, 22
1, 109018, Control_c, 0, 64, 93
1, 109018, Control_c, 0, 67, 20
1, 109032, Control_c, 0, 64, 106
1, 109037, Note_off_c, 0, 84, 63
1, 109047, Control_c, 0, 64, 127
1, 109047, Control_c, 0, 67, 19
1, 109062, Control_c, 0, 67, 16
1, 109077, Control_c, 0, 67, 11
1, 109092, Control_c, 0, 67, 9
1, 109122, Control_c, 0, 67, 9
1, 109137, Control_c, 0, 67, 0
1, 109139, Note_off_c, 0, 55, 54
1, 109167, Note_on_c, 0, 92, 74
1, 109167, Note_off_c, 0, 58, 54
1, 109178, Note_on_c, 0, 63, 51
1, 109179, Note_on_c, 0, 80, 62
1, 109185, Note_off_c, 0, 65, 50
1, 109235, Note_off_c, 0, 92, 64
1, 109246, Note_off_c, 0, 80, 56
1, 109301, Note_off_c, 0, 63, 53
1, 109308, Note_on_c, 0, 53, 57
1, 109348, Note_on_c, 0, 56, 40
1, 109419, Control_c, 0, 64, 108
1, 109434, Control_c, 0, 64, 92
1, 109438, Note_on_c, 0, 89, 72
1, 109448, Control_c, 0, 64, 79
1, 109451, Note_on_c, 0, 77, 56
1, 109463, Control_c, 0, 64, 67
1, 109478, Control_c, 0, 64, 60
1, 109493, Control_c, 0, 64, 62
1, 109508, Control_c, 0, 64, 65
1, 109520, Note_on_c, 0, 63, 65
1, 109522, Control_c, 0, 64, 71
1, 109523, Note_off_c, 0, 56, 25
1, 109537, Control_c, 0, 64, 79
1, 109552, Control_c, 0, 64, 89
1, 109567, Control_c, 0, 64, 102
1, 109582, Control_c, 0, 64, 127
1, 109619, Note_off_c, 0, 63, 64
1, 109620, Note_off_c, 0, 53, 53
1, 109633, Note_on_c, 0, 61, 62
1, 109652, Note_off_c, 0, 61, 63
1, 109767, Control_c, 0, 64, 109
1, 109782, Control_c, 0, 64, 92
1, 109793, Note_on_c, 0, 39, 76
1, 109796, Control_c, 0, 64, 77
1, 109811, Control_c, 0, 64, 63
1, 109826, Control_c, 0, 64, 59
1, 109840, Control_c, 0, 64, 64
1, 109843, Note_off_c, 0, 89, 61
1, 109855, Control_c, 0, 64, 72
1, 109870, Control_c, 0, 64, 84
1, 109885, Note_off_c, 0, 39, 62
1, 109885, Control_c, 0, 64, 103
1, 109890, Note_off_c, 0, 77, 61
1, 109893, Note_on_c, 0, 47, 71
1, 109900, Control_c, 0, 64, 127
1, 109925, Poly_aftertouch_c, 0, 46, 127
1, 109954, Poly_aftertouch_c, 0, 46, 0
1, 109966, Note_off_c, 0, 47, 62
1, 109974, Note_on_c, 0, 56, 75
1, 110007, Note_off_c, 0, 56, 62
1, 110068, Note_on_c, 0, 86, 83
1, 110073, Note_on_c, 0, 74, 70
1, 110106, Note_on_c, 0, 59, 65
1, 110168, Note_off_c, 0, 74, 63
1, 110200, Note_on_c, 0, 68, 81
1, 110253, Note_off_c, 0, 68, 67
1, 110258, Note_on_c, 0, 63, 75
1, 110263, Note_off_c, 0, 59, 61
1, 110292, Note_off_c, 0, 63, 60
1, 110326, Note_on_c, 0, 87, 86
1, 110327, Note_on_c, 0, 75, 80
1, 110364, Note_off_c, 0, 86, 60
1, 110398, Control_c, 0, 64, 112
1, 110413, Control_c, 0, 64, 87
1, 110427, Control_c, 0, 64, 69
1, 110429, Note_on_c, 0, 39, 72
1, 110432, Note_on_c, 0, 42, 56
1, 110442, Control_c, 0, 64, 57
1, 110457, Control_c, 0, 64, 59
1, 110465, Note_off_c, 0, 42, 52
1, 110471, Control_c, 0, 64, 66
1, 110486, Control_c, 0, 64, 79
1, 110501, Control_c, 0, 64, 96
1, 110506, Note_on_c, 0, 49, 87
1, 110516, Control_c, 0, 64, 127
1, 110535, Note_off_c, 0, 39, 63
1, 110586, Note_off_c, 0, 49, 60
1, 110586, Note_on_c, 0, 55, 76
1, 110612, Note_off_c, 0, 75, 62
1, 110616, Note_off_c, 0, 55, 64
1, 110657, Note_off_c, 0, 87, 60
1, 110694, Note_on_c, 0, 88, 94
1, 110701, Note_on_c, 0, 76, 85
1, 110708, Note_on_c, 0, 58, 82
1, 110821, Note_on_c, 0, 67, 83
1, 110886, Note_off_c, 0, 76, 61
1, 110910, Note_on_c, 0, 61, 84
1, 110922, Note_off_c, 0, 67, 62
1, 110932, Note_off_c, 0, 58, 65
1, 110952, Note_off_c, 0, 61, 65
1, 111033, Note_on_c, 0, 87, 91
1, 111036, Note_on_c, 0, 75, 88
1, 111061, Note_off_c, 0, 88, 59
1, 111080, Control_c, 0, 64, 109
1, 111094, Control_c, 0, 64, 81
1, 111116, Control_c, 0, 64, 63
1, 111117, Note_on_c, 0, 44, 83
1, 111131, Control_c, 0, 64, 54
1, 111132, Poly_aftertouch_c, 0, 51, 0
1, 111146, Control_c, 0, 64, 62
1, 111161, Control_c, 0, 64, 75
1, 111176, Control_c, 0, 64, 94
1, 111178, Note_on_c, 0, 51, 75
1, 111191, Control_c, 0, 64, 127
1, 111199, Note_off_c, 0, 44, 62
1, 111216, Note_off_c, 0, 75, 63
1, 111229, Note_off_c, 0, 87, 62
1, 111247, Note_off_c, 0, 51, 63
1, 111253, Note_on_c, 0, 60, 79
1, 111265, Note_on_c, 0, 86, 93
1, 111266, Note_on_c, 0, 74, 93
1, 111289, Note_off_c, 0, 60, 63
1, 111310, Note_off_c, 0, 74, 62
1, 111347, Note_off_c, 0, 86, 61
1, 111358, Note_on_c, 0, 60, 71
1, 111378, Note_on_c, 0, 63, 78
1, 111455, Note_on_c, 0, 70, 84
1, 111462, Note_on_c, 0, 89, 104
1, 111464, Note_on_c, 0, 77, 94
1, 111474, Note_off_c, 0, 63, 59
1, 111526, Note_off_c, 0, 60, 58
1, 111527, Note_on_c, 0, 68, 84
1, 111542, Note_off_c, 0, 77, 62
1, 111558, Note_off_c, 0, 70, 63
1, 111590, Control_c, 0, 64, 87
1, 111603, Note_on_c, 0, 58, 78
1, 111605, Control_c, 0, 64, 68
1, 111608, Note_on_c, 0, 61, 75
1, 111611, Note_off_c, 0, 68, 61
1, 111613, Note_on_c, 0, 87, 95
1, 111617, Note_on_c, 0, 75, 92
1, 111620, Control_c, 0, 64, 63
1, 111630, Note_on_c, 0, 88, 44
1, 111635, Control_c, 0, 64, 69
1, 111650, Note_on_c, 0, 76, 48
1, 111650, Note_off_c, 0, 89, 64
1, 111650, Control_c, 0, 64, 80
1, 111652, Note_off_c, 0, 75, 69
1, 111665, Note_off_c, 0, 88, 47
1, 111665, Control_c, 0, 64, 99
1, 111672, Note_off_c, 0, 76, 63
1, 111674, Note_on_c, 0, 77, 14
1, 111680, Control_c, 0, 64, 127
1, 111694, Note_off_c, 0, 87, 62
1, 111698, Note_on_c, 0, 68, 92
1, 111714, Note_off_c, 0, 77, 38
1, 111799, Note_on_c, 0, 67, 78
1, 111846, Note_off_c, 0, 61, 57
1, 111852, Note_off_c, 0, 68, 56
1, 111854, Note_off_c, 0, 58, 60
1, 111916, Note_on_c, 0, 84, 86
1, 111916, Note_on_c, 0, 96, 85
1, 111918, Note_on_c, 0, 98, 90
1, 111978, Note_off_c, 0, 67, 58
1, 111997, Note_off_c, 0, 98, 66
1, 112015, Note_off_c, 0, 84, 63
1, 112024, Note_off_c, 0, 96, 66
1, 112035, Note_on_c, 0, 56, 75
1, 112043, Note_on_c, 0, 60, 65
1, 112162, Control_c, 0, 64, 112
1, 112177, Control_c, 0, 64, 90
1, 112191, Control_c, 0, 64, 72
1, 112192, Note_on_c, 0, 80, 97
1, 112192, Note_on_c, 0, 92, 105
1, 112206, Control_c, 0, 64, 63
1, 112221, Control_c, 0, 64, 61
1, 112235, Control_c, 0, 64, 66
1, 112250, Control_c, 0, 64, 74
1, 112265, Control_c, 0, 64, 88
1, 112280, Control_c, 0, 64, 115
1, 112295, Control_c, 0, 64, 127
1, 112308, Note_on_c, 0, 67, 87
1, 112361, Note_off_c, 0, 56, 60
1, 112400, Note_on_c, 0, 65, 84
1, 112415, Note_off_c, 0, 67, 64
1, 112426, Note_off_c, 0, 60, 36
1, 112434, Note_off_c, 0, 65, 66
1, 112532, Control_c, 0, 64, 106
1, 112540, Note_on_c, 0, 43, 87
1, 112547, Control_c, 0, 64, 82
1, 112562, Control_c, 0, 64, 67
1, 112577, Control_c, 0, 64, 64
1, 112592, Control_c, 0, 64, 73
1, 112614, Note_off_c, 0, 92, 63
1, 112614, Control_c, 0, 64, 92
1, 112616, Note_off_c, 0, 80, 64
1, 112629, Control_c, 0, 64, 127
1, 112633, Note_on_c, 0, 52, 85
1, 112636, Note_off_c, 0, 43, 59
1, 112699, Note_off_c, 0, 52, 64
1, 112707, Note_on_c, 0, 60, 89
1, 112762, Note_off_c, 0, 60, 62
1, 112799, Note_on_c, 0, 78, 97
1, 112804, Note_on_c, 0, 55, 79
1, 112806, Note_on_c, 0, 90, 98
1, 112884, Note_on_c, 0, 64, 87
1, 112952, Note_on_c, 0, 60, 77
1, 112954, Note_off_c, 0, 78, 59
1, 112955, Note_off_c, 0, 55, 63
1, 112958, Note_off_c, 0, 64, 66
1, 112975, Note_off_c, 0, 60, 69
1, 113009, Note_on_c, 0, 91, 93
1, 113012, Note_on_c, 0, 79, 98
1, 113040, Note_off_c, 0, 90, 35
1, 113103, Control_c, 0, 64, 92
1, 113112, Note_on_c, 0, 43, 89
1, 113118, Control_c, 0, 64, 70
1, 113132, Control_c, 0, 64, 49
1, 113147, Control_c, 0, 64, 38
1, 113162, Control_c, 0, 64, 58
1, 113177, Control_c, 0, 64, 68
1, 113191, Control_c, 0, 64, 78
1, 113201, Note_on_c, 0, 50, 82
1, 113204, Note_off_c, 0, 79, 47
1, 113206, Control_c, 0, 64, 91
1, 113208, Note_off_c, 0, 43, 62
1, 113221, Control_c, 0, 64, 106
1, 113237, Control_c, 0, 64, 127
1, 113298, Note_on_c, 0, 59, 80
1, 113301, Note_off_c, 0, 50, 60
1, 113371, Note_off_c, 0, 59, 61
1, 113436, Note_on_c, 0, 92, 95
1, 113439, Note_on_c, 0, 80, 87
1, 113453, Note_on_c, 0, 53, 60
1, 113471, Note_off_c, 0, 91, 57
1, 113564, Note_on_c, 0, 62, 76
1, 113650, Note_on_c, 0, 59, 74
1, 113671, Note_off_c, 0, 62, 61
1, 113689, Note_off_c, 0, 59, 64
1, 113689, Note_off_c, 0, 80, 63
1, 113700, Note_off_c, 0, 53, 36
1, 113715, Note_off_c, 0, 92, 61
1, 113740, Note_on_c, 0, 91, 96
1, 113744, Note_on_c, 0, 79, 91
1, 113807, Control_c, 0, 64, 100
1, 113822, Control_c, 0, 64, 77
1, 113837, Control_c, 0, 64, 63
1, 113841, Note_on_c, 0, 43, 80
1, 113852, Control_c, 0, 64, 56
1, 113867, Control_c, 0, 64, 62
1, 113881, Control_c, 0, 64, 68
1, 113896, Control_c, 0, 64, 76
1, 113906, Note_off_c, 0, 79, 60
1, 113911, Control_c, 0, 64, 87
1, 113916, Note_off_c, 0, 43, 60
1, 113921, Note_on_c, 0, 52, 78
1, 113926, Control_c, 0, 64, 95
1, 113941, Control_c, 0, 64, 108
1, 113955, Control_c, 0, 64, 127
1, 113993, Note_off_c, 0, 52, 63
1, 114001, Note_on_c, 0, 60, 85
1, 114019, Note_on_c, 0, 78, 98
1, 114020, Note_on_c, 0, 90, 93
1, 114052, Note_off_c, 0, 91, 54
1, 114055, Note_off_c, 0, 60, 59
1, 114112, Note_on_c, 0, 55, 83
1, 114139, Note_off_c, 0, 78, 61
1, 114216, Note_on_c, 0, 91, 97
1, 114218, Note_on_c, 0, 79, 98
1, 114228, Note_on_c, 0, 86, 39
1, 114237, Note_on_c, 0, 64, 72
1, 114253, Note_off_c, 0, 86, 58
1, 114261, Note_off_c, 0, 90, 61
1, 114312, Note_on_c, 0, 60, 77
1, 114327, Note_off_c, 0, 64, 65
1, 114333, Note_off_c, 0, 55, 61
1, 114333, Note_off_c, 0, 79, 57
1, 114344, Note_off_c, 0, 60, 64
1, 114482, Control_c, 0, 64, 122
1, 114485, Note_on_c, 0, 43, 66
1, 114497, Control_c, 0, 64, 111
1, 114511, Control_c, 0, 64, 103
1, 114526, Control_c, 0, 64, 95
1, 114541, Control_c, 0, 64, 88
1, 114556, Control_c, 0, 64, 82
1, 114571, Control_c, 0, 64, 75
1, 114580, Note_on_c, 0, 92, 87
1, 114583, Note_on_c, 0, 80, 77
1, 114586, Control_c, 0, 64, 65
1, 114601, Control_c, 0, 64, 54
1, 114611, Note_off_c, 0, 91, 53
1, 114616, Control_c, 0, 64, 36
1, 114630, Control_c, 0, 64, 35
1, 114645, Control_c, 0, 64, 47
1, 114660, Control_c, 0, 64, 58
1, 114675, Control_c, 0, 64, 64
1, 114690, Control_c, 0, 64, 68
1, 114704, Control_c, 0, 64, 73
1, 114719, Control_c, 0, 64, 82
1, 114729, Note_on_c, 0, 53, 50
1, 114734, Control_c, 0, 64, 93
1, 114744, Note_off_c, 0, 43, 36
1, 114747, Note_off_c, 0, 80, 62
1, 114749, Control_c, 0, 64, 103
1, 114763, Control_c, 0, 64, 115
1, 114778, Control_c, 0, 64, 127
1, 114816, Note_on_c, 0, 91, 82
1, 114824, Note_on_c, 0, 79, 70
1, 114840, Note_off_c, 0, 92, 44
1, 114860, Note_off_c, 0, 79, 67
1, 114860, Control_c, 0, 67, 8
1, 114875, Control_c, 0, 67, 10
1, 114890, Control_c, 0, 67, 13
1, 114893, Note_off_c, 0, 91, 60
1, 114905, Control_c, 0, 67, 16
1, 114920, Control_c, 0, 67, 17
1, 114935, Control_c, 0, 67, 19
1, 114941, Note_on_c, 0, 59, 59
1, 114944, Note_off_c, 0, 53, 63
1, 114950, Control_c, 0, 67, 23
1, 114964, Control_c, 0, 67, 29
1, 114970, Note_off_c, 0, 59, 65
1, 114979, Control_c, 0, 67, 34
1, 114994, Control_c, 0, 67, 39
1, 115009, Control_c, 0, 67, 44
1, 115024, Control_c, 0, 67, 48
1, 115039, Control_c, 0, 67, 51
1, 115054, Control_c, 0, 67, 56
1, 115068, Control_c, 0, 67, 59
1, 115083, Control_c, 0, 67, 62
1, 115098, Control_c, 0, 67, 63
1, 115113, Control_c, 0, 67, 65
1, 115128, Control_c, 0, 67, 67
1, 115142, Control_c, 0, 67, 70
1, 115157, Control_c, 0, 64, 122
1, 115157, Control_c, 0, 67, 72
1, 115160, Note_on_c, 0, 101, 74
1, 115172, Control_c, 0, 64, 120
1, 115172, Control_c, 0, 67, 72
1, 115180, Note_on_c, 0, 89, 53
1, 115187, Control_c, 0, 64, 117
1, 115187, Control_c, 0, 67, 73
1, 115202, Control_c, 0, 64, 112
1, 115216, Control_c, 0, 64, 105
1, 115216, Control_c, 0, 67, 74
1, 115228, Note_on_c, 0, 62, 33
1, 115231, Control_c, 0, 64, 100
1, 115231, Control_c, 0, 67, 76
1, 115246, Control_c, 0, 64, 97
1, 115246, Control_c, 0, 67, 81
1, 115260, Control_c, 0, 64, 97
1, 115260, Control_c, 0, 67, 84
1, 115275, Control_c, 0, 64, 96
1, 115275, Control_c, 0, 67, 85
1, 115290, Control_c, 0, 64, 93
1, 115305, Control_c, 0, 64, 90
1, 115320, Control_c, 0, 64, 88
1, 115320, Control_c, 0, 67, 85
1, 115334, Control_c, 0, 64, 86
1, 115349, Control_c, 0, 64, 85
1, 115349, Control_c, 0, 67, 86
1, 115364, Control_c, 0, 64, 83
1, 115364, Control_c, 0, 67, 87
1, 115379, Control_c, 0, 64, 81
1, 115379, Control_c, 0, 67, 88
1, 115394, Control_c, 0, 64, 79
1, 115394, Control_c, 0, 67, 91
1, 115409, Control_c, 0, 64, 79
1, 115409, Control_c, 0, 67, 93
1, 115418, Note_on_c, 0, 68, 51
1, 115424, Control_c, 0, 64, 78
1, 115424, Control_c, 0, 67, 94
1, 115438, Control_c, 0, 64, 78
1, 115438, Control_c, 0, 67, 95
1, 115453, Control_c, 0, 64, 76
1, 115453, Control_c, 0, 67, 98
1, 115468, Control_c, 0, 64, 74
1, 115468, Control_c, 0, 67, 100
1, 115483, Control_c, 0, 64, 73
1, 115483, Control_c, 0, 67, 103
1, 115498, Control_c, 0, 64, 72
1, 115498, Control_c, 0, 67, 106
1, 115513, Control_c, 0, 64, 71
1, 115513, Control_c, 0, 67, 106
1, 115527, Control_c, 0, 64, 69
1, 115542, Control_c, 0, 64, 68
1, 115542, Control_c, 0, 67, 107
1, 115557, Control_c, 0, 64, 67
1, 115571, Control_c, 0, 64, 67
1, 115571, Control_c, 0, 67, 108
1, 115586, Control_c, 0, 67, 108
1, 115608, Control_c, 0, 64, 66
1, 115608, Control_c, 0, 67, 109
1, 115623, Control_c, 0, 64, 66
1, 115623, Control_c, 0, 67, 110
1, 115639, Control_c, 0, 67, 112
1, 115654, Control_c, 0, 67, 112
1, 115669, Control_c, 0, 64, 65
1, 115669, Control_c, 0, 67, 113
1, 115683, Control_c, 0, 67, 113
1, 115698, Control_c, 0, 64, 65
1, 115713, Control_c, 0, 64, 64
1, 115728, Control_c, 0, 64, 64
1, 115728, Control_c, 0, 67, 114
1, 115743, Control_c, 0, 64, 63
1, 115757, Control_c, 0, 64, 63
1, 115772, Control_c, 0, 64, 62
1, 115802, Control_c, 0, 64, 62
1, 115802, Control_c, 0, 67, 114
1, 115818, Note_on_c, 0, 71, 29
1, 115832, Control_c, 0, 64, 61
1, 115847, Control_c, 0, 64, 61
1, 115847, Control_c, 0, 67, 115
1, 115862, Control_c, 0, 67, 116
1, 115877, Control_c, 0, 67, 118
1, 115891, Control_c, 0, 64, 60
1, 115891, Control_c, 0, 67, 120
1, 115906, Control_c, 0, 67, 121
1, 115921, Control_c, 0, 64, 60
1, 115921, Control_c, 0, 67, 122
1, 115930, Note_off_c, 0, 62, 32
1, 115936, Control_c, 0, 67, 123
1, 115951, Control_c, 0, 64, 59
1, 115965, Control_c, 0, 64, 59
1, 115980, Control_c, 0, 64, 58
1, 115995, Control_c, 0, 64, 58
1, 115995, Control_c, 0, 67, 123
1, 116009, Control_c, 0, 64, 57
1, 116054, Control_c, 0, 67, 124
1, 116059, Note_off_c, 0, 68, 35
1, 116128, Control_c, 0, 67, 124
1, 116143, Control_c, 0, 64, 57
1, 116143, Control_c, 0, 67, 125
1, 116157, Control_c, 0, 67, 126
1, 116172, Control_c, 0, 67, 127
1, 116216, Control_c, 0, 64, 56
1, 116217, Note_off_c, 0, 71, 28
1, 116231, Control_c, 0, 64, 56
1, 116246, Control_c, 0, 64, 55
1, 116261, Control_c, 0, 64, 54
1, 116276, Control_c, 0, 64, 54
1, 116306, Control_c, 0, 64, 53
1, 116387, Control_c, 0, 64, 54
1, 116402, Control_c, 0, 64, 55
1, 116416, Control_c, 0, 64, 57
1, 116432, Control_c, 0, 64, 58
1, 116447, Control_c, 0, 64, 60
1, 116462, Control_c, 0, 64, 62
1, 116477, Control_c, 0, 64, 63
1, 116492, Control_c, 0, 64, 65
1, 116506, Control_c, 0, 64, 66
1, 116521, Control_c, 0, 64, 68
1, 116536, Control_c, 0, 64, 70
1, 116551, Control_c, 0, 64, 73
1, 116566, Control_c, 0, 64, 77
1, 116580, Control_c, 0, 64, 80
1, 116595, Control_c, 0, 64, 84
1, 116610, Control_c, 0, 64, 86
1, 116625, Control_c, 0, 64, 88
1, 116640, Control_c, 0, 64, 90
1, 116655, Control_c, 0, 64, 92
1, 116670, Control_c, 0, 64, 94
1, 116677, Note_off_c, 0, 89, 64
1, 116684, Control_c, 0, 64, 96
1, 116699, Control_c, 0, 64, 98
1, 116714, Control_c, 0, 64, 99
1, 116729, Control_c, 0, 64, 102
1, 116738, Note_off_c, 0, 101, 39
1, 116744, Control_c, 0, 64, 105
1, 116759, Control_c, 0, 64, 109
1, 116774, Control_c, 0, 64, 114
1, 116788, Control_c, 0, 64, 117
1, 116803, Control_c, 0, 64, 122
1, 116818, Control_c, 0, 64, 127
1, 117037, Note_on_c, 0, 100, 48
1, 117038, Note_on_c, 0, 88, 38
1, 117194, Note_off_c, 0, 100, 63
1, 117246, Note_off_c, 0, 88, 51
1, 117549, Note_on_c, 0, 48, 33
1, 117670, Control_c, 0, 64, 119
1, 117677, Note_on_c, 0, 96, 46
1, 117685, Control_c, 0, 64, 116
1, 117689, Note_on_c, 0, 84, 31
1, 117700, Control_c, 0, 64, 115
1, 117716, Control_c, 0, 64, 113
1, 117730, Control_c, 0, 64, 108
1, 117745, Control_c, 0, 64, 101
1, 117760, Control_c, 0, 64, 94
1, 117774, Control_c, 0, 64, 86
1, 117789, Control_c, 0, 64, 78
1, 117804, Control_c, 0, 64, 71
1, 117819, Control_c, 0, 64, 63
1, 117834, Control_c, 0, 64, 59
1, 117856, Control_c, 0, 64, 61
1, 117871, Control_c, 0, 64, 63
1, 117886, Control_c, 0, 64, 66
1, 117901, Control_c, 0, 64, 69
1, 117916, Control_c, 0, 64, 74
1, 117930, Control_c, 0, 64, 84
1, 117945, Control_c, 0, 64, 93
1, 117960, Control_c, 0, 64, 99
1, 117975, Control_c, 0, 64, 103
1, 117984, Note_on_c, 0, 60, 33
1, 117989, Control_c, 0, 64, 107
1, 118004, Control_c, 0, 64, 112
1, 118019, Control_c, 0, 64, 118
1, 118023, Note_off_c, 0, 48, 40
1, 118035, Control_c, 0, 64, 127
1, 118070, Note_off_c, 0, 60, 37
1, 118187, Note_on_c, 0, 55, 44
1, 118324, Note_on_c, 0, 64, 47
1, 118358, Note_off_c, 0, 55, 28
1, 118384, Note_off_c, 0, 64, 54
1, 118430, Note_on_c, 0, 60, 24
1, 118525, Note_off_c, 0, 60, 32
1, 118528, Note_on_c, 0, 67, 44
1, 118607, Note_on_c, 0, 64, 56
1, 118625, Note_off_c, 0, 67, 36
1, 118634, Note_off_c, 0, 64, 63
1, 118722, Note_on_c, 0, 72, 52
1, 118749, Note_off_c, 0, 96, 39
1, 118787, Note_on_c, 0, 60, 55
1, 118792, Note_off_c, 0, 72, 43
1, 118819, Note_off_c, 0, 84, 40
1, 118902, Note_on_c, 0, 67, 45
1, 118997, Note_on_c, 0, 64, 48
1, 119110, Note_on_c, 0, 72, 49
1, 119144, Note_off_c, 0, 72, 56
1, 119161, Note_off_c, 0, 67, 14
1, 119171, Note_off_c, 0, 60, 36
1, 119182, Note_off_c, 0, 64, 48
1, 119236, Note_on_c, 0, 84, 64
1, 119516, Control_c, 0, 64, 120
1, 119531, Control_c, 0, 64, 118
1, 119546, Control_c, 0, 64, 114
1, 119553, Note_on_c, 0, 45, 40
1, 119560, Control_c, 0, 64, 107
1, 119575, Control_c, 0, 64, 100
1, 119590, Control_c, 0, 64, 94
1, 119605, Control_c, 0, 64, 89
1, 119620, Control_c, 0, 64, 86
1, 119636, Control_c, 0, 64, 82
1, 119650, Control_c, 0, 64, 78
1, 119665, Control_c, 0, 64, 74
1, 119680, Control_c, 0, 64, 69
1, 119683, Note_on_c, 0, 96, 74
1, 119695, Control_c, 0, 64, 66
1, 119710, Control_c, 0, 64, 63
1, 119739, Control_c, 0, 64, 65
1, 119754, Control_c, 0, 64, 66
1, 119769, Control_c, 0, 64, 68
1, 119784, Control_c, 0, 64, 71
1, 119798, Control_c, 0, 64, 76
1, 119813, Control_c, 0, 64, 83
1, 119828, Control_c, 0, 64, 91
1, 119843, Control_c, 0, 64, 97
1, 119857, Control_c, 0, 64, 102
1, 119872, Control_c, 0, 64, 108
1, 119887, Control_c, 0, 64, 118
1, 119902, Control_c, 0, 64, 127
1, 119910, Note_off_c, 0, 45, 35
1, 119918, Note_on_c, 0, 57, 49
1, 119953, Note_off_c, 0, 57, 63
1, 120083, Note_on_c, 0, 52, 55
1, 120121, Note_off_c, 0, 84, 34
1, 120157, Note_off_c, 0, 96, 55
1, 120178, Note_off_c, 0, 52, 55
1, 120196, Note_on_c, 0, 60, 52
1, 120274, Note_on_c, 0, 57, 41
1, 120295, Note_off_c, 0, 60, 32
1, 120339, Note_off_c, 0, 57, 46
1, 120353, Note_on_c, 0, 64, 60
1, 120402, Note_off_c, 0, 64, 58
1, 120439, Note_on_c, 0, 60, 46
1, 120462, Note_off_c, 0, 60, 57
1, 120470, Note_on_c, 0, 96, 81
1, 120497, Note_on_c, 0, 84, 57
1, 120545, Note_on_c, 0, 69, 56
1, 120594, Note_off_c, 0, 69, 60
1, 120634, Note_on_c, 0, 64, 60
1, 120661, Note_off_c, 0, 84, 59
1, 120691, Note_off_c, 0, 96, 60
1, 120715, Note_on_c, 0, 72, 64
1, 120717, Note_off_c, 0, 64, 55
1, 120773, Note_off_c, 0, 72, 60
1, 120777, Note_on_c, 0, 60, 61
1, 120848, Note_on_c, 0, 69, 69
1, 120872, Note_off_c, 0, 69, 71
1, 120872, Note_off_c, 0, 60, 59
1, 120947, Note_on_c, 0, 96, 80
1, 120962, Note_on_c, 0, 84, 65
1, 121002, Note_off_c, 0, 84, 52
1, 121049, Note_off_c, 0, 96, 51
1, 121070, Note_on_c, 0, 45, 57
1, 121147, Control_c, 0, 64, 109
1, 121162, Control_c, 0, 64, 97
1, 121177, Control_c, 0, 64, 87
1, 121186, Note_on_c, 0, 96, 77
1, 121192, Control_c, 0, 64, 77
1, 121204, Note_on_c, 0, 84, 57
1, 121206, Control_c, 0, 64, 66
1, 121221, Control_c, 0, 64, 57
1, 121236, Control_c, 0, 64, 54
1, 121251, Control_c, 0, 64, 60
1, 121266, Control_c, 0, 64, 66
1, 121272, Note_off_c, 0, 45, 50
1, 121281, Control_c, 0, 64, 71
1, 121282, Note_on_c, 0, 54, 48
1, 121296, Control_c, 0, 64, 79
1, 121311, Control_c, 0, 64, 88
1, 121326, Control_c, 0, 64, 99
1, 121341, Control_c, 0, 64, 112
1, 121343, Note_on_c, 0, 51, 58
1, 121356, Control_c, 0, 64, 127
1, 121367, Note_off_c, 0, 54, 55
1, 121392, Note_off_c, 0, 51, 55
1, 121417, Note_on_c, 0, 60, 60
1, 121439, Note_off_c, 0, 60, 62
1, 121516, Note_on_c, 0, 57, 50
1, 121544, Note_off_c, 0, 84, 58
1, 121576, Note_on_c, 0, 66, 63
1, 121579, Note_off_c, 0, 57, 56
1, 121596, Note_off_c, 0, 96, 55
1, 121651, Note_off_c, 0, 66, 63
1, 121674, Note_on_c, 0, 63, 54
1, 121698, Note_on_c, 0, 95, 70
1, 121715, Note_on_c, 0, 83, 46
1, 121744, Note_on_c, 0, 71, 39
1, 121772, Note_off_c, 0, 71, 50
1, 121829, Note_off_c, 0, 63, 34
1, 121838, Note_on_c, 0, 57, 53
1, 121931, Note_on_c, 0, 66, 49
1, 121952, Note_off_c, 0, 57, 38
1, 122032, Note_on_c, 0, 63, 50
1, 122058, Note_off_c, 0, 66, 35
1, 122131, Note_on_c, 0, 71, 44
1, 122142, Note_off_c, 0, 63, 61
1, 122156, Note_off_c, 0, 71, 54
1, 122296, Control_c, 0, 64, 107
1, 122311, Control_c, 0, 64, 94
1, 122325, Control_c, 0, 64, 80
1, 122331, Note_on_c, 0, 45, 59
1, 122348, Control_c, 0, 64, 67
1, 122363, Control_c, 0, 64, 60
1, 122377, Control_c, 0, 64, 62
1, 122384, Note_off_c, 0, 83, 62
1, 122392, Control_c, 0, 64, 69
1, 122400, Note_off_c, 0, 45, 63
1, 122407, Control_c, 0, 64, 79
1, 122422, Control_c, 0, 64, 92
1, 122434, Note_off_c, 0, 95, 59
1, 122437, Control_c, 0, 64, 105
1, 122451, Control_c, 0, 64, 124
1, 122459, Note_on_c, 0, 56, 40
1, 122466, Control_c, 0, 64, 127
1, 122488, Note_off_c, 0, 56, 55
1, 122500, Note_on_c, 0, 53, 57
1, 122556, Note_off_c, 0, 53, 63
1, 122569, Note_on_c, 0, 95, 79
1, 122582, Note_on_c, 0, 62, 57
1, 122594, Note_on_c, 0, 83, 50
1, 122613, Note_off_c, 0, 62, 63
1, 122641, Note_off_c, 0, 83, 42
1, 122677, Note_on_c, 0, 56, 69
1, 122727, Note_on_c, 0, 65, 58
1, 122744, Note_off_c, 0, 56, 59
1, 122805, Note_on_c, 0, 62, 63
1, 122811, Note_on_c, 0, 96, 86
1, 122822, Note_off_c, 0, 65, 60
1, 122834, Note_on_c, 0, 84, 57
1, 122857, Note_off_c, 0, 95, 58
1, 122884, Note_on_c, 0, 71, 50
1, 122901, Note_off_c, 0, 84, 57
1, 122907, Note_off_c, 0, 71, 56
1, 122958, Note_on_c, 0, 56, 72
1, 122980, Note_off_c, 0, 62, 47
1, 123030, Note_on_c, 0, 65, 62
1, 123041, Note_off_c, 0, 56, 58
1, 123100, Note_on_c, 0, 98, 84
1, 123112, Note_on_c, 0, 86, 72
1, 123127, Note_on_c, 0, 62, 56
1, 123138, Note_off_c, 0, 96, 63
1, 123232, Note_off_c, 0, 86, 52
1, 123233, Note_off_c, 0, 65, 26
1, 123234, Note_on_c, 0, 71, 58
1, 123245, Note_off_c, 0, 62, 60
1, 123254, Note_off_c, 0, 71, 62
1, 123430, Note_on_c, 0, 45, 54
1, 123496, Control_c, 0, 64, 119
1, 123511, Control_c, 0, 64, 105
1, 123526, Control_c, 0, 64, 93
1, 123541, Control_c, 0, 64, 80
1, 123555, Control_c, 0, 64, 72
1, 123570, Control_c, 0, 64, 65
1, 123581, Note_on_c, 0, 100, 79
1, 123585, Control_c, 0, 64, 61
1, 123599, Note_on_c, 0, 88, 54
1, 123600, Control_c, 0, 64, 58
1, 123615, Control_c, 0, 64, 57
1, 123625, Note_off_c, 0, 98, 64
1, 123630, Control_c, 0, 64, 59
1, 123645, Control_c, 0, 64, 61
1, 123660, Control_c, 0, 64, 65
1, 123675, Control_c, 0, 64, 70
1, 123690, Control_c, 0, 64, 79
1, 123691, Note_off_c, 0, 45, 57
1, 123704, Control_c, 0, 64, 93
1, 123719, Control_c, 0, 64, 109
1, 123724, Note_on_c, 0, 57, 63
1, 123734, Control_c, 0, 64, 127
1, 123757, Note_off_c, 0, 88, 59
1, 123759, Note_off_c, 0, 57, 63
1, 123763, Note_off_c, 0, 100, 65
1, 123854, Note_on_c, 0, 52, 60
1, 123947, Note_off_c, 0, 52, 63
1, 123949, Note_on_c, 0, 60, 59
1, 124016, Note_on_c, 0, 57, 52
1, 124091, Note_on_c, 0, 96, 74
1, 124091, Note_off_c, 0, 60, 34
1, 124102, Note_on_c, 0, 64, 58
1, 124110, Note_on_c, 0, 84, 57
1, 124133, Note_off_c, 0, 96, 58
1, 124141, Note_off_c, 0, 84, 62
1, 124183, Note_off_c, 0, 64, 59
1, 124199, Note_off_c, 0, 57, 42
1, 124217, Note_on_c, 0, 60, 50
1, 124239, Note_off_c, 0, 60, 58
1, 124253, Note_on_c, 0, 93, 72
1, 124266, Note_on_c, 0, 81, 59
1, 124323, Note_on_c, 0, 69, 47
1, 124368, Note_off_c, 0, 93, 55
1, 124372, Note_off_c, 0, 69, 44
1, 124399, Note_off_c, 0, 81, 55
1, 124416, Note_on_c, 0, 63, 60
1, 124477, Note_off_c, 0, 63, 61
1, 124513, Note_on_c, 0, 72, 60
1, 124578, Note_off_c, 0, 72, 61
1, 124596, Note_on_c, 0, 60, 58
1, 124729, Note_on_c, 0, 69, 46
1, 124739, Note_off_c, 0, 60, 44
1, 124755, Note_off_c, 0, 69, 56
1, 124980, Control_c, 0, 64, 109
1, 124995, Control_c, 0, 64, 99
1, 124998, Note_on_c, 0, 45, 39
1, 125010, Control_c, 0, 64, 92
1, 125025, Control_c, 0, 64, 87
1, 125039, Control_c, 0, 64, 82
1, 125054, Control_c, 0, 64, 75
1, 125069, Control_c, 0, 64, 66
1, 125084, Control_c, 0, 64, 58
1, 125094, Note_on_c, 0, 84, 62
1, 125099, Control_c, 0, 64, 54
1, 125113, Control_c, 0, 64, 56
1, 125115, Note_on_c, 0, 72, 43
1, 125128, Control_c, 0, 64, 57
1, 125143, Control_c, 0, 64, 58
1, 125158, Control_c, 0, 64, 62
1, 125172, Control_c, 0, 64, 66
1, 125187, Control_c, 0, 64, 71
1, 125193, Note_off_c, 0, 45, 60
1, 125201, Control_c, 0, 64, 78
1, 125217, Control_c, 0, 64, 87
1, 125228, Note_on_c, 0, 57, 63
1, 125232, Control_c, 0, 64, 97
1, 125247, Control_c, 0, 64, 110
1, 125260, Note_off_c, 0, 57, 63
1, 125261, Control_c, 0, 64, 127
1, 125352, Note_on_c, 0, 52, 58
1, 125396, Note_off_c, 0, 84, 60
1, 125401, Note_off_c, 0, 72, 41
1, 125431, Note_on_c, 0, 60, 53
1, 125475, Note_off_c, 0, 52, 63
1, 125484, Note_on_c, 0, 57, 58
1, 125484, Note_off_c, 0, 60, 49
1, 125570, Note_on_c, 0, 64, 48
1, 125609, Note_off_c, 0, 64, 63
1, 125613, Note_on_c, 0, 60, 63
1, 125624, Note_off_c, 0, 57, 52
1, 125645, Note_on_c, 0, 84, 75
1, 125657, Note_off_c, 0, 60, 59
1, 125659, Note_on_c, 0, 72, 58
1, 125719, Note_off_c, 0, 72, 59
1, 125735, Note_on_c, 0, 69, 65
1, 125736, Note_off_c, 0, 84, 59
1, 125779, Note_off_c, 0, 69, 59
1, 125829, Note_on_c, 0, 64, 57
1, 125839, Note_on_c, 0, 57, 52
1, 125876, Note_off_c, 0, 64, 62
1, 125906, Note_on_c, 0, 61, 60
1, 125958, Note_off_c, 0, 57, 59
1, 125961, Note_on_c, 0, 60, 50
1, 125967, Note_on_c, 0, 69, 54
1, 125997, Note_off_c, 0, 69, 56
1, 126026, Note_off_c, 0, 61, 60
1, 126030, Note_off_c, 0, 60, 61
1, 126036, Note_on_c, 0, 84, 70
1, 126044, Note_on_c, 0, 72, 64
1, 126076, Note_off_c, 0, 72, 64
1, 126118, Note_off_c, 0, 84, 55
1, 126198, Note_on_c, 0, 45, 56
1, 126211, Control_c, 0, 64, 120
1, 126225, Control_c, 0, 64, 107
1, 126240, Control_c, 0, 64, 98
1, 126255, Control_c, 0, 64, 89
1, 126270, Control_c, 0, 64, 80
1, 126285, Control_c, 0, 64, 69
1, 126295, Note_on_c, 0, 84, 59
1, 126299, Control_c, 0, 64, 59
1, 126307, Note_on_c, 0, 72, 49
1, 126314, Control_c, 0, 64, 56
1, 126329, Control_c, 0, 64, 61
1, 126344, Control_c, 0, 64, 67
1, 126359, Control_c, 0, 64, 74
1, 126373, Control_c, 0, 64, 84
1, 126374, Note_off_c, 0, 45, 59
1, 126388, Control_c, 0, 64, 92
1, 126390, Note_on_c, 0, 54, 37
1, 126403, Control_c, 0, 64, 103
1, 126410, Note_on_c, 0, 51, 51
1, 126417, Control_c, 0, 64, 120
1, 126432, Control_c, 0, 64, 127
1, 126432, Control_c, 0, 67, 126
1, 126447, Control_c, 0, 67, 125
1, 126462, Control_c, 0, 67, 122
1, 126470, Note_off_c, 0, 51, 56
1, 126473, Note_off_c, 0, 54, 38
1, 126477, Control_c, 0, 67, 118
1, 126492, Note_on_c, 0, 57, 48
1, 126492, Control_c, 0, 67, 115
1, 126503, Note_off_c, 0, 72, 56
1, 126507, Control_c, 0, 67, 113
1, 126516, Note_off_c, 0, 57, 56
1, 126536, Control_c, 0, 67, 113
1, 126567, Note_on_c, 0, 54, 62
1, 126625, Control_c, 0, 67, 112
1, 126640, Control_c, 0, 67, 112
1, 126643, Note_off_c, 0, 84, 50
1, 126655, Control_c, 0, 67, 112
1, 126684, Control_c, 0, 67, 112
1, 126699, Control_c, 0, 67, 111
1, 126714, Control_c, 0, 67, 110
1, 126715, Note_off_c, 0, 54, 33
1, 126729, Control_c, 0, 67, 107
1, 126743, Control_c, 0, 67, 105
1, 126748, Note_on_c, 0, 83, 61
1, 126751, Note_on_c, 0, 57, 50
1, 126758, Control_c, 0, 67, 103
1, 126767, Note_on_c, 0, 71, 46
1, 126773, Control_c, 0, 67, 101
1, 126788, Control_c, 0, 67, 100
1, 126803, Control_c, 0, 67, 101
1, 126819, Control_c, 0, 67, 100
1, 126840, Control_c, 0, 67, 100
1, 126854, Note_off_c, 0, 57, 55
1, 126870, Control_c, 0, 67, 99
1, 126885, Control_c, 0, 67, 99
1, 126900, Control_c, 0, 67, 98
1, 126903, Note_on_c, 0, 54, 44
1, 126915, Control_c, 0, 67, 96
1, 126930, Control_c, 0, 67, 93
1, 126945, Control_c, 0, 67, 91
1, 126963, Poly_aftertouch_c, 0, 66, 0
1, 126974, Control_c, 0, 67, 91
1, 126989, Control_c, 0, 67, 90
1, 127003, Note_on_c, 0, 63, 53
1, 127004, Control_c, 0, 67, 88
1, 127019, Control_c, 0, 67, 85
1, 127034, Control_c, 0, 67, 84
1, 127063, Control_c, 0, 67, 83
1, 127078, Control_c, 0, 67, 81
1, 127079, Note_off_c, 0, 63, 53
1, 127093, Control_c, 0, 67, 80
1, 127101, Note_on_c, 0, 57, 48
1, 127122, Control_c, 0, 67, 80
1, 127137, Control_c, 0, 67, 79
1, 127152, Control_c, 0, 67, 78
1, 127166, Control_c, 0, 67, 75
1, 127168, Note_off_c, 0, 54, 30
1, 127211, Control_c, 0, 67, 75
1, 127234, Note_on_c, 0, 66, 44
1, 127240, Control_c, 0, 67, 75
1, 127255, Control_c, 0, 67, 76
1, 127258, Note_off_c, 0, 66, 61
1, 127258, Note_off_c, 0, 57, 58
1, 127285, Control_c, 0, 67, 75
1, 127314, Control_c, 0, 67, 76
1, 127359, Control_c, 0, 67, 75
1, 127404, Control_c, 0, 67, 75
1, 127419, Control_c, 0, 67, 75
1, 127449, Control_c, 0, 64, 101
1, 127449, Control_c, 0, 67, 74
1, 127461, Note_on_c, 0, 44, 55
1, 127463, Control_c, 0, 64, 87
1, 127463, Control_c, 0, 67, 73
1, 127470, Note_off_c, 0, 71, 61
1, 127478, Control_c, 0, 64, 74
1, 127493, Control_c, 0, 64, 66
1, 127493, Control_c, 0, 67, 73
1, 127508, Control_c, 0, 64, 65
1, 127508, Control_c, 0, 67, 72
1, 127523, Control_c, 0, 64, 71
1, 127523, Control_c, 0, 67, 67
1, 127538, Control_c, 0, 64, 82
1, 127538, Control_c, 0, 67, 59
1, 127552, Note_on_c, 0, 54, 60
1, 127553, Control_c, 0, 64, 103
1, 127553, Control_c, 0, 67, 51
1, 127555, Note_off_c, 0, 44, 60
1, 127567, Control_c, 0, 64, 127
1, 127567, Control_c, 0, 67, 45
1, 127589, Control_c, 0, 67, 45
1, 127604, Control_c, 0, 67, 43
1, 127620, Control_c, 0, 67, 39
1, 127627, Note_on_c, 0, 51, 53
1, 127630, Note_off_c, 0, 54, 54
1, 127635, Control_c, 0, 67, 34
1, 127650, Control_c, 0, 67, 34
1, 127679, Control_c, 0, 67, 33
1, 127693, Note_off_c, 0, 51, 56
1, 127694, Control_c, 0, 67, 30
1, 127702, Note_on_c, 0, 57, 66
1, 127708, Note_on_c, 0, 84, 83
1, 127709, Control_c, 0, 67, 24
1, 127722, Note_on_c, 0, 72, 65
1, 127724, Control_c, 0, 67, 19
1, 127733, Note_off_c, 0, 57, 65
1, 127739, Control_c, 0, 67, 17
1, 127741, Note_off_c, 0, 83, 61
1, 127753, Control_c, 0, 67, 17
1, 127768, Control_c, 0, 67, 15
1, 127783, Control_c, 0, 67, 11
1, 127797, Control_c, 0, 67, 0
1, 127812, Note_on_c, 0, 54, 50
1, 127827, Note_off_c, 0, 72, 60
1, 127847, Note_on_c, 0, 60, 68
1, 127870, Note_off_c, 0, 54, 56
1, 127928, Note_off_c, 0, 60, 59
1, 127936, Note_on_c, 0, 57, 60
1, 127953, Note_on_c, 0, 85, 84
1, 127966, Note_on_c, 0, 73, 74
1, 127978, Note_off_c, 0, 84, 60
1, 128036, Note_off_c, 0, 73, 58
1, 128038, Note_on_c, 0, 66, 65
1, 128098, Note_off_c, 0, 57, 38
1, 128123, Note_on_c, 0, 54, 54
1, 128129, Note_off_c, 0, 66, 58
1, 128224, Note_on_c, 0, 87, 83
1, 128230, Note_on_c, 0, 60, 52
1, 128238, Note_on_c, 0, 75, 69
1, 128265, Note_off_c, 0, 54, 37
1, 128295, Note_off_c, 0, 85, 51
1, 128305, Note_off_c, 0, 60, 48
1, 128316, Note_on_c, 0, 57, 53
1, 128346, Note_off_c, 0, 75, 57
1, 128383, Note_off_c, 0, 87, 61
1, 128399, Note_on_c, 0, 66, 59
1, 128423, Note_off_c, 0, 66, 66
1, 128443, Note_off_c, 0, 57, 62
1, 128641, Note_on_c, 0, 37, 60
1, 128754, Control_c, 0, 64, 106
1, 128769, Control_c, 0, 64, 92
1, 128776, Note_on_c, 0, 89, 79
1, 128784, Control_c, 0, 64, 80
1, 128799, Control_c, 0, 64, 68
1, 128805, Note_on_c, 0, 77, 53
1, 128813, Control_c, 0, 64, 60
1, 128828, Control_c, 0, 64, 51
1, 128843, Control_c, 0, 64, 53
1, 128858, Control_c, 0, 64, 59
1, 128873, Control_c, 0, 64, 65
1, 128887, Control_c, 0, 64, 71
1, 128902, Control_c, 0, 64, 79
1, 128917, Control_c, 0, 64, 90
1, 128926, Note_on_c, 0, 49, 70
1, 128931, Control_c, 0, 64, 104
1, 128939, Note_off_c, 0, 89, 64
1, 128945, Note_off_c, 0, 77, 59
1, 128946, Control_c, 0, 64, 127
1, 128950, Note_off_c, 0, 37, 40
1, 128977, Note_off_c, 0, 49, 58
1, 129067, Note_on_c, 0, 44, 62
1, 129154, Note_on_c, 0, 53, 59
1, 129179, Note_on_c, 0, 49, 64
1, 129188, Note_off_c, 0, 44, 54
1, 129234, Note_off_c, 0, 53, 58
1, 129241, Note_on_c, 0, 56, 74
1, 129276, Note_on_c, 0, 85, 78
1, 129278, Note_off_c, 0, 49, 60
1, 129294, Note_on_c, 0, 73, 59
1, 129297, Note_off_c, 0, 56, 61
1, 129330, Note_off_c, 0, 73, 62
1, 129358, Note_off_c, 0, 85, 63
1, 129400, Note_on_c, 0, 53, 61
1, 129442, Note_on_c, 0, 80, 88
1, 129452, Note_on_c, 0, 68, 78
1, 129532, Note_off_c, 0, 68, 62
1, 129535, Note_on_c, 0, 61, 72
1, 129580, Note_off_c, 0, 80, 58
1, 129580, Note_off_c, 0, 53, 56
1, 129618, Note_on_c, 0, 56, 72
1, 129651, Note_off_c, 0, 61, 56
1, 129702, Note_on_c, 0, 65, 83
1, 129728, Note_off_c, 0, 56, 58
1, 129764, Note_off_c, 0, 65, 63
1, 129793, Note_on_c, 0, 53, 74
1, 129880, Note_on_c, 0, 61, 84
1, 129897, Note_off_c, 0, 53, 64
1, 129920, Poly_aftertouch_c, 0, 54, 0
1, 129920, Note_off_c, 0, 61, 60
1, 130064, Note_on_c, 0, 37, 83
1, 130162, Control_c, 0, 64, 117
1, 130177, Control_c, 0, 64, 105
1, 130185, Note_on_c, 0, 94, 97
1, 130191, Control_c, 0, 64, 92
1, 130194, Note_on_c, 0, 82, 78
1, 130206, Control_c, 0, 64, 80
1, 130221, Control_c, 0, 64, 66
1, 130236, Control_c, 0, 64, 53
1, 130251, Control_c, 0, 64, 47
1, 130264, Note_on_c, 0, 46, 66
1, 130265, Control_c, 0, 64, 59
1, 130280, Control_c, 0, 64, 68
1, 130283, Note_off_c, 0, 37, 62
1, 130295, Control_c, 0, 64, 77
1, 130310, Control_c, 0, 64, 92
1, 130325, Control_c, 0, 64, 112
1, 130333, Note_on_c, 0, 43, 67
1, 130340, Control_c, 0, 64, 127
1, 130373, Note_off_c, 0, 82, 62
1, 130373, Note_off_c, 0, 46, 54
1, 130388, Note_off_c, 0, 94, 66
1, 130400, Note_on_c, 0, 52, 77
1, 130407, Note_off_c, 0, 43, 61
1, 130435, Note_off_c, 0, 52, 64
1, 130504, Note_on_c, 0, 49, 83
1, 130545, Note_on_c, 0, 58, 80
1, 130629, Note_off_c, 0, 49, 59
1, 130646, Note_on_c, 0, 55, 64
1, 130649, Note_on_c, 0, 94, 95
1, 130660, Note_on_c, 0, 82, 80
1, 130665, Note_off_c, 0, 58, 54
1, 130690, Note_on_c, 0, 64, 70
1, 130725, Note_off_c, 0, 64, 63
1, 130744, Note_off_c, 0, 82, 61
1, 130760, Note_off_c, 0, 94, 66
1, 130796, Note_on_c, 0, 49, 72
1, 130807, Note_off_c, 0, 55, 57
1, 130823, Note_on_c, 0, 58, 80
1, 130856, Note_off_c, 0, 49, 61
1, 130896, Note_on_c, 0, 55, 69
1, 130919, Note_on_c, 0, 64, 81
1, 130951, Note_off_c, 0, 58, 62
1, 130963, Note_off_c, 0, 64, 65
1, 130980, Note_off_c, 0, 55, 62
1, 131000, Note_on_c, 0, 94, 100
1, 131005, Note_on_c, 0, 82, 86
1, 131050, Note_off_c, 0, 82, 62
1, 131077, Note_off_c, 0, 94, 61
1, 131166, Note_on_c, 0, 39, 48
1, 131167, Note_on_c, 0, 37, 60
1, 131222, Control_c, 0, 64, 115
1, 131229, Note_off_c, 0, 39, 42
1, 131237, Control_c, 0, 64, 96
1, 131252, Control_c, 0, 64, 82
1, 131267, Control_c, 0, 64, 67
1, 131282, Control_c, 0, 64, 55
1, 131297, Control_c, 0, 64, 44
1, 131306, Note_on_c, 0, 94, 93
1, 131308, Note_on_c, 0, 82, 80
1, 131312, Control_c, 0, 64, 47
1, 131333, Control_c, 0, 64, 54
1, 131348, Control_c, 0, 64, 59
1, 131356, Note_on_c, 0, 95, 43
1, 131363, Control_c, 0, 64, 62
1, 131378, Control_c, 0, 64, 65
1, 131386, Note_off_c, 0, 95, 56
1, 131393, Control_c, 0, 64, 69
1, 131407, Control_c, 0, 64, 75
1, 131422, Control_c, 0, 64, 84
1, 131437, Control_c, 0, 64, 93
1, 131440, Note_off_c, 0, 37, 61
1, 131448, Note_on_c, 0, 49, 75
1, 131452, Control_c, 0, 64, 102
1, 131467, Control_c, 0, 64, 115
1, 131482, Control_c, 0, 64, 127
1, 131506, Note_off_c, 0, 49, 59
1, 131588, Note_on_c, 0, 44, 55
1, 131637, Note_on_c, 0, 53, 58
1, 131678, Note_on_c, 0, 49, 64
1, 131687, Note_off_c, 0, 94, 64
1, 131696, Note_off_c, 0, 44, 47
1, 131722, Note_off_c, 0, 82, 61
1, 131729, Note_off_c, 0, 53, 59
1, 131735, Note_on_c, 0, 56, 80
1, 131747, Note_off_c, 0, 49, 60
1, 131761, Note_off_c, 0, 56, 66
1, 131834, Note_on_c, 0, 53, 70
1, 131884, Note_on_c, 0, 61, 71
1, 131925, Note_off_c, 0, 53, 60
1, 131945, Note_on_c, 0, 92, 87
1, 131958, Note_on_c, 0, 80, 71
1, 131974, Note_on_c, 0, 56, 43
1, 131992, Note_on_c, 0, 65, 63
1, 132007, Note_off_c, 0, 56, 54
1, 132018, Note_off_c, 0, 80, 62
1, 132033, Note_off_c, 0, 92, 65
1, 132060, Note_off_c, 0, 65, 55
1, 132087, Note_off_c, 0, 61, 35
1, 132090, Note_on_c, 0, 53, 55
1, 132130, Note_on_c, 0, 89, 85
1, 132137, Note_on_c, 0, 77, 73
1, 132157, Note_off_c, 0, 53, 63
1, 132181, Note_on_c, 0, 61, 34
1, 132197, Note_off_c, 0, 77, 56
1, 132206, Note_off_c, 0, 61, 56
1, 132224, Note_off_c, 0, 89, 57
1, 132378, Note_on_c, 0, 37, 61
1, 132379, Control_c, 0, 64, 122
1, 132394, Control_c, 0, 64, 112
1, 132409, Control_c, 0, 64, 105
1, 132424, Control_c, 0, 64, 98
1, 132439, Control_c, 0, 64, 88
1, 132453, Control_c, 0, 64, 77
1, 132468, Control_c, 0, 64, 65
1, 132480, Note_on_c, 0, 89, 74
1, 132483, Control_c, 0, 64, 51
1, 132492, Note_on_c, 0, 77, 61
1, 132498, Control_c, 0, 64, 40
1, 132513, Control_c, 0, 64, 54
1, 132522, Note_off_c, 0, 37, 62
1, 132528, Control_c, 0, 64, 63
1, 132543, Control_c, 0, 64, 68
1, 132558, Control_c, 0, 64, 73
1, 132573, Control_c, 0, 64, 79
1, 132573, Note_on_c, 0, 48, 19
1, 132579, Note_on_c, 0, 45, 56
1, 132587, Control_c, 0, 64, 87
1, 132602, Control_c, 0, 64, 99
1, 132617, Control_c, 0, 64, 116
1, 132632, Control_c, 0, 64, 127
1, 132645, Note_off_c, 0, 48, 42
1, 132653, Note_off_c, 0, 45, 62
1, 132666, Note_on_c, 0, 54, 67
1, 132698, Note_off_c, 0, 54, 64
1, 132780, Note_on_c, 0, 48, 49
1, 132781, Note_off_c, 0, 89, 60
1, 132796, Note_on_c, 0, 56, 63
1, 132817, Note_off_c, 0, 48, 64
1, 132818, Note_off_c, 0, 77, 60
1, 132856, Note_off_c, 0, 56, 62
1, 132861, Note_on_c, 0, 54, 53
1, 132907, Note_on_c, 0, 57, 33
1, 132916, Note_on_c, 0, 63, 72
1, 132952, Note_off_c, 0, 63, 61
1, 132957, Note_off_c, 0, 57, 47
1, 132977, Note_off_c, 0, 54, 43
1, 132992, Note_on_c, 0, 48, 71
1, 133048, Note_on_c, 0, 57, 68
1, 133050, Note_off_c, 0, 48, 62
1, 133076, Note_on_c, 0, 87, 80
1, 133084, Note_on_c, 0, 75, 72
1, 133098, Note_on_c, 0, 54, 53
1, 133109, Note_off_c, 0, 75, 65
1, 133121, Note_off_c, 0, 87, 62
1, 133139, Note_on_c, 0, 63, 65
1, 133147, Note_off_c, 0, 57, 60
1, 133166, Note_off_c, 0, 63, 65
1, 133176, Note_off_c, 0, 54, 61
1, 133196, Note_on_c, 0, 84, 79
1, 133199, Note_on_c, 0, 72, 74
1, 133218, Note_off_c, 0, 84, 68
1, 133224, Note_off_c, 0, 72, 69
1, 133291, Note_on_c, 0, 81, 86
1, 133296, Note_on_c, 0, 69, 77
1, 133323, Note_off_c, 0, 69, 66
1, 133352, Note_off_c, 0, 81, 58
1, 133389, Note_on_c, 0, 37, 65
1, 133395, Control_c, 0, 64, 110
1, 133410, Control_c, 0, 64, 98
1, 133425, Control_c, 0, 64, 86
1, 133438, Control_c, 0, 64, 74
1, 133453, Control_c, 0, 64, 63
1, 133468, Control_c, 0, 64, 39
1, 133482, Control_c, 0, 64, 25
1, 133493, Note_on_c, 0, 81, 80
1, 133496, Note_on_c, 0, 69, 71
1, 133497, Control_c, 0, 64, 42
1, 133512, Control_c, 0, 64, 56
1, 133527, Control_c, 0, 64, 63
1, 133541, Control_c, 0, 64, 66
1, 133556, Control_c, 0, 64, 70
1, 133579, Control_c, 0, 64, 78
1, 133592, Note_off_c, 0, 37, 62
1, 133594, Control_c, 0, 64, 91
1, 133604, Note_on_c, 0, 49, 74
1, 133608, Control_c, 0, 64, 124
1, 133623, Control_c, 0, 64, 127
1, 133634, Note_off_c, 0, 49, 65
1, 133671, Note_off_c, 0, 69, 63
1, 133704, Note_on_c, 0, 44, 70
1, 133740, Note_on_c, 0, 53, 68
1, 133782, Note_on_c, 0, 49, 69
1, 133802, Note_off_c, 0, 44, 61
1, 133823, Note_on_c, 0, 56, 89
1, 133829, Note_off_c, 0, 53, 64
1, 133841, Note_off_c, 0, 49, 63
1, 133863, Note_off_c, 0, 56, 63
1, 133929, Note_on_c, 0, 53, 66
1, 133938, Note_on_c, 0, 55, 66
1, 133989, Note_on_c, 0, 61, 77
1, 134015, Note_on_c, 0, 68, 86
1, 134019, Note_on_c, 0, 80, 89
1, 134036, Note_off_c, 0, 53, 61
1, 134038, Note_off_c, 0, 81, 59
1, 134048, Note_off_c, 0, 55, 25
1, 134056, Note_off_c, 0, 68, 64
1, 134079, Note_on_c, 0, 56, 60
1, 134094, Note_on_c, 0, 65, 83
1, 134098, Note_off_c, 0, 80, 63
1, 134135, Note_off_c, 0, 56, 56
1, 134149, Note_off_c, 0, 61, 52
1, 134164, Note_on_c, 0, 53, 77
1, 134171, Note_off_c, 0, 65, 62
1, 134188, Note_on_c, 0, 85, 93
1, 134195, Note_on_c, 0, 73, 89
1, 134221, Note_off_c, 0, 73, 64
1, 134260, Note_on_c, 0, 61, 81
1, 134269, Note_off_c, 0, 85, 61
1, 134281, Note_off_c, 0, 53, 65
1, 134290, Note_off_c, 0, 61, 60
1, 134348, Note_on_c, 0, 77, 87
1, 134353, Note_on_c, 0, 89, 85
1, 134355, Note_on_c, 0, 91, 91
1, 134383, Note_off_c, 0, 91, 55
1, 134388, Note_off_c, 0, 77, 61
1, 134405, Note_off_c, 0, 89, 66
1, 134496, Note_on_c, 0, 37, 87
1, 134596, Control_c, 0, 64, 110
1, 134611, Control_c, 0, 64, 89
1, 134618, Note_on_c, 0, 94, 100
1, 134621, Note_on_c, 0, 82, 94
1, 134625, Control_c, 0, 64, 75
1, 134640, Control_c, 0, 64, 63
1, 134655, Control_c, 0, 64, 48
1, 134670, Control_c, 0, 64, 45
1, 134671, Note_on_c, 0, 46, 70
1, 134685, Control_c, 0, 64, 57
1, 134692, Note_off_c, 0, 37, 60
1, 134699, Control_c, 0, 64, 66
1, 134714, Control_c, 0, 64, 72
1, 134729, Control_c, 0, 64, 82
1, 134733, Note_on_c, 0, 43, 70
1, 134744, Control_c, 0, 64, 98
1, 134757, Note_off_c, 0, 82, 63
1, 134758, Control_c, 0, 64, 127
1, 134763, Note_off_c, 0, 94, 67
1, 134773, Note_off_c, 0, 46, 54
1, 134800, Note_on_c, 0, 52, 82
1, 134802, Note_off_c, 0, 43, 61
1, 134832, Note_off_c, 0, 52, 66
1, 134894, Note_on_c, 0, 49, 80
1, 134942, Note_on_c, 0, 58, 81
1, 134993, Note_off_c, 0, 49, 58
1, 135007, Note_on_c, 0, 59, 22
1, 135021, Note_on_c, 0, 94, 106
1, 135023, Note_off_c, 0, 58, 58
1, 135025, Note_on_c, 0, 82, 97
1, 135033, Note_on_c, 0, 55, 68
1, 135045, Note_off_c, 0, 59, 42
1, 135055, Note_on_c, 0, 64, 68
1, 135094, Note_off_c, 0, 82, 63
1, 135094, Note_off_c, 0, 94, 68
1, 135095, Note_off_c, 0, 64, 66
1, 135160, Note_on_c, 0, 49, 82
1, 135166, Note_off_c, 0, 55, 61
1, 135194, Note_on_c, 0, 58, 86
1, 135226, Note_off_c, 0, 49, 62
1, 135268, Note_on_c, 0, 55, 69
1, 135289, Note_on_c, 0, 64, 86
1, 135303, Note_off_c, 0, 58, 64
1, 135324, Note_off_c, 0, 64, 63
1, 135328, Note_on_c, 0, 56, 8
1, 135329, Note_off_c, 0, 56, 127
1, 135344, Note_off_c, 0, 55, 63
1, 135351, Note_on_c, 0, 82, 91
1, 135351, Note_on_c, 0, 94, 97
1, 135414, Note_off_c, 0, 82, 61
1, 135434, Note_off_c, 0, 94, 59
1, 135477, Note_on_c, 0, 37, 81
1, 135507, Control_c, 0, 64, 108
1, 135522, Control_c, 0, 64, 94
1, 135537, Control_c, 0, 64, 81
1, 135552, Control_c, 0, 64, 68
1, 135567, Control_c, 0, 64, 49
1, 135569, Note_on_c, 0, 94, 100
1, 135571, Note_on_c, 0, 82, 89
1, 135581, Control_c, 0, 64, 12
1, 135597, Control_c, 0, 64, 21
1, 135612, Control_c, 0, 64, 46
1, 135627, Control_c, 0, 64, 61
1, 135642, Control_c, 0, 64, 67
1, 135657, Control_c, 0, 64, 74
1, 135658, Note_off_c, 0, 37, 62
1, 135667, Note_on_c, 0, 49, 82
1, 135671, Control_c, 0, 64, 84
1, 135685, Control_c, 0, 64, 99
1, 135700, Control_c, 0, 64, 127
1, 135717, Note_off_c, 0, 49, 56
1, 135784, Note_on_c, 0, 44, 64
1, 135815, Note_off_c, 0, 94, 65
1, 135842, Note_on_c, 0, 53, 64
1, 135857, Note_off_c, 0, 44, 60
1, 135867, Note_off_c, 0, 82, 59
1, 135871, Note_on_c, 0, 49, 63
1, 135904, Note_off_c, 0, 53, 60
1, 135927, Note_on_c, 0, 56, 79
1, 135935, Note_off_c, 0, 49, 60
1, 135953, Note_off_c, 0, 56, 66
1, 136015, Note_on_c, 0, 53, 66
1, 136076, Note_on_c, 0, 61, 70
1, 136096, Note_off_c, 0, 53, 59
1, 136132, Note_on_c, 0, 92, 86
1, 136138, Note_on_c, 0, 80, 78
1, 136147, Note_on_c, 0, 56, 51
1, 136184, Note_off_c, 0, 56, 60
1, 136186, Note_on_c, 0, 65, 62
1, 136204, Note_off_c, 0, 92, 66
1, 136213, Note_off_c, 0, 80, 62
1, 136241, Note_off_c, 0, 65, 51
1, 136251, Note_off_c, 0, 61, 31
1, 136273, Note_on_c, 0, 53, 54
1, 136296, Note_on_c, 0, 89, 84
1, 136300, Note_on_c, 0, 77, 77
1, 136343, Note_off_c, 0, 53, 59
1, 136356, Note_on_c, 0, 61, 44
1, 136358, Note_off_c, 0, 77, 56
1, 136377, Note_off_c, 0, 61, 59
1, 136401, Note_off_c, 0, 89, 52
1, 136523, Control_c, 0, 64, 106
1, 136524, Note_on_c, 0, 37, 63
1, 136538, Control_c, 0, 64, 88
1, 136552, Control_c, 0, 64, 72
1, 136575, Control_c, 0, 64, 58
1, 136590, Control_c, 0, 64, 0
1, 136601, Note_on_c, 0, 89, 79
1, 136608, Note_on_c, 0, 77, 71
1, 136620, Control_c, 0, 64, 18
1, 136634, Control_c, 0, 64, 50
1, 136649, Control_c, 0, 64, 62
1, 136651, Note_off_c, 0, 37, 62
1, 136659, Note_on_c, 0, 48, 55
1, 136664, Control_c, 0, 64, 66
1, 136679, Control_c, 0, 64, 71
1, 136694, Control_c, 0, 64, 79
1, 136698, Note_on_c, 0, 45, 60
1, 136708, Control_c, 0, 64, 92
1, 136723, Control_c, 0, 64, 107
1, 136731, Note_off_c, 0, 48, 61
1, 136738, Control_c, 0, 64, 127
1, 136764, Note_off_c, 0, 45, 63
1, 136770, Note_on_c, 0, 54, 76
1, 136812, Note_off_c, 0, 54, 60
1, 136856, Note_on_c, 0, 48, 66
1, 136895, Note_on_c, 0, 57, 72
1, 136911, Note_off_c, 0, 48, 64
1, 136917, Note_off_c, 0, 89, 65
1, 136931, Note_on_c, 0, 54, 68
1, 136933, Note_off_c, 0, 77, 62
1, 136983, Note_on_c, 0, 63, 82
1, 137020, Note_off_c, 0, 57, 56
1, 137023, Note_off_c, 0, 63, 60
1, 137026, Note_off_c, 0, 54, 57
1, 137053, Note_on_c, 0, 48, 86
1, 137104, Note_off_c, 0, 48, 63
1, 137107, Note_on_c, 0, 57, 69
1, 137146, Note_on_c, 0, 54, 67
1, 137155, Note_on_c, 0, 87, 93
1, 137157, Note_on_c, 0, 75, 88
1, 137190, Note_on_c, 0, 63, 83
1, 137193, Note_off_c, 0, 87, 68
1, 137196, Note_off_c, 0, 57, 53
1, 137203, Note_off_c, 0, 75, 62
1, 137229, Note_off_c, 0, 63, 61
1, 137241, Note_off_c, 0, 54, 62
1, 137280, Note_on_c, 0, 72, 89
1, 137281, Note_on_c, 0, 84, 88
1, 137320, Note_off_c, 0, 84, 59
1, 137326, Note_off_c, 0, 72, 65
1, 137381, Note_on_c, 0, 69, 91
1, 137384, Note_on_c, 0, 81, 80
1, 137420, Note_on_c, 0, 71, 28
1, 137421, Note_off_c, 0, 71, 127
1, 137438, Note_off_c, 0, 69, 59
1, 137444, Note_on_c, 0, 37, 84
1, 137458, Note_off_c, 0, 81, 57
1, 137483, Poly_aftertouch_c, 0, 83, 0
1, 137547, Control_c, 0, 64, 96
1, 137554, Note_on_c, 0, 81, 95
1, 137557, Note_on_c, 0, 69, 84
1, 137562, Control_c, 0, 64, 73
1, 137576, Control_c, 0, 64, 54
1, 137591, Control_c, 0, 64, 0
1, 137621, Control_c, 0, 64, 48
1, 137636, Control_c, 0, 64, 67
1, 137643, Note_off_c, 0, 37, 62
1, 137650, Note_on_c, 0, 49, 80
1, 137650, Control_c, 0, 64, 77
1, 137665, Control_c, 0, 64, 90
1, 137678, Note_off_c, 0, 49, 63
1, 137680, Control_c, 0, 64, 105
1, 137694, Control_c, 0, 64, 127
1, 137703, Note_off_c, 0, 69, 62
1, 137744, Note_on_c, 0, 46, 87
1, 137794, Note_on_c, 0, 53, 68
1, 137837, Note_on_c, 0, 49, 74
1, 137850, Note_off_c, 0, 46, 59
1, 137865, Note_off_c, 0, 53, 63
1, 137874, Note_on_c, 0, 58, 87
1, 137891, Note_off_c, 0, 49, 61
1, 137917, Note_off_c, 0, 58, 62
1, 137967, Note_on_c, 0, 53, 84
1, 138024, Note_on_c, 0, 61, 76
1, 138094, Note_off_c, 0, 53, 60
1, 138098, Note_on_c, 0, 70, 89
1, 138101, Note_on_c, 0, 82, 94
1, 138117, Note_on_c, 0, 58, 67
1, 138122, Note_off_c, 0, 81, 58
1, 138132, Note_on_c, 0, 65, 87
1, 138140, Note_off_c, 0, 70, 65
1, 138151, Note_off_c, 0, 61, 58
1, 138180, Note_off_c, 0, 82, 62
1, 138183, Note_off_c, 0, 58, 62
1, 138197, Note_off_c, 0, 65, 58
1, 138207, Note_on_c, 0, 53, 81
1, 138254, Note_on_c, 0, 85, 99
1, 138257, Note_on_c, 0, 73, 93
1, 138294, Note_off_c, 0, 73, 66
1, 138303, Note_on_c, 0, 61, 86
1, 138323, Note_off_c, 0, 85, 64
1, 138333, Note_off_c, 0, 53, 63
1, 138343, Note_off_c, 0, 61, 65
1, 138388, Note_on_c, 0, 77, 93
1, 138391, Note_on_c, 0, 89, 105
1, 138424, Note_off_c, 0, 77, 63
1, 138428, Note_on_c, 0, 79, 24
1, 138429, Note_off_c, 0, 79, 127
1, 138444, Note_off_c, 0, 89, 64
1, 138529, Note_on_c, 0, 37, 90
1, 138606, Control_c, 0, 64, 100
1, 138621, Control_c, 0, 64, 80
1, 138624, Note_on_c, 0, 94, 100
1, 138628, Note_on_c, 0, 82, 100
1, 138636, Control_c, 0, 64, 64
1, 138651, Control_c, 0, 64, 43
1, 138666, Control_c, 0, 64, 49
1, 138678, Note_on_c, 0, 46, 78
1, 138681, Control_c, 0, 64, 65
1, 138684, Note_off_c, 0, 37, 61
1, 138695, Control_c, 0, 64, 79
1, 138710, Control_c, 0, 64, 112
1, 138725, Control_c, 0, 64, 127
1, 138728, Note_off_c, 0, 82, 62
1, 138731, Note_on_c, 0, 43, 79
1, 138736, Note_off_c, 0, 94, 66
1, 138746, Note_off_c, 0, 46, 62
1, 138803, Note_off_c, 0, 43, 59
1, 138806, Note_on_c, 0, 52, 79
1, 138838, Note_off_c, 0, 52, 70
1, 138897, Note_on_c, 0, 49, 87
1, 138945, Note_on_c, 0, 58, 80
1, 138996, Note_on_c, 0, 82, 96
1, 138998, Note_on_c, 0, 94, 100
1, 139000, Note_off_c, 0, 49, 55
1, 139027, Note_on_c, 0, 55, 65
1, 139047, Note_on_c, 0, 56, 18
1, 139050, Note_on_c, 0, 64, 82
1, 139050, Note_off_c, 0, 58, 42
1, 139052, Note_off_c, 0, 82, 61
1, 139052, Note_off_c, 0, 94, 67
1, 139086, Note_off_c, 0, 64, 63
1, 139132, Note_off_c, 0, 56, 32
1, 139139, Note_on_c, 0, 49, 85
1, 139146, Note_off_c, 0, 55, 62
1, 139182, Note_on_c, 0, 58, 77
1, 139208, Note_off_c, 0, 49, 61
1, 139214, Note_on_c, 0, 57, 62
1, 139246, Note_on_c, 0, 55, 73
1, 139265, Note_on_c, 0, 64, 94
1, 139306, Note_off_c, 0, 57, 60
1, 139309, Note_off_c, 0, 58, 60
1, 139312, Note_off_c, 0, 64, 67
1, 139330, Note_off_c, 0, 55, 63
1, 139348, Note_on_c, 0, 82, 99
1, 139351, Note_on_c, 0, 94, 104
1, 139402, Note_off_c, 0, 82, 61
1, 139417, Note_off_c, 0, 94, 64
1, 139470, Note_on_c, 0, 44, 39
1, 139482, Note_on_c, 0, 36, 83
1, 139503, Note_off_c, 0, 44, 51
1, 139534, Control_c, 0, 64, 94
1, 139548, Control_c, 0, 64, 74
1, 139569, Note_on_c, 0, 82, 95
1, 139571, Control_c, 0, 64, 55
1, 139572, Note_on_c, 0, 94, 104
1, 139586, Control_c, 0, 64, 45
1, 139594, Note_on_c, 0, 95, 76
1, 139602, Control_c, 0, 64, 59
1, 139609, Note_off_c, 0, 95, 69
1, 139617, Control_c, 0, 64, 68
1, 139627, Note_on_c, 0, 46, 69
1, 139631, Control_c, 0, 64, 77
1, 139642, Note_off_c, 0, 36, 58
1, 139646, Control_c, 0, 64, 91
1, 139661, Control_c, 0, 64, 127
1, 139662, Note_on_c, 0, 43, 80
1, 139691, Note_off_c, 0, 46, 61
1, 139707, Note_off_c, 0, 94, 63
1, 139733, Note_off_c, 0, 82, 61
1, 139735, Note_off_c, 0, 43, 60
1, 139736, Note_on_c, 0, 52, 84
1, 139771, Note_off_c, 0, 52, 65
1, 139825, Note_on_c, 0, 48, 75
1, 139878, Note_on_c, 0, 58, 79
1, 139909, Note_off_c, 0, 48, 59
1, 139936, Note_on_c, 0, 55, 64
1, 139953, Note_on_c, 0, 64, 93
1, 139986, Note_off_c, 0, 58, 63
1, 140005, Note_off_c, 0, 64, 62
1, 140052, Note_on_c, 0, 48, 87
1, 140056, Note_off_c, 0, 55, 63
1, 140082, Note_on_c, 0, 79, 109
1, 140084, Note_on_c, 0, 91, 109
1, 140110, Note_on_c, 0, 58, 83
1, 140119, Note_off_c, 0, 48, 62
1, 140120, Note_off_c, 0, 91, 64
1, 140125, Note_off_c, 0, 79, 58
1, 140167, Note_on_c, 0, 55, 70
1, 140185, Note_on_c, 0, 64, 90
1, 140214, Note_on_c, 0, 56, 25
1, 140215, Note_off_c, 0, 56, 127
1, 140218, Note_off_c, 0, 58, 65
1, 140222, Note_off_c, 0, 64, 65
1, 140241, Note_on_c, 0, 88, 95
1, 140242, Note_on_c, 0, 74, 96
1, 140249, Note_on_c, 0, 76, 79
1, 140251, Note_off_c, 0, 55, 62
1, 140257, Note_on_c, 0, 86, 72
1, 140264, Note_off_c, 0, 76, 68
1, 140268, Note_off_c, 0, 74, 64
1, 140274, Note_off_c, 0, 86, 45
1, 140278, Note_off_c, 0, 88, 66
1, 140341, Note_on_c, 0, 73, 100
1, 140341, Note_on_c, 0, 85, 89
1, 140355, Poly_aftertouch_c, 0, 80, 0
1, 140382, Note_off_c, 0, 73, 66
1, 140393, Note_on_c, 0, 82, 22
1, 140394, Note_off_c, 0, 82, 127
1, 140398, Note_on_c, 0, 72, 6
1, 140417, Note_off_c, 0, 85, 66
1, 140451, Note_off_c, 0, 72, 40
1, 140454, Note_on_c, 0, 34, 95
1, 140499, Control_c, 0, 64, 108
1, 140508, Note_on_c, 0, 33, 29
1, 140514, Control_c, 0, 64, 79
1, 140528, Note_on_c, 0, 85, 98
1, 140528, Control_c, 0, 64, 53
1, 140530, Note_on_c, 0, 97, 114
1, 140539, Note_off_c, 0, 33, 47
1, 140543, Control_c, 0, 64, 0
1, 140558, Control_c, 0, 64, 52
1, 140566, Note_on_c, 0, 98, 46
1, 140573, Control_c, 0, 64, 68
1, 140576, Note_on_c, 0, 43, 66
1, 140587, Control_c, 0, 64, 81
1, 140589, Note_off_c, 0, 98, 59
1, 140590, Note_off_c, 0, 34, 60
1, 140602, Control_c, 0, 64, 100
1, 140610, Note_off_c, 0, 85, 65
1, 140617, Control_c, 0, 64, 127
1, 140618, Note_off_c, 0, 97, 65
1, 140626, Note_on_c, 0, 41, 71
1, 140655, Note_off_c, 0, 43, 61
1, 140687, Note_on_c, 0, 49, 83
1, 140698, Note_off_c, 0, 41, 64
1, 140711, Note_off_c, 0, 49, 69
1, 140779, Note_on_c, 0, 46, 90
1, 140824, Note_on_c, 0, 54, 76
1, 140863, Note_on_c, 0, 55, 72
1, 140866, Note_off_c, 0, 46, 59
1, 140902, Note_on_c, 0, 85, 93
1, 140903, Note_on_c, 0, 97, 102
1, 140907, Note_on_c, 0, 53, 60
1, 140942, Note_off_c, 0, 85, 65
1, 140947, Note_off_c, 0, 97, 68
1, 140949, Note_on_c, 0, 61, 81
1, 140989, Note_off_c, 0, 54, 58
1, 140999, Note_off_c, 0, 61, 63
1, 141041, Note_on_c, 0, 46, 83
1, 141041, Note_off_c, 0, 53, 0
1, 141041, Note_on_c, 0, 53, 11
1, 141053, Note_off_c, 0, 55, 31
1, 141104, Note_on_c, 0, 55, 52
1, 141116, Note_off_c, 0, 46, 62
1, 141164, Note_on_c, 0, 61, 88
1, 141211, Note_off_c, 0, 55, 55
1, 141211, Note_off_c, 0, 61, 64
1, 141218, Note_off_c, 0, 53, 58
1, 141244, Note_on_c, 0, 85, 97
1, 141249, Note_on_c, 0, 97, 95
1, 141292, Note_off_c, 0, 85, 59
1, 141306, Note_off_c, 0, 97, 54
1, 141372, Note_on_c, 0, 36, 78
1, 141383, Note_on_c, 0, 42, 22
1, 141425, Control_c, 0, 64, 108
1, 141431, Note_off_c, 0, 42, 52
1, 141440, Control_c, 0, 64, 87
1, 141455, Control_c, 0, 64, 71
1, 141470, Control_c, 0, 64, 53
1, 141483, Note_on_c, 0, 97, 96
1, 141485, Control_c, 0, 64, 43
1, 141487, Note_on_c, 0, 85, 97
1, 141499, Control_c, 0, 64, 56
1, 141514, Control_c, 0, 64, 66
1, 141527, Note_on_c, 0, 46, 74
1, 141529, Control_c, 0, 64, 74
1, 141543, Control_c, 0, 64, 83
1, 141550, Note_off_c, 0, 36, 56
1, 141558, Control_c, 0, 64, 95
1, 141573, Control_c, 0, 64, 127
1, 141594, Note_on_c, 0, 43, 72
1, 141605, Note_off_c, 0, 46, 59
1, 141660, Note_off_c, 0, 43, 59
1, 141661, Note_on_c, 0, 52, 79
1, 141674, Note_off_c, 0, 97, 64
1, 141696, Note_off_c, 0, 52, 64
1, 141697, Note_off_c, 0, 85, 59
1, 141760, Note_on_c, 0, 48, 77
1, 141804, Note_on_c, 0, 58, 80
1, 141843, Note_off_c, 0, 48, 57
1, 141887, Note_on_c, 0, 55, 56
1, 141893, Note_on_c, 0, 62, 82
1, 141914, Note_off_c, 0, 58, 63
1, 141942, Note_off_c, 0, 62, 61
1, 141990, Note_on_c, 0, 48, 79
1, 141992, Note_on_c, 0, 82, 103
1, 141992, Note_off_c, 0, 55, 61
1, 141995, Note_on_c, 0, 94, 101
1, 142012, Note_on_c, 0, 92, 71
1, 142028, Note_off_c, 0, 94, 68
1, 142029, Note_off_c, 0, 92, 63
1, 142031, Note_off_c, 0, 82, 63
1, 142049, Note_on_c, 0, 58, 86
1, 142054, Note_off_c, 0, 48, 66
1, 142109, Note_on_c, 0, 55, 76
1, 142133, Note_on_c, 0, 64, 88
1, 142153, Note_on_c, 0, 79, 102
1, 142153, Note_on_c, 0, 91, 100
1, 142164, Note_off_c, 0, 58, 62
1, 142172, Note_off_c, 0, 64, 64
1, 142173, Note_off_c, 0, 91, 62
1, 142187, Note_off_c, 0, 79, 65
1, 142192, Note_off_c, 0, 55, 63
1, 142246, Note_on_c, 0, 76, 101
1, 142247, Note_on_c, 0, 88, 96
1, 142264, Note_off_c, 0, 88, 71
1, 142273, Note_off_c, 0, 76, 68
1, 142320, Note_on_c, 0, 73, 101
1, 142326, Note_on_c, 0, 85, 91
1, 142356, Note_off_c, 0, 73, 66
1, 142385, Note_off_c, 0, 85, 65
1, 142395, Note_on_c, 0, 37, 95
1, 142440, Control_c, 0, 64, 91
1, 142455, Control_c, 0, 64, 68
1, 142470, Control_c, 0, 64, 45
1, 142472, Note_on_c, 0, 82, 102
1, 142478, Note_on_c, 0, 94, 104
1, 142484, Control_c, 0, 64, 49
1, 142499, Control_c, 0, 64, 65
1, 142502, Note_on_c, 0, 92, 52
1, 142503, Note_off_c, 0, 92, 127
1, 142514, Control_c, 0, 64, 84
1, 142529, Control_c, 0, 64, 127
1, 142551, Note_off_c, 0, 37, 62
1, 142568, Note_off_c, 0, 82, 63
1, 142570, Note_off_c, 0, 94, 66
1, 142573, Note_on_c, 0, 49, 92
1, 142608, Note_off_c, 0, 49, 55
1, 142613, Note_on_c, 0, 50, 43
1, 142641, Note_off_c, 0, 50, 53
1, 142668, Note_on_c, 0, 46, 79
1, 142676, Note_on_c, 0, 44, 67
1, 142710, Note_on_c, 0, 54, 81
1, 142760, Note_off_c, 0, 44, 53
1, 142768, Note_on_c, 0, 49, 74
1, 142791, Note_off_c, 0, 46, 36
1, 142793, Note_off_c, 0, 54, 62
1, 142821, Note_on_c, 0, 58, 91
1, 142824, Note_off_c, 0, 49, 56
1, 142824, Note_on_c, 0, 94, 103
1, 142825, Note_on_c, 0, 82, 103
1, 142854, Note_off_c, 0, 58, 57
1, 142861, Note_off_c, 0, 82, 65
1, 142870, Note_off_c, 0, 94, 66
1, 142898, Note_on_c, 0, 54, 75
1, 142950, Note_on_c, 0, 61, 86
1, 142965, Note_off_c, 0, 54, 61
1, 142998, Note_off_c, 0, 61, 62
1, 143012, Note_on_c, 0, 66, 84
1, 143070, Note_off_c, 0, 66, 67
1, 143082, Note_on_c, 0, 58, 69
1, 143090, Note_on_c, 0, 54, 81
1, 143091, Note_on_c, 0, 56, 66
1, 143109, Note_on_c, 0, 61, 68
1, 143114, Note_off_c, 0, 58, 60
1, 143117, Note_off_c, 0, 56, 64
1, 143128, Note_off_c, 0, 61, 71
1, 143139, Note_on_c, 0, 82, 104
1, 143140, Note_off_c, 0, 54, 64
1, 143143, Note_on_c, 0, 94, 105
1, 143201, Note_off_c, 0, 82, 59
1, 143219, Note_off_c, 0, 94, 65
1, 143273, Note_on_c, 0, 36, 88
1, 143330, Control_c, 0, 64, 96
1, 143345, Control_c, 0, 64, 71
1, 143354, Note_on_c, 0, 82, 107
1, 143357, Note_on_c, 0, 94, 102
1, 143360, Control_c, 0, 64, 44
1, 143375, Control_c, 0, 64, 0
1, 143389, Control_c, 0, 64, 52
1, 143404, Note_on_c, 0, 46, 76
1, 143404, Note_off_c, 0, 36, 59
1, 143404, Control_c, 0, 64, 68
1, 143419, Control_c, 0, 64, 82
1, 143434, Control_c, 0, 64, 105
1, 143449, Control_c, 0, 64, 127
1, 143465, Note_on_c, 0, 43, 74
1, 143488, Note_off_c, 0, 46, 61
1, 143502, Note_off_c, 0, 94, 65
1, 143513, Note_on_c, 0, 52, 87
1, 143516, Note_off_c, 0, 43, 60
1, 143516, Note_off_c, 0, 82, 61
1, 143551, Note_off_c, 0, 52, 66
1, 143610, Note_on_c, 0, 48, 71
1, 143632, Note_on_c, 0, 50, 62
1, 143661, Note_on_c, 0, 58, 86
1, 143676, Note_off_c, 0, 48, 66
1, 143688, Note_off_c, 0, 50, 30
1, 143694, Note_on_c, 0, 55, 40
1, 143727, Note_on_c, 0, 64, 94
1, 143757, Note_off_c, 0, 58, 65
1, 143775, Note_off_c, 0, 64, 61
1, 143821, Note_on_c, 0, 48, 86
1, 143823, Note_on_c, 0, 79, 112
1, 143826, Note_on_c, 0, 91, 107
1, 143830, Note_off_c, 0, 55, 61
1, 143867, Note_off_c, 0, 91, 64
1, 143870, Note_off_c, 0, 79, 64
1, 143888, Note_on_c, 0, 58, 85
1, 143897, Note_off_c, 0, 48, 63
1, 143915, Note_on_c, 0, 59, 76
1, 143924, Note_on_c, 0, 55, 60
1, 143936, Note_off_c, 0, 58, 39
1, 143946, Note_on_c, 0, 64, 95
1, 143971, Note_on_c, 0, 76, 104
1, 143973, Note_off_c, 0, 59, 62
1, 143975, Note_on_c, 0, 88, 96
1, 143990, Note_off_c, 0, 64, 66
1, 144000, Note_off_c, 0, 76, 72
1, 144001, Note_off_c, 0, 88, 62
1, 144016, Note_off_c, 0, 55, 63
1, 144078, Note_on_c, 0, 73, 84
1, 144080, Note_on_c, 0, 82, 101
1, 144091, Note_off_c, 0, 82, 72
1, 144095, Note_on_c, 0, 71, 66
1, 144095, Note_off_c, 0, 73, 73
1, 144097, Note_on_c, 0, 72, 62
1, 144098, Note_off_c, 0, 72, 127
1, 144098, Note_on_c, 0, 84, 52
1, 144113, Note_off_c, 0, 71, 42
1, 144116, Note_off_c, 0, 84, 61
1, 144145, Note_on_c, 0, 82, 82
1, 144147, Note_on_c, 0, 70, 107
1, 144162, Note_on_c, 0, 80, 51
1, 144163, Note_off_c, 0, 80, 0
1, 144177, Note_off_c, 0, 70, 70
1, 144187, Poly_aftertouch_c, 0, 80, 0
1, 144198, Control_c, 0, 64, 121
1, 144212, Control_c, 0, 64, 78
1, 144213, Note_off_c, 0, 82, 64
1, 144225, Note_on_c, 0, 83, 29
1, 144226, Note_off_c, 0, 83, 127
1, 144227, Control_c, 0, 64, 55
1, 144228, Note_on_c, 0, 34, 92
1, 144242, Control_c, 0, 64, 47
1, 144257, Control_c, 0, 64, 63
1, 144271, Note_on_c, 0, 38, 33
1, 144271, Control_c, 0, 64, 75
1, 144286, Control_c, 0, 64, 94
1, 144294, Note_on_c, 0, 85, 112
1, 144300, Note_on_c, 0, 97, 108
1, 144301, Control_c, 0, 64, 127
1, 144311, Note_on_c, 0, 94, 82
1, 144312, Note_off_c, 0, 94, 127
1, 144312, Note_off_c, 0, 38, 48
1, 144314, Note_on_c, 0, 92, 74
1, 144315, Note_off_c, 0, 92, 127
1, 144326, Note_off_c, 0, 85, 64
1, 144328, Note_on_c, 0, 43, 63
1, 144344, Note_off_c, 0, 97, 66
1, 144347, Note_off_c, 0, 34, 61
1, 144372, Note_on_c, 0, 41, 68
1, 144408, Note_off_c, 0, 43, 60
1, 144429, Note_on_c, 0, 49, 94
1, 144440, Note_off_c, 0, 41, 65
1, 144471, Note_off_c, 0, 49, 61
1, 144535, Note_on_c, 0, 49, 73
1, 144576, Note_on_c, 0, 47, 40
1, 144576, Note_on_c, 0, 56, 77
1, 144577, Note_on_c, 0, 48, 39
1, 144602, Note_off_c, 0, 49, 60
1, 144608, Note_off_c, 0, 48, 52
1, 144609, Note_off_c, 0, 47, 49
1, 144624, Note_on_c, 0, 85, 105
1, 144626, Note_on_c, 0, 97, 107
1, 144627, Note_on_c, 0, 54, 68
1, 144662, Note_off_c, 0, 85, 65
1, 144666, Note_off_c, 0, 56, 63
1, 144667, Note_off_c, 0, 97, 64
1, 144678, Note_on_c, 0, 61, 85
1, 144730, Note_off_c, 0, 61, 63
1, 144748, Note_off_c, 0, 54, 35
1, 144753, Note_on_c, 0, 55, 53
1, 144763, Note_on_c, 0, 47, 81
1, 144786, Note_on_c, 0, 51, 55
1, 144800, Note_on_c, 0, 53, 47
1, 144800, Note_off_c, 0, 55, 0
1, 144845, Poly_aftertouch_c, 0, 55, 127
1, 144849, Note_off_c, 0, 47, 64
1, 144867, Note_on_c, 0, 61, 90
1, 144868, Note_off_c, 0, 51, 54
1, 144887, Note_off_c, 0, 61, 69
1, 144895, Poly_aftertouch_c, 0, 55, 0
1, 144898, Note_on_c, 0, 85, 103
1, 144898, Note_on_c, 0, 97, 104
1, 144907, Note_off_c, 0, 53, 65
1, 144941, Note_off_c, 0, 85, 62
1, 144961, Note_off_c, 0, 97, 64
1, 145044, Note_on_c, 0, 35, 86
1, 145050, Control_c, 0, 64, 85
1, 145065, Control_c, 0, 64, 60
1, 145070, Note_on_c, 0, 85, 102
1, 145072, Note_on_c, 0, 97, 111
1, 145080, Control_c, 0, 64, 35
1, 145094, Control_c, 0, 64, 62
1, 145098, Note_on_c, 0, 94, 48
1, 145099, Note_off_c, 0, 94, 127
1, 145102, Note_on_c, 0, 91, 48
1, 145107, Note_on_c, 0, 33, 21
1, 145109, Control_c, 0, 64, 74
1, 145124, Control_c, 0, 64, 95
1, 145132, Note_off_c, 0, 91, 36
1, 145135, Note_on_c, 0, 45, 86
1, 145139, Control_c, 0, 64, 127
1, 145140, Note_off_c, 0, 85, 62
1, 145143, Note_on_c, 0, 43, 64
1, 145146, Note_off_c, 0, 35, 62
1, 145152, Note_off_c, 0, 33, 53
1, 145158, Note_off_c, 0, 45, 71
1, 145167, Note_off_c, 0, 97, 65
1, 145167, Note_off_c, 0, 43, 55
1, 145254, Note_on_c, 0, 52, 75
1, 145312, Note_on_c, 0, 85, 109
1, 145313, Note_on_c, 0, 56, 34
1, 145314, Note_on_c, 0, 97, 106
1, 145328, Note_on_c, 0, 61, 80
1, 145342, Note_off_c, 0, 56, 60
1, 145351, Note_off_c, 0, 52, 64
1, 145373, Note_on_c, 0, 64, 88
1, 145394, Note_on_c, 0, 55, 59
1, 145397, Note_off_c, 0, 61, 63
1, 145402, Note_off_c, 0, 64, 64
1, 145410, Note_on_c, 0, 56, 27
1, 145425, Note_off_c, 0, 55, 66
1, 145441, Note_off_c, 0, 56, 53
1, 145509, Control_c, 0, 64, 104
1, 145524, Control_c, 0, 64, 69
1, 145538, Note_on_c, 0, 32, 101
1, 145539, Control_c, 0, 64, 43
1, 145554, Control_c, 0, 64, 54
1, 145566, Note_on_c, 0, 31, 73
1, 145568, Note_on_c, 0, 34, 69
1, 145569, Note_off_c, 0, 34, 127
1, 145576, Control_c, 0, 64, 69
1, 145590, Note_off_c, 0, 31, 60
1, 145590, Control_c, 0, 64, 87
1, 145594, Poly_aftertouch_c, 0, 34, 0
1, 145605, Control_c, 0, 64, 127
1, 145620, Note_on_c, 0, 44, 94
1, 145625, Note_off_c, 0, 32, 62
1, 145626, Note_off_c, 0, 85, 57
1, 145640, Note_off_c, 0, 97, 58
1, 145651, Note_off_c, 0, 44, 62
1, 145674, Note_on_c, 0, 45, 30
1, 145689, Poly_aftertouch_c, 0, 36, 0
1, 145714, Note_off_c, 0, 45, 44
1, 145745, Note_on_c, 0, 52, 76
1, 145797, Note_on_c, 0, 85, 110
1, 145799, Note_on_c, 0, 97, 110
1, 145812, Note_on_c, 0, 61, 87
1, 145835, Note_off_c, 0, 52, 65
1, 145856, Note_on_c, 0, 56, 68
1, 145873, Note_on_c, 0, 64, 81
1, 145890, Note_off_c, 0, 61, 61
1, 145915, Note_off_c, 0, 64, 65
1, 145921, Note_off_c, 0, 56, 62
1, 146021, Control_c, 0, 64, 95
1, 146036, Control_c, 0, 64, 65
1, 146038, Note_on_c, 0, 31, 89
1, 146051, Control_c, 0, 64, 38
1, 146066, Control_c, 0, 64, 58
1, 146080, Control_c, 0, 64, 71
1, 146094, Note_off_c, 0, 85, 60
1, 146095, Control_c, 0, 64, 91
1, 146103, Note_off_c, 0, 97, 64
1, 146110, Control_c, 0, 64, 127
1, 146127, Note_on_c, 0, 43, 100
1, 146140, Note_off_c, 0, 31, 64
1, 146168, Note_off_c, 0, 43, 62
1, 146231, Note_on_c, 0, 97, 99
1, 146232, Note_on_c, 0, 85, 95
1, 146244, Note_on_c, 0, 98, 85
1, 146255, Note_off_c, 0, 98, 73
1, 146264, Note_on_c, 0, 53, 81
1, 146269, Note_off_c, 0, 85, 65
1, 146273, Note_on_c, 0, 87, 31
1, 146274, Note_off_c, 0, 87, 127
1, 146280, Note_off_c, 0, 97, 65
1, 146369, Note_on_c, 0, 61, 76
1, 146402, Note_on_c, 0, 85, 103
1, 146404, Note_on_c, 0, 97, 106
1, 146410, Note_on_c, 0, 64, 88
1, 146426, Note_on_c, 0, 54, 56
1, 146427, Note_off_c, 0, 54, 127
1, 146427, Note_off_c, 0, 61, 62
1, 146437, Note_on_c, 0, 55, 79
1, 146441, Note_off_c, 0, 53, 61
1, 146443, Note_off_c, 0, 64, 63
1, 146444, Note_off_c, 0, 85, 59
1, 146461, Note_off_c, 0, 97, 61
1, 146461, Note_off_c, 0, 55, 67
1, 146546, Control_c, 0, 64, 113
1, 146561, Control_c, 0, 64, 72
1, 146573, Note_on_c, 0, 85, 111
1, 146576, Note_on_c, 0, 97, 108
1, 146576, Control_c, 0, 64, 47
1, 146578, Note_on_c, 0, 30, 88
1, 146584, Note_on_c, 0, 32, 94
1, 146591, Control_c, 0, 64, 55
1, 146595, Note_on_c, 0, 94, 66
1, 146596, Note_off_c, 0, 94, 127
1, 146605, Control_c, 0, 64, 68
1, 146620, Control_c, 0, 64, 88
1, 146635, Control_c, 0, 64, 127
1, 146636, Note_off_c, 0, 97, 67
1, 146637, Note_off_c, 0, 85, 63
1, 146657, Note_on_c, 0, 42, 91
1, 146672, Poly_aftertouch_c, 0, 34, 127
1, 146678, Note_off_c, 0, 30, 61
1, 146684, Note_on_c, 0, 35, 3
1, 146686, Note_off_c, 0, 32, 56
1, 146704, Note_off_c, 0, 42, 63
1, 146711, Poly_aftertouch_c, 0, 34, 0
1, 146724, Note_off_c, 0, 35, 51
1, 146747, Note_on_c, 0, 85, 103
1, 146750, Note_on_c, 0, 97, 105
1, 146762, Note_on_c, 0, 98, 90
1, 146772, Note_off_c, 0, 98, 75
1, 146773, Note_on_c, 0, 87, 54
1, 146774, Note_off_c, 0, 87, 127
1, 146793, Note_on_c, 0, 94, 31
1, 146794, Note_off_c, 0, 94, 127
1, 146795, Note_off_c, 0, 85, 60
1, 146805, Note_on_c, 0, 53, 69
1, 146810, Note_off_c, 0, 97, 64
1, 146812, Note_on_c, 0, 55, 72
1, 146883, Note_on_c, 0, 61, 57
1, 146893, Note_on_c, 0, 62, 80
1, 146903, Note_off_c, 0, 61, 61
1, 146913, Note_on_c, 0, 85, 101
1, 146913, Note_on_c, 0, 97, 108
1, 146914, Note_on_c, 0, 56, 75
1, 146917, Note_off_c, 0, 53, 47
1, 146919, Note_off_c, 0, 62, 61
1, 146933, Note_on_c, 0, 94, 55
1, 146934, Note_off_c, 0, 94, 127
1, 146940, Note_on_c, 0, 65, 70
1, 146940, Note_on_c, 0, 92, 49
1, 146940, Note_off_c, 0, 55, 37
1, 146947, Note_off_c, 0, 85, 63
1, 146953, Note_off_c, 0, 97, 65
1, 146962, Note_off_c, 0, 65, 67
1, 146963, Note_off_c, 0, 92, 41
1, 146973, Note_off_c, 0, 56, 64
1, 147133, Control_c, 0, 64, 83
1, 147140, Note_on_c, 0, 28, 89
1, 147143, Note_on_c, 0, 85, 110
1, 147148, Note_on_c, 0, 97, 109
1, 147148, Control_c, 0, 64, 61
1, 147153, Note_on_c, 0, 29, 75
1, 147162, Control_c, 0, 64, 54
1, 147164, Note_on_c, 0, 94, 69
1, 147173, Note_on_c, 0, 84, 54
1, 147173, Note_on_c, 0, 92, 43
1, 147174, Note_off_c, 0, 92, 127
1, 147177, Control_c, 0, 64, 65
1, 147179, Note_off_c, 0, 94, 67
1, 147191, Note_off_c, 0, 84, 62
1, 147192, Control_c, 0, 64, 80
1, 147207, Control_c, 0, 64, 104
1, 147221, Note_off_c, 0, 85, 65
1, 147221, Note_off_c, 0, 97, 68
1, 147222, Control_c, 0, 64, 127
1, 147242, Note_off_c, 0, 28, 60
1, 147245, Note_off_c, 0, 29, 0
1, 147245, Note_on_c, 0, 29, 20
1, 147256, Poly_aftertouch_c, 0, 33, 0
1, 147286, Poly_aftertouch_c, 0, 31, 0
1, 147298, Note_on_c, 0, 31, 51
1, 147299, Note_on_c, 0, 41, 97
1, 147302, Note_off_c, 0, 29, 46
1, 147329, Note_off_c, 0, 31, 64
1, 147331, Note_on_c, 0, 85, 110
1, 147334, Note_on_c, 0, 97, 109
1, 147344, Note_off_c, 0, 41, 67
1, 147355, Note_on_c, 0, 98, 72
1, 147368, Note_off_c, 0, 98, 70
1, 147372, Note_off_c, 0, 85, 60
1, 147383, Note_off_c, 0, 97, 64
1, 147465, Note_on_c, 0, 53, 87
1, 147489, Note_on_c, 0, 85, 105
1, 147492, Note_on_c, 0, 97, 105
1, 147504, Note_on_c, 0, 94, 78
1, 147505, Note_off_c, 0, 94, 127
1, 147511, Note_on_c, 0, 92, 65
1, 147512, Note_off_c, 0, 92, 127
1, 147529, Note_off_c, 0, 85, 63
1, 147537, Note_off_c, 0, 97, 67
1, 147582, Note_on_c, 0, 61, 89
1, 147622, Note_on_c, 0, 85, 100
1, 147625, Note_on_c, 0, 97, 102
1, 147629, Note_off_c, 0, 53, 61
1, 147645, Note_on_c, 0, 94, 53
1, 147646, Note_off_c, 0, 94, 127
1, 147654, Note_off_c, 0, 85, 66
1, 147665, Note_off_c, 0, 97, 65
1, 147695, Note_on_c, 0, 56, 74
1, 147700, Note_off_c, 0, 61, 63
1, 147734, Note_on_c, 0, 85, 107
1, 147734, Note_on_c, 0, 97, 104
1, 147741, Note_on_c, 0, 65, 87
1, 147747, Note_on_c, 0, 94, 67
1, 147748, Note_off_c, 0, 94, 127
1, 147760, Note_off_c, 0, 65, 73
1, 147769, Note_off_c, 0, 85, 59
1, 147769, Note_off_c, 0, 56, 64
1, 147782, Note_off_c, 0, 97, 67
1, 147882, Control_c, 0, 64, 94
1, 147887, Note_on_c, 0, 85, 111
1, 147892, Note_on_c, 0, 97, 107
1, 147897, Control_c, 0, 64, 64
1, 147902, Note_on_c, 0, 28, 87
1, 147911, Control_c, 0, 64, 43
1, 147918, Note_on_c, 0, 94, 48
1, 147919, Note_off_c, 0, 94, 127
1, 147926, Control_c, 0, 64, 62
1, 147930, Note_on_c, 0, 92, 27
1, 147931, Note_off_c, 0, 92, 127
1, 147941, Control_c, 0, 64, 73
1, 147956, Control_c, 0, 64, 95
1, 147961, Note_off_c, 0, 85, 64
1, 147966, Note_off_c, 0, 97, 65
1, 147971, Control_c, 0, 64, 127
1, 148020, Note_on_c, 0, 40, 94
1, 148036, Note_off_c, 0, 28, 62
1, 148038, Note_on_c, 0, 85, 112
1, 148042, Note_on_c, 0, 97, 114
1, 148055, Note_off_c, 0, 40, 66
1, 148058, Note_on_c, 0, 92, 61
1, 148067, Note_on_c, 0, 94, 51
1, 148068, Note_off_c, 0, 94, 127
1, 148076, Note_off_c, 0, 92, 64
1, 148085, Note_off_c, 0, 85, 57
1, 148100, Note_off_c, 0, 97, 66
1, 148130, Poly_aftertouch_c, 0, 30, 0
1, 148169, Note_on_c, 0, 85, 109
1, 148173, Note_on_c, 0, 97, 119
1, 148181, Note_on_c, 0, 57, 68
1, 148194, Note_on_c, 0, 94, 52
1, 148195, Note_off_c, 0, 94, 127
1, 148195, Note_on_c, 0, 55, 71
1, 148214, Note_off_c, 0, 55, 59
1, 148216, Note_on_c, 0, 58, 31
1, 148224, Note_off_c, 0, 97, 68
1, 148228, Note_off_c, 0, 85, 60
1, 148251, Note_off_c, 0, 58, 52
1, 148314, Note_on_c, 0, 61, 92
1, 148320, Note_on_c, 0, 85, 113
1, 148324, Note_on_c, 0, 97, 108
1, 148339, Note_on_c, 0, 92, 73
1, 148343, Note_on_c, 0, 94, 63
1, 148344, Note_off_c, 0, 94, 127
1, 148355, Note_off_c, 0, 92, 67
1, 148383, Note_off_c, 0, 85, 59
1, 148386, Note_off_c, 0, 97, 67
1, 148403, Note_off_c, 0, 57, 59
1, 148461, Note_on_c, 0, 58, 92
1, 148474, Note_on_c, 0, 85, 108
1, 148478, Note_on_c, 0, 97, 108
1, 148495, Note_off_c, 0, 61, 60
1, 148508, Note_on_c, 0, 94, 37
1, 148509, Note_off_c, 0, 94, 127
1, 148569, Note_off_c, 0, 97, 63
1, 148581, Note_off_c, 0, 85, 54
1, 148663, Note_on_c, 0, 67, 94
1, 148669, Note_on_c, 0, 85, 111
1, 148670, Note_off_c, 0, 58, 66
1, 148672, Note_on_c, 0, 97, 102
1, 148680, Note_on_c, 0, 65, 70
1, 148680, Note_off_c, 0, 67, 70
1, 148691, Note_on_c, 0, 94, 59
1, 148696, Note_off_c, 0, 65, 69
1, 148711, Note_on_c, 0, 96, 40
1, 148723, Note_off_c, 0, 94, 64
1, 148729, Note_off_c, 0, 85, 61
1, 148735, Note_off_c, 0, 96, 49
1, 148737, Note_off_c, 0, 97, 66
1, 148923, Note_on_c, 0, 29, 113
1, 148943, Note_on_c, 0, 28, 66
1, 148944, Note_off_c, 0, 28, 127
1, 148971, Control_c, 0, 64, 93
1, 148986, Control_c, 0, 64, 66
1, 149000, Control_c, 0, 64, 0
1, 149060, Control_c, 0, 64, 27
1, 149075, Control_c, 0, 64, 54
1, 149090, Control_c, 0, 64, 67
1, 149105, Control_c, 0, 64, 89
1, 149120, Control_c, 0, 64, 127
1, 149145, Note_on_c, 0, 41, 101
1, 149155, Note_on_c, 0, 40, 79
1, 149175, Note_off_c, 0, 29, 63
1, 149179, Note_off_c, 0, 40, 39
1, 149182, Note_on_c, 0, 37, 30
1, 149189, Note_off_c, 0, 41, 66
1, 149224, Note_off_c, 0, 37, 48
1, 149325, Note_on_c, 0, 85, 108
1, 149329, Note_on_c, 0, 97, 108
1, 149338, Note_on_c, 0, 94, 83
1, 149349, Note_on_c, 0, 84, 66
1, 149350, Note_off_c, 0, 94, 72
1, 149366, Note_off_c, 0, 84, 64
1, 149369, Note_on_c, 0, 83, 28
1, 149403, Note_off_c, 0, 83, 46
1, 149485, Note_on_c, 0, 48, 90
1, 149519, Note_on_c, 0, 51, 46
1, 149548, Note_off_c, 0, 51, 53
1, 149607, Note_on_c, 0, 56, 99
1, 149638, Note_off_c, 0, 48, 63
1, 149642, Note_off_c, 0, 97, 56
1, 149665, Note_off_c, 0, 85, 58
1, 149692, Note_on_c, 0, 53, 74
1, 149700, Note_on_c, 0, 52, 72
1, 149717, Note_off_c, 0, 56, 64
1, 149785, Note_on_c, 0, 84, 110
1, 149788, Note_on_c, 0, 96, 101
1, 149811, Note_off_c, 0, 52, 56
1, 149856, Note_on_c, 0, 60, 78
1, 149872, Note_on_c, 0, 59, 60
1, 149876, Note_off_c, 0, 60, 64
1, 149877, Note_off_c, 0, 53, 62
1, 149883, Control_c, 0, 64, 117
1, 149891, Note_off_c, 0, 59, 63
1, 149898, Control_c, 0, 64, 79
1, 149913, Control_c, 0, 64, 64
1, 149928, Control_c, 0, 64, 65
1, 149942, Control_c, 0, 64, 75
1, 149948, Note_on_c, 0, 32, 94
1, 149957, Note_on_c, 0, 31, 94
1, 149957, Control_c, 0, 64, 94
1, 149969, Note_off_c, 0, 84, 57
1, 149972, Control_c, 0, 64, 127
1, 149973, Note_off_c, 0, 96, 57
1, 150001, Note_on_c, 0, 34, 25
1, 150008, Note_on_c, 0, 36, 64
1, 150011, Note_on_c, 0, 35, 22
1, 150017, Note_off_c, 0, 31, 59
1, 150027, Note_on_c, 0, 44, 97
1, 150044, Note_off_c, 0, 36, 63
1, 150046, Note_off_c, 0, 35, 60
1, 150047, Note_off_c, 0, 32, 63
1, 150060, Note_off_c, 0, 34, 49
1, 150080, Note_off_c, 0, 44, 64
1, 150088, Note_on_c, 0, 82, 108
1, 150093, Note_on_c, 0, 94, 102
1, 150110, Poly_aftertouch_c, 0, 42, 127
1, 150121, Note_on_c, 0, 95, 56
1, 150122, Note_off_c, 0, 95, 127
1, 150136, Note_off_c, 0, 82, 64
1, 150137, Note_off_c, 0, 94, 66
1, 150151, Poly_aftertouch_c, 0, 42, 0
1, 150168, Note_on_c, 0, 53, 84
1, 150201, Note_on_c, 0, 55, 22
1, 150212, Note_on_c, 0, 60, 86
1, 150238, Note_off_c, 0, 55, 37
1, 150238, Note_off_c, 0, 53, 65
1, 150289, Note_on_c, 0, 56, 89
1, 150310, Note_off_c, 0, 60, 61
1, 150345, Note_on_c, 0, 80, 116
1, 150346, Note_on_c, 0, 92, 104
1, 150381, Note_on_c, 0, 65, 98
1, 150402, Note_off_c, 0, 65, 72
1, 150410, Note_off_c, 0, 56, 62
1, 150440, Control_c, 0, 64, 108
1, 150454, Control_c, 0, 64, 77
1, 150469, Control_c, 0, 64, 67
1, 150479, Note_on_c, 0, 37, 98
1, 150484, Control_c, 0, 64, 75
1, 150498, Control_c, 0, 64, 99
1, 150499, Note_on_c, 0, 35, 66
1, 150508, Note_on_c, 0, 36, 58
1, 150508, Note_on_c, 0, 39, 52
1, 150513, Control_c, 0, 64, 127
1, 150530, Note_off_c, 0, 35, 63
1, 150536, Note_off_c, 0, 80, 61
1, 150536, Note_off_c, 0, 92, 67
1, 150538, Note_off_c, 0, 36, 60
1, 150546, Note_on_c, 0, 49, 101
1, 150561, Note_on_c, 0, 40, 29
1, 150567, Note_off_c, 0, 37, 63
1, 150577, Note_off_c, 0, 39, 38
1, 150595, Note_off_c, 0, 49, 62
1, 150603, Note_off_c, 0, 40, 51
1, 150609, Note_on_c, 0, 50, 31
1, 150613, Poly_aftertouch_c, 0, 41, 127
1, 150619, Note_on_c, 0, 79, 113
1, 150619, Note_on_c, 0, 91, 106
1, 150653, Poly_aftertouch_c, 0, 41, 0
1, 150653, Note_off_c, 0, 50, 40
1, 150656, Note_off_c, 0, 79, 67
1, 150660, Note_off_c, 0, 91, 62
1, 150681, Note_on_c, 0, 53, 84
1, 150751, Note_on_c, 0, 58, 92
1, 150780, Note_off_c, 0, 53, 64
1, 150838, Note_on_c, 0, 55, 78
1, 150864, Note_off_c, 0, 58, 64
1, 150886, Note_on_c, 0, 77, 100
1, 150887, Note_on_c, 0, 89, 104
1, 150946, Note_on_c, 0, 65, 95
1, 150962, Note_off_c, 0, 65, 75
1, 150982, Note_off_c, 0, 55, 60
1, 151040, Control_c, 0, 64, 91
1, 151055, Control_c, 0, 64, 67
1, 151059, Note_on_c, 0, 34, 101
1, 151070, Control_c, 0, 64, 58
1, 151080, Note_on_c, 0, 37, 71
1, 151084, Control_c, 0, 64, 67
1, 151098, Note_off_c, 0, 89, 61
1, 151099, Note_on_c, 0, 39, 54
1, 151099, Note_off_c, 0, 77, 55
1, 151099, Control_c, 0, 64, 87
1, 151114, Control_c, 0, 64, 127
1, 151143, Note_off_c, 0, 37, 0
1, 151146, Note_off_c, 0, 39, 55
1, 151150, Note_on_c, 0, 46, 99
1, 151164, Note_on_c, 0, 40, 59
1, 151180, Poly_aftertouch_c, 0, 37, 127
1, 151187, Note_off_c, 0, 34, 61
1, 151193, Note_on_c, 0, 47, 60
1, 151194, Note_off_c, 0, 40, 64
1, 151212, Note_off_c, 0, 46, 62
1, 151224, Note_off_c, 0, 47, 64
1, 151227, Note_on_c, 0, 75, 114
1, 151230, Poly_aftertouch_c, 0, 37, 0
1, 151230, Note_on_c, 0, 87, 106
1, 151283, Note_off_c, 0, 87, 63
1, 151292, Note_off_c, 0, 75, 56
1, 151323, Note_on_c, 0, 53, 85
1, 151406, Note_on_c, 0, 61, 93
1, 151451, Note_off_c, 0, 53, 62
1, 151497, Note_on_c, 0, 55, 78
1, 151521, Note_off_c, 0, 61, 63
1, 151567, Note_on_c, 0, 73, 103
1, 151575, Note_on_c, 0, 85, 92
1, 151623, Note_on_c, 0, 65, 92
1, 151642, Note_off_c, 0, 65, 72
1, 151660, Poly_aftertouch_c, 0, 72, 127
1, 151662, Note_off_c, 0, 55, 61
1, 151684, Poly_aftertouch_c, 0, 72, 0
1, 151823, Note_on_c, 0, 36, 101
1, 151848, Control_c, 0, 64, 89
1, 151861, Note_on_c, 0, 43, 42
1, 151863, Control_c, 0, 64, 58
1, 151877, Control_c, 0, 64, 0
1, 151892, Control_c, 0, 64, 33
1, 151898, Note_off_c, 0, 43, 33
1, 151907, Control_c, 0, 64, 62
1, 151922, Control_c, 0, 64, 74
1, 151937, Control_c, 0, 64, 92
1, 151949, Note_off_c, 0, 73, 59
1, 151952, Control_c, 0, 64, 127
1, 151957, Note_off_c, 0, 85, 58
1, 151999, Note_on_c, 0, 48, 91
1, 152000, Note_off_c, 0, 36, 60
1, 152025, Note_off_c, 0, 48, 66
1, 152142, Note_on_c, 0, 53, 75
1, 152151, Note_on_c, 0, 73, 97
1, 152151, Note_on_c, 0, 85, 100
1, 152203, Note_on_c, 0, 60, 75
1, 152242, Note_off_c, 0, 85, 62
1, 152247, Note_off_c, 0, 73, 63
1, 152272, Note_on_c, 0, 56, 74
1, 152312, Note_off_c, 0, 60, 59
1, 152324, Note_on_c, 0, 72, 96
1, 152330, Note_on_c, 0, 84, 100
1, 152350, Note_on_c, 0, 65, 84
1, 152404, Note_off_c, 0, 65, 63
1, 152417, Note_off_c, 0, 53, 49
1, 152420, Control_c, 0, 64, 111
1, 152423, Note_on_c, 0, 60, 76
1, 152426, Note_off_c, 0, 56, 60
1, 152435, Control_c, 0, 64, 80
1, 152437, Note_off_c, 0, 72, 63
1, 152437, Note_off_c, 0, 84, 65
1, 152449, Control_c, 0, 64, 66
1, 152464, Control_c, 0, 64, 70
1, 152479, Control_c, 0, 64, 86
1, 152482, Note_off_c, 0, 60, 55
1, 152482, Note_on_c, 0, 68, 96
1, 152494, Control_c, 0, 64, 127
1, 152525, Note_off_c, 0, 68, 69
1, 152561, Poly_aftertouch_c, 0, 57, 0
1, 152566, Note_on_c, 0, 56, 70
1, 152581, Note_on_c, 0, 57, 22
1, 152582, Note_on_c, 0, 71, 94
1, 152589, Note_on_c, 0, 83, 81
1, 152595, Note_on_c, 0, 84, 70
1, 152609, Note_off_c, 0, 84, 69
1, 152613, Note_on_c, 0, 65, 87
1, 152620, Note_off_c, 0, 71, 62
1, 152634, Note_off_c, 0, 83, 64
1, 152652, Note_off_c, 0, 56, 61
1, 152657, Note_off_c, 0, 57, 0
1, 152658, Note_off_c, 0, 65, 66
1, 152667, Note_on_c, 0, 60, 69
1, 152694, Poly_aftertouch_c, 0, 57, 127
1, 152715, Note_on_c, 0, 72, 99
1, 152715, Note_on_c, 0, 84, 90
1, 152725, Note_off_c, 0, 60, 0
1, 152734, Note_on_c, 0, 68, 97
1, 152752, Poly_aftertouch_c, 0, 60, 0
1, 152759, Note_off_c, 0, 68, 65
1, 152771, Poly_aftertouch_c, 0, 57, 0
1, 152820, Control_c, 0, 64, 75
1, 152835, Control_c, 0, 64, 55
1, 152849, Note_off_c, 0, 72, 61
1, 152849, Control_c, 0, 64, 60
1, 152853, Note_on_c, 0, 36, 91
1, 152864, Control_c, 0, 64, 72
1, 152867, Note_off_c, 0, 84, 63
1, 152877, Note_on_c, 0, 37, 52
1, 152879, Control_c, 0, 64, 99
1, 152894, Control_c, 0, 64, 127
1, 152896, Note_off_c, 0, 36, 65
1, 152907, Note_on_c, 0, 50, 93
1, 152908, Note_off_c, 0, 37, 54
1, 152931, Note_off_c, 0, 50, 66
1, 152989, Note_on_c, 0, 73, 101
1, 152995, Note_on_c, 0, 85, 103
1, 153016, Note_on_c, 0, 53, 72
1, 153036, Note_off_c, 0, 73, 65
1, 153037, Note_off_c, 0, 85, 65
1, 153106, Note_on_c, 0, 59, 71
1, 153139, Poly_aftertouch_c, 0, 56, 127
1, 153141, Note_on_c, 0, 72, 100
1, 153145, Note_on_c, 0, 84, 102
1, 153160, Note_off_c, 0, 59, 63
1, 153166, Note_on_c, 0, 55, 65
1, 153184, Note_on_c, 0, 83, 37
1, 153185, Note_off_c, 0, 83, 127
1, 153254, Note_on_c, 0, 64, 88
1, 153261, Note_off_c, 0, 72, 63
1, 153262, Note_off_c, 0, 84, 64
1, 153272, Control_c, 0, 64, 81
1, 153283, Poly_aftertouch_c, 0, 82, 0
1, 153287, Control_c, 0, 64, 59
1, 153302, Control_c, 0, 64, 54
1, 153317, Control_c, 0, 64, 67
1, 153321, Note_off_c, 0, 64, 54
1, 153322, Note_on_c, 0, 58, 85
1, 153332, Control_c, 0, 64, 83
1, 153341, Note_off_c, 0, 55, 32
1, 153347, Control_c, 0, 64, 127
1, 153358, Note_off_c, 0, 58, 68
1, 153384, Note_on_c, 0, 59, 63
1, 153391, Note_off_c, 0, 53, 55
1, 153395, Poly_aftertouch_c, 0, 56, 0
1, 153401, Note_on_c, 0, 67, 102
1, 153403, Note_off_c, 0, 59, 63
1, 153417, Note_on_c, 0, 56, 18
1, 153423, Note_on_c, 0, 71, 101
1, 153427, Note_on_c, 0, 83, 100
1, 153433, Note_on_c, 0, 61, 38
1, 153457, Note_off_c, 0, 56, 50
1, 153458, Note_off_c, 0, 67, 59
1, 153464, Note_off_c, 0, 61, 52
1, 153466, Note_off_c, 0, 71, 63
1, 153487, Note_off_c, 0, 83, 58
1, 153493, Note_on_c, 0, 55, 80
1, 153555, Note_on_c, 0, 64, 91
1, 153630, Note_on_c, 0, 72, 108
1, 153634, Note_on_c, 0, 84, 106
1, 153642, Note_on_c, 0, 58, 86
1, 153654, Note_off_c, 0, 64, 65
1, 153663, Note_off_c, 0, 55, 56
1, 153672, Note_on_c, 0, 82, 36
1, 153697, Note_off_c, 0, 58, 69
1, 153701, Note_off_c, 0, 82, 34
1, 153719, Note_on_c, 0, 59, 64
1, 153734, Note_on_c, 0, 67, 69
1, 153735, Note_off_c, 0, 59, 66
1, 153741, Note_on_c, 0, 65, 70
1, 153755, Note_off_c, 0, 67, 61
1, 153758, Note_off_c, 0, 65, 67
1, 153900, Note_on_c, 0, 29, 104
1, 153918, Control_c, 0, 64, 84
1, 153931, Note_on_c, 0, 36, 50
1, 153932, Control_c, 0, 64, 55
1, 153947, Control_c, 0, 64, 0
1, 153962, Control_c, 0, 64, 39
1, 153964, Note_off_c, 0, 36, 35
1, 153970, Note_off_c, 0, 72, 59
1, 153978, Control_c, 0, 64, 65
1, 153993, Control_c, 0, 64, 77
1, 153999, Note_off_c, 0, 84, 61
1, 154008, Control_c, 0, 64, 98
1, 154022, Control_c, 0, 64, 127
1, 154062, Note_on_c, 0, 41, 104
1, 154077, Note_on_c, 0, 36, 29
1, 154078, Note_off_c, 0, 29, 62
1, 154107, Note_off_c, 0, 41, 65
1, 154120, Note_off_c, 0, 36, 39
1, 154197, Note_on_c, 0, 85, 104
1, 154202, Note_on_c, 0, 97, 106
1, 154229, Note_on_c, 0, 98, 63
1, 154247, Note_off_c, 0, 98, 65
1, 154331, Note_on_c, 0, 48, 73
1, 154371, Note_on_c, 0, 51, 51
1, 154414, Note_off_c, 0, 51, 53
1, 154427, Note_on_c, 0, 56, 89
1, 154475, Note_off_c, 0, 48, 64
1, 154486, Note_off_c, 0, 85, 58
1, 154487, Note_off_c, 0, 97, 61
1, 154490, Note_on_c, 0, 53, 76
1, 154518, Note_off_c, 0, 56, 64
1, 154599, Note_on_c, 0, 96, 106
1, 154602, Note_on_c, 0, 84, 97
1, 154609, Note_on_c, 0, 86, 89
1, 154613, Note_on_c, 0, 62, 89
1, 154632, Note_off_c, 0, 62, 70
1, 154635, Note_on_c, 0, 60, 62
1, 154643, Note_off_c, 0, 86, 0
1, 154652, Note_on_c, 0, 86, 38
1, 154652, Note_off_c, 0, 53, 63
1, 154658, Note_off_c, 0, 60, 62
1, 154710, Control_c, 0, 64, 83
1, 154725, Control_c, 0, 64, 63
1, 154729, Note_on_c, 0, 32, 96
1, 154740, Control_c, 0, 64, 63
1, 154742, Note_on_c, 0, 31, 84
1, 154749, Note_on_c, 0, 34, 69
1, 154754, Control_c, 0, 64, 74
1, 154756, Note_off_c, 0, 86, 36
1, 154758, Note_on_c, 0, 35, 46
1, 154761, Note_off_c, 0, 96, 56
1, 154770, Control_c, 0, 64, 96
1, 154771, Note_on_c, 0, 36, 63
1, 154774, Note_off_c, 0, 31, 60
1, 154776, Note_off_c, 0, 84, 58
1, 154785, Control_c, 0, 64, 127
1, 154787, Note_off_c, 0, 34, 44
1, 154789, Note_on_c, 0, 44, 97
1, 154814, Note_off_c, 0, 32, 61
1, 154815, Note_off_c, 0, 36, 59
1, 154843, Note_off_c, 0, 44, 64
1, 154843, Note_off_c, 0, 35, 40
1, 154876, Note_on_c, 0, 82, 108
1, 154879, Note_on_c, 0, 94, 102
1, 154911, Poly_aftertouch_c, 0, 45, 0
1, 154918, Note_on_c, 0, 92, 31
1, 154919, Note_off_c, 0, 92, 127
1, 154923, Note_off_c, 0, 94, 66
1, 154925, Note_off_c, 0, 82, 60
1, 154927, Poly_aftertouch_c, 0, 45, 0
1, 154929, Note_on_c, 0, 53, 81
1, 154980, Note_on_c, 0, 60, 87
1, 155004, Note_off_c, 0, 53, 65
1, 155050, Note_on_c, 0, 56, 89
1, 155065, Note_off_c, 0, 60, 60
1, 155126, Note_on_c, 0, 80, 110
1, 155129, Note_on_c, 0, 92, 111
1, 155168, Note_on_c, 0, 65, 93
1, 155186, Note_off_c, 0, 65, 74
1, 155189, Note_off_c, 0, 56, 37
1, 155230, Control_c, 0, 64, 98
1, 155244, Control_c, 0, 64, 75
1, 155259, Control_c, 0, 64, 70
1, 155261, Note_on_c, 0, 37, 100
1, 155274, Control_c, 0, 64, 80
1, 155296, Control_c, 0, 64, 110
1, 155299, Note_on_c, 0, 36, 53
1, 155300, Note_on_c, 0, 39, 49
1, 155311, Control_c, 0, 64, 127
1, 155316, Note_off_c, 0, 80, 61
1, 155319, Note_off_c, 0, 92, 63
1, 155323, Note_off_c, 0, 36, 60
1, 155332, Note_on_c, 0, 49, 101
1, 155350, Note_on_c, 0, 42, 46
1, 155350, Note_off_c, 0, 37, 64
1, 155365, Note_on_c, 0, 50, 63
1, 155371, Note_off_c, 0, 39, 62
1, 155377, Note_off_c, 0, 49, 63
1, 155381, Note_off_c, 0, 42, 54
1, 155385, Note_on_c, 0, 79, 104
1, 155388, Note_on_c, 0, 91, 107
1, 155394, Note_off_c, 0, 50, 63
1, 155397, Poly_aftertouch_c, 0, 41, 127
1, 155437, Poly_aftertouch_c, 0, 41, 0
1, 155439, Note_off_c, 0, 91, 61
1, 155443, Note_off_c, 0, 79, 53
1, 155472, Note_on_c, 0, 52, 72
1, 155481, Note_on_c, 0, 53, 70
1, 155482, Poly_aftertouch_c, 0, 89, 127
1, 155531, Note_on_c, 0, 58, 89
1, 155544, Note_off_c, 0, 52, 65
1, 155545, Poly_aftertouch_c, 0, 89, 0
1, 155547, Note_off_c, 0, 53, 60
1, 155600, Note_on_c, 0, 55, 73
1, 155619, Note_on_c, 0, 77, 101
1, 155623, Note_on_c, 0, 89, 103
1, 155624, Note_off_c, 0, 58, 65
1, 155687, Note_on_c, 0, 65, 96
1, 155702, Note_off_c, 0, 65, 77
1, 155725, Note_off_c, 0, 55, 62
1, 155753, Note_on_c, 0, 64, 3
1, 155786, Control_c, 0, 64, 96
1, 155788, Note_off_c, 0, 64, 40
1, 155800, Control_c, 0, 64, 69
1, 155805, Note_on_c, 0, 34, 99
1, 155815, Control_c, 0, 64, 60
1, 155818, Note_on_c, 0, 32, 71
1, 155830, Note_off_c, 0, 89, 57
1, 155830, Control_c, 0, 64, 67
1, 155835, Note_off_c, 0, 77, 51
1, 155840, Note_on_c, 0, 37, 44
1, 155843, Note_off_c, 0, 32, 59
1, 155845, Control_c, 0, 64, 84
1, 155860, Control_c, 0, 64, 127
1, 155871, Note_off_c, 0, 37, 57
1, 155889, Poly_aftertouch_c, 0, 33, 127
1, 155907, Note_on_c, 0, 38, 33
1, 155907, Note_on_c, 0, 46, 101
1, 155922, Poly_aftertouch_c, 0, 36, 0
1, 155934, Poly_aftertouch_c, 0, 33, 0
1, 155942, Note_off_c, 0, 34, 59
1, 155946, Note_off_c, 0, 38, 48
1, 155970, Note_off_c, 0, 46, 61
1, 155979, Note_on_c, 0, 75, 112
1, 155983, Note_on_c, 0, 87, 101
1, 156010, Note_on_c, 0, 85, 52
1, 156011, Note_off_c, 0, 85, 127
1, 156032, Note_off_c, 0, 87, 66
1, 156057, Note_off_c, 0, 75, 49
1, 156105, Note_on_c, 0, 53, 79
1, 156108, Note_on_c, 0, 55, 73
1, 156208, Note_on_c, 0, 61, 91
1, 156242, Note_off_c, 0, 55, 59
1, 156244, Note_off_c, 0, 53, 61
1, 156289, Note_on_c, 0, 55, 67
1, 156313, Note_off_c, 0, 61, 62
1, 156355, Note_on_c, 0, 73, 105
1, 156361, Note_on_c, 0, 85, 95
1, 156428, Note_on_c, 0, 65, 95
1, 156447, Note_off_c, 0, 65, 72
1, 156464, Note_off_c, 0, 55, 62
1, 156695, Note_on_c, 0, 36, 102
1, 156742, Control_c, 0, 64, 106
1, 156757, Control_c, 0, 64, 77
1, 156772, Control_c, 0, 64, 54
1, 156787, Control_c, 0, 64, 0
1, 156824, Control_c, 0, 64, 43
1, 156839, Control_c, 0, 64, 66
1, 156854, Control_c, 0, 64, 74
1, 156868, Control_c, 0, 64, 85
1, 156883, Control_c, 0, 64, 108
1, 156898, Control_c, 0, 64, 127
1, 156930, Note_off_c, 0, 85, 56
1, 156942, Note_off_c, 0, 73, 57
1, 156954, Note_on_c, 0, 48, 86
1, 156966, Note_off_c, 0, 36, 60
1, 156993, Note_off_c, 0, 48, 63
1, 157165, Note_on_c, 0, 53, 81
1, 157186, Note_on_c, 0, 85, 88
1, 157187, Note_on_c, 0, 73, 104
1, 157203, Note_on_c, 0, 55, 34
1, 157237, Note_off_c, 0, 55, 33
1, 157311, Note_on_c, 0, 60, 96
1, 157356, Note_off_c, 0, 85, 60
1, 157366, Note_off_c, 0, 73, 59
1, 157410, Note_on_c, 0, 72, 96
1, 157411, Note_on_c, 0, 84, 96
1, 157421, Note_on_c, 0, 56, 76
1, 157437, Note_off_c, 0, 60, 53
1, 157442, Note_off_c, 0, 72, 68
1, 157460, Note_off_c, 0, 84, 62
1, 157462, Note_off_c, 0, 53, 59
1, 157512, Note_on_c, 0, 65, 93
1, 157524, Poly_aftertouch_c, 0, 57, 127
1, 157551, Note_on_c, 0, 61, 47
1, 157558, Note_off_c, 0, 56, 63
1, 157560, Poly_aftertouch_c, 0, 57, 0
1, 157574, Note_off_c, 0, 65, 63
1, 157577, Note_off_c, 0, 61, 53
1, 157627, Note_on_c, 0, 53, 86
1, 157688, Note_on_c, 0, 56, 23
1, 157692, Control_c, 0, 64, 105
1, 157699, Note_on_c, 0, 73, 102
1, 157705, Note_on_c, 0, 85, 101
1, 157706, Control_c, 0, 64, 82
1, 157717, Note_off_c, 0, 56, 53
1, 157721, Control_c, 0, 64, 67
1, 157736, Control_c, 0, 64, 61
1, 157745, Note_on_c, 0, 82, 24
1, 157746, Note_off_c, 0, 82, 127
1, 157751, Control_c, 0, 64, 65
1, 157766, Control_c, 0, 64, 76
1, 157780, Control_c, 0, 64, 97
1, 157781, Note_off_c, 0, 73, 61
1, 157782, Note_off_c, 0, 85, 62
1, 157795, Control_c, 0, 64, 127
1, 157805, Note_on_c, 0, 59, 84
1, 157822, Note_off_c, 0, 53, 63
1, 157889, Note_on_c, 0, 56, 77
1, 157890, Note_on_c, 0, 71, 95
1, 157895, Note_on_c, 0, 83, 95
1, 157899, Note_off_c, 0, 59, 57
1, 157931, Note_off_c, 0, 71, 59
1, 157940, Note_off_c, 0, 83, 61
1, 157958, Note_on_c, 0, 61, 89
1, 157973, Note_off_c, 0, 56, 61
1, 158021, Note_off_c, 0, 61, 63
1, 158026, Note_on_c, 0, 59, 64
1, 158060, Note_on_c, 0, 85, 94
1, 158065, Note_on_c, 0, 73, 93
1, 158096, Note_off_c, 0, 73, 59
1, 158102, Note_off_c, 0, 85, 61
1, 158107, Note_on_c, 0, 65, 91
1, 158151, Note_off_c, 0, 65, 67
1, 158160, Note_off_c, 0, 59, 60
1, 158187, Note_on_c, 0, 70, 97
1, 158191, Note_on_c, 0, 82, 93
1, 158197, Note_on_c, 0, 53, 74
1, 158220, Note_on_c, 0, 80, 46
1, 158222, Note_off_c, 0, 70, 66
1, 158228, Note_off_c, 0, 82, 64
1, 158238, Control_c, 0, 64, 109
1, 158244, Note_off_c, 0, 80, 60
1, 158253, Control_c, 0, 64, 78
1, 158262, Note_on_c, 0, 58, 84
1, 158268, Control_c, 0, 64, 71
1, 158272, Note_off_c, 0, 53, 64
1, 158291, Control_c, 0, 64, 76
1, 158305, Note_on_c, 0, 85, 101
1, 158306, Control_c, 0, 64, 88
1, 158310, Note_on_c, 0, 73, 88
1, 158320, Control_c, 0, 64, 110
1, 158335, Control_c, 0, 64, 127
1, 158343, Note_off_c, 0, 85, 64
1, 158343, Note_off_c, 0, 73, 62
1, 158352, Note_on_c, 0, 55, 57
1, 158352, Note_off_c, 0, 58, 63
1, 158375, Note_on_c, 0, 61, 87
1, 158397, Note_on_c, 0, 69, 93
1, 158398, Note_on_c, 0, 81, 98
1, 158418, Note_off_c, 0, 69, 66
1, 158432, Note_on_c, 0, 58, 70
1, 158432, Note_off_c, 0, 55, 62
1, 158434, Note_off_c, 0, 81, 60
1, 158439, Note_off_c, 0, 61, 63
1, 158484, Note_off_c, 0, 58, 66
1, 158493, Note_on_c, 0, 85, 97
1, 158495, Note_on_c, 0, 73, 94
1, 158498, Note_on_c, 0, 65, 88
1, 158513, Note_off_c, 0, 73, 71
1, 158513, Note_off_c, 0, 85, 62
1, 158521, Note_off_c, 0, 65, 68
1, 158572, Note_on_c, 0, 68, 97
1, 158576, Note_on_c, 0, 80, 97
1, 158598, Note_off_c, 0, 68, 62
1, 158599, Note_off_c, 0, 80, 64
1, 158664, Note_on_c, 0, 85, 99
1, 158665, Note_on_c, 0, 73, 95
1, 158690, Note_off_c, 0, 73, 68
1, 158690, Note_off_c, 0, 85, 70
1, 158747, Note_on_c, 0, 67, 90
1, 158751, Note_on_c, 0, 79, 90
1, 158767, Note_off_c, 0, 67, 72
1, 158787, Note_off_c, 0, 79, 62
1, 158828, Note_on_c, 0, 73, 89
1, 158831, Note_on_c, 0, 85, 96
1, 158845, Note_off_c, 0, 73, 76
1, 158852, Note_off_c, 0, 85, 67
1, 158912, Note_on_c, 0, 64, 91
1, 158912, Note_on_c, 0, 65, 90
1, 158915, Note_on_c, 0, 77, 84
1, 158931, Note_off_c, 0, 64, 74
1, 158933, Note_off_c, 0, 65, 71
1, 158947, Note_off_c, 0, 77, 64
1, 158952, Note_on_c, 0, 76, 21
1, 158988, Control_c, 0, 64, 103
1, 158989, Note_off_c, 0, 76, 56
1, 159001, Note_on_c, 0, 73, 93
1, 159003, Control_c, 0, 64, 66
1, 159007, Note_on_c, 0, 85, 100
1, 159017, Control_c, 0, 64, 21
1, 159028, Note_on_c, 0, 75, 51
1, 159040, Control_c, 0, 64, 58
1, 159055, Control_c, 0, 64, 71
1, 159056, Note_off_c, 0, 75, 58
1, 159064, Note_on_c, 0, 36, 70
1, 159064, Note_off_c, 0, 85, 67
1, 159067, Note_off_c, 0, 73, 64
1, 159069, Control_c, 0, 64, 85
1, 159084, Control_c, 0, 64, 127
1, 159105, Note_on_c, 0, 46, 78
1, 159122, Note_off_c, 0, 36, 59
1, 159165, Note_off_c, 0, 46, 60
1, 159174, Note_on_c, 0, 52, 77
1, 159204, Note_off_c, 0, 52, 67
1, 159207, Note_on_c, 0, 64, 93
1, 159214, Note_on_c, 0, 76, 91
1, 159241, Note_off_c, 0, 64, 65
1, 159243, Note_on_c, 0, 74, 50
1, 159244, Note_off_c, 0, 74, 127
1, 159252, Note_on_c, 0, 55, 81
1, 159255, Note_off_c, 0, 76, 62
1, 159317, Note_on_c, 0, 58, 86
1, 159321, Note_off_c, 0, 55, 60
1, 159390, Note_off_c, 0, 58, 63
1, 159401, Note_on_c, 0, 73, 104
1, 159411, Note_on_c, 0, 85, 100
1, 159413, Note_on_c, 0, 64, 91
1, 159422, Note_on_c, 0, 82, 69
1, 159438, Note_off_c, 0, 82, 69
1, 159485, Note_on_c, 0, 58, 68
1, 159488, Note_off_c, 0, 64, 63
1, 159517, Note_on_c, 0, 54, 42
1, 159518, Note_on_c, 0, 55, 66
1, 159523, Note_off_c, 0, 58, 64
1, 159544, Note_off_c, 0, 54, 63
1, 159544, Note_off_c, 0, 55, 65
1, 159609, Note_on_c, 0, 52, 85
1, 159673, Note_on_c, 0, 46, 78
1, 159673, Note_off_c, 0, 52, 57
1, 159747, Note_off_c, 0, 46, 61
1, 159755, Note_on_c, 0, 36, 92
1, 159767, Control_c, 0, 64, 88
1, 159789, Control_c, 0, 64, 66
1, 159804, Control_c, 0, 64, 64
1, 159819, Control_c, 0, 64, 73
1, 159834, Note_on_c, 0, 43, 80
1, 159834, Control_c, 0, 64, 91
1, 159848, Control_c, 0, 64, 127
1, 159856, Note_off_c, 0, 36, 61
1, 159889, Note_on_c, 0, 46, 79
1, 159931, Note_off_c, 0, 43, 59
1, 159963, Note_on_c, 0, 52, 87
1, 159974, Note_off_c, 0, 46, 60
1, 160003, Note_off_c, 0, 52, 68
1, 160060, Note_on_c, 0, 55, 75
1, 160082, Poly_aftertouch_c, 0, 53, 0
1, 160110, Note_on_c, 0, 58, 89
1, 160137, Note_off_c, 0, 55, 60
1, 160150, Note_off_c, 0, 73, 59
1, 160191, Note_off_c, 0, 58, 63
1, 160203, Note_on_c, 0, 64, 82
1, 160253, Note_off_c, 0, 64, 65
1, 160336, Note_on_c, 0, 73, 104
1, 160369, Note_off_c, 0, 73, 69
1, 160608, Note_off_c, 0, 85, 57
1, 160776, Control_c, 0, 64, 103
1, 160790, Control_c, 0, 64, 79
1, 160805, Control_c, 0, 64, 60
1, 160820, Control_c, 0, 64, 0
1, 160938, Note_on_c, 0, 48, 71
1, 160976, Note_on_c, 0, 55, 73
1, 161013, Control_c, 0, 64, 60
1, 161016, Note_off_c, 0, 48, 64
1, 161018, Note_on_c, 0, 58, 84
1, 161028, Control_c, 0, 64, 89
1, 161031, Note_on_c, 0, 70, 111
1, 161034, Note_on_c, 0, 84, 92
1, 161038, Note_on_c, 0, 76, 91
1, 161042, Control_c, 0, 64, 127
1, 161047, Note_on_c, 0, 64, 92
1, 161055, Note_on_c, 0, 83, 60
1, 161057, Note_off_c, 0, 76, 72
1, 161065, Note_off_c, 0, 55, 61
1, 161067, Note_off_c, 0, 64, 72
1, 161071, Note_off_c, 0, 58, 67
1, 161071, Note_off_c, 0, 84, 66
1, 161076, Note_on_c, 0, 82, 28
1, 161076, Note_off_c, 0, 70, 66
1, 161076, Note_off_c, 0, 83, 43
1, 161109, Note_off_c, 0, 82, 46
1, 161235, Control_c, 0, 64, 93
1, 161250, Control_c, 0, 64, 67
1, 161264, Control_c, 0, 64, 24
1, 161270, Note_on_c, 0, 65, 115
1, 161277, Note_on_c, 0, 77, 97
1, 161278, Note_on_c, 0, 53, 73
1, 161279, Control_c, 0, 64, 37
1, 161292, Note_on_c, 0, 72, 88
1, 161295, Note_on_c, 0, 60, 60
1, 161296, Note_on_c, 0, 56, 69
1, 161302, Control_c, 0, 64, 68
1, 161316, Note_off_c, 0, 53, 67
1, 161317, Control_c, 0, 64, 102
1, 161319, Note_off_c, 0, 65, 71
1, 161321, Note_off_c, 0, 56, 66
1, 161321, Note_off_c, 0, 60, 65
1, 161322, Note_off_c, 0, 72, 57
1, 161332, Control_c, 0, 64, 127
1, 161369, Note_off_c, 0, 77, 58
1, 161464, Control_c, 0, 64, 98
1, 161479, Control_c, 0, 64, 70
1, 161494, Control_c, 0, 64, 38
1, 161503, Note_on_c, 0, 68, 89
1, 161509, Control_c, 0, 64, 33
1, 161511, Note_on_c, 0, 76, 74
1, 161513, Note_on_c, 0, 77, 82
1, 161524, Control_c, 0, 64, 62
1, 161532, Note_off_c, 0, 76, 64
1, 161537, Note_off_c, 0, 77, 61
1, 161538, Control_c, 0, 64, 76
1, 161553, Control_c, 0, 64, 100
1, 161556, Note_off_c, 0, 68, 60
1, 161568, Control_c, 0, 64, 127
1, 161570, Note_on_c, 0, 74, 78
1, 161575, Note_on_c, 0, 71, 77
1, 161575, Note_on_c, 0, 79, 77
1, 161595, Note_off_c, 0, 74, 64
1, 161598, Note_off_c, 0, 71, 65
1, 161601, Note_off_c, 0, 79, 65
1, 161638, Note_on_c, 0, 77, 84
1, 161653, Note_on_c, 0, 68, 75
1, 161683, Note_off_c, 0, 77, 59
1, 161685, Note_off_c, 0, 68, 64
1, 161696, Note_on_c, 0, 74, 80
1, 161696, Note_on_c, 0, 76, 93
1, 161705, Note_on_c, 0, 71, 76
1, 161725, Note_off_c, 0, 71, 69
1, 161731, Note_off_c, 0, 74, 57
1, 161742, Note_off_c, 0, 76, 62
1, 161762, Note_on_c, 0, 77, 83
1, 161762, Note_on_c, 0, 68, 79
1, 161800, Note_off_c, 0, 77, 59
1, 161806, Note_off_c, 0, 68, 59
1, 161815, Note_on_c, 0, 76, 85
1, 161818, Note_on_c, 0, 71, 82
1, 161820, Note_on_c, 0, 74, 77
1, 161842, Note_off_c, 0, 74, 69
1, 161866, Note_off_c, 0, 71, 56
1, 161866, Note_off_c, 0, 76, 64
1, 161873, Note_on_c, 0, 77, 87
1, 161878, Note_on_c, 0, 68, 81
1, 161918, Note_off_c, 0, 77, 59
1, 161919, Note_off_c, 0, 68, 61
1, 161953, Note_on_c, 0, 79, 86
1, 161954, Note_on_c, 0, 71, 87
1, 161964, Note_on_c, 0, 74, 66
1, 161984, Note_off_c, 0, 79, 62
1, 161989, Note_off_c, 0, 71, 54
1, 161995, Note_on_c, 0, 68, 90
1, 161995, Note_off_c, 0, 74, 62
1, 162004, Note_on_c, 0, 77, 74
1, 162016, Note_on_c, 0, 76, 56
1, 162034, Note_off_c, 0, 77, 68
1, 162045, Note_off_c, 0, 76, 60
1, 162052, Note_off_c, 0, 68, 66
1, 162056, Note_on_c, 0, 71, 95
1, 162060, Note_on_c, 0, 80, 97
1, 162099, Note_off_c, 0, 71, 64
1, 162101, Note_on_c, 0, 74, 16
1, 162102, Note_off_c, 0, 74, 127
1, 162104, Note_off_c, 0, 80, 64
1, 162108, Note_on_c, 0, 78, 12
1, 162109, Note_off_c, 0, 78, 127
1, 162258, Control_c, 0, 64, 86
1, 162273, Control_c, 0, 64, 59
1, 162275, Note_on_c, 0, 56, 81
1, 162280, Note_on_c, 0, 55, 90
1, 162281, Note_on_c, 0, 51, 79
1, 162285, Note_on_c, 0, 53, 94
1, 162287, Control_c, 0, 64, 54
1, 162292, Note_on_c, 0, 43, 74
1, 162292, Note_on_c, 0, 48, 58
1, 162302, Control_c, 0, 64, 67
1, 162317, Control_c, 0, 64, 81
1, 162319, Note_on_c, 0, 41, 38
1, 162320, Note_off_c, 0, 41, 127
1, 162332, Control_c, 0, 64, 116
1, 162343, Note_off_c, 0, 56, 61
1, 162347, Control_c, 0, 64, 127
1, 162352, Note_on_c, 0, 58, 29
1, 162363, Note_on_c, 0, 59, 62
1, 162383, Note_off_c, 0, 48, 56
1, 162391, Note_off_c, 0, 58, 51
1, 162392, Note_off_c, 0, 51, 59
1, 162394, Note_off_c, 0, 55, 60
1, 162400, Note_on_c, 0, 56, 76
1, 162403, Note_off_c, 0, 59, 64
1, 162409, Note_off_c, 0, 53, 59
1, 162413, Poly_aftertouch_c, 0, 57, 0
1, 162416, Note_off_c, 0, 43, 59
1, 162448, Note_off_c, 0, 56, 63
1, 162482, Note_on_c, 0, 68, 92
1, 162483, Note_on_c, 0, 53, 100
1, 162490, Note_on_c, 0, 50, 83
1, 162492, Note_on_c, 0, 41, 88
1, 162498, Note_on_c, 0, 47, 75
1, 162551, Note_on_c, 0, 70, 81
1, 162554, Note_on_c, 0, 69, 33
1, 162562, Note_off_c, 0, 68, 64
1, 162582, Note_off_c, 0, 69, 62
1, 162589, Note_off_c, 0, 70, 65
1, 162597, Note_off_c, 0, 41, 60
1, 162617, Note_off_c, 0, 53, 60
1, 162630, Note_off_c, 0, 50, 53
1, 162632, Note_on_c, 0, 68, 84
1, 162657, Note_off_c, 0, 47, 37
1, 162680, Note_off_c, 0, 68, 60
1, 162698, Note_on_c, 0, 80, 97
1, 162707, Note_on_c, 0, 53, 97
1, 162710, Note_on_c, 0, 50, 83
1, 162713, Note_on_c, 0, 47, 75
1, 162713, Note_on_c, 0, 41, 84
1, 162744, Note_off_c, 0, 47, 62
1, 162753, Note_off_c, 0, 50, 53
1, 162759, Poly_aftertouch_c, 0, 70, 127
1, 162768, Note_on_c, 0, 82, 90
1, 162792, Note_off_c, 0, 80, 63
1, 162799, Poly_aftertouch_c, 0, 70, 0
1, 162805, Note_off_c, 0, 53, 53
1, 162805, Note_off_c, 0, 41, 59
1, 162808, Note_off_c, 0, 82, 65
1, 162862, Note_on_c, 0, 80, 93
1, 162933, Control_c, 0, 64, 88
1, 162948, Control_c, 0, 64, 63
1, 162963, Control_c, 0, 64, 47
1, 162963, Note_on_c, 0, 53, 107
1, 162964, Note_on_c, 0, 92, 106
1, 162972, Note_on_c, 0, 41, 80
1, 162975, Note_on_c, 0, 48, 73
1, 162978, Control_c, 0, 64, 64
1, 162981, Note_on_c, 0, 90, 78
1, 162987, Note_off_c, 0, 80, 64
1, 162992, Control_c, 0, 64, 82
1, 162994, Note_off_c, 0, 90, 65
1, 162998, Note_off_c, 0, 41, 68
1, 163001, Note_off_c, 0, 48, 67
1, 163001, Note_off_c, 0, 53, 67
1, 163007, Control_c, 0, 64, 127
1, 163009, Note_off_c, 0, 92, 69
1, 163020, Note_on_c, 0, 81, 11
1, 163023, Note_on_c, 0, 93, 6
1, 163064, Note_off_c, 0, 81, 46
1, 163076, Note_off_c, 0, 93, 38
1, 163231, Note_on_c, 0, 77, 89
1, 163235, Note_on_c, 0, 68, 83
1, 163244, Control_c, 0, 64, 113
1, 163259, Control_c, 0, 64, 83
1, 163274, Control_c, 0, 64, 62
1, 163288, Note_off_c, 0, 77, 58
1, 163289, Control_c, 0, 64, 38
1, 163301, Note_off_c, 0, 68, 62
1, 163303, Control_c, 0, 64, 53
1, 163318, Note_on_c, 0, 74, 88
1, 163318, Control_c, 0, 64, 70
1, 163330, Note_on_c, 0, 71, 79
1, 163331, Note_on_c, 0, 79, 71
1, 163333, Control_c, 0, 64, 88
1, 163345, Note_on_c, 0, 77, 57
1, 163348, Control_c, 0, 64, 127
1, 163350, Note_off_c, 0, 79, 62
1, 163351, Note_off_c, 0, 71, 68
1, 163362, Note_off_c, 0, 74, 65
1, 163362, Note_off_c, 0, 77, 65
1, 163382, Note_on_c, 0, 77, 78
1, 163389, Note_on_c, 0, 68, 79
1, 163429, Note_off_c, 0, 77, 61
1, 163437, Note_off_c, 0, 68, 58
1, 163447, Note_on_c, 0, 76, 95
1, 163452, Note_on_c, 0, 74, 82
1, 163455, Note_on_c, 0, 71, 70
1, 163478, Note_off_c, 0, 71, 67
1, 163494, Note_off_c, 0, 74, 63
1, 163494, Note_off_c, 0, 76, 65
1, 163503, Note_on_c, 0, 77, 87
1, 163511, Note_on_c, 0, 68, 80
1, 163553, Note_off_c, 0, 77, 59
1, 163556, Note_off_c, 0, 68, 58
1, 163562, Poly_aftertouch_c, 0, 72, 0
1, 163574, Note_on_c, 0, 71, 95
1, 163575, Note_on_c, 0, 76, 93
1, 163576, Note_on_c, 0, 74, 86
1, 163617, Note_off_c, 0, 71, 60
1, 163620, Note_off_c, 0, 74, 64
1, 163628, Note_off_c, 0, 76, 64
1, 163628, Note_on_c, 0, 77, 88
1, 163634, Note_on_c, 0, 68, 87
1, 163675, Note_off_c, 0, 77, 60
1, 163676, Note_off_c, 0, 68, 62
1, 163702, Note_on_c, 0, 71, 87
1, 163702, Note_on_c, 0, 79, 88
1, 163719, Note_on_c, 0, 74, 66
1, 163740, Note_on_c, 0, 77, 90
1, 163743, Note_on_c, 0, 68, 91
1, 163745, Note_off_c, 0, 71, 63
1, 163745, Note_off_c, 0, 74, 65
1, 163745, Note_off_c, 0, 79, 64
1, 163783, Note_off_c, 0, 77, 63
1, 163795, Note_off_c, 0, 68, 67
1, 163798, Poly_aftertouch_c, 0, 72, 0
1, 163806, Note_on_c, 0, 71, 96
1, 163807, Note_on_c, 0, 80, 102
1, 163846, Note_off_c, 0, 71, 64
1, 163850, Note_off_c, 0, 80, 66
1, 164024, Control_c, 0, 64, 81
1, 164025, Note_on_c, 0, 56, 85
1, 164027, Note_on_c, 0, 53, 98
1, 164039, Control_c, 0, 64, 62
1, 164042, Note_on_c, 0, 41, 82
1, 164046, Note_on_c, 0, 50, 64
1, 164049, Note_on_c, 0, 48, 46
1, 164054, Control_c, 0, 64, 58
1, 164068, Control_c, 0, 64, 67
1, 164069, Note_on_c, 0, 47, 46
1, 164083, Control_c, 0, 64, 87
1, 164084, Note_on_c, 0, 43, 31
1, 164085, Note_off_c, 0, 43, 127
1, 164087, Note_on_c, 0, 58, 83
1, 164090, Note_off_c, 0, 48, 44
1, 164098, Control_c, 0, 64, 127
1, 164108, Note_off_c, 0, 56, 60
1, 164116, Note_off_c, 0, 47, 46
1, 164147, Note_on_c, 0, 56, 72
1, 164149, Note_off_c, 0, 58, 0
1, 164149, Note_off_c, 0, 41, 63
1, 164161, Note_off_c, 0, 53, 56
1, 164177, Note_off_c, 0, 50, 56
1, 164185, Poly_aftertouch_c, 0, 58, 127
1, 164196, Note_off_c, 0, 56, 64
1, 164225, Poly_aftertouch_c, 0, 58, 0
1, 164233, Note_on_c, 0, 68, 86
1, 164242, Note_on_c, 0, 53, 99
1, 164246, Note_on_c, 0, 50, 77
1, 164248, Note_on_c, 0, 41, 81
1, 164252, Note_on_c, 0, 47, 74
1, 164284, Note_on_c, 0, 69, 34
1, 164310, Note_on_c, 0, 70, 84
1, 164318, Note_off_c, 0, 68, 62
1, 164337, Note_off_c, 0, 41, 60
1, 164344, Note_off_c, 0, 53, 53
1, 164348, Note_off_c, 0, 70, 67
1, 164349, Note_off_c, 0, 69, 40
1, 164351, Note_off_c, 0, 47, 57
1, 164375, Note_off_c, 0, 50, 56
1, 164398, Note_on_c, 0, 68, 86
1, 164440, Note_off_c, 0, 68, 61
1, 164462, Note_on_c, 0, 80, 96
1, 164468, Note_on_c, 0, 53, 97
1, 164471, Note_on_c, 0, 47, 78
1, 164472, Note_on_c, 0, 41, 82
1, 164481, Note_on_c, 0, 50, 72
1, 164506, Note_off_c, 0, 50, 65
1, 164512, Poly_aftertouch_c, 0, 70, 0
1, 164525, Note_off_c, 0, 47, 61
1, 164538, Note_on_c, 0, 82, 80
1, 164548, Note_off_c, 0, 80, 62
1, 164558, Note_off_c, 0, 82, 69
1, 164566, Note_off_c, 0, 53, 58
1, 164567, Note_off_c, 0, 41, 58
1, 164608, Note_on_c, 0, 80, 83
1, 164683, Note_off_c, 0, 80, 55
1, 164698, Control_c, 0, 64, 89
1, 164709, Note_on_c, 0, 53, 111
1, 164710, Note_on_c, 0, 92, 85
1, 164713, Note_on_c, 0, 41, 88
1, 164713, Control_c, 0, 64, 65
1, 164717, Note_on_c, 0, 90, 70
1, 164718, Note_on_c, 0, 48, 85
1, 164728, Control_c, 0, 64, 51
1, 164740, Note_off_c, 0, 90, 51
1, 164743, Control_c, 0, 64, 62
1, 164757, Control_c, 0, 64, 71
1, 164772, Control_c, 0, 64, 84
1, 164781, Note_on_c, 0, 94, 83
1, 164784, Note_off_c, 0, 92, 66
1, 164787, Control_c, 0, 64, 106
1, 164802, Control_c, 0, 64, 127
1, 164847, Note_off_c, 0, 53, 55
1, 164865, Note_off_c, 0, 41, 59
1, 164868, Note_on_c, 0, 92, 77
1, 164889, Note_off_c, 0, 48, 51
1, 164900, Note_off_c, 0, 94, 65
1, 164923, Note_off_c, 0, 92, 63
1, 164924, Note_on_c, 0, 80, 86
1, 164998, Note_on_c, 0, 82, 79
1, 164998, Note_off_c, 0, 80, 64
1, 165014, Note_on_c, 0, 39, 81
1, 165073, Note_on_c, 0, 80, 76
1, 165080, Note_off_c, 0, 82, 63
1, 165082, Note_on_c, 0, 49, 71
1, 165096, Note_on_c, 0, 79, 63
1, 165105, Control_c, 0, 64, 88
1, 165107, Note_off_c, 0, 80, 56
1, 165114, Note_off_c, 0, 79, 63
1, 165115, Note_off_c, 0, 39, 65
1, 165118, Poly_aftertouch_c, 0, 45, 127
1, 165120, Control_c, 0, 64, 67
1, 165126, Note_on_c, 0, 50, 94
1, 165135, Control_c, 0, 64, 59
1, 165144, Note_on_c, 0, 53, 93
1, 165150, Control_c, 0, 64, 67
1, 165157, Poly_aftertouch_c, 0, 45, 0
1, 165160, Note_on_c, 0, 94, 97
1, 165160, Note_off_c, 0, 49, 62
1, 165166, Control_c, 0, 64, 84
1, 165174, Note_off_c, 0, 50, 61
1, 165180, Control_c, 0, 64, 127
1, 165186, Note_off_c, 0, 53, 66
1, 165237, Note_on_c, 0, 96, 81
1, 165243, Note_off_c, 0, 94, 66
1, 165308, Note_on_c, 0, 94, 85
1, 165330, Note_off_c, 0, 96, 62
1, 165363, Note_on_c, 0, 82, 90
1, 165377, Note_off_c, 0, 94, 66
1, 165427, Note_on_c, 0, 84, 81
1, 165428, Note_off_c, 0, 82, 64
1, 165445, Note_on_c, 0, 85, 32
1, 165476, Note_off_c, 0, 85, 54
1, 165503, Note_on_c, 0, 82, 91
1, 165506, Note_off_c, 0, 84, 64
1, 165536, Control_c, 0, 64, 89
1, 165550, Control_c, 0, 64, 66
1, 165551, Note_off_c, 0, 82, 63
1, 165556, Note_on_c, 0, 56, 110
1, 165561, Note_on_c, 0, 44, 74
1, 165565, Control_c, 0, 64, 59
1, 165569, Note_on_c, 0, 51, 77
1, 165572, Note_on_c, 0, 48, 68
1, 165580, Control_c, 0, 64, 67
1, 165581, Note_on_c, 0, 97, 90
1, 165595, Control_c, 0, 64, 83
1, 165604, Note_off_c, 0, 48, 64
1, 165610, Control_c, 0, 64, 127
1, 165616, Note_off_c, 0, 44, 62
1, 165621, Note_off_c, 0, 51, 50
1, 165628, Note_off_c, 0, 97, 67
1, 165655, Note_off_c, 0, 56, 54
1, 165658, Note_on_c, 0, 96, 76
1, 165730, Note_on_c, 0, 84, 86
1, 165735, Note_off_c, 0, 96, 62
1, 165758, Control_c, 0, 64, 98
1, 165780, Control_c, 0, 64, 71
1, 165787, Note_off_c, 0, 84, 64
1, 165795, Control_c, 0, 64, 58
1, 165798, Note_on_c, 0, 58, 105
1, 165802, Note_on_c, 0, 96, 92
1, 165805, Note_on_c, 0, 51, 71
1, 165807, Note_on_c, 0, 46, 82
1, 165807, Note_on_c, 0, 54, 79
1, 165810, Control_c, 0, 64, 65
1, 165825, Control_c, 0, 64, 74
1, 165839, Control_c, 0, 64, 90
1, 165854, Control_c, 0, 64, 127
1, 165865, Note_off_c, 0, 51, 58
1, 165875, Note_off_c, 0, 54, 57
1, 165878, Note_off_c, 0, 46, 59
1, 165883, Note_on_c, 0, 94, 94
1, 165902, Note_off_c, 0, 58, 64
1, 165906, Note_off_c, 0, 96, 62
1, 165946, Note_off_c, 0, 94, 66
1, 165950, Note_on_c, 0, 82, 90
1, 166003, Control_c, 0, 64, 89
1, 166009, Note_off_c, 0, 82, 62
1, 166018, Control_c, 0, 64, 65
1, 166031, Note_on_c, 0, 60, 109
1, 166033, Control_c, 0, 64, 45
1, 166033, Note_on_c, 0, 56, 88
1, 166039, Note_on_c, 0, 94, 96
1, 166041, Note_on_c, 0, 48, 83
1, 166047, Note_on_c, 0, 53, 71
1, 166048, Control_c, 0, 64, 56
1, 166062, Control_c, 0, 64, 67
1, 166077, Control_c, 0, 64, 79
1, 166092, Control_c, 0, 64, 95
1, 166107, Control_c, 0, 64, 122
1, 166117, Note_on_c, 0, 92, 92
1, 166122, Control_c, 0, 64, 127
1, 166123, Note_off_c, 0, 48, 60
1, 166141, Poly_aftertouch_c, 0, 52, 127
1, 166142, Note_off_c, 0, 56, 58
1, 166143, Note_off_c, 0, 60, 46
1, 166160, Note_off_c, 0, 94, 63
1, 166182, Poly_aftertouch_c, 0, 52, 0
1, 166195, Note_on_c, 0, 80, 95
1, 166197, Note_off_c, 0, 53, 35
1, 166211, Note_off_c, 0, 92, 64
1, 166225, Control_c, 0, 64, 90
1, 166240, Control_c, 0, 64, 68
1, 166254, Control_c, 0, 64, 61
1, 166255, Note_off_c, 0, 80, 59
1, 166263, Note_on_c, 0, 58, 89
1, 166269, Control_c, 0, 64, 71
1, 166270, Note_on_c, 0, 60, 93
1, 166272, Note_on_c, 0, 48, 80
1, 166280, Note_on_c, 0, 52, 64
1, 166280, Note_on_c, 0, 92, 91
1, 166284, Control_c, 0, 64, 90
1, 166299, Control_c, 0, 64, 127
1, 166303, Note_off_c, 0, 60, 54
1, 166308, Note_off_c, 0, 52, 65
1, 166314, Note_off_c, 0, 58, 64
1, 166323, Note_off_c, 0, 48, 62
1, 166341, Note_off_c, 0, 92, 66
1, 166361, Note_on_c, 0, 91, 84
1, 166365, Note_on_c, 0, 93, 59
1, 166400, Note_off_c, 0, 93, 59
1, 166430, Note_on_c, 0, 79, 81
1, 166451, Note_on_c, 0, 81, 54
1, 166473, Note_off_c, 0, 81, 40
1, 166473, Note_off_c, 0, 91, 58
1, 166474, Note_on_c, 0, 41, 71
1, 166492, Control_c, 0, 64, 105
1, 166501, Note_off_c, 0, 79, 62
1, 166507, Control_c, 0, 64, 79
1, 166529, Control_c, 0, 64, 56
1, 166540, Note_on_c, 0, 48, 69
1, 166544, Control_c, 0, 64, 0
1, 166559, Control_c, 0, 64, 47
1, 166564, Note_off_c, 0, 41, 65
1, 166571, Note_on_c, 0, 89, 100
1, 166573, Note_on_c, 0, 77, 98
1, 166574, Control_c, 0, 64, 71
1, 166583, Note_on_c, 0, 56, 105
1, 166588, Control_c, 0, 64, 98
1, 166600, Note_off_c, 0, 89, 65
1, 166603, Note_on_c, 0, 50, 43
1, 166603, Control_c, 0, 64, 127
1, 166612, Note_off_c, 0, 77, 65
1, 166618, Note_off_c, 0, 48, 63
1, 166623, Note_off_c, 0, 56, 63
1, 166632, Note_off_c, 0, 50, 51
1, 166856, Control_c, 0, 64, 124
1, 166871, Control_c, 0, 64, 87
1, 166886, Control_c, 0, 64, 67
1, 166901, Control_c, 0, 64, 39
1, 166904, Note_on_c, 0, 65, 88
1, 166907, Note_on_c, 0, 56, 76
1, 166916, Control_c, 0, 64, 0
1, 166945, Control_c, 0, 64, 55
1, 166960, Control_c, 0, 64, 69
1, 166961, Note_off_c, 0, 65, 60
1, 166970, Note_on_c, 0, 62, 82
1, 166975, Control_c, 0, 64, 85
1, 166978, Note_off_c, 0, 56, 59
1, 166981, Note_on_c, 0, 67, 77
1, 166984, Note_on_c, 0, 59, 70
1, 166990, Control_c, 0, 64, 127
1, 167009, Note_off_c, 0, 59, 67
1, 167026, Note_off_c, 0, 67, 57
1, 167027, Note_off_c, 0, 62, 59
1, 167035, Note_on_c, 0, 65, 79
1, 167040, Note_on_c, 0, 56, 67
1, 167083, Note_off_c, 0, 65, 64
1, 167091, Note_off_c, 0, 56, 59
1, 167100, Note_on_c, 0, 64, 88
1, 167103, Note_on_c, 0, 62, 79
1, 167106, Note_on_c, 0, 59, 75
1, 167133, Note_off_c, 0, 59, 66
1, 167151, Note_off_c, 0, 62, 61
1, 167156, Note_off_c, 0, 64, 63
1, 167160, Note_on_c, 0, 56, 77
1, 167160, Note_on_c, 0, 65, 87
1, 167202, Note_off_c, 0, 65, 63
1, 167212, Note_off_c, 0, 56, 61
1, 167232, Note_on_c, 0, 59, 89
1, 167232, Note_on_c, 0, 64, 88
1, 167235, Note_on_c, 0, 62, 81
1, 167283, Note_off_c, 0, 59, 60
1, 167283, Note_off_c, 0, 62, 52
1, 167292, Note_on_c, 0, 65, 93
1, 167297, Note_on_c, 0, 56, 85
1, 167297, Note_off_c, 0, 64, 65
1, 167338, Note_off_c, 0, 65, 62
1, 167345, Note_off_c, 0, 56, 61
1, 167373, Note_on_c, 0, 62, 82
1, 167374, Note_on_c, 0, 59, 86
1, 167377, Note_on_c, 0, 67, 79
1, 167398, Note_off_c, 0, 67, 68
1, 167399, Note_off_c, 0, 59, 66
1, 167413, Note_on_c, 0, 56, 92
1, 167417, Note_on_c, 0, 65, 86
1, 167422, Note_off_c, 0, 62, 61
1, 167437, Note_off_c, 0, 65, 71
1, 167457, Note_on_c, 0, 61, 34
1, 167470, Note_off_c, 0, 56, 64
1, 167472, Note_on_c, 0, 59, 90
1, 167476, Note_on_c, 0, 68, 99
1, 167504, Note_on_c, 0, 65, 53
1, 167505, Note_off_c, 0, 65, 127
1, 167518, Note_off_c, 0, 59, 63
1, 167540, Note_off_c, 0, 61, 41
1, 167557, Note_off_c, 0, 68, 69
1, 167662, Note_on_c, 0, 64, 31
1, 167688, Note_off_c, 0, 64, 56
1, 167699, Note_on_c, 0, 53, 95
1, 167709, Control_c, 0, 64, 101
1, 167723, Control_c, 0, 64, 68
1, 167725, Note_on_c, 0, 41, 106
1, 167735, Note_on_c, 0, 29, 86
1, 167738, Note_on_c, 0, 38, 73
1, 167738, Control_c, 0, 64, 0
1, 167742, Note_on_c, 0, 35, 66
1, 167768, Control_c, 0, 64, 36
1, 167775, Note_on_c, 0, 33, 23
1, 167780, Note_off_c, 0, 53, 63
1, 167782, Note_on_c, 0, 64, 63
1, 167783, Control_c, 0, 64, 52
1, 167798, Control_c, 0, 64, 67
1, 167813, Control_c, 0, 64, 80
1, 167827, Control_c, 0, 64, 105
1, 167837, Note_off_c, 0, 33, 42
1, 167842, Control_c, 0, 64, 127
1, 167846, Note_on_c, 0, 65, 76
1, 167870, Note_off_c, 0, 29, 58
1, 167873, Note_off_c, 0, 64, 64
1, 167885, Note_off_c, 0, 41, 59
1, 167893, Note_off_c, 0, 65, 66
1, 167896, Note_off_c, 0, 35, 58
1, 167898, Note_off_c, 0, 38, 57
1, 167944, Note_on_c, 0, 65, 96
1, 167953, Note_on_c, 0, 41, 103
1, 167959, Note_on_c, 0, 38, 71
1, 167964, Note_on_c, 0, 29, 87
1, 167970, Note_on_c, 0, 35, 65
1, 168032, Note_on_c, 0, 76, 96
1, 168054, Note_off_c, 0, 65, 62
1, 168069, Note_off_c, 0, 29, 56
1, 168116, Note_off_c, 0, 41, 55
1, 168126, Note_on_c, 0, 77, 83
1, 168129, Note_off_c, 0, 35, 39
1, 168146, Note_off_c, 0, 76, 60
1, 168169, Note_off_c, 0, 77, 64
1, 168171, Note_off_c, 0, 38, 34
1, 168218, Note_on_c, 0, 41, 100
1, 168221, Note_on_c, 0, 38, 79
1, 168224, Note_on_c, 0, 77, 96
1, 168230, Note_on_c, 0, 35, 75
1, 168230, Note_on_c, 0, 29, 78
1, 168296, Note_off_c, 0, 35, 60
1, 168307, Note_on_c, 0, 88, 91
1, 168307, Note_off_c, 0, 38, 60
1, 168323, Note_off_c, 0, 77, 48
1, 168336, Note_off_c, 0, 29, 39
1, 168342, Note_off_c, 0, 41, 48
1, 168397, Note_on_c, 0, 89, 89
1, 168402, Note_off_c, 0, 88, 64
1, 168436, Note_off_c, 0, 89, 67
1, 168517, Control_c, 0, 64, 121
1, 168531, Control_c, 0, 64, 78
1, 168546, Control_c, 0, 64, 58
1, 168553, Note_on_c, 0, 101, 105
1, 168555, Note_on_c, 0, 41, 105
1, 168556, Note_on_c, 0, 89, 104
1, 168561, Control_c, 0, 64, 62
1, 168566, Note_on_c, 0, 29, 68
1, 168567, Note_on_c, 0, 32, 73
1, 168570, Note_on_c, 0, 36, 72
1, 168576, Control_c, 0, 64, 79
1, 168585, Note_off_c, 0, 101, 67
1, 168586, Note_off_c, 0, 29, 62
1, 168588, Note_off_c, 0, 89, 64
1, 168591, Note_off_c, 0, 32, 64
1, 168591, Control_c, 0, 64, 127
1, 168595, Note_off_c, 0, 36, 65
1, 168605, Note_off_c, 0, 41, 64
1, 168925, Control_c, 0, 64, 87
1, 168929, Note_on_c, 0, 65, 90
1, 168930, Note_on_c, 0, 56, 78
1, 168939, Control_c, 0, 64, 63
1, 168954, Control_c, 0, 64, 35
1, 168969, Control_c, 0, 64, 46
1, 168983, Control_c, 0, 64, 64
1, 168998, Control_c, 0, 64, 76
1, 169002, Note_on_c, 0, 67, 78
1, 169003, Note_on_c, 0, 60, 74
1, 169008, Note_on_c, 0, 64, 57
1, 169008, Note_off_c, 0, 65, 64
1, 169011, Note_on_c, 0, 62, 64
1, 169013, Control_c, 0, 64, 96
1, 169015, Note_off_c, 0, 56, 61
1, 169028, Note_off_c, 0, 60, 67
1, 169028, Control_c, 0, 64, 127
1, 169038, Note_off_c, 0, 67, 58
1, 169041, Note_off_c, 0, 62, 58
1, 169041, Note_off_c, 0, 64, 66
1, 169041, Poly_aftertouch_c, 0, 61, 0
1, 169077, Note_on_c, 0, 65, 88
1, 169082, Note_on_c, 0, 56, 76
1, 169127, Note_off_c, 0, 65, 64
1, 169130, Note_off_c, 0, 56, 61
1, 169133, Note_on_c, 0, 64, 88
1, 169134, Note_on_c, 0, 62, 80
1, 169136, Note_on_c, 0, 59, 85
1, 169174, Note_off_c, 0, 59, 57
1, 169188, Note_off_c, 0, 62, 59
1, 169190, Note_off_c, 0, 64, 63
1, 169204, Note_on_c, 0, 65, 88
1, 169211, Note_on_c, 0, 56, 76
1, 169247, Note_off_c, 0, 56, 56
1, 169248, Note_off_c, 0, 65, 62
1, 169264, Note_on_c, 0, 62, 81
1, 169265, Note_on_c, 0, 64, 81
1, 169266, Note_on_c, 0, 59, 87
1, 169306, Note_off_c, 0, 59, 59
1, 169316, Note_off_c, 0, 62, 59
1, 169319, Note_off_c, 0, 64, 63
1, 169324, Note_on_c, 0, 65, 86
1, 169331, Note_on_c, 0, 56, 81
1, 169366, Note_off_c, 0, 56, 62
1, 169372, Note_off_c, 0, 65, 64
1, 169397, Note_on_c, 0, 59, 88
1, 169401, Note_on_c, 0, 62, 87
1, 169402, Note_on_c, 0, 67, 80
1, 169426, Note_off_c, 0, 67, 68
1, 169430, Note_off_c, 0, 59, 57
1, 169441, Note_on_c, 0, 56, 89
1, 169443, Note_on_c, 0, 65, 83
1, 169449, Note_off_c, 0, 62, 61
1, 169465, Note_off_c, 0, 65, 69
1, 169481, Note_off_c, 0, 56, 66
1, 169501, Note_on_c, 0, 59, 101
1, 169507, Note_on_c, 0, 66, 90
1, 169512, Note_on_c, 0, 67, 87
1, 169532, Poly_aftertouch_c, 0, 61, 127
1, 169561, Note_off_c, 0, 59, 63
1, 169563, Poly_aftertouch_c, 0, 61, 0
1, 169584, Note_off_c, 0, 66, 56
1, 169593, Note_off_c, 0, 67, 58
1, 169717, Control_c, 0, 64, 115
1, 169724, Note_on_c, 0, 53, 96
1, 169732, Control_c, 0, 64, 79
1, 169736, Note_on_c, 0, 41, 98
1, 169745, Note_on_c, 0, 29, 82
1, 169747, Control_c, 0, 64, 59
1, 169748, Note_on_c, 0, 38, 75
1, 169753, Note_on_c, 0, 35, 59
1, 169762, Control_c, 0, 64, 53
1, 169771, Note_on_c, 0, 31, 60
1, 169777, Control_c, 0, 64, 64
1, 169792, Control_c, 0, 64, 77
1, 169801, Note_off_c, 0, 53, 62
1, 169806, Control_c, 0, 64, 108
1, 169810, Note_off_c, 0, 31, 33
1, 169817, Note_on_c, 0, 64, 75
1, 169821, Control_c, 0, 64, 127
1, 169874, Note_on_c, 0, 65, 78
1, 169886, Note_off_c, 0, 29, 53
1, 169901, Note_off_c, 0, 35, 35
1, 169902, Note_off_c, 0, 41, 58
1, 169905, Note_off_c, 0, 64, 62
1, 169911, Note_off_c, 0, 38, 51
1, 169923, Note_off_c, 0, 65, 67
1, 169974, Note_on_c, 0, 41, 103
1, 169976, Note_on_c, 0, 65, 93
1, 169983, Note_on_c, 0, 29, 81
1, 169983, Note_on_c, 0, 38, 70
1, 169999, Note_on_c, 0, 35, 58
1, 170052, Note_off_c, 0, 65, 59
1, 170060, Note_off_c, 0, 29, 58
1, 170062, Note_on_c, 0, 76, 93
1, 170087, Note_off_c, 0, 41, 55
1, 170105, Note_off_c, 0, 38, 55
1, 170105, Note_off_c, 0, 35, 49
1, 170141, Note_on_c, 0, 77, 61
1, 170162, Note_off_c, 0, 76, 63
1, 170195, Note_off_c, 0, 77, 63
1, 170233, Note_on_c, 0, 41, 97
1, 170237, Note_on_c, 0, 38, 81
1, 170242, Note_on_c, 0, 35, 64
1, 170245, Note_on_c, 0, 29, 75
1, 170245, Note_on_c, 0, 77, 97
1, 170287, Note_on_c, 0, 32, 19
1, 170305, Note_off_c, 0, 35, 60
1, 170313, Note_off_c, 0, 38, 57
1, 170330, Note_off_c, 0, 32, 49
1, 170344, Note_on_c, 0, 88, 47
1, 170344, Note_off_c, 0, 77, 52
1, 170350, Note_off_c, 0, 41, 57
1, 170363, Note_off_c, 0, 29, 46
1, 170431, Note_on_c, 0, 89, 95
1, 170450, Note_off_c, 0, 88, 64
1, 170476, Note_off_c, 0, 89, 67
1, 170540, Control_c, 0, 64, 111
1, 170549, Note_on_c, 0, 41, 99
1, 170555, Control_c, 0, 64, 77
1, 170558, Note_on_c, 0, 36, 72
1, 170561, Note_on_c, 0, 29, 77
1, 170565, Note_on_c, 0, 32, 66
1, 170570, Control_c, 0, 64, 54
1, 170574, Note_on_c, 0, 89, 103
1, 170585, Control_c, 0, 64, 52
1, 170600, Control_c, 0, 64, 64
1, 170615, Control_c, 0, 64, 74
1, 170629, Control_c, 0, 64, 90
1, 170644, Control_c, 0, 64, 127
1, 170779, Note_on_c, 0, 101, 103
1, 170806, Note_off_c, 0, 89, 62
1, 170865, Note_off_c, 0, 29, 37
1, 170889, Note_off_c, 0, 36, 37
1, 170892, Note_off_c, 0, 32, 38
1, 170898, Note_off_c, 0, 101, 63
1, 170911, Note_on_c, 0, 88, 103
1, 170984, Note_off_c, 0, 88, 55
1, 170986, Note_off_c, 0, 41, 38
1, 171035, Note_on_c, 0, 100, 100
1, 171122, Note_on_c, 0, 87, 104
1, 171134, Note_off_c, 0, 100, 56
1, 171216, Note_on_c, 0, 99, 103
1, 171245, Note_off_c, 0, 87, 63
1, 171256, Note_on_c, 0, 43, 100
1, 171258, Note_on_c, 0, 39, 85
1, 171259, Control_c, 0, 64, 96
1, 171263, Note_on_c, 0, 31, 81
1, 171270, Note_on_c, 0, 34, 76
1, 171274, Control_c, 0, 64, 75
1, 171282, Note_off_c, 0, 99, 67
1, 171289, Control_c, 0, 64, 64
1, 171295, Note_on_c, 0, 98, 65
1, 171304, Control_c, 0, 64, 66
1, 171313, Note_on_c, 0, 86, 100
1, 171318, Control_c, 0, 64, 73
1, 171323, Note_off_c, 0, 98, 64
1, 171333, Control_c, 0, 64, 89
1, 171348, Control_c, 0, 64, 113
1, 171363, Note_off_c, 0, 86, 61
1, 171363, Control_c, 0, 64, 127
1, 171396, Note_on_c, 0, 98, 96
1, 171465, Note_on_c, 0, 85, 96
1, 171470, Note_off_c, 0, 98, 68
1, 171473, Note_off_c, 0, 31, 55
1, 171490, Note_on_c, 0, 87, 49
1, 171491, Note_off_c, 0, 87, 127
1, 171501, Note_off_c, 0, 43, 57
1, 171509, Note_off_c, 0, 34, 54
1, 171524, Note_off_c, 0, 85, 64
1, 171542, Note_off_c, 0, 39, 58
1, 171550, Note_on_c, 0, 97, 92
1, 171567, Note_on_c, 0, 98, 77
1, 171581, Note_on_c, 0, 96, 80
1, 171612, Note_off_c, 0, 97, 65
1, 171617, Note_on_c, 0, 84, 85
1, 171626, Note_off_c, 0, 98, 65
1, 171626, Note_on_c, 0, 95, 43
1, 171628, Note_on_c, 0, 86, 68
1, 171632, Note_off_c, 0, 96, 64
1, 171646, Note_off_c, 0, 86, 58
1, 171654, Note_off_c, 0, 95, 54
1, 171679, Note_off_c, 0, 84, 59
1, 171692, Note_on_c, 0, 96, 76
1, 171700, Note_on_c, 0, 98, 80
1, 171714, Note_off_c, 0, 98, 43
1, 171719, Control_c, 0, 64, 92
1, 171734, Control_c, 0, 64, 70
1, 171748, Control_c, 0, 64, 64
1, 171756, Note_on_c, 0, 44, 105
1, 171760, Note_on_c, 0, 39, 76
1, 171771, Control_c, 0, 64, 70
1, 171772, Note_on_c, 0, 84, 100
1, 171775, Note_on_c, 0, 32, 75
1, 171786, Note_off_c, 0, 96, 64
1, 171786, Control_c, 0, 64, 83
1, 171790, Note_on_c, 0, 36, 49
1, 171800, Control_c, 0, 64, 127
1, 171805, Note_off_c, 0, 39, 63
1, 171815, Note_off_c, 0, 32, 61
1, 171825, Note_off_c, 0, 36, 51
1, 171857, Note_on_c, 0, 96, 96
1, 171875, Note_off_c, 0, 84, 61
1, 171906, Note_off_c, 0, 44, 35
1, 171941, Note_off_c, 0, 96, 57
1, 171945, Note_on_c, 0, 83, 91
1, 171992, Control_c, 0, 64, 84
1, 172007, Note_off_c, 0, 83, 61
1, 172007, Control_c, 0, 64, 67
1, 172008, Note_on_c, 0, 39, 36
1, 172010, Note_on_c, 0, 46, 106
1, 172016, Note_on_c, 0, 42, 81
1, 172020, Note_on_c, 0, 34, 75
1, 172021, Note_on_c, 0, 95, 102
1, 172022, Control_c, 0, 64, 65
1, 172037, Control_c, 0, 64, 74
1, 172052, Control_c, 0, 64, 93
1, 172063, Note_on_c, 0, 47, 26
1, 172067, Control_c, 0, 64, 127
1, 172094, Note_off_c, 0, 39, 62
1, 172098, Note_off_c, 0, 34, 59
1, 172099, Note_off_c, 0, 42, 60
1, 172102, Note_on_c, 0, 82, 101
1, 172104, Note_off_c, 0, 47, 40
1, 172107, Note_off_c, 0, 95, 50
1, 172123, Note_off_c, 0, 46, 58
1, 172174, Note_off_c, 0, 82, 63
1, 172189, Note_on_c, 0, 94, 97
1, 172245, Control_c, 0, 64, 121
1, 172254, Note_on_c, 0, 48, 103
1, 172255, Note_on_c, 0, 44, 91
1, 172260, Control_c, 0, 64, 81
1, 172261, Note_off_c, 0, 94, 67
1, 172268, Note_on_c, 0, 36, 79
1, 172272, Note_on_c, 0, 41, 68
1, 172274, Control_c, 0, 64, 59
1, 172278, Note_on_c, 0, 81, 97
1, 172289, Control_c, 0, 64, 53
1, 172304, Control_c, 0, 64, 62
1, 172319, Control_c, 0, 64, 72
1, 172334, Control_c, 0, 64, 89
1, 172350, Control_c, 0, 64, 127
1, 172356, Note_off_c, 0, 81, 52
1, 172369, Note_on_c, 0, 93, 97
1, 172418, Note_off_c, 0, 36, 52
1, 172437, Note_off_c, 0, 44, 49
1, 172438, Note_off_c, 0, 41, 37
1, 172449, Note_off_c, 0, 48, 57
1, 172464, Note_on_c, 0, 80, 105
1, 172496, Note_off_c, 0, 93, 59
1, 172550, Control_c, 0, 64, 94
1, 172564, Control_c, 0, 64, 67
1, 172578, Note_on_c, 0, 46, 98
1, 172579, Control_c, 0, 64, 58
1, 172579, Note_on_c, 0, 48, 101
1, 172585, Note_on_c, 0, 36, 81
1, 172585, Note_off_c, 0, 80, 63
1, 172594, Control_c, 0, 64, 65
1, 172596, Note_on_c, 0, 92, 97
1, 172606, Note_on_c, 0, 40, 50
1, 172609, Control_c, 0, 64, 76
1, 172623, Control_c, 0, 64, 101
1, 172630, Note_off_c, 0, 36, 60
1, 172638, Control_c, 0, 64, 127
1, 172639, Note_off_c, 0, 40, 51
1, 172658, Note_off_c, 0, 46, 60
1, 172659, Note_off_c, 0, 92, 68
1, 172669, Note_off_c, 0, 48, 57
1, 172669, Poly_aftertouch_c, 0, 41, 127
1, 172683, Note_on_c, 0, 91, 63
1, 172696, Poly_aftertouch_c, 0, 41, 0
1, 172714, Note_on_c, 0, 79, 99
1, 172728, Note_on_c, 0, 89, 40
1, 172738, Note_off_c, 0, 91, 35
1, 172759, Note_off_c, 0, 89, 48
1, 172796, Note_off_c, 0, 79, 0
1, 172821, Note_on_c, 0, 91, 103
1, 172833, Poly_aftertouch_c, 0, 79, 127
1, 172838, Note_on_c, 0, 81, 54
1, 172839, Note_off_c, 0, 81, 127
1, 172851, Poly_aftertouch_c, 0, 79, 0
1, 172854, Note_off_c, 0, 91, 62
1, 172926, Note_on_c, 0, 41, 79
1, 172931, Note_on_c, 0, 44, 81
1, 173000, Note_on_c, 0, 49, 69
1, 173009, Control_c, 0, 64, 91
1, 173023, Control_c, 0, 64, 66
1, 173038, Control_c, 0, 64, 0
1, 173050, Note_on_c, 0, 48, 71
1, 173053, Control_c, 0, 64, 8
1, 173055, Note_off_c, 0, 49, 63
1, 173056, Note_on_c, 0, 65, 95
1, 173065, Note_on_c, 0, 53, 103
1, 173068, Control_c, 0, 64, 61
1, 173083, Control_c, 0, 64, 77
1, 173089, Note_on_c, 0, 55, 56
1, 173090, Note_off_c, 0, 55, 127
1, 173097, Control_c, 0, 64, 104
1, 173112, Control_c, 0, 64, 127
1, 173116, Note_off_c, 0, 41, 64
1, 173128, Note_off_c, 0, 53, 64
1, 173130, Note_off_c, 0, 48, 64
1, 173131, Note_off_c, 0, 44, 62
1, 173192, Note_on_c, 0, 68, 68
1, 173205, Note_on_c, 0, 77, 44
1, 173208, Note_off_c, 0, 65, 58
1, 173294, Note_off_c, 0, 68, 64
1, 173301, Note_on_c, 0, 72, 76
1, 173351, Note_off_c, 0, 72, 65
1, 173365, Note_off_c, 0, 77, 45
1, 173416, Note_on_c, 0, 77, 87
1, 173517, Note_on_c, 0, 80, 83
1, 173528, Note_on_c, 0, 89, 60
1, 173548, Note_off_c, 0, 77, 54
1, 173610, Note_on_c, 0, 84, 87
1, 173635, Note_off_c, 0, 80, 62
1, 173686, Note_off_c, 0, 84, 64
1, 173692, Note_off_c, 0, 89, 63
1, 173728, Note_on_c, 0, 65, 111
1, 173736, Note_on_c, 0, 53, 81
1, 173739, Note_on_c, 0, 89, 88
1, 173772, Note_off_c, 0, 65, 66
1, 173778, Note_off_c, 0, 53, 61
1, 173834, Note_on_c, 0, 92, 84
1, 173850, Note_on_c, 0, 101, 70
1, 173912, Note_on_c, 0, 96, 74
1, 173913, Note_off_c, 0, 101, 62
1, 173926, Note_off_c, 0, 89, 60
1, 173957, Note_off_c, 0, 96, 56
1, 173959, Note_off_c, 0, 92, 62
1, 174279, Note_on_c, 0, 65, 101
1, 174281, Note_on_c, 0, 53, 81
1, 174313, Note_off_c, 0, 65, 67
1, 174337, Note_off_c, 0, 53, 66
1, 174450, Note_on_c, 0, 52, 98
1, 174451, Note_on_c, 0, 64, 96
1, 174461, Note_on_c, 0, 41, 81
1, 174463, Note_on_c, 0, 49, 73
1, 174465, Note_on_c, 0, 46, 74
1, 174477, Control_c, 0, 64, 90
1, 174487, Note_on_c, 0, 65, 36
1, 174488, Note_off_c, 0, 65, 127
1, 174492, Control_c, 0, 64, 67
1, 174507, Control_c, 0, 64, 43
1, 174522, Control_c, 0, 64, 41
1, 174532, Note_on_c, 0, 67, 78
1, 174537, Control_c, 0, 64, 60
1, 174551, Control_c, 0, 64, 71
1, 174566, Control_c, 0, 64, 88
1, 174581, Note_off_c, 0, 64, 59
1, 174581, Control_c, 0, 64, 124
1, 174595, Control_c, 0, 64, 127
1, 174611, Note_on_c, 0, 70, 81
1, 174618, Note_on_c, 0, 76, 75
1, 174632, Note_off_c, 0, 67, 62
1, 174647, Note_off_c, 0, 70, 68
1, 174668, Note_off_c, 0, 76, 66
1, 174711, Note_off_c, 0, 41, 61
1, 174713, Note_on_c, 0, 76, 92
1, 174731, Note_off_c, 0, 52, 58
1, 174744, Note_off_c, 0, 46, 59
1, 174752, Note_off_c, 0, 49, 59
1, 174798, Note_on_c, 0, 79, 78
1, 174845, Note_on_c, 0, 88, 59
1, 174860, Note_off_c, 0, 76, 63
1, 174866, Note_on_c, 0, 82, 86
1, 174878, Note_off_c, 0, 79, 64
1, 174884, Note_off_c, 0, 82, 71
1, 174902, Note_off_c, 0, 88, 63
1, 174946, Note_on_c, 0, 88, 90
1, 175029, Note_on_c, 0, 91, 82
1, 175041, Note_on_c, 0, 100, 83
1, 175082, Note_on_c, 0, 94, 89
1, 175100, Note_off_c, 0, 100, 65
1, 175111, Note_off_c, 0, 91, 61
1, 175121, Note_off_c, 0, 88, 61
1, 175128, Note_off_c, 0, 94, 67
1, 175147, Note_on_c, 0, 64, 105
1, 175151, Note_on_c, 0, 52, 79
1, 175176, Note_off_c, 0, 64, 70
1, 175192, Note_off_c, 0, 52, 61
1, 175307, Note_on_c, 0, 41, 79
1, 175322, Note_on_c, 0, 46, 66
1, 175359, Control_c, 0, 64, 104
1, 175361, Note_on_c, 0, 48, 58
1, 175364, Note_on_c, 0, 45, 67
1, 175373, Control_c, 0, 64, 77
1, 175388, Control_c, 0, 64, 58
1, 175399, Note_on_c, 0, 63, 96
1, 175402, Note_on_c, 0, 51, 100
1, 175403, Control_c, 0, 64, 49
1, 175417, Control_c, 0, 64, 67
1, 175423, Note_off_c, 0, 41, 65
1, 175432, Control_c, 0, 64, 89
1, 175437, Note_off_c, 0, 45, 63
1, 175445, Note_off_c, 0, 48, 62
1, 175447, Control_c, 0, 64, 127
1, 175456, Note_off_c, 0, 51, 57
1, 175470, Note_on_c, 0, 66, 75
1, 175484, Note_off_c, 0, 46, 34
1, 175491, Note_off_c, 0, 63, 60
1, 175537, Note_on_c, 0, 69, 68
1, 175557, Note_off_c, 0, 66, 61
1, 175587, Note_on_c, 0, 75, 80
1, 175599, Note_off_c, 0, 69, 66
1, 175659, Note_off_c, 0, 75, 62
1, 175710, Note_on_c, 0, 75, 85
1, 175722, Note_on_c, 0, 63, 102
1, 175730, Note_on_c, 0, 51, 83
1, 175787, Note_on_c, 0, 78, 74
1, 175819, Note_off_c, 0, 75, 58
1, 175834, Note_on_c, 0, 81, 80
1, 175850, Note_off_c, 0, 51, 61
1, 175875, Note_off_c, 0, 63, 50
1, 175881, Note_off_c, 0, 78, 60
1, 175893, Note_on_c, 0, 87, 81
1, 175893, Note_off_c, 0, 81, 63
1, 175913, Note_off_c, 0, 87, 68
1, 175952, Note_on_c, 0, 65, 97
1, 175958, Note_on_c, 0, 53, 81
1, 175968, Note_on_c, 0, 87, 102
1, 176045, Note_on_c, 0, 90, 76
1, 176049, Note_off_c, 0, 53, 63
1, 176051, Note_on_c, 0, 98, 64
1, 176065, Note_off_c, 0, 65, 63
1, 176094, Poly_aftertouch_c, 0, 97, 127
1, 176111, Note_on_c, 0, 93, 84
1, 176124, Note_off_c, 0, 98, 59
1, 176130, Poly_aftertouch_c, 0, 97, 0
1, 176157, Note_off_c, 0, 93, 63
1, 176160, Note_off_c, 0, 90, 64
1, 176165, Note_on_c, 0, 66, 114
1, 176169, Note_off_c, 0, 87, 63
1, 176171, Note_on_c, 0, 54, 77
1, 176199, Note_off_c, 0, 66, 69
1, 176220, Note_off_c, 0, 54, 57
1, 176353, Note_on_c, 0, 41, 83
1, 176392, Note_on_c, 0, 47, 57
1, 176407, Note_on_c, 0, 50, 67
1, 176413, Control_c, 0, 64, 105
1, 176425, Note_off_c, 0, 41, 66
1, 176428, Control_c, 0, 64, 78
1, 176443, Control_c, 0, 64, 55
1, 176458, Control_c, 0, 64, 0
1, 176466, Note_on_c, 0, 62, 102
1, 176466, Note_on_c, 0, 68, 98
1, 176472, Control_c, 0, 64, 51
1, 176472, Note_on_c, 0, 56, 107
1, 176487, Control_c, 0, 64, 73
1, 176502, Control_c, 0, 64, 108
1, 176502, Note_on_c, 0, 57, 61
1, 176505, Note_off_c, 0, 47, 61
1, 176507, Note_off_c, 0, 50, 62
1, 176517, Control_c, 0, 64, 127
1, 176523, Note_off_c, 0, 57, 62
1, 176528, Note_off_c, 0, 56, 62
1, 176562, Note_on_c, 0, 74, 69
1, 176572, Note_off_c, 0, 62, 56
1, 176615, Note_off_c, 0, 68, 54
1, 176622, Note_on_c, 0, 65, 76
1, 176647, Note_off_c, 0, 65, 70
1, 176673, Note_off_c, 0, 74, 64
1, 176756, Note_on_c, 0, 74, 79
1, 176821, Note_on_c, 0, 86, 70
1, 176831, Note_on_c, 0, 77, 73
1, 176869, Note_off_c, 0, 74, 55
1, 176889, Note_on_c, 0, 65, 96
1, 176901, Note_on_c, 0, 53, 68
1, 176903, Note_on_c, 0, 80, 90
1, 176923, Note_off_c, 0, 53, 67
1, 176926, Note_off_c, 0, 65, 65
1, 176928, Note_off_c, 0, 77, 61
1, 176940, Note_off_c, 0, 80, 64
1, 176946, Note_off_c, 0, 86, 63
1, 176968, Note_on_c, 0, 62, 97
1, 176975, Note_on_c, 0, 50, 94
1, 176991, Note_on_c, 0, 86, 95
1, 177034, Note_off_c, 0, 62, 58
1, 177068, Note_off_c, 0, 50, 59
1, 177085, Note_on_c, 0, 89, 80
1, 177091, Note_on_c, 0, 98, 83
1, 177164, Note_on_c, 0, 92, 84
1, 177173, Note_off_c, 0, 98, 67
1, 177177, Note_off_c, 0, 86, 58
1, 177195, Note_off_c, 0, 89, 63
1, 177217, Note_off_c, 0, 92, 63
1, 177414, Note_on_c, 0, 40, 77
1, 177427, Note_on_c, 0, 43, 81
1, 177449, Note_on_c, 0, 41, 52
1, 177480, Note_off_c, 0, 41, 55
1, 177499, Note_on_c, 0, 46, 83
1, 177561, Control_c, 0, 64, 112
1, 177576, Control_c, 0, 64, 90
1, 177591, Control_c, 0, 64, 73
1, 177597, Note_on_c, 0, 49, 102
1, 177598, Note_on_c, 0, 61, 107
1, 177605, Control_c, 0, 64, 60
1, 177620, Control_c, 0, 64, 59
1, 177635, Control_c, 0, 64, 69
1, 177650, Control_c, 0, 64, 87
1, 177665, Control_c, 0, 64, 127
1, 177672, Note_off_c, 0, 40, 52
1, 177694, Note_on_c, 0, 64, 67
1, 177710, Note_off_c, 0, 43, 36
1, 177715, Note_off_c, 0, 61, 58
1, 177729, Note_off_c, 0, 46, 37
1, 177742, Note_on_c, 0, 67, 77
1, 177744, Note_off_c, 0, 49, 55
1, 177792, Note_off_c, 0, 64, 60
1, 177823, Note_on_c, 0, 73, 87
1, 177829, Note_off_c, 0, 67, 66
1, 177865, Note_off_c, 0, 73, 66
1, 177920, Note_on_c, 0, 73, 92
1, 177981, Note_off_c, 0, 73, 62
1, 177996, Note_on_c, 0, 76, 67
1, 178036, Poly_aftertouch_c, 0, 74, 0
1, 178048, Note_on_c, 0, 79, 81
1, 178055, Poly_aftertouch_c, 0, 74, 0
1, 178098, Note_off_c, 0, 76, 63
1, 178118, Note_on_c, 0, 85, 85
1, 178126, Note_off_c, 0, 79, 63
1, 178160, Note_off_c, 0, 85, 65
1, 178179, Note_on_c, 0, 61, 104
1, 178183, Note_on_c, 0, 49, 73
1, 178210, Note_off_c, 0, 49, 66
1, 178212, Note_on_c, 0, 85, 92
1, 178215, Note_on_c, 0, 56, 48
1, 178220, Note_off_c, 0, 61, 62
1, 178243, Note_off_c, 0, 56, 55
1, 178282, Note_on_c, 0, 97, 75
1, 178297, Poly_aftertouch_c, 0, 62, 0
1, 178298, Note_on_c, 0, 88, 55
1, 178356, Note_on_c, 0, 91, 76
1, 178362, Note_off_c, 0, 97, 65
1, 178389, Note_off_c, 0, 88, 59
1, 178404, Note_off_c, 0, 85, 59
1, 178412, Note_off_c, 0, 91, 60
1, 178660, Note_on_c, 0, 61, 105
1, 178672, Note_on_c, 0, 49, 72
1, 178695, Note_off_c, 0, 61, 66
1, 178705, Note_off_c, 0, 49, 62
1, 178813, Note_on_c, 0, 39, 93
1, 178848, Note_on_c, 0, 45, 64
1, 178881, Control_c, 0, 64, 103
1, 178886, Note_on_c, 0, 60, 103
1, 178890, Note_on_c, 0, 42, 68
1, 178896, Control_c, 0, 64, 79
1, 178898, Note_on_c, 0, 48, 100
1, 178911, Control_c, 0, 64, 61
1, 178926, Poly_aftertouch_c, 0, 41, 127
1, 178926, Control_c, 0, 64, 32
1, 178941, Control_c, 0, 64, 49
1, 178956, Control_c, 0, 64, 72
1, 178963, Poly_aftertouch_c, 0, 40, 0
1, 178966, Note_on_c, 0, 63, 75
1, 178970, Control_c, 0, 64, 97
1, 178985, Control_c, 0, 64, 127
1, 179002, Note_off_c, 0, 60, 57
1, 179029, Poly_aftertouch_c, 0, 41, 0
1, 179033, Note_on_c, 0, 66, 77
1, 179051, Note_on_c, 0, 72, 77
1, 179052, Note_off_c, 0, 63, 63
1, 179073, Note_off_c, 0, 66, 66
1, 179078, Note_off_c, 0, 39, 53
1, 179099, Note_off_c, 0, 72, 65
1, 179116, Note_off_c, 0, 48, 60
1, 179128, Note_off_c, 0, 42, 33
1, 179128, Note_off_c, 0, 45, 55
1, 179147, Note_on_c, 0, 72, 77
1, 179157, Note_on_c, 0, 74, 79
1, 179227, Note_on_c, 0, 75, 84
1, 179234, Note_off_c, 0, 74, 56
1, 179244, Note_off_c, 0, 72, 55
1, 179280, Note_on_c, 0, 76, 56
1, 179285, Note_off_c, 0, 75, 63
1, 179292, Note_on_c, 0, 78, 82
1, 179295, Note_on_c, 0, 84, 58
1, 179301, Note_off_c, 0, 76, 65
1, 179312, Note_off_c, 0, 78, 69
1, 179324, Note_off_c, 0, 84, 66
1, 179367, Note_on_c, 0, 84, 103
1, 179435, Note_on_c, 0, 87, 82
1, 179459, Note_on_c, 0, 96, 73
1, 179486, Note_on_c, 0, 90, 84
1, 179504, Note_off_c, 0, 87, 68
1, 179509, Note_off_c, 0, 96, 62
1, 179551, Note_off_c, 0, 84, 60
1, 179552, Note_off_c, 0, 90, 65
1, 179565, Note_on_c, 0, 60, 98
1, 179566, Note_on_c, 0, 48, 79
1, 179599, Note_off_c, 0, 60, 67
1, 179616, Note_off_c, 0, 48, 63
1, 179683, Poly_aftertouch_c, 0, 50, 0
1, 179751, Note_on_c, 0, 40, 59
1, 179778, Note_on_c, 0, 36, 43
1, 179799, Note_on_c, 0, 38, 48
1, 179804, Note_on_c, 0, 43, 76
1, 179808, Control_c, 0, 64, 85
1, 179823, Control_c, 0, 64, 64
1, 179835, Note_on_c, 0, 59, 96
1, 179838, Control_c, 0, 64, 39
1, 179839, Note_on_c, 0, 47, 94
1, 179841, Note_on_c, 0, 45, 84
1, 179853, Control_c, 0, 64, 48
1, 179865, Note_off_c, 0, 40, 63
1, 179868, Control_c, 0, 64, 66
1, 179871, Note_off_c, 0, 36, 59
1, 179878, Note_off_c, 0, 43, 61
1, 179882, Control_c, 0, 64, 82
1, 179885, Note_off_c, 0, 45, 61
1, 179890, Note_off_c, 0, 47, 63
1, 179897, Control_c, 0, 64, 127
1, 179909, Note_off_c, 0, 38, 36
1, 179919, Note_on_c, 0, 62, 66
1, 179925, Note_off_c, 0, 59, 64
1, 179984, Note_on_c, 0, 65, 68
1, 180001, Note_on_c, 0, 71, 69
1, 180020, Note_off_c, 0, 62, 58
1, 180056, Note_off_c, 0, 65, 66
1, 180082, Note_off_c, 0, 71, 60
1, 180149, Note_on_c, 0, 59, 107
1, 180153, Note_on_c, 0, 47, 85
1, 180153, Note_on_c, 0, 71, 91
1, 180245, Note_on_c, 0, 74, 66
1, 180258, Note_off_c, 0, 71, 55
1, 180282, Note_off_c, 0, 47, 54
1, 180310, Note_off_c, 0, 59, 61
1, 180311, Note_on_c, 0, 77, 82
1, 180320, Note_on_c, 0, 83, 65
1, 180325, Note_off_c, 0, 74, 65
1, 180351, Note_off_c, 0, 77, 65
1, 180365, Note_off_c, 0, 83, 63
1, 180395, Note_on_c, 0, 60, 102
1, 180407, Note_on_c, 0, 83, 88
1, 180409, Note_on_c, 0, 48, 63
1, 180423, Note_on_c, 0, 50, 64
1, 180462, Note_off_c, 0, 50, 48
1, 180467, Note_off_c, 0, 48, 55
1, 180482, Note_on_c, 0, 86, 84
1, 180488, Note_off_c, 0, 60, 51
1, 180500, Note_on_c, 0, 95, 59
1, 180506, Note_on_c, 0, 96, 75
1, 180533, Note_off_c, 0, 96, 63
1, 180546, Note_on_c, 0, 89, 82
1, 180570, Note_off_c, 0, 95, 67
1, 180590, Note_off_c, 0, 89, 66
1, 180599, Note_off_c, 0, 86, 63
1, 180604, Note_on_c, 0, 62, 101
1, 180608, Note_on_c, 0, 50, 76
1, 180611, Note_off_c, 0, 83, 61
1, 180636, Note_off_c, 0, 62, 64
1, 180649, Note_off_c, 0, 50, 60
1, 180796, Note_on_c, 0, 37, 72
1, 180825, Note_on_c, 0, 43, 71
1, 180845, Control_c, 0, 64, 92
1, 180860, Control_c, 0, 64, 68
1, 180863, Note_on_c, 0, 46, 76
1, 180864, Note_off_c, 0, 37, 62
1, 180875, Control_c, 0, 64, 53
1, 180890, Control_c, 0, 64, 56
1, 180892, Note_on_c, 0, 58, 81
1, 180893, Note_on_c, 0, 63, 78
1, 180903, Note_on_c, 0, 56, 75
1, 180905, Control_c, 0, 64, 68
1, 180907, Note_on_c, 0, 53, 90
1, 180911, Note_on_c, 0, 52, 81
1, 180920, Control_c, 0, 64, 90
1, 180926, Note_off_c, 0, 43, 59
1, 180935, Control_c, 0, 64, 127
1, 180944, Note_off_c, 0, 53, 67
1, 180945, Note_off_c, 0, 63, 59
1, 180950, Note_on_c, 0, 64, 70
1, 180956, Note_off_c, 0, 52, 65
1, 180962, Note_off_c, 0, 56, 58
1, 180964, Note_off_c, 0, 46, 61
1, 180992, Note_off_c, 0, 58, 62
1, 180995, Note_on_c, 0, 70, 73
1, 181007, Note_on_c, 0, 61, 74
1, 181033, Note_off_c, 0, 61, 66
1, 181038, Note_off_c, 0, 64, 59
1, 181072, Note_off_c, 0, 70, 64
1, 181161, Note_on_c, 0, 70, 80
1, 181210, Note_on_c, 0, 76, 23
1, 181220, Note_on_c, 0, 77, 23
1, 181239, Note_on_c, 0, 82, 77
1, 181274, Note_on_c, 0, 73, 86
1, 181278, Note_off_c, 0, 70, 66
1, 181280, Note_off_c, 0, 77, 39
1, 181281, Note_off_c, 0, 76, 39
1, 181293, Note_off_c, 0, 73, 73
1, 181293, Note_on_c, 0, 61, 94
1, 181301, Note_off_c, 0, 82, 63
1, 181312, Note_on_c, 0, 49, 65
1, 181318, Note_on_c, 0, 83, 55
1, 181326, Note_off_c, 0, 61, 66
1, 181336, Note_off_c, 0, 83, 62
1, 181339, Note_off_c, 0, 49, 63
1, 181379, Note_on_c, 0, 58, 101
1, 181385, Note_on_c, 0, 46, 94
1, 181391, Note_on_c, 0, 82, 98
1, 181394, Poly_aftertouch_c, 0, 74, 0
1, 181400, Note_on_c, 0, 89, 88
1, 181445, Note_off_c, 0, 58, 62
1, 181449, Note_off_c, 0, 46, 60
1, 181474, Note_on_c, 0, 94, 82
1, 181510, Note_off_c, 0, 89, 58
1, 181572, Note_on_c, 0, 85, 73
1, 181585, Note_off_c, 0, 94, 65
1, 181600, Note_off_c, 0, 82, 57
1, 181623, Note_off_c, 0, 85, 62
1, 181845, Note_on_c, 0, 36, 70
1, 181859, Note_on_c, 0, 39, 74
1, 181915, Note_on_c, 0, 42, 78
1, 181920, Control_c, 0, 64, 83
1, 181936, Control_c, 0, 64, 62
1, 181951, Control_c, 0, 64, 38
1, 181952, Note_on_c, 0, 57, 102
1, 181961, Note_on_c, 0, 45, 99
1, 181966, Control_c, 0, 64, 56
1, 181981, Control_c, 0, 64, 73
1, 181985, Note_on_c, 0, 43, 61
1, 181986, Note_off_c, 0, 43, 127
1, 181996, Control_c, 0, 64, 103
1, 181999, Note_off_c, 0, 39, 63
1, 182000, Note_off_c, 0, 36, 62
1, 182010, Control_c, 0, 64, 127
1, 182012, Poly_aftertouch_c, 0, 43, 0
1, 182013, Note_off_c, 0, 42, 64
1, 182022, Note_off_c, 0, 45, 64
1, 182048, Note_on_c, 0, 60, 69
1, 182066, Note_off_c, 0, 57, 59
1, 182117, Note_on_c, 0, 63, 70
1, 182125, Note_on_c, 0, 69, 70
1, 182143, Note_off_c, 0, 60, 60
1, 182166, Note_off_c, 0, 63, 63
1, 182205, Note_off_c, 0, 69, 63
1, 182285, Note_on_c, 0, 57, 103
1, 182292, Note_on_c, 0, 45, 83
1, 182298, Note_on_c, 0, 69, 80
1, 182304, Note_on_c, 0, 67, 69
1, 182331, Note_off_c, 0, 67, 63
1, 182392, Note_on_c, 0, 72, 59
1, 182401, Note_off_c, 0, 69, 63
1, 182430, Note_on_c, 0, 81, 31
1, 182440, Note_off_c, 0, 45, 61
1, 182452, Note_on_c, 0, 75, 83
1, 182468, Note_off_c, 0, 57, 59
1, 182476, Note_off_c, 0, 72, 65
1, 182487, Poly_aftertouch_c, 0, 71, 0
1, 182489, Note_off_c, 0, 75, 68
1, 182530, Note_off_c, 0, 81, 38
1, 182551, Note_on_c, 0, 81, 82
1, 182555, Note_on_c, 0, 58, 105
1, 182567, Note_on_c, 0, 46, 87
1, 182630, Note_on_c, 0, 84, 78
1, 182643, Note_on_c, 0, 93, 86
1, 182667, Note_off_c, 0, 46, 61
1, 182676, Poly_aftertouch_c, 0, 50, 0
1, 182691, Note_off_c, 0, 58, 55
1, 182710, Note_on_c, 0, 87, 80
1, 182736, Note_off_c, 0, 93, 59
1, 182762, Note_off_c, 0, 84, 58
1, 182774, Note_off_c, 0, 81, 59
1, 182780, Note_off_c, 0, 87, 63
1, 182796, Note_on_c, 0, 60, 109
1, 182805, Note_on_c, 0, 48, 87
1, 182829, Note_off_c, 0, 60, 64
1, 182831, Note_on_c, 0, 52, 48
1, 182852, Note_off_c, 0, 48, 65
1, 182857, Note_off_c, 0, 52, 63
1, 183094, Note_on_c, 0, 35, 82
1, 183116, Note_on_c, 0, 41, 79
1, 183150, Control_c, 0, 64, 103
1, 183165, Control_c, 0, 64, 75
1, 183177, Note_on_c, 0, 44, 75
1, 183179, Note_off_c, 0, 35, 63
1, 183180, Control_c, 0, 64, 54
1, 183195, Control_c, 0, 64, 47
1, 183210, Control_c, 0, 64, 64
1, 183219, Note_on_c, 0, 56, 94
1, 183224, Control_c, 0, 64, 82
1, 183230, Note_on_c, 0, 62, 84
1, 183230, Note_on_c, 0, 50, 108
1, 183239, Control_c, 0, 64, 127
1, 183262, Note_off_c, 0, 41, 63
1, 183263, Note_off_c, 0, 44, 62
1, 183278, Note_off_c, 0, 56, 64
1, 183278, Note_off_c, 0, 50, 63
1, 183352, Note_on_c, 0, 69, 61
1, 183416, Note_on_c, 0, 59, 68
1, 183430, Note_off_c, 0, 62, 37
1, 183468, Note_off_c, 0, 59, 62
1, 183513, Note_off_c, 0, 69, 62
1, 183517, Poly_aftertouch_c, 0, 49, 0
1, 183538, Note_on_c, 0, 56, 90
1, 183543, Note_on_c, 0, 47, 82
1, 183550, Note_on_c, 0, 62, 78
1, 183607, Note_off_c, 0, 47, 60
1, 183631, Note_on_c, 0, 65, 73
1, 183634, Note_off_c, 0, 56, 61
1, 183648, Note_off_c, 0, 62, 60
1, 183652, Note_on_c, 0, 74, 55
1, 183675, Note_on_c, 0, 68, 78
1, 183690, Note_off_c, 0, 74, 63
1, 183692, Note_off_c, 0, 65, 65
1, 183708, Note_off_c, 0, 68, 62
1, 183772, Note_on_c, 0, 62, 88
1, 183774, Note_on_c, 0, 68, 92
1, 183778, Note_on_c, 0, 53, 72
1, 183816, Note_off_c, 0, 53, 59
1, 183822, Note_off_c, 0, 62, 62
1, 183831, Note_off_c, 0, 68, 64
1, 183857, Note_on_c, 0, 69, 38
1, 183860, Note_on_c, 0, 80, 60
1, 183862, Note_on_c, 0, 71, 58
1, 183876, Note_on_c, 0, 74, 71
1, 183887, Note_off_c, 0, 69, 49
1, 183893, Note_off_c, 0, 71, 63
1, 183915, Note_off_c, 0, 74, 64
1, 183926, Note_off_c, 0, 80, 60
1, 183952, Note_on_c, 0, 59, 78
1, 183957, Note_on_c, 0, 74, 77
1, 183962, Note_on_c, 0, 68, 84
1, 184004, Note_off_c, 0, 59, 63
1, 184015, Note_off_c, 0, 68, 58
1, 184029, Note_on_c, 0, 77, 73
1, 184044, Note_on_c, 0, 86, 72
1, 184048, Note_off_c, 0, 74, 64
1, 184053, Note_on_c, 0, 80, 79
1, 184060, Note_off_c, 0, 77, 60
1, 184082, Note_off_c, 0, 80, 63
1, 184083, Note_off_c, 0, 86, 60
1, 184130, Note_on_c, 0, 80, 101
1, 184131, Note_on_c, 0, 65, 75
1, 184131, Note_on_c, 0, 74, 75
1, 184165, Note_off_c, 0, 65, 60
1, 184174, Note_off_c, 0, 74, 61
1, 184190, Note_off_c, 0, 80, 64
1, 184213, Note_on_c, 0, 83, 63
1, 184216, Note_on_c, 0, 92, 74
1, 184252, Note_off_c, 0, 83, 60
1, 184255, Note_on_c, 0, 86, 70
1, 184272, Note_off_c, 0, 86, 67
1, 184289, Note_off_c, 0, 92, 63
1, 184299, Control_c, 0, 67, 9
1, 184314, Control_c, 0, 67, 15
1, 184316, Note_on_c, 0, 71, 70
1, 184328, Note_on_c, 0, 86, 91
1, 184330, Control_c, 0, 67, 22
1, 184331, Note_on_c, 0, 80, 73
1, 184345, Control_c, 0, 67, 27
1, 184360, Control_c, 0, 67, 32
1, 184375, Control_c, 0, 67, 35
1, 184385, Note_off_c, 0, 71, 59
1, 184390, Control_c, 0, 64, 113
1, 184390, Control_c, 0, 67, 39
1, 184404, Control_c, 0, 64, 108
1, 184404, Control_c, 0, 67, 43
1, 184406, Note_off_c, 0, 80, 56
1, 184419, Note_on_c, 0, 89, 67
1, 184419, Control_c, 0, 64, 105
1, 184419, Control_c, 0, 67, 48
1, 184425, Note_off_c, 0, 86, 50
1, 184428, Note_on_c, 0, 98, 65
1, 184434, Control_c, 0, 64, 102
1, 184434, Control_c, 0, 67, 53
1, 184449, Control_c, 0, 64, 100
1, 184449, Control_c, 0, 67, 56
1, 184464, Control_c, 0, 64, 99
1, 184464, Control_c, 0, 67, 57
1, 184470, Note_on_c, 0, 92, 75
1, 184478, Control_c, 0, 64, 98
1, 184478, Control_c, 0, 67, 58
1, 184479, Note_off_c, 0, 89, 65
1, 184500, Note_off_c, 0, 98, 63
1, 184500, Control_c, 0, 64, 97
1, 184515, Control_c, 0, 64, 95
1, 184516, Note_off_c, 0, 92, 64
1, 184530, Control_c, 0, 64, 92
1, 184530, Control_c, 0, 67, 58
1, 184545, Control_c, 0, 64, 90
1, 184545, Control_c, 0, 67, 59
1, 184560, Control_c, 0, 64, 87
1, 184560, Control_c, 0, 67, 61
1, 184575, Control_c, 0, 64, 85
1, 184575, Control_c, 0, 67, 62
1, 184589, Control_c, 0, 64, 82
1, 184592, Note_on_c, 0, 77, 51
1, 184598, Note_on_c, 0, 86, 59
1, 184601, Note_on_c, 0, 90, 61
1, 184602, Note_on_c, 0, 92, 72
1, 184604, Control_c, 0, 64, 80
1, 184604, Control_c, 0, 67, 62
1, 184619, Control_c, 0, 64, 77
1, 184619, Control_c, 0, 67, 63
1, 184634, Control_c, 0, 64, 75
1, 184634, Control_c, 0, 67, 63
1, 184649, Control_c, 0, 64, 72
1, 184649, Control_c, 0, 67, 65
1, 184664, Control_c, 0, 64, 69
1, 184664, Control_c, 0, 67, 68
1, 184678, Control_c, 0, 64, 67
1, 184678, Control_c, 0, 67, 70
1, 184680, Note_off_c, 0, 90, 61
1, 184693, Control_c, 0, 64, 65
1, 184693, Control_c, 0, 67, 71
1, 184708, Control_c, 0, 64, 63
1, 184723, Control_c, 0, 64, 62
1, 184723, Control_c, 0, 67, 71
1, 184737, Control_c, 0, 64, 60
1, 184737, Control_c, 0, 67, 72
1, 184738, Note_on_c, 0, 95, 65
1, 184741, Note_on_c, 0, 104, 73
1, 184752, Control_c, 0, 64, 59
1, 184752, Control_c, 0, 67, 73
1, 184767, Control_c, 0, 64, 59
1, 184782, Control_c, 0, 64, 58
1, 184797, Control_c, 0, 64, 57
1, 184797, Control_c, 0, 67, 73
1, 184811, Control_c, 0, 64, 55
1, 184826, Control_c, 0, 64, 54
1, 184841, Control_c, 0, 64, 53
1, 184856, Control_c, 0, 64, 53
1, 184871, Control_c, 0, 64, 52
1, 184885, Control_c, 0, 64, 52
1, 184894, Note_on_c, 0, 98, 57
1, 184900, Control_c, 0, 64, 51
1, 184915, Control_c, 0, 64, 51
1, 184915, Control_c, 0, 67, 74
1, 184929, Control_c, 0, 64, 50
1, 184943, Note_off_c, 0, 86, 53
1, 184944, Control_c, 0, 64, 50
1, 184959, Control_c, 0, 64, 49
1, 184959, Control_c, 0, 67, 74
1, 184974, Control_c, 0, 67, 75
1, 184989, Control_c, 0, 64, 49
1, 184989, Control_c, 0, 67, 75
1, 184992, Note_off_c, 0, 77, 40
1, 185004, Control_c, 0, 67, 77
1, 185019, Control_c, 0, 67, 78
1, 185024, Note_off_c, 0, 104, 24
1, 185034, Control_c, 0, 67, 80
1, 185049, Control_c, 0, 67, 81
1, 185063, Control_c, 0, 67, 83
1, 185067, Note_off_c, 0, 92, 42
1, 185078, Control_c, 0, 67, 84
1, 185084, Note_off_c, 0, 98, 65
1, 185093, Control_c, 0, 67, 87
1, 185108, Control_c, 0, 64, 48
1, 185108, Control_c, 0, 67, 92
1, 185108, Note_off_c, 0, 95, 41
1, 185123, Control_c, 0, 64, 47
1, 185123, Control_c, 0, 67, 98
1, 185138, Control_c, 0, 64, 47
1, 185138, Control_c, 0, 67, 105
1, 185153, Control_c, 0, 64, 46
1, 185153, Control_c, 0, 67, 110
1, 185168, Control_c, 0, 67, 114
1, 185183, Control_c, 0, 67, 117
1, 185198, Control_c, 0, 64, 46
1, 185198, Control_c, 0, 67, 119
1, 185212, Control_c, 0, 64, 45
1, 185212, Control_c, 0, 67, 121
1, 185227, Control_c, 0, 64, 44
1, 185227, Control_c, 0, 67, 124
1, 185249, Control_c, 0, 64, 42
1, 185249, Control_c, 0, 67, 126
1, 185264, Control_c, 0, 64, 41
1, 185264, Control_c, 0, 67, 126
1, 185279, Control_c, 0, 64, 39
1, 185294, Control_c, 0, 64, 38
1, 185308, Control_c, 0, 64, 38
1, 185353, Control_c, 0, 64, 38
1, 185367, Control_c, 0, 64, 40
1, 185382, Control_c, 0, 64, 41
1, 185397, Control_c, 0, 64, 43
1, 185412, Control_c, 0, 64, 45
1, 185427, Control_c, 0, 64, 47
1, 185442, Control_c, 0, 64, 49
1, 185457, Control_c, 0, 64, 52
1, 185460, Note_on_c, 0, 59, 34
1, 185472, Control_c, 0, 64, 57
1, 185472, Control_c, 0, 67, 126
1, 185485, Note_on_c, 0, 77, 41
1, 185487, Control_c, 0, 64, 61
1, 185501, Control_c, 0, 64, 64
1, 185514, Note_off_c, 0, 77, 52
1, 185516, Control_c, 0, 64, 67
1, 185519, Note_off_c, 0, 59, 46
1, 185531, Control_c, 0, 64, 72
1, 185541, Note_on_c, 0, 65, 45
1, 185546, Control_c, 0, 64, 78
1, 185546, Control_c, 0, 67, 125
1, 185557, Note_on_c, 0, 86, 57
1, 185560, Control_c, 0, 64, 87
1, 185560, Control_c, 0, 67, 125
1, 185564, Note_on_c, 0, 83, 50
1, 185575, Control_c, 0, 64, 100
1, 185586, Note_off_c, 0, 86, 65
1, 185588, Note_on_c, 0, 92, 64
1, 185590, Control_c, 0, 64, 127
1, 185596, Note_off_c, 0, 83, 64
1, 185611, Note_on_c, 0, 68, 45
1, 185616, Note_off_c, 0, 92, 68
1, 185620, Note_on_c, 0, 74, 51
1, 185638, Note_off_c, 0, 68, 58
1, 185639, Note_off_c, 0, 65, 52
1, 185639, Note_off_c, 0, 74, 62
1, 185738, Control_c, 0, 67, 124
1, 185767, Control_c, 0, 67, 124
1, 185841, Control_c, 0, 64, 115
1, 185846, Note_on_c, 0, 78, 46
1, 185856, Note_on_c, 0, 57, 47
1, 185856, Control_c, 0, 64, 98
1, 185869, Note_off_c, 0, 78, 56
1, 185871, Control_c, 0, 64, 83
1, 185886, Control_c, 0, 64, 69
1, 185901, Control_c, 0, 64, 57
1, 185903, Note_off_c, 0, 57, 59
1, 185916, Control_c, 0, 64, 52
1, 185918, Note_on_c, 0, 84, 44
1, 185924, Note_on_c, 0, 87, 63
1, 185931, Control_c, 0, 64, 60
1, 185931, Control_c, 0, 67, 123
1, 185934, Note_on_c, 0, 63, 51
1, 185946, Control_c, 0, 64, 67
1, 185961, Control_c, 0, 64, 77
1, 185967, Note_on_c, 0, 93, 76
1, 185967, Note_on_c, 0, 66, 43
1, 185973, Note_off_c, 0, 84, 50
1, 185975, Note_off_c, 0, 87, 64
1, 185976, Control_c, 0, 64, 97
1, 185976, Control_c, 0, 67, 122
1, 185986, Note_on_c, 0, 72, 67
1, 185998, Control_c, 0, 64, 127
1, 186005, Note_off_c, 0, 93, 58
1, 186012, Note_off_c, 0, 72, 66
1, 186012, Note_off_c, 0, 63, 61
1, 186017, Note_off_c, 0, 66, 61
1, 186028, Control_c, 0, 67, 122
1, 186072, Control_c, 0, 67, 121
1, 186087, Control_c, 0, 67, 121
1, 186102, Control_c, 0, 67, 120
1, 186117, Control_c, 0, 67, 120
1, 186131, Control_c, 0, 67, 119
1, 186145, Note_on_c, 0, 55, 59
1, 186146, Control_c, 0, 67, 119
1, 186161, Control_c, 0, 64, 108
1, 186161, Control_c, 0, 67, 118
1, 186175, Control_c, 0, 64, 86
1, 186178, Note_on_c, 0, 79, 54
1, 186190, Control_c, 0, 64, 69
1, 186193, Note_off_c, 0, 55, 62
1, 186198, Note_on_c, 0, 61, 64
1, 186198, Note_on_c, 0, 85, 63
1, 186198, Note_off_c, 0, 79, 60
1, 186205, Control_c, 0, 64, 61
1, 186208, Note_on_c, 0, 64, 39
1, 186219, Note_on_c, 0, 88, 61
1, 186220, Control_c, 0, 64, 66
1, 186220, Control_c, 0, 67, 118
1, 186235, Control_c, 0, 64, 77
1, 186236, Note_on_c, 0, 94, 79
1, 186241, Note_on_c, 0, 70, 81
1, 186242, Note_off_c, 0, 88, 64
1, 186244, Note_off_c, 0, 85, 62
1, 186249, Note_off_c, 0, 64, 60
1, 186250, Control_c, 0, 64, 98
1, 186264, Note_off_c, 0, 61, 62
1, 186265, Control_c, 0, 64, 127
1, 186265, Control_c, 0, 67, 118
1, 186274, Note_off_c, 0, 70, 65
1, 186280, Control_c, 0, 67, 119
1, 186347, Note_off_c, 0, 94, 66
1, 186354, Control_c, 0, 67, 118
1, 186369, Control_c, 0, 67, 118
1, 186383, Control_c, 0, 64, 100
1, 186384, Note_on_c, 0, 53, 48
1, 186385, Note_on_c, 0, 80, 68
1, 186392, Note_on_c, 0, 59, 56
1, 186398, Control_c, 0, 64, 78
1, 186398, Control_c, 0, 67, 117
1, 186408, Note_off_c, 0, 53, 60
1, 186409, Note_on_c, 0, 86, 53
1, 186410, Note_on_c, 0, 62, 63
1, 186411, Note_off_c, 0, 80, 67
1, 186413, Control_c, 0, 64, 69
1, 186428, Control_c, 0, 64, 70
1, 186431, Note_on_c, 0, 89, 69
1, 186437, Note_on_c, 0, 68, 90
1, 186443, Control_c, 0, 64, 78
1, 186444, Note_on_c, 0, 95, 90
1, 186452, Note_off_c, 0, 86, 63
1, 186453, Note_off_c, 0, 89, 65
1, 186453, Note_off_c, 0, 59, 57
1, 186457, Control_c, 0, 64, 94
1, 186457, Control_c, 0, 67, 117
1, 186458, Poly_aftertouch_c, 0, 52, 0
1, 186464, Note_off_c, 0, 62, 59
1, 186472, Control_c, 0, 64, 127
1, 186472, Control_c, 0, 67, 116
1, 186476, Note_off_c, 0, 68, 62
1, 186487, Control_c, 0, 67, 112
1, 186501, Control_c, 0, 67, 106
1, 186516, Control_c, 0, 67, 99
1, 186531, Control_c, 0, 67, 89
1, 186542, Note_off_c, 0, 95, 65
1, 186543, Note_on_c, 0, 51, 73
1, 186546, Control_c, 0, 67, 80
1, 186561, Control_c, 0, 64, 96
1, 186561, Control_c, 0, 67, 77
1, 186575, Note_on_c, 0, 57, 60
1, 186575, Control_c, 0, 64, 74
1, 186575, Control_c, 0, 67, 76
1, 186586, Note_on_c, 0, 87, 52
1, 186589, Note_on_c, 0, 81, 38
1, 186590, Note_off_c, 0, 51, 63
1, 186590, Note_on_c, 0, 83, 44
1, 186590, Control_c, 0, 64, 68
1, 186591, Note_on_c, 0, 90, 54
1, 186601, Note_on_c, 0, 60, 61
1, 186605, Control_c, 0, 64, 73
1, 186608, Note_off_c, 0, 87, 55
1, 186608, Note_on_c, 0, 66, 90
1, 186615, Note_off_c, 0, 83, 55
1, 186616, Note_off_c, 0, 81, 35
1, 186620, Control_c, 0, 64, 85
1, 186622, Note_on_c, 0, 96, 93
1, 186622, Note_off_c, 0, 90, 65
1, 186631, Note_off_c, 0, 57, 43
1, 186635, Control_c, 0, 64, 109
1, 186637, Note_on_c, 0, 61, 43
1, 186638, Note_off_c, 0, 61, 127
1, 186638, Note_on_c, 0, 67, 54
1, 186639, Note_off_c, 0, 60, 61
1, 186649, Control_c, 0, 64, 127
1, 186649, Control_c, 0, 67, 75
1, 186650, Note_on_c, 0, 88, 16
1, 186652, Note_off_c, 0, 66, 64
1, 186658, Note_off_c, 0, 67, 60
1, 186664, Note_on_c, 0, 94, 42
1, 186664, Control_c, 0, 67, 75
1, 186679, Control_c, 0, 67, 73
1, 186688, Note_off_c, 0, 96, 64
1, 186689, Note_off_c, 0, 94, 59
1, 186694, Control_c, 0, 67, 68
1, 186700, Note_on_c, 0, 91, 25
1, 186706, Note_off_c, 0, 88, 0
1, 186706, Note_on_c, 0, 88, 5
1, 186709, Control_c, 0, 67, 63
1, 186716, Note_on_c, 0, 49, 75
1, 186725, Control_c, 0, 64, 112
1, 186725, Control_c, 0, 67, 59
1, 186732, Note_on_c, 0, 82, 69
1, 186740, Control_c, 0, 64, 88
1, 186740, Control_c, 0, 67, 58
1, 186754, Note_on_c, 0, 55, 65
1, 186757, Note_off_c, 0, 49, 65
1, 186760, Note_off_c, 0, 91, 41
1, 186760, Note_off_c, 0, 82, 67
1, 186762, Control_c, 0, 64, 77
1, 186762, Control_c, 0, 67, 57
1, 186769, Note_on_c, 0, 58, 76
1, 186769, Note_on_c, 0, 97, 99
1, 186776, Note_off_c, 0, 55, 60
1, 186777, Control_c, 0, 64, 80
1, 186777, Control_c, 0, 67, 57
1, 186786, Note_on_c, 0, 54, 3
1, 186786, Note_on_c, 0, 65, 101
1, 186789, Note_off_c, 0, 88, 58
1, 186792, Control_c, 0, 64, 91
1, 186792, Control_c, 0, 67, 56
1, 186795, Note_on_c, 0, 56, 50
1, 186806, Control_c, 0, 64, 102
1, 186806, Control_c, 0, 67, 52
1, 186813, Note_off_c, 0, 58, 50
1, 186817, Note_off_c, 0, 65, 61
1, 186821, Control_c, 0, 64, 109
1, 186821, Control_c, 0, 67, 48
1, 186825, Note_off_c, 0, 54, 49
1, 186834, Note_off_c, 0, 56, 50
1, 186836, Control_c, 0, 64, 127
1, 186836, Control_c, 0, 67, 45
1, 186843, Note_on_c, 0, 59, 17
1, 186851, Control_c, 0, 67, 42
1, 186853, Note_off_c, 0, 97, 68
1, 186863, Note_on_c, 0, 90, 68
1, 186866, Control_c, 0, 67, 38
1, 186880, Control_c, 0, 67, 35
1, 186883, Note_off_c, 0, 59, 42
1, 186895, Control_c, 0, 64, 103
1, 186895, Control_c, 0, 67, 33
1, 186897, Note_on_c, 0, 47, 71
1, 186903, Note_on_c, 0, 48, 75
1, 186906, Note_on_c, 0, 51, 43
1, 186910, Control_c, 0, 64, 81
1, 186910, Control_c, 0, 67, 32
1, 186912, Note_off_c, 0, 90, 64
1, 186919, Note_on_c, 0, 98, 102
1, 186920, Note_on_c, 0, 84, 41
1, 186921, Note_on_c, 0, 52, 62
1, 186924, Control_c, 0, 64, 72
1, 186924, Control_c, 0, 67, 31
1, 186926, Note_off_c, 0, 47, 64
1, 186931, Note_off_c, 0, 48, 68
1, 186932, Note_on_c, 0, 92, 27
1, 186935, Note_on_c, 0, 56, 75
1, 186938, Note_on_c, 0, 86, 54
1, 186939, Control_c, 0, 64, 78
1, 186939, Control_c, 0, 67, 29
1, 186943, Note_off_c, 0, 52, 61
1, 186944, Note_off_c, 0, 84, 52
1, 186947, Note_on_c, 0, 64, 97
1, 186950, Note_off_c, 0, 51, 44
1, 186954, Control_c, 0, 64, 95
1, 186954, Control_c, 0, 67, 28
1, 186958, Note_on_c, 0, 53, 57
1, 186958, Note_off_c, 0, 86, 59
1, 186969, Control_c, 0, 64, 127
1, 186969, Control_c, 0, 67, 25
1, 186980, Note_off_c, 0, 64, 66
1, 186984, Control_c, 0, 67, 16
1, 186988, Note_off_c, 0, 98, 66
1, 186998, Control_c, 0, 67, 0
1, 187010, Note_on_c, 0, 93, 57
1, 187010, Note_off_c, 0, 53, 62
1, 187010, Note_off_c, 0, 56, 57
1, 187037, Note_on_c, 0, 86, 76
1, 187043, Control_c, 0, 64, 121
1, 187046, Note_off_c, 0, 93, 55
1, 187055, Note_on_c, 0, 45, 74
1, 187055, Note_off_c, 0, 92, 40
1, 187058, Control_c, 0, 64, 80
1, 187066, Note_on_c, 0, 47, 75
1, 187070, Note_on_c, 0, 49, 60
1, 187071, Note_on_c, 0, 99, 98
1, 187073, Control_c, 0, 64, 65
1, 187081, Note_off_c, 0, 86, 57
1, 187087, Control_c, 0, 64, 66
1, 187089, Note_off_c, 0, 45, 63
1, 187092, Note_on_c, 0, 97, 63
1, 187093, Note_on_c, 0, 60, 96
1, 187093, Note_off_c, 0, 49, 64
1, 187102, Control_c, 0, 64, 81
1, 187117, Control_c, 0, 64, 121
1, 187119, Note_off_c, 0, 47, 47
1, 187121, Note_off_c, 0, 97, 48
1, 187132, Control_c, 0, 64, 127
1, 187143, Note_off_c, 0, 60, 59
1, 187144, Note_on_c, 0, 54, 3
1, 187165, Note_off_c, 0, 99, 66
1, 187178, Note_on_c, 0, 90, 53
1, 187180, Poly_aftertouch_c, 0, 53, 127
1, 187183, Note_off_c, 0, 54, 47
1, 187201, Note_off_c, 0, 90, 64
1, 187210, Note_on_c, 0, 85, 79
1, 187211, Poly_aftertouch_c, 0, 53, 0
1, 187212, Note_on_c, 0, 43, 76
1, 187214, Note_on_c, 0, 45, 73
1, 187233, Note_on_c, 0, 49, 32
1, 187236, Control_c, 0, 64, 93
1, 187243, Note_off_c, 0, 43, 64
1, 187248, Note_on_c, 0, 91, 79
1, 187248, Note_off_c, 0, 85, 66
1, 187250, Note_on_c, 0, 53, 57
1, 187251, Control_c, 0, 64, 69
1, 187254, Note_on_c, 0, 94, 94
1, 187265, Note_off_c, 0, 45, 64
1, 187265, Control_c, 0, 64, 62
1, 187272, Note_on_c, 0, 58, 101
1, 187275, Note_on_c, 0, 100, 93
1, 187280, Control_c, 0, 64, 68
1, 187295, Control_c, 0, 64, 94
1, 187296, Note_off_c, 0, 91, 61
1, 187297, Note_off_c, 0, 49, 63
1, 187301, Note_on_c, 0, 98, 49
1, 187310, Note_off_c, 0, 53, 66
1, 187310, Control_c, 0, 64, 127
1, 187311, Note_off_c, 0, 94, 66
1, 187317, Note_on_c, 0, 59, 36
1, 187337, Note_off_c, 0, 58, 61
1, 187348, Note_off_c, 0, 59, 53
1, 187374, Note_off_c, 0, 98, 0
1, 187374, Note_on_c, 0, 98, 4
1, 187418, Note_off_c, 0, 100, 47
1, 187422, Note_off_c, 0, 98, 53
1, 187457, Note_on_c, 0, 41, 68
1, 187466, Note_on_c, 0, 86, 75
1, 187468, Note_on_c, 0, 43, 50
1, 187472, Control_c, 0, 64, 90
1, 187487, Control_c, 0, 64, 66
1, 187488, Note_on_c, 0, 47, 67
1, 187507, Note_on_c, 0, 92, 72
1, 187510, Note_off_c, 0, 86, 53
1, 187510, Control_c, 0, 64, 38
1, 187512, Note_off_c, 0, 41, 63
1, 187517, Note_on_c, 0, 50, 66
1, 187521, Note_on_c, 0, 95, 95
1, 187523, Note_on_c, 0, 56, 108
1, 187526, Control_c, 0, 64, 55
1, 187533, Note_off_c, 0, 43, 53
1, 187538, Note_on_c, 0, 101, 103
1, 187541, Control_c, 0, 64, 84
1, 187542, Note_on_c, 0, 97, 71
1, 187550, Note_off_c, 0, 95, 68
1, 187555, Control_c, 0, 64, 127
1, 187557, Note_off_c, 0, 92, 67
1, 187557, Note_off_c, 0, 97, 66
1, 187559, Note_off_c, 0, 56, 68
1, 187565, Note_off_c, 0, 50, 60
1, 187569, Note_off_c, 0, 47, 63
1, 187574, Note_off_c, 0, 101, 66
1, 188004, Note_on_c, 0, 49, 106
1, 188014, Note_on_c, 0, 37, 89
1, 188029, Control_c, 0, 64, 116
1, 188044, Control_c, 0, 64, 87
1, 188059, Note_on_c, 0, 39, 16
1, 188059, Control_c, 0, 64, 69
1, 188074, Control_c, 0, 64, 52
1, 188088, Control_c, 0, 64, 0
1, 188105, Note_off_c, 0, 39, 38
1, 188512, Control_c, 0, 64, 18
1, 188526, Control_c, 0, 64, 38
1, 188541, Control_c, 0, 64, 49
1, 188556, Control_c, 0, 64, 54
1, 188556, Control_c, 0, 67, 10
1, 188570, Control_c, 0, 64, 57
1, 188570, Control_c, 0, 67, 13
1, 188585, Control_c, 0, 64, 59
1, 188585, Control_c, 0, 67, 16
1, 188600, Control_c, 0, 64, 60
1, 188600, Control_c, 0, 67, 20
1, 188615, Control_c, 0, 64, 61
1, 188615, Control_c, 0, 67, 25
1, 188630, Control_c, 0, 64, 62
1, 188630, Control_c, 0, 67, 32
1, 188644, Control_c, 0, 64, 63
1, 188644, Control_c, 0, 67, 38
1, 188659, Control_c, 0, 64, 64
1, 188659, Control_c, 0, 67, 44
1, 188674, Control_c, 0, 64, 65
1, 188674, Control_c, 0, 67, 50
1, 188689, Control_c, 0, 64, 67
1, 188689, Control_c, 0, 67, 55
1, 188704, Control_c, 0, 64, 68
1, 188704, Control_c, 0, 67, 59
1, 188718, Control_c, 0, 64, 70
1, 188718, Control_c, 0, 67, 64
1, 188733, Control_c, 0, 64, 72
1, 188733, Control_c, 0, 67, 69
1, 188748, Control_c, 0, 64, 74
1, 188748, Control_c, 0, 67, 73
1, 188763, Control_c, 0, 64, 76
1, 188763, Control_c, 0, 67, 78
1, 188778, Control_c, 0, 64, 77
1, 188778, Control_c, 0, 67, 82
1, 188793, Control_c, 0, 64, 78
1, 188793, Control_c, 0, 67, 87
1, 188793, Note_off_c, 0, 49, 55
1, 188802, Note_off_c, 0, 37, 59
1, 188807, Control_c, 0, 64, 78
1, 188807, Control_c, 0, 67, 90
1, 188822, Control_c, 0, 67, 94
1, 188837, Control_c, 0, 67, 100
1, 188852, Control_c, 0, 67, 107
1, 188867, Control_c, 0, 67, 113
1, 188882, Control_c, 0, 67, 116
1, 188896, Control_c, 0, 67, 116
1, 188941, Control_c, 0, 67, 117
1, 188992, Control_c, 0, 64, 78
1, 189037, Control_c, 0, 64, 77
1, 189037, Control_c, 0, 67, 118
1, 189052, Control_c, 0, 67, 119
1, 189067, Control_c, 0, 64, 77
1, 189067, Control_c, 0, 67, 121
1, 189082, Control_c, 0, 64, 76
1, 189082, Control_c, 0, 67, 121
1, 189111, Control_c, 0, 67, 122
1, 189127, Control_c, 0, 64, 76
1, 189141, Control_c, 0, 64, 75
1, 189156, Control_c, 0, 64, 74
1, 189171, Control_c, 0, 64, 72
1, 189186, Control_c, 0, 64, 68
1, 189201, Control_c, 0, 64, 62
1, 189216, Control_c, 0, 64, 51
1, 189231, Control_c, 0, 64, 18
1, 189246, Control_c, 0, 64, 0
1, 189263, Note_on_c, 0, 40, 44
1, 189274, Note_on_c, 0, 31, 26
1, 189294, Note_off_c, 0, 40, 50
1, 189316, Note_off_c, 0, 31, 37
1, 189493, Note_on_c, 0, 60, 53
1, 189495, Note_on_c, 0, 48, 56
1, 189514, Note_off_c, 0, 60, 57
1, 189518, Note_off_c, 0, 48, 59
1, 189541, Control_c, 0, 67, 121
1, 189592, Note_on_c, 0, 41, 60
1, 189597, Note_on_c, 0, 32, 50
1, 189611, Note_on_c, 0, 29, 28
1, 189622, Note_off_c, 0, 41, 65
1, 189627, Note_off_c, 0, 32, 57
1, 189653, Note_off_c, 0, 29, 30
1, 189665, Note_on_c, 0, 47, 56
1, 189675, Control_c, 0, 67, 121
1, 189690, Note_off_c, 0, 47, 58
1, 189690, Control_c, 0, 67, 120
1, 189760, Note_on_c, 0, 60, 66
1, 189766, Note_on_c, 0, 48, 56
1, 189790, Note_off_c, 0, 60, 60
1, 189794, Note_off_c, 0, 48, 64
1, 189830, Note_on_c, 0, 43, 63
1, 189832, Note_on_c, 0, 31, 63
1, 189836, Note_on_c, 0, 34, 58
1, 189859, Note_off_c, 0, 43, 61
1, 189865, Note_off_c, 0, 31, 64
1, 189867, Note_off_c, 0, 34, 61
1, 189909, Note_on_c, 0, 49, 60
1, 189916, Note_on_c, 0, 61, 48
1, 189940, Note_off_c, 0, 49, 64
1, 189940, Note_off_c, 0, 61, 57
1, 189996, Note_on_c, 0, 60, 47
1, 189997, Note_on_c, 0, 48, 38
1, 190020, Note_off_c, 0, 60, 56
1, 190024, Note_off_c, 0, 48, 49
1, 190045, Note_on_c, 0, 40, 65
1, 190049, Note_on_c, 0, 31, 60
1, 190060, Note_on_c, 0, 28, 46
1, 190069, Note_off_c, 0, 40, 62
1, 190079, Note_off_c, 0, 31, 62
1, 190092, Note_off_c, 0, 28, 44
1, 190101, Note_on_c, 0, 47, 69
1, 190111, Note_on_c, 0, 59, 46
1, 190128, Control_c, 0, 67, 120
1, 190131, Note_off_c, 0, 47, 65
1, 190137, Note_off_c, 0, 59, 54
1, 190176, Note_on_c, 0, 60, 69
1, 190191, Note_on_c, 0, 48, 50
1, 190215, Note_off_c, 0, 48, 58
1, 190226, Note_off_c, 0, 60, 58
1, 190247, Control_c, 0, 67, 119
1, 190248, Note_on_c, 0, 41, 77
1, 190259, Note_on_c, 0, 29, 57
1, 190262, Control_c, 0, 67, 119
1, 190262, Note_on_c, 0, 32, 67
1, 190282, Note_off_c, 0, 41, 67
1, 190289, Note_off_c, 0, 29, 58
1, 190291, Note_off_c, 0, 32, 63
1, 190316, Note_on_c, 0, 49, 71
1, 190328, Note_on_c, 0, 61, 50
1, 190336, Control_c, 0, 67, 118
1, 190345, Note_off_c, 0, 49, 63
1, 190350, Note_off_c, 0, 61, 56
1, 190372, Note_on_c, 0, 48, 48
1, 190379, Control_c, 0, 67, 118
1, 190398, Note_off_c, 0, 48, 61
1, 190400, Note_on_c, 0, 60, 54
1, 190423, Note_on_c, 0, 62, 30
1, 190430, Note_off_c, 0, 60, 65
1, 190453, Note_on_c, 0, 44, 83
1, 190457, Note_off_c, 0, 62, 32
1, 190471, Note_on_c, 0, 32, 61
1, 190472, Note_on_c, 0, 36, 56
1, 190507, Note_off_c, 0, 36, 61
1, 190510, Note_off_c, 0, 32, 62
1, 190511, Note_off_c, 0, 44, 62
1, 190513, Note_on_c, 0, 55, 77
1, 190526, Note_on_c, 0, 67, 58
1, 190537, Note_off_c, 0, 55, 66
1, 190548, Note_off_c, 0, 67, 58
1, 190583, Note_on_c, 0, 65, 60
1, 190599, Note_on_c, 0, 53, 70
1, 190616, Note_off_c, 0, 65, 66
1, 190624, Note_off_c, 0, 53, 66
1, 190638, Control_c, 0, 67, 117
1, 190671, Note_on_c, 0, 43, 71
1, 190676, Note_on_c, 0, 34, 70
1, 190678, Note_on_c, 0, 41, 70
1, 190701, Note_off_c, 0, 43, 62
1, 190704, Note_off_c, 0, 41, 68
1, 190709, Note_off_c, 0, 34, 62
1, 190713, Control_c, 0, 67, 117
1, 190726, Note_on_c, 0, 51, 76
1, 190727, Note_on_c, 0, 63, 73
1, 190750, Note_off_c, 0, 51, 65
1, 190753, Note_off_c, 0, 63, 66
1, 190772, Control_c, 0, 67, 116
1, 190787, Control_c, 0, 67, 115
1, 190817, Control_c, 0, 67, 115
1, 190822, Note_on_c, 0, 61, 74
1, 190824, Note_on_c, 0, 49, 69
1, 190846, Control_c, 0, 67, 114
1, 190849, Note_off_c, 0, 61, 61
1, 190855, Note_off_c, 0, 49, 63
1, 190861, Control_c, 0, 67, 113
1, 190876, Control_c, 0, 67, 112
1, 190879, Note_on_c, 0, 43, 75
1, 190887, Note_on_c, 0, 37, 73
1, 190892, Note_on_c, 0, 41, 59
1, 190906, Control_c, 0, 67, 111
1, 190909, Note_off_c, 0, 43, 64
1, 190914, Note_off_c, 0, 37, 64
1, 190918, Note_off_c, 0, 41, 62
1, 190921, Control_c, 0, 67, 110
1, 190932, Note_on_c, 0, 48, 68
1, 190933, Note_on_c, 0, 60, 57
1, 190936, Control_c, 0, 67, 106
1, 190951, Control_c, 0, 67, 102
1, 190951, Note_off_c, 0, 48, 65
1, 190953, Note_off_c, 0, 60, 60
1, 190965, Control_c, 0, 67, 101
1, 190995, Control_c, 0, 67, 100
1, 191010, Control_c, 0, 67, 97
1, 191019, Note_on_c, 0, 58, 62
1, 191022, Note_on_c, 0, 46, 67
1, 191025, Control_c, 0, 67, 94
1, 191039, Control_c, 0, 67, 92
1, 191040, Note_off_c, 0, 58, 61
1, 191052, Note_off_c, 0, 46, 63
1, 191054, Control_c, 0, 67, 92
1, 191069, Control_c, 0, 67, 91
1, 191084, Control_c, 0, 67, 90
1, 191088, Note_on_c, 0, 41, 85
1, 191099, Control_c, 0, 67, 86
1, 191102, Note_on_c, 0, 36, 66
1, 191113, Control_c, 0, 67, 82
1, 191120, Note_off_c, 0, 41, 67
1, 191128, Control_c, 0, 67, 79
1, 191132, Note_off_c, 0, 36, 64
1, 191143, Control_c, 0, 67, 76
1, 191144, Note_on_c, 0, 58, 63
1, 191146, Note_on_c, 0, 46, 70
1, 191158, Control_c, 0, 67, 72
1, 191168, Note_off_c, 0, 46, 65
1, 191172, Control_c, 0, 67, 65
1, 191175, Note_off_c, 0, 58, 65
1, 191187, Control_c, 0, 67, 59
1, 191202, Control_c, 0, 67, 55
1, 191217, Control_c, 0, 67, 54
1, 191232, Control_c, 0, 67, 53
1, 191243, Note_on_c, 0, 56, 74
1, 191249, Note_on_c, 0, 44, 64
1, 191254, Control_c, 0, 67, 50
1, 191269, Control_c, 0, 67, 46
1, 191281, Note_off_c, 0, 44, 64
1, 191284, Control_c, 0, 67, 42
1, 191285, Note_off_c, 0, 56, 53
1, 191298, Control_c, 0, 67, 41
1, 191302, Note_on_c, 0, 41, 82
1, 191307, Note_on_c, 0, 44, 67
1, 191313, Control_c, 0, 67, 40
1, 191326, Note_on_c, 0, 36, 52
1, 191328, Control_c, 0, 67, 38
1, 191334, Note_off_c, 0, 41, 65
1, 191343, Control_c, 0, 67, 32
1, 191346, Note_off_c, 0, 44, 54
1, 191353, Note_off_c, 0, 36, 55
1, 191358, Control_c, 0, 67, 22
1, 191372, Control_c, 0, 67, 18
1, 191376, Note_on_c, 0, 49, 68
1, 191387, Control_c, 0, 67, 17
1, 191389, Note_on_c, 0, 61, 56
1, 191402, Control_c, 0, 67, 15
1, 191417, Control_c, 0, 67, 8
1, 191432, Control_c, 0, 67, 0
1, 191448, Note_on_c, 0, 48, 67
1, 191450, Note_off_c, 0, 49, 38
1, 191469, Note_off_c, 0, 61, 64
1, 191475, Note_off_c, 0, 48, 67
1, 191496, Note_on_c, 0, 40, 86
1, 191514, Note_on_c, 0, 36, 53
1, 191538, Note_off_c, 0, 40, 64
1, 191542, Note_off_c, 0, 36, 58
1, 191579, Note_on_c, 0, 56, 64
1, 191580, Note_on_c, 0, 44, 72
1, 191614, Note_off_c, 0, 56, 59
1, 191627, Note_off_c, 0, 44, 63
1, 191652, Note_on_c, 0, 45, 69
1, 191670, Note_on_c, 0, 57, 57
1, 191676, Poly_aftertouch_c, 0, 56, 0
1, 191678, Note_on_c, 0, 43, 24
1, 191679, Note_off_c, 0, 43, 127
1, 191683, Note_off_c, 0, 45, 68
1, 191708, Note_off_c, 0, 57, 63
1, 191711, Note_on_c, 0, 40, 80
1, 191712, Note_on_c, 0, 46, 88
1, 191712, Note_on_c, 0, 36, 58
1, 191747, Note_off_c, 0, 36, 64
1, 191747, Note_off_c, 0, 40, 65
1, 191754, Note_off_c, 0, 46, 51
1, 191785, Note_on_c, 0, 49, 80
1, 191789, Note_on_c, 0, 61, 69
1, 191808, Note_off_c, 0, 49, 68
1, 191828, Note_off_c, 0, 61, 50
1, 191831, Note_on_c, 0, 48, 68
1, 191857, Note_on_c, 0, 60, 76
1, 191874, Note_off_c, 0, 48, 65
1, 191908, Note_off_c, 0, 60, 65
1, 191927, Note_on_c, 0, 52, 95
1, 191931, Note_on_c, 0, 40, 75
1, 191931, Note_on_c, 0, 43, 69
1, 191968, Note_off_c, 0, 43, 63
1, 191971, Note_off_c, 0, 40, 64
1, 191977, Note_off_c, 0, 52, 63
1, 192008, Note_on_c, 0, 61, 69
1, 192017, Note_on_c, 0, 73, 54
1, 192018, Note_off_c, 0, 73, 127
1, 192024, Note_off_c, 0, 61, 65
1, 192042, Note_on_c, 0, 60, 50
1, 192067, Note_on_c, 0, 72, 68
1, 192114, Note_off_c, 0, 60, 63
1, 192116, Note_off_c, 0, 72, 65
1, 192143, Note_on_c, 0, 53, 84
1, 192148, Note_on_c, 0, 44, 71
1, 192152, Note_on_c, 0, 41, 65
1, 192182, Note_off_c, 0, 41, 64
1, 192186, Note_off_c, 0, 44, 60
1, 192194, Note_off_c, 0, 53, 63
1, 192200, Note_on_c, 0, 59, 73
1, 192219, Note_on_c, 0, 71, 46
1, 192224, Note_off_c, 0, 59, 68
1, 192244, Note_off_c, 0, 71, 55
1, 192283, Note_on_c, 0, 72, 77
1, 192283, Note_on_c, 0, 60, 80
1, 192313, Note_off_c, 0, 60, 63
1, 192327, Note_off_c, 0, 72, 67
1, 192351, Note_on_c, 0, 55, 90
1, 192358, Note_on_c, 0, 43, 73
1, 192359, Note_on_c, 0, 46, 86
1, 192390, Note_off_c, 0, 55, 57
1, 192394, Note_off_c, 0, 46, 61
1, 192402, Note_off_c, 0, 43, 60
1, 192416, Note_on_c, 0, 61, 81
1, 192422, Note_on_c, 0, 73, 76
1, 192437, Note_off_c, 0, 61, 67
1, 192444, Note_off_c, 0, 73, 70
1, 192483, Note_on_c, 0, 60, 57
1, 192496, Note_on_c, 0, 72, 80
1, 192528, Note_off_c, 0, 72, 61
1, 192533, Note_off_c, 0, 60, 62
1, 192557, Note_on_c, 0, 52, 95
1, 192570, Note_on_c, 0, 40, 70
1, 192572, Note_on_c, 0, 43, 71
1, 192602, Note_off_c, 0, 40, 63
1, 192606, Note_off_c, 0, 43, 64
1, 192607, Note_off_c, 0, 52, 62
1, 192610, Note_on_c, 0, 59, 87
1, 192615, Note_on_c, 0, 71, 79
1, 192632, Note_off_c, 0, 59, 68
1, 192637, Note_off_c, 0, 71, 68
1, 192695, Note_on_c, 0, 72, 85
1, 192695, Note_on_c, 0, 60, 86
1, 192724, Note_off_c, 0, 60, 62
1, 192748, Note_off_c, 0, 72, 63
1, 192769, Note_on_c, 0, 53, 100
1, 192779, Note_on_c, 0, 41, 78
1, 192781, Note_on_c, 0, 44, 83
1, 192808, Note_off_c, 0, 44, 66
1, 192811, Note_off_c, 0, 41, 66
1, 192823, Note_on_c, 0, 61, 94
1, 192828, Note_off_c, 0, 53, 63
1, 192831, Note_on_c, 0, 73, 81
1, 192850, Note_off_c, 0, 73, 71
1, 192870, Note_off_c, 0, 61, 61
1, 192889, Note_on_c, 0, 60, 82
1, 192903, Note_on_c, 0, 72, 87
1, 192921, Note_off_c, 0, 60, 64
1, 192948, Note_off_c, 0, 72, 68
1, 192967, Note_on_c, 0, 56, 100
1, 192981, Note_on_c, 0, 53, 60
1, 192984, Note_on_c, 0, 49, 44
1, 192994, Note_on_c, 0, 48, 66
1, 193013, Note_off_c, 0, 53, 67
1, 193023, Note_off_c, 0, 48, 66
1, 193025, Note_on_c, 0, 70, 88
1, 193028, Note_off_c, 0, 49, 61
1, 193031, Note_on_c, 0, 80, 79
1, 193043, Note_off_c, 0, 56, 58
1, 193043, Note_off_c, 0, 70, 70
1, 193046, Note_off_c, 0, 80, 67
1, 193099, Note_on_c, 0, 68, 74
1, 193100, Note_on_c, 0, 80, 88
1, 193151, Note_off_c, 0, 80, 65
1, 193153, Note_off_c, 0, 68, 64
1, 193170, Note_on_c, 0, 58, 94
1, 193181, Note_on_c, 0, 53, 75
1, 193184, Note_on_c, 0, 49, 76
1, 193207, Note_off_c, 0, 53, 68
1, 193219, Note_off_c, 0, 58, 65
1, 193228, Note_on_c, 0, 67, 82
1, 193228, Note_on_c, 0, 79, 78
1, 193239, Note_off_c, 0, 49, 60
1, 193246, Note_off_c, 0, 79, 67
1, 193248, Note_off_c, 0, 67, 70
1, 193302, Note_on_c, 0, 77, 78
1, 193306, Note_on_c, 0, 65, 89
1, 193337, Note_off_c, 0, 77, 59
1, 193341, Note_off_c, 0, 65, 65
1, 193389, Note_on_c, 0, 55, 84
1, 193396, Note_on_c, 0, 46, 75
1, 193401, Note_on_c, 0, 53, 63
1, 193418, Note_off_c, 0, 55, 60
1, 193421, Note_off_c, 0, 46, 65
1, 193432, Note_on_c, 0, 63, 92
1, 193433, Note_off_c, 0, 53, 65
1, 193446, Note_on_c, 0, 75, 65
1, 193464, Note_off_c, 0, 75, 66
1, 193466, Note_off_c, 0, 63, 60
1, 193527, Note_on_c, 0, 73, 81
1, 193532, Note_on_c, 0, 61, 78
1, 193556, Note_off_c, 0, 61, 65
1, 193565, Note_off_c, 0, 73, 61
1, 193590, Control_c, 0, 64, 42
1, 193595, Note_on_c, 0, 56, 93
1, 193599, Note_on_c, 0, 48, 79
1, 193605, Control_c, 0, 64, 57
1, 193620, Control_c, 0, 64, 60
1, 193628, Note_off_c, 0, 48, 68
1, 193636, Note_off_c, 0, 56, 60
1, 193644, Note_on_c, 0, 61, 81
1, 193649, Control_c, 0, 64, 57
1, 193655, Note_on_c, 0, 73, 73
1, 193664, Control_c, 0, 64, 51
1, 193665, Note_off_c, 0, 61, 68
1, 193676, Note_off_c, 0, 73, 71
1, 193679, Control_c, 0, 64, 33
1, 193693, Control_c, 0, 64, 0
1, 193724, Note_on_c, 0, 60, 79
1, 193729, Note_on_c, 0, 72, 83
1, 193765, Note_off_c, 0, 72, 65
1, 193770, Note_off_c, 0, 60, 62
1, 193797, Note_on_c, 0, 44, 76
1, 193800, Note_on_c, 0, 48, 96
1, 193819, Note_on_c, 0, 36, 49
1, 193834, Note_off_c, 0, 44, 62
1, 193837, Note_off_c, 0, 48, 68
1, 193842, Note_on_c, 0, 59, 94
1, 193850, Note_on_c, 0, 71, 80
1, 193851, Note_off_c, 0, 36, 35
1, 193871, Note_off_c, 0, 71, 67
1, 193877, Note_off_c, 0, 59, 58
1, 193934, Note_on_c, 0, 60, 91
1, 193936, Note_on_c, 0, 72, 89
1, 193973, Note_off_c, 0, 60, 59
1, 193976, Control_c, 0, 64, 34
1, 193979, Note_off_c, 0, 72, 64
1, 193991, Control_c, 0, 64, 46
1, 194004, Note_on_c, 0, 58, 106
1, 194006, Control_c, 0, 64, 43
1, 194020, Note_on_c, 0, 52, 60
1, 194021, Control_c, 0, 64, 0
1, 194023, Note_on_c, 0, 48, 62
1, 194041, Note_off_c, 0, 52, 65
1, 194045, Note_off_c, 0, 58, 67
1, 194052, Note_on_c, 0, 61, 94
1, 194054, Note_off_c, 0, 48, 67
1, 194056, Note_on_c, 0, 73, 87
1, 194086, Note_off_c, 0, 73, 64
1, 194090, Note_off_c, 0, 61, 64
1, 194125, Note_on_c, 0, 60, 84
1, 194134, Note_on_c, 0, 72, 92
1, 194161, Note_off_c, 0, 60, 63
1, 194189, Note_off_c, 0, 72, 67
1, 194209, Note_on_c, 0, 46, 95
1, 194212, Note_on_c, 0, 48, 97
1, 194212, Control_c, 0, 64, 40
1, 194216, Note_on_c, 0, 36, 77
1, 194235, Control_c, 0, 64, 78
1, 194248, Note_off_c, 0, 36, 65
1, 194250, Control_c, 0, 64, 104
1, 194264, Control_c, 0, 64, 127
1, 194265, Note_off_c, 0, 46, 62
1, 194282, Note_off_c, 0, 48, 62
1, 194288, Note_on_c, 0, 73, 94
1, 194294, Note_on_c, 0, 85, 83
1, 194310, Note_off_c, 0, 85, 72
1, 194325, Note_off_c, 0, 73, 64
1, 194364, Note_on_c, 0, 41, 76
1, 194366, Note_on_c, 0, 84, 82
1, 194368, Note_on_c, 0, 72, 57
1, 194370, Note_on_c, 0, 86, 85
1, 194373, Note_on_c, 0, 74, 62
1, 194386, Note_off_c, 0, 72, 65
1, 194394, Note_on_c, 0, 48, 67
1, 194397, Control_c, 0, 64, 118
1, 194399, Note_off_c, 0, 74, 69
1, 194412, Control_c, 0, 64, 73
1, 194414, Note_off_c, 0, 86, 65
1, 194415, Note_off_c, 0, 41, 65
1, 194418, Note_off_c, 0, 84, 64
1, 194427, Control_c, 0, 64, 49
1, 194442, Control_c, 0, 64, 56
1, 194447, Note_on_c, 0, 56, 107
1, 194456, Control_c, 0, 64, 73
1, 194465, Note_off_c, 0, 48, 64
1, 194471, Control_c, 0, 64, 101
1, 194486, Control_c, 0, 64, 127
1, 194505, Note_off_c, 0, 56, 55
1, 194519, Note_on_c, 0, 85, 93
1, 194522, Note_on_c, 0, 97, 86
1, 194540, Note_off_c, 0, 97, 71
1, 194553, Note_off_c, 0, 85, 60
1, 194587, Note_on_c, 0, 96, 96
1, 194592, Note_on_c, 0, 84, 87
1, 194618, Note_off_c, 0, 84, 63
1, 194625, Note_on_c, 0, 44, 76
1, 194626, Note_off_c, 0, 96, 66
1, 194635, Control_c, 0, 64, 99
1, 194646, Note_off_c, 0, 44, 68
1, 194650, Control_c, 0, 64, 69
1, 194658, Note_on_c, 0, 53, 60
1, 194664, Control_c, 0, 64, 36
1, 194673, Note_on_c, 0, 60, 101
1, 194679, Control_c, 0, 64, 47
1, 194684, Note_on_c, 0, 56, 66
1, 194694, Control_c, 0, 64, 70
1, 194708, Note_off_c, 0, 56, 64
1, 194710, Control_c, 0, 64, 87
1, 194716, Note_off_c, 0, 53, 47
1, 194725, Control_c, 0, 64, 127
1, 194726, Note_off_c, 0, 60, 62
1, 194736, Note_on_c, 0, 82, 94
1, 194739, Note_on_c, 0, 94, 90
1, 194754, Note_off_c, 0, 82, 71
1, 194755, Note_off_c, 0, 94, 74
1, 194811, Note_on_c, 0, 46, 81
1, 194814, Note_on_c, 0, 92, 103
1, 194815, Note_on_c, 0, 80, 94
1, 194835, Note_on_c, 0, 53, 39
1, 194842, Control_c, 0, 64, 92
1, 194850, Note_off_c, 0, 46, 64
1, 194855, Note_off_c, 0, 80, 64
1, 194857, Control_c, 0, 64, 68
1, 194861, Note_off_c, 0, 92, 67
1, 194867, Note_on_c, 0, 55, 44
1, 194872, Control_c, 0, 64, 59
1, 194874, Note_on_c, 0, 61, 117
1, 194886, Control_c, 0, 64, 68
1, 194895, Note_off_c, 0, 55, 63
1, 194900, Note_off_c, 0, 53, 65
1, 194901, Control_c, 0, 64, 80
1, 194916, Control_c, 0, 64, 103
1, 194930, Control_c, 0, 64, 127
1, 194931, Note_on_c, 0, 79, 93
1, 194932, Note_on_c, 0, 91, 84
1, 194937, Note_off_c, 0, 61, 64
1, 194949, Note_off_c, 0, 79, 70
1, 194952, Note_off_c, 0, 91, 66
1, 194960, Note_on_c, 0, 89, 51
1, 194961, Note_off_c, 0, 89, 127
1, 195014, Note_on_c, 0, 89, 84
1, 195019, Note_on_c, 0, 77, 92
1, 195049, Note_on_c, 0, 53, 55
1, 195052, Note_off_c, 0, 89, 64
1, 195055, Note_off_c, 0, 77, 62
1, 195057, Control_c, 0, 64, 96
1, 195066, Note_on_c, 0, 58, 60
1, 195072, Control_c, 0, 64, 65
1, 195086, Control_c, 0, 64, 0
1, 195088, Note_on_c, 0, 65, 102
1, 195101, Control_c, 0, 64, 41
1, 195116, Control_c, 0, 64, 65
1, 195126, Note_off_c, 0, 65, 67
1, 195131, Control_c, 0, 64, 80
1, 195133, Note_off_c, 0, 58, 64
1, 195142, Note_on_c, 0, 75, 90
1, 195145, Note_off_c, 0, 53, 65
1, 195145, Note_on_c, 0, 87, 80
1, 195145, Control_c, 0, 64, 108
1, 195160, Note_off_c, 0, 87, 70
1, 195160, Control_c, 0, 64, 127
1, 195166, Note_off_c, 0, 75, 65
1, 195214, Note_on_c, 0, 73, 94
1, 195214, Note_on_c, 0, 85, 89
1, 195256, Note_off_c, 0, 73, 63
1, 195264, Control_c, 0, 64, 106
1, 195267, Note_off_c, 0, 85, 61
1, 195279, Control_c, 0, 64, 73
1, 195293, Note_on_c, 0, 56, 86
1, 195294, Note_on_c, 0, 60, 93
1, 195294, Control_c, 0, 64, 36
1, 195301, Note_on_c, 0, 48, 79
1, 195309, Control_c, 0, 64, 0
1, 195310, Note_on_c, 0, 53, 63
1, 195310, Note_off_c, 0, 60, 72
1, 195324, Control_c, 0, 64, 49
1, 195324, Note_off_c, 0, 56, 62
1, 195329, Note_off_c, 0, 53, 65
1, 195336, Note_off_c, 0, 48, 64
1, 195338, Control_c, 0, 64, 66
1, 195345, Note_on_c, 0, 73, 89
1, 195351, Note_on_c, 0, 85, 79
1, 195353, Control_c, 0, 64, 75
1, 195368, Control_c, 0, 64, 80
1, 195368, Note_off_c, 0, 85, 72
1, 195379, Note_off_c, 0, 73, 63
1, 195383, Control_c, 0, 64, 84
1, 195398, Control_c, 0, 64, 89
1, 195412, Control_c, 0, 64, 96
1, 195424, Note_on_c, 0, 72, 86
1, 195427, Control_c, 0, 64, 104
1, 195429, Note_on_c, 0, 84, 87
1, 195442, Control_c, 0, 64, 107
1, 195456, Control_c, 0, 64, 105
1, 195467, Note_off_c, 0, 72, 65
1, 195471, Control_c, 0, 64, 99
1, 195473, Note_off_c, 0, 84, 63
1, 195486, Control_c, 0, 64, 83
1, 195501, Note_on_c, 0, 48, 102
1, 195502, Control_c, 0, 64, 64
1, 195517, Control_c, 0, 64, 0
1, 195533, Note_on_c, 0, 36, 34
1, 195534, Note_off_c, 0, 36, 127
1, 195539, Note_off_c, 0, 48, 66
1, 195547, Control_c, 0, 64, 42
1, 195556, Note_on_c, 0, 71, 83
1, 195561, Note_on_c, 0, 83, 82
1, 195561, Control_c, 0, 64, 64
1, 195576, Control_c, 0, 64, 71
1, 195577, Note_off_c, 0, 71, 66
1, 195580, Note_off_c, 0, 83, 68
1, 195591, Control_c, 0, 64, 80
1, 195606, Control_c, 0, 64, 89
1, 195621, Control_c, 0, 64, 108
1, 195635, Control_c, 0, 64, 127
1, 195639, Note_on_c, 0, 72, 94
1, 195642, Note_on_c, 0, 84, 92
1, 195672, Note_on_c, 0, 78, 49
1, 195675, Note_on_c, 0, 82, 42
1, 195675, Note_off_c, 0, 72, 65
1, 195680, Control_c, 0, 64, 99
1, 195681, Note_off_c, 0, 84, 65
1, 195695, Control_c, 0, 64, 70
1, 195696, Note_off_c, 0, 78, 58
1, 195700, Note_off_c, 0, 82, 39
1, 195704, Note_on_c, 0, 58, 106
1, 195709, Control_c, 0, 64, 50
1, 195720, Note_on_c, 0, 48, 71
1, 195724, Control_c, 0, 64, 59
1, 195738, Note_on_c, 0, 52, 40
1, 195743, Note_on_c, 0, 49, 48
1, 195747, Control_c, 0, 64, 76
1, 195756, Note_off_c, 0, 48, 66
1, 195761, Control_c, 0, 64, 103
1, 195762, Note_on_c, 0, 73, 99
1, 195764, Note_off_c, 0, 58, 64
1, 195768, Note_on_c, 0, 85, 88
1, 195770, Note_off_c, 0, 52, 55
1, 195771, Note_off_c, 0, 49, 45
1, 195776, Control_c, 0, 64, 127
1, 195783, Note_off_c, 0, 85, 75
1, 195798, Note_off_c, 0, 73, 58
1, 195799, Note_on_c, 0, 72, 50
1, 195831, Note_off_c, 0, 72, 0
1, 195836, Note_on_c, 0, 84, 72
1, 195843, Note_on_c, 0, 72, 77
1, 195873, Note_on_c, 0, 71, 6
1, 195873, Note_off_c, 0, 72, 65
1, 195880, Control_c, 0, 64, 113
1, 195884, Note_off_c, 0, 84, 65
1, 195894, Control_c, 0, 64, 73
1, 195909, Control_c, 0, 64, 21
1, 195914, Note_off_c, 0, 71, 48
1, 195914, Note_on_c, 0, 46, 93
1, 195917, Note_on_c, 0, 48, 102
1, 195923, Note_on_c, 0, 36, 81
1, 195924, Control_c, 0, 64, 0
1, 195939, Control_c, 0, 64, 54
1, 195942, Note_on_c, 0, 40, 39
1, 195951, Note_off_c, 0, 36, 64
1, 195954, Control_c, 0, 64, 70
1, 195968, Control_c, 0, 64, 83
1, 195978, Note_off_c, 0, 46, 62
1, 195978, Note_off_c, 0, 40, 32
1, 195983, Control_c, 0, 64, 100
1, 195994, Note_on_c, 0, 71, 107
1, 195998, Control_c, 0, 64, 127
1, 196003, Note_on_c, 0, 83, 92
1, 196003, Note_off_c, 0, 48, 61
1, 196021, Note_off_c, 0, 83, 71
1, 196027, Note_on_c, 0, 81, 60
1, 196027, Note_off_c, 0, 71, 64
1, 196031, Note_on_c, 0, 75, 41
1, 196044, Note_off_c, 0, 81, 64
1, 196054, Note_on_c, 0, 80, 4
1, 196055, Note_off_c, 0, 80, 127
1, 196057, Note_off_c, 0, 75, 59
1, 196083, Note_on_c, 0, 84, 108
1, 196085, Note_on_c, 0, 74, 100
1, 196090, Note_on_c, 0, 72, 77
1, 196091, Note_off_c, 0, 72, 127
1, 196099, Note_on_c, 0, 41, 82
1, 196114, Note_off_c, 0, 74, 72
1, 196131, Note_off_c, 0, 84, 69
1, 196153, Note_on_c, 0, 48, 80
1, 196165, Note_off_c, 0, 41, 64
1, 196176, Control_c, 0, 64, 97
1, 196191, Control_c, 0, 64, 76
1, 196198, Note_on_c, 0, 56, 104
1, 196206, Control_c, 0, 64, 72
1, 196209, Note_off_c, 0, 48, 59
1, 196221, Control_c, 0, 64, 86
1, 196236, Control_c, 0, 64, 127
1, 196252, Note_on_c, 0, 51, 37
1, 196282, Note_off_c, 0, 51, 47
1, 196285, Note_on_c, 0, 89, 122
1, 196287, Note_on_c, 0, 101, 107
1, 196313, Note_off_c, 0, 56, 55
1, 196316, Note_on_c, 0, 100, 51
1, 196321, Note_off_c, 0, 89, 69
1, 196325, Note_off_c, 0, 101, 67
1, 196337, Note_off_c, 0, 100, 58
1, 196396, Note_on_c, 0, 85, 108
1, 196397, Note_on_c, 0, 97, 108
1, 196445, Note_on_c, 0, 87, 21
1, 196450, Note_off_c, 0, 85, 62
1, 196453, Note_off_c, 0, 97, 68
1, 196454, Note_on_c, 0, 44, 79
1, 196488, Note_off_c, 0, 44, 66
1, 196492, Note_off_c, 0, 87, 40
1, 196496, Control_c, 0, 64, 100
1, 196498, Note_on_c, 0, 53, 80
1, 196510, Control_c, 0, 64, 69
1, 196521, Note_on_c, 0, 60, 101
1, 196525, Control_c, 0, 64, 50
1, 196540, Control_c, 0, 64, 52
1, 196546, Note_on_c, 0, 56, 56
1, 196555, Control_c, 0, 64, 63
1, 196564, Note_off_c, 0, 56, 63
1, 196570, Control_c, 0, 64, 75
1, 196579, Note_off_c, 0, 60, 60
1, 196582, Note_on_c, 0, 84, 103
1, 196583, Note_on_c, 0, 96, 94
1, 196585, Control_c, 0, 64, 98
1, 196598, Note_off_c, 0, 96, 74
1, 196600, Control_c, 0, 64, 127
1, 196601, Note_off_c, 0, 84, 68
1, 196659, Note_on_c, 0, 46, 85
1, 196662, Note_on_c, 0, 80, 100
1, 196664, Note_on_c, 0, 92, 90
1, 196683, Note_on_c, 0, 90, 73
1, 196685, Note_off_c, 0, 53, 0
1, 196699, Note_on_c, 0, 53, 33
1, 196700, Note_off_c, 0, 90, 46
1, 196704, Control_c, 0, 64, 95
1, 196707, Note_off_c, 0, 80, 62
1, 196716, Note_off_c, 0, 92, 66
1, 196718, Control_c, 0, 64, 74
1, 196720, Note_off_c, 0, 46, 65
1, 196733, Control_c, 0, 64, 71
1, 196736, Note_on_c, 0, 61, 116
1, 196748, Control_c, 0, 64, 83
1, 196757, Note_on_c, 0, 55, 37
1, 196763, Note_off_c, 0, 53, 65
1, 196763, Control_c, 0, 64, 127
1, 196786, Note_off_c, 0, 55, 56
1, 196793, Note_on_c, 0, 78, 102
1, 196797, Note_on_c, 0, 90, 88
1, 196803, Note_off_c, 0, 61, 63
1, 196826, Note_off_c, 0, 78, 66
1, 196831, Note_off_c, 0, 90, 63
1, 196877, Note_on_c, 0, 77, 94
1, 196878, Note_on_c, 0, 89, 99
1, 196905, Note_on_c, 0, 53, 63
1, 196910, Control_c, 0, 64, 86
1, 196911, Note_off_c, 0, 77, 64
1, 196913, Note_on_c, 0, 58, 74
1, 196913, Note_off_c, 0, 89, 68
1, 196925, Control_c, 0, 64, 63
1, 196939, Note_on_c, 0, 65, 96
1, 196940, Control_c, 0, 64, 54
1, 196955, Control_c, 0, 64, 67
1, 196970, Control_c, 0, 64, 83
1, 196975, Note_off_c, 0, 58, 66
1, 196981, Note_off_c, 0, 65, 67
1, 196984, Control_c, 0, 64, 127
1, 197000, Note_off_c, 0, 53, 65
1, 197007, Note_on_c, 0, 73, 101
1, 197008, Note_on_c, 0, 85, 97
1, 197026, Note_off_c, 0, 85, 70
1, 197035, Note_off_c, 0, 73, 66
1, 197091, Note_on_c, 0, 82, 99
1, 197091, Note_on_c, 0, 70, 105
1, 197119, Control_c, 0, 64, 102
1, 197127, Note_on_c, 0, 80, 43
1, 197128, Note_off_c, 0, 80, 127
1, 197129, Note_off_c, 0, 70, 63
1, 197133, Control_c, 0, 64, 69
1, 197142, Note_off_c, 0, 82, 62
1, 197145, Note_on_c, 0, 60, 99
1, 197148, Control_c, 0, 64, 49
1, 197150, Note_on_c, 0, 48, 82
1, 197163, Control_c, 0, 64, 65
1, 197164, Note_on_c, 0, 53, 67
1, 197164, Note_on_c, 0, 55, 61
1, 197166, Note_on_c, 0, 56, 62
1, 197178, Control_c, 0, 64, 84
1, 197180, Note_off_c, 0, 60, 59
1, 197188, Note_off_c, 0, 55, 61
1, 197189, Note_off_c, 0, 56, 38
1, 197193, Note_off_c, 0, 53, 67
1, 197193, Control_c, 0, 64, 127
1, 197202, Note_on_c, 0, 50, 9
1, 197204, Note_off_c, 0, 48, 64
1, 197213, Note_on_c, 0, 73, 101
1, 197216, Note_on_c, 0, 85, 95
1, 197240, Note_off_c, 0, 85, 71
1, 197254, Note_off_c, 0, 73, 67
1, 197256, Note_off_c, 0, 50, 36
1, 197299, Note_on_c, 0, 72, 97
1, 197303, Note_on_c, 0, 84, 98
1, 197338, Note_off_c, 0, 72, 64
1, 197340, Note_off_c, 0, 84, 66
1, 197363, Control_c, 0, 64, 86
1, 197364, Note_on_c, 0, 44, 62
1, 197376, Note_on_c, 0, 48, 106
1, 197378, Control_c, 0, 64, 62
1, 197380, Note_on_c, 0, 36, 78
1, 197393, Control_c, 0, 64, 51
1, 197404, Note_off_c, 0, 36, 66
1, 197407, Control_c, 0, 64, 66
1, 197422, Control_c, 0, 64, 85
1, 197423, Note_off_c, 0, 44, 63
1, 197431, Note_off_c, 0, 48, 68
1, 197437, Note_on_c, 0, 80, 97
1, 197437, Note_on_c, 0, 70, 88
1, 197437, Control_c, 0, 64, 127
1, 197443, Note_on_c, 0, 68, 82
1, 197455, Note_off_c, 0, 70, 72
1, 197469, Note_on_c, 0, 78, 43
1, 197470, Note_off_c, 0, 78, 127
1, 197470, Note_off_c, 0, 68, 65
1, 197476, Note_off_c, 0, 80, 62
1, 197525, Note_on_c, 0, 67, 85
1, 197526, Note_on_c, 0, 65, 91
1, 197528, Note_on_c, 0, 79, 82
1, 197531, Note_on_c, 0, 77, 83
1, 197565, Note_off_c, 0, 79, 64
1, 197565, Note_off_c, 0, 65, 65
1, 197574, Note_off_c, 0, 67, 63
1, 197574, Note_off_c, 0, 77, 57
1, 197604, Note_on_c, 0, 58, 88
1, 197614, Note_on_c, 0, 50, 56
1, 197616, Control_c, 0, 64, 93
1, 197617, Note_on_c, 0, 53, 46
1, 197631, Control_c, 0, 64, 65
1, 197635, Note_on_c, 0, 64, 103
1, 197638, Note_off_c, 0, 50, 55
1, 197645, Note_on_c, 0, 59, 82
1, 197646, Control_c, 0, 64, 30
1, 197646, Note_off_c, 0, 53, 49
1, 197655, Note_off_c, 0, 58, 53
1, 197660, Control_c, 0, 64, 59
1, 197667, Note_off_c, 0, 59, 68
1, 197673, Note_off_c, 0, 64, 69
1, 197675, Control_c, 0, 64, 75
1, 197690, Control_c, 0, 64, 100
1, 197705, Control_c, 0, 64, 127
1, 197730, Note_on_c, 0, 61, 100
1, 197738, Note_on_c, 0, 73, 86
1, 197750, Note_on_c, 0, 70, 62
1, 197751, Note_off_c, 0, 70, 127
1, 197758, Note_off_c, 0, 73, 71
1, 197766, Note_off_c, 0, 61, 60
1, 197810, Note_on_c, 0, 60, 98
1, 197815, Note_on_c, 0, 72, 92
1, 197846, Note_on_c, 0, 70, 42
1, 197848, Note_off_c, 0, 60, 66
1, 197849, Note_on_c, 0, 40, 20
1, 197852, Control_c, 0, 64, 103
1, 197867, Control_c, 0, 64, 73
1, 197869, Note_off_c, 0, 70, 59
1, 197872, Note_off_c, 0, 72, 65
1, 197882, Control_c, 0, 64, 43
1, 197898, Control_c, 0, 64, 0
1, 197901, Note_off_c, 0, 40, 0
1, 197901, Note_on_c, 0, 40, 16
1, 197901, Note_on_c, 0, 48, 98
1, 197902, Note_on_c, 0, 46, 96
1, 197913, Control_c, 0, 64, 59
1, 197916, Note_on_c, 0, 36, 64
1, 197927, Note_on_c, 0, 47, 69
1, 197928, Control_c, 0, 64, 82
1, 197935, Note_off_c, 0, 40, 61
1, 197941, Note_off_c, 0, 36, 56
1, 197943, Control_c, 0, 64, 127
1, 197944, Note_off_c, 0, 46, 64
1, 197950, Note_off_c, 0, 48, 64
1, 197958, Note_off_c, 0, 47, 65
1, 198008, Note_on_c, 0, 68, 99
1, 198015, Note_on_c, 0, 80, 81
1, 198029, Note_on_c, 0, 78, 62
1, 198038, Note_off_c, 0, 80, 67
1, 198047, Note_off_c, 0, 78, 63
1, 198050, Note_off_c, 0, 68, 62
1, 198095, Note_on_c, 0, 79, 93
1, 198098, Note_on_c, 0, 67, 90
1, 198116, Note_on_c, 0, 69, 53
1, 198126, Note_on_c, 0, 78, 45
1, 198138, Note_off_c, 0, 67, 64
1, 198139, Note_off_c, 0, 69, 62
1, 198145, Note_off_c, 0, 79, 64
1, 198152, Note_off_c, 0, 78, 54
1, 198157, Control_c, 0, 64, 88
1, 198172, Control_c, 0, 64, 59
1, 198187, Control_c, 0, 64, 0
1, 198207, Note_on_c, 0, 53, 105
1, 198211, Note_on_c, 0, 65, 109
1, 198214, Note_on_c, 0, 77, 102
1, 198215, Note_on_c, 0, 41, 80
1, 198217, Control_c, 0, 64, 49
1, 198218, Note_on_c, 0, 44, 79
1, 198222, Note_on_c, 0, 48, 67
1, 198231, Control_c, 0, 64, 73
1, 198240, Note_off_c, 0, 44, 68
1, 198241, Note_off_c, 0, 41, 68
1, 198243, Note_off_c, 0, 53, 68
1, 198246, Control_c, 0, 64, 103
1, 198247, Note_off_c, 0, 65, 70
1, 198252, Note_off_c, 0, 48, 66
1, 198261, Note_on_c, 0, 75, 19
1, 198261, Control_c, 0, 64, 127
1, 198272, Note_off_c, 0, 77, 66
1, 198298, Note_off_c, 0, 75, 47
1, 198433, Note_on_c, 0, 77, 107
1, 198434, Note_on_c, 0, 89, 107
1, 198466, Note_off_c, 0, 77, 64
1, 198487, Note_off_c, 0, 89, 65
1, 198644, Note_on_c, 0, 89, 115
1, 198646, Note_on_c, 0, 65, 105
1, 198647, Note_on_c, 0, 101, 108
1, 198649, Note_on_c, 0, 53, 81
1, 198667, Note_on_c, 0, 96, 71
1, 198668, Note_off_c, 0, 96, 127
1, 198668, Note_on_c, 0, 100, 66
1, 198669, Note_off_c, 0, 100, 127
1, 198670, Note_off_c, 0, 65, 69
1, 198675, Note_off_c, 0, 89, 70
1, 198680, Note_off_c, 0, 101, 65
1, 198681, Note_off_c, 0, 53, 64
1, 198957, Note_on_c, 0, 41, 88
1, 199000, Note_on_c, 0, 53, 91
1, 199008, Note_off_c, 0, 41, 65
1, 199029, Note_off_c, 0, 53, 64
1, 199033, Note_on_c, 0, 65, 41
1, 199043, Note_on_c, 0, 61, 25
1, 199044, Note_off_c, 0, 61, 127
1, 199051, Note_off_c, 0, 65, 66
1, 199069, Control_c, 0, 64, 96
1, 199076, Note_on_c, 0, 47, 107
1, 199078, Poly_aftertouch_c, 0, 61, 0
1, 199084, Control_c, 0, 64, 63
1, 199085, Note_on_c, 0, 53, 94
1, 199086, Note_on_c, 0, 35, 95
1, 199097, Note_on_c, 0, 37, 72
1, 199098, Control_c, 0, 64, 35
1, 199102, Note_on_c, 0, 65, 81
1, 199113, Control_c, 0, 64, 55
1, 199118, Note_on_c, 0, 59, 49
1, 199120, Note_on_c, 0, 62, 47
1, 199128, Control_c, 0, 64, 69
1, 199143, Control_c, 0, 64, 85
1, 199148, Note_off_c, 0, 37, 56
1, 199158, Control_c, 0, 64, 127
1, 199166, Note_off_c, 0, 65, 62
1, 199170, Note_off_c, 0, 62, 56
1, 199172, Note_off_c, 0, 35, 63
1, 199176, Note_off_c, 0, 53, 64
1, 199180, Note_off_c, 0, 59, 51
1, 199187, Note_off_c, 0, 47, 59
1, 199265, Note_on_c, 0, 48, 104
1, 199267, Note_on_c, 0, 53, 93
1, 199282, Note_on_c, 0, 36, 77
1, 199283, Note_on_c, 0, 65, 68
1, 199288, Note_on_c, 0, 62, 49
1, 199298, Note_on_c, 0, 59, 42
1, 199303, Note_off_c, 0, 48, 67
1, 199309, Note_off_c, 0, 65, 69
1, 199312, Note_off_c, 0, 36, 63
1, 199312, Note_off_c, 0, 62, 57
1, 199313, Note_off_c, 0, 53, 62
1, 199322, Note_off_c, 0, 59, 58
1, 199381, Note_on_c, 0, 49, 102
1, 199382, Note_on_c, 0, 53, 83
1, 199388, Note_on_c, 0, 62, 63
1, 199390, Note_on_c, 0, 37, 86
1, 199396, Note_on_c, 0, 59, 69
1, 199398, Note_on_c, 0, 65, 64
1, 199414, Note_on_c, 0, 50, 46
1, 199417, Note_off_c, 0, 37, 68
1, 199422, Note_off_c, 0, 65, 71
1, 199426, Note_off_c, 0, 49, 62
1, 199436, Note_off_c, 0, 53, 62
1, 199440, Note_off_c, 0, 50, 57
1, 199440, Note_off_c, 0, 62, 56
1, 199457, Note_off_c, 0, 59, 61
1, 199470, Control_c, 0, 64, 97
1, 199489, Note_on_c, 0, 50, 97
1, 199492, Control_c, 0, 64, 70
1, 199500, Note_on_c, 0, 38, 78
1, 199500, Note_on_c, 0, 53, 93
1, 199506, Poly_aftertouch_c, 0, 59, 0
1, 199508, Control_c, 0, 64, 61
1, 199510, Note_on_c, 0, 65, 79
1, 199513, Note_on_c, 0, 59, 53
1, 199514, Note_on_c, 0, 62, 65
1, 199523, Control_c, 0, 64, 70
1, 199530, Note_off_c, 0, 50, 65
1, 199532, Note_off_c, 0, 38, 67
1, 199536, Note_off_c, 0, 53, 67
1, 199537, Control_c, 0, 64, 89
1, 199552, Control_c, 0, 64, 127
1, 199557, Note_off_c, 0, 59, 59
1, 199559, Note_on_c, 0, 63, 35
1, 199566, Note_off_c, 0, 62, 61
1, 199583, Note_off_c, 0, 65, 65
1, 199591, Note_off_c, 0, 63, 45
1, 199597, Note_on_c, 0, 51, 100
1, 199608, Note_on_c, 0, 39, 84
1, 199613, Poly_aftertouch_c, 0, 40, 0
1, 199637, Note_off_c, 0, 39, 68
1, 199640, Note_off_c, 0, 51, 63
1, 199687, Note_on_c, 0, 52, 85
1, 199694, Note_on_c, 0, 40, 75
1, 199725, Note_off_c, 0, 40, 63
1, 199729, Control_c, 0, 64, 91
1, 199732, Note_off_c, 0, 52, 66
1, 199744, Control_c, 0, 64, 54
1, 199759, Control_c, 0, 64, 0
1, 199773, Note_on_c, 0, 65, 100
1, 199780, Note_on_c, 0, 77, 102
1, 199783, Note_on_c, 0, 53, 106
1, 199789, Note_on_c, 0, 41, 58
1, 199789, Control_c, 0, 64, 49
1, 199804, Control_c, 0, 64, 70
1, 199813, Note_off_c, 0, 65, 69
1, 199815, Note_off_c, 0, 41, 62
1, 199816, Note_on_c, 0, 44, 44
1, 199817, Note_on_c, 0, 75, 36
1, 199819, Control_c, 0, 64, 92
1, 199829, Note_off_c, 0, 53, 66
1, 199834, Control_c, 0, 64, 127
1, 199843, Note_off_c, 0, 77, 65
1, 199846, Note_off_c, 0, 44, 55
1, 199846, Note_off_c, 0, 75, 55
1, 199891, Poly_aftertouch_c, 0, 76, 0
1, 199899, Poly_aftertouch_c, 0, 43, 0
1, 199987, Note_on_c, 0, 77, 103
1, 199992, Note_on_c, 0, 89, 93
1, 200004, Note_on_c, 0, 88, 82
1, 200018, Note_off_c, 0, 88, 44
1, 200021, Note_off_c, 0, 77, 66
1, 200049, Note_off_c, 0, 89, 65
1, 200200, Note_on_c, 0, 89, 107
1, 200202, Note_on_c, 0, 65, 115
1, 200205, Note_on_c, 0, 101, 91
1, 200209, Note_on_c, 0, 53, 69
1, 200209, Note_on_c, 0, 100, 92
1, 200216, Note_off_c, 0, 65, 76
1, 200230, Note_off_c, 0, 101, 71
1, 200233, Note_off_c, 0, 53, 69
1, 200235, Note_off_c, 0, 100, 72
1, 200236, Note_off_c, 0, 89, 70
1, 200481, Note_on_c, 0, 41, 86
1, 200509, Note_on_c, 0, 53, 84
1, 200524, Note_on_c, 0, 55, 49
1, 200529, Note_off_c, 0, 41, 64
1, 200534, Note_off_c, 0, 53, 68
1, 200549, Note_off_c, 0, 55, 55
1, 200577, Poly_aftertouch_c, 0, 65, 0
1, 200582, Control_c, 0, 64, 90
1, 200591, Note_on_c, 0, 65, 6
1, 200594, Note_on_c, 0, 53, 93
1, 200597, Control_c, 0, 64, 56
1, 200602, Note_on_c, 0, 46, 108
1, 200607, Note_on_c, 0, 61, 74
1, 200611, Note_on_c, 0, 58, 73
1, 200612, Control_c, 0, 64, 0
1, 200624, Note_on_c, 0, 37, 67
1, 200627, Control_c, 0, 64, 49
1, 200629, Note_on_c, 0, 35, 71
1, 200642, Control_c, 0, 64, 69
1, 200642, Note_on_c, 0, 47, 44
1, 200643, Note_off_c, 0, 47, 127
1, 200657, Control_c, 0, 64, 86
1, 200671, Control_c, 0, 64, 127
1, 200678, Note_off_c, 0, 37, 39
1, 200687, Note_off_c, 0, 35, 61
1, 200691, Note_off_c, 0, 53, 63
1, 200704, Note_off_c, 0, 46, 59
1, 200710, Note_off_c, 0, 61, 60
1, 200713, Note_off_c, 0, 65, 52
1, 200717, Note_off_c, 0, 58, 61
1, 200788, Note_on_c, 0, 47, 100
1, 200797, Note_on_c, 0, 53, 87
1, 200798, Note_on_c, 0, 35, 83
1, 200806, Note_on_c, 0, 65, 70
1, 200808, Note_on_c, 0, 58, 68
1, 200811, Note_on_c, 0, 61, 65
1, 200824, Note_on_c, 0, 37, 40
1, 200825, Note_off_c, 0, 35, 67
1, 200826, Note_off_c, 0, 58, 65
1, 200831, Note_off_c, 0, 47, 64
1, 200835, Note_off_c, 0, 65, 67
1, 200838, Note_off_c, 0, 61, 64
1, 200839, Note_off_c, 0, 53, 63
1, 200856, Note_off_c, 0, 37, 52
1, 200899, Note_on_c, 0, 48, 100
1, 200906, Note_on_c, 0, 58, 63
1, 200907, Note_on_c, 0, 53, 82
1, 200909, Note_on_c, 0, 61, 73
1, 200910, Note_on_c, 0, 65, 74
1, 200912, Note_on_c, 0, 36, 80
1, 200934, Note_off_c, 0, 48, 67
1, 200934, Note_off_c, 0, 65, 65
1, 200937, Note_off_c, 0, 36, 65
1, 200957, Note_off_c, 0, 53, 63
1, 200972, Note_off_c, 0, 61, 61
1, 200978, Note_off_c, 0, 58, 61
1, 201004, Control_c, 0, 64, 75
1, 201019, Control_c, 0, 64, 45
1, 201020, Note_on_c, 0, 49, 100
1, 201022, Note_on_c, 0, 53, 90
1, 201022, Poly_aftertouch_c, 0, 58, 0
1, 201026, Note_on_c, 0, 58, 70
1, 201029, Note_on_c, 0, 37, 87
1, 201031, Note_on_c, 0, 65, 82
1, 201032, Note_on_c, 0, 61, 67
1, 201033, Control_c, 0, 64, 48
1, 201041, Note_on_c, 0, 50, 71
1, 201044, Note_off_c, 0, 53, 61
1, 201048, Control_c, 0, 64, 68
1, 201052, Note_off_c, 0, 37, 67
1, 201059, Note_off_c, 0, 49, 61
1, 201063, Control_c, 0, 64, 87
1, 201064, Note_off_c, 0, 50, 42
1, 201073, Note_off_c, 0, 58, 60
1, 201077, Control_c, 0, 64, 127
1, 201085, Note_off_c, 0, 61, 62
1, 201097, Note_off_c, 0, 65, 64
1, 201121, Note_on_c, 0, 50, 85
1, 201129, Note_on_c, 0, 38, 67
1, 201142, Poly_aftertouch_c, 0, 63, 0
1, 201143, Note_off_c, 0, 50, 68
1, 201154, Note_off_c, 0, 38, 59
1, 201208, Note_on_c, 0, 51, 95
1, 201225, Note_on_c, 0, 39, 77
1, 201253, Note_off_c, 0, 51, 62
1, 201258, Note_off_c, 0, 39, 65
1, 201295, Note_on_c, 0, 52, 54
1, 201320, Note_on_c, 0, 40, 48
1, 201329, Note_off_c, 0, 52, 67
1, 201345, Control_c, 0, 64, 81
1, 201354, Note_off_c, 0, 40, 52
1, 201360, Control_c, 0, 64, 47
1, 201375, Control_c, 0, 64, 0
1, 201384, Note_on_c, 0, 65, 105
1, 201389, Note_on_c, 0, 77, 103
1, 201390, Control_c, 0, 64, 33
1, 201394, Note_on_c, 0, 53, 99
1, 201395, Note_on_c, 0, 41, 90
1, 201405, Control_c, 0, 64, 62
1, 201405, Note_on_c, 0, 52, 73
1, 201420, Note_off_c, 0, 53, 66
1, 201420, Note_off_c, 0, 65, 69
1, 201420, Control_c, 0, 64, 79
1, 201420, Note_off_c, 0, 41, 67
1, 201425, Note_off_c, 0, 52, 40
1, 201429, Note_on_c, 0, 75, 28
1, 201429, Note_on_c, 0, 76, 33
1, 201430, Note_off_c, 0, 76, 127
1, 201435, Control_c, 0, 64, 127
1, 201445, Note_off_c, 0, 77, 65
1, 201459, Poly_aftertouch_c, 0, 76, 0
1, 201461, Note_off_c, 0, 75, 46
1, 201604, Note_on_c, 0, 77, 104
1, 201607, Note_on_c, 0, 89, 100
1, 201627, Note_on_c, 0, 88, 69
1, 201628, Note_off_c, 0, 88, 127
1, 201635, Note_off_c, 0, 77, 68
1, 201658, Note_off_c, 0, 89, 67
1, 201849, Note_on_c, 0, 89, 114
1, 201850, Note_on_c, 0, 101, 104
1, 201862, Note_on_c, 0, 64, 95
1, 201871, Note_on_c, 0, 52, 84
1, 201871, Note_on_c, 0, 100, 67
1, 201872, Note_off_c, 0, 100, 127
1, 201885, Note_off_c, 0, 101, 66
1, 201887, Note_off_c, 0, 89, 68
1, 201891, Note_off_c, 0, 64, 66
1, 201896, Note_off_c, 0, 52, 71
1, 202153, Control_c, 0, 64, 111
1, 202168, Control_c, 0, 64, 83
1, 202183, Control_c, 0, 64, 56
1, 202198, Control_c, 0, 64, 0
1, 202202, Note_on_c, 0, 41, 84
1, 202203, Note_on_c, 0, 53, 91
1, 202210, Note_on_c, 0, 65, 80
1, 202227, Note_off_c, 0, 53, 70
1, 202232, Note_off_c, 0, 65, 71
1, 202234, Note_off_c, 0, 41, 68
1, 202275, Note_on_c, 0, 60, 2
1, 202276, Note_on_c, 0, 53, 100
1, 202277, Note_on_c, 0, 45, 106
1, 202281, Note_on_c, 0, 65, 97
1, 202287, Control_c, 0, 64, 71
1, 202292, Note_on_c, 0, 33, 85
1, 202302, Control_c, 0, 64, 94
1, 202314, Note_off_c, 0, 33, 68
1, 202317, Control_c, 0, 64, 127
1, 202322, Note_off_c, 0, 45, 64
1, 202326, Note_off_c, 0, 53, 68
1, 202334, Note_on_c, 0, 37, 10
1, 202335, Note_off_c, 0, 37, 127
1, 202357, Note_off_c, 0, 60, 57
1, 202363, Note_off_c, 0, 65, 67
1, 202383, Poly_aftertouch_c, 0, 37, 0
1, 202513, Note_on_c, 0, 64, 102
1, 202520, Note_on_c, 0, 76, 90
1, 202522, Note_on_c, 0, 77, 89
1, 202523, Note_on_c, 0, 65, 82
1, 202540, Note_off_c, 0, 65, 66
1, 202543, Note_off_c, 0, 64, 68
1, 202567, Note_off_c, 0, 77, 64
1, 202575, Note_off_c, 0, 76, 64
1, 202579, Note_on_c, 0, 70, 3
1, 202617, Note_off_c, 0, 70, 54
1, 202737, Note_on_c, 0, 77, 104
1, 202740, Note_on_c, 0, 89, 108
1, 202741, Note_on_c, 0, 65, 104
1, 202745, Note_on_c, 0, 53, 82
1, 202767, Note_off_c, 0, 65, 68
1, 202769, Note_off_c, 0, 89, 68
1, 202773, Note_off_c, 0, 77, 65
1, 202781, Note_off_c, 0, 53, 62
1, 203021, Control_c, 0, 64, 106
1, 203036, Control_c, 0, 64, 82
1, 203051, Control_c, 0, 64, 63
1, 203065, Control_c, 0, 64, 0
1, 203104, Note_on_c, 0, 45, 98
1, 203108, Note_on_c, 0, 53, 93
1, 203116, Note_on_c, 0, 65, 79
1, 203119, Note_on_c, 0, 33, 80
1, 203119, Note_on_c, 0, 60, 72
1, 203128, Note_on_c, 0, 36, 65
1, 203129, Note_off_c, 0, 36, 127
1, 203138, Note_off_c, 0, 65, 71
1, 203140, Note_off_c, 0, 33, 68
1, 203143, Note_off_c, 0, 45, 65
1, 203144, Note_off_c, 0, 60, 65
1, 203147, Note_off_c, 0, 53, 64
1, 203184, Control_c, 0, 64, 57
1, 203196, Note_on_c, 0, 53, 100
1, 203199, Control_c, 0, 64, 86
1, 203202, Note_on_c, 0, 44, 114
1, 203208, Note_on_c, 0, 65, 85
1, 203208, Note_on_c, 0, 59, 79
1, 203214, Control_c, 0, 64, 127
1, 203217, Note_on_c, 0, 58, 79
1, 203226, Note_on_c, 0, 32, 79
1, 203228, Note_on_c, 0, 64, 80
1, 203240, Note_off_c, 0, 58, 64
1, 203242, Note_on_c, 0, 34, 49
1, 203243, Note_off_c, 0, 34, 127
1, 203243, Note_off_c, 0, 64, 68
1, 203250, Note_off_c, 0, 32, 64
1, 203252, Note_off_c, 0, 53, 67
1, 203274, Note_off_c, 0, 59, 65
1, 203274, Poly_aftertouch_c, 0, 34, 0
1, 203283, Note_off_c, 0, 44, 60
1, 203289, Note_off_c, 0, 65, 67
1, 203306, Poly_aftertouch_c, 0, 39, 127
1, 203343, Poly_aftertouch_c, 0, 39, 0
1, 203443, Note_on_c, 0, 65, 105
1, 203445, Note_on_c, 0, 77, 100
1, 203475, Note_off_c, 0, 65, 70
1, 203503, Note_off_c, 0, 77, 64
1, 203688, Note_on_c, 0, 77, 105
1, 203689, Note_on_c, 0, 65, 113
1, 203690, Note_on_c, 0, 89, 106
1, 203691, Note_on_c, 0, 53, 81
1, 203714, Note_on_c, 0, 61, 62
1, 203717, Note_off_c, 0, 65, 72
1, 203717, Note_off_c, 0, 89, 67
1, 203719, Note_off_c, 0, 77, 66
1, 203734, Note_off_c, 0, 61, 60
1, 203739, Note_off_c, 0, 53, 65
1, 203948, Control_c, 0, 64, 93
1, 203970, Control_c, 0, 64, 74
1, 203985, Control_c, 0, 64, 55
1, 204000, Control_c, 0, 64, 0
1, 204054, Note_on_c, 0, 53, 91
1, 204059, Note_on_c, 0, 44, 97
1, 204059, Note_on_c, 0, 65, 83
1, 204063, Note_on_c, 0, 59, 73
1, 204075, Note_on_c, 0, 32, 77
1, 204102, Note_off_c, 0, 59, 56
1, 204105, Note_off_c, 0, 32, 64
1, 204105, Note_off_c, 0, 53, 62
1, 204117, Note_off_c, 0, 65, 64
1, 204128, Note_off_c, 0, 44, 61
1, 204192, Control_c, 0, 64, 59
1, 204204, Note_on_c, 0, 53, 110
1, 204206, Note_on_c, 0, 43, 105
1, 204207, Control_c, 0, 64, 90
1, 204208, Note_on_c, 0, 58, 96
1, 204214, Note_on_c, 0, 31, 90
1, 204214, Note_on_c, 0, 65, 96
1, 204219, Note_on_c, 0, 32, 64
1, 204222, Control_c, 0, 64, 127
1, 204243, Note_off_c, 0, 53, 68
1, 204246, Note_off_c, 0, 32, 58
1, 204249, Note_off_c, 0, 43, 63
1, 204249, Note_on_c, 0, 38, 24
1, 204250, Note_off_c, 0, 31, 63
1, 204257, Note_on_c, 0, 64, 31
1, 204273, Note_off_c, 0, 58, 64
1, 204281, Note_off_c, 0, 65, 64
1, 204288, Note_off_c, 0, 64, 54
1, 204293, Note_off_c, 0, 38, 45
1, 204490, Control_c, 0, 64, 90
1, 204505, Control_c, 0, 64, 63
1, 204519, Control_c, 0, 64, 18
1, 204532, Note_on_c, 0, 65, 108
1, 204534, Note_on_c, 0, 42, 114
1, 204534, Control_c, 0, 64, 62
1, 204535, Note_on_c, 0, 70, 96
1, 204535, Note_on_c, 0, 77, 100
1, 204544, Note_on_c, 0, 30, 88
1, 204549, Control_c, 0, 64, 85
1, 204564, Control_c, 0, 64, 127
1, 204566, Note_off_c, 0, 65, 68
1, 204574, Note_off_c, 0, 30, 63
1, 204589, Note_off_c, 0, 70, 64
1, 204593, Note_off_c, 0, 42, 61
1, 204602, Note_on_c, 0, 75, 2
1, 204603, Note_off_c, 0, 75, 127
1, 204609, Note_off_c, 0, 77, 58
1, 204626, Poly_aftertouch_c, 0, 73, 127
1, 204639, Poly_aftertouch_c, 0, 75, 0
1, 204649, Poly_aftertouch_c, 0, 73, 0
1, 204837, Control_c, 0, 64, 83
1, 204851, Control_c, 0, 64, 57
1, 204866, Control_c, 0, 64, 33
1, 204880, Note_on_c, 0, 77, 106
1, 204881, Note_on_c, 0, 41, 116
1, 204881, Control_c, 0, 64, 69
1, 204883, Note_on_c, 0, 80, 103
1, 204883, Note_on_c, 0, 89, 105
1, 204887, Note_on_c, 0, 29, 84
1, 204896, Control_c, 0, 64, 104
1, 204907, Note_on_c, 0, 87, 61
1, 204909, Note_off_c, 0, 29, 65
1, 204910, Note_on_c, 0, 81, 74
1, 204911, Control_c, 0, 64, 127
1, 204912, Note_on_c, 0, 36, 49
1, 204918, Note_on_c, 0, 85, 36
1, 204919, Note_off_c, 0, 85, 127
1, 204923, Note_off_c, 0, 87, 61
1, 204932, Note_off_c, 0, 41, 62
1, 204935, Note_off_c, 0, 81, 65
1, 204940, Note_off_c, 0, 77, 55
1, 204941, Note_off_c, 0, 80, 58
1, 204943, Note_off_c, 0, 36, 57
1, 204964, Note_off_c, 0, 89, 60
1, 205003, Poly_aftertouch_c, 0, 31, 0
1, 205119, Control_c, 0, 64, 84
1, 205134, Control_c, 0, 64, 62
1, 205149, Control_c, 0, 64, 58
1, 205151, Note_on_c, 0, 52, 100
1, 205152, Note_on_c, 0, 79, 110
1, 205155, Note_on_c, 0, 40, 88
1, 205155, Note_on_c, 0, 43, 86
1, 205155, Note_on_c, 0, 84, 98
1, 205155, Note_on_c, 0, 88, 101
1, 205155, Note_on_c, 0, 91, 107
1, 205158, Note_on_c, 0, 46, 90
1, 205164, Control_c, 0, 64, 73
1, 205179, Control_c, 0, 64, 127
1, 205192, Note_off_c, 0, 43, 61
1, 205200, Note_off_c, 0, 40, 62
1, 205200, Note_off_c, 0, 52, 61
1, 205202, Note_off_c, 0, 46, 63
1, 205211, Note_off_c, 0, 79, 61
1, 205217, Note_off_c, 0, 91, 59
1, 205223, Note_off_c, 0, 88, 61
1, 205229, Note_off_c, 0, 84, 61
1, 205371, Control_c, 0, 64, 102
1, 205386, Control_c, 0, 64, 71
1, 205401, Control_c, 0, 64, 44
1, 205415, Control_c, 0, 64, 51
1, 205417, Note_on_c, 0, 53, 109
1, 205417, Note_on_c, 0, 84, 68
1, 205419, Note_on_c, 0, 80, 113
1, 205419, Note_on_c, 0, 89, 103
1, 205423, Note_on_c, 0, 44, 98
1, 205423, Note_on_c, 0, 92, 108
1, 205424, Note_on_c, 0, 41, 94
1, 205426, Note_on_c, 0, 48, 82
1, 205430, Control_c, 0, 64, 72
1, 205445, Control_c, 0, 64, 107
1, 205452, Note_off_c, 0, 53, 70
1, 205458, Note_off_c, 0, 48, 63
1, 205460, Control_c, 0, 64, 127
1, 205477, Note_off_c, 0, 80, 64
1, 205480, Note_off_c, 0, 41, 60
1, 205485, Note_off_c, 0, 44, 63
1, 205489, Note_off_c, 0, 84, 64
1, 205490, Note_off_c, 0, 89, 64
1, 205502, Note_off_c, 0, 92, 60
1, 205539, Poly_aftertouch_c, 0, 81, 0
1, 205689, Control_c, 0, 64, 83
1, 205704, Control_c, 0, 64, 57
1, 205719, Control_c, 0, 64, 50
1, 205734, Control_c, 0, 64, 77
1, 205736, Note_on_c, 0, 46, 101
1, 205736, Note_on_c, 0, 85, 105
1, 205737, Note_on_c, 0, 49, 112
1, 205739, Note_on_c, 0, 89, 106
1, 205739, Note_on_c, 0, 94, 107
1, 205742, Note_on_c, 0, 97, 107
1, 205744, Note_on_c, 0, 37, 86
1, 205748, Control_c, 0, 64, 127
1, 205750, Note_on_c, 0, 41, 75
1, 205762, Note_on_c, 0, 93, 67
1, 205782, Note_off_c, 0, 93, 57
1, 205790, Note_on_c, 0, 39, 10
1, 205796, Note_off_c, 0, 94, 71
1, 205805, Note_off_c, 0, 89, 61
1, 205809, Note_off_c, 0, 49, 67
1, 205810, Note_off_c, 0, 97, 68
1, 205813, Note_off_c, 0, 41, 59
1, 205815, Note_off_c, 0, 46, 61
1, 205831, Note_off_c, 0, 85, 58
1, 205832, Note_off_c, 0, 39, 44
1, 205847, Note_off_c, 0, 37, 63
1, 206106, Control_c, 0, 64, 115
1, 206121, Control_c, 0, 64, 83
1, 206135, Control_c, 0, 64, 42
1, 206150, Control_c, 0, 64, 0
1, 206454, Control_c, 0, 64, 49
1, 206455, Note_on_c, 0, 88, 99
1, 206457, Note_on_c, 0, 91, 101
1, 206457, Note_on_c, 0, 48, 102
1, 206457, Note_on_c, 0, 84, 105
1, 206457, Note_on_c, 0, 96, 108
1, 206460, Note_on_c, 0, 40, 92
1, 206467, Note_on_c, 0, 36, 90
1, 206467, Note_on_c, 0, 43, 79
1, 206469, Control_c, 0, 64, 100
1, 206475, Note_on_c, 0, 93, 75
1, 206484, Control_c, 0, 64, 127
1, 206488, Note_off_c, 0, 48, 70
1, 206490, Note_off_c, 0, 93, 61
1, 206491, Note_off_c, 0, 43, 65
1, 206492, Note_off_c, 0, 40, 66
1, 206497, Note_off_c, 0, 36, 65
1, 206497, Note_off_c, 0, 84, 61
1, 206508, Note_off_c, 0, 88, 61
1, 206508, Note_off_c, 0, 91, 62
1, 206508, Note_off_c, 0, 96, 66
1, 206795, Control_c, 0, 64, 72
1, 206810, Control_c, 0, 64, 22
1, 206825, Control_c, 0, 64, 60
1, 206828, Note_on_c, 0, 92, 108
1, 206829, Note_on_c, 0, 41, 116
1, 206831, Note_on_c, 0, 96, 94
1, 206833, Note_on_c, 0, 89, 110
1, 206835, Note_on_c, 0, 36, 92
1, 206837, Note_on_c, 0, 32, 93
1, 206838, Note_on_c, 0, 101, 101
1, 206840, Control_c, 0, 64, 87
1, 206841, Note_on_c, 0, 29, 92
1, 206851, Note_on_c, 0, 98, 76
1, 206855, Control_c, 0, 64, 127
1, 206863, Note_on_c, 0, 100, 58
1, 206884, Note_off_c, 0, 100, 40
1, 206898, Note_off_c, 0, 36, 62
1, 206907, Note_off_c, 0, 41, 67
1, 206909, Note_off_c, 0, 89, 66
1, 206913, Note_off_c, 0, 92, 65
1, 206918, Note_off_c, 0, 98, 57
1, 206931, Note_off_c, 0, 96, 63
1, 206933, Note_off_c, 0, 32, 59
1, 206956, Note_off_c, 0, 101, 58
1, 206957, Note_off_c, 0, 29, 56
1, 207530, Control_c, 0, 64, 79
1, 207544, Control_c, 0, 64, 47
1, 207559, Control_c, 0, 64, 56
1, 207563, Note_on_c, 0, 72, 102
1, 207563, Note_on_c, 0, 60, 102
1, 207563, Note_on_c, 0, 65, 109
1, 207566, Note_on_c, 0, 56, 100
1, 207569, Note_on_c, 0, 76, 98
1, 207572, Control_c, 0, 64, 79
1, 207575, Note_on_c, 0, 77, 74
1, 207576, Note_off_c, 0, 77, 127
1, 207587, Control_c, 0, 64, 127
1, 207596, Note_on_c, 0, 57, 77
1, 207601, Note_on_c, 0, 75, 55
1, 207611, Note_off_c, 0, 65, 71
1, 207613, Note_off_c, 0, 76, 69
1, 207616, Note_off_c, 0, 72, 69
1, 207617, Note_off_c, 0, 57, 68
1, 207617, Note_off_c, 0, 60, 66
1, 207618, Note_off_c, 0, 56, 62
1, 207623, Note_off_c, 0, 75, 66
1, 207623, Note_on_c, 0, 58, 17
1, 207666, Note_off_c, 0, 58, 48
1, 209448, Control_c, 0, 64, 109
1, 209463, Control_c, 0, 64, 83
1, 209478, Control_c, 0, 64, 57
1, 209493, Control_c, 0, 64, 0
1, 209493, End_track
0, 0, End_of_file
