0, 0, Header, 0, 1, 384
1, 0, Start_track
1, 0, Title_t, "Sonata Hob.XVI/52--K. Travinskyy"
1, 0, Text_t, "2009 Piano-e-Competition audition round"
1, 0, Text_t, "captured January 2009"
1, 0, Text_t, "http://www.piano-e-competition.com/"
1, 0, Text_t, "File processed for distribution by software from Zenph Studios, Inc., http://www.zenph.com"
1, 0, Instrument_name_t, "Yamaha Disklavier Pro Mark IV concert grand piano, model DCFIIISM4PRO"
1, 0, Sequencer_specific, 39, 67, 113, 0, 1, 0, 1, 0, 83, 111, 110, 97, 116, 97, 72, 111, 98, 46, 88, 86, 73, 47, 53, 50, 75, 46, 32, 84, 114, 97, 118, 105, 110, 115, 107, 121, 121, 32, 32, 32
1, 0, Sequencer_specific, 6, 67, 113, 0, 0, 0, 69
1, 0, System_exclusive, 21, 67, 113, 126, 21, 0, 2, 2, 0, 3, 14, 1, 4, 1, 13, 13, 10, 11, 9, 2, 7, 247
1, 0, Sequencer_specific, 5, 67, 123, 12, 2, 1
1, 0, Tempo, 512820
1, 0, Time_signature, 4, 2, 24, 8
1, 0, System_exclusive, 5, 126, 127, 9, 1, 247
1, 1, System_exclusive, 8, 67, 16, 76, 0, 0, 126, 0, 247
1, 2, System_exclusive, 8, 67, 16, 76, 8, 9, 7, 1, 247
1, 3, Control_c, 0, 0, 0
1, 3, Control_c, 1, 0, 0
1, 3, Control_c, 2, 0, 0
1, 3, Control_c, 3, 0, 0
1, 3, Control_c, 4, 0, 0
1, 3, Control_c, 5, 0, 0
1, 3, Control_c, 6, 0, 0
1, 3, Control_c, 7, 0, 0
1, 3, Control_c, 8, 0, 0
1, 3, Control_c, 9, 0, 127
1, 3, Control_c, 10, 0, 0
1, 3, Control_c, 11, 0, 0
1, 3, Control_c, 12, 0, 0
1, 3, Control_c, 13, 0, 0
1, 3, Control_c, 14, 0, 0
1, 3, Control_c, 15, 0, 0
1, 4, Control_c, 0, 32, 0
1, 4, Control_c, 1, 32, 0
1, 4, Control_c, 2, 32, 0
1, 4, Control_c, 3, 32, 0
1, 4, Control_c, 4, 32, 0
1, 4, Control_c, 5, 32, 0
1, 4, Control_c, 6, 32, 0
1, 4, Control_c, 7, 32, 0
1, 4, Control_c, 8, 32, 0
1, 4, Control_c, 9, 32, 0
1, 4, Control_c, 10, 32, 0
1, 4, Control_c, 11, 32, 0
1, 4, Control_c, 12, 32, 0
1, 4, Control_c, 13, 32, 0
1, 4, Control_c, 14, 32, 0
1, 4, Control_c, 15, 32, 0
1, 5, Program_c, 0, 0
1, 5, Program_c, 1, 0
1, 5, Program_c, 2, 0
1, 5, Program_c, 3, 0
1, 5, Program_c, 4, 0
1, 5, Program_c, 5, 0
1, 5, Program_c, 6, 0
1, 5, Program_c, 7, 0
1, 5, Program_c, 8, 0
1, 5, Program_c, 9, 0
1, 5, Program_c, 10, 0
1, 5, Program_c, 11, 0
1, 5, Program_c, 12, 0
1, 5, Program_c, 13, 0
1, 5, Program_c, 14, 0
1, 5, Program_c, 15, 0
1, 6, Control_c, 0, 7, 100
1, 6, Control_c, 1, 7, 100
1, 6, Control_c, 2, 7, 100
1, 6, Control_c, 3, 7, 100
1, 6, Control_c, 4, 7, 100
1, 6, Control_c, 5, 7, 100
1, 6, Control_c, 6, 7, 100
1, 6, Control_c, 7, 7, 100
1, 6, Control_c, 8, 7, 100
1, 6, Control_c, 9, 7, 100
1, 6, Control_c, 10, 7, 100
1, 6, Control_c, 11, 7, 100
1, 6, Control_c, 12, 7, 100
1, 6, Control_c, 13, 7, 100
1, 6, Control_c, 14, 7, 100
1, 6, Control_c, 15, 7, 100
1, 1130, Note_on_c, 0, 39, 53
1, 1174, Note_on_c, 0, 55, 71
1, 1179, Note_on_c, 0, 46, 61
1, 1180, Note_on_c, 0, 43, 46
1, 1196, Control_c, 0, 64, 11
1, 1208, Note_on_c, 0, 58, 72
1, 1211, Control_c, 0, 64, 32
1, 1212, Note_on_c, 0, 51, 69
1, 1225, Control_c, 0, 64, 47
1, 1240, Note_off_c, 0, 39, 64
1, 1240, Control_c, 0, 64, 60
1, 1241, Note_on_c, 0, 63, 86
1, 1241, Note_off_c, 0, 51, 68
1, 1251, Note_off_c, 0, 43, 61
1, 1255, Control_c, 0, 64, 69
1, 1259, Note_off_c, 0, 46, 66
1, 1260, Note_off_c, 0, 55, 65
1, 1270, Control_c, 0, 64, 78
1, 1284, Control_c, 0, 64, 81
1, 1293, Note_off_c, 0, 58, 63
1, 1299, Control_c, 0, 64, 85
1, 1314, Control_c, 0, 64, 99
1, 1329, Control_c, 0, 64, 127
1, 1451, Note_off_c, 0, 63, 57
1, 1778, Note_on_c, 0, 67, 89
1, 1782, Control_c, 0, 64, 90
1, 1788, Note_on_c, 0, 39, 62
1, 1791, Note_on_c, 0, 63, 72
1, 1794, Note_on_c, 0, 61, 76
1, 1796, Note_on_c, 0, 46, 65
1, 1797, Note_on_c, 0, 49, 61
1, 1797, Control_c, 0, 64, 67
1, 1800, Note_on_c, 0, 43, 58
1, 1812, Control_c, 0, 64, 60
1, 1826, Control_c, 0, 64, 58
1, 1841, Control_c, 0, 64, 60
1, 1856, Control_c, 0, 64, 66
1, 1871, Control_c, 0, 64, 93
1, 1879, Note_off_c, 0, 67, 59
1, 1880, Note_off_c, 0, 61, 55
1, 1883, Note_off_c, 0, 49, 57
1, 1886, Control_c, 0, 64, 127
1, 1892, Note_off_c, 0, 39, 51
1, 1901, Note_off_c, 0, 63, 57
1, 1913, Note_off_c, 0, 46, 58
1, 1955, Note_off_c, 0, 43, 32
1, 2197, Note_on_c, 0, 67, 80
1, 2201, Note_on_c, 0, 63, 76
1, 2203, Note_on_c, 0, 49, 63
1, 2209, Note_on_c, 0, 46, 58
1, 2213, Note_on_c, 0, 39, 60
1, 2216, Note_on_c, 0, 43, 50
1, 2234, Note_off_c, 0, 63, 64
1, 2241, Note_off_c, 0, 46, 66
1, 2252, Note_off_c, 0, 39, 61
1, 2253, Note_off_c, 0, 49, 50
1, 2255, Note_off_c, 0, 43, 49
1, 2258, Note_off_c, 0, 67, 63
1, 2262, Note_on_c, 0, 60, 74
1, 2314, Note_on_c, 0, 63, 83
1, 2339, Note_on_c, 0, 44, 60
1, 2342, Note_on_c, 0, 68, 88
1, 2350, Note_on_c, 0, 48, 65
1, 2354, Control_c, 0, 64, 70
1, 2356, Note_on_c, 0, 39, 57
1, 2369, Control_c, 0, 64, 55
1, 2384, Control_c, 0, 64, 26
1, 2398, Control_c, 0, 64, 0
1, 2517, Control_c, 0, 64, 12
1, 2532, Control_c, 0, 64, 24
1, 2546, Control_c, 0, 64, 32
1, 2561, Control_c, 0, 64, 41
1, 2576, Control_c, 0, 64, 52
1, 2590, Control_c, 0, 64, 60
1, 2605, Control_c, 0, 64, 64
1, 2620, Control_c, 0, 64, 65
1, 2635, Control_c, 0, 64, 68
1, 2650, Control_c, 0, 64, 74
1, 2664, Control_c, 0, 64, 84
1, 2679, Control_c, 0, 64, 98
1, 2694, Control_c, 0, 64, 108
1, 2709, Control_c, 0, 64, 127
1, 2815, Note_off_c, 0, 63, 58
1, 3019, Note_off_c, 0, 68, 56
1, 3037, Note_off_c, 0, 48, 52
1, 3062, Note_off_c, 0, 60, 34
1, 3129, Note_off_c, 0, 39, 40
1, 3253, Note_on_c, 0, 67, 77
1, 3303, Note_off_c, 0, 44, 35
1, 3305, Note_on_c, 0, 65, 78
1, 3338, Note_off_c, 0, 67, 63
1, 3351, Note_on_c, 0, 63, 79
1, 3365, Note_off_c, 0, 65, 67
1, 3374, Note_on_c, 0, 39, 56
1, 3382, Note_off_c, 0, 63, 65
1, 3413, Control_c, 0, 64, 78
1, 3428, Note_on_c, 0, 44, 68
1, 3428, Control_c, 0, 64, 57
1, 3429, Note_on_c, 0, 41, 51
1, 3442, Note_on_c, 0, 62, 83
1, 3443, Control_c, 0, 64, 28
1, 3450, Note_on_c, 0, 50, 73
1, 3458, Control_c, 0, 64, 0
1, 3467, Note_on_c, 0, 58, 72
1, 3475, Note_on_c, 0, 56, 47
1, 3487, Control_c, 0, 64, 27
1, 3497, Note_off_c, 0, 50, 65
1, 3501, Note_off_c, 0, 41, 64
1, 3501, Note_off_c, 0, 39, 64
1, 3502, Control_c, 0, 64, 50
1, 3505, Note_off_c, 0, 56, 57
1, 3515, Note_off_c, 0, 44, 63
1, 3517, Control_c, 0, 64, 70
1, 3531, Note_off_c, 0, 58, 64
1, 3532, Control_c, 0, 64, 127
1, 3545, Note_off_c, 0, 62, 66
1, 3842, Note_on_c, 0, 65, 79
1, 3865, Note_off_c, 0, 65, 71
1, 3916, Note_on_c, 0, 62, 78
1, 3932, Note_on_c, 0, 39, 60
1, 3943, Note_on_c, 0, 65, 69
1, 3951, Note_on_c, 0, 41, 60
1, 3970, Note_on_c, 0, 44, 66
1, 3995, Note_on_c, 0, 70, 83
1, 4010, Note_on_c, 0, 50, 68
1, 4029, Control_c, 0, 64, 70
1, 4044, Control_c, 0, 64, 53
1, 4059, Control_c, 0, 64, 0
1, 4095, Note_off_c, 0, 65, 66
1, 4110, Note_off_c, 0, 62, 63
1, 4148, Control_c, 0, 64, 15
1, 4162, Control_c, 0, 64, 36
1, 4177, Control_c, 0, 64, 53
1, 4192, Control_c, 0, 64, 66
1, 4207, Control_c, 0, 64, 80
1, 4222, Control_c, 0, 64, 91
1, 4236, Control_c, 0, 64, 109
1, 4243, Note_off_c, 0, 41, 46
1, 4251, Control_c, 0, 64, 127
1, 4298, Note_off_c, 0, 39, 57
1, 4384, Note_off_c, 0, 50, 53
1, 4393, Note_off_c, 0, 44, 50
1, 4434, Note_on_c, 0, 68, 81
1, 4448, Note_off_c, 0, 70, 60
1, 4465, Note_on_c, 0, 39, 53
1, 4512, Note_off_c, 0, 68, 64
1, 4513, Note_on_c, 0, 43, 56
1, 4552, Note_on_c, 0, 46, 59
1, 4572, Note_on_c, 0, 67, 75
1, 4572, Note_on_c, 0, 58, 69
1, 4578, Note_on_c, 0, 63, 60
1, 4586, Note_on_c, 0, 51, 62
1, 4614, Control_c, 0, 64, 71
1, 4629, Control_c, 0, 64, 57
1, 4643, Control_c, 0, 64, 29
1, 4658, Control_c, 0, 64, 0
1, 5171, Note_off_c, 0, 58, 61
1, 5180, Note_off_c, 0, 39, 59
1, 5187, Note_off_c, 0, 43, 55
1, 5195, Note_off_c, 0, 63, 61
1, 5222, Note_off_c, 0, 46, 64
1, 5222, Note_off_c, 0, 51, 62
1, 5232, Note_off_c, 0, 67, 64
1, 5259, Control_c, 0, 67, 8
1, 5273, Control_c, 0, 67, 10
1, 5288, Control_c, 0, 67, 10
1, 5303, Control_c, 0, 67, 11
1, 5332, Control_c, 0, 67, 12
1, 5347, Control_c, 0, 67, 13
1, 5362, Control_c, 0, 67, 15
1, 5377, Control_c, 0, 67, 17
1, 5392, Control_c, 0, 67, 19
1, 5407, Control_c, 0, 67, 20
1, 5421, Control_c, 0, 67, 21
1, 5436, Control_c, 0, 67, 22
1, 5451, Control_c, 0, 67, 22
1, 5467, Control_c, 0, 67, 23
1, 5482, Control_c, 0, 67, 25
1, 5496, Control_c, 0, 67, 26
1, 5511, Control_c, 0, 67, 29
1, 5526, Control_c, 0, 67, 30
1, 5541, Control_c, 0, 67, 32
1, 5556, Control_c, 0, 67, 34
1, 5570, Control_c, 0, 67, 36
1, 5585, Control_c, 0, 67, 37
1, 5600, Control_c, 0, 67, 39
1, 5615, Control_c, 0, 67, 40
1, 5630, Control_c, 0, 67, 42
1, 5645, Control_c, 0, 67, 43
1, 5660, Control_c, 0, 67, 45
1, 5675, Control_c, 0, 67, 46
1, 5689, Control_c, 0, 67, 47
1, 5704, Control_c, 0, 67, 49
1, 5719, Control_c, 0, 67, 50
1, 5733, Control_c, 0, 67, 51
1, 5748, Control_c, 0, 67, 52
1, 5763, Control_c, 0, 67, 55
1, 5774, Note_on_c, 0, 74, 44
1, 5778, Control_c, 0, 67, 59
1, 5786, Note_on_c, 0, 65, 36
1, 5787, Note_on_c, 0, 68, 28
1, 5788, Note_on_c, 0, 58, 34
1, 5793, Control_c, 0, 67, 62
1, 5807, Control_c, 0, 67, 64
1, 5822, Control_c, 0, 67, 66
1, 5845, Control_c, 0, 67, 68
1, 5851, Note_off_c, 0, 58, 62
1, 5860, Control_c, 0, 67, 71
1, 5862, Note_off_c, 0, 65, 64
1, 5872, Note_off_c, 0, 68, 53
1, 5875, Control_c, 0, 67, 75
1, 5889, Control_c, 0, 67, 80
1, 5904, Control_c, 0, 67, 84
1, 5919, Control_c, 0, 67, 88
1, 5934, Control_c, 0, 67, 90
1, 5949, Control_c, 0, 67, 92
1, 5964, Control_c, 0, 67, 94
1, 5979, Control_c, 0, 67, 98
1, 5994, Control_c, 0, 67, 102
1, 6009, Control_c, 0, 67, 106
1, 6023, Control_c, 0, 67, 108
1, 6038, Control_c, 0, 67, 110
1, 6053, Control_c, 0, 67, 112
1, 6068, Control_c, 0, 67, 114
1, 6083, Control_c, 0, 67, 117
1, 6097, Control_c, 0, 67, 119
1, 6112, Control_c, 0, 67, 121
1, 6127, Control_c, 0, 67, 122
1, 6141, Control_c, 0, 67, 123
1, 6156, Control_c, 0, 67, 123
1, 6171, Control_c, 0, 67, 124
1, 6185, Note_on_c, 0, 77, 58
1, 6186, Control_c, 0, 67, 125
1, 6201, Control_c, 0, 67, 126
1, 6215, Control_c, 0, 67, 127
1, 6250, Note_off_c, 0, 74, 56
1, 6343, Note_on_c, 0, 68, 47
1, 6345, Note_on_c, 0, 82, 65
1, 6348, Note_on_c, 0, 58, 49
1, 6350, Note_on_c, 0, 65, 45
1, 6369, Note_off_c, 0, 77, 63
1, 6402, Note_off_c, 0, 68, 57
1, 6405, Note_off_c, 0, 65, 62
1, 6410, Note_off_c, 0, 58, 56
1, 6766, Note_on_c, 0, 80, 54
1, 6780, Note_on_c, 0, 62, 40
1, 6904, Note_off_c, 0, 82, 54
1, 6931, Note_on_c, 0, 79, 39
1, 6931, Note_off_c, 0, 62, 51
1, 6936, Note_on_c, 0, 63, 39
1, 6983, Note_off_c, 0, 80, 30
1, 7211, Note_off_c, 0, 63, 55
1, 7240, Note_off_c, 0, 79, 51
1, 7635, Note_on_c, 0, 80, 64
1, 7636, Note_on_c, 0, 58, 61
1, 7637, Note_on_c, 0, 84, 62
1, 7670, Note_off_c, 0, 80, 60
1, 7680, Note_off_c, 0, 58, 61
1, 7685, Note_off_c, 0, 84, 61
1, 7755, Note_on_c, 0, 82, 60
1, 7762, Note_on_c, 0, 79, 57
1, 7763, Note_on_c, 0, 60, 55
1, 7791, Note_off_c, 0, 79, 60
1, 7803, Note_off_c, 0, 60, 65
1, 7803, Note_off_c, 0, 82, 59
1, 7888, Note_on_c, 0, 80, 64
1, 7895, Note_on_c, 0, 62, 58
1, 7896, Note_on_c, 0, 77, 61
1, 7924, Note_off_c, 0, 80, 57
1, 7934, Note_off_c, 0, 62, 61
1, 7935, Note_off_c, 0, 77, 59
1, 8030, Note_on_c, 0, 75, 62
1, 8039, Note_on_c, 0, 79, 52
1, 8045, Note_on_c, 0, 63, 48
1, 8228, Note_off_c, 0, 79, 57
1, 8238, Note_off_c, 0, 63, 58
1, 8276, Note_off_c, 0, 75, 54
1, 8701, Note_on_c, 0, 80, 54
1, 8701, Note_on_c, 0, 84, 50
1, 8703, Note_on_c, 0, 58, 49
1, 8744, Note_off_c, 0, 80, 60
1, 8753, Note_off_c, 0, 84, 54
1, 8762, Note_off_c, 0, 58, 52
1, 8819, Note_on_c, 0, 82, 52
1, 8841, Note_on_c, 0, 60, 43
1, 8844, Note_on_c, 0, 79, 47
1, 8881, Note_off_c, 0, 79, 54
1, 8882, Note_off_c, 0, 82, 55
1, 8890, Note_off_c, 0, 60, 46
1, 8957, Note_on_c, 0, 80, 56
1, 8959, Note_on_c, 0, 62, 52
1, 8963, Note_on_c, 0, 77, 46
1, 8984, Note_off_c, 0, 80, 61
1, 8999, Note_off_c, 0, 62, 52
1, 9016, Note_off_c, 0, 77, 44
1, 9106, Note_on_c, 0, 79, 46
1, 9114, Note_on_c, 0, 75, 44
1, 9119, Note_on_c, 0, 63, 35
1, 9352, Note_off_c, 0, 79, 52
1, 9403, Note_off_c, 0, 63, 48
1, 9407, Note_off_c, 0, 75, 56
1, 9759, Note_on_c, 0, 80, 65
1, 9759, Note_on_c, 0, 84, 64
1, 9887, Note_on_c, 0, 82, 65
1, 9887, Note_on_c, 0, 79, 70
1, 9905, Note_off_c, 0, 80, 53
1, 10005, Note_off_c, 0, 79, 60
1, 10010, Note_on_c, 0, 80, 72
1, 10015, Note_on_c, 0, 77, 71
1, 10018, Note_off_c, 0, 84, 37
1, 10033, Note_off_c, 0, 82, 59
1, 10063, Control_c, 0, 67, 126
1, 10070, Note_off_c, 0, 80, 63
1, 10107, Control_c, 0, 67, 126
1, 10137, Control_c, 0, 67, 125
1, 10146, Note_on_c, 0, 79, 66
1, 10152, Note_on_c, 0, 75, 67
1, 10187, Note_off_c, 0, 77, 61
1, 10199, Note_off_c, 0, 75, 61
1, 10207, Note_off_c, 0, 79, 62
1, 10283, Note_on_c, 0, 84, 74
1, 10293, Note_on_c, 0, 80, 66
1, 10422, Note_on_c, 0, 82, 76
1, 10423, Note_on_c, 0, 79, 73
1, 10450, Note_off_c, 0, 80, 59
1, 10516, Control_c, 0, 67, 126
1, 10543, Note_on_c, 0, 77, 77
1, 10543, Note_off_c, 0, 84, 51
1, 10546, Note_on_c, 0, 80, 75
1, 10552, Note_off_c, 0, 79, 59
1, 10560, Control_c, 0, 67, 127
1, 10569, Note_off_c, 0, 82, 61
1, 10590, Control_c, 0, 67, 127
1, 10607, Note_off_c, 0, 80, 63
1, 10634, Control_c, 0, 64, 29
1, 10649, Control_c, 0, 64, 39
1, 10664, Control_c, 0, 64, 48
1, 10671, Note_on_c, 0, 79, 74
1, 10675, Note_on_c, 0, 75, 79
1, 10678, Control_c, 0, 64, 54
1, 10693, Control_c, 0, 64, 58
1, 10703, Note_off_c, 0, 77, 62
1, 10708, Control_c, 0, 64, 60
1, 10723, Control_c, 0, 64, 61
1, 10724, Note_off_c, 0, 75, 63
1, 10724, Note_off_c, 0, 79, 62
1, 10752, Control_c, 0, 64, 59
1, 10767, Control_c, 0, 64, 57
1, 10782, Control_c, 0, 64, 55
1, 10797, Control_c, 0, 64, 53
1, 10802, Note_on_c, 0, 82, 81
1, 10805, Note_on_c, 0, 79, 76
1, 10811, Control_c, 0, 64, 52
1, 10826, Control_c, 0, 64, 52
1, 10841, Control_c, 0, 64, 50
1, 10856, Control_c, 0, 64, 47
1, 10871, Control_c, 0, 64, 43
1, 10885, Control_c, 0, 64, 38
1, 10900, Control_c, 0, 64, 34
1, 10915, Control_c, 0, 64, 32
1, 10928, Note_on_c, 0, 80, 68
1, 10930, Control_c, 0, 64, 31
1, 10933, Note_on_c, 0, 77, 88
1, 10945, Control_c, 0, 64, 30
1, 10949, Note_off_c, 0, 82, 63
1, 10955, Note_off_c, 0, 79, 57
1, 10960, Control_c, 0, 64, 29
1, 10975, Control_c, 0, 64, 28
1, 10976, Note_off_c, 0, 80, 60
1, 10990, Control_c, 0, 64, 26
1, 11004, Control_c, 0, 64, 22
1, 11019, Control_c, 0, 64, 18
1, 11034, Control_c, 0, 64, 13
1, 11049, Control_c, 0, 64, 11
1, 11058, Note_on_c, 0, 75, 80
1, 11064, Control_c, 0, 64, 8
1, 11066, Note_on_c, 0, 79, 66
1, 11087, Control_c, 0, 64, 0
1, 11094, Note_off_c, 0, 77, 59
1, 11193, Note_on_c, 0, 74, 77
1, 11195, Note_on_c, 0, 77, 80
1, 11223, Note_off_c, 0, 75, 60
1, 11249, Control_c, 0, 64, 16
1, 11264, Control_c, 0, 64, 28
1, 11279, Control_c, 0, 64, 35
1, 11294, Control_c, 0, 64, 42
1, 11308, Note_off_c, 0, 79, 56
1, 11308, Control_c, 0, 64, 49
1, 11319, Note_on_c, 0, 75, 70
1, 11323, Control_c, 0, 64, 52
1, 11324, Note_off_c, 0, 74, 62
1, 11327, Note_on_c, 0, 72, 75
1, 11338, Control_c, 0, 64, 53
1, 11341, Note_off_c, 0, 77, 61
1, 11352, Control_c, 0, 64, 54
1, 11372, Note_off_c, 0, 75, 62
1, 11397, Control_c, 0, 64, 53
1, 11412, Control_c, 0, 64, 52
1, 11426, Control_c, 0, 64, 50
1, 11441, Control_c, 0, 64, 49
1, 11446, Note_on_c, 0, 70, 78
1, 11448, Note_on_c, 0, 74, 55
1, 11456, Control_c, 0, 64, 47
1, 11458, Note_off_c, 0, 72, 56
1, 11470, Control_c, 0, 64, 45
1, 11485, Control_c, 0, 64, 43
1, 11500, Control_c, 0, 64, 41
1, 11515, Control_c, 0, 64, 38
1, 11524, Note_off_c, 0, 70, 57
1, 11530, Control_c, 0, 64, 35
1, 11544, Control_c, 0, 64, 31
1, 11559, Control_c, 0, 64, 27
1, 11568, Note_on_c, 0, 72, 69
1, 11574, Control_c, 0, 64, 23
1, 11577, Note_on_c, 0, 68, 71
1, 11589, Control_c, 0, 64, 16
1, 11604, Control_c, 0, 64, 0
1, 11657, Note_off_c, 0, 74, 39
1, 11667, Note_off_c, 0, 68, 56
1, 11705, Note_on_c, 0, 70, 73
1, 11708, Control_c, 0, 64, 19
1, 11716, Note_on_c, 0, 67, 67
1, 11723, Control_c, 0, 64, 32
1, 11738, Control_c, 0, 64, 40
1, 11751, Note_off_c, 0, 67, 62
1, 11752, Control_c, 0, 64, 47
1, 11767, Control_c, 0, 64, 52
1, 11775, Note_off_c, 0, 72, 58
1, 11782, Control_c, 0, 64, 55
1, 11812, Control_c, 0, 64, 54
1, 11833, Note_on_c, 0, 65, 74
1, 11833, Control_c, 0, 64, 53
1, 11839, Note_on_c, 0, 68, 61
1, 11848, Control_c, 0, 64, 52
1, 11853, Note_off_c, 0, 70, 63
1, 11864, Control_c, 0, 64, 51
1, 11876, Note_off_c, 0, 68, 62
1, 11879, Control_c, 0, 64, 50
1, 11894, Control_c, 0, 64, 49
1, 11909, Control_c, 0, 64, 47
1, 11924, Control_c, 0, 64, 45
1, 11938, Control_c, 0, 64, 44
1, 11953, Control_c, 0, 64, 43
1, 11968, Note_on_c, 0, 67, 67
1, 11968, Control_c, 0, 64, 42
1, 11970, Note_off_c, 0, 65, 65
1, 11977, Note_on_c, 0, 63, 64
1, 11982, Control_c, 0, 64, 40
1, 11997, Control_c, 0, 64, 35
1, 12012, Control_c, 0, 64, 31
1, 12027, Control_c, 0, 64, 26
1, 12042, Control_c, 0, 64, 22
1, 12043, Note_off_c, 0, 63, 62
1, 12057, Control_c, 0, 64, 19
1, 12072, Control_c, 0, 64, 14
1, 12087, Control_c, 0, 64, 0
1, 12097, Note_on_c, 0, 62, 59
1, 12102, Note_on_c, 0, 65, 64
1, 12158, Note_off_c, 0, 62, 63
1, 12167, Note_off_c, 0, 67, 58
1, 12247, Note_on_c, 0, 63, 75
1, 12251, Note_on_c, 0, 48, 47
1, 12337, Note_off_c, 0, 65, 65
1, 12361, Note_off_c, 0, 48, 58
1, 12377, Note_on_c, 0, 56, 47
1, 12441, Control_c, 0, 67, 127
1, 12498, Note_off_c, 0, 56, 54
1, 12513, Note_on_c, 0, 48, 43
1, 12516, Control_c, 0, 67, 126
1, 12546, Control_c, 0, 67, 126
1, 12653, Note_on_c, 0, 56, 47
1, 12654, Note_off_c, 0, 48, 47
1, 12732, Control_c, 0, 67, 126
1, 12747, Control_c, 0, 67, 127
1, 12790, Note_on_c, 0, 48, 50
1, 12804, Note_off_c, 0, 56, 34
1, 12821, Control_c, 0, 67, 127
1, 12923, Note_on_c, 0, 56, 45
1, 12930, Note_off_c, 0, 48, 55
1, 13041, Note_off_c, 0, 56, 54
1, 13064, Note_on_c, 0, 48, 54
1, 13150, Note_off_c, 0, 63, 64
1, 13170, Note_off_c, 0, 48, 61
1, 13177, Note_on_c, 0, 65, 56
1, 13187, Note_on_c, 0, 56, 44
1, 13222, Note_off_c, 0, 65, 65
1, 13232, Note_on_c, 0, 63, 63
1, 13276, Note_off_c, 0, 56, 36
1, 13285, Note_on_c, 0, 62, 70
1, 13285, Note_off_c, 0, 63, 63
1, 13300, Note_on_c, 0, 46, 53
1, 13427, Note_off_c, 0, 46, 61
1, 13443, Note_on_c, 0, 56, 48
1, 13558, Note_off_c, 0, 56, 55
1, 13574, Note_on_c, 0, 46, 50
1, 13705, Note_on_c, 0, 56, 49
1, 13706, Note_off_c, 0, 46, 58
1, 13840, Note_on_c, 0, 46, 49
1, 13842, Note_on_c, 0, 61, 62
1, 13851, Note_off_c, 0, 56, 47
1, 13947, Note_off_c, 0, 46, 58
1, 13947, Note_off_c, 0, 62, 59
1, 13977, Note_on_c, 0, 55, 50
1, 14098, Note_off_c, 0, 55, 52
1, 14121, Note_on_c, 0, 46, 45
1, 14251, Note_on_c, 0, 55, 51
1, 14256, Note_off_c, 0, 46, 56
1, 14387, Note_on_c, 0, 60, 64
1, 14408, Note_off_c, 0, 55, 53
1, 14409, Note_on_c, 0, 44, 45
1, 14472, Note_off_c, 0, 61, 57
1, 14529, Note_off_c, 0, 44, 52
1, 14543, Note_on_c, 0, 55, 49
1, 14658, Note_on_c, 0, 44, 47
1, 14659, Note_off_c, 0, 55, 56
1, 14799, Note_on_c, 0, 55, 49
1, 14805, Note_off_c, 0, 44, 54
1, 14914, Note_off_c, 0, 55, 57
1, 14939, Note_on_c, 0, 44, 53
1, 15073, Note_on_c, 0, 53, 50
1, 15076, Note_off_c, 0, 44, 55
1, 15192, Note_off_c, 0, 53, 60
1, 15197, Note_on_c, 0, 44, 57
1, 15267, Note_off_c, 0, 60, 63
1, 15302, Note_off_c, 0, 44, 57
1, 15312, Note_on_c, 0, 62, 60
1, 15324, Note_on_c, 0, 53, 51
1, 15366, Note_off_c, 0, 62, 60
1, 15375, Note_on_c, 0, 60, 63
1, 15428, Note_off_c, 0, 60, 57
1, 15431, Note_on_c, 0, 58, 68
1, 15431, Note_off_c, 0, 53, 57
1, 15443, Note_on_c, 0, 43, 52
1, 15562, Note_off_c, 0, 43, 58
1, 15576, Note_on_c, 0, 53, 51
1, 15704, Note_on_c, 0, 43, 52
1, 15704, Note_off_c, 0, 53, 57
1, 15796, Note_off_c, 0, 58, 63
1, 15819, Note_on_c, 0, 60, 67
1, 15841, Note_on_c, 0, 53, 50
1, 15849, Note_off_c, 0, 43, 57
1, 15872, Note_off_c, 0, 60, 61
1, 15884, Note_on_c, 0, 62, 71
1, 15933, Note_off_c, 0, 53, 57
1, 15938, Note_on_c, 0, 63, 71
1, 15946, Note_off_c, 0, 62, 65
1, 15958, Note_on_c, 0, 43, 58
1, 16075, Note_on_c, 0, 51, 57
1, 16079, Note_off_c, 0, 43, 59
1, 16206, Note_on_c, 0, 43, 56
1, 16219, Note_off_c, 0, 51, 54
1, 16308, Note_off_c, 0, 63, 65
1, 16338, Note_on_c, 0, 65, 64
1, 16348, Note_on_c, 0, 51, 62
1, 16361, Note_off_c, 0, 43, 60
1, 16393, Note_off_c, 0, 65, 46
1, 16401, Note_on_c, 0, 67, 71
1, 16409, Note_off_c, 0, 51, 64
1, 16460, Note_on_c, 0, 68, 73
1, 16465, Note_off_c, 0, 67, 64
1, 16472, Note_on_c, 0, 41, 53
1, 16588, Note_on_c, 0, 50, 54
1, 16598, Note_off_c, 0, 41, 59
1, 16707, Note_off_c, 0, 50, 54
1, 16720, Note_on_c, 0, 41, 51
1, 16863, Note_on_c, 0, 50, 48
1, 16871, Note_off_c, 0, 41, 62
1, 16991, Note_on_c, 0, 67, 51
1, 17001, Note_off_c, 0, 50, 50
1, 17002, Note_on_c, 0, 39, 52
1, 17006, Note_off_c, 0, 68, 56
1, 17075, Note_off_c, 0, 39, 57
1, 17131, Note_on_c, 0, 43, 51
1, 17173, Note_off_c, 0, 43, 59
1, 17252, Note_on_c, 0, 46, 58
1, 17271, Note_off_c, 0, 67, 63
1, 17291, Note_off_c, 0, 46, 64
1, 17389, Note_on_c, 0, 51, 47
1, 17414, Note_off_c, 0, 51, 58
1, 17463, Control_c, 0, 67, 127
1, 17477, Control_c, 0, 67, 126
1, 17492, Control_c, 0, 67, 126
1, 17507, Control_c, 0, 67, 125
1, 17521, Control_c, 0, 67, 123
1, 17530, Note_on_c, 0, 60, 46
1, 17532, Note_on_c, 0, 65, 48
1, 17536, Control_c, 0, 67, 122
1, 17548, Note_on_c, 0, 56, 33
1, 17551, Control_c, 0, 67, 118
1, 17556, Note_on_c, 0, 44, 41
1, 17566, Control_c, 0, 67, 116
1, 17581, Control_c, 0, 67, 115
1, 17595, Note_off_c, 0, 44, 61
1, 17595, Note_off_c, 0, 56, 61
1, 17595, Control_c, 0, 67, 113
1, 17601, Note_off_c, 0, 60, 58
1, 17610, Control_c, 0, 67, 112
1, 17620, Note_off_c, 0, 65, 65
1, 17625, Control_c, 0, 67, 110
1, 17640, Control_c, 0, 67, 108
1, 17655, Control_c, 0, 67, 105
1, 17670, Control_c, 0, 67, 103
1, 17700, Control_c, 0, 67, 104
1, 17714, Control_c, 0, 67, 104
1, 17774, Control_c, 0, 67, 104
1, 17788, Control_c, 0, 67, 103
1, 17803, Control_c, 0, 67, 101
1, 17825, Control_c, 0, 67, 98
1, 17840, Control_c, 0, 67, 95
1, 17855, Control_c, 0, 67, 94
1, 17870, Control_c, 0, 67, 94
1, 17885, Control_c, 0, 67, 93
1, 17900, Control_c, 0, 67, 91
1, 17914, Control_c, 0, 67, 88
1, 17929, Control_c, 0, 67, 85
1, 17944, Control_c, 0, 67, 84
1, 18047, Control_c, 0, 67, 84
1, 18087, Note_on_c, 0, 62, 52
1, 18091, Note_on_c, 0, 56, 45
1, 18107, Note_on_c, 0, 53, 38
1, 18108, Note_on_c, 0, 46, 51
1, 18121, Control_c, 0, 67, 83
1, 18136, Control_c, 0, 67, 82
1, 18151, Control_c, 0, 67, 79
1, 18166, Control_c, 0, 67, 74
1, 18171, Note_off_c, 0, 56, 66
1, 18181, Note_off_c, 0, 46, 64
1, 18181, Control_c, 0, 67, 69
1, 18183, Note_off_c, 0, 53, 64
1, 18192, Note_off_c, 0, 62, 64
1, 18195, Control_c, 0, 67, 64
1, 18210, Control_c, 0, 67, 60
1, 18225, Control_c, 0, 67, 55
1, 18241, Control_c, 0, 67, 51
1, 18256, Control_c, 0, 67, 47
1, 18270, Control_c, 0, 67, 45
1, 18285, Control_c, 0, 67, 44
1, 18330, Control_c, 0, 67, 44
1, 18344, Control_c, 0, 67, 43
1, 18359, Control_c, 0, 67, 42
1, 18374, Control_c, 0, 67, 39
1, 18389, Control_c, 0, 67, 34
1, 18404, Control_c, 0, 67, 31
1, 18418, Control_c, 0, 67, 29
1, 18433, Control_c, 0, 67, 27
1, 18448, Control_c, 0, 67, 26
1, 18463, Control_c, 0, 67, 25
1, 18481, Note_on_c, 0, 51, 62
1, 18508, Control_c, 0, 67, 24
1, 18511, Note_on_c, 0, 55, 50
1, 18523, Note_on_c, 0, 58, 71
1, 18523, Control_c, 0, 67, 24
1, 18526, Note_on_c, 0, 67, 75
1, 18549, Note_on_c, 0, 63, 64
1, 18569, Note_on_c, 0, 70, 80
1, 18602, Note_on_c, 0, 75, 90
1, 18604, Control_c, 0, 64, 19
1, 18618, Control_c, 0, 64, 35
1, 18620, Note_off_c, 0, 67, 63
1, 18633, Control_c, 0, 64, 51
1, 18633, Control_c, 0, 67, 24
1, 18635, Note_off_c, 0, 70, 64
1, 18648, Control_c, 0, 64, 64
1, 18648, Control_c, 0, 67, 25
1, 18660, Note_off_c, 0, 75, 68
1, 18663, Control_c, 0, 64, 75
1, 18663, Control_c, 0, 67, 27
1, 18678, Control_c, 0, 64, 81
1, 18678, Control_c, 0, 67, 27
1, 18692, Control_c, 0, 64, 91
1, 18707, Control_c, 0, 64, 102
1, 18707, Control_c, 0, 67, 28
1, 18719, Note_off_c, 0, 63, 65
1, 18722, Control_c, 0, 64, 127
1, 18722, Control_c, 0, 67, 28
1, 18737, Control_c, 0, 67, 29
1, 18745, Note_off_c, 0, 51, 58
1, 18767, Control_c, 0, 67, 28
1, 18777, Note_off_c, 0, 55, 57
1, 18782, Control_c, 0, 67, 27
1, 18791, Note_off_c, 0, 58, 52
1, 18797, Control_c, 0, 67, 26
1, 18812, Control_c, 0, 67, 25
1, 18826, Control_c, 0, 67, 23
1, 18841, Control_c, 0, 67, 20
1, 18856, Control_c, 0, 67, 16
1, 18870, Control_c, 0, 67, 12
1, 18885, Control_c, 0, 67, 8
1, 18900, Control_c, 0, 67, 0
1, 19123, Control_c, 0, 64, 105
1, 19138, Control_c, 0, 64, 65
1, 19141, Note_on_c, 0, 79, 88
1, 19151, Note_on_c, 0, 75, 80
1, 19153, Note_on_c, 0, 51, 71
1, 19153, Control_c, 0, 64, 47
1, 19154, Note_on_c, 0, 61, 67
1, 19156, Note_on_c, 0, 58, 72
1, 19159, Note_on_c, 0, 73, 67
1, 19167, Control_c, 0, 64, 34
1, 19171, Note_on_c, 0, 55, 60
1, 19182, Note_off_c, 0, 61, 69
1, 19182, Control_c, 0, 64, 39
1, 19185, Note_off_c, 0, 73, 66
1, 19197, Control_c, 0, 64, 51
1, 19208, Note_off_c, 0, 51, 67
1, 19212, Note_off_c, 0, 55, 66
1, 19212, Control_c, 0, 64, 64
1, 19226, Note_off_c, 0, 75, 63
1, 19227, Control_c, 0, 64, 92
1, 19231, Note_off_c, 0, 58, 64
1, 19241, Control_c, 0, 64, 127
1, 19538, Note_on_c, 0, 75, 82
1, 19545, Note_off_c, 0, 79, 57
1, 19576, Note_off_c, 0, 75, 59
1, 19607, Note_on_c, 0, 72, 82
1, 19634, Control_c, 0, 64, 106
1, 19647, Note_on_c, 0, 75, 89
1, 19649, Control_c, 0, 64, 69
1, 19664, Control_c, 0, 64, 54
1, 19679, Control_c, 0, 64, 14
1, 19685, Note_on_c, 0, 80, 93
1, 19687, Note_on_c, 0, 51, 69
1, 19687, Note_on_c, 0, 60, 66
1, 19690, Note_on_c, 0, 56, 72
1, 19693, Control_c, 0, 64, 0
1, 19826, Control_c, 0, 64, 19
1, 19843, Control_c, 0, 64, 35
1, 19857, Control_c, 0, 64, 50
1, 19872, Control_c, 0, 64, 64
1, 19887, Control_c, 0, 64, 83
1, 19902, Control_c, 0, 64, 110
1, 19916, Control_c, 0, 64, 127
1, 19941, Note_off_c, 0, 80, 63
1, 19944, Note_off_c, 0, 75, 59
1, 20014, Note_off_c, 0, 72, 53
1, 20134, Note_off_c, 0, 51, 35
1, 20219, Note_on_c, 0, 84, 80
1, 20245, Note_off_c, 0, 56, 22
1, 20271, Note_on_c, 0, 82, 82
1, 20303, Note_off_c, 0, 60, 63
1, 20309, Control_c, 0, 64, 74
1, 20312, Note_off_c, 0, 84, 63
1, 20322, Note_on_c, 0, 80, 84
1, 20323, Control_c, 0, 64, 62
1, 20338, Control_c, 0, 64, 49
1, 20353, Control_c, 0, 64, 28
1, 20365, Note_off_c, 0, 82, 65
1, 20368, Control_c, 0, 64, 0
1, 20389, Note_on_c, 0, 79, 69
1, 20410, Note_off_c, 0, 80, 64
1, 20426, Note_off_c, 0, 79, 61
1, 20433, Note_on_c, 0, 77, 81
1, 20476, Note_off_c, 0, 77, 58
1, 20487, Note_on_c, 0, 75, 79
1, 20552, Note_on_c, 0, 74, 74
1, 20552, Note_off_c, 0, 75, 63
1, 20598, Note_on_c, 0, 72, 12
1, 20625, Note_off_c, 0, 74, 38
1, 20664, Note_on_c, 0, 70, 78
1, 20668, Note_off_c, 0, 72, 52
1, 20671, Note_on_c, 0, 62, 69
1, 20672, Note_on_c, 0, 56, 65
1, 20681, Note_on_c, 0, 51, 54
1, 20685, Note_on_c, 0, 53, 54
1, 20726, Note_on_c, 0, 68, 78
1, 20741, Note_off_c, 0, 70, 62
1, 20778, Note_on_c, 0, 67, 81
1, 20815, Note_off_c, 0, 68, 62
1, 20830, Note_off_c, 0, 67, 62
1, 20850, Note_on_c, 0, 65, 74
1, 20877, Note_off_c, 0, 62, 64
1, 20895, Note_off_c, 0, 65, 61
1, 20898, Note_on_c, 0, 63, 78
1, 20943, Note_off_c, 0, 56, 63
1, 20962, Note_on_c, 0, 62, 78
1, 20985, Note_off_c, 0, 63, 64
1, 21009, Note_off_c, 0, 62, 61
1, 21016, Note_on_c, 0, 60, 78
1, 21068, Note_off_c, 0, 60, 60
1, 21070, Note_on_c, 0, 58, 77
1, 21087, Note_off_c, 0, 53, 60
1, 21126, Note_off_c, 0, 51, 64
1, 21129, Note_on_c, 0, 56, 76
1, 21142, Note_off_c, 0, 58, 62
1, 21177, Note_on_c, 0, 55, 82
1, 21201, Note_off_c, 0, 56, 65
1, 21219, Note_off_c, 0, 55, 67
1, 21229, Note_on_c, 0, 53, 78
1, 21268, Note_off_c, 0, 53, 67
1, 21283, Note_on_c, 0, 51, 76
1, 21313, Note_off_c, 0, 51, 63
1, 21319, Note_on_c, 0, 50, 76
1, 21373, Note_off_c, 0, 50, 64
1, 21383, Note_on_c, 0, 48, 65
1, 21411, Note_off_c, 0, 48, 66
1, 21428, Note_on_c, 0, 46, 82
1, 21461, Note_on_c, 0, 44, 71
1, 21471, Note_off_c, 0, 46, 63
1, 21504, Note_on_c, 0, 43, 84
1, 21530, Note_off_c, 0, 44, 58
1, 21547, Note_on_c, 0, 41, 75
1, 21548, Note_off_c, 0, 43, 61
1, 21599, Note_off_c, 0, 41, 65
1, 21599, Control_c, 0, 67, 8
1, 21606, Note_on_c, 0, 39, 75
1, 21614, Control_c, 0, 67, 0
1, 21866, Control_c, 0, 67, 8
1, 21881, Control_c, 0, 67, 10
1, 21888, Note_off_c, 0, 39, 66
1, 21895, Control_c, 0, 67, 13
1, 21910, Control_c, 0, 67, 15
1, 21925, Control_c, 0, 67, 16
1, 21940, Control_c, 0, 67, 19
1, 21955, Control_c, 0, 67, 22
1, 21969, Control_c, 0, 67, 26
1, 21984, Control_c, 0, 67, 30
1, 21999, Control_c, 0, 67, 32
1, 22013, Control_c, 0, 67, 33
1, 22028, Control_c, 0, 67, 34
1, 22043, Control_c, 0, 67, 36
1, 22058, Control_c, 0, 67, 40
1, 22073, Control_c, 0, 67, 42
1, 22088, Control_c, 0, 67, 43
1, 22103, Control_c, 0, 67, 44
1, 22117, Control_c, 0, 67, 47
1, 22132, Control_c, 0, 67, 51
1, 22147, Control_c, 0, 67, 56
1, 22162, Control_c, 0, 67, 60
1, 22177, Control_c, 0, 67, 64
1, 22192, Control_c, 0, 67, 71
1, 22206, Control_c, 0, 67, 78
1, 22213, Note_on_c, 0, 75, 46
1, 22221, Control_c, 0, 67, 84
1, 22231, Note_on_c, 0, 84, 42
1, 22237, Control_c, 0, 67, 88
1, 22252, Control_c, 0, 67, 93
1, 22267, Control_c, 0, 67, 99
1, 22281, Control_c, 0, 67, 107
1, 22296, Control_c, 0, 67, 114
1, 22318, Control_c, 0, 67, 118
1, 22333, Control_c, 0, 67, 122
1, 22348, Control_c, 0, 67, 125
1, 22359, Note_on_c, 0, 79, 44
1, 22363, Control_c, 0, 67, 127
1, 22377, Note_off_c, 0, 84, 43
1, 22483, Note_on_c, 0, 84, 51
1, 22496, Control_c, 0, 64, 12
1, 22508, Note_off_c, 0, 79, 41
1, 22511, Control_c, 0, 64, 19
1, 22526, Control_c, 0, 64, 25
1, 22541, Control_c, 0, 64, 30
1, 22556, Control_c, 0, 64, 34
1, 22571, Control_c, 0, 64, 37
1, 22573, Note_off_c, 0, 75, 62
1, 22585, Control_c, 0, 64, 41
1, 22600, Control_c, 0, 64, 46
1, 22600, Note_off_c, 0, 84, 53
1, 22609, Note_on_c, 0, 77, 45
1, 22610, Note_on_c, 0, 79, 49
1, 22615, Control_c, 0, 64, 50
1, 22629, Control_c, 0, 64, 51
1, 22639, Note_off_c, 0, 77, 54
1, 22645, Note_on_c, 0, 75, 54
1, 22674, Control_c, 0, 64, 50
1, 22689, Control_c, 0, 64, 48
1, 22703, Control_c, 0, 64, 44
1, 22718, Control_c, 0, 64, 39
1, 22721, Note_off_c, 0, 79, 52
1, 22726, Note_on_c, 0, 84, 59
1, 22733, Control_c, 0, 64, 34
1, 22736, Note_on_c, 0, 74, 59
1, 22748, Control_c, 0, 64, 29
1, 22758, Note_off_c, 0, 75, 58
1, 22763, Control_c, 0, 64, 21
1, 22778, Control_c, 0, 64, 0
1, 22864, Note_off_c, 0, 84, 56
1, 22883, Note_on_c, 0, 77, 52
1, 23000, Note_on_c, 0, 84, 48
1, 23004, Note_off_c, 0, 77, 53
1, 23143, Note_on_c, 0, 77, 54
1, 23258, Note_off_c, 0, 84, 42
1, 23277, Note_on_c, 0, 82, 57
1, 23286, Note_on_c, 0, 73, 52
1, 23301, Note_off_c, 0, 77, 42
1, 23332, Note_off_c, 0, 74, 54
1, 23419, Note_off_c, 0, 82, 57
1, 23420, Note_on_c, 0, 77, 55
1, 23511, Control_c, 0, 64, 12
1, 23526, Control_c, 0, 64, 16
1, 23540, Control_c, 0, 64, 20
1, 23541, Note_on_c, 0, 82, 58
1, 23551, Note_off_c, 0, 77, 51
1, 23555, Control_c, 0, 64, 25
1, 23570, Control_c, 0, 64, 30
1, 23584, Control_c, 0, 64, 34
1, 23599, Control_c, 0, 64, 37
1, 23614, Control_c, 0, 64, 40
1, 23629, Control_c, 0, 64, 42
1, 23644, Control_c, 0, 64, 45
1, 23659, Note_off_c, 0, 82, 50
1, 23659, Control_c, 0, 64, 48
1, 23674, Control_c, 0, 64, 50
1, 23676, Note_on_c, 0, 77, 58
1, 23688, Control_c, 0, 64, 51
1, 23703, Control_c, 0, 64, 52
1, 23721, Note_off_c, 0, 73, 55
1, 23733, Control_c, 0, 64, 52
1, 23763, Control_c, 0, 64, 52
1, 23777, Control_c, 0, 64, 51
1, 23792, Control_c, 0, 64, 50
1, 23814, Control_c, 0, 64, 48
1, 23825, Note_off_c, 0, 77, 44
1, 23829, Control_c, 0, 64, 45
1, 23836, Note_on_c, 0, 82, 54
1, 23840, Note_on_c, 0, 72, 63
1, 23845, Control_c, 0, 64, 42
1, 23860, Control_c, 0, 64, 39
1, 23875, Control_c, 0, 64, 35
1, 23889, Control_c, 0, 64, 29
1, 23904, Control_c, 0, 64, 18
1, 23919, Control_c, 0, 64, 0
1, 23966, Note_on_c, 0, 76, 47
1, 23966, Note_off_c, 0, 82, 55
1, 24090, Note_on_c, 0, 82, 54
1, 24103, Note_off_c, 0, 76, 58
1, 24233, Note_on_c, 0, 76, 52
1, 24282, Note_off_c, 0, 82, 37
1, 24380, Note_off_c, 0, 76, 54
1, 24383, Note_on_c, 0, 80, 52
1, 24509, Note_on_c, 0, 75, 58
1, 24512, Note_off_c, 0, 80, 45
1, 24636, Note_on_c, 0, 80, 55
1, 24648, Note_off_c, 0, 75, 55
1, 24725, Note_off_c, 0, 72, 59
1, 24765, Note_off_c, 0, 80, 60
1, 24769, Note_on_c, 0, 74, 35
1, 24773, Note_on_c, 0, 75, 59
1, 24795, Note_off_c, 0, 74, 58
1, 24828, Note_on_c, 0, 72, 59
1, 24875, Note_off_c, 0, 75, 60
1, 24890, Note_on_c, 0, 80, 58
1, 24896, Note_off_c, 0, 72, 57
1, 24904, Note_on_c, 0, 70, 57
1, 25014, Note_on_c, 0, 74, 52
1, 25018, Note_off_c, 0, 80, 54
1, 25158, Note_on_c, 0, 80, 56
1, 25170, Note_off_c, 0, 74, 61
1, 25273, Note_off_c, 0, 80, 59
1, 25304, Note_on_c, 0, 74, 50
1, 25441, Note_on_c, 0, 79, 54
1, 25449, Note_off_c, 0, 74, 49
1, 25563, Note_off_c, 0, 79, 58
1, 25573, Note_on_c, 0, 73, 50
1, 25639, Control_c, 0, 64, 9
1, 25653, Control_c, 0, 64, 14
1, 25668, Control_c, 0, 64, 17
1, 25683, Control_c, 0, 64, 21
1, 25695, Note_on_c, 0, 79, 60
1, 25698, Note_off_c, 0, 73, 49
1, 25698, Control_c, 0, 64, 23
1, 25713, Control_c, 0, 64, 25
1, 25727, Control_c, 0, 64, 25
1, 25742, Control_c, 0, 64, 26
1, 25757, Control_c, 0, 64, 26
1, 25772, Control_c, 0, 64, 28
1, 25785, Note_off_c, 0, 70, 60
1, 25787, Control_c, 0, 64, 29
1, 25820, Note_on_c, 0, 73, 55
1, 25823, Note_off_c, 0, 79, 58
1, 25825, Note_on_c, 0, 72, 45
1, 25847, Control_c, 0, 64, 28
1, 25853, Note_off_c, 0, 72, 55
1, 25861, Control_c, 0, 64, 26
1, 25876, Control_c, 0, 64, 25
1, 25878, Note_on_c, 0, 70, 61
1, 25891, Control_c, 0, 64, 22
1, 25906, Control_c, 0, 64, 18
1, 25921, Control_c, 0, 64, 14
1, 25927, Note_off_c, 0, 73, 58
1, 25935, Control_c, 0, 64, 0
1, 25949, Note_on_c, 0, 79, 63
1, 25954, Note_on_c, 0, 69, 61
1, 25958, Note_off_c, 0, 70, 56
1, 26094, Note_on_c, 0, 72, 51
1, 26109, Note_off_c, 0, 79, 53
1, 26236, Note_on_c, 0, 79, 58
1, 26239, Note_off_c, 0, 72, 56
1, 26362, Note_on_c, 0, 72, 52
1, 26404, Note_off_c, 0, 79, 54
1, 26489, Note_off_c, 0, 69, 58
1, 26508, Note_on_c, 0, 68, 67
1, 26512, Note_on_c, 0, 77, 63
1, 26514, Note_off_c, 0, 72, 51
1, 26646, Note_on_c, 0, 72, 50
1, 26654, Note_off_c, 0, 77, 56
1, 26699, Control_c, 0, 64, 10
1, 26714, Control_c, 0, 64, 22
1, 26729, Control_c, 0, 64, 28
1, 26744, Control_c, 0, 64, 33
1, 26758, Control_c, 0, 64, 37
1, 26773, Control_c, 0, 64, 40
1, 26780, Note_on_c, 0, 77, 61
1, 26788, Control_c, 0, 64, 44
1, 26794, Note_off_c, 0, 72, 57
1, 26809, Control_c, 0, 64, 48
1, 26824, Control_c, 0, 64, 50
1, 26839, Control_c, 0, 64, 51
1, 26854, Control_c, 0, 64, 52
1, 26869, Control_c, 0, 64, 52
1, 26884, Control_c, 0, 64, 53
1, 26890, Note_off_c, 0, 68, 60
1, 26902, Note_off_c, 0, 77, 56
1, 26906, Note_on_c, 0, 70, 62
1, 26918, Note_on_c, 0, 72, 59
1, 26929, Control_c, 0, 64, 52
1, 26938, Note_off_c, 0, 70, 50
1, 26944, Control_c, 0, 64, 51
1, 26958, Control_c, 0, 64, 49
1, 26973, Control_c, 0, 64, 47
1, 26979, Note_on_c, 0, 68, 62
1, 26988, Control_c, 0, 64, 43
1, 26999, Note_off_c, 0, 72, 56
1, 27002, Control_c, 0, 64, 39
1, 27017, Control_c, 0, 64, 34
1, 27027, Note_on_c, 0, 77, 62
1, 27033, Control_c, 0, 64, 28
1, 27048, Control_c, 0, 64, 18
1, 27048, Note_on_c, 0, 67, 70
1, 27063, Control_c, 0, 64, 0
1, 27072, Note_off_c, 0, 68, 56
1, 27170, Note_on_c, 0, 70, 61
1, 27177, Note_off_c, 0, 77, 56
1, 27305, Note_on_c, 0, 77, 66
1, 27307, Note_off_c, 0, 70, 52
1, 27438, Note_on_c, 0, 70, 53
1, 27457, Note_off_c, 0, 77, 58
1, 27576, Note_on_c, 0, 66, 66
1, 27587, Note_on_c, 0, 75, 62
1, 27587, Note_off_c, 0, 70, 58
1, 27631, Note_off_c, 0, 67, 62
1, 27716, Note_on_c, 0, 70, 56
1, 27732, Note_off_c, 0, 75, 56
1, 27859, Note_on_c, 0, 75, 60
1, 27868, Note_off_c, 0, 70, 59
1, 27969, Note_on_c, 0, 70, 62
1, 27978, Note_off_c, 0, 75, 58
1, 28080, Note_off_c, 0, 70, 56
1, 28112, Note_on_c, 0, 75, 59
1, 28122, Note_on_c, 0, 65, 67
1, 28165, Note_off_c, 0, 66, 60
1, 28234, Note_off_c, 0, 75, 53
1, 28247, Note_on_c, 0, 69, 49
1, 28389, Note_off_c, 0, 69, 59
1, 28397, Note_on_c, 0, 75, 43
1, 28521, Note_on_c, 0, 69, 39
1, 28566, Note_off_c, 0, 75, 32
1, 28669, Note_on_c, 0, 64, 49
1, 28675, Note_on_c, 0, 73, 46
1, 28702, Note_off_c, 0, 69, 44
1, 28741, Note_off_c, 0, 65, 62
1, 28799, Note_off_c, 0, 73, 50
1, 28810, Note_on_c, 0, 70, 48
1, 28941, Note_off_c, 0, 70, 51
1, 28946, Note_on_c, 0, 73, 41
1, 29068, Note_on_c, 0, 70, 56
1, 29197, Note_off_c, 0, 70, 52
1, 29208, Note_on_c, 0, 65, 45
1, 29212, Note_on_c, 0, 53, 50
1, 29218, Note_on_c, 0, 69, 47
1, 29218, Note_off_c, 0, 73, 40
1, 29266, Note_off_c, 0, 64, 52
1, 29346, Note_on_c, 0, 72, 44
1, 29483, Note_on_c, 0, 77, 55
1, 29488, Note_off_c, 0, 72, 51
1, 29615, Note_off_c, 0, 77, 58
1, 29621, Note_on_c, 0, 72, 42
1, 29733, Note_off_c, 0, 65, 63
1, 29741, Note_on_c, 0, 78, 65
1, 29743, Note_on_c, 0, 63, 61
1, 29766, Note_off_c, 0, 69, 45
1, 29772, Note_off_c, 0, 72, 43
1, 29877, Note_on_c, 0, 69, 52
1, 29930, Note_off_c, 0, 78, 57
1, 30005, Note_on_c, 0, 81, 66
1, 30071, Note_off_c, 0, 69, 56
1, 30085, Note_off_c, 0, 63, 64
1, 30127, Note_off_c, 0, 81, 64
1, 30130, Note_on_c, 0, 65, 36
1, 30130, Note_on_c, 0, 72, 59
1, 30156, Note_on_c, 0, 63, 63
1, 30162, Note_off_c, 0, 65, 58
1, 30232, Note_on_c, 0, 61, 61
1, 30246, Note_on_c, 0, 82, 73
1, 30318, Note_off_c, 0, 63, 42
1, 30327, Note_off_c, 0, 82, 57
1, 30385, Note_on_c, 0, 70, 56
1, 30512, Note_on_c, 0, 58, 66
1, 30516, Note_on_c, 0, 78, 71
1, 30521, Note_off_c, 0, 70, 47
1, 30597, Note_off_c, 0, 72, 51
1, 30651, Note_on_c, 0, 70, 58
1, 30682, Note_off_c, 0, 61, 38
1, 30720, Note_off_c, 0, 78, 63
1, 30790, Note_on_c, 0, 60, 64
1, 30791, Note_on_c, 0, 77, 60
1, 30801, Note_off_c, 0, 70, 54
1, 30865, Control_c, 0, 67, 127
1, 30866, Note_off_c, 0, 58, 51
1, 30880, Control_c, 0, 67, 126
1, 30895, Control_c, 0, 67, 124
1, 30910, Control_c, 0, 67, 123
1, 30924, Control_c, 0, 67, 123
1, 30925, Note_on_c, 0, 70, 61
1, 30939, Control_c, 0, 67, 122
1, 30954, Control_c, 0, 67, 121
1, 30968, Control_c, 0, 67, 120
1, 30998, Control_c, 0, 67, 120
1, 31013, Control_c, 0, 67, 119
1, 31045, Note_on_c, 0, 61, 67
1, 31049, Note_on_c, 0, 76, 67
1, 31053, Note_off_c, 0, 77, 37
1, 31063, Note_off_c, 0, 70, 57
1, 31111, Note_off_c, 0, 53, 57
1, 31138, Note_off_c, 0, 60, 60
1, 31180, Note_on_c, 0, 70, 57
1, 31236, Control_c, 0, 67, 119
1, 31275, Note_off_c, 0, 70, 62
1, 31313, Note_off_c, 0, 76, 36
1, 31323, Note_on_c, 0, 60, 60
1, 31325, Note_on_c, 0, 77, 62
1, 31340, Note_on_c, 0, 53, 52
1, 31362, Control_c, 0, 67, 118
1, 31373, Note_off_c, 0, 61, 64
1, 31377, Control_c, 0, 67, 116
1, 31392, Control_c, 0, 67, 114
1, 31421, Control_c, 0, 67, 114
1, 31436, Control_c, 0, 67, 113
1, 31451, Control_c, 0, 67, 112
1, 31456, Note_on_c, 0, 69, 54
1, 31466, Control_c, 0, 67, 110
1, 31481, Control_c, 0, 67, 109
1, 31510, Control_c, 0, 67, 109
1, 31525, Control_c, 0, 67, 108
1, 31580, Note_off_c, 0, 69, 59
1, 31584, Note_on_c, 0, 72, 57
1, 31585, Control_c, 0, 67, 108
1, 31599, Control_c, 0, 67, 107
1, 31614, Control_c, 0, 67, 106
1, 31629, Control_c, 0, 67, 106
1, 31714, Note_off_c, 0, 77, 58
1, 31716, Note_on_c, 0, 69, 52
1, 31717, Control_c, 0, 67, 106
1, 31728, Note_off_c, 0, 72, 56
1, 31732, Control_c, 0, 67, 107
1, 31762, Control_c, 0, 67, 107
1, 31806, Control_c, 0, 67, 108
1, 31850, Note_on_c, 0, 63, 71
1, 31852, Note_off_c, 0, 60, 59
1, 31853, Note_on_c, 0, 78, 73
1, 31874, Note_off_c, 0, 69, 63
1, 31989, Note_on_c, 0, 69, 68
1, 32059, Note_off_c, 0, 78, 62
1, 32121, Note_on_c, 0, 81, 72
1, 32196, Note_off_c, 0, 69, 63
1, 32217, Note_off_c, 0, 63, 66
1, 32240, Note_on_c, 0, 65, 65
1, 32256, Note_on_c, 0, 72, 65
1, 32259, Note_off_c, 0, 81, 64
1, 32282, Note_on_c, 0, 63, 62
1, 32284, Note_off_c, 0, 65, 60
1, 32360, Note_on_c, 0, 61, 69
1, 32383, Note_on_c, 0, 82, 69
1, 32434, Note_off_c, 0, 63, 58
1, 32466, Note_off_c, 0, 82, 59
1, 32501, Note_on_c, 0, 70, 67
1, 32616, Control_c, 0, 67, 108
1, 32637, Note_on_c, 0, 78, 68
1, 32641, Note_on_c, 0, 58, 68
1, 32645, Note_off_c, 0, 70, 46
1, 32745, Note_off_c, 0, 72, 48
1, 32763, Note_on_c, 0, 70, 63
1, 32807, Note_off_c, 0, 61, 38
1, 32831, Note_off_c, 0, 78, 57
1, 32908, Note_on_c, 0, 60, 71
1, 32908, Note_on_c, 0, 77, 71
1, 32920, Control_c, 0, 67, 108
1, 32923, Note_off_c, 0, 70, 54
1, 32998, Note_off_c, 0, 58, 58
1, 33030, Note_on_c, 0, 70, 67
1, 33153, Note_on_c, 0, 76, 70
1, 33154, Note_off_c, 0, 77, 53
1, 33162, Note_on_c, 0, 61, 73
1, 33167, Note_off_c, 0, 70, 60
1, 33236, Note_off_c, 0, 60, 62
1, 33243, Note_off_c, 0, 53, 63
1, 33280, Note_on_c, 0, 70, 64
1, 33406, Note_off_c, 0, 70, 59
1, 33427, Note_on_c, 0, 60, 69
1, 33432, Note_on_c, 0, 77, 72
1, 33432, Note_off_c, 0, 76, 51
1, 33439, Note_on_c, 0, 53, 63
1, 33489, Note_off_c, 0, 61, 65
1, 33564, Note_on_c, 0, 69, 64
1, 33624, Control_c, 0, 67, 108
1, 33639, Control_c, 0, 67, 109
1, 33654, Control_c, 0, 67, 110
1, 33668, Control_c, 0, 67, 110
1, 33697, Note_on_c, 0, 72, 65
1, 33704, Note_off_c, 0, 69, 59
1, 33728, Control_c, 0, 67, 111
1, 33743, Control_c, 0, 64, 16
1, 33758, Control_c, 0, 64, 27
1, 33758, Control_c, 0, 67, 111
1, 33773, Control_c, 0, 64, 36
1, 33788, Control_c, 0, 64, 47
1, 33794, Note_off_c, 0, 77, 58
1, 33802, Control_c, 0, 64, 54
1, 33812, Note_on_c, 0, 69, 60
1, 33817, Control_c, 0, 64, 57
1, 33817, Control_c, 0, 67, 111
1, 33823, Note_off_c, 0, 60, 63
1, 33832, Control_c, 0, 64, 58
1, 33847, Note_off_c, 0, 72, 54
1, 33847, Control_c, 0, 64, 59
1, 33861, Control_c, 0, 64, 60
1, 33876, Control_c, 0, 64, 61
1, 33891, Control_c, 0, 64, 62
1, 33891, Control_c, 0, 67, 110
1, 33936, Control_c, 0, 64, 60
1, 33937, Note_on_c, 0, 77, 75
1, 33950, Control_c, 0, 64, 57
1, 33950, Control_c, 0, 67, 109
1, 33951, Note_on_c, 0, 57, 67
1, 33952, Note_on_c, 0, 60, 62
1, 33965, Control_c, 0, 64, 52
1, 33965, Control_c, 0, 67, 108
1, 33980, Control_c, 0, 64, 43
1, 33980, Control_c, 0, 67, 108
1, 33986, Note_off_c, 0, 69, 43
1, 33987, Note_off_c, 0, 53, 61
1, 33994, Control_c, 0, 64, 31
1, 34009, Control_c, 0, 64, 13
1, 34024, Control_c, 0, 64, 0
1, 34024, Control_c, 0, 67, 107
1, 34039, Control_c, 0, 67, 106
1, 34040, Note_on_c, 0, 72, 69
1, 34054, Control_c, 0, 67, 105
1, 34098, Control_c, 0, 67, 105
1, 34105, Note_off_c, 0, 77, 60
1, 34113, Control_c, 0, 67, 103
1, 34123, Note_on_c, 0, 69, 67
1, 34128, Control_c, 0, 67, 101
1, 34142, Control_c, 0, 67, 99
1, 34157, Control_c, 0, 67, 98
1, 34160, Note_off_c, 0, 72, 61
1, 34172, Control_c, 0, 67, 97
1, 34187, Control_c, 0, 67, 95
1, 34202, Control_c, 0, 67, 94
1, 34207, Note_on_c, 0, 77, 71
1, 34217, Control_c, 0, 67, 91
1, 34232, Control_c, 0, 67, 88
1, 34247, Control_c, 0, 67, 84
1, 34258, Note_off_c, 0, 69, 59
1, 34262, Control_c, 0, 67, 82
1, 34277, Control_c, 0, 67, 81
1, 34283, Note_on_c, 0, 72, 71
1, 34299, Control_c, 0, 67, 78
1, 34313, Control_c, 0, 67, 75
1, 34328, Control_c, 0, 67, 74
1, 34342, Control_c, 0, 67, 73
1, 34354, Note_off_c, 0, 77, 63
1, 34357, Control_c, 0, 67, 73
1, 34369, Note_on_c, 0, 69, 72
1, 34372, Control_c, 0, 67, 71
1, 34387, Control_c, 0, 67, 70
1, 34402, Control_c, 0, 67, 69
1, 34406, Note_off_c, 0, 72, 61
1, 34417, Control_c, 0, 67, 68
1, 34423, Note_on_c, 0, 58, 72
1, 34431, Note_on_c, 0, 61, 65
1, 34432, Control_c, 0, 67, 68
1, 34447, Control_c, 0, 67, 67
1, 34453, Note_on_c, 0, 76, 77
1, 34461, Control_c, 0, 67, 67
1, 34476, Control_c, 0, 67, 65
1, 34481, Note_off_c, 0, 69, 59
1, 34491, Control_c, 0, 67, 64
1, 34495, Note_off_c, 0, 57, 57
1, 34506, Control_c, 0, 67, 61
1, 34521, Control_c, 0, 67, 60
1, 34525, Note_on_c, 0, 70, 80
1, 34536, Control_c, 0, 67, 58
1, 34546, Note_off_c, 0, 60, 58
1, 34550, Control_c, 0, 67, 55
1, 34565, Control_c, 0, 67, 54
1, 34572, Note_off_c, 0, 76, 64
1, 34580, Control_c, 0, 67, 53
1, 34595, Control_c, 0, 67, 51
1, 34605, Note_on_c, 0, 67, 76
1, 34610, Control_c, 0, 67, 49
1, 34624, Control_c, 0, 67, 47
1, 34639, Control_c, 0, 67, 45
1, 34640, Note_off_c, 0, 70, 59
1, 34654, Control_c, 0, 67, 44
1, 34669, Control_c, 0, 67, 42
1, 34682, Note_on_c, 0, 76, 82
1, 34683, Control_c, 0, 67, 40
1, 34698, Control_c, 0, 67, 38
1, 34713, Control_c, 0, 67, 36
1, 34728, Control_c, 0, 67, 35
1, 34730, Note_off_c, 0, 67, 59
1, 34742, Control_c, 0, 67, 34
1, 34757, Control_c, 0, 67, 31
1, 34760, Note_on_c, 0, 70, 75
1, 34772, Control_c, 0, 67, 29
1, 34787, Control_c, 0, 67, 27
1, 34802, Control_c, 0, 67, 26
1, 34816, Control_c, 0, 67, 25
1, 34821, Note_off_c, 0, 76, 64
1, 34831, Control_c, 0, 67, 24
1, 34834, Note_on_c, 0, 67, 79
1, 34846, Control_c, 0, 67, 21
1, 34861, Control_c, 0, 67, 20
1, 34873, Note_off_c, 0, 70, 60
1, 34904, Note_off_c, 0, 58, 58
1, 34906, Control_c, 0, 67, 20
1, 34913, Note_on_c, 0, 60, 74
1, 34917, Note_on_c, 0, 57, 70
1, 34920, Note_on_c, 0, 75, 77
1, 34948, Note_off_c, 0, 67, 55
1, 34957, Note_off_c, 0, 61, 64
1, 35001, Note_on_c, 0, 72, 74
1, 35025, Control_c, 0, 67, 19
1, 35047, Control_c, 0, 67, 19
1, 35064, Note_off_c, 0, 75, 61
1, 35087, Note_on_c, 0, 65, 73
1, 35117, Note_off_c, 0, 72, 63
1, 35162, Note_on_c, 0, 75, 77
1, 35185, Note_off_c, 0, 60, 65
1, 35201, Note_off_c, 0, 57, 64
1, 35202, Note_off_c, 0, 65, 64
1, 35225, Control_c, 0, 67, 18
1, 35232, Note_on_c, 0, 72, 79
1, 35269, Note_off_c, 0, 75, 62
1, 35269, Control_c, 0, 67, 18
1, 35291, Note_on_c, 0, 65, 79
1, 35299, Control_c, 0, 67, 16
1, 35302, Note_off_c, 0, 72, 62
1, 35314, Control_c, 0, 67, 14
1, 35329, Control_c, 0, 67, 10
1, 35329, Note_off_c, 0, 65, 64
1, 35344, Control_c, 0, 67, 0
1, 35356, Note_on_c, 0, 46, 67
1, 35396, Note_on_c, 0, 53, 69
1, 35400, Note_on_c, 0, 50, 55
1, 35402, Note_on_c, 0, 62, 80
1, 35421, Note_on_c, 0, 58, 68
1, 35445, Note_on_c, 0, 65, 66
1, 35462, Control_c, 0, 64, 28
1, 35462, Control_c, 0, 67, 9
1, 35477, Note_on_c, 0, 70, 88
1, 35477, Control_c, 0, 64, 42
1, 35477, Control_c, 0, 67, 10
1, 35480, Note_off_c, 0, 62, 60
1, 35492, Control_c, 0, 64, 58
1, 35503, Note_off_c, 0, 58, 64
1, 35505, Note_off_c, 0, 65, 68
1, 35507, Control_c, 0, 64, 66
1, 35516, Note_off_c, 0, 46, 61
1, 35521, Control_c, 0, 64, 69
1, 35526, Note_off_c, 0, 70, 66
1, 35536, Control_c, 0, 64, 70
1, 35536, Control_c, 0, 67, 10
1, 35551, Control_c, 0, 64, 71
1, 35551, Control_c, 0, 67, 11
1, 35565, Note_off_c, 0, 53, 61
1, 35565, Control_c, 0, 64, 73
1, 35565, Control_c, 0, 67, 11
1, 35580, Control_c, 0, 64, 78
1, 35595, Control_c, 0, 64, 83
1, 35595, Control_c, 0, 67, 12
1, 35610, Control_c, 0, 64, 86
1, 35610, Control_c, 0, 67, 12
1, 35615, Note_off_c, 0, 50, 35
1, 35625, Control_c, 0, 64, 88
1, 35639, Control_c, 0, 64, 94
1, 35654, Control_c, 0, 64, 102
1, 35654, Control_c, 0, 67, 11
1, 35669, Control_c, 0, 64, 106
1, 35669, Control_c, 0, 67, 10
1, 35684, Control_c, 0, 64, 108
1, 35684, Control_c, 0, 67, 9
1, 35698, Control_c, 0, 67, 0
1, 35713, Control_c, 0, 64, 108
1, 35728, Control_c, 0, 64, 114
1, 35743, Control_c, 0, 64, 127
1, 35878, Note_on_c, 0, 46, 64
1, 35910, Note_on_c, 0, 50, 60
1, 35934, Note_on_c, 0, 53, 73
1, 35943, Control_c, 0, 64, 74
1, 35958, Control_c, 0, 64, 58
1, 35963, Note_on_c, 0, 56, 74
1, 35973, Control_c, 0, 64, 35
1, 35988, Control_c, 0, 64, 0
1, 35990, Note_on_c, 0, 74, 79
1, 36001, Note_on_c, 0, 70, 76
1, 36003, Note_on_c, 0, 68, 75
1, 36017, Control_c, 0, 64, 24
1, 36032, Control_c, 0, 64, 38
1, 36047, Control_c, 0, 64, 53
1, 36051, Note_off_c, 0, 56, 67
1, 36062, Control_c, 0, 64, 65
1, 36071, Note_off_c, 0, 46, 65
1, 36077, Control_c, 0, 64, 80
1, 36086, Note_off_c, 0, 53, 65
1, 36087, Note_off_c, 0, 68, 58
1, 36088, Note_off_c, 0, 50, 64
1, 36092, Control_c, 0, 64, 92
1, 36107, Control_c, 0, 64, 98
1, 36116, Note_off_c, 0, 70, 63
1, 36122, Control_c, 0, 64, 103
1, 36136, Control_c, 0, 64, 127
1, 36390, Note_on_c, 0, 70, 80
1, 36399, Note_off_c, 0, 74, 62
1, 36432, Note_off_c, 0, 70, 64
1, 36456, Note_on_c, 0, 67, 82
1, 36502, Note_on_c, 0, 70, 88
1, 36506, Control_c, 0, 64, 92
1, 36514, Note_on_c, 0, 55, 67
1, 36518, Note_on_c, 0, 46, 69
1, 36518, Note_on_c, 0, 51, 70
1, 36521, Control_c, 0, 64, 65
1, 36536, Note_on_c, 0, 75, 86
1, 36543, Control_c, 0, 64, 49
1, 36558, Control_c, 0, 64, 0
1, 36971, Note_off_c, 0, 75, 61
1, 36990, Note_off_c, 0, 70, 63
1, 37067, Note_off_c, 0, 67, 52
1, 37081, Note_off_c, 0, 46, 62
1, 37104, Note_off_c, 0, 51, 61
1, 37106, Note_off_c, 0, 55, 65
1, 37175, Note_on_c, 0, 79, 78
1, 37225, Note_on_c, 0, 77, 75
1, 37269, Note_off_c, 0, 79, 59
1, 37287, Note_on_c, 0, 75, 78
1, 37311, Note_off_c, 0, 77, 62
1, 37347, Note_on_c, 0, 74, 79
1, 37377, Note_off_c, 0, 75, 63
1, 37396, Note_off_c, 0, 74, 64
1, 37415, Note_on_c, 0, 72, 72
1, 37451, Note_on_c, 0, 70, 80
1, 37451, Note_off_c, 0, 72, 58
1, 37507, Note_off_c, 0, 70, 63
1, 37516, Note_on_c, 0, 69, 81
1, 37523, Note_on_c, 0, 57, 76
1, 37524, Note_on_c, 0, 51, 71
1, 37527, Note_on_c, 0, 46, 59
1, 37533, Note_on_c, 0, 48, 59
1, 37576, Note_on_c, 0, 70, 77
1, 37579, Note_off_c, 0, 69, 65
1, 37615, Note_off_c, 0, 70, 62
1, 37627, Note_on_c, 0, 72, 82
1, 37690, Note_on_c, 0, 74, 75
1, 37695, Note_off_c, 0, 72, 64
1, 37743, Note_on_c, 0, 75, 83
1, 37750, Note_off_c, 0, 74, 67
1, 37785, Note_off_c, 0, 75, 64
1, 37803, Note_on_c, 0, 77, 83
1, 37866, Note_on_c, 0, 79, 83
1, 37872, Note_off_c, 0, 77, 63
1, 37925, Note_on_c, 0, 81, 84
1, 37958, Note_on_c, 0, 82, 84
1, 37958, Note_off_c, 0, 79, 64
1, 37981, Note_off_c, 0, 81, 66
1, 37991, Note_off_c, 0, 82, 69
1, 38024, Note_on_c, 0, 84, 86
1, 38083, Note_on_c, 0, 86, 78
1, 38117, Note_off_c, 0, 84, 56
1, 38132, Note_on_c, 0, 87, 85
1, 38144, Note_off_c, 0, 48, 41
1, 38164, Note_off_c, 0, 57, 62
1, 38173, Note_off_c, 0, 46, 58
1, 38176, Note_off_c, 0, 86, 62
1, 38186, Note_on_c, 0, 89, 89
1, 38191, Note_off_c, 0, 51, 65
1, 38202, Note_off_c, 0, 87, 67
1, 38239, Note_off_c, 0, 89, 67
1, 38308, Note_on_c, 0, 87, 87
1, 38363, Note_off_c, 0, 87, 66
1, 38368, Control_c, 0, 67, 9
1, 38382, Control_c, 0, 67, 10
1, 38397, Control_c, 0, 67, 11
1, 38412, Control_c, 0, 67, 12
1, 38427, Control_c, 0, 67, 12
1, 38442, Control_c, 0, 67, 13
1, 38447, Note_on_c, 0, 58, 66
1, 38447, Note_on_c, 0, 86, 75
1, 38456, Note_on_c, 0, 53, 60
1, 38456, Control_c, 0, 67, 14
1, 38462, Note_on_c, 0, 50, 50
1, 38469, Note_on_c, 0, 46, 54
1, 38471, Control_c, 0, 67, 15
1, 38480, Note_on_c, 0, 84, 37
1, 38481, Note_off_c, 0, 84, 127
1, 38484, Note_off_c, 0, 86, 63
1, 38486, Control_c, 0, 67, 16
1, 38501, Control_c, 0, 67, 17
1, 38530, Control_c, 0, 67, 18
1, 38545, Control_c, 0, 67, 18
1, 38560, Control_c, 0, 67, 20
1, 38575, Note_on_c, 0, 84, 71
1, 38575, Control_c, 0, 67, 22
1, 38590, Control_c, 0, 67, 25
1, 38605, Control_c, 0, 67, 26
1, 38620, Note_off_c, 0, 84, 63
1, 38620, Control_c, 0, 67, 27
1, 38635, Control_c, 0, 67, 28
1, 38650, Control_c, 0, 67, 29
1, 38664, Control_c, 0, 67, 31
1, 38679, Control_c, 0, 67, 35
1, 38694, Control_c, 0, 67, 38
1, 38706, Note_on_c, 0, 82, 65
1, 38708, Control_c, 0, 67, 39
1, 38723, Control_c, 0, 67, 40
1, 38738, Control_c, 0, 67, 41
1, 38742, Note_off_c, 0, 82, 68
1, 38753, Control_c, 0, 67, 44
1, 38768, Control_c, 0, 67, 47
1, 38790, Control_c, 0, 67, 50
1, 38805, Control_c, 0, 67, 54
1, 38819, Control_c, 0, 67, 56
1, 38834, Control_c, 0, 67, 59
1, 38846, Note_on_c, 0, 81, 64
1, 38849, Control_c, 0, 67, 63
1, 38864, Control_c, 0, 67, 67
1, 38868, Note_off_c, 0, 81, 62
1, 38879, Control_c, 0, 67, 71
1, 38894, Control_c, 0, 67, 74
1, 38908, Control_c, 0, 67, 78
1, 38923, Control_c, 0, 67, 80
1, 38980, Note_on_c, 0, 79, 65
1, 39009, Note_off_c, 0, 79, 64
1, 39013, Control_c, 0, 67, 81
1, 39028, Control_c, 0, 67, 81
1, 39073, Control_c, 0, 67, 82
1, 39079, Note_off_c, 0, 50, 62
1, 39079, Note_off_c, 0, 53, 65
1, 39095, Note_on_c, 0, 77, 70
1, 39095, Note_off_c, 0, 58, 63
1, 39096, Note_off_c, 0, 46, 65
1, 39117, Control_c, 0, 67, 82
1, 39131, Note_off_c, 0, 77, 59
1, 39131, Control_c, 0, 67, 83
1, 39161, Control_c, 0, 67, 83
1, 39176, Control_c, 0, 67, 84
1, 39191, Control_c, 0, 67, 85
1, 39205, Control_c, 0, 67, 86
1, 39220, Control_c, 0, 67, 86
1, 39233, Note_on_c, 0, 75, 66
1, 39235, Control_c, 0, 67, 87
1, 39250, Control_c, 0, 67, 88
1, 39265, Control_c, 0, 67, 89
1, 39279, Note_off_c, 0, 75, 59
1, 39279, Control_c, 0, 67, 89
1, 39294, Control_c, 0, 67, 90
1, 39309, Control_c, 0, 67, 91
1, 39324, Control_c, 0, 67, 92
1, 39338, Control_c, 0, 67, 94
1, 39349, Note_on_c, 0, 74, 67
1, 39353, Control_c, 0, 67, 96
1, 39368, Control_c, 0, 67, 97
1, 39374, Note_off_c, 0, 74, 69
1, 39383, Control_c, 0, 67, 98
1, 39398, Control_c, 0, 67, 99
1, 39413, Control_c, 0, 67, 100
1, 39428, Control_c, 0, 67, 101
1, 39442, Control_c, 0, 67, 102
1, 39457, Control_c, 0, 67, 103
1, 39475, Note_on_c, 0, 72, 66
1, 39487, Control_c, 0, 67, 103
1, 39493, Note_on_c, 0, 57, 52
1, 39502, Note_on_c, 0, 46, 46
1, 39503, Note_on_c, 0, 48, 52
1, 39504, Note_on_c, 0, 51, 52
1, 39509, Note_off_c, 0, 72, 58
1, 39520, Note_on_c, 0, 70, 72
1, 39579, Note_off_c, 0, 70, 62
1, 39586, Note_on_c, 0, 69, 77
1, 39637, Note_off_c, 0, 69, 65
1, 39638, Note_on_c, 0, 70, 69
1, 39670, Note_off_c, 0, 70, 64
1, 39701, Note_on_c, 0, 72, 72
1, 39702, Control_c, 0, 67, 103
1, 39744, Note_on_c, 0, 74, 72
1, 39751, Note_off_c, 0, 72, 63
1, 39785, Note_off_c, 0, 74, 68
1, 39785, Note_on_c, 0, 75, 73
1, 39810, Note_off_c, 0, 75, 68
1, 39839, Note_on_c, 0, 77, 86
1, 39894, Note_off_c, 0, 77, 62
1, 39896, Note_on_c, 0, 79, 82
1, 39940, Note_on_c, 0, 81, 79
1, 39956, Note_off_c, 0, 79, 64
1, 39966, Note_on_c, 0, 82, 85
1, 39979, Note_off_c, 0, 81, 65
1, 39984, Note_off_c, 0, 82, 73
1, 40026, Note_on_c, 0, 84, 80
1, 40074, Control_c, 0, 67, 102
1, 40074, Note_off_c, 0, 48, 53
1, 40075, Note_on_c, 0, 86, 78
1, 40076, Note_off_c, 0, 84, 61
1, 40103, Control_c, 0, 67, 101
1, 40107, Note_on_c, 0, 87, 71
1, 40118, Control_c, 0, 67, 101
1, 40121, Note_off_c, 0, 46, 65
1, 40123, Note_off_c, 0, 57, 62
1, 40131, Note_off_c, 0, 86, 62
1, 40137, Note_off_c, 0, 51, 65
1, 40140, Note_on_c, 0, 89, 79
1, 40152, Note_off_c, 0, 87, 66
1, 40177, Control_c, 0, 67, 100
1, 40192, Note_off_c, 0, 89, 65
1, 40251, Control_c, 0, 67, 101
1, 40266, Control_c, 0, 67, 101
1, 40270, Note_on_c, 0, 87, 76
1, 40288, Control_c, 0, 67, 102
1, 40306, Note_off_c, 0, 87, 63
1, 40361, Control_c, 0, 67, 102
1, 40388, Note_on_c, 0, 86, 71
1, 40393, Note_on_c, 0, 58, 56
1, 40411, Note_on_c, 0, 53, 50
1, 40413, Note_on_c, 0, 46, 44
1, 40414, Note_on_c, 0, 50, 40
1, 40416, Note_off_c, 0, 86, 62
1, 40427, Note_on_c, 0, 87, 67
1, 40479, Note_on_c, 0, 86, 70
1, 40483, Note_off_c, 0, 87, 66
1, 40507, Note_off_c, 0, 86, 64
1, 40512, Note_on_c, 0, 84, 68
1, 40542, Note_off_c, 0, 84, 64
1, 40636, Note_on_c, 0, 82, 68
1, 40644, Control_c, 0, 67, 102
1, 40662, Note_off_c, 0, 82, 66
1, 40688, Note_on_c, 0, 84, 65
1, 40703, Control_c, 0, 67, 101
1, 40716, Note_on_c, 0, 82, 82
1, 40733, Control_c, 0, 67, 101
1, 40738, Note_off_c, 0, 84, 61
1, 40763, Note_on_c, 0, 81, 76
1, 40765, Note_off_c, 0, 82, 66
1, 40800, Note_off_c, 0, 53, 47
1, 40802, Note_off_c, 0, 46, 63
1, 40805, Note_off_c, 0, 50, 41
1, 40808, Note_off_c, 0, 81, 63
1, 40822, Note_off_c, 0, 58, 61
1, 40885, Note_on_c, 0, 79, 74
1, 40909, Note_off_c, 0, 79, 67
1, 40927, Note_on_c, 0, 81, 73
1, 40975, Note_on_c, 0, 79, 63
1, 40975, Note_off_c, 0, 81, 63
1, 41001, Note_on_c, 0, 77, 70
1, 41001, Note_off_c, 0, 79, 64
1, 41052, Note_off_c, 0, 77, 62
1, 41112, Note_on_c, 0, 75, 71
1, 41138, Note_off_c, 0, 75, 67
1, 41168, Note_on_c, 0, 77, 69
1, 41207, Note_on_c, 0, 75, 71
1, 41209, Note_off_c, 0, 77, 62
1, 41235, Note_on_c, 0, 74, 69
1, 41239, Note_off_c, 0, 75, 62
1, 41304, Note_off_c, 0, 74, 59
1, 41386, Note_on_c, 0, 79, 65
1, 41401, Note_on_c, 0, 51, 49
1, 41526, Note_on_c, 0, 77, 59
1, 41532, Note_on_c, 0, 55, 33
1, 41660, Note_on_c, 0, 75, 56
1, 41661, Note_off_c, 0, 77, 54
1, 41669, Note_on_c, 0, 57, 39
1, 41674, Control_c, 0, 67, 100
1, 41788, Note_off_c, 0, 55, 42
1, 41793, Note_on_c, 0, 74, 52
1, 41806, Note_on_c, 0, 59, 40
1, 41815, Note_off_c, 0, 75, 45
1, 41851, Note_off_c, 0, 57, 36
1, 41940, Note_on_c, 0, 75, 55
1, 41952, Note_off_c, 0, 79, 60
1, 41955, Note_off_c, 0, 59, 57
1, 41958, Note_on_c, 0, 60, 51
1, 41994, Note_off_c, 0, 74, 38
1, 42028, Note_off_c, 0, 51, 63
1, 42069, Note_on_c, 0, 82, 69
1, 42206, Note_on_c, 0, 81, 65
1, 42230, Control_c, 0, 64, 19
1, 42245, Control_c, 0, 64, 29
1, 42260, Control_c, 0, 64, 38
1, 42275, Control_c, 0, 64, 46
1, 42290, Control_c, 0, 64, 54
1, 42304, Control_c, 0, 64, 57
1, 42319, Control_c, 0, 64, 58
1, 42325, Note_on_c, 0, 79, 67
1, 42341, Note_off_c, 0, 81, 62
1, 42356, Note_off_c, 0, 82, 46
1, 42361, Note_off_c, 0, 79, 59
1, 42364, Control_c, 0, 64, 58
1, 42364, Control_c, 0, 67, 101
1, 42366, Note_on_c, 0, 58, 45
1, 42368, Note_off_c, 0, 75, 56
1, 42394, Control_c, 0, 67, 101
1, 42423, Control_c, 0, 64, 58
1, 42438, Control_c, 0, 64, 57
1, 42453, Control_c, 0, 64, 54
1, 42458, Note_off_c, 0, 58, 36
1, 42462, Note_on_c, 0, 77, 72
1, 42467, Note_off_c, 0, 60, 54
1, 42468, Control_c, 0, 64, 48
1, 42475, Note_on_c, 0, 57, 60
1, 42482, Control_c, 0, 64, 40
1, 42489, Note_on_c, 0, 75, 41
1, 42497, Control_c, 0, 64, 32
1, 42512, Control_c, 0, 64, 25
1, 42534, Control_c, 0, 64, 16
1, 42549, Control_c, 0, 64, 0
1, 42610, Note_on_c, 0, 74, 56
1, 42614, Note_off_c, 0, 57, 54
1, 42621, Note_off_c, 0, 75, 23
1, 42627, Note_on_c, 0, 65, 49
1, 42682, Control_c, 0, 67, 102
1, 42727, Control_c, 0, 67, 102
1, 42742, Control_c, 0, 67, 103
1, 42754, Note_off_c, 0, 65, 54
1, 42755, Note_on_c, 0, 75, 41
1, 42768, Note_on_c, 0, 67, 48
1, 42787, Note_off_c, 0, 74, 47
1, 42867, Note_off_c, 0, 67, 59
1, 42889, Note_on_c, 0, 69, 42
1, 42892, Note_on_c, 0, 72, 45
1, 42895, Note_off_c, 0, 75, 53
1, 42994, Note_off_c, 0, 77, 61
1, 43019, Note_off_c, 0, 72, 52
1, 43026, Note_on_c, 0, 74, 45
1, 43029, Note_on_c, 0, 70, 45
1, 43070, Note_off_c, 0, 69, 51
1, 43171, Note_on_c, 0, 82, 48
1, 43182, Note_off_c, 0, 74, 64
1, 43201, Control_c, 0, 67, 103
1, 43246, Control_c, 0, 67, 104
1, 43261, Control_c, 0, 67, 104
1, 43311, Note_on_c, 0, 81, 59
1, 43313, Note_off_c, 0, 70, 57
1, 43343, Control_c, 0, 67, 105
1, 43358, Control_c, 0, 67, 105
1, 43402, Control_c, 0, 67, 106
1, 43417, Control_c, 0, 67, 107
1, 43427, Note_on_c, 0, 79, 52
1, 43432, Control_c, 0, 67, 108
1, 43442, Note_off_c, 0, 82, 34
1, 43447, Control_c, 0, 67, 109
1, 43461, Control_c, 0, 67, 110
1, 43505, Control_c, 0, 67, 111
1, 43514, Note_off_c, 0, 81, 33
1, 43563, Note_on_c, 0, 77, 57
1, 43569, Note_on_c, 0, 70, 47
1, 43574, Note_on_c, 0, 72, 49
1, 43600, Note_on_c, 0, 67, 34
1, 43706, Note_off_c, 0, 77, 56
1, 43712, Note_off_c, 0, 79, 44
1, 43714, Note_on_c, 0, 76, 45
1, 43787, Control_c, 0, 67, 110
1, 43833, Control_c, 0, 67, 110
1, 43853, Note_on_c, 0, 79, 43
1, 43920, Note_off_c, 0, 76, 44
1, 43966, Control_c, 0, 67, 109
1, 43986, Note_on_c, 0, 77, 55
1, 44063, Control_c, 0, 67, 109
1, 44092, Control_c, 0, 67, 108
1, 44105, Note_off_c, 0, 79, 42
1, 44122, Control_c, 0, 67, 108
1, 44139, Note_on_c, 0, 76, 54
1, 44151, Control_c, 0, 67, 107
1, 44156, Note_off_c, 0, 77, 55
1, 44166, Control_c, 0, 67, 107
1, 44225, Control_c, 0, 67, 106
1, 44240, Control_c, 0, 67, 106
1, 44254, Note_on_c, 0, 82, 70
1, 44388, Control_c, 0, 64, 14
1, 44396, Note_off_c, 0, 72, 52
1, 44397, Note_on_c, 0, 81, 71
1, 44403, Control_c, 0, 64, 21
1, 44418, Control_c, 0, 64, 27
1, 44431, Note_off_c, 0, 67, 39
1, 44433, Control_c, 0, 64, 33
1, 44447, Control_c, 0, 64, 38
1, 44447, Control_c, 0, 67, 105
1, 44462, Control_c, 0, 64, 43
1, 44465, Note_off_c, 0, 76, 52
1, 44477, Control_c, 0, 64, 49
1, 44492, Control_c, 0, 64, 51
1, 44507, Control_c, 0, 64, 52
1, 44521, Note_on_c, 0, 79, 70
1, 44521, Control_c, 0, 64, 52
1, 44536, Control_c, 0, 64, 53
1, 44551, Control_c, 0, 64, 54
1, 44581, Control_c, 0, 64, 54
1, 44626, Control_c, 0, 64, 54
1, 44641, Control_c, 0, 64, 52
1, 44656, Control_c, 0, 64, 49
1, 44666, Note_on_c, 0, 73, 66
1, 44670, Note_on_c, 0, 77, 74
1, 44671, Control_c, 0, 64, 44
1, 44675, Note_on_c, 0, 67, 51
1, 44686, Control_c, 0, 64, 38
1, 44700, Control_c, 0, 64, 31
1, 44715, Control_c, 0, 64, 21
1, 44726, Note_off_c, 0, 82, 19
1, 44730, Control_c, 0, 64, 0
1, 44744, Note_off_c, 0, 70, 55
1, 44752, Note_off_c, 0, 81, 30
1, 44813, Note_on_c, 0, 76, 66
1, 44814, Note_off_c, 0, 79, 36
1, 44833, Note_off_c, 0, 77, 57
1, 44953, Note_on_c, 0, 79, 55
1, 45029, Note_off_c, 0, 76, 48
1, 45085, Note_on_c, 0, 77, 63
1, 45175, Note_off_c, 0, 79, 54
1, 45229, Note_on_c, 0, 76, 63
1, 45255, Note_off_c, 0, 77, 55
1, 45353, Note_on_c, 0, 82, 74
1, 45448, Control_c, 0, 67, 106
1, 45478, Control_c, 0, 67, 106
1, 45487, Note_on_c, 0, 81, 69
1, 45552, Note_off_c, 0, 76, 55
1, 45616, Note_on_c, 0, 79, 68
1, 45648, Control_c, 0, 67, 107
1, 45688, Note_off_c, 0, 73, 51
1, 45693, Control_c, 0, 67, 107
1, 45711, Note_off_c, 0, 82, 35
1, 45764, Note_on_c, 0, 77, 72
1, 45767, Note_on_c, 0, 72, 71
1, 45767, Control_c, 0, 67, 108
1, 45804, Note_off_c, 0, 81, 25
1, 45866, Note_off_c, 0, 79, 46
1, 45870, Control_c, 0, 67, 108
1, 45899, Note_on_c, 0, 76, 66
1, 45920, Note_off_c, 0, 77, 56
1, 46033, Note_on_c, 0, 79, 62
1, 46069, Note_off_c, 0, 76, 59
1, 46157, Note_on_c, 0, 77, 63
1, 46167, Control_c, 0, 67, 109
1, 46247, Note_off_c, 0, 79, 40
1, 46257, Control_c, 0, 67, 109
1, 46313, Note_on_c, 0, 70, 61
1, 46313, Note_on_c, 0, 76, 62
1, 46334, Note_off_c, 0, 77, 52
1, 46385, Note_off_c, 0, 72, 46
1, 46397, Control_c, 0, 67, 110
1, 46450, Note_on_c, 0, 82, 61
1, 46501, Control_c, 0, 67, 110
1, 46558, Note_off_c, 0, 76, 37
1, 46577, Note_on_c, 0, 79, 58
1, 46591, Control_c, 0, 67, 111
1, 46666, Note_off_c, 0, 82, 39
1, 46714, Note_off_c, 0, 79, 59
1, 46716, Note_on_c, 0, 76, 56
1, 46841, Control_c, 0, 67, 110
1, 46844, Note_on_c, 0, 79, 57
1, 46853, Note_off_c, 0, 76, 54
1, 46855, Note_on_c, 0, 69, 42
1, 46870, Note_on_c, 0, 65, 35
1, 46880, Note_off_c, 0, 67, 36
1, 46886, Control_c, 0, 67, 110
1, 46916, Control_c, 0, 67, 109
1, 46918, Note_off_c, 0, 70, 60
1, 46981, Note_on_c, 0, 77, 57
1, 47037, Note_off_c, 0, 79, 35
1, 47102, Control_c, 0, 67, 109
1, 47117, Control_c, 0, 67, 108
1, 47130, Note_on_c, 0, 76, 51
1, 47135, Note_off_c, 0, 77, 57
1, 47206, Control_c, 0, 67, 108
1, 47252, Note_off_c, 0, 76, 55
1, 47261, Note_on_c, 0, 77, 57
1, 47265, Control_c, 0, 67, 107
1, 47309, Control_c, 0, 67, 106
1, 47339, Control_c, 0, 67, 106
1, 47354, Control_c, 0, 67, 105
1, 47384, Control_c, 0, 67, 105
1, 47399, Control_c, 0, 67, 104
1, 47402, Note_on_c, 0, 76, 55
1, 47410, Note_off_c, 0, 77, 55
1, 47413, Control_c, 0, 67, 103
1, 47428, Control_c, 0, 67, 103
1, 47443, Control_c, 0, 67, 102
1, 47460, Note_off_c, 0, 65, 59
1, 47472, Control_c, 0, 67, 102
1, 47502, Note_off_c, 0, 76, 60
1, 47531, Note_on_c, 0, 77, 61
1, 47556, Note_off_c, 0, 69, 39
1, 47580, Note_off_c, 0, 77, 54
1, 47591, Control_c, 0, 67, 101
1, 47606, Control_c, 0, 67, 101
1, 47620, Control_c, 0, 67, 100
1, 47662, Note_on_c, 0, 82, 76
1, 47664, Note_on_c, 0, 70, 70
1, 47664, Note_on_c, 0, 63, 57
1, 47667, Note_on_c, 0, 55, 60
1, 47678, Note_on_c, 0, 75, 31
1, 47679, Note_on_c, 0, 67, 55
1, 47694, Control_c, 0, 64, 37
1, 47695, Note_on_c, 0, 58, 26
1, 47708, Note_off_c, 0, 75, 45
1, 47709, Note_off_c, 0, 63, 60
1, 47709, Control_c, 0, 64, 50
1, 47709, Control_c, 0, 67, 101
1, 47715, Note_off_c, 0, 55, 63
1, 47724, Note_off_c, 0, 70, 60
1, 47724, Control_c, 0, 64, 62
1, 47732, Note_off_c, 0, 67, 60
1, 47734, Note_off_c, 0, 58, 41
1, 47738, Control_c, 0, 64, 69
1, 47753, Control_c, 0, 64, 78
1, 47776, Control_c, 0, 64, 88
1, 47786, Note_off_c, 0, 82, 63
1, 47791, Control_c, 0, 64, 101
1, 47795, Note_on_c, 0, 75, 66
1, 47807, Control_c, 0, 64, 115
1, 47822, Control_c, 0, 64, 127
1, 47822, Control_c, 0, 67, 101
1, 47846, Note_off_c, 0, 75, 56
1, 47851, Control_c, 0, 67, 102
1, 47881, Control_c, 0, 64, 106
1, 47881, Control_c, 0, 67, 102
1, 47895, Control_c, 0, 64, 82
1, 47895, Control_c, 0, 67, 103
1, 47910, Control_c, 0, 64, 67
1, 47925, Control_c, 0, 64, 55
1, 47929, Note_on_c, 0, 75, 60
1, 47934, Note_on_c, 0, 69, 55
1, 47940, Control_c, 0, 64, 38
1, 47952, Note_on_c, 0, 65, 49
1, 47955, Control_c, 0, 64, 0
1, 48014, Control_c, 0, 67, 103
1, 48029, Control_c, 0, 67, 104
1, 48043, Control_c, 0, 67, 105
1, 48058, Control_c, 0, 67, 105
1, 48060, Note_on_c, 0, 74, 58
1, 48066, Note_off_c, 0, 75, 53
1, 48199, Note_off_c, 0, 74, 63
1, 48206, Note_on_c, 0, 73, 58
1, 48266, Control_c, 0, 67, 105
1, 48281, Control_c, 0, 67, 104
1, 48334, Note_on_c, 0, 74, 53
1, 48337, Note_off_c, 0, 73, 61
1, 48428, Control_c, 0, 67, 104
1, 48443, Control_c, 0, 67, 103
1, 48458, Control_c, 0, 67, 103
1, 48460, Note_on_c, 0, 73, 66
1, 48461, Note_off_c, 0, 74, 61
1, 48473, Control_c, 0, 67, 102
1, 48507, Note_off_c, 0, 69, 63
1, 48534, Note_off_c, 0, 65, 66
1, 48602, Note_on_c, 0, 74, 57
1, 48610, Note_off_c, 0, 73, 57
1, 48636, Note_off_c, 0, 74, 65
1, 48730, Note_on_c, 0, 79, 81
1, 48733, Note_on_c, 0, 67, 75
1, 48736, Note_on_c, 0, 60, 57
1, 48738, Note_on_c, 0, 51, 65
1, 48740, Note_on_c, 0, 75, 51
1, 48746, Note_on_c, 0, 63, 60
1, 48746, Control_c, 0, 64, 12
1, 48758, Note_on_c, 0, 55, 54
1, 48761, Control_c, 0, 64, 43
1, 48764, Note_off_c, 0, 75, 58
1, 48776, Control_c, 0, 64, 60
1, 48778, Note_off_c, 0, 51, 64
1, 48778, Note_off_c, 0, 60, 66
1, 48791, Control_c, 0, 64, 85
1, 48791, Note_off_c, 0, 55, 56
1, 48801, Note_off_c, 0, 63, 60
1, 48806, Control_c, 0, 64, 127
1, 48806, Control_c, 0, 67, 103
1, 48809, Note_off_c, 0, 67, 60
1, 48858, Note_on_c, 0, 72, 63
1, 48861, Note_off_c, 0, 79, 60
1, 48899, Note_off_c, 0, 72, 58
1, 48984, Control_c, 0, 64, 75
1, 48997, Note_on_c, 0, 72, 73
1, 48998, Control_c, 0, 64, 62
1, 49002, Note_on_c, 0, 65, 58
1, 49007, Note_on_c, 0, 62, 58
1, 49013, Control_c, 0, 64, 48
1, 49028, Control_c, 0, 64, 22
1, 49042, Control_c, 0, 64, 0
1, 49131, Note_on_c, 0, 70, 67
1, 49191, Note_off_c, 0, 72, 50
1, 49205, Control_c, 0, 67, 102
1, 49235, Control_c, 0, 67, 101
1, 49250, Control_c, 0, 67, 101
1, 49287, Control_c, 0, 67, 100
1, 49289, Note_on_c, 0, 69, 66
1, 49301, Note_off_c, 0, 70, 61
1, 49376, Control_c, 0, 67, 100
1, 49392, Control_c, 0, 67, 99
1, 49414, Note_on_c, 0, 70, 70
1, 49414, Note_off_c, 0, 69, 60
1, 49539, Control_c, 0, 67, 98
1, 49558, Note_off_c, 0, 70, 59
1, 49559, Note_on_c, 0, 69, 64
1, 49565, Note_off_c, 0, 65, 60
1, 49569, Control_c, 0, 67, 98
1, 49601, Note_off_c, 0, 62, 64
1, 49673, Note_on_c, 0, 70, 64
1, 49673, Control_c, 0, 67, 98
1, 49681, Note_off_c, 0, 69, 63
1, 49703, Control_c, 0, 67, 99
1, 49723, Note_off_c, 0, 70, 60
1, 49801, Note_on_c, 0, 77, 87
1, 49804, Note_on_c, 0, 65, 75
1, 49809, Note_on_c, 0, 62, 71
1, 49810, Note_on_c, 0, 58, 67
1, 49811, Note_on_c, 0, 50, 62
1, 49821, Control_c, 0, 67, 98
1, 49828, Note_on_c, 0, 53, 49
1, 49836, Control_c, 0, 64, 43
1, 49849, Note_off_c, 0, 62, 62
1, 49851, Control_c, 0, 64, 60
1, 49852, Note_off_c, 0, 50, 63
1, 49853, Note_off_c, 0, 58, 62
1, 49864, Note_off_c, 0, 53, 52
1, 49865, Control_c, 0, 64, 76
1, 49873, Note_off_c, 0, 65, 59
1, 49880, Control_c, 0, 64, 93
1, 49895, Control_c, 0, 64, 109
1, 49895, Control_c, 0, 67, 99
1, 49910, Control_c, 0, 64, 127
1, 49924, Note_off_c, 0, 77, 60
1, 49925, Note_on_c, 0, 70, 75
1, 49965, Note_off_c, 0, 70, 58
1, 49969, Control_c, 0, 67, 99
1, 49983, Control_c, 0, 67, 100
1, 50062, Note_on_c, 0, 69, 80
1, 50066, Note_on_c, 0, 60, 73
1, 50066, Control_c, 0, 64, 78
1, 50066, Note_on_c, 0, 51, 76
1, 50069, Note_on_c, 0, 57, 70
1, 50081, Control_c, 0, 64, 62
1, 50086, Note_on_c, 0, 53, 52
1, 50096, Control_c, 0, 64, 45
1, 50096, Control_c, 0, 67, 101
1, 50107, Note_off_c, 0, 69, 62
1, 50111, Control_c, 0, 64, 0
1, 50111, Control_c, 0, 67, 101
1, 50116, Note_off_c, 0, 53, 56
1, 50118, Note_on_c, 0, 79, 74
1, 50120, Note_off_c, 0, 60, 64
1, 50123, Note_off_c, 0, 51, 65
1, 50128, Note_off_c, 0, 57, 61
1, 50140, Control_c, 0, 67, 102
1, 50155, Control_c, 0, 67, 103
1, 50170, Control_c, 0, 67, 104
1, 50185, Note_on_c, 0, 77, 72
1, 50185, Control_c, 0, 67, 105
1, 50201, Control_c, 0, 67, 107
1, 50230, Control_c, 0, 67, 107
1, 50234, Note_off_c, 0, 79, 63
1, 50241, Note_on_c, 0, 75, 75
1, 50245, Control_c, 0, 67, 108
1, 50274, Note_off_c, 0, 77, 62
1, 50275, Control_c, 0, 67, 108
1, 50304, Note_on_c, 0, 74, 71
1, 50333, Note_off_c, 0, 75, 63
1, 50348, Note_off_c, 0, 74, 65
1, 50365, Note_on_c, 0, 72, 68
1, 50406, Note_off_c, 0, 72, 57
1, 50419, Note_on_c, 0, 70, 75
1, 50460, Note_off_c, 0, 70, 61
1, 50481, Note_on_c, 0, 69, 75
1, 50535, Note_on_c, 0, 70, 77
1, 50537, Note_off_c, 0, 69, 63
1, 50541, Note_on_c, 0, 62, 63
1, 50546, Note_on_c, 0, 58, 61
1, 50551, Note_on_c, 0, 50, 52
1, 50556, Control_c, 0, 67, 108
1, 50561, Note_on_c, 0, 53, 50
1, 50585, Control_c, 0, 67, 107
1, 50600, Control_c, 0, 67, 107
1, 50607, Note_on_c, 0, 77, 77
1, 50607, Note_off_c, 0, 70, 62
1, 50614, Note_off_c, 0, 62, 61
1, 50615, Control_c, 0, 67, 106
1, 50616, Note_off_c, 0, 58, 63
1, 50617, Note_off_c, 0, 50, 64
1, 50638, Note_off_c, 0, 53, 62
1, 50658, Note_off_c, 0, 77, 63
1, 50660, Note_on_c, 0, 79, 78
1, 50734, Note_on_c, 0, 77, 70
1, 50734, Control_c, 0, 67, 106
1, 50770, Control_c, 0, 67, 105
1, 50773, Note_off_c, 0, 79, 60
1, 50785, Control_c, 0, 67, 104
1, 50788, Note_on_c, 0, 75, 74
1, 50812, Note_off_c, 0, 77, 63
1, 50815, Control_c, 0, 67, 104
1, 50829, Control_c, 0, 67, 103
1, 50844, Control_c, 0, 67, 103
1, 50847, Note_on_c, 0, 74, 81
1, 50874, Control_c, 0, 67, 102
1, 50877, Note_off_c, 0, 75, 61
1, 50890, Note_off_c, 0, 74, 66
1, 50908, Note_on_c, 0, 72, 69
1, 50938, Note_off_c, 0, 72, 60
1, 50971, Note_on_c, 0, 71, 61
1, 50994, Note_on_c, 0, 60, 65
1, 50996, Note_off_c, 0, 71, 60
1, 51001, Note_on_c, 0, 51, 66
1, 51004, Note_on_c, 0, 57, 61
1, 51017, Note_on_c, 0, 69, 77
1, 51023, Control_c, 0, 67, 102
1, 51032, Note_on_c, 0, 53, 42
1, 51037, Control_c, 0, 67, 101
1, 51056, Note_off_c, 0, 69, 60
1, 51067, Control_c, 0, 67, 100
1, 51085, Note_on_c, 0, 79, 72
1, 51131, Note_on_c, 0, 77, 58
1, 51133, Note_off_c, 0, 57, 58
1, 51186, Note_off_c, 0, 51, 37
1, 51191, Note_off_c, 0, 79, 61
1, 51199, Note_off_c, 0, 60, 60
1, 51201, Note_on_c, 0, 75, 77
1, 51223, Note_off_c, 0, 77, 62
1, 51230, Control_c, 0, 67, 100
1, 51244, Control_c, 0, 67, 99
1, 51255, Note_on_c, 0, 74, 79
1, 51259, Control_c, 0, 67, 98
1, 51274, Control_c, 0, 67, 98
1, 51278, Note_off_c, 0, 75, 63
1, 51289, Control_c, 0, 67, 97
1, 51306, Note_off_c, 0, 74, 64
1, 51310, Note_off_c, 0, 53, 40
1, 51318, Note_on_c, 0, 72, 72
1, 51318, Control_c, 0, 67, 97
1, 51333, Control_c, 0, 67, 96
1, 51348, Control_c, 0, 67, 95
1, 51357, Note_on_c, 0, 70, 75
1, 51367, Note_off_c, 0, 72, 57
1, 51378, Control_c, 0, 67, 94
1, 51393, Control_c, 0, 67, 94
1, 51408, Control_c, 0, 67, 93
1, 51414, Note_off_c, 0, 70, 63
1, 51423, Control_c, 0, 67, 93
1, 51425, Note_on_c, 0, 69, 78
1, 51437, Control_c, 0, 67, 92
1, 51452, Control_c, 0, 67, 91
1, 51467, Control_c, 0, 67, 91
1, 51474, Note_on_c, 0, 70, 81
1, 51478, Note_on_c, 0, 58, 66
1, 51479, Note_on_c, 0, 62, 67
1, 51482, Control_c, 0, 67, 90
1, 51485, Note_on_c, 0, 50, 56
1, 51486, Note_off_c, 0, 69, 64
1, 51497, Note_on_c, 0, 53, 56
1, 51497, Control_c, 0, 67, 89
1, 51518, Control_c, 0, 67, 87
1, 51530, Note_off_c, 0, 70, 65
1, 51533, Control_c, 0, 67, 84
1, 51548, Control_c, 0, 67, 83
1, 51549, Note_on_c, 0, 72, 75
1, 51563, Control_c, 0, 67, 81
1, 51578, Control_c, 0, 67, 81
1, 51600, Note_on_c, 0, 74, 75
1, 51608, Control_c, 0, 67, 80
1, 51614, Note_off_c, 0, 72, 62
1, 51637, Control_c, 0, 67, 80
1, 51654, Note_on_c, 0, 75, 87
1, 51664, Note_off_c, 0, 74, 67
1, 51667, Control_c, 0, 67, 79
1, 51689, Note_off_c, 0, 62, 63
1, 51695, Note_off_c, 0, 75, 65
1, 51717, Note_on_c, 0, 77, 86
1, 51741, Note_off_c, 0, 58, 56
1, 51741, Control_c, 0, 67, 79
1, 51756, Control_c, 0, 67, 78
1, 51773, Note_on_c, 0, 79, 78
1, 51778, Note_off_c, 0, 77, 63
1, 51786, Control_c, 0, 67, 78
1, 51791, Note_off_c, 0, 50, 25
1, 51801, Control_c, 0, 67, 77
1, 51815, Note_off_c, 0, 53, 33
1, 51816, Control_c, 0, 67, 76
1, 51831, Control_c, 0, 67, 74
1, 51837, Note_on_c, 0, 81, 84
1, 51846, Control_c, 0, 67, 71
1, 51860, Control_c, 0, 67, 69
1, 51873, Note_off_c, 0, 79, 64
1, 51873, Note_on_c, 0, 82, 85
1, 51875, Control_c, 0, 67, 69
1, 51890, Control_c, 0, 67, 68
1, 51894, Note_off_c, 0, 81, 64
1, 51905, Control_c, 0, 67, 66
1, 51920, Control_c, 0, 67, 64
1, 51934, Control_c, 0, 67, 61
1, 51949, Control_c, 0, 67, 59
1, 51951, Note_off_c, 0, 82, 64
1, 51956, Note_on_c, 0, 80, 86
1, 51960, Note_on_c, 0, 58, 76
1, 51960, Note_on_c, 0, 62, 79
1, 51964, Control_c, 0, 67, 56
1, 51967, Note_on_c, 0, 56, 70
1, 51968, Note_on_c, 0, 50, 62
1, 51979, Control_c, 0, 67, 53
1, 51980, Note_on_c, 0, 53, 60
1, 51994, Control_c, 0, 67, 51
1, 52008, Control_c, 0, 67, 50
1, 52015, Note_on_c, 0, 82, 77
1, 52023, Control_c, 0, 67, 49
1, 52038, Control_c, 0, 67, 49
1, 52062, Note_off_c, 0, 80, 62
1, 52067, Control_c, 0, 67, 49
1, 52068, Note_off_c, 0, 82, 67
1, 52069, Note_on_c, 0, 84, 83
1, 52097, Control_c, 0, 67, 49
1, 52129, Note_on_c, 0, 82, 81
1, 52171, Control_c, 0, 67, 48
1, 52183, Note_on_c, 0, 80, 82
1, 52184, Note_off_c, 0, 84, 62
1, 52186, Control_c, 0, 67, 48
1, 52216, Control_c, 0, 67, 47
1, 52226, Note_off_c, 0, 82, 64
1, 52248, Note_on_c, 0, 79, 83
1, 52283, Note_off_c, 0, 80, 63
1, 52297, Control_c, 0, 67, 48
1, 52306, Note_off_c, 0, 79, 60
1, 52314, Note_on_c, 0, 77, 82
1, 52356, Control_c, 0, 67, 47
1, 52367, Note_on_c, 0, 75, 73
1, 52371, Note_off_c, 0, 77, 63
1, 52386, Control_c, 0, 67, 47
1, 52409, Note_off_c, 0, 75, 61
1, 52432, Note_on_c, 0, 74, 73
1, 52445, Control_c, 0, 67, 47
1, 52475, Control_c, 0, 67, 48
1, 52479, Note_on_c, 0, 75, 64
1, 52490, Control_c, 0, 67, 48
1, 52500, Note_off_c, 0, 74, 62
1, 52505, Control_c, 0, 67, 49
1, 52535, Note_on_c, 0, 77, 78
1, 52538, Note_off_c, 0, 75, 62
1, 52564, Control_c, 0, 67, 49
1, 52590, Note_on_c, 0, 75, 72
1, 52594, Control_c, 0, 67, 49
1, 52618, Note_off_c, 0, 77, 63
1, 52624, Control_c, 0, 67, 48
1, 52630, Note_off_c, 0, 62, 62
1, 52644, Note_off_c, 0, 50, 35
1, 52648, Note_on_c, 0, 74, 75
1, 52654, Control_c, 0, 67, 49
1, 52672, Note_off_c, 0, 53, 64
1, 52678, Note_off_c, 0, 75, 62
1, 52683, Control_c, 0, 67, 48
1, 52690, Note_off_c, 0, 56, 60
1, 52697, Note_off_c, 0, 74, 64
1, 52702, Note_on_c, 0, 72, 71
1, 52706, Note_off_c, 0, 58, 61
1, 52713, Control_c, 0, 67, 49
1, 52728, Control_c, 0, 67, 49
1, 52742, Note_off_c, 0, 72, 58
1, 52747, Note_on_c, 0, 70, 79
1, 52757, Control_c, 0, 67, 49
1, 52772, Control_c, 0, 67, 48
1, 52812, Note_on_c, 0, 68, 74
1, 52817, Control_c, 0, 67, 48
1, 52831, Control_c, 0, 67, 49
1, 52840, Note_off_c, 0, 70, 61
1, 52866, Note_on_c, 0, 67, 76
1, 52872, Note_off_c, 0, 68, 62
1, 52876, Control_c, 0, 67, 49
1, 52885, Note_on_c, 0, 55, 47
1, 52886, Note_on_c, 0, 63, 55
1, 52887, Note_on_c, 0, 58, 40
1, 52890, Control_c, 0, 67, 50
1, 52895, Note_off_c, 0, 67, 64
1, 52897, Note_on_c, 0, 51, 51
1, 52920, Control_c, 0, 67, 51
1, 52935, Control_c, 0, 67, 51
1, 52950, Control_c, 0, 67, 52
1, 52964, Control_c, 0, 67, 52
1, 52979, Control_c, 0, 67, 53
1, 52994, Control_c, 0, 67, 54
1, 53016, Control_c, 0, 67, 56
1, 53018, Note_on_c, 0, 79, 62
1, 53031, Control_c, 0, 67, 56
1, 53046, Control_c, 0, 67, 57
1, 53056, Note_off_c, 0, 79, 60
1, 53076, Control_c, 0, 67, 57
1, 53090, Control_c, 0, 67, 58
1, 53105, Control_c, 0, 67, 58
1, 53120, Control_c, 0, 67, 59
1, 53135, Control_c, 0, 67, 59
1, 53142, Note_on_c, 0, 78, 68
1, 53150, Control_c, 0, 67, 60
1, 53164, Control_c, 0, 67, 61
1, 53178, Note_off_c, 0, 51, 51
1, 53179, Control_c, 0, 67, 61
1, 53187, Note_off_c, 0, 78, 62
1, 53194, Control_c, 0, 67, 62
1, 53208, Control_c, 0, 67, 63
1, 53223, Control_c, 0, 67, 64
1, 53238, Control_c, 0, 67, 66
1, 53253, Note_off_c, 0, 55, 46
1, 53253, Control_c, 0, 67, 68
1, 53268, Control_c, 0, 67, 70
1, 53283, Control_c, 0, 67, 71
1, 53284, Note_on_c, 0, 81, 52
1, 53298, Control_c, 0, 67, 71
1, 53313, Control_c, 0, 67, 72
1, 53340, Note_off_c, 0, 81, 61
1, 53342, Control_c, 0, 67, 72
1, 53347, Note_off_c, 0, 58, 41
1, 53356, Note_off_c, 0, 63, 58
1, 53357, Control_c, 0, 67, 73
1, 53372, Control_c, 0, 67, 74
1, 53387, Control_c, 0, 67, 74
1, 53417, Control_c, 0, 67, 75
1, 53422, Note_on_c, 0, 79, 58
1, 53465, Note_off_c, 0, 79, 62
1, 53549, Note_on_c, 0, 82, 58
1, 53551, Control_c, 0, 67, 76
1, 53581, Control_c, 0, 67, 76
1, 53605, Note_off_c, 0, 82, 51
1, 53679, Note_on_c, 0, 78, 66
1, 53742, Note_off_c, 0, 78, 65
1, 53813, Note_on_c, 0, 81, 72
1, 53872, Note_off_c, 0, 81, 62
1, 53944, Note_on_c, 0, 79, 75
1, 54007, Note_off_c, 0, 79, 62
1, 54070, Note_on_c, 0, 82, 81
1, 54143, Note_off_c, 0, 82, 62
1, 54197, Note_on_c, 0, 78, 85
1, 54198, Note_on_c, 0, 66, 70
1, 54255, Control_c, 0, 67, 76
1, 54272, Note_off_c, 0, 66, 54
1, 54277, Note_off_c, 0, 78, 64
1, 54319, Note_on_c, 0, 69, 62
1, 54325, Note_on_c, 0, 81, 83
1, 54377, Note_off_c, 0, 69, 57
1, 54404, Note_off_c, 0, 81, 62
1, 54439, Note_on_c, 0, 79, 85
1, 54449, Note_on_c, 0, 67, 71
1, 54463, Control_c, 0, 67, 76
1, 54515, Control_c, 0, 67, 77
1, 54530, Control_c, 0, 67, 77
1, 54538, Note_off_c, 0, 79, 62
1, 54544, Control_c, 0, 67, 78
1, 54559, Control_c, 0, 67, 78
1, 54570, Note_on_c, 0, 70, 75
1, 54571, Note_on_c, 0, 82, 84
1, 54575, Note_off_c, 0, 67, 63
1, 54588, Control_c, 0, 67, 79
1, 54615, Note_off_c, 0, 70, 59
1, 54624, Note_off_c, 0, 82, 64
1, 54702, Note_on_c, 0, 79, 84
1, 54716, Note_on_c, 0, 67, 64
1, 54778, Note_on_c, 0, 63, 70
1, 54779, Note_on_c, 0, 75, 81
1, 54781, Control_c, 0, 67, 78
1, 54796, Control_c, 0, 67, 77
1, 54806, Note_off_c, 0, 67, 54
1, 54811, Control_c, 0, 67, 76
1, 54822, Note_off_c, 0, 79, 62
1, 54848, Note_on_c, 0, 60, 72
1, 54849, Note_on_c, 0, 72, 83
1, 54855, Control_c, 0, 67, 75
1, 54860, Note_off_c, 0, 75, 61
1, 54870, Control_c, 0, 67, 74
1, 54885, Control_c, 0, 67, 74
1, 54895, Note_off_c, 0, 63, 64
1, 54915, Control_c, 0, 67, 73
1, 54929, Control_c, 0, 67, 72
1, 54944, Control_c, 0, 67, 72
1, 54959, Control_c, 0, 67, 71
1, 54974, Control_c, 0, 67, 70
1, 54990, Control_c, 0, 67, 69
1, 55005, Control_c, 0, 67, 69
1, 55020, Control_c, 0, 67, 68
1, 55045, Note_on_c, 0, 70, 81
1, 55045, Note_on_c, 0, 53, 59
1, 55051, Note_on_c, 0, 62, 71
1, 55091, Note_off_c, 0, 72, 62
1, 55093, Control_c, 0, 67, 68
1, 55108, Control_c, 0, 67, 67
1, 55123, Control_c, 0, 67, 67
1, 55131, Note_off_c, 0, 60, 65
1, 55278, Control_c, 0, 67, 66
1, 55307, Control_c, 0, 67, 66
1, 55322, Control_c, 0, 67, 65
1, 55337, Control_c, 0, 67, 66
1, 55352, Control_c, 0, 67, 66
1, 55426, Control_c, 0, 67, 67
1, 55432, Note_off_c, 0, 70, 61
1, 55441, Control_c, 0, 67, 68
1, 55446, Note_on_c, 0, 72, 70
1, 55501, Note_off_c, 0, 72, 52
1, 55509, Note_on_c, 0, 70, 73
1, 55515, Control_c, 0, 67, 69
1, 55530, Control_c, 0, 67, 70
1, 55542, Note_off_c, 0, 70, 63
1, 55549, Note_off_c, 0, 62, 63
1, 55554, Note_on_c, 0, 69, 74
1, 55574, Control_c, 0, 67, 71
1, 55599, Note_on_c, 0, 70, 70
1, 55603, Control_c, 0, 67, 71
1, 55618, Control_c, 0, 67, 72
1, 55633, Control_c, 0, 67, 73
1, 55658, Note_on_c, 0, 74, 79
1, 55662, Note_off_c, 0, 70, 62
1, 55682, Note_on_c, 0, 63, 60
1, 55707, Control_c, 0, 67, 73
1, 55722, Control_c, 0, 67, 74
1, 55766, Control_c, 0, 67, 74
1, 55797, Control_c, 0, 67, 75
1, 55841, Control_c, 0, 67, 75
1, 55856, Control_c, 0, 67, 76
1, 55871, Control_c, 0, 67, 77
1, 55886, Control_c, 0, 67, 78
1, 55900, Control_c, 0, 67, 78
1, 55915, Control_c, 0, 67, 79
1, 55960, Control_c, 0, 67, 79
1, 55975, Control_c, 0, 67, 80
1, 55989, Control_c, 0, 67, 81
1, 56012, Control_c, 0, 67, 84
1, 56027, Control_c, 0, 67, 87
1, 56041, Control_c, 0, 67, 89
1, 56056, Control_c, 0, 67, 90
1, 56071, Control_c, 0, 67, 92
1, 56086, Control_c, 0, 67, 93
1, 56101, Control_c, 0, 67, 96
1, 56115, Control_c, 0, 67, 99
1, 56130, Control_c, 0, 67, 102
1, 56145, Control_c, 0, 67, 104
1, 56160, Control_c, 0, 67, 105
1, 56175, Control_c, 0, 67, 106
1, 56189, Control_c, 0, 67, 108
1, 56204, Control_c, 0, 67, 110
1, 56219, Control_c, 0, 67, 112
1, 56233, Note_on_c, 0, 72, 65
1, 56234, Control_c, 0, 67, 113
1, 56249, Control_c, 0, 67, 113
1, 56264, Control_c, 0, 67, 114
1, 56273, Note_off_c, 0, 69, 62
1, 56279, Control_c, 0, 67, 116
1, 56294, Control_c, 0, 67, 120
1, 56300, Note_off_c, 0, 63, 66
1, 56308, Control_c, 0, 67, 125
1, 56313, Note_off_c, 0, 74, 60
1, 56316, Note_off_c, 0, 72, 62
1, 56317, Note_off_c, 0, 53, 53
1, 56323, Control_c, 0, 67, 127
1, 56324, Note_on_c, 0, 70, 63
1, 56335, Note_on_c, 0, 58, 47
1, 56335, Note_on_c, 0, 62, 42
1, 56385, Note_off_c, 0, 62, 0
1, 56385, Note_on_c, 0, 62, 21
1, 56585, Note_off_c, 0, 70, 64
1, 56615, Note_off_c, 0, 62, 59
1, 56620, Note_off_c, 0, 58, 64
1, 56841, Note_on_c, 0, 89, 49
1, 56879, Note_on_c, 0, 86, 51
1, 56881, Note_off_c, 0, 89, 62
1, 56893, Note_on_c, 0, 70, 46
1, 56895, Note_on_c, 0, 74, 37
1, 56901, Note_off_c, 0, 86, 60
1, 56929, Note_off_c, 0, 74, 60
1, 56979, Note_off_c, 0, 70, 0
1, 56979, Note_on_c, 0, 70, 21
1, 57098, Note_on_c, 0, 89, 48
1, 57142, Note_on_c, 0, 65, 41
1, 57145, Note_on_c, 0, 84, 53
1, 57157, Note_off_c, 0, 70, 47
1, 57165, Note_off_c, 0, 84, 62
1, 57166, Note_on_c, 0, 72, 26
1, 57167, Note_off_c, 0, 89, 54
1, 57359, Note_on_c, 0, 89, 45
1, 57401, Note_on_c, 0, 82, 48
1, 57417, Note_on_c, 0, 70, 50
1, 57418, Note_off_c, 0, 65, 48
1, 57420, Note_off_c, 0, 89, 61
1, 57426, Note_on_c, 0, 62, 31
1, 57427, Note_off_c, 0, 82, 59
1, 57447, Note_off_c, 0, 72, 49
1, 57643, Note_on_c, 0, 89, 37
1, 57682, Note_on_c, 0, 77, 62
1, 57697, Note_off_c, 0, 70, 61
1, 57697, Note_off_c, 0, 89, 50
1, 57698, Note_off_c, 0, 62, 56
1, 57710, Note_off_c, 0, 77, 60
1, 57885, Note_on_c, 0, 89, 46
1, 57929, Note_off_c, 0, 89, 57
1, 57932, Note_on_c, 0, 86, 56
1, 57935, Note_on_c, 0, 74, 49
1, 57947, Note_on_c, 0, 70, 46
1, 57951, Note_off_c, 0, 86, 62
1, 57975, Note_off_c, 0, 74, 65
1, 58163, Note_on_c, 0, 89, 47
1, 58199, Note_on_c, 0, 72, 42
1, 58201, Note_on_c, 0, 84, 49
1, 58210, Note_off_c, 0, 89, 63
1, 58213, Note_off_c, 0, 70, 58
1, 58220, Note_on_c, 0, 65, 34
1, 58222, Note_off_c, 0, 84, 60
1, 58279, Note_off_c, 0, 72, 0
1, 58279, Note_on_c, 0, 72, 8
1, 58442, Note_on_c, 0, 89, 48
1, 58453, Note_on_c, 0, 82, 62
1, 58472, Note_off_c, 0, 82, 68
1, 58477, Note_off_c, 0, 89, 57
1, 58479, Note_on_c, 0, 70, 36
1, 58484, Note_on_c, 0, 62, 39
1, 58488, Note_off_c, 0, 65, 43
1, 58488, Note_off_c, 0, 72, 42
1, 58692, Note_on_c, 0, 89, 52
1, 58729, Note_on_c, 0, 77, 57
1, 58747, Note_off_c, 0, 89, 61
1, 58749, Note_off_c, 0, 70, 58
1, 58750, Note_off_c, 0, 77, 63
1, 58753, Note_off_c, 0, 62, 58
1, 58926, Note_on_c, 0, 89, 51
1, 58962, Note_on_c, 0, 80, 75
1, 58966, Note_on_c, 0, 70, 56
1, 58981, Note_on_c, 0, 62, 44
1, 58985, Note_off_c, 0, 80, 70
1, 59003, Note_off_c, 0, 89, 65
1, 59006, Note_off_c, 0, 70, 64
1, 59015, Note_off_c, 0, 62, 58
1, 59187, Note_on_c, 0, 89, 62
1, 59227, Note_on_c, 0, 62, 55
1, 59231, Note_on_c, 0, 70, 54
1, 59242, Note_on_c, 0, 78, 70
1, 59254, Note_off_c, 0, 62, 63
1, 59263, Note_off_c, 0, 78, 68
1, 59265, Note_off_c, 0, 70, 65
1, 59268, Note_off_c, 0, 89, 63
1, 59449, Note_on_c, 0, 89, 44
1, 59486, Note_on_c, 0, 70, 51
1, 59492, Note_on_c, 0, 79, 59
1, 59510, Note_on_c, 0, 63, 49
1, 59514, Note_off_c, 0, 79, 64
1, 59523, Note_off_c, 0, 89, 37
1, 59708, Note_on_c, 0, 83, 43
1, 59731, Note_off_c, 0, 83, 61
1, 59734, Note_off_c, 0, 70, 53
1, 59736, Note_on_c, 0, 84, 57
1, 59772, Note_on_c, 0, 67, 29
1, 59778, Note_off_c, 0, 84, 65
1, 59949, Note_on_c, 0, 86, 61
1, 59996, Note_off_c, 0, 86, 63
1, 60008, Note_on_c, 0, 87, 61
1, 60023, Note_off_c, 0, 67, 54
1, 60023, Note_on_c, 0, 72, 50
1, 60033, Note_off_c, 0, 87, 66
1, 60035, Note_off_c, 0, 63, 65
1, 60205, Note_on_c, 0, 86, 58
1, 60249, Note_on_c, 0, 84, 63
1, 60260, Note_on_c, 0, 64, 53
1, 60272, Note_off_c, 0, 86, 60
1, 60291, Note_off_c, 0, 84, 62
1, 60457, Note_on_c, 0, 82, 63
1, 60505, Note_on_c, 0, 65, 57
1, 60507, Note_on_c, 0, 81, 64
1, 60512, Note_off_c, 0, 64, 57
1, 60522, Note_off_c, 0, 82, 65
1, 60531, Note_off_c, 0, 81, 66
1, 60696, Note_on_c, 0, 79, 67
1, 60728, Control_c, 0, 67, 127
1, 60741, Note_on_c, 0, 77, 72
1, 60743, Control_c, 0, 67, 126
1, 60757, Control_c, 0, 67, 126
1, 60760, Note_on_c, 0, 67, 58
1, 60766, Note_off_c, 0, 79, 58
1, 60768, Note_off_c, 0, 65, 63
1, 60780, Note_off_c, 0, 77, 64
1, 60787, Control_c, 0, 67, 125
1, 60817, Control_c, 0, 67, 125
1, 60846, Control_c, 0, 67, 124
1, 60937, Note_on_c, 0, 76, 68
1, 60965, Control_c, 0, 67, 124
1, 60985, Note_on_c, 0, 77, 81
1, 60998, Note_on_c, 0, 69, 62
1, 60998, Note_off_c, 0, 76, 66
1, 61012, Note_off_c, 0, 67, 64
1, 61018, Note_off_c, 0, 72, 63
1, 61025, Note_off_c, 0, 69, 67
1, 61027, Note_off_c, 0, 77, 64
1, 61098, Control_c, 0, 67, 123
1, 61172, Control_c, 0, 67, 123
1, 61175, Note_on_c, 0, 79, 79
1, 61187, Control_c, 0, 67, 122
1, 61202, Control_c, 0, 67, 118
1, 61216, Note_on_c, 0, 77, 76
1, 61216, Control_c, 0, 67, 114
1, 61231, Control_c, 0, 67, 111
1, 61233, Note_on_c, 0, 65, 58
1, 61240, Note_on_c, 0, 57, 59
1, 61254, Control_c, 0, 67, 108
1, 61262, Note_off_c, 0, 79, 59
1, 61269, Control_c, 0, 67, 105
1, 61283, Note_off_c, 0, 77, 63
1, 61284, Control_c, 0, 67, 101
1, 61298, Control_c, 0, 67, 99
1, 61313, Control_c, 0, 67, 97
1, 61328, Control_c, 0, 67, 96
1, 61373, Control_c, 0, 67, 96
1, 61385, Note_off_c, 0, 57, 58
1, 61388, Control_c, 0, 67, 97
1, 61403, Control_c, 0, 67, 97
1, 61412, Note_on_c, 0, 75, 73
1, 61447, Control_c, 0, 67, 97
1, 61462, Control_c, 0, 67, 95
1, 61474, Note_off_c, 0, 75, 62
1, 61477, Control_c, 0, 67, 94
1, 61480, Note_on_c, 0, 73, 80
1, 61481, Note_on_c, 0, 61, 59
1, 61483, Note_on_c, 0, 58, 59
1, 61492, Control_c, 0, 67, 93
1, 61507, Control_c, 0, 67, 91
1, 61518, Note_off_c, 0, 65, 65
1, 61532, Note_off_c, 0, 73, 65
1, 61534, Note_on_c, 0, 75, 70
1, 61590, Note_on_c, 0, 73, 80
1, 61606, Note_off_c, 0, 58, 62
1, 61611, Note_on_c, 0, 65, 65
1, 61614, Note_off_c, 0, 61, 63
1, 61614, Note_off_c, 0, 75, 63
1, 61653, Note_off_c, 0, 73, 64
1, 61654, Control_c, 0, 67, 92
1, 61665, Note_on_c, 0, 72, 66
1, 61684, Control_c, 0, 67, 91
1, 61721, Note_on_c, 0, 70, 76
1, 61725, Note_off_c, 0, 72, 62
1, 61731, Note_off_c, 0, 65, 62
1, 61735, Note_on_c, 0, 58, 54
1, 61737, Note_on_c, 0, 61, 46
1, 61743, Note_off_c, 0, 70, 69
1, 61847, Control_c, 0, 67, 92
1, 61853, Note_off_c, 0, 58, 61
1, 61859, Note_on_c, 0, 70, 63
1, 61862, Control_c, 0, 67, 92
1, 61862, Note_on_c, 0, 65, 56
1, 61877, Control_c, 0, 67, 93
1, 61879, Note_off_c, 0, 70, 65
1, 61892, Control_c, 0, 67, 94
1, 61917, Note_off_c, 0, 61, 48
1, 61921, Control_c, 0, 67, 94
1, 61936, Control_c, 0, 67, 95
1, 61999, Note_on_c, 0, 60, 58
1, 61999, Note_on_c, 0, 75, 80
1, 62002, Note_on_c, 0, 57, 57
1, 62008, Note_off_c, 0, 65, 61
1, 62016, Control_c, 0, 67, 95
1, 62031, Control_c, 0, 67, 96
1, 62043, Note_on_c, 0, 77, 81
1, 62044, Note_off_c, 0, 75, 64
1, 62046, Control_c, 0, 67, 96
1, 62060, Control_c, 0, 67, 97
1, 62103, Note_on_c, 0, 75, 79
1, 62103, Note_off_c, 0, 60, 59
1, 62110, Note_on_c, 0, 65, 62
1, 62115, Note_off_c, 0, 57, 59
1, 62129, Note_off_c, 0, 77, 62
1, 62156, Note_on_c, 0, 73, 83
1, 62195, Note_off_c, 0, 75, 63
1, 62214, Note_off_c, 0, 73, 66
1, 62220, Note_on_c, 0, 72, 74
1, 62230, Note_on_c, 0, 60, 62
1, 62235, Note_on_c, 0, 57, 60
1, 62264, Note_off_c, 0, 72, 62
1, 62272, Note_off_c, 0, 65, 62
1, 62313, Control_c, 0, 67, 97
1, 62328, Control_c, 0, 67, 98
1, 62342, Control_c, 0, 67, 99
1, 62351, Note_off_c, 0, 57, 60
1, 62357, Control_c, 0, 67, 101
1, 62359, Note_off_c, 0, 60, 62
1, 62367, Note_on_c, 0, 72, 67
1, 62372, Control_c, 0, 67, 102
1, 62385, Note_on_c, 0, 65, 62
1, 62387, Control_c, 0, 67, 103
1, 62394, Note_off_c, 0, 72, 57
1, 62401, Control_c, 0, 67, 107
1, 62416, Control_c, 0, 67, 111
1, 62431, Control_c, 0, 67, 118
1, 62440, Note_off_c, 0, 65, 60
1, 62446, Control_c, 0, 67, 124
1, 62461, Control_c, 0, 67, 127
1, 62510, Note_on_c, 0, 73, 65
1, 62519, Note_on_c, 0, 61, 48
1, 62521, Note_on_c, 0, 58, 51
1, 62540, Note_off_c, 0, 73, 64
1, 62572, Note_on_c, 0, 75, 54
1, 62603, Note_off_c, 0, 58, 55
1, 62620, Note_on_c, 0, 73, 68
1, 62625, Note_on_c, 0, 65, 52
1, 62628, Note_off_c, 0, 75, 60
1, 62641, Note_off_c, 0, 61, 49
1, 62673, Note_off_c, 0, 73, 59
1, 62693, Note_on_c, 0, 72, 56
1, 62745, Note_off_c, 0, 72, 51
1, 62747, Note_on_c, 0, 70, 65
1, 62748, Note_on_c, 0, 58, 47
1, 62756, Note_off_c, 0, 65, 59
1, 62774, Note_on_c, 0, 61, 47
1, 62775, Note_off_c, 0, 70, 66
1, 62882, Note_off_c, 0, 58, 59
1, 62892, Note_on_c, 0, 70, 62
1, 62906, Note_on_c, 0, 65, 50
1, 62923, Note_off_c, 0, 70, 65
1, 63007, Note_off_c, 0, 61, 36
1, 63032, Note_on_c, 0, 60, 51
1, 63032, Note_on_c, 0, 75, 69
1, 63033, Note_off_c, 0, 65, 61
1, 63046, Note_on_c, 0, 57, 48
1, 63068, Note_off_c, 0, 75, 64
1, 63078, Note_on_c, 0, 77, 74
1, 63131, Note_off_c, 0, 60, 56
1, 63137, Note_on_c, 0, 75, 66
1, 63144, Note_off_c, 0, 57, 57
1, 63154, Note_on_c, 0, 65, 59
1, 63156, Note_off_c, 0, 77, 59
1, 63185, Note_on_c, 0, 73, 76
1, 63220, Note_off_c, 0, 75, 62
1, 63237, Note_off_c, 0, 73, 65
1, 63248, Note_on_c, 0, 72, 69
1, 63260, Note_on_c, 0, 60, 57
1, 63269, Note_on_c, 0, 57, 59
1, 63281, Note_off_c, 0, 72, 63
1, 63293, Note_off_c, 0, 65, 60
1, 63385, Note_off_c, 0, 60, 65
1, 63391, Note_on_c, 0, 72, 69
1, 63394, Note_off_c, 0, 57, 62
1, 63397, Note_on_c, 0, 65, 68
1, 63420, Note_off_c, 0, 72, 58
1, 63424, Note_off_c, 0, 65, 69
1, 63432, Control_c, 0, 67, 122
1, 63447, Control_c, 0, 67, 116
1, 63462, Control_c, 0, 67, 112
1, 63477, Control_c, 0, 67, 110
1, 63498, Control_c, 0, 67, 109
1, 63514, Control_c, 0, 67, 108
1, 63527, Note_on_c, 0, 73, 74
1, 63529, Control_c, 0, 67, 107
1, 63537, Note_on_c, 0, 49, 80
1, 63540, Note_on_c, 0, 61, 78
1, 63543, Control_c, 0, 67, 105
1, 63558, Control_c, 0, 67, 104
1, 63573, Control_c, 0, 67, 103
1, 63576, Note_off_c, 0, 73, 65
1, 63582, Note_on_c, 0, 75, 80
1, 63603, Control_c, 0, 67, 103
1, 63609, Note_off_c, 0, 49, 64
1, 63618, Control_c, 0, 67, 101
1, 63633, Control_c, 0, 67, 99
1, 63647, Note_on_c, 0, 73, 78
1, 63647, Control_c, 0, 67, 96
1, 63657, Note_off_c, 0, 61, 61
1, 63662, Control_c, 0, 67, 95
1, 63682, Note_off_c, 0, 75, 62
1, 63692, Control_c, 0, 67, 96
1, 63710, Note_off_c, 0, 73, 64
1, 63710, Note_on_c, 0, 72, 76
1, 63751, Control_c, 0, 67, 95
1, 63766, Control_c, 0, 67, 94
1, 63778, Note_on_c, 0, 70, 78
1, 63779, Note_off_c, 0, 72, 59
1, 63782, Control_c, 0, 67, 93
1, 63785, Note_on_c, 0, 46, 67
1, 63785, Note_on_c, 0, 58, 59
1, 63796, Control_c, 0, 67, 91
1, 63811, Control_c, 0, 67, 89
1, 63826, Note_off_c, 0, 70, 62
1, 63826, Control_c, 0, 67, 88
1, 63831, Note_on_c, 0, 72, 74
1, 63852, Note_off_c, 0, 46, 66
1, 63862, Note_off_c, 0, 58, 61
1, 63889, Note_on_c, 0, 70, 81
1, 63901, Control_c, 0, 67, 87
1, 63915, Control_c, 0, 67, 86
1, 63929, Note_off_c, 0, 72, 57
1, 63965, Note_on_c, 0, 68, 80
1, 63974, Control_c, 0, 67, 85
1, 63989, Control_c, 0, 67, 85
1, 63993, Note_off_c, 0, 70, 64
1, 64004, Control_c, 0, 67, 84
1, 64014, Note_on_c, 0, 54, 72
1, 64015, Note_on_c, 0, 66, 74
1, 64019, Control_c, 0, 67, 84
1, 64020, Note_on_c, 0, 42, 67
1, 64024, Note_off_c, 0, 68, 61
1, 64034, Control_c, 0, 67, 83
1, 64048, Control_c, 0, 67, 82
1, 64063, Control_c, 0, 67, 82
1, 64064, Note_off_c, 0, 42, 61
1, 64068, Note_off_c, 0, 66, 64
1, 64074, Note_off_c, 0, 54, 60
1, 64078, Note_on_c, 0, 68, 76
1, 64108, Control_c, 0, 67, 81
1, 64137, Note_on_c, 0, 66, 80
1, 64137, Control_c, 0, 67, 81
1, 64172, Note_off_c, 0, 68, 61
1, 64197, Note_on_c, 0, 65, 77
1, 64199, Note_off_c, 0, 66, 62
1, 64226, Control_c, 0, 67, 80
1, 64248, Control_c, 0, 67, 80
1, 64253, Note_on_c, 0, 51, 73
1, 64263, Control_c, 0, 67, 79
1, 64266, Note_on_c, 0, 39, 58
1, 64271, Note_on_c, 0, 63, 82
1, 64276, Note_off_c, 0, 65, 63
1, 64278, Control_c, 0, 67, 79
1, 64293, Note_off_c, 0, 51, 60
1, 64293, Control_c, 0, 67, 78
1, 64308, Control_c, 0, 67, 77
1, 64312, Note_off_c, 0, 39, 64
1, 64321, Note_off_c, 0, 63, 64
1, 64322, Note_on_c, 0, 65, 59
1, 64337, Control_c, 0, 67, 76
1, 64352, Control_c, 0, 67, 76
1, 64366, Control_c, 0, 67, 75
1, 64381, Note_on_c, 0, 63, 67
1, 64381, Control_c, 0, 67, 75
1, 64414, Note_off_c, 0, 65, 65
1, 64439, Note_on_c, 0, 61, 79
1, 64440, Control_c, 0, 67, 74
1, 64455, Control_c, 0, 67, 73
1, 64470, Control_c, 0, 67, 70
1, 64471, Note_off_c, 0, 63, 65
1, 64485, Control_c, 0, 67, 69
1, 64498, Note_off_c, 0, 61, 65
1, 64500, Control_c, 0, 67, 68
1, 64508, Note_on_c, 0, 48, 63
1, 64508, Note_on_c, 0, 60, 67
1, 64513, Note_on_c, 0, 36, 61
1, 64515, Control_c, 0, 67, 68
1, 64530, Control_c, 0, 67, 67
1, 64545, Control_c, 0, 67, 67
1, 64560, Control_c, 0, 67, 66
1, 64575, Control_c, 0, 67, 67
1, 64577, Note_on_c, 0, 61, 72
1, 64588, Note_off_c, 0, 60, 58
1, 64590, Control_c, 0, 67, 67
1, 64604, Control_c, 0, 67, 68
1, 64625, Note_off_c, 0, 61, 64
1, 64634, Control_c, 0, 67, 68
1, 64642, Note_on_c, 0, 63, 66
1, 64649, Control_c, 0, 67, 69
1, 64664, Control_c, 0, 67, 69
1, 64700, Note_on_c, 0, 61, 59
1, 64720, Note_off_c, 0, 63, 65
1, 64738, Control_c, 0, 67, 69
1, 64755, Note_off_c, 0, 61, 64
1, 64756, Note_on_c, 0, 60, 61
1, 64783, Control_c, 0, 64, 13
1, 64797, Control_c, 0, 64, 25
1, 64812, Control_c, 0, 64, 32
1, 64822, Note_on_c, 0, 61, 62
1, 64827, Control_c, 0, 64, 39
1, 64827, Control_c, 0, 67, 69
1, 64834, Note_off_c, 0, 60, 58
1, 64842, Control_c, 0, 64, 46
1, 64842, Control_c, 0, 67, 69
1, 64857, Control_c, 0, 64, 50
1, 64858, Note_off_c, 0, 48, 37
1, 64871, Control_c, 0, 64, 53
1, 64885, Note_off_c, 0, 61, 66
1, 64886, Control_c, 0, 64, 53
1, 64886, Control_c, 0, 67, 69
1, 64890, Note_on_c, 0, 63, 66
1, 64931, Control_c, 0, 64, 54
1, 64931, Control_c, 0, 67, 70
1, 64947, Note_on_c, 0, 61, 61
1, 64975, Control_c, 0, 64, 53
1, 64975, Control_c, 0, 67, 70
1, 64980, Note_off_c, 0, 63, 63
1, 64997, Control_c, 0, 64, 51
1, 65012, Control_c, 0, 64, 45
1, 65012, Control_c, 0, 67, 70
1, 65019, Note_off_c, 0, 61, 65
1, 65020, Note_on_c, 0, 34, 70
1, 65024, Note_on_c, 0, 60, 67
1, 65027, Control_c, 0, 64, 32
1, 65027, Control_c, 0, 67, 69
1, 65031, Note_on_c, 0, 46, 55
1, 65042, Control_c, 0, 64, 0
1, 65042, Control_c, 0, 67, 68
1, 65050, Note_off_c, 0, 36, 59
1, 65080, Note_on_c, 0, 61, 64
1, 65086, Control_c, 0, 67, 69
1, 65109, Note_off_c, 0, 60, 54
1, 65130, Control_c, 0, 67, 68
1, 65143, Note_off_c, 0, 61, 65
1, 65146, Note_on_c, 0, 63, 69
1, 65175, Control_c, 0, 67, 69
1, 65207, Note_on_c, 0, 61, 66
1, 65234, Control_c, 0, 67, 68
1, 65237, Note_off_c, 0, 63, 64
1, 65263, Control_c, 0, 67, 69
1, 65264, Note_on_c, 0, 60, 63
1, 65266, Note_off_c, 0, 61, 66
1, 65332, Note_on_c, 0, 61, 70
1, 65338, Control_c, 0, 67, 69
1, 65353, Control_c, 0, 67, 70
1, 65354, Note_off_c, 0, 60, 59
1, 65395, Note_off_c, 0, 61, 65
1, 65398, Note_on_c, 0, 63, 69
1, 65427, Control_c, 0, 67, 70
1, 65462, Note_on_c, 0, 61, 65
1, 65472, Control_c, 0, 67, 71
1, 65495, Note_off_c, 0, 63, 65
1, 65502, Control_c, 0, 67, 70
1, 65518, Note_off_c, 0, 46, 59
1, 65522, Note_off_c, 0, 61, 66
1, 65531, Note_on_c, 0, 60, 69
1, 65542, Note_on_c, 0, 33, 68
1, 65544, Note_on_c, 0, 45, 65
1, 65546, Control_c, 0, 67, 70
1, 65576, Control_c, 0, 67, 69
1, 65591, Note_off_c, 0, 34, 61
1, 65591, Note_on_c, 0, 61, 71
1, 65618, Note_off_c, 0, 60, 60
1, 65635, Control_c, 0, 67, 70
1, 65651, Note_off_c, 0, 61, 66
1, 65657, Note_on_c, 0, 63, 68
1, 65665, Control_c, 0, 67, 69
1, 65694, Control_c, 0, 67, 70
1, 65707, Note_on_c, 0, 61, 64
1, 65743, Note_off_c, 0, 63, 65
1, 65778, Note_off_c, 0, 61, 65
1, 65785, Note_on_c, 0, 60, 69
1, 65805, Control_c, 0, 67, 71
1, 65834, Control_c, 0, 67, 70
1, 65844, Note_on_c, 0, 61, 72
1, 65868, Note_off_c, 0, 45, 56
1, 65874, Note_off_c, 0, 60, 58
1, 65879, Control_c, 0, 67, 71
1, 65902, Note_off_c, 0, 61, 66
1, 65905, Note_on_c, 0, 63, 68
1, 65938, Control_c, 0, 67, 72
1, 65967, Note_on_c, 0, 61, 68
1, 65996, Note_off_c, 0, 63, 65
1, 65997, Control_c, 0, 67, 71
1, 66026, Note_off_c, 0, 61, 66
1, 66031, Note_on_c, 0, 60, 69
1, 66038, Note_on_c, 0, 30, 68
1, 66053, Note_on_c, 0, 42, 45
1, 66056, Control_c, 0, 67, 71
1, 66066, Note_off_c, 0, 33, 62
1, 66071, Control_c, 0, 67, 70
1, 66086, Control_c, 0, 67, 70
1, 66098, Note_on_c, 0, 61, 65
1, 66101, Control_c, 0, 67, 69
1, 66119, Note_off_c, 0, 60, 56
1, 66146, Note_off_c, 0, 61, 64
1, 66154, Note_on_c, 0, 63, 68
1, 66223, Note_on_c, 0, 61, 63
1, 66224, Note_off_c, 0, 63, 58
1, 66267, Note_off_c, 0, 61, 64
1, 66274, Note_on_c, 0, 60, 55
1, 66345, Note_on_c, 0, 61, 65
1, 66367, Note_off_c, 0, 60, 57
1, 66383, Control_c, 0, 67, 70
1, 66391, Note_off_c, 0, 61, 63
1, 66398, Control_c, 0, 67, 70
1, 66400, Note_on_c, 0, 63, 63
1, 66413, Control_c, 0, 67, 71
1, 66428, Control_c, 0, 67, 71
1, 66457, Control_c, 0, 67, 72
1, 66464, Note_on_c, 0, 61, 60
1, 66491, Note_off_c, 0, 63, 61
1, 66495, Note_off_c, 0, 42, 44
1, 66528, Note_off_c, 0, 61, 64
1, 66543, Note_on_c, 0, 60, 51
1, 66554, Control_c, 0, 67, 72
1, 66566, Note_on_c, 0, 41, 34
1, 66568, Control_c, 0, 67, 73
1, 66572, Note_on_c, 0, 29, 45
1, 66585, Note_off_c, 0, 30, 36
1, 66595, Note_off_c, 0, 60, 58
1, 66605, Note_on_c, 0, 62, 62
1, 66631, Note_off_c, 0, 41, 0
1, 66631, Note_on_c, 0, 41, 3
1, 66655, Note_off_c, 0, 62, 62
1, 66667, Note_on_c, 0, 63, 59
1, 66731, Note_on_c, 0, 62, 61
1, 66736, Note_off_c, 0, 63, 64
1, 66746, Control_c, 0, 67, 73
1, 66772, Note_off_c, 0, 62, 65
1, 66775, Control_c, 0, 67, 73
1, 66789, Note_on_c, 0, 60, 59
1, 66820, Control_c, 0, 67, 73
1, 66831, Note_off_c, 0, 60, 65
1, 66834, Control_c, 0, 67, 73
1, 66844, Note_on_c, 0, 62, 53
1, 66864, Control_c, 0, 67, 72
1, 66889, Note_off_c, 0, 62, 64
1, 66906, Note_on_c, 0, 63, 56
1, 66938, Control_c, 0, 67, 72
1, 66967, Note_on_c, 0, 62, 61
1, 66968, Note_off_c, 0, 63, 61
1, 66969, Control_c, 0, 67, 71
1, 67013, Control_c, 0, 67, 72
1, 67014, Note_off_c, 0, 62, 62
1, 67028, Control_c, 0, 67, 71
1, 67040, Note_on_c, 0, 60, 61
1, 67043, Control_c, 0, 67, 70
1, 67072, Note_off_c, 0, 60, 67
1, 67097, Note_on_c, 0, 62, 52
1, 67117, Control_c, 0, 67, 70
1, 67132, Control_c, 0, 67, 69
1, 67139, Note_off_c, 0, 62, 64
1, 67147, Control_c, 0, 67, 70
1, 67150, Note_on_c, 0, 63, 57
1, 67162, Control_c, 0, 67, 70
1, 67191, Control_c, 0, 67, 70
1, 67211, Note_off_c, 0, 63, 62
1, 67216, Note_on_c, 0, 62, 61
1, 67261, Note_off_c, 0, 62, 65
1, 67280, Note_on_c, 0, 60, 61
1, 67303, Control_c, 0, 67, 69
1, 67311, Note_off_c, 0, 60, 67
1, 67344, Note_on_c, 0, 62, 67
1, 67362, Control_c, 0, 67, 68
1, 67377, Control_c, 0, 67, 68
1, 67386, Note_off_c, 0, 62, 64
1, 67391, Control_c, 0, 67, 67
1, 67415, Note_on_c, 0, 63, 55
1, 67421, Control_c, 0, 67, 67
1, 67464, Note_on_c, 0, 62, 62
1, 67464, Note_off_c, 0, 63, 63
1, 67496, Control_c, 0, 67, 67
1, 67507, Note_off_c, 0, 62, 65
1, 67524, Note_on_c, 0, 60, 57
1, 67555, Note_off_c, 0, 60, 66
1, 67570, Control_c, 0, 67, 66
1, 67579, Note_on_c, 0, 62, 66
1, 67599, Control_c, 0, 67, 66
1, 67633, Note_off_c, 0, 62, 62
1, 67646, Note_on_c, 0, 63, 46
1, 67673, Control_c, 0, 67, 65
1, 67699, Note_on_c, 0, 62, 62
1, 67708, Note_off_c, 0, 63, 62
1, 67746, Note_off_c, 0, 62, 63
1, 67759, Note_on_c, 0, 60, 65
1, 67791, Note_off_c, 0, 60, 67
1, 67812, Note_on_c, 0, 62, 62
1, 67856, Note_off_c, 0, 62, 65
1, 67874, Note_on_c, 0, 63, 56
1, 67919, Note_on_c, 0, 62, 63
1, 67940, Note_off_c, 0, 63, 65
1, 67940, Control_c, 0, 67, 65
1, 67961, Note_off_c, 0, 62, 65
1, 67970, Control_c, 0, 67, 65
1, 67997, Note_on_c, 0, 60, 62
1, 68008, Control_c, 0, 67, 65
1, 68037, Note_off_c, 0, 60, 65
1, 68058, Note_on_c, 0, 62, 69
1, 68067, Control_c, 0, 67, 65
1, 68090, Note_off_c, 0, 29, 56
1, 68092, Note_off_c, 0, 41, 57
1, 68096, Control_c, 0, 67, 64
1, 68107, Note_on_c, 0, 63, 67
1, 68140, Control_c, 0, 67, 64
1, 68145, Note_off_c, 0, 62, 63
1, 68161, Note_on_c, 0, 65, 68
1, 68169, Note_off_c, 0, 63, 66
1, 68185, Control_c, 0, 67, 63
1, 68196, Note_off_c, 0, 65, 56
1, 68200, Control_c, 0, 67, 64
1, 68211, Note_on_c, 0, 67, 78
1, 68229, Control_c, 0, 67, 65
1, 68235, Note_off_c, 0, 67, 67
1, 68244, Control_c, 0, 67, 65
1, 68271, Note_on_c, 0, 69, 78
1, 68329, Note_on_c, 0, 70, 75
1, 68374, Note_off_c, 0, 69, 63
1, 68381, Note_on_c, 0, 72, 74
1, 68414, Note_off_c, 0, 70, 62
1, 68438, Note_off_c, 0, 72, 63
1, 68466, Control_c, 0, 67, 66
1, 68479, Note_on_c, 0, 62, 46
1, 68479, Note_on_c, 0, 74, 68
1, 68481, Note_on_c, 0, 65, 43
1, 68481, Control_c, 0, 67, 67
1, 68483, Note_on_c, 0, 58, 50
1, 68497, Note_on_c, 0, 70, 53
1, 68511, Control_c, 0, 67, 68
1, 68526, Control_c, 0, 67, 68
1, 68536, Note_off_c, 0, 70, 0
1, 68536, Note_on_c, 0, 70, 30
1, 68540, Control_c, 0, 67, 69
1, 68556, Control_c, 0, 67, 70
1, 68571, Control_c, 0, 67, 70
1, 68601, Control_c, 0, 64, 20
1, 68601, Control_c, 0, 67, 71
1, 68609, Note_off_c, 0, 70, 58
1, 68616, Control_c, 0, 64, 34
1, 68616, Control_c, 0, 67, 72
1, 68630, Control_c, 0, 64, 45
1, 68630, Control_c, 0, 67, 73
1, 68635, Note_off_c, 0, 74, 67
1, 68645, Control_c, 0, 64, 57
1, 68645, Control_c, 0, 67, 74
1, 68660, Control_c, 0, 64, 65
1, 68675, Control_c, 0, 64, 67
1, 68690, Control_c, 0, 64, 68
1, 68704, Control_c, 0, 64, 70
1, 68704, Control_c, 0, 67, 75
1, 68719, Control_c, 0, 64, 71
1, 68742, Control_c, 0, 64, 71
1, 68742, Control_c, 0, 67, 76
1, 68769, Note_off_c, 0, 58, 61
1, 68771, Control_c, 0, 67, 76
1, 68787, Note_off_c, 0, 62, 57
1, 68822, Note_off_c, 0, 65, 43
1, 68933, Note_on_c, 0, 57, 44
1, 68934, Control_c, 0, 67, 77
1, 68949, Control_c, 0, 64, 71
1, 68949, Control_c, 0, 67, 77
1, 68956, Note_on_c, 0, 60, 50
1, 68963, Control_c, 0, 64, 69
1, 68963, Control_c, 0, 67, 78
1, 68978, Control_c, 0, 64, 66
1, 68978, Control_c, 0, 67, 79
1, 68993, Control_c, 0, 64, 61
1, 68993, Control_c, 0, 67, 79
1, 69002, Note_on_c, 0, 65, 46
1, 69008, Control_c, 0, 64, 52
1, 69008, Control_c, 0, 67, 80
1, 69017, Note_on_c, 0, 72, 52
1, 69023, Control_c, 0, 64, 31
1, 69023, Control_c, 0, 67, 83
1, 69037, Control_c, 0, 64, 0
1, 69037, Control_c, 0, 67, 87
1, 69052, Control_c, 0, 67, 89
1, 69067, Control_c, 0, 67, 89
1, 69070, Note_on_c, 0, 77, 66
1, 69082, Control_c, 0, 67, 90
1, 69097, Control_c, 0, 67, 91
1, 69105, Poly_aftertouch_c, 0, 81, 0
1, 69111, Control_c, 0, 64, 14
1, 69111, Control_c, 0, 67, 94
1, 69126, Control_c, 0, 64, 32
1, 69126, Control_c, 0, 67, 99
1, 69128, Note_off_c, 0, 72, 61
1, 69141, Control_c, 0, 64, 46
1, 69141, Control_c, 0, 67, 105
1, 69156, Control_c, 0, 64, 58
1, 69156, Control_c, 0, 67, 109
1, 69159, Note_off_c, 0, 77, 64
1, 69165, Note_off_c, 0, 57, 60
1, 69171, Control_c, 0, 64, 65
1, 69186, Control_c, 0, 64, 67
1, 69186, Control_c, 0, 67, 110
1, 69201, Control_c, 0, 64, 67
1, 69201, Control_c, 0, 67, 110
1, 69211, Note_off_c, 0, 60, 64
1, 69216, Control_c, 0, 64, 68
1, 69230, Control_c, 0, 64, 70
1, 69230, Control_c, 0, 67, 112
1, 69245, Control_c, 0, 64, 72
1, 69245, Control_c, 0, 67, 114
1, 69260, Control_c, 0, 64, 75
1, 69260, Control_c, 0, 67, 118
1, 69275, Note_off_c, 0, 65, 37
1, 69275, Control_c, 0, 64, 76
1, 69275, Control_c, 0, 67, 119
1, 69289, Control_c, 0, 64, 76
1, 69289, Control_c, 0, 67, 120
1, 69304, Control_c, 0, 67, 121
1, 69319, Control_c, 0, 67, 123
1, 69334, Control_c, 0, 67, 125
1, 69349, Control_c, 0, 67, 127
1, 69380, Control_c, 0, 67, 127
1, 69409, Control_c, 0, 64, 75
1, 69424, Control_c, 0, 64, 74
1, 69490, Control_c, 0, 64, 73
1, 69505, Control_c, 0, 64, 72
1, 69513, Note_on_c, 0, 55, 37
1, 69519, Control_c, 0, 64, 70
1, 69534, Control_c, 0, 64, 69
1, 69549, Control_c, 0, 64, 66
1, 69553, Note_on_c, 0, 58, 39
1, 69564, Control_c, 0, 64, 64
1, 69579, Control_c, 0, 64, 61
1, 69580, Note_on_c, 0, 70, 45
1, 69593, Control_c, 0, 64, 57
1, 69607, Note_on_c, 0, 63, 33
1, 69608, Control_c, 0, 64, 50
1, 69621, Note_on_c, 0, 75, 45
1, 69623, Control_c, 0, 64, 43
1, 69638, Control_c, 0, 64, 38
1, 69653, Control_c, 0, 64, 30
1, 69654, Note_on_c, 0, 82, 64
1, 69665, Note_off_c, 0, 70, 0
1, 69665, Note_on_c, 0, 70, 18
1, 69667, Control_c, 0, 64, 19
1, 69682, Control_c, 0, 64, 0
1, 70157, Control_c, 0, 64, 17
1, 70172, Control_c, 0, 64, 29
1, 70187, Control_c, 0, 64, 40
1, 70201, Control_c, 0, 64, 50
1, 70216, Control_c, 0, 64, 55
1, 70238, Control_c, 0, 64, 57
1, 70254, Control_c, 0, 64, 58
1, 70269, Control_c, 0, 64, 60
1, 70282, Note_off_c, 0, 55, 42
1, 70284, Control_c, 0, 64, 60
1, 70298, Control_c, 0, 64, 61
1, 70313, Control_c, 0, 64, 62
1, 70316, Note_off_c, 0, 70, 42
1, 70319, Note_off_c, 0, 58, 59
1, 70339, Note_off_c, 0, 82, 62
1, 70375, Note_off_c, 0, 63, 43
1, 70432, Control_c, 0, 64, 61
1, 70491, Control_c, 0, 64, 61
1, 70506, Control_c, 0, 64, 60
1, 70521, Control_c, 0, 64, 59
1, 70535, Control_c, 0, 64, 57
1, 70550, Control_c, 0, 64, 55
1, 70563, Note_off_c, 0, 75, 57
1, 70564, Note_on_c, 0, 81, 60
1, 70565, Control_c, 0, 64, 53
1, 70580, Control_c, 0, 64, 49
1, 70595, Control_c, 0, 64, 43
1, 70609, Control_c, 0, 64, 38
1, 70624, Note_on_c, 0, 79, 58
1, 70624, Control_c, 0, 64, 32
1, 70639, Control_c, 0, 64, 27
1, 70647, Note_off_c, 0, 81, 62
1, 70654, Control_c, 0, 64, 20
1, 70661, Note_on_c, 0, 77, 66
1, 70667, Note_off_c, 0, 79, 60
1, 70669, Control_c, 0, 64, 0
1, 70715, Note_on_c, 0, 75, 58
1, 70715, Note_on_c, 0, 70, 40
1, 70718, Note_off_c, 0, 77, 62
1, 70727, Note_on_c, 0, 67, 46
1, 70758, Note_off_c, 0, 75, 55
1, 70765, Note_off_c, 0, 70, 44
1, 70861, Note_off_c, 0, 67, 36
1, 71124, Note_on_c, 0, 74, 46
1, 71140, Note_on_c, 0, 70, 36
1, 71152, Note_on_c, 0, 65, 37
1, 71278, Note_on_c, 0, 63, 49
1, 71280, Note_on_c, 0, 79, 45
1, 71297, Note_off_c, 0, 74, 56
1, 71321, Note_off_c, 0, 65, 48
1, 71330, Note_off_c, 0, 79, 53
1, 71348, Note_off_c, 0, 63, 62
1, 71372, Note_off_c, 0, 70, 50
1, 71690, Note_on_c, 0, 77, 47
1, 71701, Note_on_c, 0, 61, 36
1, 71707, Note_on_c, 0, 70, 25
1, 71756, Poly_aftertouch_c, 0, 65, 127
1, 71780, Note_off_c, 0, 61, 56
1, 71815, Poly_aftertouch_c, 0, 65, 0
1, 71825, Note_off_c, 0, 77, 50
1, 71840, Note_off_c, 0, 70, 0
1, 71840, Note_on_c, 0, 70, 10
1, 71863, Note_on_c, 0, 76, 51
1, 71874, Note_on_c, 0, 60, 37
1, 71888, Note_on_c, 0, 67, 30
1, 71930, Note_off_c, 0, 76, 0
1, 71930, Note_on_c, 0, 76, 25
1, 71955, Note_off_c, 0, 67, 0
1, 71955, Note_on_c, 0, 67, 3
1, 72289, Note_off_c, 0, 76, 58
1, 72304, Note_off_c, 0, 70, 55
1, 72432, Note_off_c, 0, 60, 59
1, 72447, Note_off_c, 0, 67, 57
1, 72514, Note_on_c, 0, 79, 62
1, 72520, Note_on_c, 0, 75, 55
1, 72542, Note_off_c, 0, 75, 62
1, 72562, Note_off_c, 0, 79, 59
1, 72619, Control_c, 0, 67, 127
1, 72634, Control_c, 0, 67, 125
1, 72646, Note_on_c, 0, 74, 63
1, 72647, Note_on_c, 0, 77, 52
1, 72649, Control_c, 0, 67, 122
1, 72664, Control_c, 0, 67, 121
1, 72672, Note_off_c, 0, 74, 70
1, 72676, Note_off_c, 0, 77, 58
1, 72678, Control_c, 0, 67, 120
1, 72693, Control_c, 0, 67, 120
1, 72723, Control_c, 0, 67, 119
1, 72752, Control_c, 0, 67, 119
1, 72780, Note_on_c, 0, 75, 47
1, 72782, Control_c, 0, 67, 119
1, 72797, Control_c, 0, 67, 120
1, 72799, Note_on_c, 0, 72, 29
1, 72805, Note_off_c, 0, 75, 57
1, 72834, Note_off_c, 0, 72, 47
1, 72911, Note_on_c, 0, 74, 57
1, 72918, Note_on_c, 0, 70, 58
1, 72930, Control_c, 0, 67, 120
1, 73034, Note_on_c, 0, 65, 53
1, 73043, Note_on_c, 0, 62, 57
1, 73070, Note_off_c, 0, 65, 57
1, 73078, Control_c, 0, 67, 120
1, 73082, Note_off_c, 0, 62, 65
1, 73162, Note_on_c, 0, 60, 59
1, 73179, Note_on_c, 0, 63, 57
1, 73195, Note_off_c, 0, 60, 66
1, 73213, Note_off_c, 0, 63, 68
1, 73301, Note_off_c, 0, 74, 64
1, 73303, Note_on_c, 0, 58, 63
1, 73304, Note_off_c, 0, 70, 61
1, 73310, Note_on_c, 0, 62, 59
1, 73336, Note_off_c, 0, 58, 62
1, 73340, Note_off_c, 0, 62, 66
1, 73443, Note_on_c, 0, 57, 60
1, 73444, Note_on_c, 0, 60, 63
1, 73574, Note_on_c, 0, 79, 62
1, 73577, Note_on_c, 0, 75, 68
1, 73604, Note_off_c, 0, 75, 65
1, 73605, Control_c, 0, 67, 120
1, 73620, Note_off_c, 0, 79, 61
1, 73621, Note_off_c, 0, 57, 61
1, 73636, Note_off_c, 0, 60, 64
1, 73698, Note_on_c, 0, 77, 72
1, 73703, Note_on_c, 0, 74, 67
1, 73725, Note_off_c, 0, 74, 72
1, 73734, Note_off_c, 0, 77, 59
1, 73831, Note_on_c, 0, 72, 75
1, 73845, Note_on_c, 0, 75, 35
1, 73854, Note_off_c, 0, 72, 67
1, 73878, Note_off_c, 0, 75, 33
1, 73984, Note_on_c, 0, 74, 77
1, 73985, Note_on_c, 0, 70, 80
1, 74057, Control_c, 0, 67, 119
1, 74072, Control_c, 0, 67, 119
1, 74103, Note_on_c, 0, 65, 64
1, 74110, Note_on_c, 0, 62, 65
1, 74167, Note_off_c, 0, 65, 64
1, 74175, Note_off_c, 0, 62, 64
1, 74242, Note_on_c, 0, 60, 68
1, 74242, Note_on_c, 0, 63, 77
1, 74287, Note_off_c, 0, 60, 65
1, 74298, Note_off_c, 0, 63, 65
1, 74339, Control_c, 0, 67, 119
1, 74354, Control_c, 0, 67, 120
1, 74361, Note_on_c, 0, 62, 77
1, 74363, Note_on_c, 0, 58, 75
1, 74407, Note_off_c, 0, 70, 60
1, 74411, Note_off_c, 0, 62, 60
1, 74421, Note_off_c, 0, 74, 64
1, 74428, Note_off_c, 0, 58, 62
1, 74492, Note_on_c, 0, 57, 80
1, 74498, Note_on_c, 0, 60, 75
1, 74522, Note_off_c, 0, 57, 62
1, 74522, Note_off_c, 0, 60, 68
1, 74629, Note_on_c, 0, 79, 69
1, 74630, Note_on_c, 0, 75, 73
1, 74636, Note_on_c, 0, 65, 62
1, 74673, Note_on_c, 0, 64, 9
1, 74694, Control_c, 0, 67, 119
1, 74727, Note_off_c, 0, 64, 28
1, 74731, Control_c, 0, 67, 119
1, 74745, Control_c, 0, 67, 118
1, 74756, Note_on_c, 0, 77, 72
1, 74764, Note_on_c, 0, 67, 74
1, 74769, Note_on_c, 0, 74, 73
1, 74793, Note_off_c, 0, 75, 61
1, 74802, Note_off_c, 0, 65, 66
1, 74802, Note_off_c, 0, 79, 60
1, 74877, Note_on_c, 0, 69, 71
1, 74888, Note_on_c, 0, 75, 73
1, 74891, Note_on_c, 0, 72, 75
1, 74903, Note_off_c, 0, 74, 56
1, 74918, Note_off_c, 0, 67, 61
1, 75023, Note_on_c, 0, 70, 75
1, 75027, Note_on_c, 0, 74, 71
1, 75028, Control_c, 0, 64, 16
1, 75028, Control_c, 0, 67, 118
1, 75040, Note_off_c, 0, 69, 66
1, 75040, Note_off_c, 0, 72, 63
1, 75043, Control_c, 0, 64, 36
1, 75043, Control_c, 0, 67, 119
1, 75049, Note_off_c, 0, 77, 63
1, 75058, Control_c, 0, 64, 47
1, 75058, Control_c, 0, 67, 120
1, 75058, Note_off_c, 0, 74, 65
1, 75064, Note_off_c, 0, 75, 63
1, 75073, Control_c, 0, 64, 53
1, 75087, Control_c, 0, 64, 55
1, 75087, Control_c, 0, 67, 121
1, 75091, Note_off_c, 0, 70, 55
1, 75102, Control_c, 0, 64, 56
1, 75131, Control_c, 0, 64, 55
1, 75131, Control_c, 0, 67, 121
1, 75144, Note_on_c, 0, 82, 85
1, 75146, Control_c, 0, 64, 53
1, 75153, Note_on_c, 0, 77, 77
1, 75154, Note_on_c, 0, 74, 84
1, 75161, Control_c, 0, 64, 51
1, 75161, Control_c, 0, 67, 122
1, 75176, Control_c, 0, 64, 50
1, 75191, Control_c, 0, 64, 48
1, 75205, Control_c, 0, 64, 47
1, 75220, Control_c, 0, 64, 43
1, 75235, Control_c, 0, 64, 38
1, 75249, Control_c, 0, 64, 33
1, 75264, Control_c, 0, 64, 28
1, 75273, Note_on_c, 0, 75, 87
1, 75279, Control_c, 0, 64, 21
1, 75279, Control_c, 0, 67, 122
1, 75282, Note_on_c, 0, 72, 76
1, 75283, Note_off_c, 0, 82, 62
1, 75285, Note_on_c, 0, 81, 33
1, 75294, Note_off_c, 0, 77, 61
1, 75294, Control_c, 0, 64, 0
1, 75294, Control_c, 0, 67, 123
1, 75309, Control_c, 0, 67, 123
1, 75316, Note_off_c, 0, 74, 61
1, 75321, Note_off_c, 0, 81, 42
1, 75390, Note_on_c, 0, 79, 76
1, 75393, Note_on_c, 0, 70, 72
1, 75393, Note_on_c, 0, 74, 63
1, 75398, Control_c, 0, 67, 124
1, 75413, Control_c, 0, 67, 124
1, 75433, Note_off_c, 0, 72, 61
1, 75536, Note_on_c, 0, 69, 76
1, 75537, Note_on_c, 0, 77, 77
1, 75538, Control_c, 0, 67, 124
1, 75547, Note_on_c, 0, 72, 71
1, 75551, Note_off_c, 0, 70, 62
1, 75553, Note_off_c, 0, 74, 64
1, 75553, Control_c, 0, 67, 123
1, 75559, Note_off_c, 0, 75, 39
1, 75637, Note_off_c, 0, 72, 51
1, 75667, Note_on_c, 0, 75, 75
1, 75674, Note_on_c, 0, 70, 68
1, 75684, Note_on_c, 0, 67, 68
1, 75692, Note_off_c, 0, 69, 59
1, 75702, Control_c, 0, 67, 124
1, 75752, Note_off_c, 0, 67, 62
1, 75760, Note_off_c, 0, 79, 54
1, 75776, Note_off_c, 0, 77, 52
1, 75785, Note_off_c, 0, 70, 62
1, 75798, Note_on_c, 0, 69, 67
1, 75806, Note_on_c, 0, 74, 78
1, 75828, Note_on_c, 0, 65, 52
1, 75880, Control_c, 0, 67, 123
1, 75888, Note_off_c, 0, 65, 0
1, 75888, Note_on_c, 0, 65, 7
1, 75916, Note_off_c, 0, 75, 57
1, 75925, Note_on_c, 0, 72, 75
1, 75928, Note_off_c, 0, 65, 60
1, 75928, Note_off_c, 0, 74, 59
1, 75932, Note_on_c, 0, 63, 65
1, 75940, Note_on_c, 0, 67, 43
1, 76072, Note_off_c, 0, 63, 63
1, 76087, Control_c, 0, 67, 124
1, 76096, Note_on_c, 0, 71, 67
1, 76102, Control_c, 0, 67, 125
1, 76116, Note_on_c, 0, 62, 47
1, 76122, Note_on_c, 0, 65, 47
1, 76156, Note_off_c, 0, 72, 57
1, 76161, Control_c, 0, 67, 126
1, 76168, Note_off_c, 0, 69, 19
1, 76176, Note_off_c, 0, 67, 63
1, 76176, Control_c, 0, 67, 127
1, 76739, Note_on_c, 0, 72, 44
1, 76747, Note_on_c, 0, 67, 32
1, 76754, Note_on_c, 0, 63, 31
1, 76760, Note_off_c, 0, 71, 52
1, 76789, Note_off_c, 0, 62, 52
1, 76797, Note_off_c, 0, 65, 39
1, 76861, Note_off_c, 0, 67, 57
1, 76905, Note_off_c, 0, 63, 60
1, 76932, Note_off_c, 0, 72, 52
1, 77381, Note_on_c, 0, 69, 38
1, 77391, Note_on_c, 0, 63, 23
1, 77393, Note_on_c, 0, 60, 33
1, 77401, Note_on_c, 0, 65, 26
1, 78036, Note_on_c, 0, 62, 36
1, 78039, Note_on_c, 0, 70, 23
1, 78064, Note_off_c, 0, 60, 41
1, 78081, Note_off_c, 0, 69, 38
1, 78094, Note_off_c, 0, 65, 44
1, 78102, Note_off_c, 0, 70, 0
1, 78102, Note_on_c, 0, 70, 10
1, 78123, Note_off_c, 0, 62, 0
1, 78123, Note_on_c, 0, 62, 20
1, 78129, Note_off_c, 0, 63, 45
1, 78255, Note_off_c, 0, 62, 53
1, 78281, Note_off_c, 0, 70, 50
1, 79610, Note_on_c, 0, 67, 51
1, 79620, Note_on_c, 0, 55, 44
1, 79697, Control_c, 0, 64, 18
1, 79712, Control_c, 0, 64, 26
1, 79727, Control_c, 0, 64, 31
1, 79743, Control_c, 0, 64, 38
1, 79758, Control_c, 0, 64, 45
1, 79773, Control_c, 0, 64, 52
1, 79787, Control_c, 0, 64, 56
1, 79802, Control_c, 0, 64, 57
1, 79817, Control_c, 0, 64, 58
1, 79832, Control_c, 0, 64, 59
1, 79846, Control_c, 0, 64, 61
1, 79861, Control_c, 0, 64, 63
1, 79876, Control_c, 0, 64, 64
1, 79891, Control_c, 0, 64, 64
1, 79935, Control_c, 0, 64, 65
1, 79950, Control_c, 0, 64, 67
1, 79973, Control_c, 0, 64, 68
1, 80031, Control_c, 0, 64, 69
1, 80045, Control_c, 0, 64, 71
1, 80060, Control_c, 0, 64, 71
1, 80120, Control_c, 0, 64, 72
1, 80135, Control_c, 0, 64, 74
1, 80150, Control_c, 0, 64, 74
1, 80165, Control_c, 0, 64, 75
1, 80180, Control_c, 0, 64, 75
1, 80194, Control_c, 0, 64, 77
1, 80209, Control_c, 0, 64, 79
1, 80224, Control_c, 0, 64, 83
1, 80238, Note_off_c, 0, 55, 42
1, 80239, Control_c, 0, 64, 83
1, 80268, Control_c, 0, 64, 84
1, 80283, Control_c, 0, 64, 86
1, 80298, Control_c, 0, 64, 88
1, 80312, Control_c, 0, 64, 92
1, 80327, Control_c, 0, 64, 95
1, 80342, Control_c, 0, 64, 98
1, 80357, Control_c, 0, 64, 104
1, 80371, Control_c, 0, 64, 114
1, 80386, Control_c, 0, 64, 127
1, 80721, Control_c, 0, 64, 108
1, 80737, Control_c, 0, 64, 88
1, 80743, Note_on_c, 0, 66, 67
1, 80751, Control_c, 0, 64, 75
1, 80752, Note_on_c, 0, 54, 51
1, 80759, Note_on_c, 0, 30, 55
1, 80763, Note_on_c, 0, 42, 50
1, 80766, Control_c, 0, 64, 66
1, 80781, Control_c, 0, 64, 59
1, 80796, Control_c, 0, 64, 43
1, 80796, Control_c, 0, 67, 127
1, 80811, Control_c, 0, 64, 18
1, 80811, Control_c, 0, 67, 123
1, 80825, Control_c, 0, 64, 0
1, 80825, Control_c, 0, 67, 120
1, 80840, Control_c, 0, 67, 117
1, 80852, Note_off_c, 0, 67, 62
1, 80855, Control_c, 0, 67, 116
1, 80884, Control_c, 0, 67, 115
1, 80899, Control_c, 0, 67, 114
1, 80914, Control_c, 0, 67, 111
1, 80929, Control_c, 0, 67, 106
1, 80943, Control_c, 0, 67, 100
1, 80958, Control_c, 0, 64, 20
1, 80958, Control_c, 0, 67, 95
1, 80973, Control_c, 0, 64, 29
1, 80973, Control_c, 0, 67, 92
1, 80988, Control_c, 0, 64, 39
1, 80988, Control_c, 0, 67, 89
1, 81003, Control_c, 0, 64, 47
1, 81003, Control_c, 0, 67, 86
1, 81017, Control_c, 0, 64, 55
1, 81017, Control_c, 0, 67, 83
1, 81032, Control_c, 0, 64, 59
1, 81032, Control_c, 0, 67, 79
1, 81047, Control_c, 0, 64, 61
1, 81047, Control_c, 0, 67, 75
1, 81062, Control_c, 0, 64, 63
1, 81062, Control_c, 0, 67, 71
1, 81077, Control_c, 0, 64, 65
1, 81077, Control_c, 0, 67, 70
1, 81092, Control_c, 0, 64, 68
1, 81092, Control_c, 0, 67, 68
1, 81107, Control_c, 0, 64, 71
1, 81107, Control_c, 0, 67, 67
1, 81121, Control_c, 0, 64, 72
1, 81121, Control_c, 0, 67, 66
1, 81136, Control_c, 0, 67, 66
1, 81151, Control_c, 0, 64, 73
1, 81151, Control_c, 0, 67, 64
1, 81166, Control_c, 0, 64, 77
1, 81166, Control_c, 0, 67, 62
1, 81181, Control_c, 0, 64, 84
1, 81181, Control_c, 0, 67, 60
1, 81195, Control_c, 0, 64, 92
1, 81195, Control_c, 0, 67, 59
1, 81210, Control_c, 0, 64, 96
1, 81210, Control_c, 0, 67, 58
1, 81225, Control_c, 0, 64, 99
1, 81225, Control_c, 0, 67, 55
1, 81240, Control_c, 0, 64, 105
1, 81240, Control_c, 0, 67, 55
1, 81255, Control_c, 0, 64, 127
1, 81255, Control_c, 0, 67, 54
1, 81269, Control_c, 0, 67, 54
1, 81276, Note_off_c, 0, 42, 48
1, 81284, Control_c, 0, 67, 53
1, 81299, Control_c, 0, 67, 53
1, 81314, Control_c, 0, 67, 52
1, 81360, Control_c, 0, 67, 52
1, 81374, Control_c, 0, 67, 50
1, 81389, Control_c, 0, 67, 46
1, 81404, Control_c, 0, 67, 41
1, 81419, Control_c, 0, 67, 37
1, 81432, Note_off_c, 0, 54, 56
1, 81434, Control_c, 0, 67, 35
1, 81448, Control_c, 0, 67, 33
1, 81470, Control_c, 0, 67, 27
1, 81485, Control_c, 0, 67, 21
1, 81500, Control_c, 0, 67, 17
1, 81515, Control_c, 0, 67, 16
1, 81530, Control_c, 0, 67, 14
1, 81545, Control_c, 0, 67, 10
1, 81551, Note_off_c, 0, 66, 54
1, 81560, Control_c, 0, 67, 0
1, 81589, Note_off_c, 0, 30, 34
1, 81766, Control_c, 0, 64, 100
1, 81781, Control_c, 0, 64, 65
1, 81796, Control_c, 0, 64, 56
1, 81810, Note_on_c, 0, 29, 74
1, 81811, Control_c, 0, 64, 54
1, 81815, Note_on_c, 0, 65, 79
1, 81819, Note_on_c, 0, 53, 67
1, 81825, Control_c, 0, 64, 63
1, 81840, Control_c, 0, 64, 103
1, 81841, Note_off_c, 0, 53, 66
1, 81855, Control_c, 0, 64, 127
1, 81856, Note_off_c, 0, 65, 66
1, 81881, Note_off_c, 0, 29, 60
1, 81894, Note_on_c, 0, 41, 60
1, 81936, Note_on_c, 0, 29, 67
1, 81940, Note_off_c, 0, 41, 62
1, 82013, Note_on_c, 0, 41, 67
1, 82019, Note_off_c, 0, 29, 58
1, 82063, Note_on_c, 0, 29, 61
1, 82069, Note_on_c, 0, 77, 87
1, 82071, Note_on_c, 0, 65, 80
1, 82071, Note_on_c, 0, 70, 81
1, 82073, Note_on_c, 0, 74, 67
1, 82077, Note_off_c, 0, 41, 63
1, 82078, Control_c, 0, 64, 81
1, 82092, Note_on_c, 0, 67, 57
1, 82092, Control_c, 0, 64, 60
1, 82102, Note_off_c, 0, 74, 67
1, 82105, Note_off_c, 0, 65, 65
1, 82107, Control_c, 0, 64, 41
1, 82113, Note_off_c, 0, 70, 61
1, 82114, Note_off_c, 0, 67, 61
1, 82122, Control_c, 0, 64, 0
1, 82133, Note_off_c, 0, 77, 63
1, 82142, Note_off_c, 0, 29, 62
1, 82144, Note_on_c, 0, 41, 71
1, 82195, Note_on_c, 0, 29, 75
1, 82203, Note_off_c, 0, 41, 63
1, 82265, Note_on_c, 0, 41, 69
1, 82281, Note_off_c, 0, 29, 62
1, 82325, Note_on_c, 0, 29, 72
1, 82330, Note_on_c, 0, 82, 91
1, 82335, Note_off_c, 0, 41, 60
1, 82336, Note_on_c, 0, 74, 81
1, 82337, Note_on_c, 0, 77, 78
1, 82362, Note_on_c, 0, 80, 50
1, 82362, Note_off_c, 0, 77, 67
1, 82373, Note_off_c, 0, 74, 67
1, 82387, Note_off_c, 0, 80, 57
1, 82391, Note_off_c, 0, 82, 65
1, 82396, Note_off_c, 0, 29, 62
1, 82398, Note_on_c, 0, 41, 75
1, 82449, Note_on_c, 0, 29, 76
1, 82460, Note_off_c, 0, 41, 61
1, 82515, Note_on_c, 0, 41, 75
1, 82523, Note_off_c, 0, 29, 61
1, 82578, Note_on_c, 0, 29, 82
1, 82585, Note_on_c, 0, 86, 80
1, 82586, Note_off_c, 0, 41, 59
1, 82588, Note_on_c, 0, 77, 80
1, 82589, Note_on_c, 0, 82, 77
1, 82621, Note_off_c, 0, 77, 59
1, 82624, Note_off_c, 0, 82, 66
1, 82636, Note_off_c, 0, 86, 63
1, 82642, Note_off_c, 0, 29, 63
1, 82644, Note_on_c, 0, 41, 76
1, 82696, Note_on_c, 0, 29, 82
1, 82698, Note_off_c, 0, 41, 62
1, 82767, Note_on_c, 0, 41, 75
1, 82770, Note_off_c, 0, 29, 60
1, 82834, Note_on_c, 0, 89, 92
1, 82835, Note_on_c, 0, 77, 91
1, 82836, Note_on_c, 0, 82, 85
1, 82836, Note_on_c, 0, 86, 68
1, 82837, Note_on_c, 0, 29, 92
1, 82865, Note_off_c, 0, 41, 61
1, 82905, Note_off_c, 0, 29, 64
1, 82905, Note_off_c, 0, 77, 64
1, 82912, Note_off_c, 0, 86, 61
1, 82920, Note_off_c, 0, 89, 68
1, 82940, Note_off_c, 0, 82, 65
1, 83405, Note_on_c, 0, 81, 89
1, 83409, Note_on_c, 0, 53, 80
1, 83410, Note_on_c, 0, 75, 77
1, 83412, Note_on_c, 0, 60, 69
1, 83414, Note_on_c, 0, 72, 79
1, 83414, Note_on_c, 0, 77, 69
1, 83415, Note_on_c, 0, 63, 80
1, 83424, Note_on_c, 0, 57, 72
1, 83442, Control_c, 0, 64, 37
1, 83453, Note_off_c, 0, 63, 66
1, 83457, Control_c, 0, 64, 52
1, 83461, Note_off_c, 0, 53, 66
1, 83464, Note_off_c, 0, 75, 62
1, 83471, Control_c, 0, 64, 67
1, 83473, Note_off_c, 0, 60, 67
1, 83473, Note_off_c, 0, 77, 63
1, 83476, Note_off_c, 0, 57, 64
1, 83486, Control_c, 0, 64, 127
1, 83499, Note_off_c, 0, 72, 63
1, 83536, Note_off_c, 0, 81, 63
1, 83748, Control_c, 0, 64, 70
1, 83762, Control_c, 0, 64, 50
1, 83777, Control_c, 0, 64, 0
1, 83947, Note_on_c, 0, 82, 88
1, 83956, Note_on_c, 0, 46, 77
1, 83961, Note_on_c, 0, 58, 73
1, 83963, Note_on_c, 0, 53, 71
1, 83977, Note_on_c, 0, 50, 64
1, 84013, Note_on_c, 0, 86, 88
1, 84016, Note_off_c, 0, 58, 64
1, 84022, Note_off_c, 0, 82, 64
1, 84030, Note_off_c, 0, 46, 66
1, 84041, Note_off_c, 0, 53, 63
1, 84055, Note_off_c, 0, 50, 63
1, 84080, Note_on_c, 0, 84, 80
1, 84135, Note_on_c, 0, 82, 83
1, 84148, Note_off_c, 0, 86, 59
1, 84204, Note_on_c, 0, 81, 84
1, 84206, Note_off_c, 0, 84, 62
1, 84239, Note_off_c, 0, 82, 65
1, 84257, Note_on_c, 0, 79, 81
1, 84262, Note_off_c, 0, 81, 63
1, 84317, Note_on_c, 0, 77, 86
1, 84328, Note_off_c, 0, 79, 55
1, 84395, Note_on_c, 0, 76, 75
1, 84420, Note_off_c, 0, 77, 61
1, 84440, Note_on_c, 0, 75, 81
1, 84446, Note_on_c, 0, 46, 63
1, 84451, Note_on_c, 0, 57, 80
1, 84452, Note_on_c, 0, 51, 70
1, 84454, Note_on_c, 0, 48, 60
1, 84478, Note_off_c, 0, 76, 66
1, 84519, Note_on_c, 0, 79, 82
1, 84527, Note_off_c, 0, 75, 59
1, 84534, Note_off_c, 0, 48, 63
1, 84540, Control_c, 0, 67, 8
1, 84555, Control_c, 0, 67, 10
1, 84559, Note_off_c, 0, 46, 63
1, 84570, Control_c, 0, 67, 11
1, 84579, Note_on_c, 0, 77, 80
1, 84584, Control_c, 0, 67, 13
1, 84591, Note_off_c, 0, 51, 64
1, 84599, Control_c, 0, 67, 15
1, 84614, Control_c, 0, 67, 18
1, 84629, Control_c, 0, 67, 21
1, 84638, Note_off_c, 0, 79, 61
1, 84643, Control_c, 0, 67, 23
1, 84645, Note_on_c, 0, 75, 80
1, 84658, Control_c, 0, 67, 24
1, 84673, Control_c, 0, 67, 25
1, 84678, Note_off_c, 0, 77, 62
1, 84688, Control_c, 0, 67, 25
1, 84714, Note_on_c, 0, 74, 76
1, 84717, Control_c, 0, 67, 26
1, 84737, Note_off_c, 0, 57, 57
1, 84749, Note_off_c, 0, 75, 61
1, 84770, Note_off_c, 0, 74, 65
1, 84771, Note_on_c, 0, 72, 75
1, 84777, Control_c, 0, 67, 25
1, 84791, Control_c, 0, 67, 24
1, 84833, Note_on_c, 0, 70, 76
1, 84845, Note_off_c, 0, 72, 56
1, 84869, Note_off_c, 0, 70, 61
1, 84901, Note_on_c, 0, 69, 70
1, 84910, Control_c, 0, 67, 25
1, 84925, Control_c, 0, 67, 25
1, 84940, Control_c, 0, 67, 26
1, 84952, Note_on_c, 0, 58, 62
1, 84953, Note_on_c, 0, 53, 55
1, 84955, Note_on_c, 0, 70, 72
1, 84955, Control_c, 0, 67, 27
1, 84963, Note_off_c, 0, 69, 60
1, 84967, Note_on_c, 0, 46, 60
1, 84969, Note_on_c, 0, 50, 53
1, 84970, Control_c, 0, 67, 29
1, 84984, Control_c, 0, 67, 33
1, 84999, Control_c, 0, 67, 35
1, 85013, Note_on_c, 0, 74, 71
1, 85014, Control_c, 0, 67, 38
1, 85015, Note_off_c, 0, 70, 63
1, 85028, Control_c, 0, 67, 40
1, 85043, Control_c, 0, 67, 43
1, 85056, Note_off_c, 0, 58, 63
1, 85058, Control_c, 0, 67, 45
1, 85064, Note_off_c, 0, 53, 51
1, 85073, Control_c, 0, 67, 46
1, 85079, Note_on_c, 0, 72, 70
1, 85088, Control_c, 0, 67, 47
1, 85101, Note_off_c, 0, 50, 59
1, 85103, Control_c, 0, 67, 48
1, 85125, Note_off_c, 0, 74, 58
1, 85129, Note_off_c, 0, 46, 62
1, 85140, Note_on_c, 0, 70, 70
1, 85176, Control_c, 0, 67, 47
1, 85187, Note_off_c, 0, 72, 57
1, 85191, Control_c, 0, 67, 46
1, 85214, Note_on_c, 0, 69, 74
1, 85214, Control_c, 0, 67, 45
1, 85229, Control_c, 0, 67, 45
1, 85243, Control_c, 0, 67, 44
1, 85245, Note_off_c, 0, 70, 62
1, 85258, Control_c, 0, 67, 43
1, 85265, Note_off_c, 0, 69, 61
1, 85273, Control_c, 0, 67, 43
1, 85274, Note_on_c, 0, 67, 70
1, 85288, Control_c, 0, 67, 42
1, 85303, Control_c, 0, 67, 42
1, 85317, Control_c, 0, 67, 41
1, 85319, Note_off_c, 0, 67, 53
1, 85326, Note_on_c, 0, 65, 69
1, 85332, Control_c, 0, 67, 41
1, 85348, Control_c, 0, 67, 40
1, 85391, Note_on_c, 0, 64, 69
1, 85410, Note_off_c, 0, 65, 62
1, 85440, Note_on_c, 0, 63, 70
1, 85451, Note_off_c, 0, 64, 62
1, 85454, Note_on_c, 0, 57, 63
1, 85465, Note_on_c, 0, 46, 48
1, 85466, Note_on_c, 0, 48, 53
1, 85466, Control_c, 0, 67, 40
1, 85468, Note_on_c, 0, 51, 54
1, 85481, Control_c, 0, 67, 39
1, 85500, Note_off_c, 0, 63, 65
1, 85511, Control_c, 0, 67, 38
1, 85515, Note_on_c, 0, 67, 74
1, 85526, Control_c, 0, 67, 38
1, 85540, Control_c, 0, 67, 36
1, 85555, Control_c, 0, 67, 35
1, 85563, Note_off_c, 0, 57, 62
1, 85570, Control_c, 0, 67, 34
1, 85572, Note_on_c, 0, 65, 68
1, 85584, Control_c, 0, 67, 33
1, 85599, Control_c, 0, 67, 32
1, 85608, Note_off_c, 0, 67, 52
1, 85612, Note_off_c, 0, 51, 63
1, 85630, Note_on_c, 0, 63, 74
1, 85636, Note_off_c, 0, 48, 62
1, 85644, Control_c, 0, 67, 31
1, 85648, Note_off_c, 0, 65, 65
1, 85675, Note_off_c, 0, 46, 65
1, 85695, Note_on_c, 0, 62, 77
1, 85718, Control_c, 0, 67, 30
1, 85721, Note_off_c, 0, 63, 65
1, 85748, Control_c, 0, 67, 30
1, 85756, Note_off_c, 0, 62, 63
1, 85757, Note_on_c, 0, 60, 72
1, 85763, Control_c, 0, 67, 29
1, 85777, Control_c, 0, 67, 29
1, 85792, Control_c, 0, 67, 28
1, 85807, Note_off_c, 0, 60, 57
1, 85807, Control_c, 0, 67, 27
1, 85810, Note_on_c, 0, 58, 71
1, 85851, Control_c, 0, 67, 28
1, 85866, Control_c, 0, 67, 28
1, 85870, Note_off_c, 0, 58, 63
1, 85881, Control_c, 0, 67, 29
1, 85885, Note_on_c, 0, 57, 68
1, 85896, Control_c, 0, 67, 30
1, 85911, Control_c, 0, 67, 31
1, 85925, Control_c, 0, 67, 31
1, 85930, Note_off_c, 0, 57, 62
1, 85938, Note_on_c, 0, 58, 71
1, 85947, Note_on_c, 0, 34, 64
1, 85961, Note_on_c, 0, 46, 67
1, 85962, Control_c, 0, 67, 30
1, 85977, Control_c, 0, 67, 30
1, 85992, Control_c, 0, 67, 29
1, 85992, Note_off_c, 0, 34, 63
1, 85996, Note_off_c, 0, 46, 64
1, 86002, Note_off_c, 0, 58, 63
1, 86028, Note_on_c, 0, 57, 72
1, 86052, Control_c, 0, 67, 29
1, 86057, Note_on_c, 0, 58, 62
1, 86066, Control_c, 0, 67, 28
1, 86073, Note_off_c, 0, 57, 61
1, 86081, Control_c, 0, 67, 28
1, 86114, Note_off_c, 0, 58, 63
1, 86119, Note_on_c, 0, 53, 75
1, 86141, Control_c, 0, 67, 28
1, 86171, Note_off_c, 0, 53, 63
1, 86186, Control_c, 0, 67, 28
1, 86190, Note_on_c, 0, 38, 69
1, 86192, Note_on_c, 0, 62, 77
1, 86193, Note_on_c, 0, 50, 63
1, 86222, Note_off_c, 0, 38, 62
1, 86234, Note_off_c, 0, 50, 64
1, 86239, Note_off_c, 0, 62, 62
1, 86249, Note_on_c, 0, 61, 70
1, 86275, Control_c, 0, 67, 27
1, 86304, Control_c, 0, 67, 28
1, 86310, Note_off_c, 0, 61, 64
1, 86311, Note_on_c, 0, 62, 75
1, 86319, Control_c, 0, 67, 28
1, 86347, Note_off_c, 0, 62, 63
1, 86363, Control_c, 0, 67, 28
1, 86365, Note_on_c, 0, 58, 66
1, 86407, Control_c, 0, 67, 28
1, 86423, Note_off_c, 0, 58, 58
1, 86437, Note_on_c, 0, 65, 71
1, 86439, Note_on_c, 0, 41, 62
1, 86443, Note_on_c, 0, 53, 60
1, 86452, Control_c, 0, 67, 29
1, 86463, Note_off_c, 0, 41, 62
1, 86475, Note_off_c, 0, 53, 65
1, 86481, Control_c, 0, 67, 29
1, 86492, Note_off_c, 0, 65, 63
1, 86496, Control_c, 0, 67, 30
1, 86504, Note_on_c, 0, 64, 68
1, 86526, Control_c, 0, 67, 29
1, 86549, Note_on_c, 0, 65, 64
1, 86563, Note_off_c, 0, 64, 62
1, 86571, Control_c, 0, 67, 30
1, 86583, Note_off_c, 0, 65, 62
1, 86585, Control_c, 0, 67, 31
1, 86600, Control_c, 0, 67, 31
1, 86601, Note_on_c, 0, 62, 71
1, 86615, Control_c, 0, 67, 32
1, 86642, Note_off_c, 0, 62, 60
1, 86645, Control_c, 0, 67, 32
1, 86669, Note_on_c, 0, 70, 70
1, 86681, Note_on_c, 0, 46, 69
1, 86684, Note_on_c, 0, 58, 69
1, 86711, Control_c, 0, 67, 32
1, 86721, Note_off_c, 0, 58, 65
1, 86723, Note_off_c, 0, 46, 66
1, 86726, Note_off_c, 0, 70, 64
1, 86726, Control_c, 0, 67, 31
1, 86742, Note_on_c, 0, 69, 72
1, 86788, Note_off_c, 0, 69, 64
1, 86789, Note_on_c, 0, 70, 63
1, 86846, Note_off_c, 0, 70, 62
1, 86850, Note_on_c, 0, 65, 73
1, 86860, Control_c, 0, 67, 32
1, 86913, Note_off_c, 0, 65, 60
1, 86919, Control_c, 0, 67, 31
1, 86922, Note_on_c, 0, 74, 70
1, 86933, Note_on_c, 0, 50, 58
1, 86934, Note_on_c, 0, 62, 58
1, 86961, Note_off_c, 0, 74, 66
1, 86962, Note_off_c, 0, 50, 66
1, 86979, Control_c, 0, 67, 32
1, 86980, Note_on_c, 0, 73, 75
1, 86988, Note_off_c, 0, 62, 56
1, 87039, Note_off_c, 0, 73, 61
1, 87042, Note_on_c, 0, 74, 75
1, 87068, Control_c, 0, 67, 32
1, 87068, Note_off_c, 0, 74, 64
1, 87096, Note_on_c, 0, 70, 73
1, 87155, Note_off_c, 0, 70, 61
1, 87164, Note_on_c, 0, 77, 77
1, 87166, Note_on_c, 0, 53, 70
1, 87179, Note_on_c, 0, 65, 61
1, 87194, Note_off_c, 0, 53, 66
1, 87201, Control_c, 0, 67, 31
1, 87209, Note_off_c, 0, 77, 57
1, 87212, Note_off_c, 0, 65, 68
1, 87227, Note_on_c, 0, 76, 77
1, 87230, Control_c, 0, 67, 31
1, 87275, Note_on_c, 0, 77, 65
1, 87280, Note_off_c, 0, 76, 64
1, 87290, Control_c, 0, 67, 31
1, 87304, Control_c, 0, 67, 32
1, 87314, Note_on_c, 0, 74, 70
1, 87322, Note_off_c, 0, 77, 62
1, 87375, Note_off_c, 0, 74, 60
1, 87387, Note_on_c, 0, 82, 81
1, 87390, Note_on_c, 0, 58, 63
1, 87408, Control_c, 0, 67, 31
1, 87411, Note_on_c, 0, 70, 61
1, 87420, Note_off_c, 0, 58, 66
1, 87429, Note_off_c, 0, 70, 64
1, 87448, Note_off_c, 0, 82, 65
1, 87465, Note_on_c, 0, 81, 72
1, 87489, Control_c, 0, 67, 32
1, 87512, Note_on_c, 0, 82, 69
1, 87516, Note_off_c, 0, 81, 62
1, 87533, Control_c, 0, 67, 32
1, 87572, Note_on_c, 0, 77, 70
1, 87578, Note_off_c, 0, 82, 64
1, 87578, Control_c, 0, 67, 33
1, 87623, Control_c, 0, 67, 32
1, 87637, Control_c, 0, 67, 31
1, 87640, Note_on_c, 0, 84, 78
1, 87652, Control_c, 0, 67, 30
1, 87653, Note_on_c, 0, 65, 70
1, 87653, Note_on_c, 0, 75, 69
1, 87667, Control_c, 0, 67, 30
1, 87676, Note_off_c, 0, 75, 65
1, 87682, Note_off_c, 0, 65, 68
1, 87697, Control_c, 0, 67, 29
1, 87697, Note_off_c, 0, 84, 63
1, 87700, Note_on_c, 0, 83, 79
1, 87707, Note_off_c, 0, 77, 36
1, 87711, Control_c, 0, 67, 29
1, 87742, Control_c, 0, 67, 28
1, 87757, Control_c, 0, 67, 29
1, 87764, Note_on_c, 0, 84, 65
1, 87769, Note_off_c, 0, 83, 64
1, 87812, Note_on_c, 0, 77, 72
1, 87816, Control_c, 0, 67, 29
1, 87852, Note_off_c, 0, 84, 60
1, 87879, Note_on_c, 0, 82, 78
1, 87883, Note_on_c, 0, 74, 68
1, 87888, Note_on_c, 0, 70, 68
1, 87890, Control_c, 0, 67, 29
1, 87905, Control_c, 0, 67, 28
1, 87915, Note_off_c, 0, 70, 66
1, 87915, Note_off_c, 0, 74, 63
1, 87931, Note_off_c, 0, 82, 66
1, 87946, Note_on_c, 0, 81, 70
1, 87971, Note_off_c, 0, 77, 33
1, 88000, Note_on_c, 0, 82, 77
1, 88022, Note_off_c, 0, 81, 60
1, 88023, Control_c, 0, 67, 29
1, 88066, Note_on_c, 0, 77, 77
1, 88074, Note_off_c, 0, 82, 63
1, 88114, Note_on_c, 0, 84, 79
1, 88135, Note_on_c, 0, 75, 75
1, 88137, Note_on_c, 0, 65, 67
1, 88156, Control_c, 0, 67, 28
1, 88169, Note_off_c, 0, 65, 69
1, 88172, Note_off_c, 0, 75, 54
1, 88177, Note_off_c, 0, 84, 64
1, 88177, Note_on_c, 0, 83, 82
1, 88208, Control_c, 0, 67, 29
1, 88236, Note_off_c, 0, 77, 50
1, 88247, Note_on_c, 0, 84, 76
1, 88271, Note_off_c, 0, 83, 59
1, 88306, Note_on_c, 0, 77, 68
1, 88312, Control_c, 0, 67, 29
1, 88371, Note_off_c, 0, 84, 60
1, 88371, Note_on_c, 0, 70, 70
1, 88371, Note_on_c, 0, 74, 71
1, 88377, Note_on_c, 0, 82, 72
1, 88395, Note_off_c, 0, 70, 68
1, 88398, Note_off_c, 0, 74, 65
1, 88414, Note_off_c, 0, 77, 50
1, 88422, Note_on_c, 0, 81, 76
1, 88422, Note_off_c, 0, 82, 65
1, 88446, Control_c, 0, 67, 30
1, 88480, Note_on_c, 0, 82, 75
1, 88481, Note_off_c, 0, 81, 62
1, 88505, Control_c, 0, 67, 30
1, 88520, Control_c, 0, 67, 31
1, 88535, Control_c, 0, 67, 31
1, 88553, Note_on_c, 0, 77, 73
1, 88563, Note_off_c, 0, 82, 62
1, 88599, Note_on_c, 0, 65, 73
1, 88599, Note_on_c, 0, 84, 76
1, 88604, Note_on_c, 0, 75, 75
1, 88632, Note_off_c, 0, 75, 62
1, 88643, Note_off_c, 0, 65, 63
1, 88654, Note_off_c, 0, 84, 65
1, 88666, Note_on_c, 0, 83, 75
1, 88701, Note_off_c, 0, 77, 62
1, 88718, Note_on_c, 0, 84, 77
1, 88738, Note_off_c, 0, 83, 64
1, 88743, Control_c, 0, 67, 31
1, 88757, Control_c, 0, 67, 30
1, 88762, Note_on_c, 0, 77, 76
1, 88772, Control_c, 0, 67, 30
1, 88801, Control_c, 0, 67, 29
1, 88814, Note_off_c, 0, 84, 62
1, 88831, Control_c, 0, 67, 29
1, 88841, Note_on_c, 0, 82, 82
1, 88843, Note_on_c, 0, 70, 72
1, 88854, Note_off_c, 0, 77, 63
1, 88875, Control_c, 0, 67, 28
1, 88879, Note_off_c, 0, 82, 65
1, 88889, Note_off_c, 0, 70, 59
1, 88895, Note_on_c, 0, 74, 74
1, 88964, Note_on_c, 0, 70, 72
1, 88968, Note_off_c, 0, 74, 64
1, 89002, Control_c, 0, 67, 29
1, 89020, Note_off_c, 0, 70, 62
1, 89021, Note_on_c, 0, 74, 68
1, 89088, Note_on_c, 0, 70, 68
1, 89090, Control_c, 0, 67, 29
1, 89098, Note_off_c, 0, 74, 63
1, 89099, Note_on_c, 0, 86, 81
1, 89101, Note_on_c, 0, 82, 81
1, 89105, Control_c, 0, 67, 30
1, 89120, Control_c, 0, 67, 30
1, 89145, Note_off_c, 0, 70, 63
1, 89146, Note_off_c, 0, 82, 63
1, 89153, Note_on_c, 0, 74, 64
1, 89154, Note_off_c, 0, 86, 63
1, 89164, Control_c, 0, 67, 31
1, 89179, Control_c, 0, 67, 31
1, 89212, Note_on_c, 0, 70, 64
1, 89212, Note_off_c, 0, 74, 64
1, 89253, Control_c, 0, 67, 32
1, 89268, Control_c, 0, 67, 32
1, 89274, Note_off_c, 0, 70, 63
1, 89279, Note_on_c, 0, 74, 67
1, 89298, Control_c, 0, 67, 33
1, 89328, Control_c, 0, 67, 33
1, 89343, Control_c, 0, 67, 34
1, 89355, Note_off_c, 0, 74, 63
1, 89357, Note_on_c, 0, 70, 63
1, 89361, Note_on_c, 0, 89, 78
1, 89368, Note_on_c, 0, 86, 70
1, 89400, Note_off_c, 0, 86, 65
1, 89417, Note_off_c, 0, 70, 62
1, 89417, Control_c, 0, 67, 34
1, 89423, Note_on_c, 0, 74, 65
1, 89431, Note_off_c, 0, 89, 65
1, 89447, Control_c, 0, 67, 35
1, 89492, Note_off_c, 0, 74, 61
1, 89494, Note_on_c, 0, 70, 58
1, 89554, Note_off_c, 0, 70, 62
1, 89554, Note_on_c, 0, 74, 59
1, 89620, Note_on_c, 0, 86, 60
1, 89624, Note_off_c, 0, 74, 64
1, 89626, Note_on_c, 0, 70, 52
1, 89626, Note_on_c, 0, 82, 64
1, 89656, Note_off_c, 0, 86, 62
1, 89667, Note_off_c, 0, 82, 64
1, 89671, Note_off_c, 0, 70, 61
1, 89680, Note_on_c, 0, 74, 59
1, 89706, Control_c, 0, 67, 35
1, 89736, Control_c, 0, 67, 36
1, 89749, Note_off_c, 0, 74, 61
1, 89751, Control_c, 0, 67, 36
1, 89760, Note_on_c, 0, 70, 59
1, 89806, Note_off_c, 0, 70, 59
1, 89818, Note_on_c, 0, 74, 51
1, 89890, Note_on_c, 0, 89, 70
1, 89896, Note_on_c, 0, 86, 67
1, 89901, Note_on_c, 0, 70, 64
1, 89903, Note_off_c, 0, 74, 58
1, 89942, Note_off_c, 0, 86, 60
1, 89965, Note_off_c, 0, 89, 61
1, 89972, Note_off_c, 0, 70, 56
1, 89972, Control_c, 0, 67, 37
1, 89987, Control_c, 0, 67, 37
1, 90091, Control_c, 0, 67, 38
1, 90166, Control_c, 0, 67, 38
1, 90180, Control_c, 0, 67, 39
1, 90195, Control_c, 0, 67, 40
1, 90210, Control_c, 0, 67, 41
1, 90285, Control_c, 0, 67, 41
1, 90300, Control_c, 0, 67, 42
1, 90315, Control_c, 0, 67, 43
1, 90329, Control_c, 0, 67, 44
1, 90344, Control_c, 0, 67, 44
1, 90373, Control_c, 0, 67, 45
1, 90388, Control_c, 0, 67, 46
1, 90403, Control_c, 0, 67, 47
1, 90418, Control_c, 0, 67, 48
1, 90440, Note_on_c, 0, 86, 51
1, 90455, Control_c, 0, 67, 48
1, 90460, Note_on_c, 0, 82, 44
1, 90469, Note_on_c, 0, 74, 38
1, 90470, Control_c, 0, 67, 49
1, 90476, Note_on_c, 0, 70, 42
1, 90485, Control_c, 0, 67, 50
1, 90499, Control_c, 0, 67, 51
1, 90506, Note_off_c, 0, 82, 60
1, 90514, Control_c, 0, 67, 52
1, 90531, Note_off_c, 0, 70, 57
1, 90532, Note_off_c, 0, 74, 57
1, 90541, Note_off_c, 0, 86, 59
1, 90544, Control_c, 0, 67, 53
1, 90573, Control_c, 0, 67, 54
1, 90588, Control_c, 0, 67, 55
1, 90603, Control_c, 0, 67, 56
1, 90633, Control_c, 0, 67, 57
1, 90662, Control_c, 0, 67, 57
1, 90677, Control_c, 0, 67, 58
1, 90692, Control_c, 0, 67, 58
1, 90707, Control_c, 0, 67, 59
1, 90722, Control_c, 0, 67, 59
1, 90780, Control_c, 0, 67, 60
1, 90795, Control_c, 0, 67, 61
1, 90810, Control_c, 0, 67, 61
1, 91069, Note_on_c, 0, 82, 29
1, 91073, Note_on_c, 0, 70, 36
1, 91074, Note_on_c, 0, 74, 30
1, 91074, Note_on_c, 0, 77, 29
1, 91108, Control_c, 0, 67, 62
1, 91122, Control_c, 0, 67, 63
1, 91137, Control_c, 0, 67, 64
1, 91152, Control_c, 0, 67, 65
1, 91162, Note_off_c, 0, 82, 50
1, 91167, Control_c, 0, 67, 66
1, 91176, Note_off_c, 0, 77, 55
1, 91182, Control_c, 0, 67, 67
1, 91203, Control_c, 0, 67, 69
1, 91207, Note_off_c, 0, 74, 38
1, 91218, Control_c, 0, 67, 72
1, 91232, Note_off_c, 0, 70, 38
1, 91233, Control_c, 0, 67, 75
1, 91248, Control_c, 0, 67, 76
1, 91277, Control_c, 0, 67, 77
1, 91292, Control_c, 0, 67, 78
1, 91307, Control_c, 0, 67, 81
1, 91322, Control_c, 0, 67, 83
1, 91367, Control_c, 0, 67, 84
1, 91382, Control_c, 0, 67, 85
1, 91396, Control_c, 0, 67, 87
1, 91411, Control_c, 0, 67, 88
1, 91470, Control_c, 0, 67, 88
1, 91677, Control_c, 0, 67, 88
1, 91826, Control_c, 0, 67, 87
1, 92197, Note_on_c, 0, 65, 62
1, 92225, Note_on_c, 0, 46, 30
1, 92230, Note_on_c, 0, 62, 43
1, 92237, Note_on_c, 0, 34, 40
1, 92249, Control_c, 0, 67, 87
1, 92323, Control_c, 0, 67, 86
1, 92338, Control_c, 0, 67, 86
1, 92352, Control_c, 0, 67, 85
1, 92367, Control_c, 0, 64, 8
1, 92382, Control_c, 0, 64, 20
1, 92397, Control_c, 0, 64, 28
1, 92412, Control_c, 0, 64, 37
1, 92426, Control_c, 0, 64, 48
1, 92426, Control_c, 0, 67, 85
1, 92441, Control_c, 0, 64, 59
1, 92441, Control_c, 0, 67, 84
1, 92456, Control_c, 0, 64, 65
1, 92471, Control_c, 0, 64, 67
1, 92486, Control_c, 0, 67, 84
1, 92500, Control_c, 0, 64, 68
1, 92515, Control_c, 0, 64, 69
1, 92531, Control_c, 0, 64, 71
1, 92546, Control_c, 0, 64, 73
1, 92561, Control_c, 0, 64, 74
1, 92575, Control_c, 0, 64, 75
1, 92590, Control_c, 0, 64, 77
1, 92591, Note_off_c, 0, 46, 44
1, 92603, Note_off_c, 0, 62, 32
1, 92605, Control_c, 0, 64, 81
1, 92620, Control_c, 0, 64, 82
1, 92664, Control_c, 0, 64, 83
1, 92679, Control_c, 0, 64, 86
1, 92702, Control_c, 0, 64, 89
1, 92717, Control_c, 0, 64, 90
1, 92717, Control_c, 0, 67, 84
1, 92731, Control_c, 0, 64, 90
1, 92746, Control_c, 0, 64, 91
1, 92761, Control_c, 0, 64, 92
1, 92775, Control_c, 0, 64, 95
1, 92790, Control_c, 0, 64, 101
1, 92805, Control_c, 0, 64, 108
1, 92820, Control_c, 0, 64, 113
1, 92820, Control_c, 0, 67, 85
1, 92835, Control_c, 0, 64, 115
1, 92835, Control_c, 0, 67, 85
1, 92849, Control_c, 0, 64, 117
1, 92863, Note_off_c, 0, 65, 51
1, 92864, Control_c, 0, 64, 119
1, 92879, Control_c, 0, 64, 127
1, 92879, Control_c, 0, 67, 86
1, 92894, Control_c, 0, 67, 87
1, 92909, Control_c, 0, 67, 88
1, 92968, Control_c, 0, 67, 88
1, 92983, Control_c, 0, 67, 89
1, 93027, Control_c, 0, 67, 89
1, 93042, Control_c, 0, 67, 90
1, 93072, Control_c, 0, 67, 91
1, 93087, Control_c, 0, 67, 92
1, 93102, Control_c, 0, 67, 93
1, 93116, Control_c, 0, 67, 94
1, 93131, Control_c, 0, 67, 94
1, 93146, Control_c, 0, 67, 95
1, 93161, Control_c, 0, 67, 97
1, 93175, Control_c, 0, 67, 98
1, 93190, Control_c, 0, 67, 98
1, 93205, Control_c, 0, 67, 99
1, 93220, Control_c, 0, 67, 101
1, 93235, Control_c, 0, 67, 103
1, 93249, Control_c, 0, 67, 103
1, 93264, Control_c, 0, 67, 104
1, 93293, Control_c, 0, 67, 104
1, 93307, Note_on_c, 0, 66, 47
1, 93308, Control_c, 0, 64, 107
1, 93308, Control_c, 0, 67, 105
1, 93325, Control_c, 0, 64, 87
1, 93325, Control_c, 0, 67, 106
1, 93327, Note_on_c, 0, 60, 37
1, 93334, Note_on_c, 0, 32, 35
1, 93337, Note_on_c, 0, 44, 27
1, 93340, Control_c, 0, 64, 74
1, 93340, Control_c, 0, 67, 108
1, 93354, Control_c, 0, 64, 67
1, 93354, Control_c, 0, 67, 109
1, 93369, Control_c, 0, 64, 62
1, 93369, Control_c, 0, 67, 110
1, 93384, Control_c, 0, 64, 55
1, 93384, Control_c, 0, 67, 111
1, 93392, Note_off_c, 0, 34, 40
1, 93398, Control_c, 0, 64, 40
1, 93398, Control_c, 0, 67, 112
1, 93413, Control_c, 0, 64, 18
1, 93413, Control_c, 0, 67, 114
1, 93428, Control_c, 0, 64, 0
1, 93428, Control_c, 0, 67, 117
1, 93451, Control_c, 0, 67, 119
1, 93465, Control_c, 0, 67, 121
1, 93480, Control_c, 0, 67, 122
1, 93495, Control_c, 0, 67, 124
1, 93510, Control_c, 0, 67, 127
1, 93584, Control_c, 0, 64, 24
1, 93598, Control_c, 0, 64, 36
1, 93613, Control_c, 0, 64, 46
1, 93628, Control_c, 0, 64, 57
1, 93643, Control_c, 0, 64, 66
1, 93658, Control_c, 0, 64, 75
1, 93672, Control_c, 0, 64, 78
1, 93731, Control_c, 0, 64, 79
1, 93746, Control_c, 0, 64, 81
1, 93761, Control_c, 0, 64, 84
1, 93776, Control_c, 0, 64, 87
1, 93779, Note_off_c, 0, 60, 34
1, 93791, Control_c, 0, 64, 89
1, 93802, Note_off_c, 0, 44, 40
1, 93805, Control_c, 0, 64, 90
1, 93820, Control_c, 0, 64, 91
1, 93835, Control_c, 0, 64, 93
1, 93850, Control_c, 0, 64, 95
1, 93865, Control_c, 0, 64, 98
1, 93867, Note_off_c, 0, 32, 37
1, 93880, Control_c, 0, 64, 101
1, 93895, Control_c, 0, 64, 105
1, 93910, Control_c, 0, 64, 109
1, 93924, Control_c, 0, 64, 113
1, 93939, Control_c, 0, 64, 115
1, 93953, Note_off_c, 0, 66, 40
1, 93969, Control_c, 0, 64, 119
1, 93984, Control_c, 0, 64, 127
1, 94452, Control_c, 0, 64, 113
1, 94467, Control_c, 0, 64, 105
1, 94482, Control_c, 0, 64, 96
1, 94496, Control_c, 0, 64, 88
1, 94506, Note_on_c, 0, 59, 29
1, 94508, Note_on_c, 0, 67, 36
1, 94511, Control_c, 0, 64, 79
1, 94526, Control_c, 0, 64, 72
1, 94541, Control_c, 0, 64, 66
1, 94542, Note_on_c, 0, 31, 28
1, 94542, Note_on_c, 0, 43, 21
1, 94555, Control_c, 0, 64, 60
1, 94570, Control_c, 0, 64, 52
1, 94585, Control_c, 0, 64, 41
1, 94600, Control_c, 0, 64, 28
1, 94615, Control_c, 0, 64, 17
1, 94629, Control_c, 0, 64, 12
1, 94644, Control_c, 0, 64, 0
1, 96111, Control_c, 0, 67, 126
1, 96126, Control_c, 0, 67, 124
1, 96141, Control_c, 0, 67, 122
1, 96156, Control_c, 0, 67, 121
1, 96171, Control_c, 0, 67, 120
1, 96200, Control_c, 0, 67, 120
1, 96215, Control_c, 0, 67, 119
1, 96245, Control_c, 0, 67, 118
1, 96260, Control_c, 0, 67, 118
1, 96304, Control_c, 0, 67, 117
1, 96318, Control_c, 0, 67, 116
1, 96333, Control_c, 0, 67, 114
1, 96348, Control_c, 0, 67, 113
1, 96363, Control_c, 0, 67, 113
1, 96378, Control_c, 0, 67, 112
1, 96393, Control_c, 0, 67, 111
1, 96408, Control_c, 0, 67, 110
1, 96445, Control_c, 0, 67, 109
1, 96460, Control_c, 0, 67, 109
1, 96474, Control_c, 0, 67, 107
1, 96489, Control_c, 0, 67, 104
1, 96504, Control_c, 0, 67, 101
1, 96520, Control_c, 0, 67, 100
1, 96535, Control_c, 0, 67, 100
1, 96549, Control_c, 0, 67, 99
1, 96594, Control_c, 0, 67, 98
1, 96609, Control_c, 0, 67, 97
1, 96623, Control_c, 0, 67, 96
1, 96683, Control_c, 0, 67, 96
1, 96691, Note_off_c, 0, 31, 40
1, 96712, Control_c, 0, 67, 94
1, 96724, Note_off_c, 0, 59, 45
1, 96727, Control_c, 0, 67, 92
1, 96741, Control_c, 0, 67, 89
1, 96756, Control_c, 0, 67, 88
1, 96771, Control_c, 0, 67, 86
1, 96783, Note_off_c, 0, 43, 56
1, 96786, Control_c, 0, 67, 85
1, 96801, Control_c, 0, 67, 85
1, 96804, Note_off_c, 0, 67, 57
1, 96816, Control_c, 0, 67, 83
1, 96831, Control_c, 0, 67, 81
1, 96846, Control_c, 0, 67, 78
1, 96861, Control_c, 0, 67, 77
1, 96934, Control_c, 0, 67, 78
1, 96964, Control_c, 0, 67, 79
1, 97008, Control_c, 0, 67, 79
1, 97038, Control_c, 0, 67, 80
1, 97053, Control_c, 0, 67, 80
1, 97068, Control_c, 0, 67, 80
1, 97097, Control_c, 0, 67, 79
1, 97140, Note_on_c, 0, 79, 64
1, 97171, Control_c, 0, 67, 79
1, 97190, Note_on_c, 0, 76, 78
1, 97194, Control_c, 0, 67, 78
1, 97195, Note_on_c, 0, 64, 53
1, 97200, Note_on_c, 0, 60, 67
1, 97209, Control_c, 0, 67, 79
1, 97210, Note_off_c, 0, 76, 69
1, 97215, Note_off_c, 0, 79, 61
1, 97223, Control_c, 0, 67, 80
1, 97229, Note_off_c, 0, 64, 64
1, 97238, Control_c, 0, 67, 80
1, 97253, Control_c, 0, 67, 80
1, 97267, Control_c, 0, 67, 79
1, 97282, Control_c, 0, 67, 78
1, 97312, Control_c, 0, 67, 79
1, 97358, Control_c, 0, 67, 78
1, 97372, Control_c, 0, 67, 77
1, 97387, Control_c, 0, 67, 76
1, 97394, Note_on_c, 0, 79, 65
1, 97417, Control_c, 0, 67, 76
1, 97436, Note_on_c, 0, 74, 77
1, 97446, Note_on_c, 0, 55, 57
1, 97446, Control_c, 0, 67, 75
1, 97453, Note_on_c, 0, 62, 60
1, 97461, Control_c, 0, 67, 74
1, 97468, Note_off_c, 0, 79, 61
1, 97471, Note_off_c, 0, 74, 67
1, 97474, Note_off_c, 0, 60, 64
1, 97476, Control_c, 0, 67, 74
1, 97491, Control_c, 0, 67, 74
1, 97506, Control_c, 0, 67, 75
1, 97520, Control_c, 0, 67, 74
1, 97535, Control_c, 0, 67, 74
1, 97564, Control_c, 0, 67, 73
1, 97579, Control_c, 0, 67, 74
1, 97609, Control_c, 0, 67, 74
1, 97624, Control_c, 0, 67, 74
1, 97639, Control_c, 0, 67, 73
1, 97654, Control_c, 0, 67, 73
1, 97656, Note_on_c, 0, 79, 68
1, 97683, Control_c, 0, 67, 73
1, 97689, Note_on_c, 0, 72, 75
1, 97696, Note_off_c, 0, 62, 64
1, 97698, Control_c, 0, 67, 73
1, 97705, Note_on_c, 0, 60, 64
1, 97710, Note_off_c, 0, 72, 71
1, 97713, Control_c, 0, 67, 72
1, 97715, Note_on_c, 0, 52, 64
1, 97728, Note_off_c, 0, 55, 63
1, 97728, Control_c, 0, 67, 70
1, 97731, Note_off_c, 0, 79, 64
1, 97817, Control_c, 0, 67, 70
1, 97831, Control_c, 0, 67, 69
1, 97846, Control_c, 0, 67, 70
1, 97861, Control_c, 0, 67, 70
1, 97905, Control_c, 0, 67, 70
1, 97920, Control_c, 0, 67, 69
1, 97925, Note_on_c, 0, 79, 69
1, 97963, Note_on_c, 0, 67, 78
1, 97984, Note_off_c, 0, 67, 71
1, 97984, Note_off_c, 0, 60, 65
1, 97987, Note_off_c, 0, 52, 66
1, 97987, Control_c, 0, 67, 69
1, 98002, Control_c, 0, 67, 67
1, 98015, Note_off_c, 0, 79, 61
1, 98017, Control_c, 0, 67, 66
1, 98032, Control_c, 0, 67, 65
1, 98047, Control_c, 0, 67, 65
1, 98091, Control_c, 0, 67, 65
1, 98106, Control_c, 0, 67, 66
1, 98122, Control_c, 0, 67, 66
1, 98137, Control_c, 0, 67, 67
1, 98151, Control_c, 0, 67, 67
1, 98160, Note_on_c, 0, 79, 62
1, 98181, Control_c, 0, 67, 68
1, 98202, Note_on_c, 0, 76, 83
1, 98208, Note_on_c, 0, 64, 69
1, 98211, Control_c, 0, 67, 69
1, 98220, Note_on_c, 0, 60, 69
1, 98230, Note_off_c, 0, 79, 58
1, 98238, Note_off_c, 0, 76, 69
1, 98241, Control_c, 0, 67, 69
1, 98311, Note_off_c, 0, 64, 52
1, 98314, Control_c, 0, 67, 70
1, 98426, Note_on_c, 0, 79, 64
1, 98461, Note_on_c, 0, 74, 77
1, 98476, Note_on_c, 0, 55, 62
1, 98483, Note_on_c, 0, 62, 68
1, 98492, Control_c, 0, 67, 70
1, 98499, Note_off_c, 0, 74, 67
1, 98503, Note_off_c, 0, 79, 63
1, 98504, Note_off_c, 0, 60, 64
1, 98507, Control_c, 0, 67, 69
1, 98625, Control_c, 0, 67, 70
1, 98640, Control_c, 0, 67, 70
1, 98697, Note_on_c, 0, 79, 71
1, 98721, Control_c, 0, 67, 70
1, 98750, Note_on_c, 0, 60, 75
1, 98751, Note_off_c, 0, 62, 66
1, 98753, Note_on_c, 0, 72, 46
1, 98757, Note_on_c, 0, 52, 67
1, 98763, Note_off_c, 0, 55, 64
1, 98776, Note_off_c, 0, 79, 61
1, 98780, Note_off_c, 0, 72, 57
1, 98780, Control_c, 0, 67, 69
1, 98810, Control_c, 0, 67, 69
1, 98855, Control_c, 0, 67, 69
1, 98956, Note_on_c, 0, 79, 68
1, 99007, Note_on_c, 0, 67, 79
1, 99015, Note_off_c, 0, 52, 63
1, 99031, Note_off_c, 0, 67, 67
1, 99057, Note_off_c, 0, 79, 64
1, 99059, Note_off_c, 0, 60, 63
1, 99092, Control_c, 0, 67, 70
1, 99107, Control_c, 0, 67, 71
1, 99122, Control_c, 0, 67, 71
1, 99151, Control_c, 0, 67, 70
1, 99166, Control_c, 0, 67, 70
1, 99206, Note_on_c, 0, 60, 62
1, 99207, Note_on_c, 0, 84, 73
1, 99225, Control_c, 0, 67, 69
1, 99240, Note_on_c, 0, 79, 78
1, 99240, Control_c, 0, 67, 69
1, 99254, Note_on_c, 0, 64, 75
1, 99255, Control_c, 0, 67, 68
1, 99270, Control_c, 0, 67, 68
1, 99278, Note_off_c, 0, 79, 64
1, 99281, Note_off_c, 0, 60, 64
1, 99284, Note_off_c, 0, 84, 63
1, 99299, Control_c, 0, 67, 68
1, 99304, Note_off_c, 0, 64, 61
1, 99344, Control_c, 0, 67, 68
1, 99388, Control_c, 0, 67, 68
1, 99403, Control_c, 0, 67, 69
1, 99418, Control_c, 0, 67, 69
1, 99455, Control_c, 0, 67, 69
1, 99460, Note_on_c, 0, 60, 60
1, 99467, Note_on_c, 0, 84, 54
1, 99491, Note_on_c, 0, 81, 85
1, 99502, Note_on_c, 0, 65, 76
1, 99519, Note_off_c, 0, 60, 65
1, 99529, Note_off_c, 0, 81, 64
1, 99536, Note_off_c, 0, 84, 64
1, 99546, Note_off_c, 0, 65, 65
1, 99588, Control_c, 0, 67, 69
1, 99618, Control_c, 0, 67, 70
1, 99677, Control_c, 0, 67, 71
1, 99692, Control_c, 0, 67, 71
1, 99705, Note_on_c, 0, 60, 66
1, 99710, Note_on_c, 0, 84, 70
1, 99750, Note_on_c, 0, 67, 80
1, 99750, Note_on_c, 0, 82, 80
1, 99774, Note_off_c, 0, 84, 62
1, 99776, Note_off_c, 0, 60, 65
1, 99796, Note_off_c, 0, 82, 65
1, 99797, Note_off_c, 0, 67, 62
1, 99797, Control_c, 0, 67, 72
1, 99915, Control_c, 0, 67, 72
1, 99945, Control_c, 0, 67, 73
1, 99966, Note_on_c, 0, 84, 65
1, 99975, Note_on_c, 0, 60, 61
1, 99989, Control_c, 0, 67, 73
1, 99997, Note_on_c, 0, 69, 75
1, 100000, Note_on_c, 0, 81, 81
1, 100038, Note_off_c, 0, 84, 64
1, 100041, Note_off_c, 0, 60, 65
1, 100045, Note_off_c, 0, 81, 63
1, 100047, Note_off_c, 0, 69, 66
1, 100063, Control_c, 0, 67, 74
1, 100078, Control_c, 0, 67, 74
1, 100107, Control_c, 0, 67, 75
1, 100122, Control_c, 0, 67, 75
1, 100137, Control_c, 0, 67, 76
1, 100166, Control_c, 0, 67, 77
1, 100208, Note_on_c, 0, 84, 60
1, 100239, Note_on_c, 0, 60, 63
1, 100259, Note_on_c, 0, 70, 66
1, 100260, Note_on_c, 0, 79, 72
1, 100299, Note_off_c, 0, 84, 58
1, 100306, Note_off_c, 0, 79, 60
1, 100316, Note_off_c, 0, 70, 58
1, 100331, Note_off_c, 0, 60, 52
1, 100352, Control_c, 0, 67, 77
1, 100381, Control_c, 0, 67, 78
1, 100441, Control_c, 0, 67, 79
1, 100484, Note_on_c, 0, 84, 67
1, 100485, Control_c, 0, 67, 79
1, 100501, Note_on_c, 0, 70, 66
1, 100519, Note_on_c, 0, 76, 71
1, 100524, Note_on_c, 0, 60, 55
1, 100546, Note_off_c, 0, 84, 63
1, 100559, Note_off_c, 0, 70, 62
1, 100563, Note_off_c, 0, 76, 64
1, 100564, Note_off_c, 0, 60, 65
1, 100689, Note_on_c, 0, 84, 66
1, 100708, Control_c, 0, 67, 80
1, 100721, Poly_aftertouch_c, 0, 60, 127
1, 100723, Control_c, 0, 67, 80
1, 100738, Control_c, 0, 67, 81
1, 100748, Note_off_c, 0, 84, 64
1, 100753, Control_c, 0, 67, 82
1, 100754, Note_on_c, 0, 69, 73
1, 100760, Note_on_c, 0, 77, 75
1, 100763, Note_on_c, 0, 65, 71
1, 100768, Control_c, 0, 67, 84
1, 100769, Poly_aftertouch_c, 0, 60, 0
1, 100782, Control_c, 0, 67, 86
1, 100784, Note_off_c, 0, 69, 65
1, 100797, Control_c, 0, 67, 89
1, 100809, Note_off_c, 0, 65, 58
1, 100812, Control_c, 0, 67, 91
1, 100827, Note_on_c, 0, 84, 70
1, 100827, Control_c, 0, 67, 93
1, 100842, Control_c, 0, 67, 95
1, 100843, Note_off_c, 0, 77, 61
1, 100856, Control_c, 0, 67, 97
1, 100871, Control_c, 0, 67, 98
1, 100882, Note_off_c, 0, 84, 65
1, 100884, Note_on_c, 0, 86, 81
1, 100886, Control_c, 0, 67, 98
1, 100901, Control_c, 0, 67, 100
1, 100915, Control_c, 0, 67, 103
1, 100938, Control_c, 0, 67, 106
1, 100952, Control_c, 0, 67, 108
1, 100955, Note_on_c, 0, 84, 66
1, 100967, Control_c, 0, 67, 110
1, 100982, Control_c, 0, 67, 111
1, 100995, Note_off_c, 0, 86, 57
1, 100996, Control_c, 0, 67, 113
1, 101010, Note_on_c, 0, 82, 79
1, 101011, Control_c, 0, 67, 114
1, 101026, Control_c, 0, 67, 115
1, 101041, Control_c, 0, 67, 117
1, 101043, Note_off_c, 0, 84, 63
1, 101056, Control_c, 0, 67, 119
1, 101070, Control_c, 0, 67, 122
1, 101078, Note_on_c, 0, 81, 80
1, 101085, Control_c, 0, 67, 124
1, 101100, Control_c, 0, 67, 127
1, 101107, Note_off_c, 0, 82, 64
1, 101129, Note_off_c, 0, 81, 63
1, 101132, Note_on_c, 0, 79, 68
1, 101176, Note_off_c, 0, 79, 62
1, 101189, Note_on_c, 0, 77, 72
1, 101225, Note_on_c, 0, 79, 12
1, 101225, Note_off_c, 0, 77, 62
1, 101253, Note_on_c, 0, 76, 75
1, 101258, Note_off_c, 0, 79, 42
1, 101260, Note_on_c, 0, 70, 63
1, 101261, Note_on_c, 0, 60, 59
1, 101300, Note_off_c, 0, 76, 60
1, 101322, Note_on_c, 0, 79, 74
1, 101380, Note_on_c, 0, 82, 76
1, 101397, Note_off_c, 0, 79, 61
1, 101436, Note_off_c, 0, 82, 65
1, 101436, Note_on_c, 0, 86, 74
1, 101455, Note_off_c, 0, 60, 31
1, 101497, Note_off_c, 0, 70, 39
1, 101512, Note_on_c, 0, 84, 70
1, 101545, Note_off_c, 0, 86, 59
1, 101561, Note_on_c, 0, 82, 77
1, 101582, Note_off_c, 0, 84, 62
1, 101627, Note_on_c, 0, 81, 76
1, 101660, Note_off_c, 0, 82, 63
1, 101664, Control_c, 0, 67, 127
1, 101693, Note_off_c, 0, 81, 62
1, 101694, Note_on_c, 0, 79, 68
1, 101731, Note_on_c, 0, 62, 55
1, 101761, Note_off_c, 0, 79, 50
1, 101764, Note_on_c, 0, 77, 71
1, 101775, Note_on_c, 0, 65, 56
1, 101813, Note_off_c, 0, 77, 61
1, 101815, Note_on_c, 0, 69, 46
1, 101819, Control_c, 0, 67, 126
1, 101828, Note_on_c, 0, 76, 79
1, 101885, Note_on_c, 0, 77, 77
1, 101895, Note_off_c, 0, 76, 63
1, 101908, Control_c, 0, 67, 127
1, 101952, Note_on_c, 0, 79, 61
1, 101967, Note_off_c, 0, 77, 60
1, 101996, Note_on_c, 0, 81, 77
1, 102003, Note_off_c, 0, 62, 63
1, 102031, Note_off_c, 0, 65, 25
1, 102041, Control_c, 0, 67, 126
1, 102050, Note_off_c, 0, 69, 40
1, 102055, Note_on_c, 0, 77, 64
1, 102056, Control_c, 0, 67, 126
1, 102071, Control_c, 0, 67, 125
1, 102080, Note_off_c, 0, 81, 58
1, 102083, Note_off_c, 0, 79, 27
1, 102113, Note_on_c, 0, 76, 70
1, 102137, Note_off_c, 0, 77, 63
1, 102146, Control_c, 0, 67, 125
1, 102151, Note_off_c, 0, 76, 60
1, 102177, Note_on_c, 0, 74, 73
1, 102205, Control_c, 0, 67, 124
1, 102221, Note_off_c, 0, 74, 65
1, 102230, Note_on_c, 0, 73, 72
1, 102235, Control_c, 0, 67, 123
1, 102258, Note_on_c, 0, 57, 55
1, 102258, Note_on_c, 0, 67, 50
1, 102259, Note_off_c, 0, 73, 64
1, 102301, Note_on_c, 0, 76, 73
1, 102313, Note_off_c, 0, 67, 0
1, 102313, Note_on_c, 0, 67, 24
1, 102354, Note_on_c, 0, 79, 66
1, 102367, Note_off_c, 0, 76, 65
1, 102400, Note_off_c, 0, 79, 63
1, 102407, Note_on_c, 0, 82, 74
1, 102450, Control_c, 0, 67, 123
1, 102465, Control_c, 0, 67, 122
1, 102487, Note_on_c, 0, 81, 71
1, 102494, Control_c, 0, 67, 121
1, 102509, Control_c, 0, 67, 121
1, 102532, Note_off_c, 0, 82, 55
1, 102536, Note_on_c, 0, 79, 68
1, 102539, Control_c, 0, 67, 120
1, 102544, Note_off_c, 0, 57, 59
1, 102553, Control_c, 0, 67, 120
1, 102555, Note_off_c, 0, 81, 51
1, 102557, Note_off_c, 0, 67, 44
1, 102568, Control_c, 0, 67, 119
1, 102583, Control_c, 0, 67, 118
1, 102598, Control_c, 0, 67, 118
1, 102611, Note_on_c, 0, 77, 68
1, 102613, Control_c, 0, 67, 116
1, 102627, Control_c, 0, 67, 115
1, 102629, Note_off_c, 0, 79, 62
1, 102642, Control_c, 0, 67, 115
1, 102643, Note_off_c, 0, 77, 62
1, 102657, Control_c, 0, 67, 114
1, 102658, Note_on_c, 0, 76, 63
1, 102672, Control_c, 0, 67, 113
1, 102701, Control_c, 0, 67, 112
1, 102716, Control_c, 0, 67, 111
1, 102726, Note_on_c, 0, 74, 71
1, 102727, Note_off_c, 0, 76, 65
1, 102731, Control_c, 0, 67, 109
1, 102740, Note_on_c, 0, 65, 43
1, 102745, Note_on_c, 0, 58, 45
1, 102746, Control_c, 0, 67, 106
1, 102760, Control_c, 0, 67, 103
1, 102775, Control_c, 0, 67, 102
1, 102788, Note_on_c, 0, 75, 67
1, 102792, Note_off_c, 0, 65, 0
1, 102792, Note_on_c, 0, 65, 12
1, 102803, Note_off_c, 0, 74, 55
1, 102852, Note_on_c, 0, 77, 68
1, 102864, Control_c, 0, 67, 102
1, 102873, Note_off_c, 0, 75, 61
1, 102889, Note_off_c, 0, 77, 62
1, 102905, Note_on_c, 0, 79, 68
1, 102939, Control_c, 0, 67, 102
1, 102963, Note_off_c, 0, 58, 62
1, 102966, Note_on_c, 0, 77, 70
1, 102977, Note_off_c, 0, 65, 53
1, 103000, Note_off_c, 0, 79, 56
1, 103025, Note_on_c, 0, 74, 70
1, 103028, Control_c, 0, 67, 101
1, 103035, Note_off_c, 0, 77, 63
1, 103067, Note_off_c, 0, 74, 67
1, 103086, Note_on_c, 0, 72, 62
1, 103114, Note_off_c, 0, 72, 63
1, 103144, Note_on_c, 0, 70, 76
1, 103147, Control_c, 0, 67, 102
1, 103162, Control_c, 0, 67, 103
1, 103183, Control_c, 0, 67, 104
1, 103185, Note_off_c, 0, 70, 59
1, 103198, Control_c, 0, 67, 105
1, 103213, Control_c, 0, 67, 106
1, 103219, Note_on_c, 0, 63, 58
1, 103220, Note_on_c, 0, 69, 72
1, 103228, Control_c, 0, 67, 106
1, 103234, Note_on_c, 0, 53, 48
1, 103258, Control_c, 0, 67, 107
1, 103279, Note_on_c, 0, 72, 68
1, 103286, Note_off_c, 0, 69, 62
1, 103287, Control_c, 0, 67, 107
1, 103302, Control_c, 0, 67, 108
1, 103317, Control_c, 0, 67, 109
1, 103332, Control_c, 0, 67, 110
1, 103338, Note_on_c, 0, 75, 73
1, 103347, Control_c, 0, 67, 111
1, 103356, Note_off_c, 0, 72, 62
1, 103362, Control_c, 0, 67, 111
1, 103376, Control_c, 0, 67, 112
1, 103396, Note_off_c, 0, 75, 63
1, 103401, Note_on_c, 0, 79, 72
1, 103406, Control_c, 0, 67, 112
1, 103421, Control_c, 0, 67, 113
1, 103457, Note_on_c, 0, 77, 74
1, 103480, Control_c, 0, 67, 112
1, 103488, Note_off_c, 0, 63, 61
1, 103495, Control_c, 0, 67, 111
1, 103496, Note_off_c, 0, 79, 56
1, 103504, Note_off_c, 0, 53, 37
1, 103509, Control_c, 0, 67, 111
1, 103515, Note_on_c, 0, 75, 80
1, 103524, Control_c, 0, 67, 110
1, 103533, Note_off_c, 0, 77, 61
1, 103539, Control_c, 0, 67, 110
1, 103577, Note_on_c, 0, 74, 70
1, 103598, Control_c, 0, 67, 109
1, 103610, Note_off_c, 0, 75, 61
1, 103635, Note_off_c, 0, 74, 64
1, 103637, Note_on_c, 0, 72, 74
1, 103700, Note_off_c, 0, 72, 62
1, 103708, Note_on_c, 0, 70, 71
1, 103714, Note_on_c, 0, 55, 60
1, 103717, Note_on_c, 0, 62, 53
1, 103778, Note_off_c, 0, 70, 54
1, 103787, Note_on_c, 0, 69, 58
1, 103791, Note_on_c, 0, 67, 54
1, 103813, Note_off_c, 0, 67, 60
1, 103821, Note_on_c, 0, 70, 51
1, 103850, Note_off_c, 0, 69, 61
1, 103851, Control_c, 0, 67, 110
1, 103893, Note_on_c, 0, 72, 62
1, 103898, Note_off_c, 0, 70, 63
1, 103908, Note_off_c, 0, 62, 54
1, 103936, Note_off_c, 0, 55, 65
1, 103937, Note_on_c, 0, 74, 74
1, 103962, Control_c, 0, 67, 109
1, 103986, Note_off_c, 0, 72, 0
1, 103986, Note_on_c, 0, 72, 19
1, 103992, Control_c, 0, 67, 109
1, 104000, Note_on_c, 0, 70, 65
1, 104045, Note_off_c, 0, 72, 60
1, 104048, Note_off_c, 0, 74, 65
1, 104054, Note_on_c, 0, 69, 64
1, 104066, Control_c, 0, 67, 108
1, 104085, Note_off_c, 0, 69, 65
1, 104095, Note_off_c, 0, 70, 62
1, 104115, Note_on_c, 0, 67, 69
1, 104150, Note_off_c, 0, 67, 64
1, 104163, Note_on_c, 0, 66, 74
1, 104178, Note_on_c, 0, 60, 51
1, 104180, Note_on_c, 0, 50, 57
1, 104197, Note_off_c, 0, 66, 64
1, 104200, Control_c, 0, 67, 109
1, 104231, Note_on_c, 0, 69, 77
1, 104286, Note_on_c, 0, 72, 65
1, 104318, Control_c, 0, 67, 108
1, 104323, Note_off_c, 0, 69, 52
1, 104332, Control_c, 0, 67, 108
1, 104344, Note_off_c, 0, 72, 63
1, 104347, Control_c, 0, 67, 107
1, 104348, Note_on_c, 0, 75, 76
1, 104406, Control_c, 0, 67, 107
1, 104412, Note_on_c, 0, 74, 66
1, 104431, Note_off_c, 0, 60, 61
1, 104436, Control_c, 0, 67, 106
1, 104450, Control_c, 0, 67, 105
1, 104458, Note_on_c, 0, 72, 73
1, 104471, Note_off_c, 0, 50, 58
1, 104503, Note_off_c, 0, 75, 43
1, 104507, Note_off_c, 0, 74, 65
1, 104511, Control_c, 0, 67, 104
1, 104519, Note_on_c, 0, 70, 69
1, 104526, Control_c, 0, 67, 103
1, 104541, Control_c, 0, 67, 103
1, 104543, Note_off_c, 0, 72, 63
1, 104566, Note_on_c, 0, 69, 72
1, 104570, Control_c, 0, 67, 102
1, 104576, Note_off_c, 0, 70, 62
1, 104585, Control_c, 0, 67, 100
1, 104600, Control_c, 0, 67, 99
1, 104615, Control_c, 0, 67, 97
1, 104629, Control_c, 0, 67, 94
1, 104632, Note_on_c, 0, 67, 80
1, 104644, Control_c, 0, 67, 92
1, 104645, Note_on_c, 0, 51, 64
1, 104653, Note_off_c, 0, 69, 64
1, 104659, Control_c, 0, 67, 90
1, 104678, Note_off_c, 0, 67, 63
1, 104681, Control_c, 0, 67, 89
1, 104695, Note_off_c, 0, 51, 64
1, 104712, Control_c, 0, 67, 89
1, 104718, Note_on_c, 0, 55, 64
1, 104727, Control_c, 0, 67, 88
1, 104742, Control_c, 0, 67, 86
1, 104756, Control_c, 0, 67, 84
1, 104765, Note_off_c, 0, 55, 61
1, 104766, Note_on_c, 0, 51, 65
1, 104771, Control_c, 0, 67, 83
1, 104786, Control_c, 0, 67, 83
1, 104826, Note_off_c, 0, 51, 61
1, 104830, Control_c, 0, 67, 82
1, 104833, Note_on_c, 0, 55, 56
1, 104845, Control_c, 0, 67, 82
1, 104879, Note_on_c, 0, 51, 52
1, 104889, Control_c, 0, 67, 81
1, 104890, Note_on_c, 0, 82, 86
1, 104890, Note_off_c, 0, 55, 61
1, 104899, Note_on_c, 0, 70, 75
1, 104904, Control_c, 0, 67, 81
1, 104919, Control_c, 0, 67, 80
1, 104946, Note_off_c, 0, 51, 64
1, 104951, Note_on_c, 0, 55, 60
1, 104963, Control_c, 0, 67, 79
1, 105007, Note_off_c, 0, 55, 58
1, 105008, Control_c, 0, 67, 79
1, 105016, Note_on_c, 0, 51, 52
1, 105023, Control_c, 0, 67, 78
1, 105037, Control_c, 0, 67, 76
1, 105052, Control_c, 0, 67, 74
1, 105061, Note_off_c, 0, 51, 65
1, 105063, Note_on_c, 0, 55, 54
1, 105067, Control_c, 0, 67, 73
1, 105082, Control_c, 0, 67, 74
1, 105118, Note_off_c, 0, 55, 62
1, 105127, Control_c, 0, 67, 73
1, 105129, Note_on_c, 0, 51, 62
1, 105142, Control_c, 0, 67, 74
1, 105156, Control_c, 0, 67, 75
1, 105171, Control_c, 0, 67, 76
1, 105174, Note_off_c, 0, 51, 64
1, 105177, Note_on_c, 0, 55, 52
1, 105186, Control_c, 0, 67, 76
1, 105216, Control_c, 0, 67, 77
1, 105234, Note_off_c, 0, 55, 61
1, 105244, Note_on_c, 0, 51, 60
1, 105245, Control_c, 0, 67, 78
1, 105260, Control_c, 0, 67, 78
1, 105274, Control_c, 0, 67, 79
1, 105293, Note_on_c, 0, 55, 58
1, 105299, Note_off_c, 0, 51, 62
1, 105305, Control_c, 0, 67, 79
1, 105335, Control_c, 0, 67, 80
1, 105350, Control_c, 0, 67, 81
1, 105365, Control_c, 0, 67, 82
1, 105373, Note_off_c, 0, 55, 63
1, 105374, Note_on_c, 0, 51, 60
1, 105395, Note_off_c, 0, 70, 55
1, 105399, Note_on_c, 0, 69, 71
1, 105401, Note_on_c, 0, 81, 85
1, 105404, Note_off_c, 0, 82, 65
1, 105431, Control_c, 0, 67, 82
1, 105443, Note_on_c, 0, 80, 7
1, 105443, Note_off_c, 0, 51, 64
1, 105446, Control_c, 0, 67, 83
1, 105452, Note_on_c, 0, 55, 48
1, 105475, Control_c, 0, 64, 12
1, 105490, Control_c, 0, 64, 25
1, 105504, Control_c, 0, 64, 34
1, 105504, Control_c, 0, 67, 83
1, 105519, Note_off_c, 0, 55, 65
1, 105519, Control_c, 0, 64, 41
1, 105520, Note_on_c, 0, 51, 59
1, 105534, Control_c, 0, 64, 46
1, 105534, Control_c, 0, 67, 84
1, 105549, Control_c, 0, 64, 49
1, 105564, Control_c, 0, 64, 52
1, 105569, Note_off_c, 0, 81, 55
1, 105573, Note_off_c, 0, 69, 40
1, 105578, Control_c, 0, 64, 54
1, 105580, Note_off_c, 0, 51, 63
1, 105588, Note_off_c, 0, 80, 23
1, 105589, Note_on_c, 0, 55, 62
1, 105593, Control_c, 0, 64, 56
1, 105608, Control_c, 0, 64, 58
1, 105623, Control_c, 0, 64, 60
1, 105623, Control_c, 0, 67, 84
1, 105638, Control_c, 0, 64, 60
1, 105638, Control_c, 0, 67, 85
1, 105652, Control_c, 0, 64, 57
1, 105652, Control_c, 0, 67, 86
1, 105666, Note_off_c, 0, 55, 61
1, 105667, Control_c, 0, 64, 50
1, 105667, Control_c, 0, 67, 86
1, 105674, Note_on_c, 0, 79, 81
1, 105675, Note_on_c, 0, 51, 55
1, 105682, Control_c, 0, 64, 34
1, 105684, Note_on_c, 0, 67, 70
1, 105697, Control_c, 0, 64, 12
1, 105711, Control_c, 0, 64, 15
1, 105717, Note_off_c, 0, 51, 61
1, 105726, Control_c, 0, 64, 30
1, 105726, Control_c, 0, 67, 87
1, 105732, Note_on_c, 0, 55, 58
1, 105741, Control_c, 0, 64, 38
1, 105741, Control_c, 0, 67, 88
1, 105756, Control_c, 0, 64, 46
1, 105756, Control_c, 0, 67, 88
1, 105771, Control_c, 0, 64, 53
1, 105780, Note_off_c, 0, 79, 62
1, 105785, Control_c, 0, 64, 58
1, 105785, Control_c, 0, 67, 89
1, 105786, Note_off_c, 0, 67, 63
1, 105798, Note_off_c, 0, 55, 61
1, 105800, Control_c, 0, 64, 61
1, 105806, Note_on_c, 0, 51, 56
1, 105815, Control_c, 0, 64, 62
1, 105815, Control_c, 0, 67, 89
1, 105830, Control_c, 0, 67, 90
1, 105845, Control_c, 0, 67, 90
1, 105847, Note_off_c, 0, 51, 59
1, 105849, Note_on_c, 0, 55, 55
1, 105860, Control_c, 0, 64, 62
1, 105904, Control_c, 0, 64, 61
1, 105917, Note_off_c, 0, 55, 64
1, 105919, Control_c, 0, 64, 57
1, 105919, Control_c, 0, 67, 91
1, 105928, Note_on_c, 0, 51, 65
1, 105928, Note_on_c, 0, 75, 72
1, 105934, Control_c, 0, 64, 52
1, 105934, Control_c, 0, 67, 92
1, 105940, Note_on_c, 0, 63, 64
1, 105949, Control_c, 0, 64, 45
1, 105949, Control_c, 0, 67, 94
1, 105964, Control_c, 0, 64, 37
1, 105964, Control_c, 0, 67, 95
1, 105975, Note_on_c, 0, 55, 53
1, 105977, Note_off_c, 0, 51, 64
1, 105978, Control_c, 0, 64, 28
1, 105978, Control_c, 0, 67, 98
1, 105993, Control_c, 0, 64, 17
1, 105993, Control_c, 0, 67, 100
1, 106008, Control_c, 0, 64, 0
1, 106008, Control_c, 0, 67, 102
1, 106022, Control_c, 0, 67, 103
1, 106037, Control_c, 0, 67, 103
1, 106047, Note_off_c, 0, 55, 63
1, 106051, Note_on_c, 0, 51, 60
1, 106052, Control_c, 0, 67, 104
1, 106058, Note_off_c, 0, 63, 42
1, 106067, Control_c, 0, 67, 105
1, 106082, Control_c, 0, 67, 107
1, 106098, Control_c, 0, 67, 108
1, 106113, Control_c, 0, 67, 111
1, 106113, Note_off_c, 0, 51, 63
1, 106118, Note_on_c, 0, 55, 45
1, 106127, Control_c, 0, 67, 113
1, 106142, Control_c, 0, 67, 114
1, 106157, Control_c, 0, 67, 115
1, 106167, Note_off_c, 0, 75, 60
1, 106194, Note_off_c, 0, 55, 64
1, 106196, Note_on_c, 0, 74, 69
1, 106201, Note_on_c, 0, 51, 54
1, 106203, Note_on_c, 0, 62, 61
1, 106209, Control_c, 0, 67, 116
1, 106224, Control_c, 0, 67, 117
1, 106239, Control_c, 0, 67, 117
1, 106256, Note_off_c, 0, 51, 62
1, 106265, Note_on_c, 0, 55, 56
1, 106283, Note_off_c, 0, 62, 56
1, 106316, Note_off_c, 0, 55, 61
1, 106342, Control_c, 0, 67, 117
1, 106343, Note_on_c, 0, 51, 50
1, 106382, Note_off_c, 0, 51, 66
1, 106390, Note_on_c, 0, 55, 59
1, 106444, Note_on_c, 0, 73, 72
1, 106446, Note_off_c, 0, 74, 64
1, 106456, Note_off_c, 0, 55, 65
1, 106462, Note_on_c, 0, 51, 64
1, 106502, Note_off_c, 0, 51, 63
1, 106521, Note_on_c, 0, 55, 60
1, 106575, Note_off_c, 0, 55, 61
1, 106592, Note_on_c, 0, 51, 58
1, 106632, Note_on_c, 0, 55, 60
1, 106638, Note_off_c, 0, 51, 63
1, 106667, Note_off_c, 0, 73, 63
1, 106668, Control_c, 0, 67, 118
1, 106698, Note_off_c, 0, 55, 60
1, 106704, Note_on_c, 0, 74, 62
1, 106721, Note_on_c, 0, 54, 65
1, 106738, Note_on_c, 0, 50, 57
1, 106817, Note_off_c, 0, 74, 58
1, 106842, Note_on_c, 0, 86, 63
1, 106976, Note_off_c, 0, 86, 56
1, 106993, Note_on_c, 0, 85, 59
1, 107110, Note_on_c, 0, 88, 63
1, 107115, Note_off_c, 0, 85, 57
1, 107247, Note_on_c, 0, 86, 60
1, 107283, Control_c, 0, 67, 117
1, 107294, Note_off_c, 0, 88, 36
1, 107371, Note_on_c, 0, 82, 64
1, 107374, Note_on_c, 0, 55, 48
1, 107377, Note_off_c, 0, 86, 52
1, 107380, Note_off_c, 0, 54, 60
1, 107461, Control_c, 0, 67, 117
1, 107497, Note_off_c, 0, 82, 61
1, 107498, Note_on_c, 0, 81, 52
1, 107505, Note_on_c, 0, 54, 54
1, 107550, Note_off_c, 0, 55, 38
1, 107616, Note_off_c, 0, 54, 63
1, 107624, Note_on_c, 0, 57, 49
1, 107639, Note_on_c, 0, 84, 61
1, 107642, Note_off_c, 0, 81, 54
1, 107654, Control_c, 0, 67, 116
1, 107772, Note_on_c, 0, 82, 57
1, 107783, Note_off_c, 0, 57, 52
1, 107784, Note_on_c, 0, 55, 49
1, 107789, Note_off_c, 0, 84, 55
1, 107826, Control_c, 0, 67, 116
1, 107841, Control_c, 0, 67, 115
1, 107892, Note_off_c, 0, 82, 61
1, 107911, Note_on_c, 0, 79, 51
1, 107912, Note_on_c, 0, 58, 49
1, 107926, Note_off_c, 0, 55, 54
1, 108051, Note_on_c, 0, 78, 57
1, 108060, Note_on_c, 0, 57, 47
1, 108083, Note_off_c, 0, 79, 52
1, 108107, Control_c, 0, 67, 115
1, 108119, Note_off_c, 0, 58, 52
1, 108164, Note_off_c, 0, 57, 58
1, 108165, Note_on_c, 0, 60, 48
1, 108169, Note_off_c, 0, 78, 60
1, 108177, Note_on_c, 0, 81, 56
1, 108197, Control_c, 0, 67, 114
1, 108212, Control_c, 0, 67, 114
1, 108215, Note_off_c, 0, 60, 0
1, 108215, Note_on_c, 0, 60, 10
1, 108226, Control_c, 0, 67, 113
1, 108286, Control_c, 0, 67, 113
1, 108311, Note_off_c, 0, 81, 60
1, 108319, Note_on_c, 0, 58, 50
1, 108319, Note_on_c, 0, 79, 53
1, 108360, Control_c, 0, 67, 112
1, 108373, Note_off_c, 0, 60, 48
1, 108374, Note_off_c, 0, 79, 0
1, 108374, Note_on_c, 0, 79, 8
1, 108389, Control_c, 0, 67, 112
1, 108441, Control_c, 0, 67, 111
1, 108458, Note_on_c, 0, 75, 61
1, 108471, Control_c, 0, 67, 111
1, 108516, Control_c, 0, 67, 110
1, 108518, Note_off_c, 0, 79, 51
1, 108546, Control_c, 0, 67, 109
1, 108585, Note_off_c, 0, 75, 61
1, 108588, Note_on_c, 0, 74, 47
1, 108599, Note_on_c, 0, 55, 49
1, 108605, Control_c, 0, 67, 109
1, 108620, Control_c, 0, 67, 108
1, 108635, Control_c, 0, 67, 108
1, 108701, Note_off_c, 0, 50, 36
1, 108704, Note_off_c, 0, 58, 60
1, 108709, Control_c, 0, 67, 107
1, 108718, Note_on_c, 0, 73, 61
1, 108723, Control_c, 0, 67, 106
1, 108730, Note_off_c, 0, 74, 56
1, 108837, Note_off_c, 0, 73, 62
1, 108858, Note_off_c, 0, 55, 61
1, 108863, Note_on_c, 0, 74, 62
1, 108865, Note_on_c, 0, 54, 54
1, 108866, Note_on_c, 0, 50, 44
1, 108990, Note_off_c, 0, 74, 55
1, 108996, Note_on_c, 0, 86, 70
1, 109020, Control_c, 0, 67, 106
1, 109035, Control_c, 0, 67, 105
1, 109064, Control_c, 0, 67, 105
1, 109128, Note_on_c, 0, 85, 70
1, 109138, Control_c, 0, 67, 105
1, 109159, Note_off_c, 0, 86, 55
1, 109175, Control_c, 0, 67, 106
1, 109187, Note_off_c, 0, 50, 46
1, 109234, Control_c, 0, 67, 106
1, 109248, Control_c, 0, 67, 107
1, 109261, Note_on_c, 0, 88, 78
1, 109263, Control_c, 0, 67, 108
1, 109268, Note_off_c, 0, 54, 62
1, 109278, Control_c, 0, 67, 108
1, 109294, Note_off_c, 0, 85, 61
1, 109324, Control_c, 0, 67, 109
1, 109339, Control_c, 0, 67, 110
1, 109368, Control_c, 0, 67, 111
1, 109387, Note_on_c, 0, 86, 72
1, 109413, Control_c, 0, 67, 111
1, 109427, Control_c, 0, 67, 112
1, 109442, Control_c, 0, 67, 112
1, 109453, Note_off_c, 0, 88, 45
1, 109471, Control_c, 0, 67, 113
1, 109486, Control_c, 0, 67, 113
1, 109501, Control_c, 0, 67, 114
1, 109518, Note_on_c, 0, 82, 70
1, 109531, Control_c, 0, 67, 114
1, 109544, Note_on_c, 0, 67, 44
1, 109546, Note_off_c, 0, 86, 55
1, 109648, Note_on_c, 0, 81, 61
1, 109658, Note_off_c, 0, 82, 58
1, 109659, Note_on_c, 0, 66, 54
1, 109712, Note_off_c, 0, 67, 50
1, 109769, Note_on_c, 0, 69, 60
1, 109773, Note_off_c, 0, 66, 62
1, 109775, Note_on_c, 0, 84, 60
1, 109808, Note_off_c, 0, 81, 37
1, 109857, Control_c, 0, 67, 115
1, 109871, Control_c, 0, 67, 115
1, 109911, Note_on_c, 0, 82, 60
1, 109928, Note_on_c, 0, 67, 57
1, 109939, Note_off_c, 0, 84, 56
1, 109953, Note_off_c, 0, 69, 52
1, 110035, Note_off_c, 0, 82, 63
1, 110054, Note_on_c, 0, 79, 50
1, 110070, Note_on_c, 0, 70, 49
1, 110081, Note_off_c, 0, 67, 57
1, 110179, Note_on_c, 0, 78, 58
1, 110212, Note_on_c, 0, 69, 42
1, 110221, Control_c, 0, 67, 115
1, 110234, Note_off_c, 0, 79, 35
1, 110261, Note_off_c, 0, 70, 52
1, 110294, Control_c, 0, 67, 114
1, 110308, Note_on_c, 0, 81, 63
1, 110312, Note_off_c, 0, 69, 54
1, 110313, Note_on_c, 0, 72, 46
1, 110324, Control_c, 0, 67, 114
1, 110383, Control_c, 0, 67, 113
1, 110411, Note_off_c, 0, 81, 62
1, 110436, Note_off_c, 0, 72, 56
1, 110438, Note_off_c, 0, 78, 47
1, 110442, Note_on_c, 0, 70, 52
1, 110442, Control_c, 0, 67, 113
1, 110448, Note_on_c, 0, 79, 61
1, 110487, Control_c, 0, 67, 112
1, 110516, Control_c, 0, 67, 112
1, 110564, Note_on_c, 0, 87, 74
1, 110582, Note_on_c, 0, 67, 53
1, 110599, Note_off_c, 0, 70, 55
1, 110687, Control_c, 0, 67, 111
1, 110701, Control_c, 0, 67, 110
1, 110706, Note_on_c, 0, 86, 61
1, 110708, Note_on_c, 0, 66, 54
1, 110761, Note_off_c, 0, 67, 36
1, 110773, Note_off_c, 0, 79, 38
1, 110790, Control_c, 0, 67, 110
1, 110805, Control_c, 0, 67, 109
1, 110820, Control_c, 0, 67, 109
1, 110829, Note_on_c, 0, 84, 56
1, 110833, Note_off_c, 0, 86, 53
1, 110834, Note_off_c, 0, 87, 36
1, 110835, Control_c, 0, 67, 108
1, 110845, Note_on_c, 0, 69, 44
1, 110850, Note_off_c, 0, 66, 63
1, 110951, Note_off_c, 0, 69, 62
1, 110968, Note_on_c, 0, 82, 62
1, 110973, Note_on_c, 0, 67, 48
1, 110975, Note_off_c, 0, 84, 61
1, 110999, Control_c, 0, 67, 108
1, 111043, Control_c, 0, 67, 107
1, 111090, Note_on_c, 0, 75, 64
1, 111091, Note_off_c, 0, 82, 61
1, 111099, Note_on_c, 0, 79, 60
1, 111103, Control_c, 0, 67, 107
1, 111104, Note_off_c, 0, 67, 62
1, 111147, Control_c, 0, 67, 106
1, 111212, Note_off_c, 0, 75, 60
1, 111224, Note_on_c, 0, 74, 56
1, 111238, Note_on_c, 0, 78, 55
1, 111285, Note_off_c, 0, 79, 49
1, 111351, Note_off_c, 0, 74, 56
1, 111363, Note_on_c, 0, 81, 55
1, 111365, Note_on_c, 0, 72, 50
1, 111472, Note_off_c, 0, 81, 64
1, 111489, Note_off_c, 0, 78, 47
1, 111502, Note_on_c, 0, 70, 57
1, 111505, Note_on_c, 0, 79, 62
1, 111511, Control_c, 0, 67, 106
1, 111514, Note_off_c, 0, 72, 53
1, 111614, Note_off_c, 0, 70, 62
1, 111621, Note_on_c, 0, 87, 81
1, 111630, Note_on_c, 0, 67, 57
1, 111749, Note_on_c, 0, 66, 64
1, 111756, Note_on_c, 0, 86, 70
1, 111798, Note_off_c, 0, 67, 48
1, 111837, Control_c, 0, 67, 106
1, 111867, Control_c, 0, 67, 107
1, 111881, Control_c, 0, 67, 108
1, 111884, Note_on_c, 0, 69, 56
1, 111886, Note_on_c, 0, 84, 66
1, 111898, Note_off_c, 0, 66, 62
1, 111917, Note_off_c, 0, 87, 35
1, 111920, Note_off_c, 0, 86, 53
1, 111932, Note_off_c, 0, 79, 24
1, 111956, Control_c, 0, 67, 108
1, 112010, Note_off_c, 0, 69, 62
1, 112013, Note_on_c, 0, 82, 69
1, 112027, Note_on_c, 0, 67, 67
1, 112042, Note_off_c, 0, 84, 58
1, 112074, Control_c, 0, 67, 109
1, 112089, Control_c, 0, 67, 109
1, 112104, Control_c, 0, 67, 110
1, 112119, Control_c, 0, 67, 110
1, 112129, Note_off_c, 0, 82, 63
1, 112132, Note_on_c, 0, 79, 70
1, 112146, Note_on_c, 0, 75, 76
1, 112148, Control_c, 0, 67, 111
1, 112171, Control_c, 0, 67, 112
1, 112177, Note_off_c, 0, 67, 59
1, 112185, Control_c, 0, 67, 113
1, 112268, Note_on_c, 0, 74, 61
1, 112270, Note_off_c, 0, 75, 60
1, 112278, Note_on_c, 0, 78, 70
1, 112348, Control_c, 0, 67, 113
1, 112367, Note_off_c, 0, 79, 48
1, 112412, Note_off_c, 0, 74, 58
1, 112413, Note_on_c, 0, 81, 64
1, 112418, Note_on_c, 0, 72, 59
1, 112429, Note_off_c, 0, 78, 63
1, 112541, Note_off_c, 0, 81, 58
1, 112543, Note_on_c, 0, 70, 58
1, 112543, Note_on_c, 0, 79, 63
1, 112561, Note_off_c, 0, 72, 56
1, 112669, Note_on_c, 0, 82, 61
1, 112683, Note_off_c, 0, 79, 54
1, 112688, Note_on_c, 0, 67, 56
1, 112736, Note_off_c, 0, 70, 55
1, 112805, Note_off_c, 0, 67, 60
1, 112808, Note_on_c, 0, 76, 57
1, 112808, Note_on_c, 0, 72, 59
1, 112939, Note_on_c, 0, 79, 56
1, 112941, Note_on_c, 0, 70, 60
1, 112943, Note_off_c, 0, 82, 54
1, 112952, Note_off_c, 0, 76, 47
1, 112974, Note_off_c, 0, 72, 39
1, 113074, Note_on_c, 0, 68, 64
1, 113075, Note_on_c, 0, 77, 63
1, 113075, Note_off_c, 0, 79, 61
1, 113116, Note_off_c, 0, 70, 56
1, 113202, Note_off_c, 0, 77, 60
1, 113202, Note_on_c, 0, 80, 63
1, 113227, Note_on_c, 0, 65, 47
1, 113271, Note_off_c, 0, 68, 57
1, 113339, Note_on_c, 0, 74, 53
1, 113340, Note_on_c, 0, 70, 55
1, 113351, Note_off_c, 0, 65, 60
1, 113453, Note_off_c, 0, 74, 38
1, 113453, Control_c, 0, 67, 114
1, 113461, Note_on_c, 0, 68, 58
1, 113470, Note_on_c, 0, 77, 58
1, 113497, Note_off_c, 0, 70, 37
1, 113512, Control_c, 0, 67, 114
1, 113546, Note_off_c, 0, 80, 28
1, 113601, Control_c, 0, 67, 115
1, 113610, Note_on_c, 0, 75, 48
1, 113615, Note_on_c, 0, 67, 52
1, 113616, Control_c, 0, 67, 115
1, 113631, Note_off_c, 0, 77, 58
1, 113634, Note_off_c, 0, 68, 49
1, 113742, Note_on_c, 0, 79, 51
1, 113753, Note_on_c, 0, 63, 44
1, 113774, Note_off_c, 0, 67, 49
1, 113785, Note_off_c, 0, 75, 36
1, 113800, Control_c, 0, 67, 116
1, 113870, Note_on_c, 0, 72, 47
1, 113875, Note_on_c, 0, 68, 47
1, 113889, Control_c, 0, 67, 116
1, 113900, Note_off_c, 0, 63, 49
1, 113904, Control_c, 0, 67, 117
1, 113992, Control_c, 0, 67, 117
1, 113998, Note_on_c, 0, 75, 53
1, 114008, Note_on_c, 0, 67, 52
1, 114024, Note_off_c, 0, 72, 42
1, 114118, Note_off_c, 0, 68, 21
1, 114135, Note_on_c, 0, 74, 56
1, 114146, Note_off_c, 0, 75, 51
1, 114147, Note_on_c, 0, 65, 51
1, 114165, Note_off_c, 0, 79, 15
1, 114173, Note_off_c, 0, 67, 51
1, 114275, Note_on_c, 0, 77, 53
1, 114286, Note_on_c, 0, 62, 52
1, 114311, Note_off_c, 0, 74, 30
1, 114330, Note_off_c, 0, 65, 43
1, 114349, Control_c, 0, 67, 117
1, 114379, Control_c, 0, 67, 116
1, 114395, Note_on_c, 0, 67, 56
1, 114424, Note_on_c, 0, 71, 40
1, 114431, Control_c, 0, 67, 116
1, 114441, Note_off_c, 0, 62, 37
1, 114461, Control_c, 0, 67, 115
1, 114520, Note_off_c, 0, 67, 52
1, 114537, Note_off_c, 0, 71, 48
1, 114539, Note_on_c, 0, 74, 54
1, 114540, Note_on_c, 0, 65, 41
1, 114549, Control_c, 0, 67, 115
1, 114564, Control_c, 0, 67, 114
1, 114579, Control_c, 0, 67, 114
1, 114587, Note_off_c, 0, 77, 58
1, 114594, Control_c, 0, 67, 113
1, 114666, Note_on_c, 0, 72, 59
1, 114668, Control_c, 0, 67, 113
1, 114669, Note_on_c, 0, 63, 51
1, 114672, Note_off_c, 0, 65, 58
1, 114683, Note_off_c, 0, 74, 61
1, 114777, Note_off_c, 0, 63, 64
1, 114786, Note_on_c, 0, 80, 71
1, 114799, Note_on_c, 0, 60, 50
1, 114915, Note_off_c, 0, 60, 61
1, 114929, Note_on_c, 0, 79, 54
1, 114935, Note_on_c, 0, 59, 53
1, 115038, Note_off_c, 0, 79, 58
1, 115051, Note_on_c, 0, 77, 54
1, 115053, Note_off_c, 0, 80, 42
1, 115060, Note_on_c, 0, 62, 52
1, 115074, Note_off_c, 0, 59, 60
1, 115095, Note_off_c, 0, 72, 11
1, 115170, Note_off_c, 0, 62, 63
1, 115190, Note_on_c, 0, 75, 59
1, 115204, Note_on_c, 0, 60, 50
1, 115277, Note_off_c, 0, 77, 44
1, 115303, Note_off_c, 0, 75, 57
1, 115324, Note_on_c, 0, 72, 53
1, 115326, Note_on_c, 0, 68, 59
1, 115327, Note_off_c, 0, 60, 63
1, 115453, Note_off_c, 0, 68, 56
1, 115456, Note_on_c, 0, 67, 53
1, 115470, Note_on_c, 0, 71, 38
1, 115488, Note_off_c, 0, 72, 34
1, 115579, Note_off_c, 0, 67, 56
1, 115585, Note_on_c, 0, 74, 53
1, 115594, Note_on_c, 0, 65, 49
1, 115668, Note_off_c, 0, 74, 64
1, 115671, Note_off_c, 0, 71, 45
1, 115719, Note_on_c, 0, 72, 58
1, 115729, Note_on_c, 0, 63, 50
1, 115731, Note_off_c, 0, 65, 55
1, 115759, Control_c, 0, 67, 112
1, 115774, Control_c, 0, 67, 112
1, 115840, Note_on_c, 0, 80, 77
1, 115845, Note_off_c, 0, 63, 62
1, 115861, Note_on_c, 0, 60, 52
1, 115877, Control_c, 0, 67, 112
1, 115892, Control_c, 0, 67, 113
1, 115914, Control_c, 0, 67, 113
1, 115974, Note_on_c, 0, 79, 60
1, 115983, Note_off_c, 0, 60, 57
1, 116004, Note_on_c, 0, 59, 46
1, 116098, Note_off_c, 0, 80, 41
1, 116105, Note_on_c, 0, 77, 61
1, 116106, Control_c, 0, 67, 114
1, 116107, Note_off_c, 0, 79, 58
1, 116112, Note_on_c, 0, 62, 56
1, 116120, Note_off_c, 0, 59, 61
1, 116135, Control_c, 0, 67, 114
1, 116223, Note_off_c, 0, 62, 63
1, 116245, Note_on_c, 0, 60, 64
1, 116246, Note_on_c, 0, 75, 65
1, 116263, Note_off_c, 0, 72, 34
1, 116269, Control_c, 0, 67, 115
1, 116284, Note_off_c, 0, 77, 53
1, 116284, Control_c, 0, 67, 115
1, 116328, Control_c, 0, 67, 116
1, 116353, Note_off_c, 0, 75, 57
1, 116357, Control_c, 0, 67, 117
1, 116361, Note_on_c, 0, 72, 60
1, 116366, Note_on_c, 0, 68, 66
1, 116372, Control_c, 0, 67, 117
1, 116387, Control_c, 0, 67, 118
1, 116389, Note_off_c, 0, 60, 55
1, 116417, Control_c, 0, 67, 118
1, 116487, Note_off_c, 0, 68, 59
1, 116495, Note_on_c, 0, 67, 68
1, 116502, Note_on_c, 0, 71, 58
1, 116516, Note_off_c, 0, 72, 52
1, 116595, Control_c, 0, 67, 118
1, 116618, Note_on_c, 0, 74, 58
1, 116630, Note_on_c, 0, 65, 55
1, 116649, Note_off_c, 0, 71, 62
1, 116651, Note_off_c, 0, 67, 39
1, 116677, Control_c, 0, 67, 117
1, 116707, Control_c, 0, 67, 117
1, 116750, Note_off_c, 0, 74, 65
1, 116767, Note_on_c, 0, 63, 63
1, 116770, Note_on_c, 0, 72, 67
1, 116812, Note_off_c, 0, 65, 61
1, 116849, Note_off_c, 0, 72, 57
1, 116855, Control_c, 0, 67, 118
1, 116869, Control_c, 0, 67, 118
1, 116884, Control_c, 0, 67, 119
1, 116894, Note_on_c, 0, 79, 66
1, 116899, Control_c, 0, 67, 119
1, 116904, Note_off_c, 0, 63, 66
1, 116929, Control_c, 0, 67, 122
1, 116943, Control_c, 0, 67, 126
1, 116958, Control_c, 0, 67, 127
1, 117021, Note_on_c, 0, 71, 54
1, 117119, Note_off_c, 0, 71, 61
1, 117140, Note_on_c, 0, 68, 41
1, 117148, Note_on_c, 0, 65, 43
1, 117150, Note_on_c, 0, 74, 51
1, 117284, Note_on_c, 0, 63, 52
1, 117286, Note_off_c, 0, 79, 35
1, 117288, Note_on_c, 0, 72, 48
1, 117291, Note_off_c, 0, 65, 48
1, 117299, Note_on_c, 0, 67, 44
1, 117316, Note_off_c, 0, 74, 58
1, 117326, Note_off_c, 0, 68, 39
1, 117351, Note_off_c, 0, 72, 59
1, 117397, Note_off_c, 0, 63, 60
1, 117420, Note_on_c, 0, 79, 53
1, 117423, Note_off_c, 0, 67, 49
1, 117564, Note_on_c, 0, 71, 42
1, 117649, Note_off_c, 0, 71, 58
1, 117681, Note_on_c, 0, 74, 52
1, 117688, Note_on_c, 0, 68, 41
1, 117721, Note_on_c, 0, 65, 20
1, 117803, Note_off_c, 0, 79, 52
1, 117823, Note_on_c, 0, 63, 57
1, 117829, Note_off_c, 0, 65, 45
1, 117834, Note_on_c, 0, 72, 44
1, 117840, Note_on_c, 0, 67, 46
1, 117851, Note_off_c, 0, 68, 39
1, 117861, Note_off_c, 0, 74, 50
1, 117903, Note_off_c, 0, 67, 0
1, 117903, Note_on_c, 0, 67, 5
1, 117916, Note_off_c, 0, 72, 46
1, 117955, Note_on_c, 0, 79, 51
1, 117983, Note_off_c, 0, 63, 39
1, 118049, Note_off_c, 0, 67, 44
1, 118090, Note_on_c, 0, 71, 47
1, 118171, Note_off_c, 0, 79, 0
1, 118195, Note_off_c, 0, 71, 55
1, 118213, Note_on_c, 0, 68, 45
1, 118216, Note_on_c, 0, 74, 48
1, 118222, Note_on_c, 0, 65, 47
1, 118247, Poly_aftertouch_c, 0, 79, 0
1, 118338, Note_off_c, 0, 65, 58
1, 118357, Note_off_c, 0, 68, 40
1, 118360, Note_off_c, 0, 74, 58
1, 118362, Note_on_c, 0, 72, 50
1, 118365, Note_on_c, 0, 67, 43
1, 118371, Note_on_c, 0, 63, 45
1, 118493, Note_off_c, 0, 72, 54
1, 118501, Note_on_c, 0, 79, 53
1, 118624, Note_off_c, 0, 79, 58
1, 118635, Note_on_c, 0, 72, 50
1, 118708, Control_c, 0, 64, 13
1, 118723, Control_c, 0, 64, 18
1, 118738, Control_c, 0, 64, 22
1, 118752, Control_c, 0, 64, 27
1, 118758, Note_on_c, 0, 79, 48
1, 118767, Control_c, 0, 64, 31
1, 118768, Note_off_c, 0, 72, 50
1, 118782, Control_c, 0, 64, 36
1, 118797, Control_c, 0, 64, 39
1, 118812, Control_c, 0, 64, 42
1, 118827, Control_c, 0, 64, 46
1, 118842, Control_c, 0, 64, 50
1, 118857, Control_c, 0, 64, 53
1, 118872, Control_c, 0, 64, 55
1, 118886, Note_off_c, 0, 79, 56
1, 118887, Control_c, 0, 64, 55
1, 118907, Note_on_c, 0, 72, 52
1, 119043, Note_on_c, 0, 79, 47
1, 119071, Note_off_c, 0, 72, 34
1, 119153, Note_off_c, 0, 79, 56
1, 119175, Note_on_c, 0, 72, 53
1, 119217, Note_off_c, 0, 67, 48
1, 119270, Note_off_c, 0, 63, 37
1, 119280, Control_c, 0, 64, 55
1, 119292, Note_on_c, 0, 79, 52
1, 119328, Note_off_c, 0, 72, 43
1, 119432, Note_on_c, 0, 72, 48
1, 119437, Note_off_c, 0, 79, 35
1, 119467, Note_on_c, 0, 63, 40
1, 119472, Control_c, 0, 64, 54
1, 119473, Note_on_c, 0, 67, 19
1, 119559, Note_on_c, 0, 84, 58
1, 119569, Note_off_c, 0, 63, 45
1, 119571, Note_off_c, 0, 72, 41
1, 119572, Note_off_c, 0, 67, 39
1, 119578, Note_on_c, 0, 79, 30
1, 119582, Note_on_c, 0, 60, 40
1, 119635, Control_c, 0, 64, 54
1, 119707, Note_on_c, 0, 72, 47
1, 119711, Note_on_c, 0, 67, 42
1, 119713, Note_off_c, 0, 84, 35
1, 119715, Note_on_c, 0, 63, 34
1, 119717, Note_off_c, 0, 60, 42
1, 119719, Note_off_c, 0, 79, 40
1, 119823, Note_on_c, 0, 84, 51
1, 119832, Note_on_c, 0, 60, 46
1, 119834, Note_off_c, 0, 63, 43
1, 119835, Note_on_c, 0, 79, 40
1, 119835, Control_c, 0, 64, 53
1, 119837, Note_off_c, 0, 72, 53
1, 119853, Note_off_c, 0, 67, 40
1, 119960, Note_off_c, 0, 84, 44
1, 119972, Note_on_c, 0, 72, 46
1, 119974, Note_on_c, 0, 67, 43
1, 119976, Note_off_c, 0, 60, 41
1, 119984, Note_on_c, 0, 63, 34
1, 119993, Note_off_c, 0, 79, 43
1, 120073, Control_c, 0, 64, 53
1, 120078, Note_off_c, 0, 63, 42
1, 120091, Note_off_c, 0, 72, 56
1, 120093, Note_on_c, 0, 60, 40
1, 120103, Note_on_c, 0, 84, 36
1, 120115, Note_off_c, 0, 67, 44
1, 120117, Control_c, 0, 64, 52
1, 120121, Note_on_c, 0, 79, 31
1, 120160, Note_off_c, 0, 60, 0
1, 120160, Note_on_c, 0, 60, 8
1, 120176, Control_c, 0, 64, 52
1, 120219, Note_on_c, 0, 72, 52
1, 120221, Note_off_c, 0, 84, 43
1, 120224, Note_off_c, 0, 79, 29
1, 120228, Note_off_c, 0, 60, 42
1, 120237, Note_on_c, 0, 67, 39
1, 120261, Note_on_c, 0, 63, 17
1, 120265, Control_c, 0, 64, 51
1, 120327, Note_off_c, 0, 72, 56
1, 120334, Note_on_c, 0, 84, 58
1, 120338, Control_c, 0, 64, 51
1, 120346, Note_on_c, 0, 60, 47
1, 120350, Note_off_c, 0, 63, 43
1, 120350, Note_off_c, 0, 67, 44
1, 120355, Note_on_c, 0, 79, 42
1, 120368, Control_c, 0, 64, 50
1, 120374, Note_off_c, 0, 84, 62
1, 120383, Note_off_c, 0, 79, 53
1, 120383, Control_c, 0, 64, 50
1, 120435, Control_c, 0, 64, 49
1, 120450, Control_c, 0, 64, 48
1, 120465, Control_c, 0, 64, 47
1, 120481, Control_c, 0, 64, 46
1, 120496, Control_c, 0, 64, 46
1, 120525, Control_c, 0, 64, 44
1, 120540, Control_c, 0, 64, 42
1, 120555, Control_c, 0, 64, 38
1, 120570, Control_c, 0, 64, 35
1, 120583, Note_on_c, 0, 84, 58
1, 120584, Control_c, 0, 64, 32
1, 120599, Control_c, 0, 64, 28
1, 120610, Note_on_c, 0, 68, 33
1, 120610, Note_on_c, 0, 79, 33
1, 120614, Control_c, 0, 64, 22
1, 120628, Control_c, 0, 64, 14
1, 120643, Control_c, 0, 64, 0
1, 120644, Note_off_c, 0, 60, 39
1, 120729, Note_off_c, 0, 68, 47
1, 120732, Note_on_c, 0, 72, 42
1, 120863, Note_on_c, 0, 68, 36
1, 120870, Note_off_c, 0, 72, 42
1, 120955, Note_off_c, 0, 79, 46
1, 120974, Note_off_c, 0, 68, 57
1, 120988, Note_on_c, 0, 80, 44
1, 120991, Note_on_c, 0, 72, 36
1, 121057, Note_on_c, 0, 79, 51
1, 121067, Note_off_c, 0, 80, 39
1, 121101, Note_off_c, 0, 79, 57
1, 121106, Note_on_c, 0, 68, 42
1, 121113, Note_off_c, 0, 72, 44
1, 121113, Note_on_c, 0, 77, 45
1, 121171, Note_off_c, 0, 77, 45
1, 121240, Note_off_c, 0, 68, 56
1, 121244, Note_on_c, 0, 72, 39
1, 121365, Note_on_c, 0, 77, 68
1, 121380, Note_off_c, 0, 72, 53
1, 121382, Note_on_c, 0, 68, 52
1, 121435, Note_off_c, 0, 77, 58
1, 121468, Note_off_c, 0, 84, 63
1, 121502, Note_on_c, 0, 72, 54
1, 121629, Note_on_c, 0, 85, 71
1, 121630, Note_off_c, 0, 72, 59
1, 121637, Note_on_c, 0, 77, 55
1, 121654, Note_on_c, 0, 67, 56
1, 121656, Note_off_c, 0, 68, 51
1, 121763, Note_off_c, 0, 67, 62
1, 121769, Note_on_c, 0, 70, 60
1, 121914, Note_on_c, 0, 67, 57
1, 121923, Note_off_c, 0, 70, 52
1, 121966, Note_off_c, 0, 77, 56
1, 122001, Note_off_c, 0, 67, 62
1, 122040, Note_on_c, 0, 70, 50
1, 122047, Note_on_c, 0, 79, 48
1, 122107, Note_on_c, 0, 77, 55
1, 122141, Note_off_c, 0, 85, 61
1, 122163, Note_on_c, 0, 76, 60
1, 122175, Note_on_c, 0, 60, 46
1, 122176, Note_off_c, 0, 79, 41
1, 122177, Note_off_c, 0, 70, 42
1, 122215, Note_off_c, 0, 77, 62
1, 122295, Note_on_c, 0, 70, 53
1, 122313, Note_off_c, 0, 60, 59
1, 122340, Note_off_c, 0, 76, 62
1, 122412, Note_off_c, 0, 70, 59
1, 122428, Note_on_c, 0, 82, 67
1, 122437, Note_on_c, 0, 60, 51
1, 122442, Note_on_c, 0, 76, 39
1, 122501, Note_off_c, 0, 76, 43
1, 122547, Note_on_c, 0, 70, 52
1, 122568, Note_on_c, 0, 79, 51
1, 122595, Note_off_c, 0, 60, 37
1, 122614, Note_off_c, 0, 82, 39
1, 122631, Control_c, 0, 67, 127
1, 122653, Control_c, 0, 67, 125
1, 122668, Control_c, 0, 67, 124
1, 122675, Note_off_c, 0, 70, 57
1, 122682, Control_c, 0, 67, 123
1, 122698, Note_on_c, 0, 65, 54
1, 122706, Note_on_c, 0, 80, 64
1, 122716, Note_off_c, 0, 79, 57
1, 122726, Control_c, 0, 67, 123
1, 122840, Note_off_c, 0, 80, 60
1, 122842, Note_on_c, 0, 72, 50
1, 122891, Control_c, 0, 67, 123
1, 122905, Control_c, 0, 67, 124
1, 122920, Control_c, 0, 67, 124
1, 122935, Control_c, 0, 67, 125
1, 122950, Control_c, 0, 67, 126
1, 122964, Control_c, 0, 64, 22
1, 122979, Control_c, 0, 64, 34
1, 122984, Note_off_c, 0, 72, 53
1, 122985, Note_on_c, 0, 80, 62
1, 122994, Control_c, 0, 64, 44
1, 122994, Control_c, 0, 67, 126
1, 123007, Note_off_c, 0, 65, 66
1, 123009, Control_c, 0, 64, 52
1, 123024, Control_c, 0, 64, 57
1, 123039, Control_c, 0, 64, 59
1, 123054, Control_c, 0, 64, 60
1, 123069, Control_c, 0, 64, 60
1, 123102, Note_off_c, 0, 80, 60
1, 123111, Note_on_c, 0, 72, 55
1, 123113, Control_c, 0, 64, 61
1, 123143, Control_c, 0, 64, 59
1, 123157, Control_c, 0, 64, 56
1, 123157, Control_c, 0, 67, 126
1, 123172, Control_c, 0, 64, 50
1, 123172, Control_c, 0, 67, 125
1, 123187, Control_c, 0, 64, 39
1, 123187, Control_c, 0, 67, 125
1, 123202, Control_c, 0, 64, 20
1, 123202, Control_c, 0, 67, 124
1, 123217, Control_c, 0, 64, 0
1, 123217, Control_c, 0, 67, 124
1, 123231, Control_c, 0, 67, 123
1, 123241, Note_on_c, 0, 80, 65
1, 123245, Note_on_c, 0, 41, 58
1, 123271, Note_off_c, 0, 72, 37
1, 123372, Note_on_c, 0, 73, 67
1, 123373, Note_off_c, 0, 80, 61
1, 123417, Control_c, 0, 67, 123
1, 123461, Control_c, 0, 67, 122
1, 123491, Control_c, 0, 67, 122
1, 123519, Note_on_c, 0, 80, 62
1, 123521, Note_off_c, 0, 73, 57
1, 123535, Control_c, 0, 67, 121
1, 123549, Control_c, 0, 67, 121
1, 123564, Control_c, 0, 67, 120
1, 123579, Control_c, 0, 67, 119
1, 123594, Control_c, 0, 67, 118
1, 123613, Note_off_c, 0, 41, 63
1, 123641, Note_on_c, 0, 43, 53
1, 123651, Note_on_c, 0, 73, 55
1, 123663, Note_off_c, 0, 80, 58
1, 123692, Note_off_c, 0, 43, 51
1, 123702, Note_on_c, 0, 41, 48
1, 123753, Note_off_c, 0, 41, 64
1, 123757, Note_on_c, 0, 40, 55
1, 123782, Note_on_c, 0, 79, 55
1, 123784, Note_off_c, 0, 73, 57
1, 123906, Note_on_c, 0, 73, 58
1, 123917, Note_off_c, 0, 79, 60
1, 123966, Control_c, 0, 67, 118
1, 124034, Note_off_c, 0, 73, 59
1, 124041, Note_on_c, 0, 79, 64
1, 124088, Note_off_c, 0, 40, 65
1, 124099, Control_c, 0, 67, 118
1, 124178, Note_on_c, 0, 73, 53
1, 124178, Note_off_c, 0, 79, 58
1, 124309, Note_on_c, 0, 79, 63
1, 124318, Note_on_c, 0, 63, 68
1, 124329, Note_off_c, 0, 73, 58
1, 124416, Control_c, 0, 67, 118
1, 124445, Note_off_c, 0, 79, 55
1, 124446, Control_c, 0, 67, 117
1, 124449, Note_on_c, 0, 72, 54
1, 124476, Control_c, 0, 67, 116
1, 124506, Control_c, 0, 67, 116
1, 124536, Control_c, 0, 67, 115
1, 124550, Control_c, 0, 67, 114
1, 124565, Control_c, 0, 67, 113
1, 124577, Note_on_c, 0, 79, 61
1, 124586, Note_off_c, 0, 72, 58
1, 124674, Note_off_c, 0, 63, 65
1, 124684, Control_c, 0, 67, 114
1, 124699, Control_c, 0, 67, 114
1, 124706, Note_on_c, 0, 65, 52
1, 124708, Note_on_c, 0, 72, 53
1, 124733, Note_off_c, 0, 65, 55
1, 124756, Note_on_c, 0, 63, 60
1, 124773, Control_c, 0, 67, 115
1, 124788, Control_c, 0, 67, 116
1, 124798, Note_off_c, 0, 79, 47
1, 124815, Note_on_c, 0, 77, 57
1, 124820, Note_off_c, 0, 72, 58
1, 124830, Note_on_c, 0, 62, 53
1, 124832, Note_off_c, 0, 63, 62
1, 124847, Control_c, 0, 67, 116
1, 124861, Control_c, 0, 67, 117
1, 124959, Control_c, 0, 67, 118
1, 124971, Note_on_c, 0, 72, 52
1, 124971, Note_off_c, 0, 77, 60
1, 125048, Control_c, 0, 67, 118
1, 125107, Control_c, 0, 67, 119
1, 125108, Note_on_c, 0, 77, 65
1, 125121, Note_off_c, 0, 72, 59
1, 125121, Control_c, 0, 67, 120
1, 125149, Note_off_c, 0, 62, 66
1, 125230, Note_off_c, 0, 77, 60
1, 125239, Note_on_c, 0, 72, 60
1, 125255, Control_c, 0, 67, 119
1, 125300, Control_c, 0, 67, 119
1, 125344, Control_c, 0, 67, 118
1, 125369, Note_on_c, 0, 77, 69
1, 125373, Note_on_c, 0, 37, 71
1, 125373, Note_off_c, 0, 72, 55
1, 125497, Note_on_c, 0, 70, 67
1, 125507, Note_off_c, 0, 77, 60
1, 125522, Control_c, 0, 67, 118
1, 125651, Note_on_c, 0, 77, 70
1, 125653, Note_off_c, 0, 70, 56
1, 125763, Note_off_c, 0, 37, 62
1, 125766, Control_c, 0, 67, 117
1, 125775, Note_on_c, 0, 70, 59
1, 125776, Note_on_c, 0, 39, 56
1, 125780, Note_off_c, 0, 77, 60
1, 125781, Control_c, 0, 67, 117
1, 125825, Note_off_c, 0, 39, 59
1, 125833, Note_on_c, 0, 37, 60
1, 125892, Note_on_c, 0, 75, 62
1, 125896, Note_off_c, 0, 70, 58
1, 125899, Note_off_c, 0, 37, 60
1, 125901, Note_on_c, 0, 36, 61
1, 125915, Control_c, 0, 67, 117
1, 125930, Control_c, 0, 67, 118
1, 125974, Control_c, 0, 67, 118
1, 126043, Note_on_c, 0, 70, 63
1, 126049, Note_off_c, 0, 75, 61
1, 126094, Control_c, 0, 67, 119
1, 126138, Control_c, 0, 67, 119
1, 126167, Control_c, 0, 67, 120
1, 126181, Note_on_c, 0, 75, 65
1, 126186, Note_off_c, 0, 70, 62
1, 126195, Note_off_c, 0, 36, 64
1, 126306, Note_on_c, 0, 70, 66
1, 126306, Note_off_c, 0, 75, 59
1, 126440, Note_on_c, 0, 60, 76
1, 126441, Note_on_c, 0, 75, 67
1, 126456, Note_off_c, 0, 70, 59
1, 126564, Note_on_c, 0, 68, 61
1, 126583, Note_off_c, 0, 75, 60
1, 126706, Note_on_c, 0, 75, 68
1, 126717, Note_off_c, 0, 68, 56
1, 126819, Note_off_c, 0, 60, 64
1, 126832, Note_on_c, 0, 61, 69
1, 126846, Note_on_c, 0, 68, 56
1, 126866, Note_off_c, 0, 61, 59
1, 126884, Note_on_c, 0, 60, 64
1, 126914, Control_c, 0, 67, 120
1, 126953, Note_on_c, 0, 58, 70
1, 126953, Note_on_c, 0, 73, 65
1, 126969, Note_off_c, 0, 60, 63
1, 126983, Note_off_c, 0, 68, 35
1, 127057, Note_off_c, 0, 75, 35
1, 127109, Note_on_c, 0, 68, 63
1, 127122, Note_off_c, 0, 73, 58
1, 127241, Note_on_c, 0, 73, 66
1, 127248, Control_c, 0, 67, 120
1, 127250, Note_off_c, 0, 68, 60
1, 127263, Control_c, 0, 67, 119
1, 127270, Note_off_c, 0, 58, 65
1, 127308, Control_c, 0, 67, 119
1, 127352, Control_c, 0, 67, 118
1, 127369, Note_on_c, 0, 68, 64
1, 127399, Note_off_c, 0, 73, 51
1, 127411, Control_c, 0, 67, 118
1, 127473, Note_off_c, 0, 68, 61
1, 127495, Note_on_c, 0, 34, 79
1, 127506, Note_on_c, 0, 73, 70
1, 127639, Note_on_c, 0, 67, 70
1, 127652, Note_off_c, 0, 73, 57
1, 127752, Control_c, 0, 67, 117
1, 127770, Note_on_c, 0, 73, 66
1, 127784, Note_off_c, 0, 67, 60
1, 127868, Note_off_c, 0, 34, 65
1, 127871, Note_on_c, 0, 36, 63
1, 127893, Note_on_c, 0, 67, 53
1, 127906, Note_off_c, 0, 73, 59
1, 127918, Note_off_c, 0, 67, 59
1, 127927, Note_off_c, 0, 36, 56
1, 127951, Note_on_c, 0, 34, 67
1, 128017, Note_on_c, 0, 72, 62
1, 128023, Note_on_c, 0, 32, 70
1, 128024, Note_off_c, 0, 34, 64
1, 128083, Note_on_c, 0, 75, 68
1, 128105, Note_off_c, 0, 72, 60
1, 128121, Note_off_c, 0, 75, 61
1, 128136, Note_on_c, 0, 77, 67
1, 128142, Note_off_c, 0, 32, 61
1, 128160, Control_c, 0, 67, 117
1, 128175, Control_c, 0, 67, 118
1, 128188, Note_on_c, 0, 75, 70
1, 128220, Note_off_c, 0, 77, 58
1, 128264, Control_c, 0, 67, 118
1, 128271, Note_on_c, 0, 73, 60
1, 128297, Note_off_c, 0, 75, 63
1, 128307, Note_off_c, 0, 73, 62
1, 128315, Note_on_c, 0, 72, 66
1, 128359, Note_off_c, 0, 72, 58
1, 128375, Note_on_c, 0, 70, 63
1, 128383, Control_c, 0, 67, 118
1, 128398, Control_c, 0, 67, 117
1, 128439, Note_on_c, 0, 68, 68
1, 128461, Note_off_c, 0, 70, 62
1, 128473, Control_c, 0, 67, 116
1, 128484, Note_off_c, 0, 68, 60
1, 128488, Control_c, 0, 67, 115
1, 128492, Note_on_c, 0, 67, 74
1, 128498, Note_on_c, 0, 58, 60
1, 128502, Note_on_c, 0, 51, 61
1, 128507, Note_on_c, 0, 61, 56
1, 128538, Note_off_c, 0, 67, 59
1, 128552, Note_on_c, 0, 77, 72
1, 128617, Note_on_c, 0, 75, 66
1, 128632, Note_off_c, 0, 77, 55
1, 128692, Note_on_c, 0, 73, 62
1, 128720, Note_off_c, 0, 75, 61
1, 128732, Control_c, 0, 67, 115
1, 128737, Note_off_c, 0, 73, 56
1, 128745, Note_on_c, 0, 72, 68
1, 128747, Control_c, 0, 67, 114
1, 128762, Control_c, 0, 67, 114
1, 128795, Note_off_c, 0, 72, 60
1, 128801, Note_on_c, 0, 70, 65
1, 128865, Note_on_c, 0, 68, 75
1, 128890, Note_off_c, 0, 70, 60
1, 128902, Note_off_c, 0, 68, 59
1, 128917, Note_off_c, 0, 58, 62
1, 128922, Note_off_c, 0, 61, 64
1, 128925, Note_on_c, 0, 67, 63
1, 128950, Note_off_c, 0, 51, 62
1, 128974, Note_on_c, 0, 60, 65
1, 128982, Note_on_c, 0, 56, 60
1, 128982, Note_on_c, 0, 68, 74
1, 128987, Note_off_c, 0, 67, 63
1, 128998, Control_c, 0, 67, 113
1, 129037, Note_on_c, 0, 70, 76
1, 129037, Note_off_c, 0, 68, 61
1, 129081, Note_off_c, 0, 70, 63
1, 129105, Note_on_c, 0, 72, 70
1, 129158, Note_on_c, 0, 73, 71
1, 129166, Note_off_c, 0, 72, 59
1, 129176, Control_c, 0, 67, 113
1, 129219, Note_on_c, 0, 75, 76
1, 129233, Note_off_c, 0, 73, 63
1, 129253, Note_off_c, 0, 75, 63
1, 129275, Note_on_c, 0, 77, 77
1, 129320, Note_off_c, 0, 60, 65
1, 129340, Note_off_c, 0, 77, 58
1, 129344, Note_on_c, 0, 79, 70
1, 129353, Note_off_c, 0, 56, 53
1, 129415, Note_on_c, 0, 80, 76
1, 129421, Control_c, 0, 67, 113
1, 129448, Note_off_c, 0, 79, 62
1, 129451, Control_c, 0, 67, 113
1, 129465, Note_on_c, 0, 82, 72
1, 129466, Control_c, 0, 67, 112
1, 129470, Note_on_c, 0, 55, 51
1, 129471, Note_on_c, 0, 63, 65
1, 129472, Note_on_c, 0, 58, 56
1, 129512, Note_off_c, 0, 80, 63
1, 129521, Note_off_c, 0, 82, 65
1, 129525, Note_on_c, 0, 84, 75
1, 129555, Control_c, 0, 67, 112
1, 129597, Note_on_c, 0, 82, 71
1, 129629, Note_off_c, 0, 84, 61
1, 129644, Control_c, 0, 67, 111
1, 129646, Note_on_c, 0, 80, 75
1, 129704, Note_on_c, 0, 79, 69
1, 129706, Note_off_c, 0, 82, 54
1, 129717, Control_c, 0, 67, 111
1, 129732, Control_c, 0, 67, 110
1, 129742, Note_off_c, 0, 80, 62
1, 129747, Note_off_c, 0, 79, 57
1, 129767, Note_on_c, 0, 77, 74
1, 129817, Note_off_c, 0, 77, 61
1, 129825, Note_on_c, 0, 75, 70
1, 129851, Control_c, 0, 67, 111
1, 129853, Note_off_c, 0, 55, 64
1, 129883, Note_off_c, 0, 63, 62
1, 129887, Note_on_c, 0, 73, 73
1, 129903, Note_off_c, 0, 58, 61
1, 129916, Note_off_c, 0, 75, 61
1, 129942, Note_off_c, 0, 73, 63
1, 129960, Note_on_c, 0, 60, 60
1, 129963, Note_on_c, 0, 63, 71
1, 129963, Note_on_c, 0, 72, 68
1, 129973, Note_on_c, 0, 56, 53
1, 129984, Control_c, 0, 67, 110
1, 129999, Control_c, 0, 67, 109
1, 130018, Note_on_c, 0, 75, 61
1, 130043, Control_c, 0, 67, 110
1, 130057, Note_off_c, 0, 72, 52
1, 130077, Note_off_c, 0, 75, 63
1, 130078, Note_on_c, 0, 77, 72
1, 130119, Control_c, 0, 67, 110
1, 130140, Note_on_c, 0, 75, 69
1, 130170, Note_off_c, 0, 77, 59
1, 130218, Note_on_c, 0, 73, 71
1, 130244, Note_off_c, 0, 75, 63
1, 130268, Note_on_c, 0, 72, 68
1, 130271, Note_off_c, 0, 60, 61
1, 130271, Note_off_c, 0, 73, 64
1, 130274, Control_c, 0, 67, 110
1, 130318, Note_off_c, 0, 72, 60
1, 130327, Note_on_c, 0, 70, 76
1, 130333, Note_off_c, 0, 63, 52
1, 130347, Control_c, 0, 67, 109
1, 130391, Note_on_c, 0, 68, 72
1, 130396, Note_off_c, 0, 56, 64
1, 130418, Note_off_c, 0, 70, 62
1, 130441, Note_off_c, 0, 68, 62
1, 130444, Note_on_c, 0, 67, 76
1, 130455, Note_on_c, 0, 63, 68
1, 130458, Note_on_c, 0, 61, 66
1, 130464, Note_on_c, 0, 58, 64
1, 130494, Note_off_c, 0, 67, 61
1, 130503, Note_on_c, 0, 77, 76
1, 130525, Control_c, 0, 67, 109
1, 130568, Note_on_c, 0, 75, 72
1, 130589, Note_off_c, 0, 77, 60
1, 130634, Note_on_c, 0, 73, 75
1, 130667, Note_off_c, 0, 75, 63
1, 130690, Note_on_c, 0, 72, 75
1, 130694, Note_off_c, 0, 73, 63
1, 130703, Control_c, 0, 67, 108
1, 130718, Control_c, 0, 67, 107
1, 130739, Note_off_c, 0, 72, 64
1, 130745, Note_on_c, 0, 70, 76
1, 130801, Note_on_c, 0, 68, 79
1, 130821, Control_c, 0, 67, 107
1, 130833, Note_off_c, 0, 70, 62
1, 130841, Note_off_c, 0, 63, 59
1, 130856, Note_off_c, 0, 68, 60
1, 130861, Note_on_c, 0, 67, 75
1, 130864, Note_off_c, 0, 61, 63
1, 130875, Note_off_c, 0, 58, 63
1, 130912, Note_on_c, 0, 63, 72
1, 130914, Note_on_c, 0, 60, 73
1, 130935, Note_on_c, 0, 68, 75
1, 130942, Note_off_c, 0, 67, 62
1, 130989, Note_on_c, 0, 70, 80
1, 130999, Note_off_c, 0, 68, 61
1, 131037, Note_off_c, 0, 70, 64
1, 131052, Control_c, 0, 67, 107
1, 131060, Note_on_c, 0, 72, 76
1, 131067, Control_c, 0, 67, 108
1, 131114, Note_on_c, 0, 73, 78
1, 131123, Note_off_c, 0, 72, 60
1, 131141, Control_c, 0, 67, 108
1, 131178, Note_on_c, 0, 75, 80
1, 131183, Note_off_c, 0, 73, 66
1, 131215, Note_off_c, 0, 75, 64
1, 131232, Note_on_c, 0, 77, 79
1, 131296, Note_on_c, 0, 79, 76
1, 131301, Note_off_c, 0, 77, 62
1, 131303, Control_c, 0, 67, 109
1, 131348, Note_off_c, 0, 63, 61
1, 131351, Note_off_c, 0, 60, 62
1, 131358, Note_on_c, 0, 80, 80
1, 131392, Control_c, 0, 67, 108
1, 131398, Note_off_c, 0, 79, 61
1, 131409, Note_on_c, 0, 82, 78
1, 131418, Note_on_c, 0, 63, 81
1, 131422, Note_on_c, 0, 55, 67
1, 131422, Control_c, 0, 67, 108
1, 131429, Note_on_c, 0, 58, 71
1, 131436, Control_c, 0, 67, 107
1, 131451, Control_c, 0, 67, 106
1, 131466, Note_off_c, 0, 80, 63
1, 131470, Note_on_c, 0, 84, 81
1, 131472, Note_off_c, 0, 82, 66
1, 131543, Note_on_c, 0, 82, 79
1, 131591, Note_off_c, 0, 84, 62
1, 131600, Control_c, 0, 67, 106
1, 131600, Note_on_c, 0, 80, 79
1, 131630, Control_c, 0, 67, 105
1, 131668, Control_c, 0, 67, 104
1, 131672, Note_on_c, 0, 79, 74
1, 131680, Note_off_c, 0, 82, 62
1, 131698, Control_c, 0, 67, 103
1, 131704, Note_off_c, 0, 80, 64
1, 131712, Control_c, 0, 67, 103
1, 131727, Note_on_c, 0, 77, 77
1, 131731, Note_off_c, 0, 79, 60
1, 131783, Note_off_c, 0, 77, 63
1, 131786, Note_on_c, 0, 75, 77
1, 131830, Note_off_c, 0, 55, 57
1, 131831, Control_c, 0, 67, 103
1, 131836, Note_off_c, 0, 63, 62
1, 131846, Control_c, 0, 67, 104
1, 131853, Note_on_c, 0, 73, 73
1, 131885, Note_off_c, 0, 75, 60
1, 131902, Note_off_c, 0, 73, 65
1, 131905, Control_c, 0, 67, 106
1, 131918, Note_on_c, 0, 72, 68
1, 131919, Control_c, 0, 67, 106
1, 131931, Note_on_c, 0, 68, 69
1, 131934, Control_c, 0, 67, 107
1, 131948, Note_off_c, 0, 58, 38
1, 131949, Note_off_c, 0, 68, 65
1, 131949, Control_c, 0, 67, 108
1, 131978, Note_on_c, 0, 73, 67
1, 131986, Note_off_c, 0, 72, 59
1, 131994, Control_c, 0, 67, 108
1, 132008, Control_c, 0, 67, 109
1, 132023, Control_c, 0, 67, 109
1, 132033, Note_off_c, 0, 73, 64
1, 132038, Control_c, 0, 67, 110
1, 132048, Note_on_c, 0, 75, 65
1, 132096, Note_on_c, 0, 73, 64
1, 132123, Note_off_c, 0, 75, 60
1, 132154, Note_off_c, 0, 73, 64
1, 132157, Control_c, 0, 67, 110
1, 132161, Note_on_c, 0, 63, 62
1, 132172, Control_c, 0, 67, 109
1, 132179, Note_on_c, 0, 72, 53
1, 132193, Note_off_c, 0, 63, 65
1, 132222, Note_on_c, 0, 73, 59
1, 132228, Note_off_c, 0, 72, 57
1, 132245, Control_c, 0, 67, 108
1, 132277, Note_off_c, 0, 73, 63
1, 132291, Note_on_c, 0, 75, 64
1, 132334, Control_c, 0, 67, 108
1, 132354, Note_on_c, 0, 73, 61
1, 132364, Control_c, 0, 67, 107
1, 132390, Note_off_c, 0, 75, 60
1, 132416, Control_c, 0, 67, 106
1, 132417, Note_off_c, 0, 73, 63
1, 132425, Note_on_c, 0, 60, 61
1, 132431, Control_c, 0, 67, 106
1, 132432, Note_on_c, 0, 72, 60
1, 132452, Note_off_c, 0, 60, 67
1, 132491, Note_on_c, 0, 73, 61
1, 132503, Note_off_c, 0, 72, 52
1, 132543, Note_on_c, 0, 75, 63
1, 132543, Note_off_c, 0, 73, 63
1, 132604, Note_on_c, 0, 73, 63
1, 132635, Note_off_c, 0, 75, 60
1, 132665, Note_off_c, 0, 73, 64
1, 132669, Note_on_c, 0, 56, 71
1, 132679, Note_on_c, 0, 72, 68
1, 132683, Control_c, 0, 67, 105
1, 132698, Control_c, 0, 67, 104
1, 132700, Note_off_c, 0, 56, 67
1, 132728, Control_c, 0, 67, 104
1, 132740, Note_on_c, 0, 73, 58
1, 132756, Note_off_c, 0, 72, 58
1, 132757, Control_c, 0, 67, 103
1, 132772, Control_c, 0, 67, 102
1, 132793, Note_off_c, 0, 73, 62
1, 132795, Note_on_c, 0, 75, 70
1, 132831, Control_c, 0, 67, 101
1, 132846, Control_c, 0, 67, 101
1, 132858, Note_on_c, 0, 73, 63
1, 132876, Control_c, 0, 67, 100
1, 132890, Note_off_c, 0, 75, 61
1, 132891, Control_c, 0, 67, 99
1, 132906, Control_c, 0, 67, 98
1, 132915, Note_off_c, 0, 73, 64
1, 132917, Note_on_c, 0, 66, 72
1, 132921, Control_c, 0, 67, 97
1, 132924, Note_on_c, 0, 72, 70
1, 132935, Control_c, 0, 67, 95
1, 132942, Note_off_c, 0, 66, 68
1, 132950, Control_c, 0, 67, 95
1, 132980, Control_c, 0, 67, 94
1, 132983, Note_on_c, 0, 73, 66
1, 132995, Control_c, 0, 67, 93
1, 133007, Note_off_c, 0, 72, 56
1, 133009, Control_c, 0, 67, 92
1, 133024, Control_c, 0, 67, 92
1, 133038, Note_off_c, 0, 73, 64
1, 133049, Note_on_c, 0, 75, 71
1, 133083, Control_c, 0, 67, 91
1, 133098, Control_c, 0, 67, 90
1, 133107, Note_on_c, 0, 73, 68
1, 133113, Control_c, 0, 67, 90
1, 133135, Control_c, 0, 67, 89
1, 133141, Note_off_c, 0, 75, 61
1, 133165, Control_c, 0, 67, 87
1, 133168, Note_off_c, 0, 73, 64
1, 133177, Note_on_c, 0, 63, 78
1, 133178, Note_on_c, 0, 72, 69
1, 133180, Control_c, 0, 67, 84
1, 133195, Control_c, 0, 67, 79
1, 133199, Note_off_c, 0, 63, 73
1, 133209, Control_c, 0, 67, 75
1, 133224, Control_c, 0, 67, 72
1, 133239, Note_on_c, 0, 73, 72
1, 133263, Note_off_c, 0, 72, 55
1, 133269, Control_c, 0, 67, 71
1, 133295, Note_off_c, 0, 73, 64
1, 133305, Note_on_c, 0, 75, 72
1, 133365, Note_on_c, 0, 73, 72
1, 133395, Note_off_c, 0, 75, 60
1, 133418, Control_c, 0, 67, 72
1, 133421, Note_on_c, 0, 60, 80
1, 133423, Note_off_c, 0, 73, 64
1, 133432, Control_c, 0, 67, 73
1, 133433, Note_on_c, 0, 72, 71
1, 133447, Control_c, 0, 67, 74
1, 133462, Control_c, 0, 67, 75
1, 133471, Note_off_c, 0, 60, 62
1, 133477, Control_c, 0, 67, 75
1, 133491, Control_c, 0, 67, 76
1, 133495, Note_on_c, 0, 73, 72
1, 133506, Control_c, 0, 67, 76
1, 133519, Note_off_c, 0, 72, 57
1, 133521, Control_c, 0, 67, 77
1, 133536, Control_c, 0, 67, 79
1, 133545, Note_off_c, 0, 73, 64
1, 133551, Note_on_c, 0, 75, 74
1, 133551, Control_c, 0, 67, 80
1, 133565, Control_c, 0, 67, 80
1, 133609, Note_on_c, 0, 73, 71
1, 133644, Note_off_c, 0, 75, 62
1, 133654, Control_c, 0, 67, 80
1, 133663, Note_on_c, 0, 54, 91
1, 133663, Note_off_c, 0, 73, 65
1, 133669, Control_c, 0, 67, 79
1, 133672, Note_on_c, 0, 72, 79
1, 133684, Control_c, 0, 67, 76
1, 133699, Control_c, 0, 67, 75
1, 133700, Note_off_c, 0, 54, 66
1, 133714, Control_c, 0, 67, 74
1, 133728, Control_c, 0, 67, 73
1, 133734, Note_on_c, 0, 73, 77
1, 133743, Control_c, 0, 67, 72
1, 133758, Control_c, 0, 67, 71
1, 133758, Note_off_c, 0, 72, 57
1, 133773, Control_c, 0, 67, 72
1, 133788, Note_on_c, 0, 75, 77
1, 133789, Note_off_c, 0, 73, 64
1, 133852, Note_on_c, 0, 73, 71
1, 133862, Control_c, 0, 67, 71
1, 133883, Control_c, 0, 67, 70
1, 133898, Control_c, 0, 67, 69
1, 133902, Note_off_c, 0, 75, 61
1, 133913, Control_c, 0, 67, 67
1, 133920, Note_off_c, 0, 73, 65
1, 133927, Note_on_c, 0, 72, 70
1, 133928, Control_c, 0, 67, 66
1, 133931, Note_on_c, 0, 42, 95
1, 133935, Note_on_c, 0, 30, 91
1, 133943, Control_c, 0, 67, 64
1, 133958, Control_c, 0, 67, 63
1, 133973, Control_c, 0, 67, 61
1, 133989, Note_on_c, 0, 74, 80
1, 133997, Note_off_c, 0, 72, 62
1, 134003, Control_c, 0, 67, 60
1, 134017, Control_c, 0, 67, 60
1, 134045, Note_off_c, 0, 74, 66
1, 134047, Control_c, 0, 67, 59
1, 134054, Note_on_c, 0, 75, 82
1, 134062, Control_c, 0, 67, 58
1, 134077, Control_c, 0, 67, 54
1, 134092, Control_c, 0, 67, 50
1, 134107, Control_c, 0, 67, 48
1, 134110, Note_on_c, 0, 74, 77
1, 134122, Control_c, 0, 67, 48
1, 134137, Control_c, 0, 67, 47
1, 134144, Note_off_c, 0, 75, 61
1, 134152, Control_c, 0, 67, 46
1, 134167, Control_c, 0, 67, 45
1, 134169, Note_off_c, 0, 74, 67
1, 134177, Note_on_c, 0, 72, 80
1, 134182, Control_c, 0, 67, 43
1, 134196, Control_c, 0, 67, 41
1, 134211, Control_c, 0, 67, 39
1, 134220, Note_off_c, 0, 72, 64
1, 134226, Control_c, 0, 67, 38
1, 134238, Note_on_c, 0, 74, 79
1, 134241, Control_c, 0, 67, 37
1, 134255, Control_c, 0, 67, 37
1, 134270, Control_c, 0, 67, 36
1, 134285, Control_c, 0, 67, 36
1, 134290, Note_off_c, 0, 74, 66
1, 134301, Note_on_c, 0, 75, 79
1, 134314, Control_c, 0, 67, 37
1, 134329, Control_c, 0, 67, 39
1, 134344, Control_c, 0, 67, 39
1, 134359, Control_c, 0, 67, 40
1, 134364, Note_on_c, 0, 74, 81
1, 134388, Control_c, 0, 67, 40
1, 134389, Note_off_c, 0, 75, 62
1, 134416, Note_off_c, 0, 74, 67
1, 134418, Control_c, 0, 67, 41
1, 134426, Note_on_c, 0, 72, 72
1, 134447, Control_c, 0, 67, 40
1, 134475, Note_on_c, 0, 74, 70
1, 134477, Control_c, 0, 67, 40
1, 134486, Note_off_c, 0, 72, 61
1, 134518, Note_off_c, 0, 74, 65
1, 134521, Control_c, 0, 67, 39
1, 134530, Note_on_c, 0, 75, 67
1, 134566, Control_c, 0, 67, 39
1, 134581, Control_c, 0, 67, 40
1, 134591, Note_on_c, 0, 74, 76
1, 134596, Control_c, 0, 67, 41
1, 134611, Control_c, 0, 67, 42
1, 134619, Note_off_c, 0, 75, 61
1, 134632, Control_c, 0, 67, 44
1, 134647, Control_c, 0, 67, 45
1, 134658, Note_off_c, 0, 74, 66
1, 134662, Control_c, 0, 67, 44
1, 134668, Note_on_c, 0, 72, 68
1, 134677, Control_c, 0, 67, 43
1, 134706, Control_c, 0, 67, 44
1, 134716, Note_off_c, 0, 72, 55
1, 134721, Control_c, 0, 67, 44
1, 134727, Note_on_c, 0, 75, 68
1, 134762, Note_off_c, 0, 30, 62
1, 134774, Note_off_c, 0, 75, 49
1, 134781, Control_c, 0, 67, 45
1, 134787, Note_on_c, 0, 74, 72
1, 134796, Control_c, 0, 67, 46
1, 134799, Note_off_c, 0, 42, 60
1, 134811, Control_c, 0, 67, 47
1, 134840, Control_c, 0, 67, 46
1, 134855, Note_on_c, 0, 72, 67
1, 134856, Control_c, 0, 67, 45
1, 134870, Note_off_c, 0, 74, 66
1, 134885, Control_c, 0, 67, 44
1, 134900, Control_c, 0, 67, 44
1, 134905, Note_on_c, 0, 31, 74
1, 134909, Note_on_c, 0, 43, 76
1, 134911, Note_on_c, 0, 71, 74
1, 134922, Note_off_c, 0, 72, 61
1, 134930, Control_c, 0, 67, 43
1, 134945, Control_c, 0, 67, 42
1, 134945, Note_off_c, 0, 31, 68
1, 134960, Control_c, 0, 64, 33
1, 134960, Control_c, 0, 67, 42
1, 134963, Note_on_c, 0, 67, 73
1, 134963, Note_off_c, 0, 71, 65
1, 134974, Control_c, 0, 64, 50
1, 134974, Control_c, 0, 67, 42
1, 134989, Control_c, 0, 64, 56
1, 135004, Control_c, 0, 64, 59
1, 135004, Control_c, 0, 67, 42
1, 135017, Note_off_c, 0, 43, 60
1, 135019, Control_c, 0, 64, 61
1, 135022, Note_on_c, 0, 71, 74
1, 135026, Note_off_c, 0, 67, 61
1, 135034, Control_c, 0, 64, 64
1, 135049, Control_c, 0, 64, 65
1, 135049, Control_c, 0, 67, 41
1, 135063, Control_c, 0, 64, 65
1, 135078, Control_c, 0, 64, 67
1, 135090, Note_on_c, 0, 74, 83
1, 135093, Control_c, 0, 64, 69
1, 135102, Note_off_c, 0, 71, 65
1, 135108, Control_c, 0, 64, 74
1, 135108, Control_c, 0, 67, 42
1, 135123, Control_c, 0, 64, 77
1, 135137, Control_c, 0, 64, 78
1, 135137, Control_c, 0, 67, 42
1, 135150, Note_off_c, 0, 74, 66
1, 135152, Control_c, 0, 64, 77
1, 135152, Control_c, 0, 67, 40
1, 135156, Note_on_c, 0, 79, 83
1, 135167, Control_c, 0, 64, 68
1, 135167, Control_c, 0, 67, 40
1, 135182, Control_c, 0, 64, 59
1, 135197, Control_c, 0, 64, 43
1, 135211, Control_c, 0, 64, 8
1, 135215, Note_on_c, 0, 74, 76
1, 135226, Control_c, 0, 64, 0
1, 135226, Control_c, 0, 67, 39
1, 135231, Note_off_c, 0, 79, 62
1, 135255, Control_c, 0, 67, 40
1, 135270, Note_on_c, 0, 71, 81
1, 135277, Note_off_c, 0, 74, 66
1, 135285, Control_c, 0, 67, 40
1, 135300, Control_c, 0, 67, 40
1, 135310, Note_off_c, 0, 71, 62
1, 135329, Control_c, 0, 67, 39
1, 135335, Note_on_c, 0, 67, 75
1, 135359, Control_c, 0, 67, 40
1, 135395, Note_on_c, 0, 66, 80
1, 135397, Note_off_c, 0, 67, 62
1, 135404, Note_on_c, 0, 55, 76
1, 135405, Note_on_c, 0, 51, 74
1, 135408, Note_on_c, 0, 43, 61
1, 135411, Control_c, 0, 64, 14
1, 135411, Control_c, 0, 67, 40
1, 135414, Note_on_c, 0, 48, 60
1, 135419, Note_off_c, 0, 66, 66
1, 135426, Control_c, 0, 64, 44
1, 135427, Note_off_c, 0, 51, 70
1, 135427, Note_off_c, 0, 55, 70
1, 135437, Note_off_c, 0, 48, 60
1, 135439, Note_off_c, 0, 43, 63
1, 135441, Control_c, 0, 64, 55
1, 135455, Control_c, 0, 64, 61
1, 135455, Control_c, 0, 67, 40
1, 135468, Note_on_c, 0, 67, 60
1, 135470, Control_c, 0, 64, 65
1, 135485, Control_c, 0, 64, 71
1, 135485, Control_c, 0, 67, 40
1, 135500, Control_c, 0, 64, 72
1, 135528, Note_on_c, 0, 72, 71
1, 135539, Note_off_c, 0, 67, 63
1, 135544, Control_c, 0, 64, 72
1, 135574, Control_c, 0, 64, 72
1, 135589, Note_on_c, 0, 75, 75
1, 135603, Control_c, 0, 64, 73
1, 135618, Note_off_c, 0, 72, 62
1, 135618, Control_c, 0, 64, 74
1, 135618, Control_c, 0, 67, 40
1, 135633, Control_c, 0, 67, 41
1, 135648, Note_off_c, 0, 75, 63
1, 135654, Note_on_c, 0, 79, 84
1, 135664, Control_c, 0, 67, 40
1, 135678, Control_c, 0, 64, 70
1, 135678, Control_c, 0, 67, 39
1, 135693, Control_c, 0, 64, 63
1, 135708, Note_on_c, 0, 75, 71
1, 135708, Control_c, 0, 64, 54
1, 135723, Control_c, 0, 64, 40
1, 135723, Control_c, 0, 67, 40
1, 135738, Control_c, 0, 64, 16
1, 135751, Note_off_c, 0, 79, 60
1, 135753, Control_c, 0, 64, 0
1, 135753, Control_c, 0, 67, 39
1, 135767, Note_on_c, 0, 72, 77
1, 135767, Control_c, 0, 67, 38
1, 135797, Control_c, 0, 67, 39
1, 135804, Note_off_c, 0, 75, 64
1, 135812, Control_c, 0, 67, 40
1, 135821, Note_off_c, 0, 72, 64
1, 135827, Control_c, 0, 67, 40
1, 135831, Note_on_c, 0, 67, 83
1, 135857, Control_c, 0, 67, 40
1, 135872, Control_c, 0, 67, 39
1, 135886, Control_c, 0, 67, 40
1, 135889, Note_off_c, 0, 67, 57
1, 135893, Note_on_c, 0, 43, 75
1, 135894, Note_on_c, 0, 66, 86
1, 135896, Note_on_c, 0, 50, 78
1, 135897, Note_on_c, 0, 55, 71
1, 135901, Control_c, 0, 67, 40
1, 135902, Note_on_c, 0, 47, 72
1, 135916, Control_c, 0, 64, 46
1, 135918, Note_off_c, 0, 50, 69
1, 135922, Note_off_c, 0, 55, 68
1, 135924, Note_off_c, 0, 43, 67
1, 135927, Note_off_c, 0, 66, 63
1, 135930, Note_off_c, 0, 47, 66
1, 135931, Control_c, 0, 64, 61
1, 135946, Control_c, 0, 64, 68
1, 135951, Note_on_c, 0, 67, 72
1, 135960, Control_c, 0, 64, 70
1, 135975, Control_c, 0, 64, 72
1, 135990, Control_c, 0, 64, 74
1, 135995, Note_off_c, 0, 67, 64
1, 136005, Control_c, 0, 67, 41
1, 136009, Note_on_c, 0, 71, 83
1, 136020, Control_c, 0, 67, 40
1, 136034, Control_c, 0, 67, 40
1, 136049, Control_c, 0, 64, 73
1, 136049, Control_c, 0, 67, 39
1, 136077, Note_on_c, 0, 74, 79
1, 136078, Control_c, 0, 67, 40
1, 136104, Note_off_c, 0, 71, 63
1, 136108, Control_c, 0, 67, 41
1, 136140, Note_on_c, 0, 79, 85
1, 136142, Note_off_c, 0, 74, 69
1, 136146, Control_c, 0, 64, 72
1, 136146, Control_c, 0, 67, 40
1, 136160, Control_c, 0, 64, 69
1, 136175, Control_c, 0, 64, 65
1, 136190, Control_c, 0, 64, 60
1, 136190, Control_c, 0, 67, 40
1, 136204, Note_on_c, 0, 74, 81
1, 136205, Control_c, 0, 64, 50
1, 136205, Control_c, 0, 67, 39
1, 136219, Control_c, 0, 64, 31
1, 136219, Control_c, 0, 67, 38
1, 136234, Control_c, 0, 64, 0
1, 136237, Note_off_c, 0, 79, 61
1, 136255, Note_on_c, 0, 71, 79
1, 136264, Control_c, 0, 67, 39
1, 136279, Control_c, 0, 67, 40
1, 136280, Note_off_c, 0, 74, 66
1, 136316, Note_on_c, 0, 67, 79
1, 136316, Note_off_c, 0, 71, 64
1, 136338, Control_c, 0, 67, 40
1, 136382, Control_c, 0, 67, 39
1, 136385, Note_off_c, 0, 67, 59
1, 136390, Note_on_c, 0, 66, 84
1, 136391, Note_on_c, 0, 55, 82
1, 136393, Note_on_c, 0, 51, 78
1, 136395, Note_on_c, 0, 43, 69
1, 136397, Control_c, 0, 67, 39
1, 136402, Note_on_c, 0, 48, 71
1, 136411, Control_c, 0, 64, 39
1, 136411, Control_c, 0, 67, 39
1, 136412, Note_off_c, 0, 55, 72
1, 136415, Note_off_c, 0, 66, 66
1, 136417, Note_off_c, 0, 51, 70
1, 136426, Note_off_c, 0, 43, 63
1, 136426, Control_c, 0, 64, 53
1, 136426, Control_c, 0, 67, 40
1, 136430, Note_off_c, 0, 48, 67
1, 136441, Control_c, 0, 64, 61
1, 136441, Control_c, 0, 67, 42
1, 136453, Note_on_c, 0, 67, 73
1, 136457, Control_c, 0, 64, 63
1, 136457, Control_c, 0, 67, 42
1, 136472, Control_c, 0, 64, 64
1, 136487, Control_c, 0, 67, 41
1, 136499, Note_off_c, 0, 67, 65
1, 136501, Note_on_c, 0, 72, 82
1, 136501, Control_c, 0, 67, 41
1, 136516, Control_c, 0, 67, 40
1, 136531, Control_c, 0, 67, 39
1, 136561, Control_c, 0, 67, 39
1, 136569, Note_on_c, 0, 75, 89
1, 136575, Control_c, 0, 67, 40
1, 136590, Control_c, 0, 67, 41
1, 136605, Control_c, 0, 67, 42
1, 136607, Note_off_c, 0, 72, 61
1, 136620, Control_c, 0, 64, 65
1, 136620, Control_c, 0, 67, 43
1, 136633, Note_on_c, 0, 79, 85
1, 136639, Note_off_c, 0, 75, 64
1, 136650, Control_c, 0, 64, 64
1, 136650, Control_c, 0, 67, 42
1, 136665, Control_c, 0, 64, 61
1, 136665, Control_c, 0, 67, 41
1, 136680, Control_c, 0, 64, 53
1, 136680, Control_c, 0, 67, 40
1, 136687, Note_on_c, 0, 75, 74
1, 136694, Control_c, 0, 64, 26
1, 136694, Control_c, 0, 67, 39
1, 136709, Control_c, 0, 64, 0
1, 136709, Control_c, 0, 67, 38
1, 136724, Control_c, 0, 67, 37
1, 136748, Note_on_c, 0, 72, 85
1, 136754, Control_c, 0, 67, 38
1, 136754, Note_off_c, 0, 79, 60
1, 136783, Control_c, 0, 67, 38
1, 136803, Note_on_c, 0, 67, 83
1, 136813, Control_c, 0, 67, 38
1, 136827, Control_c, 0, 67, 37
1, 136831, Note_off_c, 0, 75, 60
1, 136842, Control_c, 0, 67, 37
1, 136857, Control_c, 0, 67, 36
1, 136869, Note_on_c, 0, 43, 76
1, 136872, Control_c, 0, 67, 35
1, 136884, Note_on_c, 0, 79, 89
1, 136892, Note_off_c, 0, 67, 65
1, 136894, Control_c, 0, 67, 35
1, 136903, Note_off_c, 0, 72, 57
1, 136909, Control_c, 0, 67, 34
1, 136924, Control_c, 0, 67, 35
1, 136945, Note_on_c, 0, 47, 68
1, 136954, Note_off_c, 0, 43, 61
1, 137004, Note_on_c, 0, 50, 70
1, 137010, Note_off_c, 0, 47, 65
1, 137034, Note_off_c, 0, 50, 67
1, 137042, Control_c, 0, 67, 35
1, 137050, Note_on_c, 0, 55, 68
1, 137057, Control_c, 0, 67, 36
1, 137072, Control_c, 0, 67, 38
1, 137083, Note_off_c, 0, 79, 63
1, 137087, Control_c, 0, 67, 40
1, 137095, Note_off_c, 0, 55, 61
1, 137101, Control_c, 0, 67, 42
1, 137131, Control_c, 0, 67, 42
1, 137140, Note_on_c, 0, 55, 32
1, 137146, Control_c, 0, 67, 41
1, 137160, Note_off_c, 0, 55, 0
1, 137161, Control_c, 0, 67, 41
1, 137175, Control_c, 0, 67, 40
1, 137177, Note_on_c, 0, 55, 36
1, 137179, Note_on_c, 0, 56, 4
1, 137180, Note_off_c, 0, 56, 127
1, 137205, Control_c, 0, 67, 39
1, 137220, Control_c, 0, 67, 38
1, 137234, Control_c, 0, 67, 37
1, 137250, Control_c, 0, 67, 36
1, 137262, Note_on_c, 0, 67, 71
1, 137264, Note_on_c, 0, 50, 66
1, 137280, Control_c, 0, 67, 37
1, 137301, Note_on_c, 0, 47, 68
1, 137306, Note_off_c, 0, 50, 64
1, 137315, Note_off_c, 0, 55, 31
1, 137318, Note_on_c, 0, 72, 66
1, 137347, Note_on_c, 0, 75, 76
1, 137348, Note_off_c, 0, 47, 64
1, 137348, Note_off_c, 0, 67, 59
1, 137360, Poly_aftertouch_c, 0, 69, 0
1, 137367, Note_on_c, 0, 43, 71
1, 137369, Control_c, 0, 67, 37
1, 137383, Note_on_c, 0, 79, 83
1, 137384, Control_c, 0, 67, 38
1, 137398, Control_c, 0, 64, 38
1, 137404, Note_off_c, 0, 72, 51
1, 137413, Control_c, 0, 64, 55
1, 137425, Note_off_c, 0, 43, 58
1, 137428, Control_c, 0, 64, 67
1, 137428, Control_c, 0, 67, 37
1, 137430, Note_on_c, 0, 48, 71
1, 137432, Note_off_c, 0, 75, 63
1, 137443, Control_c, 0, 64, 77
1, 137458, Control_c, 0, 64, 83
1, 137461, Note_off_c, 0, 48, 67
1, 137472, Control_c, 0, 64, 85
1, 137487, Control_c, 0, 64, 86
1, 137487, Control_c, 0, 67, 37
1, 137488, Note_on_c, 0, 51, 68
1, 137502, Control_c, 0, 64, 88
1, 137502, Control_c, 0, 67, 36
1, 137517, Control_c, 0, 64, 93
1, 137517, Control_c, 0, 67, 35
1, 137521, Note_off_c, 0, 51, 62
1, 137527, Note_on_c, 0, 55, 75
1, 137532, Control_c, 0, 64, 99
1, 137547, Control_c, 0, 64, 108
1, 137547, Control_c, 0, 67, 36
1, 137562, Control_c, 0, 64, 110
1, 137562, Control_c, 0, 67, 37
1, 137577, Control_c, 0, 64, 108
1, 137577, Note_off_c, 0, 79, 59
1, 137583, Note_off_c, 0, 55, 60
1, 137592, Control_c, 0, 64, 93
1, 137592, Control_c, 0, 67, 36
1, 137604, Note_on_c, 0, 56, 78
1, 137606, Control_c, 0, 64, 72
1, 137628, Control_c, 0, 64, 60
1, 137642, Note_off_c, 0, 56, 67
1, 137643, Control_c, 0, 64, 33
1, 137643, Control_c, 0, 67, 36
1, 137657, Control_c, 0, 64, 0
1, 137657, Control_c, 0, 67, 35
1, 137661, Note_on_c, 0, 55, 77
1, 137672, Control_c, 0, 67, 34
1, 137732, Control_c, 0, 67, 33
1, 137735, Note_on_c, 0, 51, 74
1, 137760, Note_on_c, 0, 67, 74
1, 137762, Control_c, 0, 67, 34
1, 137777, Control_c, 0, 67, 34
1, 137783, Note_off_c, 0, 51, 65
1, 137785, Note_on_c, 0, 48, 71
1, 137791, Control_c, 0, 67, 34
1, 137796, Note_off_c, 0, 55, 36
1, 137805, Note_on_c, 0, 71, 74
1, 137828, Note_off_c, 0, 67, 63
1, 137836, Note_on_c, 0, 74, 85
1, 137838, Note_off_c, 0, 48, 63
1, 137869, Note_on_c, 0, 43, 77
1, 137870, Note_on_c, 0, 79, 90
1, 137886, Note_off_c, 0, 71, 64
1, 137895, Control_c, 0, 64, 22
1, 137895, Control_c, 0, 67, 35
1, 137900, Note_off_c, 0, 74, 69
1, 137910, Control_c, 0, 64, 46
1, 137921, Note_off_c, 0, 79, 69
1, 137924, Control_c, 0, 64, 60
1, 137929, Note_on_c, 0, 47, 75
1, 137935, Note_off_c, 0, 43, 61
1, 137939, Control_c, 0, 64, 69
1, 137939, Control_c, 0, 67, 34
1, 137954, Control_c, 0, 64, 80
1, 137969, Control_c, 0, 64, 96
1, 137983, Control_c, 0, 64, 109
1, 137983, Control_c, 0, 67, 34
1, 137994, Note_on_c, 0, 50, 75
1, 137994, Note_off_c, 0, 47, 64
1, 137998, Control_c, 0, 64, 127
1, 137998, Control_c, 0, 67, 33
1, 138013, Control_c, 0, 67, 33
1, 138022, Note_off_c, 0, 50, 68
1, 138046, Note_on_c, 0, 55, 75
1, 138059, Control_c, 0, 67, 34
1, 138103, Control_c, 0, 67, 34
1, 138112, Note_on_c, 0, 56, 80
1, 138120, Note_off_c, 0, 55, 64
1, 138133, Control_c, 0, 64, 75
1, 138133, Control_c, 0, 67, 34
1, 138147, Note_off_c, 0, 56, 64
1, 138147, Control_c, 0, 64, 57
1, 138147, Control_c, 0, 67, 33
1, 138162, Control_c, 0, 64, 25
1, 138177, Note_on_c, 0, 55, 70
1, 138177, Control_c, 0, 64, 0
1, 138221, Control_c, 0, 67, 32
1, 138239, Note_on_c, 0, 50, 75
1, 138253, Note_on_c, 0, 67, 75
1, 138262, Note_off_c, 0, 55, 52
1, 138295, Note_on_c, 0, 47, 77
1, 138296, Note_on_c, 0, 72, 75
1, 138312, Note_off_c, 0, 50, 64
1, 138325, Control_c, 0, 67, 32
1, 138335, Note_on_c, 0, 75, 83
1, 138340, Control_c, 0, 67, 31
1, 138345, Note_off_c, 0, 67, 64
1, 138364, Note_off_c, 0, 47, 64
1, 138366, Note_on_c, 0, 43, 84
1, 138380, Note_on_c, 0, 79, 93
1, 138407, Control_c, 0, 67, 32
1, 138408, Note_off_c, 0, 72, 65
1, 138421, Note_off_c, 0, 75, 66
1, 138422, Control_c, 0, 64, 27
1, 138434, Note_off_c, 0, 79, 68
1, 138436, Note_on_c, 0, 48, 83
1, 138436, Control_c, 0, 64, 42
1, 138436, Control_c, 0, 67, 32
1, 138446, Note_off_c, 0, 43, 61
1, 138451, Control_c, 0, 64, 59
1, 138466, Control_c, 0, 64, 78
1, 138480, Control_c, 0, 64, 127
1, 138495, Control_c, 0, 67, 32
1, 138500, Note_off_c, 0, 48, 64
1, 138501, Note_on_c, 0, 51, 81
1, 138510, Control_c, 0, 67, 31
1, 138547, Note_off_c, 0, 51, 65
1, 138553, Note_on_c, 0, 55, 74
1, 138569, Control_c, 0, 67, 32
1, 138584, Control_c, 0, 67, 33
1, 138614, Control_c, 0, 67, 32
1, 138627, Note_on_c, 0, 56, 78
1, 138629, Control_c, 0, 67, 31
1, 138632, Note_off_c, 0, 55, 63
1, 138644, Control_c, 0, 64, 95
1, 138644, Control_c, 0, 67, 30
1, 138659, Control_c, 0, 64, 62
1, 138659, Control_c, 0, 67, 28
1, 138662, Note_off_c, 0, 56, 66
1, 138673, Control_c, 0, 64, 32
1, 138673, Control_c, 0, 67, 26
1, 138677, Note_on_c, 0, 55, 71
1, 138688, Control_c, 0, 64, 0
1, 138688, Control_c, 0, 67, 25
1, 138703, Control_c, 0, 67, 24
1, 138718, Control_c, 0, 67, 21
1, 138733, Control_c, 0, 67, 20
1, 138742, Note_on_c, 0, 51, 82
1, 138747, Control_c, 0, 67, 18
1, 138762, Control_c, 0, 67, 15
1, 138765, Note_off_c, 0, 55, 62
1, 138777, Control_c, 0, 67, 14
1, 138792, Control_c, 0, 67, 12
1, 138806, Control_c, 0, 67, 8
1, 138810, Note_on_c, 0, 48, 76
1, 138815, Note_off_c, 0, 51, 64
1, 138821, Control_c, 0, 67, 0
1, 138853, Note_on_c, 0, 67, 88
1, 138854, Note_on_c, 0, 74, 72
1, 138856, Note_on_c, 0, 79, 82
1, 138857, Note_on_c, 0, 71, 70
1, 138873, Note_on_c, 0, 43, 102
1, 138888, Note_off_c, 0, 48, 65
1, 138906, Note_on_c, 0, 77, 10
1, 138907, Note_off_c, 0, 77, 127
1, 138924, Note_off_c, 0, 67, 66
1, 138929, Note_off_c, 0, 43, 66
1, 138957, Note_off_c, 0, 74, 67
1, 138961, Note_off_c, 0, 71, 66
1, 138984, Note_off_c, 0, 79, 66
1, 139431, Note_on_c, 0, 83, 88
1, 139434, Note_on_c, 0, 74, 84
1, 139434, Note_on_c, 0, 79, 78
1, 139437, Note_on_c, 0, 43, 87
1, 139443, Note_on_c, 0, 55, 85
1, 139446, Note_on_c, 0, 50, 83
1, 139449, Note_on_c, 0, 47, 79
1, 139522, Note_off_c, 0, 55, 67
1, 139535, Note_off_c, 0, 43, 63
1, 139544, Note_off_c, 0, 83, 67
1, 139550, Note_off_c, 0, 50, 68
1, 139556, Note_off_c, 0, 47, 67
1, 139558, Note_off_c, 0, 74, 66
1, 139574, Note_off_c, 0, 79, 59
1, 140084, Note_on_c, 0, 55, 80
1, 140087, Note_on_c, 0, 50, 73
1, 140090, Note_on_c, 0, 47, 76
1, 140091, Note_on_c, 0, 43, 83
1, 140094, Note_on_c, 0, 31, 82
1, 140259, Control_c, 0, 67, 8
1, 140304, Control_c, 0, 67, 0
1, 140814, Control_c, 0, 67, 9
1, 140859, Control_c, 0, 67, 9
1, 140874, Control_c, 0, 67, 10
1, 140889, Control_c, 0, 67, 11
1, 140904, Control_c, 0, 67, 13
1, 140918, Control_c, 0, 67, 14
1, 140933, Control_c, 0, 67, 15
1, 140948, Control_c, 0, 67, 15
1, 140963, Control_c, 0, 67, 16
1, 140978, Control_c, 0, 67, 16
1, 141022, Control_c, 0, 67, 17
1, 141037, Control_c, 0, 67, 18
1, 141052, Control_c, 0, 67, 20
1, 141066, Control_c, 0, 67, 22
1, 141081, Control_c, 0, 67, 23
1, 141096, Control_c, 0, 67, 24
1, 141111, Control_c, 0, 67, 25
1, 141126, Control_c, 0, 67, 26
1, 141140, Control_c, 0, 67, 27
1, 141155, Control_c, 0, 67, 28
1, 141170, Control_c, 0, 67, 28
1, 141185, Control_c, 0, 67, 30
1, 141199, Control_c, 0, 67, 31
1, 141214, Control_c, 0, 67, 33
1, 141229, Control_c, 0, 67, 35
1, 141245, Control_c, 0, 67, 37
1, 141260, Control_c, 0, 67, 38
1, 141275, Control_c, 0, 67, 39
1, 141289, Control_c, 0, 67, 39
1, 141319, Control_c, 0, 67, 40
1, 141334, Control_c, 0, 67, 40
1, 141349, Control_c, 0, 67, 42
1, 141371, Control_c, 0, 67, 44
1, 141386, Control_c, 0, 67, 45
1, 141401, Control_c, 0, 67, 45
1, 141416, Control_c, 0, 67, 46
1, 141431, Control_c, 0, 67, 49
1, 141446, Control_c, 0, 67, 51
1, 141461, Control_c, 0, 67, 54
1, 141476, Control_c, 0, 67, 55
1, 141491, Control_c, 0, 67, 57
1, 141505, Control_c, 0, 67, 59
1, 141520, Control_c, 0, 67, 60
1, 141535, Control_c, 0, 67, 63
1, 141550, Control_c, 0, 67, 66
1, 141565, Control_c, 0, 67, 69
1, 141579, Control_c, 0, 67, 71
1, 141594, Control_c, 0, 67, 73
1, 141609, Control_c, 0, 67, 74
1, 141623, Control_c, 0, 67, 75
1, 141638, Control_c, 0, 67, 76
1, 141653, Control_c, 0, 67, 78
1, 141668, Control_c, 0, 67, 79
1, 141683, Control_c, 0, 67, 79
1, 141727, Control_c, 0, 67, 80
1, 141742, Control_c, 0, 67, 80
1, 141757, Control_c, 0, 67, 83
1, 141771, Control_c, 0, 67, 85
1, 141786, Control_c, 0, 67, 88
1, 141801, Control_c, 0, 67, 90
1, 141816, Control_c, 0, 67, 92
1, 141831, Control_c, 0, 67, 95
1, 141845, Control_c, 0, 67, 97
1, 141860, Control_c, 0, 67, 99
1, 141875, Control_c, 0, 67, 100
1, 141890, Control_c, 0, 67, 100
1, 141905, Control_c, 0, 67, 101
1, 141920, Control_c, 0, 67, 103
1, 141935, Control_c, 0, 67, 105
1, 141950, Control_c, 0, 67, 108
1, 141964, Control_c, 0, 67, 109
1, 141979, Control_c, 0, 67, 110
1, 142009, Control_c, 0, 67, 111
1, 142023, Control_c, 0, 67, 113
1, 142039, Control_c, 0, 67, 116
1, 142054, Control_c, 0, 67, 119
1, 142069, Control_c, 0, 67, 120
1, 142084, Control_c, 0, 67, 121
1, 142120, Control_c, 0, 67, 122
1, 142135, Control_c, 0, 67, 124
1, 142150, Control_c, 0, 67, 125
1, 142165, Control_c, 0, 67, 126
1, 142180, Control_c, 0, 67, 127
1, 142618, Note_off_c, 0, 31, 40
1, 142689, Note_off_c, 0, 47, 46
1, 142727, Note_off_c, 0, 43, 57
1, 142750, Note_off_c, 0, 50, 38
1, 142754, Note_off_c, 0, 55, 60
1, 143258, Note_on_c, 0, 83, 46
1, 143289, Note_on_c, 0, 80, 61
1, 143306, Note_on_c, 0, 68, 30
1, 143311, Note_off_c, 0, 83, 63
1, 143318, Note_on_c, 0, 64, 40
1, 143319, Note_off_c, 0, 80, 66
1, 143345, Note_off_c, 0, 68, 49
1, 143509, Note_on_c, 0, 83, 58
1, 143542, Note_on_c, 0, 78, 63
1, 143552, Note_on_c, 0, 59, 36
1, 143552, Note_on_c, 0, 66, 35
1, 143565, Note_off_c, 0, 83, 59
1, 143572, Note_off_c, 0, 64, 58
1, 143575, Note_off_c, 0, 78, 67
1, 143786, Note_on_c, 0, 83, 51
1, 143819, Note_on_c, 0, 76, 59
1, 143828, Note_on_c, 0, 64, 40
1, 143836, Note_on_c, 0, 56, 34
1, 143841, Note_off_c, 0, 66, 46
1, 143846, Note_off_c, 0, 76, 66
1, 143852, Note_off_c, 0, 59, 40
1, 143858, Note_off_c, 0, 83, 64
1, 143929, Control_c, 0, 67, 127
1, 143944, Control_c, 0, 67, 125
1, 144033, Control_c, 0, 67, 125
1, 144048, Control_c, 0, 67, 124
1, 144048, Note_on_c, 0, 83, 47
1, 144063, Control_c, 0, 67, 123
1, 144081, Note_off_c, 0, 56, 58
1, 144086, Note_off_c, 0, 64, 62
1, 144092, Control_c, 0, 67, 122
1, 144103, Note_on_c, 0, 71, 43
1, 144107, Control_c, 0, 67, 121
1, 144119, Note_off_c, 0, 83, 53
1, 144122, Control_c, 0, 67, 120
1, 144129, Note_off_c, 0, 71, 60
1, 144137, Control_c, 0, 67, 118
1, 144152, Control_c, 0, 67, 117
1, 144166, Control_c, 0, 67, 115
1, 144181, Control_c, 0, 67, 112
1, 144196, Control_c, 0, 67, 108
1, 144210, Control_c, 0, 67, 105
1, 144284, Note_on_c, 0, 83, 46
1, 144323, Note_on_c, 0, 68, 47
1, 144329, Note_on_c, 0, 80, 66
1, 144344, Note_off_c, 0, 83, 64
1, 144346, Note_on_c, 0, 64, 45
1, 144354, Note_off_c, 0, 80, 67
1, 144404, Note_off_c, 0, 68, 58
1, 144563, Note_on_c, 0, 83, 51
1, 144594, Note_on_c, 0, 78, 63
1, 144604, Control_c, 0, 67, 105
1, 144605, Note_on_c, 0, 66, 55
1, 144611, Note_on_c, 0, 59, 44
1, 144619, Control_c, 0, 67, 104
1, 144621, Note_off_c, 0, 83, 65
1, 144624, Note_off_c, 0, 78, 69
1, 144627, Note_off_c, 0, 64, 62
1, 144752, Control_c, 0, 67, 105
1, 144831, Note_on_c, 0, 83, 58
1, 144859, Note_off_c, 0, 59, 57
1, 144865, Note_on_c, 0, 76, 57
1, 144875, Note_on_c, 0, 64, 49
1, 144877, Note_off_c, 0, 66, 58
1, 144883, Note_on_c, 0, 56, 46
1, 144886, Note_off_c, 0, 76, 65
1, 144893, Note_off_c, 0, 83, 65
1, 145087, Note_on_c, 0, 83, 53
1, 145127, Note_on_c, 0, 71, 63
1, 145130, Note_off_c, 0, 56, 66
1, 145143, Note_off_c, 0, 64, 63
1, 145145, Control_c, 0, 67, 105
1, 145145, Note_off_c, 0, 71, 70
1, 145160, Note_off_c, 0, 83, 66
1, 145204, Control_c, 0, 67, 106
1, 145219, Control_c, 0, 67, 106
1, 145234, Control_c, 0, 67, 107
1, 145250, Control_c, 0, 67, 107
1, 145319, Note_on_c, 0, 88, 66
1, 145330, Note_on_c, 0, 64, 52
1, 145352, Note_on_c, 0, 68, 58
1, 145367, Note_on_c, 0, 83, 53
1, 145372, Note_off_c, 0, 64, 60
1, 145383, Note_off_c, 0, 88, 66
1, 145387, Note_off_c, 0, 68, 64
1, 145388, Note_off_c, 0, 83, 66
1, 145457, Control_c, 0, 67, 108
1, 145501, Control_c, 0, 67, 108
1, 145579, Note_on_c, 0, 88, 55
1, 145583, Note_on_c, 0, 64, 49
1, 145614, Note_on_c, 0, 85, 62
1, 145622, Note_on_c, 0, 69, 57
1, 145633, Note_off_c, 0, 64, 62
1, 145633, Note_off_c, 0, 88, 62
1, 145643, Note_off_c, 0, 85, 66
1, 145648, Note_off_c, 0, 69, 65
1, 145768, Control_c, 0, 67, 109
1, 145841, Note_on_c, 0, 88, 52
1, 145849, Note_on_c, 0, 64, 57
1, 145879, Note_on_c, 0, 86, 58
1, 145894, Note_on_c, 0, 71, 59
1, 145900, Note_off_c, 0, 64, 63
1, 145920, Note_off_c, 0, 88, 65
1, 145920, Note_off_c, 0, 86, 64
1, 145926, Note_off_c, 0, 71, 68
1, 145997, Control_c, 0, 67, 109
1, 146043, Control_c, 0, 67, 110
1, 146109, Note_on_c, 0, 88, 41
1, 146120, Note_on_c, 0, 64, 57
1, 146137, Note_on_c, 0, 73, 58
1, 146139, Note_on_c, 0, 85, 61
1, 146158, Note_off_c, 0, 64, 64
1, 146159, Note_off_c, 0, 73, 64
1, 146168, Note_off_c, 0, 88, 50
1, 146169, Note_off_c, 0, 85, 64
1, 146363, Note_on_c, 0, 88, 61
1, 146384, Note_on_c, 0, 64, 48
1, 146395, Note_on_c, 0, 83, 56
1, 146408, Note_on_c, 0, 74, 59
1, 146420, Note_off_c, 0, 83, 66
1, 146426, Note_off_c, 0, 88, 65
1, 146433, Note_off_c, 0, 64, 56
1, 146451, Note_off_c, 0, 74, 62
1, 146620, Note_on_c, 0, 88, 53
1, 146644, Note_on_c, 0, 64, 60
1, 146666, Note_on_c, 0, 74, 54
1, 146678, Note_off_c, 0, 88, 66
1, 146687, Control_c, 0, 67, 109
1, 146695, Note_off_c, 0, 64, 60
1, 146699, Note_off_c, 0, 74, 65
1, 146731, Control_c, 0, 67, 109
1, 146806, Control_c, 0, 67, 108
1, 146854, Note_on_c, 0, 88, 57
1, 146861, Note_on_c, 0, 64, 50
1, 146895, Control_c, 0, 67, 107
1, 146900, Note_on_c, 0, 81, 65
1, 146910, Control_c, 0, 67, 107
1, 146910, Note_on_c, 0, 73, 57
1, 146918, Note_off_c, 0, 64, 53
1, 146925, Control_c, 0, 67, 106
1, 146928, Note_off_c, 0, 81, 65
1, 146946, Note_off_c, 0, 88, 60
1, 146973, Note_off_c, 0, 73, 0
1, 146973, Note_on_c, 0, 73, 35
1, 147029, Control_c, 0, 67, 106
1, 147104, Note_on_c, 0, 85, 58
1, 147131, Note_off_c, 0, 73, 59
1, 147132, Control_c, 0, 67, 106
1, 147140, Note_off_c, 0, 85, 63
1, 147167, Note_on_c, 0, 76, 51
1, 147189, Note_off_c, 0, 76, 61
1, 147221, Control_c, 0, 67, 106
1, 147375, Note_on_c, 0, 76, 55
1, 147402, Note_on_c, 0, 61, 54
1, 147405, Note_on_c, 0, 73, 73
1, 147420, Note_off_c, 0, 76, 66
1, 147422, Note_on_c, 0, 57, 56
1, 147430, Note_off_c, 0, 73, 67
1, 147464, Note_off_c, 0, 61, 58
1, 147554, Control_c, 0, 67, 106
1, 147569, Control_c, 0, 67, 105
1, 147584, Control_c, 0, 67, 105
1, 147599, Control_c, 0, 67, 104
1, 147614, Control_c, 0, 67, 103
1, 147622, Note_on_c, 0, 76, 55
1, 147656, Note_on_c, 0, 71, 71
1, 147668, Note_on_c, 0, 59, 52
1, 147673, Note_on_c, 0, 52, 47
1, 147679, Note_off_c, 0, 71, 72
1, 147691, Note_off_c, 0, 76, 66
1, 147707, Note_off_c, 0, 57, 61
1, 147777, Control_c, 0, 67, 103
1, 147807, Control_c, 0, 67, 102
1, 147837, Control_c, 0, 67, 102
1, 147852, Control_c, 0, 67, 101
1, 147866, Control_c, 0, 67, 101
1, 147879, Note_on_c, 0, 76, 57
1, 147881, Control_c, 0, 67, 99
1, 147896, Control_c, 0, 67, 98
1, 147911, Control_c, 0, 67, 98
1, 147919, Note_on_c, 0, 69, 61
1, 147935, Note_on_c, 0, 57, 45
1, 147937, Note_off_c, 0, 69, 65
1, 147940, Note_off_c, 0, 59, 56
1, 147947, Note_on_c, 0, 49, 50
1, 147950, Note_off_c, 0, 76, 66
1, 147962, Note_off_c, 0, 52, 60
1, 147999, Control_c, 0, 67, 98
1, 148126, Control_c, 0, 67, 98
1, 148150, Note_on_c, 0, 76, 62
1, 148181, Note_on_c, 0, 64, 69
1, 148185, Control_c, 0, 67, 98
1, 148204, Note_off_c, 0, 57, 62
1, 148207, Note_off_c, 0, 64, 67
1, 148211, Note_off_c, 0, 76, 65
1, 148220, Note_off_c, 0, 49, 65
1, 148333, Control_c, 0, 67, 99
1, 148347, Control_c, 0, 67, 100
1, 148374, Note_on_c, 0, 76, 62
1, 148418, Note_on_c, 0, 61, 74
1, 148419, Note_on_c, 0, 73, 77
1, 148435, Note_on_c, 0, 57, 62
1, 148445, Note_off_c, 0, 76, 64
1, 148460, Note_off_c, 0, 73, 62
1, 148527, Note_off_c, 0, 61, 65
1, 148570, Control_c, 0, 67, 100
1, 148585, Control_c, 0, 67, 99
1, 148600, Control_c, 0, 67, 99
1, 148644, Note_on_c, 0, 76, 67
1, 148675, Note_on_c, 0, 71, 72
1, 148677, Note_on_c, 0, 59, 66
1, 148691, Note_on_c, 0, 52, 62
1, 148707, Note_off_c, 0, 71, 67
1, 148708, Note_off_c, 0, 76, 67
1, 148717, Note_off_c, 0, 57, 58
1, 148763, Control_c, 0, 67, 98
1, 148793, Control_c, 0, 67, 98
1, 148822, Control_c, 0, 67, 97
1, 148901, Note_on_c, 0, 76, 68
1, 148904, Control_c, 0, 67, 96
1, 148919, Control_c, 0, 67, 96
1, 148933, Control_c, 0, 67, 94
1, 148940, Note_on_c, 0, 69, 69
1, 148946, Note_on_c, 0, 57, 67
1, 148948, Control_c, 0, 67, 93
1, 148953, Note_off_c, 0, 52, 65
1, 148955, Note_on_c, 0, 49, 66
1, 148963, Control_c, 0, 67, 92
1, 148966, Note_off_c, 0, 69, 68
1, 148978, Control_c, 0, 67, 91
1, 148979, Note_off_c, 0, 76, 65
1, 148980, Note_off_c, 0, 59, 58
1, 148993, Control_c, 0, 67, 91
1, 149007, Control_c, 0, 67, 89
1, 149022, Control_c, 0, 67, 88
1, 149037, Control_c, 0, 67, 88
1, 149096, Control_c, 0, 67, 88
1, 149155, Control_c, 0, 67, 88
1, 149160, Note_on_c, 0, 76, 74
1, 149193, Note_on_c, 0, 64, 74
1, 149217, Note_off_c, 0, 64, 68
1, 149228, Note_off_c, 0, 76, 67
1, 149362, Note_off_c, 0, 57, 51
1, 149363, Control_c, 0, 67, 87
1, 149393, Note_on_c, 0, 81, 76
1, 149396, Note_off_c, 0, 49, 64
1, 149431, Note_on_c, 0, 69, 70
1, 149448, Note_off_c, 0, 81, 65
1, 149460, Note_off_c, 0, 69, 64
1, 149497, Control_c, 0, 67, 88
1, 149512, Control_c, 0, 67, 89
1, 149542, Control_c, 0, 67, 89
1, 149571, Control_c, 0, 67, 90
1, 149586, Control_c, 0, 67, 90
1, 149608, Control_c, 0, 67, 91
1, 149623, Control_c, 0, 67, 92
1, 149649, Note_on_c, 0, 85, 63
1, 149652, Control_c, 0, 67, 93
1, 149667, Control_c, 0, 67, 94
1, 149682, Control_c, 0, 67, 94
1, 149685, Note_on_c, 0, 73, 81
1, 149697, Control_c, 0, 67, 95
1, 149712, Control_c, 0, 67, 96
1, 149712, Note_off_c, 0, 73, 65
1, 149727, Control_c, 0, 67, 97
1, 149731, Note_off_c, 0, 85, 65
1, 149742, Control_c, 0, 67, 98
1, 149801, Control_c, 0, 67, 98
1, 149816, Control_c, 0, 67, 99
1, 149830, Control_c, 0, 67, 99
1, 149903, Note_on_c, 0, 88, 77
1, 149919, Control_c, 0, 67, 100
1, 149936, Note_on_c, 0, 79, 73
1, 149941, Note_on_c, 0, 76, 57
1, 149958, Note_on_c, 0, 73, 54
1, 149963, Control_c, 0, 67, 100
1, 149977, Note_off_c, 0, 79, 63
1, 149977, Note_off_c, 0, 88, 65
1, 149978, Control_c, 0, 67, 101
1, 149993, Control_c, 0, 67, 102
1, 150008, Control_c, 0, 67, 102
1, 150053, Control_c, 0, 67, 103
1, 150068, Control_c, 0, 67, 104
1, 150083, Control_c, 0, 67, 106
1, 150098, Control_c, 0, 67, 107
1, 150113, Control_c, 0, 67, 107
1, 150127, Control_c, 0, 67, 108
1, 150142, Control_c, 0, 67, 109
1, 150151, Note_on_c, 0, 88, 69
1, 150157, Control_c, 0, 67, 112
1, 150172, Control_c, 0, 67, 115
1, 150186, Control_c, 0, 67, 118
1, 150194, Note_on_c, 0, 79, 67
1, 150201, Control_c, 0, 67, 118
1, 150216, Control_c, 0, 67, 119
1, 150227, Note_off_c, 0, 88, 64
1, 150229, Note_off_c, 0, 79, 62
1, 150231, Control_c, 0, 67, 120
1, 150246, Control_c, 0, 67, 123
1, 150261, Control_c, 0, 67, 127
1, 150275, Control_c, 0, 67, 127
1, 150420, Note_on_c, 0, 88, 60
1, 150460, Note_on_c, 0, 79, 64
1, 150473, Note_off_c, 0, 73, 48
1, 150476, Note_on_c, 0, 74, 45
1, 150487, Note_off_c, 0, 88, 65
1, 150490, Note_on_c, 0, 71, 52
1, 150490, Note_off_c, 0, 79, 65
1, 150511, Note_off_c, 0, 76, 62
1, 150675, Note_on_c, 0, 88, 60
1, 150717, Note_on_c, 0, 79, 62
1, 150742, Note_off_c, 0, 79, 64
1, 150743, Note_off_c, 0, 88, 66
1, 150782, Note_off_c, 0, 74, 63
1, 150791, Note_off_c, 0, 71, 64
1, 150922, Note_on_c, 0, 88, 54
1, 150973, Note_on_c, 0, 78, 64
1, 150977, Note_on_c, 0, 73, 48
1, 150982, Note_on_c, 0, 70, 48
1, 150994, Note_off_c, 0, 78, 64
1, 151005, Note_off_c, 0, 88, 58
1, 151177, Note_on_c, 0, 88, 51
1, 151219, Note_on_c, 0, 79, 60
1, 151222, Note_on_c, 0, 74, 46
1, 151239, Note_on_c, 0, 71, 36
1, 151247, Note_off_c, 0, 73, 59
1, 151256, Note_off_c, 0, 88, 65
1, 151258, Note_off_c, 0, 79, 63
1, 151281, Note_off_c, 0, 70, 30
1, 151429, Note_on_c, 0, 88, 59
1, 151429, Note_off_c, 0, 71, 56
1, 151454, Note_on_c, 0, 78, 59
1, 151460, Note_on_c, 0, 70, 49
1, 151482, Note_on_c, 0, 73, 49
1, 151482, Note_off_c, 0, 78, 55
1, 151508, Note_off_c, 0, 88, 62
1, 151511, Note_off_c, 0, 70, 58
1, 151531, Note_off_c, 0, 74, 38
1, 151659, Note_on_c, 0, 88, 60
1, 151721, Note_on_c, 0, 85, 21
1, 151733, Note_on_c, 0, 70, 48
1, 151738, Note_on_c, 0, 66, 39
1, 151739, Note_off_c, 0, 88, 60
1, 151763, Note_off_c, 0, 85, 53
1, 151785, Note_off_c, 0, 66, 0
1, 151785, Note_on_c, 0, 66, 16
1, 151802, Note_off_c, 0, 70, 55
1, 151897, Note_off_c, 0, 73, 38
1, 151921, Note_on_c, 0, 86, 63
1, 152001, Note_on_c, 0, 71, 42
1, 152118, Note_off_c, 0, 71, 46
1, 152147, Note_on_c, 0, 74, 29
1, 152153, Note_off_c, 0, 66, 30
1, 152263, Note_off_c, 0, 74, 54
1, 152268, Note_on_c, 0, 71, 33
1, 152379, Note_off_c, 0, 71, 52
1, 152389, Note_on_c, 0, 74, 46
1, 152534, Note_off_c, 0, 74, 51
1, 152542, Note_on_c, 0, 79, 55
1, 152552, Note_on_c, 0, 71, 39
1, 152610, Note_off_c, 0, 86, 60
1, 152660, Note_off_c, 0, 71, 51
1, 152666, Note_on_c, 0, 74, 33
1, 152781, Note_off_c, 0, 74, 60
1, 152789, Note_on_c, 0, 71, 38
1, 152901, Note_off_c, 0, 79, 55
1, 152915, Note_off_c, 0, 71, 53
1, 152937, Note_on_c, 0, 74, 35
1, 152940, Note_on_c, 0, 81, 50
1, 152984, Note_off_c, 0, 81, 50
1, 152986, Note_on_c, 0, 79, 47
1, 153012, Note_off_c, 0, 74, 56
1, 153055, Note_on_c, 0, 70, 40
1, 153055, Note_on_c, 0, 78, 68
1, 153066, Note_off_c, 0, 79, 62
1, 153168, Note_off_c, 0, 70, 59
1, 153209, Note_on_c, 0, 73, 41
1, 153354, Note_on_c, 0, 70, 44
1, 153357, Note_off_c, 0, 73, 44
1, 153466, Note_on_c, 0, 73, 37
1, 153508, Note_off_c, 0, 70, 52
1, 153522, Note_off_c, 0, 73, 0
1, 153522, Note_on_c, 0, 73, 10
1, 153607, Note_on_c, 0, 77, 54
1, 153630, Note_on_c, 0, 71, 42
1, 153658, Note_off_c, 0, 73, 40
1, 153671, Note_off_c, 0, 78, 65
1, 153701, Note_off_c, 0, 71, 62
1, 153749, Note_on_c, 0, 74, 39
1, 153876, Note_off_c, 0, 74, 57
1, 153885, Note_on_c, 0, 71, 46
1, 153998, Note_off_c, 0, 71, 58
1, 154018, Note_on_c, 0, 74, 41
1, 154165, Note_off_c, 0, 74, 46
1, 154171, Note_on_c, 0, 78, 52
1, 154178, Note_on_c, 0, 70, 44
1, 154221, Note_off_c, 0, 77, 57
1, 154285, Note_off_c, 0, 70, 58
1, 154309, Note_on_c, 0, 73, 41
1, 154397, Control_c, 0, 64, 16
1, 154412, Control_c, 0, 64, 26
1, 154426, Control_c, 0, 64, 34
1, 154428, Note_on_c, 0, 70, 45
1, 154441, Control_c, 0, 64, 41
1, 154446, Note_off_c, 0, 73, 50
1, 154456, Control_c, 0, 64, 50
1, 154471, Control_c, 0, 64, 55
1, 154486, Control_c, 0, 64, 58
1, 154500, Control_c, 0, 64, 59
1, 154515, Control_c, 0, 64, 59
1, 154544, Control_c, 0, 64, 60
1, 154546, Note_on_c, 0, 73, 57
1, 154559, Control_c, 0, 64, 61
1, 154574, Control_c, 0, 64, 61
1, 154575, Note_off_c, 0, 70, 60
1, 154589, Control_c, 0, 64, 62
1, 154590, Note_off_c, 0, 73, 58
1, 154604, Control_c, 0, 64, 63
1, 154619, Control_c, 0, 64, 64
1, 154659, Note_off_c, 0, 78, 63
1, 154663, Control_c, 0, 64, 63
1, 154678, Control_c, 0, 64, 62
1, 154690, Note_on_c, 0, 86, 65
1, 154693, Control_c, 0, 64, 59
1, 154695, Note_on_c, 0, 71, 62
1, 154708, Control_c, 0, 64, 56
1, 154723, Control_c, 0, 64, 51
1, 154738, Control_c, 0, 64, 43
1, 154752, Control_c, 0, 64, 32
1, 154767, Control_c, 0, 64, 19
1, 154782, Control_c, 0, 64, 0
1, 154814, Note_on_c, 0, 79, 43
1, 154840, Note_off_c, 0, 86, 57
1, 154961, Note_off_c, 0, 79, 58
1, 154963, Note_on_c, 0, 86, 64
1, 154997, Control_c, 0, 64, 21
1, 155012, Control_c, 0, 64, 30
1, 155027, Control_c, 0, 64, 36
1, 155042, Control_c, 0, 64, 43
1, 155051, Note_off_c, 0, 71, 65
1, 155057, Control_c, 0, 64, 48
1, 155072, Control_c, 0, 64, 51
1, 155087, Note_on_c, 0, 79, 56
1, 155087, Control_c, 0, 64, 53
1, 155096, Note_on_c, 0, 73, 35
1, 155101, Control_c, 0, 64, 55
1, 155116, Control_c, 0, 64, 57
1, 155128, Note_off_c, 0, 73, 57
1, 155131, Control_c, 0, 64, 58
1, 155148, Note_on_c, 0, 71, 47
1, 155163, Note_off_c, 0, 86, 31
1, 155175, Control_c, 0, 64, 57
1, 155190, Control_c, 0, 64, 53
1, 155205, Control_c, 0, 64, 47
1, 155216, Note_on_c, 0, 70, 60
1, 155220, Control_c, 0, 64, 39
1, 155221, Note_on_c, 0, 85, 60
1, 155233, Note_off_c, 0, 79, 53
1, 155235, Control_c, 0, 64, 24
1, 155237, Note_off_c, 0, 71, 48
1, 155249, Control_c, 0, 64, 0
1, 155358, Note_on_c, 0, 79, 42
1, 155374, Note_off_c, 0, 85, 53
1, 155497, Note_on_c, 0, 85, 53
1, 155509, Note_off_c, 0, 79, 55
1, 155612, Note_off_c, 0, 85, 58
1, 155646, Note_on_c, 0, 79, 48
1, 155699, Note_off_c, 0, 79, 0
1, 155699, Note_on_c, 0, 79, 11
1, 155769, Note_on_c, 0, 69, 59
1, 155789, Note_off_c, 0, 79, 49
1, 155795, Note_on_c, 0, 84, 37
1, 155868, Note_off_c, 0, 70, 61
1, 155892, Note_on_c, 0, 78, 54
1, 155906, Note_off_c, 0, 84, 55
1, 155957, Note_off_c, 0, 78, 0
1, 155957, Note_on_c, 0, 78, 23
1, 156038, Note_on_c, 0, 84, 50
1, 156038, Note_off_c, 0, 78, 58
1, 156169, Note_off_c, 0, 84, 58
1, 156178, Note_on_c, 0, 78, 50
1, 156307, Note_on_c, 0, 68, 57
1, 156315, Note_on_c, 0, 83, 56
1, 156316, Note_off_c, 0, 78, 56
1, 156422, Note_off_c, 0, 69, 46
1, 156457, Note_on_c, 0, 78, 51
1, 156463, Note_off_c, 0, 83, 63
1, 156503, Note_off_c, 0, 78, 0
1, 156503, Note_on_c, 0, 78, 11
1, 156591, Note_off_c, 0, 78, 53
1, 156593, Note_on_c, 0, 83, 56
1, 156614, Control_c, 0, 64, 18
1, 156628, Control_c, 0, 64, 30
1, 156643, Control_c, 0, 64, 39
1, 156658, Control_c, 0, 64, 49
1, 156673, Control_c, 0, 64, 54
1, 156688, Control_c, 0, 64, 56
1, 156696, Note_off_c, 0, 83, 60
1, 156702, Control_c, 0, 64, 58
1, 156708, Note_on_c, 0, 78, 49
1, 156717, Control_c, 0, 64, 60
1, 156732, Control_c, 0, 64, 62
1, 156747, Control_c, 0, 64, 63
1, 156751, Note_off_c, 0, 78, 0
1, 156751, Note_on_c, 0, 78, 5
1, 156762, Control_c, 0, 64, 64
1, 156767, Note_off_c, 0, 68, 55
1, 156807, Control_c, 0, 64, 63
1, 156821, Control_c, 0, 64, 61
1, 156836, Control_c, 0, 64, 56
1, 156844, Note_on_c, 0, 67, 70
1, 156845, Note_on_c, 0, 83, 60
1, 156851, Control_c, 0, 64, 45
1, 156851, Control_c, 0, 67, 126
1, 156864, Note_off_c, 0, 78, 42
1, 156866, Control_c, 0, 64, 33
1, 156866, Control_c, 0, 67, 124
1, 156881, Control_c, 0, 64, 20
1, 156881, Control_c, 0, 67, 122
1, 156895, Control_c, 0, 64, 0
1, 156895, Control_c, 0, 67, 119
1, 156910, Control_c, 0, 67, 117
1, 156984, Note_on_c, 0, 76, 55
1, 156995, Note_off_c, 0, 83, 59
1, 157028, Control_c, 0, 67, 117
1, 157127, Note_on_c, 0, 83, 57
1, 157137, Note_off_c, 0, 76, 57
1, 157169, Control_c, 0, 67, 118
1, 157184, Control_c, 0, 67, 118
1, 157199, Control_c, 0, 67, 119
1, 157226, Note_off_c, 0, 67, 63
1, 157244, Control_c, 0, 67, 119
1, 157257, Note_on_c, 0, 69, 49
1, 157258, Note_on_c, 0, 76, 53
1, 157259, Control_c, 0, 67, 120
1, 157272, Note_off_c, 0, 83, 60
1, 157274, Control_c, 0, 67, 120
1, 157282, Note_off_c, 0, 69, 59
1, 157302, Note_on_c, 0, 67, 58
1, 157338, Note_off_c, 0, 76, 0
1, 157338, Note_on_c, 0, 76, 3
1, 157358, Note_on_c, 0, 82, 57
1, 157363, Control_c, 0, 67, 121
1, 157377, Note_off_c, 0, 76, 52
1, 157378, Note_on_c, 0, 66, 53
1, 157392, Note_off_c, 0, 67, 57
1, 157521, Note_off_c, 0, 82, 55
1, 157535, Note_on_c, 0, 76, 38
1, 157629, Control_c, 0, 67, 121
1, 157644, Control_c, 0, 67, 122
1, 157644, Note_on_c, 0, 82, 55
1, 157657, Note_off_c, 0, 76, 56
1, 157761, Note_off_c, 0, 82, 59
1, 157779, Note_on_c, 0, 76, 46
1, 157909, Note_off_c, 0, 76, 56
1, 157914, Note_on_c, 0, 82, 57
1, 157992, Control_c, 0, 67, 121
1, 158035, Note_on_c, 0, 76, 54
1, 158065, Note_off_c, 0, 82, 56
1, 158126, Control_c, 0, 67, 122
1, 158131, Note_off_c, 0, 66, 57
1, 158157, Note_off_c, 0, 76, 60
1, 158167, Note_on_c, 0, 67, 69
1, 158171, Note_on_c, 0, 83, 57
1, 158186, Control_c, 0, 67, 121
1, 158297, Note_off_c, 0, 83, 59
1, 158309, Note_on_c, 0, 76, 34
1, 158354, Note_off_c, 0, 76, 0
1, 158354, Note_on_c, 0, 76, 3
1, 158446, Note_on_c, 0, 82, 62
1, 158449, Note_on_c, 0, 66, 69
1, 158452, Note_off_c, 0, 76, 47
1, 158547, Note_off_c, 0, 67, 56
1, 158596, Note_on_c, 0, 76, 34
1, 158601, Note_off_c, 0, 82, 58
1, 158608, Control_c, 0, 67, 120
1, 158638, Control_c, 0, 67, 120
1, 158653, Control_c, 0, 67, 119
1, 158668, Control_c, 0, 67, 119
1, 158723, Note_on_c, 0, 82, 56
1, 158725, Note_off_c, 0, 76, 46
1, 158846, Control_c, 0, 67, 118
1, 158853, Note_on_c, 0, 76, 47
1, 158860, Note_off_c, 0, 82, 57
1, 158920, Control_c, 0, 67, 118
1, 158989, Note_on_c, 0, 82, 62
1, 159012, Note_off_c, 0, 76, 52
1, 159083, Control_c, 0, 67, 117
1, 159114, Note_on_c, 0, 76, 60
1, 159156, Note_off_c, 0, 66, 61
1, 159170, Note_off_c, 0, 82, 46
1, 159172, Control_c, 0, 67, 117
1, 159187, Control_c, 0, 67, 116
1, 159227, Note_off_c, 0, 76, 59
1, 159231, Control_c, 0, 67, 116
1, 159248, Note_on_c, 0, 67, 75
1, 159249, Note_on_c, 0, 83, 66
1, 159260, Control_c, 0, 67, 115
1, 159275, Control_c, 0, 67, 114
1, 159359, Note_off_c, 0, 83, 61
1, 159376, Note_on_c, 0, 76, 57
1, 159416, Control_c, 0, 67, 115
1, 159511, Note_off_c, 0, 76, 56
1, 159523, Note_on_c, 0, 66, 68
1, 159529, Note_on_c, 0, 82, 66
1, 159594, Control_c, 0, 67, 115
1, 159600, Note_off_c, 0, 67, 62
1, 159639, Control_c, 0, 67, 116
1, 159675, Note_on_c, 0, 76, 46
1, 159677, Note_off_c, 0, 82, 55
1, 159713, Control_c, 0, 67, 117
1, 159743, Control_c, 0, 67, 117
1, 159772, Control_c, 0, 67, 118
1, 159787, Control_c, 0, 67, 118
1, 159793, Note_on_c, 0, 82, 58
1, 159798, Note_off_c, 0, 76, 56
1, 159802, Control_c, 0, 67, 119
1, 159817, Control_c, 0, 67, 119
1, 159832, Control_c, 0, 67, 120
1, 159846, Control_c, 0, 67, 120
1, 159861, Control_c, 0, 67, 121
1, 159876, Control_c, 0, 67, 122
1, 159890, Control_c, 0, 67, 123
1, 159905, Control_c, 0, 67, 123
1, 159920, Control_c, 0, 67, 124
1, 159922, Note_off_c, 0, 82, 55
1, 159932, Note_on_c, 0, 76, 47
1, 159935, Control_c, 0, 67, 124
1, 159950, Control_c, 0, 67, 125
1, 159964, Control_c, 0, 67, 127
1, 159978, Note_off_c, 0, 76, 0
1, 159978, Note_on_c, 0, 76, 16
1, 159979, Control_c, 0, 67, 127
1, 160069, Note_on_c, 0, 82, 57
1, 160078, Note_off_c, 0, 76, 49
1, 160181, Note_off_c, 0, 82, 58
1, 160198, Note_on_c, 0, 76, 44
1, 160238, Note_off_c, 0, 76, 0
1, 160238, Note_on_c, 0, 76, 9
1, 160342, Note_off_c, 0, 76, 55
1, 160346, Note_on_c, 0, 82, 50
1, 160444, Note_off_c, 0, 82, 60
1, 160461, Note_on_c, 0, 76, 45
1, 160601, Note_on_c, 0, 65, 50
1, 160606, Note_on_c, 0, 81, 53
1, 160617, Note_off_c, 0, 76, 44
1, 160655, Note_off_c, 0, 66, 60
1, 160725, Note_off_c, 0, 81, 60
1, 160730, Note_on_c, 0, 75, 43
1, 160874, Note_on_c, 0, 81, 56
1, 160893, Note_off_c, 0, 75, 48
1, 160998, Note_off_c, 0, 81, 57
1, 161003, Note_on_c, 0, 75, 47
1, 161132, Note_on_c, 0, 81, 50
1, 161156, Note_off_c, 0, 75, 38
1, 161269, Note_on_c, 0, 75, 50
1, 161269, Note_off_c, 0, 81, 56
1, 161397, Note_on_c, 0, 81, 55
1, 161397, Note_off_c, 0, 75, 55
1, 161438, Note_off_c, 0, 65, 62
1, 161513, Note_off_c, 0, 81, 52
1, 161531, Note_on_c, 0, 75, 46
1, 161673, Note_on_c, 0, 80, 56
1, 161683, Note_on_c, 0, 65, 45
1, 161684, Note_off_c, 0, 75, 51
1, 161685, Note_on_c, 0, 58, 48
1, 161782, Note_off_c, 0, 80, 58
1, 161793, Note_on_c, 0, 74, 49
1, 161922, Note_on_c, 0, 80, 50
1, 161930, Note_off_c, 0, 74, 59
1, 162037, Note_off_c, 0, 80, 58
1, 162062, Note_on_c, 0, 74, 52
1, 162176, Note_off_c, 0, 74, 58
1, 162183, Note_on_c, 0, 80, 52
1, 162226, Control_c, 0, 64, 11
1, 162241, Control_c, 0, 64, 14
1, 162256, Control_c, 0, 64, 15
1, 162271, Control_c, 0, 64, 15
1, 162291, Note_off_c, 0, 80, 56
1, 162300, Control_c, 0, 64, 16
1, 162302, Note_on_c, 0, 74, 52
1, 162315, Control_c, 0, 64, 18
1, 162321, Note_off_c, 0, 58, 63
1, 162330, Control_c, 0, 64, 20
1, 162397, Control_c, 0, 64, 19
1, 162412, Control_c, 0, 64, 17
1, 162427, Control_c, 0, 64, 15
1, 162438, Note_on_c, 0, 80, 63
1, 162441, Control_c, 0, 64, 11
1, 162444, Note_on_c, 0, 59, 64
1, 162456, Control_c, 0, 64, 0
1, 162464, Note_off_c, 0, 74, 54
1, 162494, Note_off_c, 0, 65, 62
1, 162567, Note_on_c, 0, 75, 55
1, 162578, Note_off_c, 0, 80, 58
1, 162711, Note_on_c, 0, 58, 64
1, 162712, Note_on_c, 0, 80, 63
1, 162720, Note_on_c, 0, 65, 54
1, 162743, Note_off_c, 0, 75, 54
1, 162763, Note_off_c, 0, 59, 59
1, 162846, Note_on_c, 0, 74, 53
1, 162854, Note_off_c, 0, 80, 57
1, 162974, Note_on_c, 0, 80, 60
1, 162995, Note_off_c, 0, 74, 55
1, 163102, Control_c, 0, 67, 125
1, 163108, Note_off_c, 0, 80, 58
1, 163115, Note_on_c, 0, 74, 58
1, 163116, Control_c, 0, 67, 123
1, 163131, Control_c, 0, 67, 122
1, 163190, Control_c, 0, 67, 121
1, 163205, Control_c, 0, 67, 120
1, 163235, Note_on_c, 0, 80, 64
1, 163247, Note_off_c, 0, 74, 55
1, 163323, Control_c, 0, 67, 121
1, 163338, Control_c, 0, 67, 122
1, 163353, Control_c, 0, 67, 121
1, 163359, Note_on_c, 0, 74, 63
1, 163368, Control_c, 0, 67, 120
1, 163377, Note_off_c, 0, 80, 57
1, 163383, Control_c, 0, 67, 119
1, 163385, Note_off_c, 0, 58, 64
1, 163492, Note_on_c, 0, 80, 70
1, 163493, Note_on_c, 0, 59, 65
1, 163503, Note_off_c, 0, 74, 45
1, 163525, Note_off_c, 0, 65, 53
1, 163561, Control_c, 0, 67, 119
1, 163612, Note_off_c, 0, 80, 60
1, 163619, Note_on_c, 0, 75, 63
1, 163621, Control_c, 0, 67, 119
1, 163695, Control_c, 0, 67, 120
1, 163761, Note_on_c, 0, 80, 72
1, 163764, Note_on_c, 0, 58, 70
1, 163773, Note_on_c, 0, 65, 64
1, 163800, Note_off_c, 0, 59, 62
1, 163819, Note_off_c, 0, 75, 38
1, 163887, Note_on_c, 0, 74, 70
1, 163897, Note_off_c, 0, 80, 60
1, 163953, Control_c, 0, 67, 119
1, 163968, Control_c, 0, 64, 13
1, 163983, Control_c, 0, 64, 23
1, 163998, Control_c, 0, 64, 29
1, 164012, Control_c, 0, 64, 33
1, 164016, Note_on_c, 0, 77, 75
1, 164027, Control_c, 0, 64, 34
1, 164027, Control_c, 0, 67, 119
1, 164042, Control_c, 0, 64, 35
1, 164042, Control_c, 0, 67, 118
1, 164047, Note_off_c, 0, 74, 38
1, 164057, Control_c, 0, 64, 36
1, 164071, Control_c, 0, 64, 37
1, 164101, Control_c, 0, 67, 118
1, 164116, Control_c, 0, 67, 117
1, 164131, Control_c, 0, 67, 116
1, 164146, Control_c, 0, 67, 116
1, 164161, Control_c, 0, 64, 36
1, 164163, Note_on_c, 0, 68, 56
1, 164175, Control_c, 0, 64, 34
1, 164190, Control_c, 0, 64, 33
1, 164205, Control_c, 0, 64, 32
1, 164205, Control_c, 0, 67, 115
1, 164220, Control_c, 0, 64, 29
1, 164235, Control_c, 0, 64, 25
1, 164235, Note_off_c, 0, 68, 58
1, 164247, Note_off_c, 0, 65, 60
1, 164250, Control_c, 0, 64, 18
1, 164264, Control_c, 0, 64, 0
1, 164286, Note_on_c, 0, 72, 69
1, 164313, Note_off_c, 0, 77, 61
1, 164338, Control_c, 0, 67, 115
1, 164353, Control_c, 0, 67, 114
1, 164368, Control_c, 0, 67, 114
1, 164397, Note_on_c, 0, 65, 66
1, 164397, Control_c, 0, 67, 113
1, 164411, Note_off_c, 0, 72, 60
1, 164414, Control_c, 0, 67, 113
1, 164428, Control_c, 0, 67, 112
1, 164487, Control_c, 0, 67, 112
1, 164502, Control_c, 0, 67, 111
1, 164517, Control_c, 0, 67, 110
1, 164522, Note_off_c, 0, 65, 48
1, 164533, Note_on_c, 0, 68, 65
1, 164547, Control_c, 0, 67, 109
1, 164593, Note_on_c, 0, 69, 31
1, 164599, Control_c, 0, 67, 109
1, 164614, Control_c, 0, 67, 108
1, 164629, Control_c, 0, 67, 108
1, 164631, Note_off_c, 0, 69, 53
1, 164643, Control_c, 0, 67, 107
1, 164658, Control_c, 0, 67, 107
1, 164665, Note_off_c, 0, 68, 56
1, 164666, Note_off_c, 0, 58, 63
1, 164667, Note_on_c, 0, 62, 69
1, 164673, Control_c, 0, 67, 105
1, 164687, Control_c, 0, 67, 103
1, 164702, Control_c, 0, 67, 99
1, 164717, Control_c, 0, 67, 98
1, 164732, Control_c, 0, 67, 97
1, 164776, Control_c, 0, 67, 97
1, 164794, Note_on_c, 0, 65, 75
1, 164832, Note_off_c, 0, 62, 66
1, 164835, Control_c, 0, 67, 97
1, 164865, Control_c, 0, 67, 98
1, 164909, Control_c, 0, 67, 97
1, 164924, Control_c, 0, 67, 97
1, 164927, Note_on_c, 0, 56, 72
1, 165060, Note_on_c, 0, 60, 74
1, 165073, Note_off_c, 0, 56, 65
1, 165073, Control_c, 0, 67, 96
1, 165087, Control_c, 0, 67, 95
1, 165117, Control_c, 0, 67, 95
1, 165132, Control_c, 0, 67, 94
1, 165145, Note_off_c, 0, 65, 61
1, 165147, Control_c, 0, 67, 94
1, 165161, Control_c, 0, 67, 93
1, 165172, Note_on_c, 0, 53, 78
1, 165176, Control_c, 0, 67, 91
1, 165191, Control_c, 0, 67, 90
1, 165207, Control_c, 0, 67, 89
1, 165222, Control_c, 0, 67, 89
1, 165237, Control_c, 0, 67, 87
1, 165251, Control_c, 0, 67, 86
1, 165266, Control_c, 0, 67, 84
1, 165281, Control_c, 0, 67, 83
1, 165296, Control_c, 0, 67, 80
1, 165308, Note_on_c, 0, 56, 82
1, 165310, Control_c, 0, 67, 77
1, 165332, Control_c, 0, 67, 74
1, 165347, Control_c, 0, 67, 73
1, 165362, Control_c, 0, 67, 72
1, 165364, Note_off_c, 0, 53, 59
1, 165377, Control_c, 0, 67, 69
1, 165387, Note_off_c, 0, 60, 63
1, 165392, Control_c, 0, 67, 65
1, 165407, Control_c, 0, 67, 62
1, 165421, Control_c, 0, 67, 60
1, 165436, Control_c, 0, 67, 59
1, 165444, Note_on_c, 0, 46, 78
1, 165466, Control_c, 0, 67, 59
1, 165481, Control_c, 0, 67, 58
1, 165495, Note_off_c, 0, 56, 66
1, 165496, Control_c, 0, 67, 57
1, 165510, Control_c, 0, 67, 56
1, 165525, Control_c, 0, 67, 54
1, 165540, Control_c, 0, 67, 52
1, 165555, Control_c, 0, 67, 48
1, 165570, Control_c, 0, 67, 44
1, 165572, Note_on_c, 0, 48, 77
1, 165584, Control_c, 0, 67, 40
1, 165599, Control_c, 0, 67, 38
1, 165614, Control_c, 0, 67, 35
1, 165628, Control_c, 0, 67, 33
1, 165643, Control_c, 0, 67, 30
1, 165648, Note_on_c, 0, 50, 69
1, 165649, Note_off_c, 0, 46, 64
1, 165658, Control_c, 0, 67, 27
1, 165673, Control_c, 0, 67, 22
1, 165688, Control_c, 0, 67, 17
1, 165702, Note_off_c, 0, 48, 63
1, 165702, Control_c, 0, 67, 15
1, 165724, Note_off_c, 0, 50, 57
1, 165732, Control_c, 0, 67, 15
1, 165735, Note_on_c, 0, 39, 72
1, 165776, Control_c, 0, 67, 15
1, 165786, Note_on_c, 0, 55, 69
1, 165791, Control_c, 0, 67, 14
1, 165794, Note_on_c, 0, 43, 66
1, 165806, Control_c, 0, 67, 12
1, 165821, Note_on_c, 0, 58, 74
1, 165821, Control_c, 0, 67, 12
1, 165823, Note_on_c, 0, 46, 74
1, 165836, Control_c, 0, 67, 11
1, 165840, Note_on_c, 0, 51, 79
1, 165859, Note_on_c, 0, 63, 86
1, 165862, Note_off_c, 0, 39, 64
1, 165866, Control_c, 0, 67, 10
1, 165881, Control_c, 0, 64, 16
1, 165881, Control_c, 0, 67, 10
1, 165884, Note_off_c, 0, 43, 62
1, 165886, Note_off_c, 0, 51, 65
1, 165895, Control_c, 0, 64, 26
1, 165895, Control_c, 0, 67, 9
1, 165898, Note_off_c, 0, 46, 66
1, 165910, Control_c, 0, 64, 37
1, 165916, Note_off_c, 0, 58, 62
1, 165925, Control_c, 0, 64, 50
1, 165933, Note_off_c, 0, 55, 55
1, 165940, Control_c, 0, 64, 59
1, 165955, Control_c, 0, 64, 62
1, 165984, Control_c, 0, 67, 10
1, 165999, Control_c, 0, 64, 63
1, 165999, Control_c, 0, 67, 10
1, 166015, Control_c, 0, 64, 64
1, 166030, Control_c, 0, 64, 65
1, 166044, Control_c, 0, 64, 68
1, 166059, Control_c, 0, 64, 72
1, 166059, Control_c, 0, 67, 10
1, 166074, Control_c, 0, 64, 73
1, 166074, Control_c, 0, 67, 9
1, 166095, Control_c, 0, 67, 9
1, 166110, Control_c, 0, 67, 0
1, 166125, Control_c, 0, 64, 77
1, 166140, Control_c, 0, 64, 93
1, 166155, Control_c, 0, 64, 127
1, 166218, Note_off_c, 0, 63, 60
1, 166406, Control_c, 0, 64, 117
1, 166416, Note_on_c, 0, 67, 85
1, 166421, Control_c, 0, 64, 69
1, 166429, Note_on_c, 0, 61, 79
1, 166432, Note_on_c, 0, 46, 68
1, 166432, Note_on_c, 0, 63, 70
1, 166436, Control_c, 0, 64, 55
1, 166437, Note_on_c, 0, 49, 63
1, 166438, Note_on_c, 0, 43, 64
1, 166440, Note_on_c, 0, 39, 61
1, 166450, Control_c, 0, 64, 37
1, 166450, Control_c, 0, 67, 8
1, 166465, Control_c, 0, 64, 34
1, 166465, Control_c, 0, 67, 9
1, 166480, Control_c, 0, 64, 42
1, 166495, Control_c, 0, 64, 55
1, 166510, Control_c, 0, 64, 71
1, 166510, Control_c, 0, 67, 10
1, 166515, Note_off_c, 0, 67, 60
1, 166524, Control_c, 0, 64, 97
1, 166524, Control_c, 0, 67, 12
1, 166539, Control_c, 0, 64, 103
1, 166539, Control_c, 0, 67, 13
1, 166542, Note_off_c, 0, 49, 63
1, 166554, Control_c, 0, 64, 107
1, 166569, Control_c, 0, 64, 127
1, 166582, Note_off_c, 0, 46, 52
1, 166597, Note_off_c, 0, 39, 37
1, 166614, Control_c, 0, 67, 12
1, 166617, Note_off_c, 0, 43, 32
1, 166629, Control_c, 0, 67, 12
1, 166644, Control_c, 0, 67, 11
1, 166658, Control_c, 0, 67, 10
1, 166659, Note_off_c, 0, 63, 22
1, 166673, Control_c, 0, 67, 10
1, 166691, Note_off_c, 0, 61, 46
1, 166816, Note_on_c, 0, 67, 73
1, 166831, Note_on_c, 0, 49, 66
1, 166833, Note_on_c, 0, 46, 57
1, 166835, Note_on_c, 0, 63, 56
1, 166851, Note_on_c, 0, 39, 52
1, 166858, Note_on_c, 0, 43, 35
1, 166864, Note_off_c, 0, 46, 64
1, 166866, Note_off_c, 0, 67, 60
1, 166867, Note_off_c, 0, 63, 67
1, 166879, Note_on_c, 0, 60, 79
1, 166885, Note_off_c, 0, 49, 54
1, 166889, Note_off_c, 0, 39, 65
1, 166894, Note_off_c, 0, 43, 55
1, 166933, Control_c, 0, 64, 105
1, 166933, Control_c, 0, 67, 9
1, 166934, Note_on_c, 0, 63, 82
1, 166948, Control_c, 0, 64, 80
1, 166948, Control_c, 0, 67, 9
1, 166963, Control_c, 0, 64, 67
1, 166963, Control_c, 0, 67, 8
1, 166965, Note_on_c, 0, 68, 88
1, 166969, Note_on_c, 0, 48, 57
1, 166971, Note_on_c, 0, 44, 58
1, 166977, Control_c, 0, 64, 53
1, 166977, Control_c, 0, 67, 8
1, 166981, Note_on_c, 0, 39, 63
1, 166992, Control_c, 0, 64, 29
1, 166992, Control_c, 0, 67, 0
1, 167007, Control_c, 0, 64, 0
1, 167067, Control_c, 0, 67, 8
1, 167096, Control_c, 0, 67, 8
1, 167185, Control_c, 0, 67, 8
1, 167200, Control_c, 0, 67, 0
1, 167347, Control_c, 0, 64, 14
1, 167362, Control_c, 0, 64, 23
1, 167377, Control_c, 0, 64, 28
1, 167392, Control_c, 0, 64, 32
1, 167407, Control_c, 0, 64, 37
1, 167422, Control_c, 0, 64, 42
1, 167437, Control_c, 0, 64, 46
1, 167451, Control_c, 0, 64, 49
1, 167466, Control_c, 0, 64, 52
1, 167481, Control_c, 0, 64, 55
1, 167496, Control_c, 0, 64, 56
1, 167511, Control_c, 0, 64, 57
1, 167526, Control_c, 0, 64, 58
1, 167537, Note_off_c, 0, 63, 61
1, 167541, Control_c, 0, 64, 59
1, 167555, Control_c, 0, 64, 62
1, 167555, Control_c, 0, 67, 8
1, 167577, Control_c, 0, 64, 63
1, 167577, Control_c, 0, 67, 9
1, 167592, Control_c, 0, 64, 64
1, 167592, Control_c, 0, 67, 10
1, 167608, Control_c, 0, 67, 10
1, 167623, Control_c, 0, 64, 64
1, 167623, Control_c, 0, 67, 12
1, 167626, Note_off_c, 0, 60, 60
1, 167638, Control_c, 0, 67, 13
1, 167652, Control_c, 0, 64, 65
1, 167652, Control_c, 0, 67, 12
1, 167667, Control_c, 0, 67, 11
1, 167682, Control_c, 0, 67, 10
1, 167695, Note_off_c, 0, 68, 57
1, 167697, Control_c, 0, 67, 10
1, 167711, Control_c, 0, 67, 9
1, 167726, Control_c, 0, 67, 8
1, 167741, Control_c, 0, 67, 0
1, 167776, Note_off_c, 0, 48, 34
1, 167805, Note_on_c, 0, 67, 77
1, 167832, Note_off_c, 0, 39, 62
1, 167860, Note_on_c, 0, 65, 70
1, 167875, Control_c, 0, 64, 65
1, 167890, Control_c, 0, 64, 66
1, 167895, Note_off_c, 0, 67, 62
1, 167904, Control_c, 0, 64, 67
1, 167915, Note_on_c, 0, 63, 79
1, 167919, Control_c, 0, 64, 68
1, 167934, Control_c, 0, 64, 68
1, 167935, Note_off_c, 0, 65, 66
1, 167936, Note_off_c, 0, 44, 39
1, 167955, Note_on_c, 0, 39, 73
1, 167955, Note_off_c, 0, 63, 63
1, 167964, Control_c, 0, 64, 66
1, 167978, Control_c, 0, 64, 59
1, 167992, Note_on_c, 0, 41, 63
1, 167993, Control_c, 0, 64, 37
1, 168007, Note_on_c, 0, 62, 79
1, 168008, Control_c, 0, 64, 0
1, 168010, Note_on_c, 0, 44, 72
1, 168027, Note_on_c, 0, 50, 83
1, 168033, Note_on_c, 0, 58, 73
1, 168060, Note_on_c, 0, 56, 25
1, 168063, Note_off_c, 0, 50, 69
1, 168067, Control_c, 0, 64, 31
1, 168073, Note_off_c, 0, 41, 63
1, 168076, Note_off_c, 0, 39, 65
1, 168082, Control_c, 0, 64, 44
1, 168082, Control_c, 0, 67, 9
1, 168090, Note_off_c, 0, 44, 64
1, 168096, Control_c, 0, 64, 52
1, 168096, Control_c, 0, 67, 11
1, 168099, Note_off_c, 0, 56, 46
1, 168111, Control_c, 0, 64, 57
1, 168111, Control_c, 0, 67, 11
1, 168116, Note_off_c, 0, 58, 63
1, 168126, Control_c, 0, 64, 60
1, 168134, Note_off_c, 0, 62, 65
1, 168141, Control_c, 0, 64, 61
1, 168156, Control_c, 0, 64, 62
1, 168229, Control_c, 0, 64, 62
1, 168259, Control_c, 0, 64, 62
1, 168274, Control_c, 0, 67, 11
1, 168341, Control_c, 0, 67, 10
1, 168356, Control_c, 0, 64, 61
1, 168371, Control_c, 0, 64, 60
1, 168371, Control_c, 0, 67, 10
1, 168385, Control_c, 0, 64, 60
1, 168385, Control_c, 0, 67, 9
1, 168416, Control_c, 0, 67, 10
1, 168424, Note_on_c, 0, 65, 84
1, 168454, Note_off_c, 0, 65, 65
1, 168475, Control_c, 0, 64, 60
1, 168490, Control_c, 0, 64, 61
1, 168494, Note_on_c, 0, 62, 86
1, 168505, Control_c, 0, 64, 62
1, 168505, Control_c, 0, 67, 10
1, 168514, Note_on_c, 0, 65, 73
1, 168519, Note_on_c, 0, 39, 73
1, 168531, Note_on_c, 0, 41, 68
1, 168549, Note_on_c, 0, 44, 66
1, 168549, Control_c, 0, 64, 61
1, 168564, Control_c, 0, 67, 11
1, 168575, Note_on_c, 0, 70, 90
1, 168579, Control_c, 0, 64, 60
1, 168579, Control_c, 0, 67, 11
1, 168594, Control_c, 0, 64, 55
1, 168594, Control_c, 0, 67, 12
1, 168599, Note_on_c, 0, 50, 76
1, 168608, Control_c, 0, 64, 41
1, 168623, Control_c, 0, 64, 8
1, 168638, Control_c, 0, 64, 0
1, 168638, Control_c, 0, 67, 13
1, 168668, Control_c, 0, 67, 13
1, 168683, Control_c, 0, 67, 14
1, 168687, Note_off_c, 0, 65, 64
1, 168697, Control_c, 0, 67, 15
1, 168707, Note_off_c, 0, 62, 62
1, 168727, Control_c, 0, 67, 15
1, 168772, Control_c, 0, 64, 24
1, 168772, Control_c, 0, 67, 16
1, 168787, Control_c, 0, 64, 36
1, 168801, Control_c, 0, 64, 48
1, 168803, Note_off_c, 0, 41, 50
1, 168816, Control_c, 0, 64, 53
1, 168816, Control_c, 0, 67, 15
1, 168846, Control_c, 0, 64, 53
1, 168860, Control_c, 0, 64, 54
1, 168875, Control_c, 0, 64, 56
1, 168890, Control_c, 0, 64, 56
1, 168891, Note_off_c, 0, 39, 52
1, 168920, Control_c, 0, 67, 16
1, 168934, Control_c, 0, 64, 57
1, 168939, Note_off_c, 0, 50, 56
1, 168949, Control_c, 0, 64, 59
1, 168964, Control_c, 0, 67, 16
1, 168986, Note_off_c, 0, 44, 36
1, 168993, Control_c, 0, 64, 59
1, 168993, Control_c, 0, 67, 16
1, 168995, Note_on_c, 0, 68, 82
1, 169008, Control_c, 0, 64, 60
1, 169008, Control_c, 0, 67, 17
1, 169009, Note_off_c, 0, 70, 60
1, 169022, Note_on_c, 0, 39, 69
1, 169023, Control_c, 0, 64, 62
1, 169038, Control_c, 0, 64, 64
1, 169052, Control_c, 0, 64, 64
1, 169056, Note_on_c, 0, 43, 61
1, 169075, Note_off_c, 0, 68, 64
1, 169075, Control_c, 0, 67, 18
1, 169091, Control_c, 0, 67, 20
1, 169106, Control_c, 0, 64, 64
1, 169106, Control_c, 0, 67, 23
1, 169109, Note_on_c, 0, 46, 69
1, 169121, Control_c, 0, 64, 61
1, 169121, Control_c, 0, 67, 26
1, 169126, Note_on_c, 0, 67, 80
1, 169135, Control_c, 0, 64, 55
1, 169135, Control_c, 0, 67, 29
1, 169136, Note_on_c, 0, 58, 56
1, 169136, Note_on_c, 0, 63, 56
1, 169139, Note_on_c, 0, 51, 66
1, 169150, Control_c, 0, 64, 44
1, 169150, Control_c, 0, 67, 30
1, 169165, Control_c, 0, 64, 26
1, 169165, Control_c, 0, 67, 32
1, 169179, Control_c, 0, 64, 0
1, 169179, Control_c, 0, 67, 35
1, 169192, Note_off_c, 0, 63, 0
1, 169192, Note_on_c, 0, 63, 30
1, 169194, Control_c, 0, 67, 40
1, 169210, Control_c, 0, 67, 45
1, 169225, Control_c, 0, 67, 50
1, 169240, Control_c, 0, 67, 53
1, 169255, Control_c, 0, 67, 54
1, 169270, Control_c, 0, 67, 55
1, 169284, Control_c, 0, 67, 58
1, 169299, Control_c, 0, 67, 62
1, 169314, Control_c, 0, 67, 66
1, 169329, Control_c, 0, 67, 68
1, 169344, Control_c, 0, 67, 68
1, 169358, Control_c, 0, 67, 69
1, 169373, Control_c, 0, 67, 70
1, 169388, Control_c, 0, 67, 72
1, 169403, Control_c, 0, 67, 73
1, 169432, Control_c, 0, 67, 73
1, 169491, Control_c, 0, 67, 73
1, 169506, Control_c, 0, 67, 72
1, 169521, Control_c, 0, 67, 72
1, 169625, Control_c, 0, 67, 73
1, 169668, Note_off_c, 0, 58, 62
1, 169672, Note_off_c, 0, 39, 60
1, 169688, Note_off_c, 0, 43, 56
1, 169699, Control_c, 0, 67, 74
1, 169702, Note_off_c, 0, 63, 57
1, 169714, Control_c, 0, 67, 75
1, 169716, Note_off_c, 0, 46, 64
1, 169716, Note_off_c, 0, 51, 64
1, 169726, Note_off_c, 0, 67, 64
1, 169729, Control_c, 0, 67, 82
1, 169744, Control_c, 0, 67, 92
1, 169758, Control_c, 0, 67, 96
1, 169773, Control_c, 0, 67, 99
1, 169788, Control_c, 0, 67, 104
1, 169802, Control_c, 0, 67, 110
1, 169817, Control_c, 0, 67, 118
1, 169839, Control_c, 0, 67, 126
1, 169854, Control_c, 0, 67, 127
1, 170268, Note_on_c, 0, 74, 49
1, 170280, Note_on_c, 0, 68, 25
1, 170283, Note_on_c, 0, 58, 37
1, 170291, Note_on_c, 0, 65, 31
1, 170331, Note_off_c, 0, 58, 63
1, 170343, Note_off_c, 0, 65, 64
1, 170343, Note_off_c, 0, 68, 58
1, 170693, Note_on_c, 0, 77, 55
1, 170820, Note_off_c, 0, 74, 48
1, 170850, Note_on_c, 0, 82, 52
1, 170858, Note_on_c, 0, 58, 42
1, 170861, Note_on_c, 0, 68, 41
1, 170879, Note_on_c, 0, 65, 22
1, 170884, Note_off_c, 0, 77, 61
1, 170896, Note_off_c, 0, 68, 55
1, 170916, Note_off_c, 0, 65, 50
1, 170918, Note_off_c, 0, 58, 56
1, 171266, Note_on_c, 0, 80, 51
1, 171284, Note_on_c, 0, 62, 36
1, 171396, Note_off_c, 0, 82, 53
1, 171425, Note_on_c, 0, 63, 38
1, 171437, Note_on_c, 0, 79, 33
1, 171448, Note_off_c, 0, 80, 34
1, 171455, Note_off_c, 0, 62, 37
1, 171511, Note_off_c, 0, 79, 0
1, 171511, Note_on_c, 0, 79, 3
1, 171737, Note_off_c, 0, 63, 57
1, 171795, Note_off_c, 0, 79, 54
1, 172096, Note_on_c, 0, 58, 64
1, 172102, Note_on_c, 0, 80, 63
1, 172103, Note_on_c, 0, 84, 59
1, 172141, Note_off_c, 0, 80, 62
1, 172149, Note_off_c, 0, 58, 58
1, 172151, Note_off_c, 0, 84, 63
1, 172221, Note_on_c, 0, 79, 69
1, 172224, Note_on_c, 0, 60, 67
1, 172226, Note_on_c, 0, 82, 65
1, 172261, Note_off_c, 0, 82, 61
1, 172263, Note_off_c, 0, 79, 61
1, 172268, Note_off_c, 0, 60, 61
1, 172293, Control_c, 0, 67, 125
1, 172308, Control_c, 0, 67, 124
1, 172323, Control_c, 0, 67, 123
1, 172338, Control_c, 0, 67, 122
1, 172344, Note_on_c, 0, 77, 66
1, 172346, Note_on_c, 0, 62, 59
1, 172346, Note_on_c, 0, 80, 62
1, 172352, Control_c, 0, 67, 119
1, 172367, Control_c, 0, 67, 116
1, 172380, Note_off_c, 0, 80, 62
1, 172382, Control_c, 0, 67, 115
1, 172391, Note_off_c, 0, 77, 58
1, 172398, Control_c, 0, 67, 115
1, 172404, Note_off_c, 0, 62, 56
1, 172413, Control_c, 0, 67, 113
1, 172427, Control_c, 0, 67, 112
1, 172442, Control_c, 0, 67, 109
1, 172457, Control_c, 0, 67, 109
1, 172495, Note_on_c, 0, 79, 57
1, 172498, Note_on_c, 0, 75, 57
1, 172504, Note_on_c, 0, 63, 49
1, 172665, Control_c, 0, 67, 108
1, 172674, Note_off_c, 0, 79, 37
1, 172710, Note_off_c, 0, 63, 36
1, 172762, Note_off_c, 0, 75, 62
1, 172850, Control_c, 0, 67, 108
1, 172968, Control_c, 0, 67, 109
1, 173057, Control_c, 0, 67, 110
1, 173072, Control_c, 0, 67, 111
1, 173087, Control_c, 0, 67, 112
1, 173145, Control_c, 0, 67, 112
1, 173160, Note_on_c, 0, 80, 55
1, 173160, Control_c, 0, 67, 113
1, 173165, Note_on_c, 0, 58, 43
1, 173172, Note_on_c, 0, 84, 51
1, 173175, Control_c, 0, 67, 113
1, 173202, Note_off_c, 0, 80, 62
1, 173214, Note_off_c, 0, 58, 52
1, 173218, Note_off_c, 0, 84, 56
1, 173221, Control_c, 0, 67, 114
1, 173236, Control_c, 0, 67, 114
1, 173250, Control_c, 0, 67, 115
1, 173294, Note_on_c, 0, 82, 49
1, 173295, Control_c, 0, 67, 116
1, 173298, Note_on_c, 0, 79, 37
1, 173306, Note_on_c, 0, 60, 31
1, 173324, Control_c, 0, 67, 116
1, 173332, Note_off_c, 0, 79, 54
1, 173339, Control_c, 0, 67, 117
1, 173342, Note_off_c, 0, 82, 49
1, 173347, Note_off_c, 0, 60, 49
1, 173354, Control_c, 0, 67, 118
1, 173369, Control_c, 0, 67, 118
1, 173418, Note_on_c, 0, 80, 42
1, 173422, Note_on_c, 0, 77, 39
1, 173425, Note_on_c, 0, 62, 40
1, 173443, Control_c, 0, 67, 119
1, 173443, Note_off_c, 0, 80, 57
1, 173461, Note_off_c, 0, 77, 50
1, 173486, Note_off_c, 0, 62, 45
1, 173554, Note_on_c, 0, 79, 39
1, 173578, Note_on_c, 0, 63, 34
1, 173592, Note_on_c, 0, 75, 26
1, 173780, Note_off_c, 0, 63, 45
1, 173790, Note_off_c, 0, 79, 41
1, 173850, Control_c, 0, 67, 118
1, 173865, Control_c, 0, 67, 118
1, 173910, Control_c, 0, 67, 117
1, 173924, Control_c, 0, 67, 117
1, 173935, Note_off_c, 0, 75, 57
1, 173939, Control_c, 0, 67, 115
1, 173954, Control_c, 0, 67, 115
1, 174044, Control_c, 0, 67, 114
1, 174059, Control_c, 0, 67, 114
1, 174073, Control_c, 0, 67, 113
1, 174118, Control_c, 0, 67, 113
1, 174147, Control_c, 0, 67, 112
1, 174206, Control_c, 0, 67, 111
1, 174221, Note_on_c, 0, 84, 65
1, 174221, Control_c, 0, 67, 111
1, 174229, Note_on_c, 0, 80, 53
1, 174236, Control_c, 0, 67, 110
1, 174310, Control_c, 0, 67, 109
1, 174332, Control_c, 0, 67, 108
1, 174353, Note_on_c, 0, 79, 70
1, 174359, Note_on_c, 0, 82, 64
1, 174371, Note_off_c, 0, 80, 56
1, 174376, Control_c, 0, 67, 108
1, 174436, Control_c, 0, 67, 109
1, 174460, Note_off_c, 0, 84, 41
1, 174472, Note_off_c, 0, 79, 62
1, 174474, Note_on_c, 0, 77, 64
1, 174476, Note_on_c, 0, 80, 70
1, 174488, Note_off_c, 0, 82, 57
1, 174537, Note_off_c, 0, 80, 63
1, 174540, Control_c, 0, 67, 109
1, 174606, Note_on_c, 0, 79, 71
1, 174613, Note_on_c, 0, 75, 71
1, 174628, Control_c, 0, 67, 108
1, 174643, Control_c, 0, 67, 108
1, 174644, Note_off_c, 0, 75, 63
1, 174645, Note_off_c, 0, 77, 62
1, 174662, Note_off_c, 0, 79, 61
1, 174672, Control_c, 0, 67, 107
1, 174732, Control_c, 0, 67, 107
1, 174738, Note_on_c, 0, 84, 73
1, 174743, Note_on_c, 0, 80, 70
1, 174836, Control_c, 0, 67, 106
1, 174865, Note_on_c, 0, 79, 77
1, 174873, Note_on_c, 0, 82, 73
1, 174902, Note_off_c, 0, 80, 60
1, 174955, Control_c, 0, 67, 107
1, 174984, Control_c, 0, 67, 107
1, 174990, Note_on_c, 0, 77, 77
1, 174995, Note_off_c, 0, 79, 62
1, 174996, Note_on_c, 0, 80, 76
1, 174999, Control_c, 0, 67, 108
1, 175005, Note_off_c, 0, 84, 61
1, 175017, Note_off_c, 0, 82, 60
1, 175029, Control_c, 0, 67, 108
1, 175054, Note_off_c, 0, 80, 63
1, 175081, Control_c, 0, 67, 109
1, 175095, Control_c, 0, 67, 109
1, 175110, Control_c, 0, 64, 12
1, 175125, Control_c, 0, 64, 27
1, 175133, Note_on_c, 0, 75, 76
1, 175134, Note_on_c, 0, 79, 71
1, 175140, Control_c, 0, 64, 33
1, 175140, Control_c, 0, 67, 110
1, 175155, Control_c, 0, 64, 38
1, 175155, Control_c, 0, 67, 110
1, 175163, Note_off_c, 0, 77, 61
1, 175169, Note_off_c, 0, 75, 63
1, 175169, Control_c, 0, 64, 43
1, 175169, Control_c, 0, 67, 111
1, 175181, Note_off_c, 0, 79, 62
1, 175184, Control_c, 0, 64, 46
1, 175184, Control_c, 0, 67, 112
1, 175199, Control_c, 0, 64, 48
1, 175214, Control_c, 0, 64, 49
1, 175214, Control_c, 0, 67, 112
1, 175229, Control_c, 0, 64, 48
1, 175229, Control_c, 0, 67, 113
1, 175244, Control_c, 0, 64, 44
1, 175244, Control_c, 0, 67, 113
1, 175257, Note_on_c, 0, 82, 78
1, 175258, Note_on_c, 0, 79, 74
1, 175258, Control_c, 0, 64, 39
1, 175273, Control_c, 0, 64, 37
1, 175318, Control_c, 0, 64, 36
1, 175318, Control_c, 0, 67, 114
1, 175333, Control_c, 0, 64, 31
1, 175333, Control_c, 0, 67, 114
1, 175347, Control_c, 0, 64, 23
1, 175362, Control_c, 0, 64, 16
1, 175375, Note_on_c, 0, 80, 73
1, 175377, Control_c, 0, 64, 11
1, 175381, Note_on_c, 0, 77, 86
1, 175392, Control_c, 0, 64, 0
1, 175400, Note_off_c, 0, 82, 63
1, 175410, Note_off_c, 0, 79, 61
1, 175429, Note_off_c, 0, 80, 63
1, 175466, Control_c, 0, 67, 115
1, 175481, Control_c, 0, 67, 115
1, 175495, Control_c, 0, 67, 116
1, 175507, Note_on_c, 0, 75, 78
1, 175516, Note_on_c, 0, 79, 65
1, 175536, Note_off_c, 0, 77, 60
1, 175569, Control_c, 0, 67, 116
1, 175585, Control_c, 0, 67, 117
1, 175634, Note_on_c, 0, 77, 78
1, 175634, Note_on_c, 0, 74, 77
1, 175663, Note_off_c, 0, 75, 61
1, 175689, Control_c, 0, 64, 18
1, 175704, Control_c, 0, 64, 21
1, 175718, Control_c, 0, 64, 23
1, 175733, Control_c, 0, 64, 27
1, 175748, Control_c, 0, 64, 31
1, 175756, Note_off_c, 0, 79, 45
1, 175760, Note_on_c, 0, 75, 73
1, 175762, Control_c, 0, 64, 32
1, 175767, Note_on_c, 0, 72, 76
1, 175767, Note_off_c, 0, 74, 60
1, 175777, Note_off_c, 0, 77, 60
1, 175815, Control_c, 0, 64, 32
1, 175821, Note_off_c, 0, 75, 62
1, 175831, Control_c, 0, 64, 31
1, 175860, Control_c, 0, 64, 31
1, 175875, Control_c, 0, 64, 28
1, 175890, Control_c, 0, 64, 25
1, 175893, Note_on_c, 0, 70, 81
1, 175894, Note_on_c, 0, 74, 60
1, 175902, Note_off_c, 0, 72, 58
1, 175905, Control_c, 0, 64, 24
1, 175934, Control_c, 0, 64, 23
1, 175949, Control_c, 0, 64, 22
1, 175963, Control_c, 0, 64, 18
1, 175963, Control_c, 0, 67, 117
1, 175978, Control_c, 0, 64, 14
1, 175993, Control_c, 0, 64, 11
1, 175993, Control_c, 0, 67, 118
1, 176008, Control_c, 0, 64, 10
1, 176021, Note_on_c, 0, 68, 73
1, 176022, Note_on_c, 0, 72, 73
1, 176023, Control_c, 0, 64, 9
1, 176023, Control_c, 0, 67, 118
1, 176037, Control_c, 0, 64, 0
1, 176037, Control_c, 0, 67, 119
1, 176052, Control_c, 0, 67, 119
1, 176056, Note_off_c, 0, 70, 49
1, 176060, Note_off_c, 0, 74, 59
1, 176067, Control_c, 0, 67, 120
1, 176112, Note_off_c, 0, 68, 54
1, 176154, Note_on_c, 0, 70, 78
1, 176158, Note_on_c, 0, 67, 70
1, 176212, Note_off_c, 0, 67, 60
1, 176215, Control_c, 0, 64, 19
1, 176230, Control_c, 0, 64, 27
1, 176245, Control_c, 0, 64, 31
1, 176260, Control_c, 0, 64, 32
1, 176266, Note_off_c, 0, 72, 50
1, 176276, Note_on_c, 0, 65, 74
1, 176278, Note_on_c, 0, 68, 64
1, 176302, Note_off_c, 0, 70, 61
1, 176311, Note_off_c, 0, 68, 61
1, 176319, Control_c, 0, 64, 31
1, 176349, Control_c, 0, 64, 31
1, 176349, Control_c, 0, 67, 120
1, 176363, Control_c, 0, 64, 29
1, 176378, Control_c, 0, 64, 28
1, 176394, Control_c, 0, 64, 26
1, 176399, Note_on_c, 0, 67, 65
1, 176402, Note_on_c, 0, 63, 69
1, 176403, Note_off_c, 0, 65, 61
1, 176409, Control_c, 0, 64, 23
1, 176424, Control_c, 0, 64, 21
1, 176439, Control_c, 0, 64, 20
1, 176454, Control_c, 0, 64, 19
1, 176468, Control_c, 0, 64, 15
1, 176470, Note_off_c, 0, 63, 61
1, 176483, Control_c, 0, 64, 0
1, 176527, Note_on_c, 0, 62, 69
1, 176528, Note_on_c, 0, 65, 71
1, 176624, Note_off_c, 0, 67, 38
1, 176683, Note_off_c, 0, 62, 50
1, 176692, Note_on_c, 0, 63, 74
1, 176700, Note_on_c, 0, 48, 44
1, 176805, Note_off_c, 0, 65, 62
1, 176825, Note_off_c, 0, 48, 58
1, 176829, Note_on_c, 0, 56, 51
1, 176954, Note_off_c, 0, 56, 55
1, 176976, Note_on_c, 0, 48, 47
1, 177107, Note_on_c, 0, 56, 42
1, 177111, Note_off_c, 0, 48, 56
1, 177238, Note_off_c, 0, 56, 47
1, 177249, Note_on_c, 0, 48, 50
1, 177382, Note_on_c, 0, 56, 44
1, 177396, Note_off_c, 0, 48, 55
1, 177432, Control_c, 0, 67, 119
1, 177461, Control_c, 0, 67, 119
1, 177491, Control_c, 0, 67, 118
1, 177506, Note_off_c, 0, 56, 57
1, 177521, Control_c, 0, 67, 118
1, 177524, Note_on_c, 0, 48, 58
1, 177631, Note_off_c, 0, 63, 64
1, 177639, Control_c, 0, 67, 117
1, 177643, Note_on_c, 0, 65, 69
1, 177644, Note_on_c, 0, 56, 48
1, 177649, Note_off_c, 0, 48, 63
1, 177654, Control_c, 0, 67, 117
1, 177702, Note_off_c, 0, 65, 65
1, 177704, Note_on_c, 0, 63, 64
1, 177710, Note_off_c, 0, 56, 54
1, 177750, Note_on_c, 0, 62, 79
1, 177758, Note_on_c, 0, 46, 57
1, 177780, Note_off_c, 0, 63, 60
1, 177846, Control_c, 0, 67, 116
1, 177861, Control_c, 0, 67, 115
1, 177880, Note_off_c, 0, 46, 61
1, 177888, Note_on_c, 0, 56, 55
1, 177891, Control_c, 0, 67, 115
1, 177994, Note_off_c, 0, 56, 59
1, 178010, Note_on_c, 0, 46, 53
1, 178146, Note_on_c, 0, 56, 52
1, 178155, Note_off_c, 0, 46, 58
1, 178295, Note_on_c, 0, 61, 68
1, 178296, Note_off_c, 0, 56, 52
1, 178303, Note_on_c, 0, 46, 48
1, 178379, Note_off_c, 0, 62, 63
1, 178407, Note_off_c, 0, 46, 59
1, 178428, Note_on_c, 0, 55, 48
1, 178572, Note_off_c, 0, 55, 53
1, 178586, Note_on_c, 0, 46, 50
1, 178704, Note_off_c, 0, 46, 59
1, 178705, Note_on_c, 0, 55, 51
1, 178847, Note_on_c, 0, 60, 63
1, 178863, Note_off_c, 0, 55, 54
1, 178867, Note_on_c, 0, 44, 49
1, 178899, Control_c, 0, 67, 115
1, 178922, Note_off_c, 0, 61, 61
1, 178975, Note_off_c, 0, 44, 56
1, 178996, Note_on_c, 0, 55, 51
1, 179113, Note_off_c, 0, 55, 56
1, 179122, Note_on_c, 0, 44, 44
1, 179256, Note_on_c, 0, 55, 47
1, 179259, Note_off_c, 0, 44, 54
1, 179371, Note_off_c, 0, 55, 63
1, 179402, Note_on_c, 0, 44, 51
1, 179524, Note_on_c, 0, 53, 50
1, 179527, Note_off_c, 0, 44, 59
1, 179658, Note_off_c, 0, 53, 61
1, 179662, Note_on_c, 0, 44, 57
1, 179678, Control_c, 0, 67, 115
1, 179692, Control_c, 0, 67, 114
1, 179722, Control_c, 0, 67, 114
1, 179733, Note_off_c, 0, 60, 64
1, 179737, Control_c, 0, 67, 113
1, 179769, Note_off_c, 0, 44, 58
1, 179781, Control_c, 0, 67, 113
1, 179791, Note_on_c, 0, 53, 54
1, 179795, Note_on_c, 0, 62, 56
1, 179831, Note_off_c, 0, 62, 64
1, 179846, Note_on_c, 0, 60, 46
1, 179885, Note_off_c, 0, 53, 59
1, 179895, Note_off_c, 0, 60, 63
1, 179902, Note_on_c, 0, 58, 63
1, 179907, Note_on_c, 0, 43, 57
1, 180026, Note_off_c, 0, 43, 53
1, 180037, Note_on_c, 0, 53, 52
1, 180154, Note_on_c, 0, 43, 49
1, 180160, Note_off_c, 0, 53, 60
1, 180196, Control_c, 0, 67, 112
1, 180210, Control_c, 0, 67, 112
1, 180255, Control_c, 0, 67, 111
1, 180259, Note_off_c, 0, 58, 63
1, 180284, Control_c, 0, 67, 111
1, 180287, Note_on_c, 0, 60, 53
1, 180308, Note_on_c, 0, 53, 47
1, 180309, Note_off_c, 0, 43, 59
1, 180321, Control_c, 0, 67, 110
1, 180332, Note_off_c, 0, 60, 64
1, 180353, Note_on_c, 0, 62, 67
1, 180371, Note_off_c, 0, 53, 58
1, 180417, Note_on_c, 0, 63, 60
1, 180421, Note_off_c, 0, 62, 63
1, 180434, Note_on_c, 0, 43, 54
1, 180555, Note_on_c, 0, 51, 48
1, 180561, Note_off_c, 0, 43, 59
1, 180690, Note_on_c, 0, 43, 57
1, 180698, Note_off_c, 0, 51, 61
1, 180737, Control_c, 0, 67, 110
1, 180752, Control_c, 0, 67, 109
1, 180773, Note_off_c, 0, 63, 66
1, 180805, Note_on_c, 0, 65, 58
1, 180811, Control_c, 0, 67, 108
1, 180821, Note_on_c, 0, 51, 59
1, 180834, Note_off_c, 0, 43, 61
1, 180840, Control_c, 0, 67, 108
1, 180845, Note_off_c, 0, 65, 65
1, 180855, Control_c, 0, 67, 107
1, 180856, Note_on_c, 0, 67, 70
1, 180863, Note_off_c, 0, 51, 66
1, 180921, Note_on_c, 0, 68, 64
1, 180924, Note_off_c, 0, 67, 62
1, 180929, Control_c, 0, 67, 107
1, 180934, Note_on_c, 0, 41, 60
1, 180958, Control_c, 0, 67, 106
1, 181003, Control_c, 0, 67, 106
1, 181068, Note_on_c, 0, 50, 57
1, 181080, Note_off_c, 0, 41, 60
1, 181199, Note_on_c, 0, 41, 54
1, 181204, Control_c, 0, 67, 106
1, 181208, Note_off_c, 0, 50, 54
1, 181263, Control_c, 0, 67, 107
1, 181338, Note_on_c, 0, 50, 51
1, 181348, Note_off_c, 0, 41, 61
1, 181367, Control_c, 0, 67, 106
1, 181486, Note_on_c, 0, 67, 61
1, 181486, Note_off_c, 0, 50, 47
1, 181487, Note_on_c, 0, 39, 53
1, 181561, Note_off_c, 0, 68, 57
1, 181602, Note_on_c, 0, 43, 61
1, 181619, Control_c, 0, 67, 107
1, 181670, Note_off_c, 0, 39, 41
1, 181707, Control_c, 0, 67, 107
1, 181746, Note_on_c, 0, 46, 61
1, 181752, Control_c, 0, 67, 108
1, 181775, Note_off_c, 0, 43, 58
1, 181834, Control_c, 0, 67, 108
1, 181880, Note_on_c, 0, 51, 60
1, 181886, Note_off_c, 0, 46, 58
1, 181952, Control_c, 0, 67, 108
1, 181998, Control_c, 0, 67, 107
1, 182012, Note_on_c, 0, 46, 55
1, 182016, Note_off_c, 0, 51, 61
1, 182016, Note_on_c, 0, 65, 64
1, 182027, Note_off_c, 0, 67, 61
1, 182028, Control_c, 0, 67, 107
1, 182058, Control_c, 0, 67, 106
1, 182140, Note_on_c, 0, 70, 67
1, 182167, Note_off_c, 0, 65, 62
1, 182279, Note_on_c, 0, 69, 71
1, 182309, Control_c, 0, 67, 107
1, 182320, Note_off_c, 0, 70, 57
1, 182323, Control_c, 0, 67, 107
1, 182368, Control_c, 0, 67, 108
1, 182392, Note_on_c, 0, 72, 64
1, 182398, Control_c, 0, 67, 108
1, 182422, Note_off_c, 0, 69, 55
1, 182483, Note_off_c, 0, 46, 65
1, 182544, Note_on_c, 0, 70, 68
1, 182568, Note_off_c, 0, 72, 57
1, 182613, Control_c, 0, 67, 109
1, 182672, Note_on_c, 0, 74, 63
1, 182681, Note_on_c, 0, 58, 49
1, 182717, Note_off_c, 0, 70, 47
1, 182797, Note_off_c, 0, 74, 63
1, 182809, Note_on_c, 0, 72, 61
1, 182814, Note_on_c, 0, 57, 54
1, 182819, Note_off_c, 0, 58, 53
1, 182937, Note_on_c, 0, 75, 66
1, 182950, Note_on_c, 0, 60, 62
1, 182967, Note_off_c, 0, 72, 60
1, 182976, Note_off_c, 0, 57, 58
1, 183070, Note_on_c, 0, 74, 67
1, 183080, Note_on_c, 0, 58, 60
1, 183087, Note_off_c, 0, 75, 59
1, 183138, Note_off_c, 0, 60, 62
1, 183184, Note_off_c, 0, 58, 64
1, 183195, Note_on_c, 0, 77, 72
1, 183202, Note_on_c, 0, 62, 61
1, 183239, Note_off_c, 0, 74, 61
1, 183336, Note_on_c, 0, 76, 72
1, 183343, Note_on_c, 0, 60, 60
1, 183347, Note_off_c, 0, 77, 56
1, 183387, Note_off_c, 0, 62, 60
1, 183451, Control_c, 0, 67, 108
1, 183455, Note_on_c, 0, 79, 79
1, 183465, Note_on_c, 0, 63, 58
1, 183492, Note_off_c, 0, 76, 63
1, 183510, Note_off_c, 0, 60, 64
1, 183587, Note_on_c, 0, 77, 77
1, 183598, Note_off_c, 0, 79, 59
1, 183610, Note_on_c, 0, 62, 64
1, 183647, Note_off_c, 0, 63, 64
1, 183704, Control_c, 0, 67, 108
1, 183720, Note_on_c, 0, 80, 78
1, 183734, Note_on_c, 0, 65, 68
1, 183768, Note_off_c, 0, 77, 60
1, 183783, Note_off_c, 0, 62, 62
1, 183793, Control_c, 0, 67, 107
1, 183808, Control_c, 0, 67, 106
1, 183823, Control_c, 0, 67, 106
1, 183848, Note_on_c, 0, 64, 64
1, 183851, Note_on_c, 0, 79, 76
1, 183867, Control_c, 0, 67, 105
1, 183892, Note_off_c, 0, 80, 60
1, 183897, Control_c, 0, 67, 105
1, 183897, Note_off_c, 0, 65, 61
1, 183912, Control_c, 0, 67, 104
1, 183956, Control_c, 0, 67, 103
1, 183970, Note_on_c, 0, 82, 83
1, 183978, Note_on_c, 0, 67, 70
1, 183985, Control_c, 0, 67, 102
1, 184000, Note_off_c, 0, 64, 61
1, 184000, Control_c, 0, 67, 100
1, 184005, Note_off_c, 0, 79, 58
1, 184015, Control_c, 0, 67, 98
1, 184030, Control_c, 0, 67, 96
1, 184045, Control_c, 0, 67, 91
1, 184067, Control_c, 0, 67, 88
1, 184082, Control_c, 0, 67, 87
1, 184097, Control_c, 0, 67, 86
1, 184111, Control_c, 0, 67, 85
1, 184119, Note_on_c, 0, 65, 74
1, 184119, Note_on_c, 0, 80, 82
1, 184126, Control_c, 0, 67, 81
1, 184141, Control_c, 0, 67, 76
1, 184156, Control_c, 0, 67, 72
1, 184162, Note_off_c, 0, 67, 62
1, 184171, Control_c, 0, 67, 70
1, 184215, Control_c, 0, 67, 69
1, 184230, Control_c, 0, 67, 68
1, 184242, Note_on_c, 0, 79, 80
1, 184245, Control_c, 0, 67, 67
1, 184258, Note_off_c, 0, 82, 35
1, 184259, Control_c, 0, 67, 66
1, 184363, Control_c, 0, 67, 65
1, 184379, Control_c, 0, 67, 66
1, 184384, Note_on_c, 0, 77, 78
1, 184386, Note_off_c, 0, 80, 55
1, 184394, Control_c, 0, 67, 66
1, 184401, Note_off_c, 0, 79, 47
1, 184423, Control_c, 0, 67, 66
1, 184468, Control_c, 0, 67, 66
1, 184482, Control_c, 0, 67, 67
1, 184511, Note_off_c, 0, 77, 61
1, 184513, Note_on_c, 0, 75, 72
1, 184571, Control_c, 0, 67, 67
1, 184601, Control_c, 0, 67, 67
1, 184643, Note_on_c, 0, 58, 66
1, 184649, Note_off_c, 0, 75, 64
1, 184650, Note_on_c, 0, 74, 76
1, 184660, Control_c, 0, 67, 67
1, 184675, Control_c, 0, 67, 68
1, 184690, Control_c, 0, 67, 69
1, 184734, Control_c, 0, 67, 68
1, 184749, Control_c, 0, 67, 69
1, 184764, Control_c, 0, 67, 69
1, 184774, Note_on_c, 0, 84, 74
1, 184779, Control_c, 0, 67, 70
1, 184794, Control_c, 0, 67, 71
1, 184815, Control_c, 0, 67, 71
1, 184829, Note_off_c, 0, 74, 62
1, 184845, Control_c, 0, 67, 72
1, 184875, Control_c, 0, 67, 73
1, 184889, Control_c, 0, 67, 73
1, 184908, Note_on_c, 0, 82, 77
1, 184948, Control_c, 0, 67, 74
1, 184963, Control_c, 0, 67, 74
1, 184966, Note_off_c, 0, 84, 56
1, 185021, Note_on_c, 0, 80, 75
1, 185022, Control_c, 0, 67, 75
1, 185037, Control_c, 0, 67, 75
1, 185052, Control_c, 0, 67, 76
1, 185155, Note_off_c, 0, 58, 61
1, 185163, Note_on_c, 0, 79, 71
1, 185167, Note_on_c, 0, 67, 59
1, 185171, Note_on_c, 0, 63, 59
1, 185171, Control_c, 0, 67, 75
1, 185192, Note_off_c, 0, 80, 60
1, 185199, Note_off_c, 0, 82, 45
1, 185201, Control_c, 0, 67, 75
1, 185203, Note_off_c, 0, 65, 65
1, 185216, Control_c, 0, 67, 74
1, 185294, Note_on_c, 0, 80, 79
1, 185319, Control_c, 0, 67, 75
1, 185334, Control_c, 0, 67, 77
1, 185340, Note_off_c, 0, 79, 58
1, 185349, Control_c, 0, 67, 78
1, 185364, Control_c, 0, 67, 78
1, 185379, Control_c, 0, 67, 79
1, 185393, Control_c, 0, 67, 79
1, 185408, Control_c, 0, 67, 80
1, 185417, Note_on_c, 0, 82, 73
1, 185423, Control_c, 0, 67, 81
1, 185438, Control_c, 0, 67, 84
1, 185448, Note_off_c, 0, 80, 58
1, 185453, Control_c, 0, 67, 88
1, 185468, Control_c, 0, 67, 94
1, 185471, Note_off_c, 0, 63, 65
1, 185477, Note_off_c, 0, 67, 64
1, 185483, Control_c, 0, 67, 98
1, 185497, Control_c, 0, 67, 100
1, 185512, Control_c, 0, 67, 103
1, 185527, Control_c, 0, 67, 105
1, 185542, Control_c, 0, 67, 108
1, 185543, Note_on_c, 0, 83, 67
1, 185564, Control_c, 0, 67, 110
1, 185569, Note_off_c, 0, 82, 60
1, 185579, Control_c, 0, 67, 111
1, 185594, Control_c, 0, 67, 113
1, 185609, Control_c, 0, 67, 114
1, 185624, Control_c, 0, 67, 116
1, 185638, Control_c, 0, 67, 118
1, 185653, Control_c, 0, 67, 119
1, 185668, Control_c, 0, 67, 119
1, 185683, Control_c, 0, 67, 120
1, 185692, Note_on_c, 0, 84, 69
1, 185694, Note_on_c, 0, 75, 60
1, 185698, Control_c, 0, 67, 120
1, 185712, Control_c, 0, 67, 121
1, 185718, Note_off_c, 0, 83, 57
1, 185727, Control_c, 0, 67, 121
1, 185742, Control_c, 0, 67, 122
1, 185757, Control_c, 0, 67, 125
1, 185772, Control_c, 0, 67, 127
1, 185820, Note_on_c, 0, 79, 56
1, 185823, Note_off_c, 0, 84, 58
1, 185944, Note_on_c, 0, 84, 65
1, 185962, Note_off_c, 0, 79, 57
1, 186040, Note_off_c, 0, 75, 61
1, 186066, Note_on_c, 0, 77, 56
1, 186074, Note_off_c, 0, 84, 58
1, 186080, Note_on_c, 0, 79, 50
1, 186097, Note_off_c, 0, 77, 53
1, 186121, Note_on_c, 0, 75, 55
1, 186180, Note_on_c, 0, 74, 54
1, 186183, Note_on_c, 0, 84, 58
1, 186189, Note_off_c, 0, 79, 44
1, 186194, Note_off_c, 0, 75, 58
1, 186329, Note_off_c, 0, 84, 54
1, 186332, Note_on_c, 0, 77, 55
1, 186383, Note_off_c, 0, 74, 66
1, 186460, Note_on_c, 0, 84, 55
1, 186473, Note_off_c, 0, 77, 55
1, 186592, Note_on_c, 0, 77, 56
1, 186648, Note_off_c, 0, 84, 51
1, 186720, Note_on_c, 0, 37, 61
1, 186721, Note_on_c, 0, 82, 57
1, 186767, Note_off_c, 0, 77, 42
1, 186860, Note_on_c, 0, 77, 58
1, 186860, Note_off_c, 0, 82, 63
1, 186984, Note_off_c, 0, 77, 56
1, 186990, Note_on_c, 0, 82, 59
1, 187102, Note_off_c, 0, 37, 61
1, 187118, Note_off_c, 0, 82, 62
1, 187124, Note_on_c, 0, 39, 45
1, 187125, Note_on_c, 0, 77, 58
1, 187163, Note_off_c, 0, 39, 51
1, 187188, Note_on_c, 0, 37, 48
1, 187224, Note_off_c, 0, 77, 55
1, 187233, Note_off_c, 0, 37, 63
1, 187242, Note_on_c, 0, 36, 56
1, 187245, Note_on_c, 0, 82, 57
1, 187372, Note_off_c, 0, 82, 56
1, 187380, Note_on_c, 0, 76, 56
1, 187450, Note_off_c, 0, 36, 62
1, 187498, Note_on_c, 0, 82, 59
1, 187511, Note_off_c, 0, 76, 58
1, 187629, Note_off_c, 0, 82, 60
1, 187631, Note_on_c, 0, 76, 57
1, 187762, Note_on_c, 0, 72, 69
1, 187768, Note_on_c, 0, 80, 66
1, 187802, Note_off_c, 0, 76, 53
1, 187904, Note_on_c, 0, 75, 65
1, 187915, Note_off_c, 0, 80, 59
1, 187930, Control_c, 0, 67, 127
1, 187945, Control_c, 0, 67, 125
1, 187959, Control_c, 0, 67, 124
1, 187989, Control_c, 0, 67, 124
1, 188004, Control_c, 0, 67, 123
1, 188018, Control_c, 0, 67, 122
1, 188033, Note_on_c, 0, 80, 64
1, 188033, Control_c, 0, 67, 122
1, 188045, Note_off_c, 0, 75, 59
1, 188048, Control_c, 0, 67, 121
1, 188077, Control_c, 0, 67, 120
1, 188107, Control_c, 0, 67, 119
1, 188122, Control_c, 0, 67, 118
1, 188133, Note_off_c, 0, 72, 63
1, 188137, Control_c, 0, 67, 116
1, 188151, Control_c, 0, 67, 116
1, 188153, Note_on_c, 0, 74, 55
1, 188164, Note_on_c, 0, 75, 66
1, 188166, Note_off_c, 0, 80, 60
1, 188175, Note_off_c, 0, 74, 63
1, 188181, Control_c, 0, 67, 115
1, 188196, Control_c, 0, 67, 114
1, 188211, Control_c, 0, 67, 113
1, 188213, Note_on_c, 0, 72, 60
1, 188225, Control_c, 0, 67, 113
1, 188240, Control_c, 0, 67, 112
1, 188255, Control_c, 0, 67, 111
1, 188265, Note_off_c, 0, 75, 62
1, 188267, Note_on_c, 0, 70, 65
1, 188267, Note_on_c, 0, 80, 65
1, 188270, Control_c, 0, 67, 110
1, 188273, Note_off_c, 0, 72, 62
1, 188285, Control_c, 0, 67, 107
1, 188300, Control_c, 0, 67, 106
1, 188330, Control_c, 0, 67, 105
1, 188344, Control_c, 0, 67, 104
1, 188359, Control_c, 0, 67, 102
1, 188374, Control_c, 0, 67, 99
1, 188386, Note_on_c, 0, 74, 59
1, 188389, Control_c, 0, 67, 99
1, 188404, Note_off_c, 0, 80, 60
1, 188471, Note_off_c, 0, 70, 65
1, 188479, Control_c, 0, 67, 99
1, 188527, Note_on_c, 0, 80, 67
1, 188556, Note_off_c, 0, 74, 60
1, 188648, Control_c, 0, 67, 100
1, 188663, Note_off_c, 0, 80, 60
1, 188663, Control_c, 0, 67, 101
1, 188675, Note_on_c, 0, 74, 58
1, 188790, Note_on_c, 0, 34, 74
1, 188800, Note_on_c, 0, 79, 64
1, 188805, Note_off_c, 0, 74, 55
1, 188855, Control_c, 0, 67, 100
1, 188870, Control_c, 0, 67, 100
1, 188924, Note_on_c, 0, 73, 58
1, 188936, Note_off_c, 0, 79, 58
1, 189055, Note_off_c, 0, 73, 59
1, 189062, Note_on_c, 0, 79, 65
1, 189176, Note_off_c, 0, 34, 65
1, 189185, Note_on_c, 0, 73, 63
1, 189191, Note_off_c, 0, 79, 60
1, 189197, Note_on_c, 0, 36, 56
1, 189245, Note_off_c, 0, 36, 62
1, 189250, Note_on_c, 0, 34, 61
1, 189257, Control_c, 0, 67, 99
1, 189287, Note_off_c, 0, 73, 64
1, 189319, Note_on_c, 0, 79, 65
1, 189322, Note_off_c, 0, 34, 64
1, 189324, Note_on_c, 0, 32, 69
1, 189338, Control_c, 0, 67, 99
1, 189353, Control_c, 0, 67, 98
1, 189397, Control_c, 0, 67, 98
1, 189412, Control_c, 0, 67, 97
1, 189427, Control_c, 0, 67, 97
1, 189439, Note_on_c, 0, 72, 62
1, 189442, Control_c, 0, 67, 94
1, 189457, Control_c, 0, 67, 93
1, 189461, Note_off_c, 0, 79, 57
1, 189579, Note_on_c, 0, 79, 71
1, 189590, Note_off_c, 0, 32, 64
1, 189596, Note_off_c, 0, 72, 55
1, 189620, Control_c, 0, 67, 94
1, 189635, Control_c, 0, 67, 94
1, 189679, Control_c, 0, 67, 95
1, 189694, Control_c, 0, 67, 95
1, 189709, Control_c, 0, 67, 96
1, 189710, Note_on_c, 0, 72, 61
1, 189806, Note_off_c, 0, 79, 52
1, 189838, Note_on_c, 0, 68, 80
1, 189842, Note_on_c, 0, 77, 73
1, 189860, Note_off_c, 0, 72, 56
1, 189930, Control_c, 0, 67, 95
1, 189970, Note_on_c, 0, 72, 63
1, 189986, Note_off_c, 0, 77, 57
1, 190058, Control_c, 0, 67, 95
1, 190109, Note_on_c, 0, 77, 71
1, 190128, Note_off_c, 0, 72, 60
1, 190220, Control_c, 0, 67, 94
1, 190227, Note_off_c, 0, 68, 60
1, 190234, Note_on_c, 0, 70, 64
1, 190235, Note_off_c, 0, 77, 61
1, 190240, Note_on_c, 0, 72, 64
1, 190273, Note_off_c, 0, 70, 56
1, 190291, Note_on_c, 0, 68, 66
1, 190324, Control_c, 0, 67, 95
1, 190327, Note_off_c, 0, 72, 51
1, 190345, Note_on_c, 0, 77, 64
1, 190349, Note_on_c, 0, 67, 72
1, 190354, Control_c, 0, 67, 94
1, 190366, Note_off_c, 0, 68, 58
1, 190413, Control_c, 0, 67, 95
1, 190487, Control_c, 0, 67, 96
1, 190490, Note_on_c, 0, 70, 62
1, 190494, Note_off_c, 0, 77, 58
1, 190502, Control_c, 0, 67, 97
1, 190556, Note_off_c, 0, 67, 64
1, 190576, Control_c, 0, 67, 96
1, 190591, Control_c, 0, 67, 96
1, 190606, Control_c, 0, 67, 95
1, 190615, Note_on_c, 0, 77, 69
1, 190620, Control_c, 0, 67, 94
1, 190632, Note_off_c, 0, 70, 62
1, 190664, Control_c, 0, 67, 94
1, 190679, Control_c, 0, 67, 93
1, 190694, Control_c, 0, 67, 92
1, 190709, Control_c, 0, 67, 92
1, 190738, Control_c, 0, 67, 93
1, 190753, Note_on_c, 0, 70, 61
1, 190764, Note_off_c, 0, 77, 60
1, 190886, Note_on_c, 0, 75, 70
1, 190888, Note_on_c, 0, 31, 74
1, 190893, Control_c, 0, 67, 92
1, 190897, Note_off_c, 0, 70, 61
1, 190908, Control_c, 0, 67, 92
1, 190923, Control_c, 0, 67, 91
1, 190953, Control_c, 0, 67, 92
1, 191015, Note_on_c, 0, 70, 69
1, 191028, Note_off_c, 0, 75, 60
1, 191042, Control_c, 0, 67, 92
1, 191101, Control_c, 0, 67, 92
1, 191147, Note_on_c, 0, 75, 68
1, 191155, Note_off_c, 0, 70, 61
1, 191175, Control_c, 0, 67, 91
1, 191190, Control_c, 0, 67, 91
1, 191205, Control_c, 0, 67, 90
1, 191264, Control_c, 0, 67, 90
1, 191268, Note_on_c, 0, 32, 70
1, 191268, Note_off_c, 0, 31, 64
1, 191272, Note_on_c, 0, 70, 64
1, 191279, Control_c, 0, 67, 89
1, 191293, Control_c, 0, 67, 88
1, 191308, Control_c, 0, 67, 86
1, 191317, Note_off_c, 0, 32, 60
1, 191330, Note_on_c, 0, 31, 52
1, 191351, Note_off_c, 0, 75, 38
1, 191367, Control_c, 0, 67, 86
1, 191376, Note_off_c, 0, 70, 60
1, 191379, Note_on_c, 0, 29, 82
1, 191382, Control_c, 0, 67, 85
1, 191392, Note_on_c, 0, 74, 69
1, 191397, Note_off_c, 0, 31, 63
1, 191412, Control_c, 0, 67, 85
1, 191427, Control_c, 0, 67, 84
1, 191442, Control_c, 0, 67, 83
1, 191457, Control_c, 0, 67, 81
1, 191466, Note_off_c, 0, 29, 59
1, 191472, Control_c, 0, 67, 79
1, 191480, Note_off_c, 0, 74, 63
1, 191486, Control_c, 0, 67, 79
1, 191512, Note_on_c, 0, 70, 63
1, 191613, Control_c, 0, 67, 78
1, 191643, Control_c, 0, 67, 78
1, 191657, Note_on_c, 0, 80, 71
1, 191657, Note_off_c, 0, 70, 51
1, 191658, Control_c, 0, 67, 77
1, 191668, Note_on_c, 0, 38, 76
1, 191672, Control_c, 0, 67, 75
1, 191687, Control_c, 0, 67, 72
1, 191702, Control_c, 0, 67, 70
1, 191761, Control_c, 0, 67, 69
1, 191773, Note_on_c, 0, 70, 60
1, 191776, Control_c, 0, 67, 68
1, 191791, Control_c, 0, 67, 67
1, 191805, Control_c, 0, 67, 65
1, 191817, Note_off_c, 0, 80, 54
1, 191820, Control_c, 0, 67, 65
1, 191835, Control_c, 0, 67, 64
1, 191865, Control_c, 0, 67, 64
1, 191880, Control_c, 0, 67, 63
1, 191910, Control_c, 0, 67, 63
1, 191912, Note_on_c, 0, 79, 78
1, 191919, Note_on_c, 0, 39, 73
1, 191939, Control_c, 0, 67, 62
1, 191941, Note_off_c, 0, 70, 58
1, 191954, Control_c, 0, 67, 62
1, 191969, Note_off_c, 0, 38, 58
1, 192013, Control_c, 0, 67, 61
1, 192028, Control_c, 0, 67, 60
1, 192042, Control_c, 0, 67, 59
1, 192050, Note_on_c, 0, 70, 63
1, 192072, Control_c, 0, 67, 60
1, 192087, Control_c, 0, 67, 59
1, 192116, Control_c, 0, 67, 59
1, 192131, Control_c, 0, 67, 58
1, 192146, Control_c, 0, 67, 57
1, 192161, Control_c, 0, 67, 56
1, 192175, Note_on_c, 0, 75, 69
1, 192176, Control_c, 0, 67, 55
1, 192183, Note_on_c, 0, 43, 80
1, 192190, Control_c, 0, 67, 54
1, 192195, Note_off_c, 0, 70, 57
1, 192205, Control_c, 0, 67, 53
1, 192220, Control_c, 0, 67, 51
1, 192226, Note_off_c, 0, 79, 56
1, 192235, Control_c, 0, 67, 50
1, 192239, Note_off_c, 0, 39, 62
1, 192264, Control_c, 0, 67, 50
1, 192317, Note_on_c, 0, 70, 58
1, 192317, Control_c, 0, 67, 49
1, 192351, Note_off_c, 0, 75, 61
1, 192363, Control_c, 0, 67, 50
1, 192378, Control_c, 0, 67, 50
1, 192422, Control_c, 0, 67, 51
1, 192437, Control_c, 0, 67, 51
1, 192449, Note_off_c, 0, 70, 55
1, 192452, Note_on_c, 0, 74, 68
1, 192464, Note_on_c, 0, 46, 71
1, 192481, Control_c, 0, 67, 52
1, 192488, Note_off_c, 0, 43, 62
1, 192496, Control_c, 0, 67, 52
1, 192511, Control_c, 0, 64, 21
1, 192511, Control_c, 0, 67, 52
1, 192526, Control_c, 0, 64, 37
1, 192526, Control_c, 0, 67, 51
1, 192540, Control_c, 0, 64, 49
1, 192555, Control_c, 0, 64, 58
1, 192570, Control_c, 0, 64, 62
1, 192570, Control_c, 0, 67, 50
1, 192581, Note_off_c, 0, 74, 58
1, 192585, Control_c, 0, 64, 65
1, 192586, Note_off_c, 0, 46, 62
1, 192600, Control_c, 0, 64, 66
1, 192614, Control_c, 0, 64, 67
1, 192614, Control_c, 0, 67, 51
1, 192629, Control_c, 0, 64, 67
1, 192629, Control_c, 0, 67, 51
1, 192644, Control_c, 0, 64, 68
1, 192673, Control_c, 0, 64, 66
1, 192673, Control_c, 0, 67, 51
1, 192688, Control_c, 0, 64, 60
1, 192703, Control_c, 0, 64, 50
1, 192703, Control_c, 0, 67, 50
1, 192712, Note_on_c, 0, 82, 72
1, 192717, Note_on_c, 0, 74, 63
1, 192718, Control_c, 0, 64, 31
1, 192723, Note_on_c, 0, 53, 56
1, 192732, Control_c, 0, 64, 0
1, 192837, Control_c, 0, 67, 51
1, 192852, Control_c, 0, 67, 51
1, 192855, Note_on_c, 0, 46, 61
1, 192896, Note_off_c, 0, 82, 61
1, 192911, Control_c, 0, 67, 52
1, 192970, Control_c, 0, 67, 52
1, 192986, Note_on_c, 0, 81, 74
1, 192989, Note_on_c, 0, 54, 62
1, 192990, Note_on_c, 0, 75, 68
1, 193000, Control_c, 0, 67, 52
1, 193020, Note_off_c, 0, 46, 63
1, 193042, Note_off_c, 0, 53, 43
1, 193051, Control_c, 0, 67, 53
1, 193058, Note_off_c, 0, 74, 63
1, 193066, Control_c, 0, 67, 53
1, 193096, Control_c, 0, 67, 53
1, 193111, Control_c, 0, 67, 52
1, 193114, Note_on_c, 0, 46, 65
1, 193147, Note_off_c, 0, 75, 59
1, 193171, Control_c, 0, 67, 51
1, 193186, Control_c, 0, 67, 50
1, 193200, Control_c, 0, 67, 49
1, 193215, Control_c, 0, 67, 48
1, 193224, Note_off_c, 0, 54, 49
1, 193244, Note_on_c, 0, 78, 81
1, 193245, Control_c, 0, 67, 48
1, 193248, Note_on_c, 0, 57, 66
1, 193251, Note_on_c, 0, 75, 72
1, 193260, Control_c, 0, 67, 47
1, 193275, Control_c, 0, 67, 45
1, 193276, Note_off_c, 0, 46, 62
1, 193289, Control_c, 0, 67, 42
1, 193304, Control_c, 0, 67, 40
1, 193319, Control_c, 0, 67, 39
1, 193334, Control_c, 0, 67, 38
1, 193349, Control_c, 0, 67, 37
1, 193371, Note_on_c, 0, 46, 67
1, 193378, Note_off_c, 0, 57, 45
1, 193393, Control_c, 0, 67, 38
1, 193405, Note_off_c, 0, 75, 58
1, 193502, Note_on_c, 0, 77, 76
1, 193511, Control_c, 0, 67, 38
1, 193515, Note_on_c, 0, 74, 72
1, 193516, Note_on_c, 0, 58, 66
1, 193522, Note_off_c, 0, 81, 61
1, 193526, Control_c, 0, 67, 39
1, 193540, Note_off_c, 0, 46, 64
1, 193541, Control_c, 0, 64, 34
1, 193541, Control_c, 0, 67, 38
1, 193555, Control_c, 0, 64, 47
1, 193570, Control_c, 0, 64, 58
1, 193571, Note_off_c, 0, 78, 59
1, 193574, Note_off_c, 0, 77, 63
1, 193576, Note_off_c, 0, 58, 59
1, 193585, Control_c, 0, 64, 64
1, 193585, Control_c, 0, 67, 38
1, 193600, Control_c, 0, 64, 69
1, 193615, Control_c, 0, 64, 72
1, 193630, Control_c, 0, 64, 74
1, 193640, Note_on_c, 0, 46, 68
1, 193645, Control_c, 0, 64, 78
1, 193660, Control_c, 0, 64, 84
1, 193668, Note_off_c, 0, 74, 61
1, 193674, Control_c, 0, 64, 86
1, 193689, Control_c, 0, 64, 87
1, 193689, Control_c, 0, 67, 39
1, 193719, Control_c, 0, 64, 86
1, 193734, Control_c, 0, 64, 85
1, 193749, Control_c, 0, 64, 84
1, 193763, Control_c, 0, 64, 78
1, 193763, Control_c, 0, 67, 39
1, 193768, Note_on_c, 0, 82, 77
1, 193771, Note_on_c, 0, 74, 80
1, 193778, Control_c, 0, 64, 69
1, 193794, Note_off_c, 0, 46, 62
1, 193794, Note_on_c, 0, 53, 59
1, 193800, Control_c, 0, 64, 62
1, 193800, Control_c, 0, 67, 39
1, 193815, Control_c, 0, 64, 57
1, 193829, Control_c, 0, 64, 47
1, 193844, Control_c, 0, 64, 34
1, 193859, Control_c, 0, 64, 15
1, 193874, Control_c, 0, 64, 0
1, 193874, Control_c, 0, 67, 38
1, 193886, Poly_aftertouch_c, 0, 55, 0
1, 193903, Note_on_c, 0, 46, 72
1, 193930, Note_off_c, 0, 82, 61
1, 193934, Control_c, 0, 67, 39
1, 193964, Control_c, 0, 67, 38
1, 194008, Control_c, 0, 67, 37
1, 194037, Note_on_c, 0, 81, 82
1, 194038, Control_c, 0, 67, 37
1, 194044, Note_on_c, 0, 75, 78
1, 194046, Note_on_c, 0, 54, 71
1, 194052, Note_off_c, 0, 46, 64
1, 194083, Control_c, 0, 67, 37
1, 194104, Note_off_c, 0, 74, 63
1, 194112, Note_off_c, 0, 53, 60
1, 194127, Control_c, 0, 67, 36
1, 194157, Note_on_c, 0, 46, 77
1, 194208, Note_off_c, 0, 75, 61
1, 194216, Control_c, 0, 67, 36
1, 194269, Note_off_c, 0, 54, 57
1, 194297, Note_on_c, 0, 57, 72
1, 194301, Note_on_c, 0, 78, 86
1, 194303, Note_on_c, 0, 75, 78
1, 194321, Note_off_c, 0, 46, 63
1, 194378, Control_c, 0, 67, 36
1, 194415, Note_on_c, 0, 46, 78
1, 194431, Note_off_c, 0, 57, 60
1, 194470, Note_off_c, 0, 75, 58
1, 194512, Control_c, 0, 67, 37
1, 194534, Control_c, 0, 67, 37
1, 194549, Control_c, 0, 67, 38
1, 194569, Note_on_c, 0, 77, 80
1, 194572, Note_on_c, 0, 58, 75
1, 194577, Note_on_c, 0, 74, 71
1, 194593, Control_c, 0, 67, 37
1, 194598, Note_off_c, 0, 46, 63
1, 194614, Note_off_c, 0, 81, 53
1, 194623, Note_off_c, 0, 78, 60
1, 194652, Control_c, 0, 67, 36
1, 194682, Control_c, 0, 67, 36
1, 194697, Control_c, 0, 67, 36
1, 194705, Note_on_c, 0, 46, 71
1, 194712, Note_off_c, 0, 58, 61
1, 194837, Note_on_c, 0, 76, 77
1, 194837, Note_on_c, 0, 79, 77
1, 194840, Note_on_c, 0, 58, 64
1, 194847, Note_off_c, 0, 46, 61
1, 194862, Note_off_c, 0, 74, 64
1, 194957, Note_off_c, 0, 77, 45
1, 194965, Note_on_c, 0, 46, 76
1, 194968, Note_off_c, 0, 58, 61
1, 195054, Control_c, 0, 67, 36
1, 195097, Note_on_c, 0, 77, 74
1, 195099, Note_on_c, 0, 58, 69
1, 195102, Note_on_c, 0, 80, 85
1, 195114, Note_off_c, 0, 46, 60
1, 195142, Note_off_c, 0, 76, 61
1, 195157, Control_c, 0, 67, 36
1, 195171, Note_off_c, 0, 79, 60
1, 195187, Control_c, 0, 64, 13
1, 195191, Note_off_c, 0, 77, 61
1, 195201, Control_c, 0, 64, 19
1, 195216, Control_c, 0, 64, 24
1, 195223, Note_off_c, 0, 58, 59
1, 195226, Note_on_c, 0, 46, 67
1, 195231, Control_c, 0, 64, 27
1, 195246, Control_c, 0, 64, 29
1, 195246, Control_c, 0, 67, 37
1, 195260, Control_c, 0, 64, 32
1, 195275, Control_c, 0, 64, 35
1, 195297, Control_c, 0, 64, 38
1, 195297, Control_c, 0, 67, 37
1, 195312, Control_c, 0, 64, 43
1, 195327, Control_c, 0, 64, 46
1, 195341, Control_c, 0, 64, 49
1, 195356, Control_c, 0, 64, 50
1, 195357, Note_on_c, 0, 76, 80
1, 195360, Note_on_c, 0, 79, 81
1, 195366, Note_off_c, 0, 46, 59
1, 195370, Note_on_c, 0, 58, 68
1, 195371, Control_c, 0, 64, 50
1, 195386, Control_c, 0, 64, 52
1, 195401, Control_c, 0, 64, 53
1, 195415, Control_c, 0, 64, 54
1, 195415, Control_c, 0, 67, 37
1, 195417, Note_off_c, 0, 79, 62
1, 195420, Note_off_c, 0, 80, 61
1, 195430, Control_c, 0, 64, 54
1, 195445, Control_c, 0, 64, 55
1, 195460, Control_c, 0, 67, 36
1, 195474, Note_off_c, 0, 58, 55
1, 195475, Control_c, 0, 64, 55
1, 195485, Note_on_c, 0, 46, 69
1, 195490, Control_c, 0, 64, 56
1, 195490, Control_c, 0, 67, 35
1, 195549, Control_c, 0, 64, 56
1, 195564, Control_c, 0, 64, 57
1, 195579, Control_c, 0, 64, 57
1, 195645, Note_on_c, 0, 82, 91
1, 195653, Note_on_c, 0, 79, 85
1, 195654, Control_c, 0, 64, 56
1, 195654, Note_on_c, 0, 58, 71
1, 195669, Control_c, 0, 64, 55
1, 195681, Note_off_c, 0, 46, 37
1, 195683, Control_c, 0, 64, 53
1, 195683, Control_c, 0, 67, 35
1, 195698, Control_c, 0, 64, 51
1, 195713, Control_c, 0, 64, 47
1, 195713, Control_c, 0, 67, 34
1, 195728, Control_c, 0, 64, 41
1, 195728, Control_c, 0, 67, 33
1, 195743, Control_c, 0, 64, 37
1, 195743, Control_c, 0, 67, 33
1, 195757, Control_c, 0, 64, 34
1, 195757, Control_c, 0, 67, 32
1, 195760, Note_off_c, 0, 76, 62
1, 195772, Control_c, 0, 64, 29
1, 195776, Note_on_c, 0, 46, 71
1, 195777, Note_off_c, 0, 58, 59
1, 195787, Control_c, 0, 64, 19
1, 195787, Control_c, 0, 67, 31
1, 195802, Control_c, 0, 64, 0
1, 195802, Control_c, 0, 67, 30
1, 195817, Control_c, 0, 67, 29
1, 195861, Control_c, 0, 67, 29
1, 195890, Control_c, 0, 67, 28
1, 195905, Control_c, 0, 67, 27
1, 195906, Note_on_c, 0, 58, 73
1, 195920, Control_c, 0, 67, 27
1, 195928, Note_off_c, 0, 46, 59
1, 195935, Control_c, 0, 67, 26
1, 195950, Control_c, 0, 67, 25
1, 195964, Control_c, 0, 67, 25
1, 195979, Control_c, 0, 67, 23
1, 195994, Control_c, 0, 67, 21
1, 196008, Control_c, 0, 67, 20
1, 196023, Control_c, 0, 67, 19
1, 196041, Note_on_c, 0, 46, 75
1, 196047, Control_c, 0, 67, 19
1, 196062, Note_off_c, 0, 58, 61
1, 196062, Control_c, 0, 67, 17
1, 196077, Control_c, 0, 67, 15
1, 196091, Control_c, 0, 67, 12
1, 196106, Control_c, 0, 67, 11
1, 196121, Control_c, 0, 67, 10
1, 196131, Note_off_c, 0, 79, 62
1, 196136, Control_c, 0, 67, 9
1, 196151, Control_c, 0, 67, 0
1, 196186, Note_on_c, 0, 80, 85
1, 196188, Note_on_c, 0, 77, 78
1, 196197, Note_on_c, 0, 58, 72
1, 196247, Note_off_c, 0, 46, 64
1, 196318, Note_on_c, 0, 46, 77
1, 196329, Note_off_c, 0, 58, 58
1, 196343, Note_off_c, 0, 77, 58
1, 196432, Note_on_c, 0, 77, 78
1, 196435, Note_on_c, 0, 74, 79
1, 196450, Note_on_c, 0, 58, 69
1, 196468, Note_off_c, 0, 82, 61
1, 196479, Note_off_c, 0, 77, 62
1, 196479, Note_off_c, 0, 80, 62
1, 196488, Note_off_c, 0, 74, 67
1, 196493, Note_off_c, 0, 46, 62
1, 196536, Note_on_c, 0, 46, 56
1, 196538, Note_off_c, 0, 58, 59
1, 196604, Note_off_c, 0, 46, 65
1, 196615, Note_on_c, 0, 51, 68
1, 196651, Note_on_c, 0, 67, 74
1, 196681, Note_on_c, 0, 70, 78
1, 196684, Note_on_c, 0, 55, 47
1, 196700, Note_on_c, 0, 58, 78
1, 196712, Note_on_c, 0, 75, 86
1, 196744, Control_c, 0, 64, 25
1, 196748, Note_off_c, 0, 67, 61
1, 196759, Control_c, 0, 64, 40
1, 196770, Note_off_c, 0, 55, 65
1, 196774, Control_c, 0, 64, 56
1, 196789, Note_off_c, 0, 58, 64
1, 196792, Note_off_c, 0, 51, 65
1, 196795, Control_c, 0, 64, 67
1, 196796, Note_off_c, 0, 70, 52
1, 196810, Control_c, 0, 64, 72
1, 196825, Control_c, 0, 64, 72
1, 196974, Control_c, 0, 64, 72
1, 196988, Control_c, 0, 64, 71
1, 197032, Control_c, 0, 64, 71
1, 197047, Control_c, 0, 64, 73
1, 197062, Control_c, 0, 64, 74
1, 197106, Control_c, 0, 64, 74
1, 197121, Control_c, 0, 64, 78
1, 197136, Control_c, 0, 64, 80
1, 197152, Control_c, 0, 64, 81
1, 197211, Control_c, 0, 64, 84
1, 197220, Note_off_c, 0, 75, 55
1, 197226, Control_c, 0, 64, 91
1, 197241, Control_c, 0, 64, 93
1, 197255, Control_c, 0, 64, 94
1, 197270, Control_c, 0, 64, 94
1, 197285, Control_c, 0, 64, 84
1, 197297, Note_on_c, 0, 79, 94
1, 197300, Control_c, 0, 64, 69
1, 197313, Note_on_c, 0, 75, 80
1, 197315, Control_c, 0, 64, 58
1, 197316, Note_on_c, 0, 58, 62
1, 197316, Note_on_c, 0, 73, 76
1, 197317, Note_on_c, 0, 51, 64
1, 197319, Note_on_c, 0, 55, 59
1, 197319, Note_on_c, 0, 61, 54
1, 197329, Control_c, 0, 64, 42
1, 197344, Control_c, 0, 64, 35
1, 197359, Control_c, 0, 64, 42
1, 197374, Control_c, 0, 64, 53
1, 197389, Control_c, 0, 64, 61
1, 197404, Control_c, 0, 64, 65
1, 197418, Control_c, 0, 64, 68
1, 197418, Control_c, 0, 67, 11
1, 197426, Note_off_c, 0, 79, 58
1, 197433, Control_c, 0, 64, 72
1, 197433, Control_c, 0, 67, 13
1, 197442, Note_off_c, 0, 61, 64
1, 197448, Control_c, 0, 64, 77
1, 197448, Control_c, 0, 67, 13
1, 197463, Note_off_c, 0, 58, 61
1, 197463, Control_c, 0, 64, 83
1, 197463, Control_c, 0, 67, 14
1, 197467, Note_off_c, 0, 55, 63
1, 197468, Note_off_c, 0, 51, 50
1, 197478, Control_c, 0, 64, 88
1, 197493, Control_c, 0, 64, 91
1, 197508, Control_c, 0, 67, 13
1, 197523, Control_c, 0, 64, 92
1, 197523, Control_c, 0, 67, 13
1, 197544, Control_c, 0, 64, 95
1, 197544, Control_c, 0, 67, 12
1, 197559, Control_c, 0, 64, 119
1, 197559, Control_c, 0, 67, 12
1, 197574, Control_c, 0, 64, 127
1, 197604, Control_c, 0, 67, 11
1, 197605, Note_off_c, 0, 75, 31
1, 197618, Control_c, 0, 67, 11
1, 197633, Control_c, 0, 67, 10
1, 197648, Control_c, 0, 67, 10
1, 197663, Note_off_c, 0, 73, 44
1, 197678, Control_c, 0, 67, 9
1, 197720, Note_on_c, 0, 75, 74
1, 197721, Note_on_c, 0, 61, 66
1, 197722, Note_on_c, 0, 79, 78
1, 197738, Note_on_c, 0, 58, 48
1, 197745, Note_on_c, 0, 55, 40
1, 197752, Note_on_c, 0, 51, 46
1, 197752, Control_c, 0, 67, 9
1, 197758, Note_off_c, 0, 58, 62
1, 197758, Note_off_c, 0, 61, 55
1, 197758, Note_off_c, 0, 75, 58
1, 197762, Note_off_c, 0, 79, 62
1, 197767, Control_c, 0, 67, 10
1, 197776, Note_off_c, 0, 55, 54
1, 197781, Note_off_c, 0, 51, 54
1, 197781, Control_c, 0, 67, 10
1, 197783, Note_on_c, 0, 72, 79
1, 197830, Note_on_c, 0, 75, 75
1, 197855, Control_c, 0, 67, 10
1, 197857, Note_on_c, 0, 60, 60
1, 197862, Note_on_c, 0, 51, 61
1, 197863, Note_on_c, 0, 80, 93
1, 197865, Note_on_c, 0, 56, 56
1, 197870, Control_c, 0, 64, 100
1, 197885, Control_c, 0, 64, 74
1, 197900, Control_c, 0, 64, 63
1, 197900, Control_c, 0, 67, 11
1, 197915, Control_c, 0, 64, 52
1, 197915, Control_c, 0, 67, 12
1, 197929, Control_c, 0, 64, 28
1, 197929, Control_c, 0, 67, 13
1, 197944, Control_c, 0, 64, 0
1, 197944, Control_c, 0, 67, 13
1, 197960, Control_c, 0, 67, 14
1, 197975, Control_c, 0, 67, 14
1, 198020, Control_c, 0, 67, 14
1, 198049, Control_c, 0, 67, 13
1, 198064, Control_c, 0, 67, 13
1, 198078, Control_c, 0, 67, 12
1, 198093, Control_c, 0, 67, 11
1, 198138, Control_c, 0, 67, 11
1, 198152, Control_c, 0, 67, 10
1, 198182, Control_c, 0, 67, 10
1, 198196, Control_c, 0, 67, 9
1, 198226, Control_c, 0, 67, 9
1, 198333, Note_off_c, 0, 80, 60
1, 198340, Note_off_c, 0, 75, 60
1, 198382, Control_c, 0, 67, 8
1, 198397, Control_c, 0, 67, 0
1, 198468, Note_off_c, 0, 72, 58
1, 198471, Note_on_c, 0, 82, 77
1, 198479, Note_off_c, 0, 56, 56
1, 198486, Control_c, 0, 67, 8
1, 198492, Note_off_c, 0, 51, 64
1, 198501, Control_c, 0, 67, 9
1, 198515, Control_c, 0, 67, 10
1, 198524, Note_off_c, 0, 82, 65
1, 198530, Control_c, 0, 67, 11
1, 198535, Note_off_c, 0, 60, 64
1, 198542, Note_on_c, 0, 84, 64
1, 198545, Control_c, 0, 67, 13
1, 198560, Control_c, 0, 67, 14
1, 198575, Control_c, 0, 67, 14
1, 198593, Note_on_c, 0, 82, 77
1, 198604, Control_c, 0, 67, 15
1, 198639, Note_off_c, 0, 84, 62
1, 198642, Note_on_c, 0, 80, 74
1, 198649, Control_c, 0, 67, 14
1, 198664, Control_c, 0, 67, 13
1, 198676, Note_off_c, 0, 82, 63
1, 198678, Control_c, 0, 67, 12
1, 198706, Note_on_c, 0, 79, 78
1, 198708, Control_c, 0, 67, 12
1, 198730, Note_off_c, 0, 80, 64
1, 198760, Note_off_c, 0, 79, 60
1, 198772, Note_on_c, 0, 77, 69
1, 198783, Control_c, 0, 67, 11
1, 198809, Note_off_c, 0, 77, 52
1, 198813, Control_c, 0, 67, 11
1, 198817, Note_on_c, 0, 75, 71
1, 198827, Control_c, 0, 67, 10
1, 198865, Note_off_c, 0, 75, 60
1, 198882, Note_on_c, 0, 74, 77
1, 198896, Note_on_c, 0, 53, 54
1, 198896, Note_on_c, 0, 62, 68
1, 198900, Note_on_c, 0, 51, 58
1, 198901, Note_on_c, 0, 56, 58
1, 198931, Control_c, 0, 67, 11
1, 198936, Note_on_c, 0, 75, 70
1, 198939, Note_off_c, 0, 74, 65
1, 198946, Control_c, 0, 67, 12
1, 198973, Note_off_c, 0, 75, 64
1, 198990, Control_c, 0, 67, 12
1, 198997, Note_on_c, 0, 77, 67
1, 199058, Note_on_c, 0, 79, 72
1, 199086, Note_off_c, 0, 77, 56
1, 199086, Control_c, 0, 67, 11
1, 199100, Control_c, 0, 67, 11
1, 199112, Note_off_c, 0, 79, 60
1, 199115, Control_c, 0, 67, 10
1, 199118, Note_on_c, 0, 80, 83
1, 199174, Control_c, 0, 67, 10
1, 199185, Note_on_c, 0, 79, 65
1, 199189, Control_c, 0, 67, 9
1, 199201, Note_off_c, 0, 80, 62
1, 199220, Note_off_c, 0, 79, 60
1, 199229, Note_on_c, 0, 77, 77
1, 199285, Note_off_c, 0, 77, 62
1, 199291, Note_on_c, 0, 75, 59
1, 199329, Note_off_c, 0, 75, 62
1, 199355, Note_on_c, 0, 74, 70
1, 199382, Control_c, 0, 67, 8
1, 199397, Control_c, 0, 67, 8
1, 199409, Note_on_c, 0, 75, 53
1, 199417, Note_off_c, 0, 74, 62
1, 199431, Note_off_c, 0, 53, 44
1, 199441, Control_c, 0, 67, 9
1, 199456, Control_c, 0, 67, 9
1, 199461, Note_off_c, 0, 75, 60
1, 199472, Note_on_c, 0, 77, 58
1, 199494, Note_off_c, 0, 51, 63
1, 199505, Note_off_c, 0, 62, 61
1, 199514, Note_on_c, 0, 75, 64
1, 199534, Note_off_c, 0, 77, 63
1, 199544, Note_off_c, 0, 56, 65
1, 199561, Control_c, 0, 67, 8
1, 199576, Control_c, 0, 67, 8
1, 199578, Note_on_c, 0, 74, 70
1, 199606, Note_off_c, 0, 75, 62
1, 199609, Note_off_c, 0, 74, 65
1, 199642, Note_on_c, 0, 72, 64
1, 199664, Control_c, 0, 67, 0
1, 199668, Note_off_c, 0, 72, 65
1, 199677, Note_on_c, 0, 70, 78
1, 199739, Note_on_c, 0, 68, 73
1, 199761, Note_off_c, 0, 70, 63
1, 199788, Note_off_c, 0, 68, 60
1, 199800, Note_on_c, 0, 67, 85
1, 199821, Control_c, 0, 64, 23
1, 199821, Control_c, 0, 67, 8
1, 199824, Note_off_c, 0, 67, 61
1, 199828, Note_on_c, 0, 58, 53
1, 199833, Note_on_c, 0, 63, 54
1, 199834, Note_on_c, 0, 51, 47
1, 199836, Control_c, 0, 64, 37
1, 199836, Control_c, 0, 67, 9
1, 199837, Note_on_c, 0, 55, 30
1, 199851, Control_c, 0, 64, 48
1, 199865, Control_c, 0, 64, 54
1, 199880, Control_c, 0, 64, 55
1, 199895, Control_c, 0, 67, 10
1, 199898, Note_on_c, 0, 82, 75
1, 199910, Control_c, 0, 67, 12
1, 199925, Control_c, 0, 64, 55
1, 199938, Note_off_c, 0, 82, 61
1, 199939, Control_c, 0, 64, 53
1, 199954, Control_c, 0, 64, 52
1, 199962, Note_on_c, 0, 84, 79
1, 199969, Control_c, 0, 64, 51
1, 199983, Control_c, 0, 64, 48
1, 199998, Control_c, 0, 64, 41
1, 200013, Control_c, 0, 64, 30
1, 200018, Note_off_c, 0, 55, 42
1, 200027, Note_on_c, 0, 82, 78
1, 200028, Control_c, 0, 64, 18
1, 200028, Control_c, 0, 67, 12
1, 200043, Control_c, 0, 64, 8
1, 200043, Control_c, 0, 67, 11
1, 200057, Control_c, 0, 64, 0
1, 200057, Control_c, 0, 67, 10
1, 200071, Note_off_c, 0, 84, 60
1, 200077, Note_on_c, 0, 80, 79
1, 200093, Note_off_c, 0, 58, 57
1, 200104, Note_off_c, 0, 51, 53
1, 200114, Note_off_c, 0, 82, 63
1, 200127, Note_off_c, 0, 63, 64
1, 200135, Note_on_c, 0, 79, 74
1, 200161, Note_off_c, 0, 80, 62
1, 200175, Note_off_c, 0, 79, 62
1, 200195, Note_on_c, 0, 77, 73
1, 200221, Control_c, 0, 67, 10
1, 200234, Note_off_c, 0, 77, 56
1, 200247, Note_on_c, 0, 75, 76
1, 200250, Control_c, 0, 67, 9
1, 200280, Control_c, 0, 67, 9
1, 200283, Note_off_c, 0, 75, 64
1, 200309, Note_on_c, 0, 65, 59
1, 200310, Note_on_c, 0, 58, 51
1, 200331, Note_on_c, 0, 56, 47
1, 200331, Note_on_c, 0, 72, 50
1, 200334, Note_on_c, 0, 74, 56
1, 200355, Note_off_c, 0, 72, 59
1, 200360, Note_off_c, 0, 74, 61
1, 200377, Note_on_c, 0, 84, 77
1, 200414, Control_c, 0, 67, 10
1, 200429, Control_c, 0, 67, 11
1, 200435, Note_on_c, 0, 82, 72
1, 200444, Control_c, 0, 67, 12
1, 200456, Note_off_c, 0, 84, 58
1, 200485, Note_on_c, 0, 80, 73
1, 200488, Control_c, 0, 67, 12
1, 200503, Control_c, 0, 67, 11
1, 200532, Note_off_c, 0, 82, 64
1, 200540, Control_c, 0, 67, 11
1, 200554, Control_c, 0, 67, 10
1, 200558, Note_on_c, 0, 79, 74
1, 200569, Control_c, 0, 67, 10
1, 200584, Note_off_c, 0, 80, 63
1, 200599, Note_off_c, 0, 79, 63
1, 200611, Note_on_c, 0, 77, 72
1, 200626, Note_off_c, 0, 65, 64
1, 200646, Note_off_c, 0, 77, 59
1, 200653, Note_off_c, 0, 58, 59
1, 200669, Note_on_c, 0, 75, 78
1, 200688, Control_c, 0, 67, 9
1, 200705, Note_off_c, 0, 75, 63
1, 200718, Control_c, 0, 67, 8
1, 200730, Note_on_c, 0, 74, 76
1, 200741, Note_off_c, 0, 56, 62
1, 200777, Control_c, 0, 67, 9
1, 200780, Note_on_c, 0, 75, 74
1, 200787, Note_on_c, 0, 63, 72
1, 200787, Note_off_c, 0, 74, 64
1, 200792, Control_c, 0, 67, 10
1, 200796, Note_on_c, 0, 55, 55
1, 200796, Note_on_c, 0, 58, 58
1, 200841, Note_on_c, 0, 82, 75
1, 200852, Note_off_c, 0, 75, 63
1, 200894, Note_off_c, 0, 82, 66
1, 200895, Control_c, 0, 67, 11
1, 200897, Note_on_c, 0, 84, 78
1, 200910, Control_c, 0, 67, 12
1, 200925, Control_c, 0, 67, 12
1, 200940, Control_c, 0, 67, 13
1, 200960, Note_on_c, 0, 82, 76
1, 200984, Control_c, 0, 67, 12
1, 200991, Note_off_c, 0, 84, 60
1, 200999, Control_c, 0, 67, 12
1, 201013, Control_c, 0, 67, 11
1, 201017, Note_on_c, 0, 80, 81
1, 201060, Note_off_c, 0, 82, 61
1, 201074, Note_on_c, 0, 79, 79
1, 201097, Note_off_c, 0, 63, 62
1, 201103, Note_off_c, 0, 80, 63
1, 201107, Note_off_c, 0, 58, 55
1, 201118, Note_off_c, 0, 79, 64
1, 201127, Note_on_c, 0, 77, 77
1, 201148, Control_c, 0, 67, 10
1, 201152, Note_off_c, 0, 55, 58
1, 201163, Control_c, 0, 67, 10
1, 201175, Note_off_c, 0, 77, 58
1, 201177, Control_c, 0, 67, 9
1, 201189, Note_on_c, 0, 75, 83
1, 201233, Note_off_c, 0, 75, 64
1, 201237, Note_on_c, 0, 65, 68
1, 201238, Note_on_c, 0, 58, 58
1, 201249, Note_on_c, 0, 56, 60
1, 201255, Note_on_c, 0, 74, 75
1, 201311, Note_off_c, 0, 74, 61
1, 201312, Note_on_c, 0, 84, 85
1, 201348, Control_c, 0, 67, 10
1, 201363, Control_c, 0, 67, 10
1, 201374, Note_on_c, 0, 82, 82
1, 201392, Control_c, 0, 67, 11
1, 201407, Control_c, 0, 67, 11
1, 201412, Note_off_c, 0, 84, 59
1, 201422, Control_c, 0, 67, 12
1, 201435, Note_on_c, 0, 80, 82
1, 201437, Control_c, 0, 67, 12
1, 201467, Note_off_c, 0, 82, 59
1, 201496, Note_on_c, 0, 79, 81
1, 201507, Note_off_c, 0, 65, 58
1, 201525, Note_off_c, 0, 80, 63
1, 201547, Note_off_c, 0, 79, 60
1, 201556, Control_c, 0, 67, 11
1, 201557, Note_on_c, 0, 77, 80
1, 201571, Control_c, 0, 67, 11
1, 201585, Control_c, 0, 67, 10
1, 201591, Note_off_c, 0, 58, 57
1, 201601, Note_on_c, 0, 75, 82
1, 201606, Note_off_c, 0, 77, 61
1, 201613, Note_off_c, 0, 56, 65
1, 201644, Control_c, 0, 67, 10
1, 201651, Note_off_c, 0, 75, 60
1, 201673, Note_on_c, 0, 74, 81
1, 201704, Note_on_c, 0, 63, 68
1, 201705, Note_on_c, 0, 55, 62
1, 201712, Note_on_c, 0, 75, 79
1, 201715, Note_on_c, 0, 58, 61
1, 201729, Note_off_c, 0, 74, 66
1, 201733, Control_c, 0, 67, 9
1, 201762, Note_off_c, 0, 75, 64
1, 201774, Note_on_c, 0, 77, 92
1, 201777, Control_c, 0, 67, 10
1, 201844, Note_on_c, 0, 79, 78
1, 201857, Note_off_c, 0, 77, 57
1, 201894, Note_on_c, 0, 80, 86
1, 201911, Control_c, 0, 67, 10
1, 201929, Note_off_c, 0, 79, 64
1, 201946, Note_on_c, 0, 82, 79
1, 201962, Note_off_c, 0, 80, 66
1, 201968, Note_off_c, 0, 82, 70
1, 201971, Control_c, 0, 67, 10
1, 202001, Note_on_c, 0, 84, 85
1, 202023, Control_c, 0, 67, 10
1, 202038, Control_c, 0, 67, 11
1, 202052, Control_c, 0, 67, 11
1, 202059, Note_on_c, 0, 85, 84
1, 202082, Control_c, 0, 67, 11
1, 202111, Note_off_c, 0, 84, 52
1, 202121, Note_off_c, 0, 85, 65
1, 202122, Note_on_c, 0, 87, 88
1, 202141, Control_c, 0, 67, 10
1, 202173, Note_on_c, 0, 85, 82
1, 202200, Note_off_c, 0, 87, 67
1, 202215, Control_c, 0, 67, 11
1, 202223, Note_on_c, 0, 84, 79
1, 202230, Control_c, 0, 67, 12
1, 202232, Note_off_c, 0, 85, 67
1, 202245, Control_c, 0, 67, 12
1, 202259, Control_c, 0, 67, 13
1, 202273, Note_on_c, 0, 82, 83
1, 202274, Control_c, 0, 67, 13
1, 202276, Note_off_c, 0, 84, 50
1, 202289, Control_c, 0, 67, 14
1, 202336, Note_on_c, 0, 80, 83
1, 202361, Note_off_c, 0, 82, 62
1, 202364, Control_c, 0, 67, 13
1, 202378, Control_c, 0, 67, 13
1, 202385, Note_on_c, 0, 79, 81
1, 202393, Control_c, 0, 67, 12
1, 202408, Note_off_c, 0, 80, 63
1, 202408, Control_c, 0, 67, 12
1, 202423, Control_c, 0, 67, 11
1, 202430, Note_off_c, 0, 79, 61
1, 202440, Note_on_c, 0, 77, 78
1, 202473, Note_off_c, 0, 77, 58
1, 202486, Note_off_c, 0, 63, 32
1, 202493, Note_off_c, 0, 55, 37
1, 202494, Note_on_c, 0, 75, 73
1, 202497, Control_c, 0, 67, 11
1, 202524, Note_off_c, 0, 58, 62
1, 202526, Control_c, 0, 67, 10
1, 202537, Note_on_c, 0, 73, 77
1, 202569, Note_off_c, 0, 75, 62
1, 202570, Control_c, 0, 67, 11
1, 202585, Control_c, 0, 67, 11
1, 202594, Note_off_c, 0, 73, 65
1, 202600, Control_c, 0, 67, 13
1, 202611, Note_on_c, 0, 72, 75
1, 202615, Control_c, 0, 67, 15
1, 202621, Note_on_c, 0, 63, 56
1, 202624, Note_on_c, 0, 56, 50
1, 202625, Note_on_c, 0, 60, 53
1, 202630, Control_c, 0, 67, 17
1, 202636, Note_off_c, 0, 72, 66
1, 202644, Control_c, 0, 67, 18
1, 202689, Control_c, 0, 67, 18
1, 202704, Control_c, 0, 67, 19
1, 202719, Control_c, 0, 67, 21
1, 202733, Control_c, 0, 67, 24
1, 202749, Control_c, 0, 67, 27
1, 202772, Control_c, 0, 67, 29
1, 202787, Control_c, 0, 67, 30
1, 202817, Control_c, 0, 67, 30
1, 202832, Control_c, 0, 67, 31
1, 202847, Control_c, 0, 67, 31
1, 202862, Control_c, 0, 67, 32
1, 202897, Note_on_c, 0, 83, 54
1, 202921, Control_c, 0, 67, 33
1, 202921, Note_off_c, 0, 83, 63
1, 202936, Control_c, 0, 67, 34
1, 202950, Control_c, 0, 67, 35
1, 202965, Control_c, 0, 67, 36
1, 202995, Control_c, 0, 67, 37
1, 203009, Control_c, 0, 67, 39
1, 203020, Note_on_c, 0, 86, 62
1, 203024, Control_c, 0, 67, 40
1, 203039, Control_c, 0, 67, 42
1, 203054, Control_c, 0, 67, 43
1, 203064, Note_off_c, 0, 86, 59
1, 203069, Control_c, 0, 67, 43
1, 203083, Control_c, 0, 67, 44
1, 203098, Control_c, 0, 67, 44
1, 203113, Control_c, 0, 67, 45
1, 203120, Note_off_c, 0, 63, 46
1, 203128, Control_c, 0, 67, 46
1, 203143, Control_c, 0, 67, 47
1, 203157, Control_c, 0, 67, 47
1, 203167, Note_on_c, 0, 84, 59
1, 203172, Control_c, 0, 67, 48
1, 203203, Note_off_c, 0, 60, 18
1, 203210, Note_off_c, 0, 84, 61
1, 203261, Control_c, 0, 67, 48
1, 203289, Note_on_c, 0, 87, 55
1, 203297, Note_off_c, 0, 56, 56
1, 203328, Note_off_c, 0, 87, 63
1, 203350, Control_c, 0, 67, 48
1, 203365, Control_c, 0, 67, 47
1, 203394, Control_c, 0, 67, 47
1, 203409, Control_c, 0, 67, 47
1, 203417, Note_on_c, 0, 83, 68
1, 203470, Note_off_c, 0, 83, 63
1, 203498, Control_c, 0, 67, 46
1, 203534, Control_c, 0, 67, 46
1, 203550, Control_c, 0, 67, 45
1, 203556, Note_on_c, 0, 86, 75
1, 203610, Control_c, 0, 67, 45
1, 203610, Note_off_c, 0, 86, 62
1, 203624, Control_c, 0, 67, 44
1, 203681, Note_on_c, 0, 84, 73
1, 203698, Control_c, 0, 67, 43
1, 203740, Note_off_c, 0, 84, 63
1, 203758, Control_c, 0, 67, 43
1, 203787, Control_c, 0, 67, 42
1, 203802, Control_c, 0, 67, 43
1, 203806, Note_on_c, 0, 87, 78
1, 203846, Control_c, 0, 67, 42
1, 203886, Note_off_c, 0, 87, 64
1, 203905, Control_c, 0, 67, 42
1, 203920, Control_c, 0, 67, 41
1, 203936, Note_on_c, 0, 83, 83
1, 203946, Note_on_c, 0, 71, 60
1, 204002, Note_off_c, 0, 83, 65
1, 204006, Note_off_c, 0, 71, 58
1, 204024, Control_c, 0, 67, 41
1, 204054, Control_c, 0, 67, 41
1, 204062, Note_on_c, 0, 74, 56
1, 204066, Note_on_c, 0, 86, 86
1, 204084, Control_c, 0, 67, 41
1, 204119, Note_off_c, 0, 74, 64
1, 204128, Control_c, 0, 67, 41
1, 204140, Note_off_c, 0, 86, 62
1, 204200, Note_on_c, 0, 84, 86
1, 204200, Note_on_c, 0, 72, 74
1, 204216, Control_c, 0, 67, 42
1, 204231, Control_c, 0, 67, 42
1, 204275, Note_off_c, 0, 84, 64
1, 204278, Note_off_c, 0, 72, 60
1, 204334, Note_on_c, 0, 75, 69
1, 204334, Note_on_c, 0, 87, 85
1, 204365, Note_off_c, 0, 75, 60
1, 204384, Note_off_c, 0, 87, 66
1, 204402, Control_c, 0, 67, 42
1, 204417, Control_c, 0, 67, 41
1, 204432, Control_c, 0, 67, 41
1, 204459, Note_on_c, 0, 72, 66
1, 204462, Note_on_c, 0, 84, 84
1, 204476, Control_c, 0, 67, 40
1, 204506, Control_c, 0, 67, 40
1, 204520, Control_c, 0, 67, 40
1, 204537, Note_on_c, 0, 80, 83
1, 204549, Note_on_c, 0, 68, 47
1, 204550, Control_c, 0, 67, 41
1, 204553, Note_off_c, 0, 72, 48
1, 204564, Control_c, 0, 67, 40
1, 204572, Note_off_c, 0, 84, 62
1, 204575, Note_on_c, 0, 67, 46
1, 204579, Control_c, 0, 67, 40
1, 204602, Note_on_c, 0, 77, 87
1, 204603, Note_off_c, 0, 67, 58
1, 204609, Control_c, 0, 67, 39
1, 204617, Note_on_c, 0, 65, 65
1, 204621, Note_off_c, 0, 80, 64
1, 204638, Note_off_c, 0, 68, 59
1, 204638, Control_c, 0, 67, 39
1, 204728, Control_c, 0, 67, 38
1, 204743, Control_c, 0, 67, 38
1, 204832, Control_c, 0, 67, 38
1, 204834, Note_on_c, 0, 75, 81
1, 204844, Note_on_c, 0, 67, 56
1, 204846, Control_c, 0, 67, 39
1, 204851, Note_on_c, 0, 58, 59
1, 204898, Note_off_c, 0, 77, 59
1, 204906, Control_c, 0, 67, 39
1, 204920, Control_c, 0, 67, 40
1, 204948, Note_off_c, 0, 65, 66
1, 204964, Control_c, 0, 67, 40
1, 204979, Control_c, 0, 67, 41
1, 204994, Control_c, 0, 67, 42
1, 205009, Control_c, 0, 67, 43
1, 205061, Control_c, 0, 67, 44
1, 205076, Control_c, 0, 67, 44
1, 205091, Control_c, 0, 67, 45
1, 205166, Control_c, 0, 67, 46
1, 205195, Control_c, 0, 67, 46
1, 205210, Control_c, 0, 67, 47
1, 205240, Control_c, 0, 67, 46
1, 205251, Note_off_c, 0, 75, 61
1, 205257, Note_on_c, 0, 77, 65
1, 205299, Control_c, 0, 67, 47
1, 205317, Note_off_c, 0, 77, 61
1, 205321, Note_on_c, 0, 75, 75
1, 205329, Control_c, 0, 67, 48
1, 205366, Note_off_c, 0, 67, 52
1, 205367, Note_off_c, 0, 75, 60
1, 205382, Note_on_c, 0, 74, 70
1, 205402, Control_c, 0, 67, 49
1, 205419, Note_on_c, 0, 75, 69
1, 205447, Control_c, 0, 67, 49
1, 205470, Note_on_c, 0, 79, 72
1, 205474, Note_off_c, 0, 75, 62
1, 205476, Control_c, 0, 67, 50
1, 205491, Control_c, 0, 67, 51
1, 205503, Note_on_c, 0, 68, 46
1, 205506, Control_c, 0, 67, 55
1, 205521, Control_c, 0, 67, 57
1, 205536, Control_c, 0, 67, 58
1, 205610, Control_c, 0, 67, 58
1, 205655, Control_c, 0, 67, 59
1, 205669, Control_c, 0, 67, 59
1, 205684, Control_c, 0, 67, 60
1, 205699, Control_c, 0, 67, 61
1, 205713, Control_c, 0, 67, 62
1, 205794, Control_c, 0, 67, 62
1, 205809, Control_c, 0, 67, 63
1, 205824, Control_c, 0, 67, 64
1, 205839, Control_c, 0, 67, 66
1, 205854, Control_c, 0, 67, 68
1, 205868, Control_c, 0, 67, 69
1, 205883, Control_c, 0, 67, 70
1, 205898, Control_c, 0, 67, 71
1, 205927, Control_c, 0, 67, 72
1, 205944, Control_c, 0, 67, 72
1, 205959, Control_c, 0, 67, 73
1, 206062, Control_c, 0, 67, 72
1, 206077, Control_c, 0, 67, 72
1, 206099, Note_on_c, 0, 77, 63
1, 206153, Note_off_c, 0, 74, 56
1, 206163, Note_off_c, 0, 68, 60
1, 206177, Note_off_c, 0, 79, 48
1, 206189, Note_off_c, 0, 77, 59
1, 206195, Control_c, 0, 67, 73
1, 206196, Note_off_c, 0, 58, 52
1, 206208, Note_on_c, 0, 63, 35
1, 206210, Control_c, 0, 67, 73
1, 206213, Note_on_c, 0, 67, 27
1, 206215, Note_on_c, 0, 75, 41
1, 206224, Control_c, 0, 67, 74
1, 206239, Control_c, 0, 67, 74
1, 206284, Control_c, 0, 67, 75
1, 206299, Control_c, 0, 67, 76
1, 206313, Control_c, 0, 67, 78
1, 206328, Control_c, 0, 67, 79
1, 206388, Control_c, 0, 67, 79
1, 206403, Control_c, 0, 67, 80
1, 206417, Control_c, 0, 67, 82
1, 206432, Control_c, 0, 67, 86
1, 206447, Control_c, 0, 67, 88
1, 206462, Control_c, 0, 67, 89
1, 206491, Control_c, 0, 67, 89
1, 206506, Control_c, 0, 67, 90
1, 206522, Note_off_c, 0, 67, 59
1, 206527, Note_off_c, 0, 63, 61
1, 206529, Control_c, 0, 67, 92
1, 206541, Note_off_c, 0, 75, 58
1, 206543, Control_c, 0, 67, 94
1, 206558, Control_c, 0, 67, 95
1, 206573, Control_c, 0, 67, 97
1, 206588, Control_c, 0, 67, 99
1, 206603, Control_c, 0, 67, 101
1, 206618, Control_c, 0, 67, 102
1, 206647, Control_c, 0, 67, 103
1, 206662, Control_c, 0, 67, 103
1, 206677, Control_c, 0, 67, 105
1, 206692, Control_c, 0, 67, 106
1, 206707, Control_c, 0, 67, 107
1, 206722, Control_c, 0, 67, 108
1, 206734, Note_on_c, 0, 82, 50
1, 206737, Control_c, 0, 67, 109
1, 206752, Control_c, 0, 67, 111
1, 206759, Note_on_c, 0, 67, 41
1, 206767, Control_c, 0, 67, 117
1, 206770, Note_on_c, 0, 79, 52
1, 206777, Note_off_c, 0, 82, 52
1, 206781, Note_on_c, 0, 63, 43
1, 206781, Control_c, 0, 67, 123
1, 206796, Control_c, 0, 67, 127
1, 206802, Note_off_c, 0, 79, 57
1, 206805, Note_off_c, 0, 67, 56
1, 206989, Note_on_c, 0, 82, 45
1, 207026, Note_on_c, 0, 77, 66
1, 207051, Note_off_c, 0, 82, 42
1, 207053, Note_off_c, 0, 77, 67
1, 207059, Note_on_c, 0, 58, 40
1, 207071, Note_on_c, 0, 65, 23
1, 207071, Note_off_c, 0, 63, 57
1, 207282, Note_off_c, 0, 58, 57
1, 207294, Note_on_c, 0, 82, 41
1, 207312, Note_on_c, 0, 75, 26
1, 207321, Note_on_c, 0, 55, 35
1, 207326, Note_on_c, 0, 63, 30
1, 207332, Note_off_c, 0, 65, 53
1, 207340, Note_off_c, 0, 82, 66
1, 207344, Note_off_c, 0, 75, 55
1, 207539, Note_on_c, 0, 82, 47
1, 207565, Note_on_c, 0, 70, 57
1, 207585, Note_off_c, 0, 82, 64
1, 207589, Note_off_c, 0, 70, 62
1, 207610, Note_off_c, 0, 55, 59
1, 207611, Note_off_c, 0, 63, 61
1, 207768, Note_on_c, 0, 82, 51
1, 207814, Note_off_c, 0, 82, 60
1, 207816, Note_on_c, 0, 67, 47
1, 207820, Note_on_c, 0, 79, 62
1, 207829, Note_on_c, 0, 63, 41
1, 207855, Note_off_c, 0, 79, 60
1, 207864, Note_off_c, 0, 67, 62
1, 208030, Note_on_c, 0, 82, 58
1, 208084, Note_on_c, 0, 77, 68
1, 208087, Note_off_c, 0, 82, 58
1, 208092, Note_on_c, 0, 65, 42
1, 208110, Note_on_c, 0, 58, 45
1, 208111, Note_off_c, 0, 77, 67
1, 208119, Note_off_c, 0, 63, 61
1, 208175, Control_c, 0, 67, 127
1, 208189, Control_c, 0, 67, 126
1, 208204, Control_c, 0, 67, 126
1, 208234, Control_c, 0, 67, 125
1, 208249, Control_c, 0, 67, 124
1, 208263, Control_c, 0, 67, 121
1, 208269, Note_off_c, 0, 65, 49
1, 208278, Control_c, 0, 67, 118
1, 208293, Control_c, 0, 67, 115
1, 208308, Control_c, 0, 67, 114
1, 208315, Note_on_c, 0, 82, 53
1, 208337, Note_on_c, 0, 75, 63
1, 208339, Control_c, 0, 67, 114
1, 208353, Note_on_c, 0, 63, 42
1, 208354, Control_c, 0, 67, 113
1, 208358, Note_off_c, 0, 75, 66
1, 208368, Control_c, 0, 67, 112
1, 208372, Note_off_c, 0, 58, 54
1, 208374, Note_on_c, 0, 55, 48
1, 208382, Note_off_c, 0, 82, 63
1, 208383, Control_c, 0, 67, 111
1, 208457, Control_c, 0, 67, 110
1, 208501, Control_c, 0, 67, 111
1, 208564, Note_on_c, 0, 82, 51
1, 208576, Control_c, 0, 67, 110
1, 208605, Note_off_c, 0, 82, 51
1, 208606, Note_on_c, 0, 73, 55
1, 208620, Control_c, 0, 67, 110
1, 208627, Note_off_c, 0, 73, 62
1, 208653, Note_off_c, 0, 63, 58
1, 208670, Note_off_c, 0, 55, 55
1, 208738, Control_c, 0, 67, 110
1, 208791, Control_c, 0, 67, 109
1, 208806, Control_c, 0, 67, 108
1, 208833, Note_on_c, 0, 82, 58
1, 208835, Control_c, 0, 67, 107
1, 208835, Note_on_c, 0, 55, 47
1, 208843, Note_on_c, 0, 63, 50
1, 208850, Note_on_c, 0, 73, 68
1, 208850, Control_c, 0, 67, 106
1, 208865, Control_c, 0, 67, 104
1, 208880, Control_c, 0, 67, 103
1, 208883, Note_off_c, 0, 55, 64
1, 208890, Note_off_c, 0, 82, 64
1, 208894, Control_c, 0, 67, 101
1, 208898, Note_off_c, 0, 73, 56
1, 208909, Control_c, 0, 64, 24
1, 208910, Note_off_c, 0, 63, 64
1, 208924, Control_c, 0, 64, 31
1, 208924, Control_c, 0, 67, 101
1, 208938, Control_c, 0, 64, 35
1, 208938, Control_c, 0, 67, 102
1, 208953, Control_c, 0, 64, 37
1, 208968, Control_c, 0, 64, 41
1, 208983, Control_c, 0, 64, 46
1, 208998, Control_c, 0, 64, 50
1, 208998, Control_c, 0, 67, 103
1, 209012, Control_c, 0, 64, 50
1, 209012, Control_c, 0, 67, 103
1, 209027, Control_c, 0, 67, 104
1, 209042, Control_c, 0, 64, 49
1, 209053, Note_on_c, 0, 82, 60
1, 209057, Control_c, 0, 64, 47
1, 209072, Control_c, 0, 64, 42
1, 209072, Control_c, 0, 67, 103
1, 209083, Note_on_c, 0, 63, 42
1, 209086, Control_c, 0, 64, 32
1, 209101, Control_c, 0, 64, 0
1, 209101, Control_c, 0, 67, 103
1, 209107, Note_on_c, 0, 56, 48
1, 209121, Note_on_c, 0, 71, 44
1, 209125, Note_on_c, 0, 69, 48
1, 209146, Note_off_c, 0, 71, 59
1, 209152, Note_off_c, 0, 69, 58
1, 209161, Control_c, 0, 67, 102
1, 209164, Note_off_c, 0, 63, 66
1, 209164, Note_off_c, 0, 82, 40
1, 209168, Note_off_c, 0, 56, 63
1, 209206, Control_c, 0, 67, 103
1, 209221, Control_c, 0, 67, 103
1, 209235, Control_c, 0, 67, 104
1, 209264, Note_on_c, 0, 82, 55
1, 209339, Control_c, 0, 64, 9
1, 209339, Control_c, 0, 67, 103
1, 209345, Note_on_c, 0, 72, 59
1, 209354, Control_c, 0, 64, 18
1, 209354, Control_c, 0, 67, 102
1, 209356, Note_on_c, 0, 63, 44
1, 209357, Note_on_c, 0, 56, 41
1, 209369, Control_c, 0, 64, 28
1, 209377, Note_off_c, 0, 72, 61
1, 209384, Control_c, 0, 64, 37
1, 209399, Control_c, 0, 64, 44
1, 209407, Note_off_c, 0, 82, 62
1, 209414, Control_c, 0, 64, 46
1, 209428, Control_c, 0, 64, 47
1, 209443, Control_c, 0, 64, 48
1, 209458, Control_c, 0, 64, 48
1, 209473, Control_c, 0, 67, 102
1, 209488, Control_c, 0, 64, 47
1, 209488, Control_c, 0, 67, 103
1, 209503, Control_c, 0, 64, 43
1, 209503, Control_c, 0, 67, 103
1, 209524, Control_c, 0, 64, 38
1, 209531, Note_on_c, 0, 76, 61
1, 209539, Control_c, 0, 64, 30
1, 209539, Control_c, 0, 67, 102
1, 209554, Control_c, 0, 64, 13
1, 209554, Control_c, 0, 67, 102
1, 209568, Note_off_c, 0, 76, 63
1, 209569, Control_c, 0, 64, 0
1, 209576, Note_on_c, 0, 77, 76
1, 209598, Control_c, 0, 67, 101
1, 209602, Note_on_c, 0, 60, 54
1, 209602, Note_off_c, 0, 77, 66
1, 209613, Control_c, 0, 67, 101
1, 209673, Note_off_c, 0, 63, 37
1, 209688, Control_c, 0, 67, 101
1, 209703, Control_c, 0, 67, 102
1, 209732, Control_c, 0, 67, 102
1, 209773, Note_on_c, 0, 79, 64
1, 209806, Control_c, 0, 67, 102
1, 209827, Note_on_c, 0, 80, 72
1, 209829, Note_off_c, 0, 79, 63
1, 209834, Note_on_c, 0, 65, 53
1, 209840, Note_off_c, 0, 60, 65
1, 209850, Control_c, 0, 67, 101
1, 209855, Note_off_c, 0, 56, 59
1, 209862, Note_off_c, 0, 80, 62
1, 209865, Control_c, 0, 67, 101
1, 209880, Control_c, 0, 67, 100
1, 209894, Control_c, 0, 67, 99
1, 209909, Control_c, 0, 67, 97
1, 209924, Control_c, 0, 67, 93
1, 209940, Control_c, 0, 67, 91
1, 209955, Control_c, 0, 67, 91
1, 209970, Control_c, 0, 67, 92
1, 210034, Note_on_c, 0, 79, 62
1, 210066, Note_on_c, 0, 77, 70
1, 210073, Control_c, 0, 67, 91
1, 210075, Note_on_c, 0, 57, 58
1, 210103, Control_c, 0, 67, 91
1, 210114, Note_off_c, 0, 79, 51
1, 210118, Control_c, 0, 67, 90
1, 210129, Note_off_c, 0, 77, 61
1, 210207, Control_c, 0, 67, 91
1, 210221, Control_c, 0, 67, 91
1, 210236, Control_c, 0, 67, 92
1, 210259, Note_on_c, 0, 75, 58
1, 210273, Control_c, 0, 67, 91
1, 210303, Control_c, 0, 67, 91
1, 210305, Note_off_c, 0, 75, 61
1, 210309, Note_on_c, 0, 74, 74
1, 210318, Control_c, 0, 67, 90
1, 210324, Note_on_c, 0, 58, 68
1, 210353, Note_off_c, 0, 74, 62
1, 210359, Note_off_c, 0, 57, 61
1, 210362, Control_c, 0, 67, 89
1, 210377, Control_c, 0, 67, 89
1, 210391, Control_c, 0, 67, 88
1, 210406, Control_c, 0, 67, 87
1, 210421, Control_c, 0, 67, 88
1, 210436, Control_c, 0, 67, 89
1, 210466, Control_c, 0, 67, 89
1, 210517, Note_on_c, 0, 84, 67
1, 210525, Control_c, 0, 67, 89
1, 210555, Control_c, 0, 67, 88
1, 210567, Note_on_c, 0, 82, 79
1, 210570, Control_c, 0, 67, 87
1, 210576, Note_off_c, 0, 84, 64
1, 210579, Note_on_c, 0, 60, 67
1, 210584, Control_c, 0, 67, 87
1, 210606, Note_off_c, 0, 65, 57
1, 210609, Note_off_c, 0, 82, 65
1, 210612, Note_off_c, 0, 58, 63
1, 210703, Control_c, 0, 67, 87
1, 210717, Control_c, 0, 67, 87
1, 210749, Control_c, 0, 67, 86
1, 210753, Note_on_c, 0, 81, 71
1, 210763, Control_c, 0, 67, 86
1, 210778, Control_c, 0, 67, 84
1, 210793, Control_c, 0, 67, 83
1, 210806, Note_on_c, 0, 82, 85
1, 210807, Control_c, 0, 67, 81
1, 210817, Note_off_c, 0, 81, 64
1, 210822, Control_c, 0, 67, 80
1, 210831, Note_on_c, 0, 62, 73
1, 210837, Control_c, 0, 67, 78
1, 210844, Note_off_c, 0, 82, 65
1, 210852, Control_c, 0, 67, 77
1, 210858, Note_off_c, 0, 60, 64
1, 210867, Control_c, 0, 67, 75
1, 210881, Control_c, 0, 67, 74
1, 210970, Control_c, 0, 67, 75
1, 210985, Control_c, 0, 67, 76
1, 211004, Note_on_c, 0, 84, 73
1, 211022, Control_c, 0, 67, 75
1, 211037, Control_c, 0, 67, 74
1, 211058, Note_on_c, 0, 82, 79
1, 211063, Note_on_c, 0, 70, 67
1, 211082, Control_c, 0, 67, 74
1, 211087, Note_off_c, 0, 62, 64
1, 211088, Note_off_c, 0, 84, 64
1, 211096, Control_c, 0, 67, 72
1, 211105, Note_off_c, 0, 82, 64
1, 211111, Control_c, 0, 67, 69
1, 211126, Control_c, 0, 67, 65
1, 211140, Control_c, 0, 67, 64
1, 211170, Control_c, 0, 67, 64
1, 211185, Control_c, 0, 67, 64
1, 211214, Control_c, 0, 67, 63
1, 211229, Control_c, 0, 67, 63
1, 211239, Note_on_c, 0, 80, 66
1, 211244, Control_c, 0, 67, 62
1, 211259, Control_c, 0, 67, 60
1, 211274, Control_c, 0, 67, 59
1, 211289, Control_c, 0, 67, 57
1, 211297, Note_off_c, 0, 80, 64
1, 211299, Note_on_c, 0, 78, 84
1, 211304, Control_c, 0, 67, 54
1, 211315, Note_on_c, 0, 66, 66
1, 211318, Control_c, 0, 67, 49
1, 211323, Note_on_c, 0, 63, 65
1, 211327, Note_off_c, 0, 70, 60
1, 211333, Control_c, 0, 67, 42
1, 211348, Control_c, 0, 67, 35
1, 211351, Note_on_c, 0, 80, 78
1, 211354, Note_off_c, 0, 78, 67
1, 211363, Control_c, 0, 67, 32
1, 211414, Note_on_c, 0, 78, 84
1, 211437, Control_c, 0, 67, 31
1, 211446, Note_off_c, 0, 63, 64
1, 211447, Note_on_c, 0, 70, 63
1, 211447, Note_off_c, 0, 80, 64
1, 211452, Control_c, 0, 67, 30
1, 211453, Note_off_c, 0, 66, 61
1, 211466, Control_c, 0, 67, 30
1, 211475, Note_on_c, 0, 77, 77
1, 211481, Note_off_c, 0, 78, 66
1, 211481, Control_c, 0, 67, 29
1, 211496, Control_c, 0, 67, 29
1, 211511, Control_c, 0, 67, 28
1, 211526, Control_c, 0, 67, 27
1, 211542, Control_c, 0, 67, 25
1, 211548, Note_on_c, 0, 75, 76
1, 211552, Note_off_c, 0, 77, 62
1, 211556, Control_c, 0, 67, 25
1, 211559, Note_on_c, 0, 63, 54
1, 211563, Note_off_c, 0, 70, 58
1, 211569, Note_off_c, 0, 75, 69
1, 211571, Note_on_c, 0, 66, 53
1, 211616, Control_c, 0, 67, 24
1, 211645, Control_c, 0, 67, 25
1, 211660, Control_c, 0, 67, 28
1, 211675, Control_c, 0, 67, 29
1, 211685, Note_on_c, 0, 70, 64
1, 211685, Note_on_c, 0, 75, 74
1, 211709, Note_off_c, 0, 63, 38
1, 211709, Note_off_c, 0, 75, 67
1, 211719, Control_c, 0, 67, 30
1, 211734, Control_c, 0, 67, 31
1, 211749, Control_c, 0, 67, 33
1, 211771, Control_c, 0, 67, 33
1, 211786, Control_c, 0, 67, 33
1, 211801, Control_c, 0, 67, 32
1, 211816, Control_c, 0, 67, 32
1, 211819, Note_on_c, 0, 80, 85
1, 211834, Note_on_c, 0, 65, 62
1, 211840, Note_on_c, 0, 62, 60
1, 211846, Note_off_c, 0, 70, 60
1, 211860, Control_c, 0, 67, 31
1, 211870, Note_on_c, 0, 82, 82
1, 211870, Note_off_c, 0, 80, 65
1, 211875, Control_c, 0, 67, 31
1, 211900, Note_off_c, 0, 66, 43
1, 211919, Control_c, 0, 67, 31
1, 211932, Note_on_c, 0, 80, 83
1, 211934, Control_c, 0, 67, 32
1, 211941, Note_off_c, 0, 65, 64
1, 211947, Note_on_c, 0, 70, 68
1, 211950, Note_off_c, 0, 62, 60
1, 211978, Control_c, 0, 67, 32
1, 211986, Note_on_c, 0, 78, 82
1, 211986, Note_off_c, 0, 82, 62
1, 211993, Control_c, 0, 67, 33
1, 212008, Control_c, 0, 67, 35
1, 212023, Control_c, 0, 67, 35
1, 212028, Note_off_c, 0, 80, 64
1, 212040, Note_on_c, 0, 77, 79
1, 212048, Note_off_c, 0, 78, 67
1, 212052, Control_c, 0, 67, 36
1, 212055, Note_on_c, 0, 65, 48
1, 212062, Note_on_c, 0, 62, 62
1, 212064, Note_off_c, 0, 70, 56
1, 212067, Control_c, 0, 67, 37
1, 212080, Note_off_c, 0, 77, 64
1, 212082, Control_c, 0, 67, 38
1, 212096, Control_c, 0, 67, 40
1, 212111, Control_c, 0, 67, 42
1, 212126, Control_c, 0, 67, 45
1, 212141, Control_c, 0, 67, 49
1, 212156, Control_c, 0, 67, 55
1, 212171, Control_c, 0, 67, 62
1, 212185, Note_off_c, 0, 62, 61
1, 212186, Control_c, 0, 67, 69
1, 212191, Note_on_c, 0, 77, 73
1, 212201, Control_c, 0, 67, 77
1, 212208, Note_on_c, 0, 70, 65
1, 212215, Note_off_c, 0, 65, 63
1, 212216, Control_c, 0, 67, 85
1, 212227, Note_off_c, 0, 77, 61
1, 212230, Control_c, 0, 67, 93
1, 212245, Control_c, 0, 67, 99
1, 212260, Control_c, 0, 67, 103
1, 212275, Control_c, 0, 67, 109
1, 212289, Control_c, 0, 67, 115
1, 212304, Control_c, 0, 67, 123
1, 212319, Control_c, 0, 67, 127
1, 212338, Note_off_c, 0, 70, 57
1, 212348, Note_on_c, 0, 78, 67
1, 212363, Note_on_c, 0, 66, 50
1, 212364, Note_on_c, 0, 63, 48
1, 212374, Note_off_c, 0, 78, 64
1, 212404, Note_on_c, 0, 80, 62
1, 212451, Note_off_c, 0, 63, 53
1, 212451, Note_on_c, 0, 78, 70
1, 212461, Note_on_c, 0, 70, 53
1, 212469, Note_off_c, 0, 80, 62
1, 212495, Note_off_c, 0, 66, 42
1, 212519, Note_off_c, 0, 78, 66
1, 212528, Note_on_c, 0, 77, 62
1, 212584, Note_off_c, 0, 77, 61
1, 212589, Note_off_c, 0, 70, 55
1, 212590, Note_on_c, 0, 75, 65
1, 212598, Note_on_c, 0, 63, 48
1, 212615, Note_on_c, 0, 66, 44
1, 212619, Note_off_c, 0, 75, 64
1, 212669, Note_off_c, 0, 66, 0
1, 212669, Note_on_c, 0, 66, 10
1, 212718, Note_off_c, 0, 63, 59
1, 212734, Note_on_c, 0, 75, 68
1, 212740, Note_on_c, 0, 70, 54
1, 212762, Note_off_c, 0, 75, 66
1, 212857, Note_off_c, 0, 66, 42
1, 212871, Note_on_c, 0, 80, 68
1, 212884, Note_on_c, 0, 65, 51
1, 212892, Note_off_c, 0, 70, 60
1, 212903, Note_on_c, 0, 62, 45
1, 212906, Note_off_c, 0, 80, 63
1, 212926, Note_on_c, 0, 82, 67
1, 212982, Note_on_c, 0, 80, 66
1, 212994, Note_off_c, 0, 62, 61
1, 212994, Note_off_c, 0, 65, 63
1, 213006, Note_on_c, 0, 70, 61
1, 213022, Note_off_c, 0, 82, 60
1, 213038, Note_on_c, 0, 78, 78
1, 213067, Note_off_c, 0, 80, 64
1, 213086, Note_on_c, 0, 77, 77
1, 213088, Note_off_c, 0, 78, 68
1, 213113, Note_off_c, 0, 70, 54
1, 213116, Note_on_c, 0, 65, 52
1, 213119, Note_on_c, 0, 62, 52
1, 213125, Note_off_c, 0, 77, 64
1, 213232, Note_off_c, 0, 65, 66
1, 213232, Control_c, 0, 67, 124
1, 213234, Note_on_c, 0, 77, 78
1, 213239, Note_on_c, 0, 70, 68
1, 213242, Note_off_c, 0, 62, 63
1, 213247, Control_c, 0, 67, 119
1, 213270, Control_c, 0, 67, 113
1, 213274, Note_off_c, 0, 77, 62
1, 213275, Note_off_c, 0, 70, 65
1, 213284, Control_c, 0, 67, 110
1, 213299, Control_c, 0, 67, 107
1, 213314, Control_c, 0, 67, 103
1, 213329, Control_c, 0, 67, 101
1, 213343, Control_c, 0, 67, 99
1, 213358, Control_c, 0, 67, 98
1, 213367, Note_on_c, 0, 78, 81
1, 213373, Control_c, 0, 67, 95
1, 213378, Note_on_c, 0, 66, 69
1, 213383, Note_on_c, 0, 54, 71
1, 213388, Control_c, 0, 67, 91
1, 213403, Control_c, 0, 67, 88
1, 213417, Control_c, 0, 67, 86
1, 213426, Note_off_c, 0, 78, 66
1, 213429, Note_on_c, 0, 80, 82
1, 213432, Control_c, 0, 67, 86
1, 213447, Control_c, 0, 67, 85
1, 213454, Note_off_c, 0, 54, 65
1, 213462, Control_c, 0, 67, 85
1, 213477, Control_c, 0, 67, 84
1, 213483, Note_off_c, 0, 66, 63
1, 213491, Control_c, 0, 67, 83
1, 213503, Note_on_c, 0, 78, 85
1, 213506, Control_c, 0, 67, 82
1, 213521, Control_c, 0, 67, 82
1, 213533, Note_off_c, 0, 80, 64
1, 213536, Control_c, 0, 67, 82
1, 213543, Note_on_c, 0, 77, 75
1, 213551, Control_c, 0, 67, 82
1, 213551, Note_off_c, 0, 78, 68
1, 213566, Control_c, 0, 67, 81
1, 213581, Control_c, 0, 67, 78
1, 213596, Control_c, 0, 67, 75
1, 213610, Control_c, 0, 67, 74
1, 213620, Note_on_c, 0, 63, 74
1, 213625, Note_on_c, 0, 76, 72
1, 213625, Control_c, 0, 67, 73
1, 213627, Note_off_c, 0, 77, 60
1, 213632, Note_on_c, 0, 51, 68
1, 213640, Control_c, 0, 67, 71
1, 213655, Note_off_c, 0, 76, 60
1, 213655, Control_c, 0, 67, 70
1, 213663, Note_off_c, 0, 51, 67
1, 213668, Note_off_c, 0, 63, 56
1, 213670, Control_c, 0, 67, 70
1, 213674, Note_on_c, 0, 77, 61
1, 213684, Control_c, 0, 67, 69
1, 213714, Control_c, 0, 67, 68
1, 213728, Control_c, 0, 67, 67
1, 213735, Note_on_c, 0, 75, 70
1, 213743, Control_c, 0, 67, 65
1, 213758, Control_c, 0, 67, 64
1, 213769, Note_off_c, 0, 77, 64
1, 213789, Note_on_c, 0, 73, 81
1, 213802, Control_c, 0, 67, 64
1, 213814, Note_off_c, 0, 75, 64
1, 213817, Control_c, 0, 67, 63
1, 213832, Control_c, 0, 67, 61
1, 213846, Note_on_c, 0, 71, 76
1, 213847, Control_c, 0, 67, 59
1, 213854, Note_on_c, 0, 47, 71
1, 213855, Note_off_c, 0, 73, 65
1, 213861, Control_c, 0, 67, 58
1, 213864, Note_on_c, 0, 59, 61
1, 213876, Control_c, 0, 67, 55
1, 213886, Poly_aftertouch_c, 0, 73, 0
1, 213888, Note_off_c, 0, 71, 63
1, 213891, Control_c, 0, 67, 52
1, 213895, Note_off_c, 0, 59, 66
1, 213896, Note_off_c, 0, 47, 66
1, 213897, Note_on_c, 0, 73, 63
1, 213906, Control_c, 0, 67, 49
1, 213922, Control_c, 0, 67, 48
1, 213951, Control_c, 0, 67, 47
1, 213971, Note_on_c, 0, 71, 63
1, 214004, Control_c, 0, 67, 46
1, 214018, Control_c, 0, 67, 46
1, 214019, Note_off_c, 0, 73, 62
1, 214026, Note_on_c, 0, 70, 74
1, 214032, Control_c, 0, 67, 45
1, 214047, Control_c, 0, 67, 44
1, 214053, Note_off_c, 0, 71, 66
1, 214062, Control_c, 0, 67, 44
1, 214075, Note_off_c, 0, 70, 63
1, 214079, Note_on_c, 0, 68, 76
1, 214092, Control_c, 0, 67, 42
1, 214106, Control_c, 0, 67, 40
1, 214108, Note_on_c, 0, 44, 46
1, 214109, Note_on_c, 0, 56, 57
1, 214112, Note_off_c, 0, 68, 59
1, 214121, Control_c, 0, 67, 39
1, 214135, Note_off_c, 0, 56, 64
1, 214135, Note_on_c, 0, 70, 64
1, 214136, Control_c, 0, 67, 38
1, 214140, Note_off_c, 0, 44, 52
1, 214150, Control_c, 0, 67, 36
1, 214165, Control_c, 0, 67, 35
1, 214180, Control_c, 0, 67, 35
1, 214201, Note_on_c, 0, 68, 76
1, 214207, Note_off_c, 0, 70, 62
1, 214225, Control_c, 0, 67, 34
1, 214240, Control_c, 0, 67, 32
1, 214255, Control_c, 0, 67, 31
1, 214258, Note_on_c, 0, 66, 71
1, 214274, Note_off_c, 0, 68, 56
1, 214299, Control_c, 0, 67, 30
1, 214314, Control_c, 0, 67, 27
1, 214314, Note_off_c, 0, 66, 62
1, 214327, Note_on_c, 0, 65, 67
1, 214329, Control_c, 0, 67, 21
1, 214343, Note_on_c, 0, 53, 63
1, 214344, Control_c, 0, 67, 15
1, 214349, Note_on_c, 0, 41, 69
1, 214358, Control_c, 0, 67, 12
1, 214373, Control_c, 0, 67, 9
1, 214388, Control_c, 0, 67, 0
1, 214394, Note_on_c, 0, 66, 68
1, 214407, Note_off_c, 0, 65, 59
1, 214445, Note_off_c, 0, 66, 61
1, 214456, Note_on_c, 0, 68, 70
1, 214512, Note_on_c, 0, 66, 63
1, 214544, Note_off_c, 0, 68, 57
1, 214574, Note_off_c, 0, 66, 64
1, 214577, Note_on_c, 0, 65, 69
1, 214610, Control_c, 0, 64, 8
1, 214624, Control_c, 0, 64, 14
1, 214639, Control_c, 0, 64, 19
1, 214645, Note_on_c, 0, 66, 65
1, 214647, Note_off_c, 0, 53, 60
1, 214654, Control_c, 0, 64, 25
1, 214669, Control_c, 0, 64, 29
1, 214677, Note_off_c, 0, 65, 54
1, 214684, Control_c, 0, 64, 32
1, 214699, Control_c, 0, 64, 35
1, 214701, Note_on_c, 0, 68, 68
1, 214702, Note_off_c, 0, 66, 63
1, 214714, Control_c, 0, 64, 38
1, 214729, Control_c, 0, 64, 42
1, 214744, Control_c, 0, 64, 45
1, 214767, Control_c, 0, 64, 47
1, 214777, Note_on_c, 0, 66, 60
1, 214781, Control_c, 0, 64, 48
1, 214788, Note_off_c, 0, 68, 56
1, 214811, Control_c, 0, 64, 47
1, 214826, Control_c, 0, 64, 46
1, 214839, Note_off_c, 0, 66, 63
1, 214841, Control_c, 0, 64, 41
1, 214844, Note_on_c, 0, 65, 64
1, 214849, Note_on_c, 0, 39, 78
1, 214855, Control_c, 0, 64, 32
1, 214858, Note_on_c, 0, 51, 66
1, 214870, Control_c, 0, 64, 14
1, 214871, Note_off_c, 0, 41, 57
1, 214885, Control_c, 0, 64, 0
1, 214915, Note_on_c, 0, 66, 68
1, 214940, Note_off_c, 0, 65, 59
1, 214959, Control_c, 0, 67, 8
1, 214967, Note_off_c, 0, 66, 61
1, 214974, Note_on_c, 0, 68, 68
1, 215018, Control_c, 0, 67, 9
1, 215033, Note_on_c, 0, 66, 62
1, 215033, Control_c, 0, 67, 10
1, 215048, Control_c, 0, 67, 11
1, 215058, Note_off_c, 0, 68, 59
1, 215062, Control_c, 0, 67, 12
1, 215092, Note_off_c, 0, 66, 64
1, 215094, Note_on_c, 0, 65, 62
1, 215122, Control_c, 0, 67, 13
1, 215137, Control_c, 0, 67, 14
1, 215150, Note_on_c, 0, 66, 68
1, 215167, Control_c, 0, 67, 13
1, 215181, Control_c, 0, 67, 12
1, 215191, Note_off_c, 0, 65, 56
1, 215211, Control_c, 0, 67, 13
1, 215215, Note_off_c, 0, 66, 63
1, 215219, Note_on_c, 0, 68, 77
1, 215289, Note_on_c, 0, 66, 64
1, 215299, Control_c, 0, 67, 13
1, 215300, Note_off_c, 0, 51, 62
1, 215313, Note_off_c, 0, 68, 57
1, 215349, Note_on_c, 0, 65, 72
1, 215352, Note_off_c, 0, 66, 64
1, 215356, Note_on_c, 0, 50, 65
1, 215364, Note_on_c, 0, 38, 79
1, 215412, Note_off_c, 0, 39, 60
1, 215418, Control_c, 0, 67, 14
1, 215427, Note_on_c, 0, 66, 66
1, 215446, Note_off_c, 0, 65, 56
1, 215447, Control_c, 0, 67, 15
1, 215462, Control_c, 0, 67, 16
1, 215477, Control_c, 0, 67, 16
1, 215484, Note_on_c, 0, 68, 68
1, 215486, Note_off_c, 0, 66, 63
1, 215530, Control_c, 0, 67, 17
1, 215545, Control_c, 0, 67, 18
1, 215560, Control_c, 0, 67, 21
1, 215560, Note_on_c, 0, 66, 66
1, 215575, Control_c, 0, 67, 23
1, 215584, Note_off_c, 0, 68, 59
1, 215590, Control_c, 0, 67, 25
1, 215604, Control_c, 0, 67, 28
1, 215614, Note_off_c, 0, 66, 63
1, 215619, Control_c, 0, 67, 31
1, 215620, Note_on_c, 0, 65, 62
1, 215634, Control_c, 0, 67, 35
1, 215649, Control_c, 0, 67, 39
1, 215664, Control_c, 0, 67, 41
1, 215677, Note_on_c, 0, 66, 64
1, 215678, Control_c, 0, 67, 42
1, 215682, Note_off_c, 0, 50, 51
1, 215693, Control_c, 0, 67, 43
1, 215703, Note_off_c, 0, 65, 55
1, 215708, Control_c, 0, 67, 44
1, 215723, Control_c, 0, 67, 45
1, 215736, Note_off_c, 0, 66, 63
1, 215737, Control_c, 0, 67, 47
1, 215742, Note_on_c, 0, 68, 65
1, 215752, Control_c, 0, 67, 50
1, 215767, Control_c, 0, 67, 53
1, 215782, Control_c, 0, 67, 53
1, 215797, Control_c, 0, 67, 54
1, 215805, Note_on_c, 0, 66, 63
1, 215811, Control_c, 0, 67, 54
1, 215826, Note_off_c, 0, 68, 59
1, 215841, Control_c, 0, 67, 55
1, 215856, Control_c, 0, 67, 55
1, 215860, Note_off_c, 0, 66, 63
1, 215868, Note_on_c, 0, 65, 60
1, 215883, Note_on_c, 0, 47, 52
1, 215885, Note_on_c, 0, 35, 59
1, 215914, Note_off_c, 0, 38, 49
1, 215915, Control_c, 0, 67, 55
1, 215924, Note_on_c, 0, 66, 61
1, 215930, Control_c, 0, 67, 54
1, 215953, Note_off_c, 0, 65, 54
1, 215984, Note_off_c, 0, 66, 63
1, 215995, Note_on_c, 0, 68, 59
1, 216034, Control_c, 0, 67, 55
1, 216049, Note_on_c, 0, 66, 57
1, 216065, Note_off_c, 0, 68, 60
1, 216093, Control_c, 0, 67, 54
1, 216106, Note_off_c, 0, 66, 62
1, 216113, Note_on_c, 0, 65, 61
1, 216167, Control_c, 0, 67, 54
1, 216168, Note_on_c, 0, 66, 60
1, 216207, Note_off_c, 0, 65, 54
1, 216215, Note_off_c, 0, 47, 37
1, 216232, Note_off_c, 0, 66, 63
1, 216255, Note_on_c, 0, 68, 60
1, 216306, Note_on_c, 0, 66, 52
1, 216308, Control_c, 0, 67, 53
1, 216323, Control_c, 0, 67, 53
1, 216339, Control_c, 0, 67, 52
1, 216340, Note_off_c, 0, 68, 58
1, 216353, Control_c, 0, 67, 51
1, 216362, Note_off_c, 0, 66, 63
1, 216368, Control_c, 0, 67, 51
1, 216374, Note_on_c, 0, 65, 59
1, 216380, Note_on_c, 0, 34, 53
1, 216383, Control_c, 0, 67, 50
1, 216398, Note_off_c, 0, 35, 60
1, 216398, Control_c, 0, 67, 49
1, 216407, Note_on_c, 0, 46, 17
1, 216413, Control_c, 0, 67, 48
1, 216428, Control_c, 0, 67, 47
1, 216431, Note_off_c, 0, 65, 58
1, 216443, Note_on_c, 0, 67, 61
1, 216443, Control_c, 0, 67, 46
1, 216457, Control_c, 0, 67, 45
1, 216472, Control_c, 0, 67, 44
1, 216490, Note_off_c, 0, 67, 59
1, 216507, Note_on_c, 0, 68, 59
1, 216517, Control_c, 0, 67, 45
1, 216532, Control_c, 0, 67, 44
1, 216547, Control_c, 0, 67, 44
1, 216559, Note_on_c, 0, 67, 58
1, 216560, Note_off_c, 0, 68, 59
1, 216561, Control_c, 0, 67, 43
1, 216576, Control_c, 0, 67, 42
1, 216604, Note_off_c, 0, 67, 62
1, 216606, Control_c, 0, 67, 43
1, 216622, Note_on_c, 0, 65, 59
1, 216650, Control_c, 0, 67, 42
1, 216657, Note_off_c, 0, 65, 68
1, 216670, Note_on_c, 0, 67, 59
1, 216724, Control_c, 0, 67, 41
1, 216733, Note_off_c, 0, 67, 63
1, 216756, Note_on_c, 0, 68, 54
1, 216812, Note_off_c, 0, 68, 58
1, 216813, Control_c, 0, 67, 40
1, 216815, Note_on_c, 0, 67, 58
1, 216827, Control_c, 0, 67, 40
1, 216842, Control_c, 0, 67, 39
1, 216857, Control_c, 0, 67, 37
1, 216858, Note_off_c, 0, 67, 63
1, 216872, Control_c, 0, 67, 36
1, 216882, Note_on_c, 0, 65, 55
1, 216902, Control_c, 0, 67, 35
1, 216917, Note_off_c, 0, 65, 67
1, 216931, Control_c, 0, 67, 35
1, 216932, Note_on_c, 0, 67, 55
1, 216946, Control_c, 0, 67, 34
1, 216961, Control_c, 0, 67, 34
1, 216976, Control_c, 0, 67, 33
1, 216976, Note_off_c, 0, 67, 62
1, 216991, Control_c, 0, 67, 31
1, 217009, Note_on_c, 0, 68, 60
1, 217012, Control_c, 0, 67, 29
1, 217061, Note_off_c, 0, 68, 57
1, 217068, Note_on_c, 0, 67, 59
1, 217100, Control_c, 0, 67, 28
1, 217104, Note_off_c, 0, 67, 64
1, 217134, Note_on_c, 0, 65, 55
1, 217158, Note_off_c, 0, 65, 65
1, 217175, Control_c, 0, 67, 28
1, 217180, Note_on_c, 0, 67, 61
1, 217227, Note_off_c, 0, 67, 62
1, 217235, Control_c, 0, 67, 27
1, 217249, Control_c, 0, 67, 27
1, 217250, Note_on_c, 0, 68, 58
1, 217304, Note_off_c, 0, 68, 58
1, 217305, Note_on_c, 0, 67, 54
1, 217323, Control_c, 0, 67, 26
1, 217346, Note_off_c, 0, 67, 64
1, 217363, Note_on_c, 0, 65, 58
1, 217391, Note_off_c, 0, 65, 68
1, 217412, Control_c, 0, 67, 26
1, 217414, Note_on_c, 0, 67, 67
1, 217442, Control_c, 0, 67, 25
1, 217464, Note_off_c, 0, 67, 62
1, 217493, Note_on_c, 0, 68, 56
1, 217545, Note_on_c, 0, 67, 55
1, 217549, Note_off_c, 0, 68, 57
1, 217589, Note_off_c, 0, 67, 62
1, 217605, Note_on_c, 0, 65, 58
1, 217637, Note_off_c, 0, 65, 68
1, 217653, Note_on_c, 0, 67, 62
1, 217664, Control_c, 0, 67, 25
1, 217698, Note_off_c, 0, 67, 61
1, 217731, Note_on_c, 0, 68, 67
1, 217781, Note_on_c, 0, 67, 61
1, 217795, Note_off_c, 0, 68, 60
1, 217816, Note_off_c, 0, 67, 66
1, 217820, Control_c, 0, 67, 24
1, 217835, Control_c, 0, 67, 23
1, 217842, Note_on_c, 0, 65, 55
1, 217878, Note_off_c, 0, 65, 68
1, 217885, Note_on_c, 0, 67, 70
1, 217895, Note_off_c, 0, 34, 63
1, 217908, Control_c, 0, 67, 22
1, 217936, Note_off_c, 0, 46, 60
1, 217948, Note_on_c, 0, 68, 74
1, 217981, Note_off_c, 0, 67, 63
1, 217999, Note_on_c, 0, 70, 78
1, 218013, Control_c, 0, 67, 22
1, 218014, Note_off_c, 0, 68, 62
1, 218022, Note_off_c, 0, 70, 69
1, 218061, Note_on_c, 0, 72, 70
1, 218072, Control_c, 0, 67, 22
1, 218092, Note_off_c, 0, 72, 63
1, 218107, Note_on_c, 0, 74, 79
1, 218175, Note_on_c, 0, 75, 74
1, 218205, Control_c, 0, 67, 22
1, 218210, Note_on_c, 0, 77, 81
1, 218222, Note_off_c, 0, 74, 63
1, 218251, Note_off_c, 0, 75, 61
1, 218270, Note_off_c, 0, 77, 62
1, 218279, Control_c, 0, 67, 21
1, 218309, Note_on_c, 0, 79, 77
1, 218310, Note_on_c, 0, 70, 52
1, 218327, Note_on_c, 0, 75, 49
1, 218328, Note_on_c, 0, 67, 48
1, 218331, Note_on_c, 0, 63, 50
1, 218383, Control_c, 0, 67, 22
1, 218398, Control_c, 0, 67, 23
1, 218413, Control_c, 0, 67, 25
1, 218428, Control_c, 0, 67, 25
1, 218442, Control_c, 0, 64, 14
1, 218442, Control_c, 0, 67, 26
1, 218457, Control_c, 0, 64, 26
1, 218457, Control_c, 0, 67, 26
1, 218470, Note_off_c, 0, 75, 62
1, 218472, Control_c, 0, 64, 35
1, 218472, Control_c, 0, 67, 27
1, 218485, Note_off_c, 0, 79, 64
1, 218487, Control_c, 0, 64, 45
1, 218487, Control_c, 0, 67, 28
1, 218509, Control_c, 0, 64, 51
1, 218523, Control_c, 0, 64, 55
1, 218538, Control_c, 0, 64, 58
1, 218538, Control_c, 0, 67, 28
1, 218553, Control_c, 0, 64, 59
1, 218553, Control_c, 0, 67, 30
1, 218568, Control_c, 0, 67, 30
1, 218575, Note_off_c, 0, 63, 64
1, 218583, Control_c, 0, 67, 31
1, 218598, Control_c, 0, 67, 31
1, 218613, Control_c, 0, 67, 32
1, 218628, Control_c, 0, 67, 33
1, 218630, Note_off_c, 0, 70, 37
1, 218642, Control_c, 0, 67, 33
1, 218672, Control_c, 0, 67, 33
1, 218684, Note_off_c, 0, 67, 35
1, 218702, Control_c, 0, 64, 59
1, 218745, Note_on_c, 0, 62, 49
1, 218747, Control_c, 0, 67, 33
1, 218762, Control_c, 0, 64, 58
1, 218762, Control_c, 0, 67, 34
1, 218777, Control_c, 0, 64, 56
1, 218791, Note_on_c, 0, 65, 50
1, 218792, Control_c, 0, 64, 54
1, 218806, Control_c, 0, 64, 49
1, 218821, Control_c, 0, 64, 38
1, 218821, Control_c, 0, 67, 35
1, 218829, Note_on_c, 0, 70, 54
1, 218835, Note_on_c, 0, 77, 66
1, 218836, Control_c, 0, 64, 14
1, 218836, Control_c, 0, 67, 36
1, 218851, Control_c, 0, 64, 0
1, 218851, Control_c, 0, 67, 38
1, 218866, Control_c, 0, 67, 40
1, 218880, Control_c, 0, 67, 41
1, 218895, Control_c, 0, 67, 42
1, 218896, Note_on_c, 0, 82, 82
1, 218910, Control_c, 0, 67, 43
1, 218925, Control_c, 0, 67, 47
1, 218940, Control_c, 0, 67, 51
1, 218954, Control_c, 0, 64, 21
1, 218954, Control_c, 0, 67, 52
1, 218969, Control_c, 0, 64, 34
1, 218969, Control_c, 0, 67, 52
1, 218984, Control_c, 0, 64, 42
1, 218984, Control_c, 0, 67, 53
1, 218986, Note_off_c, 0, 62, 64
1, 218999, Control_c, 0, 64, 48
1, 218999, Control_c, 0, 67, 54
1, 219012, Note_off_c, 0, 77, 62
1, 219014, Control_c, 0, 64, 53
1, 219014, Control_c, 0, 67, 55
1, 219028, Control_c, 0, 64, 57
1, 219028, Control_c, 0, 67, 58
1, 219043, Control_c, 0, 64, 59
1, 219043, Control_c, 0, 67, 59
1, 219044, Note_off_c, 0, 65, 64
1, 219058, Control_c, 0, 67, 59
1, 219063, Note_off_c, 0, 82, 64
1, 219072, Control_c, 0, 67, 60
1, 219087, Control_c, 0, 64, 59
1, 219087, Control_c, 0, 67, 61
1, 219102, Control_c, 0, 67, 63
1, 219112, Note_off_c, 0, 70, 37
1, 219117, Control_c, 0, 64, 60
1, 219117, Control_c, 0, 67, 67
1, 219132, Control_c, 0, 64, 60
1, 219132, Control_c, 0, 67, 70
1, 219146, Control_c, 0, 67, 71
1, 219161, Control_c, 0, 67, 72
1, 219191, Control_c, 0, 67, 73
1, 219206, Control_c, 0, 67, 73
1, 219221, Control_c, 0, 67, 74
1, 219236, Control_c, 0, 67, 75
1, 219258, Control_c, 0, 67, 76
1, 219272, Control_c, 0, 67, 77
1, 219287, Control_c, 0, 67, 77
1, 219302, Control_c, 0, 67, 78
1, 219304, Note_on_c, 0, 60, 50
1, 219332, Control_c, 0, 67, 79
1, 219346, Control_c, 0, 67, 79
1, 219355, Note_on_c, 0, 63, 45
1, 219361, Control_c, 0, 64, 60
1, 219361, Control_c, 0, 67, 81
1, 219376, Control_c, 0, 64, 59
1, 219376, Control_c, 0, 67, 84
1, 219388, Note_on_c, 0, 75, 50
1, 219391, Control_c, 0, 64, 59
1, 219391, Control_c, 0, 67, 87
1, 219406, Control_c, 0, 64, 58
1, 219406, Control_c, 0, 67, 89
1, 219415, Note_on_c, 0, 68, 36
1, 219421, Control_c, 0, 64, 56
1, 219421, Control_c, 0, 67, 91
1, 219434, Note_on_c, 0, 80, 58
1, 219435, Control_c, 0, 64, 52
1, 219435, Control_c, 0, 67, 91
1, 219444, Note_off_c, 0, 75, 0
1, 219444, Note_on_c, 0, 75, 18
1, 219450, Control_c, 0, 64, 46
1, 219450, Control_c, 0, 67, 92
1, 219465, Control_c, 0, 64, 38
1, 219465, Control_c, 0, 67, 94
1, 219475, Note_off_c, 0, 68, 0
1, 219475, Note_on_c, 0, 68, 3
1, 219477, Note_on_c, 0, 87, 71
1, 219480, Control_c, 0, 64, 34
1, 219480, Control_c, 0, 67, 97
1, 219495, Control_c, 0, 64, 30
1, 219495, Control_c, 0, 67, 99
1, 219510, Control_c, 0, 64, 22
1, 219510, Control_c, 0, 67, 100
1, 219525, Control_c, 0, 64, 0
1, 219525, Control_c, 0, 67, 101
1, 219570, Control_c, 0, 67, 101
1, 219584, Control_c, 0, 67, 102
1, 219614, Control_c, 0, 67, 103
1, 219629, Control_c, 0, 67, 104
1, 219644, Control_c, 0, 67, 104
1, 219659, Control_c, 0, 67, 105
1, 219674, Control_c, 0, 67, 106
1, 219688, Control_c, 0, 67, 106
1, 219703, Control_c, 0, 67, 107
1, 219718, Control_c, 0, 67, 107
1, 219733, Control_c, 0, 67, 108
1, 219748, Control_c, 0, 67, 108
1, 219763, Control_c, 0, 67, 109
1, 219792, Control_c, 0, 67, 109
1, 219837, Control_c, 0, 67, 110
1, 219910, Control_c, 0, 67, 110
1, 219955, Control_c, 0, 67, 111
1, 220103, Note_off_c, 0, 75, 42
1, 220196, Note_off_c, 0, 87, 55
1, 220221, Note_off_c, 0, 60, 37
1, 220260, Note_off_c, 0, 63, 62
1, 220268, Note_off_c, 0, 68, 55
1, 220273, Control_c, 0, 67, 110
1, 220351, Note_off_c, 0, 80, 59
1, 220353, Note_on_c, 0, 86, 66
1, 220406, Note_on_c, 0, 84, 59
1, 220428, Note_off_c, 0, 86, 59
1, 220446, Note_on_c, 0, 82, 62
1, 220465, Note_off_c, 0, 84, 60
1, 220501, Note_on_c, 0, 80, 69
1, 220511, Control_c, 0, 67, 111
1, 220520, Note_off_c, 0, 82, 67
1, 220535, Note_on_c, 0, 70, 48
1, 220556, Note_off_c, 0, 80, 65
1, 220561, Note_off_c, 0, 70, 56
1, 220644, Control_c, 0, 67, 111
1, 220674, Control_c, 0, 67, 112
1, 220925, Note_on_c, 0, 79, 60
1, 220962, Note_on_c, 0, 75, 12
1, 221022, Note_off_c, 0, 75, 42
1, 221081, Note_on_c, 0, 84, 70
1, 221135, Poly_aftertouch_c, 0, 75, 127
1, 221146, Note_off_c, 0, 79, 53
1, 221179, Poly_aftertouch_c, 0, 75, 0
1, 221191, Note_off_c, 0, 84, 61
1, 221467, Note_on_c, 0, 82, 63
1, 221501, Note_on_c, 0, 75, 43
1, 221519, Control_c, 0, 67, 113
1, 221549, Control_c, 0, 67, 115
1, 221564, Control_c, 0, 67, 119
1, 221579, Control_c, 0, 67, 123
1, 221594, Control_c, 0, 67, 125
1, 221608, Control_c, 0, 67, 127
1, 221623, Control_c, 0, 67, 127
1, 221673, Note_off_c, 0, 82, 60
1, 221674, Note_on_c, 0, 81, 61
1, 222099, Note_off_c, 0, 81, 59
1, 222135, Note_off_c, 0, 75, 60
1, 222314, Note_on_c, 0, 80, 54
1, 222321, Note_on_c, 0, 84, 52
1, 222340, Note_off_c, 0, 80, 59
1, 222354, Note_off_c, 0, 84, 52
1, 222437, Note_on_c, 0, 82, 58
1, 222439, Note_on_c, 0, 79, 59
1, 222460, Note_off_c, 0, 79, 64
1, 222464, Note_off_c, 0, 82, 63
1, 222574, Note_on_c, 0, 80, 51
1, 222597, Note_off_c, 0, 80, 61
1, 222610, Note_on_c, 0, 77, 22
1, 222651, Note_off_c, 0, 77, 42
1, 222708, Note_on_c, 0, 75, 62
1, 222712, Note_on_c, 0, 79, 56
1, 222832, Note_on_c, 0, 70, 66
1, 222832, Control_c, 0, 67, 127
1, 222842, Note_on_c, 0, 67, 59
1, 222846, Control_c, 0, 67, 126
1, 222861, Control_c, 0, 67, 124
1, 222866, Note_off_c, 0, 70, 58
1, 222873, Note_off_c, 0, 67, 66
1, 222876, Control_c, 0, 67, 122
1, 222891, Control_c, 0, 67, 118
1, 222906, Control_c, 0, 67, 115
1, 222920, Control_c, 0, 67, 113
1, 222935, Control_c, 0, 67, 112
1, 222950, Control_c, 0, 67, 112
1, 222963, Note_on_c, 0, 65, 64
1, 222971, Note_on_c, 0, 68, 67
1, 222980, Control_c, 0, 67, 111
1, 222998, Note_off_c, 0, 65, 69
1, 223003, Control_c, 0, 67, 109
1, 223006, Note_off_c, 0, 68, 66
1, 223018, Control_c, 0, 67, 108
1, 223033, Control_c, 0, 67, 108
1, 223104, Note_off_c, 0, 79, 61
1, 223115, Note_on_c, 0, 63, 60
1, 223115, Note_on_c, 0, 67, 62
1, 223121, Note_off_c, 0, 75, 61
1, 223150, Note_off_c, 0, 67, 63
1, 223152, Note_off_c, 0, 63, 67
1, 223195, Control_c, 0, 67, 107
1, 223252, Note_on_c, 0, 65, 55
1, 223260, Note_on_c, 0, 62, 55
1, 223284, Control_c, 0, 67, 106
1, 223343, Control_c, 0, 67, 106
1, 223358, Control_c, 0, 67, 105
1, 223381, Note_on_c, 0, 80, 73
1, 223384, Note_on_c, 0, 84, 65
1, 223388, Control_c, 0, 67, 105
1, 223403, Control_c, 0, 67, 104
1, 223415, Note_off_c, 0, 80, 63
1, 223418, Control_c, 0, 67, 103
1, 223422, Note_off_c, 0, 84, 64
1, 223433, Control_c, 0, 67, 101
1, 223446, Note_off_c, 0, 62, 63
1, 223447, Control_c, 0, 67, 99
1, 223462, Control_c, 0, 67, 98
1, 223468, Note_off_c, 0, 65, 65
1, 223502, Note_on_c, 0, 82, 72
1, 223510, Note_on_c, 0, 79, 70
1, 223534, Note_off_c, 0, 79, 66
1, 223540, Note_off_c, 0, 82, 64
1, 223637, Note_on_c, 0, 77, 72
1, 223637, Note_on_c, 0, 80, 67
1, 223661, Note_off_c, 0, 80, 68
1, 223662, Note_off_c, 0, 77, 67
1, 223700, Control_c, 0, 67, 99
1, 223715, Control_c, 0, 67, 99
1, 223779, Note_on_c, 0, 79, 72
1, 223782, Note_on_c, 0, 75, 76
1, 223856, Control_c, 0, 67, 99
1, 223892, Note_on_c, 0, 70, 71
1, 223900, Note_on_c, 0, 67, 66
1, 223930, Control_c, 0, 67, 98
1, 223951, Note_off_c, 0, 70, 61
1, 223957, Note_off_c, 0, 67, 62
1, 224018, Control_c, 0, 67, 98
1, 224032, Note_on_c, 0, 65, 67
1, 224033, Control_c, 0, 67, 97
1, 224040, Note_on_c, 0, 68, 71
1, 224048, Control_c, 0, 67, 97
1, 224078, Note_off_c, 0, 65, 64
1, 224094, Note_off_c, 0, 68, 61
1, 224152, Note_on_c, 0, 67, 74
1, 224156, Note_on_c, 0, 63, 71
1, 224170, Note_off_c, 0, 79, 63
1, 224175, Note_off_c, 0, 75, 60
1, 224181, Control_c, 0, 67, 97
1, 224196, Control_c, 0, 67, 98
1, 224217, Note_off_c, 0, 67, 56
1, 224220, Note_off_c, 0, 63, 65
1, 224241, Control_c, 0, 67, 97
1, 224256, Control_c, 0, 67, 97
1, 224285, Control_c, 0, 67, 98
1, 224289, Note_on_c, 0, 62, 77
1, 224290, Note_on_c, 0, 65, 78
1, 224315, Note_off_c, 0, 62, 68
1, 224322, Note_off_c, 0, 65, 67
1, 224390, Control_c, 0, 67, 98
1, 224424, Note_on_c, 0, 84, 72
1, 224426, Note_on_c, 0, 70, 77
1, 224430, Note_on_c, 0, 80, 70
1, 224500, Control_c, 0, 67, 97
1, 224515, Control_c, 0, 67, 96
1, 224530, Control_c, 0, 67, 96
1, 224552, Note_on_c, 0, 82, 73
1, 224560, Note_on_c, 0, 72, 76
1, 224563, Note_on_c, 0, 79, 73
1, 224592, Note_off_c, 0, 80, 62
1, 224606, Note_off_c, 0, 84, 60
1, 224634, Control_c, 0, 67, 96
1, 224636, Note_off_c, 0, 70, 61
1, 224680, Note_on_c, 0, 74, 81
1, 224692, Control_c, 0, 67, 97
1, 224694, Note_on_c, 0, 80, 81
1, 224698, Note_on_c, 0, 77, 74
1, 224712, Note_off_c, 0, 72, 61
1, 224722, Note_off_c, 0, 79, 60
1, 224752, Control_c, 0, 67, 97
1, 224766, Control_c, 0, 67, 98
1, 224822, Note_on_c, 0, 79, 80
1, 224824, Note_on_c, 0, 75, 80
1, 224825, Control_c, 0, 64, 18
1, 224825, Control_c, 0, 67, 98
1, 224831, Note_off_c, 0, 77, 61
1, 224840, Control_c, 0, 64, 34
1, 224841, Note_off_c, 0, 74, 65
1, 224855, Note_off_c, 0, 79, 63
1, 224855, Control_c, 0, 64, 43
1, 224855, Control_c, 0, 67, 99
1, 224860, Note_off_c, 0, 80, 64
1, 224863, Note_off_c, 0, 82, 63
1, 224870, Control_c, 0, 64, 51
1, 224882, Note_off_c, 0, 75, 60
1, 224885, Control_c, 0, 64, 55
1, 224899, Control_c, 0, 64, 57
1, 224944, Control_c, 0, 64, 55
1, 224944, Control_c, 0, 67, 100
1, 224952, Note_on_c, 0, 82, 84
1, 224952, Note_on_c, 0, 87, 81
1, 224959, Note_on_c, 0, 79, 72
1, 224959, Control_c, 0, 64, 52
1, 224974, Control_c, 0, 64, 47
1, 224989, Control_c, 0, 64, 38
1, 225004, Control_c, 0, 64, 25
1, 225004, Control_c, 0, 67, 100
1, 225018, Control_c, 0, 64, 0
1, 225075, Note_off_c, 0, 87, 62
1, 225076, Note_on_c, 0, 80, 92
1, 225083, Note_on_c, 0, 77, 76
1, 225090, Note_on_c, 0, 86, 33
1, 225111, Note_off_c, 0, 82, 64
1, 225119, Note_off_c, 0, 79, 60
1, 225126, Note_off_c, 0, 86, 31
1, 225153, Control_c, 0, 67, 99
1, 225189, Note_on_c, 0, 84, 80
1, 225200, Note_on_c, 0, 75, 71
1, 225209, Note_on_c, 0, 79, 60
1, 225245, Note_on_c, 0, 78, 33
1, 225249, Note_off_c, 0, 77, 61
1, 225265, Note_off_c, 0, 80, 51
1, 225278, Control_c, 0, 67, 100
1, 225283, Note_off_c, 0, 78, 31
1, 225335, Note_on_c, 0, 82, 78
1, 225343, Note_on_c, 0, 74, 54
1, 225345, Note_on_c, 0, 77, 71
1, 225367, Note_off_c, 0, 75, 62
1, 225367, Control_c, 0, 67, 101
1, 225382, Control_c, 0, 67, 101
1, 225395, Note_off_c, 0, 79, 34
1, 225397, Control_c, 0, 67, 102
1, 225440, Note_off_c, 0, 77, 45
1, 225441, Control_c, 0, 67, 102
1, 225456, Control_c, 0, 67, 103
1, 225471, Note_on_c, 0, 80, 80
1, 225471, Control_c, 0, 67, 104
1, 225480, Note_on_c, 0, 72, 66
1, 225487, Note_off_c, 0, 74, 64
1, 225491, Note_on_c, 0, 75, 63
1, 225533, Note_off_c, 0, 84, 51
1, 225539, Note_off_c, 0, 72, 59
1, 225545, Control_c, 0, 67, 105
1, 225560, Control_c, 0, 67, 105
1, 225591, Note_off_c, 0, 75, 62
1, 225598, Note_on_c, 0, 79, 72
1, 225611, Note_on_c, 0, 70, 64
1, 225618, Note_on_c, 0, 74, 45
1, 225645, Note_off_c, 0, 82, 36
1, 225648, Control_c, 0, 67, 106
1, 225663, Control_c, 0, 67, 106
1, 225677, Note_off_c, 0, 74, 0
1, 225677, Note_on_c, 0, 74, 5
1, 225691, Note_off_c, 0, 80, 55
1, 225705, Note_off_c, 0, 79, 63
1, 225720, Note_off_c, 0, 70, 59
1, 225723, Note_on_c, 0, 77, 66
1, 225737, Control_c, 0, 67, 107
1, 225746, Note_on_c, 0, 68, 38
1, 225747, Note_on_c, 0, 72, 50
1, 225812, Note_off_c, 0, 68, 0
1, 225812, Note_on_c, 0, 68, 3
1, 225870, Note_off_c, 0, 74, 37
1, 225883, Note_off_c, 0, 68, 48
1, 225911, Note_on_c, 0, 76, 65
1, 225936, Note_on_c, 0, 70, 49
1, 225940, Note_on_c, 0, 67, 57
1, 225947, Note_off_c, 0, 77, 56
1, 226002, Note_off_c, 0, 72, 61
1, 226057, Control_c, 0, 67, 107
1, 226071, Control_c, 0, 67, 108
1, 226101, Control_c, 0, 67, 108
1, 226116, Control_c, 0, 67, 109
1, 226145, Control_c, 0, 67, 109
1, 226160, Control_c, 0, 67, 110
1, 226175, Control_c, 0, 67, 110
1, 226205, Control_c, 0, 67, 111
1, 226235, Control_c, 0, 67, 113
1, 226250, Control_c, 0, 67, 117
1, 226264, Control_c, 0, 67, 121
1, 226279, Control_c, 0, 67, 123
1, 226294, Control_c, 0, 67, 124
1, 226338, Control_c, 0, 67, 125
1, 226353, Control_c, 0, 67, 127
1, 226534, Note_on_c, 0, 77, 40
1, 226561, Note_on_c, 0, 68, 34
1, 226568, Note_off_c, 0, 76, 51
1, 226573, Note_on_c, 0, 72, 30
1, 226594, Note_off_c, 0, 70, 54
1, 226595, Note_off_c, 0, 67, 59
1, 226636, Note_off_c, 0, 68, 0
1, 226636, Note_on_c, 0, 68, 3
1, 226685, Note_off_c, 0, 72, 54
1, 226769, Note_off_c, 0, 68, 56
1, 226774, Note_off_c, 0, 77, 56
1, 227162, Note_on_c, 0, 74, 47
1, 227178, Note_on_c, 0, 68, 26
1, 227183, Note_on_c, 0, 70, 37
1, 227189, Note_on_c, 0, 65, 33
1, 227824, Note_on_c, 0, 75, 40
1, 227859, Note_on_c, 0, 67, 30
1, 227861, Note_off_c, 0, 65, 39
1, 227879, Note_off_c, 0, 70, 35
1, 227894, Note_off_c, 0, 74, 36
1, 227949, Note_off_c, 0, 68, 43
1, 228075, Note_off_c, 0, 75, 35
1, 228220, Note_off_c, 0, 67, 41
1, 229410, Note_on_c, 0, 72, 56
1, 229423, Note_on_c, 0, 60, 38
1, 229511, Control_c, 0, 64, 16
1, 229526, Control_c, 0, 64, 24
1, 229541, Control_c, 0, 64, 32
1, 229556, Control_c, 0, 64, 39
1, 229570, Control_c, 0, 64, 49
1, 229585, Control_c, 0, 64, 54
1, 229600, Control_c, 0, 64, 56
1, 229615, Control_c, 0, 64, 57
1, 229630, Control_c, 0, 64, 58
1, 229630, Control_c, 0, 67, 126
1, 229645, Control_c, 0, 64, 59
1, 229645, Control_c, 0, 67, 123
1, 229660, Control_c, 0, 64, 60
1, 229660, Control_c, 0, 67, 120
1, 229674, Control_c, 0, 67, 119
1, 229689, Control_c, 0, 67, 117
1, 229704, Control_c, 0, 67, 115
1, 229719, Control_c, 0, 64, 61
1, 229719, Control_c, 0, 67, 114
1, 229741, Control_c, 0, 64, 62
1, 229741, Control_c, 0, 67, 113
1, 229755, Control_c, 0, 64, 62
1, 229755, Control_c, 0, 67, 112
1, 229770, Control_c, 0, 64, 63
1, 229770, Control_c, 0, 67, 111
1, 229785, Control_c, 0, 67, 109
1, 229800, Control_c, 0, 67, 108
1, 229815, Control_c, 0, 67, 107
1, 229830, Control_c, 0, 64, 63
1, 229830, Control_c, 0, 67, 106
1, 229845, Control_c, 0, 64, 64
1, 229845, Control_c, 0, 67, 106
1, 229860, Control_c, 0, 64, 64
1, 229904, Control_c, 0, 64, 65
1, 229919, Control_c, 0, 64, 65
1, 229919, Control_c, 0, 67, 105
1, 229934, Control_c, 0, 64, 66
1, 229934, Control_c, 0, 67, 105
1, 229949, Control_c, 0, 67, 104
1, 229994, Control_c, 0, 67, 103
1, 230009, Control_c, 0, 64, 66
1, 230009, Control_c, 0, 67, 103
1, 230024, Control_c, 0, 67, 102
1, 230038, Control_c, 0, 67, 101
1, 230065, Note_off_c, 0, 72, 39
1, 230098, Control_c, 0, 64, 67
1, 230098, Control_c, 0, 67, 101
1, 230104, Note_off_c, 0, 60, 41
1, 230112, Control_c, 0, 64, 67
1, 230112, Control_c, 0, 67, 100
1, 230157, Control_c, 0, 67, 99
1, 230172, Control_c, 0, 64, 68
1, 230172, Control_c, 0, 67, 98
1, 230186, Control_c, 0, 64, 69
1, 230186, Control_c, 0, 67, 97
1, 230201, Control_c, 0, 64, 70
1, 230216, Control_c, 0, 64, 70
1, 230230, Control_c, 0, 64, 71
1, 230245, Control_c, 0, 64, 71
1, 230245, Control_c, 0, 67, 96
1, 230260, Control_c, 0, 64, 72
1, 230260, Control_c, 0, 67, 96
1, 230275, Control_c, 0, 64, 74
1, 230290, Control_c, 0, 64, 74
1, 230304, Control_c, 0, 64, 75
1, 230319, Control_c, 0, 64, 77
1, 230334, Control_c, 0, 64, 78
1, 230349, Control_c, 0, 64, 79
1, 230364, Control_c, 0, 64, 80
1, 230364, Control_c, 0, 67, 96
1, 230378, Control_c, 0, 64, 82
1, 230393, Control_c, 0, 64, 85
1, 230408, Control_c, 0, 64, 88
1, 230423, Control_c, 0, 64, 91
1, 230438, Control_c, 0, 64, 94
1, 230453, Control_c, 0, 64, 98
1, 230468, Control_c, 0, 64, 101
1, 230468, Control_c, 0, 67, 96
1, 230489, Control_c, 0, 64, 103
1, 230504, Control_c, 0, 64, 104
1, 230533, Control_c, 0, 67, 95
1, 230548, Control_c, 0, 64, 101
1, 230548, Control_c, 0, 67, 94
1, 230563, Note_on_c, 0, 71, 69
1, 230563, Control_c, 0, 64, 92
1, 230563, Control_c, 0, 67, 90
1, 230578, Control_c, 0, 64, 82
1, 230578, Control_c, 0, 67, 85
1, 230580, Note_on_c, 0, 59, 49
1, 230582, Note_on_c, 0, 47, 42
1, 230587, Note_on_c, 0, 35, 45
1, 230593, Control_c, 0, 64, 71
1, 230593, Control_c, 0, 67, 81
1, 230608, Control_c, 0, 64, 64
1, 230608, Control_c, 0, 67, 80
1, 230623, Control_c, 0, 64, 56
1, 230623, Control_c, 0, 67, 79
1, 230637, Control_c, 0, 64, 47
1, 230652, Control_c, 0, 64, 34
1, 230652, Control_c, 0, 67, 79
1, 230667, Control_c, 0, 64, 13
1, 230667, Control_c, 0, 67, 78
1, 230682, Control_c, 0, 64, 0
1, 230682, Control_c, 0, 67, 76
1, 230697, Control_c, 0, 67, 74
1, 230712, Control_c, 0, 67, 74
1, 230727, Control_c, 0, 67, 73
1, 230772, Control_c, 0, 67, 73
1, 230801, Control_c, 0, 64, 9
1, 230816, Control_c, 0, 64, 30
1, 230816, Control_c, 0, 67, 72
1, 230831, Control_c, 0, 64, 41
1, 230831, Control_c, 0, 67, 72
1, 230846, Control_c, 0, 64, 52
1, 230860, Control_c, 0, 64, 59
1, 230860, Control_c, 0, 67, 70
1, 230875, Control_c, 0, 64, 61
1, 230875, Control_c, 0, 67, 69
1, 230890, Control_c, 0, 64, 62
1, 230890, Control_c, 0, 67, 67
1, 230905, Control_c, 0, 64, 63
1, 230905, Control_c, 0, 67, 65
1, 230920, Control_c, 0, 64, 65
1, 230920, Control_c, 0, 67, 64
1, 230934, Control_c, 0, 64, 69
1, 230949, Control_c, 0, 64, 73
1, 230949, Control_c, 0, 67, 64
1, 230964, Control_c, 0, 64, 75
1, 230978, Control_c, 0, 64, 76
1, 230993, Control_c, 0, 64, 78
1, 231008, Control_c, 0, 64, 82
1, 231008, Control_c, 0, 67, 65
1, 231023, Control_c, 0, 64, 86
1, 231038, Control_c, 0, 64, 89
1, 231038, Control_c, 0, 67, 65
1, 231052, Control_c, 0, 64, 91
1, 231067, Control_c, 0, 64, 93
1, 231082, Control_c, 0, 64, 96
1, 231097, Control_c, 0, 64, 101
1, 231112, Control_c, 0, 64, 108
1, 231124, Note_off_c, 0, 71, 38
1, 231127, Control_c, 0, 64, 115
1, 231141, Control_c, 0, 64, 127
1, 231152, Note_off_c, 0, 47, 41
1, 231186, Control_c, 0, 67, 66
1, 231190, Note_off_c, 0, 59, 30
1, 231326, Control_c, 0, 67, 66
1, 231356, Control_c, 0, 67, 67
1, 231445, Control_c, 0, 67, 66
1, 231460, Control_c, 0, 67, 66
1, 231475, Control_c, 0, 67, 65
1, 231505, Control_c, 0, 67, 65
1, 231520, Control_c, 0, 67, 64
1, 231550, Control_c, 0, 67, 63
1, 231609, Control_c, 0, 67, 63
1, 231639, Control_c, 0, 67, 63
1, 231654, Control_c, 0, 67, 64
1, 231661, Note_on_c, 0, 69, 73
1, 231681, Note_on_c, 0, 57, 52
1, 231683, Control_c, 0, 67, 63
1, 231687, Note_on_c, 0, 33, 56
1, 231687, Note_on_c, 0, 45, 51
1, 231698, Control_c, 0, 67, 63
1, 231713, Control_c, 0, 64, 76
1, 231713, Control_c, 0, 67, 62
1, 231728, Control_c, 0, 64, 63
1, 231728, Control_c, 0, 67, 61
1, 231742, Control_c, 0, 64, 50
1, 231742, Control_c, 0, 67, 59
1, 231757, Note_off_c, 0, 35, 58
1, 231757, Control_c, 0, 64, 21
1, 231757, Control_c, 0, 67, 56
1, 231772, Control_c, 0, 64, 0
1, 231772, Control_c, 0, 67, 53
1, 231787, Control_c, 0, 67, 50
1, 231801, Control_c, 0, 67, 47
1, 231816, Control_c, 0, 67, 43
1, 231831, Control_c, 0, 67, 42
1, 231846, Control_c, 0, 67, 42
1, 231861, Control_c, 0, 67, 40
1, 231875, Control_c, 0, 67, 38
1, 231890, Control_c, 0, 67, 35
1, 231905, Control_c, 0, 64, 16
1, 231905, Control_c, 0, 67, 32
1, 231920, Control_c, 0, 64, 26
1, 231920, Control_c, 0, 67, 31
1, 231935, Control_c, 0, 64, 35
1, 231935, Control_c, 0, 67, 30
1, 231949, Control_c, 0, 64, 47
1, 231949, Control_c, 0, 67, 27
1, 231964, Control_c, 0, 64, 56
1, 231964, Control_c, 0, 67, 21
1, 231987, Control_c, 0, 64, 61
1, 231987, Control_c, 0, 67, 16
1, 232001, Control_c, 0, 64, 62
1, 232001, Control_c, 0, 67, 13
1, 232016, Control_c, 0, 67, 13
1, 232031, Control_c, 0, 64, 63
1, 232046, Control_c, 0, 64, 67
1, 232046, Control_c, 0, 67, 12
1, 232061, Control_c, 0, 64, 70
1, 232061, Control_c, 0, 67, 10
1, 232075, Control_c, 0, 64, 73
1, 232075, Control_c, 0, 67, 0
1, 232105, Control_c, 0, 64, 74
1, 232120, Control_c, 0, 64, 75
1, 232135, Control_c, 0, 64, 78
1, 232149, Control_c, 0, 64, 82
1, 232164, Control_c, 0, 64, 85
1, 232179, Control_c, 0, 64, 86
1, 232209, Control_c, 0, 64, 90
1, 232223, Control_c, 0, 64, 103
1, 232238, Control_c, 0, 64, 109
1, 232298, Control_c, 0, 64, 115
1, 232313, Control_c, 0, 64, 122
1, 232361, Note_off_c, 0, 57, 49
1, 232364, Note_off_c, 0, 45, 36
1, 232551, Control_c, 0, 64, 117
1, 232566, Control_c, 0, 64, 115
1, 232713, Control_c, 0, 64, 119
1, 232736, Control_c, 0, 64, 127
1, 232795, Control_c, 0, 64, 115
1, 232810, Control_c, 0, 64, 94
1, 232814, Note_on_c, 0, 68, 80
1, 232825, Control_c, 0, 64, 75
1, 232826, Note_on_c, 0, 56, 62
1, 232827, Note_on_c, 0, 44, 67
1, 232829, Note_on_c, 0, 32, 68
1, 232839, Control_c, 0, 64, 63
1, 232854, Control_c, 0, 64, 51
1, 232869, Control_c, 0, 64, 29
1, 232870, Note_off_c, 0, 33, 64
1, 232884, Control_c, 0, 64, 0
1, 232911, Note_off_c, 0, 69, 64
1, 233046, Control_c, 0, 64, 29
1, 233061, Control_c, 0, 64, 44
1, 233076, Control_c, 0, 64, 57
1, 233080, Note_off_c, 0, 56, 60
1, 233087, Note_off_c, 0, 44, 61
1, 233091, Control_c, 0, 64, 62
1, 233107, Note_off_c, 0, 32, 54
1, 233107, Control_c, 0, 64, 64
1, 233121, Control_c, 0, 64, 68
1, 233136, Control_c, 0, 64, 73
1, 233151, Control_c, 0, 64, 77
1, 233166, Control_c, 0, 64, 80
1, 233180, Control_c, 0, 64, 84
1, 233195, Control_c, 0, 64, 98
1, 233210, Control_c, 0, 64, 127
1, 233356, Note_off_c, 0, 68, 58
1, 233378, Note_on_c, 0, 69, 80
1, 233384, Note_on_c, 0, 57, 76
1, 233386, Note_on_c, 0, 33, 80
1, 233388, Control_c, 0, 64, 101
1, 233393, Note_on_c, 0, 45, 73
1, 233403, Control_c, 0, 64, 68
1, 233418, Control_c, 0, 64, 54
1, 233433, Control_c, 0, 64, 25
1, 233447, Control_c, 0, 64, 0
1, 233515, Control_c, 0, 64, 23
1, 233529, Control_c, 0, 64, 44
1, 233531, Note_off_c, 0, 33, 65
1, 233544, Control_c, 0, 64, 59
1, 233555, Note_off_c, 0, 57, 62
1, 233559, Note_off_c, 0, 45, 64
1, 233559, Control_c, 0, 64, 73
1, 233574, Control_c, 0, 64, 84
1, 233589, Control_c, 0, 64, 94
1, 233589, Note_off_c, 0, 69, 64
1, 233604, Control_c, 0, 64, 127
1, 233916, Control_c, 0, 64, 122
1, 233931, Control_c, 0, 64, 69
1, 233945, Control_c, 0, 64, 52
1, 233958, Note_on_c, 0, 70, 81
1, 233960, Control_c, 0, 64, 0
1, 233967, Note_on_c, 0, 34, 66
1, 233968, Note_on_c, 0, 58, 74
1, 233968, Note_on_c, 0, 67, 70
1, 233970, Note_on_c, 0, 63, 79
1, 234042, Note_on_c, 0, 46, 66
1, 234042, Note_off_c, 0, 34, 65
1, 234053, Note_off_c, 0, 58, 63
1, 234064, Control_c, 0, 64, 31
1, 234078, Control_c, 0, 64, 45
1, 234093, Control_c, 0, 64, 56
1, 234100, Note_off_c, 0, 46, 61
1, 234101, Note_on_c, 0, 34, 69
1, 234108, Control_c, 0, 64, 60
1, 234123, Control_c, 0, 64, 62
1, 234138, Note_off_c, 0, 63, 64
1, 234138, Control_c, 0, 64, 63
1, 234143, Note_off_c, 0, 67, 60
1, 234152, Control_c, 0, 64, 65
1, 234166, Note_on_c, 0, 46, 70
1, 234170, Note_off_c, 0, 70, 64
1, 234176, Note_off_c, 0, 34, 64
1, 234197, Control_c, 0, 64, 62
1, 234212, Control_c, 0, 64, 53
1, 234227, Note_on_c, 0, 34, 61
1, 234233, Note_off_c, 0, 46, 65
1, 234234, Control_c, 0, 64, 34
1, 234249, Control_c, 0, 64, 0
1, 234291, Note_on_c, 0, 46, 69
1, 234299, Note_off_c, 0, 34, 63
1, 234344, Note_on_c, 0, 34, 61
1, 234352, Note_off_c, 0, 46, 65
1, 234413, Note_on_c, 0, 46, 69
1, 234421, Note_off_c, 0, 34, 64
1, 234468, Note_on_c, 0, 75, 81
1, 234473, Note_on_c, 0, 70, 73
1, 234474, Note_on_c, 0, 67, 76
1, 234483, Note_on_c, 0, 34, 74
1, 234486, Note_off_c, 0, 46, 64
1, 234501, Note_off_c, 0, 67, 66
1, 234505, Note_off_c, 0, 70, 64
1, 234525, Note_off_c, 0, 75, 63
1, 234546, Note_on_c, 0, 46, 76
1, 234552, Note_off_c, 0, 34, 63
1, 234596, Poly_aftertouch_c, 0, 34, 0
1, 234603, Note_on_c, 0, 34, 66
1, 234611, Note_off_c, 0, 46, 65
1, 234659, Note_on_c, 0, 46, 70
1, 234662, Note_off_c, 0, 34, 65
1, 234726, Note_on_c, 0, 34, 76
1, 234735, Note_on_c, 0, 75, 75
1, 234737, Note_on_c, 0, 70, 89
1, 234737, Note_on_c, 0, 79, 87
1, 234740, Note_off_c, 0, 46, 66
1, 234767, Note_off_c, 0, 75, 65
1, 234775, Note_off_c, 0, 70, 61
1, 234785, Note_off_c, 0, 34, 65
1, 234787, Note_off_c, 0, 79, 66
1, 234787, Note_on_c, 0, 46, 76
1, 234849, Note_on_c, 0, 34, 77
1, 234854, Note_off_c, 0, 46, 62
1, 234909, Note_on_c, 0, 46, 73
1, 234926, Note_off_c, 0, 34, 64
1, 234996, Note_on_c, 0, 82, 92
1, 234997, Note_on_c, 0, 75, 84
1, 234999, Note_on_c, 0, 79, 79
1, 235008, Note_on_c, 0, 34, 88
1, 235040, Note_off_c, 0, 46, 64
1, 235043, Note_off_c, 0, 75, 63
1, 235067, Note_off_c, 0, 79, 62
1, 235070, Note_off_c, 0, 34, 66
1, 235091, Note_off_c, 0, 82, 69
1, 235413, Note_on_c, 0, 79, 82
1, 235416, Note_on_c, 0, 75, 66
1, 235420, Note_on_c, 0, 63, 73
1, 235435, Note_on_c, 0, 67, 66
1, 235445, Note_off_c, 0, 75, 63
1, 235468, Note_off_c, 0, 63, 64
1, 235472, Note_off_c, 0, 67, 61
1, 235476, Note_off_c, 0, 79, 61
1, 235547, Note_on_c, 0, 82, 81
1, 235549, Note_on_c, 0, 70, 73
1, 235550, Note_on_c, 0, 67, 67
1, 235551, Note_on_c, 0, 79, 76
1, 235586, Note_off_c, 0, 70, 57
1, 235595, Note_off_c, 0, 79, 61
1, 235607, Note_off_c, 0, 67, 57
1, 235609, Note_off_c, 0, 82, 66
1, 235672, Note_on_c, 0, 63, 79
1, 235674, Note_on_c, 0, 79, 84
1, 235681, Note_on_c, 0, 75, 72
1, 235708, Note_off_c, 0, 75, 63
1, 235736, Note_off_c, 0, 63, 67
1, 235742, Note_off_c, 0, 79, 62
1, 235813, Note_on_c, 0, 82, 85
1, 235818, Note_on_c, 0, 79, 83
1, 235820, Note_on_c, 0, 67, 82
1, 235822, Note_on_c, 0, 70, 76
1, 235848, Note_off_c, 0, 70, 64
1, 235859, Note_off_c, 0, 79, 63
1, 235872, Note_off_c, 0, 67, 63
1, 235880, Note_off_c, 0, 82, 63
1, 235938, Note_on_c, 0, 79, 86
1, 235939, Note_on_c, 0, 63, 80
1, 235941, Note_on_c, 0, 75, 74
1, 235965, Note_off_c, 0, 75, 66
1, 235987, Note_off_c, 0, 63, 63
1, 235989, Note_off_c, 0, 79, 61
1, 236069, Note_on_c, 0, 79, 85
1, 236072, Note_on_c, 0, 82, 88
1, 236077, Note_on_c, 0, 67, 79
1, 236084, Note_on_c, 0, 70, 84
1, 236115, Note_off_c, 0, 70, 61
1, 236131, Note_off_c, 0, 79, 64
1, 236143, Note_off_c, 0, 67, 66
1, 236152, Note_off_c, 0, 82, 67
1, 236651, Note_on_c, 0, 53, 56
1, 236651, Note_on_c, 0, 74, 84
1, 236656, Note_on_c, 0, 56, 65
1, 236656, Note_on_c, 0, 46, 71
1, 236658, Note_on_c, 0, 70, 75
1, 236660, Note_on_c, 0, 65, 75
1, 236662, Note_on_c, 0, 68, 74
1, 236666, Note_on_c, 0, 50, 50
1, 236672, Control_c, 0, 64, 20
1, 236687, Control_c, 0, 64, 34
1, 236700, Note_off_c, 0, 56, 68
1, 236702, Control_c, 0, 64, 49
1, 236707, Note_off_c, 0, 65, 62
1, 236713, Note_off_c, 0, 46, 66
1, 236716, Control_c, 0, 64, 63
1, 236723, Note_off_c, 0, 53, 65
1, 236729, Note_off_c, 0, 68, 60
1, 236731, Control_c, 0, 64, 84
1, 236735, Note_off_c, 0, 50, 64
1, 236740, Note_off_c, 0, 70, 63
1, 236746, Control_c, 0, 64, 106
1, 236760, Note_off_c, 0, 74, 68
1, 236761, Control_c, 0, 64, 127
1, 236984, Control_c, 0, 64, 82
1, 236998, Control_c, 0, 64, 62
1, 237013, Control_c, 0, 64, 47
1, 237028, Control_c, 0, 64, 0
1, 237199, Note_on_c, 0, 75, 87
1, 237219, Note_on_c, 0, 55, 66
1, 237222, Note_on_c, 0, 51, 65
1, 237273, Note_on_c, 0, 79, 82
1, 237276, Note_off_c, 0, 75, 61
1, 237306, Note_off_c, 0, 55, 61
1, 237336, Note_on_c, 0, 77, 80
1, 237344, Note_off_c, 0, 51, 61
1, 237390, Note_off_c, 0, 79, 60
1, 237394, Note_on_c, 0, 75, 78
1, 237431, Note_off_c, 0, 77, 61
1, 237455, Note_on_c, 0, 74, 75
1, 237491, Note_off_c, 0, 75, 62
1, 237503, Note_off_c, 0, 74, 65
1, 237512, Note_on_c, 0, 72, 79
1, 237559, Note_off_c, 0, 72, 62
1, 237571, Note_on_c, 0, 70, 78
1, 237633, Note_off_c, 0, 70, 62
1, 237636, Note_on_c, 0, 69, 79
1, 237689, Note_on_c, 0, 53, 69
1, 237690, Note_on_c, 0, 46, 69
1, 237696, Note_on_c, 0, 68, 75
1, 237711, Note_off_c, 0, 69, 63
1, 237747, Control_c, 0, 67, 8
1, 237754, Note_off_c, 0, 68, 61
1, 237761, Note_on_c, 0, 72, 68
1, 237762, Control_c, 0, 67, 10
1, 237777, Note_off_c, 0, 46, 64
1, 237777, Control_c, 0, 67, 11
1, 237792, Control_c, 0, 67, 12
1, 237804, Note_on_c, 0, 71, 12
1, 237805, Note_off_c, 0, 71, 127
1, 237807, Control_c, 0, 67, 13
1, 237814, Note_on_c, 0, 70, 78
1, 237822, Control_c, 0, 67, 14
1, 237825, Note_off_c, 0, 53, 64
1, 237837, Control_c, 0, 67, 15
1, 237842, Note_off_c, 0, 72, 63
1, 237851, Control_c, 0, 67, 15
1, 237866, Control_c, 0, 67, 17
1, 237876, Note_on_c, 0, 68, 70
1, 237881, Control_c, 0, 67, 17
1, 237911, Note_off_c, 0, 70, 60
1, 237930, Note_on_c, 0, 67, 73
1, 237941, Control_c, 0, 67, 17
1, 237956, Control_c, 0, 67, 16
1, 237977, Note_off_c, 0, 68, 61
1, 237986, Note_off_c, 0, 67, 61
1, 238001, Note_on_c, 0, 65, 64
1, 238023, Control_c, 0, 67, 17
1, 238036, Note_off_c, 0, 65, 62
1, 238038, Control_c, 0, 67, 17
1, 238057, Note_on_c, 0, 63, 76
1, 238067, Control_c, 0, 67, 18
1, 238082, Control_c, 0, 67, 20
1, 238088, Note_off_c, 0, 63, 69
1, 238097, Control_c, 0, 67, 23
1, 238112, Control_c, 0, 67, 26
1, 238115, Note_on_c, 0, 62, 75
1, 238126, Control_c, 0, 67, 29
1, 238139, Note_off_c, 0, 62, 69
1, 238141, Control_c, 0, 67, 31
1, 238156, Control_c, 0, 67, 35
1, 238170, Control_c, 0, 67, 40
1, 238177, Note_on_c, 0, 51, 76
1, 238179, Note_on_c, 0, 63, 76
1, 238183, Note_on_c, 0, 55, 70
1, 238185, Control_c, 0, 67, 45
1, 238200, Control_c, 0, 67, 50
1, 238203, Note_off_c, 0, 63, 71
1, 238212, Note_off_c, 0, 55, 68
1, 238215, Control_c, 0, 67, 54
1, 238230, Control_c, 0, 67, 56
1, 238235, Note_off_c, 0, 51, 66
1, 238245, Control_c, 0, 67, 58
1, 238248, Note_on_c, 0, 79, 62
1, 238260, Control_c, 0, 67, 58
1, 238265, Note_on_c, 0, 77, 54
1, 238275, Control_c, 0, 67, 59
1, 238305, Note_off_c, 0, 77, 0
1, 238318, Note_on_c, 0, 77, 52
1, 238339, Note_on_c, 0, 76, 30
1, 238344, Note_off_c, 0, 79, 54
1, 238349, Control_c, 0, 67, 58
1, 238363, Note_on_c, 0, 75, 65
1, 238376, Note_off_c, 0, 76, 55
1, 238378, Control_c, 0, 67, 58
1, 238385, Note_off_c, 0, 77, 63
1, 238393, Control_c, 0, 67, 57
1, 238408, Control_c, 0, 67, 57
1, 238420, Note_on_c, 0, 74, 76
1, 238437, Control_c, 0, 67, 56
1, 238454, Note_off_c, 0, 75, 62
1, 238462, Note_off_c, 0, 74, 65
1, 238489, Note_on_c, 0, 72, 61
1, 238497, Control_c, 0, 67, 56
1, 238512, Note_off_c, 0, 72, 65
1, 238526, Control_c, 0, 67, 55
1, 238537, Note_on_c, 0, 70, 71
1, 238591, Note_off_c, 0, 70, 62
1, 238600, Note_on_c, 0, 69, 75
1, 238655, Note_on_c, 0, 53, 47
1, 238659, Control_c, 0, 67, 55
1, 238662, Note_on_c, 0, 68, 74
1, 238665, Note_on_c, 0, 46, 58
1, 238667, Note_off_c, 0, 69, 62
1, 238734, Note_off_c, 0, 68, 60
1, 238738, Note_on_c, 0, 72, 70
1, 238756, Control_c, 0, 67, 55
1, 238789, Note_on_c, 0, 70, 73
1, 238794, Note_off_c, 0, 53, 55
1, 238809, Note_off_c, 0, 72, 59
1, 238849, Note_on_c, 0, 68, 72
1, 238859, Note_off_c, 0, 46, 62
1, 238871, Note_off_c, 0, 70, 61
1, 238913, Note_on_c, 0, 67, 69
1, 238934, Control_c, 0, 67, 55
1, 238942, Note_off_c, 0, 68, 59
1, 238948, Note_off_c, 0, 67, 64
1, 238948, Control_c, 0, 67, 54
1, 238963, Control_c, 0, 67, 54
1, 238966, Note_on_c, 0, 65, 70
1, 238978, Control_c, 0, 67, 53
1, 239008, Control_c, 0, 67, 53
1, 239011, Note_off_c, 0, 65, 58
1, 239034, Note_on_c, 0, 63, 70
1, 239070, Note_off_c, 0, 63, 66
1, 239097, Control_c, 0, 67, 53
1, 239098, Note_on_c, 0, 62, 66
1, 239111, Control_c, 0, 67, 54
1, 239132, Note_off_c, 0, 62, 64
1, 239139, Note_on_c, 0, 63, 39
1, 239161, Note_on_c, 0, 39, 65
1, 239170, Note_off_c, 0, 63, 55
1, 239175, Note_on_c, 0, 51, 58
1, 239190, Note_on_c, 0, 62, 69
1, 239205, Note_off_c, 0, 39, 63
1, 239208, Note_off_c, 0, 51, 66
1, 239230, Control_c, 0, 67, 53
1, 239244, Note_on_c, 0, 63, 70
1, 239260, Note_off_c, 0, 62, 61
1, 239295, Note_off_c, 0, 63, 67
1, 239322, Note_on_c, 0, 67, 73
1, 239345, Note_off_c, 0, 67, 68
1, 239363, Control_c, 0, 67, 53
1, 239378, Control_c, 0, 67, 52
1, 239384, Note_on_c, 0, 67, 74
1, 239394, Note_on_c, 0, 43, 56
1, 239396, Note_on_c, 0, 55, 54
1, 239418, Note_off_c, 0, 67, 57
1, 239421, Note_off_c, 0, 55, 60
1, 239422, Note_off_c, 0, 43, 58
1, 239422, Control_c, 0, 67, 51
1, 239440, Note_on_c, 0, 66, 72
1, 239479, Note_off_c, 0, 66, 62
1, 239513, Note_on_c, 0, 67, 69
1, 239535, Control_c, 0, 67, 52
1, 239542, Note_on_c, 0, 69, 41
1, 239550, Control_c, 0, 67, 53
1, 239566, Note_on_c, 0, 70, 69
1, 239572, Note_off_c, 0, 69, 34
1, 239580, Note_off_c, 0, 67, 60
1, 239597, Note_off_c, 0, 70, 0
1, 239616, Note_on_c, 0, 58, 73
1, 239621, Note_on_c, 0, 46, 64
1, 239644, Note_off_c, 0, 58, 66
1, 239649, Note_off_c, 0, 46, 68
1, 239649, Poly_aftertouch_c, 0, 70, 0
1, 239668, Control_c, 0, 67, 52
1, 239686, Note_on_c, 0, 69, 63
1, 239743, Note_on_c, 0, 70, 81
1, 239750, Note_off_c, 0, 69, 63
1, 239766, Note_off_c, 0, 70, 66
1, 239786, Control_c, 0, 67, 53
1, 239801, Control_c, 0, 67, 54
1, 239807, Note_on_c, 0, 75, 84
1, 239825, Note_off_c, 0, 75, 71
1, 239850, Note_on_c, 0, 76, 37
1, 239851, Note_off_c, 0, 76, 127
1, 239858, Note_on_c, 0, 63, 70
1, 239858, Note_on_c, 0, 51, 63
1, 239875, Control_c, 0, 67, 53
1, 239881, Note_on_c, 0, 75, 72
1, 239884, Note_off_c, 0, 63, 69
1, 239888, Note_off_c, 0, 51, 67
1, 239890, Control_c, 0, 67, 53
1, 239903, Note_off_c, 0, 75, 68
1, 239920, Control_c, 0, 67, 52
1, 239929, Note_on_c, 0, 74, 80
1, 239949, Control_c, 0, 67, 52
1, 239990, Note_on_c, 0, 75, 84
1, 239998, Note_off_c, 0, 74, 66
1, 240027, Note_off_c, 0, 75, 65
1, 240041, Note_on_c, 0, 79, 63
1, 240060, Note_off_c, 0, 79, 64
1, 240083, Control_c, 0, 67, 50
1, 240086, Note_on_c, 0, 79, 78
1, 240093, Note_on_c, 0, 55, 51
1, 240097, Control_c, 0, 67, 49
1, 240112, Control_c, 0, 67, 49
1, 240116, Note_off_c, 0, 79, 64
1, 240117, Note_on_c, 0, 67, 57
1, 240120, Note_off_c, 0, 55, 58
1, 240127, Control_c, 0, 67, 48
1, 240138, Note_off_c, 0, 67, 61
1, 240141, Control_c, 0, 67, 48
1, 240169, Note_on_c, 0, 78, 71
1, 240171, Control_c, 0, 67, 47
1, 240186, Note_off_c, 0, 78, 69
1, 240186, Control_c, 0, 67, 47
1, 240206, Note_on_c, 0, 79, 74
1, 240224, Control_c, 0, 67, 48
1, 240239, Control_c, 0, 67, 49
1, 240254, Control_c, 0, 67, 50
1, 240266, Note_on_c, 0, 82, 83
1, 240266, Note_off_c, 0, 79, 49
1, 240269, Control_c, 0, 67, 50
1, 240284, Note_off_c, 0, 82, 75
1, 240284, Control_c, 0, 67, 50
1, 240299, Control_c, 0, 67, 48
1, 240314, Control_c, 0, 67, 47
1, 240329, Control_c, 0, 67, 46
1, 240329, Note_on_c, 0, 58, 64
1, 240333, Note_on_c, 0, 70, 74
1, 240343, Control_c, 0, 67, 45
1, 240358, Note_off_c, 0, 58, 66
1, 240358, Control_c, 0, 67, 43
1, 240359, Note_off_c, 0, 70, 64
1, 240383, Note_on_c, 0, 81, 81
1, 240388, Control_c, 0, 67, 44
1, 240403, Control_c, 0, 67, 45
1, 240418, Control_c, 0, 67, 45
1, 240447, Control_c, 0, 67, 46
1, 240457, Note_on_c, 0, 82, 73
1, 240458, Note_off_c, 0, 81, 63
1, 240462, Control_c, 0, 67, 46
1, 240477, Control_c, 0, 67, 47
1, 240492, Control_c, 0, 67, 48
1, 240503, Note_off_c, 0, 82, 65
1, 240504, Note_on_c, 0, 87, 72
1, 240507, Control_c, 0, 67, 49
1, 240534, Note_off_c, 0, 87, 0
1, 240536, Control_c, 0, 67, 48
1, 240551, Control_c, 0, 67, 46
1, 240561, Note_on_c, 0, 75, 57
1, 240562, Note_on_c, 0, 63, 68
1, 240565, Control_c, 0, 67, 44
1, 240570, Poly_aftertouch_c, 0, 87, 127
1, 240580, Control_c, 0, 67, 44
1, 240583, Note_off_c, 0, 75, 60
1, 240588, Poly_aftertouch_c, 0, 87, 0
1, 240593, Note_off_c, 0, 63, 69
1, 240595, Control_c, 0, 67, 43
1, 240610, Control_c, 0, 67, 42
1, 240618, Note_on_c, 0, 82, 81
1, 240639, Control_c, 0, 67, 42
1, 240664, Note_off_c, 0, 82, 62
1, 240684, Note_on_c, 0, 81, 64
1, 240699, Control_c, 0, 67, 42
1, 240713, Control_c, 0, 67, 43
1, 240731, Note_on_c, 0, 82, 76
1, 240743, Control_c, 0, 67, 42
1, 240758, Control_c, 0, 67, 41
1, 240764, Note_off_c, 0, 81, 62
1, 240773, Control_c, 0, 67, 40
1, 240784, Note_off_c, 0, 82, 64
1, 240788, Control_c, 0, 67, 37
1, 240794, Note_on_c, 0, 68, 66
1, 240794, Note_on_c, 0, 86, 86
1, 240795, Note_on_c, 0, 58, 65
1, 240803, Control_c, 0, 67, 34
1, 240813, Note_off_c, 0, 68, 65
1, 240817, Control_c, 0, 67, 32
1, 240825, Note_off_c, 0, 58, 65
1, 240832, Control_c, 0, 67, 30
1, 240847, Control_c, 0, 67, 27
1, 240851, Note_on_c, 0, 82, 79
1, 240862, Control_c, 0, 67, 25
1, 240877, Control_c, 0, 67, 23
1, 240882, Note_off_c, 0, 86, 62
1, 240891, Control_c, 0, 67, 21
1, 240903, Note_off_c, 0, 82, 67
1, 240906, Control_c, 0, 67, 19
1, 240915, Note_on_c, 0, 81, 73
1, 240921, Control_c, 0, 67, 18
1, 240936, Control_c, 0, 67, 17
1, 240972, Control_c, 0, 67, 17
1, 240977, Note_on_c, 0, 82, 74
1, 240987, Control_c, 0, 67, 15
1, 241002, Control_c, 0, 67, 11
1, 241015, Note_off_c, 0, 81, 58
1, 241017, Control_c, 0, 67, 8
1, 241032, Note_off_c, 0, 82, 65
1, 241032, Control_c, 0, 67, 0
1, 241041, Note_on_c, 0, 67, 74
1, 241043, Note_on_c, 0, 87, 84
1, 241047, Note_on_c, 0, 63, 70
1, 241064, Note_off_c, 0, 67, 70
1, 241073, Note_off_c, 0, 63, 70
1, 241100, Note_on_c, 0, 82, 77
1, 241158, Note_off_c, 0, 82, 65
1, 241166, Note_on_c, 0, 81, 70
1, 241168, Note_off_c, 0, 87, 57
1, 241235, Note_on_c, 0, 82, 75
1, 241274, Note_off_c, 0, 81, 63
1, 241293, Note_off_c, 0, 82, 64
1, 241294, Note_on_c, 0, 58, 71
1, 241295, Note_on_c, 0, 68, 75
1, 241297, Note_on_c, 0, 86, 91
1, 241325, Note_off_c, 0, 58, 64
1, 241337, Note_off_c, 0, 68, 49
1, 241361, Note_on_c, 0, 82, 79
1, 241394, Note_off_c, 0, 86, 61
1, 241412, Note_off_c, 0, 82, 66
1, 241421, Note_on_c, 0, 81, 72
1, 241476, Note_on_c, 0, 82, 76
1, 241521, Note_off_c, 0, 81, 57
1, 241536, Note_off_c, 0, 82, 66
1, 241543, Note_on_c, 0, 87, 88
1, 241550, Note_on_c, 0, 63, 76
1, 241557, Note_on_c, 0, 67, 69
1, 241581, Note_off_c, 0, 63, 69
1, 241583, Note_off_c, 0, 67, 67
1, 241605, Note_on_c, 0, 82, 84
1, 241643, Note_off_c, 0, 87, 62
1, 241658, Note_off_c, 0, 82, 66
1, 241667, Note_on_c, 0, 81, 78
1, 241736, Note_on_c, 0, 82, 75
1, 241784, Note_off_c, 0, 81, 54
1, 241791, Note_on_c, 0, 86, 85
1, 241794, Note_on_c, 0, 58, 75
1, 241797, Note_on_c, 0, 68, 81
1, 241799, Note_off_c, 0, 82, 65
1, 241826, Note_off_c, 0, 68, 56
1, 241836, Note_off_c, 0, 58, 62
1, 241851, Note_on_c, 0, 82, 72
1, 241897, Note_off_c, 0, 86, 58
1, 241901, Note_off_c, 0, 82, 67
1, 241908, Note_on_c, 0, 81, 87
1, 241966, Note_on_c, 0, 82, 78
1, 242034, Note_on_c, 0, 87, 85
1, 242037, Note_off_c, 0, 81, 61
1, 242041, Note_on_c, 0, 63, 74
1, 242055, Note_off_c, 0, 82, 65
1, 242071, Note_off_c, 0, 87, 63
1, 242089, Note_off_c, 0, 63, 62
1, 242098, Note_on_c, 0, 67, 74
1, 242146, Note_off_c, 0, 67, 60
1, 242160, Note_on_c, 0, 63, 63
1, 242211, Note_off_c, 0, 63, 62
1, 242213, Note_on_c, 0, 67, 76
1, 242281, Note_on_c, 0, 63, 69
1, 242281, Note_off_c, 0, 67, 59
1, 242292, Note_on_c, 0, 79, 73
1, 242296, Note_on_c, 0, 75, 79
1, 242331, Note_off_c, 0, 75, 64
1, 242334, Note_off_c, 0, 79, 64
1, 242340, Note_off_c, 0, 63, 66
1, 242341, Note_on_c, 0, 67, 64
1, 242406, Note_on_c, 0, 63, 64
1, 242406, Note_off_c, 0, 67, 61
1, 242472, Note_off_c, 0, 63, 65
1, 242481, Note_on_c, 0, 67, 59
1, 242552, Note_off_c, 0, 67, 62
1, 242556, Note_on_c, 0, 82, 81
1, 242558, Note_on_c, 0, 63, 60
1, 242562, Note_on_c, 0, 79, 73
1, 242589, Note_off_c, 0, 79, 67
1, 242596, Note_off_c, 0, 82, 66
1, 242621, Note_off_c, 0, 63, 65
1, 242626, Note_on_c, 0, 67, 71
1, 242694, Note_off_c, 0, 67, 59
1, 242704, Note_on_c, 0, 63, 58
1, 242752, Note_off_c, 0, 63, 63
1, 242756, Note_on_c, 0, 67, 66
1, 242813, Note_off_c, 0, 67, 61
1, 242822, Note_on_c, 0, 63, 62
1, 242822, Note_on_c, 0, 75, 74
1, 242835, Note_on_c, 0, 79, 55
1, 242859, Note_off_c, 0, 75, 63
1, 242860, Note_off_c, 0, 79, 64
1, 242873, Note_on_c, 0, 67, 65
1, 242874, Note_off_c, 0, 63, 64
1, 242940, Note_off_c, 0, 67, 59
1, 242945, Note_on_c, 0, 63, 63
1, 242997, Note_on_c, 0, 67, 54
1, 242998, Note_off_c, 0, 63, 63
1, 243062, Note_on_c, 0, 79, 74
1, 243062, Note_on_c, 0, 82, 82
1, 243067, Note_off_c, 0, 67, 60
1, 243080, Note_on_c, 0, 63, 66
1, 243083, Note_off_c, 0, 79, 67
1, 243089, Note_off_c, 0, 82, 66
1, 243129, Note_off_c, 0, 63, 63
1, 243141, Note_on_c, 0, 67, 71
1, 243211, Note_off_c, 0, 67, 59
1, 243219, Note_on_c, 0, 63, 62
1, 243263, Note_off_c, 0, 63, 63
1, 243269, Note_on_c, 0, 67, 67
1, 243314, Note_on_c, 0, 50, 87
1, 243340, Note_on_c, 0, 51, 85
1, 243341, Note_off_c, 0, 67, 61
1, 243344, Note_on_c, 0, 63, 71
1, 243355, Note_off_c, 0, 50, 64
1, 243377, Note_off_c, 0, 51, 68
1, 243402, Note_off_c, 0, 63, 66
1, 243404, Note_on_c, 0, 67, 71
1, 243465, Note_on_c, 0, 63, 68
1, 243469, Note_off_c, 0, 67, 61
1, 243527, Note_on_c, 0, 67, 70
1, 243529, Note_off_c, 0, 63, 66
1, 243581, Note_on_c, 0, 45, 90
1, 243591, Note_on_c, 0, 63, 70
1, 243593, Note_off_c, 0, 67, 62
1, 243596, Note_on_c, 0, 46, 89
1, 243615, Note_off_c, 0, 45, 66
1, 243629, Note_off_c, 0, 46, 67
1, 243650, Note_on_c, 0, 67, 72
1, 243654, Note_off_c, 0, 63, 66
1, 243718, Note_on_c, 0, 63, 69
1, 243724, Note_off_c, 0, 67, 62
1, 243779, Note_off_c, 0, 63, 66
1, 243780, Note_on_c, 0, 67, 66
1, 243843, Note_on_c, 0, 42, 78
1, 243850, Note_on_c, 0, 63, 67
1, 243851, Note_on_c, 0, 43, 83
1, 243852, Note_off_c, 0, 67, 62
1, 243859, Note_on_c, 0, 41, 70
1, 243881, Note_off_c, 0, 41, 63
1, 243883, Note_off_c, 0, 43, 67
1, 243906, Note_off_c, 0, 42, 56
1, 243912, Note_on_c, 0, 67, 73
1, 243914, Note_off_c, 0, 63, 65
1, 243986, Note_off_c, 0, 67, 62
1, 243987, Note_on_c, 0, 63, 66
1, 244052, Note_on_c, 0, 67, 70
1, 244060, Note_off_c, 0, 63, 65
1, 244124, Note_on_c, 0, 39, 89
1, 244134, Note_on_c, 0, 63, 75
1, 244155, Note_off_c, 0, 67, 63
1, 244160, Control_c, 0, 64, 32
1, 244168, Note_off_c, 0, 39, 64
1, 244175, Control_c, 0, 64, 50
1, 244187, Note_off_c, 0, 63, 66
1, 244189, Control_c, 0, 64, 67
1, 244204, Control_c, 0, 64, 82
1, 244219, Control_c, 0, 64, 103
1, 244234, Control_c, 0, 64, 127
1, 244309, Control_c, 0, 64, 84
1, 244324, Control_c, 0, 64, 64
1, 244338, Control_c, 0, 64, 47
1, 244353, Control_c, 0, 64, 0
1, 244716, Control_c, 0, 64, 24
1, 244718, Note_on_c, 0, 82, 82
1, 244719, Note_on_c, 0, 87, 84
1, 244722, Note_on_c, 0, 79, 86
1, 244727, Note_on_c, 0, 63, 78
1, 244728, Note_on_c, 0, 58, 77
1, 244729, Note_on_c, 0, 51, 80
1, 244731, Control_c, 0, 64, 43
1, 244732, Note_on_c, 0, 55, 72
1, 244746, Control_c, 0, 64, 61
1, 244761, Control_c, 0, 64, 127
1, 244785, Note_off_c, 0, 63, 67
1, 244797, Note_off_c, 0, 79, 64
1, 244815, Note_off_c, 0, 87, 68
1, 244817, Note_off_c, 0, 82, 66
1, 244819, Note_off_c, 0, 58, 65
1, 244821, Note_off_c, 0, 51, 67
1, 244823, Note_off_c, 0, 55, 66
1, 244968, Control_c, 0, 64, 65
1, 244983, Control_c, 0, 64, 48
1, 244998, Control_c, 0, 64, 0
1, 245236, Note_on_c, 0, 39, 57
1, 245283, Note_on_c, 0, 43, 58
1, 245300, Note_on_c, 0, 46, 74
1, 245321, Note_on_c, 0, 63, 86
1, 245322, Note_on_c, 0, 58, 80
1, 245322, Note_on_c, 0, 51, 84
1, 245325, Note_on_c, 0, 55, 75
1, 245811, Note_off_c, 0, 39, 64
1, 245823, Note_off_c, 0, 55, 64
1, 245829, Note_off_c, 0, 43, 62
1, 245834, Note_off_c, 0, 51, 62
1, 245843, Note_off_c, 0, 46, 65
1, 245848, Note_off_c, 0, 58, 63
1, 245864, Note_off_c, 0, 63, 66
1, 245939, End_track
0, 0, End_of_file
