0, 0, Header, 0, 1, 384
1, 0, Start_track
1, 0, Title_t, "Etude T. Op.39/5--Yunus Tuncali    "
1, 0, Text_t, "2008 e-Piano Junior Competition virtual audition round"
1, 0, Text_t, "recorded January and February 2008"
1, 0, Text_t, "http://www.piano-e-competition.com/"
1, 0, Text_t, "File processed for distribution by software from Zenph Studios, Inc., http://www.zenph.com"
1, 0, Instrument_name_t, "Yamaha Disklavier Pro Mark IV concert grand piano, model DCFIIISM4PRO"
1, 0, Sequencer_specific, 39, 67, 113, 0, 1, 0, 1, 0, 69, 116, 117, 100, 101, 32, 84, 46, 32, 79, 112, 46, 51, 57, 47, 53, 89, 117, 110, 117, 115, 32, 84, 117, 110, 99, 97, 108, 105, 32, 32, 32
1, 0, Sequencer_specific, 6, 67, 113, 0, 0, 0, 69
1, 0, System_exclusive, 21, 67, 113, 126, 21, 0, 2, 2, 1, 7, 11, 14, 4, 7, 9, 11, 3, 4, 5, 2, 4, 247
1, 0, Sequencer_specific, 5, 67, 123, 12, 2, 1
1, 0, Tempo, 512820
1, 0, Time_signature, 4, 2, 24, 8
1, 0, System_exclusive, 5, 126, 127, 9, 1, 247
1, 1, System_exclusive, 8, 67, 16, 76, 0, 0, 126, 0, 247
1, 2, System_exclusive, 8, 67, 16, 76, 8, 9, 7, 1, 247
1, 3, Control_c, 0, 0, 0
1, 3, Control_c, 1, 0, 0
1, 3, Control_c, 2, 0, 0
1, 3, Control_c, 3, 0, 0
1, 3, Control_c, 4, 0, 0
1, 3, Control_c, 5, 0, 0
1, 3, Control_c, 6, 0, 0
1, 3, Control_c, 7, 0, 0
1, 3, Control_c, 8, 0, 0
1, 3, Control_c, 9, 0, 127
1, 3, Control_c, 10, 0, 0
1, 3, Control_c, 11, 0, 0
1, 3, Control_c, 12, 0, 0
1, 3, Control_c, 13, 0, 0
1, 3, Control_c, 14, 0, 0
1, 3, Control_c, 15, 0, 0
1, 4, Control_c, 0, 32, 0
1, 4, Control_c, 1, 32, 0
1, 4, Control_c, 2, 32, 0
1, 4, Control_c, 3, 32, 0
1, 4, Control_c, 4, 32, 0
1, 4, Control_c, 5, 32, 0
1, 4, Control_c, 6, 32, 0
1, 4, Control_c, 7, 32, 0
1, 4, Control_c, 8, 32, 0
1, 4, Control_c, 9, 32, 0
1, 4, Control_c, 10, 32, 0
1, 4, Control_c, 11, 32, 0
1, 4, Control_c, 12, 32, 0
1, 4, Control_c, 13, 32, 0
1, 4, Control_c, 14, 32, 0
1, 4, Control_c, 15, 32, 0
1, 5, Program_c, 0, 0
1, 5, Program_c, 1, 0
1, 5, Program_c, 2, 0
1, 5, Program_c, 3, 0
1, 5, Program_c, 4, 0
1, 5, Program_c, 5, 0
1, 5, Program_c, 6, 0
1, 5, Program_c, 7, 0
1, 5, Program_c, 8, 0
1, 5, Program_c, 9, 0
1, 5, Program_c, 10, 0
1, 5, Program_c, 11, 0
1, 5, Program_c, 12, 0
1, 5, Program_c, 13, 0
1, 5, Program_c, 14, 0
1, 5, Program_c, 15, 0
1, 6, Control_c, 0, 7, 100
1, 117, Control_c, 0, 64, 8
1, 229, Control_c, 0, 64, 16
1, 341, Control_c, 0, 64, 24
1, 452, Control_c, 0, 64, 33
1, 564, Control_c, 0, 64, 40
1, 676, Control_c, 0, 64, 49
1, 787, Control_c, 0, 64, 56
1, 899, Control_c, 0, 64, 66
1, 899, Control_c, 1, 7, 100
1, 899, Control_c, 2, 7, 100
1, 899, Control_c, 3, 7, 100
1, 899, Control_c, 4, 7, 100
1, 899, Control_c, 5, 7, 100
1, 899, Control_c, 6, 7, 100
1, 899, Control_c, 7, 7, 100
1, 899, Control_c, 8, 7, 100
1, 899, Control_c, 9, 7, 100
1, 899, Control_c, 10, 7, 100
1, 899, Control_c, 11, 7, 100
1, 899, Control_c, 12, 7, 100
1, 899, Control_c, 13, 7, 100
1, 899, Control_c, 14, 7, 100
1, 899, Control_c, 15, 7, 100
1, 1128, Note_on_c, 0, 63, 75
1, 1163, Control_c, 0, 64, 65
1, 1193, Control_c, 0, 64, 66
1, 1222, Control_c, 0, 64, 66
1, 1237, Control_c, 0, 64, 69
1, 1251, Control_c, 0, 64, 72
1, 1266, Control_c, 0, 64, 75
1, 1281, Control_c, 0, 64, 79
1, 1296, Control_c, 0, 64, 83
1, 1311, Control_c, 0, 64, 87
1, 1326, Control_c, 0, 64, 91
1, 1341, Control_c, 0, 64, 94
1, 1356, Control_c, 0, 64, 97
1, 1371, Control_c, 0, 64, 100
1, 1386, Control_c, 0, 64, 102
1, 1400, Control_c, 0, 64, 105
1, 1415, Control_c, 0, 64, 109
1, 1430, Control_c, 0, 64, 112
1, 1445, Control_c, 0, 64, 117
1, 1459, Control_c, 0, 64, 127
1, 1645, Control_c, 0, 67, 8
1, 1667, Note_on_c, 0, 54, 35
1, 1685, Note_on_c, 0, 58, 38
1, 1690, Control_c, 0, 67, 11
1, 1706, Note_on_c, 0, 51, 27
1, 1716, Note_on_c, 0, 39, 23
1, 1722, Note_on_c, 0, 46, 3
1, 1779, Control_c, 0, 67, 13
1, 1781, Note_off_c, 0, 51, 54
1, 1834, Note_off_c, 0, 54, 36
1, 1839, Note_off_c, 0, 58, 37
1, 1863, Note_off_c, 0, 39, 37
1, 1865, Note_off_c, 0, 46, 39
1, 2015, Note_on_c, 0, 39, 41
1, 2015, Note_on_c, 0, 54, 30
1, 2021, Note_on_c, 0, 58, 36
1, 2026, Note_on_c, 0, 51, 33
1, 2032, Note_on_c, 0, 46, 25
1, 2079, Note_off_c, 0, 46, 48
1, 2083, Note_off_c, 0, 63, 56
1, 2092, Note_off_c, 0, 39, 56
1, 2092, Note_off_c, 0, 51, 54
1, 2092, Note_off_c, 0, 58, 50
1, 2121, Note_off_c, 0, 54, 36
1, 2240, Note_on_c, 0, 39, 48
1, 2270, Note_on_c, 0, 58, 34
1, 2278, Note_on_c, 0, 51, 25
1, 2306, Note_on_c, 0, 54, 15
1, 2315, Note_off_c, 0, 58, 53
1, 2320, Note_off_c, 0, 39, 56
1, 2327, Note_off_c, 0, 51, 56
1, 2347, Note_off_c, 0, 54, 44
1, 2453, Note_on_c, 0, 54, 53
1, 2468, Note_on_c, 0, 46, 43
1, 2470, Note_on_c, 0, 27, 45
1, 2471, Note_on_c, 0, 39, 39
1, 2499, Note_off_c, 0, 54, 58
1, 2501, Note_off_c, 0, 46, 60
1, 2504, Note_off_c, 0, 39, 44
1, 2512, Note_off_c, 0, 27, 51
1, 2597, Note_on_c, 0, 46, 51
1, 2600, Note_on_c, 0, 54, 57
1, 2615, Note_on_c, 0, 39, 40
1, 2635, Note_on_c, 0, 27, 23
1, 2638, Note_off_c, 0, 46, 62
1, 2644, Note_off_c, 0, 39, 50
1, 2646, Note_off_c, 0, 54, 59
1, 2674, Note_off_c, 0, 27, 41
1, 2733, Note_on_c, 0, 46, 48
1, 2736, Note_on_c, 0, 54, 57
1, 2744, Note_on_c, 0, 39, 46
1, 2766, Note_on_c, 0, 27, 25
1, 2771, Note_off_c, 0, 46, 62
1, 2781, Note_off_c, 0, 54, 59
1, 2783, Note_off_c, 0, 39, 62
1, 2811, Note_off_c, 0, 27, 39
1, 2824, Control_c, 0, 67, 11
1, 2897, Note_on_c, 0, 54, 48
1, 2906, Note_on_c, 0, 58, 50
1, 2912, Note_on_c, 0, 51, 44
1, 2922, Note_on_c, 0, 46, 34
1, 2929, Note_on_c, 0, 39, 28
1, 2940, Note_off_c, 0, 51, 57
1, 2954, Note_off_c, 0, 54, 56
1, 2958, Note_off_c, 0, 58, 57
1, 2969, Note_off_c, 0, 46, 50
1, 2988, Note_off_c, 0, 39, 55
1, 3016, Control_c, 0, 67, 9
1, 3124, Note_on_c, 0, 58, 48
1, 3135, Note_on_c, 0, 51, 29
1, 3138, Note_on_c, 0, 39, 40
1, 3142, Note_on_c, 0, 46, 25
1, 3166, Note_off_c, 0, 51, 55
1, 3168, Note_off_c, 0, 58, 58
1, 3183, Note_off_c, 0, 46, 52
1, 3184, Note_off_c, 0, 39, 53
1, 3192, Poly_aftertouch_c, 0, 54, 127
1, 3231, Poly_aftertouch_c, 0, 54, 0
1, 3276, Control_c, 0, 67, 0
1, 3477, Note_on_c, 0, 61, 83
1, 3615, Note_off_c, 0, 61, 58
1, 3864, Note_on_c, 0, 51, 56
1, 3890, Note_on_c, 0, 58, 46
1, 3898, Note_off_c, 0, 51, 62
1, 3913, Note_on_c, 0, 54, 24
1, 3926, Note_off_c, 0, 58, 62
1, 3928, Note_on_c, 0, 39, 33
1, 3939, Note_on_c, 0, 46, 12
1, 3940, Note_off_c, 0, 54, 0
1, 3955, Poly_aftertouch_c, 0, 54, 0
1, 3958, Note_on_c, 0, 63, 82
1, 3972, Note_off_c, 0, 39, 50
1, 3979, Note_off_c, 0, 46, 45
1, 4050, Note_on_c, 0, 58, 61
1, 4053, Note_on_c, 0, 54, 63
1, 4053, Note_off_c, 0, 63, 62
1, 4063, Note_on_c, 0, 51, 44
1, 4083, Note_off_c, 0, 54, 63
1, 4087, Note_off_c, 0, 51, 58
1, 4099, Note_on_c, 0, 46, 38
1, 4107, Note_on_c, 0, 39, 44
1, 4117, Note_off_c, 0, 58, 59
1, 4145, Note_off_c, 0, 39, 54
1, 4146, Note_off_c, 0, 46, 58
1, 4341, Note_on_c, 0, 65, 83
1, 4352, Control_c, 0, 64, 105
1, 4366, Control_c, 0, 64, 86
1, 4381, Control_c, 0, 64, 71
1, 4396, Control_c, 0, 64, 44
1, 4411, Control_c, 0, 64, 0
1, 4426, Control_c, 0, 64, 65
1, 4441, Control_c, 0, 64, 73
1, 4456, Control_c, 0, 64, 84
1, 4470, Control_c, 0, 64, 98
1, 4485, Control_c, 0, 64, 114
1, 4500, Control_c, 0, 64, 127
1, 4661, Note_off_c, 0, 65, 59
1, 4686, Control_c, 0, 67, 8
1, 4690, Note_on_c, 0, 58, 51
1, 4709, Note_on_c, 0, 39, 38
1, 4712, Note_on_c, 0, 53, 35
1, 4719, Note_on_c, 0, 46, 34
1, 4731, Note_off_c, 0, 58, 57
1, 4745, Note_off_c, 0, 53, 54
1, 4766, Note_on_c, 0, 61, 75
1, 4768, Note_off_c, 0, 46, 48
1, 4773, Note_off_c, 0, 39, 50
1, 4823, Note_off_c, 0, 61, 56
1, 4849, Note_on_c, 0, 58, 62
1, 4863, Control_c, 0, 67, 10
1, 4870, Note_on_c, 0, 53, 47
1, 4882, Note_off_c, 0, 58, 64
1, 4904, Note_off_c, 0, 53, 57
1, 4965, Note_on_c, 0, 39, 36
1, 4999, Poly_aftertouch_c, 0, 46, 127
1, 5037, Poly_aftertouch_c, 0, 46, 0
1, 5112, Note_on_c, 0, 58, 79
1, 5131, Note_off_c, 0, 39, 44
1, 5352, Note_off_c, 0, 58, 60
1, 5373, Note_on_c, 0, 53, 58
1, 5374, Note_on_c, 0, 27, 46
1, 5385, Note_on_c, 0, 46, 42
1, 5389, Note_on_c, 0, 39, 35
1, 5419, Note_off_c, 0, 46, 51
1, 5425, Note_off_c, 0, 53, 58
1, 5425, Note_off_c, 0, 27, 45
1, 5430, Note_off_c, 0, 39, 50
1, 5533, Note_on_c, 0, 46, 49
1, 5538, Note_on_c, 0, 53, 64
1, 5553, Note_on_c, 0, 27, 52
1, 5558, Note_on_c, 0, 39, 45
1, 5574, Note_off_c, 0, 46, 61
1, 5586, Note_off_c, 0, 39, 58
1, 5591, Note_off_c, 0, 53, 62
1, 5596, Note_off_c, 0, 27, 57
1, 5671, Note_on_c, 0, 53, 55
1, 5686, Note_on_c, 0, 39, 49
1, 5691, Note_off_c, 0, 53, 64
1, 5709, Note_on_c, 0, 27, 34
1, 5729, Note_off_c, 0, 39, 62
1, 5744, Note_off_c, 0, 27, 44
1, 5775, Control_c, 0, 67, 8
1, 5790, Control_c, 0, 67, 0
1, 5806, Note_on_c, 0, 53, 36
1, 5830, Note_on_c, 0, 58, 51
1, 5832, Note_on_c, 0, 46, 54
1, 5833, Note_on_c, 0, 39, 51
1, 5845, Note_off_c, 0, 53, 61
1, 5862, Note_off_c, 0, 58, 63
1, 5864, Note_off_c, 0, 39, 55
1, 5870, Note_off_c, 0, 46, 63
1, 5935, Note_on_c, 0, 53, 63
1, 5936, Note_on_c, 0, 58, 72
1, 5952, Note_on_c, 0, 39, 60
1, 5955, Note_on_c, 0, 46, 52
1, 5964, Note_off_c, 0, 53, 65
1, 5974, Note_off_c, 0, 58, 58
1, 5993, Note_off_c, 0, 46, 56
1, 6004, Note_off_c, 0, 39, 50
1, 6078, Note_on_c, 0, 61, 91
1, 6165, Note_off_c, 0, 61, 53
1, 6225, Note_on_c, 0, 53, 71
1, 6242, Note_on_c, 0, 46, 63
1, 6247, Note_on_c, 0, 58, 51
1, 6250, Note_on_c, 0, 39, 51
1, 6253, Note_off_c, 0, 53, 64
1, 6274, Note_off_c, 0, 39, 61
1, 6276, Note_off_c, 0, 58, 60
1, 6279, Note_off_c, 0, 46, 60
1, 6326, Note_on_c, 0, 65, 95
1, 6398, Note_off_c, 0, 65, 55
1, 6418, Note_on_c, 0, 58, 65
1, 6420, Note_on_c, 0, 39, 46
1, 6420, Note_on_c, 0, 53, 67
1, 6441, Note_on_c, 0, 46, 38
1, 6450, Note_off_c, 0, 53, 64
1, 6453, Note_off_c, 0, 58, 62
1, 6471, Note_off_c, 0, 46, 56
1, 6477, Note_off_c, 0, 39, 57
1, 6691, Note_on_c, 0, 68, 89
1, 6731, Control_c, 0, 64, 99
1, 6745, Control_c, 0, 64, 84
1, 6760, Control_c, 0, 64, 73
1, 6775, Control_c, 0, 64, 67
1, 6797, Control_c, 0, 64, 66
1, 6812, Control_c, 0, 64, 68
1, 6823, Poly_aftertouch_c, 0, 69, 0
1, 6827, Control_c, 0, 64, 71
1, 6842, Control_c, 0, 64, 77
1, 6857, Control_c, 0, 64, 85
1, 6871, Control_c, 0, 64, 95
1, 6886, Control_c, 0, 64, 104
1, 6901, Control_c, 0, 64, 110
1, 6916, Control_c, 0, 64, 115
1, 6931, Control_c, 0, 64, 127
1, 7012, Note_on_c, 0, 56, 52
1, 7016, Note_on_c, 0, 46, 43
1, 7020, Note_on_c, 0, 58, 39
1, 7021, Note_on_c, 0, 61, 45
1, 7045, Note_on_c, 0, 52, 28
1, 7048, Note_on_c, 0, 49, 40
1, 7050, Note_off_c, 0, 58, 57
1, 7058, Note_off_c, 0, 56, 60
1, 7065, Note_off_c, 0, 68, 59
1, 7073, Note_off_c, 0, 61, 57
1, 7092, Note_off_c, 0, 46, 58
1, 7094, Note_off_c, 0, 49, 59
1, 7097, Note_off_c, 0, 52, 49
1, 7168, Note_on_c, 0, 61, 61
1, 7169, Note_on_c, 0, 56, 50
1, 7200, Note_off_c, 0, 56, 63
1, 7207, Note_off_c, 0, 61, 60
1, 7245, Poly_aftertouch_c, 0, 49, 127
1, 7262, Note_on_c, 0, 46, 36
1, 7277, Note_on_c, 0, 56, 64
1, 7279, Note_on_c, 0, 61, 67
1, 7303, Control_c, 0, 67, 8
1, 7312, Poly_aftertouch_c, 0, 49, 0
1, 7316, Note_off_c, 0, 61, 62
1, 7318, Note_off_c, 0, 46, 60
1, 7323, Note_off_c, 0, 56, 63
1, 7332, Control_c, 0, 67, 11
1, 7402, Note_on_c, 0, 58, 76
1, 7428, Note_on_c, 0, 27, 64
1, 7428, Note_on_c, 0, 51, 33
1, 7437, Note_on_c, 0, 39, 46
1, 7440, Note_on_c, 0, 49, 41
1, 7443, Note_off_c, 0, 58, 55
1, 7463, Note_off_c, 0, 51, 48
1, 7467, Note_off_c, 0, 39, 49
1, 7470, Note_off_c, 0, 27, 57
1, 7473, Note_off_c, 0, 49, 51
1, 7481, Control_c, 0, 67, 9
1, 7523, Note_on_c, 0, 58, 82
1, 7540, Control_c, 0, 67, 0
1, 7550, Note_on_c, 0, 27, 55
1, 7554, Note_on_c, 0, 49, 55
1, 7556, Note_off_c, 0, 58, 65
1, 7558, Note_on_c, 0, 39, 56
1, 7584, Note_off_c, 0, 39, 54
1, 7586, Note_off_c, 0, 27, 57
1, 7587, Note_off_c, 0, 49, 53
1, 7745, Note_on_c, 0, 67, 94
1, 7755, Control_c, 0, 64, 107
1, 7769, Control_c, 0, 64, 91
1, 7784, Control_c, 0, 64, 81
1, 7799, Control_c, 0, 64, 77
1, 7814, Control_c, 0, 64, 80
1, 7828, Control_c, 0, 64, 86
1, 7843, Control_c, 0, 64, 96
1, 7858, Control_c, 0, 64, 109
1, 7874, Control_c, 0, 64, 127
1, 7932, Note_on_c, 0, 46, 50
1, 7937, Note_on_c, 0, 58, 60
1, 7943, Note_on_c, 0, 61, 60
1, 7948, Note_on_c, 0, 55, 54
1, 7950, Note_on_c, 0, 49, 51
1, 7958, Note_on_c, 0, 52, 35
1, 7967, Note_off_c, 0, 67, 47
1, 7973, Note_off_c, 0, 58, 61
1, 7974, Note_off_c, 0, 61, 62
1, 7978, Note_off_c, 0, 55, 52
1, 7982, Note_off_c, 0, 46, 61
1, 7988, Note_off_c, 0, 49, 60
1, 7994, Note_off_c, 0, 52, 56
1, 8042, Note_on_c, 0, 61, 74
1, 8059, Note_on_c, 0, 58, 51
1, 8060, Note_on_c, 0, 55, 51
1, 8074, Note_off_c, 0, 61, 61
1, 8075, Note_on_c, 0, 49, 46
1, 8078, Note_off_c, 0, 58, 63
1, 8080, Note_on_c, 0, 46, 38
1, 8081, Note_off_c, 0, 55, 61
1, 8133, Note_off_c, 0, 49, 0
1, 8138, Note_on_c, 0, 61, 79
1, 8143, Note_on_c, 0, 55, 74
1, 8146, Note_on_c, 0, 49, 52
1, 8170, Control_c, 0, 67, 8
1, 8174, Note_off_c, 0, 49, 65
1, 8178, Note_off_c, 0, 55, 63
1, 8182, Note_off_c, 0, 46, 61
1, 8187, Note_off_c, 0, 61, 57
1, 8282, Note_on_c, 0, 49, 65
1, 8283, Note_on_c, 0, 58, 76
1, 8319, Note_on_c, 0, 27, 64
1, 8319, Note_on_c, 0, 39, 62
1, 8326, Note_off_c, 0, 58, 61
1, 8328, Note_off_c, 0, 49, 63
1, 8346, Note_off_c, 0, 39, 58
1, 8367, Note_off_c, 0, 27, 49
1, 8474, Control_c, 0, 67, 0
1, 8500, Note_on_c, 0, 27, 56
1, 8508, Note_on_c, 0, 39, 56
1, 8540, Note_off_c, 0, 27, 59
1, 8549, Note_off_c, 0, 39, 60
1, 8607, Note_on_c, 0, 70, 95
1, 8738, Note_off_c, 0, 70, 57
1, 8858, Note_on_c, 0, 58, 26
1, 8890, Note_off_c, 0, 58, 51
1, 8959, Note_on_c, 0, 66, 77
1, 8978, Control_c, 0, 64, 110
1, 8993, Control_c, 0, 64, 92
1, 9008, Control_c, 0, 64, 78
1, 9023, Control_c, 0, 64, 69
1, 9045, Control_c, 0, 64, 64
1, 9060, Control_c, 0, 64, 66
1, 9074, Control_c, 0, 64, 69
1, 9089, Control_c, 0, 64, 74
1, 9104, Control_c, 0, 64, 82
1, 9119, Control_c, 0, 64, 93
1, 9134, Control_c, 0, 64, 102
1, 9148, Control_c, 0, 64, 108
1, 9163, Control_c, 0, 64, 110
1, 9178, Control_c, 0, 64, 114
1, 9193, Control_c, 0, 64, 122
1, 9207, Control_c, 0, 64, 127
1, 9237, Note_on_c, 0, 47, 53
1, 9256, Note_off_c, 0, 66, 57
1, 9261, Note_on_c, 0, 54, 54
1, 9264, Note_on_c, 0, 63, 50
1, 9270, Note_on_c, 0, 58, 34
1, 9282, Note_on_c, 0, 51, 44
1, 9303, Note_off_c, 0, 58, 52
1, 9309, Note_off_c, 0, 54, 56
1, 9312, Note_off_c, 0, 63, 58
1, 9333, Note_off_c, 0, 51, 57
1, 9337, Note_off_c, 0, 47, 58
1, 9393, Note_on_c, 0, 63, 65
1, 9398, Note_on_c, 0, 54, 59
1, 9428, Note_on_c, 0, 47, 34
1, 9429, Note_off_c, 0, 54, 63
1, 9436, Note_off_c, 0, 63, 60
1, 9446, Note_on_c, 0, 51, 39
1, 9484, Note_off_c, 0, 47, 0
1, 9503, Note_on_c, 0, 54, 65
1, 9504, Note_on_c, 0, 63, 70
1, 9506, Note_on_c, 0, 47, 28
1, 9513, Note_off_c, 0, 51, 62
1, 9535, Note_off_c, 0, 63, 64
1, 9546, Note_off_c, 0, 47, 44
1, 9549, Note_off_c, 0, 54, 63
1, 9564, Control_c, 0, 67, 8
1, 9639, Note_on_c, 0, 54, 72
1, 9640, Note_on_c, 0, 47, 70
1, 9648, Note_on_c, 0, 27, 65
1, 9650, Note_on_c, 0, 39, 59
1, 9676, Note_off_c, 0, 39, 56
1, 9679, Note_off_c, 0, 47, 62
1, 9681, Note_off_c, 0, 27, 52
1, 9692, Note_off_c, 0, 54, 59
1, 9768, Note_on_c, 0, 54, 83
1, 9783, Note_on_c, 0, 47, 62
1, 9783, Note_on_c, 0, 27, 64
1, 9792, Note_on_c, 0, 39, 63
1, 9822, Note_off_c, 0, 47, 54
1, 9824, Note_off_c, 0, 39, 62
1, 9824, Note_off_c, 0, 54, 63
1, 9827, Note_off_c, 0, 27, 60
1, 9852, Control_c, 0, 67, 0
1, 10029, Note_on_c, 0, 68, 90
1, 10030, Control_c, 0, 64, 107
1, 10035, Note_on_c, 0, 65, 81
1, 10045, Control_c, 0, 64, 87
1, 10060, Control_c, 0, 64, 74
1, 10075, Control_c, 0, 64, 70
1, 10089, Control_c, 0, 64, 75
1, 10104, Control_c, 0, 64, 84
1, 10119, Control_c, 0, 64, 106
1, 10134, Control_c, 0, 64, 127
1, 10135, Note_off_c, 0, 65, 60
1, 10143, Note_off_c, 0, 68, 62
1, 10181, Note_on_c, 0, 70, 76
1, 10222, Note_off_c, 0, 70, 53
1, 10251, Note_on_c, 0, 68, 69
1, 10251, Note_on_c, 0, 65, 64
1, 10266, Note_on_c, 0, 46, 48
1, 10281, Note_off_c, 0, 68, 66
1, 10292, Note_off_c, 0, 65, 63
1, 10298, Poly_aftertouch_c, 0, 49, 0
1, 10298, Note_on_c, 0, 70, 82
1, 10301, Note_on_c, 0, 56, 43
1, 10328, Note_off_c, 0, 46, 41
1, 10331, Note_on_c, 0, 58, 14
1, 10339, Note_off_c, 0, 70, 64
1, 10346, Note_on_c, 0, 68, 68
1, 10355, Poly_aftertouch_c, 0, 53, 127
1, 10364, Note_on_c, 0, 65, 57
1, 10364, Note_off_c, 0, 56, 54
1, 10370, Note_off_c, 0, 68, 68
1, 10376, Note_off_c, 0, 58, 43
1, 10381, Poly_aftertouch_c, 0, 50, 127
1, 10390, Note_off_c, 0, 65, 61
1, 10391, Poly_aftertouch_c, 0, 53, 0
1, 10406, Note_on_c, 0, 70, 82
1, 10431, Poly_aftertouch_c, 0, 50, 0
1, 10445, Note_off_c, 0, 70, 62
1, 10451, Note_on_c, 0, 65, 60
1, 10453, Note_on_c, 0, 68, 59
1, 10480, Note_off_c, 0, 68, 66
1, 10510, Note_on_c, 0, 70, 75
1, 10511, Note_off_c, 0, 65, 64
1, 10553, Poly_aftertouch_c, 0, 65, 0
1, 10561, Note_on_c, 0, 68, 75
1, 10564, Note_on_c, 0, 65, 58
1, 10571, Note_on_c, 0, 47, 78
1, 10573, Note_off_c, 0, 70, 0
1, 10578, Note_on_c, 0, 56, 75
1, 10592, Note_on_c, 0, 53, 63
1, 10597, Note_off_c, 0, 47, 64
1, 10601, Note_off_c, 0, 56, 68
1, 10611, Poly_aftertouch_c, 0, 70, 127
1, 10616, Note_off_c, 0, 53, 60
1, 10632, Poly_aftertouch_c, 0, 70, 0
1, 10635, Note_off_c, 0, 65, 63
1, 10658, Note_off_c, 0, 68, 66
1, 10697, Note_on_c, 0, 56, 3
1, 10728, Note_off_c, 0, 56, 53
1, 10750, Note_on_c, 0, 70, 39
1, 10771, Note_off_c, 0, 70, 61
1, 10874, Note_on_c, 0, 63, 88
1, 10874, Note_on_c, 0, 66, 92
1, 10911, Note_off_c, 0, 63, 66
1, 10916, Note_on_c, 0, 27, 67
1, 10916, Note_on_c, 0, 39, 65
1, 10929, Note_off_c, 0, 66, 65
1, 10952, Note_off_c, 0, 27, 58
1, 10952, Note_off_c, 0, 39, 63
1, 11084, Note_on_c, 0, 68, 97
1, 11085, Note_on_c, 0, 65, 95
1, 11091, Note_on_c, 0, 39, 75
1, 11094, Note_on_c, 0, 27, 67
1, 11125, Note_off_c, 0, 39, 66
1, 11129, Note_off_c, 0, 65, 65
1, 11131, Note_off_c, 0, 27, 61
1, 11167, Note_off_c, 0, 68, 64
1, 11333, Note_on_c, 0, 70, 94
1, 11338, Note_on_c, 0, 66, 93
1, 11365, Control_c, 0, 64, 99
1, 11380, Control_c, 0, 64, 73
1, 11394, Control_c, 0, 64, 0
1, 11468, Control_c, 0, 64, 64
1, 11483, Control_c, 0, 64, 81
1, 11498, Control_c, 0, 64, 100
1, 11513, Control_c, 0, 64, 127
1, 11541, Note_off_c, 0, 66, 61
1, 11598, Note_off_c, 0, 70, 55
1, 11685, Note_on_c, 0, 58, 26
1, 11689, Note_on_c, 0, 51, 41
1, 11691, Note_on_c, 0, 54, 31
1, 11693, Note_on_c, 0, 66, 56
1, 11694, Note_on_c, 0, 63, 57
1, 11724, Poly_aftertouch_c, 0, 46, 127
1, 11728, Note_off_c, 0, 63, 64
1, 11729, Note_off_c, 0, 66, 62
1, 11744, Note_off_c, 0, 54, 54
1, 11745, Note_off_c, 0, 58, 59
1, 11754, Note_off_c, 0, 51, 56
1, 11762, Poly_aftertouch_c, 0, 46, 0
1, 11863, Note_on_c, 0, 58, 49
1, 11863, Note_on_c, 0, 66, 61
1, 11864, Note_on_c, 0, 63, 53
1, 11865, Note_on_c, 0, 46, 50
1, 11875, Note_on_c, 0, 51, 44
1, 11875, Note_on_c, 0, 54, 41
1, 11896, Note_off_c, 0, 58, 61
1, 11905, Note_off_c, 0, 63, 61
1, 11908, Note_off_c, 0, 54, 60
1, 11909, Note_off_c, 0, 46, 59
1, 11911, Note_off_c, 0, 51, 62
1, 11920, Note_off_c, 0, 66, 60
1, 11987, Control_c, 0, 67, 8
1, 11997, Note_on_c, 0, 54, 54
1, 11998, Note_on_c, 0, 46, 57
1, 12006, Note_on_c, 0, 51, 42
1, 12010, Note_on_c, 0, 63, 56
1, 12023, Note_off_c, 0, 54, 55
1, 12024, Note_on_c, 0, 66, 41
1, 12030, Note_off_c, 0, 63, 64
1, 12031, Control_c, 0, 67, 10
1, 12040, Note_off_c, 0, 51, 57
1, 12046, Note_off_c, 0, 46, 61
1, 12058, Note_off_c, 0, 66, 55
1, 12069, Control_c, 0, 67, 12
1, 12148, Note_on_c, 0, 54, 56
1, 12162, Note_on_c, 0, 46, 52
1, 12173, Note_on_c, 0, 27, 34
1, 12175, Note_on_c, 0, 39, 37
1, 12194, Note_off_c, 0, 54, 59
1, 12197, Note_off_c, 0, 46, 57
1, 12210, Note_off_c, 0, 39, 41
1, 12214, Note_off_c, 0, 27, 43
1, 12275, Note_on_c, 0, 54, 70
1, 12275, Note_on_c, 0, 46, 67
1, 12298, Note_off_c, 0, 46, 64
1, 12302, Note_off_c, 0, 54, 64
1, 12370, Note_on_c, 0, 54, 70
1, 12374, Note_on_c, 0, 46, 57
1, 12375, Note_on_c, 0, 27, 24
1, 12379, Note_on_c, 0, 39, 46
1, 12379, Control_c, 0, 67, 10
1, 12400, Note_off_c, 0, 46, 65
1, 12409, Note_off_c, 0, 27, 57
1, 12415, Note_off_c, 0, 39, 63
1, 12416, Note_off_c, 0, 54, 60
1, 12439, Control_c, 0, 67, 8
1, 12483, Control_c, 0, 67, 0
1, 12502, Note_on_c, 0, 58, 76
1, 12510, Note_on_c, 0, 39, 57
1, 12511, Note_on_c, 0, 46, 35
1, 12524, Note_on_c, 0, 54, 59
1, 12541, Note_off_c, 0, 46, 56
1, 12546, Note_off_c, 0, 39, 62
1, 12546, Note_off_c, 0, 58, 57
1, 12548, Note_off_c, 0, 54, 64
1, 12627, Note_on_c, 0, 58, 93
1, 12631, Note_on_c, 0, 54, 51
1, 12636, Note_on_c, 0, 39, 49
1, 12638, Note_on_c, 0, 46, 35
1, 12650, Note_off_c, 0, 58, 67
1, 12663, Note_off_c, 0, 54, 57
1, 12669, Note_off_c, 0, 39, 45
1, 12674, Note_off_c, 0, 46, 47
1, 12871, Note_on_c, 0, 69, 101
1, 12880, Note_on_c, 0, 65, 88
1, 12900, Note_off_c, 0, 65, 70
1, 12963, Note_on_c, 0, 65, 28
1, 12964, Note_off_c, 0, 65, 127
1, 12999, Note_off_c, 0, 69, 59
1, 13131, Note_on_c, 0, 63, 85
1, 13153, Note_on_c, 0, 57, 56
1, 13169, Note_on_c, 0, 46, 39
1, 13170, Note_off_c, 0, 63, 61
1, 13172, Note_on_c, 0, 62, 40
1, 13181, Note_off_c, 0, 57, 66
1, 13194, Note_on_c, 0, 54, 7
1, 13197, Note_off_c, 0, 46, 56
1, 13199, Note_on_c, 0, 51, 18
1, 13200, Note_off_c, 0, 62, 56
1, 13209, Note_on_c, 0, 70, 99
1, 13219, Note_on_c, 0, 66, 86
1, 13238, Note_off_c, 0, 54, 50
1, 13239, Note_off_c, 0, 66, 70
1, 13243, Note_off_c, 0, 51, 51
1, 13266, Note_off_c, 0, 70, 62
1, 13312, Note_on_c, 0, 63, 86
1, 13330, Note_on_c, 0, 58, 60
1, 13339, Note_off_c, 0, 63, 66
1, 13351, Note_on_c, 0, 54, 41
1, 13359, Note_on_c, 0, 51, 37
1, 13359, Note_off_c, 0, 58, 64
1, 13388, Note_off_c, 0, 54, 48
1, 13390, Note_off_c, 0, 51, 54
1, 13494, Note_on_c, 0, 72, 102
1, 13613, Poly_aftertouch_c, 0, 70, 127
1, 13624, Note_off_c, 0, 72, 60
1, 13654, Poly_aftertouch_c, 0, 70, 0
1, 13670, Control_c, 0, 67, 8
1, 13676, Note_on_c, 0, 60, 25
1, 13697, Note_on_c, 0, 66, 46
1, 13708, Note_on_c, 0, 51, 44
1, 13709, Note_on_c, 0, 63, 42
1, 13715, Note_off_c, 0, 60, 40
1, 13723, Note_off_c, 0, 66, 62
1, 13724, Note_on_c, 0, 54, 37
1, 13732, Note_off_c, 0, 63, 59
1, 13768, Note_off_c, 0, 54, 47
1, 13780, Note_off_c, 0, 51, 51
1, 13794, Note_on_c, 0, 69, 95
1, 13811, Note_on_c, 0, 66, 51
1, 13834, Note_off_c, 0, 66, 63
1, 13893, Note_off_c, 0, 69, 60
1, 13894, Note_on_c, 0, 63, 50
1, 13896, Note_on_c, 0, 57, 75
1, 13923, Note_off_c, 0, 57, 67
1, 13946, Note_off_c, 0, 63, 61
1, 13961, Poly_aftertouch_c, 0, 46, 127
1, 13966, Control_c, 0, 67, 10
1, 13983, Note_on_c, 0, 51, 21
1, 14007, Poly_aftertouch_c, 0, 46, 0
1, 14021, Note_off_c, 0, 51, 44
1, 14039, Poly_aftertouch_c, 0, 54, 0
1, 14150, Note_on_c, 0, 66, 93
1, 14186, Note_off_c, 0, 66, 68
1, 14397, Note_on_c, 0, 27, 62
1, 14399, Note_on_c, 0, 57, 64
1, 14403, Note_on_c, 0, 39, 52
1, 14410, Note_on_c, 0, 48, 57
1, 14421, Note_on_c, 0, 54, 45
1, 14431, Note_off_c, 0, 39, 55
1, 14434, Note_off_c, 0, 48, 59
1, 14436, Note_off_c, 0, 27, 57
1, 14448, Note_off_c, 0, 54, 55
1, 14448, Note_off_c, 0, 57, 59
1, 14541, Note_on_c, 0, 27, 54
1, 14542, Note_on_c, 0, 48, 60
1, 14544, Note_on_c, 0, 57, 72
1, 14546, Note_on_c, 0, 54, 55
1, 14552, Note_on_c, 0, 39, 44
1, 14573, Note_off_c, 0, 48, 64
1, 14576, Note_off_c, 0, 39, 60
1, 14579, Note_off_c, 0, 54, 63
1, 14579, Note_off_c, 0, 27, 61
1, 14585, Note_off_c, 0, 57, 60
1, 14650, Note_on_c, 0, 27, 72
1, 14658, Note_on_c, 0, 39, 67
1, 14666, Note_on_c, 0, 48, 59
1, 14669, Note_on_c, 0, 54, 50
1, 14672, Note_on_c, 0, 57, 74
1, 14686, Control_c, 0, 67, 0
1, 14694, Note_off_c, 0, 27, 60
1, 14694, Note_off_c, 0, 48, 65
1, 14697, Note_off_c, 0, 39, 61
1, 14701, Note_off_c, 0, 54, 57
1, 14717, Note_off_c, 0, 57, 62
1, 14806, Note_on_c, 0, 54, 61
1, 14808, Note_on_c, 0, 57, 70
1, 14819, Note_on_c, 0, 46, 44
1, 14819, Note_on_c, 0, 59, 45
1, 14827, Note_on_c, 0, 60, 47
1, 14830, Note_off_c, 0, 57, 70
1, 14842, Note_off_c, 0, 54, 62
1, 14847, Note_off_c, 0, 46, 58
1, 14847, Note_off_c, 0, 59, 55
1, 14853, Note_off_c, 0, 60, 54
1, 14908, Note_on_c, 0, 51, 45
1, 14911, Note_on_c, 0, 54, 72
1, 14913, Note_on_c, 0, 57, 65
1, 14916, Note_on_c, 0, 46, 67
1, 14916, Note_on_c, 0, 60, 84
1, 14937, Note_off_c, 0, 46, 64
1, 14946, Note_off_c, 0, 60, 63
1, 14948, Note_off_c, 0, 54, 59
1, 14954, Note_off_c, 0, 57, 63
1, 14966, Note_off_c, 0, 51, 39
1, 15046, Note_on_c, 0, 69, 96
1, 15081, Note_on_c, 0, 68, 34
1, 15082, Note_off_c, 0, 68, 127
1, 15110, Poly_aftertouch_c, 0, 68, 0
1, 15179, Note_off_c, 0, 69, 61
1, 15193, Note_on_c, 0, 57, 81
1, 15198, Note_on_c, 0, 66, 74
1, 15206, Note_on_c, 0, 63, 61
1, 15216, Note_off_c, 0, 57, 69
1, 15222, Note_on_c, 0, 46, 55
1, 15238, Note_off_c, 0, 63, 64
1, 15241, Note_off_c, 0, 66, 60
1, 15248, Note_on_c, 0, 54, 33
1, 15253, Note_off_c, 0, 46, 63
1, 15277, Note_off_c, 0, 54, 52
1, 15292, Note_on_c, 0, 72, 106
1, 15319, Note_on_c, 0, 70, 47
1, 15320, Note_off_c, 0, 70, 127
1, 15363, Poly_aftertouch_c, 0, 57, 0
1, 15392, Note_off_c, 0, 72, 66
1, 15396, Note_on_c, 0, 54, 44
1, 15396, Note_on_c, 0, 66, 71
1, 15397, Note_on_c, 0, 60, 75
1, 15401, Note_on_c, 0, 63, 74
1, 15417, Note_on_c, 0, 51, 65
1, 15424, Note_off_c, 0, 60, 65
1, 15432, Note_off_c, 0, 63, 64
1, 15439, Note_off_c, 0, 66, 59
1, 15447, Note_off_c, 0, 54, 62
1, 15450, Note_off_c, 0, 51, 62
1, 15653, Note_on_c, 0, 75, 102
1, 15685, Control_c, 0, 64, 110
1, 15700, Control_c, 0, 64, 86
1, 15715, Control_c, 0, 64, 72
1, 15730, Control_c, 0, 64, 68
1, 15745, Control_c, 0, 64, 73
1, 15760, Control_c, 0, 64, 84
1, 15782, Control_c, 0, 64, 106
1, 15797, Control_c, 0, 64, 127
1, 15999, Note_on_c, 0, 63, 73
1, 16004, Note_on_c, 0, 68, 76
1, 16007, Note_on_c, 0, 65, 45
1, 16008, Note_on_c, 0, 56, 51
1, 16013, Note_on_c, 0, 53, 44
1, 16020, Note_on_c, 0, 59, 40
1, 16031, Note_off_c, 0, 63, 61
1, 16041, Note_off_c, 0, 68, 59
1, 16064, Note_off_c, 0, 65, 43
1, 16066, Note_off_c, 0, 56, 59
1, 16067, Note_off_c, 0, 53, 55
1, 16073, Note_off_c, 0, 59, 51
1, 16171, Note_on_c, 0, 68, 79
1, 16173, Note_on_c, 0, 63, 77
1, 16181, Note_on_c, 0, 65, 69
1, 16200, Note_on_c, 0, 53, 50
1, 16210, Note_off_c, 0, 63, 62
1, 16214, Note_on_c, 0, 59, 43
1, 16230, Note_off_c, 0, 68, 63
1, 16231, Note_on_c, 0, 56, 27
1, 16240, Note_off_c, 0, 65, 62
1, 16242, Note_off_c, 0, 53, 55
1, 16248, Note_off_c, 0, 59, 53
1, 16268, Note_off_c, 0, 56, 42
1, 16319, Note_on_c, 0, 63, 85
1, 16323, Note_on_c, 0, 68, 83
1, 16340, Note_on_c, 0, 53, 51
1, 16350, Note_on_c, 0, 56, 55
1, 16353, Note_on_c, 0, 59, 40
1, 16368, Note_off_c, 0, 63, 62
1, 16371, Note_off_c, 0, 53, 64
1, 16374, Note_off_c, 0, 56, 64
1, 16374, Note_off_c, 0, 68, 61
1, 16378, Note_off_c, 0, 59, 54
1, 16466, Note_off_c, 0, 75, 60
1, 16472, Note_on_c, 0, 68, 76
1, 16473, Note_on_c, 0, 63, 82
1, 16475, Note_on_c, 0, 39, 75
1, 16493, Note_on_c, 0, 47, 48
1, 16507, Note_off_c, 0, 68, 59
1, 16508, Note_off_c, 0, 39, 63
1, 16514, Note_off_c, 0, 63, 61
1, 16520, Note_off_c, 0, 47, 53
1, 16564, Note_on_c, 0, 73, 99
1, 16637, Note_on_c, 0, 52, 67
1, 16641, Note_on_c, 0, 61, 92
1, 16642, Note_on_c, 0, 68, 84
1, 16660, Note_off_c, 0, 52, 61
1, 16665, Note_off_c, 0, 73, 60
1, 16682, Note_off_c, 0, 61, 60
1, 16697, Note_off_c, 0, 68, 63
1, 16721, Poly_aftertouch_c, 0, 70, 0
1, 16799, Control_c, 0, 64, 116
1, 16813, Control_c, 0, 64, 92
1, 16824, Note_on_c, 0, 74, 100
1, 16828, Control_c, 0, 64, 75
1, 16843, Control_c, 0, 64, 67
1, 16858, Control_c, 0, 64, 67
1, 16866, Note_on_c, 0, 62, 37
1, 16867, Note_off_c, 0, 62, 127
1, 16873, Control_c, 0, 64, 73
1, 16887, Control_c, 0, 64, 83
1, 16902, Control_c, 0, 64, 105
1, 16917, Control_c, 0, 64, 127
1, 17022, Note_off_c, 0, 74, 65
1, 17036, Note_on_c, 0, 62, 84
1, 17041, Note_on_c, 0, 65, 75
1, 17041, Note_on_c, 0, 71, 73
1, 17049, Note_on_c, 0, 68, 73
1, 17053, Note_on_c, 0, 56, 54
1, 17055, Note_on_c, 0, 59, 54
1, 17064, Note_off_c, 0, 65, 66
1, 17074, Note_off_c, 0, 62, 61
1, 17076, Note_off_c, 0, 68, 67
1, 17077, Note_off_c, 0, 56, 62
1, 17092, Note_off_c, 0, 71, 63
1, 17097, Note_off_c, 0, 59, 62
1, 17132, Note_on_c, 0, 75, 102
1, 17171, Note_on_c, 0, 71, 23
1, 17199, Note_off_c, 0, 71, 57
1, 17211, Poly_aftertouch_c, 0, 68, 0
1, 17225, Note_on_c, 0, 63, 96
1, 17230, Note_on_c, 0, 71, 74
1, 17231, Note_on_c, 0, 68, 38
1, 17238, Note_on_c, 0, 59, 58
1, 17242, Note_on_c, 0, 66, 84
1, 17256, Note_on_c, 0, 56, 52
1, 17263, Note_off_c, 0, 75, 61
1, 17267, Note_off_c, 0, 63, 65
1, 17283, Note_off_c, 0, 68, 60
1, 17291, Note_off_c, 0, 66, 59
1, 17294, Note_off_c, 0, 56, 57
1, 17297, Note_off_c, 0, 71, 63
1, 17314, Note_off_c, 0, 59, 61
1, 17322, Poly_aftertouch_c, 0, 70, 0
1, 17329, Poly_aftertouch_c, 0, 73, 0
1, 17460, Note_on_c, 0, 73, 81
1, 17463, Note_on_c, 0, 76, 85
1, 17464, Note_on_c, 0, 70, 82
1, 17465, Note_on_c, 0, 59, 59
1, 17465, Note_on_c, 0, 64, 89
1, 17468, Note_on_c, 0, 77, 82
1, 17470, Note_on_c, 0, 67, 90
1, 17486, Note_on_c, 0, 56, 59
1, 17493, Note_on_c, 0, 65, 52
1, 17495, Note_off_c, 0, 64, 54
1, 17516, Note_off_c, 0, 67, 61
1, 17536, Note_off_c, 0, 77, 33
1, 17539, Note_off_c, 0, 56, 58
1, 17550, Note_off_c, 0, 70, 60
1, 17565, Note_off_c, 0, 65, 32
1, 17584, Note_off_c, 0, 59, 57
1, 17584, Note_off_c, 0, 73, 57
1, 17676, Note_off_c, 0, 76, 53
1, 17710, Note_on_c, 0, 56, 70
1, 17712, Note_on_c, 0, 68, 76
1, 17721, Note_on_c, 0, 59, 66
1, 17733, Note_on_c, 0, 74, 85
1, 17734, Note_on_c, 0, 65, 80
1, 17739, Note_on_c, 0, 71, 77
1, 17766, Note_off_c, 0, 65, 59
1, 17778, Note_off_c, 0, 71, 52
1, 17804, Note_off_c, 0, 74, 61
1, 17807, Note_off_c, 0, 68, 48
1, 17823, Note_off_c, 0, 59, 57
1, 17825, Note_off_c, 0, 56, 40
1, 17864, Note_on_c, 0, 77, 101
1, 17969, Note_off_c, 0, 77, 57
1, 18024, Note_on_c, 0, 71, 84
1, 18024, Note_on_c, 0, 74, 88
1, 18037, Note_on_c, 0, 68, 77
1, 18039, Note_on_c, 0, 56, 77
1, 18040, Note_on_c, 0, 65, 72
1, 18042, Note_on_c, 0, 59, 77
1, 18057, Note_off_c, 0, 65, 67
1, 18063, Note_off_c, 0, 68, 66
1, 18089, Note_off_c, 0, 59, 63
1, 18092, Note_off_c, 0, 71, 61
1, 18094, Note_off_c, 0, 56, 62
1, 18108, Note_off_c, 0, 74, 64
1, 18436, Note_on_c, 0, 27, 95
1, 18437, Note_on_c, 0, 39, 93
1, 18457, Note_on_c, 0, 80, 95
1, 18458, Note_on_c, 0, 70, 94
1, 18462, Note_on_c, 0, 68, 90
1, 18462, Note_on_c, 0, 75, 87
1, 18475, Control_c, 0, 64, 94
1, 18490, Control_c, 0, 64, 76
1, 18504, Control_c, 0, 64, 61
1, 18519, Control_c, 0, 64, 0
1, 18549, Control_c, 0, 64, 63
1, 18560, Note_off_c, 0, 27, 61
1, 18564, Control_c, 0, 64, 70
1, 18578, Control_c, 0, 64, 77
1, 18593, Control_c, 0, 64, 84
1, 18608, Control_c, 0, 64, 91
1, 18609, Note_off_c, 0, 39, 61
1, 18623, Control_c, 0, 64, 97
1, 18638, Control_c, 0, 64, 104
1, 18652, Control_c, 0, 64, 113
1, 18667, Control_c, 0, 64, 127
1, 18769, Note_off_c, 0, 68, 57
1, 18802, Note_off_c, 0, 70, 61
1, 18818, Note_off_c, 0, 75, 58
1, 18916, Note_off_c, 0, 80, 49
1, 18976, Note_on_c, 0, 46, 41
1, 18988, Note_on_c, 0, 54, 52
1, 18994, Note_on_c, 0, 70, 28
1, 19000, Note_on_c, 0, 75, 43
1, 19009, Note_on_c, 0, 68, 20
1, 19028, Note_off_c, 0, 70, 54
1, 19039, Note_off_c, 0, 75, 49
1, 19041, Note_off_c, 0, 68, 45
1, 19043, Note_off_c, 0, 46, 53
1, 19052, Note_off_c, 0, 54, 55
1, 19080, Note_on_c, 0, 78, 86
1, 19174, Note_on_c, 0, 70, 64
1, 19182, Note_on_c, 0, 66, 64
1, 19182, Note_off_c, 0, 78, 61
1, 19184, Note_on_c, 0, 75, 66
1, 19219, Note_on_c, 0, 58, 52
1, 19220, Note_off_c, 0, 66, 57
1, 19223, Note_on_c, 0, 54, 47
1, 19243, Note_off_c, 0, 70, 61
1, 19249, Note_off_c, 0, 75, 60
1, 19252, Note_off_c, 0, 58, 64
1, 19258, Note_off_c, 0, 54, 61
1, 19402, Note_on_c, 0, 75, 84
1, 19410, Note_on_c, 0, 70, 70
1, 19427, Note_on_c, 0, 66, 51
1, 19428, Note_on_c, 0, 63, 56
1, 19444, Note_on_c, 0, 58, 39
1, 19454, Note_off_c, 0, 66, 58
1, 19459, Note_off_c, 0, 63, 55
1, 19490, Note_off_c, 0, 70, 61
1, 19498, Note_off_c, 0, 58, 55
1, 19587, Note_off_c, 0, 75, 54
1, 19623, Note_on_c, 0, 70, 64
1, 19635, Note_on_c, 0, 63, 56
1, 19641, Note_on_c, 0, 54, 40
1, 19656, Note_on_c, 0, 58, 20
1, 19664, Note_off_c, 0, 70, 60
1, 19669, Note_off_c, 0, 63, 63
1, 19690, Note_off_c, 0, 54, 58
1, 19690, Control_c, 0, 67, 8
1, 19694, Note_off_c, 0, 58, 46
1, 19742, Note_on_c, 0, 70, 80
1, 19764, Control_c, 0, 67, 10
1, 19808, Control_c, 0, 67, 12
1, 19811, Note_off_c, 0, 70, 62
1, 19825, Note_on_c, 0, 63, 57
1, 19827, Note_on_c, 0, 66, 65
1, 19831, Note_on_c, 0, 46, 41
1, 19861, Note_off_c, 0, 63, 63
1, 19882, Control_c, 0, 67, 14
1, 19884, Note_off_c, 0, 66, 56
1, 19893, Note_off_c, 0, 46, 39
1, 20149, Control_c, 0, 64, 113
1, 20164, Control_c, 0, 64, 104
1, 20179, Control_c, 0, 64, 94
1, 20194, Control_c, 0, 64, 85
1, 20204, Note_on_c, 0, 72, 84
1, 20209, Control_c, 0, 64, 74
1, 20223, Control_c, 0, 64, 65
1, 20238, Control_c, 0, 64, 0
1, 20305, Control_c, 0, 64, 64
1, 20320, Control_c, 0, 64, 70
1, 20335, Control_c, 0, 64, 77
1, 20349, Control_c, 0, 64, 84
1, 20364, Control_c, 0, 64, 90
1, 20379, Control_c, 0, 64, 92
1, 20394, Control_c, 0, 64, 94
1, 20409, Control_c, 0, 64, 96
1, 20424, Control_c, 0, 64, 98
1, 20438, Control_c, 0, 64, 100
1, 20468, Control_c, 0, 64, 102
1, 20607, Note_on_c, 0, 39, 47
1, 20624, Note_on_c, 0, 60, 43
1, 20624, Note_on_c, 0, 69, 50
1, 20643, Note_on_c, 0, 66, 32
1, 20667, Note_off_c, 0, 39, 55
1, 20693, Note_off_c, 0, 60, 48
1, 20700, Note_off_c, 0, 66, 45
1, 20705, Note_off_c, 0, 69, 56
1, 20822, Note_on_c, 0, 54, 49
1, 20830, Note_on_c, 0, 69, 34
1, 20850, Note_off_c, 0, 54, 58
1, 20860, Note_off_c, 0, 69, 52
1, 20869, Control_c, 0, 64, 104
1, 20890, Poly_aftertouch_c, 0, 60, 0
1, 20943, Control_c, 0, 67, 12
1, 20997, Note_on_c, 0, 69, 61
1, 21004, Note_on_c, 0, 57, 62
1, 21025, Note_off_c, 0, 69, 63
1, 21044, Note_off_c, 0, 57, 65
1, 21128, Control_c, 0, 64, 106
1, 21187, Control_c, 0, 64, 108
1, 21189, Note_on_c, 0, 69, 51
1, 21194, Note_on_c, 0, 60, 69
1, 21194, Note_on_c, 0, 66, 63
1, 21203, Note_on_c, 0, 54, 54
1, 21212, Note_on_c, 0, 46, 50
1, 21217, Control_c, 0, 64, 111
1, 21221, Note_off_c, 0, 60, 63
1, 21226, Note_off_c, 0, 54, 61
1, 21229, Note_off_c, 0, 72, 38
1, 21231, Control_c, 0, 64, 113
1, 21237, Note_off_c, 0, 66, 58
1, 21240, Note_off_c, 0, 46, 57
1, 21246, Control_c, 0, 64, 115
1, 21251, Note_off_c, 0, 69, 60
1, 21261, Control_c, 0, 64, 117
1, 21276, Control_c, 0, 64, 121
1, 21291, Control_c, 0, 64, 127
1, 21322, Note_on_c, 0, 60, 60
1, 21327, Note_on_c, 0, 69, 78
1, 21352, Note_on_c, 0, 46, 9
1, 21360, Note_off_c, 0, 60, 62
1, 21373, Note_off_c, 0, 69, 61
1, 21393, Note_off_c, 0, 46, 53
1, 21456, Control_c, 0, 64, 117
1, 21456, Control_c, 0, 67, 14
1, 21465, Note_on_c, 0, 73, 89
1, 21468, Note_on_c, 0, 61, 83
1, 21471, Control_c, 0, 64, 94
1, 21483, Note_on_c, 0, 68, 65
1, 21485, Control_c, 0, 64, 81
1, 21492, Note_on_c, 0, 65, 42
1, 21500, Control_c, 0, 64, 76
1, 21505, Note_on_c, 0, 64, 37
1, 21508, Note_off_c, 0, 61, 49
1, 21515, Control_c, 0, 64, 80
1, 21520, Note_off_c, 0, 65, 52
1, 21528, Note_off_c, 0, 68, 55
1, 21529, Control_c, 0, 64, 91
1, 21537, Note_off_c, 0, 64, 55
1, 21544, Control_c, 0, 64, 117
1, 21559, Control_c, 0, 64, 127
1, 21602, Note_off_c, 0, 73, 60
1, 21651, Note_on_c, 0, 39, 67
1, 21707, Control_c, 0, 64, 107
1, 21718, Note_on_c, 0, 74, 88
1, 21719, Note_on_c, 0, 62, 89
1, 21721, Control_c, 0, 64, 86
1, 21723, Note_on_c, 0, 68, 83
1, 21728, Note_on_c, 0, 65, 75
1, 21729, Note_off_c, 0, 39, 62
1, 21736, Control_c, 0, 64, 71
1, 21749, Note_off_c, 0, 62, 64
1, 21751, Control_c, 0, 64, 68
1, 21754, Note_off_c, 0, 65, 68
1, 21774, Control_c, 0, 64, 72
1, 21776, Note_on_c, 0, 70, 26
1, 21789, Control_c, 0, 64, 80
1, 21795, Note_off_c, 0, 68, 62
1, 21803, Control_c, 0, 64, 91
1, 21812, Note_off_c, 0, 70, 41
1, 21817, Note_off_c, 0, 74, 61
1, 21818, Control_c, 0, 64, 100
1, 21847, Control_c, 0, 64, 98
1, 21862, Control_c, 0, 64, 91
1, 21877, Control_c, 0, 64, 82
1, 21888, Note_on_c, 0, 56, 57
1, 21892, Control_c, 0, 64, 77
1, 21907, Control_c, 0, 64, 78
1, 21909, Note_on_c, 0, 65, 70
1, 21912, Note_on_c, 0, 77, 88
1, 21916, Note_on_c, 0, 68, 73
1, 21919, Note_on_c, 0, 71, 69
1, 21921, Control_c, 0, 64, 83
1, 21935, Note_off_c, 0, 65, 66
1, 21936, Control_c, 0, 64, 89
1, 21939, Note_off_c, 0, 68, 65
1, 21942, Note_off_c, 0, 56, 62
1, 21948, Note_off_c, 0, 71, 64
1, 21951, Control_c, 0, 64, 94
1, 21966, Control_c, 0, 64, 96
1, 22010, Control_c, 0, 64, 98
1, 22082, Note_on_c, 0, 68, 69
1, 22085, Control_c, 0, 64, 100
1, 22091, Note_on_c, 0, 56, 60
1, 22109, Note_off_c, 0, 68, 68
1, 22126, Note_off_c, 0, 56, 63
1, 22218, Control_c, 0, 64, 102
1, 22233, Control_c, 0, 67, 12
1, 22287, Note_on_c, 0, 71, 57
1, 22290, Note_on_c, 0, 45, 62
1, 22298, Note_on_c, 0, 68, 51
1, 22301, Note_on_c, 0, 65, 40
1, 22308, Control_c, 0, 67, 10
1, 22323, Note_off_c, 0, 45, 65
1, 22325, Note_off_c, 0, 71, 59
1, 22329, Note_off_c, 0, 68, 59
1, 22336, Note_off_c, 0, 65, 43
1, 22337, Note_off_c, 0, 77, 41
1, 22536, Note_on_c, 0, 65, 33
1, 22538, Note_on_c, 0, 39, 49
1, 22545, Note_on_c, 0, 68, 13
1, 22545, Note_on_c, 0, 71, 22
1, 22565, Note_off_c, 0, 65, 50
1, 22579, Note_off_c, 0, 39, 49
1, 22580, Note_off_c, 0, 71, 55
1, 22587, Note_off_c, 0, 68, 38
1, 22589, Note_on_c, 0, 47, 11
1, 22635, Note_off_c, 0, 47, 36
1, 22685, Control_c, 0, 64, 100
1, 22694, Note_on_c, 0, 55, 70
1, 22722, Note_off_c, 0, 55, 63
1, 22759, Control_c, 0, 64, 98
1, 22775, Note_on_c, 0, 58, 71
1, 22789, Control_c, 0, 64, 96
1, 22803, Control_c, 0, 64, 95
1, 22804, Note_off_c, 0, 58, 67
1, 22818, Control_c, 0, 64, 92
1, 22833, Control_c, 0, 64, 90
1, 22835, Note_on_c, 0, 63, 73
1, 22848, Control_c, 0, 64, 88
1, 22863, Control_c, 0, 64, 86
1, 22873, Note_off_c, 0, 63, 63
1, 22878, Control_c, 0, 64, 84
1, 22893, Control_c, 0, 64, 83
1, 22908, Control_c, 0, 64, 82
1, 22917, Note_on_c, 0, 67, 65
1, 22923, Control_c, 0, 64, 81
1, 22938, Control_c, 0, 64, 80
1, 22952, Control_c, 0, 64, 79
1, 22967, Control_c, 0, 64, 79
1, 22982, Control_c, 0, 64, 78
1, 22996, Control_c, 0, 64, 76
1, 23011, Control_c, 0, 64, 74
1, 23018, Note_on_c, 0, 39, 74
1, 23026, Control_c, 0, 64, 71
1, 23029, Note_on_c, 0, 27, 63
1, 23039, Note_off_c, 0, 67, 30
1, 23041, Control_c, 0, 64, 66
1, 23057, Control_c, 0, 64, 0
1, 23075, Note_on_c, 0, 70, 87
1, 23099, Poly_aftertouch_c, 0, 30, 127
1, 23104, Note_off_c, 0, 27, 61
1, 23138, Poly_aftertouch_c, 0, 30, 0
1, 23146, Control_c, 0, 64, 60
1, 23161, Control_c, 0, 64, 69
1, 23167, Note_off_c, 0, 39, 61
1, 23175, Control_c, 0, 64, 76
1, 23190, Control_c, 0, 64, 84
1, 23205, Control_c, 0, 64, 90
1, 23219, Control_c, 0, 64, 93
1, 23234, Control_c, 0, 64, 95
1, 23249, Control_c, 0, 64, 97
1, 23364, Note_on_c, 0, 39, 39
1, 23390, Note_on_c, 0, 67, 56
1, 23390, Note_off_c, 0, 39, 50
1, 23394, Note_on_c, 0, 58, 45
1, 23420, Note_on_c, 0, 63, 23
1, 23420, Note_off_c, 0, 58, 57
1, 23462, Note_off_c, 0, 63, 49
1, 23464, Note_off_c, 0, 67, 56
1, 23529, Note_on_c, 0, 58, 48
1, 23533, Note_on_c, 0, 55, 56
1, 23540, Note_on_c, 0, 67, 49
1, 23554, Note_off_c, 0, 58, 60
1, 23562, Note_on_c, 0, 46, 30
1, 23569, Note_off_c, 0, 55, 60
1, 23596, Control_c, 0, 67, 8
1, 23599, Note_off_c, 0, 46, 44
1, 23626, Control_c, 0, 67, 0
1, 23646, Note_off_c, 0, 67, 38
1, 23690, Note_on_c, 0, 55, 68
1, 23698, Note_on_c, 0, 67, 56
1, 23722, Note_off_c, 0, 67, 55
1, 23728, Note_off_c, 0, 55, 65
1, 23849, Control_c, 0, 64, 99
1, 23867, Note_on_c, 0, 46, 63
1, 23870, Note_on_c, 0, 58, 73
1, 23874, Note_on_c, 0, 67, 54
1, 23901, Note_off_c, 0, 46, 64
1, 23901, Note_off_c, 0, 58, 63
1, 23915, Note_off_c, 0, 70, 24
1, 23922, Note_off_c, 0, 67, 57
1, 23938, Control_c, 0, 64, 101
1, 23986, Note_on_c, 0, 46, 68
1, 23994, Note_on_c, 0, 68, 79
1, 24002, Note_on_c, 0, 39, 58
1, 24024, Note_off_c, 0, 46, 62
1, 24025, Note_on_c, 0, 63, 64
1, 24032, Note_off_c, 0, 39, 61
1, 24048, Note_on_c, 0, 67, 50
1, 24061, Note_off_c, 0, 63, 62
1, 24064, Control_c, 0, 64, 104
1, 24068, Note_off_c, 0, 68, 62
1, 24072, Note_off_c, 0, 67, 61
1, 24091, Poly_aftertouch_c, 0, 59, 0
1, 24123, Poly_aftertouch_c, 0, 59, 0
1, 24212, Control_c, 0, 64, 94
1, 24219, Note_on_c, 0, 71, 85
1, 24219, Note_on_c, 0, 59, 85
1, 24224, Note_on_c, 0, 69, 77
1, 24226, Note_on_c, 0, 66, 76
1, 24227, Control_c, 0, 64, 81
1, 24228, Note_on_c, 0, 63, 81
1, 24242, Control_c, 0, 64, 66
1, 24256, Control_c, 0, 64, 0
1, 24286, Control_c, 0, 64, 66
1, 24302, Control_c, 0, 64, 76
1, 24317, Control_c, 0, 64, 89
1, 24331, Control_c, 0, 64, 103
1, 24346, Control_c, 0, 64, 113
1, 24359, Note_off_c, 0, 59, 50
1, 24371, Note_off_c, 0, 63, 59
1, 24383, Note_off_c, 0, 71, 59
1, 24384, Note_off_c, 0, 69, 57
1, 24386, Note_off_c, 0, 66, 61
1, 24524, Note_on_c, 0, 60, 79
1, 24524, Note_on_c, 0, 72, 85
1, 24527, Note_on_c, 0, 69, 69
1, 24531, Note_on_c, 0, 39, 70
1, 24534, Note_on_c, 0, 66, 70
1, 24535, Note_on_c, 0, 63, 68
1, 24550, Note_off_c, 0, 60, 64
1, 24566, Note_off_c, 0, 63, 63
1, 24580, Note_off_c, 0, 66, 61
1, 24587, Note_off_c, 0, 69, 59
1, 24601, Note_off_c, 0, 72, 60
1, 24619, Note_off_c, 0, 39, 58
1, 24658, Control_c, 0, 64, 110
1, 24672, Control_c, 0, 64, 104
1, 24687, Control_c, 0, 64, 93
1, 24702, Control_c, 0, 64, 80
1, 24703, Note_on_c, 0, 66, 72
1, 24703, Note_on_c, 0, 75, 88
1, 24705, Note_on_c, 0, 69, 63
1, 24707, Note_on_c, 0, 63, 70
1, 24717, Control_c, 0, 64, 68
1, 24718, Note_on_c, 0, 54, 55
1, 24726, Note_on_c, 0, 46, 47
1, 24728, Note_off_c, 0, 63, 65
1, 24732, Control_c, 0, 64, 65
1, 24747, Control_c, 0, 64, 69
1, 24747, Note_off_c, 0, 54, 63
1, 24759, Note_off_c, 0, 66, 58
1, 24761, Note_off_c, 0, 46, 62
1, 24769, Control_c, 0, 64, 77
1, 24780, Note_off_c, 0, 69, 54
1, 24784, Control_c, 0, 64, 88
1, 24784, Control_c, 0, 67, 8
1, 24799, Control_c, 0, 64, 101
1, 24814, Control_c, 0, 64, 107
1, 24865, Note_on_c, 0, 54, 68
1, 24881, Note_on_c, 0, 66, 68
1, 24899, Note_off_c, 0, 66, 68
1, 24914, Note_off_c, 0, 54, 54
1, 24917, Control_c, 0, 67, 11
1, 24932, Control_c, 0, 64, 105
1, 24994, Note_off_c, 0, 75, 50
1, 25006, Control_c, 0, 67, 13
1, 25067, Note_on_c, 0, 66, 26
1, 25078, Note_on_c, 0, 63, 54
1, 25078, Note_on_c, 0, 46, 46
1, 25082, Note_on_c, 0, 69, 52
1, 25110, Note_off_c, 0, 63, 54
1, 25113, Note_off_c, 0, 46, 53
1, 25129, Note_off_c, 0, 69, 57
1, 25131, Note_off_c, 0, 66, 54
1, 25334, Note_on_c, 0, 46, 25
1, 25341, Note_on_c, 0, 63, 32
1, 25376, Note_off_c, 0, 46, 49
1, 25381, Note_off_c, 0, 63, 43
1, 25487, Note_on_c, 0, 53, 71
1, 25495, Control_c, 0, 64, 102
1, 25523, Note_off_c, 0, 53, 65
1, 25532, Control_c, 0, 64, 100
1, 25562, Control_c, 0, 64, 96
1, 25576, Control_c, 0, 64, 95
1, 25578, Note_on_c, 0, 56, 66
1, 25591, Control_c, 0, 64, 93
1, 25606, Control_c, 0, 64, 91
1, 25615, Note_off_c, 0, 56, 65
1, 25620, Control_c, 0, 64, 89
1, 25632, Note_on_c, 0, 61, 69
1, 25635, Control_c, 0, 64, 87
1, 25650, Control_c, 0, 64, 86
1, 25665, Control_c, 0, 64, 84
1, 25680, Control_c, 0, 64, 82
1, 25689, Note_off_c, 0, 61, 60
1, 25695, Control_c, 0, 64, 80
1, 25701, Note_on_c, 0, 65, 68
1, 25710, Control_c, 0, 64, 79
1, 25725, Control_c, 0, 64, 78
1, 25740, Control_c, 0, 64, 78
1, 25769, Control_c, 0, 64, 77
1, 25798, Control_c, 0, 64, 76
1, 25812, Control_c, 0, 64, 75
1, 25827, Control_c, 0, 64, 74
1, 25841, Note_on_c, 0, 39, 71
1, 25842, Control_c, 0, 64, 72
1, 25851, Note_on_c, 0, 27, 64
1, 25857, Control_c, 0, 64, 70
1, 25872, Control_c, 0, 64, 68
1, 25886, Control_c, 0, 64, 67
1, 25901, Control_c, 0, 64, 65
1, 25916, Control_c, 0, 64, 64
1, 25931, Control_c, 0, 64, 64
1, 25935, Note_on_c, 0, 68, 85
1, 25946, Control_c, 0, 64, 63
1, 25958, Note_off_c, 0, 65, 55
1, 25961, Control_c, 0, 64, 62
1, 25975, Control_c, 0, 64, 61
1, 26001, Note_off_c, 0, 27, 60
1, 26005, Control_c, 0, 64, 62
1, 26020, Control_c, 0, 64, 63
1, 26035, Control_c, 0, 64, 64
1, 26050, Control_c, 0, 64, 67
1, 26064, Note_off_c, 0, 39, 61
1, 26064, Control_c, 0, 64, 70
1, 26079, Control_c, 0, 64, 74
1, 26094, Control_c, 0, 64, 81
1, 26109, Control_c, 0, 64, 87
1, 26124, Control_c, 0, 64, 91
1, 26138, Control_c, 0, 64, 93
1, 26153, Control_c, 0, 64, 94
1, 26153, Control_c, 0, 67, 11
1, 26168, Control_c, 0, 64, 96
1, 26183, Control_c, 0, 64, 99
1, 26198, Control_c, 0, 64, 101
1, 26294, Note_on_c, 0, 39, 35
1, 26326, Note_off_c, 0, 39, 55
1, 26357, Note_on_c, 0, 65, 48
1, 26366, Note_on_c, 0, 61, 40
1, 26370, Note_on_c, 0, 56, 41
1, 26409, Note_off_c, 0, 56, 54
1, 26425, Note_off_c, 0, 65, 58
1, 26438, Note_off_c, 0, 61, 45
1, 26503, Note_on_c, 0, 53, 59
1, 26529, Note_on_c, 0, 56, 38
1, 26544, Note_on_c, 0, 46, 22
1, 26547, Note_off_c, 0, 53, 62
1, 26552, Note_on_c, 0, 65, 45
1, 26559, Note_off_c, 0, 56, 49
1, 26573, Poly_aftertouch_c, 0, 61, 127
1, 26586, Note_off_c, 0, 46, 40
1, 26602, Note_off_c, 0, 65, 45
1, 26617, Poly_aftertouch_c, 0, 61, 0
1, 26720, Note_on_c, 0, 65, 45
1, 26729, Note_on_c, 0, 53, 51
1, 26747, Note_off_c, 0, 65, 55
1, 26752, Note_off_c, 0, 53, 61
1, 26907, Note_off_c, 0, 68, 47
1, 26917, Control_c, 0, 67, 13
1, 26976, Control_c, 0, 64, 99
1, 26976, Control_c, 0, 67, 15
1, 26982, Note_on_c, 0, 65, 47
1, 26990, Note_on_c, 0, 46, 26
1, 27018, Note_on_c, 0, 56, 23
1, 27030, Note_off_c, 0, 65, 54
1, 27036, Note_off_c, 0, 46, 50
1, 27044, Control_c, 0, 67, 17
1, 27058, Note_off_c, 0, 56, 52
1, 27197, Note_on_c, 0, 46, 19
1, 27218, Note_on_c, 0, 39, 6
1, 27241, Note_on_c, 0, 56, 21
1, 27245, Note_on_c, 0, 65, 19
1, 27263, Note_off_c, 0, 39, 50
1, 27266, Control_c, 0, 64, 97
1, 27272, Note_off_c, 0, 46, 53
1, 27278, Note_off_c, 0, 56, 44
1, 27283, Note_off_c, 0, 65, 54
1, 27325, Control_c, 0, 64, 96
1, 27340, Control_c, 0, 64, 95
1, 27355, Control_c, 0, 64, 95
1, 27370, Control_c, 0, 64, 94
1, 27385, Control_c, 0, 64, 94
1, 27399, Control_c, 0, 64, 93
1, 27399, Control_c, 0, 67, 15
1, 27414, Control_c, 0, 64, 92
1, 27429, Control_c, 0, 64, 92
1, 27488, Control_c, 0, 64, 91
1, 27503, Control_c, 0, 64, 91
1, 27518, Control_c, 0, 64, 90
1, 27532, Control_c, 0, 64, 88
1, 27547, Control_c, 0, 64, 87
1, 27562, Control_c, 0, 64, 85
1, 27577, Control_c, 0, 64, 83
1, 27591, Control_c, 0, 64, 82
1, 27606, Control_c, 0, 64, 79
1, 27621, Control_c, 0, 64, 77
1, 27635, Note_on_c, 0, 69, 59
1, 27636, Control_c, 0, 64, 73
1, 27651, Control_c, 0, 64, 68
1, 27659, Note_on_c, 0, 66, 37
1, 27665, Control_c, 0, 64, 63
1, 27680, Control_c, 0, 64, 0
1, 27737, Poly_aftertouch_c, 0, 63, 127
1, 27762, Control_c, 0, 64, 48
1, 27777, Control_c, 0, 64, 67
1, 27791, Control_c, 0, 64, 72
1, 27806, Control_c, 0, 64, 78
1, 27821, Control_c, 0, 64, 83
1, 27837, Control_c, 0, 64, 86
1, 27852, Control_c, 0, 64, 87
1, 27852, Control_c, 0, 67, 13
1, 27867, Control_c, 0, 64, 89
1, 27882, Control_c, 0, 64, 90
1, 27894, Note_off_c, 0, 66, 33
1, 27896, Control_c, 0, 64, 91
1, 27911, Control_c, 0, 64, 92
1, 27918, Poly_aftertouch_c, 0, 63, 0
1, 27926, Control_c, 0, 64, 93
1, 28183, Note_on_c, 0, 66, 38
1, 28194, Note_on_c, 0, 57, 28
1, 28212, Note_on_c, 0, 63, 25
1, 28286, Note_off_c, 0, 57, 32
1, 28286, Note_off_c, 0, 69, 12
1, 28322, Note_off_c, 0, 66, 32
1, 28345, Note_on_c, 0, 51, 55
1, 28359, Note_off_c, 0, 63, 22
1, 28460, Control_c, 0, 67, 11
1, 28489, Note_on_c, 0, 66, 40
1, 28494, Note_on_c, 0, 63, 40
1, 28503, Note_on_c, 0, 57, 38
1, 28539, Note_off_c, 0, 63, 56
1, 28546, Note_off_c, 0, 57, 62
1, 28546, Note_off_c, 0, 66, 45
1, 28582, Note_off_c, 0, 51, 38
1, 28720, Control_c, 0, 64, 92
1, 28735, Control_c, 0, 64, 92
1, 28750, Control_c, 0, 64, 91
1, 28750, Note_on_c, 0, 49, 71
1, 28764, Control_c, 0, 64, 89
1, 28779, Control_c, 0, 64, 86
1, 28794, Control_c, 0, 64, 81
1, 28801, Note_on_c, 0, 57, 40
1, 28809, Control_c, 0, 64, 75
1, 28816, Note_on_c, 0, 54, 29
1, 28824, Control_c, 0, 64, 70
1, 28838, Control_c, 0, 64, 68
1, 28853, Control_c, 0, 64, 69
1, 28861, Note_off_c, 0, 54, 46
1, 28868, Control_c, 0, 64, 72
1, 28883, Control_c, 0, 64, 76
1, 28898, Note_off_c, 0, 57, 54
1, 28898, Control_c, 0, 64, 82
1, 28912, Control_c, 0, 64, 86
1, 28927, Control_c, 0, 64, 90
1, 28942, Control_c, 0, 64, 92
1, 28957, Control_c, 0, 64, 93
1, 28971, Control_c, 0, 64, 94
1, 28986, Control_c, 0, 64, 96
1, 29001, Control_c, 0, 64, 98
1, 29023, Note_on_c, 0, 63, 48
1, 29029, Note_off_c, 0, 49, 57
1, 29039, Note_on_c, 0, 57, 5
1, 29045, Control_c, 0, 64, 100
1, 29067, Note_off_c, 0, 63, 61
1, 29075, Control_c, 0, 67, 13
1, 29090, Control_c, 0, 64, 103
1, 29094, Note_off_c, 0, 57, 49
1, 29120, Control_c, 0, 64, 106
1, 29150, Control_c, 0, 64, 109
1, 29164, Control_c, 0, 64, 112
1, 29174, Note_on_c, 0, 63, 55
1, 29179, Control_c, 0, 64, 114
1, 29181, Note_on_c, 0, 54, 41
1, 29209, Control_c, 0, 64, 117
1, 29210, Note_off_c, 0, 54, 52
1, 29220, Note_off_c, 0, 63, 62
1, 29224, Control_c, 0, 64, 120
1, 29238, Control_c, 0, 64, 127
1, 29238, Control_c, 0, 67, 15
1, 29271, Note_on_c, 0, 47, 72
1, 29292, Note_on_c, 0, 46, 24
1, 29338, Note_off_c, 0, 46, 40
1, 29390, Note_off_c, 0, 47, 59
1, 29394, Control_c, 0, 64, 122
1, 29409, Control_c, 0, 64, 113
1, 29422, Note_on_c, 0, 70, 72
1, 29424, Control_c, 0, 64, 105
1, 29439, Control_c, 0, 64, 94
1, 29445, Note_on_c, 0, 66, 57
1, 29447, Note_on_c, 0, 62, 51
1, 29454, Control_c, 0, 64, 83
1, 29469, Control_c, 0, 64, 71
1, 29481, Note_on_c, 0, 39, 57
1, 29484, Control_c, 0, 64, 66
1, 29484, Note_on_c, 0, 47, 60
1, 29498, Control_c, 0, 64, 67
1, 29498, Control_c, 0, 67, 17
1, 29506, Note_off_c, 0, 62, 59
1, 29513, Control_c, 0, 64, 71
1, 29516, Note_off_c, 0, 70, 60
1, 29528, Control_c, 0, 64, 79
1, 29542, Note_off_c, 0, 66, 62
1, 29543, Control_c, 0, 64, 91
1, 29558, Control_c, 0, 64, 106
1, 29573, Control_c, 0, 64, 123
1, 29587, Control_c, 0, 64, 127
1, 29609, Note_off_c, 0, 47, 55
1, 29676, Control_c, 0, 67, 19
1, 29701, Note_off_c, 0, 39, 60
1, 29706, Note_on_c, 0, 66, 49
1, 29740, Note_on_c, 0, 54, 39
1, 29752, Note_on_c, 0, 62, 38
1, 29780, Note_off_c, 0, 54, 47
1, 29794, Control_c, 0, 67, 21
1, 29809, Note_off_c, 0, 62, 56
1, 29839, Control_c, 0, 67, 23
1, 29841, Note_on_c, 0, 39, 58
1, 29855, Note_on_c, 0, 27, 48
1, 29874, Note_off_c, 0, 66, 33
1, 29879, Note_off_c, 0, 39, 63
1, 29889, Note_off_c, 0, 27, 51
1, 29937, Note_on_c, 0, 62, 55
1, 29942, Note_on_c, 0, 54, 46
1, 29969, Note_off_c, 0, 62, 65
1, 29969, Note_off_c, 0, 54, 62
1, 30127, Control_c, 0, 64, 119
1, 30142, Control_c, 0, 64, 106
1, 30157, Control_c, 0, 64, 89
1, 30172, Control_c, 0, 64, 75
1, 30185, Note_on_c, 0, 56, 56
1, 30187, Control_c, 0, 64, 65
1, 30189, Note_on_c, 0, 54, 50
1, 30202, Control_c, 0, 64, 65
1, 30217, Control_c, 0, 64, 68
1, 30232, Control_c, 0, 64, 73
1, 30247, Control_c, 0, 64, 83
1, 30262, Control_c, 0, 64, 93
1, 30277, Control_c, 0, 64, 100
1, 30291, Control_c, 0, 64, 102
1, 30291, Control_c, 0, 67, 21
1, 30378, Note_off_c, 0, 56, 60
1, 30393, Note_off_c, 0, 54, 40
1, 30469, Control_c, 0, 64, 100
1, 30498, Control_c, 0, 64, 97
1, 30513, Control_c, 0, 64, 94
1, 30527, Control_c, 0, 64, 91
1, 30542, Control_c, 0, 64, 88
1, 30557, Control_c, 0, 64, 86
1, 30559, Note_on_c, 0, 46, 54
1, 30563, Note_on_c, 0, 56, 35
1, 30572, Control_c, 0, 64, 84
1, 30575, Note_on_c, 0, 62, 47
1, 30587, Control_c, 0, 64, 81
1, 30602, Control_c, 0, 64, 77
1, 30616, Control_c, 0, 64, 71
1, 30631, Control_c, 0, 64, 66
1, 30634, Poly_aftertouch_c, 0, 54, 127
1, 30646, Control_c, 0, 64, 64
1, 30661, Note_off_c, 0, 56, 0
1, 30685, Poly_aftertouch_c, 0, 54, 0
1, 30691, Control_c, 0, 64, 65
1, 30698, Poly_aftertouch_c, 0, 56, 127
1, 30739, Poly_aftertouch_c, 0, 56, 0
1, 30750, Control_c, 0, 64, 65
1, 30763, Note_on_c, 0, 66, 67
1, 30801, Note_off_c, 0, 62, 36
1, 30802, Control_c, 0, 64, 66
1, 30816, Control_c, 0, 64, 67
1, 30826, Note_off_c, 0, 46, 48
1, 30831, Control_c, 0, 64, 69
1, 30846, Control_c, 0, 64, 72
1, 30861, Control_c, 0, 64, 76
1, 30876, Control_c, 0, 64, 81
1, 30891, Control_c, 0, 64, 87
1, 30905, Control_c, 0, 64, 90
1, 30920, Control_c, 0, 64, 93
1, 30928, Note_off_c, 0, 66, 55
1, 30935, Control_c, 0, 64, 94
1, 30950, Control_c, 0, 64, 96
1, 30965, Control_c, 0, 64, 98
1, 30980, Control_c, 0, 64, 100
1, 31009, Control_c, 0, 64, 102
1, 31103, Note_on_c, 0, 62, 25
1, 31120, Note_on_c, 0, 54, 13
1, 31126, Note_on_c, 0, 56, 11
1, 31144, Control_c, 0, 67, 19
1, 31248, Note_off_c, 0, 62, 38
1, 31386, Note_off_c, 0, 54, 39
1, 31469, Control_c, 0, 64, 100
1, 31510, Note_off_c, 0, 56, 31
1, 31580, Control_c, 0, 64, 97
1, 31610, Control_c, 0, 64, 95
1, 31625, Control_c, 0, 64, 95
1, 31625, Control_c, 0, 67, 17
1, 31639, Control_c, 0, 64, 94
1, 31654, Control_c, 0, 64, 94
1, 31669, Control_c, 0, 64, 93
1, 31683, Control_c, 0, 64, 91
1, 31698, Control_c, 0, 64, 89
1, 31713, Control_c, 0, 64, 86
1, 31719, Note_on_c, 0, 63, 47
1, 31728, Control_c, 0, 64, 82
1, 31743, Control_c, 0, 64, 76
1, 31758, Control_c, 0, 64, 68
1, 31773, Control_c, 0, 64, 30
1, 31788, Control_c, 0, 64, 0
1, 31834, Control_c, 0, 64, 64
1, 31849, Control_c, 0, 64, 68
1, 31863, Control_c, 0, 64, 71
1, 31878, Control_c, 0, 64, 75
1, 31893, Control_c, 0, 64, 79
1, 31908, Control_c, 0, 64, 82
1, 31923, Control_c, 0, 64, 83
1, 31937, Control_c, 0, 64, 84
1, 31952, Control_c, 0, 64, 85
1, 31967, Control_c, 0, 64, 86
1, 31982, Control_c, 0, 64, 88
1, 31996, Control_c, 0, 64, 89
1, 32011, Control_c, 0, 64, 90
1, 32026, Control_c, 0, 64, 90
1, 32041, Control_c, 0, 64, 91
1, 32071, Control_c, 0, 64, 91
1, 32086, Control_c, 0, 64, 92
1, 32107, Note_off_c, 0, 63, 29
1, 32130, Control_c, 0, 64, 92
1, 32213, Note_on_c, 0, 58, 28
1, 32217, Note_on_c, 0, 54, 26
1, 32239, Note_on_c, 0, 39, 11
1, 32256, Control_c, 0, 64, 93
1, 32259, Poly_aftertouch_c, 0, 46, 127
1, 32321, Note_off_c, 0, 39, 35
1, 32328, Poly_aftertouch_c, 0, 46, 0
1, 32357, Note_off_c, 0, 54, 34
1, 32375, Note_off_c, 0, 58, 38
1, 32375, Control_c, 0, 64, 93
1, 32434, Control_c, 0, 64, 94
1, 32478, Control_c, 0, 64, 94
1, 32507, Control_c, 0, 64, 95
1, 32509, Note_on_c, 0, 46, 27
1, 32518, Note_on_c, 0, 39, 26
1, 32519, Note_on_c, 0, 58, 38
1, 32523, Note_on_c, 0, 54, 26
1, 32537, Control_c, 0, 64, 97
1, 32560, Note_off_c, 0, 58, 47
1, 32569, Note_off_c, 0, 54, 47
1, 32575, Note_off_c, 0, 46, 49
1, 32581, Note_off_c, 0, 39, 43
1, 32611, Control_c, 0, 64, 99
1, 32711, Note_on_c, 0, 58, 28
1, 32719, Note_on_c, 0, 54, 29
1, 32728, Note_on_c, 0, 39, 34
1, 32745, Note_off_c, 0, 58, 52
1, 32749, Poly_aftertouch_c, 0, 46, 127
1, 32760, Note_off_c, 0, 54, 52
1, 32770, Note_off_c, 0, 39, 38
1, 32778, Poly_aftertouch_c, 0, 46, 0
1, 32877, Note_on_c, 0, 39, 53
1, 32879, Note_on_c, 0, 54, 48
1, 32886, Note_on_c, 0, 27, 51
1, 32890, Note_on_c, 0, 46, 49
1, 32924, Note_off_c, 0, 39, 59
1, 32924, Control_c, 0, 64, 101
1, 32930, Note_off_c, 0, 27, 51
1, 32930, Note_off_c, 0, 46, 61
1, 32931, Note_off_c, 0, 54, 59
1, 33049, Note_on_c, 0, 39, 52
1, 33049, Note_on_c, 0, 27, 57
1, 33057, Note_on_c, 0, 54, 48
1, 33059, Note_on_c, 0, 46, 35
1, 33083, Note_off_c, 0, 39, 58
1, 33099, Note_off_c, 0, 27, 58
1, 33099, Note_off_c, 0, 54, 60
1, 33101, Note_off_c, 0, 46, 54
1, 33198, Control_c, 0, 67, 19
1, 33286, Control_c, 0, 64, 98
1, 33295, Note_on_c, 0, 37, 70
1, 33296, Note_on_c, 0, 25, 67
1, 33301, Control_c, 0, 64, 96
1, 33316, Control_c, 0, 64, 93
1, 33330, Control_c, 0, 64, 90
1, 33345, Control_c, 0, 64, 86
1, 33360, Control_c, 0, 64, 80
1, 33375, Control_c, 0, 64, 74
1, 33381, Note_on_c, 0, 47, 46
1, 33381, Note_on_c, 0, 54, 34
1, 33390, Control_c, 0, 64, 68
1, 33404, Control_c, 0, 64, 65
1, 33419, Control_c, 0, 64, 64
1, 33435, Control_c, 0, 64, 65
1, 33445, Note_off_c, 0, 47, 41
1, 33465, Control_c, 0, 64, 65
1, 33465, Control_c, 0, 67, 21
1, 33480, Control_c, 0, 64, 67
1, 33490, Note_off_c, 0, 54, 47
1, 33495, Control_c, 0, 64, 71
1, 33502, Note_off_c, 0, 25, 62
1, 33509, Control_c, 0, 64, 75
1, 33524, Control_c, 0, 64, 80
1, 33531, Note_off_c, 0, 37, 62
1, 33539, Control_c, 0, 64, 85
1, 33553, Control_c, 0, 64, 86
1, 33583, Control_c, 0, 64, 87
1, 33657, Control_c, 0, 64, 87
1, 33704, Note_on_c, 0, 59, 38
1, 33716, Control_c, 0, 64, 88
1, 33731, Note_on_c, 0, 54, 15
1, 33731, Control_c, 0, 64, 88
1, 33762, Note_off_c, 0, 59, 43
1, 33768, Control_c, 0, 64, 89
1, 33779, Note_on_c, 0, 44, 25
1, 33782, Note_off_c, 0, 54, 50
1, 33797, Poly_aftertouch_c, 0, 37, 127
1, 33814, Note_off_c, 0, 44, 48
1, 33836, Poly_aftertouch_c, 0, 37, 0
1, 33901, Control_c, 0, 64, 88
1, 33908, Note_on_c, 0, 59, 42
1, 33922, Note_on_c, 0, 54, 22
1, 33925, Note_on_c, 0, 44, 37
1, 33962, Note_off_c, 0, 54, 41
1, 33968, Note_off_c, 0, 59, 42
1, 33984, Note_off_c, 0, 44, 40
1, 34036, Poly_aftertouch_c, 0, 37, 0
1, 34093, Note_on_c, 0, 61, 65
1, 34173, Note_off_c, 0, 61, 51
1, 34346, Control_c, 0, 67, 19
1, 34423, Note_on_c, 0, 59, 34
1, 34459, Note_off_c, 0, 59, 51
1, 34489, Note_on_c, 0, 63, 72
1, 34518, Poly_aftertouch_c, 0, 53, 0
1, 34531, Control_c, 0, 67, 17
1, 34535, Poly_aftertouch_c, 0, 37, 0
1, 34587, Note_off_c, 0, 63, 48
1, 34605, Note_on_c, 0, 61, 60
1, 34642, Note_off_c, 0, 61, 62
1, 34647, Note_on_c, 0, 49, 34
1, 34676, Poly_aftertouch_c, 0, 53, 127
1, 34688, Note_off_c, 0, 49, 52
1, 34697, Note_on_c, 0, 44, 3
1, 34706, Poly_aftertouch_c, 0, 53, 0
1, 34735, Note_off_c, 0, 44, 51
1, 34813, Control_c, 0, 64, 88
1, 34843, Control_c, 0, 64, 87
1, 34858, Control_c, 0, 64, 87
1, 34873, Control_c, 0, 64, 86
1, 34888, Control_c, 0, 64, 84
1, 34888, Note_on_c, 0, 65, 60
1, 34902, Control_c, 0, 64, 82
1, 34917, Control_c, 0, 64, 77
1, 34932, Control_c, 0, 64, 70
1, 34947, Control_c, 0, 64, 64
1, 34962, Control_c, 0, 64, 0
1, 34991, Control_c, 0, 64, 50
1, 35006, Control_c, 0, 64, 65
1, 35022, Control_c, 0, 64, 69
1, 35037, Control_c, 0, 64, 73
1, 35052, Control_c, 0, 64, 77
1, 35067, Control_c, 0, 64, 82
1, 35081, Control_c, 0, 64, 84
1, 35096, Control_c, 0, 64, 84
1, 35125, Control_c, 0, 64, 85
1, 35125, Control_c, 0, 67, 15
1, 35170, Control_c, 0, 64, 85
1, 35192, Note_off_c, 0, 65, 40
1, 35227, Note_on_c, 0, 58, 38
1, 35243, Note_on_c, 0, 53, 13
1, 35257, Note_on_c, 0, 49, 18
1, 35264, Note_on_c, 0, 42, 24
1, 35267, Note_off_c, 0, 58, 53
1, 35295, Note_off_c, 0, 53, 52
1, 35302, Note_off_c, 0, 49, 52
1, 35312, Note_off_c, 0, 42, 46
1, 35316, Note_on_c, 0, 61, 51
1, 35356, Note_off_c, 0, 61, 53
1, 35393, Note_on_c, 0, 58, 37
1, 35417, Note_on_c, 0, 53, 42
1, 35457, Note_off_c, 0, 58, 61
1, 35458, Control_c, 0, 64, 86
1, 35466, Note_on_c, 0, 42, 39
1, 35471, Note_off_c, 0, 53, 54
1, 35473, Control_c, 0, 64, 86
1, 35488, Control_c, 0, 64, 87
1, 35503, Control_c, 0, 64, 89
1, 35518, Control_c, 0, 64, 90
1, 35532, Control_c, 0, 64, 92
1, 35547, Control_c, 0, 64, 94
1, 35562, Control_c, 0, 64, 97
1, 35592, Control_c, 0, 64, 100
1, 35595, Note_off_c, 0, 42, 28
1, 35621, Control_c, 0, 64, 102
1, 35624, Note_on_c, 0, 58, 65
1, 35651, Control_c, 0, 64, 104
1, 35711, Control_c, 0, 64, 106
1, 35740, Control_c, 0, 64, 108
1, 35785, Control_c, 0, 67, 17
1, 35786, Note_on_c, 0, 42, 55
1, 35799, Control_c, 0, 64, 110
1, 35805, Note_on_c, 0, 30, 37
1, 35808, Note_on_c, 0, 46, 51
1, 35813, Note_on_c, 0, 49, 53
1, 35840, Note_off_c, 0, 46, 57
1, 35848, Note_off_c, 0, 42, 55
1, 35850, Note_off_c, 0, 30, 52
1, 35851, Note_off_c, 0, 49, 63
1, 35860, Control_c, 0, 64, 113
1, 35874, Control_c, 0, 64, 115
1, 35904, Control_c, 0, 64, 117
1, 35934, Control_c, 0, 64, 119
1, 35946, Note_on_c, 0, 49, 56
1, 35949, Note_on_c, 0, 46, 52
1, 35955, Note_on_c, 0, 42, 61
1, 35963, Control_c, 0, 67, 19
1, 35964, Note_on_c, 0, 30, 52
1, 36000, Control_c, 0, 67, 21
1, 36006, Note_off_c, 0, 46, 58
1, 36019, Note_off_c, 0, 49, 59
1, 36030, Note_off_c, 0, 30, 57
1, 36035, Note_off_c, 0, 42, 52
1, 36059, Control_c, 0, 67, 23
1, 36074, Control_c, 0, 64, 117
1, 36089, Control_c, 0, 64, 113
1, 36089, Control_c, 0, 67, 27
1, 36104, Control_c, 0, 64, 105
1, 36119, Control_c, 0, 64, 93
1, 36119, Control_c, 0, 67, 32
1, 36121, Note_on_c, 0, 29, 69
1, 36125, Note_on_c, 0, 41, 70
1, 36134, Control_c, 0, 64, 79
1, 36134, Control_c, 0, 67, 35
1, 36147, Note_on_c, 0, 46, 51
1, 36149, Control_c, 0, 64, 66
1, 36149, Control_c, 0, 67, 36
1, 36152, Note_on_c, 0, 49, 50
1, 36163, Control_c, 0, 64, 0
1, 36163, Control_c, 0, 67, 37
1, 36188, Note_off_c, 0, 29, 61
1, 36191, Note_off_c, 0, 46, 58
1, 36193, Control_c, 0, 64, 64
1, 36208, Control_c, 0, 64, 69
1, 36223, Control_c, 0, 64, 77
1, 36235, Note_off_c, 0, 49, 39
1, 36237, Note_off_c, 0, 41, 62
1, 36237, Control_c, 0, 64, 86
1, 36252, Control_c, 0, 64, 96
1, 36252, Control_c, 0, 67, 37
1, 36267, Control_c, 0, 64, 100
1, 36281, Control_c, 0, 67, 36
1, 36296, Control_c, 0, 67, 36
1, 36311, Control_c, 0, 67, 35
1, 36341, Control_c, 0, 64, 102
1, 36368, Note_off_c, 0, 58, 33
1, 36372, Note_on_c, 0, 56, 54
1, 36383, Note_on_c, 0, 49, 43
1, 36385, Control_c, 0, 67, 35
1, 36390, Note_on_c, 0, 41, 41
1, 36392, Note_on_c, 0, 46, 35
1, 36399, Note_off_c, 0, 56, 63
1, 36411, Note_off_c, 0, 49, 58
1, 36415, Control_c, 0, 67, 34
1, 36419, Note_off_c, 0, 41, 58
1, 36422, Note_off_c, 0, 46, 54
1, 36429, Control_c, 0, 67, 34
1, 36459, Control_c, 0, 67, 33
1, 36473, Note_on_c, 0, 56, 71
1, 36489, Control_c, 0, 67, 33
1, 36496, Note_on_c, 0, 46, 68
1, 36504, Control_c, 0, 67, 32
1, 36504, Note_on_c, 0, 49, 38
1, 36533, Control_c, 0, 67, 29
1, 36534, Note_off_c, 0, 56, 63
1, 36541, Note_off_c, 0, 46, 59
1, 36543, Note_off_c, 0, 49, 55
1, 36553, Note_on_c, 0, 41, 3
1, 36563, Control_c, 0, 67, 26
1, 36578, Control_c, 0, 67, 24
1, 36582, Note_off_c, 0, 41, 29
1, 36593, Control_c, 0, 67, 21
1, 36607, Control_c, 0, 67, 18
1, 36613, Note_on_c, 0, 61, 88
1, 36623, Control_c, 0, 67, 13
1, 36638, Control_c, 0, 67, 0
1, 36723, Note_off_c, 0, 61, 57
1, 36776, Note_on_c, 0, 41, 24
1, 36778, Control_c, 0, 64, 104
1, 36783, Note_on_c, 0, 56, 56
1, 36787, Note_on_c, 0, 58, 57
1, 36797, Note_on_c, 0, 49, 60
1, 36808, Control_c, 0, 64, 106
1, 36811, Note_off_c, 0, 56, 65
1, 36823, Note_off_c, 0, 58, 63
1, 36829, Note_off_c, 0, 49, 64
1, 36841, Note_off_c, 0, 41, 60
1, 36861, Note_on_c, 0, 65, 87
1, 36957, Control_c, 0, 64, 108
1, 36957, Note_off_c, 0, 65, 64
1, 36958, Note_on_c, 0, 41, 58
1, 36965, Note_on_c, 0, 49, 50
1, 36965, Note_on_c, 0, 56, 58
1, 36966, Note_on_c, 0, 61, 64
1, 36967, Note_on_c, 0, 58, 56
1, 36986, Note_off_c, 0, 58, 65
1, 36987, Note_off_c, 0, 56, 62
1, 36993, Note_off_c, 0, 61, 64
1, 36996, Note_off_c, 0, 41, 61
1, 37001, Control_c, 0, 64, 110
1, 37003, Note_off_c, 0, 49, 63
1, 37030, Control_c, 0, 64, 113
1, 37060, Control_c, 0, 64, 115
1, 37134, Control_c, 0, 64, 112
1, 37149, Control_c, 0, 64, 106
1, 37164, Control_c, 0, 64, 96
1, 37178, Control_c, 0, 64, 84
1, 37186, Note_on_c, 0, 68, 84
1, 37193, Control_c, 0, 64, 73
1, 37208, Control_c, 0, 64, 64
1, 37222, Control_c, 0, 64, 0
1, 37237, Control_c, 0, 64, 51
1, 37252, Control_c, 0, 64, 64
1, 37267, Control_c, 0, 64, 69
1, 37282, Control_c, 0, 64, 74
1, 37297, Control_c, 0, 64, 80
1, 37311, Control_c, 0, 64, 89
1, 37326, Control_c, 0, 64, 92
1, 37341, Control_c, 0, 64, 93
1, 37356, Control_c, 0, 64, 93
1, 37371, Control_c, 0, 64, 94
1, 37386, Note_on_c, 0, 56, 68
1, 37386, Control_c, 0, 64, 96
1, 37387, Note_on_c, 0, 58, 53
1, 37389, Note_on_c, 0, 49, 52
1, 37391, Note_on_c, 0, 46, 48
1, 37395, Note_off_c, 0, 68, 58
1, 37395, Note_on_c, 0, 61, 65
1, 37401, Control_c, 0, 64, 98
1, 37428, Note_off_c, 0, 58, 53
1, 37431, Control_c, 0, 64, 100
1, 37433, Note_off_c, 0, 56, 58
1, 37437, Note_off_c, 0, 46, 48
1, 37438, Note_off_c, 0, 49, 63
1, 37440, Note_off_c, 0, 61, 58
1, 37461, Control_c, 0, 64, 102
1, 37475, Control_c, 0, 64, 104
1, 37513, Control_c, 0, 64, 107
1, 37531, Note_on_c, 0, 56, 69
1, 37532, Note_on_c, 0, 61, 70
1, 37542, Control_c, 0, 64, 109
1, 37550, Note_on_c, 0, 49, 55
1, 37551, Note_on_c, 0, 46, 42
1, 37557, Control_c, 0, 64, 111
1, 37560, Note_off_c, 0, 56, 66
1, 37574, Note_off_c, 0, 61, 60
1, 37580, Note_off_c, 0, 46, 59
1, 37584, Note_off_c, 0, 49, 63
1, 37587, Control_c, 0, 64, 113
1, 37631, Control_c, 0, 67, 8
1, 37642, Note_on_c, 0, 56, 57
1, 37644, Note_on_c, 0, 61, 67
1, 37645, Control_c, 0, 67, 10
1, 37657, Note_on_c, 0, 49, 40
1, 37660, Control_c, 0, 67, 12
1, 37675, Control_c, 0, 64, 110
1, 37675, Control_c, 0, 67, 15
1, 37678, Note_off_c, 0, 61, 64
1, 37683, Note_off_c, 0, 56, 66
1, 37690, Control_c, 0, 64, 106
1, 37690, Control_c, 0, 67, 18
1, 37692, Note_off_c, 0, 49, 52
1, 37705, Control_c, 0, 64, 99
1, 37705, Control_c, 0, 67, 20
1, 37720, Control_c, 0, 64, 94
1, 37735, Control_c, 0, 64, 93
1, 37736, Poly_aftertouch_c, 0, 46, 0
1, 37750, Control_c, 0, 64, 92
1, 37777, Note_on_c, 0, 56, 71
1, 37783, Note_on_c, 0, 28, 66
1, 37792, Note_on_c, 0, 49, 44
1, 37809, Control_c, 0, 64, 93
1, 37809, Note_on_c, 0, 40, 29
1, 37812, Note_off_c, 0, 28, 57
1, 37818, Note_off_c, 0, 49, 57
1, 37824, Control_c, 0, 64, 94
1, 37827, Note_off_c, 0, 56, 61
1, 37839, Control_c, 0, 64, 96
1, 37847, Note_off_c, 0, 40, 41
1, 37883, Control_c, 0, 64, 99
1, 37898, Control_c, 0, 64, 101
1, 37905, Note_on_c, 0, 28, 69
1, 37911, Note_on_c, 0, 49, 66
1, 37912, Note_on_c, 0, 56, 74
1, 37913, Control_c, 0, 64, 105
1, 37913, Control_c, 0, 67, 18
1, 37925, Note_on_c, 0, 40, 64
1, 37927, Control_c, 0, 64, 110
1, 37940, Note_off_c, 0, 28, 62
1, 37942, Control_c, 0, 64, 120
1, 37945, Note_off_c, 0, 49, 64
1, 37948, Note_off_c, 0, 56, 66
1, 37951, Note_off_c, 0, 40, 62
1, 37957, Control_c, 0, 64, 127
1, 37957, Control_c, 0, 67, 16
1, 38031, Control_c, 0, 67, 14
1, 38120, Note_on_c, 0, 67, 94
1, 38149, Control_c, 0, 64, 105
1, 38149, Control_c, 0, 67, 12
1, 38164, Control_c, 0, 64, 90
1, 38179, Control_c, 0, 64, 79
1, 38194, Control_c, 0, 64, 77
1, 38209, Control_c, 0, 64, 80
1, 38224, Control_c, 0, 64, 87
1, 38239, Control_c, 0, 64, 96
1, 38262, Control_c, 0, 64, 106
1, 38276, Control_c, 0, 64, 117
1, 38291, Control_c, 0, 64, 127
1, 38313, Note_on_c, 0, 49, 47
1, 38322, Note_on_c, 0, 59, 65
1, 38325, Note_on_c, 0, 55, 74
1, 38329, Note_on_c, 0, 47, 36
1, 38331, Note_on_c, 0, 61, 69
1, 38352, Note_off_c, 0, 55, 64
1, 38361, Note_off_c, 0, 59, 52
1, 38361, Note_off_c, 0, 47, 55
1, 38361, Note_off_c, 0, 61, 64
1, 38367, Note_off_c, 0, 49, 60
1, 38367, Note_off_c, 0, 67, 61
1, 38431, Note_on_c, 0, 55, 68
1, 38431, Note_on_c, 0, 61, 80
1, 38452, Note_on_c, 0, 63, 32
1, 38470, Note_on_c, 0, 47, 38
1, 38471, Note_off_c, 0, 55, 62
1, 38478, Note_on_c, 0, 49, 50
1, 38480, Note_on_c, 0, 45, 47
1, 38489, Note_off_c, 0, 63, 47
1, 38492, Note_off_c, 0, 61, 60
1, 38503, Note_off_c, 0, 49, 63
1, 38504, Note_off_c, 0, 47, 48
1, 38510, Note_off_c, 0, 45, 55
1, 38549, Note_on_c, 0, 61, 81
1, 38557, Note_on_c, 0, 55, 86
1, 38566, Note_on_c, 0, 47, 59
1, 38576, Note_on_c, 0, 49, 60
1, 38588, Note_on_c, 0, 63, 22
1, 38590, Note_off_c, 0, 55, 64
1, 38594, Note_off_c, 0, 47, 58
1, 38597, Note_off_c, 0, 61, 60
1, 38603, Note_off_c, 0, 49, 65
1, 38622, Note_off_c, 0, 63, 56
1, 38647, Control_c, 0, 67, 14
1, 38701, Note_on_c, 0, 55, 83
1, 38703, Note_on_c, 0, 49, 73
1, 38727, Note_on_c, 0, 39, 75
1, 38730, Note_off_c, 0, 49, 65
1, 38731, Note_on_c, 0, 27, 68
1, 38742, Note_off_c, 0, 55, 64
1, 38769, Note_off_c, 0, 39, 60
1, 38781, Note_off_c, 0, 27, 57
1, 38868, Control_c, 0, 67, 12
1, 38885, Note_on_c, 0, 27, 69
1, 38891, Note_on_c, 0, 39, 71
1, 38936, Note_off_c, 0, 27, 58
1, 38941, Note_off_c, 0, 39, 60
1, 38942, Control_c, 0, 67, 10
1, 39011, Note_on_c, 0, 71, 94
1, 39193, Note_off_c, 0, 71, 62
1, 39303, Note_on_c, 0, 59, 37
1, 39410, Control_c, 0, 64, 113
1, 39419, Note_off_c, 0, 59, 38
1, 39424, Control_c, 0, 64, 99
1, 39425, Note_on_c, 0, 66, 84
1, 39439, Control_c, 0, 64, 86
1, 39454, Control_c, 0, 64, 75
1, 39469, Control_c, 0, 64, 66
1, 39484, Control_c, 0, 64, 63
1, 39484, Control_c, 0, 67, 8
1, 39498, Control_c, 0, 64, 65
1, 39513, Control_c, 0, 64, 68
1, 39528, Control_c, 0, 64, 75
1, 39543, Control_c, 0, 64, 83
1, 39558, Control_c, 0, 64, 92
1, 39572, Control_c, 0, 64, 99
1, 39587, Control_c, 0, 64, 101
1, 39587, Control_c, 0, 67, 0
1, 39610, Note_on_c, 0, 54, 76
1, 39613, Note_on_c, 0, 44, 63
1, 39616, Control_c, 0, 64, 106
1, 39627, Note_on_c, 0, 59, 70
1, 39631, Control_c, 0, 64, 113
1, 39632, Note_on_c, 0, 56, 52
1, 39636, Note_on_c, 0, 47, 60
1, 39644, Note_off_c, 0, 66, 52
1, 39646, Control_c, 0, 64, 123
1, 39656, Note_off_c, 0, 56, 62
1, 39661, Control_c, 0, 64, 127
1, 39669, Note_off_c, 0, 54, 61
1, 39681, Note_off_c, 0, 44, 57
1, 39682, Note_off_c, 0, 59, 58
1, 39690, Note_off_c, 0, 47, 56
1, 39743, Control_c, 0, 67, 8
1, 39762, Note_on_c, 0, 59, 70
1, 39767, Note_on_c, 0, 54, 70
1, 39778, Note_on_c, 0, 47, 54
1, 39779, Note_on_c, 0, 44, 53
1, 39802, Control_c, 0, 67, 10
1, 39804, Note_off_c, 0, 54, 59
1, 39819, Note_off_c, 0, 59, 60
1, 39841, Note_off_c, 0, 47, 59
1, 39850, Note_off_c, 0, 44, 55
1, 39862, Control_c, 0, 67, 12
1, 39879, Note_on_c, 0, 59, 74
1, 39881, Note_on_c, 0, 54, 82
1, 39895, Note_on_c, 0, 47, 31
1, 39917, Note_off_c, 0, 59, 63
1, 39921, Control_c, 0, 67, 14
1, 39922, Note_off_c, 0, 47, 58
1, 39932, Note_off_c, 0, 54, 59
1, 40018, Note_on_c, 0, 47, 82
1, 40025, Note_on_c, 0, 54, 85
1, 40030, Note_on_c, 0, 38, 62
1, 40033, Note_on_c, 0, 26, 55
1, 40056, Note_off_c, 0, 38, 56
1, 40066, Note_off_c, 0, 26, 51
1, 40066, Note_off_c, 0, 47, 62
1, 40084, Note_off_c, 0, 54, 60
1, 40099, Control_c, 0, 67, 12
1, 40169, Note_on_c, 0, 38, 75
1, 40172, Note_on_c, 0, 26, 67
1, 40177, Note_on_c, 0, 54, 95
1, 40179, Note_on_c, 0, 47, 85
1, 40202, Note_off_c, 0, 47, 65
1, 40203, Control_c, 0, 67, 10
1, 40207, Note_off_c, 0, 26, 62
1, 40210, Note_off_c, 0, 38, 60
1, 40221, Note_off_c, 0, 54, 63
1, 40247, Control_c, 0, 67, 0
1, 40439, Control_c, 0, 64, 117
1, 40451, Note_on_c, 0, 68, 95
1, 40454, Note_on_c, 0, 65, 93
1, 40454, Control_c, 0, 64, 98
1, 40469, Control_c, 0, 64, 85
1, 40484, Control_c, 0, 64, 74
1, 40485, Note_on_c, 0, 67, 55
1, 40507, Control_c, 0, 64, 69
1, 40521, Control_c, 0, 64, 70
1, 40536, Control_c, 0, 64, 75
1, 40544, Note_off_c, 0, 67, 59
1, 40551, Control_c, 0, 64, 83
1, 40563, Note_off_c, 0, 68, 62
1, 40566, Control_c, 0, 64, 92
1, 40580, Control_c, 0, 64, 100
1, 40595, Note_off_c, 0, 65, 53
1, 40595, Control_c, 0, 64, 103
1, 40602, Note_on_c, 0, 70, 74
1, 40664, Note_off_c, 0, 70, 60
1, 40686, Note_on_c, 0, 47, 43
1, 40687, Note_on_c, 0, 68, 65
1, 40690, Note_on_c, 0, 65, 67
1, 40710, Note_on_c, 0, 59, 66
1, 40713, Note_on_c, 0, 56, 61
1, 40716, Note_off_c, 0, 68, 64
1, 40718, Note_off_c, 0, 65, 67
1, 40721, Note_on_c, 0, 53, 57
1, 40739, Note_on_c, 0, 70, 73
1, 40748, Note_off_c, 0, 59, 57
1, 40765, Note_off_c, 0, 56, 53
1, 40769, Note_off_c, 0, 47, 60
1, 40769, Note_off_c, 0, 53, 61
1, 40771, Note_off_c, 0, 70, 66
1, 40784, Note_on_c, 0, 68, 64
1, 40794, Note_on_c, 0, 65, 59
1, 40819, Note_off_c, 0, 68, 60
1, 40844, Note_on_c, 0, 70, 78
1, 40847, Note_off_c, 0, 65, 61
1, 40847, Control_c, 0, 64, 101
1, 40882, Note_off_c, 0, 70, 63
1, 40894, Note_on_c, 0, 56, 53
1, 40895, Note_on_c, 0, 47, 55
1, 40895, Note_on_c, 0, 53, 52
1, 40900, Note_on_c, 0, 68, 77
1, 40906, Note_on_c, 0, 65, 45
1, 40922, Note_off_c, 0, 47, 60
1, 40926, Note_off_c, 0, 68, 66
1, 40935, Note_off_c, 0, 53, 59
1, 40936, Note_off_c, 0, 56, 63
1, 40939, Note_off_c, 0, 65, 46
1, 40959, Note_on_c, 0, 70, 66
1, 40984, Note_on_c, 0, 65, 72
1, 40984, Note_on_c, 0, 68, 84
1, 41008, Note_off_c, 0, 70, 67
1, 41011, Note_on_c, 0, 47, 66
1, 41013, Note_on_c, 0, 56, 76
1, 41015, Note_on_c, 0, 53, 73
1, 41029, Note_off_c, 0, 65, 66
1, 41041, Note_off_c, 0, 56, 70
1, 41044, Note_off_c, 0, 68, 67
1, 41049, Note_off_c, 0, 53, 66
1, 41050, Note_off_c, 0, 47, 63
1, 41269, Control_c, 0, 64, 99
1, 41299, Control_c, 0, 64, 96
1, 41302, Note_on_c, 0, 63, 87
1, 41303, Note_on_c, 0, 66, 95
1, 41329, Control_c, 0, 64, 96
1, 41351, Note_on_c, 0, 37, 78
1, 41352, Note_off_c, 0, 63, 64
1, 41356, Note_on_c, 0, 25, 74
1, 41358, Control_c, 0, 64, 95
1, 41377, Note_off_c, 0, 66, 64
1, 41380, Note_off_c, 0, 37, 65
1, 41388, Note_off_c, 0, 25, 57
1, 41402, Control_c, 0, 64, 96
1, 41478, Control_c, 0, 64, 98
1, 41533, Note_on_c, 0, 37, 70
1, 41533, Note_on_c, 0, 68, 99
1, 41537, Note_on_c, 0, 65, 92
1, 41541, Note_on_c, 0, 25, 80
1, 41566, Control_c, 0, 64, 100
1, 41574, Note_off_c, 0, 25, 66
1, 41584, Note_off_c, 0, 37, 61
1, 41591, Note_off_c, 0, 65, 57
1, 41596, Control_c, 0, 64, 103
1, 41610, Control_c, 0, 64, 105
1, 41625, Control_c, 0, 64, 108
1, 41640, Control_c, 0, 64, 113
1, 41655, Control_c, 0, 64, 119
1, 41670, Control_c, 0, 64, 127
1, 41687, Note_off_c, 0, 68, 62
1, 41744, Control_c, 0, 64, 111
1, 41750, Note_on_c, 0, 66, 95
1, 41750, Note_on_c, 0, 70, 96
1, 41759, Control_c, 0, 64, 87
1, 41774, Control_c, 0, 64, 66
1, 41789, Control_c, 0, 64, 0
1, 41789, Control_c, 0, 67, 8
1, 41848, Control_c, 0, 64, 69
1, 41848, Control_c, 0, 67, 10
1, 41863, Control_c, 0, 64, 83
1, 41878, Control_c, 0, 64, 103
1, 41892, Control_c, 0, 64, 127
1, 41913, Note_off_c, 0, 66, 63
1, 41917, Note_off_c, 0, 70, 61
1, 42039, Note_on_c, 0, 61, 81
1, 42041, Note_on_c, 0, 58, 81
1, 42054, Note_on_c, 0, 54, 61
1, 42061, Note_on_c, 0, 42, 54
1, 42071, Note_on_c, 0, 49, 55
1, 42094, Note_off_c, 0, 58, 59
1, 42096, Note_off_c, 0, 54, 59
1, 42100, Note_off_c, 0, 49, 65
1, 42111, Note_off_c, 0, 42, 57
1, 42119, Note_off_c, 0, 61, 58
1, 42222, Note_on_c, 0, 61, 86
1, 42224, Note_on_c, 0, 58, 78
1, 42236, Note_on_c, 0, 49, 55
1, 42237, Note_on_c, 0, 42, 63
1, 42237, Note_on_c, 0, 54, 60
1, 42267, Note_off_c, 0, 54, 64
1, 42279, Note_off_c, 0, 58, 60
1, 42287, Note_off_c, 0, 49, 63
1, 42290, Note_off_c, 0, 42, 59
1, 42303, Note_off_c, 0, 61, 58
1, 42367, Note_on_c, 0, 54, 61
1, 42370, Note_on_c, 0, 61, 76
1, 42373, Note_on_c, 0, 58, 75
1, 42385, Note_on_c, 0, 49, 57
1, 42388, Note_on_c, 0, 42, 55
1, 42403, Note_off_c, 0, 54, 62
1, 42421, Note_off_c, 0, 58, 59
1, 42427, Note_off_c, 0, 49, 62
1, 42441, Note_off_c, 0, 61, 60
1, 42442, Note_off_c, 0, 42, 57
1, 42510, Note_on_c, 0, 54, 64
1, 42510, Note_on_c, 0, 62, 66
1, 42518, Note_on_c, 0, 58, 70
1, 42526, Note_on_c, 0, 30, 80
1, 42534, Note_on_c, 0, 42, 79
1, 42549, Note_on_c, 0, 59, 34
1, 42563, Note_off_c, 0, 30, 62
1, 42564, Note_off_c, 0, 62, 59
1, 42565, Note_off_c, 0, 58, 59
1, 42568, Note_off_c, 0, 42, 60
1, 42568, Note_off_c, 0, 54, 62
1, 42582, Note_off_c, 0, 59, 52
1, 42635, Note_on_c, 0, 54, 74
1, 42635, Note_on_c, 0, 58, 61
1, 42638, Note_on_c, 0, 30, 70
1, 42638, Note_on_c, 0, 42, 82
1, 42638, Note_on_c, 0, 62, 71
1, 42640, Note_on_c, 0, 59, 72
1, 42684, Note_off_c, 0, 42, 59
1, 42693, Note_off_c, 0, 58, 47
1, 42695, Note_off_c, 0, 30, 62
1, 42695, Note_off_c, 0, 54, 58
1, 42697, Note_off_c, 0, 59, 53
1, 42704, Note_off_c, 0, 62, 58
1, 42753, Control_c, 0, 64, 124
1, 42764, Note_on_c, 0, 44, 86
1, 42767, Control_c, 0, 64, 86
1, 42768, Note_on_c, 0, 54, 76
1, 42770, Note_on_c, 0, 32, 80
1, 42770, Note_on_c, 0, 59, 67
1, 42773, Note_on_c, 0, 62, 74
1, 42780, Note_on_c, 0, 58, 69
1, 42782, Control_c, 0, 64, 64
1, 42797, Control_c, 0, 64, 0
1, 42808, Note_off_c, 0, 58, 65
1, 42832, Note_off_c, 0, 59, 60
1, 42835, Note_on_c, 0, 61, 28
1, 42835, Note_off_c, 0, 32, 63
1, 42837, Note_off_c, 0, 62, 62
1, 42839, Note_off_c, 0, 44, 61
1, 42841, Control_c, 0, 64, 69
1, 42844, Note_off_c, 0, 54, 60
1, 42856, Control_c, 0, 64, 82
1, 42867, Note_off_c, 0, 61, 45
1, 42871, Control_c, 0, 64, 98
1, 42886, Control_c, 0, 64, 118
1, 42901, Control_c, 0, 64, 127
1, 42922, Note_on_c, 0, 63, 87
1, 42930, Note_on_c, 0, 54, 84
1, 42935, Note_on_c, 0, 44, 76
1, 42939, Note_on_c, 0, 60, 57
1, 42940, Note_on_c, 0, 51, 71
1, 42945, Control_c, 0, 67, 8
1, 42960, Control_c, 0, 67, 0
1, 42978, Note_off_c, 0, 44, 61
1, 42978, Note_off_c, 0, 51, 61
1, 42986, Note_off_c, 0, 54, 59
1, 42996, Note_off_c, 0, 63, 60
1, 42999, Note_off_c, 0, 60, 57
1, 43062, Note_on_c, 0, 63, 93
1, 43063, Note_on_c, 0, 51, 80
1, 43070, Note_on_c, 0, 44, 62
1, 43072, Note_on_c, 0, 54, 74
1, 43076, Note_on_c, 0, 58, 70
1, 43086, Note_on_c, 0, 60, 46
1, 43097, Note_off_c, 0, 54, 65
1, 43103, Note_off_c, 0, 44, 64
1, 43105, Note_off_c, 0, 51, 57
1, 43106, Note_off_c, 0, 58, 63
1, 43115, Note_off_c, 0, 60, 54
1, 43124, Note_off_c, 0, 63, 60
1, 43243, Poly_aftertouch_c, 0, 54, 0
1, 43245, Note_on_c, 0, 68, 93
1, 43251, Note_on_c, 0, 65, 87
1, 43336, Note_off_c, 0, 65, 62
1, 43360, Note_on_c, 0, 58, 29
1, 43363, Note_on_c, 0, 63, 53
1, 43374, Note_on_c, 0, 54, 25
1, 43407, Note_off_c, 0, 54, 51
1, 43408, Note_off_c, 0, 58, 44
1, 43410, Note_off_c, 0, 63, 58
1, 43464, Note_on_c, 0, 60, 93
1, 43534, Note_off_c, 0, 68, 27
1, 43547, Note_off_c, 0, 60, 61
1, 43599, Note_on_c, 0, 70, 95
1, 43601, Note_on_c, 0, 66, 92
1, 43631, Note_on_c, 0, 54, 80
1, 43633, Note_on_c, 0, 58, 75
1, 43635, Note_on_c, 0, 64, 71
1, 43644, Note_on_c, 0, 63, 54
1, 43664, Note_off_c, 0, 64, 65
1, 43665, Note_off_c, 0, 63, 63
1, 43686, Note_off_c, 0, 54, 48
1, 43693, Note_off_c, 0, 58, 60
1, 43732, Note_off_c, 0, 70, 55
1, 43739, Note_off_c, 0, 66, 61
1, 43769, Note_on_c, 0, 60, 101
1, 43789, Note_on_c, 0, 64, 64
1, 43801, Note_on_c, 0, 58, 70
1, 43802, Note_on_c, 0, 54, 66
1, 43809, Note_off_c, 0, 64, 65
1, 43819, Note_off_c, 0, 54, 64
1, 43828, Note_off_c, 0, 58, 64
1, 44108, Note_on_c, 0, 37, 96
1, 44109, Note_on_c, 0, 25, 90
1, 44161, Note_off_c, 0, 60, 53
1, 44177, Note_on_c, 0, 68, 84
1, 44177, Note_on_c, 0, 72, 96
1, 44179, Note_on_c, 0, 65, 83
1, 44199, Control_c, 0, 64, 98
1, 44213, Control_c, 0, 64, 77
1, 44228, Control_c, 0, 64, 0
1, 44310, Control_c, 0, 64, 63
1, 44311, Note_off_c, 0, 25, 63
1, 44325, Control_c, 0, 64, 73
1, 44339, Note_off_c, 0, 37, 63
1, 44339, Control_c, 0, 64, 82
1, 44354, Control_c, 0, 64, 93
1, 44369, Control_c, 0, 64, 105
1, 44384, Control_c, 0, 64, 116
1, 44399, Control_c, 0, 64, 127
1, 44482, Note_off_c, 0, 72, 47
1, 44556, Note_off_c, 0, 65, 55
1, 44568, Note_off_c, 0, 68, 60
1, 44595, Note_on_c, 0, 60, 81
1, 44647, Note_off_c, 0, 60, 59
1, 44680, Note_on_c, 0, 65, 82
1, 44680, Note_on_c, 0, 68, 89
1, 44698, Poly_aftertouch_c, 0, 56, 127
1, 44725, Note_off_c, 0, 65, 65
1, 44737, Poly_aftertouch_c, 0, 56, 0
1, 44764, Note_off_c, 0, 68, 62
1, 44797, Note_on_c, 0, 60, 78
1, 44841, Note_on_c, 0, 56, 46
1, 44846, Note_off_c, 0, 60, 60
1, 44861, Note_on_c, 0, 44, 38
1, 44861, Note_off_c, 0, 56, 64
1, 44913, Note_off_c, 0, 44, 54
1, 44975, Note_on_c, 0, 65, 86
1, 45175, Note_on_c, 0, 53, 65
1, 45176, Note_on_c, 0, 61, 66
1, 45178, Note_on_c, 0, 56, 63
1, 45178, Note_off_c, 0, 65, 60
1, 45208, Note_on_c, 0, 44, 52
1, 45208, Note_off_c, 0, 53, 62
1, 45214, Note_on_c, 0, 37, 46
1, 45220, Note_off_c, 0, 56, 61
1, 45228, Note_off_c, 0, 61, 56
1, 45241, Note_off_c, 0, 37, 57
1, 45249, Note_off_c, 0, 44, 62
1, 45290, Note_on_c, 0, 53, 60
1, 45296, Note_on_c, 0, 56, 64
1, 45300, Note_on_c, 0, 61, 71
1, 45324, Note_on_c, 0, 37, 67
1, 45325, Note_on_c, 0, 44, 62
1, 45336, Note_off_c, 0, 53, 62
1, 45339, Note_off_c, 0, 56, 62
1, 45363, Note_off_c, 0, 44, 62
1, 45364, Note_off_c, 0, 37, 60
1, 45365, Note_off_c, 0, 61, 60
1, 45415, Control_c, 0, 64, 100
1, 45420, Note_on_c, 0, 53, 77
1, 45422, Note_on_c, 0, 56, 67
1, 45422, Note_on_c, 0, 61, 68
1, 45430, Note_on_c, 0, 44, 76
1, 45430, Control_c, 0, 64, 77
1, 45433, Note_on_c, 0, 36, 74
1, 45445, Control_c, 0, 64, 44
1, 45459, Control_c, 0, 64, 0
1, 45489, Control_c, 0, 64, 70
1, 45491, Note_off_c, 0, 53, 58
1, 45492, Note_off_c, 0, 44, 63
1, 45493, Note_off_c, 0, 36, 61
1, 45504, Control_c, 0, 64, 83
1, 45518, Note_off_c, 0, 56, 63
1, 45519, Control_c, 0, 64, 100
1, 45529, Note_off_c, 0, 61, 60
1, 45533, Control_c, 0, 64, 127
1, 45578, Note_on_c, 0, 63, 84
1, 45583, Note_on_c, 0, 56, 64
1, 45588, Note_on_c, 0, 53, 67
1, 45595, Note_on_c, 0, 44, 65
1, 45598, Note_on_c, 0, 51, 53
1, 45602, Note_off_c, 0, 56, 68
1, 45606, Note_off_c, 0, 53, 69
1, 45616, Note_off_c, 0, 44, 62
1, 45625, Note_off_c, 0, 51, 58
1, 45631, Note_off_c, 0, 63, 61
1, 45688, Note_on_c, 0, 56, 64
1, 45690, Note_on_c, 0, 44, 67
1, 45692, Note_on_c, 0, 63, 88
1, 45693, Note_on_c, 0, 53, 59
1, 45704, Note_on_c, 0, 51, 69
1, 45722, Note_off_c, 0, 53, 64
1, 45724, Note_off_c, 0, 56, 66
1, 45728, Note_off_c, 0, 44, 60
1, 45751, Note_off_c, 0, 51, 59
1, 45756, Note_off_c, 0, 63, 63
1, 45852, Control_c, 0, 64, 113
1, 45861, Note_on_c, 0, 68, 96
1, 45867, Control_c, 0, 64, 97
1, 45868, Note_on_c, 0, 65, 84
1, 45882, Control_c, 0, 64, 86
1, 45896, Control_c, 0, 64, 80
1, 45911, Control_c, 0, 64, 82
1, 45926, Control_c, 0, 64, 90
1, 45941, Control_c, 0, 64, 102
1, 45956, Control_c, 0, 64, 127
1, 45983, Note_off_c, 0, 65, 53
1, 46005, Note_off_c, 0, 68, 60
1, 46032, Note_on_c, 0, 53, 55
1, 46040, Note_on_c, 0, 60, 87
1, 46040, Note_on_c, 0, 63, 74
1, 46049, Note_on_c, 0, 56, 47
1, 46098, Note_off_c, 0, 60, 59
1, 46107, Note_off_c, 0, 53, 60
1, 46114, Note_off_c, 0, 63, 57
1, 46147, Note_on_c, 0, 72, 91
1, 46150, Note_off_c, 0, 56, 55
1, 46156, Note_on_c, 0, 68, 74
1, 46165, Note_on_c, 0, 65, 59
1, 46178, Control_c, 0, 67, 9
1, 46186, Note_off_c, 0, 65, 63
1, 46192, Control_c, 0, 64, 120
1, 46192, Control_c, 0, 67, 11
1, 46208, Control_c, 0, 64, 103
1, 46223, Control_c, 0, 64, 95
1, 46223, Control_c, 0, 67, 13
1, 46238, Control_c, 0, 64, 90
1, 46248, Note_off_c, 0, 68, 59
1, 46253, Control_c, 0, 64, 86
1, 46253, Control_c, 0, 67, 15
1, 46268, Control_c, 0, 64, 85
1, 46279, Note_on_c, 0, 53, 49
1, 46282, Control_c, 0, 64, 86
1, 46282, Control_c, 0, 67, 17
1, 46295, Note_on_c, 0, 60, 63
1, 46297, Control_c, 0, 64, 87
1, 46310, Note_on_c, 0, 56, 41
1, 46312, Control_c, 0, 64, 89
1, 46312, Control_c, 0, 67, 19
1, 46324, Note_off_c, 0, 60, 54
1, 46327, Note_off_c, 0, 53, 61
1, 46327, Control_c, 0, 64, 91
1, 46334, Note_off_c, 0, 72, 55
1, 46342, Control_c, 0, 64, 92
1, 46343, Note_off_c, 0, 56, 46
1, 46356, Control_c, 0, 64, 93
1, 46371, Control_c, 0, 64, 93
1, 46371, Control_c, 0, 67, 21
1, 46386, Control_c, 0, 64, 94
1, 46401, Control_c, 0, 64, 95
1, 46415, Control_c, 0, 64, 95
1, 46430, Control_c, 0, 64, 96
1, 46541, Control_c, 0, 67, 19
1, 46586, Control_c, 0, 64, 95
1, 46586, Control_c, 0, 67, 17
1, 46601, Control_c, 0, 64, 95
1, 46615, Control_c, 0, 64, 94
1, 46630, Control_c, 0, 64, 93
1, 46645, Control_c, 0, 64, 91
1, 46660, Control_c, 0, 64, 87
1, 46675, Control_c, 0, 64, 82
1, 46686, Note_on_c, 0, 35, 48
1, 46689, Note_on_c, 0, 75, 68
1, 46689, Control_c, 0, 64, 73
1, 46695, Note_on_c, 0, 23, 46
1, 46704, Control_c, 0, 64, 64
1, 46706, Note_on_c, 0, 68, 48
1, 46710, Note_on_c, 0, 63, 48
1, 46719, Control_c, 0, 64, 0
1, 46725, Note_on_c, 0, 65, 39
1, 46794, Control_c, 0, 64, 56
1, 46796, Note_off_c, 0, 23, 60
1, 46808, Control_c, 0, 64, 70
1, 46823, Control_c, 0, 64, 78
1, 46829, Note_off_c, 0, 75, 61
1, 46835, Note_off_c, 0, 35, 62
1, 46838, Control_c, 0, 64, 85
1, 46849, Note_off_c, 0, 68, 60
1, 46853, Control_c, 0, 64, 90
1, 46866, Note_off_c, 0, 65, 34
1, 46868, Control_c, 0, 64, 92
1, 46882, Control_c, 0, 64, 94
1, 46886, Note_off_c, 0, 63, 50
1, 46897, Control_c, 0, 64, 94
1, 46912, Control_c, 0, 64, 95
1, 47017, Control_c, 0, 67, 15
1, 47056, Note_on_c, 0, 65, 34
1, 47066, Note_on_c, 0, 53, 36
1, 47069, Note_on_c, 0, 41, 43
1, 47097, Note_off_c, 0, 65, 48
1, 47120, Note_off_c, 0, 41, 47
1, 47166, Note_off_c, 0, 53, 34
1, 47217, Note_on_c, 0, 63, 27
1, 47223, Note_on_c, 0, 59, 17
1, 47224, Control_c, 0, 64, 95
1, 47254, Note_on_c, 0, 47, 21
1, 47261, Note_off_c, 0, 63, 49
1, 47261, Control_c, 0, 64, 96
1, 47262, Note_on_c, 0, 51, 18
1, 47273, Note_off_c, 0, 59, 43
1, 47294, Note_on_c, 0, 66, 64
1, 47296, Note_off_c, 0, 47, 41
1, 47306, Control_c, 0, 64, 98
1, 47306, Note_off_c, 0, 51, 40
1, 47331, Note_on_c, 0, 42, 57
1, 47335, Control_c, 0, 64, 101
1, 47338, Note_off_c, 0, 66, 61
1, 47344, Note_on_c, 0, 54, 31
1, 47350, Control_c, 0, 64, 103
1, 47364, Control_c, 0, 64, 106
1, 47376, Note_off_c, 0, 54, 45
1, 47379, Control_c, 0, 64, 109
1, 47389, Note_on_c, 0, 63, 48
1, 47394, Control_c, 0, 64, 112
1, 47394, Control_c, 0, 67, 13
1, 47395, Note_off_c, 0, 42, 46
1, 47396, Note_on_c, 0, 59, 42
1, 47409, Note_on_c, 0, 47, 51
1, 47409, Control_c, 0, 64, 115
1, 47411, Note_on_c, 0, 51, 51
1, 47420, Note_off_c, 0, 63, 59
1, 47424, Control_c, 0, 64, 118
1, 47432, Note_off_c, 0, 59, 52
1, 47438, Control_c, 0, 64, 127
1, 47438, Control_c, 0, 67, 11
1, 47453, Note_off_c, 0, 47, 56
1, 47467, Note_on_c, 0, 67, 70
1, 47467, Note_off_c, 0, 51, 55
1, 47498, Control_c, 0, 67, 9
1, 47506, Note_on_c, 0, 55, 45
1, 47512, Note_off_c, 0, 67, 61
1, 47515, Note_on_c, 0, 43, 45
1, 47536, Note_off_c, 0, 55, 56
1, 47545, Note_on_c, 0, 63, 60
1, 47547, Note_off_c, 0, 43, 51
1, 47560, Note_on_c, 0, 59, 36
1, 47575, Note_off_c, 0, 63, 64
1, 47593, Note_on_c, 0, 51, 32
1, 47594, Note_off_c, 0, 59, 53
1, 47603, Poly_aftertouch_c, 0, 47, 127
1, 47625, Note_off_c, 0, 51, 48
1, 47643, Poly_aftertouch_c, 0, 47, 0
1, 47646, Control_c, 0, 64, 106
1, 47661, Control_c, 0, 64, 87
1, 47674, Note_on_c, 0, 74, 81
1, 47676, Control_c, 0, 64, 73
1, 47688, Note_on_c, 0, 68, 67
1, 47690, Control_c, 0, 64, 65
1, 47705, Control_c, 0, 64, 66
1, 47708, Note_on_c, 0, 56, 46
1, 47720, Control_c, 0, 64, 70
1, 47735, Control_c, 0, 64, 78
1, 47750, Control_c, 0, 64, 92
1, 47756, Poly_aftertouch_c, 0, 44, 127
1, 47757, Note_off_c, 0, 56, 64
1, 47764, Control_c, 0, 64, 113
1, 47778, Note_off_c, 0, 68, 41
1, 47779, Control_c, 0, 64, 127
1, 47790, Poly_aftertouch_c, 0, 44, 0
1, 47793, Note_off_c, 0, 74, 55
1, 47837, Note_on_c, 0, 54, 48
1, 47844, Note_on_c, 0, 50, 46
1, 47845, Note_on_c, 0, 62, 58
1, 47845, Note_on_c, 0, 66, 40
1, 47872, Note_off_c, 0, 66, 54
1, 47873, Note_off_c, 0, 50, 62
1, 47876, Note_off_c, 0, 54, 60
1, 47879, Note_off_c, 0, 62, 64
1, 47918, Note_on_c, 0, 69, 77
1, 47938, Note_on_c, 0, 45, 49
1, 47968, Poly_aftertouch_c, 0, 57, 127
1, 47971, Note_off_c, 0, 69, 58
1, 47980, Control_c, 0, 67, 12
1, 47994, Note_on_c, 0, 66, 65
1, 47995, Control_c, 0, 67, 14
1, 48001, Note_off_c, 0, 45, 63
1, 48009, Note_on_c, 0, 62, 58
1, 48010, Control_c, 0, 67, 16
1, 48013, Poly_aftertouch_c, 0, 57, 0
1, 48025, Control_c, 0, 67, 18
1, 48028, Note_off_c, 0, 66, 65
1, 48028, Poly_aftertouch_c, 0, 50, 127
1, 48031, Note_off_c, 0, 62, 65
1, 48040, Control_c, 0, 67, 20
1, 48055, Poly_aftertouch_c, 0, 50, 0
1, 48105, Note_on_c, 0, 58, 91
1, 48108, Note_on_c, 0, 70, 82
1, 48115, Note_on_c, 0, 40, 54
1, 48122, Note_on_c, 0, 29, 27
1, 48142, Note_off_c, 0, 58, 58
1, 48152, Note_off_c, 0, 40, 63
1, 48160, Note_off_c, 0, 70, 60
1, 48168, Note_off_c, 0, 29, 40
1, 48181, Poly_aftertouch_c, 0, 62, 0
1, 48187, Control_c, 0, 67, 17
1, 48200, Note_on_c, 0, 62, 43
1, 48204, Note_on_c, 0, 66, 71
1, 48217, Control_c, 0, 67, 15
1, 48230, Note_off_c, 0, 62, 63
1, 48230, Note_off_c, 0, 66, 67
1, 48247, Control_c, 0, 67, 13
1, 48291, Control_c, 0, 67, 11
1, 48335, Control_c, 0, 67, 9
1, 48349, Note_on_c, 0, 68, 86
1, 48350, Note_on_c, 0, 57, 60
1, 48353, Note_on_c, 0, 80, 94
1, 48357, Note_on_c, 0, 54, 64
1, 48376, Note_on_c, 0, 67, 50
1, 48380, Note_off_c, 0, 57, 65
1, 48383, Note_on_c, 0, 74, 39
1, 48386, Note_off_c, 0, 54, 63
1, 48397, Note_off_c, 0, 68, 0
1, 48399, Note_on_c, 0, 71, 11
1, 48399, Note_off_c, 0, 67, 62
1, 48418, Note_off_c, 0, 74, 49
1, 48434, Poly_aftertouch_c, 0, 68, 127
1, 48460, Poly_aftertouch_c, 0, 68, 0
1, 48460, Note_off_c, 0, 71, 43
1, 48497, Note_on_c, 0, 71, 66
1, 48499, Note_off_c, 0, 80, 61
1, 48512, Note_on_c, 0, 74, 65
1, 48541, Note_off_c, 0, 74, 63
1, 48544, Note_off_c, 0, 71, 62
1, 48646, Note_on_c, 0, 38, 79
1, 48648, Note_on_c, 0, 66, 80
1, 48648, Note_on_c, 0, 78, 83
1, 48649, Note_on_c, 0, 26, 72
1, 48650, Note_on_c, 0, 68, 74
1, 48654, Note_on_c, 0, 71, 68
1, 48663, Control_c, 0, 64, 106
1, 48677, Control_c, 0, 64, 83
1, 48692, Control_c, 0, 64, 66
1, 48707, Control_c, 0, 64, 0
1, 48708, Note_off_c, 0, 26, 62
1, 48722, Control_c, 0, 64, 38
1, 48743, Control_c, 0, 64, 71
1, 48747, Note_off_c, 0, 38, 60
1, 48758, Control_c, 0, 64, 86
1, 48765, Poly_aftertouch_c, 0, 73, 127
1, 48773, Control_c, 0, 64, 119
1, 48773, Control_c, 0, 67, 12
1, 48788, Control_c, 0, 64, 127
1, 48803, Note_off_c, 0, 71, 61
1, 48809, Note_off_c, 0, 78, 60
1, 48824, Note_off_c, 0, 68, 62
1, 48831, Note_off_c, 0, 66, 61
1, 48835, Poly_aftertouch_c, 0, 73, 0
1, 48896, Note_on_c, 0, 56, 72
1, 48902, Note_on_c, 0, 68, 79
1, 48922, Control_c, 0, 67, 10
1, 48928, Note_on_c, 0, 44, 39
1, 48951, Control_c, 0, 67, 0
1, 48955, Note_off_c, 0, 56, 64
1, 48963, Note_on_c, 0, 70, 3
1, 48966, Note_off_c, 0, 68, 60
1, 48975, Note_off_c, 0, 44, 62
1, 48983, Note_off_c, 0, 70, 0
1, 49001, Poly_aftertouch_c, 0, 70, 0
1, 49002, Note_on_c, 0, 66, 77
1, 49003, Note_on_c, 0, 62, 72
1, 49020, Note_on_c, 0, 54, 66
1, 49023, Note_on_c, 0, 50, 61
1, 49055, Note_off_c, 0, 66, 63
1, 49056, Note_off_c, 0, 62, 62
1, 49074, Note_off_c, 0, 54, 58
1, 49076, Note_off_c, 0, 50, 59
1, 49086, Note_on_c, 0, 69, 83
1, 49089, Note_on_c, 0, 57, 79
1, 49096, Note_on_c, 0, 45, 73
1, 49108, Note_on_c, 0, 68, 38
1, 49109, Note_off_c, 0, 68, 127
1, 49131, Note_off_c, 0, 57, 66
1, 49158, Note_on_c, 0, 50, 63
1, 49158, Note_off_c, 0, 45, 62
1, 49158, Note_off_c, 0, 69, 61
1, 49162, Note_on_c, 0, 66, 85
1, 49170, Note_on_c, 0, 62, 79
1, 49185, Note_on_c, 0, 54, 50
1, 49208, Note_off_c, 0, 50, 62
1, 49210, Note_off_c, 0, 66, 64
1, 49214, Note_off_c, 0, 62, 59
1, 49220, Note_off_c, 0, 54, 62
1, 49244, Note_on_c, 0, 58, 82
1, 49250, Note_on_c, 0, 70, 95
1, 49258, Note_on_c, 0, 46, 75
1, 49301, Note_on_c, 0, 54, 60
1, 49319, Note_on_c, 0, 66, 80
1, 49321, Note_off_c, 0, 70, 63
1, 49325, Note_on_c, 0, 62, 75
1, 49325, Note_off_c, 0, 58, 60
1, 49330, Note_off_c, 0, 46, 62
1, 49350, Note_off_c, 0, 62, 66
1, 49371, Note_off_c, 0, 66, 64
1, 49388, Note_off_c, 0, 54, 62
1, 49417, Note_on_c, 0, 59, 87
1, 49424, Note_on_c, 0, 77, 98
1, 49426, Control_c, 0, 64, 90
1, 49434, Note_on_c, 0, 48, 77
1, 49441, Control_c, 0, 64, 70
1, 49445, Note_on_c, 0, 71, 70
1, 49456, Control_c, 0, 64, 0
1, 49482, Note_off_c, 0, 48, 56
1, 49493, Control_c, 0, 64, 66
1, 49494, Note_off_c, 0, 71, 0
1, 49507, Control_c, 0, 64, 81
1, 49509, Note_off_c, 0, 59, 58
1, 49512, Note_on_c, 0, 54, 69
1, 49522, Control_c, 0, 64, 100
1, 49530, Poly_aftertouch_c, 0, 71, 127
1, 49537, Control_c, 0, 64, 127
1, 49546, Note_on_c, 0, 69, 82
1, 49548, Note_on_c, 0, 57, 47
1, 49550, Note_off_c, 0, 77, 58
1, 49551, Note_off_c, 0, 54, 63
1, 49560, Note_on_c, 0, 65, 84
1, 49572, Note_on_c, 0, 53, 59
1, 49593, Poly_aftertouch_c, 0, 71, 0
1, 49596, Note_off_c, 0, 69, 62
1, 49605, Note_off_c, 0, 65, 64
1, 49605, Note_off_c, 0, 53, 61
1, 49613, Note_off_c, 0, 57, 63
1, 49632, Note_on_c, 0, 60, 84
1, 49640, Note_on_c, 0, 72, 93
1, 49643, Note_on_c, 0, 48, 69
1, 49655, Control_c, 0, 67, 8
1, 49672, Note_off_c, 0, 60, 64
1, 49700, Control_c, 0, 67, 11
1, 49701, Note_on_c, 0, 57, 57
1, 49710, Note_on_c, 0, 53, 51
1, 49713, Note_on_c, 0, 69, 84
1, 49715, Control_c, 0, 67, 14
1, 49720, Note_on_c, 0, 54, 12
1, 49720, Note_off_c, 0, 72, 61
1, 49724, Note_off_c, 0, 57, 60
1, 49725, Note_on_c, 0, 65, 76
1, 49730, Control_c, 0, 67, 16
1, 49742, Note_off_c, 0, 48, 61
1, 49743, Note_off_c, 0, 53, 60
1, 49745, Control_c, 0, 67, 19
1, 49750, Note_off_c, 0, 69, 67
1, 49753, Note_off_c, 0, 54, 42
1, 49757, Note_off_c, 0, 65, 65
1, 49774, Control_c, 0, 67, 21
1, 49812, Note_on_c, 0, 43, 89
1, 49818, Note_on_c, 0, 33, 88
1, 49818, Note_on_c, 0, 73, 92
1, 49822, Note_on_c, 0, 61, 100
1, 49852, Note_off_c, 0, 33, 64
1, 49860, Note_off_c, 0, 61, 64
1, 49861, Note_off_c, 0, 43, 62
1, 49876, Note_off_c, 0, 73, 61
1, 49877, Control_c, 0, 67, 17
1, 49892, Control_c, 0, 67, 14
1, 49907, Control_c, 0, 67, 11
1, 49922, Control_c, 0, 67, 9
1, 49925, Note_on_c, 0, 71, 77
1, 49935, Note_on_c, 0, 65, 60
1, 49937, Control_c, 0, 67, 0
1, 49939, Note_on_c, 0, 69, 71
1, 49952, Note_off_c, 0, 65, 65
1, 49956, Note_off_c, 0, 69, 66
1, 49962, Note_off_c, 0, 71, 63
1, 50015, Note_on_c, 0, 60, 83
1, 50031, Note_on_c, 0, 71, 100
1, 50034, Note_on_c, 0, 83, 98
1, 50034, Note_off_c, 0, 60, 67
1, 50055, Note_on_c, 0, 80, 53
1, 50056, Note_off_c, 0, 80, 127
1, 50056, Note_on_c, 0, 57, 20
1, 50065, Note_off_c, 0, 71, 65
1, 50093, Note_off_c, 0, 57, 46
1, 50112, Note_on_c, 0, 60, 14
1, 50125, Note_on_c, 0, 77, 90
1, 50130, Note_off_c, 0, 83, 58
1, 50145, Note_off_c, 0, 60, 38
1, 50278, Note_on_c, 0, 41, 93
1, 50279, Note_on_c, 0, 81, 94
1, 50280, Note_on_c, 0, 71, 99
1, 50282, Note_on_c, 0, 69, 96
1, 50285, Note_on_c, 0, 29, 87
1, 50286, Control_c, 0, 64, 91
1, 50288, Note_on_c, 0, 74, 76
1, 50299, Note_off_c, 0, 77, 58
1, 50301, Control_c, 0, 64, 69
1, 50315, Control_c, 0, 64, 0
1, 50367, Note_off_c, 0, 29, 56
1, 50375, Control_c, 0, 64, 75
1, 50389, Control_c, 0, 64, 91
1, 50399, Note_off_c, 0, 41, 61
1, 50404, Control_c, 0, 64, 127
1, 50405, Note_on_c, 0, 78, 36
1, 50432, Note_off_c, 0, 81, 59
1, 50437, Note_off_c, 0, 78, 33
1, 50448, Note_off_c, 0, 71, 55
1, 50455, Note_off_c, 0, 74, 60
1, 50466, Note_off_c, 0, 69, 63
1, 50536, Note_on_c, 0, 71, 94
1, 50539, Note_on_c, 0, 59, 82
1, 50617, Note_off_c, 0, 59, 57
1, 50617, Note_off_c, 0, 71, 59
1, 50652, Note_on_c, 0, 69, 90
1, 50653, Note_on_c, 0, 57, 60
1, 50662, Note_on_c, 0, 53, 62
1, 50663, Note_on_c, 0, 65, 83
1, 50697, Note_off_c, 0, 69, 64
1, 50712, Note_off_c, 0, 65, 64
1, 50716, Note_off_c, 0, 57, 63
1, 50738, Note_on_c, 0, 48, 81
1, 50740, Note_off_c, 0, 53, 61
1, 50754, Note_on_c, 0, 72, 98
1, 50768, Note_on_c, 0, 60, 72
1, 50800, Note_on_c, 0, 59, 40
1, 50818, Note_off_c, 0, 48, 61
1, 50836, Note_on_c, 0, 69, 90
1, 50836, Note_off_c, 0, 72, 40
1, 50838, Note_off_c, 0, 59, 33
1, 50845, Note_on_c, 0, 57, 70
1, 50845, Note_on_c, 0, 65, 88
1, 50856, Note_off_c, 0, 60, 58
1, 50869, Note_on_c, 0, 53, 56
1, 50882, Note_off_c, 0, 69, 62
1, 50888, Note_off_c, 0, 65, 65
1, 50906, Note_off_c, 0, 57, 63
1, 50913, Note_off_c, 0, 53, 62
1, 50921, Note_on_c, 0, 73, 95
1, 50933, Note_on_c, 0, 61, 93
1, 50940, Note_on_c, 0, 49, 75
1, 50943, Note_on_c, 0, 57, 53
1, 50947, Note_on_c, 0, 69, 56
1, 50991, Note_off_c, 0, 69, 0
1, 50991, Note_on_c, 0, 69, 51
1, 50999, Note_off_c, 0, 73, 63
1, 51000, Note_off_c, 0, 61, 63
1, 51004, Note_off_c, 0, 49, 63
1, 51033, Note_on_c, 0, 65, 28
1, 51035, Note_off_c, 0, 69, 63
1, 51048, Note_off_c, 0, 57, 54
1, 51056, Note_off_c, 0, 65, 58
1, 51065, Control_c, 0, 64, 113
1, 51073, Note_on_c, 0, 50, 87
1, 51079, Note_on_c, 0, 62, 101
1, 51079, Control_c, 0, 64, 83
1, 51081, Note_on_c, 0, 80, 95
1, 51094, Control_c, 0, 64, 58
1, 51095, Note_on_c, 0, 74, 71
1, 51109, Control_c, 0, 64, 0
1, 51116, Note_on_c, 0, 75, 57
1, 51136, Note_off_c, 0, 75, 60
1, 51138, Control_c, 0, 64, 68
1, 51142, Note_off_c, 0, 50, 62
1, 51143, Note_off_c, 0, 62, 63
1, 51153, Control_c, 0, 64, 87
1, 51168, Control_c, 0, 64, 116
1, 51183, Control_c, 0, 64, 127
1, 51185, Note_on_c, 0, 60, 74
1, 51196, Note_on_c, 0, 56, 74
1, 51198, Note_off_c, 0, 74, 60
1, 51202, Note_off_c, 0, 80, 63
1, 51206, Note_on_c, 0, 72, 83
1, 51217, Note_on_c, 0, 68, 82
1, 51245, Note_off_c, 0, 60, 60
1, 51267, Note_off_c, 0, 72, 61
1, 51268, Note_off_c, 0, 56, 64
1, 51269, Note_off_c, 0, 68, 63
1, 51302, Note_on_c, 0, 75, 99
1, 51309, Note_on_c, 0, 63, 96
1, 51319, Note_on_c, 0, 51, 83
1, 51353, Note_off_c, 0, 63, 64
1, 51362, Note_on_c, 0, 64, 29
1, 51368, Note_on_c, 0, 60, 29
1, 51380, Note_off_c, 0, 51, 61
1, 51399, Note_off_c, 0, 64, 49
1, 51400, Note_on_c, 0, 72, 94
1, 51405, Note_on_c, 0, 56, 72
1, 51406, Note_on_c, 0, 68, 91
1, 51419, Note_off_c, 0, 75, 60
1, 51428, Note_off_c, 0, 60, 61
1, 51443, Note_off_c, 0, 72, 65
1, 51447, Note_off_c, 0, 68, 66
1, 51455, Note_off_c, 0, 56, 65
1, 51494, Control_c, 0, 67, 8
1, 51523, Control_c, 0, 64, 98
1, 51538, Control_c, 0, 64, 75
1, 51538, Control_c, 0, 67, 10
1, 51542, Note_on_c, 0, 46, 90
1, 51543, Note_on_c, 0, 76, 97
1, 51545, Note_on_c, 0, 64, 96
1, 51548, Note_on_c, 0, 35, 78
1, 51553, Control_c, 0, 64, 0
1, 51554, Note_on_c, 0, 37, 69
1, 51563, Note_on_c, 0, 47, 67
1, 51564, Note_off_c, 0, 47, 127
1, 51564, Note_on_c, 0, 48, 62
1, 51568, Note_off_c, 0, 46, 66
1, 51570, Note_off_c, 0, 35, 40
1, 51574, Note_on_c, 0, 74, 45
1, 51575, Note_off_c, 0, 74, 127
1, 51579, Note_off_c, 0, 37, 42
1, 51584, Control_c, 0, 64, 67
1, 51588, Note_off_c, 0, 48, 42
1, 51594, Note_on_c, 0, 68, 11
1, 51598, Control_c, 0, 64, 80
1, 51609, Note_off_c, 0, 64, 60
1, 51613, Control_c, 0, 64, 101
1, 51628, Control_c, 0, 64, 127
1, 51638, Note_off_c, 0, 68, 31
1, 51647, Note_off_c, 0, 76, 46
1, 51687, Poly_aftertouch_c, 0, 46, 127
1, 51698, Note_on_c, 0, 68, 88
1, 51700, Note_on_c, 0, 74, 72
1, 51702, Control_c, 0, 67, 0
1, 51708, Note_on_c, 0, 72, 72
1, 51710, Poly_aftertouch_c, 0, 46, 0
1, 51724, Note_off_c, 0, 68, 71
1, 51731, Note_off_c, 0, 72, 67
1, 51740, Note_off_c, 0, 74, 64
1, 51749, Poly_aftertouch_c, 0, 76, 0
1, 51800, Poly_aftertouch_c, 0, 53, 127
1, 51834, Poly_aftertouch_c, 0, 53, 0
1, 51847, Note_on_c, 0, 74, 104
1, 51848, Note_on_c, 0, 65, 80
1, 51850, Note_on_c, 0, 86, 98
1, 51856, Note_on_c, 0, 56, 80
1, 51857, Note_on_c, 0, 62, 77
1, 51858, Note_on_c, 0, 64, 72
1, 51861, Poly_aftertouch_c, 0, 68, 0
1, 51862, Note_on_c, 0, 84, 75
1, 51871, Note_off_c, 0, 65, 69
1, 51879, Note_off_c, 0, 64, 63
1, 51880, Note_on_c, 0, 58, 48
1, 51880, Note_off_c, 0, 62, 67
1, 51883, Note_off_c, 0, 84, 53
1, 51885, Note_off_c, 0, 56, 67
1, 51904, Note_off_c, 0, 58, 58
1, 51915, Note_on_c, 0, 80, 3
1, 51947, Note_off_c, 0, 86, 58
1, 51948, Poly_aftertouch_c, 0, 82, 127
1, 51954, Note_off_c, 0, 80, 53
1, 51961, Note_off_c, 0, 74, 57
1, 51979, Poly_aftertouch_c, 0, 82, 0
1, 52036, Note_on_c, 0, 80, 98
1, 52038, Note_on_c, 0, 77, 84
1, 52076, Note_off_c, 0, 77, 63
1, 52092, Note_off_c, 0, 80, 66
1, 52215, Control_c, 0, 64, 107
1, 52220, Note_on_c, 0, 68, 96
1, 52222, Note_on_c, 0, 73, 93
1, 52223, Note_on_c, 0, 80, 87
1, 52224, Note_on_c, 0, 37, 105
1, 52224, Note_on_c, 0, 44, 106
1, 52228, Note_on_c, 0, 82, 87
1, 52229, Control_c, 0, 64, 78
1, 52244, Control_c, 0, 64, 0
1, 52250, Note_off_c, 0, 37, 65
1, 52252, Note_on_c, 0, 70, 54
1, 52256, Note_on_c, 0, 74, 58
1, 52257, Note_off_c, 0, 44, 63
1, 52274, Note_off_c, 0, 70, 57
1, 52275, Note_off_c, 0, 82, 64
1, 52276, Note_off_c, 0, 74, 63
1, 52303, Control_c, 0, 64, 71
1, 52318, Control_c, 0, 64, 84
1, 52333, Control_c, 0, 64, 101
1, 52348, Control_c, 0, 64, 127
1, 52449, Note_off_c, 0, 68, 60
1, 52454, Note_off_c, 0, 73, 58
1, 52503, Note_on_c, 0, 53, 78
1, 52535, Note_on_c, 0, 68, 87
1, 52535, Note_off_c, 0, 53, 65
1, 52537, Note_on_c, 0, 73, 85
1, 52569, Note_off_c, 0, 80, 59
1, 52582, Note_off_c, 0, 68, 62
1, 52589, Note_off_c, 0, 73, 60
1, 52685, Note_on_c, 0, 63, 72
1, 52685, Note_on_c, 0, 68, 84
1, 52687, Note_on_c, 0, 75, 95
1, 52689, Note_on_c, 0, 73, 87
1, 52700, Note_on_c, 0, 61, 54
1, 52703, Note_on_c, 0, 56, 56
1, 52725, Note_off_c, 0, 63, 61
1, 52728, Note_off_c, 0, 68, 62
1, 52739, Note_off_c, 0, 73, 60
1, 52742, Note_off_c, 0, 61, 62
1, 52745, Note_off_c, 0, 75, 61
1, 52748, Note_off_c, 0, 56, 65
1, 52810, Note_on_c, 0, 53, 82
1, 52812, Note_on_c, 0, 68, 90
1, 52818, Note_on_c, 0, 73, 79
1, 52821, Note_on_c, 0, 75, 80
1, 52844, Note_off_c, 0, 73, 62
1, 52852, Note_off_c, 0, 68, 60
1, 52857, Note_off_c, 0, 75, 54
1, 52887, Poly_aftertouch_c, 0, 61, 127
1, 52909, Note_on_c, 0, 61, 29
1, 52909, Note_on_c, 0, 73, 82
1, 52910, Note_on_c, 0, 68, 93
1, 52912, Note_on_c, 0, 76, 82
1, 52917, Note_on_c, 0, 64, 77
1, 52931, Note_on_c, 0, 56, 72
1, 52932, Note_off_c, 0, 53, 59
1, 52941, Note_off_c, 0, 73, 60
1, 52955, Note_off_c, 0, 68, 62
1, 52965, Note_off_c, 0, 76, 61
1, 52968, Note_off_c, 0, 64, 61
1, 52978, Note_off_c, 0, 56, 55
1, 52986, Note_off_c, 0, 61, 60
1, 53008, Note_on_c, 0, 68, 91
1, 53010, Note_on_c, 0, 73, 92
1, 53010, Note_on_c, 0, 76, 74
1, 53028, Note_on_c, 0, 53, 89
1, 53052, Note_off_c, 0, 68, 63
1, 53052, Note_off_c, 0, 73, 61
1, 53055, Note_off_c, 0, 76, 63
1, 53126, Note_on_c, 0, 61, 74
1, 53127, Note_on_c, 0, 65, 92
1, 53133, Note_on_c, 0, 56, 76
1, 53135, Note_on_c, 0, 85, 98
1, 53138, Note_on_c, 0, 73, 99
1, 53141, Note_on_c, 0, 77, 85
1, 53147, Note_off_c, 0, 65, 71
1, 53151, Note_on_c, 0, 76, 79
1, 53158, Note_off_c, 0, 53, 64
1, 53165, Note_off_c, 0, 61, 62
1, 53168, Note_off_c, 0, 76, 65
1, 53174, Note_off_c, 0, 77, 59
1, 53177, Note_off_c, 0, 56, 64
1, 53177, Note_off_c, 0, 73, 63
1, 53191, Note_off_c, 0, 85, 66
1, 53244, Note_on_c, 0, 65, 3
1, 53245, Note_off_c, 0, 65, 127
1, 53254, Note_on_c, 0, 76, 15
1, 53288, Note_off_c, 0, 76, 35
1, 53338, Note_on_c, 0, 40, 65
1, 53391, Note_on_c, 0, 49, 82
1, 53406, Note_on_c, 0, 46, 12
1, 53413, Note_off_c, 0, 40, 64
1, 53415, Control_c, 0, 64, 100
1, 53417, Note_on_c, 0, 67, 95
1, 53417, Note_on_c, 0, 76, 70
1, 53418, Note_on_c, 0, 79, 93
1, 53424, Note_on_c, 0, 55, 97
1, 53424, Note_on_c, 0, 73, 97
1, 53430, Control_c, 0, 64, 76
1, 53441, Note_on_c, 0, 53, 56
1, 53442, Note_off_c, 0, 53, 127
1, 53445, Control_c, 0, 64, 0
1, 53445, Note_off_c, 0, 46, 48
1, 53451, Note_off_c, 0, 49, 65
1, 53459, Note_off_c, 0, 55, 63
1, 53465, Note_on_c, 0, 75, 30
1, 53466, Note_off_c, 0, 75, 127
1, 53489, Control_c, 0, 64, 70
1, 53504, Control_c, 0, 64, 85
1, 53519, Control_c, 0, 64, 106
1, 53533, Control_c, 0, 64, 127
1, 53554, Note_off_c, 0, 73, 57
1, 53566, Note_off_c, 0, 79, 49
1, 53570, Note_off_c, 0, 67, 53
1, 53577, Note_off_c, 0, 76, 47
1, 53640, Note_on_c, 0, 67, 80
1, 53644, Note_on_c, 0, 76, 76
1, 53648, Note_on_c, 0, 73, 86
1, 53651, Note_on_c, 0, 55, 74
1, 53671, Note_off_c, 0, 67, 65
1, 53675, Note_off_c, 0, 73, 63
1, 53694, Note_off_c, 0, 76, 62
1, 53695, Note_off_c, 0, 55, 54
1, 53779, Note_on_c, 0, 85, 101
1, 53781, Note_on_c, 0, 73, 91
1, 53791, Note_on_c, 0, 64, 84
1, 53791, Note_on_c, 0, 61, 87
1, 53795, Note_on_c, 0, 76, 69
1, 53798, Note_on_c, 0, 57, 74
1, 53809, Note_off_c, 0, 64, 69
1, 53812, Note_on_c, 0, 82, 43
1, 53812, Note_off_c, 0, 76, 67
1, 53817, Note_off_c, 0, 61, 66
1, 53821, Note_off_c, 0, 57, 67
1, 53830, Note_off_c, 0, 73, 60
1, 53836, Note_off_c, 0, 82, 57
1, 53864, Note_off_c, 0, 85, 61
1, 53875, Note_on_c, 0, 64, 22
1, 53901, Note_off_c, 0, 64, 60
1, 53905, Note_on_c, 0, 76, 69
1, 53920, Note_on_c, 0, 73, 82
1, 53939, Note_off_c, 0, 73, 67
1, 53946, Note_off_c, 0, 76, 63
1, 53978, Poly_aftertouch_c, 0, 57, 0
1, 54038, Note_on_c, 0, 73, 76
1, 54045, Note_on_c, 0, 66, 92
1, 54045, Note_on_c, 0, 78, 85
1, 54048, Note_on_c, 0, 70, 88
1, 54050, Note_on_c, 0, 80, 75
1, 54057, Note_on_c, 0, 68, 67
1, 54075, Note_off_c, 0, 68, 65
1, 54081, Note_off_c, 0, 66, 60
1, 54081, Note_off_c, 0, 80, 62
1, 54104, Note_off_c, 0, 70, 60
1, 54111, Note_off_c, 0, 78, 58
1, 54123, Note_off_c, 0, 73, 61
1, 54213, Note_on_c, 0, 66, 90
1, 54215, Note_on_c, 0, 73, 92
1, 54217, Note_on_c, 0, 54, 77
1, 54220, Note_on_c, 0, 70, 77
1, 54230, Note_off_c, 0, 66, 71
1, 54238, Note_off_c, 0, 70, 71
1, 54256, Note_off_c, 0, 73, 63
1, 54326, Poly_aftertouch_c, 0, 78, 0
1, 54394, Note_on_c, 0, 85, 98
1, 54395, Note_on_c, 0, 73, 98
1, 54396, Note_on_c, 0, 78, 96
1, 54401, Note_on_c, 0, 63, 63
1, 54402, Note_on_c, 0, 58, 79
1, 54402, Note_on_c, 0, 82, 85
1, 54407, Note_on_c, 0, 61, 64
1, 54421, Note_off_c, 0, 63, 62
1, 54428, Note_on_c, 0, 80, 45
1, 54435, Note_off_c, 0, 58, 63
1, 54435, Note_off_c, 0, 61, 64
1, 54450, Note_off_c, 0, 54, 25
1, 54454, Note_off_c, 0, 73, 59
1, 54455, Note_off_c, 0, 80, 35
1, 54460, Note_off_c, 0, 85, 64
1, 54479, Note_off_c, 0, 78, 58
1, 54485, Note_off_c, 0, 82, 60
1, 54664, Note_on_c, 0, 73, 67
1, 54664, Note_on_c, 0, 78, 71
1, 54666, Note_on_c, 0, 82, 69
1, 54688, Note_off_c, 0, 73, 67
1, 54691, Note_off_c, 0, 78, 64
1, 54693, Note_off_c, 0, 82, 64
1, 54794, Control_c, 0, 64, 94
1, 54808, Control_c, 0, 64, 77
1, 54816, Note_on_c, 0, 41, 102
1, 54817, Note_on_c, 0, 29, 86
1, 54823, Poly_aftertouch_c, 0, 73, 0
1, 54823, Control_c, 0, 64, 65
1, 54828, Note_on_c, 0, 65, 98
1, 54828, Note_on_c, 0, 70, 89
1, 54828, Note_on_c, 0, 73, 83
1, 54829, Note_on_c, 0, 77, 95
1, 54838, Control_c, 0, 64, 67
1, 54843, Note_off_c, 0, 29, 68
1, 54846, Note_off_c, 0, 65, 72
1, 54847, Note_off_c, 0, 41, 66
1, 54853, Control_c, 0, 64, 73
1, 54855, Note_off_c, 0, 70, 63
1, 54867, Note_off_c, 0, 73, 58
1, 54868, Control_c, 0, 64, 82
1, 54875, Note_off_c, 0, 77, 59
1, 54882, Control_c, 0, 64, 95
1, 54897, Control_c, 0, 64, 107
1, 54912, Control_c, 0, 64, 117
1, 54927, Control_c, 0, 64, 127
1, 54938, Poly_aftertouch_c, 0, 75, 0
1, 55078, Note_on_c, 0, 70, 101
1, 55078, Note_on_c, 0, 82, 102
1, 55085, Note_on_c, 0, 49, 82
1, 55085, Note_on_c, 0, 73, 56
1, 55087, Note_on_c, 0, 61, 94
1, 55091, Note_on_c, 0, 58, 91
1, 55095, Note_on_c, 0, 53, 72
1, 55105, Control_c, 0, 64, 107
1, 55120, Control_c, 0, 64, 76
1, 55126, Note_off_c, 0, 73, 59
1, 55135, Control_c, 0, 64, 0
1, 55179, Control_c, 0, 64, 65
1, 55194, Control_c, 0, 64, 78
1, 55209, Control_c, 0, 64, 93
1, 55223, Control_c, 0, 64, 106
1, 55238, Control_c, 0, 64, 109
1, 55253, Control_c, 0, 64, 111
1, 55258, Note_off_c, 0, 49, 63
1, 55265, Note_off_c, 0, 53, 62
1, 55281, Note_off_c, 0, 61, 60
1, 55282, Note_off_c, 0, 58, 59
1, 55297, Control_c, 0, 64, 114
1, 55312, Control_c, 0, 64, 120
1, 55327, Control_c, 0, 64, 127
1, 55516, Note_on_c, 0, 77, 49
1, 55523, Note_on_c, 0, 73, 47
1, 55533, Note_on_c, 0, 65, 51
1, 55537, Note_on_c, 0, 53, 42
1, 55547, Note_on_c, 0, 58, 45
1, 55555, Note_on_c, 0, 61, 41
1, 55567, Note_off_c, 0, 73, 60
1, 55575, Note_off_c, 0, 77, 48
1, 55588, Note_off_c, 0, 65, 51
1, 55597, Note_off_c, 0, 53, 44
1, 55599, Note_off_c, 0, 61, 57
1, 55604, Note_off_c, 0, 58, 56
1, 55722, Note_on_c, 0, 73, 54
1, 55723, Note_on_c, 0, 77, 58
1, 55728, Note_on_c, 0, 65, 62
1, 55742, Note_on_c, 0, 53, 52
1, 55746, Note_on_c, 0, 58, 51
1, 55746, Note_on_c, 0, 61, 41
1, 55775, Note_off_c, 0, 73, 59
1, 55792, Note_off_c, 0, 65, 63
1, 55795, Note_off_c, 0, 61, 56
1, 55795, Note_off_c, 0, 77, 57
1, 55797, Note_off_c, 0, 53, 56
1, 55812, Note_off_c, 0, 58, 58
1, 55893, Note_on_c, 0, 73, 66
1, 55898, Note_on_c, 0, 77, 64
1, 55905, Note_on_c, 0, 65, 63
1, 55907, Note_on_c, 0, 53, 50
1, 55909, Note_on_c, 0, 61, 49
1, 55925, Note_on_c, 0, 58, 54
1, 55931, Note_off_c, 0, 73, 58
1, 55938, Note_off_c, 0, 53, 53
1, 55942, Note_off_c, 0, 77, 54
1, 55945, Note_off_c, 0, 65, 61
1, 55946, Note_off_c, 0, 61, 61
1, 55956, Note_off_c, 0, 58, 64
1, 56021, Note_on_c, 0, 65, 73
1, 56023, Note_on_c, 0, 61, 62
1, 56024, Note_on_c, 0, 53, 62
1, 56027, Note_on_c, 0, 58, 63
1, 56027, Note_on_c, 0, 73, 62
1, 56027, Note_on_c, 0, 77, 70
1, 56056, Note_off_c, 0, 61, 62
1, 56060, Note_off_c, 0, 65, 63
1, 56062, Note_off_c, 0, 58, 62
1, 56062, Note_off_c, 0, 73, 61
1, 56064, Note_off_c, 0, 53, 60
1, 56065, Note_off_c, 0, 77, 55
1, 56134, Note_on_c, 0, 73, 72
1, 56134, Note_on_c, 0, 61, 71
1, 56135, Note_on_c, 0, 77, 78
1, 56136, Note_on_c, 0, 65, 73
1, 56137, Note_on_c, 0, 58, 67
1, 56162, Note_off_c, 0, 65, 63
1, 56167, Note_on_c, 0, 53, 29
1, 56175, Note_on_c, 0, 52, 39
1, 56180, Note_off_c, 0, 61, 57
1, 56182, Note_off_c, 0, 58, 57
1, 56190, Note_off_c, 0, 73, 57
1, 56191, Note_off_c, 0, 77, 58
1, 56206, Note_off_c, 0, 53, 43
1, 56209, Note_off_c, 0, 52, 44
1, 56249, Note_on_c, 0, 61, 62
1, 56253, Note_on_c, 0, 64, 79
1, 56258, Note_on_c, 0, 73, 59
1, 56263, Note_on_c, 0, 76, 76
1, 56267, Note_on_c, 0, 58, 63
1, 56280, Note_on_c, 0, 78, 59
1, 56283, Note_on_c, 0, 52, 72
1, 56289, Note_off_c, 0, 73, 60
1, 56301, Note_off_c, 0, 64, 64
1, 56307, Control_c, 0, 64, 118
1, 56313, Note_off_c, 0, 61, 59
1, 56314, Note_off_c, 0, 58, 56
1, 56316, Note_off_c, 0, 52, 62
1, 56316, Note_off_c, 0, 78, 62
1, 56319, Note_off_c, 0, 76, 61
1, 56321, Control_c, 0, 64, 113
1, 56351, Control_c, 0, 64, 119
1, 56366, Control_c, 0, 64, 127
1, 56384, Note_on_c, 0, 76, 75
1, 56387, Note_on_c, 0, 73, 66
1, 56390, Note_on_c, 0, 64, 75
1, 56396, Note_on_c, 0, 52, 48
1, 56396, Note_on_c, 0, 61, 65
1, 56402, Note_on_c, 0, 58, 70
1, 56428, Note_off_c, 0, 70, 57
1, 56442, Note_off_c, 0, 64, 64
1, 56448, Note_off_c, 0, 76, 62
1, 56451, Note_off_c, 0, 52, 59
1, 56456, Note_off_c, 0, 73, 62
1, 56462, Note_off_c, 0, 58, 59
1, 56465, Note_off_c, 0, 61, 59
1, 56487, Poly_aftertouch_c, 0, 78, 0
1, 56490, Note_off_c, 0, 82, 57
1, 56519, Note_on_c, 0, 73, 77
1, 56521, Note_on_c, 0, 76, 82
1, 56539, Note_on_c, 0, 64, 82
1, 56542, Note_on_c, 0, 61, 66
1, 56547, Note_on_c, 0, 52, 72
1, 56551, Note_on_c, 0, 58, 64
1, 56592, Note_off_c, 0, 64, 60
1, 56614, Note_off_c, 0, 52, 58
1, 56686, Note_off_c, 0, 73, 61
1, 56696, Note_off_c, 0, 76, 52
1, 56704, Note_on_c, 0, 68, 106
1, 56706, Note_on_c, 0, 80, 94
1, 56716, Note_on_c, 0, 64, 70
1, 56721, Note_on_c, 0, 52, 76
1, 56743, Note_on_c, 0, 78, 39
1, 56778, Note_off_c, 0, 78, 47
1, 56780, Note_off_c, 0, 64, 62
1, 56790, Note_off_c, 0, 52, 55
1, 56849, Note_off_c, 0, 61, 59
1, 56855, Note_off_c, 0, 58, 57
1, 56865, Note_off_c, 0, 68, 58
1, 56877, Note_off_c, 0, 80, 58
1, 56900, Note_on_c, 0, 64, 71
1, 56902, Note_on_c, 0, 52, 72
1, 56909, Note_on_c, 0, 61, 58
1, 56915, Note_on_c, 0, 58, 50
1, 56933, Note_on_c, 0, 76, 83
1, 56936, Note_on_c, 0, 73, 76
1, 56994, Note_off_c, 0, 64, 55
1, 57015, Note_off_c, 0, 52, 56
1, 57022, Note_off_c, 0, 76, 58
1, 57023, Note_off_c, 0, 73, 61
1, 57040, Note_on_c, 0, 70, 106
1, 57047, Note_on_c, 0, 82, 97
1, 57048, Note_off_c, 0, 61, 52
1, 57049, Note_off_c, 0, 58, 55
1, 57051, Note_on_c, 0, 73, 53
1, 57079, Note_off_c, 0, 73, 62
1, 57117, Note_off_c, 0, 70, 54
1, 57147, Note_on_c, 0, 64, 65
1, 57150, Note_on_c, 0, 52, 63
1, 57156, Note_on_c, 0, 73, 74
1, 57159, Note_on_c, 0, 58, 82
1, 57159, Note_on_c, 0, 76, 75
1, 57159, Note_on_c, 0, 61, 80
1, 57162, Note_off_c, 0, 82, 55
1, 57171, Note_off_c, 0, 64, 68
1, 57183, Note_off_c, 0, 61, 68
1, 57203, Note_off_c, 0, 58, 65
1, 57205, Note_off_c, 0, 76, 62
1, 57217, Note_off_c, 0, 52, 62
1, 57221, Note_off_c, 0, 73, 61
1, 57482, Note_on_c, 0, 41, 105
1, 57484, Note_on_c, 0, 29, 80
1, 57512, Note_on_c, 0, 72, 101
1, 57512, Note_on_c, 0, 84, 92
1, 57515, Control_c, 0, 64, 115
1, 57516, Note_on_c, 0, 75, 88
1, 57516, Note_on_c, 0, 80, 86
1, 57530, Control_c, 0, 64, 84
1, 57545, Control_c, 0, 64, 66
1, 57547, Poly_aftertouch_c, 0, 37, 0
1, 57559, Note_on_c, 0, 78, 32
1, 57560, Control_c, 0, 64, 0
1, 57586, Note_off_c, 0, 29, 62
1, 57592, Note_off_c, 0, 78, 33
1, 57604, Control_c, 0, 64, 73
1, 57618, Control_c, 0, 64, 88
1, 57633, Control_c, 0, 64, 124
1, 57636, Note_off_c, 0, 41, 61
1, 57648, Control_c, 0, 64, 127
1, 57758, Note_off_c, 0, 80, 60
1, 57764, Note_off_c, 0, 84, 52
1, 57772, Note_off_c, 0, 75, 57
1, 57831, Note_off_c, 0, 72, 46
1, 57893, Note_on_c, 0, 80, 67
1, 57912, Note_on_c, 0, 75, 58
1, 57933, Note_off_c, 0, 75, 65
1, 57949, Note_off_c, 0, 80, 63
1, 57954, Note_on_c, 0, 60, 22
1, 57956, Note_on_c, 0, 63, 52
1, 58002, Note_on_c, 0, 80, 84
1, 58004, Note_on_c, 0, 68, 91
1, 58007, Note_on_c, 0, 56, 43
1, 58015, Note_on_c, 0, 51, 10
1, 58027, Note_on_c, 0, 75, 39
1, 58028, Note_off_c, 0, 75, 127
1, 58031, Note_on_c, 0, 78, 43
1, 58044, Note_off_c, 0, 56, 61
1, 58056, Note_off_c, 0, 78, 56
1, 58061, Note_off_c, 0, 51, 49
1, 58075, Note_off_c, 0, 68, 55
1, 58079, Poly_aftertouch_c, 0, 75, 0
1, 58089, Note_off_c, 0, 80, 62
1, 58091, Note_on_c, 0, 75, 52
1, 58106, Note_on_c, 0, 72, 71
1, 58118, Note_off_c, 0, 63, 0
1, 58129, Note_off_c, 0, 60, 0
1, 58140, Note_on_c, 0, 63, 13
1, 58146, Note_on_c, 0, 60, 23
1, 58159, Note_on_c, 0, 56, 41
1, 58170, Note_on_c, 0, 51, 38
1, 58174, Note_off_c, 0, 72, 58
1, 58182, Note_off_c, 0, 75, 60
1, 58203, Note_off_c, 0, 51, 54
1, 58207, Note_off_c, 0, 63, 60
1, 58215, Note_off_c, 0, 56, 59
1, 58241, Note_off_c, 0, 60, 49
1, 58290, Note_on_c, 0, 77, 76
1, 58296, Note_on_c, 0, 65, 79
1, 58303, Note_on_c, 0, 75, 76
1, 58313, Note_on_c, 0, 72, 64
1, 58318, Note_on_c, 0, 63, 71
1, 58325, Note_on_c, 0, 60, 49
1, 58334, Note_on_c, 0, 51, 51
1, 58358, Note_on_c, 0, 56, 38
1, 58382, Note_off_c, 0, 56, 64
1, 58384, Note_off_c, 0, 63, 60
1, 58385, Note_off_c, 0, 51, 58
1, 58393, Note_off_c, 0, 75, 62
1, 58399, Note_off_c, 0, 60, 59
1, 58405, Note_off_c, 0, 72, 53
1, 58494, Note_on_c, 0, 60, 61
1, 58495, Note_on_c, 0, 63, 74
1, 58495, Note_on_c, 0, 51, 65
1, 58501, Note_on_c, 0, 75, 84
1, 58510, Note_on_c, 0, 72, 72
1, 58517, Note_on_c, 0, 56, 18
1, 58549, Note_off_c, 0, 63, 61
1, 58557, Note_off_c, 0, 56, 47
1, 58560, Note_off_c, 0, 60, 60
1, 58563, Note_off_c, 0, 51, 57
1, 58569, Note_off_c, 0, 75, 58
1, 58576, Note_off_c, 0, 72, 59
1, 58632, Note_on_c, 0, 60, 66
1, 58633, Note_on_c, 0, 75, 74
1, 58635, Note_on_c, 0, 63, 72
1, 58638, Note_on_c, 0, 72, 71
1, 58641, Note_on_c, 0, 51, 60
1, 58653, Note_on_c, 0, 56, 41
1, 58687, Note_off_c, 0, 60, 58
1, 58691, Note_off_c, 0, 63, 60
1, 58695, Note_off_c, 0, 72, 59
1, 58700, Note_off_c, 0, 51, 61
1, 58703, Note_off_c, 0, 56, 56
1, 58714, Note_off_c, 0, 75, 61
1, 58757, Note_on_c, 0, 74, 78
1, 58761, Note_on_c, 0, 62, 67
1, 58763, Note_on_c, 0, 71, 79
1, 58767, Note_on_c, 0, 59, 60
1, 58781, Note_on_c, 0, 56, 46
1, 58784, Note_on_c, 0, 50, 50
1, 58795, Note_on_c, 0, 58, 24
1, 58799, Note_off_c, 0, 62, 59
1, 58814, Note_off_c, 0, 50, 58
1, 58814, Note_off_c, 0, 71, 64
1, 58822, Note_off_c, 0, 74, 62
1, 58826, Note_off_c, 0, 56, 61
1, 58835, Note_off_c, 0, 59, 50
1, 58835, Note_off_c, 0, 65, 43
1, 58836, Note_off_c, 0, 58, 29
1, 58874, Note_on_c, 0, 59, 53
1, 58880, Note_on_c, 0, 62, 74
1, 58884, Note_on_c, 0, 71, 79
1, 58885, Note_on_c, 0, 74, 77
1, 58894, Note_on_c, 0, 50, 64
1, 58898, Note_on_c, 0, 56, 69
1, 58933, Note_off_c, 0, 62, 60
1, 58934, Note_off_c, 0, 56, 62
1, 58934, Note_off_c, 0, 71, 63
1, 58940, Note_off_c, 0, 50, 62
1, 58940, Note_off_c, 0, 74, 62
1, 58944, Note_off_c, 0, 59, 60
1, 58955, Note_off_c, 0, 77, 59
1, 58995, Note_on_c, 0, 74, 80
1, 58997, Note_on_c, 0, 71, 80
1, 59004, Note_on_c, 0, 59, 63
1, 59007, Note_on_c, 0, 56, 63
1, 59013, Note_on_c, 0, 62, 72
1, 59020, Note_on_c, 0, 50, 64
1, 59055, Note_off_c, 0, 62, 55
1, 59063, Note_off_c, 0, 50, 60
1, 59070, Note_off_c, 0, 56, 61
1, 59073, Note_off_c, 0, 59, 58
1, 59103, Note_off_c, 0, 71, 60
1, 59105, Note_off_c, 0, 74, 61
1, 59128, Note_on_c, 0, 66, 102
1, 59129, Note_on_c, 0, 78, 98
1, 59132, Note_on_c, 0, 59, 58
1, 59140, Note_on_c, 0, 50, 67
1, 59140, Note_on_c, 0, 62, 78
1, 59143, Note_on_c, 0, 56, 64
1, 59159, Note_on_c, 0, 71, 26
1, 59191, Note_off_c, 0, 71, 56
1, 59199, Note_off_c, 0, 62, 59
1, 59219, Poly_aftertouch_c, 0, 74, 127
1, 59227, Note_off_c, 0, 56, 58
1, 59231, Note_off_c, 0, 50, 60
1, 59234, Note_off_c, 0, 66, 51
1, 59258, Poly_aftertouch_c, 0, 74, 0
1, 59264, Note_off_c, 0, 78, 58
1, 59291, Note_off_c, 0, 59, 0
1, 59306, Note_on_c, 0, 59, 40
1, 59307, Note_on_c, 0, 71, 78
1, 59309, Note_on_c, 0, 74, 83
1, 59309, Note_on_c, 0, 62, 80
1, 59314, Note_on_c, 0, 50, 66
1, 59328, Note_on_c, 0, 56, 68
1, 59365, Note_off_c, 0, 62, 61
1, 59381, Note_off_c, 0, 71, 56
1, 59390, Note_off_c, 0, 50, 54
1, 59413, Note_on_c, 0, 68, 97
1, 59416, Note_on_c, 0, 80, 92
1, 59420, Note_off_c, 0, 74, 42
1, 59422, Note_off_c, 0, 56, 56
1, 59430, Note_on_c, 0, 71, 29
1, 59457, Note_off_c, 0, 71, 59
1, 59496, Note_off_c, 0, 59, 0
1, 59505, Note_on_c, 0, 62, 68
1, 59514, Note_on_c, 0, 59, 45
1, 59514, Note_on_c, 0, 74, 75
1, 59515, Note_on_c, 0, 71, 82
1, 59515, Note_off_c, 0, 68, 60
1, 59520, Note_on_c, 0, 50, 68
1, 59524, Note_on_c, 0, 56, 80
1, 59530, Note_off_c, 0, 62, 66
1, 59532, Poly_aftertouch_c, 0, 69, 0
1, 59534, Note_off_c, 0, 80, 61
1, 59552, Note_off_c, 0, 59, 64
1, 59556, Note_off_c, 0, 56, 67
1, 59559, Note_off_c, 0, 71, 60
1, 59572, Note_off_c, 0, 74, 62
1, 59573, Note_off_c, 0, 50, 64
1, 59767, Note_on_c, 0, 29, 56
1, 59767, Note_on_c, 0, 41, 99
1, 59771, Note_on_c, 0, 70, 93
1, 59774, Note_on_c, 0, 73, 66
1, 59774, Note_on_c, 0, 82, 86
1, 59776, Control_c, 0, 64, 99
1, 59780, Note_on_c, 0, 78, 84
1, 59791, Control_c, 0, 64, 74
1, 59806, Control_c, 0, 64, 0
1, 59826, Note_off_c, 0, 29, 64
1, 59835, Note_off_c, 0, 41, 61
1, 59851, Control_c, 0, 64, 68
1, 59866, Control_c, 0, 64, 84
1, 59881, Control_c, 0, 64, 108
1, 59895, Control_c, 0, 64, 127
1, 59986, Note_off_c, 0, 78, 54
1, 59988, Note_off_c, 0, 73, 59
1, 60024, Note_off_c, 0, 82, 60
1, 60030, Note_off_c, 0, 70, 58
1, 60093, Note_on_c, 0, 78, 77
1, 60100, Note_on_c, 0, 73, 61
1, 60125, Note_on_c, 0, 58, 55
1, 60125, Note_off_c, 0, 73, 62
1, 60126, Note_on_c, 0, 61, 60
1, 60140, Note_off_c, 0, 78, 58
1, 60147, Note_on_c, 0, 54, 36
1, 60148, Note_on_c, 0, 49, 9
1, 60157, Note_off_c, 0, 61, 62
1, 60170, Note_off_c, 0, 58, 59
1, 60177, Poly_aftertouch_c, 0, 78, 0
1, 60182, Note_on_c, 0, 66, 93
1, 60182, Note_on_c, 0, 78, 79
1, 60184, Note_off_c, 0, 54, 54
1, 60200, Note_off_c, 0, 49, 53
1, 60217, Note_on_c, 0, 73, 22
1, 60229, Note_off_c, 0, 66, 61
1, 60250, Note_off_c, 0, 73, 0
1, 60250, Note_on_c, 0, 73, 24
1, 60254, Note_off_c, 0, 78, 60
1, 60288, Note_on_c, 0, 54, 51
1, 60288, Note_on_c, 0, 58, 56
1, 60295, Note_on_c, 0, 69, 47
1, 60304, Note_on_c, 0, 49, 38
1, 60320, Note_off_c, 0, 69, 55
1, 60325, Note_off_c, 0, 73, 61
1, 60328, Note_off_c, 0, 58, 61
1, 60335, Poly_aftertouch_c, 0, 70, 127
1, 60337, Note_off_c, 0, 49, 52
1, 60337, Note_off_c, 0, 54, 58
1, 60366, Poly_aftertouch_c, 0, 70, 0
1, 60444, Note_on_c, 0, 73, 76
1, 60446, Note_on_c, 0, 70, 76
1, 60450, Note_on_c, 0, 61, 76
1, 60450, Note_on_c, 0, 49, 46
1, 60452, Note_on_c, 0, 66, 73
1, 60457, Note_on_c, 0, 58, 56
1, 60458, Note_on_c, 0, 54, 46
1, 60489, Note_off_c, 0, 49, 55
1, 60491, Note_off_c, 0, 58, 61
1, 60492, Note_off_c, 0, 54, 63
1, 60495, Note_off_c, 0, 61, 53
1, 60510, Note_off_c, 0, 66, 57
1, 60515, Note_off_c, 0, 70, 59
1, 60583, Note_off_c, 0, 73, 0
1, 60619, Note_on_c, 0, 58, 49
1, 60620, Poly_aftertouch_c, 0, 73, 127
1, 60626, Note_on_c, 0, 70, 69
1, 60626, Note_on_c, 0, 66, 69
1, 60629, Note_on_c, 0, 61, 52
1, 60630, Note_on_c, 0, 49, 37
1, 60657, Note_off_c, 0, 61, 62
1, 60662, Note_off_c, 0, 49, 55
1, 60665, Note_off_c, 0, 58, 59
1, 60676, Note_off_c, 0, 66, 58
1, 60685, Note_off_c, 0, 70, 62
1, 60761, Note_on_c, 0, 70, 71
1, 60764, Note_on_c, 0, 61, 54
1, 60765, Note_on_c, 0, 49, 55
1, 60772, Note_on_c, 0, 66, 72
1, 60775, Note_on_c, 0, 58, 65
1, 60796, Note_on_c, 0, 54, 24
1, 60818, Note_off_c, 0, 61, 57
1, 60820, Note_off_c, 0, 66, 56
1, 60827, Note_off_c, 0, 49, 62
1, 60834, Note_off_c, 0, 70, 63
1, 60835, Note_off_c, 0, 58, 56
1, 60846, Poly_aftertouch_c, 0, 73, 0
1, 60882, Note_off_c, 0, 54, 0
1, 60891, Note_on_c, 0, 69, 78
1, 60897, Note_on_c, 0, 54, 36
1, 60902, Note_on_c, 0, 66, 74
1, 60903, Control_c, 0, 64, 120
1, 60909, Note_on_c, 0, 60, 59
1, 60912, Note_on_c, 0, 48, 55
1, 60918, Control_c, 0, 64, 89
1, 60930, Note_on_c, 0, 57, 43
1, 60933, Control_c, 0, 64, 75
1, 60948, Control_c, 0, 64, 72
1, 60950, Note_off_c, 0, 66, 57
1, 60953, Note_off_c, 0, 60, 48
1, 60962, Control_c, 0, 64, 76
1, 60963, Note_off_c, 0, 48, 57
1, 60966, Note_off_c, 0, 69, 61
1, 60977, Control_c, 0, 64, 87
1, 60978, Note_off_c, 0, 57, 46
1, 60992, Control_c, 0, 64, 105
1, 60996, Note_off_c, 0, 54, 53
1, 61007, Control_c, 0, 64, 127
1, 61029, Note_on_c, 0, 69, 72
1, 61032, Note_on_c, 0, 66, 73
1, 61054, Note_on_c, 0, 60, 57
1, 61061, Note_on_c, 0, 54, 39
1, 61071, Note_on_c, 0, 57, 50
1, 61076, Note_on_c, 0, 48, 44
1, 61076, Note_off_c, 0, 66, 53
1, 61098, Note_off_c, 0, 60, 43
1, 61108, Note_off_c, 0, 48, 54
1, 61120, Note_off_c, 0, 69, 52
1, 61125, Note_off_c, 0, 57, 53
1, 61157, Note_off_c, 0, 54, 0
1, 61160, Note_on_c, 0, 69, 62
1, 61164, Note_on_c, 0, 66, 76
1, 61169, Control_c, 0, 64, 113
1, 61184, Control_c, 0, 64, 95
1, 61187, Note_on_c, 0, 54, 5
1, 61198, Note_on_c, 0, 60, 57
1, 61199, Control_c, 0, 64, 82
1, 61201, Note_on_c, 0, 57, 51
1, 61214, Control_c, 0, 64, 75
1, 61217, Note_on_c, 0, 48, 45
1, 61229, Control_c, 0, 64, 77
1, 61230, Note_off_c, 0, 60, 50
1, 61243, Control_c, 0, 64, 85
1, 61254, Note_off_c, 0, 57, 55
1, 61255, Note_off_c, 0, 48, 49
1, 61258, Control_c, 0, 64, 96
1, 61273, Control_c, 0, 64, 107
1, 61288, Control_c, 0, 64, 111
1, 61332, Note_off_c, 0, 54, 0
1, 61336, Note_off_c, 0, 69, 36
1, 61340, Note_on_c, 0, 62, 83
1, 61340, Note_on_c, 0, 74, 81
1, 61345, Note_on_c, 0, 54, 39
1, 61346, Note_on_c, 0, 60, 58
1, 61352, Note_on_c, 0, 48, 55
1, 61356, Note_on_c, 0, 57, 49
1, 61389, Note_off_c, 0, 66, 27
1, 61398, Note_off_c, 0, 62, 59
1, 61408, Note_off_c, 0, 60, 52
1, 61414, Note_off_c, 0, 48, 52
1, 61420, Note_off_c, 0, 57, 55
1, 61434, Note_off_c, 0, 54, 56
1, 61495, Note_off_c, 0, 74, 60
1, 61519, Control_c, 0, 64, 114
1, 61534, Control_c, 0, 64, 119
1, 61537, Note_on_c, 0, 60, 65
1, 61541, Note_on_c, 0, 69, 71
1, 61543, Note_on_c, 0, 66, 65
1, 61548, Control_c, 0, 64, 127
1, 61549, Note_on_c, 0, 57, 52
1, 61553, Note_on_c, 0, 54, 55
1, 61565, Note_on_c, 0, 48, 44
1, 61583, Note_off_c, 0, 60, 54
1, 61586, Note_off_c, 0, 66, 61
1, 61598, Note_off_c, 0, 57, 59
1, 61598, Note_off_c, 0, 48, 53
1, 61600, Note_off_c, 0, 54, 56
1, 61610, Note_off_c, 0, 69, 60
1, 61642, Note_on_c, 0, 63, 87
1, 61646, Note_on_c, 0, 75, 79
1, 61720, Note_on_c, 0, 48, 57
1, 61722, Note_off_c, 0, 63, 54
1, 61725, Note_on_c, 0, 57, 57
1, 61729, Note_on_c, 0, 54, 63
1, 61733, Note_on_c, 0, 60, 41
1, 61735, Note_on_c, 0, 66, 79
1, 61737, Note_on_c, 0, 69, 67
1, 61743, Note_off_c, 0, 75, 60
1, 61750, Note_off_c, 0, 57, 66
1, 61763, Note_off_c, 0, 60, 54
1, 61765, Note_off_c, 0, 54, 64
1, 61780, Note_off_c, 0, 48, 63
1, 61784, Note_off_c, 0, 66, 64
1, 61785, Note_off_c, 0, 69, 63
1, 61989, Note_on_c, 0, 29, 56
1, 61990, Note_on_c, 0, 41, 80
1, 62015, Note_on_c, 0, 66, 85
1, 62018, Note_on_c, 0, 78, 87
1, 62022, Note_on_c, 0, 71, 77
1, 62022, Control_c, 0, 64, 100
1, 62028, Note_on_c, 0, 75, 81
1, 62037, Control_c, 0, 64, 82
1, 62052, Control_c, 0, 64, 69
1, 62066, Control_c, 0, 64, 64
1, 62081, Note_off_c, 0, 29, 62
1, 62081, Control_c, 0, 64, 68
1, 62096, Control_c, 0, 64, 78
1, 62111, Control_c, 0, 64, 96
1, 62123, Note_off_c, 0, 41, 61
1, 62125, Control_c, 0, 64, 127
1, 62141, Poly_aftertouch_c, 0, 37, 0
1, 62162, Note_off_c, 0, 75, 56
1, 62212, Note_off_c, 0, 66, 54
1, 62249, Note_off_c, 0, 78, 56
1, 62294, Note_off_c, 0, 71, 0
1, 62294, Note_on_c, 0, 71, 8
1, 62295, Note_on_c, 0, 75, 67
1, 62306, Note_on_c, 0, 47, 60
1, 62337, Note_off_c, 0, 71, 55
1, 62359, Note_off_c, 0, 75, 61
1, 62394, Poly_aftertouch_c, 0, 75, 0
1, 62400, Note_on_c, 0, 63, 81
1, 62401, Note_on_c, 0, 75, 66
1, 62442, Note_off_c, 0, 63, 57
1, 62461, Note_on_c, 0, 49, 69
1, 62469, Note_off_c, 0, 75, 62
1, 62488, Note_on_c, 0, 66, 74
1, 62488, Note_on_c, 0, 71, 65
1, 62503, Note_off_c, 0, 47, 25
1, 62526, Note_off_c, 0, 49, 61
1, 62536, Note_off_c, 0, 71, 54
1, 62548, Note_off_c, 0, 66, 60
1, 62658, Note_on_c, 0, 71, 71
1, 62663, Note_on_c, 0, 66, 68
1, 62665, Note_on_c, 0, 59, 74
1, 62668, Note_on_c, 0, 63, 66
1, 62668, Control_c, 0, 64, 106
1, 62678, Note_on_c, 0, 51, 61
1, 62683, Control_c, 0, 64, 86
1, 62698, Control_c, 0, 64, 72
1, 62713, Control_c, 0, 64, 64
1, 62722, Note_on_c, 0, 54, 16
1, 62728, Control_c, 0, 64, 66
1, 62742, Control_c, 0, 64, 72
1, 62754, Note_off_c, 0, 51, 57
1, 62757, Control_c, 0, 64, 85
1, 62757, Note_off_c, 0, 54, 48
1, 62761, Note_off_c, 0, 66, 56
1, 62768, Note_off_c, 0, 63, 57
1, 62769, Note_off_c, 0, 59, 46
1, 62772, Control_c, 0, 64, 101
1, 62787, Control_c, 0, 64, 115
1, 62871, Note_on_c, 0, 59, 49
1, 62872, Note_on_c, 0, 54, 39
1, 62883, Note_on_c, 0, 66, 59
1, 62886, Note_on_c, 0, 51, 52
1, 62887, Note_on_c, 0, 63, 61
1, 62890, Control_c, 0, 64, 117
1, 62920, Control_c, 0, 64, 120
1, 62921, Note_off_c, 0, 63, 63
1, 62925, Note_off_c, 0, 54, 55
1, 62926, Note_off_c, 0, 66, 63
1, 62930, Note_off_c, 0, 59, 57
1, 62932, Note_off_c, 0, 51, 59
1, 62934, Control_c, 0, 64, 124
1, 62949, Control_c, 0, 64, 127
1, 63076, Note_on_c, 0, 66, 57
1, 63078, Note_on_c, 0, 63, 55
1, 63092, Note_on_c, 0, 59, 71
1, 63093, Note_on_c, 0, 54, 52
1, 63097, Note_on_c, 0, 51, 53
1, 63137, Note_off_c, 0, 59, 59
1, 63148, Note_off_c, 0, 63, 56
1, 63157, Note_off_c, 0, 66, 61
1, 63168, Note_off_c, 0, 51, 56
1, 63169, Note_off_c, 0, 54, 58
1, 63316, Note_on_c, 0, 60, 78
1, 63320, Note_on_c, 0, 54, 66
1, 63327, Control_c, 0, 64, 114
1, 63332, Note_on_c, 0, 51, 60
1, 63342, Control_c, 0, 64, 97
1, 63357, Control_c, 0, 64, 84
1, 63370, Note_on_c, 0, 66, 46
1, 63372, Control_c, 0, 64, 72
1, 63380, Note_on_c, 0, 63, 43
1, 63386, Control_c, 0, 64, 64
1, 63401, Control_c, 0, 64, 0
1, 63416, Control_c, 0, 64, 64
1, 63431, Control_c, 0, 64, 71
1, 63446, Control_c, 0, 64, 79
1, 63461, Control_c, 0, 64, 90
1, 63476, Control_c, 0, 64, 98
1, 63486, Poly_aftertouch_c, 0, 68, 127
1, 63488, Note_off_c, 0, 60, 55
1, 63491, Control_c, 0, 64, 100
1, 63501, Note_off_c, 0, 51, 56
1, 63503, Note_off_c, 0, 54, 55
1, 63508, Note_off_c, 0, 66, 57
1, 63533, Note_off_c, 0, 63, 36
1, 63535, Control_c, 0, 64, 102
1, 63562, Note_off_c, 0, 71, 51
1, 63564, Control_c, 0, 64, 105
1, 63609, Control_c, 0, 64, 107
1, 63638, Control_c, 0, 64, 109
1, 63642, Note_on_c, 0, 60, 44
1, 63656, Note_on_c, 0, 51, 41
1, 63663, Note_on_c, 0, 54, 49
1, 63668, Control_c, 0, 64, 111
1, 63711, Note_on_c, 0, 66, 49
1, 63734, Note_off_c, 0, 60, 55
1, 63735, Control_c, 0, 64, 114
1, 63739, Note_off_c, 0, 54, 48
1, 63741, Note_off_c, 0, 51, 55
1, 63762, Poly_aftertouch_c, 0, 68, 0
1, 63762, Note_off_c, 0, 66, 59
1, 63803, Note_on_c, 0, 70, 75
1, 63892, Note_off_c, 0, 70, 61
1, 63893, Note_on_c, 0, 60, 36
1, 63894, Note_on_c, 0, 66, 57
1, 63896, Note_on_c, 0, 51, 40
1, 63911, Note_on_c, 0, 54, 37
1, 63920, Note_on_c, 0, 63, 37
1, 63943, Control_c, 0, 64, 116
1, 63953, Note_off_c, 0, 51, 55
1, 63956, Note_off_c, 0, 60, 43
1, 63959, Note_off_c, 0, 54, 56
1, 64005, Note_off_c, 0, 63, 0
1, 64005, Note_on_c, 0, 63, 27
1, 64061, Control_c, 0, 64, 113
1, 64091, Control_c, 0, 64, 111
1, 64104, Note_on_c, 0, 60, 42
1, 64105, Control_c, 0, 64, 108
1, 64108, Note_on_c, 0, 54, 39
1, 64113, Note_on_c, 0, 51, 40
1, 64120, Control_c, 0, 64, 105
1, 64135, Control_c, 0, 64, 101
1, 64150, Control_c, 0, 64, 97
1, 64165, Control_c, 0, 64, 92
1, 64179, Control_c, 0, 64, 84
1, 64186, Note_on_c, 0, 69, 67
1, 64194, Control_c, 0, 64, 76
1, 64198, Note_off_c, 0, 66, 40
1, 64200, Note_off_c, 0, 63, 57
1, 64209, Control_c, 0, 64, 66
1, 64212, Note_off_c, 0, 60, 60
1, 64215, Note_on_c, 0, 57, 51
1, 64224, Control_c, 0, 64, 53
1, 64254, Control_c, 0, 64, 64
1, 64269, Control_c, 0, 64, 69
1, 64284, Control_c, 0, 64, 75
1, 64299, Control_c, 0, 64, 84
1, 64313, Control_c, 0, 64, 93
1, 64328, Control_c, 0, 64, 96
1, 64342, Note_off_c, 0, 54, 40
1, 64361, Note_off_c, 0, 51, 56
1, 64373, Control_c, 0, 64, 98
1, 64380, Note_off_c, 0, 69, 56
1, 64402, Control_c, 0, 64, 101
1, 64407, Note_on_c, 0, 66, 64
1, 64432, Control_c, 0, 64, 103
1, 64442, Note_off_c, 0, 66, 65
1, 64468, Control_c, 0, 64, 106
1, 64483, Control_c, 0, 64, 108
1, 64498, Control_c, 0, 64, 110
1, 64498, Control_c, 0, 67, 8
1, 64528, Control_c, 0, 64, 113
1, 64543, Control_c, 0, 64, 117
1, 64558, Control_c, 0, 64, 127
1, 64692, Control_c, 0, 64, 121
1, 64707, Control_c, 0, 64, 109
1, 64722, Control_c, 0, 64, 97
1, 64733, Note_on_c, 0, 65, 60
1, 64736, Control_c, 0, 64, 85
1, 64746, Note_on_c, 0, 41, 42
1, 64751, Control_c, 0, 64, 75
1, 64757, Note_off_c, 0, 57, 41
1, 64766, Control_c, 0, 64, 69
1, 64781, Control_c, 0, 64, 70
1, 64796, Control_c, 0, 64, 74
1, 64810, Control_c, 0, 64, 81
1, 64825, Control_c, 0, 64, 89
1, 64840, Control_c, 0, 64, 96
1, 65055, Note_off_c, 0, 41, 26
1, 65062, Control_c, 0, 64, 95
1, 65077, Control_c, 0, 64, 94
1, 65091, Control_c, 0, 64, 93
1, 65106, Control_c, 0, 64, 91
1, 65116, Note_on_c, 0, 34, 32
1, 65121, Control_c, 0, 64, 89
1, 65136, Control_c, 0, 64, 87
1, 65151, Control_c, 0, 64, 85
1, 65166, Control_c, 0, 64, 82
1, 65181, Note_on_c, 0, 63, 49
1, 65181, Control_c, 0, 64, 77
1, 65196, Control_c, 0, 64, 71
1, 65197, Note_on_c, 0, 53, 29
1, 65207, Note_on_c, 0, 58, 26
1, 65217, Control_c, 0, 64, 65
1, 65232, Control_c, 0, 64, 0
1, 65321, Control_c, 0, 64, 65
1, 65336, Control_c, 0, 64, 71
1, 65351, Control_c, 0, 64, 79
1, 65366, Control_c, 0, 64, 89
1, 65381, Control_c, 0, 64, 95
1, 65396, Control_c, 0, 64, 98
1, 65406, Note_off_c, 0, 34, 32
1, 65411, Control_c, 0, 64, 100
1, 65440, Control_c, 0, 64, 102
1, 65470, Control_c, 0, 64, 105
1, 65483, Note_off_c, 0, 63, 38
1, 65530, Control_c, 0, 67, 10
1, 65616, Note_off_c, 0, 53, 36
1, 65627, Note_on_c, 0, 41, 37
1, 65689, Note_off_c, 0, 41, 54
1, 65831, Note_off_c, 0, 58, 39
1, 65864, Note_on_c, 0, 62, 38
1, 65892, Note_on_c, 0, 50, 32
1, 65954, Note_off_c, 0, 50, 50
1, 66008, Note_on_c, 0, 41, 49
1, 66037, Note_off_c, 0, 62, 52
1, 66084, Control_c, 0, 64, 107
1, 66145, Note_off_c, 0, 41, 47
1, 66162, Note_on_c, 0, 50, 42
1, 66338, Control_c, 0, 64, 105
1, 66366, Note_off_c, 0, 50, 27
1, 66368, Control_c, 0, 64, 102
1, 66427, Control_c, 0, 67, 12
1, 66454, Note_on_c, 0, 58, 47
1, 66516, Control_c, 0, 64, 104
1, 66546, Control_c, 0, 64, 106
1, 66575, Control_c, 0, 64, 108
1, 66590, Control_c, 0, 64, 110
1, 66590, Control_c, 0, 67, 14
1, 66605, Control_c, 0, 64, 113
1, 66615, Note_off_c, 0, 58, 53
1, 66620, Control_c, 0, 64, 117
1, 66620, Control_c, 0, 67, 16
1, 66635, Control_c, 0, 64, 123
1, 66649, Control_c, 0, 64, 127
1, 66864, Note_on_c, 0, 50, 3
1, 66901, Note_off_c, 0, 50, 53
1, 66936, Note_on_c, 0, 41, 42
1, 67013, Note_off_c, 0, 41, 57
1, 67069, Note_on_c, 0, 50, 22
1, 67121, Note_off_c, 0, 50, 55
1, 67282, Poly_aftertouch_c, 0, 41, 127
1, 67308, Control_c, 0, 64, 117
1, 67315, Poly_aftertouch_c, 0, 41, 0
1, 67322, Control_c, 0, 64, 109
1, 67337, Control_c, 0, 64, 101
1, 67339, Note_on_c, 0, 34, 48
1, 67352, Control_c, 0, 64, 95
1, 67367, Control_c, 0, 64, 94
1, 67396, Control_c, 0, 64, 95
1, 67411, Control_c, 0, 64, 96
1, 67441, Control_c, 0, 64, 99
1, 67478, Control_c, 0, 64, 102
1, 67497, Note_off_c, 0, 34, 35
1, 67508, Control_c, 0, 64, 105
1, 67558, Note_off_c, 0, 65, 59
1, 67726, Note_on_c, 0, 41, 37
1, 67788, Note_off_c, 0, 41, 44
1, 67856, Note_on_c, 0, 50, 49
1, 67911, Note_off_c, 0, 50, 59
1, 67923, Control_c, 0, 64, 103
1, 67993, Note_on_c, 0, 41, 46
1, 68083, Note_off_c, 0, 41, 53
1, 68086, Control_c, 0, 67, 14
1, 68150, Note_on_c, 0, 50, 45
1, 68301, Control_c, 0, 64, 101
1, 68478, Control_c, 0, 64, 98
1, 68481, Note_on_c, 0, 58, 34
1, 68493, Control_c, 0, 64, 96
1, 68508, Control_c, 0, 64, 94
1, 68523, Control_c, 0, 64, 91
1, 68538, Control_c, 0, 64, 88
1, 68552, Control_c, 0, 64, 85
1, 68564, Note_off_c, 0, 50, 31
1, 68567, Control_c, 0, 64, 82
1, 68583, Control_c, 0, 64, 80
1, 68598, Control_c, 0, 64, 77
1, 68613, Control_c, 0, 64, 74
1, 68617, Note_on_c, 0, 82, 75
1, 68628, Control_c, 0, 64, 72
1, 68643, Control_c, 0, 64, 70
1, 68657, Control_c, 0, 64, 67
1, 68672, Control_c, 0, 64, 66
1, 68731, Control_c, 0, 64, 67
1, 68746, Control_c, 0, 64, 69
1, 68761, Control_c, 0, 64, 73
1, 68776, Control_c, 0, 64, 79
1, 68791, Control_c, 0, 64, 86
1, 68806, Control_c, 0, 64, 93
1, 68821, Control_c, 0, 64, 97
1, 68821, Note_off_c, 0, 58, 33
1, 68836, Control_c, 0, 64, 100
1, 68850, Control_c, 0, 64, 104
1, 68865, Control_c, 0, 64, 108
1, 68880, Control_c, 0, 64, 113
1, 68894, Control_c, 0, 64, 120
1, 68909, Control_c, 0, 64, 127
1, 69162, Note_on_c, 0, 50, 31
1, 69215, Note_off_c, 0, 50, 54
1, 69289, Note_on_c, 0, 41, 41
1, 69365, Note_off_c, 0, 41, 58
1, 69447, Note_on_c, 0, 50, 34
1, 69482, Note_off_c, 0, 50, 49
1, 69587, Note_on_c, 0, 41, 44
1, 69642, Note_off_c, 0, 41, 50
1, 69679, Note_on_c, 0, 34, 56
1, 69765, Note_off_c, 0, 34, 51
1, 70047, Note_on_c, 0, 41, 34
1, 70078, Note_off_c, 0, 41, 55
1, 70168, Note_on_c, 0, 50, 42
1, 70202, Note_off_c, 0, 50, 63
1, 70261, Note_on_c, 0, 41, 34
1, 70308, Note_off_c, 0, 41, 60
1, 70358, Note_on_c, 0, 50, 35
1, 70421, Note_off_c, 0, 50, 51
1, 70469, Note_on_c, 0, 58, 36
1, 70518, Control_c, 0, 67, 16
1, 70529, Note_off_c, 0, 58, 49
1, 70672, Poly_aftertouch_c, 0, 50, 0
1, 70679, Note_on_c, 0, 41, 44
1, 70733, Note_off_c, 0, 41, 58
1, 70792, Note_on_c, 0, 80, 65
1, 70795, Note_off_c, 0, 82, 60
1, 70993, Control_c, 0, 67, 18
1, 71032, Note_on_c, 0, 41, 3
1, 71071, Note_off_c, 0, 41, 46
1, 71132, Note_on_c, 0, 34, 46
1, 71185, Control_c, 0, 64, 123
1, 71208, Control_c, 0, 64, 112
1, 71223, Control_c, 0, 64, 106
1, 71238, Control_c, 0, 64, 101
1, 71252, Control_c, 0, 64, 98
1, 71267, Control_c, 0, 64, 93
1, 71282, Control_c, 0, 64, 87
1, 71297, Control_c, 0, 64, 80
1, 71311, Control_c, 0, 64, 73
1, 71326, Control_c, 0, 64, 68
1, 71341, Control_c, 0, 64, 66
1, 71365, Note_off_c, 0, 80, 56
1, 71367, Note_on_c, 0, 77, 55
1, 71400, Control_c, 0, 64, 66
1, 71415, Control_c, 0, 64, 67
1, 71429, Control_c, 0, 64, 70
1, 71444, Control_c, 0, 64, 75
1, 71459, Control_c, 0, 64, 86
1, 71468, Note_off_c, 0, 34, 33
1, 71474, Control_c, 0, 64, 96
1, 71489, Control_c, 0, 64, 105
1, 71503, Control_c, 0, 64, 108
1, 71518, Control_c, 0, 64, 110
1, 71533, Control_c, 0, 64, 113
1, 71548, Control_c, 0, 64, 117
1, 71563, Control_c, 0, 64, 124
1, 71578, Control_c, 0, 64, 127
1, 71646, Note_on_c, 0, 41, 39
1, 71667, Note_off_c, 0, 77, 50
1, 71771, Note_off_c, 0, 41, 47
1, 71813, Note_on_c, 0, 49, 32
1, 71969, Note_on_c, 0, 80, 53
1, 71977, Note_off_c, 0, 49, 31
1, 72017, Note_on_c, 0, 42, 45
1, 72048, Note_off_c, 0, 42, 49
1, 72144, Note_on_c, 0, 49, 46
1, 72202, Note_off_c, 0, 49, 56
1, 72249, Note_on_c, 0, 58, 41
1, 72281, Note_off_c, 0, 58, 55
1, 72283, Note_on_c, 0, 77, 59
1, 72293, Note_off_c, 0, 80, 42
1, 72339, Note_on_c, 0, 49, 40
1, 72380, Note_off_c, 0, 49, 61
1, 72410, Note_on_c, 0, 41, 47
1, 72458, Note_off_c, 0, 41, 58
1, 72514, Note_on_c, 0, 49, 36
1, 72534, Control_c, 0, 67, 16
1, 72568, Note_off_c, 0, 49, 59
1, 72573, Note_on_c, 0, 41, 53
1, 72651, Note_off_c, 0, 41, 58
1, 72666, Note_on_c, 0, 34, 62
1, 72668, Control_c, 0, 64, 113
1, 72683, Control_c, 0, 64, 100
1, 72705, Control_c, 0, 64, 89
1, 72720, Control_c, 0, 64, 79
1, 72735, Control_c, 0, 64, 76
1, 72749, Control_c, 0, 64, 77
1, 72764, Control_c, 0, 64, 82
1, 72775, Note_off_c, 0, 34, 50
1, 72779, Control_c, 0, 64, 89
1, 72779, Control_c, 0, 67, 14
1, 72794, Control_c, 0, 64, 95
1, 72809, Control_c, 0, 64, 99
1, 72809, Control_c, 0, 67, 11
1, 72824, Control_c, 0, 64, 101
1, 72824, Control_c, 0, 67, 0
1, 72843, Note_on_c, 0, 41, 49
1, 72854, Control_c, 0, 64, 105
1, 72868, Control_c, 0, 64, 108
1, 72883, Control_c, 0, 64, 112
1, 72898, Control_c, 0, 64, 115
1, 72913, Control_c, 0, 64, 121
1, 72919, Note_off_c, 0, 41, 52
1, 72928, Control_c, 0, 64, 127
1, 72944, Note_on_c, 0, 49, 51
1, 72962, Note_on_c, 0, 73, 71
1, 72999, Note_off_c, 0, 77, 57
1, 73015, Note_off_c, 0, 49, 61
1, 73119, Note_on_c, 0, 41, 9
1, 73155, Note_on_c, 0, 49, 56
1, 73163, Note_off_c, 0, 41, 28
1, 73211, Note_off_c, 0, 49, 60
1, 73229, Note_on_c, 0, 58, 59
1, 73262, Note_off_c, 0, 58, 62
1, 73313, Note_on_c, 0, 49, 56
1, 73349, Note_off_c, 0, 49, 63
1, 73368, Note_on_c, 0, 41, 59
1, 73410, Note_off_c, 0, 41, 58
1, 73460, Note_on_c, 0, 72, 81
1, 73475, Note_off_c, 0, 73, 61
1, 73493, Note_on_c, 0, 49, 29
1, 73515, Note_off_c, 0, 72, 62
1, 73535, Note_off_c, 0, 49, 57
1, 73567, Note_on_c, 0, 41, 50
1, 73588, Control_c, 0, 67, 8
1, 73632, Control_c, 0, 67, 10
1, 73653, Note_off_c, 0, 41, 61
1, 73671, Note_on_c, 0, 34, 73
1, 73780, Control_c, 0, 67, 12
1, 73786, Note_on_c, 0, 73, 80
1, 73795, Control_c, 0, 64, 106
1, 73807, Note_on_c, 0, 71, 71
1, 73810, Control_c, 0, 64, 92
1, 73824, Control_c, 0, 64, 81
1, 73839, Control_c, 0, 64, 72
1, 73854, Control_c, 0, 64, 67
1, 73861, Note_off_c, 0, 34, 54
1, 73869, Control_c, 0, 64, 66
1, 73884, Control_c, 0, 64, 70
1, 73898, Control_c, 0, 64, 77
1, 73913, Control_c, 0, 64, 87
1, 73915, Note_on_c, 0, 42, 58
1, 73928, Control_c, 0, 64, 100
1, 73934, Note_off_c, 0, 71, 55
1, 73943, Control_c, 0, 64, 111
1, 73943, Control_c, 0, 67, 14
1, 73958, Control_c, 0, 64, 116
1, 73972, Control_c, 0, 64, 120
1, 73973, Note_off_c, 0, 42, 58
1, 73987, Control_c, 0, 64, 127
1, 74017, Note_on_c, 0, 49, 48
1, 74054, Note_off_c, 0, 49, 63
1, 74096, Note_on_c, 0, 70, 87
1, 74102, Note_on_c, 0, 42, 54
1, 74120, Note_off_c, 0, 73, 61
1, 74142, Note_off_c, 0, 70, 64
1, 74146, Note_off_c, 0, 42, 58
1, 74149, Note_on_c, 0, 49, 61
1, 74215, Note_off_c, 0, 49, 59
1, 74285, Note_on_c, 0, 58, 53
1, 74313, Note_off_c, 0, 58, 62
1, 74336, Control_c, 0, 64, 116
1, 74339, Note_on_c, 0, 70, 84
1, 74345, Note_on_c, 0, 67, 75
1, 74351, Control_c, 0, 64, 96
1, 74366, Control_c, 0, 64, 80
1, 74381, Control_c, 0, 64, 72
1, 74410, Control_c, 0, 64, 77
1, 74425, Control_c, 0, 64, 85
1, 74431, Note_off_c, 0, 67, 0
1, 74440, Control_c, 0, 64, 95
1, 74454, Note_on_c, 0, 42, 68
1, 74455, Control_c, 0, 64, 104
1, 74469, Control_c, 0, 64, 108
1, 74484, Control_c, 0, 64, 110
1, 74499, Control_c, 0, 64, 113
1, 74502, Note_off_c, 0, 42, 58
1, 74514, Poly_aftertouch_c, 0, 67, 0
1, 74514, Control_c, 0, 64, 117
1, 74529, Control_c, 0, 64, 119
1, 74550, Note_on_c, 0, 66, 88
1, 74565, Note_on_c, 0, 52, 41
1, 74589, Control_c, 0, 64, 121
1, 74595, Poly_aftertouch_c, 0, 53, 127
1, 74599, Note_on_c, 0, 42, 64
1, 74599, Note_off_c, 0, 52, 47
1, 74632, Poly_aftertouch_c, 0, 53, 0
1, 74673, Note_off_c, 0, 42, 57
1, 74703, Note_on_c, 0, 34, 76
1, 74708, Control_c, 0, 64, 117
1, 74722, Control_c, 0, 64, 109
1, 74737, Control_c, 0, 64, 99
1, 74752, Control_c, 0, 64, 85
1, 74766, Control_c, 0, 64, 74
1, 74769, Note_on_c, 0, 65, 77
1, 74781, Control_c, 0, 64, 66
1, 74796, Control_c, 0, 64, 64
1, 74807, Note_off_c, 0, 34, 50
1, 74811, Control_c, 0, 64, 67
1, 74826, Control_c, 0, 64, 72
1, 74840, Control_c, 0, 64, 79
1, 74855, Control_c, 0, 64, 91
1, 74870, Control_c, 0, 64, 99
1, 74885, Control_c, 0, 64, 103
1, 74893, Note_on_c, 0, 42, 40
1, 74929, Control_c, 0, 64, 105
1, 74954, Note_off_c, 0, 42, 58
1, 74959, Note_off_c, 0, 70, 60
1, 74969, Note_on_c, 0, 49, 57
1, 74982, Note_off_c, 0, 65, 64
1, 75000, Note_on_c, 0, 64, 79
1, 75009, Note_off_c, 0, 49, 62
1, 75017, Note_off_c, 0, 66, 61
1, 75039, Note_off_c, 0, 64, 64
1, 75082, Note_on_c, 0, 42, 47
1, 75129, Note_off_c, 0, 42, 53
1, 75134, Note_on_c, 0, 49, 47
1, 75189, Control_c, 0, 67, 12
1, 75198, Note_off_c, 0, 49, 59
1, 75234, Control_c, 0, 64, 102
1, 75249, Control_c, 0, 64, 98
1, 75260, Note_on_c, 0, 58, 56
1, 75264, Control_c, 0, 64, 92
1, 75278, Note_on_c, 0, 66, 75
1, 75278, Control_c, 0, 64, 85
1, 75293, Control_c, 0, 64, 78
1, 75307, Note_off_c, 0, 58, 56
1, 75308, Control_c, 0, 64, 71
1, 75323, Control_c, 0, 64, 66
1, 75337, Control_c, 0, 64, 64
1, 75352, Control_c, 0, 64, 64
1, 75367, Control_c, 0, 64, 65
1, 75382, Control_c, 0, 64, 67
1, 75388, Note_on_c, 0, 52, 40
1, 75396, Control_c, 0, 64, 71
1, 75411, Control_c, 0, 64, 76
1, 75417, Note_off_c, 0, 52, 53
1, 75426, Control_c, 0, 64, 85
1, 75441, Control_c, 0, 64, 91
1, 75456, Control_c, 0, 64, 94
1, 75466, Note_on_c, 0, 42, 62
1, 75513, Note_off_c, 0, 42, 60
1, 75584, Note_on_c, 0, 61, 70
1, 75604, Control_c, 0, 64, 93
1, 75608, Note_off_c, 0, 66, 60
1, 75626, Note_on_c, 0, 52, 30
1, 75626, Note_off_c, 0, 61, 59
1, 75673, Note_off_c, 0, 52, 45
1, 75731, Note_on_c, 0, 42, 46
1, 75790, Control_c, 0, 64, 93
1, 75820, Control_c, 0, 64, 92
1, 75864, Control_c, 0, 64, 92
1, 75869, Note_off_c, 0, 42, 48
1, 75879, Control_c, 0, 64, 91
1, 75894, Control_c, 0, 64, 91
1, 75898, Note_on_c, 0, 35, 46
1, 75909, Control_c, 0, 64, 90
1, 75924, Control_c, 0, 64, 90
1, 75954, Control_c, 0, 64, 89
1, 75968, Control_c, 0, 64, 89
1, 75983, Control_c, 0, 64, 87
1, 75998, Control_c, 0, 64, 85
1, 76012, Control_c, 0, 64, 83
1, 76027, Control_c, 0, 64, 81
1, 76042, Control_c, 0, 64, 79
1, 76057, Control_c, 0, 64, 77
1, 76072, Control_c, 0, 64, 75
1, 76087, Control_c, 0, 64, 72
1, 76091, Note_on_c, 0, 66, 59
1, 76101, Control_c, 0, 64, 68
1, 76108, Note_on_c, 0, 61, 52
1, 76116, Control_c, 0, 64, 63
1, 76131, Control_c, 0, 64, 0
1, 76205, Control_c, 0, 64, 65
1, 76216, Note_off_c, 0, 35, 33
1, 76219, Control_c, 0, 64, 70
1, 76234, Control_c, 0, 64, 75
1, 76249, Control_c, 0, 64, 81
1, 76264, Control_c, 0, 64, 86
1, 76279, Control_c, 0, 64, 89
1, 76294, Control_c, 0, 64, 90
1, 76309, Control_c, 0, 64, 91
1, 76324, Control_c, 0, 64, 91
1, 76338, Control_c, 0, 64, 92
1, 76404, Note_off_c, 0, 66, 37
1, 76456, Note_off_c, 0, 61, 58
1, 76477, Note_on_c, 0, 62, 56
1, 76482, Note_on_c, 0, 50, 31
1, 76530, Note_off_c, 0, 50, 49
1, 76599, Note_on_c, 0, 42, 35
1, 76677, Note_off_c, 0, 62, 59
1, 76717, Control_c, 0, 64, 91
1, 76726, Note_on_c, 0, 59, 54
1, 76741, Note_on_c, 0, 50, 36
1, 76781, Note_off_c, 0, 42, 28
1, 76821, Control_c, 0, 64, 91
1, 76851, Control_c, 0, 64, 90
1, 76866, Control_c, 0, 64, 90
1, 76881, Control_c, 0, 64, 89
1, 76896, Control_c, 0, 64, 88
1, 76910, Control_c, 0, 64, 87
1, 76915, Note_off_c, 0, 50, 42
1, 76917, Note_on_c, 0, 54, 63
1, 76925, Control_c, 0, 64, 85
1, 76940, Control_c, 0, 64, 82
1, 76955, Control_c, 0, 64, 79
1, 76969, Control_c, 0, 64, 75
1, 76984, Control_c, 0, 64, 70
1, 76999, Control_c, 0, 64, 68
1, 77029, Control_c, 0, 64, 69
1, 77043, Control_c, 0, 64, 69
1, 77058, Control_c, 0, 64, 71
1, 77073, Control_c, 0, 64, 74
1, 77088, Control_c, 0, 64, 80
1, 77103, Control_c, 0, 64, 87
1, 77117, Control_c, 0, 64, 92
1, 77132, Control_c, 0, 64, 95
1, 77140, Note_off_c, 0, 54, 52
1, 77147, Control_c, 0, 64, 97
1, 77161, Control_c, 0, 64, 99
1, 77176, Control_c, 0, 64, 101
1, 77214, Control_c, 0, 64, 104
1, 77280, Note_off_c, 0, 59, 36
1, 77326, Poly_aftertouch_c, 0, 50, 127
1, 77357, Note_on_c, 0, 42, 5
1, 77361, Poly_aftertouch_c, 0, 50, 0
1, 77430, Note_off_c, 0, 42, 54
1, 77452, Control_c, 0, 64, 102
1, 77491, Note_on_c, 0, 50, 29
1, 77528, Note_off_c, 0, 50, 57
1, 77574, Note_on_c, 0, 42, 46
1, 77659, Control_c, 0, 64, 100
1, 77674, Control_c, 0, 64, 98
1, 77683, Note_on_c, 0, 35, 33
1, 77689, Control_c, 0, 64, 94
1, 77703, Note_off_c, 0, 42, 49
1, 77704, Control_c, 0, 64, 90
1, 77719, Control_c, 0, 64, 86
1, 77733, Control_c, 0, 64, 80
1, 77748, Control_c, 0, 64, 73
1, 77763, Control_c, 0, 64, 67
1, 77778, Control_c, 0, 64, 67
1, 77792, Control_c, 0, 64, 70
1, 77807, Control_c, 0, 64, 74
1, 77822, Control_c, 0, 64, 81
1, 77837, Control_c, 0, 64, 88
1, 77852, Control_c, 0, 64, 93
1, 77866, Control_c, 0, 64, 93
1, 77911, Control_c, 0, 64, 94
1, 77948, Control_c, 0, 64, 94
1, 77960, Note_off_c, 0, 35, 35
1, 77963, Control_c, 0, 64, 95
1, 77978, Control_c, 0, 64, 95
1, 78016, Note_on_c, 0, 42, 47
1, 78052, Control_c, 0, 64, 96
1, 78075, Note_off_c, 0, 42, 56
1, 78166, Note_on_c, 0, 50, 29
1, 78211, Note_off_c, 0, 50, 52
1, 78407, Note_on_c, 0, 50, 34
1, 78627, Note_off_c, 0, 50, 35
1, 78653, Note_on_c, 0, 54, 26
1, 78725, Note_on_c, 0, 86, 69
1, 78838, Note_off_c, 0, 54, 37
1, 78932, Control_c, 0, 64, 98
1, 79067, Control_c, 0, 64, 100
1, 79169, Note_on_c, 0, 50, 12
1, 79222, Note_off_c, 0, 50, 47
1, 79245, Note_on_c, 0, 42, 37
1, 79331, Note_off_c, 0, 42, 50
1, 79396, Note_on_c, 0, 50, 31
1, 79465, Note_off_c, 0, 50, 54
1, 79508, Note_on_c, 0, 42, 45
1, 79638, Note_on_c, 0, 35, 49
1, 79641, Note_off_c, 0, 42, 45
1, 79696, Control_c, 0, 64, 97
1, 79712, Control_c, 0, 64, 96
1, 79727, Control_c, 0, 64, 94
1, 79742, Control_c, 0, 64, 92
1, 79758, Control_c, 0, 64, 90
1, 79772, Control_c, 0, 64, 88
1, 79787, Control_c, 0, 64, 85
1, 79802, Control_c, 0, 64, 83
1, 79808, Note_on_c, 0, 83, 64
1, 79817, Control_c, 0, 64, 80
1, 79817, Control_c, 0, 67, 14
1, 79832, Control_c, 0, 64, 77
1, 79840, Note_off_c, 0, 86, 56
1, 79847, Control_c, 0, 64, 75
1, 79861, Control_c, 0, 64, 74
1, 79891, Control_c, 0, 64, 75
1, 79906, Control_c, 0, 64, 78
1, 79920, Control_c, 0, 64, 81
1, 79926, Note_off_c, 0, 35, 34
1, 79935, Control_c, 0, 64, 86
1, 79950, Control_c, 0, 64, 91
1, 79965, Control_c, 0, 64, 94
1, 79979, Control_c, 0, 64, 97
1, 80009, Control_c, 0, 64, 100
1, 80039, Control_c, 0, 64, 102
1, 80083, Control_c, 0, 64, 104
1, 80126, Note_on_c, 0, 42, 57
1, 80142, Control_c, 0, 64, 106
1, 80210, Note_off_c, 0, 42, 54
1, 80286, Note_on_c, 0, 50, 60
1, 80327, Control_c, 0, 64, 108
1, 80342, Note_off_c, 0, 50, 55
1, 80372, Control_c, 0, 64, 110
1, 80416, Control_c, 0, 64, 112
1, 80422, Note_on_c, 0, 42, 47
1, 80461, Control_c, 0, 64, 114
1, 80461, Note_off_c, 0, 42, 61
1, 80503, Note_on_c, 0, 50, 52
1, 80535, Control_c, 0, 64, 117
1, 80564, Note_off_c, 0, 50, 57
1, 80580, Control_c, 0, 64, 119
1, 80640, Control_c, 0, 64, 121
1, 80697, Note_on_c, 0, 59, 64
1, 80699, Control_c, 0, 64, 124
1, 80714, Control_c, 0, 64, 127
1, 80801, Note_off_c, 0, 59, 54
1, 80921, Control_c, 0, 67, 16
1, 80943, Note_on_c, 0, 50, 53
1, 80988, Note_off_c, 0, 50, 60
1, 81017, Control_c, 0, 67, 18
1, 81035, Note_on_c, 0, 42, 61
1, 81084, Note_off_c, 0, 42, 57
1, 81106, Control_c, 0, 67, 20
1, 81125, Note_on_c, 0, 50, 46
1, 81164, Note_off_c, 0, 50, 63
1, 81192, Note_on_c, 0, 42, 64
1, 81257, Note_on_c, 0, 35, 68
1, 81265, Note_off_c, 0, 42, 58
1, 81297, Control_c, 0, 64, 114
1, 81312, Control_c, 0, 64, 98
1, 81326, Control_c, 0, 64, 91
1, 81341, Control_c, 0, 64, 92
1, 81357, Control_c, 0, 64, 96
1, 81372, Control_c, 0, 64, 101
1, 81373, Note_off_c, 0, 35, 54
1, 81387, Control_c, 0, 64, 109
1, 81391, Note_on_c, 0, 42, 72
1, 81402, Control_c, 0, 64, 119
1, 81417, Control_c, 0, 64, 127
1, 81460, Note_off_c, 0, 42, 55
1, 81491, Control_c, 0, 67, 18
1, 81517, Note_on_c, 0, 82, 83
1, 81520, Note_on_c, 0, 51, 55
1, 81522, Note_off_c, 0, 83, 62
1, 81549, Note_off_c, 0, 51, 62
1, 81558, Note_off_c, 0, 82, 62
1, 81564, Control_c, 0, 67, 16
1, 81594, Note_on_c, 0, 42, 60
1, 81624, Control_c, 0, 67, 14
1, 81667, Note_on_c, 0, 51, 54
1, 81683, Note_off_c, 0, 42, 60
1, 81720, Control_c, 0, 67, 12
1, 81764, Control_c, 0, 67, 10
1, 81773, Note_off_c, 0, 51, 60
1, 81809, Control_c, 0, 67, 0
1, 81814, Note_on_c, 0, 59, 62
1, 81868, Note_on_c, 0, 81, 86
1, 81868, Control_c, 0, 64, 123
1, 81876, Note_on_c, 0, 71, 72
1, 81883, Control_c, 0, 64, 120
1, 81952, Note_off_c, 0, 59, 58
1, 81972, Control_c, 0, 64, 124
1, 81987, Control_c, 0, 64, 127
1, 82018, Note_on_c, 0, 51, 54
1, 82089, Note_off_c, 0, 51, 61
1, 82144, Note_on_c, 0, 42, 51
1, 82214, Note_off_c, 0, 42, 57
1, 82244, Note_on_c, 0, 78, 77
1, 82249, Note_off_c, 0, 81, 52
1, 82302, Note_on_c, 0, 51, 38
1, 82337, Note_off_c, 0, 51, 62
1, 82362, Note_on_c, 0, 42, 51
1, 82399, Note_on_c, 0, 81, 71
1, 82399, Note_off_c, 0, 78, 62
1, 82496, Note_off_c, 0, 42, 50
1, 82507, Note_on_c, 0, 35, 49
1, 82513, Control_c, 0, 64, 113
1, 82528, Control_c, 0, 64, 103
1, 82543, Control_c, 0, 64, 94
1, 82558, Control_c, 0, 64, 85
1, 82573, Control_c, 0, 64, 75
1, 82577, Note_on_c, 0, 78, 67
1, 82587, Control_c, 0, 64, 65
1, 82594, Note_off_c, 0, 81, 45
1, 82598, Note_off_c, 0, 35, 60
1, 82602, Control_c, 0, 64, 23
1, 82617, Control_c, 0, 64, 55
1, 82632, Control_c, 0, 64, 65
1, 82645, Note_on_c, 0, 42, 54
1, 82647, Control_c, 0, 64, 70
1, 82661, Control_c, 0, 64, 76
1, 82676, Control_c, 0, 64, 85
1, 82691, Control_c, 0, 64, 94
1, 82699, Note_off_c, 0, 42, 55
1, 82706, Control_c, 0, 64, 98
1, 82709, Note_off_c, 0, 78, 61
1, 82765, Control_c, 0, 64, 100
1, 82795, Note_on_c, 0, 50, 21
1, 82813, Note_on_c, 0, 70, 61
1, 82837, Note_off_c, 0, 50, 48
1, 82843, Note_off_c, 0, 70, 65
1, 82848, Note_off_c, 0, 71, 41
1, 82911, Note_on_c, 0, 42, 36
1, 82928, Control_c, 0, 64, 102
1, 82972, Note_off_c, 0, 42, 47
1, 82989, Note_on_c, 0, 50, 44
1, 83028, Note_off_c, 0, 50, 62
1, 83121, Control_c, 0, 64, 99
1, 83136, Control_c, 0, 64, 95
1, 83151, Control_c, 0, 64, 89
1, 83161, Note_on_c, 0, 74, 55
1, 83166, Control_c, 0, 64, 79
1, 83182, Note_on_c, 0, 69, 41
1, 83189, Control_c, 0, 64, 70
1, 83200, Note_on_c, 0, 59, 33
1, 83203, Control_c, 0, 64, 65
1, 83218, Control_c, 0, 64, 63
1, 83233, Control_c, 0, 64, 64
1, 83248, Control_c, 0, 64, 67
1, 83263, Control_c, 0, 64, 71
1, 83272, Note_off_c, 0, 59, 39
1, 83277, Control_c, 0, 64, 78
1, 83292, Control_c, 0, 64, 85
1, 83307, Control_c, 0, 64, 91
1, 83322, Control_c, 0, 64, 94
1, 83326, Note_on_c, 0, 50, 45
1, 83336, Control_c, 0, 64, 95
1, 83351, Control_c, 0, 64, 96
1, 83370, Note_off_c, 0, 50, 60
1, 83381, Control_c, 0, 64, 99
1, 83381, Control_c, 0, 67, 8
1, 83426, Note_on_c, 0, 42, 55
1, 83430, Note_off_c, 0, 69, 53
1, 83440, Control_c, 0, 67, 10
1, 83448, Note_on_c, 0, 66, 55
1, 83475, Note_off_c, 0, 42, 58
1, 83500, Control_c, 0, 67, 12
1, 83549, Note_on_c, 0, 48, 22
1, 83551, Note_off_c, 0, 66, 31
1, 83591, Note_on_c, 0, 69, 62
1, 83593, Note_off_c, 0, 48, 50
1, 83648, Control_c, 0, 67, 14
1, 83663, Control_c, 0, 64, 93
1, 83677, Poly_aftertouch_c, 0, 42, 0
1, 83677, Control_c, 0, 64, 86
1, 83680, Note_on_c, 0, 35, 61
1, 83692, Control_c, 0, 64, 77
1, 83694, Note_off_c, 0, 69, 58
1, 83707, Control_c, 0, 64, 74
1, 83717, Note_on_c, 0, 66, 70
1, 83722, Control_c, 0, 64, 75
1, 83737, Control_c, 0, 64, 81
1, 83752, Control_c, 0, 64, 92
1, 83752, Control_c, 0, 67, 16
1, 83753, Note_off_c, 0, 35, 61
1, 83767, Control_c, 0, 64, 105
1, 83782, Control_c, 0, 64, 127
1, 83798, Note_on_c, 0, 42, 60
1, 83848, Note_off_c, 0, 42, 58
1, 83873, Note_off_c, 0, 66, 61
1, 83876, Note_on_c, 0, 50, 57
1, 83884, Note_off_c, 0, 74, 32
1, 83906, Note_on_c, 0, 73, 84
1, 83931, Note_off_c, 0, 50, 63
1, 83955, Note_off_c, 0, 73, 59
1, 83966, Note_on_c, 0, 42, 59
1, 84032, Note_off_c, 0, 42, 58
1, 84044, Note_on_c, 0, 50, 60
1, 84098, Note_off_c, 0, 50, 63
1, 84101, Control_c, 0, 64, 103
1, 84116, Control_c, 0, 64, 91
1, 84131, Control_c, 0, 64, 81
1, 84145, Control_c, 0, 64, 76
1, 84160, Control_c, 0, 64, 77
1, 84163, Note_on_c, 0, 73, 83
1, 84175, Control_c, 0, 64, 81
1, 84184, Note_on_c, 0, 69, 63
1, 84190, Control_c, 0, 64, 89
1, 84200, Note_on_c, 0, 59, 22
1, 84204, Control_c, 0, 64, 98
1, 84219, Control_c, 0, 64, 108
1, 84233, Control_c, 0, 64, 120
1, 84236, Poly_aftertouch_c, 0, 57, 127
1, 84247, Note_off_c, 0, 59, 45
1, 84248, Control_c, 0, 64, 127
1, 84283, Poly_aftertouch_c, 0, 57, 0
1, 84289, Note_on_c, 0, 50, 47
1, 84324, Note_off_c, 0, 50, 58
1, 84343, Note_off_c, 0, 73, 61
1, 84365, Note_on_c, 0, 42, 67
1, 84384, Note_on_c, 0, 72, 86
1, 84427, Note_off_c, 0, 42, 56
1, 84461, Note_on_c, 0, 50, 53
1, 84482, Note_off_c, 0, 72, 58
1, 84515, Note_off_c, 0, 50, 58
1, 84550, Note_on_c, 0, 42, 57
1, 84554, Note_on_c, 0, 74, 89
1, 84559, Note_off_c, 0, 69, 62
1, 84578, Note_off_c, 0, 74, 67
1, 84604, Control_c, 0, 67, 14
1, 84644, Note_off_c, 0, 42, 58
1, 84648, Note_on_c, 0, 35, 79
1, 84760, Control_c, 0, 64, 114
1, 84774, Control_c, 0, 64, 104
1, 84789, Control_c, 0, 64, 95
1, 84793, Note_on_c, 0, 71, 85
1, 84804, Control_c, 0, 64, 86
1, 84813, Note_on_c, 0, 62, 63
1, 84819, Control_c, 0, 64, 76
1, 84819, Control_c, 0, 67, 12
1, 84834, Control_c, 0, 64, 68
1, 84849, Control_c, 0, 64, 65
1, 84864, Control_c, 0, 64, 65
1, 84877, Note_off_c, 0, 62, 0
1, 84879, Control_c, 0, 64, 68
1, 84894, Control_c, 0, 64, 74
1, 84908, Control_c, 0, 64, 85
1, 84914, Poly_aftertouch_c, 0, 62, 127
1, 84923, Control_c, 0, 64, 99
1, 84938, Control_c, 0, 64, 114
1, 84945, Note_off_c, 0, 35, 55
1, 84953, Control_c, 0, 64, 124
1, 84961, Note_on_c, 0, 43, 60
1, 84968, Control_c, 0, 64, 127
1, 85001, Poly_aftertouch_c, 0, 62, 0
1, 85032, Note_on_c, 0, 64, 73
1, 85034, Note_off_c, 0, 43, 58
1, 85062, Note_off_c, 0, 64, 63
1, 85072, Note_on_c, 0, 50, 47
1, 85100, Control_c, 0, 67, 10
1, 85119, Note_on_c, 0, 70, 87
1, 85127, Note_off_c, 0, 50, 62
1, 85142, Note_off_c, 0, 71, 62
1, 85169, Note_on_c, 0, 43, 62
1, 85200, Note_on_c, 0, 62, 85
1, 85201, Note_off_c, 0, 70, 61
1, 85217, Note_off_c, 0, 43, 53
1, 85221, Note_off_c, 0, 62, 70
1, 85263, Control_c, 0, 67, 8
1, 85274, Note_on_c, 0, 52, 32
1, 85305, Note_off_c, 0, 52, 57
1, 85344, Poly_aftertouch_c, 0, 62, 127
1, 85353, Control_c, 0, 67, 0
1, 85367, Poly_aftertouch_c, 0, 62, 0
1, 85410, Note_on_c, 0, 59, 49
1, 85412, Control_c, 0, 64, 120
1, 85425, Note_on_c, 0, 69, 91
1, 85434, Note_on_c, 0, 65, 77
1, 85435, Control_c, 0, 64, 109
1, 85449, Control_c, 0, 64, 97
1, 85464, Control_c, 0, 64, 85
1, 85479, Control_c, 0, 64, 75
1, 85494, Control_c, 0, 64, 67
1, 85499, Note_off_c, 0, 59, 54
1, 85509, Control_c, 0, 64, 68
1, 85524, Control_c, 0, 64, 74
1, 85538, Control_c, 0, 64, 84
1, 85553, Control_c, 0, 64, 100
1, 85555, Note_on_c, 0, 53, 57
1, 85568, Control_c, 0, 64, 121
1, 85583, Control_c, 0, 64, 127
1, 85600, Note_off_c, 0, 53, 57
1, 85642, Note_on_c, 0, 43, 52
1, 85703, Note_off_c, 0, 43, 56
1, 85780, Note_on_c, 0, 68, 86
1, 85793, Note_on_c, 0, 48, 39
1, 85794, Note_off_c, 0, 69, 58
1, 85830, Note_off_c, 0, 48, 63
1, 85862, Poly_aftertouch_c, 0, 50, 0
1, 85865, Note_off_c, 0, 68, 63
1, 85900, Note_on_c, 0, 43, 55
1, 85953, Control_c, 0, 64, 120
1, 85966, Note_off_c, 0, 43, 57
1, 85968, Control_c, 0, 64, 115
1, 85982, Note_on_c, 0, 35, 61
1, 85983, Control_c, 0, 64, 109
1, 85997, Control_c, 0, 64, 103
1, 86012, Control_c, 0, 64, 96
1, 86027, Control_c, 0, 64, 86
1, 86035, Note_on_c, 0, 67, 80
1, 86041, Control_c, 0, 64, 76
1, 86056, Control_c, 0, 64, 69
1, 86071, Control_c, 0, 64, 66
1, 86086, Control_c, 0, 64, 69
1, 86101, Control_c, 0, 64, 75
1, 86116, Control_c, 0, 64, 83
1, 86116, Note_off_c, 0, 35, 57
1, 86131, Control_c, 0, 64, 94
1, 86146, Control_c, 0, 64, 102
1, 86185, Note_on_c, 0, 43, 48
1, 86214, Control_c, 0, 64, 104
1, 86226, Note_off_c, 0, 43, 58
1, 86292, Note_on_c, 0, 50, 39
1, 86302, Control_c, 0, 67, 8
1, 86326, Note_off_c, 0, 65, 59
1, 86337, Note_on_c, 0, 66, 81
1, 86342, Note_off_c, 0, 67, 61
1, 86354, Note_off_c, 0, 50, 60
1, 86376, Control_c, 0, 67, 10
1, 86381, Note_off_c, 0, 66, 63
1, 86443, Note_on_c, 0, 43, 6
1, 86480, Control_c, 0, 67, 12
1, 86485, Note_off_c, 0, 43, 51
1, 86510, Note_on_c, 0, 50, 47
1, 86556, Note_off_c, 0, 50, 60
1, 86643, Control_c, 0, 64, 100
1, 86658, Control_c, 0, 64, 96
1, 86660, Note_on_c, 0, 55, 67
1, 86673, Control_c, 0, 64, 89
1, 86685, Note_on_c, 0, 59, 47
1, 86688, Control_c, 0, 64, 81
1, 86703, Control_c, 0, 64, 73
1, 86704, Note_on_c, 0, 57, 33
1, 86718, Control_c, 0, 64, 68
1, 86740, Note_off_c, 0, 57, 47
1, 86747, Control_c, 0, 64, 71
1, 86750, Note_off_c, 0, 59, 44
1, 86762, Control_c, 0, 64, 77
1, 86777, Control_c, 0, 64, 85
1, 86777, Control_c, 0, 67, 14
1, 86791, Control_c, 0, 64, 93
1, 86795, Note_on_c, 0, 53, 57
1, 86806, Control_c, 0, 64, 98
1, 86862, Note_off_c, 0, 53, 50
1, 86880, Control_c, 0, 64, 100
1, 86895, Control_c, 0, 67, 16
1, 86936, Note_on_c, 0, 43, 35
1, 86983, Note_off_c, 0, 43, 55
1, 87062, Note_off_c, 0, 55, 53
1, 87066, Note_on_c, 0, 65, 73
1, 87187, Poly_aftertouch_c, 0, 50, 127
1, 87225, Poly_aftertouch_c, 0, 50, 0
1, 87255, Note_on_c, 0, 43, 38
1, 87421, Control_c, 0, 64, 98
1, 87436, Control_c, 0, 64, 96
1, 87451, Note_off_c, 0, 43, 30
1, 87451, Control_c, 0, 64, 94
1, 87456, Note_on_c, 0, 36, 42
1, 87466, Control_c, 0, 64, 92
1, 87481, Control_c, 0, 64, 90
1, 87496, Control_c, 0, 64, 89
1, 87511, Control_c, 0, 64, 87
1, 87526, Control_c, 0, 64, 84
1, 87541, Control_c, 0, 64, 81
1, 87556, Control_c, 0, 64, 78
1, 87570, Control_c, 0, 64, 76
1, 87585, Control_c, 0, 64, 75
1, 87618, Note_off_c, 0, 65, 58
1, 87629, Control_c, 0, 64, 74
1, 87642, Note_on_c, 0, 64, 52
1, 87644, Control_c, 0, 64, 74
1, 87659, Control_c, 0, 64, 72
1, 87680, Note_on_c, 0, 60, 33
1, 87681, Control_c, 0, 64, 69
1, 87696, Control_c, 0, 64, 67
1, 87711, Control_c, 0, 64, 64
1, 87725, Control_c, 0, 64, 46
1, 87740, Control_c, 0, 64, 0
1, 87815, Control_c, 0, 64, 61
1, 87830, Control_c, 0, 64, 68
1, 87845, Control_c, 0, 64, 74
1, 87860, Control_c, 0, 64, 83
1, 87875, Control_c, 0, 64, 93
1, 87889, Control_c, 0, 64, 100
1, 87904, Control_c, 0, 64, 103
1, 87919, Note_off_c, 0, 36, 30
1, 87919, Control_c, 0, 64, 106
1, 87926, Note_off_c, 0, 60, 38
1, 87934, Control_c, 0, 64, 109
1, 87949, Control_c, 0, 64, 113
1, 87958, Note_off_c, 0, 64, 60
1, 87964, Control_c, 0, 64, 117
1, 88182, Poly_aftertouch_c, 0, 43, 127
1, 88221, Poly_aftertouch_c, 0, 43, 0
1, 88343, Note_on_c, 0, 76, 44
1, 88354, Note_on_c, 0, 64, 31
1, 88379, Note_on_c, 0, 52, 21
1, 88459, Note_off_c, 0, 52, 54
1, 88478, Note_off_c, 0, 64, 42
1, 88492, Note_off_c, 0, 76, 34
1, 88521, Note_on_c, 0, 43, 41
1, 88601, Note_off_c, 0, 43, 51
1, 88691, Note_on_c, 0, 52, 52
1, 88787, Note_off_c, 0, 52, 56
1, 88927, Note_on_c, 0, 60, 47
1, 88982, Note_on_c, 0, 76, 48
1, 88989, Note_on_c, 0, 72, 41
1, 89042, Poly_aftertouch_c, 0, 64, 127
1, 89070, Note_off_c, 0, 60, 54
1, 89088, Poly_aftertouch_c, 0, 64, 0
1, 89117, Note_off_c, 0, 76, 53
1, 89193, Note_off_c, 0, 72, 59
1, 89211, Note_on_c, 0, 52, 39
1, 89270, Note_off_c, 0, 52, 58
1, 89332, Note_on_c, 0, 43, 34
1, 89370, Note_off_c, 0, 43, 56
1, 89442, Note_on_c, 0, 52, 33
1, 89462, Note_on_c, 0, 79, 54
1, 89479, Note_off_c, 0, 52, 53
1, 89482, Note_on_c, 0, 67, 27
1, 89520, Note_off_c, 0, 79, 51
1, 89523, Note_off_c, 0, 67, 48
1, 89612, Poly_aftertouch_c, 0, 43, 127
1, 89646, Poly_aftertouch_c, 0, 43, 0
1, 89672, Note_on_c, 0, 36, 44
1, 89712, Control_c, 0, 67, 14
1, 89721, Note_off_c, 0, 36, 59
1, 89835, Note_on_c, 0, 79, 58
1, 89856, Note_on_c, 0, 67, 38
1, 89884, Note_off_c, 0, 79, 55
1, 89899, Note_off_c, 0, 67, 64
1, 90015, Control_c, 0, 64, 119
1, 90033, Note_on_c, 0, 54, 47
1, 90045, Control_c, 0, 64, 127
1, 90096, Note_off_c, 0, 54, 53
1, 90197, Note_on_c, 0, 76, 42
1, 90200, Note_on_c, 0, 64, 33
1, 90244, Note_off_c, 0, 76, 43
1, 90251, Note_on_c, 0, 48, 38
1, 90256, Note_off_c, 0, 64, 41
1, 90333, Note_off_c, 0, 48, 58
1, 90357, Note_on_c, 0, 43, 61
1, 90536, Control_c, 0, 67, 12
1, 90551, Control_c, 0, 64, 117
1, 90560, Note_on_c, 0, 55, 72
1, 90565, Control_c, 0, 64, 105
1, 90580, Control_c, 0, 64, 96
1, 90595, Control_c, 0, 64, 87
1, 90610, Control_c, 0, 64, 79
1, 90617, Note_on_c, 0, 76, 51
1, 90620, Note_on_c, 0, 71, 41
1, 90625, Control_c, 0, 64, 70
1, 90639, Control_c, 0, 64, 65
1, 90654, Control_c, 0, 64, 63
1, 90677, Control_c, 0, 64, 64
1, 90691, Control_c, 0, 64, 65
1, 90706, Control_c, 0, 64, 68
1, 90721, Control_c, 0, 64, 74
1, 90736, Control_c, 0, 64, 81
1, 90745, Note_off_c, 0, 55, 60
1, 90751, Control_c, 0, 64, 91
1, 90754, Note_off_c, 0, 76, 53
1, 90765, Control_c, 0, 64, 99
1, 90780, Control_c, 0, 64, 104
1, 90795, Control_c, 0, 64, 107
1, 90810, Control_c, 0, 64, 110
1, 90825, Control_c, 0, 64, 113
1, 90839, Control_c, 0, 64, 116
1, 90854, Control_c, 0, 64, 119
1, 90866, Note_on_c, 0, 48, 16
1, 90899, Control_c, 0, 64, 123
1, 90910, Note_off_c, 0, 48, 53
1, 90914, Control_c, 0, 64, 127
1, 90916, Note_off_c, 0, 43, 37
1, 90999, Note_on_c, 0, 78, 58
1, 91016, Note_on_c, 0, 66, 42
1, 91022, Note_off_c, 0, 71, 61
1, 91046, Note_on_c, 0, 36, 48
1, 91060, Note_off_c, 0, 66, 65
1, 91135, Note_off_c, 0, 36, 56
1, 91165, Note_on_c, 0, 42, 58
1, 91195, Note_off_c, 0, 78, 54
1, 91238, Note_off_c, 0, 42, 57
1, 91281, Note_on_c, 0, 52, 58
1, 91344, Note_off_c, 0, 52, 58
1, 91469, Note_on_c, 0, 58, 54
1, 91499, Control_c, 0, 64, 116
1, 91514, Control_c, 0, 64, 102
1, 91529, Control_c, 0, 64, 94
1, 91533, Note_on_c, 0, 75, 57
1, 91543, Note_on_c, 0, 63, 55
1, 91544, Control_c, 0, 64, 87
1, 91552, Note_on_c, 0, 70, 66
1, 91559, Control_c, 0, 64, 81
1, 91574, Control_c, 0, 64, 75
1, 91588, Control_c, 0, 64, 69
1, 91603, Control_c, 0, 64, 64
1, 91618, Control_c, 0, 64, 60
1, 91633, Control_c, 0, 64, 61
1, 91633, Control_c, 0, 67, 14
1, 91648, Control_c, 0, 64, 64
1, 91662, Control_c, 0, 64, 66
1, 91677, Control_c, 0, 64, 72
1, 91685, Note_off_c, 0, 58, 53
1, 91692, Control_c, 0, 64, 81
1, 91707, Control_c, 0, 64, 94
1, 91721, Control_c, 0, 64, 108
1, 91738, Control_c, 0, 64, 117
1, 91753, Control_c, 0, 64, 122
1, 91767, Control_c, 0, 64, 127
1, 91806, Note_off_c, 0, 63, 60
1, 91926, Note_on_c, 0, 52, 27
1, 92004, Note_off_c, 0, 52, 43
1, 92031, Note_on_c, 0, 42, 48
1, 92083, Note_off_c, 0, 42, 58
1, 92130, Note_on_c, 0, 52, 47
1, 92173, Note_off_c, 0, 52, 60
1, 92221, Note_on_c, 0, 42, 50
1, 92319, Note_off_c, 0, 42, 58
1, 92336, Note_on_c, 0, 36, 58
1, 92391, Note_off_c, 0, 36, 57
1, 92398, Note_on_c, 0, 78, 64
1, 92402, Note_off_c, 0, 70, 59
1, 92406, Note_on_c, 0, 66, 52
1, 92426, Control_c, 0, 67, 12
1, 92435, Note_off_c, 0, 75, 60
1, 92440, Note_off_c, 0, 66, 65
1, 92447, Note_on_c, 0, 42, 43
1, 92459, Note_off_c, 0, 78, 60
1, 92478, Note_off_c, 0, 42, 54
1, 92519, Note_on_c, 0, 52, 56
1, 92572, Note_off_c, 0, 52, 58
1, 92633, Control_c, 0, 64, 112
1, 92643, Note_on_c, 0, 51, 65
1, 92648, Control_c, 0, 64, 93
1, 92663, Control_c, 0, 64, 80
1, 92670, Note_on_c, 0, 74, 65
1, 92677, Note_on_c, 0, 62, 50
1, 92678, Note_on_c, 0, 69, 51
1, 92678, Control_c, 0, 64, 69
1, 92693, Control_c, 0, 64, 59
1, 92707, Control_c, 0, 64, 63
1, 92722, Control_c, 0, 64, 67
1, 92737, Control_c, 0, 64, 74
1, 92752, Control_c, 0, 64, 84
1, 92764, Note_off_c, 0, 51, 50
1, 92766, Control_c, 0, 64, 94
1, 92781, Control_c, 0, 64, 100
1, 92796, Note_off_c, 0, 62, 42
1, 92803, Note_on_c, 0, 41, 64
1, 92826, Control_c, 0, 64, 102
1, 92862, Note_off_c, 0, 41, 46
1, 92894, Note_off_c, 0, 74, 58
1, 92900, Control_c, 0, 64, 104
1, 92933, Note_on_c, 0, 77, 77
1, 92939, Note_on_c, 0, 65, 70
1, 92976, Note_off_c, 0, 65, 65
1, 92981, Control_c, 0, 64, 108
1, 92992, Note_off_c, 0, 77, 60
1, 92996, Control_c, 0, 64, 111
1, 93000, Poly_aftertouch_c, 0, 57, 127
1, 93011, Control_c, 0, 64, 114
1, 93039, Poly_aftertouch_c, 0, 57, 0
1, 93055, Control_c, 0, 64, 121
1, 93055, Control_c, 0, 67, 14
1, 93064, Note_on_c, 0, 41, 54
1, 93070, Control_c, 0, 64, 127
1, 93103, Note_off_c, 0, 41, 60
1, 93130, Control_c, 0, 67, 16
1, 93184, Note_on_c, 0, 73, 68
1, 93186, Note_on_c, 0, 61, 60
1, 93194, Note_on_c, 0, 51, 47
1, 93222, Note_off_c, 0, 51, 55
1, 93234, Note_off_c, 0, 61, 56
1, 93486, Note_off_c, 0, 73, 52
1, 93491, Note_on_c, 0, 77, 59
1, 93500, Note_off_c, 0, 69, 45
1, 93508, Note_on_c, 0, 65, 50
1, 93534, Note_off_c, 0, 77, 58
1, 93538, Note_off_c, 0, 65, 66
1, 93813, Note_on_c, 0, 38, 45
1, 93849, Control_c, 0, 64, 124
1, 93863, Control_c, 0, 64, 110
1, 93878, Control_c, 0, 64, 100
1, 93893, Control_c, 0, 64, 90
1, 93908, Control_c, 0, 64, 77
1, 93912, Note_on_c, 0, 72, 61
1, 93923, Note_on_c, 0, 66, 45
1, 93923, Control_c, 0, 64, 68
1, 93927, Note_on_c, 0, 60, 46
1, 93938, Control_c, 0, 64, 59
1, 93953, Control_c, 0, 64, 13
1, 93968, Control_c, 0, 64, 50
1, 93983, Control_c, 0, 64, 64
1, 93997, Control_c, 0, 64, 68
1, 94012, Control_c, 0, 64, 75
1, 94027, Control_c, 0, 64, 85
1, 94042, Control_c, 0, 64, 98
1, 94048, Note_off_c, 0, 60, 52
1, 94057, Control_c, 0, 64, 110
1, 94067, Note_off_c, 0, 38, 34
1, 94072, Control_c, 0, 64, 121
1, 94087, Control_c, 0, 64, 127
1, 94091, Note_on_c, 0, 45, 57
1, 94112, Note_off_c, 0, 66, 60
1, 94125, Note_off_c, 0, 45, 63
1, 94140, Note_off_c, 0, 72, 55
1, 94206, Control_c, 0, 67, 14
1, 94236, Control_c, 0, 67, 11
1, 94251, Control_c, 0, 67, 0
1, 94253, Note_on_c, 0, 66, 60
1, 94255, Note_on_c, 0, 54, 59
1, 94257, Note_on_c, 0, 78, 66
1, 94283, Note_off_c, 0, 66, 65
1, 94292, Note_off_c, 0, 78, 58
1, 94298, Note_off_c, 0, 54, 56
1, 94363, Note_on_c, 0, 60, 59
1, 94456, Note_off_c, 0, 60, 46
1, 94531, Note_on_c, 0, 63, 83
1, 94569, Control_c, 0, 64, 119
1, 94584, Control_c, 0, 64, 100
1, 94599, Control_c, 0, 64, 86
1, 94613, Control_c, 0, 64, 77
1, 94628, Control_c, 0, 64, 72
1, 94635, Note_on_c, 0, 78, 69
1, 94638, Note_on_c, 0, 66, 58
1, 94642, Note_on_c, 0, 72, 57
1, 94643, Control_c, 0, 64, 73
1, 94658, Control_c, 0, 64, 77
1, 94673, Control_c, 0, 64, 85
1, 94687, Control_c, 0, 64, 97
1, 94702, Control_c, 0, 64, 104
1, 94717, Control_c, 0, 64, 107
1, 94732, Note_off_c, 0, 63, 57
1, 94746, Control_c, 0, 64, 111
1, 94749, Note_off_c, 0, 66, 61
1, 94761, Control_c, 0, 64, 114
1, 94776, Control_c, 0, 64, 117
1, 94791, Control_c, 0, 64, 119
1, 94830, Note_on_c, 0, 60, 64
1, 94880, Note_off_c, 0, 60, 53
1, 94955, Note_on_c, 0, 81, 80
1, 94957, Note_on_c, 0, 69, 76
1, 94960, Note_off_c, 0, 72, 59
1, 94960, Note_off_c, 0, 78, 58
1, 94974, Note_on_c, 0, 54, 57
1, 94997, Note_off_c, 0, 69, 60
1, 95015, Note_off_c, 0, 81, 55
1, 95065, Note_on_c, 0, 45, 68
1, 95071, Note_off_c, 0, 54, 59
1, 95118, Control_c, 0, 64, 117
1, 95133, Control_c, 0, 64, 112
1, 95148, Control_c, 0, 64, 105
1, 95162, Note_on_c, 0, 54, 3
1, 95169, Control_c, 0, 64, 96
1, 95184, Control_c, 0, 64, 87
1, 95199, Control_c, 0, 64, 79
1, 95214, Control_c, 0, 64, 72
1, 95229, Control_c, 0, 64, 67
1, 95234, Note_on_c, 0, 56, 79
1, 95234, Note_on_c, 0, 81, 70
1, 95240, Note_on_c, 0, 69, 60
1, 95241, Note_on_c, 0, 72, 52
1, 95243, Control_c, 0, 64, 65
1, 95256, Note_off_c, 0, 54, 44
1, 95258, Control_c, 0, 64, 66
1, 95273, Control_c, 0, 64, 69
1, 95288, Control_c, 0, 64, 73
1, 95303, Control_c, 0, 64, 78
1, 95318, Control_c, 0, 64, 87
1, 95333, Control_c, 0, 64, 96
1, 95336, Note_off_c, 0, 81, 55
1, 95348, Control_c, 0, 64, 100
1, 95357, Note_off_c, 0, 69, 57
1, 95362, Control_c, 0, 64, 102
1, 95366, Note_off_c, 0, 56, 62
1, 95391, Note_off_c, 0, 45, 37
1, 95392, Control_c, 0, 64, 106
1, 95404, Note_on_c, 0, 54, 63
1, 95407, Control_c, 0, 64, 109
1, 95434, Control_c, 0, 64, 111
1, 95479, Control_c, 0, 64, 113
1, 95513, Note_off_c, 0, 54, 60
1, 95515, Note_on_c, 0, 48, 74
1, 95518, Note_on_c, 0, 78, 79
1, 95521, Note_on_c, 0, 66, 78
1, 95610, Note_off_c, 0, 66, 56
1, 95613, Control_c, 0, 64, 109
1, 95614, Note_on_c, 0, 54, 81
1, 95620, Note_off_c, 0, 78, 54
1, 95627, Control_c, 0, 64, 104
1, 95632, Note_off_c, 0, 72, 0
1, 95642, Control_c, 0, 64, 100
1, 95657, Control_c, 0, 64, 94
1, 95670, Poly_aftertouch_c, 0, 72, 127
1, 95672, Control_c, 0, 64, 87
1, 95686, Control_c, 0, 64, 80
1, 95701, Control_c, 0, 64, 74
1, 95716, Control_c, 0, 64, 70
1, 95719, Note_on_c, 0, 57, 83
1, 95732, Control_c, 0, 64, 71
1, 95747, Control_c, 0, 64, 76
1, 95756, Note_off_c, 0, 54, 62
1, 95760, Note_on_c, 0, 66, 70
1, 95762, Control_c, 0, 64, 84
1, 95762, Note_on_c, 0, 78, 78
1, 95774, Note_off_c, 0, 57, 61
1, 95777, Control_c, 0, 64, 93
1, 95791, Control_c, 0, 64, 101
1, 95806, Control_c, 0, 64, 106
1, 95807, Note_off_c, 0, 48, 62
1, 95821, Control_c, 0, 64, 110
1, 95836, Control_c, 0, 64, 118
1, 95842, Note_off_c, 0, 66, 58
1, 95850, Control_c, 0, 64, 127
1, 95947, Control_c, 0, 64, 115
1, 95962, Control_c, 0, 64, 92
1, 95965, Note_on_c, 0, 38, 65
1, 95977, Control_c, 0, 64, 76
1, 95989, Note_on_c, 0, 80, 78
1, 95991, Control_c, 0, 64, 69
1, 96002, Note_on_c, 0, 68, 69
1, 96006, Control_c, 0, 64, 72
1, 96006, Control_c, 0, 67, 8
1, 96013, Note_off_c, 0, 78, 58
1, 96021, Control_c, 0, 64, 80
1, 96024, Poly_aftertouch_c, 0, 72, 0
1, 96036, Control_c, 0, 64, 100
1, 96037, Note_off_c, 0, 38, 59
1, 96040, Note_on_c, 0, 44, 65
1, 96051, Control_c, 0, 64, 127
1, 96081, Note_off_c, 0, 68, 62
1, 96090, Note_off_c, 0, 80, 63
1, 96118, Note_off_c, 0, 44, 62
1, 96141, Note_on_c, 0, 53, 78
1, 96222, Note_off_c, 0, 53, 59
1, 96243, Control_c, 0, 67, 0
1, 96302, Note_on_c, 0, 60, 74
1, 96307, Note_on_c, 0, 59, 79
1, 96331, Control_c, 0, 64, 123
1, 96346, Control_c, 0, 64, 99
1, 96361, Control_c, 0, 64, 84
1, 96367, Note_on_c, 0, 77, 70
1, 96373, Note_on_c, 0, 72, 47
1, 96376, Control_c, 0, 64, 72
1, 96378, Note_on_c, 0, 65, 61
1, 96391, Control_c, 0, 64, 64
1, 96406, Control_c, 0, 64, 63
1, 96421, Control_c, 0, 64, 67
1, 96436, Control_c, 0, 64, 75
1, 96450, Control_c, 0, 64, 86
1, 96453, Note_off_c, 0, 59, 33
1, 96465, Control_c, 0, 64, 103
1, 96467, Note_off_c, 0, 60, 56
1, 96480, Control_c, 0, 64, 127
1, 96582, Note_on_c, 0, 53, 68
1, 96669, Note_off_c, 0, 53, 58
1, 96705, Note_on_c, 0, 44, 65
1, 96710, Note_off_c, 0, 65, 52
1, 96781, Note_off_c, 0, 44, 62
1, 96796, Note_on_c, 0, 53, 72
1, 96859, Note_off_c, 0, 53, 62
1, 96879, Note_on_c, 0, 44, 79
1, 96903, Control_c, 0, 64, 117
1, 96918, Control_c, 0, 64, 101
1, 96933, Control_c, 0, 64, 88
1, 96948, Control_c, 0, 64, 79
1, 96963, Note_off_c, 0, 44, 63
1, 96963, Control_c, 0, 64, 76
1, 96969, Note_on_c, 0, 38, 76
1, 96978, Control_c, 0, 64, 78
1, 96993, Control_c, 0, 64, 85
1, 97007, Control_c, 0, 64, 93
1, 97022, Control_c, 0, 64, 96
1, 97052, Control_c, 0, 64, 98
1, 97061, Note_off_c, 0, 38, 60
1, 97062, Note_on_c, 0, 44, 70
1, 97067, Note_on_c, 0, 79, 82
1, 97076, Note_on_c, 0, 67, 75
1, 97080, Note_off_c, 0, 72, 60
1, 97081, Control_c, 0, 64, 104
1, 97089, Note_off_c, 0, 77, 53
1, 97096, Control_c, 0, 64, 112
1, 97111, Control_c, 0, 64, 119
1, 97113, Note_off_c, 0, 67, 63
1, 97118, Note_off_c, 0, 79, 65
1, 97125, Control_c, 0, 64, 127
1, 97126, Note_off_c, 0, 44, 62
1, 97154, Note_on_c, 0, 53, 73
1, 97213, Note_off_c, 0, 53, 62
1, 97273, Control_c, 0, 64, 112
1, 97287, Note_on_c, 0, 53, 63
1, 97288, Control_c, 0, 64, 99
1, 97303, Control_c, 0, 64, 87
1, 97318, Control_c, 0, 64, 76
1, 97334, Control_c, 0, 64, 67
1, 97345, Note_on_c, 0, 64, 67
1, 97348, Note_on_c, 0, 76, 71
1, 97348, Control_c, 0, 64, 62
1, 97349, Note_on_c, 0, 71, 69
1, 97363, Control_c, 0, 64, 65
1, 97378, Control_c, 0, 64, 70
1, 97393, Control_c, 0, 64, 79
1, 97410, Note_off_c, 0, 53, 62
1, 97416, Control_c, 0, 64, 90
1, 97430, Control_c, 0, 64, 98
1, 97438, Note_on_c, 0, 43, 71
1, 97442, Note_off_c, 0, 64, 59
1, 97445, Control_c, 0, 64, 102
1, 97490, Control_c, 0, 64, 104
1, 97500, Note_on_c, 0, 53, 69
1, 97504, Note_off_c, 0, 43, 52
1, 97539, Note_off_c, 0, 76, 56
1, 97541, Poly_aftertouch_c, 0, 45, 127
1, 97563, Poly_aftertouch_c, 0, 45, 0
1, 97583, Note_on_c, 0, 79, 83
1, 97586, Note_on_c, 0, 67, 74
1, 97587, Note_on_c, 0, 59, 73
1, 97591, Note_off_c, 0, 53, 60
1, 97616, Note_off_c, 0, 59, 65
1, 97625, Note_off_c, 0, 67, 61
1, 97641, Note_off_c, 0, 79, 57
1, 97656, Note_on_c, 0, 53, 52
1, 97694, Note_off_c, 0, 53, 62
1, 97712, Control_c, 0, 64, 107
1, 97714, Note_on_c, 0, 43, 71
1, 97726, Control_c, 0, 64, 110
1, 97741, Control_c, 0, 64, 119
1, 97745, Note_on_c, 0, 45, 35
1, 97755, Note_off_c, 0, 43, 60
1, 97756, Control_c, 0, 64, 127
1, 97780, Note_off_c, 0, 45, 55
1, 97788, Note_on_c, 0, 63, 82
1, 97795, Note_on_c, 0, 75, 81
1, 97806, Note_on_c, 0, 55, 68
1, 97819, Note_on_c, 0, 53, 61
1, 97827, Note_off_c, 0, 55, 62
1, 97840, Note_off_c, 0, 53, 62
1, 97843, Note_off_c, 0, 63, 63
1, 97890, Note_off_c, 0, 71, 0
1, 97924, Note_on_c, 0, 38, 86
1, 97927, Poly_aftertouch_c, 0, 71, 127
1, 97949, Note_off_c, 0, 38, 64
1, 98050, Note_on_c, 0, 79, 86
1, 98057, Note_on_c, 0, 67, 89
1, 98073, Poly_aftertouch_c, 0, 71, 0
1, 98073, Note_off_c, 0, 75, 35
1, 98079, Note_off_c, 0, 67, 69
1, 98090, Note_off_c, 0, 79, 67
1, 98253, Note_on_c, 0, 40, 85
1, 98357, Control_c, 0, 64, 90
1, 98372, Control_c, 0, 64, 72
1, 98376, Note_on_c, 0, 74, 83
1, 98379, Note_on_c, 0, 62, 80
1, 98382, Note_on_c, 0, 68, 79
1, 98386, Control_c, 0, 64, 0
1, 98416, Control_c, 0, 64, 63
1, 98431, Note_on_c, 0, 64, 13
1, 98432, Note_off_c, 0, 64, 127
1, 98432, Control_c, 0, 64, 73
1, 98446, Control_c, 0, 64, 87
1, 98460, Control_c, 0, 64, 113
1, 98475, Control_c, 0, 64, 127
1, 98481, Note_off_c, 0, 62, 60
1, 98500, Note_off_c, 0, 40, 62
1, 98543, Note_on_c, 0, 47, 88
1, 98585, Note_off_c, 0, 47, 63
1, 98630, Note_off_c, 0, 74, 54
1, 98658, Note_on_c, 0, 77, 89
1, 98660, Note_on_c, 0, 65, 94
1, 98678, Note_off_c, 0, 68, 52
1, 98686, Note_off_c, 0, 65, 68
1, 98704, Note_off_c, 0, 77, 63
1, 98785, Note_on_c, 0, 56, 81
1, 98972, Note_on_c, 0, 62, 95
1, 98987, Control_c, 0, 64, 110
1, 99002, Control_c, 0, 64, 95
1, 99009, Note_on_c, 0, 74, 37
1, 99017, Control_c, 0, 64, 83
1, 99020, Note_on_c, 0, 68, 77
1, 99021, Note_on_c, 0, 80, 83
1, 99029, Note_on_c, 0, 54, 10
1, 99032, Control_c, 0, 64, 72
1, 99047, Control_c, 0, 64, 64
1, 99047, Poly_aftertouch_c, 0, 57, 127
1, 99062, Control_c, 0, 64, 65
1, 99076, Control_c, 0, 64, 70
1, 99088, Note_off_c, 0, 54, 44
1, 99091, Control_c, 0, 64, 79
1, 99106, Control_c, 0, 64, 95
1, 99121, Control_c, 0, 64, 127
1, 99129, Note_off_c, 0, 62, 60
1, 99143, Poly_aftertouch_c, 0, 57, 0
1, 99146, Note_off_c, 0, 56, 53
1, 99166, Note_off_c, 0, 68, 60
1, 99229, Note_on_c, 0, 57, 83
1, 99237, Note_off_c, 0, 74, 37
1, 99295, Note_off_c, 0, 57, 63
1, 99344, Note_on_c, 0, 83, 86
1, 99345, Note_on_c, 0, 71, 84
1, 99346, Note_on_c, 0, 56, 81
1, 99364, Note_off_c, 0, 80, 40
1, 99379, Note_off_c, 0, 71, 63
1, 99388, Note_off_c, 0, 83, 63
1, 99417, Note_off_c, 0, 56, 61
1, 99451, Note_on_c, 0, 54, 86
1, 99520, Control_c, 0, 64, 110
1, 99534, Control_c, 0, 64, 92
1, 99549, Control_c, 0, 64, 77
1, 99563, Note_on_c, 0, 64, 98
1, 99564, Control_c, 0, 64, 66
1, 99578, Note_off_c, 0, 54, 60
1, 99579, Control_c, 0, 64, 64
1, 99594, Control_c, 0, 64, 68
1, 99601, Note_on_c, 0, 71, 74
1, 99601, Note_on_c, 0, 79, 40
1, 99607, Note_on_c, 0, 83, 80
1, 99608, Control_c, 0, 64, 78
1, 99609, Note_on_c, 0, 76, 62
1, 99623, Control_c, 0, 64, 92
1, 99638, Control_c, 0, 64, 111
1, 99660, Control_c, 0, 64, 127
1, 99707, Note_off_c, 0, 64, 59
1, 99707, Note_off_c, 0, 71, 57
1, 99731, Note_off_c, 0, 83, 59
1, 99772, Note_off_c, 0, 79, 50
1, 99773, Note_on_c, 0, 60, 81
1, 99848, Note_off_c, 0, 60, 57
1, 99855, Note_off_c, 0, 76, 58
1, 99861, Note_on_c, 0, 84, 87
1, 99864, Note_on_c, 0, 72, 88
1, 99888, Note_on_c, 0, 56, 81
1, 99902, Note_off_c, 0, 72, 62
1, 99912, Note_off_c, 0, 84, 64
1, 99947, Note_off_c, 0, 56, 64
1, 99982, Note_on_c, 0, 55, 96
1, 100031, Control_c, 0, 64, 113
1, 100046, Control_c, 0, 64, 96
1, 100061, Control_c, 0, 64, 83
1, 100075, Control_c, 0, 64, 71
1, 100090, Control_c, 0, 64, 65
1, 100105, Control_c, 0, 64, 66
1, 100108, Note_on_c, 0, 67, 94
1, 100120, Control_c, 0, 64, 70
1, 100131, Note_on_c, 0, 71, 81
1, 100131, Note_on_c, 0, 83, 85
1, 100135, Control_c, 0, 64, 78
1, 100140, Note_on_c, 0, 76, 63
1, 100150, Control_c, 0, 64, 89
1, 100165, Control_c, 0, 64, 100
1, 100177, Note_off_c, 0, 67, 50
1, 100180, Control_c, 0, 64, 106
1, 100195, Control_c, 0, 64, 112
1, 100210, Control_c, 0, 64, 127
1, 100229, Note_off_c, 0, 71, 62
1, 100263, Note_on_c, 0, 60, 80
1, 100302, Note_off_c, 0, 83, 56
1, 100303, Note_off_c, 0, 60, 61
1, 100320, Note_off_c, 0, 55, 63
1, 100365, Note_on_c, 0, 70, 94
1, 100368, Note_on_c, 0, 82, 87
1, 100378, Note_off_c, 0, 76, 54
1, 100415, Note_off_c, 0, 70, 63
1, 100416, Note_off_c, 0, 82, 65
1, 100510, Note_on_c, 0, 40, 88
1, 100556, Note_off_c, 0, 40, 65
1, 100697, Note_on_c, 0, 49, 82
1, 100742, Note_on_c, 0, 79, 86
1, 100743, Note_on_c, 0, 67, 87
1, 100747, Note_on_c, 0, 76, 66
1, 100751, Note_on_c, 0, 73, 77
1, 100781, Control_c, 0, 64, 110
1, 100796, Control_c, 0, 64, 91
1, 100811, Control_c, 0, 64, 78
1, 100826, Control_c, 0, 64, 71
1, 100841, Control_c, 0, 64, 72
1, 100855, Control_c, 0, 64, 77
1, 100856, Note_off_c, 0, 49, 61
1, 100870, Control_c, 0, 64, 90
1, 100885, Control_c, 0, 64, 103
1, 100890, Note_on_c, 0, 55, 79
1, 100899, Control_c, 0, 64, 113
1, 100901, Note_off_c, 0, 79, 59
1, 100909, Note_off_c, 0, 67, 56
1, 100914, Control_c, 0, 64, 116
1, 100929, Control_c, 0, 64, 118
1, 100944, Control_c, 0, 64, 123
1, 100957, Note_off_c, 0, 55, 61
1, 100959, Control_c, 0, 64, 127
1, 100970, Note_off_c, 0, 73, 56
1, 100970, Note_off_c, 0, 76, 53
1, 100985, Note_on_c, 0, 58, 87
1, 101045, Note_off_c, 0, 58, 62
1, 101068, Note_on_c, 0, 61, 90
1, 101116, Note_off_c, 0, 61, 63
1, 101196, Note_on_c, 0, 70, 97
1, 101232, Note_off_c, 0, 70, 64
1, 101364, Note_on_c, 0, 61, 79
1, 101403, Note_off_c, 0, 61, 60
1, 101489, Note_on_c, 0, 58, 77
1, 101501, Note_on_c, 0, 78, 94
1, 101504, Note_on_c, 0, 66, 91
1, 101545, Note_off_c, 0, 58, 63
1, 101583, Note_off_c, 0, 66, 58
1, 101604, Note_off_c, 0, 78, 60
1, 101643, Note_on_c, 0, 42, 97
1, 101712, Note_off_c, 0, 42, 62
1, 101817, Note_on_c, 0, 65, 89
1, 101819, Note_on_c, 0, 77, 87
1, 101822, Note_on_c, 0, 73, 87
1, 101837, Note_on_c, 0, 43, 91
1, 101855, Control_c, 0, 64, 107
1, 101870, Control_c, 0, 64, 85
1, 101885, Control_c, 0, 64, 69
1, 101908, Control_c, 0, 64, 56
1, 101921, Note_off_c, 0, 65, 56
1, 101922, Control_c, 0, 64, 66
1, 101932, Note_off_c, 0, 77, 59
1, 101937, Control_c, 0, 64, 74
1, 101952, Control_c, 0, 64, 86
1, 101967, Control_c, 0, 64, 103
1, 101976, Note_on_c, 0, 49, 75
1, 101980, Note_off_c, 0, 43, 60
1, 101982, Control_c, 0, 64, 120
1, 101996, Control_c, 0, 64, 127
1, 102019, Note_off_c, 0, 73, 59
1, 102039, Note_on_c, 0, 69, 94
1, 102042, Note_off_c, 0, 49, 64
1, 102046, Note_on_c, 0, 81, 82
1, 102053, Note_on_c, 0, 79, 63
1, 102058, Note_on_c, 0, 53, 77
1, 102071, Note_off_c, 0, 69, 63
1, 102077, Note_off_c, 0, 79, 61
1, 102081, Note_off_c, 0, 81, 64
1, 102119, Note_off_c, 0, 53, 62
1, 102149, Note_on_c, 0, 70, 87
1, 102152, Note_on_c, 0, 82, 91
1, 102156, Note_on_c, 0, 58, 77
1, 102201, Note_off_c, 0, 70, 60
1, 102235, Note_off_c, 0, 58, 60
1, 102237, Note_on_c, 0, 61, 81
1, 102245, Note_off_c, 0, 82, 60
1, 102269, Note_on_c, 0, 53, 72
1, 102293, Control_c, 0, 64, 104
1, 102297, Note_off_c, 0, 61, 62
1, 102308, Note_on_c, 0, 77, 69
1, 102308, Control_c, 0, 64, 81
1, 102311, Note_on_c, 0, 71, 90
1, 102312, Note_on_c, 0, 83, 94
1, 102319, Note_on_c, 0, 62, 71
1, 102323, Control_c, 0, 64, 62
1, 102333, Note_off_c, 0, 53, 63
1, 102338, Control_c, 0, 64, 0
1, 102346, Note_on_c, 0, 60, 36
1, 102347, Note_off_c, 0, 60, 127
1, 102353, Control_c, 0, 64, 65
1, 102368, Control_c, 0, 64, 76
1, 102381, Note_off_c, 0, 71, 57
1, 102383, Control_c, 0, 64, 94
1, 102397, Control_c, 0, 64, 127
1, 102403, Note_off_c, 0, 83, 59
1, 102419, Note_off_c, 0, 77, 58
1, 102428, Note_off_c, 0, 62, 36
1, 102447, Note_on_c, 0, 63, 63
1, 102460, Note_on_c, 0, 84, 90
1, 102464, Note_on_c, 0, 72, 90
1, 102485, Note_off_c, 0, 72, 67
1, 102499, Note_off_c, 0, 84, 65
1, 102502, Note_off_c, 0, 63, 63
1, 102508, Note_on_c, 0, 64, 65
1, 102553, Note_on_c, 0, 73, 92
1, 102553, Note_on_c, 0, 85, 95
1, 102561, Note_off_c, 0, 64, 63
1, 102576, Note_on_c, 0, 65, 78
1, 102584, Note_off_c, 0, 73, 60
1, 102594, Note_off_c, 0, 85, 64
1, 102630, Note_off_c, 0, 65, 65
1, 102651, Note_on_c, 0, 74, 98
1, 102651, Note_on_c, 0, 86, 98
1, 102669, Note_on_c, 0, 66, 81
1, 102672, Note_on_c, 0, 58, 59
1, 102680, Note_off_c, 0, 74, 62
1, 102684, Note_off_c, 0, 86, 65
1, 102718, Note_off_c, 0, 58, 57
1, 102731, Control_c, 0, 64, 100
1, 102743, Note_off_c, 0, 66, 61
1, 102744, Note_on_c, 0, 67, 93
1, 102745, Control_c, 0, 64, 78
1, 102747, Note_on_c, 0, 74, 106
1, 102749, Note_on_c, 0, 82, 92
1, 102749, Note_on_c, 0, 86, 100
1, 102760, Control_c, 0, 64, 13
1, 102775, Control_c, 0, 64, 0
1, 102781, Poly_aftertouch_c, 0, 58, 127
1, 102804, Poly_aftertouch_c, 0, 58, 0
1, 102804, Control_c, 0, 64, 70
1, 102809, Note_off_c, 0, 67, 55
1, 102819, Control_c, 0, 64, 90
1, 102834, Control_c, 0, 64, 127
1, 102836, Note_off_c, 0, 86, 60
1, 102844, Note_off_c, 0, 74, 59
1, 102917, Note_off_c, 0, 82, 60
1, 102951, Note_on_c, 0, 63, 79
1, 102962, Note_on_c, 0, 62, 90
1, 102981, Note_off_c, 0, 62, 70
1, 102982, Note_off_c, 0, 63, 60
1, 103067, Note_on_c, 0, 62, 7
1, 103078, Note_on_c, 0, 87, 103
1, 103082, Note_on_c, 0, 75, 99
1, 103105, Note_off_c, 0, 62, 53
1, 103110, Note_off_c, 0, 75, 62
1, 103125, Note_off_c, 0, 87, 65
1, 103185, Note_on_c, 0, 58, 93
1, 103295, Note_on_c, 0, 70, 89
1, 103311, Note_on_c, 0, 86, 92
1, 103312, Note_on_c, 0, 74, 97
1, 103319, Note_on_c, 0, 79, 88
1, 103341, Note_off_c, 0, 70, 65
1, 103372, Note_off_c, 0, 58, 48
1, 103409, Note_off_c, 0, 74, 59
1, 103435, Note_off_c, 0, 86, 59
1, 103445, Note_on_c, 0, 63, 86
1, 103478, Note_off_c, 0, 63, 63
1, 103526, Note_off_c, 0, 79, 59
1, 103557, Note_on_c, 0, 85, 97
1, 103560, Note_on_c, 0, 73, 101
1, 103597, Note_off_c, 0, 73, 61
1, 103600, Note_off_c, 0, 85, 65
1, 103655, Note_on_c, 0, 43, 84
1, 103679, Note_on_c, 0, 41, 45
1, 103680, Note_off_c, 0, 41, 127
1, 103703, Note_off_c, 0, 43, 60
1, 103707, Poly_aftertouch_c, 0, 41, 0
1, 103843, Note_on_c, 0, 52, 82
1, 103854, Note_on_c, 0, 82, 94
1, 103855, Note_on_c, 0, 70, 89
1, 103856, Note_on_c, 0, 79, 80
1, 103860, Note_on_c, 0, 76, 81
1, 103873, Note_on_c, 0, 53, 48
1, 103874, Note_off_c, 0, 53, 127
1, 103895, Control_c, 0, 64, 107
1, 103910, Control_c, 0, 64, 87
1, 103924, Control_c, 0, 64, 71
1, 103939, Control_c, 0, 64, 0
1, 103969, Control_c, 0, 64, 67
1, 103984, Control_c, 0, 64, 79
1, 103987, Note_off_c, 0, 52, 56
1, 103998, Control_c, 0, 64, 96
1, 104013, Note_off_c, 0, 70, 62
1, 104013, Control_c, 0, 64, 127
1, 104026, Note_on_c, 0, 58, 86
1, 104082, Note_off_c, 0, 58, 60
1, 104098, Note_off_c, 0, 76, 56
1, 104119, Note_on_c, 0, 61, 87
1, 104143, Note_off_c, 0, 79, 55
1, 104179, Note_off_c, 0, 61, 62
1, 104190, Note_off_c, 0, 82, 36
1, 104219, Note_on_c, 0, 64, 67
1, 104236, Note_on_c, 0, 62, 55
1, 104252, Note_off_c, 0, 64, 65
1, 104258, Note_off_c, 0, 62, 61
1, 104314, Note_on_c, 0, 70, 93
1, 104357, Note_off_c, 0, 70, 64
1, 104429, Poly_aftertouch_c, 0, 68, 0
1, 104460, Note_on_c, 0, 64, 71
1, 104543, Note_off_c, 0, 64, 51
1, 104613, Note_on_c, 0, 81, 84
1, 104615, Note_on_c, 0, 69, 82
1, 104640, Note_on_c, 0, 61, 55
1, 104644, Note_off_c, 0, 69, 62
1, 104655, Note_off_c, 0, 81, 62
1, 104687, Note_off_c, 0, 61, 58
1, 104769, Note_on_c, 0, 52, 65
1, 104812, Note_off_c, 0, 52, 63
1, 105048, Note_on_c, 0, 34, 83
1, 105080, Control_c, 0, 64, 99
1, 105090, Note_on_c, 0, 80, 73
1, 105095, Control_c, 0, 64, 82
1, 105098, Note_on_c, 0, 68, 55
1, 105098, Note_on_c, 0, 73, 60
1, 105102, Note_on_c, 0, 76, 56
1, 105110, Control_c, 0, 64, 68
1, 105125, Control_c, 0, 64, 0
1, 105141, Note_off_c, 0, 68, 0
1, 105155, Control_c, 0, 64, 59
1, 105170, Control_c, 0, 64, 72
1, 105173, Note_on_c, 0, 68, 12
1, 105183, Note_off_c, 0, 34, 58
1, 105185, Control_c, 0, 64, 84
1, 105199, Control_c, 0, 64, 100
1, 105214, Control_c, 0, 64, 127
1, 105303, Note_off_c, 0, 80, 55
1, 105332, Note_off_c, 0, 76, 51
1, 105338, Note_off_c, 0, 73, 52
1, 105340, Note_on_c, 0, 50, 48
1, 105341, Note_on_c, 0, 48, 18
1, 105346, Note_off_c, 0, 68, 39
1, 105385, Note_off_c, 0, 48, 53
1, 105408, Note_off_c, 0, 50, 57
1, 105483, Note_on_c, 0, 79, 82
1, 105484, Note_on_c, 0, 67, 77
1, 105507, Note_on_c, 0, 53, 29
1, 105514, Note_off_c, 0, 67, 65
1, 105518, Poly_aftertouch_c, 0, 54, 127
1, 105538, Note_off_c, 0, 79, 62
1, 105560, Note_off_c, 0, 53, 45
1, 105583, Poly_aftertouch_c, 0, 54, 0
1, 105659, Note_on_c, 0, 61, 44
1, 105766, Note_on_c, 0, 64, 66
1, 105766, Note_off_c, 0, 61, 42
1, 105805, Note_on_c, 0, 83, 88
1, 105808, Note_on_c, 0, 71, 80
1, 105811, Note_on_c, 0, 79, 74
1, 105857, Note_off_c, 0, 64, 57
1, 105902, Note_on_c, 0, 61, 68
1, 105927, Note_off_c, 0, 71, 55
1, 105950, Note_off_c, 0, 83, 59
1, 105978, Note_off_c, 0, 61, 61
1, 106001, Note_on_c, 0, 55, 63
1, 106028, Note_on_c, 0, 84, 93
1, 106030, Note_on_c, 0, 72, 93
1, 106039, Note_off_c, 0, 79, 58
1, 106069, Note_off_c, 0, 72, 57
1, 106071, Note_off_c, 0, 84, 64
1, 106125, Note_on_c, 0, 52, 67
1, 106140, Note_off_c, 0, 55, 60
1, 106159, Note_off_c, 0, 52, 63
1, 106286, Note_on_c, 0, 34, 84
1, 106313, Note_on_c, 0, 79, 80
1, 106313, Note_on_c, 0, 84, 84
1, 106317, Note_on_c, 0, 72, 75
1, 106319, Control_c, 0, 64, 93
1, 106334, Control_c, 0, 64, 76
1, 106349, Control_c, 0, 64, 65
1, 106364, Control_c, 0, 64, 62
1, 106379, Control_c, 0, 64, 68
1, 106395, Note_off_c, 0, 34, 61
1, 106401, Control_c, 0, 64, 82
1, 106416, Control_c, 0, 64, 104
1, 106431, Control_c, 0, 64, 127
1, 106475, Note_off_c, 0, 72, 57
1, 106477, Note_off_c, 0, 84, 59
1, 106527, Note_on_c, 0, 51, 74
1, 106541, Note_off_c, 0, 79, 61
1, 106646, Note_on_c, 0, 54, 76
1, 106731, Note_on_c, 0, 61, 83
1, 106743, Note_off_c, 0, 51, 55
1, 106752, Note_off_c, 0, 54, 61
1, 106818, Note_off_c, 0, 61, 61
1, 106824, Note_on_c, 0, 63, 91
1, 106883, Note_off_c, 0, 63, 63
1, 106912, Note_on_c, 0, 61, 85
1, 106997, Note_on_c, 0, 73, 86
1, 106998, Note_on_c, 0, 85, 92
1, 107010, Note_off_c, 0, 61, 58
1, 107015, Note_on_c, 0, 54, 73
1, 107051, Note_off_c, 0, 73, 63
1, 107055, Note_off_c, 0, 85, 63
1, 107116, Note_on_c, 0, 51, 58
1, 107140, Note_off_c, 0, 54, 61
1, 107161, Note_off_c, 0, 51, 64
1, 107209, Control_c, 0, 67, 8
1, 107238, Control_c, 0, 67, 12
1, 107253, Control_c, 0, 67, 15
1, 107256, Note_on_c, 0, 34, 86
1, 107268, Control_c, 0, 67, 18
1, 107271, Note_on_c, 0, 73, 100
1, 107274, Note_on_c, 0, 85, 98
1, 107274, Note_on_c, 0, 35, 65
1, 107274, Note_on_c, 0, 82, 84
1, 107275, Note_on_c, 0, 79, 88
1, 107283, Control_c, 0, 64, 95
1, 107284, Note_on_c, 0, 36, 65
1, 107298, Control_c, 0, 64, 72
1, 107298, Control_c, 0, 67, 20
1, 107298, Note_off_c, 0, 34, 61
1, 107313, Control_c, 0, 64, 0
1, 107316, Note_off_c, 0, 36, 54
1, 107325, Note_off_c, 0, 35, 62
1, 107342, Control_c, 0, 64, 50
1, 107357, Control_c, 0, 64, 80
1, 107372, Control_c, 0, 64, 107
1, 107386, Control_c, 0, 64, 127
1, 107386, Control_c, 0, 67, 18
1, 107405, Note_off_c, 0, 73, 59
1, 107416, Control_c, 0, 67, 15
1, 107433, Note_on_c, 0, 43, 79
1, 107438, Note_off_c, 0, 85, 59
1, 107439, Note_off_c, 0, 79, 50
1, 107446, Control_c, 0, 67, 13
1, 107505, Control_c, 0, 67, 11
1, 107524, Note_off_c, 0, 43, 59
1, 107546, Note_on_c, 0, 74, 98
1, 107547, Note_on_c, 0, 86, 95
1, 107556, Note_on_c, 0, 50, 76
1, 107562, Note_on_c, 0, 79, 65
1, 107564, Control_c, 0, 67, 9
1, 107590, Note_off_c, 0, 79, 63
1, 107623, Control_c, 0, 67, 0
1, 107635, Note_off_c, 0, 74, 56
1, 107641, Note_on_c, 0, 55, 77
1, 107644, Note_off_c, 0, 82, 48
1, 107644, Note_off_c, 0, 86, 57
1, 107647, Note_off_c, 0, 50, 62
1, 107720, Note_off_c, 0, 55, 62
1, 107732, Note_on_c, 0, 74, 97
1, 107736, Note_on_c, 0, 86, 95
1, 107742, Note_on_c, 0, 82, 88
1, 107743, Note_on_c, 0, 79, 82
1, 107746, Note_on_c, 0, 62, 63
1, 107770, Note_off_c, 0, 62, 64
1, 107781, Note_on_c, 0, 60, 7
1, 107787, Note_off_c, 0, 74, 59
1, 107802, Note_off_c, 0, 86, 65
1, 107819, Note_on_c, 0, 55, 72
1, 107829, Note_off_c, 0, 60, 37
1, 107835, Note_off_c, 0, 79, 61
1, 107876, Note_on_c, 0, 89, 93
1, 107876, Note_on_c, 0, 79, 48
1, 107895, Note_off_c, 0, 55, 59
1, 107897, Note_on_c, 0, 77, 82
1, 107904, Note_on_c, 0, 50, 55
1, 107922, Note_off_c, 0, 77, 62
1, 107925, Note_off_c, 0, 89, 66
1, 107954, Note_off_c, 0, 79, 61
1, 107959, Note_off_c, 0, 82, 59
1, 107988, Note_off_c, 0, 50, 63
1, 107990, Note_on_c, 0, 43, 65
1, 107996, Poly_aftertouch_c, 0, 85, 0
1, 108008, Note_on_c, 0, 86, 98
1, 108008, Note_on_c, 0, 74, 96
1, 108040, Note_off_c, 0, 74, 66
1, 108042, Note_off_c, 0, 43, 61
1, 108043, Note_off_c, 0, 86, 67
1, 108138, Note_on_c, 0, 75, 101
1, 108142, Note_on_c, 0, 87, 91
1, 108143, Note_on_c, 0, 85, 84
1, 108145, Note_on_c, 0, 82, 94
1, 108151, Control_c, 0, 64, 101
1, 108153, Note_on_c, 0, 34, 89
1, 108165, Control_c, 0, 64, 76
1, 108180, Control_c, 0, 64, 0
1, 108224, Control_c, 0, 64, 65
1, 108239, Control_c, 0, 64, 81
1, 108254, Control_c, 0, 64, 101
1, 108269, Control_c, 0, 64, 127
1, 108284, Note_on_c, 0, 42, 92
1, 108287, Note_off_c, 0, 34, 53
1, 108311, Note_off_c, 0, 75, 58
1, 108329, Note_off_c, 0, 87, 64
1, 108401, Note_off_c, 0, 42, 59
1, 108404, Note_on_c, 0, 49, 88
1, 108413, Note_on_c, 0, 88, 97
1, 108413, Note_on_c, 0, 76, 104
1, 108421, Note_off_c, 0, 82, 58
1, 108447, Note_off_c, 0, 49, 65
1, 108450, Note_off_c, 0, 85, 64
1, 108458, Note_off_c, 0, 76, 65
1, 108470, Note_off_c, 0, 88, 64
1, 108559, Note_on_c, 0, 54, 98
1, 108604, Note_off_c, 0, 54, 63
1, 108645, Poly_aftertouch_c, 0, 87, 127
1, 108671, Poly_aftertouch_c, 0, 87, 0
1, 108729, Note_on_c, 0, 88, 79
1, 108731, Note_on_c, 0, 77, 104
1, 108732, Note_on_c, 0, 89, 98
1, 108735, Note_on_c, 0, 85, 95
1, 108749, Note_on_c, 0, 61, 86
1, 108796, Note_off_c, 0, 61, 62
1, 108828, Note_off_c, 0, 89, 64
1, 108840, Poly_aftertouch_c, 0, 87, 0
1, 108876, Note_off_c, 0, 77, 55
1, 108909, Note_on_c, 0, 52, 92
1, 108911, Note_off_c, 0, 88, 55
1, 108941, Note_off_c, 0, 52, 64
1, 109084, Note_off_c, 0, 85, 65
1, 109105, Note_on_c, 0, 78, 110
1, 109105, Note_on_c, 0, 90, 103
1, 109134, Note_on_c, 0, 42, 84
1, 109154, Note_off_c, 0, 90, 66
1, 109157, Note_off_c, 0, 78, 60
1, 109188, Note_off_c, 0, 42, 57
1, 109310, Note_on_c, 0, 34, 89
1, 109362, Note_off_c, 0, 34, 63
1, 109670, Note_on_c, 0, 90, 96
1, 109671, Note_on_c, 0, 78, 105
1, 109672, Note_on_c, 0, 35, 108
1, 109672, Note_on_c, 0, 87, 91
1, 109673, Note_on_c, 0, 83, 94
1, 109674, Note_on_c, 0, 23, 89
1, 109692, Note_on_c, 0, 24, 63
1, 109702, Note_on_c, 0, 77, 63
1, 109706, Control_c, 0, 64, 100
1, 109710, Note_on_c, 0, 81, 52
1, 109711, Note_off_c, 0, 81, 127
1, 109721, Control_c, 0, 64, 71
1, 109722, Note_off_c, 0, 77, 42
1, 109725, Note_off_c, 0, 24, 36
1, 109735, Control_c, 0, 64, 0
1, 109839, Control_c, 0, 64, 64
1, 109854, Control_c, 0, 64, 78
1, 109868, Control_c, 0, 64, 88
1, 109883, Control_c, 0, 64, 100
1, 109886, Note_off_c, 0, 23, 61
1, 109891, Note_on_c, 0, 31, 37
1, 109898, Control_c, 0, 64, 109
1, 109913, Control_c, 0, 64, 127
1, 109914, Note_off_c, 0, 35, 62
1, 109933, Note_off_c, 0, 31, 40
1, 109991, Note_off_c, 0, 78, 58
1, 110009, Note_off_c, 0, 83, 59
1, 110016, Note_off_c, 0, 87, 57
1, 110041, Note_off_c, 0, 90, 56
1, 110218, Note_on_c, 0, 87, 90
1, 110221, Note_on_c, 0, 78, 84
1, 110233, Note_on_c, 0, 42, 65
1, 110234, Note_on_c, 0, 83, 61
1, 110248, Note_off_c, 0, 78, 62
1, 110252, Note_off_c, 0, 83, 62
1, 110264, Note_off_c, 0, 87, 65
1, 110380, Note_off_c, 0, 42, 57
1, 110465, Note_on_c, 0, 87, 87
1, 110466, Note_on_c, 0, 75, 90
1, 110468, Note_on_c, 0, 78, 82
1, 110470, Note_on_c, 0, 83, 79
1, 110477, Note_on_c, 0, 47, 65
1, 110478, Note_on_c, 0, 51, 64
1, 110482, Note_on_c, 0, 54, 52
1, 110503, Note_off_c, 0, 54, 60
1, 110518, Note_off_c, 0, 75, 61
1, 110519, Note_off_c, 0, 51, 57
1, 110520, Note_off_c, 0, 47, 61
1, 110548, Note_off_c, 0, 83, 59
1, 110550, Note_off_c, 0, 78, 59
1, 110556, Note_off_c, 0, 87, 64
1, 110674, Note_on_c, 0, 47, 59
1, 110684, Note_on_c, 0, 78, 77
1, 110684, Note_on_c, 0, 83, 76
1, 110685, Note_on_c, 0, 75, 82
1, 110717, Note_off_c, 0, 75, 60
1, 110721, Note_off_c, 0, 78, 58
1, 110728, Note_off_c, 0, 83, 60
1, 110739, Note_off_c, 0, 47, 58
1, 110827, Note_on_c, 0, 83, 88
1, 110831, Note_on_c, 0, 71, 82
1, 110833, Note_on_c, 0, 78, 75
1, 110837, Note_on_c, 0, 75, 73
1, 110841, Note_on_c, 0, 59, 63
1, 110846, Note_on_c, 0, 51, 57
1, 110850, Note_on_c, 0, 54, 50
1, 110857, Note_off_c, 0, 71, 64
1, 110882, Note_off_c, 0, 59, 59
1, 110890, Note_off_c, 0, 51, 61
1, 110890, Note_off_c, 0, 54, 63
1, 110893, Note_off_c, 0, 75, 52
1, 110904, Note_off_c, 0, 78, 60
1, 110928, Note_off_c, 0, 83, 0
1, 110965, Poly_aftertouch_c, 0, 83, 127
1, 110983, Note_on_c, 0, 75, 80
1, 110984, Note_on_c, 0, 71, 73
1, 110988, Note_on_c, 0, 51, 66
1, 110990, Note_on_c, 0, 78, 79
1, 111012, Note_off_c, 0, 71, 65
1, 111035, Note_off_c, 0, 75, 61
1, 111040, Note_off_c, 0, 78, 58
1, 111108, Note_off_c, 0, 51, 56
1, 111139, Note_on_c, 0, 78, 88
1, 111140, Note_on_c, 0, 63, 64
1, 111150, Note_on_c, 0, 59, 57
1, 111165, Note_on_c, 0, 80, 47
1, 111170, Note_on_c, 0, 54, 42
1, 111176, Note_off_c, 0, 63, 62
1, 111183, Note_off_c, 0, 78, 65
1, 111188, Note_off_c, 0, 59, 60
1, 111189, Note_off_c, 0, 80, 59
1, 111208, Note_off_c, 0, 54, 58
1, 111291, Note_on_c, 0, 75, 92
1, 111307, Note_on_c, 0, 54, 60
1, 111325, Note_off_c, 0, 75, 66
1, 111547, Note_on_c, 0, 66, 55
1, 111548, Note_on_c, 0, 63, 50
1, 111557, Note_on_c, 0, 59, 46
1, 111559, Note_on_c, 0, 71, 79
1, 111559, Control_c, 0, 64, 115
1, 111574, Control_c, 0, 64, 97
1, 111589, Control_c, 0, 64, 85
1, 111604, Control_c, 0, 64, 74
1, 111619, Control_c, 0, 64, 64
1, 111641, Control_c, 0, 64, 0
1, 111656, Control_c, 0, 64, 48
1, 111671, Control_c, 0, 64, 65
1, 111671, Control_c, 0, 67, 9
1, 111677, Note_off_c, 0, 54, 58
1, 111685, Note_off_c, 0, 66, 56
1, 111685, Control_c, 0, 64, 70
1, 111685, Control_c, 0, 67, 13
1, 111700, Control_c, 0, 64, 76
1, 111700, Control_c, 0, 67, 16
1, 111716, Control_c, 0, 64, 86
1, 111716, Control_c, 0, 67, 21
1, 111727, Note_off_c, 0, 63, 54
1, 111731, Control_c, 0, 64, 94
1, 111731, Control_c, 0, 67, 25
1, 111738, Note_off_c, 0, 59, 36
1, 111746, Control_c, 0, 64, 97
1, 111746, Control_c, 0, 67, 32
1, 111761, Control_c, 0, 67, 43
1, 111775, Control_c, 0, 64, 100
1, 111775, Control_c, 0, 67, 59
1, 111778, Poly_aftertouch_c, 0, 83, 0
1, 111783, Note_off_c, 0, 71, 56
1, 111790, Control_c, 0, 64, 102
1, 111790, Control_c, 0, 67, 79
1, 111805, Control_c, 0, 64, 105
1, 111805, Control_c, 0, 67, 100
1, 111820, Control_c, 0, 64, 109
1, 111820, Control_c, 0, 67, 120
1, 111835, Control_c, 0, 64, 112
1, 111835, Control_c, 0, 67, 127
1, 112205, Control_c, 0, 64, 110
1, 112308, Control_c, 0, 64, 107
1, 112404, Control_c, 0, 64, 105
1, 112509, Control_c, 0, 64, 102
1, 112613, Control_c, 0, 64, 100
1, 112673, Control_c, 0, 64, 98
1, 112702, Control_c, 0, 64, 95
1, 112717, Control_c, 0, 64, 93
1, 112731, Control_c, 0, 64, 91
1, 112746, Control_c, 0, 64, 89
1, 112761, Control_c, 0, 64, 87
1, 112776, Control_c, 0, 64, 82
1, 112781, Note_on_c, 0, 71, 57
1, 112791, Control_c, 0, 64, 76
1, 112805, Control_c, 0, 64, 68
1, 112819, Note_on_c, 0, 63, 29
1, 112820, Control_c, 0, 64, 41
1, 112835, Control_c, 0, 64, 0
1, 112953, Control_c, 0, 64, 51
1, 112968, Control_c, 0, 64, 67
1, 112983, Control_c, 0, 64, 71
1, 112998, Control_c, 0, 64, 75
1, 113012, Control_c, 0, 64, 79
1, 113027, Control_c, 0, 64, 81
1, 113042, Control_c, 0, 64, 82
1, 113057, Control_c, 0, 64, 84
1, 113072, Control_c, 0, 64, 85
1, 113087, Control_c, 0, 64, 86
1, 113102, Control_c, 0, 64, 86
1, 113153, Control_c, 0, 64, 87
1, 113159, Note_off_c, 0, 63, 35
1, 113168, Control_c, 0, 64, 87
1, 113183, Control_c, 0, 64, 88
1, 113242, Control_c, 0, 64, 88
1, 113255, Note_on_c, 0, 57, 17
1, 113266, Note_on_c, 0, 66, 31
1, 113287, Control_c, 0, 64, 89
1, 113302, Control_c, 0, 64, 89
1, 113317, Control_c, 0, 64, 90
1, 113328, Note_off_c, 0, 66, 58
1, 113332, Control_c, 0, 64, 92
1, 113347, Control_c, 0, 64, 93
1, 113361, Control_c, 0, 64, 95
1, 113376, Control_c, 0, 64, 97
1, 113406, Control_c, 0, 64, 100
1, 113425, Note_off_c, 0, 71, 35
1, 113447, Note_off_c, 0, 57, 42
1, 113478, Note_on_c, 0, 69, 65
1, 113495, Control_c, 0, 64, 95
1, 113495, Note_on_c, 0, 61, 48
1, 113509, Control_c, 0, 64, 89
1, 113524, Control_c, 0, 64, 84
1, 113539, Control_c, 0, 64, 82
1, 113553, Control_c, 0, 64, 84
1, 113568, Control_c, 0, 64, 87
1, 113583, Control_c, 0, 64, 90
1, 113598, Control_c, 0, 64, 94
1, 113613, Control_c, 0, 64, 97
1, 113627, Control_c, 0, 64, 99
1, 113634, Note_off_c, 0, 61, 37
1, 113642, Control_c, 0, 64, 101
1, 113651, Note_off_c, 0, 69, 35
1, 113657, Control_c, 0, 67, 121
1, 113663, Note_on_c, 0, 64, 47
1, 113672, Control_c, 0, 64, 104
1, 113672, Control_c, 0, 67, 117
1, 113677, Note_on_c, 0, 56, 36
1, 113687, Control_c, 0, 67, 112
1, 113701, Control_c, 0, 67, 106
1, 113716, Control_c, 0, 67, 100
1, 113731, Control_c, 0, 64, 106
1, 113731, Control_c, 0, 67, 93
1, 113746, Control_c, 0, 67, 84
1, 113748, Note_off_c, 0, 64, 40
1, 113761, Control_c, 0, 67, 76
1, 113776, Control_c, 0, 67, 67
1, 113791, Control_c, 0, 67, 58
1, 113805, Control_c, 0, 67, 47
1, 113812, Note_on_c, 0, 71, 66
1, 113818, Note_off_c, 0, 56, 35
1, 113820, Control_c, 0, 64, 104
1, 113820, Control_c, 0, 67, 36
1, 113835, Control_c, 0, 64, 98
1, 113835, Control_c, 0, 67, 24
1, 113844, Note_on_c, 0, 59, 50
1, 113850, Control_c, 0, 64, 88
1, 113850, Control_c, 0, 67, 11
1, 113865, Control_c, 0, 64, 78
1, 113865, Control_c, 0, 67, 0
1, 113886, Control_c, 0, 64, 69
1, 113901, Control_c, 0, 64, 66
1, 113916, Control_c, 0, 64, 69
1, 113931, Control_c, 0, 64, 76
1, 113946, Control_c, 0, 64, 89
1, 113960, Control_c, 0, 64, 103
1, 113975, Control_c, 0, 64, 113
1, 113986, Note_off_c, 0, 59, 59
1, 113990, Control_c, 0, 64, 119
1, 114005, Control_c, 0, 64, 127
1, 114065, Note_off_c, 0, 71, 32
1, 114092, Note_on_c, 0, 63, 42
1, 114099, Note_on_c, 0, 54, 38
1, 114241, Note_off_c, 0, 54, 34
1, 114260, Note_off_c, 0, 63, 60
1, 114290, Note_on_c, 0, 57, 55
1, 114351, Note_off_c, 0, 57, 52
1, 114670, Note_on_c, 0, 29, 62
1, 114770, Control_c, 0, 64, 105
1, 114771, Note_on_c, 0, 72, 88
1, 114784, Control_c, 0, 64, 92
1, 114799, Control_c, 0, 64, 82
1, 114814, Control_c, 0, 64, 73
1, 114829, Control_c, 0, 64, 68
1, 114844, Control_c, 0, 64, 67
1, 114858, Control_c, 0, 64, 68
1, 114873, Control_c, 0, 64, 70
1, 114888, Control_c, 0, 64, 76
1, 114903, Note_off_c, 0, 29, 59
1, 114904, Control_c, 0, 64, 87
1, 114919, Control_c, 0, 64, 100
1, 114933, Control_c, 0, 64, 111
1, 114948, Control_c, 0, 64, 115
1, 114963, Control_c, 0, 64, 117
1, 114978, Control_c, 0, 64, 127
1, 115321, Note_on_c, 0, 48, 20
1, 115324, Note_on_c, 0, 65, 40
1, 115383, Note_off_c, 0, 72, 28
1, 115391, Note_off_c, 0, 65, 58
1, 115513, Note_on_c, 0, 69, 73
1, 115561, Note_on_c, 0, 55, 33
1, 115570, Note_off_c, 0, 69, 59
1, 115687, Note_off_c, 0, 55, 39
1, 115775, Note_on_c, 0, 60, 47
1, 115810, Note_off_c, 0, 60, 60
1, 115837, Note_off_c, 0, 48, 39
1, 115949, Note_on_c, 0, 65, 56
1, 115973, Note_on_c, 0, 53, 46
1, 116052, Note_off_c, 0, 53, 54
1, 116072, Note_off_c, 0, 65, 53
1, 116146, Note_on_c, 0, 57, 42
1, 116175, Note_on_c, 0, 48, 41
1, 116177, Note_off_c, 0, 57, 58
1, 116258, Note_off_c, 0, 48, 53
1, 116339, Note_on_c, 0, 51, 68
1, 116375, Note_off_c, 0, 51, 61
1, 116478, Note_on_c, 0, 41, 54
1, 116532, Note_off_c, 0, 41, 62
1, 116568, Note_on_c, 0, 49, 79
1, 116604, Note_off_c, 0, 49, 63
1, 116653, Control_c, 0, 67, 8
1, 116712, Control_c, 0, 67, 10
1, 116720, Note_on_c, 0, 37, 74
1, 116729, Note_on_c, 0, 25, 61
1, 116831, Control_c, 0, 64, 109
1, 116846, Control_c, 0, 64, 90
1, 116846, Control_c, 0, 67, 12
1, 116861, Control_c, 0, 64, 75
1, 116882, Note_on_c, 0, 47, 73
1, 116883, Control_c, 0, 64, 0
1, 116957, Control_c, 0, 67, 14
1, 116971, Control_c, 0, 64, 68
1, 116984, Note_off_c, 0, 25, 63
1, 116986, Control_c, 0, 64, 80
1, 116991, Note_off_c, 0, 47, 61
1, 117001, Control_c, 0, 64, 94
1, 117010, Note_off_c, 0, 37, 61
1, 117016, Control_c, 0, 64, 115
1, 117031, Control_c, 0, 64, 127
1, 117299, Note_on_c, 0, 61, 44
1, 117311, Note_on_c, 0, 47, 32
1, 117317, Note_on_c, 0, 53, 44
1, 117328, Control_c, 0, 67, 12
1, 117344, Note_off_c, 0, 47, 53
1, 117347, Note_off_c, 0, 61, 55
1, 117373, Note_off_c, 0, 53, 61
1, 117382, Poly_aftertouch_c, 0, 56, 0
1, 117491, Control_c, 0, 67, 10
1, 117535, Note_on_c, 0, 73, 78
1, 117592, Note_on_c, 0, 65, 33
1, 117599, Note_off_c, 0, 73, 58
1, 117683, Note_off_c, 0, 65, 38
1, 117807, Note_on_c, 0, 68, 43
1, 117830, Note_on_c, 0, 59, 29
1, 117845, Note_off_c, 0, 68, 63
1, 117853, Control_c, 0, 67, 8
1, 117936, Note_off_c, 0, 59, 39
1, 117959, Note_on_c, 0, 71, 69
1, 117982, Note_on_c, 0, 63, 48
1, 117988, Control_c, 0, 67, 0
1, 118032, Note_off_c, 0, 71, 61
1, 118068, Note_off_c, 0, 63, 54
1, 118137, Note_on_c, 0, 66, 42
1, 118143, Note_on_c, 0, 58, 41
1, 118163, Note_off_c, 0, 66, 54
1, 118182, Note_off_c, 0, 58, 61
1, 118228, Note_on_c, 0, 73, 82
1, 118244, Note_on_c, 0, 61, 57
1, 118304, Note_off_c, 0, 61, 52
1, 118317, Note_off_c, 0, 73, 60
1, 118376, Note_on_c, 0, 56, 58
1, 118383, Note_on_c, 0, 65, 62
1, 118411, Note_off_c, 0, 56, 64
1, 118470, Note_off_c, 0, 65, 59
1, 118491, Note_on_c, 0, 59, 72
1, 118547, Note_off_c, 0, 59, 56
1, 118662, Control_c, 0, 67, 8
1, 118670, Note_on_c, 0, 31, 86
1, 118751, Control_c, 0, 67, 0
1, 118781, Control_c, 0, 64, 119
1, 118792, Note_on_c, 0, 74, 94
1, 118795, Control_c, 0, 64, 93
1, 118810, Control_c, 0, 64, 75
1, 118825, Control_c, 0, 64, 0
1, 118858, Note_off_c, 0, 31, 59
1, 118869, Control_c, 0, 64, 64
1, 118884, Control_c, 0, 64, 76
1, 118900, Control_c, 0, 64, 91
1, 118900, Control_c, 0, 67, 8
1, 118915, Control_c, 0, 64, 116
1, 118930, Control_c, 0, 64, 127
1, 119048, Control_c, 0, 67, 0
1, 119064, Note_off_c, 0, 74, 35
1, 119183, Note_on_c, 0, 50, 42
1, 119196, Note_on_c, 0, 67, 41
1, 119240, Note_off_c, 0, 67, 60
1, 119327, Note_on_c, 0, 71, 79
1, 119368, Note_on_c, 0, 57, 45
1, 119424, Note_off_c, 0, 71, 60
1, 119464, Note_off_c, 0, 57, 59
1, 119507, Note_on_c, 0, 62, 29
1, 119539, Note_off_c, 0, 62, 55
1, 119556, Note_off_c, 0, 50, 39
1, 119604, Note_on_c, 0, 67, 68
1, 119672, Note_on_c, 0, 55, 46
1, 119713, Note_off_c, 0, 67, 59
1, 119729, Note_off_c, 0, 55, 62
1, 119768, Note_on_c, 0, 59, 51
1, 119802, Note_on_c, 0, 50, 57
1, 119803, Note_off_c, 0, 59, 61
1, 119890, Note_off_c, 0, 50, 57
1, 119896, Note_on_c, 0, 53, 79
1, 119922, Note_off_c, 0, 53, 66
1, 120005, Note_on_c, 0, 43, 75
1, 120044, Note_off_c, 0, 43, 63
1, 120068, Note_on_c, 0, 51, 85
1, 120095, Note_off_c, 0, 51, 65
1, 120101, Control_c, 0, 67, 8
1, 120130, Control_c, 0, 67, 10
1, 120160, Control_c, 0, 67, 13
1, 120190, Note_on_c, 0, 27, 75
1, 120191, Note_on_c, 0, 39, 82
1, 120204, Control_c, 0, 67, 15
1, 120263, Control_c, 0, 64, 94
1, 120278, Control_c, 0, 64, 74
1, 120293, Control_c, 0, 64, 0
1, 120323, Note_on_c, 0, 49, 87
1, 120372, Note_off_c, 0, 49, 64
1, 120381, Note_off_c, 0, 27, 61
1, 120381, Control_c, 0, 64, 73
1, 120396, Control_c, 0, 64, 84
1, 120403, Note_off_c, 0, 39, 63
1, 120411, Control_c, 0, 64, 98
1, 120426, Control_c, 0, 64, 113
1, 120426, Control_c, 0, 67, 13
1, 120441, Control_c, 0, 64, 127
1, 120602, Note_on_c, 0, 63, 68
1, 120608, Note_on_c, 0, 58, 56
1, 120627, Control_c, 0, 67, 11
1, 120635, Note_on_c, 0, 55, 51
1, 120637, Note_off_c, 0, 58, 62
1, 120638, Note_on_c, 0, 49, 50
1, 120647, Note_off_c, 0, 63, 61
1, 120668, Note_off_c, 0, 55, 62
1, 120670, Note_off_c, 0, 49, 64
1, 120671, Control_c, 0, 67, 9
1, 120811, Note_on_c, 0, 75, 93
1, 120865, Note_off_c, 0, 75, 63
1, 120882, Note_on_c, 0, 67, 37
1, 120913, Note_off_c, 0, 67, 52
1, 121016, Note_on_c, 0, 70, 63
1, 121028, Note_on_c, 0, 61, 50
1, 121045, Note_off_c, 0, 70, 66
1, 121080, Note_off_c, 0, 61, 57
1, 121117, Note_on_c, 0, 73, 94
1, 121135, Note_on_c, 0, 65, 56
1, 121170, Note_off_c, 0, 65, 66
1, 121202, Note_off_c, 0, 73, 60
1, 121234, Note_on_c, 0, 68, 83
1, 121250, Note_on_c, 0, 60, 66
1, 121277, Note_off_c, 0, 60, 63
1, 121280, Note_off_c, 0, 68, 62
1, 121337, Note_on_c, 0, 63, 67
1, 121338, Note_on_c, 0, 75, 99
1, 121398, Note_off_c, 0, 63, 58
1, 121420, Control_c, 0, 67, 11
1, 121434, Note_on_c, 0, 68, 78
1, 121437, Note_off_c, 0, 75, 58
1, 121462, Note_on_c, 0, 67, 75
1, 121463, Note_on_c, 0, 58, 76
1, 121465, Control_c, 0, 67, 13
1, 121481, Note_off_c, 0, 68, 54
1, 121494, Note_off_c, 0, 58, 65
1, 121517, Note_off_c, 0, 67, 62
1, 121544, Note_on_c, 0, 61, 92
1, 121604, Note_off_c, 0, 61, 61
1, 121657, Control_c, 0, 67, 11
1, 121707, Note_on_c, 0, 33, 92
1, 121722, Note_on_c, 0, 35, 59
1, 121754, Note_off_c, 0, 35, 35
1, 121761, Control_c, 0, 67, 9
1, 121776, Control_c, 0, 64, 88
1, 121791, Control_c, 0, 64, 68
1, 121803, Note_on_c, 0, 76, 98
1, 121806, Control_c, 0, 64, 0
1, 121850, Control_c, 0, 64, 71
1, 121865, Control_c, 0, 64, 87
1, 121880, Control_c, 0, 64, 105
1, 121890, Note_off_c, 0, 33, 63
1, 121894, Control_c, 0, 64, 127
1, 122027, Control_c, 0, 67, 0
1, 122103, Note_off_c, 0, 76, 56
1, 122125, Note_on_c, 0, 52, 60
1, 122126, Note_on_c, 0, 69, 82
1, 122168, Note_off_c, 0, 69, 61
1, 122263, Note_on_c, 0, 73, 92
1, 122289, Note_on_c, 0, 59, 75
1, 122359, Note_off_c, 0, 59, 58
1, 122389, Note_off_c, 0, 73, 59
1, 122423, Note_on_c, 0, 64, 72
1, 122474, Note_off_c, 0, 64, 64
1, 122475, Note_off_c, 0, 52, 53
1, 122528, Note_on_c, 0, 69, 86
1, 122558, Note_on_c, 0, 57, 77
1, 122636, Note_off_c, 0, 57, 61
1, 122653, Note_off_c, 0, 69, 59
1, 122675, Note_on_c, 0, 52, 70
1, 122684, Note_on_c, 0, 61, 78
1, 122706, Note_off_c, 0, 61, 66
1, 122733, Note_off_c, 0, 52, 60
1, 122788, Note_on_c, 0, 61, 7
1, 122793, Note_on_c, 0, 55, 92
1, 122817, Note_off_c, 0, 55, 67
1, 122834, Note_off_c, 0, 61, 50
1, 122875, Note_on_c, 0, 45, 74
1, 122908, Note_off_c, 0, 45, 67
1, 122933, Control_c, 0, 67, 8
1, 122963, Control_c, 0, 67, 10
1, 122982, Note_on_c, 0, 53, 92
1, 123003, Note_off_c, 0, 53, 70
1, 123052, Control_c, 0, 67, 12
1, 123066, Control_c, 0, 64, 90
1, 123081, Note_on_c, 0, 29, 69
1, 123081, Control_c, 0, 64, 65
1, 123086, Note_on_c, 0, 41, 89
1, 123096, Control_c, 0, 64, 0
1, 123140, Control_c, 0, 64, 66
1, 123148, Note_off_c, 0, 29, 63
1, 123154, Control_c, 0, 64, 83
1, 123169, Control_c, 0, 64, 112
1, 123177, Note_off_c, 0, 41, 63
1, 123184, Control_c, 0, 64, 127
1, 123317, Control_c, 0, 67, 10
1, 123320, Note_on_c, 0, 77, 98
1, 123324, Note_on_c, 0, 65, 91
1, 123326, Note_on_c, 0, 72, 81
1, 123327, Note_on_c, 0, 69, 81
1, 123347, Note_off_c, 0, 65, 69
1, 123357, Note_off_c, 0, 69, 62
1, 123367, Note_on_c, 0, 52, 69
1, 123377, Note_on_c, 0, 51, 15
1, 123420, Note_off_c, 0, 52, 56
1, 123440, Note_off_c, 0, 51, 42
1, 123443, Note_off_c, 0, 72, 59
1, 123582, Note_off_c, 0, 77, 37
1, 123621, Control_c, 0, 67, 8
1, 123665, Control_c, 0, 67, 0
1, 123691, Note_on_c, 0, 72, 56
1, 123694, Note_on_c, 0, 65, 57
1, 123697, Note_on_c, 0, 51, 47
1, 123700, Note_on_c, 0, 41, 21
1, 123713, Note_off_c, 0, 72, 63
1, 123723, Note_off_c, 0, 65, 63
1, 123728, Note_on_c, 0, 48, 24
1, 123738, Note_off_c, 0, 41, 39
1, 123759, Note_off_c, 0, 51, 57
1, 123769, Note_off_c, 0, 48, 42
1, 123868, Note_on_c, 0, 72, 66
1, 123875, Note_on_c, 0, 57, 50
1, 123876, Note_on_c, 0, 69, 51
1, 123885, Note_on_c, 0, 60, 49
1, 123891, Note_on_c, 0, 51, 39
1, 123896, Note_off_c, 0, 72, 63
1, 123896, Note_off_c, 0, 69, 63
1, 123906, Note_off_c, 0, 57, 63
1, 123912, Note_off_c, 0, 60, 54
1, 123923, Poly_aftertouch_c, 0, 48, 127
1, 123927, Note_off_c, 0, 51, 49
1, 123954, Poly_aftertouch_c, 0, 48, 0
1, 124036, Control_c, 0, 64, 100
1, 124051, Control_c, 0, 64, 81
1, 124060, Note_on_c, 0, 69, 67
1, 124065, Note_on_c, 0, 63, 75
1, 124066, Control_c, 0, 64, 68
1, 124079, Note_on_c, 0, 57, 47
1, 124080, Control_c, 0, 64, 64
1, 124083, Note_on_c, 0, 65, 55
1, 124095, Control_c, 0, 64, 69
1, 124110, Control_c, 0, 64, 79
1, 124119, Note_off_c, 0, 63, 50
1, 124125, Control_c, 0, 64, 95
1, 124140, Control_c, 0, 64, 121
1, 124154, Control_c, 0, 64, 127
1, 124170, Note_on_c, 0, 51, 69
1, 124187, Note_off_c, 0, 65, 57
1, 124211, Note_off_c, 0, 51, 61
1, 124236, Note_off_c, 0, 69, 38
1, 124291, Note_on_c, 0, 61, 93
1, 124313, Note_off_c, 0, 57, 36
1, 124369, Control_c, 0, 67, 8
1, 124370, Note_on_c, 0, 41, 70
1, 124384, Control_c, 0, 67, 10
1, 124413, Control_c, 0, 67, 13
1, 124426, Note_off_c, 0, 41, 61
1, 124426, Poly_aftertouch_c, 0, 63, 127
1, 124428, Control_c, 0, 67, 15
1, 124443, Control_c, 0, 67, 17
1, 124469, Note_on_c, 0, 59, 94
1, 124473, Control_c, 0, 67, 20
1, 124504, Note_off_c, 0, 61, 61
1, 124511, Note_off_c, 0, 59, 64
1, 124552, Poly_aftertouch_c, 0, 63, 0
1, 124561, Poly_aftertouch_c, 0, 23, 0
1, 124575, Note_on_c, 0, 35, 97
1, 124597, Poly_aftertouch_c, 0, 23, 127
1, 124607, Control_c, 0, 64, 89
1, 124622, Control_c, 0, 64, 68
1, 124631, Poly_aftertouch_c, 0, 23, 0
1, 124636, Control_c, 0, 64, 0
1, 124644, Note_off_c, 0, 35, 65
1, 124652, Control_c, 0, 64, 64
1, 124667, Control_c, 0, 64, 71
1, 124682, Control_c, 0, 64, 91
1, 124697, Control_c, 0, 64, 127
1, 124698, Poly_aftertouch_c, 0, 70, 127
1, 124711, Control_c, 0, 67, 18
1, 124739, Poly_aftertouch_c, 0, 70, 0
1, 124756, Control_c, 0, 67, 15
1, 124778, Note_on_c, 0, 66, 101
1, 124781, Note_on_c, 0, 78, 93
1, 124782, Note_on_c, 0, 71, 86
1, 124784, Note_on_c, 0, 59, 97
1, 124784, Note_on_c, 0, 75, 91
1, 124819, Note_off_c, 0, 59, 66
1, 124859, Control_c, 0, 67, 13
1, 124953, Note_off_c, 0, 66, 60
1, 124956, Note_off_c, 0, 75, 58
1, 124992, Note_off_c, 0, 78, 54
1, 125052, Control_c, 0, 67, 11
1, 125067, Note_on_c, 0, 42, 66
1, 125070, Note_off_c, 0, 71, 0
1, 125077, Note_on_c, 0, 66, 73
1, 125084, Note_on_c, 0, 75, 69
1, 125091, Note_on_c, 0, 71, 17
1, 125099, Note_on_c, 0, 51, 57
1, 125119, Note_off_c, 0, 42, 60
1, 125121, Note_off_c, 0, 66, 62
1, 125124, Note_off_c, 0, 75, 64
1, 125133, Control_c, 0, 67, 9
1, 125139, Note_off_c, 0, 71, 53
1, 125141, Note_off_c, 0, 51, 60
1, 125178, Control_c, 0, 67, 0
1, 125222, Note_on_c, 0, 51, 60
1, 125231, Note_on_c, 0, 57, 62
1, 125236, Note_on_c, 0, 63, 79
1, 125236, Note_on_c, 0, 75, 65
1, 125237, Note_on_c, 0, 47, 53
1, 125245, Note_on_c, 0, 71, 59
1, 125261, Note_off_c, 0, 47, 58
1, 125265, Note_off_c, 0, 57, 65
1, 125268, Note_off_c, 0, 63, 63
1, 125271, Note_off_c, 0, 75, 65
1, 125273, Note_off_c, 0, 51, 59
1, 125285, Note_off_c, 0, 71, 62
1, 125401, Note_on_c, 0, 59, 87
1, 125402, Note_on_c, 0, 71, 81
1, 125404, Note_on_c, 0, 69, 79
1, 125423, Note_on_c, 0, 68, 77
1, 125440, Note_on_c, 0, 70, 64
1, 125447, Note_on_c, 0, 58, 33
1, 125457, Note_off_c, 0, 68, 62
1, 125458, Note_off_c, 0, 70, 66
1, 125479, Note_off_c, 0, 58, 32
1, 125583, Note_off_c, 0, 69, 60
1, 125606, Note_off_c, 0, 59, 57
1, 125615, Note_off_c, 0, 71, 61
1, 125639, Note_on_c, 0, 66, 72
1, 125642, Note_on_c, 0, 65, 93
1, 125652, Note_on_c, 0, 68, 69
1, 125658, Note_on_c, 0, 64, 72
1, 125672, Note_on_c, 0, 63, 40
1, 125673, Note_off_c, 0, 63, 127
1, 125676, Note_off_c, 0, 64, 65
1, 125690, Note_off_c, 0, 68, 53
1, 125720, Note_off_c, 0, 65, 61
1, 125731, Note_off_c, 0, 66, 61
1, 125734, Note_on_c, 0, 47, 75
1, 125735, Note_on_c, 0, 48, 74
1, 125758, Note_off_c, 0, 48, 66
1, 125768, Note_off_c, 0, 47, 64
1, 125771, Control_c, 0, 67, 8
1, 125815, Control_c, 0, 67, 10
1, 125817, Note_on_c, 0, 64, 91
1, 125868, Note_off_c, 0, 64, 65
1, 125902, Note_on_c, 0, 40, 89
1, 125907, Note_on_c, 0, 28, 82
1, 125947, Note_off_c, 0, 28, 64
1, 125965, Note_off_c, 0, 40, 65
1, 126030, Control_c, 0, 64, 96
1, 126045, Control_c, 0, 64, 72
1, 126057, Note_on_c, 0, 74, 56
1, 126059, Note_on_c, 0, 80, 101
1, 126059, Note_on_c, 0, 68, 99
1, 126060, Control_c, 0, 64, 0
1, 126066, Note_on_c, 0, 60, 107
1, 126075, Note_on_c, 0, 62, 86
1, 126091, Note_off_c, 0, 62, 43
1, 126105, Note_off_c, 0, 60, 63
1, 126120, Control_c, 0, 64, 75
1, 126135, Control_c, 0, 64, 94
1, 126150, Control_c, 0, 64, 127
1, 126164, Control_c, 0, 67, 8
1, 126172, Poly_aftertouch_c, 0, 70, 0
1, 126179, Control_c, 0, 67, 0
1, 126201, Poly_aftertouch_c, 0, 62, 127
1, 126229, Poly_aftertouch_c, 0, 62, 0
1, 126272, Note_off_c, 0, 68, 61
1, 126282, Note_off_c, 0, 74, 59
1, 126302, Note_on_c, 0, 51, 31
1, 126338, Note_off_c, 0, 51, 47
1, 126359, Note_on_c, 0, 68, 94
1, 126360, Note_on_c, 0, 74, 84
1, 126360, Note_off_c, 0, 80, 0
1, 126373, Note_on_c, 0, 52, 71
1, 126375, Note_on_c, 0, 45, 51
1, 126379, Note_on_c, 0, 80, 27
1, 126400, Note_off_c, 0, 74, 63
1, 126403, Note_off_c, 0, 45, 58
1, 126403, Note_on_c, 0, 47, 28
1, 126403, Note_off_c, 0, 68, 64
1, 126409, Note_off_c, 0, 52, 62
1, 126410, Note_off_c, 0, 80, 50
1, 126439, Note_off_c, 0, 47, 46
1, 126518, Note_on_c, 0, 65, 87
1, 126522, Note_on_c, 0, 68, 78
1, 126529, Note_on_c, 0, 77, 69
1, 126531, Note_on_c, 0, 74, 68
1, 126531, Note_on_c, 0, 76, 66
1, 126537, Note_off_c, 0, 65, 71
1, 126540, Note_on_c, 0, 62, 71
1, 126540, Note_on_c, 0, 79, 56
1, 126543, Note_off_c, 0, 68, 66
1, 126547, Note_on_c, 0, 67, 47
1, 126548, Note_off_c, 0, 67, 127
1, 126557, Note_off_c, 0, 76, 65
1, 126558, Note_off_c, 0, 74, 66
1, 126558, Note_off_c, 0, 77, 64
1, 126560, Note_off_c, 0, 79, 66
1, 126567, Note_off_c, 0, 62, 66
1, 126608, Note_on_c, 0, 65, 30
1, 126609, Note_off_c, 0, 65, 127
1, 126688, Note_on_c, 0, 74, 86
1, 126689, Note_on_c, 0, 68, 100
1, 126693, Note_on_c, 0, 62, 48
1, 126713, Note_off_c, 0, 68, 66
1, 126727, Note_off_c, 0, 74, 64
1, 126763, Note_off_c, 0, 62, 59
1, 126822, Note_on_c, 0, 56, 80
1, 126825, Note_on_c, 0, 53, 78
1, 126858, Note_off_c, 0, 53, 66
1, 126865, Note_off_c, 0, 56, 64
1, 126955, Note_on_c, 0, 60, 109
1, 126974, Note_off_c, 0, 60, 69
1, 127100, Note_on_c, 0, 41, 88
1, 127130, Note_off_c, 0, 41, 67
1, 127180, Control_c, 0, 67, 8
1, 127220, Note_on_c, 0, 58, 114
1, 127239, Control_c, 0, 67, 10
1, 127243, Note_off_c, 0, 58, 65
1, 127316, Note_on_c, 0, 25, 3
1, 127377, Note_off_c, 0, 25, 42
1, 127419, Note_on_c, 0, 34, 105
1, 127420, Note_on_c, 0, 22, 94
1, 127439, Control_c, 0, 64, 87
1, 127454, Control_c, 0, 64, 66
1, 127463, Note_off_c, 0, 22, 62
1, 127469, Control_c, 0, 64, 0
1, 127475, Note_off_c, 0, 34, 63
1, 127484, Control_c, 0, 64, 68
1, 127499, Control_c, 0, 64, 80
1, 127499, Control_c, 0, 67, 8
1, 127513, Control_c, 0, 64, 107
1, 127513, Control_c, 0, 67, 0
1, 127528, Control_c, 0, 64, 127
1, 127673, Note_on_c, 0, 70, 104
1, 127674, Note_on_c, 0, 56, 109
1, 127677, Note_on_c, 0, 74, 93
1, 127677, Note_on_c, 0, 82, 96
1, 127677, Control_c, 0, 64, 100
1, 127679, Note_on_c, 0, 77, 89
1, 127692, Control_c, 0, 64, 75
1, 127707, Control_c, 0, 64, 0
1, 127751, Control_c, 0, 64, 66
1, 127766, Control_c, 0, 64, 81
1, 127780, Control_c, 0, 64, 92
1, 127795, Control_c, 0, 64, 103
1, 127810, Control_c, 0, 64, 107
1, 127840, Control_c, 0, 64, 109
1, 127848, Note_off_c, 0, 56, 64
1, 127884, Control_c, 0, 64, 112
1, 127899, Control_c, 0, 64, 117
1, 127914, Control_c, 0, 64, 127
1, 127984, Note_off_c, 0, 74, 54
1, 127985, Note_off_c, 0, 70, 53
1, 127993, Note_off_c, 0, 77, 55
1, 128042, Note_off_c, 0, 82, 54
1, 128173, Note_on_c, 0, 46, 59
1, 128182, Note_on_c, 0, 50, 53
1, 128183, Note_on_c, 0, 70, 73
1, 128183, Note_on_c, 0, 74, 71
1, 128185, Note_on_c, 0, 77, 69
1, 128210, Note_off_c, 0, 70, 66
1, 128212, Note_off_c, 0, 74, 64
1, 128212, Note_off_c, 0, 77, 64
1, 128247, Note_off_c, 0, 50, 60
1, 128248, Note_off_c, 0, 46, 61
1, 128402, Note_on_c, 0, 77, 93
1, 128405, Note_on_c, 0, 70, 76
1, 128405, Note_on_c, 0, 79, 85
1, 128409, Note_on_c, 0, 65, 67
1, 128417, Note_on_c, 0, 56, 60
1, 128421, Note_on_c, 0, 51, 13
1, 128421, Note_off_c, 0, 70, 69
1, 128425, Note_on_c, 0, 46, 54
1, 128425, Note_off_c, 0, 79, 70
1, 128427, Note_off_c, 0, 65, 67
1, 128438, Note_off_c, 0, 77, 64
1, 128451, Note_off_c, 0, 56, 64
1, 128457, Note_off_c, 0, 46, 62
1, 128463, Note_off_c, 0, 51, 49
1, 128465, Note_on_c, 0, 50, 4
1, 128490, Note_off_c, 0, 50, 0
1, 128501, Poly_aftertouch_c, 0, 67, 0
1, 128516, Poly_aftertouch_c, 0, 50, 0
1, 128569, Poly_aftertouch_c, 0, 70, 0
1, 128579, Note_on_c, 0, 74, 101
1, 128591, Note_on_c, 0, 62, 62
1, 128596, Note_on_c, 0, 65, 68
1, 128618, Note_on_c, 0, 53, 26
1, 128621, Note_off_c, 0, 62, 65
1, 128622, Note_off_c, 0, 65, 67
1, 128633, Note_on_c, 0, 58, 22
1, 128659, Note_off_c, 0, 53, 43
1, 128674, Note_off_c, 0, 58, 52
1, 128725, Note_on_c, 0, 62, 62
1, 128726, Note_on_c, 0, 65, 73
1, 128731, Note_on_c, 0, 70, 88
1, 128737, Note_on_c, 0, 53, 61
1, 128748, Note_on_c, 0, 50, 56
1, 128757, Note_on_c, 0, 58, 44
1, 128761, Note_off_c, 0, 65, 63
1, 128767, Note_on_c, 0, 73, 24
1, 128769, Note_off_c, 0, 53, 63
1, 128770, Note_off_c, 0, 62, 63
1, 128773, Note_off_c, 0, 70, 63
1, 128773, Note_off_c, 0, 50, 59
1, 128783, Note_off_c, 0, 58, 58
1, 128792, Note_off_c, 0, 74, 56
1, 128801, Note_off_c, 0, 73, 52
1, 128856, Note_on_c, 0, 70, 98
1, 128858, Note_on_c, 0, 58, 85
1, 128861, Note_on_c, 0, 65, 84
1, 128862, Note_on_c, 0, 62, 90
1, 128868, Note_on_c, 0, 50, 51
1, 128879, Note_off_c, 0, 65, 68
1, 128880, Note_off_c, 0, 70, 59
1, 128884, Note_off_c, 0, 62, 68
1, 128892, Note_off_c, 0, 50, 58
1, 128903, Note_off_c, 0, 58, 62
1, 129011, Control_c, 0, 64, 100
1, 129026, Poly_aftertouch_c, 0, 62, 0
1, 129026, Control_c, 0, 64, 69
1, 129028, Note_on_c, 0, 69, 108
1, 129041, Control_c, 0, 64, 0
1, 129059, Note_off_c, 0, 69, 70
1, 129071, Control_c, 0, 64, 65
1, 129085, Control_c, 0, 64, 83
1, 129100, Control_c, 0, 64, 127
1, 129115, Control_c, 0, 67, 8
1, 129174, Control_c, 0, 67, 0
1, 129306, Note_on_c, 0, 66, 85
1, 129318, Note_on_c, 0, 74, 70
1, 129318, Note_on_c, 0, 71, 64
1, 129339, Note_off_c, 0, 66, 61
1, 129345, Note_off_c, 0, 71, 66
1, 129364, Note_off_c, 0, 74, 61
1, 129384, Note_on_c, 0, 62, 106
1, 129422, Note_off_c, 0, 62, 69
1, 129476, Note_on_c, 0, 71, 64
1, 129476, Note_on_c, 0, 74, 76
1, 129484, Note_on_c, 0, 66, 82
1, 129523, Note_off_c, 0, 66, 59
1, 129555, Note_off_c, 0, 71, 62
1, 129557, Note_off_c, 0, 74, 56
1, 129616, Note_on_c, 0, 57, 103
1, 129637, Note_on_c, 0, 66, 75
1, 129637, Note_on_c, 0, 62, 68
1, 129646, Note_on_c, 0, 74, 74
1, 129648, Note_on_c, 0, 71, 77
1, 129653, Note_off_c, 0, 57, 68
1, 129688, Note_off_c, 0, 62, 60
1, 129715, Note_off_c, 0, 71, 60
1, 129716, Note_off_c, 0, 66, 60
1, 129719, Note_off_c, 0, 74, 54
1, 129796, Note_on_c, 0, 62, 77
1, 129806, Note_on_c, 0, 66, 63
1, 129816, Note_on_c, 0, 74, 35
1, 129825, Note_on_c, 0, 71, 48
1, 129828, Note_off_c, 0, 62, 65
1, 129836, Note_off_c, 0, 66, 64
1, 129844, Note_off_c, 0, 74, 56
1, 129852, Note_off_c, 0, 71, 56
1, 129914, Note_on_c, 0, 59, 85
1, 129923, Control_c, 0, 64, 103
1, 129938, Note_on_c, 0, 34, 82
1, 129938, Control_c, 0, 64, 81
1, 129939, Note_off_c, 0, 59, 67
1, 129942, Note_on_c, 0, 22, 83
1, 129949, Note_on_c, 0, 62, 64
1, 129952, Control_c, 0, 64, 65
1, 129967, Control_c, 0, 64, 30
1, 129974, Note_off_c, 0, 22, 65
1, 129980, Note_off_c, 0, 34, 62
1, 129982, Control_c, 0, 64, 66
1, 129997, Control_c, 0, 64, 77
1, 130005, Note_off_c, 0, 62, 64
1, 130011, Note_on_c, 0, 65, 65
1, 130012, Control_c, 0, 64, 92
1, 130021, Note_on_c, 0, 69, 69
1, 130026, Control_c, 0, 64, 114
1, 130029, Note_off_c, 0, 65, 64
1, 130041, Control_c, 0, 64, 127
1, 130044, Note_on_c, 0, 72, 53
1, 130048, Note_off_c, 0, 69, 65
1, 130066, Note_off_c, 0, 72, 61
1, 130074, Note_on_c, 0, 71, 93
1, 130119, Note_on_c, 0, 73, 41
1, 130120, Note_off_c, 0, 71, 63
1, 130135, Note_on_c, 0, 78, 74
1, 130144, Note_off_c, 0, 73, 57
1, 130179, Note_on_c, 0, 74, 80
1, 130182, Note_on_c, 0, 56, 82
1, 130183, Note_on_c, 0, 70, 100
1, 130183, Note_on_c, 0, 82, 102
1, 130187, Note_on_c, 0, 77, 85
1, 130190, Control_c, 0, 64, 117
1, 130201, Note_on_c, 0, 80, 68
1, 130202, Note_off_c, 0, 78, 59
1, 130205, Control_c, 0, 64, 87
1, 130220, Control_c, 0, 64, 64
1, 130235, Control_c, 0, 64, 0
1, 130278, Note_off_c, 0, 56, 65
1, 130279, Control_c, 0, 64, 65
1, 130281, Note_off_c, 0, 80, 45
1, 130294, Control_c, 0, 64, 79
1, 130308, Control_c, 0, 64, 94
1, 130323, Control_c, 0, 64, 127
1, 130349, Note_off_c, 0, 70, 48
1, 130379, Note_off_c, 0, 77, 55
1, 130388, Note_off_c, 0, 82, 55
1, 130401, Note_off_c, 0, 74, 51
1, 130519, Note_on_c, 0, 41, 53
1, 130527, Note_on_c, 0, 74, 72
1, 130528, Note_on_c, 0, 70, 82
1, 130531, Note_on_c, 0, 50, 70
1, 130531, Note_on_c, 0, 77, 81
1, 130534, Note_on_c, 0, 46, 71
1, 130555, Note_off_c, 0, 41, 61
1, 130561, Note_off_c, 0, 70, 63
1, 130561, Note_off_c, 0, 77, 62
1, 130571, Note_off_c, 0, 50, 65
1, 130571, Note_off_c, 0, 74, 63
1, 130573, Note_off_c, 0, 46, 63
1, 130698, Note_on_c, 0, 77, 99
1, 130701, Note_on_c, 0, 65, 91
1, 130702, Note_on_c, 0, 70, 84
1, 130708, Note_on_c, 0, 46, 63
1, 130708, Note_on_c, 0, 50, 62
1, 130709, Note_on_c, 0, 56, 65
1, 130721, Note_off_c, 0, 65, 70
1, 130725, Note_off_c, 0, 70, 68
1, 130737, Note_off_c, 0, 46, 65
1, 130737, Note_off_c, 0, 50, 65
1, 130737, Note_off_c, 0, 56, 66
1, 130743, Note_off_c, 0, 77, 60
1, 130794, Note_on_c, 0, 65, 13
1, 130795, Note_off_c, 0, 65, 127
1, 130838, Note_on_c, 0, 74, 96
1, 130842, Note_on_c, 0, 65, 72
1, 130843, Poly_aftertouch_c, 0, 70, 127
1, 130844, Note_on_c, 0, 62, 85
1, 130852, Note_on_c, 0, 50, 36
1, 130857, Poly_aftertouch_c, 0, 70, 0
1, 130862, Note_on_c, 0, 53, 60
1, 130862, Note_on_c, 0, 58, 57
1, 130868, Note_off_c, 0, 65, 67
1, 130875, Note_off_c, 0, 62, 64
1, 130888, Note_off_c, 0, 50, 55
1, 130891, Note_off_c, 0, 53, 65
1, 130894, Note_off_c, 0, 58, 64
1, 130959, Note_on_c, 0, 65, 85
1, 130965, Note_on_c, 0, 70, 92
1, 130969, Note_on_c, 0, 58, 63
1, 130972, Note_on_c, 0, 53, 61
1, 130973, Note_on_c, 0, 62, 77
1, 130980, Note_on_c, 0, 50, 51
1, 130983, Note_off_c, 0, 74, 56
1, 130987, Note_off_c, 0, 65, 62
1, 131005, Note_off_c, 0, 62, 65
1, 131005, Note_off_c, 0, 53, 64
1, 131012, Note_off_c, 0, 50, 59
1, 131012, Note_off_c, 0, 70, 62
1, 131017, Note_on_c, 0, 73, 5
1, 131027, Note_off_c, 0, 58, 59
1, 131073, Note_on_c, 0, 58, 84
1, 131074, Note_on_c, 0, 70, 93
1, 131077, Note_on_c, 0, 62, 86
1, 131080, Note_off_c, 0, 73, 44
1, 131098, Note_on_c, 0, 65, 62
1, 131099, Note_off_c, 0, 65, 127
1, 131106, Note_off_c, 0, 62, 69
1, 131110, Note_off_c, 0, 70, 62
1, 131124, Note_off_c, 0, 58, 65
1, 131184, Control_c, 0, 64, 105
1, 131199, Control_c, 0, 64, 78
1, 131213, Control_c, 0, 64, 0
1, 131216, Note_on_c, 0, 67, 105
1, 131228, Note_off_c, 0, 67, 70
1, 131235, Poly_aftertouch_c, 0, 65, 0
1, 131258, Control_c, 0, 64, 77
1, 131273, Control_c, 0, 64, 101
1, 131287, Control_c, 0, 64, 127
1, 131359, Poly_aftertouch_c, 0, 67, 0
1, 131444, Note_on_c, 0, 66, 96
1, 131446, Note_on_c, 0, 74, 85
1, 131452, Note_on_c, 0, 71, 74
1, 131481, Note_off_c, 0, 66, 66
1, 131485, Note_off_c, 0, 71, 61
1, 131493, Note_off_c, 0, 74, 63
1, 131495, Control_c, 0, 64, 91
1, 131510, Control_c, 0, 64, 69
1, 131519, Note_on_c, 0, 62, 112
1, 131524, Control_c, 0, 64, 0
1, 131539, Control_c, 0, 64, 63
1, 131554, Control_c, 0, 64, 76
1, 131556, Note_off_c, 0, 62, 71
1, 131569, Control_c, 0, 64, 97
1, 131584, Control_c, 0, 64, 127
1, 131615, Note_on_c, 0, 74, 79
1, 131617, Note_on_c, 0, 66, 89
1, 131621, Note_on_c, 0, 71, 80
1, 131685, Note_off_c, 0, 66, 60
1, 131694, Note_off_c, 0, 71, 60
1, 131705, Note_off_c, 0, 74, 58
1, 131765, Note_on_c, 0, 57, 105
1, 131777, Control_c, 0, 64, 96
1, 131785, Note_on_c, 0, 62, 78
1, 131786, Note_on_c, 0, 66, 81
1, 131788, Note_on_c, 0, 74, 76
1, 131792, Note_on_c, 0, 71, 86
1, 131792, Control_c, 0, 64, 75
1, 131807, Control_c, 0, 64, 65
1, 131812, Note_off_c, 0, 57, 69
1, 131822, Control_c, 0, 64, 68
1, 131835, Note_on_c, 0, 68, 22
1, 131837, Control_c, 0, 64, 82
1, 131859, Control_c, 0, 64, 109
1, 131864, Note_off_c, 0, 62, 60
1, 131874, Control_c, 0, 64, 127
1, 131879, Note_off_c, 0, 68, 39
1, 131900, Note_off_c, 0, 66, 58
1, 131910, Note_off_c, 0, 71, 53
1, 131917, Note_off_c, 0, 74, 56
1, 132007, Note_on_c, 0, 62, 69
1, 132013, Note_on_c, 0, 71, 59
1, 132018, Note_on_c, 0, 66, 64
1, 132021, Note_on_c, 0, 74, 59
1, 132041, Note_off_c, 0, 74, 64
1, 132044, Note_off_c, 0, 62, 62
1, 132044, Note_off_c, 0, 66, 67
1, 132060, Note_off_c, 0, 71, 63
1, 132121, Note_on_c, 0, 59, 87
1, 132150, Note_on_c, 0, 34, 90
1, 132153, Note_on_c, 0, 22, 90
1, 132154, Control_c, 0, 64, 105
1, 132157, Note_off_c, 0, 59, 59
1, 132169, Control_c, 0, 64, 85
1, 132170, Note_on_c, 0, 62, 72
1, 132184, Control_c, 0, 64, 74
1, 132186, Note_off_c, 0, 34, 62
1, 132190, Note_off_c, 0, 22, 65
1, 132199, Control_c, 0, 64, 73
1, 132207, Note_on_c, 0, 66, 53
1, 132214, Control_c, 0, 64, 79
1, 132224, Note_off_c, 0, 62, 63
1, 132228, Control_c, 0, 64, 97
1, 132233, Note_off_c, 0, 66, 69
1, 132238, Note_on_c, 0, 69, 78
1, 132243, Control_c, 0, 64, 127
1, 132255, Note_on_c, 0, 72, 69
1, 132260, Note_off_c, 0, 69, 68
1, 132272, Note_off_c, 0, 72, 67
1, 132300, Note_on_c, 0, 71, 86
1, 132344, Note_on_c, 0, 75, 70
1, 132351, Note_off_c, 0, 71, 62
1, 132353, Note_on_c, 0, 78, 76
1, 132358, Note_on_c, 0, 72, 29
1, 132373, Note_off_c, 0, 75, 65
1, 132395, Note_off_c, 0, 72, 46
1, 132400, Note_off_c, 0, 78, 61
1, 132413, Note_on_c, 0, 73, 98
1, 132417, Note_on_c, 0, 70, 104
1, 132417, Note_on_c, 0, 82, 99
1, 132421, Control_c, 0, 64, 106
1, 132421, Note_on_c, 0, 56, 102
1, 132424, Note_on_c, 0, 77, 74
1, 132433, Note_on_c, 0, 76, 67
1, 132436, Control_c, 0, 64, 79
1, 132451, Control_c, 0, 64, 0
1, 132506, Note_off_c, 0, 73, 64
1, 132511, Control_c, 0, 64, 66
1, 132519, Note_off_c, 0, 76, 53
1, 132525, Control_c, 0, 64, 80
1, 132534, Note_off_c, 0, 56, 54
1, 132540, Control_c, 0, 64, 94
1, 132555, Control_c, 0, 64, 122
1, 132563, Note_off_c, 0, 77, 49
1, 132570, Control_c, 0, 64, 127
1, 132590, Note_on_c, 0, 74, 50
1, 132618, Note_off_c, 0, 70, 57
1, 132639, Note_off_c, 0, 74, 60
1, 132720, Note_off_c, 0, 82, 54
1, 132806, Note_on_c, 0, 74, 78
1, 132806, Note_on_c, 0, 41, 45
1, 132807, Note_on_c, 0, 77, 72
1, 132811, Note_on_c, 0, 70, 72
1, 132821, Note_on_c, 0, 50, 65
1, 132829, Note_on_c, 0, 46, 59
1, 132835, Note_off_c, 0, 70, 67
1, 132841, Note_off_c, 0, 77, 62
1, 132844, Note_off_c, 0, 74, 62
1, 132847, Note_off_c, 0, 41, 61
1, 132864, Note_off_c, 0, 46, 62
1, 132865, Note_off_c, 0, 50, 63
1, 133025, Note_on_c, 0, 77, 94
1, 133029, Note_on_c, 0, 65, 75
1, 133038, Note_on_c, 0, 70, 67
1, 133045, Note_on_c, 0, 50, 59
1, 133046, Note_on_c, 0, 56, 63
1, 133054, Note_on_c, 0, 46, 55
1, 133055, Note_off_c, 0, 70, 66
1, 133056, Note_off_c, 0, 65, 68
1, 133074, Note_off_c, 0, 56, 66
1, 133077, Note_off_c, 0, 50, 64
1, 133085, Note_off_c, 0, 46, 65
1, 133086, Note_off_c, 0, 77, 58
1, 133197, Note_on_c, 0, 74, 92
1, 133218, Note_on_c, 0, 62, 49
1, 133220, Note_on_c, 0, 65, 53
1, 133222, Note_on_c, 0, 53, 45
1, 133240, Note_off_c, 0, 65, 65
1, 133246, Note_off_c, 0, 62, 58
1, 133259, Note_off_c, 0, 53, 61
1, 133268, Poly_aftertouch_c, 0, 50, 0
1, 133298, Poly_aftertouch_c, 0, 50, 0
1, 133323, Poly_aftertouch_c, 0, 60, 0
1, 133363, Note_on_c, 0, 53, 47
1, 133364, Note_on_c, 0, 65, 45
1, 133369, Note_on_c, 0, 62, 53
1, 133375, Note_on_c, 0, 70, 72
1, 133404, Note_off_c, 0, 65, 64
1, 133410, Note_on_c, 0, 58, 13
1, 133411, Note_off_c, 0, 70, 58
1, 133414, Note_off_c, 0, 62, 61
1, 133444, Note_off_c, 0, 53, 60
1, 133454, Note_off_c, 0, 58, 52
1, 133637, Note_on_c, 0, 70, 52
1, 133644, Note_off_c, 0, 74, 47
1, 133670, Note_on_c, 0, 58, 42
1, 133673, Note_on_c, 0, 65, 38
1, 133676, Note_on_c, 0, 62, 38
1, 133677, Note_off_c, 0, 70, 61
1, 133697, Note_on_c, 0, 50, 19
1, 133703, Note_off_c, 0, 62, 56
1, 133706, Note_off_c, 0, 65, 46
1, 133722, Note_off_c, 0, 58, 58
1, 133742, Note_off_c, 0, 50, 54
1, 133786, Control_c, 0, 67, 8
1, 133830, Control_c, 0, 67, 10
1, 133933, Control_c, 0, 67, 12
1, 133978, Control_c, 0, 64, 119
1, 133992, Control_c, 0, 64, 98
1, 134007, Control_c, 0, 64, 85
1, 134022, Control_c, 0, 64, 73
1, 134037, Control_c, 0, 64, 0
1, 134042, Note_on_c, 0, 39, 77
1, 134049, Note_on_c, 0, 27, 74
1, 134052, Note_on_c, 0, 59, 59
1, 134135, Note_off_c, 0, 27, 61
1, 134135, Control_c, 0, 64, 71
1, 134139, Note_off_c, 0, 59, 49
1, 134149, Control_c, 0, 64, 81
1, 134164, Control_c, 0, 64, 97
1, 134170, Note_off_c, 0, 39, 60
1, 134179, Control_c, 0, 64, 110
1, 134194, Control_c, 0, 64, 116
1, 134194, Control_c, 0, 67, 10
1, 134209, Control_c, 0, 64, 120
1, 134223, Control_c, 0, 64, 127
1, 134297, Control_c, 0, 67, 8
1, 134421, Note_on_c, 0, 71, 46
1, 134429, Note_on_c, 0, 59, 57
1, 134432, Note_on_c, 0, 68, 44
1, 134467, Note_off_c, 0, 68, 61
1, 134480, Note_off_c, 0, 71, 41
1, 134489, Note_off_c, 0, 59, 51
1, 134606, Note_on_c, 0, 68, 45
1, 134606, Note_on_c, 0, 71, 59
1, 134612, Note_on_c, 0, 62, 58
1, 134622, Note_on_c, 0, 59, 36
1, 134624, Note_on_c, 0, 56, 58
1, 134647, Note_off_c, 0, 62, 62
1, 134648, Note_off_c, 0, 56, 64
1, 134652, Note_off_c, 0, 71, 52
1, 134654, Note_off_c, 0, 59, 52
1, 134666, Note_off_c, 0, 68, 54
1, 134777, Note_on_c, 0, 62, 58
1, 134777, Note_on_c, 0, 68, 64
1, 134780, Note_on_c, 0, 59, 57
1, 134780, Note_on_c, 0, 71, 58
1, 134783, Note_on_c, 0, 53, 61
1, 134807, Note_off_c, 0, 53, 64
1, 134821, Note_off_c, 0, 59, 58
1, 134823, Note_off_c, 0, 71, 53
1, 134827, Note_off_c, 0, 62, 60
1, 134849, Note_off_c, 0, 68, 61
1, 134931, Note_on_c, 0, 59, 66
1, 134934, Note_on_c, 0, 71, 62
1, 134944, Note_on_c, 0, 62, 65
1, 134945, Note_on_c, 0, 68, 64
1, 134969, Note_off_c, 0, 59, 58
1, 134973, Note_off_c, 0, 62, 64
1, 134983, Note_off_c, 0, 68, 63
1, 134985, Note_off_c, 0, 71, 55
1, 135053, Note_on_c, 0, 59, 71
1, 135058, Note_on_c, 0, 68, 68
1, 135061, Note_on_c, 0, 62, 57
1, 135066, Note_on_c, 0, 71, 66
1, 135153, Note_off_c, 0, 59, 55
1, 135174, Note_off_c, 0, 62, 61
1, 135180, Control_c, 0, 64, 96
1, 135181, Note_on_c, 0, 42, 90
1, 135187, Note_on_c, 0, 30, 85
1, 135195, Control_c, 0, 64, 78
1, 135210, Control_c, 0, 64, 64
1, 135225, Control_c, 0, 64, 0
1, 135235, Note_off_c, 0, 71, 54
1, 135241, Note_on_c, 0, 60, 78
1, 135243, Note_off_c, 0, 68, 56
1, 135253, Note_off_c, 0, 30, 62
1, 135269, Control_c, 0, 64, 69
1, 135282, Note_off_c, 0, 42, 60
1, 135284, Control_c, 0, 64, 81
1, 135298, Control_c, 0, 64, 94
1, 135313, Control_c, 0, 64, 113
1, 135326, Note_off_c, 0, 60, 58
1, 135328, Control_c, 0, 64, 120
1, 135343, Control_c, 0, 64, 127
1, 135444, Note_on_c, 0, 72, 73
1, 135445, Note_on_c, 0, 69, 68
1, 135447, Note_on_c, 0, 63, 66
1, 135450, Note_on_c, 0, 60, 67
1, 135453, Note_on_c, 0, 66, 63
1, 135491, Note_off_c, 0, 63, 56
1, 135494, Note_off_c, 0, 66, 56
1, 135508, Note_off_c, 0, 69, 60
1, 135515, Note_off_c, 0, 60, 57
1, 135517, Note_off_c, 0, 72, 58
1, 135579, Note_on_c, 0, 57, 70
1, 135586, Note_on_c, 0, 60, 73
1, 135596, Note_on_c, 0, 66, 66
1, 135599, Note_on_c, 0, 63, 65
1, 135599, Note_on_c, 0, 72, 68
1, 135601, Note_on_c, 0, 69, 71
1, 135644, Note_off_c, 0, 60, 58
1, 135646, Note_off_c, 0, 63, 58
1, 135658, Note_off_c, 0, 66, 62
1, 135661, Note_off_c, 0, 69, 60
1, 135663, Note_off_c, 0, 72, 59
1, 135667, Note_off_c, 0, 57, 52
1, 135723, Note_on_c, 0, 54, 75
1, 135735, Note_on_c, 0, 60, 85
1, 135740, Note_on_c, 0, 66, 70
1, 135741, Note_on_c, 0, 63, 76
1, 135742, Note_on_c, 0, 69, 73
1, 135745, Note_on_c, 0, 72, 72
1, 135753, Note_off_c, 0, 54, 67
1, 135786, Note_off_c, 0, 60, 59
1, 135789, Note_off_c, 0, 63, 53
1, 135790, Note_off_c, 0, 72, 52
1, 135796, Note_off_c, 0, 66, 61
1, 135799, Note_off_c, 0, 69, 60
1, 135860, Note_on_c, 0, 60, 91
1, 135866, Note_on_c, 0, 66, 73
1, 135867, Note_on_c, 0, 69, 71
1, 135870, Note_on_c, 0, 63, 75
1, 135872, Note_on_c, 0, 72, 78
1, 135900, Note_off_c, 0, 63, 57
1, 135907, Note_off_c, 0, 60, 60
1, 135915, Control_c, 0, 67, 0
1, 135921, Note_off_c, 0, 69, 61
1, 135923, Note_off_c, 0, 66, 63
1, 135930, Note_off_c, 0, 72, 55
1, 135971, Poly_aftertouch_c, 0, 66, 0
1, 135977, Note_on_c, 0, 60, 92
1, 135977, Note_on_c, 0, 66, 69
1, 135979, Note_on_c, 0, 63, 78
1, 135982, Note_on_c, 0, 72, 63
1, 135984, Note_on_c, 0, 69, 73
1, 136036, Note_off_c, 0, 60, 57
1, 136057, Note_off_c, 0, 72, 59
1, 136062, Control_c, 0, 64, 112
1, 136077, Control_c, 0, 64, 88
1, 136092, Control_c, 0, 64, 69
1, 136093, Note_off_c, 0, 69, 56
1, 136098, Note_off_c, 0, 63, 59
1, 136100, Note_on_c, 0, 33, 86
1, 136100, Note_on_c, 0, 45, 98
1, 136107, Control_c, 0, 64, 0
1, 136125, Note_off_c, 0, 66, 63
1, 136147, Note_off_c, 0, 33, 64
1, 136150, Note_on_c, 0, 61, 94
1, 136151, Control_c, 0, 64, 73
1, 136166, Control_c, 0, 64, 87
1, 136171, Note_off_c, 0, 45, 61
1, 136177, Note_on_c, 0, 63, 66
1, 136181, Control_c, 0, 64, 111
1, 136195, Control_c, 0, 64, 127
1, 136200, Note_off_c, 0, 63, 55
1, 136201, Note_on_c, 0, 70, 41
1, 136238, Note_off_c, 0, 70, 61
1, 136243, Note_off_c, 0, 61, 61
1, 136334, Note_on_c, 0, 70, 73
1, 136349, Note_on_c, 0, 67, 72
1, 136352, Note_on_c, 0, 73, 82
1, 136354, Note_on_c, 0, 61, 80
1, 136354, Note_on_c, 0, 64, 80
1, 136427, Note_off_c, 0, 61, 59
1, 136440, Note_off_c, 0, 64, 62
1, 136451, Note_off_c, 0, 67, 62
1, 136452, Note_off_c, 0, 73, 59
1, 136455, Note_off_c, 0, 70, 60
1, 136517, Note_on_c, 0, 58, 80
1, 136526, Note_on_c, 0, 61, 93
1, 136529, Note_on_c, 0, 73, 92
1, 136532, Note_on_c, 0, 64, 83
1, 136535, Note_on_c, 0, 70, 76
1, 136545, Note_on_c, 0, 67, 64
1, 136573, Note_off_c, 0, 58, 65
1, 136610, Note_off_c, 0, 61, 60
1, 136618, Note_off_c, 0, 73, 58
1, 136624, Note_off_c, 0, 64, 62
1, 136626, Note_off_c, 0, 67, 63
1, 136646, Note_off_c, 0, 70, 62
1, 136726, Note_on_c, 0, 55, 84
1, 136729, Note_on_c, 0, 61, 92
1, 136729, Note_on_c, 0, 73, 87
1, 136731, Note_on_c, 0, 64, 86
1, 136736, Note_on_c, 0, 67, 81
1, 136737, Note_on_c, 0, 70, 84
1, 136749, Note_off_c, 0, 55, 68
1, 136809, Note_off_c, 0, 61, 58
1, 136826, Note_off_c, 0, 73, 55
1, 136839, Note_off_c, 0, 64, 61
1, 136845, Note_off_c, 0, 70, 58
1, 136848, Note_off_c, 0, 67, 57
1, 136976, Note_on_c, 0, 64, 86
1, 136981, Note_on_c, 0, 61, 93
1, 136985, Note_on_c, 0, 67, 76
1, 136985, Note_on_c, 0, 70, 80
1, 136986, Note_on_c, 0, 73, 88
1, 137097, Note_off_c, 0, 61, 57
1, 137133, Note_off_c, 0, 73, 60
1, 137137, Note_off_c, 0, 70, 60
1, 137146, Note_off_c, 0, 67, 60
1, 137154, Note_off_c, 0, 64, 56
1, 137280, Note_on_c, 0, 64, 79
1, 137281, Note_on_c, 0, 61, 88
1, 137283, Note_on_c, 0, 67, 73
1, 137286, Note_on_c, 0, 70, 78
1, 137288, Note_on_c, 0, 73, 84
1, 137434, Note_off_c, 0, 61, 58
1, 137524, Note_off_c, 0, 73, 58
1, 137611, Note_off_c, 0, 67, 27
1, 137783, Note_on_c, 0, 34, 95
1, 137787, Note_on_c, 0, 22, 91
1, 137788, Note_on_c, 0, 62, 94
1, 137824, Note_off_c, 0, 64, 63
1, 137825, Control_c, 0, 64, 94
1, 137847, Control_c, 0, 64, 75
1, 137852, Note_off_c, 0, 70, 41
1, 137862, Control_c, 0, 64, 0
1, 137936, Control_c, 0, 64, 67
1, 137951, Control_c, 0, 64, 77
1, 137966, Control_c, 0, 64, 86
1, 137981, Control_c, 0, 64, 97
1, 137995, Control_c, 0, 64, 104
1, 138010, Control_c, 0, 64, 109
1, 138013, Note_off_c, 0, 22, 61
1, 138025, Control_c, 0, 64, 115
1, 138040, Control_c, 0, 64, 127
1, 138081, Note_off_c, 0, 34, 60
1, 138365, Note_off_c, 0, 62, 44
1, 138563, Note_on_c, 0, 59, 31
1, 138599, Note_on_c, 0, 54, 32
1, 138601, Note_on_c, 0, 74, 51
1, 138610, Note_on_c, 0, 71, 39
1, 138611, Note_on_c, 0, 62, 34
1, 138637, Note_on_c, 0, 68, 36
1, 138653, Note_on_c, 0, 56, 14
1, 138754, Note_off_c, 0, 62, 57
1, 138754, Note_off_c, 0, 71, 54
1, 138764, Note_off_c, 0, 74, 48
1, 138765, Note_off_c, 0, 68, 54
1, 138767, Note_off_c, 0, 59, 35
1, 138782, Note_off_c, 0, 54, 42
1, 138793, Note_off_c, 0, 56, 31
1, 138952, Note_on_c, 0, 62, 41
1, 138952, Note_on_c, 0, 71, 38
1, 138953, Note_on_c, 0, 74, 35
1, 138955, Note_on_c, 0, 68, 29
1, 138957, Note_on_c, 0, 59, 37
1, 138967, Note_on_c, 0, 54, 12
1, 138998, Note_on_c, 0, 56, 19
1, 139053, Note_off_c, 0, 62, 58
1, 139058, Note_off_c, 0, 68, 58
1, 139064, Note_off_c, 0, 71, 51
1, 139066, Note_off_c, 0, 74, 53
1, 139069, Note_off_c, 0, 56, 54
1, 139071, Note_off_c, 0, 59, 58
1, 139110, Note_off_c, 0, 54, 36
1, 139201, Note_on_c, 0, 62, 43
1, 139203, Note_on_c, 0, 68, 48
1, 139214, Note_on_c, 0, 71, 48
1, 139214, Note_on_c, 0, 74, 44
1, 139216, Note_on_c, 0, 59, 39
1, 139227, Note_on_c, 0, 56, 37
1, 139244, Note_off_c, 0, 62, 62
1, 139252, Note_on_c, 0, 54, 35
1, 139260, Note_off_c, 0, 71, 58
1, 139268, Note_off_c, 0, 59, 44
1, 139277, Note_off_c, 0, 56, 62
1, 139283, Note_off_c, 0, 54, 54
1, 139292, Note_off_c, 0, 74, 54
1, 139294, Note_off_c, 0, 68, 61
1, 139447, Note_on_c, 0, 60, 50
1, 139458, Note_on_c, 0, 57, 44
1, 139461, Note_on_c, 0, 53, 47
1, 139463, Control_c, 0, 64, 107
1, 139466, Note_on_c, 0, 72, 52
1, 139469, Note_on_c, 0, 63, 44
1, 139474, Note_on_c, 0, 75, 39
1, 139478, Control_c, 0, 64, 88
1, 139485, Note_on_c, 0, 69, 34
1, 139493, Control_c, 0, 64, 83
1, 139508, Control_c, 0, 64, 85
1, 139523, Control_c, 0, 64, 93
1, 139537, Control_c, 0, 64, 103
1, 139541, Note_off_c, 0, 53, 52
1, 139542, Note_off_c, 0, 75, 36
1, 139543, Note_off_c, 0, 69, 42
1, 139543, Note_off_c, 0, 72, 53
1, 139552, Control_c, 0, 64, 123
1, 139566, Note_off_c, 0, 60, 34
1, 139566, Note_off_c, 0, 63, 37
1, 139567, Control_c, 0, 64, 127
1, 139570, Note_off_c, 0, 57, 52
1, 139673, Note_on_c, 0, 72, 56
1, 139674, Note_on_c, 0, 60, 49
1, 139674, Note_on_c, 0, 75, 42
1, 139677, Note_on_c, 0, 69, 32
1, 139685, Note_on_c, 0, 63, 41
1, 139686, Note_on_c, 0, 57, 22
1, 139688, Note_on_c, 0, 53, 40
1, 139714, Note_off_c, 0, 69, 50
1, 139714, Note_off_c, 0, 72, 57
1, 139715, Note_off_c, 0, 63, 54
1, 139719, Note_off_c, 0, 53, 57
1, 139725, Note_off_c, 0, 75, 42
1, 139728, Note_off_c, 0, 57, 50
1, 139733, Note_off_c, 0, 60, 44
1, 139808, Note_on_c, 0, 63, 54
1, 139810, Note_on_c, 0, 60, 47
1, 139821, Note_on_c, 0, 72, 51
1, 139823, Note_on_c, 0, 53, 40
1, 139831, Note_on_c, 0, 75, 48
1, 139832, Note_on_c, 0, 69, 31
1, 139853, Note_on_c, 0, 57, 21
1, 139861, Note_off_c, 0, 63, 58
1, 139862, Note_off_c, 0, 60, 59
1, 139870, Note_off_c, 0, 69, 50
1, 139871, Note_off_c, 0, 72, 52
1, 139882, Note_off_c, 0, 75, 54
1, 139887, Note_off_c, 0, 53, 54
1, 139894, Note_off_c, 0, 57, 42
1, 139984, Note_on_c, 0, 61, 62
1, 139989, Note_on_c, 0, 70, 46
1, 139990, Note_on_c, 0, 76, 51
1, 139991, Note_on_c, 0, 73, 46
1, 139997, Note_on_c, 0, 52, 48
1, 139998, Control_c, 0, 64, 102
1, 139999, Note_on_c, 0, 64, 26
1, 140001, Note_on_c, 0, 58, 43
1, 140012, Control_c, 0, 64, 90
1, 140027, Control_c, 0, 64, 88
1, 140037, Note_off_c, 0, 70, 62
1, 140042, Control_c, 0, 64, 91
1, 140043, Note_off_c, 0, 73, 57
1, 140044, Note_off_c, 0, 52, 58
1, 140051, Note_off_c, 0, 76, 51
1, 140053, Note_off_c, 0, 64, 46
1, 140057, Control_c, 0, 64, 98
1, 140060, Note_off_c, 0, 61, 57
1, 140069, Note_off_c, 0, 58, 47
1, 140072, Control_c, 0, 64, 110
1, 140094, Control_c, 0, 64, 127
1, 140161, Note_on_c, 0, 76, 48
1, 140164, Note_on_c, 0, 73, 52
1, 140166, Note_on_c, 0, 64, 39
1, 140169, Note_on_c, 0, 52, 49
1, 140169, Note_on_c, 0, 70, 41
1, 140180, Note_on_c, 0, 61, 51
1, 140192, Note_on_c, 0, 58, 38
1, 140193, Note_off_c, 0, 70, 60
1, 140196, Note_off_c, 0, 76, 48
1, 140199, Note_off_c, 0, 64, 49
1, 140201, Note_off_c, 0, 73, 61
1, 140213, Note_off_c, 0, 61, 56
1, 140216, Note_off_c, 0, 52, 59
1, 140224, Note_off_c, 0, 58, 57
1, 140272, Note_on_c, 0, 70, 58
1, 140282, Note_on_c, 0, 64, 54
1, 140286, Note_on_c, 0, 73, 55
1, 140293, Note_on_c, 0, 76, 55
1, 140303, Note_on_c, 0, 61, 56
1, 140309, Note_off_c, 0, 64, 61
1, 140311, Note_on_c, 0, 52, 50
1, 140321, Note_off_c, 0, 70, 58
1, 140322, Note_off_c, 0, 76, 53
1, 140330, Note_off_c, 0, 73, 56
1, 140332, Note_on_c, 0, 58, 32
1, 140332, Note_off_c, 0, 52, 62
1, 140334, Note_off_c, 0, 61, 63
1, 140384, Note_off_c, 0, 58, 0
1, 140398, Note_on_c, 0, 58, 46
1, 140404, Note_on_c, 0, 56, 61
1, 140411, Note_on_c, 0, 62, 53
1, 140411, Note_on_c, 0, 65, 63
1, 140413, Note_on_c, 0, 77, 63
1, 140416, Note_on_c, 0, 74, 59
1, 140420, Note_on_c, 0, 71, 52
1, 140424, Note_off_c, 0, 56, 63
1, 140434, Control_c, 0, 64, 96
1, 140443, Note_off_c, 0, 65, 61
1, 140444, Note_off_c, 0, 62, 65
1, 140445, Note_off_c, 0, 58, 62
1, 140449, Control_c, 0, 64, 82
1, 140458, Note_off_c, 0, 71, 61
1, 140461, Note_off_c, 0, 77, 54
1, 140465, Note_off_c, 0, 74, 56
1, 140465, Control_c, 0, 64, 81
1, 140480, Control_c, 0, 64, 88
1, 140495, Control_c, 0, 64, 103
1, 140509, Control_c, 0, 64, 127
1, 140532, Note_on_c, 0, 65, 65
1, 140538, Note_on_c, 0, 71, 63
1, 140542, Note_on_c, 0, 62, 58
1, 140547, Note_on_c, 0, 59, 40
1, 140549, Note_on_c, 0, 77, 60
1, 140556, Note_on_c, 0, 74, 53
1, 140559, Note_off_c, 0, 65, 67
1, 140569, Note_off_c, 0, 71, 65
1, 140574, Note_off_c, 0, 77, 57
1, 140583, Note_off_c, 0, 62, 61
1, 140585, Note_off_c, 0, 59, 61
1, 140591, Note_off_c, 0, 74, 63
1, 140596, Poly_aftertouch_c, 0, 57, 127
1, 140616, Poly_aftertouch_c, 0, 57, 0
1, 140638, Note_on_c, 0, 65, 68
1, 140642, Note_on_c, 0, 71, 60
1, 140646, Note_on_c, 0, 57, 28
1, 140648, Note_on_c, 0, 62, 62
1, 140648, Note_on_c, 0, 77, 71
1, 140662, Note_on_c, 0, 74, 65
1, 140669, Note_on_c, 0, 59, 53
1, 140681, Note_off_c, 0, 71, 53
1, 140683, Note_off_c, 0, 62, 64
1, 140684, Note_off_c, 0, 65, 64
1, 140692, Note_off_c, 0, 57, 63
1, 140692, Note_off_c, 0, 74, 64
1, 140695, Note_off_c, 0, 59, 58
1, 140702, Note_off_c, 0, 77, 53
1, 140773, Note_on_c, 0, 63, 65
1, 140775, Note_on_c, 0, 56, 61
1, 140775, Note_on_c, 0, 66, 77
1, 140779, Note_on_c, 0, 75, 69
1, 140779, Note_on_c, 0, 78, 67
1, 140782, Note_on_c, 0, 72, 65
1, 140791, Control_c, 0, 64, 102
1, 140806, Control_c, 0, 64, 84
1, 140811, Note_off_c, 0, 63, 60
1, 140816, Note_off_c, 0, 78, 58
1, 140816, Note_off_c, 0, 56, 65
1, 140818, Note_off_c, 0, 66, 62
1, 140819, Note_off_c, 0, 72, 60
1, 140821, Note_off_c, 0, 75, 59
1, 140821, Control_c, 0, 64, 77
1, 140842, Control_c, 0, 64, 83
1, 140857, Control_c, 0, 64, 101
1, 140872, Control_c, 0, 64, 127
1, 140885, Note_on_c, 0, 60, 33
1, 140899, Note_on_c, 0, 66, 72
1, 140906, Note_on_c, 0, 63, 53
1, 140907, Note_on_c, 0, 78, 72
1, 140911, Note_on_c, 0, 72, 63
1, 140914, Note_on_c, 0, 75, 70
1, 140926, Note_on_c, 0, 56, 29
1, 140935, Note_off_c, 0, 63, 59
1, 140941, Note_off_c, 0, 72, 63
1, 140944, Note_off_c, 0, 75, 64
1, 140945, Note_off_c, 0, 66, 60
1, 140950, Note_off_c, 0, 60, 59
1, 140951, Note_off_c, 0, 56, 51
1, 140954, Note_off_c, 0, 78, 57
1, 141006, Note_on_c, 0, 75, 71
1, 141008, Note_on_c, 0, 72, 72
1, 141010, Note_on_c, 0, 78, 70
1, 141011, Note_on_c, 0, 66, 69
1, 141012, Note_on_c, 0, 60, 55
1, 141018, Note_on_c, 0, 63, 67
1, 141020, Note_on_c, 0, 56, 63
1, 141036, Note_off_c, 0, 60, 60
1, 141041, Note_off_c, 0, 66, 61
1, 141045, Note_off_c, 0, 72, 60
1, 141048, Note_off_c, 0, 63, 64
1, 141054, Note_off_c, 0, 56, 63
1, 141065, Note_off_c, 0, 78, 62
1, 141066, Note_off_c, 0, 75, 61
1, 141122, Note_on_c, 0, 67, 81
1, 141122, Note_on_c, 0, 61, 68
1, 141122, Note_on_c, 0, 73, 79
1, 141123, Note_on_c, 0, 64, 62
1, 141132, Note_on_c, 0, 79, 65
1, 141133, Note_on_c, 0, 76, 64
1, 141144, Note_off_c, 0, 67, 68
1, 141149, Note_on_c, 0, 55, 37
1, 141149, Note_off_c, 0, 61, 65
1, 141152, Note_off_c, 0, 64, 65
1, 141154, Note_off_c, 0, 79, 60
1, 141162, Note_off_c, 0, 76, 63
1, 141174, Note_off_c, 0, 73, 60
1, 141183, Note_off_c, 0, 55, 53
1, 141212, Note_on_c, 0, 61, 61
1, 141214, Note_on_c, 0, 64, 72
1, 141221, Note_on_c, 0, 67, 73
1, 141224, Note_on_c, 0, 73, 78
1, 141228, Note_on_c, 0, 76, 74
1, 141233, Note_on_c, 0, 79, 64
1, 141248, Note_off_c, 0, 61, 63
1, 141251, Note_off_c, 0, 64, 60
1, 141252, Note_on_c, 0, 55, 47
1, 141261, Note_off_c, 0, 79, 63
1, 141265, Note_off_c, 0, 67, 61
1, 141268, Note_off_c, 0, 73, 57
1, 141278, Note_on_c, 0, 53, 2
1, 141280, Note_off_c, 0, 76, 58
1, 141281, Note_off_c, 0, 55, 57
1, 141318, Control_c, 0, 64, 86
1, 141319, Note_off_c, 0, 53, 49
1, 141326, Note_on_c, 0, 61, 75
1, 141331, Note_on_c, 0, 67, 88
1, 141331, Note_on_c, 0, 73, 81
1, 141332, Control_c, 0, 64, 69
1, 141333, Note_on_c, 0, 79, 69
1, 141334, Note_on_c, 0, 64, 72
1, 141338, Note_on_c, 0, 76, 69
1, 141339, Note_on_c, 0, 55, 63
1, 141347, Control_c, 0, 64, 63
1, 141362, Control_c, 0, 64, 69
1, 141368, Note_off_c, 0, 64, 57
1, 141371, Note_off_c, 0, 67, 62
1, 141377, Control_c, 0, 64, 81
1, 141380, Note_on_c, 0, 77, 30
1, 141382, Note_off_c, 0, 61, 57
1, 141382, Note_off_c, 0, 55, 62
1, 141391, Control_c, 0, 64, 110
1, 141393, Note_off_c, 0, 73, 57
1, 141397, Note_off_c, 0, 79, 63
1, 141399, Note_off_c, 0, 76, 60
1, 141406, Control_c, 0, 64, 127
1, 141418, Note_off_c, 0, 77, 33
1, 141449, Note_on_c, 0, 68, 90
1, 141456, Note_on_c, 0, 74, 79
1, 141458, Note_on_c, 0, 62, 75
1, 141459, Note_on_c, 0, 65, 77
1, 141462, Note_on_c, 0, 80, 77
1, 141468, Note_on_c, 0, 77, 71
1, 141485, Note_off_c, 0, 65, 66
1, 141491, Note_off_c, 0, 62, 62
1, 141492, Note_on_c, 0, 60, 28
1, 141510, Note_off_c, 0, 68, 61
1, 141514, Note_off_c, 0, 74, 61
1, 141521, Note_off_c, 0, 80, 60
1, 141528, Note_off_c, 0, 77, 58
1, 141532, Note_off_c, 0, 60, 41
1, 141562, Note_on_c, 0, 65, 60
1, 141565, Note_on_c, 0, 68, 83
1, 141565, Note_on_c, 0, 74, 69
1, 141565, Note_on_c, 0, 80, 66
1, 141567, Note_on_c, 0, 62, 78
1, 141567, Note_on_c, 0, 77, 65
1, 141596, Note_on_c, 0, 60, 57
1, 141617, Note_off_c, 0, 60, 63
1, 141620, Note_off_c, 0, 62, 61
1, 141620, Note_off_c, 0, 65, 65
1, 141632, Note_off_c, 0, 68, 61
1, 141637, Note_off_c, 0, 74, 62
1, 141643, Note_off_c, 0, 80, 62
1, 141650, Note_off_c, 0, 77, 60
1, 141689, Note_on_c, 0, 74, 84
1, 141692, Note_on_c, 0, 68, 89
1, 141693, Note_on_c, 0, 80, 78
1, 141695, Note_on_c, 0, 77, 75
1, 141696, Note_on_c, 0, 60, 67
1, 141698, Note_on_c, 0, 65, 79
1, 141700, Note_on_c, 0, 62, 72
1, 141748, Note_off_c, 0, 65, 65
1, 141754, Note_off_c, 0, 74, 60
1, 141759, Note_off_c, 0, 68, 62
1, 141766, Note_off_c, 0, 77, 61
1, 141768, Note_off_c, 0, 60, 60
1, 141777, Note_off_c, 0, 62, 62
1, 141777, Note_off_c, 0, 80, 61
1, 141835, Note_on_c, 0, 69, 95
1, 141836, Note_on_c, 0, 81, 91
1, 141838, Note_on_c, 0, 59, 71
1, 141838, Note_on_c, 0, 78, 88
1, 141840, Note_on_c, 0, 74, 89
1, 141844, Note_on_c, 0, 62, 66
1, 141854, Note_on_c, 0, 66, 80
1, 141858, Control_c, 0, 64, 111
1, 141874, Control_c, 0, 64, 88
1, 141889, Control_c, 0, 64, 76
1, 141903, Control_c, 0, 64, 77
1, 141912, Note_off_c, 0, 69, 58
1, 141914, Note_off_c, 0, 66, 64
1, 141918, Control_c, 0, 64, 86
1, 141920, Note_off_c, 0, 59, 62
1, 141927, Note_off_c, 0, 81, 61
1, 141933, Note_off_c, 0, 62, 61
1, 141933, Note_off_c, 0, 74, 60
1, 141933, Control_c, 0, 64, 103
1, 141936, Note_off_c, 0, 78, 61
1, 141948, Control_c, 0, 64, 127
1, 141993, Note_on_c, 0, 75, 94
1, 141997, Note_on_c, 0, 69, 99
1, 142000, Note_on_c, 0, 81, 97
1, 142003, Note_on_c, 0, 78, 87
1, 142009, Note_on_c, 0, 66, 90
1, 142011, Note_on_c, 0, 59, 79
1, 142013, Note_on_c, 0, 62, 72
1, 142067, Note_off_c, 0, 75, 63
1, 142070, Note_off_c, 0, 66, 63
1, 142076, Note_off_c, 0, 62, 60
1, 142076, Note_off_c, 0, 59, 60
1, 142079, Note_off_c, 0, 69, 56
1, 142093, Note_off_c, 0, 81, 59
1, 142112, Note_off_c, 0, 78, 58
1, 142174, Note_on_c, 0, 59, 84
1, 142175, Note_on_c, 0, 66, 91
1, 142179, Note_on_c, 0, 69, 98
1, 142180, Note_on_c, 0, 81, 97
1, 142181, Note_on_c, 0, 74, 94
1, 142181, Note_on_c, 0, 78, 96
1, 142190, Note_on_c, 0, 62, 79
1, 142201, Control_c, 0, 64, 92
1, 142215, Control_c, 0, 64, 76
1, 142230, Control_c, 0, 64, 72
1, 142245, Control_c, 0, 64, 79
1, 142255, Note_off_c, 0, 66, 61
1, 142259, Note_off_c, 0, 69, 58
1, 142260, Control_c, 0, 64, 98
1, 142264, Note_off_c, 0, 62, 55
1, 142265, Note_off_c, 0, 59, 52
1, 142275, Control_c, 0, 64, 127
1, 142290, Note_off_c, 0, 81, 55
1, 142309, Note_off_c, 0, 78, 61
1, 142309, Note_off_c, 0, 74, 56
1, 142381, Note_on_c, 0, 74, 80
1, 142383, Note_on_c, 0, 70, 100
1, 142384, Note_on_c, 0, 62, 72
1, 142385, Note_on_c, 0, 67, 92
1, 142385, Note_on_c, 0, 79, 84
1, 142387, Note_on_c, 0, 58, 86
1, 142389, Note_on_c, 0, 82, 95
1, 142415, Control_c, 0, 64, 95
1, 142430, Control_c, 0, 64, 77
1, 142445, Control_c, 0, 64, 71
1, 142449, Note_off_c, 0, 67, 58
1, 142460, Control_c, 0, 64, 74
1, 142475, Control_c, 0, 64, 89
1, 142478, Note_off_c, 0, 70, 62
1, 142489, Control_c, 0, 64, 127
1, 142491, Note_off_c, 0, 82, 57
1, 142503, Note_off_c, 0, 58, 62
1, 142515, Note_off_c, 0, 79, 56
1, 142526, Note_off_c, 0, 74, 49
1, 142529, Note_off_c, 0, 62, 56
1, 142608, Note_on_c, 0, 58, 85
1, 142608, Note_on_c, 0, 62, 81
1, 142608, Note_on_c, 0, 67, 99
1, 142610, Note_on_c, 0, 70, 97
1, 142612, Note_on_c, 0, 79, 89
1, 142612, Note_on_c, 0, 82, 91
1, 142613, Note_on_c, 0, 74, 85
1, 142678, Note_off_c, 0, 67, 56
1, 142690, Note_off_c, 0, 70, 61
1, 142690, Note_off_c, 0, 82, 63
1, 142704, Poly_aftertouch_c, 0, 63, 127
1, 142724, Poly_aftertouch_c, 0, 63, 0
1, 142736, Note_off_c, 0, 58, 56
1, 142736, Note_off_c, 0, 62, 56
1, 142743, Note_off_c, 0, 79, 56
1, 142771, Note_off_c, 0, 74, 34
1, 142881, Note_on_c, 0, 74, 99
1, 142884, Note_on_c, 0, 79, 86
1, 142884, Note_on_c, 0, 70, 96
1, 142885, Note_on_c, 0, 58, 83
1, 142890, Note_on_c, 0, 67, 104
1, 142890, Note_on_c, 0, 82, 93
1, 142890, Control_c, 0, 64, 111
1, 142891, Note_on_c, 0, 62, 83
1, 142904, Control_c, 0, 64, 90
1, 142913, Note_on_c, 0, 71, 60
1, 142919, Control_c, 0, 64, 77
1, 142920, Note_on_c, 0, 63, 49
1, 142932, Note_off_c, 0, 71, 63
1, 142934, Control_c, 0, 64, 72
1, 142948, Note_off_c, 0, 63, 40
1, 142949, Control_c, 0, 64, 75
1, 142963, Control_c, 0, 64, 90
1, 142978, Control_c, 0, 64, 121
1, 142993, Control_c, 0, 64, 127
1, 143060, Note_off_c, 0, 67, 51
1, 143102, Note_off_c, 0, 70, 58
1, 143121, Note_off_c, 0, 82, 58
1, 143143, Note_off_c, 0, 79, 56
1, 143148, Note_off_c, 0, 58, 50
1, 143165, Note_off_c, 0, 62, 52
1, 143170, Note_off_c, 0, 74, 53
1, 143209, Note_on_c, 0, 57, 64
1, 143227, Note_on_c, 0, 58, 70
1, 143236, Note_on_c, 0, 62, 37
1, 143301, Note_on_c, 0, 68, 110
1, 143302, Note_on_c, 0, 74, 90
1, 143304, Note_on_c, 0, 80, 87
1, 143304, Note_on_c, 0, 82, 96
1, 143304, Note_on_c, 0, 70, 103
1, 143311, Control_c, 0, 64, 105
1, 143326, Control_c, 0, 64, 84
1, 143341, Control_c, 0, 64, 69
1, 143355, Control_c, 0, 64, 66
1, 143361, Note_on_c, 0, 78, 12
1, 143370, Control_c, 0, 64, 71
1, 143385, Control_c, 0, 64, 84
1, 143397, Note_off_c, 0, 57, 58
1, 143400, Control_c, 0, 64, 121
1, 143415, Control_c, 0, 64, 127
1, 143418, Note_off_c, 0, 78, 42
1, 143435, Note_off_c, 0, 68, 61
1, 143454, Note_off_c, 0, 70, 56
1, 143475, Note_off_c, 0, 58, 54
1, 143489, Note_off_c, 0, 82, 57
1, 143491, Note_off_c, 0, 74, 57
1, 143501, Note_off_c, 0, 80, 62
1, 143591, Note_off_c, 0, 62, 22
1, 143648, Note_on_c, 0, 68, 97
1, 143649, Note_on_c, 0, 70, 101
1, 143650, Note_on_c, 0, 74, 92
1, 143650, Note_on_c, 0, 80, 91
1, 143650, Note_on_c, 0, 57, 83
1, 143653, Note_on_c, 0, 82, 93
1, 143656, Note_on_c, 0, 62, 75
1, 143664, Note_on_c, 0, 58, 82
1, 143683, Control_c, 0, 64, 99
1, 143698, Control_c, 0, 64, 87
1, 143727, Control_c, 0, 64, 101
1, 143742, Control_c, 0, 64, 127
1, 143805, Note_off_c, 0, 70, 55
1, 143818, Note_off_c, 0, 68, 59
1, 143820, Note_off_c, 0, 57, 52
1, 143858, Note_off_c, 0, 62, 57
1, 143861, Note_off_c, 0, 82, 59
1, 143863, Note_off_c, 0, 74, 57
1, 143886, Note_off_c, 0, 80, 61
1, 143916, Note_off_c, 0, 58, 38
1, 144083, Note_on_c, 0, 70, 104
1, 144085, Note_on_c, 0, 74, 93
1, 144085, Note_on_c, 0, 80, 89
1, 144087, Note_on_c, 0, 82, 94
1, 144090, Note_on_c, 0, 57, 86
1, 144091, Note_on_c, 0, 68, 100
1, 144098, Note_on_c, 0, 62, 86
1, 144101, Note_on_c, 0, 58, 74
1, 144104, Control_c, 0, 64, 115
1, 144119, Control_c, 0, 64, 89
1, 144134, Control_c, 0, 64, 74
1, 144149, Control_c, 0, 64, 66
1, 144164, Control_c, 0, 64, 67
1, 144178, Control_c, 0, 64, 74
1, 144193, Control_c, 0, 64, 85
1, 144208, Control_c, 0, 64, 105
1, 144223, Control_c, 0, 64, 127
1, 144306, Note_off_c, 0, 57, 56
1, 144345, Note_off_c, 0, 68, 48
1, 144364, Note_off_c, 0, 70, 56
1, 144407, Note_off_c, 0, 62, 47
1, 144410, Note_off_c, 0, 74, 58
1, 144421, Note_off_c, 0, 82, 54
1, 144499, Note_off_c, 0, 80, 56
1, 144609, Note_off_c, 0, 58, 0
1, 144628, Note_on_c, 0, 58, 28
1, 144634, Note_on_c, 0, 81, 85
1, 144637, Note_on_c, 0, 70, 106
1, 144638, Note_on_c, 0, 74, 88
1, 144640, Note_on_c, 0, 82, 89
1, 144641, Note_on_c, 0, 69, 115
1, 144646, Control_c, 0, 64, 100
1, 144649, Note_on_c, 0, 56, 78
1, 144655, Note_on_c, 0, 62, 61
1, 144661, Control_c, 0, 64, 81
1, 144670, Note_on_c, 0, 63, 59
1, 144676, Note_on_c, 0, 80, 37
1, 144676, Control_c, 0, 64, 67
1, 144691, Control_c, 0, 64, 0
1, 144701, Note_off_c, 0, 63, 48
1, 144705, Control_c, 0, 64, 61
1, 144707, Note_off_c, 0, 80, 35
1, 144720, Control_c, 0, 64, 71
1, 144735, Control_c, 0, 64, 81
1, 144750, Control_c, 0, 64, 95
1, 144765, Control_c, 0, 64, 114
1, 144780, Control_c, 0, 64, 127
1, 144845, Note_off_c, 0, 56, 62
1, 144855, Note_off_c, 0, 69, 51
1, 144970, Note_off_c, 0, 81, 55
1, 144974, Note_off_c, 0, 70, 59
1, 144984, Note_off_c, 0, 62, 37
1, 145032, Note_off_c, 0, 82, 52
1, 145063, Note_off_c, 0, 58, 0
1, 145099, Poly_aftertouch_c, 0, 58, 127
1, 145156, Note_off_c, 0, 74, 22
1, 145245, Poly_aftertouch_c, 0, 58, 0
1, 145255, Note_on_c, 0, 56, 86
1, 145255, Note_on_c, 0, 68, 107
1, 145261, Note_on_c, 0, 70, 101
1, 145263, Note_on_c, 0, 80, 89
1, 145266, Note_on_c, 0, 82, 87
1, 145268, Note_on_c, 0, 74, 73
1, 145269, Note_on_c, 0, 58, 39
1, 145270, Note_on_c, 0, 62, 69
1, 145296, Note_off_c, 0, 62, 67
1, 145299, Note_off_c, 0, 58, 62
1, 145302, Note_off_c, 0, 68, 66
1, 145307, Note_off_c, 0, 56, 65
1, 145647, Note_off_c, 0, 70, 56
1, 145661, Note_off_c, 0, 74, 56
1, 145666, Note_off_c, 0, 82, 37
1, 145734, Note_off_c, 0, 80, 51
1, 146081, Note_on_c, 0, 51, 96
1, 146085, Note_on_c, 0, 70, 96
1, 146091, Note_on_c, 0, 75, 86
1, 146092, Note_on_c, 0, 82, 85
1, 146100, Note_on_c, 0, 78, 79
1, 146101, Control_c, 0, 64, 116
1, 146115, Control_c, 0, 64, 82
1, 146130, Control_c, 0, 64, 0
1, 146189, Control_c, 0, 64, 69
1, 146204, Control_c, 0, 64, 82
1, 146219, Control_c, 0, 64, 101
1, 146234, Control_c, 0, 64, 127
1, 146264, Note_off_c, 0, 51, 62
1, 146319, Note_off_c, 0, 82, 58
1, 146426, Note_off_c, 0, 70, 55
1, 146551, Note_off_c, 0, 78, 50
1, 146560, Note_off_c, 0, 75, 36
1, 146628, Note_on_c, 0, 80, 89
1, 146631, Note_on_c, 0, 68, 86
1, 146633, Note_on_c, 0, 78, 74
1, 146634, Note_on_c, 0, 39, 64
1, 146637, Note_on_c, 0, 75, 77
1, 146640, Note_on_c, 0, 27, 48
1, 146659, Note_off_c, 0, 39, 54
1, 146676, Note_off_c, 0, 27, 49
1, 146700, Note_off_c, 0, 68, 61
1, 146734, Note_off_c, 0, 80, 60
1, 146756, Note_off_c, 0, 75, 51
1, 146801, Note_off_c, 0, 78, 55
1, 146967, Note_on_c, 0, 82, 86
1, 146968, Note_on_c, 0, 70, 81
1, 146971, Note_on_c, 0, 78, 77
1, 146974, Note_on_c, 0, 75, 82
1, 146997, Note_on_c, 0, 46, 78
1, 147029, Note_off_c, 0, 70, 58
1, 147058, Note_off_c, 0, 82, 58
1, 147075, Note_off_c, 0, 75, 53
1, 147087, Note_off_c, 0, 78, 56
1, 147206, Note_off_c, 0, 46, 42
1, 147228, Note_on_c, 0, 82, 84
1, 147230, Note_on_c, 0, 70, 87
1, 147233, Note_on_c, 0, 78, 73
1, 147235, Note_on_c, 0, 75, 75
1, 147239, Note_on_c, 0, 58, 60
1, 147246, Note_on_c, 0, 54, 59
1, 147247, Note_on_c, 0, 51, 62
1, 147278, Note_off_c, 0, 58, 57
1, 147281, Note_off_c, 0, 70, 58
1, 147287, Note_off_c, 0, 82, 60
1, 147309, Note_off_c, 0, 54, 47
1, 147309, Note_off_c, 0, 75, 58
1, 147314, Note_off_c, 0, 78, 58
1, 147373, Note_off_c, 0, 51, 50
1, 147444, Note_on_c, 0, 78, 81
1, 147449, Note_on_c, 0, 66, 79
1, 147449, Note_on_c, 0, 75, 73
1, 147453, Note_on_c, 0, 46, 68
1, 147453, Note_on_c, 0, 70, 72
1, 147478, Note_off_c, 0, 66, 63
1, 147495, Note_off_c, 0, 70, 59
1, 147516, Note_off_c, 0, 78, 59
1, 147522, Note_off_c, 0, 46, 61
1, 147522, Note_off_c, 0, 75, 60
1, 147556, Poly_aftertouch_c, 0, 73, 0
1, 147623, Note_on_c, 0, 82, 87
1, 147624, Note_on_c, 0, 39, 67
1, 147624, Note_on_c, 0, 70, 84
1, 147630, Note_on_c, 0, 78, 77
1, 147632, Note_on_c, 0, 75, 76
1, 147665, Note_off_c, 0, 70, 58
1, 147674, Note_on_c, 0, 80, 24
1, 147686, Note_off_c, 0, 82, 58
1, 147692, Note_off_c, 0, 75, 54
1, 147699, Note_off_c, 0, 78, 58
1, 147713, Note_off_c, 0, 80, 53
1, 147723, Note_off_c, 0, 39, 60
1, 147791, Note_on_c, 0, 82, 83
1, 147797, Note_on_c, 0, 70, 84
1, 147803, Note_on_c, 0, 75, 79
1, 147803, Note_on_c, 0, 78, 78
1, 147815, Note_on_c, 0, 80, 50
1, 147823, Note_off_c, 0, 70, 61
1, 147831, Note_off_c, 0, 82, 59
1, 147838, Note_off_c, 0, 80, 63
1, 147841, Note_off_c, 0, 75, 56
1, 147850, Note_off_c, 0, 78, 55
1, 147909, Note_on_c, 0, 46, 45
1, 147961, Note_on_c, 0, 65, 89
1, 147963, Note_on_c, 0, 77, 78
1, 147964, Note_on_c, 0, 75, 78
1, 147970, Note_on_c, 0, 70, 67
1, 147990, Note_off_c, 0, 65, 61
1, 147999, Note_off_c, 0, 46, 62
1, 148007, Note_off_c, 0, 70, 55
1, 148018, Note_off_c, 0, 77, 59
1, 148032, Note_off_c, 0, 75, 60
1, 148053, Poly_aftertouch_c, 0, 73, 0
1, 148068, Poly_aftertouch_c, 0, 73, 0
1, 148133, Note_on_c, 0, 58, 68
1, 148141, Note_on_c, 0, 54, 67
1, 148143, Note_on_c, 0, 82, 81
1, 148143, Note_on_c, 0, 70, 78
1, 148145, Note_on_c, 0, 75, 73
1, 148150, Note_on_c, 0, 78, 71
1, 148172, Note_off_c, 0, 58, 60
1, 148176, Note_on_c, 0, 80, 41
1, 148184, Note_off_c, 0, 70, 52
1, 148193, Note_off_c, 0, 54, 56
1, 148220, Note_off_c, 0, 80, 47
1, 148235, Note_off_c, 0, 75, 49
1, 148244, Note_off_c, 0, 82, 54
1, 148254, Note_off_c, 0, 78, 54
1, 148342, Note_on_c, 0, 49, 98
1, 148360, Control_c, 0, 64, 98
1, 148375, Control_c, 0, 64, 71
1, 148379, Note_on_c, 0, 70, 91
1, 148379, Note_on_c, 0, 82, 83
1, 148381, Note_on_c, 0, 75, 79
1, 148387, Note_on_c, 0, 78, 77
1, 148390, Control_c, 0, 64, 0
1, 148420, Control_c, 0, 64, 72
1, 148434, Control_c, 0, 64, 97
1, 148444, Note_on_c, 0, 80, 33
1, 148449, Control_c, 0, 64, 127
1, 148482, Note_off_c, 0, 82, 61
1, 148493, Note_off_c, 0, 80, 46
1, 148517, Note_off_c, 0, 70, 59
1, 148518, Note_off_c, 0, 49, 60
1, 148520, Note_off_c, 0, 78, 57
1, 148529, Note_off_c, 0, 75, 57
1, 148661, Note_on_c, 0, 75, 83
1, 148666, Note_on_c, 0, 63, 82
1, 148668, Note_on_c, 0, 70, 68
1, 148694, Note_off_c, 0, 63, 63
1, 148714, Note_off_c, 0, 70, 58
1, 148730, Note_off_c, 0, 75, 60
1, 148761, Note_on_c, 0, 51, 100
1, 148806, Note_off_c, 0, 51, 64
1, 148867, Note_on_c, 0, 82, 84
1, 148867, Note_on_c, 0, 70, 84
1, 148870, Note_on_c, 0, 75, 73
1, 148872, Note_on_c, 0, 78, 74
1, 148918, Note_off_c, 0, 70, 62
1, 148928, Note_on_c, 0, 80, 13
1, 148959, Note_off_c, 0, 75, 59
1, 148961, Note_off_c, 0, 82, 58
1, 148973, Note_off_c, 0, 78, 59
1, 148974, Note_off_c, 0, 80, 53
1, 149168, Note_on_c, 0, 46, 85
1, 149172, Note_on_c, 0, 53, 103
1, 149183, Control_c, 0, 64, 96
1, 149192, Note_on_c, 0, 70, 91
1, 149194, Note_on_c, 0, 82, 92
1, 149197, Note_on_c, 0, 73, 84
1, 149198, Control_c, 0, 64, 70
1, 149199, Note_on_c, 0, 77, 76
1, 149213, Control_c, 0, 64, 0
1, 149259, Control_c, 0, 64, 70
1, 149273, Control_c, 0, 64, 86
1, 149288, Control_c, 0, 64, 120
1, 149297, Note_off_c, 0, 70, 61
1, 149303, Control_c, 0, 64, 127
1, 149305, Note_off_c, 0, 53, 60
1, 149317, Note_off_c, 0, 73, 62
1, 149352, Note_off_c, 0, 77, 58
1, 149382, Note_off_c, 0, 82, 61
1, 149400, Note_off_c, 0, 46, 60
1, 149584, Note_on_c, 0, 39, 88
1, 149591, Note_on_c, 0, 73, 87
1, 149591, Note_on_c, 0, 85, 87
1, 149594, Note_on_c, 0, 27, 89
1, 149594, Note_on_c, 0, 82, 84
1, 149597, Note_on_c, 0, 77, 76
1, 149633, Note_off_c, 0, 27, 63
1, 149637, Note_off_c, 0, 39, 62
1, 149639, Note_on_c, 0, 80, 30
1, 149657, Note_off_c, 0, 77, 59
1, 149659, Note_off_c, 0, 73, 60
1, 149662, Note_off_c, 0, 85, 61
1, 149669, Note_off_c, 0, 82, 60
1, 149672, Note_off_c, 0, 80, 52
1, 149846, Note_on_c, 0, 49, 93
1, 149862, Note_on_c, 0, 82, 82
1, 149868, Note_on_c, 0, 70, 82
1, 149871, Note_on_c, 0, 73, 76
1, 149872, Note_on_c, 0, 77, 74
1, 149917, Note_off_c, 0, 49, 63
1, 149931, Note_off_c, 0, 70, 60
1, 149956, Note_off_c, 0, 77, 57
1, 149959, Note_off_c, 0, 82, 54
1, 149965, Note_off_c, 0, 73, 57
1, 150080, Note_on_c, 0, 46, 98
1, 150111, Control_c, 0, 64, 96
1, 150122, Note_on_c, 0, 82, 82
1, 150125, Note_on_c, 0, 70, 79
1, 150125, Note_on_c, 0, 73, 75
1, 150126, Control_c, 0, 64, 70
1, 150127, Note_on_c, 0, 77, 75
1, 150141, Control_c, 0, 64, 0
1, 150155, Control_c, 0, 64, 13
1, 150170, Control_c, 0, 64, 71
1, 150185, Control_c, 0, 64, 88
1, 150200, Control_c, 0, 64, 127
1, 150205, Note_off_c, 0, 70, 57
1, 150222, Note_off_c, 0, 82, 60
1, 150267, Note_off_c, 0, 77, 53
1, 150277, Note_off_c, 0, 73, 58
1, 150298, Note_on_c, 0, 49, 10
1, 150358, Note_off_c, 0, 46, 49
1, 150364, Note_on_c, 0, 53, 82
1, 150370, Note_on_c, 0, 68, 72
1, 150370, Note_on_c, 0, 80, 74
1, 150381, Note_on_c, 0, 77, 66
1, 150387, Note_on_c, 0, 73, 65
1, 150396, Note_on_c, 0, 78, 43
1, 150411, Note_off_c, 0, 53, 63
1, 150419, Note_off_c, 0, 68, 52
1, 150425, Note_off_c, 0, 78, 52
1, 150443, Note_off_c, 0, 73, 45
1, 150444, Note_off_c, 0, 49, 35
1, 150458, Note_off_c, 0, 80, 61
1, 150465, Note_off_c, 0, 77, 54
1, 150527, Note_on_c, 0, 39, 73
1, 150544, Note_on_c, 0, 82, 82
1, 150546, Note_on_c, 0, 70, 81
1, 150548, Note_on_c, 0, 73, 77
1, 150550, Note_on_c, 0, 77, 64
1, 150584, Note_on_c, 0, 80, 42
1, 150603, Note_off_c, 0, 70, 63
1, 150606, Note_off_c, 0, 39, 61
1, 150609, Note_off_c, 0, 80, 59
1, 150625, Note_off_c, 0, 73, 58
1, 150634, Note_off_c, 0, 77, 58
1, 150636, Note_off_c, 0, 82, 60
1, 150689, Note_on_c, 0, 46, 79
1, 150692, Note_on_c, 0, 82, 76
1, 150698, Note_on_c, 0, 70, 82
1, 150698, Note_on_c, 0, 77, 65
1, 150700, Note_on_c, 0, 73, 69
1, 150726, Note_on_c, 0, 80, 17
1, 150736, Note_off_c, 0, 46, 62
1, 150738, Note_off_c, 0, 70, 63
1, 150740, Note_off_c, 0, 82, 64
1, 150751, Note_off_c, 0, 77, 57
1, 150763, Note_off_c, 0, 73, 59
1, 150767, Note_off_c, 0, 80, 53
1, 150826, Note_on_c, 0, 61, 76
1, 150830, Note_on_c, 0, 65, 82
1, 150833, Note_on_c, 0, 73, 79
1, 150834, Note_on_c, 0, 53, 59
1, 150836, Note_on_c, 0, 77, 74
1, 150853, Note_off_c, 0, 61, 65
1, 150855, Note_on_c, 0, 79, 50
1, 150856, Note_off_c, 0, 79, 127
1, 150856, Note_off_c, 0, 65, 63
1, 150865, Note_off_c, 0, 53, 64
1, 150868, Note_on_c, 0, 70, 25
1, 150886, Note_off_c, 0, 73, 59
1, 150889, Note_off_c, 0, 77, 60
1, 150899, Note_off_c, 0, 70, 44
1, 150969, Note_on_c, 0, 70, 86
1, 150977, Note_on_c, 0, 82, 79
1, 150980, Note_on_c, 0, 39, 91
1, 150980, Note_on_c, 0, 73, 78
1, 150992, Note_on_c, 0, 77, 66
1, 150999, Note_on_c, 0, 30, 50
1, 151000, Note_off_c, 0, 30, 127
1, 151004, Note_off_c, 0, 39, 65
1, 151019, Note_on_c, 0, 80, 19
1, 151028, Poly_aftertouch_c, 0, 30, 0
1, 151043, Note_off_c, 0, 70, 60
1, 151063, Note_off_c, 0, 80, 53
1, 151064, Note_off_c, 0, 73, 54
1, 151064, Note_off_c, 0, 77, 60
1, 151078, Note_off_c, 0, 82, 59
1, 151153, Note_on_c, 0, 49, 110
1, 151156, Control_c, 0, 64, 95
1, 151170, Note_on_c, 0, 70, 98
1, 151170, Control_c, 0, 64, 67
1, 151171, Note_on_c, 0, 73, 81
1, 151173, Note_on_c, 0, 82, 95
1, 151180, Note_on_c, 0, 77, 75
1, 151185, Control_c, 0, 64, 0
1, 151214, Control_c, 0, 64, 68
1, 151219, Note_off_c, 0, 49, 61
1, 151229, Control_c, 0, 64, 89
1, 151234, Note_off_c, 0, 82, 63
1, 151244, Control_c, 0, 64, 127
1, 151248, Note_off_c, 0, 70, 58
1, 151253, Note_off_c, 0, 77, 58
1, 151279, Poly_aftertouch_c, 0, 80, 0
1, 151279, Note_off_c, 0, 73, 60
1, 151367, Note_on_c, 0, 39, 84
1, 151386, Note_on_c, 0, 61, 93
1, 151386, Note_on_c, 0, 73, 95
1, 151389, Note_on_c, 0, 70, 78
1, 151415, Note_off_c, 0, 61, 62
1, 151426, Note_off_c, 0, 39, 62
1, 151436, Note_off_c, 0, 73, 60
1, 151446, Note_off_c, 0, 70, 62
1, 151581, Note_on_c, 0, 46, 86
1, 151582, Note_on_c, 0, 53, 99
1, 151606, Note_on_c, 0, 70, 88
1, 151606, Note_on_c, 0, 82, 88
1, 151608, Note_on_c, 0, 73, 83
1, 151612, Note_on_c, 0, 77, 75
1, 151627, Note_off_c, 0, 53, 65
1, 151631, Note_on_c, 0, 49, 18
1, 151648, Note_off_c, 0, 46, 63
1, 151660, Note_on_c, 0, 80, 5
1, 151662, Note_off_c, 0, 70, 58
1, 151680, Note_off_c, 0, 49, 40
1, 151682, Note_off_c, 0, 73, 61
1, 151698, Note_off_c, 0, 77, 59
1, 151719, Note_off_c, 0, 80, 51
1, 151727, Note_off_c, 0, 82, 61
1, 151877, Note_on_c, 0, 49, 101
1, 151878, Note_on_c, 0, 56, 104
1, 151886, Note_on_c, 0, 70, 97
1, 151889, Note_on_c, 0, 82, 91
1, 151889, Control_c, 0, 64, 102
1, 151889, Note_on_c, 0, 80, 83
1, 151902, Note_on_c, 0, 76, 70
1, 151904, Control_c, 0, 64, 76
1, 151910, Note_on_c, 0, 77, 69
1, 151918, Control_c, 0, 64, 0
1, 151963, Control_c, 0, 64, 68
1, 151978, Control_c, 0, 64, 84
1, 151984, Note_off_c, 0, 77, 47
1, 151992, Control_c, 0, 64, 106
1, 152001, Note_off_c, 0, 56, 61
1, 152007, Control_c, 0, 64, 127
1, 152021, Note_off_c, 0, 70, 62
1, 152075, Note_on_c, 0, 48, 28
1, 152094, Note_off_c, 0, 49, 61
1, 152098, Note_on_c, 0, 47, 42
1, 152102, Note_off_c, 0, 82, 61
1, 152104, Note_off_c, 0, 76, 55
1, 152114, Note_off_c, 0, 48, 47
1, 152127, Note_off_c, 0, 80, 61
1, 152128, Note_off_c, 0, 47, 53
1, 152228, Note_on_c, 0, 85, 87
1, 152232, Note_on_c, 0, 73, 81
1, 152233, Note_on_c, 0, 76, 72
1, 152238, Note_on_c, 0, 80, 75
1, 152238, Note_on_c, 0, 39, 89
1, 152243, Note_on_c, 0, 27, 84
1, 152276, Note_off_c, 0, 27, 60
1, 152291, Note_off_c, 0, 39, 61
1, 152295, Note_on_c, 0, 82, 16
1, 152302, Note_off_c, 0, 73, 58
1, 152306, Note_off_c, 0, 85, 61
1, 152326, Note_off_c, 0, 76, 53
1, 152328, Note_off_c, 0, 80, 60
1, 152338, Note_off_c, 0, 82, 41
1, 152441, Note_on_c, 0, 82, 78
1, 152444, Note_on_c, 0, 70, 91
1, 152444, Note_on_c, 0, 46, 86
1, 152448, Note_on_c, 0, 80, 77
1, 152452, Note_on_c, 0, 76, 73
1, 152492, Note_off_c, 0, 70, 63
1, 152515, Note_off_c, 0, 76, 56
1, 152521, Note_off_c, 0, 82, 59
1, 152529, Note_off_c, 0, 80, 62
1, 152540, Note_off_c, 0, 46, 53
1, 152597, Note_on_c, 0, 49, 72
1, 152598, Note_on_c, 0, 70, 83
1, 152607, Note_on_c, 0, 80, 78
1, 152612, Note_on_c, 0, 82, 75
1, 152620, Note_on_c, 0, 76, 60
1, 152638, Note_off_c, 0, 82, 65
1, 152647, Note_off_c, 0, 70, 62
1, 152663, Note_off_c, 0, 76, 52
1, 152670, Note_off_c, 0, 49, 62
1, 152673, Note_off_c, 0, 80, 62
1, 152724, Note_on_c, 0, 56, 76
1, 152730, Note_on_c, 0, 68, 89
1, 152733, Note_on_c, 0, 80, 81
1, 152754, Note_on_c, 0, 76, 49
1, 152763, Note_on_c, 0, 70, 41
1, 152763, Note_on_c, 0, 82, 31
1, 152779, Note_off_c, 0, 76, 54
1, 152780, Note_off_c, 0, 68, 62
1, 152781, Note_off_c, 0, 56, 63
1, 152787, Note_off_c, 0, 70, 63
1, 152795, Note_off_c, 0, 82, 54
1, 152825, Note_off_c, 0, 80, 62
1, 152858, Note_on_c, 0, 64, 73
1, 152861, Note_on_c, 0, 82, 98
1, 152862, Note_on_c, 0, 70, 88
1, 152897, Note_on_c, 0, 76, 31
1, 152900, Note_off_c, 0, 64, 63
1, 152919, Note_off_c, 0, 70, 60
1, 152930, Note_off_c, 0, 76, 50
1, 152954, Note_off_c, 0, 82, 59
1, 153029, Note_on_c, 0, 54, 84
1, 153031, Control_c, 0, 64, 101
1, 153039, Note_on_c, 0, 49, 87
1, 153046, Control_c, 0, 64, 72
1, 153052, Note_on_c, 0, 70, 95
1, 153054, Note_on_c, 0, 76, 79
1, 153055, Note_on_c, 0, 82, 95
1, 153061, Note_on_c, 0, 79, 82
1, 153061, Control_c, 0, 64, 0
1, 153065, Note_on_c, 0, 55, 68
1, 153091, Note_on_c, 0, 59, 26
1, 153092, Note_off_c, 0, 59, 127
1, 153104, Control_c, 0, 64, 68
1, 153119, Control_c, 0, 64, 89
1, 153121, Note_off_c, 0, 70, 64
1, 153134, Control_c, 0, 64, 127
1, 153143, Note_off_c, 0, 55, 62
1, 153147, Note_off_c, 0, 54, 35
1, 153149, Note_off_c, 0, 49, 62
1, 153170, Note_off_c, 0, 82, 61
1, 153180, Note_off_c, 0, 79, 54
1, 153211, Note_off_c, 0, 76, 47
1, 153268, Note_on_c, 0, 39, 89
1, 153274, Note_on_c, 0, 86, 91
1, 153276, Note_on_c, 0, 76, 68
1, 153282, Note_on_c, 0, 74, 88
1, 153282, Note_on_c, 0, 27, 70
1, 153289, Note_on_c, 0, 30, 55
1, 153290, Note_on_c, 0, 79, 74
1, 153290, Note_on_c, 0, 82, 66
1, 153291, Note_off_c, 0, 39, 67
1, 153301, Note_on_c, 0, 40, 45
1, 153302, Note_off_c, 0, 40, 127
1, 153310, Note_off_c, 0, 27, 55
1, 153317, Note_off_c, 0, 30, 61
1, 153319, Note_off_c, 0, 86, 64
1, 153329, Note_off_c, 0, 74, 57
1, 153332, Poly_aftertouch_c, 0, 40, 0
1, 153338, Note_off_c, 0, 82, 51
1, 153361, Note_off_c, 0, 76, 56
1, 153381, Note_off_c, 0, 79, 42
1, 153437, Note_on_c, 0, 79, 59
1, 153438, Note_on_c, 0, 70, 90
1, 153444, Note_on_c, 0, 82, 84
1, 153445, Note_on_c, 0, 46, 80
1, 153453, Note_on_c, 0, 76, 65
1, 153496, Note_off_c, 0, 70, 60
1, 153505, Note_off_c, 0, 46, 61
1, 153518, Note_off_c, 0, 76, 44
1, 153527, Note_off_c, 0, 82, 58
1, 153538, Note_off_c, 0, 79, 39
1, 153589, Note_on_c, 0, 49, 86
1, 153597, Note_on_c, 0, 82, 89
1, 153598, Note_on_c, 0, 70, 91
1, 153600, Note_on_c, 0, 79, 65
1, 153612, Note_on_c, 0, 76, 55
1, 153638, Note_off_c, 0, 49, 64
1, 153638, Note_off_c, 0, 76, 62
1, 153643, Note_off_c, 0, 79, 60
1, 153645, Note_off_c, 0, 70, 62
1, 153663, Note_off_c, 0, 82, 61
1, 153788, Note_on_c, 0, 55, 53
1, 153791, Note_on_c, 0, 64, 78
1, 153794, Control_c, 0, 64, 94
1, 153806, Note_on_c, 0, 79, 75
1, 153809, Note_on_c, 0, 67, 73
1, 153809, Control_c, 0, 64, 75
1, 153813, Note_on_c, 0, 76, 37
1, 153823, Control_c, 0, 64, 67
1, 153838, Control_c, 0, 64, 71
1, 153853, Control_c, 0, 64, 81
1, 153860, Note_off_c, 0, 64, 60
1, 153865, Note_off_c, 0, 67, 63
1, 153868, Control_c, 0, 64, 102
1, 153880, Note_off_c, 0, 55, 56
1, 153883, Control_c, 0, 64, 127
1, 153887, Note_off_c, 0, 76, 60
1, 153904, Note_off_c, 0, 79, 62
1, 154000, Note_on_c, 0, 58, 95
1, 154015, Control_c, 0, 64, 117
1, 154031, Control_c, 0, 64, 86
1, 154046, Control_c, 0, 64, 67
1, 154061, Control_c, 0, 64, 0
1, 154071, Note_on_c, 0, 82, 56
1, 154074, Note_on_c, 0, 79, 57
1, 154076, Control_c, 0, 64, 65
1, 154091, Control_c, 0, 64, 81
1, 154106, Control_c, 0, 64, 105
1, 154108, Note_off_c, 0, 58, 63
1, 154112, Note_off_c, 0, 82, 42
1, 154120, Control_c, 0, 64, 127
1, 154154, Note_off_c, 0, 79, 60
1, 154175, Poly_aftertouch_c, 0, 70, 0
1, 154204, Poly_aftertouch_c, 0, 76, 0
1, 154370, Note_on_c, 0, 54, 87
1, 154384, Note_on_c, 0, 47, 63
1, 154394, Control_c, 0, 64, 93
1, 154398, Note_on_c, 0, 70, 60
1, 154406, Note_on_c, 0, 78, 63
1, 154408, Note_on_c, 0, 82, 62
1, 154409, Control_c, 0, 64, 75
1, 154419, Note_on_c, 0, 75, 53
1, 154424, Control_c, 0, 64, 46
1, 154438, Control_c, 0, 64, 0
1, 154440, Note_off_c, 0, 70, 46
1, 154453, Control_c, 0, 64, 66
1, 154468, Control_c, 0, 64, 78
1, 154483, Control_c, 0, 64, 98
1, 154498, Control_c, 0, 64, 127
1, 154508, Note_off_c, 0, 75, 35
1, 154513, Note_off_c, 0, 82, 60
1, 154521, Note_off_c, 0, 54, 61
1, 154532, Note_off_c, 0, 78, 59
1, 154540, Note_off_c, 0, 47, 61
1, 154651, Note_on_c, 0, 87, 84
1, 154658, Note_on_c, 0, 82, 68
1, 154662, Note_on_c, 0, 75, 73
1, 154662, Note_on_c, 0, 78, 67
1, 154667, Note_on_c, 0, 39, 85
1, 154671, Note_on_c, 0, 27, 81
1, 154700, Note_off_c, 0, 39, 63
1, 154703, Note_off_c, 0, 27, 61
1, 154708, Note_off_c, 0, 75, 58
1, 154714, Note_off_c, 0, 78, 57
1, 154721, Note_off_c, 0, 87, 64
1, 154727, Note_off_c, 0, 82, 60
1, 154835, Note_on_c, 0, 82, 87
1, 154838, Note_on_c, 0, 70, 85
1, 154841, Note_on_c, 0, 78, 73
1, 154846, Note_on_c, 0, 75, 69
1, 154849, Note_on_c, 0, 47, 77
1, 154873, Note_off_c, 0, 70, 57
1, 154891, Note_off_c, 0, 75, 48
1, 154899, Note_off_c, 0, 47, 57
1, 154915, Note_off_c, 0, 78, 58
1, 154918, Note_off_c, 0, 82, 56
1, 154985, Note_on_c, 0, 70, 86
1, 154986, Note_on_c, 0, 54, 81
1, 154990, Note_on_c, 0, 82, 79
1, 154992, Note_on_c, 0, 75, 75
1, 154994, Note_on_c, 0, 78, 75
1, 155019, Note_on_c, 0, 80, 45
1, 155034, Note_off_c, 0, 70, 61
1, 155037, Note_off_c, 0, 82, 57
1, 155043, Note_off_c, 0, 80, 61
1, 155045, Note_off_c, 0, 75, 57
1, 155052, Note_off_c, 0, 54, 62
1, 155055, Note_off_c, 0, 78, 60
1, 155130, Note_on_c, 0, 63, 84
1, 155132, Note_on_c, 0, 66, 95
1, 155133, Note_on_c, 0, 78, 92
1, 155152, Note_on_c, 0, 75, 69
1, 155165, Note_off_c, 0, 63, 62
1, 155180, Note_off_c, 0, 66, 63
1, 155195, Note_off_c, 0, 75, 55
1, 155206, Note_off_c, 0, 78, 61
1, 155286, Note_on_c, 0, 82, 93
1, 155287, Note_on_c, 0, 70, 93
1, 155288, Note_on_c, 0, 75, 83
1, 155293, Note_on_c, 0, 78, 82
1, 155296, Note_on_c, 0, 39, 72
1, 155302, Note_on_c, 0, 47, 70
1, 155323, Note_on_c, 0, 48, 57
1, 155326, Note_on_c, 0, 80, 35
1, 155338, Note_off_c, 0, 39, 63
1, 155347, Note_off_c, 0, 48, 59
1, 155358, Note_off_c, 0, 47, 61
1, 155365, Note_off_c, 0, 80, 48
1, 155392, Note_off_c, 0, 70, 58
1, 155394, Note_off_c, 0, 82, 56
1, 155408, Note_off_c, 0, 78, 59
1, 155412, Note_off_c, 0, 75, 59
1, 155476, Note_on_c, 0, 56, 104
1, 155511, Note_on_c, 0, 74, 83
1, 155512, Note_on_c, 0, 78, 82
1, 155514, Note_on_c, 0, 82, 79
1, 155514, Control_c, 0, 64, 117
1, 155515, Note_on_c, 0, 70, 78
1, 155529, Control_c, 0, 64, 87
1, 155543, Control_c, 0, 64, 67
1, 155558, Control_c, 0, 64, 65
1, 155573, Control_c, 0, 64, 73
1, 155581, Note_off_c, 0, 82, 62
1, 155585, Note_off_c, 0, 70, 58
1, 155587, Control_c, 0, 64, 89
1, 155602, Control_c, 0, 64, 127
1, 155631, Note_off_c, 0, 74, 58
1, 155633, Note_off_c, 0, 78, 56
1, 155635, Note_off_c, 0, 56, 63
1, 155666, Note_on_c, 0, 58, 87
1, 155708, Note_off_c, 0, 58, 63
1, 155731, Note_on_c, 0, 78, 90
1, 155740, Note_on_c, 0, 66, 77
1, 155751, Note_on_c, 0, 74, 55
1, 155752, Note_on_c, 0, 56, 58
1, 155767, Note_off_c, 0, 56, 68
1, 155774, Note_off_c, 0, 66, 59
1, 155788, Note_off_c, 0, 74, 60
1, 155812, Note_off_c, 0, 78, 60
1, 155827, Note_on_c, 0, 58, 59
1, 155845, Note_off_c, 0, 58, 63
1, 155884, Note_on_c, 0, 56, 17
1, 155906, Poly_aftertouch_c, 0, 59, 127
1, 155911, Note_on_c, 0, 57, 28
1, 155911, Note_on_c, 0, 78, 85
1, 155913, Note_on_c, 0, 70, 84
1, 155914, Note_on_c, 0, 74, 65
1, 155917, Note_on_c, 0, 82, 79
1, 155934, Poly_aftertouch_c, 0, 59, 0
1, 155938, Note_off_c, 0, 56, 64
1, 155943, Note_on_c, 0, 58, 66
1, 155948, Note_off_c, 0, 57, 47
1, 155964, Note_off_c, 0, 70, 61
1, 155982, Note_off_c, 0, 82, 56
1, 155987, Note_off_c, 0, 78, 59
1, 155994, Note_off_c, 0, 74, 35
1, 156001, Note_off_c, 0, 58, 63
1, 156034, Note_on_c, 0, 56, 82
1, 156045, Note_on_c, 0, 70, 61
1, 156045, Note_on_c, 0, 58, 61
1, 156048, Note_on_c, 0, 74, 64
1, 156053, Note_on_c, 0, 82, 80
1, 156054, Note_on_c, 0, 78, 80
1, 156098, Note_off_c, 0, 58, 62
1, 156098, Note_off_c, 0, 70, 62
1, 156111, Note_off_c, 0, 82, 63
1, 156116, Note_off_c, 0, 74, 61
1, 156124, Note_off_c, 0, 56, 66
1, 156133, Note_off_c, 0, 78, 62
1, 156248, Note_on_c, 0, 44, 38
1, 156298, Note_off_c, 0, 44, 58
1, 156341, Note_on_c, 0, 39, 81
1, 156342, Note_on_c, 0, 65, 87
1, 156342, Note_on_c, 0, 77, 91
1, 156343, Note_on_c, 0, 70, 89
1, 156358, Note_on_c, 0, 54, 59
1, 156359, Note_off_c, 0, 54, 127
1, 156361, Note_on_c, 0, 51, 50
1, 156375, Note_off_c, 0, 39, 63
1, 156380, Note_off_c, 0, 65, 68
1, 156383, Note_on_c, 0, 53, 40
1, 156389, Note_off_c, 0, 51, 60
1, 156402, Note_off_c, 0, 70, 64
1, 156411, Note_off_c, 0, 53, 57
1, 156413, Note_off_c, 0, 77, 61
1, 156440, Poly_aftertouch_c, 0, 75, 127
1, 156468, Poly_aftertouch_c, 0, 75, 0
1, 156578, Note_on_c, 0, 56, 103
1, 156583, Note_on_c, 0, 46, 97
1, 156589, Note_on_c, 0, 82, 90
1, 156590, Note_on_c, 0, 70, 91
1, 156596, Note_on_c, 0, 77, 80
1, 156611, Note_off_c, 0, 56, 68
1, 156623, Note_off_c, 0, 46, 60
1, 156629, Note_on_c, 0, 80, 36
1, 156657, Note_off_c, 0, 80, 55
1, 156661, Note_off_c, 0, 70, 58
1, 156673, Note_off_c, 0, 77, 59
1, 156706, Poly_aftertouch_c, 0, 83, 0
1, 156714, Note_off_c, 0, 82, 55
1, 156879, Note_on_c, 0, 58, 98
1, 156887, Note_on_c, 0, 54, 87
1, 156894, Control_c, 0, 64, 94
1, 156900, Note_on_c, 0, 70, 92
1, 156901, Note_on_c, 0, 82, 93
1, 156903, Note_on_c, 0, 77, 79
1, 156909, Control_c, 0, 64, 68
1, 156923, Control_c, 0, 64, 0
1, 156939, Note_on_c, 0, 80, 41
1, 156967, Control_c, 0, 64, 62
1, 156972, Note_off_c, 0, 80, 53
1, 156982, Control_c, 0, 64, 82
1, 156986, Note_off_c, 0, 58, 59
1, 156997, Control_c, 0, 64, 103
1, 157002, Note_off_c, 0, 77, 60
1, 157012, Control_c, 0, 64, 127
1, 157028, Note_off_c, 0, 82, 62
1, 157034, Note_off_c, 0, 70, 62
1, 157046, Note_off_c, 0, 54, 60
1, 157208, Note_on_c, 0, 39, 88
1, 157220, Note_on_c, 0, 27, 77
1, 157228, Note_on_c, 0, 77, 88
1, 157230, Note_on_c, 0, 65, 85
1, 157239, Note_on_c, 0, 70, 78
1, 157257, Note_off_c, 0, 27, 59
1, 157258, Note_off_c, 0, 39, 62
1, 157268, Note_off_c, 0, 65, 65
1, 157294, Note_off_c, 0, 70, 64
1, 157304, Note_off_c, 0, 77, 61
1, 157477, Note_on_c, 0, 46, 98
1, 157492, Note_on_c, 0, 70, 85
1, 157492, Note_on_c, 0, 82, 85
1, 157493, Note_on_c, 0, 77, 82
1, 157545, Note_off_c, 0, 70, 61
1, 157561, Note_off_c, 0, 77, 56
1, 157584, Note_off_c, 0, 82, 57
1, 157660, Note_on_c, 0, 70, 82
1, 157663, Note_on_c, 0, 82, 86
1, 157664, Note_on_c, 0, 77, 73
1, 157710, Note_off_c, 0, 70, 64
1, 157712, Note_off_c, 0, 82, 61
1, 157713, Note_off_c, 0, 77, 61
1, 157755, Note_off_c, 0, 46, 59
1, 157809, Note_on_c, 0, 39, 73
1, 157810, Note_on_c, 0, 75, 84
1, 157812, Note_on_c, 0, 63, 82
1, 157815, Note_on_c, 0, 70, 73
1, 157837, Note_off_c, 0, 63, 66
1, 157844, Note_off_c, 0, 70, 57
1, 157870, Note_off_c, 0, 75, 60
1, 157883, Note_off_c, 0, 39, 56
1, 157957, Note_on_c, 0, 82, 85
1, 157959, Note_on_c, 0, 46, 75
1, 157959, Note_on_c, 0, 70, 75
1, 157962, Note_on_c, 0, 54, 56
1, 157968, Note_on_c, 0, 75, 72
1, 157981, Note_off_c, 0, 54, 61
1, 157988, Note_off_c, 0, 70, 63
1, 157996, Note_off_c, 0, 75, 65
1, 158000, Note_off_c, 0, 46, 63
1, 158001, Note_on_c, 0, 78, 10
1, 158005, Note_on_c, 0, 80, 12
1, 158016, Note_off_c, 0, 82, 60
1, 158047, Note_off_c, 0, 78, 50
1, 158060, Note_off_c, 0, 80, 53
1, 158107, Note_on_c, 0, 75, 72
1, 158113, Note_on_c, 0, 82, 92
1, 158117, Note_on_c, 0, 70, 65
1, 158147, Note_off_c, 0, 70, 66
1, 158149, Note_off_c, 0, 75, 59
1, 158151, Note_off_c, 0, 82, 54
1, 158155, Note_on_c, 0, 78, 20
1, 158192, Note_off_c, 0, 78, 49
1, 158221, Poly_aftertouch_c, 0, 32, 127
1, 158285, Poly_aftertouch_c, 0, 32, 0
1, 158297, Note_on_c, 0, 78, 81
1, 158301, Note_on_c, 0, 90, 85
1, 158303, Note_on_c, 0, 39, 90
1, 158307, Note_on_c, 0, 87, 75
1, 158313, Note_on_c, 0, 27, 80
1, 158320, Note_off_c, 0, 90, 67
1, 158322, Note_off_c, 0, 87, 70
1, 158325, Note_off_c, 0, 78, 61
1, 158331, Note_off_c, 0, 39, 67
1, 158340, Note_off_c, 0, 27, 61
1, 158377, Poly_aftertouch_c, 0, 81, 127
1, 158408, Poly_aftertouch_c, 0, 81, 0
1, 158412, Poly_aftertouch_c, 0, 77, 0
1, 158481, Note_on_c, 0, 82, 80
1, 158483, Note_on_c, 0, 70, 84
1, 158490, Note_on_c, 0, 58, 91
1, 158492, Note_on_c, 0, 78, 73
1, 158493, Note_on_c, 0, 46, 89
1, 158502, Note_on_c, 0, 54, 66
1, 158510, Note_on_c, 0, 80, 52
1, 158535, Note_off_c, 0, 80, 57
1, 158550, Note_off_c, 0, 70, 61
1, 158555, Note_off_c, 0, 58, 59
1, 158560, Note_on_c, 0, 51, 29
1, 158591, Note_off_c, 0, 78, 60
1, 158611, Poly_aftertouch_c, 0, 59, 0
1, 158629, Poly_aftertouch_c, 0, 49, 127
1, 158637, Note_off_c, 0, 82, 61
1, 158722, Note_on_c, 0, 57, 106
1, 158737, Note_off_c, 0, 54, 63
1, 158746, Control_c, 0, 64, 98
1, 158748, Note_on_c, 0, 71, 85
1, 158749, Note_on_c, 0, 83, 82
1, 158752, Note_on_c, 0, 78, 75
1, 158760, Control_c, 0, 64, 74
1, 158775, Control_c, 0, 64, 0
1, 158776, Note_off_c, 0, 51, 55
1, 158798, Note_off_c, 0, 71, 60
1, 158812, Control_c, 0, 64, 60
1, 158827, Control_c, 0, 64, 83
1, 158840, Note_off_c, 0, 57, 60
1, 158840, Note_off_c, 0, 78, 61
1, 158843, Note_off_c, 0, 83, 62
1, 158843, Control_c, 0, 64, 113
1, 158858, Control_c, 0, 64, 127
1, 158859, Poly_aftertouch_c, 0, 49, 0
1, 158877, Note_off_c, 0, 46, 63
1, 159039, Note_on_c, 0, 90, 85
1, 159044, Note_on_c, 0, 78, 82
1, 159049, Note_on_c, 0, 83, 77
1, 159053, Note_on_c, 0, 39, 84
1, 159059, Note_on_c, 0, 46, 82
1, 159088, Note_off_c, 0, 90, 65
1, 159094, Note_off_c, 0, 83, 61
1, 159097, Note_on_c, 0, 85, 9
1, 159100, Note_off_c, 0, 39, 61
1, 159101, Note_off_c, 0, 78, 60
1, 159106, Note_off_c, 0, 46, 60
1, 159146, Note_off_c, 0, 85, 39
1, 159216, Note_on_c, 0, 58, 100
1, 159222, Note_on_c, 0, 70, 87
1, 159228, Control_c, 0, 64, 92
1, 159231, Note_on_c, 0, 82, 74
1, 159232, Note_on_c, 0, 78, 70
1, 159238, Note_on_c, 0, 51, 60
1, 159243, Control_c, 0, 64, 79
1, 159257, Note_on_c, 0, 49, 36
1, 159263, Note_off_c, 0, 51, 60
1, 159269, Note_off_c, 0, 58, 63
1, 159273, Control_c, 0, 64, 89
1, 159285, Note_off_c, 0, 70, 62
1, 159288, Control_c, 0, 64, 111
1, 159291, Note_off_c, 0, 49, 55
1, 159303, Control_c, 0, 64, 127
1, 159312, Note_off_c, 0, 78, 58
1, 159312, Note_off_c, 0, 82, 57
1, 159407, Control_c, 0, 64, 104
1, 159417, Note_on_c, 0, 60, 100
1, 159419, Note_on_c, 0, 54, 99
1, 159422, Control_c, 0, 64, 78
1, 159436, Note_on_c, 0, 70, 83
1, 159436, Control_c, 0, 64, 0
1, 159437, Note_on_c, 0, 78, 80
1, 159439, Note_on_c, 0, 82, 87
1, 159463, Note_off_c, 0, 60, 61
1, 159466, Control_c, 0, 64, 44
1, 159481, Control_c, 0, 64, 79
1, 159482, Note_off_c, 0, 70, 63
1, 159496, Control_c, 0, 64, 102
1, 159510, Note_off_c, 0, 54, 56
1, 159510, Control_c, 0, 64, 127
1, 159513, Note_off_c, 0, 78, 62
1, 159518, Note_off_c, 0, 82, 63
1, 159715, Note_on_c, 0, 90, 93
1, 159720, Note_on_c, 0, 78, 87
1, 159720, Note_on_c, 0, 39, 82
1, 159726, Note_on_c, 0, 82, 75
1, 159726, Note_on_c, 0, 27, 73
1, 159729, Note_on_c, 0, 25, 59
1, 159730, Note_off_c, 0, 25, 127
1, 159745, Note_off_c, 0, 39, 67
1, 159751, Note_on_c, 0, 37, 37
1, 159764, Poly_aftertouch_c, 0, 25, 0
1, 159766, Note_off_c, 0, 78, 63
1, 159770, Note_off_c, 0, 27, 49
1, 159773, Note_off_c, 0, 82, 50
1, 159776, Note_off_c, 0, 90, 64
1, 159787, Note_off_c, 0, 37, 51
1, 159928, Note_on_c, 0, 57, 90
1, 159932, Note_on_c, 0, 48, 89
1, 159963, Note_on_c, 0, 84, 79
1, 159966, Note_on_c, 0, 72, 70
1, 159967, Note_on_c, 0, 78, 80
1, 159970, Note_on_c, 0, 74, 67
1, 159987, Note_off_c, 0, 74, 67
1, 159997, Note_off_c, 0, 72, 60
1, 160049, Note_off_c, 0, 57, 59
1, 160066, Note_off_c, 0, 78, 58
1, 160078, Note_off_c, 0, 84, 60
1, 160130, Note_on_c, 0, 54, 97
1, 160156, Control_c, 0, 64, 88
1, 160171, Control_c, 0, 64, 67
1, 160182, Note_on_c, 0, 84, 85
1, 160186, Control_c, 0, 64, 0
1, 160186, Note_on_c, 0, 72, 78
1, 160187, Note_on_c, 0, 78, 75
1, 160214, Note_off_c, 0, 48, 55
1, 160216, Control_c, 0, 64, 70
1, 160231, Control_c, 0, 64, 89
1, 160243, Note_off_c, 0, 54, 60
1, 160246, Control_c, 0, 64, 127
1, 160250, Note_off_c, 0, 72, 60
1, 160270, Note_off_c, 0, 84, 57
1, 160304, Note_off_c, 0, 78, 59
1, 160382, Note_on_c, 0, 70, 82
1, 160383, Note_on_c, 0, 39, 75
1, 160383, Note_on_c, 0, 82, 82
1, 160394, Note_on_c, 0, 78, 75
1, 160425, Note_off_c, 0, 70, 63
1, 160461, Note_off_c, 0, 78, 57
1, 160466, Poly_aftertouch_c, 0, 75, 0
1, 160467, Note_off_c, 0, 39, 62
1, 160494, Note_off_c, 0, 82, 58
1, 160502, Poly_aftertouch_c, 0, 75, 0
1, 160536, Note_on_c, 0, 48, 85
1, 160546, Note_on_c, 0, 72, 87
1, 160547, Note_on_c, 0, 84, 85
1, 160550, Note_on_c, 0, 78, 84
1, 160577, Note_off_c, 0, 48, 63
1, 160596, Note_off_c, 0, 72, 58
1, 160610, Note_off_c, 0, 78, 59
1, 160624, Note_off_c, 0, 84, 60
1, 160680, Note_on_c, 0, 54, 81
1, 160685, Note_on_c, 0, 84, 86
1, 160691, Note_on_c, 0, 72, 88
1, 160691, Note_on_c, 0, 78, 79
1, 160728, Note_on_c, 0, 82, 29
1, 160737, Note_off_c, 0, 72, 62
1, 160751, Note_off_c, 0, 84, 61
1, 160759, Note_off_c, 0, 78, 59
1, 160760, Note_off_c, 0, 82, 47
1, 160775, Poly_aftertouch_c, 0, 74, 127
1, 160794, Note_on_c, 0, 60, 40
1, 160803, Note_off_c, 0, 54, 57
1, 160812, Poly_aftertouch_c, 0, 74, 0
1, 160822, Note_on_c, 0, 69, 92
1, 160823, Note_on_c, 0, 81, 86
1, 160833, Note_on_c, 0, 80, 75
1, 160866, Note_off_c, 0, 69, 58
1, 160889, Note_off_c, 0, 80, 62
1, 160898, Note_off_c, 0, 81, 59
1, 160949, Note_on_c, 0, 66, 96
1, 160958, Note_on_c, 0, 78, 82
1, 160961, Note_on_c, 0, 84, 88
1, 160967, Note_on_c, 0, 72, 76
1, 160985, Note_off_c, 0, 66, 66
1, 161002, Note_off_c, 0, 60, 50
1, 161006, Note_off_c, 0, 72, 49
1, 161060, Note_off_c, 0, 78, 49
1, 161092, Note_off_c, 0, 84, 58
1, 161134, Control_c, 0, 64, 104
1, 161143, Note_on_c, 0, 57, 103
1, 161149, Control_c, 0, 64, 78
1, 161162, Note_on_c, 0, 78, 79
1, 161164, Control_c, 0, 64, 66
1, 161171, Note_on_c, 0, 72, 86
1, 161174, Note_on_c, 0, 84, 79
1, 161186, Note_off_c, 0, 57, 68
1, 161194, Control_c, 0, 64, 73
1, 161209, Control_c, 0, 64, 89
1, 161209, Note_off_c, 0, 84, 62
1, 161224, Control_c, 0, 64, 127
1, 161228, Note_off_c, 0, 72, 60
1, 161239, Note_off_c, 0, 78, 62
1, 161371, Note_on_c, 0, 63, 84
1, 161371, Note_on_c, 0, 75, 80
1, 161372, Note_on_c, 0, 48, 91
1, 161377, Note_on_c, 0, 37, 82
1, 161380, Note_on_c, 0, 72, 67
1, 161396, Note_off_c, 0, 48, 68
1, 161411, Note_off_c, 0, 37, 63
1, 161420, Note_off_c, 0, 63, 61
1, 161438, Note_off_c, 0, 72, 59
1, 161451, Note_off_c, 0, 75, 54
1, 161581, Note_on_c, 0, 50, 86
1, 161581, Note_on_c, 0, 60, 90
1, 161584, Note_on_c, 0, 65, 95
1, 161584, Note_on_c, 0, 77, 96
1, 161588, Note_on_c, 0, 72, 83
1, 161605, Note_off_c, 0, 50, 67
1, 161606, Note_off_c, 0, 60, 65
1, 161619, Note_off_c, 0, 65, 65
1, 161623, Note_off_c, 0, 72, 60
1, 161647, Note_off_c, 0, 77, 61
1, 161743, Poly_aftertouch_c, 0, 50, 0
1, 161838, Control_c, 0, 64, 104
1, 161845, Note_on_c, 0, 63, 95
1, 161850, Note_on_c, 0, 56, 82
1, 161851, Note_on_c, 0, 59, 72
1, 161853, Note_on_c, 0, 66, 91
1, 161853, Control_c, 0, 64, 77
1, 161854, Note_on_c, 0, 78, 93
1, 161859, Note_on_c, 0, 71, 77
1, 161861, Note_on_c, 0, 75, 82
1, 161868, Control_c, 0, 64, 0
1, 161912, Control_c, 0, 64, 71
1, 161919, Note_off_c, 0, 63, 60
1, 161927, Control_c, 0, 64, 93
1, 161938, Note_off_c, 0, 59, 52
1, 161942, Control_c, 0, 64, 127
1, 161969, Note_off_c, 0, 66, 61
1, 161987, Note_off_c, 0, 56, 61
1, 161989, Note_off_c, 0, 71, 54
1, 162009, Note_off_c, 0, 75, 57
1, 162018, Note_off_c, 0, 78, 60
1, 162171, Note_on_c, 0, 79, 82
1, 162175, Note_on_c, 0, 67, 90
1, 162177, Note_on_c, 0, 71, 76
1, 162177, Note_on_c, 0, 75, 75
1, 162209, Note_off_c, 0, 67, 63
1, 162244, Note_off_c, 0, 71, 61
1, 162246, Note_off_c, 0, 79, 59
1, 162267, Note_off_c, 0, 75, 60
1, 162279, Note_on_c, 0, 39, 95
1, 162280, Note_on_c, 0, 27, 91
1, 162311, Note_off_c, 0, 39, 65
1, 162313, Note_off_c, 0, 27, 63
1, 162372, Note_on_c, 0, 68, 85
1, 162374, Note_on_c, 0, 71, 79
1, 162374, Note_on_c, 0, 80, 85
1, 162379, Note_on_c, 0, 75, 81
1, 162392, Note_off_c, 0, 68, 69
1, 162425, Note_off_c, 0, 71, 59
1, 162430, Note_off_c, 0, 75, 59
1, 162434, Note_off_c, 0, 80, 62
1, 162466, Note_on_c, 0, 68, 18
1, 162479, Note_on_c, 0, 48, 75
1, 162491, Note_on_c, 0, 69, 90
1, 162491, Note_on_c, 0, 75, 79
1, 162494, Note_on_c, 0, 81, 86
1, 162505, Note_off_c, 0, 48, 63
1, 162507, Note_off_c, 0, 68, 39
1, 162517, Note_off_c, 0, 75, 62
1, 162526, Note_off_c, 0, 69, 59
1, 162533, Note_off_c, 0, 81, 59
1, 162610, Poly_aftertouch_c, 0, 78, 0
1, 162628, Note_on_c, 0, 70, 94
1, 162629, Note_on_c, 0, 80, 87
1, 162631, Note_on_c, 0, 82, 79
1, 162632, Control_c, 0, 64, 114
1, 162637, Note_on_c, 0, 56, 85
1, 162642, Note_on_c, 0, 75, 65
1, 162647, Note_on_c, 0, 76, 62
1, 162647, Control_c, 0, 64, 84
1, 162661, Control_c, 0, 64, 64
1, 162663, Note_on_c, 0, 83, 55
1, 162669, Note_on_c, 0, 84, 54
1, 162676, Control_c, 0, 64, 0
1, 162690, Note_off_c, 0, 84, 60
1, 162692, Note_off_c, 0, 83, 51
1, 162700, Note_off_c, 0, 76, 55
1, 162705, Control_c, 0, 64, 77
1, 162720, Control_c, 0, 64, 102
1, 162735, Control_c, 0, 64, 127
1, 162760, Note_off_c, 0, 70, 60
1, 162777, Note_off_c, 0, 82, 53
1, 162794, Note_off_c, 0, 56, 61
1, 162794, Note_off_c, 0, 80, 58
1, 162797, Note_off_c, 0, 75, 33
1, 162886, Note_on_c, 0, 83, 94
1, 162888, Note_on_c, 0, 71, 94
1, 162892, Note_on_c, 0, 75, 85
1, 162893, Note_on_c, 0, 63, 95
1, 162897, Note_on_c, 0, 80, 85
1, 162925, Note_off_c, 0, 75, 59
1, 162926, Note_off_c, 0, 71, 61
1, 162938, Note_off_c, 0, 63, 63
1, 162947, Note_off_c, 0, 80, 63
1, 162947, Note_off_c, 0, 83, 61
1, 163106, Note_on_c, 0, 80, 85
1, 163108, Note_on_c, 0, 73, 93
1, 163113, Note_on_c, 0, 64, 92
1, 163114, Note_on_c, 0, 85, 88
1, 163116, Note_on_c, 0, 83, 75
1, 163117, Note_on_c, 0, 56, 79
1, 163121, Note_on_c, 0, 59, 82
1, 163141, Note_on_c, 0, 61, 51
1, 163148, Note_on_c, 0, 82, 33
1, 163149, Note_off_c, 0, 82, 127
1, 163155, Note_off_c, 0, 64, 61
1, 163166, Note_off_c, 0, 61, 57
1, 163176, Note_off_c, 0, 73, 59
1, 163179, Note_off_c, 0, 56, 62
1, 163185, Note_off_c, 0, 59, 60
1, 163215, Note_off_c, 0, 85, 57
1, 163220, Note_off_c, 0, 83, 56
1, 163233, Note_off_c, 0, 80, 55
1, 163370, Note_on_c, 0, 83, 88
1, 163370, Note_on_c, 0, 80, 93
1, 163371, Note_on_c, 0, 73, 97
1, 163372, Note_on_c, 0, 64, 92
1, 163373, Note_on_c, 0, 85, 92
1, 163378, Note_on_c, 0, 56, 86
1, 163389, Note_on_c, 0, 59, 76
1, 163400, Note_on_c, 0, 86, 58
1, 163419, Note_off_c, 0, 86, 64
1, 163441, Note_off_c, 0, 73, 61
1, 163444, Note_off_c, 0, 64, 56
1, 163456, Note_off_c, 0, 56, 61
1, 163480, Note_off_c, 0, 85, 62
1, 163481, Note_off_c, 0, 59, 51
1, 163496, Note_off_c, 0, 83, 53
1, 163503, Note_off_c, 0, 80, 61
1, 163650, Note_on_c, 0, 65, 85
1, 163659, Note_on_c, 0, 59, 77
1, 163661, Note_on_c, 0, 83, 91
1, 163661, Note_on_c, 0, 86, 94
1, 163662, Note_on_c, 0, 56, 76
1, 163662, Note_on_c, 0, 74, 95
1, 163662, Note_on_c, 0, 80, 97
1, 163689, Note_off_c, 0, 65, 66
1, 163716, Note_off_c, 0, 59, 63
1, 163734, Note_off_c, 0, 74, 60
1, 163734, Note_off_c, 0, 56, 64
1, 163747, Note_off_c, 0, 86, 61
1, 163763, Note_off_c, 0, 83, 61
1, 163779, Note_off_c, 0, 80, 60
1, 163793, Poly_aftertouch_c, 0, 58, 0
1, 163965, Note_on_c, 0, 87, 98
1, 163967, Note_on_c, 0, 80, 95
1, 163968, Note_on_c, 0, 39, 79
1, 163968, Note_on_c, 0, 75, 98
1, 163969, Note_on_c, 0, 47, 91
1, 163972, Note_on_c, 0, 83, 88
1, 164005, Note_off_c, 0, 39, 65
1, 164017, Note_on_c, 0, 82, 16
1, 164018, Note_off_c, 0, 82, 127
1, 164020, Note_off_c, 0, 47, 61
1, 164064, Note_off_c, 0, 75, 60
1, 164119, Note_off_c, 0, 87, 55
1, 164139, Note_off_c, 0, 83, 48
1, 164166, Note_off_c, 0, 80, 61
1, 164315, Note_on_c, 0, 56, 72
1, 164322, Note_on_c, 0, 66, 89
1, 164324, Note_on_c, 0, 87, 100
1, 164326, Note_on_c, 0, 75, 104
1, 164328, Note_on_c, 0, 80, 97
1, 164328, Note_on_c, 0, 83, 90
1, 164329, Note_on_c, 0, 59, 75
1, 164334, Note_on_c, 0, 63, 80
1, 164362, Note_on_c, 0, 82, 30
1, 164400, Note_off_c, 0, 75, 62
1, 164434, Note_off_c, 0, 66, 57
1, 164443, Note_off_c, 0, 56, 58
1, 164446, Poly_aftertouch_c, 0, 85, 0
1, 164447, Note_off_c, 0, 63, 59
1, 164449, Note_off_c, 0, 87, 57
1, 164466, Note_off_c, 0, 59, 55
1, 164482, Note_off_c, 0, 82, 22
1, 164502, Note_off_c, 0, 83, 47
1, 164518, Note_off_c, 0, 80, 55
1, 164622, Note_on_c, 0, 56, 77
1, 164650, Note_on_c, 0, 59, 61
1, 164654, Note_on_c, 0, 64, 62
1, 164687, Note_on_c, 0, 63, 31
1, 164705, Note_on_c, 0, 67, 84
1, 164720, Note_off_c, 0, 63, 52
1, 164746, Note_on_c, 0, 88, 103
1, 164747, Note_on_c, 0, 80, 96
1, 164747, Note_on_c, 0, 76, 102
1, 164751, Note_on_c, 0, 83, 88
1, 164775, Note_on_c, 0, 82, 62
1, 164776, Note_off_c, 0, 82, 127
1, 164797, Note_on_c, 0, 85, 38
1, 164826, Note_off_c, 0, 85, 55
1, 164851, Note_off_c, 0, 67, 60
1, 164855, Note_off_c, 0, 59, 60
1, 164858, Note_off_c, 0, 56, 59
1, 164874, Note_off_c, 0, 64, 62
1, 164926, Note_off_c, 0, 76, 51
1, 164939, Note_on_c, 0, 85, 11
1, 164977, Note_off_c, 0, 88, 58
1, 164992, Note_off_c, 0, 80, 57
1, 164992, Note_off_c, 0, 83, 56
1, 164993, Note_off_c, 0, 85, 46
1, 165274, Note_on_c, 0, 89, 96
1, 165275, Note_on_c, 0, 80, 104
1, 165277, Note_on_c, 0, 56, 84
1, 165277, Note_on_c, 0, 68, 94
1, 165277, Note_on_c, 0, 77, 98
1, 165278, Note_on_c, 0, 83, 88
1, 165278, Note_on_c, 0, 65, 87
1, 165287, Note_on_c, 0, 59, 75
1, 165318, Note_off_c, 0, 68, 62
1, 165330, Note_off_c, 0, 65, 63
1, 165346, Note_off_c, 0, 59, 59
1, 165351, Note_off_c, 0, 56, 62
1, 165500, Note_off_c, 0, 77, 50
1, 165522, Note_off_c, 0, 89, 62
1, 165555, Note_off_c, 0, 83, 61
1, 165564, Note_off_c, 0, 80, 60
1, 166083, Note_on_c, 0, 92, 101
1, 166085, Note_on_c, 0, 80, 97
1, 166085, Note_on_c, 0, 82, 95
1, 166087, Note_on_c, 0, 87, 93
1, 166088, Note_on_c, 0, 39, 102
1, 166091, Note_on_c, 0, 27, 96
1, 166121, Note_on_c, 0, 26, 59
1, 166132, Control_c, 0, 64, 101
1, 166141, Note_on_c, 0, 34, 10
1, 166146, Control_c, 0, 64, 75
1, 166154, Note_off_c, 0, 26, 48
1, 166161, Control_c, 0, 64, 0
1, 166172, Note_off_c, 0, 34, 0
1, 166199, Poly_aftertouch_c, 0, 34, 0
1, 166235, Control_c, 0, 64, 72
1, 166250, Control_c, 0, 64, 82
1, 166265, Control_c, 0, 64, 96
1, 166279, Control_c, 0, 64, 111
1, 166302, Control_c, 0, 64, 122
1, 166317, Control_c, 0, 64, 127
1, 166338, Note_off_c, 0, 27, 62
1, 166422, Note_off_c, 0, 39, 62
1, 166613, Note_off_c, 0, 92, 50
1, 166634, Note_off_c, 0, 87, 53
1, 166643, Note_off_c, 0, 82, 51
1, 166660, Note_off_c, 0, 80, 55
1, 166790, Note_on_c, 0, 58, 61
1, 166798, Note_on_c, 0, 46, 46
1, 166804, Note_on_c, 0, 54, 49
1, 166822, Note_on_c, 0, 51, 56
1, 166841, Note_off_c, 0, 46, 62
1, 166864, Note_off_c, 0, 51, 55
1, 166870, Note_off_c, 0, 58, 58
1, 166892, Note_off_c, 0, 54, 60
1, 166953, Note_on_c, 0, 78, 90
1, 166953, Note_on_c, 0, 90, 90
1, 166955, Note_on_c, 0, 82, 92
1, 166956, Note_on_c, 0, 87, 88
1, 166998, Note_off_c, 0, 78, 59
1, 167010, Note_off_c, 0, 90, 64
1, 167019, Note_off_c, 0, 82, 59
1, 167034, Note_off_c, 0, 87, 64
1, 167154, Note_on_c, 0, 70, 77
1, 167162, Note_on_c, 0, 58, 68
1, 167235, Note_off_c, 0, 70, 58
1, 167317, Note_off_c, 0, 58, 60
1, 167418, Note_on_c, 0, 87, 93
1, 167419, Note_on_c, 0, 54, 69
1, 167419, Note_on_c, 0, 75, 96
1, 167419, Note_on_c, 0, 78, 95
1, 167423, Note_on_c, 0, 82, 83
1, 167424, Note_on_c, 0, 66, 69
1, 167498, Note_off_c, 0, 66, 55
1, 167519, Note_off_c, 0, 87, 65
1, 167580, Note_off_c, 0, 82, 58
1, 167589, Note_off_c, 0, 75, 49
1, 167594, Note_off_c, 0, 78, 56
1, 167605, Note_off_c, 0, 54, 32
1, 167649, Note_on_c, 0, 63, 93
1, 167658, Note_on_c, 0, 51, 83
1, 167703, Note_off_c, 0, 63, 61
1, 167743, Note_on_c, 0, 70, 95
1, 167745, Note_on_c, 0, 82, 95
1, 167747, Note_off_c, 0, 51, 59
1, 167749, Note_on_c, 0, 75, 82
1, 167750, Note_on_c, 0, 78, 84
1, 167854, Note_off_c, 0, 70, 63
1, 167876, Note_on_c, 0, 58, 101
1, 167883, Note_on_c, 0, 46, 91
1, 167916, Note_off_c, 0, 82, 60
1, 167928, Note_off_c, 0, 75, 53
1, 167943, Note_off_c, 0, 78, 50
1, 167944, Note_off_c, 0, 58, 60
1, 168026, Note_off_c, 0, 46, 60
1, 168163, Note_on_c, 0, 39, 92
1, 168163, Note_on_c, 0, 27, 95
1, 168196, Note_on_c, 0, 26, 57
1, 168234, Note_off_c, 0, 26, 49
1, 168243, Poly_aftertouch_c, 0, 30, 127
1, 168243, Control_c, 0, 64, 119
1, 168244, Note_on_c, 0, 84, 87
1, 168249, Note_on_c, 0, 72, 104
1, 168251, Poly_aftertouch_c, 0, 34, 127
1, 168252, Note_on_c, 0, 78, 67
1, 168253, Note_on_c, 0, 75, 91
1, 168256, Note_on_c, 0, 81, 82
1, 168258, Control_c, 0, 64, 87
1, 168273, Control_c, 0, 64, 68
1, 168288, Control_c, 0, 64, 0
1, 168321, Note_off_c, 0, 27, 63
1, 168332, Control_c, 0, 64, 73
1, 168347, Control_c, 0, 64, 89
1, 168348, Poly_aftertouch_c, 0, 34, 0
1, 168355, Note_off_c, 0, 39, 63
1, 168361, Control_c, 0, 64, 120
1, 168376, Control_c, 0, 64, 127
1, 168378, Poly_aftertouch_c, 0, 30, 0
1, 168468, Note_off_c, 0, 72, 57
1, 168488, Note_off_c, 0, 75, 61
1, 168503, Note_off_c, 0, 78, 60
1, 168510, Note_off_c, 0, 81, 55
1, 168638, Note_on_c, 0, 60, 64
1, 168639, Note_on_c, 0, 72, 73
1, 168640, Note_on_c, 0, 54, 54
1, 168640, Note_on_c, 0, 48, 53
1, 168644, Note_on_c, 0, 81, 62
1, 168645, Note_on_c, 0, 57, 44
1, 168646, Note_on_c, 0, 75, 63
1, 168646, Note_on_c, 0, 78, 61
1, 168673, Note_off_c, 0, 72, 59
1, 168679, Note_off_c, 0, 48, 61
1, 168694, Note_off_c, 0, 75, 52
1, 168699, Note_off_c, 0, 60, 58
1, 168699, Note_off_c, 0, 57, 60
1, 168711, Note_off_c, 0, 54, 58
1, 168712, Note_off_c, 0, 78, 55
1, 168759, Note_off_c, 0, 81, 55
1, 168853, Note_off_c, 0, 84, 45
1, 168879, Note_on_c, 0, 81, 66
1, 168881, Note_on_c, 0, 72, 70
1, 168882, Note_on_c, 0, 75, 72
1, 168882, Note_on_c, 0, 78, 75
1, 168893, Note_on_c, 0, 71, 63
1, 168897, Note_on_c, 0, 57, 49
1, 168899, Note_on_c, 0, 69, 53
1, 168911, Note_off_c, 0, 71, 66
1, 168921, Note_off_c, 0, 69, 62
1, 168923, Note_off_c, 0, 72, 56
1, 168932, Note_off_c, 0, 57, 52
1, 168958, Note_off_c, 0, 75, 59
1, 168959, Note_off_c, 0, 78, 60
1, 168970, Note_off_c, 0, 81, 57
1, 169004, Poly_aftertouch_c, 0, 59, 0
1, 169057, Note_on_c, 0, 72, 78
1, 169060, Note_on_c, 0, 65, 83
1, 169064, Note_on_c, 0, 75, 82
1, 169065, Note_on_c, 0, 53, 79
1, 169065, Note_on_c, 0, 78, 77
1, 169072, Note_on_c, 0, 81, 75
1, 169090, Note_on_c, 0, 80, 45
1, 169090, Note_off_c, 0, 65, 65
1, 169091, Note_off_c, 0, 53, 64
1, 169115, Note_off_c, 0, 80, 35
1, 169120, Note_off_c, 0, 72, 59
1, 169137, Note_off_c, 0, 75, 59
1, 169138, Note_off_c, 0, 78, 58
1, 169141, Note_off_c, 0, 81, 57
1, 169224, Note_on_c, 0, 63, 91
1, 169229, Note_on_c, 0, 51, 87
1, 169229, Note_on_c, 0, 72, 86
1, 169234, Note_on_c, 0, 81, 83
1, 169236, Note_on_c, 0, 75, 84
1, 169237, Note_on_c, 0, 78, 79
1, 169267, Note_off_c, 0, 63, 64
1, 169267, Note_off_c, 0, 51, 60
1, 169295, Note_off_c, 0, 72, 59
1, 169323, Note_off_c, 0, 75, 59
1, 169325, Note_off_c, 0, 78, 59
1, 169330, Note_off_c, 0, 81, 57
1, 169392, Note_on_c, 0, 60, 98
1, 169399, Note_on_c, 0, 48, 91
1, 169401, Note_on_c, 0, 72, 87
1, 169405, Note_on_c, 0, 81, 82
1, 169406, Note_on_c, 0, 75, 84
1, 169409, Note_on_c, 0, 78, 81
1, 169421, Note_off_c, 0, 48, 67
1, 169426, Note_off_c, 0, 60, 64
1, 169444, Note_off_c, 0, 72, 61
1, 169458, Note_off_c, 0, 78, 61
1, 169458, Note_off_c, 0, 81, 62
1, 169460, Note_off_c, 0, 75, 62
1, 169638, Control_c, 0, 64, 101
1, 169646, Note_on_c, 0, 73, 96
1, 169646, Note_on_c, 0, 80, 86
1, 169647, Note_on_c, 0, 85, 98
1, 169648, Note_on_c, 0, 77, 98
1, 169653, Control_c, 0, 64, 74
1, 169668, Control_c, 0, 64, 0
1, 169712, Control_c, 0, 64, 77
1, 169727, Control_c, 0, 64, 99
1, 169742, Control_c, 0, 64, 127
1, 169749, Poly_aftertouch_c, 0, 82, 127
1, 169785, Note_on_c, 0, 47, 82
1, 169803, Note_off_c, 0, 73, 60
1, 169819, Note_on_c, 0, 53, 70
1, 169819, Note_off_c, 0, 77, 53
1, 169832, Note_on_c, 0, 56, 71
1, 169848, Note_off_c, 0, 85, 61
1, 169854, Note_off_c, 0, 80, 55
1, 169882, Note_on_c, 0, 59, 92
1, 169889, Poly_aftertouch_c, 0, 82, 0
1, 169896, Note_off_c, 0, 47, 58
1, 169947, Note_on_c, 0, 74, 103
1, 169947, Note_off_c, 0, 59, 62
1, 169948, Note_on_c, 0, 80, 90
1, 169948, Note_on_c, 0, 86, 101
1, 169948, Note_off_c, 0, 53, 56
1, 169949, Note_on_c, 0, 77, 95
1, 169963, Note_off_c, 0, 56, 64
1, 170023, Note_off_c, 0, 74, 58
1, 170048, Note_off_c, 0, 77, 60
1, 170079, Note_off_c, 0, 80, 63
1, 170092, Note_off_c, 0, 86, 64
1, 170228, Note_on_c, 0, 89, 103
1, 170232, Note_on_c, 0, 68, 81
1, 170234, Note_on_c, 0, 77, 95
1, 170235, Note_on_c, 0, 83, 86
1, 170238, Note_on_c, 0, 56, 74
1, 170238, Note_on_c, 0, 80, 82
1, 170256, Note_off_c, 0, 68, 67
1, 170265, Note_off_c, 0, 56, 66
1, 170309, Note_off_c, 0, 77, 53
1, 170313, Note_off_c, 0, 80, 63
1, 170318, Note_off_c, 0, 83, 59
1, 170425, Note_on_c, 0, 63, 79
1, 170435, Note_on_c, 0, 51, 67
1, 170450, Note_on_c, 0, 83, 75
1, 170451, Note_on_c, 0, 77, 76
1, 170452, Note_on_c, 0, 80, 76
1, 170455, Note_off_c, 0, 63, 61
1, 170476, Note_off_c, 0, 51, 57
1, 170481, Note_off_c, 0, 77, 61
1, 170509, Note_off_c, 0, 83, 61
1, 170516, Note_off_c, 0, 80, 62
1, 170607, Note_on_c, 0, 62, 88
1, 170610, Note_on_c, 0, 50, 85
1, 170618, Note_on_c, 0, 80, 92
1, 170619, Note_on_c, 0, 83, 83
1, 170622, Note_on_c, 0, 77, 85
1, 170650, Note_off_c, 0, 62, 65
1, 170661, Note_off_c, 0, 50, 62
1, 170670, Note_off_c, 0, 77, 59
1, 170684, Note_off_c, 0, 83, 59
1, 170704, Note_off_c, 0, 80, 62
1, 170774, Note_off_c, 0, 89, 47
1, 170810, Note_on_c, 0, 59, 90
1, 170811, Note_on_c, 0, 80, 91
1, 170812, Note_on_c, 0, 47, 90
1, 170812, Note_on_c, 0, 83, 76
1, 170816, Note_on_c, 0, 77, 82
1, 170834, Note_off_c, 0, 47, 66
1, 170834, Note_off_c, 0, 59, 67
1, 170855, Note_off_c, 0, 77, 58
1, 170858, Note_off_c, 0, 83, 63
1, 170860, Note_off_c, 0, 80, 64
1, 170922, Poly_aftertouch_c, 0, 48, 0
1, 170974, Poly_aftertouch_c, 0, 47, 0
1, 171108, Note_on_c, 0, 70, 96
1, 171111, Note_on_c, 0, 82, 94
1, 171111, Note_on_c, 0, 79, 78
1, 171113, Note_on_c, 0, 75, 91
1, 171115, Note_on_c, 0, 27, 94
1, 171115, Note_on_c, 0, 39, 102
1, 171121, Control_c, 0, 64, 106
1, 171135, Control_c, 0, 64, 82
1, 171150, Control_c, 0, 64, 64
1, 171159, Note_on_c, 0, 80, 29
1, 171165, Control_c, 0, 64, 0
1, 171171, Note_off_c, 0, 80, 47
1, 171210, Control_c, 0, 64, 73
1, 171216, Note_off_c, 0, 27, 63
1, 171225, Control_c, 0, 64, 84
1, 171239, Control_c, 0, 64, 97
1, 171247, Note_off_c, 0, 39, 62
1, 171254, Control_c, 0, 64, 108
1, 171269, Control_c, 0, 64, 113
1, 171284, Control_c, 0, 64, 116
1, 171299, Control_c, 0, 64, 121
1, 171314, Control_c, 0, 64, 127
1, 171356, Note_off_c, 0, 79, 57
1, 171376, Note_off_c, 0, 75, 59
1, 171380, Note_off_c, 0, 70, 58
1, 171477, Note_on_c, 0, 58, 61
1, 171484, Note_on_c, 0, 79, 63
1, 171490, Note_on_c, 0, 70, 59
1, 171503, Note_on_c, 0, 46, 40
1, 171505, Note_on_c, 0, 75, 52
1, 171506, Note_on_c, 0, 55, 26
1, 171536, Note_off_c, 0, 70, 56
1, 171544, Note_off_c, 0, 58, 60
1, 171547, Note_on_c, 0, 51, 9
1, 171547, Note_off_c, 0, 46, 52
1, 171555, Note_off_c, 0, 55, 52
1, 171568, Note_off_c, 0, 75, 54
1, 171594, Note_off_c, 0, 51, 51
1, 171597, Note_off_c, 0, 79, 52
1, 171725, Note_on_c, 0, 67, 79
1, 171734, Note_on_c, 0, 55, 71
1, 171740, Note_on_c, 0, 70, 73
1, 171742, Note_on_c, 0, 75, 69
1, 171743, Note_on_c, 0, 79, 68
1, 171757, Note_off_c, 0, 67, 63
1, 171773, Note_off_c, 0, 55, 61
1, 171783, Note_off_c, 0, 70, 59
1, 171818, Note_off_c, 0, 75, 60
1, 171833, Note_off_c, 0, 79, 60
1, 171910, Note_on_c, 0, 62, 85
1, 171912, Note_on_c, 0, 50, 86
1, 171918, Note_on_c, 0, 70, 74
1, 171921, Note_on_c, 0, 79, 72
1, 171928, Note_on_c, 0, 75, 69
1, 171945, Note_off_c, 0, 50, 66
1, 171951, Note_off_c, 0, 62, 63
1, 171981, Note_off_c, 0, 70, 61
1, 172000, Note_off_c, 0, 75, 58
1, 172015, Note_off_c, 0, 79, 59
1, 172060, Note_on_c, 0, 61, 95
1, 172063, Note_on_c, 0, 49, 94
1, 172073, Note_on_c, 0, 70, 86
1, 172088, Note_on_c, 0, 75, 63
1, 172098, Note_on_c, 0, 79, 44
1, 172111, Note_off_c, 0, 61, 62
1, 172117, Note_off_c, 0, 49, 60
1, 172144, Note_off_c, 0, 70, 58
1, 172167, Note_off_c, 0, 79, 45
1, 172183, Note_off_c, 0, 75, 56
1, 172208, Note_on_c, 0, 58, 96
1, 172212, Note_on_c, 0, 46, 93
1, 172223, Note_on_c, 0, 70, 93
1, 172255, Note_off_c, 0, 58, 63
1, 172259, Note_on_c, 0, 75, 28
1, 172266, Note_off_c, 0, 46, 60
1, 172278, Note_off_c, 0, 70, 62
1, 172288, Note_off_c, 0, 82, 57
1, 172301, Note_off_c, 0, 75, 48
1, 172395, Control_c, 0, 64, 93
1, 172403, Note_on_c, 0, 71, 105
1, 172405, Note_on_c, 0, 75, 84
1, 172407, Note_on_c, 0, 81, 90
1, 172410, Note_on_c, 0, 83, 89
1, 172411, Note_on_c, 0, 78, 87
1, 172411, Control_c, 0, 64, 71
1, 172426, Control_c, 0, 64, 0
1, 172455, Control_c, 0, 64, 64
1, 172470, Control_c, 0, 64, 83
1, 172485, Control_c, 0, 64, 109
1, 172500, Control_c, 0, 64, 127
1, 172529, Note_off_c, 0, 71, 56
1, 172538, Note_on_c, 0, 45, 83
1, 172557, Note_on_c, 0, 51, 58
1, 172559, Note_off_c, 0, 83, 58
1, 172562, Note_off_c, 0, 75, 61
1, 172570, Note_off_c, 0, 78, 59
1, 172575, Note_on_c, 0, 54, 75
1, 172577, Note_off_c, 0, 81, 59
1, 172603, Control_c, 0, 64, 118
1, 172612, Note_on_c, 0, 57, 95
1, 172615, Note_off_c, 0, 45, 63
1, 172618, Control_c, 0, 64, 89
1, 172632, Control_c, 0, 64, 74
1, 172645, Note_on_c, 0, 72, 95
1, 172646, Note_off_c, 0, 51, 62
1, 172647, Control_c, 0, 64, 71
1, 172648, Note_on_c, 0, 75, 96
1, 172649, Note_on_c, 0, 81, 89
1, 172649, Note_on_c, 0, 84, 90
1, 172650, Note_on_c, 0, 78, 87
1, 172655, Note_off_c, 0, 54, 62
1, 172655, Note_off_c, 0, 57, 64
1, 172662, Control_c, 0, 64, 82
1, 172677, Control_c, 0, 64, 106
1, 172692, Note_off_c, 0, 72, 61
1, 172692, Control_c, 0, 64, 127
1, 172719, Note_off_c, 0, 81, 63
1, 172724, Note_off_c, 0, 75, 63
1, 172727, Note_off_c, 0, 78, 61
1, 172733, Note_off_c, 0, 84, 62
1, 172835, Note_on_c, 0, 75, 96
1, 172838, Note_on_c, 0, 78, 83
1, 172838, Note_on_c, 0, 87, 95
1, 172840, Note_on_c, 0, 81, 72
1, 172849, Note_on_c, 0, 66, 93
1, 172857, Note_on_c, 0, 54, 78
1, 172885, Note_off_c, 0, 66, 63
1, 172888, Note_off_c, 0, 54, 63
1, 172918, Note_off_c, 0, 75, 59
1, 172927, Poly_aftertouch_c, 0, 85, 127
1, 172956, Poly_aftertouch_c, 0, 85, 0
1, 172963, Note_off_c, 0, 81, 52
1, 172985, Note_off_c, 0, 78, 52
1, 173018, Note_on_c, 0, 61, 89
1, 173026, Note_on_c, 0, 49, 78
1, 173049, Note_on_c, 0, 75, 79
1, 173050, Note_on_c, 0, 78, 66
1, 173058, Note_off_c, 0, 61, 61
1, 173064, Note_on_c, 0, 81, 57
1, 173067, Note_off_c, 0, 49, 64
1, 173076, Note_off_c, 0, 87, 61
1, 173102, Note_off_c, 0, 75, 61
1, 173138, Note_off_c, 0, 78, 57
1, 173148, Note_off_c, 0, 81, 52
1, 173219, Note_on_c, 0, 60, 96
1, 173226, Note_on_c, 0, 48, 84
1, 173239, Note_on_c, 0, 75, 76
1, 173242, Note_on_c, 0, 78, 78
1, 173244, Note_on_c, 0, 81, 79
1, 173258, Note_off_c, 0, 48, 65
1, 173259, Note_off_c, 0, 60, 63
1, 173284, Note_off_c, 0, 75, 55
1, 173314, Note_off_c, 0, 78, 57
1, 173329, Note_off_c, 0, 81, 58
1, 173434, Note_on_c, 0, 57, 91
1, 173438, Note_on_c, 0, 45, 90
1, 173451, Note_on_c, 0, 75, 87
1, 173451, Note_on_c, 0, 81, 74
1, 173454, Note_on_c, 0, 78, 74
1, 173467, Note_off_c, 0, 57, 64
1, 173480, Note_off_c, 0, 45, 61
1, 173489, Note_off_c, 0, 81, 61
1, 173493, Note_off_c, 0, 78, 58
1, 173499, Note_off_c, 0, 75, 60
1, 173785, Note_on_c, 0, 39, 101
1, 173787, Note_on_c, 0, 68, 88
1, 173788, Note_on_c, 0, 27, 95
1, 173788, Note_on_c, 0, 77, 78
1, 173788, Note_on_c, 0, 80, 90
1, 173789, Note_on_c, 0, 73, 82
1, 173804, Control_c, 0, 64, 102
1, 173818, Note_on_c, 0, 34, 35
1, 173819, Control_c, 0, 64, 82
1, 173834, Control_c, 0, 64, 64
1, 173849, Control_c, 0, 64, 0
1, 173853, Note_off_c, 0, 34, 39
1, 173862, Note_off_c, 0, 27, 63
1, 173878, Control_c, 0, 64, 64
1, 173893, Control_c, 0, 64, 75
1, 173907, Control_c, 0, 64, 87
1, 173913, Note_off_c, 0, 39, 62
1, 173922, Control_c, 0, 64, 104
1, 173937, Control_c, 0, 64, 112
1, 173952, Control_c, 0, 64, 117
1, 173967, Control_c, 0, 64, 127
1, 174030, Note_off_c, 0, 77, 58
1, 174055, Note_off_c, 0, 73, 54
1, 174067, Note_off_c, 0, 68, 56
1, 174149, Note_on_c, 0, 56, 69
1, 174157, Note_on_c, 0, 53, 41
1, 174159, Note_on_c, 0, 49, 67
1, 174173, Note_on_c, 0, 68, 65
1, 174173, Note_on_c, 0, 73, 69
1, 174173, Note_on_c, 0, 77, 66
1, 174185, Note_off_c, 0, 56, 61
1, 174196, Note_off_c, 0, 49, 59
1, 174200, Note_off_c, 0, 53, 60
1, 174207, Note_off_c, 0, 68, 64
1, 174260, Note_off_c, 0, 73, 57
1, 174268, Note_off_c, 0, 77, 52
1, 174401, Note_on_c, 0, 73, 60
1, 174402, Note_on_c, 0, 68, 68
1, 174402, Note_on_c, 0, 77, 64
1, 174408, Note_on_c, 0, 65, 79
1, 174420, Note_on_c, 0, 53, 70
1, 174436, Note_off_c, 0, 65, 64
1, 174450, Note_off_c, 0, 53, 64
1, 174453, Note_off_c, 0, 68, 58
1, 174489, Note_off_c, 0, 73, 58
1, 174502, Note_off_c, 0, 77, 59
1, 174605, Note_on_c, 0, 68, 64
1, 174609, Note_on_c, 0, 73, 66
1, 174610, Note_on_c, 0, 60, 83
1, 174616, Note_on_c, 0, 77, 68
1, 174620, Note_on_c, 0, 48, 76
1, 174651, Note_off_c, 0, 60, 60
1, 174653, Note_off_c, 0, 48, 64
1, 174670, Note_off_c, 0, 68, 60
1, 174691, Note_off_c, 0, 73, 58
1, 174703, Note_off_c, 0, 77, 55
1, 174769, Note_on_c, 0, 59, 85
1, 174772, Note_on_c, 0, 68, 73
1, 174773, Note_on_c, 0, 47, 84
1, 174780, Note_on_c, 0, 77, 60
1, 174789, Note_on_c, 0, 73, 63
1, 174806, Note_off_c, 0, 59, 61
1, 174811, Note_off_c, 0, 47, 61
1, 174837, Note_off_c, 0, 68, 61
1, 174880, Note_off_c, 0, 73, 58
1, 174888, Note_off_c, 0, 77, 55
1, 174921, Note_on_c, 0, 56, 96
1, 174925, Note_on_c, 0, 44, 87
1, 174930, Note_on_c, 0, 68, 84
1, 174951, Note_off_c, 0, 56, 62
1, 174955, Note_off_c, 0, 44, 66
1, 174963, Note_on_c, 0, 73, 26
1, 174991, Note_off_c, 0, 68, 61
1, 174998, Note_off_c, 0, 80, 56
1, 175002, Note_off_c, 0, 73, 49
1, 175102, Control_c, 0, 64, 113
1, 175114, Note_on_c, 0, 69, 95
1, 175115, Note_on_c, 0, 73, 83
1, 175117, Control_c, 0, 64, 85
1, 175118, Note_on_c, 0, 81, 96
1, 175123, Note_on_c, 0, 76, 81
1, 175124, Note_on_c, 0, 79, 79
1, 175132, Control_c, 0, 64, 65
1, 175147, Control_c, 0, 64, 0
1, 175176, Control_c, 0, 64, 72
1, 175191, Control_c, 0, 64, 90
1, 175206, Note_off_c, 0, 69, 59
1, 175206, Control_c, 0, 64, 127
1, 175238, Note_off_c, 0, 81, 60
1, 175245, Note_off_c, 0, 73, 60
1, 175267, Note_off_c, 0, 76, 50
1, 175267, Note_off_c, 0, 79, 60
1, 175309, Note_on_c, 0, 43, 77
1, 175328, Note_on_c, 0, 49, 74
1, 175338, Note_on_c, 0, 52, 66
1, 175361, Control_c, 0, 64, 93
1, 175368, Note_on_c, 0, 73, 82
1, 175371, Note_on_c, 0, 70, 97
1, 175371, Note_on_c, 0, 82, 84
1, 175374, Note_on_c, 0, 55, 88
1, 175374, Note_on_c, 0, 79, 74
1, 175374, Note_off_c, 0, 43, 61
1, 175376, Control_c, 0, 64, 70
1, 175386, Note_on_c, 0, 76, 71
1, 175391, Control_c, 0, 64, 0
1, 175406, Control_c, 0, 64, 65
1, 175421, Control_c, 0, 64, 77
1, 175427, Note_off_c, 0, 49, 63
1, 175427, Note_off_c, 0, 52, 61
1, 175428, Note_off_c, 0, 55, 63
1, 175429, Note_off_c, 0, 70, 63
1, 175435, Control_c, 0, 64, 99
1, 175444, Note_off_c, 0, 76, 61
1, 175450, Control_c, 0, 64, 127
1, 175451, Note_off_c, 0, 73, 62
1, 175459, Note_off_c, 0, 79, 61
1, 175476, Note_off_c, 0, 82, 61
1, 175554, Control_c, 0, 64, 114
1, 175559, Note_on_c, 0, 73, 95
1, 175562, Note_on_c, 0, 85, 95
1, 175568, Control_c, 0, 64, 83
1, 175569, Note_on_c, 0, 79, 72
1, 175570, Note_on_c, 0, 76, 77
1, 175577, Note_on_c, 0, 64, 77
1, 175583, Note_on_c, 0, 52, 74
1, 175583, Control_c, 0, 64, 71
1, 175598, Control_c, 0, 64, 73
1, 175600, Note_off_c, 0, 64, 69
1, 175614, Control_c, 0, 64, 84
1, 175615, Note_off_c, 0, 52, 64
1, 175629, Control_c, 0, 64, 108
1, 175639, Note_off_c, 0, 73, 61
1, 175644, Control_c, 0, 64, 127
1, 175646, Note_off_c, 0, 76, 57
1, 175654, Poly_aftertouch_c, 0, 82, 127
1, 175669, Note_off_c, 0, 79, 58
1, 175689, Poly_aftertouch_c, 0, 82, 0
1, 175696, Poly_aftertouch_c, 0, 62, 0
1, 175708, Note_off_c, 0, 85, 61
1, 175755, Note_on_c, 0, 59, 82
1, 175757, Note_on_c, 0, 73, 78
1, 175758, Note_on_c, 0, 47, 79
1, 175758, Note_on_c, 0, 76, 75
1, 175762, Note_on_c, 0, 79, 78
1, 175778, Note_off_c, 0, 59, 66
1, 175783, Note_off_c, 0, 47, 63
1, 175797, Note_on_c, 0, 82, 36
1, 175827, Note_off_c, 0, 73, 59
1, 175827, Note_off_c, 0, 82, 48
1, 175841, Note_off_c, 0, 79, 58
1, 175869, Note_off_c, 0, 76, 48
1, 175984, Control_c, 0, 64, 106
1, 175995, Note_on_c, 0, 84, 86
1, 175998, Note_on_c, 0, 72, 85
1, 175998, Note_on_c, 0, 79, 76
1, 175999, Control_c, 0, 64, 83
1, 176002, Note_on_c, 0, 76, 78
1, 176012, Note_on_c, 0, 58, 77
1, 176014, Control_c, 0, 64, 69
1, 176020, Note_on_c, 0, 46, 67
1, 176036, Control_c, 0, 64, 67
1, 176051, Control_c, 0, 64, 74
1, 176053, Note_off_c, 0, 58, 65
1, 176066, Control_c, 0, 64, 89
1, 176066, Note_off_c, 0, 46, 61
1, 176080, Note_off_c, 0, 72, 51
1, 176080, Control_c, 0, 64, 127
1, 176101, Note_off_c, 0, 84, 57
1, 176116, Note_off_c, 0, 76, 57
1, 176127, Note_off_c, 0, 79, 62
1, 176244, Control_c, 0, 64, 106
1, 176258, Control_c, 0, 64, 88
1, 176273, Control_c, 0, 64, 72
1, 176280, Note_on_c, 0, 79, 60
1, 176285, Note_on_c, 0, 71, 71
1, 176286, Note_on_c, 0, 83, 73
1, 176288, Control_c, 0, 64, 0
1, 176300, Note_on_c, 0, 76, 53
1, 176305, Note_on_c, 0, 43, 48
1, 176307, Note_on_c, 0, 55, 52
1, 176332, Control_c, 0, 64, 67
1, 176334, Note_off_c, 0, 43, 56
1, 176347, Control_c, 0, 64, 82
1, 176349, Note_off_c, 0, 83, 59
1, 176357, Note_off_c, 0, 71, 61
1, 176362, Control_c, 0, 64, 100
1, 176369, Note_off_c, 0, 55, 60
1, 176376, Control_c, 0, 64, 127
1, 176393, Note_off_c, 0, 76, 59
1, 176401, Note_off_c, 0, 79, 61
1, 176644, Control_c, 0, 64, 117
1, 176659, Control_c, 0, 64, 97
1, 176669, Note_on_c, 0, 82, 71
1, 176670, Note_on_c, 0, 63, 47
1, 176671, Note_on_c, 0, 57, 42
1, 176674, Control_c, 0, 64, 82
1, 176679, Note_on_c, 0, 70, 63
1, 176682, Note_on_c, 0, 75, 53
1, 176686, Note_on_c, 0, 78, 48
1, 176689, Control_c, 0, 64, 70
1, 176703, Control_c, 0, 64, 51
1, 176706, Note_on_c, 0, 54, 37
1, 176707, Note_off_c, 0, 63, 58
1, 176718, Control_c, 0, 64, 0
1, 176726, Note_off_c, 0, 57, 48
1, 176733, Control_c, 0, 64, 65
1, 176748, Control_c, 0, 64, 73
1, 176763, Control_c, 0, 64, 84
1, 176785, Control_c, 0, 64, 99
1, 176800, Control_c, 0, 64, 112
1, 176811, Note_off_c, 0, 82, 59
1, 176814, Control_c, 0, 64, 114
1, 176845, Note_off_c, 0, 54, 35
1, 176855, Note_off_c, 0, 70, 56
1, 176859, Control_c, 0, 64, 117
1, 176862, Note_off_c, 0, 78, 56
1, 176874, Control_c, 0, 64, 120
1, 176888, Control_c, 0, 64, 127
1, 176898, Note_off_c, 0, 75, 43
1, 176989, Note_on_c, 0, 47, 63
1, 176997, Note_on_c, 0, 78, 73
1, 177002, Note_on_c, 0, 35, 53
1, 177008, Note_on_c, 0, 66, 57
1, 177019, Note_off_c, 0, 47, 63
1, 177031, Note_off_c, 0, 66, 65
1, 177034, Note_off_c, 0, 78, 56
1, 177035, Note_off_c, 0, 35, 60
1, 177198, Note_on_c, 0, 39, 66
1, 177201, Note_on_c, 0, 27, 62
1, 177211, Note_on_c, 0, 81, 76
1, 177220, Note_on_c, 0, 69, 60
1, 177236, Note_off_c, 0, 39, 62
1, 177238, Note_off_c, 0, 27, 58
1, 177239, Note_off_c, 0, 69, 61
1, 177240, Note_off_c, 0, 81, 60
1, 177408, Control_c, 0, 64, 95
1, 177413, Note_on_c, 0, 62, 76
1, 177415, Note_on_c, 0, 53, 71
1, 177422, Note_on_c, 0, 81, 87
1, 177423, Control_c, 0, 64, 76
1, 177424, Note_on_c, 0, 69, 82
1, 177424, Note_on_c, 0, 78, 71
1, 177425, Note_on_c, 0, 74, 72
1, 177431, Note_on_c, 0, 56, 49
1, 177437, Control_c, 0, 64, 67
1, 177440, Note_off_c, 0, 62, 67
1, 177452, Control_c, 0, 64, 70
1, 177455, Note_off_c, 0, 53, 62
1, 177464, Note_off_c, 0, 56, 65
1, 177467, Control_c, 0, 64, 81
1, 177482, Control_c, 0, 64, 103
1, 177497, Control_c, 0, 64, 127
1, 177498, Note_on_c, 0, 80, 4
1, 177498, Note_off_c, 0, 69, 60
1, 177505, Note_off_c, 0, 81, 60
1, 177517, Note_off_c, 0, 74, 61
1, 177520, Note_off_c, 0, 78, 59
1, 177559, Note_off_c, 0, 80, 52
1, 177637, Note_on_c, 0, 46, 63
1, 177639, Note_on_c, 0, 34, 65
1, 177650, Note_on_c, 0, 77, 66
1, 177654, Note_on_c, 0, 65, 60
1, 177660, Note_off_c, 0, 46, 63
1, 177667, Note_on_c, 0, 79, 46
1, 177668, Note_off_c, 0, 79, 127
1, 177668, Note_off_c, 0, 34, 59
1, 177672, Note_off_c, 0, 65, 64
1, 177681, Note_off_c, 0, 77, 63
1, 177693, Poly_aftertouch_c, 0, 79, 0
1, 177773, Note_on_c, 0, 27, 81
1, 177779, Note_on_c, 0, 39, 81
1, 177787, Note_on_c, 0, 68, 82
1, 177792, Note_on_c, 0, 80, 77
1, 177803, Note_off_c, 0, 27, 62
1, 177805, Note_off_c, 0, 39, 65
1, 177816, Note_off_c, 0, 68, 58
1, 177846, Note_off_c, 0, 80, 58
1, 177892, Poly_aftertouch_c, 0, 78, 0
1, 177949, Note_on_c, 0, 68, 90
1, 177949, Note_on_c, 0, 76, 81
1, 177951, Note_on_c, 0, 80, 90
1, 177953, Note_on_c, 0, 73, 81
1, 177957, Note_on_c, 0, 61, 67
1, 177958, Note_on_c, 0, 52, 71
1, 177962, Note_on_c, 0, 55, 66
1, 177972, Note_on_c, 0, 56, 37
1, 177974, Note_off_c, 0, 61, 66
1, 177993, Note_off_c, 0, 55, 63
1, 177996, Note_off_c, 0, 52, 61
1, 178003, Note_off_c, 0, 56, 54
1, 178019, Note_off_c, 0, 76, 60
1, 178024, Note_off_c, 0, 68, 62
1, 178027, Note_off_c, 0, 73, 57
1, 178034, Note_off_c, 0, 80, 63
1, 178047, Poly_aftertouch_c, 0, 78, 127
1, 178075, Poly_aftertouch_c, 0, 78, 0
1, 178123, Note_on_c, 0, 45, 83
1, 178125, Note_on_c, 0, 76, 89
1, 178128, Note_on_c, 0, 64, 87
1, 178134, Note_on_c, 0, 33, 74
1, 178146, Note_off_c, 0, 45, 67
1, 178149, Note_off_c, 0, 64, 69
1, 178158, Note_off_c, 0, 33, 61
1, 178165, Note_off_c, 0, 76, 59
1, 178261, Poly_aftertouch_c, 0, 45, 127
1, 178289, Note_on_c, 0, 39, 87
1, 178290, Note_on_c, 0, 27, 86
1, 178294, Poly_aftertouch_c, 0, 45, 0
1, 178299, Note_on_c, 0, 79, 92
1, 178300, Note_on_c, 0, 67, 93
1, 178317, Note_off_c, 0, 27, 62
1, 178317, Note_off_c, 0, 39, 64
1, 178328, Note_off_c, 0, 67, 63
1, 178343, Note_off_c, 0, 79, 61
1, 178476, Control_c, 0, 64, 109
1, 178491, Control_c, 0, 64, 85
1, 178495, Note_on_c, 0, 51, 85
1, 178495, Note_on_c, 0, 60, 87
1, 178497, Note_on_c, 0, 54, 83
1, 178501, Note_on_c, 0, 67, 90
1, 178502, Note_on_c, 0, 79, 90
1, 178503, Note_on_c, 0, 72, 83
1, 178503, Note_on_c, 0, 75, 87
1, 178505, Control_c, 0, 64, 69
1, 178519, Note_off_c, 0, 60, 65
1, 178520, Note_off_c, 0, 54, 60
1, 178520, Control_c, 0, 64, 0
1, 178535, Control_c, 0, 64, 65
1, 178538, Note_on_c, 0, 59, 19
1, 178539, Note_off_c, 0, 59, 127
1, 178544, Note_off_c, 0, 51, 57
1, 178550, Control_c, 0, 64, 73
1, 178559, Note_off_c, 0, 79, 62
1, 178565, Control_c, 0, 64, 90
1, 178578, Note_off_c, 0, 67, 60
1, 178579, Control_c, 0, 64, 115
1, 178594, Note_off_c, 0, 72, 62
1, 178594, Control_c, 0, 64, 127
1, 178608, Note_off_c, 0, 75, 61
1, 178708, Note_on_c, 0, 63, 93
1, 178708, Note_on_c, 0, 75, 97
1, 178715, Note_on_c, 0, 44, 90
1, 178718, Note_on_c, 0, 32, 91
1, 178739, Note_off_c, 0, 44, 67
1, 178745, Note_off_c, 0, 32, 65
1, 178751, Note_off_c, 0, 63, 59
1, 178764, Note_off_c, 0, 75, 60
1, 178921, Note_on_c, 0, 66, 94
1, 178924, Note_on_c, 0, 39, 79
1, 178925, Note_on_c, 0, 78, 91
1, 178926, Note_on_c, 0, 30, 84
1, 178940, Note_on_c, 0, 41, 64
1, 178944, Note_on_c, 0, 27, 43
1, 178945, Note_off_c, 0, 27, 127
1, 178951, Note_off_c, 0, 39, 62
1, 178954, Note_on_c, 0, 40, 42
1, 178963, Note_off_c, 0, 30, 63
1, 178964, Note_off_c, 0, 41, 57
1, 178967, Note_on_c, 0, 75, 38
1, 178978, Poly_aftertouch_c, 0, 27, 0
1, 178986, Note_off_c, 0, 40, 55
1, 178996, Note_off_c, 0, 75, 53
1, 179052, Note_off_c, 0, 66, 56
1, 179075, Note_off_c, 0, 78, 59
1, 179221, Note_on_c, 0, 66, 95
1, 179221, Note_on_c, 0, 71, 85
1, 179221, Note_on_c, 0, 75, 87
1, 179222, Note_on_c, 0, 78, 92
1, 179227, Note_on_c, 0, 63, 93
1, 179231, Note_on_c, 0, 59, 78
1, 179237, Note_on_c, 0, 54, 77
1, 179240, Control_c, 0, 64, 96
1, 179255, Control_c, 0, 64, 73
1, 179270, Control_c, 0, 64, 0
1, 179312, Control_c, 0, 64, 65
1, 179327, Control_c, 0, 64, 80
1, 179342, Control_c, 0, 64, 98
1, 179356, Control_c, 0, 64, 127
1, 179418, Note_off_c, 0, 54, 54
1, 179436, Note_off_c, 0, 59, 52
1, 179438, Note_off_c, 0, 63, 59
1, 179462, Note_off_c, 0, 71, 53
1, 179501, Note_off_c, 0, 75, 54
1, 179523, Note_off_c, 0, 78, 54
1, 179527, Note_off_c, 0, 66, 57
1, 179571, Note_on_c, 0, 62, 87
1, 179574, Note_on_c, 0, 59, 81
1, 179575, Note_on_c, 0, 53, 77
1, 179580, Note_on_c, 0, 71, 88
1, 179581, Note_on_c, 0, 74, 81
1, 179614, Note_off_c, 0, 62, 64
1, 179628, Note_off_c, 0, 59, 62
1, 179630, Note_off_c, 0, 53, 61
1, 179640, Note_off_c, 0, 71, 63
1, 179648, Note_off_c, 0, 74, 62
1, 179694, Note_on_c, 0, 52, 82
1, 179736, Note_on_c, 0, 57, 58
1, 179789, Note_on_c, 0, 61, 90
1, 179795, Control_c, 0, 64, 98
1, 179800, Note_on_c, 0, 66, 86
1, 179800, Note_on_c, 0, 78, 82
1, 179801, Note_on_c, 0, 69, 82
1, 179808, Note_on_c, 0, 73, 83
1, 179810, Control_c, 0, 64, 80
1, 179824, Control_c, 0, 64, 69
1, 179836, Note_off_c, 0, 52, 60
1, 179839, Control_c, 0, 64, 71
1, 179854, Control_c, 0, 64, 80
1, 179862, Note_on_c, 0, 75, 27
1, 179869, Control_c, 0, 64, 96
1, 179877, Note_off_c, 0, 61, 59
1, 179883, Control_c, 0, 64, 127
1, 179907, Note_off_c, 0, 69, 57
1, 179915, Note_off_c, 0, 66, 62
1, 179917, Note_off_c, 0, 75, 41
1, 179921, Note_off_c, 0, 78, 61
1, 179925, Note_off_c, 0, 73, 59
1, 179974, Note_off_c, 0, 57, 37
1, 180017, Control_c, 0, 64, 101
1, 180024, Note_on_c, 0, 60, 88
1, 180031, Note_on_c, 0, 56, 77
1, 180031, Control_c, 0, 64, 96
1, 180034, Note_on_c, 0, 51, 74
1, 180039, Note_on_c, 0, 72, 87
1, 180044, Note_on_c, 0, 68, 87
1, 180062, Control_c, 0, 64, 102
1, 180072, Note_off_c, 0, 60, 60
1, 180076, Control_c, 0, 64, 108
1, 180091, Note_off_c, 0, 51, 48
1, 180091, Control_c, 0, 64, 117
1, 180102, Note_off_c, 0, 56, 62
1, 180106, Control_c, 0, 64, 127
1, 180111, Note_off_c, 0, 68, 63
1, 180113, Note_off_c, 0, 72, 61
1, 180313, Control_c, 0, 64, 114
1, 180328, Control_c, 0, 64, 90
1, 180334, Note_on_c, 0, 50, 74
1, 180334, Note_on_c, 0, 71, 89
1, 180335, Note_on_c, 0, 78, 90
1, 180337, Note_on_c, 0, 59, 74
1, 180338, Note_on_c, 0, 66, 91
1, 180340, Note_on_c, 0, 55, 78
1, 180343, Control_c, 0, 64, 72
1, 180358, Control_c, 0, 64, 0
1, 180382, Note_on_c, 0, 73, 42
1, 180403, Control_c, 0, 64, 73
1, 180418, Control_c, 0, 64, 91
1, 180427, Note_off_c, 0, 59, 56
1, 180433, Control_c, 0, 64, 127
1, 180452, Note_off_c, 0, 50, 61
1, 180457, Note_off_c, 0, 73, 53
1, 180465, Note_off_c, 0, 71, 62
1, 180466, Note_off_c, 0, 78, 61
1, 180489, Note_off_c, 0, 66, 62
1, 180492, Note_off_c, 0, 55, 59
1, 180746, Note_on_c, 0, 56, 62
1, 180751, Note_on_c, 0, 58, 50
1, 180754, Note_on_c, 0, 46, 57
1, 180770, Note_on_c, 0, 68, 84
1, 180771, Note_on_c, 0, 62, 89
1, 180771, Note_on_c, 0, 70, 87
1, 180793, Note_off_c, 0, 58, 59
1, 180828, Note_off_c, 0, 62, 61
1, 180831, Note_off_c, 0, 46, 60
1, 180833, Note_off_c, 0, 56, 62
1, 180859, Note_off_c, 0, 68, 62
1, 181395, Note_on_c, 0, 39, 76
1, 181396, Control_c, 0, 64, 113
1, 181401, Note_on_c, 0, 27, 73
1, 181404, Note_on_c, 0, 66, 77
1, 181404, Note_on_c, 0, 75, 84
1, 181404, Note_off_c, 0, 70, 55
1, 181407, Note_on_c, 0, 63, 77
1, 181411, Control_c, 0, 64, 101
1, 181426, Control_c, 0, 64, 93
1, 181441, Control_c, 0, 64, 84
1, 181456, Control_c, 0, 64, 74
1, 181470, Control_c, 0, 64, 60
1, 181485, Control_c, 0, 64, 0
1, 181574, Control_c, 0, 64, 59
1, 181589, Control_c, 0, 64, 67
1, 181604, Control_c, 0, 64, 70
1, 181607, Note_off_c, 0, 27, 60
1, 181619, Control_c, 0, 64, 73
1, 181634, Control_c, 0, 64, 76
1, 181648, Control_c, 0, 64, 79
1, 181663, Control_c, 0, 64, 82
1, 181664, Note_off_c, 0, 39, 63
1, 181678, Control_c, 0, 64, 85
1, 181693, Control_c, 0, 64, 87
1, 181708, Control_c, 0, 64, 90
1, 181722, Control_c, 0, 64, 93
1, 181737, Control_c, 0, 64, 96
1, 181752, Control_c, 0, 64, 99
1, 181767, Control_c, 0, 64, 101
1, 181796, Control_c, 0, 64, 104
1, 181826, Control_c, 0, 64, 107
1, 181855, Control_c, 0, 64, 110
1, 181885, Control_c, 0, 64, 114
1, 181914, Control_c, 0, 64, 117
1, 181967, Note_on_c, 0, 46, 50
1, 181990, Control_c, 0, 64, 119
1, 181993, Note_on_c, 0, 54, 38
1, 182005, Control_c, 0, 64, 121
1, 182029, Note_off_c, 0, 46, 56
1, 182048, Note_off_c, 0, 54, 54
1, 182057, Control_c, 0, 64, 124
1, 182072, Control_c, 0, 64, 127
1, 182096, Note_off_c, 0, 63, 58
1, 182198, Note_off_c, 0, 66, 37
1, 182246, Note_on_c, 0, 58, 52
1, 182247, Note_on_c, 0, 54, 41
1, 182295, Note_off_c, 0, 75, 57
1, 182298, Note_off_c, 0, 54, 60
1, 182302, Note_off_c, 0, 58, 60
1, 182460, Note_on_c, 0, 63, 59
1, 182466, Note_on_c, 0, 66, 50
1, 182500, Note_off_c, 0, 66, 61
1, 182535, Note_off_c, 0, 63, 56
1, 182630, Note_on_c, 0, 54, 35
1, 182662, Note_off_c, 0, 54, 55
1, 182785, Note_on_c, 0, 54, 40
1, 182801, Note_on_c, 0, 46, 46
1, 182812, Note_off_c, 0, 54, 60
1, 182838, Note_off_c, 0, 46, 57
1, 182981, Note_on_c, 0, 39, 58
1, 183072, Note_off_c, 0, 39, 58
1, 183211, Note_on_c, 0, 46, 45
1, 183211, Note_on_c, 0, 54, 42
1, 183243, Note_off_c, 0, 46, 62
1, 183250, Note_off_c, 0, 54, 60
1, 183394, Note_on_c, 0, 58, 53
1, 183407, Note_on_c, 0, 54, 25
1, 183438, Note_off_c, 0, 58, 59
1, 183441, Note_off_c, 0, 54, 52
1, 183594, Note_on_c, 0, 63, 55
1, 183595, Note_on_c, 0, 66, 43
1, 183654, Note_off_c, 0, 66, 54
1, 183690, Note_off_c, 0, 63, 53
1, 183819, Note_on_c, 0, 58, 46
1, 183824, Note_on_c, 0, 54, 36
1, 183923, Note_off_c, 0, 58, 59
1, 183929, Note_off_c, 0, 54, 54
1, 184084, Note_on_c, 0, 44, 92
1, 184312, Note_off_c, 0, 44, 65
1, 184415, Note_on_c, 0, 39, 87
1, 184416, Note_on_c, 0, 27, 81
1, 184510, Control_c, 0, 64, 121
1, 184525, Control_c, 0, 64, 93
1, 184531, Note_on_c, 0, 45, 103
1, 184540, Control_c, 0, 64, 76
1, 184555, Control_c, 0, 64, 54
1, 184570, Control_c, 0, 64, 0
1, 184613, Note_off_c, 0, 27, 60
1, 184615, Control_c, 0, 67, 9
1, 184629, Control_c, 0, 64, 69
1, 184633, Note_off_c, 0, 39, 62
1, 184644, Control_c, 0, 64, 80
1, 184659, Control_c, 0, 64, 98
1, 184673, Control_c, 0, 64, 124
1, 184688, Control_c, 0, 64, 127
1, 184722, Note_off_c, 0, 45, 62
1, 184821, Control_c, 0, 67, 0
1, 185005, Note_on_c, 0, 46, 12
1, 185006, Note_on_c, 0, 54, 44
1, 185017, Note_on_c, 0, 51, 13
1, 185025, Note_on_c, 0, 69, 83
1, 185032, Note_on_c, 0, 67, 71
1, 185048, Note_off_c, 0, 69, 68
1, 185056, Note_off_c, 0, 67, 64
1, 185059, Note_off_c, 0, 46, 47
1, 185065, Note_off_c, 0, 51, 48
1, 185079, Note_off_c, 0, 54, 60
1, 185087, Note_on_c, 0, 57, 66
1, 185119, Note_off_c, 0, 57, 65
1, 185212, Note_on_c, 0, 63, 67
1, 185213, Note_on_c, 0, 58, 61
1, 185218, Note_on_c, 0, 66, 68
1, 185395, Note_on_c, 0, 69, 91
1, 185467, Control_c, 0, 64, 116
1, 185482, Control_c, 0, 64, 109
1, 185496, Control_c, 0, 64, 104
1, 185511, Control_c, 0, 64, 99
1, 185526, Control_c, 0, 64, 94
1, 185533, Note_on_c, 0, 90, 99
1, 185541, Control_c, 0, 64, 89
1, 185548, Note_on_c, 0, 81, 75
1, 185556, Control_c, 0, 64, 83
1, 185570, Control_c, 0, 64, 77
1, 185585, Control_c, 0, 64, 73
1, 185600, Control_c, 0, 64, 70
1, 185614, Control_c, 0, 64, 70
1, 185629, Control_c, 0, 64, 75
1, 185644, Control_c, 0, 64, 84
1, 185659, Control_c, 0, 64, 97
1, 185662, Note_off_c, 0, 63, 58
1, 185667, Note_off_c, 0, 66, 56
1, 185674, Control_c, 0, 64, 116
1, 185688, Control_c, 0, 64, 127
1, 185695, Note_off_c, 0, 69, 61
1, 185703, Note_off_c, 0, 58, 53
1, 185846, Note_off_c, 0, 90, 62
1, 185985, Note_on_c, 0, 58, 37
1, 185991, Note_off_c, 0, 81, 46
1, 186063, Note_off_c, 0, 58, 58
1, 186236, Note_on_c, 0, 57, 41
1, 186302, Note_on_c, 0, 89, 60
1, 186308, Note_on_c, 0, 80, 45
1, 186356, Note_off_c, 0, 57, 55
1, 186361, Note_off_c, 0, 80, 52
1, 186393, Note_off_c, 0, 89, 56
1, 186478, Note_on_c, 0, 86, 60
1, 186482, Note_on_c, 0, 77, 54
1, 186516, Note_off_c, 0, 86, 66
1, 186532, Note_off_c, 0, 77, 62
1, 186561, Note_on_c, 0, 46, 35
1, 186603, Poly_aftertouch_c, 0, 51, 127
1, 186626, Note_off_c, 0, 46, 60
1, 186636, Poly_aftertouch_c, 0, 51, 0
1, 186645, Note_on_c, 0, 84, 58
1, 186648, Note_on_c, 0, 75, 57
1, 186676, Note_off_c, 0, 75, 58
1, 186684, Note_off_c, 0, 84, 48
1, 186761, Note_on_c, 0, 39, 53
1, 186791, Note_on_c, 0, 81, 54
1, 186794, Note_on_c, 0, 72, 54
1, 186812, Note_off_c, 0, 81, 63
1, 186815, Note_off_c, 0, 72, 62
1, 186894, Note_off_c, 0, 39, 46
1, 186913, Note_on_c, 0, 80, 64
1, 186921, Note_on_c, 0, 71, 54
1, 186944, Note_off_c, 0, 80, 65
1, 186945, Note_off_c, 0, 71, 64
1, 187046, Note_on_c, 0, 78, 59
1, 187056, Note_on_c, 0, 69, 49
1, 187079, Note_off_c, 0, 69, 58
1, 187080, Note_off_c, 0, 78, 64
1, 187208, Note_on_c, 0, 69, 43
1, 187213, Note_on_c, 0, 77, 62
1, 187243, Note_off_c, 0, 69, 63
1, 187251, Note_off_c, 0, 77, 59
1, 187527, Note_on_c, 0, 39, 33
1, 187534, Control_c, 0, 64, 118
1, 187549, Control_c, 0, 64, 101
1, 187564, Control_c, 0, 64, 88
1, 187579, Control_c, 0, 64, 77
1, 187590, Note_on_c, 0, 77, 55
1, 187595, Control_c, 0, 64, 67
1, 187597, Note_on_c, 0, 69, 35
1, 187610, Control_c, 0, 64, 0
1, 187684, Control_c, 0, 64, 69
1, 187698, Control_c, 0, 64, 79
1, 187713, Control_c, 0, 64, 91
1, 187728, Control_c, 0, 64, 108
1, 187743, Note_off_c, 0, 39, 39
1, 187743, Control_c, 0, 64, 127
1, 187827, Note_off_c, 0, 69, 38
1, 187882, Note_off_c, 0, 77, 57
1, 187971, Note_on_c, 0, 78, 62
1, 187992, Note_on_c, 0, 54, 35
1, 187997, Note_on_c, 0, 46, 36
1, 188018, Note_on_c, 0, 70, 10
1, 188045, Note_off_c, 0, 46, 58
1, 188069, Note_off_c, 0, 54, 57
1, 188078, Note_off_c, 0, 70, 42
1, 188155, Note_off_c, 0, 78, 45
1, 188205, Note_on_c, 0, 75, 51
1, 188225, Note_on_c, 0, 58, 48
1, 188251, Poly_aftertouch_c, 0, 66, 127
1, 188251, Note_off_c, 0, 75, 59
1, 188269, Control_c, 0, 67, 8
1, 188274, Note_off_c, 0, 58, 55
1, 188290, Poly_aftertouch_c, 0, 66, 0
1, 188373, Note_on_c, 0, 63, 51
1, 188470, Poly_aftertouch_c, 0, 66, 0
1, 188472, Note_off_c, 0, 63, 56
1, 188506, Note_on_c, 0, 58, 39
1, 188507, Control_c, 0, 67, 0
1, 188514, Note_on_c, 0, 54, 37
1, 188534, Note_off_c, 0, 58, 55
1, 188546, Note_off_c, 0, 54, 55
1, 188641, Note_on_c, 0, 46, 53
1, 188679, Note_off_c, 0, 46, 62
1, 188782, Note_on_c, 0, 39, 62
1, 188853, Note_off_c, 0, 39, 56
1, 188933, Note_on_c, 0, 46, 54
1, 188937, Note_on_c, 0, 54, 57
1, 188967, Note_off_c, 0, 46, 63
1, 188969, Note_off_c, 0, 54, 62
1, 189087, Note_on_c, 0, 58, 61
1, 189089, Note_on_c, 0, 54, 40
1, 189131, Note_off_c, 0, 54, 59
1, 189135, Note_off_c, 0, 58, 58
1, 189230, Note_on_c, 0, 66, 69
1, 189242, Note_on_c, 0, 63, 72
1, 189274, Note_off_c, 0, 66, 60
1, 189319, Note_off_c, 0, 63, 57
1, 189380, Note_on_c, 0, 54, 67
1, 189383, Note_on_c, 0, 58, 68
1, 189423, Note_off_c, 0, 58, 60
1, 189434, Note_off_c, 0, 54, 57
1, 189474, Poly_aftertouch_c, 0, 54, 0
1, 189480, Note_on_c, 0, 54, 72
1, 189482, Note_on_c, 0, 66, 86
1, 189520, Note_off_c, 0, 54, 65
1, 189547, Note_off_c, 0, 66, 61
1, 189590, Note_on_c, 0, 55, 91
1, 189590, Note_on_c, 0, 67, 90
1, 189616, Note_off_c, 0, 55, 66
1, 189626, Note_off_c, 0, 67, 63
1, 189673, Note_on_c, 0, 56, 97
1, 189676, Note_on_c, 0, 68, 90
1, 189702, Note_on_c, 0, 69, 46
1, 189719, Note_off_c, 0, 56, 60
1, 189722, Control_c, 0, 67, 8
1, 189728, Note_off_c, 0, 69, 59
1, 189733, Note_off_c, 0, 68, 61
1, 189766, Control_c, 0, 67, 10
1, 189771, Note_on_c, 0, 27, 79
1, 189773, Note_on_c, 0, 39, 104
1, 189840, Control_c, 0, 64, 109
1, 189855, Control_c, 0, 64, 88
1, 189870, Control_c, 0, 64, 71
1, 189885, Note_on_c, 0, 57, 95
1, 189885, Control_c, 0, 64, 0
1, 189885, Note_on_c, 0, 69, 95
1, 189919, Note_off_c, 0, 27, 59
1, 189929, Control_c, 0, 67, 12
1, 189930, Note_off_c, 0, 57, 64
1, 189941, Note_off_c, 0, 39, 60
1, 189944, Control_c, 0, 64, 75
1, 189957, Note_off_c, 0, 69, 62
1, 189959, Control_c, 0, 64, 92
1, 189974, Control_c, 0, 64, 127
1, 189989, Control_c, 0, 67, 14
1, 190167, Control_c, 0, 67, 12
1, 190224, Note_on_c, 0, 46, 60
1, 190227, Note_on_c, 0, 54, 55
1, 190231, Note_on_c, 0, 87, 83
1, 190234, Note_on_c, 0, 78, 77
1, 190264, Control_c, 0, 67, 10
1, 190271, Note_off_c, 0, 78, 61
1, 190313, Note_off_c, 0, 87, 61
1, 190316, Note_off_c, 0, 46, 59
1, 190326, Note_off_c, 0, 54, 59
1, 190335, Note_on_c, 0, 57, 78
1, 190344, Note_on_c, 0, 81, 74
1, 190347, Note_on_c, 0, 90, 89
1, 190368, Note_off_c, 0, 81, 67
1, 190386, Note_off_c, 0, 57, 63
1, 190387, Note_off_c, 0, 90, 65
1, 190442, Note_on_c, 0, 84, 93
1, 190443, Note_on_c, 0, 60, 72
1, 190452, Note_on_c, 0, 93, 76
1, 190466, Note_on_c, 0, 95, 60
1, 190466, Note_off_c, 0, 84, 67
1, 190473, Note_off_c, 0, 93, 69
1, 190484, Note_off_c, 0, 95, 64
1, 190508, Note_off_c, 0, 60, 59
1, 190518, Note_on_c, 0, 63, 69
1, 190526, Note_on_c, 0, 96, 97
1, 190532, Note_on_c, 0, 88, 76
1, 190544, Note_off_c, 0, 88, 72
1, 190553, Note_off_c, 0, 96, 66
1, 190586, Note_off_c, 0, 63, 62
1, 190602, Note_on_c, 0, 69, 91
1, 190611, Note_on_c, 0, 93, 103
1, 190612, Note_on_c, 0, 102, 103
1, 190625, Note_on_c, 0, 103, 76
1, 190634, Note_off_c, 0, 102, 61
1, 190636, Note_off_c, 0, 69, 67
1, 190639, Note_off_c, 0, 103, 48
1, 190639, Note_off_c, 0, 93, 62
1, 191223, Note_on_c, 0, 92, 79
1, 191226, Note_on_c, 0, 101, 77
1, 191253, Note_off_c, 0, 92, 61
1, 191273, Note_off_c, 0, 101, 63
1, 191508, Note_on_c, 0, 98, 64
1, 191510, Note_on_c, 0, 89, 59
1, 191527, Note_off_c, 0, 89, 64
1, 191539, Note_off_c, 0, 98, 52
1, 191688, Note_on_c, 0, 96, 68
1, 191692, Note_on_c, 0, 87, 59
1, 191709, Note_off_c, 0, 96, 59
1, 191711, Note_off_c, 0, 87, 66
1, 191854, Note_on_c, 0, 84, 51
1, 191876, Note_off_c, 0, 84, 58
1, 191924, Control_c, 0, 67, 12
1, 191980, Note_on_c, 0, 90, 57
1, 191996, Note_on_c, 0, 81, 36
1, 191998, Note_off_c, 0, 90, 65
1, 192026, Note_off_c, 0, 81, 54
1, 192094, Note_on_c, 0, 80, 64
1, 192097, Note_on_c, 0, 89, 64
1, 192123, Note_off_c, 0, 89, 60
1, 192124, Note_off_c, 0, 80, 66
1, 192207, Note_on_c, 0, 77, 64
1, 192207, Note_on_c, 0, 86, 62
1, 192237, Note_off_c, 0, 86, 67
1, 192238, Note_off_c, 0, 77, 63
1, 192357, Note_on_c, 0, 84, 31
1, 192393, Note_off_c, 0, 84, 51
1, 192478, Note_on_c, 0, 72, 64
1, 192481, Note_on_c, 0, 81, 56
1, 192514, Note_off_c, 0, 81, 62
1, 192517, Note_off_c, 0, 72, 63
1, 192660, Note_on_c, 0, 80, 55
1, 192663, Note_on_c, 0, 71, 50
1, 192689, Note_off_c, 0, 71, 60
1, 192692, Note_off_c, 0, 80, 65
1, 192871, Note_on_c, 0, 78, 45
1, 192878, Note_on_c, 0, 69, 27
1, 192897, Note_off_c, 0, 78, 56
1, 192914, Note_off_c, 0, 69, 44
1, 192998, Control_c, 0, 67, 10
1, 193119, Note_on_c, 0, 69, 31
1, 193122, Note_on_c, 0, 77, 51
1, 193182, Note_off_c, 0, 69, 54
1, 193191, Note_off_c, 0, 77, 51
1, 193584, Control_c, 0, 67, 8
1, 193592, Note_on_c, 0, 39, 37
1, 193599, Control_c, 0, 64, 107
1, 193614, Control_c, 0, 64, 97
1, 193628, Control_c, 0, 64, 89
1, 193632, Note_on_c, 0, 77, 47
1, 193642, Note_on_c, 0, 69, 28
1, 193643, Control_c, 0, 64, 81
1, 193658, Control_c, 0, 64, 72
1, 193672, Control_c, 0, 64, 64
1, 193687, Control_c, 0, 64, 0
1, 193761, Control_c, 0, 64, 61
1, 193776, Control_c, 0, 64, 73
1, 193791, Control_c, 0, 64, 85
1, 193806, Control_c, 0, 64, 101
1, 193820, Control_c, 0, 64, 127
1, 193863, Note_off_c, 0, 39, 47
1, 193883, Note_off_c, 0, 69, 40
1, 193959, Note_off_c, 0, 77, 60
1, 194080, Note_on_c, 0, 78, 44
1, 194114, Note_on_c, 0, 46, 29
1, 194128, Note_on_c, 0, 54, 34
1, 194129, Note_on_c, 0, 70, 33
1, 194160, Note_off_c, 0, 46, 50
1, 194202, Note_off_c, 0, 54, 58
1, 194236, Note_off_c, 0, 70, 28
1, 194277, Note_off_c, 0, 78, 50
1, 194343, Note_on_c, 0, 75, 41
1, 194348, Note_on_c, 0, 58, 42
1, 194351, Note_on_c, 0, 66, 18
1, 194383, Note_off_c, 0, 75, 47
1, 194389, Note_off_c, 0, 66, 51
1, 194416, Note_off_c, 0, 58, 50
1, 194501, Note_on_c, 0, 66, 40
1, 194519, Note_on_c, 0, 63, 47
1, 194574, Note_off_c, 0, 66, 49
1, 194581, Note_off_c, 0, 63, 58
1, 194652, Note_on_c, 0, 54, 47
1, 194653, Note_on_c, 0, 58, 39
1, 194687, Note_off_c, 0, 58, 61
1, 194688, Control_c, 0, 67, 0
1, 194703, Note_off_c, 0, 54, 60
1, 194805, Note_on_c, 0, 78, 62
1, 194818, Note_on_c, 0, 46, 59
1, 194826, Note_on_c, 0, 70, 54
1, 194860, Note_off_c, 0, 70, 62
1, 194860, Control_c, 0, 67, 8
1, 194863, Note_off_c, 0, 46, 61
1, 194899, Note_off_c, 0, 78, 60
1, 194980, Note_on_c, 0, 39, 62
1, 195052, Control_c, 0, 64, 119
1, 195063, Note_on_c, 0, 77, 56
1, 195067, Control_c, 0, 64, 95
1, 195075, Note_on_c, 0, 69, 51
1, 195081, Control_c, 0, 64, 79
1, 195096, Control_c, 0, 64, 67
1, 195111, Control_c, 0, 64, 0
1, 195125, Control_c, 0, 64, 64
1, 195134, Note_off_c, 0, 39, 58
1, 195140, Control_c, 0, 64, 73
1, 195155, Control_c, 0, 64, 85
1, 195170, Control_c, 0, 64, 101
1, 195177, Note_off_c, 0, 69, 60
1, 195185, Control_c, 0, 64, 127
1, 195248, Note_off_c, 0, 77, 55
1, 195248, Note_on_c, 0, 54, 41
1, 195276, Note_on_c, 0, 78, 57
1, 195279, Note_on_c, 0, 46, 13
1, 195282, Note_on_c, 0, 70, 40
1, 195289, Control_c, 0, 67, 10
1, 195310, Note_off_c, 0, 54, 60
1, 195324, Note_off_c, 0, 46, 38
1, 195346, Note_off_c, 0, 70, 56
1, 195416, Note_off_c, 0, 78, 59
1, 195425, Note_on_c, 0, 75, 56
1, 195430, Note_on_c, 0, 66, 38
1, 195435, Note_on_c, 0, 58, 44
1, 195474, Note_off_c, 0, 66, 49
1, 195490, Note_off_c, 0, 58, 56
1, 195525, Note_off_c, 0, 75, 57
1, 195590, Note_on_c, 0, 66, 51
1, 195620, Note_on_c, 0, 63, 43
1, 195628, Note_off_c, 0, 66, 57
1, 195685, Note_off_c, 0, 63, 58
1, 195778, Note_on_c, 0, 54, 35
1, 195793, Note_on_c, 0, 58, 14
1, 195818, Note_off_c, 0, 54, 51
1, 195833, Note_off_c, 0, 58, 40
1, 195984, Note_on_c, 0, 78, 52
1, 195988, Note_on_c, 0, 46, 37
1, 196004, Note_on_c, 0, 70, 35
1, 196041, Note_off_c, 0, 70, 53
1, 196056, Note_off_c, 0, 46, 60
1, 196078, Note_off_c, 0, 78, 47
1, 196240, Note_on_c, 0, 39, 32
1, 196252, Control_c, 0, 67, 8
1, 196282, Control_c, 0, 64, 102
1, 196297, Control_c, 0, 64, 86
1, 196303, Note_on_c, 0, 77, 48
1, 196311, Note_on_c, 0, 69, 32
1, 196312, Control_c, 0, 64, 73
1, 196327, Control_c, 0, 64, 64
1, 196356, Control_c, 0, 64, 69
1, 196363, Note_off_c, 0, 39, 53
1, 196371, Control_c, 0, 64, 78
1, 196386, Control_c, 0, 64, 90
1, 196401, Control_c, 0, 64, 104
1, 196416, Control_c, 0, 64, 112
1, 196446, Note_off_c, 0, 69, 36
1, 196476, Control_c, 0, 64, 114
1, 196501, Note_on_c, 0, 54, 45
1, 196505, Control_c, 0, 64, 116
1, 196520, Note_off_c, 0, 77, 38
1, 196520, Control_c, 0, 64, 119
1, 196526, Note_on_c, 0, 78, 48
1, 196535, Control_c, 0, 64, 127
1, 196550, Note_on_c, 0, 70, 33
1, 196577, Note_off_c, 0, 54, 58
1, 196592, Note_off_c, 0, 70, 55
1, 196644, Note_off_c, 0, 78, 57
1, 196670, Note_on_c, 0, 75, 58
1, 196679, Note_on_c, 0, 66, 38
1, 196702, Note_on_c, 0, 46, 18
1, 196712, Note_off_c, 0, 66, 53
1, 196744, Note_off_c, 0, 46, 52
1, 196762, Note_off_c, 0, 75, 52
1, 196775, Note_on_c, 0, 58, 51
1, 196783, Note_on_c, 0, 78, 54
1, 196824, Note_off_c, 0, 58, 61
1, 196826, Note_on_c, 0, 70, 34
1, 196869, Note_off_c, 0, 70, 48
1, 196932, Note_on_c, 0, 77, 59
1, 196932, Note_on_c, 0, 69, 53
1, 196954, Note_on_c, 0, 66, 49
1, 196965, Note_off_c, 0, 78, 25
1, 196980, Note_off_c, 0, 69, 61
1, 197004, Note_off_c, 0, 66, 63
1, 197053, Note_off_c, 0, 77, 59
1, 197055, Note_on_c, 0, 78, 60
1, 197058, Note_on_c, 0, 54, 55
1, 197084, Note_on_c, 0, 70, 44
1, 197098, Note_off_c, 0, 54, 61
1, 197132, Note_off_c, 0, 70, 60
1, 197166, Note_off_c, 0, 78, 60
1, 197185, Note_on_c, 0, 58, 57
1, 197187, Note_on_c, 0, 75, 64
1, 197192, Note_on_c, 0, 66, 57
1, 197224, Note_off_c, 0, 58, 62
1, 197226, Note_off_c, 0, 66, 61
1, 197281, Note_on_c, 0, 46, 54
1, 197287, Note_on_c, 0, 78, 68
1, 197287, Note_off_c, 0, 75, 58
1, 197312, Note_on_c, 0, 70, 47
1, 197316, Note_off_c, 0, 46, 63
1, 197328, Control_c, 0, 67, 10
1, 197361, Note_off_c, 0, 70, 59
1, 197402, Control_c, 0, 64, 116
1, 197406, Note_on_c, 0, 39, 61
1, 197417, Note_on_c, 0, 77, 65
1, 197417, Control_c, 0, 64, 94
1, 197422, Note_on_c, 0, 69, 62
1, 197432, Control_c, 0, 64, 80
1, 197446, Control_c, 0, 64, 77
1, 197461, Control_c, 0, 64, 80
1, 197469, Note_off_c, 0, 39, 60
1, 197474, Note_off_c, 0, 69, 59
1, 197476, Control_c, 0, 64, 89
1, 197485, Note_off_c, 0, 78, 35
1, 197491, Control_c, 0, 64, 100
1, 197506, Control_c, 0, 64, 117
1, 197520, Control_c, 0, 64, 127
1, 197530, Note_on_c, 0, 54, 58
1, 197530, Note_off_c, 0, 77, 61
1, 197531, Note_on_c, 0, 78, 63
1, 197534, Note_on_c, 0, 70, 60
1, 197565, Control_c, 0, 67, 12
1, 197573, Note_off_c, 0, 54, 61
1, 197592, Note_off_c, 0, 70, 55
1, 197637, Note_on_c, 0, 66, 68
1, 197644, Note_on_c, 0, 75, 70
1, 197646, Note_off_c, 0, 78, 62
1, 197674, Note_on_c, 0, 46, 26
1, 197691, Note_off_c, 0, 66, 59
1, 197710, Note_off_c, 0, 46, 53
1, 197721, Note_on_c, 0, 58, 60
1, 197763, Note_on_c, 0, 78, 72
1, 197766, Note_off_c, 0, 58, 64
1, 197768, Note_off_c, 0, 75, 59
1, 197775, Note_on_c, 0, 70, 54
1, 197824, Control_c, 0, 64, 124
1, 197830, Note_off_c, 0, 70, 59
1, 197839, Control_c, 0, 64, 113
1, 197853, Control_c, 0, 64, 106
1, 197868, Control_c, 0, 64, 99
1, 197883, Note_on_c, 0, 69, 62
1, 197883, Control_c, 0, 64, 93
1, 197887, Note_on_c, 0, 66, 64
1, 197887, Note_on_c, 0, 77, 67
1, 197898, Control_c, 0, 64, 90
1, 197913, Control_c, 0, 64, 87
1, 197928, Control_c, 0, 64, 86
1, 197928, Note_off_c, 0, 66, 57
1, 197929, Note_off_c, 0, 78, 36
1, 197939, Note_off_c, 0, 69, 61
1, 197942, Control_c, 0, 64, 87
1, 197957, Control_c, 0, 64, 90
1, 197973, Control_c, 0, 64, 95
1, 197988, Note_on_c, 0, 54, 52
1, 197988, Control_c, 0, 64, 99
1, 198003, Control_c, 0, 64, 102
1, 198008, Note_on_c, 0, 78, 69
1, 198020, Note_off_c, 0, 54, 51
1, 198026, Note_on_c, 0, 70, 60
1, 198032, Control_c, 0, 64, 105
1, 198033, Note_off_c, 0, 77, 52
1, 198091, Note_off_c, 0, 70, 60
1, 198097, Note_off_c, 0, 78, 54
1, 198136, Control_c, 0, 64, 101
1, 198144, Note_on_c, 0, 75, 63
1, 198151, Control_c, 0, 64, 93
1, 198153, Note_on_c, 0, 66, 62
1, 198154, Note_on_c, 0, 58, 52
1, 198166, Control_c, 0, 64, 83
1, 198181, Control_c, 0, 64, 74
1, 198188, Note_off_c, 0, 58, 53
1, 198191, Note_off_c, 0, 66, 54
1, 198196, Control_c, 0, 64, 70
1, 198211, Control_c, 0, 64, 74
1, 198225, Control_c, 0, 64, 83
1, 198234, Note_off_c, 0, 75, 51
1, 198240, Control_c, 0, 64, 96
1, 198255, Control_c, 0, 64, 112
1, 198269, Control_c, 0, 64, 127
1, 198298, Note_on_c, 0, 78, 69
1, 198303, Note_on_c, 0, 46, 42
1, 198307, Note_on_c, 0, 70, 46
1, 198314, Control_c, 0, 67, 10
1, 198333, Note_off_c, 0, 46, 56
1, 198333, Note_off_c, 0, 70, 60
1, 198351, Note_off_c, 0, 78, 59
1, 198373, Control_c, 0, 67, 8
1, 198388, Control_c, 0, 67, 0
1, 198512, Note_on_c, 0, 69, 55
1, 198524, Note_on_c, 0, 77, 72
1, 198529, Control_c, 0, 64, 114
1, 198543, Control_c, 0, 64, 98
1, 198558, Control_c, 0, 64, 86
1, 198573, Control_c, 0, 64, 81
1, 198588, Control_c, 0, 64, 82
1, 198603, Control_c, 0, 64, 89
1, 198617, Control_c, 0, 64, 95
1, 198632, Control_c, 0, 64, 101
1, 198632, Control_c, 0, 67, 8
1, 198647, Control_c, 0, 64, 104
1, 198658, Note_off_c, 0, 77, 58
1, 198668, Note_off_c, 0, 69, 52
1, 198694, Note_on_c, 0, 78, 74
1, 198709, Note_on_c, 0, 70, 56
1, 198762, Note_off_c, 0, 70, 53
1, 198765, Control_c, 0, 64, 102
1, 198796, Note_off_c, 0, 78, 61
1, 198812, Note_on_c, 0, 75, 73
1, 198817, Note_on_c, 0, 66, 54
1, 198841, Control_c, 0, 64, 99
1, 198855, Control_c, 0, 64, 96
1, 198870, Control_c, 0, 64, 94
1, 198882, Note_off_c, 0, 66, 57
1, 198885, Control_c, 0, 64, 92
1, 198886, Note_off_c, 0, 75, 61
1, 198908, Note_on_c, 0, 77, 74
1, 198922, Note_on_c, 0, 69, 53
1, 198944, Control_c, 0, 64, 92
1, 198981, Note_off_c, 0, 77, 58
1, 198986, Note_off_c, 0, 69, 56
1, 199000, Note_on_c, 0, 78, 78
1, 199010, Note_on_c, 0, 70, 61
1, 199076, Note_off_c, 0, 78, 61
1, 199081, Note_off_c, 0, 70, 60
1, 199084, Note_on_c, 0, 75, 77
1, 199092, Control_c, 0, 64, 92
1, 199102, Note_on_c, 0, 66, 57
1, 199149, Note_off_c, 0, 75, 62
1, 199150, Note_off_c, 0, 66, 62
1, 199166, Control_c, 0, 64, 93
1, 199168, Note_on_c, 0, 77, 72
1, 199174, Note_on_c, 0, 69, 64
1, 199181, Control_c, 0, 64, 93
1, 199196, Control_c, 0, 64, 94
1, 199211, Control_c, 0, 64, 95
1, 199222, Note_off_c, 0, 77, 59
1, 199236, Note_on_c, 0, 78, 78
1, 199247, Note_off_c, 0, 69, 60
1, 199248, Control_c, 0, 64, 97
1, 199261, Note_on_c, 0, 70, 63
1, 199322, Note_off_c, 0, 78, 62
1, 199324, Note_on_c, 0, 75, 80
1, 199328, Note_off_c, 0, 70, 62
1, 199337, Note_on_c, 0, 66, 60
1, 199393, Note_off_c, 0, 75, 61
1, 199396, Control_c, 0, 64, 99
1, 199400, Note_off_c, 0, 66, 63
1, 199405, Note_on_c, 0, 69, 56
1, 199409, Note_on_c, 0, 77, 80
1, 199481, Note_off_c, 0, 77, 59
1, 199485, Control_c, 0, 64, 101
1, 199492, Note_on_c, 0, 78, 82
1, 199494, Note_off_c, 0, 69, 60
1, 199504, Note_on_c, 0, 70, 67
1, 199591, Note_off_c, 0, 70, 58
1, 199594, Note_on_c, 0, 75, 78
1, 199603, Note_on_c, 0, 66, 58
1, 199609, Note_off_c, 0, 78, 57
1, 199716, Note_off_c, 0, 75, 62
1, 199719, Note_on_c, 0, 69, 57
1, 199728, Note_on_c, 0, 77, 76
1, 199737, Control_c, 0, 64, 99
1, 199742, Note_off_c, 0, 66, 33
1, 199752, Control_c, 0, 64, 94
1, 199767, Control_c, 0, 64, 88
1, 199782, Control_c, 0, 64, 80
1, 199797, Control_c, 0, 64, 75
1, 199826, Control_c, 0, 64, 78
1, 199841, Control_c, 0, 64, 85
1, 199856, Control_c, 0, 64, 93
1, 199856, Control_c, 0, 67, 10
1, 199857, Note_on_c, 0, 78, 67
1, 199861, Note_off_c, 0, 77, 58
1, 199871, Control_c, 0, 64, 99
1, 199880, Note_off_c, 0, 69, 57
1, 199886, Control_c, 0, 64, 101
1, 199886, Note_on_c, 0, 70, 61
1, 199952, Note_on_c, 0, 75, 74
1, 199954, Note_off_c, 0, 78, 62
1, 199960, Control_c, 0, 67, 8
1, 199975, Control_c, 0, 67, 0
1, 199995, Note_off_c, 0, 70, 57
1, 200019, Note_on_c, 0, 66, 48
1, 200044, Note_off_c, 0, 75, 61
1, 200050, Note_on_c, 0, 78, 75
1, 200115, Note_off_c, 0, 66, 51
1, 200124, Note_on_c, 0, 69, 52
1, 200132, Note_off_c, 0, 78, 58
1, 200145, Control_c, 0, 64, 96
1, 200148, Note_on_c, 0, 77, 71
1, 200160, Control_c, 0, 64, 91
1, 200175, Control_c, 0, 64, 86
1, 200189, Control_c, 0, 64, 81
1, 200204, Control_c, 0, 64, 76
1, 200219, Control_c, 0, 64, 72
1, 200234, Control_c, 0, 64, 71
1, 200248, Control_c, 0, 64, 72
1, 200259, Note_on_c, 0, 78, 66
1, 200261, Note_off_c, 0, 77, 60
1, 200263, Control_c, 0, 64, 76
1, 200275, Note_off_c, 0, 69, 58
1, 200278, Control_c, 0, 64, 82
1, 200293, Control_c, 0, 64, 90
1, 200298, Note_on_c, 0, 70, 48
1, 200308, Control_c, 0, 64, 95
1, 200373, Note_off_c, 0, 78, 59
1, 200378, Note_on_c, 0, 75, 63
1, 200427, Control_c, 0, 64, 96
1, 200437, Note_off_c, 0, 70, 47
1, 200442, Control_c, 0, 64, 95
1, 200457, Control_c, 0, 64, 95
1, 200464, Note_on_c, 0, 66, 48
1, 200471, Control_c, 0, 64, 93
1, 200479, Note_off_c, 0, 75, 60
1, 200486, Control_c, 0, 64, 92
1, 200491, Note_on_c, 0, 78, 65
1, 200501, Control_c, 0, 64, 91
1, 200516, Control_c, 0, 64, 90
1, 200531, Control_c, 0, 64, 90
1, 200545, Control_c, 0, 64, 89
1, 200575, Control_c, 0, 64, 89
1, 200619, Control_c, 0, 64, 88
1, 200634, Control_c, 0, 64, 87
1, 200645, Note_off_c, 0, 78, 60
1, 200646, Note_on_c, 0, 69, 37
1, 200648, Note_on_c, 0, 77, 62
1, 200649, Control_c, 0, 64, 83
1, 200664, Control_c, 0, 64, 78
1, 200679, Control_c, 0, 64, 72
1, 200691, Note_off_c, 0, 66, 33
1, 200694, Control_c, 0, 64, 66
1, 200709, Control_c, 0, 64, 64
1, 200724, Control_c, 0, 64, 65
1, 200745, Control_c, 0, 64, 66
1, 200760, Control_c, 0, 64, 69
1, 200775, Control_c, 0, 64, 72
1, 200790, Control_c, 0, 64, 75
1, 200804, Note_off_c, 0, 77, 59
1, 200805, Control_c, 0, 64, 79
1, 200819, Control_c, 0, 64, 81
1, 200824, Note_on_c, 0, 78, 56
1, 200834, Control_c, 0, 64, 82
1, 200842, Note_off_c, 0, 69, 48
1, 200849, Control_c, 0, 64, 81
1, 200866, Note_on_c, 0, 70, 37
1, 200953, Note_off_c, 0, 78, 57
1, 200968, Control_c, 0, 64, 81
1, 200970, Note_on_c, 0, 75, 56
1, 201031, Note_off_c, 0, 70, 37
1, 201064, Note_on_c, 0, 66, 35
1, 201072, Note_off_c, 0, 75, 59
1, 201087, Note_on_c, 0, 78, 54
1, 201235, Control_c, 0, 64, 80
1, 201250, Control_c, 0, 64, 80
1, 201265, Control_c, 0, 64, 79
1, 201280, Note_off_c, 0, 78, 58
1, 201280, Control_c, 0, 64, 78
1, 201280, Control_c, 0, 67, 8
1, 201286, Note_on_c, 0, 69, 36
1, 201294, Note_on_c, 0, 77, 44
1, 201294, Control_c, 0, 64, 77
1, 201309, Control_c, 0, 64, 75
1, 201324, Control_c, 0, 64, 72
1, 201328, Note_off_c, 0, 66, 24
1, 201339, Control_c, 0, 64, 68
1, 201354, Control_c, 0, 64, 65
1, 201368, Control_c, 0, 64, 64
1, 201383, Control_c, 0, 64, 65
1, 201398, Control_c, 0, 64, 66
1, 201412, Control_c, 0, 64, 68
1, 201427, Control_c, 0, 64, 71
1, 201442, Control_c, 0, 64, 73
1, 201457, Control_c, 0, 64, 77
1, 201472, Control_c, 0, 64, 80
1, 201494, Control_c, 0, 64, 83
1, 201500, Note_off_c, 0, 77, 58
1, 201509, Control_c, 0, 64, 84
1, 201522, Note_on_c, 0, 78, 51
1, 201524, Control_c, 0, 64, 85
1, 201539, Control_c, 0, 67, 0
1, 201597, Note_off_c, 0, 69, 38
1, 201613, Control_c, 0, 64, 85
1, 201616, Note_on_c, 0, 70, 40
1, 201627, Control_c, 0, 64, 86
1, 201642, Control_c, 0, 64, 87
1, 201657, Control_c, 0, 64, 89
1, 201672, Control_c, 0, 64, 89
1, 201687, Control_c, 0, 64, 90
1, 201701, Control_c, 0, 64, 91
1, 201716, Control_c, 0, 64, 92
1, 201731, Control_c, 0, 64, 93
1, 201746, Control_c, 0, 64, 93
1, 201761, Control_c, 0, 64, 94
1, 201770, Note_off_c, 0, 78, 60
1, 201777, Note_off_c, 0, 70, 37
1, 201780, Note_on_c, 0, 75, 56
1, 201791, Control_c, 0, 64, 94
1, 201820, Control_c, 0, 64, 95
1, 201835, Control_c, 0, 64, 95
1, 201865, Control_c, 0, 64, 96
1, 202027, Note_on_c, 0, 66, 29
1, 202063, Note_off_c, 0, 66, 52
1, 202117, Control_c, 0, 67, 8
1, 202177, Control_c, 0, 67, 10
1, 202250, Note_off_c, 0, 75, 41
1, 202282, Note_on_c, 0, 78, 44
1, 202317, Control_c, 0, 67, 12
1, 202360, Note_off_c, 0, 78, 49
1, 202391, Control_c, 0, 67, 14
1, 202658, Control_c, 0, 64, 95
1, 202777, Control_c, 0, 64, 95
1, 202866, Control_c, 0, 64, 94
1, 202881, Control_c, 0, 64, 94
1, 202911, Control_c, 0, 64, 93
1, 202970, Control_c, 0, 64, 92
1, 202992, Control_c, 0, 64, 91
1, 203007, Control_c, 0, 64, 88
1, 203022, Control_c, 0, 64, 85
1, 203035, Note_on_c, 0, 75, 39
1, 203037, Control_c, 0, 64, 82
1, 203037, Note_on_c, 0, 39, 26
1, 203052, Control_c, 0, 64, 77
1, 203066, Control_c, 0, 64, 72
1, 203081, Control_c, 0, 64, 67
1, 203096, Control_c, 0, 64, 64
1, 203106, Note_off_c, 0, 75, 0
1, 203106, Note_on_c, 0, 75, 4
1, 203111, Control_c, 0, 64, 62
1, 203126, Control_c, 0, 64, 61
1, 203170, Control_c, 0, 64, 62
1, 203184, Control_c, 0, 64, 63
1, 203199, Control_c, 0, 64, 64
1, 203214, Control_c, 0, 64, 66
1, 203229, Control_c, 0, 64, 69
1, 203244, Control_c, 0, 64, 73
1, 203258, Control_c, 0, 64, 77
1, 203273, Control_c, 0, 64, 84
1, 203288, Control_c, 0, 64, 90
1, 203303, Control_c, 0, 64, 94
1, 203318, Control_c, 0, 64, 96
1, 203321, Note_off_c, 0, 39, 35
1, 203347, Control_c, 0, 64, 98
1, 203377, Control_c, 0, 64, 101
1, 203421, Control_c, 0, 64, 103
1, 203601, Note_on_c, 0, 46, 35
1, 203615, Control_c, 0, 64, 106
1, 203645, Control_c, 0, 64, 108
1, 203675, Control_c, 0, 64, 110
1, 203709, Note_off_c, 0, 46, 52
1, 203862, Note_on_c, 0, 54, 38
1, 203997, Note_off_c, 0, 54, 34
1, 204033, Note_on_c, 0, 46, 30
1, 204082, Control_c, 0, 64, 112
1, 204085, Note_off_c, 0, 46, 45
1, 204155, Note_on_c, 0, 54, 29
1, 204301, Note_off_c, 0, 54, 35
1, 204333, Control_c, 0, 64, 114
1, 204398, Note_on_c, 0, 63, 40
1, 204520, Control_c, 0, 64, 116
1, 204524, Note_off_c, 0, 63, 55
1, 204712, Control_c, 0, 64, 119
1, 204758, Note_on_c, 0, 54, 27
1, 204798, Note_off_c, 0, 54, 53
1, 204880, Note_on_c, 0, 44, 32
1, 204915, Note_off_c, 0, 44, 52
1, 205016, Note_on_c, 0, 54, 13
1, 205047, Note_off_c, 0, 54, 0
1, 205051, Note_on_c, 0, 44, 25
1, 205064, Poly_aftertouch_c, 0, 54, 0
1, 205178, Note_off_c, 0, 44, 53
1, 205195, Note_on_c, 0, 39, 49
1, 205217, Control_c, 0, 64, 115
1, 205240, Control_c, 0, 64, 111
1, 205255, Control_c, 0, 64, 106
1, 205269, Control_c, 0, 64, 97
1, 205284, Control_c, 0, 64, 92
1, 205299, Control_c, 0, 64, 91
1, 205329, Control_c, 0, 64, 91
1, 205343, Control_c, 0, 64, 92
1, 205358, Control_c, 0, 64, 92
1, 205373, Control_c, 0, 64, 94
1, 205387, Control_c, 0, 64, 96
1, 205402, Control_c, 0, 64, 99
1, 205432, Control_c, 0, 64, 102
1, 205447, Control_c, 0, 64, 105
1, 205461, Control_c, 0, 64, 107
1, 205491, Control_c, 0, 64, 109
1, 205510, Note_off_c, 0, 39, 39
1, 205520, Control_c, 0, 64, 111
1, 205550, Control_c, 0, 64, 113
1, 205579, Control_c, 0, 64, 116
1, 205609, Control_c, 0, 64, 119
1, 205639, Control_c, 0, 64, 123
1, 205640, Note_off_c, 0, 75, 49
1, 205653, Control_c, 0, 64, 127
1, 205656, Note_on_c, 0, 46, 42
1, 205721, Note_off_c, 0, 46, 52
1, 205728, Control_c, 0, 67, 16
1, 205806, Note_on_c, 0, 54, 38
1, 205881, Note_off_c, 0, 54, 55
1, 205937, Note_on_c, 0, 46, 35
1, 206015, Note_off_c, 0, 46, 44
1, 206072, Note_on_c, 0, 54, 34
1, 206251, Note_off_c, 0, 54, 37
1, 206375, Note_on_c, 0, 63, 42
1, 206432, Control_c, 0, 64, 118
1, 206447, Control_c, 0, 64, 111
1, 206462, Control_c, 0, 64, 105
1, 206477, Control_c, 0, 64, 98
1, 206491, Control_c, 0, 64, 91
1, 206506, Control_c, 0, 64, 85
1, 206510, Note_on_c, 0, 87, 74
1, 206521, Control_c, 0, 64, 79
1, 206535, Control_c, 0, 64, 75
1, 206550, Control_c, 0, 64, 73
1, 206565, Control_c, 0, 64, 74
1, 206580, Control_c, 0, 64, 75
1, 206595, Control_c, 0, 64, 79
1, 206609, Control_c, 0, 64, 83
1, 206624, Control_c, 0, 64, 88
1, 206639, Control_c, 0, 64, 91
1, 206647, Note_off_c, 0, 63, 36
1, 206654, Control_c, 0, 64, 94
1, 206669, Control_c, 0, 64, 97
1, 206683, Control_c, 0, 64, 100
1, 206698, Control_c, 0, 64, 104
1, 206713, Control_c, 0, 64, 108
1, 206735, Control_c, 0, 64, 111
1, 206750, Control_c, 0, 64, 113
1, 206781, Control_c, 0, 64, 115
1, 206811, Control_c, 0, 64, 117
1, 206945, Note_on_c, 0, 54, 35
1, 206989, Note_off_c, 0, 54, 48
1, 207068, Note_on_c, 0, 46, 36
1, 207077, Control_c, 0, 64, 119
1, 207105, Note_off_c, 0, 46, 58
1, 207177, Note_on_c, 0, 54, 39
1, 207217, Note_off_c, 0, 54, 50
1, 207267, Note_on_c, 0, 46, 29
1, 207345, Note_off_c, 0, 46, 56
1, 207386, Note_on_c, 0, 39, 37
1, 207565, Note_off_c, 0, 39, 37
1, 207678, Control_c, 0, 64, 121
1, 207727, Note_on_c, 0, 46, 34
1, 207762, Note_off_c, 0, 46, 54
1, 207878, Note_on_c, 0, 54, 27
1, 207924, Note_off_c, 0, 54, 46
1, 208003, Note_on_c, 0, 46, 16
1, 208057, Note_off_c, 0, 46, 46
1, 208134, Note_on_c, 0, 54, 36
1, 208183, Note_off_c, 0, 54, 55
1, 208396, Note_off_c, 0, 87, 62
1, 208397, Note_on_c, 0, 63, 38
1, 208407, Note_on_c, 0, 83, 63
1, 208495, Note_off_c, 0, 63, 56
1, 208677, Control_c, 0, 64, 124
1, 208766, Control_c, 0, 64, 127
1, 208796, Note_on_c, 0, 54, 35
1, 208815, Note_off_c, 0, 83, 51
1, 208885, Note_off_c, 0, 54, 55
1, 209002, Note_on_c, 0, 46, 18
1, 209044, Note_off_c, 0, 46, 50
1, 209158, Note_on_c, 0, 82, 61
1, 209174, Note_on_c, 0, 54, 15
1, 209195, Note_off_c, 0, 82, 62
1, 209219, Note_off_c, 0, 54, 50
1, 209249, Control_c, 0, 67, 18
1, 209306, Note_on_c, 0, 46, 27
1, 209387, Note_off_c, 0, 46, 48
1, 209473, Note_on_c, 0, 39, 30
1, 209559, Control_c, 0, 64, 124
1, 209574, Control_c, 0, 64, 117
1, 209589, Control_c, 0, 64, 112
1, 209604, Control_c, 0, 64, 107
1, 209619, Control_c, 0, 64, 101
1, 209630, Note_on_c, 0, 82, 51
1, 209634, Control_c, 0, 64, 95
1, 209648, Control_c, 0, 64, 89
1, 209663, Control_c, 0, 64, 83
1, 209678, Control_c, 0, 64, 78
1, 209693, Control_c, 0, 64, 74
1, 209708, Control_c, 0, 64, 71
1, 209745, Control_c, 0, 64, 72
1, 209759, Control_c, 0, 64, 73
1, 209774, Control_c, 0, 64, 74
1, 209789, Control_c, 0, 64, 77
1, 209804, Control_c, 0, 64, 80
1, 209819, Control_c, 0, 64, 86
1, 209832, Note_off_c, 0, 39, 37
1, 209833, Control_c, 0, 64, 89
1, 209848, Control_c, 0, 64, 92
1, 209863, Control_c, 0, 64, 93
1, 209878, Control_c, 0, 64, 95
1, 209908, Control_c, 0, 64, 98
1, 209923, Control_c, 0, 64, 100
1, 209953, Control_c, 0, 64, 102
1, 210012, Control_c, 0, 64, 104
1, 210040, Note_on_c, 0, 46, 28
1, 210097, Note_off_c, 0, 46, 43
1, 210224, Note_on_c, 0, 55, 31
1, 210267, Note_off_c, 0, 55, 50
1, 210279, Control_c, 0, 64, 106
1, 210340, Note_on_c, 0, 46, 26
1, 210368, Control_c, 0, 64, 108
1, 210407, Note_off_c, 0, 46, 42
1, 210536, Note_on_c, 0, 55, 10
1, 210664, Note_off_c, 0, 55, 27
1, 210801, Note_on_c, 0, 63, 27
1, 210940, Note_on_c, 0, 75, 61
1, 210951, Note_off_c, 0, 63, 35
1, 211103, Control_c, 0, 64, 110
1, 211440, Note_on_c, 0, 46, 37
1, 211450, Control_c, 0, 64, 112
1, 211480, Note_off_c, 0, 46, 53
1, 211596, Poly_aftertouch_c, 0, 55, 127
1, 211631, Poly_aftertouch_c, 0, 55, 0
1, 211647, Note_on_c, 0, 46, 32
1, 211716, Note_off_c, 0, 46, 59
1, 211717, Control_c, 0, 64, 115
1, 211740, Note_on_c, 0, 39, 53
1, 211747, Control_c, 0, 64, 117
1, 211777, Control_c, 0, 64, 121
1, 211792, Control_c, 0, 64, 127
1, 211807, Note_off_c, 0, 39, 43
1, 211917, Note_on_c, 0, 46, 46
1, 211977, Control_c, 0, 67, 16
1, 211982, Note_off_c, 0, 46, 59
1, 212057, Note_on_c, 0, 55, 42
1, 212075, Note_on_c, 0, 74, 73
1, 212111, Note_off_c, 0, 55, 59
1, 212123, Note_off_c, 0, 82, 56
1, 212123, Note_off_c, 0, 75, 61
1, 212140, Control_c, 0, 67, 14
1, 212177, Note_on_c, 0, 46, 42
1, 212228, Control_c, 0, 67, 12
1, 212249, Note_off_c, 0, 46, 59
1, 212269, Note_on_c, 0, 55, 47
1, 212272, Note_off_c, 0, 74, 53
1, 212368, Note_off_c, 0, 55, 57
1, 212377, Control_c, 0, 64, 124
1, 212392, Control_c, 0, 64, 116
1, 212407, Control_c, 0, 64, 106
1, 212422, Control_c, 0, 64, 96
1, 212430, Note_on_c, 0, 63, 50
1, 212437, Control_c, 0, 64, 83
1, 212442, Note_on_c, 0, 75, 68
1, 212451, Control_c, 0, 64, 73
1, 212453, Note_on_c, 0, 73, 67
1, 212466, Control_c, 0, 64, 67
1, 212481, Control_c, 0, 64, 68
1, 212495, Control_c, 0, 64, 72
1, 212510, Control_c, 0, 64, 78
1, 212525, Control_c, 0, 64, 89
1, 212540, Control_c, 0, 64, 97
1, 212555, Control_c, 0, 64, 101
1, 212562, Note_off_c, 0, 63, 34
1, 212585, Control_c, 0, 64, 103
1, 212608, Note_on_c, 0, 55, 43
1, 212638, Note_off_c, 0, 73, 58
1, 212644, Control_c, 0, 64, 105
1, 212658, Note_off_c, 0, 55, 57
1, 212674, Control_c, 0, 64, 107
1, 212720, Note_on_c, 0, 46, 47
1, 212803, Note_off_c, 0, 46, 49
1, 212880, Note_on_c, 0, 72, 59
1, 212907, Note_on_c, 0, 55, 41
1, 212965, Note_off_c, 0, 55, 58
1, 213082, Note_on_c, 0, 46, 42
1, 213156, Control_c, 0, 64, 105
1, 213172, Note_off_c, 0, 72, 34
1, 213196, Note_on_c, 0, 71, 52
1, 213245, Control_c, 0, 64, 103
1, 213253, Note_off_c, 0, 75, 54
1, 213264, Note_off_c, 0, 71, 57
1, 213274, Control_c, 0, 64, 101
1, 213295, Note_on_c, 0, 73, 61
1, 213313, Note_off_c, 0, 46, 30
1, 213333, Control_c, 0, 64, 98
1, 213348, Control_c, 0, 64, 96
1, 213363, Control_c, 0, 64, 93
1, 213378, Control_c, 0, 64, 90
1, 213386, Note_on_c, 0, 39, 32
1, 213392, Control_c, 0, 64, 87
1, 213407, Control_c, 0, 64, 86
1, 213422, Control_c, 0, 64, 84
1, 213437, Control_c, 0, 64, 82
1, 213444, Note_off_c, 0, 73, 60
1, 213452, Control_c, 0, 64, 80
1, 213474, Control_c, 0, 64, 77
1, 213475, Note_on_c, 0, 71, 50
1, 213478, Note_on_c, 0, 75, 59
1, 213489, Control_c, 0, 64, 73
1, 213504, Control_c, 0, 64, 68
1, 213518, Control_c, 0, 64, 64
1, 213533, Control_c, 0, 64, 55
1, 213548, Control_c, 0, 64, 41
1, 213593, Control_c, 0, 64, 50
1, 213607, Control_c, 0, 64, 64
1, 213622, Control_c, 0, 64, 68
1, 213637, Control_c, 0, 64, 74
1, 213652, Control_c, 0, 64, 82
1, 213667, Control_c, 0, 64, 93
1, 213682, Control_c, 0, 64, 102
1, 213696, Control_c, 0, 64, 106
1, 213726, Control_c, 0, 64, 109
1, 213727, Note_off_c, 0, 39, 31
1, 213741, Control_c, 0, 64, 111
1, 213756, Control_c, 0, 64, 113
1, 213777, Note_off_c, 0, 71, 42
1, 213815, Control_c, 0, 67, 14
1, 213911, Note_on_c, 0, 46, 32
1, 213986, Note_off_c, 0, 46, 52
1, 214067, Control_c, 0, 67, 16
1, 214084, Note_on_c, 0, 70, 52
1, 214096, Note_on_c, 0, 54, 35
1, 214168, Note_off_c, 0, 70, 62
1, 214185, Note_off_c, 0, 54, 48
1, 214227, Note_on_c, 0, 46, 40
1, 214267, Control_c, 0, 64, 115
1, 214317, Note_off_c, 0, 46, 51
1, 214338, Note_on_c, 0, 54, 50
1, 214429, Note_off_c, 0, 54, 43
1, 214505, Control_c, 0, 67, 18
1, 214564, Control_c, 0, 64, 113
1, 214574, Note_on_c, 0, 63, 43
1, 214579, Control_c, 0, 64, 108
1, 214594, Control_c, 0, 64, 101
1, 214609, Control_c, 0, 64, 94
1, 214624, Control_c, 0, 64, 88
1, 214638, Control_c, 0, 64, 81
1, 214653, Control_c, 0, 64, 75
1, 214655, Note_on_c, 0, 70, 48
1, 214668, Control_c, 0, 64, 72
1, 214698, Control_c, 0, 64, 74
1, 214713, Control_c, 0, 64, 78
1, 214728, Control_c, 0, 64, 83
1, 214731, Note_off_c, 0, 63, 52
1, 214743, Control_c, 0, 64, 88
1, 214758, Control_c, 0, 64, 91
1, 214773, Control_c, 0, 64, 93
1, 214788, Control_c, 0, 64, 94
1, 214802, Control_c, 0, 64, 96
1, 214832, Control_c, 0, 64, 98
1, 214894, Note_on_c, 0, 54, 43
1, 214906, Control_c, 0, 64, 100
1, 214934, Note_off_c, 0, 54, 50
1, 215076, Poly_aftertouch_c, 0, 46, 127
1, 215083, Note_on_c, 0, 54, 53
1, 215098, Poly_aftertouch_c, 0, 46, 0
1, 215124, Note_off_c, 0, 54, 60
1, 215166, Note_off_c, 0, 70, 57
1, 215214, Note_on_c, 0, 46, 49
1, 215241, Note_off_c, 0, 46, 61
1, 215246, Note_on_c, 0, 39, 64
1, 215269, Control_c, 0, 67, 20
1, 215357, Note_off_c, 0, 39, 55
1, 215358, Control_c, 0, 64, 103
1, 215374, Note_on_c, 0, 46, 35
1, 215446, Control_c, 0, 64, 105
1, 215460, Note_off_c, 0, 46, 57
1, 215481, Note_off_c, 0, 75, 59
1, 215500, Note_on_c, 0, 54, 43
1, 215527, Note_on_c, 0, 74, 66
1, 215533, Note_on_c, 0, 70, 61
1, 215547, Note_off_c, 0, 54, 55
1, 215557, Note_off_c, 0, 70, 65
1, 215591, Note_off_c, 0, 74, 61
1, 215615, Note_on_c, 0, 46, 39
1, 215655, Control_c, 0, 64, 107
1, 215670, Control_c, 0, 67, 18
1, 215676, Note_off_c, 0, 46, 57
1, 215692, Note_on_c, 0, 54, 55
1, 215721, Control_c, 0, 64, 110
1, 215791, Note_off_c, 0, 54, 58
1, 215840, Control_c, 0, 64, 107
1, 215849, Note_on_c, 0, 63, 43
1, 215852, Note_on_c, 0, 75, 79
1, 215855, Control_c, 0, 64, 102
1, 215867, Note_on_c, 0, 73, 68
1, 215870, Control_c, 0, 64, 93
1, 215872, Note_on_c, 0, 69, 58
1, 215884, Control_c, 0, 64, 83
1, 215884, Control_c, 0, 67, 16
1, 215899, Control_c, 0, 64, 73
1, 215914, Control_c, 0, 64, 66
1, 215917, Note_off_c, 0, 63, 54
1, 215944, Control_c, 0, 64, 70
1, 215959, Control_c, 0, 64, 75
1, 215974, Control_c, 0, 64, 83
1, 215983, Note_off_c, 0, 69, 59
1, 215986, Note_on_c, 0, 54, 51
1, 215988, Control_c, 0, 64, 92
1, 216002, Control_c, 0, 64, 97
1, 216017, Control_c, 0, 64, 99
1, 216028, Note_off_c, 0, 73, 60
1, 216059, Note_off_c, 0, 54, 58
1, 216084, Note_on_c, 0, 46, 52
1, 216091, Control_c, 0, 64, 101
1, 216120, Control_c, 0, 64, 103
1, 216152, Note_off_c, 0, 46, 41
1, 216180, Control_c, 0, 67, 14
1, 216251, Note_on_c, 0, 72, 71
1, 216256, Note_on_c, 0, 68, 65
1, 216272, Note_on_c, 0, 54, 41
1, 216311, Note_off_c, 0, 72, 59
1, 216311, Note_off_c, 0, 68, 58
1, 216388, Control_c, 0, 64, 105
1, 216397, Note_on_c, 0, 46, 54
1, 216402, Note_off_c, 0, 54, 32
1, 216534, Note_on_c, 0, 68, 57
1, 216536, Note_on_c, 0, 72, 68
1, 216561, Note_off_c, 0, 75, 60
1, 216627, Note_off_c, 0, 68, 58
1, 216633, Note_on_c, 0, 73, 76
1, 216633, Note_off_c, 0, 72, 59
1, 216722, Control_c, 0, 64, 101
1, 216731, Note_on_c, 0, 39, 54
1, 216737, Control_c, 0, 64, 98
1, 216751, Control_c, 0, 64, 94
1, 216760, Note_off_c, 0, 46, 31
1, 216766, Control_c, 0, 64, 90
1, 216781, Control_c, 0, 64, 86
1, 216796, Control_c, 0, 64, 82
1, 216811, Control_c, 0, 64, 78
1, 216825, Note_off_c, 0, 73, 59
1, 216825, Control_c, 0, 64, 74
1, 216840, Note_on_c, 0, 75, 68
1, 216840, Control_c, 0, 64, 70
1, 216841, Note_on_c, 0, 72, 58
1, 216853, Note_on_c, 0, 68, 44
1, 216855, Control_c, 0, 64, 67
1, 216869, Control_c, 0, 64, 64
1, 216884, Control_c, 0, 64, 0
1, 216958, Control_c, 0, 64, 65
1, 216973, Control_c, 0, 64, 71
1, 216987, Control_c, 0, 64, 78
1, 216995, Note_off_c, 0, 39, 36
1, 217002, Control_c, 0, 64, 88
1, 217017, Control_c, 0, 64, 97
1, 217032, Control_c, 0, 64, 101
1, 217047, Control_c, 0, 64, 103
1, 217073, Note_off_c, 0, 72, 57
1, 217077, Control_c, 0, 64, 105
1, 217157, Note_off_c, 0, 68, 52
1, 217187, Note_on_c, 0, 46, 38
1, 217271, Note_off_c, 0, 46, 55
1, 217383, Note_on_c, 0, 67, 42
1, 217383, Note_on_c, 0, 71, 49
1, 217387, Note_on_c, 0, 55, 37
1, 217455, Note_off_c, 0, 71, 62
1, 217481, Note_off_c, 0, 55, 58
1, 217495, Note_off_c, 0, 67, 34
1, 217509, Note_on_c, 0, 46, 49
1, 217613, Note_off_c, 0, 46, 54
1, 217631, Note_on_c, 0, 55, 48
1, 217752, Control_c, 0, 64, 103
1, 217766, Control_c, 0, 64, 101
1, 217810, Control_c, 0, 64, 99
1, 217840, Control_c, 0, 64, 94
1, 217855, Control_c, 0, 64, 91
1, 217865, Note_on_c, 0, 63, 48
1, 217870, Control_c, 0, 64, 86
1, 217885, Control_c, 0, 64, 82
1, 217900, Control_c, 0, 64, 78
1, 217903, Note_off_c, 0, 55, 37
1, 217914, Control_c, 0, 64, 74
1, 217929, Control_c, 0, 64, 69
1, 217944, Note_on_c, 0, 71, 48
1, 217945, Control_c, 0, 64, 66
1, 217968, Control_c, 0, 64, 66
1, 217981, Note_on_c, 0, 67, 34
1, 217983, Control_c, 0, 64, 66
1, 217997, Control_c, 0, 64, 68
1, 218012, Control_c, 0, 64, 71
1, 218027, Control_c, 0, 64, 75
1, 218041, Control_c, 0, 64, 82
1, 218056, Control_c, 0, 64, 89
1, 218071, Control_c, 0, 64, 93
1, 218086, Control_c, 0, 64, 95
1, 218087, Note_off_c, 0, 63, 49
1, 218130, Control_c, 0, 64, 97
1, 218236, Note_on_c, 0, 55, 12
1, 218284, Note_off_c, 0, 55, 50
1, 218302, Note_off_c, 0, 71, 59
1, 218307, Note_off_c, 0, 67, 49
1, 218320, Note_on_c, 0, 46, 40
1, 218371, Note_off_c, 0, 46, 46
1, 218421, Note_on_c, 0, 55, 43
1, 218457, Note_off_c, 0, 55, 59
1, 218513, Note_on_c, 0, 46, 47
1, 218599, Note_off_c, 0, 46, 56
1, 218621, Note_on_c, 0, 39, 57
1, 218781, Note_off_c, 0, 39, 35
1, 218883, Note_on_c, 0, 46, 38
1, 218943, Note_off_c, 0, 46, 51
1, 218973, Note_on_c, 0, 70, 62
1, 218975, Note_on_c, 0, 66, 49
1, 219026, Note_off_c, 0, 75, 60
1, 219028, Note_on_c, 0, 56, 39
1, 219059, Note_off_c, 0, 70, 61
1, 219087, Control_c, 0, 64, 99
1, 219090, Note_off_c, 0, 66, 38
1, 219091, Note_off_c, 0, 56, 51
1, 219146, Control_c, 0, 64, 102
1, 219148, Note_on_c, 0, 46, 38
1, 219205, Control_c, 0, 64, 104
1, 219212, Note_off_c, 0, 46, 53
1, 219276, Note_on_c, 0, 56, 36
1, 219354, Control_c, 0, 67, 16
1, 219369, Control_c, 0, 64, 101
1, 219383, Control_c, 0, 64, 98
1, 219398, Control_c, 0, 64, 91
1, 219413, Control_c, 0, 64, 84
1, 219414, Note_on_c, 0, 69, 47
1, 219426, Note_on_c, 0, 75, 57
1, 219428, Control_c, 0, 64, 75
1, 219432, Note_on_c, 0, 65, 39
1, 219443, Note_on_c, 0, 63, 34
1, 219443, Control_c, 0, 64, 68
1, 219444, Note_off_c, 0, 56, 36
1, 219465, Control_c, 0, 64, 59
1, 219479, Control_c, 0, 64, 34
1, 219494, Control_c, 0, 64, 56
1, 219509, Control_c, 0, 64, 65
1, 219524, Control_c, 0, 64, 68
1, 219540, Control_c, 0, 64, 73
1, 219555, Control_c, 0, 64, 79
1, 219569, Note_off_c, 0, 63, 54
1, 219569, Control_c, 0, 64, 86
1, 219584, Control_c, 0, 64, 91
1, 219599, Control_c, 0, 64, 94
1, 219614, Control_c, 0, 64, 95
1, 219626, Note_off_c, 0, 69, 59
1, 219641, Note_on_c, 0, 56, 34
1, 219643, Control_c, 0, 64, 98
1, 219643, Control_c, 0, 67, 18
1, 219668, Note_off_c, 0, 65, 57
1, 219673, Control_c, 0, 64, 100
1, 219711, Note_off_c, 0, 56, 48
1, 219810, Note_on_c, 0, 46, 30
1, 219866, Note_off_c, 0, 46, 45
1, 219993, Note_on_c, 0, 68, 50
1, 220006, Note_on_c, 0, 64, 38
1, 220030, Note_on_c, 0, 56, 28
1, 220079, Note_off_c, 0, 64, 50
1, 220085, Note_off_c, 0, 68, 57
1, 220096, Note_off_c, 0, 56, 40
1, 220305, Note_on_c, 0, 46, 36
1, 220391, Note_off_c, 0, 46, 49
1, 220504, Note_off_c, 0, 75, 36
1, 220787, Note_on_c, 0, 68, 39
1, 220793, Note_on_c, 0, 64, 28
1, 220862, Note_off_c, 0, 64, 39
1, 220933, Note_off_c, 0, 68, 49
1, 220958, Note_on_c, 0, 70, 43
1, 221131, Note_off_c, 0, 70, 43
1, 221200, Control_c, 0, 64, 98
1, 221229, Control_c, 0, 64, 96
1, 221245, Control_c, 0, 64, 95
1, 221259, Control_c, 0, 64, 93
1, 221263, Note_on_c, 0, 68, 45
1, 221269, Note_on_c, 0, 27, 35
1, 221274, Control_c, 0, 64, 91
1, 221280, Note_on_c, 0, 64, 41
1, 221283, Note_on_c, 0, 39, 27
1, 221289, Control_c, 0, 64, 89
1, 221295, Note_on_c, 0, 75, 50
1, 221304, Control_c, 0, 64, 87
1, 221319, Control_c, 0, 64, 84
1, 221334, Control_c, 0, 64, 80
1, 221348, Control_c, 0, 64, 75
1, 221363, Control_c, 0, 64, 70
1, 221378, Control_c, 0, 64, 67
1, 221393, Control_c, 0, 64, 65
1, 221453, Control_c, 0, 64, 65
1, 221482, Control_c, 0, 64, 67
1, 221497, Control_c, 0, 64, 69
1, 221512, Control_c, 0, 64, 72
1, 221524, Note_off_c, 0, 27, 55
1, 221527, Control_c, 0, 64, 79
1, 221541, Control_c, 0, 64, 87
1, 221545, Note_off_c, 0, 39, 38
1, 221556, Control_c, 0, 64, 93
1, 221571, Control_c, 0, 64, 98
1, 221585, Control_c, 0, 64, 100
1, 221615, Control_c, 0, 64, 103
1, 221630, Control_c, 0, 64, 106
1, 221645, Control_c, 0, 64, 108
1, 221684, Note_off_c, 0, 64, 63
1, 221727, Control_c, 0, 64, 110
1, 221742, Note_off_c, 0, 68, 52
1, 222033, Note_on_c, 0, 46, 36
1, 222287, Note_on_c, 0, 67, 40
1, 222290, Note_on_c, 0, 55, 25
1, 222293, Note_off_c, 0, 46, 33
1, 222304, Note_on_c, 0, 63, 27
1, 222437, Note_off_c, 0, 67, 52
1, 222446, Note_on_c, 0, 46, 32
1, 222457, Note_off_c, 0, 55, 35
1, 222463, Note_off_c, 0, 63, 42
1, 222596, Note_on_c, 0, 55, 43
1, 222619, Note_off_c, 0, 46, 38
1, 222733, Note_off_c, 0, 55, 35
1, 222798, Note_on_c, 0, 67, 36
1, 222818, Note_on_c, 0, 63, 35
1, 223059, Note_on_c, 0, 55, 23
1, 223128, Note_off_c, 0, 55, 37
1, 223172, Note_on_c, 0, 46, 37
1, 223246, Note_off_c, 0, 46, 52
1, 223314, Note_on_c, 0, 55, 41
1, 223341, Control_c, 0, 67, 16
1, 223352, Note_off_c, 0, 55, 55
1, 223421, Note_on_c, 0, 46, 41
1, 223516, Note_off_c, 0, 46, 58
1, 223531, Note_on_c, 0, 39, 58
1, 223551, Note_off_c, 0, 63, 31
1, 223712, Note_off_c, 0, 39, 60
1, 223814, Note_on_c, 0, 46, 49
1, 223913, Note_off_c, 0, 46, 57
1, 223941, Note_on_c, 0, 55, 61
1, 224041, Note_off_c, 0, 55, 59
1, 224058, Note_on_c, 0, 46, 57
1, 224104, Control_c, 0, 67, 14
1, 224178, Control_c, 0, 67, 12
1, 224192, Note_on_c, 0, 55, 63
1, 224193, Note_off_c, 0, 46, 51
1, 224208, Control_c, 0, 67, 9
1, 224223, Control_c, 0, 67, 0
1, 224252, Control_c, 0, 64, 112
1, 224413, Note_on_c, 0, 63, 82
1, 224526, Note_off_c, 0, 55, 34
1, 224712, Note_on_c, 0, 55, 42
1, 224857, Note_on_c, 0, 46, 52
1, 224873, Note_off_c, 0, 55, 33
1, 224952, Note_off_c, 0, 46, 56
1, 224996, Note_on_c, 0, 55, 55
1, 225017, Control_c, 0, 64, 114
1, 225038, Note_off_c, 0, 67, 35
1, 225047, Control_c, 0, 64, 117
1, 225062, Control_c, 0, 64, 123
1, 225076, Note_off_c, 0, 55, 50
1, 225076, Control_c, 0, 64, 127
1, 225139, Note_on_c, 0, 46, 50
1, 225279, Note_on_c, 0, 39, 67
1, 225280, Note_off_c, 0, 46, 61
1, 225483, Note_off_c, 0, 39, 62
1, 225540, Note_on_c, 0, 40, 77
1, 225618, Control_c, 0, 64, 119
1, 225632, Control_c, 0, 64, 104
1, 225647, Control_c, 0, 64, 94
1, 225662, Control_c, 0, 64, 85
1, 225664, Note_on_c, 0, 70, 80
1, 225677, Control_c, 0, 64, 77
1, 225692, Control_c, 0, 64, 68
1, 225707, Control_c, 0, 64, 63
1, 225716, Note_off_c, 0, 75, 62
1, 225721, Control_c, 0, 64, 0
1, 225781, Control_c, 0, 64, 59
1, 225796, Control_c, 0, 64, 66
1, 225811, Control_c, 0, 64, 73
1, 225825, Control_c, 0, 64, 83
1, 225840, Control_c, 0, 64, 99
1, 225855, Control_c, 0, 64, 122
1, 225870, Control_c, 0, 64, 127
1, 225891, Note_off_c, 0, 40, 60
1, 226188, Note_on_c, 0, 46, 42
1, 226310, Note_off_c, 0, 63, 54
1, 226321, Note_off_c, 0, 46, 57
1, 226344, Note_on_c, 0, 56, 43
1, 226446, Note_on_c, 0, 46, 61
1, 226462, Note_off_c, 0, 56, 61
1, 226565, Note_off_c, 0, 46, 60
1, 226591, Note_on_c, 0, 56, 55
1, 226650, Note_on_c, 0, 63, 48
1, 226736, Note_off_c, 0, 56, 59
1, 226892, Note_on_c, 0, 56, 50
1, 226978, Note_off_c, 0, 56, 59
1, 227022, Note_on_c, 0, 46, 47
1, 227086, Note_off_c, 0, 46, 55
1, 227118, Note_on_c, 0, 56, 43
1, 227192, Note_off_c, 0, 56, 59
1, 227209, Poly_aftertouch_c, 0, 66, 127
1, 227223, Note_on_c, 0, 46, 43
1, 227343, Note_on_c, 0, 40, 49
1, 227359, Note_off_c, 0, 46, 50
1, 227367, Control_c, 0, 64, 117
1, 227382, Control_c, 0, 64, 106
1, 227396, Control_c, 0, 64, 99
1, 227411, Control_c, 0, 64, 94
1, 227426, Control_c, 0, 64, 91
1, 227440, Control_c, 0, 64, 88
1, 227455, Control_c, 0, 64, 86
1, 227470, Control_c, 0, 64, 84
1, 227485, Control_c, 0, 64, 81
1, 227500, Control_c, 0, 64, 79
1, 227515, Control_c, 0, 64, 77
1, 227531, Control_c, 0, 64, 76
1, 227540, Note_on_c, 0, 61, 69
1, 227545, Control_c, 0, 64, 76
1, 227560, Control_c, 0, 64, 75
1, 227575, Control_c, 0, 64, 74
1, 227590, Control_c, 0, 64, 72
1, 227605, Note_off_c, 0, 40, 32
1, 227605, Control_c, 0, 64, 70
1, 227619, Control_c, 0, 64, 67
1, 227634, Control_c, 0, 64, 65
1, 227649, Control_c, 0, 64, 64
1, 227679, Control_c, 0, 64, 65
1, 227701, Control_c, 0, 64, 68
1, 227716, Control_c, 0, 64, 74
1, 227731, Control_c, 0, 64, 82
1, 227745, Control_c, 0, 64, 93
1, 227760, Control_c, 0, 64, 105
1, 227775, Control_c, 0, 64, 112
1, 227790, Control_c, 0, 64, 115
1, 227805, Control_c, 0, 64, 120
1, 227820, Control_c, 0, 64, 127
1, 227943, Note_off_c, 0, 70, 34
1, 227988, Note_on_c, 0, 46, 36
1, 228041, Poly_aftertouch_c, 0, 66, 0
1, 228091, Note_off_c, 0, 61, 28
1, 228163, Note_off_c, 0, 46, 38
1, 228260, Poly_aftertouch_c, 0, 56, 127
1, 228264, Note_off_c, 0, 63, 32
1, 228312, Poly_aftertouch_c, 0, 56, 0
1, 228353, Note_on_c, 0, 46, 38
1, 228368, Control_c, 0, 67, 8
1, 228428, Control_c, 0, 67, 10
1, 228453, Note_off_c, 0, 46, 52
1, 228521, Note_on_c, 0, 56, 35
1, 228781, Note_on_c, 0, 61, 35
1, 228809, Note_off_c, 0, 56, 29
1, 228962, Note_on_c, 0, 70, 48
1, 228968, Note_off_c, 0, 61, 37
1, 229042, Control_c, 0, 67, 12
1, 229255, Note_on_c, 0, 56, 21
1, 229309, Note_off_c, 0, 56, 55
1, 229428, Note_on_c, 0, 46, 18
1, 229504, Note_off_c, 0, 46, 43
1, 229613, Note_on_c, 0, 56, 30
1, 229631, Note_off_c, 0, 70, 33
1, 229677, Note_off_c, 0, 56, 58
1, 229796, Note_on_c, 0, 63, 43
1, 229975, Note_on_c, 0, 46, 37
1, 230030, Note_off_c, 0, 46, 54
1, 230099, Note_on_c, 0, 55, 47
1, 230100, Note_off_c, 0, 63, 56
1, 230249, Note_on_c, 0, 63, 51
1, 230277, Note_off_c, 0, 55, 49
1, 230500, Note_on_c, 0, 27, 42
1, 230503, Note_on_c, 0, 39, 30
1, 230539, Control_c, 0, 64, 120
1, 230554, Control_c, 0, 64, 110
1, 230569, Control_c, 0, 64, 103
1, 230584, Control_c, 0, 64, 97
1, 230599, Control_c, 0, 64, 91
1, 230613, Control_c, 0, 64, 84
1, 230628, Control_c, 0, 64, 78
1, 230643, Control_c, 0, 64, 72
1, 230645, Note_on_c, 0, 70, 48
1, 230658, Control_c, 0, 64, 68
1, 230673, Control_c, 0, 64, 65
1, 230695, Control_c, 0, 64, 64
1, 230756, Control_c, 0, 64, 65
1, 230770, Control_c, 0, 64, 69
1, 230785, Control_c, 0, 64, 75
1, 230796, Note_off_c, 0, 27, 54
1, 230800, Control_c, 0, 64, 86
1, 230815, Control_c, 0, 64, 103
1, 230830, Control_c, 0, 64, 122
1, 230842, Note_off_c, 0, 39, 52
1, 230844, Control_c, 0, 64, 127
1, 231177, Note_on_c, 0, 46, 34
1, 231227, Note_off_c, 0, 63, 52
1, 231407, Note_off_c, 0, 46, 26
1, 231411, Note_on_c, 0, 55, 31
1, 231512, Note_off_c, 0, 55, 34
1, 231546, Note_on_c, 0, 46, 41
1, 231617, Note_off_c, 0, 46, 47
1, 231665, Note_on_c, 0, 55, 44
1, 231732, Note_off_c, 0, 55, 53
1, 231789, Note_on_c, 0, 63, 56
1, 231861, Note_off_c, 0, 70, 37
1, 231936, Note_on_c, 0, 55, 49
1, 231999, Note_off_c, 0, 55, 56
1, 232038, Note_on_c, 0, 46, 54
1, 232098, Note_off_c, 0, 46, 59
1, 232134, Note_on_c, 0, 55, 54
1, 232163, Note_off_c, 0, 55, 55
1, 232224, Note_on_c, 0, 46, 59
1, 232328, Note_off_c, 0, 46, 61
1, 232342, Note_on_c, 0, 39, 61
1, 232387, Control_c, 0, 64, 122
1, 232402, Control_c, 0, 64, 110
1, 232417, Control_c, 0, 64, 102
1, 232431, Control_c, 0, 64, 97
1, 232446, Control_c, 0, 64, 93
1, 232461, Control_c, 0, 64, 89
1, 232476, Note_on_c, 0, 54, 71
1, 232476, Control_c, 0, 64, 86
1, 232491, Control_c, 0, 64, 83
1, 232506, Control_c, 0, 64, 78
1, 232521, Control_c, 0, 64, 72
1, 232536, Control_c, 0, 64, 68
1, 232550, Control_c, 0, 64, 65
1, 232565, Control_c, 0, 64, 66
1, 232580, Control_c, 0, 64, 67
1, 232586, Note_off_c, 0, 39, 51
1, 232595, Control_c, 0, 64, 72
1, 232610, Control_c, 0, 64, 79
1, 232624, Control_c, 0, 64, 90
1, 232624, Control_c, 0, 67, 14
1, 232639, Control_c, 0, 64, 105
1, 232654, Control_c, 0, 64, 122
1, 232668, Control_c, 0, 64, 127
1, 232739, Note_off_c, 0, 54, 61
1, 232801, Note_on_c, 0, 46, 54
1, 232856, Note_off_c, 0, 63, 60
1, 232956, Note_on_c, 0, 54, 60
1, 232981, Note_off_c, 0, 46, 48
1, 233066, Note_off_c, 0, 54, 56
1, 233078, Note_on_c, 0, 63, 83
1, 233130, Note_on_c, 0, 46, 52
1, 233180, Note_off_c, 0, 63, 60
1, 233269, Note_on_c, 0, 54, 75
1, 233272, Note_off_c, 0, 46, 61
1, 233284, Control_c, 0, 67, 11
1, 233329, Control_c, 0, 67, 9
1, 233332, Note_off_c, 0, 54, 61
1, 233461, Note_on_c, 0, 63, 91
1, 233590, Note_off_c, 0, 63, 57
1, 233639, Control_c, 0, 67, 0
1, 233669, Note_on_c, 0, 54, 70
1, 233779, Note_off_c, 0, 54, 59
1, 233779, Note_on_c, 0, 63, 97
1, 233860, Note_off_c, 0, 63, 60
1, 233885, Note_on_c, 0, 46, 80
1, 234019, Note_off_c, 0, 46, 61
1, 234053, Note_on_c, 0, 54, 84
1, 234165, Note_off_c, 0, 54, 59
1, 234190, Note_on_c, 0, 63, 97
1, 234247, Note_off_c, 0, 63, 62
1, 234323, Note_on_c, 0, 46, 82
1, 234391, Note_off_c, 0, 46, 61
1, 234587, Note_on_c, 0, 39, 98
1, 234618, Control_c, 0, 64, 109
1, 234633, Control_c, 0, 64, 94
1, 234647, Control_c, 0, 64, 90
1, 234662, Control_c, 0, 64, 94
1, 234677, Control_c, 0, 64, 108
1, 234692, Control_c, 0, 64, 127
1, 234707, Note_off_c, 0, 39, 62
1, 235041, Note_on_c, 0, 25, 96
1, 235077, Control_c, 0, 64, 88
1, 235092, Control_c, 0, 64, 65
1, 235107, Control_c, 0, 64, 0
1, 235166, Control_c, 0, 64, 67
1, 235188, Control_c, 0, 64, 79
1, 235203, Control_c, 0, 64, 91
1, 235218, Control_c, 0, 64, 109
1, 235233, Control_c, 0, 64, 127
1, 235258, Note_off_c, 0, 25, 0
1, 235276, Note_on_c, 0, 25, 51
1, 235371, Note_off_c, 0, 25, 0
1, 235408, Poly_aftertouch_c, 0, 25, 127
1, 235488, Poly_aftertouch_c, 0, 25, 0
1, 235499, Note_on_c, 0, 37, 93
1, 235550, Note_off_c, 0, 37, 63
1, 235773, Note_on_c, 0, 44, 88
1, 236007, Note_on_c, 0, 53, 92
1, 236143, Note_off_c, 0, 53, 61
1, 236161, Note_off_c, 0, 44, 59
1, 236227, Note_on_c, 0, 59, 81
1, 236313, Note_off_c, 0, 59, 54
1, 236465, Note_on_c, 0, 63, 86
1, 236541, Note_off_c, 0, 63, 61
1, 236776, Note_on_c, 0, 70, 76
1, 236840, Note_off_c, 0, 70, 61
1, 237140, Note_on_c, 0, 75, 50
1, 237194, Note_off_c, 0, 75, 56
1, 237771, Note_on_c, 0, 82, 46
1, 237831, Note_off_c, 0, 82, 49
1, 238665, Note_on_c, 0, 44, 29
1, 238971, Note_on_c, 0, 53, 38
1, 238979, Note_off_c, 0, 44, 35
1, 239150, Note_off_c, 0, 53, 52
1, 239216, Note_on_c, 0, 44, 29
1, 239291, Note_off_c, 0, 44, 52
1, 239352, Note_on_c, 0, 53, 33
1, 239568, Note_off_c, 0, 53, 34
1, 239595, Note_on_c, 0, 59, 54
1, 240082, Note_on_c, 0, 53, 8
1, 240137, Note_off_c, 0, 53, 48
1, 240185, Note_on_c, 0, 44, 33
1, 240242, Note_off_c, 0, 44, 58
1, 240306, Note_on_c, 0, 53, 33
1, 240343, Note_off_c, 0, 53, 47
1, 240485, Poly_aftertouch_c, 0, 44, 127
1, 240525, Poly_aftertouch_c, 0, 44, 0
1, 240548, Note_on_c, 0, 37, 47
1, 240690, Note_off_c, 0, 37, 47
1, 240709, Note_on_c, 0, 54, 59
1, 241097, Note_off_c, 0, 54, 58
1, 241100, Note_on_c, 0, 44, 33
1, 241156, Note_off_c, 0, 59, 60
1, 241252, Note_on_c, 0, 54, 52
1, 241255, Note_off_c, 0, 44, 56
1, 241386, Note_off_c, 0, 54, 53
1, 241388, Note_on_c, 0, 44, 52
1, 241519, Note_off_c, 0, 44, 61
1, 241535, Note_on_c, 0, 54, 54
1, 241774, Note_on_c, 0, 59, 37
1, 241827, Note_off_c, 0, 54, 27
1, 241873, Note_on_c, 0, 62, 67
1, 241973, Note_off_c, 0, 59, 34
1, 242218, Note_on_c, 0, 54, 40
1, 242372, Note_off_c, 0, 54, 34
1, 242400, Note_on_c, 0, 70, 60
1, 242414, Note_off_c, 0, 62, 60
1, 242586, Note_on_c, 0, 44, 35
1, 242697, Note_off_c, 0, 44, 45
1, 242869, Note_on_c, 0, 54, 39
1, 242964, Note_off_c, 0, 54, 49
1, 243386, Note_on_c, 0, 44, 11
1, 243536, Note_off_c, 0, 44, 50
1, 243696, Note_off_c, 0, 70, 56
1, 244242, Note_on_c, 0, 63, 36
1, 244953, Control_c, 0, 64, 117
1, 244968, Control_c, 0, 64, 107
1, 244982, Control_c, 0, 64, 100
1, 244997, Control_c, 0, 64, 94
1, 245012, Control_c, 0, 64, 88
1, 245014, Note_on_c, 0, 55, 23
1, 245027, Control_c, 0, 64, 81
1, 245042, Control_c, 0, 64, 73
1, 245056, Control_c, 0, 64, 67
1, 245071, Control_c, 0, 64, 64
1, 245086, Control_c, 0, 64, 64
1, 245116, Control_c, 0, 64, 64
1, 245146, Control_c, 0, 64, 65
1, 245161, Control_c, 0, 64, 67
1, 245170, Note_off_c, 0, 63, 35
1, 245176, Control_c, 0, 64, 71
1, 245191, Control_c, 0, 64, 76
1, 245205, Control_c, 0, 64, 83
1, 245220, Control_c, 0, 64, 88
1, 245235, Control_c, 0, 64, 90
1, 245265, Control_c, 0, 64, 90
1, 245279, Control_c, 0, 64, 89
1, 245294, Control_c, 0, 64, 88
1, 245309, Control_c, 0, 64, 86
1, 245324, Control_c, 0, 64, 83
1, 245339, Control_c, 0, 64, 80
1, 245354, Control_c, 0, 64, 78
1, 245369, Control_c, 0, 64, 76
1, 245383, Control_c, 0, 64, 75
1, 245398, Control_c, 0, 64, 76
1, 245413, Control_c, 0, 64, 77
1, 245424, Note_on_c, 0, 58, 37
1, 245428, Control_c, 0, 64, 80
1, 245443, Control_c, 0, 64, 84
1, 245458, Control_c, 0, 64, 87
1, 245472, Control_c, 0, 64, 90
1, 245487, Control_c, 0, 64, 91
1, 245502, Control_c, 0, 64, 93
1, 245516, Control_c, 0, 64, 95
1, 245531, Control_c, 0, 64, 97
1, 245546, Control_c, 0, 64, 100
1, 245561, Control_c, 0, 64, 103
1, 245576, Control_c, 0, 64, 106
1, 245620, Control_c, 0, 64, 109
1, 245635, Control_c, 0, 64, 111
1, 245649, Control_c, 0, 64, 113
1, 245672, Control_c, 0, 64, 115
1, 245691, Note_on_c, 0, 63, 45
1, 245717, Control_c, 0, 64, 117
1, 245731, Control_c, 0, 64, 119
1, 245746, Control_c, 0, 64, 127
1, 245750, Note_off_c, 0, 55, 40
1, 246163, Note_on_c, 0, 27, 22
1, 246173, Note_on_c, 0, 39, 10
1, 246228, Note_on_c, 0, 70, 39
1, 246337, Note_off_c, 0, 39, 39
1, 246354, Note_off_c, 0, 27, 41
1, 247071, Note_on_c, 0, 46, 19
1, 247072, Note_off_c, 0, 58, 32
1, 247124, Note_off_c, 0, 63, 31
1, 247340, Note_on_c, 0, 55, 12
1, 247351, Note_off_c, 0, 46, 36
1, 247470, Note_off_c, 0, 55, 40
1, 247509, Note_on_c, 0, 46, 14
1, 247603, Note_off_c, 0, 46, 34
1, 247670, Poly_aftertouch_c, 0, 55, 127
1, 247855, Note_on_c, 0, 63, 25
1, 247918, Poly_aftertouch_c, 0, 55, 0
1, 247920, Note_off_c, 0, 63, 42
1, 248113, Note_on_c, 0, 55, 21
1, 248156, Note_off_c, 0, 55, 50
1, 248222, Note_on_c, 0, 46, 32
1, 248272, Note_off_c, 0, 46, 53
1, 248449, Poly_aftertouch_c, 0, 55, 0
1, 248519, Note_on_c, 0, 46, 41
1, 248604, Note_off_c, 0, 46, 46
1, 248686, Note_on_c, 0, 39, 33
1, 248883, Note_off_c, 0, 39, 32
1, 249211, Note_on_c, 0, 46, 32
1, 249289, Note_off_c, 0, 46, 54
1, 249401, Note_on_c, 0, 55, 30
1, 249470, Note_off_c, 0, 55, 54
1, 249476, Control_c, 0, 67, 8
1, 249554, Note_on_c, 0, 46, 35
1, 249613, Note_off_c, 0, 46, 42
1, 249727, Note_on_c, 0, 55, 32
1, 249771, Control_c, 0, 67, 10
1, 249853, Note_off_c, 0, 55, 36
1, 249968, Note_on_c, 0, 63, 45
1, 250082, Note_off_c, 0, 63, 56
1, 250083, Control_c, 0, 67, 12
1, 250224, Control_c, 0, 67, 14
1, 250227, Note_on_c, 0, 55, 38
1, 250341, Note_off_c, 0, 55, 38
1, 250419, Note_on_c, 0, 46, 42
1, 250517, Note_off_c, 0, 46, 56
1, 250734, Note_on_c, 0, 55, 41
1, 250794, Note_off_c, 0, 55, 58
1, 250861, Control_c, 0, 67, 12
1, 251030, Note_off_c, 0, 70, 60
1, 251153, Note_on_c, 0, 39, 56
1, 251262, Note_off_c, 0, 39, 58
1, 251612, Note_on_c, 0, 46, 62
1, 251746, Note_off_c, 0, 46, 60
1, 252217, Note_on_c, 0, 51, 60
1, 252439, Control_c, 0, 67, 14
1, 252469, Control_c, 0, 67, 17
1, 252484, Control_c, 0, 67, 19
1, 252499, Control_c, 0, 67, 21
1, 252514, Control_c, 0, 67, 23
1, 252529, Control_c, 0, 67, 28
1, 252544, Control_c, 0, 67, 35
1, 252550, Note_off_c, 0, 51, 49
1, 252559, Control_c, 0, 67, 47
1, 252573, Control_c, 0, 67, 60
1, 252588, Control_c, 0, 67, 73
1, 252603, Control_c, 0, 67, 86
1, 252618, Control_c, 0, 67, 99
1, 252632, Control_c, 0, 67, 112
1, 252647, Control_c, 0, 67, 123
1, 252662, Control_c, 0, 67, 127
1, 253280, Note_on_c, 0, 46, 33
1, 253492, Note_off_c, 0, 46, 52
1, 253546, Note_on_c, 0, 55, 25
1, 253705, Note_off_c, 0, 55, 37
1, 253724, Note_on_c, 0, 46, 36
1, 253802, Note_off_c, 0, 46, 54
1, 253870, Note_on_c, 0, 55, 29
1, 254016, Note_off_c, 0, 55, 41
1, 254112, Note_on_c, 0, 63, 37
1, 254242, Note_off_c, 0, 63, 60
1, 254353, Note_on_c, 0, 55, 25
1, 254455, Note_off_c, 0, 55, 34
1, 254503, Note_on_c, 0, 46, 38
1, 254607, Note_off_c, 0, 46, 44
1, 254720, Note_on_c, 0, 55, 26
1, 254791, Note_off_c, 0, 55, 41
1, 254940, Note_on_c, 0, 46, 32
1, 255115, Note_off_c, 0, 46, 32
1, 255191, Note_on_c, 0, 39, 34
1, 255600, Note_off_c, 0, 39, 59
1, 256233, Note_on_c, 0, 46, 31
1, 256389, Note_off_c, 0, 46, 51
1, 256651, Note_on_c, 0, 55, 37
1, 256815, Note_off_c, 0, 55, 34
1, 257137, Note_on_c, 0, 46, 24
1, 257307, Note_off_c, 0, 46, 35
1, 257809, Note_on_c, 0, 55, 31
1, 257958, Note_off_c, 0, 55, 34
1, 258112, Control_c, 0, 67, 125
1, 258127, Control_c, 0, 67, 120
1, 258142, Control_c, 0, 67, 117
1, 258157, Control_c, 0, 67, 113
1, 258171, Control_c, 0, 67, 109
1, 258186, Control_c, 0, 67, 104
1, 258201, Control_c, 0, 67, 96
1, 258216, Control_c, 0, 67, 86
1, 258231, Control_c, 0, 67, 76
1, 258246, Control_c, 0, 67, 66
1, 258260, Control_c, 0, 67, 54
1, 258275, Control_c, 0, 67, 45
1, 258290, Control_c, 0, 67, 36
1, 258304, Control_c, 0, 67, 28
1, 258319, Control_c, 0, 67, 20
1, 258334, Control_c, 0, 67, 13
1, 258349, Control_c, 0, 67, 0
1, 259034, Note_on_c, 0, 63, 43
1, 265717, Control_c, 0, 64, 115
1, 265732, Control_c, 0, 64, 108
1, 265747, Control_c, 0, 64, 104
1, 265761, Control_c, 0, 64, 101
1, 265776, Control_c, 0, 64, 99
1, 265806, Control_c, 0, 64, 96
1, 265821, Control_c, 0, 64, 94
1, 265835, Control_c, 0, 64, 92
1, 265850, Control_c, 0, 64, 91
1, 265866, Control_c, 0, 64, 90
1, 265889, Control_c, 0, 64, 89
1, 265904, Control_c, 0, 64, 89
1, 265918, Control_c, 0, 64, 88
1, 265933, Control_c, 0, 64, 86
1, 265948, Control_c, 0, 64, 85
1, 265963, Control_c, 0, 64, 83
1, 265978, Control_c, 0, 64, 81
1, 265992, Control_c, 0, 64, 79
1, 266007, Control_c, 0, 64, 77
1, 266022, Control_c, 0, 64, 75
1, 266036, Control_c, 0, 64, 74
1, 266051, Control_c, 0, 64, 74
1, 266066, Control_c, 0, 64, 73
1, 266067, Note_off_c, 0, 63, 36
1, 266081, Control_c, 0, 64, 72
1, 266096, Control_c, 0, 64, 71
1, 266110, Control_c, 0, 64, 70
1, 266125, Control_c, 0, 64, 69
1, 266140, Control_c, 0, 64, 68
1, 266170, Control_c, 0, 64, 68
1, 266199, Control_c, 0, 64, 67
1, 266214, Control_c, 0, 64, 67
1, 266229, Control_c, 0, 64, 66
1, 266244, Control_c, 0, 64, 65
1, 266259, Control_c, 0, 64, 65
1, 266274, Control_c, 0, 64, 64
1, 266289, Control_c, 0, 64, 64
1, 266303, Control_c, 0, 64, 63
1, 266333, Control_c, 0, 64, 63
1, 266363, Control_c, 0, 64, 62
1, 266378, Control_c, 0, 64, 61
1, 266392, Control_c, 0, 64, 60
1, 266407, Control_c, 0, 64, 59
1, 266422, Control_c, 0, 64, 58
1, 266436, Control_c, 0, 64, 56
1, 266451, Control_c, 0, 64, 54
1, 266466, Control_c, 0, 64, 53
1, 266481, Control_c, 0, 64, 51
1, 266496, Control_c, 0, 64, 50
1, 268068, Control_c, 0, 64, 48
1, 268193, Control_c, 0, 64, 46
1, 268491, Control_c, 0, 64, 48
1, 268609, Control_c, 0, 64, 50
1, 268624, Control_c, 0, 64, 54
1, 268638, Control_c, 0, 64, 55
1, 268653, Control_c, 0, 64, 56
1, 268668, Control_c, 0, 64, 57
1, 268683, Control_c, 0, 64, 59
1, 268698, Control_c, 0, 64, 62
1, 268712, Control_c, 0, 64, 64
1, 268727, Control_c, 0, 64, 65
1, 268742, Control_c, 0, 64, 65
1, 268757, Control_c, 0, 64, 66
1, 268801, Control_c, 0, 64, 65
1, 268861, Control_c, 0, 64, 65
1, 268883, Control_c, 0, 64, 64
1, 268898, Control_c, 0, 64, 64
1, 268912, Control_c, 0, 64, 63
1, 268927, Control_c, 0, 64, 56
1, 268942, Control_c, 0, 64, 0
1, 268942, End_track
0, 0, End_of_file
