0, 0, Header, 0, 1, 384
1, 0, Start_track
1, 0, Title_t, "SonataHob.XVI/20-Dzmitry Ulasiuk"
1, 0, Text_t, "2009 Piano-e-Competition audition round"
1, 0, Text_t, "captured January 2009"
1, 0, Text_t, "http://www.piano-e-competition.com/"
1, 0, Text_t, "File processed for distribution by software from Zenph Studios, Inc., http://www.zenph.com"
1, 0, Instrument_name_t, "Yamaha Disklavier Pro Mark IV concert grand piano, model DCFIIISM4PRO"
1, 0, Sequencer_specific, 39, 67, 113, 0, 1, 0, 1, 0, 83, 111, 110, 97, 116, 97, 72, 111, 98, 46, 88, 86, 73, 47, 50, 48, 68, 122, 109, 105, 116, 114, 121, 32, 85, 108, 97, 115, 105, 117, 107, 32
1, 0, Sequencer_specific, 6, 67, 113, 0, 0, 0, 69
1, 0, System_exclusive, 21, 67, 113, 126, 21, 0, 2, 2, 0, 3, 14, 1, 4, 1, 13, 13, 10, 11, 9, 2, 7, 247
1, 0, Sequencer_specific, 5, 67, 123, 12, 2, 1
1, 0, Tempo, 512820
1, 0, Time_signature, 4, 2, 24, 8
1, 0, System_exclusive, 5, 126, 127, 9, 1, 247
1, 1, System_exclusive, 8, 67, 16, 76, 0, 0, 126, 0, 247
1, 2, System_exclusive, 8, 67, 16, 76, 8, 9, 7, 1, 247
1, 3, Control_c, 0, 0, 0
1, 3, Control_c, 1, 0, 0
1, 3, Control_c, 2, 0, 0
1, 3, Control_c, 3, 0, 0
1, 3, Control_c, 4, 0, 0
1, 3, Control_c, 5, 0, 0
1, 3, Control_c, 6, 0, 0
1, 3, Control_c, 7, 0, 0
1, 3, Control_c, 8, 0, 0
1, 3, Control_c, 9, 0, 127
1, 3, Control_c, 10, 0, 0
1, 3, Control_c, 11, 0, 0
1, 3, Control_c, 12, 0, 0
1, 3, Control_c, 13, 0, 0
1, 3, Control_c, 14, 0, 0
1, 3, Control_c, 15, 0, 0
1, 4, Control_c, 0, 32, 0
1, 4, Control_c, 1, 32, 0
1, 4, Control_c, 2, 32, 0
1, 4, Control_c, 3, 32, 0
1, 4, Control_c, 4, 32, 0
1, 4, Control_c, 5, 32, 0
1, 4, Control_c, 6, 32, 0
1, 4, Control_c, 7, 32, 0
1, 4, Control_c, 8, 32, 0
1, 4, Control_c, 9, 32, 0
1, 4, Control_c, 10, 32, 0
1, 4, Control_c, 11, 32, 0
1, 4, Control_c, 12, 32, 0
1, 4, Control_c, 13, 32, 0
1, 4, Control_c, 14, 32, 0
1, 4, Control_c, 15, 32, 0
1, 5, Program_c, 0, 0
1, 5, Program_c, 1, 0
1, 5, Program_c, 2, 0
1, 5, Program_c, 3, 0
1, 5, Program_c, 4, 0
1, 5, Program_c, 5, 0
1, 5, Program_c, 6, 0
1, 5, Program_c, 7, 0
1, 5, Program_c, 8, 0
1, 5, Program_c, 9, 0
1, 5, Program_c, 10, 0
1, 5, Program_c, 11, 0
1, 5, Program_c, 12, 0
1, 5, Program_c, 13, 0
1, 5, Program_c, 14, 0
1, 5, Program_c, 15, 0
1, 6, Control_c, 0, 7, 100
1, 6, Control_c, 1, 7, 100
1, 6, Control_c, 2, 7, 100
1, 6, Control_c, 3, 7, 100
1, 6, Control_c, 4, 7, 100
1, 6, Control_c, 5, 7, 100
1, 6, Control_c, 6, 7, 100
1, 6, Control_c, 7, 7, 100
1, 6, Control_c, 8, 7, 100
1, 6, Control_c, 9, 7, 100
1, 6, Control_c, 10, 7, 100
1, 6, Control_c, 11, 7, 100
1, 6, Control_c, 12, 7, 100
1, 6, Control_c, 13, 7, 100
1, 6, Control_c, 14, 7, 100
1, 6, Control_c, 15, 7, 100
1, 1132, Control_c, 0, 67, 28
1, 1133, Note_on_c, 0, 79, 42
1, 1147, Control_c, 0, 67, 29
1, 1150, Note_on_c, 0, 75, 35
1, 1161, Control_c, 0, 67, 31
1, 1176, Control_c, 0, 67, 33
1, 1191, Control_c, 0, 67, 35
1, 1206, Control_c, 0, 67, 39
1, 1221, Control_c, 0, 67, 42
1, 1236, Control_c, 0, 67, 46
1, 1250, Control_c, 0, 67, 50
1, 1265, Control_c, 0, 67, 55
1, 1280, Control_c, 0, 67, 59
1, 1302, Control_c, 0, 67, 64
1, 1318, Control_c, 0, 67, 68
1, 1333, Control_c, 0, 67, 72
1, 1348, Control_c, 0, 67, 77
1, 1363, Control_c, 0, 67, 82
1, 1378, Control_c, 0, 67, 87
1, 1392, Control_c, 0, 64, 12
1, 1392, Control_c, 0, 67, 93
1, 1406, Note_on_c, 0, 48, 41
1, 1407, Control_c, 0, 64, 24
1, 1407, Control_c, 0, 67, 98
1, 1422, Control_c, 0, 64, 33
1, 1422, Control_c, 0, 67, 102
1, 1437, Control_c, 0, 64, 41
1, 1437, Control_c, 0, 67, 107
1, 1452, Control_c, 0, 64, 47
1, 1452, Control_c, 0, 67, 111
1, 1466, Control_c, 0, 64, 51
1, 1466, Control_c, 0, 67, 116
1, 1481, Control_c, 0, 64, 54
1, 1481, Control_c, 0, 67, 120
1, 1496, Control_c, 0, 64, 57
1, 1496, Control_c, 0, 67, 125
1, 1511, Control_c, 0, 64, 60
1, 1511, Control_c, 0, 67, 127
1, 1525, Control_c, 0, 64, 62
1, 1540, Control_c, 0, 64, 64
1, 1555, Control_c, 0, 64, 66
1, 1570, Control_c, 0, 64, 68
1, 1584, Control_c, 0, 64, 70
1, 1599, Control_c, 0, 64, 73
1, 1614, Control_c, 0, 64, 76
1, 1629, Control_c, 0, 64, 78
1, 1644, Control_c, 0, 64, 80
1, 1659, Control_c, 0, 64, 82
1, 1674, Control_c, 0, 64, 84
1, 1685, Note_on_c, 0, 60, 40
1, 1689, Control_c, 0, 64, 86
1, 1704, Control_c, 0, 64, 87
1, 1718, Control_c, 0, 64, 88
1, 1733, Note_off_c, 0, 60, 58
1, 1754, Note_off_c, 0, 48, 34
1, 1763, Control_c, 0, 64, 88
1, 1851, Control_c, 0, 64, 88
1, 1866, Control_c, 0, 64, 86
1, 1881, Control_c, 0, 64, 82
1, 1896, Control_c, 0, 64, 75
1, 1910, Control_c, 0, 64, 66
1, 1925, Control_c, 0, 64, 59
1, 1928, Note_on_c, 0, 77, 50
1, 1933, Note_on_c, 0, 74, 37
1, 1940, Control_c, 0, 64, 52
1, 1955, Control_c, 0, 64, 46
1, 1970, Control_c, 0, 64, 39
1, 1984, Control_c, 0, 64, 24
1, 1999, Control_c, 0, 64, 0
1, 2044, Note_off_c, 0, 75, 35
1, 2073, Note_off_c, 0, 79, 34
1, 2090, Note_off_c, 0, 74, 54
1, 2126, Note_off_c, 0, 77, 63
1, 2207, Note_on_c, 0, 80, 62
1, 2225, Note_on_c, 0, 77, 55
1, 2450, Note_on_c, 0, 48, 43
1, 2541, Control_c, 0, 67, 124
1, 2556, Control_c, 0, 64, 31
1, 2556, Control_c, 0, 67, 122
1, 2571, Control_c, 0, 64, 48
1, 2571, Control_c, 0, 67, 118
1, 2586, Control_c, 0, 64, 57
1, 2586, Control_c, 0, 67, 114
1, 2601, Control_c, 0, 64, 61
1, 2601, Control_c, 0, 67, 110
1, 2615, Control_c, 0, 64, 65
1, 2615, Control_c, 0, 67, 107
1, 2630, Control_c, 0, 64, 68
1, 2630, Control_c, 0, 67, 104
1, 2645, Control_c, 0, 64, 71
1, 2645, Control_c, 0, 67, 102
1, 2659, Control_c, 0, 64, 76
1, 2659, Control_c, 0, 67, 101
1, 2674, Control_c, 0, 64, 80
1, 2674, Control_c, 0, 67, 100
1, 2689, Control_c, 0, 64, 83
1, 2689, Control_c, 0, 67, 100
1, 2704, Control_c, 0, 64, 87
1, 2716, Note_on_c, 0, 60, 47
1, 2719, Control_c, 0, 64, 91
1, 2733, Control_c, 0, 64, 94
1, 2748, Control_c, 0, 64, 96
1, 2752, Note_off_c, 0, 60, 62
1, 2753, Note_off_c, 0, 48, 54
1, 2763, Control_c, 0, 64, 97
1, 2800, Control_c, 0, 67, 100
1, 2830, Control_c, 0, 67, 101
1, 2845, Control_c, 0, 67, 102
1, 2860, Control_c, 0, 64, 96
1, 2860, Control_c, 0, 67, 103
1, 2874, Control_c, 0, 64, 94
1, 2874, Control_c, 0, 67, 104
1, 2889, Control_c, 0, 64, 90
1, 2889, Control_c, 0, 67, 104
1, 2904, Control_c, 0, 64, 83
1, 2904, Control_c, 0, 67, 105
1, 2920, Control_c, 0, 64, 77
1, 2920, Control_c, 0, 67, 105
1, 2935, Control_c, 0, 64, 68
1, 2935, Control_c, 0, 67, 106
1, 2950, Control_c, 0, 64, 61
1, 2950, Control_c, 0, 67, 108
1, 2964, Control_c, 0, 64, 53
1, 2964, Control_c, 0, 67, 109
1, 2971, Note_on_c, 0, 79, 54
1, 2979, Control_c, 0, 64, 46
1, 2979, Control_c, 0, 67, 110
1, 2981, Note_on_c, 0, 75, 41
1, 2994, Control_c, 0, 64, 36
1, 2994, Control_c, 0, 67, 112
1, 3009, Control_c, 0, 64, 0
1, 3009, Control_c, 0, 67, 113
1, 3018, Note_off_c, 0, 77, 46
1, 3024, Control_c, 0, 67, 116
1, 3038, Control_c, 0, 67, 122
1, 3053, Control_c, 0, 67, 127
1, 3068, Control_c, 0, 64, 29
1, 3068, Control_c, 0, 67, 127
1, 3083, Control_c, 0, 64, 49
1, 3087, Note_off_c, 0, 80, 36
1, 3089, Note_off_c, 0, 79, 56
1, 3097, Control_c, 0, 64, 58
1, 3112, Control_c, 0, 64, 62
1, 3126, Note_off_c, 0, 75, 63
1, 3127, Control_c, 0, 64, 66
1, 3142, Control_c, 0, 64, 69
1, 3157, Control_c, 0, 64, 73
1, 3171, Control_c, 0, 64, 76
1, 3186, Control_c, 0, 64, 79
1, 3201, Control_c, 0, 64, 81
1, 3216, Control_c, 0, 64, 81
1, 3241, Note_on_c, 0, 77, 64
1, 3251, Note_on_c, 0, 68, 49
1, 3319, Control_c, 0, 64, 80
1, 3334, Control_c, 0, 64, 78
1, 3349, Control_c, 0, 64, 77
1, 3364, Control_c, 0, 64, 76
1, 3423, Control_c, 0, 64, 76
1, 3438, Control_c, 0, 64, 75
1, 3450, Note_off_c, 0, 68, 42
1, 3453, Control_c, 0, 64, 73
1, 3468, Control_c, 0, 64, 72
1, 3481, Note_on_c, 0, 75, 66
1, 3482, Control_c, 0, 64, 71
1, 3485, Note_on_c, 0, 67, 43
1, 3497, Control_c, 0, 64, 70
1, 3519, Note_on_c, 0, 48, 41
1, 3527, Control_c, 0, 64, 70
1, 3549, Control_c, 0, 64, 69
1, 3552, Note_off_c, 0, 77, 55
1, 3564, Control_c, 0, 64, 69
1, 3579, Control_c, 0, 64, 68
1, 3593, Control_c, 0, 64, 67
1, 3606, Note_off_c, 0, 67, 56
1, 3608, Control_c, 0, 64, 66
1, 3623, Control_c, 0, 64, 66
1, 3638, Control_c, 0, 64, 65
1, 3653, Control_c, 0, 64, 65
1, 3668, Control_c, 0, 64, 64
1, 3683, Control_c, 0, 64, 63
1, 3697, Control_c, 0, 64, 62
1, 3713, Control_c, 0, 64, 62
1, 3719, Note_off_c, 0, 75, 51
1, 3728, Control_c, 0, 64, 61
1, 3735, Note_on_c, 0, 74, 63
1, 3742, Control_c, 0, 64, 60
1, 3753, Note_on_c, 0, 65, 54
1, 3757, Control_c, 0, 64, 59
1, 3771, Note_on_c, 0, 53, 49
1, 3772, Control_c, 0, 64, 58
1, 3779, Note_off_c, 0, 48, 52
1, 3787, Control_c, 0, 64, 57
1, 3802, Control_c, 0, 64, 55
1, 3817, Control_c, 0, 64, 53
1, 3832, Control_c, 0, 64, 50
1, 3846, Control_c, 0, 64, 44
1, 3861, Control_c, 0, 64, 36
1, 3862, Note_off_c, 0, 65, 55
1, 3876, Control_c, 0, 64, 21
1, 3891, Control_c, 0, 64, 0
1, 3965, Control_c, 0, 64, 12
1, 3980, Control_c, 0, 64, 37
1, 3983, Note_on_c, 0, 72, 66
1, 3994, Control_c, 0, 64, 52
1, 3995, Note_on_c, 0, 54, 47
1, 4002, Note_on_c, 0, 63, 53
1, 4006, Note_off_c, 0, 53, 53
1, 4009, Control_c, 0, 64, 58
1, 4024, Control_c, 0, 64, 61
1, 4037, Note_off_c, 0, 74, 48
1, 4038, Control_c, 0, 64, 63
1, 4052, Note_off_c, 0, 63, 55
1, 4053, Control_c, 0, 64, 66
1, 4059, Note_off_c, 0, 72, 62
1, 4068, Control_c, 0, 64, 69
1, 4083, Control_c, 0, 64, 71
1, 4098, Control_c, 0, 64, 74
1, 4112, Control_c, 0, 64, 75
1, 4127, Control_c, 0, 64, 76
1, 4184, Note_on_c, 0, 71, 58
1, 4206, Note_off_c, 0, 71, 64
1, 4221, Note_on_c, 0, 72, 65
1, 4231, Control_c, 0, 64, 75
1, 4246, Control_c, 0, 64, 72
1, 4261, Control_c, 0, 64, 68
1, 4276, Control_c, 0, 64, 64
1, 4279, Note_off_c, 0, 72, 62
1, 4298, Control_c, 0, 64, 59
1, 4310, Note_on_c, 0, 74, 63
1, 4312, Control_c, 0, 64, 56
1, 4327, Control_c, 0, 64, 53
1, 4342, Control_c, 0, 64, 47
1, 4357, Control_c, 0, 64, 35
1, 4360, Note_on_c, 0, 72, 49
1, 4365, Note_on_c, 0, 55, 34
1, 4372, Note_on_c, 0, 63, 43
1, 4372, Control_c, 0, 64, 9
1, 4386, Control_c, 0, 64, 0
1, 4419, Note_off_c, 0, 54, 58
1, 4444, Note_off_c, 0, 74, 49
1, 4701, Note_off_c, 0, 63, 57
1, 4892, Control_c, 0, 64, 17
1, 4895, Note_on_c, 0, 71, 48
1, 4901, Note_on_c, 0, 43, 45
1, 4905, Note_on_c, 0, 62, 44
1, 4907, Control_c, 0, 64, 31
1, 4922, Control_c, 0, 64, 42
1, 4936, Control_c, 0, 64, 49
1, 4944, Note_off_c, 0, 43, 63
1, 4950, Note_off_c, 0, 62, 63
1, 4951, Control_c, 0, 64, 53
1, 4966, Control_c, 0, 64, 56
1, 4969, Note_off_c, 0, 55, 62
1, 4971, Note_off_c, 0, 71, 63
1, 4980, Control_c, 0, 64, 59
1, 4995, Control_c, 0, 64, 61
1, 5010, Control_c, 0, 64, 62
1, 5018, Note_off_c, 0, 72, 56
1, 5025, Control_c, 0, 64, 64
1, 5048, Control_c, 0, 64, 64
1, 5062, Control_c, 0, 64, 65
1, 5166, Control_c, 0, 64, 64
1, 5170, Note_on_c, 0, 68, 46
1, 5181, Control_c, 0, 64, 61
1, 5187, Note_on_c, 0, 63, 38
1, 5190, Note_on_c, 0, 60, 43
1, 5195, Control_c, 0, 64, 56
1, 5210, Control_c, 0, 64, 50
1, 5220, Note_off_c, 0, 68, 52
1, 5225, Control_c, 0, 64, 43
1, 5240, Control_c, 0, 64, 33
1, 5255, Control_c, 0, 64, 14
1, 5269, Control_c, 0, 64, 0
1, 5356, Note_on_c, 0, 67, 54
1, 5378, Note_off_c, 0, 67, 63
1, 5399, Note_on_c, 0, 68, 51
1, 5427, Note_off_c, 0, 68, 60
1, 5461, Note_on_c, 0, 70, 51
1, 5489, Note_off_c, 0, 70, 62
1, 5507, Note_on_c, 0, 68, 58
1, 5513, Note_on_c, 0, 59, 36
1, 5515, Note_on_c, 0, 62, 46
1, 5549, Note_off_c, 0, 60, 31
1, 5593, Note_off_c, 0, 63, 51
1, 5973, Control_c, 0, 64, 34
1, 5988, Control_c, 0, 64, 45
1, 5997, Note_on_c, 0, 67, 52
1, 6003, Control_c, 0, 64, 51
1, 6017, Control_c, 0, 64, 54
1, 6018, Note_off_c, 0, 59, 53
1, 6032, Control_c, 0, 64, 57
1, 6038, Note_off_c, 0, 68, 60
1, 6047, Control_c, 0, 64, 60
1, 6056, Note_off_c, 0, 62, 64
1, 6062, Control_c, 0, 64, 62
1, 6073, Note_off_c, 0, 67, 62
1, 6077, Control_c, 0, 64, 63
1, 6091, Control_c, 0, 64, 64
1, 6181, Control_c, 0, 64, 63
1, 6196, Control_c, 0, 64, 61
1, 6211, Control_c, 0, 64, 56
1, 6226, Control_c, 0, 64, 44
1, 6240, Control_c, 0, 64, 0
1, 6247, Note_on_c, 0, 72, 76
1, 6271, Note_on_c, 0, 63, 37
1, 6276, Note_on_c, 0, 67, 42
1, 6284, Note_off_c, 0, 72, 62
1, 6431, Note_on_c, 0, 71, 62
1, 6451, Note_off_c, 0, 71, 65
1, 6468, Note_on_c, 0, 72, 66
1, 6500, Note_off_c, 0, 72, 60
1, 6522, Note_on_c, 0, 74, 65
1, 6559, Control_c, 0, 67, 124
1, 6560, Note_off_c, 0, 74, 66
1, 6573, Note_on_c, 0, 72, 75
1, 6574, Control_c, 0, 67, 120
1, 6589, Note_on_c, 0, 65, 48
1, 6589, Control_c, 0, 67, 117
1, 6595, Note_on_c, 0, 62, 49
1, 6604, Control_c, 0, 67, 114
1, 6619, Control_c, 0, 67, 111
1, 6633, Note_off_c, 0, 63, 35
1, 6633, Control_c, 0, 67, 110
1, 6640, Note_off_c, 0, 67, 30
1, 6648, Control_c, 0, 67, 110
1, 6693, Control_c, 0, 67, 109
1, 6722, Control_c, 0, 67, 109
1, 6737, Control_c, 0, 67, 108
1, 6752, Control_c, 0, 67, 107
1, 6766, Control_c, 0, 67, 105
1, 6781, Control_c, 0, 67, 103
1, 6796, Control_c, 0, 67, 100
1, 6811, Control_c, 0, 67, 97
1, 6826, Control_c, 0, 67, 93
1, 6840, Control_c, 0, 67, 89
1, 6855, Control_c, 0, 67, 85
1, 6870, Control_c, 0, 67, 83
1, 6885, Control_c, 0, 67, 80
1, 6900, Control_c, 0, 64, 33
1, 6900, Control_c, 0, 67, 78
1, 6916, Control_c, 0, 64, 47
1, 6916, Control_c, 0, 67, 74
1, 6930, Control_c, 0, 64, 53
1, 6930, Control_c, 0, 67, 70
1, 6945, Control_c, 0, 64, 56
1, 6945, Control_c, 0, 67, 65
1, 6960, Control_c, 0, 64, 59
1, 6960, Control_c, 0, 67, 60
1, 6973, Note_off_c, 0, 65, 63
1, 6975, Control_c, 0, 64, 62
1, 6975, Control_c, 0, 67, 57
1, 6989, Control_c, 0, 64, 65
1, 6989, Control_c, 0, 67, 55
1, 7004, Note_off_c, 0, 62, 64
1, 7004, Control_c, 0, 64, 68
1, 7004, Control_c, 0, 67, 55
1, 7019, Control_c, 0, 64, 71
1, 7034, Control_c, 0, 64, 75
1, 7034, Control_c, 0, 67, 54
1, 7036, Note_off_c, 0, 72, 61
1, 7049, Control_c, 0, 64, 77
1, 7049, Control_c, 0, 67, 54
1, 7053, Note_on_c, 0, 71, 73
1, 7063, Control_c, 0, 64, 79
1, 7063, Control_c, 0, 67, 53
1, 7077, Note_off_c, 0, 71, 68
1, 7078, Control_c, 0, 64, 79
1, 7078, Control_c, 0, 67, 53
1, 7138, Control_c, 0, 67, 53
1, 7153, Control_c, 0, 67, 54
1, 7155, Note_on_c, 0, 80, 75
1, 7168, Control_c, 0, 64, 78
1, 7168, Control_c, 0, 67, 54
1, 7182, Control_c, 0, 64, 74
1, 7182, Control_c, 0, 67, 55
1, 7197, Control_c, 0, 64, 68
1, 7197, Control_c, 0, 67, 57
1, 7212, Control_c, 0, 64, 62
1, 7212, Control_c, 0, 67, 58
1, 7227, Control_c, 0, 64, 56
1, 7227, Control_c, 0, 67, 59
1, 7242, Control_c, 0, 64, 52
1, 7242, Control_c, 0, 67, 61
1, 7256, Control_c, 0, 64, 50
1, 7256, Control_c, 0, 67, 62
1, 7271, Control_c, 0, 64, 48
1, 7271, Control_c, 0, 67, 63
1, 7283, Note_on_c, 0, 79, 74
1, 7293, Control_c, 0, 64, 45
1, 7293, Control_c, 0, 67, 65
1, 7308, Control_c, 0, 64, 40
1, 7308, Control_c, 0, 67, 69
1, 7323, Note_on_c, 0, 67, 42
1, 7323, Control_c, 0, 64, 36
1, 7323, Control_c, 0, 67, 74
1, 7324, Note_on_c, 0, 59, 39
1, 7330, Note_off_c, 0, 80, 62
1, 7337, Control_c, 0, 64, 32
1, 7337, Control_c, 0, 67, 82
1, 7352, Control_c, 0, 64, 29
1, 7352, Control_c, 0, 67, 89
1, 7367, Control_c, 0, 64, 28
1, 7367, Control_c, 0, 67, 96
1, 7382, Control_c, 0, 64, 28
1, 7382, Control_c, 0, 67, 103
1, 7390, Note_on_c, 0, 77, 74
1, 7397, Control_c, 0, 64, 27
1, 7397, Control_c, 0, 67, 109
1, 7412, Control_c, 0, 64, 24
1, 7412, Control_c, 0, 67, 115
1, 7426, Note_off_c, 0, 79, 60
1, 7427, Control_c, 0, 64, 15
1, 7427, Control_c, 0, 67, 122
1, 7442, Control_c, 0, 64, 0
1, 7442, Control_c, 0, 67, 127
1, 7451, Note_off_c, 0, 77, 64
1, 7502, Note_on_c, 0, 77, 71
1, 7531, Control_c, 0, 64, 24
1, 7540, Note_on_c, 0, 60, 47
1, 7545, Control_c, 0, 64, 40
1, 7560, Control_c, 0, 64, 52
1, 7575, Control_c, 0, 64, 58
1, 7589, Control_c, 0, 64, 61
1, 7597, Note_off_c, 0, 59, 35
1, 7604, Control_c, 0, 64, 64
1, 7610, Note_on_c, 0, 75, 73
1, 7619, Control_c, 0, 64, 67
1, 7634, Control_c, 0, 64, 70
1, 7635, Note_off_c, 0, 77, 62
1, 7649, Control_c, 0, 64, 74
1, 7650, Note_off_c, 0, 75, 62
1, 7663, Control_c, 0, 64, 76
1, 7678, Control_c, 0, 64, 77
1, 7705, Note_off_c, 0, 67, 34
1, 7739, Note_on_c, 0, 74, 73
1, 7764, Note_off_c, 0, 74, 65
1, 7779, Note_on_c, 0, 63, 49
1, 7784, Note_on_c, 0, 75, 70
1, 7798, Note_off_c, 0, 60, 49
1, 7798, Control_c, 0, 64, 77
1, 7812, Control_c, 0, 64, 74
1, 7827, Control_c, 0, 64, 70
1, 7828, Note_off_c, 0, 75, 64
1, 7841, Note_on_c, 0, 74, 70
1, 7842, Control_c, 0, 64, 66
1, 7857, Control_c, 0, 64, 61
1, 7872, Control_c, 0, 64, 58
1, 7885, Note_off_c, 0, 74, 55
1, 7886, Control_c, 0, 64, 55
1, 7901, Control_c, 0, 64, 51
1, 7908, Note_on_c, 0, 72, 59
1, 7916, Control_c, 0, 64, 43
1, 7931, Control_c, 0, 64, 22
1, 7946, Control_c, 0, 64, 0
1, 7968, Note_off_c, 0, 72, 40
1, 7977, Note_on_c, 0, 71, 70
1, 7990, Note_on_c, 0, 65, 43
1, 7998, Note_on_c, 0, 62, 45
1, 8001, Note_off_c, 0, 71, 68
1, 8038, Note_off_c, 0, 63, 58
1, 8038, Note_off_c, 0, 65, 61
1, 8050, Note_off_c, 0, 62, 63
1, 8244, Note_on_c, 0, 72, 67
1, 8264, Note_on_c, 0, 60, 45
1, 8268, Note_on_c, 0, 63, 41
1, 8272, Note_off_c, 0, 72, 65
1, 8300, Note_off_c, 0, 63, 60
1, 8303, Note_off_c, 0, 60, 63
1, 8550, Note_on_c, 0, 75, 60
1, 8582, Note_on_c, 0, 60, 31
1, 8584, Note_on_c, 0, 55, 37
1, 9127, Note_on_c, 0, 74, 39
1, 9142, Note_on_c, 0, 59, 30
1, 9206, Note_off_c, 0, 60, 49
1, 9243, Note_off_c, 0, 75, 32
1, 9244, Note_off_c, 0, 55, 31
1, 9257, Note_off_c, 0, 59, 58
1, 9257, Note_off_c, 0, 74, 54
1, 9800, Note_on_c, 0, 67, 51
1, 9815, Note_on_c, 0, 63, 31
1, 10029, Control_c, 0, 64, 18
1, 10044, Control_c, 0, 64, 31
1, 10058, Control_c, 0, 64, 39
1, 10073, Control_c, 0, 64, 45
1, 10082, Note_on_c, 0, 36, 30
1, 10088, Control_c, 0, 64, 48
1, 10104, Control_c, 0, 64, 51
1, 10119, Control_c, 0, 64, 54
1, 10133, Control_c, 0, 64, 56
1, 10148, Control_c, 0, 64, 59
1, 10163, Control_c, 0, 64, 61
1, 10178, Control_c, 0, 64, 63
1, 10193, Control_c, 0, 64, 64
1, 10207, Control_c, 0, 64, 66
1, 10222, Control_c, 0, 64, 69
1, 10237, Control_c, 0, 64, 71
1, 10252, Control_c, 0, 64, 75
1, 10267, Control_c, 0, 64, 78
1, 10289, Control_c, 0, 64, 80
1, 10303, Control_c, 0, 64, 83
1, 10318, Control_c, 0, 64, 85
1, 10333, Control_c, 0, 64, 88
1, 10348, Note_off_c, 0, 36, 57
1, 10348, Control_c, 0, 64, 91
1, 10349, Note_on_c, 0, 48, 38
1, 10363, Control_c, 0, 64, 93
1, 10378, Control_c, 0, 64, 95
1, 10387, Note_off_c, 0, 48, 61
1, 10393, Control_c, 0, 64, 96
1, 10407, Control_c, 0, 64, 97
1, 10422, Control_c, 0, 64, 98
1, 10437, Control_c, 0, 64, 99
1, 10452, Control_c, 0, 64, 100
1, 10467, Control_c, 0, 64, 101
1, 10555, Control_c, 0, 64, 99
1, 10570, Control_c, 0, 64, 93
1, 10584, Note_on_c, 0, 65, 46
1, 10585, Control_c, 0, 64, 83
1, 10592, Note_on_c, 0, 62, 37
1, 10599, Control_c, 0, 64, 71
1, 10614, Control_c, 0, 64, 59
1, 10629, Control_c, 0, 64, 43
1, 10644, Control_c, 0, 64, 0
1, 10646, Note_off_c, 0, 63, 60
1, 10673, Note_off_c, 0, 67, 54
1, 10703, Note_off_c, 0, 62, 60
1, 10744, Note_off_c, 0, 65, 63
1, 10862, Note_on_c, 0, 68, 66
1, 10886, Note_on_c, 0, 65, 49
1, 11111, Control_c, 0, 64, 26
1, 11119, Note_on_c, 0, 36, 50
1, 11126, Control_c, 0, 64, 42
1, 11141, Control_c, 0, 64, 52
1, 11156, Control_c, 0, 64, 56
1, 11171, Control_c, 0, 64, 60
1, 11186, Control_c, 0, 64, 63
1, 11201, Control_c, 0, 64, 67
1, 11216, Control_c, 0, 64, 72
1, 11230, Control_c, 0, 64, 78
1, 11245, Control_c, 0, 64, 85
1, 11260, Control_c, 0, 64, 92
1, 11274, Control_c, 0, 64, 103
1, 11289, Control_c, 0, 64, 127
1, 11368, Note_off_c, 0, 36, 62
1, 11388, Note_on_c, 0, 48, 57
1, 11412, Note_off_c, 0, 48, 58
1, 11628, Note_on_c, 0, 67, 61
1, 11630, Note_off_c, 0, 68, 34
1, 11646, Note_on_c, 0, 63, 45
1, 11660, Control_c, 0, 64, 85
1, 11675, Control_c, 0, 64, 64
1, 11689, Note_off_c, 0, 65, 53
1, 11690, Control_c, 0, 64, 43
1, 11700, Note_off_c, 0, 63, 63
1, 11705, Control_c, 0, 64, 0
1, 11761, Note_off_c, 0, 67, 64
1, 12015, Note_on_c, 0, 72, 59
1, 12264, Note_on_c, 0, 67, 43
1, 12277, Note_on_c, 0, 63, 39
1, 12409, Control_c, 0, 64, 15
1, 12423, Control_c, 0, 64, 32
1, 12438, Control_c, 0, 64, 43
1, 12453, Control_c, 0, 64, 50
1, 12468, Control_c, 0, 64, 55
1, 12483, Control_c, 0, 64, 59
1, 12499, Control_c, 0, 64, 62
1, 12511, Note_on_c, 0, 65, 53
1, 12514, Control_c, 0, 64, 64
1, 12518, Note_on_c, 0, 62, 48
1, 12530, Note_off_c, 0, 63, 0
1, 12536, Control_c, 0, 64, 67
1, 12551, Control_c, 0, 64, 71
1, 12566, Control_c, 0, 64, 75
1, 12569, Note_off_c, 0, 67, 41
1, 12575, Poly_aftertouch_c, 0, 63, 0
1, 12581, Control_c, 0, 64, 79
1, 12586, Note_off_c, 0, 65, 62
1, 12596, Control_c, 0, 64, 84
1, 12610, Control_c, 0, 64, 88
1, 12625, Control_c, 0, 64, 92
1, 12640, Control_c, 0, 64, 95
1, 12655, Control_c, 0, 64, 96
1, 12664, Note_off_c, 0, 62, 35
1, 12670, Control_c, 0, 64, 96
1, 12699, Note_off_c, 0, 72, 31
1, 12699, Control_c, 0, 64, 96
1, 12707, Note_on_c, 0, 71, 58
1, 12714, Control_c, 0, 64, 91
1, 12728, Control_c, 0, 64, 82
1, 12743, Control_c, 0, 64, 70
1, 12746, Note_off_c, 0, 71, 51
1, 12758, Control_c, 0, 64, 59
1, 12767, Note_on_c, 0, 74, 58
1, 12773, Control_c, 0, 64, 46
1, 12775, Note_on_c, 0, 68, 54
1, 12788, Control_c, 0, 64, 34
1, 12795, Note_on_c, 0, 65, 44
1, 12802, Control_c, 0, 64, 25
1, 12817, Control_c, 0, 64, 16
1, 12832, Control_c, 0, 64, 0
1, 12897, Note_off_c, 0, 68, 52
1, 12953, Note_off_c, 0, 74, 47
1, 12958, Note_off_c, 0, 65, 37
1, 12979, Control_c, 0, 64, 11
1, 12992, Note_on_c, 0, 72, 43
1, 12994, Control_c, 0, 64, 12
1, 13052, Control_c, 0, 64, 12
1, 13062, Note_off_c, 0, 72, 54
1, 13078, Note_on_c, 0, 75, 48
1, 13082, Control_c, 0, 64, 11
1, 13097, Control_c, 0, 64, 9
1, 13108, Note_on_c, 0, 67, 35
1, 13111, Note_on_c, 0, 63, 39
1, 13112, Control_c, 0, 64, 0
1, 13219, Note_off_c, 0, 75, 59
1, 13293, Note_off_c, 0, 63, 52
1, 13317, Note_off_c, 0, 67, 39
1, 13550, Control_c, 0, 64, 23
1, 13565, Control_c, 0, 64, 35
1, 13579, Control_c, 0, 64, 45
1, 13594, Control_c, 0, 64, 52
1, 13609, Control_c, 0, 64, 56
1, 13624, Control_c, 0, 64, 57
1, 13626, Note_on_c, 0, 72, 56
1, 13639, Control_c, 0, 64, 59
1, 13646, Note_off_c, 0, 72, 63
1, 13654, Control_c, 0, 64, 61
1, 13668, Control_c, 0, 64, 62
1, 13669, Note_on_c, 0, 74, 62
1, 13683, Control_c, 0, 64, 63
1, 13698, Control_c, 0, 64, 64
1, 13699, Note_off_c, 0, 74, 65
1, 13713, Control_c, 0, 64, 65
1, 13717, Note_on_c, 0, 75, 69
1, 13728, Control_c, 0, 64, 66
1, 13734, Note_off_c, 0, 75, 67
1, 13742, Control_c, 0, 64, 66
1, 13769, Note_on_c, 0, 77, 77
1, 13787, Control_c, 0, 64, 67
1, 13815, Note_off_c, 0, 77, 61
1, 13828, Note_on_c, 0, 79, 69
1, 13873, Note_on_c, 0, 80, 76
1, 13875, Note_off_c, 0, 79, 60
1, 13875, Control_c, 0, 67, 126
1, 13890, Control_c, 0, 67, 124
1, 13905, Control_c, 0, 64, 66
1, 13905, Control_c, 0, 67, 122
1, 13913, Note_on_c, 0, 82, 63
1, 13916, Note_off_c, 0, 80, 63
1, 13920, Control_c, 0, 64, 65
1, 13920, Control_c, 0, 67, 119
1, 13935, Control_c, 0, 64, 64
1, 13935, Control_c, 0, 67, 117
1, 13949, Control_c, 0, 64, 62
1, 13949, Control_c, 0, 67, 115
1, 13964, Control_c, 0, 64, 60
1, 13964, Control_c, 0, 67, 113
1, 13979, Note_on_c, 0, 84, 74
1, 13979, Control_c, 0, 64, 57
1, 13979, Control_c, 0, 67, 110
1, 13988, Note_off_c, 0, 82, 57
1, 13994, Control_c, 0, 64, 53
1, 13994, Control_c, 0, 67, 108
1, 14009, Control_c, 0, 64, 47
1, 14009, Control_c, 0, 67, 106
1, 14031, Control_c, 0, 64, 39
1, 14031, Control_c, 0, 67, 105
1, 14046, Control_c, 0, 64, 26
1, 14046, Control_c, 0, 67, 103
1, 14049, Note_on_c, 0, 82, 72
1, 14061, Control_c, 0, 64, 0
1, 14061, Control_c, 0, 67, 102
1, 14075, Control_c, 0, 67, 100
1, 14083, Note_off_c, 0, 84, 67
1, 14180, Control_c, 0, 67, 101
1, 14195, Control_c, 0, 67, 101
1, 14210, Control_c, 0, 67, 102
1, 14225, Control_c, 0, 67, 102
1, 14284, Control_c, 0, 64, 29
1, 14298, Control_c, 0, 64, 45
1, 14301, Note_on_c, 0, 72, 65
1, 14307, Note_on_c, 0, 65, 57
1, 14313, Control_c, 0, 64, 54
1, 14325, Note_off_c, 0, 72, 67
1, 14328, Control_c, 0, 64, 58
1, 14331, Note_off_c, 0, 65, 64
1, 14343, Control_c, 0, 64, 60
1, 14358, Control_c, 0, 64, 62
1, 14372, Control_c, 0, 64, 64
1, 14372, Control_c, 0, 67, 103
1, 14376, Note_off_c, 0, 82, 57
1, 14387, Control_c, 0, 64, 66
1, 14402, Control_c, 0, 64, 68
1, 14402, Control_c, 0, 67, 103
1, 14417, Control_c, 0, 64, 69
1, 14417, Control_c, 0, 67, 105
1, 14432, Control_c, 0, 64, 70
1, 14432, Control_c, 0, 67, 106
1, 14437, Note_on_c, 0, 80, 59
1, 14447, Control_c, 0, 67, 106
1, 14456, Note_off_c, 0, 80, 61
1, 14462, Control_c, 0, 67, 107
1, 14477, Control_c, 0, 67, 108
1, 14489, Note_on_c, 0, 82, 58
1, 14506, Control_c, 0, 64, 69
1, 14506, Control_c, 0, 67, 108
1, 14509, Note_off_c, 0, 82, 55
1, 14515, Note_on_c, 0, 80, 75
1, 14521, Control_c, 0, 64, 66
1, 14536, Control_c, 0, 64, 62
1, 14536, Control_c, 0, 67, 109
1, 14551, Control_c, 0, 64, 54
1, 14551, Control_c, 0, 67, 109
1, 14561, Note_off_c, 0, 80, 66
1, 14564, Note_on_c, 0, 79, 80
1, 14566, Control_c, 0, 64, 46
1, 14566, Control_c, 0, 67, 110
1, 14581, Control_c, 0, 64, 36
1, 14581, Control_c, 0, 67, 110
1, 14596, Control_c, 0, 64, 20
1, 14611, Control_c, 0, 64, 0
1, 14611, Control_c, 0, 67, 111
1, 14625, Control_c, 0, 67, 111
1, 14699, Control_c, 0, 67, 111
1, 14714, Control_c, 0, 64, 29
1, 14729, Control_c, 0, 64, 48
1, 14729, Control_c, 0, 67, 110
1, 14744, Control_c, 0, 64, 56
1, 14744, Control_c, 0, 67, 109
1, 14759, Control_c, 0, 64, 60
1, 14759, Control_c, 0, 67, 108
1, 14778, Note_off_c, 0, 79, 63
1, 14781, Control_c, 0, 64, 62
1, 14781, Control_c, 0, 67, 108
1, 14796, Control_c, 0, 64, 65
1, 14796, Control_c, 0, 67, 107
1, 14811, Control_c, 0, 64, 67
1, 14811, Control_c, 0, 67, 107
1, 14812, Note_on_c, 0, 72, 53
1, 14813, Note_on_c, 0, 63, 49
1, 14825, Control_c, 0, 64, 70
1, 14833, Note_off_c, 0, 72, 58
1, 14840, Control_c, 0, 64, 73
1, 14840, Control_c, 0, 67, 106
1, 14844, Note_off_c, 0, 63, 63
1, 14855, Control_c, 0, 64, 74
1, 14870, Control_c, 0, 64, 75
1, 14900, Control_c, 0, 67, 107
1, 14926, Note_on_c, 0, 84, 78
1, 14930, Control_c, 0, 67, 107
1, 14945, Control_c, 0, 67, 108
1, 14975, Control_c, 0, 64, 74
1, 14975, Control_c, 0, 67, 108
1, 14989, Control_c, 0, 64, 72
1, 14989, Control_c, 0, 67, 109
1, 15004, Control_c, 0, 64, 68
1, 15004, Control_c, 0, 67, 109
1, 15019, Control_c, 0, 64, 63
1, 15019, Control_c, 0, 67, 110
1, 15034, Control_c, 0, 64, 56
1, 15034, Control_c, 0, 67, 111
1, 15048, Control_c, 0, 64, 51
1, 15048, Control_c, 0, 67, 111
1, 15063, Control_c, 0, 64, 46
1, 15063, Control_c, 0, 67, 112
1, 15076, Note_on_c, 0, 79, 78
1, 15078, Control_c, 0, 64, 38
1, 15078, Control_c, 0, 67, 113
1, 15093, Control_c, 0, 64, 22
1, 15093, Control_c, 0, 67, 114
1, 15108, Control_c, 0, 64, 0
1, 15108, Control_c, 0, 67, 116
1, 15122, Control_c, 0, 67, 119
1, 15131, Note_off_c, 0, 84, 62
1, 15137, Control_c, 0, 67, 123
1, 15152, Control_c, 0, 67, 127
1, 15167, Control_c, 0, 67, 127
1, 15255, Control_c, 0, 64, 24
1, 15270, Control_c, 0, 64, 40
1, 15285, Control_c, 0, 64, 52
1, 15300, Control_c, 0, 64, 57
1, 15313, Note_on_c, 0, 62, 59
1, 15314, Control_c, 0, 64, 60
1, 15320, Note_on_c, 0, 71, 55
1, 15329, Control_c, 0, 64, 62
1, 15334, Note_off_c, 0, 62, 65
1, 15341, Note_off_c, 0, 71, 60
1, 15344, Control_c, 0, 64, 65
1, 15359, Control_c, 0, 64, 67
1, 15374, Control_c, 0, 64, 69
1, 15375, Note_off_c, 0, 79, 54
1, 15389, Control_c, 0, 64, 70
1, 15404, Control_c, 0, 64, 71
1, 15419, Control_c, 0, 64, 72
1, 15443, Note_on_c, 0, 77, 60
1, 15463, Note_off_c, 0, 77, 65
1, 15485, Note_on_c, 0, 79, 64
1, 15505, Note_off_c, 0, 79, 67
1, 15508, Control_c, 0, 64, 70
1, 15529, Control_c, 0, 64, 66
1, 15530, Note_on_c, 0, 77, 73
1, 15544, Control_c, 0, 64, 57
1, 15559, Control_c, 0, 64, 47
1, 15569, Note_off_c, 0, 77, 54
1, 15574, Control_c, 0, 64, 35
1, 15589, Control_c, 0, 64, 17
1, 15602, Note_on_c, 0, 75, 67
1, 15603, Control_c, 0, 64, 0
1, 15830, Note_on_c, 0, 72, 70
1, 15839, Note_on_c, 0, 60, 57
1, 15842, Control_c, 0, 64, 30
1, 15854, Note_off_c, 0, 72, 69
1, 15857, Control_c, 0, 64, 43
1, 15860, Note_off_c, 0, 60, 63
1, 15871, Control_c, 0, 64, 53
1, 15886, Control_c, 0, 64, 58
1, 15901, Control_c, 0, 64, 61
1, 15916, Control_c, 0, 64, 63
1, 15931, Control_c, 0, 64, 65
1, 15945, Control_c, 0, 64, 67
1, 15960, Control_c, 0, 64, 68
1, 16061, Note_off_c, 0, 75, 36
1, 16077, Control_c, 0, 64, 66
1, 16092, Control_c, 0, 64, 61
1, 16107, Control_c, 0, 64, 50
1, 16112, Note_on_c, 0, 68, 71
1, 16113, Note_on_c, 0, 65, 64
1, 16122, Control_c, 0, 64, 26
1, 16137, Control_c, 0, 64, 0
1, 16233, Note_on_c, 0, 73, 76
1, 16253, Note_off_c, 0, 73, 72
1, 16329, Note_off_c, 0, 68, 65
1, 16330, Note_off_c, 0, 65, 63
1, 16384, Note_on_c, 0, 75, 71
1, 16405, Note_off_c, 0, 75, 70
1, 16436, Note_on_c, 0, 73, 70
1, 16459, Note_off_c, 0, 73, 70
1, 16486, Note_on_c, 0, 72, 69
1, 16517, Note_off_c, 0, 72, 62
1, 16531, Note_on_c, 0, 73, 77
1, 16576, Note_on_c, 0, 80, 64
1, 16622, Note_on_c, 0, 72, 81
1, 16629, Note_on_c, 0, 63, 54
1, 16643, Note_off_c, 0, 73, 27
1, 16648, Note_on_c, 0, 55, 29
1, 16671, Note_off_c, 0, 80, 56
1, 16677, Note_off_c, 0, 63, 58
1, 16686, Note_off_c, 0, 55, 49
1, 16778, Note_off_c, 0, 72, 62
1, 16878, Note_on_c, 0, 71, 64
1, 16901, Note_off_c, 0, 71, 64
1, 16904, Note_on_c, 0, 62, 49
1, 16907, Note_on_c, 0, 55, 47
1, 16921, Note_on_c, 0, 72, 62
1, 16928, Note_off_c, 0, 62, 58
1, 16932, Note_off_c, 0, 55, 55
1, 16949, Note_off_c, 0, 72, 67
1, 16963, Note_on_c, 0, 71, 68
1, 17194, Note_off_c, 0, 71, 53
1, 17216, Note_on_c, 0, 72, 56
1, 17248, Note_on_c, 0, 60, 32
1, 17252, Note_on_c, 0, 48, 35
1, 17424, Note_off_c, 0, 72, 55
1, 17475, Note_off_c, 0, 60, 34
1, 17481, Note_off_c, 0, 48, 34
1, 18161, Control_c, 0, 67, 127
1, 18176, Control_c, 0, 67, 125
1, 18191, Control_c, 0, 67, 123
1, 18206, Control_c, 0, 67, 121
1, 18221, Control_c, 0, 67, 118
1, 18236, Control_c, 0, 67, 113
1, 18251, Control_c, 0, 67, 109
1, 18265, Control_c, 0, 67, 106
1, 18280, Control_c, 0, 67, 103
1, 18295, Control_c, 0, 67, 101
1, 18310, Control_c, 0, 67, 98
1, 18325, Control_c, 0, 67, 94
1, 18328, Note_on_c, 0, 63, 78
1, 18340, Control_c, 0, 67, 88
1, 18355, Control_c, 0, 67, 82
1, 18370, Control_c, 0, 67, 75
1, 18384, Control_c, 0, 67, 68
1, 18399, Control_c, 0, 67, 61
1, 18414, Control_c, 0, 67, 53
1, 18429, Control_c, 0, 67, 42
1, 18444, Control_c, 0, 67, 32
1, 18458, Control_c, 0, 67, 20
1, 18473, Control_c, 0, 67, 9
1, 18488, Control_c, 0, 67, 0
1, 18688, Control_c, 0, 64, 18
1, 18703, Control_c, 0, 64, 25
1, 18717, Control_c, 0, 64, 30
1, 18732, Control_c, 0, 64, 35
1, 18747, Control_c, 0, 64, 39
1, 18762, Control_c, 0, 64, 43
1, 18777, Control_c, 0, 64, 47
1, 18791, Control_c, 0, 64, 50
1, 18806, Control_c, 0, 64, 53
1, 18821, Control_c, 0, 64, 55
1, 18836, Control_c, 0, 64, 58
1, 18839, Note_off_c, 0, 63, 56
1, 18851, Control_c, 0, 64, 60
1, 18862, Note_on_c, 0, 61, 48
1, 18865, Control_c, 0, 64, 61
1, 18877, Note_on_c, 0, 58, 40
1, 18880, Control_c, 0, 64, 63
1, 18881, Note_on_c, 0, 51, 32
1, 18896, Control_c, 0, 64, 66
1, 18911, Control_c, 0, 64, 68
1, 18926, Control_c, 0, 64, 71
1, 18937, Poly_aftertouch_c, 0, 66, 127
1, 18941, Control_c, 0, 64, 75
1, 18956, Control_c, 0, 64, 79
1, 18970, Control_c, 0, 64, 83
1, 18977, Poly_aftertouch_c, 0, 66, 0
1, 18981, Note_on_c, 0, 63, 65
1, 18985, Control_c, 0, 64, 86
1, 19000, Control_c, 0, 64, 90
1, 19007, Note_off_c, 0, 63, 67
1, 19014, Control_c, 0, 64, 92
1, 19018, Note_off_c, 0, 61, 61
1, 19029, Control_c, 0, 64, 94
1, 19035, Note_off_c, 0, 58, 58
1, 19039, Note_off_c, 0, 51, 59
1, 19044, Control_c, 0, 64, 96
1, 19059, Control_c, 0, 64, 96
1, 19074, Control_c, 0, 64, 97
1, 19154, Note_on_c, 0, 65, 60
1, 19175, Note_off_c, 0, 65, 65
1, 19192, Note_on_c, 0, 63, 74
1, 19192, Control_c, 0, 64, 96
1, 19207, Control_c, 0, 64, 96
1, 19218, Note_off_c, 0, 63, 64
1, 19222, Control_c, 0, 64, 94
1, 19237, Control_c, 0, 64, 90
1, 19249, Note_on_c, 0, 62, 68
1, 19252, Control_c, 0, 64, 85
1, 19252, Control_c, 0, 67, 8
1, 19274, Control_c, 0, 64, 79
1, 19274, Control_c, 0, 67, 9
1, 19287, Note_off_c, 0, 62, 66
1, 19288, Control_c, 0, 64, 72
1, 19302, Note_on_c, 0, 63, 75
1, 19303, Control_c, 0, 64, 64
1, 19303, Control_c, 0, 67, 9
1, 19318, Control_c, 0, 64, 57
1, 19318, Control_c, 0, 67, 10
1, 19333, Control_c, 0, 64, 52
1, 19333, Control_c, 0, 67, 11
1, 19347, Control_c, 0, 64, 47
1, 19347, Control_c, 0, 67, 12
1, 19350, Note_off_c, 0, 63, 64
1, 19357, Note_on_c, 0, 68, 80
1, 19362, Control_c, 0, 64, 38
1, 19362, Control_c, 0, 67, 12
1, 19371, Note_on_c, 0, 60, 44
1, 19377, Control_c, 0, 64, 15
1, 19377, Control_c, 0, 67, 13
1, 19388, Note_on_c, 0, 51, 38
1, 19389, Note_on_c, 0, 56, 44
1, 19392, Control_c, 0, 64, 0
1, 19392, Control_c, 0, 67, 13
1, 19407, Control_c, 0, 67, 14
1, 19422, Control_c, 0, 67, 15
1, 19437, Control_c, 0, 67, 16
1, 19452, Control_c, 0, 67, 17
1, 19467, Control_c, 0, 67, 17
1, 19482, Control_c, 0, 64, 30
1, 19482, Control_c, 0, 67, 18
1, 19496, Control_c, 0, 64, 48
1, 19505, Note_on_c, 0, 63, 75
1, 19511, Control_c, 0, 64, 58
1, 19524, Note_off_c, 0, 68, 63
1, 19526, Control_c, 0, 64, 61
1, 19530, Note_off_c, 0, 63, 67
1, 19535, Note_off_c, 0, 60, 61
1, 19540, Control_c, 0, 64, 64
1, 19555, Control_c, 0, 64, 66
1, 19570, Control_c, 0, 64, 68
1, 19577, Note_off_c, 0, 51, 56
1, 19585, Note_off_c, 0, 56, 58
1, 19585, Control_c, 0, 64, 70
1, 19600, Control_c, 0, 64, 71
1, 19600, Control_c, 0, 67, 18
1, 19614, Control_c, 0, 64, 73
1, 19629, Control_c, 0, 67, 19
1, 19659, Control_c, 0, 67, 19
1, 19662, Note_on_c, 0, 65, 73
1, 19694, Note_off_c, 0, 65, 63
1, 19715, Note_on_c, 0, 63, 70
1, 19719, Control_c, 0, 67, 20
1, 19736, Note_off_c, 0, 63, 65
1, 19749, Control_c, 0, 67, 20
1, 19763, Control_c, 0, 67, 21
1, 19765, Note_on_c, 0, 62, 73
1, 19778, Control_c, 0, 64, 71
1, 19778, Control_c, 0, 67, 22
1, 19793, Control_c, 0, 64, 68
1, 19793, Control_c, 0, 67, 22
1, 19805, Note_on_c, 0, 63, 70
1, 19808, Control_c, 0, 64, 63
1, 19808, Control_c, 0, 67, 23
1, 19815, Note_off_c, 0, 62, 63
1, 19823, Control_c, 0, 64, 57
1, 19823, Control_c, 0, 67, 23
1, 19837, Control_c, 0, 64, 50
1, 19837, Control_c, 0, 67, 24
1, 19852, Control_c, 0, 64, 41
1, 19866, Note_off_c, 0, 63, 64
1, 19867, Control_c, 0, 64, 24
1, 19867, Control_c, 0, 67, 24
1, 19870, Note_on_c, 0, 70, 82
1, 19872, Note_on_c, 0, 55, 52
1, 19873, Note_on_c, 0, 61, 51
1, 19877, Note_on_c, 0, 51, 43
1, 19882, Control_c, 0, 64, 0
1, 19897, Control_c, 0, 67, 25
1, 19911, Control_c, 0, 67, 25
1, 19926, Control_c, 0, 67, 26
1, 19941, Control_c, 0, 67, 27
1, 19956, Control_c, 0, 64, 12
1, 19956, Control_c, 0, 67, 27
1, 19970, Control_c, 0, 64, 38
1, 19970, Control_c, 0, 67, 28
1, 19985, Control_c, 0, 64, 54
1, 19985, Control_c, 0, 67, 29
1, 20000, Control_c, 0, 64, 61
1, 20000, Control_c, 0, 67, 30
1, 20021, Note_off_c, 0, 61, 62
1, 20023, Control_c, 0, 64, 65
1, 20023, Control_c, 0, 67, 30
1, 20024, Note_on_c, 0, 63, 76
1, 20037, Control_c, 0, 64, 68
1, 20037, Control_c, 0, 67, 32
1, 20039, Note_off_c, 0, 70, 62
1, 20048, Note_off_c, 0, 63, 66
1, 20052, Control_c, 0, 64, 72
1, 20052, Control_c, 0, 67, 34
1, 20067, Control_c, 0, 64, 76
1, 20067, Control_c, 0, 67, 36
1, 20082, Control_c, 0, 64, 80
1, 20082, Control_c, 0, 67, 40
1, 20097, Control_c, 0, 64, 83
1, 20097, Control_c, 0, 67, 44
1, 20111, Control_c, 0, 64, 86
1, 20111, Control_c, 0, 67, 48
1, 20126, Control_c, 0, 64, 87
1, 20126, Control_c, 0, 67, 55
1, 20141, Control_c, 0, 64, 87
1, 20141, Control_c, 0, 67, 61
1, 20156, Control_c, 0, 67, 68
1, 20170, Control_c, 0, 67, 76
1, 20185, Control_c, 0, 67, 83
1, 20197, Note_on_c, 0, 65, 76
1, 20200, Control_c, 0, 67, 89
1, 20207, Note_off_c, 0, 55, 40
1, 20215, Control_c, 0, 67, 95
1, 20226, Note_off_c, 0, 65, 64
1, 20230, Control_c, 0, 64, 87
1, 20230, Control_c, 0, 67, 102
1, 20245, Control_c, 0, 64, 86
1, 20245, Control_c, 0, 67, 109
1, 20258, Note_on_c, 0, 63, 60
1, 20260, Control_c, 0, 64, 85
1, 20260, Control_c, 0, 67, 117
1, 20275, Control_c, 0, 64, 81
1, 20275, Control_c, 0, 67, 127
1, 20277, Note_off_c, 0, 63, 62
1, 20289, Control_c, 0, 64, 77
1, 20289, Control_c, 0, 67, 127
1, 20301, Note_on_c, 0, 62, 74
1, 20304, Control_c, 0, 64, 72
1, 20319, Control_c, 0, 64, 66
1, 20334, Control_c, 0, 64, 62
1, 20348, Note_on_c, 0, 63, 66
1, 20349, Control_c, 0, 64, 59
1, 20351, Note_off_c, 0, 62, 58
1, 20363, Control_c, 0, 64, 56
1, 20369, Note_off_c, 0, 51, 26
1, 20378, Control_c, 0, 64, 53
1, 20393, Control_c, 0, 64, 48
1, 20408, Control_c, 0, 64, 42
1, 20423, Control_c, 0, 64, 30
1, 20437, Control_c, 0, 64, 0
1, 20444, Note_off_c, 0, 63, 55
1, 20450, Note_on_c, 0, 72, 73
1, 20462, Note_on_c, 0, 60, 43
1, 20478, Note_on_c, 0, 56, 37
1, 20600, Control_c, 0, 64, 23
1, 20615, Control_c, 0, 64, 45
1, 20630, Control_c, 0, 64, 59
1, 20639, Note_off_c, 0, 72, 63
1, 20645, Control_c, 0, 64, 64
1, 20653, Note_off_c, 0, 56, 58
1, 20659, Control_c, 0, 64, 68
1, 20674, Control_c, 0, 64, 73
1, 20685, Note_off_c, 0, 60, 32
1, 20689, Control_c, 0, 64, 79
1, 20704, Control_c, 0, 64, 85
1, 20719, Control_c, 0, 64, 89
1, 20734, Control_c, 0, 64, 90
1, 20800, Control_c, 0, 64, 89
1, 20815, Control_c, 0, 64, 84
1, 20830, Control_c, 0, 64, 78
1, 20845, Control_c, 0, 64, 72
1, 20859, Control_c, 0, 64, 66
1, 20874, Control_c, 0, 64, 62
1, 20889, Control_c, 0, 64, 60
1, 20904, Control_c, 0, 64, 59
1, 20918, Control_c, 0, 64, 57
1, 20933, Control_c, 0, 64, 55
1, 20948, Control_c, 0, 64, 53
1, 20963, Control_c, 0, 64, 51
1, 20978, Control_c, 0, 64, 50
1, 20993, Control_c, 0, 64, 49
1, 20994, Note_on_c, 0, 74, 49
1, 21008, Control_c, 0, 64, 47
1, 21023, Control_c, 0, 64, 45
1, 21038, Control_c, 0, 64, 42
1, 21053, Control_c, 0, 64, 38
1, 21067, Control_c, 0, 64, 32
1, 21082, Control_c, 0, 64, 24
1, 21097, Control_c, 0, 64, 16
1, 21111, Control_c, 0, 64, 12
1, 21114, Note_off_c, 0, 74, 57
1, 21118, Note_on_c, 0, 75, 63
1, 21126, Control_c, 0, 64, 12
1, 21156, Control_c, 0, 64, 10
1, 21171, Control_c, 0, 64, 8
1, 21185, Control_c, 0, 64, 0
1, 21233, Note_off_c, 0, 75, 57
1, 21244, Note_on_c, 0, 77, 62
1, 21357, Note_on_c, 0, 75, 62
1, 21436, Note_off_c, 0, 77, 35
1, 21490, Note_on_c, 0, 73, 63
1, 21520, Note_off_c, 0, 75, 58
1, 21595, Note_off_c, 0, 73, 62
1, 21604, Note_on_c, 0, 72, 54
1, 21739, Note_on_c, 0, 70, 58
1, 21752, Note_off_c, 0, 72, 37
1, 21857, Note_on_c, 0, 68, 55
1, 21906, Note_off_c, 0, 70, 52
1, 22006, Note_on_c, 0, 67, 52
1, 22012, Note_off_c, 0, 68, 56
1, 22068, Control_c, 0, 64, 29
1, 22084, Control_c, 0, 64, 45
1, 22085, Note_off_c, 0, 67, 63
1, 22099, Control_c, 0, 64, 54
1, 22114, Control_c, 0, 64, 57
1, 22129, Control_c, 0, 64, 59
1, 22144, Control_c, 0, 64, 61
1, 22158, Control_c, 0, 64, 61
1, 22173, Control_c, 0, 64, 62
1, 22232, Control_c, 0, 64, 61
1, 22247, Control_c, 0, 64, 60
1, 22269, Control_c, 0, 64, 57
1, 22275, Note_on_c, 0, 70, 56
1, 22284, Control_c, 0, 64, 53
1, 22299, Control_c, 0, 64, 48
1, 22313, Control_c, 0, 64, 44
1, 22328, Control_c, 0, 64, 39
1, 22343, Control_c, 0, 64, 32
1, 22358, Control_c, 0, 64, 18
1, 22373, Control_c, 0, 64, 0
1, 22523, Note_on_c, 0, 68, 54
1, 22595, Control_c, 0, 64, 19
1, 22610, Control_c, 0, 64, 42
1, 22625, Control_c, 0, 64, 54
1, 22635, Note_off_c, 0, 70, 35
1, 22639, Control_c, 0, 64, 59
1, 22641, Note_off_c, 0, 68, 64
1, 22654, Control_c, 0, 64, 62
1, 22669, Control_c, 0, 64, 65
1, 22683, Control_c, 0, 64, 68
1, 22698, Control_c, 0, 64, 71
1, 22713, Control_c, 0, 64, 75
1, 22728, Control_c, 0, 64, 78
1, 22743, Control_c, 0, 64, 80
1, 22758, Control_c, 0, 64, 81
1, 22771, Note_on_c, 0, 73, 73
1, 22817, Control_c, 0, 64, 80
1, 22832, Control_c, 0, 64, 77
1, 22847, Control_c, 0, 64, 73
1, 22862, Control_c, 0, 64, 66
1, 22877, Control_c, 0, 64, 59
1, 22892, Control_c, 0, 64, 53
1, 22907, Control_c, 0, 64, 49
1, 22922, Control_c, 0, 64, 45
1, 22936, Control_c, 0, 64, 39
1, 22951, Control_c, 0, 64, 27
1, 22966, Control_c, 0, 64, 0
1, 23045, Note_on_c, 0, 72, 70
1, 23092, Control_c, 0, 67, 126
1, 23098, Note_off_c, 0, 73, 61
1, 23106, Control_c, 0, 64, 32
1, 23106, Control_c, 0, 67, 120
1, 23121, Control_c, 0, 64, 47
1, 23121, Control_c, 0, 67, 113
1, 23136, Control_c, 0, 64, 56
1, 23136, Control_c, 0, 67, 105
1, 23151, Control_c, 0, 64, 61
1, 23151, Control_c, 0, 67, 98
1, 23154, Note_off_c, 0, 72, 64
1, 23166, Control_c, 0, 64, 64
1, 23166, Control_c, 0, 67, 90
1, 23181, Control_c, 0, 64, 66
1, 23181, Control_c, 0, 67, 83
1, 23196, Control_c, 0, 64, 68
1, 23196, Control_c, 0, 67, 75
1, 23211, Control_c, 0, 64, 70
1, 23211, Control_c, 0, 67, 67
1, 23226, Control_c, 0, 64, 72
1, 23226, Control_c, 0, 67, 58
1, 23241, Control_c, 0, 64, 72
1, 23241, Control_c, 0, 67, 51
1, 23255, Control_c, 0, 67, 45
1, 23270, Control_c, 0, 67, 39
1, 23285, Control_c, 0, 67, 33
1, 23293, Note_on_c, 0, 77, 74
1, 23300, Control_c, 0, 67, 27
1, 23314, Control_c, 0, 67, 21
1, 23329, Control_c, 0, 64, 72
1, 23329, Control_c, 0, 67, 15
1, 23344, Control_c, 0, 64, 70
1, 23344, Control_c, 0, 67, 13
1, 23359, Control_c, 0, 64, 67
1, 23374, Control_c, 0, 64, 64
1, 23374, Control_c, 0, 67, 13
1, 23388, Control_c, 0, 64, 61
1, 23403, Control_c, 0, 64, 60
1, 23418, Control_c, 0, 64, 59
1, 23432, Control_c, 0, 64, 57
1, 23447, Control_c, 0, 64, 55
1, 23462, Control_c, 0, 64, 54
1, 23477, Control_c, 0, 64, 51
1, 23492, Control_c, 0, 64, 49
1, 23492, Control_c, 0, 67, 13
1, 23506, Control_c, 0, 64, 49
1, 23506, Control_c, 0, 67, 14
1, 23521, Control_c, 0, 64, 48
1, 23521, Control_c, 0, 67, 14
1, 23536, Control_c, 0, 64, 46
1, 23536, Control_c, 0, 67, 15
1, 23551, Control_c, 0, 64, 44
1, 23551, Control_c, 0, 67, 15
1, 23566, Control_c, 0, 64, 41
1, 23566, Control_c, 0, 67, 16
1, 23580, Control_c, 0, 64, 38
1, 23580, Control_c, 0, 67, 17
1, 23592, Note_on_c, 0, 75, 57
1, 23595, Control_c, 0, 64, 37
1, 23595, Control_c, 0, 67, 17
1, 23610, Control_c, 0, 64, 34
1, 23610, Control_c, 0, 67, 18
1, 23625, Control_c, 0, 64, 31
1, 23625, Control_c, 0, 67, 18
1, 23640, Control_c, 0, 64, 25
1, 23640, Control_c, 0, 67, 19
1, 23655, Control_c, 0, 64, 16
1, 23655, Control_c, 0, 67, 20
1, 23670, Control_c, 0, 64, 0
1, 23670, Control_c, 0, 67, 20
1, 23677, Note_off_c, 0, 77, 63
1, 23685, Control_c, 0, 67, 21
1, 23700, Control_c, 0, 67, 22
1, 23715, Control_c, 0, 67, 22
1, 23729, Control_c, 0, 67, 23
1, 23744, Control_c, 0, 67, 24
1, 23767, Control_c, 0, 67, 25
1, 23782, Control_c, 0, 67, 26
1, 23797, Control_c, 0, 67, 28
1, 23811, Control_c, 0, 67, 29
1, 23826, Control_c, 0, 67, 30
1, 23841, Control_c, 0, 67, 33
1, 23856, Control_c, 0, 67, 37
1, 23871, Control_c, 0, 67, 45
1, 23885, Control_c, 0, 64, 34
1, 23885, Control_c, 0, 67, 55
1, 23900, Control_c, 0, 64, 47
1, 23900, Control_c, 0, 67, 66
1, 23915, Control_c, 0, 64, 54
1, 23915, Control_c, 0, 67, 78
1, 23929, Control_c, 0, 64, 59
1, 23929, Control_c, 0, 67, 92
1, 23944, Control_c, 0, 64, 63
1, 23944, Control_c, 0, 67, 104
1, 23959, Control_c, 0, 64, 67
1, 23959, Control_c, 0, 67, 117
1, 23974, Control_c, 0, 64, 71
1, 23974, Control_c, 0, 67, 127
1, 23982, Note_off_c, 0, 75, 63
1, 23989, Control_c, 0, 64, 77
1, 24004, Control_c, 0, 64, 82
1, 24019, Control_c, 0, 64, 87
1, 24033, Control_c, 0, 64, 91
1, 24048, Control_c, 0, 64, 94
1, 24063, Control_c, 0, 64, 97
1, 24078, Control_c, 0, 64, 98
1, 24167, Control_c, 0, 64, 97
1, 24182, Control_c, 0, 64, 91
1, 24197, Control_c, 0, 64, 83
1, 24209, Note_on_c, 0, 73, 51
1, 24210, Control_c, 0, 64, 76
1, 24225, Control_c, 0, 64, 70
1, 24240, Control_c, 0, 64, 66
1, 24254, Control_c, 0, 64, 63
1, 24269, Control_c, 0, 64, 60
1, 24284, Control_c, 0, 64, 57
1, 24299, Control_c, 0, 64, 55
1, 24313, Note_off_c, 0, 73, 62
1, 24314, Control_c, 0, 64, 55
1, 24328, Note_on_c, 0, 72, 54
1, 24329, Control_c, 0, 64, 55
1, 24403, Control_c, 0, 64, 56
1, 24418, Control_c, 0, 64, 57
1, 24431, Note_off_c, 0, 72, 49
1, 24433, Control_c, 0, 64, 59
1, 24447, Control_c, 0, 64, 60
1, 24449, Note_on_c, 0, 70, 52
1, 24462, Control_c, 0, 64, 61
1, 24490, Note_off_c, 0, 70, 61
1, 24515, Control_c, 0, 64, 61
1, 24530, Control_c, 0, 64, 61
1, 24574, Control_c, 0, 64, 60
1, 24619, Control_c, 0, 64, 60
1, 24620, Note_on_c, 0, 70, 50
1, 24633, Control_c, 0, 64, 59
1, 24648, Control_c, 0, 64, 58
1, 24663, Control_c, 0, 64, 57
1, 24677, Control_c, 0, 64, 55
1, 24692, Control_c, 0, 64, 54
1, 24707, Control_c, 0, 64, 52
1, 24722, Control_c, 0, 64, 50
1, 24737, Control_c, 0, 64, 48
1, 24752, Control_c, 0, 64, 46
1, 24767, Control_c, 0, 64, 43
1, 24782, Control_c, 0, 64, 39
1, 24797, Control_c, 0, 64, 34
1, 24811, Control_c, 0, 64, 32
1, 24826, Control_c, 0, 64, 31
1, 24826, Control_c, 0, 67, 123
1, 24841, Control_c, 0, 64, 28
1, 24841, Control_c, 0, 67, 118
1, 24856, Control_c, 0, 64, 24
1, 24856, Control_c, 0, 67, 112
1, 24871, Control_c, 0, 64, 18
1, 24871, Control_c, 0, 67, 106
1, 24885, Control_c, 0, 64, 10
1, 24885, Control_c, 0, 67, 101
1, 24900, Control_c, 0, 64, 0
1, 24900, Control_c, 0, 67, 97
1, 24915, Control_c, 0, 67, 93
1, 24930, Control_c, 0, 67, 89
1, 24945, Control_c, 0, 67, 86
1, 24960, Control_c, 0, 67, 82
1, 24975, Control_c, 0, 67, 80
1, 24990, Control_c, 0, 67, 79
1, 25005, Control_c, 0, 67, 78
1, 25064, Control_c, 0, 67, 78
1, 25098, Note_on_c, 0, 69, 77
1, 25108, Control_c, 0, 67, 77
1, 25123, Control_c, 0, 67, 77
1, 25135, Note_on_c, 0, 63, 44
1, 25138, Control_c, 0, 67, 75
1, 25141, Note_on_c, 0, 60, 44
1, 25142, Note_on_c, 0, 53, 42
1, 25151, Note_off_c, 0, 70, 55
1, 25152, Control_c, 0, 67, 73
1, 25167, Control_c, 0, 64, 21
1, 25167, Control_c, 0, 67, 71
1, 25182, Control_c, 0, 64, 36
1, 25182, Control_c, 0, 67, 68
1, 25197, Control_c, 0, 64, 50
1, 25197, Control_c, 0, 67, 65
1, 25211, Control_c, 0, 64, 55
1, 25211, Control_c, 0, 67, 62
1, 25226, Control_c, 0, 64, 58
1, 25226, Control_c, 0, 67, 56
1, 25233, Note_on_c, 0, 65, 71
1, 25241, Control_c, 0, 64, 60
1, 25241, Control_c, 0, 67, 50
1, 25244, Note_off_c, 0, 69, 64
1, 25264, Note_off_c, 0, 65, 67
1, 25264, Control_c, 0, 64, 63
1, 25264, Control_c, 0, 67, 43
1, 25279, Control_c, 0, 64, 65
1, 25279, Control_c, 0, 67, 35
1, 25294, Control_c, 0, 64, 66
1, 25294, Control_c, 0, 67, 29
1, 25300, Note_off_c, 0, 63, 58
1, 25305, Note_off_c, 0, 60, 64
1, 25309, Control_c, 0, 64, 67
1, 25309, Control_c, 0, 67, 25
1, 25324, Control_c, 0, 64, 67
1, 25324, Control_c, 0, 67, 22
1, 25334, Note_off_c, 0, 53, 54
1, 25339, Control_c, 0, 67, 21
1, 25369, Control_c, 0, 67, 20
1, 25398, Control_c, 0, 67, 20
1, 25401, Note_on_c, 0, 67, 62
1, 25421, Note_off_c, 0, 67, 63
1, 25428, Control_c, 0, 67, 19
1, 25430, Note_on_c, 0, 65, 63
1, 25457, Control_c, 0, 64, 66
1, 25464, Note_off_c, 0, 65, 64
1, 25472, Control_c, 0, 64, 65
1, 25487, Control_c, 0, 64, 62
1, 25501, Control_c, 0, 64, 59
1, 25503, Note_on_c, 0, 64, 71
1, 25516, Control_c, 0, 64, 55
1, 25531, Control_c, 0, 64, 52
1, 25535, Note_off_c, 0, 64, 58
1, 25546, Control_c, 0, 64, 47
1, 25548, Note_on_c, 0, 65, 73
1, 25561, Control_c, 0, 64, 40
1, 25575, Control_c, 0, 64, 23
1, 25590, Control_c, 0, 64, 0
1, 25594, Note_off_c, 0, 65, 62
1, 25596, Note_on_c, 0, 70, 84
1, 25603, Note_on_c, 0, 58, 56
1, 25610, Note_on_c, 0, 53, 52
1, 25613, Note_on_c, 0, 62, 55
1, 25634, Control_c, 0, 67, 19
1, 25664, Control_c, 0, 67, 18
1, 25679, Control_c, 0, 67, 18
1, 25694, Control_c, 0, 64, 38
1, 25694, Control_c, 0, 67, 17
1, 25709, Control_c, 0, 64, 54
1, 25709, Control_c, 0, 67, 16
1, 25724, Control_c, 0, 64, 60
1, 25724, Control_c, 0, 67, 15
1, 25737, Note_on_c, 0, 65, 78
1, 25739, Control_c, 0, 64, 62
1, 25739, Control_c, 0, 67, 14
1, 25751, Note_off_c, 0, 70, 63
1, 25753, Control_c, 0, 64, 65
1, 25753, Control_c, 0, 67, 13
1, 25758, Note_off_c, 0, 65, 68
1, 25761, Note_off_c, 0, 62, 62
1, 25768, Control_c, 0, 64, 68
1, 25768, Control_c, 0, 67, 12
1, 25783, Control_c, 0, 64, 71
1, 25783, Control_c, 0, 67, 11
1, 25783, Note_off_c, 0, 53, 59
1, 25798, Control_c, 0, 64, 74
1, 25798, Note_off_c, 0, 58, 62
1, 25813, Control_c, 0, 64, 75
1, 25827, Control_c, 0, 64, 76
1, 25880, Note_on_c, 0, 67, 78
1, 25887, Control_c, 0, 64, 76
1, 25906, Note_off_c, 0, 67, 66
1, 25926, Note_on_c, 0, 65, 59
1, 25931, Control_c, 0, 64, 76
1, 25957, Note_off_c, 0, 65, 64
1, 25961, Control_c, 0, 64, 74
1, 25961, Control_c, 0, 67, 12
1, 25975, Control_c, 0, 64, 70
1, 25975, Control_c, 0, 67, 12
1, 25979, Note_on_c, 0, 64, 78
1, 25990, Control_c, 0, 64, 64
1, 25990, Control_c, 0, 67, 13
1, 26013, Control_c, 0, 64, 58
1, 26013, Control_c, 0, 67, 13
1, 26015, Note_off_c, 0, 64, 62
1, 26028, Note_on_c, 0, 65, 81
1, 26028, Control_c, 0, 64, 50
1, 26042, Control_c, 0, 64, 40
1, 26042, Control_c, 0, 67, 14
1, 26057, Control_c, 0, 64, 18
1, 26072, Control_c, 0, 64, 0
1, 26072, Control_c, 0, 67, 14
1, 26087, Control_c, 0, 67, 15
1, 26088, Note_on_c, 0, 72, 85
1, 26090, Note_off_c, 0, 65, 64
1, 26102, Control_c, 0, 67, 16
1, 26103, Note_on_c, 0, 63, 52
1, 26105, Note_on_c, 0, 53, 47
1, 26108, Note_on_c, 0, 57, 51
1, 26117, Control_c, 0, 67, 16
1, 26132, Control_c, 0, 67, 17
1, 26177, Control_c, 0, 64, 32
1, 26192, Control_c, 0, 64, 49
1, 26192, Control_c, 0, 67, 17
1, 26206, Control_c, 0, 64, 57
1, 26206, Control_c, 0, 67, 18
1, 26221, Control_c, 0, 64, 61
1, 26221, Control_c, 0, 67, 20
1, 26229, Note_on_c, 0, 65, 77
1, 26236, Control_c, 0, 64, 64
1, 26236, Control_c, 0, 67, 21
1, 26239, Note_off_c, 0, 72, 63
1, 26249, Note_off_c, 0, 65, 68
1, 26250, Control_c, 0, 64, 66
1, 26250, Control_c, 0, 67, 22
1, 26265, Control_c, 0, 64, 68
1, 26265, Control_c, 0, 67, 24
1, 26280, Control_c, 0, 64, 69
1, 26280, Control_c, 0, 67, 25
1, 26295, Control_c, 0, 64, 70
1, 26295, Control_c, 0, 67, 27
1, 26310, Control_c, 0, 67, 28
1, 26321, Note_off_c, 0, 63, 38
1, 26324, Control_c, 0, 67, 31
1, 26339, Control_c, 0, 67, 35
1, 26354, Control_c, 0, 67, 40
1, 26369, Control_c, 0, 67, 46
1, 26384, Control_c, 0, 67, 51
1, 26388, Note_on_c, 0, 67, 74
1, 26396, Note_off_c, 0, 57, 34
1, 26398, Control_c, 0, 64, 70
1, 26398, Control_c, 0, 67, 56
1, 26413, Control_c, 0, 64, 69
1, 26413, Control_c, 0, 67, 61
1, 26421, Note_off_c, 0, 67, 61
1, 26428, Control_c, 0, 64, 67
1, 26428, Control_c, 0, 67, 66
1, 26443, Control_c, 0, 64, 65
1, 26443, Control_c, 0, 67, 70
1, 26445, Note_on_c, 0, 65, 67
1, 26457, Control_c, 0, 64, 63
1, 26457, Control_c, 0, 67, 75
1, 26472, Control_c, 0, 64, 61
1, 26472, Control_c, 0, 67, 80
1, 26475, Note_off_c, 0, 65, 63
1, 26487, Control_c, 0, 64, 58
1, 26487, Control_c, 0, 67, 86
1, 26499, Note_on_c, 0, 64, 76
1, 26502, Control_c, 0, 64, 54
1, 26502, Control_c, 0, 67, 91
1, 26517, Control_c, 0, 64, 48
1, 26517, Control_c, 0, 67, 97
1, 26529, Note_off_c, 0, 64, 59
1, 26531, Note_off_c, 0, 53, 24
1, 26531, Control_c, 0, 64, 41
1, 26531, Control_c, 0, 67, 104
1, 26546, Control_c, 0, 64, 29
1, 26546, Control_c, 0, 67, 109
1, 26549, Note_on_c, 0, 65, 68
1, 26561, Control_c, 0, 64, 0
1, 26561, Control_c, 0, 67, 114
1, 26576, Control_c, 0, 67, 118
1, 26591, Control_c, 0, 67, 124
1, 26606, Control_c, 0, 67, 127
1, 26634, Note_on_c, 0, 74, 75
1, 26641, Note_on_c, 0, 62, 44
1, 26642, Note_on_c, 0, 58, 38
1, 26651, Note_off_c, 0, 65, 55
1, 26865, Control_c, 0, 64, 9
1, 26880, Control_c, 0, 64, 34
1, 26895, Control_c, 0, 64, 48
1, 26897, Note_off_c, 0, 74, 65
1, 26910, Control_c, 0, 64, 55
1, 26912, Note_off_c, 0, 62, 59
1, 26913, Note_off_c, 0, 58, 59
1, 26925, Control_c, 0, 64, 58
1, 26940, Control_c, 0, 64, 61
1, 26955, Control_c, 0, 64, 63
1, 26970, Control_c, 0, 64, 64
1, 27029, Control_c, 0, 64, 63
1, 27044, Control_c, 0, 64, 60
1, 27059, Control_c, 0, 64, 58
1, 27073, Control_c, 0, 64, 56
1, 27088, Control_c, 0, 64, 55
1, 27103, Control_c, 0, 64, 54
1, 27118, Control_c, 0, 64, 54
1, 27147, Control_c, 0, 64, 53
1, 27192, Control_c, 0, 64, 53
1, 27194, Note_on_c, 0, 76, 47
1, 27206, Control_c, 0, 64, 52
1, 27320, Note_off_c, 0, 76, 55
1, 27324, Note_on_c, 0, 77, 62
1, 27441, Note_off_c, 0, 77, 60
1, 27459, Control_c, 0, 64, 52
1, 27461, Note_on_c, 0, 79, 59
1, 27473, Control_c, 0, 64, 51
1, 27488, Control_c, 0, 64, 51
1, 27510, Control_c, 0, 64, 50
1, 27525, Control_c, 0, 64, 50
1, 27569, Control_c, 0, 64, 49
1, 27578, Note_on_c, 0, 77, 64
1, 27599, Control_c, 0, 64, 49
1, 27614, Control_c, 0, 64, 48
1, 27628, Control_c, 0, 64, 47
1, 27631, Note_off_c, 0, 79, 51
1, 27643, Control_c, 0, 64, 46
1, 27658, Control_c, 0, 64, 46
1, 27703, Note_on_c, 0, 75, 66
1, 27703, Control_c, 0, 64, 45
1, 27718, Control_c, 0, 64, 45
1, 27733, Control_c, 0, 64, 44
1, 27748, Control_c, 0, 64, 42
1, 27763, Control_c, 0, 64, 42
1, 27766, Note_off_c, 0, 77, 54
1, 27777, Control_c, 0, 64, 41
1, 27822, Note_on_c, 0, 74, 66
1, 27834, Note_off_c, 0, 75, 57
1, 27852, Control_c, 0, 64, 41
1, 27867, Control_c, 0, 64, 40
1, 27882, Control_c, 0, 64, 39
1, 27897, Control_c, 0, 64, 38
1, 27911, Control_c, 0, 64, 37
1, 27926, Control_c, 0, 64, 36
1, 27932, Note_off_c, 0, 74, 60
1, 27941, Control_c, 0, 64, 36
1, 27952, Note_on_c, 0, 72, 58
1, 27955, Control_c, 0, 64, 34
1, 27969, Control_c, 0, 64, 33
1, 27984, Control_c, 0, 64, 31
1, 27999, Control_c, 0, 64, 30
1, 28014, Control_c, 0, 64, 28
1, 28028, Control_c, 0, 64, 27
1, 28043, Control_c, 0, 64, 24
1, 28053, Note_off_c, 0, 72, 60
1, 28058, Control_c, 0, 64, 15
1, 28073, Control_c, 0, 64, 0
1, 28079, Note_on_c, 0, 70, 56
1, 28221, Note_on_c, 0, 69, 50
1, 28221, Control_c, 0, 64, 21
1, 28236, Control_c, 0, 64, 36
1, 28258, Control_c, 0, 64, 47
1, 28265, Note_off_c, 0, 70, 51
1, 28273, Control_c, 0, 64, 52
1, 28273, Control_c, 0, 67, 126
1, 28288, Control_c, 0, 64, 56
1, 28288, Control_c, 0, 67, 124
1, 28302, Note_off_c, 0, 69, 64
1, 28302, Control_c, 0, 64, 60
1, 28302, Control_c, 0, 67, 122
1, 28317, Control_c, 0, 64, 62
1, 28317, Control_c, 0, 67, 120
1, 28332, Control_c, 0, 64, 63
1, 28332, Control_c, 0, 67, 118
1, 28347, Control_c, 0, 64, 63
1, 28347, Control_c, 0, 67, 116
1, 28362, Control_c, 0, 64, 64
1, 28362, Control_c, 0, 67, 114
1, 28377, Control_c, 0, 67, 113
1, 28392, Control_c, 0, 67, 113
1, 28436, Control_c, 0, 64, 63
1, 28451, Control_c, 0, 64, 63
1, 28466, Control_c, 0, 64, 61
1, 28474, Note_on_c, 0, 72, 58
1, 28481, Control_c, 0, 64, 59
1, 28496, Control_c, 0, 64, 56
1, 28496, Control_c, 0, 67, 113
1, 28511, Control_c, 0, 64, 52
1, 28526, Control_c, 0, 64, 49
1, 28541, Control_c, 0, 64, 46
1, 28555, Control_c, 0, 64, 42
1, 28570, Control_c, 0, 64, 35
1, 28585, Control_c, 0, 64, 24
1, 28600, Control_c, 0, 64, 0
1, 28600, Control_c, 0, 67, 113
1, 28674, Control_c, 0, 67, 112
1, 28704, Control_c, 0, 67, 112
1, 28718, Control_c, 0, 67, 111
1, 28733, Control_c, 0, 64, 28
1, 28733, Control_c, 0, 67, 110
1, 28741, Note_on_c, 0, 70, 58
1, 28748, Control_c, 0, 64, 40
1, 28748, Control_c, 0, 67, 108
1, 28763, Control_c, 0, 64, 50
1, 28763, Control_c, 0, 67, 106
1, 28777, Control_c, 0, 64, 55
1, 28777, Control_c, 0, 67, 103
1, 28782, Note_off_c, 0, 72, 60
1, 28792, Control_c, 0, 64, 57
1, 28792, Control_c, 0, 67, 100
1, 28807, Control_c, 0, 64, 60
1, 28807, Control_c, 0, 67, 97
1, 28822, Control_c, 0, 64, 62
1, 28822, Control_c, 0, 67, 92
1, 28827, Note_off_c, 0, 70, 62
1, 28837, Control_c, 0, 64, 64
1, 28837, Control_c, 0, 67, 88
1, 28851, Control_c, 0, 64, 65
1, 28851, Control_c, 0, 67, 83
1, 28866, Control_c, 0, 64, 66
1, 28866, Control_c, 0, 67, 79
1, 28881, Control_c, 0, 64, 67
1, 28881, Control_c, 0, 67, 75
1, 28896, Control_c, 0, 67, 72
1, 28911, Control_c, 0, 67, 69
1, 28925, Control_c, 0, 67, 66
1, 28940, Control_c, 0, 67, 65
1, 28955, Control_c, 0, 67, 64
1, 28970, Control_c, 0, 64, 66
1, 28971, Note_on_c, 0, 75, 73
1, 28985, Control_c, 0, 64, 64
1, 28985, Control_c, 0, 67, 64
1, 29007, Control_c, 0, 64, 61
1, 29022, Control_c, 0, 64, 58
1, 29022, Control_c, 0, 67, 63
1, 29037, Control_c, 0, 64, 53
1, 29037, Control_c, 0, 67, 63
1, 29051, Control_c, 0, 64, 50
1, 29051, Control_c, 0, 67, 62
1, 29066, Control_c, 0, 64, 46
1, 29066, Control_c, 0, 67, 62
1, 29081, Control_c, 0, 64, 40
1, 29081, Control_c, 0, 67, 61
1, 29096, Control_c, 0, 64, 30
1, 29096, Control_c, 0, 67, 61
1, 29111, Control_c, 0, 64, 0
1, 29111, Control_c, 0, 67, 60
1, 29125, Control_c, 0, 67, 60
1, 29140, Control_c, 0, 67, 59
1, 29155, Control_c, 0, 67, 58
1, 29170, Control_c, 0, 67, 57
1, 29184, Control_c, 0, 67, 55
1, 29199, Control_c, 0, 67, 53
1, 29214, Control_c, 0, 67, 49
1, 29229, Control_c, 0, 67, 44
1, 29235, Note_on_c, 0, 74, 69
1, 29244, Control_c, 0, 64, 19
1, 29244, Control_c, 0, 67, 37
1, 29259, Control_c, 0, 64, 36
1, 29259, Control_c, 0, 67, 29
1, 29274, Control_c, 0, 64, 47
1, 29274, Control_c, 0, 67, 20
1, 29281, Note_off_c, 0, 75, 63
1, 29289, Control_c, 0, 64, 52
1, 29289, Control_c, 0, 67, 11
1, 29304, Control_c, 0, 64, 54
1, 29304, Control_c, 0, 67, 8
1, 29319, Control_c, 0, 64, 57
1, 29319, Control_c, 0, 67, 0
1, 29334, Control_c, 0, 64, 59
1, 29346, Note_off_c, 0, 74, 65
1, 29348, Control_c, 0, 64, 61
1, 29363, Control_c, 0, 64, 63
1, 29378, Control_c, 0, 64, 64
1, 29480, Note_on_c, 0, 79, 69
1, 29482, Control_c, 0, 64, 63
1, 29497, Control_c, 0, 64, 61
1, 29512, Control_c, 0, 64, 59
1, 29527, Control_c, 0, 64, 56
1, 29541, Control_c, 0, 64, 53
1, 29556, Control_c, 0, 64, 49
1, 29571, Control_c, 0, 64, 44
1, 29571, Control_c, 0, 67, 8
1, 29586, Control_c, 0, 64, 38
1, 29586, Control_c, 0, 67, 8
1, 29600, Control_c, 0, 64, 31
1, 29600, Control_c, 0, 67, 9
1, 29615, Control_c, 0, 64, 23
1, 29615, Control_c, 0, 67, 9
1, 29630, Control_c, 0, 64, 14
1, 29630, Control_c, 0, 67, 10
1, 29645, Control_c, 0, 64, 0
1, 29645, Control_c, 0, 67, 11
1, 29660, Control_c, 0, 67, 11
1, 29689, Control_c, 0, 67, 12
1, 29704, Control_c, 0, 67, 12
1, 29719, Control_c, 0, 67, 13
1, 29734, Control_c, 0, 67, 14
1, 29756, Control_c, 0, 67, 15
1, 29771, Control_c, 0, 67, 16
1, 29799, Note_on_c, 0, 77, 61
1, 29800, Control_c, 0, 67, 16
1, 29815, Control_c, 0, 67, 17
1, 29830, Control_c, 0, 67, 18
1, 29845, Control_c, 0, 67, 20
1, 29860, Control_c, 0, 67, 21
1, 29874, Control_c, 0, 67, 21
1, 29889, Control_c, 0, 67, 22
1, 29904, Control_c, 0, 67, 22
1, 29918, Control_c, 0, 67, 23
1, 29933, Note_off_c, 0, 79, 56
1, 29933, Control_c, 0, 67, 25
1, 29948, Control_c, 0, 67, 26
1, 29963, Control_c, 0, 67, 28
1, 29978, Control_c, 0, 67, 31
1, 29992, Control_c, 0, 67, 35
1, 30007, Control_c, 0, 67, 40
1, 30022, Control_c, 0, 64, 31
1, 30022, Control_c, 0, 67, 49
1, 30037, Control_c, 0, 64, 45
1, 30037, Control_c, 0, 67, 58
1, 30052, Control_c, 0, 64, 54
1, 30052, Control_c, 0, 67, 68
1, 30068, Control_c, 0, 64, 58
1, 30068, Control_c, 0, 67, 78
1, 30083, Control_c, 0, 64, 62
1, 30083, Control_c, 0, 67, 88
1, 30097, Control_c, 0, 64, 64
1, 30097, Control_c, 0, 67, 98
1, 30112, Control_c, 0, 64, 66
1, 30112, Control_c, 0, 67, 108
1, 30120, Note_off_c, 0, 77, 61
1, 30127, Control_c, 0, 64, 67
1, 30127, Control_c, 0, 67, 119
1, 30142, Control_c, 0, 64, 69
1, 30142, Control_c, 0, 67, 127
1, 30157, Control_c, 0, 64, 71
1, 30171, Control_c, 0, 64, 72
1, 30186, Control_c, 0, 64, 73
1, 30216, Control_c, 0, 64, 74
1, 30327, Note_on_c, 0, 75, 55
1, 30379, Control_c, 0, 64, 73
1, 30394, Control_c, 0, 64, 72
1, 30409, Control_c, 0, 64, 71
1, 30423, Control_c, 0, 64, 69
1, 30438, Control_c, 0, 64, 66
1, 30449, Note_on_c, 0, 74, 64
1, 30453, Control_c, 0, 64, 64
1, 30458, Note_off_c, 0, 75, 59
1, 30468, Control_c, 0, 64, 63
1, 30483, Control_c, 0, 64, 62
1, 30505, Control_c, 0, 64, 61
1, 30520, Control_c, 0, 64, 60
1, 30535, Control_c, 0, 64, 60
1, 30554, Note_off_c, 0, 74, 63
1, 30564, Control_c, 0, 64, 59
1, 30576, Note_on_c, 0, 72, 62
1, 30672, Note_off_c, 0, 72, 36
1, 30683, Control_c, 0, 64, 59
1, 30684, Note_on_c, 0, 70, 66
1, 30712, Control_c, 0, 64, 58
1, 30727, Control_c, 0, 64, 58
1, 30756, Control_c, 0, 64, 57
1, 30771, Control_c, 0, 64, 57
1, 30786, Control_c, 0, 64, 56
1, 30801, Control_c, 0, 64, 54
1, 30816, Control_c, 0, 64, 53
1, 30830, Control_c, 0, 64, 51
1, 30845, Note_on_c, 0, 68, 62
1, 30845, Control_c, 0, 64, 50
1, 30860, Control_c, 0, 64, 48
1, 30876, Control_c, 0, 64, 45
1, 30891, Control_c, 0, 64, 42
1, 30894, Note_on_c, 0, 65, 44
1, 30906, Control_c, 0, 64, 37
1, 30920, Control_c, 0, 64, 32
1, 30925, Note_off_c, 0, 70, 60
1, 30935, Control_c, 0, 64, 25
1, 30950, Control_c, 0, 64, 15
1, 30964, Control_c, 0, 64, 0
1, 31095, Note_on_c, 0, 46, 46
1, 31113, Control_c, 0, 64, 21
1, 31128, Control_c, 0, 64, 39
1, 31143, Control_c, 0, 64, 49
1, 31158, Control_c, 0, 64, 54
1, 31172, Control_c, 0, 64, 57
1, 31187, Control_c, 0, 64, 59
1, 31202, Control_c, 0, 64, 62
1, 31217, Control_c, 0, 64, 63
1, 31232, Control_c, 0, 64, 63
1, 31283, Control_c, 0, 64, 62
1, 31298, Control_c, 0, 64, 58
1, 31313, Control_c, 0, 64, 51
1, 31313, Note_off_c, 0, 46, 28
1, 31328, Control_c, 0, 64, 44
1, 31343, Control_c, 0, 64, 37
1, 31358, Note_on_c, 0, 50, 49
1, 31358, Control_c, 0, 64, 38
1, 31372, Control_c, 0, 64, 45
1, 31387, Control_c, 0, 64, 53
1, 31402, Control_c, 0, 64, 59
1, 31417, Control_c, 0, 64, 60
1, 31432, Control_c, 0, 64, 61
1, 31446, Control_c, 0, 64, 62
1, 31461, Control_c, 0, 64, 63
1, 31476, Control_c, 0, 64, 64
1, 31486, Note_off_c, 0, 50, 55
1, 31535, Control_c, 0, 64, 62
1, 31550, Control_c, 0, 64, 58
1, 31565, Control_c, 0, 64, 51
1, 31579, Control_c, 0, 64, 45
1, 31594, Control_c, 0, 64, 48
1, 31609, Control_c, 0, 64, 57
1, 31622, Note_on_c, 0, 53, 45
1, 31624, Control_c, 0, 64, 61
1, 31639, Control_c, 0, 64, 62
1, 31653, Control_c, 0, 64, 62
1, 31730, Note_off_c, 0, 53, 59
1, 31817, Control_c, 0, 64, 62
1, 31832, Control_c, 0, 64, 61
1, 31847, Control_c, 0, 64, 61
1, 31861, Control_c, 0, 64, 59
1, 31876, Control_c, 0, 64, 57
1, 31887, Note_on_c, 0, 58, 40
1, 31891, Control_c, 0, 64, 52
1, 31906, Control_c, 0, 64, 45
1, 31921, Control_c, 0, 64, 37
1, 31936, Control_c, 0, 64, 33
1, 31951, Control_c, 0, 64, 35
1, 31966, Control_c, 0, 64, 43
1, 31978, Note_off_c, 0, 65, 57
1, 31981, Control_c, 0, 64, 52
1, 32002, Control_c, 0, 64, 57
1, 32017, Control_c, 0, 64, 59
1, 32025, Note_off_c, 0, 68, 63
1, 32032, Control_c, 0, 64, 61
1, 32047, Control_c, 0, 64, 63
1, 32062, Control_c, 0, 64, 64
1, 32076, Control_c, 0, 64, 66
1, 32091, Control_c, 0, 64, 68
1, 32106, Control_c, 0, 64, 69
1, 32121, Control_c, 0, 64, 71
1, 32136, Control_c, 0, 64, 72
1, 32147, Note_on_c, 0, 68, 63
1, 32150, Control_c, 0, 64, 73
1, 32157, Note_on_c, 0, 65, 49
1, 32165, Control_c, 0, 64, 73
1, 32180, Note_off_c, 0, 65, 60
1, 32180, Control_c, 0, 64, 74
1, 32213, Note_off_c, 0, 68, 60
1, 32313, Control_c, 0, 64, 73
1, 32343, Control_c, 0, 64, 73
1, 32358, Control_c, 0, 64, 71
1, 32373, Control_c, 0, 64, 69
1, 32387, Control_c, 0, 64, 63
1, 32399, Note_on_c, 0, 70, 56
1, 32402, Note_on_c, 0, 67, 55
1, 32402, Control_c, 0, 64, 56
1, 32417, Control_c, 0, 64, 46
1, 32432, Control_c, 0, 64, 32
1, 32446, Control_c, 0, 64, 21
1, 32461, Control_c, 0, 64, 21
1, 32478, Control_c, 0, 64, 32
1, 32492, Control_c, 0, 64, 48
1, 32497, Note_off_c, 0, 67, 60
1, 32507, Control_c, 0, 64, 59
1, 32508, Note_on_c, 0, 68, 60
1, 32514, Note_on_c, 0, 65, 58
1, 32522, Control_c, 0, 64, 63
1, 32531, Note_off_c, 0, 70, 58
1, 32537, Control_c, 0, 64, 65
1, 32550, Note_off_c, 0, 65, 61
1, 32551, Control_c, 0, 64, 67
1, 32553, Note_off_c, 0, 68, 65
1, 32566, Control_c, 0, 64, 69
1, 32581, Control_c, 0, 64, 71
1, 32596, Control_c, 0, 64, 73
1, 32610, Control_c, 0, 64, 75
1, 32622, Note_on_c, 0, 67, 67
1, 32625, Control_c, 0, 64, 75
1, 32638, Note_on_c, 0, 63, 64
1, 32697, Note_off_c, 0, 58, 53
1, 32726, Note_on_c, 0, 65, 64
1, 32729, Note_off_c, 0, 63, 54
1, 32752, Note_on_c, 0, 62, 57
1, 32759, Note_off_c, 0, 67, 61
1, 32768, Note_off_c, 0, 65, 59
1, 32776, Note_off_c, 0, 62, 63
1, 32825, Control_c, 0, 64, 75
1, 32840, Control_c, 0, 64, 73
1, 32855, Control_c, 0, 64, 71
1, 32870, Control_c, 0, 64, 66
1, 32885, Control_c, 0, 64, 61
1, 32890, Note_on_c, 0, 66, 59
1, 32897, Note_on_c, 0, 62, 39
1, 32899, Control_c, 0, 64, 56
1, 32914, Control_c, 0, 64, 50
1, 32929, Control_c, 0, 64, 41
1, 32943, Control_c, 0, 64, 19
1, 32958, Control_c, 0, 64, 0
1, 33131, Note_on_c, 0, 46, 47
1, 33268, Note_off_c, 0, 46, 50
1, 33384, Note_on_c, 0, 67, 50
1, 33389, Note_on_c, 0, 51, 47
1, 33397, Note_on_c, 0, 63, 44
1, 33453, Note_off_c, 0, 62, 48
1, 33477, Note_off_c, 0, 66, 50
1, 33546, Note_off_c, 0, 51, 35
1, 33644, Note_on_c, 0, 55, 43
1, 33720, Note_off_c, 0, 55, 57
1, 33826, Control_c, 0, 64, 8
1, 33841, Control_c, 0, 64, 32
1, 33856, Control_c, 0, 64, 47
1, 33870, Control_c, 0, 64, 54
1, 33876, Note_off_c, 0, 63, 63
1, 33885, Control_c, 0, 64, 58
1, 33898, Note_on_c, 0, 58, 49
1, 33900, Control_c, 0, 64, 61
1, 33912, Note_off_c, 0, 67, 64
1, 33915, Control_c, 0, 64, 63
1, 33930, Control_c, 0, 64, 65
1, 33938, Note_off_c, 0, 58, 61
1, 33945, Control_c, 0, 64, 67
1, 33959, Control_c, 0, 64, 69
1, 33974, Control_c, 0, 64, 71
1, 33989, Control_c, 0, 64, 72
1, 34004, Control_c, 0, 64, 73
1, 34019, Control_c, 0, 64, 74
1, 34033, Control_c, 0, 64, 75
1, 34048, Control_c, 0, 64, 75
1, 34064, Control_c, 0, 64, 76
1, 34079, Control_c, 0, 64, 76
1, 34138, Control_c, 0, 64, 77
1, 34147, Note_on_c, 0, 82, 62
1, 34152, Note_on_c, 0, 79, 56
1, 34153, Control_c, 0, 64, 79
1, 34168, Control_c, 0, 64, 81
1, 34175, Note_off_c, 0, 79, 61
1, 34182, Control_c, 0, 64, 83
1, 34197, Control_c, 0, 64, 85
1, 34198, Note_off_c, 0, 82, 57
1, 34212, Control_c, 0, 64, 86
1, 34227, Control_c, 0, 64, 88
1, 34249, Control_c, 0, 64, 90
1, 34264, Control_c, 0, 64, 91
1, 34279, Control_c, 0, 64, 92
1, 34368, Control_c, 0, 64, 92
1, 34383, Control_c, 0, 64, 91
1, 34397, Control_c, 0, 64, 89
1, 34399, Note_on_c, 0, 84, 62
1, 34405, Note_on_c, 0, 80, 59
1, 34412, Control_c, 0, 64, 84
1, 34427, Control_c, 0, 64, 77
1, 34441, Control_c, 0, 64, 69
1, 34456, Control_c, 0, 64, 60
1, 34471, Control_c, 0, 64, 50
1, 34486, Control_c, 0, 64, 43
1, 34501, Note_off_c, 0, 80, 54
1, 34501, Control_c, 0, 64, 36
1, 34503, Note_on_c, 0, 82, 65
1, 34515, Control_c, 0, 64, 31
1, 34517, Note_on_c, 0, 79, 51
1, 34530, Control_c, 0, 64, 31
1, 34545, Control_c, 0, 64, 40
1, 34560, Control_c, 0, 64, 56
1, 34575, Control_c, 0, 64, 63
1, 34589, Control_c, 0, 64, 66
1, 34604, Control_c, 0, 64, 68
1, 34619, Control_c, 0, 64, 71
1, 34620, Note_off_c, 0, 84, 51
1, 34621, Note_on_c, 0, 80, 66
1, 34631, Note_on_c, 0, 77, 64
1, 34634, Control_c, 0, 64, 75
1, 34644, Note_off_c, 0, 79, 57
1, 34648, Control_c, 0, 64, 79
1, 34656, Note_off_c, 0, 82, 59
1, 34663, Control_c, 0, 64, 82
1, 34678, Note_off_c, 0, 80, 62
1, 34678, Control_c, 0, 64, 83
1, 34680, Note_off_c, 0, 77, 62
1, 34693, Control_c, 0, 64, 84
1, 34738, Note_on_c, 0, 79, 74
1, 34743, Note_on_c, 0, 76, 61
1, 34762, Note_off_c, 0, 76, 63
1, 34788, Note_off_c, 0, 79, 55
1, 34797, Control_c, 0, 64, 83
1, 34812, Control_c, 0, 64, 80
1, 34827, Control_c, 0, 64, 74
1, 34841, Control_c, 0, 64, 66
1, 34857, Control_c, 0, 64, 57
1, 34872, Control_c, 0, 64, 46
1, 34876, Note_on_c, 0, 79, 72
1, 34884, Note_on_c, 0, 76, 44
1, 34887, Control_c, 0, 64, 35
1, 34902, Control_c, 0, 64, 21
1, 34917, Control_c, 0, 64, 0
1, 35116, Note_on_c, 0, 46, 57
1, 35336, Note_off_c, 0, 46, 57
1, 35340, Note_on_c, 0, 80, 69
1, 35347, Note_on_c, 0, 50, 62
1, 35357, Note_on_c, 0, 77, 55
1, 35358, Note_off_c, 0, 76, 52
1, 35391, Note_off_c, 0, 79, 53
1, 35412, Note_off_c, 0, 50, 53
1, 35453, Note_on_c, 0, 46, 63
1, 35568, Note_on_c, 0, 53, 62
1, 35607, Note_off_c, 0, 46, 56
1, 35660, Note_off_c, 0, 53, 63
1, 35686, Note_on_c, 0, 50, 50
1, 35743, Note_off_c, 0, 50, 59
1, 35835, Control_c, 0, 64, 30
1, 35837, Note_on_c, 0, 58, 67
1, 35850, Control_c, 0, 64, 44
1, 35865, Control_c, 0, 64, 52
1, 35880, Control_c, 0, 64, 56
1, 35894, Control_c, 0, 64, 61
1, 35900, Note_off_c, 0, 77, 63
1, 35909, Control_c, 0, 64, 64
1, 35924, Control_c, 0, 64, 66
1, 35930, Note_off_c, 0, 58, 56
1, 35931, Note_off_c, 0, 80, 62
1, 35939, Control_c, 0, 64, 70
1, 35954, Control_c, 0, 64, 74
1, 35969, Control_c, 0, 64, 78
1, 35984, Control_c, 0, 64, 84
1, 35999, Control_c, 0, 64, 88
1, 36014, Control_c, 0, 64, 92
1, 36029, Control_c, 0, 64, 97
1, 36043, Control_c, 0, 64, 102
1, 36046, Note_on_c, 0, 80, 73
1, 36058, Control_c, 0, 64, 110
1, 36073, Control_c, 0, 64, 127
1, 36084, Note_on_c, 0, 77, 24
1, 36099, Note_off_c, 0, 80, 62
1, 36125, Note_off_c, 0, 77, 42
1, 36280, Control_c, 0, 64, 107
1, 36294, Control_c, 0, 64, 92
1, 36299, Note_on_c, 0, 82, 72
1, 36309, Control_c, 0, 64, 79
1, 36314, Note_on_c, 0, 78, 54
1, 36324, Control_c, 0, 64, 67
1, 36339, Control_c, 0, 64, 56
1, 36354, Control_c, 0, 64, 44
1, 36368, Control_c, 0, 64, 33
1, 36369, Note_off_c, 0, 78, 0
1, 36383, Control_c, 0, 64, 14
1, 36398, Control_c, 0, 64, 0
1, 36409, Note_on_c, 0, 80, 62
1, 36424, Poly_aftertouch_c, 0, 78, 0
1, 36428, Control_c, 0, 64, 34
1, 36435, Note_on_c, 0, 77, 60
1, 36437, Note_off_c, 0, 82, 61
1, 36443, Control_c, 0, 64, 52
1, 36458, Control_c, 0, 64, 60
1, 36461, Note_off_c, 0, 80, 62
1, 36473, Control_c, 0, 64, 62
1, 36496, Control_c, 0, 64, 64
1, 36503, Note_off_c, 0, 77, 55
1, 36510, Control_c, 0, 64, 67
1, 36525, Control_c, 0, 64, 70
1, 36540, Control_c, 0, 64, 74
1, 36553, Note_on_c, 0, 78, 63
1, 36555, Control_c, 0, 64, 78
1, 36570, Control_c, 0, 64, 80
1, 36571, Note_on_c, 0, 75, 52
1, 36584, Control_c, 0, 64, 81
1, 36599, Control_c, 0, 64, 83
1, 36614, Control_c, 0, 64, 84
1, 36641, Note_off_c, 0, 75, 47
1, 36644, Note_on_c, 0, 77, 65
1, 36678, Note_on_c, 0, 74, 46
1, 36682, Note_off_c, 0, 78, 57
1, 36704, Note_off_c, 0, 74, 53
1, 36705, Note_off_c, 0, 77, 57
1, 36717, Control_c, 0, 64, 81
1, 36732, Control_c, 0, 64, 77
1, 36747, Control_c, 0, 64, 70
1, 36762, Control_c, 0, 64, 64
1, 36777, Control_c, 0, 64, 58
1, 36792, Control_c, 0, 64, 54
1, 36798, Note_on_c, 0, 78, 63
1, 36807, Control_c, 0, 64, 52
1, 36819, Note_on_c, 0, 75, 44
1, 36822, Control_c, 0, 64, 50
1, 36836, Control_c, 0, 64, 48
1, 36851, Control_c, 0, 64, 43
1, 36866, Control_c, 0, 64, 37
1, 36881, Control_c, 0, 64, 29
1, 36896, Control_c, 0, 64, 20
1, 36910, Control_c, 0, 64, 0
1, 37040, Note_on_c, 0, 57, 50
1, 37058, Control_c, 0, 64, 18
1, 37073, Control_c, 0, 64, 38
1, 37088, Control_c, 0, 64, 51
1, 37103, Control_c, 0, 64, 57
1, 37113, Note_off_c, 0, 57, 54
1, 37115, Note_off_c, 0, 75, 35
1, 37117, Control_c, 0, 64, 60
1, 37132, Control_c, 0, 64, 63
1, 37147, Control_c, 0, 64, 66
1, 37161, Note_on_c, 0, 45, 54
1, 37162, Control_c, 0, 64, 69
1, 37162, Control_c, 0, 67, 126
1, 37177, Control_c, 0, 64, 72
1, 37177, Control_c, 0, 67, 123
1, 37183, Note_off_c, 0, 45, 59
1, 37191, Control_c, 0, 64, 76
1, 37191, Control_c, 0, 67, 120
1, 37206, Control_c, 0, 64, 78
1, 37206, Control_c, 0, 67, 117
1, 37221, Control_c, 0, 64, 80
1, 37221, Control_c, 0, 67, 114
1, 37243, Control_c, 0, 64, 81
1, 37243, Control_c, 0, 67, 110
1, 37259, Control_c, 0, 64, 82
1, 37259, Control_c, 0, 67, 105
1, 37274, Control_c, 0, 67, 100
1, 37289, Control_c, 0, 67, 95
1, 37304, Control_c, 0, 67, 89
1, 37319, Control_c, 0, 67, 85
1, 37333, Control_c, 0, 67, 80
1, 37339, Note_on_c, 0, 79, 71
1, 37348, Note_on_c, 0, 75, 54
1, 37348, Control_c, 0, 64, 81
1, 37348, Control_c, 0, 67, 78
1, 37363, Control_c, 0, 64, 79
1, 37363, Control_c, 0, 67, 75
1, 37378, Control_c, 0, 64, 75
1, 37378, Control_c, 0, 67, 72
1, 37393, Control_c, 0, 64, 70
1, 37393, Control_c, 0, 67, 70
1, 37407, Control_c, 0, 64, 64
1, 37407, Control_c, 0, 67, 68
1, 37422, Control_c, 0, 64, 56
1, 37422, Control_c, 0, 67, 66
1, 37430, Note_off_c, 0, 78, 62
1, 37437, Control_c, 0, 64, 51
1, 37437, Control_c, 0, 67, 65
1, 37452, Control_c, 0, 64, 45
1, 37452, Control_c, 0, 67, 65
1, 37466, Control_c, 0, 64, 36
1, 37466, Control_c, 0, 67, 64
1, 37481, Control_c, 0, 64, 16
1, 37496, Control_c, 0, 64, 0
1, 37496, Control_c, 0, 67, 63
1, 37526, Control_c, 0, 67, 62
1, 37540, Control_c, 0, 67, 61
1, 37555, Control_c, 0, 67, 59
1, 37562, Note_on_c, 0, 58, 57
1, 37570, Control_c, 0, 67, 55
1, 37585, Control_c, 0, 64, 35
1, 37585, Control_c, 0, 67, 49
1, 37600, Control_c, 0, 64, 50
1, 37600, Control_c, 0, 67, 39
1, 37612, Note_off_c, 0, 58, 49
1, 37614, Control_c, 0, 64, 58
1, 37614, Control_c, 0, 67, 23
1, 37629, Control_c, 0, 64, 62
1, 37629, Control_c, 0, 67, 0
1, 37644, Control_c, 0, 64, 65
1, 37659, Control_c, 0, 64, 69
1, 37667, Note_on_c, 0, 46, 57
1, 37668, Note_off_c, 0, 75, 60
1, 37674, Control_c, 0, 64, 73
1, 37689, Note_off_c, 0, 46, 52
1, 37689, Control_c, 0, 64, 79
1, 37704, Control_c, 0, 64, 83
1, 37719, Control_c, 0, 64, 87
1, 37734, Control_c, 0, 64, 91
1, 37749, Control_c, 0, 64, 94
1, 37764, Control_c, 0, 64, 94
1, 37811, Note_on_c, 0, 80, 79
1, 37823, Control_c, 0, 64, 93
1, 37825, Note_on_c, 0, 75, 57
1, 37838, Control_c, 0, 64, 88
1, 37852, Control_c, 0, 64, 81
1, 37867, Control_c, 0, 64, 72
1, 37882, Control_c, 0, 64, 64
1, 37897, Control_c, 0, 64, 58
1, 37912, Note_off_c, 0, 79, 45
1, 37912, Control_c, 0, 64, 53
1, 37926, Control_c, 0, 64, 47
1, 37941, Control_c, 0, 64, 37
1, 37956, Control_c, 0, 64, 0
1, 38038, Control_c, 0, 64, 39
1, 38044, Note_on_c, 0, 60, 72
1, 38053, Control_c, 0, 64, 54
1, 38056, Note_off_c, 0, 75, 60
1, 38068, Control_c, 0, 64, 62
1, 38082, Note_off_c, 0, 60, 66
1, 38083, Control_c, 0, 64, 66
1, 38097, Control_c, 0, 64, 70
1, 38112, Control_c, 0, 64, 75
1, 38127, Control_c, 0, 64, 81
1, 38142, Control_c, 0, 64, 84
1, 38157, Control_c, 0, 64, 87
1, 38163, Note_on_c, 0, 48, 78
1, 38172, Control_c, 0, 64, 88
1, 38187, Control_c, 0, 64, 90
1, 38188, Note_off_c, 0, 48, 66
1, 38202, Control_c, 0, 64, 91
1, 38276, Control_c, 0, 64, 90
1, 38290, Control_c, 0, 64, 85
1, 38305, Note_on_c, 0, 81, 88
1, 38305, Control_c, 0, 64, 77
1, 38320, Control_c, 0, 64, 68
1, 38320, Control_c, 0, 67, 8
1, 38324, Note_off_c, 0, 80, 63
1, 38324, Note_on_c, 0, 75, 66
1, 38335, Control_c, 0, 64, 58
1, 38335, Control_c, 0, 67, 8
1, 38350, Control_c, 0, 64, 49
1, 38350, Control_c, 0, 67, 9
1, 38364, Control_c, 0, 64, 40
1, 38379, Control_c, 0, 64, 27
1, 38394, Control_c, 0, 64, 0
1, 38394, Control_c, 0, 67, 9
1, 38408, Control_c, 0, 67, 10
1, 38423, Control_c, 0, 67, 11
1, 38438, Control_c, 0, 67, 13
1, 38453, Control_c, 0, 67, 15
1, 38468, Control_c, 0, 67, 17
1, 38482, Control_c, 0, 67, 19
1, 38497, Control_c, 0, 67, 21
1, 38512, Control_c, 0, 64, 34
1, 38512, Control_c, 0, 67, 23
1, 38527, Control_c, 0, 64, 52
1, 38527, Control_c, 0, 67, 26
1, 38534, Note_on_c, 0, 59, 79
1, 38542, Control_c, 0, 64, 58
1, 38542, Control_c, 0, 67, 28
1, 38550, Note_off_c, 0, 75, 62
1, 38556, Control_c, 0, 64, 62
1, 38556, Control_c, 0, 67, 30
1, 38571, Control_c, 0, 64, 66
1, 38571, Control_c, 0, 67, 33
1, 38576, Note_off_c, 0, 81, 60
1, 38586, Note_off_c, 0, 59, 64
1, 38586, Control_c, 0, 64, 70
1, 38586, Control_c, 0, 67, 36
1, 38601, Control_c, 0, 64, 75
1, 38601, Control_c, 0, 67, 41
1, 38616, Control_c, 0, 64, 82
1, 38616, Control_c, 0, 67, 48
1, 38631, Control_c, 0, 64, 91
1, 38631, Control_c, 0, 67, 56
1, 38646, Control_c, 0, 64, 98
1, 38646, Control_c, 0, 67, 62
1, 38652, Note_on_c, 0, 47, 79
1, 38661, Control_c, 0, 64, 106
1, 38661, Control_c, 0, 67, 68
1, 38675, Control_c, 0, 64, 114
1, 38675, Control_c, 0, 67, 73
1, 38682, Note_off_c, 0, 47, 67
1, 38690, Control_c, 0, 64, 117
1, 38690, Control_c, 0, 67, 79
1, 38705, Control_c, 0, 67, 87
1, 38720, Control_c, 0, 67, 97
1, 38742, Control_c, 0, 67, 107
1, 38756, Control_c, 0, 64, 112
1, 38756, Control_c, 0, 67, 118
1, 38771, Control_c, 0, 64, 99
1, 38771, Control_c, 0, 67, 127
1, 38786, Control_c, 0, 64, 84
1, 38798, Note_on_c, 0, 46, 78
1, 38801, Control_c, 0, 64, 68
1, 38816, Control_c, 0, 64, 53
1, 38831, Control_c, 0, 64, 27
1, 38846, Control_c, 0, 64, 0
1, 38920, Note_on_c, 0, 58, 78
1, 38920, Control_c, 0, 64, 39
1, 38928, Note_off_c, 0, 46, 64
1, 38935, Control_c, 0, 64, 57
1, 38950, Control_c, 0, 64, 64
1, 38958, Note_off_c, 0, 58, 64
1, 38965, Control_c, 0, 64, 67
1, 38980, Control_c, 0, 64, 71
1, 38995, Control_c, 0, 64, 77
1, 39010, Control_c, 0, 64, 84
1, 39024, Control_c, 0, 64, 89
1, 39032, Note_on_c, 0, 74, 73
1, 39039, Control_c, 0, 64, 92
1, 39054, Control_c, 0, 64, 93
1, 39066, Note_off_c, 0, 74, 61
1, 39113, Control_c, 0, 64, 91
1, 39128, Control_c, 0, 64, 84
1, 39143, Control_c, 0, 64, 73
1, 39145, Note_on_c, 0, 82, 76
1, 39158, Control_c, 0, 64, 63
1, 39173, Control_c, 0, 64, 51
1, 39186, Control_c, 0, 64, 39
1, 39201, Control_c, 0, 64, 29
1, 39216, Control_c, 0, 64, 18
1, 39230, Control_c, 0, 64, 0
1, 39257, Note_on_c, 0, 80, 69
1, 39293, Note_off_c, 0, 82, 51
1, 39369, Note_on_c, 0, 79, 71
1, 39380, Note_off_c, 0, 80, 58
1, 39470, Note_off_c, 0, 79, 62
1, 39491, Note_on_c, 0, 77, 69
1, 39603, Note_on_c, 0, 75, 72
1, 39620, Note_off_c, 0, 77, 54
1, 39713, Note_on_c, 0, 74, 74
1, 39738, Note_off_c, 0, 75, 61
1, 39808, Note_off_c, 0, 74, 65
1, 39817, Note_on_c, 0, 72, 71
1, 39847, Control_c, 0, 67, 126
1, 39861, Control_c, 0, 67, 126
1, 39876, Control_c, 0, 67, 125
1, 39891, Control_c, 0, 67, 124
1, 39906, Control_c, 0, 67, 123
1, 39921, Control_c, 0, 67, 121
1, 39935, Control_c, 0, 67, 120
1, 39938, Note_on_c, 0, 70, 76
1, 39950, Control_c, 0, 67, 120
1, 39957, Note_off_c, 0, 72, 56
1, 39965, Control_c, 0, 67, 119
1, 39979, Control_c, 0, 67, 118
1, 39994, Control_c, 0, 67, 117
1, 40009, Control_c, 0, 67, 116
1, 40024, Control_c, 0, 67, 114
1, 40039, Control_c, 0, 67, 113
1, 40040, Note_on_c, 0, 68, 79
1, 40053, Control_c, 0, 67, 111
1, 40068, Control_c, 0, 67, 109
1, 40083, Control_c, 0, 67, 107
1, 40094, Note_off_c, 0, 70, 58
1, 40098, Control_c, 0, 64, 8
1, 40098, Control_c, 0, 67, 104
1, 40113, Control_c, 0, 64, 10
1, 40113, Control_c, 0, 67, 101
1, 40127, Control_c, 0, 67, 98
1, 40142, Control_c, 0, 67, 94
1, 40154, Note_on_c, 0, 67, 80
1, 40157, Control_c, 0, 67, 90
1, 40172, Control_c, 0, 67, 87
1, 40173, Note_off_c, 0, 68, 62
1, 40187, Control_c, 0, 67, 83
1, 40202, Control_c, 0, 67, 80
1, 40217, Control_c, 0, 67, 76
1, 40239, Control_c, 0, 64, 9
1, 40239, Control_c, 0, 67, 73
1, 40254, Control_c, 0, 67, 71
1, 40256, Note_off_c, 0, 67, 64
1, 40260, Note_on_c, 0, 65, 68
1, 40268, Control_c, 0, 67, 70
1, 40283, Control_c, 0, 64, 10
1, 40283, Control_c, 0, 67, 69
1, 40298, Control_c, 0, 67, 68
1, 40313, Control_c, 0, 64, 9
1, 40313, Control_c, 0, 67, 67
1, 40327, Control_c, 0, 64, 8
1, 40327, Control_c, 0, 67, 67
1, 40342, Control_c, 0, 67, 66
1, 40357, Control_c, 0, 67, 65
1, 40372, Control_c, 0, 67, 65
1, 40381, Note_on_c, 0, 63, 78
1, 40402, Control_c, 0, 67, 64
1, 40413, Note_off_c, 0, 65, 58
1, 40417, Control_c, 0, 64, 9
1, 40417, Control_c, 0, 67, 64
1, 40431, Control_c, 0, 64, 10
1, 40446, Control_c, 0, 64, 13
1, 40462, Control_c, 0, 64, 16
1, 40476, Control_c, 0, 64, 18
1, 40491, Control_c, 0, 64, 20
1, 40494, Note_on_c, 0, 62, 79
1, 40506, Control_c, 0, 64, 21
1, 40521, Control_c, 0, 64, 21
1, 40536, Control_c, 0, 64, 22
1, 40567, Note_off_c, 0, 63, 58
1, 40610, Control_c, 0, 67, 64
1, 40625, Control_c, 0, 64, 21
1, 40627, Note_on_c, 0, 60, 79
1, 40647, Note_off_c, 0, 62, 60
1, 40655, Control_c, 0, 64, 21
1, 40655, Control_c, 0, 67, 65
1, 40670, Control_c, 0, 64, 20
1, 40699, Control_c, 0, 67, 65
1, 40714, Control_c, 0, 64, 20
1, 40714, Control_c, 0, 67, 66
1, 40729, Control_c, 0, 64, 19
1, 40739, Note_on_c, 0, 58, 72
1, 40744, Control_c, 0, 64, 19
1, 40744, Control_c, 0, 67, 66
1, 40758, Control_c, 0, 64, 17
1, 40758, Control_c, 0, 67, 67
1, 40773, Control_c, 0, 64, 13
1, 40788, Control_c, 0, 64, 11
1, 40788, Control_c, 0, 67, 67
1, 40802, Control_c, 0, 64, 8
1, 40817, Control_c, 0, 64, 0
1, 40862, Note_off_c, 0, 60, 49
1, 40863, Note_on_c, 0, 56, 75
1, 40921, Control_c, 0, 67, 67
1, 40939, Note_off_c, 0, 58, 61
1, 40983, Note_on_c, 0, 84, 79
1, 41017, Control_c, 0, 67, 67
1, 41080, Note_off_c, 0, 56, 63
1, 41091, Control_c, 0, 67, 68
1, 41106, Control_c, 0, 67, 68
1, 41110, Note_on_c, 0, 82, 79
1, 41121, Control_c, 0, 67, 69
1, 41135, Control_c, 0, 67, 70
1, 41150, Control_c, 0, 67, 70
1, 41165, Control_c, 0, 67, 71
1, 41180, Control_c, 0, 67, 71
1, 41195, Control_c, 0, 67, 72
1, 41209, Control_c, 0, 67, 73
1, 41212, Note_on_c, 0, 80, 75
1, 41224, Control_c, 0, 67, 74
1, 41239, Control_c, 0, 67, 75
1, 41255, Control_c, 0, 67, 76
1, 41270, Control_c, 0, 67, 77
1, 41285, Control_c, 0, 67, 78
1, 41299, Control_c, 0, 67, 81
1, 41305, Note_off_c, 0, 84, 36
1, 41314, Control_c, 0, 67, 85
1, 41324, Note_on_c, 0, 79, 69
1, 41329, Control_c, 0, 67, 89
1, 41344, Control_c, 0, 67, 93
1, 41357, Note_off_c, 0, 80, 54
1, 41358, Control_c, 0, 67, 96
1, 41364, Note_off_c, 0, 82, 34
1, 41373, Control_c, 0, 67, 100
1, 41388, Control_c, 0, 67, 103
1, 41403, Control_c, 0, 67, 107
1, 41418, Control_c, 0, 67, 112
1, 41431, Note_on_c, 0, 77, 67
1, 41432, Note_off_c, 0, 79, 62
1, 41433, Control_c, 0, 67, 116
1, 41448, Control_c, 0, 67, 121
1, 41463, Control_c, 0, 67, 125
1, 41478, Control_c, 0, 67, 127
1, 41548, Note_off_c, 0, 77, 60
1, 41561, Note_on_c, 0, 76, 62
1, 41640, Note_off_c, 0, 76, 60
1, 41675, Note_on_c, 0, 77, 54
1, 41776, Note_off_c, 0, 77, 53
1, 41797, Note_on_c, 0, 78, 60
1, 41890, Note_off_c, 0, 78, 60
1, 41905, Note_on_c, 0, 77, 55
1, 42005, Note_off_c, 0, 77, 56
1, 42023, Note_on_c, 0, 79, 56
1, 42064, Control_c, 0, 64, 10
1, 42079, Control_c, 0, 64, 22
1, 42094, Control_c, 0, 64, 32
1, 42108, Note_off_c, 0, 79, 59
1, 42109, Control_c, 0, 64, 38
1, 42123, Control_c, 0, 64, 43
1, 42134, Note_on_c, 0, 77, 53
1, 42138, Control_c, 0, 64, 44
1, 42153, Control_c, 0, 64, 45
1, 42212, Control_c, 0, 64, 44
1, 42227, Control_c, 0, 64, 42
1, 42229, Note_off_c, 0, 77, 54
1, 42242, Control_c, 0, 64, 39
1, 42248, Note_on_c, 0, 80, 61
1, 42256, Control_c, 0, 64, 34
1, 42271, Control_c, 0, 64, 33
1, 42286, Control_c, 0, 64, 38
1, 42301, Control_c, 0, 64, 48
1, 42316, Control_c, 0, 64, 52
1, 42330, Control_c, 0, 64, 54
1, 42345, Control_c, 0, 64, 55
1, 42352, Note_off_c, 0, 80, 60
1, 42354, Note_on_c, 0, 77, 60
1, 42360, Control_c, 0, 64, 56
1, 42375, Control_c, 0, 64, 57
1, 42435, Control_c, 0, 64, 57
1, 42449, Control_c, 0, 64, 55
1, 42463, Note_off_c, 0, 77, 62
1, 42464, Control_c, 0, 64, 51
1, 42479, Note_on_c, 0, 76, 66
1, 42486, Control_c, 0, 64, 45
1, 42500, Control_c, 0, 64, 43
1, 42515, Control_c, 0, 64, 49
1, 42530, Control_c, 0, 64, 54
1, 42545, Control_c, 0, 64, 57
1, 42557, Note_off_c, 0, 76, 59
1, 42560, Control_c, 0, 64, 58
1, 42575, Control_c, 0, 64, 58
1, 42584, Note_on_c, 0, 77, 60
1, 42590, Control_c, 0, 64, 59
1, 42649, Control_c, 0, 64, 57
1, 42664, Control_c, 0, 64, 54
1, 42679, Control_c, 0, 64, 49
1, 42694, Control_c, 0, 64, 41
1, 42697, Note_on_c, 0, 78, 72
1, 42697, Note_off_c, 0, 77, 59
1, 42708, Control_c, 0, 64, 33
1, 42723, Control_c, 0, 64, 35
1, 42738, Control_c, 0, 64, 45
1, 42753, Control_c, 0, 64, 53
1, 42768, Control_c, 0, 64, 56
1, 42782, Control_c, 0, 64, 58
1, 42797, Control_c, 0, 64, 59
1, 42805, Note_on_c, 0, 77, 70
1, 42812, Control_c, 0, 64, 61
1, 42813, Note_off_c, 0, 78, 61
1, 42827, Control_c, 0, 64, 62
1, 42887, Control_c, 0, 64, 61
1, 42902, Control_c, 0, 64, 57
1, 42915, Note_on_c, 0, 79, 75
1, 42917, Control_c, 0, 64, 50
1, 42926, Note_off_c, 0, 77, 58
1, 42930, Control_c, 0, 64, 39
1, 42945, Control_c, 0, 64, 31
1, 42960, Control_c, 0, 64, 35
1, 42975, Control_c, 0, 64, 47
1, 42990, Control_c, 0, 64, 55
1, 43004, Control_c, 0, 64, 58
1, 43019, Note_off_c, 0, 79, 63
1, 43019, Control_c, 0, 64, 60
1, 43028, Note_on_c, 0, 77, 73
1, 43034, Control_c, 0, 64, 61
1, 43049, Control_c, 0, 64, 61
1, 43093, Control_c, 0, 64, 60
1, 43108, Control_c, 0, 64, 55
1, 43123, Control_c, 0, 64, 46
1, 43136, Note_on_c, 0, 80, 76
1, 43138, Control_c, 0, 64, 37
1, 43150, Note_off_c, 0, 77, 56
1, 43153, Control_c, 0, 64, 36
1, 43168, Control_c, 0, 64, 47
1, 43183, Control_c, 0, 64, 57
1, 43197, Control_c, 0, 64, 61
1, 43212, Control_c, 0, 64, 62
1, 43234, Control_c, 0, 64, 63
1, 43248, Note_on_c, 0, 77, 73
1, 43249, Control_c, 0, 64, 64
1, 43263, Note_off_c, 0, 80, 61
1, 43308, Control_c, 0, 64, 64
1, 43323, Control_c, 0, 64, 61
1, 43338, Control_c, 0, 64, 54
1, 43353, Control_c, 0, 64, 42
1, 43363, Note_on_c, 0, 76, 81
1, 43368, Control_c, 0, 64, 22
1, 43379, Note_off_c, 0, 77, 60
1, 43383, Control_c, 0, 64, 0
1, 43412, Control_c, 0, 64, 32
1, 43427, Control_c, 0, 64, 47
1, 43442, Control_c, 0, 64, 56
1, 43457, Control_c, 0, 64, 61
1, 43466, Note_off_c, 0, 76, 63
1, 43471, Note_on_c, 0, 77, 81
1, 43472, Control_c, 0, 64, 62
1, 43486, Control_c, 0, 64, 62
1, 43545, Control_c, 0, 64, 61
1, 43560, Control_c, 0, 64, 58
1, 43570, Note_on_c, 0, 78, 78
1, 43575, Control_c, 0, 64, 51
1, 43580, Note_off_c, 0, 77, 61
1, 43590, Control_c, 0, 64, 38
1, 43604, Control_c, 0, 64, 0
1, 43650, Control_c, 0, 64, 26
1, 43665, Control_c, 0, 64, 40
1, 43677, Note_on_c, 0, 77, 79
1, 43679, Control_c, 0, 64, 52
1, 43684, Note_off_c, 0, 78, 63
1, 43694, Control_c, 0, 64, 61
1, 43708, Control_c, 0, 64, 64
1, 43723, Control_c, 0, 64, 64
1, 43767, Control_c, 0, 64, 63
1, 43781, Note_on_c, 0, 79, 78
1, 43782, Control_c, 0, 64, 61
1, 43797, Note_off_c, 0, 77, 61
1, 43797, Control_c, 0, 64, 59
1, 43812, Control_c, 0, 64, 56
1, 43827, Control_c, 0, 64, 53
1, 43842, Control_c, 0, 64, 55
1, 43856, Control_c, 0, 64, 60
1, 43871, Control_c, 0, 64, 63
1, 43886, Control_c, 0, 64, 63
1, 43887, Note_off_c, 0, 79, 64
1, 43890, Note_on_c, 0, 77, 84
1, 43916, Control_c, 0, 67, 125
1, 43931, Control_c, 0, 67, 121
1, 43945, Control_c, 0, 67, 116
1, 43960, Control_c, 0, 64, 63
1, 43960, Control_c, 0, 67, 110
1, 43982, Control_c, 0, 64, 62
1, 43982, Control_c, 0, 67, 103
1, 43997, Control_c, 0, 64, 61
1, 43997, Control_c, 0, 67, 98
1, 44006, Note_on_c, 0, 80, 80
1, 44012, Control_c, 0, 64, 60
1, 44012, Control_c, 0, 67, 92
1, 44018, Note_off_c, 0, 77, 62
1, 44026, Control_c, 0, 64, 59
1, 44026, Control_c, 0, 67, 86
1, 44041, Control_c, 0, 64, 58
1, 44041, Control_c, 0, 67, 81
1, 44056, Control_c, 0, 64, 57
1, 44056, Control_c, 0, 67, 75
1, 44071, Control_c, 0, 64, 56
1, 44071, Control_c, 0, 67, 67
1, 44086, Control_c, 0, 64, 55
1, 44086, Control_c, 0, 67, 59
1, 44101, Control_c, 0, 67, 51
1, 44110, Note_on_c, 0, 77, 81
1, 44116, Control_c, 0, 64, 56
1, 44116, Control_c, 0, 67, 43
1, 44131, Control_c, 0, 67, 36
1, 44134, Note_off_c, 0, 80, 61
1, 44145, Control_c, 0, 64, 56
1, 44145, Control_c, 0, 67, 31
1, 44160, Control_c, 0, 64, 57
1, 44160, Control_c, 0, 67, 27
1, 44175, Control_c, 0, 67, 24
1, 44190, Control_c, 0, 64, 57
1, 44190, Control_c, 0, 67, 23
1, 44205, Control_c, 0, 67, 23
1, 44238, Note_on_c, 0, 75, 79
1, 44278, Control_c, 0, 64, 57
1, 44278, Control_c, 0, 67, 23
1, 44293, Control_c, 0, 64, 56
1, 44293, Control_c, 0, 67, 24
1, 44308, Control_c, 0, 64, 55
1, 44308, Control_c, 0, 67, 26
1, 44319, Note_off_c, 0, 77, 55
1, 44323, Control_c, 0, 64, 55
1, 44323, Control_c, 0, 67, 28
1, 44338, Control_c, 0, 64, 53
1, 44338, Control_c, 0, 67, 30
1, 44352, Control_c, 0, 64, 52
1, 44352, Control_c, 0, 67, 32
1, 44367, Control_c, 0, 64, 51
1, 44367, Control_c, 0, 67, 34
1, 44382, Control_c, 0, 64, 50
1, 44382, Control_c, 0, 67, 36
1, 44397, Control_c, 0, 64, 50
1, 44397, Control_c, 0, 67, 39
1, 44412, Control_c, 0, 64, 49
1, 44412, Control_c, 0, 67, 44
1, 44427, Control_c, 0, 64, 48
1, 44427, Control_c, 0, 67, 52
1, 44443, Control_c, 0, 64, 47
1, 44443, Control_c, 0, 67, 60
1, 44458, Control_c, 0, 64, 46
1, 44458, Control_c, 0, 67, 67
1, 44471, Note_on_c, 0, 68, 55
1, 44473, Control_c, 0, 64, 45
1, 44473, Control_c, 0, 67, 73
1, 44474, Note_on_c, 0, 65, 53
1, 44482, Note_on_c, 0, 58, 41
1, 44488, Control_c, 0, 64, 43
1, 44488, Control_c, 0, 67, 77
1, 44502, Control_c, 0, 64, 42
1, 44502, Control_c, 0, 67, 81
1, 44503, Note_off_c, 0, 68, 65
1, 44506, Note_off_c, 0, 65, 63
1, 44517, Control_c, 0, 64, 40
1, 44517, Control_c, 0, 67, 84
1, 44519, Note_off_c, 0, 58, 62
1, 44532, Control_c, 0, 64, 38
1, 44532, Control_c, 0, 67, 86
1, 44547, Control_c, 0, 64, 37
1, 44547, Control_c, 0, 67, 88
1, 44562, Control_c, 0, 64, 37
1, 44562, Control_c, 0, 67, 89
1, 44576, Control_c, 0, 67, 90
1, 44591, Control_c, 0, 67, 91
1, 44606, Control_c, 0, 67, 92
1, 44636, Control_c, 0, 64, 36
1, 44680, Control_c, 0, 64, 36
1, 44685, Note_on_c, 0, 58, 46
1, 44687, Note_on_c, 0, 65, 56
1, 44690, Note_on_c, 0, 68, 57
1, 44709, Control_c, 0, 64, 35
1, 44727, Note_off_c, 0, 68, 65
1, 44732, Control_c, 0, 67, 91
1, 44736, Note_off_c, 0, 65, 62
1, 44741, Note_off_c, 0, 58, 59
1, 44747, Control_c, 0, 64, 35
1, 44776, Control_c, 0, 64, 34
1, 44791, Control_c, 0, 67, 91
1, 44836, Control_c, 0, 67, 90
1, 44880, Control_c, 0, 67, 90
1, 44909, Control_c, 0, 64, 34
1, 44924, Control_c, 0, 64, 33
1, 44931, Note_on_c, 0, 65, 56
1, 44933, Note_on_c, 0, 68, 56
1, 44937, Note_on_c, 0, 58, 52
1, 44954, Control_c, 0, 64, 33
1, 44962, Note_off_c, 0, 68, 54
1, 44968, Note_off_c, 0, 65, 63
1, 44975, Note_off_c, 0, 58, 61
1, 44983, Control_c, 0, 64, 32
1, 45013, Control_c, 0, 64, 31
1, 45028, Control_c, 0, 64, 30
1, 45043, Control_c, 0, 64, 29
1, 45058, Control_c, 0, 64, 28
1, 45073, Control_c, 0, 64, 27
1, 45073, Control_c, 0, 67, 90
1, 45088, Control_c, 0, 64, 26
1, 45102, Control_c, 0, 64, 26
1, 45117, Control_c, 0, 64, 25
1, 45117, Control_c, 0, 67, 91
1, 45132, Control_c, 0, 64, 24
1, 45147, Control_c, 0, 64, 23
1, 45147, Control_c, 0, 67, 91
1, 45162, Control_c, 0, 67, 92
1, 45166, Note_on_c, 0, 68, 57
1, 45168, Note_on_c, 0, 65, 51
1, 45175, Control_c, 0, 67, 93
1, 45177, Note_on_c, 0, 58, 47
1, 45190, Control_c, 0, 67, 93
1, 45205, Control_c, 0, 67, 95
1, 45214, Note_off_c, 0, 75, 63
1, 45219, Control_c, 0, 67, 98
1, 45234, Control_c, 0, 64, 24
1, 45234, Control_c, 0, 67, 100
1, 45240, Note_on_c, 0, 74, 62
1, 45251, Control_c, 0, 67, 102
1, 45265, Control_c, 0, 67, 102
1, 45280, Control_c, 0, 67, 103
1, 45287, Note_off_c, 0, 74, 57
1, 45311, Note_on_c, 0, 75, 61
1, 45349, Note_off_c, 0, 75, 56
1, 45354, Control_c, 0, 67, 102
1, 45374, Note_on_c, 0, 77, 72
1, 45398, Control_c, 0, 64, 23
1, 45413, Control_c, 0, 64, 23
1, 45428, Note_off_c, 0, 77, 63
1, 45428, Control_c, 0, 64, 22
1, 45441, Note_on_c, 0, 75, 75
1, 45463, Note_off_c, 0, 75, 69
1, 45480, Control_c, 0, 64, 23
1, 45495, Control_c, 0, 64, 24
1, 45500, Note_on_c, 0, 74, 76
1, 45510, Control_c, 0, 64, 26
1, 45524, Control_c, 0, 64, 26
1, 45524, Control_c, 0, 67, 102
1, 45552, Note_off_c, 0, 74, 56
1, 45554, Control_c, 0, 67, 101
1, 45576, Note_on_c, 0, 80, 84
1, 45584, Control_c, 0, 64, 26
1, 45584, Control_c, 0, 67, 101
1, 45598, Control_c, 0, 67, 100
1, 45613, Control_c, 0, 67, 100
1, 45628, Control_c, 0, 64, 25
1, 45634, Note_off_c, 0, 80, 65
1, 45642, Note_on_c, 0, 79, 85
1, 45643, Control_c, 0, 64, 24
1, 45643, Control_c, 0, 67, 99
1, 45657, Control_c, 0, 64, 23
1, 45657, Control_c, 0, 67, 99
1, 45672, Control_c, 0, 64, 22
1, 45672, Control_c, 0, 67, 98
1, 45687, Control_c, 0, 64, 20
1, 45687, Control_c, 0, 67, 98
1, 45693, Note_off_c, 0, 79, 64
1, 45699, Note_on_c, 0, 77, 79
1, 45702, Control_c, 0, 64, 19
1, 45702, Control_c, 0, 67, 97
1, 45717, Control_c, 0, 64, 17
1, 45717, Control_c, 0, 67, 96
1, 45731, Control_c, 0, 64, 14
1, 45731, Control_c, 0, 67, 95
1, 45746, Control_c, 0, 64, 12
1, 45746, Control_c, 0, 67, 94
1, 45761, Control_c, 0, 64, 11
1, 45761, Control_c, 0, 67, 93
1, 45767, Note_on_c, 0, 84, 88
1, 45773, Note_off_c, 0, 68, 57
1, 45776, Control_c, 0, 64, 13
1, 45776, Control_c, 0, 67, 92
1, 45785, Note_off_c, 0, 77, 61
1, 45791, Control_c, 0, 64, 21
1, 45791, Control_c, 0, 67, 91
1, 45806, Note_off_c, 0, 58, 55
1, 45806, Control_c, 0, 64, 32
1, 45806, Control_c, 0, 67, 89
1, 45821, Control_c, 0, 64, 42
1, 45821, Control_c, 0, 67, 87
1, 45824, Note_off_c, 0, 65, 60
1, 45836, Control_c, 0, 64, 49
1, 45836, Control_c, 0, 67, 83
1, 45836, Note_on_c, 0, 80, 80
1, 45850, Control_c, 0, 64, 54
1, 45850, Control_c, 0, 67, 78
1, 45865, Control_c, 0, 64, 56
1, 45865, Control_c, 0, 67, 72
1, 45872, Note_off_c, 0, 84, 65
1, 45880, Control_c, 0, 64, 59
1, 45880, Control_c, 0, 67, 65
1, 45895, Control_c, 0, 64, 60
1, 45895, Control_c, 0, 67, 58
1, 45898, Note_off_c, 0, 80, 66
1, 45901, Note_on_c, 0, 77, 76
1, 45910, Control_c, 0, 64, 60
1, 45910, Control_c, 0, 67, 50
1, 45924, Control_c, 0, 67, 41
1, 45939, Control_c, 0, 67, 34
1, 45954, Control_c, 0, 64, 59
1, 45954, Control_c, 0, 67, 28
1, 45969, Control_c, 0, 64, 56
1, 45969, Control_c, 0, 67, 26
1, 45976, Note_on_c, 0, 75, 91
1, 45984, Control_c, 0, 64, 51
1, 45995, Note_off_c, 0, 77, 62
1, 45998, Control_c, 0, 64, 44
1, 45998, Control_c, 0, 67, 28
1, 46013, Control_c, 0, 64, 36
1, 46013, Control_c, 0, 67, 32
1, 46028, Control_c, 0, 64, 24
1, 46028, Control_c, 0, 67, 35
1, 46044, Control_c, 0, 64, 10
1, 46044, Control_c, 0, 67, 38
1, 46059, Control_c, 0, 64, 0
1, 46059, Control_c, 0, 67, 40
1, 46073, Control_c, 0, 67, 44
1, 46088, Control_c, 0, 67, 49
1, 46103, Control_c, 0, 67, 55
1, 46118, Control_c, 0, 67, 62
1, 46133, Control_c, 0, 67, 66
1, 46147, Control_c, 0, 67, 70
1, 46162, Control_c, 0, 67, 74
1, 46177, Control_c, 0, 67, 78
1, 46192, Control_c, 0, 67, 85
1, 46205, Note_on_c, 0, 59, 68
1, 46207, Control_c, 0, 67, 94
1, 46229, Control_c, 0, 67, 108
1, 46244, Control_c, 0, 67, 122
1, 46259, Control_c, 0, 67, 127
1, 46277, Note_on_c, 0, 65, 67
1, 46303, Note_off_c, 0, 59, 61
1, 46363, Note_off_c, 0, 65, 62
1, 46366, Note_on_c, 0, 68, 63
1, 46414, Note_off_c, 0, 68, 63
1, 46423, Note_on_c, 0, 59, 68
1, 46502, Note_on_c, 0, 65, 70
1, 46521, Note_off_c, 0, 59, 63
1, 46586, Note_on_c, 0, 68, 70
1, 46602, Note_off_c, 0, 65, 53
1, 46646, Note_off_c, 0, 68, 60
1, 46648, Note_on_c, 0, 59, 73
1, 46718, Control_c, 0, 64, 10
1, 46727, Note_on_c, 0, 65, 71
1, 46733, Control_c, 0, 64, 15
1, 46747, Control_c, 0, 64, 18
1, 46752, Note_off_c, 0, 59, 63
1, 46762, Control_c, 0, 64, 19
1, 46777, Control_c, 0, 64, 20
1, 46791, Control_c, 0, 64, 21
1, 46791, Control_c, 0, 67, 126
1, 46796, Note_on_c, 0, 68, 71
1, 46806, Control_c, 0, 64, 22
1, 46806, Control_c, 0, 67, 123
1, 46821, Control_c, 0, 67, 120
1, 46837, Control_c, 0, 67, 117
1, 46852, Control_c, 0, 67, 115
1, 46863, Note_off_c, 0, 65, 57
1, 46867, Control_c, 0, 67, 114
1, 46868, Note_off_c, 0, 68, 61
1, 46871, Note_on_c, 0, 59, 81
1, 46882, Control_c, 0, 67, 113
1, 46896, Control_c, 0, 64, 22
1, 46896, Control_c, 0, 67, 112
1, 46911, Control_c, 0, 64, 21
1, 46911, Control_c, 0, 67, 111
1, 46926, Control_c, 0, 64, 21
1, 46926, Control_c, 0, 67, 111
1, 46928, Note_off_c, 0, 75, 60
1, 46941, Control_c, 0, 64, 20
1, 46956, Control_c, 0, 64, 20
1, 46958, Note_on_c, 0, 74, 70
1, 46977, Control_c, 0, 64, 19
1, 46992, Control_c, 0, 64, 19
1, 46992, Control_c, 0, 67, 111
1, 47007, Control_c, 0, 64, 18
1, 47022, Control_c, 0, 64, 16
1, 47022, Control_c, 0, 67, 112
1, 47025, Note_off_c, 0, 74, 63
1, 47032, Note_on_c, 0, 75, 73
1, 47037, Control_c, 0, 64, 15
1, 47037, Control_c, 0, 67, 114
1, 47052, Control_c, 0, 64, 14
1, 47052, Control_c, 0, 67, 115
1, 47067, Control_c, 0, 64, 13
1, 47067, Control_c, 0, 67, 116
1, 47082, Control_c, 0, 64, 11
1, 47082, Control_c, 0, 67, 116
1, 47085, Note_off_c, 0, 75, 61
1, 47091, Note_on_c, 0, 77, 73
1, 47096, Control_c, 0, 64, 10
1, 47111, Control_c, 0, 67, 117
1, 47126, Control_c, 0, 67, 118
1, 47141, Control_c, 0, 67, 119
1, 47150, Note_off_c, 0, 77, 64
1, 47156, Control_c, 0, 67, 120
1, 47159, Note_on_c, 0, 75, 78
1, 47170, Control_c, 0, 67, 121
1, 47185, Control_c, 0, 67, 121
1, 47187, Note_off_c, 0, 75, 64
1, 47200, Control_c, 0, 64, 11
1, 47200, Control_c, 0, 67, 122
1, 47215, Control_c, 0, 64, 12
1, 47216, Note_on_c, 0, 74, 75
1, 47244, Control_c, 0, 67, 122
1, 47259, Control_c, 0, 64, 11
1, 47274, Control_c, 0, 67, 123
1, 47282, Note_off_c, 0, 74, 61
1, 47287, Note_on_c, 0, 80, 81
1, 47318, Control_c, 0, 64, 10
1, 47318, Control_c, 0, 67, 122
1, 47348, Control_c, 0, 64, 9
1, 47353, Note_off_c, 0, 80, 63
1, 47354, Note_on_c, 0, 78, 82
1, 47392, Control_c, 0, 64, 8
1, 47392, Control_c, 0, 67, 123
1, 47407, Control_c, 0, 64, 0
1, 47407, Control_c, 0, 67, 123
1, 47409, Note_off_c, 0, 78, 63
1, 47420, Note_on_c, 0, 77, 75
1, 47437, Control_c, 0, 67, 124
1, 47451, Control_c, 0, 67, 125
1, 47466, Control_c, 0, 67, 127
1, 47481, Control_c, 0, 67, 127
1, 47492, Note_on_c, 0, 83, 77
1, 47496, Note_off_c, 0, 77, 63
1, 47538, Note_off_c, 0, 59, 56
1, 47562, Note_on_c, 0, 80, 76
1, 47600, Note_off_c, 0, 83, 62
1, 47636, Note_on_c, 0, 77, 73
1, 47642, Note_off_c, 0, 80, 64
1, 47729, Note_on_c, 0, 75, 79
1, 47750, Note_off_c, 0, 77, 54
1, 47967, Note_on_c, 0, 59, 49
1, 48034, Note_off_c, 0, 59, 52
1, 48049, Note_on_c, 0, 65, 44
1, 48126, Note_off_c, 0, 65, 59
1, 48137, Note_on_c, 0, 68, 44
1, 48185, Note_off_c, 0, 68, 54
1, 48220, Note_on_c, 0, 59, 38
1, 48300, Note_off_c, 0, 59, 58
1, 48309, Note_on_c, 0, 65, 43
1, 48395, Note_off_c, 0, 65, 56
1, 48402, Note_on_c, 0, 68, 39
1, 48480, Note_off_c, 0, 68, 55
1, 48489, Note_on_c, 0, 59, 39
1, 48605, Note_off_c, 0, 59, 53
1, 48617, Note_on_c, 0, 65, 35
1, 48757, Note_on_c, 0, 68, 33
1, 48936, Note_on_c, 0, 59, 39
1, 49222, Note_on_c, 0, 74, 48
1, 49298, Note_off_c, 0, 75, 47
1, 49422, Note_on_c, 0, 75, 60
1, 49469, Note_off_c, 0, 74, 48
1, 49594, Note_on_c, 0, 77, 58
1, 49610, Note_off_c, 0, 75, 44
1, 49726, Note_on_c, 0, 75, 65
1, 49750, Note_off_c, 0, 77, 50
1, 49854, Note_off_c, 0, 75, 63
1, 49864, Note_on_c, 0, 74, 66
1, 50045, Note_on_c, 0, 80, 61
1, 50072, Note_off_c, 0, 74, 50
1, 50212, Note_on_c, 0, 78, 60
1, 50242, Note_off_c, 0, 80, 57
1, 50395, Note_on_c, 0, 77, 55
1, 50405, Note_off_c, 0, 78, 52
1, 50536, Control_c, 0, 64, 10
1, 50551, Control_c, 0, 64, 14
1, 50565, Control_c, 0, 64, 17
1, 50565, Control_c, 0, 67, 127
1, 50580, Control_c, 0, 64, 19
1, 50580, Control_c, 0, 67, 125
1, 50595, Control_c, 0, 64, 20
1, 50595, Control_c, 0, 67, 123
1, 50610, Control_c, 0, 64, 20
1, 50610, Control_c, 0, 67, 122
1, 50625, Control_c, 0, 64, 21
1, 50625, Control_c, 0, 67, 121
1, 50639, Control_c, 0, 64, 22
1, 50639, Control_c, 0, 67, 120
1, 50654, Control_c, 0, 67, 119
1, 50669, Control_c, 0, 67, 118
1, 50684, Control_c, 0, 67, 116
1, 50699, Note_on_c, 0, 83, 61
1, 50699, Control_c, 0, 67, 115
1, 50721, Control_c, 0, 67, 113
1, 50736, Control_c, 0, 64, 21
1, 50736, Control_c, 0, 67, 113
1, 50751, Control_c, 0, 64, 21
1, 50751, Control_c, 0, 67, 112
1, 50765, Control_c, 0, 64, 20
1, 50765, Control_c, 0, 67, 111
1, 50780, Control_c, 0, 67, 110
1, 50795, Control_c, 0, 67, 109
1, 50810, Control_c, 0, 67, 108
1, 50819, Note_off_c, 0, 77, 36
1, 50825, Control_c, 0, 67, 106
1, 50841, Control_c, 0, 67, 106
1, 50856, Control_c, 0, 64, 20
1, 50856, Control_c, 0, 67, 105
1, 50870, Control_c, 0, 64, 19
1, 50870, Control_c, 0, 67, 105
1, 50885, Control_c, 0, 67, 104
1, 50900, Control_c, 0, 64, 18
1, 50900, Control_c, 0, 67, 103
1, 50915, Control_c, 0, 64, 18
1, 50915, Control_c, 0, 67, 101
1, 50930, Control_c, 0, 64, 17
1, 50930, Control_c, 0, 67, 99
1, 50944, Control_c, 0, 64, 17
1, 50944, Control_c, 0, 67, 98
1, 50959, Control_c, 0, 64, 16
1, 50959, Control_c, 0, 67, 97
1, 50974, Control_c, 0, 67, 97
1, 50988, Control_c, 0, 64, 16
1, 50988, Control_c, 0, 67, 96
1, 51107, Control_c, 0, 67, 97
1, 51122, Control_c, 0, 67, 97
1, 51136, Control_c, 0, 67, 98
1, 51151, Control_c, 0, 67, 99
1, 51167, Control_c, 0, 67, 100
1, 51182, Control_c, 0, 67, 100
1, 51196, Control_c, 0, 67, 101
1, 51211, Control_c, 0, 67, 102
1, 51226, Control_c, 0, 67, 103
1, 51241, Control_c, 0, 64, 15
1, 51241, Control_c, 0, 67, 104
1, 51256, Control_c, 0, 64, 14
1, 51256, Control_c, 0, 67, 106
1, 51270, Control_c, 0, 64, 13
1, 51270, Control_c, 0, 67, 107
1, 51285, Control_c, 0, 64, 12
1, 51285, Control_c, 0, 67, 108
1, 51300, Control_c, 0, 67, 110
1, 51315, Control_c, 0, 67, 113
1, 51330, Control_c, 0, 64, 14
1, 51330, Control_c, 0, 67, 118
1, 51345, Control_c, 0, 64, 16
1, 51345, Control_c, 0, 67, 123
1, 51359, Control_c, 0, 64, 17
1, 51359, Control_c, 0, 67, 127
1, 51374, Control_c, 0, 64, 19
1, 51389, Control_c, 0, 64, 21
1, 51404, Control_c, 0, 64, 21
1, 51434, Control_c, 0, 64, 21
1, 51449, Control_c, 0, 64, 20
1, 51485, Control_c, 0, 64, 20
1, 51514, Control_c, 0, 64, 19
1, 51529, Control_c, 0, 64, 18
1, 51544, Control_c, 0, 64, 18
1, 51559, Control_c, 0, 64, 17
1, 51581, Note_on_c, 0, 82, 50
1, 51738, Control_c, 0, 64, 17
1, 51753, Control_c, 0, 64, 16
1, 51767, Note_off_c, 0, 83, 25
1, 51768, Control_c, 0, 64, 15
1, 51783, Control_c, 0, 64, 14
1, 51798, Control_c, 0, 64, 13
1, 51812, Control_c, 0, 64, 12
1, 51827, Control_c, 0, 64, 12
1, 51842, Control_c, 0, 64, 11
1, 51872, Note_on_c, 0, 80, 51
1, 51872, Control_c, 0, 64, 10
1, 51931, Control_c, 0, 64, 11
1, 52011, Note_off_c, 0, 82, 33
1, 52019, Control_c, 0, 64, 10
1, 52049, Control_c, 0, 64, 9
1, 52113, Note_on_c, 0, 78, 57
1, 52229, Note_off_c, 0, 80, 31
1, 52264, Control_c, 0, 64, 8
1, 52293, Control_c, 0, 64, 0
1, 52361, Note_on_c, 0, 77, 49
1, 52411, Note_off_c, 0, 78, 61
1, 52625, Note_on_c, 0, 75, 48
1, 52650, Control_c, 0, 64, 23
1, 52665, Control_c, 0, 64, 32
1, 52680, Control_c, 0, 64, 42
1, 52695, Control_c, 0, 64, 47
1, 52709, Control_c, 0, 64, 51
1, 52724, Control_c, 0, 64, 54
1, 52731, Note_off_c, 0, 77, 35
1, 52739, Control_c, 0, 64, 56
1, 52748, Note_off_c, 0, 75, 51
1, 52753, Control_c, 0, 64, 58
1, 52768, Control_c, 0, 64, 60
1, 52783, Control_c, 0, 64, 61
1, 52798, Control_c, 0, 64, 62
1, 52813, Control_c, 0, 64, 63
1, 52827, Control_c, 0, 64, 64
1, 52842, Control_c, 0, 64, 65
1, 52857, Control_c, 0, 64, 65
1, 52872, Control_c, 0, 64, 66
1, 52916, Control_c, 0, 64, 67
1, 52921, Note_on_c, 0, 75, 42
1, 52962, Note_off_c, 0, 59, 60
1, 53246, Note_on_c, 0, 58, 33
1, 53280, Control_c, 0, 64, 66
1, 53345, Note_off_c, 0, 68, 58
1, 53516, Control_c, 0, 64, 66
1, 53546, Control_c, 0, 64, 65
1, 53561, Control_c, 0, 64, 65
1, 53568, Note_on_c, 0, 68, 38
1, 53575, Control_c, 0, 64, 64
1, 53590, Control_c, 0, 64, 63
1, 53605, Control_c, 0, 64, 62
1, 53620, Control_c, 0, 64, 60
1, 53635, Control_c, 0, 64, 58
1, 53649, Control_c, 0, 64, 55
1, 53664, Control_c, 0, 64, 52
1, 53679, Control_c, 0, 64, 49
1, 53694, Control_c, 0, 64, 45
1, 53716, Control_c, 0, 64, 41
1, 53731, Control_c, 0, 64, 34
1, 53746, Control_c, 0, 64, 26
1, 53761, Control_c, 0, 64, 19
1, 53774, Note_off_c, 0, 65, 58
1, 53776, Control_c, 0, 64, 15
1, 53790, Control_c, 0, 64, 14
1, 53820, Control_c, 0, 64, 14
1, 53835, Control_c, 0, 64, 13
1, 53839, Note_on_c, 0, 74, 45
1, 53850, Control_c, 0, 64, 12
1, 53908, Control_c, 0, 64, 14
1, 53923, Control_c, 0, 64, 20
1, 53924, Note_off_c, 0, 75, 56
1, 53938, Control_c, 0, 64, 29
1, 53953, Control_c, 0, 64, 38
1, 53968, Control_c, 0, 64, 44
1, 53983, Control_c, 0, 64, 49
1, 53998, Control_c, 0, 64, 52
1, 54012, Control_c, 0, 64, 54
1, 54027, Control_c, 0, 64, 57
1, 54043, Control_c, 0, 64, 59
1, 54058, Control_c, 0, 64, 60
1, 54073, Control_c, 0, 64, 61
1, 54087, Control_c, 0, 64, 63
1, 54102, Control_c, 0, 64, 64
1, 54117, Control_c, 0, 64, 65
1, 54132, Control_c, 0, 64, 66
1, 54147, Control_c, 0, 64, 68
1, 54161, Control_c, 0, 64, 69
1, 54176, Control_c, 0, 64, 71
1, 54186, Note_on_c, 0, 84, 50
1, 54191, Control_c, 0, 64, 73
1, 54206, Control_c, 0, 64, 74
1, 54218, Note_off_c, 0, 58, 39
1, 54221, Control_c, 0, 64, 76
1, 54236, Control_c, 0, 64, 77
1, 54251, Control_c, 0, 64, 78
1, 54266, Control_c, 0, 64, 79
1, 54280, Control_c, 0, 64, 80
1, 54295, Control_c, 0, 64, 80
1, 54483, Note_on_c, 0, 58, 33
1, 54605, Note_off_c, 0, 68, 34
1, 54840, Note_on_c, 0, 68, 39
1, 54922, Note_off_c, 0, 74, 43
1, 55154, Note_on_c, 0, 74, 40
1, 55274, Note_off_c, 0, 84, 57
1, 55274, Control_c, 0, 64, 80
1, 55333, Control_c, 0, 64, 79
1, 55437, Control_c, 0, 64, 79
1, 55693, Note_on_c, 0, 84, 39
1, 55704, Control_c, 0, 64, 78
1, 55734, Control_c, 0, 64, 78
1, 55749, Control_c, 0, 64, 77
1, 55764, Control_c, 0, 64, 77
1, 55778, Control_c, 0, 64, 76
1, 55793, Control_c, 0, 64, 75
1, 55808, Control_c, 0, 64, 73
1, 55823, Control_c, 0, 64, 70
1, 55838, Control_c, 0, 64, 68
1, 55852, Control_c, 0, 64, 66
1, 55867, Control_c, 0, 64, 64
1, 55882, Control_c, 0, 64, 64
1, 55897, Control_c, 0, 64, 63
1, 55911, Control_c, 0, 64, 62
1, 55926, Control_c, 0, 64, 61
1, 55941, Control_c, 0, 64, 60
1, 55964, Control_c, 0, 64, 60
1, 56008, Control_c, 0, 64, 59
1, 56023, Control_c, 0, 64, 59
1, 56038, Control_c, 0, 64, 58
1, 56053, Control_c, 0, 64, 57
1, 56067, Control_c, 0, 64, 57
1, 56097, Control_c, 0, 64, 56
1, 56126, Control_c, 0, 64, 55
1, 56141, Control_c, 0, 64, 54
1, 56156, Control_c, 0, 64, 52
1, 56171, Control_c, 0, 64, 50
1, 56185, Control_c, 0, 64, 49
1, 56200, Control_c, 0, 64, 47
1, 56215, Control_c, 0, 64, 45
1, 56230, Control_c, 0, 64, 43
1, 56245, Control_c, 0, 64, 41
1, 56260, Control_c, 0, 64, 40
1, 56275, Control_c, 0, 64, 38
1, 56290, Control_c, 0, 64, 37
1, 56319, Control_c, 0, 64, 38
1, 56334, Control_c, 0, 64, 43
1, 56349, Control_c, 0, 64, 47
1, 56364, Control_c, 0, 64, 51
1, 56378, Control_c, 0, 64, 54
1, 56393, Control_c, 0, 64, 56
1, 56408, Control_c, 0, 64, 59
1, 56424, Control_c, 0, 64, 62
1, 56439, Control_c, 0, 64, 64
1, 56454, Control_c, 0, 64, 66
1, 56469, Control_c, 0, 64, 68
1, 56471, Note_off_c, 0, 68, 55
1, 56483, Control_c, 0, 64, 70
1, 56498, Control_c, 0, 64, 73
1, 56513, Control_c, 0, 64, 75
1, 56527, Control_c, 0, 64, 76
1, 56534, Note_off_c, 0, 58, 55
1, 56542, Control_c, 0, 64, 77
1, 56553, Note_off_c, 0, 74, 34
1, 56557, Control_c, 0, 64, 78
1, 56572, Control_c, 0, 64, 79
1, 56587, Control_c, 0, 64, 80
1, 56601, Control_c, 0, 64, 81
1, 56606, Note_off_c, 0, 84, 57
1, 56616, Control_c, 0, 64, 82
1, 56631, Control_c, 0, 64, 84
1, 56646, Control_c, 0, 64, 85
1, 56661, Control_c, 0, 64, 86
1, 56675, Control_c, 0, 64, 86
1, 56713, Control_c, 0, 64, 87
1, 56728, Control_c, 0, 64, 87
1, 56742, Control_c, 0, 64, 88
1, 56757, Control_c, 0, 64, 88
1, 56772, Control_c, 0, 64, 89
1, 56802, Control_c, 0, 64, 89
1, 56831, Control_c, 0, 64, 90
1, 56846, Control_c, 0, 64, 90
1, 56905, Control_c, 0, 67, 127
1, 56920, Control_c, 0, 67, 124
1, 56934, Control_c, 0, 64, 89
1, 56934, Control_c, 0, 67, 119
1, 56949, Control_c, 0, 64, 80
1, 56949, Control_c, 0, 67, 113
1, 56964, Control_c, 0, 64, 68
1, 56964, Control_c, 0, 67, 107
1, 56979, Control_c, 0, 64, 56
1, 56979, Control_c, 0, 67, 100
1, 56994, Control_c, 0, 64, 40
1, 56994, Control_c, 0, 67, 93
1, 57008, Control_c, 0, 64, 30
1, 57008, Control_c, 0, 67, 87
1, 57023, Control_c, 0, 64, 29
1, 57023, Control_c, 0, 67, 82
1, 57038, Control_c, 0, 64, 29
1, 57038, Control_c, 0, 67, 79
1, 57053, Control_c, 0, 67, 77
1, 57068, Control_c, 0, 67, 76
1, 57098, Control_c, 0, 64, 29
1, 57113, Control_c, 0, 64, 28
1, 57127, Control_c, 0, 64, 27
1, 57142, Control_c, 0, 64, 25
1, 57157, Control_c, 0, 64, 23
1, 57172, Control_c, 0, 64, 21
1, 57187, Control_c, 0, 64, 20
1, 57199, Note_on_c, 0, 51, 74
1, 57201, Control_c, 0, 64, 20
1, 57205, Note_on_c, 0, 43, 64
1, 57207, Note_on_c, 0, 46, 65
1, 57216, Control_c, 0, 64, 19
1, 57216, Control_c, 0, 67, 77
1, 57232, Control_c, 0, 64, 18
1, 57232, Control_c, 0, 67, 77
1, 57247, Control_c, 0, 64, 17
1, 57276, Control_c, 0, 64, 19
1, 57291, Control_c, 0, 64, 24
1, 57306, Control_c, 0, 64, 32
1, 57321, Control_c, 0, 64, 38
1, 57336, Control_c, 0, 64, 41
1, 57350, Control_c, 0, 64, 41
1, 57380, Control_c, 0, 64, 41
1, 57380, Control_c, 0, 67, 77
1, 57387, Note_on_c, 0, 79, 84
1, 57395, Control_c, 0, 64, 40
1, 57395, Control_c, 0, 67, 76
1, 57432, Note_on_c, 0, 75, 82
1, 57441, Note_off_c, 0, 79, 64
1, 57460, Note_off_c, 0, 75, 70
1, 57476, Control_c, 0, 64, 40
1, 57491, Control_c, 0, 67, 76
1, 57506, Control_c, 0, 64, 39
1, 57506, Control_c, 0, 67, 75
1, 57521, Control_c, 0, 67, 75
1, 57536, Control_c, 0, 64, 39
1, 57550, Control_c, 0, 64, 37
1, 57565, Control_c, 0, 64, 35
1, 57580, Control_c, 0, 64, 30
1, 57580, Control_c, 0, 67, 74
1, 57595, Control_c, 0, 64, 24
1, 57595, Control_c, 0, 67, 73
1, 57610, Control_c, 0, 64, 13
1, 57610, Control_c, 0, 67, 72
1, 57625, Control_c, 0, 64, 0
1, 57625, Control_c, 0, 67, 69
1, 57628, Note_on_c, 0, 75, 81
1, 57639, Control_c, 0, 67, 67
1, 57648, Note_off_c, 0, 43, 63
1, 57651, Note_off_c, 0, 51, 61
1, 57654, Control_c, 0, 67, 65
1, 57662, Note_off_c, 0, 46, 63
1, 57667, Note_on_c, 0, 70, 75
1, 57669, Control_c, 0, 67, 63
1, 57672, Note_off_c, 0, 75, 67
1, 57683, Control_c, 0, 67, 60
1, 57688, Note_off_c, 0, 70, 68
1, 57698, Control_c, 0, 67, 57
1, 57713, Control_c, 0, 67, 51
1, 57728, Control_c, 0, 67, 46
1, 57743, Control_c, 0, 67, 41
1, 57757, Control_c, 0, 67, 37
1, 57772, Control_c, 0, 67, 35
1, 57787, Control_c, 0, 67, 32
1, 57802, Control_c, 0, 67, 29
1, 57817, Control_c, 0, 67, 26
1, 57831, Control_c, 0, 67, 23
1, 57836, Note_on_c, 0, 70, 77
1, 57846, Control_c, 0, 67, 20
1, 57861, Control_c, 0, 67, 20
1, 57873, Note_on_c, 0, 67, 79
1, 57873, Note_off_c, 0, 70, 65
1, 57894, Note_off_c, 0, 67, 69
1, 57950, Control_c, 0, 67, 20
1, 57965, Control_c, 0, 67, 21
1, 57980, Control_c, 0, 67, 22
1, 58069, Control_c, 0, 67, 22
1, 58084, Control_c, 0, 67, 21
1, 58094, Note_on_c, 0, 51, 76
1, 58096, Note_on_c, 0, 44, 70
1, 58102, Note_on_c, 0, 48, 69
1, 58144, Control_c, 0, 64, 10
1, 58159, Control_c, 0, 64, 26
1, 58173, Control_c, 0, 64, 32
1, 58188, Control_c, 0, 64, 37
1, 58188, Control_c, 0, 67, 22
1, 58210, Control_c, 0, 64, 40
1, 58225, Control_c, 0, 64, 41
1, 58254, Control_c, 0, 64, 40
1, 58264, Note_on_c, 0, 72, 78
1, 58269, Control_c, 0, 64, 38
1, 58269, Control_c, 0, 67, 21
1, 58284, Control_c, 0, 64, 34
1, 58284, Control_c, 0, 67, 21
1, 58299, Control_c, 0, 64, 27
1, 58302, Note_on_c, 0, 68, 78
1, 58314, Control_c, 0, 64, 21
1, 58314, Control_c, 0, 67, 20
1, 58321, Note_off_c, 0, 72, 64
1, 58329, Note_off_c, 0, 68, 67
1, 58329, Control_c, 0, 64, 20
1, 58344, Control_c, 0, 64, 21
1, 58388, Control_c, 0, 67, 21
1, 58432, Control_c, 0, 64, 20
1, 58447, Control_c, 0, 64, 18
1, 58462, Control_c, 0, 64, 12
1, 58477, Control_c, 0, 64, 0
1, 58513, Note_on_c, 0, 68, 77
1, 58531, Note_off_c, 0, 48, 61
1, 58540, Note_off_c, 0, 44, 62
1, 58549, Note_on_c, 0, 65, 78
1, 58550, Note_off_c, 0, 51, 61
1, 58551, Control_c, 0, 67, 21
1, 58558, Note_off_c, 0, 68, 64
1, 58566, Control_c, 0, 67, 22
1, 58569, Note_off_c, 0, 65, 69
1, 58595, Control_c, 0, 67, 23
1, 58610, Control_c, 0, 67, 23
1, 58639, Control_c, 0, 67, 24
1, 58654, Control_c, 0, 67, 25
1, 58669, Control_c, 0, 67, 26
1, 58713, Control_c, 0, 67, 26
1, 58728, Control_c, 0, 67, 27
1, 58734, Note_on_c, 0, 65, 66
1, 58743, Control_c, 0, 67, 28
1, 58758, Control_c, 0, 67, 31
1, 58762, Note_off_c, 0, 65, 65
1, 58773, Control_c, 0, 67, 34
1, 58780, Note_on_c, 0, 60, 69
1, 58788, Control_c, 0, 67, 38
1, 58803, Control_c, 0, 67, 46
1, 58804, Note_off_c, 0, 60, 66
1, 58818, Control_c, 0, 67, 60
1, 58833, Control_c, 0, 67, 74
1, 58847, Control_c, 0, 67, 91
1, 58862, Control_c, 0, 67, 107
1, 58877, Control_c, 0, 67, 122
1, 58892, Control_c, 0, 67, 127
1, 59018, Note_on_c, 0, 63, 62
1, 59235, Note_on_c, 0, 55, 57
1, 59239, Note_on_c, 0, 46, 54
1, 59266, Note_off_c, 0, 55, 65
1, 59272, Note_off_c, 0, 46, 65
1, 59462, Note_on_c, 0, 55, 65
1, 59473, Note_on_c, 0, 46, 55
1, 59491, Note_off_c, 0, 55, 65
1, 59506, Note_off_c, 0, 46, 64
1, 59595, Note_off_c, 0, 63, 50
1, 59650, Note_on_c, 0, 62, 53
1, 59697, Note_off_c, 0, 62, 61
1, 59703, Note_on_c, 0, 46, 64
1, 59705, Note_on_c, 0, 53, 58
1, 59716, Note_on_c, 0, 68, 63
1, 59729, Note_off_c, 0, 46, 67
1, 59730, Note_off_c, 0, 53, 37
1, 59795, Note_off_c, 0, 68, 64
1, 59807, Note_on_c, 0, 65, 57
1, 59853, Note_off_c, 0, 65, 60
1, 59859, Note_on_c, 0, 62, 59
1, 59888, Note_off_c, 0, 62, 67
1, 59942, Note_on_c, 0, 51, 71
1, 59946, Note_on_c, 0, 46, 51
1, 59951, Note_on_c, 0, 43, 57
1, 60046, Note_on_c, 0, 75, 77
1, 60067, Note_off_c, 0, 75, 70
1, 60186, Note_on_c, 0, 77, 75
1, 60221, Note_off_c, 0, 77, 63
1, 60225, Control_c, 0, 67, 127
1, 60232, Note_on_c, 0, 75, 75
1, 60240, Control_c, 0, 67, 126
1, 60258, Note_off_c, 0, 75, 64
1, 60269, Control_c, 0, 67, 126
1, 60284, Control_c, 0, 67, 125
1, 60284, Note_on_c, 0, 74, 73
1, 60299, Control_c, 0, 67, 124
1, 60314, Control_c, 0, 67, 121
1, 60316, Note_off_c, 0, 74, 61
1, 60329, Control_c, 0, 67, 117
1, 60337, Note_on_c, 0, 75, 71
1, 60338, Note_on_c, 0, 79, 65
1, 60343, Control_c, 0, 67, 110
1, 60358, Control_c, 0, 67, 102
1, 60373, Control_c, 0, 67, 94
1, 60386, Note_off_c, 0, 75, 60
1, 60386, Note_off_c, 0, 43, 60
1, 60388, Control_c, 0, 67, 85
1, 60402, Control_c, 0, 67, 77
1, 60406, Note_off_c, 0, 51, 51
1, 60408, Note_on_c, 0, 70, 94
1, 60418, Control_c, 0, 67, 68
1, 60419, Note_off_c, 0, 46, 59
1, 60422, Note_off_c, 0, 79, 36
1, 60429, Note_off_c, 0, 70, 67
1, 60433, Control_c, 0, 67, 61
1, 60455, Control_c, 0, 67, 55
1, 60470, Control_c, 0, 67, 50
1, 60485, Control_c, 0, 67, 47
1, 60499, Control_c, 0, 67, 46
1, 60514, Control_c, 0, 67, 45
1, 60577, Note_on_c, 0, 70, 78
1, 60612, Note_off_c, 0, 70, 62
1, 60618, Control_c, 0, 67, 46
1, 60633, Control_c, 0, 67, 46
1, 60639, Note_on_c, 0, 72, 67
1, 60648, Control_c, 0, 67, 47
1, 60663, Control_c, 0, 67, 48
1, 60678, Control_c, 0, 67, 48
1, 60681, Note_off_c, 0, 72, 64
1, 60692, Control_c, 0, 67, 49
1, 60702, Note_on_c, 0, 70, 65
1, 60707, Control_c, 0, 67, 50
1, 60721, Note_off_c, 0, 70, 66
1, 60722, Control_c, 0, 67, 51
1, 60731, Note_on_c, 0, 69, 67
1, 60737, Control_c, 0, 67, 52
1, 60752, Control_c, 0, 67, 53
1, 60766, Note_off_c, 0, 69, 62
1, 60767, Control_c, 0, 67, 56
1, 60781, Control_c, 0, 67, 57
1, 60782, Note_on_c, 0, 70, 77
1, 60796, Control_c, 0, 67, 59
1, 60805, Note_on_c, 0, 75, 64
1, 60811, Control_c, 0, 67, 63
1, 60825, Control_c, 0, 67, 69
1, 60839, Note_off_c, 0, 70, 62
1, 60840, Control_c, 0, 67, 77
1, 60855, Control_c, 0, 67, 87
1, 60857, Note_on_c, 0, 65, 82
1, 60864, Note_on_c, 0, 48, 56
1, 60864, Note_on_c, 0, 51, 55
1, 60868, Note_on_c, 0, 44, 53
1, 60870, Control_c, 0, 67, 99
1, 60874, Note_off_c, 0, 75, 64
1, 60877, Note_off_c, 0, 65, 69
1, 60885, Control_c, 0, 67, 111
1, 60900, Control_c, 0, 67, 121
1, 60915, Control_c, 0, 67, 127
1, 61033, Note_on_c, 0, 65, 57
1, 61062, Note_off_c, 0, 65, 65
1, 61080, Note_on_c, 0, 67, 69
1, 61112, Note_off_c, 0, 67, 63
1, 61125, Note_on_c, 0, 65, 77
1, 61157, Note_off_c, 0, 65, 60
1, 61170, Note_on_c, 0, 64, 72
1, 61238, Note_off_c, 0, 64, 63
1, 61246, Note_on_c, 0, 65, 65
1, 61251, Note_on_c, 0, 72, 72
1, 61301, Note_off_c, 0, 65, 58
1, 61307, Note_off_c, 0, 72, 62
1, 61315, Note_on_c, 0, 60, 87
1, 61334, Note_off_c, 0, 60, 70
1, 61385, Note_off_c, 0, 48, 61
1, 61391, Note_off_c, 0, 44, 60
1, 61391, Note_off_c, 0, 51, 59
1, 61482, Note_on_c, 0, 60, 64
1, 61512, Note_off_c, 0, 60, 65
1, 61533, Note_on_c, 0, 62, 71
1, 61571, Note_off_c, 0, 62, 66
1, 61596, Note_on_c, 0, 60, 70
1, 61627, Note_on_c, 0, 59, 61
1, 61655, Note_off_c, 0, 59, 65
1, 61694, Note_on_c, 0, 68, 64
1, 61698, Note_off_c, 0, 60, 60
1, 61756, Note_on_c, 0, 63, 54
1, 61769, Note_off_c, 0, 68, 60
1, 61990, Note_on_c, 0, 55, 56
1, 61998, Note_on_c, 0, 46, 54
1, 62022, Note_off_c, 0, 55, 66
1, 62032, Note_off_c, 0, 46, 65
1, 62235, Note_on_c, 0, 55, 64
1, 62237, Note_on_c, 0, 46, 60
1, 62261, Note_off_c, 0, 55, 67
1, 62268, Note_off_c, 0, 46, 64
1, 62377, Note_off_c, 0, 63, 60
1, 62405, Note_on_c, 0, 62, 68
1, 62452, Note_off_c, 0, 62, 55
1, 62477, Note_on_c, 0, 53, 64
1, 62480, Note_on_c, 0, 46, 60
1, 62487, Note_on_c, 0, 68, 68
1, 62499, Note_off_c, 0, 53, 63
1, 62502, Control_c, 0, 67, 126
1, 62509, Note_off_c, 0, 46, 64
1, 62516, Control_c, 0, 67, 123
1, 62531, Control_c, 0, 67, 120
1, 62538, Note_off_c, 0, 68, 60
1, 62545, Note_on_c, 0, 65, 69
1, 62546, Control_c, 0, 67, 117
1, 62561, Control_c, 0, 67, 112
1, 62576, Control_c, 0, 67, 108
1, 62586, Note_off_c, 0, 65, 62
1, 62590, Control_c, 0, 67, 104
1, 62605, Control_c, 0, 67, 100
1, 62620, Control_c, 0, 67, 96
1, 62627, Note_on_c, 0, 62, 65
1, 62635, Control_c, 0, 67, 92
1, 62650, Control_c, 0, 67, 88
1, 62664, Control_c, 0, 67, 84
1, 62679, Control_c, 0, 67, 80
1, 62681, Note_off_c, 0, 62, 54
1, 62702, Control_c, 0, 67, 77
1, 62717, Control_c, 0, 67, 74
1, 62728, Note_on_c, 0, 70, 83
1, 62731, Control_c, 0, 67, 72
1, 62746, Control_c, 0, 67, 70
1, 62761, Control_c, 0, 67, 69
1, 62776, Control_c, 0, 67, 68
1, 62790, Control_c, 0, 67, 67
1, 62805, Control_c, 0, 67, 66
1, 62821, Control_c, 0, 67, 65
1, 62836, Control_c, 0, 67, 64
1, 62851, Control_c, 0, 64, 16
1, 62851, Control_c, 0, 67, 63
1, 62866, Control_c, 0, 64, 27
1, 62866, Control_c, 0, 67, 62
1, 62881, Control_c, 0, 64, 38
1, 62881, Control_c, 0, 67, 61
1, 62895, Control_c, 0, 64, 47
1, 62895, Control_c, 0, 67, 61
1, 62910, Control_c, 0, 64, 52
1, 62925, Control_c, 0, 64, 54
1, 62940, Control_c, 0, 64, 56
1, 62955, Control_c, 0, 64, 57
1, 62961, Note_on_c, 0, 55, 63
1, 62966, Note_on_c, 0, 46, 55
1, 62969, Control_c, 0, 64, 58
1, 62969, Control_c, 0, 67, 62
1, 62984, Control_c, 0, 64, 58
1, 62984, Control_c, 0, 67, 62
1, 62986, Note_off_c, 0, 55, 65
1, 62992, Note_off_c, 0, 46, 62
1, 62999, Control_c, 0, 64, 59
1, 62999, Control_c, 0, 67, 63
1, 63013, Control_c, 0, 67, 64
1, 63028, Control_c, 0, 67, 65
1, 63043, Control_c, 0, 67, 68
1, 63058, Control_c, 0, 67, 70
1, 63073, Control_c, 0, 64, 58
1, 63073, Control_c, 0, 67, 71
1, 63088, Control_c, 0, 64, 58
1, 63088, Control_c, 0, 67, 73
1, 63102, Control_c, 0, 64, 57
1, 63102, Control_c, 0, 67, 73
1, 63117, Control_c, 0, 64, 57
1, 63117, Control_c, 0, 67, 74
1, 63132, Control_c, 0, 64, 56
1, 63132, Control_c, 0, 67, 75
1, 63146, Control_c, 0, 64, 55
1, 63146, Control_c, 0, 67, 78
1, 63161, Control_c, 0, 64, 54
1, 63161, Control_c, 0, 67, 82
1, 63176, Control_c, 0, 64, 53
1, 63176, Control_c, 0, 67, 88
1, 63191, Control_c, 0, 64, 52
1, 63191, Control_c, 0, 67, 93
1, 63192, Note_on_c, 0, 55, 69
1, 63206, Control_c, 0, 64, 51
1, 63206, Control_c, 0, 67, 100
1, 63211, Note_on_c, 0, 46, 53
1, 63220, Control_c, 0, 67, 105
1, 63222, Note_off_c, 0, 55, 66
1, 63234, Note_off_c, 0, 46, 60
1, 63235, Control_c, 0, 67, 110
1, 63250, Control_c, 0, 64, 52
1, 63250, Control_c, 0, 67, 114
1, 63265, Control_c, 0, 67, 119
1, 63280, Control_c, 0, 67, 123
1, 63291, Note_on_c, 0, 67, 65
1, 63295, Note_off_c, 0, 70, 62
1, 63295, Control_c, 0, 67, 127
1, 63341, Note_off_c, 0, 67, 64
1, 63351, Note_on_c, 0, 63, 67
1, 63384, Control_c, 0, 64, 51
1, 63393, Note_off_c, 0, 63, 62
1, 63399, Control_c, 0, 64, 50
1, 63413, Control_c, 0, 64, 48
1, 63421, Note_on_c, 0, 53, 69
1, 63428, Control_c, 0, 64, 42
1, 63429, Note_on_c, 0, 46, 47
1, 63435, Note_on_c, 0, 68, 72
1, 63449, Note_off_c, 0, 53, 65
1, 63450, Control_c, 0, 64, 31
1, 63465, Control_c, 0, 64, 0
1, 63468, Note_off_c, 0, 46, 63
1, 63508, Note_off_c, 0, 68, 62
1, 63516, Note_on_c, 0, 65, 64
1, 63558, Note_off_c, 0, 65, 64
1, 63591, Note_on_c, 0, 62, 65
1, 63634, Note_off_c, 0, 62, 57
1, 63673, Note_on_c, 0, 70, 69
1, 63914, Note_on_c, 0, 55, 51
1, 63925, Note_on_c, 0, 46, 37
1, 63954, Note_off_c, 0, 55, 60
1, 63961, Note_off_c, 0, 46, 56
1, 64147, Note_on_c, 0, 55, 53
1, 64159, Note_on_c, 0, 46, 39
1, 64171, Note_off_c, 0, 55, 59
1, 64201, Note_off_c, 0, 46, 59
1, 64233, Note_on_c, 0, 67, 57
1, 64247, Note_off_c, 0, 70, 56
1, 64299, Note_off_c, 0, 67, 61
1, 64321, Note_on_c, 0, 63, 52
1, 64362, Note_off_c, 0, 63, 59
1, 64384, Note_on_c, 0, 68, 60
1, 64395, Note_on_c, 0, 53, 52
1, 64399, Note_on_c, 0, 46, 50
1, 64421, Note_off_c, 0, 53, 57
1, 64434, Note_off_c, 0, 46, 62
1, 64458, Note_off_c, 0, 68, 61
1, 64474, Note_on_c, 0, 65, 53
1, 64508, Note_off_c, 0, 65, 64
1, 64532, Note_on_c, 0, 62, 62
1, 64570, Note_off_c, 0, 62, 56
1, 64570, Control_c, 0, 67, 127
1, 64584, Control_c, 0, 67, 125
1, 64599, Control_c, 0, 67, 123
1, 64614, Control_c, 0, 67, 121
1, 64629, Note_on_c, 0, 70, 82
1, 64629, Control_c, 0, 67, 119
1, 64645, Control_c, 0, 67, 117
1, 64659, Control_c, 0, 67, 115
1, 64674, Control_c, 0, 67, 113
1, 64689, Control_c, 0, 67, 112
1, 64704, Control_c, 0, 67, 111
1, 64718, Control_c, 0, 67, 110
1, 64733, Control_c, 0, 67, 109
1, 64748, Control_c, 0, 67, 108
1, 64763, Control_c, 0, 67, 106
1, 64778, Control_c, 0, 67, 105
1, 64792, Control_c, 0, 67, 103
1, 64807, Control_c, 0, 67, 101
1, 64822, Control_c, 0, 67, 99
1, 64837, Control_c, 0, 64, 20
1, 64837, Control_c, 0, 67, 98
1, 64852, Control_c, 0, 64, 30
1, 64852, Control_c, 0, 67, 96
1, 64865, Note_on_c, 0, 55, 52
1, 64866, Control_c, 0, 64, 37
1, 64866, Control_c, 0, 67, 94
1, 64873, Note_on_c, 0, 46, 45
1, 64881, Control_c, 0, 64, 42
1, 64881, Control_c, 0, 67, 91
1, 64896, Control_c, 0, 64, 43
1, 64896, Control_c, 0, 67, 89
1, 64897, Note_off_c, 0, 55, 57
1, 64906, Note_off_c, 0, 46, 62
1, 64911, Control_c, 0, 64, 44
1, 64911, Control_c, 0, 67, 86
1, 64926, Control_c, 0, 64, 45
1, 64926, Control_c, 0, 67, 85
1, 64948, Control_c, 0, 64, 47
1, 64948, Control_c, 0, 67, 84
1, 64963, Control_c, 0, 64, 48
1, 64963, Control_c, 0, 67, 82
1, 64978, Control_c, 0, 64, 48
1, 64978, Control_c, 0, 67, 82
1, 64992, Control_c, 0, 67, 81
1, 65007, Control_c, 0, 67, 80
1, 65022, Control_c, 0, 67, 80
1, 65037, Control_c, 0, 67, 79
1, 65052, Control_c, 0, 67, 78
1, 65066, Control_c, 0, 64, 49
1, 65066, Control_c, 0, 67, 77
1, 65081, Control_c, 0, 64, 50
1, 65081, Control_c, 0, 67, 77
1, 65096, Control_c, 0, 64, 51
1, 65096, Control_c, 0, 67, 76
1, 65111, Control_c, 0, 64, 52
1, 65111, Control_c, 0, 67, 75
1, 65112, Note_on_c, 0, 55, 51
1, 65121, Note_on_c, 0, 46, 46
1, 65125, Control_c, 0, 64, 54
1, 65125, Control_c, 0, 67, 75
1, 65140, Control_c, 0, 64, 55
1, 65140, Control_c, 0, 67, 74
1, 65143, Note_off_c, 0, 55, 52
1, 65155, Control_c, 0, 64, 57
1, 65170, Note_off_c, 0, 46, 56
1, 65170, Control_c, 0, 64, 58
1, 65170, Control_c, 0, 67, 74
1, 65185, Note_on_c, 0, 67, 45
1, 65185, Control_c, 0, 64, 59
1, 65200, Control_c, 0, 64, 59
1, 65215, Control_c, 0, 64, 60
1, 65241, Note_off_c, 0, 67, 60
1, 65260, Control_c, 0, 67, 74
1, 65262, Note_on_c, 0, 63, 47
1, 65304, Control_c, 0, 64, 59
1, 65307, Note_off_c, 0, 63, 62
1, 65319, Control_c, 0, 64, 57
1, 65334, Control_c, 0, 64, 53
1, 65335, Note_on_c, 0, 72, 66
1, 65349, Note_on_c, 0, 56, 47
1, 65349, Control_c, 0, 64, 52
1, 65364, Control_c, 0, 64, 54
1, 65365, Note_off_c, 0, 70, 51
1, 65370, Note_on_c, 0, 46, 37
1, 65379, Control_c, 0, 64, 56
1, 65392, Note_off_c, 0, 56, 48
1, 65394, Control_c, 0, 64, 58
1, 65408, Control_c, 0, 64, 59
1, 65417, Note_on_c, 0, 68, 55
1, 65423, Control_c, 0, 64, 59
1, 65423, Control_c, 0, 67, 74
1, 65434, Note_off_c, 0, 46, 51
1, 65438, Control_c, 0, 64, 60
1, 65444, Note_off_c, 0, 72, 53
1, 65486, Note_off_c, 0, 68, 58
1, 65494, Note_on_c, 0, 65, 55
1, 65497, Control_c, 0, 64, 58
1, 65497, Control_c, 0, 67, 74
1, 65512, Control_c, 0, 64, 54
1, 65527, Control_c, 0, 64, 45
1, 65541, Control_c, 0, 64, 34
1, 65556, Control_c, 0, 64, 29
1, 65560, Note_off_c, 0, 65, 58
1, 65564, Note_on_c, 0, 74, 75
1, 65571, Note_on_c, 0, 53, 59
1, 65571, Control_c, 0, 64, 34
1, 65576, Note_on_c, 0, 46, 43
1, 65586, Control_c, 0, 64, 45
1, 65601, Control_c, 0, 64, 52
1, 65615, Control_c, 0, 64, 57
1, 65630, Control_c, 0, 64, 59
1, 65630, Control_c, 0, 67, 74
1, 65632, Note_off_c, 0, 53, 58
1, 65635, Note_on_c, 0, 68, 67
1, 65645, Control_c, 0, 64, 61
1, 65659, Control_c, 0, 64, 62
1, 65663, Note_off_c, 0, 74, 61
1, 65674, Control_c, 0, 64, 63
1, 65696, Note_off_c, 0, 46, 35
1, 65706, Note_off_c, 0, 68, 60
1, 65726, Note_on_c, 0, 65, 58
1, 65741, Control_c, 0, 64, 62
1, 65756, Control_c, 0, 64, 56
1, 65771, Control_c, 0, 64, 43
1, 65783, Note_off_c, 0, 65, 55
1, 65786, Control_c, 0, 64, 19
1, 65794, Note_on_c, 0, 75, 82
1, 65801, Control_c, 0, 64, 0
1, 65808, Note_on_c, 0, 46, 64
1, 65809, Note_on_c, 0, 55, 68
1, 65815, Control_c, 0, 64, 23
1, 65830, Control_c, 0, 64, 40
1, 65845, Control_c, 0, 64, 52
1, 65852, Note_off_c, 0, 55, 55
1, 65860, Control_c, 0, 64, 57
1, 65874, Control_c, 0, 64, 59
1, 65879, Note_on_c, 0, 70, 69
1, 65889, Note_off_c, 0, 75, 62
1, 65889, Control_c, 0, 64, 61
1, 65903, Note_off_c, 0, 46, 46
1, 65904, Control_c, 0, 64, 61
1, 65930, Note_off_c, 0, 70, 60
1, 65932, Note_on_c, 0, 67, 66
1, 65948, Control_c, 0, 64, 58
1, 65963, Control_c, 0, 64, 45
1, 65978, Control_c, 0, 64, 0
1, 66008, Control_c, 0, 67, 74
1, 66014, Note_off_c, 0, 67, 0
1, 66017, Note_on_c, 0, 77, 84
1, 66033, Note_on_c, 0, 50, 72
1, 66034, Note_on_c, 0, 46, 67
1, 66038, Control_c, 0, 64, 24
1, 66053, Control_c, 0, 64, 48
1, 66068, Control_c, 0, 64, 58
1, 66073, Note_on_c, 0, 74, 68
1, 66074, Note_off_c, 0, 50, 63
1, 66082, Note_off_c, 0, 46, 61
1, 66083, Control_c, 0, 64, 63
1, 66089, Poly_aftertouch_c, 0, 67, 0
1, 66098, Control_c, 0, 64, 66
1, 66112, Control_c, 0, 64, 70
1, 66126, Note_off_c, 0, 77, 62
1, 66127, Control_c, 0, 64, 73
1, 66142, Control_c, 0, 64, 77
1, 66157, Control_c, 0, 64, 79
1, 66160, Note_on_c, 0, 70, 77
1, 66160, Note_off_c, 0, 74, 64
1, 66201, Control_c, 0, 64, 73
1, 66201, Control_c, 0, 67, 75
1, 66216, Control_c, 0, 64, 63
1, 66216, Control_c, 0, 67, 77
1, 66231, Control_c, 0, 64, 38
1, 66231, Control_c, 0, 67, 79
1, 66235, Note_off_c, 0, 70, 57
1, 66236, Note_on_c, 0, 79, 91
1, 66246, Control_c, 0, 64, 0
1, 66246, Control_c, 0, 67, 80
1, 66261, Note_on_c, 0, 51, 78
1, 66261, Control_c, 0, 67, 81
1, 66266, Note_on_c, 0, 46, 67
1, 66276, Control_c, 0, 67, 81
1, 66285, Note_off_c, 0, 51, 66
1, 66290, Control_c, 0, 67, 82
1, 66297, Note_off_c, 0, 46, 67
1, 66305, Control_c, 0, 67, 82
1, 66317, Note_on_c, 0, 75, 83
1, 66320, Control_c, 0, 67, 83
1, 66335, Control_c, 0, 67, 84
1, 66350, Control_c, 0, 67, 85
1, 66352, Note_off_c, 0, 79, 64
1, 66364, Control_c, 0, 67, 85
1, 66379, Control_c, 0, 67, 86
1, 66394, Control_c, 0, 67, 87
1, 66404, Note_on_c, 0, 70, 65
1, 66409, Control_c, 0, 67, 90
1, 66424, Control_c, 0, 67, 94
1, 66446, Control_c, 0, 67, 100
1, 66461, Control_c, 0, 67, 106
1, 66474, Note_off_c, 0, 70, 60
1, 66476, Control_c, 0, 67, 111
1, 66490, Control_c, 0, 64, 18
1, 66490, Control_c, 0, 67, 117
1, 66505, Control_c, 0, 64, 41
1, 66505, Control_c, 0, 67, 123
1, 66520, Control_c, 0, 64, 51
1, 66520, Control_c, 0, 67, 127
1, 66532, Note_on_c, 0, 80, 86
1, 66535, Control_c, 0, 64, 55
1, 66537, Note_off_c, 0, 75, 64
1, 66548, Note_on_c, 0, 46, 59
1, 66550, Control_c, 0, 64, 59
1, 66550, Note_on_c, 0, 53, 48
1, 66564, Control_c, 0, 64, 61
1, 66579, Control_c, 0, 64, 63
1, 66594, Control_c, 0, 64, 65
1, 66609, Control_c, 0, 64, 66
1, 66616, Note_off_c, 0, 53, 63
1, 66624, Control_c, 0, 64, 67
1, 66625, Note_off_c, 0, 46, 63
1, 66627, Note_off_c, 0, 80, 62
1, 66638, Control_c, 0, 64, 68
1, 66727, Control_c, 0, 64, 67
1, 66742, Control_c, 0, 64, 64
1, 66757, Control_c, 0, 64, 62
1, 66771, Control_c, 0, 64, 61
1, 66786, Control_c, 0, 64, 60
1, 66801, Control_c, 0, 64, 58
1, 66817, Control_c, 0, 64, 55
1, 66832, Control_c, 0, 64, 51
1, 66847, Control_c, 0, 64, 46
1, 66861, Control_c, 0, 64, 41
1, 66876, Control_c, 0, 64, 37
1, 66891, Control_c, 0, 64, 32
1, 66906, Control_c, 0, 64, 25
1, 66920, Control_c, 0, 64, 0
1, 67539, Note_on_c, 0, 63, 42
1, 67550, Control_c, 0, 64, 11
1, 67565, Control_c, 0, 64, 21
1, 67579, Control_c, 0, 64, 26
1, 67594, Control_c, 0, 64, 27
1, 67601, Note_off_c, 0, 63, 54
1, 67635, Note_on_c, 0, 67, 37
1, 67641, Control_c, 0, 64, 27
1, 67656, Control_c, 0, 64, 28
1, 67671, Control_c, 0, 64, 29
1, 67685, Control_c, 0, 64, 30
1, 67686, Note_off_c, 0, 67, 59
1, 67699, Note_on_c, 0, 70, 48
1, 67723, Note_off_c, 0, 70, 57
1, 67774, Note_on_c, 0, 63, 44
1, 67833, Control_c, 0, 64, 29
1, 67839, Note_off_c, 0, 63, 56
1, 67848, Control_c, 0, 64, 29
1, 67867, Note_on_c, 0, 67, 50
1, 67877, Control_c, 0, 64, 28
1, 67892, Control_c, 0, 64, 27
1, 67907, Control_c, 0, 64, 26
1, 67909, Note_off_c, 0, 67, 59
1, 67922, Control_c, 0, 64, 26
1, 67944, Control_c, 0, 64, 25
1, 67955, Note_on_c, 0, 70, 41
1, 67959, Control_c, 0, 64, 24
1, 67974, Control_c, 0, 64, 24
1, 67995, Note_off_c, 0, 70, 53
1, 68004, Control_c, 0, 64, 23
1, 68016, Note_on_c, 0, 63, 52
1, 68018, Control_c, 0, 64, 23
1, 68033, Control_c, 0, 64, 22
1, 68048, Control_c, 0, 64, 20
1, 68062, Control_c, 0, 64, 20
1, 68070, Note_off_c, 0, 63, 56
1, 68103, Note_on_c, 0, 67, 56
1, 68140, Note_off_c, 0, 67, 62
1, 68166, Control_c, 0, 64, 19
1, 68181, Control_c, 0, 64, 18
1, 68186, Note_on_c, 0, 70, 43
1, 68196, Control_c, 0, 64, 17
1, 68210, Control_c, 0, 64, 15
1, 68220, Note_off_c, 0, 70, 49
1, 68225, Control_c, 0, 64, 13
1, 68239, Note_on_c, 0, 80, 63
1, 68240, Control_c, 0, 64, 12
1, 68249, Note_on_c, 0, 63, 39
1, 68255, Control_c, 0, 64, 11
1, 68270, Control_c, 0, 64, 10
1, 68285, Control_c, 0, 64, 9
1, 68298, Note_on_c, 0, 79, 62
1, 68306, Note_off_c, 0, 63, 58
1, 68315, Control_c, 0, 64, 8
1, 68332, Note_on_c, 0, 67, 53
1, 68348, Note_off_c, 0, 80, 33
1, 68360, Note_on_c, 0, 77, 59
1, 68367, Note_off_c, 0, 67, 64
1, 68388, Control_c, 0, 64, 0
1, 68393, Note_off_c, 0, 79, 54
1, 68409, Note_on_c, 0, 70, 55
1, 68418, Note_on_c, 0, 75, 58
1, 68425, Note_off_c, 0, 77, 59
1, 68464, Note_off_c, 0, 75, 63
1, 68467, Note_off_c, 0, 70, 52
1, 68469, Note_on_c, 0, 74, 63
1, 68477, Control_c, 0, 64, 8
1, 68487, Note_off_c, 0, 74, 65
1, 68492, Control_c, 0, 64, 9
1, 68504, Note_on_c, 0, 65, 50
1, 68507, Control_c, 0, 64, 11
1, 68522, Control_c, 0, 64, 13
1, 68537, Control_c, 0, 64, 15
1, 68549, Note_off_c, 0, 65, 61
1, 68551, Control_c, 0, 64, 17
1, 68566, Control_c, 0, 64, 17
1, 68596, Control_c, 0, 64, 17
1, 68598, Note_on_c, 0, 68, 38
1, 68611, Control_c, 0, 64, 16
1, 68625, Control_c, 0, 64, 14
1, 68628, Note_off_c, 0, 68, 47
1, 68640, Control_c, 0, 64, 11
1, 68647, Note_on_c, 0, 70, 49
1, 68655, Control_c, 0, 64, 0
1, 68719, Note_off_c, 0, 70, 60
1, 68735, Note_on_c, 0, 65, 51
1, 68766, Control_c, 0, 64, 9
1, 68780, Note_off_c, 0, 65, 61
1, 68781, Control_c, 0, 64, 13
1, 68796, Control_c, 0, 64, 15
1, 68801, Note_on_c, 0, 68, 51
1, 68811, Control_c, 0, 64, 18
1, 68833, Note_off_c, 0, 68, 66
1, 68869, Note_on_c, 0, 70, 47
1, 68870, Control_c, 0, 64, 17
1, 68884, Control_c, 0, 64, 16
1, 68899, Control_c, 0, 64, 13
1, 68914, Control_c, 0, 64, 0
1, 68935, Note_on_c, 0, 61, 54
1, 68959, Note_off_c, 0, 61, 36
1, 68974, Note_on_c, 0, 62, 42
1, 68985, Note_off_c, 0, 70, 33
1, 69018, Note_on_c, 0, 66, 23
1, 69044, Note_off_c, 0, 62, 62
1, 69064, Note_off_c, 0, 66, 29
1, 69138, Note_on_c, 0, 70, 31
1, 69175, Note_off_c, 0, 70, 47
1, 69179, Note_on_c, 0, 86, 70
1, 69185, Note_on_c, 0, 62, 58
1, 69228, Note_on_c, 0, 84, 60
1, 69230, Note_off_c, 0, 86, 57
1, 69257, Note_off_c, 0, 62, 61
1, 69261, Note_on_c, 0, 65, 31
1, 69302, Note_off_c, 0, 84, 61
1, 69304, Note_on_c, 0, 82, 50
1, 69311, Note_off_c, 0, 65, 60
1, 69346, Note_on_c, 0, 80, 46
1, 69362, Note_on_c, 0, 70, 34
1, 69364, Note_off_c, 0, 82, 49
1, 69408, Note_off_c, 0, 80, 58
1, 69412, Note_off_c, 0, 70, 52
1, 69413, Note_on_c, 0, 79, 53
1, 69433, Note_on_c, 0, 63, 50
1, 69441, Note_off_c, 0, 79, 61
1, 69483, Note_off_c, 0, 63, 58
1, 69520, Note_on_c, 0, 67, 52
1, 69559, Note_off_c, 0, 67, 58
1, 69597, Note_on_c, 0, 70, 32
1, 69646, Note_off_c, 0, 70, 54
1, 69665, Note_on_c, 0, 63, 51
1, 69721, Note_off_c, 0, 63, 58
1, 69753, Note_on_c, 0, 67, 53
1, 69792, Note_off_c, 0, 67, 57
1, 69829, Note_on_c, 0, 70, 33
1, 69872, Note_off_c, 0, 70, 51
1, 69887, Note_on_c, 0, 63, 57
1, 69950, Note_off_c, 0, 63, 62
1, 69975, Control_c, 0, 64, 15
1, 69984, Note_on_c, 0, 67, 51
1, 69989, Control_c, 0, 64, 20
1, 70005, Control_c, 0, 64, 21
1, 70011, Note_off_c, 0, 67, 57
1, 70020, Control_c, 0, 64, 21
1, 70040, Note_on_c, 0, 70, 37
1, 70064, Control_c, 0, 64, 21
1, 70079, Control_c, 0, 64, 20
1, 70094, Control_c, 0, 64, 19
1, 70104, Note_off_c, 0, 70, 53
1, 70109, Control_c, 0, 64, 16
1, 70111, Note_on_c, 0, 80, 70
1, 70115, Note_on_c, 0, 63, 40
1, 70123, Control_c, 0, 64, 13
1, 70138, Control_c, 0, 64, 9
1, 70153, Note_on_c, 0, 79, 61
1, 70153, Control_c, 0, 64, 0
1, 70190, Note_off_c, 0, 63, 59
1, 70206, Note_on_c, 0, 67, 44
1, 70223, Note_on_c, 0, 77, 68
1, 70228, Note_off_c, 0, 80, 34
1, 70244, Note_off_c, 0, 67, 57
1, 70267, Note_off_c, 0, 79, 58
1, 70273, Note_on_c, 0, 70, 51
1, 70273, Note_on_c, 0, 75, 69
1, 70288, Note_off_c, 0, 77, 62
1, 70330, Note_off_c, 0, 75, 63
1, 70333, Note_on_c, 0, 74, 75
1, 70355, Note_off_c, 0, 74, 70
1, 70363, Note_off_c, 0, 70, 59
1, 70375, Note_on_c, 0, 65, 55
1, 70425, Note_off_c, 0, 65, 60
1, 70497, Note_on_c, 0, 70, 51
1, 70582, Note_on_c, 0, 65, 59
1, 70586, Note_off_c, 0, 70, 60
1, 70650, Note_off_c, 0, 65, 63
1, 70656, Note_on_c, 0, 68, 53
1, 70688, Note_off_c, 0, 68, 65
1, 70717, Note_on_c, 0, 70, 56
1, 70805, Note_on_c, 0, 62, 66
1, 70822, Note_off_c, 0, 70, 47
1, 70875, Note_off_c, 0, 62, 64
1, 70899, Note_on_c, 0, 65, 51
1, 70957, Note_off_c, 0, 65, 56
1, 70965, Note_on_c, 0, 70, 49
1, 71022, Note_off_c, 0, 70, 49
1, 71058, Note_on_c, 0, 86, 68
1, 71063, Note_on_c, 0, 62, 44
1, 71105, Note_on_c, 0, 84, 62
1, 71110, Note_off_c, 0, 62, 62
1, 71118, Note_off_c, 0, 86, 56
1, 71132, Note_on_c, 0, 65, 38
1, 71173, Note_on_c, 0, 82, 58
1, 71188, Note_off_c, 0, 65, 61
1, 71197, Note_off_c, 0, 84, 60
1, 71203, Note_on_c, 0, 80, 62
1, 71221, Note_on_c, 0, 70, 47
1, 71224, Note_off_c, 0, 82, 61
1, 71251, Note_off_c, 0, 80, 63
1, 71270, Note_on_c, 0, 79, 61
1, 71282, Note_off_c, 0, 70, 58
1, 71286, Note_on_c, 0, 63, 51
1, 71289, Note_off_c, 0, 79, 64
1, 71345, Note_off_c, 0, 63, 59
1, 71402, Note_on_c, 0, 67, 9
1, 71437, Note_on_c, 0, 70, 44
1, 71450, Note_off_c, 0, 67, 28
1, 71487, Control_c, 0, 64, 8
1, 71502, Control_c, 0, 64, 9
1, 71505, Note_on_c, 0, 63, 49
1, 71507, Note_off_c, 0, 70, 52
1, 71513, Note_on_c, 0, 80, 68
1, 71517, Control_c, 0, 64, 13
1, 71532, Control_c, 0, 64, 19
1, 71547, Control_c, 0, 64, 24
1, 71555, Note_on_c, 0, 79, 69
1, 71561, Control_c, 0, 64, 28
1, 71576, Control_c, 0, 64, 31
1, 71580, Note_off_c, 0, 80, 53
1, 71580, Note_off_c, 0, 63, 61
1, 71591, Control_c, 0, 64, 34
1, 71593, Note_on_c, 0, 67, 49
1, 71607, Control_c, 0, 64, 36
1, 71622, Control_c, 0, 64, 36
1, 71624, Note_on_c, 0, 77, 67
1, 71636, Control_c, 0, 64, 36
1, 71638, Note_off_c, 0, 67, 62
1, 71651, Control_c, 0, 64, 35
1, 71663, Note_on_c, 0, 70, 55
1, 71664, Note_on_c, 0, 75, 67
1, 71665, Note_off_c, 0, 79, 58
1, 71666, Control_c, 0, 64, 32
1, 71689, Control_c, 0, 64, 24
1, 71696, Note_off_c, 0, 77, 62
1, 71703, Control_c, 0, 64, 0
1, 71730, Note_on_c, 0, 74, 75
1, 71730, Note_off_c, 0, 75, 64
1, 71753, Note_off_c, 0, 74, 68
1, 71762, Note_off_c, 0, 70, 59
1, 71773, Note_on_c, 0, 65, 56
1, 71828, Note_off_c, 0, 65, 62
1, 71847, Note_on_c, 0, 68, 52
1, 71872, Note_off_c, 0, 68, 65
1, 71895, Note_on_c, 0, 70, 55
1, 71992, Note_on_c, 0, 86, 80
1, 72005, Note_on_c, 0, 62, 49
1, 72023, Note_off_c, 0, 70, 57
1, 72038, Note_on_c, 0, 84, 74
1, 72059, Control_c, 0, 64, 16
1, 72074, Note_off_c, 0, 86, 62
1, 72074, Control_c, 0, 64, 24
1, 72074, Control_c, 0, 67, 124
1, 72084, Note_on_c, 0, 65, 53
1, 72088, Note_off_c, 0, 62, 64
1, 72089, Control_c, 0, 64, 30
1, 72089, Control_c, 0, 67, 119
1, 72103, Control_c, 0, 64, 37
1, 72103, Control_c, 0, 67, 115
1, 72106, Note_on_c, 0, 82, 72
1, 72118, Control_c, 0, 64, 42
1, 72118, Control_c, 0, 67, 110
1, 72132, Control_c, 0, 64, 45
1, 72132, Control_c, 0, 67, 107
1, 72133, Note_off_c, 0, 84, 63
1, 72139, Note_off_c, 0, 65, 57
1, 72142, Note_on_c, 0, 80, 72
1, 72147, Control_c, 0, 64, 46
1, 72147, Control_c, 0, 67, 104
1, 72160, Note_on_c, 0, 70, 56
1, 72162, Control_c, 0, 67, 102
1, 72165, Note_off_c, 0, 82, 63
1, 72177, Control_c, 0, 64, 45
1, 72177, Control_c, 0, 67, 100
1, 72192, Control_c, 0, 64, 43
1, 72192, Control_c, 0, 67, 100
1, 72194, Note_off_c, 0, 80, 64
1, 72204, Note_on_c, 0, 79, 78
1, 72207, Control_c, 0, 64, 34
1, 72222, Control_c, 0, 64, 18
1, 72226, Note_on_c, 0, 63, 66
1, 72232, Note_off_c, 0, 79, 60
1, 72236, Control_c, 0, 64, 0
1, 72237, Note_off_c, 0, 70, 61
1, 72281, Control_c, 0, 67, 100
1, 72288, Note_off_c, 0, 63, 63
1, 72295, Control_c, 0, 67, 101
1, 72302, Note_on_c, 0, 67, 62
1, 72310, Control_c, 0, 67, 101
1, 72325, Control_c, 0, 67, 102
1, 72340, Control_c, 0, 67, 102
1, 72345, Note_off_c, 0, 67, 62
1, 72384, Note_on_c, 0, 70, 44
1, 72437, Control_c, 0, 67, 102
1, 72454, Note_on_c, 0, 63, 64
1, 72455, Note_on_c, 0, 80, 79
1, 72461, Note_off_c, 0, 70, 54
1, 72490, Note_on_c, 0, 79, 75
1, 72497, Control_c, 0, 67, 102
1, 72512, Control_c, 0, 67, 103
1, 72526, Note_off_c, 0, 80, 57
1, 72527, Note_off_c, 0, 63, 63
1, 72527, Control_c, 0, 67, 105
1, 72538, Note_on_c, 0, 67, 64
1, 72541, Control_c, 0, 67, 106
1, 72551, Note_on_c, 0, 77, 73
1, 72556, Control_c, 0, 67, 107
1, 72580, Note_off_c, 0, 67, 60
1, 72585, Control_c, 0, 67, 107
1, 72599, Note_off_c, 0, 79, 60
1, 72600, Control_c, 0, 67, 108
1, 72604, Note_on_c, 0, 75, 76
1, 72611, Note_on_c, 0, 70, 61
1, 72615, Control_c, 0, 67, 108
1, 72617, Note_off_c, 0, 77, 64
1, 72630, Control_c, 0, 67, 109
1, 72645, Control_c, 0, 67, 109
1, 72655, Note_off_c, 0, 75, 65
1, 72655, Note_on_c, 0, 74, 86
1, 72659, Control_c, 0, 67, 110
1, 72674, Note_off_c, 0, 74, 72
1, 72674, Control_c, 0, 67, 112
1, 72689, Control_c, 0, 67, 115
1, 72703, Note_off_c, 0, 70, 60
1, 72703, Note_on_c, 0, 65, 64
1, 72704, Control_c, 0, 67, 119
1, 72719, Control_c, 0, 67, 125
1, 72733, Control_c, 0, 67, 127
1, 72769, Note_off_c, 0, 65, 63
1, 72783, Note_on_c, 0, 68, 56
1, 72804, Note_off_c, 0, 68, 65
1, 72821, Note_on_c, 0, 70, 64
1, 72837, Control_c, 0, 67, 126
1, 72852, Control_c, 0, 67, 125
1, 72867, Control_c, 0, 67, 123
1, 72882, Control_c, 0, 67, 122
1, 72896, Control_c, 0, 67, 121
1, 72899, Note_on_c, 0, 86, 86
1, 72911, Note_on_c, 0, 62, 61
1, 72911, Control_c, 0, 67, 119
1, 72926, Control_c, 0, 67, 118
1, 72932, Note_off_c, 0, 70, 54
1, 72938, Note_on_c, 0, 84, 77
1, 72941, Control_c, 0, 67, 115
1, 72956, Control_c, 0, 67, 111
1, 72971, Control_c, 0, 67, 106
1, 72974, Note_off_c, 0, 86, 63
1, 72976, Note_off_c, 0, 62, 61
1, 72981, Note_on_c, 0, 65, 64
1, 72985, Control_c, 0, 67, 100
1, 73000, Control_c, 0, 67, 95
1, 73008, Note_on_c, 0, 82, 77
1, 73015, Control_c, 0, 67, 90
1, 73030, Control_c, 0, 67, 84
1, 73043, Note_off_c, 0, 65, 62
1, 73044, Control_c, 0, 67, 78
1, 73054, Note_on_c, 0, 80, 77
1, 73059, Control_c, 0, 67, 71
1, 73061, Note_on_c, 0, 70, 54
1, 73061, Note_off_c, 0, 84, 62
1, 73074, Control_c, 0, 67, 63
1, 73089, Control_c, 0, 67, 56
1, 73091, Note_off_c, 0, 82, 61
1, 73104, Control_c, 0, 67, 48
1, 73111, Note_on_c, 0, 79, 85
1, 73119, Note_off_c, 0, 80, 65
1, 73119, Control_c, 0, 67, 43
1, 73120, Note_on_c, 0, 63, 75
1, 73133, Control_c, 0, 67, 39
1, 73148, Control_c, 0, 67, 35
1, 73149, Note_off_c, 0, 79, 64
1, 73155, Note_off_c, 0, 70, 35
1, 73163, Control_c, 0, 67, 32
1, 73185, Control_c, 0, 67, 30
1, 73200, Control_c, 0, 67, 30
1, 73393, Note_on_c, 0, 87, 84
1, 73453, Control_c, 0, 67, 31
1, 73468, Control_c, 0, 67, 32
1, 73475, Note_on_c, 0, 86, 79
1, 73478, Note_off_c, 0, 87, 65
1, 73482, Control_c, 0, 67, 34
1, 73497, Control_c, 0, 67, 37
1, 73512, Control_c, 0, 67, 38
1, 73527, Control_c, 0, 67, 39
1, 73528, Note_off_c, 0, 86, 64
1, 73537, Note_off_c, 0, 63, 61
1, 73542, Control_c, 0, 67, 41
1, 73548, Note_on_c, 0, 84, 76
1, 73556, Control_c, 0, 67, 42
1, 73571, Control_c, 0, 67, 44
1, 73586, Control_c, 0, 67, 47
1, 73600, Control_c, 0, 67, 53
1, 73602, Note_off_c, 0, 84, 54
1, 73615, Control_c, 0, 67, 59
1, 73630, Note_on_c, 0, 82, 83
1, 73630, Control_c, 0, 67, 65
1, 73645, Control_c, 0, 67, 72
1, 73660, Control_c, 0, 67, 79
1, 73674, Control_c, 0, 67, 85
1, 73689, Control_c, 0, 67, 93
1, 73704, Control_c, 0, 67, 102
1, 73707, Note_on_c, 0, 80, 77
1, 73719, Control_c, 0, 67, 110
1, 73734, Control_c, 0, 67, 117
1, 73743, Note_off_c, 0, 82, 63
1, 73749, Control_c, 0, 67, 123
1, 73764, Control_c, 0, 67, 127
1, 73781, Note_on_c, 0, 79, 84
1, 73782, Note_off_c, 0, 80, 65
1, 73832, Note_off_c, 0, 79, 63
1, 73853, Note_on_c, 0, 77, 73
1, 73907, Note_off_c, 0, 77, 55
1, 73939, Note_on_c, 0, 75, 81
1, 74006, Note_off_c, 0, 75, 66
1, 74011, Note_on_c, 0, 74, 77
1, 74099, Note_off_c, 0, 74, 65
1, 74115, Note_on_c, 0, 72, 70
1, 74150, Note_on_c, 0, 56, 37
1, 74231, Control_c, 0, 64, 19
1, 74246, Control_c, 0, 64, 37
1, 74250, Note_off_c, 0, 72, 64
1, 74261, Control_c, 0, 64, 46
1, 74276, Control_c, 0, 64, 50
1, 74291, Control_c, 0, 64, 50
1, 74395, Control_c, 0, 64, 50
1, 74410, Control_c, 0, 64, 48
1, 74424, Control_c, 0, 64, 46
1, 74439, Control_c, 0, 64, 42
1, 74454, Control_c, 0, 64, 38
1, 74469, Control_c, 0, 64, 33
1, 74484, Control_c, 0, 64, 27
1, 74498, Control_c, 0, 64, 20
1, 74513, Control_c, 0, 64, 13
1, 74517, Note_on_c, 0, 76, 56
1, 74528, Control_c, 0, 64, 0
1, 74614, Note_off_c, 0, 56, 61
1, 74648, Note_on_c, 0, 77, 64
1, 74679, Note_off_c, 0, 76, 38
1, 74772, Note_on_c, 0, 78, 73
1, 74803, Note_off_c, 0, 77, 58
1, 74892, Note_off_c, 0, 78, 63
1, 74894, Note_on_c, 0, 79, 71
1, 75012, Note_on_c, 0, 80, 73
1, 75012, Note_off_c, 0, 79, 62
1, 75127, Note_off_c, 0, 80, 63
1, 75141, Note_on_c, 0, 81, 75
1, 75251, Note_on_c, 0, 82, 72
1, 75261, Note_off_c, 0, 81, 56
1, 75320, Control_c, 0, 64, 9
1, 75335, Control_c, 0, 64, 12
1, 75350, Control_c, 0, 64, 12
1, 75364, Note_on_c, 0, 83, 65
1, 75394, Control_c, 0, 64, 11
1, 75409, Control_c, 0, 64, 9
1, 75430, Note_off_c, 0, 82, 33
1, 75431, Control_c, 0, 64, 0
1, 75472, Note_off_c, 0, 83, 62
1, 75489, Note_on_c, 0, 84, 69
1, 75615, Note_on_c, 0, 82, 68
1, 75706, Note_off_c, 0, 84, 52
1, 75721, Note_on_c, 0, 80, 64
1, 75824, Note_off_c, 0, 82, 33
1, 75838, Note_on_c, 0, 79, 64
1, 75861, Note_off_c, 0, 80, 48
1, 75937, Note_off_c, 0, 79, 60
1, 75951, Note_on_c, 0, 77, 59
1, 76094, Note_on_c, 0, 75, 58
1, 76115, Note_off_c, 0, 77, 35
1, 76325, Note_on_c, 0, 67, 49
1, 76333, Note_on_c, 0, 58, 41
1, 76363, Note_off_c, 0, 67, 58
1, 76368, Note_off_c, 0, 58, 57
1, 76557, Note_on_c, 0, 67, 54
1, 76574, Note_on_c, 0, 58, 37
1, 76599, Note_off_c, 0, 67, 60
1, 76608, Note_off_c, 0, 58, 55
1, 76703, Note_off_c, 0, 75, 59
1, 76746, Note_on_c, 0, 74, 53
1, 76793, Note_off_c, 0, 74, 55
1, 76806, Note_on_c, 0, 58, 42
1, 76806, Note_on_c, 0, 65, 35
1, 76816, Note_on_c, 0, 80, 58
1, 76836, Note_off_c, 0, 65, 47
1, 76851, Note_off_c, 0, 58, 54
1, 76900, Note_off_c, 0, 80, 57
1, 76901, Note_on_c, 0, 77, 48
1, 76939, Note_off_c, 0, 77, 61
1, 76978, Note_on_c, 0, 74, 53
1, 77057, Note_off_c, 0, 74, 37
1, 77088, Note_on_c, 0, 75, 49
1, 77100, Note_on_c, 0, 63, 35
1, 77264, Note_off_c, 0, 63, 59
1, 77269, Note_off_c, 0, 75, 63
1, 77618, Note_on_c, 0, 70, 45
1, 77622, Note_on_c, 0, 67, 41
1, 77626, Control_c, 0, 64, 12
1, 77640, Control_c, 0, 64, 24
1, 77655, Control_c, 0, 64, 34
1, 77678, Control_c, 0, 64, 43
1, 77692, Control_c, 0, 64, 50
1, 77707, Control_c, 0, 64, 54
1, 77722, Control_c, 0, 64, 57
1, 77725, Note_off_c, 0, 67, 0
1, 77725, Note_on_c, 0, 67, 5
1, 77737, Control_c, 0, 64, 60
1, 77752, Control_c, 0, 64, 63
1, 77766, Control_c, 0, 64, 64
1, 77770, Note_off_c, 0, 70, 60
1, 77781, Control_c, 0, 64, 65
1, 77796, Control_c, 0, 64, 66
1, 77811, Control_c, 0, 64, 67
1, 77826, Control_c, 0, 64, 68
1, 77840, Control_c, 0, 64, 69
1, 77855, Control_c, 0, 64, 70
1, 77870, Control_c, 0, 64, 70
1, 77885, Control_c, 0, 64, 71
1, 77899, Control_c, 0, 64, 71
1, 77953, Note_on_c, 0, 74, 38
1, 77992, Note_on_c, 0, 72, 51
1, 77995, Note_on_c, 0, 68, 40
1, 77997, Note_off_c, 0, 67, 42
1, 77997, Note_off_c, 0, 74, 44
1, 78019, Control_c, 0, 64, 71
1, 78049, Control_c, 0, 64, 70
1, 78052, Note_off_c, 0, 68, 0
1, 78064, Control_c, 0, 64, 69
1, 78078, Control_c, 0, 64, 68
1, 78089, Poly_aftertouch_c, 0, 68, 127
1, 78093, Control_c, 0, 64, 66
1, 78108, Control_c, 0, 64, 63
1, 78123, Control_c, 0, 64, 60
1, 78138, Control_c, 0, 64, 58
1, 78144, Poly_aftertouch_c, 0, 68, 0
1, 78153, Control_c, 0, 64, 57
1, 78168, Control_c, 0, 64, 55
1, 78171, Note_on_c, 0, 70, 35
1, 78181, Note_on_c, 0, 67, 26
1, 78183, Control_c, 0, 64, 53
1, 78197, Control_c, 0, 64, 50
1, 78207, Note_on_c, 0, 39, 26
1, 78212, Control_c, 0, 64, 45
1, 78227, Control_c, 0, 64, 39
1, 78242, Control_c, 0, 64, 34
1, 78244, Note_off_c, 0, 72, 51
1, 78257, Control_c, 0, 64, 28
1, 78271, Control_c, 0, 64, 19
1, 78286, Control_c, 0, 64, 0
1, 78367, Note_off_c, 0, 67, 51
1, 78385, Note_off_c, 0, 70, 56
1, 78401, Note_off_c, 0, 39, 56
1, 79188, Note_on_c, 0, 82, 58
1, 79213, Note_on_c, 0, 79, 40
1, 79353, Control_c, 0, 64, 16
1, 79368, Control_c, 0, 64, 26
1, 79383, Control_c, 0, 64, 34
1, 79398, Control_c, 0, 64, 41
1, 79413, Control_c, 0, 64, 45
1, 79427, Control_c, 0, 64, 49
1, 79427, Control_c, 0, 67, 127
1, 79431, Note_on_c, 0, 51, 42
1, 79442, Control_c, 0, 64, 52
1, 79442, Control_c, 0, 67, 126
1, 79457, Control_c, 0, 64, 55
1, 79457, Control_c, 0, 67, 125
1, 79471, Control_c, 0, 64, 57
1, 79471, Control_c, 0, 67, 124
1, 79486, Control_c, 0, 64, 60
1, 79486, Control_c, 0, 67, 123
1, 79501, Control_c, 0, 64, 62
1, 79501, Control_c, 0, 67, 121
1, 79516, Control_c, 0, 64, 63
1, 79516, Control_c, 0, 67, 119
1, 79531, Control_c, 0, 64, 65
1, 79531, Control_c, 0, 67, 117
1, 79545, Control_c, 0, 64, 67
1, 79545, Control_c, 0, 67, 115
1, 79560, Control_c, 0, 64, 69
1, 79560, Control_c, 0, 67, 114
1, 79575, Control_c, 0, 64, 72
1, 79575, Control_c, 0, 67, 112
1, 79591, Control_c, 0, 64, 75
1, 79591, Control_c, 0, 67, 110
1, 79606, Control_c, 0, 64, 77
1, 79606, Control_c, 0, 67, 108
1, 79621, Control_c, 0, 64, 80
1, 79621, Control_c, 0, 67, 105
1, 79635, Control_c, 0, 64, 82
1, 79635, Control_c, 0, 67, 102
1, 79650, Control_c, 0, 64, 85
1, 79650, Control_c, 0, 67, 98
1, 79665, Control_c, 0, 64, 87
1, 79665, Control_c, 0, 67, 95
1, 79680, Control_c, 0, 64, 89
1, 79680, Control_c, 0, 67, 91
1, 79685, Note_on_c, 0, 63, 35
1, 79688, Note_off_c, 0, 51, 32
1, 79694, Control_c, 0, 64, 90
1, 79694, Control_c, 0, 67, 87
1, 79709, Control_c, 0, 64, 90
1, 79709, Control_c, 0, 67, 83
1, 79710, Note_off_c, 0, 63, 52
1, 79724, Control_c, 0, 67, 79
1, 79739, Control_c, 0, 67, 75
1, 79754, Control_c, 0, 67, 71
1, 79768, Control_c, 0, 67, 68
1, 79783, Control_c, 0, 67, 65
1, 79798, Control_c, 0, 67, 62
1, 79813, Control_c, 0, 64, 90
1, 79813, Control_c, 0, 67, 60
1, 79828, Control_c, 0, 64, 86
1, 79828, Control_c, 0, 67, 58
1, 79842, Control_c, 0, 64, 80
1, 79842, Control_c, 0, 67, 58
1, 79857, Control_c, 0, 64, 73
1, 79857, Control_c, 0, 67, 57
1, 79872, Control_c, 0, 64, 66
1, 79887, Control_c, 0, 64, 59
1, 79896, Note_on_c, 0, 80, 61
1, 79902, Control_c, 0, 64, 53
1, 79903, Note_on_c, 0, 77, 43
1, 79924, Control_c, 0, 64, 49
1, 79939, Control_c, 0, 64, 44
1, 79954, Control_c, 0, 64, 35
1, 79968, Control_c, 0, 64, 17
1, 79983, Control_c, 0, 64, 0
1, 79983, Control_c, 0, 67, 58
1, 79998, Control_c, 0, 67, 58
1, 80013, Control_c, 0, 67, 59
1, 80020, Note_off_c, 0, 79, 34
1, 80028, Control_c, 0, 67, 60
1, 80029, Note_off_c, 0, 77, 61
1, 80042, Control_c, 0, 67, 61
1, 80057, Control_c, 0, 67, 61
1, 80060, Note_off_c, 0, 82, 54
1, 80072, Control_c, 0, 67, 62
1, 80079, Note_off_c, 0, 80, 63
1, 80087, Control_c, 0, 67, 63
1, 80101, Control_c, 0, 67, 63
1, 80116, Control_c, 0, 67, 64
1, 80131, Control_c, 0, 67, 65
1, 80146, Note_on_c, 0, 84, 73
1, 80164, Note_on_c, 0, 80, 62
1, 80191, Control_c, 0, 67, 65
1, 80235, Control_c, 0, 67, 66
1, 80324, Control_c, 0, 64, 9
1, 80324, Control_c, 0, 67, 65
1, 80339, Control_c, 0, 64, 28
1, 80354, Control_c, 0, 64, 38
1, 80354, Control_c, 0, 67, 65
1, 80368, Control_c, 0, 64, 45
1, 80368, Control_c, 0, 67, 64
1, 80384, Control_c, 0, 64, 51
1, 80384, Control_c, 0, 67, 64
1, 80386, Note_on_c, 0, 51, 56
1, 80399, Control_c, 0, 64, 54
1, 80399, Control_c, 0, 67, 63
1, 80414, Control_c, 0, 64, 58
1, 80414, Control_c, 0, 67, 63
1, 80429, Control_c, 0, 64, 61
1, 80429, Control_c, 0, 67, 62
1, 80443, Control_c, 0, 64, 64
1, 80443, Control_c, 0, 67, 62
1, 80458, Control_c, 0, 64, 66
1, 80458, Control_c, 0, 67, 61
1, 80473, Control_c, 0, 64, 69
1, 80473, Control_c, 0, 67, 61
1, 80488, Control_c, 0, 64, 72
1, 80488, Control_c, 0, 67, 60
1, 80503, Control_c, 0, 64, 77
1, 80503, Control_c, 0, 67, 59
1, 80517, Control_c, 0, 64, 82
1, 80517, Control_c, 0, 67, 58
1, 80532, Control_c, 0, 64, 88
1, 80532, Control_c, 0, 67, 58
1, 80547, Control_c, 0, 64, 96
1, 80547, Control_c, 0, 67, 57
1, 80562, Control_c, 0, 64, 106
1, 80562, Control_c, 0, 67, 56
1, 80577, Control_c, 0, 64, 127
1, 80577, Control_c, 0, 67, 55
1, 80583, Note_off_c, 0, 51, 62
1, 80591, Control_c, 0, 67, 54
1, 80606, Control_c, 0, 67, 51
1, 80620, Note_on_c, 0, 63, 53
1, 80621, Control_c, 0, 67, 46
1, 80635, Control_c, 0, 67, 41
1, 80648, Note_off_c, 0, 63, 65
1, 80650, Control_c, 0, 67, 34
1, 80673, Control_c, 0, 67, 29
1, 80688, Control_c, 0, 67, 25
1, 80703, Control_c, 0, 67, 23
1, 80717, Control_c, 0, 67, 21
1, 80732, Control_c, 0, 67, 20
1, 80791, Control_c, 0, 64, 103
1, 80806, Control_c, 0, 64, 85
1, 80821, Control_c, 0, 64, 73
1, 80828, Note_on_c, 0, 82, 84
1, 80836, Control_c, 0, 64, 64
1, 80843, Note_on_c, 0, 79, 52
1, 80850, Control_c, 0, 64, 52
1, 80865, Control_c, 0, 64, 39
1, 80865, Control_c, 0, 67, 21
1, 80880, Control_c, 0, 64, 0
1, 80880, Control_c, 0, 67, 21
1, 80895, Control_c, 0, 67, 22
1, 80910, Control_c, 0, 67, 23
1, 80924, Control_c, 0, 67, 25
1, 80930, Note_off_c, 0, 80, 48
1, 80939, Control_c, 0, 67, 26
1, 80954, Control_c, 0, 67, 28
1, 80969, Control_c, 0, 67, 30
1, 80981, Note_off_c, 0, 84, 45
1, 80984, Control_c, 0, 67, 32
1, 80998, Note_off_c, 0, 79, 61
1, 80999, Control_c, 0, 67, 34
1, 81013, Control_c, 0, 67, 38
1, 81028, Control_c, 0, 67, 42
1, 81043, Control_c, 0, 67, 47
1, 81051, Note_off_c, 0, 82, 62
1, 81058, Control_c, 0, 67, 52
1, 81073, Control_c, 0, 67, 58
1, 81088, Control_c, 0, 67, 63
1, 81097, Note_on_c, 0, 85, 84
1, 81103, Control_c, 0, 67, 70
1, 81105, Note_on_c, 0, 82, 62
1, 81118, Control_c, 0, 67, 76
1, 81133, Control_c, 0, 67, 82
1, 81148, Control_c, 0, 67, 88
1, 81162, Control_c, 0, 67, 95
1, 81177, Control_c, 0, 67, 102
1, 81193, Control_c, 0, 67, 109
1, 81208, Control_c, 0, 67, 117
1, 81222, Control_c, 0, 67, 124
1, 81237, Control_c, 0, 67, 127
1, 81318, Note_on_c, 0, 36, 65
1, 81595, Note_on_c, 0, 48, 70
1, 81721, Note_off_c, 0, 36, 60
1, 81833, Note_on_c, 0, 84, 73
1, 81844, Note_on_c, 0, 80, 54
1, 81878, Note_off_c, 0, 82, 57
1, 81916, Note_off_c, 0, 85, 52
1, 82067, Note_on_c, 0, 82, 69
1, 82071, Note_on_c, 0, 79, 56
1, 82135, Note_off_c, 0, 80, 59
1, 82146, Note_off_c, 0, 84, 59
1, 82186, Control_c, 0, 64, 12
1, 82193, Note_off_c, 0, 82, 62
1, 82201, Control_c, 0, 64, 32
1, 82215, Control_c, 0, 64, 44
1, 82230, Control_c, 0, 64, 51
1, 82245, Control_c, 0, 64, 54
1, 82260, Control_c, 0, 64, 57
1, 82260, Control_c, 0, 67, 127
1, 82275, Control_c, 0, 64, 59
1, 82275, Control_c, 0, 67, 125
1, 82289, Control_c, 0, 64, 61
1, 82289, Control_c, 0, 67, 124
1, 82299, Note_on_c, 0, 80, 65
1, 82304, Control_c, 0, 64, 62
1, 82304, Control_c, 0, 67, 123
1, 82313, Note_on_c, 0, 77, 58
1, 82319, Control_c, 0, 64, 63
1, 82319, Control_c, 0, 67, 122
1, 82334, Control_c, 0, 64, 64
1, 82361, Note_off_c, 0, 79, 61
1, 82394, Control_c, 0, 67, 123
1, 82423, Control_c, 0, 64, 64
1, 82438, Control_c, 0, 64, 63
1, 82438, Control_c, 0, 67, 123
1, 82453, Control_c, 0, 64, 59
1, 82468, Control_c, 0, 64, 53
1, 82468, Control_c, 0, 67, 124
1, 82482, Control_c, 0, 64, 45
1, 82482, Control_c, 0, 67, 124
1, 82497, Control_c, 0, 64, 42
1, 82512, Control_c, 0, 64, 40
1, 82512, Control_c, 0, 67, 125
1, 82527, Control_c, 0, 64, 35
1, 82536, Note_on_c, 0, 79, 60
1, 82542, Control_c, 0, 64, 18
1, 82542, Control_c, 0, 67, 125
1, 82546, Note_on_c, 0, 76, 51
1, 82556, Control_c, 0, 64, 0
1, 82556, Control_c, 0, 67, 126
1, 82586, Control_c, 0, 67, 126
1, 82599, Note_off_c, 0, 77, 34
1, 82614, Control_c, 0, 67, 127
1, 82638, Note_off_c, 0, 79, 60
1, 82642, Note_off_c, 0, 80, 36
1, 82644, Control_c, 0, 67, 126
1, 82674, Control_c, 0, 67, 126
1, 82689, Control_c, 0, 64, 27
1, 82689, Control_c, 0, 67, 125
1, 82704, Control_c, 0, 64, 42
1, 82704, Control_c, 0, 67, 125
1, 82719, Control_c, 0, 64, 55
1, 82719, Control_c, 0, 67, 124
1, 82733, Control_c, 0, 64, 60
1, 82733, Control_c, 0, 67, 124
1, 82748, Control_c, 0, 64, 64
1, 82748, Control_c, 0, 67, 123
1, 82763, Note_on_c, 0, 82, 62
1, 82763, Control_c, 0, 64, 67
1, 82767, Note_off_c, 0, 48, 63
1, 82778, Control_c, 0, 64, 71
1, 82778, Control_c, 0, 67, 123
1, 82779, Note_on_c, 0, 79, 50
1, 82793, Control_c, 0, 64, 75
1, 82793, Control_c, 0, 67, 122
1, 82808, Control_c, 0, 64, 79
1, 82823, Control_c, 0, 64, 81
1, 82823, Control_c, 0, 67, 121
1, 82838, Control_c, 0, 64, 83
1, 82853, Control_c, 0, 64, 85
1, 82853, Control_c, 0, 67, 121
1, 82868, Control_c, 0, 64, 87
1, 82872, Note_off_c, 0, 76, 35
1, 82873, Note_off_c, 0, 79, 43
1, 82882, Control_c, 0, 64, 87
1, 82897, Control_c, 0, 64, 88
1, 82897, Control_c, 0, 67, 121
1, 82993, Control_c, 0, 67, 122
1, 83008, Control_c, 0, 64, 87
1, 83023, Control_c, 0, 64, 86
1, 83037, Control_c, 0, 64, 82
1, 83037, Control_c, 0, 67, 122
1, 83052, Control_c, 0, 64, 77
1, 83052, Control_c, 0, 67, 123
1, 83065, Note_on_c, 0, 68, 57
1, 83067, Control_c, 0, 64, 69
1, 83070, Note_on_c, 0, 65, 53
1, 83070, Note_on_c, 0, 80, 53
1, 83082, Control_c, 0, 64, 61
1, 83082, Control_c, 0, 67, 123
1, 83097, Control_c, 0, 64, 51
1, 83097, Control_c, 0, 67, 124
1, 83112, Control_c, 0, 64, 45
1, 83112, Control_c, 0, 67, 125
1, 83127, Control_c, 0, 64, 38
1, 83127, Control_c, 0, 67, 126
1, 83142, Control_c, 0, 64, 27
1, 83142, Control_c, 0, 67, 126
1, 83157, Control_c, 0, 64, 0
1, 83157, Control_c, 0, 67, 127
1, 83213, Note_off_c, 0, 82, 32
1, 83318, Note_on_c, 0, 72, 46
1, 83342, Note_off_c, 0, 80, 48
1, 83565, Note_on_c, 0, 84, 48
1, 83577, Note_off_c, 0, 72, 48
1, 83646, Control_c, 0, 64, 20
1, 83668, Control_c, 0, 64, 38
1, 83683, Control_c, 0, 64, 50
1, 83698, Control_c, 0, 64, 57
1, 83713, Control_c, 0, 64, 60
1, 83728, Control_c, 0, 64, 63
1, 83742, Control_c, 0, 64, 65
1, 83757, Control_c, 0, 64, 68
1, 83771, Note_on_c, 0, 67, 57
1, 83772, Control_c, 0, 64, 71
1, 83775, Note_on_c, 0, 64, 45
1, 83786, Control_c, 0, 64, 75
1, 83795, Note_off_c, 0, 68, 66
1, 83801, Control_c, 0, 64, 80
1, 83810, Note_off_c, 0, 65, 60
1, 83816, Control_c, 0, 64, 83
1, 83823, Note_off_c, 0, 64, 60
1, 83831, Control_c, 0, 64, 86
1, 83836, Note_off_c, 0, 67, 63
1, 83846, Control_c, 0, 64, 89
1, 83860, Control_c, 0, 64, 92
1, 83875, Control_c, 0, 64, 95
1, 83890, Control_c, 0, 64, 98
1, 83905, Control_c, 0, 64, 99
1, 83920, Control_c, 0, 64, 100
1, 83979, Control_c, 0, 64, 99
1, 83994, Control_c, 0, 64, 91
1, 84009, Control_c, 0, 64, 80
1, 84021, Note_on_c, 0, 70, 70
1, 84024, Control_c, 0, 64, 69
1, 84030, Note_on_c, 0, 67, 63
1, 84039, Control_c, 0, 64, 59
1, 84054, Control_c, 0, 64, 49
1, 84068, Control_c, 0, 64, 37
1, 84083, Control_c, 0, 64, 14
1, 84087, Note_off_c, 0, 84, 33
1, 84098, Control_c, 0, 64, 0
1, 84244, Note_on_c, 0, 72, 71
1, 84462, Control_c, 0, 64, 33
1, 84477, Note_on_c, 0, 84, 74
1, 84477, Control_c, 0, 64, 48
1, 84486, Note_off_c, 0, 72, 58
1, 84492, Control_c, 0, 64, 55
1, 84507, Control_c, 0, 64, 59
1, 84522, Control_c, 0, 64, 63
1, 84537, Control_c, 0, 64, 66
1, 84552, Control_c, 0, 64, 70
1, 84566, Control_c, 0, 64, 74
1, 84580, Note_off_c, 0, 84, 58
1, 84581, Control_c, 0, 64, 81
1, 84596, Control_c, 0, 64, 86
1, 84610, Control_c, 0, 64, 91
1, 84625, Control_c, 0, 64, 96
1, 84640, Control_c, 0, 64, 100
1, 84655, Control_c, 0, 64, 102
1, 84656, Note_off_c, 0, 67, 58
1, 84670, Control_c, 0, 64, 102
1, 84698, Note_on_c, 0, 68, 80
1, 84708, Note_off_c, 0, 70, 59
1, 84710, Note_on_c, 0, 65, 52
1, 84736, Note_off_c, 0, 65, 64
1, 84743, Control_c, 0, 67, 126
1, 84747, Note_off_c, 0, 68, 65
1, 84758, Control_c, 0, 64, 101
1, 84758, Control_c, 0, 67, 124
1, 84773, Control_c, 0, 67, 122
1, 84788, Control_c, 0, 67, 121
1, 84803, Control_c, 0, 67, 119
1, 84817, Control_c, 0, 67, 118
1, 84832, Control_c, 0, 64, 101
1, 84832, Control_c, 0, 67, 117
1, 84847, Control_c, 0, 64, 100
1, 84847, Control_c, 0, 67, 117
1, 84862, Control_c, 0, 64, 98
1, 84862, Control_c, 0, 67, 116
1, 84877, Control_c, 0, 64, 94
1, 84892, Control_c, 0, 64, 89
1, 84906, Control_c, 0, 64, 83
1, 84921, Control_c, 0, 64, 77
1, 84921, Control_c, 0, 67, 116
1, 84936, Control_c, 0, 64, 71
1, 84951, Control_c, 0, 64, 66
1, 84966, Note_on_c, 0, 72, 78
1, 84966, Control_c, 0, 64, 63
1, 84981, Control_c, 0, 64, 60
1, 84994, Note_on_c, 0, 68, 49
1, 84996, Control_c, 0, 64, 58
1, 85010, Control_c, 0, 64, 55
1, 85025, Control_c, 0, 64, 51
1, 85040, Control_c, 0, 64, 47
1, 85055, Control_c, 0, 64, 42
1, 85070, Control_c, 0, 64, 36
1, 85070, Control_c, 0, 67, 116
1, 85084, Control_c, 0, 64, 31
1, 85099, Control_c, 0, 64, 24
1, 85114, Control_c, 0, 64, 0
1, 85114, Control_c, 0, 67, 117
1, 85128, Control_c, 0, 67, 117
1, 85143, Control_c, 0, 67, 118
1, 85166, Control_c, 0, 67, 119
1, 85181, Control_c, 0, 67, 120
1, 85196, Control_c, 0, 67, 121
1, 85201, Note_on_c, 0, 77, 74
1, 85211, Control_c, 0, 67, 122
1, 85226, Control_c, 0, 67, 124
1, 85240, Control_c, 0, 67, 125
1, 85255, Control_c, 0, 67, 125
1, 85270, Control_c, 0, 67, 126
1, 85285, Control_c, 0, 67, 127
1, 85300, Control_c, 0, 67, 127
1, 85315, Control_c, 0, 64, 26
1, 85330, Control_c, 0, 64, 45
1, 85345, Control_c, 0, 64, 54
1, 85359, Control_c, 0, 64, 58
1, 85374, Control_c, 0, 64, 61
1, 85389, Control_c, 0, 64, 63
1, 85404, Control_c, 0, 64, 65
1, 85411, Note_off_c, 0, 77, 61
1, 85419, Control_c, 0, 64, 67
1, 85431, Note_on_c, 0, 89, 75
1, 85433, Control_c, 0, 64, 70
1, 85448, Control_c, 0, 64, 73
1, 85461, Note_off_c, 0, 89, 61
1, 85463, Control_c, 0, 64, 75
1, 85478, Control_c, 0, 64, 78
1, 85493, Control_c, 0, 64, 81
1, 85507, Control_c, 0, 64, 84
1, 85522, Control_c, 0, 64, 88
1, 85537, Control_c, 0, 64, 92
1, 85552, Control_c, 0, 64, 95
1, 85566, Control_c, 0, 64, 97
1, 85581, Control_c, 0, 64, 99
1, 85596, Control_c, 0, 64, 99
1, 85670, Note_on_c, 0, 75, 61
1, 85670, Control_c, 0, 64, 99
1, 85679, Note_on_c, 0, 70, 51
1, 85685, Control_c, 0, 64, 95
1, 85688, Note_on_c, 0, 67, 55
1, 85700, Control_c, 0, 64, 88
1, 85711, Note_off_c, 0, 68, 45
1, 85714, Control_c, 0, 64, 82
1, 85729, Control_c, 0, 64, 74
1, 85740, Note_off_c, 0, 72, 52
1, 85744, Control_c, 0, 64, 67
1, 85759, Control_c, 0, 64, 61
1, 85763, Note_off_c, 0, 75, 52
1, 85774, Control_c, 0, 64, 55
1, 85778, Note_on_c, 0, 87, 66
1, 85789, Control_c, 0, 64, 51
1, 85804, Control_c, 0, 64, 48
1, 85819, Control_c, 0, 64, 44
1, 85833, Control_c, 0, 64, 35
1, 85848, Control_c, 0, 64, 18
1, 85863, Control_c, 0, 64, 0
1, 85911, Note_on_c, 0, 73, 66
1, 85916, Note_off_c, 0, 87, 45
1, 85918, Note_on_c, 0, 68, 54
1, 85926, Note_on_c, 0, 65, 58
1, 85944, Control_c, 0, 64, 18
1, 85959, Control_c, 0, 64, 40
1, 85965, Note_off_c, 0, 67, 57
1, 85974, Control_c, 0, 64, 53
1, 85989, Control_c, 0, 64, 58
1, 85995, Note_off_c, 0, 70, 61
1, 86001, Note_off_c, 0, 68, 63
1, 86004, Control_c, 0, 64, 61
1, 86009, Note_off_c, 0, 73, 55
1, 86019, Note_on_c, 0, 85, 62
1, 86019, Control_c, 0, 64, 63
1, 86021, Note_off_c, 0, 65, 63
1, 86034, Control_c, 0, 64, 65
1, 86049, Control_c, 0, 64, 67
1, 86063, Control_c, 0, 64, 68
1, 86078, Control_c, 0, 64, 69
1, 86090, Note_off_c, 0, 85, 62
1, 86108, Control_c, 0, 64, 69
1, 86123, Control_c, 0, 64, 67
1, 86133, Note_on_c, 0, 72, 67
1, 86138, Note_on_c, 0, 67, 58
1, 86138, Control_c, 0, 64, 59
1, 86150, Note_on_c, 0, 63, 49
1, 86153, Control_c, 0, 64, 45
1, 86167, Control_c, 0, 64, 28
1, 86182, Control_c, 0, 64, 27
1, 86197, Control_c, 0, 64, 40
1, 86200, Note_off_c, 0, 72, 60
1, 86212, Control_c, 0, 64, 51
1, 86227, Control_c, 0, 64, 54
1, 86233, Note_on_c, 0, 84, 61
1, 86242, Control_c, 0, 64, 56
1, 86256, Control_c, 0, 64, 58
1, 86271, Control_c, 0, 64, 59
1, 86293, Note_off_c, 0, 84, 59
1, 86301, Control_c, 0, 64, 58
1, 86316, Control_c, 0, 64, 57
1, 86330, Control_c, 0, 64, 55
1, 86345, Control_c, 0, 64, 52
1, 86360, Control_c, 0, 64, 49
1, 86363, Note_on_c, 0, 70, 65
1, 86364, Note_on_c, 0, 65, 48
1, 86375, Note_on_c, 0, 61, 47
1, 86375, Control_c, 0, 64, 45
1, 86389, Control_c, 0, 64, 40
1, 86395, Note_off_c, 0, 63, 53
1, 86404, Control_c, 0, 64, 33
1, 86419, Control_c, 0, 64, 25
1, 86429, Note_off_c, 0, 70, 59
1, 86434, Control_c, 0, 64, 15
1, 86449, Control_c, 0, 64, 0
1, 86451, Note_off_c, 0, 67, 36
1, 86467, Note_on_c, 0, 82, 57
1, 86522, Note_off_c, 0, 82, 50
1, 86577, Note_on_c, 0, 63, 47
1, 86582, Note_on_c, 0, 68, 60
1, 86603, Note_on_c, 0, 60, 52
1, 86626, Control_c, 0, 64, 31
1, 86641, Note_off_c, 0, 65, 59
1, 86641, Control_c, 0, 64, 45
1, 86663, Control_c, 0, 64, 52
1, 86670, Note_off_c, 0, 63, 63
1, 86678, Control_c, 0, 64, 55
1, 86693, Control_c, 0, 64, 57
1, 86697, Note_off_c, 0, 61, 40
1, 86704, Note_on_c, 0, 80, 54
1, 86707, Control_c, 0, 64, 59
1, 86710, Note_off_c, 0, 68, 35
1, 86714, Note_off_c, 0, 60, 63
1, 86722, Control_c, 0, 64, 61
1, 86737, Control_c, 0, 64, 62
1, 86752, Control_c, 0, 64, 63
1, 86763, Note_off_c, 0, 80, 55
1, 86812, Control_c, 0, 64, 63
1, 86817, Note_on_c, 0, 67, 56
1, 86821, Note_on_c, 0, 61, 43
1, 86827, Control_c, 0, 64, 64
1, 86829, Note_on_c, 0, 58, 50
1, 86842, Control_c, 0, 64, 64
1, 86872, Control_c, 0, 64, 65
1, 86883, Note_off_c, 0, 67, 52
1, 86914, Note_on_c, 0, 79, 55
1, 86949, Note_off_c, 0, 79, 59
1, 87005, Control_c, 0, 64, 64
1, 87020, Control_c, 0, 64, 63
1, 87035, Control_c, 0, 64, 62
1, 87037, Note_on_c, 0, 60, 48
1, 87039, Note_on_c, 0, 56, 45
1, 87043, Note_on_c, 0, 65, 60
1, 87050, Control_c, 0, 64, 61
1, 87065, Control_c, 0, 64, 61
1, 87065, Note_off_c, 0, 61, 48
1, 87079, Control_c, 0, 64, 60
1, 87087, Note_off_c, 0, 58, 33
1, 87092, Note_off_c, 0, 65, 60
1, 87094, Control_c, 0, 64, 59
1, 87108, Control_c, 0, 64, 58
1, 87122, Control_c, 0, 64, 57
1, 87137, Control_c, 0, 64, 57
1, 87140, Note_off_c, 0, 56, 46
1, 87156, Note_on_c, 0, 77, 47
1, 87192, Note_off_c, 0, 77, 53
1, 87196, Control_c, 0, 64, 56
1, 87226, Control_c, 0, 64, 55
1, 87241, Control_c, 0, 64, 55
1, 87254, Note_on_c, 0, 58, 38
1, 87256, Control_c, 0, 64, 54
1, 87269, Note_on_c, 0, 63, 53
1, 87271, Control_c, 0, 64, 54
1, 87274, Note_on_c, 0, 55, 40
1, 87285, Control_c, 0, 64, 53
1, 87300, Control_c, 0, 64, 53
1, 87315, Control_c, 0, 64, 52
1, 87323, Note_off_c, 0, 60, 40
1, 87330, Control_c, 0, 64, 51
1, 87345, Control_c, 0, 64, 50
1, 87348, Note_off_c, 0, 63, 45
1, 87360, Control_c, 0, 64, 50
1, 87375, Control_c, 0, 64, 49
1, 87378, Note_on_c, 0, 75, 40
1, 87390, Control_c, 0, 64, 48
1, 87411, Control_c, 0, 64, 47
1, 87426, Control_c, 0, 64, 46
1, 87429, Note_off_c, 0, 75, 60
1, 87441, Control_c, 0, 64, 44
1, 87455, Control_c, 0, 64, 43
1, 87470, Control_c, 0, 64, 41
1, 87477, Note_off_c, 0, 55, 36
1, 87485, Control_c, 0, 64, 39
1, 87493, Note_on_c, 0, 62, 56
1, 87494, Note_on_c, 0, 53, 38
1, 87497, Note_on_c, 0, 56, 49
1, 87500, Control_c, 0, 64, 38
1, 87515, Control_c, 0, 64, 37
1, 87530, Control_c, 0, 64, 35
1, 87541, Note_off_c, 0, 62, 57
1, 87545, Control_c, 0, 64, 34
1, 87557, Note_off_c, 0, 58, 42
1, 87560, Control_c, 0, 64, 33
1, 87574, Control_c, 0, 64, 32
1, 87590, Control_c, 0, 64, 31
1, 87594, Note_on_c, 0, 74, 50
1, 87620, Control_c, 0, 64, 31
1, 87649, Control_c, 0, 64, 30
1, 87679, Note_off_c, 0, 74, 36
1, 87698, Note_on_c, 0, 63, 49
1, 87720, Note_off_c, 0, 53, 51
1, 87743, Note_on_c, 0, 58, 19
1, 87747, Note_on_c, 0, 55, 43
1, 87783, Control_c, 0, 64, 30
1, 87783, Note_off_c, 0, 56, 44
1, 87797, Note_off_c, 0, 63, 57
1, 87806, Note_on_c, 0, 75, 57
1, 87902, Control_c, 0, 64, 29
1, 87913, Note_on_c, 0, 73, 55
1, 87946, Control_c, 0, 64, 29
1, 87961, Note_off_c, 0, 75, 34
1, 87961, Control_c, 0, 64, 28
1, 87976, Control_c, 0, 64, 28
1, 87991, Control_c, 0, 64, 27
1, 88006, Control_c, 0, 64, 25
1, 88020, Note_on_c, 0, 77, 58
1, 88020, Control_c, 0, 64, 24
1, 88021, Note_off_c, 0, 73, 52
1, 88035, Control_c, 0, 64, 24
1, 88050, Control_c, 0, 64, 23
1, 88065, Control_c, 0, 64, 23
1, 88079, Control_c, 0, 64, 22
1, 88094, Control_c, 0, 64, 20
1, 88109, Control_c, 0, 64, 17
1, 88124, Control_c, 0, 64, 13
1, 88132, Note_on_c, 0, 75, 59
1, 88139, Control_c, 0, 64, 11
1, 88161, Control_c, 0, 64, 10
1, 88165, Note_off_c, 0, 77, 58
1, 88206, Control_c, 0, 64, 9
1, 88233, Note_on_c, 0, 72, 40
1, 88235, Control_c, 0, 64, 10
1, 88250, Control_c, 0, 64, 16
1, 88265, Control_c, 0, 64, 26
1, 88279, Control_c, 0, 64, 37
1, 88287, Note_off_c, 0, 75, 56
1, 88294, Control_c, 0, 64, 44
1, 88309, Control_c, 0, 64, 50
1, 88324, Control_c, 0, 64, 54
1, 88339, Control_c, 0, 64, 57
1, 88353, Control_c, 0, 64, 60
1, 88356, Note_on_c, 0, 73, 59
1, 88368, Control_c, 0, 64, 61
1, 88384, Control_c, 0, 64, 63
1, 88399, Control_c, 0, 64, 64
1, 88414, Control_c, 0, 64, 65
1, 88417, Note_off_c, 0, 72, 33
1, 88429, Control_c, 0, 64, 65
1, 88433, Note_off_c, 0, 73, 62
1, 88444, Control_c, 0, 64, 66
1, 88448, Note_on_c, 0, 70, 54
1, 88506, Note_off_c, 0, 55, 60
1, 88513, Note_off_c, 0, 58, 43
1, 88591, Control_c, 0, 64, 65
1, 88606, Control_c, 0, 64, 63
1, 88621, Control_c, 0, 64, 61
1, 88624, Note_on_c, 0, 72, 56
1, 88636, Control_c, 0, 64, 59
1, 88651, Control_c, 0, 64, 56
1, 88651, Note_on_c, 0, 68, 35
1, 88665, Control_c, 0, 64, 53
1, 88680, Control_c, 0, 64, 50
1, 88695, Control_c, 0, 64, 48
1, 88700, Note_off_c, 0, 70, 29
1, 88710, Control_c, 0, 64, 46
1, 88712, Poly_aftertouch_c, 0, 73, 0
1, 88725, Control_c, 0, 64, 44
1, 88740, Control_c, 0, 64, 42
1, 88755, Control_c, 0, 64, 39
1, 88770, Control_c, 0, 64, 35
1, 88784, Control_c, 0, 64, 30
1, 88799, Control_c, 0, 64, 26
1, 88814, Control_c, 0, 64, 22
1, 88829, Control_c, 0, 64, 19
1, 88844, Control_c, 0, 64, 17
1, 88858, Control_c, 0, 64, 13
1, 88865, Note_on_c, 0, 44, 42
1, 88873, Control_c, 0, 64, 0
1, 88940, Control_c, 0, 64, 14
1, 88955, Control_c, 0, 64, 25
1, 88969, Control_c, 0, 64, 35
1, 88984, Control_c, 0, 64, 43
1, 88999, Control_c, 0, 64, 51
1, 89014, Control_c, 0, 64, 55
1, 89029, Control_c, 0, 64, 58
1, 89044, Control_c, 0, 64, 59
1, 89058, Control_c, 0, 64, 61
1, 89073, Control_c, 0, 64, 62
1, 89088, Control_c, 0, 64, 63
1, 89102, Control_c, 0, 64, 64
1, 89122, Note_on_c, 0, 56, 42
1, 89130, Note_off_c, 0, 44, 49
1, 89132, Control_c, 0, 64, 65
1, 89148, Note_off_c, 0, 56, 58
1, 89252, Control_c, 0, 64, 64
1, 89267, Control_c, 0, 64, 63
1, 89281, Control_c, 0, 64, 61
1, 89296, Control_c, 0, 64, 57
1, 89311, Control_c, 0, 64, 53
1, 89325, Control_c, 0, 64, 49
1, 89340, Control_c, 0, 64, 42
1, 89342, Note_on_c, 0, 70, 54
1, 89354, Note_on_c, 0, 67, 41
1, 89355, Control_c, 0, 64, 29
1, 89370, Control_c, 0, 64, 0
1, 89429, Control_c, 0, 64, 16
1, 89444, Control_c, 0, 64, 37
1, 89449, Note_off_c, 0, 67, 58
1, 89449, Note_off_c, 0, 72, 55
1, 89458, Control_c, 0, 64, 49
1, 89467, Note_off_c, 0, 68, 34
1, 89473, Control_c, 0, 64, 55
1, 89488, Control_c, 0, 64, 58
1, 89501, Note_off_c, 0, 70, 63
1, 89503, Control_c, 0, 64, 60
1, 89518, Control_c, 0, 64, 62
1, 89533, Control_c, 0, 64, 63
1, 89548, Control_c, 0, 64, 64
1, 89563, Control_c, 0, 64, 64
1, 89602, Note_on_c, 0, 73, 63
1, 89622, Control_c, 0, 64, 64
1, 89629, Note_on_c, 0, 70, 55
1, 89637, Control_c, 0, 64, 63
1, 89658, Control_c, 0, 64, 61
1, 89673, Control_c, 0, 64, 58
1, 89688, Control_c, 0, 64, 53
1, 89703, Control_c, 0, 64, 48
1, 89718, Control_c, 0, 64, 43
1, 89733, Control_c, 0, 64, 39
1, 89747, Control_c, 0, 64, 31
1, 89762, Control_c, 0, 64, 19
1, 89777, Control_c, 0, 64, 0
1, 89825, Note_on_c, 0, 44, 50
1, 89940, Control_c, 0, 64, 21
1, 89955, Control_c, 0, 64, 38
1, 89970, Control_c, 0, 64, 50
1, 89986, Control_c, 0, 64, 56
1, 90001, Control_c, 0, 64, 59
1, 90001, Control_c, 0, 67, 125
1, 90016, Control_c, 0, 64, 62
1, 90016, Control_c, 0, 67, 123
1, 90030, Control_c, 0, 64, 64
1, 90030, Control_c, 0, 67, 121
1, 90039, Note_off_c, 0, 44, 60
1, 90045, Control_c, 0, 64, 66
1, 90045, Control_c, 0, 67, 119
1, 90057, Note_on_c, 0, 56, 43
1, 90060, Control_c, 0, 64, 68
1, 90060, Control_c, 0, 67, 117
1, 90074, Control_c, 0, 64, 70
1, 90074, Control_c, 0, 67, 114
1, 90089, Control_c, 0, 64, 72
1, 90089, Control_c, 0, 67, 111
1, 90100, Note_off_c, 0, 56, 64
1, 90102, Control_c, 0, 64, 74
1, 90102, Control_c, 0, 67, 106
1, 90117, Control_c, 0, 64, 75
1, 90117, Control_c, 0, 67, 101
1, 90132, Control_c, 0, 64, 76
1, 90132, Control_c, 0, 67, 96
1, 90147, Control_c, 0, 64, 77
1, 90147, Control_c, 0, 67, 92
1, 90162, Control_c, 0, 67, 87
1, 90177, Control_c, 0, 67, 83
1, 90192, Control_c, 0, 67, 80
1, 90207, Control_c, 0, 67, 77
1, 90221, Control_c, 0, 67, 75
1, 90236, Control_c, 0, 67, 73
1, 90251, Control_c, 0, 64, 76
1, 90251, Control_c, 0, 67, 72
1, 90266, Control_c, 0, 64, 72
1, 90266, Note_on_c, 0, 72, 70
1, 90280, Control_c, 0, 64, 67
1, 90284, Note_on_c, 0, 68, 49
1, 90295, Control_c, 0, 64, 62
1, 90310, Control_c, 0, 64, 56
1, 90325, Control_c, 0, 64, 54
1, 90337, Note_off_c, 0, 73, 53
1, 90340, Control_c, 0, 64, 51
1, 90354, Control_c, 0, 64, 46
1, 90354, Control_c, 0, 67, 73
1, 90359, Note_off_c, 0, 68, 62
1, 90369, Control_c, 0, 64, 39
1, 90384, Control_c, 0, 64, 29
1, 90384, Control_c, 0, 67, 73
1, 90406, Control_c, 0, 64, 18
1, 90406, Control_c, 0, 67, 74
1, 90421, Control_c, 0, 64, 12
1, 90421, Control_c, 0, 67, 75
1, 90436, Control_c, 0, 67, 75
1, 90445, Note_off_c, 0, 70, 40
1, 90451, Control_c, 0, 67, 76
1, 90451, Note_off_c, 0, 72, 63
1, 90466, Control_c, 0, 64, 11
1, 90480, Control_c, 0, 64, 0
1, 90480, Control_c, 0, 67, 77
1, 90495, Control_c, 0, 67, 77
1, 90510, Control_c, 0, 67, 78
1, 90525, Note_on_c, 0, 75, 73
1, 90525, Control_c, 0, 67, 79
1, 90540, Control_c, 0, 67, 80
1, 90546, Note_on_c, 0, 72, 52
1, 90554, Control_c, 0, 67, 81
1, 90598, Control_c, 0, 67, 82
1, 90613, Control_c, 0, 67, 83
1, 90628, Control_c, 0, 67, 83
1, 90643, Control_c, 0, 67, 84
1, 90702, Control_c, 0, 67, 84
1, 90732, Control_c, 0, 67, 83
1, 90746, Control_c, 0, 67, 82
1, 90747, Note_on_c, 0, 42, 61
1, 90761, Control_c, 0, 64, 26
1, 90761, Control_c, 0, 67, 81
1, 90777, Control_c, 0, 64, 40
1, 90777, Control_c, 0, 67, 80
1, 90792, Control_c, 0, 64, 50
1, 90792, Control_c, 0, 67, 79
1, 90807, Control_c, 0, 64, 55
1, 90807, Control_c, 0, 67, 78
1, 90822, Control_c, 0, 64, 60
1, 90822, Control_c, 0, 67, 77
1, 90837, Control_c, 0, 64, 63
1, 90837, Control_c, 0, 67, 76
1, 90852, Control_c, 0, 64, 66
1, 90852, Control_c, 0, 67, 75
1, 90867, Control_c, 0, 64, 68
1, 90867, Control_c, 0, 67, 75
1, 90882, Control_c, 0, 64, 72
1, 90882, Control_c, 0, 67, 74
1, 90896, Control_c, 0, 64, 76
1, 90896, Control_c, 0, 67, 73
1, 90911, Control_c, 0, 64, 80
1, 90911, Control_c, 0, 67, 72
1, 90926, Control_c, 0, 64, 85
1, 90926, Control_c, 0, 67, 71
1, 90941, Control_c, 0, 64, 89
1, 90941, Control_c, 0, 67, 69
1, 90952, Note_off_c, 0, 42, 62
1, 90956, Control_c, 0, 64, 93
1, 90956, Control_c, 0, 67, 66
1, 90970, Control_c, 0, 64, 97
1, 90970, Control_c, 0, 67, 62
1, 90985, Control_c, 0, 64, 103
1, 90985, Control_c, 0, 67, 55
1, 90988, Note_on_c, 0, 54, 60
1, 91000, Control_c, 0, 64, 108
1, 91000, Control_c, 0, 67, 46
1, 91015, Control_c, 0, 64, 113
1, 91015, Control_c, 0, 67, 37
1, 91017, Note_off_c, 0, 54, 65
1, 91030, Control_c, 0, 64, 114
1, 91030, Control_c, 0, 67, 27
1, 91044, Control_c, 0, 64, 115
1, 91044, Control_c, 0, 67, 18
1, 91059, Control_c, 0, 67, 12
1, 91119, Control_c, 0, 64, 113
1, 91134, Control_c, 0, 64, 101
1, 91156, Control_c, 0, 64, 88
1, 91171, Control_c, 0, 64, 75
1, 91185, Control_c, 0, 64, 63
1, 91185, Control_c, 0, 67, 12
1, 91200, Control_c, 0, 64, 49
1, 91200, Control_c, 0, 67, 13
1, 91215, Control_c, 0, 64, 16
1, 91215, Control_c, 0, 67, 14
1, 91226, Note_on_c, 0, 73, 77
1, 91229, Note_on_c, 0, 70, 58
1, 91229, Control_c, 0, 64, 0
1, 91229, Control_c, 0, 67, 15
1, 91244, Control_c, 0, 67, 16
1, 91259, Control_c, 0, 67, 17
1, 91274, Control_c, 0, 67, 18
1, 91289, Control_c, 0, 67, 19
1, 91304, Control_c, 0, 67, 20
1, 91318, Control_c, 0, 67, 21
1, 91324, Note_off_c, 0, 70, 55
1, 91333, Control_c, 0, 67, 21
1, 91348, Control_c, 0, 67, 22
1, 91360, Note_off_c, 0, 72, 42
1, 91363, Control_c, 0, 67, 22
1, 91378, Control_c, 0, 67, 23
1, 91393, Control_c, 0, 67, 24
1, 91408, Control_c, 0, 67, 26
1, 91413, Note_off_c, 0, 75, 25
1, 91422, Control_c, 0, 67, 27
1, 91435, Note_off_c, 0, 73, 62
1, 91437, Control_c, 0, 67, 29
1, 91452, Control_c, 0, 67, 30
1, 91467, Control_c, 0, 67, 31
1, 91471, Note_on_c, 0, 77, 85
1, 91482, Control_c, 0, 67, 32
1, 91486, Note_on_c, 0, 73, 54
1, 91511, Control_c, 0, 67, 32
1, 91526, Control_c, 0, 67, 33
1, 91541, Control_c, 0, 67, 34
1, 91556, Control_c, 0, 67, 34
1, 91572, Control_c, 0, 67, 36
1, 91587, Control_c, 0, 67, 37
1, 91601, Control_c, 0, 67, 37
1, 91645, Control_c, 0, 67, 37
1, 91675, Control_c, 0, 64, 14
1, 91675, Control_c, 0, 67, 36
1, 91690, Control_c, 0, 64, 32
1, 91690, Control_c, 0, 67, 36
1, 91691, Note_on_c, 0, 42, 69
1, 91705, Control_c, 0, 64, 45
1, 91705, Control_c, 0, 67, 35
1, 91719, Control_c, 0, 64, 54
1, 91719, Control_c, 0, 67, 34
1, 91734, Control_c, 0, 64, 60
1, 91734, Control_c, 0, 67, 33
1, 91749, Control_c, 0, 64, 63
1, 91749, Control_c, 0, 67, 32
1, 91764, Control_c, 0, 64, 67
1, 91764, Control_c, 0, 67, 31
1, 91779, Control_c, 0, 64, 71
1, 91779, Control_c, 0, 67, 30
1, 91793, Control_c, 0, 64, 77
1, 91793, Control_c, 0, 67, 29
1, 91808, Control_c, 0, 64, 84
1, 91808, Control_c, 0, 67, 28
1, 91823, Control_c, 0, 64, 92
1, 91823, Control_c, 0, 67, 28
1, 91837, Control_c, 0, 64, 104
1, 91837, Control_c, 0, 67, 27
1, 91852, Control_c, 0, 64, 127
1, 91852, Control_c, 0, 67, 27
1, 91867, Control_c, 0, 67, 26
1, 91882, Control_c, 0, 67, 25
1, 91905, Control_c, 0, 67, 24
1, 91913, Note_off_c, 0, 42, 63
1, 91920, Control_c, 0, 67, 23
1, 91931, Note_on_c, 0, 54, 73
1, 91934, Control_c, 0, 67, 21
1, 91949, Control_c, 0, 67, 19
1, 91957, Note_off_c, 0, 54, 67
1, 91964, Control_c, 0, 67, 17
1, 91979, Control_c, 0, 67, 16
1, 91994, Control_c, 0, 67, 14
1, 92008, Control_c, 0, 67, 13
1, 92023, Control_c, 0, 67, 13
1, 92038, Control_c, 0, 67, 12
1, 92052, Control_c, 0, 67, 12
1, 92067, Control_c, 0, 67, 11
1, 92156, Control_c, 0, 64, 114
1, 92165, Note_on_c, 0, 75, 83
1, 92171, Control_c, 0, 64, 76
1, 92171, Control_c, 0, 67, 12
1, 92184, Note_on_c, 0, 72, 58
1, 92186, Control_c, 0, 64, 54
1, 92186, Control_c, 0, 67, 12
1, 92201, Control_c, 0, 64, 0
1, 92201, Control_c, 0, 67, 13
1, 92216, Control_c, 0, 67, 14
1, 92231, Control_c, 0, 67, 14
1, 92231, Note_off_c, 0, 72, 0
1, 92231, Note_on_c, 0, 72, 31
1, 92245, Control_c, 0, 67, 16
1, 92260, Control_c, 0, 67, 16
1, 92275, Control_c, 0, 67, 17
1, 92278, Note_off_c, 0, 73, 0
1, 92281, Note_off_c, 0, 77, 50
1, 92290, Control_c, 0, 67, 17
1, 92305, Control_c, 0, 67, 18
1, 92315, Poly_aftertouch_c, 0, 73, 127
1, 92319, Control_c, 0, 67, 19
1, 92326, Note_off_c, 0, 72, 55
1, 92334, Control_c, 0, 67, 19
1, 92349, Control_c, 0, 67, 20
1, 92357, Poly_aftertouch_c, 0, 73, 0
1, 92364, Control_c, 0, 67, 20
1, 92380, Control_c, 0, 67, 21
1, 92389, Note_off_c, 0, 75, 63
1, 92395, Control_c, 0, 67, 22
1, 92409, Control_c, 0, 67, 23
1, 92424, Control_c, 0, 67, 24
1, 92439, Note_on_c, 0, 78, 84
1, 92439, Control_c, 0, 67, 24
1, 92465, Note_on_c, 0, 75, 64
1, 92513, Control_c, 0, 67, 25
1, 92528, Control_c, 0, 67, 26
1, 92542, Control_c, 0, 67, 27
1, 92557, Control_c, 0, 67, 28
1, 92572, Control_c, 0, 67, 28
1, 92587, Control_c, 0, 67, 29
1, 92616, Control_c, 0, 67, 29
1, 92631, Control_c, 0, 67, 30
1, 92693, Note_on_c, 0, 41, 73
1, 92728, Control_c, 0, 67, 29
1, 92949, Control_c, 0, 67, 30
1, 92979, Control_c, 0, 67, 30
1, 92994, Control_c, 0, 67, 31
1, 93009, Control_c, 0, 67, 32
1, 93018, Note_on_c, 0, 53, 79
1, 93023, Control_c, 0, 67, 33
1, 93038, Control_c, 0, 67, 35
1, 93053, Control_c, 0, 67, 36
1, 93068, Control_c, 0, 67, 37
1, 93083, Control_c, 0, 67, 38
1, 93097, Control_c, 0, 67, 39
1, 93112, Control_c, 0, 67, 41
1, 93127, Control_c, 0, 67, 43
1, 93141, Control_c, 0, 67, 46
1, 93152, Note_off_c, 0, 41, 62
1, 93156, Control_c, 0, 67, 49
1, 93172, Control_c, 0, 67, 52
1, 93187, Control_c, 0, 67, 54
1, 93202, Control_c, 0, 67, 57
1, 93216, Control_c, 0, 67, 59
1, 93231, Control_c, 0, 67, 61
1, 93246, Control_c, 0, 67, 64
1, 93261, Control_c, 0, 67, 67
1, 93262, Note_on_c, 0, 77, 72
1, 93276, Control_c, 0, 67, 71
1, 93280, Note_on_c, 0, 73, 54
1, 93290, Control_c, 0, 67, 77
1, 93305, Control_c, 0, 67, 83
1, 93310, Note_off_c, 0, 75, 53
1, 93320, Control_c, 0, 67, 88
1, 93335, Control_c, 0, 67, 93
1, 93350, Control_c, 0, 67, 98
1, 93364, Control_c, 0, 67, 105
1, 93379, Control_c, 0, 67, 112
1, 93402, Control_c, 0, 67, 123
1, 93417, Control_c, 0, 67, 127
1, 93521, Note_on_c, 0, 72, 64
1, 93522, Note_on_c, 0, 75, 75
1, 93538, Note_off_c, 0, 78, 27
1, 93550, Control_c, 0, 64, 24
1, 93564, Control_c, 0, 64, 43
1, 93566, Note_off_c, 0, 73, 61
1, 93573, Note_off_c, 0, 77, 63
1, 93579, Control_c, 0, 64, 55
1, 93594, Control_c, 0, 64, 60
1, 93602, Note_off_c, 0, 75, 64
1, 93609, Control_c, 0, 64, 62
1, 93623, Control_c, 0, 64, 65
1, 93638, Control_c, 0, 64, 67
1, 93653, Control_c, 0, 64, 70
1, 93668, Control_c, 0, 64, 74
1, 93683, Control_c, 0, 64, 78
1, 93697, Control_c, 0, 64, 81
1, 93712, Control_c, 0, 64, 84
1, 93727, Control_c, 0, 64, 86
1, 93742, Control_c, 0, 64, 87
1, 93745, Note_on_c, 0, 73, 78
1, 93770, Note_on_c, 0, 70, 62
1, 93796, Note_off_c, 0, 72, 56
1, 93861, Control_c, 0, 64, 85
1, 93876, Control_c, 0, 64, 84
1, 93905, Control_c, 0, 64, 83
1, 93920, Control_c, 0, 64, 83
1, 93935, Control_c, 0, 64, 81
1, 93949, Control_c, 0, 64, 77
1, 93965, Control_c, 0, 64, 73
1, 93980, Control_c, 0, 64, 68
1, 93985, Note_on_c, 0, 72, 77
1, 93995, Control_c, 0, 64, 66
1, 94006, Note_on_c, 0, 69, 57
1, 94010, Control_c, 0, 64, 65
1, 94025, Control_c, 0, 64, 64
1, 94034, Note_off_c, 0, 70, 33
1, 94039, Control_c, 0, 64, 62
1, 94054, Control_c, 0, 64, 60
1, 94069, Control_c, 0, 64, 59
1, 94084, Control_c, 0, 64, 57
1, 94099, Control_c, 0, 64, 56
1, 94113, Control_c, 0, 64, 54
1, 94128, Control_c, 0, 64, 51
1, 94150, Control_c, 0, 64, 48
1, 94165, Control_c, 0, 64, 43
1, 94180, Control_c, 0, 64, 36
1, 94195, Control_c, 0, 64, 27
1, 94210, Control_c, 0, 64, 0
1, 94216, Note_on_c, 0, 70, 74
1, 94237, Note_on_c, 0, 65, 62
1, 94243, Note_on_c, 0, 61, 54
1, 94256, Note_off_c, 0, 69, 50
1, 94269, Control_c, 0, 64, 30
1, 94271, Note_off_c, 0, 73, 17
1, 94284, Control_c, 0, 64, 46
1, 94284, Note_off_c, 0, 72, 58
1, 94299, Control_c, 0, 64, 54
1, 94314, Control_c, 0, 64, 58
1, 94328, Control_c, 0, 64, 60
1, 94329, Note_off_c, 0, 70, 62
1, 94343, Control_c, 0, 64, 63
1, 94358, Control_c, 0, 64, 65
1, 94372, Control_c, 0, 64, 67
1, 94387, Control_c, 0, 64, 70
1, 94402, Control_c, 0, 64, 72
1, 94417, Control_c, 0, 64, 73
1, 94432, Control_c, 0, 64, 74
1, 94472, Note_on_c, 0, 69, 72
1, 94493, Note_on_c, 0, 60, 42
1, 94499, Note_on_c, 0, 63, 49
1, 94520, Note_off_c, 0, 61, 58
1, 94550, Control_c, 0, 64, 73
1, 94565, Control_c, 0, 64, 72
1, 94577, Note_off_c, 0, 65, 37
1, 94580, Control_c, 0, 64, 70
1, 94595, Control_c, 0, 64, 67
1, 94610, Control_c, 0, 64, 64
1, 94625, Control_c, 0, 64, 61
1, 94639, Control_c, 0, 64, 59
1, 94654, Control_c, 0, 64, 58
1, 94669, Control_c, 0, 64, 57
1, 94684, Control_c, 0, 64, 55
1, 94699, Control_c, 0, 64, 53
1, 94714, Control_c, 0, 64, 51
1, 94721, Note_on_c, 0, 66, 66
1, 94726, Note_off_c, 0, 60, 46
1, 94729, Control_c, 0, 64, 49
1, 94732, Note_on_c, 0, 61, 58
1, 94743, Control_c, 0, 64, 47
1, 94749, Note_on_c, 0, 58, 41
1, 94758, Control_c, 0, 64, 44
1, 94768, Note_off_c, 0, 63, 53
1, 94774, Control_c, 0, 64, 42
1, 94783, Note_off_c, 0, 69, 55
1, 94788, Control_c, 0, 64, 40
1, 94803, Control_c, 0, 64, 38
1, 94818, Control_c, 0, 64, 35
1, 94833, Control_c, 0, 64, 32
1, 94848, Control_c, 0, 64, 29
1, 94863, Control_c, 0, 64, 25
1, 94878, Control_c, 0, 64, 21
1, 94900, Control_c, 0, 64, 16
1, 94915, Control_c, 0, 64, 14
1, 94930, Control_c, 0, 64, 13
1, 94959, Control_c, 0, 64, 12
1, 94974, Control_c, 0, 64, 9
1, 94979, Note_on_c, 0, 65, 67
1, 94989, Control_c, 0, 64, 0
1, 95003, Note_on_c, 0, 60, 46
1, 95005, Note_on_c, 0, 57, 44
1, 95006, Note_off_c, 0, 66, 65
1, 95064, Note_off_c, 0, 61, 57
1, 95104, Note_off_c, 0, 58, 41
1, 95257, Note_on_c, 0, 64, 67
1, 95280, Note_on_c, 0, 58, 44
1, 95286, Note_on_c, 0, 55, 44
1, 95293, Note_off_c, 0, 60, 40
1, 95334, Note_off_c, 0, 57, 34
1, 95341, Note_off_c, 0, 65, 59
1, 95588, Note_on_c, 0, 63, 62
1, 95611, Note_on_c, 0, 60, 42
1, 95623, Note_on_c, 0, 57, 43
1, 95666, Note_off_c, 0, 58, 59
1, 95694, Note_off_c, 0, 55, 53
1, 95697, Note_off_c, 0, 64, 56
1, 96241, Control_c, 0, 64, 28
1, 96256, Control_c, 0, 64, 42
1, 96271, Control_c, 0, 64, 50
1, 96285, Control_c, 0, 64, 55
1, 96300, Control_c, 0, 64, 59
1, 96314, Note_off_c, 0, 57, 63
1, 96315, Control_c, 0, 64, 63
1, 96320, Note_off_c, 0, 53, 63
1, 96326, Note_off_c, 0, 60, 64
1, 96330, Control_c, 0, 64, 66
1, 96340, Note_off_c, 0, 63, 64
1, 96344, Control_c, 0, 64, 70
1, 96360, Control_c, 0, 64, 74
1, 96375, Control_c, 0, 64, 78
1, 96398, Control_c, 0, 64, 82
1, 96413, Control_c, 0, 64, 85
1, 96428, Control_c, 0, 64, 89
1, 96442, Control_c, 0, 64, 93
1, 96457, Control_c, 0, 64, 99
1, 96472, Control_c, 0, 64, 106
1, 96487, Control_c, 0, 64, 114
1, 96502, Control_c, 0, 64, 119
1, 96516, Control_c, 0, 64, 121
1, 96561, Control_c, 0, 64, 119
1, 96575, Control_c, 0, 64, 108
1, 96590, Control_c, 0, 64, 91
1, 96605, Control_c, 0, 64, 76
1, 96620, Control_c, 0, 64, 62
1, 96635, Control_c, 0, 64, 53
1, 96649, Control_c, 0, 64, 48
1, 96664, Control_c, 0, 64, 47
1, 96679, Control_c, 0, 64, 46
1, 96694, Control_c, 0, 64, 46
1, 96709, Control_c, 0, 64, 45
1, 96723, Control_c, 0, 64, 45
1, 96738, Control_c, 0, 64, 44
1, 96768, Control_c, 0, 64, 44
1, 96857, Control_c, 0, 64, 42
1, 96872, Control_c, 0, 64, 38
1, 96887, Control_c, 0, 64, 29
1, 96887, Note_on_c, 0, 58, 64
1, 96902, Control_c, 0, 64, 15
1, 96916, Control_c, 0, 64, 0
1, 96917, Note_off_c, 0, 58, 63
1, 96951, Note_on_c, 0, 61, 68
1, 96982, Note_off_c, 0, 61, 62
1, 97029, Note_on_c, 0, 65, 54
1, 97070, Note_off_c, 0, 65, 56
1, 97108, Note_on_c, 0, 58, 63
1, 97152, Note_off_c, 0, 58, 61
1, 97183, Note_on_c, 0, 61, 61
1, 97212, Note_off_c, 0, 61, 65
1, 97256, Note_on_c, 0, 65, 48
1, 97339, Note_off_c, 0, 65, 37
1, 97340, Note_on_c, 0, 58, 63
1, 97373, Note_off_c, 0, 58, 62
1, 97408, Note_on_c, 0, 61, 56
1, 97413, Control_c, 0, 64, 10
1, 97428, Control_c, 0, 64, 12
1, 97433, Note_off_c, 0, 61, 57
1, 97443, Control_c, 0, 64, 15
1, 97458, Control_c, 0, 64, 17
1, 97460, Note_on_c, 0, 65, 57
1, 97502, Control_c, 0, 64, 17
1, 97546, Control_c, 0, 64, 18
1, 97549, Note_off_c, 0, 65, 31
1, 97554, Note_on_c, 0, 75, 77
1, 97561, Control_c, 0, 67, 125
1, 97569, Note_on_c, 0, 58, 52
1, 97576, Control_c, 0, 67, 121
1, 97590, Control_c, 0, 64, 18
1, 97590, Control_c, 0, 67, 116
1, 97604, Note_on_c, 0, 73, 68
1, 97605, Control_c, 0, 64, 19
1, 97605, Control_c, 0, 67, 112
1, 97611, Note_off_c, 0, 58, 64
1, 97620, Control_c, 0, 64, 19
1, 97620, Control_c, 0, 67, 109
1, 97635, Control_c, 0, 64, 20
1, 97635, Control_c, 0, 67, 107
1, 97636, Note_on_c, 0, 61, 52
1, 97650, Control_c, 0, 64, 21
1, 97650, Control_c, 0, 67, 106
1, 97651, Note_off_c, 0, 75, 60
1, 97665, Control_c, 0, 67, 104
1, 97668, Note_on_c, 0, 72, 69
1, 97668, Note_off_c, 0, 61, 66
1, 97680, Control_c, 0, 67, 103
1, 97695, Control_c, 0, 67, 102
1, 97698, Note_on_c, 0, 65, 52
1, 97709, Control_c, 0, 64, 20
1, 97709, Control_c, 0, 67, 101
1, 97724, Control_c, 0, 67, 100
1, 97724, Note_on_c, 0, 70, 84
1, 97739, Control_c, 0, 64, 20
1, 97739, Note_off_c, 0, 73, 58
1, 97740, Note_off_c, 0, 72, 63
1, 97769, Control_c, 0, 64, 19
1, 97778, Note_off_c, 0, 70, 64
1, 97781, Note_on_c, 0, 69, 84
1, 97783, Control_c, 0, 64, 19
1, 97790, Note_off_c, 0, 65, 58
1, 97798, Control_c, 0, 64, 18
1, 97801, Note_on_c, 0, 60, 53
1, 97802, Note_off_c, 0, 69, 71
1, 97813, Control_c, 0, 64, 18
1, 97828, Control_c, 0, 64, 17
1, 97835, Note_off_c, 0, 60, 64
1, 97843, Control_c, 0, 64, 17
1, 97856, Note_on_c, 0, 63, 57
1, 97857, Control_c, 0, 67, 101
1, 97872, Control_c, 0, 64, 17
1, 97894, Control_c, 0, 64, 19
1, 97894, Control_c, 0, 67, 101
1, 97903, Note_off_c, 0, 63, 57
1, 97909, Control_c, 0, 64, 20
1, 97909, Control_c, 0, 67, 102
1, 97924, Control_c, 0, 64, 21
1, 97939, Control_c, 0, 64, 21
1, 97948, Note_on_c, 0, 65, 46
1, 98028, Control_c, 0, 64, 22
1, 98032, Note_off_c, 0, 65, 59
1, 98036, Note_on_c, 0, 60, 61
1, 98043, Control_c, 0, 64, 23
1, 98058, Control_c, 0, 64, 24
1, 98073, Control_c, 0, 67, 102
1, 98088, Note_off_c, 0, 60, 60
1, 98112, Note_on_c, 0, 63, 45
1, 98118, Control_c, 0, 67, 102
1, 98147, Control_c, 0, 67, 101
1, 98154, Note_off_c, 0, 63, 61
1, 98164, Note_on_c, 0, 65, 54
1, 98177, Control_c, 0, 67, 101
1, 98192, Control_c, 0, 64, 23
1, 98192, Control_c, 0, 67, 100
1, 98206, Control_c, 0, 64, 23
1, 98206, Control_c, 0, 67, 99
1, 98221, Control_c, 0, 64, 21
1, 98221, Control_c, 0, 67, 99
1, 98236, Control_c, 0, 64, 20
1, 98251, Note_on_c, 0, 57, 73
1, 98261, Note_off_c, 0, 65, 50
1, 98266, Control_c, 0, 64, 21
1, 98280, Control_c, 0, 64, 21
1, 98280, Control_c, 0, 67, 99
1, 98293, Note_off_c, 0, 57, 61
1, 98295, Control_c, 0, 64, 23
1, 98310, Control_c, 0, 64, 23
1, 98327, Note_on_c, 0, 60, 54
1, 98354, Control_c, 0, 64, 24
1, 98364, Note_off_c, 0, 60, 64
1, 98369, Control_c, 0, 64, 24
1, 98384, Control_c, 0, 67, 100
1, 98397, Note_on_c, 0, 65, 49
1, 98413, Control_c, 0, 64, 25
1, 98413, Control_c, 0, 67, 100
1, 98458, Control_c, 0, 64, 24
1, 98458, Control_c, 0, 67, 101
1, 98477, Note_on_c, 0, 57, 62
1, 98477, Note_off_c, 0, 65, 40
1, 98480, Note_on_c, 0, 80, 74
1, 98487, Control_c, 0, 64, 26
1, 98502, Control_c, 0, 64, 33
1, 98502, Control_c, 0, 67, 100
1, 98517, Control_c, 0, 64, 42
1, 98532, Control_c, 0, 64, 49
1, 98538, Note_off_c, 0, 57, 61
1, 98541, Note_on_c, 0, 78, 76
1, 98547, Control_c, 0, 64, 54
1, 98559, Note_on_c, 0, 60, 57
1, 98562, Control_c, 0, 64, 57
1, 98565, Note_off_c, 0, 80, 61
1, 98577, Control_c, 0, 64, 59
1, 98577, Control_c, 0, 67, 100
1, 98592, Control_c, 0, 64, 61
1, 98595, Note_off_c, 0, 60, 64
1, 98606, Control_c, 0, 64, 62
1, 98608, Note_on_c, 0, 77, 69
1, 98621, Control_c, 0, 64, 63
1, 98627, Note_on_c, 0, 65, 47
1, 98641, Note_off_c, 0, 78, 63
1, 98650, Note_on_c, 0, 75, 79
1, 98658, Control_c, 0, 67, 100
1, 98664, Note_off_c, 0, 77, 63
1, 98672, Control_c, 0, 67, 101
1, 98687, Control_c, 0, 64, 62
1, 98687, Control_c, 0, 67, 103
1, 98700, Note_off_c, 0, 75, 65
1, 98702, Control_c, 0, 64, 59
1, 98702, Control_c, 0, 67, 105
1, 98706, Note_on_c, 0, 73, 81
1, 98717, Control_c, 0, 64, 53
1, 98717, Control_c, 0, 67, 107
1, 98725, Note_off_c, 0, 73, 71
1, 98725, Note_off_c, 0, 65, 53
1, 98728, Note_on_c, 0, 58, 64
1, 98732, Control_c, 0, 64, 44
1, 98732, Control_c, 0, 67, 110
1, 98747, Control_c, 0, 64, 31
1, 98747, Control_c, 0, 67, 112
1, 98762, Control_c, 0, 64, 11
1, 98762, Control_c, 0, 67, 116
1, 98777, Note_off_c, 0, 58, 56
1, 98777, Control_c, 0, 64, 0
1, 98777, Control_c, 0, 67, 122
1, 98792, Control_c, 0, 67, 127
1, 98814, Note_on_c, 0, 61, 53
1, 98837, Note_off_c, 0, 61, 62
1, 98870, Note_on_c, 0, 65, 50
1, 98968, Note_off_c, 0, 65, 43
1, 98976, Note_on_c, 0, 58, 53
1, 99017, Note_off_c, 0, 58, 62
1, 99054, Note_on_c, 0, 61, 36
1, 99082, Note_off_c, 0, 61, 56
1, 99107, Note_on_c, 0, 65, 43
1, 99190, Note_off_c, 0, 65, 48
1, 99200, Note_on_c, 0, 58, 49
1, 99245, Note_off_c, 0, 58, 62
1, 99282, Note_on_c, 0, 61, 33
1, 99305, Note_off_c, 0, 61, 51
1, 99334, Note_on_c, 0, 65, 45
1, 99418, Note_on_c, 0, 75, 61
1, 99435, Note_on_c, 0, 58, 47
1, 99435, Note_off_c, 0, 65, 51
1, 99471, Note_on_c, 0, 73, 60
1, 99483, Note_off_c, 0, 58, 60
1, 99526, Note_on_c, 0, 61, 35
1, 99535, Note_off_c, 0, 75, 35
1, 99540, Note_on_c, 0, 72, 57
1, 99555, Note_off_c, 0, 61, 46
1, 99573, Note_on_c, 0, 65, 47
1, 99593, Note_on_c, 0, 70, 59
1, 99608, Note_off_c, 0, 72, 56
1, 99639, Note_off_c, 0, 73, 32
1, 99647, Note_on_c, 0, 69, 64
1, 99656, Note_off_c, 0, 70, 58
1, 99669, Note_off_c, 0, 65, 60
1, 99671, Note_off_c, 0, 69, 68
1, 99676, Note_on_c, 0, 60, 51
1, 99710, Note_off_c, 0, 60, 64
1, 99742, Note_on_c, 0, 63, 45
1, 99767, Note_off_c, 0, 63, 58
1, 99808, Note_on_c, 0, 65, 45
1, 99903, Note_off_c, 0, 65, 61
1, 99909, Note_on_c, 0, 60, 53
1, 99945, Note_off_c, 0, 60, 64
1, 99975, Note_on_c, 0, 63, 39
1, 100005, Note_off_c, 0, 63, 56
1, 100026, Note_on_c, 0, 65, 53
1, 100098, Note_off_c, 0, 65, 39
1, 100103, Note_on_c, 0, 57, 60
1, 100157, Note_off_c, 0, 57, 64
1, 100190, Note_on_c, 0, 60, 45
1, 100216, Note_off_c, 0, 60, 57
1, 100253, Note_on_c, 0, 65, 42
1, 100330, Note_off_c, 0, 65, 37
1, 100346, Note_on_c, 0, 80, 58
1, 100369, Note_on_c, 0, 57, 42
1, 100390, Note_on_c, 0, 78, 63
1, 100404, Note_off_c, 0, 57, 63
1, 100431, Note_on_c, 0, 60, 40
1, 100432, Note_off_c, 0, 80, 52
1, 100460, Note_off_c, 0, 60, 59
1, 100463, Note_on_c, 0, 77, 56
1, 100500, Note_on_c, 0, 75, 64
1, 100504, Note_off_c, 0, 78, 58
1, 100513, Note_on_c, 0, 65, 41
1, 100545, Note_off_c, 0, 77, 54
1, 100569, Note_on_c, 0, 73, 55
1, 100577, Note_off_c, 0, 75, 58
1, 100583, Note_off_c, 0, 65, 56
1, 100596, Note_on_c, 0, 58, 49
1, 100598, Note_off_c, 0, 73, 67
1, 100649, Note_off_c, 0, 58, 57
1, 100683, Note_on_c, 0, 61, 42
1, 100708, Note_off_c, 0, 61, 54
1, 100744, Note_on_c, 0, 65, 49
1, 100829, Note_off_c, 0, 65, 46
1, 100837, Note_on_c, 0, 58, 57
1, 100870, Note_off_c, 0, 58, 62
1, 100921, Note_on_c, 0, 61, 38
1, 100945, Note_off_c, 0, 61, 52
1, 100968, Note_on_c, 0, 65, 55
1, 100994, Control_c, 0, 67, 125
1, 101008, Control_c, 0, 67, 122
1, 101023, Control_c, 0, 67, 119
1, 101031, Note_off_c, 0, 65, 49
1, 101038, Control_c, 0, 67, 116
1, 101053, Control_c, 0, 67, 114
1, 101058, Note_on_c, 0, 58, 72
1, 101067, Control_c, 0, 67, 114
1, 101091, Note_off_c, 0, 58, 61
1, 101127, Note_on_c, 0, 61, 45
1, 101127, Control_c, 0, 67, 113
1, 101152, Note_off_c, 0, 61, 59
1, 101156, Control_c, 0, 67, 113
1, 101172, Control_c, 0, 67, 111
1, 101182, Note_on_c, 0, 65, 57
1, 101187, Control_c, 0, 67, 109
1, 101202, Control_c, 0, 67, 104
1, 101217, Control_c, 0, 67, 98
1, 101231, Control_c, 0, 67, 90
1, 101246, Control_c, 0, 67, 80
1, 101261, Control_c, 0, 67, 69
1, 101271, Note_on_c, 0, 58, 58
1, 101272, Note_on_c, 0, 78, 77
1, 101275, Note_off_c, 0, 65, 53
1, 101276, Control_c, 0, 64, 22
1, 101276, Control_c, 0, 67, 57
1, 101290, Control_c, 0, 64, 36
1, 101290, Control_c, 0, 67, 45
1, 101305, Control_c, 0, 64, 48
1, 101305, Control_c, 0, 67, 32
1, 101319, Note_on_c, 0, 77, 69
1, 101320, Control_c, 0, 64, 52
1, 101320, Control_c, 0, 67, 21
1, 101335, Control_c, 0, 64, 54
1, 101335, Control_c, 0, 67, 13
1, 101344, Note_off_c, 0, 58, 59
1, 101350, Control_c, 0, 64, 56
1, 101350, Control_c, 0, 67, 12
1, 101359, Note_on_c, 0, 61, 52
1, 101364, Control_c, 0, 64, 57
1, 101366, Note_off_c, 0, 78, 58
1, 101378, Note_on_c, 0, 75, 75
1, 101379, Control_c, 0, 64, 59
1, 101393, Note_off_c, 0, 61, 64
1, 101394, Control_c, 0, 64, 60
1, 101409, Control_c, 0, 64, 60
1, 101417, Note_on_c, 0, 73, 77
1, 101426, Note_off_c, 0, 77, 61
1, 101427, Note_on_c, 0, 65, 37
1, 101444, Note_off_c, 0, 75, 64
1, 101468, Control_c, 0, 64, 59
1, 101468, Control_c, 0, 67, 12
1, 101470, Note_off_c, 0, 65, 60
1, 101472, Note_off_c, 0, 73, 66
1, 101474, Note_on_c, 0, 72, 81
1, 101483, Control_c, 0, 64, 56
1, 101483, Control_c, 0, 67, 13
1, 101498, Control_c, 0, 64, 50
1, 101498, Control_c, 0, 67, 13
1, 101503, Note_on_c, 0, 56, 60
1, 101504, Note_off_c, 0, 72, 67
1, 101513, Control_c, 0, 64, 40
1, 101528, Control_c, 0, 64, 29
1, 101528, Control_c, 0, 67, 14
1, 101543, Control_c, 0, 64, 18
1, 101543, Control_c, 0, 67, 15
1, 101557, Control_c, 0, 64, 12
1, 101557, Control_c, 0, 67, 16
1, 101562, Note_off_c, 0, 56, 58
1, 101572, Control_c, 0, 67, 16
1, 101582, Note_on_c, 0, 63, 59
1, 101587, Control_c, 0, 64, 13
1, 101587, Control_c, 0, 67, 17
1, 101602, Control_c, 0, 64, 14
1, 101638, Control_c, 0, 67, 17
1, 101644, Note_off_c, 0, 63, 55
1, 101653, Control_c, 0, 64, 13
1, 101668, Control_c, 0, 64, 12
1, 101672, Note_on_c, 0, 66, 60
1, 101698, Control_c, 0, 64, 11
1, 101704, Note_off_c, 0, 66, 62
1, 101713, Control_c, 0, 64, 9
1, 101728, Control_c, 0, 64, 0
1, 101728, Control_c, 0, 67, 18
1, 101746, Note_on_c, 0, 56, 62
1, 101757, Control_c, 0, 67, 18
1, 101772, Control_c, 0, 67, 19
1, 101802, Note_off_c, 0, 56, 62
1, 101815, Note_on_c, 0, 63, 62
1, 101846, Control_c, 0, 67, 19
1, 101855, Note_off_c, 0, 63, 57
1, 101886, Note_on_c, 0, 66, 68
1, 101890, Control_c, 0, 67, 20
1, 101924, Note_off_c, 0, 66, 62
1, 101963, Note_on_c, 0, 56, 66
1, 102010, Control_c, 0, 67, 21
1, 102020, Note_off_c, 0, 56, 61
1, 102025, Control_c, 0, 67, 22
1, 102029, Note_on_c, 0, 63, 62
1, 102040, Control_c, 0, 67, 22
1, 102054, Control_c, 0, 64, 13
1, 102054, Control_c, 0, 67, 23
1, 102062, Note_off_c, 0, 63, 61
1, 102069, Control_c, 0, 64, 27
1, 102069, Control_c, 0, 67, 25
1, 102084, Control_c, 0, 64, 38
1, 102084, Control_c, 0, 67, 26
1, 102094, Note_on_c, 0, 66, 60
1, 102099, Control_c, 0, 64, 47
1, 102099, Control_c, 0, 67, 29
1, 102113, Control_c, 0, 64, 53
1, 102113, Control_c, 0, 67, 32
1, 102128, Control_c, 0, 64, 55
1, 102128, Control_c, 0, 67, 36
1, 102133, Note_off_c, 0, 66, 56
1, 102143, Control_c, 0, 64, 56
1, 102143, Control_c, 0, 67, 41
1, 102158, Note_on_c, 0, 56, 61
1, 102158, Control_c, 0, 64, 57
1, 102158, Control_c, 0, 67, 46
1, 102173, Control_c, 0, 64, 58
1, 102173, Control_c, 0, 67, 51
1, 102177, Note_on_c, 0, 84, 80
1, 102187, Control_c, 0, 64, 59
1, 102187, Control_c, 0, 67, 57
1, 102202, Control_c, 0, 67, 65
1, 102217, Control_c, 0, 67, 73
1, 102227, Note_on_c, 0, 82, 77
1, 102232, Control_c, 0, 67, 82
1, 102235, Note_off_c, 0, 56, 62
1, 102246, Note_on_c, 0, 63, 62
1, 102246, Control_c, 0, 67, 91
1, 102257, Note_off_c, 0, 84, 63
1, 102261, Control_c, 0, 67, 99
1, 102276, Note_on_c, 0, 80, 73
1, 102276, Control_c, 0, 67, 108
1, 102288, Note_off_c, 0, 63, 59
1, 102291, Control_c, 0, 67, 116
1, 102306, Control_c, 0, 67, 125
1, 102321, Control_c, 0, 67, 127
1, 102323, Note_on_c, 0, 78, 78
1, 102339, Note_on_c, 0, 66, 51
1, 102339, Note_off_c, 0, 82, 61
1, 102351, Control_c, 0, 64, 57
1, 102351, Note_off_c, 0, 80, 63
1, 102366, Control_c, 0, 64, 55
1, 102384, Note_on_c, 0, 77, 86
1, 102387, Control_c, 0, 64, 49
1, 102391, Note_off_c, 0, 78, 64
1, 102402, Control_c, 0, 64, 42
1, 102408, Note_off_c, 0, 66, 53
1, 102416, Note_off_c, 0, 77, 67
1, 102417, Control_c, 0, 64, 30
1, 102419, Note_on_c, 0, 61, 65
1, 102431, Control_c, 0, 64, 18
1, 102446, Control_c, 0, 64, 0
1, 102497, Note_off_c, 0, 61, 61
1, 102506, Note_on_c, 0, 65, 58
1, 102547, Note_off_c, 0, 65, 61
1, 102580, Note_on_c, 0, 68, 44
1, 102610, Note_off_c, 0, 68, 54
1, 102638, Note_on_c, 0, 61, 56
1, 102705, Note_off_c, 0, 61, 61
1, 102728, Note_on_c, 0, 65, 51
1, 102763, Note_off_c, 0, 65, 64
1, 102793, Note_on_c, 0, 68, 47
1, 102852, Note_off_c, 0, 68, 56
1, 102866, Note_on_c, 0, 61, 52
1, 102914, Note_off_c, 0, 61, 64
1, 102957, Note_on_c, 0, 65, 44
1, 102981, Note_off_c, 0, 65, 52
1, 102992, Note_on_c, 0, 68, 48
1, 103081, Note_on_c, 0, 61, 35
1, 103083, Note_off_c, 0, 68, 35
1, 103091, Note_on_c, 0, 78, 61
1, 103132, Note_off_c, 0, 61, 58
1, 103146, Note_on_c, 0, 65, 15
1, 103153, Note_on_c, 0, 77, 60
1, 103182, Note_off_c, 0, 65, 57
1, 103200, Note_off_c, 0, 78, 53
1, 103217, Note_on_c, 0, 68, 47
1, 103227, Note_on_c, 0, 75, 61
1, 103259, Note_off_c, 0, 77, 59
1, 103265, Note_on_c, 0, 73, 61
1, 103274, Note_off_c, 0, 68, 52
1, 103295, Note_off_c, 0, 75, 58
1, 103309, Note_on_c, 0, 63, 40
1, 103313, Note_on_c, 0, 72, 62
1, 103320, Note_off_c, 0, 73, 63
1, 103337, Note_off_c, 0, 72, 67
1, 103349, Note_off_c, 0, 63, 63
1, 103385, Note_on_c, 0, 66, 50
1, 103409, Note_off_c, 0, 66, 54
1, 103437, Note_on_c, 0, 68, 46
1, 103534, Note_off_c, 0, 68, 54
1, 103543, Note_on_c, 0, 63, 51
1, 103578, Note_off_c, 0, 63, 65
1, 103606, Note_on_c, 0, 66, 50
1, 103636, Note_off_c, 0, 66, 65
1, 103660, Note_on_c, 0, 68, 58
1, 103760, Note_on_c, 0, 60, 63
1, 103765, Note_off_c, 0, 68, 59
1, 103812, Note_off_c, 0, 60, 62
1, 103826, Note_on_c, 0, 63, 57
1, 103856, Note_off_c, 0, 63, 65
1, 103898, Note_on_c, 0, 68, 59
1, 103991, Note_off_c, 0, 68, 59
1, 103994, Note_on_c, 0, 60, 58
1, 104005, Note_on_c, 0, 84, 68
1, 104038, Note_off_c, 0, 60, 60
1, 104045, Note_on_c, 0, 82, 60
1, 104060, Note_on_c, 0, 63, 31
1, 104065, Note_off_c, 0, 84, 58
1, 104089, Note_off_c, 0, 63, 56
1, 104099, Note_on_c, 0, 80, 58
1, 104107, Control_c, 0, 67, 124
1, 104122, Control_c, 0, 67, 120
1, 104126, Note_on_c, 0, 68, 52
1, 104137, Control_c, 0, 67, 116
1, 104151, Note_on_c, 0, 78, 60
1, 104151, Note_off_c, 0, 82, 51
1, 104151, Control_c, 0, 67, 111
1, 104166, Control_c, 0, 67, 105
1, 104181, Control_c, 0, 67, 100
1, 104196, Control_c, 0, 67, 96
1, 104204, Note_off_c, 0, 80, 47
1, 104211, Control_c, 0, 67, 93
1, 104211, Note_on_c, 0, 77, 61
1, 104214, Note_off_c, 0, 78, 63
1, 104226, Control_c, 0, 67, 90
1, 104229, Note_on_c, 0, 61, 61
1, 104239, Note_off_c, 0, 77, 65
1, 104241, Control_c, 0, 67, 87
1, 104247, Note_off_c, 0, 68, 44
1, 104256, Control_c, 0, 67, 84
1, 104270, Control_c, 0, 67, 81
1, 104285, Control_c, 0, 67, 78
1, 104300, Control_c, 0, 67, 77
1, 104315, Control_c, 0, 67, 76
1, 104330, Control_c, 0, 67, 76
1, 104345, Control_c, 0, 67, 75
1, 104361, Control_c, 0, 67, 74
1, 104375, Control_c, 0, 67, 73
1, 104390, Control_c, 0, 67, 72
1, 104405, Control_c, 0, 67, 72
1, 104420, Control_c, 0, 67, 71
1, 104434, Control_c, 0, 67, 70
1, 104449, Control_c, 0, 67, 69
1, 104464, Control_c, 0, 67, 67
1, 104479, Note_on_c, 0, 89, 89
1, 104479, Control_c, 0, 67, 65
1, 104494, Control_c, 0, 67, 62
1, 104509, Control_c, 0, 67, 60
1, 104524, Control_c, 0, 67, 56
1, 104539, Control_c, 0, 67, 52
1, 104545, Note_off_c, 0, 61, 60
1, 104550, Note_on_c, 0, 87, 81
1, 104554, Control_c, 0, 67, 47
1, 104562, Note_off_c, 0, 89, 63
1, 104569, Control_c, 0, 67, 42
1, 104583, Control_c, 0, 67, 38
1, 104598, Control_c, 0, 67, 32
1, 104613, Control_c, 0, 67, 28
1, 104615, Note_on_c, 0, 85, 80
1, 104634, Control_c, 0, 67, 23
1, 104640, Note_off_c, 0, 87, 65
1, 104649, Control_c, 0, 67, 19
1, 104664, Control_c, 0, 67, 15
1, 104679, Control_c, 0, 67, 15
1, 104684, Note_off_c, 0, 85, 64
1, 104694, Note_on_c, 0, 84, 76
1, 104694, Control_c, 0, 67, 14
1, 104709, Control_c, 0, 67, 13
1, 104724, Control_c, 0, 67, 13
1, 104738, Control_c, 0, 67, 11
1, 104743, Note_off_c, 0, 84, 53
1, 104753, Control_c, 0, 67, 11
1, 104768, Note_on_c, 0, 82, 82
1, 104768, Control_c, 0, 67, 10
1, 104783, Control_c, 0, 67, 9
1, 104798, Control_c, 0, 67, 8
1, 104813, Control_c, 0, 67, 0
1, 104840, Note_on_c, 0, 80, 80
1, 104874, Note_off_c, 0, 82, 63
1, 104907, Note_on_c, 0, 78, 83
1, 104913, Note_off_c, 0, 80, 66
1, 104965, Note_off_c, 0, 78, 63
1, 104974, Note_on_c, 0, 77, 78
1, 105028, Note_off_c, 0, 77, 62
1, 105051, Note_on_c, 0, 75, 83
1, 105079, Control_c, 0, 64, 10
1, 105094, Control_c, 0, 64, 30
1, 105108, Control_c, 0, 64, 44
1, 105120, Note_on_c, 0, 73, 87
1, 105123, Control_c, 0, 64, 53
1, 105126, Note_off_c, 0, 75, 65
1, 105138, Control_c, 0, 64, 57
1, 105153, Note_off_c, 0, 73, 68
1, 105154, Control_c, 0, 64, 59
1, 105169, Control_c, 0, 64, 60
1, 105184, Control_c, 0, 64, 61
1, 105287, Control_c, 0, 64, 60
1, 105302, Control_c, 0, 64, 59
1, 105317, Control_c, 0, 64, 58
1, 105332, Control_c, 0, 64, 56
1, 105347, Control_c, 0, 64, 53
1, 105347, Control_c, 0, 67, 10
1, 105355, Note_on_c, 0, 77, 74
1, 105361, Control_c, 0, 64, 50
1, 105361, Control_c, 0, 67, 13
1, 105382, Note_on_c, 0, 65, 62
1, 105383, Control_c, 0, 64, 43
1, 105383, Control_c, 0, 67, 17
1, 105398, Control_c, 0, 64, 35
1, 105398, Control_c, 0, 67, 23
1, 105411, Note_off_c, 0, 65, 64
1, 105413, Control_c, 0, 64, 22
1, 105413, Control_c, 0, 67, 29
1, 105428, Control_c, 0, 64, 0
1, 105428, Control_c, 0, 67, 35
1, 105433, Note_on_c, 0, 75, 74
1, 105435, Note_off_c, 0, 77, 63
1, 105443, Control_c, 0, 67, 44
1, 105454, Note_on_c, 0, 63, 64
1, 105457, Control_c, 0, 67, 56
1, 105472, Control_c, 0, 67, 70
1, 105487, Control_c, 0, 67, 84
1, 105496, Note_off_c, 0, 63, 64
1, 105496, Note_off_c, 0, 75, 65
1, 105499, Note_on_c, 0, 73, 76
1, 105502, Control_c, 0, 67, 100
1, 105517, Control_c, 0, 67, 112
1, 105520, Note_on_c, 0, 61, 67
1, 105531, Control_c, 0, 67, 121
1, 105546, Control_c, 0, 67, 126
1, 105551, Note_off_c, 0, 61, 65
1, 105555, Note_off_c, 0, 73, 63
1, 105561, Control_c, 0, 67, 127
1, 105579, Note_on_c, 0, 72, 69
1, 105582, Note_on_c, 0, 60, 75
1, 105614, Note_off_c, 0, 72, 57
1, 105655, Note_on_c, 0, 70, 78
1, 105660, Note_on_c, 0, 58, 84
1, 105673, Note_off_c, 0, 60, 58
1, 105721, Note_on_c, 0, 68, 79
1, 105721, Note_off_c, 0, 58, 63
1, 105727, Note_on_c, 0, 56, 77
1, 105739, Control_c, 0, 67, 127
1, 105743, Note_off_c, 0, 70, 63
1, 105754, Control_c, 0, 67, 125
1, 105769, Control_c, 0, 67, 124
1, 105783, Control_c, 0, 67, 122
1, 105784, Note_off_c, 0, 56, 65
1, 105786, Note_on_c, 0, 66, 85
1, 105791, Note_off_c, 0, 68, 66
1, 105793, Note_on_c, 0, 54, 71
1, 105798, Control_c, 0, 67, 120
1, 105813, Control_c, 0, 67, 118
1, 105826, Note_off_c, 0, 54, 65
1, 105826, Control_c, 0, 67, 115
1, 105833, Note_off_c, 0, 66, 65
1, 105841, Control_c, 0, 67, 112
1, 105853, Note_on_c, 0, 65, 75
1, 105856, Control_c, 0, 67, 107
1, 105859, Note_on_c, 0, 53, 80
1, 105871, Control_c, 0, 67, 102
1, 105886, Control_c, 0, 67, 96
1, 105900, Control_c, 0, 67, 89
1, 105910, Note_off_c, 0, 65, 62
1, 105915, Control_c, 0, 67, 84
1, 105925, Note_on_c, 0, 63, 81
1, 105930, Control_c, 0, 67, 79
1, 105940, Note_on_c, 0, 51, 83
1, 105946, Control_c, 0, 67, 75
1, 105946, Note_off_c, 0, 53, 59
1, 105961, Control_c, 0, 67, 71
1, 105976, Control_c, 0, 67, 66
1, 105990, Control_c, 0, 67, 60
1, 106005, Control_c, 0, 67, 52
1, 106007, Note_off_c, 0, 63, 64
1, 106008, Note_on_c, 0, 61, 85
1, 106014, Note_on_c, 0, 49, 89
1, 106020, Control_c, 0, 67, 46
1, 106035, Control_c, 0, 67, 40
1, 106038, Note_off_c, 0, 51, 61
1, 106050, Control_c, 0, 67, 34
1, 106065, Control_c, 0, 67, 28
1, 106079, Control_c, 0, 67, 20
1, 106094, Control_c, 0, 67, 11
1, 106109, Control_c, 0, 67, 9
1, 106131, Control_c, 0, 67, 8
1, 106146, Control_c, 0, 67, 0
1, 106235, Control_c, 0, 64, 30
1, 106250, Control_c, 0, 64, 47
1, 106265, Control_c, 0, 64, 56
1, 106279, Control_c, 0, 64, 61
1, 106281, Note_off_c, 0, 49, 66
1, 106294, Control_c, 0, 64, 63
1, 106309, Control_c, 0, 64, 64
1, 106324, Control_c, 0, 64, 66
1, 106339, Control_c, 0, 64, 67
1, 106353, Control_c, 0, 64, 69
1, 106368, Control_c, 0, 64, 70
1, 106383, Control_c, 0, 64, 72
1, 106397, Control_c, 0, 64, 74
1, 106412, Control_c, 0, 64, 76
1, 106427, Control_c, 0, 64, 77
1, 106442, Control_c, 0, 64, 78
1, 106457, Control_c, 0, 64, 78
1, 106509, Note_on_c, 0, 59, 73
1, 106511, Note_off_c, 0, 61, 56
1, 106516, Control_c, 0, 64, 77
1, 106525, Note_on_c, 0, 47, 67
1, 106530, Control_c, 0, 64, 74
1, 106545, Control_c, 0, 64, 72
1, 106560, Control_c, 0, 64, 71
1, 106593, Note_off_c, 0, 59, 57
1, 106598, Note_off_c, 0, 47, 63
1, 106604, Control_c, 0, 64, 71
1, 106619, Note_on_c, 0, 49, 65
1, 106619, Control_c, 0, 64, 72
1, 106631, Note_on_c, 0, 61, 55
1, 106634, Control_c, 0, 64, 72
1, 106649, Control_c, 0, 64, 73
1, 106655, Note_off_c, 0, 61, 54
1, 106664, Control_c, 0, 64, 73
1, 106673, Note_off_c, 0, 49, 61
1, 106676, Note_on_c, 0, 59, 58
1, 106703, Note_off_c, 0, 59, 61
1, 106705, Note_on_c, 0, 47, 60
1, 106709, Control_c, 0, 64, 74
1, 106723, Note_on_c, 0, 61, 65
1, 106723, Control_c, 0, 64, 75
1, 106735, Note_off_c, 0, 47, 61
1, 106738, Control_c, 0, 64, 75
1, 106743, Note_off_c, 0, 61, 66
1, 106749, Note_on_c, 0, 49, 71
1, 106754, Control_c, 0, 64, 76
1, 106761, Note_on_c, 0, 59, 78
1, 106768, Control_c, 0, 64, 76
1, 106787, Note_off_c, 0, 49, 61
1, 106798, Control_c, 0, 64, 77
1, 106800, Note_off_c, 0, 59, 62
1, 106802, Note_on_c, 0, 61, 79
1, 106812, Note_on_c, 0, 47, 72
1, 106813, Control_c, 0, 64, 78
1, 106828, Control_c, 0, 64, 80
1, 106843, Control_c, 0, 64, 82
1, 106846, Note_off_c, 0, 47, 63
1, 106852, Note_off_c, 0, 61, 61
1, 106856, Note_on_c, 0, 49, 83
1, 106858, Control_c, 0, 64, 83
1, 106858, Note_on_c, 0, 59, 67
1, 106893, Note_off_c, 0, 49, 65
1, 106925, Note_off_c, 0, 59, 60
1, 106939, Control_c, 0, 64, 82
1, 106953, Control_c, 0, 64, 79
1, 106968, Control_c, 0, 64, 73
1, 106975, Note_on_c, 0, 58, 84
1, 106983, Control_c, 0, 64, 64
1, 106995, Note_on_c, 0, 46, 80
1, 106998, Control_c, 0, 64, 51
1, 107008, Note_on_c, 0, 34, 69
1, 107013, Control_c, 0, 64, 36
1, 107028, Control_c, 0, 64, 17
1, 107043, Control_c, 0, 64, 0
1, 107046, Note_off_c, 0, 58, 60
1, 107061, Note_on_c, 0, 62, 71
1, 107135, Note_off_c, 0, 62, 62
1, 107148, Note_on_c, 0, 65, 67
1, 107181, Note_off_c, 0, 65, 60
1, 107210, Note_on_c, 0, 62, 70
1, 107282, Note_off_c, 0, 62, 62
1, 107295, Note_on_c, 0, 65, 64
1, 107339, Note_off_c, 0, 65, 61
1, 107356, Note_on_c, 0, 70, 71
1, 107407, Note_off_c, 0, 70, 60
1, 107431, Note_on_c, 0, 65, 69
1, 107490, Note_off_c, 0, 65, 55
1, 107499, Note_on_c, 0, 70, 70
1, 107544, Note_off_c, 0, 70, 62
1, 107563, Note_on_c, 0, 74, 77
1, 107606, Control_c, 0, 64, 21
1, 107629, Control_c, 0, 64, 32
1, 107639, Note_off_c, 0, 74, 61
1, 107644, Control_c, 0, 64, 40
1, 107646, Note_on_c, 0, 70, 81
1, 107658, Control_c, 0, 64, 46
1, 107673, Control_c, 0, 64, 48
1, 107688, Control_c, 0, 64, 49
1, 107703, Control_c, 0, 64, 49
1, 107711, Note_on_c, 0, 74, 80
1, 107714, Note_off_c, 0, 70, 61
1, 107718, Control_c, 0, 64, 51
1, 107732, Control_c, 0, 64, 54
1, 107747, Control_c, 0, 64, 57
1, 107762, Control_c, 0, 64, 59
1, 107776, Control_c, 0, 64, 61
1, 107776, Control_c, 0, 67, 8
1, 107777, Note_off_c, 0, 74, 68
1, 107785, Note_on_c, 0, 77, 72
1, 107791, Control_c, 0, 64, 62
1, 107791, Control_c, 0, 67, 8
1, 107806, Control_c, 0, 64, 63
1, 107813, Note_off_c, 0, 77, 61
1, 107821, Control_c, 0, 64, 65
1, 107836, Control_c, 0, 64, 67
1, 107836, Control_c, 0, 67, 9
1, 107839, Note_on_c, 0, 74, 84
1, 107851, Control_c, 0, 64, 69
1, 107851, Control_c, 0, 67, 10
1, 107865, Control_c, 0, 64, 72
1, 107865, Control_c, 0, 67, 11
1, 107880, Control_c, 0, 64, 76
1, 107880, Control_c, 0, 67, 12
1, 107895, Control_c, 0, 64, 80
1, 107895, Control_c, 0, 67, 14
1, 107908, Note_on_c, 0, 77, 80
1, 107910, Control_c, 0, 64, 83
1, 107910, Control_c, 0, 67, 15
1, 107911, Note_off_c, 0, 74, 63
1, 107925, Control_c, 0, 64, 85
1, 107925, Control_c, 0, 67, 15
1, 107940, Control_c, 0, 64, 88
1, 107940, Control_c, 0, 67, 16
1, 107955, Control_c, 0, 64, 91
1, 107955, Control_c, 0, 67, 18
1, 107969, Note_off_c, 0, 34, 61
1, 107969, Control_c, 0, 64, 94
1, 107969, Control_c, 0, 67, 20
1, 107973, Note_on_c, 0, 80, 84
1, 107979, Note_off_c, 0, 77, 65
1, 107984, Control_c, 0, 64, 96
1, 107984, Control_c, 0, 67, 22
1, 107999, Control_c, 0, 64, 97
1, 107999, Control_c, 0, 67, 25
1, 108001, Note_off_c, 0, 46, 58
1, 108014, Control_c, 0, 67, 26
1, 108029, Control_c, 0, 67, 28
1, 108038, Note_off_c, 0, 80, 64
1, 108043, Control_c, 0, 67, 30
1, 108046, Note_on_c, 0, 77, 79
1, 108058, Control_c, 0, 64, 94
1, 108058, Control_c, 0, 67, 34
1, 108073, Control_c, 0, 64, 83
1, 108073, Control_c, 0, 67, 41
1, 108088, Control_c, 0, 64, 70
1, 108088, Control_c, 0, 67, 52
1, 108102, Control_c, 0, 64, 55
1, 108102, Control_c, 0, 67, 71
1, 108117, Control_c, 0, 64, 0
1, 108117, Control_c, 0, 67, 90
1, 108132, Control_c, 0, 67, 108
1, 108137, Note_off_c, 0, 77, 58
1, 108140, Note_on_c, 0, 83, 81
1, 108147, Control_c, 0, 67, 124
1, 108162, Control_c, 0, 67, 127
1, 108246, Note_on_c, 0, 82, 83
1, 108258, Note_off_c, 0, 83, 61
1, 108328, Note_on_c, 0, 80, 61
1, 108347, Note_off_c, 0, 82, 60
1, 108396, Note_on_c, 0, 78, 73
1, 108398, Note_off_c, 0, 80, 63
1, 108447, Note_off_c, 0, 78, 61
1, 108472, Note_on_c, 0, 77, 69
1, 108518, Note_off_c, 0, 77, 56
1, 108548, Note_on_c, 0, 75, 71
1, 108589, Note_off_c, 0, 75, 59
1, 108621, Note_on_c, 0, 74, 61
1, 108666, Note_off_c, 0, 74, 53
1, 108697, Note_on_c, 0, 75, 70
1, 108717, Note_on_c, 0, 63, 42
1, 108772, Note_off_c, 0, 63, 58
1, 108816, Note_on_c, 0, 66, 37
1, 108847, Note_off_c, 0, 66, 56
1, 108897, Note_on_c, 0, 70, 40
1, 108911, Control_c, 0, 64, 17
1, 108925, Control_c, 0, 64, 30
1, 108937, Note_off_c, 0, 70, 50
1, 108940, Control_c, 0, 64, 38
1, 108955, Control_c, 0, 64, 44
1, 108970, Control_c, 0, 64, 48
1, 108971, Note_on_c, 0, 63, 49
1, 108985, Control_c, 0, 64, 50
1, 108999, Control_c, 0, 64, 52
1, 109012, Note_off_c, 0, 63, 61
1, 109014, Control_c, 0, 64, 54
1, 109029, Control_c, 0, 64, 55
1, 109044, Control_c, 0, 64, 57
1, 109052, Note_on_c, 0, 66, 51
1, 109059, Control_c, 0, 64, 57
1, 109073, Control_c, 0, 64, 58
1, 109083, Note_off_c, 0, 66, 65
1, 109088, Control_c, 0, 64, 59
1, 109103, Control_c, 0, 64, 59
1, 109125, Control_c, 0, 64, 60
1, 109126, Note_off_c, 0, 75, 55
1, 109133, Note_on_c, 0, 70, 46
1, 109140, Control_c, 0, 64, 60
1, 109156, Control_c, 0, 64, 61
1, 109180, Note_off_c, 0, 70, 54
1, 109186, Control_c, 0, 64, 61
1, 109205, Note_on_c, 0, 63, 59
1, 109230, Control_c, 0, 64, 62
1, 109247, Note_off_c, 0, 63, 59
1, 109288, Note_on_c, 0, 66, 49
1, 109289, Control_c, 0, 64, 61
1, 109304, Control_c, 0, 64, 60
1, 109312, Note_off_c, 0, 66, 61
1, 109319, Control_c, 0, 64, 57
1, 109334, Control_c, 0, 64, 52
1, 109348, Control_c, 0, 64, 47
1, 109353, Note_on_c, 0, 70, 45
1, 109363, Control_c, 0, 64, 43
1, 109378, Control_c, 0, 64, 39
1, 109393, Control_c, 0, 64, 34
1, 109400, Note_off_c, 0, 70, 47
1, 109408, Control_c, 0, 64, 26
1, 109422, Control_c, 0, 64, 13
1, 109437, Note_on_c, 0, 80, 57
1, 109437, Control_c, 0, 64, 0
1, 109441, Note_on_c, 0, 63, 50
1, 109480, Note_on_c, 0, 78, 66
1, 109482, Note_off_c, 0, 80, 51
1, 109486, Note_off_c, 0, 63, 62
1, 109514, Note_on_c, 0, 66, 45
1, 109541, Note_off_c, 0, 66, 61
1, 109551, Note_on_c, 0, 77, 61
1, 109584, Note_on_c, 0, 70, 51
1, 109611, Note_on_c, 0, 75, 69
1, 109612, Note_off_c, 0, 78, 51
1, 109625, Note_off_c, 0, 77, 62
1, 109663, Note_off_c, 0, 70, 54
1, 109664, Note_on_c, 0, 74, 73
1, 109664, Note_off_c, 0, 75, 63
1, 109675, Note_on_c, 0, 65, 54
1, 109687, Note_off_c, 0, 74, 69
1, 109726, Note_off_c, 0, 65, 59
1, 109764, Note_on_c, 0, 68, 42
1, 109792, Note_off_c, 0, 68, 51
1, 109802, Note_on_c, 0, 70, 47
1, 109904, Note_off_c, 0, 70, 61
1, 109906, Note_on_c, 0, 65, 54
1, 109949, Control_c, 0, 64, 13
1, 109957, Note_off_c, 0, 65, 60
1, 109964, Control_c, 0, 64, 18
1, 109973, Note_on_c, 0, 68, 49
1, 109979, Control_c, 0, 64, 21
1, 109994, Control_c, 0, 64, 25
1, 110003, Note_off_c, 0, 68, 66
1, 110009, Control_c, 0, 64, 27
1, 110024, Control_c, 0, 64, 28
1, 110041, Note_on_c, 0, 70, 49
1, 110068, Control_c, 0, 64, 28
1, 110083, Control_c, 0, 64, 27
1, 110097, Control_c, 0, 64, 25
1, 110112, Control_c, 0, 64, 20
1, 110127, Control_c, 0, 64, 13
1, 110135, Note_on_c, 0, 62, 58
1, 110142, Control_c, 0, 64, 11
1, 110156, Note_off_c, 0, 70, 42
1, 110157, Control_c, 0, 64, 12
1, 110205, Note_off_c, 0, 62, 62
1, 110215, Note_on_c, 0, 65, 44
1, 110245, Control_c, 0, 64, 11
1, 110256, Note_off_c, 0, 65, 59
1, 110260, Control_c, 0, 64, 10
1, 110301, Note_on_c, 0, 70, 37
1, 110304, Control_c, 0, 64, 9
1, 110367, Note_on_c, 0, 85, 63
1, 110375, Note_on_c, 0, 62, 51
1, 110394, Note_off_c, 0, 70, 34
1, 110405, Note_off_c, 0, 85, 56
1, 110407, Note_on_c, 0, 83, 63
1, 110408, Control_c, 0, 64, 10
1, 110423, Control_c, 0, 64, 11
1, 110429, Note_off_c, 0, 62, 61
1, 110438, Control_c, 0, 64, 12
1, 110438, Note_on_c, 0, 65, 32
1, 110481, Note_off_c, 0, 65, 59
1, 110483, Control_c, 0, 64, 12
1, 110495, Note_on_c, 0, 82, 53
1, 110497, Note_off_c, 0, 83, 60
1, 110524, Note_on_c, 0, 70, 44
1, 110526, Note_on_c, 0, 80, 59
1, 110542, Control_c, 0, 64, 12
1, 110555, Note_off_c, 0, 82, 52
1, 110581, Note_off_c, 0, 80, 59
1, 110591, Note_on_c, 0, 78, 66
1, 110599, Note_off_c, 0, 70, 55
1, 110602, Note_on_c, 0, 63, 52
1, 110623, Note_off_c, 0, 78, 68
1, 110638, Control_c, 0, 64, 13
1, 110653, Control_c, 0, 64, 17
1, 110656, Note_off_c, 0, 63, 61
1, 110667, Control_c, 0, 64, 21
1, 110682, Control_c, 0, 64, 24
1, 110692, Note_on_c, 0, 66, 44
1, 110697, Control_c, 0, 64, 25
1, 110719, Note_off_c, 0, 66, 62
1, 110727, Control_c, 0, 64, 26
1, 110751, Note_on_c, 0, 70, 51
1, 110757, Control_c, 0, 64, 26
1, 110772, Control_c, 0, 64, 27
1, 110787, Control_c, 0, 64, 27
1, 110787, Control_c, 0, 67, 126
1, 110802, Control_c, 0, 67, 124
1, 110817, Control_c, 0, 67, 123
1, 110831, Control_c, 0, 64, 27
1, 110831, Control_c, 0, 67, 123
1, 110844, Note_off_c, 0, 70, 50
1, 110846, Control_c, 0, 67, 122
1, 110857, Note_on_c, 0, 63, 53
1, 110861, Control_c, 0, 64, 26
1, 110861, Control_c, 0, 67, 122
1, 110876, Control_c, 0, 64, 27
1, 110876, Control_c, 0, 67, 121
1, 110891, Control_c, 0, 64, 27
1, 110892, Note_off_c, 0, 63, 63
1, 110906, Control_c, 0, 64, 28
1, 110920, Control_c, 0, 64, 30
1, 110927, Note_on_c, 0, 66, 49
1, 110935, Control_c, 0, 64, 33
1, 110950, Control_c, 0, 64, 36
1, 110954, Note_off_c, 0, 66, 64
1, 110965, Control_c, 0, 64, 38
1, 110980, Note_on_c, 0, 70, 54
1, 110994, Control_c, 0, 64, 38
1, 110994, Control_c, 0, 67, 121
1, 111009, Control_c, 0, 64, 37
1, 111009, Control_c, 0, 67, 120
1, 111024, Control_c, 0, 64, 35
1, 111024, Control_c, 0, 67, 119
1, 111039, Control_c, 0, 64, 31
1, 111039, Control_c, 0, 67, 118
1, 111054, Control_c, 0, 64, 27
1, 111054, Control_c, 0, 67, 117
1, 111065, Note_off_c, 0, 70, 42
1, 111069, Control_c, 0, 64, 22
1, 111069, Control_c, 0, 67, 116
1, 111072, Note_on_c, 0, 63, 64
1, 111084, Control_c, 0, 64, 24
1, 111099, Control_c, 0, 64, 29
1, 111099, Control_c, 0, 67, 117
1, 111109, Note_off_c, 0, 63, 60
1, 111113, Control_c, 0, 64, 35
1, 111128, Control_c, 0, 64, 40
1, 111143, Note_on_c, 0, 66, 49
1, 111143, Control_c, 0, 64, 45
1, 111158, Control_c, 0, 64, 48
1, 111168, Note_off_c, 0, 66, 64
1, 111173, Control_c, 0, 64, 52
1, 111187, Control_c, 0, 64, 54
1, 111188, Note_on_c, 0, 70, 58
1, 111202, Control_c, 0, 64, 56
1, 111217, Control_c, 0, 64, 57
1, 111232, Control_c, 0, 64, 57
1, 111246, Control_c, 0, 64, 58
1, 111246, Control_c, 0, 67, 117
1, 111261, Control_c, 0, 64, 59
1, 111261, Control_c, 0, 67, 118
1, 111276, Control_c, 0, 67, 118
1, 111291, Control_c, 0, 67, 119
1, 111292, Note_on_c, 0, 63, 58
1, 111296, Note_on_c, 0, 80, 68
1, 111298, Note_off_c, 0, 70, 55
1, 111305, Control_c, 0, 67, 120
1, 111320, Control_c, 0, 67, 121
1, 111335, Control_c, 0, 64, 58
1, 111335, Control_c, 0, 67, 122
1, 111338, Note_on_c, 0, 78, 70
1, 111347, Note_off_c, 0, 63, 61
1, 111350, Control_c, 0, 64, 57
1, 111350, Control_c, 0, 67, 123
1, 111373, Control_c, 0, 64, 53
1, 111373, Control_c, 0, 67, 125
1, 111387, Note_on_c, 0, 66, 48
1, 111388, Control_c, 0, 64, 47
1, 111388, Control_c, 0, 67, 126
1, 111399, Note_off_c, 0, 80, 56
1, 111402, Control_c, 0, 64, 39
1, 111402, Control_c, 0, 67, 127
1, 111407, Note_on_c, 0, 77, 70
1, 111411, Note_off_c, 0, 66, 59
1, 111417, Control_c, 0, 64, 21
1, 111432, Control_c, 0, 64, 0
1, 111443, Note_on_c, 0, 70, 52
1, 111454, Note_on_c, 0, 75, 70
1, 111489, Note_off_c, 0, 77, 62
1, 111492, Note_off_c, 0, 78, 53
1, 111509, Note_on_c, 0, 66, 38
1, 111513, Note_on_c, 0, 74, 85
1, 111529, Note_off_c, 0, 70, 57
1, 111532, Note_off_c, 0, 75, 65
1, 111541, Note_off_c, 0, 74, 65
1, 111550, Note_on_c, 0, 65, 57
1, 111577, Note_off_c, 0, 66, 36
1, 111605, Note_off_c, 0, 65, 62
1, 111660, Note_on_c, 0, 68, 16
1, 111668, Note_on_c, 0, 70, 50
1, 111700, Note_off_c, 0, 68, 29
1, 111714, Control_c, 0, 64, 13
1, 111729, Control_c, 0, 64, 18
1, 111744, Control_c, 0, 64, 21
1, 111758, Note_on_c, 0, 65, 56
1, 111758, Control_c, 0, 64, 24
1, 111773, Control_c, 0, 64, 29
1, 111775, Note_off_c, 0, 70, 59
1, 111788, Control_c, 0, 64, 37
1, 111803, Control_c, 0, 64, 43
1, 111817, Control_c, 0, 64, 48
1, 111830, Note_off_c, 0, 65, 62
1, 111832, Control_c, 0, 64, 51
1, 111842, Note_on_c, 0, 68, 50
1, 111847, Control_c, 0, 64, 54
1, 111861, Control_c, 0, 64, 57
1, 111876, Control_c, 0, 64, 59
1, 111881, Note_off_c, 0, 68, 62
1, 111891, Control_c, 0, 64, 61
1, 111905, Note_on_c, 0, 70, 51
1, 111906, Control_c, 0, 64, 61
1, 111965, Control_c, 0, 64, 60
1, 111980, Control_c, 0, 64, 56
1, 111995, Control_c, 0, 64, 49
1, 111997, Note_on_c, 0, 62, 57
1, 112009, Control_c, 0, 64, 38
1, 112024, Control_c, 0, 64, 32
1, 112036, Note_off_c, 0, 70, 46
1, 112039, Control_c, 0, 64, 36
1, 112054, Control_c, 0, 64, 45
1, 112068, Control_c, 0, 64, 51
1, 112083, Control_c, 0, 64, 52
1, 112085, Note_off_c, 0, 62, 63
1, 112098, Control_c, 0, 64, 53
1, 112136, Control_c, 0, 64, 52
1, 112149, Note_on_c, 0, 65, 13
1, 112150, Control_c, 0, 64, 52
1, 112165, Control_c, 0, 64, 49
1, 112180, Control_c, 0, 64, 46
1, 112190, Note_off_c, 0, 65, 29
1, 112195, Control_c, 0, 64, 40
1, 112199, Note_on_c, 0, 70, 21
1, 112210, Control_c, 0, 64, 35
1, 112224, Control_c, 0, 64, 30
1, 112239, Control_c, 0, 64, 25
1, 112247, Note_on_c, 0, 85, 55
1, 112254, Control_c, 0, 64, 21
1, 112265, Note_off_c, 0, 70, 39
1, 112268, Note_on_c, 0, 62, 43
1, 112268, Control_c, 0, 64, 20
1, 112283, Control_c, 0, 64, 20
1, 112295, Note_on_c, 0, 83, 59
1, 112298, Control_c, 0, 64, 19
1, 112313, Control_c, 0, 64, 16
1, 112325, Note_off_c, 0, 62, 60
1, 112328, Control_c, 0, 64, 12
1, 112344, Note_off_c, 0, 85, 56
1, 112344, Control_c, 0, 64, 0
1, 112352, Poly_aftertouch_c, 0, 65, 127
1, 112384, Note_on_c, 0, 82, 36
1, 112384, Poly_aftertouch_c, 0, 65, 0
1, 112409, Note_off_c, 0, 83, 61
1, 112419, Note_on_c, 0, 80, 61
1, 112432, Note_on_c, 0, 70, 42
1, 112460, Note_off_c, 0, 82, 54
1, 112471, Note_on_c, 0, 78, 67
1, 112496, Note_off_c, 0, 70, 57
1, 112498, Note_off_c, 0, 80, 53
1, 112510, Note_on_c, 0, 63, 48
1, 112536, Control_c, 0, 64, 12
1, 112551, Control_c, 0, 64, 20
1, 112555, Note_off_c, 0, 63, 62
1, 112566, Control_c, 0, 64, 29
1, 112581, Control_c, 0, 64, 36
1, 112587, Note_on_c, 0, 66, 46
1, 112596, Control_c, 0, 64, 41
1, 112611, Control_c, 0, 64, 45
1, 112620, Note_off_c, 0, 66, 64
1, 112626, Control_c, 0, 64, 47
1, 112640, Control_c, 0, 64, 49
1, 112653, Note_on_c, 0, 70, 46
1, 112655, Control_c, 0, 64, 50
1, 112670, Control_c, 0, 64, 52
1, 112684, Control_c, 0, 64, 55
1, 112699, Control_c, 0, 64, 57
1, 112703, Note_off_c, 0, 70, 56
1, 112714, Control_c, 0, 64, 59
1, 112714, Control_c, 0, 67, 126
1, 112729, Control_c, 0, 64, 60
1, 112729, Control_c, 0, 67, 125
1, 112744, Control_c, 0, 64, 62
1, 112744, Control_c, 0, 67, 124
1, 112745, Note_on_c, 0, 63, 46
1, 112758, Control_c, 0, 64, 63
1, 112758, Control_c, 0, 67, 123
1, 112770, Note_off_c, 0, 63, 62
1, 112773, Control_c, 0, 64, 65
1, 112773, Control_c, 0, 67, 122
1, 112788, Control_c, 0, 64, 66
1, 112788, Control_c, 0, 67, 121
1, 112793, Note_on_c, 0, 66, 50
1, 112803, Control_c, 0, 64, 68
1, 112803, Control_c, 0, 67, 120
1, 112817, Control_c, 0, 64, 70
1, 112817, Control_c, 0, 67, 119
1, 112822, Note_off_c, 0, 66, 65
1, 112832, Control_c, 0, 64, 72
1, 112832, Control_c, 0, 67, 118
1, 112847, Control_c, 0, 64, 73
1, 112847, Control_c, 0, 67, 117
1, 112869, Note_on_c, 0, 70, 46
1, 112870, Control_c, 0, 64, 74
1, 112870, Control_c, 0, 67, 117
1, 112885, Control_c, 0, 64, 75
1, 112885, Control_c, 0, 67, 116
1, 112902, Note_off_c, 0, 70, 48
1, 112945, Note_on_c, 0, 79, 77
1, 112955, Poly_aftertouch_c, 0, 82, 127
1, 112988, Control_c, 0, 64, 74
1, 112990, Note_on_c, 0, 63, 32
1, 113003, Control_c, 0, 64, 72
1, 113017, Control_c, 0, 64, 70
1, 113020, Note_off_c, 0, 63, 53
1, 113032, Control_c, 0, 64, 67
1, 113046, Note_on_c, 0, 70, 52
1, 113047, Control_c, 0, 64, 64
1, 113062, Control_c, 0, 64, 62
1, 113062, Control_c, 0, 67, 117
1, 113068, Poly_aftertouch_c, 0, 82, 0
1, 113077, Control_c, 0, 64, 60
1, 113087, Note_off_c, 0, 70, 58
1, 113091, Control_c, 0, 64, 57
1, 113106, Control_c, 0, 64, 53
1, 113117, Note_on_c, 0, 73, 52
1, 113121, Control_c, 0, 64, 48
1, 113137, Control_c, 0, 64, 43
1, 113137, Control_c, 0, 67, 117
1, 113138, Note_off_c, 0, 78, 16
1, 113152, Control_c, 0, 64, 38
1, 113167, Control_c, 0, 64, 36
1, 113182, Control_c, 0, 64, 38
1, 113182, Control_c, 0, 67, 118
1, 113191, Note_off_c, 0, 73, 58
1, 113196, Control_c, 0, 64, 44
1, 113211, Control_c, 0, 64, 52
1, 113211, Control_c, 0, 67, 118
1, 113212, Note_on_c, 0, 63, 53
1, 113226, Control_c, 0, 64, 56
1, 113226, Control_c, 0, 67, 119
1, 113240, Control_c, 0, 64, 59
1, 113240, Control_c, 0, 67, 120
1, 113250, Note_off_c, 0, 63, 62
1, 113255, Control_c, 0, 64, 61
1, 113255, Control_c, 0, 67, 121
1, 113270, Control_c, 0, 64, 63
1, 113270, Control_c, 0, 67, 122
1, 113276, Note_on_c, 0, 70, 54
1, 113285, Control_c, 0, 64, 65
1, 113285, Control_c, 0, 67, 123
1, 113297, Note_off_c, 0, 79, 58
1, 113300, Control_c, 0, 64, 66
1, 113300, Control_c, 0, 67, 124
1, 113315, Control_c, 0, 64, 68
1, 113315, Control_c, 0, 67, 125
1, 113316, Note_off_c, 0, 70, 58
1, 113329, Control_c, 0, 64, 69
1, 113329, Control_c, 0, 67, 126
1, 113338, Note_on_c, 0, 73, 63
1, 113344, Control_c, 0, 64, 69
1, 113344, Control_c, 0, 67, 127
1, 113359, Control_c, 0, 64, 70
1, 113359, Control_c, 0, 67, 127
1, 113384, Note_off_c, 0, 73, 59
1, 113448, Note_on_c, 0, 80, 68
1, 113448, Control_c, 0, 64, 69
1, 113463, Control_c, 0, 64, 68
1, 113470, Note_on_c, 0, 63, 29
1, 113474, Note_off_c, 0, 80, 63
1, 113478, Control_c, 0, 64, 67
1, 113493, Control_c, 0, 64, 64
1, 113498, Note_on_c, 0, 82, 67
1, 113507, Control_c, 0, 64, 60
1, 113513, Note_off_c, 0, 63, 47
1, 113522, Control_c, 0, 64, 58
1, 113532, Note_off_c, 0, 82, 59
1, 113537, Control_c, 0, 64, 56
1, 113552, Control_c, 0, 64, 54
1, 113556, Note_on_c, 0, 80, 63
1, 113557, Note_on_c, 0, 68, 33
1, 113567, Control_c, 0, 64, 51
1, 113581, Control_c, 0, 64, 47
1, 113582, Note_off_c, 0, 80, 65
1, 113589, Note_off_c, 0, 68, 45
1, 113594, Note_on_c, 0, 79, 65
1, 113596, Control_c, 0, 64, 41
1, 113601, Note_on_c, 0, 71, 53
1, 113619, Control_c, 0, 64, 34
1, 113633, Control_c, 0, 64, 27
1, 113648, Note_off_c, 0, 71, 60
1, 113648, Control_c, 0, 64, 21
1, 113655, Note_on_c, 0, 80, 65
1, 113659, Note_off_c, 0, 79, 61
1, 113663, Control_c, 0, 64, 18
1, 113678, Control_c, 0, 64, 16
1, 113693, Control_c, 0, 64, 15
1, 113712, Note_on_c, 0, 63, 45
1, 113722, Control_c, 0, 64, 14
1, 113757, Note_off_c, 0, 63, 61
1, 113782, Note_off_c, 0, 80, 58
1, 113791, Note_on_c, 0, 82, 57
1, 113792, Note_on_c, 0, 68, 51
1, 113830, Note_off_c, 0, 68, 63
1, 113855, Note_on_c, 0, 71, 45
1, 113885, Control_c, 0, 64, 15
1, 113900, Note_on_c, 0, 85, 57
1, 113911, Note_off_c, 0, 71, 52
1, 113945, Note_off_c, 0, 82, 32
1, 113945, Control_c, 0, 64, 16
1, 113950, Note_on_c, 0, 63, 55
1, 113960, Control_c, 0, 64, 17
1, 113975, Control_c, 0, 64, 17
1, 113990, Control_c, 0, 64, 18
1, 113992, Note_off_c, 0, 85, 64
1, 113994, Note_off_c, 0, 63, 61
1, 114004, Control_c, 0, 64, 19
1, 114030, Note_on_c, 0, 83, 66
1, 114034, Control_c, 0, 64, 19
1, 114048, Note_on_c, 0, 68, 35
1, 114064, Control_c, 0, 64, 20
1, 114072, Note_on_c, 0, 71, 44
1, 114075, Note_off_c, 0, 68, 50
1, 114076, Note_off_c, 0, 83, 54
1, 114158, Note_on_c, 0, 82, 61
1, 114164, Note_off_c, 0, 71, 53
1, 114168, Note_on_c, 0, 63, 56
1, 114183, Control_c, 0, 64, 20
1, 114187, Note_off_c, 0, 82, 64
1, 114212, Control_c, 0, 64, 19
1, 114214, Note_off_c, 0, 63, 60
1, 114242, Control_c, 0, 64, 19
1, 114246, Note_on_c, 0, 68, 45
1, 114261, Note_on_c, 0, 80, 58
1, 114271, Control_c, 0, 64, 18
1, 114283, Note_off_c, 0, 80, 62
1, 114286, Note_off_c, 0, 68, 63
1, 114286, Control_c, 0, 64, 17
1, 114306, Note_on_c, 0, 71, 51
1, 114316, Control_c, 0, 64, 17
1, 114331, Control_c, 0, 64, 16
1, 114346, Control_c, 0, 64, 15
1, 114397, Control_c, 0, 64, 16
1, 114403, Note_on_c, 0, 78, 62
1, 114412, Control_c, 0, 64, 18
1, 114423, Note_on_c, 0, 61, 52
1, 114427, Control_c, 0, 64, 23
1, 114432, Note_off_c, 0, 71, 35
1, 114442, Control_c, 0, 64, 30
1, 114457, Control_c, 0, 64, 36
1, 114469, Note_off_c, 0, 61, 59
1, 114471, Control_c, 0, 64, 43
1, 114486, Control_c, 0, 64, 48
1, 114501, Control_c, 0, 64, 51
1, 114510, Note_on_c, 0, 68, 50
1, 114516, Control_c, 0, 64, 54
1, 114531, Control_c, 0, 64, 55
1, 114546, Control_c, 0, 64, 57
1, 114553, Note_off_c, 0, 68, 60
1, 114561, Control_c, 0, 64, 58
1, 114575, Control_c, 0, 64, 58
1, 114587, Note_on_c, 0, 71, 36
1, 114590, Control_c, 0, 64, 59
1, 114620, Control_c, 0, 64, 60
1, 114626, Note_off_c, 0, 71, 57
1, 114635, Control_c, 0, 64, 60
1, 114650, Control_c, 0, 64, 61
1, 114664, Control_c, 0, 64, 61
1, 114666, Note_on_c, 0, 61, 52
1, 114679, Control_c, 0, 64, 62
1, 114694, Control_c, 0, 64, 62
1, 114704, Note_off_c, 0, 61, 64
1, 114709, Control_c, 0, 64, 63
1, 114724, Control_c, 0, 64, 64
1, 114739, Control_c, 0, 64, 64
1, 114742, Note_on_c, 0, 68, 45
1, 114754, Control_c, 0, 64, 65
1, 114771, Note_off_c, 0, 68, 63
1, 114775, Note_off_c, 0, 78, 60
1, 114799, Note_on_c, 0, 71, 44
1, 114806, Note_on_c, 0, 77, 59
1, 114828, Control_c, 0, 64, 64
1, 114830, Note_off_c, 0, 77, 59
1, 114843, Control_c, 0, 64, 63
1, 114850, Note_off_c, 0, 71, 50
1, 114858, Control_c, 0, 64, 62
1, 114859, Note_on_c, 0, 78, 57
1, 114873, Control_c, 0, 64, 59
1, 114887, Control_c, 0, 64, 55
1, 114890, Note_off_c, 0, 78, 63
1, 114896, Note_on_c, 0, 77, 68
1, 114902, Control_c, 0, 64, 51
1, 114903, Note_on_c, 0, 61, 42
1, 114917, Control_c, 0, 64, 46
1, 114932, Control_c, 0, 64, 41
1, 114934, Note_off_c, 0, 61, 56
1, 114947, Control_c, 0, 64, 34
1, 114961, Control_c, 0, 64, 25
1, 114976, Control_c, 0, 64, 16
1, 114977, Note_on_c, 0, 68, 45
1, 114991, Control_c, 0, 64, 11
1, 115017, Note_off_c, 0, 68, 63
1, 115020, Control_c, 0, 64, 12
1, 115035, Control_c, 0, 64, 18
1, 115037, Note_on_c, 0, 71, 50
1, 115050, Control_c, 0, 64, 28
1, 115065, Control_c, 0, 64, 38
1, 115079, Control_c, 0, 64, 46
1, 115080, Note_off_c, 0, 71, 59
1, 115094, Control_c, 0, 64, 52
1, 115117, Control_c, 0, 64, 56
1, 115132, Control_c, 0, 64, 58
1, 115133, Note_on_c, 0, 61, 50
1, 115147, Control_c, 0, 64, 60
1, 115161, Control_c, 0, 64, 62
1, 115169, Note_off_c, 0, 61, 65
1, 115176, Control_c, 0, 64, 63
1, 115191, Control_c, 0, 64, 64
1, 115206, Control_c, 0, 64, 64
1, 115207, Note_on_c, 0, 68, 42
1, 115234, Note_off_c, 0, 68, 58
1, 115235, Control_c, 0, 64, 65
1, 115246, Note_on_c, 0, 71, 54
1, 115304, Note_off_c, 0, 71, 55
1, 115327, Note_off_c, 0, 77, 59
1, 115356, Note_on_c, 0, 78, 62
1, 115358, Note_on_c, 0, 61, 53
1, 115386, Note_off_c, 0, 78, 60
1, 115399, Note_off_c, 0, 61, 57
1, 115416, Note_on_c, 0, 80, 60
1, 115446, Note_off_c, 0, 80, 63
1, 115455, Note_on_c, 0, 66, 28
1, 115475, Note_on_c, 0, 78, 59
1, 115488, Note_off_c, 0, 66, 52
1, 115492, Note_off_c, 0, 78, 65
1, 115502, Control_c, 0, 64, 64
1, 115503, Note_on_c, 0, 70, 51
1, 115516, Note_on_c, 0, 77, 66
1, 115517, Control_c, 0, 64, 64
1, 115532, Control_c, 0, 64, 62
1, 115547, Control_c, 0, 64, 59
1, 115550, Note_off_c, 0, 70, 58
1, 115554, Note_off_c, 0, 77, 54
1, 115562, Note_on_c, 0, 78, 68
1, 115562, Control_c, 0, 64, 54
1, 115577, Control_c, 0, 64, 49
1, 115592, Control_c, 0, 64, 45
1, 115594, Note_on_c, 0, 61, 55
1, 115607, Control_c, 0, 64, 42
1, 115622, Control_c, 0, 64, 40
1, 115636, Control_c, 0, 64, 38
1, 115639, Note_off_c, 0, 61, 62
1, 115651, Control_c, 0, 64, 37
1, 115666, Control_c, 0, 64, 35
1, 115675, Note_on_c, 0, 66, 47
1, 115681, Control_c, 0, 64, 33
1, 115684, Note_on_c, 0, 80, 74
1, 115690, Note_off_c, 0, 78, 61
1, 115696, Control_c, 0, 64, 29
1, 115710, Control_c, 0, 64, 25
1, 115718, Note_off_c, 0, 66, 60
1, 115725, Control_c, 0, 64, 21
1, 115740, Control_c, 0, 64, 19
1, 115742, Note_on_c, 0, 70, 49
1, 115784, Control_c, 0, 64, 18
1, 115786, Note_off_c, 0, 70, 58
1, 115795, Note_off_c, 0, 80, 56
1, 115799, Control_c, 0, 64, 18
1, 115801, Note_on_c, 0, 83, 73
1, 115814, Control_c, 0, 64, 17
1, 115831, Note_on_c, 0, 61, 56
1, 115860, Note_off_c, 0, 83, 55
1, 115881, Note_off_c, 0, 61, 63
1, 115921, Note_on_c, 0, 82, 73
1, 115926, Note_on_c, 0, 66, 49
1, 115961, Note_off_c, 0, 66, 63
1, 115968, Note_off_c, 0, 82, 60
1, 115971, Note_on_c, 0, 70, 56
1, 116019, Note_off_c, 0, 70, 56
1, 116045, Note_on_c, 0, 80, 65
1, 116063, Note_on_c, 0, 61, 52
1, 116071, Note_off_c, 0, 80, 66
1, 116132, Note_off_c, 0, 61, 58
1, 116144, Note_on_c, 0, 78, 72
1, 116147, Control_c, 0, 64, 17
1, 116161, Control_c, 0, 64, 16
1, 116170, Note_on_c, 0, 66, 38
1, 116176, Control_c, 0, 64, 15
1, 116179, Note_off_c, 0, 78, 58
1, 116191, Control_c, 0, 64, 14
1, 116203, Note_off_c, 0, 66, 55
1, 116206, Control_c, 0, 64, 13
1, 116207, Note_on_c, 0, 70, 48
1, 116221, Control_c, 0, 64, 12
1, 116246, Note_off_c, 0, 70, 58
1, 116251, Control_c, 0, 64, 14
1, 116266, Control_c, 0, 64, 19
1, 116278, Note_on_c, 0, 77, 71
1, 116281, Control_c, 0, 64, 26
1, 116295, Control_c, 0, 64, 33
1, 116297, Note_on_c, 0, 59, 54
1, 116309, Control_c, 0, 64, 39
1, 116324, Control_c, 0, 64, 45
1, 116340, Control_c, 0, 64, 50
1, 116355, Control_c, 0, 64, 54
1, 116369, Note_off_c, 0, 59, 59
1, 116370, Control_c, 0, 64, 57
1, 116384, Control_c, 0, 64, 59
1, 116391, Note_on_c, 0, 66, 51
1, 116399, Control_c, 0, 64, 61
1, 116414, Control_c, 0, 64, 62
1, 116429, Control_c, 0, 64, 63
1, 116432, Note_off_c, 0, 66, 59
1, 116444, Control_c, 0, 64, 64
1, 116458, Control_c, 0, 64, 65
1, 116463, Note_on_c, 0, 70, 45
1, 116473, Control_c, 0, 64, 66
1, 116488, Control_c, 0, 64, 67
1, 116489, Note_off_c, 0, 70, 59
1, 116503, Control_c, 0, 64, 68
1, 116518, Control_c, 0, 64, 70
1, 116527, Note_on_c, 0, 59, 57
1, 116532, Control_c, 0, 64, 71
1, 116547, Control_c, 0, 64, 72
1, 116562, Control_c, 0, 64, 72
1, 116576, Control_c, 0, 64, 73
1, 116608, Note_off_c, 0, 59, 53
1, 116632, Note_on_c, 0, 66, 48
1, 116635, Note_off_c, 0, 77, 38
1, 116656, Note_off_c, 0, 66, 61
1, 116674, Note_on_c, 0, 70, 42
1, 116678, Note_on_c, 0, 75, 61
1, 116698, Note_off_c, 0, 75, 64
1, 116702, Note_off_c, 0, 70, 58
1, 116703, Control_c, 0, 64, 71
1, 116718, Control_c, 0, 64, 69
1, 116725, Note_on_c, 0, 77, 59
1, 116733, Control_c, 0, 64, 66
1, 116747, Control_c, 0, 64, 62
1, 116761, Note_off_c, 0, 77, 64
1, 116762, Control_c, 0, 64, 57
1, 116763, Note_on_c, 0, 75, 72
1, 116767, Note_on_c, 0, 59, 45
1, 116777, Control_c, 0, 64, 53
1, 116791, Control_c, 0, 64, 50
1, 116806, Control_c, 0, 64, 47
1, 116821, Control_c, 0, 64, 44
1, 116835, Note_off_c, 0, 59, 55
1, 116836, Control_c, 0, 64, 38
1, 116845, Note_on_c, 0, 66, 52
1, 116851, Control_c, 0, 64, 28
1, 116865, Control_c, 0, 64, 13
1, 116880, Control_c, 0, 64, 10
1, 116895, Control_c, 0, 64, 16
1, 116910, Control_c, 0, 64, 24
1, 116925, Control_c, 0, 64, 33
1, 116927, Note_off_c, 0, 66, 43
1, 116933, Note_on_c, 0, 70, 51
1, 116939, Control_c, 0, 64, 42
1, 116954, Control_c, 0, 64, 50
1, 116969, Control_c, 0, 64, 55
1, 116972, Note_off_c, 0, 70, 59
1, 116984, Control_c, 0, 64, 57
1, 116999, Control_c, 0, 64, 59
1, 117001, Note_on_c, 0, 59, 50
1, 117014, Control_c, 0, 64, 60
1, 117029, Control_c, 0, 64, 61
1, 117044, Control_c, 0, 64, 62
1, 117058, Control_c, 0, 64, 63
1, 117066, Note_on_c, 0, 66, 52
1, 117068, Note_off_c, 0, 59, 56
1, 117073, Control_c, 0, 64, 64
1, 117117, Control_c, 0, 64, 64
1, 117122, Note_off_c, 0, 66, 56
1, 117145, Note_on_c, 0, 70, 50
1, 117163, Control_c, 0, 64, 65
1, 117177, Note_off_c, 0, 70, 63
1, 117201, Note_off_c, 0, 75, 61
1, 117219, Note_on_c, 0, 77, 58
1, 117243, Note_on_c, 0, 59, 35
1, 117258, Note_off_c, 0, 77, 60
1, 117267, Control_c, 0, 64, 64
1, 117280, Note_on_c, 0, 78, 59
1, 117281, Control_c, 0, 64, 63
1, 117292, Note_on_c, 0, 65, 41
1, 117296, Control_c, 0, 64, 62
1, 117311, Control_c, 0, 64, 60
1, 117320, Note_off_c, 0, 78, 56
1, 117326, Control_c, 0, 64, 57
1, 117327, Note_off_c, 0, 59, 33
1, 117341, Control_c, 0, 64, 55
1, 117346, Note_on_c, 0, 77, 60
1, 117363, Control_c, 0, 64, 52
1, 117364, Note_off_c, 0, 65, 55
1, 117377, Control_c, 0, 64, 49
1, 117388, Note_off_c, 0, 77, 62
1, 117392, Note_on_c, 0, 68, 48
1, 117392, Control_c, 0, 64, 46
1, 117407, Control_c, 0, 64, 42
1, 117413, Note_on_c, 0, 75, 54
1, 117422, Control_c, 0, 64, 39
1, 117422, Note_off_c, 0, 68, 63
1, 117437, Control_c, 0, 64, 35
1, 117452, Control_c, 0, 64, 33
1, 117467, Control_c, 0, 64, 32
1, 117467, Note_off_c, 0, 75, 61
1, 117482, Note_on_c, 0, 77, 61
1, 117485, Note_on_c, 0, 59, 46
1, 117511, Control_c, 0, 64, 32
1, 117526, Control_c, 0, 64, 31
1, 117540, Control_c, 0, 64, 31
1, 117559, Note_on_c, 0, 65, 48
1, 117565, Note_off_c, 0, 59, 58
1, 117578, Note_off_c, 0, 77, 62
1, 117600, Control_c, 0, 64, 30
1, 117601, Note_on_c, 0, 78, 64
1, 117633, Note_off_c, 0, 65, 51
1, 117642, Note_on_c, 0, 68, 51
1, 117679, Note_off_c, 0, 78, 57
1, 117682, Note_off_c, 0, 68, 61
1, 117714, Note_on_c, 0, 82, 57
1, 117718, Control_c, 0, 64, 31
1, 117725, Note_on_c, 0, 59, 51
1, 117732, Control_c, 0, 64, 31
1, 117747, Control_c, 0, 64, 32
1, 117757, Note_off_c, 0, 82, 57
1, 117792, Control_c, 0, 64, 32
1, 117818, Note_on_c, 0, 65, 39
1, 117819, Note_off_c, 0, 59, 54
1, 117827, Note_on_c, 0, 80, 68
1, 117866, Note_off_c, 0, 65, 51
1, 117867, Control_c, 0, 64, 32
1, 117870, Note_off_c, 0, 80, 52
1, 117894, Note_on_c, 0, 68, 41
1, 117896, Control_c, 0, 64, 31
1, 117932, Note_off_c, 0, 68, 54
1, 117938, Note_on_c, 0, 78, 65
1, 117957, Note_on_c, 0, 59, 53
1, 117991, Note_off_c, 0, 78, 51
1, 118027, Note_off_c, 0, 59, 60
1, 118054, Note_on_c, 0, 65, 43
1, 118056, Note_on_c, 0, 77, 45
1, 118060, Control_c, 0, 64, 31
1, 118075, Control_c, 0, 64, 30
1, 118090, Control_c, 0, 64, 28
1, 118096, Note_off_c, 0, 77, 53
1, 118112, Control_c, 0, 64, 25
1, 118117, Note_off_c, 0, 65, 54
1, 118127, Control_c, 0, 64, 22
1, 118142, Control_c, 0, 64, 21
1, 118152, Note_on_c, 0, 68, 33
1, 118156, Control_c, 0, 64, 20
1, 118171, Control_c, 0, 64, 20
1, 118196, Note_off_c, 0, 68, 46
1, 118201, Control_c, 0, 64, 20
1, 118203, Note_on_c, 0, 75, 61
1, 118216, Control_c, 0, 64, 24
1, 118230, Control_c, 0, 64, 31
1, 118233, Note_on_c, 0, 58, 49
1, 118245, Control_c, 0, 64, 39
1, 118260, Control_c, 0, 64, 46
1, 118275, Control_c, 0, 64, 51
1, 118290, Control_c, 0, 64, 55
1, 118305, Control_c, 0, 64, 57
1, 118319, Control_c, 0, 64, 59
1, 118329, Note_off_c, 0, 58, 48
1, 118334, Note_on_c, 0, 65, 43
1, 118334, Control_c, 0, 64, 61
1, 118349, Control_c, 0, 64, 62
1, 118364, Control_c, 0, 64, 62
1, 118379, Control_c, 0, 64, 63
1, 118396, Note_off_c, 0, 65, 55
1, 118424, Control_c, 0, 64, 63
1, 118439, Note_on_c, 0, 68, 27
1, 118453, Control_c, 0, 64, 64
1, 118468, Control_c, 0, 64, 64
1, 118471, Note_on_c, 0, 58, 48
1, 118472, Note_off_c, 0, 68, 50
1, 118552, Note_on_c, 0, 65, 40
1, 118587, Note_off_c, 0, 58, 33
1, 118616, Note_off_c, 0, 75, 61
1, 118622, Note_off_c, 0, 65, 56
1, 118638, Note_on_c, 0, 74, 57
1, 118660, Control_c, 0, 64, 64
1, 118667, Note_off_c, 0, 74, 51
1, 118674, Control_c, 0, 64, 63
1, 118680, Poly_aftertouch_c, 0, 68, 127
1, 118689, Control_c, 0, 64, 61
1, 118704, Control_c, 0, 64, 58
1, 118709, Note_on_c, 0, 58, 43
1, 118713, Note_on_c, 0, 75, 26
1, 118716, Poly_aftertouch_c, 0, 68, 0
1, 118719, Control_c, 0, 64, 55
1, 118724, Note_on_c, 0, 74, 49
1, 118735, Control_c, 0, 64, 51
1, 118740, Note_off_c, 0, 75, 47
1, 118750, Control_c, 0, 64, 47
1, 118765, Control_c, 0, 64, 42
1, 118779, Control_c, 0, 64, 36
1, 118794, Control_c, 0, 64, 29
1, 118804, Note_on_c, 0, 65, 40
1, 118809, Control_c, 0, 64, 20
1, 118824, Note_off_c, 0, 58, 47
1, 118824, Control_c, 0, 64, 17
1, 118861, Control_c, 0, 64, 21
1, 118876, Control_c, 0, 64, 28
1, 118891, Control_c, 0, 64, 36
1, 118898, Note_off_c, 0, 65, 58
1, 118906, Control_c, 0, 64, 45
1, 118921, Control_c, 0, 64, 50
1, 118935, Control_c, 0, 64, 53
1, 118949, Note_on_c, 0, 68, 28
1, 118950, Control_c, 0, 64, 56
1, 118965, Control_c, 0, 64, 58
1, 118979, Control_c, 0, 64, 59
1, 118980, Note_on_c, 0, 58, 32
1, 118983, Note_off_c, 0, 68, 53
1, 118994, Control_c, 0, 64, 60
1, 119009, Control_c, 0, 64, 61
1, 119024, Control_c, 0, 64, 62
1, 119039, Control_c, 0, 64, 62
1, 119050, Note_on_c, 0, 65, 43
1, 119053, Control_c, 0, 64, 63
1, 119068, Control_c, 0, 64, 63
1, 119083, Control_c, 0, 64, 64
1, 119093, Note_off_c, 0, 58, 35
1, 119137, Note_off_c, 0, 65, 53
1, 119150, Note_on_c, 0, 68, 32
1, 119205, Note_on_c, 0, 75, 49
1, 119241, Note_off_c, 0, 74, 49
1, 119243, Note_off_c, 0, 68, 36
1, 119247, Control_c, 0, 64, 63
1, 119261, Control_c, 0, 64, 62
1, 119264, Note_on_c, 0, 58, 23
1, 119276, Control_c, 0, 64, 61
1, 119291, Control_c, 0, 64, 59
1, 119305, Control_c, 0, 64, 57
1, 119320, Control_c, 0, 64, 56
1, 119327, Note_off_c, 0, 58, 43
1, 119335, Control_c, 0, 64, 55
1, 119350, Control_c, 0, 64, 54
1, 119354, Note_on_c, 0, 63, 39
1, 119398, Note_off_c, 0, 63, 53
1, 119428, Note_on_c, 0, 67, 42
1, 119479, Note_off_c, 0, 67, 53
1, 119483, Control_c, 0, 64, 55
1, 119512, Note_on_c, 0, 58, 38
1, 119512, Control_c, 0, 64, 56
1, 119528, Control_c, 0, 64, 57
1, 119543, Control_c, 0, 64, 58
1, 119551, Note_off_c, 0, 58, 55
1, 119558, Control_c, 0, 64, 59
1, 119574, Note_on_c, 0, 63, 47
1, 119588, Control_c, 0, 64, 60
1, 119625, Control_c, 0, 64, 60
1, 119628, Note_off_c, 0, 63, 59
1, 119640, Control_c, 0, 64, 61
1, 119663, Note_on_c, 0, 67, 39
1, 119699, Control_c, 0, 64, 61
1, 119705, Note_off_c, 0, 67, 53
1, 119706, Note_off_c, 0, 75, 35
1, 119728, Control_c, 0, 64, 62
1, 119740, Note_on_c, 0, 58, 52
1, 119787, Note_off_c, 0, 58, 59
1, 119817, Control_c, 0, 64, 62
1, 119818, Note_on_c, 0, 75, 58
1, 119834, Note_on_c, 0, 63, 40
1, 119845, Note_off_c, 0, 75, 65
1, 119863, Note_off_c, 0, 63, 55
1, 119903, Note_on_c, 0, 67, 38
1, 119945, Note_off_c, 0, 67, 49
1, 119950, Control_c, 0, 64, 62
1, 119953, Note_on_c, 0, 77, 53
1, 119965, Control_c, 0, 64, 61
1, 119980, Control_c, 0, 64, 60
1, 119982, Note_on_c, 0, 58, 47
1, 119986, Note_off_c, 0, 77, 65
1, 119995, Control_c, 0, 64, 59
1, 120002, Note_on_c, 0, 75, 55
1, 120010, Control_c, 0, 64, 58
1, 120025, Control_c, 0, 64, 56
1, 120033, Note_off_c, 0, 75, 67
1, 120039, Control_c, 0, 64, 54
1, 120054, Control_c, 0, 64, 52
1, 120061, Note_on_c, 0, 74, 50
1, 120069, Control_c, 0, 64, 51
1, 120073, Note_off_c, 0, 58, 36
1, 120083, Control_c, 0, 64, 49
1, 120085, Note_off_c, 0, 74, 59
1, 120098, Control_c, 0, 64, 46
1, 120108, Note_on_c, 0, 75, 61
1, 120113, Control_c, 0, 64, 43
1, 120127, Control_c, 0, 64, 37
1, 120137, Note_on_c, 0, 67, 38
1, 120142, Control_c, 0, 64, 29
1, 120153, Poly_aftertouch_c, 0, 63, 0
1, 120157, Control_c, 0, 64, 19
1, 120158, Note_off_c, 0, 75, 58
1, 120170, Note_on_c, 0, 79, 58
1, 120172, Control_c, 0, 64, 0
1, 120202, Note_off_c, 0, 67, 38
1, 120216, Control_c, 0, 64, 14
1, 120231, Control_c, 0, 64, 27
1, 120234, Note_on_c, 0, 60, 45
1, 120245, Control_c, 0, 64, 39
1, 120260, Control_c, 0, 64, 49
1, 120275, Control_c, 0, 64, 54
1, 120290, Control_c, 0, 64, 57
1, 120292, Note_off_c, 0, 60, 56
1, 120305, Control_c, 0, 64, 59
1, 120321, Control_c, 0, 64, 61
1, 120327, Note_on_c, 0, 63, 26
1, 120336, Control_c, 0, 64, 63
1, 120358, Control_c, 0, 64, 64
1, 120373, Note_off_c, 0, 63, 49
1, 120373, Control_c, 0, 64, 65
1, 120388, Control_c, 0, 64, 66
1, 120402, Note_on_c, 0, 67, 36
1, 120403, Control_c, 0, 64, 66
1, 120432, Control_c, 0, 64, 67
1, 120447, Control_c, 0, 64, 68
1, 120449, Note_on_c, 0, 75, 59
1, 120462, Control_c, 0, 64, 69
1, 120466, Note_off_c, 0, 67, 43
1, 120469, Note_off_c, 0, 75, 65
1, 120473, Note_off_c, 0, 79, 40
1, 120477, Control_c, 0, 64, 70
1, 120484, Note_on_c, 0, 60, 46
1, 120492, Control_c, 0, 64, 71
1, 120506, Control_c, 0, 64, 72
1, 120521, Control_c, 0, 64, 73
1, 120536, Control_c, 0, 64, 75
1, 120546, Note_off_c, 0, 60, 56
1, 120550, Control_c, 0, 64, 76
1, 120565, Control_c, 0, 64, 76
1, 120577, Note_on_c, 0, 63, 44
1, 120580, Control_c, 0, 64, 77
1, 120603, Note_off_c, 0, 63, 57
1, 120626, Note_on_c, 0, 67, 46
1, 120639, Control_c, 0, 64, 76
1, 120654, Control_c, 0, 64, 71
1, 120669, Control_c, 0, 64, 63
1, 120683, Control_c, 0, 64, 48
1, 120698, Control_c, 0, 64, 0
1, 120719, Note_on_c, 0, 60, 54
1, 120720, Note_off_c, 0, 67, 43
1, 120760, Note_on_c, 0, 75, 62
1, 120777, Note_off_c, 0, 60, 58
1, 120785, Note_off_c, 0, 75, 65
1, 120825, Note_on_c, 0, 63, 26
1, 120854, Note_off_c, 0, 63, 42
1, 120868, Note_on_c, 0, 67, 48
1, 120913, Note_on_c, 0, 77, 61
1, 120945, Note_off_c, 0, 77, 63
1, 120947, Note_off_c, 0, 67, 57
1, 120948, Note_on_c, 0, 60, 41
1, 120966, Note_on_c, 0, 75, 71
1, 120984, Note_off_c, 0, 60, 63
1, 120992, Note_off_c, 0, 75, 65
1, 121006, Note_on_c, 0, 63, 36
1, 121024, Note_on_c, 0, 74, 53
1, 121045, Note_off_c, 0, 63, 58
1, 121060, Note_off_c, 0, 74, 61
1, 121072, Note_on_c, 0, 75, 65
1, 121090, Note_on_c, 0, 67, 42
1, 121133, Note_on_c, 0, 79, 64
1, 121134, Note_off_c, 0, 75, 61
1, 121166, Note_off_c, 0, 67, 54
1, 121167, Control_c, 0, 64, 15
1, 121172, Note_on_c, 0, 58, 48
1, 121181, Control_c, 0, 64, 35
1, 121196, Control_c, 0, 64, 46
1, 121211, Control_c, 0, 64, 53
1, 121226, Control_c, 0, 64, 58
1, 121241, Control_c, 0, 64, 61
1, 121242, Note_off_c, 0, 58, 55
1, 121256, Control_c, 0, 64, 64
1, 121271, Control_c, 0, 64, 66
1, 121271, Note_on_c, 0, 63, 43
1, 121285, Control_c, 0, 64, 67
1, 121300, Control_c, 0, 64, 69
1, 121311, Note_off_c, 0, 63, 57
1, 121315, Control_c, 0, 64, 71
1, 121330, Control_c, 0, 64, 73
1, 121334, Note_on_c, 0, 67, 52
1, 121345, Control_c, 0, 64, 76
1, 121360, Control_c, 0, 64, 77
1, 121374, Control_c, 0, 64, 79
1, 121389, Note_off_c, 0, 67, 49
1, 121389, Control_c, 0, 64, 81
1, 121404, Control_c, 0, 64, 83
1, 121411, Note_on_c, 0, 75, 63
1, 121419, Control_c, 0, 64, 84
1, 121434, Control_c, 0, 64, 87
1, 121437, Note_off_c, 0, 75, 65
1, 121446, Note_on_c, 0, 58, 46
1, 121448, Control_c, 0, 64, 90
1, 121453, Note_off_c, 0, 79, 34
1, 121463, Control_c, 0, 64, 94
1, 121478, Control_c, 0, 64, 99
1, 121493, Control_c, 0, 64, 104
1, 121494, Note_off_c, 0, 58, 47
1, 121507, Control_c, 0, 64, 108
1, 121522, Control_c, 0, 64, 112
1, 121535, Note_on_c, 0, 63, 47
1, 121537, Control_c, 0, 64, 115
1, 121551, Control_c, 0, 64, 118
1, 121566, Control_c, 0, 64, 127
1, 121570, Note_off_c, 0, 63, 59
1, 121589, Note_on_c, 0, 67, 59
1, 121628, Note_off_c, 0, 67, 56
1, 121640, Control_c, 0, 64, 112
1, 121655, Control_c, 0, 64, 88
1, 121670, Control_c, 0, 64, 71
1, 121685, Control_c, 0, 64, 57
1, 121688, Note_on_c, 0, 58, 66
1, 121699, Control_c, 0, 64, 34
1, 121714, Control_c, 0, 64, 0
1, 121730, Note_off_c, 0, 58, 55
1, 121730, Note_on_c, 0, 75, 72
1, 121752, Note_off_c, 0, 75, 70
1, 121775, Note_on_c, 0, 63, 48
1, 121799, Note_off_c, 0, 63, 61
1, 121821, Note_on_c, 0, 67, 52
1, 121876, Note_off_c, 0, 67, 55
1, 121888, Note_on_c, 0, 77, 67
1, 121897, Note_on_c, 0, 58, 70
1, 121920, Note_off_c, 0, 77, 60
1, 121941, Note_on_c, 0, 75, 75
1, 121947, Note_off_c, 0, 58, 51
1, 121964, Note_off_c, 0, 75, 67
1, 121983, Note_on_c, 0, 63, 36
1, 121993, Note_on_c, 0, 74, 65
1, 122027, Note_off_c, 0, 63, 60
1, 122039, Note_on_c, 0, 75, 76
1, 122040, Note_off_c, 0, 74, 64
1, 122054, Note_on_c, 0, 67, 54
1, 122111, Note_off_c, 0, 67, 52
1, 122123, Note_off_c, 0, 75, 62
1, 122123, Note_on_c, 0, 84, 84
1, 122159, Note_on_c, 0, 57, 55
1, 122167, Control_c, 0, 64, 16
1, 122182, Control_c, 0, 64, 30
1, 122196, Control_c, 0, 64, 40
1, 122211, Control_c, 0, 64, 48
1, 122225, Note_off_c, 0, 57, 58
1, 122226, Control_c, 0, 64, 54
1, 122241, Control_c, 0, 64, 58
1, 122255, Note_on_c, 0, 63, 49
1, 122256, Control_c, 0, 64, 61
1, 122270, Control_c, 0, 64, 63
1, 122285, Control_c, 0, 64, 65
1, 122296, Note_off_c, 0, 63, 60
1, 122299, Control_c, 0, 64, 67
1, 122314, Control_c, 0, 64, 69
1, 122323, Note_on_c, 0, 67, 55
1, 122329, Control_c, 0, 64, 72
1, 122344, Control_c, 0, 64, 75
1, 122359, Control_c, 0, 64, 77
1, 122365, Note_off_c, 0, 67, 59
1, 122373, Control_c, 0, 64, 79
1, 122383, Note_off_c, 0, 84, 57
1, 122388, Control_c, 0, 64, 82
1, 122389, Note_on_c, 0, 75, 69
1, 122403, Control_c, 0, 64, 84
1, 122413, Note_off_c, 0, 75, 66
1, 122418, Control_c, 0, 64, 87
1, 122419, Note_on_c, 0, 57, 52
1, 122433, Control_c, 0, 64, 90
1, 122447, Control_c, 0, 64, 93
1, 122455, Note_off_c, 0, 57, 58
1, 122462, Control_c, 0, 64, 97
1, 122477, Control_c, 0, 64, 99
1, 122492, Control_c, 0, 64, 100
1, 122501, Note_on_c, 0, 63, 52
1, 122507, Control_c, 0, 64, 101
1, 122521, Control_c, 0, 64, 101
1, 122532, Note_off_c, 0, 63, 61
1, 122558, Note_on_c, 0, 67, 58
1, 122603, Control_c, 0, 64, 101
1, 122606, Note_off_c, 0, 67, 59
1, 122618, Control_c, 0, 64, 99
1, 122633, Control_c, 0, 64, 95
1, 122647, Control_c, 0, 64, 88
1, 122660, Note_on_c, 0, 57, 60
1, 122662, Control_c, 0, 64, 80
1, 122677, Control_c, 0, 64, 72
1, 122692, Control_c, 0, 64, 66
1, 122698, Note_off_c, 0, 57, 63
1, 122707, Control_c, 0, 64, 61
1, 122722, Control_c, 0, 64, 58
1, 122739, Note_on_c, 0, 75, 63
1, 122740, Note_on_c, 0, 63, 54
1, 122759, Note_off_c, 0, 75, 65
1, 122767, Control_c, 0, 64, 58
1, 122772, Note_off_c, 0, 63, 63
1, 122782, Control_c, 0, 64, 57
1, 122797, Control_c, 0, 64, 56
1, 122800, Note_on_c, 0, 67, 48
1, 122812, Control_c, 0, 64, 54
1, 122826, Control_c, 0, 64, 53
1, 122838, Note_off_c, 0, 67, 56
1, 122841, Control_c, 0, 64, 52
1, 122870, Control_c, 0, 64, 51
1, 122883, Note_on_c, 0, 57, 56
1, 122885, Control_c, 0, 64, 51
1, 122895, Note_on_c, 0, 77, 54
1, 122900, Control_c, 0, 64, 50
1, 122915, Control_c, 0, 64, 49
1, 122919, Note_off_c, 0, 77, 64
1, 122927, Note_off_c, 0, 57, 59
1, 122930, Control_c, 0, 64, 48
1, 122944, Control_c, 0, 64, 47
1, 122950, Note_on_c, 0, 75, 58
1, 122959, Control_c, 0, 64, 46
1, 122970, Note_off_c, 0, 75, 64
1, 122974, Control_c, 0, 64, 45
1, 122979, Note_on_c, 0, 63, 49
1, 122989, Control_c, 0, 64, 43
1, 123003, Note_on_c, 0, 74, 49
1, 123004, Control_c, 0, 64, 42
1, 123018, Control_c, 0, 64, 40
1, 123019, Note_off_c, 0, 63, 60
1, 123026, Note_off_c, 0, 74, 57
1, 123033, Control_c, 0, 64, 38
1, 123044, Note_on_c, 0, 75, 63
1, 123048, Control_c, 0, 64, 37
1, 123063, Control_c, 0, 64, 37
1, 123068, Note_on_c, 0, 67, 23
1, 123074, Note_off_c, 0, 75, 64
1, 123115, Note_off_c, 0, 67, 47
1, 123136, Note_on_c, 0, 58, 46
1, 123149, Note_on_c, 0, 70, 52
1, 123178, Note_off_c, 0, 70, 53
1, 123181, Note_off_c, 0, 58, 58
1, 123208, Note_on_c, 0, 75, 55
1, 123217, Note_on_c, 0, 63, 45
1, 123241, Control_c, 0, 64, 37
1, 123253, Note_off_c, 0, 75, 58
1, 123256, Note_off_c, 0, 63, 59
1, 123256, Control_c, 0, 64, 39
1, 123270, Control_c, 0, 64, 44
1, 123285, Control_c, 0, 64, 48
1, 123298, Note_on_c, 0, 67, 41
1, 123300, Control_c, 0, 64, 51
1, 123315, Control_c, 0, 64, 53
1, 123330, Note_on_c, 0, 79, 18
1, 123330, Control_c, 0, 64, 55
1, 123351, Control_c, 0, 64, 58
1, 123360, Note_off_c, 0, 67, 42
1, 123366, Control_c, 0, 64, 60
1, 123374, Note_on_c, 0, 70, 52
1, 123375, Note_off_c, 0, 79, 44
1, 123381, Control_c, 0, 64, 62
1, 123387, Note_on_c, 0, 58, 51
1, 123396, Control_c, 0, 64, 63
1, 123407, Note_off_c, 0, 70, 56
1, 123411, Control_c, 0, 64, 64
1, 123426, Control_c, 0, 64, 65
1, 123433, Note_off_c, 0, 58, 58
1, 123437, Note_on_c, 0, 75, 52
1, 123441, Control_c, 0, 64, 66
1, 123456, Control_c, 0, 64, 67
1, 123468, Note_on_c, 0, 63, 43
1, 123470, Control_c, 0, 64, 69
1, 123485, Control_c, 0, 64, 70
1, 123500, Control_c, 0, 64, 70
1, 123502, Note_off_c, 0, 75, 58
1, 123507, Note_off_c, 0, 63, 57
1, 123525, Note_on_c, 0, 79, 44
1, 123539, Note_on_c, 0, 67, 37
1, 123545, Control_c, 0, 64, 70
1, 123560, Control_c, 0, 64, 67
1, 123575, Control_c, 0, 64, 62
1, 123590, Control_c, 0, 64, 51
1, 123596, Note_off_c, 0, 67, 44
1, 123605, Control_c, 0, 64, 39
1, 123607, Note_on_c, 0, 71, 71
1, 123619, Note_on_c, 0, 59, 57
1, 123619, Control_c, 0, 64, 35
1, 123625, Note_off_c, 0, 79, 34
1, 123634, Control_c, 0, 64, 41
1, 123649, Control_c, 0, 64, 50
1, 123661, Note_off_c, 0, 71, 60
1, 123664, Control_c, 0, 64, 55
1, 123677, Note_off_c, 0, 59, 59
1, 123679, Control_c, 0, 64, 57
1, 123683, Note_on_c, 0, 75, 50
1, 123693, Control_c, 0, 64, 59
1, 123708, Control_c, 0, 64, 61
1, 123715, Note_on_c, 0, 63, 43
1, 123723, Control_c, 0, 64, 62
1, 123738, Control_c, 0, 64, 63
1, 123739, Note_off_c, 0, 75, 57
1, 123740, Note_off_c, 0, 63, 57
1, 123757, Note_on_c, 0, 67, 49
1, 123766, Note_on_c, 0, 79, 46
1, 123767, Control_c, 0, 64, 62
1, 123782, Control_c, 0, 64, 61
1, 123797, Control_c, 0, 64, 56
1, 123812, Control_c, 0, 64, 49
1, 123822, Note_off_c, 0, 67, 52
1, 123826, Control_c, 0, 64, 37
1, 123841, Control_c, 0, 64, 27
1, 123849, Note_on_c, 0, 59, 66
1, 123853, Note_on_c, 0, 71, 71
1, 123856, Control_c, 0, 64, 30
1, 123868, Note_off_c, 0, 79, 61
1, 123871, Control_c, 0, 64, 42
1, 123886, Control_c, 0, 64, 53
1, 123895, Note_off_c, 0, 71, 63
1, 123900, Control_c, 0, 64, 58
1, 123908, Note_on_c, 0, 75, 59
1, 123912, Note_off_c, 0, 59, 61
1, 123915, Control_c, 0, 64, 61
1, 123930, Control_c, 0, 64, 62
1, 123945, Control_c, 0, 64, 63
1, 123952, Note_on_c, 0, 63, 48
1, 123960, Control_c, 0, 64, 64
1, 123974, Control_c, 0, 64, 65
1, 123977, Note_off_c, 0, 63, 56
1, 123986, Note_off_c, 0, 75, 60
1, 123989, Control_c, 0, 64, 64
1, 123994, Note_on_c, 0, 67, 48
1, 124004, Note_on_c, 0, 79, 58
1, 124004, Control_c, 0, 64, 61
1, 124019, Control_c, 0, 64, 53
1, 124034, Control_c, 0, 64, 35
1, 124049, Control_c, 0, 64, 0
1, 124062, Note_off_c, 0, 67, 52
1, 124067, Note_on_c, 0, 72, 73
1, 124080, Note_on_c, 0, 60, 66
1, 124093, Note_off_c, 0, 79, 61
1, 124115, Control_c, 0, 64, 30
1, 124120, Note_off_c, 0, 72, 61
1, 124129, Note_on_c, 0, 75, 62
1, 124130, Control_c, 0, 64, 45
1, 124138, Note_off_c, 0, 60, 56
1, 124145, Control_c, 0, 64, 53
1, 124160, Control_c, 0, 64, 57
1, 124171, Note_on_c, 0, 63, 50
1, 124174, Control_c, 0, 64, 58
1, 124189, Control_c, 0, 64, 59
1, 124201, Note_off_c, 0, 63, 61
1, 124204, Note_off_c, 0, 75, 61
1, 124228, Note_on_c, 0, 67, 50
1, 124231, Note_on_c, 0, 79, 57
1, 124234, Control_c, 0, 64, 59
1, 124248, Control_c, 0, 64, 54
1, 124263, Control_c, 0, 64, 40
1, 124278, Control_c, 0, 64, 0
1, 124298, Note_on_c, 0, 72, 74
1, 124298, Note_off_c, 0, 67, 50
1, 124317, Note_on_c, 0, 60, 72
1, 124320, Note_off_c, 0, 79, 61
1, 124323, Control_c, 0, 64, 13
1, 124338, Control_c, 0, 64, 41
1, 124349, Note_on_c, 0, 75, 64
1, 124350, Note_off_c, 0, 72, 59
1, 124353, Control_c, 0, 64, 54
1, 124368, Control_c, 0, 64, 59
1, 124374, Note_off_c, 0, 60, 61
1, 124383, Control_c, 0, 64, 61
1, 124393, Note_on_c, 0, 63, 58
1, 124398, Control_c, 0, 64, 64
1, 124412, Control_c, 0, 64, 66
1, 124424, Note_off_c, 0, 75, 62
1, 124427, Control_c, 0, 64, 67
1, 124428, Note_off_c, 0, 63, 62
1, 124442, Control_c, 0, 64, 69
1, 124446, Note_on_c, 0, 79, 60
1, 124463, Note_on_c, 0, 67, 56
1, 124487, Control_c, 0, 64, 65
1, 124502, Control_c, 0, 64, 48
1, 124511, Note_off_c, 0, 67, 58
1, 124517, Control_c, 0, 64, 0
1, 124524, Note_on_c, 0, 73, 76
1, 124529, Note_off_c, 0, 79, 63
1, 124537, Note_on_c, 0, 61, 76
1, 124583, Note_off_c, 0, 73, 63
1, 124585, Note_off_c, 0, 61, 60
1, 124591, Control_c, 0, 64, 42
1, 124592, Note_on_c, 0, 76, 74
1, 124606, Note_on_c, 0, 64, 65
1, 124606, Control_c, 0, 64, 54
1, 124621, Control_c, 0, 64, 59
1, 124636, Control_c, 0, 64, 61
1, 124644, Note_off_c, 0, 64, 60
1, 124650, Control_c, 0, 64, 63
1, 124665, Control_c, 0, 64, 64
1, 124666, Note_off_c, 0, 76, 59
1, 124680, Control_c, 0, 64, 64
1, 124693, Note_on_c, 0, 67, 57
1, 124695, Control_c, 0, 64, 63
1, 124705, Note_on_c, 0, 79, 68
1, 124710, Control_c, 0, 64, 54
1, 124724, Control_c, 0, 64, 0
1, 124731, Note_off_c, 0, 67, 60
1, 124760, Note_on_c, 0, 61, 75
1, 124768, Note_on_c, 0, 73, 79
1, 124777, Note_off_c, 0, 79, 61
1, 124798, Control_c, 0, 64, 51
1, 124813, Control_c, 0, 64, 60
1, 124815, Note_off_c, 0, 61, 64
1, 124826, Note_on_c, 0, 64, 72
1, 124828, Control_c, 0, 64, 62
1, 124836, Note_off_c, 0, 73, 62
1, 124837, Note_on_c, 0, 76, 75
1, 124850, Control_c, 0, 64, 64
1, 124865, Control_c, 0, 64, 66
1, 124872, Note_off_c, 0, 64, 60
1, 124880, Control_c, 0, 64, 67
1, 124895, Control_c, 0, 64, 68
1, 124910, Control_c, 0, 64, 69
1, 124910, Note_off_c, 0, 76, 62
1, 124922, Note_on_c, 0, 67, 57
1, 124934, Note_on_c, 0, 79, 62
1, 124939, Control_c, 0, 64, 68
1, 124951, Note_off_c, 0, 67, 53
1, 124954, Control_c, 0, 64, 64
1, 124959, Note_off_c, 0, 79, 66
1, 124969, Control_c, 0, 64, 52
1, 124984, Control_c, 0, 64, 0
1, 124997, Note_on_c, 0, 62, 77
1, 124997, Note_on_c, 0, 74, 80
1, 125053, Note_off_c, 0, 74, 56
1, 125057, Control_c, 0, 64, 34
1, 125069, Note_on_c, 0, 79, 67
1, 125072, Control_c, 0, 64, 49
1, 125074, Note_off_c, 0, 62, 62
1, 125087, Control_c, 0, 64, 55
1, 125092, Note_on_c, 0, 67, 56
1, 125102, Control_c, 0, 64, 58
1, 125118, Control_c, 0, 64, 60
1, 125129, Note_off_c, 0, 79, 61
1, 125133, Control_c, 0, 64, 61
1, 125138, Note_off_c, 0, 67, 60
1, 125141, Note_on_c, 0, 82, 78
1, 125147, Control_c, 0, 67, 126
1, 125162, Note_on_c, 0, 70, 65
1, 125162, Control_c, 0, 67, 124
1, 125177, Control_c, 0, 64, 60
1, 125177, Control_c, 0, 67, 124
1, 125189, Note_off_c, 0, 70, 66
1, 125192, Control_c, 0, 64, 54
1, 125192, Control_c, 0, 67, 123
1, 125203, Note_off_c, 0, 82, 62
1, 125207, Control_c, 0, 64, 39
1, 125207, Control_c, 0, 67, 123
1, 125221, Control_c, 0, 64, 13
1, 125226, Note_on_c, 0, 86, 74
1, 125236, Control_c, 0, 64, 0
1, 125236, Control_c, 0, 67, 123
1, 125238, Note_on_c, 0, 74, 64
1, 125280, Note_off_c, 0, 74, 51
1, 125280, Control_c, 0, 67, 124
1, 125287, Note_on_c, 0, 82, 74
1, 125289, Note_on_c, 0, 70, 58
1, 125295, Control_c, 0, 67, 124
1, 125297, Note_off_c, 0, 86, 57
1, 125310, Control_c, 0, 67, 125
1, 125325, Control_c, 0, 67, 126
1, 125354, Control_c, 0, 67, 126
1, 125359, Note_off_c, 0, 70, 62
1, 125367, Note_on_c, 0, 79, 72
1, 125378, Note_on_c, 0, 67, 64
1, 125390, Note_off_c, 0, 82, 55
1, 125399, Control_c, 0, 67, 126
1, 125414, Control_c, 0, 64, 14
1, 125414, Control_c, 0, 67, 125
1, 125414, Note_off_c, 0, 79, 62
1, 125415, Note_off_c, 0, 67, 61
1, 125429, Control_c, 0, 64, 36
1, 125429, Control_c, 0, 67, 125
1, 125430, Note_on_c, 0, 74, 82
1, 125444, Control_c, 0, 64, 50
1, 125444, Control_c, 0, 67, 124
1, 125452, Note_on_c, 0, 62, 66
1, 125459, Control_c, 0, 64, 57
1, 125459, Control_c, 0, 67, 123
1, 125468, Note_off_c, 0, 74, 63
1, 125473, Control_c, 0, 64, 59
1, 125473, Control_c, 0, 67, 122
1, 125488, Control_c, 0, 64, 60
1, 125488, Control_c, 0, 67, 121
1, 125503, Control_c, 0, 64, 61
1, 125503, Control_c, 0, 67, 120
1, 125509, Note_off_c, 0, 62, 63
1, 125510, Note_on_c, 0, 79, 71
1, 125518, Control_c, 0, 64, 62
1, 125518, Control_c, 0, 67, 119
1, 125523, Note_on_c, 0, 67, 64
1, 125533, Control_c, 0, 67, 117
1, 125547, Control_c, 0, 64, 63
1, 125547, Control_c, 0, 67, 115
1, 125558, Note_off_c, 0, 79, 61
1, 125562, Control_c, 0, 67, 114
1, 125572, Note_on_c, 0, 82, 77
1, 125577, Control_c, 0, 67, 113
1, 125581, Note_off_c, 0, 67, 54
1, 125599, Control_c, 0, 64, 62
1, 125610, Note_on_c, 0, 70, 69
1, 125614, Control_c, 0, 64, 60
1, 125629, Control_c, 0, 64, 52
1, 125638, Note_off_c, 0, 70, 63
1, 125644, Control_c, 0, 64, 30
1, 125652, Note_off_c, 0, 82, 60
1, 125658, Control_c, 0, 64, 0
1, 125658, Control_c, 0, 67, 113
1, 125667, Note_on_c, 0, 86, 83
1, 125673, Control_c, 0, 67, 114
1, 125676, Note_on_c, 0, 74, 72
1, 125688, Control_c, 0, 67, 115
1, 125703, Control_c, 0, 67, 116
1, 125718, Control_c, 0, 67, 118
1, 125730, Note_on_c, 0, 82, 73
1, 125731, Note_off_c, 0, 74, 52
1, 125733, Control_c, 0, 67, 119
1, 125739, Note_on_c, 0, 70, 61
1, 125748, Control_c, 0, 67, 120
1, 125762, Control_c, 0, 67, 120
1, 125763, Note_off_c, 0, 86, 59
1, 125777, Control_c, 0, 67, 121
1, 125781, Note_off_c, 0, 70, 64
1, 125799, Note_on_c, 0, 67, 63
1, 125803, Note_on_c, 0, 79, 69
1, 125828, Note_off_c, 0, 82, 62
1, 125841, Note_off_c, 0, 67, 64
1, 125851, Control_c, 0, 67, 120
1, 125855, Note_off_c, 0, 79, 61
1, 125865, Control_c, 0, 67, 120
1, 125877, Note_on_c, 0, 62, 68
1, 125878, Note_on_c, 0, 74, 78
1, 125880, Control_c, 0, 64, 29
1, 125880, Control_c, 0, 67, 119
1, 125895, Control_c, 0, 64, 47
1, 125895, Control_c, 0, 67, 118
1, 125910, Control_c, 0, 64, 55
1, 125910, Control_c, 0, 67, 117
1, 125914, Note_off_c, 0, 74, 59
1, 125926, Control_c, 0, 64, 61
1, 125931, Note_off_c, 0, 62, 62
1, 125941, Control_c, 0, 64, 63
1, 125948, Note_on_c, 0, 66, 69
1, 125956, Note_on_c, 0, 78, 69
1, 125956, Control_c, 0, 64, 65
1, 125956, Control_c, 0, 67, 117
1, 125970, Control_c, 0, 64, 67
1, 125985, Control_c, 0, 64, 69
1, 125995, Note_off_c, 0, 66, 59
1, 126000, Control_c, 0, 64, 72
1, 126000, Control_c, 0, 67, 116
1, 126004, Note_off_c, 0, 78, 62
1, 126014, Control_c, 0, 64, 75
1, 126018, Note_on_c, 0, 81, 80
1, 126020, Note_on_c, 0, 69, 66
1, 126029, Control_c, 0, 64, 77
1, 126044, Control_c, 0, 64, 78
1, 126059, Note_off_c, 0, 69, 61
1, 126071, Note_off_c, 0, 81, 61
1, 126074, Control_c, 0, 64, 75
1, 126074, Control_c, 0, 67, 117
1, 126088, Control_c, 0, 64, 63
1, 126099, Note_on_c, 0, 84, 72
1, 126103, Note_on_c, 0, 72, 70
1, 126103, Control_c, 0, 64, 29
1, 126118, Control_c, 0, 64, 0
1, 126133, Control_c, 0, 67, 117
1, 126148, Control_c, 0, 67, 118
1, 126149, Note_off_c, 0, 72, 60
1, 126162, Note_on_c, 0, 81, 80
1, 126162, Control_c, 0, 67, 119
1, 126171, Note_on_c, 0, 69, 68
1, 126174, Note_off_c, 0, 84, 61
1, 126177, Control_c, 0, 67, 121
1, 126192, Control_c, 0, 67, 122
1, 126207, Control_c, 0, 67, 123
1, 126222, Control_c, 0, 67, 124
1, 126231, Note_on_c, 0, 78, 79
1, 126231, Note_off_c, 0, 81, 63
1, 126232, Note_off_c, 0, 69, 64
1, 126237, Control_c, 0, 67, 125
1, 126248, Note_on_c, 0, 66, 71
1, 126252, Control_c, 0, 67, 126
1, 126267, Control_c, 0, 67, 126
1, 126281, Control_c, 0, 67, 127
1, 126283, Note_off_c, 0, 78, 63
1, 126293, Note_off_c, 0, 66, 64
1, 126310, Note_on_c, 0, 62, 69
1, 126310, Note_on_c, 0, 74, 78
1, 126363, Control_c, 0, 64, 29
1, 126376, Note_on_c, 0, 66, 72
1, 126377, Note_off_c, 0, 74, 59
1, 126377, Control_c, 0, 64, 38
1, 126381, Note_on_c, 0, 78, 76
1, 126381, Note_off_c, 0, 62, 64
1, 126392, Control_c, 0, 64, 48
1, 126407, Control_c, 0, 64, 53
1, 126422, Control_c, 0, 64, 56
1, 126422, Control_c, 0, 67, 126
1, 126436, Note_off_c, 0, 66, 64
1, 126436, Control_c, 0, 64, 58
1, 126439, Note_on_c, 0, 69, 74
1, 126442, Note_on_c, 0, 81, 80
1, 126445, Note_off_c, 0, 78, 63
1, 126451, Control_c, 0, 64, 59
1, 126451, Control_c, 0, 67, 126
1, 126466, Control_c, 0, 64, 60
1, 126478, Note_off_c, 0, 69, 65
1, 126481, Control_c, 0, 64, 61
1, 126509, Note_on_c, 0, 72, 72
1, 126511, Control_c, 0, 67, 126
1, 126517, Note_off_c, 0, 81, 63
1, 126532, Note_on_c, 0, 84, 75
1, 126537, Note_off_c, 0, 72, 63
1, 126540, Control_c, 0, 67, 127
1, 126555, Control_c, 0, 67, 127
1, 126585, Control_c, 0, 64, 59
1, 126588, Note_on_c, 0, 69, 63
1, 126597, Note_on_c, 0, 81, 73
1, 126600, Control_c, 0, 64, 55
1, 126606, Note_off_c, 0, 69, 65
1, 126614, Control_c, 0, 64, 47
1, 126615, Note_off_c, 0, 84, 58
1, 126629, Control_c, 0, 64, 35
1, 126631, Note_on_c, 0, 66, 77
1, 126644, Control_c, 0, 64, 24
1, 126655, Note_off_c, 0, 81, 63
1, 126659, Control_c, 0, 64, 13
1, 126666, Note_on_c, 0, 78, 73
1, 126674, Control_c, 0, 64, 0
1, 126711, Note_on_c, 0, 67, 80
1, 126721, Note_off_c, 0, 78, 59
1, 126743, Note_on_c, 0, 79, 69
1, 126744, Note_off_c, 0, 66, 38
1, 126807, Note_off_c, 0, 79, 59
1, 126814, Note_on_c, 0, 82, 71
1, 126881, Note_on_c, 0, 81, 77
1, 126885, Note_off_c, 0, 82, 63
1, 126931, Note_off_c, 0, 81, 62
1, 126950, Note_on_c, 0, 79, 75
1, 126991, Note_off_c, 0, 79, 64
1, 127024, Note_on_c, 0, 77, 75
1, 127030, Note_off_c, 0, 67, 62
1, 127099, Note_on_c, 0, 75, 78
1, 127119, Note_off_c, 0, 77, 62
1, 127163, Note_off_c, 0, 75, 66
1, 127167, Note_on_c, 0, 74, 86
1, 127209, Note_off_c, 0, 74, 64
1, 127235, Note_on_c, 0, 72, 77
1, 127279, Note_off_c, 0, 72, 63
1, 127309, Note_on_c, 0, 70, 76
1, 127369, Note_off_c, 0, 70, 63
1, 127369, Note_on_c, 0, 69, 82
1, 127408, Note_off_c, 0, 69, 62
1, 127437, Control_c, 0, 64, 9
1, 127444, Note_on_c, 0, 67, 71
1, 127451, Control_c, 0, 64, 11
1, 127466, Control_c, 0, 64, 10
1, 127474, Note_off_c, 0, 67, 61
1, 127512, Control_c, 0, 64, 9
1, 127521, Note_on_c, 0, 65, 65
1, 127527, Control_c, 0, 64, 0
1, 127583, Note_off_c, 0, 65, 60
1, 127608, Note_on_c, 0, 63, 60
1, 127644, Note_on_c, 0, 51, 69
1, 127646, Control_c, 0, 64, 8
1, 127656, Note_on_c, 0, 39, 54
1, 127660, Control_c, 0, 64, 12
1, 127674, Note_off_c, 0, 63, 60
1, 127675, Control_c, 0, 64, 17
1, 127690, Control_c, 0, 64, 24
1, 127693, Note_on_c, 0, 67, 58
1, 127705, Control_c, 0, 64, 31
1, 127720, Control_c, 0, 64, 39
1, 127734, Control_c, 0, 64, 46
1, 127749, Control_c, 0, 64, 52
1, 127764, Control_c, 0, 64, 55
1, 127779, Control_c, 0, 64, 58
1, 127787, Note_off_c, 0, 67, 61
1, 127793, Control_c, 0, 64, 61
1, 127793, Control_c, 0, 67, 126
1, 127806, Note_on_c, 0, 70, 62
1, 127808, Control_c, 0, 64, 64
1, 127808, Control_c, 0, 67, 124
1, 127823, Control_c, 0, 64, 67
1, 127823, Control_c, 0, 67, 121
1, 127846, Control_c, 0, 64, 72
1, 127846, Control_c, 0, 67, 118
1, 127861, Control_c, 0, 64, 79
1, 127861, Control_c, 0, 67, 116
1, 127875, Control_c, 0, 64, 86
1, 127875, Control_c, 0, 67, 114
1, 127890, Control_c, 0, 64, 93
1, 127890, Control_c, 0, 67, 111
1, 127896, Note_off_c, 0, 70, 61
1, 127897, Note_on_c, 0, 63, 58
1, 127905, Control_c, 0, 64, 99
1, 127905, Control_c, 0, 67, 108
1, 127920, Control_c, 0, 64, 107
1, 127920, Control_c, 0, 67, 106
1, 127935, Control_c, 0, 64, 116
1, 127935, Control_c, 0, 67, 104
1, 127945, Note_off_c, 0, 63, 59
1, 127949, Control_c, 0, 64, 127
1, 127949, Control_c, 0, 67, 101
1, 127963, Note_on_c, 0, 67, 73
1, 127964, Control_c, 0, 67, 99
1, 127976, Note_off_c, 0, 51, 60
1, 127979, Control_c, 0, 67, 96
1, 127993, Control_c, 0, 67, 94
1, 128008, Control_c, 0, 67, 92
1, 128023, Control_c, 0, 67, 91
1, 128029, Note_on_c, 0, 70, 78
1, 128031, Note_off_c, 0, 67, 60
1, 128038, Control_c, 0, 67, 90
1, 128053, Control_c, 0, 64, 117
1, 128053, Control_c, 0, 67, 89
1, 128067, Control_c, 0, 64, 98
1, 128067, Control_c, 0, 67, 88
1, 128082, Control_c, 0, 64, 83
1, 128082, Control_c, 0, 67, 87
1, 128097, Control_c, 0, 64, 70
1, 128097, Control_c, 0, 67, 85
1, 128103, Note_on_c, 0, 62, 75
1, 128103, Note_on_c, 0, 50, 86
1, 128112, Control_c, 0, 64, 60
1, 128112, Control_c, 0, 67, 84
1, 128114, Note_on_c, 0, 38, 74
1, 128119, Note_off_c, 0, 39, 0
1, 128126, Note_off_c, 0, 70, 55
1, 128127, Control_c, 0, 64, 52
1, 128127, Control_c, 0, 67, 83
1, 128142, Control_c, 0, 64, 45
1, 128142, Control_c, 0, 67, 82
1, 128156, Control_c, 0, 64, 33
1, 128156, Control_c, 0, 67, 80
1, 128164, Poly_aftertouch_c, 0, 39, 0
1, 128171, Control_c, 0, 64, 0
1, 128171, Control_c, 0, 67, 80
1, 128183, Note_off_c, 0, 62, 59
1, 128186, Control_c, 0, 67, 78
1, 128201, Control_c, 0, 67, 77
1, 128208, Note_on_c, 0, 67, 69
1, 128216, Control_c, 0, 67, 74
1, 128231, Control_c, 0, 67, 72
1, 128246, Control_c, 0, 64, 33
1, 128246, Control_c, 0, 67, 68
1, 128260, Control_c, 0, 64, 48
1, 128260, Control_c, 0, 67, 64
1, 128271, Note_on_c, 0, 70, 73
1, 128275, Control_c, 0, 64, 56
1, 128275, Control_c, 0, 67, 58
1, 128276, Note_off_c, 0, 67, 63
1, 128290, Control_c, 0, 64, 60
1, 128290, Control_c, 0, 67, 48
1, 128305, Control_c, 0, 64, 63
1, 128305, Control_c, 0, 67, 37
1, 128320, Control_c, 0, 64, 65
1, 128320, Control_c, 0, 67, 24
1, 128335, Control_c, 0, 64, 67
1, 128335, Control_c, 0, 67, 9
1, 128350, Note_on_c, 0, 62, 73
1, 128350, Control_c, 0, 64, 70
1, 128350, Control_c, 0, 67, 0
1, 128352, Note_off_c, 0, 50, 62
1, 128365, Control_c, 0, 64, 73
1, 128377, Note_off_c, 0, 38, 63
1, 128380, Control_c, 0, 64, 75
1, 128389, Note_off_c, 0, 70, 59
1, 128395, Control_c, 0, 64, 77
1, 128409, Control_c, 0, 64, 80
1, 128414, Note_on_c, 0, 67, 74
1, 128417, Note_off_c, 0, 62, 63
1, 128424, Control_c, 0, 64, 81
1, 128439, Control_c, 0, 64, 83
1, 128454, Control_c, 0, 64, 84
1, 128469, Control_c, 0, 64, 85
1, 128483, Control_c, 0, 64, 86
1, 128498, Control_c, 0, 64, 87
1, 128500, Note_off_c, 0, 67, 59
1, 128505, Note_on_c, 0, 70, 73
1, 128542, Control_c, 0, 64, 86
1, 128557, Control_c, 0, 64, 74
1, 128572, Control_c, 0, 64, 61
1, 128576, Note_on_c, 0, 49, 81
1, 128577, Note_on_c, 0, 61, 78
1, 128579, Note_on_c, 0, 37, 71
1, 128595, Control_c, 0, 64, 36
1, 128610, Control_c, 0, 64, 0
1, 128636, Note_off_c, 0, 70, 56
1, 128667, Note_on_c, 0, 67, 63
1, 128670, Note_off_c, 0, 61, 40
1, 128743, Note_off_c, 0, 67, 63
1, 128753, Note_on_c, 0, 70, 71
1, 128822, Note_on_c, 0, 61, 76
1, 128872, Note_off_c, 0, 70, 58
1, 128896, Note_on_c, 0, 67, 70
1, 128900, Note_off_c, 0, 61, 61
1, 128975, Note_off_c, 0, 67, 63
1, 128984, Note_on_c, 0, 70, 70
1, 129052, Note_on_c, 0, 61, 76
1, 129083, Note_off_c, 0, 70, 60
1, 129113, Control_c, 0, 64, 12
1, 129125, Note_on_c, 0, 67, 65
1, 129128, Control_c, 0, 64, 25
1, 129137, Note_off_c, 0, 61, 61
1, 129143, Control_c, 0, 64, 32
1, 129158, Control_c, 0, 64, 36
1, 129173, Control_c, 0, 64, 42
1, 129188, Control_c, 0, 64, 47
1, 129200, Note_on_c, 0, 70, 73
1, 129201, Note_off_c, 0, 67, 63
1, 129203, Control_c, 0, 64, 51
1, 129218, Control_c, 0, 64, 53
1, 129232, Control_c, 0, 64, 56
1, 129247, Control_c, 0, 64, 59
1, 129262, Control_c, 0, 64, 61
1, 129269, Note_on_c, 0, 61, 75
1, 129277, Control_c, 0, 64, 64
1, 129292, Control_c, 0, 64, 67
1, 129306, Control_c, 0, 64, 71
1, 129307, Note_off_c, 0, 70, 61
1, 129321, Control_c, 0, 64, 75
1, 129343, Control_c, 0, 64, 78
1, 129349, Note_on_c, 0, 67, 69
1, 129358, Note_off_c, 0, 61, 64
1, 129358, Control_c, 0, 64, 81
1, 129368, Note_off_c, 0, 49, 57
1, 129373, Control_c, 0, 64, 83
1, 129388, Control_c, 0, 64, 84
1, 129389, Note_off_c, 0, 37, 61
1, 129435, Note_on_c, 0, 70, 77
1, 129445, Note_off_c, 0, 67, 58
1, 129477, Control_c, 0, 64, 82
1, 129492, Control_c, 0, 64, 77
1, 129492, Control_c, 0, 67, 9
1, 129507, Control_c, 0, 64, 69
1, 129507, Control_c, 0, 67, 11
1, 129512, Note_on_c, 0, 62, 79
1, 129521, Control_c, 0, 64, 61
1, 129521, Control_c, 0, 67, 13
1, 129531, Note_off_c, 0, 70, 59
1, 129536, Control_c, 0, 64, 50
1, 129536, Control_c, 0, 67, 17
1, 129543, Note_on_c, 0, 50, 83
1, 129551, Control_c, 0, 64, 39
1, 129551, Control_c, 0, 67, 19
1, 129554, Note_on_c, 0, 38, 70
1, 129565, Control_c, 0, 64, 27
1, 129565, Control_c, 0, 67, 22
1, 129578, Note_on_c, 0, 67, 75
1, 129580, Control_c, 0, 64, 0
1, 129580, Control_c, 0, 67, 23
1, 129595, Control_c, 0, 67, 25
1, 129604, Note_off_c, 0, 62, 61
1, 129610, Control_c, 0, 67, 27
1, 129625, Control_c, 0, 67, 29
1, 129639, Control_c, 0, 67, 32
1, 129654, Control_c, 0, 67, 36
1, 129664, Note_on_c, 0, 70, 76
1, 129669, Control_c, 0, 67, 39
1, 129683, Note_off_c, 0, 67, 63
1, 129684, Control_c, 0, 67, 43
1, 129699, Control_c, 0, 67, 46
1, 129713, Control_c, 0, 67, 48
1, 129728, Control_c, 0, 67, 50
1, 129739, Note_on_c, 0, 74, 83
1, 129743, Control_c, 0, 67, 51
1, 129754, Note_off_c, 0, 70, 62
1, 129757, Control_c, 0, 67, 53
1, 129772, Control_c, 0, 67, 54
1, 129787, Control_c, 0, 67, 55
1, 129802, Control_c, 0, 67, 56
1, 129817, Control_c, 0, 67, 57
1, 129820, Note_on_c, 0, 70, 82
1, 129832, Control_c, 0, 67, 58
1, 129847, Control_c, 0, 67, 59
1, 129862, Control_c, 0, 67, 60
1, 129873, Note_off_c, 0, 74, 59
1, 129876, Control_c, 0, 67, 61
1, 129891, Control_c, 0, 67, 63
1, 129892, Note_on_c, 0, 67, 79
1, 129907, Control_c, 0, 67, 66
1, 129922, Control_c, 0, 67, 69
1, 129927, Note_off_c, 0, 70, 63
1, 129936, Control_c, 0, 67, 72
1, 129951, Control_c, 0, 67, 75
1, 129966, Control_c, 0, 67, 79
1, 129968, Note_on_c, 0, 62, 85
1, 129973, Note_off_c, 0, 67, 63
1, 129981, Control_c, 0, 67, 84
1, 129996, Control_c, 0, 67, 93
1, 130011, Control_c, 0, 67, 103
1, 130020, Note_off_c, 0, 62, 67
1, 130025, Control_c, 0, 67, 113
1, 130027, Note_off_c, 0, 50, 63
1, 130033, Note_off_c, 0, 38, 62
1, 130040, Control_c, 0, 67, 123
1, 130055, Control_c, 0, 67, 127
1, 130249, Note_on_c, 0, 66, 73
1, 130251, Note_on_c, 0, 60, 62
1, 130292, Note_off_c, 0, 60, 58
1, 130338, Note_off_c, 0, 66, 63
1, 130541, Note_on_c, 0, 43, 48
1, 130550, Note_on_c, 0, 31, 45
1, 130625, Control_c, 0, 64, 27
1, 130640, Control_c, 0, 64, 43
1, 130654, Control_c, 0, 64, 53
1, 130669, Control_c, 0, 64, 58
1, 130684, Control_c, 0, 64, 62
1, 130699, Control_c, 0, 64, 65
1, 130715, Control_c, 0, 64, 68
1, 130720, Note_off_c, 0, 31, 63
1, 130726, Note_off_c, 0, 43, 60
1, 130729, Control_c, 0, 64, 71
1, 130744, Control_c, 0, 64, 75
1, 130759, Control_c, 0, 64, 78
1, 130774, Control_c, 0, 64, 81
1, 130789, Control_c, 0, 64, 84
1, 130803, Control_c, 0, 64, 86
1, 130818, Control_c, 0, 64, 87
1, 130885, Control_c, 0, 64, 87
1, 130930, Control_c, 0, 64, 87
1, 130944, Control_c, 0, 64, 86
1, 130959, Control_c, 0, 64, 85
1, 130974, Control_c, 0, 64, 85
1, 130989, Control_c, 0, 64, 84
1, 131004, Control_c, 0, 64, 83
1, 131018, Control_c, 0, 64, 80
1, 131033, Control_c, 0, 64, 75
1, 131048, Control_c, 0, 64, 70
1, 131063, Control_c, 0, 64, 65
1, 131078, Control_c, 0, 64, 62
1, 131081, Note_on_c, 0, 79, 55
1, 131093, Control_c, 0, 64, 60
1, 131108, Control_c, 0, 64, 56
1, 131122, Control_c, 0, 64, 51
1, 131137, Control_c, 0, 64, 45
1, 131152, Control_c, 0, 64, 44
1, 131167, Control_c, 0, 64, 50
1, 131182, Control_c, 0, 64, 58
1, 131194, Note_off_c, 0, 79, 57
1, 131197, Control_c, 0, 64, 61
1, 131203, Note_on_c, 0, 78, 57
1, 131211, Control_c, 0, 64, 63
1, 131226, Control_c, 0, 64, 65
1, 131241, Control_c, 0, 64, 67
1, 131256, Control_c, 0, 64, 68
1, 131271, Control_c, 0, 64, 68
1, 131285, Control_c, 0, 64, 68
1, 131297, Note_off_c, 0, 78, 36
1, 131300, Control_c, 0, 64, 66
1, 131315, Control_c, 0, 64, 62
1, 131328, Note_on_c, 0, 81, 74
1, 131329, Control_c, 0, 64, 58
1, 131344, Control_c, 0, 64, 53
1, 131359, Control_c, 0, 64, 46
1, 131374, Control_c, 0, 64, 40
1, 131389, Control_c, 0, 64, 35
1, 131418, Control_c, 0, 64, 40
1, 131433, Control_c, 0, 64, 48
1, 131435, Note_off_c, 0, 81, 58
1, 131437, Note_on_c, 0, 79, 66
1, 131448, Control_c, 0, 64, 55
1, 131462, Control_c, 0, 64, 58
1, 131477, Control_c, 0, 64, 59
1, 131567, Control_c, 0, 64, 58
1, 131572, Note_on_c, 0, 82, 75
1, 131590, Control_c, 0, 64, 57
1, 131605, Control_c, 0, 64, 57
1, 131608, Note_off_c, 0, 79, 56
1, 131620, Control_c, 0, 64, 55
1, 131634, Control_c, 0, 64, 53
1, 131649, Control_c, 0, 64, 52
1, 131664, Control_c, 0, 64, 51
1, 131679, Control_c, 0, 64, 51
1, 131693, Note_on_c, 0, 81, 75
1, 131708, Control_c, 0, 64, 50
1, 131723, Control_c, 0, 64, 48
1, 131738, Control_c, 0, 64, 47
1, 131744, Note_off_c, 0, 82, 60
1, 131753, Control_c, 0, 64, 45
1, 131767, Control_c, 0, 64, 44
1, 131782, Control_c, 0, 64, 43
1, 131797, Control_c, 0, 64, 42
1, 131810, Note_on_c, 0, 79, 74
1, 131812, Control_c, 0, 64, 41
1, 131815, Note_off_c, 0, 81, 63
1, 131827, Control_c, 0, 64, 39
1, 131841, Control_c, 0, 64, 36
1, 131856, Control_c, 0, 64, 33
1, 131871, Control_c, 0, 64, 30
1, 131886, Control_c, 0, 64, 28
1, 131918, Note_on_c, 0, 77, 70
1, 131924, Note_off_c, 0, 79, 58
1, 131930, Control_c, 0, 64, 27
1, 131945, Control_c, 0, 64, 25
1, 131960, Control_c, 0, 64, 22
1, 131975, Control_c, 0, 64, 18
1, 131990, Control_c, 0, 64, 16
1, 132005, Control_c, 0, 64, 14
1, 132020, Control_c, 0, 64, 11
1, 132034, Control_c, 0, 64, 0
1, 132062, Note_on_c, 0, 75, 67
1, 132118, Note_off_c, 0, 77, 57
1, 132342, Note_on_c, 0, 74, 62
1, 132345, Note_off_c, 0, 75, 37
1, 132383, Control_c, 0, 64, 21
1, 132398, Control_c, 0, 64, 39
1, 132413, Control_c, 0, 64, 49
1, 132428, Control_c, 0, 64, 54
1, 132443, Control_c, 0, 64, 56
1, 132457, Control_c, 0, 64, 58
1, 132472, Control_c, 0, 64, 59
1, 132480, Note_off_c, 0, 74, 60
1, 132487, Control_c, 0, 64, 60
1, 132502, Control_c, 0, 64, 61
1, 132516, Control_c, 0, 64, 61
1, 132605, Control_c, 0, 64, 61
1, 132620, Control_c, 0, 64, 60
1, 132634, Note_on_c, 0, 74, 57
1, 132635, Control_c, 0, 64, 58
1, 132635, Control_c, 0, 67, 126
1, 132650, Control_c, 0, 64, 55
1, 132650, Control_c, 0, 67, 123
1, 132664, Control_c, 0, 64, 53
1, 132664, Control_c, 0, 67, 120
1, 132679, Control_c, 0, 64, 51
1, 132679, Control_c, 0, 67, 116
1, 132694, Control_c, 0, 64, 50
1, 132694, Control_c, 0, 67, 112
1, 132708, Control_c, 0, 64, 48
1, 132708, Control_c, 0, 67, 108
1, 132723, Control_c, 0, 64, 47
1, 132723, Control_c, 0, 67, 105
1, 132738, Control_c, 0, 64, 46
1, 132738, Control_c, 0, 67, 101
1, 132753, Control_c, 0, 64, 45
1, 132753, Control_c, 0, 67, 97
1, 132768, Control_c, 0, 64, 45
1, 132768, Control_c, 0, 67, 94
1, 132783, Control_c, 0, 64, 44
1, 132783, Control_c, 0, 67, 90
1, 132798, Control_c, 0, 67, 86
1, 132813, Control_c, 0, 67, 82
1, 132828, Control_c, 0, 67, 80
1, 132842, Control_c, 0, 64, 44
1, 132842, Control_c, 0, 67, 79
1, 132857, Control_c, 0, 67, 77
1, 132872, Control_c, 0, 64, 43
1, 132872, Control_c, 0, 67, 76
1, 132887, Control_c, 0, 64, 42
1, 132887, Control_c, 0, 67, 75
1, 132901, Control_c, 0, 64, 42
1, 132901, Control_c, 0, 67, 74
1, 132931, Control_c, 0, 67, 73
1, 132961, Control_c, 0, 64, 41
1, 132976, Control_c, 0, 64, 41
1, 132990, Control_c, 0, 64, 40
1, 133005, Control_c, 0, 64, 39
1, 133020, Control_c, 0, 64, 37
1, 133020, Control_c, 0, 67, 73
1, 133034, Control_c, 0, 64, 35
1, 133049, Control_c, 0, 64, 34
1, 133064, Control_c, 0, 64, 33
1, 133087, Control_c, 0, 64, 32
1, 133102, Control_c, 0, 64, 31
1, 133117, Control_c, 0, 64, 31
1, 133146, Control_c, 0, 64, 29
1, 133155, Note_on_c, 0, 73, 76
1, 133161, Control_c, 0, 64, 26
1, 133176, Control_c, 0, 64, 21
1, 133191, Control_c, 0, 64, 13
1, 133194, Note_on_c, 0, 67, 68
1, 133198, Note_on_c, 0, 64, 57
1, 133206, Control_c, 0, 64, 0
1, 133221, Control_c, 0, 67, 72
1, 133227, Note_on_c, 0, 57, 51
1, 133243, Note_off_c, 0, 74, 36
1, 133266, Control_c, 0, 64, 13
1, 133280, Control_c, 0, 64, 24
1, 133295, Control_c, 0, 64, 36
1, 133295, Control_c, 0, 67, 72
1, 133304, Note_off_c, 0, 73, 63
1, 133310, Control_c, 0, 64, 47
1, 133310, Control_c, 0, 67, 71
1, 133311, Note_on_c, 0, 69, 73
1, 133325, Control_c, 0, 64, 54
1, 133325, Control_c, 0, 67, 71
1, 133339, Note_off_c, 0, 69, 67
1, 133339, Control_c, 0, 64, 58
1, 133339, Control_c, 0, 67, 69
1, 133354, Control_c, 0, 64, 60
1, 133354, Control_c, 0, 67, 67
1, 133369, Control_c, 0, 64, 62
1, 133369, Control_c, 0, 67, 65
1, 133384, Control_c, 0, 64, 63
1, 133384, Control_c, 0, 67, 62
1, 133399, Control_c, 0, 64, 64
1, 133399, Control_c, 0, 67, 60
1, 133413, Control_c, 0, 64, 65
1, 133413, Control_c, 0, 67, 58
1, 133428, Control_c, 0, 64, 65
1, 133428, Control_c, 0, 67, 57
1, 133443, Control_c, 0, 67, 56
1, 133445, Note_off_c, 0, 67, 61
1, 133464, Note_off_c, 0, 57, 57
1, 133465, Note_on_c, 0, 70, 68
1, 133465, Note_off_c, 0, 64, 64
1, 133472, Control_c, 0, 67, 56
1, 133487, Control_c, 0, 67, 55
1, 133503, Note_on_c, 0, 69, 67
1, 133520, Note_off_c, 0, 70, 50
1, 133537, Note_off_c, 0, 69, 65
1, 133555, Note_on_c, 0, 68, 68
1, 133576, Note_off_c, 0, 68, 67
1, 133576, Control_c, 0, 64, 64
1, 133591, Control_c, 0, 64, 61
1, 133599, Note_on_c, 0, 69, 65
1, 133606, Control_c, 0, 64, 57
1, 133620, Control_c, 0, 64, 52
1, 133635, Control_c, 0, 64, 44
1, 133650, Control_c, 0, 64, 28
1, 133659, Note_on_c, 0, 74, 85
1, 133659, Note_off_c, 0, 69, 56
1, 133665, Control_c, 0, 64, 0
1, 133679, Note_on_c, 0, 65, 65
1, 133688, Note_on_c, 0, 62, 56
1, 133689, Note_on_c, 0, 57, 54
1, 133769, Control_c, 0, 64, 24
1, 133784, Control_c, 0, 64, 44
1, 133799, Control_c, 0, 64, 53
1, 133804, Note_off_c, 0, 74, 65
1, 133813, Control_c, 0, 64, 57
1, 133813, Control_c, 0, 67, 55
1, 133815, Note_on_c, 0, 69, 72
1, 133835, Control_c, 0, 64, 59
1, 133850, Note_off_c, 0, 69, 67
1, 133850, Control_c, 0, 64, 62
1, 133850, Control_c, 0, 67, 54
1, 133865, Control_c, 0, 64, 64
1, 133865, Control_c, 0, 67, 53
1, 133880, Control_c, 0, 64, 65
1, 133880, Control_c, 0, 67, 51
1, 133887, Note_off_c, 0, 65, 63
1, 133895, Control_c, 0, 64, 65
1, 133895, Control_c, 0, 67, 50
1, 133897, Note_off_c, 0, 57, 61
1, 133903, Note_off_c, 0, 62, 65
1, 133910, Control_c, 0, 67, 49
1, 133925, Control_c, 0, 67, 49
1, 133974, Note_on_c, 0, 70, 73
1, 133984, Control_c, 0, 64, 65
1, 133999, Control_c, 0, 64, 63
1, 134014, Control_c, 0, 64, 60
1, 134023, Note_on_c, 0, 69, 64
1, 134029, Control_c, 0, 64, 55
1, 134037, Note_off_c, 0, 70, 58
1, 134044, Control_c, 0, 64, 48
1, 134056, Note_off_c, 0, 69, 65
1, 134059, Control_c, 0, 64, 38
1, 134059, Control_c, 0, 67, 49
1, 134074, Control_c, 0, 64, 26
1, 134081, Note_on_c, 0, 68, 56
1, 134088, Control_c, 0, 64, 0
1, 134088, Control_c, 0, 67, 50
1, 134100, Note_off_c, 0, 68, 64
1, 134103, Control_c, 0, 67, 51
1, 134109, Note_on_c, 0, 69, 68
1, 134118, Control_c, 0, 67, 51
1, 134133, Control_c, 0, 67, 52
1, 134148, Control_c, 0, 67, 52
1, 134162, Control_c, 0, 67, 53
1, 134176, Note_off_c, 0, 69, 58
1, 134177, Control_c, 0, 67, 54
1, 134183, Note_on_c, 0, 76, 87
1, 134192, Control_c, 0, 67, 55
1, 134203, Note_on_c, 0, 67, 60
1, 134204, Note_on_c, 0, 61, 55
1, 134207, Control_c, 0, 67, 57
1, 134216, Note_on_c, 0, 57, 48
1, 134222, Control_c, 0, 67, 58
1, 134236, Control_c, 0, 67, 60
1, 134251, Control_c, 0, 67, 61
1, 134266, Control_c, 0, 67, 65
1, 134281, Control_c, 0, 67, 72
1, 134296, Control_c, 0, 67, 85
1, 134311, Control_c, 0, 67, 98
1, 134324, Note_off_c, 0, 76, 64
1, 134326, Control_c, 0, 67, 112
1, 134331, Note_on_c, 0, 69, 71
1, 134341, Control_c, 0, 67, 124
1, 134355, Control_c, 0, 67, 127
1, 134357, Note_off_c, 0, 69, 68
1, 134482, Note_off_c, 0, 67, 51
1, 134493, Note_on_c, 0, 70, 75
1, 134507, Note_off_c, 0, 61, 59
1, 134548, Note_on_c, 0, 69, 64
1, 134567, Note_off_c, 0, 70, 55
1, 134593, Note_off_c, 0, 69, 64
1, 134613, Note_on_c, 0, 68, 61
1, 134639, Note_off_c, 0, 68, 69
1, 134663, Note_on_c, 0, 69, 54
1, 134751, Note_off_c, 0, 69, 35
1, 134768, Note_on_c, 0, 77, 63
1, 134806, Note_on_c, 0, 65, 36
1, 134813, Note_on_c, 0, 62, 36
1, 134868, Note_off_c, 0, 57, 47
1, 134956, Control_c, 0, 64, 21
1, 134971, Control_c, 0, 64, 41
1, 134986, Control_c, 0, 64, 52
1, 135001, Control_c, 0, 64, 57
1, 135008, Note_off_c, 0, 77, 62
1, 135015, Control_c, 0, 64, 59
1, 135028, Note_off_c, 0, 65, 42
1, 135029, Control_c, 0, 64, 61
1, 135044, Control_c, 0, 64, 62
1, 135045, Note_off_c, 0, 62, 61
1, 135059, Control_c, 0, 64, 62
1, 135148, Control_c, 0, 64, 62
1, 135163, Control_c, 0, 64, 61
1, 135177, Control_c, 0, 64, 59
1, 135192, Control_c, 0, 64, 58
1, 135207, Control_c, 0, 64, 56
1, 135221, Control_c, 0, 64, 54
1, 135236, Control_c, 0, 64, 53
1, 135251, Control_c, 0, 64, 51
1, 135266, Control_c, 0, 64, 49
1, 135281, Control_c, 0, 64, 46
1, 135296, Control_c, 0, 64, 42
1, 135311, Control_c, 0, 64, 36
1, 135333, Control_c, 0, 64, 30
1, 135347, Note_on_c, 0, 77, 44
1, 135348, Control_c, 0, 64, 25
1, 135363, Control_c, 0, 64, 25
1, 135377, Control_c, 0, 64, 26
1, 135392, Control_c, 0, 64, 29
1, 135407, Control_c, 0, 64, 33
1, 135422, Control_c, 0, 64, 39
1, 135436, Control_c, 0, 64, 46
1, 135451, Control_c, 0, 64, 52
1, 135458, Note_off_c, 0, 77, 48
1, 135466, Note_on_c, 0, 76, 49
1, 135466, Control_c, 0, 64, 56
1, 135481, Control_c, 0, 64, 59
1, 135496, Control_c, 0, 64, 60
1, 135512, Control_c, 0, 64, 61
1, 135526, Control_c, 0, 64, 62
1, 135543, Note_off_c, 0, 76, 54
1, 135586, Control_c, 0, 64, 61
1, 135597, Note_on_c, 0, 79, 62
1, 135601, Control_c, 0, 64, 59
1, 135615, Control_c, 0, 64, 56
1, 135630, Control_c, 0, 64, 52
1, 135645, Control_c, 0, 64, 48
1, 135659, Control_c, 0, 64, 46
1, 135674, Control_c, 0, 64, 45
1, 135704, Control_c, 0, 64, 45
1, 135716, Note_on_c, 0, 77, 57
1, 135717, Note_off_c, 0, 79, 57
1, 135719, Control_c, 0, 64, 44
1, 135734, Control_c, 0, 64, 43
1, 135749, Control_c, 0, 64, 41
1, 135764, Control_c, 0, 64, 40
1, 135779, Control_c, 0, 64, 38
1, 135794, Control_c, 0, 64, 37
1, 135808, Control_c, 0, 64, 35
1, 135823, Control_c, 0, 64, 34
1, 135832, Note_off_c, 0, 77, 56
1, 135838, Control_c, 0, 64, 32
1, 135850, Note_on_c, 0, 80, 61
1, 135852, Control_c, 0, 64, 31
1, 135867, Control_c, 0, 64, 29
1, 135882, Control_c, 0, 64, 28
1, 135897, Control_c, 0, 64, 26
1, 135912, Control_c, 0, 64, 25
1, 135926, Control_c, 0, 64, 25
1, 135969, Note_on_c, 0, 79, 60
1, 135986, Control_c, 0, 64, 24
1, 136000, Control_c, 0, 64, 23
1, 136015, Control_c, 0, 64, 22
1, 136030, Control_c, 0, 64, 22
1, 136044, Control_c, 0, 64, 21
1, 136053, Note_off_c, 0, 80, 35
1, 136063, Note_off_c, 0, 79, 61
1, 136082, Control_c, 0, 64, 21
1, 136097, Note_on_c, 0, 77, 63
1, 136126, Control_c, 0, 64, 20
1, 136156, Control_c, 0, 64, 20
1, 136171, Control_c, 0, 64, 19
1, 136200, Control_c, 0, 64, 19
1, 136210, Note_off_c, 0, 77, 61
1, 136221, Note_on_c, 0, 75, 57
1, 136320, Control_c, 0, 64, 18
1, 136335, Control_c, 0, 64, 18
1, 136349, Control_c, 0, 64, 17
1, 136359, Note_on_c, 0, 74, 57
1, 136364, Control_c, 0, 64, 15
1, 136379, Control_c, 0, 64, 13
1, 136394, Control_c, 0, 64, 8
1, 136409, Control_c, 0, 64, 0
1, 136422, Note_off_c, 0, 75, 35
1, 136651, Note_on_c, 0, 72, 54
1, 136695, Note_off_c, 0, 74, 34
1, 136764, Control_c, 0, 64, 19
1, 136779, Control_c, 0, 64, 35
1, 136793, Control_c, 0, 64, 45
1, 136808, Control_c, 0, 64, 51
1, 136815, Note_off_c, 0, 72, 55
1, 136831, Control_c, 0, 64, 53
1, 136846, Control_c, 0, 64, 54
1, 136861, Control_c, 0, 64, 56
1, 136875, Control_c, 0, 64, 57
1, 136890, Control_c, 0, 64, 57
1, 136960, Note_on_c, 0, 72, 54
1, 136979, Control_c, 0, 64, 57
1, 136994, Control_c, 0, 64, 56
1, 137008, Control_c, 0, 64, 54
1, 137023, Control_c, 0, 64, 52
1, 137038, Control_c, 0, 64, 51
1, 137053, Control_c, 0, 64, 50
1, 137068, Control_c, 0, 64, 49
1, 137082, Control_c, 0, 64, 48
1, 137098, Control_c, 0, 64, 47
1, 137113, Control_c, 0, 64, 46
1, 137128, Control_c, 0, 64, 46
1, 137143, Control_c, 0, 64, 44
1, 137158, Control_c, 0, 64, 43
1, 137172, Control_c, 0, 64, 42
1, 137187, Control_c, 0, 64, 41
1, 137202, Control_c, 0, 64, 39
1, 137217, Control_c, 0, 64, 37
1, 137231, Control_c, 0, 64, 35
1, 137246, Control_c, 0, 64, 32
1, 137261, Control_c, 0, 64, 30
1, 137275, Control_c, 0, 64, 26
1, 137290, Control_c, 0, 64, 21
1, 137305, Control_c, 0, 64, 18
1, 137320, Control_c, 0, 64, 16
1, 137335, Control_c, 0, 64, 16
1, 137350, Control_c, 0, 64, 14
1, 137364, Control_c, 0, 64, 13
1, 137379, Control_c, 0, 64, 13
1, 137453, Control_c, 0, 64, 12
1, 137468, Control_c, 0, 64, 9
1, 137483, Control_c, 0, 64, 0
1, 137532, Note_on_c, 0, 71, 52
1, 137561, Note_on_c, 0, 65, 40
1, 137574, Note_on_c, 0, 62, 39
1, 137576, Note_on_c, 0, 55, 37
1, 137579, Control_c, 0, 64, 8
1, 137594, Control_c, 0, 64, 12
1, 137609, Control_c, 0, 64, 19
1, 137624, Control_c, 0, 64, 27
1, 137638, Control_c, 0, 64, 33
1, 137639, Note_off_c, 0, 72, 34
1, 137653, Control_c, 0, 64, 40
1, 137668, Control_c, 0, 64, 46
1, 137683, Control_c, 0, 64, 50
1, 137688, Note_off_c, 0, 71, 62
1, 137698, Control_c, 0, 64, 54
1, 137704, Note_on_c, 0, 67, 46
1, 137712, Control_c, 0, 64, 56
1, 137727, Control_c, 0, 64, 58
1, 137742, Control_c, 0, 64, 59
1, 137743, Note_off_c, 0, 67, 50
1, 137756, Control_c, 0, 64, 60
1, 137757, Note_off_c, 0, 55, 58
1, 137771, Control_c, 0, 64, 61
1, 137784, Note_off_c, 0, 62, 61
1, 137786, Control_c, 0, 64, 62
1, 137801, Control_c, 0, 64, 62
1, 137816, Control_c, 0, 64, 63
1, 137830, Control_c, 0, 64, 63
1, 137845, Control_c, 0, 64, 64
1, 137860, Control_c, 0, 64, 65
1, 137872, Note_on_c, 0, 68, 54
1, 137875, Control_c, 0, 64, 65
1, 137906, Control_c, 0, 64, 66
1, 137920, Control_c, 0, 64, 66
1, 137922, Note_off_c, 0, 68, 54
1, 137927, Note_on_c, 0, 67, 55
1, 137960, Note_off_c, 0, 67, 66
1, 137984, Note_on_c, 0, 66, 51
1, 138008, Note_off_c, 0, 66, 61
1, 138039, Note_on_c, 0, 67, 58
1, 138039, Control_c, 0, 64, 66
1, 138053, Control_c, 0, 64, 65
1, 138068, Control_c, 0, 64, 63
1, 138072, Note_off_c, 0, 67, 52
1, 138083, Control_c, 0, 64, 61
1, 138098, Control_c, 0, 64, 57
1, 138113, Control_c, 0, 64, 53
1, 138123, Note_on_c, 0, 72, 62
1, 138128, Control_c, 0, 64, 49
1, 138133, Note_off_c, 0, 65, 38
1, 138142, Control_c, 0, 64, 44
1, 138146, Note_on_c, 0, 63, 39
1, 138152, Note_on_c, 0, 60, 44
1, 138157, Control_c, 0, 64, 39
1, 138160, Note_on_c, 0, 55, 32
1, 138172, Control_c, 0, 64, 31
1, 138187, Control_c, 0, 64, 18
1, 138202, Control_c, 0, 64, 0
1, 138246, Control_c, 0, 64, 22
1, 138261, Control_c, 0, 64, 32
1, 138273, Note_off_c, 0, 72, 56
1, 138276, Control_c, 0, 64, 41
1, 138284, Note_on_c, 0, 67, 58
1, 138291, Control_c, 0, 64, 48
1, 138306, Control_c, 0, 64, 52
1, 138309, Note_off_c, 0, 67, 65
1, 138311, Note_off_c, 0, 55, 59
1, 138327, Control_c, 0, 64, 54
1, 138342, Control_c, 0, 64, 55
1, 138357, Control_c, 0, 64, 56
1, 138372, Control_c, 0, 64, 56
1, 138465, Note_on_c, 0, 68, 55
1, 138491, Control_c, 0, 64, 56
1, 138506, Control_c, 0, 64, 55
1, 138521, Control_c, 0, 64, 54
1, 138534, Note_on_c, 0, 67, 56
1, 138535, Control_c, 0, 64, 52
1, 138550, Control_c, 0, 64, 50
1, 138565, Control_c, 0, 64, 48
1, 138571, Note_off_c, 0, 67, 64
1, 138579, Control_c, 0, 64, 47
1, 138594, Control_c, 0, 64, 46
1, 138597, Note_off_c, 0, 68, 41
1, 138604, Note_on_c, 0, 66, 51
1, 138609, Control_c, 0, 64, 45
1, 138624, Control_c, 0, 64, 44
1, 138639, Control_c, 0, 64, 43
1, 138642, Note_off_c, 0, 66, 63
1, 138653, Control_c, 0, 64, 42
1, 138668, Control_c, 0, 64, 41
1, 138679, Note_on_c, 0, 67, 57
1, 138683, Control_c, 0, 64, 40
1, 138699, Control_c, 0, 64, 39
1, 138714, Control_c, 0, 64, 37
1, 138729, Control_c, 0, 64, 35
1, 138743, Control_c, 0, 64, 30
1, 138758, Control_c, 0, 64, 26
1, 138773, Control_c, 0, 64, 21
1, 138785, Note_off_c, 0, 67, 34
1, 138788, Control_c, 0, 64, 16
1, 138795, Note_on_c, 0, 74, 56
1, 138802, Control_c, 0, 64, 12
1, 138807, Note_on_c, 0, 59, 30
1, 138811, Note_on_c, 0, 65, 31
1, 138813, Note_on_c, 0, 55, 32
1, 138817, Control_c, 0, 64, 0
1, 138918, Note_off_c, 0, 60, 42
1, 138924, Note_off_c, 0, 63, 50
1, 138977, Note_off_c, 0, 74, 54
1, 138986, Note_on_c, 0, 67, 53
1, 139027, Note_off_c, 0, 67, 60
1, 139201, Note_on_c, 0, 68, 51
1, 139309, Note_on_c, 0, 67, 47
1, 139369, Note_off_c, 0, 68, 28
1, 139372, Note_off_c, 0, 67, 55
1, 139430, Note_on_c, 0, 66, 37
1, 139541, Note_off_c, 0, 65, 34
1, 139570, Note_on_c, 0, 67, 39
1, 139589, Note_off_c, 0, 66, 35
1, 139596, Control_c, 0, 64, 13
1, 139611, Control_c, 0, 64, 25
1, 139625, Control_c, 0, 64, 34
1, 139640, Control_c, 0, 64, 43
1, 139655, Control_c, 0, 64, 51
1, 139670, Control_c, 0, 64, 55
1, 139678, Note_off_c, 0, 67, 62
1, 139685, Control_c, 0, 64, 58
1, 139699, Control_c, 0, 64, 60
1, 139714, Control_c, 0, 64, 62
1, 139729, Control_c, 0, 64, 63
1, 139743, Control_c, 0, 64, 64
1, 139758, Control_c, 0, 64, 66
1, 139773, Control_c, 0, 64, 66
1, 139788, Control_c, 0, 64, 67
1, 139803, Control_c, 0, 64, 68
1, 139988, Control_c, 0, 64, 67
1, 140003, Control_c, 0, 64, 66
1, 140014, Note_off_c, 0, 59, 50
1, 140017, Control_c, 0, 64, 65
1, 140029, Note_off_c, 0, 55, 43
1, 140032, Control_c, 0, 64, 63
1, 140038, Note_on_c, 0, 79, 61
1, 140047, Control_c, 0, 64, 60
1, 140062, Control_c, 0, 64, 57
1, 140073, Note_on_c, 0, 75, 41
1, 140077, Control_c, 0, 64, 54
1, 140092, Control_c, 0, 64, 51
1, 140107, Control_c, 0, 64, 48
1, 140122, Control_c, 0, 64, 45
1, 140137, Control_c, 0, 64, 41
1, 140151, Control_c, 0, 64, 36
1, 140166, Control_c, 0, 64, 30
1, 140181, Control_c, 0, 64, 27
1, 140196, Control_c, 0, 64, 27
1, 140240, Control_c, 0, 64, 26
1, 140255, Control_c, 0, 64, 25
1, 140270, Control_c, 0, 64, 23
1, 140285, Control_c, 0, 64, 21
1, 140301, Control_c, 0, 64, 20
1, 140315, Control_c, 0, 64, 20
1, 140360, Control_c, 0, 64, 20
1, 140367, Note_on_c, 0, 48, 40
1, 140374, Control_c, 0, 64, 22
1, 140389, Control_c, 0, 64, 26
1, 140404, Control_c, 0, 64, 32
1, 140419, Control_c, 0, 64, 38
1, 140434, Control_c, 0, 64, 43
1, 140448, Control_c, 0, 64, 47
1, 140463, Control_c, 0, 64, 51
1, 140478, Control_c, 0, 64, 54
1, 140493, Control_c, 0, 64, 57
1, 140508, Control_c, 0, 64, 58
1, 140522, Control_c, 0, 64, 60
1, 140537, Control_c, 0, 64, 61
1, 140552, Control_c, 0, 64, 62
1, 140574, Control_c, 0, 64, 63
1, 140589, Control_c, 0, 64, 64
1, 140604, Control_c, 0, 64, 64
1, 140619, Control_c, 0, 64, 65
1, 140634, Control_c, 0, 64, 65
1, 140647, Note_on_c, 0, 60, 37
1, 140648, Control_c, 0, 64, 66
1, 140678, Control_c, 0, 64, 67
1, 140682, Note_off_c, 0, 60, 58
1, 140685, Note_off_c, 0, 48, 61
1, 140693, Control_c, 0, 67, 125
1, 140708, Control_c, 0, 67, 123
1, 140722, Control_c, 0, 64, 67
1, 140722, Control_c, 0, 67, 121
1, 140737, Control_c, 0, 67, 119
1, 140752, Control_c, 0, 67, 116
1, 140766, Control_c, 0, 67, 113
1, 140781, Control_c, 0, 67, 110
1, 140796, Control_c, 0, 67, 108
1, 140811, Control_c, 0, 64, 67
1, 140811, Control_c, 0, 67, 106
1, 140826, Control_c, 0, 64, 66
1, 140826, Control_c, 0, 67, 106
1, 140840, Control_c, 0, 64, 64
1, 140840, Control_c, 0, 67, 105
1, 140855, Control_c, 0, 64, 62
1, 140855, Control_c, 0, 67, 104
1, 140861, Note_on_c, 0, 77, 58
1, 140870, Control_c, 0, 64, 59
1, 140870, Control_c, 0, 67, 102
1, 140872, Note_on_c, 0, 74, 47
1, 140885, Control_c, 0, 64, 54
1, 140885, Control_c, 0, 67, 101
1, 140900, Control_c, 0, 64, 49
1, 140900, Control_c, 0, 67, 100
1, 140915, Control_c, 0, 64, 40
1, 140915, Control_c, 0, 67, 99
1, 140930, Control_c, 0, 64, 14
1, 140930, Control_c, 0, 67, 98
1, 140943, Note_off_c, 0, 75, 62
1, 140945, Control_c, 0, 64, 0
1, 140945, Control_c, 0, 67, 97
1, 140959, Control_c, 0, 67, 96
1, 140974, Control_c, 0, 67, 95
1, 140974, Note_off_c, 0, 74, 63
1, 140986, Note_off_c, 0, 79, 60
1, 140989, Control_c, 0, 67, 94
1, 141004, Control_c, 0, 64, 10
1, 141013, Note_off_c, 0, 77, 64
1, 141019, Control_c, 0, 64, 32
1, 141034, Control_c, 0, 64, 44
1, 141034, Control_c, 0, 67, 94
1, 141048, Control_c, 0, 64, 50
1, 141063, Control_c, 0, 64, 52
1, 141078, Control_c, 0, 64, 54
1, 141094, Control_c, 0, 64, 56
1, 141108, Control_c, 0, 64, 56
1, 141123, Control_c, 0, 64, 57
1, 141123, Control_c, 0, 67, 94
1, 141127, Note_on_c, 0, 80, 61
1, 141142, Note_on_c, 0, 77, 59
1, 141153, Control_c, 0, 67, 95
1, 141168, Control_c, 0, 67, 95
1, 141183, Control_c, 0, 64, 56
1, 141183, Control_c, 0, 67, 97
1, 141197, Control_c, 0, 67, 98
1, 141212, Control_c, 0, 64, 54
1, 141212, Control_c, 0, 67, 100
1, 141227, Control_c, 0, 64, 51
1, 141227, Control_c, 0, 67, 101
1, 141242, Control_c, 0, 64, 46
1, 141242, Control_c, 0, 67, 102
1, 141257, Control_c, 0, 64, 41
1, 141257, Control_c, 0, 67, 103
1, 141271, Control_c, 0, 64, 34
1, 141271, Control_c, 0, 67, 104
1, 141286, Control_c, 0, 64, 27
1, 141286, Control_c, 0, 67, 106
1, 141301, Control_c, 0, 64, 20
1, 141301, Control_c, 0, 67, 108
1, 141323, Control_c, 0, 64, 14
1, 141323, Control_c, 0, 67, 112
1, 141338, Control_c, 0, 64, 0
1, 141338, Control_c, 0, 67, 117
1, 141353, Control_c, 0, 67, 122
1, 141368, Control_c, 0, 67, 127
1, 141374, Note_on_c, 0, 48, 48
1, 141383, Control_c, 0, 67, 127
1, 141651, Note_on_c, 0, 60, 44
1, 141724, Note_off_c, 0, 48, 34
1, 141742, Note_off_c, 0, 60, 56
1, 141854, Note_on_c, 0, 79, 56
1, 141862, Note_on_c, 0, 75, 46
1, 141892, Note_off_c, 0, 77, 51
1, 141901, Control_c, 0, 64, 34
1, 141916, Control_c, 0, 64, 49
1, 141931, Control_c, 0, 64, 57
1, 141946, Control_c, 0, 64, 61
1, 141950, Note_off_c, 0, 79, 58
1, 141958, Note_off_c, 0, 80, 35
1, 141961, Control_c, 0, 64, 64
1, 141976, Control_c, 0, 64, 67
1, 141991, Control_c, 0, 64, 70
1, 141994, Note_off_c, 0, 75, 63
1, 142006, Control_c, 0, 64, 72
1, 142020, Control_c, 0, 64, 74
1, 142035, Control_c, 0, 64, 75
1, 142050, Control_c, 0, 64, 76
1, 142072, Control_c, 0, 64, 76
1, 142128, Note_on_c, 0, 77, 58
1, 142150, Note_on_c, 0, 68, 42
1, 142250, Control_c, 0, 64, 76
1, 142294, Control_c, 0, 64, 75
1, 142309, Control_c, 0, 64, 74
1, 142318, Note_off_c, 0, 68, 41
1, 142324, Control_c, 0, 64, 72
1, 142339, Control_c, 0, 64, 69
1, 142353, Control_c, 0, 64, 65
1, 142365, Note_on_c, 0, 75, 64
1, 142368, Control_c, 0, 64, 61
1, 142383, Control_c, 0, 64, 57
1, 142385, Note_on_c, 0, 48, 37
1, 142385, Note_on_c, 0, 67, 47
1, 142398, Control_c, 0, 64, 54
1, 142412, Control_c, 0, 64, 52
1, 142427, Control_c, 0, 64, 51
1, 142431, Note_off_c, 0, 77, 47
1, 142442, Control_c, 0, 64, 50
1, 142457, Control_c, 0, 64, 49
1, 142483, Note_off_c, 0, 67, 55
1, 142531, Control_c, 0, 64, 49
1, 142545, Control_c, 0, 64, 48
1, 142560, Control_c, 0, 64, 46
1, 142575, Control_c, 0, 64, 43
1, 142590, Control_c, 0, 64, 41
1, 142596, Note_off_c, 0, 75, 63
1, 142605, Note_on_c, 0, 74, 66
1, 142605, Control_c, 0, 64, 38
1, 142611, Note_on_c, 0, 65, 53
1, 142620, Control_c, 0, 64, 34
1, 142632, Note_on_c, 0, 53, 52
1, 142635, Control_c, 0, 64, 29
1, 142650, Control_c, 0, 64, 20
1, 142664, Control_c, 0, 64, 0
1, 142703, Note_off_c, 0, 65, 54
1, 142715, Note_off_c, 0, 48, 38
1, 142799, Control_c, 0, 64, 20
1, 142821, Control_c, 0, 64, 37
1, 142836, Control_c, 0, 64, 46
1, 142850, Control_c, 0, 64, 51
1, 142865, Control_c, 0, 64, 53
1, 142867, Note_on_c, 0, 72, 60
1, 142876, Note_on_c, 0, 63, 55
1, 142880, Control_c, 0, 64, 54
1, 142883, Note_on_c, 0, 54, 42
1, 142894, Control_c, 0, 64, 56
1, 142909, Control_c, 0, 64, 56
1, 142912, Note_off_c, 0, 74, 49
1, 142913, Note_off_c, 0, 53, 52
1, 142924, Control_c, 0, 64, 57
1, 142929, Note_off_c, 0, 63, 56
1, 142941, Note_off_c, 0, 72, 62
1, 143028, Control_c, 0, 64, 56
1, 143058, Control_c, 0, 64, 55
1, 143058, Note_on_c, 0, 71, 54
1, 143073, Control_c, 0, 64, 54
1, 143086, Note_off_c, 0, 71, 66
1, 143088, Control_c, 0, 64, 52
1, 143092, Note_on_c, 0, 72, 63
1, 143102, Control_c, 0, 64, 50
1, 143117, Control_c, 0, 64, 46
1, 143132, Control_c, 0, 64, 43
1, 143146, Note_off_c, 0, 72, 63
1, 143147, Control_c, 0, 64, 38
1, 143162, Control_c, 0, 64, 30
1, 143168, Note_on_c, 0, 74, 58
1, 143176, Control_c, 0, 64, 13
1, 143191, Control_c, 0, 64, 0
1, 143241, Note_on_c, 0, 72, 56
1, 143257, Note_on_c, 0, 55, 31
1, 143272, Note_on_c, 0, 63, 39
1, 143323, Note_off_c, 0, 54, 58
1, 143364, Note_off_c, 0, 74, 40
1, 143523, Note_off_c, 0, 63, 56
1, 143778, Note_on_c, 0, 71, 44
1, 143794, Note_on_c, 0, 43, 39
1, 143795, Note_on_c, 0, 62, 37
1, 143845, Note_off_c, 0, 62, 55
1, 143847, Note_off_c, 0, 43, 61
1, 143872, Note_off_c, 0, 71, 60
1, 143879, Note_off_c, 0, 55, 63
1, 143913, Note_off_c, 0, 72, 48
1, 144064, Note_on_c, 0, 68, 51
1, 144074, Note_on_c, 0, 63, 43
1, 144080, Note_on_c, 0, 60, 42
1, 144105, Note_off_c, 0, 68, 61
1, 144238, Note_on_c, 0, 67, 51
1, 144261, Note_off_c, 0, 67, 62
1, 144274, Note_on_c, 0, 68, 49
1, 144316, Note_off_c, 0, 68, 63
1, 144332, Note_on_c, 0, 70, 64
1, 144374, Note_off_c, 0, 70, 59
1, 144402, Note_on_c, 0, 68, 54
1, 144414, Note_on_c, 0, 62, 46
1, 144431, Note_on_c, 0, 59, 38
1, 144450, Note_off_c, 0, 60, 31
1, 144527, Note_off_c, 0, 63, 49
1, 144778, Control_c, 0, 67, 125
1, 144793, Control_c, 0, 67, 122
1, 144808, Control_c, 0, 67, 119
1, 144823, Control_c, 0, 67, 116
1, 144838, Control_c, 0, 67, 113
1, 144852, Control_c, 0, 64, 26
1, 144852, Control_c, 0, 67, 110
1, 144867, Control_c, 0, 64, 36
1, 144867, Control_c, 0, 67, 107
1, 144882, Control_c, 0, 64, 42
1, 144882, Control_c, 0, 67, 103
1, 144895, Note_on_c, 0, 67, 54
1, 144897, Control_c, 0, 64, 45
1, 144897, Control_c, 0, 67, 100
1, 144898, Note_off_c, 0, 59, 59
1, 144912, Control_c, 0, 64, 47
1, 144912, Control_c, 0, 67, 97
1, 144915, Note_off_c, 0, 68, 60
1, 144927, Control_c, 0, 64, 50
1, 144927, Control_c, 0, 67, 94
1, 144929, Note_off_c, 0, 62, 65
1, 144940, Note_off_c, 0, 67, 62
1, 144941, Control_c, 0, 64, 53
1, 144941, Control_c, 0, 67, 92
1, 144956, Control_c, 0, 64, 55
1, 144956, Control_c, 0, 67, 91
1, 144971, Control_c, 0, 64, 56
1, 144971, Control_c, 0, 67, 90
1, 144986, Control_c, 0, 64, 56
1, 144986, Control_c, 0, 67, 89
1, 145001, Control_c, 0, 64, 57
1, 145001, Control_c, 0, 67, 88
1, 145015, Control_c, 0, 67, 87
1, 145097, Control_c, 0, 64, 56
1, 145112, Control_c, 0, 64, 55
1, 145127, Control_c, 0, 64, 50
1, 145142, Control_c, 0, 64, 43
1, 145144, Note_on_c, 0, 72, 77
1, 145157, Control_c, 0, 64, 28
1, 145157, Control_c, 0, 67, 88
1, 145159, Note_on_c, 0, 67, 53
1, 145171, Note_on_c, 0, 63, 43
1, 145171, Control_c, 0, 64, 0
1, 145187, Note_off_c, 0, 72, 61
1, 145216, Control_c, 0, 67, 88
1, 145261, Control_c, 0, 67, 89
1, 145329, Note_on_c, 0, 71, 58
1, 145349, Note_off_c, 0, 71, 63
1, 145357, Note_on_c, 0, 72, 68
1, 145364, Control_c, 0, 67, 88
1, 145394, Control_c, 0, 67, 88
1, 145401, Note_off_c, 0, 72, 65
1, 145410, Note_on_c, 0, 74, 76
1, 145424, Control_c, 0, 67, 87
1, 145458, Note_off_c, 0, 74, 64
1, 145460, Note_on_c, 0, 72, 75
1, 145473, Note_on_c, 0, 65, 53
1, 145481, Note_on_c, 0, 62, 53
1, 145482, Control_c, 0, 67, 87
1, 145498, Note_off_c, 0, 63, 52
1, 145521, Note_off_c, 0, 67, 33
1, 145675, Control_c, 0, 67, 86
1, 145689, Control_c, 0, 67, 86
1, 145763, Control_c, 0, 64, 19
1, 145763, Control_c, 0, 67, 85
1, 145778, Control_c, 0, 64, 33
1, 145793, Control_c, 0, 64, 42
1, 145793, Control_c, 0, 67, 84
1, 145815, Control_c, 0, 64, 47
1, 145815, Control_c, 0, 67, 84
1, 145830, Control_c, 0, 64, 50
1, 145830, Control_c, 0, 67, 83
1, 145845, Control_c, 0, 64, 53
1, 145860, Control_c, 0, 64, 56
1, 145867, Note_off_c, 0, 65, 63
1, 145875, Control_c, 0, 64, 59
1, 145890, Note_off_c, 0, 62, 64
1, 145890, Control_c, 0, 64, 61
1, 145905, Control_c, 0, 64, 63
1, 145919, Note_off_c, 0, 72, 61
1, 145920, Control_c, 0, 64, 64
1, 145935, Control_c, 0, 64, 64
1, 145942, Note_on_c, 0, 71, 64
1, 145949, Control_c, 0, 64, 65
1, 145949, Control_c, 0, 67, 84
1, 145962, Note_off_c, 0, 71, 66
1, 145979, Control_c, 0, 67, 84
1, 145994, Control_c, 0, 67, 85
1, 146009, Control_c, 0, 67, 86
1, 146024, Control_c, 0, 64, 65
1, 146024, Control_c, 0, 67, 88
1, 146038, Control_c, 0, 64, 63
1, 146038, Control_c, 0, 67, 89
1, 146046, Note_on_c, 0, 80, 72
1, 146053, Control_c, 0, 64, 61
1, 146053, Control_c, 0, 67, 90
1, 146068, Control_c, 0, 64, 58
1, 146068, Control_c, 0, 67, 92
1, 146083, Control_c, 0, 64, 55
1, 146083, Control_c, 0, 67, 93
1, 146098, Control_c, 0, 64, 52
1, 146098, Control_c, 0, 67, 95
1, 146112, Control_c, 0, 64, 48
1, 146112, Control_c, 0, 67, 97
1, 146127, Control_c, 0, 64, 42
1, 146127, Control_c, 0, 67, 101
1, 146142, Control_c, 0, 64, 31
1, 146142, Control_c, 0, 67, 107
1, 146157, Control_c, 0, 64, 0
1, 146157, Control_c, 0, 67, 113
1, 146162, Note_on_c, 0, 79, 75
1, 146172, Control_c, 0, 67, 119
1, 146186, Control_c, 0, 67, 125
1, 146201, Control_c, 0, 67, 127
1, 146209, Note_on_c, 0, 67, 46
1, 146215, Note_on_c, 0, 59, 40
1, 146236, Note_off_c, 0, 80, 61
1, 146245, Control_c, 0, 64, 13
1, 146260, Control_c, 0, 64, 28
1, 146271, Note_on_c, 0, 77, 74
1, 146275, Control_c, 0, 64, 39
1, 146290, Control_c, 0, 64, 45
1, 146304, Note_off_c, 0, 79, 61
1, 146304, Control_c, 0, 64, 46
1, 146319, Control_c, 0, 64, 47
1, 146328, Note_off_c, 0, 77, 65
1, 146334, Control_c, 0, 64, 46
1, 146349, Control_c, 0, 64, 45
1, 146364, Control_c, 0, 64, 40
1, 146379, Control_c, 0, 64, 31
1, 146385, Note_on_c, 0, 77, 74
1, 146394, Control_c, 0, 64, 14
1, 146409, Control_c, 0, 64, 0
1, 146423, Control_c, 0, 64, 19
1, 146426, Note_on_c, 0, 60, 45
1, 146438, Control_c, 0, 64, 38
1, 146453, Control_c, 0, 64, 49
1, 146468, Control_c, 0, 64, 54
1, 146483, Control_c, 0, 64, 56
1, 146487, Note_on_c, 0, 75, 73
1, 146491, Note_off_c, 0, 59, 36
1, 146498, Control_c, 0, 64, 58
1, 146512, Control_c, 0, 64, 60
1, 146513, Note_off_c, 0, 77, 62
1, 146527, Control_c, 0, 64, 62
1, 146533, Note_off_c, 0, 75, 61
1, 146540, Note_off_c, 0, 67, 57
1, 146542, Control_c, 0, 64, 63
1, 146564, Control_c, 0, 64, 63
1, 146623, Note_on_c, 0, 74, 75
1, 146659, Note_off_c, 0, 74, 58
1, 146669, Note_on_c, 0, 75, 68
1, 146671, Note_on_c, 0, 63, 44
1, 146731, Note_on_c, 0, 74, 64
1, 146732, Note_off_c, 0, 75, 63
1, 146736, Note_off_c, 0, 60, 53
1, 146772, Control_c, 0, 64, 63
1, 146784, Note_off_c, 0, 74, 64
1, 146787, Control_c, 0, 64, 60
1, 146799, Note_on_c, 0, 72, 65
1, 146802, Control_c, 0, 64, 56
1, 146817, Control_c, 0, 64, 50
1, 146832, Control_c, 0, 64, 40
1, 146847, Control_c, 0, 64, 17
1, 146861, Control_c, 0, 64, 0
1, 146864, Note_on_c, 0, 65, 39
1, 146865, Note_on_c, 0, 62, 43
1, 146867, Note_off_c, 0, 72, 62
1, 146868, Note_on_c, 0, 71, 71
1, 146901, Note_off_c, 0, 71, 63
1, 146909, Note_off_c, 0, 63, 53
1, 146912, Note_off_c, 0, 65, 48
1, 146924, Note_off_c, 0, 62, 54
1, 147121, Note_on_c, 0, 72, 65
1, 147135, Note_on_c, 0, 60, 46
1, 147135, Note_on_c, 0, 63, 36
1, 147155, Note_off_c, 0, 72, 60
1, 147169, Note_off_c, 0, 63, 61
1, 147175, Note_off_c, 0, 60, 64
1, 147440, Note_on_c, 0, 75, 59
1, 147456, Note_on_c, 0, 60, 34
1, 147511, Note_on_c, 0, 55, 42
1, 148068, Note_on_c, 0, 74, 46
1, 148081, Note_on_c, 0, 59, 37
1, 148170, Note_off_c, 0, 60, 34
1, 148182, Note_off_c, 0, 74, 51
1, 148223, Note_off_c, 0, 55, 34
1, 148235, Note_off_c, 0, 59, 56
1, 148372, Note_off_c, 0, 75, 24
1, 148693, Note_on_c, 0, 63, 48
1, 148716, Note_on_c, 0, 60, 44
1, 148965, Note_on_c, 0, 67, 55
1, 149153, Control_c, 0, 64, 23
1, 149168, Control_c, 0, 64, 31
1, 149182, Control_c, 0, 64, 37
1, 149197, Control_c, 0, 64, 41
1, 149212, Control_c, 0, 64, 45
1, 149219, Note_on_c, 0, 79, 49
1, 149227, Control_c, 0, 64, 49
1, 149242, Control_c, 0, 64, 53
1, 149252, Note_off_c, 0, 67, 34
1, 149255, Control_c, 0, 64, 56
1, 149270, Control_c, 0, 64, 58
1, 149285, Control_c, 0, 64, 60
1, 149300, Control_c, 0, 64, 62
1, 149303, Note_off_c, 0, 79, 57
1, 149315, Control_c, 0, 64, 63
1, 149330, Control_c, 0, 64, 65
1, 149345, Control_c, 0, 64, 67
1, 149360, Control_c, 0, 64, 69
1, 149374, Control_c, 0, 64, 71
1, 149389, Control_c, 0, 64, 73
1, 149404, Control_c, 0, 64, 75
1, 149419, Control_c, 0, 64, 77
1, 149434, Control_c, 0, 64, 78
1, 149449, Control_c, 0, 64, 79
1, 149455, Note_on_c, 0, 62, 50
1, 149458, Note_off_c, 0, 63, 61
1, 149487, Note_on_c, 0, 59, 43
1, 149508, Note_off_c, 0, 60, 61
1, 149516, Note_off_c, 0, 59, 56
1, 149521, Note_off_c, 0, 62, 64
1, 149604, Control_c, 0, 64, 78
1, 149619, Control_c, 0, 64, 78
1, 149634, Control_c, 0, 64, 76
1, 149649, Control_c, 0, 64, 73
1, 149663, Control_c, 0, 64, 67
1, 149678, Control_c, 0, 64, 61
1, 149693, Control_c, 0, 64, 53
1, 149708, Control_c, 0, 64, 45
1, 149723, Control_c, 0, 64, 36
1, 149737, Control_c, 0, 64, 20
1, 149748, Note_on_c, 0, 65, 71
1, 149752, Control_c, 0, 64, 0
1, 149761, Note_on_c, 0, 62, 50
1, 150005, Note_on_c, 0, 68, 63
1, 150212, Control_c, 0, 64, 13
1, 150227, Control_c, 0, 64, 37
1, 150242, Control_c, 0, 64, 52
1, 150247, Note_on_c, 0, 80, 58
1, 150257, Control_c, 0, 64, 57
1, 150271, Control_c, 0, 64, 60
1, 150272, Note_off_c, 0, 68, 58
1, 150286, Control_c, 0, 64, 63
1, 150308, Control_c, 0, 64, 66
1, 150323, Control_c, 0, 64, 69
1, 150337, Control_c, 0, 64, 74
1, 150343, Note_off_c, 0, 80, 55
1, 150352, Control_c, 0, 64, 78
1, 150367, Control_c, 0, 64, 81
1, 150382, Control_c, 0, 64, 84
1, 150397, Control_c, 0, 64, 87
1, 150412, Control_c, 0, 64, 92
1, 150427, Control_c, 0, 64, 98
1, 150442, Control_c, 0, 64, 104
1, 150442, Control_c, 0, 67, 126
1, 150457, Control_c, 0, 64, 107
1, 150457, Control_c, 0, 67, 122
1, 150471, Control_c, 0, 64, 108
1, 150471, Control_c, 0, 67, 119
1, 150478, Note_on_c, 0, 63, 65
1, 150481, Note_on_c, 0, 60, 51
1, 150486, Control_c, 0, 67, 114
1, 150489, Note_off_c, 0, 62, 61
1, 150501, Control_c, 0, 67, 111
1, 150509, Note_off_c, 0, 65, 63
1, 150514, Note_off_c, 0, 60, 65
1, 150516, Control_c, 0, 67, 108
1, 150521, Note_off_c, 0, 63, 61
1, 150530, Control_c, 0, 67, 107
1, 150545, Control_c, 0, 64, 108
1, 150545, Control_c, 0, 67, 106
1, 150560, Control_c, 0, 64, 107
1, 150575, Control_c, 0, 64, 99
1, 150590, Control_c, 0, 64, 88
1, 150604, Control_c, 0, 64, 79
1, 150619, Control_c, 0, 64, 72
1, 150619, Control_c, 0, 67, 107
1, 150634, Control_c, 0, 64, 68
1, 150649, Control_c, 0, 64, 65
1, 150649, Control_c, 0, 67, 107
1, 150664, Control_c, 0, 64, 63
1, 150664, Control_c, 0, 67, 108
1, 150680, Control_c, 0, 64, 61
1, 150680, Control_c, 0, 67, 109
1, 150695, Control_c, 0, 64, 59
1, 150695, Control_c, 0, 67, 110
1, 150709, Control_c, 0, 64, 58
1, 150709, Control_c, 0, 67, 111
1, 150724, Control_c, 0, 64, 57
1, 150724, Control_c, 0, 67, 112
1, 150732, Note_on_c, 0, 67, 77
1, 150739, Control_c, 0, 64, 55
1, 150739, Control_c, 0, 67, 113
1, 150741, Note_on_c, 0, 63, 64
1, 150754, Control_c, 0, 64, 52
1, 150754, Control_c, 0, 67, 115
1, 150769, Control_c, 0, 64, 49
1, 150769, Control_c, 0, 67, 117
1, 150784, Control_c, 0, 64, 43
1, 150784, Control_c, 0, 67, 118
1, 150799, Control_c, 0, 64, 35
1, 150799, Control_c, 0, 67, 120
1, 150814, Control_c, 0, 64, 20
1, 150814, Control_c, 0, 67, 123
1, 150828, Control_c, 0, 64, 0
1, 150828, Control_c, 0, 67, 127
1, 150843, Control_c, 0, 67, 127
1, 150973, Note_on_c, 0, 71, 80
1, 151223, Note_on_c, 0, 83, 73
1, 151253, Note_off_c, 0, 71, 56
1, 151325, Note_off_c, 0, 83, 63
1, 151434, Note_on_c, 0, 65, 75
1, 151443, Control_c, 0, 64, 32
1, 151446, Note_on_c, 0, 62, 61
1, 151449, Note_off_c, 0, 67, 65
1, 151458, Control_c, 0, 64, 50
1, 151471, Note_off_c, 0, 63, 62
1, 151473, Control_c, 0, 64, 59
1, 151488, Control_c, 0, 64, 63
1, 151500, Note_off_c, 0, 62, 64
1, 151503, Control_c, 0, 64, 65
1, 151512, Note_off_c, 0, 65, 64
1, 151518, Control_c, 0, 64, 67
1, 151533, Control_c, 0, 64, 69
1, 151548, Control_c, 0, 64, 73
1, 151562, Control_c, 0, 64, 78
1, 151577, Control_c, 0, 64, 82
1, 151592, Control_c, 0, 64, 85
1, 151607, Control_c, 0, 64, 87
1, 151622, Control_c, 0, 64, 90
1, 151637, Control_c, 0, 64, 90
1, 151681, Control_c, 0, 64, 87
1, 151696, Control_c, 0, 64, 78
1, 151708, Note_on_c, 0, 68, 82
1, 151711, Control_c, 0, 64, 67
1, 151711, Control_c, 0, 67, 126
1, 151720, Note_on_c, 0, 65, 70
1, 151725, Control_c, 0, 64, 54
1, 151725, Control_c, 0, 67, 123
1, 151740, Control_c, 0, 64, 40
1, 151740, Control_c, 0, 67, 121
1, 151755, Control_c, 0, 64, 21
1, 151755, Control_c, 0, 67, 120
1, 151769, Control_c, 0, 64, 0
1, 151769, Control_c, 0, 67, 120
1, 151822, Control_c, 0, 67, 120
1, 151837, Control_c, 0, 67, 121
1, 151851, Control_c, 0, 67, 122
1, 151866, Control_c, 0, 67, 124
1, 151881, Control_c, 0, 67, 126
1, 151896, Control_c, 0, 67, 127
1, 151940, Note_on_c, 0, 72, 83
1, 152102, Control_c, 0, 64, 15
1, 152117, Control_c, 0, 64, 38
1, 152132, Control_c, 0, 64, 51
1, 152147, Control_c, 0, 64, 57
1, 152162, Control_c, 0, 64, 61
1, 152166, Note_on_c, 0, 84, 89
1, 152177, Control_c, 0, 64, 64
1, 152191, Control_c, 0, 64, 66
1, 152195, Note_off_c, 0, 72, 63
1, 152206, Control_c, 0, 64, 69
1, 152221, Control_c, 0, 64, 72
1, 152236, Control_c, 0, 64, 76
1, 152248, Note_off_c, 0, 84, 65
1, 152251, Control_c, 0, 64, 79
1, 152264, Control_c, 0, 64, 83
1, 152280, Control_c, 0, 64, 86
1, 152291, Note_off_c, 0, 68, 58
1, 152295, Control_c, 0, 64, 90
1, 152310, Control_c, 0, 64, 94
1, 152325, Control_c, 0, 64, 96
1, 152340, Control_c, 0, 64, 96
1, 152354, Control_c, 0, 67, 126
1, 152360, Note_off_c, 0, 65, 57
1, 152369, Control_c, 0, 67, 123
1, 152384, Control_c, 0, 64, 96
1, 152384, Control_c, 0, 67, 119
1, 152398, Control_c, 0, 64, 94
1, 152398, Control_c, 0, 67, 116
1, 152404, Note_on_c, 0, 67, 81
1, 152406, Note_on_c, 0, 63, 68
1, 152413, Control_c, 0, 64, 91
1, 152413, Control_c, 0, 67, 112
1, 152428, Control_c, 0, 64, 88
1, 152428, Control_c, 0, 67, 108
1, 152443, Control_c, 0, 64, 86
1, 152443, Control_c, 0, 67, 103
1, 152458, Control_c, 0, 64, 82
1, 152458, Control_c, 0, 67, 97
1, 152472, Control_c, 0, 64, 78
1, 152472, Control_c, 0, 67, 90
1, 152480, Note_off_c, 0, 67, 63
1, 152487, Control_c, 0, 64, 74
1, 152487, Control_c, 0, 67, 82
1, 152502, Control_c, 0, 64, 69
1, 152502, Control_c, 0, 67, 74
1, 152517, Control_c, 0, 64, 65
1, 152517, Control_c, 0, 67, 67
1, 152531, Control_c, 0, 64, 61
1, 152531, Control_c, 0, 67, 59
1, 152554, Control_c, 0, 64, 58
1, 152554, Control_c, 0, 67, 51
1, 152569, Control_c, 0, 64, 55
1, 152569, Control_c, 0, 67, 43
1, 152584, Control_c, 0, 64, 51
1, 152584, Control_c, 0, 67, 35
1, 152599, Control_c, 0, 64, 45
1, 152599, Control_c, 0, 67, 29
1, 152613, Control_c, 0, 64, 38
1, 152613, Control_c, 0, 67, 23
1, 152628, Control_c, 0, 64, 26
1, 152628, Control_c, 0, 67, 19
1, 152643, Control_c, 0, 64, 0
1, 152643, Control_c, 0, 67, 16
1, 152658, Control_c, 0, 67, 15
1, 152672, Control_c, 0, 67, 15
1, 152687, Control_c, 0, 67, 14
1, 152709, Note_on_c, 0, 70, 85
1, 152714, Note_on_c, 0, 67, 60
1, 152731, Control_c, 0, 67, 14
1, 152735, Note_off_c, 0, 63, 54
1, 152746, Control_c, 0, 67, 13
1, 152776, Control_c, 0, 67, 12
1, 152880, Control_c, 0, 67, 13
1, 152939, Control_c, 0, 67, 13
1, 152942, Note_on_c, 0, 73, 80
1, 152954, Control_c, 0, 67, 14
1, 152969, Control_c, 0, 67, 15
1, 152984, Control_c, 0, 67, 18
1, 152998, Control_c, 0, 67, 19
1, 153013, Control_c, 0, 67, 21
1, 153028, Control_c, 0, 67, 22
1, 153043, Control_c, 0, 67, 24
1, 153058, Control_c, 0, 67, 25
1, 153074, Control_c, 0, 64, 27
1, 153074, Control_c, 0, 67, 26
1, 153089, Control_c, 0, 64, 47
1, 153089, Control_c, 0, 67, 27
1, 153103, Control_c, 0, 64, 55
1, 153103, Control_c, 0, 67, 27
1, 153118, Control_c, 0, 64, 59
1, 153118, Control_c, 0, 67, 28
1, 153133, Control_c, 0, 64, 62
1, 153133, Control_c, 0, 67, 28
1, 153147, Control_c, 0, 64, 64
1, 153147, Control_c, 0, 67, 29
1, 153162, Control_c, 0, 64, 66
1, 153162, Control_c, 0, 67, 29
1, 153177, Control_c, 0, 64, 68
1, 153177, Control_c, 0, 67, 30
1, 153182, Note_on_c, 0, 85, 80
1, 153192, Control_c, 0, 64, 71
1, 153192, Control_c, 0, 67, 31
1, 153207, Control_c, 0, 64, 74
1, 153207, Control_c, 0, 67, 32
1, 153221, Control_c, 0, 64, 76
1, 153221, Control_c, 0, 67, 32
1, 153236, Control_c, 0, 64, 78
1, 153236, Control_c, 0, 67, 33
1, 153251, Control_c, 0, 64, 80
1, 153251, Control_c, 0, 67, 35
1, 153266, Control_c, 0, 64, 81
1, 153266, Control_c, 0, 67, 36
1, 153281, Control_c, 0, 67, 40
1, 153302, Note_off_c, 0, 70, 52
1, 153303, Control_c, 0, 64, 81
1, 153303, Control_c, 0, 67, 43
1, 153318, Control_c, 0, 67, 45
1, 153319, Note_off_c, 0, 73, 49
1, 153333, Control_c, 0, 67, 47
1, 153348, Control_c, 0, 67, 49
1, 153362, Control_c, 0, 67, 53
1, 153377, Control_c, 0, 64, 81
1, 153377, Control_c, 0, 67, 59
1, 153392, Control_c, 0, 64, 78
1, 153392, Control_c, 0, 67, 66
1, 153407, Control_c, 0, 64, 72
1, 153407, Control_c, 0, 67, 75
1, 153422, Control_c, 0, 64, 65
1, 153422, Control_c, 0, 67, 85
1, 153436, Control_c, 0, 64, 61
1, 153436, Control_c, 0, 67, 96
1, 153437, Note_on_c, 0, 86, 73
1, 153445, Note_on_c, 0, 74, 57
1, 153451, Control_c, 0, 64, 59
1, 153451, Control_c, 0, 67, 109
1, 153453, Note_on_c, 0, 69, 45
1, 153460, Note_on_c, 0, 66, 46
1, 153466, Control_c, 0, 64, 57
1, 153466, Control_c, 0, 67, 122
1, 153480, Control_c, 0, 64, 53
1, 153480, Control_c, 0, 67, 127
1, 153495, Control_c, 0, 64, 42
1, 153510, Note_off_c, 0, 67, 61
1, 153510, Control_c, 0, 64, 16
1, 153525, Control_c, 0, 64, 0
1, 153545, Note_off_c, 0, 86, 62
1, 153552, Note_off_c, 0, 74, 58
1, 153563, Note_off_c, 0, 85, 56
1, 153690, Note_on_c, 0, 71, 81
1, 153692, Note_on_c, 0, 83, 82
1, 153716, Note_on_c, 0, 68, 51
1, 153718, Note_on_c, 0, 65, 55
1, 153784, Note_off_c, 0, 66, 36
1, 153798, Note_off_c, 0, 69, 39
1, 153840, Note_off_c, 0, 71, 56
1, 153941, Control_c, 0, 64, 24
1, 153956, Control_c, 0, 64, 37
1, 153970, Control_c, 0, 64, 44
1, 153976, Note_on_c, 0, 84, 61
1, 153985, Control_c, 0, 64, 48
1, 153994, Note_on_c, 0, 72, 54
1, 153997, Note_on_c, 0, 64, 49
1, 154000, Control_c, 0, 64, 53
1, 154005, Note_on_c, 0, 67, 50
1, 154010, Note_off_c, 0, 65, 47
1, 154015, Control_c, 0, 64, 56
1, 154027, Note_off_c, 0, 83, 61
1, 154030, Control_c, 0, 64, 59
1, 154052, Control_c, 0, 64, 61
1, 154056, Note_off_c, 0, 68, 61
1, 154062, Note_off_c, 0, 84, 66
1, 154066, Control_c, 0, 64, 62
1, 154075, Note_off_c, 0, 72, 63
1, 154081, Control_c, 0, 64, 63
1, 154111, Control_c, 0, 64, 64
1, 154126, Control_c, 0, 64, 63
1, 154156, Control_c, 0, 64, 62
1, 154170, Control_c, 0, 64, 61
1, 154185, Control_c, 0, 64, 58
1, 154200, Control_c, 0, 64, 54
1, 154215, Control_c, 0, 64, 50
1, 154230, Control_c, 0, 64, 46
1, 154245, Control_c, 0, 64, 41
1, 154259, Control_c, 0, 64, 35
1, 154274, Control_c, 0, 64, 25
1, 154277, Note_on_c, 0, 81, 67
1, 154284, Note_on_c, 0, 69, 59
1, 154289, Control_c, 0, 64, 9
1, 154303, Control_c, 0, 64, 0
1, 154305, Note_on_c, 0, 63, 48
1, 154308, Note_off_c, 0, 64, 50
1, 154309, Note_on_c, 0, 66, 36
1, 154379, Note_off_c, 0, 67, 38
1, 154440, Note_off_c, 0, 69, 59
1, 154641, Note_on_c, 0, 82, 53
1, 154655, Note_on_c, 0, 70, 30
1, 154666, Note_on_c, 0, 62, 37
1, 154668, Note_on_c, 0, 65, 36
1, 154720, Note_off_c, 0, 81, 48
1, 154755, Note_off_c, 0, 66, 53
1, 154761, Note_off_c, 0, 63, 36
1, 154847, Note_off_c, 0, 70, 46
1, 154857, Note_off_c, 0, 82, 49
1, 154897, Note_off_c, 0, 62, 38
1, 154909, Note_off_c, 0, 65, 34
1, 156052, Note_on_c, 0, 63, 29
1, 156062, Note_on_c, 0, 60, 32
1, 156328, Control_c, 0, 64, 18
1, 156342, Note_on_c, 0, 80, 45
1, 156343, Control_c, 0, 64, 33
1, 156358, Control_c, 0, 64, 44
1, 156362, Note_on_c, 0, 68, 36
1, 156372, Control_c, 0, 64, 51
1, 156387, Control_c, 0, 64, 56
1, 156402, Control_c, 0, 64, 59
1, 156417, Control_c, 0, 64, 62
1, 156432, Control_c, 0, 64, 64
1, 156446, Control_c, 0, 64, 66
1, 156461, Control_c, 0, 64, 68
1, 156476, Control_c, 0, 64, 70
1, 156490, Control_c, 0, 64, 71
1, 156492, Note_off_c, 0, 80, 58
1, 156496, Note_off_c, 0, 68, 54
1, 156505, Control_c, 0, 64, 72
1, 156579, Control_c, 0, 64, 71
1, 156594, Control_c, 0, 64, 69
1, 156604, Note_on_c, 0, 79, 57
1, 156609, Control_c, 0, 64, 66
1, 156618, Note_on_c, 0, 67, 49
1, 156624, Control_c, 0, 64, 60
1, 156639, Control_c, 0, 64, 53
1, 156654, Control_c, 0, 64, 47
1, 156669, Control_c, 0, 64, 44
1, 156684, Control_c, 0, 64, 45
1, 156698, Control_c, 0, 64, 48
1, 156713, Control_c, 0, 64, 55
1, 156722, Note_off_c, 0, 67, 57
1, 156728, Control_c, 0, 64, 61
1, 156743, Control_c, 0, 64, 64
1, 156758, Control_c, 0, 64, 66
1, 156772, Control_c, 0, 64, 68
1, 156787, Control_c, 0, 64, 70
1, 156802, Control_c, 0, 64, 70
1, 156846, Control_c, 0, 64, 69
1, 156861, Control_c, 0, 64, 65
1, 156874, Note_on_c, 0, 78, 58
1, 156876, Control_c, 0, 64, 59
1, 156890, Control_c, 0, 64, 50
1, 156901, Note_on_c, 0, 66, 34
1, 156905, Control_c, 0, 64, 43
1, 156920, Control_c, 0, 64, 41
1, 156935, Control_c, 0, 64, 43
1, 156950, Control_c, 0, 64, 48
1, 156964, Control_c, 0, 64, 54
1, 156979, Control_c, 0, 64, 58
1, 156994, Control_c, 0, 64, 61
1, 157001, Note_off_c, 0, 79, 34
1, 157009, Control_c, 0, 64, 63
1, 157010, Note_off_c, 0, 78, 47
1, 157011, Note_off_c, 0, 66, 35
1, 157023, Control_c, 0, 64, 64
1, 157046, Control_c, 0, 64, 65
1, 157061, Control_c, 0, 64, 66
1, 157225, Control_c, 0, 64, 65
1, 157240, Control_c, 0, 64, 65
1, 157242, Note_on_c, 0, 78, 48
1, 157254, Control_c, 0, 64, 64
1, 157258, Note_on_c, 0, 66, 20
1, 157269, Control_c, 0, 64, 64
1, 157284, Control_c, 0, 64, 63
1, 157287, Note_on_c, 0, 62, 19
1, 157289, Note_on_c, 0, 59, 30
1, 157299, Control_c, 0, 64, 61
1, 157313, Control_c, 0, 64, 59
1, 157328, Control_c, 0, 64, 58
1, 157343, Control_c, 0, 64, 56
1, 157358, Control_c, 0, 64, 54
1, 157373, Control_c, 0, 64, 52
1, 157387, Control_c, 0, 64, 49
1, 157402, Control_c, 0, 64, 47
1, 157417, Control_c, 0, 64, 44
1, 157432, Control_c, 0, 64, 40
1, 157439, Note_off_c, 0, 60, 34
1, 157447, Control_c, 0, 64, 37
1, 157462, Control_c, 0, 64, 35
1, 157477, Control_c, 0, 64, 33
1, 157487, Note_off_c, 0, 63, 36
1, 157492, Control_c, 0, 64, 31
1, 157507, Control_c, 0, 64, 28
1, 157521, Control_c, 0, 64, 24
1, 157536, Control_c, 0, 64, 20
1, 157551, Control_c, 0, 64, 17
1, 157566, Control_c, 0, 64, 13
1, 157581, Control_c, 0, 64, 0
1, 157685, Control_c, 0, 64, 20
1, 157700, Control_c, 0, 64, 29
1, 157714, Control_c, 0, 64, 36
1, 157729, Control_c, 0, 64, 42
1, 157744, Control_c, 0, 64, 47
1, 157759, Control_c, 0, 64, 50
1, 157774, Control_c, 0, 64, 53
1, 157796, Control_c, 0, 64, 56
1, 157810, Control_c, 0, 64, 58
1, 157825, Control_c, 0, 64, 60
1, 157840, Control_c, 0, 64, 62
1, 157855, Control_c, 0, 64, 64
1, 157870, Control_c, 0, 64, 66
1, 157885, Control_c, 0, 64, 67
1, 157888, Note_off_c, 0, 66, 42
1, 157900, Control_c, 0, 64, 69
1, 157915, Control_c, 0, 64, 72
1, 157930, Control_c, 0, 64, 75
1, 157945, Control_c, 0, 64, 78
1, 157960, Control_c, 0, 64, 81
1, 157974, Control_c, 0, 64, 85
1, 157989, Control_c, 0, 64, 89
1, 158004, Control_c, 0, 64, 93
1, 158019, Control_c, 0, 64, 97
1, 158034, Control_c, 0, 64, 100
1, 158049, Control_c, 0, 64, 103
1, 158064, Control_c, 0, 64, 105
1, 158078, Control_c, 0, 64, 107
1, 158093, Control_c, 0, 64, 108
1, 158108, Control_c, 0, 64, 110
1, 158123, Control_c, 0, 64, 110
1, 158344, Control_c, 0, 64, 110
1, 158374, Control_c, 0, 64, 109
1, 158389, Control_c, 0, 64, 109
1, 158404, Control_c, 0, 64, 108
1, 158419, Control_c, 0, 64, 107
1, 158433, Control_c, 0, 64, 106
1, 158448, Control_c, 0, 64, 105
1, 158463, Control_c, 0, 64, 104
1, 158478, Control_c, 0, 64, 101
1, 158493, Control_c, 0, 64, 97
1, 158508, Control_c, 0, 64, 92
1, 158523, Note_on_c, 0, 79, 44
1, 158523, Control_c, 0, 64, 87
1, 158544, Note_on_c, 0, 67, 32
1, 158544, Control_c, 0, 64, 83
1, 158559, Control_c, 0, 64, 78
1, 158574, Control_c, 0, 64, 72
1, 158588, Control_c, 0, 64, 65
1, 158603, Control_c, 0, 64, 59
1, 158618, Control_c, 0, 64, 53
1, 158633, Control_c, 0, 64, 50
1, 158648, Control_c, 0, 64, 50
1, 158651, Note_off_c, 0, 78, 34
1, 158664, Control_c, 0, 64, 51
1, 158679, Control_c, 0, 64, 54
1, 158690, Note_off_c, 0, 79, 53
1, 158693, Control_c, 0, 64, 58
1, 158701, Note_off_c, 0, 67, 51
1, 158708, Control_c, 0, 64, 61
1, 158723, Control_c, 0, 64, 64
1, 158738, Control_c, 0, 64, 66
1, 158753, Control_c, 0, 64, 68
1, 158767, Control_c, 0, 64, 70
1, 158782, Control_c, 0, 64, 72
1, 158797, Control_c, 0, 64, 73
1, 158812, Control_c, 0, 64, 73
1, 158827, Control_c, 0, 64, 73
1, 158848, Note_on_c, 0, 67, 50
1, 158872, Control_c, 0, 64, 72
1, 158887, Control_c, 0, 64, 72
1, 158901, Control_c, 0, 64, 71
1, 158916, Control_c, 0, 64, 69
1, 158931, Control_c, 0, 64, 66
1, 158946, Control_c, 0, 64, 64
1, 158961, Control_c, 0, 64, 63
1, 158973, Note_off_c, 0, 62, 35
1, 158990, Control_c, 0, 64, 62
1, 158997, Note_off_c, 0, 59, 61
1, 159005, Control_c, 0, 64, 61
1, 159019, Control_c, 0, 64, 59
1, 159034, Control_c, 0, 64, 57
1, 159049, Control_c, 0, 64, 56
1, 159064, Control_c, 0, 64, 55
1, 159079, Control_c, 0, 64, 53
1, 159093, Control_c, 0, 64, 49
1, 159094, Note_on_c, 0, 71, 59
1, 159108, Control_c, 0, 64, 45
1, 159123, Control_c, 0, 64, 38
1, 159138, Control_c, 0, 64, 27
1, 159153, Control_c, 0, 64, 0
1, 159167, Note_off_c, 0, 67, 39
1, 159308, Control_c, 0, 64, 22
1, 159320, Note_on_c, 0, 74, 62
1, 159323, Control_c, 0, 64, 40
1, 159338, Control_c, 0, 64, 52
1, 159353, Control_c, 0, 64, 58
1, 159356, Note_off_c, 0, 71, 48
1, 159367, Control_c, 0, 64, 62
1, 159382, Control_c, 0, 64, 64
1, 159397, Control_c, 0, 64, 67
1, 159409, Note_off_c, 0, 74, 63
1, 159411, Control_c, 0, 64, 69
1, 159426, Control_c, 0, 64, 72
1, 159441, Control_c, 0, 64, 74
1, 159456, Control_c, 0, 64, 75
1, 159472, Control_c, 0, 64, 76
1, 159582, Note_on_c, 0, 77, 61
1, 159590, Control_c, 0, 64, 76
1, 159605, Control_c, 0, 64, 73
1, 159606, Note_on_c, 0, 74, 45
1, 159620, Control_c, 0, 64, 70
1, 159635, Control_c, 0, 64, 66
1, 159648, Note_off_c, 0, 74, 0
1, 159648, Note_on_c, 0, 74, 19
1, 159650, Control_c, 0, 64, 62
1, 159665, Control_c, 0, 64, 58
1, 159679, Control_c, 0, 64, 56
1, 159694, Control_c, 0, 64, 54
1, 159709, Control_c, 0, 64, 52
1, 159724, Control_c, 0, 64, 49
1, 159738, Control_c, 0, 64, 46
1, 159753, Control_c, 0, 64, 40
1, 159768, Control_c, 0, 64, 31
1, 159782, Control_c, 0, 64, 12
1, 159797, Control_c, 0, 64, 0
1, 159822, Note_on_c, 0, 43, 41
1, 159856, Control_c, 0, 64, 18
1, 159871, Control_c, 0, 64, 34
1, 159886, Control_c, 0, 64, 45
1, 159901, Control_c, 0, 64, 53
1, 159915, Control_c, 0, 64, 56
1, 159930, Control_c, 0, 64, 58
1, 159945, Control_c, 0, 64, 59
1, 159960, Control_c, 0, 64, 60
1, 159963, Note_off_c, 0, 43, 51
1, 159975, Control_c, 0, 64, 60
1, 159989, Control_c, 0, 64, 60
1, 160004, Control_c, 0, 64, 56
1, 160019, Control_c, 0, 64, 46
1, 160041, Control_c, 0, 64, 25
1, 160056, Control_c, 0, 64, 0
1, 160079, Note_on_c, 0, 47, 51
1, 160086, Control_c, 0, 64, 20
1, 160101, Control_c, 0, 64, 36
1, 160115, Control_c, 0, 64, 45
1, 160130, Control_c, 0, 64, 53
1, 160145, Control_c, 0, 64, 58
1, 160160, Control_c, 0, 64, 60
1, 160174, Control_c, 0, 64, 62
1, 160189, Control_c, 0, 64, 63
1, 160204, Control_c, 0, 64, 64
1, 160219, Control_c, 0, 64, 65
1, 160234, Note_off_c, 0, 47, 40
1, 160323, Note_on_c, 0, 50, 45
1, 160338, Control_c, 0, 64, 64
1, 160353, Control_c, 0, 64, 63
1, 160368, Control_c, 0, 64, 63
1, 160383, Control_c, 0, 64, 62
1, 160413, Control_c, 0, 64, 62
1, 160424, Note_off_c, 0, 50, 53
1, 160428, Control_c, 0, 64, 61
1, 160443, Control_c, 0, 64, 60
1, 160457, Control_c, 0, 64, 58
1, 160472, Control_c, 0, 64, 57
1, 160487, Control_c, 0, 64, 56
1, 160502, Control_c, 0, 64, 55
1, 160517, Control_c, 0, 64, 54
1, 160532, Control_c, 0, 64, 53
1, 160547, Control_c, 0, 64, 50
1, 160562, Control_c, 0, 64, 48
1, 160571, Note_on_c, 0, 55, 42
1, 160577, Control_c, 0, 64, 45
1, 160591, Control_c, 0, 64, 43
1, 160606, Control_c, 0, 64, 42
1, 160621, Control_c, 0, 64, 44
1, 160636, Control_c, 0, 64, 46
1, 160651, Control_c, 0, 64, 49
1, 160653, Note_off_c, 0, 74, 56
1, 160665, Control_c, 0, 64, 52
1, 160666, Note_off_c, 0, 77, 59
1, 160680, Control_c, 0, 64, 55
1, 160695, Control_c, 0, 64, 58
1, 160710, Control_c, 0, 64, 60
1, 160725, Control_c, 0, 64, 61
1, 160739, Control_c, 0, 64, 63
1, 160754, Control_c, 0, 64, 64
1, 160769, Control_c, 0, 64, 65
1, 160791, Control_c, 0, 64, 66
1, 160806, Control_c, 0, 64, 67
1, 160816, Note_on_c, 0, 77, 51
1, 160821, Control_c, 0, 64, 68
1, 160821, Note_on_c, 0, 74, 46
1, 160836, Control_c, 0, 64, 69
1, 160851, Control_c, 0, 64, 71
1, 160862, Note_off_c, 0, 74, 58
1, 160865, Control_c, 0, 64, 72
1, 160880, Control_c, 0, 64, 73
1, 160888, Note_off_c, 0, 77, 60
1, 160895, Control_c, 0, 64, 74
1, 160910, Control_c, 0, 64, 75
1, 160925, Control_c, 0, 64, 76
1, 160954, Control_c, 0, 64, 76
1, 160984, Control_c, 0, 64, 77
1, 161013, Control_c, 0, 64, 77
1, 161043, Control_c, 0, 64, 77
1, 161057, Note_on_c, 0, 79, 60
1, 161060, Note_on_c, 0, 75, 62
1, 161074, Control_c, 0, 64, 75
1, 161088, Control_c, 0, 64, 72
1, 161103, Control_c, 0, 64, 67
1, 161118, Control_c, 0, 64, 59
1, 161122, Note_off_c, 0, 75, 60
1, 161133, Control_c, 0, 64, 51
1, 161148, Control_c, 0, 64, 44
1, 161155, Note_on_c, 0, 74, 50
1, 161158, Note_on_c, 0, 77, 61
1, 161162, Control_c, 0, 64, 42
1, 161171, Note_off_c, 0, 55, 34
1, 161177, Control_c, 0, 64, 43
1, 161192, Control_c, 0, 64, 48
1, 161194, Note_off_c, 0, 79, 44
1, 161206, Control_c, 0, 64, 53
1, 161221, Control_c, 0, 64, 59
1, 161236, Control_c, 0, 64, 63
1, 161248, Note_off_c, 0, 74, 53
1, 161251, Control_c, 0, 64, 66
1, 161253, Note_on_c, 0, 75, 67
1, 161263, Note_on_c, 0, 72, 57
1, 161266, Control_c, 0, 64, 69
1, 161280, Control_c, 0, 64, 72
1, 161286, Note_off_c, 0, 72, 57
1, 161295, Control_c, 0, 64, 75
1, 161310, Control_c, 0, 64, 77
1, 161325, Control_c, 0, 64, 79
1, 161340, Control_c, 0, 64, 79
1, 161355, Control_c, 0, 64, 80
1, 161356, Note_on_c, 0, 74, 64
1, 161367, Note_on_c, 0, 71, 64
1, 161385, Note_off_c, 0, 71, 64
1, 161385, Note_off_c, 0, 75, 36
1, 161388, Note_off_c, 0, 74, 65
1, 161407, Note_off_c, 0, 77, 47
1, 161429, Control_c, 0, 64, 79
1, 161444, Control_c, 0, 64, 78
1, 161459, Control_c, 0, 64, 74
1, 161474, Control_c, 0, 64, 69
1, 161488, Control_c, 0, 64, 63
1, 161499, Note_on_c, 0, 74, 54
1, 161503, Control_c, 0, 64, 57
1, 161516, Note_on_c, 0, 71, 23
1, 161518, Control_c, 0, 64, 53
1, 161540, Control_c, 0, 64, 50
1, 161554, Control_c, 0, 64, 46
1, 161569, Control_c, 0, 64, 41
1, 161584, Control_c, 0, 64, 30
1, 161599, Control_c, 0, 64, 0
1, 161739, Note_on_c, 0, 43, 56
1, 161747, Control_c, 0, 64, 28
1, 161762, Control_c, 0, 64, 39
1, 161768, Note_off_c, 0, 71, 55
1, 161777, Control_c, 0, 64, 47
1, 161792, Control_c, 0, 64, 51
1, 161807, Control_c, 0, 64, 54
1, 161821, Control_c, 0, 64, 56
1, 161836, Control_c, 0, 64, 58
1, 161851, Control_c, 0, 64, 59
1, 161867, Control_c, 0, 64, 60
1, 161869, Note_off_c, 0, 43, 55
1, 161911, Control_c, 0, 64, 59
1, 161926, Control_c, 0, 64, 55
1, 161941, Control_c, 0, 64, 48
1, 161955, Control_c, 0, 64, 39
1, 161970, Control_c, 0, 64, 27
1, 161984, Note_on_c, 0, 75, 60
1, 161985, Control_c, 0, 64, 0
1, 161996, Note_on_c, 0, 72, 46
1, 161999, Note_on_c, 0, 48, 55
1, 162058, Note_off_c, 0, 74, 53
1, 162089, Control_c, 0, 64, 25
1, 162103, Control_c, 0, 64, 39
1, 162108, Note_off_c, 0, 48, 50
1, 162118, Control_c, 0, 64, 47
1, 162133, Control_c, 0, 64, 52
1, 162148, Control_c, 0, 64, 53
1, 162163, Control_c, 0, 64, 53
1, 162177, Control_c, 0, 64, 54
1, 162192, Control_c, 0, 64, 55
1, 162207, Control_c, 0, 64, 56
1, 162214, Note_on_c, 0, 51, 56
1, 162289, Control_c, 0, 64, 55
1, 162289, Control_c, 0, 67, 126
1, 162295, Note_off_c, 0, 51, 62
1, 162304, Control_c, 0, 67, 124
1, 162318, Control_c, 0, 64, 54
1, 162318, Control_c, 0, 67, 121
1, 162333, Control_c, 0, 64, 53
1, 162333, Control_c, 0, 67, 118
1, 162348, Control_c, 0, 64, 51
1, 162348, Control_c, 0, 67, 116
1, 162362, Control_c, 0, 64, 49
1, 162362, Control_c, 0, 67, 114
1, 162377, Control_c, 0, 64, 44
1, 162377, Control_c, 0, 67, 112
1, 162392, Control_c, 0, 64, 39
1, 162392, Control_c, 0, 67, 111
1, 162407, Control_c, 0, 64, 29
1, 162422, Control_c, 0, 64, 9
1, 162437, Control_c, 0, 64, 0
1, 162467, Control_c, 0, 64, 11
1, 162471, Note_on_c, 0, 55, 61
1, 162482, Control_c, 0, 64, 30
1, 162496, Control_c, 0, 64, 43
1, 162496, Control_c, 0, 67, 111
1, 162511, Control_c, 0, 64, 51
1, 162511, Control_c, 0, 67, 110
1, 162526, Note_off_c, 0, 72, 60
1, 162526, Control_c, 0, 64, 55
1, 162526, Control_c, 0, 67, 110
1, 162541, Control_c, 0, 64, 57
1, 162555, Note_off_c, 0, 55, 61
1, 162556, Control_c, 0, 64, 59
1, 162556, Control_c, 0, 67, 109
1, 162565, Note_off_c, 0, 75, 64
1, 162570, Control_c, 0, 64, 61
1, 162585, Control_c, 0, 64, 63
1, 162585, Control_c, 0, 67, 109
1, 162600, Control_c, 0, 64, 64
1, 162615, Control_c, 0, 64, 65
1, 162630, Control_c, 0, 64, 67
1, 162644, Control_c, 0, 64, 68
1, 162660, Control_c, 0, 64, 69
1, 162675, Control_c, 0, 64, 70
1, 162675, Control_c, 0, 67, 109
1, 162690, Control_c, 0, 64, 71
1, 162697, Note_on_c, 0, 79, 69
1, 162705, Control_c, 0, 64, 72
1, 162707, Note_on_c, 0, 75, 58
1, 162720, Control_c, 0, 64, 74
1, 162720, Control_c, 0, 67, 110
1, 162734, Control_c, 0, 64, 77
1, 162734, Control_c, 0, 67, 110
1, 162738, Note_off_c, 0, 75, 63
1, 162749, Control_c, 0, 64, 79
1, 162764, Note_off_c, 0, 79, 62
1, 162764, Control_c, 0, 64, 81
1, 162764, Control_c, 0, 67, 111
1, 162779, Control_c, 0, 64, 83
1, 162779, Control_c, 0, 67, 112
1, 162793, Control_c, 0, 64, 85
1, 162793, Control_c, 0, 67, 112
1, 162808, Control_c, 0, 64, 88
1, 162808, Control_c, 0, 67, 113
1, 162823, Control_c, 0, 64, 93
1, 162823, Control_c, 0, 67, 113
1, 162838, Control_c, 0, 64, 98
1, 162838, Control_c, 0, 67, 115
1, 162853, Control_c, 0, 64, 106
1, 162853, Control_c, 0, 67, 116
1, 162867, Control_c, 0, 64, 114
1, 162867, Control_c, 0, 67, 117
1, 162882, Control_c, 0, 64, 127
1, 162897, Control_c, 0, 67, 118
1, 162923, Note_on_c, 0, 80, 72
1, 162926, Control_c, 0, 67, 118
1, 162930, Note_on_c, 0, 77, 74
1, 162941, Control_c, 0, 67, 119
1, 162956, Control_c, 0, 67, 119
1, 162971, Control_c, 0, 67, 120
1, 162985, Control_c, 0, 64, 98
1, 162985, Control_c, 0, 67, 121
1, 163000, Control_c, 0, 64, 80
1, 163000, Control_c, 0, 67, 122
1, 163003, Note_off_c, 0, 80, 58
1, 163012, Note_off_c, 0, 77, 62
1, 163015, Control_c, 0, 64, 66
1, 163015, Control_c, 0, 67, 123
1, 163020, Note_on_c, 0, 79, 71
1, 163038, Control_c, 0, 64, 57
1, 163038, Control_c, 0, 67, 123
1, 163039, Note_on_c, 0, 75, 65
1, 163053, Control_c, 0, 64, 57
1, 163067, Control_c, 0, 64, 63
1, 163067, Control_c, 0, 67, 123
1, 163082, Control_c, 0, 64, 68
1, 163097, Control_c, 0, 64, 73
1, 163097, Control_c, 0, 67, 122
1, 163111, Control_c, 0, 64, 80
1, 163111, Control_c, 0, 67, 121
1, 163126, Control_c, 0, 64, 87
1, 163126, Control_c, 0, 67, 121
1, 163131, Note_on_c, 0, 77, 79
1, 163141, Control_c, 0, 64, 96
1, 163141, Control_c, 0, 67, 120
1, 163142, Note_on_c, 0, 74, 77
1, 163156, Control_c, 0, 64, 111
1, 163156, Control_c, 0, 67, 120
1, 163165, Note_off_c, 0, 75, 29
1, 163166, Note_off_c, 0, 74, 67
1, 163171, Control_c, 0, 64, 127
1, 163172, Note_off_c, 0, 79, 60
1, 163185, Control_c, 0, 67, 119
1, 163200, Control_c, 0, 67, 119
1, 163215, Control_c, 0, 67, 118
1, 163219, Note_on_c, 0, 75, 81
1, 163224, Note_off_c, 0, 77, 60
1, 163234, Note_on_c, 0, 72, 67
1, 163258, Note_off_c, 0, 72, 65
1, 163260, Control_c, 0, 67, 118
1, 163271, Note_off_c, 0, 75, 63
1, 163274, Control_c, 0, 67, 118
1, 163319, Control_c, 0, 67, 119
1, 163349, Control_c, 0, 64, 108
1, 163349, Control_c, 0, 67, 119
1, 163354, Note_on_c, 0, 76, 76
1, 163363, Note_on_c, 0, 73, 69
1, 163364, Control_c, 0, 64, 81
1, 163364, Control_c, 0, 67, 120
1, 163378, Control_c, 0, 64, 67
1, 163378, Control_c, 0, 67, 121
1, 163393, Control_c, 0, 64, 57
1, 163393, Control_c, 0, 67, 122
1, 163408, Control_c, 0, 64, 49
1, 163423, Control_c, 0, 64, 43
1, 163423, Control_c, 0, 67, 122
1, 163438, Control_c, 0, 64, 39
1, 163438, Control_c, 0, 67, 123
1, 163453, Control_c, 0, 64, 33
1, 163453, Control_c, 0, 67, 123
1, 163468, Control_c, 0, 64, 23
1, 163468, Control_c, 0, 67, 124
1, 163483, Control_c, 0, 64, 0
1, 163498, Control_c, 0, 67, 123
1, 163528, Control_c, 0, 67, 123
1, 163557, Control_c, 0, 67, 122
1, 163572, Control_c, 0, 67, 122
1, 163573, Note_on_c, 0, 43, 73
1, 163616, Control_c, 0, 67, 122
1, 163631, Control_c, 0, 64, 15
1, 163646, Control_c, 0, 64, 23
1, 163646, Control_c, 0, 67, 123
1, 163661, Control_c, 0, 64, 31
1, 163661, Control_c, 0, 67, 124
1, 163676, Control_c, 0, 64, 37
1, 163676, Control_c, 0, 67, 124
1, 163690, Control_c, 0, 64, 41
1, 163690, Control_c, 0, 67, 125
1, 163705, Control_c, 0, 64, 43
1, 163705, Control_c, 0, 67, 125
1, 163720, Control_c, 0, 67, 126
1, 163749, Control_c, 0, 64, 42
1, 163764, Control_c, 0, 64, 42
1, 163764, Control_c, 0, 67, 126
1, 163787, Control_c, 0, 64, 40
1, 163787, Control_c, 0, 67, 125
1, 163802, Control_c, 0, 64, 36
1, 163805, Note_off_c, 0, 43, 62
1, 163807, Note_on_c, 0, 74, 71
1, 163807, Note_on_c, 0, 77, 80
1, 163809, Note_off_c, 0, 73, 35
1, 163813, Note_on_c, 0, 47, 68
1, 163816, Control_c, 0, 64, 30
1, 163831, Control_c, 0, 64, 25
1, 163835, Note_off_c, 0, 76, 57
1, 163846, Control_c, 0, 64, 24
1, 163846, Control_c, 0, 67, 126
1, 163861, Control_c, 0, 64, 25
1, 163876, Control_c, 0, 64, 26
1, 163885, Note_off_c, 0, 47, 63
1, 163905, Control_c, 0, 64, 26
1, 163905, Control_c, 0, 67, 125
1, 163914, Note_on_c, 0, 43, 71
1, 163920, Control_c, 0, 67, 125
1, 163934, Control_c, 0, 67, 124
1, 163949, Control_c, 0, 67, 122
1, 163964, Control_c, 0, 67, 122
1, 163979, Control_c, 0, 64, 25
1, 163979, Control_c, 0, 67, 121
1, 164018, Note_on_c, 0, 50, 63
1, 164018, Note_off_c, 0, 43, 64
1, 164023, Control_c, 0, 64, 25
1, 164023, Control_c, 0, 67, 121
1, 164053, Control_c, 0, 67, 120
1, 164082, Control_c, 0, 64, 24
1, 164087, Note_off_c, 0, 50, 55
1, 164097, Control_c, 0, 64, 23
1, 164110, Note_on_c, 0, 47, 71
1, 164112, Control_c, 0, 64, 20
1, 164112, Control_c, 0, 67, 121
1, 164127, Control_c, 0, 64, 14
1, 164142, Control_c, 0, 64, 0
1, 164142, Control_c, 0, 67, 121
1, 164172, Control_c, 0, 67, 122
1, 164202, Note_off_c, 0, 47, 63
1, 164242, Note_on_c, 0, 55, 76
1, 164246, Control_c, 0, 64, 28
1, 164246, Control_c, 0, 67, 121
1, 164261, Control_c, 0, 64, 44
1, 164261, Control_c, 0, 67, 121
1, 164276, Control_c, 0, 64, 54
1, 164276, Control_c, 0, 67, 120
1, 164279, Note_off_c, 0, 55, 68
1, 164291, Control_c, 0, 64, 57
1, 164291, Control_c, 0, 67, 119
1, 164306, Control_c, 0, 64, 59
1, 164306, Control_c, 0, 67, 119
1, 164321, Control_c, 0, 64, 61
1, 164321, Control_c, 0, 67, 118
1, 164336, Control_c, 0, 64, 63
1, 164336, Control_c, 0, 67, 117
1, 164350, Control_c, 0, 64, 66
1, 164350, Control_c, 0, 67, 117
1, 164358, Note_off_c, 0, 74, 61
1, 164365, Control_c, 0, 64, 69
1, 164365, Control_c, 0, 67, 116
1, 164377, Note_off_c, 0, 77, 62
1, 164380, Control_c, 0, 64, 72
1, 164380, Control_c, 0, 67, 116
1, 164395, Control_c, 0, 64, 75
1, 164410, Control_c, 0, 64, 78
1, 164425, Control_c, 0, 64, 80
1, 164439, Control_c, 0, 64, 83
1, 164454, Control_c, 0, 64, 86
1, 164454, Control_c, 0, 67, 116
1, 164458, Note_on_c, 0, 77, 73
1, 164469, Control_c, 0, 64, 91
1, 164477, Note_on_c, 0, 74, 62
1, 164484, Control_c, 0, 64, 95
1, 164497, Note_off_c, 0, 74, 65
1, 164499, Control_c, 0, 64, 99
1, 164499, Control_c, 0, 67, 117
1, 164505, Note_off_c, 0, 77, 64
1, 164513, Control_c, 0, 64, 101
1, 164513, Control_c, 0, 67, 117
1, 164535, Control_c, 0, 64, 103
1, 164535, Control_c, 0, 67, 118
1, 164550, Control_c, 0, 64, 105
1, 164550, Control_c, 0, 67, 119
1, 164565, Control_c, 0, 64, 107
1, 164565, Control_c, 0, 67, 120
1, 164580, Control_c, 0, 64, 111
1, 164580, Control_c, 0, 67, 121
1, 164595, Control_c, 0, 64, 121
1, 164595, Control_c, 0, 67, 123
1, 164610, Control_c, 0, 64, 127
1, 164610, Control_c, 0, 67, 124
1, 164625, Control_c, 0, 67, 124
1, 164639, Control_c, 0, 67, 125
1, 164654, Control_c, 0, 67, 125
1, 164669, Control_c, 0, 67, 126
1, 164683, Control_c, 0, 67, 127
1, 164698, Control_c, 0, 67, 127
1, 164713, Note_on_c, 0, 79, 64
1, 164714, Note_on_c, 0, 75, 64
1, 164728, Control_c, 0, 64, 110
1, 164743, Control_c, 0, 64, 94
1, 164757, Control_c, 0, 64, 80
1, 164772, Control_c, 0, 64, 67
1, 164779, Note_off_c, 0, 75, 66
1, 164787, Control_c, 0, 64, 55
1, 164802, Note_on_c, 0, 77, 65
1, 164802, Control_c, 0, 64, 45
1, 164810, Note_on_c, 0, 74, 62
1, 164816, Note_off_c, 0, 79, 51
1, 164817, Control_c, 0, 64, 39
1, 164831, Control_c, 0, 64, 37
1, 164846, Control_c, 0, 64, 38
1, 164847, Note_off_c, 0, 74, 57
1, 164861, Control_c, 0, 64, 46
1, 164876, Control_c, 0, 64, 56
1, 164890, Control_c, 0, 64, 64
1, 164905, Control_c, 0, 64, 68
1, 164907, Note_on_c, 0, 72, 40
1, 164920, Control_c, 0, 64, 74
1, 164925, Note_on_c, 0, 75, 61
1, 164935, Control_c, 0, 64, 81
1, 164946, Note_off_c, 0, 72, 55
1, 164950, Control_c, 0, 64, 89
1, 164965, Control_c, 0, 64, 98
1, 164972, Poly_aftertouch_c, 0, 74, 0
1, 164980, Control_c, 0, 64, 108
1, 164994, Note_on_c, 0, 74, 45
1, 164994, Control_c, 0, 64, 127
1, 164997, Note_off_c, 0, 75, 54
1, 165027, Note_on_c, 0, 71, 48
1, 165054, Note_off_c, 0, 71, 53
1, 165054, Note_off_c, 0, 74, 63
1, 165055, Note_off_c, 0, 77, 61
1, 165143, Control_c, 0, 64, 99
1, 165149, Note_on_c, 0, 75, 59
1, 165158, Control_c, 0, 64, 83
1, 165173, Control_c, 0, 64, 72
1, 165176, Note_on_c, 0, 72, 44
1, 165188, Control_c, 0, 64, 63
1, 165203, Control_c, 0, 64, 58
1, 165218, Control_c, 0, 64, 56
1, 165218, Note_off_c, 0, 72, 0
1, 165218, Note_on_c, 0, 72, 5
1, 165233, Control_c, 0, 64, 54
1, 165247, Control_c, 0, 64, 51
1, 165262, Control_c, 0, 64, 46
1, 165284, Control_c, 0, 64, 38
1, 165299, Control_c, 0, 64, 24
1, 165313, Control_c, 0, 64, 8
1, 165328, Control_c, 0, 64, 0
1, 165396, Note_on_c, 0, 60, 50
1, 165403, Control_c, 0, 64, 18
1, 165418, Control_c, 0, 64, 36
1, 165433, Control_c, 0, 64, 49
1, 165435, Note_off_c, 0, 60, 62
1, 165448, Control_c, 0, 64, 56
1, 165462, Control_c, 0, 64, 60
1, 165477, Control_c, 0, 64, 62
1, 165477, Control_c, 0, 67, 126
1, 165492, Control_c, 0, 64, 65
1, 165492, Control_c, 0, 67, 123
1, 165503, Note_on_c, 0, 48, 40
1, 165506, Control_c, 0, 64, 67
1, 165506, Control_c, 0, 67, 120
1, 165521, Control_c, 0, 64, 70
1, 165521, Control_c, 0, 67, 117
1, 165536, Note_off_c, 0, 48, 42
1, 165536, Control_c, 0, 64, 72
1, 165536, Control_c, 0, 67, 114
1, 165551, Control_c, 0, 64, 73
1, 165551, Control_c, 0, 67, 112
1, 165566, Control_c, 0, 64, 73
1, 165566, Control_c, 0, 67, 112
1, 165580, Control_c, 0, 67, 111
1, 165616, Note_on_c, 0, 76, 72
1, 165637, Note_on_c, 0, 73, 54
1, 165654, Control_c, 0, 67, 112
1, 165669, Control_c, 0, 64, 73
1, 165671, Note_off_c, 0, 72, 55
1, 165684, Control_c, 0, 64, 71
1, 165699, Control_c, 0, 64, 67
1, 165699, Control_c, 0, 67, 112
1, 165713, Control_c, 0, 64, 62
1, 165713, Control_c, 0, 67, 113
1, 165721, Note_off_c, 0, 75, 35
1, 165728, Control_c, 0, 64, 56
1, 165743, Control_c, 0, 64, 50
1, 165758, Control_c, 0, 64, 44
1, 165773, Control_c, 0, 64, 35
1, 165787, Control_c, 0, 64, 18
1, 165787, Control_c, 0, 67, 112
1, 165802, Control_c, 0, 64, 0
1, 165802, Control_c, 0, 67, 112
1, 165817, Control_c, 0, 64, 19
1, 165817, Control_c, 0, 67, 111
1, 165832, Control_c, 0, 64, 41
1, 165832, Control_c, 0, 67, 110
1, 165842, Note_on_c, 0, 58, 63
1, 165848, Control_c, 0, 64, 53
1, 165848, Control_c, 0, 67, 107
1, 165863, Control_c, 0, 64, 59
1, 165863, Control_c, 0, 67, 101
1, 165877, Control_c, 0, 64, 61
1, 165877, Control_c, 0, 67, 92
1, 165886, Note_off_c, 0, 58, 61
1, 165892, Control_c, 0, 64, 63
1, 165892, Control_c, 0, 67, 83
1, 165907, Control_c, 0, 64, 67
1, 165907, Control_c, 0, 67, 72
1, 165921, Control_c, 0, 64, 70
1, 165921, Control_c, 0, 67, 59
1, 165936, Control_c, 0, 64, 74
1, 165936, Control_c, 0, 67, 44
1, 165939, Note_on_c, 0, 46, 74
1, 165951, Control_c, 0, 64, 78
1, 165951, Control_c, 0, 67, 29
1, 165965, Note_off_c, 0, 46, 67
1, 165966, Control_c, 0, 64, 80
1, 165966, Control_c, 0, 67, 15
1, 165981, Control_c, 0, 64, 82
1, 165981, Control_c, 0, 67, 0
1, 165996, Control_c, 0, 64, 83
1, 166068, Note_on_c, 0, 77, 84
1, 166092, Control_c, 0, 64, 82
1, 166102, Note_on_c, 0, 72, 58
1, 166107, Control_c, 0, 64, 80
1, 166122, Control_c, 0, 64, 74
1, 166123, Note_off_c, 0, 73, 50
1, 166136, Control_c, 0, 64, 68
1, 166140, Note_off_c, 0, 76, 52
1, 166151, Control_c, 0, 64, 61
1, 166166, Control_c, 0, 64, 53
1, 166181, Control_c, 0, 64, 47
1, 166196, Control_c, 0, 64, 40
1, 166211, Control_c, 0, 64, 29
1, 166226, Control_c, 0, 64, 9
1, 166240, Control_c, 0, 64, 0
1, 166255, Control_c, 0, 64, 25
1, 166270, Control_c, 0, 64, 45
1, 166285, Control_c, 0, 64, 57
1, 166300, Control_c, 0, 64, 62
1, 166306, Note_on_c, 0, 57, 80
1, 166315, Control_c, 0, 64, 64
1, 166329, Control_c, 0, 64, 67
1, 166337, Note_off_c, 0, 57, 64
1, 166344, Control_c, 0, 64, 70
1, 166359, Control_c, 0, 64, 75
1, 166374, Control_c, 0, 64, 79
1, 166386, Note_off_c, 0, 72, 58
1, 166389, Control_c, 0, 64, 83
1, 166398, Note_on_c, 0, 45, 86
1, 166403, Control_c, 0, 64, 86
1, 166418, Control_c, 0, 64, 88
1, 166425, Note_off_c, 0, 45, 66
1, 166433, Control_c, 0, 64, 89
1, 166533, Note_on_c, 0, 78, 91
1, 166536, Control_c, 0, 64, 87
1, 166547, Note_on_c, 0, 72, 71
1, 166551, Control_c, 0, 64, 81
1, 166566, Control_c, 0, 64, 74
1, 166581, Control_c, 0, 64, 66
1, 166596, Control_c, 0, 64, 57
1, 166610, Control_c, 0, 64, 48
1, 166622, Note_off_c, 0, 77, 38
1, 166625, Control_c, 0, 64, 37
1, 166640, Control_c, 0, 64, 0
1, 166730, Control_c, 0, 64, 28
1, 166744, Control_c, 0, 64, 47
1, 166751, Note_on_c, 0, 56, 77
1, 166754, Note_off_c, 0, 72, 58
1, 166759, Control_c, 0, 64, 57
1, 166782, Control_c, 0, 64, 62
1, 166797, Control_c, 0, 64, 66
1, 166812, Control_c, 0, 64, 69
1, 166812, Control_c, 0, 67, 8
1, 166822, Note_off_c, 0, 56, 57
1, 166826, Control_c, 0, 64, 74
1, 166826, Control_c, 0, 67, 11
1, 166841, Control_c, 0, 64, 79
1, 166841, Control_c, 0, 67, 14
1, 166850, Note_on_c, 0, 44, 72
1, 166856, Control_c, 0, 64, 83
1, 166856, Control_c, 0, 67, 15
1, 166868, Note_off_c, 0, 78, 31
1, 166871, Control_c, 0, 64, 86
1, 166885, Control_c, 0, 64, 87
1, 166885, Control_c, 0, 67, 15
1, 166900, Control_c, 0, 67, 16
1, 166915, Control_c, 0, 64, 87
1, 166915, Control_c, 0, 67, 19
1, 166916, Note_off_c, 0, 44, 59
1, 166930, Control_c, 0, 64, 84
1, 166930, Control_c, 0, 67, 23
1, 166945, Control_c, 0, 64, 77
1, 166945, Control_c, 0, 67, 26
1, 166959, Control_c, 0, 64, 67
1, 166959, Control_c, 0, 67, 29
1, 166967, Note_on_c, 0, 43, 78
1, 166974, Control_c, 0, 64, 55
1, 166974, Control_c, 0, 67, 32
1, 166989, Control_c, 0, 64, 37
1, 166989, Control_c, 0, 67, 35
1, 167004, Control_c, 0, 64, 0
1, 167004, Control_c, 0, 67, 40
1, 167019, Control_c, 0, 67, 47
1, 167033, Control_c, 0, 67, 58
1, 167048, Control_c, 0, 67, 70
1, 167063, Control_c, 0, 67, 83
1, 167067, Note_on_c, 0, 55, 82
1, 167078, Control_c, 0, 67, 96
1, 167086, Note_off_c, 0, 43, 63
1, 167093, Control_c, 0, 64, 39
1, 167093, Control_c, 0, 67, 104
1, 167108, Control_c, 0, 64, 54
1, 167108, Control_c, 0, 67, 107
1, 167120, Note_off_c, 0, 55, 66
1, 167123, Control_c, 0, 64, 60
1, 167123, Control_c, 0, 67, 110
1, 167138, Control_c, 0, 64, 62
1, 167138, Control_c, 0, 67, 111
1, 167152, Control_c, 0, 64, 65
1, 167152, Control_c, 0, 67, 112
1, 167165, Note_on_c, 0, 71, 69
1, 167167, Control_c, 0, 64, 67
1, 167167, Control_c, 0, 67, 114
1, 167182, Control_c, 0, 64, 70
1, 167182, Control_c, 0, 67, 115
1, 167197, Control_c, 0, 64, 72
1, 167197, Control_c, 0, 67, 117
1, 167212, Control_c, 0, 64, 73
1, 167212, Control_c, 0, 67, 119
1, 167227, Control_c, 0, 64, 74
1, 167227, Control_c, 0, 67, 122
1, 167241, Note_off_c, 0, 71, 58
1, 167242, Control_c, 0, 64, 73
1, 167242, Control_c, 0, 67, 126
1, 167257, Control_c, 0, 64, 73
1, 167257, Control_c, 0, 67, 127
1, 167266, Note_on_c, 0, 79, 78
1, 167272, Control_c, 0, 64, 70
1, 167286, Control_c, 0, 64, 66
1, 167301, Control_c, 0, 64, 60
1, 167316, Control_c, 0, 64, 52
1, 167331, Control_c, 0, 64, 44
1, 167346, Control_c, 0, 64, 37
1, 167360, Control_c, 0, 64, 28
1, 167373, Note_on_c, 0, 77, 75
1, 167375, Control_c, 0, 64, 19
1, 167390, Control_c, 0, 64, 0
1, 167411, Note_off_c, 0, 79, 37
1, 167470, Note_on_c, 0, 75, 76
1, 167531, Note_off_c, 0, 77, 61
1, 167582, Note_on_c, 0, 74, 77
1, 167592, Note_off_c, 0, 75, 62
1, 167664, Note_off_c, 0, 74, 64
1, 167670, Note_on_c, 0, 72, 74
1, 167748, Note_off_c, 0, 72, 0
1, 167770, Note_on_c, 0, 72, 21
1, 167773, Note_on_c, 0, 71, 76
1, 167787, Note_off_c, 0, 72, 49
1, 167873, Note_on_c, 0, 68, 79
1, 167901, Note_off_c, 0, 71, 61
1, 167968, Note_on_c, 0, 67, 73
1, 167979, Note_off_c, 0, 68, 63
1, 168044, Note_off_c, 0, 67, 65
1, 168048, Control_c, 0, 64, 8
1, 168054, Note_on_c, 0, 65, 76
1, 168063, Control_c, 0, 64, 14
1, 168063, Control_c, 0, 67, 123
1, 168078, Control_c, 0, 64, 18
1, 168078, Control_c, 0, 67, 116
1, 168092, Control_c, 0, 64, 20
1, 168092, Control_c, 0, 67, 108
1, 168107, Control_c, 0, 64, 23
1, 168107, Control_c, 0, 67, 99
1, 168122, Control_c, 0, 64, 26
1, 168122, Control_c, 0, 67, 90
1, 168137, Control_c, 0, 64, 32
1, 168137, Control_c, 0, 67, 82
1, 168152, Control_c, 0, 64, 39
1, 168152, Control_c, 0, 67, 76
1, 168161, Note_on_c, 0, 63, 77
1, 168166, Note_off_c, 0, 65, 59
1, 168167, Control_c, 0, 64, 46
1, 168167, Control_c, 0, 67, 70
1, 168181, Control_c, 0, 64, 49
1, 168181, Control_c, 0, 67, 65
1, 168196, Control_c, 0, 64, 50
1, 168196, Control_c, 0, 67, 62
1, 168211, Control_c, 0, 67, 60
1, 168226, Control_c, 0, 67, 59
1, 168255, Note_on_c, 0, 62, 81
1, 168279, Control_c, 0, 64, 49
1, 168294, Control_c, 0, 64, 48
1, 168297, Note_off_c, 0, 63, 61
1, 168309, Control_c, 0, 64, 45
1, 168309, Control_c, 0, 67, 60
1, 168324, Control_c, 0, 64, 43
1, 168324, Control_c, 0, 67, 60
1, 168338, Control_c, 0, 64, 41
1, 168338, Control_c, 0, 67, 61
1, 168353, Control_c, 0, 64, 40
1, 168358, Note_on_c, 0, 60, 77
1, 168360, Note_off_c, 0, 62, 64
1, 168368, Control_c, 0, 64, 40
1, 168398, Control_c, 0, 64, 41
1, 168412, Control_c, 0, 64, 42
1, 168427, Control_c, 0, 64, 45
1, 168442, Control_c, 0, 64, 49
1, 168456, Control_c, 0, 64, 52
1, 168461, Note_on_c, 0, 59, 79
1, 168471, Control_c, 0, 64, 54
1, 168486, Control_c, 0, 64, 56
1, 168492, Note_off_c, 0, 60, 63
1, 168501, Control_c, 0, 64, 58
1, 168516, Control_c, 0, 64, 60
1, 168530, Control_c, 0, 64, 61
1, 168545, Control_c, 0, 64, 63
1, 168560, Note_off_c, 0, 59, 65
1, 168560, Control_c, 0, 64, 64
1, 168565, Note_on_c, 0, 56, 72
1, 168575, Control_c, 0, 64, 65
1, 168590, Control_c, 0, 64, 66
1, 168604, Control_c, 0, 64, 66
1, 168667, Note_on_c, 0, 55, 79
1, 168694, Control_c, 0, 64, 66
1, 168694, Control_c, 0, 67, 61
1, 168709, Control_c, 0, 64, 65
1, 168723, Control_c, 0, 64, 64
1, 168725, Note_off_c, 0, 56, 60
1, 168738, Control_c, 0, 64, 62
1, 168753, Control_c, 0, 64, 60
1, 168768, Control_c, 0, 64, 57
1, 168775, Note_on_c, 0, 53, 73
1, 168783, Control_c, 0, 64, 54
1, 168783, Control_c, 0, 67, 62
1, 168797, Control_c, 0, 64, 52
1, 168812, Note_off_c, 0, 55, 63
1, 168812, Control_c, 0, 64, 51
1, 168827, Control_c, 0, 64, 50
1, 168827, Control_c, 0, 67, 62
1, 168841, Control_c, 0, 64, 49
1, 168856, Control_c, 0, 64, 47
1, 168856, Control_c, 0, 67, 63
1, 168871, Note_on_c, 0, 80, 71
1, 168871, Control_c, 0, 64, 46
1, 168871, Control_c, 0, 67, 63
1, 168886, Control_c, 0, 64, 45
1, 168901, Control_c, 0, 64, 43
1, 168901, Control_c, 0, 67, 64
1, 168915, Control_c, 0, 64, 41
1, 168915, Control_c, 0, 67, 64
1, 168930, Control_c, 0, 64, 38
1, 168930, Control_c, 0, 67, 65
1, 168945, Control_c, 0, 64, 37
1, 168945, Control_c, 0, 67, 65
1, 168960, Control_c, 0, 64, 36
1, 168960, Control_c, 0, 67, 66
1, 168973, Note_off_c, 0, 53, 63
1, 168974, Control_c, 0, 64, 36
1, 168974, Control_c, 0, 67, 67
1, 168980, Note_on_c, 0, 79, 75
1, 168989, Control_c, 0, 64, 34
1, 168989, Control_c, 0, 67, 68
1, 169004, Control_c, 0, 64, 32
1, 169004, Control_c, 0, 67, 69
1, 169027, Control_c, 0, 64, 29
1, 169027, Control_c, 0, 67, 70
1, 169042, Control_c, 0, 64, 27
1, 169042, Control_c, 0, 67, 72
1, 169057, Control_c, 0, 64, 27
1, 169057, Control_c, 0, 67, 73
1, 169072, Control_c, 0, 67, 74
1, 169087, Control_c, 0, 64, 26
1, 169087, Control_c, 0, 67, 78
1, 169096, Note_on_c, 0, 77, 74
1, 169102, Control_c, 0, 64, 25
1, 169102, Control_c, 0, 67, 83
1, 169117, Control_c, 0, 64, 24
1, 169117, Control_c, 0, 67, 88
1, 169132, Control_c, 0, 64, 21
1, 169132, Control_c, 0, 67, 95
1, 169133, Note_off_c, 0, 80, 47
1, 169147, Control_c, 0, 64, 19
1, 169147, Control_c, 0, 67, 101
1, 169150, Note_off_c, 0, 79, 55
1, 169161, Control_c, 0, 64, 15
1, 169161, Control_c, 0, 67, 106
1, 169176, Control_c, 0, 64, 12
1, 169176, Control_c, 0, 67, 111
1, 169189, Note_on_c, 0, 75, 67
1, 169191, Control_c, 0, 64, 0
1, 169191, Control_c, 0, 67, 114
1, 169206, Control_c, 0, 67, 118
1, 169215, Note_off_c, 0, 77, 61
1, 169221, Control_c, 0, 67, 120
1, 169235, Control_c, 0, 67, 124
1, 169250, Control_c, 0, 67, 127
1, 169265, Control_c, 0, 67, 127
1, 169279, Note_off_c, 0, 75, 64
1, 169282, Note_on_c, 0, 74, 64
1, 169362, Note_off_c, 0, 74, 62
1, 169378, Note_on_c, 0, 73, 61
1, 169460, Note_off_c, 0, 73, 63
1, 169480, Note_on_c, 0, 74, 65
1, 169531, Control_c, 0, 64, 12
1, 169546, Control_c, 0, 64, 18
1, 169561, Control_c, 0, 64, 22
1, 169564, Note_off_c, 0, 74, 60
1, 169576, Control_c, 0, 64, 26
1, 169588, Note_on_c, 0, 75, 55
1, 169590, Control_c, 0, 64, 29
1, 169605, Control_c, 0, 64, 31
1, 169620, Control_c, 0, 64, 31
1, 169635, Control_c, 0, 64, 31
1, 169664, Control_c, 0, 64, 30
1, 169673, Note_off_c, 0, 75, 60
1, 169679, Control_c, 0, 64, 30
1, 169687, Note_on_c, 0, 74, 58
1, 169694, Control_c, 0, 64, 29
1, 169709, Control_c, 0, 64, 28
1, 169724, Control_c, 0, 64, 29
1, 169738, Control_c, 0, 64, 32
1, 169753, Control_c, 0, 64, 36
1, 169776, Control_c, 0, 64, 40
1, 169780, Note_off_c, 0, 74, 57
1, 169789, Note_on_c, 0, 77, 56
1, 169791, Control_c, 0, 64, 42
1, 169805, Control_c, 0, 64, 42
1, 169820, Control_c, 0, 64, 42
1, 169883, Note_on_c, 0, 75, 63
1, 169892, Note_off_c, 0, 77, 56
1, 169895, Control_c, 0, 64, 42
1, 169910, Control_c, 0, 64, 44
1, 169925, Control_c, 0, 64, 47
1, 169940, Control_c, 0, 64, 48
1, 169955, Control_c, 0, 64, 49
1, 169979, Note_on_c, 0, 79, 66
1, 169990, Note_off_c, 0, 75, 63
1, 169999, Control_c, 0, 64, 49
1, 170068, Note_off_c, 0, 79, 64
1, 170070, Note_on_c, 0, 77, 72
1, 170132, Control_c, 0, 64, 48
1, 170147, Control_c, 0, 64, 47
1, 170162, Control_c, 0, 64, 46
1, 170172, Note_on_c, 0, 80, 71
1, 170176, Control_c, 0, 64, 45
1, 170191, Control_c, 0, 64, 44
1, 170198, Note_off_c, 0, 77, 57
1, 170206, Control_c, 0, 64, 43
1, 170220, Control_c, 0, 64, 42
1, 170235, Control_c, 0, 64, 41
1, 170250, Control_c, 0, 64, 39
1, 170259, Note_on_c, 0, 79, 75
1, 170265, Control_c, 0, 64, 39
1, 170280, Control_c, 0, 64, 38
1, 170287, Note_off_c, 0, 80, 62
1, 170294, Control_c, 0, 64, 37
1, 170309, Control_c, 0, 64, 36
1, 170324, Control_c, 0, 64, 35
1, 170339, Control_c, 0, 64, 35
1, 170367, Note_on_c, 0, 82, 81
1, 170383, Control_c, 0, 64, 35
1, 170384, Note_off_c, 0, 79, 61
1, 170398, Control_c, 0, 64, 37
1, 170413, Control_c, 0, 64, 39
1, 170427, Control_c, 0, 64, 43
1, 170442, Control_c, 0, 64, 46
1, 170457, Control_c, 0, 64, 48
1, 170468, Note_on_c, 0, 80, 79
1, 170472, Control_c, 0, 64, 49
1, 170487, Control_c, 0, 64, 50
1, 170501, Control_c, 0, 64, 52
1, 170524, Control_c, 0, 64, 53
1, 170539, Control_c, 0, 64, 54
1, 170542, Note_off_c, 0, 82, 58
1, 170553, Control_c, 0, 64, 54
1, 170568, Control_c, 0, 64, 55
1, 170572, Note_on_c, 0, 79, 70
1, 170583, Note_off_c, 0, 80, 62
1, 170627, Control_c, 0, 64, 55
1, 170643, Control_c, 0, 64, 56
1, 170653, Note_off_c, 0, 79, 60
1, 170658, Control_c, 0, 64, 56
1, 170664, Note_on_c, 0, 77, 72
1, 170727, Note_off_c, 0, 77, 56
1, 170767, Note_on_c, 0, 75, 69
1, 170791, Control_c, 0, 64, 56
1, 170806, Control_c, 0, 64, 55
1, 170821, Control_c, 0, 64, 53
1, 170836, Control_c, 0, 64, 52
1, 170849, Note_off_c, 0, 75, 63
1, 170850, Control_c, 0, 64, 50
1, 170861, Note_on_c, 0, 74, 69
1, 170865, Control_c, 0, 64, 48
1, 170880, Control_c, 0, 64, 47
1, 170895, Control_c, 0, 64, 46
1, 170950, Note_off_c, 0, 74, 45
1, 170962, Note_on_c, 0, 73, 72
1, 171043, Note_off_c, 0, 73, 60
1, 171058, Control_c, 0, 64, 47
1, 171061, Note_on_c, 0, 74, 73
1, 171073, Control_c, 0, 64, 47
1, 171088, Control_c, 0, 64, 49
1, 171103, Control_c, 0, 64, 51
1, 171117, Control_c, 0, 64, 53
1, 171129, Note_off_c, 0, 74, 60
1, 171132, Control_c, 0, 64, 54
1, 171147, Control_c, 0, 64, 54
1, 171153, Note_on_c, 0, 75, 73
1, 171162, Control_c, 0, 64, 55
1, 171177, Control_c, 0, 64, 57
1, 171192, Control_c, 0, 64, 58
1, 171245, Note_on_c, 0, 74, 75
1, 171246, Note_off_c, 0, 75, 60
1, 171318, Control_c, 0, 64, 58
1, 171332, Control_c, 0, 64, 57
1, 171347, Control_c, 0, 64, 56
1, 171350, Note_off_c, 0, 74, 59
1, 171352, Note_on_c, 0, 77, 77
1, 171362, Control_c, 0, 64, 54
1, 171377, Control_c, 0, 64, 53
1, 171391, Control_c, 0, 64, 51
1, 171406, Control_c, 0, 64, 51
1, 171436, Control_c, 0, 64, 50
1, 171450, Note_on_c, 0, 75, 79
1, 171452, Control_c, 0, 64, 48
1, 171466, Control_c, 0, 64, 46
1, 171481, Control_c, 0, 64, 43
1, 171496, Control_c, 0, 64, 39
1, 171511, Control_c, 0, 64, 34
1, 171526, Control_c, 0, 64, 26
1, 171540, Control_c, 0, 64, 0
1, 171551, Note_on_c, 0, 74, 76
1, 171615, Note_off_c, 0, 75, 53
1, 171635, Note_on_c, 0, 72, 77
1, 171645, Control_c, 0, 64, 24
1, 171660, Control_c, 0, 64, 38
1, 171665, Note_off_c, 0, 74, 64
1, 171674, Control_c, 0, 64, 48
1, 171689, Control_c, 0, 64, 53
1, 171697, Note_off_c, 0, 72, 63
1, 171704, Control_c, 0, 64, 57
1, 171719, Control_c, 0, 64, 59
1, 171719, Control_c, 0, 67, 127
1, 171734, Control_c, 0, 64, 61
1, 171734, Control_c, 0, 67, 124
1, 171748, Control_c, 0, 64, 62
1, 171748, Control_c, 0, 67, 122
1, 171763, Control_c, 0, 64, 64
1, 171763, Control_c, 0, 67, 119
1, 171773, Note_on_c, 0, 72, 76
1, 171778, Control_c, 0, 64, 65
1, 171778, Control_c, 0, 67, 115
1, 171792, Control_c, 0, 64, 65
1, 171792, Control_c, 0, 67, 111
1, 171807, Control_c, 0, 64, 66
1, 171807, Control_c, 0, 67, 107
1, 171822, Control_c, 0, 64, 67
1, 171822, Control_c, 0, 67, 104
1, 171837, Control_c, 0, 64, 67
1, 171837, Control_c, 0, 67, 101
1, 171848, Note_off_c, 0, 77, 35
1, 171852, Control_c, 0, 67, 99
1, 171866, Control_c, 0, 64, 68
1, 171866, Control_c, 0, 67, 96
1, 171881, Control_c, 0, 64, 68
1, 171881, Control_c, 0, 67, 93
1, 171896, Control_c, 0, 67, 90
1, 171911, Control_c, 0, 67, 86
1, 171926, Control_c, 0, 67, 83
1, 171940, Control_c, 0, 67, 81
1, 171955, Control_c, 0, 67, 79
1, 171970, Control_c, 0, 67, 79
1, 171990, Note_on_c, 0, 62, 51
1, 171993, Note_on_c, 0, 65, 47
1, 172003, Note_on_c, 0, 55, 42
1, 172022, Control_c, 0, 64, 68
1, 172037, Control_c, 0, 64, 67
1, 172040, Note_off_c, 0, 62, 62
1, 172043, Note_off_c, 0, 65, 58
1, 172047, Note_off_c, 0, 55, 52
1, 172052, Control_c, 0, 64, 65
1, 172067, Control_c, 0, 64, 63
1, 172081, Control_c, 0, 64, 62
1, 172096, Control_c, 0, 64, 62
1, 172096, Control_c, 0, 67, 79
1, 172111, Control_c, 0, 64, 61
1, 172140, Control_c, 0, 64, 61
1, 172155, Control_c, 0, 64, 60
1, 172170, Control_c, 0, 64, 59
1, 172185, Control_c, 0, 64, 58
1, 172220, Note_on_c, 0, 62, 52
1, 172223, Note_on_c, 0, 65, 50
1, 172228, Note_on_c, 0, 55, 43
1, 172229, Control_c, 0, 64, 58
1, 172229, Control_c, 0, 67, 80
1, 172260, Control_c, 0, 64, 57
1, 172265, Note_off_c, 0, 62, 63
1, 172266, Note_off_c, 0, 65, 61
1, 172271, Note_off_c, 0, 55, 62
1, 172290, Control_c, 0, 64, 57
1, 172334, Control_c, 0, 64, 56
1, 172363, Control_c, 0, 64, 56
1, 172393, Control_c, 0, 67, 79
1, 172408, Control_c, 0, 64, 55
1, 172436, Note_on_c, 0, 65, 53
1, 172437, Note_on_c, 0, 62, 52
1, 172441, Note_on_c, 0, 55, 45
1, 172453, Control_c, 0, 64, 55
1, 172468, Control_c, 0, 64, 54
1, 172468, Control_c, 0, 67, 79
1, 172478, Note_off_c, 0, 62, 63
1, 172480, Note_off_c, 0, 65, 61
1, 172482, Control_c, 0, 64, 54
1, 172484, Note_off_c, 0, 55, 62
1, 172497, Control_c, 0, 64, 53
1, 172527, Control_c, 0, 67, 78
1, 172541, Control_c, 0, 64, 53
1, 172571, Control_c, 0, 67, 78
1, 172586, Control_c, 0, 64, 52
1, 172586, Control_c, 0, 67, 77
1, 172601, Control_c, 0, 67, 76
1, 172615, Control_c, 0, 64, 52
1, 172615, Control_c, 0, 67, 75
1, 172630, Control_c, 0, 64, 51
1, 172630, Control_c, 0, 67, 74
1, 172645, Control_c, 0, 64, 51
1, 172645, Control_c, 0, 67, 72
1, 172660, Control_c, 0, 64, 50
1, 172660, Control_c, 0, 67, 71
1, 172664, Note_on_c, 0, 65, 41
1, 172667, Note_on_c, 0, 62, 42
1, 172675, Control_c, 0, 64, 49
1, 172675, Control_c, 0, 67, 70
1, 172679, Note_on_c, 0, 55, 35
1, 172688, Note_off_c, 0, 72, 58
1, 172689, Control_c, 0, 64, 48
1, 172689, Control_c, 0, 67, 70
1, 172704, Control_c, 0, 67, 69
1, 172718, Note_on_c, 0, 71, 49
1, 172719, Control_c, 0, 64, 48
1, 172719, Control_c, 0, 67, 69
1, 172733, Control_c, 0, 67, 68
1, 172785, Note_off_c, 0, 71, 63
1, 172810, Note_on_c, 0, 72, 53
1, 172845, Control_c, 0, 64, 47
1, 172847, Note_off_c, 0, 72, 62
1, 172860, Control_c, 0, 64, 46
1, 172865, Note_on_c, 0, 74, 69
1, 172875, Control_c, 0, 64, 44
1, 172890, Control_c, 0, 64, 41
1, 172904, Control_c, 0, 64, 39
1, 172933, Note_on_c, 0, 72, 73
1, 172934, Control_c, 0, 64, 40
1, 172948, Note_off_c, 0, 74, 56
1, 172948, Control_c, 0, 67, 69
1, 172978, Control_c, 0, 67, 69
1, 172986, Note_on_c, 0, 71, 69
1, 172988, Note_off_c, 0, 72, 61
1, 172993, Control_c, 0, 64, 41
1, 173022, Control_c, 0, 64, 40
1, 173037, Control_c, 0, 64, 39
1, 173053, Control_c, 0, 64, 38
1, 173058, Note_on_c, 0, 77, 78
1, 173058, Note_off_c, 0, 71, 61
1, 173068, Control_c, 0, 64, 36
1, 173083, Control_c, 0, 64, 34
1, 173113, Control_c, 0, 64, 35
1, 173114, Note_on_c, 0, 75, 77
1, 173127, Control_c, 0, 64, 38
1, 173142, Control_c, 0, 64, 43
1, 173157, Control_c, 0, 64, 48
1, 173158, Note_off_c, 0, 77, 60
1, 173171, Control_c, 0, 64, 52
1, 173178, Note_off_c, 0, 75, 66
1, 173186, Note_on_c, 0, 74, 84
1, 173186, Control_c, 0, 64, 55
1, 173201, Control_c, 0, 64, 56
1, 173216, Control_c, 0, 64, 57
1, 173231, Control_c, 0, 64, 60
1, 173246, Control_c, 0, 64, 62
1, 173252, Note_on_c, 0, 80, 83
1, 173260, Note_off_c, 0, 74, 62
1, 173260, Control_c, 0, 64, 63
1, 173275, Control_c, 0, 67, 70
1, 173327, Note_on_c, 0, 77, 80
1, 173361, Note_off_c, 0, 80, 63
1, 173364, Control_c, 0, 64, 62
1, 173364, Control_c, 0, 67, 70
1, 173374, Note_off_c, 0, 65, 59
1, 173379, Control_c, 0, 64, 60
1, 173379, Control_c, 0, 67, 71
1, 173387, Note_off_c, 0, 55, 59
1, 173392, Note_on_c, 0, 74, 75
1, 173392, Note_off_c, 0, 77, 64
1, 173394, Control_c, 0, 64, 57
1, 173409, Control_c, 0, 64, 55
1, 173409, Control_c, 0, 67, 71
1, 173424, Control_c, 0, 64, 52
1, 173424, Control_c, 0, 67, 73
1, 173432, Note_off_c, 0, 62, 56
1, 173438, Control_c, 0, 64, 49
1, 173438, Control_c, 0, 67, 75
1, 173453, Control_c, 0, 64, 47
1, 173453, Control_c, 0, 67, 78
1, 173468, Control_c, 0, 64, 45
1, 173468, Control_c, 0, 67, 79
1, 173472, Note_on_c, 0, 72, 86
1, 173483, Control_c, 0, 64, 43
1, 173483, Control_c, 0, 67, 81
1, 173484, Note_off_c, 0, 74, 62
1, 173498, Control_c, 0, 64, 40
1, 173498, Control_c, 0, 67, 83
1, 173520, Control_c, 0, 64, 37
1, 173520, Control_c, 0, 67, 84
1, 173535, Control_c, 0, 64, 32
1, 173535, Control_c, 0, 67, 85
1, 173550, Control_c, 0, 64, 27
1, 173564, Control_c, 0, 64, 21
1, 173564, Control_c, 0, 67, 85
1, 173579, Control_c, 0, 64, 15
1, 173579, Control_c, 0, 67, 84
1, 173594, Control_c, 0, 64, 0
1, 173594, Control_c, 0, 67, 84
1, 173609, Control_c, 0, 67, 83
1, 173624, Control_c, 0, 67, 82
1, 173638, Control_c, 0, 67, 81
1, 173653, Control_c, 0, 67, 81
1, 173668, Control_c, 0, 67, 80
1, 173701, Note_on_c, 0, 56, 66
1, 173742, Control_c, 0, 67, 81
1, 173771, Note_on_c, 0, 62, 70
1, 173784, Note_off_c, 0, 56, 60
1, 173786, Control_c, 0, 64, 9
1, 173801, Control_c, 0, 64, 11
1, 173816, Control_c, 0, 64, 13
1, 173831, Control_c, 0, 64, 15
1, 173847, Control_c, 0, 64, 17
1, 173848, Note_on_c, 0, 65, 66
1, 173850, Note_off_c, 0, 62, 62
1, 173862, Control_c, 0, 64, 18
1, 173876, Control_c, 0, 64, 18
1, 173876, Control_c, 0, 67, 80
1, 173891, Control_c, 0, 64, 19
1, 173906, Control_c, 0, 67, 80
1, 173913, Note_on_c, 0, 56, 73
1, 173916, Note_off_c, 0, 65, 53
1, 173921, Control_c, 0, 64, 19
1, 173921, Control_c, 0, 67, 79
1, 173936, Control_c, 0, 64, 21
1, 173936, Control_c, 0, 67, 78
1, 173950, Control_c, 0, 64, 23
1, 173950, Control_c, 0, 67, 77
1, 173966, Control_c, 0, 64, 24
1, 173966, Control_c, 0, 67, 77
1, 173970, Note_on_c, 0, 62, 75
1, 173981, Control_c, 0, 64, 24
1, 173994, Note_off_c, 0, 56, 63
1, 173995, Control_c, 0, 67, 76
1, 174010, Control_c, 0, 67, 76
1, 174025, Control_c, 0, 67, 75
1, 174040, Control_c, 0, 64, 25
1, 174052, Note_on_c, 0, 65, 70
1, 174055, Control_c, 0, 64, 26
1, 174055, Control_c, 0, 67, 75
1, 174056, Note_off_c, 0, 62, 64
1, 174069, Control_c, 0, 64, 27
1, 174069, Control_c, 0, 67, 74
1, 174084, Control_c, 0, 67, 74
1, 174110, Note_off_c, 0, 65, 56
1, 174113, Control_c, 0, 67, 73
1, 174115, Note_on_c, 0, 56, 76
1, 174128, Control_c, 0, 64, 26
1, 174128, Control_c, 0, 67, 73
1, 174143, Control_c, 0, 67, 72
1, 174158, Control_c, 0, 64, 27
1, 174158, Control_c, 0, 67, 71
1, 174173, Control_c, 0, 64, 27
1, 174173, Control_c, 0, 67, 70
1, 174188, Control_c, 0, 64, 28
1, 174188, Control_c, 0, 67, 69
1, 174191, Note_on_c, 0, 62, 78
1, 174202, Control_c, 0, 64, 28
1, 174202, Control_c, 0, 67, 68
1, 174211, Note_off_c, 0, 56, 62
1, 174217, Control_c, 0, 64, 29
1, 174217, Control_c, 0, 67, 66
1, 174232, Control_c, 0, 64, 30
1, 174232, Control_c, 0, 67, 64
1, 174247, Control_c, 0, 64, 30
1, 174247, Control_c, 0, 67, 62
1, 174269, Control_c, 0, 64, 31
1, 174269, Control_c, 0, 67, 59
1, 174284, Control_c, 0, 67, 54
1, 174285, Note_on_c, 0, 65, 69
1, 174291, Note_off_c, 0, 62, 62
1, 174299, Control_c, 0, 64, 31
1, 174299, Control_c, 0, 67, 50
1, 174313, Control_c, 0, 67, 45
1, 174328, Control_c, 0, 67, 39
1, 174343, Control_c, 0, 67, 34
1, 174349, Note_off_c, 0, 65, 59
1, 174349, Note_on_c, 0, 56, 86
1, 174358, Control_c, 0, 67, 27
1, 174373, Control_c, 0, 64, 31
1, 174373, Control_c, 0, 67, 21
1, 174387, Control_c, 0, 67, 15
1, 174389, Note_off_c, 0, 72, 60
1, 174402, Control_c, 0, 67, 14
1, 174417, Note_on_c, 0, 71, 75
1, 174432, Control_c, 0, 64, 30
1, 174477, Control_c, 0, 67, 14
1, 174481, Note_off_c, 0, 71, 62
1, 174488, Note_on_c, 0, 72, 70
1, 174506, Control_c, 0, 64, 30
1, 174506, Control_c, 0, 67, 15
1, 174521, Control_c, 0, 67, 16
1, 174536, Control_c, 0, 64, 29
1, 174536, Control_c, 0, 67, 17
1, 174549, Note_on_c, 0, 74, 80
1, 174551, Control_c, 0, 64, 30
1, 174551, Control_c, 0, 67, 18
1, 174556, Note_off_c, 0, 72, 63
1, 174566, Control_c, 0, 67, 18
1, 174581, Control_c, 0, 64, 30
1, 174595, Control_c, 0, 64, 31
1, 174595, Control_c, 0, 67, 19
1, 174610, Control_c, 0, 64, 32
1, 174610, Control_c, 0, 67, 19
1, 174623, Note_on_c, 0, 72, 77
1, 174625, Control_c, 0, 64, 35
1, 174625, Control_c, 0, 67, 20
1, 174641, Control_c, 0, 64, 38
1, 174641, Control_c, 0, 67, 20
1, 174644, Note_off_c, 0, 74, 62
1, 174656, Control_c, 0, 64, 46
1, 174670, Control_c, 0, 64, 52
1, 174670, Control_c, 0, 67, 21
1, 174679, Note_on_c, 0, 71, 73
1, 174685, Control_c, 0, 64, 56
1, 174685, Control_c, 0, 67, 21
1, 174690, Note_off_c, 0, 72, 62
1, 174700, Control_c, 0, 64, 57
1, 174700, Control_c, 0, 67, 22
1, 174715, Control_c, 0, 64, 59
1, 174729, Control_c, 0, 64, 60
1, 174729, Control_c, 0, 67, 22
1, 174743, Control_c, 0, 64, 61
1, 174743, Control_c, 0, 67, 23
1, 174756, Note_on_c, 0, 77, 79
1, 174758, Control_c, 0, 64, 62
1, 174758, Control_c, 0, 67, 24
1, 174763, Note_off_c, 0, 71, 63
1, 174773, Control_c, 0, 64, 62
1, 174773, Control_c, 0, 67, 24
1, 174788, Control_c, 0, 64, 63
1, 174788, Control_c, 0, 67, 25
1, 174803, Control_c, 0, 67, 25
1, 174822, Note_on_c, 0, 75, 78
1, 174832, Control_c, 0, 67, 26
1, 174854, Note_off_c, 0, 77, 63
1, 174862, Control_c, 0, 67, 26
1, 174877, Control_c, 0, 64, 62
1, 174889, Note_off_c, 0, 75, 65
1, 174891, Control_c, 0, 64, 62
1, 174891, Control_c, 0, 67, 27
1, 174897, Note_on_c, 0, 74, 81
1, 174906, Control_c, 0, 64, 61
1, 174906, Control_c, 0, 67, 27
1, 174921, Control_c, 0, 64, 59
1, 174921, Control_c, 0, 67, 28
1, 174936, Control_c, 0, 64, 57
1, 174936, Control_c, 0, 67, 29
1, 174951, Control_c, 0, 64, 55
1, 174951, Control_c, 0, 67, 30
1, 174966, Control_c, 0, 64, 53
1, 174966, Control_c, 0, 67, 31
1, 174967, Note_on_c, 0, 80, 80
1, 174977, Note_off_c, 0, 74, 62
1, 174980, Control_c, 0, 64, 52
1, 174980, Control_c, 0, 67, 33
1, 174995, Control_c, 0, 64, 51
1, 174995, Control_c, 0, 67, 35
1, 175017, Control_c, 0, 64, 49
1, 175017, Control_c, 0, 67, 38
1, 175032, Control_c, 0, 64, 48
1, 175032, Control_c, 0, 67, 41
1, 175047, Control_c, 0, 64, 46
1, 175047, Control_c, 0, 67, 45
1, 175051, Note_on_c, 0, 77, 80
1, 175062, Control_c, 0, 64, 43
1, 175062, Control_c, 0, 67, 49
1, 175076, Control_c, 0, 64, 41
1, 175076, Control_c, 0, 67, 54
1, 175088, Note_off_c, 0, 80, 63
1, 175091, Control_c, 0, 64, 39
1, 175091, Control_c, 0, 67, 59
1, 175106, Control_c, 0, 64, 37
1, 175106, Control_c, 0, 67, 65
1, 175121, Control_c, 0, 64, 34
1, 175121, Control_c, 0, 67, 72
1, 175125, Note_on_c, 0, 74, 83
1, 175132, Note_off_c, 0, 77, 65
1, 175135, Control_c, 0, 64, 31
1, 175135, Control_c, 0, 67, 79
1, 175139, Note_off_c, 0, 56, 36
1, 175150, Control_c, 0, 64, 28
1, 175150, Control_c, 0, 67, 86
1, 175165, Control_c, 0, 64, 26
1, 175165, Control_c, 0, 67, 94
1, 175180, Control_c, 0, 64, 24
1, 175180, Control_c, 0, 67, 104
1, 175195, Control_c, 0, 64, 22
1, 175195, Control_c, 0, 67, 112
1, 175210, Control_c, 0, 64, 19
1, 175210, Control_c, 0, 67, 120
1, 175217, Note_on_c, 0, 72, 86
1, 175225, Control_c, 0, 64, 17
1, 175225, Control_c, 0, 67, 127
1, 175240, Control_c, 0, 64, 15
1, 175246, Note_off_c, 0, 74, 63
1, 175255, Control_c, 0, 64, 14
1, 175269, Control_c, 0, 64, 14
1, 175284, Control_c, 0, 64, 12
1, 175299, Control_c, 0, 64, 8
1, 175314, Control_c, 0, 64, 0
1, 175463, Note_on_c, 0, 56, 50
1, 175525, Note_off_c, 0, 56, 56
1, 175538, Note_on_c, 0, 62, 51
1, 175618, Note_off_c, 0, 62, 62
1, 175633, Note_on_c, 0, 65, 41
1, 175697, Note_off_c, 0, 65, 57
1, 175705, Note_on_c, 0, 56, 47
1, 175797, Note_off_c, 0, 56, 57
1, 175815, Note_on_c, 0, 62, 54
1, 175897, Note_off_c, 0, 62, 61
1, 175920, Note_on_c, 0, 65, 45
1, 176000, Note_off_c, 0, 65, 59
1, 176010, Note_on_c, 0, 56, 43
1, 176114, Note_off_c, 0, 56, 51
1, 176131, Note_on_c, 0, 62, 48
1, 176270, Note_on_c, 0, 65, 38
1, 176513, Note_on_c, 0, 56, 27
1, 176604, Control_c, 0, 64, 9
1, 176663, Control_c, 0, 64, 10
1, 176678, Control_c, 0, 64, 11
1, 176693, Control_c, 0, 64, 12
1, 176708, Control_c, 0, 64, 14
1, 176722, Control_c, 0, 64, 15
1, 176737, Control_c, 0, 64, 16
1, 176752, Control_c, 0, 64, 16
1, 176767, Control_c, 0, 64, 17
1, 176782, Control_c, 0, 64, 19
1, 176796, Control_c, 0, 64, 21
1, 176811, Control_c, 0, 64, 23
1, 176826, Control_c, 0, 64, 26
1, 176841, Control_c, 0, 64, 27
1, 176855, Control_c, 0, 64, 28
1, 176870, Control_c, 0, 64, 28
1, 176900, Control_c, 0, 64, 29
1, 176915, Control_c, 0, 64, 30
1, 176930, Control_c, 0, 64, 32
1, 176945, Control_c, 0, 64, 32
1, 176996, Note_on_c, 0, 71, 47
1, 177004, Control_c, 0, 64, 33
1, 177019, Control_c, 0, 64, 34
1, 177034, Control_c, 0, 64, 35
1, 177049, Control_c, 0, 64, 36
1, 177073, Note_off_c, 0, 72, 56
1, 177094, Control_c, 0, 64, 36
1, 177109, Control_c, 0, 64, 37
1, 177124, Control_c, 0, 64, 39
1, 177138, Control_c, 0, 64, 41
1, 177153, Control_c, 0, 64, 42
1, 177168, Control_c, 0, 64, 43
1, 177183, Control_c, 0, 64, 44
1, 177227, Control_c, 0, 64, 43
1, 177242, Note_on_c, 0, 72, 57
1, 177264, Control_c, 0, 64, 43
1, 177279, Control_c, 0, 64, 42
1, 177294, Control_c, 0, 64, 42
1, 177317, Note_off_c, 0, 71, 55
1, 177383, Control_c, 0, 64, 41
1, 177398, Control_c, 0, 64, 40
1, 177412, Control_c, 0, 64, 39
1, 177427, Control_c, 0, 64, 36
1, 177432, Note_on_c, 0, 74, 63
1, 177442, Control_c, 0, 64, 34
1, 177454, Note_off_c, 0, 72, 54
1, 177457, Control_c, 0, 64, 33
1, 177486, Control_c, 0, 64, 33
1, 177531, Control_c, 0, 64, 33
1, 177545, Control_c, 0, 64, 32
1, 177560, Control_c, 0, 64, 32
1, 177575, Control_c, 0, 64, 31
1, 177590, Control_c, 0, 64, 30
1, 177592, Note_on_c, 0, 72, 61
1, 177605, Control_c, 0, 64, 29
1, 177634, Note_off_c, 0, 74, 56
1, 177634, Control_c, 0, 64, 30
1, 177649, Control_c, 0, 64, 30
1, 177678, Control_c, 0, 64, 30
1, 177693, Control_c, 0, 64, 29
1, 177709, Control_c, 0, 64, 29
1, 177724, Control_c, 0, 64, 28
1, 177744, Note_off_c, 0, 72, 52
1, 177745, Note_on_c, 0, 71, 60
1, 177768, Control_c, 0, 64, 28
1, 177812, Control_c, 0, 64, 27
1, 177827, Control_c, 0, 64, 26
1, 177843, Control_c, 0, 64, 26
1, 177858, Control_c, 0, 64, 25
1, 177873, Control_c, 0, 64, 25
1, 177902, Control_c, 0, 64, 24
1, 177917, Control_c, 0, 64, 24
1, 177942, Note_on_c, 0, 77, 57
1, 177969, Note_off_c, 0, 71, 55
1, 178140, Note_on_c, 0, 75, 55
1, 178176, Control_c, 0, 64, 23
1, 178206, Control_c, 0, 64, 23
1, 178231, Note_off_c, 0, 77, 34
1, 178236, Control_c, 0, 64, 22
1, 178265, Control_c, 0, 64, 21
1, 178280, Control_c, 0, 64, 20
1, 178295, Control_c, 0, 64, 19
1, 178310, Control_c, 0, 64, 18
1, 178325, Control_c, 0, 64, 17
1, 178356, Note_on_c, 0, 74, 48
1, 178362, Note_off_c, 0, 75, 59
1, 178384, Control_c, 0, 64, 16
1, 178575, Control_c, 0, 64, 17
1, 178590, Control_c, 0, 64, 17
1, 178710, Note_on_c, 0, 80, 59
1, 178796, Note_off_c, 0, 74, 38
1, 178850, Control_c, 0, 64, 17
1, 178895, Control_c, 0, 64, 16
1, 179191, Control_c, 0, 64, 17
1, 179265, Control_c, 0, 64, 17
1, 179280, Control_c, 0, 64, 18
1, 179295, Control_c, 0, 64, 19
1, 179309, Control_c, 0, 64, 20
1, 179324, Control_c, 0, 64, 21
1, 179339, Control_c, 0, 64, 22
1, 179354, Control_c, 0, 64, 23
1, 179369, Control_c, 0, 64, 24
1, 179383, Control_c, 0, 64, 25
1, 179398, Control_c, 0, 64, 27
1, 179413, Control_c, 0, 64, 28
1, 179429, Control_c, 0, 64, 29
1, 179540, Control_c, 0, 64, 29
1, 179644, Control_c, 0, 64, 30
1, 179658, Control_c, 0, 64, 30
1, 179673, Control_c, 0, 64, 31
1, 179688, Control_c, 0, 64, 31
1, 179777, Control_c, 0, 64, 32
1, 179792, Control_c, 0, 64, 33
1, 179807, Control_c, 0, 64, 33
1, 179936, Note_on_c, 0, 79, 46
1, 179940, Control_c, 0, 64, 34
1, 180058, Control_c, 0, 64, 34
1, 180260, Control_c, 0, 64, 34
1, 180263, Note_on_c, 0, 77, 44
1, 180349, Control_c, 0, 64, 34
1, 180378, Note_off_c, 0, 79, 34
1, 180427, Note_off_c, 0, 80, 33
1, 180552, Note_on_c, 0, 75, 51
1, 180644, Control_c, 0, 64, 35
1, 180675, Note_off_c, 0, 77, 44
1, 180719, Control_c, 0, 64, 35
1, 180838, Note_on_c, 0, 74, 49
1, 180882, Control_c, 0, 64, 35
1, 180927, Control_c, 0, 64, 34
1, 180945, Note_off_c, 0, 75, 36
1, 180956, Control_c, 0, 64, 34
1, 180971, Control_c, 0, 64, 33
1, 181023, Control_c, 0, 64, 32
1, 181038, Control_c, 0, 64, 31
1, 181053, Control_c, 0, 64, 30
1, 181068, Control_c, 0, 64, 29
1, 181083, Control_c, 0, 64, 28
1, 181098, Control_c, 0, 64, 28
1, 181112, Control_c, 0, 64, 26
1, 181127, Control_c, 0, 64, 25
1, 181142, Control_c, 0, 64, 24
1, 181150, Note_on_c, 0, 72, 50
1, 181157, Control_c, 0, 64, 24
1, 181187, Control_c, 0, 64, 25
1, 181202, Control_c, 0, 64, 26
1, 181217, Control_c, 0, 64, 30
1, 181229, Note_off_c, 0, 74, 40
1, 181231, Control_c, 0, 64, 34
1, 181246, Control_c, 0, 64, 38
1, 181261, Control_c, 0, 64, 43
1, 181276, Control_c, 0, 64, 48
1, 181291, Control_c, 0, 64, 52
1, 181305, Control_c, 0, 64, 55
1, 181320, Control_c, 0, 64, 58
1, 181335, Control_c, 0, 64, 60
1, 181350, Control_c, 0, 64, 62
1, 181365, Control_c, 0, 64, 64
1, 181379, Control_c, 0, 64, 66
1, 181386, Note_off_c, 0, 72, 33
1, 181394, Control_c, 0, 64, 68
1, 181409, Control_c, 0, 64, 70
1, 181424, Control_c, 0, 64, 72
1, 181438, Control_c, 0, 64, 73
1, 181453, Control_c, 0, 64, 75
1, 181468, Control_c, 0, 64, 76
1, 181473, Note_off_c, 0, 56, 33
1, 181483, Control_c, 0, 64, 77
1, 181512, Control_c, 0, 64, 77
1, 181552, Note_on_c, 0, 72, 45
1, 181556, Control_c, 0, 64, 78
1, 181705, Control_c, 0, 64, 77
1, 181735, Control_c, 0, 64, 77
1, 181771, Control_c, 0, 64, 76
1, 181786, Control_c, 0, 64, 76
1, 181801, Control_c, 0, 64, 75
1, 181816, Control_c, 0, 64, 74
1, 181832, Control_c, 0, 64, 73
1, 181841, Note_on_c, 0, 55, 40
1, 181847, Control_c, 0, 64, 73
1, 181876, Control_c, 0, 64, 72
1, 181891, Control_c, 0, 64, 72
1, 181906, Control_c, 0, 64, 71
1, 181921, Control_c, 0, 64, 69
1, 181935, Control_c, 0, 64, 67
1, 181950, Control_c, 0, 64, 65
1, 181961, Note_off_c, 0, 65, 40
1, 181965, Control_c, 0, 64, 64
1, 181980, Control_c, 0, 64, 62
1, 182009, Control_c, 0, 64, 62
1, 182024, Control_c, 0, 64, 61
1, 182039, Control_c, 0, 64, 61
1, 182054, Control_c, 0, 64, 60
1, 182069, Control_c, 0, 64, 59
1, 182084, Control_c, 0, 64, 59
1, 182099, Control_c, 0, 64, 58
1, 182114, Control_c, 0, 64, 57
1, 182128, Control_c, 0, 64, 57
1, 182143, Control_c, 0, 64, 56
1, 182158, Control_c, 0, 64, 55
1, 182164, Note_on_c, 0, 65, 34
1, 182173, Control_c, 0, 64, 54
1, 182187, Control_c, 0, 64, 54
1, 182202, Control_c, 0, 64, 53
1, 182217, Control_c, 0, 64, 52
1, 182232, Control_c, 0, 64, 51
1, 182247, Control_c, 0, 64, 50
1, 182261, Control_c, 0, 64, 49
1, 182276, Control_c, 0, 64, 46
1, 182291, Control_c, 0, 64, 45
1, 182306, Control_c, 0, 64, 43
1, 182311, Note_off_c, 0, 62, 57
1, 182321, Control_c, 0, 64, 42
1, 182335, Control_c, 0, 64, 41
1, 182350, Control_c, 0, 64, 40
1, 182365, Control_c, 0, 64, 39
1, 182379, Control_c, 0, 64, 37
1, 182394, Control_c, 0, 64, 35
1, 182409, Control_c, 0, 64, 35
1, 182424, Control_c, 0, 64, 34
1, 182439, Note_on_c, 0, 71, 47
1, 182439, Control_c, 0, 64, 33
1, 182454, Control_c, 0, 64, 31
1, 182468, Control_c, 0, 64, 29
1, 182483, Control_c, 0, 64, 25
1, 182506, Control_c, 0, 64, 23
1, 182517, Note_off_c, 0, 72, 56
1, 182521, Control_c, 0, 64, 21
1, 182535, Control_c, 0, 64, 21
1, 182550, Control_c, 0, 64, 20
1, 182565, Control_c, 0, 64, 20
1, 182609, Control_c, 0, 64, 21
1, 182625, Control_c, 0, 64, 24
1, 182640, Control_c, 0, 64, 30
1, 182655, Control_c, 0, 64, 36
1, 182670, Control_c, 0, 64, 40
1, 182684, Control_c, 0, 64, 44
1, 182699, Control_c, 0, 64, 48
1, 182714, Control_c, 0, 64, 51
1, 182729, Control_c, 0, 64, 55
1, 182744, Control_c, 0, 64, 57
1, 182758, Control_c, 0, 64, 59
1, 182773, Control_c, 0, 64, 60
1, 182788, Control_c, 0, 64, 61
1, 182802, Control_c, 0, 64, 62
1, 182805, Note_on_c, 0, 80, 51
1, 182817, Control_c, 0, 64, 63
1, 182832, Control_c, 0, 64, 63
1, 182846, Note_off_c, 0, 55, 53
1, 182847, Control_c, 0, 64, 64
1, 182877, Control_c, 0, 64, 65
1, 182892, Control_c, 0, 64, 65
1, 182907, Control_c, 0, 64, 66
1, 182936, Control_c, 0, 64, 66
1, 183108, Note_on_c, 0, 55, 35
1, 183258, Note_off_c, 0, 65, 33
1, 183477, Control_c, 0, 64, 67
1, 183496, Note_on_c, 0, 65, 26
1, 183539, Note_off_c, 0, 71, 44
1, 183857, Note_on_c, 0, 71, 36
1, 183988, Note_off_c, 0, 80, 58
1, 184017, Control_c, 0, 64, 66
1, 184091, Control_c, 0, 64, 66
1, 184429, Note_on_c, 0, 80, 40
1, 184463, Control_c, 0, 64, 65
1, 184493, Control_c, 0, 64, 64
1, 184507, Control_c, 0, 64, 63
1, 184522, Control_c, 0, 64, 62
1, 184537, Control_c, 0, 64, 61
1, 184552, Control_c, 0, 64, 60
1, 184566, Control_c, 0, 64, 59
1, 184581, Control_c, 0, 64, 58
1, 184596, Control_c, 0, 64, 57
1, 184611, Control_c, 0, 64, 57
1, 184626, Control_c, 0, 64, 56
1, 184640, Control_c, 0, 64, 55
1, 184670, Control_c, 0, 64, 54
1, 184685, Control_c, 0, 64, 53
1, 184699, Control_c, 0, 64, 52
1, 184714, Control_c, 0, 64, 51
1, 184729, Control_c, 0, 64, 49
1, 184752, Control_c, 0, 64, 48
1, 184767, Control_c, 0, 64, 46
1, 184781, Control_c, 0, 64, 45
1, 184796, Control_c, 0, 64, 44
1, 184811, Control_c, 0, 64, 42
1, 184826, Control_c, 0, 64, 39
1, 184841, Control_c, 0, 64, 36
1, 184855, Control_c, 0, 64, 34
1, 184870, Control_c, 0, 64, 31
1, 184885, Control_c, 0, 64, 29
1, 184899, Control_c, 0, 64, 28
1, 184914, Control_c, 0, 64, 28
1, 184944, Control_c, 0, 64, 28
1, 184959, Control_c, 0, 64, 30
1, 184973, Control_c, 0, 64, 34
1, 184988, Control_c, 0, 64, 40
1, 185003, Control_c, 0, 64, 46
1, 185018, Control_c, 0, 64, 50
1, 185034, Control_c, 0, 64, 54
1, 185049, Control_c, 0, 64, 57
1, 185064, Control_c, 0, 64, 59
1, 185078, Control_c, 0, 64, 61
1, 185093, Control_c, 0, 64, 63
1, 185108, Control_c, 0, 64, 64
1, 185123, Control_c, 0, 64, 65
1, 185138, Control_c, 0, 64, 66
1, 185152, Control_c, 0, 64, 68
1, 185167, Control_c, 0, 64, 69
1, 185182, Control_c, 0, 64, 70
1, 185196, Control_c, 0, 64, 71
1, 185205, Note_off_c, 0, 71, 35
1, 185211, Control_c, 0, 64, 73
1, 185214, Note_off_c, 0, 65, 36
1, 185226, Control_c, 0, 64, 74
1, 185241, Control_c, 0, 64, 76
1, 185256, Control_c, 0, 64, 77
1, 185270, Control_c, 0, 64, 78
1, 185284, Note_off_c, 0, 55, 26
1, 185285, Control_c, 0, 64, 79
1, 185315, Control_c, 0, 64, 79
1, 185327, Note_off_c, 0, 80, 35
1, 185329, Control_c, 0, 64, 80
1, 185344, Control_c, 0, 64, 81
1, 185359, Control_c, 0, 64, 81
1, 185374, Control_c, 0, 64, 82
1, 185389, Control_c, 0, 64, 83
1, 185433, Control_c, 0, 64, 83
1, 185448, Control_c, 0, 64, 84
1, 185463, Control_c, 0, 64, 84
1, 185477, Control_c, 0, 64, 85
1, 185677, Control_c, 0, 64, 83
1, 185677, Control_c, 0, 67, 126
1, 185692, Control_c, 0, 64, 76
1, 185692, Control_c, 0, 67, 120
1, 185707, Control_c, 0, 64, 64
1, 185707, Control_c, 0, 67, 112
1, 185721, Control_c, 0, 64, 45
1, 185721, Control_c, 0, 67, 103
1, 185736, Control_c, 0, 64, 0
1, 185736, Control_c, 0, 67, 93
1, 185751, Control_c, 0, 67, 85
1, 185766, Control_c, 0, 67, 77
1, 185781, Control_c, 0, 67, 72
1, 185795, Control_c, 0, 67, 69
1, 185810, Control_c, 0, 67, 68
1, 185826, Control_c, 0, 67, 67
1, 185955, Note_on_c, 0, 60, 77
1, 185959, Control_c, 0, 67, 68
1, 185962, Note_on_c, 0, 55, 67
1, 185967, Note_on_c, 0, 51, 60
1, 185974, Control_c, 0, 67, 68
1, 186136, Note_on_c, 0, 84, 79
1, 186138, Control_c, 0, 67, 68
1, 186174, Note_on_c, 0, 79, 78
1, 186182, Control_c, 0, 67, 68
1, 186195, Note_off_c, 0, 79, 70
1, 186195, Note_off_c, 0, 84, 66
1, 186352, Control_c, 0, 67, 68
1, 186370, Note_off_c, 0, 51, 58
1, 186376, Note_off_c, 0, 55, 63
1, 186381, Note_on_c, 0, 79, 81
1, 186384, Note_off_c, 0, 60, 60
1, 186416, Note_on_c, 0, 75, 74
1, 186424, Note_off_c, 0, 79, 61
1, 186426, Control_c, 0, 67, 67
1, 186436, Note_off_c, 0, 75, 71
1, 186441, Control_c, 0, 67, 66
1, 186456, Control_c, 0, 67, 65
1, 186470, Control_c, 0, 67, 62
1, 186485, Control_c, 0, 67, 58
1, 186500, Control_c, 0, 67, 55
1, 186515, Control_c, 0, 67, 51
1, 186530, Control_c, 0, 67, 46
1, 186545, Control_c, 0, 67, 41
1, 186559, Control_c, 0, 67, 34
1, 186574, Control_c, 0, 67, 26
1, 186589, Control_c, 0, 67, 18
1, 186599, Note_on_c, 0, 75, 82
1, 186604, Control_c, 0, 67, 12
1, 186620, Control_c, 0, 67, 11
1, 186640, Note_on_c, 0, 72, 83
1, 186646, Note_off_c, 0, 75, 65
1, 186649, Control_c, 0, 67, 10
1, 186658, Note_off_c, 0, 72, 70
1, 186664, Control_c, 0, 67, 9
1, 186679, Control_c, 0, 67, 0
1, 186850, Note_on_c, 0, 60, 79
1, 186855, Note_on_c, 0, 56, 72
1, 186860, Note_on_c, 0, 53, 68
1, 187037, Note_on_c, 0, 84, 78
1, 187068, Note_on_c, 0, 80, 79
1, 187071, Control_c, 0, 67, 8
1, 187086, Note_off_c, 0, 84, 68
1, 187086, Control_c, 0, 67, 9
1, 187087, Note_off_c, 0, 80, 71
1, 187116, Control_c, 0, 67, 9
1, 187262, Note_on_c, 0, 80, 80
1, 187264, Control_c, 0, 67, 10
1, 187279, Control_c, 0, 67, 11
1, 187280, Note_off_c, 0, 53, 61
1, 187280, Note_off_c, 0, 56, 62
1, 187293, Control_c, 0, 67, 12
1, 187294, Note_on_c, 0, 77, 80
1, 187301, Note_off_c, 0, 60, 63
1, 187308, Control_c, 0, 67, 13
1, 187315, Note_off_c, 0, 80, 63
1, 187318, Note_off_c, 0, 77, 67
1, 187353, Control_c, 0, 67, 13
1, 187459, Control_c, 0, 67, 14
1, 187473, Control_c, 0, 67, 15
1, 187488, Note_on_c, 0, 77, 63
1, 187488, Control_c, 0, 67, 17
1, 187492, Note_on_c, 0, 79, 61
1, 187503, Control_c, 0, 67, 20
1, 187511, Note_off_c, 0, 79, 64
1, 187517, Control_c, 0, 67, 23
1, 187521, Note_off_c, 0, 77, 65
1, 187527, Note_on_c, 0, 74, 76
1, 187532, Control_c, 0, 67, 27
1, 187547, Control_c, 0, 67, 31
1, 187552, Note_off_c, 0, 74, 66
1, 187562, Control_c, 0, 67, 37
1, 187577, Control_c, 0, 67, 46
1, 187591, Control_c, 0, 67, 56
1, 187606, Control_c, 0, 67, 69
1, 187621, Control_c, 0, 67, 84
1, 187636, Control_c, 0, 67, 99
1, 187651, Control_c, 0, 67, 113
1, 187665, Control_c, 0, 67, 127
1, 187789, Note_on_c, 0, 72, 56
1, 188000, Note_on_c, 0, 63, 49
1, 188009, Note_on_c, 0, 55, 40
1, 188029, Note_off_c, 0, 63, 59
1, 188038, Note_off_c, 0, 55, 58
1, 188225, Note_on_c, 0, 63, 51
1, 188231, Note_on_c, 0, 55, 44
1, 188249, Note_off_c, 0, 63, 60
1, 188260, Note_off_c, 0, 55, 61
1, 188365, Note_off_c, 0, 72, 56
1, 188395, Note_on_c, 0, 71, 48
1, 188425, Note_off_c, 0, 71, 58
1, 188444, Note_on_c, 0, 62, 67
1, 188445, Note_on_c, 0, 77, 66
1, 188460, Note_on_c, 0, 55, 48
1, 188469, Note_off_c, 0, 62, 68
1, 188473, Control_c, 0, 67, 123
1, 188493, Note_off_c, 0, 55, 62
1, 188496, Control_c, 0, 67, 118
1, 188511, Control_c, 0, 67, 113
1, 188526, Control_c, 0, 67, 106
1, 188526, Note_off_c, 0, 77, 59
1, 188534, Note_on_c, 0, 74, 60
1, 188541, Control_c, 0, 67, 100
1, 188555, Control_c, 0, 67, 94
1, 188570, Control_c, 0, 67, 86
1, 188572, Note_off_c, 0, 74, 60
1, 188585, Control_c, 0, 67, 78
1, 188593, Note_on_c, 0, 71, 59
1, 188600, Control_c, 0, 67, 71
1, 188615, Control_c, 0, 67, 62
1, 188624, Note_off_c, 0, 71, 63
1, 188629, Control_c, 0, 67, 54
1, 188644, Control_c, 0, 67, 45
1, 188659, Control_c, 0, 67, 38
1, 188665, Note_on_c, 0, 79, 87
1, 188673, Control_c, 0, 67, 29
1, 188688, Control_c, 0, 67, 22
1, 188703, Control_c, 0, 67, 15
1, 188718, Control_c, 0, 67, 11
1, 188733, Control_c, 0, 67, 11
1, 188747, Control_c, 0, 67, 10
1, 188762, Control_c, 0, 67, 9
1, 188777, Control_c, 0, 67, 0
1, 188792, Control_c, 0, 64, 11
1, 188807, Control_c, 0, 64, 20
1, 188821, Control_c, 0, 64, 27
1, 188836, Control_c, 0, 64, 34
1, 188851, Control_c, 0, 64, 42
1, 188866, Control_c, 0, 64, 48
1, 188880, Control_c, 0, 64, 53
1, 188895, Note_on_c, 0, 55, 55
1, 188895, Control_c, 0, 64, 56
1, 188898, Note_on_c, 0, 63, 59
1, 188910, Control_c, 0, 64, 57
1, 188922, Note_off_c, 0, 55, 64
1, 188923, Note_off_c, 0, 63, 64
1, 188925, Control_c, 0, 64, 58
1, 188940, Control_c, 0, 64, 59
1, 188954, Control_c, 0, 64, 60
1, 188969, Control_c, 0, 64, 60
1, 188984, Control_c, 0, 64, 61
1, 188998, Control_c, 0, 64, 61
1, 189103, Control_c, 0, 64, 62
1, 189118, Control_c, 0, 64, 62
1, 189133, Control_c, 0, 64, 63
1, 189137, Note_on_c, 0, 63, 75
1, 189150, Note_on_c, 0, 55, 58
1, 189166, Note_off_c, 0, 63, 61
1, 189177, Control_c, 0, 64, 63
1, 189181, Note_off_c, 0, 55, 66
1, 189192, Control_c, 0, 64, 64
1, 189207, Control_c, 0, 64, 64
1, 189222, Note_on_c, 0, 75, 68
1, 189222, Control_c, 0, 64, 65
1, 189256, Note_off_c, 0, 79, 61
1, 189281, Note_off_c, 0, 75, 62
1, 189289, Note_on_c, 0, 72, 71
1, 189303, Control_c, 0, 67, 8
1, 189318, Control_c, 0, 64, 63
1, 189318, Control_c, 0, 67, 11
1, 189333, Control_c, 0, 64, 61
1, 189333, Control_c, 0, 67, 14
1, 189336, Note_off_c, 0, 72, 55
1, 189348, Control_c, 0, 64, 56
1, 189348, Control_c, 0, 67, 16
1, 189358, Note_on_c, 0, 77, 76
1, 189362, Control_c, 0, 64, 49
1, 189362, Control_c, 0, 67, 17
1, 189375, Note_on_c, 0, 62, 70
1, 189377, Control_c, 0, 64, 39
1, 189377, Control_c, 0, 67, 20
1, 189381, Note_on_c, 0, 55, 61
1, 189392, Control_c, 0, 64, 26
1, 189392, Control_c, 0, 67, 23
1, 189401, Note_off_c, 0, 62, 69
1, 189402, Note_off_c, 0, 55, 64
1, 189407, Control_c, 0, 64, 0
1, 189407, Control_c, 0, 67, 27
1, 189422, Control_c, 0, 67, 31
1, 189430, Note_on_c, 0, 74, 71
1, 189436, Control_c, 0, 67, 35
1, 189442, Note_off_c, 0, 77, 62
1, 189451, Control_c, 0, 67, 41
1, 189466, Control_c, 0, 67, 48
1, 189480, Note_off_c, 0, 74, 63
1, 189481, Control_c, 0, 67, 58
1, 189495, Control_c, 0, 67, 67
1, 189500, Note_on_c, 0, 71, 64
1, 189510, Control_c, 0, 67, 78
1, 189525, Control_c, 0, 67, 90
1, 189539, Note_off_c, 0, 71, 55
1, 189540, Control_c, 0, 67, 102
1, 189555, Control_c, 0, 67, 113
1, 189569, Control_c, 0, 67, 124
1, 189584, Control_c, 0, 67, 127
1, 189625, Note_on_c, 0, 79, 68
1, 189846, Note_on_c, 0, 63, 52
1, 189852, Note_on_c, 0, 55, 49
1, 189885, Note_off_c, 0, 63, 61
1, 189893, Note_off_c, 0, 55, 62
1, 190082, Control_c, 0, 64, 10
1, 190087, Note_on_c, 0, 63, 54
1, 190097, Control_c, 0, 64, 12
1, 190099, Note_on_c, 0, 55, 44
1, 190123, Note_off_c, 0, 63, 60
1, 190127, Note_off_c, 0, 55, 57
1, 190141, Control_c, 0, 64, 13
1, 190156, Control_c, 0, 64, 16
1, 190165, Note_on_c, 0, 75, 58
1, 190171, Control_c, 0, 64, 20
1, 190185, Control_c, 0, 64, 24
1, 190200, Control_c, 0, 64, 27
1, 190215, Control_c, 0, 64, 29
1, 190227, Note_off_c, 0, 75, 61
1, 190230, Control_c, 0, 64, 30
1, 190244, Note_on_c, 0, 72, 53
1, 190285, Note_off_c, 0, 79, 57
1, 190289, Control_c, 0, 64, 30
1, 190296, Note_off_c, 0, 72, 55
1, 190303, Note_on_c, 0, 77, 63
1, 190304, Control_c, 0, 64, 29
1, 190311, Note_on_c, 0, 62, 57
1, 190318, Control_c, 0, 64, 27
1, 190326, Note_on_c, 0, 55, 39
1, 190333, Control_c, 0, 64, 24
1, 190337, Note_off_c, 0, 62, 64
1, 190348, Control_c, 0, 64, 22
1, 190353, Note_off_c, 0, 55, 59
1, 190363, Control_c, 0, 64, 21
1, 190382, Note_on_c, 0, 74, 58
1, 190401, Note_off_c, 0, 77, 57
1, 190430, Note_off_c, 0, 74, 61
1, 190445, Note_on_c, 0, 71, 65
1, 190478, Note_off_c, 0, 71, 59
1, 190511, Control_c, 0, 64, 21
1, 190526, Control_c, 0, 64, 20
1, 190538, Note_on_c, 0, 79, 71
1, 190541, Control_c, 0, 64, 18
1, 190556, Control_c, 0, 64, 14
1, 190571, Control_c, 0, 64, 0
1, 190646, Control_c, 0, 64, 10
1, 190660, Control_c, 0, 64, 16
1, 190675, Control_c, 0, 64, 23
1, 190690, Control_c, 0, 64, 26
1, 190705, Control_c, 0, 64, 27
1, 190720, Control_c, 0, 64, 27
1, 190742, Control_c, 0, 64, 26
1, 190757, Control_c, 0, 64, 24
1, 190767, Note_on_c, 0, 63, 49
1, 190772, Control_c, 0, 64, 22
1, 190785, Note_on_c, 0, 55, 31
1, 190787, Control_c, 0, 64, 18
1, 190800, Note_off_c, 0, 63, 61
1, 190802, Control_c, 0, 64, 15
1, 190813, Note_off_c, 0, 55, 54
1, 190816, Control_c, 0, 64, 17
1, 190831, Control_c, 0, 64, 21
1, 190846, Control_c, 0, 64, 25
1, 190861, Control_c, 0, 64, 29
1, 190875, Control_c, 0, 64, 30
1, 190905, Control_c, 0, 64, 30
1, 190920, Control_c, 0, 64, 29
1, 190935, Control_c, 0, 64, 29
1, 190949, Control_c, 0, 64, 28
1, 190964, Control_c, 0, 64, 27
1, 190979, Control_c, 0, 64, 26
1, 190998, Note_on_c, 0, 63, 53
1, 191008, Note_on_c, 0, 55, 39
1, 191009, Control_c, 0, 64, 27
1, 191024, Control_c, 0, 64, 29
1, 191039, Control_c, 0, 64, 33
1, 191040, Note_off_c, 0, 63, 57
1, 191048, Note_off_c, 0, 55, 57
1, 191053, Control_c, 0, 64, 36
1, 191064, Note_on_c, 0, 75, 55
1, 191068, Control_c, 0, 64, 41
1, 191083, Control_c, 0, 64, 45
1, 191086, Note_off_c, 0, 79, 58
1, 191098, Control_c, 0, 64, 46
1, 191127, Note_off_c, 0, 75, 62
1, 191142, Control_c, 0, 64, 45
1, 191155, Note_on_c, 0, 72, 48
1, 191157, Control_c, 0, 64, 45
1, 191172, Control_c, 0, 64, 43
1, 191186, Control_c, 0, 64, 41
1, 191201, Control_c, 0, 64, 38
1, 191216, Control_c, 0, 64, 35
1, 191220, Note_on_c, 0, 80, 65
1, 191231, Note_off_c, 0, 72, 59
1, 191231, Control_c, 0, 64, 34
1, 191232, Note_on_c, 0, 65, 47
1, 191246, Control_c, 0, 64, 36
1, 191248, Note_on_c, 0, 55, 39
1, 191260, Control_c, 0, 64, 38
1, 191273, Note_off_c, 0, 65, 51
1, 191275, Control_c, 0, 64, 40
1, 191289, Note_off_c, 0, 55, 55
1, 191290, Control_c, 0, 64, 42
1, 191302, Note_on_c, 0, 77, 59
1, 191305, Control_c, 0, 64, 44
1, 191346, Note_off_c, 0, 80, 55
1, 191362, Note_off_c, 0, 77, 63
1, 191364, Control_c, 0, 64, 43
1, 191378, Note_on_c, 0, 74, 59
1, 191379, Control_c, 0, 64, 41
1, 191393, Control_c, 0, 64, 39
1, 191410, Control_c, 0, 64, 37
1, 191425, Control_c, 0, 64, 36
1, 191432, Note_off_c, 0, 74, 56
1, 191438, Note_on_c, 0, 83, 83
1, 191439, Control_c, 0, 64, 37
1, 191454, Control_c, 0, 64, 39
1, 191456, Note_on_c, 0, 62, 64
1, 191457, Note_on_c, 0, 55, 52
1, 191469, Control_c, 0, 64, 44
1, 191491, Control_c, 0, 64, 48
1, 191492, Note_off_c, 0, 62, 67
1, 191506, Control_c, 0, 64, 52
1, 191510, Note_off_c, 0, 55, 58
1, 191517, Note_on_c, 0, 77, 68
1, 191521, Control_c, 0, 64, 55
1, 191536, Control_c, 0, 64, 58
1, 191551, Control_c, 0, 64, 62
1, 191565, Control_c, 0, 64, 64
1, 191571, Note_off_c, 0, 83, 61
1, 191580, Note_on_c, 0, 74, 70
1, 191580, Control_c, 0, 64, 65
1, 191585, Note_off_c, 0, 77, 54
1, 191595, Control_c, 0, 64, 65
1, 191644, Note_on_c, 0, 84, 80
1, 191664, Note_on_c, 0, 63, 74
1, 191669, Control_c, 0, 64, 65
1, 191670, Note_off_c, 0, 74, 32
1, 191671, Note_on_c, 0, 55, 60
1, 191684, Control_c, 0, 64, 64
1, 191721, Note_off_c, 0, 63, 60
1, 191724, Note_on_c, 0, 79, 68
1, 191728, Control_c, 0, 64, 65
1, 191734, Note_off_c, 0, 55, 48
1, 191743, Control_c, 0, 64, 67
1, 191757, Note_off_c, 0, 84, 65
1, 191758, Control_c, 0, 64, 69
1, 191763, Note_on_c, 0, 75, 64
1, 191772, Control_c, 0, 64, 71
1, 191787, Note_off_c, 0, 75, 69
1, 191787, Control_c, 0, 64, 71
1, 191806, Note_off_c, 0, 79, 63
1, 191846, Control_c, 0, 64, 71
1, 191861, Control_c, 0, 64, 70
1, 191865, Note_on_c, 0, 86, 87
1, 191876, Note_on_c, 0, 55, 74
1, 191876, Note_on_c, 0, 59, 72
1, 191876, Control_c, 0, 64, 66
1, 191891, Control_c, 0, 64, 59
1, 191906, Control_c, 0, 64, 41
1, 191921, Control_c, 0, 64, 0
1, 191932, Note_off_c, 0, 59, 62
1, 191946, Note_on_c, 0, 83, 75
1, 191951, Note_off_c, 0, 55, 60
1, 191975, Note_off_c, 0, 86, 63
1, 191991, Note_off_c, 0, 83, 60
1, 192022, Note_on_c, 0, 79, 70
1, 192069, Note_off_c, 0, 79, 58
1, 192085, Note_on_c, 0, 87, 85
1, 192097, Note_on_c, 0, 55, 77
1, 192097, Note_on_c, 0, 60, 82
1, 192124, Note_off_c, 0, 60, 66
1, 192135, Note_off_c, 0, 55, 64
1, 192156, Note_on_c, 0, 84, 66
1, 192194, Note_off_c, 0, 87, 64
1, 192245, Note_off_c, 0, 84, 63
1, 192247, Note_on_c, 0, 79, 69
1, 192359, Control_c, 0, 64, 24
1, 192359, Note_on_c, 0, 89, 93
1, 192362, Note_off_c, 0, 79, 34
1, 192374, Control_c, 0, 64, 41
1, 192374, Note_on_c, 0, 62, 66
1, 192380, Note_on_c, 0, 55, 58
1, 192388, Control_c, 0, 64, 53
1, 192391, Note_off_c, 0, 89, 67
1, 192403, Control_c, 0, 64, 58
1, 192407, Note_off_c, 0, 62, 62
1, 192418, Control_c, 0, 64, 61
1, 192424, Note_off_c, 0, 55, 64
1, 192433, Control_c, 0, 64, 64
1, 192447, Control_c, 0, 64, 67
1, 192462, Control_c, 0, 64, 71
1, 192477, Control_c, 0, 64, 74
1, 192492, Control_c, 0, 64, 77
1, 192507, Control_c, 0, 64, 79
1, 192521, Control_c, 0, 64, 81
1, 192536, Control_c, 0, 64, 81
1, 192639, Control_c, 0, 64, 80
1, 192654, Control_c, 0, 64, 77
1, 192669, Control_c, 0, 64, 75
1, 192684, Control_c, 0, 64, 74
1, 192699, Control_c, 0, 64, 73
1, 192714, Control_c, 0, 64, 73
1, 192729, Control_c, 0, 64, 71
1, 192744, Control_c, 0, 64, 68
1, 192758, Control_c, 0, 64, 63
1, 192773, Control_c, 0, 64, 61
1, 192788, Control_c, 0, 64, 60
1, 192803, Control_c, 0, 64, 59
1, 192818, Control_c, 0, 64, 56
1, 192832, Control_c, 0, 64, 51
1, 192847, Control_c, 0, 64, 42
1, 192862, Control_c, 0, 64, 21
1, 192877, Control_c, 0, 64, 0
1, 193368, Note_on_c, 0, 60, 45
1, 193413, Note_off_c, 0, 60, 62
1, 193453, Note_on_c, 0, 63, 37
1, 193488, Note_off_c, 0, 63, 57
1, 193521, Note_on_c, 0, 67, 42
1, 193572, Note_off_c, 0, 67, 56
1, 193601, Note_on_c, 0, 60, 47
1, 193642, Note_off_c, 0, 60, 63
1, 193673, Note_on_c, 0, 63, 39
1, 193700, Note_off_c, 0, 63, 57
1, 193746, Note_on_c, 0, 67, 40
1, 193766, Control_c, 0, 64, 8
1, 193781, Control_c, 0, 64, 12
1, 193794, Note_off_c, 0, 67, 52
1, 193795, Control_c, 0, 64, 15
1, 193811, Control_c, 0, 64, 19
1, 193826, Control_c, 0, 64, 22
1, 193831, Note_on_c, 0, 60, 52
1, 193841, Control_c, 0, 64, 26
1, 193856, Control_c, 0, 64, 29
1, 193865, Note_off_c, 0, 60, 64
1, 193870, Control_c, 0, 64, 32
1, 193885, Control_c, 0, 64, 34
1, 193900, Control_c, 0, 64, 35
1, 193915, Control_c, 0, 64, 36
1, 193930, Control_c, 0, 64, 37
1, 193942, Note_on_c, 0, 67, 46
1, 193945, Control_c, 0, 64, 38
1, 194028, Note_off_c, 0, 67, 36
1, 194033, Control_c, 0, 64, 37
1, 194046, Note_on_c, 0, 77, 64
1, 194063, Control_c, 0, 64, 37
1, 194066, Note_on_c, 0, 60, 37
1, 194077, Control_c, 0, 64, 36
1, 194092, Control_c, 0, 64, 36
1, 194097, Note_off_c, 0, 60, 60
1, 194102, Note_on_c, 0, 75, 60
1, 194107, Control_c, 0, 64, 35
1, 194109, Note_on_c, 0, 63, 34
1, 194122, Control_c, 0, 64, 34
1, 194137, Control_c, 0, 64, 33
1, 194140, Note_off_c, 0, 63, 57
1, 194142, Note_off_c, 0, 77, 35
1, 194152, Control_c, 0, 64, 31
1, 194166, Control_c, 0, 64, 30
1, 194175, Note_on_c, 0, 74, 62
1, 194176, Note_on_c, 0, 67, 42
1, 194181, Control_c, 0, 64, 28
1, 194197, Control_c, 0, 64, 27
1, 194211, Control_c, 0, 64, 25
1, 194226, Control_c, 0, 64, 24
1, 194230, Note_on_c, 0, 72, 52
1, 194235, Note_off_c, 0, 75, 52
1, 194237, Note_off_c, 0, 74, 59
1, 194241, Control_c, 0, 64, 24
1, 194262, Note_off_c, 0, 67, 54
1, 194269, Note_off_c, 0, 72, 63
1, 194270, Note_on_c, 0, 71, 68
1, 194282, Note_on_c, 0, 62, 51
1, 194295, Note_off_c, 0, 71, 68
1, 194300, Control_c, 0, 64, 24
1, 194327, Note_off_c, 0, 62, 63
1, 194330, Control_c, 0, 64, 25
1, 194344, Control_c, 0, 64, 26
1, 194359, Control_c, 0, 64, 28
1, 194364, Note_on_c, 0, 65, 56
1, 194374, Control_c, 0, 64, 30
1, 194389, Control_c, 0, 64, 30
1, 194392, Note_off_c, 0, 65, 65
1, 194426, Note_on_c, 0, 67, 45
1, 194485, Control_c, 0, 64, 30
1, 194500, Control_c, 0, 64, 29
1, 194505, Note_off_c, 0, 67, 53
1, 194515, Control_c, 0, 64, 29
1, 194517, Note_on_c, 0, 62, 58
1, 194558, Note_off_c, 0, 62, 63
1, 194589, Control_c, 0, 64, 29
1, 194598, Note_on_c, 0, 65, 41
1, 194604, Control_c, 0, 64, 30
1, 194627, Note_off_c, 0, 65, 35
1, 194640, Note_on_c, 0, 67, 57
1, 194679, Control_c, 0, 64, 29
1, 194694, Control_c, 0, 64, 29
1, 194708, Control_c, 0, 64, 28
1, 194723, Note_off_c, 0, 67, 42
1, 194728, Note_on_c, 0, 59, 59
1, 194753, Control_c, 0, 64, 29
1, 194765, Note_off_c, 0, 59, 64
1, 194768, Control_c, 0, 64, 29
1, 194783, Control_c, 0, 64, 30
1, 194783, Note_on_c, 0, 62, 57
1, 194798, Control_c, 0, 64, 30
1, 194812, Control_c, 0, 64, 31
1, 194817, Note_off_c, 0, 62, 65
1, 194827, Control_c, 0, 64, 32
1, 194842, Control_c, 0, 64, 32
1, 194857, Control_c, 0, 64, 33
1, 194861, Note_on_c, 0, 67, 41
1, 194872, Control_c, 0, 64, 34
1, 194887, Control_c, 0, 64, 35
1, 194901, Control_c, 0, 64, 35
1, 194902, Note_off_c, 0, 67, 47
1, 194916, Control_c, 0, 64, 36
1, 194953, Note_on_c, 0, 82, 61
1, 194960, Control_c, 0, 64, 35
1, 194973, Note_on_c, 0, 59, 23
1, 194975, Control_c, 0, 64, 35
1, 194987, Note_on_c, 0, 80, 60
1, 194990, Control_c, 0, 64, 34
1, 194996, Note_off_c, 0, 59, 43
1, 195004, Note_on_c, 0, 62, 47
1, 195005, Control_c, 0, 64, 33
1, 195020, Control_c, 0, 64, 32
1, 195022, Note_off_c, 0, 82, 59
1, 195034, Control_c, 0, 64, 31
1, 195044, Note_off_c, 0, 62, 65
1, 195047, Note_on_c, 0, 79, 61
1, 195049, Control_c, 0, 64, 30
1, 195064, Control_c, 0, 64, 30
1, 195079, Control_c, 0, 64, 29
1, 195087, Note_on_c, 0, 67, 50
1, 195094, Control_c, 0, 64, 28
1, 195099, Note_off_c, 0, 80, 56
1, 195108, Note_on_c, 0, 77, 61
1, 195108, Control_c, 0, 64, 26
1, 195123, Control_c, 0, 64, 25
1, 195138, Control_c, 0, 64, 24
1, 195152, Note_off_c, 0, 79, 38
1, 195166, Note_on_c, 0, 75, 63
1, 195170, Note_off_c, 0, 67, 56
1, 195173, Note_off_c, 0, 77, 60
1, 195181, Note_on_c, 0, 60, 50
1, 195191, Note_off_c, 0, 75, 68
1, 195218, Note_off_c, 0, 60, 62
1, 195234, Control_c, 0, 64, 24
1, 195258, Note_on_c, 0, 63, 41
1, 195264, Control_c, 0, 64, 23
1, 195279, Control_c, 0, 64, 22
1, 195281, Note_off_c, 0, 63, 53
1, 195294, Control_c, 0, 64, 21
1, 195308, Control_c, 0, 64, 20
1, 195322, Note_on_c, 0, 67, 46
1, 195323, Control_c, 0, 64, 20
1, 195338, Control_c, 0, 64, 19
1, 195353, Control_c, 0, 64, 17
1, 195367, Control_c, 0, 64, 15
1, 195376, Note_off_c, 0, 67, 48
1, 195382, Control_c, 0, 64, 13
1, 195397, Control_c, 0, 64, 10
1, 195413, Control_c, 0, 64, 0
1, 195417, Note_on_c, 0, 60, 50
1, 195441, Note_off_c, 0, 60, 62
1, 195457, Control_c, 0, 64, 11
1, 195467, Note_on_c, 0, 63, 40
1, 195472, Control_c, 0, 64, 14
1, 195487, Control_c, 0, 64, 15
1, 195496, Note_off_c, 0, 63, 61
1, 195531, Control_c, 0, 64, 14
1, 195546, Note_on_c, 0, 67, 46
1, 195546, Control_c, 0, 64, 12
1, 195561, Control_c, 0, 64, 11
1, 195576, Control_c, 0, 64, 8
1, 195590, Control_c, 0, 64, 0
1, 195602, Note_off_c, 0, 67, 52
1, 195620, Control_c, 0, 64, 10
1, 195635, Note_on_c, 0, 60, 49
1, 195635, Control_c, 0, 64, 18
1, 195650, Control_c, 0, 64, 27
1, 195665, Control_c, 0, 64, 36
1, 195666, Note_off_c, 0, 60, 66
1, 195680, Control_c, 0, 64, 43
1, 195695, Control_c, 0, 64, 46
1, 195696, Note_on_c, 0, 63, 44
1, 195710, Control_c, 0, 64, 46
1, 195721, Note_off_c, 0, 63, 58
1, 195739, Control_c, 0, 64, 47
1, 195754, Control_c, 0, 64, 47
1, 195757, Note_on_c, 0, 67, 55
1, 195813, Control_c, 0, 64, 47
1, 195828, Control_c, 0, 64, 46
1, 195843, Control_c, 0, 64, 46
1, 195857, Control_c, 0, 64, 44
1, 195864, Note_off_c, 0, 67, 47
1, 195869, Note_on_c, 0, 60, 49
1, 195869, Note_on_c, 0, 77, 66
1, 195872, Control_c, 0, 64, 42
1, 195887, Control_c, 0, 64, 38
1, 195901, Control_c, 0, 64, 33
1, 195902, Note_off_c, 0, 77, 59
1, 195909, Note_off_c, 0, 60, 64
1, 195916, Control_c, 0, 64, 24
1, 195918, Note_on_c, 0, 75, 67
1, 195931, Control_c, 0, 64, 16
1, 195946, Control_c, 0, 64, 8
1, 195949, Note_on_c, 0, 63, 41
1, 195961, Control_c, 0, 64, 0
1, 195974, Note_off_c, 0, 63, 52
1, 195986, Note_on_c, 0, 74, 59
1, 196008, Note_on_c, 0, 67, 46
1, 196024, Note_on_c, 0, 72, 66
1, 196025, Note_off_c, 0, 75, 60
1, 196042, Note_off_c, 0, 74, 61
1, 196069, Note_off_c, 0, 72, 66
1, 196071, Note_on_c, 0, 71, 75
1, 196091, Note_off_c, 0, 71, 70
1, 196094, Note_off_c, 0, 67, 58
1, 196097, Note_on_c, 0, 62, 56
1, 196116, Control_c, 0, 64, 8
1, 196131, Control_c, 0, 64, 17
1, 196145, Note_off_c, 0, 62, 64
1, 196146, Control_c, 0, 64, 24
1, 196161, Control_c, 0, 64, 27
1, 196176, Control_c, 0, 64, 28
1, 196178, Note_on_c, 0, 65, 54
1, 196190, Control_c, 0, 64, 29
1, 196206, Control_c, 0, 64, 29
1, 196215, Note_off_c, 0, 65, 62
1, 196246, Note_on_c, 0, 67, 47
1, 196251, Control_c, 0, 64, 29
1, 196266, Control_c, 0, 64, 28
1, 196280, Control_c, 0, 64, 26
1, 196295, Control_c, 0, 64, 21
1, 196310, Control_c, 0, 64, 15
1, 196325, Control_c, 0, 64, 0
1, 196330, Note_off_c, 0, 67, 57
1, 196333, Note_on_c, 0, 62, 56
1, 196354, Control_c, 0, 64, 11
1, 196368, Note_off_c, 0, 62, 65
1, 196369, Control_c, 0, 64, 12
1, 196384, Control_c, 0, 64, 14
1, 196391, Note_on_c, 0, 65, 59
1, 196399, Control_c, 0, 64, 16
1, 196413, Control_c, 0, 64, 19
1, 196421, Note_off_c, 0, 65, 65
1, 196428, Control_c, 0, 64, 19
1, 196443, Control_c, 0, 64, 19
1, 196455, Note_on_c, 0, 67, 63
1, 196458, Control_c, 0, 64, 17
1, 196473, Control_c, 0, 64, 16
1, 196488, Control_c, 0, 64, 14
1, 196488, Control_c, 0, 67, 126
1, 196503, Control_c, 0, 64, 13
1, 196503, Control_c, 0, 67, 125
1, 196517, Control_c, 0, 64, 12
1, 196517, Control_c, 0, 67, 124
1, 196532, Control_c, 0, 67, 125
1, 196535, Note_on_c, 0, 59, 72
1, 196547, Control_c, 0, 64, 14
1, 196562, Control_c, 0, 64, 17
1, 196562, Control_c, 0, 67, 125
1, 196573, Note_off_c, 0, 59, 63
1, 196575, Note_off_c, 0, 67, 35
1, 196577, Control_c, 0, 64, 20
1, 196592, Control_c, 0, 64, 24
1, 196606, Control_c, 0, 64, 27
1, 196613, Note_on_c, 0, 62, 40
1, 196621, Control_c, 0, 64, 27
1, 196636, Control_c, 0, 67, 125
1, 196640, Note_off_c, 0, 62, 56
1, 196651, Control_c, 0, 64, 27
1, 196675, Note_on_c, 0, 67, 54
1, 196680, Control_c, 0, 67, 125
1, 196710, Control_c, 0, 64, 27
1, 196711, Note_off_c, 0, 67, 58
1, 196732, Control_c, 0, 67, 126
1, 196747, Control_c, 0, 64, 28
1, 196758, Note_on_c, 0, 59, 53
1, 196759, Note_on_c, 0, 82, 72
1, 196777, Control_c, 0, 64, 28
1, 196777, Control_c, 0, 67, 126
1, 196801, Note_off_c, 0, 59, 62
1, 196804, Note_on_c, 0, 80, 69
1, 196823, Note_on_c, 0, 62, 40
1, 196836, Control_c, 0, 64, 28
1, 196836, Control_c, 0, 67, 127
1, 196839, Note_off_c, 0, 82, 61
1, 196851, Control_c, 0, 64, 27
1, 196863, Note_off_c, 0, 62, 65
1, 196863, Note_on_c, 0, 79, 70
1, 196866, Control_c, 0, 64, 26
1, 196880, Control_c, 0, 64, 26
1, 196880, Control_c, 0, 67, 126
1, 196895, Control_c, 0, 64, 24
1, 196906, Note_on_c, 0, 77, 63
1, 196907, Note_on_c, 0, 67, 50
1, 196910, Control_c, 0, 64, 21
1, 196915, Note_off_c, 0, 80, 58
1, 196924, Control_c, 0, 64, 20
1, 196936, Note_off_c, 0, 79, 60
1, 196954, Control_c, 0, 64, 21
1, 196962, Note_on_c, 0, 75, 81
1, 196969, Note_off_c, 0, 77, 65
1, 196969, Control_c, 0, 64, 21
1, 196976, Note_off_c, 0, 67, 56
1, 196982, Note_off_c, 0, 75, 70
1, 196985, Note_on_c, 0, 60, 60
1, 197015, Control_c, 0, 67, 126
1, 197021, Note_off_c, 0, 60, 63
1, 197029, Control_c, 0, 64, 21
1, 197044, Control_c, 0, 64, 20
1, 197044, Control_c, 0, 67, 125
1, 197057, Note_on_c, 0, 63, 48
1, 197059, Control_c, 0, 64, 19
1, 197074, Control_c, 0, 64, 17
1, 197081, Note_off_c, 0, 63, 52
1, 197089, Control_c, 0, 64, 15
1, 197103, Control_c, 0, 64, 14
1, 197105, Note_on_c, 0, 67, 58
1, 197177, Control_c, 0, 64, 15
1, 197207, Control_c, 0, 67, 126
1, 197218, Note_on_c, 0, 77, 63
1, 197221, Note_on_c, 0, 60, 50
1, 197224, Note_off_c, 0, 67, 50
1, 197251, Control_c, 0, 67, 126
1, 197263, Note_on_c, 0, 75, 70
1, 197263, Note_off_c, 0, 60, 63
1, 197264, Note_off_c, 0, 77, 59
1, 197281, Control_c, 0, 67, 127
1, 197293, Note_on_c, 0, 63, 46
1, 197296, Control_c, 0, 64, 14
1, 197310, Control_c, 0, 67, 127
1, 197316, Note_off_c, 0, 63, 60
1, 197319, Note_on_c, 0, 74, 70
1, 197352, Note_on_c, 0, 67, 52
1, 197358, Note_on_c, 0, 72, 75
1, 197358, Note_off_c, 0, 75, 62
1, 197370, Note_off_c, 0, 74, 63
1, 197385, Control_c, 0, 64, 14
1, 197397, Note_off_c, 0, 72, 66
1, 197400, Control_c, 0, 64, 13
1, 197406, Note_on_c, 0, 71, 84
1, 197415, Control_c, 0, 64, 12
1, 197432, Note_on_c, 0, 62, 60
1, 197433, Note_off_c, 0, 67, 62
1, 197433, Note_off_c, 0, 71, 65
1, 197459, Control_c, 0, 64, 14
1, 197468, Note_off_c, 0, 62, 64
1, 197480, Control_c, 0, 64, 19
1, 197495, Control_c, 0, 64, 24
1, 197505, Note_on_c, 0, 65, 60
1, 197510, Control_c, 0, 64, 27
1, 197525, Control_c, 0, 64, 28
1, 197534, Note_off_c, 0, 65, 66
1, 197575, Note_on_c, 0, 67, 55
1, 197585, Control_c, 0, 64, 27
1, 197614, Control_c, 0, 64, 27
1, 197644, Control_c, 0, 64, 26
1, 197659, Control_c, 0, 64, 26
1, 197666, Note_on_c, 0, 59, 63
1, 197671, Note_on_c, 0, 82, 71
1, 197673, Note_off_c, 0, 67, 56
1, 197674, Control_c, 0, 64, 24
1, 197688, Control_c, 0, 64, 23
1, 197699, Note_on_c, 0, 80, 76
1, 197703, Control_c, 0, 64, 22
1, 197712, Note_off_c, 0, 59, 64
1, 197718, Control_c, 0, 64, 20
1, 197731, Note_off_c, 0, 82, 62
1, 197732, Note_on_c, 0, 62, 53
1, 197733, Control_c, 0, 64, 18
1, 197747, Control_c, 0, 64, 17
1, 197764, Note_on_c, 0, 78, 72
1, 197768, Note_off_c, 0, 62, 65
1, 197803, Note_on_c, 0, 67, 58
1, 197808, Control_c, 0, 64, 18
1, 197817, Note_on_c, 0, 79, 47
1, 197822, Note_on_c, 0, 77, 69
1, 197823, Note_off_c, 0, 80, 56
1, 197841, Note_off_c, 0, 79, 57
1, 197852, Control_c, 0, 64, 18
1, 197855, Note_off_c, 0, 78, 60
1, 197867, Control_c, 0, 64, 19
1, 197872, Note_on_c, 0, 75, 92
1, 197876, Note_off_c, 0, 77, 66
1, 197882, Control_c, 0, 64, 20
1, 197892, Note_on_c, 0, 60, 68
1, 197895, Note_off_c, 0, 67, 57
1, 197897, Control_c, 0, 64, 21
1, 197901, Note_off_c, 0, 75, 67
1, 197911, Control_c, 0, 64, 22
1, 197924, Note_off_c, 0, 60, 63
1, 197926, Control_c, 0, 64, 23
1, 197941, Control_c, 0, 64, 23
1, 197951, Note_on_c, 0, 63, 54
1, 197956, Control_c, 0, 64, 24
1, 197971, Control_c, 0, 64, 23
1, 197975, Note_off_c, 0, 63, 64
1, 197985, Control_c, 0, 64, 23
1, 198000, Control_c, 0, 64, 22
1, 198010, Note_on_c, 0, 67, 66
1, 198015, Control_c, 0, 64, 21
1, 198030, Control_c, 0, 64, 20
1, 198059, Control_c, 0, 64, 20
1, 198089, Control_c, 0, 64, 19
1, 198098, Note_on_c, 0, 77, 77
1, 198101, Note_on_c, 0, 60, 66
1, 198103, Control_c, 0, 64, 17
1, 198117, Note_off_c, 0, 67, 59
1, 198118, Control_c, 0, 64, 16
1, 198133, Control_c, 0, 64, 14
1, 198140, Note_on_c, 0, 75, 78
1, 198142, Note_off_c, 0, 60, 64
1, 198148, Control_c, 0, 64, 14
1, 198163, Control_c, 0, 64, 14
1, 198166, Note_off_c, 0, 77, 62
1, 198171, Note_on_c, 0, 63, 64
1, 198178, Control_c, 0, 64, 15
1, 198193, Control_c, 0, 64, 16
1, 198193, Note_on_c, 0, 74, 74
1, 198200, Note_off_c, 0, 63, 64
1, 198208, Control_c, 0, 64, 17
1, 198230, Control_c, 0, 64, 17
1, 198247, Note_on_c, 0, 72, 80
1, 198249, Note_on_c, 0, 67, 64
1, 198254, Note_off_c, 0, 75, 62
1, 198259, Note_off_c, 0, 74, 65
1, 198259, Control_c, 0, 64, 17
1, 198274, Control_c, 0, 64, 16
1, 198289, Control_c, 0, 64, 15
1, 198293, Note_off_c, 0, 72, 64
1, 198303, Note_on_c, 0, 71, 86
1, 198303, Control_c, 0, 64, 14
1, 198318, Control_c, 0, 64, 12
1, 198321, Note_on_c, 0, 62, 70
1, 198333, Note_off_c, 0, 71, 66
1, 198333, Control_c, 0, 64, 11
1, 198336, Note_off_c, 0, 67, 58
1, 198348, Control_c, 0, 64, 12
1, 198363, Control_c, 0, 64, 13
1, 198368, Note_off_c, 0, 62, 63
1, 198378, Control_c, 0, 64, 15
1, 198386, Note_on_c, 0, 65, 72
1, 198392, Control_c, 0, 64, 18
1, 198407, Control_c, 0, 64, 20
1, 198422, Control_c, 0, 64, 20
1, 198423, Note_off_c, 0, 65, 61
1, 198437, Control_c, 0, 64, 21
1, 198457, Note_on_c, 0, 67, 71
1, 198497, Control_c, 0, 64, 20
1, 198541, Control_c, 0, 64, 20
1, 198551, Note_on_c, 0, 82, 73
1, 198556, Control_c, 0, 64, 19
1, 198558, Note_on_c, 0, 59, 73
1, 198571, Note_off_c, 0, 67, 54
1, 198571, Control_c, 0, 64, 18
1, 198583, Note_on_c, 0, 80, 77
1, 198585, Control_c, 0, 64, 17
1, 198585, Control_c, 0, 67, 126
1, 198601, Control_c, 0, 64, 16
1, 198601, Control_c, 0, 67, 125
1, 198613, Note_on_c, 0, 62, 66
1, 198614, Note_off_c, 0, 59, 64
1, 198616, Control_c, 0, 67, 124
1, 198631, Control_c, 0, 67, 123
1, 198642, Note_off_c, 0, 82, 61
1, 198646, Control_c, 0, 64, 17
1, 198646, Control_c, 0, 67, 121
1, 198651, Note_on_c, 0, 78, 62
1, 198658, Note_off_c, 0, 62, 65
1, 198661, Control_c, 0, 64, 18
1, 198661, Control_c, 0, 67, 117
1, 198674, Note_on_c, 0, 79, 67
1, 198675, Control_c, 0, 64, 19
1, 198675, Control_c, 0, 67, 113
1, 198687, Note_on_c, 0, 67, 71
1, 198690, Control_c, 0, 64, 19
1, 198690, Control_c, 0, 67, 109
1, 198702, Note_on_c, 0, 77, 74
1, 198705, Control_c, 0, 67, 106
1, 198720, Control_c, 0, 67, 103
1, 198731, Note_off_c, 0, 80, 58
1, 198734, Control_c, 0, 64, 19
1, 198734, Control_c, 0, 67, 101
1, 198735, Note_off_c, 0, 79, 62
1, 198749, Control_c, 0, 67, 100
1, 198756, Note_off_c, 0, 78, 38
1, 198761, Note_on_c, 0, 75, 84
1, 198764, Control_c, 0, 67, 99
1, 198768, Note_on_c, 0, 60, 82
1, 198771, Note_off_c, 0, 77, 65
1, 198779, Control_c, 0, 64, 18
1, 198796, Note_off_c, 0, 75, 66
1, 198808, Control_c, 0, 64, 18
1, 198823, Control_c, 0, 64, 17
1, 198838, Control_c, 0, 64, 18
1, 198850, Note_off_c, 0, 67, 34
1, 198868, Control_c, 0, 64, 18
1, 198882, Control_c, 0, 64, 19
1, 198882, Control_c, 0, 67, 99
1, 198941, Control_c, 0, 64, 19
1, 198956, Control_c, 0, 64, 20
1, 199023, Control_c, 0, 67, 100
1, 199039, Note_on_c, 0, 89, 82
1, 199052, Control_c, 0, 64, 20
1, 199052, Control_c, 0, 67, 101
1, 199067, Control_c, 0, 67, 102
1, 199082, Control_c, 0, 64, 19
1, 199082, Control_c, 0, 67, 104
1, 199097, Control_c, 0, 67, 105
1, 199112, Control_c, 0, 67, 106
1, 199118, Note_on_c, 0, 87, 80
1, 199126, Control_c, 0, 67, 107
1, 199134, Note_off_c, 0, 89, 63
1, 199141, Control_c, 0, 64, 19
1, 199141, Control_c, 0, 67, 109
1, 199156, Control_c, 0, 67, 110
1, 199171, Control_c, 0, 67, 113
1, 199186, Control_c, 0, 64, 18
1, 199186, Control_c, 0, 67, 117
1, 199199, Note_on_c, 0, 86, 78
1, 199200, Control_c, 0, 67, 124
1, 199203, Note_off_c, 0, 87, 65
1, 199212, Note_off_c, 0, 60, 62
1, 199215, Control_c, 0, 64, 18
1, 199215, Control_c, 0, 67, 127
1, 199245, Control_c, 0, 64, 17
1, 199248, Note_off_c, 0, 86, 62
1, 199256, Note_on_c, 0, 84, 77
1, 199275, Control_c, 0, 64, 17
1, 199290, Control_c, 0, 64, 16
1, 199305, Control_c, 0, 64, 15
1, 199314, Note_off_c, 0, 84, 60
1, 199320, Control_c, 0, 64, 14
1, 199344, Note_on_c, 0, 82, 81
1, 199364, Control_c, 0, 64, 14
1, 199421, Note_on_c, 0, 80, 75
1, 199424, Control_c, 0, 64, 13
1, 199457, Note_off_c, 0, 82, 62
1, 199466, Control_c, 0, 64, 13
1, 199487, Note_on_c, 0, 79, 75
1, 199489, Note_off_c, 0, 80, 63
1, 199511, Control_c, 0, 64, 12
1, 199526, Control_c, 0, 64, 11
1, 199540, Control_c, 0, 64, 9
1, 199544, Note_off_c, 0, 79, 61
1, 199555, Control_c, 0, 64, 0
1, 199559, Note_on_c, 0, 77, 69
1, 199649, Note_off_c, 0, 77, 52
1, 199650, Note_on_c, 0, 75, 69
1, 199749, Note_on_c, 0, 74, 61
1, 199770, Note_off_c, 0, 75, 62
1, 199775, Note_on_c, 0, 56, 40
1, 199788, Note_on_c, 0, 53, 28
1, 199829, Control_c, 0, 64, 11
1, 199844, Control_c, 0, 64, 17
1, 199859, Control_c, 0, 64, 24
1, 199874, Control_c, 0, 64, 30
1, 199889, Control_c, 0, 64, 38
1, 199904, Control_c, 0, 64, 44
1, 199914, Note_off_c, 0, 74, 64
1, 199919, Control_c, 0, 64, 47
1, 199934, Control_c, 0, 64, 50
1, 199948, Control_c, 0, 64, 51
1, 199963, Control_c, 0, 64, 51
1, 200037, Control_c, 0, 64, 51
1, 200052, Control_c, 0, 64, 50
1, 200067, Control_c, 0, 64, 48
1, 200081, Control_c, 0, 64, 45
1, 200096, Control_c, 0, 64, 42
1, 200111, Control_c, 0, 64, 39
1, 200126, Control_c, 0, 64, 36
1, 200138, Note_on_c, 0, 73, 53
1, 200141, Control_c, 0, 64, 33
1, 200155, Control_c, 0, 64, 29
1, 200170, Control_c, 0, 64, 26
1, 200185, Control_c, 0, 64, 22
1, 200201, Control_c, 0, 64, 20
1, 200216, Control_c, 0, 64, 18
1, 200231, Control_c, 0, 64, 16
1, 200244, Note_off_c, 0, 73, 57
1, 200245, Control_c, 0, 64, 14
1, 200260, Control_c, 0, 64, 12
1, 200261, Note_on_c, 0, 74, 57
1, 200275, Control_c, 0, 64, 9
1, 200290, Control_c, 0, 64, 0
1, 200330, Note_off_c, 0, 53, 35
1, 200355, Note_off_c, 0, 74, 60
1, 200369, Note_on_c, 0, 75, 66
1, 200480, Note_off_c, 0, 75, 64
1, 200488, Note_off_c, 0, 56, 43
1, 200488, Note_on_c, 0, 76, 74
1, 200606, Note_on_c, 0, 77, 70
1, 200608, Note_off_c, 0, 76, 63
1, 200608, Control_c, 0, 64, 9
1, 200622, Control_c, 0, 64, 14
1, 200637, Control_c, 0, 64, 20
1, 200652, Control_c, 0, 64, 28
1, 200667, Control_c, 0, 64, 34
1, 200682, Control_c, 0, 64, 38
1, 200697, Control_c, 0, 64, 42
1, 200712, Control_c, 0, 64, 44
1, 200712, Note_on_c, 0, 78, 69
1, 200727, Control_c, 0, 64, 46
1, 200732, Note_off_c, 0, 77, 57
1, 200741, Control_c, 0, 64, 49
1, 200756, Control_c, 0, 64, 51
1, 200771, Control_c, 0, 64, 53
1, 200786, Control_c, 0, 64, 54
1, 200801, Control_c, 0, 64, 55
1, 200807, Note_off_c, 0, 78, 62
1, 200822, Note_on_c, 0, 79, 69
1, 200875, Control_c, 0, 64, 55
1, 200890, Control_c, 0, 64, 53
1, 200904, Control_c, 0, 64, 51
1, 200906, Note_off_c, 0, 79, 0
1, 200919, Control_c, 0, 64, 48
1, 200935, Control_c, 0, 64, 46
1, 200946, Note_on_c, 0, 82, 70
1, 200950, Control_c, 0, 64, 44
1, 200959, Poly_aftertouch_c, 0, 79, 0
1, 200965, Control_c, 0, 64, 42
1, 200979, Control_c, 0, 64, 40
1, 200995, Control_c, 0, 64, 36
1, 201010, Control_c, 0, 64, 32
1, 201025, Control_c, 0, 64, 27
1, 201040, Control_c, 0, 64, 23
1, 201054, Control_c, 0, 64, 21
1, 201066, Note_on_c, 0, 80, 64
1, 201069, Control_c, 0, 64, 20
1, 201114, Control_c, 0, 64, 19
1, 201128, Control_c, 0, 64, 17
1, 201143, Control_c, 0, 64, 15
1, 201151, Note_off_c, 0, 82, 34
1, 201180, Note_off_c, 0, 80, 60
1, 201185, Note_on_c, 0, 79, 62
1, 201239, Control_c, 0, 64, 14
1, 201268, Note_off_c, 0, 79, 57
1, 201287, Note_on_c, 0, 77, 59
1, 201388, Control_c, 0, 64, 14
1, 201409, Note_on_c, 0, 75, 60
1, 201418, Note_off_c, 0, 77, 41
1, 201519, Note_on_c, 0, 74, 58
1, 201522, Note_off_c, 0, 75, 57
1, 201535, Control_c, 0, 64, 14
1, 201550, Control_c, 0, 64, 15
1, 201642, Note_off_c, 0, 74, 57
1, 201654, Note_on_c, 0, 72, 53
1, 201683, Control_c, 0, 64, 14
1, 201713, Control_c, 0, 64, 14
1, 201772, Control_c, 0, 64, 14
1, 201803, Control_c, 0, 64, 15
1, 201876, Note_on_c, 0, 63, 38
1, 201877, Control_c, 0, 64, 16
1, 201877, Note_on_c, 0, 55, 40
1, 201907, Control_c, 0, 64, 17
1, 201916, Note_off_c, 0, 63, 55
1, 201922, Note_off_c, 0, 55, 49
1, 201922, Control_c, 0, 64, 18
1, 201937, Control_c, 0, 64, 18
1, 201951, Control_c, 0, 64, 19
1, 201973, Control_c, 0, 64, 19
1, 201988, Control_c, 0, 64, 20
1, 202003, Control_c, 0, 64, 20
1, 202133, Note_on_c, 0, 63, 43
1, 202137, Note_on_c, 0, 55, 30
1, 202151, Control_c, 0, 64, 20
1, 202165, Note_off_c, 0, 63, 57
1, 202171, Note_off_c, 0, 55, 55
1, 202247, Note_off_c, 0, 72, 51
1, 202273, Note_on_c, 0, 71, 54
1, 202299, Control_c, 0, 64, 20
1, 202329, Control_c, 0, 64, 20
1, 202335, Note_off_c, 0, 71, 55
1, 202343, Control_c, 0, 64, 19
1, 202352, Note_on_c, 0, 77, 54
1, 202358, Note_on_c, 0, 62, 46
1, 202358, Control_c, 0, 64, 19
1, 202372, Note_on_c, 0, 55, 32
1, 202373, Control_c, 0, 64, 18
1, 202387, Control_c, 0, 64, 17
1, 202402, Note_off_c, 0, 77, 52
1, 202402, Control_c, 0, 64, 16
1, 202405, Note_off_c, 0, 55, 55
1, 202407, Note_off_c, 0, 62, 59
1, 202411, Note_on_c, 0, 74, 58
1, 202509, Note_on_c, 0, 71, 46
1, 202509, Note_off_c, 0, 74, 33
1, 202563, Note_off_c, 0, 71, 55
1, 202569, Note_on_c, 0, 72, 57
1, 202616, Note_on_c, 0, 60, 36
1, 202620, Note_on_c, 0, 48, 35
1, 202625, Control_c, 0, 64, 17
1, 202640, Control_c, 0, 64, 17
1, 202651, Note_off_c, 0, 60, 55
1, 202655, Control_c, 0, 64, 19
1, 202656, Note_off_c, 0, 48, 50
1, 202670, Control_c, 0, 64, 20
1, 202685, Control_c, 0, 64, 23
1, 202700, Control_c, 0, 64, 25
1, 202722, Control_c, 0, 64, 27
1, 202737, Control_c, 0, 64, 28
1, 202752, Control_c, 0, 64, 29
1, 202767, Control_c, 0, 64, 33
1, 202781, Control_c, 0, 64, 38
1, 202796, Control_c, 0, 64, 43
1, 202811, Control_c, 0, 64, 46
1, 202815, Note_off_c, 0, 72, 62
1, 202825, Control_c, 0, 64, 47
1, 202832, Note_on_c, 0, 60, 49
1, 202834, Note_on_c, 0, 48, 48
1, 202855, Control_c, 0, 64, 48
1, 202870, Note_off_c, 0, 60, 61
1, 202880, Note_off_c, 0, 48, 60
1, 202900, Control_c, 0, 64, 47
1, 202915, Control_c, 0, 64, 47
1, 202929, Control_c, 0, 64, 46
1, 202944, Control_c, 0, 64, 44
1, 202959, Control_c, 0, 64, 42
1, 202974, Control_c, 0, 64, 39
1, 202989, Control_c, 0, 64, 36
1, 203004, Control_c, 0, 64, 34
1, 203018, Control_c, 0, 64, 31
1, 203033, Control_c, 0, 64, 27
1, 203048, Control_c, 0, 64, 23
1, 203063, Control_c, 0, 64, 20
1, 203078, Control_c, 0, 64, 20
1, 203084, Note_on_c, 0, 79, 70
1, 203092, Control_c, 0, 64, 23
1, 203107, Control_c, 0, 64, 27
1, 203112, Note_on_c, 0, 75, 43
1, 203122, Control_c, 0, 64, 31
1, 203137, Control_c, 0, 64, 37
1, 203138, Note_on_c, 0, 60, 24
1, 203142, Note_on_c, 0, 48, 20
1, 203151, Control_c, 0, 64, 43
1, 203166, Control_c, 0, 64, 48
1, 203181, Control_c, 0, 64, 53
1, 203196, Control_c, 0, 64, 56
1, 203198, Note_off_c, 0, 60, 53
1, 203201, Note_off_c, 0, 48, 50
1, 203210, Control_c, 0, 64, 58
1, 203225, Control_c, 0, 64, 60
1, 203240, Control_c, 0, 64, 61
1, 203255, Control_c, 0, 64, 62
1, 203270, Control_c, 0, 64, 63
1, 203285, Control_c, 0, 64, 63
1, 203299, Control_c, 0, 64, 64
1, 203350, Note_on_c, 0, 48, 49
1, 203351, Note_on_c, 0, 60, 46
1, 203359, Control_c, 0, 64, 64
1, 203372, Note_off_c, 0, 75, 35
1, 203385, Note_off_c, 0, 60, 55
1, 203389, Control_c, 0, 64, 65
1, 203396, Note_off_c, 0, 48, 45
1, 203423, Note_on_c, 0, 80, 62
1, 203434, Control_c, 0, 64, 65
1, 203438, Note_on_c, 0, 77, 46
1, 203472, Note_off_c, 0, 79, 46
1, 203496, Note_off_c, 0, 77, 55
1, 203516, Control_c, 0, 64, 65
1, 203530, Control_c, 0, 64, 64
1, 203545, Control_c, 0, 64, 61
1, 203560, Control_c, 0, 64, 56
1, 203570, Note_on_c, 0, 79, 58
1, 203573, Note_on_c, 0, 75, 47
1, 203575, Control_c, 0, 64, 51
1, 203589, Note_on_c, 0, 48, 44
1, 203590, Control_c, 0, 64, 45
1, 203596, Note_on_c, 0, 60, 37
1, 203604, Control_c, 0, 64, 39
1, 203619, Control_c, 0, 64, 33
1, 203621, Note_off_c, 0, 80, 44
1, 203626, Note_off_c, 0, 75, 61
1, 203634, Control_c, 0, 64, 26
1, 203635, Note_off_c, 0, 79, 61
1, 203636, Note_off_c, 0, 60, 47
1, 203648, Control_c, 0, 64, 21
1, 203649, Note_off_c, 0, 48, 53
1, 203663, Control_c, 0, 64, 20
1, 203693, Control_c, 0, 64, 19
1, 203708, Control_c, 0, 64, 19
1, 203722, Control_c, 0, 64, 18
1, 203833, Note_on_c, 0, 48, 40
1, 203836, Note_on_c, 0, 60, 44
1, 203871, Note_off_c, 0, 60, 49
1, 203886, Note_off_c, 0, 48, 51
1, 203930, Control_c, 0, 64, 18
1, 203960, Control_c, 0, 64, 19
1, 204065, Note_on_c, 0, 75, 57
1, 204078, Note_on_c, 0, 67, 49
1, 204080, Note_on_c, 0, 60, 41
1, 204086, Note_on_c, 0, 48, 37
1, 204116, Note_off_c, 0, 67, 58
1, 204127, Note_off_c, 0, 60, 47
1, 204139, Note_off_c, 0, 48, 42
1, 204165, Note_off_c, 0, 75, 35
1, 204309, Note_on_c, 0, 71, 54
1, 204328, Note_on_c, 0, 60, 42
1, 204329, Note_on_c, 0, 48, 39
1, 204335, Note_on_c, 0, 65, 45
1, 204357, Note_off_c, 0, 60, 58
1, 204366, Note_off_c, 0, 65, 64
1, 204368, Note_off_c, 0, 48, 53
1, 204408, Note_off_c, 0, 71, 45
1, 204471, Control_c, 0, 64, 20
1, 204486, Control_c, 0, 64, 23
1, 204501, Control_c, 0, 64, 29
1, 204516, Control_c, 0, 64, 35
1, 204531, Control_c, 0, 64, 42
1, 204545, Control_c, 0, 64, 48
1, 204560, Control_c, 0, 64, 53
1, 204575, Control_c, 0, 64, 56
1, 204578, Note_on_c, 0, 72, 48
1, 204589, Note_on_c, 0, 48, 40
1, 204590, Control_c, 0, 64, 59
1, 204595, Note_on_c, 0, 63, 43
1, 204596, Note_on_c, 0, 36, 35
1, 204605, Control_c, 0, 64, 61
1, 204620, Control_c, 0, 64, 63
1, 204634, Control_c, 0, 64, 65
1, 204638, Note_off_c, 0, 48, 41
1, 204639, Note_off_c, 0, 63, 61
1, 204647, Note_off_c, 0, 36, 57
1, 204649, Control_c, 0, 64, 67
1, 204659, Note_off_c, 0, 72, 59
1, 204664, Control_c, 0, 64, 68
1, 204679, Control_c, 0, 64, 69
1, 204694, Control_c, 0, 64, 70
1, 204797, Control_c, 0, 64, 69
1, 204812, Control_c, 0, 64, 66
1, 204819, Note_on_c, 0, 48, 58
1, 204827, Note_on_c, 0, 36, 47
1, 204827, Control_c, 0, 64, 63
1, 204842, Control_c, 0, 64, 57
1, 204853, Note_off_c, 0, 48, 55
1, 204857, Control_c, 0, 64, 51
1, 204871, Control_c, 0, 64, 47
1, 204874, Note_off_c, 0, 36, 59
1, 204886, Control_c, 0, 64, 42
1, 204901, Control_c, 0, 64, 37
1, 204915, Control_c, 0, 64, 31
1, 204930, Control_c, 0, 64, 25
1, 204945, Control_c, 0, 64, 21
1, 204968, Control_c, 0, 64, 20
1, 204983, Control_c, 0, 64, 19
1, 204998, Control_c, 0, 64, 19
1, 205028, Control_c, 0, 64, 18
1, 205095, Note_on_c, 0, 67, 65
1, 205108, Note_on_c, 0, 63, 51
1, 205115, Note_on_c, 0, 36, 38
1, 205122, Note_on_c, 0, 48, 32
1, 205176, Control_c, 0, 64, 18
1, 205180, Note_off_c, 0, 48, 59
1, 205181, Note_off_c, 0, 36, 57
1, 205343, Note_on_c, 0, 48, 42
1, 205346, Note_on_c, 0, 36, 38
1, 205390, Note_off_c, 0, 63, 35
1, 205397, Note_off_c, 0, 48, 49
1, 205404, Note_off_c, 0, 36, 50
1, 205435, Note_on_c, 0, 68, 51
1, 205457, Note_on_c, 0, 65, 41
1, 205496, Note_off_c, 0, 65, 59
1, 205533, Note_off_c, 0, 68, 35
1, 205546, Control_c, 0, 64, 17
1, 205549, Note_off_c, 0, 67, 0
1, 205565, Note_on_c, 0, 67, 33
1, 205574, Note_on_c, 0, 63, 48
1, 205576, Control_c, 0, 64, 17
1, 205591, Control_c, 0, 64, 16
1, 205606, Note_on_c, 0, 48, 35
1, 205606, Control_c, 0, 64, 15
1, 205614, Note_on_c, 0, 36, 24
1, 205635, Control_c, 0, 64, 14
1, 205644, Note_off_c, 0, 63, 53
1, 205648, Note_off_c, 0, 67, 60
1, 205650, Control_c, 0, 64, 12
1, 205662, Note_off_c, 0, 36, 49
1, 205665, Control_c, 0, 64, 11
1, 205666, Note_off_c, 0, 48, 37
1, 205680, Control_c, 0, 64, 0
1, 205858, Note_on_c, 0, 48, 42
1, 205874, Note_on_c, 0, 36, 28
1, 205899, Note_off_c, 0, 48, 46
1, 205913, Note_off_c, 0, 36, 50
1, 206125, Note_on_c, 0, 63, 37
1, 206139, Note_on_c, 0, 48, 30
1, 206141, Note_on_c, 0, 36, 30
1, 206146, Note_on_c, 0, 55, 27
1, 206168, Note_off_c, 0, 63, 53
1, 206176, Note_off_c, 0, 55, 54
1, 206196, Note_off_c, 0, 48, 54
1, 206200, Note_off_c, 0, 36, 53
1, 206409, Note_on_c, 0, 59, 44
1, 206432, Note_on_c, 0, 53, 35
1, 206433, Note_on_c, 0, 36, 27
1, 206438, Note_on_c, 0, 48, 24
1, 206489, Note_off_c, 0, 53, 60
1, 206501, Note_off_c, 0, 36, 55
1, 206508, Note_off_c, 0, 48, 55
1, 206537, Note_off_c, 0, 59, 33
1, 206835, Note_on_c, 0, 51, 37
1, 206835, Note_on_c, 0, 60, 33
1, 206856, Note_on_c, 0, 48, 22
1, 206858, Note_on_c, 0, 36, 23
1, 207568, Note_off_c, 0, 60, 48
1, 207584, Note_off_c, 0, 51, 35
1, 207587, Note_off_c, 0, 36, 47
1, 207596, Note_off_c, 0, 48, 42
1, 208742, Control_c, 0, 67, 126
1, 208757, Control_c, 0, 67, 125
1, 208771, Control_c, 0, 67, 123
1, 208786, Control_c, 0, 67, 122
1, 208801, Control_c, 0, 67, 121
1, 208816, Control_c, 0, 67, 119
1, 208831, Control_c, 0, 67, 118
1, 208845, Control_c, 0, 67, 116
1, 208860, Control_c, 0, 67, 114
1, 208875, Control_c, 0, 67, 112
1, 208889, Control_c, 0, 67, 110
1, 208904, Control_c, 0, 67, 109
1, 208919, Control_c, 0, 67, 108
1, 208934, Control_c, 0, 67, 106
1, 208949, Control_c, 0, 67, 105
1, 208963, Control_c, 0, 67, 103
1, 208979, Control_c, 0, 67, 101
1, 208994, Control_c, 0, 67, 99
1, 209009, Control_c, 0, 67, 97
1, 209024, Control_c, 0, 67, 95
1, 209039, Control_c, 0, 67, 93
1, 209054, Control_c, 0, 67, 91
1, 209068, Control_c, 0, 67, 90
1, 209083, Control_c, 0, 67, 88
1, 209098, Control_c, 0, 67, 87
1, 209112, Control_c, 0, 67, 85
1, 209127, Control_c, 0, 67, 84
1, 209142, Control_c, 0, 67, 83
1, 209157, Control_c, 0, 67, 81
1, 209172, Control_c, 0, 67, 80
1, 209186, Control_c, 0, 67, 79
1, 209201, Control_c, 0, 67, 78
1, 209216, Control_c, 0, 67, 77
1, 209231, Control_c, 0, 67, 76
1, 209246, Control_c, 0, 67, 75
1, 209261, Control_c, 0, 67, 74
1, 209276, Control_c, 0, 67, 74
1, 209291, Control_c, 0, 67, 73
1, 209305, Control_c, 0, 67, 73
1, 209320, Control_c, 0, 67, 72
1, 209335, Control_c, 0, 67, 72
1, 209365, Control_c, 0, 67, 71
1, 209394, Control_c, 0, 67, 70
1, 209409, Control_c, 0, 67, 70
1, 209424, Control_c, 0, 67, 69
1, 209439, Control_c, 0, 67, 69
1, 209461, Control_c, 0, 67, 68
1, 209475, Control_c, 0, 67, 67
1, 209490, Control_c, 0, 67, 66
1, 209505, Control_c, 0, 67, 65
1, 209520, Control_c, 0, 67, 65
1, 209535, Control_c, 0, 67, 64
1, 209550, Control_c, 0, 67, 63
1, 209565, Control_c, 0, 67, 62
1, 209580, Control_c, 0, 67, 61
1, 209594, Control_c, 0, 67, 60
1, 209609, Control_c, 0, 67, 59
1, 209624, Control_c, 0, 67, 58
1, 209638, Control_c, 0, 67, 57
1, 209653, Control_c, 0, 67, 55
1, 209668, Control_c, 0, 67, 53
1, 209683, Control_c, 0, 67, 51
1, 209698, Control_c, 0, 67, 49
1, 209712, Control_c, 0, 67, 47
1, 209727, Control_c, 0, 67, 45
1, 209742, Control_c, 0, 67, 42
1, 209757, Control_c, 0, 67, 40
1, 209772, Control_c, 0, 67, 37
1, 209788, Control_c, 0, 67, 34
1, 209802, Control_c, 0, 67, 31
1, 209817, Control_c, 0, 67, 28
1, 209832, Control_c, 0, 67, 25
1, 209847, Control_c, 0, 67, 22
1, 209862, Control_c, 0, 67, 19
1, 209876, Control_c, 0, 67, 16
1, 209891, Control_c, 0, 67, 15
1, 209906, Control_c, 0, 67, 14
1, 209921, Control_c, 0, 67, 14
1, 209935, Control_c, 0, 67, 13
1, 209965, Control_c, 0, 67, 13
1, 209980, Control_c, 0, 67, 12
1, 209995, Control_c, 0, 67, 12
1, 210009, Control_c, 0, 67, 11
1, 210024, Control_c, 0, 67, 10
1, 210039, Control_c, 0, 67, 8
1, 210054, Control_c, 0, 67, 0
1, 210129, End_track
0, 0, End_of_file
