0, 0, Header, 0, 1, 384
1, 0, Start_track
1, 0, Title_t, "Sonata HobXVI:50--Maria Verbaite   "
1, 0, Text_t, "2008 e-Piano Junior Competition virtual audition round"
1, 0, Text_t, "recorded January and February 2008"
1, 0, Text_t, "http://www.piano-e-competition.com/"
1, 0, Text_t, "File processed for distribution by software from Zenph Studios, Inc., http://www.zenph.com"
1, 0, Instrument_name_t, "Yamaha Disklavier Pro Mark IV concert grand piano, model DCFIIISM4PRO"
1, 0, Sequencer_specific, 39, 67, 113, 0, 1, 0, 1, 0, 83, 111, 110, 97, 116, 97, 32, 72, 111, 98, 88, 86, 73, 58, 53, 48, 77, 97, 114, 105, 97, 32, 86, 101, 114, 98, 97, 105, 116, 101, 32, 32
1, 0, Sequencer_specific, 6, 67, 113, 0, 0, 0, 69
1, 0, System_exclusive, 21, 67, 113, 126, 21, 0, 2, 2, 1, 7, 11, 14, 4, 7, 9, 11, 2, 5, 14, 13, 3, 247
1, 0, Sequencer_specific, 5, 67, 123, 12, 2, 1
1, 0, Tempo, 512820
1, 0, Time_signature, 4, 2, 24, 8
1, 0, System_exclusive, 5, 126, 127, 9, 1, 247
1, 1, System_exclusive, 8, 67, 16, 76, 0, 0, 126, 0, 247
1, 2, System_exclusive, 8, 67, 16, 76, 8, 9, 7, 1, 247
1, 3, Control_c, 0, 0, 0
1, 3, Control_c, 1, 0, 0
1, 3, Control_c, 2, 0, 0
1, 3, Control_c, 3, 0, 0
1, 3, Control_c, 4, 0, 0
1, 3, Control_c, 5, 0, 0
1, 3, Control_c, 6, 0, 0
1, 3, Control_c, 7, 0, 0
1, 3, Control_c, 8, 0, 0
1, 3, Control_c, 9, 0, 127
1, 3, Control_c, 10, 0, 0
1, 3, Control_c, 11, 0, 0
1, 3, Control_c, 12, 0, 0
1, 3, Control_c, 13, 0, 0
1, 3, Control_c, 14, 0, 0
1, 3, Control_c, 15, 0, 0
1, 4, Control_c, 0, 32, 0
1, 4, Control_c, 1, 32, 0
1, 4, Control_c, 2, 32, 0
1, 4, Control_c, 3, 32, 0
1, 4, Control_c, 4, 32, 0
1, 4, Control_c, 5, 32, 0
1, 4, Control_c, 6, 32, 0
1, 4, Control_c, 7, 32, 0
1, 4, Control_c, 8, 32, 0
1, 4, Control_c, 9, 32, 0
1, 4, Control_c, 10, 32, 0
1, 4, Control_c, 11, 32, 0
1, 4, Control_c, 12, 32, 0
1, 4, Control_c, 13, 32, 0
1, 4, Control_c, 14, 32, 0
1, 4, Control_c, 15, 32, 0
1, 5, Program_c, 0, 0
1, 5, Program_c, 1, 0
1, 5, Program_c, 2, 0
1, 5, Program_c, 3, 0
1, 5, Program_c, 4, 0
1, 5, Program_c, 5, 0
1, 5, Program_c, 6, 0
1, 5, Program_c, 7, 0
1, 5, Program_c, 8, 0
1, 5, Program_c, 9, 0
1, 5, Program_c, 10, 0
1, 5, Program_c, 11, 0
1, 5, Program_c, 12, 0
1, 5, Program_c, 13, 0
1, 5, Program_c, 14, 0
1, 5, Program_c, 15, 0
1, 6, Control_c, 0, 7, 100
1, 6, Control_c, 1, 7, 100
1, 6, Control_c, 2, 7, 100
1, 6, Control_c, 3, 7, 100
1, 6, Control_c, 4, 7, 100
1, 6, Control_c, 5, 7, 100
1, 6, Control_c, 6, 7, 100
1, 6, Control_c, 7, 7, 100
1, 6, Control_c, 8, 7, 100
1, 6, Control_c, 9, 7, 100
1, 6, Control_c, 10, 7, 100
1, 6, Control_c, 11, 7, 100
1, 6, Control_c, 12, 7, 100
1, 6, Control_c, 13, 7, 100
1, 6, Control_c, 14, 7, 100
1, 6, Control_c, 15, 7, 100
1, 1130, Note_on_c, 0, 72, 57
1, 1149, Note_off_c, 0, 72, 62
1, 1530, Note_on_c, 0, 67, 62
1, 1559, Note_off_c, 0, 67, 66
1, 1920, Note_on_c, 0, 64, 62
1, 1946, Note_off_c, 0, 64, 67
1, 2079, Note_on_c, 0, 48, 61
1, 2110, Note_off_c, 0, 48, 64
1, 2261, Note_on_c, 0, 36, 57
1, 2286, Note_off_c, 0, 36, 54
1, 2422, Note_on_c, 0, 69, 71
1, 2446, Note_off_c, 0, 69, 66
1, 2616, Note_on_c, 0, 62, 66
1, 2645, Note_off_c, 0, 62, 65
1, 2788, Note_on_c, 0, 48, 51
1, 2813, Note_off_c, 0, 48, 57
1, 2944, Note_on_c, 0, 36, 57
1, 2970, Note_off_c, 0, 36, 51
1, 3115, Note_on_c, 0, 67, 62
1, 3135, Note_off_c, 0, 67, 65
1, 3310, Note_on_c, 0, 60, 67
1, 3331, Note_off_c, 0, 60, 64
1, 3462, Note_on_c, 0, 48, 49
1, 3488, Note_off_c, 0, 48, 57
1, 3633, Note_on_c, 0, 36, 54
1, 3661, Note_off_c, 0, 36, 48
1, 3799, Note_on_c, 0, 76, 68
1, 3989, Note_off_c, 0, 76, 60
1, 3991, Note_on_c, 0, 65, 70
1, 4016, Note_off_c, 0, 65, 66
1, 4163, Note_on_c, 0, 48, 57
1, 4328, Note_on_c, 0, 36, 64
1, 4329, Note_off_c, 0, 48, 62
1, 4359, Note_off_c, 0, 36, 62
1, 4492, Note_on_c, 0, 74, 66
1, 4673, Note_on_c, 0, 64, 69
1, 4682, Note_off_c, 0, 74, 61
1, 4698, Note_off_c, 0, 64, 67
1, 4846, Note_on_c, 0, 48, 64
1, 5008, Note_off_c, 0, 48, 62
1, 5011, Note_on_c, 0, 36, 70
1, 5040, Note_off_c, 0, 36, 64
1, 5159, Note_on_c, 0, 72, 72
1, 5186, Note_off_c, 0, 72, 65
1, 5339, Note_on_c, 0, 62, 64
1, 5510, Note_on_c, 0, 69, 66
1, 5516, Note_on_c, 0, 48, 54
1, 5516, Note_off_c, 0, 62, 63
1, 5528, Note_off_c, 0, 69, 66
1, 5676, Note_on_c, 0, 36, 65
1, 5676, Note_on_c, 0, 57, 69
1, 5686, Note_off_c, 0, 48, 62
1, 5709, Note_off_c, 0, 36, 63
1, 5816, Note_off_c, 0, 57, 56
1, 5841, Note_on_c, 0, 59, 71
1, 5867, Note_off_c, 0, 59, 64
1, 6008, Note_on_c, 0, 62, 72
1, 6163, Note_on_c, 0, 60, 76
1, 6172, Note_off_c, 0, 62, 63
1, 6181, Note_on_c, 0, 48, 55
1, 6187, Note_off_c, 0, 60, 64
1, 6337, Note_on_c, 0, 36, 74
1, 6346, Note_off_c, 0, 48, 63
1, 6361, Note_off_c, 0, 36, 66
1, 6500, Note_on_c, 0, 62, 77
1, 6508, Note_on_c, 0, 59, 70
1, 6523, Note_off_c, 0, 62, 67
1, 6533, Note_off_c, 0, 59, 63
1, 6676, Note_on_c, 0, 62, 64
1, 6676, Note_on_c, 0, 65, 74
1, 6806, Note_off_c, 0, 65, 53
1, 6823, Note_off_c, 0, 62, 63
1, 6835, Note_on_c, 0, 60, 68
1, 6837, Note_on_c, 0, 64, 67
1, 6841, Note_on_c, 0, 48, 69
1, 6853, Note_off_c, 0, 60, 63
1, 6864, Note_off_c, 0, 64, 66
1, 7010, Note_on_c, 0, 36, 80
1, 7020, Note_off_c, 0, 48, 63
1, 7036, Note_off_c, 0, 36, 64
1, 7167, Note_on_c, 0, 65, 84
1, 7176, Note_on_c, 0, 62, 71
1, 7189, Note_off_c, 0, 65, 69
1, 7203, Note_off_c, 0, 62, 69
1, 7341, Note_on_c, 0, 65, 71
1, 7345, Note_on_c, 0, 69, 79
1, 7498, Note_on_c, 0, 48, 80
1, 7500, Note_off_c, 0, 65, 64
1, 7501, Note_off_c, 0, 69, 58
1, 7503, Note_on_c, 0, 64, 77
1, 7506, Note_on_c, 0, 67, 74
1, 7525, Note_off_c, 0, 64, 68
1, 7530, Note_off_c, 0, 67, 67
1, 7662, Note_on_c, 0, 36, 85
1, 7676, Note_off_c, 0, 48, 63
1, 7692, Note_off_c, 0, 36, 67
1, 7831, Note_on_c, 0, 71, 83
1, 7835, Note_on_c, 0, 62, 83
1, 7859, Note_off_c, 0, 62, 71
1, 7862, Note_off_c, 0, 71, 66
1, 8002, Note_on_c, 0, 74, 84
1, 8008, Note_on_c, 0, 65, 84
1, 8023, Note_on_c, 0, 72, 62
1, 8045, Note_off_c, 0, 72, 43
1, 8107, Note_off_c, 0, 65, 63
1, 8137, Note_off_c, 0, 74, 56
1, 8166, Note_on_c, 0, 48, 84
1, 8172, Note_on_c, 0, 64, 86
1, 8176, Note_on_c, 0, 72, 79
1, 8192, Note_off_c, 0, 64, 70
1, 8197, Note_off_c, 0, 72, 67
1, 8339, Note_off_c, 0, 48, 61
1, 8347, Note_on_c, 0, 36, 92
1, 8401, Note_off_c, 0, 36, 64
1, 8517, Note_on_c, 0, 71, 90
1, 8518, Note_on_c, 0, 74, 93
1, 8549, Note_off_c, 0, 74, 63
1, 8810, Note_on_c, 0, 74, 92
1, 8813, Note_on_c, 0, 77, 92
1, 8825, Note_off_c, 0, 71, 64
1, 9691, Note_off_c, 0, 77, 43
1, 9746, Note_on_c, 0, 76, 49
1, 9751, Note_off_c, 0, 74, 56
1, 9752, Note_on_c, 0, 72, 40
1, 10074, Note_off_c, 0, 76, 0
1, 10112, Poly_aftertouch_c, 0, 76, 127
1, 10115, Note_off_c, 0, 72, 54
1, 10146, Poly_aftertouch_c, 0, 76, 0
1, 10416, Note_on_c, 0, 36, 52
1, 10428, Note_on_c, 0, 72, 67
1, 10443, Note_on_c, 0, 40, 71
1, 10449, Note_on_c, 0, 76, 66
1, 10456, Control_c, 0, 64, 65
1, 10457, Note_on_c, 0, 48, 86
1, 10457, Note_off_c, 0, 72, 60
1, 10460, Note_on_c, 0, 79, 79
1, 10461, Note_off_c, 0, 36, 61
1, 10464, Note_on_c, 0, 43, 63
1, 10468, Note_on_c, 0, 84, 92
1, 10471, Control_c, 0, 64, 78
1, 10476, Note_off_c, 0, 40, 67
1, 10483, Note_off_c, 0, 76, 64
1, 10483, Note_off_c, 0, 79, 66
1, 10486, Control_c, 0, 64, 89
1, 10492, Note_off_c, 0, 43, 61
1, 10495, Note_off_c, 0, 84, 66
1, 10500, Control_c, 0, 64, 94
1, 10502, Note_off_c, 0, 48, 64
1, 10515, Control_c, 0, 64, 93
1, 10530, Control_c, 0, 64, 89
1, 10545, Control_c, 0, 64, 85
1, 10560, Control_c, 0, 64, 77
1, 10575, Control_c, 0, 64, 67
1, 10590, Control_c, 0, 64, 0
1, 10782, Note_on_c, 0, 43, 56
1, 10795, Poly_aftertouch_c, 0, 49, 0
1, 10811, Note_on_c, 0, 71, 61
1, 10819, Control_c, 0, 64, 63
1, 10822, Note_on_c, 0, 47, 67
1, 10825, Note_on_c, 0, 55, 88
1, 10829, Note_on_c, 0, 74, 81
1, 10831, Note_on_c, 0, 50, 74
1, 10835, Control_c, 0, 64, 76
1, 10843, Note_on_c, 0, 79, 87
1, 10845, Note_off_c, 0, 43, 61
1, 10850, Control_c, 0, 64, 85
1, 10854, Note_off_c, 0, 50, 66
1, 10857, Note_off_c, 0, 71, 65
1, 10859, Note_off_c, 0, 47, 63
1, 10863, Note_off_c, 0, 74, 65
1, 10865, Control_c, 0, 64, 91
1, 10867, Note_off_c, 0, 55, 62
1, 10867, Note_off_c, 0, 79, 67
1, 10879, Control_c, 0, 64, 92
1, 10909, Control_c, 0, 64, 91
1, 10924, Control_c, 0, 64, 87
1, 10938, Control_c, 0, 64, 80
1, 10953, Control_c, 0, 64, 72
1, 10968, Control_c, 0, 64, 65
1, 10983, Control_c, 0, 64, 0
1, 11166, Note_on_c, 0, 48, 49
1, 11188, Note_on_c, 0, 67, 53
1, 11201, Note_on_c, 0, 52, 53
1, 11205, Control_c, 0, 64, 64
1, 11213, Note_on_c, 0, 72, 78
1, 11213, Note_on_c, 0, 60, 81
1, 11218, Note_on_c, 0, 76, 78
1, 11219, Note_off_c, 0, 48, 63
1, 11220, Control_c, 0, 64, 72
1, 11223, Note_on_c, 0, 55, 59
1, 11231, Note_off_c, 0, 67, 63
1, 11232, Note_off_c, 0, 52, 62
1, 11235, Control_c, 0, 64, 78
1, 11237, Note_off_c, 0, 72, 66
1, 11240, Note_off_c, 0, 76, 66
1, 11241, Note_off_c, 0, 60, 65
1, 11246, Note_off_c, 0, 55, 60
1, 11250, Control_c, 0, 64, 82
1, 11264, Control_c, 0, 64, 83
1, 11324, Control_c, 0, 64, 82
1, 11338, Control_c, 0, 64, 82
1, 11353, Control_c, 0, 64, 81
1, 11398, Control_c, 0, 64, 81
1, 11412, Control_c, 0, 64, 80
1, 11427, Control_c, 0, 64, 78
1, 11442, Control_c, 0, 64, 76
1, 11464, Control_c, 0, 64, 73
1, 11479, Control_c, 0, 64, 68
1, 11494, Control_c, 0, 64, 63
1, 11509, Control_c, 0, 64, 0
1, 11696, Note_on_c, 0, 83, 64
1, 11760, Note_on_c, 0, 81, 57
1, 11760, Note_off_c, 0, 83, 61
1, 11779, Note_off_c, 0, 81, 64
1, 11808, Note_on_c, 0, 80, 48
1, 11831, Note_off_c, 0, 80, 59
1, 11845, Note_on_c, 0, 81, 68
1, 11863, Note_off_c, 0, 81, 63
1, 11888, Note_on_c, 0, 74, 64
1, 11907, Note_off_c, 0, 74, 67
1, 12048, Note_on_c, 0, 71, 65
1, 12059, Note_on_c, 0, 65, 48
1, 12072, Note_off_c, 0, 71, 64
1, 12082, Note_off_c, 0, 65, 53
1, 12203, Poly_aftertouch_c, 0, 65, 0
1, 12232, Note_on_c, 0, 71, 62
1, 12240, Poly_aftertouch_c, 0, 65, 127
1, 12252, Poly_aftertouch_c, 0, 65, 0
1, 12261, Note_off_c, 0, 71, 66
1, 12403, Note_on_c, 0, 81, 64
1, 12462, Note_off_c, 0, 81, 61
1, 12465, Note_on_c, 0, 79, 63
1, 12489, Note_off_c, 0, 79, 65
1, 12514, Note_on_c, 0, 78, 45
1, 12538, Note_off_c, 0, 78, 55
1, 12550, Note_on_c, 0, 79, 68
1, 12571, Note_off_c, 0, 79, 64
1, 12596, Note_on_c, 0, 72, 71
1, 12619, Note_off_c, 0, 72, 63
1, 12778, Note_on_c, 0, 64, 54
1, 12778, Note_on_c, 0, 67, 65
1, 12807, Note_off_c, 0, 64, 65
1, 12807, Note_off_c, 0, 67, 65
1, 12968, Note_on_c, 0, 67, 58
1, 12970, Note_on_c, 0, 64, 54
1, 12992, Note_off_c, 0, 64, 64
1, 12995, Note_off_c, 0, 67, 65
1, 13153, Note_on_c, 0, 88, 74
1, 13339, Note_on_c, 0, 77, 65
1, 13369, Note_off_c, 0, 88, 59
1, 13395, Note_off_c, 0, 77, 59
1, 13427, Note_on_c, 0, 62, 54
1, 13502, Note_off_c, 0, 62, 63
1, 13517, Note_on_c, 0, 61, 58
1, 13575, Note_off_c, 0, 61, 54
1, 13601, Note_on_c, 0, 62, 69
1, 13662, Note_off_c, 0, 62, 54
1, 13690, Note_on_c, 0, 60, 67
1, 13778, Note_off_c, 0, 60, 57
1, 13790, Note_on_c, 0, 59, 59
1, 13839, Note_off_c, 0, 59, 60
1, 13865, Note_on_c, 0, 57, 56
1, 13877, Note_on_c, 0, 86, 72
1, 13955, Note_off_c, 0, 57, 57
1, 13976, Note_on_c, 0, 55, 57
1, 14003, Note_off_c, 0, 55, 61
1, 14071, Note_on_c, 0, 76, 68
1, 14108, Note_off_c, 0, 86, 61
1, 14110, Note_off_c, 0, 76, 61
1, 14175, Note_on_c, 0, 60, 69
1, 14269, Note_on_c, 0, 62, 62
1, 14304, Note_off_c, 0, 60, 59
1, 14339, Note_on_c, 0, 64, 68
1, 14340, Note_off_c, 0, 62, 63
1, 14409, Note_off_c, 0, 64, 64
1, 14417, Note_on_c, 0, 65, 75
1, 14465, Note_off_c, 0, 65, 64
1, 14507, Note_on_c, 0, 67, 77
1, 14584, Note_off_c, 0, 67, 55
1, 14591, Note_on_c, 0, 68, 72
1, 14601, Note_on_c, 0, 84, 80
1, 14657, Note_off_c, 0, 68, 62
1, 14688, Note_on_c, 0, 69, 70
1, 14753, Note_off_c, 0, 69, 56
1, 14763, Note_off_c, 0, 84, 62
1, 14774, Note_on_c, 0, 74, 72
1, 14778, Note_on_c, 0, 65, 66
1, 14799, Note_off_c, 0, 74, 67
1, 14968, Note_on_c, 0, 81, 76
1, 14970, Note_on_c, 0, 77, 74
1, 15037, Note_off_c, 0, 65, 55
1, 15116, Note_off_c, 0, 81, 61
1, 15159, Note_on_c, 0, 76, 80
1, 15161, Note_on_c, 0, 79, 82
1, 15181, Note_off_c, 0, 77, 55
1, 15229, Note_off_c, 0, 76, 0
1, 15267, Poly_aftertouch_c, 0, 76, 127
1, 15316, Poly_aftertouch_c, 0, 76, 0
1, 15326, Note_off_c, 0, 79, 59
1, 15353, Note_on_c, 0, 71, 86
1, 15359, Note_on_c, 0, 67, 74
1, 15509, Note_off_c, 0, 71, 62
1, 15535, Note_off_c, 0, 67, 61
1, 15536, Note_on_c, 0, 72, 92
1, 15538, Note_on_c, 0, 64, 80
1, 15540, Note_on_c, 0, 60, 80
1, 15554, Note_off_c, 0, 72, 70
1, 15565, Note_off_c, 0, 64, 66
1, 15612, Note_off_c, 0, 60, 34
1, 15621, Note_on_c, 0, 67, 77
1, 15713, Note_off_c, 0, 67, 57
1, 15726, Note_on_c, 0, 72, 84
1, 15735, Note_on_c, 0, 64, 62
1, 15740, Note_on_c, 0, 60, 66
1, 15749, Note_off_c, 0, 72, 67
1, 15773, Note_off_c, 0, 64, 64
1, 15773, Note_off_c, 0, 60, 60
1, 15818, Note_on_c, 0, 67, 71
1, 15918, Note_off_c, 0, 67, 60
1, 15927, Note_on_c, 0, 64, 60
1, 15931, Note_on_c, 0, 60, 58
1, 15970, Note_off_c, 0, 64, 63
1, 15979, Note_off_c, 0, 60, 60
1, 16012, Note_on_c, 0, 67, 69
1, 16092, Note_on_c, 0, 60, 61
1, 16100, Note_on_c, 0, 81, 73
1, 16100, Note_off_c, 0, 67, 63
1, 16110, Note_on_c, 0, 64, 45
1, 16151, Note_on_c, 0, 79, 71
1, 16158, Note_off_c, 0, 81, 61
1, 16164, Note_off_c, 0, 64, 62
1, 16176, Note_off_c, 0, 60, 60
1, 16176, Note_off_c, 0, 79, 67
1, 16180, Note_on_c, 0, 67, 67
1, 16201, Note_on_c, 0, 78, 50
1, 16222, Note_off_c, 0, 78, 59
1, 16232, Note_on_c, 0, 79, 80
1, 16276, Note_off_c, 0, 79, 62
1, 16296, Note_on_c, 0, 71, 80
1, 16318, Note_off_c, 0, 71, 69
1, 16347, Note_on_c, 0, 60, 23
1, 16347, Note_off_c, 0, 67, 0
1, 16384, Poly_aftertouch_c, 0, 67, 127
1, 16387, Note_off_c, 0, 60, 31
1, 16395, Poly_aftertouch_c, 0, 67, 0
1, 16466, Note_on_c, 0, 67, 67
1, 16478, Note_on_c, 0, 65, 44
1, 16491, Note_on_c, 0, 71, 76
1, 16495, Note_off_c, 0, 67, 64
1, 16504, Note_off_c, 0, 65, 53
1, 16504, Poly_aftertouch_c, 0, 62, 127
1, 16515, Note_off_c, 0, 71, 69
1, 16540, Poly_aftertouch_c, 0, 62, 0
1, 16576, Note_on_c, 0, 67, 53
1, 16626, Note_off_c, 0, 67, 55
1, 16633, Note_on_c, 0, 62, 62
1, 16649, Note_on_c, 0, 65, 45
1, 16677, Note_off_c, 0, 65, 55
1, 16703, Note_off_c, 0, 62, 62
1, 16725, Note_on_c, 0, 81, 13
1, 16727, Note_on_c, 0, 67, 72
1, 16765, Note_off_c, 0, 81, 31
1, 16776, Note_off_c, 0, 67, 0
1, 16813, Poly_aftertouch_c, 0, 67, 127
1, 16818, Note_on_c, 0, 65, 58
1, 16821, Note_on_c, 0, 62, 67
1, 16821, Poly_aftertouch_c, 0, 67, 0
1, 16847, Note_on_c, 0, 81, 65
1, 16865, Note_off_c, 0, 65, 55
1, 16884, Note_off_c, 0, 62, 63
1, 16893, Note_on_c, 0, 79, 73
1, 16903, Note_off_c, 0, 81, 60
1, 16915, Note_on_c, 0, 67, 75
1, 16953, Note_off_c, 0, 79, 59
1, 16960, Note_on_c, 0, 78, 74
1, 16984, Note_off_c, 0, 78, 67
1, 17010, Note_on_c, 0, 79, 70
1, 17031, Note_off_c, 0, 67, 61
1, 17039, Note_on_c, 0, 64, 65
1, 17043, Note_on_c, 0, 60, 67
1, 17045, Note_off_c, 0, 79, 57
1, 17055, Note_on_c, 0, 84, 91
1, 17103, Note_off_c, 0, 64, 57
1, 17109, Note_off_c, 0, 60, 60
1, 17149, Note_on_c, 0, 67, 67
1, 17243, Note_off_c, 0, 67, 62
1, 17249, Note_on_c, 0, 64, 58
1, 17255, Note_on_c, 0, 88, 82
1, 17258, Note_off_c, 0, 84, 62
1, 17265, Note_on_c, 0, 60, 57
1, 17273, Note_off_c, 0, 88, 72
1, 17305, Note_off_c, 0, 60, 60
1, 17305, Note_off_c, 0, 64, 63
1, 17350, Note_on_c, 0, 67, 71
1, 17429, Note_off_c, 0, 67, 61
1, 17433, Note_on_c, 0, 64, 66
1, 17451, Note_on_c, 0, 60, 61
1, 17487, Note_off_c, 0, 64, 56
1, 17493, Note_off_c, 0, 60, 55
1, 17531, Note_on_c, 0, 67, 67
1, 17562, Note_on_c, 0, 79, 70
1, 17578, Note_off_c, 0, 79, 69
1, 17593, Note_on_c, 0, 60, 65
1, 17599, Note_on_c, 0, 81, 66
1, 17604, Note_off_c, 0, 67, 59
1, 17634, Note_on_c, 0, 79, 77
1, 17648, Note_off_c, 0, 60, 51
1, 17651, Note_off_c, 0, 81, 55
1, 17666, Note_on_c, 0, 67, 55
1, 17675, Note_off_c, 0, 79, 63
1, 17690, Note_on_c, 0, 78, 60
1, 17724, Note_off_c, 0, 78, 52
1, 17743, Note_on_c, 0, 79, 63
1, 17783, Note_off_c, 0, 79, 55
1, 17796, Note_on_c, 0, 71, 73
1, 17801, Note_off_c, 0, 67, 60
1, 17806, Note_on_c, 0, 65, 61
1, 17812, Note_on_c, 0, 62, 66
1, 17818, Note_off_c, 0, 71, 68
1, 17834, Note_off_c, 0, 65, 67
1, 17845, Note_off_c, 0, 62, 64
1, 17897, Note_on_c, 0, 67, 63
1, 17985, Note_off_c, 0, 67, 62
1, 18003, Note_on_c, 0, 62, 57
1, 18004, Note_on_c, 0, 65, 50
1, 18012, Note_on_c, 0, 71, 76
1, 18034, Note_off_c, 0, 65, 61
1, 18036, Note_off_c, 0, 71, 68
1, 18045, Note_off_c, 0, 62, 65
1, 18100, Note_on_c, 0, 67, 55
1, 18179, Note_off_c, 0, 67, 63
1, 18189, Note_on_c, 0, 65, 42
1, 18200, Note_on_c, 0, 62, 58
1, 18222, Note_off_c, 0, 65, 59
1, 18237, Note_off_c, 0, 62, 63
1, 18283, Note_on_c, 0, 67, 60
1, 18330, Note_off_c, 0, 67, 60
1, 18331, Note_on_c, 0, 65, 42
1, 18332, Note_on_c, 0, 62, 55
1, 18346, Note_on_c, 0, 81, 66
1, 18384, Note_off_c, 0, 65, 55
1, 18388, Note_on_c, 0, 79, 52
1, 18400, Note_off_c, 0, 62, 62
1, 18412, Note_off_c, 0, 81, 60
1, 18430, Note_on_c, 0, 67, 64
1, 18441, Note_off_c, 0, 79, 63
1, 18456, Note_on_c, 0, 78, 68
1, 18486, Note_off_c, 0, 78, 64
1, 18506, Note_on_c, 0, 79, 67
1, 18544, Note_off_c, 0, 79, 61
1, 18550, Note_off_c, 0, 67, 59
1, 18569, Note_on_c, 0, 64, 59
1, 18574, Note_on_c, 0, 84, 80
1, 18578, Note_on_c, 0, 60, 51
1, 18611, Note_off_c, 0, 64, 62
1, 18617, Note_off_c, 0, 60, 60
1, 18671, Note_on_c, 0, 67, 60
1, 18754, Note_off_c, 0, 67, 59
1, 18765, Note_off_c, 0, 84, 54
1, 18771, Note_on_c, 0, 64, 45
1, 18773, Note_on_c, 0, 88, 70
1, 18782, Note_on_c, 0, 60, 50
1, 18788, Note_off_c, 0, 88, 68
1, 18817, Note_off_c, 0, 64, 62
1, 18823, Note_off_c, 0, 60, 60
1, 18868, Note_on_c, 0, 67, 55
1, 18958, Note_off_c, 0, 67, 62
1, 18963, Note_on_c, 0, 64, 57
1, 18964, Note_on_c, 0, 60, 53
1, 19005, Note_off_c, 0, 64, 60
1, 19008, Note_off_c, 0, 60, 62
1, 19046, Note_on_c, 0, 67, 63
1, 19046, Note_on_c, 0, 79, 78
1, 19070, Note_off_c, 0, 79, 66
1, 19094, Note_on_c, 0, 81, 65
1, 19111, Note_on_c, 0, 60, 70
1, 19115, Note_off_c, 0, 67, 60
1, 19116, Note_on_c, 0, 64, 61
1, 19131, Note_on_c, 0, 79, 76
1, 19148, Note_off_c, 0, 81, 60
1, 19158, Note_off_c, 0, 64, 58
1, 19165, Note_off_c, 0, 60, 55
1, 19178, Note_off_c, 0, 79, 62
1, 19189, Note_on_c, 0, 67, 53
1, 19194, Note_on_c, 0, 78, 56
1, 19213, Note_off_c, 0, 78, 62
1, 19223, Note_on_c, 0, 79, 68
1, 19272, Note_off_c, 0, 79, 64
1, 19291, Note_on_c, 0, 71, 77
1, 19297, Note_off_c, 0, 67, 63
1, 19306, Note_on_c, 0, 62, 61
1, 19306, Note_on_c, 0, 65, 62
1, 19312, Note_off_c, 0, 71, 68
1, 19341, Note_off_c, 0, 65, 64
1, 19350, Note_off_c, 0, 62, 63
1, 19406, Note_on_c, 0, 67, 58
1, 19486, Note_off_c, 0, 67, 61
1, 19498, Note_on_c, 0, 65, 49
1, 19504, Note_on_c, 0, 71, 65
1, 19509, Note_on_c, 0, 62, 56
1, 19526, Note_off_c, 0, 71, 65
1, 19535, Note_off_c, 0, 65, 61
1, 19545, Note_off_c, 0, 62, 63
1, 19596, Note_on_c, 0, 67, 53
1, 19672, Note_off_c, 0, 67, 59
1, 19678, Note_on_c, 0, 65, 51
1, 19693, Note_on_c, 0, 62, 51
1, 19722, Note_off_c, 0, 65, 63
1, 19732, Note_off_c, 0, 62, 63
1, 19781, Note_on_c, 0, 67, 52
1, 19849, Note_off_c, 0, 67, 62
1, 19852, Note_on_c, 0, 65, 46
1, 19859, Note_on_c, 0, 62, 48
1, 19868, Note_on_c, 0, 81, 62
1, 19899, Note_off_c, 0, 65, 58
1, 19902, Note_off_c, 0, 62, 64
1, 19913, Note_off_c, 0, 81, 61
1, 19925, Note_on_c, 0, 79, 43
1, 19951, Note_off_c, 0, 79, 57
1, 19952, Note_on_c, 0, 67, 53
1, 19958, Note_on_c, 0, 78, 56
1, 19979, Note_off_c, 0, 78, 60
1, 20004, Note_on_c, 0, 79, 57
1, 20033, Note_off_c, 0, 79, 61
1, 20042, Note_off_c, 0, 67, 61
1, 20053, Note_on_c, 0, 72, 69
1, 20072, Note_on_c, 0, 64, 48
1, 20080, Note_off_c, 0, 72, 65
1, 20082, Note_on_c, 0, 60, 38
1, 20108, Note_off_c, 0, 64, 64
1, 20111, Note_off_c, 0, 60, 55
1, 20157, Note_on_c, 0, 67, 57
1, 20228, Note_on_c, 0, 64, 45
1, 20236, Note_off_c, 0, 67, 60
1, 20238, Note_on_c, 0, 81, 63
1, 20242, Note_on_c, 0, 60, 41
1, 20273, Note_off_c, 0, 64, 66
1, 20282, Note_off_c, 0, 60, 62
1, 20283, Note_off_c, 0, 81, 59
1, 20286, Note_on_c, 0, 79, 58
1, 20307, Note_off_c, 0, 79, 65
1, 20323, Note_on_c, 0, 67, 61
1, 20331, Note_on_c, 0, 78, 54
1, 20352, Note_off_c, 0, 78, 60
1, 20377, Note_on_c, 0, 79, 69
1, 20409, Note_off_c, 0, 79, 64
1, 20409, Note_off_c, 0, 67, 55
1, 20421, Note_on_c, 0, 74, 64
1, 20428, Note_on_c, 0, 59, 53
1, 20445, Note_on_c, 0, 62, 53
1, 20456, Note_off_c, 0, 74, 66
1, 20477, Note_off_c, 0, 59, 62
1, 20483, Note_off_c, 0, 62, 63
1, 20515, Note_on_c, 0, 67, 62
1, 20596, Note_off_c, 0, 67, 59
1, 20603, Note_on_c, 0, 59, 59
1, 20605, Note_on_c, 0, 62, 50
1, 20614, Note_on_c, 0, 81, 71
1, 20649, Note_off_c, 0, 59, 60
1, 20649, Note_off_c, 0, 62, 65
1, 20664, Note_on_c, 0, 79, 62
1, 20669, Note_off_c, 0, 81, 61
1, 20686, Note_on_c, 0, 67, 64
1, 20695, Note_off_c, 0, 79, 66
1, 20716, Note_on_c, 0, 78, 59
1, 20740, Note_off_c, 0, 78, 58
1, 20757, Note_on_c, 0, 79, 76
1, 20781, Note_off_c, 0, 67, 57
1, 20795, Note_off_c, 0, 79, 61
1, 20802, Note_on_c, 0, 64, 49
1, 20807, Note_on_c, 0, 60, 56
1, 20807, Note_on_c, 0, 76, 70
1, 20832, Note_off_c, 0, 76, 65
1, 20840, Note_off_c, 0, 64, 63
1, 20854, Note_off_c, 0, 60, 61
1, 20892, Note_on_c, 0, 67, 63
1, 20979, Note_on_c, 0, 64, 54
1, 20981, Note_off_c, 0, 67, 60
1, 20987, Note_on_c, 0, 60, 57
1, 20987, Note_on_c, 0, 81, 75
1, 21026, Note_off_c, 0, 64, 63
1, 21027, Note_off_c, 0, 60, 60
1, 21044, Note_on_c, 0, 79, 67
1, 21050, Note_off_c, 0, 81, 59
1, 21061, Note_on_c, 0, 67, 63
1, 21071, Note_off_c, 0, 79, 67
1, 21085, Note_on_c, 0, 78, 60
1, 21118, Note_off_c, 0, 78, 63
1, 21124, Note_on_c, 0, 79, 77
1, 21163, Note_off_c, 0, 67, 62
1, 21165, Note_off_c, 0, 79, 62
1, 21170, Note_on_c, 0, 65, 60
1, 21177, Note_on_c, 0, 62, 62
1, 21180, Note_on_c, 0, 71, 77
1, 21212, Note_off_c, 0, 71, 68
1, 21218, Note_off_c, 0, 65, 61
1, 21228, Note_off_c, 0, 62, 64
1, 21274, Note_on_c, 0, 67, 65
1, 21363, Note_off_c, 0, 67, 63
1, 21369, Note_on_c, 0, 65, 60
1, 21373, Note_on_c, 0, 62, 61
1, 21374, Note_on_c, 0, 81, 73
1, 21412, Note_off_c, 0, 62, 64
1, 21422, Note_on_c, 0, 79, 64
1, 21432, Note_off_c, 0, 81, 59
1, 21433, Note_off_c, 0, 65, 41
1, 21446, Note_on_c, 0, 67, 68
1, 21449, Note_off_c, 0, 79, 66
1, 21459, Note_on_c, 0, 78, 67
1, 21503, Note_on_c, 0, 79, 77
1, 21503, Note_off_c, 0, 78, 61
1, 21546, Note_off_c, 0, 67, 62
1, 21553, Note_on_c, 0, 64, 71
1, 21555, Note_off_c, 0, 79, 64
1, 21560, Note_on_c, 0, 72, 79
1, 21586, Note_off_c, 0, 72, 65
1, 21604, Note_off_c, 0, 64, 62
1, 21652, Note_on_c, 0, 67, 67
1, 21730, Note_off_c, 0, 67, 63
1, 21732, Note_on_c, 0, 64, 71
1, 21760, Note_on_c, 0, 81, 71
1, 21789, Note_off_c, 0, 64, 65
1, 21804, Note_on_c, 0, 79, 58
1, 21813, Note_off_c, 0, 81, 62
1, 21825, Note_off_c, 0, 79, 65
1, 21829, Note_on_c, 0, 67, 73
1, 21844, Note_on_c, 0, 78, 68
1, 21887, Note_off_c, 0, 78, 61
1, 21891, Note_on_c, 0, 79, 77
1, 21943, Note_on_c, 0, 74, 75
1, 21946, Note_off_c, 0, 67, 58
1, 21948, Note_off_c, 0, 79, 63
1, 21950, Note_on_c, 0, 62, 62
1, 21957, Note_on_c, 0, 59, 59
1, 21974, Note_off_c, 0, 74, 67
1, 21995, Note_off_c, 0, 62, 62
1, 22001, Note_off_c, 0, 59, 61
1, 22041, Note_on_c, 0, 67, 70
1, 22132, Note_on_c, 0, 81, 72
1, 22135, Note_on_c, 0, 62, 63
1, 22136, Note_off_c, 0, 67, 61
1, 22142, Note_on_c, 0, 59, 54
1, 22181, Note_on_c, 0, 79, 60
1, 22182, Note_off_c, 0, 59, 63
1, 22186, Note_off_c, 0, 81, 61
1, 22200, Note_off_c, 0, 62, 64
1, 22209, Note_on_c, 0, 67, 67
1, 22214, Note_off_c, 0, 79, 64
1, 22223, Note_on_c, 0, 78, 74
1, 22236, Note_off_c, 0, 67, 66
1, 22265, Note_off_c, 0, 78, 59
1, 22273, Note_on_c, 0, 79, 75
1, 22340, Note_on_c, 0, 76, 75
1, 22346, Note_off_c, 0, 79, 61
1, 22433, Note_on_c, 0, 60, 71
1, 22526, Note_off_c, 0, 76, 59
1, 22534, Note_on_c, 0, 64, 75
1, 22635, Note_on_c, 0, 67, 83
1, 22751, Note_on_c, 0, 72, 82
1, 22848, Note_on_c, 0, 76, 86
1, 22953, Note_on_c, 0, 79, 83
1, 22971, Note_off_c, 0, 76, 59
1, 23051, Note_on_c, 0, 84, 89
1, 23072, Note_off_c, 0, 67, 17
1, 23080, Note_off_c, 0, 79, 62
1, 23171, Control_c, 0, 64, 67
1, 23175, Note_on_c, 0, 88, 96
1, 23186, Control_c, 0, 64, 71
1, 23190, Note_off_c, 0, 72, 52
1, 23199, Note_off_c, 0, 84, 62
1, 23201, Control_c, 0, 64, 74
1, 23216, Control_c, 0, 64, 76
1, 23217, Note_off_c, 0, 88, 67
1, 23231, Control_c, 0, 64, 78
1, 23245, Control_c, 0, 64, 79
1, 23423, Control_c, 0, 64, 78
1, 23438, Note_off_c, 0, 60, 50
1, 23445, Control_c, 0, 64, 78
1, 23449, Note_off_c, 0, 64, 25
1, 23460, Control_c, 0, 64, 77
1, 23475, Control_c, 0, 64, 75
1, 23487, Note_on_c, 0, 86, 80
1, 23489, Control_c, 0, 64, 71
1, 23494, Note_on_c, 0, 83, 74
1, 23504, Control_c, 0, 64, 67
1, 23519, Control_c, 0, 64, 34
1, 23530, Note_off_c, 0, 83, 60
1, 23534, Control_c, 0, 64, 0
1, 23574, Note_on_c, 0, 81, 76
1, 23578, Note_on_c, 0, 84, 73
1, 23583, Note_off_c, 0, 86, 62
1, 23601, Note_off_c, 0, 84, 64
1, 23625, Note_off_c, 0, 81, 62
1, 23667, Note_on_c, 0, 79, 76
1, 23669, Note_on_c, 0, 83, 78
1, 23760, Note_on_c, 0, 81, 73
1, 23761, Note_off_c, 0, 79, 62
1, 23768, Note_off_c, 0, 83, 62
1, 23770, Note_on_c, 0, 77, 68
1, 23785, Note_off_c, 0, 81, 65
1, 23823, Note_off_c, 0, 77, 53
1, 23854, Note_on_c, 0, 76, 72
1, 23858, Note_on_c, 0, 79, 71
1, 23956, Note_on_c, 0, 77, 78
1, 23957, Note_off_c, 0, 76, 59
1, 23962, Note_on_c, 0, 74, 66
1, 23977, Note_off_c, 0, 79, 59
1, 24054, Note_on_c, 0, 61, 66
1, 24147, Note_on_c, 0, 62, 70
1, 24158, Note_off_c, 0, 61, 62
1, 24242, Note_on_c, 0, 64, 74
1, 24242, Note_off_c, 0, 62, 63
1, 24325, Note_off_c, 0, 64, 61
1, 24340, Note_on_c, 0, 65, 79
1, 24437, Note_on_c, 0, 64, 80
1, 24448, Note_off_c, 0, 65, 61
1, 24475, Note_off_c, 0, 74, 52
1, 24506, Note_off_c, 0, 64, 60
1, 24528, Note_on_c, 0, 65, 84
1, 24536, Note_on_c, 0, 76, 71
1, 24544, Note_on_c, 0, 72, 68
1, 24630, Note_on_c, 0, 66, 76
1, 24632, Note_off_c, 0, 65, 64
1, 24704, Note_off_c, 0, 66, 64
1, 24715, Note_on_c, 0, 71, 61
1, 24719, Note_on_c, 0, 74, 72
1, 24720, Note_off_c, 0, 77, 54
1, 24730, Note_off_c, 0, 72, 54
1, 24745, Note_on_c, 0, 67, 62
1, 24746, Note_on_c, 0, 69, 64
1, 24746, Note_off_c, 0, 76, 60
1, 24754, Note_off_c, 0, 71, 66
1, 24755, Note_off_c, 0, 74, 64
1, 24788, Note_off_c, 0, 69, 50
1, 24791, Note_off_c, 0, 67, 59
1, 24823, Note_on_c, 0, 55, 77
1, 24920, Note_on_c, 0, 67, 80
1, 24938, Note_off_c, 0, 55, 60
1, 24951, Note_off_c, 0, 67, 68
1, 25007, Note_on_c, 0, 76, 78
1, 25011, Note_on_c, 0, 79, 79
1, 25100, Note_off_c, 0, 76, 36
1, 25101, Note_on_c, 0, 75, 79
1, 25103, Note_on_c, 0, 78, 84
1, 25116, Note_off_c, 0, 79, 62
1, 25150, Note_off_c, 0, 75, 64
1, 25169, Note_off_c, 0, 78, 62
1, 25196, Note_on_c, 0, 76, 74
1, 25198, Note_on_c, 0, 79, 85
1, 25296, Note_on_c, 0, 77, 85
1, 25297, Note_off_c, 0, 76, 40
1, 25303, Note_on_c, 0, 81, 78
1, 25321, Note_off_c, 0, 79, 63
1, 25387, Note_on_c, 0, 79, 70
1, 25392, Note_on_c, 0, 76, 82
1, 25392, Note_off_c, 0, 77, 60
1, 25419, Note_off_c, 0, 81, 61
1, 25454, Note_off_c, 0, 76, 54
1, 25485, Note_on_c, 0, 74, 74
1, 25488, Note_on_c, 0, 77, 77
1, 25494, Note_off_c, 0, 79, 59
1, 25508, Note_off_c, 0, 74, 67
1, 25509, Note_off_c, 0, 77, 63
1, 25574, Note_on_c, 0, 67, 66
1, 25649, Note_off_c, 0, 67, 62
1, 25670, Note_on_c, 0, 55, 70
1, 25702, Note_off_c, 0, 55, 64
1, 25771, Note_on_c, 0, 79, 69
1, 25783, Note_on_c, 0, 76, 53
1, 25804, Note_off_c, 0, 76, 59
1, 25804, Note_off_c, 0, 79, 60
1, 25870, Note_on_c, 0, 76, 68
1, 25877, Note_on_c, 0, 72, 59
1, 25891, Note_off_c, 0, 76, 64
1, 25896, Note_off_c, 0, 72, 62
1, 25956, Note_on_c, 0, 67, 65
1, 26007, Note_off_c, 0, 67, 56
1, 26050, Note_on_c, 0, 55, 70
1, 26078, Note_off_c, 0, 55, 64
1, 26140, Note_on_c, 0, 77, 69
1, 26141, Note_on_c, 0, 74, 63
1, 26170, Note_off_c, 0, 74, 66
1, 26174, Note_off_c, 0, 77, 59
1, 26233, Note_on_c, 0, 74, 72
1, 26251, Note_on_c, 0, 71, 58
1, 26260, Note_off_c, 0, 74, 66
1, 26269, Note_off_c, 0, 71, 65
1, 26340, Note_on_c, 0, 67, 51
1, 26394, Note_off_c, 0, 67, 60
1, 26409, Note_on_c, 0, 55, 74
1, 26442, Note_off_c, 0, 55, 64
1, 26511, Note_on_c, 0, 76, 77
1, 26513, Note_on_c, 0, 79, 75
1, 26537, Note_off_c, 0, 79, 67
1, 26545, Note_off_c, 0, 76, 62
1, 26605, Note_on_c, 0, 78, 79
1, 26606, Note_on_c, 0, 75, 79
1, 26626, Note_on_c, 0, 79, 16
1, 26648, Note_off_c, 0, 78, 59
1, 26656, Note_off_c, 0, 75, 60
1, 26669, Note_off_c, 0, 79, 32
1, 26694, Note_on_c, 0, 76, 82
1, 26699, Note_on_c, 0, 79, 77
1, 26765, Note_off_c, 0, 76, 53
1, 26794, Note_on_c, 0, 77, 88
1, 26803, Note_on_c, 0, 81, 77
1, 26822, Note_off_c, 0, 79, 63
1, 26890, Note_on_c, 0, 79, 72
1, 26893, Note_on_c, 0, 76, 85
1, 26896, Note_off_c, 0, 77, 61
1, 26937, Note_off_c, 0, 81, 58
1, 26987, Note_on_c, 0, 77, 90
1, 26993, Note_on_c, 0, 74, 76
1, 26998, Note_off_c, 0, 76, 59
1, 27004, Note_off_c, 0, 79, 63
1, 27010, Note_off_c, 0, 77, 67
1, 27014, Note_off_c, 0, 74, 68
1, 27081, Note_on_c, 0, 67, 78
1, 27161, Note_off_c, 0, 67, 59
1, 27181, Note_on_c, 0, 55, 83
1, 27210, Note_off_c, 0, 55, 68
1, 27275, Note_on_c, 0, 83, 88
1, 27279, Note_on_c, 0, 77, 87
1, 27325, Note_off_c, 0, 77, 59
1, 27340, Note_off_c, 0, 83, 62
1, 27384, Note_on_c, 0, 76, 84
1, 27389, Note_on_c, 0, 84, 80
1, 27408, Note_off_c, 0, 84, 70
1, 27408, Note_off_c, 0, 76, 65
1, 27466, Note_on_c, 0, 67, 81
1, 27530, Note_off_c, 0, 67, 59
1, 27564, Note_on_c, 0, 55, 83
1, 27593, Note_off_c, 0, 55, 67
1, 27660, Note_on_c, 0, 76, 73
1, 27662, Note_on_c, 0, 72, 77
1, 27727, Note_off_c, 0, 72, 53
1, 27760, Note_on_c, 0, 74, 79
1, 27761, Note_on_c, 0, 71, 75
1, 27774, Note_off_c, 0, 76, 55
1, 27790, Note_off_c, 0, 71, 66
1, 27796, Note_off_c, 0, 74, 63
1, 27839, Note_on_c, 0, 67, 76
1, 27916, Note_off_c, 0, 67, 62
1, 27940, Note_on_c, 0, 55, 84
1, 27984, Note_off_c, 0, 55, 59
1, 28045, Note_on_c, 0, 72, 86
1, 28051, Note_on_c, 0, 76, 76
1, 28067, Note_off_c, 0, 72, 65
1, 28074, Note_off_c, 0, 76, 65
1, 28134, Note_on_c, 0, 71, 83
1, 28136, Note_on_c, 0, 74, 87
1, 28180, Note_off_c, 0, 71, 62
1, 28192, Note_off_c, 0, 74, 63
1, 28233, Note_on_c, 0, 72, 90
1, 28237, Note_on_c, 0, 76, 79
1, 28288, Note_off_c, 0, 72, 60
1, 28329, Note_on_c, 0, 74, 85
1, 28337, Note_on_c, 0, 71, 78
1, 28347, Note_off_c, 0, 76, 60
1, 28432, Note_on_c, 0, 72, 84
1, 28436, Note_on_c, 0, 76, 84
1, 28442, Note_off_c, 0, 71, 62
1, 28444, Note_off_c, 0, 74, 61
1, 28543, Note_on_c, 0, 74, 84
1, 28547, Note_on_c, 0, 71, 80
1, 28552, Note_off_c, 0, 72, 58
1, 28573, Note_off_c, 0, 76, 60
1, 28631, Note_off_c, 0, 74, 64
1, 28632, Note_off_c, 0, 71, 63
1, 28924, Note_on_c, 0, 54, 60
1, 28926, Note_on_c, 0, 42, 44
1, 28955, Note_off_c, 0, 54, 63
1, 28974, Note_off_c, 0, 42, 59
1, 29015, Note_on_c, 0, 55, 68
1, 29020, Note_on_c, 0, 43, 65
1, 29056, Note_off_c, 0, 55, 61
1, 29066, Note_off_c, 0, 43, 59
1, 29118, Note_on_c, 0, 54, 47
1, 29122, Note_on_c, 0, 42, 48
1, 29178, Note_off_c, 0, 54, 46
1, 29190, Note_off_c, 0, 42, 54
1, 29216, Note_on_c, 0, 55, 57
1, 29232, Note_on_c, 0, 43, 50
1, 29298, Note_off_c, 0, 55, 55
1, 29301, Note_off_c, 0, 43, 56
1, 29318, Note_on_c, 0, 54, 49
1, 29334, Note_on_c, 0, 42, 42
1, 29408, Note_off_c, 0, 54, 37
1, 29439, Note_off_c, 0, 42, 42
1, 29447, Note_on_c, 0, 55, 42
1, 29465, Note_on_c, 0, 43, 45
1, 29770, Note_off_c, 0, 55, 24
1, 29837, Note_off_c, 0, 43, 53
1, 30162, Note_on_c, 0, 55, 91
1, 30164, Note_on_c, 0, 43, 90
1, 30228, Note_off_c, 0, 55, 62
1, 30261, Note_off_c, 0, 43, 62
1, 30264, Note_on_c, 0, 74, 71
1, 30374, Note_on_c, 0, 76, 75
1, 30379, Note_off_c, 0, 74, 63
1, 30463, Note_on_c, 0, 78, 79
1, 30483, Note_off_c, 0, 76, 56
1, 30562, Note_on_c, 0, 50, 89
1, 30564, Note_on_c, 0, 38, 89
1, 30568, Note_off_c, 0, 78, 62
1, 30569, Note_on_c, 0, 79, 84
1, 30617, Note_off_c, 0, 50, 65
1, 30648, Note_off_c, 0, 38, 62
1, 30675, Note_on_c, 0, 81, 87
1, 30699, Note_off_c, 0, 79, 59
1, 30774, Note_on_c, 0, 83, 86
1, 30807, Note_off_c, 0, 81, 60
1, 30875, Note_on_c, 0, 84, 88
1, 30901, Note_off_c, 0, 83, 59
1, 30982, Note_on_c, 0, 47, 93
1, 30985, Note_on_c, 0, 35, 85
1, 30991, Note_on_c, 0, 86, 90
1, 31006, Note_off_c, 0, 84, 64
1, 31086, Note_on_c, 0, 84, 84
1, 31175, Note_off_c, 0, 86, 51
1, 31188, Note_on_c, 0, 83, 83
1, 31231, Note_off_c, 0, 84, 58
1, 31255, Note_off_c, 0, 35, 61
1, 31292, Note_off_c, 0, 47, 61
1, 31295, Note_on_c, 0, 81, 84
1, 31344, Note_off_c, 0, 83, 55
1, 31395, Note_on_c, 0, 79, 87
1, 31396, Note_off_c, 0, 81, 63
1, 31493, Note_on_c, 0, 81, 83
1, 31514, Note_off_c, 0, 79, 63
1, 31575, Note_on_c, 0, 52, 89
1, 31578, Note_on_c, 0, 40, 89
1, 31585, Note_on_c, 0, 83, 92
1, 31602, Note_off_c, 0, 52, 68
1, 31607, Note_off_c, 0, 81, 61
1, 31632, Note_off_c, 0, 40, 66
1, 31691, Note_on_c, 0, 79, 83
1, 31696, Note_off_c, 0, 83, 62
1, 31781, Note_on_c, 0, 45, 91
1, 31785, Note_on_c, 0, 33, 88
1, 31796, Note_on_c, 0, 84, 94
1, 31819, Note_off_c, 0, 79, 60
1, 31897, Note_on_c, 0, 83, 80
1, 31930, Note_off_c, 0, 84, 62
1, 32002, Note_on_c, 0, 81, 86
1, 32012, Note_off_c, 0, 33, 59
1, 32046, Note_off_c, 0, 83, 59
1, 32056, Note_off_c, 0, 45, 61
1, 32093, Note_off_c, 0, 81, 62
1, 32099, Note_on_c, 0, 79, 82
1, 32189, Note_on_c, 0, 78, 86
1, 32195, Note_off_c, 0, 79, 34
1, 32281, Note_on_c, 0, 79, 81
1, 32286, Note_off_c, 0, 78, 62
1, 32353, Note_on_c, 0, 50, 85
1, 32356, Note_on_c, 0, 38, 86
1, 32368, Note_on_c, 0, 81, 87
1, 32380, Note_off_c, 0, 50, 70
1, 32384, Note_off_c, 0, 79, 62
1, 32410, Note_off_c, 0, 38, 63
1, 32466, Note_on_c, 0, 78, 85
1, 32492, Note_off_c, 0, 81, 60
1, 32567, Note_on_c, 0, 43, 83
1, 32577, Note_on_c, 0, 31, 81
1, 32580, Note_on_c, 0, 83, 88
1, 32594, Note_off_c, 0, 78, 62
1, 32678, Note_on_c, 0, 81, 83
1, 32732, Note_off_c, 0, 83, 58
1, 32762, Note_off_c, 0, 31, 61
1, 32774, Note_on_c, 0, 79, 84
1, 32811, Note_off_c, 0, 81, 60
1, 32814, Note_off_c, 0, 43, 61
1, 32870, Note_on_c, 0, 78, 89
1, 32905, Note_off_c, 0, 79, 61
1, 32962, Note_off_c, 0, 78, 62
1, 32967, Note_on_c, 0, 76, 81
1, 33057, Note_on_c, 0, 74, 82
1, 33073, Note_off_c, 0, 76, 58
1, 33149, Note_on_c, 0, 64, 83
1, 33149, Note_on_c, 0, 72, 86
1, 33181, Note_off_c, 0, 74, 60
1, 33247, Note_on_c, 0, 71, 79
1, 33255, Note_off_c, 0, 72, 59
1, 33323, Note_off_c, 0, 71, 58
1, 33352, Note_on_c, 0, 54, 59
1, 33353, Note_on_c, 0, 69, 75
1, 33379, Note_off_c, 0, 64, 58
1, 33422, Note_off_c, 0, 69, 61
1, 33447, Note_on_c, 0, 79, 83
1, 33540, Note_on_c, 0, 78, 78
1, 33565, Note_off_c, 0, 54, 59
1, 33584, Note_off_c, 0, 79, 59
1, 33633, Note_on_c, 0, 76, 80
1, 33666, Note_off_c, 0, 78, 61
1, 33730, Note_on_c, 0, 74, 82
1, 33760, Note_off_c, 0, 76, 57
1, 33811, Note_off_c, 0, 74, 62
1, 33820, Note_on_c, 0, 72, 79
1, 33879, Note_off_c, 0, 72, 60
1, 33908, Note_on_c, 0, 62, 66
1, 33910, Note_on_c, 0, 71, 76
1, 34009, Note_on_c, 0, 69, 73
1, 34011, Note_off_c, 0, 71, 61
1, 34073, Note_off_c, 0, 69, 61
1, 34115, Note_on_c, 0, 67, 67
1, 34117, Note_on_c, 0, 52, 55
1, 34139, Note_off_c, 0, 62, 56
1, 34178, Note_off_c, 0, 67, 60
1, 34207, Note_on_c, 0, 78, 74
1, 34292, Note_off_c, 0, 78, 60
1, 34294, Note_on_c, 0, 76, 70
1, 34341, Note_off_c, 0, 52, 60
1, 34386, Note_on_c, 0, 74, 76
1, 34391, Note_off_c, 0, 76, 59
1, 34477, Note_on_c, 0, 72, 73
1, 34482, Note_off_c, 0, 74, 58
1, 34544, Note_off_c, 0, 72, 60
1, 34567, Note_on_c, 0, 71, 67
1, 34614, Note_off_c, 0, 71, 60
1, 34653, Note_on_c, 0, 60, 66
1, 34653, Note_on_c, 0, 69, 71
1, 34736, Note_off_c, 0, 69, 58
1, 34758, Note_on_c, 0, 67, 61
1, 34833, Note_off_c, 0, 67, 41
1, 34863, Note_on_c, 0, 66, 58
1, 34867, Note_on_c, 0, 50, 58
1, 34942, Note_off_c, 0, 66, 61
1, 34947, Note_on_c, 0, 71, 62
1, 35044, Note_on_c, 0, 69, 59
1, 35045, Note_off_c, 0, 71, 54
1, 35082, Note_off_c, 0, 60, 45
1, 35135, Note_off_c, 0, 69, 56
1, 35138, Note_on_c, 0, 66, 63
1, 35232, Note_off_c, 0, 66, 61
1, 35239, Note_on_c, 0, 62, 61
1, 35245, Note_on_c, 0, 59, 72
1, 35330, Note_off_c, 0, 62, 60
1, 35336, Note_on_c, 0, 72, 66
1, 35426, Note_on_c, 0, 71, 68
1, 35447, Note_off_c, 0, 72, 50
1, 35519, Note_on_c, 0, 67, 72
1, 35554, Note_off_c, 0, 71, 57
1, 35612, Note_off_c, 0, 67, 62
1, 35614, Note_on_c, 0, 62, 74
1, 35626, Note_on_c, 0, 54, 69
1, 35707, Note_off_c, 0, 62, 56
1, 35710, Note_on_c, 0, 74, 83
1, 35802, Note_on_c, 0, 72, 76
1, 35839, Note_off_c, 0, 74, 60
1, 35878, Note_off_c, 0, 59, 43
1, 35900, Note_on_c, 0, 69, 71
1, 35944, Note_off_c, 0, 72, 58
1, 35990, Note_off_c, 0, 69, 54
1, 35992, Note_on_c, 0, 62, 81
1, 35996, Note_on_c, 0, 55, 78
1, 36070, Note_off_c, 0, 62, 63
1, 36086, Note_on_c, 0, 76, 91
1, 36088, Note_off_c, 0, 54, 58
1, 36128, Note_off_c, 0, 55, 62
1, 36184, Note_on_c, 0, 74, 86
1, 36229, Note_off_c, 0, 76, 53
1, 36270, Note_off_c, 0, 50, 29
1, 36281, Note_on_c, 0, 71, 87
1, 36317, Note_off_c, 0, 74, 60
1, 36362, Note_off_c, 0, 71, 56
1, 36368, Note_on_c, 0, 61, 91
1, 36376, Note_on_c, 0, 55, 76
1, 36376, Note_on_c, 0, 67, 85
1, 36377, Note_on_c, 0, 50, 75
1, 36381, Note_on_c, 0, 52, 66
1, 36443, Note_off_c, 0, 67, 61
1, 36473, Note_on_c, 0, 81, 88
1, 36567, Note_on_c, 0, 79, 83
1, 36658, Note_off_c, 0, 81, 46
1, 36659, Note_on_c, 0, 78, 89
1, 36697, Note_off_c, 0, 79, 62
1, 36758, Note_on_c, 0, 76, 82
1, 36791, Note_off_c, 0, 78, 62
1, 36831, Note_off_c, 0, 76, 61
1, 36842, Note_on_c, 0, 74, 78
1, 36933, Note_on_c, 0, 73, 81
1, 36944, Note_off_c, 0, 74, 62
1, 37025, Note_on_c, 0, 71, 75
1, 37066, Note_off_c, 0, 73, 59
1, 37108, Note_on_c, 0, 69, 81
1, 37132, Note_off_c, 0, 71, 59
1, 37190, Note_off_c, 0, 61, 59
1, 37191, Note_off_c, 0, 69, 60
1, 37199, Note_on_c, 0, 67, 77
1, 37283, Note_on_c, 0, 66, 82
1, 37286, Note_off_c, 0, 67, 60
1, 37374, Note_on_c, 0, 64, 82
1, 37386, Note_off_c, 0, 55, 60
1, 37410, Note_off_c, 0, 66, 63
1, 37433, Note_off_c, 0, 50, 61
1, 37442, Note_off_c, 0, 52, 59
1, 37458, Note_off_c, 0, 64, 61
1, 37470, Note_on_c, 0, 62, 78
1, 37549, Note_on_c, 0, 61, 83
1, 37564, Note_off_c, 0, 62, 63
1, 37641, Note_on_c, 0, 59, 83
1, 37698, Note_off_c, 0, 61, 56
1, 37737, Note_on_c, 0, 57, 86
1, 37769, Note_off_c, 0, 59, 61
1, 37835, Note_on_c, 0, 55, 83
1, 37849, Note_off_c, 0, 57, 61
1, 37934, Note_on_c, 0, 38, 78
1, 38023, Note_off_c, 0, 38, 59
1, 38031, Note_on_c, 0, 45, 63
1, 38111, Note_on_c, 0, 49, 81
1, 38194, Note_off_c, 0, 49, 63
1, 38207, Note_on_c, 0, 50, 78
1, 38293, Note_on_c, 0, 49, 75
1, 38293, Note_off_c, 0, 50, 63
1, 38360, Note_off_c, 0, 49, 63
1, 38389, Note_on_c, 0, 50, 80
1, 38471, Note_off_c, 0, 50, 60
1, 38477, Note_on_c, 0, 49, 76
1, 38543, Note_off_c, 0, 49, 62
1, 38568, Note_on_c, 0, 50, 83
1, 38581, Note_off_c, 0, 55, 60
1, 38590, Note_on_c, 0, 54, 71
1, 38648, Note_off_c, 0, 54, 60
1, 38674, Note_on_c, 0, 55, 80
1, 38756, Note_on_c, 0, 57, 76
1, 38756, Note_off_c, 0, 55, 61
1, 38838, Note_off_c, 0, 57, 63
1, 38852, Note_on_c, 0, 55, 79
1, 38931, Note_on_c, 0, 59, 81
1, 38951, Note_off_c, 0, 55, 60
1, 38976, Note_off_c, 0, 45, 35
1, 39016, Note_off_c, 0, 50, 61
1, 39026, Note_on_c, 0, 57, 80
1, 39032, Note_off_c, 0, 59, 62
1, 39114, Note_on_c, 0, 60, 84
1, 39123, Note_off_c, 0, 57, 62
1, 39216, Note_on_c, 0, 59, 83
1, 39229, Note_off_c, 0, 60, 60
1, 39305, Note_on_c, 0, 62, 84
1, 39306, Note_off_c, 0, 59, 63
1, 39388, Note_on_c, 0, 60, 84
1, 39402, Note_off_c, 0, 62, 63
1, 39455, Note_off_c, 0, 60, 57
1, 39479, Note_on_c, 0, 57, 81
1, 39503, Note_off_c, 0, 57, 69
1, 39561, Note_on_c, 0, 54, 76
1, 39660, Note_on_c, 0, 50, 79
1, 39681, Note_off_c, 0, 54, 61
1, 39710, Note_off_c, 0, 50, 65
1, 39755, Note_on_c, 0, 66, 78
1, 39840, Note_on_c, 0, 62, 81
1, 39850, Note_off_c, 0, 66, 63
1, 39865, Note_off_c, 0, 62, 68
1, 39929, Note_on_c, 0, 60, 84
1, 40019, Note_on_c, 0, 57, 83
1, 40032, Note_off_c, 0, 60, 62
1, 40049, Note_off_c, 0, 57, 68
1, 40101, Note_on_c, 0, 72, 81
1, 40190, Note_on_c, 0, 69, 84
1, 40202, Note_off_c, 0, 72, 61
1, 40211, Note_off_c, 0, 69, 69
1, 40286, Note_on_c, 0, 66, 81
1, 40367, Note_on_c, 0, 62, 83
1, 40376, Note_off_c, 0, 66, 63
1, 40402, Note_off_c, 0, 62, 65
1, 40449, Note_on_c, 0, 78, 82
1, 40538, Note_on_c, 0, 74, 82
1, 40548, Note_off_c, 0, 78, 60
1, 40566, Note_off_c, 0, 74, 67
1, 40618, Note_on_c, 0, 72, 74
1, 40714, Note_on_c, 0, 69, 79
1, 40720, Note_off_c, 0, 72, 62
1, 40744, Note_off_c, 0, 69, 65
1, 40807, Note_on_c, 0, 84, 80
1, 40899, Note_on_c, 0, 81, 83
1, 40908, Note_off_c, 0, 84, 63
1, 40920, Note_off_c, 0, 81, 69
1, 40977, Note_on_c, 0, 78, 79
1, 41066, Note_on_c, 0, 74, 76
1, 41069, Note_off_c, 0, 78, 61
1, 41120, Note_off_c, 0, 74, 63
1, 41142, Note_on_c, 0, 88, 80
1, 41236, Note_on_c, 0, 86, 77
1, 41319, Note_off_c, 0, 88, 39
1, 41328, Note_on_c, 0, 84, 79
1, 41364, Note_off_c, 0, 86, 60
1, 41431, Note_on_c, 0, 83, 76
1, 41461, Note_off_c, 0, 84, 62
1, 41500, Note_off_c, 0, 83, 62
1, 41504, Note_on_c, 0, 81, 74
1, 41555, Note_off_c, 0, 81, 62
1, 41600, Note_on_c, 0, 79, 65
1, 41684, Note_on_c, 0, 78, 78
1, 41697, Note_off_c, 0, 79, 60
1, 41771, Note_on_c, 0, 76, 75
1, 41805, Note_off_c, 0, 78, 61
1, 41838, Note_off_c, 0, 76, 59
1, 41860, Note_on_c, 0, 74, 68
1, 41940, Note_off_c, 0, 74, 60
1, 41947, Note_on_c, 0, 73, 70
1, 42011, Note_off_c, 0, 73, 57
1, 42030, Note_on_c, 0, 72, 69
1, 42127, Note_on_c, 0, 81, 68
1, 42132, Note_off_c, 0, 72, 49
1, 42217, Note_on_c, 0, 62, 49
1, 42282, Note_off_c, 0, 81, 55
1, 42314, Note_on_c, 0, 66, 59
1, 42398, Note_on_c, 0, 69, 54
1, 42455, Note_off_c, 0, 66, 48
1, 42493, Note_on_c, 0, 72, 68
1, 42498, Note_off_c, 0, 69, 52
1, 42535, Note_off_c, 0, 62, 42
1, 42545, Note_off_c, 0, 72, 60
1, 42570, Note_on_c, 0, 74, 53
1, 42663, Note_on_c, 0, 78, 53
1, 42663, Note_off_c, 0, 74, 57
1, 42741, Note_off_c, 0, 78, 59
1, 42754, Note_on_c, 0, 81, 58
1, 42839, Note_off_c, 0, 81, 60
1, 42848, Note_on_c, 0, 84, 60
1, 42888, Note_off_c, 0, 84, 58
1, 42951, Note_on_c, 0, 74, 51
1, 43023, Note_off_c, 0, 74, 58
1, 43039, Note_on_c, 0, 78, 52
1, 43131, Note_off_c, 0, 78, 54
1, 43135, Note_on_c, 0, 81, 52
1, 43223, Note_on_c, 0, 84, 49
1, 43226, Note_off_c, 0, 81, 55
1, 43254, Note_off_c, 0, 84, 52
1, 43310, Note_on_c, 0, 74, 52
1, 43396, Note_on_c, 0, 78, 50
1, 43442, Note_off_c, 0, 74, 33
1, 43485, Note_on_c, 0, 81, 54
1, 43522, Note_off_c, 0, 81, 60
1, 43553, Note_off_c, 0, 78, 0
1, 43591, Poly_aftertouch_c, 0, 78, 127
1, 43653, Note_on_c, 0, 84, 50
1, 43654, Note_on_c, 0, 81, 31
1, 43683, Poly_aftertouch_c, 0, 78, 0
1, 44488, Note_off_c, 0, 84, 35
1, 44518, Note_on_c, 0, 82, 54
1, 44524, Note_on_c, 0, 78, 40
1, 44568, Note_off_c, 0, 81, 40
1, 45049, Note_off_c, 0, 82, 35
1, 45215, Note_on_c, 0, 79, 90
1, 45222, Note_on_c, 0, 83, 79
1, 45242, Note_off_c, 0, 83, 68
1, 45245, Note_off_c, 0, 79, 66
1, 45292, Note_off_c, 0, 78, 24
1, 45303, Note_on_c, 0, 43, 74
1, 45400, Note_on_c, 0, 45, 71
1, 45457, Note_off_c, 0, 43, 61
1, 45488, Note_on_c, 0, 47, 78
1, 45507, Note_off_c, 0, 45, 63
1, 45568, Note_on_c, 0, 48, 75
1, 45579, Note_off_c, 0, 47, 62
1, 45600, Note_on_c, 0, 79, 88
1, 45603, Note_on_c, 0, 74, 75
1, 45621, Note_off_c, 0, 79, 68
1, 45626, Note_off_c, 0, 74, 68
1, 45628, Note_off_c, 0, 48, 63
1, 45648, Note_on_c, 0, 50, 75
1, 45740, Note_on_c, 0, 52, 40
1, 45755, Note_off_c, 0, 50, 64
1, 45821, Note_on_c, 0, 54, 73
1, 45836, Note_off_c, 0, 52, 61
1, 45944, Note_off_c, 0, 54, 62
1, 45945, Note_on_c, 0, 55, 74
1, 45954, Note_on_c, 0, 74, 67
1, 45961, Note_on_c, 0, 71, 65
1, 46023, Note_off_c, 0, 71, 46
1, 46030, Note_on_c, 0, 54, 75
1, 46030, Note_off_c, 0, 55, 62
1, 46044, Note_off_c, 0, 74, 63
1, 46121, Note_on_c, 0, 55, 76
1, 46125, Note_off_c, 0, 54, 62
1, 46175, Note_off_c, 0, 55, 62
1, 46204, Note_on_c, 0, 57, 79
1, 46313, Note_on_c, 0, 59, 81
1, 46325, Note_off_c, 0, 57, 60
1, 46378, Note_off_c, 0, 59, 63
1, 46514, Note_on_c, 0, 76, 83
1, 46722, Note_on_c, 0, 69, 85
1, 46758, Note_off_c, 0, 69, 64
1, 46760, Note_off_c, 0, 76, 59
1, 46809, Note_on_c, 0, 67, 70
1, 46887, Note_on_c, 0, 66, 72
1, 46889, Note_off_c, 0, 67, 62
1, 46988, Note_off_c, 0, 66, 63
1, 46990, Note_on_c, 0, 64, 68
1, 47076, Note_off_c, 0, 64, 62
1, 47087, Note_on_c, 0, 66, 83
1, 47107, Note_off_c, 0, 66, 70
1, 47293, Note_on_c, 0, 74, 74
1, 47494, Note_on_c, 0, 67, 70
1, 47534, Note_off_c, 0, 74, 61
1, 47538, Note_off_c, 0, 67, 62
1, 47580, Note_on_c, 0, 66, 60
1, 47672, Note_off_c, 0, 66, 61
1, 47673, Note_on_c, 0, 64, 52
1, 47743, Note_off_c, 0, 64, 64
1, 47752, Note_on_c, 0, 63, 64
1, 47833, Note_off_c, 0, 63, 59
1, 47872, Note_on_c, 0, 64, 63
1, 47895, Note_off_c, 0, 64, 66
1, 48054, Note_on_c, 0, 88, 71
1, 48061, Note_on_c, 0, 84, 66
1, 48259, Note_on_c, 0, 81, 66
1, 48259, Note_on_c, 0, 78, 67
1, 48267, Note_off_c, 0, 88, 63
1, 48277, Note_off_c, 0, 84, 62
1, 48283, Note_off_c, 0, 81, 66
1, 48286, Note_off_c, 0, 78, 66
1, 48431, Note_on_c, 0, 69, 59
1, 48444, Note_on_c, 0, 66, 45
1, 48632, Note_off_c, 0, 69, 36
1, 48635, Note_on_c, 0, 71, 60
1, 48638, Note_on_c, 0, 74, 66
1, 48664, Note_off_c, 0, 71, 66
1, 48664, Note_off_c, 0, 74, 66
1, 48666, Note_off_c, 0, 66, 54
1, 48829, Note_on_c, 0, 86, 72
1, 48831, Note_on_c, 0, 83, 67
1, 49000, Note_off_c, 0, 83, 36
1, 49001, Note_on_c, 0, 76, 68
1, 49003, Note_on_c, 0, 79, 73
1, 49025, Note_off_c, 0, 86, 62
1, 49027, Note_off_c, 0, 79, 68
1, 49029, Note_off_c, 0, 76, 64
1, 49069, Note_on_c, 0, 64, 51
1, 49089, Note_on_c, 0, 67, 69
1, 49148, Note_on_c, 0, 69, 64
1, 49151, Note_off_c, 0, 67, 62
1, 49214, Note_off_c, 0, 64, 61
1, 49219, Note_on_c, 0, 66, 63
1, 49246, Note_off_c, 0, 66, 67
1, 49246, Note_off_c, 0, 69, 62
1, 49258, Note_on_c, 0, 71, 66
1, 49273, Note_on_c, 0, 67, 46
1, 49300, Note_off_c, 0, 67, 47
1, 49371, Note_on_c, 0, 72, 71
1, 49371, Note_off_c, 0, 71, 60
1, 49381, Note_on_c, 0, 69, 52
1, 49554, Note_on_c, 0, 84, 74
1, 49562, Note_off_c, 0, 72, 60
1, 49580, Note_off_c, 0, 69, 62
1, 49726, Note_off_c, 0, 84, 51
1, 49744, Note_on_c, 0, 74, 65
1, 49809, Note_off_c, 0, 74, 61
1, 49832, Note_on_c, 0, 84, 73
1, 49925, Note_on_c, 0, 66, 64
1, 49925, Note_on_c, 0, 83, 60
1, 49945, Note_off_c, 0, 84, 49
1, 50004, Note_off_c, 0, 83, 62
1, 50021, Note_on_c, 0, 82, 55
1, 50101, Note_off_c, 0, 82, 61
1, 50103, Note_off_c, 0, 66, 61
1, 50104, Note_on_c, 0, 67, 68
1, 50113, Note_on_c, 0, 83, 65
1, 50166, Note_off_c, 0, 83, 52
1, 50203, Note_on_c, 0, 78, 58
1, 50280, Note_off_c, 0, 78, 58
1, 50286, Note_on_c, 0, 79, 64
1, 50304, Note_on_c, 0, 59, 61
1, 50346, Note_off_c, 0, 79, 62
1, 50370, Note_on_c, 0, 74, 61
1, 50376, Note_off_c, 0, 67, 39
1, 50429, Note_off_c, 0, 74, 54
1, 50480, Note_on_c, 0, 75, 59
1, 50492, Note_on_c, 0, 60, 60
1, 50520, Note_off_c, 0, 59, 51
1, 50531, Note_off_c, 0, 75, 50
1, 50570, Note_on_c, 0, 76, 57
1, 50630, Note_off_c, 0, 76, 55
1, 50658, Note_on_c, 0, 80, 61
1, 50666, Note_on_c, 0, 72, 67
1, 50736, Note_off_c, 0, 80, 62
1, 50737, Note_off_c, 0, 72, 57
1, 50746, Note_on_c, 0, 81, 60
1, 50830, Note_off_c, 0, 81, 58
1, 50840, Note_on_c, 0, 74, 48
1, 50854, Note_on_c, 0, 79, 61
1, 50857, Note_on_c, 0, 71, 65
1, 50872, Note_on_c, 0, 62, 53
1, 50872, Note_off_c, 0, 60, 54
1, 50918, Note_off_c, 0, 71, 60
1, 50982, Note_off_c, 0, 74, 34
1, 51043, Note_off_c, 0, 79, 61
1, 51049, Note_on_c, 0, 78, 65
1, 51051, Note_on_c, 0, 69, 72
1, 51061, Note_off_c, 0, 62, 62
1, 51067, Note_off_c, 0, 78, 65
1, 51178, Note_off_c, 0, 69, 47
1, 51224, Note_on_c, 0, 55, 67
1, 51293, Note_off_c, 0, 55, 62
1, 51309, Note_on_c, 0, 79, 71
1, 51312, Note_on_c, 0, 83, 74
1, 51315, Note_on_c, 0, 67, 74
1, 51358, Note_off_c, 0, 79, 61
1, 51360, Note_off_c, 0, 83, 54
1, 51389, Note_off_c, 0, 67, 58
1, 51396, Note_on_c, 0, 78, 78
1, 51401, Note_on_c, 0, 81, 77
1, 51404, Note_on_c, 0, 55, 79
1, 51420, Note_off_c, 0, 78, 66
1, 51422, Note_off_c, 0, 81, 68
1, 51465, Note_off_c, 0, 55, 59
1, 51484, Note_on_c, 0, 81, 71
1, 51485, Note_on_c, 0, 67, 74
1, 51486, Note_on_c, 0, 84, 87
1, 51533, Note_off_c, 0, 81, 61
1, 51562, Note_off_c, 0, 67, 59
1, 51570, Note_on_c, 0, 83, 81
1, 51573, Note_on_c, 0, 79, 75
1, 51580, Note_off_c, 0, 84, 63
1, 51582, Note_on_c, 0, 55, 80
1, 51602, Note_off_c, 0, 79, 64
1, 51602, Note_off_c, 0, 83, 62
1, 51654, Note_on_c, 0, 86, 90
1, 51662, Note_on_c, 0, 83, 81
1, 51664, Note_off_c, 0, 55, 58
1, 51670, Note_on_c, 0, 67, 74
1, 51714, Note_off_c, 0, 83, 56
1, 51744, Note_on_c, 0, 84, 86
1, 51750, Note_on_c, 0, 81, 71
1, 51761, Note_off_c, 0, 86, 63
1, 51768, Note_on_c, 0, 55, 80
1, 51768, Note_off_c, 0, 67, 59
1, 51778, Note_off_c, 0, 81, 64
1, 51781, Note_off_c, 0, 84, 63
1, 51837, Note_on_c, 0, 88, 88
1, 51844, Note_on_c, 0, 84, 83
1, 51849, Note_off_c, 0, 55, 60
1, 51860, Note_on_c, 0, 67, 72
1, 51904, Note_off_c, 0, 84, 57
1, 51933, Note_on_c, 0, 86, 92
1, 51941, Note_off_c, 0, 67, 59
1, 51944, Note_on_c, 0, 83, 73
1, 51949, Note_off_c, 0, 88, 65
1, 51950, Note_on_c, 0, 55, 84
1, 51955, Note_off_c, 0, 86, 70
1, 51961, Note_off_c, 0, 83, 67
1, 52018, Note_off_c, 0, 55, 60
1, 52042, Note_on_c, 0, 67, 71
1, 52113, Note_off_c, 0, 67, 57
1, 52125, Note_on_c, 0, 55, 70
1, 52191, Note_off_c, 0, 55, 62
1, 52204, Note_on_c, 0, 84, 55
1, 52213, Note_on_c, 0, 81, 65
1, 52217, Note_on_c, 0, 67, 65
1, 52267, Note_off_c, 0, 81, 52
1, 52289, Note_off_c, 0, 67, 60
1, 52301, Note_on_c, 0, 83, 75
1, 52303, Note_on_c, 0, 79, 66
1, 52308, Note_on_c, 0, 55, 72
1, 52312, Note_off_c, 0, 84, 63
1, 52321, Note_off_c, 0, 79, 68
1, 52325, Note_off_c, 0, 83, 66
1, 52367, Note_off_c, 0, 55, 61
1, 52399, Note_on_c, 0, 67, 67
1, 52477, Note_off_c, 0, 67, 58
1, 52486, Note_on_c, 0, 55, 69
1, 52548, Note_on_c, 0, 81, 66
1, 52551, Note_off_c, 0, 55, 61
1, 52579, Note_on_c, 0, 67, 70
1, 52582, Note_off_c, 0, 81, 61
1, 52651, Note_off_c, 0, 67, 54
1, 52661, Note_on_c, 0, 79, 74
1, 52663, Note_on_c, 0, 55, 73
1, 52677, Note_off_c, 0, 79, 71
1, 52683, Note_on_c, 0, 71, 29
1, 52684, Note_off_c, 0, 71, 127
1, 52728, Note_off_c, 0, 55, 58
1, 52752, Note_on_c, 0, 67, 72
1, 52754, Note_on_c, 0, 83, 84
1, 52757, Note_on_c, 0, 79, 61
1, 52793, Note_off_c, 0, 79, 59
1, 52812, Note_off_c, 0, 67, 58
1, 52838, Note_on_c, 0, 55, 74
1, 52841, Note_on_c, 0, 81, 77
1, 52844, Note_off_c, 0, 83, 62
1, 52862, Note_off_c, 0, 81, 68
1, 52864, Note_on_c, 0, 78, 57
1, 52883, Note_off_c, 0, 78, 61
1, 52902, Note_off_c, 0, 55, 61
1, 52923, Note_on_c, 0, 67, 67
1, 52931, Note_on_c, 0, 84, 83
1, 52935, Note_on_c, 0, 81, 62
1, 52989, Note_off_c, 0, 81, 54
1, 53013, Note_off_c, 0, 67, 58
1, 53016, Note_on_c, 0, 55, 69
1, 53018, Note_on_c, 0, 79, 77
1, 53022, Note_on_c, 0, 83, 80
1, 53030, Note_off_c, 0, 84, 62
1, 53043, Note_off_c, 0, 83, 67
1, 53049, Note_off_c, 0, 79, 65
1, 53099, Note_off_c, 0, 55, 59
1, 53100, Note_on_c, 0, 86, 95
1, 53105, Note_on_c, 0, 83, 84
1, 53109, Note_on_c, 0, 67, 69
1, 53171, Note_off_c, 0, 83, 0
1, 53182, Note_off_c, 0, 67, 58
1, 53190, Note_on_c, 0, 84, 90
1, 53191, Note_on_c, 0, 81, 73
1, 53203, Note_on_c, 0, 55, 75
1, 53209, Poly_aftertouch_c, 0, 83, 0
1, 53211, Note_off_c, 0, 86, 65
1, 53222, Note_off_c, 0, 81, 63
1, 53225, Note_off_c, 0, 84, 63
1, 53268, Note_off_c, 0, 55, 59
1, 53283, Note_on_c, 0, 67, 75
1, 53285, Note_on_c, 0, 88, 85
1, 53291, Note_on_c, 0, 84, 85
1, 53349, Note_off_c, 0, 84, 54
1, 53360, Note_off_c, 0, 67, 59
1, 53372, Note_on_c, 0, 86, 86
1, 53377, Note_on_c, 0, 55, 78
1, 53389, Note_on_c, 0, 83, 70
1, 53393, Note_off_c, 0, 88, 65
1, 53398, Note_off_c, 0, 86, 69
1, 53408, Note_off_c, 0, 83, 65
1, 53446, Note_off_c, 0, 55, 62
1, 53473, Note_on_c, 0, 67, 70
1, 53536, Note_off_c, 0, 67, 59
1, 53562, Note_on_c, 0, 55, 65
1, 53630, Note_off_c, 0, 55, 59
1, 53633, Note_on_c, 0, 84, 68
1, 53645, Note_on_c, 0, 67, 67
1, 53646, Note_on_c, 0, 81, 56
1, 53717, Note_off_c, 0, 67, 59
1, 53730, Note_on_c, 0, 83, 72
1, 53732, Note_on_c, 0, 79, 66
1, 53738, Note_off_c, 0, 81, 58
1, 53741, Note_off_c, 0, 84, 64
1, 53742, Note_on_c, 0, 55, 68
1, 53755, Note_off_c, 0, 83, 67
1, 53758, Note_off_c, 0, 79, 67
1, 53798, Note_off_c, 0, 55, 59
1, 53816, Note_on_c, 0, 67, 75
1, 53894, Note_off_c, 0, 67, 54
1, 53914, Note_on_c, 0, 55, 68
1, 53975, Note_off_c, 0, 55, 58
1, 53989, Note_on_c, 0, 67, 70
1, 53994, Note_on_c, 0, 81, 69
1, 53996, Note_on_c, 0, 72, 62
1, 54026, Note_off_c, 0, 72, 64
1, 54032, Note_off_c, 0, 81, 59
1, 54062, Note_off_c, 0, 67, 57
1, 54081, Note_on_c, 0, 55, 75
1, 54081, Note_on_c, 0, 71, 64
1, 54084, Note_on_c, 0, 79, 71
1, 54099, Note_off_c, 0, 71, 65
1, 54100, Note_off_c, 0, 79, 69
1, 54160, Note_off_c, 0, 55, 54
1, 54170, Note_on_c, 0, 67, 72
1, 54189, Note_on_c, 0, 79, 62
1, 54191, Note_on_c, 0, 83, 70
1, 54203, Note_on_c, 0, 84, 61
1, 54221, Note_off_c, 0, 84, 62
1, 54237, Note_off_c, 0, 67, 61
1, 54237, Note_off_c, 0, 83, 0
1, 54263, Note_on_c, 0, 55, 77
1, 54271, Poly_aftertouch_c, 0, 83, 0
1, 54275, Note_off_c, 0, 79, 61
1, 54277, Note_on_c, 0, 81, 71
1, 54284, Note_on_c, 0, 78, 67
1, 54300, Note_off_c, 0, 81, 67
1, 54311, Note_off_c, 0, 78, 66
1, 54331, Note_off_c, 0, 55, 60
1, 54354, Note_on_c, 0, 67, 70
1, 54359, Note_on_c, 0, 84, 76
1, 54368, Note_on_c, 0, 81, 73
1, 54412, Note_off_c, 0, 81, 52
1, 54427, Note_off_c, 0, 67, 54
1, 54443, Note_on_c, 0, 55, 72
1, 54450, Note_on_c, 0, 83, 83
1, 54452, Note_on_c, 0, 79, 74
1, 54465, Note_off_c, 0, 84, 63
1, 54474, Note_off_c, 0, 83, 65
1, 54477, Note_off_c, 0, 79, 66
1, 54520, Note_off_c, 0, 55, 60
1, 54534, Note_on_c, 0, 67, 70
1, 54537, Note_on_c, 0, 86, 91
1, 54540, Note_on_c, 0, 83, 85
1, 54599, Note_off_c, 0, 83, 53
1, 54613, Note_off_c, 0, 67, 57
1, 54625, Note_on_c, 0, 55, 74
1, 54626, Note_on_c, 0, 81, 74
1, 54627, Note_on_c, 0, 84, 83
1, 54643, Note_off_c, 0, 86, 65
1, 54650, Note_off_c, 0, 84, 68
1, 54652, Note_off_c, 0, 81, 65
1, 54698, Note_off_c, 0, 55, 61
1, 54714, Note_on_c, 0, 67, 73
1, 54725, Note_on_c, 0, 88, 85
1, 54728, Note_on_c, 0, 84, 81
1, 54774, Note_off_c, 0, 84, 53
1, 54788, Note_off_c, 0, 67, 60
1, 54808, Note_on_c, 0, 55, 74
1, 54812, Note_on_c, 0, 86, 87
1, 54826, Note_off_c, 0, 88, 64
1, 54826, Note_on_c, 0, 83, 69
1, 54832, Note_off_c, 0, 86, 69
1, 54841, Note_off_c, 0, 83, 67
1, 54873, Note_off_c, 0, 55, 62
1, 54907, Note_on_c, 0, 67, 71
1, 54962, Note_off_c, 0, 67, 61
1, 54996, Note_on_c, 0, 55, 69
1, 55062, Note_off_c, 0, 55, 61
1, 55071, Note_on_c, 0, 84, 73
1, 55080, Note_on_c, 0, 67, 63
1, 55081, Note_on_c, 0, 81, 65
1, 55124, Note_off_c, 0, 81, 52
1, 55154, Note_off_c, 0, 67, 56
1, 55169, Note_on_c, 0, 83, 73
1, 55170, Note_on_c, 0, 55, 73
1, 55175, Note_off_c, 0, 84, 64
1, 55176, Note_on_c, 0, 79, 61
1, 55193, Note_off_c, 0, 83, 64
1, 55194, Note_off_c, 0, 79, 65
1, 55227, Note_off_c, 0, 55, 60
1, 55259, Note_on_c, 0, 67, 69
1, 55332, Note_off_c, 0, 67, 58
1, 55338, Note_on_c, 0, 55, 71
1, 55405, Note_off_c, 0, 55, 58
1, 55431, Note_on_c, 0, 67, 63
1, 55436, Note_on_c, 0, 81, 65
1, 55440, Note_on_c, 0, 72, 65
1, 55473, Note_off_c, 0, 72, 61
1, 55503, Note_off_c, 0, 67, 56
1, 55524, Note_on_c, 0, 55, 64
1, 55528, Note_off_c, 0, 81, 61
1, 55530, Note_on_c, 0, 79, 75
1, 55559, Note_on_c, 0, 71, 59
1, 55600, Note_off_c, 0, 55, 60
1, 55623, Note_on_c, 0, 67, 61
1, 55712, Note_off_c, 0, 67, 58
1, 55726, Note_on_c, 0, 55, 67
1, 55792, Note_off_c, 0, 55, 61
1, 55816, Note_on_c, 0, 67, 71
1, 55879, Control_c, 0, 64, 13
1, 55887, Note_off_c, 0, 67, 60
1, 55894, Control_c, 0, 64, 56
1, 55908, Note_on_c, 0, 55, 72
1, 55908, Control_c, 0, 64, 63
1, 55923, Control_c, 0, 64, 64
1, 55949, Note_off_c, 0, 71, 58
1, 55953, Control_c, 0, 64, 64
1, 55971, Note_off_c, 0, 55, 62
1, 55997, Note_on_c, 0, 67, 67
1, 56069, Note_off_c, 0, 67, 60
1, 56078, Note_on_c, 0, 55, 73
1, 56131, Control_c, 0, 64, 64
1, 56159, Note_off_c, 0, 55, 58
1, 56173, Note_on_c, 0, 67, 68
1, 56257, Note_off_c, 0, 67, 61
1, 56264, Control_c, 0, 64, 34
1, 56274, Note_on_c, 0, 55, 66
1, 56279, Note_on_c, 0, 80, 89
1, 56279, Control_c, 0, 64, 0
1, 56297, Note_on_c, 0, 71, 50
1, 56344, Note_off_c, 0, 55, 61
1, 56385, Note_on_c, 0, 65, 60
1, 56391, Note_off_c, 0, 79, 59
1, 56430, Note_off_c, 0, 71, 39
1, 56469, Note_off_c, 0, 65, 62
1, 56476, Note_on_c, 0, 55, 58
1, 56546, Note_off_c, 0, 55, 62
1, 56579, Note_on_c, 0, 65, 60
1, 56585, Control_c, 0, 64, 34
1, 56600, Control_c, 0, 64, 54
1, 56614, Control_c, 0, 64, 59
1, 56625, Note_off_c, 0, 65, 60
1, 56629, Control_c, 0, 64, 63
1, 56644, Control_c, 0, 64, 64
1, 56664, Note_on_c, 0, 55, 63
1, 56674, Control_c, 0, 64, 64
1, 56708, Note_off_c, 0, 55, 63
1, 56751, Note_on_c, 0, 65, 58
1, 56805, Note_off_c, 0, 65, 56
1, 56852, Note_on_c, 0, 55, 57
1, 56895, Control_c, 0, 64, 64
1, 56898, Note_off_c, 0, 55, 60
1, 56910, Control_c, 0, 64, 44
1, 56924, Note_on_c, 0, 65, 60
1, 56925, Control_c, 0, 64, 0
1, 56978, Note_off_c, 0, 65, 59
1, 57008, Note_on_c, 0, 72, 62
1, 57013, Note_on_c, 0, 55, 60
1, 57084, Note_off_c, 0, 55, 45
1, 57115, Note_on_c, 0, 63, 60
1, 57163, Note_off_c, 0, 63, 60
1, 57207, Note_on_c, 0, 55, 60
1, 57244, Control_c, 0, 64, 41
1, 57259, Control_c, 0, 64, 54
1, 57274, Control_c, 0, 64, 58
1, 57280, Note_off_c, 0, 55, 58
1, 57288, Control_c, 0, 64, 61
1, 57302, Note_on_c, 0, 63, 60
1, 57303, Control_c, 0, 64, 62
1, 57318, Control_c, 0, 64, 63
1, 57333, Control_c, 0, 64, 63
1, 57348, Control_c, 0, 64, 64
1, 57368, Note_off_c, 0, 63, 56
1, 57377, Control_c, 0, 64, 64
1, 57378, Note_on_c, 0, 79, 75
1, 57391, Note_on_c, 0, 55, 73
1, 57395, Note_off_c, 0, 72, 61
1, 57415, Note_off_c, 0, 80, 60
1, 57422, Control_c, 0, 64, 65
1, 57446, Note_off_c, 0, 55, 53
1, 57466, Control_c, 0, 64, 65
1, 57478, Note_on_c, 0, 63, 71
1, 57510, Control_c, 0, 64, 65
1, 57527, Note_off_c, 0, 63, 53
1, 57546, Note_on_c, 0, 55, 68
1, 57584, Control_c, 0, 64, 65
1, 57614, Control_c, 0, 64, 65
1, 57617, Note_off_c, 0, 55, 60
1, 57628, Control_c, 0, 64, 65
1, 57631, Note_on_c, 0, 63, 69
1, 57673, Control_c, 0, 64, 65
1, 57688, Control_c, 0, 64, 41
1, 57703, Control_c, 0, 64, 0
1, 57723, Note_off_c, 0, 63, 62
1, 57725, Note_on_c, 0, 57, 63
1, 57741, Note_on_c, 0, 78, 90
1, 57747, Note_on_c, 0, 72, 73
1, 57768, Note_off_c, 0, 79, 62
1, 57786, Note_off_c, 0, 72, 52
1, 57801, Note_off_c, 0, 57, 63
1, 57824, Note_on_c, 0, 63, 73
1, 57904, Poly_aftertouch_c, 0, 72, 127
1, 57908, Note_off_c, 0, 63, 54
1, 57920, Note_on_c, 0, 57, 66
1, 57955, Poly_aftertouch_c, 0, 72, 0
1, 57981, Note_off_c, 0, 57, 61
1, 58028, Note_on_c, 0, 63, 61
1, 58095, Note_off_c, 0, 63, 55
1, 58103, Note_on_c, 0, 57, 64
1, 58153, Note_off_c, 0, 57, 62
1, 58171, Control_c, 0, 64, 34
1, 58185, Control_c, 0, 64, 38
1, 58199, Note_on_c, 0, 63, 67
1, 58260, Note_off_c, 0, 63, 45
1, 58274, Control_c, 0, 64, 41
1, 58280, Note_on_c, 0, 57, 53
1, 58303, Control_c, 0, 64, 44
1, 58318, Control_c, 0, 64, 46
1, 58326, Note_off_c, 0, 57, 61
1, 58333, Control_c, 0, 64, 50
1, 58348, Control_c, 0, 64, 56
1, 58363, Note_on_c, 0, 63, 64
1, 58363, Control_c, 0, 64, 61
1, 58377, Control_c, 0, 64, 62
1, 58392, Control_c, 0, 64, 44
1, 58407, Control_c, 0, 64, 0
1, 58415, Note_off_c, 0, 63, 54
1, 58430, Note_off_c, 0, 78, 60
1, 58456, Note_on_c, 0, 77, 65
1, 58460, Note_on_c, 0, 59, 50
1, 58463, Note_on_c, 0, 67, 51
1, 58517, Note_off_c, 0, 59, 57
1, 58561, Note_on_c, 0, 62, 55
1, 58606, Note_off_c, 0, 62, 62
1, 58644, Note_on_c, 0, 59, 54
1, 58679, Note_off_c, 0, 59, 62
1, 58710, Note_on_c, 0, 62, 61
1, 58753, Note_off_c, 0, 62, 58
1, 58816, Note_off_c, 0, 67, 53
1, 58820, Note_on_c, 0, 59, 59
1, 58831, Note_on_c, 0, 74, 69
1, 58903, Note_off_c, 0, 59, 58
1, 58926, Note_on_c, 0, 67, 58
1, 58931, Note_off_c, 0, 77, 55
1, 58980, Note_off_c, 0, 67, 53
1, 58998, Note_on_c, 0, 59, 63
1, 59054, Note_off_c, 0, 59, 54
1, 59086, Note_on_c, 0, 67, 66
1, 59097, Control_c, 0, 64, 13
1, 59112, Control_c, 0, 64, 30
1, 59126, Control_c, 0, 64, 0
1, 59187, Note_off_c, 0, 67, 61
1, 59194, Note_on_c, 0, 60, 71
1, 59205, Note_on_c, 0, 76, 75
1, 59259, Note_off_c, 0, 60, 59
1, 59261, Note_off_c, 0, 74, 51
1, 59293, Note_on_c, 0, 67, 68
1, 59351, Note_off_c, 0, 67, 53
1, 59381, Note_on_c, 0, 60, 65
1, 59449, Note_off_c, 0, 60, 58
1, 59473, Note_on_c, 0, 67, 66
1, 59531, Note_off_c, 0, 67, 55
1, 59564, Note_on_c, 0, 60, 72
1, 59571, Note_on_c, 0, 71, 77
1, 59635, Note_off_c, 0, 60, 57
1, 59667, Note_on_c, 0, 68, 75
1, 59724, Note_off_c, 0, 68, 58
1, 59752, Note_on_c, 0, 60, 66
1, 59808, Note_off_c, 0, 60, 57
1, 59832, Note_on_c, 0, 68, 72
1, 59902, Note_off_c, 0, 68, 57
1, 59932, Note_on_c, 0, 60, 62
1, 59939, Note_on_c, 0, 72, 77
1, 59959, Note_off_c, 0, 71, 61
1, 59995, Note_off_c, 0, 60, 57
1, 60022, Note_on_c, 0, 69, 66
1, 60109, Note_off_c, 0, 69, 59
1, 60115, Note_on_c, 0, 60, 63
1, 60190, Note_off_c, 0, 60, 60
1, 60222, Note_on_c, 0, 69, 70
1, 60222, Note_off_c, 0, 76, 43
1, 60308, Note_off_c, 0, 69, 56
1, 60319, Note_on_c, 0, 60, 70
1, 60379, Note_off_c, 0, 60, 61
1, 60412, Note_on_c, 0, 69, 74
1, 60499, Note_on_c, 0, 60, 76
1, 60502, Note_off_c, 0, 69, 60
1, 60567, Note_off_c, 0, 60, 54
1, 60586, Note_on_c, 0, 69, 75
1, 60621, Note_off_c, 0, 69, 60
1, 60666, Note_on_c, 0, 61, 73
1, 60666, Note_on_c, 0, 76, 86
1, 60667, Note_on_c, 0, 70, 82
1, 60681, Note_off_c, 0, 72, 61
1, 60745, Note_off_c, 0, 61, 60
1, 60760, Note_on_c, 0, 67, 71
1, 60838, Note_off_c, 0, 67, 57
1, 60875, Note_on_c, 0, 61, 59
1, 60916, Note_off_c, 0, 61, 62
1, 60949, Note_on_c, 0, 67, 68
1, 61018, Note_off_c, 0, 67, 56
1, 61047, Note_on_c, 0, 61, 59
1, 61088, Note_off_c, 0, 61, 61
1, 61125, Note_on_c, 0, 67, 70
1, 61191, Note_off_c, 0, 67, 52
1, 61218, Note_on_c, 0, 61, 60
1, 61271, Note_off_c, 0, 61, 57
1, 61274, Note_off_c, 0, 76, 48
1, 61302, Note_on_c, 0, 67, 63
1, 61354, Note_off_c, 0, 67, 54
1, 61399, Note_on_c, 0, 62, 60
1, 61412, Note_on_c, 0, 74, 59
1, 61450, Note_off_c, 0, 62, 58
1, 61484, Note_on_c, 0, 67, 56
1, 61509, Note_off_c, 0, 70, 37
1, 61538, Note_off_c, 0, 67, 55
1, 61572, Note_on_c, 0, 62, 53
1, 61631, Note_off_c, 0, 62, 59
1, 61681, Note_on_c, 0, 67, 42
1, 61736, Note_off_c, 0, 67, 55
1, 61770, Note_on_c, 0, 62, 48
1, 61782, Note_on_c, 0, 69, 55
1, 61822, Note_off_c, 0, 62, 59
1, 61856, Note_on_c, 0, 67, 50
1, 61912, Note_off_c, 0, 67, 54
1, 61949, Note_on_c, 0, 62, 49
1, 62019, Note_off_c, 0, 62, 59
1, 62043, Note_on_c, 0, 67, 46
1, 62100, Note_off_c, 0, 67, 58
1, 62100, Note_off_c, 0, 69, 50
1, 62146, Note_on_c, 0, 71, 61
1, 62150, Note_on_c, 0, 62, 45
1, 62197, Note_off_c, 0, 62, 61
1, 62249, Note_on_c, 0, 66, 48
1, 62277, Note_off_c, 0, 66, 55
1, 62324, Note_on_c, 0, 62, 38
1, 62398, Note_off_c, 0, 62, 58
1, 62444, Note_on_c, 0, 66, 32
1, 62503, Note_off_c, 0, 66, 61
1, 62530, Note_on_c, 0, 62, 51
1, 62531, Note_off_c, 0, 71, 43
1, 62535, Note_on_c, 0, 72, 61
1, 62576, Note_off_c, 0, 62, 63
1, 62613, Note_on_c, 0, 66, 58
1, 62653, Note_off_c, 0, 66, 56
1, 62678, Note_off_c, 0, 72, 0
1, 62678, Note_on_c, 0, 72, 4
1, 62696, Note_on_c, 0, 62, 46
1, 62770, Note_off_c, 0, 62, 62
1, 62807, Note_off_c, 0, 74, 12
1, 62811, Note_on_c, 0, 66, 44
1, 62849, Note_off_c, 0, 66, 46
1, 62869, Note_on_c, 0, 71, 66
1, 62890, Note_on_c, 0, 67, 52
1, 62890, Note_off_c, 0, 72, 55
1, 62895, Note_off_c, 0, 71, 66
1, 62911, Note_off_c, 0, 67, 56
1, 63067, Note_on_c, 0, 74, 76
1, 63070, Note_on_c, 0, 79, 83
1, 63073, Note_on_c, 0, 59, 78
1, 63074, Note_on_c, 0, 62, 83
1, 63074, Note_on_c, 0, 83, 92
1, 63077, Note_on_c, 0, 55, 77
1, 63089, Note_off_c, 0, 79, 70
1, 63090, Note_off_c, 0, 74, 68
1, 63095, Note_off_c, 0, 59, 66
1, 63098, Note_off_c, 0, 62, 67
1, 63112, Note_off_c, 0, 83, 64
1, 63113, Note_off_c, 0, 55, 64
1, 63268, Note_on_c, 0, 81, 83
1, 63270, Note_on_c, 0, 62, 89
1, 63271, Note_on_c, 0, 74, 80
1, 63276, Note_on_c, 0, 57, 74
1, 63277, Note_on_c, 0, 84, 88
1, 63277, Note_on_c, 0, 54, 80
1, 63293, Note_off_c, 0, 74, 68
1, 63298, Note_off_c, 0, 57, 67
1, 63308, Note_off_c, 0, 81, 63
1, 63311, Note_off_c, 0, 62, 63
1, 63316, Note_off_c, 0, 54, 57
1, 63319, Note_off_c, 0, 84, 65
1, 63456, Note_on_c, 0, 79, 85
1, 63457, Note_on_c, 0, 62, 80
1, 63457, Note_on_c, 0, 83, 89
1, 63461, Note_on_c, 0, 74, 74
1, 63462, Note_on_c, 0, 55, 72
1, 63463, Note_on_c, 0, 59, 70
1, 63480, Note_off_c, 0, 79, 68
1, 63481, Note_off_c, 0, 59, 64
1, 63482, Note_off_c, 0, 62, 67
1, 63485, Note_off_c, 0, 74, 68
1, 63494, Note_off_c, 0, 55, 63
1, 63496, Note_off_c, 0, 83, 65
1, 63617, Note_on_c, 0, 84, 21
1, 63650, Control_c, 0, 64, 13
1, 63665, Control_c, 0, 64, 68
1, 63674, Note_on_c, 0, 76, 76
1, 63676, Note_off_c, 0, 84, 0
1, 63676, Note_on_c, 0, 84, 63
1, 63679, Control_c, 0, 64, 73
1, 63680, Note_on_c, 0, 48, 83
1, 63680, Note_on_c, 0, 60, 75
1, 63682, Note_on_c, 0, 88, 91
1, 63694, Control_c, 0, 64, 78
1, 63700, Note_off_c, 0, 76, 65
1, 63706, Note_off_c, 0, 60, 63
1, 63706, Note_off_c, 0, 48, 65
1, 63709, Control_c, 0, 64, 81
1, 63718, Note_off_c, 0, 84, 65
1, 63719, Note_off_c, 0, 88, 67
1, 63724, Control_c, 0, 64, 82
1, 63739, Control_c, 0, 64, 82
1, 63754, Control_c, 0, 64, 82
1, 63784, Control_c, 0, 64, 81
1, 63798, Control_c, 0, 64, 81
1, 63813, Control_c, 0, 64, 80
1, 63828, Control_c, 0, 64, 79
1, 63842, Control_c, 0, 64, 78
1, 63857, Control_c, 0, 64, 77
1, 63879, Control_c, 0, 64, 76
1, 63894, Control_c, 0, 64, 74
1, 63909, Control_c, 0, 64, 72
1, 63924, Control_c, 0, 64, 69
1, 63939, Control_c, 0, 64, 67
1, 63954, Control_c, 0, 64, 66
1, 63969, Control_c, 0, 64, 66
1, 63984, Control_c, 0, 64, 65
1, 63998, Control_c, 0, 64, 64
1, 64013, Control_c, 0, 64, 51
1, 64026, Control_c, 0, 64, 0
1, 64080, Note_on_c, 0, 69, 62
1, 64091, Note_on_c, 0, 66, 61
1, 64153, Note_off_c, 0, 69, 0
1, 64172, Note_off_c, 0, 66, 0
1, 64190, Poly_aftertouch_c, 0, 69, 127
1, 64192, Note_on_c, 0, 69, 18
1, 64210, Poly_aftertouch_c, 0, 66, 127
1, 64232, Note_off_c, 0, 69, 59
1, 64253, Note_on_c, 0, 71, 55
1, 64264, Poly_aftertouch_c, 0, 66, 0
1, 64295, Note_on_c, 0, 62, 53
1, 64303, Note_on_c, 0, 72, 68
1, 64305, Note_off_c, 0, 71, 54
1, 64428, Note_off_c, 0, 72, 59
1, 64439, Note_on_c, 0, 74, 63
1, 64463, Note_off_c, 0, 62, 62
1, 64480, Note_on_c, 0, 67, 72
1, 64487, Note_on_c, 0, 71, 73
1, 64496, Note_off_c, 0, 74, 63
1, 64504, Note_off_c, 0, 67, 67
1, 64512, Note_off_c, 0, 71, 65
1, 64676, Note_on_c, 0, 62, 83
1, 64678, Note_on_c, 0, 74, 72
1, 64681, Note_on_c, 0, 79, 82
1, 64681, Note_on_c, 0, 55, 75
1, 64687, Note_on_c, 0, 83, 85
1, 64688, Note_on_c, 0, 59, 68
1, 64702, Note_off_c, 0, 74, 67
1, 64704, Note_off_c, 0, 62, 64
1, 64705, Note_off_c, 0, 79, 66
1, 64706, Note_off_c, 0, 59, 64
1, 64714, Note_off_c, 0, 55, 65
1, 64727, Note_off_c, 0, 83, 62
1, 64873, Note_on_c, 0, 81, 82
1, 64877, Note_on_c, 0, 62, 85
1, 64878, Note_on_c, 0, 74, 73
1, 64880, Note_on_c, 0, 54, 76
1, 64882, Note_on_c, 0, 84, 87
1, 64884, Note_on_c, 0, 57, 67
1, 64899, Note_off_c, 0, 81, 64
1, 64902, Note_off_c, 0, 74, 67
1, 64909, Note_off_c, 0, 57, 66
1, 64917, Note_off_c, 0, 62, 58
1, 64922, Note_off_c, 0, 54, 57
1, 64923, Note_off_c, 0, 84, 65
1, 65056, Note_on_c, 0, 79, 80
1, 65057, Note_on_c, 0, 74, 65
1, 65057, Note_on_c, 0, 62, 71
1, 65060, Note_on_c, 0, 83, 83
1, 65063, Note_on_c, 0, 55, 72
1, 65072, Note_on_c, 0, 59, 45
1, 65080, Note_off_c, 0, 79, 67
1, 65081, Note_off_c, 0, 74, 66
1, 65086, Note_off_c, 0, 62, 65
1, 65089, Note_off_c, 0, 55, 64
1, 65100, Note_off_c, 0, 59, 35
1, 65100, Note_off_c, 0, 83, 62
1, 65206, Control_c, 0, 64, 38
1, 65220, Control_c, 0, 64, 65
1, 65235, Control_c, 0, 64, 67
1, 65250, Control_c, 0, 64, 70
1, 65265, Control_c, 0, 64, 73
1, 65271, Note_on_c, 0, 60, 79
1, 65273, Note_on_c, 0, 48, 82
1, 65278, Note_on_c, 0, 76, 79
1, 65280, Note_on_c, 0, 84, 87
1, 65280, Control_c, 0, 64, 78
1, 65283, Note_on_c, 0, 88, 89
1, 65294, Note_off_c, 0, 60, 64
1, 65294, Control_c, 0, 64, 82
1, 65300, Note_off_c, 0, 76, 67
1, 65300, Note_off_c, 0, 48, 67
1, 65309, Control_c, 0, 64, 83
1, 65313, Note_off_c, 0, 84, 64
1, 65319, Note_off_c, 0, 88, 66
1, 65390, Control_c, 0, 64, 83
1, 65405, Control_c, 0, 64, 82
1, 65420, Control_c, 0, 64, 80
1, 65435, Control_c, 0, 64, 79
1, 65450, Control_c, 0, 64, 78
1, 65480, Control_c, 0, 64, 78
1, 65509, Control_c, 0, 64, 77
1, 65524, Control_c, 0, 64, 76
1, 65539, Control_c, 0, 64, 73
1, 65554, Control_c, 0, 64, 71
1, 65568, Control_c, 0, 64, 68
1, 65583, Control_c, 0, 64, 66
1, 65598, Control_c, 0, 64, 63
1, 65613, Control_c, 0, 64, 0
1, 65687, Note_on_c, 0, 66, 50
1, 65710, Note_off_c, 0, 66, 61
1, 65740, Note_on_c, 0, 69, 58
1, 65775, Note_off_c, 0, 69, 61
1, 65800, Note_on_c, 0, 72, 65
1, 65842, Note_off_c, 0, 72, 62
1, 65847, Note_on_c, 0, 50, 53
1, 65856, Note_on_c, 0, 57, 38
1, 65858, Note_on_c, 0, 76, 66
1, 65887, Note_off_c, 0, 57, 47
1, 65900, Note_off_c, 0, 76, 51
1, 65903, Note_off_c, 0, 50, 58
1, 65906, Note_on_c, 0, 74, 64
1, 65956, Note_off_c, 0, 74, 59
1, 65963, Note_on_c, 0, 72, 61
1, 66013, Note_off_c, 0, 72, 58
1, 66014, Control_c, 0, 64, 64
1, 66022, Note_on_c, 0, 71, 75
1, 66024, Note_on_c, 0, 55, 69
1, 66028, Control_c, 0, 64, 69
1, 66040, Note_off_c, 0, 71, 68
1, 66043, Control_c, 0, 64, 72
1, 66052, Note_off_c, 0, 55, 64
1, 66058, Control_c, 0, 64, 73
1, 66124, Control_c, 0, 64, 72
1, 66139, Control_c, 0, 64, 71
1, 66154, Control_c, 0, 64, 69
1, 66169, Control_c, 0, 64, 67
1, 66184, Control_c, 0, 64, 66
1, 66198, Control_c, 0, 64, 65
1, 66213, Control_c, 0, 64, 62
1, 66228, Control_c, 0, 64, 0
1, 66231, Note_on_c, 0, 55, 46
1, 66239, Note_on_c, 0, 74, 61
1, 66271, Note_off_c, 0, 55, 63
1, 66274, Note_off_c, 0, 74, 60
1, 66279, Note_on_c, 0, 59, 40
1, 66281, Note_on_c, 0, 79, 62
1, 66307, Note_off_c, 0, 59, 49
1, 66316, Note_off_c, 0, 79, 54
1, 66332, Note_on_c, 0, 62, 62
1, 66339, Note_on_c, 0, 83, 72
1, 66367, Note_off_c, 0, 62, 63
1, 66371, Note_off_c, 0, 83, 59
1, 66397, Note_on_c, 0, 54, 63
1, 66402, Note_on_c, 0, 74, 63
1, 66440, Note_off_c, 0, 74, 61
1, 66448, Note_off_c, 0, 54, 58
1, 66461, Note_on_c, 0, 57, 55
1, 66473, Note_on_c, 0, 81, 60
1, 66493, Note_off_c, 0, 57, 65
1, 66498, Note_on_c, 0, 62, 63
1, 66520, Note_off_c, 0, 81, 60
1, 66537, Note_on_c, 0, 84, 46
1, 66562, Note_off_c, 0, 84, 55
1, 66581, Note_on_c, 0, 55, 50
1, 66582, Note_on_c, 0, 74, 58
1, 66584, Note_off_c, 0, 62, 58
1, 66622, Note_on_c, 0, 59, 55
1, 66625, Note_off_c, 0, 74, 63
1, 66632, Note_on_c, 0, 79, 65
1, 66632, Note_off_c, 0, 55, 62
1, 66643, Note_off_c, 0, 59, 59
1, 66665, Note_off_c, 0, 79, 57
1, 66687, Note_on_c, 0, 62, 61
1, 66690, Note_on_c, 0, 83, 63
1, 66720, Note_off_c, 0, 62, 65
1, 66727, Note_off_c, 0, 83, 62
1, 66753, Note_on_c, 0, 48, 79
1, 66758, Note_on_c, 0, 76, 75
1, 66780, Note_off_c, 0, 48, 66
1, 66794, Note_off_c, 0, 76, 62
1, 66819, Note_on_c, 0, 88, 81
1, 66894, Note_off_c, 0, 88, 60
1, 66896, Note_on_c, 0, 86, 67
1, 66957, Note_on_c, 0, 84, 73
1, 66972, Note_off_c, 0, 86, 53
1, 67006, Note_on_c, 0, 83, 63
1, 67010, Note_off_c, 0, 84, 0
1, 67033, Poly_aftertouch_c, 0, 84, 0
1, 67043, Note_off_c, 0, 83, 53
1, 67078, Note_on_c, 0, 81, 68
1, 67116, Note_off_c, 0, 81, 56
1, 67131, Note_on_c, 0, 60, 63
1, 67131, Note_on_c, 0, 64, 66
1, 67142, Note_on_c, 0, 80, 72
1, 67150, Note_off_c, 0, 60, 61
1, 67150, Note_off_c, 0, 64, 67
1, 67164, Note_off_c, 0, 80, 69
1, 67204, Note_on_c, 0, 81, 75
1, 67227, Note_off_c, 0, 81, 67
1, 67265, Note_on_c, 0, 88, 74
1, 67331, Note_on_c, 0, 86, 67
1, 67360, Note_off_c, 0, 88, 61
1, 67388, Note_on_c, 0, 84, 60
1, 67399, Note_off_c, 0, 86, 57
1, 67435, Note_on_c, 0, 83, 65
1, 67450, Note_off_c, 0, 84, 62
1, 67476, Note_off_c, 0, 83, 58
1, 67501, Note_on_c, 0, 60, 70
1, 67506, Note_on_c, 0, 64, 69
1, 67507, Note_on_c, 0, 81, 74
1, 67528, Note_off_c, 0, 60, 63
1, 67533, Note_off_c, 0, 64, 66
1, 67546, Note_off_c, 0, 81, 60
1, 67581, Note_on_c, 0, 80, 74
1, 67607, Note_off_c, 0, 80, 68
1, 67653, Note_on_c, 0, 88, 76
1, 67722, Note_on_c, 0, 86, 70
1, 67748, Note_off_c, 0, 88, 61
1, 67773, Note_on_c, 0, 84, 65
1, 67794, Note_off_c, 0, 86, 55
1, 67829, Note_on_c, 0, 83, 71
1, 67854, Note_off_c, 0, 84, 62
1, 67885, Note_off_c, 0, 83, 61
1, 67886, Note_on_c, 0, 60, 71
1, 67886, Note_on_c, 0, 64, 69
1, 67901, Note_on_c, 0, 81, 75
1, 67909, Note_off_c, 0, 64, 68
1, 67911, Note_off_c, 0, 60, 63
1, 67936, Note_off_c, 0, 81, 61
1, 67974, Note_on_c, 0, 80, 80
1, 68003, Note_off_c, 0, 80, 60
1, 68038, Note_on_c, 0, 88, 78
1, 68104, Note_on_c, 0, 86, 77
1, 68145, Note_off_c, 0, 88, 60
1, 68164, Note_on_c, 0, 84, 72
1, 68191, Note_off_c, 0, 86, 58
1, 68217, Note_on_c, 0, 83, 75
1, 68240, Note_off_c, 0, 84, 62
1, 68274, Note_on_c, 0, 64, 74
1, 68276, Note_on_c, 0, 60, 74
1, 68290, Note_off_c, 0, 83, 59
1, 68293, Note_on_c, 0, 81, 75
1, 68298, Note_off_c, 0, 60, 65
1, 68300, Note_off_c, 0, 64, 69
1, 68330, Note_off_c, 0, 81, 58
1, 68370, Note_on_c, 0, 80, 82
1, 68401, Note_off_c, 0, 80, 64
1, 68424, Note_on_c, 0, 88, 81
1, 68488, Note_on_c, 0, 86, 79
1, 68539, Note_off_c, 0, 88, 59
1, 68550, Note_on_c, 0, 84, 82
1, 68586, Note_off_c, 0, 86, 62
1, 68612, Note_on_c, 0, 83, 74
1, 68633, Note_off_c, 0, 84, 62
1, 68643, Note_on_c, 0, 64, 73
1, 68648, Note_on_c, 0, 60, 76
1, 68668, Note_off_c, 0, 64, 67
1, 68674, Note_on_c, 0, 81, 81
1, 68675, Note_off_c, 0, 60, 63
1, 68679, Note_off_c, 0, 83, 64
1, 68714, Note_off_c, 0, 81, 59
1, 68727, Note_on_c, 0, 88, 88
1, 68792, Note_on_c, 0, 86, 81
1, 68851, Note_on_c, 0, 84, 79
1, 68853, Note_off_c, 0, 88, 62
1, 68905, Note_on_c, 0, 83, 72
1, 68913, Note_off_c, 0, 86, 56
1, 68929, Note_on_c, 0, 50, 47
1, 68943, Note_off_c, 0, 84, 59
1, 68947, Note_on_c, 0, 81, 80
1, 68960, Note_off_c, 0, 83, 64
1, 68968, Note_on_c, 0, 55, 53
1, 68997, Note_off_c, 0, 81, 57
1, 69004, Note_on_c, 0, 59, 92
1, 69009, Note_on_c, 0, 83, 83
1, 69063, Note_off_c, 0, 83, 64
1, 69069, Note_on_c, 0, 86, 72
1, 69074, Note_on_c, 0, 88, 69
1, 69101, Note_off_c, 0, 88, 52
1, 69134, Control_c, 0, 64, 13
1, 69137, Note_on_c, 0, 84, 81
1, 69190, Note_off_c, 0, 86, 61
1, 69195, Note_on_c, 0, 83, 82
1, 69235, Note_off_c, 0, 84, 62
1, 69239, Control_c, 0, 64, 23
1, 69254, Control_c, 0, 64, 41
1, 69266, Note_on_c, 0, 81, 68
1, 69268, Control_c, 0, 64, 60
1, 69269, Note_off_c, 0, 83, 62
1, 69283, Control_c, 0, 64, 65
1, 69298, Control_c, 0, 64, 68
1, 69313, Control_c, 0, 64, 73
1, 69318, Note_off_c, 0, 81, 62
1, 69325, Note_on_c, 0, 79, 72
1, 69328, Control_c, 0, 64, 76
1, 69342, Control_c, 0, 64, 78
1, 69357, Control_c, 0, 64, 80
1, 69372, Control_c, 0, 64, 81
1, 69381, Note_on_c, 0, 78, 82
1, 69385, Note_off_c, 0, 79, 61
1, 69387, Control_c, 0, 64, 82
1, 69401, Control_c, 0, 64, 83
1, 69416, Control_c, 0, 64, 84
1, 69419, Note_off_c, 0, 59, 61
1, 69428, Note_off_c, 0, 50, 63
1, 69451, Note_off_c, 0, 55, 51
1, 69455, Note_on_c, 0, 76, 80
1, 69464, Note_off_c, 0, 78, 59
1, 69501, Note_off_c, 0, 76, 59
1, 69517, Note_on_c, 0, 74, 83
1, 69562, Note_off_c, 0, 74, 63
1, 69591, Note_on_c, 0, 86, 88
1, 69623, Control_c, 0, 64, 84
1, 69642, Note_on_c, 0, 83, 73
1, 69646, Note_off_c, 0, 86, 64
1, 69668, Control_c, 0, 64, 85
1, 69683, Control_c, 0, 64, 84
1, 69696, Note_off_c, 0, 83, 64
1, 69698, Control_c, 0, 64, 78
1, 69698, Note_on_c, 0, 79, 84
1, 69712, Control_c, 0, 64, 67
1, 69727, Control_c, 0, 64, 0
1, 69743, Note_on_c, 0, 50, 79
1, 69752, Note_on_c, 0, 83, 98
1, 69766, Note_off_c, 0, 79, 63
1, 69783, Note_on_c, 0, 84, 47
1, 69786, Control_c, 0, 64, 66
1, 69801, Control_c, 0, 64, 73
1, 69807, Note_off_c, 0, 84, 56
1, 69816, Control_c, 0, 64, 78
1, 69831, Control_c, 0, 64, 83
1, 69846, Control_c, 0, 64, 87
1, 69868, Note_off_c, 0, 50, 63
1, 69868, Control_c, 0, 64, 89
1, 69883, Control_c, 0, 64, 91
1, 69884, Note_off_c, 0, 83, 61
1, 69886, Note_on_c, 0, 54, 57
1, 69898, Control_c, 0, 64, 93
1, 69912, Control_c, 0, 64, 95
1, 69927, Control_c, 0, 64, 96
1, 69933, Note_on_c, 0, 81, 69
1, 69943, Note_on_c, 0, 57, 59
1, 69954, Note_off_c, 0, 81, 64
1, 69963, Note_off_c, 0, 54, 61
1, 69967, Note_off_c, 0, 57, 64
1, 69976, Note_on_c, 0, 83, 66
1, 69992, Note_off_c, 0, 83, 66
1, 70003, Note_on_c, 0, 62, 64
1, 70017, Control_c, 0, 64, 98
1, 70018, Note_on_c, 0, 81, 77
1, 70021, Note_off_c, 0, 62, 65
1, 70054, Note_off_c, 0, 81, 57
1, 70068, Note_on_c, 0, 83, 69
1, 70090, Note_on_c, 0, 67, 69
1, 70091, Control_c, 0, 64, 100
1, 70106, Control_c, 0, 64, 102
1, 70113, Note_off_c, 0, 83, 55
1, 70118, Note_off_c, 0, 67, 65
1, 70121, Note_on_c, 0, 69, 61
1, 70121, Control_c, 0, 64, 105
1, 70130, Note_on_c, 0, 81, 79
1, 70135, Control_c, 0, 64, 108
1, 70142, Note_off_c, 0, 69, 63
1, 70143, Note_on_c, 0, 72, 89
1, 70147, Note_on_c, 0, 71, 19
1, 70162, Note_off_c, 0, 81, 58
1, 70163, Note_off_c, 0, 72, 69
1, 70178, Note_on_c, 0, 83, 69
1, 70180, Control_c, 0, 64, 110
1, 70187, Note_off_c, 0, 71, 53
1, 70195, Control_c, 0, 64, 112
1, 70205, Note_off_c, 0, 83, 51
1, 70209, Control_c, 0, 64, 115
1, 70224, Control_c, 0, 64, 119
1, 70234, Note_on_c, 0, 81, 65
1, 70239, Control_c, 0, 64, 127
1, 70254, Note_off_c, 0, 81, 58
1, 70268, Note_on_c, 0, 83, 79
1, 70330, Note_on_c, 0, 81, 68
1, 70366, Note_off_c, 0, 83, 37
1, 70387, Control_c, 0, 64, 124
1, 70391, Note_off_c, 0, 81, 60
1, 70412, Note_on_c, 0, 79, 70
1, 70416, Control_c, 0, 64, 122
1, 70431, Control_c, 0, 64, 117
1, 70438, Note_off_c, 0, 79, 65
1, 70446, Control_c, 0, 64, 105
1, 70458, Note_on_c, 0, 81, 66
1, 70461, Control_c, 0, 64, 88
1, 70476, Control_c, 0, 64, 71
1, 70491, Control_c, 0, 64, 0
1, 70503, Note_on_c, 0, 79, 87
1, 70507, Note_off_c, 0, 81, 64
1, 70509, Note_on_c, 0, 59, 69
1, 70513, Note_on_c, 0, 55, 66
1, 70521, Note_off_c, 0, 79, 72
1, 70555, Note_off_c, 0, 59, 55
1, 70581, Note_off_c, 0, 55, 56
1, 70592, Note_on_c, 0, 62, 71
1, 70668, Note_off_c, 0, 62, 61
1, 70689, Note_on_c, 0, 59, 52
1, 70702, Note_on_c, 0, 83, 92
1, 70714, Note_on_c, 0, 55, 55
1, 70719, Note_off_c, 0, 83, 72
1, 70756, Note_off_c, 0, 55, 63
1, 70759, Note_off_c, 0, 59, 61
1, 70788, Note_on_c, 0, 62, 71
1, 70892, Note_off_c, 0, 62, 60
1, 70904, Note_on_c, 0, 59, 68
1, 70914, Note_on_c, 0, 55, 72
1, 70941, Note_off_c, 0, 59, 64
1, 70947, Note_off_c, 0, 55, 63
1, 70998, Note_on_c, 0, 62, 71
1, 71069, Note_off_c, 0, 62, 59
1, 71080, Note_on_c, 0, 79, 82
1, 71081, Note_on_c, 0, 59, 61
1, 71099, Note_off_c, 0, 79, 70
1, 71101, Note_on_c, 0, 55, 57
1, 71122, Note_off_c, 0, 59, 64
1, 71134, Note_off_c, 0, 55, 63
1, 71177, Note_on_c, 0, 62, 66
1, 71251, Note_off_c, 0, 62, 62
1, 71260, Note_on_c, 0, 59, 59
1, 71275, Note_on_c, 0, 55, 54
1, 71300, Note_off_c, 0, 59, 63
1, 71308, Note_off_c, 0, 55, 62
1, 71360, Note_on_c, 0, 62, 58
1, 71413, Note_on_c, 0, 76, 64
1, 71423, Note_on_c, 0, 59, 54
1, 71423, Note_off_c, 0, 62, 61
1, 71430, Note_on_c, 0, 55, 52
1, 71434, Note_on_c, 0, 74, 77
1, 71445, Note_off_c, 0, 76, 64
1, 71456, Note_off_c, 0, 74, 69
1, 71469, Note_off_c, 0, 59, 58
1, 71475, Note_off_c, 0, 55, 64
1, 71525, Note_on_c, 0, 62, 62
1, 71591, Note_on_c, 0, 72, 71
1, 71597, Note_off_c, 0, 62, 61
1, 71600, Note_on_c, 0, 59, 58
1, 71610, Note_on_c, 0, 71, 84
1, 71612, Note_on_c, 0, 55, 62
1, 71625, Note_off_c, 0, 72, 60
1, 71632, Note_off_c, 0, 71, 68
1, 71653, Note_off_c, 0, 55, 64
1, 71659, Note_off_c, 0, 59, 57
1, 71698, Note_on_c, 0, 62, 66
1, 71772, Note_on_c, 0, 69, 64
1, 71779, Note_off_c, 0, 62, 62
1, 71781, Note_on_c, 0, 59, 62
1, 71788, Note_on_c, 0, 67, 75
1, 71794, Note_on_c, 0, 55, 62
1, 71798, Note_off_c, 0, 69, 65
1, 71803, Note_off_c, 0, 67, 68
1, 71844, Note_off_c, 0, 59, 59
1, 71850, Note_off_c, 0, 55, 53
1, 71877, Note_on_c, 0, 62, 68
1, 71985, Note_off_c, 0, 62, 62
1, 71994, Note_on_c, 0, 66, 88
1, 71998, Note_on_c, 0, 60, 57
1, 72000, Note_on_c, 0, 55, 51
1, 72079, Note_off_c, 0, 60, 53
1, 72080, Note_off_c, 0, 55, 60
1, 72117, Note_on_c, 0, 62, 61
1, 72174, Control_c, 0, 64, 56
1, 72188, Control_c, 0, 64, 65
1, 72200, Note_off_c, 0, 62, 60
1, 72203, Control_c, 0, 64, 66
1, 72210, Note_on_c, 0, 60, 55
1, 72218, Control_c, 0, 64, 66
1, 72220, Note_on_c, 0, 55, 55
1, 72248, Control_c, 0, 64, 67
1, 72255, Note_off_c, 0, 60, 60
1, 72269, Note_off_c, 0, 55, 60
1, 72315, Note_on_c, 0, 62, 65
1, 72321, Control_c, 0, 64, 66
1, 72337, Control_c, 0, 64, 66
1, 72352, Control_c, 0, 64, 65
1, 72367, Control_c, 0, 64, 64
1, 72381, Note_off_c, 0, 62, 60
1, 72382, Control_c, 0, 64, 63
1, 72389, Note_on_c, 0, 60, 51
1, 72397, Note_on_c, 0, 55, 54
1, 72397, Control_c, 0, 64, 0
1, 72438, Note_off_c, 0, 60, 56
1, 72454, Note_off_c, 0, 55, 59
1, 72484, Note_off_c, 0, 66, 63
1, 72488, Note_on_c, 0, 62, 62
1, 72497, Note_on_c, 0, 67, 60
1, 72516, Note_off_c, 0, 67, 64
1, 72564, Note_off_c, 0, 62, 59
1, 72577, Note_on_c, 0, 60, 58
1, 72577, Note_on_c, 0, 55, 55
1, 72581, Note_on_c, 0, 69, 65
1, 72599, Note_off_c, 0, 69, 65
1, 72626, Note_off_c, 0, 60, 56
1, 72640, Note_off_c, 0, 55, 57
1, 72665, Note_on_c, 0, 71, 76
1, 72676, Note_on_c, 0, 62, 65
1, 72688, Note_off_c, 0, 71, 68
1, 72755, Note_on_c, 0, 60, 63
1, 72755, Note_off_c, 0, 62, 62
1, 72762, Note_on_c, 0, 55, 62
1, 72762, Note_on_c, 0, 72, 75
1, 72785, Note_off_c, 0, 72, 67
1, 72810, Note_off_c, 0, 55, 59
1, 72812, Note_off_c, 0, 60, 56
1, 72857, Note_on_c, 0, 62, 68
1, 72858, Note_on_c, 0, 74, 76
1, 72883, Note_off_c, 0, 74, 67
1, 72933, Note_on_c, 0, 60, 65
1, 72933, Note_off_c, 0, 62, 62
1, 72944, Note_on_c, 0, 55, 58
1, 72944, Note_on_c, 0, 76, 79
1, 72967, Note_off_c, 0, 76, 67
1, 72978, Note_off_c, 0, 60, 59
1, 72986, Note_off_c, 0, 55, 65
1, 73028, Note_on_c, 0, 62, 71
1, 73030, Note_on_c, 0, 78, 80
1, 73051, Note_off_c, 0, 78, 68
1, 73108, Note_on_c, 0, 60, 57
1, 73108, Note_off_c, 0, 62, 63
1, 73115, Note_on_c, 0, 79, 84
1, 73121, Note_on_c, 0, 55, 59
1, 73141, Note_off_c, 0, 79, 66
1, 73156, Note_off_c, 0, 60, 60
1, 73168, Note_off_c, 0, 55, 60
1, 73197, Note_on_c, 0, 81, 88
1, 73200, Note_on_c, 0, 62, 69
1, 73223, Note_off_c, 0, 81, 64
1, 73272, Note_on_c, 0, 60, 64
1, 73278, Note_off_c, 0, 62, 62
1, 73282, Note_on_c, 0, 83, 93
1, 73292, Note_on_c, 0, 55, 60
1, 73314, Note_off_c, 0, 83, 62
1, 73335, Note_off_c, 0, 55, 62
1, 73337, Note_off_c, 0, 60, 60
1, 73358, Note_on_c, 0, 62, 71
1, 73368, Note_on_c, 0, 84, 82
1, 73408, Note_off_c, 0, 84, 64
1, 73462, Note_off_c, 0, 62, 61
1, 73468, Note_on_c, 0, 86, 93
1, 73471, Note_on_c, 0, 59, 77
1, 73472, Note_on_c, 0, 55, 79
1, 73490, Note_off_c, 0, 86, 69
1, 73505, Note_off_c, 0, 59, 61
1, 73507, Note_off_c, 0, 55, 61
1, 73559, Note_on_c, 0, 62, 76
1, 73652, Note_off_c, 0, 62, 56
1, 73660, Note_on_c, 0, 59, 52
1, 73681, Note_on_c, 0, 83, 92
1, 73692, Note_on_c, 0, 55, 55
1, 73698, Note_off_c, 0, 83, 70
1, 73726, Note_off_c, 0, 55, 63
1, 73728, Note_off_c, 0, 59, 61
1, 73767, Note_on_c, 0, 62, 68
1, 73855, Note_off_c, 0, 62, 62
1, 73862, Note_on_c, 0, 59, 66
1, 73874, Note_on_c, 0, 55, 63
1, 73900, Note_off_c, 0, 59, 62
1, 73907, Note_off_c, 0, 55, 62
1, 73958, Note_on_c, 0, 62, 66
1, 74038, Note_off_c, 0, 62, 64
1, 74045, Note_on_c, 0, 79, 86
1, 74055, Note_on_c, 0, 59, 53
1, 74059, Note_on_c, 0, 55, 51
1, 74066, Note_off_c, 0, 79, 69
1, 74091, Note_off_c, 0, 59, 63
1, 74100, Note_off_c, 0, 55, 63
1, 74142, Note_on_c, 0, 62, 62
1, 74220, Note_off_c, 0, 62, 62
1, 74226, Note_on_c, 0, 59, 55
1, 74232, Note_on_c, 0, 55, 58
1, 74268, Note_off_c, 0, 59, 64
1, 74276, Note_off_c, 0, 55, 63
1, 74311, Note_on_c, 0, 62, 62
1, 74382, Note_on_c, 0, 76, 64
1, 74402, Note_off_c, 0, 62, 61
1, 74406, Note_on_c, 0, 59, 56
1, 74416, Note_on_c, 0, 74, 75
1, 74417, Note_on_c, 0, 55, 51
1, 74425, Note_off_c, 0, 76, 61
1, 74438, Note_off_c, 0, 74, 68
1, 74452, Note_off_c, 0, 59, 61
1, 74456, Note_off_c, 0, 55, 63
1, 74487, Note_on_c, 0, 62, 58
1, 74570, Note_on_c, 0, 72, 71
1, 74585, Note_off_c, 0, 62, 63
1, 74586, Note_on_c, 0, 59, 57
1, 74596, Note_on_c, 0, 55, 51
1, 74605, Note_on_c, 0, 71, 71
1, 74609, Note_off_c, 0, 72, 63
1, 74622, Note_off_c, 0, 71, 68
1, 74636, Note_off_c, 0, 59, 58
1, 74639, Note_off_c, 0, 55, 62
1, 74674, Note_on_c, 0, 62, 58
1, 74763, Note_on_c, 0, 59, 59
1, 74771, Note_on_c, 0, 69, 43
1, 74773, Note_on_c, 0, 67, 77
1, 74774, Note_on_c, 0, 55, 51
1, 74777, Note_off_c, 0, 62, 61
1, 74789, Note_on_c, 0, 71, 15
1, 74796, Note_off_c, 0, 67, 68
1, 74798, Note_off_c, 0, 69, 63
1, 74831, Note_off_c, 0, 71, 27
1, 74838, Note_off_c, 0, 59, 60
1, 74855, Note_off_c, 0, 55, 55
1, 74862, Note_on_c, 0, 62, 57
1, 74968, Note_off_c, 0, 62, 63
1, 74969, Note_on_c, 0, 66, 83
1, 74978, Note_on_c, 0, 55, 57
1, 74989, Note_on_c, 0, 60, 52
1, 75041, Note_off_c, 0, 55, 60
1, 75041, Note_off_c, 0, 60, 54
1, 75085, Note_on_c, 0, 62, 61
1, 75165, Note_off_c, 0, 62, 61
1, 75174, Note_on_c, 0, 60, 48
1, 75177, Note_on_c, 0, 55, 53
1, 75214, Control_c, 0, 64, 64
1, 75223, Note_off_c, 0, 60, 56
1, 75229, Control_c, 0, 64, 66
1, 75237, Note_off_c, 0, 55, 59
1, 75244, Control_c, 0, 64, 68
1, 75258, Control_c, 0, 64, 68
1, 75273, Control_c, 0, 64, 70
1, 75278, Note_on_c, 0, 62, 63
1, 75288, Control_c, 0, 64, 71
1, 75303, Control_c, 0, 64, 73
1, 75310, Note_off_c, 0, 66, 62
1, 75318, Control_c, 0, 64, 75
1, 75332, Control_c, 0, 64, 76
1, 75347, Note_off_c, 0, 62, 61
1, 75347, Control_c, 0, 64, 76
1, 75359, Note_on_c, 0, 60, 52
1, 75370, Note_on_c, 0, 55, 50
1, 75401, Note_off_c, 0, 60, 61
1, 75406, Note_off_c, 0, 55, 63
1, 75440, Note_on_c, 0, 83, 70
1, 75442, Note_on_c, 0, 62, 56
1, 75481, Control_c, 0, 64, 76
1, 75511, Control_c, 0, 64, 75
1, 75524, Note_off_c, 0, 83, 60
1, 75526, Control_c, 0, 64, 74
1, 75535, Note_on_c, 0, 81, 63
1, 75541, Control_c, 0, 64, 73
1, 75542, Note_off_c, 0, 62, 61
1, 75546, Note_on_c, 0, 60, 46
1, 75555, Note_on_c, 0, 55, 42
1, 75555, Control_c, 0, 64, 72
1, 75570, Control_c, 0, 64, 70
1, 75585, Note_off_c, 0, 60, 59
1, 75585, Control_c, 0, 64, 68
1, 75591, Note_off_c, 0, 55, 63
1, 75600, Control_c, 0, 64, 66
1, 75615, Control_c, 0, 64, 65
1, 75626, Note_off_c, 0, 81, 61
1, 75627, Note_on_c, 0, 79, 70
1, 75630, Control_c, 0, 64, 64
1, 75638, Note_on_c, 0, 62, 54
1, 75645, Control_c, 0, 64, 53
1, 75660, Control_c, 0, 64, 0
1, 75713, Note_on_c, 0, 78, 69
1, 75722, Note_off_c, 0, 79, 55
1, 75725, Note_off_c, 0, 62, 61
1, 75728, Note_on_c, 0, 60, 48
1, 75740, Note_on_c, 0, 55, 45
1, 75759, Note_off_c, 0, 60, 54
1, 75772, Note_off_c, 0, 55, 62
1, 75782, Note_off_c, 0, 78, 61
1, 75809, Note_on_c, 0, 76, 63
1, 75815, Note_on_c, 0, 62, 57
1, 75859, Note_off_c, 0, 76, 56
1, 75892, Note_off_c, 0, 62, 59
1, 75896, Note_on_c, 0, 74, 64
1, 75897, Note_on_c, 0, 60, 45
1, 75910, Note_on_c, 0, 55, 43
1, 75947, Note_off_c, 0, 60, 58
1, 75955, Note_off_c, 0, 55, 61
1, 75984, Note_on_c, 0, 62, 56
1, 75988, Note_on_c, 0, 72, 72
1, 75994, Note_off_c, 0, 74, 62
1, 76062, Note_off_c, 0, 62, 60
1, 76071, Note_on_c, 0, 60, 48
1, 76079, Note_on_c, 0, 71, 68
1, 76086, Note_on_c, 0, 55, 42
1, 76087, Note_off_c, 0, 72, 54
1, 76121, Note_off_c, 0, 55, 63
1, 76122, Note_off_c, 0, 60, 54
1, 76148, Note_off_c, 0, 71, 61
1, 76164, Note_on_c, 0, 69, 65
1, 76171, Note_on_c, 0, 62, 58
1, 76195, Note_off_c, 0, 62, 64
1, 76216, Note_off_c, 0, 69, 50
1, 76251, Note_on_c, 0, 67, 62
1, 76274, Note_on_c, 0, 62, 62
1, 76293, Poly_aftertouch_c, 0, 60, 127
1, 76320, Poly_aftertouch_c, 0, 60, 0
1, 76333, Note_off_c, 0, 67, 60
1, 76356, Note_on_c, 0, 66, 54
1, 76383, Note_off_c, 0, 66, 60
1, 76387, Note_off_c, 0, 62, 52
1, 76418, Note_on_c, 0, 55, 40
1, 76427, Note_on_c, 0, 59, 45
1, 76442, Note_on_c, 0, 67, 47
1, 76443, Note_off_c, 0, 67, 127
1, 76508, Note_off_c, 0, 59, 0
1, 76508, Note_on_c, 0, 59, 13
1, 76653, Note_on_c, 0, 69, 57
1, 76663, Note_on_c, 0, 66, 49
1, 76700, Note_off_c, 0, 66, 62
1, 76709, Note_off_c, 0, 69, 57
1, 76736, Note_on_c, 0, 62, 57
1, 76770, Note_off_c, 0, 59, 41
1, 76789, Note_off_c, 0, 55, 60
1, 76806, Note_off_c, 0, 62, 45
1, 76833, Note_on_c, 0, 71, 59
1, 76838, Note_on_c, 0, 67, 53
1, 76886, Note_off_c, 0, 67, 60
1, 76891, Note_off_c, 0, 71, 61
1, 76923, Note_on_c, 0, 62, 66
1, 77003, Note_off_c, 0, 62, 59
1, 77030, Note_on_c, 0, 69, 60
1, 77033, Note_on_c, 0, 72, 61
1, 77074, Note_off_c, 0, 69, 57
1, 77081, Note_off_c, 0, 72, 58
1, 77119, Note_on_c, 0, 62, 60
1, 77162, Note_off_c, 0, 62, 60
1, 77208, Note_on_c, 0, 71, 71
1, 77210, Note_on_c, 0, 74, 67
1, 77225, Note_off_c, 0, 71, 68
1, 77229, Note_off_c, 0, 74, 67
1, 77407, Note_on_c, 0, 48, 80
1, 77421, Note_on_c, 0, 64, 89
1, 77422, Note_on_c, 0, 69, 88
1, 77459, Note_off_c, 0, 48, 63
1, 77463, Note_off_c, 0, 64, 62
1, 77502, Note_on_c, 0, 60, 83
1, 77505, Note_on_c, 0, 45, 82
1, 77510, Note_off_c, 0, 69, 63
1, 77565, Note_off_c, 0, 45, 64
1, 77570, Note_off_c, 0, 60, 61
1, 77599, Note_on_c, 0, 50, 87
1, 77603, Note_on_c, 0, 62, 94
1, 77605, Note_on_c, 0, 67, 87
1, 77633, Note_off_c, 0, 50, 65
1, 77645, Note_off_c, 0, 62, 65
1, 77687, Note_off_c, 0, 67, 63
1, 77695, Note_on_c, 0, 59, 82
1, 77752, Note_off_c, 0, 59, 58
1, 77789, Note_on_c, 0, 66, 85
1, 77792, Note_on_c, 0, 50, 94
1, 77793, Note_on_c, 0, 38, 93
1, 77793, Note_on_c, 0, 60, 85
1, 77817, Note_off_c, 0, 50, 69
1, 77826, Note_off_c, 0, 38, 63
1, 77828, Note_off_c, 0, 60, 63
1, 77872, Note_off_c, 0, 66, 62
1, 77883, Note_on_c, 0, 57, 83
1, 77971, Note_off_c, 0, 57, 56
1, 77998, Note_on_c, 0, 67, 88
1, 77999, Note_on_c, 0, 59, 82
1, 78000, Note_on_c, 0, 43, 88
1, 78004, Note_on_c, 0, 31, 87
1, 78023, Note_off_c, 0, 59, 65
1, 78038, Note_off_c, 0, 67, 66
1, 78209, Note_off_c, 0, 31, 59
1, 78224, Note_on_c, 0, 66, 70
1, 78226, Note_on_c, 0, 69, 69
1, 78226, Note_off_c, 0, 43, 61
1, 78277, Note_off_c, 0, 66, 55
1, 78290, Note_off_c, 0, 69, 59
1, 78301, Note_on_c, 0, 62, 68
1, 78368, Note_off_c, 0, 62, 59
1, 78408, Note_on_c, 0, 71, 57
1, 78421, Note_on_c, 0, 67, 40
1, 78480, Note_off_c, 0, 71, 62
1, 78483, Note_off_c, 0, 67, 41
1, 78501, Note_on_c, 0, 62, 68
1, 78586, Note_off_c, 0, 62, 58
1, 78603, Note_on_c, 0, 69, 63
1, 78609, Note_on_c, 0, 72, 62
1, 78658, Note_off_c, 0, 69, 55
1, 78663, Note_off_c, 0, 72, 57
1, 78695, Note_on_c, 0, 62, 57
1, 78763, Note_off_c, 0, 62, 51
1, 78782, Note_on_c, 0, 71, 69
1, 78785, Note_on_c, 0, 74, 71
1, 78808, Note_off_c, 0, 71, 64
1, 78813, Note_off_c, 0, 74, 67
1, 78977, Note_on_c, 0, 48, 87
1, 78988, Note_on_c, 0, 64, 92
1, 78990, Note_on_c, 0, 69, 86
1, 79031, Note_off_c, 0, 48, 65
1, 79034, Note_off_c, 0, 64, 64
1, 79073, Note_on_c, 0, 60, 85
1, 79074, Note_on_c, 0, 45, 87
1, 79082, Note_off_c, 0, 69, 60
1, 79128, Note_off_c, 0, 45, 65
1, 79135, Note_off_c, 0, 60, 61
1, 79170, Note_on_c, 0, 62, 92
1, 79171, Note_on_c, 0, 50, 90
1, 79174, Note_on_c, 0, 67, 90
1, 79204, Note_off_c, 0, 50, 66
1, 79217, Note_off_c, 0, 62, 64
1, 79248, Note_off_c, 0, 67, 59
1, 79262, Note_on_c, 0, 59, 76
1, 79305, Note_off_c, 0, 59, 57
1, 79353, Note_on_c, 0, 60, 83
1, 79354, Note_on_c, 0, 66, 85
1, 79360, Note_on_c, 0, 50, 92
1, 79362, Note_on_c, 0, 38, 94
1, 79385, Note_off_c, 0, 50, 69
1, 79391, Note_off_c, 0, 60, 61
1, 79394, Note_off_c, 0, 38, 64
1, 79428, Note_off_c, 0, 66, 64
1, 79442, Note_on_c, 0, 57, 80
1, 79566, Note_on_c, 0, 59, 86
1, 79567, Note_on_c, 0, 67, 89
1, 79568, Note_on_c, 0, 43, 91
1, 79573, Note_on_c, 0, 31, 89
1, 79585, Note_off_c, 0, 57, 37
1, 79660, Note_off_c, 0, 59, 61
1, 79691, Note_off_c, 0, 67, 64
1, 79694, Note_off_c, 0, 31, 61
1, 79705, Note_off_c, 0, 43, 61
1, 80003, Note_on_c, 0, 38, 90
1, 80003, Note_on_c, 0, 50, 89
1, 80006, Note_on_c, 0, 78, 99
1, 80012, Note_on_c, 0, 72, 88
1, 80013, Note_on_c, 0, 69, 83
1, 80068, Note_off_c, 0, 69, 62
1, 80080, Note_off_c, 0, 50, 63
1, 80094, Note_off_c, 0, 72, 63
1, 80110, Note_off_c, 0, 78, 63
1, 80114, Note_off_c, 0, 38, 62
1, 80437, Note_on_c, 0, 43, 80
1, 80441, Note_on_c, 0, 31, 76
1, 80442, Note_on_c, 0, 79, 86
1, 80443, Note_on_c, 0, 71, 78
1, 80444, Note_on_c, 0, 74, 79
1, 80834, Note_off_c, 0, 71, 56
1, 80838, Note_off_c, 0, 31, 59
1, 80853, Note_off_c, 0, 79, 48
1, 80872, Note_off_c, 0, 74, 25
1, 80882, Note_off_c, 0, 43, 61
1, 81269, Note_on_c, 0, 67, 63
1, 81288, Note_off_c, 0, 67, 65
1, 81358, Note_on_c, 0, 74, 51
1, 81409, Note_off_c, 0, 74, 56
1, 81446, Note_on_c, 0, 76, 42
1, 81544, Note_off_c, 0, 76, 28
1, 81553, Note_on_c, 0, 78, 50
1, 81627, Note_off_c, 0, 78, 61
1, 81641, Note_on_c, 0, 62, 51
1, 81659, Note_on_c, 0, 79, 47
1, 81680, Note_off_c, 0, 62, 64
1, 81729, Note_off_c, 0, 79, 61
1, 81754, Note_on_c, 0, 81, 55
1, 81830, Note_off_c, 0, 81, 57
1, 81835, Note_on_c, 0, 82, 54
1, 81932, Note_off_c, 0, 82, 57
1, 81939, Note_on_c, 0, 84, 44
1, 82024, Note_off_c, 0, 84, 53
1, 82025, Note_on_c, 0, 86, 65
1, 82030, Note_on_c, 0, 58, 41
1, 82101, Note_off_c, 0, 86, 57
1, 82130, Note_on_c, 0, 84, 59
1, 82200, Note_off_c, 0, 84, 60
1, 82206, Note_on_c, 0, 82, 65
1, 82297, Note_on_c, 0, 81, 63
1, 82312, Note_off_c, 0, 82, 50
1, 82374, Note_off_c, 0, 81, 61
1, 82385, Note_off_c, 0, 58, 62
1, 82388, Note_on_c, 0, 79, 71
1, 82441, Note_off_c, 0, 79, 56
1, 82486, Note_on_c, 0, 81, 59
1, 82565, Note_off_c, 0, 81, 59
1, 82577, Note_on_c, 0, 82, 61
1, 82599, Note_on_c, 0, 63, 54
1, 82656, Note_off_c, 0, 82, 60
1, 82678, Note_on_c, 0, 79, 52
1, 82707, Note_off_c, 0, 63, 56
1, 82756, Note_off_c, 0, 79, 59
1, 82790, Note_on_c, 0, 84, 55
1, 82793, Note_on_c, 0, 57, 45
1, 82884, Note_on_c, 0, 82, 63
1, 82884, Note_off_c, 0, 84, 60
1, 82973, Note_on_c, 0, 81, 62
1, 83008, Note_off_c, 0, 82, 60
1, 83035, Note_off_c, 0, 81, 61
1, 83057, Note_on_c, 0, 79, 63
1, 83090, Note_off_c, 0, 57, 62
1, 83106, Note_off_c, 0, 79, 53
1, 83146, Note_on_c, 0, 78, 68
1, 83213, Note_off_c, 0, 78, 60
1, 83224, Note_on_c, 0, 79, 71
1, 83300, Note_off_c, 0, 79, 59
1, 83316, Note_on_c, 0, 81, 65
1, 83317, Note_on_c, 0, 62, 61
1, 83362, Note_off_c, 0, 62, 62
1, 83390, Note_off_c, 0, 81, 61
1, 83408, Note_on_c, 0, 78, 65
1, 83501, Note_off_c, 0, 78, 58
1, 83508, Note_on_c, 0, 82, 63
1, 83512, Note_on_c, 0, 55, 55
1, 83586, Note_off_c, 0, 82, 61
1, 83594, Note_on_c, 0, 84, 72
1, 83690, Note_on_c, 0, 82, 73
1, 83696, Note_off_c, 0, 84, 51
1, 83702, Note_off_c, 0, 55, 55
1, 83776, Note_on_c, 0, 81, 68
1, 83815, Note_off_c, 0, 82, 56
1, 83864, Note_on_c, 0, 79, 78
1, 83869, Note_on_c, 0, 58, 69
1, 83900, Note_off_c, 0, 81, 60
1, 83927, Note_off_c, 0, 58, 62
1, 83950, Note_off_c, 0, 79, 62
1, 83959, Note_on_c, 0, 77, 74
1, 83976, Note_on_c, 0, 76, 68
1, 84001, Note_off_c, 0, 76, 50
1, 84015, Note_off_c, 0, 77, 60
1, 84069, Poly_aftertouch_c, 0, 76, 127
1, 84103, Poly_aftertouch_c, 0, 76, 0
1, 84137, Note_on_c, 0, 74, 82
1, 84184, Note_off_c, 0, 74, 63
1, 84225, Note_on_c, 0, 81, 82
1, 84226, Note_on_c, 0, 73, 87
1, 84245, Note_off_c, 0, 73, 69
1, 84246, Note_off_c, 0, 81, 69
1, 84319, Note_on_c, 0, 45, 76
1, 84412, Note_on_c, 0, 47, 63
1, 84450, Note_off_c, 0, 45, 64
1, 84503, Note_on_c, 0, 49, 70
1, 84516, Note_off_c, 0, 47, 60
1, 84579, Note_on_c, 0, 76, 84
1, 84582, Note_on_c, 0, 73, 80
1, 84601, Note_on_c, 0, 50, 82
1, 84605, Note_off_c, 0, 73, 68
1, 84606, Note_off_c, 0, 49, 64
1, 84611, Note_off_c, 0, 76, 63
1, 84659, Note_off_c, 0, 50, 64
1, 84681, Note_on_c, 0, 52, 82
1, 84764, Note_on_c, 0, 54, 78
1, 84764, Note_off_c, 0, 52, 63
1, 84867, Note_on_c, 0, 56, 73
1, 84868, Note_off_c, 0, 54, 60
1, 84933, Note_on_c, 0, 73, 77
1, 84937, Note_on_c, 0, 64, 73
1, 84941, Note_off_c, 0, 56, 64
1, 84948, Note_on_c, 0, 57, 78
1, 85038, Note_on_c, 0, 56, 77
1, 85043, Note_off_c, 0, 57, 63
1, 85082, Note_off_c, 0, 64, 25
1, 85105, Note_off_c, 0, 56, 64
1, 85131, Note_on_c, 0, 57, 78
1, 85163, Note_off_c, 0, 73, 60
1, 85206, Note_on_c, 0, 58, 77
1, 85208, Note_off_c, 0, 57, 63
1, 85267, Note_off_c, 0, 58, 62
1, 85300, Note_on_c, 0, 57, 81
1, 85370, Note_off_c, 0, 57, 55
1, 85386, Note_on_c, 0, 55, 76
1, 85443, Note_off_c, 0, 55, 54
1, 85458, Note_on_c, 0, 69, 72
1, 85471, Note_on_c, 0, 53, 69
1, 85535, Note_off_c, 0, 53, 63
1, 85553, Note_on_c, 0, 52, 66
1, 85555, Note_off_c, 0, 69, 59
1, 85657, Note_on_c, 0, 81, 70
1, 85662, Note_off_c, 0, 52, 59
1, 85666, Note_on_c, 0, 53, 67
1, 85741, Note_off_c, 0, 81, 61
1, 85745, Note_on_c, 0, 80, 74
1, 85839, Note_on_c, 0, 81, 76
1, 85840, Note_off_c, 0, 80, 61
1, 85902, Note_off_c, 0, 53, 63
1, 85929, Note_off_c, 0, 81, 61
1, 85932, Note_on_c, 0, 82, 79
1, 86013, Note_off_c, 0, 82, 59
1, 86021, Note_on_c, 0, 81, 72
1, 86093, Note_on_c, 0, 79, 79
1, 86110, Note_off_c, 0, 81, 54
1, 86185, Note_on_c, 0, 77, 74
1, 86215, Note_on_c, 0, 55, 55
1, 86216, Note_off_c, 0, 79, 59
1, 86242, Note_off_c, 0, 55, 59
1, 86247, Note_on_c, 0, 57, 30
1, 86263, Note_off_c, 0, 77, 60
1, 86266, Note_on_c, 0, 76, 69
1, 86283, Note_off_c, 0, 57, 47
1, 86351, Note_off_c, 0, 76, 56
1, 86357, Note_on_c, 0, 69, 75
1, 86364, Note_on_c, 0, 77, 75
1, 86418, Note_off_c, 0, 69, 0
1, 86435, Note_off_c, 0, 77, 58
1, 86446, Poly_aftertouch_c, 0, 69, 0
1, 86455, Note_on_c, 0, 76, 70
1, 86458, Note_on_c, 0, 68, 65
1, 86515, Note_off_c, 0, 68, 63
1, 86527, Note_off_c, 0, 76, 57
1, 86534, Note_on_c, 0, 69, 81
1, 86535, Note_on_c, 0, 77, 73
1, 86600, Note_off_c, 0, 69, 52
1, 86612, Note_off_c, 0, 77, 58
1, 86617, Note_on_c, 0, 70, 67
1, 86619, Note_on_c, 0, 79, 74
1, 86659, Note_off_c, 0, 70, 62
1, 86691, Note_on_c, 0, 69, 79
1, 86712, Note_on_c, 0, 77, 76
1, 86734, Note_off_c, 0, 79, 59
1, 86767, Note_off_c, 0, 77, 60
1, 86769, Note_off_c, 0, 69, 55
1, 86786, Note_on_c, 0, 67, 72
1, 86794, Note_on_c, 0, 76, 63
1, 86823, Note_off_c, 0, 76, 64
1, 86849, Note_off_c, 0, 67, 60
1, 86869, Note_on_c, 0, 74, 73
1, 86876, Note_on_c, 0, 65, 65
1, 86933, Note_off_c, 0, 65, 64
1, 86953, Note_off_c, 0, 74, 61
1, 86955, Note_on_c, 0, 73, 63
1, 86960, Note_on_c, 0, 64, 65
1, 86973, Note_off_c, 0, 73, 64
1, 87014, Note_off_c, 0, 64, 61
1, 87039, Note_on_c, 0, 65, 70
1, 87050, Note_on_c, 0, 69, 73
1, 87095, Note_on_c, 0, 74, 54
1, 87136, Note_off_c, 0, 69, 61
1, 87153, Note_on_c, 0, 68, 69
1, 87216, Note_off_c, 0, 74, 61
1, 87243, Note_on_c, 0, 69, 73
1, 87243, Note_off_c, 0, 68, 63
1, 87287, Note_off_c, 0, 65, 64
1, 87316, Note_off_c, 0, 69, 59
1, 87335, Note_on_c, 0, 70, 72
1, 87424, Note_on_c, 0, 69, 74
1, 87436, Note_off_c, 0, 70, 56
1, 87507, Note_on_c, 0, 67, 68
1, 87514, Note_off_c, 0, 69, 57
1, 87573, Note_off_c, 0, 67, 62
1, 87597, Note_on_c, 0, 65, 64
1, 87625, Note_on_c, 0, 61, 54
1, 87655, Note_off_c, 0, 61, 62
1, 87663, Note_off_c, 0, 65, 63
1, 87673, Note_on_c, 0, 64, 64
1, 87703, Note_off_c, 0, 64, 63
1, 87767, Note_on_c, 0, 62, 52
1, 87775, Note_on_c, 0, 65, 60
1, 87847, Note_off_c, 0, 62, 63
1, 87874, Note_on_c, 0, 61, 61
1, 87919, Note_off_c, 0, 61, 57
1, 87962, Note_on_c, 0, 62, 66
1, 88019, Note_off_c, 0, 62, 57
1, 88048, Note_on_c, 0, 57, 67
1, 88069, Note_off_c, 0, 65, 49
1, 88123, Note_off_c, 0, 57, 63
1, 88135, Note_on_c, 0, 60, 73
1, 88135, Note_on_c, 0, 66, 58
1, 88225, Note_off_c, 0, 60, 61
1, 88226, Note_on_c, 0, 59, 72
1, 88241, Note_off_c, 0, 66, 63
1, 88299, Note_off_c, 0, 59, 60
1, 88314, Note_on_c, 0, 60, 81
1, 88412, Note_on_c, 0, 57, 62
1, 88414, Note_off_c, 0, 60, 59
1, 88492, Note_off_c, 0, 57, 64
1, 88499, Note_on_c, 0, 58, 70
1, 88506, Note_on_c, 0, 74, 65
1, 88517, Note_on_c, 0, 67, 49
1, 88600, Note_off_c, 0, 74, 60
1, 88601, Note_on_c, 0, 73, 69
1, 88641, Note_off_c, 0, 58, 60
1, 88658, Note_off_c, 0, 67, 47
1, 88698, Note_on_c, 0, 74, 72
1, 88701, Note_on_c, 0, 55, 72
1, 88703, Note_off_c, 0, 73, 58
1, 88781, Note_off_c, 0, 74, 63
1, 88785, Note_on_c, 0, 70, 72
1, 88799, Note_off_c, 0, 55, 59
1, 88874, Note_off_c, 0, 70, 60
1, 88879, Note_on_c, 0, 57, 79
1, 88887, Note_on_c, 0, 72, 77
1, 88906, Note_on_c, 0, 62, 57
1, 88969, Note_on_c, 0, 71, 71
1, 88974, Note_off_c, 0, 72, 56
1, 88995, Note_off_c, 0, 62, 56
1, 89011, Note_off_c, 0, 57, 61
1, 89062, Note_on_c, 0, 54, 78
1, 89066, Note_on_c, 0, 72, 84
1, 89077, Note_off_c, 0, 71, 59
1, 89151, Note_on_c, 0, 69, 81
1, 89153, Note_off_c, 0, 72, 61
1, 89166, Note_off_c, 0, 54, 58
1, 89248, Note_off_c, 0, 69, 60
1, 89256, Note_on_c, 0, 70, 83
1, 89265, Note_on_c, 0, 58, 83
1, 89268, Note_on_c, 0, 55, 79
1, 89312, Note_off_c, 0, 70, 63
1, 89356, Note_on_c, 0, 62, 77
1, 89452, Note_on_c, 0, 64, 75
1, 89454, Note_off_c, 0, 62, 64
1, 89464, Note_off_c, 0, 58, 59
1, 89536, Note_on_c, 0, 66, 78
1, 89549, Note_off_c, 0, 64, 60
1, 89575, Note_off_c, 0, 55, 56
1, 89617, Note_off_c, 0, 66, 63
1, 89639, Note_on_c, 0, 57, 85
1, 89646, Note_on_c, 0, 53, 79
1, 89648, Note_on_c, 0, 67, 83
1, 89735, Note_on_c, 0, 69, 87
1, 89741, Note_off_c, 0, 67, 63
1, 89810, Note_off_c, 0, 57, 58
1, 89825, Note_on_c, 0, 70, 78
1, 89834, Note_off_c, 0, 69, 54
1, 89874, Note_off_c, 0, 53, 48
1, 89894, Note_off_c, 0, 70, 63
1, 89918, Note_on_c, 0, 72, 87
1, 90014, Note_on_c, 0, 74, 86
1, 90016, Note_off_c, 0, 72, 53
1, 90021, Note_on_c, 0, 55, 82
1, 90022, Note_on_c, 0, 52, 78
1, 90085, Note_off_c, 0, 74, 53
1, 90112, Note_on_c, 0, 72, 91
1, 90202, Note_on_c, 0, 79, 93
1, 90213, Note_off_c, 0, 72, 37
1, 90293, Note_on_c, 0, 77, 85
1, 90339, Note_off_c, 0, 79, 58
1, 90359, Note_off_c, 0, 52, 62
1, 90374, Note_on_c, 0, 76, 88
1, 90374, Note_off_c, 0, 55, 63
1, 90406, Note_off_c, 0, 77, 61
1, 90458, Note_on_c, 0, 74, 82
1, 90468, Note_off_c, 0, 76, 60
1, 90515, Note_off_c, 0, 74, 63
1, 90529, Note_on_c, 0, 72, 77
1, 90577, Note_off_c, 0, 72, 59
1, 90605, Note_on_c, 0, 70, 82
1, 90646, Note_off_c, 0, 70, 61
1, 90685, Note_on_c, 0, 53, 94
1, 90690, Note_on_c, 0, 41, 85
1, 90695, Note_on_c, 0, 69, 91
1, 90728, Note_off_c, 0, 69, 62
1, 90772, Note_on_c, 0, 65, 91
1, 90806, Note_off_c, 0, 53, 63
1, 90811, Note_off_c, 0, 65, 65
1, 90856, Note_on_c, 0, 67, 76
1, 90867, Note_off_c, 0, 41, 62
1, 90876, Note_on_c, 0, 69, 48
1, 90898, Note_off_c, 0, 69, 37
1, 90913, Note_on_c, 0, 65, 81
1, 90918, Note_off_c, 0, 67, 64
1, 90959, Note_off_c, 0, 65, 66
1, 90961, Note_on_c, 0, 64, 66
1, 91015, Note_on_c, 0, 65, 74
1, 91022, Note_off_c, 0, 64, 65
1, 91037, Note_off_c, 0, 65, 69
1, 91075, Note_on_c, 0, 48, 88
1, 91077, Note_on_c, 0, 36, 86
1, 91160, Note_on_c, 0, 69, 96
1, 91182, Note_off_c, 0, 69, 63
1, 91199, Note_off_c, 0, 48, 62
1, 91234, Note_off_c, 0, 36, 63
1, 91250, Note_on_c, 0, 70, 85
1, 91303, Note_on_c, 0, 69, 60
1, 91315, Note_off_c, 0, 70, 58
1, 91357, Note_off_c, 0, 69, 63
1, 91361, Note_on_c, 0, 67, 71
1, 91420, Note_on_c, 0, 69, 86
1, 91422, Note_off_c, 0, 67, 65
1, 91438, Note_off_c, 0, 69, 70
1, 91467, Note_on_c, 0, 45, 90
1, 91473, Note_on_c, 0, 33, 91
1, 91584, Note_on_c, 0, 72, 90
1, 91607, Note_off_c, 0, 72, 63
1, 91663, Note_on_c, 0, 74, 83
1, 91721, Note_off_c, 0, 74, 63
1, 91721, Note_on_c, 0, 72, 79
1, 91773, Note_off_c, 0, 72, 60
1, 91781, Note_on_c, 0, 71, 72
1, 91818, Note_off_c, 0, 71, 61
1, 91825, Note_on_c, 0, 72, 72
1, 91852, Note_off_c, 0, 33, 64
1, 91864, Note_off_c, 0, 45, 64
1, 91866, Note_on_c, 0, 77, 98
1, 91882, Note_off_c, 0, 72, 63
1, 92064, Note_on_c, 0, 50, 89
1, 92064, Note_on_c, 0, 38, 95
1, 92087, Note_off_c, 0, 50, 67
1, 92098, Note_off_c, 0, 38, 63
1, 92274, Note_off_c, 0, 77, 62
1, 92284, Note_on_c, 0, 43, 93
1, 92286, Note_on_c, 0, 31, 89
1, 92511, Note_on_c, 0, 76, 75
1, 92556, Note_off_c, 0, 76, 61
1, 92557, Note_on_c, 0, 77, 81
1, 92600, Note_on_c, 0, 79, 76
1, 92606, Note_off_c, 0, 77, 61
1, 92650, Note_on_c, 0, 81, 72
1, 92651, Note_off_c, 0, 31, 62
1, 92660, Note_off_c, 0, 79, 57
1, 92665, Note_off_c, 0, 43, 61
1, 92701, Note_on_c, 0, 82, 82
1, 92726, Note_off_c, 0, 81, 63
1, 92883, Note_on_c, 0, 36, 91
1, 92883, Note_on_c, 0, 48, 79
1, 92904, Note_off_c, 0, 48, 67
1, 92925, Note_off_c, 0, 36, 63
1, 93041, Control_c, 0, 64, 61
1, 93056, Control_c, 0, 64, 65
1, 93079, Control_c, 0, 64, 66
1, 93094, Control_c, 0, 64, 67
1, 93095, Note_on_c, 0, 41, 85
1, 93104, Note_on_c, 0, 29, 76
1, 93110, Control_c, 0, 64, 67
1, 93198, Control_c, 0, 64, 67
1, 93207, Note_off_c, 0, 29, 60
1, 93254, Note_off_c, 0, 41, 62
1, 93259, Note_off_c, 0, 82, 58
1, 93287, Control_c, 0, 64, 66
1, 93290, Note_on_c, 0, 81, 66
1, 93302, Control_c, 0, 64, 66
1, 93317, Control_c, 0, 64, 65
1, 93324, Note_off_c, 0, 81, 57
1, 93331, Control_c, 0, 64, 64
1, 93343, Note_on_c, 0, 79, 71
1, 93346, Control_c, 0, 64, 51
1, 93361, Control_c, 0, 64, 0
1, 93382, Note_off_c, 0, 79, 54
1, 93399, Poly_aftertouch_c, 0, 81, 127
1, 93417, Poly_aftertouch_c, 0, 81, 0
1, 93419, Note_on_c, 0, 82, 73
1, 93470, Note_off_c, 0, 82, 60
1, 93491, Note_on_c, 0, 84, 79
1, 93664, Note_on_c, 0, 69, 60
1, 93894, Note_off_c, 0, 69, 52
1, 93900, Note_on_c, 0, 58, 49
1, 93956, Note_off_c, 0, 84, 61
1, 93978, Note_on_c, 0, 85, 55
1, 94067, Note_off_c, 0, 85, 62
1, 94071, Note_on_c, 0, 86, 69
1, 94109, Note_off_c, 0, 58, 58
1, 94170, Note_on_c, 0, 78, 66
1, 94193, Note_off_c, 0, 86, 55
1, 94245, Note_off_c, 0, 78, 59
1, 94268, Note_on_c, 0, 79, 60
1, 94340, Note_off_c, 0, 79, 58
1, 94359, Note_on_c, 0, 81, 55
1, 94443, Note_on_c, 0, 67, 35
1, 94445, Note_off_c, 0, 81, 60
1, 94460, Note_on_c, 0, 82, 54
1, 94640, Note_off_c, 0, 67, 42
1, 94685, Note_on_c, 0, 57, 35
1, 94760, Note_off_c, 0, 82, 41
1, 94773, Note_on_c, 0, 83, 62
1, 94869, Note_off_c, 0, 83, 61
1, 94877, Note_on_c, 0, 84, 63
1, 94903, Note_off_c, 0, 57, 62
1, 94940, Note_off_c, 0, 84, 61
1, 94957, Note_on_c, 0, 76, 63
1, 95031, Note_off_c, 0, 76, 35
1, 95054, Note_on_c, 0, 77, 60
1, 95142, Note_on_c, 0, 79, 62
1, 95146, Note_off_c, 0, 77, 57
1, 95244, Note_on_c, 0, 65, 56
1, 95247, Note_on_c, 0, 81, 65
1, 95252, Note_off_c, 0, 79, 57
1, 95374, Note_off_c, 0, 81, 60
1, 95458, Note_on_c, 0, 55, 58
1, 95459, Note_off_c, 0, 65, 59
1, 95554, Note_on_c, 0, 84, 68
1, 95645, Note_on_c, 0, 82, 67
1, 95685, Note_off_c, 0, 84, 51
1, 95690, Note_off_c, 0, 55, 57
1, 95721, Note_on_c, 0, 79, 75
1, 95753, Note_off_c, 0, 82, 60
1, 95826, Note_on_c, 0, 76, 70
1, 95829, Note_on_c, 0, 60, 68
1, 95830, Note_off_c, 0, 79, 61
1, 95861, Note_off_c, 0, 76, 61
1, 95912, Note_on_c, 0, 72, 64
1, 95948, Note_off_c, 0, 72, 59
1, 95994, Note_on_c, 0, 70, 73
1, 96085, Note_on_c, 0, 67, 78
1, 96088, Note_off_c, 0, 70, 62
1, 96127, Note_off_c, 0, 67, 63
1, 96162, Note_off_c, 0, 60, 58
1, 96174, Note_on_c, 0, 69, 94
1, 96183, Note_on_c, 0, 57, 77
1, 96187, Note_on_c, 0, 53, 78
1, 96196, Note_off_c, 0, 69, 68
1, 96212, Note_off_c, 0, 57, 67
1, 96220, Note_off_c, 0, 53, 66
1, 96265, Note_on_c, 0, 60, 74
1, 96380, Note_off_c, 0, 60, 60
1, 96386, Note_on_c, 0, 57, 64
1, 96389, Note_on_c, 0, 53, 67
1, 96389, Note_on_c, 0, 69, 71
1, 96402, Note_on_c, 0, 67, 45
1, 96403, Note_off_c, 0, 67, 127
1, 96414, Note_off_c, 0, 69, 66
1, 96426, Note_off_c, 0, 53, 65
1, 96426, Note_off_c, 0, 57, 62
1, 96466, Note_on_c, 0, 60, 72
1, 96565, Note_on_c, 0, 57, 66
1, 96570, Note_off_c, 0, 60, 61
1, 96576, Note_on_c, 0, 53, 65
1, 96618, Note_off_c, 0, 53, 58
1, 96623, Note_off_c, 0, 57, 58
1, 96658, Note_on_c, 0, 72, 82
1, 96663, Note_on_c, 0, 60, 75
1, 96680, Note_off_c, 0, 72, 68
1, 96719, Note_on_c, 0, 74, 78
1, 96730, Note_on_c, 0, 57, 53
1, 96732, Note_on_c, 0, 53, 64
1, 96743, Note_off_c, 0, 60, 58
1, 96760, Note_on_c, 0, 72, 74
1, 96777, Note_off_c, 0, 53, 59
1, 96790, Note_off_c, 0, 74, 59
1, 96798, Note_off_c, 0, 57, 59
1, 96806, Note_off_c, 0, 72, 62
1, 96821, Note_on_c, 0, 60, 70
1, 96821, Note_on_c, 0, 71, 63
1, 96840, Note_off_c, 0, 71, 64
1, 96867, Note_on_c, 0, 72, 71
1, 96905, Note_off_c, 0, 72, 63
1, 96919, Note_on_c, 0, 64, 87
1, 96923, Note_off_c, 0, 60, 61
1, 96925, Note_on_c, 0, 55, 73
1, 96928, Note_on_c, 0, 58, 72
1, 96943, Note_off_c, 0, 64, 67
1, 96960, Note_off_c, 0, 58, 62
1, 96964, Note_off_c, 0, 55, 60
1, 97021, Note_on_c, 0, 60, 77
1, 97117, Note_off_c, 0, 60, 54
1, 97133, Note_on_c, 0, 64, 79
1, 97134, Note_on_c, 0, 58, 69
1, 97137, Note_on_c, 0, 55, 59
1, 97158, Note_off_c, 0, 64, 69
1, 97170, Note_off_c, 0, 58, 63
1, 97177, Note_off_c, 0, 55, 66
1, 97221, Note_on_c, 0, 60, 71
1, 97296, Note_off_c, 0, 60, 59
1, 97304, Note_on_c, 0, 58, 61
1, 97304, Note_on_c, 0, 55, 57
1, 97338, Note_off_c, 0, 58, 62
1, 97346, Note_off_c, 0, 55, 65
1, 97387, Note_on_c, 0, 60, 67
1, 97408, Note_on_c, 0, 72, 71
1, 97436, Note_off_c, 0, 72, 63
1, 97441, Note_on_c, 0, 74, 73
1, 97442, Note_on_c, 0, 55, 61
1, 97444, Note_off_c, 0, 60, 58
1, 97445, Note_on_c, 0, 58, 52
1, 97486, Note_on_c, 0, 72, 81
1, 97515, Note_off_c, 0, 74, 63
1, 97519, Note_off_c, 0, 55, 61
1, 97522, Note_off_c, 0, 58, 54
1, 97537, Note_on_c, 0, 60, 73
1, 97537, Note_off_c, 0, 72, 63
1, 97545, Note_on_c, 0, 71, 65
1, 97582, Note_off_c, 0, 71, 66
1, 97596, Note_on_c, 0, 72, 75
1, 97653, Note_off_c, 0, 72, 60
1, 97659, Note_off_c, 0, 60, 60
1, 97662, Note_on_c, 0, 77, 89
1, 97680, Note_on_c, 0, 57, 59
1, 97688, Note_on_c, 0, 53, 52
1, 97720, Note_off_c, 0, 57, 62
1, 97723, Note_off_c, 0, 53, 62
1, 97766, Note_on_c, 0, 60, 68
1, 97852, Note_off_c, 0, 60, 58
1, 97867, Note_on_c, 0, 57, 48
1, 97869, Note_on_c, 0, 81, 73
1, 97870, Note_off_c, 0, 77, 60
1, 97881, Note_on_c, 0, 53, 46
1, 97895, Note_off_c, 0, 81, 64
1, 97915, Note_off_c, 0, 57, 63
1, 97924, Note_off_c, 0, 53, 62
1, 97955, Note_on_c, 0, 60, 64
1, 98036, Note_off_c, 0, 60, 59
1, 98046, Note_on_c, 0, 57, 51
1, 98053, Note_on_c, 0, 53, 52
1, 98094, Note_off_c, 0, 57, 62
1, 98099, Note_off_c, 0, 53, 64
1, 98121, Note_on_c, 0, 84, 74
1, 98131, Note_on_c, 0, 60, 63
1, 98155, Note_off_c, 0, 84, 59
1, 98181, Note_on_c, 0, 86, 61
1, 98196, Note_off_c, 0, 60, 59
1, 98207, Note_on_c, 0, 53, 52
1, 98211, Note_on_c, 0, 57, 59
1, 98216, Note_off_c, 0, 86, 62
1, 98222, Note_on_c, 0, 84, 72
1, 98246, Note_off_c, 0, 53, 62
1, 98247, Note_off_c, 0, 84, 66
1, 98248, Note_off_c, 0, 57, 59
1, 98291, Note_on_c, 0, 60, 59
1, 98318, Note_on_c, 0, 83, 15
1, 98318, Note_on_c, 0, 84, 74
1, 98359, Note_off_c, 0, 83, 29
1, 98362, Note_off_c, 0, 84, 59
1, 98380, Note_off_c, 0, 60, 59
1, 98389, Note_on_c, 0, 76, 65
1, 98400, Note_on_c, 0, 58, 53
1, 98407, Note_off_c, 0, 76, 64
1, 98410, Note_on_c, 0, 55, 45
1, 98435, Note_off_c, 0, 58, 59
1, 98438, Note_off_c, 0, 55, 57
1, 98493, Note_on_c, 0, 60, 58
1, 98570, Note_off_c, 0, 60, 56
1, 98586, Note_on_c, 0, 58, 49
1, 98589, Note_on_c, 0, 55, 37
1, 98597, Note_on_c, 0, 76, 69
1, 98615, Note_off_c, 0, 76, 66
1, 98623, Note_off_c, 0, 58, 62
1, 98625, Note_off_c, 0, 55, 62
1, 98663, Note_on_c, 0, 60, 55
1, 98747, Note_off_c, 0, 60, 60
1, 98771, Note_on_c, 0, 58, 42
1, 98780, Note_on_c, 0, 55, 21
1, 98797, Note_off_c, 0, 58, 57
1, 98819, Note_off_c, 0, 55, 43
1, 98830, Note_on_c, 0, 84, 68
1, 98833, Note_on_c, 0, 60, 61
1, 98848, Note_off_c, 0, 84, 65
1, 98886, Note_on_c, 0, 86, 77
1, 98899, Note_off_c, 0, 60, 55
1, 98915, Note_on_c, 0, 58, 25
1, 98924, Note_on_c, 0, 55, 51
1, 98935, Note_on_c, 0, 84, 64
1, 98950, Note_off_c, 0, 55, 56
1, 98950, Note_off_c, 0, 58, 50
1, 98951, Note_off_c, 0, 86, 60
1, 98991, Note_off_c, 0, 84, 62
1, 98996, Note_on_c, 0, 60, 50
1, 99007, Note_on_c, 0, 83, 58
1, 99025, Note_off_c, 0, 83, 62
1, 99072, Note_on_c, 0, 84, 69
1, 99089, Note_off_c, 0, 60, 57
1, 99116, Note_on_c, 0, 53, 50
1, 99125, Note_off_c, 0, 84, 64
1, 99140, Note_on_c, 0, 80, 69
1, 99179, Note_off_c, 0, 53, 57
1, 99212, Note_on_c, 0, 60, 63
1, 99314, Note_off_c, 0, 60, 57
1, 99319, Note_on_c, 0, 53, 56
1, 99373, Note_off_c, 0, 53, 59
1, 99413, Note_on_c, 0, 60, 62
1, 99498, Note_on_c, 0, 53, 64
1, 99501, Note_off_c, 0, 60, 60
1, 99568, Note_off_c, 0, 53, 60
1, 99605, Note_on_c, 0, 60, 60
1, 99685, Note_off_c, 0, 60, 60
1, 99689, Note_on_c, 0, 53, 60
1, 99757, Note_off_c, 0, 53, 59
1, 99775, Note_on_c, 0, 60, 73
1, 99856, Note_off_c, 0, 60, 50
1, 99891, Note_on_c, 0, 89, 90
1, 99894, Note_on_c, 0, 53, 60
1, 99967, Control_c, 0, 64, 44
1, 99981, Note_off_c, 0, 53, 63
1, 99982, Control_c, 0, 64, 58
1, 99997, Control_c, 0, 64, 62
1, 100011, Control_c, 0, 64, 64
1, 100016, Note_off_c, 0, 80, 59
1, 100019, Note_on_c, 0, 61, 72
1, 100026, Control_c, 0, 64, 64
1, 100056, Control_c, 0, 64, 65
1, 100058, Note_off_c, 0, 61, 58
1, 100071, Control_c, 0, 64, 66
1, 100085, Control_c, 0, 64, 67
1, 100099, Note_on_c, 0, 53, 69
1, 100100, Control_c, 0, 64, 67
1, 100115, Control_c, 0, 64, 68
1, 100137, Note_off_c, 0, 53, 64
1, 100181, Note_on_c, 0, 61, 58
1, 100234, Control_c, 0, 64, 68
1, 100268, Note_off_c, 0, 61, 61
1, 100270, Note_on_c, 0, 53, 65
1, 100327, Note_off_c, 0, 53, 52
1, 100339, Control_c, 0, 64, 69
1, 100368, Note_on_c, 0, 61, 71
1, 100424, Note_off_c, 0, 61, 56
1, 100443, Note_on_c, 0, 53, 65
1, 100490, Note_off_c, 0, 53, 59
1, 100543, Note_on_c, 0, 61, 56
1, 100546, Control_c, 0, 64, 64
1, 100568, Control_c, 0, 64, 0
1, 100611, Note_off_c, 0, 89, 61
1, 100613, Note_off_c, 0, 61, 58
1, 100624, Note_on_c, 0, 79, 75
1, 100633, Note_on_c, 0, 51, 60
1, 100657, Control_c, 0, 64, 63
1, 100672, Control_c, 0, 64, 64
1, 100687, Control_c, 0, 64, 64
1, 100689, Note_off_c, 0, 51, 60
1, 100715, Control_c, 0, 64, 65
1, 100723, Note_on_c, 0, 61, 66
1, 100745, Control_c, 0, 64, 66
1, 100759, Control_c, 0, 64, 66
1, 100774, Control_c, 0, 64, 67
1, 100789, Control_c, 0, 64, 67
1, 100804, Control_c, 0, 64, 68
1, 100809, Note_off_c, 0, 61, 59
1, 100811, Note_on_c, 0, 51, 61
1, 100836, Note_on_c, 0, 89, 83
1, 100863, Control_c, 0, 64, 68
1, 100887, Note_off_c, 0, 51, 56
1, 100893, Control_c, 0, 64, 69
1, 100925, Note_on_c, 0, 61, 59
1, 100938, Control_c, 0, 64, 69
1, 100967, Control_c, 0, 64, 68
1, 100982, Control_c, 0, 64, 50
1, 100994, Note_off_c, 0, 61, 58
1, 100997, Control_c, 0, 64, 0
1, 101015, Note_on_c, 0, 87, 78
1, 101018, Note_on_c, 0, 51, 52
1, 101036, Note_off_c, 0, 79, 59
1, 101069, Note_off_c, 0, 89, 60
1, 101071, Control_c, 0, 64, 23
1, 101087, Note_off_c, 0, 51, 59
1, 101087, Control_c, 0, 64, 64
1, 101113, Note_on_c, 0, 60, 59
1, 101151, Note_off_c, 0, 60, 58
1, 101161, Control_c, 0, 64, 65
1, 101176, Control_c, 0, 64, 66
1, 101190, Control_c, 0, 64, 66
1, 101203, Note_on_c, 0, 80, 78
1, 101209, Note_on_c, 0, 51, 58
1, 101239, Note_off_c, 0, 87, 64
1, 101248, Note_off_c, 0, 51, 60
1, 101294, Control_c, 0, 64, 67
1, 101301, Note_on_c, 0, 60, 47
1, 101331, Control_c, 0, 64, 68
1, 101346, Control_c, 0, 64, 68
1, 101357, Note_off_c, 0, 60, 59
1, 101361, Control_c, 0, 64, 68
1, 101376, Control_c, 0, 64, 64
1, 101390, Control_c, 0, 64, 0
1, 101402, Note_on_c, 0, 79, 72
1, 101403, Note_on_c, 0, 51, 47
1, 101408, Note_off_c, 0, 80, 62
1, 101480, Control_c, 0, 64, 13
1, 101485, Note_off_c, 0, 51, 58
1, 101495, Control_c, 0, 64, 53
1, 101510, Note_on_c, 0, 58, 47
1, 101525, Control_c, 0, 64, 58
1, 101539, Control_c, 0, 64, 63
1, 101554, Control_c, 0, 64, 65
1, 101556, Note_off_c, 0, 58, 50
1, 101569, Control_c, 0, 64, 65
1, 101583, Control_c, 0, 64, 66
1, 101591, Note_on_c, 0, 85, 73
1, 101607, Note_on_c, 0, 51, 45
1, 101608, Note_off_c, 0, 79, 59
1, 101613, Control_c, 0, 64, 66
1, 101643, Control_c, 0, 64, 67
1, 101675, Note_off_c, 0, 51, 49
1, 101687, Control_c, 0, 64, 67
1, 101700, Note_on_c, 0, 58, 47
1, 101731, Control_c, 0, 64, 68
1, 101746, Control_c, 0, 64, 68
1, 101749, Note_off_c, 0, 58, 59
1, 101761, Control_c, 0, 64, 68
1, 101776, Control_c, 0, 64, 65
1, 101781, Note_on_c, 0, 84, 68
1, 101786, Note_off_c, 0, 85, 62
1, 101790, Control_c, 0, 64, 0
1, 101792, Note_on_c, 0, 51, 49
1, 101856, Note_off_c, 0, 51, 57
1, 101880, Note_on_c, 0, 56, 45
1, 101880, Control_c, 0, 64, 50
1, 101895, Control_c, 0, 64, 55
1, 101910, Control_c, 0, 64, 54
1, 101921, Note_off_c, 0, 56, 57
1, 101940, Control_c, 0, 64, 55
1, 101955, Control_c, 0, 64, 58
1, 101969, Control_c, 0, 64, 63
1, 101974, Note_off_c, 0, 84, 60
1, 101976, Note_on_c, 0, 51, 50
1, 101984, Control_c, 0, 64, 64
1, 101987, Note_on_c, 0, 80, 66
1, 102061, Note_off_c, 0, 51, 57
1, 102066, Control_c, 0, 64, 64
1, 102094, Note_on_c, 0, 56, 30
1, 102095, Control_c, 0, 64, 65
1, 102110, Control_c, 0, 64, 66
1, 102125, Control_c, 0, 64, 65
1, 102139, Control_c, 0, 64, 0
1, 102160, Note_off_c, 0, 56, 61
1, 102186, Note_on_c, 0, 79, 67
1, 102187, Note_off_c, 0, 80, 62
1, 102190, Note_on_c, 0, 51, 46
1, 102229, Control_c, 0, 64, 63
1, 102235, Note_off_c, 0, 51, 60
1, 102243, Control_c, 0, 64, 64
1, 102278, Note_on_c, 0, 61, 48
1, 102352, Note_off_c, 0, 61, 58
1, 102364, Note_on_c, 0, 51, 46
1, 102386, Note_on_c, 0, 89, 71
1, 102431, Note_off_c, 0, 79, 54
1, 102436, Control_c, 0, 64, 64
1, 102444, Note_off_c, 0, 51, 56
1, 102466, Control_c, 0, 64, 65
1, 102478, Note_on_c, 0, 61, 53
1, 102495, Control_c, 0, 64, 61
1, 102510, Control_c, 0, 64, 0
1, 102554, Note_off_c, 0, 61, 59
1, 102571, Note_on_c, 0, 51, 55
1, 102581, Note_on_c, 0, 87, 66
1, 102604, Note_off_c, 0, 89, 45
1, 102613, Control_c, 0, 64, 30
1, 102628, Control_c, 0, 64, 38
1, 102642, Note_off_c, 0, 51, 56
1, 102643, Control_c, 0, 64, 48
1, 102658, Control_c, 0, 64, 55
1, 102667, Note_on_c, 0, 60, 58
1, 102673, Control_c, 0, 64, 63
1, 102689, Control_c, 0, 64, 64
1, 102703, Control_c, 0, 64, 65
1, 102706, Note_off_c, 0, 60, 57
1, 102768, Note_on_c, 0, 51, 59
1, 102774, Note_on_c, 0, 80, 74
1, 102775, Note_off_c, 0, 87, 64
1, 102815, Control_c, 0, 64, 65
1, 102838, Note_off_c, 0, 51, 46
1, 102844, Control_c, 0, 64, 66
1, 102859, Control_c, 0, 64, 66
1, 102874, Control_c, 0, 64, 67
1, 102883, Note_on_c, 0, 60, 51
1, 102889, Control_c, 0, 64, 66
1, 102904, Control_c, 0, 64, 64
1, 102918, Control_c, 0, 64, 0
1, 102920, Note_off_c, 0, 60, 58
1, 102968, Note_off_c, 0, 80, 62
1, 102970, Note_on_c, 0, 51, 52
1, 102970, Note_on_c, 0, 79, 71
1, 103030, Note_off_c, 0, 51, 54
1, 103069, Note_on_c, 0, 58, 53
1, 103096, Control_c, 0, 64, 53
1, 103111, Control_c, 0, 64, 62
1, 103123, Note_off_c, 0, 58, 58
1, 103126, Control_c, 0, 64, 64
1, 103153, Note_on_c, 0, 51, 56
1, 103156, Control_c, 0, 64, 64
1, 103175, Note_on_c, 0, 85, 75
1, 103183, Note_off_c, 0, 79, 59
1, 103200, Control_c, 0, 64, 64
1, 103215, Control_c, 0, 64, 63
1, 103225, Note_off_c, 0, 51, 48
1, 103230, Control_c, 0, 64, 62
1, 103244, Control_c, 0, 64, 63
1, 103247, Note_on_c, 0, 58, 54
1, 103274, Control_c, 0, 64, 63
1, 103303, Control_c, 0, 64, 63
1, 103310, Note_off_c, 0, 58, 49
1, 103318, Control_c, 0, 64, 57
1, 103333, Control_c, 0, 64, 0
1, 103339, Note_on_c, 0, 51, 59
1, 103376, Note_on_c, 0, 84, 72
1, 103380, Note_off_c, 0, 85, 58
1, 103435, Note_off_c, 0, 51, 59
1, 103476, Note_on_c, 0, 56, 33
1, 103497, Control_c, 0, 64, 23
1, 103512, Note_off_c, 0, 56, 52
1, 103512, Control_c, 0, 64, 53
1, 103526, Control_c, 0, 64, 61
1, 103541, Control_c, 0, 64, 62
1, 103561, Note_on_c, 0, 51, 56
1, 103561, Note_on_c, 0, 80, 71
1, 103561, Note_off_c, 0, 84, 60
1, 103564, Control_c, 0, 64, 62
1, 103593, Control_c, 0, 64, 63
1, 103604, Note_off_c, 0, 51, 61
1, 103623, Note_on_c, 0, 56, 47
1, 103653, Control_c, 0, 64, 63
1, 103667, Control_c, 0, 64, 64
1, 103697, Control_c, 0, 64, 64
1, 103711, Control_c, 0, 64, 64
1, 103719, Note_off_c, 0, 56, 63
1, 103726, Control_c, 0, 64, 60
1, 103741, Note_on_c, 0, 51, 52
1, 103741, Control_c, 0, 64, 0
1, 103755, Note_on_c, 0, 74, 84
1, 103762, Note_off_c, 0, 80, 62
1, 103828, Note_off_c, 0, 51, 58
1, 103843, Note_on_c, 0, 56, 62
1, 103938, Note_off_c, 0, 56, 63
1, 103940, Note_on_c, 0, 51, 66
1, 103948, Note_on_c, 0, 83, 87
1, 104004, Note_off_c, 0, 74, 54
1, 104031, Note_off_c, 0, 51, 59
1, 104054, Note_on_c, 0, 56, 62
1, 104139, Note_off_c, 0, 56, 63
1, 104144, Note_on_c, 0, 80, 86
1, 104145, Note_on_c, 0, 51, 66
1, 104169, Note_off_c, 0, 83, 61
1, 104239, Note_off_c, 0, 51, 60
1, 104253, Note_on_c, 0, 56, 66
1, 104333, Note_off_c, 0, 56, 64
1, 104345, Note_on_c, 0, 74, 85
1, 104353, Note_on_c, 0, 51, 64
1, 104358, Note_off_c, 0, 80, 63
1, 104422, Note_off_c, 0, 51, 58
1, 104437, Note_on_c, 0, 56, 65
1, 104522, Note_off_c, 0, 56, 62
1, 104536, Note_on_c, 0, 51, 64
1, 104544, Note_on_c, 0, 75, 90
1, 104571, Note_off_c, 0, 74, 61
1, 104615, Note_off_c, 0, 51, 60
1, 104646, Note_on_c, 0, 55, 61
1, 104726, Note_off_c, 0, 55, 61
1, 104732, Note_on_c, 0, 51, 61
1, 104749, Note_on_c, 0, 82, 80
1, 104768, Note_off_c, 0, 75, 62
1, 104801, Note_off_c, 0, 51, 60
1, 104841, Note_on_c, 0, 55, 60
1, 104914, Note_off_c, 0, 55, 60
1, 104921, Note_on_c, 0, 51, 63
1, 104927, Note_on_c, 0, 79, 78
1, 104955, Note_off_c, 0, 82, 53
1, 104974, Note_off_c, 0, 51, 57
1, 105022, Note_on_c, 0, 55, 60
1, 105083, Note_off_c, 0, 55, 57
1, 105108, Note_on_c, 0, 51, 61
1, 105124, Note_on_c, 0, 75, 78
1, 105151, Note_off_c, 0, 51, 60
1, 105163, Note_off_c, 0, 79, 61
1, 105196, Note_on_c, 0, 55, 50
1, 105276, Note_off_c, 0, 55, 61
1, 105282, Note_on_c, 0, 51, 58
1, 105300, Note_on_c, 0, 74, 70
1, 105308, Note_off_c, 0, 75, 61
1, 105355, Note_off_c, 0, 51, 57
1, 105385, Note_on_c, 0, 56, 66
1, 105417, Note_off_c, 0, 74, 55
1, 105443, Note_off_c, 0, 56, 51
1, 105481, Note_on_c, 0, 51, 59
1, 105502, Note_on_c, 0, 71, 65
1, 105532, Note_off_c, 0, 51, 55
1, 105591, Note_on_c, 0, 56, 40
1, 105657, Note_off_c, 0, 56, 55
1, 105676, Note_off_c, 0, 71, 60
1, 105677, Note_on_c, 0, 68, 70
1, 105686, Note_on_c, 0, 51, 48
1, 105747, Note_off_c, 0, 51, 56
1, 105790, Note_on_c, 0, 56, 37
1, 105854, Note_off_c, 0, 68, 62
1, 105860, Note_off_c, 0, 56, 62
1, 105876, Note_on_c, 0, 62, 66
1, 105884, Note_on_c, 0, 51, 51
1, 105945, Note_off_c, 0, 51, 57
1, 105983, Note_on_c, 0, 56, 47
1, 106050, Note_off_c, 0, 56, 61
1, 106073, Note_off_c, 0, 62, 59
1, 106079, Note_on_c, 0, 51, 49
1, 106082, Note_on_c, 0, 63, 62
1, 106127, Note_off_c, 0, 51, 59
1, 106177, Note_on_c, 0, 55, 44
1, 106232, Note_off_c, 0, 55, 53
1, 106265, Note_on_c, 0, 51, 42
1, 106270, Note_on_c, 0, 70, 64
1, 106272, Note_off_c, 0, 63, 60
1, 106313, Note_off_c, 0, 51, 59
1, 106362, Note_on_c, 0, 55, 44
1, 106438, Note_off_c, 0, 55, 53
1, 106457, Note_off_c, 0, 70, 58
1, 106459, Note_on_c, 0, 51, 47
1, 106462, Note_on_c, 0, 67, 62
1, 106505, Note_off_c, 0, 51, 59
1, 106578, Note_on_c, 0, 55, 40
1, 106624, Note_off_c, 0, 55, 47
1, 106653, Note_on_c, 0, 51, 39
1, 106669, Note_on_c, 0, 63, 64
1, 106673, Note_off_c, 0, 67, 59
1, 106697, Note_off_c, 0, 51, 63
1, 106745, Note_on_c, 0, 55, 41
1, 106858, Note_on_c, 0, 51, 34
1, 106870, Note_off_c, 0, 55, 34
1, 106871, Note_on_c, 0, 62, 60
1, 106877, Note_off_c, 0, 63, 60
1, 106885, Note_on_c, 0, 56, 37
1, 107075, Note_on_c, 0, 59, 69
1, 107094, Note_off_c, 0, 62, 54
1, 107285, Note_on_c, 0, 58, 75
1, 107285, Note_off_c, 0, 59, 61
1, 107485, Note_off_c, 0, 58, 62
1, 107496, Note_on_c, 0, 62, 75
1, 107704, Note_on_c, 0, 65, 71
1, 107714, Note_off_c, 0, 62, 51
1, 107885, Note_off_c, 0, 65, 62
1, 107889, Note_on_c, 0, 68, 67
1, 108101, Note_on_c, 0, 71, 64
1, 108106, Note_off_c, 0, 68, 63
1, 108140, Note_off_c, 0, 56, 56
1, 108285, Note_off_c, 0, 71, 59
1, 108298, Note_on_c, 0, 62, 60
1, 108479, Note_off_c, 0, 62, 58
1, 108512, Note_on_c, 0, 63, 47
1, 108519, Note_on_c, 0, 55, 36
1, 108709, Note_off_c, 0, 51, 59
1, 108725, Note_off_c, 0, 55, 36
1, 108789, Note_off_c, 0, 63, 58
1, 108817, Note_on_c, 0, 62, 47
1, 108875, Note_off_c, 0, 62, 60
1, 108896, Note_on_c, 0, 55, 31
1, 108915, Note_on_c, 0, 63, 52
1, 108932, Note_off_c, 0, 55, 52
1, 108959, Note_off_c, 0, 63, 57
1, 108981, Poly_aftertouch_c, 0, 51, 0
1, 109000, Note_on_c, 0, 62, 46
1, 109058, Note_off_c, 0, 62, 59
1, 109081, Note_on_c, 0, 51, 44
1, 109088, Note_on_c, 0, 63, 48
1, 109099, Poly_aftertouch_c, 0, 55, 127
1, 109110, Note_off_c, 0, 51, 58
1, 109138, Note_off_c, 0, 63, 58
1, 109139, Poly_aftertouch_c, 0, 55, 0
1, 109177, Note_on_c, 0, 62, 47
1, 109239, Note_off_c, 0, 62, 55
1, 109293, Note_on_c, 0, 63, 41
1, 109302, Note_on_c, 0, 55, 22
1, 109319, Note_on_c, 0, 51, 20
1, 109660, Note_off_c, 0, 63, 60
1, 109676, Note_off_c, 0, 55, 54
1, 109699, Note_off_c, 0, 51, 58
1, 109819, Control_c, 0, 64, 34
1, 109834, Control_c, 0, 64, 46
1, 109848, Control_c, 0, 64, 55
1, 109863, Control_c, 0, 64, 62
1, 109879, Control_c, 0, 64, 64
1, 109894, Control_c, 0, 64, 65
1, 109909, Control_c, 0, 64, 65
1, 109924, Control_c, 0, 64, 66
1, 109939, Control_c, 0, 64, 66
1, 109968, Control_c, 0, 64, 67
1, 109983, Control_c, 0, 64, 67
1, 109998, Control_c, 0, 64, 68
1, 110013, Control_c, 0, 64, 68
1, 110027, Control_c, 0, 64, 69
1, 110057, Control_c, 0, 64, 70
1, 110070, Note_on_c, 0, 44, 28
1, 110071, Control_c, 0, 64, 71
1, 110084, Note_on_c, 0, 56, 32
1, 110086, Control_c, 0, 64, 72
1, 110101, Control_c, 0, 64, 73
1, 110116, Control_c, 0, 64, 74
1, 110131, Control_c, 0, 64, 75
1, 110146, Control_c, 0, 64, 76
1, 110161, Control_c, 0, 64, 77
1, 110176, Control_c, 0, 64, 79
1, 110190, Control_c, 0, 64, 79
1, 110205, Control_c, 0, 64, 80
1, 110220, Control_c, 0, 64, 80
1, 110250, Control_c, 0, 64, 81
1, 110279, Control_c, 0, 64, 81
1, 110301, Control_c, 0, 64, 82
1, 110316, Control_c, 0, 64, 83
1, 110346, Control_c, 0, 64, 83
1, 110360, Control_c, 0, 64, 84
1, 110375, Control_c, 0, 64, 84
1, 110390, Control_c, 0, 64, 85
1, 110405, Control_c, 0, 64, 85
1, 110420, Control_c, 0, 64, 86
1, 110435, Control_c, 0, 64, 86
1, 110465, Control_c, 0, 64, 87
1, 110479, Control_c, 0, 64, 88
1, 110494, Control_c, 0, 64, 89
1, 110509, Control_c, 0, 64, 89
1, 110516, Note_on_c, 0, 39, 40
1, 110518, Note_off_c, 0, 44, 49
1, 110524, Control_c, 0, 64, 90
1, 110540, Note_on_c, 0, 51, 42
1, 110553, Control_c, 0, 64, 90
1, 110565, Note_off_c, 0, 56, 35
1, 110568, Control_c, 0, 64, 91
1, 110583, Control_c, 0, 64, 92
1, 110597, Control_c, 0, 64, 92
1, 110612, Control_c, 0, 64, 93
1, 110627, Control_c, 0, 64, 94
1, 110642, Control_c, 0, 64, 95
1, 110657, Control_c, 0, 64, 95
1, 110673, Control_c, 0, 64, 96
1, 110717, Control_c, 0, 64, 98
1, 110964, Note_off_c, 0, 39, 35
1, 110966, Note_off_c, 0, 51, 34
1, 110969, Control_c, 0, 64, 96
1, 110979, Note_on_c, 0, 36, 34
1, 110983, Control_c, 0, 64, 91
1, 110998, Note_on_c, 0, 48, 43
1, 110998, Control_c, 0, 64, 84
1, 111013, Control_c, 0, 64, 76
1, 111028, Control_c, 0, 64, 69
1, 111050, Control_c, 0, 64, 67
1, 111065, Control_c, 0, 64, 68
1, 111080, Control_c, 0, 64, 72
1, 111094, Control_c, 0, 64, 76
1, 111109, Control_c, 0, 64, 79
1, 111124, Control_c, 0, 64, 80
1, 111139, Control_c, 0, 64, 81
1, 111183, Control_c, 0, 64, 82
1, 111198, Control_c, 0, 64, 82
1, 111213, Control_c, 0, 64, 85
1, 111227, Control_c, 0, 64, 87
1, 111242, Control_c, 0, 64, 90
1, 111257, Control_c, 0, 64, 91
1, 111264, Note_off_c, 0, 48, 33
1, 111272, Control_c, 0, 64, 91
1, 111320, Note_off_c, 0, 36, 35
1, 111361, Control_c, 0, 64, 91
1, 111390, Control_c, 0, 64, 90
1, 111480, Control_c, 0, 64, 89
1, 111495, Control_c, 0, 64, 88
1, 111510, Control_c, 0, 64, 86
1, 111524, Control_c, 0, 64, 85
1, 111539, Control_c, 0, 64, 85
1, 111584, Control_c, 0, 64, 84
1, 111654, Note_on_c, 0, 41, 41
1, 111658, Note_on_c, 0, 53, 45
1, 111672, Control_c, 0, 64, 84
1, 111687, Control_c, 0, 64, 83
1, 111702, Control_c, 0, 64, 82
1, 111717, Control_c, 0, 64, 81
1, 111732, Control_c, 0, 64, 79
1, 111747, Control_c, 0, 64, 77
1, 111761, Control_c, 0, 64, 77
1, 111798, Control_c, 0, 64, 76
1, 111813, Control_c, 0, 64, 75
1, 111828, Control_c, 0, 64, 73
1, 111842, Control_c, 0, 64, 67
1, 111857, Control_c, 0, 64, 0
1, 111881, Note_off_c, 0, 41, 54
1, 111892, Note_off_c, 0, 53, 55
1, 111898, Note_on_c, 0, 46, 39
1, 111903, Note_on_c, 0, 34, 34
1, 111962, Control_c, 0, 64, 38
1, 111977, Control_c, 0, 64, 66
1, 111991, Control_c, 0, 64, 67
1, 112006, Control_c, 0, 64, 68
1, 112021, Control_c, 0, 64, 68
1, 112035, Note_off_c, 0, 46, 59
1, 112036, Control_c, 0, 64, 69
1, 112051, Control_c, 0, 64, 70
1, 112065, Control_c, 0, 64, 71
1, 112080, Control_c, 0, 64, 71
1, 112110, Note_off_c, 0, 34, 48
1, 112125, Control_c, 0, 64, 72
1, 112140, Control_c, 0, 64, 72
1, 112155, Control_c, 0, 64, 73
1, 112184, Control_c, 0, 64, 73
1, 112199, Control_c, 0, 64, 74
1, 112431, Poly_aftertouch_c, 0, 39, 127
1, 112456, Note_on_c, 0, 51, 49
1, 112480, Poly_aftertouch_c, 0, 39, 0
1, 112567, Note_on_c, 0, 39, 23
1, 112608, Note_off_c, 0, 39, 38
1, 112667, Control_c, 0, 64, 73
1, 112681, Control_c, 0, 64, 67
1, 112696, Control_c, 0, 64, 0
1, 112697, Note_off_c, 0, 51, 52
1, 112705, Note_on_c, 0, 32, 37
1, 112715, Note_on_c, 0, 44, 38
1, 112795, Note_off_c, 0, 44, 56
1, 112799, Control_c, 0, 64, 64
1, 112814, Control_c, 0, 64, 65
1, 112829, Control_c, 0, 64, 66
1, 112844, Control_c, 0, 64, 67
1, 112859, Control_c, 0, 64, 67
1, 112873, Control_c, 0, 64, 68
1, 112888, Control_c, 0, 64, 69
1, 112903, Control_c, 0, 64, 70
1, 112918, Control_c, 0, 64, 71
1, 112933, Control_c, 0, 64, 71
1, 112934, Note_off_c, 0, 32, 57
1, 112978, Control_c, 0, 64, 72
1, 113067, Control_c, 0, 64, 71
1, 113097, Control_c, 0, 64, 71
1, 113112, Control_c, 0, 64, 70
1, 113127, Control_c, 0, 64, 68
1, 113142, Control_c, 0, 64, 67
1, 113156, Control_c, 0, 64, 66
1, 113171, Control_c, 0, 64, 66
1, 113215, Control_c, 0, 64, 65
1, 113245, Control_c, 0, 64, 64
1, 113260, Control_c, 0, 64, 64
1, 113268, Note_on_c, 0, 72, 61
1, 113275, Control_c, 0, 64, 62
1, 113297, Control_c, 0, 64, 55
1, 113312, Control_c, 0, 64, 41
1, 113326, Control_c, 0, 64, 0
1, 113478, Note_on_c, 0, 61, 57
1, 113502, Note_off_c, 0, 72, 59
1, 113535, Note_off_c, 0, 61, 61
1, 113642, Note_on_c, 0, 56, 46
1, 113653, Note_on_c, 0, 53, 43
1, 113842, Note_off_c, 0, 56, 60
1, 113872, Note_on_c, 0, 58, 55
1, 113877, Note_on_c, 0, 55, 50
1, 113885, Note_off_c, 0, 53, 36
1, 113917, Note_off_c, 0, 58, 61
1, 113931, Note_off_c, 0, 55, 62
1, 114047, Note_on_c, 0, 70, 64
1, 114244, Note_on_c, 0, 60, 60
1, 114264, Note_off_c, 0, 70, 61
1, 114280, Note_off_c, 0, 60, 62
1, 114417, Note_on_c, 0, 55, 44
1, 114420, Note_on_c, 0, 52, 46
1, 114597, Note_off_c, 0, 52, 49
1, 114601, Note_off_c, 0, 55, 53
1, 114613, Note_on_c, 0, 56, 63
1, 114622, Note_on_c, 0, 53, 55
1, 114651, Note_off_c, 0, 56, 66
1, 114661, Note_off_c, 0, 53, 63
1, 114804, Note_on_c, 0, 68, 60
1, 114998, Note_off_c, 0, 68, 61
1, 115005, Note_on_c, 0, 59, 57
1, 115171, Note_off_c, 0, 59, 50
1, 115192, Note_on_c, 0, 53, 68
1, 115194, Note_on_c, 0, 50, 62
1, 115201, Note_on_c, 0, 68, 57
1, 115219, Note_off_c, 0, 50, 63
1, 115219, Note_off_c, 0, 53, 65
1, 115413, Note_off_c, 0, 68, 49
1, 115415, Note_on_c, 0, 60, 65
1, 115600, Note_off_c, 0, 60, 57
1, 115619, Note_on_c, 0, 51, 56
1, 115622, Note_on_c, 0, 48, 60
1, 115625, Note_on_c, 0, 68, 61
1, 115644, Note_off_c, 0, 51, 59
1, 115646, Note_off_c, 0, 48, 63
1, 115699, Note_off_c, 0, 68, 0
1, 115737, Poly_aftertouch_c, 0, 68, 127
1, 115796, Poly_aftertouch_c, 0, 68, 0
1, 115819, Note_on_c, 0, 62, 68
1, 115994, Note_off_c, 0, 62, 59
1, 116009, Note_on_c, 0, 50, 64
1, 116019, Note_on_c, 0, 47, 52
1, 116022, Note_on_c, 0, 68, 67
1, 116031, Note_off_c, 0, 50, 63
1, 116047, Note_off_c, 0, 47, 52
1, 116059, Note_off_c, 0, 68, 59
1, 116149, Poly_aftertouch_c, 0, 68, 127
1, 116167, Poly_aftertouch_c, 0, 68, 0
1, 116206, Note_on_c, 0, 60, 67
1, 116387, Note_off_c, 0, 60, 56
1, 116409, Note_on_c, 0, 51, 63
1, 116410, Note_on_c, 0, 68, 63
1, 116427, Note_on_c, 0, 48, 32
1, 116433, Note_off_c, 0, 51, 63
1, 116450, Note_off_c, 0, 68, 57
1, 116462, Note_off_c, 0, 48, 32
1, 116542, Poly_aftertouch_c, 0, 68, 127
1, 116557, Poly_aftertouch_c, 0, 68, 0
1, 116594, Note_on_c, 0, 59, 61
1, 116634, Note_off_c, 0, 59, 61
1, 116673, Note_on_c, 0, 68, 62
1, 116764, Note_off_c, 0, 68, 60
1, 116766, Note_on_c, 0, 53, 73
1, 116774, Note_on_c, 0, 50, 65
1, 116778, Note_on_c, 0, 59, 57
1, 116789, Note_off_c, 0, 53, 67
1, 116796, Note_off_c, 0, 50, 62
1, 116805, Note_off_c, 0, 59, 62
1, 116849, Note_on_c, 0, 68, 57
1, 116946, Note_off_c, 0, 68, 60
1, 116960, Note_on_c, 0, 60, 63
1, 117000, Note_off_c, 0, 60, 58
1, 117055, Note_on_c, 0, 68, 60
1, 117149, Note_off_c, 0, 68, 62
1, 117160, Note_on_c, 0, 60, 68
1, 117162, Note_on_c, 0, 51, 67
1, 117170, Note_on_c, 0, 48, 65
1, 117190, Note_off_c, 0, 51, 64
1, 117193, Note_off_c, 0, 60, 62
1, 117199, Note_off_c, 0, 48, 64
1, 117233, Note_on_c, 0, 68, 66
1, 117337, Note_off_c, 0, 68, 62
1, 117344, Note_on_c, 0, 62, 66
1, 117398, Note_off_c, 0, 62, 62
1, 117431, Note_on_c, 0, 68, 62
1, 117516, Note_off_c, 0, 68, 62
1, 117518, Note_on_c, 0, 62, 69
1, 117521, Note_on_c, 0, 50, 72
1, 117527, Note_on_c, 0, 47, 67
1, 117552, Note_off_c, 0, 50, 65
1, 117554, Note_off_c, 0, 47, 62
1, 117560, Note_off_c, 0, 62, 62
1, 117604, Note_on_c, 0, 68, 68
1, 117692, Note_off_c, 0, 68, 61
1, 117706, Note_on_c, 0, 59, 67
1, 117749, Note_off_c, 0, 59, 60
1, 117801, Note_on_c, 0, 68, 66
1, 117896, Note_on_c, 0, 53, 77
1, 117896, Note_on_c, 0, 59, 67
1, 117899, Note_on_c, 0, 50, 65
1, 117901, Note_off_c, 0, 68, 61
1, 117918, Note_off_c, 0, 53, 67
1, 117921, Note_off_c, 0, 50, 62
1, 117954, Note_off_c, 0, 59, 62
1, 117977, Note_on_c, 0, 68, 67
1, 118065, Note_off_c, 0, 68, 63
1, 118084, Note_on_c, 0, 60, 75
1, 118152, Note_off_c, 0, 60, 60
1, 118176, Note_on_c, 0, 72, 71
1, 118233, Note_off_c, 0, 72, 59
1, 118270, Note_on_c, 0, 60, 70
1, 118282, Note_on_c, 0, 55, 77
1, 118284, Note_on_c, 0, 51, 74
1, 118305, Note_off_c, 0, 55, 66
1, 118312, Note_off_c, 0, 51, 64
1, 118334, Note_off_c, 0, 60, 61
1, 118370, Note_on_c, 0, 72, 71
1, 118418, Note_off_c, 0, 72, 60
1, 118472, Note_on_c, 0, 59, 70
1, 118537, Note_off_c, 0, 59, 61
1, 118564, Note_on_c, 0, 71, 71
1, 118629, Note_off_c, 0, 71, 63
1, 118649, Note_on_c, 0, 53, 82
1, 118653, Note_on_c, 0, 59, 78
1, 118657, Note_on_c, 0, 50, 73
1, 118672, Note_off_c, 0, 53, 67
1, 118683, Note_off_c, 0, 50, 66
1, 118710, Note_off_c, 0, 59, 62
1, 118752, Note_on_c, 0, 71, 72
1, 118820, Note_off_c, 0, 71, 61
1, 118847, Note_on_c, 0, 60, 82
1, 118907, Note_off_c, 0, 60, 61
1, 118946, Note_on_c, 0, 72, 68
1, 118982, Note_on_c, 0, 71, 16
1, 119013, Note_off_c, 0, 72, 62
1, 119023, Note_off_c, 0, 71, 29
1, 119029, Note_on_c, 0, 60, 80
1, 119035, Note_on_c, 0, 51, 79
1, 119036, Note_on_c, 0, 55, 78
1, 119060, Note_off_c, 0, 55, 65
1, 119061, Note_off_c, 0, 51, 63
1, 119086, Note_off_c, 0, 60, 61
1, 119118, Note_on_c, 0, 72, 77
1, 119172, Note_off_c, 0, 72, 59
1, 119223, Note_on_c, 0, 61, 80
1, 119289, Note_off_c, 0, 61, 62
1, 119322, Note_on_c, 0, 73, 70
1, 119396, Note_off_c, 0, 73, 59
1, 119406, Note_on_c, 0, 61, 79
1, 119410, Note_on_c, 0, 52, 84
1, 119411, Note_on_c, 0, 55, 84
1, 119433, Note_off_c, 0, 52, 65
1, 119437, Note_off_c, 0, 55, 66
1, 119463, Note_off_c, 0, 61, 62
1, 119494, Note_on_c, 0, 73, 79
1, 119584, Note_off_c, 0, 73, 61
1, 119602, Note_on_c, 0, 62, 85
1, 119665, Note_off_c, 0, 62, 63
1, 119697, Note_on_c, 0, 74, 69
1, 119780, Note_off_c, 0, 74, 61
1, 119789, Note_on_c, 0, 57, 84
1, 119792, Note_on_c, 0, 62, 80
1, 119792, Note_on_c, 0, 53, 82
1, 119819, Note_off_c, 0, 57, 69
1, 119819, Note_off_c, 0, 53, 66
1, 119860, Note_off_c, 0, 62, 64
1, 119881, Note_on_c, 0, 74, 78
1, 119940, Note_off_c, 0, 74, 62
1, 119975, Note_on_c, 0, 61, 87
1, 120045, Note_off_c, 0, 61, 59
1, 120089, Note_on_c, 0, 73, 69
1, 120152, Note_off_c, 0, 73, 59
1, 120154, Note_on_c, 0, 55, 86
1, 120159, Note_on_c, 0, 52, 81
1, 120162, Note_on_c, 0, 61, 81
1, 120179, Note_off_c, 0, 55, 66
1, 120184, Note_off_c, 0, 52, 68
1, 120232, Note_off_c, 0, 61, 60
1, 120256, Note_on_c, 0, 73, 76
1, 120337, Note_off_c, 0, 73, 62
1, 120353, Note_on_c, 0, 62, 87
1, 120419, Note_off_c, 0, 62, 62
1, 120446, Note_on_c, 0, 74, 75
1, 120516, Note_off_c, 0, 74, 62
1, 120535, Note_on_c, 0, 62, 81
1, 120539, Note_on_c, 0, 53, 81
1, 120539, Note_on_c, 0, 57, 82
1, 120561, Note_off_c, 0, 53, 67
1, 120562, Note_off_c, 0, 57, 69
1, 120603, Note_off_c, 0, 62, 63
1, 120622, Note_on_c, 0, 74, 77
1, 120678, Note_off_c, 0, 74, 63
1, 120723, Note_on_c, 0, 63, 89
1, 120791, Note_off_c, 0, 63, 62
1, 120823, Note_on_c, 0, 75, 77
1, 120889, Note_off_c, 0, 75, 61
1, 120902, Note_on_c, 0, 57, 83
1, 120904, Note_on_c, 0, 63, 87
1, 120907, Note_on_c, 0, 53, 80
1, 120932, Note_off_c, 0, 53, 65
1, 120934, Note_off_c, 0, 57, 68
1, 120957, Note_off_c, 0, 63, 63
1, 120990, Note_on_c, 0, 75, 86
1, 121038, Note_on_c, 0, 73, 5
1, 121085, Note_off_c, 0, 75, 62
1, 121091, Note_off_c, 0, 73, 34
1, 121097, Note_on_c, 0, 59, 90
1, 121098, Note_on_c, 0, 64, 86
1, 121101, Note_on_c, 0, 52, 82
1, 121103, Note_on_c, 0, 56, 81
1, 121110, Control_c, 0, 64, 66
1, 121125, Control_c, 0, 64, 72
1, 121132, Note_off_c, 0, 56, 69
1, 121138, Note_off_c, 0, 59, 63
1, 121140, Control_c, 0, 64, 75
1, 121150, Note_off_c, 0, 52, 63
1, 121154, Control_c, 0, 64, 77
1, 121163, Note_off_c, 0, 64, 65
1, 121190, Note_on_c, 0, 76, 81
1, 121268, Note_off_c, 0, 76, 58
1, 121283, Note_on_c, 0, 64, 83
1, 121318, Control_c, 0, 64, 77
1, 121347, Note_off_c, 0, 64, 63
1, 121347, Control_c, 0, 64, 76
1, 121373, Note_on_c, 0, 76, 83
1, 121377, Control_c, 0, 64, 76
1, 121466, Note_on_c, 0, 64, 83
1, 121467, Note_off_c, 0, 76, 50
1, 121534, Note_off_c, 0, 64, 64
1, 121548, Control_c, 0, 64, 75
1, 121570, Note_on_c, 0, 76, 81
1, 121592, Control_c, 0, 64, 75
1, 121640, Note_off_c, 0, 76, 60
1, 121657, Note_on_c, 0, 62, 93
1, 121658, Note_on_c, 0, 64, 84
1, 121714, Note_off_c, 0, 64, 64
1, 121751, Note_on_c, 0, 76, 79
1, 121768, Control_c, 0, 64, 70
1, 121783, Control_c, 0, 64, 0
1, 121852, Note_on_c, 0, 68, 100
1, 121852, Note_off_c, 0, 76, 61
1, 121866, Note_on_c, 0, 64, 88
1, 121878, Note_off_c, 0, 62, 62
1, 121888, Control_c, 0, 64, 67
1, 121902, Control_c, 0, 64, 69
1, 121907, Note_off_c, 0, 68, 67
1, 121917, Control_c, 0, 64, 70
1, 121920, Note_off_c, 0, 64, 66
1, 121932, Control_c, 0, 64, 71
1, 121947, Control_c, 0, 64, 71
1, 121957, Note_on_c, 0, 76, 86
1, 121962, Control_c, 0, 64, 72
1, 121977, Control_c, 0, 64, 73
1, 121992, Control_c, 0, 64, 74
1, 122025, Note_off_c, 0, 76, 58
1, 122047, Note_on_c, 0, 64, 80
1, 122095, Control_c, 0, 64, 74
1, 122109, Note_off_c, 0, 64, 64
1, 122125, Control_c, 0, 64, 73
1, 122139, Note_on_c, 0, 76, 78
1, 122140, Control_c, 0, 64, 73
1, 122155, Control_c, 0, 64, 72
1, 122169, Control_c, 0, 64, 72
1, 122199, Control_c, 0, 64, 71
1, 122215, Note_off_c, 0, 76, 54
1, 122225, Note_on_c, 0, 64, 81
1, 122243, Control_c, 0, 64, 71
1, 122293, Note_off_c, 0, 64, 64
1, 122332, Note_on_c, 0, 76, 81
1, 122386, Note_on_c, 0, 60, 89
1, 122396, Note_off_c, 0, 76, 56
1, 122399, Control_c, 0, 64, 70
1, 122405, Note_on_c, 0, 64, 84
1, 122445, Control_c, 0, 64, 71
1, 122466, Note_off_c, 0, 64, 63
1, 122503, Control_c, 0, 64, 68
1, 122510, Note_on_c, 0, 76, 80
1, 122518, Control_c, 0, 64, 0
1, 122582, Note_on_c, 0, 69, 105
1, 122601, Note_on_c, 0, 64, 82
1, 122605, Note_off_c, 0, 76, 43
1, 122607, Control_c, 0, 64, 65
1, 122622, Control_c, 0, 64, 68
1, 122637, Note_off_c, 0, 69, 62
1, 122637, Control_c, 0, 64, 69
1, 122653, Control_c, 0, 64, 70
1, 122657, Note_off_c, 0, 64, 64
1, 122668, Control_c, 0, 64, 71
1, 122672, Note_off_c, 0, 60, 55
1, 122682, Control_c, 0, 64, 71
1, 122689, Note_on_c, 0, 76, 81
1, 122697, Control_c, 0, 64, 72
1, 122712, Control_c, 0, 64, 73
1, 122782, Note_off_c, 0, 76, 52
1, 122783, Note_on_c, 0, 64, 81
1, 122800, Control_c, 0, 64, 74
1, 122848, Note_off_c, 0, 64, 64
1, 122878, Note_on_c, 0, 76, 65
1, 122889, Control_c, 0, 64, 74
1, 122891, Note_on_c, 0, 77, 60
1, 122913, Note_off_c, 0, 77, 41
1, 122919, Control_c, 0, 64, 75
1, 122940, Note_off_c, 0, 76, 60
1, 122956, Note_on_c, 0, 64, 86
1, 123012, Note_off_c, 0, 64, 64
1, 123056, Note_on_c, 0, 76, 74
1, 123119, Note_on_c, 0, 44, 87
1, 123125, Note_on_c, 0, 47, 80
1, 123142, Note_on_c, 0, 64, 86
1, 123143, Note_off_c, 0, 76, 52
1, 123147, Note_off_c, 0, 47, 65
1, 123148, Control_c, 0, 64, 76
1, 123161, Note_off_c, 0, 44, 61
1, 123163, Control_c, 0, 64, 76
1, 123178, Control_c, 0, 64, 77
1, 123193, Control_c, 0, 64, 77
1, 123206, Note_off_c, 0, 64, 63
1, 123208, Control_c, 0, 64, 78
1, 123223, Control_c, 0, 64, 78
1, 123238, Control_c, 0, 64, 79
1, 123241, Note_on_c, 0, 76, 81
1, 123267, Control_c, 0, 64, 78
1, 123282, Control_c, 0, 64, 72
1, 123297, Control_c, 0, 64, 48
1, 123312, Control_c, 0, 64, 0
1, 123330, Note_off_c, 0, 76, 57
1, 123333, Note_on_c, 0, 62, 87
1, 123336, Note_on_c, 0, 59, 83
1, 123338, Note_on_c, 0, 64, 87
1, 123386, Control_c, 0, 64, 62
1, 123400, Control_c, 0, 64, 67
1, 123402, Note_off_c, 0, 64, 64
1, 123415, Control_c, 0, 64, 68
1, 123430, Control_c, 0, 64, 69
1, 123436, Note_on_c, 0, 76, 81
1, 123439, Note_off_c, 0, 62, 64
1, 123445, Control_c, 0, 64, 70
1, 123461, Control_c, 0, 64, 70
1, 123476, Control_c, 0, 64, 71
1, 123477, Note_off_c, 0, 59, 61
1, 123518, Note_on_c, 0, 64, 86
1, 123533, Note_off_c, 0, 76, 55
1, 123585, Note_off_c, 0, 64, 63
1, 123617, Note_on_c, 0, 76, 82
1, 123623, Control_c, 0, 64, 70
1, 123668, Control_c, 0, 64, 69
1, 123682, Control_c, 0, 64, 69
1, 123697, Control_c, 0, 64, 68
1, 123700, Note_on_c, 0, 64, 82
1, 123713, Note_off_c, 0, 76, 54
1, 123727, Control_c, 0, 64, 68
1, 123742, Control_c, 0, 64, 67
1, 123766, Note_off_c, 0, 64, 63
1, 123779, Control_c, 0, 64, 67
1, 123794, Control_c, 0, 64, 67
1, 123809, Note_on_c, 0, 76, 84
1, 123868, Control_c, 0, 64, 68
1, 123871, Note_on_c, 0, 48, 84
1, 123872, Note_on_c, 0, 45, 82
1, 123885, Note_off_c, 0, 76, 52
1, 123887, Note_on_c, 0, 64, 88
1, 123897, Control_c, 0, 64, 69
1, 123899, Note_off_c, 0, 48, 68
1, 123906, Note_off_c, 0, 45, 65
1, 123912, Control_c, 0, 64, 69
1, 123927, Control_c, 0, 64, 70
1, 123942, Control_c, 0, 64, 71
1, 123947, Note_off_c, 0, 64, 63
1, 123956, Control_c, 0, 64, 72
1, 123984, Note_on_c, 0, 76, 77
1, 123986, Control_c, 0, 64, 70
1, 124001, Control_c, 0, 64, 63
1, 124016, Control_c, 0, 64, 0
1, 124063, Note_off_c, 0, 76, 60
1, 124067, Note_on_c, 0, 60, 90
1, 124067, Note_on_c, 0, 57, 86
1, 124075, Note_on_c, 0, 64, 85
1, 124105, Control_c, 0, 64, 57
1, 124120, Control_c, 0, 64, 65
1, 124135, Control_c, 0, 64, 66
1, 124137, Note_off_c, 0, 64, 64
1, 124149, Control_c, 0, 64, 67
1, 124164, Control_c, 0, 64, 68
1, 124169, Note_on_c, 0, 76, 78
1, 124179, Control_c, 0, 64, 70
1, 124193, Control_c, 0, 64, 71
1, 124208, Control_c, 0, 64, 72
1, 124222, Note_off_c, 0, 60, 62
1, 124223, Control_c, 0, 64, 74
1, 124238, Control_c, 0, 64, 75
1, 124252, Note_on_c, 0, 64, 81
1, 124254, Control_c, 0, 64, 76
1, 124264, Note_off_c, 0, 76, 55
1, 124269, Control_c, 0, 64, 77
1, 124279, Note_off_c, 0, 57, 63
1, 124298, Control_c, 0, 64, 78
1, 124307, Note_off_c, 0, 64, 65
1, 124344, Note_on_c, 0, 76, 72
1, 124427, Note_off_c, 0, 76, 59
1, 124442, Note_on_c, 0, 64, 83
1, 124476, Control_c, 0, 64, 78
1, 124498, Note_off_c, 0, 64, 65
1, 124505, Control_c, 0, 64, 79
1, 124540, Note_on_c, 0, 76, 77
1, 124558, Control_c, 0, 64, 80
1, 124573, Control_c, 0, 64, 81
1, 124587, Control_c, 0, 64, 81
1, 124602, Control_c, 0, 64, 82
1, 124606, Note_off_c, 0, 76, 55
1, 124615, Note_on_c, 0, 64, 83
1, 124617, Control_c, 0, 64, 82
1, 124620, Note_on_c, 0, 48, 90
1, 124621, Note_on_c, 0, 36, 86
1, 124647, Control_c, 0, 64, 83
1, 124648, Note_off_c, 0, 36, 67
1, 124652, Note_off_c, 0, 48, 65
1, 124661, Control_c, 0, 64, 83
1, 124667, Note_off_c, 0, 64, 65
1, 124676, Control_c, 0, 64, 84
1, 124691, Control_c, 0, 64, 85
1, 124698, Note_on_c, 0, 76, 78
1, 124705, Control_c, 0, 64, 86
1, 124720, Control_c, 0, 64, 87
1, 124750, Control_c, 0, 64, 86
1, 124765, Control_c, 0, 64, 79
1, 124779, Control_c, 0, 64, 69
1, 124794, Control_c, 0, 64, 0
1, 124801, Note_on_c, 0, 67, 87
1, 124805, Note_on_c, 0, 58, 89
1, 124808, Note_off_c, 0, 76, 59
1, 124812, Note_on_c, 0, 46, 82
1, 124884, Note_off_c, 0, 67, 47
1, 124891, Note_on_c, 0, 76, 83
1, 124928, Control_c, 0, 64, 63
1, 124943, Control_c, 0, 64, 64
1, 124958, Control_c, 0, 64, 65
1, 124972, Control_c, 0, 64, 66
1, 124979, Note_on_c, 0, 67, 89
1, 124987, Control_c, 0, 64, 67
1, 124990, Note_off_c, 0, 76, 58
1, 125002, Control_c, 0, 64, 68
1, 125076, Note_off_c, 0, 67, 60
1, 125078, Note_on_c, 0, 76, 82
1, 125107, Control_c, 0, 64, 68
1, 125107, Note_on_c, 0, 73, 27
1, 125121, Control_c, 0, 64, 69
1, 125136, Control_c, 0, 64, 70
1, 125141, Note_off_c, 0, 73, 43
1, 125160, Note_on_c, 0, 67, 90
1, 125170, Note_off_c, 0, 76, 59
1, 125210, Control_c, 0, 64, 70
1, 125252, Note_off_c, 0, 67, 60
1, 125254, Note_on_c, 0, 76, 82
1, 125277, Control_c, 0, 64, 71
1, 125301, Note_on_c, 0, 73, 9
1, 125341, Note_on_c, 0, 67, 87
1, 125345, Note_off_c, 0, 76, 59
1, 125350, Note_off_c, 0, 73, 27
1, 125400, Note_off_c, 0, 67, 61
1, 125406, Note_off_c, 0, 46, 54
1, 125423, Note_on_c, 0, 76, 79
1, 125444, Note_off_c, 0, 58, 60
1, 125455, Control_c, 0, 64, 70
1, 125470, Control_c, 0, 64, 66
1, 125482, Note_off_c, 0, 76, 62
1, 125485, Control_c, 0, 64, 0
1, 125519, Note_on_c, 0, 75, 88
1, 125523, Note_on_c, 0, 66, 85
1, 125524, Note_on_c, 0, 47, 74
1, 125591, Note_off_c, 0, 47, 61
1, 125630, Note_on_c, 0, 59, 70
1, 125663, Control_c, 0, 64, 41
1, 125678, Control_c, 0, 64, 62
1, 125691, Note_off_c, 0, 59, 58
1, 125693, Control_c, 0, 64, 63
1, 125706, Note_on_c, 0, 47, 71
1, 125708, Control_c, 0, 64, 64
1, 125737, Control_c, 0, 64, 64
1, 125752, Control_c, 0, 64, 65
1, 125767, Control_c, 0, 64, 66
1, 125770, Note_off_c, 0, 47, 62
1, 125782, Control_c, 0, 64, 67
1, 125799, Note_on_c, 0, 59, 68
1, 125815, Note_off_c, 0, 66, 54
1, 125826, Control_c, 0, 64, 67
1, 125869, Note_off_c, 0, 59, 61
1, 125871, Control_c, 0, 64, 68
1, 125887, Note_on_c, 0, 47, 74
1, 125947, Note_off_c, 0, 47, 62
1, 125980, Note_on_c, 0, 59, 72
1, 126055, Note_off_c, 0, 59, 58
1, 126070, Note_on_c, 0, 47, 72
1, 126135, Note_off_c, 0, 47, 60
1, 126146, Control_c, 0, 64, 68
1, 126165, Note_on_c, 0, 59, 66
1, 126219, Note_off_c, 0, 75, 59
1, 126219, Control_c, 0, 64, 66
1, 126233, Note_off_c, 0, 59, 58
1, 126234, Control_c, 0, 64, 0
1, 126247, Note_on_c, 0, 47, 73
1, 126255, Note_on_c, 0, 78, 85
1, 126258, Note_on_c, 0, 69, 81
1, 126289, Note_off_c, 0, 69, 60
1, 126308, Note_off_c, 0, 47, 60
1, 126341, Note_on_c, 0, 59, 68
1, 126346, Note_on_c, 0, 69, 50
1, 126402, Note_off_c, 0, 59, 52
1, 126426, Note_on_c, 0, 47, 71
1, 126426, Control_c, 0, 64, 56
1, 126441, Control_c, 0, 64, 61
1, 126456, Control_c, 0, 64, 63
1, 126470, Control_c, 0, 64, 64
1, 126485, Control_c, 0, 64, 64
1, 126490, Note_off_c, 0, 47, 61
1, 126500, Control_c, 0, 64, 65
1, 126515, Control_c, 0, 64, 66
1, 126524, Note_on_c, 0, 59, 63
1, 126530, Control_c, 0, 64, 66
1, 126544, Control_c, 0, 64, 67
1, 126559, Control_c, 0, 64, 67
1, 126574, Control_c, 0, 64, 68
1, 126600, Note_off_c, 0, 59, 58
1, 126603, Control_c, 0, 64, 68
1, 126618, Note_off_c, 0, 69, 59
1, 126618, Note_off_c, 0, 78, 56
1, 126621, Note_on_c, 0, 47, 68
1, 126678, Note_off_c, 0, 47, 59
1, 126708, Note_on_c, 0, 59, 70
1, 126779, Note_off_c, 0, 59, 60
1, 126807, Note_on_c, 0, 47, 66
1, 126865, Note_off_c, 0, 47, 53
1, 126890, Note_on_c, 0, 59, 64
1, 126953, Control_c, 0, 64, 68
1, 126968, Control_c, 0, 64, 64
1, 126979, Note_off_c, 0, 59, 57
1, 126982, Control_c, 0, 64, 0
1, 126995, Note_on_c, 0, 47, 65
1, 127000, Note_on_c, 0, 78, 73
1, 127002, Note_on_c, 0, 68, 59
1, 127051, Note_off_c, 0, 47, 59
1, 127095, Note_on_c, 0, 59, 60
1, 127143, Note_off_c, 0, 59, 57
1, 127173, Note_on_c, 0, 47, 62
1, 127175, Control_c, 0, 64, 46
1, 127190, Control_c, 0, 64, 54
1, 127205, Control_c, 0, 64, 59
1, 127219, Control_c, 0, 64, 61
1, 127226, Note_off_c, 0, 47, 56
1, 127234, Control_c, 0, 64, 61
1, 127268, Note_on_c, 0, 59, 52
1, 127279, Control_c, 0, 64, 62
1, 127308, Control_c, 0, 64, 62
1, 127323, Control_c, 0, 64, 63
1, 127332, Note_off_c, 0, 59, 56
1, 127338, Control_c, 0, 64, 64
1, 127360, Note_on_c, 0, 47, 61
1, 127406, Note_off_c, 0, 47, 62
1, 127449, Note_on_c, 0, 59, 59
1, 127457, Control_c, 0, 64, 63
1, 127508, Note_off_c, 0, 59, 54
1, 127524, Control_c, 0, 64, 64
1, 127553, Note_on_c, 0, 47, 57
1, 127569, Control_c, 0, 64, 64
1, 127584, Control_c, 0, 64, 65
1, 127597, Note_off_c, 0, 47, 62
1, 127613, Control_c, 0, 64, 64
1, 127628, Control_c, 0, 64, 56
1, 127635, Note_on_c, 0, 59, 58
1, 127642, Control_c, 0, 64, 0
1, 127684, Note_off_c, 0, 59, 55
1, 127721, Note_on_c, 0, 77, 65
1, 127729, Note_on_c, 0, 47, 60
1, 127731, Control_c, 0, 64, 30
1, 127746, Control_c, 0, 64, 38
1, 127761, Control_c, 0, 64, 41
1, 127773, Note_off_c, 0, 47, 63
1, 127776, Control_c, 0, 64, 44
1, 127790, Control_c, 0, 64, 53
1, 127803, Note_on_c, 0, 59, 62
1, 127805, Control_c, 0, 64, 61
1, 127820, Control_c, 0, 64, 63
1, 127835, Control_c, 0, 64, 64
1, 127877, Note_off_c, 0, 59, 57
1, 127894, Control_c, 0, 64, 64
1, 127910, Note_on_c, 0, 47, 63
1, 127924, Control_c, 0, 64, 65
1, 127939, Control_c, 0, 64, 65
1, 127954, Control_c, 0, 64, 66
1, 127955, Note_off_c, 0, 47, 61
1, 127969, Control_c, 0, 64, 67
1, 127996, Note_on_c, 0, 59, 61
1, 128028, Control_c, 0, 64, 67
1, 128040, Note_off_c, 0, 78, 15
1, 128040, Note_off_c, 0, 59, 61
1, 128057, Control_c, 0, 64, 68
1, 128074, Note_on_c, 0, 76, 67
1, 128077, Note_on_c, 0, 47, 64
1, 128106, Note_off_c, 0, 77, 58
1, 128116, Control_c, 0, 64, 68
1, 128120, Note_off_c, 0, 47, 63
1, 128157, Note_on_c, 0, 59, 62
1, 128159, Note_off_c, 0, 76, 59
1, 128201, Note_off_c, 0, 59, 59
1, 128205, Control_c, 0, 64, 69
1, 128246, Note_on_c, 0, 47, 66
1, 128297, Note_off_c, 0, 47, 61
1, 128330, Note_on_c, 0, 59, 53
1, 128350, Note_off_c, 0, 68, 57
1, 128407, Control_c, 0, 64, 68
1, 128411, Note_off_c, 0, 59, 58
1, 128421, Control_c, 0, 64, 66
1, 128436, Control_c, 0, 64, 0
1, 128445, Note_on_c, 0, 48, 46
1, 128448, Note_on_c, 0, 76, 60
1, 128455, Note_on_c, 0, 67, 49
1, 128496, Note_off_c, 0, 48, 61
1, 128535, Note_on_c, 0, 57, 52
1, 128586, Note_off_c, 0, 57, 55
1, 128617, Note_on_c, 0, 48, 53
1, 128663, Note_off_c, 0, 48, 63
1, 128711, Note_on_c, 0, 57, 52
1, 128732, Control_c, 0, 64, 44
1, 128747, Control_c, 0, 64, 46
1, 128762, Control_c, 0, 64, 48
1, 128784, Note_off_c, 0, 57, 60
1, 128791, Control_c, 0, 64, 50
1, 128806, Control_c, 0, 64, 51
1, 128811, Note_on_c, 0, 48, 58
1, 128821, Control_c, 0, 64, 54
1, 128836, Control_c, 0, 64, 56
1, 128845, Note_off_c, 0, 48, 63
1, 128851, Control_c, 0, 64, 58
1, 128865, Control_c, 0, 64, 60
1, 128880, Control_c, 0, 64, 62
1, 128895, Control_c, 0, 64, 63
1, 128897, Note_on_c, 0, 57, 58
1, 128910, Control_c, 0, 64, 63
1, 128939, Note_off_c, 0, 57, 62
1, 128954, Control_c, 0, 64, 64
1, 128981, Note_on_c, 0, 48, 54
1, 129030, Note_off_c, 0, 48, 64
1, 129051, Control_c, 0, 64, 63
1, 129061, Note_on_c, 0, 57, 60
1, 129066, Control_c, 0, 64, 0
1, 129100, Note_off_c, 0, 57, 64
1, 129170, Note_on_c, 0, 49, 47
1, 129215, Control_c, 0, 64, 50
1, 129225, Note_off_c, 0, 49, 60
1, 129230, Control_c, 0, 64, 63
1, 129244, Note_on_c, 0, 58, 66
1, 129244, Control_c, 0, 64, 64
1, 129259, Control_c, 0, 64, 64
1, 129284, Note_off_c, 0, 58, 62
1, 129304, Control_c, 0, 64, 65
1, 129319, Control_c, 0, 64, 65
1, 129334, Control_c, 0, 64, 66
1, 129337, Note_on_c, 0, 49, 51
1, 129349, Control_c, 0, 64, 66
1, 129393, Note_off_c, 0, 49, 63
1, 129423, Note_on_c, 0, 58, 68
1, 129468, Note_off_c, 0, 58, 54
1, 129492, Note_off_c, 0, 67, 34
1, 129516, Note_on_c, 0, 49, 69
1, 129519, Note_off_c, 0, 76, 30
1, 129554, Note_off_c, 0, 49, 64
1, 129591, Note_on_c, 0, 58, 73
1, 129647, Note_off_c, 0, 58, 59
1, 129671, Note_on_c, 0, 49, 70
1, 129733, Note_off_c, 0, 49, 55
1, 129733, Control_c, 0, 64, 67
1, 129754, Note_on_c, 0, 58, 64
1, 129800, Control_c, 0, 64, 64
1, 129814, Control_c, 0, 64, 0
1, 129820, Note_off_c, 0, 58, 56
1, 129845, Note_on_c, 0, 71, 80
1, 129846, Note_on_c, 0, 62, 83
1, 129846, Note_on_c, 0, 67, 79
1, 129847, Note_on_c, 0, 74, 83
1, 129863, Note_on_c, 0, 50, 71
1, 129891, Note_off_c, 0, 62, 0
1, 129918, Note_off_c, 0, 50, 59
1, 129927, Poly_aftertouch_c, 0, 62, 127
1, 129939, Note_on_c, 0, 59, 72
1, 129989, Note_off_c, 0, 59, 57
1, 130022, Note_on_c, 0, 50, 72
1, 130084, Note_off_c, 0, 50, 63
1, 130109, Note_on_c, 0, 59, 64
1, 130112, Control_c, 0, 64, 46
1, 130126, Control_c, 0, 64, 57
1, 130141, Control_c, 0, 64, 60
1, 130156, Control_c, 0, 64, 61
1, 130171, Control_c, 0, 64, 62
1, 130186, Control_c, 0, 64, 62
1, 130202, Note_off_c, 0, 59, 61
1, 130206, Note_on_c, 0, 50, 67
1, 130231, Poly_aftertouch_c, 0, 62, 0
1, 130244, Control_c, 0, 64, 63
1, 130259, Control_c, 0, 64, 63
1, 130260, Note_off_c, 0, 67, 60
1, 130264, Note_off_c, 0, 50, 64
1, 130274, Control_c, 0, 64, 64
1, 130280, Note_off_c, 0, 71, 62
1, 130303, Note_on_c, 0, 59, 64
1, 130348, Control_c, 0, 64, 64
1, 130370, Note_off_c, 0, 59, 58
1, 130376, Note_on_c, 0, 50, 71
1, 130377, Control_c, 0, 64, 65
1, 130407, Control_c, 0, 64, 65
1, 130452, Control_c, 0, 64, 66
1, 130458, Note_off_c, 0, 50, 40
1, 130467, Control_c, 0, 64, 66
1, 130476, Note_on_c, 0, 59, 63
1, 130496, Control_c, 0, 64, 64
1, 130518, Control_c, 0, 64, 0
1, 130526, Note_off_c, 0, 59, 61
1, 130576, Note_on_c, 0, 66, 68
1, 130583, Note_on_c, 0, 50, 49
1, 130585, Note_on_c, 0, 62, 57
1, 130602, Note_off_c, 0, 74, 44
1, 130631, Note_off_c, 0, 50, 58
1, 130656, Note_on_c, 0, 57, 66
1, 130682, Control_c, 0, 64, 57
1, 130697, Control_c, 0, 64, 63
1, 130712, Control_c, 0, 64, 63
1, 130727, Control_c, 0, 64, 64
1, 130741, Control_c, 0, 64, 64
1, 130750, Note_off_c, 0, 57, 53
1, 130756, Control_c, 0, 64, 65
1, 130771, Control_c, 0, 64, 66
1, 130772, Note_on_c, 0, 50, 59
1, 130786, Control_c, 0, 64, 67
1, 130800, Control_c, 0, 64, 67
1, 130808, Note_off_c, 0, 50, 63
1, 130815, Control_c, 0, 64, 68
1, 130830, Control_c, 0, 64, 68
1, 130843, Note_on_c, 0, 57, 63
1, 130845, Control_c, 0, 64, 69
1, 130860, Control_c, 0, 64, 69
1, 130875, Control_c, 0, 64, 70
1, 130905, Control_c, 0, 64, 70
1, 130908, Note_off_c, 0, 57, 61
1, 130925, Note_on_c, 0, 72, 77
1, 130927, Note_on_c, 0, 50, 58
1, 130935, Control_c, 0, 64, 71
1, 130949, Control_c, 0, 64, 71
1, 130962, Note_off_c, 0, 50, 65
1, 130964, Control_c, 0, 64, 72
1, 130979, Control_c, 0, 64, 73
1, 130993, Control_c, 0, 64, 74
1, 130999, Note_on_c, 0, 57, 67
1, 131000, Note_off_c, 0, 66, 62
1, 131008, Control_c, 0, 64, 75
1, 131023, Control_c, 0, 64, 75
1, 131033, Note_off_c, 0, 72, 59
1, 131038, Control_c, 0, 64, 76
1, 131043, Note_off_c, 0, 57, 59
1, 131064, Note_on_c, 0, 50, 53
1, 131119, Note_off_c, 0, 50, 60
1, 131128, Note_off_c, 0, 62, 54
1, 131157, Note_on_c, 0, 57, 64
1, 131230, Note_off_c, 0, 57, 59
1, 131245, Control_c, 0, 64, 73
1, 131267, Control_c, 0, 64, 66
1, 131282, Control_c, 0, 64, 0
1, 131293, Note_on_c, 0, 43, 66
1, 131304, Note_on_c, 0, 72, 83
1, 131305, Note_on_c, 0, 65, 72
1, 131310, Note_on_c, 0, 62, 65
1, 131343, Note_off_c, 0, 43, 60
1, 131380, Note_on_c, 0, 55, 69
1, 131400, Control_c, 0, 64, 13
1, 131415, Control_c, 0, 64, 30
1, 131430, Control_c, 0, 64, 51
1, 131446, Control_c, 0, 64, 63
1, 131455, Note_off_c, 0, 55, 60
1, 131461, Control_c, 0, 64, 64
1, 131476, Control_c, 0, 64, 65
1, 131477, Note_on_c, 0, 43, 70
1, 131543, Note_off_c, 0, 43, 59
1, 131564, Control_c, 0, 64, 65
1, 131570, Note_on_c, 0, 55, 65
1, 131635, Note_off_c, 0, 72, 57
1, 131638, Control_c, 0, 64, 66
1, 131647, Note_off_c, 0, 55, 56
1, 131664, Note_on_c, 0, 43, 71
1, 131668, Control_c, 0, 64, 66
1, 131728, Note_off_c, 0, 43, 60
1, 131764, Note_on_c, 0, 55, 64
1, 131809, Note_off_c, 0, 55, 61
1, 131845, Note_on_c, 0, 43, 70
1, 131876, Control_c, 0, 64, 67
1, 131895, Note_off_c, 0, 43, 56
1, 131930, Note_on_c, 0, 55, 64
1, 131934, Control_c, 0, 64, 66
1, 131949, Control_c, 0, 64, 64
1, 131964, Control_c, 0, 64, 55
1, 131979, Control_c, 0, 64, 13
1, 131990, Note_off_c, 0, 55, 55
1, 131994, Control_c, 0, 64, 54
1, 132016, Control_c, 0, 64, 64
1, 132031, Note_on_c, 0, 71, 78
1, 132031, Control_c, 0, 64, 65
1, 132033, Note_on_c, 0, 43, 76
1, 132046, Control_c, 0, 64, 66
1, 132058, Note_off_c, 0, 62, 60
1, 132073, Note_off_c, 0, 65, 63
1, 132086, Note_off_c, 0, 43, 60
1, 132117, Note_on_c, 0, 55, 66
1, 132149, Control_c, 0, 64, 67
1, 132179, Control_c, 0, 64, 67
1, 132182, Note_off_c, 0, 55, 59
1, 132198, Note_on_c, 0, 43, 80
1, 132209, Control_c, 0, 64, 68
1, 132254, Control_c, 0, 64, 68
1, 132272, Note_off_c, 0, 43, 60
1, 132284, Control_c, 0, 64, 69
1, 132294, Note_on_c, 0, 55, 69
1, 132299, Control_c, 0, 64, 68
1, 132313, Control_c, 0, 64, 63
1, 132328, Control_c, 0, 64, 0
1, 132340, Note_off_c, 0, 55, 59
1, 132386, Note_on_c, 0, 44, 74
1, 132387, Control_c, 0, 64, 56
1, 132394, Note_on_c, 0, 64, 86
1, 132402, Control_c, 0, 64, 66
1, 132404, Note_on_c, 0, 62, 78
1, 132414, Note_off_c, 0, 71, 58
1, 132417, Control_c, 0, 64, 67
1, 132431, Control_c, 0, 64, 67
1, 132447, Note_off_c, 0, 44, 63
1, 132449, Note_off_c, 0, 62, 51
1, 132476, Control_c, 0, 64, 67
1, 132480, Note_on_c, 0, 56, 77
1, 132491, Control_c, 0, 64, 68
1, 132495, Note_off_c, 0, 64, 65
1, 132506, Control_c, 0, 64, 69
1, 132537, Note_off_c, 0, 56, 63
1, 132555, Note_on_c, 0, 44, 77
1, 132625, Control_c, 0, 64, 70
1, 132648, Note_off_c, 0, 44, 60
1, 132654, Control_c, 0, 64, 70
1, 132660, Note_on_c, 0, 56, 73
1, 132684, Control_c, 0, 64, 69
1, 132699, Control_c, 0, 64, 68
1, 132713, Control_c, 0, 64, 65
1, 132725, Note_off_c, 0, 56, 63
1, 132728, Control_c, 0, 64, 0
1, 132765, Note_on_c, 0, 45, 77
1, 132768, Note_on_c, 0, 64, 90
1, 132769, Note_on_c, 0, 71, 93
1, 132772, Note_on_c, 0, 60, 84
1, 132811, Note_off_c, 0, 60, 55
1, 132826, Note_off_c, 0, 45, 64
1, 132860, Note_on_c, 0, 57, 75
1, 132872, Poly_aftertouch_c, 0, 60, 127
1, 132914, Control_c, 0, 64, 38
1, 132929, Control_c, 0, 64, 62
1, 132941, Note_off_c, 0, 57, 52
1, 132944, Control_c, 0, 64, 64
1, 132950, Note_on_c, 0, 45, 72
1, 132973, Control_c, 0, 64, 63
1, 133003, Control_c, 0, 64, 64
1, 133023, Note_off_c, 0, 45, 64
1, 133033, Control_c, 0, 64, 64
1, 133047, Note_on_c, 0, 57, 75
1, 133048, Control_c, 0, 64, 65
1, 133063, Control_c, 0, 64, 65
1, 133068, Note_off_c, 0, 64, 61
1, 133126, Note_off_c, 0, 57, 61
1, 133137, Control_c, 0, 64, 66
1, 133138, Note_on_c, 0, 45, 76
1, 133182, Control_c, 0, 64, 66
1, 133186, Poly_aftertouch_c, 0, 60, 0
1, 133195, Note_off_c, 0, 45, 64
1, 133224, Note_on_c, 0, 57, 73
1, 133284, Note_off_c, 0, 57, 60
1, 133304, Note_on_c, 0, 45, 79
1, 133365, Note_off_c, 0, 45, 64
1, 133378, Note_off_c, 0, 71, 48
1, 133388, Control_c, 0, 64, 67
1, 133392, Note_on_c, 0, 57, 66
1, 133418, Control_c, 0, 64, 67
1, 133426, Note_off_c, 0, 57, 65
1, 133433, Control_c, 0, 64, 66
1, 133448, Control_c, 0, 64, 34
1, 133462, Control_c, 0, 64, 0
1, 133474, Note_on_c, 0, 41, 78
1, 133492, Note_on_c, 0, 69, 78
1, 133495, Note_on_c, 0, 60, 65
1, 133495, Note_on_c, 0, 63, 66
1, 133539, Note_off_c, 0, 41, 58
1, 133558, Note_off_c, 0, 63, 51
1, 133574, Note_on_c, 0, 53, 67
1, 133618, Note_off_c, 0, 53, 59
1, 133654, Note_on_c, 0, 41, 76
1, 133719, Note_off_c, 0, 41, 60
1, 133745, Note_on_c, 0, 53, 69
1, 133778, Note_off_c, 0, 60, 49
1, 133811, Note_off_c, 0, 53, 60
1, 133845, Note_on_c, 0, 41, 75
1, 133856, Note_on_c, 0, 59, 63
1, 133902, Note_off_c, 0, 41, 61
1, 133930, Note_on_c, 0, 53, 68
1, 133959, Note_off_c, 0, 59, 55
1, 133994, Note_off_c, 0, 53, 62
1, 134012, Note_on_c, 0, 41, 79
1, 134017, Note_on_c, 0, 57, 62
1, 134035, Note_off_c, 0, 69, 60
1, 134038, Note_off_c, 0, 57, 63
1, 134071, Note_off_c, 0, 41, 59
1, 134104, Note_on_c, 0, 53, 68
1, 134145, Note_off_c, 0, 53, 63
1, 134183, Note_on_c, 0, 59, 72
1, 134187, Note_on_c, 0, 40, 80
1, 134187, Note_on_c, 0, 68, 76
1, 134193, Note_on_c, 0, 64, 65
1, 134217, Note_off_c, 0, 59, 62
1, 134232, Note_off_c, 0, 64, 65
1, 134249, Note_off_c, 0, 40, 60
1, 134264, Note_off_c, 0, 68, 64
1, 134279, Note_on_c, 0, 52, 70
1, 134340, Note_off_c, 0, 52, 60
1, 134358, Note_on_c, 0, 40, 84
1, 134389, Note_off_c, 0, 40, 68
1, 134455, Note_on_c, 0, 72, 84
1, 134458, Note_on_c, 0, 76, 83
1, 134511, Note_off_c, 0, 72, 52
1, 134530, Note_on_c, 0, 71, 80
1, 134541, Note_on_c, 0, 74, 84
1, 134553, Note_off_c, 0, 76, 59
1, 134589, Note_off_c, 0, 71, 61
1, 134627, Note_on_c, 0, 76, 86
1, 134632, Note_on_c, 0, 72, 85
1, 134647, Note_off_c, 0, 74, 63
1, 134714, Note_on_c, 0, 77, 81
1, 134720, Note_on_c, 0, 74, 83
1, 134725, Note_off_c, 0, 72, 61
1, 134739, Note_off_c, 0, 76, 59
1, 134797, Note_on_c, 0, 76, 73
1, 134805, Note_on_c, 0, 72, 87
1, 134808, Note_off_c, 0, 74, 63
1, 134838, Note_off_c, 0, 77, 58
1, 134887, Note_on_c, 0, 71, 76
1, 134890, Note_on_c, 0, 74, 83
1, 134893, Note_off_c, 0, 72, 61
1, 134899, Note_off_c, 0, 76, 60
1, 134908, Note_off_c, 0, 74, 70
1, 134911, Note_off_c, 0, 71, 68
1, 134958, Note_on_c, 0, 52, 72
1, 135019, Poly_aftertouch_c, 0, 74, 127
1, 135030, Note_off_c, 0, 52, 61
1, 135053, Note_on_c, 0, 40, 84
1, 135053, Poly_aftertouch_c, 0, 74, 0
1, 135083, Note_off_c, 0, 40, 68
1, 135145, Note_on_c, 0, 76, 75
1, 135156, Note_on_c, 0, 72, 77
1, 135180, Note_off_c, 0, 72, 65
1, 135194, Note_off_c, 0, 76, 60
1, 135236, Note_on_c, 0, 72, 80
1, 135248, Note_on_c, 0, 69, 76
1, 135267, Note_off_c, 0, 72, 65
1, 135272, Note_off_c, 0, 69, 67
1, 135307, Note_on_c, 0, 52, 65
1, 135379, Note_off_c, 0, 52, 59
1, 135388, Note_on_c, 0, 40, 79
1, 135411, Note_off_c, 0, 40, 67
1, 135485, Note_on_c, 0, 74, 71
1, 135489, Note_on_c, 0, 71, 69
1, 135514, Note_off_c, 0, 71, 67
1, 135529, Note_off_c, 0, 74, 61
1, 135572, Note_on_c, 0, 71, 70
1, 135585, Note_on_c, 0, 68, 73
1, 135602, Note_off_c, 0, 71, 68
1, 135610, Note_off_c, 0, 68, 68
1, 135647, Note_on_c, 0, 52, 70
1, 135710, Note_off_c, 0, 52, 60
1, 135729, Note_on_c, 0, 40, 82
1, 135766, Note_off_c, 0, 40, 68
1, 135837, Note_on_c, 0, 72, 82
1, 135838, Note_on_c, 0, 76, 79
1, 135859, Note_off_c, 0, 72, 66
1, 135865, Note_off_c, 0, 76, 62
1, 135919, Note_on_c, 0, 71, 80
1, 135922, Note_on_c, 0, 74, 90
1, 135959, Note_off_c, 0, 71, 63
1, 136011, Note_on_c, 0, 72, 87
1, 136012, Note_on_c, 0, 76, 77
1, 136031, Note_off_c, 0, 74, 61
1, 136103, Note_on_c, 0, 74, 86
1, 136103, Note_on_c, 0, 77, 85
1, 136103, Note_off_c, 0, 72, 36
1, 136109, Note_off_c, 0, 76, 61
1, 136185, Note_on_c, 0, 72, 87
1, 136188, Note_off_c, 0, 74, 62
1, 136189, Note_on_c, 0, 76, 77
1, 136238, Note_off_c, 0, 77, 59
1, 136276, Note_on_c, 0, 74, 84
1, 136279, Note_on_c, 0, 71, 76
1, 136284, Note_off_c, 0, 72, 62
1, 136291, Note_off_c, 0, 76, 62
1, 136297, Note_off_c, 0, 74, 69
1, 136301, Note_off_c, 0, 71, 67
1, 136353, Note_on_c, 0, 52, 80
1, 136423, Note_off_c, 0, 52, 60
1, 136446, Note_on_c, 0, 40, 85
1, 136476, Note_off_c, 0, 40, 68
1, 136536, Note_on_c, 0, 74, 76
1, 136538, Note_on_c, 0, 80, 80
1, 136583, Note_off_c, 0, 74, 62
1, 136596, Note_off_c, 0, 80, 63
1, 136631, Note_on_c, 0, 72, 94
1, 136634, Note_on_c, 0, 81, 90
1, 136662, Note_off_c, 0, 72, 64
1, 136666, Note_off_c, 0, 81, 63
1, 136710, Note_on_c, 0, 52, 78
1, 136770, Note_off_c, 0, 52, 60
1, 136798, Note_on_c, 0, 40, 85
1, 136828, Note_off_c, 0, 40, 68
1, 136896, Note_on_c, 0, 72, 81
1, 136899, Note_on_c, 0, 69, 74
1, 136944, Note_off_c, 0, 69, 59
1, 136986, Note_on_c, 0, 68, 80
1, 136989, Note_on_c, 0, 71, 78
1, 136998, Note_off_c, 0, 72, 60
1, 137013, Note_off_c, 0, 68, 66
1, 137016, Note_off_c, 0, 71, 67
1, 137066, Note_on_c, 0, 52, 76
1, 137144, Note_off_c, 0, 52, 61
1, 137158, Note_on_c, 0, 40, 80
1, 137201, Note_off_c, 0, 40, 64
1, 137263, Note_on_c, 0, 72, 80
1, 137269, Note_on_c, 0, 69, 75
1, 137287, Note_off_c, 0, 72, 64
1, 137293, Note_off_c, 0, 69, 66
1, 137350, Note_on_c, 0, 68, 79
1, 137350, Note_on_c, 0, 71, 79
1, 137387, Note_off_c, 0, 68, 55
1, 137394, Note_off_c, 0, 71, 62
1, 137432, Note_on_c, 0, 72, 79
1, 137445, Note_on_c, 0, 69, 71
1, 137516, Note_off_c, 0, 69, 39
1, 137522, Note_on_c, 0, 71, 83
1, 137534, Note_on_c, 0, 68, 74
1, 137539, Note_off_c, 0, 72, 61
1, 137621, Note_on_c, 0, 72, 90
1, 137621, Note_off_c, 0, 71, 62
1, 137624, Note_on_c, 0, 69, 90
1, 137628, Note_off_c, 0, 68, 63
1, 137715, Note_on_c, 0, 71, 88
1, 137716, Note_off_c, 0, 69, 62
1, 137719, Note_on_c, 0, 68, 84
1, 137742, Note_off_c, 0, 72, 62
1, 137785, Note_off_c, 0, 71, 66
1, 137793, Note_off_c, 0, 68, 65
1, 138065, Note_on_c, 0, 51, 60
1, 138075, Note_on_c, 0, 39, 53
1, 138097, Note_off_c, 0, 51, 63
1, 138102, Note_off_c, 0, 39, 58
1, 138151, Note_on_c, 0, 52, 65
1, 138153, Note_on_c, 0, 40, 61
1, 138190, Note_off_c, 0, 52, 63
1, 138201, Note_off_c, 0, 40, 58
1, 138229, Note_on_c, 0, 51, 51
1, 138238, Note_on_c, 0, 39, 37
1, 138268, Note_off_c, 0, 51, 62
1, 138288, Note_off_c, 0, 39, 59
1, 138308, Note_on_c, 0, 52, 56
1, 138325, Note_on_c, 0, 40, 62
1, 138376, Note_off_c, 0, 40, 59
1, 138390, Note_off_c, 0, 52, 61
1, 138414, Note_on_c, 0, 51, 48
1, 138414, Note_on_c, 0, 39, 50
1, 138470, Note_off_c, 0, 39, 58
1, 138486, Note_off_c, 0, 51, 59
1, 138515, Note_on_c, 0, 40, 64
1, 138518, Note_on_c, 0, 52, 53
1, 138595, Note_off_c, 0, 52, 62
1, 138656, Note_off_c, 0, 40, 65
1, 138851, Note_on_c, 0, 75, 75
1, 138882, Note_off_c, 0, 75, 62
1, 138932, Note_on_c, 0, 76, 80
1, 139000, Note_off_c, 0, 76, 56
1, 139026, Note_on_c, 0, 75, 76
1, 139072, Note_off_c, 0, 75, 57
1, 139103, Note_on_c, 0, 76, 76
1, 139193, Note_off_c, 0, 76, 59
1, 139197, Note_on_c, 0, 75, 75
1, 139305, Note_off_c, 0, 75, 60
1, 139314, Note_on_c, 0, 76, 68
1, 139409, Note_off_c, 0, 76, 60
1, 139612, Note_on_c, 0, 63, 52
1, 139664, Note_off_c, 0, 63, 56
1, 139704, Note_on_c, 0, 64, 52
1, 139755, Note_off_c, 0, 64, 60
1, 139782, Note_on_c, 0, 63, 53
1, 139848, Note_off_c, 0, 63, 56
1, 139873, Note_on_c, 0, 64, 54
1, 139938, Note_off_c, 0, 64, 55
1, 139970, Note_on_c, 0, 63, 52
1, 140041, Note_off_c, 0, 63, 56
1, 140071, Note_on_c, 0, 64, 57
1, 140192, Note_off_c, 0, 64, 64
1, 140382, Note_on_c, 0, 75, 54
1, 140428, Note_off_c, 0, 75, 58
1, 140473, Note_on_c, 0, 76, 50
1, 140519, Note_off_c, 0, 76, 45
1, 140553, Note_on_c, 0, 75, 54
1, 140587, Note_off_c, 0, 75, 51
1, 140642, Note_on_c, 0, 76, 48
1, 140727, Note_off_c, 0, 76, 58
1, 140756, Note_on_c, 0, 75, 44
1, 140837, Note_off_c, 0, 75, 54
1, 140864, Note_on_c, 0, 76, 49
1, 140894, Note_off_c, 0, 76, 61
1, 141143, Note_on_c, 0, 75, 54
1, 141173, Note_off_c, 0, 75, 58
1, 141238, Note_on_c, 0, 76, 66
1, 141300, Note_off_c, 0, 76, 49
1, 141326, Note_on_c, 0, 75, 58
1, 141353, Note_off_c, 0, 75, 60
1, 141415, Note_on_c, 0, 76, 61
1, 141464, Note_off_c, 0, 76, 56
1, 141493, Note_on_c, 0, 75, 46
1, 141611, Note_on_c, 0, 76, 50
1, 141648, Note_off_c, 0, 75, 35
1, 141694, Note_off_c, 0, 76, 61
1, 141915, Note_on_c, 0, 75, 48
1, 141971, Note_off_c, 0, 75, 56
1, 141987, Note_on_c, 0, 70, 41
1, 141993, Note_on_c, 0, 76, 54
1, 142017, Note_on_c, 0, 67, 26
1, 142041, Note_off_c, 0, 70, 62
1, 142062, Note_off_c, 0, 76, 54
1, 142080, Note_on_c, 0, 75, 54
1, 142151, Note_off_c, 0, 67, 37
1, 142155, Note_off_c, 0, 75, 61
1, 142173, Note_on_c, 0, 76, 59
1, 142179, Note_on_c, 0, 69, 41
1, 142185, Note_on_c, 0, 65, 40
1, 142218, Note_off_c, 0, 76, 53
1, 142248, Note_on_c, 0, 77, 61
1, 142304, Note_off_c, 0, 69, 49
1, 142321, Note_off_c, 0, 65, 49
1, 142352, Note_off_c, 0, 77, 43
1, 142366, Note_on_c, 0, 79, 51
1, 142370, Note_on_c, 0, 67, 44
1, 142379, Note_on_c, 0, 64, 42
1, 142411, Note_off_c, 0, 79, 63
1, 142465, Note_off_c, 0, 67, 59
1, 142487, Note_off_c, 0, 64, 63
1, 142665, Note_on_c, 0, 78, 63
1, 142730, Note_off_c, 0, 78, 56
1, 142757, Note_on_c, 0, 79, 64
1, 142772, Note_on_c, 0, 67, 58
1, 142778, Note_on_c, 0, 64, 49
1, 142822, Note_off_c, 0, 79, 61
1, 142841, Note_on_c, 0, 78, 72
1, 142871, Note_off_c, 0, 67, 58
1, 142899, Note_off_c, 0, 64, 63
1, 142903, Note_off_c, 0, 78, 60
1, 142912, Note_on_c, 0, 65, 71
1, 142923, Note_on_c, 0, 79, 85
1, 142930, Note_on_c, 0, 62, 63
1, 143007, Note_on_c, 0, 81, 89
1, 143027, Note_off_c, 0, 79, 60
1, 143164, Note_off_c, 0, 65, 60
1, 143171, Note_off_c, 0, 62, 62
1, 143195, Note_on_c, 0, 61, 69
1, 143203, Note_on_c, 0, 64, 81
1, 143204, Note_on_c, 0, 82, 97
1, 143223, Note_off_c, 0, 81, 62
1, 143396, Control_c, 0, 64, 38
1, 143411, Control_c, 0, 64, 63
1, 143427, Control_c, 0, 64, 64
1, 143442, Control_c, 0, 64, 65
1, 143456, Control_c, 0, 64, 67
1, 143471, Control_c, 0, 64, 70
1, 143486, Control_c, 0, 64, 72
1, 143501, Control_c, 0, 64, 74
1, 143515, Control_c, 0, 64, 75
1, 143530, Control_c, 0, 64, 76
1, 143541, Note_off_c, 0, 82, 61
1, 143545, Control_c, 0, 64, 78
1, 143560, Control_c, 0, 64, 80
1, 143575, Control_c, 0, 64, 81
1, 143589, Control_c, 0, 64, 82
1, 143604, Control_c, 0, 64, 83
1, 143619, Control_c, 0, 64, 83
1, 143699, Note_on_c, 0, 81, 57
1, 143753, Note_on_c, 0, 79, 64
1, 143793, Note_off_c, 0, 81, 61
1, 143805, Note_on_c, 0, 77, 67
1, 143827, Control_c, 0, 64, 82
1, 143830, Note_off_c, 0, 79, 58
1, 143841, Control_c, 0, 64, 75
1, 143847, Note_on_c, 0, 76, 70
1, 143856, Control_c, 0, 64, 65
1, 143863, Note_off_c, 0, 77, 61
1, 143864, Note_off_c, 0, 64, 60
1, 143871, Control_c, 0, 64, 0
1, 143887, Note_off_c, 0, 61, 61
1, 143896, Note_off_c, 0, 76, 60
1, 143898, Note_on_c, 0, 65, 60
1, 143907, Note_on_c, 0, 74, 70
1, 143915, Note_on_c, 0, 62, 56
1, 143931, Note_off_c, 0, 74, 65
1, 143968, Note_on_c, 0, 81, 75
1, 144035, Note_on_c, 0, 79, 70
1, 144069, Note_off_c, 0, 81, 59
1, 144090, Note_on_c, 0, 77, 68
1, 144108, Note_off_c, 0, 79, 54
1, 144152, Note_on_c, 0, 76, 67
1, 144152, Note_off_c, 0, 77, 61
1, 144189, Note_off_c, 0, 76, 60
1, 144222, Note_on_c, 0, 74, 65
1, 144244, Note_off_c, 0, 65, 57
1, 144252, Note_off_c, 0, 62, 62
1, 144263, Note_off_c, 0, 74, 51
1, 144271, Note_on_c, 0, 67, 66
1, 144286, Note_on_c, 0, 64, 49
1, 144289, Note_on_c, 0, 73, 72
1, 144315, Note_off_c, 0, 73, 65
1, 144354, Note_on_c, 0, 79, 69
1, 144409, Note_on_c, 0, 77, 56
1, 144414, Note_off_c, 0, 79, 55
1, 144461, Note_on_c, 0, 76, 63
1, 144467, Note_off_c, 0, 77, 59
1, 144507, Note_off_c, 0, 76, 59
1, 144528, Note_on_c, 0, 74, 62
1, 144589, Note_off_c, 0, 74, 62
1, 144598, Note_off_c, 0, 64, 61
1, 144602, Note_on_c, 0, 73, 63
1, 144620, Note_off_c, 0, 67, 59
1, 144632, Note_on_c, 0, 62, 50
1, 144635, Note_off_c, 0, 73, 62
1, 144635, Note_on_c, 0, 65, 54
1, 144669, Note_on_c, 0, 74, 67
1, 144697, Note_off_c, 0, 74, 66
1, 144729, Note_on_c, 0, 81, 62
1, 144803, Note_on_c, 0, 79, 64
1, 144823, Note_off_c, 0, 81, 57
1, 144858, Note_on_c, 0, 77, 66
1, 144879, Note_off_c, 0, 79, 52
1, 144913, Note_on_c, 0, 76, 67
1, 144919, Note_off_c, 0, 77, 60
1, 144957, Note_off_c, 0, 76, 59
1, 144983, Note_on_c, 0, 74, 67
1, 145022, Note_on_c, 0, 67, 61
1, 145025, Note_off_c, 0, 65, 38
1, 145029, Note_on_c, 0, 64, 53
1, 145033, Note_off_c, 0, 74, 50
1, 145064, Note_on_c, 0, 73, 65
1, 145065, Note_off_c, 0, 62, 31
1, 145101, Note_off_c, 0, 73, 60
1, 145106, Note_on_c, 0, 79, 59
1, 145116, Note_off_c, 0, 67, 62
1, 145144, Note_off_c, 0, 64, 62
1, 145149, Note_on_c, 0, 77, 70
1, 145180, Note_off_c, 0, 79, 60
1, 145220, Note_on_c, 0, 76, 72
1, 145223, Note_off_c, 0, 77, 58
1, 145256, Note_off_c, 0, 76, 58
1, 145287, Note_on_c, 0, 74, 59
1, 145331, Note_off_c, 0, 74, 62
1, 145354, Note_on_c, 0, 73, 61
1, 145399, Note_off_c, 0, 73, 55
1, 145434, Note_on_c, 0, 74, 62
1, 145522, Note_on_c, 0, 62, 58
1, 145530, Note_off_c, 0, 74, 60
1, 145613, Note_on_c, 0, 65, 60
1, 145715, Note_on_c, 0, 69, 59
1, 145801, Note_on_c, 0, 74, 61
1, 145853, Note_off_c, 0, 69, 48
1, 145875, Note_off_c, 0, 74, 61
1, 145886, Note_on_c, 0, 77, 72
1, 145978, Note_on_c, 0, 81, 73
1, 145978, Note_off_c, 0, 77, 59
1, 145999, Note_off_c, 0, 65, 56
1, 146059, Note_off_c, 0, 81, 59
1, 146064, Note_on_c, 0, 86, 76
1, 146078, Note_off_c, 0, 62, 56
1, 146143, Note_off_c, 0, 86, 57
1, 146146, Control_c, 0, 64, 64
1, 146161, Control_c, 0, 64, 68
1, 146167, Note_on_c, 0, 89, 80
1, 146176, Control_c, 0, 64, 71
1, 146188, Note_off_c, 0, 89, 70
1, 146191, Control_c, 0, 64, 74
1, 146206, Control_c, 0, 64, 78
1, 146221, Control_c, 0, 64, 80
1, 146242, Control_c, 0, 64, 81
1, 146302, Control_c, 0, 64, 80
1, 146346, Control_c, 0, 64, 80
1, 146361, Control_c, 0, 64, 79
1, 146376, Control_c, 0, 64, 79
1, 146391, Control_c, 0, 64, 78
1, 146406, Control_c, 0, 64, 76
1, 146421, Control_c, 0, 64, 76
1, 146435, Control_c, 0, 64, 75
1, 146450, Control_c, 0, 64, 74
1, 146465, Control_c, 0, 64, 73
1, 146480, Control_c, 0, 64, 70
1, 146495, Control_c, 0, 64, 66
1, 146504, Note_on_c, 0, 37, 76
1, 146510, Control_c, 0, 64, 64
1, 146511, Note_on_c, 0, 49, 79
1, 146525, Control_c, 0, 64, 0
1, 146549, Note_off_c, 0, 49, 62
1, 146579, Note_off_c, 0, 37, 54
1, 146586, Note_on_c, 0, 38, 86
1, 146586, Note_on_c, 0, 50, 85
1, 146676, Note_on_c, 0, 37, 90
1, 146681, Note_off_c, 0, 50, 64
1, 146683, Note_on_c, 0, 49, 84
1, 146686, Note_off_c, 0, 38, 62
1, 146748, Note_off_c, 0, 49, 59
1, 146763, Note_on_c, 0, 38, 93
1, 146766, Note_on_c, 0, 50, 82
1, 146772, Note_off_c, 0, 37, 62
1, 146855, Note_on_c, 0, 49, 85
1, 146858, Note_on_c, 0, 37, 88
1, 146871, Note_off_c, 0, 38, 62
1, 146871, Note_off_c, 0, 50, 63
1, 146932, Note_off_c, 0, 49, 63
1, 146933, Note_off_c, 0, 37, 61
1, 146956, Note_on_c, 0, 38, 101
1, 146957, Note_on_c, 0, 50, 90
1, 147039, Note_off_c, 0, 50, 64
1, 147079, Note_off_c, 0, 38, 62
1, 147300, Note_on_c, 0, 73, 75
1, 147375, Note_off_c, 0, 73, 59
1, 147385, Note_on_c, 0, 74, 80
1, 147395, Note_on_c, 0, 69, 70
1, 147410, Note_on_c, 0, 65, 56
1, 147473, Note_on_c, 0, 73, 81
1, 147473, Note_off_c, 0, 74, 61
1, 147538, Note_off_c, 0, 65, 64
1, 147549, Note_off_c, 0, 69, 60
1, 147553, Note_off_c, 0, 73, 60
1, 147566, Note_on_c, 0, 74, 78
1, 147569, Note_on_c, 0, 67, 60
1, 147571, Note_on_c, 0, 64, 55
1, 147645, Note_on_c, 0, 76, 76
1, 147647, Note_off_c, 0, 74, 61
1, 147742, Note_off_c, 0, 67, 28
1, 147773, Note_off_c, 0, 64, 62
1, 147775, Note_on_c, 0, 77, 72
1, 147777, Note_off_c, 0, 76, 56
1, 147804, Note_on_c, 0, 65, 49
1, 147811, Note_on_c, 0, 62, 55
1, 147835, Note_off_c, 0, 77, 58
1, 147905, Note_off_c, 0, 65, 64
1, 147927, Note_off_c, 0, 62, 63
1, 148087, Note_on_c, 0, 76, 58
1, 148130, Note_off_c, 0, 76, 57
1, 148167, Note_on_c, 0, 77, 61
1, 148188, Note_on_c, 0, 65, 49
1, 148198, Note_on_c, 0, 62, 40
1, 148226, Note_off_c, 0, 77, 55
1, 148249, Note_on_c, 0, 76, 54
1, 148298, Note_off_c, 0, 76, 55
1, 148301, Note_off_c, 0, 65, 57
1, 148306, Note_off_c, 0, 62, 61
1, 148342, Note_on_c, 0, 77, 56
1, 148353, Note_on_c, 0, 64, 43
1, 148364, Note_on_c, 0, 60, 42
1, 148405, Note_off_c, 0, 77, 54
1, 148420, Note_on_c, 0, 79, 64
1, 148459, Note_off_c, 0, 64, 54
1, 148517, Note_off_c, 0, 60, 50
1, 148557, Note_off_c, 0, 79, 57
1, 148570, Note_on_c, 0, 62, 35
1, 148585, Note_on_c, 0, 80, 59
1, 148595, Note_on_c, 0, 59, 42
1, 148607, Control_c, 0, 64, 69
1, 148622, Control_c, 0, 64, 72
1, 148636, Control_c, 0, 64, 74
1, 148651, Note_off_c, 0, 80, 63
1, 148651, Control_c, 0, 64, 75
1, 148661, Note_off_c, 0, 62, 63
1, 148666, Control_c, 0, 64, 75
1, 148679, Note_off_c, 0, 59, 62
1, 148681, Control_c, 0, 64, 76
1, 148696, Control_c, 0, 64, 77
1, 148710, Control_c, 0, 64, 79
1, 148725, Control_c, 0, 64, 79
1, 148889, Control_c, 0, 64, 79
1, 148903, Control_c, 0, 64, 77
1, 148918, Control_c, 0, 64, 73
1, 148927, Note_on_c, 0, 44, 65
1, 148933, Control_c, 0, 64, 67
1, 148938, Note_on_c, 0, 56, 77
1, 148948, Control_c, 0, 64, 0
1, 148979, Note_off_c, 0, 44, 55
1, 148990, Note_off_c, 0, 56, 63
1, 148995, Note_on_c, 0, 43, 73
1, 149017, Note_on_c, 0, 55, 79
1, 149079, Note_off_c, 0, 55, 62
1, 149097, Note_on_c, 0, 44, 70
1, 149101, Note_on_c, 0, 56, 88
1, 149107, Note_off_c, 0, 43, 61
1, 149181, Note_on_c, 0, 43, 85
1, 149183, Note_off_c, 0, 56, 62
1, 149185, Note_off_c, 0, 44, 63
1, 149190, Note_on_c, 0, 55, 86
1, 149276, Note_on_c, 0, 44, 79
1, 149285, Note_on_c, 0, 56, 88
1, 149285, Note_off_c, 0, 43, 61
1, 149287, Note_off_c, 0, 55, 58
1, 149381, Note_on_c, 0, 43, 95
1, 149386, Note_on_c, 0, 55, 89
1, 149386, Note_off_c, 0, 56, 61
1, 149386, Note_off_c, 0, 44, 62
1, 149430, Control_c, 0, 64, 68
1, 149445, Control_c, 0, 64, 68
1, 149454, Note_off_c, 0, 55, 63
1, 149474, Control_c, 0, 64, 69
1, 149504, Control_c, 0, 64, 68
1, 149509, Note_off_c, 0, 43, 61
1, 149519, Control_c, 0, 64, 68
1, 149533, Control_c, 0, 64, 67
1, 149548, Control_c, 0, 64, 66
1, 149563, Control_c, 0, 64, 65
1, 149578, Control_c, 0, 64, 65
1, 149592, Control_c, 0, 64, 64
1, 149607, Control_c, 0, 64, 64
1, 149622, Control_c, 0, 64, 54
1, 149637, Control_c, 0, 64, 0
1, 149714, Note_on_c, 0, 64, 78
1, 149766, Note_off_c, 0, 64, 64
1, 149798, Note_on_c, 0, 65, 85
1, 149818, Note_on_c, 0, 62, 73
1, 149825, Note_on_c, 0, 59, 63
1, 149887, Note_on_c, 0, 64, 80
1, 149889, Note_off_c, 0, 65, 62
1, 149941, Note_off_c, 0, 64, 64
1, 149946, Note_off_c, 0, 62, 63
1, 149947, Note_off_c, 0, 59, 60
1, 149989, Note_on_c, 0, 65, 80
1, 149997, Note_on_c, 0, 57, 59
1, 149997, Note_on_c, 0, 60, 60
1, 150068, Note_off_c, 0, 65, 61
1, 150082, Note_on_c, 0, 64, 76
1, 150086, Note_off_c, 0, 60, 54
1, 150137, Note_off_c, 0, 57, 61
1, 150150, Note_off_c, 0, 64, 57
1, 150183, Note_on_c, 0, 65, 73
1, 150185, Note_on_c, 0, 59, 43
1, 150203, Note_on_c, 0, 55, 51
1, 150259, Note_off_c, 0, 65, 64
1, 150273, Note_off_c, 0, 59, 62
1, 150278, Note_off_c, 0, 55, 62
1, 150489, Note_on_c, 0, 66, 67
1, 150552, Note_off_c, 0, 66, 61
1, 150555, Note_on_c, 0, 67, 72
1, 150584, Note_on_c, 0, 77, 75
1, 150589, Note_on_c, 0, 74, 75
1, 150656, Note_off_c, 0, 67, 58
1, 150669, Note_on_c, 0, 66, 70
1, 150725, Note_off_c, 0, 77, 59
1, 150725, Note_off_c, 0, 66, 56
1, 150770, Note_on_c, 0, 67, 73
1, 150773, Note_off_c, 0, 74, 61
1, 150777, Note_on_c, 0, 72, 77
1, 150779, Note_on_c, 0, 76, 74
1, 150862, Note_off_c, 0, 67, 61
1, 150866, Note_on_c, 0, 66, 64
1, 150966, Note_off_c, 0, 72, 53
1, 150972, Note_off_c, 0, 66, 62
1, 150975, Note_on_c, 0, 74, 75
1, 150978, Note_on_c, 0, 67, 69
1, 150979, Note_on_c, 0, 71, 71
1, 150979, Note_off_c, 0, 76, 56
1, 151040, Note_off_c, 0, 71, 62
1, 151063, Note_off_c, 0, 74, 63
1, 151112, Note_off_c, 0, 67, 62
1, 151309, Note_on_c, 0, 66, 64
1, 151375, Note_off_c, 0, 66, 58
1, 151385, Note_on_c, 0, 86, 81
1, 151389, Note_on_c, 0, 77, 79
1, 151399, Note_on_c, 0, 67, 68
1, 151413, Note_off_c, 0, 77, 66
1, 151423, Note_off_c, 0, 86, 58
1, 151483, Note_off_c, 0, 67, 58
1, 151509, Note_on_c, 0, 66, 61
1, 151577, Note_off_c, 0, 66, 60
1, 151594, Note_on_c, 0, 67, 67
1, 151597, Note_on_c, 0, 84, 74
1, 151601, Note_on_c, 0, 76, 67
1, 151630, Note_off_c, 0, 76, 63
1, 151633, Note_off_c, 0, 84, 59
1, 151686, Note_off_c, 0, 67, 61
1, 151712, Note_on_c, 0, 66, 51
1, 151813, Note_on_c, 0, 74, 69
1, 151815, Note_on_c, 0, 83, 74
1, 151823, Note_on_c, 0, 67, 63
1, 151825, Note_off_c, 0, 66, 62
1, 151893, Note_off_c, 0, 74, 61
1, 151911, Note_off_c, 0, 83, 63
1, 151937, Note_off_c, 0, 67, 62
1, 152206, Note_on_c, 0, 65, 91
1, 152211, Note_on_c, 0, 62, 87
1, 152212, Note_on_c, 0, 59, 80
1, 152214, Note_on_c, 0, 83, 91
1, 152214, Note_on_c, 0, 86, 98
1, 152215, Note_on_c, 0, 55, 77
1, 152218, Note_on_c, 0, 79, 94
1, 152218, Note_on_c, 0, 89, 95
1, 152262, Note_off_c, 0, 79, 65
1, 152268, Note_off_c, 0, 83, 64
1, 152272, Note_off_c, 0, 65, 62
1, 152273, Note_off_c, 0, 62, 64
1, 152273, Note_off_c, 0, 86, 65
1, 152279, Note_off_c, 0, 89, 63
1, 152282, Note_off_c, 0, 59, 62
1, 152283, Note_off_c, 0, 55, 61
1, 152454, Note_on_c, 0, 65, 90
1, 152455, Note_on_c, 0, 83, 79
1, 152460, Note_on_c, 0, 86, 96
1, 152460, Note_on_c, 0, 89, 95
1, 152461, Note_on_c, 0, 62, 85
1, 152461, Note_on_c, 0, 79, 89
1, 152464, Note_on_c, 0, 55, 85
1, 152464, Note_on_c, 0, 59, 83
1, 152505, Note_off_c, 0, 79, 63
1, 152513, Note_off_c, 0, 65, 57
1, 152515, Note_off_c, 0, 62, 61
1, 152517, Note_off_c, 0, 83, 64
1, 152520, Note_off_c, 0, 86, 66
1, 152520, Note_off_c, 0, 89, 63
1, 152528, Note_off_c, 0, 59, 61
1, 152531, Note_off_c, 0, 55, 61
1, 152758, Note_on_c, 0, 65, 88
1, 152760, Note_on_c, 0, 62, 79
1, 152762, Note_on_c, 0, 59, 73
1, 152764, Note_on_c, 0, 86, 97
1, 152764, Note_on_c, 0, 55, 74
1, 152764, Note_on_c, 0, 89, 92
1, 152765, Note_on_c, 0, 83, 90
1, 152767, Note_on_c, 0, 79, 88
1, 152884, Note_off_c, 0, 59, 0
1, 152912, Note_on_c, 0, 59, 37
1, 152982, Note_off_c, 0, 86, 0
1, 153020, Poly_aftertouch_c, 0, 86, 127
1, 153080, Poly_aftertouch_c, 0, 86, 0
1, 153381, Note_off_c, 0, 79, 33
1, 153435, Note_off_c, 0, 83, 33
1, 153685, Note_off_c, 0, 55, 28
1, 153693, Note_off_c, 0, 65, 28
1, 153695, Note_off_c, 0, 89, 31
1, 153773, Note_off_c, 0, 62, 32
1, 153778, Note_off_c, 0, 59, 28
1, 154299, Note_on_c, 0, 72, 64
1, 154327, Note_off_c, 0, 72, 64
1, 154710, Note_on_c, 0, 67, 62
1, 154737, Note_off_c, 0, 67, 66
1, 155074, Note_on_c, 0, 64, 60
1, 155101, Note_off_c, 0, 64, 65
1, 155248, Note_on_c, 0, 48, 52
1, 155273, Note_off_c, 0, 48, 58
1, 155428, Note_on_c, 0, 36, 60
1, 155453, Note_off_c, 0, 36, 59
1, 155611, Note_on_c, 0, 69, 68
1, 155800, Note_on_c, 0, 62, 65
1, 155815, Note_off_c, 0, 69, 60
1, 155825, Note_off_c, 0, 62, 66
1, 155988, Note_on_c, 0, 48, 57
1, 156012, Note_off_c, 0, 48, 59
1, 156171, Note_on_c, 0, 36, 62
1, 156195, Note_off_c, 0, 36, 58
1, 156360, Note_on_c, 0, 67, 68
1, 156547, Note_on_c, 0, 60, 68
1, 156561, Note_off_c, 0, 67, 63
1, 156570, Note_off_c, 0, 60, 64
1, 156725, Note_on_c, 0, 48, 51
1, 156749, Note_off_c, 0, 48, 58
1, 156914, Note_on_c, 0, 36, 46
1, 156944, Note_off_c, 0, 36, 35
1, 157088, Note_on_c, 0, 76, 69
1, 157263, Note_on_c, 0, 65, 65
1, 157269, Note_off_c, 0, 76, 60
1, 157292, Note_off_c, 0, 65, 67
1, 157337, Note_on_c, 0, 48, 60
1, 157372, Note_off_c, 0, 48, 63
1, 157420, Note_on_c, 0, 36, 52
1, 157451, Note_off_c, 0, 36, 55
1, 157503, Note_on_c, 0, 48, 51
1, 157548, Note_off_c, 0, 48, 60
1, 157587, Note_on_c, 0, 36, 68
1, 157614, Note_off_c, 0, 36, 63
1, 157682, Note_on_c, 0, 74, 69
1, 157742, Note_off_c, 0, 74, 60
1, 157756, Note_on_c, 0, 65, 63
1, 157797, Note_off_c, 0, 65, 64
1, 157833, Note_on_c, 0, 74, 69
1, 157868, Note_off_c, 0, 74, 58
1, 157913, Note_on_c, 0, 64, 62
1, 157933, Note_off_c, 0, 64, 67
1, 158010, Note_on_c, 0, 48, 63
1, 158046, Note_off_c, 0, 48, 62
1, 158089, Note_on_c, 0, 36, 66
1, 158138, Note_off_c, 0, 36, 61
1, 158171, Note_on_c, 0, 48, 61
1, 158220, Note_off_c, 0, 48, 62
1, 158261, Note_on_c, 0, 36, 76
1, 158284, Note_off_c, 0, 36, 65
1, 158327, Note_on_c, 0, 72, 65
1, 158392, Note_off_c, 0, 72, 60
1, 158404, Note_on_c, 0, 64, 67
1, 158442, Note_off_c, 0, 64, 64
1, 158483, Note_on_c, 0, 72, 71
1, 158504, Note_off_c, 0, 72, 64
1, 158580, Note_on_c, 0, 62, 73
1, 158779, Note_on_c, 0, 69, 68
1, 158782, Note_off_c, 0, 62, 60
1, 158796, Note_off_c, 0, 69, 65
1, 158972, Note_on_c, 0, 57, 58
1, 159149, Note_on_c, 0, 59, 62
1, 159151, Note_off_c, 0, 57, 64
1, 159168, Note_off_c, 0, 59, 61
1, 159325, Note_on_c, 0, 62, 56
1, 159407, Note_on_c, 0, 48, 48
1, 159453, Note_off_c, 0, 48, 56
1, 159489, Note_on_c, 0, 36, 64
1, 159493, Note_off_c, 0, 62, 62
1, 159495, Note_on_c, 0, 60, 60
1, 159516, Note_off_c, 0, 60, 60
1, 159530, Note_off_c, 0, 36, 63
1, 159579, Note_on_c, 0, 48, 59
1, 159672, Note_off_c, 0, 48, 60
1, 159679, Note_on_c, 0, 36, 69
1, 159712, Note_off_c, 0, 36, 63
1, 159873, Note_on_c, 0, 62, 78
1, 159878, Note_on_c, 0, 59, 73
1, 159900, Note_off_c, 0, 62, 66
1, 159903, Note_off_c, 0, 59, 65
1, 160053, Note_on_c, 0, 65, 80
1, 160058, Note_on_c, 0, 62, 75
1, 160155, Note_on_c, 0, 48, 64
1, 160196, Note_off_c, 0, 65, 62
1, 160208, Note_off_c, 0, 48, 58
1, 160236, Note_on_c, 0, 36, 78
1, 160246, Note_on_c, 0, 60, 77
1, 160249, Note_off_c, 0, 62, 63
1, 160253, Note_on_c, 0, 64, 69
1, 160268, Note_off_c, 0, 60, 65
1, 160279, Note_off_c, 0, 64, 66
1, 160297, Note_off_c, 0, 36, 63
1, 160332, Note_on_c, 0, 48, 72
1, 160413, Note_off_c, 0, 48, 63
1, 160426, Note_on_c, 0, 36, 87
1, 160456, Note_off_c, 0, 36, 67
1, 160622, Note_on_c, 0, 65, 82
1, 160625, Note_on_c, 0, 62, 76
1, 160646, Note_off_c, 0, 65, 68
1, 160648, Note_off_c, 0, 62, 67
1, 160797, Note_on_c, 0, 65, 86
1, 160799, Note_on_c, 0, 69, 88
1, 160905, Note_on_c, 0, 48, 72
1, 160922, Note_off_c, 0, 69, 59
1, 160966, Note_off_c, 0, 48, 56
1, 160978, Note_off_c, 0, 65, 63
1, 160983, Note_on_c, 0, 64, 79
1, 160985, Note_on_c, 0, 67, 84
1, 160985, Note_on_c, 0, 36, 78
1, 161008, Note_off_c, 0, 64, 69
1, 161017, Note_off_c, 0, 67, 66
1, 161047, Note_off_c, 0, 36, 63
1, 161082, Note_on_c, 0, 48, 80
1, 161155, Note_off_c, 0, 48, 61
1, 161173, Note_on_c, 0, 36, 87
1, 161204, Note_off_c, 0, 36, 66
1, 161268, Note_on_c, 0, 71, 88
1, 161319, Note_off_c, 0, 71, 64
1, 161351, Note_on_c, 0, 62, 82
1, 161421, Note_on_c, 0, 71, 83
1, 161423, Note_off_c, 0, 62, 53
1, 161461, Note_off_c, 0, 71, 64
1, 161521, Note_on_c, 0, 74, 88
1, 161528, Note_on_c, 0, 65, 85
1, 161617, Note_on_c, 0, 48, 75
1, 161623, Note_off_c, 0, 65, 64
1, 161669, Note_off_c, 0, 48, 60
1, 161696, Note_on_c, 0, 36, 87
1, 161702, Note_on_c, 0, 72, 85
1, 161703, Note_on_c, 0, 64, 83
1, 161722, Note_off_c, 0, 74, 61
1, 161726, Note_off_c, 0, 64, 70
1, 161739, Note_off_c, 0, 72, 64
1, 161763, Note_off_c, 0, 36, 62
1, 161794, Note_on_c, 0, 48, 83
1, 161863, Note_off_c, 0, 48, 61
1, 161883, Note_on_c, 0, 36, 91
1, 161919, Note_off_c, 0, 36, 62
1, 161973, Note_on_c, 0, 74, 93
1, 162045, Note_off_c, 0, 74, 61
1, 162046, Note_on_c, 0, 71, 93
1, 162137, Note_on_c, 0, 74, 93
1, 162186, Note_off_c, 0, 74, 59
1, 162365, Note_on_c, 0, 74, 94
1, 162365, Note_on_c, 0, 77, 93
1, 162378, Note_off_c, 0, 71, 65
1, 163206, Note_off_c, 0, 77, 49
1, 163268, Note_on_c, 0, 72, 43
1, 163271, Note_on_c, 0, 76, 50
1, 163277, Note_off_c, 0, 74, 56
1, 163608, Note_off_c, 0, 72, 59
1, 163635, Note_off_c, 0, 76, 61
1, 163915, Note_on_c, 0, 36, 55
1, 163931, Note_on_c, 0, 72, 66
1, 163940, Note_on_c, 0, 40, 59
1, 163949, Note_on_c, 0, 76, 66
1, 163953, Control_c, 0, 64, 67
1, 163959, Note_on_c, 0, 43, 73
1, 163959, Note_off_c, 0, 36, 62
1, 163960, Note_on_c, 0, 48, 87
1, 163968, Note_on_c, 0, 79, 81
1, 163968, Control_c, 0, 64, 78
1, 163971, Note_on_c, 0, 84, 94
1, 163978, Note_off_c, 0, 72, 60
1, 163979, Note_off_c, 0, 40, 67
1, 163983, Control_c, 0, 64, 87
1, 163985, Note_off_c, 0, 43, 63
1, 163993, Note_off_c, 0, 79, 67
1, 163996, Note_off_c, 0, 76, 63
1, 163998, Control_c, 0, 64, 92
1, 163999, Note_off_c, 0, 48, 63
1, 164002, Note_off_c, 0, 84, 67
1, 164027, Control_c, 0, 64, 90
1, 164042, Control_c, 0, 64, 86
1, 164057, Control_c, 0, 64, 78
1, 164072, Control_c, 0, 64, 68
1, 164086, Control_c, 0, 64, 0
1, 164264, Note_on_c, 0, 43, 59
1, 164315, Note_on_c, 0, 47, 62
1, 164317, Control_c, 0, 64, 64
1, 164323, Note_on_c, 0, 71, 68
1, 164331, Note_on_c, 0, 55, 89
1, 164332, Note_on_c, 0, 50, 67
1, 164332, Control_c, 0, 64, 70
1, 164335, Note_off_c, 0, 43, 61
1, 164336, Note_on_c, 0, 74, 81
1, 164347, Control_c, 0, 64, 75
1, 164353, Note_on_c, 0, 79, 83
1, 164354, Note_off_c, 0, 47, 62
1, 164356, Note_off_c, 0, 50, 67
1, 164360, Note_off_c, 0, 71, 66
1, 164361, Control_c, 0, 64, 78
1, 164365, Note_off_c, 0, 74, 66
1, 164374, Note_off_c, 0, 55, 61
1, 164376, Control_c, 0, 64, 79
1, 164381, Note_off_c, 0, 79, 66
1, 164391, Control_c, 0, 64, 79
1, 164421, Control_c, 0, 64, 77
1, 164435, Control_c, 0, 64, 74
1, 164450, Control_c, 0, 64, 70
1, 164465, Control_c, 0, 64, 66
1, 164480, Control_c, 0, 64, 23
1, 164495, Control_c, 0, 64, 0
1, 164619, Note_on_c, 0, 48, 52
1, 164660, Note_on_c, 0, 52, 53
1, 164684, Note_on_c, 0, 67, 57
1, 164687, Control_c, 0, 64, 63
1, 164693, Note_on_c, 0, 55, 75
1, 164693, Note_on_c, 0, 60, 87
1, 164700, Note_off_c, 0, 48, 62
1, 164702, Control_c, 0, 64, 70
1, 164704, Note_on_c, 0, 72, 81
1, 164712, Note_on_c, 0, 76, 82
1, 164717, Note_off_c, 0, 52, 61
1, 164717, Control_c, 0, 64, 73
1, 164717, Note_off_c, 0, 60, 66
1, 164721, Note_off_c, 0, 55, 64
1, 164722, Note_off_c, 0, 67, 65
1, 164732, Control_c, 0, 64, 75
1, 164732, Note_off_c, 0, 72, 64
1, 164733, Note_off_c, 0, 76, 67
1, 164776, Control_c, 0, 64, 76
1, 164821, Control_c, 0, 64, 75
1, 164835, Control_c, 0, 64, 75
1, 164850, Control_c, 0, 64, 74
1, 164909, Control_c, 0, 64, 73
1, 164924, Control_c, 0, 64, 72
1, 164939, Control_c, 0, 64, 69
1, 164961, Control_c, 0, 64, 66
1, 164976, Control_c, 0, 64, 62
1, 164991, Control_c, 0, 64, 0
1, 165208, Note_on_c, 0, 83, 63
1, 165259, Note_on_c, 0, 81, 57
1, 165268, Note_off_c, 0, 83, 60
1, 165279, Note_off_c, 0, 81, 62
1, 165309, Note_on_c, 0, 80, 55
1, 165328, Note_off_c, 0, 80, 64
1, 165347, Note_on_c, 0, 81, 67
1, 165373, Note_off_c, 0, 81, 53
1, 165394, Note_on_c, 0, 74, 63
1, 165421, Note_off_c, 0, 74, 64
1, 165532, Note_on_c, 0, 67, 50
1, 165576, Note_off_c, 0, 67, 61
1, 165600, Note_on_c, 0, 65, 49
1, 165623, Note_off_c, 0, 65, 60
1, 165643, Note_on_c, 0, 64, 60
1, 165676, Note_off_c, 0, 64, 64
1, 165711, Note_on_c, 0, 65, 61
1, 165738, Note_off_c, 0, 65, 66
1, 165743, Note_on_c, 0, 71, 62
1, 165769, Note_off_c, 0, 71, 66
1, 165910, Note_on_c, 0, 81, 60
1, 165961, Note_on_c, 0, 79, 59
1, 165969, Note_off_c, 0, 81, 57
1, 165996, Note_off_c, 0, 79, 63
1, 166012, Note_on_c, 0, 78, 61
1, 166032, Note_off_c, 0, 78, 63
1, 166059, Note_on_c, 0, 79, 66
1, 166086, Note_off_c, 0, 79, 66
1, 166114, Note_on_c, 0, 72, 72
1, 166139, Note_off_c, 0, 72, 66
1, 166291, Note_on_c, 0, 65, 49
1, 166347, Note_off_c, 0, 65, 64
1, 166361, Note_on_c, 0, 64, 36
1, 166393, Note_off_c, 0, 64, 48
1, 166404, Note_on_c, 0, 62, 57
1, 166439, Note_off_c, 0, 62, 64
1, 166462, Note_on_c, 0, 64, 58
1, 166502, Note_off_c, 0, 64, 63
1, 166527, Note_on_c, 0, 72, 60
1, 166546, Note_off_c, 0, 72, 61
1, 166705, Note_on_c, 0, 88, 75
1, 166911, Note_on_c, 0, 77, 68
1, 166966, Note_off_c, 0, 88, 63
1, 166991, Note_off_c, 0, 77, 59
1, 166995, Note_on_c, 0, 62, 51
1, 167066, Note_off_c, 0, 62, 63
1, 167079, Note_on_c, 0, 61, 54
1, 167143, Note_off_c, 0, 61, 57
1, 167163, Note_on_c, 0, 62, 71
1, 167231, Note_off_c, 0, 62, 55
1, 167260, Note_on_c, 0, 60, 67
1, 167314, Note_off_c, 0, 60, 53
1, 167352, Note_on_c, 0, 59, 53
1, 167393, Note_off_c, 0, 59, 61
1, 167432, Note_on_c, 0, 57, 51
1, 167447, Note_on_c, 0, 86, 71
1, 167515, Note_off_c, 0, 57, 63
1, 167534, Note_on_c, 0, 55, 61
1, 167564, Note_off_c, 0, 55, 64
1, 167653, Note_on_c, 0, 76, 66
1, 167707, Note_off_c, 0, 86, 62
1, 167722, Note_off_c, 0, 76, 58
1, 167746, Note_on_c, 0, 60, 67
1, 167832, Note_on_c, 0, 62, 65
1, 167863, Note_off_c, 0, 60, 60
1, 167906, Note_on_c, 0, 64, 76
1, 167914, Note_off_c, 0, 62, 64
1, 167985, Note_off_c, 0, 64, 61
1, 167996, Note_on_c, 0, 65, 81
1, 168037, Note_off_c, 0, 65, 64
1, 168071, Note_on_c, 0, 67, 76
1, 168148, Note_off_c, 0, 67, 63
1, 168151, Note_on_c, 0, 68, 74
1, 168172, Note_on_c, 0, 84, 82
1, 168217, Note_off_c, 0, 68, 63
1, 168245, Note_on_c, 0, 69, 75
1, 168315, Note_off_c, 0, 69, 57
1, 168339, Note_on_c, 0, 74, 71
1, 168339, Note_on_c, 0, 65, 73
1, 168345, Note_off_c, 0, 84, 63
1, 168363, Note_off_c, 0, 74, 67
1, 168534, Note_on_c, 0, 77, 77
1, 168538, Note_on_c, 0, 81, 77
1, 168569, Note_off_c, 0, 65, 63
1, 168669, Note_off_c, 0, 81, 60
1, 168721, Note_off_c, 0, 77, 59
1, 168726, Note_on_c, 0, 76, 80
1, 168729, Note_on_c, 0, 79, 87
1, 168803, Note_off_c, 0, 76, 0
1, 168841, Poly_aftertouch_c, 0, 76, 127
1, 168880, Poly_aftertouch_c, 0, 76, 0
1, 168897, Note_off_c, 0, 79, 61
1, 168920, Note_on_c, 0, 71, 88
1, 168923, Note_on_c, 0, 67, 62
1, 169101, Note_on_c, 0, 64, 70
1, 169102, Note_off_c, 0, 67, 62
1, 169103, Note_on_c, 0, 72, 94
1, 169103, Note_off_c, 0, 71, 42
1, 169106, Note_on_c, 0, 60, 71
1, 169123, Note_off_c, 0, 72, 69
1, 169131, Note_off_c, 0, 64, 67
1, 169144, Note_off_c, 0, 60, 63
1, 169183, Note_on_c, 0, 67, 75
1, 169290, Note_off_c, 0, 67, 61
1, 169296, Note_on_c, 0, 72, 84
1, 169306, Note_on_c, 0, 64, 56
1, 169308, Note_on_c, 0, 60, 57
1, 169324, Note_off_c, 0, 72, 65
1, 169347, Note_off_c, 0, 64, 63
1, 169349, Note_off_c, 0, 60, 63
1, 169383, Note_on_c, 0, 67, 66
1, 169483, Note_on_c, 0, 64, 59
1, 169483, Note_off_c, 0, 67, 61
1, 169484, Note_on_c, 0, 60, 66
1, 169521, Note_off_c, 0, 64, 67
1, 169525, Note_off_c, 0, 60, 61
1, 169572, Note_on_c, 0, 67, 66
1, 169647, Note_on_c, 0, 60, 66
1, 169652, Note_on_c, 0, 64, 61
1, 169652, Note_off_c, 0, 67, 62
1, 169653, Note_on_c, 0, 81, 79
1, 169699, Note_off_c, 0, 64, 55
1, 169702, Note_on_c, 0, 79, 72
1, 169704, Note_off_c, 0, 60, 59
1, 169716, Note_off_c, 0, 81, 59
1, 169734, Note_on_c, 0, 67, 68
1, 169737, Note_off_c, 0, 79, 62
1, 169751, Note_on_c, 0, 78, 64
1, 169776, Note_off_c, 0, 78, 61
1, 169776, Note_on_c, 0, 79, 73
1, 169821, Note_off_c, 0, 67, 60
1, 169823, Note_off_c, 0, 79, 64
1, 169835, Note_on_c, 0, 62, 75
1, 169837, Note_on_c, 0, 65, 69
1, 169840, Note_on_c, 0, 71, 81
1, 169860, Note_off_c, 0, 71, 69
1, 169871, Note_off_c, 0, 65, 62
1, 169880, Note_off_c, 0, 62, 62
1, 169934, Note_on_c, 0, 67, 70
1, 170022, Note_off_c, 0, 67, 60
1, 170028, Note_on_c, 0, 62, 59
1, 170034, Note_on_c, 0, 65, 61
1, 170038, Note_on_c, 0, 71, 85
1, 170062, Note_off_c, 0, 71, 68
1, 170077, Note_off_c, 0, 65, 61
1, 170079, Note_off_c, 0, 62, 61
1, 170130, Note_on_c, 0, 67, 60
1, 170212, Note_off_c, 0, 67, 62
1, 170220, Note_on_c, 0, 65, 61
1, 170224, Note_on_c, 0, 62, 59
1, 170252, Note_off_c, 0, 65, 67
1, 170263, Note_off_c, 0, 62, 66
1, 170309, Note_on_c, 0, 67, 61
1, 170377, Note_off_c, 0, 67, 63
1, 170378, Note_on_c, 0, 81, 60
1, 170379, Note_on_c, 0, 65, 48
1, 170380, Note_on_c, 0, 62, 63
1, 170411, Note_off_c, 0, 65, 65
1, 170413, Note_on_c, 0, 83, 14
1, 170420, Note_on_c, 0, 79, 75
1, 170422, Note_off_c, 0, 62, 63
1, 170448, Note_off_c, 0, 81, 59
1, 170454, Note_off_c, 0, 83, 29
1, 170465, Note_off_c, 0, 79, 62
1, 170470, Note_on_c, 0, 67, 64
1, 170479, Note_on_c, 0, 78, 56
1, 170498, Note_off_c, 0, 78, 60
1, 170506, Note_on_c, 0, 79, 67
1, 170554, Note_off_c, 0, 67, 60
1, 170563, Note_off_c, 0, 79, 55
1, 170568, Note_on_c, 0, 84, 88
1, 170577, Note_on_c, 0, 64, 60
1, 170583, Note_on_c, 0, 60, 60
1, 170619, Note_off_c, 0, 64, 63
1, 170624, Note_off_c, 0, 60, 58
1, 170675, Note_on_c, 0, 67, 60
1, 170748, Note_off_c, 0, 67, 61
1, 170760, Note_on_c, 0, 64, 52
1, 170762, Note_on_c, 0, 88, 81
1, 170774, Note_off_c, 0, 84, 62
1, 170776, Note_on_c, 0, 60, 52
1, 170783, Note_off_c, 0, 88, 70
1, 170807, Note_off_c, 0, 64, 63
1, 170810, Note_off_c, 0, 60, 60
1, 170861, Note_on_c, 0, 67, 59
1, 170918, Note_off_c, 0, 67, 57
1, 170930, Note_on_c, 0, 64, 60
1, 170947, Note_on_c, 0, 60, 53
1, 170979, Note_off_c, 0, 64, 62
1, 170987, Note_off_c, 0, 60, 60
1, 171032, Note_on_c, 0, 79, 72
1, 171041, Note_on_c, 0, 67, 54
1, 171058, Note_off_c, 0, 79, 65
1, 171078, Note_off_c, 0, 67, 59
1, 171089, Note_on_c, 0, 81, 58
1, 171094, Note_on_c, 0, 60, 44
1, 171099, Note_on_c, 0, 64, 49
1, 171130, Note_on_c, 0, 79, 68
1, 171135, Note_off_c, 0, 81, 61
1, 171136, Note_off_c, 0, 64, 63
1, 171138, Note_off_c, 0, 60, 61
1, 171158, Note_off_c, 0, 79, 65
1, 171165, Note_on_c, 0, 67, 60
1, 171218, Note_on_c, 0, 79, 68
1, 171250, Note_off_c, 0, 79, 64
1, 171265, Note_off_c, 0, 67, 58
1, 171275, Note_on_c, 0, 71, 69
1, 171287, Note_on_c, 0, 62, 61
1, 171293, Note_on_c, 0, 65, 41
1, 171302, Note_off_c, 0, 71, 66
1, 171317, Note_off_c, 0, 65, 52
1, 171321, Note_off_c, 0, 62, 64
1, 171397, Note_on_c, 0, 67, 38
1, 171444, Note_off_c, 0, 67, 46
1, 171466, Note_on_c, 0, 62, 46
1, 171467, Note_on_c, 0, 65, 29
1, 171484, Note_on_c, 0, 71, 35
1, 171510, Note_off_c, 0, 65, 52
1, 171512, Note_off_c, 0, 62, 64
1, 171515, Note_off_c, 0, 71, 50
1, 171546, Note_on_c, 0, 67, 57
1, 171623, Note_off_c, 0, 67, 60
1, 171644, Note_on_c, 0, 62, 54
1, 171646, Note_on_c, 0, 65, 43
1, 171672, Note_off_c, 0, 65, 60
1, 171686, Note_off_c, 0, 62, 65
1, 171738, Note_on_c, 0, 67, 51
1, 171782, Note_on_c, 0, 81, 73
1, 171788, Note_on_c, 0, 65, 48
1, 171788, Note_off_c, 0, 67, 58
1, 171791, Note_on_c, 0, 62, 56
1, 171832, Note_off_c, 0, 65, 65
1, 171837, Note_off_c, 0, 62, 64
1, 171841, Note_off_c, 0, 81, 0
1, 171842, Note_on_c, 0, 79, 62
1, 171871, Poly_aftertouch_c, 0, 81, 0
1, 171877, Note_off_c, 0, 79, 64
1, 171886, Note_on_c, 0, 67, 63
1, 171947, Note_on_c, 0, 79, 72
1, 171982, Note_off_c, 0, 67, 62
1, 172011, Note_on_c, 0, 60, 53
1, 172012, Note_on_c, 0, 64, 54
1, 172025, Note_on_c, 0, 84, 72
1, 172032, Note_off_c, 0, 79, 61
1, 172051, Note_off_c, 0, 60, 62
1, 172055, Note_off_c, 0, 64, 63
1, 172108, Note_on_c, 0, 67, 53
1, 172183, Note_off_c, 0, 67, 61
1, 172192, Note_on_c, 0, 64, 48
1, 172202, Note_on_c, 0, 88, 68
1, 172202, Note_off_c, 0, 84, 63
1, 172203, Note_on_c, 0, 60, 54
1, 172217, Note_off_c, 0, 88, 69
1, 172236, Note_off_c, 0, 64, 65
1, 172238, Note_off_c, 0, 60, 59
1, 172282, Note_on_c, 0, 67, 65
1, 172356, Note_off_c, 0, 67, 61
1, 172364, Note_on_c, 0, 64, 56
1, 172368, Note_on_c, 0, 60, 58
1, 172402, Note_off_c, 0, 64, 64
1, 172408, Note_off_c, 0, 60, 61
1, 172451, Note_on_c, 0, 67, 59
1, 172459, Note_on_c, 0, 79, 80
1, 172481, Note_off_c, 0, 79, 66
1, 172501, Note_on_c, 0, 64, 61
1, 172505, Note_on_c, 0, 60, 67
1, 172506, Note_on_c, 0, 81, 67
1, 172507, Note_off_c, 0, 67, 62
1, 172542, Note_on_c, 0, 79, 78
1, 172555, Note_off_c, 0, 60, 57
1, 172569, Note_off_c, 0, 81, 60
1, 172579, Note_off_c, 0, 64, 61
1, 172588, Note_on_c, 0, 67, 63
1, 172589, Note_off_c, 0, 79, 62
1, 172601, Note_on_c, 0, 78, 50
1, 172623, Note_off_c, 0, 78, 57
1, 172637, Note_on_c, 0, 79, 65
1, 172678, Note_off_c, 0, 79, 65
1, 172680, Note_off_c, 0, 67, 61
1, 172687, Note_on_c, 0, 65, 74
1, 172692, Note_on_c, 0, 71, 83
1, 172693, Note_on_c, 0, 62, 72
1, 172714, Note_off_c, 0, 71, 69
1, 172718, Note_off_c, 0, 65, 63
1, 172726, Note_off_c, 0, 62, 66
1, 172777, Note_on_c, 0, 67, 66
1, 172868, Note_off_c, 0, 67, 62
1, 172883, Note_on_c, 0, 62, 59
1, 172884, Note_on_c, 0, 65, 57
1, 172889, Note_on_c, 0, 71, 76
1, 172912, Note_off_c, 0, 71, 68
1, 172920, Note_off_c, 0, 65, 62
1, 172922, Note_off_c, 0, 62, 65
1, 172961, Note_on_c, 0, 67, 65
1, 173047, Note_off_c, 0, 67, 62
1, 173062, Note_on_c, 0, 65, 55
1, 173064, Note_on_c, 0, 62, 61
1, 173094, Note_off_c, 0, 65, 63
1, 173102, Note_off_c, 0, 62, 67
1, 173147, Note_on_c, 0, 67, 65
1, 173226, Note_off_c, 0, 67, 61
1, 173232, Note_on_c, 0, 65, 49
1, 173236, Note_on_c, 0, 62, 57
1, 173247, Note_on_c, 0, 81, 69
1, 173275, Note_off_c, 0, 65, 60
1, 173278, Note_off_c, 0, 62, 63
1, 173296, Note_off_c, 0, 81, 60
1, 173303, Note_on_c, 0, 79, 59
1, 173323, Note_off_c, 0, 79, 65
1, 173324, Note_on_c, 0, 67, 66
1, 173337, Note_on_c, 0, 78, 61
1, 173362, Note_off_c, 0, 78, 56
1, 173391, Note_on_c, 0, 79, 68
1, 173414, Note_off_c, 0, 67, 58
1, 173418, Note_off_c, 0, 79, 67
1, 173434, Note_on_c, 0, 72, 72
1, 173438, Note_on_c, 0, 64, 56
1, 173444, Note_on_c, 0, 60, 47
1, 173460, Note_off_c, 0, 72, 66
1, 173471, Note_off_c, 0, 60, 55
1, 173478, Note_off_c, 0, 64, 61
1, 173517, Note_on_c, 0, 67, 65
1, 173588, Note_on_c, 0, 60, 47
1, 173588, Note_on_c, 0, 64, 48
1, 173588, Note_on_c, 0, 81, 72
1, 173592, Note_off_c, 0, 67, 60
1, 173621, Note_off_c, 0, 64, 64
1, 173628, Note_off_c, 0, 60, 61
1, 173639, Note_on_c, 0, 79, 63
1, 173642, Note_off_c, 0, 81, 61
1, 173667, Note_off_c, 0, 79, 66
1, 173674, Note_on_c, 0, 67, 65
1, 173689, Note_on_c, 0, 78, 64
1, 173728, Note_off_c, 0, 78, 61
1, 173731, Note_on_c, 0, 79, 74
1, 173756, Note_off_c, 0, 67, 52
1, 173782, Note_on_c, 0, 59, 54
1, 173784, Note_off_c, 0, 79, 58
1, 173788, Note_on_c, 0, 62, 52
1, 173790, Note_on_c, 0, 74, 73
1, 173815, Note_off_c, 0, 74, 67
1, 173821, Note_off_c, 0, 59, 64
1, 173831, Note_off_c, 0, 62, 62
1, 173862, Note_on_c, 0, 67, 69
1, 173967, Note_on_c, 0, 81, 75
1, 173967, Note_on_c, 0, 62, 50
1, 173972, Note_on_c, 0, 59, 56
1, 173973, Note_off_c, 0, 67, 61
1, 174014, Note_off_c, 0, 59, 63
1, 174019, Note_off_c, 0, 81, 61
1, 174020, Note_off_c, 0, 62, 61
1, 174021, Note_on_c, 0, 79, 57
1, 174043, Note_off_c, 0, 79, 65
1, 174047, Note_on_c, 0, 67, 61
1, 174052, Note_on_c, 0, 78, 73
1, 174086, Note_off_c, 0, 78, 60
1, 174113, Note_on_c, 0, 79, 74
1, 174143, Note_off_c, 0, 67, 60
1, 174156, Note_off_c, 0, 79, 60
1, 174159, Note_on_c, 0, 64, 56
1, 174160, Note_on_c, 0, 60, 63
1, 174168, Note_on_c, 0, 76, 78
1, 174193, Note_off_c, 0, 64, 60
1, 174198, Note_off_c, 0, 76, 64
1, 174201, Note_off_c, 0, 60, 57
1, 174234, Note_on_c, 0, 67, 64
1, 174324, Note_off_c, 0, 67, 62
1, 174330, Note_on_c, 0, 64, 52
1, 174332, Note_on_c, 0, 60, 61
1, 174335, Note_on_c, 0, 81, 73
1, 174372, Note_off_c, 0, 64, 64
1, 174378, Note_off_c, 0, 60, 60
1, 174390, Note_off_c, 0, 81, 61
1, 174392, Note_on_c, 0, 79, 61
1, 174402, Note_on_c, 0, 67, 58
1, 174411, Note_off_c, 0, 79, 66
1, 174417, Note_on_c, 0, 78, 68
1, 174448, Note_off_c, 0, 78, 64
1, 174474, Note_on_c, 0, 79, 62
1, 174494, Note_off_c, 0, 79, 65
1, 174508, Note_on_c, 0, 65, 68
1, 174512, Note_off_c, 0, 67, 63
1, 174515, Note_on_c, 0, 71, 77
1, 174539, Note_off_c, 0, 71, 68
1, 174542, Note_on_c, 0, 62, 33
1, 174545, Note_off_c, 0, 65, 60
1, 174577, Note_off_c, 0, 62, 52
1, 174605, Note_on_c, 0, 67, 74
1, 174694, Note_on_c, 0, 65, 68
1, 174694, Note_on_c, 0, 81, 75
1, 174694, Note_off_c, 0, 67, 61
1, 174703, Note_on_c, 0, 62, 52
1, 174744, Note_off_c, 0, 65, 54
1, 174745, Note_on_c, 0, 79, 69
1, 174754, Note_off_c, 0, 62, 59
1, 174763, Note_off_c, 0, 81, 60
1, 174772, Note_off_c, 0, 79, 66
1, 174775, Note_on_c, 0, 67, 75
1, 174786, Note_on_c, 0, 78, 63
1, 174823, Note_off_c, 0, 78, 62
1, 174831, Note_on_c, 0, 79, 82
1, 174880, Note_off_c, 0, 67, 62
1, 174882, Note_on_c, 0, 63, 73
1, 174882, Note_off_c, 0, 79, 61
1, 174888, Note_on_c, 0, 72, 83
1, 174919, Note_off_c, 0, 72, 65
1, 174939, Note_off_c, 0, 63, 62
1, 174970, Note_on_c, 0, 67, 73
1, 175044, Note_off_c, 0, 67, 61
1, 175049, Note_on_c, 0, 63, 74
1, 175058, Note_on_c, 0, 81, 81
1, 175106, Note_off_c, 0, 63, 59
1, 175110, Note_on_c, 0, 79, 65
1, 175118, Note_on_c, 0, 67, 72
1, 175120, Note_off_c, 0, 81, 61
1, 175135, Note_on_c, 0, 78, 76
1, 175135, Note_off_c, 0, 79, 66
1, 175187, Note_on_c, 0, 79, 80
1, 175189, Note_off_c, 0, 78, 57
1, 175228, Note_on_c, 0, 62, 76
1, 175228, Note_off_c, 0, 67, 60
1, 175230, Note_on_c, 0, 59, 65
1, 175234, Note_on_c, 0, 74, 77
1, 175235, Note_off_c, 0, 79, 64
1, 175264, Note_off_c, 0, 59, 62
1, 175267, Note_off_c, 0, 62, 64
1, 175267, Note_off_c, 0, 74, 64
1, 175312, Note_on_c, 0, 67, 79
1, 175399, Note_on_c, 0, 81, 82
1, 175401, Note_on_c, 0, 62, 71
1, 175410, Note_on_c, 0, 59, 53
1, 175410, Note_off_c, 0, 67, 58
1, 175437, Note_on_c, 0, 79, 75
1, 175465, Note_off_c, 0, 81, 61
1, 175484, Note_off_c, 0, 62, 59
1, 175486, Note_off_c, 0, 79, 62
1, 175494, Note_on_c, 0, 67, 70
1, 175494, Note_on_c, 0, 78, 77
1, 175502, Note_off_c, 0, 59, 56
1, 175535, Note_on_c, 0, 79, 71
1, 175539, Note_off_c, 0, 78, 60
1, 175577, Note_off_c, 0, 79, 63
1, 175580, Note_on_c, 0, 63, 83
1, 175584, Note_on_c, 0, 60, 79
1, 175592, Note_off_c, 0, 67, 62
1, 175599, Note_on_c, 0, 75, 87
1, 175717, Note_off_c, 0, 75, 63
1, 175765, Note_on_c, 0, 86, 75
1, 175811, Note_on_c, 0, 84, 66
1, 175820, Note_off_c, 0, 86, 60
1, 175848, Note_off_c, 0, 84, 64
1, 175852, Note_on_c, 0, 83, 77
1, 175899, Note_on_c, 0, 84, 66
1, 175905, Note_off_c, 0, 83, 62
1, 175929, Note_off_c, 0, 84, 61
1, 175955, Note_on_c, 0, 79, 86
1, 176038, Note_off_c, 0, 60, 60
1, 176042, Note_off_c, 0, 63, 62
1, 176116, Note_on_c, 0, 89, 84
1, 176161, Note_off_c, 0, 79, 57
1, 176175, Note_on_c, 0, 87, 75
1, 176218, Note_off_c, 0, 89, 63
1, 176232, Note_on_c, 0, 86, 76
1, 176235, Note_off_c, 0, 87, 65
1, 176274, Note_on_c, 0, 87, 69
1, 176280, Note_off_c, 0, 86, 65
1, 176298, Note_off_c, 0, 87, 69
1, 176333, Note_on_c, 0, 60, 90
1, 176340, Note_on_c, 0, 56, 79
1, 176442, Note_on_c, 0, 83, 88
1, 176538, Note_on_c, 0, 86, 86
1, 176553, Note_off_c, 0, 83, 63
1, 176638, Note_on_c, 0, 84, 86
1, 176738, Note_on_c, 0, 82, 88
1, 176743, Note_off_c, 0, 86, 59
1, 176779, Note_off_c, 0, 84, 62
1, 176833, Note_on_c, 0, 80, 87
1, 176890, Note_off_c, 0, 82, 61
1, 176921, Note_on_c, 0, 79, 85
1, 176929, Note_off_c, 0, 80, 63
1, 177023, Note_on_c, 0, 78, 81
1, 177034, Note_off_c, 0, 79, 61
1, 177064, Note_off_c, 0, 60, 55
1, 177122, Note_on_c, 0, 59, 74
1, 177124, Note_on_c, 0, 79, 92
1, 177125, Note_on_c, 0, 55, 72
1, 177129, Note_off_c, 0, 56, 62
1, 177133, Note_off_c, 0, 78, 61
1, 177216, Note_on_c, 0, 78, 87
1, 177229, Note_off_c, 0, 79, 60
1, 177323, Note_on_c, 0, 79, 85
1, 177345, Note_off_c, 0, 78, 59
1, 177406, Note_on_c, 0, 74, 82
1, 177423, Note_off_c, 0, 79, 62
1, 177492, Note_on_c, 0, 75, 86
1, 177495, Note_off_c, 0, 74, 60
1, 177581, Note_on_c, 0, 74, 85
1, 177596, Note_off_c, 0, 75, 63
1, 177679, Note_on_c, 0, 75, 89
1, 177704, Note_off_c, 0, 74, 61
1, 177765, Note_off_c, 0, 75, 62
1, 177775, Note_on_c, 0, 71, 81
1, 177825, Note_off_c, 0, 59, 58
1, 177863, Note_on_c, 0, 72, 86
1, 177867, Note_off_c, 0, 55, 62
1, 177870, Note_off_c, 0, 71, 38
1, 177952, Note_on_c, 0, 71, 85
1, 177969, Note_off_c, 0, 72, 60
1, 178041, Note_on_c, 0, 72, 90
1, 178063, Note_off_c, 0, 71, 59
1, 178116, Note_off_c, 0, 72, 59
1, 178134, Note_on_c, 0, 67, 83
1, 178218, Note_on_c, 0, 68, 89
1, 178219, Note_off_c, 0, 67, 51
1, 178308, Note_on_c, 0, 67, 86
1, 178308, Note_off_c, 0, 68, 64
1, 178391, Note_on_c, 0, 68, 84
1, 178391, Note_off_c, 0, 67, 60
1, 178486, Note_on_c, 0, 66, 80
1, 178494, Note_off_c, 0, 68, 64
1, 178519, Note_off_c, 0, 66, 63
1, 178569, Note_on_c, 0, 55, 75
1, 178574, Note_on_c, 0, 67, 88
1, 178656, Note_on_c, 0, 54, 71
1, 178660, Note_off_c, 0, 55, 62
1, 178666, Note_on_c, 0, 66, 85
1, 178666, Note_off_c, 0, 67, 64
1, 178753, Note_off_c, 0, 54, 62
1, 178754, Note_on_c, 0, 55, 78
1, 178757, Note_on_c, 0, 67, 84
1, 178759, Note_off_c, 0, 66, 58
1, 178843, Note_on_c, 0, 50, 70
1, 178846, Note_on_c, 0, 62, 87
1, 178853, Note_off_c, 0, 55, 60
1, 178855, Note_off_c, 0, 67, 62
1, 178922, Note_off_c, 0, 50, 63
1, 178938, Note_on_c, 0, 63, 89
1, 178942, Note_on_c, 0, 51, 71
1, 178945, Note_off_c, 0, 62, 54
1, 179027, Note_on_c, 0, 62, 92
1, 179034, Note_off_c, 0, 63, 63
1, 179036, Note_off_c, 0, 51, 61
1, 179038, Note_on_c, 0, 50, 69
1, 179106, Note_off_c, 0, 50, 63
1, 179114, Note_on_c, 0, 51, 75
1, 179119, Note_on_c, 0, 63, 89
1, 179134, Note_off_c, 0, 62, 61
1, 179179, Note_off_c, 0, 51, 56
1, 179199, Note_off_c, 0, 63, 62
1, 179211, Note_on_c, 0, 47, 70
1, 179212, Note_on_c, 0, 59, 81
1, 179270, Note_off_c, 0, 59, 61
1, 179275, Note_off_c, 0, 47, 53
1, 179295, Note_on_c, 0, 48, 74
1, 179300, Note_on_c, 0, 60, 88
1, 179378, Note_off_c, 0, 48, 41
1, 179385, Note_on_c, 0, 47, 78
1, 179386, Note_on_c, 0, 59, 72
1, 179408, Note_off_c, 0, 60, 61
1, 179448, Note_off_c, 0, 47, 61
1, 179482, Note_on_c, 0, 48, 78
1, 179483, Note_on_c, 0, 60, 89
1, 179513, Note_off_c, 0, 59, 59
1, 179551, Note_off_c, 0, 60, 60
1, 179565, Note_on_c, 0, 43, 67
1, 179574, Note_on_c, 0, 55, 81
1, 179577, Note_off_c, 0, 48, 59
1, 179637, Note_off_c, 0, 43, 57
1, 179652, Note_off_c, 0, 55, 53
1, 179654, Note_on_c, 0, 44, 74
1, 179660, Note_on_c, 0, 56, 84
1, 179745, Note_off_c, 0, 56, 64
1, 179753, Note_on_c, 0, 55, 85
1, 179755, Note_off_c, 0, 44, 63
1, 179759, Note_on_c, 0, 43, 70
1, 179826, Note_off_c, 0, 43, 61
1, 179836, Note_on_c, 0, 56, 86
1, 179846, Note_on_c, 0, 44, 71
1, 179846, Note_off_c, 0, 55, 61
1, 179923, Note_on_c, 0, 54, 83
1, 179923, Note_on_c, 0, 42, 78
1, 179942, Note_off_c, 0, 56, 64
1, 179956, Note_off_c, 0, 44, 62
1, 179974, Note_off_c, 0, 54, 60
1, 179985, Note_off_c, 0, 42, 61
1, 180029, Note_on_c, 0, 43, 82
1, 180030, Note_on_c, 0, 55, 88
1, 180102, Note_off_c, 0, 43, 60
1, 180121, Note_on_c, 0, 31, 80
1, 180185, Note_on_c, 0, 35, 80
1, 180218, Note_off_c, 0, 31, 61
1, 180272, Note_on_c, 0, 38, 82
1, 180289, Note_off_c, 0, 35, 50
1, 180310, Note_off_c, 0, 55, 48
1, 180373, Note_off_c, 0, 38, 60
1, 180379, Note_on_c, 0, 43, 82
1, 180400, Note_on_c, 0, 55, 84
1, 180403, Note_on_c, 0, 50, 73
1, 180405, Note_on_c, 0, 47, 66
1, 180433, Note_off_c, 0, 47, 63
1, 180476, Note_off_c, 0, 50, 0
1, 180483, Note_on_c, 0, 31, 84
1, 180485, Note_off_c, 0, 43, 48
1, 180513, Poly_aftertouch_c, 0, 50, 127
1, 180548, Note_on_c, 0, 50, 3
1, 180554, Note_off_c, 0, 50, 52
1, 180560, Note_on_c, 0, 35, 81
1, 180591, Note_off_c, 0, 31, 60
1, 180657, Note_on_c, 0, 38, 83
1, 180698, Note_off_c, 0, 35, 61
1, 180724, Note_off_c, 0, 55, 50
1, 180802, Note_off_c, 0, 38, 59
1, 180811, Note_on_c, 0, 55, 87
1, 180814, Note_on_c, 0, 43, 88
1, 180823, Note_on_c, 0, 47, 71
1, 180823, Note_on_c, 0, 50, 71
1, 180850, Note_off_c, 0, 47, 64
1, 180867, Note_off_c, 0, 50, 56
1, 180921, Note_on_c, 0, 47, 47
1, 180946, Poly_aftertouch_c, 0, 50, 127
1, 180951, Note_off_c, 0, 47, 51
1, 181073, Poly_aftertouch_c, 0, 47, 127
1, 181140, Poly_aftertouch_c, 0, 47, 0
1, 181147, Poly_aftertouch_c, 0, 50, 0
1, 181217, Note_off_c, 0, 55, 62
1, 181230, Note_off_c, 0, 43, 62
1, 181598, Control_c, 0, 64, 44
1, 181613, Control_c, 0, 64, 59
1, 181628, Control_c, 0, 64, 63
1, 181643, Control_c, 0, 64, 64
1, 181657, Note_on_c, 0, 72, 36
1, 181657, Control_c, 0, 64, 65
1, 181672, Control_c, 0, 64, 66
1, 181687, Control_c, 0, 64, 67
1, 181716, Control_c, 0, 64, 67
1, 181731, Control_c, 0, 64, 68
1, 181762, Control_c, 0, 64, 68
1, 181777, Control_c, 0, 64, 69
1, 181792, Control_c, 0, 64, 69
1, 181866, Control_c, 0, 64, 70
1, 181867, Note_on_c, 0, 76, 46
1, 181999, Control_c, 0, 64, 70
1, 182028, Control_c, 0, 64, 69
1, 182043, Control_c, 0, 64, 66
1, 182058, Control_c, 0, 64, 0
1, 182072, Note_on_c, 0, 67, 41
1, 182102, Control_c, 0, 64, 64
1, 182117, Control_c, 0, 64, 66
1, 182132, Control_c, 0, 64, 68
1, 182147, Control_c, 0, 64, 69
1, 182161, Control_c, 0, 64, 70
1, 182192, Note_off_c, 0, 72, 38
1, 182199, Control_c, 0, 64, 70
1, 182213, Control_c, 0, 64, 71
1, 182228, Control_c, 0, 64, 72
1, 182243, Control_c, 0, 64, 72
1, 182266, Note_on_c, 0, 79, 61
1, 182331, Control_c, 0, 64, 73
1, 182346, Control_c, 0, 64, 73
1, 182361, Control_c, 0, 64, 74
1, 182376, Control_c, 0, 64, 75
1, 182391, Control_c, 0, 64, 75
1, 182406, Control_c, 0, 64, 72
1, 182421, Control_c, 0, 64, 66
1, 182436, Control_c, 0, 64, 0
1, 182454, Note_off_c, 0, 76, 32
1, 182460, Note_off_c, 0, 67, 35
1, 182462, Note_on_c, 0, 64, 41
1, 182495, Control_c, 0, 64, 64
1, 182510, Control_c, 0, 64, 68
1, 182525, Control_c, 0, 64, 69
1, 182539, Control_c, 0, 64, 71
1, 182555, Control_c, 0, 64, 72
1, 182570, Control_c, 0, 64, 73
1, 182585, Control_c, 0, 64, 74
1, 182600, Control_c, 0, 64, 75
1, 182615, Control_c, 0, 64, 76
1, 182629, Control_c, 0, 64, 76
1, 182659, Control_c, 0, 64, 77
1, 182669, Note_on_c, 0, 84, 54
1, 182670, Note_off_c, 0, 79, 59
1, 182674, Control_c, 0, 64, 78
1, 182689, Control_c, 0, 64, 78
1, 182703, Control_c, 0, 64, 79
1, 182733, Control_c, 0, 64, 80
1, 182748, Control_c, 0, 64, 80
1, 182762, Control_c, 0, 64, 81
1, 182777, Control_c, 0, 64, 83
1, 182792, Control_c, 0, 64, 84
1, 182807, Control_c, 0, 64, 83
1, 182822, Control_c, 0, 64, 78
1, 182836, Control_c, 0, 64, 70
1, 182851, Control_c, 0, 64, 63
1, 182856, Note_on_c, 0, 69, 41
1, 182866, Control_c, 0, 64, 64
1, 182881, Control_c, 0, 64, 66
1, 182896, Control_c, 0, 64, 70
1, 182910, Control_c, 0, 64, 74
1, 182917, Note_off_c, 0, 64, 41
1, 182925, Control_c, 0, 64, 79
1, 182948, Control_c, 0, 64, 81
1, 182962, Control_c, 0, 64, 82
1, 182977, Control_c, 0, 64, 82
1, 182992, Control_c, 0, 64, 83
1, 183007, Control_c, 0, 64, 84
1, 183022, Control_c, 0, 64, 86
1, 183036, Control_c, 0, 64, 87
1, 183051, Control_c, 0, 64, 88
1, 183060, Note_on_c, 0, 79, 38
1, 183068, Note_off_c, 0, 84, 40
1, 183071, Note_on_c, 0, 85, 47
1, 183125, Control_c, 0, 64, 88
1, 183140, Control_c, 0, 64, 89
1, 183154, Control_c, 0, 64, 89
1, 183184, Control_c, 0, 64, 90
1, 183243, Control_c, 0, 64, 86
1, 183251, Note_on_c, 0, 62, 45
1, 183258, Control_c, 0, 64, 76
1, 183273, Control_c, 0, 64, 66
1, 183288, Control_c, 0, 64, 0
1, 183292, Note_off_c, 0, 69, 38
1, 183303, Control_c, 0, 64, 59
1, 183310, Note_off_c, 0, 85, 59
1, 183318, Control_c, 0, 64, 66
1, 183333, Control_c, 0, 64, 69
1, 183348, Control_c, 0, 64, 71
1, 183363, Control_c, 0, 64, 72
1, 183378, Control_c, 0, 64, 74
1, 183393, Control_c, 0, 64, 75
1, 183407, Control_c, 0, 64, 76
1, 183422, Control_c, 0, 64, 77
1, 183437, Control_c, 0, 64, 78
1, 183459, Note_on_c, 0, 86, 47
1, 183476, Note_on_c, 0, 77, 37
1, 183482, Control_c, 0, 64, 78
1, 183497, Control_c, 0, 64, 79
1, 183512, Control_c, 0, 64, 79
1, 183526, Control_c, 0, 64, 81
1, 183541, Note_off_c, 0, 79, 42
1, 183541, Control_c, 0, 64, 82
1, 183551, Note_off_c, 0, 77, 36
1, 183556, Control_c, 0, 64, 83
1, 183571, Control_c, 0, 64, 83
1, 183600, Control_c, 0, 64, 83
1, 183615, Control_c, 0, 64, 80
1, 183630, Control_c, 0, 64, 73
1, 183645, Control_c, 0, 64, 64
1, 183655, Note_off_c, 0, 62, 52
1, 183659, Control_c, 0, 64, 0
1, 183667, Note_on_c, 0, 67, 48
1, 183697, Control_c, 0, 64, 62
1, 183712, Control_c, 0, 64, 66
1, 183726, Control_c, 0, 64, 69
1, 183741, Control_c, 0, 64, 71
1, 183756, Control_c, 0, 64, 74
1, 183771, Control_c, 0, 64, 76
1, 183785, Control_c, 0, 64, 78
1, 183800, Control_c, 0, 64, 78
1, 183864, Note_off_c, 0, 86, 50
1, 183872, Note_on_c, 0, 77, 45
1, 183872, Note_on_c, 0, 83, 42
1, 183904, Control_c, 0, 64, 79
1, 183944, Note_off_c, 0, 77, 0
1, 183978, Control_c, 0, 64, 77
1, 183992, Control_c, 0, 64, 71
1, 184007, Control_c, 0, 64, 64
1, 184019, Poly_aftertouch_c, 0, 77, 0
1, 184022, Control_c, 0, 64, 0
1, 184052, Control_c, 0, 64, 55
1, 184062, Note_on_c, 0, 60, 40
1, 184066, Control_c, 0, 64, 66
1, 184081, Control_c, 0, 64, 69
1, 184090, Note_off_c, 0, 67, 36
1, 184096, Control_c, 0, 64, 72
1, 184111, Control_c, 0, 64, 75
1, 184123, Note_off_c, 0, 60, 60
1, 184126, Control_c, 0, 64, 77
1, 184141, Control_c, 0, 64, 77
1, 184171, Control_c, 0, 64, 78
1, 184215, Control_c, 0, 64, 78
1, 184261, Note_on_c, 0, 84, 52
1, 184268, Note_on_c, 0, 76, 26
1, 184303, Note_off_c, 0, 76, 40
1, 184312, Note_off_c, 0, 83, 46
1, 184364, Control_c, 0, 64, 79
1, 184394, Control_c, 0, 64, 79
1, 184408, Control_c, 0, 64, 80
1, 184430, Control_c, 0, 64, 81
1, 184460, Control_c, 0, 64, 78
1, 184475, Control_c, 0, 64, 71
1, 184478, Note_on_c, 0, 76, 70
1, 184490, Control_c, 0, 64, 64
1, 184497, Note_off_c, 0, 84, 28
1, 184504, Control_c, 0, 64, 0
1, 184549, Control_c, 0, 64, 50
1, 184564, Control_c, 0, 64, 66
1, 184579, Control_c, 0, 64, 68
1, 184594, Control_c, 0, 64, 69
1, 184608, Control_c, 0, 64, 70
1, 184623, Control_c, 0, 64, 71
1, 184638, Control_c, 0, 64, 72
1, 184653, Control_c, 0, 64, 73
1, 184668, Control_c, 0, 64, 74
1, 184676, Note_on_c, 0, 80, 64
1, 184682, Control_c, 0, 64, 74
1, 184727, Control_c, 0, 64, 75
1, 184741, Control_c, 0, 64, 75
1, 184756, Control_c, 0, 64, 76
1, 184771, Control_c, 0, 64, 76
1, 184815, Control_c, 0, 64, 76
1, 184830, Control_c, 0, 64, 73
1, 184845, Control_c, 0, 64, 68
1, 184860, Control_c, 0, 64, 0
1, 184885, Note_on_c, 0, 65, 57
1, 184907, Note_off_c, 0, 76, 47
1, 184919, Control_c, 0, 64, 38
1, 184934, Control_c, 0, 64, 65
1, 184949, Control_c, 0, 64, 68
1, 184979, Control_c, 0, 64, 68
1, 184994, Control_c, 0, 64, 69
1, 185009, Control_c, 0, 64, 70
1, 185023, Control_c, 0, 64, 71
1, 185038, Control_c, 0, 64, 73
1, 185053, Control_c, 0, 64, 74
1, 185071, Note_off_c, 0, 80, 61
1, 185080, Note_on_c, 0, 81, 60
1, 185157, Control_c, 0, 64, 74
1, 185209, Control_c, 0, 64, 73
1, 185224, Control_c, 0, 64, 70
1, 185238, Control_c, 0, 64, 65
1, 185253, Control_c, 0, 64, 0
1, 185290, Note_on_c, 0, 74, 56
1, 185312, Control_c, 0, 64, 13
1, 185315, Note_off_c, 0, 65, 49
1, 185327, Control_c, 0, 64, 65
1, 185342, Control_c, 0, 64, 68
1, 185357, Control_c, 0, 64, 70
1, 185372, Control_c, 0, 64, 71
1, 185387, Control_c, 0, 64, 73
1, 185402, Control_c, 0, 64, 74
1, 185431, Control_c, 0, 64, 74
1, 185475, Control_c, 0, 64, 75
1, 185490, Control_c, 0, 64, 75
1, 185491, Note_off_c, 0, 81, 55
1, 185493, Note_on_c, 0, 89, 50
1, 185668, Control_c, 0, 64, 75
1, 185682, Control_c, 0, 64, 71
1, 185697, Control_c, 0, 64, 65
1, 185699, Note_on_c, 0, 64, 43
1, 185712, Control_c, 0, 64, 0
1, 185733, Note_off_c, 0, 74, 40
1, 185758, Control_c, 0, 64, 57
1, 185772, Control_c, 0, 64, 65
1, 185787, Control_c, 0, 64, 67
1, 185802, Control_c, 0, 64, 67
1, 185817, Control_c, 0, 64, 68
1, 185832, Control_c, 0, 64, 69
1, 185846, Control_c, 0, 64, 69
1, 185861, Control_c, 0, 64, 70
1, 185891, Control_c, 0, 64, 70
1, 185894, Note_on_c, 0, 79, 50
1, 185909, Note_off_c, 0, 89, 36
1, 185928, Control_c, 0, 64, 71
1, 185958, Control_c, 0, 64, 71
1, 186017, Control_c, 0, 64, 72
1, 186032, Control_c, 0, 64, 73
1, 186047, Control_c, 0, 64, 72
1, 186061, Control_c, 0, 64, 69
1, 186076, Control_c, 0, 64, 64
1, 186091, Control_c, 0, 64, 0
1, 186119, Note_on_c, 0, 72, 59
1, 186120, Control_c, 0, 64, 55
1, 186135, Control_c, 0, 64, 65
1, 186150, Control_c, 0, 64, 68
1, 186156, Note_off_c, 0, 64, 38
1, 186165, Control_c, 0, 64, 70
1, 186180, Control_c, 0, 64, 71
1, 186209, Control_c, 0, 64, 72
1, 186224, Control_c, 0, 64, 72
1, 186239, Control_c, 0, 64, 73
1, 186254, Control_c, 0, 64, 74
1, 186269, Control_c, 0, 64, 75
1, 186284, Control_c, 0, 64, 75
1, 186299, Note_on_c, 0, 88, 52
1, 186311, Note_off_c, 0, 72, 52
1, 186316, Note_off_c, 0, 79, 55
1, 186417, Control_c, 0, 64, 76
1, 186447, Control_c, 0, 64, 76
1, 186461, Control_c, 0, 64, 77
1, 186482, Note_on_c, 0, 62, 48
1, 186491, Control_c, 0, 64, 75
1, 186505, Control_c, 0, 64, 70
1, 186520, Control_c, 0, 64, 54
1, 186535, Control_c, 0, 64, 0
1, 186581, Control_c, 0, 64, 64
1, 186596, Control_c, 0, 64, 67
1, 186610, Control_c, 0, 64, 67
1, 186640, Control_c, 0, 64, 68
1, 186655, Control_c, 0, 64, 68
1, 186670, Control_c, 0, 64, 69
1, 186692, Control_c, 0, 64, 70
1, 186707, Note_on_c, 0, 77, 56
1, 186707, Control_c, 0, 64, 71
1, 186709, Note_off_c, 0, 88, 54
1, 186722, Control_c, 0, 64, 72
1, 186736, Control_c, 0, 64, 71
1, 186751, Control_c, 0, 64, 67
1, 186766, Control_c, 0, 64, 56
1, 186781, Control_c, 0, 64, 55
1, 186796, Control_c, 0, 64, 65
1, 186810, Control_c, 0, 64, 68
1, 186825, Control_c, 0, 64, 72
1, 186840, Control_c, 0, 64, 76
1, 186855, Control_c, 0, 64, 78
1, 186870, Control_c, 0, 64, 79
1, 186898, Note_on_c, 0, 71, 46
1, 186928, Control_c, 0, 64, 80
1, 186943, Control_c, 0, 64, 81
1, 186958, Control_c, 0, 64, 82
1, 186973, Control_c, 0, 64, 82
1, 186978, Note_off_c, 0, 62, 57
1, 187010, Note_off_c, 0, 71, 50
1, 187072, Note_off_c, 0, 77, 52
1, 187080, Note_on_c, 0, 86, 50
1, 187254, Control_c, 0, 64, 79
1, 187269, Control_c, 0, 64, 72
1, 187278, Note_on_c, 0, 72, 44
1, 187284, Note_on_c, 0, 60, 43
1, 187284, Control_c, 0, 64, 64
1, 187299, Control_c, 0, 64, 0
1, 187344, Control_c, 0, 64, 64
1, 187359, Control_c, 0, 64, 65
1, 187374, Control_c, 0, 64, 66
1, 187404, Control_c, 0, 64, 67
1, 187441, Control_c, 0, 64, 67
1, 187456, Control_c, 0, 64, 68
1, 187485, Control_c, 0, 64, 68
1, 187494, Note_on_c, 0, 76, 50
1, 187545, Control_c, 0, 64, 69
1, 187556, Note_off_c, 0, 86, 36
1, 187575, Control_c, 0, 64, 70
1, 187590, Control_c, 0, 64, 70
1, 187605, Control_c, 0, 64, 71
1, 187619, Control_c, 0, 64, 70
1, 187634, Control_c, 0, 64, 67
1, 187649, Control_c, 0, 64, 58
1, 187664, Control_c, 0, 64, 0
1, 187677, Note_off_c, 0, 72, 50
1, 187680, Note_off_c, 0, 60, 36
1, 187693, Note_on_c, 0, 64, 40
1, 187695, Note_on_c, 0, 67, 38
1, 187723, Control_c, 0, 64, 59
1, 187738, Control_c, 0, 64, 65
1, 187752, Control_c, 0, 64, 65
1, 187782, Control_c, 0, 64, 66
1, 187797, Control_c, 0, 64, 66
1, 187812, Control_c, 0, 64, 67
1, 187826, Control_c, 0, 64, 68
1, 187879, Note_off_c, 0, 76, 55
1, 187885, Control_c, 0, 64, 68
1, 187888, Note_on_c, 0, 84, 49
1, 187915, Control_c, 0, 64, 69
1, 187944, Control_c, 0, 64, 69
1, 187959, Control_c, 0, 64, 70
1, 187974, Control_c, 0, 64, 71
1, 187989, Control_c, 0, 64, 70
1, 188004, Control_c, 0, 64, 68
1, 188016, Note_off_c, 0, 64, 37
1, 188019, Control_c, 0, 64, 60
1, 188034, Control_c, 0, 64, 0
1, 188061, Note_off_c, 0, 67, 26
1, 188092, Note_on_c, 0, 69, 41
1, 188093, Note_on_c, 0, 65, 46
1, 188108, Control_c, 0, 64, 64
1, 188123, Control_c, 0, 64, 66
1, 188264, Control_c, 0, 64, 66
1, 188288, Note_off_c, 0, 84, 62
1, 188294, Control_c, 0, 64, 66
1, 188295, Note_on_c, 0, 74, 51
1, 188338, Control_c, 0, 64, 66
1, 188353, Control_c, 0, 64, 67
1, 188368, Control_c, 0, 64, 67
1, 188397, Control_c, 0, 64, 66
1, 188412, Control_c, 0, 64, 0
1, 188453, Note_off_c, 0, 65, 42
1, 188472, Note_on_c, 0, 66, 51
1, 188500, Control_c, 0, 64, 64
1, 188503, Note_off_c, 0, 69, 48
1, 188515, Control_c, 0, 64, 66
1, 188530, Control_c, 0, 64, 67
1, 188589, Control_c, 0, 64, 67
1, 188604, Control_c, 0, 64, 68
1, 188619, Control_c, 0, 64, 69
1, 188621, Note_off_c, 0, 74, 54
1, 188658, Note_on_c, 0, 72, 59
1, 188782, Control_c, 0, 64, 68
1, 188797, Control_c, 0, 64, 64
1, 188812, Control_c, 0, 64, 0
1, 188830, Note_off_c, 0, 72, 56
1, 188839, Note_on_c, 0, 71, 60
1, 188851, Note_on_c, 0, 67, 61
1, 188877, Note_off_c, 0, 66, 58
1, 188886, Note_off_c, 0, 71, 61
1, 188925, Note_on_c, 0, 79, 65
1, 189016, Note_off_c, 0, 79, 54
1, 189022, Note_on_c, 0, 77, 52
1, 189040, Note_off_c, 0, 67, 56
1, 189101, Note_off_c, 0, 77, 55
1, 189103, Note_on_c, 0, 74, 52
1, 189187, Note_on_c, 0, 71, 64
1, 189187, Note_off_c, 0, 74, 61
1, 189214, Note_off_c, 0, 71, 65
1, 189278, Note_on_c, 0, 67, 71
1, 189313, Note_off_c, 0, 67, 66
1, 189355, Note_on_c, 0, 65, 64
1, 189410, Note_off_c, 0, 65, 52
1, 189420, Note_on_c, 0, 62, 59
1, 189503, Note_off_c, 0, 62, 61
1, 189516, Note_on_c, 0, 64, 67
1, 189588, Note_on_c, 0, 79, 69
1, 189659, Note_off_c, 0, 79, 61
1, 189679, Note_on_c, 0, 76, 59
1, 189737, Note_off_c, 0, 64, 61
1, 189771, Note_on_c, 0, 72, 63
1, 189774, Note_off_c, 0, 76, 58
1, 189831, Note_off_c, 0, 72, 51
1, 189851, Note_on_c, 0, 67, 68
1, 189879, Note_off_c, 0, 67, 66
1, 189962, Note_on_c, 0, 65, 48
1, 190018, Note_on_c, 0, 64, 40
1, 190024, Note_off_c, 0, 65, 45
1, 190094, Note_off_c, 0, 64, 63
1, 190138, Note_on_c, 0, 60, 40
1, 190138, Note_on_c, 0, 62, 42
1, 190183, Note_off_c, 0, 62, 66
1, 190250, Note_off_c, 0, 60, 61
1, 190265, Note_on_c, 0, 79, 73
1, 190347, Note_on_c, 0, 77, 77
1, 190384, Note_off_c, 0, 79, 61
1, 190446, Note_on_c, 0, 74, 65
1, 190473, Note_off_c, 0, 77, 56
1, 190519, Note_off_c, 0, 74, 61
1, 190525, Note_on_c, 0, 71, 56
1, 190546, Note_off_c, 0, 71, 64
1, 190582, Note_on_c, 0, 67, 70
1, 190621, Note_off_c, 0, 67, 56
1, 190659, Note_on_c, 0, 65, 60
1, 190711, Note_off_c, 0, 65, 54
1, 190732, Note_on_c, 0, 62, 64
1, 190826, Note_on_c, 0, 60, 81
1, 190827, Note_off_c, 0, 62, 63
1, 190849, Note_off_c, 0, 60, 64
1, 190907, Note_on_c, 0, 76, 70
1, 190976, Note_off_c, 0, 76, 44
1, 190991, Note_on_c, 0, 72, 73
1, 191015, Note_off_c, 0, 72, 66
1, 191062, Note_on_c, 0, 67, 67
1, 191143, Note_on_c, 0, 64, 87
1, 191148, Note_off_c, 0, 67, 64
1, 191170, Note_off_c, 0, 64, 70
1, 191257, Note_on_c, 0, 79, 76
1, 191295, Note_off_c, 0, 79, 63
1, 191301, Poly_aftertouch_c, 0, 64, 0
1, 191347, Note_on_c, 0, 76, 73
1, 191372, Note_off_c, 0, 76, 67
1, 191426, Note_on_c, 0, 72, 76
1, 191480, Note_on_c, 0, 67, 75
1, 191490, Note_off_c, 0, 72, 61
1, 191503, Note_off_c, 0, 67, 67
1, 191572, Note_on_c, 0, 84, 81
1, 191661, Note_off_c, 0, 84, 63
1, 191664, Note_on_c, 0, 79, 61
1, 191673, Note_on_c, 0, 81, 53
1, 191682, Note_off_c, 0, 79, 66
1, 191694, Note_off_c, 0, 81, 38
1, 191746, Note_on_c, 0, 76, 71
1, 191806, Note_on_c, 0, 72, 85
1, 191819, Note_off_c, 0, 76, 61
1, 191829, Note_off_c, 0, 72, 67
1, 191905, Note_on_c, 0, 88, 79
1, 191989, Note_on_c, 0, 84, 86
1, 191998, Note_off_c, 0, 88, 62
1, 192011, Note_off_c, 0, 84, 67
1, 192081, Note_on_c, 0, 80, 86
1, 192157, Note_on_c, 0, 81, 89
1, 192171, Note_off_c, 0, 80, 65
1, 192185, Note_off_c, 0, 81, 65
1, 192241, Note_on_c, 0, 83, 83
1, 192294, Note_off_c, 0, 83, 61
1, 192335, Note_on_c, 0, 84, 86
1, 192353, Note_off_c, 0, 84, 71
1, 192416, Note_on_c, 0, 76, 78
1, 192475, Note_off_c, 0, 76, 59
1, 192495, Note_on_c, 0, 77, 85
1, 192516, Note_off_c, 0, 77, 68
1, 192570, Note_on_c, 0, 80, 77
1, 192654, Note_on_c, 0, 81, 85
1, 192674, Note_off_c, 0, 80, 63
1, 192681, Note_off_c, 0, 81, 68
1, 192741, Note_on_c, 0, 73, 82
1, 192829, Note_on_c, 0, 74, 87
1, 192842, Note_off_c, 0, 73, 62
1, 192854, Note_off_c, 0, 74, 67
1, 192905, Note_on_c, 0, 76, 82
1, 192961, Note_off_c, 0, 76, 57
1, 192988, Note_on_c, 0, 77, 91
1, 193007, Note_off_c, 0, 77, 68
1, 193076, Note_on_c, 0, 64, 80
1, 193143, Note_off_c, 0, 64, 63
1, 193160, Note_on_c, 0, 65, 91
1, 193193, Note_off_c, 0, 65, 67
1, 193241, Note_on_c, 0, 73, 80
1, 193309, Note_off_c, 0, 73, 51
1, 193320, Note_on_c, 0, 74, 81
1, 193340, Note_off_c, 0, 74, 69
1, 193373, Note_on_c, 0, 54, 67
1, 193483, Note_on_c, 0, 55, 79
1, 193490, Note_off_c, 0, 54, 61
1, 193561, Note_on_c, 0, 67, 71
1, 193633, Note_off_c, 0, 67, 50
1, 193650, Note_on_c, 0, 68, 77
1, 193737, Note_on_c, 0, 69, 80
1, 193739, Note_off_c, 0, 68, 62
1, 193811, Note_off_c, 0, 69, 58
1, 193823, Note_on_c, 0, 70, 79
1, 193900, Note_off_c, 0, 70, 61
1, 193902, Note_on_c, 0, 71, 80
1, 193990, Note_on_c, 0, 72, 83
1, 193993, Note_off_c, 0, 71, 64
1, 194081, Note_on_c, 0, 73, 82
1, 194088, Note_off_c, 0, 72, 59
1, 194151, Note_off_c, 0, 73, 61
1, 194171, Note_on_c, 0, 74, 81
1, 194243, Note_off_c, 0, 74, 61
1, 194248, Note_on_c, 0, 75, 87
1, 194291, Note_off_c, 0, 55, 62
1, 194318, Note_off_c, 0, 75, 57
1, 194329, Note_on_c, 0, 76, 87
1, 194404, Note_on_c, 0, 77, 91
1, 194416, Note_off_c, 0, 76, 59
1, 194489, Note_on_c, 0, 78, 81
1, 194506, Note_off_c, 0, 77, 50
1, 194562, Note_off_c, 0, 78, 54
1, 194570, Note_on_c, 0, 79, 83
1, 194651, Note_on_c, 0, 76, 73
1, 194669, Note_on_c, 0, 74, 57
1, 194675, Note_off_c, 0, 79, 61
1, 194690, Note_off_c, 0, 74, 59
1, 194696, Note_on_c, 0, 55, 55
1, 194706, Note_off_c, 0, 76, 62
1, 194720, Note_on_c, 0, 59, 56
1, 194733, Note_on_c, 0, 72, 84
1, 194785, Note_on_c, 0, 62, 55
1, 194790, Note_off_c, 0, 72, 62
1, 194810, Note_on_c, 0, 76, 98
1, 194813, Note_on_c, 0, 65, 84
1, 194831, Control_c, 0, 64, 58
1, 194846, Control_c, 0, 64, 68
1, 194860, Control_c, 0, 64, 71
1, 194875, Control_c, 0, 64, 73
1, 194890, Control_c, 0, 64, 76
1, 194893, Note_off_c, 0, 62, 0
1, 194905, Control_c, 0, 64, 79
1, 194928, Control_c, 0, 64, 81
1, 194937, Poly_aftertouch_c, 0, 62, 127
1, 194942, Note_on_c, 0, 62, 3
1, 194942, Control_c, 0, 64, 84
1, 194955, Note_off_c, 0, 76, 58
1, 194957, Control_c, 0, 64, 88
1, 194972, Control_c, 0, 64, 90
1, 194987, Control_c, 0, 64, 92
1, 194993, Note_off_c, 0, 55, 60
1, 195001, Note_on_c, 0, 74, 73
1, 195001, Control_c, 0, 64, 94
1, 195016, Control_c, 0, 64, 95
1, 195020, Note_off_c, 0, 65, 64
1, 195021, Note_off_c, 0, 59, 53
1, 195028, Note_off_c, 0, 74, 66
1, 195037, Note_off_c, 0, 62, 54
1, 195046, Control_c, 0, 64, 98
1, 195050, Note_on_c, 0, 76, 73
1, 195061, Control_c, 0, 64, 100
1, 195075, Note_off_c, 0, 76, 65
1, 195075, Control_c, 0, 64, 103
1, 195090, Control_c, 0, 64, 106
1, 195102, Note_on_c, 0, 74, 73
1, 195105, Control_c, 0, 64, 109
1, 195120, Control_c, 0, 64, 111
1, 195131, Note_off_c, 0, 74, 61
1, 195136, Note_on_c, 0, 76, 79
1, 195149, Control_c, 0, 64, 114
1, 195179, Control_c, 0, 64, 117
1, 195193, Note_off_c, 0, 76, 59
1, 195194, Control_c, 0, 64, 120
1, 195209, Control_c, 0, 64, 123
1, 195215, Note_on_c, 0, 74, 65
1, 195250, Note_on_c, 0, 76, 71
1, 195262, Note_off_c, 0, 74, 63
1, 195299, Note_off_c, 0, 76, 60
1, 195312, Note_on_c, 0, 74, 59
1, 195319, Poly_aftertouch_c, 0, 72, 0
1, 195347, Note_on_c, 0, 76, 67
1, 195348, Note_off_c, 0, 74, 61
1, 195384, Note_off_c, 0, 76, 56
1, 195408, Note_on_c, 0, 74, 67
1, 195413, Note_on_c, 0, 81, 15
1, 195432, Control_c, 0, 64, 109
1, 195438, Note_on_c, 0, 83, 69
1, 195445, Note_off_c, 0, 74, 59
1, 195447, Control_c, 0, 64, 87
1, 195451, Note_on_c, 0, 76, 75
1, 195454, Note_off_c, 0, 81, 53
1, 195462, Control_c, 0, 64, 69
1, 195477, Control_c, 0, 64, 0
1, 195477, Note_off_c, 0, 83, 58
1, 195481, Note_on_c, 0, 84, 84
1, 195481, Note_off_c, 0, 76, 60
1, 195491, Control_c, 0, 64, 56
1, 195505, Note_on_c, 0, 74, 69
1, 195506, Control_c, 0, 64, 66
1, 195521, Control_c, 0, 64, 69
1, 195536, Control_c, 0, 64, 73
1, 195537, Note_on_c, 0, 76, 80
1, 195539, Note_on_c, 0, 83, 81
1, 195540, Note_off_c, 0, 84, 63
1, 195543, Note_off_c, 0, 74, 60
1, 195551, Control_c, 0, 64, 78
1, 195565, Control_c, 0, 64, 82
1, 195570, Note_on_c, 0, 77, 24
1, 195578, Note_off_c, 0, 76, 55
1, 195580, Control_c, 0, 64, 84
1, 195585, Note_off_c, 0, 83, 58
1, 195595, Control_c, 0, 64, 84
1, 195596, Note_on_c, 0, 84, 78
1, 195606, Note_off_c, 0, 77, 50
1, 195609, Control_c, 0, 64, 85
1, 195611, Note_on_c, 0, 74, 70
1, 195624, Control_c, 0, 64, 87
1, 195638, Note_off_c, 0, 74, 67
1, 195639, Control_c, 0, 64, 89
1, 195644, Note_on_c, 0, 76, 72
1, 195645, Note_off_c, 0, 84, 63
1, 195654, Control_c, 0, 64, 90
1, 195664, Note_on_c, 0, 83, 66
1, 195677, Note_off_c, 0, 76, 64
1, 195677, Control_c, 0, 64, 91
1, 195691, Control_c, 0, 64, 92
1, 195695, Note_off_c, 0, 83, 61
1, 195706, Control_c, 0, 64, 93
1, 195717, Note_on_c, 0, 74, 61
1, 195719, Note_on_c, 0, 84, 74
1, 195721, Control_c, 0, 64, 94
1, 195736, Control_c, 0, 64, 96
1, 195739, Note_off_c, 0, 74, 61
1, 195747, Note_on_c, 0, 76, 74
1, 195751, Control_c, 0, 64, 98
1, 195765, Control_c, 0, 64, 100
1, 195777, Note_on_c, 0, 83, 83
1, 195780, Control_c, 0, 64, 103
1, 195781, Note_off_c, 0, 84, 58
1, 195782, Note_off_c, 0, 76, 57
1, 195795, Control_c, 0, 64, 108
1, 195810, Control_c, 0, 64, 117
1, 195812, Note_on_c, 0, 74, 68
1, 195814, Note_on_c, 0, 84, 77
1, 195819, Note_off_c, 0, 83, 60
1, 195824, Control_c, 0, 64, 127
1, 195837, Note_on_c, 0, 76, 79
1, 195841, Note_off_c, 0, 74, 65
1, 195851, Note_off_c, 0, 84, 67
1, 195883, Note_off_c, 0, 76, 52
1, 195902, Note_on_c, 0, 74, 68
1, 195950, Poly_aftertouch_c, 0, 77, 0
1, 195972, Note_on_c, 0, 72, 69
1, 195979, Note_off_c, 0, 74, 62
1, 196035, Note_off_c, 0, 72, 47
1, 196053, Note_on_c, 0, 74, 79
1, 196073, Note_off_c, 0, 74, 70
1, 196091, Control_c, 0, 64, 119
1, 196106, Control_c, 0, 64, 91
1, 196121, Control_c, 0, 64, 72
1, 196136, Control_c, 0, 64, 50
1, 196147, Note_on_c, 0, 50, 63
1, 196151, Control_c, 0, 64, 0
1, 196216, Note_off_c, 0, 50, 64
1, 196219, Note_on_c, 0, 76, 79
1, 196232, Note_on_c, 0, 72, 62
1, 196255, Note_off_c, 0, 72, 58
1, 196255, Note_on_c, 0, 60, 56
1, 196283, Note_off_c, 0, 60, 62
1, 196299, Note_on_c, 0, 71, 73
1, 196299, Note_on_c, 0, 74, 76
1, 196300, Note_on_c, 0, 62, 3
1, 196301, Note_off_c, 0, 62, 127
1, 196309, Note_off_c, 0, 76, 59
1, 196321, Note_off_c, 0, 74, 66
1, 196321, Note_on_c, 0, 48, 81
1, 196322, Note_off_c, 0, 71, 67
1, 196371, Note_off_c, 0, 48, 60
1, 196386, Note_on_c, 0, 74, 67
1, 196391, Note_on_c, 0, 77, 86
1, 196414, Note_on_c, 0, 60, 60
1, 196459, Note_off_c, 0, 60, 62
1, 196480, Note_off_c, 0, 74, 38
1, 196485, Note_on_c, 0, 72, 73
1, 196485, Note_on_c, 0, 76, 77
1, 196496, Note_on_c, 0, 48, 75
1, 196496, Note_off_c, 0, 77, 60
1, 196506, Note_off_c, 0, 76, 67
1, 196509, Note_off_c, 0, 72, 65
1, 196532, Note_off_c, 0, 48, 63
1, 196565, Note_on_c, 0, 76, 58
1, 196568, Note_on_c, 0, 60, 73
1, 196570, Note_on_c, 0, 79, 88
1, 196616, Note_off_c, 0, 60, 57
1, 196656, Note_on_c, 0, 77, 85
1, 196658, Note_on_c, 0, 48, 68
1, 196662, Note_on_c, 0, 74, 72
1, 196671, Note_off_c, 0, 79, 63
1, 196677, Note_off_c, 0, 77, 67
1, 196686, Note_off_c, 0, 74, 67
1, 196701, Note_off_c, 0, 76, 26
1, 196718, Note_off_c, 0, 48, 63
1, 196743, Note_on_c, 0, 77, 77
1, 196744, Note_on_c, 0, 60, 68
1, 196744, Note_on_c, 0, 81, 90
1, 196800, Note_off_c, 0, 77, 56
1, 196818, Note_off_c, 0, 60, 59
1, 196839, Note_on_c, 0, 79, 85
1, 196840, Note_on_c, 0, 48, 75
1, 196845, Note_on_c, 0, 76, 71
1, 196847, Note_off_c, 0, 81, 63
1, 196856, Note_off_c, 0, 79, 72
1, 196871, Note_off_c, 0, 76, 63
1, 196899, Note_off_c, 0, 48, 63
1, 196925, Note_on_c, 0, 60, 74
1, 196986, Note_off_c, 0, 60, 59
1, 197017, Note_on_c, 0, 48, 69
1, 197071, Note_off_c, 0, 48, 60
1, 197087, Note_on_c, 0, 77, 55
1, 197099, Note_on_c, 0, 60, 69
1, 197105, Note_on_c, 0, 74, 53
1, 197183, Note_off_c, 0, 60, 55
1, 197201, Note_on_c, 0, 48, 71
1, 197202, Note_on_c, 0, 76, 66
1, 197205, Note_on_c, 0, 72, 64
1, 197207, Note_off_c, 0, 74, 62
1, 197211, Note_off_c, 0, 77, 61
1, 197219, Note_off_c, 0, 76, 65
1, 197227, Note_off_c, 0, 72, 64
1, 197248, Note_off_c, 0, 48, 60
1, 197286, Note_on_c, 0, 60, 71
1, 197358, Note_off_c, 0, 60, 56
1, 197367, Note_on_c, 0, 48, 68
1, 197418, Note_off_c, 0, 48, 58
1, 197433, Note_on_c, 0, 74, 65
1, 197436, Note_on_c, 0, 65, 58
1, 197445, Note_on_c, 0, 60, 63
1, 197465, Note_off_c, 0, 65, 66
1, 197467, Note_off_c, 0, 74, 65
1, 197512, Note_off_c, 0, 60, 58
1, 197528, Note_on_c, 0, 48, 73
1, 197535, Note_on_c, 0, 72, 71
1, 197540, Note_on_c, 0, 64, 49
1, 197552, Note_off_c, 0, 72, 66
1, 197567, Note_off_c, 0, 64, 38
1, 197579, Note_off_c, 0, 48, 61
1, 197608, Note_on_c, 0, 72, 87
1, 197610, Note_on_c, 0, 76, 85
1, 197614, Note_on_c, 0, 60, 72
1, 197656, Note_off_c, 0, 72, 54
1, 197674, Note_off_c, 0, 60, 57
1, 197697, Note_on_c, 0, 71, 73
1, 197698, Note_on_c, 0, 48, 72
1, 197699, Note_on_c, 0, 74, 78
1, 197704, Note_off_c, 0, 76, 62
1, 197721, Note_off_c, 0, 71, 67
1, 197721, Note_off_c, 0, 74, 69
1, 197760, Note_off_c, 0, 48, 62
1, 197784, Note_on_c, 0, 74, 71
1, 197784, Note_on_c, 0, 77, 90
1, 197786, Note_on_c, 0, 60, 68
1, 197834, Note_off_c, 0, 74, 62
1, 197863, Note_off_c, 0, 60, 55
1, 197874, Note_on_c, 0, 48, 70
1, 197875, Note_on_c, 0, 72, 75
1, 197876, Note_on_c, 0, 76, 81
1, 197886, Note_off_c, 0, 77, 60
1, 197898, Note_off_c, 0, 76, 66
1, 197903, Note_off_c, 0, 72, 64
1, 197945, Note_off_c, 0, 48, 62
1, 197967, Note_on_c, 0, 79, 89
1, 197968, Note_on_c, 0, 76, 80
1, 197969, Note_on_c, 0, 60, 73
1, 198027, Note_off_c, 0, 76, 53
1, 198038, Note_off_c, 0, 60, 57
1, 198057, Note_on_c, 0, 74, 76
1, 198058, Note_on_c, 0, 77, 91
1, 198061, Note_on_c, 0, 48, 74
1, 198082, Note_off_c, 0, 79, 59
1, 198088, Note_off_c, 0, 77, 63
1, 198091, Note_off_c, 0, 74, 64
1, 198125, Note_off_c, 0, 48, 63
1, 198148, Note_on_c, 0, 60, 71
1, 198159, Note_on_c, 0, 81, 90
1, 198160, Note_on_c, 0, 77, 90
1, 198189, Note_off_c, 0, 77, 63
1, 198207, Note_off_c, 0, 81, 57
1, 198210, Note_off_c, 0, 60, 60
1, 198231, Note_on_c, 0, 48, 79
1, 198246, Note_on_c, 0, 79, 81
1, 198248, Note_on_c, 0, 76, 69
1, 198248, Note_on_c, 0, 81, 44
1, 198264, Note_off_c, 0, 79, 71
1, 198273, Note_off_c, 0, 76, 64
1, 198276, Note_off_c, 0, 81, 32
1, 198291, Note_off_c, 0, 48, 63
1, 198316, Note_on_c, 0, 60, 75
1, 198372, Note_off_c, 0, 60, 59
1, 198407, Note_on_c, 0, 48, 71
1, 198480, Note_off_c, 0, 48, 62
1, 198496, Note_on_c, 0, 60, 63
1, 198506, Note_on_c, 0, 77, 70
1, 198513, Note_on_c, 0, 74, 63
1, 198560, Note_off_c, 0, 74, 59
1, 198577, Note_off_c, 0, 60, 54
1, 198594, Note_on_c, 0, 72, 60
1, 198596, Note_on_c, 0, 76, 74
1, 198598, Note_on_c, 0, 48, 72
1, 198610, Note_off_c, 0, 77, 59
1, 198622, Note_off_c, 0, 76, 66
1, 198622, Note_off_c, 0, 72, 64
1, 198664, Note_off_c, 0, 48, 62
1, 198691, Note_on_c, 0, 60, 71
1, 198766, Note_off_c, 0, 60, 57
1, 198777, Note_on_c, 0, 48, 74
1, 198819, Note_off_c, 0, 48, 60
1, 198840, Note_on_c, 0, 74, 62
1, 198845, Note_on_c, 0, 65, 58
1, 198864, Note_on_c, 0, 60, 69
1, 198867, Note_off_c, 0, 65, 64
1, 198875, Note_off_c, 0, 74, 62
1, 198914, Note_off_c, 0, 60, 54
1, 198932, Note_on_c, 0, 72, 68
1, 198932, Note_on_c, 0, 64, 60
1, 198937, Note_on_c, 0, 48, 70
1, 198950, Note_off_c, 0, 72, 65
1, 198953, Note_off_c, 0, 64, 63
1, 198989, Note_off_c, 0, 48, 61
1, 199019, Note_on_c, 0, 60, 69
1, 199027, Note_on_c, 0, 76, 78
1, 199029, Note_on_c, 0, 72, 64
1, 199058, Note_off_c, 0, 72, 64
1, 199076, Note_off_c, 0, 60, 51
1, 199087, Note_off_c, 0, 76, 0
1, 199099, Note_on_c, 0, 48, 72
1, 199107, Note_on_c, 0, 71, 72
1, 199112, Note_on_c, 0, 74, 74
1, 199120, Poly_aftertouch_c, 0, 76, 0
1, 199132, Note_off_c, 0, 71, 66
1, 199135, Note_off_c, 0, 74, 68
1, 199160, Note_off_c, 0, 48, 62
1, 199186, Note_on_c, 0, 60, 69
1, 199196, Note_on_c, 0, 74, 71
1, 199197, Note_on_c, 0, 77, 92
1, 199245, Note_off_c, 0, 74, 62
1, 199247, Note_off_c, 0, 60, 54
1, 199272, Note_on_c, 0, 48, 73
1, 199278, Note_on_c, 0, 72, 82
1, 199281, Note_on_c, 0, 76, 85
1, 199296, Note_off_c, 0, 77, 60
1, 199307, Note_off_c, 0, 76, 65
1, 199311, Note_off_c, 0, 72, 62
1, 199325, Note_off_c, 0, 48, 60
1, 199353, Note_on_c, 0, 60, 71
1, 199371, Note_on_c, 0, 79, 88
1, 199376, Note_on_c, 0, 76, 92
1, 199435, Note_off_c, 0, 60, 56
1, 199446, Note_on_c, 0, 48, 76
1, 199458, Note_on_c, 0, 74, 77
1, 199458, Note_on_c, 0, 77, 90
1, 199461, Note_off_c, 0, 76, 34
1, 199477, Note_off_c, 0, 79, 63
1, 199487, Note_off_c, 0, 77, 63
1, 199492, Note_off_c, 0, 74, 63
1, 199509, Note_off_c, 0, 48, 61
1, 199531, Note_on_c, 0, 60, 74
1, 199549, Note_on_c, 0, 81, 85
1, 199552, Note_on_c, 0, 77, 87
1, 199601, Note_off_c, 0, 77, 57
1, 199609, Note_off_c, 0, 60, 51
1, 199624, Note_on_c, 0, 48, 72
1, 199634, Note_on_c, 0, 79, 84
1, 199639, Note_on_c, 0, 76, 75
1, 199649, Note_off_c, 0, 81, 62
1, 199652, Note_off_c, 0, 79, 71
1, 199660, Note_off_c, 0, 76, 67
1, 199686, Note_off_c, 0, 48, 62
1, 199718, Note_on_c, 0, 60, 68
1, 199778, Note_off_c, 0, 60, 55
1, 199800, Note_on_c, 0, 48, 71
1, 199856, Note_off_c, 0, 48, 61
1, 199887, Note_on_c, 0, 77, 71
1, 199892, Note_on_c, 0, 74, 67
1, 199893, Note_on_c, 0, 60, 63
1, 199928, Note_off_c, 0, 74, 62
1, 199960, Note_off_c, 0, 60, 55
1, 199978, Note_on_c, 0, 76, 74
1, 199979, Note_on_c, 0, 48, 67
1, 199982, Note_on_c, 0, 72, 68
1, 199984, Note_off_c, 0, 77, 61
1, 200004, Note_off_c, 0, 76, 65
1, 200011, Note_off_c, 0, 72, 65
1, 200032, Note_off_c, 0, 48, 60
1, 200065, Note_on_c, 0, 60, 67
1, 200133, Note_off_c, 0, 60, 56
1, 200166, Note_on_c, 0, 48, 63
1, 200214, Note_off_c, 0, 48, 57
1, 200244, Note_on_c, 0, 74, 64
1, 200249, Note_on_c, 0, 65, 59
1, 200250, Note_on_c, 0, 60, 62
1, 200290, Note_off_c, 0, 65, 64
1, 200329, Note_off_c, 0, 60, 54
1, 200347, Note_on_c, 0, 48, 60
1, 200367, Note_on_c, 0, 72, 77
1, 200381, Note_on_c, 0, 64, 67
1, 200392, Control_c, 0, 64, 30
1, 200406, Control_c, 0, 64, 50
1, 200421, Control_c, 0, 64, 59
1, 200428, Note_off_c, 0, 74, 60
1, 200436, Control_c, 0, 64, 64
1, 200437, Note_off_c, 0, 48, 55
1, 200451, Note_on_c, 0, 60, 59
1, 200451, Control_c, 0, 64, 64
1, 200466, Control_c, 0, 64, 66
1, 200480, Control_c, 0, 64, 67
1, 200495, Control_c, 0, 64, 67
1, 200510, Control_c, 0, 64, 68
1, 200539, Control_c, 0, 64, 68
1, 200543, Note_off_c, 0, 60, 58
1, 200554, Control_c, 0, 64, 69
1, 200556, Note_on_c, 0, 48, 64
1, 200619, Note_off_c, 0, 48, 61
1, 200643, Control_c, 0, 64, 69
1, 200652, Note_on_c, 0, 60, 68
1, 200658, Control_c, 0, 64, 70
1, 200673, Control_c, 0, 64, 71
1, 200703, Control_c, 0, 64, 72
1, 200709, Note_off_c, 0, 60, 52
1, 200718, Control_c, 0, 64, 72
1, 200736, Note_on_c, 0, 48, 69
1, 200747, Control_c, 0, 64, 73
1, 200754, Note_off_c, 0, 64, 62
1, 200762, Control_c, 0, 64, 74
1, 200777, Control_c, 0, 64, 76
1, 200784, Note_off_c, 0, 48, 62
1, 200792, Control_c, 0, 64, 76
1, 200806, Control_c, 0, 64, 77
1, 200818, Note_on_c, 0, 60, 70
1, 200915, Note_off_c, 0, 60, 52
1, 200917, Control_c, 0, 64, 77
1, 200926, Note_on_c, 0, 48, 66
1, 201000, Note_on_c, 0, 60, 65
1, 201019, Note_off_c, 0, 48, 31
1, 201051, Note_off_c, 0, 60, 55
1, 201051, Control_c, 0, 64, 78
1, 201081, Control_c, 0, 64, 76
1, 201096, Control_c, 0, 64, 68
1, 201108, Note_on_c, 0, 48, 42
1, 201111, Control_c, 0, 64, 0
1, 201111, Note_on_c, 0, 73, 91
1, 201120, Note_on_c, 0, 64, 67
1, 201171, Note_off_c, 0, 48, 61
1, 201215, Note_off_c, 0, 72, 51
1, 201234, Note_on_c, 0, 56, 31
1, 201259, Control_c, 0, 64, 50
1, 201268, Note_off_c, 0, 56, 50
1, 201274, Control_c, 0, 64, 63
1, 201289, Control_c, 0, 64, 64
1, 201303, Control_c, 0, 64, 65
1, 201313, Note_on_c, 0, 48, 43
1, 201318, Control_c, 0, 64, 65
1, 201335, Note_off_c, 0, 64, 35
1, 201347, Control_c, 0, 64, 66
1, 201349, Note_off_c, 0, 48, 63
1, 201358, Note_on_c, 0, 58, 64
1, 201377, Control_c, 0, 64, 66
1, 201392, Control_c, 0, 64, 67
1, 201407, Control_c, 0, 64, 68
1, 201430, Note_off_c, 0, 58, 55
1, 201436, Control_c, 0, 64, 69
1, 201442, Note_on_c, 0, 48, 59
1, 201451, Control_c, 0, 64, 70
1, 201466, Control_c, 0, 64, 71
1, 201481, Control_c, 0, 64, 71
1, 201496, Control_c, 0, 64, 72
1, 201502, Note_off_c, 0, 48, 60
1, 201539, Note_on_c, 0, 58, 64
1, 201540, Control_c, 0, 64, 73
1, 201555, Control_c, 0, 64, 73
1, 201570, Control_c, 0, 64, 74
1, 201572, Note_off_c, 0, 58, 60
1, 201585, Control_c, 0, 64, 75
1, 201600, Control_c, 0, 64, 75
1, 201615, Control_c, 0, 64, 76
1, 201620, Note_on_c, 0, 48, 65
1, 201691, Note_off_c, 0, 48, 59
1, 201695, Control_c, 0, 64, 76
1, 201725, Note_on_c, 0, 58, 50
1, 201725, Control_c, 0, 64, 77
1, 201752, Note_off_c, 0, 58, 63
1, 201785, Control_c, 0, 64, 75
1, 201801, Control_c, 0, 64, 70
1, 201806, Note_on_c, 0, 48, 66
1, 201816, Control_c, 0, 64, 57
1, 201825, Note_on_c, 0, 65, 71
1, 201831, Control_c, 0, 64, 0
1, 201848, Note_off_c, 0, 48, 61
1, 201904, Control_c, 0, 64, 64
1, 201919, Control_c, 0, 64, 65
1, 201925, Note_on_c, 0, 57, 47
1, 201934, Control_c, 0, 64, 65
1, 201949, Control_c, 0, 64, 66
1, 201952, Note_off_c, 0, 57, 57
1, 201961, Note_on_c, 0, 48, 54
1, 201964, Control_c, 0, 64, 67
1, 201978, Control_c, 0, 64, 69
1, 201993, Control_c, 0, 64, 70
1, 202008, Control_c, 0, 64, 71
1, 202023, Control_c, 0, 64, 72
1, 202024, Note_off_c, 0, 48, 61
1, 202038, Control_c, 0, 64, 73
1, 202053, Control_c, 0, 64, 74
1, 202068, Control_c, 0, 64, 75
1, 202083, Control_c, 0, 64, 76
1, 202097, Control_c, 0, 64, 76
1, 202112, Control_c, 0, 64, 77
1, 202136, Note_on_c, 0, 48, 70
1, 202157, Control_c, 0, 64, 77
1, 202158, Note_on_c, 0, 72, 80
1, 202171, Control_c, 0, 64, 78
1, 202175, Note_off_c, 0, 65, 61
1, 202185, Note_off_c, 0, 48, 57
1, 202201, Control_c, 0, 64, 78
1, 202229, Note_on_c, 0, 48, 52
1, 202271, Note_off_c, 0, 48, 0
1, 202290, Control_c, 0, 64, 79
1, 202307, Poly_aftertouch_c, 0, 48, 127
1, 202317, Poly_aftertouch_c, 0, 48, 0
1, 202325, Note_off_c, 0, 73, 31
1, 202446, Control_c, 0, 64, 78
1, 202460, Control_c, 0, 64, 75
1, 202475, Control_c, 0, 64, 66
1, 202476, Note_on_c, 0, 50, 53
1, 202490, Control_c, 0, 64, 0
1, 202494, Note_on_c, 0, 71, 75
1, 202516, Note_on_c, 0, 65, 40
1, 202527, Note_off_c, 0, 72, 59
1, 202528, Note_off_c, 0, 50, 62
1, 202566, Note_on_c, 0, 55, 69
1, 202599, Note_off_c, 0, 65, 55
1, 202601, Note_off_c, 0, 55, 62
1, 202609, Control_c, 0, 64, 46
1, 202624, Control_c, 0, 64, 63
1, 202639, Control_c, 0, 64, 65
1, 202654, Control_c, 0, 64, 66
1, 202655, Note_on_c, 0, 50, 60
1, 202669, Control_c, 0, 64, 67
1, 202686, Note_off_c, 0, 50, 60
1, 202727, Control_c, 0, 64, 68
1, 202742, Control_c, 0, 64, 68
1, 202756, Note_on_c, 0, 55, 18
1, 202798, Note_off_c, 0, 55, 42
1, 202821, Note_on_c, 0, 50, 52
1, 202846, Control_c, 0, 64, 69
1, 202863, Note_off_c, 0, 50, 66
1, 202891, Control_c, 0, 64, 69
1, 202903, Note_on_c, 0, 55, 54
1, 202906, Control_c, 0, 64, 70
1, 202920, Control_c, 0, 64, 70
1, 202935, Control_c, 0, 64, 71
1, 202950, Control_c, 0, 64, 72
1, 202984, Note_off_c, 0, 55, 58
1, 202993, Note_on_c, 0, 50, 63
1, 203009, Control_c, 0, 64, 72
1, 203034, Note_off_c, 0, 50, 65
1, 203039, Control_c, 0, 64, 73
1, 203053, Control_c, 0, 64, 73
1, 203068, Control_c, 0, 64, 74
1, 203081, Note_on_c, 0, 55, 51
1, 203083, Control_c, 0, 64, 74
1, 203098, Control_c, 0, 64, 73
1, 203113, Control_c, 0, 64, 70
1, 203127, Control_c, 0, 64, 63
1, 203150, Control_c, 0, 64, 0
1, 203165, Note_off_c, 0, 55, 39
1, 203187, Note_on_c, 0, 70, 74
1, 203197, Note_on_c, 0, 60, 43
1, 203201, Note_on_c, 0, 52, 56
1, 203225, Note_off_c, 0, 71, 57
1, 203240, Note_off_c, 0, 52, 60
1, 203242, Note_off_c, 0, 60, 42
1, 203253, Control_c, 0, 64, 62
1, 203268, Control_c, 0, 64, 65
1, 203283, Control_c, 0, 64, 66
1, 203293, Note_on_c, 0, 55, 38
1, 203297, Control_c, 0, 64, 67
1, 203328, Control_c, 0, 64, 67
1, 203343, Control_c, 0, 64, 68
1, 203347, Note_off_c, 0, 55, 45
1, 203372, Note_on_c, 0, 52, 53
1, 203372, Control_c, 0, 64, 68
1, 203387, Control_c, 0, 64, 69
1, 203417, Control_c, 0, 64, 69
1, 203431, Control_c, 0, 64, 70
1, 203434, Note_off_c, 0, 52, 61
1, 203446, Control_c, 0, 64, 71
1, 203461, Control_c, 0, 64, 70
1, 203475, Control_c, 0, 64, 66
1, 203486, Note_on_c, 0, 59, 57
1, 203490, Control_c, 0, 64, 0
1, 203520, Note_off_c, 0, 59, 61
1, 203531, Note_on_c, 0, 67, 67
1, 203549, Control_c, 0, 64, 46
1, 203555, Note_on_c, 0, 52, 64
1, 203564, Control_c, 0, 64, 65
1, 203579, Control_c, 0, 64, 66
1, 203585, Note_off_c, 0, 70, 54
1, 203594, Control_c, 0, 64, 67
1, 203624, Control_c, 0, 64, 67
1, 203632, Note_off_c, 0, 52, 59
1, 203639, Control_c, 0, 64, 68
1, 203646, Note_on_c, 0, 60, 58
1, 203654, Control_c, 0, 64, 68
1, 203669, Control_c, 0, 64, 69
1, 203683, Control_c, 0, 64, 70
1, 203690, Note_off_c, 0, 60, 58
1, 203704, Note_on_c, 0, 52, 62
1, 203728, Control_c, 0, 64, 69
1, 203742, Control_c, 0, 64, 70
1, 203756, Note_off_c, 0, 52, 53
1, 203782, Note_on_c, 0, 60, 66
1, 203787, Control_c, 0, 64, 70
1, 203861, Control_c, 0, 64, 69
1, 203875, Control_c, 0, 64, 64
1, 203887, Note_off_c, 0, 60, 58
1, 203898, Control_c, 0, 64, 0
1, 203903, Note_on_c, 0, 53, 62
1, 203907, Note_on_c, 0, 69, 79
1, 203938, Note_off_c, 0, 67, 63
1, 203955, Note_off_c, 0, 53, 61
1, 203972, Control_c, 0, 64, 13
1, 203987, Control_c, 0, 64, 64
1, 203993, Note_on_c, 0, 60, 69
1, 204002, Control_c, 0, 64, 64
1, 204031, Control_c, 0, 64, 65
1, 204036, Note_off_c, 0, 60, 57
1, 204046, Control_c, 0, 64, 66
1, 204061, Control_c, 0, 64, 68
1, 204075, Note_on_c, 0, 53, 64
1, 204075, Control_c, 0, 64, 69
1, 204132, Note_off_c, 0, 53, 59
1, 204136, Control_c, 0, 64, 69
1, 204151, Control_c, 0, 64, 70
1, 204154, Note_on_c, 0, 60, 70
1, 204166, Control_c, 0, 64, 71
1, 204180, Control_c, 0, 64, 72
1, 204192, Note_off_c, 0, 60, 62
1, 204195, Control_c, 0, 64, 71
1, 204210, Control_c, 0, 64, 67
1, 204225, Control_c, 0, 64, 0
1, 204261, Note_on_c, 0, 53, 53
1, 204268, Note_on_c, 0, 64, 81
1, 204284, Control_c, 0, 64, 51
1, 204298, Control_c, 0, 64, 65
1, 204313, Control_c, 0, 64, 66
1, 204326, Note_off_c, 0, 53, 59
1, 204360, Note_on_c, 0, 61, 76
1, 204372, Control_c, 0, 64, 67
1, 204387, Control_c, 0, 64, 68
1, 204402, Control_c, 0, 64, 69
1, 204405, Note_off_c, 0, 61, 56
1, 204442, Note_on_c, 0, 53, 64
1, 204447, Control_c, 0, 64, 68
1, 204482, Note_off_c, 0, 53, 65
1, 204511, Note_on_c, 0, 61, 65
1, 204580, Control_c, 0, 64, 69
1, 204599, Note_off_c, 0, 61, 47
1, 204610, Control_c, 0, 64, 67
1, 204625, Control_c, 0, 64, 0
1, 204646, Note_on_c, 0, 53, 43
1, 204655, Note_on_c, 0, 65, 71
1, 204660, Note_off_c, 0, 64, 58
1, 204694, Note_off_c, 0, 53, 64
1, 204719, Note_on_c, 0, 62, 71
1, 204721, Control_c, 0, 64, 64
1, 204736, Control_c, 0, 64, 64
1, 204771, Note_off_c, 0, 62, 51
1, 204795, Control_c, 0, 64, 65
1, 204810, Control_c, 0, 64, 66
1, 204819, Note_on_c, 0, 53, 55
1, 204824, Control_c, 0, 64, 67
1, 204839, Control_c, 0, 64, 68
1, 204854, Control_c, 0, 64, 68
1, 204868, Note_off_c, 0, 53, 59
1, 204869, Control_c, 0, 64, 69
1, 204900, Note_on_c, 0, 62, 62
1, 204929, Control_c, 0, 64, 70
1, 204959, Control_c, 0, 64, 70
1, 204980, Note_off_c, 0, 62, 62
1, 204995, Note_on_c, 0, 53, 62
1, 205018, Control_c, 0, 64, 70
1, 205046, Note_off_c, 0, 53, 61
1, 205051, Note_off_c, 0, 69, 32
1, 205089, Note_on_c, 0, 62, 70
1, 205159, Note_off_c, 0, 62, 48
1, 205175, Note_on_c, 0, 53, 61
1, 205223, Note_off_c, 0, 53, 59
1, 205254, Control_c, 0, 64, 70
1, 205266, Note_on_c, 0, 62, 69
1, 205269, Control_c, 0, 64, 70
1, 205296, Note_off_c, 0, 62, 65
1, 205299, Control_c, 0, 64, 69
1, 205314, Control_c, 0, 64, 67
1, 205329, Control_c, 0, 64, 0
1, 205361, Note_on_c, 0, 54, 59
1, 205371, Note_on_c, 0, 63, 78
1, 205373, Note_on_c, 0, 69, 85
1, 205390, Note_off_c, 0, 65, 62
1, 205439, Note_off_c, 0, 54, 60
1, 205450, Note_on_c, 0, 60, 65
1, 205525, Note_off_c, 0, 60, 59
1, 205543, Note_on_c, 0, 54, 58
1, 205588, Note_off_c, 0, 54, 62
1, 205632, Note_on_c, 0, 60, 62
1, 205691, Control_c, 0, 64, 30
1, 205712, Note_off_c, 0, 60, 47
1, 205737, Control_c, 0, 64, 13
1, 205743, Note_on_c, 0, 54, 61
1, 205751, Control_c, 0, 64, 0
1, 205778, Note_off_c, 0, 54, 62
1, 205821, Note_on_c, 0, 60, 65
1, 205825, Control_c, 0, 64, 13
1, 205840, Control_c, 0, 64, 23
1, 205860, Note_off_c, 0, 60, 56
1, 205869, Control_c, 0, 64, 13
1, 205884, Control_c, 0, 64, 0
1, 205904, Note_on_c, 0, 54, 51
1, 205929, Control_c, 0, 64, 23
1, 205943, Control_c, 0, 64, 34
1, 205954, Note_off_c, 0, 54, 57
1, 205958, Control_c, 0, 64, 41
1, 205973, Control_c, 0, 64, 48
1, 205981, Note_on_c, 0, 60, 61
1, 205988, Control_c, 0, 64, 57
1, 206003, Control_c, 0, 64, 62
1, 206018, Control_c, 0, 64, 64
1, 206033, Control_c, 0, 64, 63
1, 206038, Note_off_c, 0, 69, 56
1, 206041, Note_off_c, 0, 60, 55
1, 206047, Control_c, 0, 64, 0
1, 206089, Note_on_c, 0, 55, 60
1, 206104, Note_on_c, 0, 67, 66
1, 206134, Note_off_c, 0, 55, 64
1, 206176, Note_on_c, 0, 60, 61
1, 206188, Note_off_c, 0, 63, 54
1, 206241, Note_off_c, 0, 60, 56
1, 206268, Note_on_c, 0, 55, 45
1, 206335, Note_off_c, 0, 55, 56
1, 206366, Note_on_c, 0, 60, 53
1, 206429, Note_off_c, 0, 60, 49
1, 206456, Note_on_c, 0, 55, 53
1, 206473, Note_on_c, 0, 62, 61
1, 206506, Note_off_c, 0, 55, 62
1, 206545, Note_on_c, 0, 60, 63
1, 206617, Note_off_c, 0, 60, 55
1, 206645, Note_on_c, 0, 55, 47
1, 206698, Note_off_c, 0, 55, 58
1, 206737, Note_on_c, 0, 60, 54
1, 206805, Note_off_c, 0, 60, 57
1, 206828, Note_off_c, 0, 62, 56
1, 206840, Note_on_c, 0, 55, 44
1, 206849, Note_on_c, 0, 64, 58
1, 206898, Note_off_c, 0, 55, 58
1, 206943, Note_on_c, 0, 59, 58
1, 206992, Note_off_c, 0, 59, 58
1, 207040, Note_on_c, 0, 55, 28
1, 207095, Note_off_c, 0, 55, 61
1, 207115, Note_on_c, 0, 59, 54
1, 207167, Note_off_c, 0, 59, 54
1, 207215, Note_on_c, 0, 55, 44
1, 207217, Note_on_c, 0, 65, 58
1, 207228, Note_off_c, 0, 64, 43
1, 207255, Note_off_c, 0, 55, 54
1, 207302, Note_on_c, 0, 59, 40
1, 207350, Note_off_c, 0, 59, 59
1, 207372, Note_on_c, 0, 55, 40
1, 207421, Note_off_c, 0, 55, 44
1, 207477, Note_off_c, 0, 67, 17
1, 207550, Note_on_c, 0, 60, 67
1, 207554, Note_on_c, 0, 64, 74
1, 207563, Note_off_c, 0, 65, 61
1, 207573, Note_off_c, 0, 60, 63
1, 207575, Note_off_c, 0, 64, 69
1, 207758, Note_on_c, 0, 48, 77
1, 207759, Note_on_c, 0, 52, 78
1, 207759, Note_on_c, 0, 55, 79
1, 207760, Note_on_c, 0, 76, 89
1, 207764, Note_on_c, 0, 72, 87
1, 207767, Note_on_c, 0, 67, 84
1, 207785, Note_off_c, 0, 52, 64
1, 207785, Note_off_c, 0, 55, 65
1, 207785, Note_off_c, 0, 72, 68
1, 207788, Note_off_c, 0, 67, 69
1, 207800, Note_off_c, 0, 48, 60
1, 207802, Note_off_c, 0, 76, 63
1, 207949, Note_on_c, 0, 74, 91
1, 207949, Note_on_c, 0, 55, 88
1, 207949, Note_on_c, 0, 77, 95
1, 207952, Note_on_c, 0, 67, 83
1, 207955, Note_on_c, 0, 50, 82
1, 207955, Note_on_c, 0, 47, 79
1, 207976, Note_off_c, 0, 67, 68
1, 207977, Note_off_c, 0, 55, 66
1, 207978, Note_off_c, 0, 50, 68
1, 207986, Note_off_c, 0, 47, 63
1, 207986, Note_off_c, 0, 74, 65
1, 207994, Note_off_c, 0, 77, 61
1, 208133, Note_on_c, 0, 76, 92
1, 208135, Note_on_c, 0, 72, 89
1, 208135, Note_on_c, 0, 55, 69
1, 208140, Note_on_c, 0, 67, 77
1, 208145, Note_on_c, 0, 52, 66
1, 208146, Note_on_c, 0, 48, 60
1, 208157, Note_off_c, 0, 72, 68
1, 208158, Note_on_c, 0, 50, 61
1, 208158, Note_off_c, 0, 55, 65
1, 208163, Note_off_c, 0, 67, 68
1, 208167, Note_off_c, 0, 52, 58
1, 208173, Note_off_c, 0, 76, 63
1, 208175, Note_off_c, 0, 48, 64
1, 208182, Note_off_c, 0, 50, 59
1, 208324, Control_c, 0, 64, 66
1, 208338, Control_c, 0, 64, 71
1, 208348, Note_on_c, 0, 41, 81
1, 208348, Note_on_c, 0, 53, 78
1, 208348, Note_on_c, 0, 81, 91
1, 208349, Note_on_c, 0, 69, 86
1, 208350, Note_on_c, 0, 77, 88
1, 208353, Control_c, 0, 64, 75
1, 208368, Control_c, 0, 64, 79
1, 208370, Note_off_c, 0, 69, 69
1, 208370, Note_off_c, 0, 53, 67
1, 208373, Note_off_c, 0, 41, 65
1, 208377, Note_off_c, 0, 77, 66
1, 208390, Note_off_c, 0, 81, 65
1, 208390, Control_c, 0, 64, 81
1, 208435, Control_c, 0, 64, 80
1, 208450, Control_c, 0, 64, 79
1, 208464, Control_c, 0, 64, 77
1, 208479, Control_c, 0, 64, 75
1, 208494, Control_c, 0, 64, 74
1, 208509, Control_c, 0, 64, 73
1, 208524, Control_c, 0, 64, 72
1, 208554, Control_c, 0, 64, 72
1, 208569, Control_c, 0, 64, 71
1, 208584, Control_c, 0, 64, 70
1, 208598, Control_c, 0, 64, 69
1, 208613, Control_c, 0, 64, 68
1, 208628, Control_c, 0, 64, 68
1, 208643, Control_c, 0, 64, 67
1, 208658, Control_c, 0, 64, 66
1, 208672, Control_c, 0, 64, 65
1, 208687, Control_c, 0, 64, 53
1, 208702, Control_c, 0, 64, 0
1, 208739, Note_on_c, 0, 62, 59
1, 208749, Note_on_c, 0, 59, 56
1, 208890, Note_off_c, 0, 62, 62
1, 208914, Note_on_c, 0, 64, 53
1, 208924, Note_off_c, 0, 59, 52
1, 208954, Note_off_c, 0, 64, 62
1, 208963, Note_on_c, 0, 55, 46
1, 208964, Note_on_c, 0, 65, 57
1, 209090, Note_off_c, 0, 65, 60
1, 209107, Note_on_c, 0, 67, 53
1, 209133, Note_on_c, 0, 60, 72
1, 209151, Note_on_c, 0, 64, 72
1, 209156, Note_off_c, 0, 67, 65
1, 209165, Note_off_c, 0, 60, 64
1, 209169, Note_off_c, 0, 64, 68
1, 209185, Note_off_c, 0, 55, 40
1, 209326, Note_on_c, 0, 48, 74
1, 209332, Note_on_c, 0, 67, 73
1, 209334, Note_on_c, 0, 52, 69
1, 209334, Note_on_c, 0, 76, 85
1, 209335, Note_on_c, 0, 55, 70
1, 209335, Note_on_c, 0, 72, 79
1, 209355, Note_off_c, 0, 67, 67
1, 209356, Note_off_c, 0, 72, 67
1, 209362, Note_off_c, 0, 55, 64
1, 209363, Note_off_c, 0, 52, 62
1, 209365, Note_off_c, 0, 48, 62
1, 209372, Note_off_c, 0, 76, 61
1, 209515, Note_on_c, 0, 74, 85
1, 209517, Note_on_c, 0, 77, 91
1, 209518, Note_on_c, 0, 55, 73
1, 209519, Note_on_c, 0, 47, 81
1, 209519, Note_on_c, 0, 50, 79
1, 209523, Note_on_c, 0, 67, 77
1, 209546, Note_off_c, 0, 67, 68
1, 209548, Note_off_c, 0, 50, 65
1, 209552, Note_off_c, 0, 55, 67
1, 209552, Note_off_c, 0, 74, 63
1, 209553, Note_off_c, 0, 47, 63
1, 209554, Note_off_c, 0, 77, 51
1, 209696, Note_on_c, 0, 72, 85
1, 209696, Note_on_c, 0, 76, 84
1, 209699, Note_on_c, 0, 48, 78
1, 209699, Note_on_c, 0, 55, 49
1, 209705, Note_on_c, 0, 67, 63
1, 209711, Note_on_c, 0, 52, 53
1, 209717, Note_off_c, 0, 72, 67
1, 209725, Note_off_c, 0, 67, 65
1, 209728, Note_off_c, 0, 55, 49
1, 209729, Note_off_c, 0, 48, 64
1, 209732, Note_off_c, 0, 76, 60
1, 209740, Note_off_c, 0, 52, 36
1, 209851, Control_c, 0, 64, 65
1, 209866, Control_c, 0, 64, 69
1, 209881, Control_c, 0, 64, 72
1, 209903, Control_c, 0, 64, 75
1, 209914, Note_on_c, 0, 77, 68
1, 209914, Note_on_c, 0, 81, 88
1, 209916, Note_on_c, 0, 69, 81
1, 209917, Note_on_c, 0, 53, 77
1, 209917, Control_c, 0, 64, 80
1, 209920, Note_on_c, 0, 41, 81
1, 209932, Control_c, 0, 64, 86
1, 209940, Note_off_c, 0, 69, 66
1, 209943, Note_off_c, 0, 53, 66
1, 209946, Note_off_c, 0, 41, 64
1, 209947, Control_c, 0, 64, 90
1, 209952, Note_off_c, 0, 81, 65
1, 209958, Note_off_c, 0, 77, 60
1, 209962, Control_c, 0, 64, 91
1, 210051, Control_c, 0, 64, 90
1, 210066, Control_c, 0, 64, 90
1, 210081, Control_c, 0, 64, 89
1, 210095, Control_c, 0, 64, 89
1, 210110, Control_c, 0, 64, 88
1, 210125, Control_c, 0, 64, 87
1, 210140, Control_c, 0, 64, 86
1, 210155, Control_c, 0, 64, 84
1, 210169, Control_c, 0, 64, 82
1, 210184, Control_c, 0, 64, 78
1, 210199, Control_c, 0, 64, 75
1, 210214, Control_c, 0, 64, 73
1, 210229, Control_c, 0, 64, 71
1, 210243, Control_c, 0, 64, 68
1, 210258, Control_c, 0, 64, 66
1, 210273, Control_c, 0, 64, 64
1, 210288, Control_c, 0, 64, 0
1, 210301, Note_on_c, 0, 59, 57
1, 210340, Note_off_c, 0, 59, 63
1, 210364, Note_on_c, 0, 62, 59
1, 210408, Note_off_c, 0, 62, 63
1, 210435, Note_on_c, 0, 65, 53
1, 210469, Note_off_c, 0, 65, 66
1, 210483, Note_on_c, 0, 69, 66
1, 210492, Note_on_c, 0, 47, 45
1, 210514, Note_on_c, 0, 55, 24
1, 210526, Note_off_c, 0, 69, 55
1, 210527, Note_off_c, 0, 47, 57
1, 210540, Note_on_c, 0, 67, 67
1, 210554, Note_off_c, 0, 55, 39
1, 210587, Note_off_c, 0, 67, 59
1, 210598, Note_on_c, 0, 65, 53
1, 210657, Note_off_c, 0, 65, 64
1, 210666, Note_on_c, 0, 64, 70
1, 210678, Note_on_c, 0, 48, 65
1, 210681, Control_c, 0, 64, 56
1, 210690, Note_off_c, 0, 64, 65
1, 210696, Control_c, 0, 64, 69
1, 210707, Note_off_c, 0, 48, 64
1, 210711, Control_c, 0, 64, 71
1, 210755, Control_c, 0, 64, 71
1, 210799, Control_c, 0, 64, 71
1, 210829, Control_c, 0, 64, 70
1, 210837, Note_on_c, 0, 48, 28
1, 210844, Control_c, 0, 64, 69
1, 210859, Control_c, 0, 64, 68
1, 210862, Note_on_c, 0, 67, 68
1, 210873, Control_c, 0, 64, 65
1, 210887, Note_off_c, 0, 48, 63
1, 210888, Control_c, 0, 64, 41
1, 210898, Note_off_c, 0, 67, 62
1, 210903, Control_c, 0, 64, 0
1, 210915, Note_on_c, 0, 72, 64
1, 210918, Note_on_c, 0, 52, 31
1, 210944, Note_off_c, 0, 72, 62
1, 210955, Note_off_c, 0, 52, 31
1, 210969, Note_on_c, 0, 55, 52
1, 210978, Note_on_c, 0, 76, 72
1, 210996, Note_off_c, 0, 55, 56
1, 211007, Note_off_c, 0, 76, 61
1, 211032, Note_on_c, 0, 47, 54
1, 211042, Note_on_c, 0, 67, 67
1, 211069, Note_off_c, 0, 47, 61
1, 211080, Note_off_c, 0, 67, 61
1, 211103, Note_on_c, 0, 74, 62
1, 211109, Note_on_c, 0, 55, 51
1, 211155, Note_on_c, 0, 77, 65
1, 211155, Note_off_c, 0, 74, 62
1, 211186, Note_off_c, 0, 77, 62
1, 211195, Note_on_c, 0, 48, 60
1, 211201, Note_off_c, 0, 55, 61
1, 211213, Note_on_c, 0, 67, 65
1, 211248, Note_off_c, 0, 48, 60
1, 211251, Note_off_c, 0, 67, 62
1, 211266, Note_on_c, 0, 72, 67
1, 211278, Note_on_c, 0, 52, 22
1, 211300, Note_off_c, 0, 72, 60
1, 211304, Note_on_c, 0, 55, 59
1, 211322, Note_off_c, 0, 52, 36
1, 211333, Note_on_c, 0, 76, 38
1, 211338, Note_off_c, 0, 55, 63
1, 211360, Note_off_c, 0, 76, 49
1, 211373, Note_on_c, 0, 69, 73
1, 211377, Note_on_c, 0, 41, 57
1, 211405, Note_on_c, 0, 43, 24
1, 211406, Note_off_c, 0, 43, 127
1, 211408, Note_off_c, 0, 69, 64
1, 211413, Note_off_c, 0, 41, 39
1, 211447, Note_on_c, 0, 81, 77
1, 211514, Note_on_c, 0, 79, 70
1, 211519, Note_off_c, 0, 81, 51
1, 211572, Note_off_c, 0, 79, 62
1, 211578, Note_on_c, 0, 77, 74
1, 211637, Note_on_c, 0, 76, 56
1, 211637, Note_off_c, 0, 77, 60
1, 211675, Note_off_c, 0, 76, 61
1, 211705, Note_on_c, 0, 74, 66
1, 211742, Note_off_c, 0, 74, 62
1, 211750, Note_on_c, 0, 57, 61
1, 211753, Note_on_c, 0, 53, 63
1, 211772, Note_on_c, 0, 73, 68
1, 211774, Note_off_c, 0, 53, 64
1, 211779, Note_off_c, 0, 57, 65
1, 211799, Note_off_c, 0, 73, 66
1, 211835, Note_on_c, 0, 74, 72
1, 211860, Note_off_c, 0, 74, 67
1, 211897, Note_on_c, 0, 81, 70
1, 211962, Note_on_c, 0, 79, 66
1, 211991, Note_off_c, 0, 81, 60
1, 212027, Note_on_c, 0, 77, 64
1, 212042, Note_off_c, 0, 79, 60
1, 212081, Note_on_c, 0, 76, 65
1, 212082, Note_off_c, 0, 77, 59
1, 212122, Note_on_c, 0, 57, 60
1, 212135, Note_off_c, 0, 76, 60
1, 212136, Note_on_c, 0, 53, 58
1, 212155, Note_off_c, 0, 57, 66
1, 212158, Note_off_c, 0, 53, 63
1, 212160, Note_on_c, 0, 74, 70
1, 212196, Note_off_c, 0, 74, 62
1, 212236, Note_on_c, 0, 73, 68
1, 212260, Note_off_c, 0, 73, 63
1, 212292, Note_on_c, 0, 81, 72
1, 212357, Note_on_c, 0, 79, 72
1, 212388, Note_off_c, 0, 81, 59
1, 212427, Note_on_c, 0, 77, 69
1, 212437, Note_off_c, 0, 79, 54
1, 212476, Note_on_c, 0, 76, 72
1, 212490, Note_off_c, 0, 77, 60
1, 212524, Note_on_c, 0, 57, 76
1, 212525, Note_off_c, 0, 76, 52
1, 212531, Note_on_c, 0, 53, 70
1, 212543, Note_on_c, 0, 74, 77
1, 212549, Note_off_c, 0, 57, 67
1, 212557, Note_off_c, 0, 53, 66
1, 212590, Note_off_c, 0, 74, 59
1, 212617, Note_on_c, 0, 73, 80
1, 212645, Note_off_c, 0, 73, 60
1, 212684, Note_on_c, 0, 81, 65
1, 212713, Note_on_c, 0, 79, 28
1, 212748, Note_off_c, 0, 79, 0
1, 212748, Note_on_c, 0, 79, 26
1, 212768, Note_on_c, 0, 77, 31
1, 212787, Note_off_c, 0, 81, 62
1, 212826, Note_off_c, 0, 79, 59
1, 212866, Note_on_c, 0, 76, 75
1, 212892, Note_off_c, 0, 77, 58
1, 212912, Note_on_c, 0, 53, 76
1, 212912, Note_on_c, 0, 57, 79
1, 212923, Note_off_c, 0, 76, 59
1, 212933, Note_off_c, 0, 53, 67
1, 212934, Note_off_c, 0, 57, 67
1, 212947, Note_on_c, 0, 74, 72
1, 212985, Note_off_c, 0, 74, 54
1, 213021, Note_on_c, 0, 73, 75
1, 213045, Note_off_c, 0, 73, 67
1, 213075, Note_on_c, 0, 81, 84
1, 213136, Note_on_c, 0, 79, 77
1, 213178, Note_off_c, 0, 81, 56
1, 213196, Note_on_c, 0, 77, 78
1, 213237, Note_off_c, 0, 79, 60
1, 213262, Note_on_c, 0, 76, 76
1, 213272, Note_on_c, 0, 53, 67
1, 213274, Note_on_c, 0, 57, 64
1, 213277, Note_off_c, 0, 77, 61
1, 213298, Note_off_c, 0, 53, 65
1, 213301, Note_off_c, 0, 57, 66
1, 213318, Note_on_c, 0, 74, 82
1, 213320, Note_off_c, 0, 76, 62
1, 213349, Note_off_c, 0, 74, 64
1, 213374, Note_on_c, 0, 81, 84
1, 213436, Note_on_c, 0, 79, 81
1, 213490, Note_on_c, 0, 77, 79
1, 213495, Note_off_c, 0, 81, 56
1, 213543, Note_off_c, 0, 79, 61
1, 213551, Note_on_c, 0, 76, 78
1, 213557, Note_on_c, 0, 55, 41
1, 213579, Note_off_c, 0, 77, 50
1, 213589, Note_on_c, 0, 60, 63
1, 213592, Note_on_c, 0, 74, 74
1, 213599, Note_off_c, 0, 76, 63
1, 213654, Note_on_c, 0, 64, 92
1, 213664, Note_on_c, 0, 76, 91
1, 213675, Note_off_c, 0, 74, 36
1, 213714, Note_off_c, 0, 76, 63
1, 213723, Control_c, 0, 64, 65
1, 213723, Note_on_c, 0, 79, 77
1, 213731, Note_off_c, 0, 60, 0
1, 213738, Control_c, 0, 64, 67
1, 213767, Control_c, 0, 64, 66
1, 213768, Poly_aftertouch_c, 0, 60, 127
1, 213786, Note_on_c, 0, 77, 83
1, 213839, Note_off_c, 0, 79, 62
1, 213848, Note_on_c, 0, 76, 74
1, 213855, Control_c, 0, 64, 67
1, 213889, Note_off_c, 0, 77, 59
1, 213909, Note_on_c, 0, 74, 68
1, 213914, Control_c, 0, 64, 68
1, 213923, Note_off_c, 0, 76, 61
1, 213929, Control_c, 0, 64, 70
1, 213944, Control_c, 0, 64, 72
1, 213959, Control_c, 0, 64, 74
1, 213974, Control_c, 0, 64, 76
1, 213978, Note_off_c, 0, 74, 62
1, 213980, Note_on_c, 0, 72, 76
1, 213989, Control_c, 0, 64, 78
1, 214003, Control_c, 0, 64, 79
1, 214012, Note_off_c, 0, 72, 59
1, 214018, Control_c, 0, 64, 80
1, 214032, Note_off_c, 0, 55, 62
1, 214033, Note_off_c, 0, 64, 63
1, 214033, Control_c, 0, 64, 81
1, 214048, Control_c, 0, 64, 83
1, 214051, Poly_aftertouch_c, 0, 60, 0
1, 214055, Note_on_c, 0, 71, 57
1, 214061, Note_on_c, 0, 72, 60
1, 214063, Control_c, 0, 64, 84
1, 214077, Note_off_c, 0, 72, 66
1, 214077, Control_c, 0, 64, 85
1, 214092, Control_c, 0, 64, 86
1, 214107, Control_c, 0, 64, 86
1, 214116, Note_on_c, 0, 69, 79
1, 214122, Control_c, 0, 64, 87
1, 214136, Control_c, 0, 64, 88
1, 214150, Note_off_c, 0, 69, 60
1, 214151, Control_c, 0, 64, 88
1, 214152, Note_off_c, 0, 71, 29
1, 214166, Control_c, 0, 64, 89
1, 214181, Note_on_c, 0, 67, 76
1, 214215, Note_off_c, 0, 67, 63
1, 214225, Control_c, 0, 64, 89
1, 214251, Note_on_c, 0, 79, 86
1, 214297, Note_on_c, 0, 55, 50
1, 214306, Note_on_c, 0, 76, 79
1, 214310, Note_off_c, 0, 79, 64
1, 214330, Note_on_c, 0, 59, 53
1, 214358, Control_c, 0, 64, 86
1, 214367, Note_off_c, 0, 76, 62
1, 214373, Note_on_c, 0, 72, 84
1, 214373, Control_c, 0, 64, 74
1, 214396, Control_c, 0, 64, 0
1, 214413, Note_on_c, 0, 62, 56
1, 214422, Note_on_c, 0, 65, 91
1, 214433, Note_on_c, 0, 76, 96
1, 214453, Note_off_c, 0, 72, 61
1, 214470, Control_c, 0, 64, 68
1, 214471, Note_on_c, 0, 77, 41
1, 214484, Control_c, 0, 64, 73
1, 214499, Control_c, 0, 64, 76
1, 214501, Note_off_c, 0, 77, 37
1, 214515, Control_c, 0, 64, 78
1, 214530, Control_c, 0, 64, 79
1, 214545, Control_c, 0, 64, 79
1, 214559, Control_c, 0, 64, 81
1, 214574, Control_c, 0, 64, 82
1, 214588, Note_off_c, 0, 76, 56
1, 214589, Control_c, 0, 64, 83
1, 214604, Control_c, 0, 64, 84
1, 214619, Control_c, 0, 64, 85
1, 214632, Note_on_c, 0, 74, 72
1, 214633, Control_c, 0, 64, 86
1, 214648, Control_c, 0, 64, 86
1, 214656, Note_off_c, 0, 74, 67
1, 214678, Control_c, 0, 64, 87
1, 214693, Control_c, 0, 64, 88
1, 214707, Control_c, 0, 64, 90
1, 214717, Note_on_c, 0, 74, 65
1, 214722, Control_c, 0, 64, 91
1, 214737, Control_c, 0, 64, 93
1, 214741, Note_off_c, 0, 55, 61
1, 214743, Note_off_c, 0, 65, 60
1, 214749, Poly_aftertouch_c, 0, 76, 0
1, 214752, Control_c, 0, 64, 94
1, 214767, Note_on_c, 0, 76, 23
1, 214767, Control_c, 0, 64, 95
1, 214771, Note_off_c, 0, 74, 54
1, 214776, Note_off_c, 0, 62, 52
1, 214781, Control_c, 0, 64, 96
1, 214792, Note_off_c, 0, 59, 40
1, 214809, Note_off_c, 0, 76, 62
1, 214829, Note_on_c, 0, 74, 65
1, 214863, Note_off_c, 0, 74, 64
1, 214866, Note_on_c, 0, 76, 73
1, 214907, Note_off_c, 0, 76, 53
1, 214922, Note_on_c, 0, 74, 60
1, 214945, Control_c, 0, 64, 95
1, 214957, Note_off_c, 0, 74, 63
1, 214968, Note_on_c, 0, 76, 65
1, 214974, Control_c, 0, 64, 95
1, 214998, Note_off_c, 0, 76, 50
1, 215019, Control_c, 0, 64, 94
1, 215023, Note_on_c, 0, 74, 67
1, 215048, Control_c, 0, 64, 94
1, 215063, Control_c, 0, 64, 90
1, 215078, Control_c, 0, 64, 80
1, 215081, Note_off_c, 0, 74, 58
1, 215093, Control_c, 0, 64, 67
1, 215098, Note_on_c, 0, 72, 68
1, 215107, Control_c, 0, 64, 0
1, 215115, Note_off_c, 0, 72, 65
1, 215132, Note_on_c, 0, 74, 52
1, 215142, Note_on_c, 0, 60, 71
1, 215143, Note_on_c, 0, 64, 73
1, 215160, Note_off_c, 0, 74, 58
1, 215171, Note_off_c, 0, 64, 66
1, 215189, Note_on_c, 0, 72, 53
1, 215190, Note_off_c, 0, 72, 127
1, 215190, Note_off_c, 0, 60, 57
1, 215233, Note_on_c, 0, 67, 56
1, 215246, Note_on_c, 0, 65, 45
1, 215273, Note_off_c, 0, 65, 50
1, 215290, Note_off_c, 0, 67, 41
1, 215333, Note_on_c, 0, 64, 64
1, 215341, Note_on_c, 0, 60, 57
1, 215341, Note_on_c, 0, 79, 89
1, 215357, Note_off_c, 0, 79, 73
1, 215381, Note_off_c, 0, 60, 60
1, 215390, Note_off_c, 0, 64, 63
1, 215430, Note_on_c, 0, 67, 68
1, 215520, Note_off_c, 0, 67, 60
1, 215533, Note_on_c, 0, 64, 65
1, 215543, Note_on_c, 0, 60, 66
1, 215571, Note_off_c, 0, 64, 65
1, 215574, Note_off_c, 0, 60, 61
1, 215581, Note_on_c, 0, 85, 23
1, 215622, Note_off_c, 0, 85, 38
1, 215629, Note_on_c, 0, 67, 68
1, 215712, Note_off_c, 0, 67, 61
1, 215715, Note_on_c, 0, 84, 86
1, 215721, Note_on_c, 0, 64, 62
1, 215733, Note_on_c, 0, 60, 53
1, 215733, Note_off_c, 0, 84, 69
1, 215767, Note_off_c, 0, 64, 63
1, 215771, Note_off_c, 0, 60, 60
1, 215819, Note_on_c, 0, 67, 65
1, 215905, Note_off_c, 0, 67, 61
1, 215911, Note_on_c, 0, 64, 63
1, 215928, Note_on_c, 0, 60, 54
1, 215971, Note_off_c, 0, 60, 60
1, 215972, Note_off_c, 0, 64, 62
1, 216013, Note_on_c, 0, 67, 63
1, 216090, Note_on_c, 0, 79, 76
1, 216092, Note_off_c, 0, 67, 61
1, 216105, Note_on_c, 0, 64, 56
1, 216111, Note_on_c, 0, 60, 55
1, 216159, Note_off_c, 0, 64, 61
1, 216160, Note_off_c, 0, 60, 59
1, 216183, Note_on_c, 0, 88, 83
1, 216188, Note_off_c, 0, 79, 58
1, 216206, Note_on_c, 0, 67, 60
1, 216281, Note_on_c, 0, 86, 83
1, 216291, Note_on_c, 0, 64, 61
1, 216292, Note_off_c, 0, 67, 62
1, 216298, Note_on_c, 0, 60, 54
1, 216342, Note_off_c, 0, 60, 62
1, 216347, Note_off_c, 0, 64, 62
1, 216363, Note_off_c, 0, 88, 58
1, 216373, Note_on_c, 0, 84, 87
1, 216381, Note_on_c, 0, 67, 61
1, 216414, Note_off_c, 0, 86, 61
1, 216455, Note_off_c, 0, 67, 58
1, 216465, Note_on_c, 0, 64, 60
1, 216470, Note_on_c, 0, 60, 59
1, 216471, Note_on_c, 0, 83, 87
1, 216507, Note_off_c, 0, 84, 62
1, 216510, Note_off_c, 0, 64, 63
1, 216516, Note_off_c, 0, 60, 59
1, 216558, Note_off_c, 0, 83, 63
1, 216559, Note_on_c, 0, 67, 68
1, 216559, Note_on_c, 0, 81, 84
1, 216653, Note_off_c, 0, 67, 57
1, 216674, Note_on_c, 0, 59, 55
1, 216674, Note_on_c, 0, 65, 57
1, 216677, Note_on_c, 0, 62, 58
1, 216687, Note_on_c, 0, 79, 79
1, 216706, Note_off_c, 0, 81, 54
1, 216749, Note_off_c, 0, 65, 61
1, 216752, Note_off_c, 0, 59, 61
1, 216755, Note_off_c, 0, 62, 62
1, 216777, Note_on_c, 0, 67, 62
1, 216859, Note_off_c, 0, 67, 61
1, 216876, Note_on_c, 0, 65, 53
1, 216886, Note_on_c, 0, 62, 50
1, 216888, Note_on_c, 0, 59, 48
1, 216918, Note_off_c, 0, 65, 63
1, 216923, Note_off_c, 0, 59, 57
1, 216929, Note_off_c, 0, 62, 63
1, 216966, Note_on_c, 0, 67, 64
1, 217048, Note_off_c, 0, 67, 61
1, 217052, Note_on_c, 0, 65, 54
1, 217056, Note_on_c, 0, 62, 54
1, 217058, Note_on_c, 0, 59, 50
1, 217099, Note_off_c, 0, 65, 61
1, 217111, Note_off_c, 0, 59, 58
1, 217111, Note_off_c, 0, 62, 61
1, 217146, Note_on_c, 0, 67, 68
1, 217164, Note_off_c, 0, 79, 62
1, 217165, Note_on_c, 0, 80, 77
1, 217235, Note_on_c, 0, 65, 56
1, 217240, Note_on_c, 0, 62, 58
1, 217241, Note_on_c, 0, 59, 60
1, 217241, Note_off_c, 0, 80, 62
1, 217243, Note_off_c, 0, 67, 60
1, 217244, Note_on_c, 0, 81, 70
1, 217283, Note_on_c, 0, 79, 36
1, 217284, Note_off_c, 0, 79, 127
1, 217301, Note_off_c, 0, 65, 56
1, 217312, Note_off_c, 0, 62, 62
1, 217312, Note_off_c, 0, 59, 59
1, 217322, Note_on_c, 0, 82, 82
1, 217324, Note_off_c, 0, 81, 62
1, 217340, Note_on_c, 0, 67, 66
1, 217424, Note_on_c, 0, 83, 80
1, 217426, Note_off_c, 0, 82, 61
1, 217428, Note_off_c, 0, 67, 62
1, 217429, Note_on_c, 0, 65, 61
1, 217432, Note_on_c, 0, 59, 66
1, 217440, Note_on_c, 0, 62, 62
1, 217477, Note_off_c, 0, 65, 57
1, 217480, Note_off_c, 0, 62, 63
1, 217484, Note_off_c, 0, 59, 57
1, 217517, Note_on_c, 0, 67, 66
1, 217518, Note_on_c, 0, 84, 82
1, 217543, Note_off_c, 0, 83, 59
1, 217595, Note_on_c, 0, 65, 57
1, 217595, Note_off_c, 0, 67, 62
1, 217603, Note_on_c, 0, 85, 85
1, 217604, Note_on_c, 0, 62, 55
1, 217606, Note_on_c, 0, 59, 62
1, 217625, Note_off_c, 0, 84, 59
1, 217656, Note_off_c, 0, 65, 62
1, 217667, Note_off_c, 0, 62, 62
1, 217670, Note_off_c, 0, 59, 59
1, 217686, Note_on_c, 0, 67, 65
1, 217692, Note_on_c, 0, 86, 89
1, 217720, Note_off_c, 0, 85, 63
1, 217781, Note_off_c, 0, 67, 61
1, 217789, Note_on_c, 0, 88, 84
1, 217789, Note_on_c, 0, 59, 69
1, 217792, Note_on_c, 0, 65, 49
1, 217798, Note_on_c, 0, 62, 61
1, 217798, Note_off_c, 0, 86, 63
1, 217824, Note_off_c, 0, 65, 61
1, 217828, Note_on_c, 0, 89, 39
1, 217829, Note_off_c, 0, 89, 127
1, 217829, Note_off_c, 0, 62, 64
1, 217844, Note_off_c, 0, 59, 58
1, 217858, Note_on_c, 0, 67, 61
1, 217876, Note_on_c, 0, 86, 88
1, 217934, Note_on_c, 0, 65, 45
1, 217935, Note_off_c, 0, 88, 53
1, 217945, Note_on_c, 0, 59, 56
1, 217945, Note_on_c, 0, 62, 38
1, 217956, Note_on_c, 0, 83, 79
1, 217961, Note_off_c, 0, 67, 55
1, 217993, Note_off_c, 0, 86, 62
1, 217994, Note_off_c, 0, 62, 65
1, 217994, Note_off_c, 0, 65, 63
1, 217998, Note_off_c, 0, 59, 58
1, 218021, Note_off_c, 0, 83, 61
1, 218037, Note_on_c, 0, 67, 49
1, 218040, Note_on_c, 0, 77, 81
1, 218102, Note_off_c, 0, 77, 60
1, 218138, Note_off_c, 0, 67, 63
1, 218139, Note_on_c, 0, 76, 84
1, 218144, Note_on_c, 0, 64, 65
1, 218147, Note_on_c, 0, 60, 68
1, 218158, Note_off_c, 0, 76, 68
1, 218177, Note_off_c, 0, 64, 65
1, 218184, Note_off_c, 0, 60, 61
1, 218218, Note_on_c, 0, 76, 31
1, 218219, Note_off_c, 0, 76, 127
1, 218227, Note_on_c, 0, 67, 72
1, 218313, Note_off_c, 0, 67, 61
1, 218321, Note_on_c, 0, 64, 59
1, 218335, Note_on_c, 0, 60, 63
1, 218335, Note_on_c, 0, 79, 79
1, 218356, Note_off_c, 0, 79, 70
1, 218378, Note_off_c, 0, 60, 61
1, 218379, Note_off_c, 0, 64, 63
1, 218419, Note_on_c, 0, 67, 72
1, 218509, Note_off_c, 0, 67, 60
1, 218514, Note_on_c, 0, 64, 64
1, 218522, Note_on_c, 0, 60, 65
1, 218558, Note_off_c, 0, 64, 63
1, 218561, Note_off_c, 0, 60, 62
1, 218606, Note_on_c, 0, 67, 67
1, 218678, Note_on_c, 0, 84, 80
1, 218683, Note_off_c, 0, 67, 61
1, 218683, Note_on_c, 0, 64, 59
1, 218692, Note_on_c, 0, 60, 60
1, 218713, Note_off_c, 0, 84, 59
1, 218730, Note_on_c, 0, 86, 76
1, 218730, Note_off_c, 0, 64, 63
1, 218734, Note_off_c, 0, 60, 62
1, 218772, Note_on_c, 0, 84, 75
1, 218783, Note_on_c, 0, 67, 62
1, 218785, Note_off_c, 0, 86, 61
1, 218793, Note_off_c, 0, 84, 69
1, 218796, Note_on_c, 0, 83, 69
1, 218829, Note_off_c, 0, 83, 57
1, 218852, Note_on_c, 0, 84, 77
1, 218861, Note_off_c, 0, 67, 59
1, 218879, Note_on_c, 0, 64, 54
1, 218882, Note_off_c, 0, 84, 68
1, 218889, Note_on_c, 0, 60, 59
1, 218930, Note_off_c, 0, 64, 61
1, 218931, Note_off_c, 0, 60, 59
1, 218977, Note_on_c, 0, 67, 62
1, 219063, Note_off_c, 0, 67, 61
1, 219068, Note_on_c, 0, 64, 51
1, 219080, Note_on_c, 0, 60, 55
1, 219095, Note_on_c, 0, 79, 56
1, 219125, Note_off_c, 0, 60, 60
1, 219125, Note_off_c, 0, 64, 59
1, 219160, Note_off_c, 0, 79, 60
1, 219175, Note_on_c, 0, 67, 55
1, 219178, Note_on_c, 0, 88, 73
1, 219255, Note_off_c, 0, 67, 61
1, 219257, Note_on_c, 0, 64, 57
1, 219274, Note_on_c, 0, 86, 72
1, 219275, Note_on_c, 0, 60, 43
1, 219304, Note_off_c, 0, 88, 58
1, 219305, Note_off_c, 0, 60, 55
1, 219307, Note_off_c, 0, 64, 59
1, 219354, Note_on_c, 0, 67, 54
1, 219355, Note_on_c, 0, 84, 75
1, 219372, Note_off_c, 0, 86, 60
1, 219434, Note_on_c, 0, 60, 40
1, 219435, Note_on_c, 0, 64, 59
1, 219435, Note_off_c, 0, 67, 59
1, 219451, Note_on_c, 0, 83, 77
1, 219470, Note_off_c, 0, 64, 65
1, 219470, Note_off_c, 0, 84, 57
1, 219481, Note_off_c, 0, 60, 61
1, 219518, Note_off_c, 0, 83, 61
1, 219536, Note_on_c, 0, 67, 54
1, 219536, Note_on_c, 0, 81, 68
1, 219610, Note_off_c, 0, 67, 54
1, 219640, Note_on_c, 0, 59, 50
1, 219641, Note_on_c, 0, 65, 48
1, 219642, Note_off_c, 0, 81, 61
1, 219649, Note_on_c, 0, 62, 51
1, 219652, Note_on_c, 0, 79, 66
1, 219701, Note_off_c, 0, 62, 59
1, 219702, Note_off_c, 0, 65, 57
1, 219706, Note_off_c, 0, 59, 59
1, 219742, Note_on_c, 0, 67, 57
1, 219828, Note_off_c, 0, 67, 62
1, 219835, Note_on_c, 0, 65, 45
1, 219840, Note_on_c, 0, 59, 51
1, 219840, Note_on_c, 0, 62, 48
1, 219887, Note_off_c, 0, 65, 57
1, 219890, Note_off_c, 0, 62, 61
1, 219891, Note_off_c, 0, 59, 59
1, 219932, Note_on_c, 0, 67, 61
1, 220020, Note_on_c, 0, 65, 54
1, 220027, Note_off_c, 0, 67, 58
1, 220028, Note_on_c, 0, 59, 54
1, 220033, Note_on_c, 0, 62, 50
1, 220067, Note_off_c, 0, 65, 62
1, 220072, Note_off_c, 0, 62, 62
1, 220073, Note_off_c, 0, 59, 60
1, 220100, Note_off_c, 0, 79, 61
1, 220111, Note_on_c, 0, 67, 54
1, 220113, Note_on_c, 0, 80, 68
1, 220193, Note_on_c, 0, 65, 50
1, 220195, Note_off_c, 0, 80, 62
1, 220198, Note_on_c, 0, 81, 73
1, 220199, Note_on_c, 0, 59, 60
1, 220199, Note_on_c, 0, 62, 44
1, 220204, Note_off_c, 0, 67, 58
1, 220256, Note_off_c, 0, 65, 58
1, 220265, Note_off_c, 0, 62, 60
1, 220274, Note_off_c, 0, 59, 59
1, 220289, Note_off_c, 0, 81, 60
1, 220292, Note_on_c, 0, 67, 55
1, 220292, Note_on_c, 0, 82, 79
1, 220378, Note_off_c, 0, 67, 62
1, 220384, Note_on_c, 0, 65, 53
1, 220390, Note_on_c, 0, 59, 58
1, 220393, Note_on_c, 0, 62, 55
1, 220398, Note_on_c, 0, 83, 83
1, 220406, Note_off_c, 0, 82, 62
1, 220438, Note_off_c, 0, 65, 56
1, 220450, Note_off_c, 0, 59, 59
1, 220454, Note_off_c, 0, 62, 61
1, 220483, Note_on_c, 0, 67, 67
1, 220490, Note_on_c, 0, 84, 82
1, 220515, Note_off_c, 0, 83, 59
1, 220564, Note_on_c, 0, 65, 49
1, 220569, Note_off_c, 0, 67, 57
1, 220580, Note_on_c, 0, 59, 56
1, 220582, Note_on_c, 0, 62, 51
1, 220582, Note_on_c, 0, 85, 84
1, 220607, Note_off_c, 0, 84, 61
1, 220626, Note_off_c, 0, 65, 59
1, 220633, Note_off_c, 0, 59, 55
1, 220642, Note_off_c, 0, 62, 61
1, 220672, Note_on_c, 0, 67, 57
1, 220674, Note_on_c, 0, 86, 87
1, 220691, Note_off_c, 0, 85, 62
1, 220764, Note_on_c, 0, 65, 45
1, 220767, Note_off_c, 0, 67, 61
1, 220767, Note_on_c, 0, 88, 84
1, 220770, Note_on_c, 0, 59, 59
1, 220771, Note_off_c, 0, 86, 64
1, 220773, Note_on_c, 0, 62, 58
1, 220798, Note_off_c, 0, 65, 55
1, 220811, Note_off_c, 0, 62, 60
1, 220827, Note_off_c, 0, 59, 49
1, 220845, Note_on_c, 0, 67, 60
1, 220853, Note_on_c, 0, 86, 87
1, 220914, Note_on_c, 0, 65, 51
1, 220916, Note_off_c, 0, 67, 62
1, 220925, Note_on_c, 0, 59, 30
1, 220938, Note_on_c, 0, 62, 28
1, 220939, Note_on_c, 0, 83, 79
1, 220964, Note_off_c, 0, 88, 35
1, 220983, Note_off_c, 0, 86, 59
1, 220985, Note_off_c, 0, 59, 53
1, 220987, Note_off_c, 0, 65, 62
1, 220991, Note_off_c, 0, 62, 56
1, 220998, Note_on_c, 0, 67, 53
1, 221005, Note_off_c, 0, 83, 61
1, 221031, Note_on_c, 0, 77, 74
1, 221123, Note_off_c, 0, 77, 58
1, 221133, Note_on_c, 0, 76, 68
1, 221134, Note_on_c, 0, 60, 54
1, 221134, Note_off_c, 0, 67, 56
1, 221137, Note_on_c, 0, 64, 48
1, 221209, Note_off_c, 0, 76, 60
1, 221220, Note_on_c, 0, 77, 76
1, 221311, Note_on_c, 0, 78, 70
1, 221313, Note_off_c, 0, 77, 58
1, 221401, Note_on_c, 0, 79, 71
1, 221410, Note_off_c, 0, 78, 57
1, 221481, Note_off_c, 0, 64, 60
1, 221489, Note_off_c, 0, 79, 62
1, 221500, Note_on_c, 0, 81, 69
1, 221508, Note_off_c, 0, 60, 60
1, 221587, Note_on_c, 0, 79, 72
1, 221608, Note_off_c, 0, 81, 47
1, 221670, Note_on_c, 0, 76, 65
1, 221678, Note_off_c, 0, 79, 56
1, 221726, Note_off_c, 0, 76, 58
1, 221751, Note_on_c, 0, 72, 63
1, 221813, Note_off_c, 0, 72, 50
1, 221844, Note_on_c, 0, 65, 43
1, 221849, Note_on_c, 0, 62, 36
1, 221850, Note_on_c, 0, 71, 56
1, 221872, Note_on_c, 0, 55, 36
1, 221924, Note_off_c, 0, 71, 60
1, 221941, Note_on_c, 0, 72, 67
1, 222031, Note_off_c, 0, 72, 57
1, 222034, Note_on_c, 0, 73, 64
1, 222125, Note_off_c, 0, 73, 59
1, 222129, Note_on_c, 0, 74, 67
1, 222189, Note_off_c, 0, 65, 59
1, 222204, Note_off_c, 0, 74, 62
1, 222220, Note_on_c, 0, 76, 60
1, 222246, Note_off_c, 0, 62, 61
1, 222270, Note_off_c, 0, 76, 42
1, 222293, Note_off_c, 0, 55, 38
1, 222299, Note_on_c, 0, 74, 66
1, 222386, Note_off_c, 0, 74, 59
1, 222390, Note_on_c, 0, 71, 56
1, 222445, Note_off_c, 0, 71, 55
1, 222481, Note_on_c, 0, 67, 43
1, 222516, Note_off_c, 0, 67, 54
1, 222556, Note_on_c, 0, 72, 69
1, 222559, Note_on_c, 0, 64, 43
1, 222567, Note_on_c, 0, 60, 36
1, 222572, Note_off_c, 0, 72, 65
1, 222773, Note_on_c, 0, 74, 59
1, 222780, Note_on_c, 0, 71, 51
1, 222824, Note_off_c, 0, 71, 62
1, 222825, Note_off_c, 0, 74, 61
1, 222854, Note_on_c, 0, 67, 56
1, 222863, Note_off_c, 0, 64, 55
1, 222909, Note_off_c, 0, 60, 57
1, 222930, Note_off_c, 0, 67, 53
1, 222955, Note_on_c, 0, 72, 59
1, 222958, Note_on_c, 0, 76, 56
1, 222998, Note_off_c, 0, 72, 59
1, 223000, Note_off_c, 0, 76, 59
1, 223044, Note_on_c, 0, 67, 64
1, 223097, Note_off_c, 0, 67, 51
1, 223155, Note_on_c, 0, 77, 49
1, 223157, Note_on_c, 0, 74, 44
1, 223199, Note_off_c, 0, 74, 63
1, 223217, Note_off_c, 0, 77, 58
1, 223220, Note_on_c, 0, 67, 59
1, 223307, Note_off_c, 0, 67, 54
1, 223330, Note_on_c, 0, 79, 73
1, 223334, Note_on_c, 0, 76, 64
1, 223351, Note_off_c, 0, 76, 63
1, 223355, Note_off_c, 0, 79, 65
1, 223520, Note_on_c, 0, 53, 84
1, 223533, Note_on_c, 0, 69, 91
1, 223533, Note_on_c, 0, 74, 88
1, 223573, Note_off_c, 0, 53, 63
1, 223573, Note_off_c, 0, 69, 62
1, 223608, Note_on_c, 0, 65, 84
1, 223613, Note_on_c, 0, 50, 83
1, 223617, Note_off_c, 0, 74, 64
1, 223669, Note_off_c, 0, 50, 65
1, 223672, Note_off_c, 0, 65, 65
1, 223707, Note_on_c, 0, 55, 88
1, 223708, Note_on_c, 0, 67, 94
1, 223712, Note_on_c, 0, 72, 89
1, 223733, Note_off_c, 0, 55, 68
1, 223753, Note_off_c, 0, 67, 64
1, 223792, Note_on_c, 0, 64, 81
1, 223795, Note_off_c, 0, 72, 60
1, 223860, Note_off_c, 0, 64, 59
1, 223890, Note_on_c, 0, 43, 96
1, 223891, Note_on_c, 0, 55, 88
1, 223891, Note_on_c, 0, 65, 85
1, 223900, Note_on_c, 0, 71, 84
1, 223915, Note_off_c, 0, 55, 66
1, 223925, Note_off_c, 0, 43, 62
1, 223940, Note_off_c, 0, 65, 64
1, 223975, Note_on_c, 0, 62, 82
1, 223986, Note_off_c, 0, 71, 63
1, 224075, Note_off_c, 0, 62, 56
1, 224096, Note_on_c, 0, 48, 86
1, 224097, Note_on_c, 0, 64, 79
1, 224098, Note_on_c, 0, 36, 85
1, 224098, Note_on_c, 0, 72, 90
1, 224125, Note_off_c, 0, 64, 69
1, 224136, Note_off_c, 0, 72, 67
1, 224282, Note_off_c, 0, 36, 61
1, 224300, Note_off_c, 0, 48, 62
1, 224326, Note_on_c, 0, 74, 71
1, 224347, Note_on_c, 0, 71, 42
1, 224359, Note_on_c, 0, 72, 44
1, 224377, Note_off_c, 0, 71, 56
1, 224388, Note_off_c, 0, 72, 51
1, 224394, Note_off_c, 0, 74, 62
1, 224406, Note_on_c, 0, 67, 67
1, 224491, Note_on_c, 0, 72, 63
1, 224491, Note_off_c, 0, 67, 56
1, 224500, Note_on_c, 0, 76, 73
1, 224553, Note_off_c, 0, 72, 58
1, 224562, Note_off_c, 0, 76, 59
1, 224594, Note_on_c, 0, 67, 71
1, 224657, Note_off_c, 0, 67, 58
1, 224682, Note_on_c, 0, 77, 74
1, 224687, Note_on_c, 0, 74, 64
1, 224732, Note_off_c, 0, 74, 59
1, 224738, Note_off_c, 0, 77, 59
1, 224770, Note_on_c, 0, 67, 66
1, 224824, Note_off_c, 0, 67, 55
1, 224852, Note_on_c, 0, 79, 78
1, 224854, Note_on_c, 0, 76, 74
1, 224876, Note_off_c, 0, 76, 68
1, 224879, Note_off_c, 0, 79, 70
1, 225041, Note_on_c, 0, 53, 80
1, 225052, Note_on_c, 0, 74, 85
1, 225053, Note_on_c, 0, 69, 92
1, 225106, Note_off_c, 0, 69, 54
1, 225122, Note_on_c, 0, 65, 82
1, 225129, Note_on_c, 0, 50, 79
1, 225133, Note_off_c, 0, 53, 53
1, 225135, Note_off_c, 0, 74, 63
1, 225188, Note_off_c, 0, 50, 65
1, 225190, Note_off_c, 0, 65, 64
1, 225215, Note_on_c, 0, 55, 88
1, 225223, Note_on_c, 0, 67, 91
1, 225227, Note_on_c, 0, 72, 89
1, 225262, Note_off_c, 0, 55, 63
1, 225274, Note_off_c, 0, 67, 63
1, 225292, Note_off_c, 0, 72, 60
1, 225305, Note_on_c, 0, 64, 81
1, 225391, Note_on_c, 0, 65, 84
1, 225396, Note_on_c, 0, 55, 87
1, 225396, Note_on_c, 0, 43, 93
1, 225399, Note_on_c, 0, 71, 78
1, 225404, Note_off_c, 0, 64, 63
1, 225423, Note_off_c, 0, 55, 65
1, 225433, Note_off_c, 0, 65, 66
1, 225442, Note_off_c, 0, 43, 59
1, 225477, Note_on_c, 0, 62, 84
1, 225485, Note_off_c, 0, 71, 61
1, 225570, Note_off_c, 0, 62, 55
1, 225585, Note_on_c, 0, 64, 89
1, 225587, Note_on_c, 0, 48, 95
1, 225589, Note_on_c, 0, 72, 89
1, 225592, Note_on_c, 0, 36, 95
1, 225661, Note_off_c, 0, 64, 65
1, 225685, Note_off_c, 0, 72, 62
1, 225686, Note_off_c, 0, 36, 63
1, 225698, Note_off_c, 0, 48, 62
1, 225905, Note_on_c, 0, 43, 62
1, 225930, Note_on_c, 0, 47, 74
1, 225942, Note_on_c, 0, 74, 71
1, 225964, Note_on_c, 0, 50, 69
1, 225981, Note_on_c, 0, 55, 94
1, 225983, Note_on_c, 0, 77, 90
1, 225997, Note_on_c, 0, 83, 97
1, 226032, Note_off_c, 0, 74, 0
1, 226070, Poly_aftertouch_c, 0, 74, 127
1, 226075, Note_off_c, 0, 55, 63
1, 226097, Poly_aftertouch_c, 0, 74, 0
1, 226108, Note_off_c, 0, 50, 64
1, 226114, Note_off_c, 0, 83, 61
1, 226118, Note_off_c, 0, 43, 63
1, 226120, Note_off_c, 0, 77, 61
1, 226121, Note_off_c, 0, 47, 62
1, 226368, Note_on_c, 0, 36, 55
1, 226398, Note_on_c, 0, 40, 64
1, 226413, Note_on_c, 0, 72, 71
1, 226424, Note_on_c, 0, 43, 72
1, 226430, Note_on_c, 0, 76, 67
1, 226434, Note_on_c, 0, 48, 89
1, 226443, Note_on_c, 0, 79, 89
1, 226449, Note_on_c, 0, 84, 98
1, 226890, Note_off_c, 0, 79, 21
1, 226935, Note_off_c, 0, 72, 24
1, 227154, Note_off_c, 0, 84, 58
1, 227161, Note_off_c, 0, 76, 32
1, 227186, Note_off_c, 0, 48, 58
1, 227190, Note_off_c, 0, 36, 52
1, 227203, Note_off_c, 0, 40, 29
1, 227227, Note_off_c, 0, 43, 51
1, 227227, End_track
0, 0, End_of_file
