0, 0, Header, 0, 1, 384
1, 0, Start_track
1, 0, Title_t, "Barcarolle Op.60--Maria Verbaite   "
1, 0, Text_t, "2008 e-Piano Junior Competition virtual audition round"
1, 0, Text_t, "recorded January and February 2008"
1, 0, Text_t, "http://www.piano-e-competition.com/"
1, 0, Text_t, "File processed for distribution by software from Zenph Studios, Inc., http://www.zenph.com"
1, 0, Instrument_name_t, "Yamaha Disklavier Pro Mark IV concert grand piano, model DCFIIISM4PRO"
1, 0, Sequencer_specific, 39, 67, 113, 0, 1, 0, 1, 0, 66, 97, 114, 99, 97, 114, 111, 108, 108, 101, 32, 79, 112, 46, 54, 48, 77, 97, 114, 105, 97, 32, 86, 101, 114, 98, 97, 105, 116, 101, 32, 32
1, 0, Sequencer_specific, 6, 67, 113, 0, 0, 0, 69
1, 0, System_exclusive, 21, 67, 113, 126, 21, 0, 2, 2, 1, 7, 11, 14, 4, 7, 9, 11, 2, 8, 7, 6, 2, 247
1, 0, Sequencer_specific, 5, 67, 123, 12, 2, 1
1, 0, Tempo, 512820
1, 0, Time_signature, 4, 2, 24, 8
1, 0, System_exclusive, 5, 126, 127, 9, 1, 247
1, 1, System_exclusive, 8, 67, 16, 76, 0, 0, 126, 0, 247
1, 2, System_exclusive, 8, 67, 16, 76, 8, 9, 7, 1, 247
1, 3, Control_c, 0, 0, 0
1, 3, Control_c, 1, 0, 0
1, 3, Control_c, 2, 0, 0
1, 3, Control_c, 3, 0, 0
1, 3, Control_c, 4, 0, 0
1, 3, Control_c, 5, 0, 0
1, 3, Control_c, 6, 0, 0
1, 3, Control_c, 7, 0, 0
1, 3, Control_c, 8, 0, 0
1, 3, Control_c, 9, 0, 127
1, 3, Control_c, 10, 0, 0
1, 3, Control_c, 11, 0, 0
1, 3, Control_c, 12, 0, 0
1, 3, Control_c, 13, 0, 0
1, 3, Control_c, 14, 0, 0
1, 3, Control_c, 15, 0, 0
1, 4, Control_c, 0, 32, 0
1, 4, Control_c, 1, 32, 0
1, 4, Control_c, 2, 32, 0
1, 4, Control_c, 3, 32, 0
1, 4, Control_c, 4, 32, 0
1, 4, Control_c, 5, 32, 0
1, 4, Control_c, 6, 32, 0
1, 4, Control_c, 7, 32, 0
1, 4, Control_c, 8, 32, 0
1, 4, Control_c, 9, 32, 0
1, 4, Control_c, 10, 32, 0
1, 4, Control_c, 11, 32, 0
1, 4, Control_c, 12, 32, 0
1, 4, Control_c, 13, 32, 0
1, 4, Control_c, 14, 32, 0
1, 4, Control_c, 15, 32, 0
1, 5, Program_c, 0, 0
1, 5, Program_c, 1, 0
1, 5, Program_c, 2, 0
1, 5, Program_c, 3, 0
1, 5, Program_c, 4, 0
1, 5, Program_c, 5, 0
1, 5, Program_c, 6, 0
1, 5, Program_c, 7, 0
1, 5, Program_c, 8, 0
1, 5, Program_c, 9, 0
1, 5, Program_c, 10, 0
1, 5, Program_c, 11, 0
1, 5, Program_c, 12, 0
1, 5, Program_c, 13, 0
1, 5, Program_c, 14, 0
1, 5, Program_c, 15, 0
1, 6, Control_c, 0, 7, 100
1, 117, Control_c, 0, 64, 15
1, 229, Control_c, 0, 64, 31
1, 341, Control_c, 0, 64, 46
1, 452, Control_c, 0, 64, 63
1, 564, Control_c, 0, 64, 77
1, 676, Control_c, 0, 64, 94
1, 787, Control_c, 0, 64, 108
1, 899, Control_c, 0, 64, 127
1, 899, Control_c, 1, 7, 100
1, 899, Control_c, 2, 7, 100
1, 899, Control_c, 3, 7, 100
1, 899, Control_c, 4, 7, 100
1, 899, Control_c, 5, 7, 100
1, 899, Control_c, 6, 7, 100
1, 899, Control_c, 7, 7, 100
1, 899, Control_c, 8, 7, 100
1, 899, Control_c, 9, 7, 100
1, 899, Control_c, 10, 7, 100
1, 899, Control_c, 11, 7, 100
1, 899, Control_c, 12, 7, 100
1, 899, Control_c, 13, 7, 100
1, 899, Control_c, 14, 7, 100
1, 899, Control_c, 15, 7, 100
1, 1128, Note_on_c, 0, 37, 79
1, 1129, Note_on_c, 0, 25, 75
1, 1245, Note_off_c, 0, 25, 60
1, 1287, Note_off_c, 0, 37, 61
1, 2107, Note_on_c, 0, 80, 92
1, 2125, Note_on_c, 0, 75, 66
1, 2125, Note_on_c, 0, 71, 62
1, 2646, Note_off_c, 0, 75, 36
1, 3049, Note_off_c, 0, 71, 40
1, 3058, Note_on_c, 0, 68, 42
1, 3353, Note_on_c, 0, 77, 60
1, 3353, Note_off_c, 0, 68, 57
1, 3355, Note_on_c, 0, 61, 44
1, 3618, Note_on_c, 0, 73, 66
1, 3633, Note_off_c, 0, 77, 59
1, 3636, Note_on_c, 0, 70, 52
1, 3928, Note_on_c, 0, 78, 81
1, 3937, Control_c, 0, 64, 95
1, 3943, Note_on_c, 0, 66, 50
1, 3943, Note_on_c, 0, 75, 52
1, 3952, Control_c, 0, 64, 72
1, 3955, Note_off_c, 0, 61, 27
1, 3967, Control_c, 0, 64, 0
1, 3985, Note_off_c, 0, 70, 55
1, 3995, Note_off_c, 0, 73, 54
1, 3997, Note_off_c, 0, 80, 57
1, 4011, Control_c, 0, 64, 61
1, 4026, Control_c, 0, 64, 68
1, 4041, Control_c, 0, 64, 74
1, 4056, Control_c, 0, 64, 81
1, 4070, Control_c, 0, 64, 86
1, 4085, Control_c, 0, 64, 90
1, 4100, Control_c, 0, 64, 93
1, 4111, Note_off_c, 0, 75, 34
1, 4115, Control_c, 0, 64, 97
1, 4129, Control_c, 0, 64, 101
1, 4144, Control_c, 0, 64, 106
1, 4159, Control_c, 0, 64, 111
1, 4174, Control_c, 0, 64, 118
1, 4188, Control_c, 0, 64, 127
1, 4199, Note_off_c, 0, 66, 56
1, 4234, Note_on_c, 0, 61, 40
1, 4249, Note_on_c, 0, 80, 76
1, 4256, Note_on_c, 0, 70, 66
1, 4287, Note_off_c, 0, 78, 61
1, 4319, Note_off_c, 0, 70, 61
1, 4495, Note_on_c, 0, 78, 81
1, 4500, Note_on_c, 0, 71, 62
1, 4501, Note_on_c, 0, 68, 48
1, 4551, Note_off_c, 0, 71, 51
1, 4625, Note_off_c, 0, 68, 62
1, 4671, Note_off_c, 0, 78, 48
1, 4722, Note_off_c, 0, 61, 37
1, 4732, Note_on_c, 0, 65, 57
1, 4739, Note_on_c, 0, 77, 79
1, 4751, Note_on_c, 0, 73, 60
1, 4752, Note_off_c, 0, 65, 64
1, 4774, Note_off_c, 0, 80, 62
1, 4808, Note_off_c, 0, 73, 43
1, 4970, Note_on_c, 0, 78, 77
1, 4977, Note_on_c, 0, 49, 45
1, 4980, Note_on_c, 0, 68, 56
1, 4998, Note_off_c, 0, 77, 60
1, 5025, Note_off_c, 0, 49, 60
1, 5041, Control_c, 0, 64, 113
1, 5056, Control_c, 0, 64, 108
1, 5085, Control_c, 0, 64, 105
1, 5100, Control_c, 0, 64, 102
1, 5115, Control_c, 0, 64, 96
1, 5130, Control_c, 0, 64, 93
1, 5144, Control_c, 0, 64, 91
1, 5204, Control_c, 0, 64, 90
1, 5219, Control_c, 0, 64, 90
1, 5234, Control_c, 0, 64, 87
1, 5249, Control_c, 0, 64, 80
1, 5263, Control_c, 0, 64, 68
1, 5266, Note_on_c, 0, 66, 36
1, 5268, Note_on_c, 0, 75, 73
1, 5278, Control_c, 0, 64, 0
1, 5280, Note_on_c, 0, 70, 51
1, 5341, Note_off_c, 0, 78, 52
1, 5374, Control_c, 0, 64, 68
1, 5389, Control_c, 0, 64, 73
1, 5404, Control_c, 0, 64, 80
1, 5420, Control_c, 0, 64, 84
1, 5434, Control_c, 0, 64, 87
1, 5448, Control_c, 0, 64, 90
1, 5460, Note_off_c, 0, 66, 62
1, 5463, Control_c, 0, 64, 92
1, 5463, Note_off_c, 0, 70, 53
1, 5478, Control_c, 0, 64, 95
1, 5492, Control_c, 0, 64, 97
1, 5522, Control_c, 0, 64, 100
1, 5525, Note_on_c, 0, 71, 62
1, 5529, Note_on_c, 0, 63, 45
1, 5546, Note_off_c, 0, 68, 38
1, 5552, Control_c, 0, 64, 102
1, 5556, Note_off_c, 0, 63, 55
1, 5596, Control_c, 0, 64, 104
1, 5753, Note_on_c, 0, 77, 70
1, 5757, Note_on_c, 0, 49, 54
1, 5762, Note_on_c, 0, 66, 58
1, 5773, Note_off_c, 0, 71, 61
1, 5803, Note_off_c, 0, 49, 59
1, 5815, Note_off_c, 0, 75, 37
1, 5826, Note_off_c, 0, 66, 59
1, 5981, Control_c, 0, 64, 101
1, 5996, Control_c, 0, 64, 90
1, 6010, Control_c, 0, 64, 75
1, 6022, Note_on_c, 0, 75, 68
1, 6025, Control_c, 0, 64, 0
1, 6038, Note_on_c, 0, 65, 34
1, 6038, Note_on_c, 0, 68, 40
1, 6070, Note_off_c, 0, 77, 54
1, 6092, Control_c, 0, 64, 57
1, 6107, Control_c, 0, 64, 66
1, 6122, Control_c, 0, 64, 70
1, 6137, Control_c, 0, 64, 73
1, 6152, Control_c, 0, 64, 78
1, 6166, Control_c, 0, 64, 83
1, 6181, Control_c, 0, 64, 86
1, 6196, Control_c, 0, 64, 87
1, 6211, Control_c, 0, 64, 89
1, 6226, Control_c, 0, 64, 91
1, 6241, Control_c, 0, 64, 92
1, 6245, Note_off_c, 0, 65, 48
1, 6256, Control_c, 0, 64, 93
1, 6271, Control_c, 0, 64, 94
1, 6286, Control_c, 0, 64, 95
1, 6290, Note_off_c, 0, 68, 56
1, 6301, Control_c, 0, 64, 96
1, 6302, Note_on_c, 0, 73, 65
1, 6320, Note_on_c, 0, 70, 43
1, 6330, Control_c, 0, 64, 99
1, 6332, Note_on_c, 0, 61, 15
1, 6360, Control_c, 0, 64, 101
1, 6376, Note_off_c, 0, 61, 50
1, 6381, Note_off_c, 0, 75, 36
1, 6505, Note_off_c, 0, 70, 42
1, 6539, Note_on_c, 0, 75, 60
1, 6541, Note_on_c, 0, 65, 47
1, 6553, Note_on_c, 0, 49, 47
1, 6554, Note_off_c, 0, 73, 56
1, 6590, Note_off_c, 0, 49, 63
1, 6789, Control_c, 0, 64, 94
1, 6804, Control_c, 0, 64, 80
1, 6819, Control_c, 0, 64, 64
1, 6821, Note_on_c, 0, 71, 51
1, 6832, Note_on_c, 0, 63, 42
1, 6841, Control_c, 0, 64, 0
1, 6846, Note_on_c, 0, 66, 32
1, 6852, Note_off_c, 0, 65, 37
1, 6869, Note_off_c, 0, 75, 36
1, 6930, Control_c, 0, 64, 64
1, 6945, Control_c, 0, 64, 69
1, 6960, Control_c, 0, 64, 72
1, 6975, Control_c, 0, 64, 74
1, 6989, Control_c, 0, 64, 77
1, 7004, Control_c, 0, 64, 80
1, 7013, Note_off_c, 0, 66, 24
1, 7019, Control_c, 0, 64, 82
1, 7034, Control_c, 0, 64, 84
1, 7039, Note_off_c, 0, 63, 38
1, 7049, Control_c, 0, 64, 86
1, 7064, Control_c, 0, 64, 87
1, 7079, Control_c, 0, 64, 89
1, 7094, Control_c, 0, 64, 90
1, 7096, Note_on_c, 0, 75, 50
1, 7109, Control_c, 0, 64, 92
1, 7112, Note_off_c, 0, 71, 50
1, 7114, Note_on_c, 0, 59, 45
1, 7124, Control_c, 0, 64, 95
1, 7126, Note_on_c, 0, 68, 39
1, 7138, Control_c, 0, 64, 98
1, 7143, Note_off_c, 0, 59, 57
1, 7153, Note_off_c, 0, 68, 56
1, 7153, Control_c, 0, 64, 100
1, 7168, Control_c, 0, 64, 103
1, 7183, Control_c, 0, 64, 105
1, 7198, Control_c, 0, 64, 107
1, 7212, Control_c, 0, 64, 110
1, 7227, Control_c, 0, 64, 112
1, 7242, Control_c, 0, 64, 114
1, 7301, Control_c, 0, 64, 116
1, 7357, Note_off_c, 0, 75, 58
1, 7361, Note_on_c, 0, 73, 52
1, 7369, Note_on_c, 0, 49, 46
1, 7376, Note_on_c, 0, 63, 37
1, 7399, Note_off_c, 0, 49, 61
1, 7431, Note_off_c, 0, 63, 41
1, 7538, Control_c, 0, 64, 114
1, 7634, Control_c, 0, 64, 112
1, 7649, Control_c, 0, 64, 103
1, 7663, Control_c, 0, 64, 86
1, 7673, Note_on_c, 0, 61, 34
1, 7675, Note_on_c, 0, 71, 53
1, 7678, Control_c, 0, 64, 68
1, 7682, Note_off_c, 0, 73, 49
1, 7693, Control_c, 0, 64, 0
1, 7702, Note_on_c, 0, 65, 25
1, 7768, Control_c, 0, 64, 65
1, 7782, Control_c, 0, 64, 69
1, 7797, Control_c, 0, 64, 72
1, 7813, Control_c, 0, 64, 75
1, 7828, Control_c, 0, 64, 79
1, 7842, Control_c, 0, 64, 82
1, 7857, Control_c, 0, 64, 85
1, 7872, Control_c, 0, 64, 87
1, 7878, Note_off_c, 0, 61, 56
1, 7886, Note_off_c, 0, 65, 39
1, 7887, Control_c, 0, 64, 88
1, 7902, Control_c, 0, 64, 90
1, 7917, Control_c, 0, 64, 91
1, 7932, Control_c, 0, 64, 93
1, 7939, Note_off_c, 0, 71, 52
1, 7946, Control_c, 0, 64, 94
1, 7958, Note_on_c, 0, 70, 51
1, 7961, Control_c, 0, 64, 96
1, 7967, Note_on_c, 0, 58, 48
1, 7970, Note_on_c, 0, 66, 27
1, 7976, Control_c, 0, 64, 98
1, 7991, Control_c, 0, 64, 101
1, 7994, Note_off_c, 0, 58, 62
1, 8006, Control_c, 0, 64, 105
1, 8021, Control_c, 0, 64, 109
1, 8035, Control_c, 0, 64, 114
1, 8050, Control_c, 0, 64, 120
1, 8065, Control_c, 0, 64, 127
1, 8168, Note_off_c, 0, 66, 17
1, 8279, Note_on_c, 0, 37, 46
1, 8280, Note_on_c, 0, 61, 37
1, 8292, Note_on_c, 0, 71, 49
1, 8313, Note_off_c, 0, 70, 51
1, 8321, Note_off_c, 0, 37, 61
1, 8501, Control_c, 0, 64, 119
1, 8516, Control_c, 0, 64, 116
1, 8546, Control_c, 0, 64, 114
1, 8606, Control_c, 0, 64, 111
1, 8619, Note_on_c, 0, 59, 35
1, 8621, Control_c, 0, 64, 109
1, 8635, Control_c, 0, 64, 103
1, 8648, Note_off_c, 0, 71, 36
1, 8650, Note_on_c, 0, 68, 43
1, 8650, Control_c, 0, 64, 89
1, 8656, Note_on_c, 0, 63, 35
1, 8665, Control_c, 0, 64, 70
1, 8680, Control_c, 0, 64, 0
1, 8708, Note_off_c, 0, 61, 36
1, 8727, Note_off_c, 0, 63, 37
1, 8769, Control_c, 0, 64, 64
1, 8784, Control_c, 0, 64, 68
1, 8799, Control_c, 0, 64, 70
1, 8814, Control_c, 0, 64, 72
1, 8829, Control_c, 0, 64, 74
1, 8843, Control_c, 0, 64, 77
1, 8858, Control_c, 0, 64, 79
1, 8873, Control_c, 0, 64, 81
1, 8888, Control_c, 0, 64, 82
1, 8903, Control_c, 0, 64, 83
1, 8917, Control_c, 0, 64, 84
1, 8932, Control_c, 0, 64, 85
1, 8947, Control_c, 0, 64, 87
1, 8962, Control_c, 0, 64, 88
1, 8977, Control_c, 0, 64, 89
1, 9006, Control_c, 0, 64, 89
1, 9011, Note_off_c, 0, 59, 27
1, 9021, Control_c, 0, 64, 90
1, 9031, Note_on_c, 0, 71, 39
1, 9035, Control_c, 0, 64, 91
1, 9038, Note_on_c, 0, 56, 35
1, 9045, Note_on_c, 0, 65, 27
1, 9050, Control_c, 0, 64, 93
1, 9065, Control_c, 0, 64, 94
1, 9088, Control_c, 0, 64, 94
1, 9098, Note_off_c, 0, 68, 32
1, 9101, Note_off_c, 0, 56, 55
1, 9103, Control_c, 0, 64, 95
1, 9117, Control_c, 0, 64, 96
1, 9147, Control_c, 0, 64, 98
1, 9181, Note_off_c, 0, 65, 33
1, 9206, Control_c, 0, 64, 100
1, 9476, Note_off_c, 0, 71, 37
1, 9619, Note_on_c, 0, 37, 24
1, 9681, Control_c, 0, 64, 98
1, 9693, Note_on_c, 0, 70, 26
1, 9696, Control_c, 0, 64, 95
1, 9711, Control_c, 0, 64, 88
1, 9720, Poly_aftertouch_c, 0, 59, 127
1, 9726, Control_c, 0, 64, 76
1, 9740, Control_c, 0, 64, 59
1, 9755, Control_c, 0, 64, 0
1, 9814, Control_c, 0, 64, 65
1, 9836, Control_c, 0, 64, 69
1, 9851, Control_c, 0, 64, 72
1, 9866, Control_c, 0, 64, 76
1, 9881, Control_c, 0, 64, 79
1, 9896, Control_c, 0, 64, 81
1, 9909, Poly_aftertouch_c, 0, 59, 0
1, 9911, Control_c, 0, 64, 83
1, 9926, Control_c, 0, 64, 83
1, 9979, Note_off_c, 0, 37, 41
1, 9984, Control_c, 0, 64, 84
1, 9997, Note_off_c, 0, 70, 36
1, 10191, Control_c, 0, 64, 83
1, 10311, Control_c, 0, 64, 83
1, 10370, Control_c, 0, 64, 82
1, 10415, Control_c, 0, 64, 82
1, 10430, Control_c, 0, 64, 81
1, 10444, Control_c, 0, 64, 81
1, 10459, Control_c, 0, 64, 80
1, 10489, Control_c, 0, 64, 80
1, 10519, Control_c, 0, 64, 79
1, 10534, Control_c, 0, 64, 79
1, 10548, Control_c, 0, 64, 78
1, 10585, Control_c, 0, 64, 78
1, 10614, Control_c, 0, 64, 77
1, 10644, Control_c, 0, 64, 77
1, 10659, Control_c, 0, 64, 76
1, 10674, Control_c, 0, 64, 76
1, 10689, Control_c, 0, 64, 75
1, 10704, Control_c, 0, 64, 75
1, 10734, Control_c, 0, 64, 74
1, 10763, Control_c, 0, 64, 74
1, 10778, Control_c, 0, 64, 73
1, 10793, Control_c, 0, 64, 72
1, 10807, Control_c, 0, 64, 71
1, 10822, Control_c, 0, 64, 71
1, 10867, Control_c, 0, 64, 70
1, 10881, Control_c, 0, 64, 70
1, 10896, Control_c, 0, 64, 69
1, 10911, Control_c, 0, 64, 69
1, 11030, Control_c, 0, 64, 68
1, 11134, Control_c, 0, 64, 68
1, 11223, Control_c, 0, 64, 67
1, 11282, Control_c, 0, 64, 66
1, 11297, Control_c, 0, 64, 63
1, 11302, Note_on_c, 0, 42, 44
1, 11312, Control_c, 0, 64, 0
1, 11393, Control_c, 0, 64, 61
1, 11408, Control_c, 0, 64, 66
1, 11424, Control_c, 0, 64, 68
1, 11438, Control_c, 0, 64, 69
1, 11453, Control_c, 0, 64, 70
1, 11468, Control_c, 0, 64, 71
1, 11483, Control_c, 0, 64, 72
1, 11498, Control_c, 0, 64, 74
1, 11512, Control_c, 0, 64, 75
1, 11527, Control_c, 0, 64, 76
1, 11542, Control_c, 0, 64, 77
1, 11556, Control_c, 0, 64, 77
1, 11690, Control_c, 0, 64, 78
1, 11703, Note_on_c, 0, 49, 42
1, 11735, Control_c, 0, 64, 78
1, 11753, Note_off_c, 0, 42, 51
1, 11884, Control_c, 0, 64, 78
1, 11956, Note_off_c, 0, 49, 61
1, 11958, Control_c, 0, 64, 77
1, 11966, Note_on_c, 0, 56, 48
1, 11987, Control_c, 0, 64, 77
1, 12002, Control_c, 0, 64, 76
1, 12017, Control_c, 0, 64, 75
1, 12032, Control_c, 0, 64, 74
1, 12047, Control_c, 0, 64, 73
1, 12061, Control_c, 0, 64, 72
1, 12084, Control_c, 0, 64, 71
1, 12099, Control_c, 0, 64, 70
1, 12114, Control_c, 0, 64, 70
1, 12129, Control_c, 0, 64, 69
1, 12143, Control_c, 0, 64, 69
1, 12158, Control_c, 0, 64, 68
1, 12172, Control_c, 0, 64, 67
1, 12186, Control_c, 0, 64, 66
1, 12187, Note_off_c, 0, 56, 58
1, 12201, Control_c, 0, 64, 65
1, 12216, Control_c, 0, 64, 64
1, 12218, Note_on_c, 0, 54, 42
1, 12231, Control_c, 0, 64, 0
1, 12319, Note_off_c, 0, 54, 56
1, 12320, Note_on_c, 0, 56, 49
1, 12429, Note_off_c, 0, 56, 62
1, 12468, Control_c, 0, 64, 54
1, 12471, Note_on_c, 0, 58, 49
1, 12483, Control_c, 0, 64, 61
1, 12498, Control_c, 0, 64, 64
1, 12513, Control_c, 0, 64, 65
1, 12527, Control_c, 0, 64, 67
1, 12542, Control_c, 0, 64, 68
1, 12557, Control_c, 0, 64, 69
1, 12572, Control_c, 0, 64, 70
1, 12586, Control_c, 0, 64, 71
1, 12602, Control_c, 0, 64, 71
1, 12617, Control_c, 0, 64, 72
1, 12632, Control_c, 0, 64, 72
1, 12647, Control_c, 0, 64, 73
1, 12663, Note_off_c, 0, 58, 51
1, 12691, Control_c, 0, 64, 73
1, 12721, Control_c, 0, 64, 74
1, 12758, Note_on_c, 0, 49, 36
1, 12765, Control_c, 0, 64, 74
1, 12993, Note_on_c, 0, 42, 47
1, 12995, Note_off_c, 0, 49, 39
1, 12995, Control_c, 0, 64, 73
1, 13009, Control_c, 0, 64, 70
1, 13024, Control_c, 0, 64, 65
1, 13039, Control_c, 0, 64, 0
1, 13143, Control_c, 0, 64, 64
1, 13157, Control_c, 0, 64, 66
1, 13172, Control_c, 0, 64, 67
1, 13187, Control_c, 0, 64, 68
1, 13202, Control_c, 0, 64, 70
1, 13217, Control_c, 0, 64, 71
1, 13232, Control_c, 0, 64, 73
1, 13246, Control_c, 0, 64, 74
1, 13252, Note_on_c, 0, 49, 52
1, 13261, Control_c, 0, 64, 75
1, 13276, Control_c, 0, 64, 76
1, 13306, Control_c, 0, 64, 76
1, 13342, Note_off_c, 0, 42, 37
1, 13483, Note_off_c, 0, 49, 60
1, 13499, Control_c, 0, 64, 76
1, 13500, Note_on_c, 0, 56, 47
1, 13580, Control_c, 0, 64, 75
1, 13625, Control_c, 0, 64, 75
1, 13670, Control_c, 0, 64, 74
1, 13700, Control_c, 0, 64, 74
1, 13706, Note_off_c, 0, 56, 58
1, 13729, Control_c, 0, 64, 73
1, 13738, Note_on_c, 0, 54, 45
1, 13758, Control_c, 0, 64, 71
1, 13773, Control_c, 0, 64, 66
1, 13788, Control_c, 0, 64, 0
1, 13847, Note_off_c, 0, 54, 53
1, 13850, Note_on_c, 0, 56, 45
1, 13965, Control_c, 0, 64, 55
1, 13974, Note_off_c, 0, 56, 62
1, 13980, Control_c, 0, 64, 64
1, 13992, Note_on_c, 0, 58, 49
1, 13995, Control_c, 0, 64, 65
1, 14010, Control_c, 0, 64, 67
1, 14024, Control_c, 0, 64, 68
1, 14039, Control_c, 0, 64, 68
1, 14054, Control_c, 0, 64, 69
1, 14084, Control_c, 0, 64, 69
1, 14114, Control_c, 0, 64, 70
1, 14129, Control_c, 0, 64, 70
1, 14173, Control_c, 0, 64, 71
1, 14188, Control_c, 0, 64, 71
1, 14203, Control_c, 0, 64, 72
1, 14218, Control_c, 0, 64, 73
1, 14222, Note_off_c, 0, 58, 51
1, 14233, Control_c, 0, 64, 74
1, 14242, Note_on_c, 0, 61, 47
1, 14248, Control_c, 0, 64, 75
1, 14263, Control_c, 0, 64, 75
1, 14271, Note_off_c, 0, 61, 54
1, 14278, Control_c, 0, 64, 76
1, 14293, Control_c, 0, 64, 76
1, 14308, Control_c, 0, 64, 77
1, 14329, Control_c, 0, 64, 77
1, 14478, Control_c, 0, 64, 77
1, 14486, Note_on_c, 0, 42, 45
1, 14508, Control_c, 0, 64, 76
1, 14523, Control_c, 0, 64, 72
1, 14537, Control_c, 0, 64, 64
1, 14552, Control_c, 0, 64, 0
1, 14642, Control_c, 0, 64, 50
1, 14656, Control_c, 0, 64, 65
1, 14671, Control_c, 0, 64, 66
1, 14686, Control_c, 0, 64, 67
1, 14701, Control_c, 0, 64, 68
1, 14716, Control_c, 0, 64, 69
1, 14730, Control_c, 0, 64, 70
1, 14736, Note_on_c, 0, 49, 45
1, 14745, Control_c, 0, 64, 71
1, 14760, Control_c, 0, 64, 71
1, 14774, Control_c, 0, 64, 72
1, 14789, Control_c, 0, 64, 73
1, 14804, Control_c, 0, 64, 73
1, 14811, Note_off_c, 0, 42, 51
1, 14834, Control_c, 0, 64, 74
1, 14863, Control_c, 0, 64, 74
1, 14944, Note_off_c, 0, 49, 59
1, 14977, Note_on_c, 0, 56, 43
1, 15183, Control_c, 0, 64, 74
1, 15188, Note_off_c, 0, 56, 53
1, 15223, Note_on_c, 0, 54, 43
1, 15227, Control_c, 0, 64, 73
1, 15242, Control_c, 0, 64, 69
1, 15257, Control_c, 0, 64, 55
1, 15272, Control_c, 0, 64, 0
1, 15306, Note_off_c, 0, 54, 56
1, 15329, Note_on_c, 0, 56, 49
1, 15415, Note_off_c, 0, 56, 62
1, 15420, Control_c, 0, 64, 50
1, 15434, Control_c, 0, 64, 64
1, 15449, Control_c, 0, 64, 66
1, 15464, Note_on_c, 0, 58, 41
1, 15464, Control_c, 0, 64, 67
1, 15479, Control_c, 0, 64, 68
1, 15494, Control_c, 0, 64, 69
1, 15509, Control_c, 0, 64, 70
1, 15523, Control_c, 0, 64, 70
1, 15553, Control_c, 0, 64, 71
1, 15568, Control_c, 0, 64, 71
1, 15583, Control_c, 0, 64, 72
1, 15597, Control_c, 0, 64, 72
1, 15627, Control_c, 0, 64, 73
1, 15657, Control_c, 0, 64, 73
1, 15671, Control_c, 0, 64, 74
1, 15683, Note_off_c, 0, 58, 55
1, 15726, Note_on_c, 0, 49, 37
1, 15858, Control_c, 0, 64, 73
1, 15916, Control_c, 0, 64, 73
1, 15931, Control_c, 0, 64, 71
1, 15942, Note_off_c, 0, 49, 40
1, 15946, Control_c, 0, 64, 64
1, 15956, Note_on_c, 0, 42, 47
1, 15960, Control_c, 0, 64, 0
1, 16093, Control_c, 0, 64, 63
1, 16108, Control_c, 0, 64, 65
1, 16123, Control_c, 0, 64, 66
1, 16138, Control_c, 0, 64, 67
1, 16153, Control_c, 0, 64, 68
1, 16168, Control_c, 0, 64, 69
1, 16183, Control_c, 0, 64, 69
1, 16198, Control_c, 0, 64, 70
1, 16208, Note_on_c, 0, 49, 45
1, 16212, Control_c, 0, 64, 71
1, 16242, Control_c, 0, 64, 71
1, 16253, Note_off_c, 0, 42, 49
1, 16257, Control_c, 0, 64, 72
1, 16287, Control_c, 0, 64, 72
1, 16400, Note_off_c, 0, 49, 59
1, 16448, Note_on_c, 0, 56, 40
1, 16479, Control_c, 0, 64, 72
1, 16523, Control_c, 0, 64, 71
1, 16575, Control_c, 0, 64, 71
1, 16606, Control_c, 0, 64, 70
1, 16669, Note_off_c, 0, 56, 53
1, 16695, Control_c, 0, 64, 70
1, 16706, Note_on_c, 0, 54, 38
1, 16710, Control_c, 0, 64, 65
1, 16724, Control_c, 0, 64, 0
1, 16815, Note_on_c, 0, 56, 42
1, 16843, Control_c, 0, 64, 13
1, 16845, Note_off_c, 0, 54, 37
1, 16857, Control_c, 0, 64, 38
1, 16872, Control_c, 0, 64, 50
1, 16887, Control_c, 0, 64, 62
1, 16902, Control_c, 0, 64, 64
1, 16917, Control_c, 0, 64, 66
1, 16931, Control_c, 0, 64, 68
1, 16943, Note_off_c, 0, 56, 59
1, 16946, Note_on_c, 0, 58, 42
1, 16946, Control_c, 0, 64, 69
1, 16961, Control_c, 0, 64, 70
1, 16976, Control_c, 0, 64, 71
1, 16990, Control_c, 0, 64, 72
1, 17005, Control_c, 0, 64, 74
1, 17020, Control_c, 0, 64, 75
1, 17035, Control_c, 0, 64, 76
1, 17050, Control_c, 0, 64, 77
1, 17065, Control_c, 0, 64, 78
1, 17148, Note_off_c, 0, 58, 51
1, 17183, Note_on_c, 0, 61, 44
1, 17221, Note_off_c, 0, 61, 55
1, 17228, Control_c, 0, 64, 77
1, 17339, Control_c, 0, 64, 77
1, 17462, Note_on_c, 0, 42, 45
1, 17473, Control_c, 0, 64, 76
1, 17488, Control_c, 0, 64, 72
1, 17503, Control_c, 0, 64, 64
1, 17518, Control_c, 0, 64, 0
1, 17592, Control_c, 0, 64, 48
1, 17606, Control_c, 0, 64, 64
1, 17621, Control_c, 0, 64, 65
1, 17636, Control_c, 0, 64, 66
1, 17651, Control_c, 0, 64, 68
1, 17666, Control_c, 0, 64, 70
1, 17680, Control_c, 0, 64, 71
1, 17695, Control_c, 0, 64, 73
1, 17710, Note_on_c, 0, 49, 49
1, 17710, Control_c, 0, 64, 74
1, 17724, Control_c, 0, 64, 75
1, 17739, Control_c, 0, 64, 75
1, 17754, Control_c, 0, 64, 76
1, 17769, Control_c, 0, 64, 76
1, 17780, Note_off_c, 0, 42, 53
1, 17798, Control_c, 0, 64, 77
1, 17956, Note_off_c, 0, 49, 61
1, 17966, Note_on_c, 0, 56, 53
1, 18162, Control_c, 0, 64, 76
1, 18237, Control_c, 0, 64, 76
1, 18246, Note_off_c, 0, 56, 56
1, 18282, Control_c, 0, 64, 75
1, 18306, Note_on_c, 0, 73, 67
1, 18311, Control_c, 0, 64, 75
1, 18320, Note_on_c, 0, 54, 29
1, 18322, Note_on_c, 0, 70, 40
1, 18356, Control_c, 0, 64, 73
1, 18371, Control_c, 0, 64, 68
1, 18386, Control_c, 0, 64, 0
1, 18489, Note_on_c, 0, 56, 46
1, 18494, Note_off_c, 0, 54, 42
1, 18548, Control_c, 0, 64, 63
1, 18563, Control_c, 0, 64, 66
1, 18574, Note_off_c, 0, 56, 63
1, 18578, Control_c, 0, 64, 68
1, 18584, Note_off_c, 0, 70, 38
1, 18593, Control_c, 0, 64, 69
1, 18603, Note_on_c, 0, 58, 50
1, 18608, Control_c, 0, 64, 70
1, 18622, Control_c, 0, 64, 71
1, 18637, Control_c, 0, 64, 71
1, 18821, Note_off_c, 0, 58, 54
1, 18862, Note_on_c, 0, 49, 56
1, 18911, Control_c, 0, 64, 71
1, 19060, Control_c, 0, 64, 70
1, 19075, Control_c, 0, 64, 68
1, 19088, Note_on_c, 0, 42, 57
1, 19090, Control_c, 0, 64, 63
1, 19094, Note_off_c, 0, 49, 60
1, 19104, Control_c, 0, 64, 0
1, 19193, Control_c, 0, 64, 55
1, 19208, Control_c, 0, 64, 64
1, 19223, Control_c, 0, 64, 64
1, 19238, Control_c, 0, 64, 65
1, 19253, Control_c, 0, 64, 66
1, 19268, Control_c, 0, 64, 67
1, 19283, Control_c, 0, 64, 68
1, 19297, Control_c, 0, 64, 69
1, 19327, Control_c, 0, 64, 69
1, 19342, Control_c, 0, 64, 70
1, 19357, Control_c, 0, 64, 70
1, 19370, Note_on_c, 0, 69, 35
1, 19371, Control_c, 0, 64, 71
1, 19372, Note_on_c, 0, 72, 66
1, 19384, Note_on_c, 0, 49, 41
1, 19386, Control_c, 0, 64, 71
1, 19401, Control_c, 0, 64, 72
1, 19416, Control_c, 0, 64, 72
1, 19418, Note_off_c, 0, 73, 59
1, 19425, Note_off_c, 0, 42, 53
1, 19445, Control_c, 0, 64, 73
1, 19460, Control_c, 0, 64, 73
1, 19475, Control_c, 0, 64, 74
1, 19489, Control_c, 0, 64, 75
1, 19504, Control_c, 0, 64, 76
1, 19519, Control_c, 0, 64, 76
1, 19534, Control_c, 0, 64, 77
1, 19549, Control_c, 0, 64, 77
1, 19571, Control_c, 0, 64, 78
1, 19586, Control_c, 0, 64, 79
1, 19601, Control_c, 0, 64, 79
1, 19616, Control_c, 0, 64, 80
1, 19645, Control_c, 0, 64, 81
1, 19664, Note_off_c, 0, 49, 59
1, 19688, Control_c, 0, 64, 81
1, 19697, Note_on_c, 0, 73, 71
1, 19703, Note_on_c, 0, 56, 43
1, 19709, Note_on_c, 0, 70, 55
1, 19733, Control_c, 0, 64, 82
1, 19748, Note_off_c, 0, 69, 35
1, 19751, Note_off_c, 0, 72, 59
1, 19797, Note_off_c, 0, 73, 61
1, 19904, Note_off_c, 0, 56, 53
1, 19912, Control_c, 0, 64, 80
1, 19915, Note_on_c, 0, 77, 64
1, 19926, Control_c, 0, 64, 74
1, 19941, Control_c, 0, 64, 64
1, 19948, Note_on_c, 0, 54, 46
1, 19956, Control_c, 0, 64, 0
1, 19959, Note_on_c, 0, 75, 70
1, 19991, Note_off_c, 0, 70, 59
1, 20003, Note_on_c, 0, 71, 13
1, 20007, Note_off_c, 0, 77, 56
1, 20030, Control_c, 0, 64, 59
1, 20045, Control_c, 0, 64, 66
1, 20060, Control_c, 0, 64, 68
1, 20061, Note_off_c, 0, 71, 43
1, 20071, Note_off_c, 0, 54, 55
1, 20073, Note_on_c, 0, 56, 46
1, 20074, Control_c, 0, 64, 70
1, 20089, Control_c, 0, 64, 72
1, 20104, Control_c, 0, 64, 73
1, 20118, Control_c, 0, 64, 74
1, 20133, Control_c, 0, 64, 75
1, 20148, Control_c, 0, 64, 76
1, 20163, Control_c, 0, 64, 77
1, 20178, Control_c, 0, 64, 78
1, 20185, Note_on_c, 0, 73, 75
1, 20192, Control_c, 0, 64, 79
1, 20200, Note_on_c, 0, 58, 56
1, 20207, Note_off_c, 0, 56, 54
1, 20207, Control_c, 0, 64, 79
1, 20215, Note_on_c, 0, 70, 44
1, 20222, Control_c, 0, 64, 80
1, 20227, Note_off_c, 0, 75, 57
1, 20237, Control_c, 0, 64, 81
1, 20242, Note_off_c, 0, 70, 50
1, 20252, Control_c, 0, 64, 81
1, 20266, Control_c, 0, 64, 82
1, 20281, Control_c, 0, 64, 83
1, 20296, Control_c, 0, 64, 84
1, 20318, Control_c, 0, 64, 85
1, 20333, Control_c, 0, 64, 86
1, 20348, Control_c, 0, 64, 87
1, 20363, Control_c, 0, 64, 88
1, 20378, Control_c, 0, 64, 88
1, 20381, Note_off_c, 0, 58, 59
1, 20392, Control_c, 0, 64, 89
1, 20398, Note_on_c, 0, 61, 60
1, 20407, Control_c, 0, 64, 89
1, 20422, Control_c, 0, 64, 90
1, 20429, Note_off_c, 0, 61, 63
1, 20437, Control_c, 0, 64, 91
1, 20439, Note_on_c, 0, 70, 78
1, 20444, Note_on_c, 0, 66, 54
1, 20451, Control_c, 0, 64, 93
1, 20465, Note_off_c, 0, 73, 61
1, 20466, Control_c, 0, 64, 94
1, 20481, Control_c, 0, 64, 96
1, 20630, Control_c, 0, 64, 95
1, 20660, Control_c, 0, 64, 95
1, 20675, Control_c, 0, 64, 94
1, 20690, Control_c, 0, 64, 93
1, 20705, Control_c, 0, 64, 91
1, 20708, Note_on_c, 0, 42, 45
1, 20720, Control_c, 0, 64, 90
1, 20734, Control_c, 0, 64, 90
1, 20749, Control_c, 0, 64, 89
1, 20764, Control_c, 0, 64, 82
1, 20779, Control_c, 0, 64, 67
1, 20780, Note_on_c, 0, 78, 69
1, 20787, Note_on_c, 0, 75, 64
1, 20794, Control_c, 0, 64, 0
1, 20832, Note_off_c, 0, 66, 37
1, 20863, Note_off_c, 0, 70, 58
1, 20912, Control_c, 0, 64, 64
1, 20927, Control_c, 0, 64, 66
1, 20941, Control_c, 0, 64, 68
1, 20956, Control_c, 0, 64, 70
1, 20971, Control_c, 0, 64, 71
1, 20986, Control_c, 0, 64, 73
1, 21001, Control_c, 0, 64, 74
1, 21015, Control_c, 0, 64, 75
1, 21030, Control_c, 0, 64, 76
1, 21045, Control_c, 0, 64, 77
1, 21067, Control_c, 0, 64, 78
1, 21082, Control_c, 0, 64, 78
1, 21097, Control_c, 0, 64, 79
1, 21105, Note_on_c, 0, 70, 64
1, 21107, Note_on_c, 0, 66, 48
1, 21112, Control_c, 0, 64, 79
1, 21116, Note_on_c, 0, 49, 34
1, 21116, Note_off_c, 0, 75, 57
1, 21127, Control_c, 0, 64, 80
1, 21128, Note_off_c, 0, 78, 57
1, 21141, Control_c, 0, 64, 80
1, 21187, Control_c, 0, 64, 81
1, 21235, Note_off_c, 0, 42, 53
1, 21286, Note_off_c, 0, 49, 53
1, 21334, Note_on_c, 0, 75, 65
1, 21334, Note_on_c, 0, 71, 60
1, 21340, Note_on_c, 0, 53, 33
1, 21378, Note_off_c, 0, 70, 49
1, 21484, Control_c, 0, 64, 80
1, 21492, Note_off_c, 0, 53, 58
1, 21498, Control_c, 0, 64, 80
1, 21513, Control_c, 0, 64, 75
1, 21528, Control_c, 0, 64, 65
1, 21539, Note_off_c, 0, 75, 59
1, 21542, Note_off_c, 0, 66, 32
1, 21543, Control_c, 0, 64, 0
1, 21558, Note_on_c, 0, 54, 40
1, 21572, Note_on_c, 0, 70, 49
1, 21573, Note_on_c, 0, 73, 60
1, 21573, Note_off_c, 0, 71, 60
1, 21632, Note_off_c, 0, 70, 57
1, 21632, Control_c, 0, 64, 54
1, 21647, Control_c, 0, 64, 67
1, 21662, Note_off_c, 0, 54, 56
1, 21662, Control_c, 0, 64, 69
1, 21676, Control_c, 0, 64, 70
1, 21681, Note_on_c, 0, 56, 37
1, 21691, Control_c, 0, 64, 71
1, 21706, Control_c, 0, 64, 72
1, 21721, Control_c, 0, 64, 73
1, 21736, Control_c, 0, 64, 73
1, 21750, Note_off_c, 0, 56, 63
1, 21751, Control_c, 0, 64, 74
1, 21780, Control_c, 0, 64, 75
1, 21795, Note_on_c, 0, 58, 43
1, 21795, Control_c, 0, 64, 75
1, 21810, Control_c, 0, 64, 76
1, 21823, Note_off_c, 0, 73, 58
1, 21826, Note_on_c, 0, 61, 40
1, 21826, Note_on_c, 0, 66, 56
1, 21831, Control_c, 0, 64, 76
1, 21846, Control_c, 0, 64, 77
1, 21861, Control_c, 0, 64, 77
1, 21876, Control_c, 0, 64, 78
1, 21906, Control_c, 0, 64, 78
1, 21936, Control_c, 0, 64, 79
1, 21948, Note_off_c, 0, 58, 54
1, 22082, Note_on_c, 0, 49, 36
1, 22088, Note_on_c, 0, 71, 60
1, 22101, Note_on_c, 0, 68, 30
1, 22113, Control_c, 0, 64, 78
1, 22128, Control_c, 0, 64, 78
1, 22147, Note_off_c, 0, 66, 37
1, 22188, Control_c, 0, 64, 77
1, 22218, Control_c, 0, 64, 77
1, 22219, Note_off_c, 0, 68, 52
1, 22233, Control_c, 0, 64, 76
1, 22262, Note_off_c, 0, 61, 33
1, 22292, Control_c, 0, 64, 76
1, 22336, Control_c, 0, 64, 75
1, 22341, Note_on_c, 0, 42, 42
1, 22347, Note_off_c, 0, 49, 37
1, 22351, Control_c, 0, 64, 75
1, 22366, Control_c, 0, 64, 73
1, 22381, Control_c, 0, 64, 70
1, 22387, Note_on_c, 0, 70, 57
1, 22393, Note_on_c, 0, 66, 39
1, 22395, Control_c, 0, 64, 59
1, 22410, Control_c, 0, 64, 0
1, 22418, Note_off_c, 0, 71, 52
1, 22490, Note_off_c, 0, 66, 45
1, 22514, Control_c, 0, 64, 63
1, 22529, Control_c, 0, 64, 67
1, 22544, Control_c, 0, 64, 69
1, 22566, Control_c, 0, 64, 70
1, 22581, Control_c, 0, 64, 72
1, 22595, Control_c, 0, 64, 73
1, 22610, Control_c, 0, 64, 75
1, 22625, Control_c, 0, 64, 76
1, 22637, Note_on_c, 0, 49, 49
1, 22639, Control_c, 0, 64, 77
1, 22654, Control_c, 0, 64, 77
1, 22669, Control_c, 0, 64, 78
1, 22693, Note_off_c, 0, 42, 53
1, 22728, Control_c, 0, 64, 78
1, 22853, Note_off_c, 0, 49, 61
1, 22873, Note_on_c, 0, 56, 46
1, 23071, Note_off_c, 0, 56, 56
1, 23107, Note_on_c, 0, 64, 56
1, 23114, Control_c, 0, 64, 77
1, 23129, Control_c, 0, 64, 71
1, 23135, Note_on_c, 0, 54, 36
1, 23143, Control_c, 0, 64, 48
1, 23158, Control_c, 0, 64, 0
1, 23218, Control_c, 0, 64, 64
1, 23232, Control_c, 0, 64, 68
1, 23234, Note_off_c, 0, 54, 48
1, 23238, Note_on_c, 0, 56, 36
1, 23247, Control_c, 0, 64, 71
1, 23253, Note_off_c, 0, 70, 55
1, 23262, Control_c, 0, 64, 73
1, 23277, Control_c, 0, 64, 77
1, 23292, Control_c, 0, 64, 80
1, 23314, Control_c, 0, 64, 83
1, 23329, Control_c, 0, 64, 86
1, 23343, Control_c, 0, 64, 90
1, 23346, Note_off_c, 0, 64, 63
1, 23358, Control_c, 0, 64, 95
1, 23373, Control_c, 0, 64, 99
1, 23376, Note_on_c, 0, 58, 55
1, 23388, Control_c, 0, 64, 103
1, 23403, Control_c, 0, 64, 107
1, 23417, Control_c, 0, 64, 111
1, 23432, Note_off_c, 0, 56, 37
1, 23432, Control_c, 0, 64, 115
1, 23447, Control_c, 0, 64, 120
1, 23462, Control_c, 0, 64, 127
1, 23606, Note_on_c, 0, 61, 60
1, 23617, Note_off_c, 0, 58, 60
1, 23636, Note_off_c, 0, 61, 63
1, 23700, Note_on_c, 0, 63, 62
1, 23784, Note_on_c, 0, 71, 64
1, 23828, Note_off_c, 0, 63, 60
1, 23981, Control_c, 0, 64, 106
1, 23989, Note_on_c, 0, 42, 58
1, 23996, Control_c, 0, 64, 81
1, 24011, Control_c, 0, 64, 0
1, 24046, Note_on_c, 0, 78, 78
1, 24078, Control_c, 0, 64, 62
1, 24092, Control_c, 0, 64, 69
1, 24107, Control_c, 0, 64, 76
1, 24108, Note_off_c, 0, 71, 60
1, 24122, Control_c, 0, 64, 84
1, 24126, Note_off_c, 0, 42, 59
1, 24137, Control_c, 0, 64, 92
1, 24149, Note_off_c, 0, 78, 62
1, 24152, Control_c, 0, 64, 96
1, 24166, Control_c, 0, 64, 98
1, 24196, Control_c, 0, 64, 101
1, 24210, Control_c, 0, 64, 105
1, 24225, Control_c, 0, 64, 110
1, 24240, Control_c, 0, 64, 117
1, 24255, Control_c, 0, 64, 124
1, 24270, Control_c, 0, 64, 127
1, 24317, Note_on_c, 0, 54, 66
1, 24544, Note_on_c, 0, 61, 66
1, 24548, Note_off_c, 0, 54, 60
1, 24634, Note_on_c, 0, 66, 72
1, 24730, Control_c, 0, 64, 120
1, 24745, Control_c, 0, 64, 115
1, 24760, Control_c, 0, 64, 111
1, 24775, Control_c, 0, 64, 108
1, 24827, Control_c, 0, 64, 106
1, 24828, Note_off_c, 0, 61, 55
1, 24853, Note_on_c, 0, 59, 50
1, 24902, Control_c, 0, 64, 101
1, 24916, Control_c, 0, 64, 86
1, 24924, Note_on_c, 0, 78, 85
1, 24931, Control_c, 0, 64, 68
1, 24932, Note_on_c, 0, 75, 69
1, 24946, Control_c, 0, 64, 0
1, 24976, Note_off_c, 0, 66, 49
1, 25034, Control_c, 0, 64, 67
1, 25049, Control_c, 0, 64, 70
1, 25055, Note_on_c, 0, 61, 48
1, 25056, Note_off_c, 0, 59, 47
1, 25064, Control_c, 0, 64, 73
1, 25079, Control_c, 0, 64, 75
1, 25094, Control_c, 0, 64, 78
1, 25108, Control_c, 0, 64, 82
1, 25123, Control_c, 0, 64, 85
1, 25138, Control_c, 0, 64, 88
1, 25153, Note_off_c, 0, 61, 61
1, 25153, Control_c, 0, 64, 91
1, 25168, Control_c, 0, 64, 93
1, 25182, Control_c, 0, 64, 95
1, 25185, Note_off_c, 0, 75, 55
1, 25191, Note_on_c, 0, 63, 67
1, 25197, Control_c, 0, 64, 97
1, 25212, Control_c, 0, 64, 100
1, 25227, Control_c, 0, 64, 103
1, 25242, Control_c, 0, 64, 106
1, 25257, Control_c, 0, 64, 110
1, 25271, Control_c, 0, 64, 114
1, 25286, Control_c, 0, 64, 119
1, 25301, Control_c, 0, 64, 122
1, 25313, Note_off_c, 0, 63, 61
1, 25316, Control_c, 0, 64, 124
1, 25426, Note_on_c, 0, 54, 67
1, 25457, Note_off_c, 0, 54, 63
1, 25606, Control_c, 0, 64, 119
1, 25620, Control_c, 0, 64, 97
1, 25635, Control_c, 0, 64, 75
1, 25650, Control_c, 0, 64, 0
1, 25667, Note_on_c, 0, 42, 68
1, 25710, Control_c, 0, 64, 65
1, 25725, Control_c, 0, 64, 72
1, 25739, Control_c, 0, 64, 79
1, 25754, Control_c, 0, 64, 86
1, 25760, Note_off_c, 0, 42, 61
1, 25769, Control_c, 0, 64, 92
1, 25783, Control_c, 0, 64, 97
1, 25798, Control_c, 0, 64, 101
1, 25813, Control_c, 0, 64, 106
1, 25828, Control_c, 0, 64, 109
1, 25857, Control_c, 0, 64, 111
1, 25902, Control_c, 0, 64, 113
1, 25917, Control_c, 0, 64, 117
1, 25925, Note_on_c, 0, 77, 79
1, 25931, Control_c, 0, 64, 123
1, 25936, Note_on_c, 0, 74, 60
1, 25946, Control_c, 0, 64, 127
1, 25951, Note_on_c, 0, 54, 54
1, 25955, Note_off_c, 0, 78, 59
1, 26166, Note_off_c, 0, 54, 55
1, 26181, Note_on_c, 0, 78, 78
1, 26189, Note_on_c, 0, 61, 59
1, 26189, Note_on_c, 0, 75, 69
1, 26193, Note_off_c, 0, 74, 61
1, 26213, Note_off_c, 0, 77, 59
1, 26273, Note_off_c, 0, 78, 61
1, 26369, Control_c, 0, 64, 115
1, 26384, Control_c, 0, 64, 109
1, 26398, Control_c, 0, 64, 105
1, 26413, Control_c, 0, 64, 103
1, 26435, Note_off_c, 0, 61, 55
1, 26445, Note_on_c, 0, 82, 64
1, 26465, Note_off_c, 0, 75, 61
1, 26466, Note_on_c, 0, 59, 49
1, 26467, Note_on_c, 0, 80, 77
1, 26473, Control_c, 0, 64, 97
1, 26485, Note_on_c, 0, 77, 47
1, 26487, Control_c, 0, 64, 78
1, 26502, Control_c, 0, 64, 0
1, 26533, Note_off_c, 0, 77, 0
1, 26533, Note_on_c, 0, 77, 10
1, 26535, Note_off_c, 0, 82, 58
1, 26576, Control_c, 0, 64, 56
1, 26589, Note_on_c, 0, 61, 54
1, 26591, Control_c, 0, 64, 68
1, 26604, Note_off_c, 0, 59, 50
1, 26605, Control_c, 0, 64, 72
1, 26620, Control_c, 0, 64, 75
1, 26635, Control_c, 0, 64, 79
1, 26645, Note_off_c, 0, 77, 39
1, 26650, Control_c, 0, 64, 82
1, 26665, Control_c, 0, 64, 85
1, 26679, Control_c, 0, 64, 88
1, 26694, Control_c, 0, 64, 91
1, 26703, Note_on_c, 0, 78, 83
1, 26708, Note_on_c, 0, 75, 68
1, 26709, Control_c, 0, 64, 94
1, 26710, Note_on_c, 0, 63, 64
1, 26724, Control_c, 0, 64, 98
1, 26728, Note_off_c, 0, 80, 61
1, 26739, Control_c, 0, 64, 101
1, 26750, Note_off_c, 0, 75, 53
1, 26753, Control_c, 0, 64, 104
1, 26768, Control_c, 0, 64, 106
1, 26783, Control_c, 0, 64, 110
1, 26798, Control_c, 0, 64, 115
1, 26813, Control_c, 0, 64, 127
1, 26883, Note_off_c, 0, 61, 28
1, 26940, Note_on_c, 0, 66, 56
1, 26960, Note_off_c, 0, 63, 60
1, 26960, Note_off_c, 0, 66, 63
1, 26968, Note_on_c, 0, 71, 65
1, 26974, Note_on_c, 0, 75, 82
1, 26994, Note_off_c, 0, 78, 61
1, 27266, Control_c, 0, 64, 121
1, 27328, Note_on_c, 0, 42, 45
1, 27340, Control_c, 0, 64, 114
1, 27355, Control_c, 0, 64, 92
1, 27361, Note_on_c, 0, 83, 64
1, 27370, Control_c, 0, 64, 72
1, 27371, Note_on_c, 0, 80, 65
1, 27384, Control_c, 0, 64, 0
1, 27421, Note_off_c, 0, 71, 55
1, 27455, Note_off_c, 0, 75, 52
1, 27458, Control_c, 0, 64, 65
1, 27473, Control_c, 0, 64, 69
1, 27488, Control_c, 0, 64, 73
1, 27498, Note_off_c, 0, 42, 60
1, 27502, Control_c, 0, 64, 76
1, 27517, Control_c, 0, 64, 80
1, 27532, Control_c, 0, 64, 82
1, 27547, Control_c, 0, 64, 84
1, 27561, Control_c, 0, 64, 86
1, 27576, Control_c, 0, 64, 87
1, 27591, Control_c, 0, 64, 89
1, 27606, Control_c, 0, 64, 91
1, 27621, Control_c, 0, 64, 94
1, 27635, Control_c, 0, 64, 95
1, 27665, Control_c, 0, 64, 98
1, 27710, Control_c, 0, 64, 100
1, 27760, Note_off_c, 0, 80, 50
1, 27766, Note_on_c, 0, 75, 65
1, 27775, Note_on_c, 0, 71, 57
1, 27779, Note_on_c, 0, 54, 40
1, 27785, Control_c, 0, 64, 102
1, 27786, Note_off_c, 0, 83, 36
1, 27849, Note_off_c, 0, 75, 60
1, 28017, Note_off_c, 0, 54, 38
1, 28018, Note_on_c, 0, 77, 66
1, 28033, Note_on_c, 0, 73, 54
1, 28044, Note_on_c, 0, 61, 43
1, 28091, Note_off_c, 0, 71, 55
1, 28207, Control_c, 0, 64, 100
1, 28222, Control_c, 0, 64, 86
1, 28237, Note_off_c, 0, 61, 52
1, 28237, Control_c, 0, 64, 69
1, 28246, Note_off_c, 0, 77, 55
1, 28251, Control_c, 0, 64, 0
1, 28256, Note_off_c, 0, 73, 58
1, 28259, Note_on_c, 0, 59, 37
1, 28264, Note_on_c, 0, 78, 60
1, 28274, Note_on_c, 0, 75, 53
1, 28325, Control_c, 0, 64, 65
1, 28340, Control_c, 0, 64, 70
1, 28355, Control_c, 0, 64, 74
1, 28369, Note_off_c, 0, 59, 35
1, 28370, Control_c, 0, 64, 78
1, 28378, Note_off_c, 0, 75, 58
1, 28382, Note_on_c, 0, 61, 35
1, 28384, Control_c, 0, 64, 82
1, 28399, Control_c, 0, 64, 84
1, 28414, Control_c, 0, 64, 86
1, 28429, Control_c, 0, 64, 88
1, 28443, Note_off_c, 0, 61, 61
1, 28444, Control_c, 0, 64, 91
1, 28458, Control_c, 0, 64, 93
1, 28473, Control_c, 0, 64, 96
1, 28487, Note_on_c, 0, 63, 51
1, 28488, Control_c, 0, 64, 98
1, 28501, Note_on_c, 0, 66, 41
1, 28502, Note_on_c, 0, 71, 46
1, 28503, Control_c, 0, 64, 101
1, 28518, Control_c, 0, 64, 105
1, 28533, Control_c, 0, 64, 109
1, 28554, Note_off_c, 0, 66, 48
1, 28555, Control_c, 0, 64, 114
1, 28570, Control_c, 0, 64, 123
1, 28586, Control_c, 0, 64, 127
1, 28590, Note_off_c, 0, 63, 60
1, 28747, Note_on_c, 0, 54, 44
1, 28771, Note_on_c, 0, 72, 65
1, 28772, Note_off_c, 0, 54, 59
1, 28786, Note_on_c, 0, 69, 47
1, 28798, Note_off_c, 0, 78, 45
1, 28842, Note_off_c, 0, 71, 35
1, 28967, Note_off_c, 0, 69, 33
1, 29048, Note_on_c, 0, 42, 38
1, 29060, Control_c, 0, 64, 111
1, 29072, Note_on_c, 0, 75, 59
1, 29075, Control_c, 0, 64, 92
1, 29090, Control_c, 0, 64, 73
1, 29095, Note_on_c, 0, 71, 41
1, 29105, Control_c, 0, 64, 0
1, 29111, Note_off_c, 0, 72, 51
1, 29185, Note_off_c, 0, 71, 28
1, 29193, Control_c, 0, 64, 64
1, 29208, Control_c, 0, 64, 69
1, 29223, Control_c, 0, 64, 72
1, 29238, Control_c, 0, 64, 75
1, 29253, Control_c, 0, 64, 77
1, 29268, Control_c, 0, 64, 79
1, 29282, Control_c, 0, 64, 80
1, 29305, Control_c, 0, 64, 82
1, 29319, Control_c, 0, 64, 84
1, 29334, Control_c, 0, 64, 85
1, 29349, Control_c, 0, 64, 85
1, 29364, Control_c, 0, 64, 86
1, 29379, Control_c, 0, 64, 86
1, 29388, Note_off_c, 0, 75, 58
1, 29394, Control_c, 0, 64, 87
1, 29406, Note_on_c, 0, 73, 59
1, 29408, Note_on_c, 0, 49, 36
1, 29409, Control_c, 0, 64, 89
1, 29424, Control_c, 0, 64, 90
1, 29439, Control_c, 0, 64, 91
1, 29454, Control_c, 0, 64, 92
1, 29457, Note_on_c, 0, 70, 16
1, 29469, Control_c, 0, 64, 93
1, 29483, Control_c, 0, 64, 94
1, 29497, Note_off_c, 0, 70, 51
1, 29498, Control_c, 0, 64, 95
1, 29513, Note_off_c, 0, 42, 28
1, 29528, Control_c, 0, 64, 97
1, 29587, Control_c, 0, 64, 99
1, 29631, Note_off_c, 0, 49, 39
1, 29636, Note_on_c, 0, 61, 56
1, 29672, Note_on_c, 0, 56, 28
1, 29853, Note_off_c, 0, 56, 39
1, 29928, Control_c, 0, 64, 96
1, 29931, Note_on_c, 0, 54, 37
1, 29943, Control_c, 0, 64, 87
1, 29951, Note_on_c, 0, 70, 63
1, 29957, Control_c, 0, 64, 73
1, 29960, Note_on_c, 0, 66, 38
1, 29960, Note_off_c, 0, 61, 50
1, 29972, Control_c, 0, 64, 0
1, 30026, Note_off_c, 0, 73, 57
1, 30031, Control_c, 0, 64, 51
1, 30053, Control_c, 0, 64, 67
1, 30068, Control_c, 0, 64, 71
1, 30083, Control_c, 0, 64, 75
1, 30098, Control_c, 0, 64, 80
1, 30099, Note_on_c, 0, 56, 38
1, 30112, Control_c, 0, 64, 83
1, 30114, Note_off_c, 0, 54, 39
1, 30127, Control_c, 0, 64, 85
1, 30142, Control_c, 0, 64, 88
1, 30157, Control_c, 0, 64, 91
1, 30172, Control_c, 0, 64, 96
1, 30187, Control_c, 0, 64, 100
1, 30193, Note_off_c, 0, 56, 63
1, 30202, Control_c, 0, 64, 105
1, 30217, Control_c, 0, 64, 111
1, 30219, Note_on_c, 0, 58, 59
1, 30226, Note_off_c, 0, 66, 39
1, 30232, Control_c, 0, 64, 123
1, 30247, Control_c, 0, 64, 127
1, 30266, Note_off_c, 0, 58, 57
1, 30547, Note_on_c, 0, 41, 49
1, 30631, Note_on_c, 0, 68, 66
1, 30632, Note_on_c, 0, 62, 51
1, 30706, Note_off_c, 0, 62, 63
1, 30715, Note_off_c, 0, 70, 34
1, 30768, Note_off_c, 0, 41, 59
1, 30771, Note_off_c, 0, 68, 62
1, 30911, Note_on_c, 0, 70, 63
1, 30926, Note_on_c, 0, 63, 39
1, 30978, Note_off_c, 0, 63, 0
1, 30978, Note_on_c, 0, 63, 5
1, 30989, Poly_aftertouch_c, 0, 66, 127
1, 31025, Control_c, 0, 64, 114
1, 31031, Poly_aftertouch_c, 0, 66, 0
1, 31039, Control_c, 0, 64, 108
1, 31045, Note_off_c, 0, 63, 53
1, 31054, Control_c, 0, 64, 106
1, 31069, Control_c, 0, 64, 103
1, 31084, Control_c, 0, 64, 101
1, 31114, Control_c, 0, 64, 98
1, 31136, Note_on_c, 0, 39, 41
1, 31188, Control_c, 0, 64, 96
1, 31202, Control_c, 0, 64, 87
1, 31217, Control_c, 0, 64, 72
1, 31232, Control_c, 0, 64, 0
1, 31248, Note_on_c, 0, 78, 66
1, 31286, Note_off_c, 0, 70, 60
1, 31306, Control_c, 0, 64, 67
1, 31320, Control_c, 0, 64, 73
1, 31335, Control_c, 0, 64, 77
1, 31350, Control_c, 0, 64, 81
1, 31355, Note_off_c, 0, 78, 56
1, 31365, Control_c, 0, 64, 85
1, 31380, Control_c, 0, 64, 89
1, 31394, Control_c, 0, 64, 92
1, 31409, Control_c, 0, 64, 94
1, 31424, Control_c, 0, 64, 98
1, 31439, Control_c, 0, 64, 101
1, 31454, Control_c, 0, 64, 105
1, 31469, Control_c, 0, 64, 108
1, 31484, Control_c, 0, 64, 113
1, 31499, Control_c, 0, 64, 120
1, 31507, Note_off_c, 0, 39, 60
1, 31513, Control_c, 0, 64, 127
1, 31573, Note_on_c, 0, 46, 47
1, 31797, Note_off_c, 0, 46, 58
1, 31824, Note_on_c, 0, 56, 46
1, 32079, Note_off_c, 0, 56, 38
1, 32100, Note_on_c, 0, 54, 40
1, 32107, Note_on_c, 0, 78, 68
1, 32114, Note_on_c, 0, 70, 55
1, 32130, Control_c, 0, 64, 119
1, 32144, Control_c, 0, 64, 98
1, 32159, Control_c, 0, 64, 80
1, 32174, Control_c, 0, 64, 65
1, 32189, Control_c, 0, 64, 0
1, 32261, Note_on_c, 0, 56, 40
1, 32263, Control_c, 0, 64, 65
1, 32267, Note_off_c, 0, 54, 46
1, 32278, Control_c, 0, 64, 67
1, 32300, Control_c, 0, 64, 69
1, 32315, Control_c, 0, 64, 71
1, 32322, Note_off_c, 0, 56, 63
1, 32330, Control_c, 0, 64, 73
1, 32345, Control_c, 0, 64, 75
1, 32349, Note_off_c, 0, 70, 56
1, 32357, Note_on_c, 0, 58, 56
1, 32359, Control_c, 0, 64, 76
1, 32374, Control_c, 0, 64, 78
1, 32389, Control_c, 0, 64, 79
1, 32404, Control_c, 0, 64, 80
1, 32419, Control_c, 0, 64, 81
1, 32433, Control_c, 0, 64, 82
1, 32463, Control_c, 0, 64, 82
1, 32477, Control_c, 0, 64, 83
1, 32492, Control_c, 0, 64, 84
1, 32537, Note_off_c, 0, 58, 47
1, 32656, Control_c, 0, 64, 84
1, 32701, Control_c, 0, 64, 85
1, 32745, Control_c, 0, 64, 85
1, 32789, Control_c, 0, 64, 86
1, 32834, Control_c, 0, 64, 86
1, 32864, Control_c, 0, 64, 87
1, 32903, Note_on_c, 0, 39, 60
1, 32923, Control_c, 0, 64, 86
1, 32938, Control_c, 0, 64, 83
1, 32953, Control_c, 0, 64, 74
1, 32967, Control_c, 0, 64, 0
1, 33012, Control_c, 0, 64, 62
1, 33027, Control_c, 0, 64, 66
1, 33037, Note_off_c, 0, 78, 59
1, 33042, Control_c, 0, 64, 69
1, 33061, Note_on_c, 0, 80, 59
1, 33064, Control_c, 0, 64, 71
1, 33078, Control_c, 0, 64, 72
1, 33082, Note_on_c, 0, 71, 44
1, 33093, Control_c, 0, 64, 73
1, 33119, Note_off_c, 0, 71, 50
1, 33123, Control_c, 0, 64, 73
1, 33138, Control_c, 0, 64, 74
1, 33153, Control_c, 0, 64, 75
1, 33159, Note_on_c, 0, 78, 74
1, 33168, Control_c, 0, 64, 77
1, 33169, Note_on_c, 0, 70, 50
1, 33175, Note_off_c, 0, 39, 60
1, 33182, Note_on_c, 0, 46, 47
1, 33182, Control_c, 0, 64, 78
1, 33197, Control_c, 0, 64, 79
1, 33212, Control_c, 0, 64, 80
1, 33227, Control_c, 0, 64, 82
1, 33242, Control_c, 0, 64, 83
1, 33256, Control_c, 0, 64, 84
1, 33260, Note_off_c, 0, 70, 56
1, 33290, Note_off_c, 0, 78, 61
1, 33392, Note_off_c, 0, 46, 59
1, 33451, Note_on_c, 0, 68, 51
1, 33455, Note_on_c, 0, 77, 66
1, 33472, Note_on_c, 0, 56, 41
1, 33494, Control_c, 0, 64, 84
1, 33533, Note_off_c, 0, 56, 0
1, 33560, Note_on_c, 0, 56, 5
1, 33565, Note_off_c, 0, 77, 47
1, 33591, Note_off_c, 0, 68, 38
1, 33642, Note_off_c, 0, 56, 39
1, 33672, Control_c, 0, 64, 82
1, 33687, Control_c, 0, 64, 73
1, 33701, Control_c, 0, 64, 30
1, 33704, Note_on_c, 0, 50, 40
1, 33707, Note_on_c, 0, 77, 67
1, 33712, Note_on_c, 0, 68, 48
1, 33716, Control_c, 0, 64, 0
1, 33717, Note_off_c, 0, 80, 57
1, 33827, Control_c, 0, 64, 66
1, 33842, Control_c, 0, 64, 68
1, 33867, Note_off_c, 0, 68, 53
1, 33872, Control_c, 0, 64, 68
1, 33880, Note_on_c, 0, 70, 46
1, 33880, Note_off_c, 0, 77, 58
1, 33885, Control_c, 0, 64, 69
1, 33893, Note_on_c, 0, 78, 60
1, 33900, Control_c, 0, 64, 69
1, 33906, Note_off_c, 0, 70, 57
1, 33909, Note_on_c, 0, 59, 5
1, 33912, Note_off_c, 0, 50, 31
1, 33915, Control_c, 0, 64, 70
1, 33929, Control_c, 0, 64, 71
1, 33944, Control_c, 0, 64, 71
1, 33959, Control_c, 0, 64, 72
1, 33963, Note_off_c, 0, 59, 46
1, 33974, Control_c, 0, 64, 73
1, 33977, Note_on_c, 0, 77, 66
1, 33989, Control_c, 0, 64, 74
1, 33997, Note_on_c, 0, 58, 38
1, 33997, Note_off_c, 0, 78, 41
1, 33999, Note_on_c, 0, 68, 31
1, 34003, Control_c, 0, 64, 77
1, 34018, Control_c, 0, 64, 79
1, 34028, Note_off_c, 0, 58, 57
1, 34033, Control_c, 0, 64, 80
1, 34048, Control_c, 0, 64, 80
1, 34062, Note_off_c, 0, 68, 41
1, 34063, Control_c, 0, 64, 81
1, 34077, Control_c, 0, 64, 82
1, 34092, Control_c, 0, 64, 83
1, 34107, Control_c, 0, 64, 84
1, 34122, Control_c, 0, 64, 85
1, 34137, Control_c, 0, 64, 86
1, 34152, Control_c, 0, 64, 87
1, 34167, Control_c, 0, 64, 88
1, 34182, Control_c, 0, 64, 89
1, 34197, Control_c, 0, 64, 90
1, 34212, Control_c, 0, 64, 91
1, 34226, Control_c, 0, 64, 92
1, 34256, Control_c, 0, 64, 93
1, 34264, Note_off_c, 0, 77, 32
1, 34271, Control_c, 0, 64, 94
1, 34280, Note_on_c, 0, 66, 51
1, 34286, Control_c, 0, 64, 96
1, 34290, Note_on_c, 0, 75, 51
1, 34295, Note_on_c, 0, 46, 46
1, 34301, Control_c, 0, 64, 98
1, 34315, Control_c, 0, 64, 100
1, 34328, Note_off_c, 0, 46, 61
1, 34334, Note_off_c, 0, 75, 63
1, 34360, Control_c, 0, 64, 102
1, 34387, Note_off_c, 0, 66, 55
1, 34390, Control_c, 0, 64, 105
1, 34419, Control_c, 0, 64, 107
1, 34656, Note_on_c, 0, 39, 27
1, 34660, Note_on_c, 0, 66, 58
1, 34678, Control_c, 0, 64, 103
1, 34683, Note_on_c, 0, 75, 40
1, 34693, Control_c, 0, 64, 93
1, 34708, Control_c, 0, 64, 76
1, 34723, Control_c, 0, 64, 63
1, 34738, Control_c, 0, 64, 0
1, 34797, Control_c, 0, 64, 63
1, 34812, Control_c, 0, 64, 68
1, 34826, Control_c, 0, 64, 70
1, 34841, Control_c, 0, 64, 72
1, 34856, Control_c, 0, 64, 74
1, 34870, Control_c, 0, 64, 75
1, 34885, Control_c, 0, 64, 76
1, 34900, Control_c, 0, 64, 77
1, 34915, Control_c, 0, 64, 79
1, 34930, Control_c, 0, 64, 81
1, 34944, Control_c, 0, 64, 81
1, 34959, Note_on_c, 0, 65, 60
1, 34983, Note_on_c, 0, 46, 42
1, 34990, Control_c, 0, 64, 82
1, 35005, Control_c, 0, 64, 84
1, 35007, Note_off_c, 0, 39, 62
1, 35020, Control_c, 0, 64, 86
1, 35035, Control_c, 0, 64, 88
1, 35049, Control_c, 0, 64, 89
1, 35054, Note_off_c, 0, 66, 38
1, 35058, Note_off_c, 0, 75, 58
1, 35064, Control_c, 0, 64, 90
1, 35079, Control_c, 0, 64, 90
1, 35094, Control_c, 0, 64, 92
1, 35109, Control_c, 0, 64, 94
1, 35123, Control_c, 0, 64, 96
1, 35150, Note_off_c, 0, 46, 56
1, 35198, Control_c, 0, 64, 98
1, 35216, Note_on_c, 0, 56, 45
1, 35265, Note_off_c, 0, 56, 0
1, 35300, Note_on_c, 0, 56, 26
1, 35307, Note_on_c, 0, 63, 61
1, 35365, Note_off_c, 0, 56, 47
1, 35383, Note_off_c, 0, 63, 58
1, 35451, Note_on_c, 0, 63, 47
1, 35454, Note_on_c, 0, 54, 43
1, 35472, Control_c, 0, 64, 95
1, 35487, Note_on_c, 0, 70, 46
1, 35487, Note_off_c, 0, 65, 36
1, 35487, Control_c, 0, 64, 84
1, 35502, Control_c, 0, 64, 70
1, 35517, Control_c, 0, 64, 0
1, 35562, Control_c, 0, 64, 51
1, 35576, Control_c, 0, 64, 66
1, 35591, Control_c, 0, 64, 70
1, 35597, Note_on_c, 0, 56, 33
1, 35598, Note_off_c, 0, 54, 33
1, 35606, Control_c, 0, 64, 74
1, 35621, Control_c, 0, 64, 79
1, 35636, Control_c, 0, 64, 84
1, 35650, Control_c, 0, 64, 86
1, 35654, Note_off_c, 0, 56, 64
1, 35665, Control_c, 0, 64, 88
1, 35680, Control_c, 0, 64, 89
1, 35681, Note_off_c, 0, 63, 58
1, 35694, Control_c, 0, 64, 92
1, 35709, Control_c, 0, 64, 94
1, 35722, Note_on_c, 0, 58, 48
1, 35724, Control_c, 0, 64, 97
1, 35739, Control_c, 0, 64, 99
1, 35754, Control_c, 0, 64, 101
1, 35785, Control_c, 0, 64, 104
1, 35793, Note_off_c, 0, 58, 60
1, 35814, Control_c, 0, 64, 106
1, 35973, Note_on_c, 0, 46, 38
1, 35985, Note_on_c, 0, 59, 55
1, 36031, Note_off_c, 0, 70, 41
1, 36107, Note_off_c, 0, 46, 31
1, 36261, Note_on_c, 0, 39, 48
1, 36265, Control_c, 0, 64, 98
1, 36280, Control_c, 0, 64, 83
1, 36282, Note_on_c, 0, 58, 59
1, 36295, Control_c, 0, 64, 67
1, 36303, Note_off_c, 0, 59, 51
1, 36310, Control_c, 0, 64, 0
1, 36369, Control_c, 0, 64, 67
1, 36384, Control_c, 0, 64, 72
1, 36399, Control_c, 0, 64, 76
1, 36414, Control_c, 0, 64, 81
1, 36429, Control_c, 0, 64, 86
1, 36443, Control_c, 0, 64, 91
1, 36451, Note_off_c, 0, 58, 58
1, 36458, Control_c, 0, 64, 96
1, 36473, Control_c, 0, 64, 101
1, 36488, Control_c, 0, 64, 109
1, 36503, Control_c, 0, 64, 127
1, 36537, Note_on_c, 0, 46, 56
1, 36585, Note_off_c, 0, 39, 51
1, 36783, Note_on_c, 0, 54, 58
1, 36806, Note_off_c, 0, 46, 58
1, 36843, Note_off_c, 0, 54, 55
1, 37081, Note_on_c, 0, 39, 46
1, 37098, Note_on_c, 0, 60, 51
1, 37120, Note_on_c, 0, 68, 51
1, 37132, Control_c, 0, 64, 86
1, 37147, Control_c, 0, 64, 67
1, 37162, Control_c, 0, 64, 0
1, 37190, Note_off_c, 0, 68, 62
1, 37207, Note_off_c, 0, 60, 55
1, 37216, Note_on_c, 0, 70, 55
1, 37236, Control_c, 0, 64, 63
1, 37242, Note_off_c, 0, 70, 63
1, 37251, Control_c, 0, 64, 66
1, 37265, Control_c, 0, 64, 69
1, 37275, Note_on_c, 0, 68, 51
1, 37280, Control_c, 0, 64, 71
1, 37295, Control_c, 0, 64, 74
1, 37298, Note_off_c, 0, 68, 61
1, 37308, Note_on_c, 0, 70, 71
1, 37310, Control_c, 0, 64, 77
1, 37325, Control_c, 0, 64, 79
1, 37339, Control_c, 0, 64, 81
1, 37340, Note_off_c, 0, 70, 58
1, 37354, Control_c, 0, 64, 82
1, 37366, Note_on_c, 0, 68, 69
1, 37370, Control_c, 0, 64, 83
1, 37385, Control_c, 0, 64, 85
1, 37389, Note_off_c, 0, 68, 58
1, 37400, Control_c, 0, 64, 86
1, 37415, Control_c, 0, 64, 89
1, 37430, Control_c, 0, 64, 91
1, 37444, Control_c, 0, 64, 93
1, 37459, Control_c, 0, 64, 94
1, 37474, Control_c, 0, 64, 95
1, 37481, Note_on_c, 0, 67, 61
1, 37503, Control_c, 0, 64, 98
1, 37508, Note_on_c, 0, 44, 54
1, 37517, Note_off_c, 0, 39, 34
1, 37541, Control_c, 0, 64, 101
1, 37600, Control_c, 0, 64, 103
1, 37660, Note_on_c, 0, 68, 68
1, 37727, Note_off_c, 0, 67, 36
1, 37768, Note_on_c, 0, 54, 53
1, 37768, Note_on_c, 0, 72, 73
1, 37791, Note_off_c, 0, 68, 62
1, 37835, Note_off_c, 0, 54, 56
1, 37839, Note_off_c, 0, 44, 33
1, 37880, Note_on_c, 0, 70, 74
1, 37938, Note_off_c, 0, 72, 58
1, 38000, Control_c, 0, 64, 90
1, 38015, Control_c, 0, 64, 73
1, 38030, Control_c, 0, 64, 0
1, 38034, Note_on_c, 0, 41, 49
1, 38065, Note_on_c, 0, 68, 66
1, 38069, Note_off_c, 0, 70, 62
1, 38076, Note_on_c, 0, 61, 50
1, 38088, Control_c, 0, 64, 65
1, 38103, Control_c, 0, 64, 71
1, 38118, Control_c, 0, 64, 78
1, 38133, Control_c, 0, 64, 85
1, 38148, Control_c, 0, 64, 93
1, 38155, Note_off_c, 0, 61, 58
1, 38164, Control_c, 0, 64, 102
1, 38179, Control_c, 0, 64, 113
1, 38193, Control_c, 0, 64, 127
1, 38224, Note_off_c, 0, 68, 62
1, 38274, Note_off_c, 0, 41, 35
1, 38317, Note_on_c, 0, 49, 71
1, 38559, Note_on_c, 0, 73, 81
1, 38563, Note_on_c, 0, 56, 67
1, 38662, Note_off_c, 0, 56, 61
1, 38683, Note_off_c, 0, 49, 26
1, 38784, Note_off_c, 0, 73, 61
1, 38831, Note_on_c, 0, 42, 63
1, 38840, Note_on_c, 0, 73, 81
1, 38852, Control_c, 0, 64, 101
1, 38855, Note_on_c, 0, 70, 63
1, 38867, Control_c, 0, 64, 73
1, 38882, Control_c, 0, 64, 0
1, 38926, Control_c, 0, 64, 65
1, 38941, Control_c, 0, 64, 74
1, 38957, Control_c, 0, 64, 88
1, 38972, Control_c, 0, 64, 106
1, 38987, Control_c, 0, 64, 127
1, 39047, Note_off_c, 0, 42, 58
1, 39064, Note_off_c, 0, 70, 61
1, 39091, Note_on_c, 0, 49, 72
1, 39091, Note_off_c, 0, 73, 61
1, 39314, Note_on_c, 0, 73, 81
1, 39315, Note_on_c, 0, 61, 70
1, 39342, Note_off_c, 0, 61, 63
1, 39528, Note_off_c, 0, 73, 60
1, 39533, Note_off_c, 0, 49, 52
1, 39587, Control_c, 0, 64, 112
1, 39589, Note_on_c, 0, 44, 59
1, 39592, Note_on_c, 0, 65, 62
1, 39594, Note_on_c, 0, 73, 86
1, 39602, Control_c, 0, 64, 81
1, 39616, Control_c, 0, 64, 51
1, 39631, Control_c, 0, 64, 0
1, 39675, Control_c, 0, 64, 61
1, 39690, Control_c, 0, 64, 71
1, 39705, Control_c, 0, 64, 77
1, 39720, Control_c, 0, 64, 84
1, 39735, Control_c, 0, 64, 92
1, 39750, Control_c, 0, 64, 98
1, 39765, Control_c, 0, 64, 104
1, 39788, Control_c, 0, 64, 113
1, 39803, Control_c, 0, 64, 127
1, 39803, Note_off_c, 0, 73, 62
1, 39841, Note_on_c, 0, 49, 73
1, 39841, Note_off_c, 0, 44, 62
1, 40062, Note_on_c, 0, 61, 66
1, 40073, Note_on_c, 0, 73, 86
1, 40107, Note_off_c, 0, 65, 63
1, 40137, Note_off_c, 0, 61, 57
1, 40220, Note_off_c, 0, 73, 57
1, 40342, Note_on_c, 0, 46, 57
1, 40365, Control_c, 0, 64, 102
1, 40376, Note_on_c, 0, 73, 68
1, 40380, Note_on_c, 0, 66, 54
1, 40380, Control_c, 0, 64, 77
1, 40395, Control_c, 0, 64, 0
1, 40404, Note_off_c, 0, 49, 38
1, 40454, Note_off_c, 0, 73, 60
1, 40454, Control_c, 0, 64, 65
1, 40462, Note_on_c, 0, 75, 74
1, 40469, Control_c, 0, 64, 72
1, 40483, Control_c, 0, 64, 76
1, 40498, Control_c, 0, 64, 80
1, 40499, Note_off_c, 0, 75, 56
1, 40513, Control_c, 0, 64, 82
1, 40519, Note_on_c, 0, 73, 68
1, 40528, Control_c, 0, 64, 83
1, 40539, Note_off_c, 0, 66, 29
1, 40551, Control_c, 0, 64, 85
1, 40566, Control_c, 0, 64, 88
1, 40572, Note_on_c, 0, 75, 76
1, 40573, Note_off_c, 0, 73, 59
1, 40581, Control_c, 0, 64, 92
1, 40596, Control_c, 0, 64, 96
1, 40611, Control_c, 0, 64, 100
1, 40618, Note_off_c, 0, 75, 49
1, 40626, Note_on_c, 0, 73, 69
1, 40626, Control_c, 0, 64, 102
1, 40640, Control_c, 0, 64, 106
1, 40655, Control_c, 0, 64, 110
1, 40670, Control_c, 0, 64, 116
1, 40685, Control_c, 0, 64, 127
1, 40706, Note_off_c, 0, 73, 58
1, 40710, Note_on_c, 0, 72, 85
1, 40731, Note_on_c, 0, 49, 62
1, 40762, Note_off_c, 0, 46, 54
1, 40909, Note_on_c, 0, 73, 84
1, 40951, Note_off_c, 0, 72, 57
1, 41022, Note_on_c, 0, 61, 64
1, 41034, Note_on_c, 0, 80, 81
1, 41039, Note_off_c, 0, 73, 63
1, 41066, Note_off_c, 0, 61, 60
1, 41150, Note_on_c, 0, 78, 82
1, 41209, Note_off_c, 0, 49, 37
1, 41243, Note_off_c, 0, 78, 60
1, 41300, Control_c, 0, 64, 107
1, 41314, Control_c, 0, 64, 78
1, 41323, Note_on_c, 0, 78, 78
1, 41326, Note_on_c, 0, 68, 61
1, 41329, Control_c, 0, 64, 0
1, 41338, Note_on_c, 0, 44, 44
1, 41398, Note_off_c, 0, 80, 52
1, 41418, Control_c, 0, 64, 68
1, 41433, Control_c, 0, 64, 75
1, 41448, Control_c, 0, 64, 81
1, 41462, Control_c, 0, 64, 88
1, 41477, Control_c, 0, 64, 93
1, 41492, Control_c, 0, 64, 98
1, 41507, Control_c, 0, 64, 102
1, 41522, Control_c, 0, 64, 108
1, 41536, Control_c, 0, 64, 115
1, 41551, Control_c, 0, 64, 127
1, 41575, Note_off_c, 0, 78, 60
1, 41591, Note_off_c, 0, 44, 60
1, 41606, Note_on_c, 0, 49, 59
1, 41613, Note_on_c, 0, 77, 76
1, 41827, Note_on_c, 0, 61, 64
1, 41830, Note_on_c, 0, 75, 82
1, 41860, Note_off_c, 0, 61, 63
1, 41873, Note_off_c, 0, 77, 59
1, 41914, Note_off_c, 0, 49, 59
1, 42104, Note_on_c, 0, 42, 57
1, 42107, Note_on_c, 0, 77, 79
1, 42114, Note_on_c, 0, 70, 51
1, 42122, Control_c, 0, 64, 100
1, 42137, Control_c, 0, 64, 76
1, 42149, Note_off_c, 0, 75, 61
1, 42152, Control_c, 0, 64, 0
1, 42171, Note_off_c, 0, 68, 55
1, 42227, Control_c, 0, 64, 64
1, 42242, Control_c, 0, 64, 72
1, 42257, Control_c, 0, 64, 80
1, 42272, Control_c, 0, 64, 88
1, 42286, Control_c, 0, 64, 94
1, 42301, Control_c, 0, 64, 99
1, 42307, Note_off_c, 0, 42, 59
1, 42316, Control_c, 0, 64, 104
1, 42331, Control_c, 0, 64, 111
1, 42346, Control_c, 0, 64, 127
1, 42372, Note_on_c, 0, 49, 66
1, 42383, Note_off_c, 0, 77, 59
1, 42391, Note_on_c, 0, 75, 84
1, 42415, Note_off_c, 0, 70, 53
1, 42618, Note_on_c, 0, 61, 72
1, 42659, Note_off_c, 0, 61, 60
1, 42716, Note_on_c, 0, 77, 84
1, 42763, Note_off_c, 0, 75, 59
1, 42915, Control_c, 0, 64, 101
1, 42924, Note_on_c, 0, 44, 61
1, 42926, Note_on_c, 0, 65, 66
1, 42930, Control_c, 0, 64, 72
1, 42933, Note_on_c, 0, 73, 83
1, 42933, Note_off_c, 0, 49, 17
1, 42945, Control_c, 0, 64, 0
1, 42975, Note_off_c, 0, 77, 60
1, 43020, Control_c, 0, 64, 65
1, 43035, Control_c, 0, 64, 74
1, 43050, Control_c, 0, 64, 80
1, 43064, Control_c, 0, 64, 89
1, 43079, Control_c, 0, 64, 97
1, 43094, Control_c, 0, 64, 106
1, 43109, Control_c, 0, 64, 120
1, 43124, Control_c, 0, 64, 127
1, 43135, Note_off_c, 0, 73, 61
1, 43189, Note_off_c, 0, 44, 62
1, 43200, Note_on_c, 0, 49, 76
1, 43401, Note_on_c, 0, 73, 78
1, 43403, Note_on_c, 0, 61, 78
1, 43417, Note_off_c, 0, 65, 63
1, 43468, Note_off_c, 0, 73, 62
1, 43494, Note_off_c, 0, 61, 58
1, 43573, Note_on_c, 0, 66, 56
1, 43574, Note_on_c, 0, 73, 67
1, 43595, Note_off_c, 0, 66, 62
1, 43610, Note_off_c, 0, 73, 59
1, 43627, Note_on_c, 0, 75, 75
1, 43634, Control_c, 0, 64, 108
1, 43649, Control_c, 0, 64, 77
1, 43664, Control_c, 0, 64, 0
1, 43668, Note_on_c, 0, 46, 62
1, 43669, Note_off_c, 0, 49, 59
1, 43671, Note_on_c, 0, 73, 85
1, 43702, Note_off_c, 0, 75, 61
1, 43723, Control_c, 0, 64, 64
1, 43738, Control_c, 0, 64, 71
1, 43754, Control_c, 0, 64, 78
1, 43769, Control_c, 0, 64, 86
1, 43784, Control_c, 0, 64, 93
1, 43799, Control_c, 0, 64, 98
1, 43813, Control_c, 0, 64, 102
1, 43828, Control_c, 0, 64, 107
1, 43843, Control_c, 0, 64, 115
1, 43857, Control_c, 0, 64, 127
1, 43878, Note_on_c, 0, 72, 88
1, 43903, Note_off_c, 0, 73, 59
1, 44021, Note_on_c, 0, 73, 87
1, 44036, Note_off_c, 0, 46, 61
1, 44036, Note_off_c, 0, 72, 59
1, 44039, Note_on_c, 0, 49, 73
1, 44076, Note_off_c, 0, 73, 62
1, 44133, Note_on_c, 0, 75, 82
1, 44167, Note_off_c, 0, 75, 61
1, 44242, Note_on_c, 0, 61, 77
1, 44248, Note_on_c, 0, 77, 85
1, 44281, Note_off_c, 0, 61, 61
1, 44306, Note_off_c, 0, 77, 62
1, 44336, Note_off_c, 0, 49, 63
1, 44343, Note_on_c, 0, 78, 68
1, 44367, Note_off_c, 0, 78, 51
1, 44373, Note_on_c, 0, 79, 46
1, 44397, Note_off_c, 0, 79, 62
1, 44471, Note_on_c, 0, 65, 75
1, 44540, Note_on_c, 0, 73, 82
1, 44549, Note_off_c, 0, 65, 50
1, 44676, Note_on_c, 0, 44, 67
1, 44680, Control_c, 0, 64, 85
1, 44695, Control_c, 0, 64, 0
1, 44712, Note_on_c, 0, 80, 97
1, 44749, Note_off_c, 0, 73, 62
1, 44770, Control_c, 0, 64, 66
1, 44784, Control_c, 0, 64, 75
1, 44799, Control_c, 0, 64, 83
1, 44814, Control_c, 0, 64, 94
1, 44829, Control_c, 0, 64, 104
1, 44844, Control_c, 0, 64, 118
1, 44849, Note_off_c, 0, 80, 63
1, 44859, Control_c, 0, 64, 127
1, 44959, Note_off_c, 0, 44, 62
1, 44969, Note_on_c, 0, 56, 78
1, 45003, Note_off_c, 0, 56, 64
1, 45232, Note_on_c, 0, 61, 77
1, 45566, Note_on_c, 0, 77, 87
1, 45568, Note_on_c, 0, 85, 93
1, 45577, Note_on_c, 0, 68, 78
1, 45607, Note_off_c, 0, 61, 59
1, 45816, Note_off_c, 0, 68, 61
1, 45866, Note_on_c, 0, 61, 75
1, 45949, Note_off_c, 0, 77, 59
1, 46138, Note_on_c, 0, 56, 70
1, 46144, Note_off_c, 0, 61, 57
1, 46176, Note_off_c, 0, 56, 66
1, 46382, Note_off_c, 0, 85, 49
1, 46594, Note_on_c, 0, 84, 60
1, 46603, Note_on_c, 0, 75, 47
1, 46618, Note_on_c, 0, 32, 44
1, 46659, Control_c, 0, 64, 86
1, 46674, Control_c, 0, 64, 62
1, 46689, Control_c, 0, 64, 0
1, 46749, Control_c, 0, 64, 66
1, 46764, Control_c, 0, 64, 72
1, 46771, Note_off_c, 0, 75, 53
1, 46778, Control_c, 0, 64, 77
1, 46779, Note_off_c, 0, 84, 40
1, 46793, Control_c, 0, 64, 83
1, 46808, Control_c, 0, 64, 87
1, 46823, Control_c, 0, 64, 89
1, 46838, Control_c, 0, 64, 91
1, 46844, Note_on_c, 0, 72, 58
1, 46852, Control_c, 0, 64, 93
1, 46854, Note_on_c, 0, 80, 55
1, 46867, Control_c, 0, 64, 95
1, 46882, Control_c, 0, 64, 98
1, 46896, Control_c, 0, 64, 100
1, 46903, Note_off_c, 0, 80, 60
1, 46911, Control_c, 0, 64, 103
1, 46919, Note_off_c, 0, 72, 51
1, 46926, Control_c, 0, 64, 105
1, 46941, Control_c, 0, 64, 109
1, 46957, Control_c, 0, 64, 113
1, 46972, Control_c, 0, 64, 119
1, 46987, Control_c, 0, 64, 127
1, 46992, Note_off_c, 0, 32, 28
1, 47016, Note_on_c, 0, 82, 60
1, 47024, Note_on_c, 0, 73, 49
1, 47036, Note_on_c, 0, 44, 41
1, 47067, Note_off_c, 0, 73, 57
1, 47095, Note_off_c, 0, 44, 61
1, 47110, Note_off_c, 0, 82, 59
1, 47148, Note_on_c, 0, 78, 55
1, 47150, Note_on_c, 0, 70, 56
1, 47186, Note_off_c, 0, 78, 62
1, 47229, Note_off_c, 0, 70, 46
1, 47295, Note_on_c, 0, 54, 51
1, 47295, Note_on_c, 0, 80, 60
1, 47308, Note_on_c, 0, 72, 48
1, 47342, Note_off_c, 0, 72, 56
1, 47419, Note_on_c, 0, 77, 62
1, 47419, Note_off_c, 0, 80, 47
1, 47434, Note_on_c, 0, 68, 47
1, 47459, Note_off_c, 0, 77, 43
1, 47504, Note_off_c, 0, 68, 36
1, 47521, Note_off_c, 0, 54, 44
1, 47540, Control_c, 0, 64, 116
1, 47555, Control_c, 0, 64, 85
1, 47556, Note_on_c, 0, 78, 65
1, 47564, Note_on_c, 0, 60, 47
1, 47570, Control_c, 0, 64, 67
1, 47581, Note_on_c, 0, 70, 39
1, 47585, Control_c, 0, 64, 64
1, 47599, Control_c, 0, 64, 67
1, 47614, Control_c, 0, 64, 69
1, 47626, Note_off_c, 0, 70, 56
1, 47629, Control_c, 0, 64, 73
1, 47644, Control_c, 0, 64, 78
1, 47656, Note_off_c, 0, 60, 0
1, 47659, Control_c, 0, 64, 86
1, 47671, Note_off_c, 0, 78, 55
1, 47673, Control_c, 0, 64, 92
1, 47688, Control_c, 0, 64, 95
1, 47693, Poly_aftertouch_c, 0, 60, 127
1, 47695, Note_on_c, 0, 75, 55
1, 47697, Note_on_c, 0, 66, 55
1, 47703, Control_c, 0, 64, 97
1, 47718, Control_c, 0, 64, 100
1, 47733, Control_c, 0, 64, 103
1, 47742, Poly_aftertouch_c, 0, 60, 0
1, 47742, Note_off_c, 0, 75, 60
1, 47748, Control_c, 0, 64, 105
1, 47763, Note_off_c, 0, 66, 34
1, 47763, Control_c, 0, 64, 107
1, 47793, Control_c, 0, 64, 109
1, 47824, Note_on_c, 0, 77, 64
1, 47836, Note_on_c, 0, 68, 43
1, 47837, Control_c, 0, 64, 112
1, 47838, Note_on_c, 0, 54, 47
1, 47864, Note_off_c, 0, 54, 60
1, 47866, Note_off_c, 0, 68, 56
1, 47867, Control_c, 0, 64, 116
1, 47882, Control_c, 0, 64, 123
1, 47884, Note_off_c, 0, 77, 52
1, 47896, Control_c, 0, 64, 127
1, 47953, Note_on_c, 0, 65, 50
1, 47953, Note_on_c, 0, 73, 52
1, 47975, Note_off_c, 0, 73, 62
1, 48010, Note_off_c, 0, 65, 45
1, 48087, Note_on_c, 0, 75, 62
1, 48111, Note_on_c, 0, 44, 35
1, 48116, Note_on_c, 0, 66, 36
1, 48121, Note_off_c, 0, 75, 62
1, 48144, Note_off_c, 0, 44, 56
1, 48145, Note_off_c, 0, 66, 47
1, 48260, Note_on_c, 0, 68, 61
1, 48269, Note_on_c, 0, 56, 50
1, 48310, Note_off_c, 0, 56, 47
1, 48486, Note_on_c, 0, 37, 30
1, 48502, Note_off_c, 0, 68, 55
1, 48508, Note_on_c, 0, 73, 55
1, 48511, Control_c, 0, 64, 99
1, 48524, Note_on_c, 0, 65, 42
1, 48526, Control_c, 0, 64, 74
1, 48542, Control_c, 0, 64, 0
1, 48600, Note_off_c, 0, 65, 47
1, 48601, Control_c, 0, 64, 65
1, 48607, Note_off_c, 0, 73, 56
1, 48616, Control_c, 0, 64, 72
1, 48631, Control_c, 0, 64, 78
1, 48645, Control_c, 0, 64, 87
1, 48660, Control_c, 0, 64, 94
1, 48675, Control_c, 0, 64, 99
1, 48690, Control_c, 0, 64, 104
1, 48705, Control_c, 0, 64, 109
1, 48719, Control_c, 0, 64, 117
1, 48734, Control_c, 0, 64, 127
1, 48789, Note_off_c, 0, 37, 56
1, 48833, Note_on_c, 0, 44, 51
1, 49103, Note_on_c, 0, 56, 63
1, 49191, Note_off_c, 0, 56, 60
1, 49450, Note_on_c, 0, 75, 51
1, 49452, Note_on_c, 0, 66, 41
1, 49455, Control_c, 0, 64, 99
1, 49466, Note_on_c, 0, 56, 43
1, 49469, Control_c, 0, 64, 77
1, 49484, Control_c, 0, 64, 44
1, 49499, Control_c, 0, 64, 0
1, 49536, Control_c, 0, 64, 23
1, 49551, Control_c, 0, 64, 66
1, 49566, Control_c, 0, 64, 71
1, 49581, Control_c, 0, 64, 77
1, 49595, Control_c, 0, 64, 84
1, 49608, Note_off_c, 0, 66, 55
1, 49610, Control_c, 0, 64, 89
1, 49625, Control_c, 0, 64, 90
1, 49640, Control_c, 0, 64, 92
1, 49641, Note_on_c, 0, 63, 48
1, 49646, Note_on_c, 0, 72, 54
1, 49655, Control_c, 0, 64, 95
1, 49667, Note_off_c, 0, 75, 38
1, 49670, Control_c, 0, 64, 98
1, 49684, Control_c, 0, 64, 101
1, 49699, Control_c, 0, 64, 103
1, 49702, Note_off_c, 0, 56, 38
1, 49714, Control_c, 0, 64, 105
1, 49728, Control_c, 0, 64, 108
1, 49743, Control_c, 0, 64, 113
1, 49758, Control_c, 0, 64, 117
1, 49759, Note_off_c, 0, 63, 56
1, 49773, Control_c, 0, 64, 127
1, 49786, Note_on_c, 0, 66, 47
1, 49790, Note_on_c, 0, 75, 60
1, 49795, Note_off_c, 0, 72, 53
1, 49810, Note_off_c, 0, 44, 35
1, 49880, Note_off_c, 0, 75, 57
1, 49888, Note_off_c, 0, 66, 37
1, 49917, Note_on_c, 0, 61, 54
1, 49918, Note_on_c, 0, 70, 56
1, 49980, Note_off_c, 0, 61, 51
1, 50037, Note_on_c, 0, 75, 54
1, 50048, Note_off_c, 0, 70, 60
1, 50055, Note_on_c, 0, 66, 43
1, 50064, Note_on_c, 0, 44, 32
1, 50069, Note_off_c, 0, 75, 65
1, 50081, Note_off_c, 0, 66, 55
1, 50147, Note_off_c, 0, 44, 58
1, 50187, Note_on_c, 0, 68, 53
1, 50202, Note_on_c, 0, 56, 50
1, 50256, Note_off_c, 0, 56, 59
1, 50374, Note_on_c, 0, 37, 36
1, 50403, Control_c, 0, 64, 93
1, 50418, Control_c, 0, 64, 70
1, 50419, Note_off_c, 0, 68, 58
1, 50421, Note_on_c, 0, 73, 58
1, 50433, Control_c, 0, 64, 0
1, 50445, Note_on_c, 0, 65, 27
1, 50507, Control_c, 0, 64, 69
1, 50520, Note_off_c, 0, 73, 55
1, 50522, Control_c, 0, 64, 77
1, 50537, Control_c, 0, 64, 84
1, 50551, Control_c, 0, 64, 92
1, 50564, Note_off_c, 0, 65, 32
1, 50566, Control_c, 0, 64, 98
1, 50581, Control_c, 0, 64, 103
1, 50596, Control_c, 0, 64, 108
1, 50611, Control_c, 0, 64, 115
1, 50625, Control_c, 0, 64, 127
1, 50660, Note_off_c, 0, 37, 58
1, 50708, Note_on_c, 0, 44, 43
1, 50967, Note_on_c, 0, 56, 47
1, 51036, Note_off_c, 0, 56, 50
1, 51271, Control_c, 0, 64, 94
1, 51277, Note_on_c, 0, 75, 44
1, 51277, Note_on_c, 0, 56, 30
1, 51281, Note_on_c, 0, 66, 39
1, 51286, Control_c, 0, 64, 75
1, 51300, Control_c, 0, 64, 64
1, 51315, Control_c, 0, 64, 65
1, 51330, Control_c, 0, 64, 67
1, 51345, Control_c, 0, 64, 70
1, 51360, Control_c, 0, 64, 75
1, 51374, Control_c, 0, 64, 84
1, 51389, Control_c, 0, 64, 94
1, 51404, Control_c, 0, 64, 101
1, 51419, Control_c, 0, 64, 105
1, 51426, Note_off_c, 0, 66, 44
1, 51434, Control_c, 0, 64, 109
1, 51444, Note_on_c, 0, 63, 50
1, 51448, Control_c, 0, 64, 117
1, 51456, Note_on_c, 0, 72, 48
1, 51463, Control_c, 0, 64, 127
1, 51477, Note_off_c, 0, 75, 39
1, 51513, Note_off_c, 0, 56, 40
1, 51555, Note_off_c, 0, 63, 58
1, 51587, Note_off_c, 0, 44, 35
1, 51589, Note_on_c, 0, 75, 55
1, 51594, Note_off_c, 0, 72, 55
1, 51602, Note_on_c, 0, 66, 34
1, 51647, Note_off_c, 0, 66, 57
1, 51672, Note_off_c, 0, 75, 57
1, 51721, Note_on_c, 0, 70, 46
1, 51731, Note_on_c, 0, 61, 35
1, 51784, Note_off_c, 0, 61, 46
1, 51852, Note_off_c, 0, 70, 61
1, 51855, Note_on_c, 0, 75, 47
1, 51874, Note_on_c, 0, 44, 33
1, 51881, Note_off_c, 0, 75, 58
1, 51941, Poly_aftertouch_c, 0, 66, 0
1, 52010, Note_on_c, 0, 68, 54
1, 52013, Note_on_c, 0, 56, 50
1, 52067, Note_off_c, 0, 56, 57
1, 52096, Note_off_c, 0, 44, 35
1, 52203, Note_on_c, 0, 37, 28
1, 52241, Control_c, 0, 64, 91
1, 52248, Note_on_c, 0, 73, 57
1, 52254, Note_off_c, 0, 68, 56
1, 52256, Control_c, 0, 64, 69
1, 52261, Note_on_c, 0, 65, 39
1, 52270, Control_c, 0, 64, 0
1, 52329, Control_c, 0, 64, 66
1, 52344, Control_c, 0, 64, 74
1, 52359, Control_c, 0, 64, 82
1, 52374, Control_c, 0, 64, 90
1, 52389, Control_c, 0, 64, 97
1, 52404, Control_c, 0, 64, 102
1, 52419, Control_c, 0, 64, 106
1, 52433, Control_c, 0, 64, 110
1, 52448, Control_c, 0, 64, 118
1, 52448, Note_off_c, 0, 65, 44
1, 52463, Control_c, 0, 64, 127
1, 52499, Note_off_c, 0, 37, 60
1, 52544, Note_on_c, 0, 44, 40
1, 52815, Note_on_c, 0, 56, 44
1, 52895, Note_off_c, 0, 44, 37
1, 52942, Note_off_c, 0, 73, 33
1, 53018, Note_on_c, 0, 66, 46
1, 53075, Note_on_c, 0, 73, 57
1, 53079, Note_on_c, 0, 65, 62
1, 53079, Control_c, 0, 64, 102
1, 53083, Note_off_c, 0, 66, 55
1, 53094, Control_c, 0, 64, 78
1, 53101, Note_on_c, 0, 68, 41
1, 53109, Control_c, 0, 64, 63
1, 53124, Control_c, 0, 64, 62
1, 53138, Control_c, 0, 64, 66
1, 53153, Control_c, 0, 64, 69
1, 53168, Control_c, 0, 64, 72
1, 53183, Control_c, 0, 64, 78
1, 53198, Control_c, 0, 64, 83
1, 53212, Control_c, 0, 64, 86
1, 53227, Control_c, 0, 64, 89
1, 53242, Control_c, 0, 64, 92
1, 53264, Control_c, 0, 64, 97
1, 53279, Control_c, 0, 64, 102
1, 53287, Note_off_c, 0, 56, 59
1, 53294, Control_c, 0, 64, 108
1, 53309, Control_c, 0, 64, 117
1, 53324, Control_c, 0, 64, 127
1, 53368, Note_on_c, 0, 44, 42
1, 53444, Note_off_c, 0, 65, 52
1, 53446, Note_off_c, 0, 68, 8
1, 53645, Note_off_c, 0, 44, 36
1, 53659, Note_on_c, 0, 37, 40
1, 53808, Note_off_c, 0, 73, 55
1, 53839, Note_on_c, 0, 66, 55
1, 53917, Control_c, 0, 64, 95
1, 53920, Note_on_c, 0, 65, 64
1, 53922, Note_off_c, 0, 66, 55
1, 53929, Note_on_c, 0, 73, 64
1, 53932, Control_c, 0, 64, 70
1, 53942, Note_on_c, 0, 68, 35
1, 53947, Control_c, 0, 64, 0
1, 53991, Control_c, 0, 64, 65
1, 54013, Control_c, 0, 64, 71
1, 54028, Control_c, 0, 64, 76
1, 54043, Control_c, 0, 64, 83
1, 54058, Control_c, 0, 64, 88
1, 54073, Control_c, 0, 64, 91
1, 54087, Control_c, 0, 64, 94
1, 54102, Control_c, 0, 64, 98
1, 54117, Control_c, 0, 64, 102
1, 54132, Control_c, 0, 64, 106
1, 54143, Note_off_c, 0, 37, 61
1, 54147, Control_c, 0, 64, 109
1, 54162, Control_c, 0, 64, 113
1, 54177, Control_c, 0, 64, 127
1, 54219, Note_on_c, 0, 44, 38
1, 54250, Note_off_c, 0, 65, 48
1, 54373, Note_off_c, 0, 68, 36
1, 54532, Note_on_c, 0, 56, 40
1, 54568, Note_off_c, 0, 44, 36
1, 54673, Note_off_c, 0, 73, 29
1, 54783, Note_on_c, 0, 66, 44
1, 54849, Note_off_c, 0, 66, 54
1, 54866, Note_on_c, 0, 65, 47
1, 54870, Note_on_c, 0, 73, 39
1, 54881, Note_on_c, 0, 68, 38
1, 54881, Control_c, 0, 64, 113
1, 54896, Control_c, 0, 64, 87
1, 54910, Control_c, 0, 64, 69
1, 54925, Control_c, 0, 64, 0
1, 54970, Control_c, 0, 64, 41
1, 54985, Control_c, 0, 64, 66
1, 55000, Control_c, 0, 64, 70
1, 55015, Control_c, 0, 64, 75
1, 55030, Control_c, 0, 64, 82
1, 55045, Control_c, 0, 64, 88
1, 55059, Control_c, 0, 64, 93
1, 55074, Control_c, 0, 64, 98
1, 55089, Control_c, 0, 64, 101
1, 55092, Note_off_c, 0, 68, 0
1, 55093, Note_off_c, 0, 56, 42
1, 55104, Control_c, 0, 64, 104
1, 55119, Control_c, 0, 64, 109
1, 55129, Poly_aftertouch_c, 0, 68, 127
1, 55134, Control_c, 0, 64, 116
1, 55148, Control_c, 0, 64, 127
1, 55173, Note_on_c, 0, 44, 26
1, 55199, Note_off_c, 0, 65, 36
1, 55302, Poly_aftertouch_c, 0, 68, 0
1, 55477, Note_off_c, 0, 44, 31
1, 55483, Note_on_c, 0, 37, 38
1, 55647, Note_off_c, 0, 73, 29
1, 55718, Note_on_c, 0, 66, 49
1, 55962, Note_off_c, 0, 66, 54
1, 55992, Note_on_c, 0, 64, 44
1, 56005, Note_on_c, 0, 73, 45
1, 56029, Control_c, 0, 64, 93
1, 56030, Note_on_c, 0, 68, 32
1, 56044, Control_c, 0, 64, 75
1, 56059, Control_c, 0, 64, 38
1, 56074, Control_c, 0, 64, 0
1, 56103, Control_c, 0, 64, 61
1, 56118, Control_c, 0, 64, 68
1, 56133, Control_c, 0, 64, 74
1, 56148, Control_c, 0, 64, 83
1, 56163, Control_c, 0, 64, 92
1, 56177, Control_c, 0, 64, 101
1, 56187, Note_off_c, 0, 68, 0
1, 56192, Control_c, 0, 64, 108
1, 56207, Control_c, 0, 64, 117
1, 56222, Control_c, 0, 64, 127
1, 56224, Poly_aftertouch_c, 0, 68, 127
1, 56225, Note_off_c, 0, 37, 58
1, 56233, Note_off_c, 0, 64, 61
1, 56320, Poly_aftertouch_c, 0, 68, 0
1, 56342, Note_on_c, 0, 44, 40
1, 56384, Note_off_c, 0, 73, 51
1, 56617, Note_on_c, 0, 56, 53
1, 56662, Note_off_c, 0, 44, 40
1, 56869, Note_on_c, 0, 64, 59
1, 56878, Note_on_c, 0, 73, 64
1, 56898, Control_c, 0, 64, 89
1, 56912, Control_c, 0, 64, 74
1, 56927, Control_c, 0, 64, 70
1, 56942, Control_c, 0, 64, 74
1, 56957, Control_c, 0, 64, 80
1, 56972, Control_c, 0, 64, 86
1, 56986, Control_c, 0, 64, 93
1, 57009, Control_c, 0, 64, 100
1, 57024, Control_c, 0, 64, 108
1, 57038, Control_c, 0, 64, 127
1, 57046, Note_off_c, 0, 64, 60
1, 57066, Note_off_c, 0, 56, 59
1, 57157, Note_on_c, 0, 44, 49
1, 57266, Note_on_c, 0, 66, 52
1, 57278, Note_on_c, 0, 75, 61
1, 57324, Note_off_c, 0, 75, 57
1, 57331, Note_off_c, 0, 73, 56
1, 57397, Note_on_c, 0, 76, 61
1, 57413, Note_on_c, 0, 37, 47
1, 57413, Note_off_c, 0, 66, 55
1, 57415, Note_off_c, 0, 76, 64
1, 57450, Note_off_c, 0, 44, 35
1, 57492, Poly_aftertouch_c, 0, 68, 0
1, 57669, Note_on_c, 0, 68, 71
1, 57682, Note_on_c, 0, 59, 50
1, 57703, Note_on_c, 0, 64, 32
1, 57721, Control_c, 0, 64, 90
1, 57735, Control_c, 0, 64, 70
1, 57757, Control_c, 0, 64, 0
1, 57802, Control_c, 0, 64, 65
1, 57817, Control_c, 0, 64, 70
1, 57832, Control_c, 0, 64, 77
1, 57847, Control_c, 0, 64, 85
1, 57861, Control_c, 0, 64, 93
1, 57876, Control_c, 0, 64, 99
1, 57891, Control_c, 0, 64, 106
1, 57906, Control_c, 0, 64, 113
1, 57910, Note_off_c, 0, 37, 56
1, 57921, Control_c, 0, 64, 127
1, 57934, Note_off_c, 0, 59, 36
1, 57953, Note_on_c, 0, 44, 64
1, 57988, Note_off_c, 0, 64, 39
1, 58022, Note_off_c, 0, 68, 63
1, 58200, Note_on_c, 0, 56, 67
1, 58298, Note_off_c, 0, 56, 54
1, 58321, Note_on_c, 0, 68, 61
1, 58420, Note_on_c, 0, 70, 73
1, 58506, Control_c, 0, 64, 99
1, 58521, Control_c, 0, 64, 76
1, 58532, Note_off_c, 0, 68, 57
1, 58536, Control_c, 0, 64, 0
1, 58572, Note_on_c, 0, 54, 51
1, 58578, Note_on_c, 0, 71, 66
1, 58582, Note_off_c, 0, 70, 62
1, 58595, Control_c, 0, 64, 65
1, 58605, Note_on_c, 0, 64, 42
1, 58610, Control_c, 0, 64, 74
1, 58625, Control_c, 0, 64, 83
1, 58640, Control_c, 0, 64, 92
1, 58655, Control_c, 0, 64, 99
1, 58659, Note_off_c, 0, 71, 61
1, 58669, Control_c, 0, 64, 103
1, 58684, Control_c, 0, 64, 110
1, 58691, Note_on_c, 0, 70, 51
1, 58699, Control_c, 0, 64, 127
1, 58715, Note_off_c, 0, 70, 61
1, 58727, Note_on_c, 0, 71, 64
1, 58753, Note_off_c, 0, 54, 61
1, 58771, Note_off_c, 0, 71, 63
1, 58789, Note_on_c, 0, 70, 62
1, 58791, Note_on_c, 0, 42, 55
1, 58812, Note_off_c, 0, 70, 65
1, 58825, Note_on_c, 0, 71, 64
1, 58836, Note_off_c, 0, 42, 60
1, 58848, Note_off_c, 0, 44, 37
1, 58863, Note_off_c, 0, 71, 63
1, 58869, Note_on_c, 0, 70, 71
1, 58895, Note_off_c, 0, 70, 65
1, 58926, Note_on_c, 0, 71, 59
1, 58961, Note_on_c, 0, 70, 71
1, 58962, Note_off_c, 0, 71, 60
1, 58988, Note_off_c, 0, 70, 65
1, 59005, Note_on_c, 0, 71, 53
1, 59030, Note_on_c, 0, 30, 58
1, 59048, Note_on_c, 0, 70, 77
1, 59064, Note_off_c, 0, 30, 63
1, 59078, Note_off_c, 0, 71, 60
1, 59086, Note_off_c, 0, 64, 34
1, 59143, Note_on_c, 0, 68, 76
1, 59146, Note_off_c, 0, 70, 62
1, 59221, Note_on_c, 0, 70, 75
1, 59248, Note_off_c, 0, 68, 63
1, 59389, Control_c, 0, 64, 107
1, 59404, Control_c, 0, 64, 84
1, 59419, Control_c, 0, 64, 65
1, 59424, Note_on_c, 0, 35, 47
1, 59433, Control_c, 0, 64, 0
1, 59440, Note_on_c, 0, 71, 70
1, 59455, Note_on_c, 0, 63, 50
1, 59477, Note_off_c, 0, 70, 36
1, 59537, Control_c, 0, 64, 69
1, 59552, Control_c, 0, 64, 75
1, 59567, Control_c, 0, 64, 81
1, 59582, Control_c, 0, 64, 86
1, 59590, Note_off_c, 0, 63, 57
1, 59594, Note_off_c, 0, 71, 61
1, 59597, Control_c, 0, 64, 89
1, 59611, Control_c, 0, 64, 93
1, 59626, Control_c, 0, 64, 98
1, 59641, Control_c, 0, 64, 105
1, 59656, Control_c, 0, 64, 113
1, 59671, Control_c, 0, 64, 127
1, 59691, Note_off_c, 0, 35, 43
1, 59725, Note_on_c, 0, 42, 75
1, 59978, Note_on_c, 0, 54, 72
1, 60097, Note_off_c, 0, 54, 59
1, 60270, Control_c, 0, 64, 112
1, 60285, Control_c, 0, 64, 87
1, 60300, Control_c, 0, 64, 69
1, 60307, Note_on_c, 0, 64, 44
1, 60309, Note_on_c, 0, 73, 57
1, 60315, Control_c, 0, 64, 0
1, 60338, Note_on_c, 0, 54, 44
1, 60389, Control_c, 0, 64, 67
1, 60404, Control_c, 0, 64, 73
1, 60419, Control_c, 0, 64, 79
1, 60434, Control_c, 0, 64, 84
1, 60448, Control_c, 0, 64, 86
1, 60463, Control_c, 0, 64, 88
1, 60478, Control_c, 0, 64, 92
1, 60482, Note_off_c, 0, 64, 60
1, 60493, Control_c, 0, 64, 97
1, 60494, Note_on_c, 0, 61, 54
1, 60497, Note_on_c, 0, 70, 63
1, 60508, Control_c, 0, 64, 102
1, 60524, Control_c, 0, 64, 108
1, 60536, Note_off_c, 0, 73, 56
1, 60538, Control_c, 0, 64, 117
1, 60544, Note_off_c, 0, 54, 56
1, 60553, Control_c, 0, 64, 127
1, 60628, Note_off_c, 0, 61, 57
1, 60641, Note_on_c, 0, 64, 50
1, 60652, Note_on_c, 0, 73, 68
1, 60658, Note_off_c, 0, 42, 51
1, 60659, Note_off_c, 0, 70, 59
1, 60756, Note_off_c, 0, 64, 62
1, 60756, Note_off_c, 0, 73, 60
1, 60777, Note_on_c, 0, 68, 57
1, 60782, Note_on_c, 0, 59, 43
1, 60825, Note_off_c, 0, 59, 43
1, 60899, Note_on_c, 0, 64, 50
1, 60901, Note_on_c, 0, 73, 58
1, 60904, Note_off_c, 0, 68, 62
1, 60929, Note_on_c, 0, 42, 47
1, 60932, Note_off_c, 0, 64, 64
1, 60941, Note_off_c, 0, 73, 62
1, 61037, Note_on_c, 0, 66, 58
1, 61054, Note_on_c, 0, 54, 54
1, 61099, Note_off_c, 0, 54, 56
1, 61146, Note_off_c, 0, 42, 46
1, 61257, Control_c, 0, 64, 97
1, 61260, Note_on_c, 0, 71, 58
1, 61270, Note_on_c, 0, 35, 37
1, 61271, Control_c, 0, 64, 71
1, 61273, Note_off_c, 0, 66, 59
1, 61283, Note_on_c, 0, 63, 44
1, 61286, Control_c, 0, 64, 0
1, 61361, Control_c, 0, 64, 66
1, 61376, Control_c, 0, 64, 74
1, 61391, Control_c, 0, 64, 81
1, 61396, Note_off_c, 0, 71, 56
1, 61406, Control_c, 0, 64, 90
1, 61420, Control_c, 0, 64, 96
1, 61435, Control_c, 0, 64, 100
1, 61448, Note_off_c, 0, 63, 57
1, 61450, Control_c, 0, 64, 104
1, 61465, Control_c, 0, 64, 107
1, 61480, Control_c, 0, 64, 112
1, 61501, Control_c, 0, 64, 119
1, 61516, Control_c, 0, 64, 127
1, 61524, Note_off_c, 0, 35, 32
1, 61579, Note_on_c, 0, 42, 53
1, 61821, Note_on_c, 0, 54, 52
1, 61887, Note_off_c, 0, 54, 56
1, 62139, Note_on_c, 0, 73, 49
1, 62142, Note_on_c, 0, 64, 40
1, 62154, Control_c, 0, 64, 105
1, 62168, Control_c, 0, 64, 82
1, 62180, Note_on_c, 0, 54, 38
1, 62183, Control_c, 0, 64, 59
1, 62189, Note_off_c, 0, 42, 12
1, 62198, Control_c, 0, 64, 0
1, 62250, Control_c, 0, 64, 64
1, 62264, Control_c, 0, 64, 68
1, 62279, Control_c, 0, 64, 75
1, 62294, Control_c, 0, 64, 82
1, 62309, Control_c, 0, 64, 89
1, 62324, Control_c, 0, 64, 93
1, 62338, Control_c, 0, 64, 95
1, 62340, Note_off_c, 0, 64, 59
1, 62346, Note_off_c, 0, 73, 55
1, 62348, Note_on_c, 0, 61, 48
1, 62352, Note_on_c, 0, 70, 55
1, 62353, Control_c, 0, 64, 98
1, 62368, Control_c, 0, 64, 103
1, 62382, Control_c, 0, 64, 110
1, 62397, Control_c, 0, 64, 117
1, 62412, Control_c, 0, 64, 127
1, 62455, Note_off_c, 0, 61, 56
1, 62471, Note_off_c, 0, 54, 38
1, 62484, Note_on_c, 0, 73, 61
1, 62486, Note_on_c, 0, 64, 47
1, 62489, Note_off_c, 0, 70, 60
1, 62566, Note_off_c, 0, 64, 51
1, 62571, Note_off_c, 0, 73, 60
1, 62608, Note_on_c, 0, 59, 54
1, 62609, Note_on_c, 0, 68, 52
1, 62671, Note_off_c, 0, 59, 51
1, 62735, Note_on_c, 0, 64, 41
1, 62738, Note_off_c, 0, 68, 58
1, 62739, Note_on_c, 0, 73, 59
1, 62759, Note_on_c, 0, 42, 52
1, 62776, Note_off_c, 0, 73, 62
1, 62784, Note_off_c, 0, 64, 62
1, 62890, Note_on_c, 0, 66, 56
1, 62905, Note_on_c, 0, 54, 55
1, 62938, Note_off_c, 0, 54, 62
1, 63010, Note_off_c, 0, 42, 32
1, 63132, Control_c, 0, 64, 116
1, 63145, Note_on_c, 0, 35, 41
1, 63147, Control_c, 0, 64, 81
1, 63150, Note_on_c, 0, 71, 59
1, 63162, Control_c, 0, 64, 38
1, 63177, Note_on_c, 0, 63, 42
1, 63177, Control_c, 0, 64, 0
1, 63179, Note_off_c, 0, 66, 55
1, 63251, Control_c, 0, 64, 70
1, 63266, Control_c, 0, 64, 76
1, 63280, Control_c, 0, 64, 82
1, 63295, Control_c, 0, 64, 88
1, 63310, Control_c, 0, 64, 92
1, 63324, Control_c, 0, 64, 96
1, 63339, Control_c, 0, 64, 101
1, 63354, Control_c, 0, 64, 107
1, 63369, Note_off_c, 0, 63, 48
1, 63369, Control_c, 0, 64, 116
1, 63384, Control_c, 0, 64, 127
1, 63385, Note_off_c, 0, 71, 49
1, 63390, Note_off_c, 0, 35, 34
1, 63448, Note_on_c, 0, 42, 53
1, 63573, Note_on_c, 0, 71, 8
1, 63721, Note_on_c, 0, 54, 58
1, 63871, Note_off_c, 0, 42, 34
1, 63925, Control_c, 0, 64, 90
1, 63937, Note_off_c, 0, 71, 37
1, 63940, Control_c, 0, 64, 79
1, 63955, Control_c, 0, 64, 78
1, 63961, Note_on_c, 0, 70, 68
1, 63970, Control_c, 0, 64, 84
1, 63972, Note_on_c, 0, 63, 49
1, 63984, Control_c, 0, 64, 91
1, 63999, Control_c, 0, 64, 98
1, 64014, Control_c, 0, 64, 111
1, 64029, Control_c, 0, 64, 127
1, 64160, Note_off_c, 0, 54, 61
1, 64177, Poly_aftertouch_c, 0, 64, 127
1, 64223, Poly_aftertouch_c, 0, 64, 0
1, 64250, Note_on_c, 0, 42, 59
1, 64339, Note_on_c, 0, 71, 69
1, 64341, Note_off_c, 0, 63, 54
1, 64488, Note_on_c, 0, 35, 47
1, 64488, Note_on_c, 0, 66, 55
1, 64498, Note_off_c, 0, 70, 36
1, 64499, Note_on_c, 0, 63, 50
1, 64542, Note_off_c, 0, 42, 23
1, 64571, Control_c, 0, 64, 95
1, 64585, Control_c, 0, 64, 73
1, 64600, Control_c, 0, 64, 0
1, 64646, Note_off_c, 0, 63, 60
1, 64659, Control_c, 0, 64, 59
1, 64674, Control_c, 0, 64, 69
1, 64682, Note_off_c, 0, 66, 63
1, 64689, Control_c, 0, 64, 73
1, 64704, Control_c, 0, 64, 76
1, 64719, Control_c, 0, 64, 77
1, 64733, Control_c, 0, 64, 78
1, 64744, Note_off_c, 0, 71, 59
1, 64745, Note_on_c, 0, 63, 62
1, 64748, Control_c, 0, 64, 79
1, 64751, Note_on_c, 0, 66, 59
1, 64763, Control_c, 0, 64, 83
1, 64777, Control_c, 0, 64, 87
1, 64792, Control_c, 0, 64, 93
1, 64807, Control_c, 0, 64, 97
1, 64822, Control_c, 0, 64, 101
1, 64837, Control_c, 0, 64, 106
1, 64852, Note_off_c, 0, 66, 49
1, 64852, Control_c, 0, 64, 115
1, 64867, Control_c, 0, 64, 127
1, 64882, Note_on_c, 0, 68, 58
1, 64918, Note_off_c, 0, 68, 64
1, 64939, Note_on_c, 0, 70, 62
1, 64969, Note_off_c, 0, 70, 65
1, 64991, Note_on_c, 0, 68, 63
1, 65018, Note_off_c, 0, 68, 64
1, 65053, Note_on_c, 0, 70, 47
1, 65071, Note_on_c, 0, 68, 67
1, 65073, Note_off_c, 0, 70, 61
1, 65082, Note_on_c, 0, 42, 60
1, 65105, Note_off_c, 0, 68, 64
1, 65148, Poly_aftertouch_c, 0, 36, 127
1, 65150, Note_on_c, 0, 70, 49
1, 65171, Note_on_c, 0, 68, 67
1, 65174, Note_off_c, 0, 70, 60
1, 65180, Note_off_c, 0, 35, 39
1, 65202, Note_off_c, 0, 68, 67
1, 65245, Poly_aftertouch_c, 0, 36, 0
1, 65251, Note_on_c, 0, 70, 41
1, 65269, Note_on_c, 0, 68, 72
1, 65280, Note_off_c, 0, 70, 52
1, 65298, Note_off_c, 0, 68, 60
1, 65317, Note_off_c, 0, 42, 55
1, 65332, Note_on_c, 0, 70, 54
1, 65350, Note_on_c, 0, 41, 69
1, 65366, Note_off_c, 0, 70, 64
1, 65369, Note_on_c, 0, 68, 71
1, 65401, Note_off_c, 0, 68, 63
1, 65450, Note_on_c, 0, 70, 48
1, 65469, Note_on_c, 0, 68, 69
1, 65472, Note_off_c, 0, 70, 60
1, 65497, Control_c, 0, 64, 94
1, 65501, Note_off_c, 0, 68, 64
1, 65512, Control_c, 0, 64, 82
1, 65526, Control_c, 0, 64, 81
1, 65541, Control_c, 0, 64, 87
1, 65553, Note_on_c, 0, 70, 40
1, 65556, Control_c, 0, 64, 95
1, 65567, Note_on_c, 0, 68, 69
1, 65571, Control_c, 0, 64, 106
1, 65586, Control_c, 0, 64, 127
1, 65594, Note_on_c, 0, 53, 74
1, 65603, Note_off_c, 0, 68, 63
1, 65613, Note_off_c, 0, 70, 0
1, 65624, Note_on_c, 0, 70, 54
1, 65660, Note_off_c, 0, 70, 61
1, 65666, Note_off_c, 0, 41, 43
1, 65678, Note_on_c, 0, 68, 65
1, 65702, Note_off_c, 0, 68, 64
1, 65722, Note_on_c, 0, 70, 64
1, 65756, Note_off_c, 0, 70, 62
1, 65768, Note_on_c, 0, 68, 72
1, 65779, Note_off_c, 0, 53, 62
1, 65801, Note_off_c, 0, 68, 63
1, 65833, Note_on_c, 0, 70, 60
1, 65845, Note_on_c, 0, 41, 73
1, 65862, Note_off_c, 0, 70, 65
1, 65866, Note_on_c, 0, 68, 72
1, 65902, Note_off_c, 0, 68, 58
1, 65922, Note_on_c, 0, 70, 71
1, 65954, Note_off_c, 0, 70, 61
1, 65969, Note_on_c, 0, 68, 68
1, 66029, Note_on_c, 0, 70, 62
1, 66035, Note_off_c, 0, 68, 0
1, 66063, Note_off_c, 0, 41, 61
1, 66071, Poly_aftertouch_c, 0, 68, 127
1, 66075, Note_on_c, 0, 35, 62
1, 66080, Note_off_c, 0, 70, 49
1, 66125, Note_off_c, 0, 63, 19
1, 66154, Poly_aftertouch_c, 0, 68, 0
1, 66159, Note_on_c, 0, 66, 82
1, 66244, Note_on_c, 0, 68, 85
1, 66269, Note_off_c, 0, 66, 59
1, 66497, Control_c, 0, 64, 95
1, 66512, Control_c, 0, 64, 72
1, 66514, Note_on_c, 0, 70, 81
1, 66515, Note_off_c, 0, 35, 49
1, 66518, Note_on_c, 0, 46, 66
1, 66527, Control_c, 0, 64, 0
1, 66531, Note_on_c, 0, 34, 61
1, 66537, Note_on_c, 0, 62, 55
1, 66543, Note_off_c, 0, 68, 62
1, 66635, Note_off_c, 0, 62, 36
1, 66646, Control_c, 0, 64, 64
1, 66661, Control_c, 0, 64, 69
1, 66675, Control_c, 0, 64, 74
1, 66690, Control_c, 0, 64, 81
1, 66705, Control_c, 0, 64, 86
1, 66720, Control_c, 0, 64, 90
1, 66730, Note_off_c, 0, 34, 61
1, 66735, Control_c, 0, 64, 91
1, 66742, Note_off_c, 0, 70, 63
1, 66757, Control_c, 0, 64, 93
1, 66772, Note_off_c, 0, 46, 59
1, 66772, Control_c, 0, 64, 96
1, 66786, Control_c, 0, 64, 99
1, 66801, Control_c, 0, 64, 102
1, 66875, Control_c, 0, 64, 104
1, 66890, Control_c, 0, 64, 107
1, 66905, Control_c, 0, 64, 110
1, 66950, Control_c, 0, 64, 112
1, 66965, Control_c, 0, 64, 117
1, 66980, Control_c, 0, 64, 127
1, 67088, Note_on_c, 0, 65, 75
1, 67090, Note_on_c, 0, 58, 72
1, 67090, Note_on_c, 0, 82, 82
1, 67096, Note_on_c, 0, 70, 74
1, 67097, Note_on_c, 0, 54, 68
1, 67150, Note_off_c, 0, 70, 61
1, 67213, Note_off_c, 0, 65, 58
1, 67219, Note_off_c, 0, 54, 51
1, 67359, Note_off_c, 0, 58, 0
1, 67365, Control_c, 0, 64, 108
1, 67374, Note_on_c, 0, 58, 39
1, 67380, Control_c, 0, 64, 80
1, 67381, Note_on_c, 0, 54, 71
1, 67384, Note_on_c, 0, 65, 78
1, 67395, Control_c, 0, 64, 59
1, 67400, Note_on_c, 0, 75, 82
1, 67409, Control_c, 0, 64, 62
1, 67424, Control_c, 0, 64, 67
1, 67439, Control_c, 0, 64, 70
1, 67454, Control_c, 0, 64, 77
1, 67469, Control_c, 0, 64, 88
1, 67484, Control_c, 0, 64, 97
1, 67493, Note_off_c, 0, 82, 61
1, 67505, Control_c, 0, 64, 101
1, 67508, Note_off_c, 0, 75, 60
1, 67520, Control_c, 0, 64, 104
1, 67533, Note_on_c, 0, 84, 84
1, 67535, Control_c, 0, 64, 109
1, 67550, Control_c, 0, 64, 117
1, 67565, Control_c, 0, 64, 127
1, 67593, Note_off_c, 0, 84, 63
1, 67621, Note_off_c, 0, 65, 61
1, 67641, Note_on_c, 0, 85, 90
1, 67645, Note_on_c, 0, 77, 79
1, 67665, Note_off_c, 0, 54, 58
1, 67669, Note_off_c, 0, 77, 67
1, 67684, Note_off_c, 0, 85, 64
1, 67753, Note_on_c, 0, 78, 87
1, 67753, Note_on_c, 0, 87, 88
1, 67774, Note_off_c, 0, 78, 67
1, 67791, Note_off_c, 0, 87, 62
1, 67855, Note_on_c, 0, 63, 70
1, 67858, Note_on_c, 0, 54, 69
1, 67862, Note_on_c, 0, 89, 88
1, 67871, Note_on_c, 0, 80, 75
1, 67880, Note_off_c, 0, 63, 64
1, 67884, Note_off_c, 0, 58, 61
1, 67891, Note_off_c, 0, 54, 65
1, 67900, Note_off_c, 0, 80, 64
1, 67902, Note_off_c, 0, 89, 66
1, 67977, Note_on_c, 0, 90, 85
1, 67982, Note_on_c, 0, 82, 81
1, 68000, Note_on_c, 0, 46, 70
1, 68063, Note_off_c, 0, 90, 62
1, 68067, Note_on_c, 0, 53, 62
1, 68099, Control_c, 0, 64, 93
1, 68113, Control_c, 0, 64, 69
1, 68128, Control_c, 0, 64, 0
1, 68148, Note_on_c, 0, 85, 82
1, 68152, Note_on_c, 0, 89, 85
1, 68163, Note_on_c, 0, 61, 76
1, 68163, Note_off_c, 0, 82, 58
1, 68187, Control_c, 0, 64, 70
1, 68202, Control_c, 0, 64, 79
1, 68217, Control_c, 0, 64, 88
1, 68232, Control_c, 0, 64, 96
1, 68255, Control_c, 0, 64, 101
1, 68269, Control_c, 0, 64, 107
1, 68281, Note_on_c, 0, 82, 85
1, 68284, Control_c, 0, 64, 117
1, 68286, Note_off_c, 0, 89, 61
1, 68295, Note_off_c, 0, 46, 61
1, 68299, Control_c, 0, 64, 127
1, 68301, Note_off_c, 0, 61, 59
1, 68321, Note_off_c, 0, 85, 61
1, 68349, Note_off_c, 0, 53, 54
1, 68364, Note_off_c, 0, 82, 60
1, 68387, Note_on_c, 0, 77, 77
1, 68419, Note_off_c, 0, 77, 60
1, 68486, Note_on_c, 0, 73, 76
1, 68569, Note_on_c, 0, 61, 56
1, 68569, Poly_aftertouch_c, 0, 53, 127
1, 68572, Note_on_c, 0, 53, 3
1, 68587, Note_off_c, 0, 73, 58
1, 68592, Note_off_c, 0, 61, 63
1, 68605, Note_on_c, 0, 71, 65
1, 68608, Note_on_c, 0, 77, 73
1, 68612, Note_off_c, 0, 53, 59
1, 68635, Note_off_c, 0, 71, 63
1, 68664, Note_on_c, 0, 46, 67
1, 68693, Note_off_c, 0, 77, 57
1, 68694, Note_on_c, 0, 70, 70
1, 68746, Note_on_c, 0, 51, 54
1, 68798, Note_on_c, 0, 54, 58
1, 68816, Note_off_c, 0, 70, 54
1, 68858, Note_on_c, 0, 77, 66
1, 68862, Control_c, 0, 64, 84
1, 68864, Note_on_c, 0, 61, 69
1, 68877, Control_c, 0, 64, 64
1, 68879, Note_on_c, 0, 68, 54
1, 68892, Control_c, 0, 64, 0
1, 68934, Note_off_c, 0, 77, 60
1, 68947, Note_on_c, 0, 75, 65
1, 68951, Control_c, 0, 64, 65
1, 68966, Control_c, 0, 64, 72
1, 68968, Note_off_c, 0, 68, 55
1, 68989, Control_c, 0, 64, 79
1, 68998, Note_off_c, 0, 75, 60
1, 69004, Control_c, 0, 64, 86
1, 69016, Note_on_c, 0, 77, 62
1, 69018, Control_c, 0, 64, 93
1, 69033, Control_c, 0, 64, 98
1, 69043, Note_off_c, 0, 77, 56
1, 69048, Control_c, 0, 64, 104
1, 69055, Note_off_c, 0, 61, 59
1, 69062, Control_c, 0, 64, 109
1, 69074, Note_on_c, 0, 75, 64
1, 69077, Control_c, 0, 64, 117
1, 69092, Control_c, 0, 64, 127
1, 69105, Note_off_c, 0, 75, 65
1, 69166, Note_on_c, 0, 59, 45
1, 69176, Note_on_c, 0, 75, 59
1, 69194, Poly_aftertouch_c, 0, 77, 127
1, 69201, Note_on_c, 0, 57, 16
1, 69204, Note_off_c, 0, 75, 54
1, 69210, Note_off_c, 0, 59, 57
1, 69242, Note_off_c, 0, 57, 54
1, 69250, Poly_aftertouch_c, 0, 77, 0
1, 69274, Note_on_c, 0, 66, 70
1, 69308, Note_off_c, 0, 66, 63
1, 69413, Note_on_c, 0, 59, 64
1, 69415, Note_on_c, 0, 68, 63
1, 69439, Note_off_c, 0, 59, 63
1, 69479, Note_off_c, 0, 68, 61
1, 69496, Note_off_c, 0, 54, 48
1, 69499, Note_off_c, 0, 51, 60
1, 69505, Note_on_c, 0, 77, 74
1, 69514, Note_off_c, 0, 46, 62
1, 69590, Note_on_c, 0, 75, 74
1, 69597, Note_off_c, 0, 77, 51
1, 69718, Note_on_c, 0, 34, 50
1, 69767, Control_c, 0, 64, 117
1, 69782, Control_c, 0, 64, 90
1, 69795, Note_off_c, 0, 75, 58
1, 69797, Control_c, 0, 64, 67
1, 69805, Note_on_c, 0, 65, 41
1, 69805, Note_on_c, 0, 74, 57
1, 69812, Control_c, 0, 64, 0
1, 69815, Note_on_c, 0, 46, 42
1, 69816, Note_on_c, 0, 70, 44
1, 69894, Note_off_c, 0, 65, 56
1, 69901, Control_c, 0, 64, 64
1, 69916, Control_c, 0, 64, 71
1, 69916, Note_off_c, 0, 34, 62
1, 69931, Control_c, 0, 64, 77
1, 69946, Control_c, 0, 64, 82
1, 69960, Note_off_c, 0, 46, 61
1, 69960, Control_c, 0, 64, 87
1, 69967, Note_off_c, 0, 70, 25
1, 69975, Control_c, 0, 64, 90
1, 69976, Note_off_c, 0, 74, 57
1, 69990, Control_c, 0, 64, 93
1, 70005, Control_c, 0, 64, 95
1, 70019, Control_c, 0, 64, 97
1, 70034, Control_c, 0, 64, 100
1, 70049, Control_c, 0, 64, 102
1, 70064, Control_c, 0, 64, 104
1, 70093, Control_c, 0, 64, 107
1, 70124, Control_c, 0, 64, 110
1, 70169, Control_c, 0, 64, 113
1, 70198, Control_c, 0, 64, 117
1, 70213, Control_c, 0, 64, 124
1, 70228, Control_c, 0, 64, 127
1, 70370, Note_on_c, 0, 65, 53
1, 70380, Note_on_c, 0, 56, 48
1, 70380, Note_on_c, 0, 82, 53
1, 70389, Note_on_c, 0, 70, 37
1, 70393, Note_on_c, 0, 58, 41
1, 70422, Note_off_c, 0, 70, 56
1, 70477, Note_off_c, 0, 65, 53
1, 70590, Control_c, 0, 64, 107
1, 70605, Control_c, 0, 64, 82
1, 70620, Control_c, 0, 64, 72
1, 70635, Note_off_c, 0, 58, 0
1, 70650, Control_c, 0, 64, 76
1, 70661, Note_on_c, 0, 65, 63
1, 70665, Control_c, 0, 64, 81
1, 70673, Poly_aftertouch_c, 0, 58, 127
1, 70674, Note_on_c, 0, 54, 49
1, 70674, Note_on_c, 0, 58, 3
1, 70680, Control_c, 0, 64, 87
1, 70689, Note_on_c, 0, 75, 52
1, 70694, Control_c, 0, 64, 96
1, 70708, Note_off_c, 0, 56, 28
1, 70709, Control_c, 0, 64, 102
1, 70724, Control_c, 0, 64, 107
1, 70739, Control_c, 0, 64, 113
1, 70742, Note_off_c, 0, 82, 58
1, 70754, Control_c, 0, 64, 121
1, 70767, Note_off_c, 0, 65, 63
1, 70769, Control_c, 0, 64, 127
1, 70774, Note_off_c, 0, 75, 55
1, 70797, Note_on_c, 0, 84, 66
1, 70859, Note_off_c, 0, 84, 61
1, 70916, Note_on_c, 0, 66, 84
1, 70927, Note_on_c, 0, 77, 64
1, 70929, Note_on_c, 0, 85, 70
1, 70957, Note_off_c, 0, 77, 63
1, 70965, Note_off_c, 0, 85, 59
1, 71001, Note_off_c, 0, 66, 61
1, 71048, Note_on_c, 0, 78, 67
1, 71055, Note_on_c, 0, 87, 58
1, 71076, Note_off_c, 0, 78, 65
1, 71088, Note_off_c, 0, 87, 66
1, 71132, Note_on_c, 0, 63, 75
1, 71156, Note_on_c, 0, 89, 83
1, 71156, Note_off_c, 0, 63, 66
1, 71171, Note_off_c, 0, 58, 52
1, 71174, Note_on_c, 0, 80, 55
1, 71180, Note_off_c, 0, 54, 62
1, 71194, Note_off_c, 0, 80, 64
1, 71196, Note_off_c, 0, 89, 62
1, 71288, Note_on_c, 0, 90, 77
1, 71298, Note_on_c, 0, 82, 60
1, 71312, Note_on_c, 0, 46, 58
1, 71319, Note_off_c, 0, 82, 60
1, 71381, Note_on_c, 0, 53, 58
1, 71382, Note_on_c, 0, 82, 54
1, 71384, Note_off_c, 0, 90, 61
1, 71434, Note_off_c, 0, 82, 53
1, 71443, Control_c, 0, 64, 85
1, 71452, Note_on_c, 0, 89, 73
1, 71457, Note_on_c, 0, 85, 64
1, 71458, Control_c, 0, 64, 64
1, 71461, Note_on_c, 0, 61, 72
1, 71472, Control_c, 0, 64, 0
1, 71517, Control_c, 0, 64, 34
1, 71532, Control_c, 0, 64, 69
1, 71547, Control_c, 0, 64, 77
1, 71562, Control_c, 0, 64, 86
1, 71571, Note_off_c, 0, 89, 57
1, 71577, Control_c, 0, 64, 94
1, 71581, Note_on_c, 0, 82, 68
1, 71588, Note_off_c, 0, 61, 54
1, 71592, Control_c, 0, 64, 100
1, 71606, Control_c, 0, 64, 107
1, 71614, Note_off_c, 0, 85, 57
1, 71621, Control_c, 0, 64, 117
1, 71633, Note_off_c, 0, 46, 59
1, 71636, Control_c, 0, 64, 127
1, 71642, Note_off_c, 0, 82, 60
1, 71667, Note_off_c, 0, 53, 59
1, 71677, Note_on_c, 0, 77, 64
1, 71711, Note_off_c, 0, 77, 60
1, 71777, Note_on_c, 0, 73, 70
1, 71882, Note_off_c, 0, 73, 59
1, 71916, Note_on_c, 0, 77, 67
1, 71920, Note_on_c, 0, 71, 56
1, 71933, Note_on_c, 0, 46, 66
1, 71989, Note_off_c, 0, 71, 56
1, 72030, Note_on_c, 0, 70, 58
1, 72042, Note_off_c, 0, 77, 57
1, 72168, Note_off_c, 0, 70, 56
1, 72192, Control_c, 0, 64, 103
1, 72194, Note_on_c, 0, 77, 61
1, 72204, Note_on_c, 0, 68, 52
1, 72207, Control_c, 0, 64, 78
1, 72211, Note_off_c, 0, 46, 60
1, 72218, Note_on_c, 0, 61, 53
1, 72221, Note_on_c, 0, 51, 43
1, 72221, Control_c, 0, 64, 0
1, 72247, Note_on_c, 0, 54, 22
1, 72256, Note_off_c, 0, 77, 58
1, 72295, Note_on_c, 0, 75, 43
1, 72295, Control_c, 0, 64, 65
1, 72310, Control_c, 0, 64, 68
1, 72322, Note_off_c, 0, 75, 57
1, 72325, Control_c, 0, 64, 71
1, 72336, Note_off_c, 0, 61, 58
1, 72337, Note_on_c, 0, 77, 59
1, 72340, Control_c, 0, 64, 74
1, 72355, Control_c, 0, 64, 77
1, 72363, Note_off_c, 0, 77, 59
1, 72370, Control_c, 0, 64, 80
1, 72385, Control_c, 0, 64, 82
1, 72400, Control_c, 0, 64, 84
1, 72410, Note_off_c, 0, 68, 58
1, 72414, Control_c, 0, 64, 86
1, 72429, Control_c, 0, 64, 90
1, 72438, Note_on_c, 0, 77, 63
1, 72444, Control_c, 0, 64, 95
1, 72459, Control_c, 0, 64, 100
1, 72462, Poly_aftertouch_c, 0, 75, 127
1, 72471, Note_off_c, 0, 77, 46
1, 72474, Control_c, 0, 64, 105
1, 72488, Control_c, 0, 64, 110
1, 72490, Note_on_c, 0, 63, 56
1, 72504, Control_c, 0, 64, 116
1, 72519, Control_c, 0, 64, 127
1, 72537, Note_off_c, 0, 63, 59
1, 72585, Poly_aftertouch_c, 0, 77, 127
1, 72596, Note_on_c, 0, 66, 72
1, 72617, Poly_aftertouch_c, 0, 77, 0
1, 72623, Note_off_c, 0, 66, 67
1, 72747, Note_on_c, 0, 68, 64
1, 72751, Poly_aftertouch_c, 0, 75, 0
1, 72754, Note_on_c, 0, 59, 44
1, 72782, Note_off_c, 0, 59, 51
1, 72807, Note_off_c, 0, 54, 40
1, 72814, Note_off_c, 0, 68, 56
1, 72815, Note_off_c, 0, 51, 61
1, 72838, Note_on_c, 0, 77, 64
1, 72929, Note_on_c, 0, 75, 63
1, 73016, Note_off_c, 0, 77, 30
1, 73083, Note_off_c, 0, 75, 59
1, 73102, Note_on_c, 0, 34, 48
1, 73104, Control_c, 0, 64, 108
1, 73118, Control_c, 0, 64, 76
1, 73119, Note_on_c, 0, 74, 52
1, 73120, Note_on_c, 0, 46, 46
1, 73127, Note_on_c, 0, 65, 41
1, 73133, Control_c, 0, 64, 0
1, 73137, Note_on_c, 0, 70, 31
1, 73222, Control_c, 0, 64, 62
1, 73237, Control_c, 0, 64, 71
1, 73250, Note_off_c, 0, 34, 58
1, 73252, Control_c, 0, 64, 76
1, 73267, Note_off_c, 0, 65, 40
1, 73267, Control_c, 0, 64, 81
1, 73268, Note_off_c, 0, 74, 58
1, 73282, Control_c, 0, 64, 84
1, 73291, Note_off_c, 0, 46, 57
1, 73297, Control_c, 0, 64, 87
1, 73303, Note_off_c, 0, 70, 20
1, 73312, Control_c, 0, 64, 89
1, 73327, Control_c, 0, 64, 90
1, 73341, Control_c, 0, 64, 91
1, 73356, Control_c, 0, 64, 92
1, 73371, Control_c, 0, 64, 94
1, 73386, Control_c, 0, 64, 96
1, 73401, Control_c, 0, 64, 100
1, 73416, Control_c, 0, 64, 104
1, 73431, Control_c, 0, 64, 107
1, 73482, Control_c, 0, 64, 109
1, 73497, Control_c, 0, 64, 111
1, 73512, Control_c, 0, 64, 116
1, 73527, Control_c, 0, 64, 119
1, 73698, Note_on_c, 0, 70, 74
1, 73708, Note_on_c, 0, 62, 45
1, 73710, Note_on_c, 0, 65, 56
1, 73725, Note_on_c, 0, 56, 45
1, 73809, Control_c, 0, 64, 116
1, 73817, Note_off_c, 0, 62, 61
1, 73839, Control_c, 0, 64, 113
1, 73868, Control_c, 0, 64, 110
1, 73875, Note_off_c, 0, 65, 57
1, 73898, Control_c, 0, 64, 108
1, 73928, Control_c, 0, 64, 106
1, 74016, Control_c, 0, 64, 104
1, 74031, Control_c, 0, 64, 92
1, 74046, Control_c, 0, 64, 77
1, 74050, Note_on_c, 0, 66, 51
1, 74050, Note_off_c, 0, 56, 51
1, 74061, Control_c, 0, 64, 63
1, 74069, Note_on_c, 0, 75, 54
1, 74074, Note_on_c, 0, 63, 47
1, 74075, Note_on_c, 0, 54, 35
1, 74076, Control_c, 0, 64, 0
1, 74121, Note_off_c, 0, 70, 58
1, 74152, Control_c, 0, 64, 64
1, 74162, Note_off_c, 0, 63, 59
1, 74166, Control_c, 0, 64, 71
1, 74181, Control_c, 0, 64, 78
1, 74196, Control_c, 0, 64, 85
1, 74202, Note_off_c, 0, 66, 58
1, 74211, Control_c, 0, 64, 90
1, 74226, Control_c, 0, 64, 94
1, 74248, Control_c, 0, 64, 99
1, 74263, Control_c, 0, 64, 105
1, 74277, Control_c, 0, 64, 113
1, 74286, Note_on_c, 0, 71, 54
1, 74292, Control_c, 0, 64, 127
1, 74295, Note_on_c, 0, 63, 56
1, 74296, Note_off_c, 0, 75, 49
1, 74329, Note_off_c, 0, 54, 39
1, 74388, Note_off_c, 0, 63, 53
1, 74436, Note_on_c, 0, 75, 61
1, 74441, Note_on_c, 0, 66, 48
1, 74447, Note_off_c, 0, 71, 58
1, 74498, Note_off_c, 0, 66, 58
1, 74534, Note_off_c, 0, 75, 57
1, 74562, Note_on_c, 0, 70, 55
1, 74565, Note_on_c, 0, 61, 47
1, 74644, Note_off_c, 0, 61, 52
1, 74669, Note_on_c, 0, 34, 44
1, 74698, Note_off_c, 0, 70, 59
1, 74699, Note_on_c, 0, 75, 50
1, 74715, Note_on_c, 0, 66, 31
1, 74731, Note_off_c, 0, 75, 64
1, 74751, Note_off_c, 0, 66, 44
1, 74814, Note_on_c, 0, 68, 56
1, 74838, Note_on_c, 0, 59, 29
1, 74873, Note_off_c, 0, 59, 49
1, 74898, Control_c, 0, 64, 115
1, 74914, Control_c, 0, 64, 109
1, 74929, Control_c, 0, 64, 107
1, 75011, Control_c, 0, 64, 92
1, 75025, Note_off_c, 0, 68, 59
1, 75026, Control_c, 0, 64, 74
1, 75034, Note_on_c, 0, 46, 45
1, 75040, Control_c, 0, 64, 0
1, 75050, Note_on_c, 0, 70, 55
1, 75058, Note_on_c, 0, 58, 47
1, 75112, Note_off_c, 0, 58, 51
1, 75129, Control_c, 0, 64, 66
1, 75144, Control_c, 0, 64, 74
1, 75159, Control_c, 0, 64, 80
1, 75174, Control_c, 0, 64, 85
1, 75175, Note_off_c, 0, 34, 57
1, 75187, Note_off_c, 0, 70, 53
1, 75188, Control_c, 0, 64, 88
1, 75203, Control_c, 0, 64, 91
1, 75218, Control_c, 0, 64, 94
1, 75228, Note_off_c, 0, 46, 56
1, 75232, Control_c, 0, 64, 97
1, 75247, Control_c, 0, 64, 100
1, 75262, Control_c, 0, 64, 102
1, 75292, Control_c, 0, 64, 106
1, 75306, Control_c, 0, 64, 109
1, 75321, Control_c, 0, 64, 112
1, 75336, Control_c, 0, 64, 115
1, 75395, Control_c, 0, 64, 117
1, 75425, Control_c, 0, 64, 119
1, 75485, Control_c, 0, 64, 121
1, 75499, Control_c, 0, 64, 127
1, 75576, Note_on_c, 0, 61, 51
1, 75576, Note_on_c, 0, 70, 68
1, 75589, Note_on_c, 0, 53, 44
1, 75592, Note_on_c, 0, 65, 54
1, 75667, Note_off_c, 0, 61, 59
1, 75744, Control_c, 0, 64, 123
1, 75774, Control_c, 0, 64, 119
1, 75804, Control_c, 0, 64, 117
1, 75892, Control_c, 0, 64, 102
1, 75907, Control_c, 0, 64, 82
1, 75908, Note_on_c, 0, 59, 51
1, 75914, Note_off_c, 0, 53, 34
1, 75919, Note_off_c, 0, 65, 34
1, 75922, Note_on_c, 0, 66, 51
1, 75922, Note_on_c, 0, 75, 63
1, 75922, Control_c, 0, 64, 23
1, 75923, Note_on_c, 0, 51, 45
1, 75936, Control_c, 0, 64, 0
1, 75976, Note_off_c, 0, 70, 58
1, 75995, Control_c, 0, 64, 68
1, 76010, Control_c, 0, 64, 75
1, 76025, Control_c, 0, 64, 82
1, 76040, Control_c, 0, 64, 90
1, 76053, Note_off_c, 0, 59, 38
1, 76054, Note_off_c, 0, 66, 62
1, 76054, Control_c, 0, 64, 95
1, 76069, Control_c, 0, 64, 99
1, 76084, Control_c, 0, 64, 105
1, 76099, Control_c, 0, 64, 113
1, 76108, Note_on_c, 0, 71, 70
1, 76114, Note_on_c, 0, 63, 62
1, 76114, Control_c, 0, 64, 127
1, 76147, Note_off_c, 0, 75, 62
1, 76155, Note_off_c, 0, 51, 59
1, 76222, Note_off_c, 0, 63, 54
1, 76254, Note_on_c, 0, 66, 64
1, 76254, Note_on_c, 0, 75, 77
1, 76270, Note_off_c, 0, 71, 57
1, 76358, Note_off_c, 0, 75, 55
1, 76365, Note_on_c, 0, 70, 73
1, 76367, Note_off_c, 0, 66, 61
1, 76370, Note_on_c, 0, 61, 68
1, 76460, Note_off_c, 0, 61, 57
1, 76493, Note_on_c, 0, 34, 69
1, 76496, Note_on_c, 0, 75, 71
1, 76503, Note_on_c, 0, 66, 68
1, 76518, Note_off_c, 0, 70, 59
1, 76530, Note_off_c, 0, 66, 66
1, 76530, Note_off_c, 0, 75, 62
1, 76612, Note_on_c, 0, 68, 70
1, 76617, Note_on_c, 0, 59, 65
1, 76638, Note_off_c, 0, 59, 64
1, 76695, Note_off_c, 0, 68, 54
1, 76805, Note_on_c, 0, 46, 72
1, 76833, Control_c, 0, 64, 113
1, 76848, Control_c, 0, 64, 80
1, 76863, Control_c, 0, 64, 0
1, 76883, Note_on_c, 0, 58, 75
1, 76922, Control_c, 0, 64, 63
1, 76937, Control_c, 0, 64, 72
1, 76941, Note_off_c, 0, 58, 63
1, 76951, Control_c, 0, 64, 79
1, 76966, Control_c, 0, 64, 87
1, 76981, Control_c, 0, 64, 96
1, 76996, Control_c, 0, 64, 102
1, 77011, Control_c, 0, 64, 109
1, 77018, Note_off_c, 0, 34, 61
1, 77026, Control_c, 0, 64, 119
1, 77041, Control_c, 0, 64, 127
1, 77050, Note_off_c, 0, 46, 58
1, 77057, Note_on_c, 0, 70, 11
1, 77115, Note_on_c, 0, 71, 57
1, 77118, Note_off_c, 0, 70, 60
1, 77162, Note_off_c, 0, 71, 57
1, 77186, Note_on_c, 0, 70, 61
1, 77215, Note_off_c, 0, 70, 65
1, 77230, Note_on_c, 0, 71, 62
1, 77260, Note_off_c, 0, 71, 63
1, 77282, Note_on_c, 0, 70, 69
1, 77312, Note_on_c, 0, 71, 70
1, 77318, Note_off_c, 0, 70, 62
1, 77360, Note_off_c, 0, 71, 62
1, 77375, Note_on_c, 0, 70, 71
1, 77408, Note_on_c, 0, 62, 63
1, 77414, Note_on_c, 0, 53, 56
1, 77414, Note_off_c, 0, 70, 60
1, 77418, Note_on_c, 0, 71, 65
1, 77422, Note_on_c, 0, 58, 49
1, 77435, Note_on_c, 0, 50, 50
1, 77449, Note_off_c, 0, 71, 63
1, 77468, Note_off_c, 0, 62, 61
1, 77470, Note_off_c, 0, 58, 62
1, 77476, Note_on_c, 0, 70, 71
1, 77480, Note_off_c, 0, 53, 62
1, 77497, Note_off_c, 0, 50, 57
1, 77515, Note_off_c, 0, 70, 58
1, 77518, Note_on_c, 0, 71, 73
1, 77542, Note_off_c, 0, 71, 65
1, 77574, Note_on_c, 0, 70, 69
1, 77604, Note_off_c, 0, 70, 61
1, 77608, Note_on_c, 0, 71, 68
1, 77640, Note_off_c, 0, 71, 62
1, 77659, Note_on_c, 0, 70, 76
1, 77700, Note_on_c, 0, 71, 67
1, 77708, Note_off_c, 0, 70, 62
1, 77716, Note_on_c, 0, 62, 81
1, 77721, Note_on_c, 0, 53, 70
1, 77726, Note_on_c, 0, 58, 66
1, 77728, Note_on_c, 0, 50, 73
1, 77746, Note_off_c, 0, 71, 56
1, 77759, Note_on_c, 0, 70, 71
1, 77773, Note_off_c, 0, 62, 61
1, 77806, Note_off_c, 0, 70, 61
1, 77807, Note_on_c, 0, 71, 63
1, 77812, Note_off_c, 0, 58, 62
1, 77844, Note_off_c, 0, 53, 61
1, 77853, Note_off_c, 0, 50, 63
1, 77860, Note_on_c, 0, 70, 72
1, 77881, Note_off_c, 0, 71, 0
1, 77894, Note_on_c, 0, 71, 47
1, 77905, Note_off_c, 0, 70, 56
1, 77953, Note_on_c, 0, 70, 71
1, 77955, Note_off_c, 0, 71, 61
1, 78010, Note_on_c, 0, 71, 59
1, 78010, Note_off_c, 0, 70, 62
1, 78055, Note_off_c, 0, 71, 60
1, 78061, Note_on_c, 0, 70, 69
1, 78110, Note_on_c, 0, 71, 58
1, 78115, Note_off_c, 0, 70, 60
1, 78154, Note_off_c, 0, 71, 62
1, 78163, Note_on_c, 0, 70, 64
1, 78203, Note_off_c, 0, 70, 61
1, 78212, Note_on_c, 0, 71, 59
1, 78248, Note_off_c, 0, 71, 61
1, 78249, Note_on_c, 0, 46, 84
1, 78252, Note_on_c, 0, 34, 80
1, 78268, Note_on_c, 0, 70, 57
1, 78293, Note_off_c, 0, 70, 64
1, 78307, Note_on_c, 0, 71, 60
1, 78319, Note_off_c, 0, 34, 58
1, 78329, Note_off_c, 0, 71, 59
1, 78344, Note_off_c, 0, 46, 37
1, 78353, Note_on_c, 0, 70, 62
1, 78378, Note_on_c, 0, 71, 53
1, 78381, Note_off_c, 0, 70, 62
1, 78395, Note_off_c, 0, 71, 67
1, 78442, Poly_aftertouch_c, 0, 70, 127
1, 78513, Poly_aftertouch_c, 0, 34, 0
1, 78530, Poly_aftertouch_c, 0, 70, 0
1, 78537, Note_on_c, 0, 34, 69
1, 78539, Note_on_c, 0, 46, 88
1, 78550, Note_on_c, 0, 71, 41
1, 78557, Note_on_c, 0, 75, 66
1, 78568, Control_c, 0, 64, 90
1, 78582, Control_c, 0, 64, 65
1, 78597, Control_c, 0, 64, 0
1, 78641, Note_off_c, 0, 75, 62
1, 78644, Note_on_c, 0, 74, 70
1, 78651, Note_on_c, 0, 70, 66
1, 78662, Note_off_c, 0, 71, 62
1, 78671, Control_c, 0, 64, 70
1, 78686, Control_c, 0, 64, 78
1, 78689, Note_off_c, 0, 70, 61
1, 78699, Note_off_c, 0, 74, 57
1, 78701, Control_c, 0, 64, 86
1, 78711, Note_on_c, 0, 75, 77
1, 78716, Control_c, 0, 64, 94
1, 78728, Note_off_c, 0, 34, 61
1, 78738, Control_c, 0, 64, 102
1, 78753, Control_c, 0, 64, 110
1, 78758, Note_on_c, 0, 71, 56
1, 78759, Note_off_c, 0, 46, 55
1, 78768, Control_c, 0, 64, 124
1, 78772, Note_on_c, 0, 70, 79
1, 78772, Note_off_c, 0, 75, 59
1, 78782, Control_c, 0, 64, 127
1, 78787, Note_on_c, 0, 74, 58
1, 78812, Note_off_c, 0, 71, 57
1, 78816, Note_off_c, 0, 74, 57
1, 78823, Note_off_c, 0, 70, 61
1, 78825, Note_on_c, 0, 75, 71
1, 78875, Note_on_c, 0, 71, 57
1, 78878, Note_on_c, 0, 70, 69
1, 78882, Note_off_c, 0, 75, 59
1, 78896, Note_on_c, 0, 74, 56
1, 78922, Note_off_c, 0, 74, 60
1, 78924, Note_off_c, 0, 70, 62
1, 78928, Note_on_c, 0, 75, 71
1, 78940, Note_off_c, 0, 71, 60
1, 78973, Note_on_c, 0, 71, 42
1, 78981, Note_on_c, 0, 70, 70
1, 78981, Note_off_c, 0, 75, 62
1, 78999, Note_on_c, 0, 74, 52
1, 79026, Note_off_c, 0, 70, 62
1, 79027, Note_off_c, 0, 74, 55
1, 79032, Note_off_c, 0, 71, 61
1, 79034, Note_on_c, 0, 75, 77
1, 79083, Note_on_c, 0, 71, 49
1, 79084, Note_off_c, 0, 75, 62
1, 79090, Note_on_c, 0, 70, 68
1, 79102, Note_on_c, 0, 65, 85
1, 79113, Note_on_c, 0, 53, 77
1, 79113, Note_on_c, 0, 58, 72
1, 79120, Note_on_c, 0, 74, 28
1, 79127, Note_off_c, 0, 71, 63
1, 79128, Note_off_c, 0, 70, 62
1, 79136, Note_on_c, 0, 75, 77
1, 79151, Note_off_c, 0, 58, 55
1, 79157, Note_off_c, 0, 74, 53
1, 79190, Note_off_c, 0, 75, 62
1, 79193, Note_on_c, 0, 71, 68
1, 79193, Note_on_c, 0, 70, 76
1, 79198, Note_off_c, 0, 65, 59
1, 79201, Note_off_c, 0, 53, 53
1, 79227, Note_off_c, 0, 71, 58
1, 79241, Note_off_c, 0, 70, 63
1, 79247, Note_on_c, 0, 75, 82
1, 79270, Poly_aftertouch_c, 0, 78, 0
1, 79276, Poly_aftertouch_c, 0, 74, 127
1, 79296, Note_on_c, 0, 70, 70
1, 79296, Note_on_c, 0, 71, 69
1, 79298, Note_off_c, 0, 75, 61
1, 79333, Note_off_c, 0, 71, 61
1, 79341, Note_off_c, 0, 70, 63
1, 79350, Note_on_c, 0, 75, 76
1, 79399, Poly_aftertouch_c, 0, 74, 0
1, 79408, Note_on_c, 0, 65, 92
1, 79408, Note_on_c, 0, 71, 68
1, 79408, Note_off_c, 0, 75, 62
1, 79410, Note_on_c, 0, 70, 74
1, 79414, Note_on_c, 0, 58, 80
1, 79415, Note_on_c, 0, 53, 80
1, 79416, Note_on_c, 0, 74, 38
1, 79445, Note_off_c, 0, 71, 52
1, 79454, Note_off_c, 0, 70, 63
1, 79457, Note_off_c, 0, 65, 63
1, 79463, Note_on_c, 0, 75, 75
1, 79480, Note_off_c, 0, 74, 60
1, 79485, Poly_aftertouch_c, 0, 78, 0
1, 79527, Note_on_c, 0, 74, 44
1, 79529, Note_on_c, 0, 70, 72
1, 79530, Note_off_c, 0, 75, 61
1, 79531, Note_on_c, 0, 71, 67
1, 79534, Note_off_c, 0, 58, 58
1, 79552, Note_off_c, 0, 53, 65
1, 79575, Note_off_c, 0, 70, 63
1, 79578, Note_on_c, 0, 75, 74
1, 79581, Note_off_c, 0, 71, 53
1, 79587, Note_off_c, 0, 74, 61
1, 79631, Note_on_c, 0, 70, 72
1, 79643, Note_off_c, 0, 75, 60
1, 79646, Poly_aftertouch_c, 0, 71, 127
1, 79649, Note_on_c, 0, 74, 51
1, 79675, Poly_aftertouch_c, 0, 75, 0
1, 79676, Poly_aftertouch_c, 0, 71, 0
1, 79678, Note_off_c, 0, 70, 62
1, 79682, Note_on_c, 0, 75, 69
1, 79695, Note_off_c, 0, 74, 54
1, 79738, Note_on_c, 0, 71, 63
1, 79745, Note_on_c, 0, 70, 77
1, 79747, Note_off_c, 0, 75, 62
1, 79764, Note_on_c, 0, 74, 42
1, 79786, Note_off_c, 0, 70, 64
1, 79786, Note_off_c, 0, 71, 60
1, 79798, Note_on_c, 0, 75, 70
1, 79819, Note_off_c, 0, 74, 41
1, 79828, Note_on_c, 0, 78, 47
1, 79851, Note_off_c, 0, 78, 58
1, 79854, Note_on_c, 0, 71, 58
1, 79856, Note_on_c, 0, 70, 74
1, 79858, Note_off_c, 0, 75, 61
1, 79860, Note_on_c, 0, 74, 46
1, 79897, Note_off_c, 0, 70, 62
1, 79897, Note_off_c, 0, 71, 60
1, 79908, Note_on_c, 0, 75, 70
1, 79911, Note_off_c, 0, 74, 61
1, 79929, Note_on_c, 0, 78, 54
1, 79948, Note_off_c, 0, 78, 62
1, 79960, Note_on_c, 0, 44, 86
1, 79968, Note_on_c, 0, 74, 52
1, 79969, Note_on_c, 0, 32, 83
1, 79971, Note_on_c, 0, 71, 63
1, 79971, Note_off_c, 0, 75, 61
1, 79972, Note_on_c, 0, 70, 72
1, 79993, Note_off_c, 0, 71, 59
1, 79998, Note_off_c, 0, 70, 61
1, 80020, Note_on_c, 0, 75, 72
1, 80053, Note_on_c, 0, 78, 27
1, 80055, Note_off_c, 0, 74, 0
1, 80073, Note_on_c, 0, 71, 67
1, 80074, Note_off_c, 0, 44, 51
1, 80078, Note_on_c, 0, 70, 69
1, 80080, Note_on_c, 0, 74, 31
1, 80087, Note_off_c, 0, 78, 45
1, 80088, Note_off_c, 0, 75, 61
1, 80102, Note_off_c, 0, 71, 64
1, 80116, Note_off_c, 0, 70, 62
1, 80130, Note_on_c, 0, 75, 68
1, 80197, Note_on_c, 0, 70, 56
1, 80212, Note_off_c, 0, 75, 57
1, 80339, Note_on_c, 0, 30, 81
1, 80339, Note_on_c, 0, 42, 82
1, 80349, Note_off_c, 0, 32, 60
1, 80378, Note_off_c, 0, 70, 55
1, 80385, Control_c, 0, 64, 106
1, 80386, Note_on_c, 0, 71, 72
1, 80397, Note_on_c, 0, 75, 83
1, 80400, Control_c, 0, 64, 73
1, 80405, Note_off_c, 0, 74, 59
1, 80415, Control_c, 0, 64, 0
1, 80488, Control_c, 0, 64, 63
1, 80491, Note_off_c, 0, 30, 63
1, 80505, Control_c, 0, 64, 71
1, 80519, Control_c, 0, 64, 77
1, 80534, Control_c, 0, 64, 83
1, 80536, Note_off_c, 0, 42, 60
1, 80549, Control_c, 0, 64, 89
1, 80564, Control_c, 0, 64, 92
1, 80567, Note_off_c, 0, 75, 62
1, 80568, Note_on_c, 0, 70, 63
1, 80576, Note_on_c, 0, 73, 65
1, 80578, Control_c, 0, 64, 95
1, 80593, Control_c, 0, 64, 99
1, 80608, Note_off_c, 0, 71, 0
1, 80608, Control_c, 0, 64, 105
1, 80623, Control_c, 0, 64, 111
1, 80629, Note_off_c, 0, 70, 61
1, 80638, Control_c, 0, 64, 116
1, 80640, Note_off_c, 0, 73, 60
1, 80645, Poly_aftertouch_c, 0, 71, 127
1, 80651, Note_on_c, 0, 75, 60
1, 80652, Control_c, 0, 64, 119
1, 80682, Control_c, 0, 64, 122
1, 80697, Control_c, 0, 64, 124
1, 80704, Note_off_c, 0, 75, 61
1, 80707, Note_on_c, 0, 70, 64
1, 80710, Note_on_c, 0, 73, 58
1, 80712, Control_c, 0, 64, 127
1, 80737, Note_off_c, 0, 70, 63
1, 80741, Note_off_c, 0, 73, 62
1, 80767, Note_on_c, 0, 75, 65
1, 80791, Note_on_c, 0, 49, 81
1, 80811, Poly_aftertouch_c, 0, 71, 0
1, 80821, Note_on_c, 0, 73, 66
1, 80826, Note_off_c, 0, 75, 61
1, 80829, Note_on_c, 0, 70, 67
1, 80831, Note_on_c, 0, 71, 26
1, 80867, Note_off_c, 0, 73, 56
1, 80873, Note_off_c, 0, 70, 60
1, 80885, Note_on_c, 0, 75, 64
1, 80934, Note_off_c, 0, 75, 59
1, 80944, Note_on_c, 0, 73, 63
1, 80946, Note_off_c, 0, 71, 0
1, 80946, Note_on_c, 0, 71, 3
1, 80960, Note_on_c, 0, 70, 62
1, 80987, Note_off_c, 0, 73, 58
1, 80993, Note_off_c, 0, 70, 65
1, 81007, Note_on_c, 0, 75, 69
1, 81052, Note_off_c, 0, 75, 58
1, 81059, Control_c, 0, 64, 123
1, 81063, Note_on_c, 0, 73, 65
1, 81069, Note_on_c, 0, 70, 59
1, 81074, Control_c, 0, 64, 120
1, 81088, Note_on_c, 0, 56, 86
1, 81089, Control_c, 0, 64, 117
1, 81101, Note_off_c, 0, 70, 62
1, 81103, Control_c, 0, 64, 112
1, 81104, Note_off_c, 0, 73, 54
1, 81118, Control_c, 0, 64, 107
1, 81124, Note_on_c, 0, 75, 72
1, 81133, Control_c, 0, 64, 103
1, 81148, Control_c, 0, 64, 99
1, 81163, Control_c, 0, 64, 97
1, 81178, Note_off_c, 0, 75, 59
1, 81189, Note_on_c, 0, 73, 69
1, 81190, Note_on_c, 0, 70, 62
1, 81192, Control_c, 0, 64, 95
1, 81207, Control_c, 0, 64, 94
1, 81226, Note_off_c, 0, 73, 57
1, 81232, Note_off_c, 0, 70, 62
1, 81249, Note_on_c, 0, 75, 58
1, 81281, Control_c, 0, 64, 93
1, 81287, Note_off_c, 0, 75, 63
1, 81296, Note_off_c, 0, 56, 58
1, 81297, Control_c, 0, 64, 85
1, 81308, Note_on_c, 0, 73, 60
1, 81312, Control_c, 0, 64, 70
1, 81324, Note_on_c, 0, 70, 51
1, 81327, Control_c, 0, 64, 0
1, 81339, Note_on_c, 0, 54, 81
1, 81342, Note_off_c, 0, 70, 65
1, 81346, Note_off_c, 0, 73, 61
1, 81362, Note_on_c, 0, 75, 67
1, 81387, Note_off_c, 0, 49, 60
1, 81396, Note_off_c, 0, 75, 62
1, 81400, Control_c, 0, 64, 66
1, 81415, Control_c, 0, 64, 72
1, 81417, Note_on_c, 0, 70, 56
1, 81430, Control_c, 0, 64, 74
1, 81431, Note_on_c, 0, 73, 48
1, 81445, Control_c, 0, 64, 76
1, 81458, Note_off_c, 0, 73, 56
1, 81460, Control_c, 0, 64, 77
1, 81464, Note_off_c, 0, 70, 64
1, 81467, Note_on_c, 0, 56, 77
1, 81474, Control_c, 0, 64, 79
1, 81476, Note_on_c, 0, 75, 64
1, 81487, Note_off_c, 0, 54, 55
1, 81489, Control_c, 0, 64, 81
1, 81504, Control_c, 0, 64, 82
1, 81515, Note_off_c, 0, 75, 61
1, 81518, Control_c, 0, 64, 79
1, 81533, Control_c, 0, 64, 74
1, 81541, Note_on_c, 0, 73, 59
1, 81548, Control_c, 0, 64, 68
1, 81552, Note_off_c, 0, 56, 64
1, 81563, Control_c, 0, 64, 69
1, 81569, Note_on_c, 0, 70, 34
1, 81573, Note_off_c, 0, 73, 57
1, 81578, Note_on_c, 0, 58, 83
1, 81578, Control_c, 0, 64, 72
1, 81593, Control_c, 0, 64, 76
1, 81594, Note_off_c, 0, 70, 49
1, 81599, Note_on_c, 0, 75, 62
1, 81608, Control_c, 0, 64, 80
1, 81622, Control_c, 0, 64, 82
1, 81629, Note_off_c, 0, 75, 55
1, 81652, Control_c, 0, 64, 81
1, 81663, Note_on_c, 0, 73, 50
1, 81669, Note_on_c, 0, 70, 58
1, 81688, Note_off_c, 0, 70, 64
1, 81691, Note_off_c, 0, 73, 54
1, 81706, Note_on_c, 0, 75, 63
1, 81737, Note_off_c, 0, 75, 59
1, 81771, Note_on_c, 0, 70, 52
1, 81777, Note_on_c, 0, 73, 44
1, 81801, Note_off_c, 0, 73, 59
1, 81810, Note_off_c, 0, 70, 64
1, 81813, Note_off_c, 0, 58, 59
1, 81814, Note_on_c, 0, 75, 60
1, 81822, Control_c, 0, 64, 80
1, 81837, Control_c, 0, 64, 75
1, 81840, Note_off_c, 0, 75, 56
1, 81842, Note_on_c, 0, 49, 77
1, 81844, Note_off_c, 0, 71, 50
1, 81852, Control_c, 0, 64, 69
1, 81855, Note_on_c, 0, 73, 54
1, 81867, Control_c, 0, 64, 64
1, 81882, Control_c, 0, 64, 65
1, 81884, Note_off_c, 0, 73, 62
1, 81897, Control_c, 0, 64, 68
1, 81908, Note_on_c, 0, 75, 49
1, 81912, Control_c, 0, 64, 70
1, 81926, Control_c, 0, 64, 71
1, 81941, Control_c, 0, 64, 72
1, 81971, Control_c, 0, 64, 71
1, 81986, Control_c, 0, 64, 72
1, 82015, Control_c, 0, 64, 72
1, 82030, Control_c, 0, 64, 72
1, 82044, Control_c, 0, 64, 70
1, 82059, Control_c, 0, 64, 65
1, 82074, Control_c, 0, 64, 0
1, 82083, Note_on_c, 0, 42, 78
1, 82109, Note_off_c, 0, 49, 63
1, 82149, Control_c, 0, 64, 38
1, 82164, Control_c, 0, 64, 67
1, 82179, Control_c, 0, 64, 70
1, 82194, Control_c, 0, 64, 72
1, 82209, Control_c, 0, 64, 76
1, 82223, Control_c, 0, 64, 81
1, 82238, Control_c, 0, 64, 86
1, 82253, Control_c, 0, 64, 90
1, 82268, Control_c, 0, 64, 92
1, 82283, Control_c, 0, 64, 93
1, 82297, Control_c, 0, 64, 95
1, 82327, Control_c, 0, 64, 99
1, 82341, Control_c, 0, 64, 101
1, 82356, Control_c, 0, 64, 104
1, 82371, Control_c, 0, 64, 106
1, 82386, Control_c, 0, 64, 108
1, 82389, Note_on_c, 0, 72, 80
1, 82401, Control_c, 0, 64, 110
1, 82404, Note_on_c, 0, 69, 43
1, 82406, Note_on_c, 0, 49, 64
1, 82415, Control_c, 0, 64, 113
1, 82430, Control_c, 0, 64, 115
1, 82440, Note_off_c, 0, 75, 58
1, 82445, Control_c, 0, 64, 118
1, 82460, Control_c, 0, 64, 122
1, 82483, Control_c, 0, 64, 127
1, 82489, Note_off_c, 0, 42, 52
1, 82640, Note_off_c, 0, 49, 61
1, 82645, Note_on_c, 0, 70, 74
1, 82646, Note_on_c, 0, 73, 77
1, 82652, Note_on_c, 0, 56, 60
1, 82664, Note_off_c, 0, 69, 58
1, 82678, Note_off_c, 0, 72, 60
1, 82728, Note_off_c, 0, 73, 61
1, 82788, Note_on_c, 0, 73, 66
1, 82838, Note_on_c, 0, 77, 76
1, 82839, Note_off_c, 0, 73, 62
1, 82842, Note_off_c, 0, 70, 61
1, 82854, Note_off_c, 0, 56, 61
1, 82882, Control_c, 0, 64, 92
1, 82898, Control_c, 0, 64, 72
1, 82910, Note_on_c, 0, 71, 12
1, 82911, Note_on_c, 0, 54, 60
1, 82913, Control_c, 0, 64, 0
1, 82916, Note_on_c, 0, 75, 79
1, 82946, Note_off_c, 0, 71, 46
1, 82972, Control_c, 0, 64, 66
1, 82987, Control_c, 0, 64, 73
1, 82991, Note_off_c, 0, 77, 46
1, 83002, Control_c, 0, 64, 78
1, 83017, Control_c, 0, 64, 83
1, 83032, Control_c, 0, 64, 87
1, 83035, Note_on_c, 0, 56, 65
1, 83046, Control_c, 0, 64, 91
1, 83061, Note_off_c, 0, 54, 56
1, 83061, Control_c, 0, 64, 95
1, 83076, Control_c, 0, 64, 99
1, 83090, Control_c, 0, 64, 102
1, 83105, Control_c, 0, 64, 107
1, 83120, Control_c, 0, 64, 111
1, 83135, Control_c, 0, 64, 117
1, 83150, Control_c, 0, 64, 127
1, 83182, Note_on_c, 0, 73, 86
1, 83183, Note_on_c, 0, 58, 73
1, 83211, Note_on_c, 0, 70, 44
1, 83227, Note_off_c, 0, 56, 58
1, 83244, Note_off_c, 0, 70, 56
1, 83313, Note_off_c, 0, 75, 37
1, 83401, Note_off_c, 0, 58, 61
1, 83417, Note_on_c, 0, 61, 59
1, 83447, Note_off_c, 0, 61, 63
1, 83450, Note_on_c, 0, 70, 88
1, 83459, Note_on_c, 0, 66, 69
1, 83487, Note_off_c, 0, 73, 61
1, 83765, Note_on_c, 0, 42, 36
1, 83795, Control_c, 0, 64, 123
1, 83825, Control_c, 0, 64, 120
1, 83840, Control_c, 0, 64, 114
1, 83855, Control_c, 0, 64, 95
1, 83868, Note_on_c, 0, 78, 80
1, 83869, Control_c, 0, 64, 75
1, 83880, Note_on_c, 0, 75, 69
1, 83884, Control_c, 0, 64, 0
1, 83895, Note_off_c, 0, 66, 53
1, 83974, Note_off_c, 0, 70, 58
1, 84010, Control_c, 0, 64, 46
1, 84025, Control_c, 0, 64, 66
1, 84040, Control_c, 0, 64, 68
1, 84055, Control_c, 0, 64, 70
1, 84070, Control_c, 0, 64, 73
1, 84085, Control_c, 0, 64, 76
1, 84100, Control_c, 0, 64, 80
1, 84114, Control_c, 0, 64, 84
1, 84129, Control_c, 0, 64, 86
1, 84144, Control_c, 0, 64, 88
1, 84159, Control_c, 0, 64, 90
1, 84174, Control_c, 0, 64, 91
1, 84189, Control_c, 0, 64, 92
1, 84203, Control_c, 0, 64, 93
1, 84218, Control_c, 0, 64, 93
1, 84230, Note_on_c, 0, 49, 47
1, 84233, Control_c, 0, 64, 95
1, 84247, Control_c, 0, 64, 97
1, 84277, Control_c, 0, 64, 100
1, 84282, Note_off_c, 0, 42, 27
1, 84292, Control_c, 0, 64, 102
1, 84307, Control_c, 0, 64, 104
1, 84321, Control_c, 0, 64, 107
1, 84336, Control_c, 0, 64, 109
1, 84362, Note_off_c, 0, 78, 55
1, 84366, Control_c, 0, 64, 111
1, 84377, Note_on_c, 0, 77, 76
1, 84384, Note_on_c, 0, 73, 63
1, 84395, Control_c, 0, 64, 117
1, 84410, Control_c, 0, 64, 124
1, 84421, Note_off_c, 0, 75, 59
1, 84425, Control_c, 0, 64, 127
1, 84497, Note_off_c, 0, 49, 57
1, 84553, Note_on_c, 0, 56, 36
1, 84560, Note_on_c, 0, 75, 73
1, 84563, Note_on_c, 0, 71, 58
1, 84603, Note_off_c, 0, 73, 57
1, 84625, Note_off_c, 0, 77, 48
1, 84725, Note_on_c, 0, 73, 73
1, 84725, Note_on_c, 0, 77, 73
1, 84745, Note_off_c, 0, 71, 54
1, 84746, Note_off_c, 0, 75, 57
1, 84801, Note_off_c, 0, 77, 56
1, 84802, Note_off_c, 0, 73, 52
1, 84825, Note_off_c, 0, 56, 36
1, 84848, Control_c, 0, 64, 115
1, 84862, Control_c, 0, 64, 91
1, 84877, Control_c, 0, 64, 72
1, 84886, Note_on_c, 0, 73, 50
1, 84887, Note_on_c, 0, 77, 65
1, 84892, Control_c, 0, 64, 0
1, 84893, Note_on_c, 0, 54, 42
1, 84951, Control_c, 0, 64, 59
1, 84966, Control_c, 0, 64, 66
1, 84981, Control_c, 0, 64, 69
1, 84996, Control_c, 0, 64, 71
1, 85011, Control_c, 0, 64, 74
1, 85025, Control_c, 0, 64, 78
1, 85040, Control_c, 0, 64, 80
1, 85041, Note_off_c, 0, 77, 57
1, 85045, Note_off_c, 0, 73, 60
1, 85055, Note_on_c, 0, 75, 62
1, 85055, Control_c, 0, 64, 81
1, 85056, Note_on_c, 0, 71, 56
1, 85060, Note_on_c, 0, 56, 42
1, 85060, Note_off_c, 0, 54, 34
1, 85069, Control_c, 0, 64, 82
1, 85090, Note_off_c, 0, 75, 61
1, 85114, Control_c, 0, 64, 82
1, 85122, Note_off_c, 0, 56, 59
1, 85129, Control_c, 0, 64, 83
1, 85176, Note_off_c, 0, 71, 52
1, 85195, Note_on_c, 0, 73, 56
1, 85203, Note_on_c, 0, 58, 41
1, 85205, Note_on_c, 0, 70, 46
1, 85234, Note_off_c, 0, 70, 54
1, 85255, Note_off_c, 0, 73, 53
1, 85277, Control_c, 0, 64, 82
1, 85314, Note_on_c, 0, 75, 64
1, 85320, Note_on_c, 0, 71, 49
1, 85330, Note_off_c, 0, 58, 54
1, 85339, Note_off_c, 0, 75, 62
1, 85352, Note_off_c, 0, 71, 50
1, 85438, Note_on_c, 0, 75, 45
1, 85451, Note_on_c, 0, 71, 55
1, 85484, Note_on_c, 0, 49, 39
1, 85501, Note_off_c, 0, 71, 60
1, 85552, Control_c, 0, 64, 82
1, 85566, Control_c, 0, 64, 81
1, 85581, Control_c, 0, 64, 81
1, 85596, Control_c, 0, 64, 80
1, 85599, Note_on_c, 0, 70, 49
1, 85607, Note_on_c, 0, 73, 50
1, 85611, Control_c, 0, 64, 80
1, 85613, Note_off_c, 0, 75, 0
1, 85624, Note_off_c, 0, 70, 57
1, 85626, Control_c, 0, 64, 79
1, 85641, Control_c, 0, 64, 79
1, 85650, Poly_aftertouch_c, 0, 75, 127
1, 85670, Control_c, 0, 64, 78
1, 85765, Note_off_c, 0, 49, 36
1, 85774, Control_c, 0, 64, 76
1, 85785, Note_on_c, 0, 42, 37
1, 85789, Control_c, 0, 64, 69
1, 85800, Note_on_c, 0, 70, 44
1, 85802, Note_on_c, 0, 66, 35
1, 85804, Control_c, 0, 64, 0
1, 85810, Poly_aftertouch_c, 0, 75, 0
1, 85811, Note_off_c, 0, 73, 22
1, 85907, Control_c, 0, 64, 66
1, 85922, Control_c, 0, 64, 69
1, 85937, Control_c, 0, 64, 71
1, 85952, Control_c, 0, 64, 73
1, 85966, Control_c, 0, 64, 75
1, 85981, Control_c, 0, 64, 78
1, 85996, Control_c, 0, 64, 80
1, 86010, Control_c, 0, 64, 83
1, 86025, Control_c, 0, 64, 84
1, 86040, Control_c, 0, 64, 85
1, 86055, Control_c, 0, 64, 86
1, 86070, Control_c, 0, 64, 87
1, 86085, Note_off_c, 0, 66, 37
1, 86086, Control_c, 0, 64, 87
1, 86091, Note_on_c, 0, 49, 44
1, 86101, Control_c, 0, 64, 88
1, 86115, Control_c, 0, 64, 89
1, 86130, Control_c, 0, 64, 89
1, 86145, Control_c, 0, 64, 90
1, 86160, Control_c, 0, 64, 90
1, 86175, Control_c, 0, 64, 91
1, 86178, Note_off_c, 0, 42, 38
1, 86189, Control_c, 0, 64, 92
1, 86204, Control_c, 0, 64, 92
1, 86227, Control_c, 0, 64, 93
1, 86242, Control_c, 0, 64, 93
1, 86257, Control_c, 0, 64, 94
1, 86271, Control_c, 0, 64, 95
1, 86286, Control_c, 0, 64, 95
1, 86298, Note_off_c, 0, 49, 58
1, 86301, Control_c, 0, 64, 96
1, 86339, Note_on_c, 0, 56, 45
1, 86500, Note_off_c, 0, 56, 48
1, 86582, Control_c, 0, 64, 92
1, 86597, Control_c, 0, 64, 82
1, 86608, Note_on_c, 0, 54, 38
1, 86610, Note_on_c, 0, 63, 50
1, 86612, Control_c, 0, 64, 69
1, 86627, Control_c, 0, 64, 0
1, 86701, Control_c, 0, 64, 65
1, 86715, Control_c, 0, 64, 68
1, 86730, Control_c, 0, 64, 70
1, 86737, Note_off_c, 0, 63, 61
1, 86744, Note_on_c, 0, 64, 57
1, 86745, Control_c, 0, 64, 72
1, 86753, Note_on_c, 0, 56, 36
1, 86760, Control_c, 0, 64, 76
1, 86775, Control_c, 0, 64, 79
1, 86789, Control_c, 0, 64, 82
1, 86803, Note_off_c, 0, 54, 33
1, 86804, Control_c, 0, 64, 84
1, 86819, Control_c, 0, 64, 86
1, 86833, Control_c, 0, 64, 89
1, 86848, Control_c, 0, 64, 93
1, 86863, Control_c, 0, 64, 97
1, 86878, Control_c, 0, 64, 100
1, 86884, Note_off_c, 0, 64, 60
1, 86894, Control_c, 0, 64, 104
1, 86900, Note_on_c, 0, 66, 65
1, 86901, Note_on_c, 0, 58, 52
1, 86909, Control_c, 0, 64, 107
1, 86924, Control_c, 0, 64, 112
1, 86938, Control_c, 0, 64, 122
1, 86953, Control_c, 0, 64, 127
1, 87021, Note_on_c, 0, 64, 63
1, 87046, Note_off_c, 0, 66, 59
1, 87135, Note_on_c, 0, 61, 53
1, 87157, Note_off_c, 0, 64, 61
1, 87161, Note_on_c, 0, 68, 66
1, 87164, Note_off_c, 0, 61, 64
1, 87188, Note_off_c, 0, 58, 46
1, 87218, Note_off_c, 0, 56, 41
1, 87222, Note_off_c, 0, 70, 54
1, 87273, Note_on_c, 0, 66, 65
1, 87273, Note_off_c, 0, 68, 63
1, 87292, Note_off_c, 0, 66, 67
1, 87460, Note_on_c, 0, 71, 68
1, 87467, Note_on_c, 0, 63, 62
1, 87637, Note_off_c, 0, 63, 61
1, 87642, Note_on_c, 0, 30, 64
1, 87657, Control_c, 0, 64, 105
1, 87672, Control_c, 0, 64, 74
1, 87688, Control_c, 0, 64, 0
1, 87748, Note_on_c, 0, 78, 82
1, 87755, Control_c, 0, 64, 64
1, 87757, Note_off_c, 0, 30, 63
1, 87769, Control_c, 0, 64, 75
1, 87784, Control_c, 0, 64, 85
1, 87799, Control_c, 0, 64, 100
1, 87810, Note_off_c, 0, 71, 59
1, 87814, Control_c, 0, 64, 127
1, 87877, Note_off_c, 0, 78, 61
1, 88005, Note_on_c, 0, 54, 70
1, 88241, Note_off_c, 0, 54, 61
1, 88246, Note_on_c, 0, 61, 80
1, 88489, Control_c, 0, 64, 101
1, 88499, Note_on_c, 0, 78, 59
1, 88504, Control_c, 0, 64, 72
1, 88508, Note_off_c, 0, 61, 58
1, 88510, Note_on_c, 0, 59, 59
1, 88513, Note_on_c, 0, 75, 42
1, 88518, Control_c, 0, 64, 0
1, 88536, Note_off_c, 0, 78, 44
1, 88538, Note_off_c, 0, 75, 58
1, 88554, Note_on_c, 0, 80, 71
1, 88559, Note_on_c, 0, 77, 36
1, 88580, Note_off_c, 0, 80, 66
1, 88592, Control_c, 0, 64, 72
1, 88607, Note_on_c, 0, 75, 72
1, 88607, Control_c, 0, 64, 78
1, 88616, Note_off_c, 0, 77, 0
1, 88621, Note_on_c, 0, 78, 69
1, 88622, Control_c, 0, 64, 85
1, 88626, Note_off_c, 0, 59, 59
1, 88632, Note_on_c, 0, 61, 70
1, 88636, Control_c, 0, 64, 89
1, 88651, Control_c, 0, 64, 92
1, 88653, Poly_aftertouch_c, 0, 77, 127
1, 88658, Note_off_c, 0, 75, 58
1, 88662, Note_off_c, 0, 78, 60
1, 88663, Note_on_c, 0, 80, 70
1, 88666, Control_c, 0, 64, 97
1, 88681, Control_c, 0, 64, 104
1, 88686, Poly_aftertouch_c, 0, 77, 0
1, 88696, Control_c, 0, 64, 119
1, 88711, Control_c, 0, 64, 127
1, 88714, Note_off_c, 0, 80, 63
1, 88717, Note_off_c, 0, 61, 61
1, 88721, Note_on_c, 0, 75, 69
1, 88723, Poly_aftertouch_c, 0, 77, 127
1, 88725, Note_on_c, 0, 78, 64
1, 88754, Note_on_c, 0, 63, 74
1, 88764, Note_off_c, 0, 78, 60
1, 88765, Note_off_c, 0, 75, 60
1, 88770, Note_on_c, 0, 80, 67
1, 88777, Poly_aftertouch_c, 0, 77, 0
1, 88810, Note_off_c, 0, 80, 61
1, 88814, Poly_aftertouch_c, 0, 77, 127
1, 88818, Note_on_c, 0, 78, 69
1, 88823, Note_on_c, 0, 75, 64
1, 88848, Note_off_c, 0, 63, 55
1, 88861, Note_off_c, 0, 75, 62
1, 88872, Note_off_c, 0, 78, 61
1, 88876, Note_on_c, 0, 80, 71
1, 88893, Poly_aftertouch_c, 0, 77, 0
1, 88918, Note_off_c, 0, 80, 60
1, 88920, Note_on_c, 0, 78, 59
1, 88930, Poly_aftertouch_c, 0, 77, 127
1, 88938, Note_on_c, 0, 75, 69
1, 88965, Note_off_c, 0, 75, 66
1, 88974, Note_on_c, 0, 54, 68
1, 88976, Note_off_c, 0, 78, 59
1, 88980, Note_on_c, 0, 80, 71
1, 88997, Note_off_c, 0, 54, 66
1, 89015, Note_off_c, 0, 80, 62
1, 89016, Note_on_c, 0, 78, 60
1, 89027, Note_on_c, 0, 75, 75
1, 89070, Note_off_c, 0, 75, 59
1, 89076, Note_off_c, 0, 78, 61
1, 89086, Note_on_c, 0, 80, 77
1, 89109, Poly_aftertouch_c, 0, 77, 0
1, 89123, Note_on_c, 0, 77, 24
1, 89124, Note_off_c, 0, 80, 59
1, 89127, Note_on_c, 0, 78, 59
1, 89140, Control_c, 0, 64, 96
1, 89142, Note_on_c, 0, 75, 69
1, 89155, Control_c, 0, 64, 71
1, 89161, Note_off_c, 0, 77, 51
1, 89162, Note_off_c, 0, 75, 61
1, 89170, Control_c, 0, 64, 0
1, 89182, Note_off_c, 0, 78, 59
1, 89190, Note_on_c, 0, 80, 71
1, 89200, Note_on_c, 0, 42, 79
1, 89222, Control_c, 0, 64, 64
1, 89223, Note_off_c, 0, 80, 68
1, 89235, Note_on_c, 0, 78, 63
1, 89236, Control_c, 0, 64, 72
1, 89237, Note_on_c, 0, 77, 34
1, 89238, Note_on_c, 0, 75, 69
1, 89251, Control_c, 0, 64, 80
1, 89262, Note_off_c, 0, 42, 59
1, 89266, Control_c, 0, 64, 93
1, 89277, Note_off_c, 0, 75, 61
1, 89282, Control_c, 0, 64, 103
1, 89283, Note_off_c, 0, 77, 42
1, 89291, Note_on_c, 0, 80, 75
1, 89294, Note_off_c, 0, 78, 61
1, 89296, Control_c, 0, 64, 112
1, 89311, Control_c, 0, 64, 127
1, 89333, Note_on_c, 0, 77, 40
1, 89336, Note_on_c, 0, 78, 56
1, 89337, Note_off_c, 0, 80, 60
1, 89349, Note_on_c, 0, 75, 70
1, 89370, Note_off_c, 0, 77, 47
1, 89383, Note_off_c, 0, 75, 63
1, 89399, Note_on_c, 0, 80, 69
1, 89402, Note_off_c, 0, 78, 61
1, 89439, Note_on_c, 0, 77, 32
1, 89443, Note_on_c, 0, 75, 73
1, 89444, Note_off_c, 0, 80, 60
1, 89445, Note_on_c, 0, 78, 56
1, 89456, Note_on_c, 0, 54, 73
1, 89471, Note_off_c, 0, 77, 51
1, 89488, Note_off_c, 0, 75, 58
1, 89498, Note_on_c, 0, 80, 69
1, 89507, Note_off_c, 0, 78, 60
1, 89545, Note_on_c, 0, 78, 53
1, 89548, Note_off_c, 0, 80, 61
1, 89555, Note_on_c, 0, 75, 70
1, 89589, Note_off_c, 0, 75, 59
1, 89603, Note_on_c, 0, 80, 68
1, 89612, Note_off_c, 0, 78, 60
1, 89647, Note_off_c, 0, 80, 60
1, 89649, Note_on_c, 0, 78, 47
1, 89652, Note_off_c, 0, 54, 60
1, 89653, Note_on_c, 0, 75, 76
1, 89677, Note_on_c, 0, 61, 77
1, 89692, Note_off_c, 0, 75, 59
1, 89705, Note_on_c, 0, 80, 70
1, 89713, Note_off_c, 0, 78, 61
1, 89745, Poly_aftertouch_c, 0, 78, 0
1, 89751, Note_off_c, 0, 80, 60
1, 89753, Note_on_c, 0, 78, 53
1, 89761, Note_on_c, 0, 75, 75
1, 89787, Note_off_c, 0, 75, 62
1, 89820, Note_on_c, 0, 80, 59
1, 89829, Note_off_c, 0, 78, 0
1, 89846, Note_on_c, 0, 78, 49
1, 89850, Note_off_c, 0, 80, 63
1, 89861, Note_on_c, 0, 75, 56
1, 89867, Note_off_c, 0, 61, 59
1, 89882, Note_off_c, 0, 75, 63
1, 89888, Control_c, 0, 64, 102
1, 89903, Control_c, 0, 64, 74
1, 89915, Note_on_c, 0, 59, 79
1, 89918, Control_c, 0, 64, 0
1, 89923, Poly_aftertouch_c, 0, 80, 127
1, 89932, Note_off_c, 0, 78, 0
1, 89945, Note_on_c, 0, 78, 42
1, 89970, Control_c, 0, 64, 64
1, 89984, Control_c, 0, 64, 70
1, 89995, Note_off_c, 0, 78, 63
1, 89999, Control_c, 0, 64, 77
1, 90014, Control_c, 0, 64, 85
1, 90029, Control_c, 0, 64, 93
1, 90043, Control_c, 0, 64, 97
1, 90047, Note_on_c, 0, 61, 89
1, 90058, Control_c, 0, 64, 102
1, 90073, Control_c, 0, 64, 111
1, 90080, Note_off_c, 0, 59, 60
1, 90088, Control_c, 0, 64, 127
1, 90135, Note_on_c, 0, 62, 70
1, 90204, Note_on_c, 0, 63, 81
1, 90206, Note_off_c, 0, 61, 49
1, 90222, Note_off_c, 0, 62, 47
1, 90458, Note_on_c, 0, 77, 85
1, 90458, Poly_aftertouch_c, 0, 80, 0
1, 90466, Note_on_c, 0, 74, 65
1, 90470, Note_on_c, 0, 66, 75
1, 90492, Note_off_c, 0, 66, 69
1, 90514, Note_off_c, 0, 63, 61
1, 90587, Note_on_c, 0, 75, 88
1, 90598, Note_on_c, 0, 78, 82
1, 90615, Note_off_c, 0, 77, 60
1, 90655, Note_off_c, 0, 78, 63
1, 90898, Note_on_c, 0, 42, 60
1, 90942, Control_c, 0, 64, 104
1, 90946, Note_on_c, 0, 83, 85
1, 90952, Note_on_c, 0, 80, 78
1, 90957, Control_c, 0, 64, 77
1, 90972, Control_c, 0, 64, 0
1, 90993, Note_off_c, 0, 74, 41
1, 91017, Note_off_c, 0, 75, 52
1, 91045, Control_c, 0, 64, 67
1, 91060, Control_c, 0, 64, 74
1, 91075, Control_c, 0, 64, 81
1, 91090, Control_c, 0, 64, 88
1, 91105, Control_c, 0, 64, 94
1, 91109, Note_off_c, 0, 42, 59
1, 91120, Control_c, 0, 64, 98
1, 91134, Control_c, 0, 64, 103
1, 91149, Control_c, 0, 64, 108
1, 91164, Control_c, 0, 64, 116
1, 91179, Control_c, 0, 64, 127
1, 91215, Note_off_c, 0, 83, 52
1, 91339, Note_on_c, 0, 54, 43
1, 91469, Note_on_c, 0, 82, 76
1, 91477, Note_on_c, 0, 78, 67
1, 91507, Note_off_c, 0, 80, 62
1, 91608, Note_off_c, 0, 54, 60
1, 91654, Note_on_c, 0, 77, 60
1, 91658, Note_on_c, 0, 80, 79
1, 91672, Note_on_c, 0, 61, 42
1, 91705, Note_off_c, 0, 78, 58
1, 91707, Note_off_c, 0, 82, 58
1, 91820, Note_on_c, 0, 82, 78
1, 91836, Note_on_c, 0, 78, 63
1, 91850, Note_off_c, 0, 80, 55
1, 91875, Note_off_c, 0, 77, 48
1, 91929, Note_off_c, 0, 82, 60
1, 91932, Note_off_c, 0, 78, 60
1, 92001, Control_c, 0, 64, 105
1, 92005, Note_on_c, 0, 82, 67
1, 92006, Note_on_c, 0, 59, 50
1, 92014, Note_off_c, 0, 61, 51
1, 92016, Control_c, 0, 64, 80
1, 92020, Note_on_c, 0, 78, 51
1, 92031, Control_c, 0, 64, 65
1, 92041, Note_off_c, 0, 78, 59
1, 92046, Control_c, 0, 64, 64
1, 92060, Control_c, 0, 64, 66
1, 92075, Control_c, 0, 64, 69
1, 92090, Control_c, 0, 64, 74
1, 92105, Control_c, 0, 64, 81
1, 92119, Control_c, 0, 64, 89
1, 92134, Control_c, 0, 64, 96
1, 92149, Control_c, 0, 64, 98
1, 92160, Note_off_c, 0, 82, 38
1, 92164, Control_c, 0, 64, 101
1, 92178, Control_c, 0, 64, 103
1, 92193, Control_c, 0, 64, 107
1, 92203, Note_on_c, 0, 73, 60
1, 92205, Note_on_c, 0, 61, 51
1, 92208, Note_on_c, 0, 70, 48
1, 92213, Note_off_c, 0, 59, 53
1, 92216, Control_c, 0, 64, 112
1, 92231, Control_c, 0, 64, 120
1, 92246, Control_c, 0, 64, 127
1, 92282, Note_off_c, 0, 61, 59
1, 92309, Note_off_c, 0, 70, 58
1, 92325, Note_off_c, 0, 73, 59
1, 92342, Note_on_c, 0, 77, 59
1, 92342, Note_on_c, 0, 80, 61
1, 92372, Note_on_c, 0, 63, 35
1, 92389, Note_off_c, 0, 77, 56
1, 92425, Note_off_c, 0, 80, 58
1, 92436, Note_off_c, 0, 63, 58
1, 92475, Note_on_c, 0, 68, 48
1, 92488, Note_on_c, 0, 71, 60
1, 92603, Note_off_c, 0, 71, 61
1, 92610, Note_off_c, 0, 68, 50
1, 92616, Note_on_c, 0, 78, 64
1, 92621, Note_on_c, 0, 54, 43
1, 92629, Note_on_c, 0, 75, 53
1, 92649, Note_off_c, 0, 54, 54
1, 92738, Note_off_c, 0, 75, 53
1, 92740, Note_on_c, 0, 72, 61
1, 92758, Note_on_c, 0, 69, 49
1, 92767, Note_off_c, 0, 78, 59
1, 92775, Note_off_c, 0, 72, 61
1, 92914, Note_on_c, 0, 42, 42
1, 92949, Note_on_c, 0, 75, 60
1, 92949, Note_off_c, 0, 69, 57
1, 92950, Control_c, 0, 64, 102
1, 92965, Control_c, 0, 64, 77
1, 92970, Note_on_c, 0, 71, 48
1, 92980, Control_c, 0, 64, 0
1, 93041, Note_off_c, 0, 71, 0
1, 93054, Control_c, 0, 64, 65
1, 93069, Control_c, 0, 64, 71
1, 93078, Poly_aftertouch_c, 0, 71, 127
1, 93083, Control_c, 0, 64, 76
1, 93098, Control_c, 0, 64, 81
1, 93113, Control_c, 0, 64, 85
1, 93127, Control_c, 0, 64, 89
1, 93142, Control_c, 0, 64, 92
1, 93157, Control_c, 0, 64, 95
1, 93162, Note_off_c, 0, 75, 42
1, 93164, Poly_aftertouch_c, 0, 71, 0
1, 93172, Control_c, 0, 64, 98
1, 93201, Control_c, 0, 64, 100
1, 93231, Control_c, 0, 64, 102
1, 93248, Note_on_c, 0, 70, 57
1, 93251, Note_on_c, 0, 49, 48
1, 93254, Note_on_c, 0, 73, 64
1, 93261, Control_c, 0, 64, 105
1, 93277, Control_c, 0, 64, 107
1, 93281, Note_off_c, 0, 70, 65
1, 93306, Control_c, 0, 64, 109
1, 93336, Control_c, 0, 64, 112
1, 93358, Note_off_c, 0, 42, 33
1, 93380, Control_c, 0, 64, 114
1, 93445, Note_off_c, 0, 49, 59
1, 93474, Note_on_c, 0, 61, 66
1, 93489, Note_on_c, 0, 56, 40
1, 93728, Control_c, 0, 64, 100
1, 93729, Note_off_c, 0, 56, 54
1, 93743, Control_c, 0, 64, 80
1, 93758, Control_c, 0, 64, 38
1, 93767, Note_on_c, 0, 54, 37
1, 93773, Control_c, 0, 64, 0
1, 93781, Note_on_c, 0, 70, 71
1, 93811, Note_on_c, 0, 66, 34
1, 93847, Control_c, 0, 64, 65
1, 93862, Control_c, 0, 64, 70
1, 93872, Note_off_c, 0, 61, 59
1, 93877, Control_c, 0, 64, 72
1, 93892, Control_c, 0, 64, 75
1, 93900, Note_on_c, 0, 56, 46
1, 93907, Control_c, 0, 64, 80
1, 93909, Note_off_c, 0, 73, 58
1, 93922, Control_c, 0, 64, 85
1, 93937, Control_c, 0, 64, 91
1, 93951, Note_off_c, 0, 54, 42
1, 93951, Control_c, 0, 64, 96
1, 93966, Control_c, 0, 64, 102
1, 93981, Control_c, 0, 64, 109
1, 93996, Control_c, 0, 64, 127
1, 94000, Note_off_c, 0, 56, 63
1, 94020, Note_off_c, 0, 66, 40
1, 94029, Note_on_c, 0, 58, 74
1, 94048, Note_off_c, 0, 70, 58
1, 94171, Note_off_c, 0, 58, 58
1, 94274, Note_on_c, 0, 49, 75
1, 94306, Note_off_c, 0, 49, 67
1, 94372, Note_on_c, 0, 70, 82
1, 94380, Note_on_c, 0, 64, 67
1, 94454, Note_off_c, 0, 64, 54
1, 94641, Control_c, 0, 64, 89
1, 94646, Note_on_c, 0, 30, 63
1, 94655, Control_c, 0, 64, 67
1, 94670, Control_c, 0, 64, 0
1, 94715, Control_c, 0, 64, 70
1, 94717, Note_on_c, 0, 80, 84
1, 94729, Control_c, 0, 64, 83
1, 94744, Note_off_c, 0, 30, 63
1, 94744, Control_c, 0, 64, 106
1, 94759, Control_c, 0, 64, 127
1, 94813, Note_off_c, 0, 70, 63
1, 94837, Note_off_c, 0, 80, 61
1, 94979, Note_on_c, 0, 49, 69
1, 95197, Note_on_c, 0, 56, 71
1, 95339, Note_off_c, 0, 56, 57
1, 95448, Control_c, 0, 64, 98
1, 95455, Note_on_c, 0, 54, 68
1, 95455, Note_on_c, 0, 80, 85
1, 95457, Note_on_c, 0, 76, 80
1, 95463, Note_on_c, 0, 70, 75
1, 95463, Control_c, 0, 64, 72
1, 95478, Control_c, 0, 64, 64
1, 95493, Control_c, 0, 64, 66
1, 95496, Note_off_c, 0, 49, 61
1, 95507, Control_c, 0, 64, 68
1, 95522, Control_c, 0, 64, 73
1, 95537, Control_c, 0, 64, 81
1, 95552, Control_c, 0, 64, 94
1, 95567, Control_c, 0, 64, 105
1, 95582, Control_c, 0, 64, 114
1, 95596, Control_c, 0, 64, 127
1, 95597, Note_on_c, 0, 56, 57
1, 95698, Note_off_c, 0, 54, 35
1, 95709, Note_off_c, 0, 56, 64
1, 95722, Note_on_c, 0, 58, 71
1, 95925, Note_off_c, 0, 58, 60
1, 95957, Note_on_c, 0, 49, 70
1, 95999, Note_off_c, 0, 70, 50
1, 96167, Control_c, 0, 64, 115
1, 96182, Control_c, 0, 64, 82
1, 96197, Control_c, 0, 64, 63
1, 96202, Note_on_c, 0, 42, 79
1, 96212, Control_c, 0, 64, 0
1, 96215, Note_off_c, 0, 49, 65
1, 96241, Control_c, 0, 64, 64
1, 96256, Control_c, 0, 64, 70
1, 96271, Control_c, 0, 64, 78
1, 96286, Control_c, 0, 64, 91
1, 96300, Control_c, 0, 64, 107
1, 96301, Note_off_c, 0, 80, 60
1, 96315, Control_c, 0, 64, 127
1, 96447, Note_on_c, 0, 78, 84
1, 96461, Note_on_c, 0, 49, 74
1, 96468, Note_on_c, 0, 70, 62
1, 96478, Note_off_c, 0, 76, 59
1, 96514, Note_off_c, 0, 78, 62
1, 96520, Note_off_c, 0, 70, 62
1, 96554, Note_off_c, 0, 42, 54
1, 96705, Note_on_c, 0, 56, 71
1, 96708, Note_on_c, 0, 76, 85
1, 96716, Note_on_c, 0, 68, 70
1, 96721, Note_on_c, 0, 66, 72
1, 96727, Note_off_c, 0, 56, 69
1, 96744, Note_off_c, 0, 49, 63
1, 96771, Note_off_c, 0, 68, 62
1, 96787, Note_off_c, 0, 66, 61
1, 96931, Control_c, 0, 64, 93
1, 96946, Control_c, 0, 64, 69
1, 96961, Control_c, 0, 64, 0
1, 96962, Note_on_c, 0, 75, 78
1, 96968, Note_on_c, 0, 66, 67
1, 96999, Note_on_c, 0, 35, 52
1, 97002, Note_off_c, 0, 66, 64
1, 97005, Control_c, 0, 64, 65
1, 97020, Control_c, 0, 64, 73
1, 97035, Control_c, 0, 64, 85
1, 97049, Control_c, 0, 64, 100
1, 97064, Control_c, 0, 64, 116
1, 97079, Control_c, 0, 64, 127
1, 97081, Note_on_c, 0, 73, 82
1, 97087, Note_off_c, 0, 76, 57
1, 97093, Note_on_c, 0, 64, 60
1, 97113, Note_off_c, 0, 64, 65
1, 97114, Note_off_c, 0, 35, 56
1, 97183, Note_off_c, 0, 75, 0
1, 97212, Note_on_c, 0, 75, 15
1, 97228, Note_on_c, 0, 44, 71
1, 97231, Note_on_c, 0, 71, 82
1, 97241, Note_on_c, 0, 63, 75
1, 97257, Note_off_c, 0, 75, 37
1, 97267, Note_off_c, 0, 73, 0
1, 97268, Note_off_c, 0, 63, 64
1, 97313, Note_off_c, 0, 71, 61
1, 97347, Poly_aftertouch_c, 0, 73, 0
1, 97452, Note_on_c, 0, 54, 71
1, 97482, Note_off_c, 0, 54, 64
1, 97490, Note_off_c, 0, 44, 63
1, 97543, Note_on_c, 0, 72, 87
1, 97550, Note_on_c, 0, 66, 73
1, 97601, Note_off_c, 0, 66, 62
1, 97755, Control_c, 0, 64, 98
1, 97770, Control_c, 0, 64, 71
1, 97781, Note_on_c, 0, 32, 73
1, 97785, Control_c, 0, 64, 0
1, 97788, Note_on_c, 0, 44, 51
1, 97801, Note_on_c, 0, 82, 95
1, 97814, Control_c, 0, 64, 65
1, 97824, Note_off_c, 0, 72, 56
1, 97829, Control_c, 0, 64, 73
1, 97844, Control_c, 0, 64, 87
1, 97846, Note_off_c, 0, 32, 63
1, 97855, Note_off_c, 0, 44, 63
1, 97859, Control_c, 0, 64, 113
1, 97873, Control_c, 0, 64, 127
1, 97944, Note_off_c, 0, 82, 61
1, 98048, Note_on_c, 0, 51, 78
1, 98277, Note_on_c, 0, 58, 89
1, 98522, Note_off_c, 0, 58, 56
1, 98563, Control_c, 0, 64, 107
1, 98568, Note_on_c, 0, 56, 69
1, 98568, Note_on_c, 0, 82, 87
1, 98570, Note_on_c, 0, 78, 82
1, 98572, Note_on_c, 0, 72, 78
1, 98578, Control_c, 0, 64, 77
1, 98593, Control_c, 0, 64, 0
1, 98637, Control_c, 0, 64, 30
1, 98640, Note_off_c, 0, 51, 60
1, 98652, Control_c, 0, 64, 69
1, 98666, Control_c, 0, 64, 76
1, 98681, Control_c, 0, 64, 84
1, 98685, Note_on_c, 0, 58, 68
1, 98696, Control_c, 0, 64, 92
1, 98711, Control_c, 0, 64, 97
1, 98715, Note_off_c, 0, 56, 62
1, 98726, Control_c, 0, 64, 100
1, 98740, Control_c, 0, 64, 107
1, 98755, Control_c, 0, 64, 116
1, 98770, Control_c, 0, 64, 127
1, 98778, Note_off_c, 0, 58, 62
1, 98783, Note_on_c, 0, 60, 78
1, 98900, Note_off_c, 0, 60, 52
1, 99031, Note_off_c, 0, 82, 62
1, 99048, Note_on_c, 0, 51, 81
1, 99136, Note_off_c, 0, 72, 60
1, 99267, Control_c, 0, 64, 108
1, 99282, Control_c, 0, 64, 80
1, 99283, Note_on_c, 0, 44, 76
1, 99296, Control_c, 0, 64, 64
1, 99305, Note_off_c, 0, 51, 60
1, 99311, Control_c, 0, 64, 13
1, 99326, Control_c, 0, 64, 65
1, 99341, Control_c, 0, 64, 68
1, 99356, Control_c, 0, 64, 74
1, 99371, Control_c, 0, 64, 84
1, 99386, Control_c, 0, 64, 96
1, 99401, Control_c, 0, 64, 108
1, 99415, Control_c, 0, 64, 117
1, 99430, Control_c, 0, 64, 127
1, 99477, Note_off_c, 0, 44, 61
1, 99525, Note_on_c, 0, 72, 70
1, 99528, Note_on_c, 0, 80, 79
1, 99536, Note_on_c, 0, 51, 55
1, 99538, Note_on_c, 0, 77, 65
1, 99565, Note_off_c, 0, 77, 63
1, 99572, Note_off_c, 0, 78, 60
1, 99577, Note_off_c, 0, 72, 61
1, 99610, Note_off_c, 0, 80, 63
1, 99789, Note_on_c, 0, 56, 63
1, 99798, Note_on_c, 0, 78, 83
1, 99808, Note_on_c, 0, 70, 70
1, 99812, Note_on_c, 0, 68, 61
1, 99817, Note_off_c, 0, 56, 65
1, 99834, Note_off_c, 0, 51, 58
1, 99867, Poly_aftertouch_c, 0, 63, 0
1, 99891, Note_off_c, 0, 68, 60
1, 99999, Note_off_c, 0, 78, 62
1, 100059, Note_on_c, 0, 77, 81
1, 100060, Control_c, 0, 64, 88
1, 100068, Note_on_c, 0, 68, 62
1, 100074, Control_c, 0, 64, 68
1, 100078, Note_on_c, 0, 37, 61
1, 100089, Control_c, 0, 64, 0
1, 100110, Note_off_c, 0, 68, 63
1, 100134, Control_c, 0, 64, 67
1, 100140, Note_off_c, 0, 70, 61
1, 100149, Control_c, 0, 64, 74
1, 100164, Control_c, 0, 64, 83
1, 100178, Note_on_c, 0, 75, 81
1, 100179, Control_c, 0, 64, 93
1, 100193, Control_c, 0, 64, 100
1, 100201, Note_on_c, 0, 66, 62
1, 100208, Control_c, 0, 64, 106
1, 100223, Control_c, 0, 64, 115
1, 100237, Control_c, 0, 64, 127
1, 100253, Note_off_c, 0, 66, 61
1, 100309, Note_on_c, 0, 73, 84
1, 100315, Note_off_c, 0, 77, 56
1, 100322, Note_on_c, 0, 65, 67
1, 100336, Note_on_c, 0, 44, 64
1, 100341, Note_off_c, 0, 37, 61
1, 100431, Note_off_c, 0, 75, 54
1, 100459, Note_off_c, 0, 65, 60
1, 100535, Note_on_c, 0, 68, 74
1, 100536, Note_on_c, 0, 77, 88
1, 100542, Note_off_c, 0, 73, 62
1, 100549, Note_on_c, 0, 56, 68
1, 100562, Note_off_c, 0, 68, 67
1, 100571, Note_off_c, 0, 56, 66
1, 100588, Note_off_c, 0, 77, 60
1, 100620, Note_off_c, 0, 44, 62
1, 100706, Note_on_c, 0, 68, 64
1, 100720, Note_on_c, 0, 77, 70
1, 100766, Note_off_c, 0, 68, 63
1, 100882, Control_c, 0, 64, 86
1, 100888, Note_on_c, 0, 83, 91
1, 100889, Note_on_c, 0, 37, 76
1, 100897, Control_c, 0, 64, 65
1, 100912, Control_c, 0, 64, 0
1, 100971, Control_c, 0, 64, 68
1, 100986, Control_c, 0, 64, 79
1, 101001, Control_c, 0, 64, 90
1, 101016, Control_c, 0, 64, 106
1, 101031, Control_c, 0, 64, 127
1, 101079, Note_off_c, 0, 83, 59
1, 101121, Note_off_c, 0, 77, 54
1, 101126, Note_off_c, 0, 37, 61
1, 101135, Note_on_c, 0, 44, 80
1, 101204, Poly_aftertouch_c, 0, 80, 127
1, 101271, Poly_aftertouch_c, 0, 80, 0
1, 101359, Note_on_c, 0, 56, 82
1, 101364, Note_on_c, 0, 80, 15
1, 101383, Note_off_c, 0, 56, 67
1, 101429, Note_off_c, 0, 44, 61
1, 101459, Note_on_c, 0, 76, 81
1, 101460, Note_on_c, 0, 68, 78
1, 101518, Note_off_c, 0, 80, 43
1, 101546, Note_off_c, 0, 68, 60
1, 101588, Control_c, 0, 64, 106
1, 101603, Control_c, 0, 64, 75
1, 101618, Control_c, 0, 64, 0
1, 101626, Note_on_c, 0, 38, 83
1, 101636, Note_on_c, 0, 83, 98
1, 101677, Control_c, 0, 64, 72
1, 101691, Control_c, 0, 64, 84
1, 101706, Control_c, 0, 64, 101
1, 101721, Control_c, 0, 64, 127
1, 101846, Note_off_c, 0, 76, 33
1, 101851, Note_off_c, 0, 83, 58
1, 101876, Note_on_c, 0, 44, 84
1, 101880, Note_off_c, 0, 38, 53
1, 102104, Note_on_c, 0, 56, 80
1, 102129, Note_off_c, 0, 56, 66
1, 102159, Note_off_c, 0, 44, 63
1, 102208, Note_on_c, 0, 68, 83
1, 102212, Note_on_c, 0, 75, 83
1, 102237, Poly_aftertouch_c, 0, 80, 127
1, 102247, Note_on_c, 0, 78, 33
1, 102283, Poly_aftertouch_c, 0, 80, 0
1, 102291, Note_off_c, 0, 78, 44
1, 102322, Control_c, 0, 64, 107
1, 102327, Note_off_c, 0, 68, 60
1, 102337, Control_c, 0, 64, 71
1, 102352, Control_c, 0, 64, 0
1, 102380, Note_on_c, 0, 39, 84
1, 102390, Note_on_c, 0, 83, 90
1, 102396, Control_c, 0, 64, 66
1, 102411, Control_c, 0, 64, 78
1, 102426, Control_c, 0, 64, 97
1, 102429, Note_off_c, 0, 39, 61
1, 102430, Note_off_c, 0, 75, 63
1, 102435, Note_off_c, 0, 83, 65
1, 102440, Control_c, 0, 64, 127
1, 102498, Poly_aftertouch_c, 0, 80, 0
1, 102622, Note_on_c, 0, 85, 81
1, 102658, Note_on_c, 0, 51, 77
1, 102662, Note_on_c, 0, 83, 84
1, 102666, Note_on_c, 0, 75, 89
1, 102688, Note_on_c, 0, 82, 58
1, 102715, Note_off_c, 0, 82, 36
1, 102721, Note_off_c, 0, 75, 59
1, 102812, Note_off_c, 0, 83, 59
1, 102912, Note_on_c, 0, 63, 83
1, 102913, Note_on_c, 0, 56, 78
1, 102933, Note_off_c, 0, 63, 68
1, 102951, Note_off_c, 0, 56, 64
1, 102959, Note_off_c, 0, 51, 60
1, 103011, Note_on_c, 0, 63, 9
1, 103054, Note_off_c, 0, 63, 51
1, 103058, Note_on_c, 0, 82, 90
1, 103063, Note_on_c, 0, 73, 84
1, 103085, Note_off_c, 0, 85, 63
1, 103117, Note_off_c, 0, 73, 60
1, 103139, Note_off_c, 0, 82, 61
1, 103145, Control_c, 0, 64, 83
1, 103159, Control_c, 0, 64, 0
1, 103179, Note_on_c, 0, 39, 83
1, 103180, Note_on_c, 0, 82, 93
1, 103189, Note_on_c, 0, 73, 88
1, 103204, Control_c, 0, 64, 61
1, 103219, Control_c, 0, 64, 73
1, 103219, Note_off_c, 0, 39, 60
1, 103234, Control_c, 0, 64, 84
1, 103249, Control_c, 0, 64, 97
1, 103263, Control_c, 0, 64, 112
1, 103278, Control_c, 0, 64, 127
1, 103324, Note_off_c, 0, 73, 57
1, 103392, Note_off_c, 0, 82, 59
1, 103396, Note_on_c, 0, 83, 75
1, 103466, Note_on_c, 0, 51, 73
1, 103469, Note_on_c, 0, 82, 92
1, 103479, Note_on_c, 0, 73, 86
1, 103494, Note_off_c, 0, 83, 64
1, 103502, Note_off_c, 0, 73, 66
1, 103515, Note_off_c, 0, 82, 66
1, 103627, Note_off_c, 0, 51, 60
1, 103760, Poly_aftertouch_c, 0, 78, 127
1, 103784, Note_on_c, 0, 63, 67
1, 103790, Note_on_c, 0, 61, 66
1, 103791, Poly_aftertouch_c, 0, 78, 0
1, 103794, Note_on_c, 0, 75, 96
1, 103795, Note_on_c, 0, 55, 66
1, 103800, Note_on_c, 0, 70, 83
1, 103803, Note_off_c, 0, 63, 65
1, 103809, Note_on_c, 0, 73, 72
1, 103817, Note_off_c, 0, 61, 64
1, 103833, Note_off_c, 0, 55, 64
1, 103881, Note_off_c, 0, 70, 53
1, 103887, Note_off_c, 0, 73, 54
1, 104072, Note_off_c, 0, 75, 56
1, 104197, Control_c, 0, 64, 101
1, 104204, Note_on_c, 0, 44, 73
1, 104211, Control_c, 0, 64, 72
1, 104218, Note_on_c, 0, 75, 85
1, 104220, Note_on_c, 0, 80, 84
1, 104221, Note_on_c, 0, 68, 79
1, 104226, Control_c, 0, 64, 0
1, 104230, Note_on_c, 0, 73, 70
1, 104285, Control_c, 0, 64, 67
1, 104300, Control_c, 0, 64, 75
1, 104315, Control_c, 0, 64, 83
1, 104330, Control_c, 0, 64, 95
1, 104336, Note_off_c, 0, 73, 50
1, 104345, Control_c, 0, 64, 106
1, 104359, Control_c, 0, 64, 127
1, 104388, Note_off_c, 0, 68, 62
1, 104412, Note_off_c, 0, 75, 61
1, 104482, Note_off_c, 0, 44, 62
1, 104489, Note_on_c, 0, 75, 90
1, 104495, Note_on_c, 0, 51, 71
1, 104517, Note_on_c, 0, 73, 75
1, 104701, Note_off_c, 0, 75, 57
1, 104704, Note_on_c, 0, 63, 72
1, 104704, Note_on_c, 0, 71, 90
1, 104708, Note_on_c, 0, 56, 67
1, 104718, Note_off_c, 0, 73, 62
1, 104721, Note_off_c, 0, 80, 61
1, 104721, Note_off_c, 0, 63, 66
1, 104738, Note_off_c, 0, 56, 65
1, 104760, Note_off_c, 0, 51, 60
1, 104837, Note_off_c, 0, 71, 52
1, 104894, Control_c, 0, 64, 94
1, 104908, Control_c, 0, 64, 68
1, 104923, Control_c, 0, 64, 0
1, 104937, Note_on_c, 0, 46, 77
1, 104940, Note_on_c, 0, 71, 75
1, 104941, Note_on_c, 0, 75, 88
1, 104946, Note_on_c, 0, 67, 80
1, 104990, Control_c, 0, 64, 68
1, 105005, Control_c, 0, 64, 77
1, 105020, Control_c, 0, 64, 86
1, 105034, Control_c, 0, 64, 102
1, 105049, Control_c, 0, 64, 119
1, 105064, Control_c, 0, 64, 127
1, 105075, Note_off_c, 0, 67, 60
1, 105116, Note_off_c, 0, 71, 63
1, 105148, Note_off_c, 0, 46, 61
1, 105157, Note_on_c, 0, 73, 80
1, 105160, Note_on_c, 0, 51, 69
1, 105161, Note_on_c, 0, 71, 83
1, 105178, Note_off_c, 0, 75, 54
1, 105370, Note_on_c, 0, 63, 73
1, 105376, Note_on_c, 0, 56, 69
1, 105383, Note_on_c, 0, 70, 92
1, 105398, Note_off_c, 0, 63, 65
1, 105411, Note_off_c, 0, 56, 66
1, 105422, Note_off_c, 0, 51, 58
1, 105426, Note_off_c, 0, 71, 59
1, 105560, Note_off_c, 0, 70, 59
1, 105598, Control_c, 0, 64, 106
1, 105601, Note_off_c, 0, 73, 61
1, 105613, Control_c, 0, 64, 73
1, 105618, Note_on_c, 0, 47, 62
1, 105628, Control_c, 0, 64, 0
1, 105631, Note_on_c, 0, 63, 77
1, 105634, Note_on_c, 0, 75, 83
1, 105635, Note_on_c, 0, 70, 81
1, 105691, Note_off_c, 0, 63, 61
1, 105694, Control_c, 0, 64, 67
1, 105709, Control_c, 0, 64, 75
1, 105724, Control_c, 0, 64, 85
1, 105738, Control_c, 0, 64, 96
1, 105753, Control_c, 0, 64, 103
1, 105768, Control_c, 0, 64, 111
1, 105782, Control_c, 0, 64, 127
1, 105835, Note_off_c, 0, 70, 61
1, 105839, Note_off_c, 0, 47, 46
1, 105857, Note_off_c, 0, 75, 60
1, 105862, Note_on_c, 0, 51, 66
1, 105887, Note_on_c, 0, 68, 89
1, 105926, Note_off_c, 0, 51, 58
1, 106111, Note_off_c, 0, 68, 0
1, 106129, Note_on_c, 0, 77, 92
1, 106135, Note_on_c, 0, 66, 70
1, 106149, Poly_aftertouch_c, 0, 68, 127
1, 106161, Note_off_c, 0, 66, 67
1, 106217, Note_off_c, 0, 77, 59
1, 106391, Control_c, 0, 64, 88
1, 106405, Control_c, 0, 64, 56
1, 106420, Control_c, 0, 64, 0
1, 106435, Note_on_c, 0, 48, 72
1, 106441, Note_on_c, 0, 78, 90
1, 106448, Note_on_c, 0, 75, 81
1, 106486, Control_c, 0, 64, 74
1, 106501, Control_c, 0, 64, 86
1, 106513, Note_off_c, 0, 48, 62
1, 106516, Control_c, 0, 64, 104
1, 106531, Control_c, 0, 64, 127
1, 106582, Note_off_c, 0, 78, 61
1, 106587, Note_on_c, 0, 80, 80
1, 106595, Note_off_c, 0, 75, 60
1, 106665, Note_on_c, 0, 78, 78
1, 106665, Note_off_c, 0, 80, 61
1, 106712, Note_off_c, 0, 78, 59
1, 106713, Note_on_c, 0, 80, 60
1, 106745, Note_on_c, 0, 78, 66
1, 106762, Note_off_c, 0, 80, 62
1, 106769, Poly_aftertouch_c, 0, 68, 0
1, 106798, Note_off_c, 0, 78, 60
1, 106814, Note_on_c, 0, 56, 77
1, 106829, Note_on_c, 0, 77, 94
1, 106866, Note_on_c, 0, 68, 55
1, 106889, Note_off_c, 0, 68, 62
1, 107059, Note_on_c, 0, 78, 96
1, 107083, Note_on_c, 0, 68, 63
1, 107096, Note_off_c, 0, 77, 59
1, 107100, Note_off_c, 0, 68, 68
1, 107232, Note_on_c, 0, 68, 58
1, 107234, Note_on_c, 0, 75, 88
1, 107237, Note_on_c, 0, 63, 82
1, 107271, Note_off_c, 0, 63, 63
1, 107331, Note_off_c, 0, 68, 40
1, 107332, Note_off_c, 0, 56, 23
1, 107404, Note_on_c, 0, 80, 87
1, 107415, Note_on_c, 0, 68, 92
1, 107428, Note_off_c, 0, 78, 58
1, 107428, Note_off_c, 0, 75, 63
1, 107467, Note_off_c, 0, 80, 63
1, 107473, Note_off_c, 0, 68, 64
1, 107740, Control_c, 0, 64, 74
1, 107744, Note_on_c, 0, 37, 81
1, 107755, Control_c, 0, 64, 0
1, 107757, Note_on_c, 0, 68, 83
1, 107766, Note_on_c, 0, 61, 76
1, 107774, Note_on_c, 0, 66, 68
1, 107844, Control_c, 0, 64, 70
1, 107858, Control_c, 0, 64, 82
1, 107872, Note_off_c, 0, 61, 51
1, 107873, Control_c, 0, 64, 97
1, 107878, Note_off_c, 0, 37, 61
1, 107888, Control_c, 0, 64, 127
1, 107899, Note_off_c, 0, 66, 25
1, 107958, Note_off_c, 0, 68, 62
1, 108230, Note_on_c, 0, 71, 78
1, 108246, Note_on_c, 0, 66, 67
1, 108247, Note_on_c, 0, 59, 54
1, 108263, Note_on_c, 0, 56, 46
1, 108266, Note_on_c, 0, 49, 47
1, 108278, Note_on_c, 0, 68, 36
1, 108314, Note_off_c, 0, 68, 49
1, 108368, Note_off_c, 0, 59, 59
1, 108439, Note_off_c, 0, 56, 37
1, 108510, Note_off_c, 0, 66, 32
1, 108518, Note_off_c, 0, 71, 61
1, 108566, Note_on_c, 0, 73, 86
1, 108579, Note_on_c, 0, 66, 73
1, 108580, Note_on_c, 0, 61, 73
1, 108585, Note_on_c, 0, 56, 55
1, 108655, Note_off_c, 0, 61, 53
1, 108662, Note_off_c, 0, 56, 43
1, 108734, Note_off_c, 0, 66, 34
1, 108806, Note_off_c, 0, 73, 60
1, 108823, Control_c, 0, 64, 98
1, 108838, Control_c, 0, 64, 87
1, 108845, Note_on_c, 0, 75, 89
1, 108853, Note_off_c, 0, 49, 60
1, 108853, Control_c, 0, 64, 86
1, 108853, Note_on_c, 0, 56, 61
1, 108858, Note_on_c, 0, 66, 79
1, 108859, Note_on_c, 0, 63, 71
1, 108868, Control_c, 0, 64, 91
1, 108882, Control_c, 0, 64, 98
1, 108895, Note_off_c, 0, 56, 59
1, 108897, Control_c, 0, 64, 108
1, 108903, Note_off_c, 0, 66, 56
1, 108912, Control_c, 0, 64, 127
1, 108932, Note_off_c, 0, 63, 52
1, 108955, Note_off_c, 0, 75, 63
1, 109104, Control_c, 0, 64, 108
1, 109118, Note_on_c, 0, 77, 85
1, 109119, Control_c, 0, 64, 91
1, 109128, Note_on_c, 0, 65, 69
1, 109130, Note_on_c, 0, 68, 73
1, 109133, Control_c, 0, 64, 86
1, 109141, Note_on_c, 0, 56, 54
1, 109143, Note_on_c, 0, 71, 57
1, 109148, Control_c, 0, 64, 87
1, 109152, Note_on_c, 0, 63, 49
1, 109153, Note_on_c, 0, 59, 56
1, 109163, Control_c, 0, 64, 93
1, 109178, Control_c, 0, 64, 101
1, 109180, Note_off_c, 0, 71, 61
1, 109184, Note_off_c, 0, 65, 56
1, 109193, Control_c, 0, 64, 118
1, 109208, Control_c, 0, 64, 127
1, 109213, Note_off_c, 0, 63, 42
1, 109235, Note_off_c, 0, 68, 37
1, 109241, Note_off_c, 0, 77, 59
1, 109253, Control_c, 0, 64, 119
1, 109387, Control_c, 0, 64, 102
1, 109401, Control_c, 0, 64, 81
1, 109416, Control_c, 0, 64, 63
1, 109428, Note_on_c, 0, 78, 81
1, 109433, Note_on_c, 0, 68, 67
1, 109438, Control_c, 0, 64, 0
1, 109439, Note_on_c, 0, 66, 71
1, 109449, Note_on_c, 0, 71, 49
1, 109449, Note_on_c, 0, 63, 55
1, 109468, Control_c, 0, 64, 64
1, 109470, Note_off_c, 0, 56, 58
1, 109483, Control_c, 0, 64, 74
1, 109488, Note_off_c, 0, 71, 64
1, 109495, Note_off_c, 0, 68, 62
1, 109497, Note_off_c, 0, 59, 53
1, 109497, Note_off_c, 0, 63, 61
1, 109498, Control_c, 0, 64, 86
1, 109512, Control_c, 0, 64, 97
1, 109520, Note_off_c, 0, 66, 61
1, 109527, Control_c, 0, 64, 105
1, 109542, Control_c, 0, 64, 107
1, 109545, Note_off_c, 0, 78, 61
1, 109557, Control_c, 0, 64, 111
1, 109572, Control_c, 0, 64, 116
1, 109586, Control_c, 0, 64, 118
1, 109646, Control_c, 0, 64, 120
1, 109661, Control_c, 0, 64, 127
1, 109749, Control_c, 0, 64, 99
1, 109763, Note_on_c, 0, 80, 77
1, 109764, Control_c, 0, 64, 80
1, 109765, Note_on_c, 0, 68, 55
1, 109773, Note_on_c, 0, 71, 65
1, 109779, Control_c, 0, 64, 64
1, 109784, Note_on_c, 0, 59, 32
1, 109788, Note_on_c, 0, 66, 34
1, 109794, Control_c, 0, 64, 48
1, 109797, Note_on_c, 0, 63, 36
1, 109802, Note_on_c, 0, 75, 46
1, 109809, Control_c, 0, 64, 66
1, 109822, Note_on_c, 0, 78, 24
1, 109823, Control_c, 0, 64, 72
1, 109838, Control_c, 0, 64, 82
1, 109852, Note_off_c, 0, 75, 43
1, 109853, Control_c, 0, 64, 93
1, 109855, Note_off_c, 0, 71, 56
1, 109863, Note_off_c, 0, 68, 63
1, 109864, Note_off_c, 0, 78, 47
1, 109868, Control_c, 0, 64, 100
1, 109878, Note_off_c, 0, 66, 59
1, 109883, Note_off_c, 0, 63, 51
1, 109892, Note_off_c, 0, 80, 63
1, 109897, Control_c, 0, 64, 102
1, 109912, Control_c, 0, 64, 104
1, 109927, Control_c, 0, 64, 106
1, 110016, Control_c, 0, 64, 108
1, 110046, Control_c, 0, 64, 111
1, 110061, Control_c, 0, 64, 113
1, 110091, Control_c, 0, 64, 98
1, 110106, Control_c, 0, 64, 81
1, 110120, Control_c, 0, 64, 66
1, 110123, Note_on_c, 0, 82, 71
1, 110128, Note_on_c, 0, 71, 60
1, 110129, Note_on_c, 0, 70, 60
1, 110134, Note_off_c, 0, 59, 42
1, 110135, Control_c, 0, 64, 64
1, 110150, Note_on_c, 0, 63, 37
1, 110150, Control_c, 0, 64, 69
1, 110159, Note_on_c, 0, 66, 19
1, 110165, Control_c, 0, 64, 75
1, 110175, Note_on_c, 0, 75, 29
1, 110185, Note_off_c, 0, 63, 55
1, 110187, Control_c, 0, 64, 84
1, 110202, Control_c, 0, 64, 93
1, 110203, Note_off_c, 0, 66, 42
1, 110217, Control_c, 0, 64, 96
1, 110221, Note_off_c, 0, 75, 46
1, 110229, Note_off_c, 0, 71, 53
1, 110275, Control_c, 0, 64, 98
1, 110299, Note_off_c, 0, 82, 48
1, 110318, Note_off_c, 0, 70, 31
1, 110379, Control_c, 0, 64, 100
1, 110409, Control_c, 0, 64, 103
1, 110424, Control_c, 0, 64, 106
1, 110468, Control_c, 0, 64, 100
1, 110483, Control_c, 0, 64, 85
1, 110498, Control_c, 0, 64, 70
1, 110507, Note_on_c, 0, 83, 69
1, 110510, Note_on_c, 0, 63, 45
1, 110513, Control_c, 0, 64, 0
1, 110519, Note_on_c, 0, 71, 47
1, 110527, Control_c, 0, 64, 60
1, 110528, Note_on_c, 0, 75, 49
1, 110542, Control_c, 0, 64, 66
1, 110552, Note_on_c, 0, 78, 27
1, 110557, Control_c, 0, 64, 71
1, 110571, Control_c, 0, 64, 79
1, 110582, Note_off_c, 0, 71, 61
1, 110585, Note_off_c, 0, 75, 59
1, 110586, Control_c, 0, 64, 89
1, 110587, Note_off_c, 0, 78, 52
1, 110601, Control_c, 0, 64, 96
1, 110612, Note_off_c, 0, 83, 61
1, 110613, Note_off_c, 0, 63, 58
1, 110631, Control_c, 0, 64, 98
1, 110660, Control_c, 0, 64, 100
1, 110950, Control_c, 0, 64, 92
1, 110958, Note_on_c, 0, 85, 62
1, 110960, Note_on_c, 0, 78, 52
1, 110963, Note_on_c, 0, 73, 48
1, 110965, Control_c, 0, 64, 78
1, 110980, Control_c, 0, 64, 64
1, 110995, Note_on_c, 0, 66, 28
1, 110995, Control_c, 0, 64, 0
1, 111005, Note_on_c, 0, 83, 18
1, 111005, Note_on_c, 0, 80, 18
1, 111010, Control_c, 0, 64, 64
1, 111025, Control_c, 0, 64, 68
1, 111040, Control_c, 0, 64, 72
1, 111045, Poly_aftertouch_c, 0, 71, 127
1, 111052, Note_off_c, 0, 80, 50
1, 111055, Control_c, 0, 64, 78
1, 111057, Note_off_c, 0, 83, 43
1, 111070, Control_c, 0, 64, 84
1, 111083, Poly_aftertouch_c, 0, 68, 127
1, 111084, Control_c, 0, 64, 86
1, 111099, Control_c, 0, 64, 86
1, 111107, Note_off_c, 0, 73, 55
1, 111114, Control_c, 0, 64, 87
1, 111119, Note_off_c, 0, 78, 37
1, 111135, Poly_aftertouch_c, 0, 71, 0
1, 111149, Poly_aftertouch_c, 0, 68, 0
1, 111217, Control_c, 0, 64, 86
1, 111306, Control_c, 0, 64, 86
1, 111321, Control_c, 0, 64, 85
1, 111353, Note_off_c, 0, 85, 32
1, 111381, Control_c, 0, 64, 85
1, 111425, Control_c, 0, 64, 84
1, 111470, Note_off_c, 0, 66, 0
1, 111499, Control_c, 0, 64, 84
1, 111507, Poly_aftertouch_c, 0, 66, 127
1, 111555, Note_on_c, 0, 87, 47
1, 111558, Control_c, 0, 64, 83
1, 111562, Note_on_c, 0, 75, 37
1, 111573, Control_c, 0, 64, 80
1, 111581, Note_on_c, 0, 83, 26
1, 111586, Note_on_c, 0, 78, 35
1, 111588, Control_c, 0, 64, 73
1, 111593, Note_on_c, 0, 80, 17
1, 111602, Control_c, 0, 64, 23
1, 111617, Control_c, 0, 64, 0
1, 111644, Poly_aftertouch_c, 0, 71, 127
1, 111715, Control_c, 0, 64, 34
1, 111730, Control_c, 0, 64, 64
1, 111744, Control_c, 0, 64, 66
1, 111759, Control_c, 0, 64, 69
1, 111768, Note_off_c, 0, 83, 20
1, 111774, Control_c, 0, 64, 73
1, 111789, Control_c, 0, 64, 75
1, 111804, Control_c, 0, 64, 75
1, 111818, Control_c, 0, 64, 76
1, 111833, Control_c, 0, 64, 76
1, 111848, Control_c, 0, 64, 77
1, 111863, Control_c, 0, 64, 78
1, 111879, Note_off_c, 0, 80, 27
1, 111888, Note_off_c, 0, 78, 35
1, 111945, Note_off_c, 0, 87, 37
1, 111981, Control_c, 0, 64, 77
1, 111998, Poly_aftertouch_c, 0, 71, 0
1, 112031, Note_off_c, 0, 75, 33
1, 112204, Control_c, 0, 64, 77
1, 112239, Poly_aftertouch_c, 0, 66, 0
1, 112263, Control_c, 0, 64, 76
1, 112292, Control_c, 0, 64, 76
1, 112337, Control_c, 0, 64, 75
1, 112366, Control_c, 0, 64, 75
1, 112381, Control_c, 0, 64, 74
1, 112396, Control_c, 0, 64, 74
1, 112433, Control_c, 0, 64, 73
1, 112448, Control_c, 0, 64, 73
1, 112463, Control_c, 0, 64, 72
1, 112478, Control_c, 0, 64, 71
1, 112493, Control_c, 0, 64, 71
1, 112508, Control_c, 0, 64, 70
1, 112522, Control_c, 0, 64, 69
1, 112537, Control_c, 0, 64, 69
1, 112552, Control_c, 0, 64, 68
1, 112567, Control_c, 0, 64, 68
1, 112597, Control_c, 0, 64, 67
1, 112612, Control_c, 0, 64, 67
1, 112627, Control_c, 0, 64, 65
1, 112641, Control_c, 0, 64, 64
1, 112656, Control_c, 0, 64, 64
1, 112671, Control_c, 0, 64, 63
1, 112686, Control_c, 0, 64, 58
1, 112701, Control_c, 0, 64, 53
1, 112715, Control_c, 0, 64, 51
1, 112745, Control_c, 0, 64, 57
1, 112760, Control_c, 0, 64, 62
1, 112774, Control_c, 0, 64, 64
1, 112789, Control_c, 0, 64, 64
1, 112819, Control_c, 0, 64, 65
1, 112834, Control_c, 0, 64, 66
1, 112848, Control_c, 0, 64, 68
1, 112863, Control_c, 0, 64, 69
1, 112878, Control_c, 0, 64, 72
1, 112890, Note_on_c, 0, 37, 36
1, 112893, Control_c, 0, 64, 74
1, 112898, Note_on_c, 0, 77, 64
1, 112902, Note_on_c, 0, 65, 53
1, 112905, Note_on_c, 0, 73, 50
1, 112907, Note_on_c, 0, 49, 32
1, 112908, Control_c, 0, 64, 76
1, 112916, Note_on_c, 0, 71, 44
1, 112922, Control_c, 0, 64, 79
1, 112937, Control_c, 0, 64, 82
1, 112952, Control_c, 0, 64, 85
1, 112967, Control_c, 0, 64, 89
1, 112982, Control_c, 0, 64, 92
1, 112992, Note_off_c, 0, 49, 54
1, 112996, Control_c, 0, 64, 95
1, 113011, Control_c, 0, 64, 98
1, 113026, Control_c, 0, 64, 101
1, 113041, Control_c, 0, 64, 104
1, 113056, Control_c, 0, 64, 107
1, 113066, Note_off_c, 0, 37, 58
1, 113071, Control_c, 0, 64, 109
1, 113086, Control_c, 0, 64, 112
1, 113089, Note_off_c, 0, 73, 31
1, 113090, Note_off_c, 0, 71, 20
1, 113100, Control_c, 0, 64, 114
1, 113115, Control_c, 0, 64, 116
1, 113145, Control_c, 0, 64, 119
1, 113181, Control_c, 0, 64, 123
1, 113196, Control_c, 0, 64, 127
1, 113269, Note_off_c, 0, 65, 61
1, 113301, Note_on_c, 0, 73, 56
1, 113306, Note_on_c, 0, 71, 41
1, 113345, Note_off_c, 0, 77, 54
1, 113521, Note_on_c, 0, 42, 40
1, 113537, Note_on_c, 0, 30, 43
1, 113553, Control_c, 0, 64, 102
1, 113564, Note_on_c, 0, 78, 67
1, 113564, Note_off_c, 0, 73, 58
1, 113568, Control_c, 0, 64, 81
1, 113583, Control_c, 0, 64, 61
1, 113584, Note_off_c, 0, 71, 54
1, 113588, Note_on_c, 0, 66, 52
1, 113597, Control_c, 0, 64, 0
1, 113657, Control_c, 0, 64, 67
1, 113671, Control_c, 0, 64, 73
1, 113686, Control_c, 0, 64, 77
1, 113692, Note_off_c, 0, 30, 60
1, 113701, Control_c, 0, 64, 83
1, 113715, Control_c, 0, 64, 87
1, 113730, Note_off_c, 0, 42, 58
1, 113730, Control_c, 0, 64, 92
1, 113745, Control_c, 0, 64, 94
1, 113750, Note_off_c, 0, 78, 56
1, 113754, Note_off_c, 0, 66, 60
1, 113760, Control_c, 0, 64, 96
1, 113775, Control_c, 0, 64, 98
1, 113789, Control_c, 0, 64, 100
1, 113804, Control_c, 0, 64, 102
1, 113834, Control_c, 0, 64, 105
1, 113864, Control_c, 0, 64, 108
1, 113879, Control_c, 0, 64, 111
1, 113894, Control_c, 0, 64, 114
1, 113909, Control_c, 0, 64, 117
1, 113930, Control_c, 0, 64, 120
1, 113945, Control_c, 0, 64, 127
1, 114023, Note_on_c, 0, 49, 55
1, 114326, Note_on_c, 0, 61, 69
1, 114445, Note_off_c, 0, 61, 58
1, 114682, Note_on_c, 0, 80, 57
1, 114690, Note_on_c, 0, 71, 45
1, 114693, Control_c, 0, 64, 112
1, 114708, Control_c, 0, 64, 87
1, 114712, Note_on_c, 0, 61, 46
1, 114723, Control_c, 0, 64, 70
1, 114738, Control_c, 0, 64, 0
1, 114813, Control_c, 0, 64, 62
1, 114827, Control_c, 0, 64, 68
1, 114843, Control_c, 0, 64, 72
1, 114858, Control_c, 0, 64, 77
1, 114873, Control_c, 0, 64, 81
1, 114888, Control_c, 0, 64, 85
1, 114901, Note_off_c, 0, 71, 59
1, 114903, Control_c, 0, 64, 87
1, 114907, Note_on_c, 0, 77, 57
1, 114917, Control_c, 0, 64, 89
1, 114918, Note_on_c, 0, 68, 55
1, 114932, Note_off_c, 0, 80, 56
1, 114932, Control_c, 0, 64, 92
1, 114935, Note_off_c, 0, 61, 55
1, 114947, Control_c, 0, 64, 95
1, 114962, Control_c, 0, 64, 98
1, 114976, Control_c, 0, 64, 101
1, 114991, Control_c, 0, 64, 104
1, 115006, Control_c, 0, 64, 108
1, 115021, Control_c, 0, 64, 113
1, 115036, Control_c, 0, 64, 119
1, 115050, Control_c, 0, 64, 127
1, 115059, Note_off_c, 0, 68, 53
1, 115064, Note_off_c, 0, 49, 36
1, 115071, Note_on_c, 0, 71, 53
1, 115074, Note_on_c, 0, 80, 62
1, 115134, Note_off_c, 0, 77, 35
1, 115202, Note_off_c, 0, 80, 56
1, 115205, Note_off_c, 0, 71, 61
1, 115214, Note_on_c, 0, 75, 65
1, 115218, Note_on_c, 0, 66, 53
1, 115287, Note_off_c, 0, 66, 56
1, 115348, Note_on_c, 0, 80, 58
1, 115352, Note_on_c, 0, 71, 51
1, 115366, Note_off_c, 0, 75, 53
1, 115372, Note_on_c, 0, 49, 45
1, 115397, Note_off_c, 0, 80, 61
1, 115404, Note_off_c, 0, 71, 57
1, 115452, Note_off_c, 0, 49, 61
1, 115527, Note_on_c, 0, 73, 67
1, 115542, Note_on_c, 0, 61, 49
1, 115603, Note_off_c, 0, 61, 43
1, 115728, Note_on_c, 0, 42, 37
1, 115770, Control_c, 0, 64, 110
1, 115773, Note_off_c, 0, 73, 55
1, 115784, Note_on_c, 0, 78, 61
1, 115785, Control_c, 0, 64, 85
1, 115799, Control_c, 0, 64, 65
1, 115807, Note_on_c, 0, 70, 34
1, 115814, Control_c, 0, 64, 0
1, 115899, Note_off_c, 0, 78, 56
1, 115903, Control_c, 0, 64, 65
1, 115918, Control_c, 0, 64, 71
1, 115919, Note_off_c, 0, 70, 38
1, 115933, Control_c, 0, 64, 75
1, 115948, Control_c, 0, 64, 80
1, 115962, Control_c, 0, 64, 84
1, 115977, Control_c, 0, 64, 88
1, 115992, Control_c, 0, 64, 92
1, 116007, Control_c, 0, 64, 96
1, 116022, Control_c, 0, 64, 101
1, 116037, Control_c, 0, 64, 105
1, 116052, Control_c, 0, 64, 109
1, 116055, Note_off_c, 0, 42, 55
1, 116066, Control_c, 0, 64, 115
1, 116081, Control_c, 0, 64, 127
1, 116108, Note_on_c, 0, 49, 47
1, 116372, Note_on_c, 0, 61, 54
1, 116457, Note_off_c, 0, 61, 59
1, 116682, Control_c, 0, 64, 113
1, 116689, Note_on_c, 0, 61, 43
1, 116696, Control_c, 0, 64, 87
1, 116699, Note_on_c, 0, 80, 46
1, 116711, Control_c, 0, 64, 71
1, 116712, Note_on_c, 0, 71, 30
1, 116726, Control_c, 0, 64, 0
1, 116770, Control_c, 0, 64, 65
1, 116785, Control_c, 0, 64, 71
1, 116800, Control_c, 0, 64, 78
1, 116815, Control_c, 0, 64, 86
1, 116830, Control_c, 0, 64, 94
1, 116845, Control_c, 0, 64, 96
1, 116859, Control_c, 0, 64, 98
1, 116872, Note_off_c, 0, 71, 40
1, 116874, Control_c, 0, 64, 102
1, 116881, Note_on_c, 0, 77, 50
1, 116883, Note_on_c, 0, 68, 47
1, 116889, Control_c, 0, 64, 107
1, 116904, Control_c, 0, 64, 113
1, 116919, Note_off_c, 0, 61, 54
1, 116926, Note_off_c, 0, 80, 35
1, 116926, Control_c, 0, 64, 127
1, 117011, Note_off_c, 0, 68, 53
1, 117044, Note_on_c, 0, 80, 55
1, 117048, Note_on_c, 0, 71, 40
1, 117053, Note_off_c, 0, 49, 41
1, 117099, Note_off_c, 0, 77, 29
1, 117154, Note_off_c, 0, 71, 53
1, 117164, Note_off_c, 0, 80, 40
1, 117179, Note_on_c, 0, 75, 53
1, 117185, Note_on_c, 0, 66, 46
1, 117250, Note_off_c, 0, 66, 49
1, 117318, Note_on_c, 0, 80, 56
1, 117326, Note_on_c, 0, 71, 47
1, 117329, Note_off_c, 0, 75, 50
1, 117355, Note_off_c, 0, 80, 64
1, 117359, Note_on_c, 0, 49, 40
1, 117379, Note_off_c, 0, 71, 58
1, 117391, Note_off_c, 0, 49, 54
1, 117510, Note_on_c, 0, 73, 46
1, 117513, Note_on_c, 0, 61, 47
1, 117548, Note_off_c, 0, 61, 57
1, 117694, Note_off_c, 0, 73, 52
1, 117724, Note_on_c, 0, 71, 47
1, 117777, Control_c, 0, 64, 105
1, 117781, Note_on_c, 0, 30, 36
1, 117792, Control_c, 0, 64, 76
1, 117807, Control_c, 0, 64, 0
1, 117811, Note_off_c, 0, 71, 60
1, 117820, Note_on_c, 0, 70, 53
1, 117831, Note_on_c, 0, 78, 42
1, 117881, Control_c, 0, 64, 68
1, 117895, Control_c, 0, 64, 75
1, 117901, Poly_aftertouch_c, 0, 73, 127
1, 117909, Note_off_c, 0, 30, 62
1, 117910, Control_c, 0, 64, 82
1, 117925, Control_c, 0, 64, 88
1, 117940, Control_c, 0, 64, 92
1, 117955, Control_c, 0, 64, 96
1, 117960, Poly_aftertouch_c, 0, 73, 0
1, 117969, Control_c, 0, 64, 98
1, 117984, Control_c, 0, 64, 101
1, 117999, Control_c, 0, 64, 104
1, 118013, Control_c, 0, 64, 107
1, 118028, Control_c, 0, 64, 109
1, 118045, Control_c, 0, 64, 111
1, 118050, Note_off_c, 0, 70, 56
1, 118059, Control_c, 0, 64, 115
1, 118074, Control_c, 0, 64, 122
1, 118089, Control_c, 0, 64, 127
1, 118177, Note_on_c, 0, 49, 39
1, 118450, Note_on_c, 0, 61, 46
1, 118592, Note_off_c, 0, 78, 49
1, 118612, Note_on_c, 0, 71, 52
1, 118627, Note_off_c, 0, 49, 33
1, 118685, Note_on_c, 0, 70, 67
1, 118690, Control_c, 0, 64, 103
1, 118690, Note_off_c, 0, 71, 60
1, 118697, Note_on_c, 0, 78, 59
1, 118705, Control_c, 0, 64, 81
1, 118707, Note_on_c, 0, 73, 48
1, 118719, Control_c, 0, 64, 64
1, 118734, Control_c, 0, 64, 0
1, 118793, Control_c, 0, 64, 65
1, 118808, Control_c, 0, 64, 70
1, 118823, Control_c, 0, 64, 74
1, 118839, Control_c, 0, 64, 79
1, 118854, Control_c, 0, 64, 84
1, 118868, Control_c, 0, 64, 87
1, 118883, Control_c, 0, 64, 88
1, 118898, Control_c, 0, 64, 90
1, 118913, Control_c, 0, 64, 93
1, 118914, Note_off_c, 0, 70, 56
1, 118928, Control_c, 0, 64, 95
1, 118942, Control_c, 0, 64, 97
1, 118972, Control_c, 0, 64, 99
1, 118973, Note_on_c, 0, 49, 40
1, 118995, Note_off_c, 0, 73, 37
1, 119003, Note_off_c, 0, 61, 38
1, 119016, Control_c, 0, 64, 102
1, 119240, Note_on_c, 0, 61, 39
1, 119349, Control_c, 0, 64, 100
1, 119359, Note_off_c, 0, 78, 48
1, 119405, Note_on_c, 0, 71, 41
1, 119438, Control_c, 0, 64, 97
1, 119453, Control_c, 0, 64, 88
1, 119467, Note_off_c, 0, 71, 58
1, 119468, Control_c, 0, 64, 76
1, 119480, Note_on_c, 0, 70, 48
1, 119483, Control_c, 0, 64, 63
1, 119497, Note_on_c, 0, 78, 50
1, 119498, Control_c, 0, 64, 0
1, 119506, Note_on_c, 0, 73, 23
1, 119507, Note_off_c, 0, 49, 37
1, 119557, Control_c, 0, 64, 58
1, 119570, Note_off_c, 0, 73, 38
1, 119572, Control_c, 0, 64, 67
1, 119586, Control_c, 0, 64, 70
1, 119601, Control_c, 0, 64, 74
1, 119616, Control_c, 0, 64, 78
1, 119632, Control_c, 0, 64, 82
1, 119647, Control_c, 0, 64, 83
1, 119662, Control_c, 0, 64, 84
1, 119677, Control_c, 0, 64, 85
1, 119690, Note_off_c, 0, 70, 37
1, 119691, Control_c, 0, 64, 86
1, 119706, Control_c, 0, 64, 87
1, 119721, Control_c, 0, 64, 89
1, 119736, Control_c, 0, 64, 89
1, 119739, Note_on_c, 0, 51, 22
1, 119751, Control_c, 0, 64, 90
1, 119770, Note_on_c, 0, 49, 45
1, 119787, Note_off_c, 0, 51, 47
1, 119804, Note_off_c, 0, 61, 29
1, 119810, Control_c, 0, 64, 90
1, 119898, Control_c, 0, 64, 90
1, 119995, Control_c, 0, 64, 89
1, 120039, Control_c, 0, 64, 89
1, 120054, Control_c, 0, 64, 88
1, 120069, Control_c, 0, 64, 88
1, 120083, Control_c, 0, 64, 87
1, 120089, Note_on_c, 0, 61, 40
1, 120098, Control_c, 0, 64, 87
1, 120113, Control_c, 0, 64, 86
1, 120128, Control_c, 0, 64, 85
1, 120143, Control_c, 0, 64, 84
1, 120157, Control_c, 0, 64, 83
1, 120172, Control_c, 0, 64, 83
1, 120187, Control_c, 0, 64, 82
1, 120231, Control_c, 0, 64, 82
1, 120247, Note_off_c, 0, 78, 54
1, 120261, Control_c, 0, 64, 81
1, 120295, Note_on_c, 0, 71, 45
1, 120306, Control_c, 0, 64, 81
1, 120335, Control_c, 0, 64, 80
1, 120350, Note_off_c, 0, 49, 33
1, 120350, Control_c, 0, 64, 78
1, 120364, Note_off_c, 0, 71, 57
1, 120365, Control_c, 0, 64, 72
1, 120380, Control_c, 0, 64, 63
1, 120385, Note_on_c, 0, 70, 42
1, 120393, Note_on_c, 0, 78, 43
1, 120395, Control_c, 0, 64, 0
1, 120412, Note_on_c, 0, 73, 10
1, 120467, Note_off_c, 0, 73, 43
1, 120484, Control_c, 0, 64, 64
1, 120499, Control_c, 0, 64, 67
1, 120514, Control_c, 0, 64, 69
1, 120529, Control_c, 0, 64, 71
1, 120544, Control_c, 0, 64, 73
1, 120559, Control_c, 0, 64, 75
1, 120574, Control_c, 0, 64, 77
1, 120588, Control_c, 0, 64, 79
1, 120603, Control_c, 0, 64, 81
1, 120615, Note_off_c, 0, 70, 38
1, 120618, Control_c, 0, 64, 82
1, 120632, Control_c, 0, 64, 83
1, 120646, Note_on_c, 0, 51, 32
1, 120647, Control_c, 0, 64, 84
1, 120669, Control_c, 0, 64, 84
1, 120703, Note_off_c, 0, 51, 45
1, 120720, Note_on_c, 0, 49, 40
1, 120763, Note_off_c, 0, 61, 37
1, 120876, Control_c, 0, 64, 84
1, 120905, Control_c, 0, 64, 83
1, 120920, Control_c, 0, 64, 83
1, 120935, Control_c, 0, 64, 82
1, 120950, Control_c, 0, 64, 82
1, 120965, Control_c, 0, 64, 81
1, 120979, Control_c, 0, 64, 80
1, 120994, Control_c, 0, 64, 80
1, 121009, Control_c, 0, 64, 79
1, 121024, Control_c, 0, 64, 79
1, 121039, Control_c, 0, 64, 78
1, 121054, Control_c, 0, 64, 78
1, 121069, Control_c, 0, 64, 77
1, 121084, Control_c, 0, 64, 77
1, 121099, Control_c, 0, 64, 76
1, 121113, Control_c, 0, 64, 76
1, 121114, Note_on_c, 0, 61, 34
1, 121128, Control_c, 0, 64, 75
1, 121143, Control_c, 0, 64, 74
1, 121158, Control_c, 0, 64, 73
1, 121173, Control_c, 0, 64, 72
1, 121187, Control_c, 0, 64, 71
1, 121202, Control_c, 0, 64, 71
1, 121233, Control_c, 0, 64, 70
1, 121262, Control_c, 0, 64, 70
1, 121307, Control_c, 0, 64, 69
1, 121366, Control_c, 0, 64, 69
1, 121375, Note_off_c, 0, 78, 39
1, 121389, Note_off_c, 0, 49, 35
1, 121396, Control_c, 0, 64, 68
1, 121397, Note_on_c, 0, 71, 36
1, 121417, Control_c, 0, 64, 67
1, 121432, Control_c, 0, 64, 66
1, 121447, Control_c, 0, 64, 65
1, 121462, Control_c, 0, 64, 64
1, 121611, Control_c, 0, 64, 64
1, 121655, Control_c, 0, 64, 62
1, 121670, Control_c, 0, 64, 57
1, 121685, Control_c, 0, 64, 50
1, 121700, Control_c, 0, 64, 41
1, 121715, Control_c, 0, 64, 13
1, 121729, Control_c, 0, 64, 0
1, 121734, Note_on_c, 0, 69, 27
1, 121749, Note_on_c, 0, 78, 31
1, 121751, Note_off_c, 0, 71, 34
1, 121806, Poly_aftertouch_c, 0, 73, 127
1, 121874, Poly_aftertouch_c, 0, 73, 0
1, 121981, Control_c, 0, 64, 53
1, 121996, Control_c, 0, 64, 64
1, 122011, Control_c, 0, 64, 65
1, 122026, Control_c, 0, 64, 66
1, 122041, Control_c, 0, 64, 67
1, 122056, Control_c, 0, 64, 68
1, 122070, Control_c, 0, 64, 69
1, 122085, Control_c, 0, 64, 70
1, 122100, Control_c, 0, 64, 70
1, 122115, Control_c, 0, 64, 71
1, 122130, Control_c, 0, 64, 71
1, 122182, Control_c, 0, 64, 72
1, 122197, Control_c, 0, 64, 72
1, 122211, Control_c, 0, 64, 73
1, 122226, Control_c, 0, 64, 73
1, 122256, Control_c, 0, 64, 74
1, 122278, Note_on_c, 0, 49, 19
1, 122330, Control_c, 0, 64, 74
1, 122336, Note_off_c, 0, 78, 35
1, 122364, Note_off_c, 0, 69, 36
1, 122377, Note_off_c, 0, 61, 35
1, 122538, Control_c, 0, 64, 74
1, 122560, Note_on_c, 0, 54, 33
1, 122641, Control_c, 0, 64, 73
1, 122795, Note_on_c, 0, 56, 40
1, 122803, Note_off_c, 0, 54, 40
1, 122837, Note_off_c, 0, 49, 36
1, 122849, Control_c, 0, 64, 73
1, 122971, Note_off_c, 0, 56, 60
1, 122997, Note_on_c, 0, 57, 43
1, 123064, Control_c, 0, 64, 72
1, 123123, Control_c, 0, 64, 72
1, 123197, Control_c, 0, 64, 71
1, 123200, Note_off_c, 0, 57, 54
1, 123212, Control_c, 0, 64, 71
1, 123216, Note_on_c, 0, 59, 43
1, 123227, Control_c, 0, 64, 70
1, 123242, Control_c, 0, 64, 70
1, 123257, Control_c, 0, 64, 69
1, 123272, Control_c, 0, 64, 68
1, 123287, Control_c, 0, 64, 67
1, 123301, Control_c, 0, 64, 66
1, 123316, Control_c, 0, 64, 65
1, 123331, Control_c, 0, 64, 65
1, 123346, Control_c, 0, 64, 64
1, 123361, Control_c, 0, 64, 63
1, 123375, Control_c, 0, 64, 59
1, 123390, Control_c, 0, 64, 48
1, 123405, Control_c, 0, 64, 30
1, 123420, Control_c, 0, 64, 0
1, 123468, Note_on_c, 0, 61, 39
1, 123558, Note_off_c, 0, 59, 51
1, 123677, Note_on_c, 0, 66, 42
1, 123679, Note_off_c, 0, 61, 54
1, 123887, Note_on_c, 0, 62, 46
1, 123921, Note_off_c, 0, 66, 36
1, 124085, Note_on_c, 0, 61, 44
1, 124115, Note_off_c, 0, 62, 52
1, 124290, Note_on_c, 0, 59, 47
1, 124303, Note_off_c, 0, 61, 56
1, 124499, Note_on_c, 0, 62, 51
1, 124506, Note_off_c, 0, 59, 54
1, 124700, Note_off_c, 0, 62, 61
1, 124716, Note_on_c, 0, 61, 48
1, 124920, Note_on_c, 0, 66, 54
1, 125015, Note_off_c, 0, 61, 37
1, 125131, Note_on_c, 0, 62, 59
1, 125205, Note_off_c, 0, 66, 53
1, 125354, Note_on_c, 0, 61, 61
1, 125395, Note_off_c, 0, 62, 62
1, 125546, Note_on_c, 0, 59, 58
1, 125573, Note_off_c, 0, 61, 59
1, 125746, Note_on_c, 0, 62, 67
1, 125763, Note_off_c, 0, 59, 56
1, 125982, Note_on_c, 0, 61, 64
1, 125989, Note_off_c, 0, 62, 64
1, 126172, Note_on_c, 0, 66, 66
1, 126235, Note_off_c, 0, 61, 59
1, 126367, Note_on_c, 0, 62, 70
1, 126467, Note_off_c, 0, 66, 61
1, 126548, Control_c, 0, 64, 64
1, 126563, Control_c, 0, 64, 66
1, 126577, Control_c, 0, 64, 67
1, 126592, Control_c, 0, 64, 69
1, 126607, Control_c, 0, 64, 74
1, 126622, Control_c, 0, 64, 79
1, 126637, Control_c, 0, 64, 85
1, 126657, Note_on_c, 0, 61, 69
1, 126658, Note_off_c, 0, 62, 63
1, 126659, Control_c, 0, 64, 88
1, 126674, Control_c, 0, 64, 90
1, 126689, Control_c, 0, 64, 92
1, 126704, Control_c, 0, 64, 94
1, 126719, Control_c, 0, 64, 96
1, 126725, Note_off_c, 0, 61, 61
1, 126763, Control_c, 0, 64, 98
1, 126974, Note_on_c, 0, 73, 75
1, 127001, Control_c, 0, 64, 95
1, 127016, Control_c, 0, 64, 94
1, 127031, Control_c, 0, 64, 93
1, 127045, Control_c, 0, 64, 91
1, 127060, Control_c, 0, 64, 90
1, 127075, Control_c, 0, 64, 88
1, 127090, Control_c, 0, 64, 85
1, 127105, Control_c, 0, 64, 84
1, 127120, Control_c, 0, 64, 82
1, 127135, Control_c, 0, 64, 81
1, 127149, Control_c, 0, 64, 81
1, 127164, Control_c, 0, 64, 80
1, 127179, Control_c, 0, 64, 80
1, 127193, Control_c, 0, 64, 79
1, 127208, Control_c, 0, 64, 78
1, 127223, Control_c, 0, 64, 77
1, 127238, Control_c, 0, 64, 76
1, 127246, Note_on_c, 0, 66, 74
1, 127253, Control_c, 0, 64, 75
1, 127267, Control_c, 0, 64, 74
1, 127282, Control_c, 0, 64, 74
1, 127297, Control_c, 0, 64, 73
1, 127312, Control_c, 0, 64, 72
1, 127326, Control_c, 0, 64, 71
1, 127341, Control_c, 0, 64, 70
1, 127356, Control_c, 0, 64, 69
1, 127371, Control_c, 0, 64, 69
1, 127386, Control_c, 0, 64, 68
1, 127423, Control_c, 0, 64, 67
1, 127438, Control_c, 0, 64, 67
1, 127453, Control_c, 0, 64, 66
1, 127460, Note_off_c, 0, 73, 38
1, 127468, Control_c, 0, 64, 66
1, 127490, Note_on_c, 0, 68, 68
1, 127526, Control_c, 0, 64, 65
1, 127535, Note_off_c, 0, 66, 59
1, 127709, Note_on_c, 0, 66, 68
1, 127764, Note_off_c, 0, 68, 58
1, 127883, Note_off_c, 0, 66, 62
1, 127885, Note_on_c, 0, 64, 59
1, 128095, Note_on_c, 0, 66, 68
1, 128098, Note_off_c, 0, 64, 60
1, 128120, Control_c, 0, 64, 65
1, 128310, Note_on_c, 0, 64, 63
1, 128364, Control_c, 0, 64, 64
1, 128372, Note_off_c, 0, 66, 50
1, 128496, Note_on_c, 0, 62, 54
1, 128497, Note_off_c, 0, 64, 58
1, 128602, Control_c, 0, 64, 64
1, 128704, Note_on_c, 0, 64, 50
1, 128712, Note_off_c, 0, 62, 55
1, 128876, Note_off_c, 0, 64, 64
1, 128913, Note_on_c, 0, 62, 51
1, 128935, Control_c, 0, 64, 63
1, 129010, Control_c, 0, 64, 63
1, 129040, Control_c, 0, 64, 62
1, 129054, Control_c, 0, 64, 62
1, 129064, Note_off_c, 0, 62, 59
1, 129069, Control_c, 0, 64, 61
1, 129084, Control_c, 0, 64, 61
1, 129086, Note_on_c, 0, 61, 50
1, 129098, Control_c, 0, 64, 60
1, 129113, Control_c, 0, 64, 59
1, 129143, Control_c, 0, 64, 58
1, 129218, Control_c, 0, 64, 57
1, 129248, Control_c, 0, 64, 56
1, 129332, Note_on_c, 0, 62, 44
1, 129345, Note_off_c, 0, 61, 51
1, 129351, Control_c, 0, 64, 57
1, 129395, Control_c, 0, 64, 58
1, 129455, Control_c, 0, 64, 57
1, 129469, Control_c, 0, 64, 55
1, 129484, Control_c, 0, 64, 51
1, 129499, Control_c, 0, 64, 41
1, 129514, Control_c, 0, 64, 23
1, 129529, Control_c, 0, 64, 0
1, 129538, Note_on_c, 0, 61, 52
1, 129540, Note_off_c, 0, 62, 51
1, 129749, Note_on_c, 0, 59, 50
1, 129774, Note_off_c, 0, 61, 54
1, 129979, Note_on_c, 0, 61, 57
1, 130003, Note_off_c, 0, 59, 52
1, 130183, Note_on_c, 0, 66, 53
1, 130246, Note_off_c, 0, 61, 39
1, 130378, Note_on_c, 0, 61, 64
1, 130390, Note_on_c, 0, 49, 51
1, 130643, Note_on_c, 0, 50, 60
1, 130649, Note_off_c, 0, 66, 57
1, 130650, Note_on_c, 0, 62, 68
1, 130768, Note_off_c, 0, 49, 42
1, 130795, Note_off_c, 0, 61, 53
1, 130878, Note_on_c, 0, 54, 55
1, 130878, Note_on_c, 0, 66, 60
1, 131031, Note_off_c, 0, 50, 38
1, 131075, Note_on_c, 0, 47, 52
1, 131076, Note_on_c, 0, 59, 72
1, 131114, Note_off_c, 0, 62, 60
1, 131280, Note_off_c, 0, 54, 34
1, 131333, Note_on_c, 0, 61, 74
1, 131346, Note_on_c, 0, 49, 57
1, 131398, Note_off_c, 0, 66, 54
1, 131437, Note_off_c, 0, 47, 37
1, 131437, Note_off_c, 0, 59, 54
1, 131570, Note_on_c, 0, 66, 66
1, 131585, Note_on_c, 0, 54, 51
1, 131720, Note_off_c, 0, 61, 57
1, 131755, Note_on_c, 0, 45, 59
1, 131761, Note_on_c, 0, 57, 72
1, 131762, Note_off_c, 0, 49, 41
1, 132048, Note_on_c, 0, 47, 63
1, 132050, Note_on_c, 0, 59, 78
1, 132054, Note_off_c, 0, 54, 56
1, 132122, Note_off_c, 0, 66, 57
1, 132151, Note_off_c, 0, 45, 34
1, 132318, Note_on_c, 0, 54, 57
1, 132319, Note_off_c, 0, 57, 42
1, 132331, Note_on_c, 0, 66, 72
1, 132382, Note_off_c, 0, 59, 61
1, 132494, Control_c, 0, 64, 62
1, 132509, Control_c, 0, 64, 66
1, 132524, Control_c, 0, 64, 67
1, 132538, Control_c, 0, 64, 68
1, 132553, Control_c, 0, 64, 69
1, 132559, Note_off_c, 0, 54, 60
1, 132568, Control_c, 0, 64, 69
1, 132583, Control_c, 0, 64, 70
1, 132598, Control_c, 0, 64, 72
1, 132612, Control_c, 0, 64, 74
1, 132614, Note_on_c, 0, 49, 56
1, 132627, Control_c, 0, 64, 75
1, 132647, Note_on_c, 0, 61, 77
1, 132650, Control_c, 0, 64, 76
1, 132664, Control_c, 0, 64, 76
1, 132679, Control_c, 0, 64, 77
1, 132682, Note_off_c, 0, 47, 58
1, 132686, Note_off_c, 0, 66, 62
1, 132694, Control_c, 0, 64, 78
1, 132706, Note_off_c, 0, 49, 63
1, 132709, Control_c, 0, 64, 79
1, 132724, Control_c, 0, 64, 80
1, 132738, Control_c, 0, 64, 81
1, 132783, Control_c, 0, 64, 82
1, 132812, Control_c, 0, 64, 82
1, 132827, Control_c, 0, 64, 83
1, 132842, Control_c, 0, 64, 84
1, 132857, Control_c, 0, 64, 85
1, 132871, Control_c, 0, 64, 86
1, 132931, Control_c, 0, 64, 86
1, 132960, Control_c, 0, 64, 87
1, 133213, Control_c, 0, 64, 86
1, 133215, Note_on_c, 0, 69, 74
1, 133218, Note_on_c, 0, 45, 53
1, 133223, Note_on_c, 0, 57, 50
1, 133228, Note_on_c, 0, 33, 52
1, 133228, Control_c, 0, 64, 82
1, 133243, Control_c, 0, 64, 72
1, 133258, Control_c, 0, 64, 0
1, 133400, Note_off_c, 0, 61, 47
1, 133413, Control_c, 0, 64, 50
1, 133428, Control_c, 0, 64, 65
1, 133442, Control_c, 0, 64, 67
1, 133457, Control_c, 0, 64, 70
1, 133472, Control_c, 0, 64, 73
1, 133487, Control_c, 0, 64, 76
1, 133502, Control_c, 0, 64, 79
1, 133517, Control_c, 0, 64, 81
1, 133532, Control_c, 0, 64, 83
1, 133547, Control_c, 0, 64, 84
1, 133561, Control_c, 0, 64, 86
1, 133576, Control_c, 0, 64, 87
1, 133591, Control_c, 0, 64, 89
1, 133606, Control_c, 0, 64, 91
1, 133621, Control_c, 0, 64, 93
1, 133635, Control_c, 0, 64, 94
1, 133694, Control_c, 0, 64, 94
1, 133724, Control_c, 0, 64, 95
1, 133741, Note_off_c, 0, 33, 25
1, 133809, Note_on_c, 0, 40, 45
1, 133836, Note_off_c, 0, 45, 38
1, 133855, Note_off_c, 0, 40, 53
1, 133916, Control_c, 0, 64, 94
1, 133946, Control_c, 0, 64, 94
1, 134051, Control_c, 0, 64, 93
1, 134065, Control_c, 0, 64, 87
1, 134080, Control_c, 0, 64, 76
1, 134092, Note_on_c, 0, 45, 44
1, 134095, Control_c, 0, 64, 46
1, 134096, Note_on_c, 0, 33, 40
1, 134110, Control_c, 0, 64, 0
1, 134191, Control_c, 0, 64, 64
1, 134206, Control_c, 0, 64, 68
1, 134221, Control_c, 0, 64, 71
1, 134236, Control_c, 0, 64, 74
1, 134251, Control_c, 0, 64, 78
1, 134265, Control_c, 0, 64, 80
1, 134280, Control_c, 0, 64, 82
1, 134295, Control_c, 0, 64, 83
1, 134304, Note_off_c, 0, 33, 42
1, 134310, Control_c, 0, 64, 84
1, 134325, Control_c, 0, 64, 85
1, 134340, Control_c, 0, 64, 86
1, 134355, Control_c, 0, 64, 88
1, 134370, Control_c, 0, 64, 89
1, 134399, Control_c, 0, 64, 89
1, 134429, Note_off_c, 0, 45, 33
1, 134443, Control_c, 0, 64, 90
1, 134473, Control_c, 0, 64, 90
1, 134517, Control_c, 0, 64, 91
1, 134582, Note_on_c, 0, 40, 38
1, 134635, Control_c, 0, 64, 90
1, 134644, Note_off_c, 0, 40, 46
1, 134709, Control_c, 0, 64, 90
1, 134799, Control_c, 0, 64, 89
1, 134814, Control_c, 0, 64, 84
1, 134829, Control_c, 0, 64, 70
1, 134844, Control_c, 0, 64, 0
1, 134852, Note_on_c, 0, 45, 40
1, 134926, Control_c, 0, 64, 65
1, 134940, Control_c, 0, 64, 71
1, 134955, Control_c, 0, 64, 75
1, 134969, Control_c, 0, 64, 79
1, 134984, Control_c, 0, 64, 82
1, 134999, Note_off_c, 0, 45, 57
1, 134999, Control_c, 0, 64, 84
1, 135013, Control_c, 0, 64, 86
1, 135028, Control_c, 0, 64, 87
1, 135043, Control_c, 0, 64, 88
1, 135058, Control_c, 0, 64, 88
1, 135073, Control_c, 0, 64, 89
1, 135251, Control_c, 0, 64, 88
1, 135265, Control_c, 0, 64, 88
1, 135295, Control_c, 0, 64, 87
1, 135300, Note_on_c, 0, 40, 36
1, 135310, Control_c, 0, 64, 87
1, 135311, Note_on_c, 0, 52, 41
1, 135325, Control_c, 0, 64, 86
1, 135353, Note_off_c, 0, 57, 34
1, 135354, Control_c, 0, 64, 86
1, 135369, Control_c, 0, 64, 85
1, 135384, Control_c, 0, 64, 84
1, 135399, Control_c, 0, 64, 83
1, 135413, Control_c, 0, 64, 82
1, 135428, Control_c, 0, 64, 82
1, 135458, Control_c, 0, 64, 81
1, 135472, Control_c, 0, 64, 75
1, 135487, Control_c, 0, 64, 63
1, 135502, Control_c, 0, 64, 0
1, 135569, Note_off_c, 0, 52, 44
1, 135570, Note_on_c, 0, 45, 38
1, 135591, Control_c, 0, 64, 64
1, 135607, Control_c, 0, 64, 68
1, 135610, Note_off_c, 0, 40, 26
1, 135622, Control_c, 0, 64, 71
1, 135644, Control_c, 0, 64, 73
1, 135659, Control_c, 0, 64, 74
1, 135674, Control_c, 0, 64, 75
1, 135688, Control_c, 0, 64, 76
1, 135703, Control_c, 0, 64, 77
1, 135719, Control_c, 0, 64, 77
1, 135734, Control_c, 0, 64, 78
1, 135737, Note_off_c, 0, 45, 54
1, 135749, Control_c, 0, 64, 79
1, 135763, Control_c, 0, 64, 79
1, 135778, Control_c, 0, 64, 80
1, 135837, Control_c, 0, 64, 80
1, 135881, Control_c, 0, 64, 81
1, 135986, Note_on_c, 0, 52, 23
1, 135988, Note_on_c, 0, 40, 32
1, 136045, Control_c, 0, 64, 80
1, 136178, Control_c, 0, 64, 79
1, 136193, Control_c, 0, 64, 74
1, 136207, Control_c, 0, 64, 67
1, 136222, Control_c, 0, 64, 0
1, 136247, Note_on_c, 0, 61, 30
1, 136257, Note_on_c, 0, 45, 24
1, 136259, Note_off_c, 0, 40, 33
1, 136301, Note_off_c, 0, 52, 34
1, 136341, Control_c, 0, 64, 65
1, 136355, Control_c, 0, 64, 68
1, 136370, Control_c, 0, 64, 70
1, 136393, Control_c, 0, 64, 72
1, 136408, Control_c, 0, 64, 74
1, 136423, Control_c, 0, 64, 75
1, 136438, Control_c, 0, 64, 76
1, 136453, Control_c, 0, 64, 77
1, 136468, Control_c, 0, 64, 77
1, 136471, Note_on_c, 0, 64, 40
1, 136476, Note_off_c, 0, 45, 54
1, 136483, Control_c, 0, 64, 78
1, 136498, Control_c, 0, 64, 78
1, 136527, Control_c, 0, 64, 79
1, 136540, Note_off_c, 0, 61, 35
1, 136557, Control_c, 0, 64, 79
1, 136660, Note_on_c, 0, 52, 33
1, 136672, Note_on_c, 0, 40, 25
1, 136676, Note_off_c, 0, 64, 51
1, 136681, Note_on_c, 0, 59, 43
1, 136778, Control_c, 0, 64, 78
1, 136793, Control_c, 0, 64, 72
1, 136808, Control_c, 0, 64, 62
1, 136823, Control_c, 0, 64, 0
1, 136882, Control_c, 0, 64, 64
1, 136897, Control_c, 0, 64, 67
1, 136912, Control_c, 0, 64, 69
1, 136924, Note_on_c, 0, 45, 27
1, 136924, Note_on_c, 0, 61, 36
1, 136927, Control_c, 0, 64, 71
1, 136942, Control_c, 0, 64, 74
1, 136957, Control_c, 0, 64, 76
1, 136972, Control_c, 0, 64, 78
1, 136986, Note_off_c, 0, 52, 31
1, 136986, Control_c, 0, 64, 79
1, 136987, Note_off_c, 0, 40, 26
1, 137001, Control_c, 0, 64, 80
1, 137016, Control_c, 0, 64, 81
1, 137030, Control_c, 0, 64, 82
1, 137043, Note_off_c, 0, 59, 29
1, 137045, Control_c, 0, 64, 83
1, 137060, Control_c, 0, 64, 84
1, 137075, Control_c, 0, 64, 84
1, 137104, Control_c, 0, 64, 85
1, 137106, Note_off_c, 0, 45, 51
1, 137119, Control_c, 0, 64, 85
1, 137140, Note_on_c, 0, 64, 42
1, 137142, Control_c, 0, 64, 86
1, 137148, Note_off_c, 0, 61, 37
1, 137157, Control_c, 0, 64, 86
1, 137231, Control_c, 0, 64, 87
1, 137331, Note_on_c, 0, 40, 27
1, 137335, Control_c, 0, 64, 86
1, 137337, Note_on_c, 0, 52, 36
1, 137338, Note_off_c, 0, 64, 42
1, 137346, Note_on_c, 0, 59, 49
1, 137350, Control_c, 0, 64, 85
1, 137365, Control_c, 0, 64, 82
1, 137380, Control_c, 0, 64, 78
1, 137395, Control_c, 0, 64, 73
1, 137409, Control_c, 0, 64, 67
1, 137424, Control_c, 0, 64, 38
1, 137439, Control_c, 0, 64, 0
1, 137527, Control_c, 0, 64, 53
1, 137542, Control_c, 0, 64, 68
1, 137556, Note_on_c, 0, 61, 45
1, 137557, Control_c, 0, 64, 72
1, 137563, Note_on_c, 0, 45, 36
1, 137572, Control_c, 0, 64, 76
1, 137583, Note_off_c, 0, 61, 56
1, 137587, Control_c, 0, 64, 79
1, 137601, Control_c, 0, 64, 81
1, 137616, Control_c, 0, 64, 82
1, 137631, Control_c, 0, 64, 85
1, 137643, Note_off_c, 0, 40, 30
1, 137646, Control_c, 0, 64, 87
1, 137660, Control_c, 0, 64, 89
1, 137661, Note_off_c, 0, 52, 26
1, 137663, Note_off_c, 0, 59, 35
1, 137675, Control_c, 0, 64, 91
1, 137690, Control_c, 0, 64, 92
1, 137705, Control_c, 0, 64, 93
1, 137720, Control_c, 0, 64, 94
1, 137735, Control_c, 0, 64, 96
1, 137765, Control_c, 0, 64, 99
1, 137771, Note_on_c, 0, 66, 59
1, 137789, Note_off_c, 0, 45, 37
1, 137809, Control_c, 0, 64, 102
1, 137824, Control_c, 0, 64, 104
1, 137836, Poly_aftertouch_c, 0, 64, 127
1, 137842, Note_off_c, 0, 69, 54
1, 137853, Control_c, 0, 64, 106
1, 137911, Poly_aftertouch_c, 0, 64, 0
1, 137976, Note_on_c, 0, 59, 43
1, 137978, Note_on_c, 0, 40, 32
1, 137982, Note_on_c, 0, 52, 28
1, 137987, Note_on_c, 0, 68, 57
1, 137991, Note_off_c, 0, 66, 55
1, 138010, Control_c, 0, 64, 108
1, 138032, Note_off_c, 0, 59, 51
1, 138202, Control_c, 0, 64, 105
1, 138215, Note_on_c, 0, 69, 61
1, 138217, Control_c, 0, 64, 91
1, 138232, Control_c, 0, 64, 77
1, 138233, Note_on_c, 0, 45, 42
1, 138240, Note_off_c, 0, 68, 52
1, 138247, Control_c, 0, 64, 65
1, 138262, Control_c, 0, 64, 0
1, 138265, Note_on_c, 0, 61, 34
1, 138285, Note_off_c, 0, 40, 40
1, 138291, Control_c, 0, 64, 65
1, 138306, Control_c, 0, 64, 69
1, 138321, Control_c, 0, 64, 75
1, 138336, Control_c, 0, 64, 81
1, 138350, Control_c, 0, 64, 86
1, 138365, Control_c, 0, 64, 89
1, 138380, Control_c, 0, 64, 91
1, 138385, Note_off_c, 0, 52, 32
1, 138395, Control_c, 0, 64, 94
1, 138409, Control_c, 0, 64, 97
1, 138424, Note_on_c, 0, 66, 59
1, 138424, Control_c, 0, 64, 99
1, 138425, Note_off_c, 0, 45, 51
1, 138434, Note_on_c, 0, 64, 45
1, 138439, Control_c, 0, 64, 101
1, 138454, Control_c, 0, 64, 104
1, 138466, Note_off_c, 0, 69, 59
1, 138469, Control_c, 0, 64, 108
1, 138482, Note_off_c, 0, 61, 39
1, 138483, Control_c, 0, 64, 113
1, 138498, Control_c, 0, 64, 124
1, 138513, Control_c, 0, 64, 127
1, 138593, Note_on_c, 0, 40, 35
1, 138602, Note_on_c, 0, 59, 52
1, 138609, Note_on_c, 0, 52, 30
1, 138620, Note_on_c, 0, 68, 47
1, 138654, Note_off_c, 0, 59, 61
1, 138668, Note_off_c, 0, 66, 60
1, 138700, Note_off_c, 0, 68, 59
1, 138821, Note_on_c, 0, 69, 65
1, 138833, Note_off_c, 0, 64, 40
1, 138833, Control_c, 0, 64, 93
1, 138836, Note_on_c, 0, 45, 48
1, 138836, Poly_aftertouch_c, 0, 71, 127
1, 138848, Control_c, 0, 64, 74
1, 138852, Note_on_c, 0, 61, 37
1, 138863, Control_c, 0, 64, 0
1, 138880, Poly_aftertouch_c, 0, 71, 0
1, 138922, Control_c, 0, 64, 64
1, 138927, Note_off_c, 0, 40, 33
1, 138937, Control_c, 0, 64, 69
1, 138952, Control_c, 0, 64, 72
1, 138967, Control_c, 0, 64, 75
1, 138981, Control_c, 0, 64, 78
1, 138985, Note_off_c, 0, 61, 55
1, 138996, Note_off_c, 0, 52, 36
1, 138996, Control_c, 0, 64, 81
1, 139011, Control_c, 0, 64, 84
1, 139026, Note_on_c, 0, 64, 65
1, 139026, Control_c, 0, 64, 87
1, 139037, Note_off_c, 0, 45, 50
1, 139041, Control_c, 0, 64, 88
1, 139056, Control_c, 0, 64, 89
1, 139100, Control_c, 0, 64, 89
1, 139115, Control_c, 0, 64, 90
1, 139130, Control_c, 0, 64, 91
1, 139141, Note_off_c, 0, 69, 47
1, 139160, Control_c, 0, 64, 91
1, 139219, Control_c, 0, 64, 92
1, 139221, Note_on_c, 0, 52, 48
1, 139222, Note_on_c, 0, 59, 54
1, 139223, Note_on_c, 0, 68, 71
1, 139225, Note_on_c, 0, 40, 34
1, 139233, Control_c, 0, 64, 92
1, 139259, Note_off_c, 0, 59, 47
1, 139293, Control_c, 0, 64, 93
1, 139389, Control_c, 0, 64, 92
1, 139404, Control_c, 0, 64, 86
1, 139419, Control_c, 0, 64, 77
1, 139429, Note_on_c, 0, 69, 66
1, 139433, Control_c, 0, 64, 66
1, 139436, Note_off_c, 0, 64, 41
1, 139448, Control_c, 0, 64, 0
1, 139454, Note_on_c, 0, 61, 45
1, 139458, Note_on_c, 0, 45, 48
1, 139463, Note_off_c, 0, 68, 63
1, 139492, Control_c, 0, 64, 46
1, 139506, Control_c, 0, 64, 67
1, 139510, Note_off_c, 0, 40, 40
1, 139521, Control_c, 0, 64, 72
1, 139536, Control_c, 0, 64, 77
1, 139550, Control_c, 0, 64, 84
1, 139565, Control_c, 0, 64, 88
1, 139580, Control_c, 0, 64, 90
1, 139585, Note_off_c, 0, 52, 46
1, 139595, Control_c, 0, 64, 93
1, 139611, Control_c, 0, 64, 96
1, 139625, Note_on_c, 0, 68, 69
1, 139626, Control_c, 0, 64, 99
1, 139641, Control_c, 0, 64, 102
1, 139649, Note_off_c, 0, 45, 39
1, 139655, Control_c, 0, 64, 105
1, 139670, Control_c, 0, 64, 107
1, 139700, Control_c, 0, 64, 110
1, 139715, Control_c, 0, 64, 112
1, 139729, Control_c, 0, 64, 115
1, 139744, Control_c, 0, 64, 118
1, 139759, Control_c, 0, 64, 123
1, 139774, Control_c, 0, 64, 127
1, 139806, Note_on_c, 0, 71, 76
1, 139817, Note_on_c, 0, 52, 57
1, 139819, Note_off_c, 0, 68, 61
1, 139822, Note_off_c, 0, 69, 27
1, 139824, Note_on_c, 0, 40, 49
1, 139834, Note_on_c, 0, 66, 32
1, 139866, Note_off_c, 0, 66, 45
1, 139881, Note_off_c, 0, 71, 60
1, 139981, Control_c, 0, 64, 115
1, 139996, Control_c, 0, 64, 98
1, 140011, Control_c, 0, 64, 82
1, 140026, Control_c, 0, 64, 69
1, 140039, Note_on_c, 0, 73, 72
1, 140041, Control_c, 0, 64, 0
1, 140057, Note_on_c, 0, 64, 58
1, 140059, Note_on_c, 0, 45, 56
1, 140100, Control_c, 0, 64, 58
1, 140115, Control_c, 0, 64, 67
1, 140137, Control_c, 0, 64, 72
1, 140141, Note_off_c, 0, 40, 49
1, 140152, Control_c, 0, 64, 80
1, 140164, Note_off_c, 0, 52, 56
1, 140167, Control_c, 0, 64, 88
1, 140181, Control_c, 0, 64, 93
1, 140196, Control_c, 0, 64, 95
1, 140212, Note_off_c, 0, 64, 57
1, 140220, Note_off_c, 0, 61, 37
1, 140226, Control_c, 0, 64, 98
1, 140241, Control_c, 0, 64, 100
1, 140244, Note_on_c, 0, 69, 73
1, 140270, Control_c, 0, 64, 104
1, 140287, Note_off_c, 0, 45, 39
1, 140300, Control_c, 0, 64, 107
1, 140315, Control_c, 0, 64, 109
1, 140329, Control_c, 0, 64, 113
1, 140344, Control_c, 0, 64, 117
1, 140356, Note_off_c, 0, 73, 56
1, 140359, Control_c, 0, 64, 123
1, 140373, Control_c, 0, 64, 127
1, 140434, Note_on_c, 0, 61, 71
1, 140442, Note_on_c, 0, 52, 54
1, 140447, Note_on_c, 0, 40, 51
1, 140552, Control_c, 0, 64, 123
1, 140567, Control_c, 0, 64, 117
1, 140582, Control_c, 0, 64, 111
1, 140597, Control_c, 0, 64, 107
1, 140612, Control_c, 0, 64, 105
1, 140641, Control_c, 0, 64, 102
1, 140656, Control_c, 0, 64, 91
1, 140671, Control_c, 0, 64, 76
1, 140683, Note_on_c, 0, 73, 79
1, 140686, Control_c, 0, 64, 0
1, 140690, Note_on_c, 0, 45, 55
1, 140695, Note_on_c, 0, 63, 59
1, 140710, Note_off_c, 0, 40, 57
1, 140790, Control_c, 0, 64, 65
1, 140798, Note_off_c, 0, 52, 55
1, 140804, Control_c, 0, 64, 70
1, 140819, Control_c, 0, 64, 72
1, 140832, Note_off_c, 0, 69, 50
1, 140834, Control_c, 0, 64, 74
1, 140849, Control_c, 0, 64, 76
1, 140864, Control_c, 0, 64, 79
1, 140886, Control_c, 0, 64, 82
1, 140896, Note_off_c, 0, 61, 43
1, 140901, Control_c, 0, 64, 84
1, 140908, Note_off_c, 0, 63, 33
1, 140916, Control_c, 0, 64, 85
1, 140917, Note_on_c, 0, 67, 58
1, 140930, Control_c, 0, 64, 86
1, 140996, Note_off_c, 0, 45, 38
1, 141122, Note_off_c, 0, 67, 56
1, 141130, Note_on_c, 0, 61, 57
1, 141150, Note_on_c, 0, 39, 36
1, 141151, Note_on_c, 0, 51, 38
1, 141182, Control_c, 0, 64, 85
1, 141213, Control_c, 0, 64, 85
1, 141242, Control_c, 0, 64, 84
1, 141257, Control_c, 0, 64, 82
1, 141272, Control_c, 0, 64, 80
1, 141287, Control_c, 0, 64, 78
1, 141301, Control_c, 0, 64, 75
1, 141316, Control_c, 0, 64, 73
1, 141331, Control_c, 0, 64, 73
1, 141390, Control_c, 0, 64, 72
1, 141419, Control_c, 0, 64, 71
1, 141434, Control_c, 0, 64, 69
1, 141446, Note_off_c, 0, 39, 28
1, 141449, Control_c, 0, 64, 63
1, 141461, Note_on_c, 0, 44, 29
1, 141462, Note_on_c, 0, 63, 39
1, 141464, Control_c, 0, 64, 0
1, 141516, Note_off_c, 0, 51, 45
1, 141583, Note_off_c, 0, 61, 36
1, 141634, Control_c, 0, 64, 30
1, 141649, Control_c, 0, 64, 65
1, 141664, Control_c, 0, 64, 68
1, 141679, Control_c, 0, 64, 69
1, 141694, Control_c, 0, 64, 70
1, 141709, Control_c, 0, 64, 71
1, 141718, Note_off_c, 0, 63, 36
1, 141723, Control_c, 0, 64, 73
1, 141725, Note_on_c, 0, 68, 38
1, 141738, Control_c, 0, 64, 75
1, 141753, Control_c, 0, 64, 77
1, 141768, Control_c, 0, 64, 79
1, 141783, Control_c, 0, 64, 80
1, 141798, Control_c, 0, 64, 82
1, 141813, Control_c, 0, 64, 84
1, 141827, Control_c, 0, 64, 86
1, 141842, Note_off_c, 0, 44, 27
1, 141842, Control_c, 0, 64, 89
1, 141857, Control_c, 0, 64, 91
1, 141872, Control_c, 0, 64, 92
1, 141887, Control_c, 0, 64, 94
1, 141901, Control_c, 0, 64, 95
1, 141921, Note_on_c, 0, 61, 39
1, 141926, Note_on_c, 0, 51, 38
1, 141931, Control_c, 0, 64, 97
1, 141943, Note_on_c, 0, 39, 9
1, 142021, Control_c, 0, 64, 100
1, 142038, Note_off_c, 0, 73, 48
1, 142050, Control_c, 0, 64, 103
1, 142065, Control_c, 0, 64, 106
1, 142080, Control_c, 0, 64, 108
1, 142095, Control_c, 0, 64, 110
1, 142110, Control_c, 0, 64, 113
1, 142120, Note_on_c, 0, 63, 43
1, 142124, Control_c, 0, 64, 117
1, 142139, Control_c, 0, 64, 127
1, 142143, Note_on_c, 0, 44, 35
1, 142175, Note_off_c, 0, 39, 24
1, 142239, Note_off_c, 0, 61, 27
1, 142263, Note_off_c, 0, 51, 38
1, 142316, Note_on_c, 0, 72, 65
1, 142323, Note_off_c, 0, 44, 53
1, 142380, Note_off_c, 0, 68, 58
1, 142469, Note_off_c, 0, 63, 29
1, 142516, Note_on_c, 0, 51, 39
1, 142525, Note_on_c, 0, 61, 49
1, 142531, Note_on_c, 0, 39, 10
1, 142625, Note_on_c, 0, 68, 56
1, 142633, Note_off_c, 0, 72, 49
1, 142655, Note_off_c, 0, 68, 64
1, 142710, Control_c, 0, 64, 100
1, 142725, Control_c, 0, 64, 80
1, 142727, Note_on_c, 0, 68, 62
1, 142731, Note_on_c, 0, 44, 40
1, 142740, Control_c, 0, 64, 65
1, 142755, Control_c, 0, 64, 0
1, 142770, Note_off_c, 0, 39, 37
1, 142790, Note_off_c, 0, 61, 40
1, 142800, Control_c, 0, 64, 65
1, 142814, Control_c, 0, 64, 69
1, 142829, Control_c, 0, 64, 72
1, 142844, Control_c, 0, 64, 77
1, 142859, Control_c, 0, 64, 82
1, 142861, Note_off_c, 0, 51, 35
1, 142874, Control_c, 0, 64, 84
1, 142889, Control_c, 0, 64, 85
1, 142904, Control_c, 0, 64, 86
1, 142919, Control_c, 0, 64, 87
1, 142934, Note_off_c, 0, 44, 38
1, 142934, Control_c, 0, 64, 89
1, 142948, Control_c, 0, 64, 91
1, 142955, Note_on_c, 0, 60, 61
1, 142963, Control_c, 0, 64, 91
1, 142978, Control_c, 0, 64, 92
1, 143022, Control_c, 0, 64, 92
1, 143037, Control_c, 0, 64, 93
1, 143052, Control_c, 0, 64, 93
1, 143066, Control_c, 0, 64, 94
1, 143081, Control_c, 0, 64, 94
1, 143096, Control_c, 0, 64, 95
1, 143111, Control_c, 0, 64, 96
1, 143147, Note_on_c, 0, 51, 36
1, 143163, Control_c, 0, 64, 98
1, 143167, Note_on_c, 0, 39, 20
1, 143265, Note_on_c, 0, 56, 51
1, 143292, Note_off_c, 0, 56, 57
1, 143339, Control_c, 0, 64, 92
1, 143354, Control_c, 0, 64, 79
1, 143369, Note_off_c, 0, 39, 29
1, 143369, Control_c, 0, 64, 65
1, 143375, Note_on_c, 0, 44, 32
1, 143376, Note_on_c, 0, 56, 61
1, 143384, Control_c, 0, 64, 0
1, 143428, Control_c, 0, 64, 65
1, 143443, Control_c, 0, 64, 70
1, 143456, Note_off_c, 0, 51, 36
1, 143458, Control_c, 0, 64, 76
1, 143473, Control_c, 0, 64, 83
1, 143488, Control_c, 0, 64, 90
1, 143503, Control_c, 0, 64, 93
1, 143508, Note_off_c, 0, 60, 57
1, 143518, Control_c, 0, 64, 95
1, 143532, Control_c, 0, 64, 98
1, 143547, Control_c, 0, 64, 100
1, 143562, Control_c, 0, 64, 103
1, 143577, Control_c, 0, 64, 107
1, 143586, Note_on_c, 0, 63, 59
1, 143592, Control_c, 0, 64, 109
1, 143620, Note_off_c, 0, 56, 49
1, 143622, Control_c, 0, 64, 112
1, 143639, Note_off_c, 0, 44, 32
1, 143652, Control_c, 0, 64, 116
1, 143667, Control_c, 0, 64, 119
1, 143682, Control_c, 0, 64, 123
1, 143696, Control_c, 0, 64, 127
1, 143750, Note_on_c, 0, 39, 41
1, 143787, Note_on_c, 0, 58, 60
1, 143790, Note_off_c, 0, 39, 51
1, 143828, Note_off_c, 0, 63, 57
1, 143985, Control_c, 0, 64, 103
1, 144000, Control_c, 0, 64, 78
1, 144008, Note_off_c, 0, 58, 62
1, 144011, Note_off_c, 0, 68, 59
1, 144015, Control_c, 0, 64, 0
1, 144028, Note_on_c, 0, 60, 63
1, 144054, Note_on_c, 0, 32, 40
1, 144059, Control_c, 0, 64, 38
1, 144063, Note_on_c, 0, 44, 23
1, 144074, Control_c, 0, 64, 67
1, 144089, Control_c, 0, 64, 73
1, 144103, Control_c, 0, 64, 81
1, 144118, Control_c, 0, 64, 93
1, 144120, Note_off_c, 0, 60, 56
1, 144125, Note_off_c, 0, 32, 58
1, 144133, Control_c, 0, 64, 100
1, 144143, Note_on_c, 0, 63, 58
1, 144147, Control_c, 0, 64, 103
1, 144151, Note_off_c, 0, 44, 59
1, 144162, Control_c, 0, 64, 107
1, 144177, Control_c, 0, 64, 113
1, 144192, Control_c, 0, 64, 127
1, 144209, Note_off_c, 0, 63, 61
1, 144230, Note_on_c, 0, 68, 59
1, 144251, Note_off_c, 0, 68, 65
1, 144331, Note_on_c, 0, 72, 64
1, 144349, Note_off_c, 0, 72, 65
1, 144403, Note_on_c, 0, 75, 54
1, 144404, Note_on_c, 0, 51, 29
1, 144435, Note_on_c, 0, 39, 27
1, 144435, Note_off_c, 0, 75, 65
1, 144473, Note_on_c, 0, 80, 37
1, 144502, Note_off_c, 0, 80, 55
1, 144558, Note_on_c, 0, 80, 56
1, 144719, Control_c, 0, 64, 115
1, 144734, Control_c, 0, 64, 84
1, 144749, Control_c, 0, 64, 65
1, 144757, Note_on_c, 0, 44, 32
1, 144759, Note_on_c, 0, 92, 61
1, 144764, Control_c, 0, 64, 0
1, 144767, Note_off_c, 0, 80, 52
1, 144780, Note_off_c, 0, 39, 39
1, 144788, Note_off_c, 0, 92, 65
1, 144793, Control_c, 0, 64, 67
1, 144808, Control_c, 0, 64, 73
1, 144809, Note_off_c, 0, 51, 41
1, 144823, Control_c, 0, 64, 84
1, 144838, Control_c, 0, 64, 99
1, 144852, Control_c, 0, 64, 114
1, 144867, Control_c, 0, 64, 127
1, 144989, Note_off_c, 0, 44, 51
1, 145132, Note_on_c, 0, 63, 44
1, 145373, Note_on_c, 0, 51, 26
1, 145380, Note_on_c, 0, 39, 27
1, 145384, Note_on_c, 0, 58, 50
1, 145430, Note_off_c, 0, 63, 38
1, 145557, Control_c, 0, 64, 90
1, 145572, Control_c, 0, 64, 68
1, 145587, Control_c, 0, 64, 0
1, 145602, Control_c, 0, 64, 63
1, 145613, Note_on_c, 0, 60, 47
1, 145616, Control_c, 0, 64, 65
1, 145619, Note_on_c, 0, 44, 31
1, 145620, Note_off_c, 0, 58, 54
1, 145631, Control_c, 0, 64, 67
1, 145646, Control_c, 0, 64, 72
1, 145649, Note_off_c, 0, 39, 33
1, 145661, Control_c, 0, 64, 79
1, 145676, Control_c, 0, 64, 88
1, 145691, Control_c, 0, 64, 94
1, 145706, Control_c, 0, 64, 97
1, 145720, Control_c, 0, 64, 100
1, 145735, Control_c, 0, 64, 102
1, 145746, Note_off_c, 0, 51, 38
1, 145750, Control_c, 0, 64, 105
1, 145765, Control_c, 0, 64, 108
1, 145780, Control_c, 0, 64, 112
1, 145783, Note_off_c, 0, 44, 47
1, 145794, Control_c, 0, 64, 115
1, 145809, Control_c, 0, 64, 120
1, 145815, Note_off_c, 0, 60, 51
1, 145824, Control_c, 0, 64, 127
1, 145825, Note_on_c, 0, 63, 48
1, 146010, Note_on_c, 0, 58, 53
1, 146023, Note_on_c, 0, 51, 34
1, 146023, Note_off_c, 0, 63, 37
1, 146024, Note_on_c, 0, 39, 29
1, 146173, Control_c, 0, 64, 102
1, 146188, Control_c, 0, 64, 82
1, 146201, Control_c, 0, 64, 68
1, 146216, Control_c, 0, 64, 61
1, 146231, Control_c, 0, 64, 63
1, 146238, Note_on_c, 0, 60, 55
1, 146245, Control_c, 0, 64, 65
1, 146255, Note_on_c, 0, 44, 36
1, 146260, Control_c, 0, 64, 68
1, 146266, Note_off_c, 0, 58, 51
1, 146266, Note_off_c, 0, 39, 35
1, 146275, Control_c, 0, 64, 73
1, 146290, Control_c, 0, 64, 81
1, 146305, Control_c, 0, 64, 90
1, 146320, Control_c, 0, 64, 97
1, 146335, Control_c, 0, 64, 100
1, 146349, Control_c, 0, 64, 102
1, 146364, Control_c, 0, 64, 107
1, 146371, Note_off_c, 0, 51, 30
1, 146379, Control_c, 0, 64, 116
1, 146394, Control_c, 0, 64, 127
1, 146408, Note_off_c, 0, 44, 55
1, 146431, Note_on_c, 0, 63, 62
1, 146542, Note_off_c, 0, 60, 37
1, 146590, Note_on_c, 0, 39, 48
1, 146635, Note_on_c, 0, 58, 64
1, 146646, Note_off_c, 0, 39, 57
1, 146688, Note_off_c, 0, 63, 60
1, 146967, Note_on_c, 0, 44, 24
1, 146968, Note_on_c, 0, 32, 36
1, 146994, Control_c, 0, 64, 116
1, 147000, Note_on_c, 0, 68, 62
1, 147009, Control_c, 0, 64, 85
1, 147017, Note_on_c, 0, 60, 37
1, 147024, Control_c, 0, 64, 62
1, 147038, Control_c, 0, 64, 0
1, 147040, Note_off_c, 0, 58, 54
1, 147085, Note_off_c, 0, 60, 0
1, 147113, Control_c, 0, 64, 66
1, 147122, Poly_aftertouch_c, 0, 60, 127
1, 147128, Control_c, 0, 64, 71
1, 147134, Note_off_c, 0, 32, 57
1, 147143, Control_c, 0, 64, 74
1, 147158, Control_c, 0, 64, 76
1, 147164, Note_off_c, 0, 44, 53
1, 147172, Poly_aftertouch_c, 0, 60, 0
1, 147172, Control_c, 0, 64, 80
1, 147187, Control_c, 0, 64, 83
1, 147202, Control_c, 0, 64, 87
1, 147217, Control_c, 0, 64, 90
1, 147232, Control_c, 0, 64, 91
1, 147261, Control_c, 0, 64, 91
1, 147276, Control_c, 0, 64, 92
1, 147277, Note_on_c, 0, 63, 44
1, 147290, Control_c, 0, 64, 93
1, 147305, Control_c, 0, 64, 95
1, 147335, Control_c, 0, 64, 97
1, 147357, Note_off_c, 0, 63, 0
1, 147357, Note_on_c, 0, 63, 5
1, 147409, Control_c, 0, 64, 99
1, 147432, Note_on_c, 0, 39, 36
1, 147460, Note_on_c, 0, 51, 27
1, 147465, Note_on_c, 0, 58, 37
1, 147485, Note_off_c, 0, 63, 35
1, 147625, Control_c, 0, 64, 91
1, 147640, Control_c, 0, 64, 78
1, 147649, Note_off_c, 0, 58, 38
1, 147655, Control_c, 0, 64, 66
1, 147669, Control_c, 0, 64, 0
1, 147693, Note_on_c, 0, 60, 47
1, 147699, Control_c, 0, 64, 64
1, 147707, Note_on_c, 0, 44, 26
1, 147713, Control_c, 0, 64, 68
1, 147728, Control_c, 0, 64, 72
1, 147743, Control_c, 0, 64, 78
1, 147758, Control_c, 0, 64, 84
1, 147773, Control_c, 0, 64, 88
1, 147786, Note_off_c, 0, 39, 34
1, 147787, Control_c, 0, 64, 90
1, 147802, Control_c, 0, 64, 92
1, 147817, Control_c, 0, 64, 94
1, 147832, Control_c, 0, 64, 97
1, 147847, Control_c, 0, 64, 100
1, 147852, Note_off_c, 0, 51, 39
1, 147856, Note_off_c, 0, 60, 32
1, 147861, Control_c, 0, 64, 103
1, 147876, Control_c, 0, 64, 106
1, 147877, Note_off_c, 0, 44, 56
1, 147889, Note_on_c, 0, 65, 58
1, 147891, Control_c, 0, 64, 110
1, 147906, Control_c, 0, 64, 115
1, 147921, Control_c, 0, 64, 127
1, 147934, Note_on_c, 0, 63, 25
1, 147983, Note_off_c, 0, 68, 59
1, 148079, Note_off_c, 0, 63, 23
1, 148095, Note_on_c, 0, 67, 64
1, 148103, Note_on_c, 0, 39, 31
1, 148112, Note_on_c, 0, 51, 35
1, 148112, Note_on_c, 0, 58, 51
1, 148127, Note_off_c, 0, 65, 54
1, 148183, Note_off_c, 0, 58, 58
1, 148291, Control_c, 0, 64, 120
1, 148306, Control_c, 0, 64, 89
1, 148320, Control_c, 0, 64, 71
1, 148335, Control_c, 0, 64, 0
1, 148350, Note_on_c, 0, 68, 61
1, 148362, Note_on_c, 0, 60, 34
1, 148375, Note_on_c, 0, 44, 28
1, 148386, Note_off_c, 0, 67, 60
1, 148404, Control_c, 0, 64, 67
1, 148418, Control_c, 0, 64, 73
1, 148423, Note_off_c, 0, 39, 32
1, 148433, Control_c, 0, 64, 78
1, 148448, Control_c, 0, 64, 83
1, 148453, Note_off_c, 0, 60, 47
1, 148463, Control_c, 0, 64, 87
1, 148478, Control_c, 0, 64, 90
1, 148492, Control_c, 0, 64, 95
1, 148507, Control_c, 0, 64, 101
1, 148520, Note_off_c, 0, 51, 32
1, 148522, Control_c, 0, 64, 106
1, 148536, Control_c, 0, 64, 111
1, 148540, Note_off_c, 0, 44, 55
1, 148551, Control_c, 0, 64, 116
1, 148564, Note_on_c, 0, 65, 60
1, 148566, Control_c, 0, 64, 124
1, 148567, Note_on_c, 0, 63, 52
1, 148581, Control_c, 0, 64, 127
1, 148636, Note_off_c, 0, 68, 60
1, 148696, Note_off_c, 0, 63, 50
1, 148735, Note_on_c, 0, 58, 56
1, 148741, Note_on_c, 0, 67, 68
1, 148746, Note_on_c, 0, 39, 36
1, 148751, Note_on_c, 0, 51, 42
1, 148781, Note_off_c, 0, 58, 62
1, 148785, Note_off_c, 0, 65, 58
1, 148951, Control_c, 0, 64, 92
1, 148959, Note_on_c, 0, 68, 71
1, 148964, Note_on_c, 0, 60, 41
1, 148966, Control_c, 0, 64, 73
1, 148981, Control_c, 0, 64, 61
1, 148984, Note_on_c, 0, 44, 39
1, 148996, Control_c, 0, 64, 63
1, 149007, Note_off_c, 0, 67, 60
1, 149010, Control_c, 0, 64, 64
1, 149025, Control_c, 0, 64, 67
1, 149040, Control_c, 0, 64, 74
1, 149043, Note_off_c, 0, 39, 33
1, 149053, Note_off_c, 0, 60, 42
1, 149055, Control_c, 0, 64, 82
1, 149069, Control_c, 0, 64, 91
1, 149084, Control_c, 0, 64, 97
1, 149099, Control_c, 0, 64, 100
1, 149118, Note_off_c, 0, 51, 54
1, 149122, Control_c, 0, 64, 103
1, 149137, Control_c, 0, 64, 109
1, 149148, Note_on_c, 0, 65, 70
1, 149151, Control_c, 0, 64, 121
1, 149154, Note_on_c, 0, 63, 59
1, 149154, Note_off_c, 0, 44, 54
1, 149166, Control_c, 0, 64, 127
1, 149216, Note_off_c, 0, 68, 61
1, 149337, Note_on_c, 0, 67, 71
1, 149341, Note_off_c, 0, 63, 59
1, 149344, Note_on_c, 0, 58, 58
1, 149363, Note_on_c, 0, 51, 53
1, 149367, Note_on_c, 0, 39, 42
1, 149369, Note_off_c, 0, 65, 63
1, 149393, Note_off_c, 0, 58, 59
1, 149411, Note_off_c, 0, 67, 62
1, 149510, Note_on_c, 0, 70, 60
1, 149524, Control_c, 0, 64, 100
1, 149534, Note_on_c, 0, 60, 56
1, 149539, Control_c, 0, 64, 72
1, 149539, Note_on_c, 0, 68, 77
1, 149544, Note_on_c, 0, 44, 54
1, 149554, Control_c, 0, 64, 0
1, 149587, Note_off_c, 0, 70, 55
1, 149598, Control_c, 0, 64, 65
1, 149613, Control_c, 0, 64, 71
1, 149628, Control_c, 0, 64, 81
1, 149639, Note_off_c, 0, 39, 36
1, 149642, Control_c, 0, 64, 91
1, 149657, Control_c, 0, 64, 99
1, 149672, Control_c, 0, 64, 103
1, 149676, Note_off_c, 0, 60, 20
1, 149686, Control_c, 0, 64, 109
1, 149700, Note_off_c, 0, 51, 50
1, 149701, Control_c, 0, 64, 120
1, 149716, Control_c, 0, 64, 127
1, 149728, Note_off_c, 0, 44, 59
1, 149751, Note_on_c, 0, 63, 76
1, 149915, Note_off_c, 0, 68, 61
1, 149938, Note_on_c, 0, 67, 78
1, 149945, Note_on_c, 0, 51, 59
1, 149948, Note_on_c, 0, 58, 60
1, 149954, Note_on_c, 0, 39, 47
1, 149960, Control_c, 0, 64, 98
1, 149975, Control_c, 0, 64, 76
1, 149990, Control_c, 0, 64, 0
1, 150050, Control_c, 0, 64, 63
1, 150059, Note_off_c, 0, 58, 58
1, 150064, Control_c, 0, 64, 71
1, 150079, Control_c, 0, 64, 78
1, 150094, Control_c, 0, 64, 85
1, 150108, Note_off_c, 0, 63, 51
1, 150109, Control_c, 0, 64, 90
1, 150124, Control_c, 0, 64, 90
1, 150138, Control_c, 0, 64, 89
1, 150153, Control_c, 0, 64, 82
1, 150168, Note_on_c, 0, 68, 82
1, 150168, Control_c, 0, 64, 72
1, 150179, Note_on_c, 0, 59, 52
1, 150183, Control_c, 0, 64, 56
1, 150186, Note_on_c, 0, 44, 49
1, 150198, Control_c, 0, 64, 54
1, 150213, Control_c, 0, 64, 67
1, 150228, Note_off_c, 0, 39, 51
1, 150228, Control_c, 0, 64, 73
1, 150231, Note_off_c, 0, 59, 0
1, 150231, Note_on_c, 0, 59, 20
1, 150235, Note_off_c, 0, 67, 54
1, 150243, Control_c, 0, 64, 81
1, 150257, Control_c, 0, 64, 91
1, 150272, Control_c, 0, 64, 98
1, 150287, Control_c, 0, 64, 103
1, 150297, Note_off_c, 0, 51, 37
1, 150299, Note_off_c, 0, 59, 46
1, 150302, Control_c, 0, 64, 112
1, 150316, Control_c, 0, 64, 127
1, 150357, Note_on_c, 0, 66, 74
1, 150362, Note_off_c, 0, 44, 60
1, 150387, Note_off_c, 0, 68, 62
1, 150407, Note_off_c, 0, 66, 61
1, 150546, Note_on_c, 0, 70, 79
1, 150549, Note_on_c, 0, 51, 58
1, 150556, Note_on_c, 0, 39, 52
1, 150556, Note_on_c, 0, 64, 60
1, 150779, Note_off_c, 0, 70, 61
1, 150784, Note_on_c, 0, 71, 79
1, 150784, Control_c, 0, 64, 85
1, 150799, Control_c, 0, 64, 65
1, 150801, Note_on_c, 0, 63, 62
1, 150813, Note_on_c, 0, 44, 56
1, 150813, Control_c, 0, 64, 0
1, 150847, Note_off_c, 0, 64, 40
1, 150871, Note_off_c, 0, 39, 53
1, 150872, Control_c, 0, 64, 69
1, 150887, Control_c, 0, 64, 79
1, 150902, Control_c, 0, 64, 88
1, 150917, Control_c, 0, 64, 97
1, 150932, Control_c, 0, 64, 102
1, 150937, Note_off_c, 0, 51, 51
1, 150946, Control_c, 0, 64, 107
1, 150961, Control_c, 0, 64, 113
1, 150976, Control_c, 0, 64, 123
1, 150991, Control_c, 0, 64, 127
1, 151002, Note_on_c, 0, 66, 75
1, 151012, Note_off_c, 0, 44, 52
1, 151043, Note_off_c, 0, 63, 35
1, 151098, Note_off_c, 0, 71, 59
1, 151176, Note_on_c, 0, 59, 80
1, 151186, Note_on_c, 0, 51, 61
1, 151188, Note_on_c, 0, 39, 59
1, 151204, Note_off_c, 0, 66, 62
1, 151413, Control_c, 0, 64, 100
1, 151428, Control_c, 0, 64, 76
1, 151439, Note_on_c, 0, 71, 85
1, 151443, Control_c, 0, 64, 0
1, 151455, Note_on_c, 0, 44, 55
1, 151488, Note_on_c, 0, 61, 28
1, 151497, Note_off_c, 0, 39, 50
1, 151531, Control_c, 0, 64, 61
1, 151546, Control_c, 0, 64, 68
1, 151561, Control_c, 0, 64, 72
1, 151564, Note_off_c, 0, 51, 49
1, 151576, Control_c, 0, 64, 74
1, 151592, Control_c, 0, 64, 77
1, 151607, Control_c, 0, 64, 81
1, 151611, Note_off_c, 0, 59, 57
1, 151614, Note_off_c, 0, 61, 24
1, 151622, Control_c, 0, 64, 86
1, 151636, Control_c, 0, 64, 90
1, 151651, Control_c, 0, 64, 94
1, 151666, Control_c, 0, 64, 98
1, 151671, Note_on_c, 0, 65, 66
1, 151680, Control_c, 0, 64, 101
1, 151695, Control_c, 0, 64, 106
1, 151710, Control_c, 0, 64, 112
1, 151725, Control_c, 0, 64, 118
1, 151740, Control_c, 0, 64, 127
1, 151875, Note_on_c, 0, 37, 60
1, 151879, Note_on_c, 0, 56, 67
1, 151883, Note_off_c, 0, 44, 61
1, 151910, Note_off_c, 0, 65, 0
1, 151924, Note_off_c, 0, 37, 62
1, 151948, Poly_aftertouch_c, 0, 65, 127
1, 151967, Poly_aftertouch_c, 0, 64, 127
1, 152113, Poly_aftertouch_c, 0, 64, 0
1, 152192, Poly_aftertouch_c, 0, 65, 0
1, 152221, Control_c, 0, 64, 110
1, 152225, Note_on_c, 0, 42, 53
1, 152235, Note_on_c, 0, 61, 64
1, 152236, Control_c, 0, 64, 87
1, 152239, Note_on_c, 0, 30, 45
1, 152251, Control_c, 0, 64, 64
1, 152266, Control_c, 0, 64, 0
1, 152328, Note_off_c, 0, 56, 52
1, 152354, Control_c, 0, 64, 68
1, 152369, Control_c, 0, 64, 73
1, 152374, Note_off_c, 0, 30, 55
1, 152385, Control_c, 0, 64, 78
1, 152400, Control_c, 0, 64, 82
1, 152415, Control_c, 0, 64, 86
1, 152430, Control_c, 0, 64, 90
1, 152431, Note_off_c, 0, 42, 60
1, 152445, Control_c, 0, 64, 93
1, 152459, Control_c, 0, 64, 95
1, 152474, Control_c, 0, 64, 98
1, 152489, Control_c, 0, 64, 100
1, 152502, Note_on_c, 0, 66, 62
1, 152503, Control_c, 0, 64, 102
1, 152518, Control_c, 0, 64, 105
1, 152533, Control_c, 0, 64, 108
1, 152548, Control_c, 0, 64, 111
1, 152563, Note_off_c, 0, 71, 52
1, 152563, Control_c, 0, 64, 114
1, 152577, Control_c, 0, 64, 117
1, 152592, Control_c, 0, 64, 120
1, 152607, Control_c, 0, 64, 122
1, 152622, Control_c, 0, 64, 127
1, 152687, Note_on_c, 0, 49, 50
1, 152689, Note_on_c, 0, 59, 62
1, 152691, Note_on_c, 0, 37, 39
1, 152692, Note_off_c, 0, 61, 57
1, 152829, Control_c, 0, 64, 119
1, 152844, Control_c, 0, 64, 98
1, 152866, Control_c, 0, 64, 80
1, 152881, Control_c, 0, 64, 67
1, 152896, Control_c, 0, 64, 65
1, 152897, Note_on_c, 0, 61, 64
1, 152911, Note_on_c, 0, 42, 48
1, 152911, Control_c, 0, 64, 68
1, 152926, Control_c, 0, 64, 71
1, 152941, Control_c, 0, 64, 76
1, 152956, Control_c, 0, 64, 83
1, 152961, Note_off_c, 0, 37, 47
1, 152971, Control_c, 0, 64, 90
1, 152985, Control_c, 0, 64, 95
1, 153000, Note_off_c, 0, 59, 29
1, 153000, Control_c, 0, 64, 98
1, 153015, Control_c, 0, 64, 103
1, 153030, Control_c, 0, 64, 106
1, 153045, Control_c, 0, 64, 110
1, 153060, Control_c, 0, 64, 114
1, 153075, Control_c, 0, 64, 120
1, 153077, Note_off_c, 0, 49, 36
1, 153082, Note_on_c, 0, 70, 77
1, 153090, Control_c, 0, 64, 127
1, 153103, Note_off_c, 0, 42, 48
1, 153126, Note_off_c, 0, 66, 55
1, 153212, Note_off_c, 0, 61, 25
1, 153264, Note_on_c, 0, 37, 42
1, 153272, Note_on_c, 0, 49, 47
1, 153282, Note_on_c, 0, 59, 57
1, 153402, Note_on_c, 0, 66, 64
1, 153423, Note_off_c, 0, 59, 59
1, 153427, Note_off_c, 0, 70, 61
1, 153432, Note_off_c, 0, 66, 66
1, 153446, Control_c, 0, 64, 88
1, 153460, Control_c, 0, 64, 68
1, 153475, Control_c, 0, 64, 0
1, 153489, Note_on_c, 0, 42, 51
1, 153492, Note_on_c, 0, 66, 73
1, 153549, Control_c, 0, 64, 65
1, 153561, Note_off_c, 0, 37, 51
1, 153564, Control_c, 0, 64, 72
1, 153579, Control_c, 0, 64, 77
1, 153594, Control_c, 0, 64, 85
1, 153616, Control_c, 0, 64, 90
1, 153631, Control_c, 0, 64, 94
1, 153646, Control_c, 0, 64, 98
1, 153656, Note_off_c, 0, 49, 55
1, 153660, Control_c, 0, 64, 101
1, 153675, Control_c, 0, 64, 106
1, 153689, Control_c, 0, 64, 114
1, 153699, Note_on_c, 0, 58, 67
1, 153704, Control_c, 0, 64, 127
1, 153718, Note_off_c, 0, 42, 54
1, 153889, Note_on_c, 0, 49, 58
1, 153904, Note_on_c, 0, 37, 42
1, 153999, Note_on_c, 0, 54, 70
1, 154058, Note_off_c, 0, 54, 60
1, 154121, Note_on_c, 0, 54, 68
1, 154127, Note_on_c, 0, 42, 60
1, 154135, Control_c, 0, 64, 92
1, 154149, Control_c, 0, 64, 69
1, 154164, Control_c, 0, 64, 0
1, 154185, Note_off_c, 0, 58, 53
1, 154207, Note_off_c, 0, 37, 30
1, 154208, Control_c, 0, 64, 64
1, 154223, Control_c, 0, 64, 70
1, 154238, Control_c, 0, 64, 79
1, 154253, Control_c, 0, 64, 89
1, 154257, Note_off_c, 0, 49, 38
1, 154268, Control_c, 0, 64, 104
1, 154282, Control_c, 0, 64, 118
1, 154297, Control_c, 0, 64, 127
1, 154308, Note_on_c, 0, 61, 76
1, 154364, Note_off_c, 0, 54, 58
1, 154477, Note_on_c, 0, 37, 65
1, 154500, Note_off_c, 0, 42, 58
1, 154524, Note_on_c, 0, 56, 78
1, 154530, Note_off_c, 0, 37, 61
1, 154555, Poly_aftertouch_c, 0, 49, 0
1, 154659, Note_off_c, 0, 66, 26
1, 154729, Note_off_c, 0, 61, 29
1, 154731, Note_on_c, 0, 30, 44
1, 154744, Note_off_c, 0, 56, 63
1, 154780, Control_c, 0, 64, 91
1, 154793, Note_on_c, 0, 42, 62
1, 154795, Control_c, 0, 64, 69
1, 154810, Control_c, 0, 64, 0
1, 154826, Note_on_c, 0, 58, 66
1, 154869, Control_c, 0, 64, 66
1, 154884, Control_c, 0, 64, 74
1, 154898, Control_c, 0, 64, 82
1, 154913, Control_c, 0, 64, 90
1, 154914, Note_off_c, 0, 30, 62
1, 154928, Control_c, 0, 64, 96
1, 154935, Note_off_c, 0, 58, 61
1, 154937, Note_on_c, 0, 61, 66
1, 154943, Control_c, 0, 64, 100
1, 154948, Note_off_c, 0, 42, 57
1, 154958, Control_c, 0, 64, 103
1, 154972, Control_c, 0, 64, 107
1, 154987, Control_c, 0, 64, 113
1, 155002, Control_c, 0, 64, 127
1, 155025, Note_off_c, 0, 61, 58
1, 155026, Note_on_c, 0, 66, 63
1, 155058, Note_off_c, 0, 66, 65
1, 155128, Note_on_c, 0, 70, 72
1, 155189, Note_off_c, 0, 70, 62
1, 155199, Note_on_c, 0, 49, 37
1, 155204, Note_on_c, 0, 73, 66
1, 155213, Note_on_c, 0, 37, 42
1, 155265, Note_off_c, 0, 73, 61
1, 155273, Note_on_c, 0, 78, 58
1, 155292, Note_off_c, 0, 78, 63
1, 155349, Note_on_c, 0, 78, 86
1, 155409, Control_c, 0, 64, 123
1, 155424, Control_c, 0, 64, 113
1, 155439, Control_c, 0, 64, 108
1, 155453, Control_c, 0, 64, 106
1, 155543, Control_c, 0, 64, 91
1, 155557, Control_c, 0, 64, 72
1, 155565, Note_on_c, 0, 90, 72
1, 155572, Control_c, 0, 64, 0
1, 155580, Note_on_c, 0, 42, 45
1, 155597, Note_off_c, 0, 78, 58
1, 155611, Note_off_c, 0, 90, 62
1, 155627, Note_off_c, 0, 37, 32
1, 155635, Note_off_c, 0, 49, 37
1, 155647, Control_c, 0, 64, 64
1, 155662, Control_c, 0, 64, 73
1, 155677, Control_c, 0, 64, 79
1, 155692, Control_c, 0, 64, 86
1, 155707, Control_c, 0, 64, 91
1, 155721, Control_c, 0, 64, 96
1, 155736, Control_c, 0, 64, 101
1, 155751, Control_c, 0, 64, 107
1, 155766, Control_c, 0, 64, 113
1, 155781, Control_c, 0, 64, 121
1, 155796, Control_c, 0, 64, 127
1, 155935, Note_off_c, 0, 42, 34
1, 156035, Note_on_c, 0, 61, 54
1, 156159, Control_c, 0, 64, 119
1, 156173, Control_c, 0, 64, 111
1, 156188, Control_c, 0, 64, 106
1, 156203, Control_c, 0, 64, 101
1, 156218, Control_c, 0, 64, 99
1, 156247, Control_c, 0, 64, 96
1, 156262, Control_c, 0, 64, 94
1, 156277, Control_c, 0, 64, 92
1, 156292, Control_c, 0, 64, 90
1, 156306, Note_on_c, 0, 37, 23
1, 156307, Control_c, 0, 64, 87
1, 156316, Note_on_c, 0, 49, 27
1, 156321, Control_c, 0, 64, 86
1, 156322, Note_on_c, 0, 56, 49
1, 156371, Note_off_c, 0, 61, 33
1, 156411, Control_c, 0, 64, 86
1, 156515, Control_c, 0, 64, 85
1, 156530, Control_c, 0, 64, 81
1, 156545, Control_c, 0, 64, 71
1, 156559, Control_c, 0, 64, 0
1, 156601, Note_off_c, 0, 56, 58
1, 156605, Note_on_c, 0, 57, 49
1, 156613, Note_on_c, 0, 42, 36
1, 156622, Note_off_c, 0, 37, 29
1, 156641, Control_c, 0, 64, 66
1, 156656, Control_c, 0, 64, 70
1, 156671, Control_c, 0, 64, 75
1, 156685, Control_c, 0, 64, 81
1, 156700, Control_c, 0, 64, 87
1, 156715, Control_c, 0, 64, 91
1, 156730, Control_c, 0, 64, 94
1, 156745, Control_c, 0, 64, 97
1, 156759, Control_c, 0, 64, 102
1, 156774, Note_off_c, 0, 49, 39
1, 156774, Control_c, 0, 64, 108
1, 156789, Control_c, 0, 64, 120
1, 156804, Control_c, 0, 64, 127
1, 156825, Note_on_c, 0, 61, 56
1, 156831, Note_off_c, 0, 42, 52
1, 156866, Note_off_c, 0, 61, 62
1, 156869, Note_off_c, 0, 57, 62
1, 157019, Note_on_c, 0, 66, 59
1, 157033, Note_on_c, 0, 37, 26
1, 157033, Note_on_c, 0, 49, 30
1, 157048, Note_on_c, 0, 56, 40
1, 157130, Note_off_c, 0, 66, 63
1, 157254, Note_on_c, 0, 64, 69
1, 157271, Note_on_c, 0, 42, 49
1, 157293, Control_c, 0, 64, 90
1, 157296, Note_on_c, 0, 57, 25
1, 157308, Control_c, 0, 64, 71
1, 157323, Control_c, 0, 64, 54
1, 157338, Control_c, 0, 64, 65
1, 157353, Note_off_c, 0, 37, 38
1, 157361, Control_c, 0, 64, 69
1, 157375, Control_c, 0, 64, 75
1, 157390, Control_c, 0, 64, 86
1, 157405, Control_c, 0, 64, 103
1, 157419, Note_off_c, 0, 56, 36
1, 157420, Control_c, 0, 64, 127
1, 157453, Note_on_c, 0, 61, 65
1, 157459, Note_off_c, 0, 49, 40
1, 157459, Note_off_c, 0, 64, 64
1, 157467, Note_off_c, 0, 57, 50
1, 157471, Note_off_c, 0, 42, 57
1, 157483, Note_off_c, 0, 61, 63
1, 157632, Note_on_c, 0, 66, 74
1, 157643, Note_on_c, 0, 49, 26
1, 157656, Note_on_c, 0, 37, 36
1, 157658, Note_on_c, 0, 56, 47
1, 157919, Note_on_c, 0, 62, 76
1, 157930, Note_on_c, 0, 42, 49
1, 157952, Note_on_c, 0, 57, 25
1, 157952, Control_c, 0, 64, 83
1, 157969, Control_c, 0, 64, 64
1, 157984, Control_c, 0, 64, 0
1, 157995, Note_off_c, 0, 56, 59
1, 158024, Note_off_c, 0, 37, 37
1, 158034, Note_off_c, 0, 57, 34
1, 158042, Control_c, 0, 64, 68
1, 158057, Control_c, 0, 64, 75
1, 158072, Control_c, 0, 64, 82
1, 158078, Note_off_c, 0, 66, 58
1, 158087, Control_c, 0, 64, 89
1, 158109, Control_c, 0, 64, 94
1, 158124, Control_c, 0, 64, 99
1, 158139, Control_c, 0, 64, 105
1, 158146, Note_off_c, 0, 49, 41
1, 158154, Control_c, 0, 64, 122
1, 158169, Note_on_c, 0, 60, 68
1, 158169, Control_c, 0, 64, 127
1, 158187, Note_off_c, 0, 42, 52
1, 158351, Note_on_c, 0, 56, 65
1, 158371, Note_on_c, 0, 37, 41
1, 158378, Note_on_c, 0, 49, 44
1, 158385, Note_off_c, 0, 62, 54
1, 158464, Control_c, 0, 64, 106
1, 158479, Control_c, 0, 64, 82
1, 158494, Control_c, 0, 64, 72
1, 158495, Note_off_c, 0, 60, 38
1, 158509, Control_c, 0, 64, 74
1, 158523, Control_c, 0, 64, 82
1, 158538, Control_c, 0, 64, 93
1, 158551, Note_off_c, 0, 56, 63
1, 158551, Note_on_c, 0, 57, 72
1, 158553, Control_c, 0, 64, 105
1, 158556, Note_on_c, 0, 42, 60
1, 158568, Control_c, 0, 64, 127
1, 158622, Note_off_c, 0, 37, 49
1, 158697, Note_off_c, 0, 49, 47
1, 158726, Note_off_c, 0, 42, 58
1, 158729, Note_on_c, 0, 69, 69
1, 158754, Note_off_c, 0, 69, 63
1, 158873, Note_off_c, 0, 57, 60
1, 158928, Note_on_c, 0, 37, 42
1, 158937, Note_on_c, 0, 54, 62
1, 158968, Note_on_c, 0, 49, 10
1, 159027, Note_off_c, 0, 54, 50
1, 159138, Note_on_c, 0, 61, 72
1, 159144, Note_on_c, 0, 53, 60
1, 159153, Control_c, 0, 64, 104
1, 159162, Note_on_c, 0, 44, 50
1, 159168, Control_c, 0, 64, 76
1, 159183, Control_c, 0, 64, 0
1, 159218, Note_off_c, 0, 37, 48
1, 159257, Control_c, 0, 64, 63
1, 159272, Control_c, 0, 64, 71
1, 159287, Control_c, 0, 64, 79
1, 159302, Control_c, 0, 64, 89
1, 159317, Control_c, 0, 64, 97
1, 159329, Note_off_c, 0, 53, 60
1, 159331, Note_off_c, 0, 49, 41
1, 159331, Control_c, 0, 64, 103
1, 159336, Note_on_c, 0, 56, 68
1, 159346, Control_c, 0, 64, 109
1, 159352, Note_off_c, 0, 44, 59
1, 159361, Control_c, 0, 64, 127
1, 159364, Note_off_c, 0, 56, 66
1, 159386, Note_off_c, 0, 61, 61
1, 159511, Note_on_c, 0, 61, 75
1, 159531, Note_on_c, 0, 49, 47
1, 159534, Note_on_c, 0, 37, 48
1, 159749, Note_on_c, 0, 64, 81
1, 159754, Note_on_c, 0, 57, 41
1, 159755, Control_c, 0, 64, 111
1, 159770, Control_c, 0, 64, 82
1, 159773, Note_on_c, 0, 42, 52
1, 159785, Control_c, 0, 64, 0
1, 159803, Note_off_c, 0, 37, 51
1, 159807, Note_off_c, 0, 61, 60
1, 159844, Control_c, 0, 64, 65
1, 159859, Control_c, 0, 64, 74
1, 159868, Note_off_c, 0, 57, 63
1, 159874, Control_c, 0, 64, 82
1, 159889, Control_c, 0, 64, 93
1, 159903, Control_c, 0, 64, 102
1, 159907, Note_off_c, 0, 49, 51
1, 159918, Control_c, 0, 64, 115
1, 159930, Note_on_c, 0, 61, 76
1, 159933, Control_c, 0, 64, 127
1, 159936, Note_off_c, 0, 64, 65
1, 159962, Note_off_c, 0, 42, 56
1, 160032, Note_off_c, 0, 61, 46
1, 160130, Note_on_c, 0, 66, 83
1, 160139, Note_on_c, 0, 54, 66
1, 160145, Note_on_c, 0, 37, 50
1, 160148, Note_on_c, 0, 49, 49
1, 160207, Poly_aftertouch_c, 0, 57, 127
1, 160241, Poly_aftertouch_c, 0, 57, 0
1, 160442, Note_on_c, 0, 62, 73
1, 160456, Poly_aftertouch_c, 0, 57, 127
1, 160458, Control_c, 0, 64, 89
1, 160473, Control_c, 0, 64, 68
1, 160476, Note_on_c, 0, 42, 47
1, 160488, Control_c, 0, 64, 0
1, 160530, Note_off_c, 0, 66, 60
1, 160553, Poly_aftertouch_c, 0, 57, 0
1, 160563, Note_off_c, 0, 37, 37
1, 160576, Control_c, 0, 64, 48
1, 160591, Control_c, 0, 64, 70
1, 160606, Control_c, 0, 64, 75
1, 160621, Control_c, 0, 64, 78
1, 160636, Control_c, 0, 64, 81
1, 160650, Control_c, 0, 64, 84
1, 160665, Note_off_c, 0, 49, 51
1, 160665, Control_c, 0, 64, 87
1, 160680, Control_c, 0, 64, 90
1, 160695, Control_c, 0, 64, 93
1, 160710, Note_on_c, 0, 60, 56
1, 160710, Control_c, 0, 64, 94
1, 160724, Control_c, 0, 64, 94
1, 160732, Note_off_c, 0, 42, 55
1, 160765, Note_off_c, 0, 54, 53
1, 160843, Control_c, 0, 64, 94
1, 160877, Note_off_c, 0, 60, 37
1, 160903, Control_c, 0, 64, 93
1, 160907, Note_on_c, 0, 37, 40
1, 160923, Note_on_c, 0, 56, 45
1, 160935, Note_on_c, 0, 49, 39
1, 160991, Control_c, 0, 64, 93
1, 161043, Note_off_c, 0, 56, 36
1, 161065, Control_c, 0, 64, 90
1, 161080, Control_c, 0, 64, 80
1, 161102, Control_c, 0, 64, 67
1, 161117, Control_c, 0, 64, 0
1, 161135, Note_on_c, 0, 42, 42
1, 161135, Note_on_c, 0, 57, 50
1, 161187, Note_off_c, 0, 37, 32
1, 161192, Control_c, 0, 64, 64
1, 161207, Control_c, 0, 64, 69
1, 161221, Control_c, 0, 64, 74
1, 161236, Control_c, 0, 64, 78
1, 161242, Note_off_c, 0, 49, 54
1, 161251, Control_c, 0, 64, 81
1, 161266, Control_c, 0, 64, 83
1, 161281, Control_c, 0, 64, 84
1, 161296, Control_c, 0, 64, 85
1, 161308, Note_off_c, 0, 42, 51
1, 161320, Note_off_c, 0, 57, 55
1, 161325, Control_c, 0, 64, 86
1, 161338, Note_on_c, 0, 60, 50
1, 161473, Control_c, 0, 64, 85
1, 161517, Control_c, 0, 64, 85
1, 161536, Note_on_c, 0, 37, 34
1, 161541, Note_off_c, 0, 60, 36
1, 161547, Note_on_c, 0, 54, 49
1, 161551, Note_on_c, 0, 49, 35
1, 161562, Control_c, 0, 64, 84
1, 161577, Control_c, 0, 64, 84
1, 161606, Control_c, 0, 64, 83
1, 161621, Control_c, 0, 64, 83
1, 161636, Control_c, 0, 64, 82
1, 161651, Control_c, 0, 64, 81
1, 161666, Control_c, 0, 64, 76
1, 161681, Control_c, 0, 64, 67
1, 161695, Control_c, 0, 64, 0
1, 161737, Note_off_c, 0, 37, 35
1, 161759, Note_on_c, 0, 57, 43
1, 161768, Note_on_c, 0, 42, 40
1, 161784, Control_c, 0, 64, 65
1, 161799, Control_c, 0, 64, 69
1, 161806, Note_off_c, 0, 54, 35
1, 161814, Control_c, 0, 64, 72
1, 161829, Control_c, 0, 64, 74
1, 161851, Control_c, 0, 64, 76
1, 161865, Control_c, 0, 64, 79
1, 161870, Note_off_c, 0, 49, 42
1, 161880, Control_c, 0, 64, 83
1, 161895, Control_c, 0, 64, 87
1, 161910, Control_c, 0, 64, 90
1, 161922, Note_off_c, 0, 42, 48
1, 161925, Control_c, 0, 64, 91
1, 161928, Note_off_c, 0, 57, 50
1, 161940, Control_c, 0, 64, 93
1, 161955, Control_c, 0, 64, 95
1, 161970, Control_c, 0, 64, 99
1, 161985, Control_c, 0, 64, 104
1, 161988, Note_on_c, 0, 60, 43
1, 162000, Control_c, 0, 64, 109
1, 162014, Control_c, 0, 64, 114
1, 162029, Control_c, 0, 64, 116
1, 162059, Control_c, 0, 64, 120
1, 162074, Control_c, 0, 64, 127
1, 162136, Note_off_c, 0, 62, 53
1, 162167, Note_off_c, 0, 60, 55
1, 162180, Note_on_c, 0, 37, 25
1, 162193, Note_on_c, 0, 56, 44
1, 162196, Note_on_c, 0, 49, 36
1, 162259, Note_off_c, 0, 56, 59
1, 162400, Control_c, 0, 64, 112
1, 162414, Control_c, 0, 64, 92
1, 162429, Control_c, 0, 64, 75
1, 162431, Note_on_c, 0, 42, 41
1, 162433, Note_off_c, 0, 37, 31
1, 162435, Note_on_c, 0, 57, 46
1, 162444, Control_c, 0, 64, 58
1, 162459, Control_c, 0, 64, 0
1, 162488, Control_c, 0, 64, 63
1, 162503, Control_c, 0, 64, 68
1, 162518, Control_c, 0, 64, 73
1, 162533, Control_c, 0, 64, 80
1, 162548, Control_c, 0, 64, 88
1, 162563, Control_c, 0, 64, 92
1, 162575, Note_off_c, 0, 49, 38
1, 162578, Control_c, 0, 64, 94
1, 162600, Control_c, 0, 64, 96
1, 162614, Control_c, 0, 64, 98
1, 162629, Control_c, 0, 64, 100
1, 162640, Note_on_c, 0, 69, 58
1, 162644, Control_c, 0, 64, 102
1, 162659, Control_c, 0, 64, 105
1, 162661, Note_off_c, 0, 69, 62
1, 162665, Note_off_c, 0, 42, 28
1, 162673, Control_c, 0, 64, 107
1, 162688, Control_c, 0, 64, 111
1, 162703, Control_c, 0, 64, 116
1, 162718, Control_c, 0, 64, 127
1, 162876, Note_on_c, 0, 54, 52
1, 162879, Note_off_c, 0, 57, 38
1, 162888, Note_on_c, 0, 37, 32
1, 162908, Note_on_c, 0, 49, 36
1, 162965, Note_off_c, 0, 54, 48
1, 162995, Note_off_c, 0, 49, 0
1, 162995, Note_on_c, 0, 49, 15
1, 163134, Control_c, 0, 64, 92
1, 163149, Note_on_c, 0, 61, 53
1, 163149, Control_c, 0, 64, 72
1, 163163, Control_c, 0, 64, 0
1, 163176, Note_off_c, 0, 37, 39
1, 163183, Note_on_c, 0, 44, 24
1, 163202, Poly_aftertouch_c, 0, 53, 127
1, 163223, Control_c, 0, 64, 65
1, 163237, Control_c, 0, 64, 72
1, 163252, Control_c, 0, 64, 79
1, 163267, Control_c, 0, 64, 88
1, 163282, Control_c, 0, 64, 94
1, 163296, Control_c, 0, 64, 99
1, 163306, Note_off_c, 0, 49, 41
1, 163311, Control_c, 0, 64, 104
1, 163326, Control_c, 0, 64, 108
1, 163349, Control_c, 0, 64, 111
1, 163364, Control_c, 0, 64, 116
1, 163372, Note_off_c, 0, 44, 38
1, 163375, Note_on_c, 0, 56, 43
1, 163378, Control_c, 0, 64, 122
1, 163380, Poly_aftertouch_c, 0, 53, 0
1, 163393, Control_c, 0, 64, 127
1, 163431, Note_off_c, 0, 61, 36
1, 163505, Note_off_c, 0, 56, 62
1, 163556, Note_on_c, 0, 61, 58
1, 163559, Note_on_c, 0, 37, 46
1, 163586, Note_off_c, 0, 61, 63
1, 163750, Control_c, 0, 64, 93
1, 163765, Control_c, 0, 64, 75
1, 163780, Control_c, 0, 64, 62
1, 163794, Control_c, 0, 64, 62
1, 163798, Note_on_c, 0, 65, 67
1, 163809, Control_c, 0, 64, 65
1, 163824, Control_c, 0, 64, 67
1, 163836, Note_on_c, 0, 44, 34
1, 163839, Control_c, 0, 64, 72
1, 163854, Control_c, 0, 64, 80
1, 163868, Note_off_c, 0, 37, 62
1, 163869, Control_c, 0, 64, 89
1, 163883, Control_c, 0, 64, 97
1, 163898, Control_c, 0, 64, 102
1, 163913, Control_c, 0, 64, 106
1, 163928, Control_c, 0, 64, 112
1, 163943, Control_c, 0, 64, 127
1, 164035, Note_on_c, 0, 53, 55
1, 164036, Note_on_c, 0, 68, 74
1, 164063, Note_off_c, 0, 53, 64
1, 164116, Note_off_c, 0, 44, 55
1, 164214, Note_off_c, 0, 65, 39
1, 164225, Note_on_c, 0, 73, 77
1, 164245, Note_on_c, 0, 37, 57
1, 164262, Note_off_c, 0, 68, 63
1, 164281, Note_off_c, 0, 73, 61
1, 164375, Note_on_c, 0, 73, 78
1, 164378, Note_on_c, 0, 64, 66
1, 164395, Control_c, 0, 64, 94
1, 164406, Note_off_c, 0, 64, 66
1, 164409, Control_c, 0, 64, 73
1, 164414, Note_off_c, 0, 73, 56
1, 164424, Control_c, 0, 64, 0
1, 164431, Note_on_c, 0, 75, 77
1, 164466, Note_on_c, 0, 73, 83
1, 164479, Note_on_c, 0, 44, 59
1, 164481, Note_off_c, 0, 75, 49
1, 164483, Control_c, 0, 64, 64
1, 164498, Control_c, 0, 64, 75
1, 164501, Note_on_c, 0, 64, 11
1, 164502, Note_off_c, 0, 64, 127
1, 164513, Control_c, 0, 64, 86
1, 164528, Control_c, 0, 64, 103
1, 164542, Control_c, 0, 64, 121
1, 164544, Poly_aftertouch_c, 0, 64, 0
1, 164557, Control_c, 0, 64, 127
1, 164568, Note_off_c, 0, 37, 56
1, 164730, Note_on_c, 0, 72, 84
1, 164739, Note_on_c, 0, 52, 72
1, 164745, Note_on_c, 0, 63, 69
1, 164749, Note_off_c, 0, 73, 58
1, 164788, Note_off_c, 0, 52, 55
1, 164812, Note_off_c, 0, 63, 54
1, 164918, Note_off_c, 0, 44, 54
1, 164943, Poly_aftertouch_c, 0, 63, 0
1, 164963, Note_on_c, 0, 73, 92
1, 164968, Note_on_c, 0, 37, 77
1, 164973, Note_on_c, 0, 64, 78
1, 165004, Note_off_c, 0, 64, 61
1, 165028, Note_off_c, 0, 72, 53
1, 165218, Control_c, 0, 64, 94
1, 165233, Control_c, 0, 64, 72
1, 165234, Note_off_c, 0, 37, 62
1, 165247, Control_c, 0, 64, 0
1, 165279, Note_on_c, 0, 76, 83
1, 165281, Note_on_c, 0, 40, 72
1, 165293, Note_on_c, 0, 68, 78
1, 165321, Control_c, 0, 64, 64
1, 165336, Control_c, 0, 64, 72
1, 165350, Note_off_c, 0, 73, 54
1, 165351, Control_c, 0, 64, 77
1, 165365, Control_c, 0, 64, 83
1, 165380, Control_c, 0, 64, 90
1, 165395, Control_c, 0, 64, 100
1, 165410, Control_c, 0, 64, 115
1, 165425, Control_c, 0, 64, 127
1, 165445, Note_off_c, 0, 68, 63
1, 165563, Note_on_c, 0, 74, 88
1, 165574, Note_on_c, 0, 47, 90
1, 165574, Note_on_c, 0, 66, 88
1, 165594, Note_off_c, 0, 40, 59
1, 165636, Note_off_c, 0, 66, 0
1, 165646, Note_off_c, 0, 76, 39
1, 165681, Poly_aftertouch_c, 0, 66, 0
1, 165848, Poly_aftertouch_c, 0, 73, 127
1, 165851, Note_off_c, 0, 74, 47
1, 165878, Note_on_c, 0, 56, 82
1, 165886, Note_on_c, 0, 71, 86
1, 165890, Note_on_c, 0, 62, 84
1, 165902, Note_off_c, 0, 56, 71
1, 165932, Note_off_c, 0, 47, 61
1, 165935, Note_off_c, 0, 62, 64
1, 165952, Poly_aftertouch_c, 0, 73, 0
1, 166077, Note_on_c, 0, 73, 91
1, 166087, Note_on_c, 0, 61, 82
1, 166113, Note_off_c, 0, 71, 63
1, 166123, Note_off_c, 0, 61, 59
1, 166128, Note_on_c, 0, 63, 35
1, 166162, Note_off_c, 0, 63, 48
1, 166166, Note_off_c, 0, 73, 62
1, 166419, Control_c, 0, 64, 85
1, 166427, Note_on_c, 0, 81, 91
1, 166428, Note_on_c, 0, 33, 86
1, 166433, Control_c, 0, 64, 0
1, 166507, Control_c, 0, 64, 68
1, 166522, Control_c, 0, 64, 77
1, 166537, Control_c, 0, 64, 86
1, 166552, Control_c, 0, 64, 98
1, 166567, Control_c, 0, 64, 113
1, 166572, Note_off_c, 0, 33, 62
1, 166581, Control_c, 0, 64, 127
1, 166661, Poly_aftertouch_c, 0, 78, 127
1, 166711, Poly_aftertouch_c, 0, 78, 0
1, 166768, Note_off_c, 0, 81, 58
1, 166829, Note_on_c, 0, 76, 63
1, 166838, Note_on_c, 0, 52, 51
1, 166860, Note_off_c, 0, 76, 63
1, 166883, Note_on_c, 0, 78, 69
1, 166914, Note_off_c, 0, 78, 60
1, 166926, Note_on_c, 0, 76, 75
1, 166957, Note_off_c, 0, 76, 57
1, 166988, Note_on_c, 0, 78, 66
1, 167023, Note_off_c, 0, 78, 56
1, 167029, Note_on_c, 0, 76, 73
1, 167033, Note_on_c, 0, 40, 70
1, 167055, Note_off_c, 0, 76, 63
1, 167070, Note_off_c, 0, 52, 37
1, 167094, Note_on_c, 0, 78, 62
1, 167129, Note_on_c, 0, 76, 70
1, 167129, Note_off_c, 0, 78, 49
1, 167168, Note_off_c, 0, 76, 57
1, 167198, Control_c, 0, 64, 96
1, 167212, Control_c, 0, 64, 73
1, 167223, Poly_aftertouch_c, 0, 78, 0
1, 167227, Control_c, 0, 64, 54
1, 167232, Note_on_c, 0, 76, 68
1, 167236, Note_on_c, 0, 45, 78
1, 167242, Control_c, 0, 64, 66
1, 167256, Control_c, 0, 64, 72
1, 167264, Note_off_c, 0, 76, 61
1, 167271, Note_off_c, 0, 40, 64
1, 167271, Control_c, 0, 64, 81
1, 167282, Note_on_c, 0, 78, 71
1, 167286, Control_c, 0, 64, 93
1, 167301, Control_c, 0, 64, 109
1, 167316, Control_c, 0, 64, 127
1, 167323, Note_on_c, 0, 76, 72
1, 167329, Note_off_c, 0, 78, 58
1, 167354, Note_off_c, 0, 76, 59
1, 167377, Note_on_c, 0, 78, 64
1, 167416, Note_off_c, 0, 45, 61
1, 167422, Note_off_c, 0, 78, 56
1, 167423, Note_on_c, 0, 52, 77
1, 167428, Note_on_c, 0, 76, 62
1, 167449, Note_off_c, 0, 76, 59
1, 167469, Note_on_c, 0, 78, 52
1, 167501, Note_on_c, 0, 76, 49
1, 167505, Note_off_c, 0, 78, 48
1, 167566, Note_on_c, 0, 75, 69
1, 167586, Note_on_c, 0, 40, 69
1, 167589, Note_off_c, 0, 76, 48
1, 167606, Note_off_c, 0, 52, 57
1, 167624, Note_on_c, 0, 76, 53
1, 167637, Note_off_c, 0, 75, 63
1, 167823, Note_on_c, 0, 81, 75
1, 167833, Note_on_c, 0, 69, 56
1, 167850, Note_on_c, 0, 73, 54
1, 167857, Control_c, 0, 64, 85
1, 167862, Note_on_c, 0, 45, 64
1, 167872, Control_c, 0, 64, 64
1, 167882, Note_off_c, 0, 76, 59
1, 167887, Control_c, 0, 64, 0
1, 167920, Note_off_c, 0, 69, 60
1, 167932, Control_c, 0, 64, 64
1, 167946, Note_off_c, 0, 81, 61
1, 167946, Control_c, 0, 64, 71
1, 167961, Control_c, 0, 64, 80
1, 167976, Control_c, 0, 64, 90
1, 167979, Note_off_c, 0, 73, 59
1, 167991, Control_c, 0, 64, 101
1, 168006, Control_c, 0, 64, 112
1, 168020, Control_c, 0, 64, 127
1, 168042, Note_off_c, 0, 40, 61
1, 168059, Note_on_c, 0, 78, 81
1, 168061, Note_on_c, 0, 66, 76
1, 168067, Note_on_c, 0, 52, 68
1, 168078, Note_on_c, 0, 76, 62
1, 168112, Note_off_c, 0, 66, 46
1, 168203, Note_off_c, 0, 45, 37
1, 168246, Note_on_c, 0, 40, 75
1, 168246, Note_on_c, 0, 80, 83
1, 168248, Note_off_c, 0, 76, 54
1, 168254, Note_on_c, 0, 71, 62
1, 168256, Note_on_c, 0, 68, 69
1, 168262, Note_off_c, 0, 52, 60
1, 168292, Note_off_c, 0, 71, 60
1, 168332, Note_off_c, 0, 68, 62
1, 168362, Note_off_c, 0, 80, 63
1, 168391, Control_c, 0, 64, 89
1, 168406, Control_c, 0, 64, 71
1, 168408, Note_off_c, 0, 78, 60
1, 168421, Control_c, 0, 64, 66
1, 168436, Control_c, 0, 64, 71
1, 168441, Note_on_c, 0, 81, 88
1, 168444, Note_on_c, 0, 45, 73
1, 168447, Note_on_c, 0, 69, 73
1, 168451, Control_c, 0, 64, 78
1, 168462, Note_on_c, 0, 73, 58
1, 168465, Control_c, 0, 64, 91
1, 168480, Control_c, 0, 64, 113
1, 168495, Control_c, 0, 64, 127
1, 168529, Note_off_c, 0, 69, 60
1, 168562, Note_off_c, 0, 81, 60
1, 168587, Note_off_c, 0, 73, 60
1, 168629, Note_on_c, 0, 52, 76
1, 168643, Note_on_c, 0, 78, 84
1, 168647, Note_on_c, 0, 66, 79
1, 168658, Note_on_c, 0, 76, 67
1, 168662, Note_off_c, 0, 40, 49
1, 168718, Note_off_c, 0, 66, 36
1, 168790, Note_off_c, 0, 52, 56
1, 168807, Note_on_c, 0, 40, 80
1, 168820, Note_on_c, 0, 80, 93
1, 168824, Note_on_c, 0, 68, 82
1, 168827, Note_off_c, 0, 45, 63
1, 168828, Note_off_c, 0, 76, 34
1, 168829, Note_on_c, 0, 71, 72
1, 168855, Note_off_c, 0, 40, 63
1, 168869, Note_off_c, 0, 71, 59
1, 168909, Note_off_c, 0, 78, 0
1, 168946, Poly_aftertouch_c, 0, 78, 127
1, 168957, Note_on_c, 0, 78, 11
1, 168960, Note_off_c, 0, 68, 60
1, 168990, Note_off_c, 0, 80, 62
1, 169020, Control_c, 0, 64, 85
1, 169034, Control_c, 0, 64, 51
1, 169038, Note_off_c, 0, 78, 51
1, 169049, Control_c, 0, 64, 0
1, 169051, Note_on_c, 0, 45, 65
1, 169051, Note_on_c, 0, 81, 87
1, 169054, Note_on_c, 0, 69, 76
1, 169056, Note_on_c, 0, 33, 64
1, 169059, Note_on_c, 0, 73, 63
1, 169088, Note_off_c, 0, 33, 63
1, 169094, Control_c, 0, 64, 67
1, 169109, Control_c, 0, 64, 78
1, 169120, Note_off_c, 0, 45, 64
1, 169124, Control_c, 0, 64, 90
1, 169139, Control_c, 0, 64, 108
1, 169154, Control_c, 0, 64, 127
1, 169197, Note_off_c, 0, 73, 57
1, 169222, Note_off_c, 0, 81, 62
1, 169225, Note_on_c, 0, 52, 75
1, 169231, Note_on_c, 0, 76, 79
1, 169243, Note_off_c, 0, 69, 61
1, 169414, Note_on_c, 0, 80, 92
1, 169417, Note_on_c, 0, 40, 78
1, 169417, Note_on_c, 0, 71, 75
1, 169420, Note_on_c, 0, 68, 80
1, 169437, Note_off_c, 0, 76, 60
1, 169505, Note_off_c, 0, 52, 34
1, 169526, Note_off_c, 0, 71, 55
1, 169529, Note_off_c, 0, 68, 61
1, 169538, Note_off_c, 0, 80, 62
1, 169577, Control_c, 0, 64, 113
1, 169592, Control_c, 0, 64, 82
1, 169606, Control_c, 0, 64, 69
1, 169615, Note_on_c, 0, 81, 92
1, 169616, Note_on_c, 0, 45, 76
1, 169621, Note_on_c, 0, 69, 80
1, 169621, Control_c, 0, 64, 69
1, 169636, Control_c, 0, 64, 76
1, 169651, Control_c, 0, 64, 87
1, 169665, Control_c, 0, 64, 104
1, 169680, Control_c, 0, 64, 127
1, 169747, Note_off_c, 0, 40, 53
1, 169780, Note_on_c, 0, 52, 80
1, 169788, Note_on_c, 0, 80, 93
1, 169809, Note_off_c, 0, 69, 60
1, 169818, Note_off_c, 0, 81, 62
1, 169902, Note_off_c, 0, 45, 40
1, 169907, Note_off_c, 0, 80, 61
1, 169924, Note_off_c, 0, 52, 59
1, 169946, Note_on_c, 0, 40, 84
1, 169947, Note_on_c, 0, 83, 96
1, 169949, Note_on_c, 0, 71, 88
1, 169967, Note_on_c, 0, 78, 65
1, 169991, Note_off_c, 0, 78, 62
1, 169992, Note_off_c, 0, 40, 64
1, 170004, Note_off_c, 0, 71, 56
1, 170051, Note_off_c, 0, 83, 61
1, 170163, Control_c, 0, 64, 99
1, 170178, Control_c, 0, 64, 72
1, 170193, Control_c, 0, 64, 0
1, 170197, Note_on_c, 0, 45, 63
1, 170197, Note_on_c, 0, 85, 90
1, 170198, Note_on_c, 0, 76, 42
1, 170200, Note_on_c, 0, 33, 80
1, 170201, Note_on_c, 0, 73, 80
1, 170237, Note_off_c, 0, 33, 65
1, 170237, Control_c, 0, 64, 67
1, 170252, Control_c, 0, 64, 78
1, 170262, Note_off_c, 0, 45, 64
1, 170264, Note_off_c, 0, 76, 47
1, 170267, Control_c, 0, 64, 94
1, 170281, Control_c, 0, 64, 127
1, 170371, Note_off_c, 0, 73, 60
1, 170375, Note_on_c, 0, 52, 70
1, 170391, Note_on_c, 0, 81, 81
1, 170422, Note_off_c, 0, 85, 63
1, 170435, Note_on_c, 0, 80, 32
1, 170572, Note_on_c, 0, 40, 85
1, 170577, Note_off_c, 0, 80, 0
1, 170577, Note_on_c, 0, 80, 28
1, 170578, Note_on_c, 0, 69, 85
1, 170611, Note_off_c, 0, 52, 61
1, 170635, Note_off_c, 0, 69, 61
1, 170726, Control_c, 0, 64, 97
1, 170741, Control_c, 0, 64, 72
1, 170757, Control_c, 0, 64, 0
1, 170771, Control_c, 0, 64, 64
1, 170783, Note_on_c, 0, 45, 80
1, 170786, Control_c, 0, 64, 69
1, 170791, Note_off_c, 0, 80, 37
1, 170794, Note_on_c, 0, 73, 94
1, 170794, Note_on_c, 0, 85, 97
1, 170794, Note_off_c, 0, 40, 63
1, 170801, Control_c, 0, 64, 75
1, 170805, Note_on_c, 0, 75, 63
1, 170816, Control_c, 0, 64, 92
1, 170838, Control_c, 0, 64, 127
1, 170840, Note_off_c, 0, 75, 64
1, 170845, Note_off_c, 0, 81, 59
1, 170950, Note_off_c, 0, 73, 61
1, 170978, Note_on_c, 0, 51, 82
1, 170987, Note_on_c, 0, 79, 95
1, 170998, Note_off_c, 0, 45, 60
1, 171007, Note_off_c, 0, 85, 61
1, 171008, Note_on_c, 0, 81, 32
1, 171073, Note_off_c, 0, 81, 36
1, 171083, Poly_aftertouch_c, 0, 80, 127
1, 171158, Note_off_c, 0, 51, 57
1, 171166, Note_on_c, 0, 39, 91
1, 171178, Note_on_c, 0, 67, 85
1, 171196, Note_on_c, 0, 78, 46
1, 171214, Note_off_c, 0, 39, 64
1, 171216, Note_off_c, 0, 67, 58
1, 171224, Note_off_c, 0, 78, 36
1, 171229, Note_on_c, 0, 69, 22
1, 171267, Note_off_c, 0, 69, 43
1, 171296, Poly_aftertouch_c, 0, 80, 0
1, 171491, Control_c, 0, 64, 97
1, 171504, Note_on_c, 0, 44, 75
1, 171505, Control_c, 0, 64, 69
1, 171509, Note_on_c, 0, 32, 81
1, 171515, Note_on_c, 0, 73, 86
1, 171517, Note_on_c, 0, 85, 91
1, 171520, Control_c, 0, 64, 0
1, 171529, Note_on_c, 0, 75, 63
1, 171542, Note_off_c, 0, 79, 60
1, 171582, Note_off_c, 0, 75, 53
1, 171617, Control_c, 0, 64, 72
1, 171632, Note_off_c, 0, 32, 63
1, 171632, Control_c, 0, 64, 80
1, 171647, Control_c, 0, 64, 90
1, 171661, Control_c, 0, 64, 101
1, 171676, Control_c, 0, 64, 110
1, 171678, Note_off_c, 0, 44, 59
1, 171691, Control_c, 0, 64, 127
1, 171819, Note_on_c, 0, 80, 85
1, 171822, Note_on_c, 0, 51, 66
1, 171831, Note_off_c, 0, 85, 60
1, 171846, Note_off_c, 0, 73, 60
1, 171994, Note_on_c, 0, 68, 86
1, 171995, Note_on_c, 0, 39, 67
1, 172051, Note_off_c, 0, 68, 64
1, 172108, Note_off_c, 0, 51, 31
1, 172150, Control_c, 0, 64, 107
1, 172165, Control_c, 0, 64, 84
1, 172179, Control_c, 0, 64, 79
1, 172191, Note_on_c, 0, 75, 94
1, 172194, Control_c, 0, 64, 83
1, 172195, Note_on_c, 0, 44, 70
1, 172209, Control_c, 0, 64, 91
1, 172224, Control_c, 0, 64, 101
1, 172239, Control_c, 0, 64, 127
1, 172290, Note_off_c, 0, 39, 52
1, 172344, Note_off_c, 0, 80, 61
1, 172388, Note_on_c, 0, 84, 92
1, 172394, Note_on_c, 0, 72, 83
1, 172399, Note_on_c, 0, 51, 73
1, 172412, Note_off_c, 0, 75, 64
1, 172428, Note_off_c, 0, 44, 60
1, 172480, Note_off_c, 0, 84, 59
1, 172496, Note_off_c, 0, 72, 58
1, 172582, Note_on_c, 0, 39, 72
1, 172603, Note_off_c, 0, 51, 55
1, 172685, Note_on_c, 0, 80, 85
1, 172686, Note_on_c, 0, 68, 79
1, 172722, Note_off_c, 0, 68, 61
1, 172722, Note_off_c, 0, 80, 59
1, 172736, Control_c, 0, 64, 109
1, 172750, Control_c, 0, 64, 75
1, 172765, Control_c, 0, 64, 58
1, 172778, Note_on_c, 0, 68, 85
1, 172780, Control_c, 0, 64, 63
1, 172782, Note_on_c, 0, 80, 82
1, 172793, Note_on_c, 0, 44, 56
1, 172794, Control_c, 0, 64, 66
1, 172796, Note_on_c, 0, 73, 63
1, 172796, Note_on_c, 0, 75, 66
1, 172809, Control_c, 0, 64, 70
1, 172824, Control_c, 0, 64, 79
1, 172839, Control_c, 0, 64, 98
1, 172854, Control_c, 0, 64, 127
1, 172883, Note_off_c, 0, 39, 50
1, 172886, Note_off_c, 0, 73, 59
1, 172930, Note_off_c, 0, 68, 60
1, 172983, Note_on_c, 0, 72, 91
1, 172997, Note_on_c, 0, 51, 68
1, 173027, Note_off_c, 0, 44, 58
1, 173154, Note_on_c, 0, 39, 67
1, 173225, Note_off_c, 0, 75, 60
1, 173226, Note_off_c, 0, 51, 33
1, 173229, Note_off_c, 0, 80, 62
1, 173234, Note_off_c, 0, 72, 59
1, 173242, Note_on_c, 0, 68, 83
1, 173266, Note_off_c, 0, 68, 68
1, 173359, Note_on_c, 0, 68, 64
1, 173367, Control_c, 0, 64, 102
1, 173373, Note_on_c, 0, 44, 62
1, 173375, Note_on_c, 0, 61, 67
1, 173379, Note_on_c, 0, 63, 70
1, 173381, Control_c, 0, 64, 77
1, 173396, Control_c, 0, 64, 63
1, 173403, Note_off_c, 0, 61, 51
1, 173425, Control_c, 0, 64, 68
1, 173440, Control_c, 0, 64, 74
1, 173446, Note_off_c, 0, 39, 51
1, 173455, Control_c, 0, 64, 83
1, 173470, Control_c, 0, 64, 97
1, 173485, Control_c, 0, 64, 110
1, 173500, Control_c, 0, 64, 120
1, 173515, Control_c, 0, 64, 127
1, 173545, Note_on_c, 0, 60, 82
1, 173548, Poly_aftertouch_c, 0, 66, 0
1, 173569, Note_on_c, 0, 51, 65
1, 173678, Note_off_c, 0, 51, 59
1, 173721, Note_on_c, 0, 39, 70
1, 173740, Note_off_c, 0, 44, 62
1, 173753, Note_off_c, 0, 60, 53
1, 173759, Note_off_c, 0, 39, 62
1, 173849, Note_on_c, 0, 56, 87
1, 173968, Note_on_c, 0, 60, 30
1, 173987, Note_off_c, 0, 56, 62
1, 174024, Note_off_c, 0, 60, 55
1, 174027, Note_on_c, 0, 44, 60
1, 174030, Note_on_c, 0, 32, 64
1, 174042, Control_c, 0, 64, 90
1, 174056, Control_c, 0, 64, 66
1, 174060, Note_on_c, 0, 56, 76
1, 174071, Control_c, 0, 64, 0
1, 174072, Note_off_c, 0, 68, 60
1, 174116, Control_c, 0, 64, 65
1, 174120, Note_off_c, 0, 32, 63
1, 174130, Control_c, 0, 64, 72
1, 174143, Note_off_c, 0, 63, 40
1, 174144, Note_off_c, 0, 44, 58
1, 174145, Control_c, 0, 64, 80
1, 174160, Control_c, 0, 64, 89
1, 174174, Control_c, 0, 64, 98
1, 174180, Note_on_c, 0, 68, 70
1, 174189, Control_c, 0, 64, 104
1, 174191, Note_off_c, 0, 56, 62
1, 174204, Control_c, 0, 64, 113
1, 174219, Control_c, 0, 64, 127
1, 174243, Note_on_c, 0, 60, 76
1, 174245, Note_off_c, 0, 68, 62
1, 174302, Note_on_c, 0, 51, 57
1, 174304, Note_off_c, 0, 60, 57
1, 174325, Note_on_c, 0, 63, 68
1, 174352, Note_on_c, 0, 68, 64
1, 174352, Note_off_c, 0, 63, 65
1, 174376, Note_off_c, 0, 68, 64
1, 174418, Note_on_c, 0, 68, 79
1, 174421, Note_on_c, 0, 39, 63
1, 174463, Note_off_c, 0, 68, 63
1, 174491, Note_on_c, 0, 80, 76
1, 174516, Note_off_c, 0, 80, 66
1, 174580, Note_on_c, 0, 80, 91
1, 174728, Control_c, 0, 64, 82
1, 174736, Note_on_c, 0, 92, 81
1, 174744, Control_c, 0, 64, 0
1, 174752, Note_off_c, 0, 80, 62
1, 174764, Note_on_c, 0, 44, 56
1, 174770, Note_off_c, 0, 92, 59
1, 174771, Note_off_c, 0, 51, 48
1, 174789, Control_c, 0, 64, 65
1, 174803, Control_c, 0, 64, 73
1, 174812, Note_off_c, 0, 39, 55
1, 174818, Control_c, 0, 64, 85
1, 174833, Control_c, 0, 64, 103
1, 174848, Control_c, 0, 64, 127
1, 175130, Note_on_c, 0, 63, 63
1, 175139, Note_on_c, 0, 51, 38
1, 175166, Note_off_c, 0, 44, 35
1, 175360, Note_on_c, 0, 39, 39
1, 175366, Note_on_c, 0, 58, 61
1, 175403, Control_c, 0, 64, 100
1, 175418, Control_c, 0, 64, 79
1, 175428, Note_off_c, 0, 51, 36
1, 175433, Control_c, 0, 64, 70
1, 175448, Control_c, 0, 64, 72
1, 175458, Note_off_c, 0, 63, 39
1, 175463, Control_c, 0, 64, 79
1, 175477, Control_c, 0, 64, 88
1, 175492, Control_c, 0, 64, 98
1, 175507, Control_c, 0, 64, 110
1, 175521, Control_c, 0, 64, 127
1, 175573, Note_on_c, 0, 60, 66
1, 175581, Note_on_c, 0, 44, 51
1, 175622, Note_off_c, 0, 58, 50
1, 175733, Note_off_c, 0, 60, 58
1, 175744, Note_off_c, 0, 39, 35
1, 175749, Note_on_c, 0, 63, 84
1, 175752, Note_on_c, 0, 51, 64
1, 175775, Note_off_c, 0, 63, 67
1, 175936, Note_on_c, 0, 70, 85
1, 175937, Note_on_c, 0, 39, 65
1, 175937, Note_on_c, 0, 58, 82
1, 175953, Note_off_c, 0, 44, 58
1, 175980, Note_off_c, 0, 58, 55
1, 176009, Note_off_c, 0, 70, 61
1, 176013, Note_off_c, 0, 51, 53
1, 176135, Note_on_c, 0, 72, 93
1, 176142, Note_on_c, 0, 44, 62
1, 176144, Note_on_c, 0, 60, 80
1, 176177, Note_off_c, 0, 60, 58
1, 176217, Note_off_c, 0, 72, 58
1, 176245, Note_off_c, 0, 39, 52
1, 176315, Note_on_c, 0, 51, 69
1, 176317, Note_on_c, 0, 63, 84
1, 176317, Note_on_c, 0, 75, 86
1, 176452, Note_off_c, 0, 51, 57
1, 176484, Note_on_c, 0, 39, 72
1, 176504, Note_off_c, 0, 44, 62
1, 176505, Note_on_c, 0, 70, 91
1, 176525, Note_off_c, 0, 63, 61
1, 176527, Note_off_c, 0, 39, 63
1, 176541, Note_off_c, 0, 75, 59
1, 176616, Note_off_c, 0, 70, 61
1, 176673, Note_on_c, 0, 32, 56
1, 176746, Control_c, 0, 64, 108
1, 176761, Control_c, 0, 64, 79
1, 176776, Control_c, 0, 64, 0
1, 176785, Note_on_c, 0, 44, 51
1, 176797, Note_on_c, 0, 80, 80
1, 176801, Note_on_c, 0, 68, 73
1, 176808, Note_on_c, 0, 72, 71
1, 176857, Control_c, 0, 64, 65
1, 176872, Control_c, 0, 64, 73
1, 176886, Note_off_c, 0, 32, 63
1, 176887, Control_c, 0, 64, 82
1, 176902, Control_c, 0, 64, 94
1, 176910, Note_off_c, 0, 72, 59
1, 176917, Control_c, 0, 64, 107
1, 176926, Note_off_c, 0, 44, 59
1, 176926, Note_off_c, 0, 68, 61
1, 176932, Control_c, 0, 64, 116
1, 176947, Control_c, 0, 64, 127
1, 177061, Note_off_c, 0, 80, 54
1, 177098, Note_on_c, 0, 75, 58
1, 177118, Note_off_c, 0, 75, 64
1, 177126, Note_on_c, 0, 51, 46
1, 177138, Note_on_c, 0, 77, 67
1, 177169, Note_off_c, 0, 77, 61
1, 177195, Note_on_c, 0, 75, 69
1, 177226, Note_off_c, 0, 75, 61
1, 177233, Note_on_c, 0, 77, 70
1, 177273, Note_on_c, 0, 39, 52
1, 177275, Note_off_c, 0, 77, 56
1, 177303, Note_on_c, 0, 75, 61
1, 177324, Note_off_c, 0, 75, 63
1, 177330, Note_on_c, 0, 77, 69
1, 177348, Control_c, 0, 64, 105
1, 177362, Note_off_c, 0, 77, 59
1, 177363, Control_c, 0, 64, 81
1, 177373, Poly_aftertouch_c, 0, 78, 0
1, 177378, Control_c, 0, 64, 74
1, 177392, Note_on_c, 0, 75, 70
1, 177392, Control_c, 0, 64, 79
1, 177407, Control_c, 0, 64, 89
1, 177409, Note_off_c, 0, 75, 69
1, 177422, Control_c, 0, 64, 101
1, 177433, Note_on_c, 0, 77, 55
1, 177436, Note_on_c, 0, 44, 60
1, 177437, Control_c, 0, 64, 122
1, 177452, Control_c, 0, 64, 127
1, 177454, Note_off_c, 0, 77, 59
1, 177466, Note_on_c, 0, 75, 80
1, 177466, Note_off_c, 0, 51, 25
1, 177495, Note_off_c, 0, 75, 56
1, 177500, Note_off_c, 0, 39, 60
1, 177507, Note_on_c, 0, 77, 55
1, 177539, Note_off_c, 0, 77, 47
1, 177556, Note_on_c, 0, 75, 72
1, 177596, Note_on_c, 0, 77, 61
1, 177599, Note_off_c, 0, 75, 60
1, 177627, Note_on_c, 0, 51, 60
1, 177658, Note_off_c, 0, 77, 0
1, 177684, Note_off_c, 0, 44, 37
1, 177685, Note_on_c, 0, 75, 35
1, 177694, Poly_aftertouch_c, 0, 77, 127
1, 177747, Note_on_c, 0, 74, 71
1, 177748, Poly_aftertouch_c, 0, 77, 0
1, 177783, Note_off_c, 0, 75, 33
1, 177799, Note_on_c, 0, 39, 44
1, 177810, Note_on_c, 0, 75, 70
1, 177816, Note_off_c, 0, 74, 59
1, 177888, Note_off_c, 0, 51, 27
1, 178049, Note_on_c, 0, 80, 67
1, 178051, Note_off_c, 0, 75, 60
1, 178052, Control_c, 0, 64, 91
1, 178067, Control_c, 0, 64, 68
1, 178070, Note_on_c, 0, 44, 47
1, 178073, Note_on_c, 0, 68, 45
1, 178082, Note_on_c, 0, 72, 42
1, 178082, Control_c, 0, 64, 63
1, 178096, Control_c, 0, 64, 66
1, 178111, Control_c, 0, 64, 69
1, 178126, Control_c, 0, 64, 74
1, 178141, Control_c, 0, 64, 85
1, 178156, Control_c, 0, 64, 102
1, 178169, Note_off_c, 0, 72, 49
1, 178171, Control_c, 0, 64, 127
1, 178175, Note_off_c, 0, 80, 61
1, 178177, Note_off_c, 0, 68, 63
1, 178183, Note_off_c, 0, 39, 33
1, 178283, Note_on_c, 0, 65, 65
1, 178287, Note_on_c, 0, 77, 72
1, 178287, Note_on_c, 0, 51, 49
1, 178358, Note_off_c, 0, 65, 59
1, 178386, Note_off_c, 0, 77, 58
1, 178445, Note_off_c, 0, 44, 29
1, 178481, Note_on_c, 0, 79, 78
1, 178482, Note_on_c, 0, 67, 72
1, 178484, Note_on_c, 0, 39, 51
1, 178526, Note_on_c, 0, 70, 29
1, 178559, Note_off_c, 0, 70, 45
1, 178567, Note_off_c, 0, 67, 56
1, 178567, Note_off_c, 0, 79, 61
1, 178573, Note_off_c, 0, 51, 30
1, 178622, Control_c, 0, 64, 105
1, 178637, Control_c, 0, 64, 88
1, 178652, Control_c, 0, 64, 84
1, 178666, Control_c, 0, 64, 89
1, 178671, Note_on_c, 0, 44, 61
1, 178672, Note_on_c, 0, 80, 86
1, 178672, Note_on_c, 0, 68, 79
1, 178681, Control_c, 0, 64, 99
1, 178696, Control_c, 0, 64, 119
1, 178711, Control_c, 0, 64, 127
1, 178763, Note_off_c, 0, 68, 63
1, 178770, Note_off_c, 0, 39, 54
1, 178788, Note_off_c, 0, 80, 65
1, 178800, Poly_aftertouch_c, 0, 70, 127
1, 178844, Note_on_c, 0, 51, 67
1, 178854, Note_on_c, 0, 65, 81
1, 178862, Note_on_c, 0, 77, 78
1, 178898, Poly_aftertouch_c, 0, 75, 127
1, 178907, Poly_aftertouch_c, 0, 70, 0
1, 178930, Poly_aftertouch_c, 0, 70, 0
1, 178949, Note_off_c, 0, 65, 59
1, 178965, Note_off_c, 0, 77, 57
1, 178967, Poly_aftertouch_c, 0, 70, 127
1, 178968, Note_off_c, 0, 51, 57
1, 178991, Poly_aftertouch_c, 0, 75, 0
1, 179013, Poly_aftertouch_c, 0, 70, 0
1, 179027, Note_on_c, 0, 39, 64
1, 179035, Note_on_c, 0, 67, 80
1, 179035, Note_on_c, 0, 79, 88
1, 179050, Note_off_c, 0, 44, 62
1, 179080, Note_off_c, 0, 39, 60
1, 179143, Note_off_c, 0, 79, 62
1, 179145, Note_off_c, 0, 67, 63
1, 179223, Control_c, 0, 64, 95
1, 179238, Control_c, 0, 64, 68
1, 179240, Note_on_c, 0, 32, 70
1, 179241, Note_on_c, 0, 44, 61
1, 179247, Note_on_c, 0, 80, 84
1, 179250, Note_on_c, 0, 68, 73
1, 179252, Control_c, 0, 64, 0
1, 179282, Control_c, 0, 64, 56
1, 179296, Control_c, 0, 64, 68
1, 179308, Note_off_c, 0, 32, 60
1, 179311, Control_c, 0, 64, 76
1, 179325, Note_off_c, 0, 44, 63
1, 179326, Control_c, 0, 64, 93
1, 179341, Control_c, 0, 64, 115
1, 179356, Control_c, 0, 64, 127
1, 179428, Note_on_c, 0, 75, 84
1, 179436, Note_on_c, 0, 51, 72
1, 179472, Note_off_c, 0, 68, 62
1, 179529, Note_off_c, 0, 80, 62
1, 179601, Note_on_c, 0, 79, 88
1, 179605, Note_on_c, 0, 67, 77
1, 179608, Note_on_c, 0, 39, 73
1, 179616, Note_on_c, 0, 70, 75
1, 179646, Note_off_c, 0, 67, 60
1, 179670, Note_off_c, 0, 79, 63
1, 179674, Note_off_c, 0, 70, 65
1, 179692, Note_off_c, 0, 51, 50
1, 179695, Note_off_c, 0, 75, 62
1, 179757, Control_c, 0, 64, 124
1, 179772, Control_c, 0, 64, 86
1, 179786, Control_c, 0, 64, 68
1, 179787, Note_on_c, 0, 80, 88
1, 179790, Note_on_c, 0, 68, 78
1, 179801, Control_c, 0, 64, 46
1, 179804, Note_on_c, 0, 44, 74
1, 179823, Control_c, 0, 64, 68
1, 179824, Note_on_c, 0, 71, 41
1, 179838, Control_c, 0, 64, 74
1, 179853, Note_off_c, 0, 71, 54
1, 179853, Control_c, 0, 64, 84
1, 179856, Note_off_c, 0, 39, 61
1, 179867, Control_c, 0, 64, 101
1, 179882, Control_c, 0, 64, 123
1, 179897, Control_c, 0, 64, 127
1, 179955, Note_off_c, 0, 68, 52
1, 179980, Note_on_c, 0, 78, 90
1, 179989, Note_on_c, 0, 51, 75
1, 180001, Note_off_c, 0, 44, 62
1, 180022, Note_off_c, 0, 80, 62
1, 180044, Note_off_c, 0, 78, 60
1, 180142, Note_on_c, 0, 39, 74
1, 180151, Note_on_c, 0, 70, 83
1, 180151, Note_on_c, 0, 82, 85
1, 180163, Note_off_c, 0, 51, 56
1, 180184, Note_on_c, 0, 76, 39
1, 180214, Note_off_c, 0, 76, 49
1, 180267, Note_off_c, 0, 70, 61
1, 180285, Note_off_c, 0, 82, 62
1, 180326, Control_c, 0, 64, 99
1, 180342, Control_c, 0, 64, 75
1, 180357, Control_c, 0, 64, 0
1, 180374, Note_on_c, 0, 83, 94
1, 180376, Note_on_c, 0, 44, 76
1, 180377, Note_on_c, 0, 71, 88
1, 180387, Control_c, 0, 64, 53
1, 180396, Note_on_c, 0, 75, 65
1, 180402, Control_c, 0, 64, 67
1, 180416, Control_c, 0, 64, 74
1, 180431, Control_c, 0, 64, 86
1, 180446, Control_c, 0, 64, 103
1, 180453, Note_off_c, 0, 39, 55
1, 180461, Control_c, 0, 64, 127
1, 180496, Note_off_c, 0, 75, 49
1, 180550, Note_on_c, 0, 51, 76
1, 180556, Note_on_c, 0, 78, 84
1, 180556, Note_off_c, 0, 83, 64
1, 180568, Note_off_c, 0, 71, 64
1, 180594, Note_off_c, 0, 44, 60
1, 180639, Poly_aftertouch_c, 0, 80, 127
1, 180678, Poly_aftertouch_c, 0, 80, 0
1, 180717, Note_off_c, 0, 51, 59
1, 180740, Note_on_c, 0, 39, 78
1, 180752, Note_on_c, 0, 68, 87
1, 180814, Note_off_c, 0, 68, 62
1, 180943, Control_c, 0, 64, 85
1, 180956, Note_on_c, 0, 44, 82
1, 180958, Control_c, 0, 64, 65
1, 180961, Note_on_c, 0, 83, 92
1, 180966, Note_on_c, 0, 71, 80
1, 180966, Note_on_c, 0, 73, 80
1, 180973, Control_c, 0, 64, 0
1, 180988, Note_off_c, 0, 39, 61
1, 181003, Control_c, 0, 64, 62
1, 181003, Note_off_c, 0, 78, 62
1, 181017, Control_c, 0, 64, 70
1, 181032, Control_c, 0, 64, 81
1, 181047, Control_c, 0, 64, 98
1, 181061, Control_c, 0, 64, 127
1, 181118, Note_off_c, 0, 71, 58
1, 181155, Note_on_c, 0, 49, 85
1, 181162, Note_on_c, 0, 77, 87
1, 181175, Note_off_c, 0, 73, 61
1, 181182, Note_on_c, 0, 80, 63
1, 181190, Note_off_c, 0, 44, 63
1, 181202, Note_off_c, 0, 80, 62
1, 181231, Note_off_c, 0, 83, 54
1, 181334, Note_off_c, 0, 49, 47
1, 181342, Note_on_c, 0, 37, 85
1, 181363, Note_on_c, 0, 68, 88
1, 181384, Note_off_c, 0, 37, 62
1, 181410, Note_off_c, 0, 68, 63
1, 181538, Note_on_c, 0, 30, 56
1, 181691, Control_c, 0, 64, 101
1, 181694, Note_on_c, 0, 42, 76
1, 181706, Note_on_c, 0, 83, 96
1, 181706, Control_c, 0, 64, 71
1, 181707, Note_on_c, 0, 71, 86
1, 181708, Note_on_c, 0, 73, 81
1, 181721, Control_c, 0, 64, 0
1, 181746, Note_off_c, 0, 77, 60
1, 181796, Control_c, 0, 64, 69
1, 181811, Control_c, 0, 64, 77
1, 181826, Control_c, 0, 64, 87
1, 181834, Note_off_c, 0, 30, 61
1, 181840, Control_c, 0, 64, 103
1, 181855, Control_c, 0, 64, 118
1, 181870, Control_c, 0, 64, 127
1, 181885, Note_off_c, 0, 42, 56
1, 181973, Note_off_c, 0, 83, 59
1, 182037, Note_off_c, 0, 71, 56
1, 182070, Note_on_c, 0, 78, 78
1, 182072, Note_on_c, 0, 49, 56
1, 182095, Note_off_c, 0, 73, 60
1, 182254, Note_on_c, 0, 66, 80
1, 182261, Note_on_c, 0, 37, 57
1, 182310, Note_off_c, 0, 66, 64
1, 182344, Note_off_c, 0, 49, 30
1, 182440, Control_c, 0, 64, 97
1, 182449, Note_on_c, 0, 73, 89
1, 182455, Control_c, 0, 64, 77
1, 182461, Note_on_c, 0, 42, 65
1, 182470, Control_c, 0, 64, 70
1, 182485, Control_c, 0, 64, 73
1, 182500, Control_c, 0, 64, 80
1, 182514, Control_c, 0, 64, 89
1, 182529, Control_c, 0, 64, 99
1, 182544, Control_c, 0, 64, 111
1, 182559, Control_c, 0, 64, 127
1, 182602, Note_off_c, 0, 37, 36
1, 182647, Note_on_c, 0, 82, 87
1, 182657, Note_on_c, 0, 70, 85
1, 182660, Note_on_c, 0, 49, 69
1, 182664, Note_off_c, 0, 78, 59
1, 182687, Note_off_c, 0, 73, 61
1, 182687, Note_off_c, 0, 42, 58
1, 182781, Note_off_c, 0, 82, 61
1, 182791, Note_off_c, 0, 70, 61
1, 182842, Note_on_c, 0, 37, 70
1, 182861, Note_off_c, 0, 49, 59
1, 182942, Note_on_c, 0, 66, 79
1, 182944, Note_on_c, 0, 78, 78
1, 182964, Note_off_c, 0, 66, 68
1, 182972, Note_off_c, 0, 78, 63
1, 182997, Control_c, 0, 64, 115
1, 183011, Control_c, 0, 64, 76
1, 183017, Note_on_c, 0, 66, 79
1, 183026, Control_c, 0, 64, 0
1, 183028, Note_on_c, 0, 78, 86
1, 183036, Note_on_c, 0, 73, 72
1, 183038, Note_on_c, 0, 42, 72
1, 183046, Note_on_c, 0, 71, 62
1, 183055, Control_c, 0, 64, 58
1, 183070, Control_c, 0, 64, 66
1, 183085, Control_c, 0, 64, 73
1, 183100, Control_c, 0, 64, 87
1, 183115, Control_c, 0, 64, 105
1, 183129, Control_c, 0, 64, 127
1, 183131, Note_off_c, 0, 71, 60
1, 183135, Note_off_c, 0, 37, 51
1, 183208, Note_off_c, 0, 66, 62
1, 183249, Note_on_c, 0, 70, 89
1, 183258, Note_on_c, 0, 49, 72
1, 183260, Poly_aftertouch_c, 0, 75, 127
1, 183271, Note_off_c, 0, 42, 58
1, 183342, Poly_aftertouch_c, 0, 75, 0
1, 183379, Poly_aftertouch_c, 0, 75, 127
1, 183417, Note_on_c, 0, 37, 71
1, 183502, Note_off_c, 0, 78, 60
1, 183512, Note_off_c, 0, 73, 59
1, 183516, Note_off_c, 0, 70, 60
1, 183521, Note_on_c, 0, 66, 83
1, 183531, Note_off_c, 0, 49, 38
1, 183533, Poly_aftertouch_c, 0, 75, 0
1, 183545, Note_off_c, 0, 66, 66
1, 183651, Note_on_c, 0, 66, 55
1, 183657, Note_on_c, 0, 42, 70
1, 183657, Control_c, 0, 64, 120
1, 183669, Note_on_c, 0, 59, 62
1, 183672, Control_c, 0, 64, 81
1, 183677, Note_on_c, 0, 61, 64
1, 183686, Control_c, 0, 64, 65
1, 183701, Control_c, 0, 64, 65
1, 183711, Note_off_c, 0, 59, 48
1, 183716, Control_c, 0, 64, 69
1, 183727, Note_off_c, 0, 37, 56
1, 183731, Control_c, 0, 64, 74
1, 183746, Control_c, 0, 64, 83
1, 183760, Control_c, 0, 64, 97
1, 183775, Control_c, 0, 64, 113
1, 183790, Control_c, 0, 64, 127
1, 183852, Note_on_c, 0, 58, 87
1, 183865, Note_on_c, 0, 49, 70
1, 184002, Note_off_c, 0, 49, 61
1, 184030, Note_on_c, 0, 37, 72
1, 184061, Note_off_c, 0, 42, 59
1, 184072, Poly_aftertouch_c, 0, 63, 127
1, 184082, Note_off_c, 0, 37, 60
1, 184114, Note_off_c, 0, 58, 52
1, 184153, Note_on_c, 0, 54, 86
1, 184278, Note_off_c, 0, 54, 60
1, 184288, Poly_aftertouch_c, 0, 58, 127
1, 184347, Control_c, 0, 64, 94
1, 184350, Note_on_c, 0, 30, 56
1, 184350, Poly_aftertouch_c, 0, 58, 0
1, 184350, Note_on_c, 0, 42, 63
1, 184362, Control_c, 0, 64, 65
1, 184362, Note_off_c, 0, 66, 59
1, 184377, Control_c, 0, 64, 0
1, 184379, Note_on_c, 0, 54, 83
1, 184434, Poly_aftertouch_c, 0, 63, 0
1, 184436, Note_off_c, 0, 30, 62
1, 184436, Control_c, 0, 64, 67
1, 184451, Control_c, 0, 64, 76
1, 184465, Control_c, 0, 64, 87
1, 184467, Note_off_c, 0, 42, 58
1, 184467, Note_off_c, 0, 61, 38
1, 184480, Control_c, 0, 64, 98
1, 184488, Note_on_c, 0, 66, 62
1, 184495, Control_c, 0, 64, 109
1, 184501, Note_off_c, 0, 54, 60
1, 184509, Control_c, 0, 64, 127
1, 184556, Note_on_c, 0, 58, 71
1, 184556, Note_off_c, 0, 66, 61
1, 184620, Note_on_c, 0, 49, 63
1, 184627, Note_on_c, 0, 61, 56
1, 184627, Note_off_c, 0, 58, 57
1, 184653, Note_on_c, 0, 66, 64
1, 184659, Note_off_c, 0, 61, 63
1, 184680, Note_off_c, 0, 66, 67
1, 184730, Note_on_c, 0, 66, 82
1, 184750, Note_on_c, 0, 37, 62
1, 184777, Note_off_c, 0, 66, 62
1, 184895, Note_on_c, 0, 78, 83
1, 185095, Control_c, 0, 64, 89
1, 185105, Note_on_c, 0, 90, 81
1, 185109, Control_c, 0, 64, 69
1, 185117, Note_off_c, 0, 78, 39
1, 185118, Note_on_c, 0, 42, 51
1, 185124, Control_c, 0, 64, 62
1, 185133, Note_off_c, 0, 90, 62
1, 185140, Control_c, 0, 64, 67
1, 185155, Control_c, 0, 64, 70
1, 185155, Note_off_c, 0, 49, 50
1, 185170, Control_c, 0, 64, 75
1, 185185, Control_c, 0, 64, 86
1, 185200, Note_off_c, 0, 37, 36
1, 185200, Control_c, 0, 64, 100
1, 185214, Control_c, 0, 64, 117
1, 185229, Control_c, 0, 64, 127
1, 185537, Note_on_c, 0, 61, 50
1, 185539, Note_on_c, 0, 49, 37
1, 185565, Note_off_c, 0, 42, 32
1, 185688, Control_c, 0, 64, 123
1, 185703, Control_c, 0, 64, 118
1, 185718, Control_c, 0, 64, 115
1, 185732, Control_c, 0, 64, 113
1, 185762, Control_c, 0, 64, 110
1, 185785, Note_on_c, 0, 37, 37
1, 185791, Control_c, 0, 64, 104
1, 185793, Note_on_c, 0, 56, 56
1, 185814, Control_c, 0, 64, 87
1, 185829, Control_c, 0, 64, 73
1, 185844, Control_c, 0, 64, 66
1, 185858, Control_c, 0, 64, 66
1, 185873, Control_c, 0, 64, 68
1, 185888, Control_c, 0, 64, 70
1, 185903, Control_c, 0, 64, 74
1, 185918, Control_c, 0, 64, 80
1, 185933, Control_c, 0, 64, 85
1, 185936, Note_off_c, 0, 49, 0
1, 185948, Control_c, 0, 64, 86
1, 185973, Poly_aftertouch_c, 0, 49, 127
1, 185993, Control_c, 0, 64, 86
1, 185994, Note_off_c, 0, 61, 27
1, 186007, Control_c, 0, 64, 78
1, 186020, Note_on_c, 0, 57, 51
1, 186022, Control_c, 0, 64, 66
1, 186029, Note_on_c, 0, 42, 46
1, 186037, Control_c, 0, 64, 0
1, 186044, Poly_aftertouch_c, 0, 49, 0
1, 186060, Note_off_c, 0, 56, 60
1, 186084, Note_off_c, 0, 37, 34
1, 186096, Control_c, 0, 64, 63
1, 186111, Control_c, 0, 64, 74
1, 186126, Control_c, 0, 64, 80
1, 186141, Control_c, 0, 64, 87
1, 186155, Control_c, 0, 64, 90
1, 186170, Control_c, 0, 64, 92
1, 186185, Control_c, 0, 64, 94
1, 186200, Control_c, 0, 64, 96
1, 186214, Control_c, 0, 64, 98
1, 186223, Note_off_c, 0, 42, 53
1, 186234, Note_off_c, 0, 57, 51
1, 186236, Note_on_c, 0, 61, 59
1, 186244, Control_c, 0, 64, 101
1, 186256, Note_off_c, 0, 61, 62
1, 186270, Note_on_c, 0, 49, 36
1, 186274, Control_c, 0, 64, 103
1, 186303, Control_c, 0, 64, 106
1, 186333, Control_c, 0, 64, 108
1, 186348, Control_c, 0, 64, 111
1, 186362, Control_c, 0, 64, 116
1, 186377, Control_c, 0, 64, 127
1, 186407, Control_c, 0, 64, 119
1, 186419, Note_on_c, 0, 66, 72
1, 186422, Control_c, 0, 64, 102
1, 186428, Note_on_c, 0, 37, 45
1, 186429, Note_on_c, 0, 56, 59
1, 186437, Control_c, 0, 64, 89
1, 186452, Control_c, 0, 64, 81
1, 186467, Control_c, 0, 64, 82
1, 186481, Control_c, 0, 64, 90
1, 186496, Control_c, 0, 64, 99
1, 186511, Control_c, 0, 64, 112
1, 186526, Control_c, 0, 64, 127
1, 186533, Note_off_c, 0, 66, 63
1, 186606, Note_off_c, 0, 49, 19
1, 186636, Note_on_c, 0, 42, 58
1, 186637, Note_on_c, 0, 64, 77
1, 186664, Note_on_c, 0, 57, 47
1, 186702, Note_off_c, 0, 37, 33
1, 186715, Note_off_c, 0, 56, 60
1, 186807, Note_off_c, 0, 64, 64
1, 186813, Note_on_c, 0, 61, 73
1, 186813, Note_off_c, 0, 42, 57
1, 186830, Note_off_c, 0, 57, 60
1, 186840, Note_off_c, 0, 61, 64
1, 186845, Note_on_c, 0, 49, 58
1, 186949, Note_off_c, 0, 49, 51
1, 187004, Note_on_c, 0, 66, 77
1, 187023, Note_on_c, 0, 56, 58
1, 187027, Note_on_c, 0, 37, 44
1, 187200, Control_c, 0, 64, 98
1, 187215, Control_c, 0, 64, 78
1, 187230, Control_c, 0, 64, 0
1, 187275, Note_on_c, 0, 62, 74
1, 187285, Note_on_c, 0, 42, 50
1, 187355, Control_c, 0, 64, 66
1, 187367, Note_off_c, 0, 37, 51
1, 187370, Control_c, 0, 64, 71
1, 187373, Note_off_c, 0, 56, 59
1, 187385, Control_c, 0, 64, 74
1, 187400, Control_c, 0, 64, 77
1, 187415, Control_c, 0, 64, 80
1, 187430, Control_c, 0, 64, 84
1, 187445, Control_c, 0, 64, 86
1, 187459, Control_c, 0, 64, 89
1, 187464, Note_off_c, 0, 66, 38
1, 187474, Control_c, 0, 64, 91
1, 187489, Control_c, 0, 64, 93
1, 187504, Control_c, 0, 64, 94
1, 187510, Note_on_c, 0, 60, 60
1, 187514, Note_on_c, 0, 49, 47
1, 187519, Control_c, 0, 64, 96
1, 187531, Note_off_c, 0, 42, 38
1, 187534, Control_c, 0, 64, 99
1, 187549, Control_c, 0, 64, 102
1, 187579, Control_c, 0, 64, 105
1, 187623, Control_c, 0, 64, 107
1, 187653, Control_c, 0, 64, 110
1, 187668, Control_c, 0, 64, 112
1, 187683, Note_on_c, 0, 56, 60
1, 187683, Control_c, 0, 64, 114
1, 187698, Control_c, 0, 64, 116
1, 187704, Note_on_c, 0, 37, 50
1, 187713, Control_c, 0, 64, 120
1, 187727, Control_c, 0, 64, 127
1, 187772, Control_c, 0, 64, 105
1, 187786, Note_off_c, 0, 62, 50
1, 187787, Control_c, 0, 64, 86
1, 187799, Note_off_c, 0, 49, 25
1, 187801, Control_c, 0, 64, 73
1, 187816, Control_c, 0, 64, 70
1, 187817, Note_off_c, 0, 60, 48
1, 187831, Control_c, 0, 64, 75
1, 187845, Control_c, 0, 64, 84
1, 187860, Control_c, 0, 64, 93
1, 187874, Note_on_c, 0, 42, 54
1, 187875, Control_c, 0, 64, 105
1, 187890, Control_c, 0, 64, 124
1, 187892, Note_on_c, 0, 57, 66
1, 187893, Note_off_c, 0, 56, 63
1, 187905, Control_c, 0, 64, 127
1, 187947, Note_off_c, 0, 37, 36
1, 188083, Note_on_c, 0, 69, 71
1, 188088, Note_off_c, 0, 42, 51
1, 188106, Note_on_c, 0, 49, 51
1, 188109, Note_off_c, 0, 69, 64
1, 188193, Note_off_c, 0, 57, 60
1, 188258, Note_on_c, 0, 54, 67
1, 188261, Note_off_c, 0, 49, 35
1, 188269, Note_on_c, 0, 37, 56
1, 188343, Note_off_c, 0, 54, 60
1, 188431, Control_c, 0, 64, 96
1, 188446, Control_c, 0, 64, 71
1, 188455, Note_on_c, 0, 53, 62
1, 188455, Note_on_c, 0, 61, 78
1, 188461, Control_c, 0, 64, 0
1, 188469, Note_on_c, 0, 44, 46
1, 188536, Control_c, 0, 64, 67
1, 188550, Control_c, 0, 64, 75
1, 188564, Note_off_c, 0, 37, 52
1, 188565, Control_c, 0, 64, 83
1, 188580, Control_c, 0, 64, 92
1, 188595, Control_c, 0, 64, 99
1, 188609, Control_c, 0, 64, 106
1, 188616, Note_off_c, 0, 53, 58
1, 188624, Control_c, 0, 64, 115
1, 188636, Note_off_c, 0, 44, 60
1, 188639, Control_c, 0, 64, 127
1, 188645, Note_on_c, 0, 49, 65
1, 188651, Note_on_c, 0, 56, 69
1, 188676, Note_off_c, 0, 56, 66
1, 188686, Note_off_c, 0, 61, 61
1, 188689, Note_off_c, 0, 49, 62
1, 188825, Note_on_c, 0, 37, 67
1, 188840, Note_on_c, 0, 73, 86
1, 188842, Note_on_c, 0, 61, 81
1, 188914, Note_off_c, 0, 61, 56
1, 189030, Control_c, 0, 64, 87
1, 189045, Control_c, 0, 64, 65
1, 189060, Control_c, 0, 64, 0
1, 189063, Note_on_c, 0, 76, 88
1, 189070, Note_on_c, 0, 64, 77
1, 189071, Note_on_c, 0, 42, 66
1, 189075, Note_off_c, 0, 37, 62
1, 189091, Note_on_c, 0, 69, 56
1, 189096, Note_off_c, 0, 73, 53
1, 189120, Control_c, 0, 64, 64
1, 189127, Note_off_c, 0, 69, 48
1, 189135, Control_c, 0, 64, 73
1, 189150, Control_c, 0, 64, 83
1, 189165, Control_c, 0, 64, 95
1, 189179, Control_c, 0, 64, 107
1, 189194, Control_c, 0, 64, 127
1, 189200, Note_on_c, 0, 69, 29
1, 189248, Note_off_c, 0, 69, 0
1, 189248, Note_on_c, 0, 69, 21
1, 189249, Note_on_c, 0, 54, 69
1, 189249, Note_off_c, 0, 76, 63
1, 189254, Note_on_c, 0, 73, 84
1, 189257, Note_off_c, 0, 64, 62
1, 189276, Note_off_c, 0, 54, 64
1, 189281, Note_off_c, 0, 69, 62
1, 189311, Note_off_c, 0, 42, 60
1, 189316, Note_off_c, 0, 73, 61
1, 189442, Note_on_c, 0, 37, 65
1, 189442, Note_on_c, 0, 78, 87
1, 189446, Note_on_c, 0, 66, 78
1, 189460, Note_on_c, 0, 70, 53
1, 189483, Note_off_c, 0, 70, 59
1, 189557, Note_off_c, 0, 78, 60
1, 189577, Note_off_c, 0, 66, 61
1, 189690, Control_c, 0, 64, 89
1, 189704, Control_c, 0, 64, 68
1, 189719, Control_c, 0, 64, 0
1, 189731, Note_on_c, 0, 74, 83
1, 189735, Note_on_c, 0, 42, 67
1, 189739, Note_on_c, 0, 62, 74
1, 189741, Note_on_c, 0, 69, 65
1, 189768, Note_off_c, 0, 37, 57
1, 189779, Control_c, 0, 64, 71
1, 189793, Control_c, 0, 64, 82
1, 189808, Control_c, 0, 64, 94
1, 189823, Control_c, 0, 64, 108
1, 189838, Control_c, 0, 64, 114
1, 189853, Control_c, 0, 64, 127
1, 189897, Note_off_c, 0, 69, 47
1, 189961, Note_on_c, 0, 54, 42
1, 189978, Note_on_c, 0, 72, 79
1, 189990, Note_off_c, 0, 54, 52
1, 189999, Note_off_c, 0, 42, 58
1, 190151, Note_on_c, 0, 37, 63
1, 190168, Note_on_c, 0, 68, 66
1, 190194, Control_c, 0, 64, 87
1, 190209, Control_c, 0, 64, 65
1, 190224, Control_c, 0, 64, 0
1, 190302, Note_off_c, 0, 72, 45
1, 190327, Note_off_c, 0, 68, 59
1, 190350, Control_c, 0, 64, 69
1, 190365, Control_c, 0, 64, 74
1, 190366, Note_on_c, 0, 69, 65
1, 190370, Note_on_c, 0, 42, 58
1, 190371, Note_off_c, 0, 37, 60
1, 190380, Control_c, 0, 64, 79
1, 190395, Control_c, 0, 64, 85
1, 190410, Control_c, 0, 64, 93
1, 190425, Control_c, 0, 64, 101
1, 190440, Control_c, 0, 64, 110
1, 190454, Control_c, 0, 64, 119
1, 190469, Control_c, 0, 64, 127
1, 190525, Note_off_c, 0, 62, 57
1, 190565, Note_on_c, 0, 54, 56
1, 190578, Note_on_c, 0, 72, 67
1, 190589, Note_off_c, 0, 54, 62
1, 190614, Note_off_c, 0, 74, 55
1, 190616, Note_off_c, 0, 69, 58
1, 190634, Note_off_c, 0, 42, 58
1, 190755, Note_on_c, 0, 74, 31
1, 190775, Note_on_c, 0, 66, 63
1, 190783, Note_on_c, 0, 37, 62
1, 190788, Note_off_c, 0, 72, 54
1, 190789, Note_off_c, 0, 74, 55
1, 190989, Control_c, 0, 64, 100
1, 191003, Control_c, 0, 64, 72
1, 191018, Control_c, 0, 64, 0
1, 191041, Note_on_c, 0, 42, 51
1, 191054, Note_on_c, 0, 60, 66
1, 191054, Note_off_c, 0, 37, 62
1, 191072, Note_off_c, 0, 66, 59
1, 191114, Control_c, 0, 64, 65
1, 191129, Control_c, 0, 64, 76
1, 191135, Note_off_c, 0, 42, 60
1, 191144, Control_c, 0, 64, 85
1, 191159, Control_c, 0, 64, 95
1, 191174, Control_c, 0, 64, 103
1, 191189, Control_c, 0, 64, 108
1, 191203, Control_c, 0, 64, 113
1, 191205, Note_on_c, 0, 62, 60
1, 191208, Note_off_c, 0, 60, 57
1, 191218, Control_c, 0, 64, 127
1, 191269, Note_off_c, 0, 62, 60
1, 191302, Note_on_c, 0, 57, 48
1, 191314, Note_on_c, 0, 69, 56
1, 191328, Note_off_c, 0, 57, 60
1, 191341, Note_off_c, 0, 69, 64
1, 191404, Note_on_c, 0, 72, 75
1, 191445, Note_off_c, 0, 72, 52
1, 191492, Note_on_c, 0, 74, 61
1, 191515, Note_off_c, 0, 74, 61
1, 191561, Note_on_c, 0, 37, 37
1, 191580, Note_on_c, 0, 81, 57
1, 191600, Note_off_c, 0, 81, 65
1, 191669, Note_on_c, 0, 81, 72
1, 191878, Control_c, 0, 64, 107
1, 191893, Control_c, 0, 64, 77
1, 191907, Control_c, 0, 64, 0
1, 191923, Note_off_c, 0, 37, 59
1, 191932, Note_on_c, 0, 42, 41
1, 191935, Note_on_c, 0, 93, 70
1, 191957, Note_off_c, 0, 81, 58
1, 191967, Control_c, 0, 64, 64
1, 191976, Note_off_c, 0, 93, 60
1, 191981, Control_c, 0, 64, 71
1, 191996, Control_c, 0, 64, 81
1, 192008, Note_off_c, 0, 42, 60
1, 192011, Control_c, 0, 64, 93
1, 192026, Control_c, 0, 64, 106
1, 192041, Control_c, 0, 64, 127
1, 192242, Note_on_c, 0, 57, 39
1, 192273, Note_off_c, 0, 57, 54
1, 192523, Note_on_c, 0, 37, 46
1, 192524, Note_on_c, 0, 72, 53
1, 192528, Note_on_c, 0, 60, 52
1, 192610, Note_off_c, 0, 72, 59
1, 192642, Note_off_c, 0, 60, 50
1, 192864, Control_c, 0, 64, 110
1, 192879, Control_c, 0, 64, 79
1, 192881, Note_on_c, 0, 73, 56
1, 192891, Note_on_c, 0, 61, 32
1, 192893, Control_c, 0, 64, 50
1, 192908, Control_c, 0, 64, 0
1, 192911, Note_on_c, 0, 65, 37
1, 192914, Note_off_c, 0, 37, 56
1, 192920, Note_on_c, 0, 44, 33
1, 192953, Control_c, 0, 64, 67
1, 192967, Control_c, 0, 64, 75
1, 192982, Control_c, 0, 64, 84
1, 192997, Control_c, 0, 64, 96
1, 193012, Control_c, 0, 64, 109
1, 193027, Control_c, 0, 64, 122
1, 193041, Control_c, 0, 64, 127
1, 193123, Note_off_c, 0, 61, 41
1, 193125, Note_on_c, 0, 68, 45
1, 193126, Note_on_c, 0, 53, 47
1, 193145, Note_off_c, 0, 65, 47
1, 193154, Note_off_c, 0, 53, 54
1, 193187, Note_off_c, 0, 44, 58
1, 193192, Note_off_c, 0, 73, 33
1, 193333, Note_on_c, 0, 61, 68
1, 193334, Note_on_c, 0, 37, 53
1, 193374, Note_off_c, 0, 68, 60
1, 193638, Note_on_c, 0, 44, 46
1, 193642, Control_c, 0, 64, 111
1, 193657, Control_c, 0, 64, 85
1, 193669, Note_on_c, 0, 73, 76
1, 193671, Control_c, 0, 64, 65
1, 193677, Note_on_c, 0, 64, 54
1, 193679, Note_off_c, 0, 37, 56
1, 193686, Control_c, 0, 64, 0
1, 193775, Control_c, 0, 64, 50
1, 193789, Control_c, 0, 64, 70
1, 193804, Control_c, 0, 64, 75
1, 193819, Control_c, 0, 64, 80
1, 193834, Control_c, 0, 64, 84
1, 193849, Control_c, 0, 64, 86
1, 193863, Control_c, 0, 64, 88
1, 193878, Control_c, 0, 64, 91
1, 193884, Note_off_c, 0, 61, 56
1, 193893, Control_c, 0, 64, 93
1, 193898, Note_on_c, 0, 52, 50
1, 193908, Control_c, 0, 64, 95
1, 193920, Note_on_c, 0, 68, 64
1, 193924, Control_c, 0, 64, 96
1, 193953, Control_c, 0, 64, 98
1, 193955, Note_off_c, 0, 52, 60
1, 193968, Control_c, 0, 64, 100
1, 193998, Control_c, 0, 64, 102
1, 194051, Note_off_c, 0, 64, 39
1, 194111, Note_off_c, 0, 44, 36
1, 194152, Note_on_c, 0, 37, 60
1, 194174, Note_on_c, 0, 61, 65
1, 194232, Note_off_c, 0, 68, 53
1, 194317, Control_c, 0, 64, 99
1, 194332, Control_c, 0, 64, 91
1, 194346, Control_c, 0, 64, 78
1, 194361, Control_c, 0, 64, 61
1, 194376, Control_c, 0, 64, 0
1, 194439, Note_on_c, 0, 40, 72
1, 194461, Note_off_c, 0, 37, 59
1, 194476, Note_off_c, 0, 61, 52
1, 194480, Control_c, 0, 64, 69
1, 194494, Control_c, 0, 64, 74
1, 194509, Control_c, 0, 64, 80
1, 194524, Control_c, 0, 64, 85
1, 194539, Control_c, 0, 64, 88
1, 194554, Control_c, 0, 64, 89
1, 194569, Control_c, 0, 64, 90
1, 194584, Control_c, 0, 64, 91
1, 194599, Control_c, 0, 64, 93
1, 194613, Control_c, 0, 64, 94
1, 194628, Control_c, 0, 64, 96
1, 194661, Note_off_c, 0, 73, 53
1, 194672, Control_c, 0, 64, 98
1, 194702, Control_c, 0, 64, 104
1, 194718, Control_c, 0, 64, 109
1, 194733, Control_c, 0, 64, 117
1, 194736, Note_off_c, 0, 40, 38
1, 194748, Control_c, 0, 64, 127
1, 194773, Note_on_c, 0, 47, 55
1, 194775, Note_on_c, 0, 71, 74
1, 194798, Note_on_c, 0, 62, 60
1, 194799, Control_c, 0, 64, 113
1, 194809, Note_on_c, 0, 68, 53
1, 194814, Control_c, 0, 64, 89
1, 194829, Control_c, 0, 64, 75
1, 194843, Control_c, 0, 64, 71
1, 194858, Control_c, 0, 64, 74
1, 194873, Control_c, 0, 64, 81
1, 194888, Control_c, 0, 64, 87
1, 194903, Control_c, 0, 64, 95
1, 194918, Control_c, 0, 64, 102
1, 194933, Control_c, 0, 64, 112
1, 194938, Note_off_c, 0, 62, 36
1, 194947, Note_off_c, 0, 68, 25
1, 194947, Control_c, 0, 64, 127
1, 195034, Note_off_c, 0, 47, 59
1, 195043, Note_on_c, 0, 73, 85
1, 195049, Note_on_c, 0, 66, 76
1, 195051, Note_on_c, 0, 56, 62
1, 195058, Note_on_c, 0, 62, 65
1, 195074, Note_off_c, 0, 71, 62
1, 195079, Note_off_c, 0, 56, 65
1, 195124, Note_off_c, 0, 62, 53
1, 195150, Note_off_c, 0, 73, 61
1, 195347, Control_c, 0, 64, 103
1, 195362, Control_c, 0, 64, 80
1, 195377, Control_c, 0, 64, 0
1, 195392, Note_off_c, 0, 66, 62
1, 195401, Note_on_c, 0, 71, 62
1, 195402, Note_on_c, 0, 74, 72
1, 195405, Note_on_c, 0, 59, 61
1, 195407, Note_on_c, 0, 62, 60
1, 195407, Note_on_c, 0, 64, 59
1, 195478, Note_off_c, 0, 62, 60
1, 195488, Note_off_c, 0, 64, 61
1, 195495, Control_c, 0, 64, 60
1, 195511, Control_c, 0, 64, 67
1, 195523, Note_off_c, 0, 71, 63
1, 195526, Control_c, 0, 64, 70
1, 195529, Note_off_c, 0, 74, 63
1, 195548, Control_c, 0, 64, 72
1, 195563, Control_c, 0, 64, 76
1, 195578, Control_c, 0, 64, 82
1, 195592, Control_c, 0, 64, 87
1, 195607, Control_c, 0, 64, 90
1, 195622, Control_c, 0, 64, 91
1, 195637, Control_c, 0, 64, 93
1, 195652, Control_c, 0, 64, 94
1, 195666, Control_c, 0, 64, 96
1, 195681, Control_c, 0, 64, 98
1, 195696, Control_c, 0, 64, 101
1, 195711, Control_c, 0, 64, 105
1, 195725, Control_c, 0, 64, 112
1, 195740, Control_c, 0, 64, 122
1, 195755, Control_c, 0, 64, 127
1, 195800, Note_on_c, 0, 80, 67
1, 195800, Note_off_c, 0, 59, 59
1, 195801, Note_on_c, 0, 68, 58
1, 195804, Note_on_c, 0, 76, 58
1, 195942, Note_off_c, 0, 68, 61
1, 195978, Note_off_c, 0, 80, 62
1, 196143, Note_on_c, 0, 74, 55
1, 196151, Note_on_c, 0, 66, 58
1, 196151, Note_on_c, 0, 78, 73
1, 196201, Note_off_c, 0, 76, 56
1, 196249, Note_off_c, 0, 74, 60
1, 196308, Note_off_c, 0, 78, 61
1, 196374, Note_off_c, 0, 66, 62
1, 196585, Note_on_c, 0, 76, 60
1, 196593, Note_on_c, 0, 73, 53
1, 196593, Control_c, 0, 64, 89
1, 196595, Note_on_c, 0, 64, 51
1, 196598, Note_on_c, 0, 45, 37
1, 196604, Note_on_c, 0, 33, 42
1, 196608, Control_c, 0, 64, 65
1, 196623, Control_c, 0, 64, 0
1, 196672, Note_off_c, 0, 33, 61
1, 196682, Control_c, 0, 64, 64
1, 196697, Control_c, 0, 64, 72
1, 196712, Control_c, 0, 64, 79
1, 196725, Note_off_c, 0, 45, 63
1, 196727, Control_c, 0, 64, 88
1, 196741, Control_c, 0, 64, 98
1, 196756, Control_c, 0, 64, 103
1, 196771, Control_c, 0, 64, 107
1, 196786, Control_c, 0, 64, 112
1, 196794, Note_off_c, 0, 64, 37
1, 196801, Control_c, 0, 64, 119
1, 196815, Control_c, 0, 64, 127
1, 196825, Note_off_c, 0, 76, 57
1, 196877, Note_off_c, 0, 73, 22
1, 196887, Note_on_c, 0, 52, 51
1, 197077, Note_off_c, 0, 52, 55
1, 197097, Note_on_c, 0, 75, 63
1, 197103, Note_on_c, 0, 72, 51
1, 197112, Note_on_c, 0, 63, 43
1, 197118, Note_on_c, 0, 54, 46
1, 197168, Note_off_c, 0, 72, 50
1, 197213, Note_off_c, 0, 75, 62
1, 197252, Note_off_c, 0, 63, 60
1, 197297, Control_c, 0, 64, 106
1, 197312, Note_off_c, 0, 54, 55
1, 197312, Control_c, 0, 64, 81
1, 197327, Control_c, 0, 64, 0
1, 197331, Note_on_c, 0, 74, 51
1, 197333, Note_on_c, 0, 56, 44
1, 197338, Note_on_c, 0, 71, 59
1, 197347, Note_on_c, 0, 62, 36
1, 197386, Control_c, 0, 64, 65
1, 197401, Control_c, 0, 64, 72
1, 197416, Control_c, 0, 64, 82
1, 197431, Control_c, 0, 64, 91
1, 197445, Control_c, 0, 64, 98
1, 197460, Control_c, 0, 64, 102
1, 197475, Control_c, 0, 64, 104
1, 197483, Note_off_c, 0, 56, 59
1, 197486, Note_off_c, 0, 74, 59
1, 197490, Control_c, 0, 64, 108
1, 197493, Note_off_c, 0, 62, 38
1, 197505, Control_c, 0, 64, 113
1, 197511, Note_on_c, 0, 52, 57
1, 197520, Control_c, 0, 64, 120
1, 197535, Control_c, 0, 64, 127
1, 197681, Note_on_c, 0, 62, 56
1, 197683, Note_off_c, 0, 52, 58
1, 197685, Note_off_c, 0, 71, 43
1, 197697, Note_on_c, 0, 72, 76
1, 197701, Note_on_c, 0, 68, 63
1, 197752, Note_off_c, 0, 68, 61
1, 197756, Note_off_c, 0, 62, 61
1, 197853, Control_c, 0, 64, 91
1, 197868, Control_c, 0, 64, 70
1, 197883, Control_c, 0, 64, 0
1, 197907, Note_on_c, 0, 73, 74
1, 197919, Note_on_c, 0, 69, 58
1, 197922, Note_on_c, 0, 61, 50
1, 197923, Note_on_c, 0, 45, 45
1, 197940, Note_off_c, 0, 72, 49
1, 197943, Control_c, 0, 64, 65
1, 197958, Control_c, 0, 64, 72
1, 197973, Control_c, 0, 64, 79
1, 197987, Control_c, 0, 64, 87
1, 198002, Control_c, 0, 64, 94
1, 198017, Control_c, 0, 64, 99
1, 198021, Note_off_c, 0, 61, 59
1, 198023, Note_off_c, 0, 73, 60
1, 198032, Control_c, 0, 64, 105
1, 198047, Control_c, 0, 64, 112
1, 198061, Control_c, 0, 64, 127
1, 198071, Note_off_c, 0, 45, 59
1, 198098, Note_on_c, 0, 52, 64
1, 198269, Note_on_c, 0, 76, 79
1, 198270, Note_on_c, 0, 64, 63
1, 198274, Note_on_c, 0, 73, 69
1, 198280, Note_off_c, 0, 52, 58
1, 198283, Note_on_c, 0, 45, 65
1, 198295, Note_off_c, 0, 69, 60
1, 198299, Note_off_c, 0, 64, 66
1, 198306, Note_off_c, 0, 73, 63
1, 198322, Note_off_c, 0, 76, 62
1, 198476, Control_c, 0, 64, 108
1, 198491, Control_c, 0, 64, 84
1, 198498, Note_on_c, 0, 81, 68
1, 198505, Control_c, 0, 64, 67
1, 198515, Note_on_c, 0, 69, 40
1, 198520, Control_c, 0, 64, 0
1, 198527, Note_on_c, 0, 73, 48
1, 198530, Note_on_c, 0, 52, 40
1, 198581, Note_off_c, 0, 45, 58
1, 198617, Control_c, 0, 64, 68
1, 198632, Control_c, 0, 64, 75
1, 198646, Control_c, 0, 64, 83
1, 198652, Note_off_c, 0, 52, 58
1, 198658, Note_off_c, 0, 81, 60
1, 198661, Control_c, 0, 64, 91
1, 198671, Note_off_c, 0, 69, 57
1, 198676, Control_c, 0, 64, 98
1, 198691, Control_c, 0, 64, 105
1, 198703, Note_on_c, 0, 57, 44
1, 198706, Control_c, 0, 64, 117
1, 198721, Control_c, 0, 64, 127
1, 198809, Note_off_c, 0, 73, 56
1, 198885, Note_off_c, 0, 57, 57
1, 198902, Note_on_c, 0, 61, 44
1, 198906, Note_on_c, 0, 80, 64
1, 198912, Note_on_c, 0, 68, 50
1, 198912, Note_on_c, 0, 76, 41
1, 198930, Note_off_c, 0, 61, 54
1, 198984, Note_off_c, 0, 68, 61
1, 198996, Note_off_c, 0, 80, 62
1, 199091, Control_c, 0, 64, 97
1, 199098, Note_on_c, 0, 45, 48
1, 199102, Note_on_c, 0, 78, 64
1, 199106, Control_c, 0, 64, 74
1, 199112, Note_on_c, 0, 74, 48
1, 199112, Note_on_c, 0, 66, 58
1, 199112, Note_off_c, 0, 76, 57
1, 199121, Control_c, 0, 64, 23
1, 199136, Control_c, 0, 64, 54
1, 199151, Control_c, 0, 64, 65
1, 199154, Note_off_c, 0, 74, 62
1, 199165, Control_c, 0, 64, 69
1, 199180, Control_c, 0, 64, 74
1, 199194, Note_off_c, 0, 78, 62
1, 199195, Control_c, 0, 64, 83
1, 199200, Note_off_c, 0, 66, 63
1, 199210, Control_c, 0, 64, 92
1, 199225, Control_c, 0, 64, 98
1, 199240, Control_c, 0, 64, 101
1, 199245, Note_off_c, 0, 45, 51
1, 199254, Control_c, 0, 64, 104
1, 199269, Note_on_c, 0, 76, 62
1, 199269, Control_c, 0, 64, 108
1, 199270, Note_on_c, 0, 52, 50
1, 199290, Note_on_c, 0, 64, 51
1, 199291, Control_c, 0, 64, 113
1, 199294, Note_on_c, 0, 73, 37
1, 199306, Control_c, 0, 64, 127
1, 199329, Note_off_c, 0, 73, 50
1, 199336, Note_off_c, 0, 64, 61
1, 199362, Note_off_c, 0, 76, 52
1, 199412, Note_off_c, 0, 52, 48
1, 199452, Note_on_c, 0, 45, 45
1, 199452, Note_on_c, 0, 62, 54
1, 199458, Note_on_c, 0, 74, 60
1, 199464, Note_on_c, 0, 71, 53
1, 199475, Note_off_c, 0, 62, 60
1, 199496, Note_off_c, 0, 71, 65
1, 199511, Note_off_c, 0, 74, 62
1, 199645, Note_off_c, 0, 45, 54
1, 199648, Control_c, 0, 64, 86
1, 199651, Note_on_c, 0, 78, 66
1, 199659, Note_on_c, 0, 52, 55
1, 199663, Control_c, 0, 64, 66
1, 199666, Note_on_c, 0, 66, 49
1, 199668, Note_on_c, 0, 74, 38
1, 199678, Control_c, 0, 64, 0
1, 199722, Control_c, 0, 64, 38
1, 199737, Control_c, 0, 64, 70
1, 199749, Note_off_c, 0, 78, 59
1, 199752, Control_c, 0, 64, 77
1, 199766, Control_c, 0, 64, 84
1, 199780, Note_off_c, 0, 74, 60
1, 199781, Control_c, 0, 64, 90
1, 199796, Control_c, 0, 64, 94
1, 199811, Control_c, 0, 64, 97
1, 199826, Control_c, 0, 64, 101
1, 199840, Control_c, 0, 64, 105
1, 199842, Note_off_c, 0, 52, 57
1, 199855, Note_on_c, 0, 56, 45
1, 199855, Control_c, 0, 64, 107
1, 199884, Control_c, 0, 64, 109
1, 199914, Control_c, 0, 64, 111
1, 199952, Note_off_c, 0, 66, 40
1, 199964, Note_off_c, 0, 56, 50
1, 200003, Control_c, 0, 64, 113
1, 200015, Note_on_c, 0, 62, 53
1, 200052, Note_on_c, 0, 71, 59
1, 200054, Note_on_c, 0, 68, 51
1, 200083, Note_off_c, 0, 62, 59
1, 200216, Note_off_c, 0, 71, 63
1, 200247, Control_c, 0, 64, 108
1, 200253, Note_on_c, 0, 69, 50
1, 200255, Note_on_c, 0, 73, 57
1, 200259, Note_on_c, 0, 45, 49
1, 200262, Control_c, 0, 64, 91
1, 200267, Note_on_c, 0, 61, 47
1, 200277, Control_c, 0, 64, 74
1, 200281, Note_off_c, 0, 68, 36
1, 200292, Control_c, 0, 64, 0
1, 200322, Control_c, 0, 64, 62
1, 200337, Control_c, 0, 64, 65
1, 200352, Control_c, 0, 64, 69
1, 200362, Note_off_c, 0, 73, 59
1, 200363, Note_off_c, 0, 61, 59
1, 200367, Control_c, 0, 64, 75
1, 200382, Control_c, 0, 64, 83
1, 200391, Note_off_c, 0, 69, 59
1, 200397, Control_c, 0, 64, 92
1, 200411, Control_c, 0, 64, 99
1, 200426, Control_c, 0, 64, 102
1, 200441, Control_c, 0, 64, 105
1, 200443, Note_on_c, 0, 52, 58
1, 200456, Control_c, 0, 64, 107
1, 200459, Note_off_c, 0, 45, 34
1, 200501, Control_c, 0, 64, 109
1, 200626, Note_on_c, 0, 45, 64
1, 200633, Note_off_c, 0, 52, 59
1, 200848, Control_c, 0, 64, 107
1, 200900, Note_on_c, 0, 52, 44
1, 200908, Note_on_c, 0, 76, 75
1, 200908, Control_c, 0, 64, 90
1, 200909, Note_on_c, 0, 73, 63
1, 200914, Note_on_c, 0, 64, 61
1, 200923, Control_c, 0, 64, 73
1, 200938, Control_c, 0, 64, 0
1, 201010, Note_off_c, 0, 45, 58
1, 201027, Control_c, 0, 64, 66
1, 201041, Control_c, 0, 64, 71
1, 201056, Control_c, 0, 64, 72
1, 201071, Control_c, 0, 64, 74
1, 201076, Note_off_c, 0, 52, 59
1, 201086, Control_c, 0, 64, 75
1, 201101, Control_c, 0, 64, 78
1, 201109, Note_on_c, 0, 57, 51
1, 201117, Control_c, 0, 64, 81
1, 201131, Control_c, 0, 64, 84
1, 201146, Control_c, 0, 64, 86
1, 201161, Control_c, 0, 64, 88
1, 201176, Control_c, 0, 64, 89
1, 201191, Control_c, 0, 64, 90
1, 201205, Control_c, 0, 64, 91
1, 201220, Control_c, 0, 64, 92
1, 201235, Control_c, 0, 64, 94
1, 201250, Control_c, 0, 64, 95
1, 201294, Note_on_c, 0, 61, 60
1, 201302, Note_off_c, 0, 57, 37
1, 201309, Control_c, 0, 64, 98
1, 201321, Note_off_c, 0, 61, 63
1, 201338, Control_c, 0, 64, 100
1, 201368, Control_c, 0, 64, 102
1, 201375, Note_off_c, 0, 76, 59
1, 201413, Control_c, 0, 64, 105
1, 201428, Control_c, 0, 64, 107
1, 201446, Note_off_c, 0, 64, 60
1, 201472, Control_c, 0, 64, 105
1, 201479, Note_on_c, 0, 45, 59
1, 201487, Control_c, 0, 64, 92
1, 201502, Control_c, 0, 64, 76
1, 201517, Control_c, 0, 64, 62
1, 201538, Control_c, 0, 64, 0
1, 201568, Control_c, 0, 64, 64
1, 201583, Control_c, 0, 64, 67
1, 201598, Control_c, 0, 64, 71
1, 201612, Control_c, 0, 64, 75
1, 201627, Control_c, 0, 64, 80
1, 201642, Control_c, 0, 64, 84
1, 201656, Control_c, 0, 64, 85
1, 201671, Control_c, 0, 64, 86
1, 201681, Note_off_c, 0, 45, 56
1, 201684, Note_on_c, 0, 52, 60
1, 201686, Control_c, 0, 64, 86
1, 201701, Control_c, 0, 64, 87
1, 201716, Control_c, 0, 64, 87
1, 201730, Control_c, 0, 64, 88
1, 201745, Control_c, 0, 64, 89
1, 201760, Control_c, 0, 64, 90
1, 201775, Control_c, 0, 64, 90
1, 201804, Control_c, 0, 64, 91
1, 201819, Control_c, 0, 64, 91
1, 201834, Control_c, 0, 64, 93
1, 201849, Control_c, 0, 64, 94
1, 201863, Control_c, 0, 64, 95
1, 201878, Control_c, 0, 64, 94
1, 201893, Control_c, 0, 64, 88
1, 201903, Note_off_c, 0, 52, 40
1, 201907, Note_on_c, 0, 45, 42
1, 201909, Control_c, 0, 64, 78
1, 201922, Note_on_c, 0, 75, 52
1, 201923, Note_on_c, 0, 63, 47
1, 201924, Control_c, 0, 64, 67
1, 201927, Note_on_c, 0, 72, 47
1, 201939, Control_c, 0, 64, 0
1, 202013, Control_c, 0, 64, 64
1, 202027, Control_c, 0, 64, 69
1, 202042, Control_c, 0, 64, 74
1, 202057, Control_c, 0, 64, 80
1, 202072, Control_c, 0, 64, 84
1, 202087, Control_c, 0, 64, 86
1, 202090, Note_off_c, 0, 45, 60
1, 202102, Control_c, 0, 64, 89
1, 202108, Note_off_c, 0, 72, 33
1, 202115, Note_off_c, 0, 75, 61
1, 202117, Control_c, 0, 64, 92
1, 202128, Note_on_c, 0, 52, 51
1, 202131, Control_c, 0, 64, 96
1, 202146, Control_c, 0, 64, 99
1, 202157, Note_off_c, 0, 73, 15
1, 202161, Control_c, 0, 64, 101
1, 202162, Note_off_c, 0, 63, 62
1, 202191, Control_c, 0, 64, 104
1, 202220, Control_c, 0, 64, 106
1, 202286, Control_c, 0, 64, 108
1, 202294, Note_off_c, 0, 52, 39
1, 202304, Note_on_c, 0, 74, 64
1, 202309, Note_on_c, 0, 62, 54
1, 202316, Note_on_c, 0, 71, 55
1, 202325, Note_on_c, 0, 56, 36
1, 202347, Note_off_c, 0, 62, 56
1, 202360, Control_c, 0, 64, 110
1, 202390, Control_c, 0, 64, 113
1, 202404, Control_c, 0, 64, 115
1, 202427, Note_off_c, 0, 74, 61
1, 202444, Note_off_c, 0, 56, 30
1, 202449, Control_c, 0, 64, 117
1, 202478, Control_c, 0, 64, 119
1, 202480, Note_on_c, 0, 62, 50
1, 202485, Note_on_c, 0, 68, 57
1, 202493, Control_c, 0, 64, 123
1, 202494, Note_on_c, 0, 72, 75
1, 202508, Control_c, 0, 64, 127
1, 202522, Note_off_c, 0, 62, 63
1, 202525, Note_off_c, 0, 71, 54
1, 202549, Note_off_c, 0, 68, 61
1, 202626, Control_c, 0, 64, 89
1, 202641, Control_c, 0, 64, 65
1, 202656, Control_c, 0, 64, 0
1, 202682, Note_on_c, 0, 73, 72
1, 202686, Control_c, 0, 64, 59
1, 202689, Note_on_c, 0, 45, 54
1, 202695, Note_on_c, 0, 69, 58
1, 202697, Note_on_c, 0, 61, 49
1, 202701, Control_c, 0, 64, 67
1, 202702, Note_off_c, 0, 72, 50
1, 202716, Control_c, 0, 64, 72
1, 202731, Control_c, 0, 64, 81
1, 202746, Control_c, 0, 64, 90
1, 202758, Note_off_c, 0, 73, 62
1, 202761, Control_c, 0, 64, 97
1, 202763, Note_off_c, 0, 61, 61
1, 202775, Control_c, 0, 64, 101
1, 202790, Control_c, 0, 64, 106
1, 202805, Control_c, 0, 64, 113
1, 202820, Control_c, 0, 64, 120
1, 202835, Control_c, 0, 64, 127
1, 202850, Note_off_c, 0, 45, 54
1, 202860, Note_on_c, 0, 76, 81
1, 202868, Note_on_c, 0, 52, 64
1, 202868, Note_on_c, 0, 64, 52
1, 202871, Note_on_c, 0, 73, 62
1, 202892, Note_off_c, 0, 64, 60
1, 202892, Note_off_c, 0, 69, 61
1, 202900, Note_off_c, 0, 73, 64
1, 202912, Note_off_c, 0, 76, 61
1, 203053, Note_on_c, 0, 81, 91
1, 203054, Note_on_c, 0, 45, 65
1, 203061, Note_off_c, 0, 52, 59
1, 203067, Note_on_c, 0, 69, 66
1, 203079, Note_on_c, 0, 73, 56
1, 203104, Note_off_c, 0, 73, 59
1, 203125, Note_off_c, 0, 69, 54
1, 203137, Note_off_c, 0, 81, 52
1, 203272, Control_c, 0, 64, 117
1, 203287, Control_c, 0, 64, 83
1, 203291, Note_on_c, 0, 81, 79
1, 203299, Note_on_c, 0, 69, 60
1, 203300, Note_on_c, 0, 78, 70
1, 203300, Note_on_c, 0, 52, 55
1, 203301, Control_c, 0, 64, 38
1, 203316, Control_c, 0, 64, 0
1, 203390, Control_c, 0, 64, 70
1, 203401, Note_off_c, 0, 45, 56
1, 203405, Control_c, 0, 64, 80
1, 203420, Control_c, 0, 64, 93
1, 203434, Control_c, 0, 64, 106
1, 203449, Control_c, 0, 64, 122
1, 203464, Control_c, 0, 64, 127
1, 203471, Note_off_c, 0, 81, 59
1, 203477, Note_off_c, 0, 52, 60
1, 203513, Note_on_c, 0, 57, 65
1, 203515, Note_off_c, 0, 69, 58
1, 203652, Note_off_c, 0, 57, 61
1, 203704, Note_off_c, 0, 78, 53
1, 203717, Note_on_c, 0, 61, 64
1, 203741, Note_on_c, 0, 80, 73
1, 203744, Note_off_c, 0, 61, 65
1, 203750, Note_on_c, 0, 76, 52
1, 203753, Note_on_c, 0, 68, 58
1, 203918, Note_off_c, 0, 68, 60
1, 203936, Note_off_c, 0, 76, 44
1, 203939, Note_off_c, 0, 80, 58
1, 204035, Control_c, 0, 64, 100
1, 204043, Note_on_c, 0, 80, 66
1, 204045, Note_on_c, 0, 68, 60
1, 204049, Note_on_c, 0, 40, 49
1, 204049, Control_c, 0, 64, 74
1, 204051, Note_on_c, 0, 76, 42
1, 204064, Control_c, 0, 64, 0
1, 204123, Control_c, 0, 64, 65
1, 204138, Control_c, 0, 64, 74
1, 204153, Control_c, 0, 64, 83
1, 204156, Note_off_c, 0, 68, 62
1, 204168, Control_c, 0, 64, 93
1, 204182, Control_c, 0, 64, 101
1, 204191, Note_off_c, 0, 80, 62
1, 204197, Control_c, 0, 64, 104
1, 204212, Control_c, 0, 64, 109
1, 204227, Control_c, 0, 64, 117
1, 204242, Control_c, 0, 64, 127
1, 204249, Note_off_c, 0, 40, 58
1, 204276, Note_on_c, 0, 78, 67
1, 204283, Note_on_c, 0, 47, 47
1, 204293, Note_on_c, 0, 74, 46
1, 204303, Note_off_c, 0, 76, 57
1, 204310, Note_on_c, 0, 66, 50
1, 204328, Note_off_c, 0, 74, 63
1, 204339, Note_off_c, 0, 47, 58
1, 204354, Note_off_c, 0, 78, 63
1, 204364, Note_off_c, 0, 66, 61
1, 204454, Note_on_c, 0, 56, 49
1, 204455, Note_on_c, 0, 76, 55
1, 204456, Note_on_c, 0, 64, 63
1, 204467, Note_on_c, 0, 73, 58
1, 204483, Note_off_c, 0, 64, 66
1, 204490, Note_off_c, 0, 76, 60
1, 204502, Note_off_c, 0, 56, 60
1, 204505, Note_off_c, 0, 73, 60
1, 204621, Control_c, 0, 64, 87
1, 204636, Control_c, 0, 64, 67
1, 204644, Note_on_c, 0, 78, 71
1, 204651, Control_c, 0, 64, 0
1, 204658, Note_on_c, 0, 66, 56
1, 204667, Note_on_c, 0, 74, 52
1, 204680, Control_c, 0, 64, 34
1, 204695, Control_c, 0, 64, 67
1, 204698, Note_on_c, 0, 52, 37
1, 204710, Control_c, 0, 64, 74
1, 204725, Control_c, 0, 64, 84
1, 204735, Note_off_c, 0, 78, 59
1, 204739, Poly_aftertouch_c, 0, 53, 0
1, 204740, Control_c, 0, 64, 97
1, 204755, Control_c, 0, 64, 113
1, 204770, Control_c, 0, 64, 127
1, 204774, Poly_aftertouch_c, 0, 53, 0
1, 204775, Note_off_c, 0, 74, 60
1, 204858, Note_on_c, 0, 56, 47
1, 204932, Note_off_c, 0, 66, 35
1, 204936, Note_off_c, 0, 52, 23
1, 204987, Note_off_c, 0, 56, 60
1, 205005, Note_on_c, 0, 71, 67
1, 205020, Note_on_c, 0, 68, 56
1, 205033, Note_on_c, 0, 62, 57
1, 205067, Note_off_c, 0, 62, 63
1, 205185, Control_c, 0, 64, 119
1, 205200, Control_c, 0, 64, 85
1, 205215, Control_c, 0, 64, 65
1, 205222, Note_off_c, 0, 71, 62
1, 205229, Note_on_c, 0, 69, 58
1, 205229, Control_c, 0, 64, 0
1, 205234, Note_on_c, 0, 73, 70
1, 205242, Note_on_c, 0, 61, 58
1, 205251, Note_on_c, 0, 45, 56
1, 205276, Note_off_c, 0, 68, 51
1, 205282, Control_c, 0, 64, 65
1, 205297, Control_c, 0, 64, 72
1, 205311, Control_c, 0, 64, 81
1, 205326, Control_c, 0, 64, 92
1, 205341, Control_c, 0, 64, 104
1, 205354, Note_off_c, 0, 73, 60
1, 205356, Control_c, 0, 64, 116
1, 205365, Note_off_c, 0, 61, 59
1, 205371, Control_c, 0, 64, 127
1, 205400, Note_off_c, 0, 69, 57
1, 205428, Note_off_c, 0, 45, 61
1, 205434, Note_on_c, 0, 52, 78
1, 205616, Note_on_c, 0, 45, 79
1, 205625, Note_off_c, 0, 52, 60
1, 205800, Control_c, 0, 64, 95
1, 205815, Control_c, 0, 64, 71
1, 205829, Control_c, 0, 64, 0
1, 205832, Note_on_c, 0, 73, 86
1, 205838, Note_on_c, 0, 61, 73
1, 205838, Note_on_c, 0, 64, 74
1, 205841, Note_on_c, 0, 52, 67
1, 205889, Control_c, 0, 64, 64
1, 205905, Control_c, 0, 64, 75
1, 205919, Control_c, 0, 64, 85
1, 205934, Control_c, 0, 64, 103
1, 205944, Note_off_c, 0, 45, 60
1, 205947, Note_off_c, 0, 61, 59
1, 205949, Control_c, 0, 64, 127
1, 206012, Note_off_c, 0, 52, 61
1, 206048, Note_on_c, 0, 55, 74
1, 206162, Note_off_c, 0, 55, 59
1, 206221, Note_on_c, 0, 61, 80
1, 206251, Note_off_c, 0, 61, 65
1, 206460, Control_c, 0, 64, 111
1, 206475, Control_c, 0, 64, 80
1, 206478, Note_on_c, 0, 32, 81
1, 206490, Control_c, 0, 64, 0
1, 206549, Control_c, 0, 64, 69
1, 206564, Control_c, 0, 64, 81
1, 206570, Note_off_c, 0, 64, 62
1, 206578, Control_c, 0, 64, 98
1, 206593, Control_c, 0, 64, 127
1, 206665, Note_off_c, 0, 73, 62
1, 206699, Note_on_c, 0, 44, 70
1, 206701, Note_on_c, 0, 72, 78
1, 206705, Note_on_c, 0, 60, 72
1, 206707, Note_off_c, 0, 32, 63
1, 206710, Note_on_c, 0, 63, 72
1, 206733, Note_off_c, 0, 44, 63
1, 206740, Note_off_c, 0, 60, 58
1, 206764, Note_off_c, 0, 63, 59
1, 206788, Note_off_c, 0, 72, 61
1, 206819, Poly_aftertouch_c, 0, 71, 0
1, 206933, Note_on_c, 0, 54, 62
1, 206936, Note_on_c, 0, 76, 86
1, 206942, Note_on_c, 0, 64, 70
1, 206946, Note_on_c, 0, 68, 72
1, 207090, Control_c, 0, 64, 102
1, 207105, Control_c, 0, 64, 75
1, 207120, Control_c, 0, 64, 0
1, 207127, Note_on_c, 0, 56, 78
1, 207167, Note_off_c, 0, 54, 59
1, 207179, Control_c, 0, 64, 67
1, 207193, Control_c, 0, 64, 77
1, 207204, Note_off_c, 0, 64, 60
1, 207208, Control_c, 0, 64, 86
1, 207223, Control_c, 0, 64, 99
1, 207238, Control_c, 0, 64, 112
1, 207243, Note_off_c, 0, 76, 61
1, 207253, Control_c, 0, 64, 127
1, 207309, Note_on_c, 0, 60, 83
1, 207312, Note_off_c, 0, 56, 63
1, 207333, Note_off_c, 0, 68, 62
1, 207340, Note_off_c, 0, 60, 61
1, 207376, Poly_aftertouch_c, 0, 67, 0
1, 207504, Note_on_c, 0, 44, 60
1, 207505, Note_on_c, 0, 75, 83
1, 207510, Note_on_c, 0, 63, 73
1, 207527, Note_on_c, 0, 66, 62
1, 207590, Note_off_c, 0, 44, 53
1, 207604, Note_off_c, 0, 66, 62
1, 207611, Note_off_c, 0, 75, 63
1, 207670, Note_off_c, 0, 63, 60
1, 207773, Note_on_c, 0, 37, 62
1, 207780, Control_c, 0, 64, 114
1, 207786, Note_on_c, 0, 73, 79
1, 207794, Note_on_c, 0, 64, 62
1, 207795, Control_c, 0, 64, 82
1, 207797, Note_on_c, 0, 61, 69
1, 207810, Control_c, 0, 64, 61
1, 207824, Control_c, 0, 64, 0
1, 207869, Control_c, 0, 64, 68
1, 207884, Control_c, 0, 64, 75
1, 207898, Control_c, 0, 64, 84
1, 207913, Control_c, 0, 64, 93
1, 207920, Note_off_c, 0, 61, 60
1, 207928, Control_c, 0, 64, 100
1, 207934, Note_off_c, 0, 64, 62
1, 207942, Control_c, 0, 64, 106
1, 207957, Control_c, 0, 64, 119
1, 207958, Note_off_c, 0, 73, 60
1, 207972, Control_c, 0, 64, 127
1, 208027, Note_on_c, 0, 44, 71
1, 208033, Note_off_c, 0, 37, 60
1, 208039, Note_on_c, 0, 63, 81
1, 208039, Note_on_c, 0, 75, 82
1, 208113, Poly_aftertouch_c, 0, 66, 127
1, 208145, Poly_aftertouch_c, 0, 66, 0
1, 208153, Note_off_c, 0, 63, 59
1, 208163, Note_off_c, 0, 75, 61
1, 208215, Note_on_c, 0, 56, 74
1, 208224, Note_on_c, 0, 64, 84
1, 208224, Note_on_c, 0, 76, 88
1, 208239, Note_off_c, 0, 56, 67
1, 208284, Note_off_c, 0, 44, 61
1, 208327, Note_on_c, 0, 56, 13
1, 208344, Note_off_c, 0, 64, 59
1, 208363, Note_off_c, 0, 56, 54
1, 208387, Note_off_c, 0, 76, 57
1, 208440, Control_c, 0, 64, 80
1, 208441, Note_on_c, 0, 76, 79
1, 208448, Note_on_c, 0, 36, 68
1, 208450, Note_on_c, 0, 64, 72
1, 208454, Control_c, 0, 64, 0
1, 208467, Note_on_c, 0, 70, 48
1, 208543, Control_c, 0, 64, 71
1, 208558, Control_c, 0, 64, 78
1, 208573, Control_c, 0, 64, 86
1, 208588, Control_c, 0, 64, 93
1, 208603, Control_c, 0, 64, 99
1, 208618, Control_c, 0, 64, 106
1, 208628, Note_off_c, 0, 36, 55
1, 208633, Control_c, 0, 64, 115
1, 208647, Control_c, 0, 64, 127
1, 208655, Note_off_c, 0, 64, 60
1, 208661, Note_on_c, 0, 42, 78
1, 208730, Note_off_c, 0, 70, 57
1, 208859, Note_on_c, 0, 54, 77
1, 208881, Note_off_c, 0, 54, 67
1, 208958, Note_off_c, 0, 42, 39
1, 209031, Poly_aftertouch_c, 0, 54, 0
1, 209144, Control_c, 0, 64, 104
1, 209159, Control_c, 0, 64, 79
1, 209169, Note_on_c, 0, 35, 67
1, 209174, Control_c, 0, 64, 0
1, 209179, Poly_aftertouch_c, 0, 34, 0
1, 209218, Control_c, 0, 64, 54
1, 209233, Control_c, 0, 64, 69
1, 209248, Control_c, 0, 64, 79
1, 209262, Control_c, 0, 64, 92
1, 209277, Note_off_c, 0, 35, 62
1, 209277, Control_c, 0, 64, 113
1, 209292, Control_c, 0, 64, 127
1, 209423, Note_off_c, 0, 76, 39
1, 209467, Note_on_c, 0, 47, 58
1, 209468, Note_on_c, 0, 75, 76
1, 209470, Note_on_c, 0, 63, 68
1, 209557, Note_off_c, 0, 63, 61
1, 209649, Note_off_c, 0, 47, 59
1, 209652, Note_off_c, 0, 75, 58
1, 209667, Note_on_c, 0, 64, 49
1, 209673, Note_on_c, 0, 76, 80
1, 209679, Note_on_c, 0, 54, 56
1, 209713, Note_off_c, 0, 54, 56
1, 209715, Note_off_c, 0, 64, 64
1, 209738, Note_off_c, 0, 76, 61
1, 209848, Control_c, 0, 64, 98
1, 209863, Control_c, 0, 64, 74
1, 209876, Note_on_c, 0, 78, 82
1, 209877, Control_c, 0, 64, 0
1, 209885, Note_on_c, 0, 57, 58
1, 209887, Note_on_c, 0, 66, 74
1, 209887, Note_on_c, 0, 69, 49
1, 209918, Note_off_c, 0, 69, 61
1, 209923, Control_c, 0, 64, 65
1, 209938, Control_c, 0, 64, 71
1, 209949, Note_off_c, 0, 66, 63
1, 209952, Control_c, 0, 64, 81
1, 209967, Control_c, 0, 64, 95
1, 209982, Control_c, 0, 64, 115
1, 209992, Note_off_c, 0, 78, 61
1, 209997, Control_c, 0, 64, 127
1, 210015, Note_off_c, 0, 57, 60
1, 210105, Note_on_c, 0, 68, 76
1, 210105, Note_on_c, 0, 80, 77
1, 210189, Note_off_c, 0, 68, 54
1, 210218, Note_off_c, 0, 80, 62
1, 210336, Note_on_c, 0, 81, 73
1, 210340, Note_on_c, 0, 69, 59
1, 210362, Note_on_c, 0, 47, 43
1, 210394, Note_on_c, 0, 73, 17
1, 210436, Note_off_c, 0, 73, 51
1, 210597, Control_c, 0, 64, 107
1, 210612, Control_c, 0, 64, 81
1, 210613, Note_off_c, 0, 47, 34
1, 210615, Note_on_c, 0, 40, 43
1, 210626, Control_c, 0, 64, 63
1, 210638, Note_off_c, 0, 81, 58
1, 210641, Control_c, 0, 64, 0
1, 210642, Note_on_c, 0, 78, 70
1, 210670, Control_c, 0, 64, 65
1, 210685, Control_c, 0, 64, 70
1, 210688, Note_off_c, 0, 69, 60
1, 210702, Control_c, 0, 64, 78
1, 210716, Control_c, 0, 64, 89
1, 210731, Control_c, 0, 64, 103
1, 210746, Control_c, 0, 64, 115
1, 210761, Control_c, 0, 64, 127
1, 210815, Note_off_c, 0, 40, 39
1, 210940, Note_off_c, 0, 78, 57
1, 210966, Note_on_c, 0, 80, 54
1, 210970, Note_on_c, 0, 68, 49
1, 210986, Note_on_c, 0, 76, 43
1, 211006, Note_on_c, 0, 47, 3
1, 211043, Note_off_c, 0, 47, 32
1, 211089, Note_off_c, 0, 68, 58
1, 211092, Note_off_c, 0, 80, 62
1, 211157, Note_off_c, 0, 76, 35
1, 211192, Note_on_c, 0, 81, 63
1, 211196, Note_on_c, 0, 69, 61
1, 211205, Note_on_c, 0, 59, 31
1, 211215, Note_on_c, 0, 78, 54
1, 211238, Note_off_c, 0, 59, 47
1, 211265, Note_off_c, 0, 69, 60
1, 211268, Note_off_c, 0, 81, 60
1, 211325, Note_off_c, 0, 78, 60
1, 211381, Note_on_c, 0, 42, 48
1, 211390, Control_c, 0, 64, 88
1, 211394, Note_on_c, 0, 80, 63
1, 211396, Note_on_c, 0, 68, 57
1, 211405, Control_c, 0, 64, 67
1, 211411, Note_on_c, 0, 76, 39
1, 211420, Control_c, 0, 64, 0
1, 211462, Note_off_c, 0, 68, 48
1, 211465, Control_c, 0, 64, 66
1, 211480, Control_c, 0, 64, 72
1, 211495, Control_c, 0, 64, 80
1, 211510, Control_c, 0, 64, 91
1, 211524, Control_c, 0, 64, 102
1, 211536, Note_off_c, 0, 80, 57
1, 211539, Control_c, 0, 64, 109
1, 211554, Control_c, 0, 64, 117
1, 211559, Note_off_c, 0, 76, 36
1, 211569, Control_c, 0, 64, 127
1, 211577, Note_off_c, 0, 42, 30
1, 211583, Note_on_c, 0, 78, 67
1, 211584, Note_on_c, 0, 66, 56
1, 211593, Note_on_c, 0, 74, 46
1, 211596, Note_on_c, 0, 50, 44
1, 211636, Note_off_c, 0, 50, 62
1, 211641, Note_off_c, 0, 66, 56
1, 211754, Note_on_c, 0, 57, 52
1, 211766, Note_off_c, 0, 74, 30
1, 211766, Note_on_c, 0, 80, 66
1, 211777, Note_on_c, 0, 76, 53
1, 211793, Note_on_c, 0, 68, 44
1, 211803, Note_off_c, 0, 57, 52
1, 211804, Note_off_c, 0, 78, 26
1, 211807, Note_off_c, 0, 76, 63
1, 211830, Note_off_c, 0, 80, 62
1, 211831, Note_off_c, 0, 68, 64
1, 211939, Control_c, 0, 64, 95
1, 211954, Note_on_c, 0, 44, 43
1, 211954, Control_c, 0, 64, 73
1, 211969, Control_c, 0, 64, 62
1, 211972, Note_on_c, 0, 78, 59
1, 211980, Note_on_c, 0, 74, 52
1, 211982, Note_on_c, 0, 66, 55
1, 211983, Control_c, 0, 64, 64
1, 211998, Control_c, 0, 64, 66
1, 212021, Control_c, 0, 64, 69
1, 212035, Note_off_c, 0, 74, 59
1, 212036, Control_c, 0, 64, 77
1, 212051, Control_c, 0, 64, 89
1, 212055, Note_off_c, 0, 66, 57
1, 212065, Control_c, 0, 64, 103
1, 212070, Note_off_c, 0, 78, 61
1, 212080, Control_c, 0, 64, 113
1, 212081, Note_off_c, 0, 44, 46
1, 212094, Control_c, 0, 64, 118
1, 212109, Control_c, 0, 64, 127
1, 212154, Note_on_c, 0, 76, 65
1, 212156, Note_on_c, 0, 64, 61
1, 212180, Note_on_c, 0, 52, 37
1, 212184, Note_on_c, 0, 73, 37
1, 212191, Note_off_c, 0, 64, 65
1, 212217, Note_off_c, 0, 73, 53
1, 212228, Note_off_c, 0, 76, 59
1, 212281, Note_off_c, 0, 52, 41
1, 212317, Note_on_c, 0, 44, 37
1, 212350, Note_on_c, 0, 75, 61
1, 212353, Note_on_c, 0, 63, 52
1, 212353, Note_on_c, 0, 72, 47
1, 212390, Note_off_c, 0, 44, 61
1, 212427, Note_off_c, 0, 72, 50
1, 212442, Note_off_c, 0, 75, 60
1, 212469, Note_off_c, 0, 63, 61
1, 212547, Note_on_c, 0, 52, 42
1, 212548, Note_on_c, 0, 74, 60
1, 212553, Note_on_c, 0, 62, 47
1, 212559, Note_on_c, 0, 71, 37
1, 212569, Control_c, 0, 64, 110
1, 212584, Control_c, 0, 64, 80
1, 212599, Control_c, 0, 64, 0
1, 212603, Note_off_c, 0, 52, 59
1, 212610, Note_off_c, 0, 62, 61
1, 212639, Note_off_c, 0, 71, 0
1, 212639, Note_on_c, 0, 71, 3
1, 212658, Control_c, 0, 64, 64
1, 212673, Control_c, 0, 64, 73
1, 212687, Control_c, 0, 64, 81
1, 212702, Control_c, 0, 64, 91
1, 212703, Note_off_c, 0, 74, 0
1, 212714, Note_off_c, 0, 71, 41
1, 212717, Control_c, 0, 64, 97
1, 212723, Note_on_c, 0, 74, 28
1, 212728, Note_on_c, 0, 64, 64
1, 212732, Control_c, 0, 64, 101
1, 212746, Control_c, 0, 64, 106
1, 212769, Control_c, 0, 64, 112
1, 212784, Control_c, 0, 64, 121
1, 212799, Control_c, 0, 64, 127
1, 212805, Note_off_c, 0, 74, 0
1, 212805, Note_on_c, 0, 74, 13
1, 212807, Note_off_c, 0, 64, 61
1, 212902, Note_off_c, 0, 74, 39
1, 212910, Note_on_c, 0, 52, 54
1, 212916, Note_on_c, 0, 72, 74
1, 212931, Note_on_c, 0, 68, 53
1, 212945, Note_off_c, 0, 52, 61
1, 212993, Note_off_c, 0, 68, 59
1, 213080, Control_c, 0, 64, 91
1, 213096, Control_c, 0, 64, 66
1, 213110, Control_c, 0, 64, 0
1, 213122, Note_on_c, 0, 73, 75
1, 213133, Note_off_c, 0, 72, 58
1, 213139, Note_on_c, 0, 61, 58
1, 213140, Note_on_c, 0, 45, 37
1, 213152, Note_on_c, 0, 69, 40
1, 213170, Control_c, 0, 64, 69
1, 213185, Control_c, 0, 64, 77
1, 213194, Note_off_c, 0, 61, 55
1, 213200, Control_c, 0, 64, 85
1, 213214, Control_c, 0, 64, 91
1, 213216, Note_off_c, 0, 73, 62
1, 213229, Control_c, 0, 64, 97
1, 213244, Control_c, 0, 64, 105
1, 213259, Control_c, 0, 64, 116
1, 213274, Control_c, 0, 64, 127
1, 213279, Note_off_c, 0, 45, 60
1, 213301, Note_on_c, 0, 52, 54
1, 213364, Note_off_c, 0, 69, 0
1, 213364, Note_on_c, 0, 69, 4
1, 213489, Note_off_c, 0, 52, 57
1, 213489, Note_on_c, 0, 64, 54
1, 213489, Note_on_c, 0, 76, 68
1, 213502, Note_on_c, 0, 45, 47
1, 213502, Note_on_c, 0, 73, 56
1, 213518, Note_off_c, 0, 64, 65
1, 213519, Note_off_c, 0, 69, 36
1, 213539, Note_off_c, 0, 73, 64
1, 213550, Note_off_c, 0, 76, 62
1, 213725, Control_c, 0, 64, 105
1, 213735, Note_on_c, 0, 81, 63
1, 213740, Control_c, 0, 64, 78
1, 213743, Note_on_c, 0, 69, 44
1, 213749, Note_on_c, 0, 52, 45
1, 213754, Note_on_c, 0, 73, 49
1, 213755, Control_c, 0, 64, 0
1, 213811, Note_off_c, 0, 45, 37
1, 213829, Control_c, 0, 64, 68
1, 213843, Control_c, 0, 64, 75
1, 213858, Control_c, 0, 64, 84
1, 213873, Control_c, 0, 64, 93
1, 213881, Note_off_c, 0, 81, 60
1, 213885, Note_off_c, 0, 52, 58
1, 213889, Control_c, 0, 64, 99
1, 213904, Control_c, 0, 64, 103
1, 213912, Note_off_c, 0, 69, 37
1, 213918, Control_c, 0, 64, 108
1, 213930, Note_on_c, 0, 57, 48
1, 213933, Control_c, 0, 64, 112
1, 213948, Control_c, 0, 64, 120
1, 213963, Control_c, 0, 64, 127
1, 214028, Note_off_c, 0, 73, 57
1, 214131, Note_on_c, 0, 61, 45
1, 214134, Note_off_c, 0, 57, 38
1, 214151, Note_on_c, 0, 80, 58
1, 214159, Note_on_c, 0, 76, 42
1, 214168, Note_off_c, 0, 61, 62
1, 214179, Note_on_c, 0, 68, 47
1, 214253, Note_off_c, 0, 68, 59
1, 214273, Note_off_c, 0, 80, 58
1, 214278, Note_off_c, 0, 76, 51
1, 214368, Note_on_c, 0, 76, 30
1, 214369, Note_on_c, 0, 80, 61
1, 214371, Control_c, 0, 64, 93
1, 214373, Note_on_c, 0, 45, 45
1, 214383, Note_on_c, 0, 68, 58
1, 214385, Control_c, 0, 64, 71
1, 214400, Control_c, 0, 64, 0
1, 214444, Note_off_c, 0, 68, 57
1, 214459, Control_c, 0, 64, 65
1, 214465, Note_off_c, 0, 80, 61
1, 214474, Control_c, 0, 64, 70
1, 214489, Control_c, 0, 64, 76
1, 214504, Control_c, 0, 64, 82
1, 214518, Control_c, 0, 64, 88
1, 214533, Control_c, 0, 64, 91
1, 214548, Control_c, 0, 64, 94
1, 214556, Note_off_c, 0, 45, 54
1, 214563, Control_c, 0, 64, 96
1, 214566, Note_on_c, 0, 78, 69
1, 214570, Note_off_c, 0, 76, 55
1, 214578, Control_c, 0, 64, 99
1, 214589, Note_on_c, 0, 52, 45
1, 214589, Note_on_c, 0, 74, 46
1, 214592, Note_on_c, 0, 66, 52
1, 214593, Control_c, 0, 64, 102
1, 214608, Control_c, 0, 64, 105
1, 214623, Control_c, 0, 64, 108
1, 214629, Note_off_c, 0, 74, 62
1, 214663, Note_off_c, 0, 78, 61
1, 214667, Control_c, 0, 64, 110
1, 214670, Note_off_c, 0, 66, 60
1, 214699, Note_off_c, 0, 52, 55
1, 214738, Note_on_c, 0, 45, 31
1, 214751, Note_on_c, 0, 76, 56
1, 214769, Note_on_c, 0, 64, 42
1, 214770, Note_on_c, 0, 73, 48
1, 214798, Note_off_c, 0, 64, 51
1, 214803, Note_off_c, 0, 76, 54
1, 214843, Note_off_c, 0, 73, 53
1, 214846, Control_c, 0, 64, 112
1, 214964, Control_c, 0, 64, 96
1, 214979, Control_c, 0, 64, 76
1, 214983, Note_off_c, 0, 45, 42
1, 214987, Note_on_c, 0, 78, 48
1, 214994, Control_c, 0, 64, 0
1, 215000, Note_on_c, 0, 52, 37
1, 215012, Note_on_c, 0, 74, 45
1, 215024, Note_on_c, 0, 66, 32
1, 215075, Control_c, 0, 64, 67
1, 215091, Control_c, 0, 64, 74
1, 215095, Note_off_c, 0, 78, 57
1, 215106, Control_c, 0, 64, 80
1, 215121, Control_c, 0, 64, 87
1, 215135, Control_c, 0, 64, 92
1, 215149, Note_off_c, 0, 74, 51
1, 215150, Control_c, 0, 64, 95
1, 215165, Control_c, 0, 64, 97
1, 215176, Note_off_c, 0, 52, 55
1, 215180, Control_c, 0, 64, 99
1, 215195, Control_c, 0, 64, 101
1, 215209, Control_c, 0, 64, 103
1, 215224, Control_c, 0, 64, 105
1, 215236, Note_on_c, 0, 56, 30
1, 215283, Control_c, 0, 64, 107
1, 215385, Note_off_c, 0, 56, 41
1, 215387, Control_c, 0, 64, 109
1, 215405, Note_on_c, 0, 62, 52
1, 215412, Note_off_c, 0, 66, 39
1, 215438, Note_on_c, 0, 71, 48
1, 215461, Note_on_c, 0, 68, 38
1, 215476, Control_c, 0, 64, 112
1, 215489, Note_off_c, 0, 62, 56
1, 215596, Note_off_c, 0, 71, 63
1, 215649, Note_off_c, 0, 68, 52
1, 215655, Control_c, 0, 64, 107
1, 215670, Control_c, 0, 64, 90
1, 215673, Note_on_c, 0, 69, 35
1, 215682, Note_on_c, 0, 45, 46
1, 215684, Control_c, 0, 64, 70
1, 215698, Note_on_c, 0, 73, 48
1, 215699, Control_c, 0, 64, 0
1, 215707, Note_on_c, 0, 61, 28
1, 215766, Control_c, 0, 64, 59
1, 215772, Note_off_c, 0, 61, 58
1, 215781, Control_c, 0, 64, 69
1, 215796, Note_off_c, 0, 73, 58
1, 215796, Control_c, 0, 64, 76
1, 215809, Note_off_c, 0, 69, 52
1, 215811, Control_c, 0, 64, 83
1, 215826, Control_c, 0, 64, 89
1, 215840, Control_c, 0, 64, 95
1, 215855, Control_c, 0, 64, 100
1, 215870, Control_c, 0, 64, 105
1, 215884, Control_c, 0, 64, 111
1, 215890, Note_off_c, 0, 45, 50
1, 215899, Control_c, 0, 64, 122
1, 215914, Control_c, 0, 64, 127
1, 215924, Note_on_c, 0, 52, 56
1, 216086, Note_on_c, 0, 64, 62
1, 216096, Note_off_c, 0, 52, 54
1, 216100, Note_on_c, 0, 45, 49
1, 216154, Note_off_c, 0, 64, 60
1, 216177, Note_on_c, 0, 76, 67
1, 216201, Note_on_c, 0, 73, 43
1, 216230, Note_off_c, 0, 73, 61
1, 216243, Note_off_c, 0, 76, 59
1, 216315, Note_on_c, 0, 76, 73
1, 216538, Note_on_c, 0, 52, 45
1, 216587, Control_c, 0, 64, 91
1, 216602, Control_c, 0, 64, 72
1, 216609, Note_on_c, 0, 88, 75
1, 216610, Note_on_c, 0, 85, 62
1, 216617, Control_c, 0, 64, 0
1, 216691, Control_c, 0, 64, 65
1, 216698, Note_off_c, 0, 45, 50
1, 216705, Control_c, 0, 64, 71
1, 216720, Control_c, 0, 64, 76
1, 216735, Control_c, 0, 64, 79
1, 216750, Control_c, 0, 64, 81
1, 216765, Control_c, 0, 64, 84
1, 216780, Control_c, 0, 64, 87
1, 216783, Note_off_c, 0, 52, 59
1, 216794, Control_c, 0, 64, 90
1, 216809, Control_c, 0, 64, 93
1, 216824, Control_c, 0, 64, 96
1, 216839, Control_c, 0, 64, 99
1, 216840, Note_on_c, 0, 57, 43
1, 216854, Control_c, 0, 64, 102
1, 216860, Note_off_c, 0, 88, 62
1, 216869, Control_c, 0, 64, 106
1, 216884, Control_c, 0, 64, 111
1, 216899, Control_c, 0, 64, 122
1, 216913, Control_c, 0, 64, 127
1, 216939, Note_off_c, 0, 76, 55
1, 217007, Note_off_c, 0, 57, 52
1, 217033, Note_on_c, 0, 61, 46
1, 217069, Note_off_c, 0, 61, 62
1, 217265, Note_on_c, 0, 45, 47
1, 217292, Control_c, 0, 64, 90
1, 217307, Control_c, 0, 64, 71
1, 217322, Control_c, 0, 64, 0
1, 217336, Control_c, 0, 64, 57
1, 217351, Control_c, 0, 64, 65
1, 217366, Control_c, 0, 64, 66
1, 217381, Control_c, 0, 64, 69
1, 217396, Control_c, 0, 64, 74
1, 217410, Control_c, 0, 64, 80
1, 217425, Control_c, 0, 64, 87
1, 217440, Control_c, 0, 64, 93
1, 217454, Control_c, 0, 64, 95
1, 217469, Control_c, 0, 64, 98
1, 217482, Note_off_c, 0, 85, 30
1, 217484, Control_c, 0, 64, 102
1, 217491, Note_on_c, 0, 87, 55
1, 217492, Note_on_c, 0, 75, 47
1, 217492, Note_off_c, 0, 45, 38
1, 217493, Note_on_c, 0, 52, 40
1, 217496, Note_on_c, 0, 84, 40
1, 217499, Control_c, 0, 64, 109
1, 217514, Control_c, 0, 64, 119
1, 217528, Control_c, 0, 64, 127
1, 217593, Note_off_c, 0, 84, 53
1, 217650, Note_off_c, 0, 52, 35
1, 217656, Note_off_c, 0, 87, 64
1, 217689, Note_off_c, 0, 75, 61
1, 217694, Note_on_c, 0, 45, 34
1, 217782, Note_on_c, 0, 86, 54
1, 217787, Note_on_c, 0, 74, 48
1, 217813, Note_on_c, 0, 83, 27
1, 217824, Note_off_c, 0, 74, 61
1, 217826, Note_off_c, 0, 86, 60
1, 217848, Note_off_c, 0, 83, 43
1, 217854, Control_c, 0, 64, 113
1, 217869, Control_c, 0, 64, 86
1, 217885, Control_c, 0, 64, 69
1, 217886, Note_on_c, 0, 86, 58
1, 217896, Note_on_c, 0, 74, 52
1, 217899, Note_off_c, 0, 45, 57
1, 217900, Control_c, 0, 64, 0
1, 217945, Control_c, 0, 64, 64
1, 217954, Note_on_c, 0, 52, 4
1, 217958, Poly_aftertouch_c, 0, 83, 127
1, 217959, Control_c, 0, 64, 69
1, 217972, Note_off_c, 0, 74, 58
1, 217974, Control_c, 0, 64, 76
1, 217989, Control_c, 0, 64, 83
1, 217992, Poly_aftertouch_c, 0, 83, 0
1, 218011, Control_c, 0, 64, 90
1, 218026, Control_c, 0, 64, 92
1, 218041, Control_c, 0, 64, 93
1, 218055, Control_c, 0, 64, 96
1, 218070, Control_c, 0, 64, 99
1, 218085, Control_c, 0, 64, 104
1, 218086, Note_off_c, 0, 86, 52
1, 218100, Control_c, 0, 64, 108
1, 218115, Control_c, 0, 64, 111
1, 218130, Control_c, 0, 64, 115
1, 218145, Control_c, 0, 64, 120
1, 218151, Note_off_c, 0, 52, 32
1, 218160, Control_c, 0, 64, 127
1, 218176, Note_on_c, 0, 56, 29
1, 218193, Note_on_c, 0, 85, 47
1, 218206, Note_on_c, 0, 73, 39
1, 218212, Note_on_c, 0, 81, 39
1, 218279, Note_off_c, 0, 81, 52
1, 218305, Note_off_c, 0, 73, 57
1, 218335, Note_off_c, 0, 85, 62
1, 218396, Note_off_c, 0, 56, 31
1, 218435, Note_on_c, 0, 62, 47
1, 218440, Note_on_c, 0, 72, 53
1, 218449, Note_on_c, 0, 84, 59
1, 218467, Note_off_c, 0, 62, 55
1, 218541, Note_off_c, 0, 72, 59
1, 218762, Note_on_c, 0, 45, 41
1, 218783, Note_off_c, 0, 84, 59
1, 218805, Control_c, 0, 64, 85
1, 218811, Note_on_c, 0, 85, 53
1, 218814, Note_on_c, 0, 73, 44
1, 218820, Note_on_c, 0, 81, 19
1, 218820, Control_c, 0, 64, 65
1, 218833, Control_c, 0, 64, 0
1, 218908, Control_c, 0, 64, 65
1, 218921, Note_off_c, 0, 73, 59
1, 218923, Control_c, 0, 64, 70
1, 218938, Control_c, 0, 64, 72
1, 218945, Note_off_c, 0, 85, 51
1, 218953, Control_c, 0, 64, 74
1, 218968, Control_c, 0, 64, 76
1, 218982, Control_c, 0, 64, 79
1, 218997, Control_c, 0, 64, 82
1, 219012, Control_c, 0, 64, 85
1, 219026, Control_c, 0, 64, 87
1, 219041, Control_c, 0, 64, 89
1, 219056, Control_c, 0, 64, 90
1, 219071, Control_c, 0, 64, 92
1, 219075, Note_off_c, 0, 45, 30
1, 219086, Control_c, 0, 64, 96
1, 219100, Control_c, 0, 64, 99
1, 219115, Control_c, 0, 64, 104
1, 219130, Control_c, 0, 64, 109
1, 219145, Control_c, 0, 64, 116
1, 219148, Note_on_c, 0, 52, 36
1, 219152, Note_on_c, 0, 88, 54
1, 219160, Control_c, 0, 64, 127
1, 219193, Note_on_c, 0, 85, 36
1, 219214, Note_off_c, 0, 81, 40
1, 219231, Poly_aftertouch_c, 0, 76, 127
1, 219258, Poly_aftertouch_c, 0, 76, 0
1, 219299, Note_off_c, 0, 88, 59
1, 219437, Note_off_c, 0, 85, 36
1, 219506, Note_on_c, 0, 61, 39
1, 219535, Note_off_c, 0, 52, 32
1, 219590, Note_off_c, 0, 61, 59
1, 219722, Note_on_c, 0, 93, 53
1, 219724, Note_on_c, 0, 81, 31
1, 219724, Note_on_c, 0, 85, 41
1, 219793, Note_off_c, 0, 85, 53
1, 219843, Note_off_c, 0, 81, 39
1, 219857, Note_off_c, 0, 93, 35
1, 220160, Control_c, 0, 64, 123
1, 220175, Control_c, 0, 64, 118
1, 220190, Control_c, 0, 64, 115
1, 220205, Control_c, 0, 64, 111
1, 220208, Note_on_c, 0, 93, 35
1, 220211, Note_on_c, 0, 85, 27
1, 220214, Note_on_c, 0, 81, 22
1, 220220, Control_c, 0, 64, 107
1, 220226, Note_on_c, 0, 73, 28
1, 220228, Note_on_c, 0, 64, 30
1, 220234, Control_c, 0, 64, 103
1, 220256, Control_c, 0, 64, 100
1, 220271, Control_c, 0, 64, 97
1, 220302, Control_c, 0, 64, 95
1, 220312, Note_off_c, 0, 64, 50
1, 220313, Note_off_c, 0, 93, 41
1, 220317, Control_c, 0, 64, 93
1, 220331, Note_off_c, 0, 81, 41
1, 220332, Control_c, 0, 64, 92
1, 220344, Note_off_c, 0, 73, 42
1, 220347, Control_c, 0, 64, 90
1, 220348, Note_off_c, 0, 85, 40
1, 220361, Control_c, 0, 64, 88
1, 220376, Control_c, 0, 64, 88
1, 220539, Control_c, 0, 64, 87
1, 220583, Control_c, 0, 64, 87
1, 220598, Control_c, 0, 64, 86
1, 220628, Control_c, 0, 64, 86
1, 220658, Control_c, 0, 64, 85
1, 220673, Control_c, 0, 64, 85
1, 220702, Control_c, 0, 64, 84
1, 220732, Control_c, 0, 64, 84
1, 220746, Control_c, 0, 64, 83
1, 220761, Control_c, 0, 64, 83
1, 220776, Control_c, 0, 64, 82
1, 220820, Control_c, 0, 64, 82
1, 220850, Control_c, 0, 64, 81
1, 220879, Control_c, 0, 64, 81
1, 220939, Control_c, 0, 64, 80
1, 220983, Control_c, 0, 64, 80
1, 221050, Control_c, 0, 64, 79
1, 221125, Control_c, 0, 64, 79
1, 221184, Control_c, 0, 64, 78
1, 221214, Control_c, 0, 64, 78
1, 221258, Control_c, 0, 64, 77
1, 221288, Control_c, 0, 64, 77
1, 221317, Control_c, 0, 64, 76
1, 221332, Control_c, 0, 64, 76
1, 221362, Control_c, 0, 64, 75
1, 221376, Control_c, 0, 64, 75
1, 221391, Control_c, 0, 64, 74
1, 221406, Control_c, 0, 64, 74
1, 221436, Control_c, 0, 64, 73
1, 221466, Control_c, 0, 64, 73
1, 221480, Control_c, 0, 64, 72
1, 221495, Control_c, 0, 64, 71
1, 221540, Control_c, 0, 64, 71
1, 221569, Control_c, 0, 64, 70
1, 221584, Control_c, 0, 64, 69
1, 221614, Control_c, 0, 64, 69
1, 221658, Control_c, 0, 64, 68
1, 221673, Control_c, 0, 64, 68
1, 221799, Control_c, 0, 64, 67
1, 221814, Control_c, 0, 64, 66
1, 221829, Control_c, 0, 64, 66
1, 221859, Control_c, 0, 64, 66
1, 221963, Control_c, 0, 64, 67
1, 222038, Control_c, 0, 64, 67
1, 222067, Control_c, 0, 64, 68
1, 222318, Control_c, 0, 64, 67
1, 222348, Control_c, 0, 64, 67
1, 222393, Control_c, 0, 64, 67
1, 222408, Control_c, 0, 64, 68
1, 222422, Control_c, 0, 64, 69
1, 222437, Control_c, 0, 64, 70
1, 222452, Control_c, 0, 64, 72
1, 222467, Control_c, 0, 64, 74
1, 222482, Control_c, 0, 64, 77
1, 222486, Note_on_c, 0, 64, 40
1, 222504, Control_c, 0, 64, 78
1, 222519, Control_c, 0, 64, 80
1, 222533, Control_c, 0, 64, 82
1, 222548, Control_c, 0, 64, 86
1, 222560, Note_off_c, 0, 64, 62
1, 222563, Control_c, 0, 64, 89
1, 222577, Control_c, 0, 64, 91
1, 222592, Control_c, 0, 64, 92
1, 222607, Control_c, 0, 64, 93
1, 222622, Control_c, 0, 64, 94
1, 222666, Control_c, 0, 64, 94
1, 222682, Control_c, 0, 64, 95
1, 222712, Control_c, 0, 64, 95
1, 222830, Control_c, 0, 64, 96
1, 222978, Control_c, 0, 64, 98
1, 223031, Note_on_c, 0, 64, 46
1, 223052, Control_c, 0, 64, 96
1, 223096, Control_c, 0, 64, 98
1, 223111, Control_c, 0, 64, 100
1, 223126, Control_c, 0, 64, 102
1, 223141, Control_c, 0, 64, 104
1, 223171, Control_c, 0, 64, 107
1, 223186, Control_c, 0, 64, 110
1, 223200, Control_c, 0, 64, 113
1, 223203, Note_off_c, 0, 64, 62
1, 223215, Control_c, 0, 64, 119
1, 223230, Control_c, 0, 64, 127
1, 223260, Note_on_c, 0, 66, 44
1, 223290, Note_off_c, 0, 66, 57
1, 223351, Note_on_c, 0, 64, 37
1, 223379, Note_off_c, 0, 64, 54
1, 223390, Note_on_c, 0, 66, 51
1, 223412, Note_off_c, 0, 66, 64
1, 223460, Note_on_c, 0, 64, 58
1, 223483, Note_off_c, 0, 64, 64
1, 223499, Note_on_c, 0, 66, 52
1, 223525, Note_off_c, 0, 66, 62
1, 223555, Note_on_c, 0, 64, 65
1, 223588, Note_off_c, 0, 64, 62
1, 223607, Note_on_c, 0, 66, 53
1, 223629, Note_off_c, 0, 66, 63
1, 223658, Note_on_c, 0, 64, 64
1, 223691, Note_off_c, 0, 64, 63
1, 223704, Note_on_c, 0, 66, 60
1, 223726, Note_off_c, 0, 66, 65
1, 223761, Note_on_c, 0, 64, 62
1, 223791, Note_off_c, 0, 64, 62
1, 223801, Note_on_c, 0, 66, 59
1, 223817, Note_off_c, 0, 66, 68
1, 223866, Poly_aftertouch_c, 0, 64, 127
1, 223880, Poly_aftertouch_c, 0, 64, 0
1, 223881, Note_on_c, 0, 66, 69
1, 223910, Note_off_c, 0, 66, 64
1, 223943, Note_on_c, 0, 64, 70
1, 223981, Note_off_c, 0, 64, 61
1, 223984, Note_on_c, 0, 66, 66
1, 224021, Note_off_c, 0, 66, 65
1, 224057, Note_on_c, 0, 64, 64
1, 224074, Note_off_c, 0, 64, 70
1, 224088, Note_on_c, 0, 66, 74
1, 224119, Note_off_c, 0, 66, 63
1, 224137, Note_on_c, 0, 64, 65
1, 224180, Note_off_c, 0, 64, 60
1, 224184, Note_on_c, 0, 66, 66
1, 224214, Note_off_c, 0, 66, 65
1, 224249, Note_on_c, 0, 64, 66
1, 224283, Control_c, 0, 64, 123
1, 224285, Note_off_c, 0, 64, 61
1, 224289, Note_on_c, 0, 66, 61
1, 224298, Control_c, 0, 64, 104
1, 224313, Control_c, 0, 64, 95
1, 224321, Note_off_c, 0, 66, 65
1, 224327, Control_c, 0, 64, 93
1, 224342, Control_c, 0, 64, 92
1, 224355, Poly_aftertouch_c, 0, 64, 127
1, 224364, Poly_aftertouch_c, 0, 64, 0
1, 224372, Control_c, 0, 64, 91
1, 224387, Control_c, 0, 64, 89
1, 224400, Note_on_c, 0, 66, 52
1, 224402, Control_c, 0, 64, 87
1, 224417, Control_c, 0, 64, 85
1, 224422, Note_off_c, 0, 66, 58
1, 224432, Control_c, 0, 64, 83
1, 224444, Note_on_c, 0, 64, 67
1, 224446, Control_c, 0, 64, 82
1, 224461, Control_c, 0, 64, 80
1, 224474, Note_off_c, 0, 64, 65
1, 224476, Control_c, 0, 64, 78
1, 224490, Note_on_c, 0, 66, 61
1, 224491, Control_c, 0, 64, 77
1, 224506, Control_c, 0, 64, 76
1, 224510, Note_off_c, 0, 66, 63
1, 224546, Note_on_c, 0, 64, 61
1, 224562, Note_off_c, 0, 64, 67
1, 224583, Note_on_c, 0, 66, 62
1, 224612, Note_off_c, 0, 66, 67
1, 224633, Note_on_c, 0, 64, 58
1, 224639, Control_c, 0, 64, 76
1, 224677, Note_off_c, 0, 64, 59
1, 224685, Note_on_c, 0, 66, 63
1, 224698, Control_c, 0, 64, 75
1, 224712, Control_c, 0, 64, 74
1, 224714, Note_off_c, 0, 66, 66
1, 224727, Control_c, 0, 64, 73
1, 224737, Note_on_c, 0, 64, 62
1, 224750, Control_c, 0, 64, 72
1, 224765, Control_c, 0, 64, 72
1, 224779, Control_c, 0, 64, 71
1, 224794, Control_c, 0, 64, 71
1, 224798, Note_on_c, 0, 66, 46
1, 224809, Control_c, 0, 64, 70
1, 224824, Control_c, 0, 64, 70
1, 224829, Note_off_c, 0, 64, 50
1, 224831, Note_off_c, 0, 66, 54
1, 224839, Control_c, 0, 64, 69
1, 224853, Control_c, 0, 64, 68
1, 224855, Note_on_c, 0, 63, 62
1, 224883, Control_c, 0, 64, 68
1, 224897, Control_c, 0, 64, 67
1, 224927, Control_c, 0, 64, 67
1, 224947, Note_off_c, 0, 63, 61
1, 224958, Note_on_c, 0, 64, 63
1, 224971, Control_c, 0, 64, 66
1, 225046, Control_c, 0, 64, 66
1, 225049, Note_off_c, 0, 64, 64
1, 225064, Note_on_c, 0, 68, 64
1, 225076, Control_c, 0, 64, 65
1, 225091, Control_c, 0, 64, 65
1, 225121, Control_c, 0, 64, 64
1, 225150, Control_c, 0, 64, 64
1, 225165, Control_c, 0, 64, 63
1, 225180, Control_c, 0, 64, 63
1, 225183, Note_on_c, 0, 67, 64
1, 225195, Control_c, 0, 64, 62
1, 225210, Control_c, 0, 64, 62
1, 225216, Note_off_c, 0, 68, 55
1, 225239, Control_c, 0, 64, 61
1, 225254, Control_c, 0, 64, 59
1, 225269, Control_c, 0, 64, 56
1, 225284, Control_c, 0, 64, 53
1, 225299, Control_c, 0, 64, 50
1, 225314, Control_c, 0, 64, 44
1, 225328, Control_c, 0, 64, 0
1, 225394, Note_off_c, 0, 67, 62
1, 225412, Note_on_c, 0, 66, 63
1, 225707, Control_c, 0, 64, 38
1, 225721, Control_c, 0, 64, 56
1, 225736, Control_c, 0, 64, 61
1, 225751, Control_c, 0, 64, 63
1, 225766, Control_c, 0, 64, 63
1, 225795, Control_c, 0, 64, 63
1, 225840, Control_c, 0, 64, 63
1, 226010, Note_on_c, 0, 61, 41
1, 226011, Note_on_c, 0, 58, 38
1, 226014, Note_on_c, 0, 40, 31
1, 226025, Note_on_c, 0, 52, 31
1, 226033, Control_c, 0, 64, 63
1, 226048, Control_c, 0, 64, 62
1, 226063, Control_c, 0, 64, 62
1, 226065, Note_off_c, 0, 61, 61
1, 226066, Note_off_c, 0, 58, 62
1, 226078, Note_off_c, 0, 40, 62
1, 226078, Control_c, 0, 64, 61
1, 226081, Note_off_c, 0, 52, 55
1, 226092, Control_c, 0, 64, 59
1, 226107, Control_c, 0, 64, 56
1, 226122, Control_c, 0, 64, 54
1, 226137, Control_c, 0, 64, 53
1, 226152, Control_c, 0, 64, 51
1, 226181, Control_c, 0, 64, 48
1, 226196, Control_c, 0, 64, 46
1, 226226, Control_c, 0, 64, 44
1, 226248, Control_c, 0, 64, 41
1, 226263, Control_c, 0, 64, 38
1, 226293, Control_c, 0, 64, 23
1, 226307, Control_c, 0, 64, 0
1, 226330, Note_on_c, 0, 62, 41
1, 226342, Note_on_c, 0, 59, 30
1, 226345, Note_on_c, 0, 52, 25
1, 226348, Note_on_c, 0, 40, 27
1, 226426, Note_off_c, 0, 59, 54
1, 226436, Note_off_c, 0, 62, 62
1, 226441, Note_off_c, 0, 40, 61
1, 226444, Note_off_c, 0, 52, 59
1, 226694, Control_c, 0, 64, 13
1, 226709, Control_c, 0, 64, 23
1, 226723, Control_c, 0, 64, 30
1, 226738, Control_c, 0, 64, 34
1, 226753, Control_c, 0, 64, 41
1, 226782, Control_c, 0, 64, 44
1, 226841, Control_c, 0, 64, 46
1, 226843, Note_on_c, 0, 57, 22
1, 226851, Note_on_c, 0, 62, 43
1, 226856, Note_on_c, 0, 40, 28
1, 226867, Note_on_c, 0, 52, 27
1, 226871, Control_c, 0, 64, 44
1, 226901, Control_c, 0, 64, 41
1, 226911, Note_off_c, 0, 57, 63
1, 226918, Note_off_c, 0, 62, 60
1, 226930, Control_c, 0, 64, 38
1, 226934, Note_off_c, 0, 40, 59
1, 226943, Note_off_c, 0, 52, 55
1, 226945, Control_c, 0, 64, 30
1, 226974, Control_c, 0, 64, 34
1, 227042, Control_c, 0, 64, 30
1, 227056, Control_c, 0, 64, 23
1, 227070, Control_c, 0, 64, 0
1, 227152, Note_on_c, 0, 62, 41
1, 227161, Note_on_c, 0, 40, 29
1, 227161, Note_on_c, 0, 52, 31
1, 227177, Note_on_c, 0, 56, 22
1, 227263, Control_c, 0, 64, 67
1, 227278, Control_c, 0, 64, 70
1, 227278, Note_off_c, 0, 52, 58
1, 227292, Control_c, 0, 64, 71
1, 227307, Control_c, 0, 64, 74
1, 227322, Note_off_c, 0, 56, 44
1, 227322, Control_c, 0, 64, 78
1, 227337, Control_c, 0, 64, 81
1, 227341, Note_off_c, 0, 62, 61
1, 227352, Control_c, 0, 64, 82
1, 227384, Note_off_c, 0, 40, 57
1, 227530, Control_c, 0, 64, 81
1, 227728, Note_on_c, 0, 65, 56
1, 227745, Control_c, 0, 64, 80
1, 227758, Note_on_c, 0, 56, 34
1, 227760, Control_c, 0, 64, 77
1, 227766, Note_on_c, 0, 40, 25
1, 227773, Note_on_c, 0, 62, 28
1, 227775, Note_on_c, 0, 28, 32
1, 227775, Control_c, 0, 64, 72
1, 227789, Control_c, 0, 64, 66
1, 227804, Control_c, 0, 64, 64
1, 227819, Control_c, 0, 64, 65
1, 227826, Note_off_c, 0, 62, 43
1, 227834, Control_c, 0, 64, 67
1, 227849, Control_c, 0, 64, 70
1, 227861, Note_off_c, 0, 56, 51
1, 227863, Control_c, 0, 64, 72
1, 227871, Note_off_c, 0, 28, 56
1, 227878, Control_c, 0, 64, 72
1, 227886, Note_off_c, 0, 40, 52
1, 227967, Control_c, 0, 64, 72
1, 227982, Control_c, 0, 64, 70
1, 227997, Control_c, 0, 64, 68
1, 228001, Note_off_c, 0, 66, 33
1, 228012, Control_c, 0, 64, 66
1, 228041, Control_c, 0, 64, 66
1, 228044, Note_on_c, 0, 40, 35
1, 228047, Note_on_c, 0, 62, 55
1, 228047, Note_on_c, 0, 28, 43
1, 228057, Note_on_c, 0, 57, 37
1, 228071, Control_c, 0, 64, 67
1, 228086, Control_c, 0, 64, 67
1, 228101, Control_c, 0, 64, 68
1, 228115, Control_c, 0, 64, 68
1, 228145, Control_c, 0, 64, 69
1, 228207, Note_off_c, 0, 57, 52
1, 228211, Note_off_c, 0, 65, 62
1, 228235, Note_on_c, 0, 67, 57
1, 228265, Control_c, 0, 64, 68
1, 228267, Note_off_c, 0, 40, 61
1, 228282, Note_off_c, 0, 28, 57
1, 228294, Control_c, 0, 64, 68
1, 228302, Note_off_c, 0, 62, 35
1, 228304, Note_on_c, 0, 65, 72
1, 228324, Control_c, 0, 64, 67
1, 228338, Control_c, 0, 64, 67
1, 228368, Control_c, 0, 64, 66
1, 228383, Control_c, 0, 64, 66
1, 228395, Note_off_c, 0, 67, 33
1, 228398, Control_c, 0, 64, 65
1, 228538, Control_c, 0, 64, 65
1, 228575, Note_on_c, 0, 64, 69
1, 228584, Control_c, 0, 64, 64
1, 228586, Note_on_c, 0, 59, 43
1, 228590, Note_on_c, 0, 40, 48
1, 228594, Note_on_c, 0, 28, 43
1, 228599, Control_c, 0, 64, 64
1, 228613, Control_c, 0, 64, 62
1, 228614, Note_on_c, 0, 62, 35
1, 228617, Note_off_c, 0, 59, 54
1, 228628, Control_c, 0, 64, 44
1, 228643, Control_c, 0, 64, 0
1, 228644, Note_off_c, 0, 62, 51
1, 228648, Note_off_c, 0, 28, 60
1, 228650, Note_off_c, 0, 40, 59
1, 228673, Note_off_c, 0, 65, 54
1, 228891, Note_on_c, 0, 40, 27
1, 228906, Note_on_c, 0, 28, 38
1, 228908, Note_on_c, 0, 67, 69
1, 228943, Note_on_c, 0, 61, 37
1, 228953, Note_on_c, 0, 58, 29
1, 228988, Note_off_c, 0, 64, 62
1, 229043, Control_c, 0, 64, 64
1, 229058, Control_c, 0, 64, 66
1, 229064, Note_off_c, 0, 58, 53
1, 229073, Control_c, 0, 64, 67
1, 229080, Note_off_c, 0, 61, 30
1, 229088, Control_c, 0, 64, 68
1, 229100, Note_off_c, 0, 28, 62
1, 229132, Control_c, 0, 64, 67
1, 229147, Control_c, 0, 64, 67
1, 229148, Note_off_c, 0, 40, 63
1, 229162, Control_c, 0, 64, 66
1, 229177, Control_c, 0, 64, 65
1, 229192, Control_c, 0, 64, 65
1, 229207, Control_c, 0, 64, 64
1, 229222, Control_c, 0, 64, 64
1, 229243, Control_c, 0, 64, 63
1, 229258, Control_c, 0, 64, 61
1, 229273, Control_c, 0, 64, 55
1, 229287, Control_c, 0, 64, 44
1, 229302, Control_c, 0, 64, 23
1, 229317, Control_c, 0, 64, 0
1, 229451, Control_c, 0, 64, 13
1, 229454, Note_on_c, 0, 66, 70
1, 229462, Note_on_c, 0, 40, 45
1, 229466, Control_c, 0, 64, 23
1, 229471, Note_on_c, 0, 58, 36
1, 229472, Note_on_c, 0, 61, 35
1, 229478, Note_on_c, 0, 52, 48
1, 229481, Control_c, 0, 64, 13
1, 229507, Note_off_c, 0, 61, 50
1, 229531, Note_off_c, 0, 40, 62
1, 229534, Note_off_c, 0, 52, 58
1, 229534, Note_off_c, 0, 67, 50
1, 229540, Control_c, 0, 64, 0
1, 229541, Note_off_c, 0, 58, 39
1, 229758, Note_on_c, 0, 40, 44
1, 229760, Note_on_c, 0, 62, 49
1, 229761, Note_on_c, 0, 52, 39
1, 229785, Note_on_c, 0, 59, 30
1, 229902, Note_off_c, 0, 59, 36
1, 229905, Note_off_c, 0, 62, 50
1, 229916, Note_off_c, 0, 52, 53
1, 229946, Note_off_c, 0, 40, 58
1, 230037, Control_c, 0, 64, 13
1, 230052, Control_c, 0, 64, 38
1, 230066, Control_c, 0, 64, 46
1, 230081, Control_c, 0, 64, 51
1, 230096, Control_c, 0, 64, 53
1, 230110, Control_c, 0, 64, 54
1, 230125, Control_c, 0, 64, 55
1, 230155, Control_c, 0, 64, 56
1, 230170, Control_c, 0, 64, 57
1, 230185, Control_c, 0, 64, 58
1, 230200, Control_c, 0, 64, 59
1, 230215, Control_c, 0, 64, 61
1, 230229, Control_c, 0, 64, 62
1, 230244, Control_c, 0, 64, 63
1, 230259, Control_c, 0, 64, 63
1, 230296, Note_on_c, 0, 40, 31
1, 230299, Note_on_c, 0, 62, 41
1, 230302, Note_on_c, 0, 57, 42
1, 230320, Note_on_c, 0, 52, 31
1, 230348, Control_c, 0, 64, 64
1, 230367, Note_off_c, 0, 57, 62
1, 230378, Control_c, 0, 64, 63
1, 230392, Control_c, 0, 64, 62
1, 230403, Note_off_c, 0, 62, 58
1, 230407, Control_c, 0, 64, 0
1, 230411, Note_off_c, 0, 40, 49
1, 230411, Note_off_c, 0, 52, 50
1, 230540, Control_c, 0, 64, 64
1, 230555, Control_c, 0, 64, 67
1, 230570, Control_c, 0, 64, 70
1, 230584, Control_c, 0, 64, 73
1, 230596, Note_on_c, 0, 40, 37
1, 230596, Note_on_c, 0, 62, 48
1, 230599, Control_c, 0, 64, 76
1, 230606, Note_on_c, 0, 52, 31
1, 230614, Control_c, 0, 64, 78
1, 230626, Note_on_c, 0, 56, 35
1, 230629, Control_c, 0, 64, 79
1, 230644, Control_c, 0, 64, 81
1, 230660, Control_c, 0, 64, 83
1, 230672, Note_off_c, 0, 52, 54
1, 230674, Note_off_c, 0, 66, 57
1, 230675, Control_c, 0, 64, 87
1, 230689, Control_c, 0, 64, 91
1, 230704, Control_c, 0, 64, 95
1, 230719, Control_c, 0, 64, 99
1, 230724, Note_off_c, 0, 56, 57
1, 230741, Control_c, 0, 64, 102
1, 230756, Control_c, 0, 64, 107
1, 230771, Control_c, 0, 64, 113
1, 230786, Control_c, 0, 64, 122
1, 230796, Note_off_c, 0, 40, 60
1, 230801, Control_c, 0, 64, 127
1, 230861, Note_on_c, 0, 71, 70
1, 230960, Note_off_c, 0, 62, 51
1, 231121, Note_on_c, 0, 65, 65
1, 231124, Poly_aftertouch_c, 0, 69, 127
1, 231140, Note_on_c, 0, 40, 40
1, 231140, Note_on_c, 0, 56, 51
1, 231140, Note_on_c, 0, 62, 36
1, 231141, Note_on_c, 0, 28, 43
1, 231193, Note_off_c, 0, 62, 44
1, 231255, Note_off_c, 0, 56, 51
1, 231276, Note_off_c, 0, 71, 50
1, 231282, Poly_aftertouch_c, 0, 69, 0
1, 231285, Note_off_c, 0, 40, 36
1, 231303, Note_off_c, 0, 28, 33
1, 231362, Control_c, 0, 64, 112
1, 231377, Control_c, 0, 64, 91
1, 231392, Control_c, 0, 64, 77
1, 231400, Note_on_c, 0, 57, 48
1, 231403, Note_on_c, 0, 62, 65
1, 231406, Control_c, 0, 64, 65
1, 231413, Note_on_c, 0, 40, 38
1, 231420, Note_on_c, 0, 28, 41
1, 231421, Control_c, 0, 64, 0
1, 231452, Control_c, 0, 64, 23
1, 231466, Control_c, 0, 64, 66
1, 231481, Note_off_c, 0, 65, 59
1, 231488, Control_c, 0, 64, 71
1, 231503, Control_c, 0, 64, 77
1, 231518, Control_c, 0, 64, 82
1, 231533, Control_c, 0, 64, 84
1, 231627, Note_off_c, 0, 57, 33
1, 231633, Note_on_c, 0, 67, 65
1, 231636, Note_off_c, 0, 40, 49
1, 231666, Note_off_c, 0, 28, 39
1, 231666, Control_c, 0, 64, 84
1, 231684, Note_on_c, 0, 65, 78
1, 231723, Note_off_c, 0, 62, 59
1, 231726, Control_c, 0, 64, 83
1, 231756, Control_c, 0, 64, 83
1, 231770, Control_c, 0, 64, 82
1, 231785, Control_c, 0, 64, 81
1, 231901, Note_off_c, 0, 67, 17
1, 231917, Note_on_c, 0, 64, 75
1, 231930, Note_on_c, 0, 59, 56
1, 231934, Note_on_c, 0, 62, 59
1, 231942, Note_on_c, 0, 28, 44
1, 231946, Note_on_c, 0, 40, 47
1, 231948, Control_c, 0, 64, 81
1, 231962, Control_c, 0, 64, 80
1, 231972, Note_off_c, 0, 62, 62
1, 231975, Note_off_c, 0, 65, 43
1, 231977, Control_c, 0, 64, 80
1, 231985, Note_off_c, 0, 59, 56
1, 231992, Control_c, 0, 64, 79
1, 232014, Note_off_c, 0, 40, 54
1, 232015, Note_off_c, 0, 28, 58
1, 232066, Control_c, 0, 64, 78
1, 232095, Control_c, 0, 64, 78
1, 232110, Control_c, 0, 64, 77
1, 232125, Control_c, 0, 64, 77
1, 232140, Control_c, 0, 64, 76
1, 232155, Control_c, 0, 64, 74
1, 232170, Control_c, 0, 64, 73
1, 232185, Control_c, 0, 64, 70
1, 232199, Control_c, 0, 64, 68
1, 232214, Control_c, 0, 64, 65
1, 232236, Control_c, 0, 64, 50
1, 232251, Control_c, 0, 64, 0
1, 232267, Note_on_c, 0, 67, 63
1, 232268, Note_on_c, 0, 28, 41
1, 232271, Note_on_c, 0, 40, 39
1, 232294, Note_on_c, 0, 61, 39
1, 232300, Note_on_c, 0, 58, 40
1, 232323, Note_off_c, 0, 64, 63
1, 232416, Control_c, 0, 64, 65
1, 232417, Note_off_c, 0, 61, 45
1, 232426, Note_off_c, 0, 58, 53
1, 232431, Control_c, 0, 64, 67
1, 232446, Control_c, 0, 64, 67
1, 232451, Note_off_c, 0, 28, 61
1, 232460, Control_c, 0, 64, 68
1, 232475, Control_c, 0, 64, 69
1, 232501, Note_off_c, 0, 40, 63
1, 232504, Control_c, 0, 64, 68
1, 232534, Control_c, 0, 64, 67
1, 232549, Control_c, 0, 64, 66
1, 232564, Control_c, 0, 64, 66
1, 232578, Control_c, 0, 64, 65
1, 232608, Control_c, 0, 64, 65
1, 232623, Control_c, 0, 64, 64
1, 232638, Control_c, 0, 64, 64
1, 232801, Control_c, 0, 64, 63
1, 232814, Note_on_c, 0, 66, 66
1, 232826, Note_on_c, 0, 61, 42
1, 232831, Note_on_c, 0, 58, 39
1, 232833, Note_on_c, 0, 40, 38
1, 232842, Note_on_c, 0, 52, 38
1, 232863, Note_off_c, 0, 67, 56
1, 232871, Note_off_c, 0, 61, 58
1, 232906, Note_off_c, 0, 40, 55
1, 232912, Note_off_c, 0, 52, 54
1, 232915, Note_off_c, 0, 58, 44
1, 233132, Note_on_c, 0, 62, 48
1, 233135, Note_on_c, 0, 40, 33
1, 233138, Note_on_c, 0, 52, 24
1, 233154, Note_on_c, 0, 59, 24
1, 233255, Note_off_c, 0, 59, 40
1, 233267, Control_c, 0, 64, 64
1, 233273, Note_off_c, 0, 62, 62
1, 233314, Note_off_c, 0, 40, 59
1, 233314, Note_off_c, 0, 52, 47
1, 233371, Control_c, 0, 64, 64
1, 233446, Control_c, 0, 64, 65
1, 233534, Control_c, 0, 64, 65
1, 233646, Note_on_c, 0, 57, 30
1, 233646, Note_on_c, 0, 62, 37
1, 233646, Note_on_c, 0, 40, 22
1, 233657, Note_on_c, 0, 52, 10
1, 233667, Control_c, 0, 64, 66
1, 233682, Control_c, 0, 64, 66
1, 233697, Control_c, 0, 64, 67
1, 233712, Control_c, 0, 64, 68
1, 233716, Note_off_c, 0, 57, 63
1, 233749, Control_c, 0, 64, 68
1, 233764, Control_c, 0, 64, 69
1, 233768, Note_off_c, 0, 62, 50
1, 233779, Control_c, 0, 64, 69
1, 233789, Note_off_c, 0, 40, 49
1, 233822, Note_off_c, 0, 52, 35
1, 233838, Control_c, 0, 64, 70
1, 233883, Control_c, 0, 64, 69
1, 233898, Control_c, 0, 64, 66
1, 233913, Control_c, 0, 64, 0
1, 233958, Note_on_c, 0, 62, 39
1, 233966, Note_on_c, 0, 40, 35
1, 233973, Note_on_c, 0, 52, 25
1, 233978, Note_on_c, 0, 56, 25
1, 233987, Control_c, 0, 64, 64
1, 234002, Control_c, 0, 64, 67
1, 234017, Control_c, 0, 64, 70
1, 234031, Control_c, 0, 64, 71
1, 234046, Control_c, 0, 64, 73
1, 234061, Control_c, 0, 64, 75
1, 234075, Control_c, 0, 64, 76
1, 234090, Control_c, 0, 64, 78
1, 234105, Control_c, 0, 64, 79
1, 234120, Control_c, 0, 64, 79
1, 234125, Note_off_c, 0, 56, 54
1, 234149, Control_c, 0, 64, 80
1, 234153, Note_off_c, 0, 62, 62
1, 234164, Control_c, 0, 64, 80
1, 234172, Note_off_c, 0, 52, 42
1, 234180, Note_off_c, 0, 40, 56
1, 234489, Note_on_c, 0, 40, 25
1, 234490, Note_on_c, 0, 65, 53
1, 234504, Note_on_c, 0, 62, 34
1, 234510, Note_on_c, 0, 52, 27
1, 234531, Note_on_c, 0, 56, 23
1, 234695, Note_off_c, 0, 52, 34
1, 234696, Note_off_c, 0, 65, 56
1, 234704, Note_off_c, 0, 56, 42
1, 234707, Note_off_c, 0, 40, 28
1, 234745, Note_off_c, 0, 62, 31
1, 234780, Control_c, 0, 64, 79
1, 234795, Control_c, 0, 64, 76
1, 234810, Control_c, 0, 64, 70
1, 234814, Note_on_c, 0, 65, 74
1, 234824, Control_c, 0, 64, 64
1, 234831, Note_on_c, 0, 40, 36
1, 234834, Note_on_c, 0, 56, 44
1, 234835, Note_on_c, 0, 62, 34
1, 234839, Control_c, 0, 64, 57
1, 234847, Note_on_c, 0, 52, 32
1, 234854, Control_c, 0, 64, 62
1, 234869, Control_c, 0, 64, 64
1, 234873, Note_off_c, 0, 66, 38
1, 234884, Control_c, 0, 64, 65
1, 234898, Control_c, 0, 64, 68
1, 234913, Control_c, 0, 64, 69
1, 234928, Control_c, 0, 64, 71
1, 234943, Control_c, 0, 64, 72
1, 234958, Control_c, 0, 64, 73
1, 234972, Control_c, 0, 64, 74
1, 234987, Control_c, 0, 64, 76
1, 235002, Control_c, 0, 64, 77
1, 235032, Control_c, 0, 64, 77
1, 235047, Note_off_c, 0, 40, 54
1, 235061, Control_c, 0, 64, 78
1, 235067, Note_off_c, 0, 52, 36
1, 235076, Control_c, 0, 64, 78
1, 235091, Note_off_c, 0, 62, 41
1, 235091, Control_c, 0, 64, 79
1, 235093, Note_off_c, 0, 56, 38
1, 235107, Note_off_c, 0, 65, 60
1, 235121, Control_c, 0, 64, 79
1, 235151, Control_c, 0, 64, 80
1, 235166, Control_c, 0, 64, 80
1, 235180, Control_c, 0, 64, 81
1, 235195, Control_c, 0, 64, 81
1, 235246, Control_c, 0, 64, 82
1, 235355, Note_on_c, 0, 65, 70
1, 235357, Note_on_c, 0, 40, 40
1, 235369, Note_on_c, 0, 52, 37
1, 235373, Note_on_c, 0, 56, 44
1, 235375, Note_on_c, 0, 62, 45
1, 235425, Note_off_c, 0, 40, 54
1, 235429, Note_off_c, 0, 62, 40
1, 235437, Note_off_c, 0, 52, 48
1, 235460, Note_off_c, 0, 56, 44
1, 235540, Note_off_c, 0, 65, 55
1, 235604, Control_c, 0, 64, 81
1, 235619, Control_c, 0, 64, 78
1, 235634, Control_c, 0, 64, 71
1, 235648, Control_c, 0, 64, 65
1, 235663, Control_c, 0, 64, 0
1, 235667, Note_on_c, 0, 65, 72
1, 235672, Note_on_c, 0, 40, 37
1, 235681, Note_on_c, 0, 56, 47
1, 235684, Note_on_c, 0, 52, 36
1, 235699, Note_on_c, 0, 62, 34
1, 235723, Control_c, 0, 64, 59
1, 235732, Note_off_c, 0, 62, 51
1, 235737, Control_c, 0, 64, 64
1, 235752, Control_c, 0, 64, 65
1, 235781, Note_off_c, 0, 56, 62
1, 235782, Control_c, 0, 64, 66
1, 235863, Note_off_c, 0, 52, 52
1, 235870, Note_off_c, 0, 40, 59
1, 235996, Control_c, 0, 64, 66
1, 236159, Control_c, 0, 64, 66
1, 236186, Note_on_c, 0, 40, 33
1, 236188, Note_on_c, 0, 60, 47
1, 236188, Note_on_c, 0, 52, 31
1, 236191, Note_on_c, 0, 57, 36
1, 236285, Note_off_c, 0, 52, 55
1, 236285, Note_off_c, 0, 40, 59
1, 236292, Note_off_c, 0, 60, 46
1, 236296, Note_off_c, 0, 57, 48
1, 236397, Control_c, 0, 64, 65
1, 236427, Control_c, 0, 64, 65
1, 236477, Note_on_c, 0, 60, 35
1, 236484, Note_on_c, 0, 57, 32
1, 236492, Note_on_c, 0, 40, 35
1, 236499, Note_on_c, 0, 52, 26
1, 236590, Control_c, 0, 64, 65
1, 236600, Note_off_c, 0, 57, 58
1, 236603, Note_off_c, 0, 52, 58
1, 236607, Note_off_c, 0, 60, 58
1, 236626, Note_off_c, 0, 40, 64
1, 236664, Control_c, 0, 64, 66
1, 236731, Control_c, 0, 64, 66
1, 236746, Control_c, 0, 64, 67
1, 236790, Control_c, 0, 64, 67
1, 236834, Control_c, 0, 64, 68
1, 236878, Control_c, 0, 64, 68
1, 236982, Control_c, 0, 64, 69
1, 237005, Note_on_c, 0, 60, 37
1, 237006, Note_on_c, 0, 57, 25
1, 237026, Control_c, 0, 64, 69
1, 237028, Note_on_c, 0, 38, 5
1, 237034, Note_on_c, 0, 50, 14
1, 237072, Note_off_c, 0, 57, 57
1, 237072, Control_c, 0, 64, 70
1, 237077, Note_off_c, 0, 60, 51
1, 237086, Note_off_c, 0, 50, 51
1, 237087, Control_c, 0, 64, 70
1, 237097, Note_off_c, 0, 38, 41
1, 237116, Control_c, 0, 64, 71
1, 237175, Control_c, 0, 64, 70
1, 237190, Control_c, 0, 64, 69
1, 237205, Control_c, 0, 64, 67
1, 237220, Control_c, 0, 64, 65
1, 237235, Control_c, 0, 64, 63
1, 237264, Control_c, 0, 64, 64
1, 237279, Control_c, 0, 64, 65
1, 237294, Control_c, 0, 64, 66
1, 237305, Note_on_c, 0, 57, 18
1, 237308, Note_on_c, 0, 60, 29
1, 237309, Control_c, 0, 64, 67
1, 237314, Note_on_c, 0, 50, 21
1, 237317, Note_on_c, 0, 38, 12
1, 237324, Control_c, 0, 64, 69
1, 237339, Control_c, 0, 64, 71
1, 237354, Control_c, 0, 64, 73
1, 237369, Control_c, 0, 64, 75
1, 237383, Control_c, 0, 64, 76
1, 237398, Control_c, 0, 64, 77
1, 237407, Note_off_c, 0, 57, 56
1, 237413, Control_c, 0, 64, 78
1, 237419, Note_off_c, 0, 65, 53
1, 237427, Control_c, 0, 64, 79
1, 237442, Control_c, 0, 64, 81
1, 237457, Control_c, 0, 64, 82
1, 237479, Control_c, 0, 64, 83
1, 237494, Control_c, 0, 64, 83
1, 237501, Note_off_c, 0, 50, 40
1, 237509, Control_c, 0, 64, 84
1, 237515, Note_off_c, 0, 60, 38
1, 237516, Note_off_c, 0, 38, 40
1, 237539, Control_c, 0, 64, 84
1, 237568, Control_c, 0, 64, 85
1, 237582, Control_c, 0, 64, 85
1, 237612, Control_c, 0, 64, 86
1, 237671, Control_c, 0, 64, 86
1, 237857, Note_on_c, 0, 65, 49
1, 237871, Note_on_c, 0, 38, 26
1, 237883, Note_on_c, 0, 56, 15
1, 237894, Control_c, 0, 64, 86
1, 237902, Note_on_c, 0, 50, 16
1, 237968, Control_c, 0, 64, 85
1, 237983, Control_c, 0, 64, 85
1, 238003, Note_off_c, 0, 50, 41
1, 238017, Note_off_c, 0, 38, 39
1, 238027, Control_c, 0, 64, 84
1, 238042, Control_c, 0, 64, 84
1, 238061, Note_off_c, 0, 56, 34
1, 238102, Control_c, 0, 64, 82
1, 238116, Control_c, 0, 64, 77
1, 238131, Control_c, 0, 64, 70
1, 238146, Control_c, 0, 64, 58
1, 238161, Control_c, 0, 64, 0
1, 238175, Control_c, 0, 64, 38
1, 238182, Note_on_c, 0, 60, 38
1, 238190, Control_c, 0, 64, 63
1, 238205, Control_c, 0, 64, 66
1, 238207, Note_on_c, 0, 38, 4
1, 238209, Note_on_c, 0, 50, 9
1, 238227, Control_c, 0, 64, 70
1, 238234, Poly_aftertouch_c, 0, 56, 127
1, 238242, Control_c, 0, 64, 73
1, 238257, Control_c, 0, 64, 76
1, 238272, Control_c, 0, 64, 78
1, 238287, Control_c, 0, 64, 80
1, 238302, Control_c, 0, 64, 81
1, 238317, Control_c, 0, 64, 82
1, 238331, Control_c, 0, 64, 82
1, 238346, Control_c, 0, 64, 83
1, 238361, Control_c, 0, 64, 83
1, 238389, Note_off_c, 0, 65, 32
1, 238390, Control_c, 0, 64, 84
1, 238396, Poly_aftertouch_c, 0, 56, 0
1, 238400, Note_off_c, 0, 60, 36
1, 238405, Control_c, 0, 64, 84
1, 238417, Note_off_c, 0, 50, 39
1, 238420, Control_c, 0, 64, 85
1, 238436, Note_off_c, 0, 38, 40
1, 238449, Control_c, 0, 64, 85
1, 238494, Control_c, 0, 64, 86
1, 238716, Note_on_c, 0, 65, 45
1, 238728, Note_on_c, 0, 56, 27
1, 238736, Note_on_c, 0, 38, 25
1, 238770, Poly_aftertouch_c, 0, 50, 127
1, 238805, Poly_aftertouch_c, 0, 59, 127
1, 238841, Poly_aftertouch_c, 0, 59, 0
1, 238856, Poly_aftertouch_c, 0, 50, 0
1, 238872, Note_off_c, 0, 38, 32
1, 238910, Control_c, 0, 64, 84
1, 238925, Control_c, 0, 64, 78
1, 238939, Control_c, 0, 64, 70
1, 238954, Control_c, 0, 64, 48
1, 238976, Control_c, 0, 64, 0
1, 238991, Control_c, 0, 64, 61
1, 239005, Control_c, 0, 64, 65
1, 239020, Control_c, 0, 64, 69
1, 239031, Note_on_c, 0, 59, 28
1, 239035, Control_c, 0, 64, 73
1, 239047, Note_on_c, 0, 38, 31
1, 239051, Control_c, 0, 64, 76
1, 239066, Control_c, 0, 64, 79
1, 239080, Control_c, 0, 64, 81
1, 239087, Poly_aftertouch_c, 0, 50, 127
1, 239095, Control_c, 0, 64, 82
1, 239110, Control_c, 0, 64, 84
1, 239116, Note_off_c, 0, 56, 13
1, 239124, Control_c, 0, 64, 85
1, 239139, Control_c, 0, 64, 86
1, 239154, Control_c, 0, 64, 87
1, 239169, Control_c, 0, 64, 87
1, 239180, Note_off_c, 0, 65, 37
1, 239184, Control_c, 0, 64, 88
1, 239199, Control_c, 0, 64, 89
1, 239210, Poly_aftertouch_c, 0, 50, 0
1, 239215, Note_off_c, 0, 38, 41
1, 239229, Control_c, 0, 64, 89
1, 239244, Control_c, 0, 64, 90
1, 239256, Note_off_c, 0, 59, 40
1, 239273, Control_c, 0, 64, 90
1, 239303, Control_c, 0, 64, 91
1, 239563, Note_on_c, 0, 65, 54
1, 239566, Note_on_c, 0, 37, 37
1, 239584, Note_on_c, 0, 56, 35
1, 239601, Note_on_c, 0, 49, 25
1, 239653, Note_off_c, 0, 65, 59
1, 239659, Control_c, 0, 64, 90
1, 239688, Control_c, 0, 64, 90
1, 239829, Control_c, 0, 64, 89
1, 239859, Control_c, 0, 64, 89
1, 239874, Control_c, 0, 64, 88
1, 239889, Control_c, 0, 64, 85
1, 239903, Control_c, 0, 64, 79
1, 239917, Note_on_c, 0, 66, 54
1, 239918, Control_c, 0, 64, 69
1, 239922, Note_on_c, 0, 57, 34
1, 239933, Control_c, 0, 64, 0
1, 239934, Note_off_c, 0, 37, 37
1, 239937, Note_on_c, 0, 42, 46
1, 239956, Note_off_c, 0, 56, 32
1, 240096, Control_c, 0, 64, 64
1, 240098, Note_off_c, 0, 57, 62
1, 240111, Control_c, 0, 64, 66
1, 240116, Note_off_c, 0, 49, 44
1, 240126, Control_c, 0, 64, 69
1, 240141, Control_c, 0, 64, 72
1, 240144, Note_off_c, 0, 42, 53
1, 240155, Control_c, 0, 64, 75
1, 240170, Control_c, 0, 64, 77
1, 240185, Control_c, 0, 64, 78
1, 240200, Control_c, 0, 64, 79
1, 240215, Control_c, 0, 64, 80
1, 240229, Control_c, 0, 64, 81
1, 240260, Control_c, 0, 64, 81
1, 240452, Control_c, 0, 64, 81
1, 240479, Note_off_c, 0, 66, 55
1, 240481, Note_on_c, 0, 44, 35
1, 240487, Note_on_c, 0, 60, 47
1, 240505, Control_c, 0, 64, 80
1, 240505, Note_on_c, 0, 54, 32
1, 240519, Control_c, 0, 64, 80
1, 240534, Control_c, 0, 64, 79
1, 240549, Control_c, 0, 64, 78
1, 240564, Control_c, 0, 64, 77
1, 240578, Control_c, 0, 64, 76
1, 240593, Control_c, 0, 64, 75
1, 240608, Control_c, 0, 64, 74
1, 240623, Control_c, 0, 64, 73
1, 240636, Note_off_c, 0, 54, 47
1, 240638, Control_c, 0, 64, 72
1, 240652, Control_c, 0, 64, 71
1, 240667, Control_c, 0, 64, 70
1, 240712, Control_c, 0, 64, 69
1, 240726, Control_c, 0, 64, 67
1, 240741, Control_c, 0, 64, 0
1, 240782, Note_off_c, 0, 44, 34
1, 240785, Note_on_c, 0, 37, 40
1, 240788, Note_off_c, 0, 60, 55
1, 240804, Note_on_c, 0, 61, 52
1, 240826, Note_on_c, 0, 53, 32
1, 240904, Control_c, 0, 64, 64
1, 240908, Note_off_c, 0, 53, 51
1, 240919, Control_c, 0, 64, 68
1, 240934, Control_c, 0, 64, 70
1, 240949, Control_c, 0, 64, 73
1, 240963, Control_c, 0, 64, 77
1, 240978, Control_c, 0, 64, 82
1, 240986, Note_off_c, 0, 61, 56
1, 240992, Note_off_c, 0, 37, 62
1, 240993, Control_c, 0, 64, 86
1, 241008, Control_c, 0, 64, 88
1, 241023, Control_c, 0, 64, 89
1, 241038, Control_c, 0, 64, 89
1, 241402, Note_on_c, 0, 68, 70
1, 241412, Note_on_c, 0, 53, 53
1, 241417, Note_on_c, 0, 56, 41
1, 241425, Note_on_c, 0, 61, 43
1, 241551, Note_off_c, 0, 56, 57
1, 241611, Note_off_c, 0, 61, 0
1, 241643, Note_off_c, 0, 68, 62
1, 241652, Control_c, 0, 64, 89
1, 241680, Poly_aftertouch_c, 0, 61, 0
1, 241711, Control_c, 0, 64, 88
1, 241766, Note_on_c, 0, 67, 63
1, 241771, Control_c, 0, 64, 86
1, 241773, Note_on_c, 0, 52, 45
1, 241785, Control_c, 0, 64, 77
1, 241786, Note_on_c, 0, 58, 48
1, 241792, Note_on_c, 0, 61, 40
1, 241799, Note_off_c, 0, 53, 47
1, 241800, Control_c, 0, 64, 64
1, 241815, Control_c, 0, 64, 0
1, 241905, Control_c, 0, 64, 57
1, 241906, Note_off_c, 0, 61, 39
1, 241920, Control_c, 0, 64, 67
1, 241935, Control_c, 0, 64, 69
1, 241949, Control_c, 0, 64, 71
1, 241971, Control_c, 0, 64, 72
1, 241986, Control_c, 0, 64, 74
1, 242001, Control_c, 0, 64, 76
1, 242016, Control_c, 0, 64, 77
1, 242031, Control_c, 0, 64, 77
1, 242046, Control_c, 0, 64, 78
1, 242049, Note_off_c, 0, 58, 34
1, 242076, Control_c, 0, 64, 78
1, 242120, Control_c, 0, 64, 79
1, 242327, Control_c, 0, 64, 78
1, 242335, Note_off_c, 0, 67, 61
1, 242373, Note_on_c, 0, 60, 34
1, 242373, Note_on_c, 0, 66, 48
1, 242374, Note_on_c, 0, 51, 34
1, 242386, Control_c, 0, 64, 78
1, 242388, Note_on_c, 0, 56, 32
1, 242411, Note_off_c, 0, 52, 28
1, 242430, Note_off_c, 0, 60, 44
1, 242445, Control_c, 0, 64, 77
1, 242458, Note_off_c, 0, 56, 51
1, 242460, Control_c, 0, 64, 77
1, 242475, Control_c, 0, 64, 76
1, 242490, Control_c, 0, 64, 76
1, 242608, Control_c, 0, 64, 75
1, 242623, Control_c, 0, 64, 74
1, 242639, Control_c, 0, 64, 71
1, 242654, Control_c, 0, 64, 65
1, 242669, Control_c, 0, 64, 0
1, 242684, Note_off_c, 0, 51, 41
1, 242690, Note_off_c, 0, 66, 33
1, 242690, Note_on_c, 0, 65, 43
1, 242722, Note_on_c, 0, 49, 30
1, 242727, Note_on_c, 0, 61, 31
1, 242735, Note_on_c, 0, 56, 17
1, 242795, Control_c, 0, 64, 48
1, 242810, Control_c, 0, 64, 66
1, 242825, Control_c, 0, 64, 68
1, 242839, Control_c, 0, 64, 70
1, 242850, Note_off_c, 0, 56, 45
1, 242854, Control_c, 0, 64, 72
1, 242869, Control_c, 0, 64, 74
1, 242884, Control_c, 0, 64, 76
1, 242899, Control_c, 0, 64, 77
1, 242911, Note_off_c, 0, 61, 39
1, 242914, Control_c, 0, 64, 77
1, 242928, Control_c, 0, 64, 78
1, 242996, Note_off_c, 0, 65, 24
1, 243287, Note_on_c, 0, 68, 52
1, 243294, Note_on_c, 0, 56, 40
1, 243304, Note_on_c, 0, 53, 39
1, 243307, Note_on_c, 0, 61, 40
1, 243402, Control_c, 0, 64, 78
1, 243419, Note_off_c, 0, 61, 40
1, 243425, Note_off_c, 0, 49, 26
1, 243442, Note_off_c, 0, 56, 37
1, 243456, Note_off_c, 0, 68, 63
1, 243648, Control_c, 0, 64, 76
1, 243652, Note_on_c, 0, 67, 50
1, 243662, Note_on_c, 0, 52, 39
1, 243663, Control_c, 0, 64, 69
1, 243664, Note_on_c, 0, 57, 32
1, 243670, Note_off_c, 0, 53, 48
1, 243670, Note_on_c, 0, 61, 25
1, 243677, Control_c, 0, 64, 0
1, 243766, Control_c, 0, 64, 65
1, 243781, Control_c, 0, 64, 67
1, 243796, Control_c, 0, 64, 69
1, 243810, Control_c, 0, 64, 71
1, 243819, Note_off_c, 0, 61, 34
1, 243825, Control_c, 0, 64, 72
1, 243840, Control_c, 0, 64, 73
1, 243855, Control_c, 0, 64, 74
1, 243870, Control_c, 0, 64, 75
1, 243914, Control_c, 0, 64, 75
1, 243974, Control_c, 0, 64, 76
1, 243980, Note_off_c, 0, 57, 22
1, 244018, Control_c, 0, 64, 76
1, 244092, Control_c, 0, 64, 77
1, 244270, Note_off_c, 0, 52, 32
1, 244286, Note_on_c, 0, 66, 51
1, 244292, Note_on_c, 0, 62, 34
1, 244293, Note_on_c, 0, 57, 28
1, 244296, Note_on_c, 0, 50, 25
1, 244417, Note_off_c, 0, 67, 37
1, 244421, Note_off_c, 0, 66, 59
1, 244459, Note_off_c, 0, 57, 29
1, 244589, Control_c, 0, 64, 75
1, 244604, Control_c, 0, 64, 70
1, 244607, Note_off_c, 0, 50, 39
1, 244618, Control_c, 0, 64, 0
1, 244622, Note_on_c, 0, 57, 17
1, 244633, Note_on_c, 0, 65, 47
1, 244645, Note_off_c, 0, 62, 41
1, 244647, Note_on_c, 0, 63, 39
1, 244651, Note_on_c, 0, 48, 30
1, 244737, Control_c, 0, 64, 65
1, 244752, Control_c, 0, 64, 69
1, 244762, Note_off_c, 0, 57, 48
1, 244767, Control_c, 0, 64, 72
1, 244782, Control_c, 0, 64, 74
1, 244797, Control_c, 0, 64, 75
1, 244811, Control_c, 0, 64, 77
1, 244826, Control_c, 0, 64, 78
1, 244841, Control_c, 0, 64, 79
1, 244856, Control_c, 0, 64, 80
1, 244870, Control_c, 0, 64, 80
1, 244884, Note_off_c, 0, 65, 50
1, 244885, Control_c, 0, 64, 81
1, 244915, Control_c, 0, 64, 81
1, 244918, Note_off_c, 0, 48, 39
1, 244930, Control_c, 0, 64, 82
1, 244967, Control_c, 0, 64, 82
1, 244997, Control_c, 0, 64, 83
1, 245040, Control_c, 0, 64, 83
1, 245120, Note_off_c, 0, 63, 17
1, 245292, Control_c, 0, 64, 83
1, 245307, Control_c, 0, 64, 78
1, 245321, Note_on_c, 0, 65, 43
1, 245322, Control_c, 0, 64, 71
1, 245323, Note_on_c, 0, 62, 35
1, 245331, Note_on_c, 0, 47, 35
1, 245337, Control_c, 0, 64, 64
1, 245342, Note_on_c, 0, 56, 30
1, 245352, Control_c, 0, 64, 13
1, 245366, Control_c, 0, 64, 55
1, 245381, Control_c, 0, 64, 64
1, 245391, Note_off_c, 0, 62, 57
1, 245396, Control_c, 0, 64, 66
1, 245411, Control_c, 0, 64, 68
1, 245426, Control_c, 0, 64, 70
1, 245440, Control_c, 0, 64, 72
1, 245450, Note_off_c, 0, 56, 58
1, 245455, Control_c, 0, 64, 74
1, 245470, Control_c, 0, 64, 76
1, 245484, Control_c, 0, 64, 76
1, 245544, Control_c, 0, 64, 77
1, 245729, Control_c, 0, 64, 75
1, 245744, Control_c, 0, 64, 70
1, 245745, Note_on_c, 0, 45, 27
1, 245747, Note_off_c, 0, 65, 56
1, 245755, Note_off_c, 0, 47, 33
1, 245759, Control_c, 0, 64, 46
1, 245764, Note_on_c, 0, 66, 44
1, 245769, Note_on_c, 0, 61, 24
1, 245773, Control_c, 0, 64, 0
1, 245789, Note_on_c, 0, 54, 11
1, 245938, Control_c, 0, 64, 63
1, 245953, Control_c, 0, 64, 66
1, 245968, Control_c, 0, 64, 68
1, 245981, Note_off_c, 0, 54, 39
1, 245983, Control_c, 0, 64, 70
1, 245997, Control_c, 0, 64, 71
1, 246010, Note_off_c, 0, 61, 40
1, 246012, Control_c, 0, 64, 73
1, 246027, Control_c, 0, 64, 76
1, 246042, Control_c, 0, 64, 79
1, 246056, Control_c, 0, 64, 82
1, 246071, Control_c, 0, 64, 84
1, 246086, Control_c, 0, 64, 85
1, 246101, Control_c, 0, 64, 86
1, 246115, Control_c, 0, 64, 88
1, 246130, Control_c, 0, 64, 90
1, 246145, Control_c, 0, 64, 91
1, 246160, Control_c, 0, 64, 92
1, 246175, Control_c, 0, 64, 93
1, 246204, Control_c, 0, 64, 93
1, 246219, Control_c, 0, 64, 94
1, 246249, Control_c, 0, 64, 94
1, 246375, Note_off_c, 0, 45, 24
1, 246543, Note_on_c, 0, 44, 25
1, 246559, Note_on_c, 0, 60, 40
1, 246606, Note_on_c, 0, 54, 12
1, 246613, Note_off_c, 0, 66, 36
1, 246642, Control_c, 0, 64, 94
1, 246716, Note_off_c, 0, 44, 39
1, 246727, Note_off_c, 0, 54, 35
1, 246732, Control_c, 0, 64, 93
1, 246791, Control_c, 0, 64, 93
1, 246806, Control_c, 0, 64, 92
1, 246820, Control_c, 0, 64, 92
1, 246835, Control_c, 0, 64, 91
1, 246850, Control_c, 0, 64, 90
1, 246864, Control_c, 0, 64, 89
1, 246879, Control_c, 0, 64, 88
1, 246894, Control_c, 0, 64, 87
1, 246909, Control_c, 0, 64, 86
1, 246924, Control_c, 0, 64, 85
1, 246938, Control_c, 0, 64, 84
1, 246953, Control_c, 0, 64, 84
1, 246968, Control_c, 0, 64, 83
1, 246983, Control_c, 0, 64, 82
1, 246998, Control_c, 0, 64, 81
1, 247012, Control_c, 0, 64, 80
1, 247021, Note_on_c, 0, 37, 28
1, 247027, Control_c, 0, 64, 78
1, 247042, Control_c, 0, 64, 76
1, 247057, Control_c, 0, 64, 74
1, 247072, Control_c, 0, 64, 70
1, 247086, Control_c, 0, 64, 63
1, 247101, Control_c, 0, 64, 0
1, 247116, Note_on_c, 0, 61, 35
1, 247128, Note_off_c, 0, 60, 34
1, 247142, Note_on_c, 0, 53, 26
1, 247316, Control_c, 0, 64, 64
1, 247331, Control_c, 0, 64, 70
1, 247346, Control_c, 0, 64, 72
1, 247352, Note_off_c, 0, 53, 41
1, 247361, Control_c, 0, 64, 75
1, 247376, Control_c, 0, 64, 79
1, 247390, Control_c, 0, 64, 86
1, 247405, Control_c, 0, 64, 94
1, 247420, Control_c, 0, 64, 102
1, 247435, Control_c, 0, 64, 110
1, 247450, Control_c, 0, 64, 119
1, 247465, Control_c, 0, 64, 127
1, 247474, Note_off_c, 0, 61, 30
1, 247566, Note_off_c, 0, 37, 47
1, 247645, Note_on_c, 0, 44, 18
1, 247951, Note_on_c, 0, 49, 34
1, 248213, Note_off_c, 0, 44, 29
1, 248294, Note_on_c, 0, 53, 31
1, 248344, Note_off_c, 0, 49, 36
1, 248395, Note_on_c, 0, 80, 61
1, 248479, Note_off_c, 0, 53, 60
1, 248688, Note_on_c, 0, 56, 35
1, 248856, Note_off_c, 0, 56, 53
1, 248915, Note_on_c, 0, 61, 33
1, 249057, Note_off_c, 0, 61, 47
1, 249104, Note_on_c, 0, 56, 23
1, 249405, Note_on_c, 0, 68, 28
1, 249420, Note_on_c, 0, 79, 50
1, 249481, Note_off_c, 0, 80, 49
1, 249775, Note_on_c, 0, 80, 60
1, 249893, Note_off_c, 0, 79, 34
1, 249931, Note_off_c, 0, 68, 28
1, 250014, Note_on_c, 0, 89, 57
1, 250093, Note_off_c, 0, 80, 55
1, 250225, Note_on_c, 0, 87, 58
1, 250257, Note_off_c, 0, 89, 56
1, 250398, Note_off_c, 0, 56, 35
1, 250401, Note_off_c, 0, 87, 61
1, 250407, Note_on_c, 0, 85, 58
1, 250578, Note_off_c, 0, 85, 59
1, 250580, Note_on_c, 0, 77, 63
1, 250750, Note_on_c, 0, 78, 65
1, 250765, Note_off_c, 0, 77, 48
1, 250919, Note_on_c, 0, 80, 64
1, 251049, Note_off_c, 0, 78, 30
1, 251126, Note_on_c, 0, 84, 58
1, 251146, Note_off_c, 0, 80, 59
1, 251224, Control_c, 0, 64, 119
1, 251238, Control_c, 0, 64, 110
1, 251253, Control_c, 0, 64, 106
1, 251268, Control_c, 0, 64, 103
1, 251298, Control_c, 0, 64, 100
1, 251327, Control_c, 0, 64, 96
1, 251336, Note_on_c, 0, 82, 63
1, 251340, Note_off_c, 0, 84, 52
1, 251342, Control_c, 0, 64, 95
1, 251356, Control_c, 0, 64, 93
1, 251371, Control_c, 0, 64, 92
1, 251386, Control_c, 0, 64, 91
1, 251401, Control_c, 0, 64, 90
1, 251416, Control_c, 0, 64, 90
1, 251432, Control_c, 0, 64, 89
1, 251447, Control_c, 0, 64, 88
1, 251461, Control_c, 0, 64, 88
1, 251476, Control_c, 0, 64, 87
1, 251491, Control_c, 0, 64, 86
1, 251521, Control_c, 0, 64, 86
1, 251535, Control_c, 0, 64, 85
1, 251537, Note_on_c, 0, 37, 37
1, 251550, Control_c, 0, 64, 85
1, 251565, Control_c, 0, 64, 84
1, 251580, Control_c, 0, 64, 83
1, 251595, Control_c, 0, 64, 79
1, 251609, Control_c, 0, 64, 73
1, 251624, Control_c, 0, 64, 65
1, 251635, Note_off_c, 0, 82, 51
1, 251636, Note_on_c, 0, 80, 57
1, 251639, Control_c, 0, 64, 0
1, 251765, Control_c, 0, 64, 68
1, 251779, Control_c, 0, 64, 73
1, 251794, Control_c, 0, 64, 75
1, 251808, Control_c, 0, 64, 78
1, 251823, Control_c, 0, 64, 81
1, 251838, Control_c, 0, 64, 85
1, 251853, Control_c, 0, 64, 90
1, 251868, Control_c, 0, 64, 94
1, 251883, Control_c, 0, 64, 98
1, 251898, Control_c, 0, 64, 102
1, 251904, Note_off_c, 0, 37, 53
1, 251913, Control_c, 0, 64, 106
1, 251927, Control_c, 0, 64, 111
1, 251942, Control_c, 0, 64, 117
1, 251957, Control_c, 0, 64, 127
1, 251982, Note_off_c, 0, 80, 37
1, 251988, Note_on_c, 0, 78, 57
1, 251989, Note_on_c, 0, 44, 26
1, 252169, Note_off_c, 0, 44, 38
1, 252251, Note_on_c, 0, 54, 37
1, 252378, Note_on_c, 0, 77, 59
1, 252464, Note_off_c, 0, 78, 32
1, 252478, Note_off_c, 0, 77, 55
1, 252498, Note_off_c, 0, 54, 33
1, 252547, Note_on_c, 0, 77, 47
1, 252559, Note_on_c, 0, 56, 38
1, 252762, Note_off_c, 0, 56, 58
1, 252805, Note_off_c, 0, 77, 58
1, 252813, Note_on_c, 0, 75, 57
1, 252828, Note_on_c, 0, 60, 37
1, 252983, Note_off_c, 0, 60, 50
1, 253024, Note_on_c, 0, 77, 62
1, 253033, Note_on_c, 0, 56, 34
1, 253051, Note_off_c, 0, 75, 54
1, 253181, Control_c, 0, 64, 115
1, 253203, Control_c, 0, 64, 107
1, 253218, Control_c, 0, 64, 103
1, 253263, Control_c, 0, 64, 100
1, 253278, Control_c, 0, 64, 97
1, 253293, Control_c, 0, 64, 94
1, 253307, Control_c, 0, 64, 91
1, 253322, Control_c, 0, 64, 88
1, 253337, Control_c, 0, 64, 86
1, 253347, Note_on_c, 0, 75, 52
1, 253351, Note_off_c, 0, 77, 52
1, 253352, Control_c, 0, 64, 85
1, 253367, Control_c, 0, 64, 83
1, 253373, Note_on_c, 0, 66, 39
1, 253381, Control_c, 0, 64, 80
1, 253396, Control_c, 0, 64, 72
1, 253411, Control_c, 0, 64, 62
1, 253425, Control_c, 0, 64, 0
1, 253470, Control_c, 0, 64, 64
1, 253485, Control_c, 0, 64, 68
1, 253499, Control_c, 0, 64, 71
1, 253514, Control_c, 0, 64, 74
1, 253529, Control_c, 0, 64, 78
1, 253544, Control_c, 0, 64, 80
1, 253556, Note_off_c, 0, 56, 33
1, 253558, Control_c, 0, 64, 81
1, 253573, Control_c, 0, 64, 82
1, 253588, Control_c, 0, 64, 83
1, 253603, Control_c, 0, 64, 85
1, 253618, Control_c, 0, 64, 88
1, 253627, Note_off_c, 0, 75, 51
1, 253629, Note_on_c, 0, 73, 57
1, 253632, Control_c, 0, 64, 90
1, 253647, Control_c, 0, 64, 91
1, 253662, Control_c, 0, 64, 92
1, 253677, Control_c, 0, 64, 93
1, 253707, Control_c, 0, 64, 94
1, 253722, Control_c, 0, 64, 97
1, 253737, Control_c, 0, 64, 101
1, 253751, Control_c, 0, 64, 106
1, 253766, Control_c, 0, 64, 110
1, 253781, Control_c, 0, 64, 113
1, 253796, Control_c, 0, 64, 116
1, 253811, Control_c, 0, 64, 119
1, 253826, Control_c, 0, 64, 127
1, 253901, Note_off_c, 0, 66, 44
1, 254059, Note_on_c, 0, 72, 51
1, 254118, Note_off_c, 0, 72, 57
1, 254128, Note_off_c, 0, 73, 34
1, 254195, Note_on_c, 0, 72, 54
1, 254434, Note_off_c, 0, 72, 55
1, 254448, Note_on_c, 0, 70, 59
1, 254667, Note_on_c, 0, 72, 63
1, 254701, Note_off_c, 0, 70, 58
1, 254908, Note_on_c, 0, 37, 37
1, 254968, Control_c, 0, 64, 101
1, 254983, Control_c, 0, 64, 79
1, 254997, Control_c, 0, 64, 64
1, 255008, Note_on_c, 0, 70, 47
1, 255012, Control_c, 0, 64, 0
1, 255014, Note_off_c, 0, 72, 50
1, 255086, Control_c, 0, 64, 65
1, 255101, Control_c, 0, 64, 68
1, 255116, Control_c, 0, 64, 71
1, 255131, Control_c, 0, 64, 73
1, 255145, Control_c, 0, 64, 76
1, 255160, Control_c, 0, 64, 81
1, 255175, Control_c, 0, 64, 86
1, 255190, Control_c, 0, 64, 91
1, 255204, Control_c, 0, 64, 95
1, 255219, Control_c, 0, 64, 98
1, 255234, Control_c, 0, 64, 102
1, 255249, Control_c, 0, 64, 105
1, 255260, Note_off_c, 0, 37, 60
1, 255264, Control_c, 0, 64, 111
1, 255278, Note_on_c, 0, 44, 36
1, 255278, Control_c, 0, 64, 117
1, 255293, Control_c, 0, 64, 127
1, 255378, Note_off_c, 0, 70, 36
1, 255400, Note_off_c, 0, 44, 55
1, 255541, Note_on_c, 0, 68, 45
1, 255558, Note_on_c, 0, 53, 4
1, 255576, Note_off_c, 0, 53, 0
1, 255609, Poly_aftertouch_c, 0, 53, 0
1, 255782, Note_on_c, 0, 56, 35
1, 255807, Note_off_c, 0, 68, 51
1, 255815, Note_on_c, 0, 67, 45
1, 255978, Note_on_c, 0, 68, 55
1, 255982, Note_off_c, 0, 67, 54
1, 256011, Note_on_c, 0, 61, 33
1, 256019, Note_off_c, 0, 56, 36
1, 256107, Note_on_c, 0, 70, 62
1, 256134, Note_off_c, 0, 68, 52
1, 256150, Note_on_c, 0, 65, 31
1, 256157, Note_off_c, 0, 61, 36
1, 256223, Note_off_c, 0, 70, 63
1, 256239, Note_on_c, 0, 72, 67
1, 256261, Note_off_c, 0, 65, 38
1, 256294, Note_on_c, 0, 61, 31
1, 256354, Note_off_c, 0, 61, 41
1, 256354, Note_off_c, 0, 72, 57
1, 256356, Note_on_c, 0, 73, 67
1, 256390, Note_on_c, 0, 56, 39
1, 256452, Note_on_c, 0, 75, 70
1, 256468, Note_off_c, 0, 73, 55
1, 256480, Control_c, 0, 64, 100
1, 256495, Control_c, 0, 64, 81
1, 256510, Control_c, 0, 64, 67
1, 256524, Control_c, 0, 64, 0
1, 256539, Control_c, 0, 64, 64
1, 256554, Control_c, 0, 64, 68
1, 256555, Note_off_c, 0, 75, 62
1, 256562, Note_on_c, 0, 77, 69
1, 256568, Note_on_c, 0, 68, 43
1, 256569, Control_c, 0, 64, 73
1, 256584, Control_c, 0, 64, 79
1, 256598, Control_c, 0, 64, 86
1, 256613, Control_c, 0, 64, 91
1, 256628, Control_c, 0, 64, 94
1, 256643, Control_c, 0, 64, 97
1, 256658, Control_c, 0, 64, 102
1, 256663, Note_on_c, 0, 78, 74
1, 256664, Note_off_c, 0, 77, 58
1, 256673, Control_c, 0, 64, 108
1, 256688, Control_c, 0, 64, 116
1, 256703, Control_c, 0, 64, 127
1, 256753, Note_on_c, 0, 80, 78
1, 256768, Note_off_c, 0, 78, 59
1, 256853, Note_on_c, 0, 82, 73
1, 256859, Note_off_c, 0, 80, 63
1, 256864, Note_off_c, 0, 68, 52
1, 256916, Note_off_c, 0, 82, 61
1, 256953, Note_on_c, 0, 84, 76
1, 257043, Note_on_c, 0, 85, 73
1, 257044, Note_off_c, 0, 84, 61
1, 257138, Note_on_c, 0, 87, 77
1, 257152, Note_off_c, 0, 85, 61
1, 257153, Note_off_c, 0, 56, 57
1, 257227, Note_off_c, 0, 87, 65
1, 257235, Note_on_c, 0, 89, 85
1, 257335, Note_on_c, 0, 90, 81
1, 257357, Note_off_c, 0, 89, 57
1, 257412, Note_on_c, 0, 92, 69
1, 257417, Note_off_c, 0, 90, 63
1, 257439, Note_off_c, 0, 92, 67
1, 257579, Note_on_c, 0, 101, 64
1, 257739, Note_on_c, 0, 99, 78
1, 257811, Note_off_c, 0, 101, 58
1, 257901, Note_on_c, 0, 37, 47
1, 257978, Control_c, 0, 64, 98
1, 257993, Control_c, 0, 64, 79
1, 257998, Note_on_c, 0, 97, 72
1, 258008, Control_c, 0, 64, 64
1, 258022, Control_c, 0, 64, 0
1, 258045, Note_off_c, 0, 99, 55
1, 258111, Control_c, 0, 64, 53
1, 258126, Control_c, 0, 64, 68
1, 258140, Control_c, 0, 64, 72
1, 258155, Control_c, 0, 64, 76
1, 258170, Control_c, 0, 64, 80
1, 258185, Control_c, 0, 64, 84
1, 258200, Control_c, 0, 64, 87
1, 258204, Note_on_c, 0, 94, 76
1, 258214, Control_c, 0, 64, 90
1, 258229, Control_c, 0, 64, 93
1, 258244, Control_c, 0, 64, 96
1, 258259, Control_c, 0, 64, 99
1, 258274, Control_c, 0, 64, 102
1, 258284, Note_off_c, 0, 97, 56
1, 258289, Control_c, 0, 64, 106
1, 258304, Control_c, 0, 64, 110
1, 258318, Control_c, 0, 64, 114
1, 258332, Note_off_c, 0, 37, 59
1, 258333, Control_c, 0, 64, 116
1, 258348, Control_c, 0, 64, 120
1, 258363, Control_c, 0, 64, 127
1, 258369, Note_on_c, 0, 90, 69
1, 258370, Note_on_c, 0, 44, 40
1, 258371, Note_off_c, 0, 94, 62
1, 258516, Note_on_c, 0, 92, 73
1, 258614, Note_off_c, 0, 44, 59
1, 258617, Note_off_c, 0, 90, 49
1, 258643, Note_on_c, 0, 54, 39
1, 258645, Note_on_c, 0, 96, 73
1, 258647, Note_off_c, 0, 92, 60
1, 258746, Note_off_c, 0, 96, 61
1, 258752, Note_on_c, 0, 94, 71
1, 258854, Note_off_c, 0, 94, 63
1, 258867, Note_on_c, 0, 90, 65
1, 258884, Note_off_c, 0, 54, 39
1, 258910, Note_on_c, 0, 56, 46
1, 258994, Note_on_c, 0, 87, 59
1, 259026, Note_off_c, 0, 90, 39
1, 259055, Note_off_c, 0, 87, 64
1, 259057, Note_off_c, 0, 56, 61
1, 259093, Note_on_c, 0, 82, 65
1, 259100, Note_on_c, 0, 60, 45
1, 259147, Note_off_c, 0, 82, 45
1, 259174, Note_off_c, 0, 60, 0
1, 259174, Note_on_c, 0, 60, 7
1, 259198, Note_on_c, 0, 84, 65
1, 259249, Note_off_c, 0, 60, 44
1, 259288, Note_on_c, 0, 89, 69
1, 259290, Note_off_c, 0, 84, 61
1, 259303, Note_on_c, 0, 56, 43
1, 259395, Note_on_c, 0, 87, 65
1, 259399, Note_off_c, 0, 89, 57
1, 259504, Control_c, 0, 64, 91
1, 259518, Control_c, 0, 64, 69
1, 259528, Note_off_c, 0, 87, 61
1, 259533, Note_on_c, 0, 85, 60
1, 259533, Control_c, 0, 64, 0
1, 259550, Note_on_c, 0, 66, 44
1, 259578, Control_c, 0, 64, 64
1, 259592, Control_c, 0, 64, 72
1, 259607, Control_c, 0, 64, 81
1, 259622, Control_c, 0, 64, 92
1, 259637, Control_c, 0, 64, 98
1, 259652, Control_c, 0, 64, 100
1, 259663, Note_on_c, 0, 82, 64
1, 259666, Control_c, 0, 64, 104
1, 259671, Note_off_c, 0, 85, 62
1, 259681, Control_c, 0, 64, 111
1, 259696, Control_c, 0, 64, 127
1, 259755, Note_off_c, 0, 82, 61
1, 259756, Note_off_c, 0, 66, 63
1, 259770, Note_on_c, 0, 78, 61
1, 259866, Note_on_c, 0, 80, 60
1, 259889, Note_off_c, 0, 78, 49
1, 259950, Note_off_c, 0, 56, 56
1, 259977, Note_off_c, 0, 80, 62
1, 259981, Note_on_c, 0, 84, 66
1, 260082, Note_off_c, 0, 84, 58
1, 260088, Note_on_c, 0, 82, 64
1, 260184, Note_off_c, 0, 82, 62
1, 260195, Note_on_c, 0, 78, 60
1, 260292, Note_on_c, 0, 75, 65
1, 260316, Note_off_c, 0, 78, 54
1, 260360, Note_off_c, 0, 75, 57
1, 260405, Note_on_c, 0, 70, 55
1, 260486, Note_off_c, 0, 70, 59
1, 260503, Note_on_c, 0, 72, 54
1, 260595, Note_on_c, 0, 77, 61
1, 260599, Note_off_c, 0, 72, 58
1, 260705, Note_on_c, 0, 75, 64
1, 260846, Note_on_c, 0, 37, 38
1, 260912, Control_c, 0, 64, 108
1, 260926, Note_on_c, 0, 72, 59
1, 260927, Control_c, 0, 64, 79
1, 260942, Control_c, 0, 64, 0
1, 260944, Note_off_c, 0, 75, 56
1, 261007, Note_off_c, 0, 77, 27
1, 261017, Control_c, 0, 64, 63
1, 261031, Control_c, 0, 64, 69
1, 261046, Control_c, 0, 64, 73
1, 261052, Note_off_c, 0, 72, 57
1, 261061, Control_c, 0, 64, 76
1, 261063, Note_on_c, 0, 73, 44
1, 261076, Control_c, 0, 64, 79
1, 261087, Note_off_c, 0, 73, 53
1, 261091, Control_c, 0, 64, 83
1, 261101, Note_on_c, 0, 75, 49
1, 261106, Control_c, 0, 64, 86
1, 261121, Control_c, 0, 64, 89
1, 261135, Note_off_c, 0, 75, 58
1, 261135, Control_c, 0, 64, 92
1, 261150, Control_c, 0, 64, 94
1, 261165, Control_c, 0, 64, 97
1, 261180, Control_c, 0, 64, 100
1, 261181, Note_on_c, 0, 73, 30
1, 261195, Control_c, 0, 64, 104
1, 261210, Control_c, 0, 64, 108
1, 261213, Note_on_c, 0, 75, 48
1, 261225, Control_c, 0, 64, 113
1, 261237, Note_off_c, 0, 75, 59
1, 261239, Control_c, 0, 64, 119
1, 261247, Note_off_c, 0, 37, 60
1, 261249, Note_off_c, 0, 73, 0
1, 261254, Control_c, 0, 64, 127
1, 261260, Note_on_c, 0, 73, 28
1, 261265, Note_on_c, 0, 44, 34
1, 261287, Note_on_c, 0, 75, 51
1, 261293, Note_off_c, 0, 73, 53
1, 261313, Note_off_c, 0, 75, 61
1, 261338, Note_on_c, 0, 73, 41
1, 261364, Note_off_c, 0, 73, 54
1, 261376, Note_on_c, 0, 75, 55
1, 261400, Note_off_c, 0, 75, 61
1, 261444, Note_on_c, 0, 73, 48
1, 261448, Note_off_c, 0, 44, 58
1, 261467, Note_off_c, 0, 73, 58
1, 261482, Note_on_c, 0, 75, 56
1, 261502, Note_on_c, 0, 53, 53
1, 261502, Note_off_c, 0, 75, 62
1, 261546, Note_on_c, 0, 73, 42
1, 261551, Note_off_c, 0, 53, 57
1, 261570, Note_off_c, 0, 73, 57
1, 261573, Note_on_c, 0, 75, 61
1, 261593, Note_off_c, 0, 75, 63
1, 261627, Note_on_c, 0, 73, 51
1, 261648, Note_off_c, 0, 73, 59
1, 261669, Note_on_c, 0, 75, 57
1, 261690, Note_off_c, 0, 75, 60
1, 261718, Note_on_c, 0, 73, 59
1, 261738, Note_off_c, 0, 73, 62
1, 261752, Note_on_c, 0, 75, 64
1, 261754, Note_on_c, 0, 56, 43
1, 261770, Note_off_c, 0, 75, 64
1, 261812, Note_on_c, 0, 73, 61
1, 261829, Note_off_c, 0, 73, 65
1, 261831, Note_on_c, 0, 75, 77
1, 261840, Control_c, 0, 64, 103
1, 261855, Control_c, 0, 64, 98
1, 261875, Note_off_c, 0, 75, 57
1, 261898, Note_on_c, 0, 73, 64
1, 261899, Control_c, 0, 64, 96
1, 261913, Control_c, 0, 64, 91
1, 261928, Control_c, 0, 64, 85
1, 261943, Control_c, 0, 64, 80
1, 261958, Control_c, 0, 64, 80
1, 261973, Control_c, 0, 64, 84
1, 261988, Control_c, 0, 64, 91
1, 262003, Control_c, 0, 64, 103
1, 262018, Control_c, 0, 64, 127
1, 262072, Note_on_c, 0, 65, 53
1, 262076, Note_off_c, 0, 73, 60
1, 262078, Note_on_c, 0, 72, 68
1, 262115, Note_off_c, 0, 65, 62
1, 262219, Note_off_c, 0, 56, 61
1, 262276, Note_on_c, 0, 73, 81
1, 262396, Note_on_c, 0, 77, 75
1, 262408, Note_off_c, 0, 72, 32
1, 262429, Note_off_c, 0, 73, 60
1, 262508, Note_on_c, 0, 75, 79
1, 262665, Note_on_c, 0, 39, 54
1, 262689, Note_off_c, 0, 77, 57
1, 262697, Note_on_c, 0, 72, 70
1, 262706, Control_c, 0, 64, 97
1, 262721, Control_c, 0, 64, 71
1, 262726, Note_off_c, 0, 75, 60
1, 262736, Control_c, 0, 64, 0
1, 262766, Control_c, 0, 64, 57
1, 262781, Control_c, 0, 64, 67
1, 262796, Control_c, 0, 64, 73
1, 262810, Control_c, 0, 64, 83
1, 262817, Note_off_c, 0, 72, 57
1, 262825, Control_c, 0, 64, 94
1, 262827, Note_on_c, 0, 73, 75
1, 262840, Control_c, 0, 64, 104
1, 262854, Control_c, 0, 64, 110
1, 262858, Note_off_c, 0, 73, 61
1, 262869, Control_c, 0, 64, 119
1, 262884, Control_c, 0, 64, 127
1, 262954, Note_on_c, 0, 65, 73
1, 262960, Note_on_c, 0, 42, 62
1, 263049, Note_off_c, 0, 39, 61
1, 263054, Note_on_c, 0, 66, 70
1, 263056, Note_off_c, 0, 65, 63
1, 263150, Note_off_c, 0, 66, 57
1, 263151, Note_off_c, 0, 42, 60
1, 263156, Note_on_c, 0, 54, 71
1, 263165, Note_on_c, 0, 60, 79
1, 263190, Note_off_c, 0, 54, 63
1, 263217, Note_on_c, 0, 59, 21
1, 263256, Note_off_c, 0, 59, 49
1, 263261, Note_on_c, 0, 61, 77
1, 263294, Note_off_c, 0, 60, 55
1, 263362, Note_on_c, 0, 65, 74
1, 263383, Note_on_c, 0, 51, 71
1, 263393, Note_off_c, 0, 61, 60
1, 263479, Note_on_c, 0, 66, 82
1, 263479, Note_off_c, 0, 65, 63
1, 263521, Note_off_c, 0, 66, 65
1, 263685, Control_c, 0, 64, 94
1, 263686, Note_on_c, 0, 66, 73
1, 263696, Note_on_c, 0, 54, 64
1, 263700, Control_c, 0, 64, 73
1, 263715, Control_c, 0, 64, 0
1, 263732, Note_on_c, 0, 72, 82
1, 263734, Note_off_c, 0, 51, 62
1, 263745, Control_c, 0, 64, 62
1, 263759, Control_c, 0, 64, 66
1, 263774, Control_c, 0, 64, 75
1, 263779, Note_off_c, 0, 66, 63
1, 263789, Control_c, 0, 64, 88
1, 263804, Control_c, 0, 64, 108
1, 263819, Control_c, 0, 64, 127
1, 263872, Note_on_c, 0, 73, 85
1, 263893, Note_off_c, 0, 54, 62
1, 263926, Note_off_c, 0, 72, 55
1, 263989, Note_on_c, 0, 77, 84
1, 264006, Note_off_c, 0, 73, 60
1, 264086, Note_on_c, 0, 75, 88
1, 264180, Note_on_c, 0, 40, 66
1, 264205, Control_c, 0, 64, 98
1, 264220, Control_c, 0, 64, 76
1, 264235, Control_c, 0, 64, 68
1, 264236, Note_on_c, 0, 72, 86
1, 264249, Control_c, 0, 64, 71
1, 264262, Note_off_c, 0, 77, 55
1, 264264, Control_c, 0, 64, 77
1, 264270, Note_off_c, 0, 75, 62
1, 264279, Control_c, 0, 64, 88
1, 264294, Control_c, 0, 64, 105
1, 264308, Control_c, 0, 64, 127
1, 264341, Note_on_c, 0, 73, 82
1, 264350, Note_off_c, 0, 72, 62
1, 264361, Note_off_c, 0, 73, 69
1, 264447, Note_on_c, 0, 49, 71
1, 264475, Note_on_c, 0, 66, 80
1, 264480, Note_off_c, 0, 40, 57
1, 264508, Poly_aftertouch_c, 0, 73, 0
1, 264563, Note_on_c, 0, 67, 76
1, 264583, Note_off_c, 0, 66, 60
1, 264623, Note_off_c, 0, 49, 61
1, 264629, Note_off_c, 0, 67, 62
1, 264638, Note_on_c, 0, 55, 57
1, 264651, Note_on_c, 0, 60, 77
1, 264677, Note_off_c, 0, 55, 57
1, 264727, Note_off_c, 0, 60, 46
1, 264740, Note_on_c, 0, 61, 79
1, 264764, Note_off_c, 0, 61, 66
1, 264823, Note_on_c, 0, 52, 77
1, 264864, Control_c, 0, 64, 103
1, 264879, Control_c, 0, 64, 75
1, 264894, Control_c, 0, 64, 0
1, 264898, Note_on_c, 0, 66, 71
1, 264903, Poly_aftertouch_c, 0, 61, 0
1, 264938, Control_c, 0, 64, 69
1, 264953, Control_c, 0, 64, 78
1, 264968, Control_c, 0, 64, 89
1, 264969, Note_off_c, 0, 66, 61
1, 264982, Control_c, 0, 64, 99
1, 264984, Note_off_c, 0, 52, 50
1, 264997, Control_c, 0, 64, 103
1, 264999, Note_on_c, 0, 67, 76
1, 265013, Control_c, 0, 64, 105
1, 265028, Control_c, 0, 64, 108
1, 265043, Control_c, 0, 64, 114
1, 265057, Control_c, 0, 64, 123
1, 265072, Control_c, 0, 64, 127
1, 265148, Note_on_c, 0, 61, 59
1, 265196, Note_on_c, 0, 72, 88
1, 265203, Note_off_c, 0, 67, 61
1, 265280, Note_off_c, 0, 61, 60
1, 265326, Note_on_c, 0, 73, 87
1, 265362, Note_off_c, 0, 72, 60
1, 265436, Note_on_c, 0, 77, 90
1, 265443, Note_off_c, 0, 73, 62
1, 265530, Note_on_c, 0, 75, 89
1, 265583, Note_off_c, 0, 77, 58
1, 265669, Note_on_c, 0, 41, 70
1, 265687, Control_c, 0, 64, 117
1, 265702, Control_c, 0, 64, 83
1, 265717, Control_c, 0, 64, 0
1, 265756, Note_on_c, 0, 72, 83
1, 265801, Note_off_c, 0, 75, 61
1, 265807, Control_c, 0, 64, 73
1, 265821, Control_c, 0, 64, 80
1, 265836, Control_c, 0, 64, 87
1, 265851, Control_c, 0, 64, 92
1, 265866, Control_c, 0, 64, 96
1, 265880, Control_c, 0, 64, 103
1, 265895, Control_c, 0, 64, 112
1, 265910, Control_c, 0, 64, 127
1, 265941, Note_on_c, 0, 73, 86
1, 265973, Note_off_c, 0, 72, 59
1, 266008, Note_off_c, 0, 73, 58
1, 266011, Note_on_c, 0, 77, 72
1, 266072, Note_on_c, 0, 75, 79
1, 266094, Note_off_c, 0, 77, 60
1, 266144, Note_on_c, 0, 72, 78
1, 266144, Note_off_c, 0, 75, 60
1, 266159, Note_on_c, 0, 49, 68
1, 266173, Note_off_c, 0, 41, 55
1, 266195, Note_on_c, 0, 73, 78
1, 266205, Note_off_c, 0, 72, 61
1, 266243, Note_off_c, 0, 73, 58
1, 266250, Note_on_c, 0, 75, 76
1, 266285, Note_off_c, 0, 75, 61
1, 266298, Note_on_c, 0, 73, 76
1, 266346, Note_off_c, 0, 73, 58
1, 266349, Note_on_c, 0, 75, 77
1, 266379, Note_off_c, 0, 75, 58
1, 266387, Note_off_c, 0, 49, 62
1, 266395, Note_on_c, 0, 59, 79
1, 266397, Note_on_c, 0, 73, 77
1, 266445, Note_on_c, 0, 75, 72
1, 266446, Note_off_c, 0, 73, 62
1, 266492, Note_off_c, 0, 75, 62
1, 266492, Note_on_c, 0, 73, 76
1, 266543, Note_off_c, 0, 73, 61
1, 266546, Note_on_c, 0, 75, 73
1, 266599, Note_on_c, 0, 73, 61
1, 266599, Note_off_c, 0, 75, 64
1, 266613, Note_off_c, 0, 59, 60
1, 266640, Note_on_c, 0, 71, 83
1, 266642, Note_on_c, 0, 56, 86
1, 266644, Control_c, 0, 64, 89
1, 266650, Note_off_c, 0, 73, 61
1, 266659, Control_c, 0, 64, 73
1, 266681, Control_c, 0, 64, 70
1, 266696, Control_c, 0, 64, 73
1, 266710, Control_c, 0, 64, 78
1, 266722, Note_on_c, 0, 73, 77
1, 266725, Control_c, 0, 64, 87
1, 266733, Note_off_c, 0, 71, 61
1, 266740, Control_c, 0, 64, 100
1, 266755, Control_c, 0, 64, 119
1, 266766, Note_on_c, 0, 75, 72
1, 266770, Control_c, 0, 64, 127
1, 266771, Note_off_c, 0, 73, 61
1, 266820, Note_on_c, 0, 73, 75
1, 266867, Note_off_c, 0, 75, 62
1, 266902, Note_off_c, 0, 73, 60
1, 266918, Note_on_c, 0, 66, 80
1, 266918, Note_off_c, 0, 56, 64
1, 266945, Note_on_c, 0, 61, 94
1, 266998, Note_on_c, 0, 73, 77
1, 267013, Note_off_c, 0, 66, 62
1, 267057, Note_off_c, 0, 73, 58
1, 267061, Note_on_c, 0, 75, 76
1, 267110, Note_on_c, 0, 73, 72
1, 267116, Note_off_c, 0, 75, 61
1, 267163, Note_on_c, 0, 75, 67
1, 267168, Note_off_c, 0, 73, 61
1, 267206, Note_on_c, 0, 73, 61
1, 267225, Note_off_c, 0, 75, 57
1, 267261, Note_on_c, 0, 75, 51
1, 267272, Note_off_c, 0, 73, 60
1, 267281, Note_on_c, 0, 49, 87
1, 267311, Note_off_c, 0, 61, 57
1, 267312, Note_on_c, 0, 68, 74
1, 267312, Note_off_c, 0, 75, 61
1, 267384, Note_on_c, 0, 73, 80
1, 267401, Note_off_c, 0, 68, 62
1, 267451, Note_off_c, 0, 73, 60
1, 267464, Note_on_c, 0, 75, 63
1, 267473, Note_off_c, 0, 49, 64
1, 267492, Note_on_c, 0, 73, 70
1, 267503, Note_off_c, 0, 75, 60
1, 267564, Note_off_c, 0, 73, 61
1, 267570, Note_on_c, 0, 75, 66
1, 267591, Poly_aftertouch_c, 0, 73, 0
1, 267601, Note_on_c, 0, 73, 48
1, 267637, Note_off_c, 0, 73, 60
1, 267664, Note_on_c, 0, 71, 51
1, 267711, Note_on_c, 0, 42, 85
1, 267717, Note_on_c, 0, 30, 80
1, 267732, Note_off_c, 0, 75, 59
1, 267734, Note_on_c, 0, 73, 60
1, 267756, Control_c, 0, 64, 103
1, 267771, Control_c, 0, 64, 74
1, 267777, Note_on_c, 0, 70, 66
1, 267786, Control_c, 0, 64, 0
1, 267794, Note_off_c, 0, 73, 60
1, 267807, Note_off_c, 0, 70, 64
1, 267813, Note_on_c, 0, 75, 65
1, 267837, Note_off_c, 0, 71, 0
1, 267845, Control_c, 0, 64, 65
1, 267859, Control_c, 0, 64, 76
1, 267860, Note_on_c, 0, 71, 28
1, 267860, Note_off_c, 0, 75, 60
1, 267871, Note_on_c, 0, 73, 64
1, 267874, Note_on_c, 0, 70, 71
1, 267874, Control_c, 0, 64, 85
1, 267884, Note_off_c, 0, 30, 62
1, 267889, Note_off_c, 0, 42, 60
1, 267889, Control_c, 0, 64, 92
1, 267900, Note_off_c, 0, 73, 64
1, 267903, Note_off_c, 0, 70, 61
1, 267904, Control_c, 0, 64, 94
1, 267919, Control_c, 0, 64, 95
1, 267923, Note_on_c, 0, 75, 72
1, 267933, Control_c, 0, 64, 100
1, 267948, Control_c, 0, 64, 106
1, 267963, Control_c, 0, 64, 109
1, 267968, Note_off_c, 0, 75, 62
1, 267969, Note_on_c, 0, 73, 71
1, 267974, Note_on_c, 0, 70, 69
1, 268012, Note_off_c, 0, 70, 57
1, 268018, Note_on_c, 0, 37, 79
1, 268018, Note_on_c, 0, 49, 76
1, 268022, Control_c, 0, 64, 119
1, 268026, Note_on_c, 0, 75, 79
1, 268027, Note_off_c, 0, 73, 60
1, 268037, Control_c, 0, 64, 127
1, 268081, Note_on_c, 0, 73, 69
1, 268087, Note_off_c, 0, 75, 62
1, 268090, Note_on_c, 0, 70, 72
1, 268096, Note_off_c, 0, 37, 61
1, 268104, Note_off_c, 0, 49, 62
1, 268121, Note_off_c, 0, 70, 63
1, 268132, Note_on_c, 0, 75, 77
1, 268142, Note_off_c, 0, 73, 61
1, 268196, Note_off_c, 0, 75, 62
1, 268197, Note_on_c, 0, 73, 58
1, 268205, Note_on_c, 0, 70, 63
1, 268224, Control_c, 0, 64, 111
1, 268239, Note_off_c, 0, 70, 65
1, 268248, Note_on_c, 0, 75, 73
1, 268250, Note_off_c, 0, 73, 59
1, 268253, Control_c, 0, 64, 109
1, 268254, Note_on_c, 0, 44, 74
1, 268254, Note_on_c, 0, 56, 78
1, 268268, Control_c, 0, 64, 104
1, 268282, Control_c, 0, 64, 98
1, 268297, Control_c, 0, 64, 93
1, 268298, Note_on_c, 0, 73, 59
1, 268302, Note_off_c, 0, 56, 59
1, 268303, Note_off_c, 0, 75, 62
1, 268312, Control_c, 0, 64, 89
1, 268313, Note_on_c, 0, 70, 69
1, 268327, Control_c, 0, 64, 86
1, 268342, Control_c, 0, 64, 86
1, 268344, Note_off_c, 0, 70, 58
1, 268354, Note_on_c, 0, 75, 76
1, 268356, Control_c, 0, 64, 86
1, 268358, Note_off_c, 0, 44, 60
1, 268358, Note_off_c, 0, 73, 62
1, 268371, Control_c, 0, 64, 88
1, 268386, Control_c, 0, 64, 89
1, 268400, Control_c, 0, 64, 89
1, 268410, Note_off_c, 0, 75, 63
1, 268412, Note_on_c, 0, 73, 59
1, 268415, Control_c, 0, 64, 81
1, 268421, Note_on_c, 0, 70, 68
1, 268430, Control_c, 0, 64, 64
1, 268445, Control_c, 0, 64, 0
1, 268452, Note_off_c, 0, 70, 64
1, 268459, Note_on_c, 0, 75, 76
1, 268462, Note_off_c, 0, 73, 60
1, 268465, Note_on_c, 0, 42, 71
1, 268471, Note_on_c, 0, 54, 73
1, 268505, Note_off_c, 0, 54, 64
1, 268518, Note_off_c, 0, 75, 62
1, 268519, Control_c, 0, 64, 72
1, 268522, Note_on_c, 0, 73, 59
1, 268525, Note_on_c, 0, 70, 70
1, 268529, Note_off_c, 0, 42, 61
1, 268534, Control_c, 0, 64, 77
1, 268549, Control_c, 0, 64, 81
1, 268560, Note_off_c, 0, 70, 61
1, 268564, Note_on_c, 0, 75, 75
1, 268564, Control_c, 0, 64, 83
1, 268570, Note_off_c, 0, 73, 62
1, 268571, Note_off_c, 0, 71, 0
1, 268578, Note_on_c, 0, 56, 81
1, 268579, Control_c, 0, 64, 85
1, 268581, Note_on_c, 0, 44, 71
1, 268593, Control_c, 0, 64, 88
1, 268604, Note_on_c, 0, 71, 27
1, 268607, Note_off_c, 0, 56, 67
1, 268608, Control_c, 0, 64, 93
1, 268617, Note_off_c, 0, 44, 63
1, 268617, Note_off_c, 0, 75, 63
1, 268623, Control_c, 0, 64, 97
1, 268628, Note_on_c, 0, 73, 53
1, 268632, Note_on_c, 0, 70, 74
1, 268669, Note_off_c, 0, 70, 61
1, 268672, Note_on_c, 0, 75, 81
1, 268674, Note_on_c, 0, 46, 75
1, 268679, Note_on_c, 0, 58, 81
1, 268680, Note_off_c, 0, 73, 63
1, 268697, Control_c, 0, 64, 102
1, 268700, Note_off_c, 0, 71, 0
1, 268712, Control_c, 0, 64, 115
1, 268713, Note_off_c, 0, 58, 61
1, 268716, Note_on_c, 0, 71, 37
1, 268727, Control_c, 0, 64, 127
1, 268731, Note_on_c, 0, 73, 55
1, 268733, Note_off_c, 0, 75, 62
1, 268743, Note_on_c, 0, 70, 66
1, 268750, Note_off_c, 0, 46, 62
1, 268767, Note_off_c, 0, 70, 65
1, 268774, Note_off_c, 0, 71, 0
1, 268788, Note_on_c, 0, 75, 74
1, 268792, Note_off_c, 0, 73, 61
1, 268811, Poly_aftertouch_c, 0, 71, 127
1, 268844, Note_off_c, 0, 75, 60
1, 268854, Note_on_c, 0, 70, 55
1, 268859, Note_on_c, 0, 73, 48
1, 268889, Note_off_c, 0, 70, 62
1, 268898, Note_on_c, 0, 75, 75
1, 268904, Note_off_c, 0, 73, 61
1, 268913, Note_on_c, 0, 37, 86
1, 268929, Note_on_c, 0, 49, 63
1, 268950, Note_off_c, 0, 49, 62
1, 268957, Note_off_c, 0, 37, 63
1, 268974, Note_off_c, 0, 75, 0
1, 268983, Note_on_c, 0, 70, 63
1, 268988, Note_on_c, 0, 73, 51
1, 269010, Note_off_c, 0, 70, 67
1, 269011, Poly_aftertouch_c, 0, 71, 0
1, 269012, Poly_aftertouch_c, 0, 75, 127
1, 269032, Note_off_c, 0, 73, 53
1, 269046, Control_c, 0, 64, 117
1, 269061, Control_c, 0, 64, 94
1, 269076, Control_c, 0, 64, 72
1, 269091, Control_c, 0, 64, 0
1, 269139, Note_on_c, 0, 30, 84
1, 269142, Note_on_c, 0, 42, 83
1, 269179, Control_c, 0, 64, 64
1, 269194, Control_c, 0, 64, 76
1, 269209, Control_c, 0, 64, 82
1, 269223, Note_off_c, 0, 30, 63
1, 269223, Control_c, 0, 64, 87
1, 269232, Note_off_c, 0, 42, 60
1, 269238, Control_c, 0, 64, 89
1, 269253, Control_c, 0, 64, 93
1, 269268, Control_c, 0, 64, 100
1, 269283, Control_c, 0, 64, 108
1, 269297, Control_c, 0, 64, 122
1, 269312, Control_c, 0, 64, 127
1, 269384, Note_on_c, 0, 72, 92
1, 269397, Note_on_c, 0, 69, 64
1, 269401, Poly_aftertouch_c, 0, 75, 0
1, 269404, Note_on_c, 0, 37, 59
1, 269407, Note_on_c, 0, 49, 60
1, 269454, Note_off_c, 0, 37, 62
1, 269468, Note_off_c, 0, 49, 62
1, 269598, Note_on_c, 0, 73, 82
1, 269606, Note_on_c, 0, 70, 80
1, 269618, Note_on_c, 0, 56, 68
1, 269621, Note_on_c, 0, 44, 61
1, 269622, Note_off_c, 0, 69, 60
1, 269628, Note_off_c, 0, 72, 61
1, 269658, Note_off_c, 0, 73, 63
1, 269662, Note_off_c, 0, 56, 58
1, 269710, Note_off_c, 0, 44, 58
1, 269721, Note_on_c, 0, 73, 82
1, 269780, Note_on_c, 0, 77, 82
1, 269787, Note_off_c, 0, 73, 62
1, 269795, Control_c, 0, 64, 106
1, 269807, Note_off_c, 0, 70, 38
1, 269810, Control_c, 0, 64, 76
1, 269825, Control_c, 0, 64, 0
1, 269828, Poly_aftertouch_c, 0, 44, 0
1, 269852, Note_on_c, 0, 75, 87
1, 269858, Note_on_c, 0, 54, 62
1, 269858, Note_on_c, 0, 42, 61
1, 269869, Control_c, 0, 64, 64
1, 269871, Poly_aftertouch_c, 0, 71, 127
1, 269884, Control_c, 0, 64, 71
1, 269887, Poly_aftertouch_c, 0, 71, 0
1, 269899, Control_c, 0, 64, 80
1, 269905, Note_off_c, 0, 54, 61
1, 269911, Note_off_c, 0, 77, 59
1, 269914, Control_c, 0, 64, 92
1, 269929, Control_c, 0, 64, 103
1, 269944, Control_c, 0, 64, 110
1, 269946, Note_off_c, 0, 42, 46
1, 269959, Note_on_c, 0, 44, 66
1, 269959, Control_c, 0, 64, 117
1, 269968, Note_on_c, 0, 56, 76
1, 269974, Control_c, 0, 64, 127
1, 270015, Note_off_c, 0, 56, 63
1, 270021, Note_off_c, 0, 44, 62
1, 270081, Note_on_c, 0, 73, 88
1, 270099, Note_on_c, 0, 58, 76
1, 270102, Note_on_c, 0, 66, 67
1, 270115, Note_off_c, 0, 75, 63
1, 270119, Note_on_c, 0, 47, 54
1, 270119, Note_off_c, 0, 66, 65
1, 270127, Note_on_c, 0, 49, 36
1, 270128, Note_off_c, 0, 58, 64
1, 270145, Note_off_c, 0, 47, 58
1, 270161, Note_off_c, 0, 49, 53
1, 270217, Poly_aftertouch_c, 0, 48, 0
1, 270302, Note_on_c, 0, 49, 71
1, 270317, Note_on_c, 0, 70, 89
1, 270328, Note_on_c, 0, 66, 77
1, 270346, Note_off_c, 0, 49, 63
1, 270355, Note_off_c, 0, 73, 61
1, 270364, Poly_aftertouch_c, 0, 61, 127
1, 270392, Poly_aftertouch_c, 0, 61, 0
1, 270549, Note_on_c, 0, 30, 54
1, 270572, Control_c, 0, 64, 89
1, 270587, Control_c, 0, 64, 67
1, 270603, Control_c, 0, 64, 0
1, 270615, Note_on_c, 0, 42, 66
1, 270627, Note_on_c, 0, 78, 86
1, 270630, Note_on_c, 0, 75, 82
1, 270647, Note_off_c, 0, 66, 61
1, 270647, Control_c, 0, 64, 68
1, 270662, Control_c, 0, 64, 79
1, 270673, Note_off_c, 0, 70, 57
1, 270675, Note_off_c, 0, 30, 62
1, 270677, Control_c, 0, 64, 92
1, 270692, Control_c, 0, 64, 115
1, 270703, Note_off_c, 0, 42, 58
1, 270707, Control_c, 0, 64, 127
1, 270864, Note_on_c, 0, 70, 87
1, 270866, Note_on_c, 0, 49, 63
1, 270868, Note_on_c, 0, 37, 68
1, 270872, Note_on_c, 0, 66, 77
1, 270885, Note_off_c, 0, 75, 62
1, 270889, Note_off_c, 0, 78, 62
1, 270915, Note_off_c, 0, 37, 62
1, 270923, Note_off_c, 0, 49, 62
1, 271073, Note_on_c, 0, 71, 80
1, 271075, Note_on_c, 0, 75, 90
1, 271080, Note_on_c, 0, 44, 65
1, 271095, Note_on_c, 0, 56, 41
1, 271101, Note_off_c, 0, 70, 62
1, 271123, Note_off_c, 0, 56, 52
1, 271126, Note_off_c, 0, 44, 60
1, 271147, Note_off_c, 0, 66, 35
1, 271247, Control_c, 0, 64, 95
1, 271262, Control_c, 0, 64, 70
1, 271266, Note_off_c, 0, 75, 62
1, 271276, Control_c, 0, 64, 0
1, 271299, Note_on_c, 0, 42, 59
1, 271312, Note_on_c, 0, 54, 60
1, 271315, Note_on_c, 0, 73, 84
1, 271319, Note_on_c, 0, 70, 70
1, 271336, Control_c, 0, 64, 66
1, 271348, Note_off_c, 0, 71, 60
1, 271351, Note_off_c, 0, 54, 65
1, 271351, Control_c, 0, 64, 76
1, 271365, Note_off_c, 0, 42, 57
1, 271366, Control_c, 0, 64, 86
1, 271371, Note_off_c, 0, 70, 57
1, 271381, Control_c, 0, 64, 99
1, 271396, Control_c, 0, 64, 110
1, 271411, Control_c, 0, 64, 119
1, 271417, Note_on_c, 0, 56, 77
1, 271420, Note_on_c, 0, 44, 70
1, 271426, Control_c, 0, 64, 127
1, 271452, Note_off_c, 0, 56, 64
1, 271464, Note_off_c, 0, 44, 61
1, 271517, Note_on_c, 0, 46, 39
1, 271531, Note_on_c, 0, 58, 60
1, 271543, Note_on_c, 0, 66, 86
1, 271548, Note_on_c, 0, 61, 80
1, 271554, Note_off_c, 0, 58, 65
1, 271565, Note_off_c, 0, 73, 60
1, 271598, Note_off_c, 0, 46, 61
1, 271759, Note_on_c, 0, 37, 64
1, 271765, Note_on_c, 0, 71, 87
1, 271781, Note_on_c, 0, 68, 66
1, 271804, Note_off_c, 0, 37, 60
1, 271813, Poly_aftertouch_c, 0, 49, 127
1, 271820, Note_off_c, 0, 66, 60
1, 271845, Note_off_c, 0, 68, 58
1, 271850, Poly_aftertouch_c, 0, 49, 0
1, 271966, Control_c, 0, 64, 107
1, 271977, Note_off_c, 0, 61, 51
1, 271981, Control_c, 0, 64, 75
1, 271996, Control_c, 0, 64, 0
1, 272030, Note_on_c, 0, 30, 67
1, 272033, Note_on_c, 0, 42, 72
1, 272034, Note_on_c, 0, 70, 84
1, 272063, Note_on_c, 0, 66, 49
1, 272071, Note_off_c, 0, 71, 62
1, 272085, Control_c, 0, 64, 62
1, 272099, Note_off_c, 0, 66, 45
1, 272099, Control_c, 0, 64, 72
1, 272101, Note_off_c, 0, 30, 60
1, 272108, Note_off_c, 0, 42, 61
1, 272114, Control_c, 0, 64, 78
1, 272129, Control_c, 0, 64, 84
1, 272144, Control_c, 0, 64, 90
1, 272159, Control_c, 0, 64, 95
1, 272174, Control_c, 0, 64, 101
1, 272189, Control_c, 0, 64, 107
1, 272204, Control_c, 0, 64, 116
1, 272219, Control_c, 0, 64, 127
1, 272256, Note_on_c, 0, 37, 60
1, 272271, Note_on_c, 0, 46, 32
1, 272282, Note_on_c, 0, 48, 35
1, 272305, Note_off_c, 0, 46, 51
1, 272309, Note_off_c, 0, 37, 61
1, 272317, Note_off_c, 0, 48, 48
1, 272442, Note_on_c, 0, 56, 77
1, 272448, Note_on_c, 0, 44, 74
1, 272498, Note_off_c, 0, 56, 64
1, 272521, Note_off_c, 0, 44, 62
1, 272634, Control_c, 0, 64, 123
1, 272648, Control_c, 0, 64, 83
1, 272671, Control_c, 0, 64, 63
1, 272686, Control_c, 0, 64, 0
1, 272698, Note_on_c, 0, 42, 67
1, 272707, Note_on_c, 0, 54, 64
1, 272707, Note_on_c, 0, 64, 76
1, 272730, Control_c, 0, 64, 67
1, 272739, Note_off_c, 0, 54, 63
1, 272742, Note_off_c, 0, 42, 59
1, 272745, Control_c, 0, 64, 75
1, 272758, Control_c, 0, 64, 85
1, 272773, Control_c, 0, 64, 97
1, 272788, Control_c, 0, 64, 104
1, 272801, Note_on_c, 0, 56, 81
1, 272803, Control_c, 0, 64, 107
1, 272804, Note_on_c, 0, 44, 72
1, 272818, Control_c, 0, 64, 118
1, 272831, Note_off_c, 0, 56, 65
1, 272832, Control_c, 0, 64, 127
1, 272840, Note_off_c, 0, 44, 64
1, 272860, Note_off_c, 0, 70, 61
1, 272868, Note_off_c, 0, 64, 65
1, 272901, Note_on_c, 0, 46, 81
1, 272901, Note_on_c, 0, 58, 83
1, 272940, Note_off_c, 0, 58, 55
1, 272960, Note_off_c, 0, 46, 61
1, 273132, Note_on_c, 0, 49, 79
1, 273137, Note_on_c, 0, 61, 34
1, 273164, Note_off_c, 0, 49, 66
1, 273170, Note_off_c, 0, 61, 56
1, 273176, Note_on_c, 0, 63, 78
1, 273216, Note_on_c, 0, 70, 75
1, 273268, Note_off_c, 0, 63, 61
1, 273292, Note_off_c, 0, 70, 65
1, 273298, Note_on_c, 0, 71, 79
1, 273433, Control_c, 0, 64, 116
1, 273448, Control_c, 0, 64, 73
1, 273457, Note_on_c, 0, 30, 62
1, 273463, Control_c, 0, 64, 0
1, 273464, Note_on_c, 0, 42, 78
1, 273465, Note_on_c, 0, 78, 89
1, 273477, Note_off_c, 0, 71, 63
1, 273521, Note_off_c, 0, 30, 62
1, 273522, Control_c, 0, 64, 67
1, 273529, Note_off_c, 0, 42, 61
1, 273537, Control_c, 0, 64, 79
1, 273552, Control_c, 0, 64, 96
1, 273567, Control_c, 0, 64, 127
1, 273619, Note_off_c, 0, 78, 61
1, 273720, Note_on_c, 0, 54, 83
1, 273721, Note_on_c, 0, 42, 82
1, 273768, Note_off_c, 0, 42, 59
1, 273768, Note_off_c, 0, 54, 63
1, 273929, Note_on_c, 0, 61, 81
1, 273929, Note_on_c, 0, 49, 82
1, 273979, Note_off_c, 0, 61, 59
1, 274113, Note_off_c, 0, 49, 57
1, 274130, Control_c, 0, 64, 82
1, 274145, Control_c, 0, 64, 0
1, 274150, Note_on_c, 0, 78, 91
1, 274157, Note_on_c, 0, 66, 82
1, 274169, Note_on_c, 0, 59, 64
1, 274171, Note_on_c, 0, 75, 76
1, 274172, Note_on_c, 0, 47, 63
1, 274197, Note_off_c, 0, 59, 64
1, 274212, Control_c, 0, 64, 64
1, 274222, Note_off_c, 0, 47, 58
1, 274227, Control_c, 0, 64, 73
1, 274242, Control_c, 0, 64, 81
1, 274257, Control_c, 0, 64, 92
1, 274268, Note_on_c, 0, 49, 81
1, 274270, Note_on_c, 0, 61, 82
1, 274272, Control_c, 0, 64, 103
1, 274286, Control_c, 0, 64, 113
1, 274300, Note_off_c, 0, 61, 64
1, 274301, Control_c, 0, 64, 127
1, 274321, Note_off_c, 0, 49, 61
1, 274374, Note_on_c, 0, 51, 87
1, 274380, Note_on_c, 0, 63, 82
1, 274403, Note_off_c, 0, 63, 68
1, 274439, Note_off_c, 0, 51, 61
1, 274519, Poly_aftertouch_c, 0, 63, 127
1, 274540, Poly_aftertouch_c, 0, 63, 0
1, 274591, Note_on_c, 0, 42, 89
1, 274591, Note_on_c, 0, 54, 80
1, 274613, Note_off_c, 0, 54, 67
1, 274647, Note_off_c, 0, 42, 59
1, 274690, Note_on_c, 0, 54, 16
1, 274694, Note_off_c, 0, 75, 49
1, 274724, Note_off_c, 0, 54, 44
1, 274791, Control_c, 0, 64, 84
1, 274806, Control_c, 0, 64, 0
1, 274830, Note_on_c, 0, 42, 81
1, 274832, Note_on_c, 0, 30, 81
1, 274865, Control_c, 0, 64, 67
1, 274880, Control_c, 0, 64, 80
1, 274895, Note_off_c, 0, 30, 62
1, 274895, Control_c, 0, 64, 96
1, 274901, Note_off_c, 0, 42, 61
1, 274916, Control_c, 0, 64, 114
1, 274931, Control_c, 0, 64, 127
1, 274987, Note_off_c, 0, 66, 62
1, 275032, Note_off_c, 0, 78, 60
1, 275079, Note_on_c, 0, 42, 71
1, 275087, Note_on_c, 0, 54, 71
1, 275089, Note_on_c, 0, 65, 84
1, 275089, Note_on_c, 0, 77, 100
1, 275099, Note_on_c, 0, 74, 75
1, 275148, Note_off_c, 0, 54, 61
1, 275150, Note_off_c, 0, 42, 60
1, 275152, Note_off_c, 0, 74, 44
1, 275191, Note_off_c, 0, 65, 64
1, 275305, Note_off_c, 0, 77, 0
1, 275313, Note_on_c, 0, 49, 66
1, 275318, Note_on_c, 0, 66, 88
1, 275318, Note_on_c, 0, 78, 96
1, 275320, Note_on_c, 0, 61, 64
1, 275323, Note_on_c, 0, 75, 80
1, 275334, Poly_aftertouch_c, 0, 77, 0
1, 275351, Note_off_c, 0, 66, 61
1, 275355, Note_off_c, 0, 61, 63
1, 275361, Note_off_c, 0, 75, 58
1, 275392, Note_off_c, 0, 78, 61
1, 275518, Note_on_c, 0, 82, 87
1, 275519, Note_off_c, 0, 49, 60
1, 275524, Control_c, 0, 64, 93
1, 275539, Note_on_c, 0, 68, 59
1, 275539, Control_c, 0, 64, 67
1, 275541, Note_on_c, 0, 47, 64
1, 275543, Note_on_c, 0, 80, 76
1, 275548, Note_on_c, 0, 59, 61
1, 275554, Control_c, 0, 64, 0
1, 275567, Note_on_c, 0, 70, 54
1, 275576, Note_off_c, 0, 59, 64
1, 275584, Note_on_c, 0, 81, 44
1, 275589, Note_off_c, 0, 70, 58
1, 275599, Control_c, 0, 64, 63
1, 275599, Note_off_c, 0, 82, 62
1, 275608, Note_off_c, 0, 47, 60
1, 275611, Note_off_c, 0, 81, 51
1, 275614, Control_c, 0, 64, 74
1, 275616, Note_off_c, 0, 68, 61
1, 275629, Control_c, 0, 64, 84
1, 275643, Control_c, 0, 64, 99
1, 275647, Note_on_c, 0, 49, 76
1, 275665, Control_c, 0, 64, 121
1, 275667, Note_on_c, 0, 61, 82
1, 275680, Control_c, 0, 64, 127
1, 275700, Note_off_c, 0, 61, 62
1, 275722, Note_off_c, 0, 49, 63
1, 275767, Note_on_c, 0, 63, 92
1, 275768, Note_on_c, 0, 51, 86
1, 275775, Note_on_c, 0, 78, 94
1, 275785, Note_on_c, 0, 71, 78
1, 275810, Note_off_c, 0, 71, 66
1, 275811, Note_off_c, 0, 63, 62
1, 275841, Note_off_c, 0, 51, 60
1, 275970, Note_off_c, 0, 80, 53
1, 275999, Note_on_c, 0, 66, 50
1, 276008, Note_on_c, 0, 54, 79
1, 276008, Note_on_c, 0, 75, 93
1, 276013, Note_on_c, 0, 71, 79
1, 276024, Note_off_c, 0, 66, 54
1, 276040, Note_off_c, 0, 71, 65
1, 276058, Note_off_c, 0, 54, 63
1, 276078, Note_off_c, 0, 75, 63
1, 276085, Note_off_c, 0, 78, 60
1, 276119, Poly_aftertouch_c, 0, 80, 0
1, 276242, Note_on_c, 0, 30, 31
1, 276290, Note_off_c, 0, 30, 0
1, 276303, Control_c, 0, 64, 98
1, 276318, Control_c, 0, 64, 71
1, 276319, Note_on_c, 0, 42, 79
1, 276324, Note_on_c, 0, 83, 92
1, 276326, Note_on_c, 0, 75, 90
1, 276328, Note_on_c, 0, 87, 93
1, 276328, Poly_aftertouch_c, 0, 30, 127
1, 276332, Control_c, 0, 64, 0
1, 276362, Control_c, 0, 64, 68
1, 276377, Control_c, 0, 64, 75
1, 276392, Control_c, 0, 64, 88
1, 276400, Poly_aftertouch_c, 0, 30, 0
1, 276414, Control_c, 0, 64, 108
1, 276427, Note_off_c, 0, 42, 60
1, 276429, Control_c, 0, 64, 127
1, 276502, Note_off_c, 0, 87, 62
1, 276514, Note_off_c, 0, 75, 61
1, 276631, Note_on_c, 0, 85, 97
1, 276639, Note_on_c, 0, 42, 65
1, 276639, Note_on_c, 0, 54, 75
1, 276639, Note_on_c, 0, 73, 89
1, 276645, Note_on_c, 0, 82, 77
1, 276660, Note_off_c, 0, 83, 59
1, 276672, Note_off_c, 0, 73, 57
1, 276672, Note_off_c, 0, 82, 64
1, 276683, Note_off_c, 0, 54, 61
1, 276685, Note_off_c, 0, 42, 61
1, 276690, Note_off_c, 0, 85, 66
1, 276849, Note_on_c, 0, 49, 58
1, 276850, Note_on_c, 0, 61, 66
1, 276858, Note_on_c, 0, 66, 64
1, 276858, Note_on_c, 0, 75, 74
1, 276860, Note_on_c, 0, 78, 78
1, 276883, Note_on_c, 0, 68, 47
1, 276908, Note_off_c, 0, 68, 56
1, 276910, Note_off_c, 0, 66, 62
1, 276913, Note_off_c, 0, 61, 60
1, 276960, Note_off_c, 0, 78, 61
1, 277023, Control_c, 0, 64, 112
1, 277037, Control_c, 0, 64, 75
1, 277038, Note_off_c, 0, 49, 61
1, 277052, Control_c, 0, 64, 0
1, 277061, Note_on_c, 0, 47, 59
1, 277062, Note_on_c, 0, 59, 60
1, 277068, Note_on_c, 0, 83, 87
1, 277076, Note_on_c, 0, 71, 67
1, 277077, Note_on_c, 0, 80, 81
1, 277086, Note_off_c, 0, 59, 63
1, 277097, Control_c, 0, 64, 23
1, 277111, Note_off_c, 0, 75, 60
1, 277111, Control_c, 0, 64, 68
1, 277116, Note_off_c, 0, 47, 60
1, 277126, Control_c, 0, 64, 78
1, 277141, Control_c, 0, 64, 89
1, 277163, Control_c, 0, 64, 105
1, 277170, Note_on_c, 0, 49, 75
1, 277178, Control_c, 0, 64, 120
1, 277185, Note_on_c, 0, 61, 77
1, 277193, Control_c, 0, 64, 127
1, 277199, Note_off_c, 0, 71, 49
1, 277207, Note_off_c, 0, 83, 57
1, 277211, Note_off_c, 0, 61, 66
1, 277229, Note_off_c, 0, 49, 63
1, 277280, Note_on_c, 0, 63, 85
1, 277285, Note_on_c, 0, 51, 74
1, 277292, Note_on_c, 0, 71, 78
1, 277294, Note_on_c, 0, 75, 89
1, 277315, Note_off_c, 0, 63, 57
1, 277344, Note_off_c, 0, 71, 62
1, 277348, Note_off_c, 0, 80, 59
1, 277366, Note_off_c, 0, 51, 61
1, 277506, Note_on_c, 0, 70, 88
1, 277515, Note_on_c, 0, 82, 81
1, 277515, Note_on_c, 0, 42, 73
1, 277519, Note_on_c, 0, 78, 76
1, 277548, Note_off_c, 0, 42, 63
1, 277560, Note_on_c, 0, 41, 23
1, 277602, Note_off_c, 0, 41, 39
1, 277629, Note_off_c, 0, 78, 60
1, 277642, Note_off_c, 0, 82, 61
1, 277644, Poly_aftertouch_c, 0, 80, 0
1, 277666, Note_off_c, 0, 70, 60
1, 277726, Control_c, 0, 64, 109
1, 277741, Control_c, 0, 64, 76
1, 277755, Control_c, 0, 64, 0
1, 277766, Note_on_c, 0, 77, 82
1, 277767, Note_on_c, 0, 80, 82
1, 277769, Note_on_c, 0, 42, 67
1, 277772, Note_on_c, 0, 30, 78
1, 277772, Note_on_c, 0, 68, 78
1, 277786, Control_c, 0, 64, 62
1, 277792, Note_off_c, 0, 75, 62
1, 277801, Control_c, 0, 64, 69
1, 277816, Control_c, 0, 64, 79
1, 277823, Note_off_c, 0, 30, 62
1, 277831, Control_c, 0, 64, 94
1, 277832, Note_off_c, 0, 42, 61
1, 277846, Control_c, 0, 64, 118
1, 277860, Control_c, 0, 64, 127
1, 277893, Note_off_c, 0, 80, 63
1, 277902, Note_off_c, 0, 68, 63
1, 277990, Note_on_c, 0, 49, 63
1, 277997, Note_on_c, 0, 78, 87
1, 277998, Note_on_c, 0, 37, 62
1, 277998, Note_on_c, 0, 75, 81
1, 278002, Note_on_c, 0, 66, 82
1, 278013, Note_off_c, 0, 77, 59
1, 278028, Note_off_c, 0, 75, 63
1, 278034, Note_off_c, 0, 37, 62
1, 278034, Note_off_c, 0, 49, 63
1, 278043, Note_off_c, 0, 66, 64
1, 278052, Note_off_c, 0, 78, 60
1, 278202, Note_on_c, 0, 63, 82
1, 278203, Note_on_c, 0, 75, 84
1, 278207, Note_on_c, 0, 71, 69
1, 278212, Note_on_c, 0, 41, 70
1, 278213, Note_on_c, 0, 53, 67
1, 278242, Note_off_c, 0, 53, 66
1, 278254, Note_off_c, 0, 41, 59
1, 278299, Note_off_c, 0, 63, 61
1, 278353, Note_off_c, 0, 75, 61
1, 278371, Control_c, 0, 64, 117
1, 278386, Control_c, 0, 64, 76
1, 278387, Note_on_c, 0, 54, 59
1, 278392, Note_on_c, 0, 42, 50
1, 278401, Control_c, 0, 64, 0
1, 278418, Note_on_c, 0, 61, 80
1, 278419, Note_on_c, 0, 73, 86
1, 278437, Note_on_c, 0, 70, 55
1, 278441, Note_off_c, 0, 54, 57
1, 278460, Control_c, 0, 64, 67
1, 278466, Note_off_c, 0, 42, 61
1, 278475, Control_c, 0, 64, 77
1, 278478, Note_off_c, 0, 71, 53
1, 278480, Note_off_c, 0, 70, 51
1, 278490, Control_c, 0, 64, 87
1, 278504, Control_c, 0, 64, 98
1, 278519, Control_c, 0, 64, 107
1, 278522, Note_off_c, 0, 61, 53
1, 278524, Note_on_c, 0, 46, 73
1, 278525, Note_on_c, 0, 58, 65
1, 278534, Control_c, 0, 64, 127
1, 278544, Note_on_c, 0, 56, 40
1, 278544, Note_on_c, 0, 44, 58
1, 278563, Note_off_c, 0, 58, 61
1, 278572, Note_off_c, 0, 56, 53
1, 278573, Note_off_c, 0, 46, 56
1, 278578, Note_off_c, 0, 44, 64
1, 278587, Poly_aftertouch_c, 0, 70, 0
1, 278630, Note_on_c, 0, 58, 88
1, 278636, Note_on_c, 0, 46, 67
1, 278650, Note_off_c, 0, 58, 69
1, 278681, Note_off_c, 0, 46, 63
1, 278830, Note_on_c, 0, 37, 68
1, 278836, Note_on_c, 0, 49, 55
1, 278847, Note_on_c, 0, 63, 79
1, 278861, Note_off_c, 0, 49, 60
1, 278874, Note_off_c, 0, 37, 62
1, 278941, Note_on_c, 0, 70, 90
1, 278949, Note_off_c, 0, 73, 60
1, 278958, Note_off_c, 0, 63, 63
1, 278970, Note_on_c, 0, 64, 60
1, 278991, Note_off_c, 0, 64, 63
1, 279114, Note_on_c, 0, 30, 71
1, 279179, Note_on_c, 0, 42, 72
1, 279179, Control_c, 0, 64, 83
1, 279194, Control_c, 0, 64, 0
1, 279236, Note_on_c, 0, 80, 95
1, 279268, Control_c, 0, 64, 44
1, 279271, Note_off_c, 0, 30, 62
1, 279283, Note_off_c, 0, 42, 61
1, 279283, Control_c, 0, 64, 72
1, 279298, Control_c, 0, 64, 81
1, 279313, Control_c, 0, 64, 91
1, 279327, Control_c, 0, 64, 104
1, 279341, Note_off_c, 0, 70, 63
1, 279342, Control_c, 0, 64, 117
1, 279354, Note_off_c, 0, 80, 62
1, 279357, Control_c, 0, 64, 127
1, 279480, Note_on_c, 0, 49, 75
1, 279482, Note_on_c, 0, 37, 74
1, 279524, Note_off_c, 0, 37, 63
1, 279531, Note_off_c, 0, 49, 63
1, 279680, Note_on_c, 0, 44, 53
1, 279689, Note_on_c, 0, 56, 71
1, 279730, Note_off_c, 0, 56, 62
1, 279859, Note_off_c, 0, 44, 57
1, 279870, Control_c, 0, 64, 119
1, 279884, Control_c, 0, 64, 82
1, 279899, Control_c, 0, 64, 64
1, 279908, Note_on_c, 0, 42, 67
1, 279909, Note_on_c, 0, 54, 59
1, 279910, Note_on_c, 0, 80, 88
1, 279912, Note_on_c, 0, 76, 86
1, 279914, Control_c, 0, 64, 0
1, 279915, Note_on_c, 0, 70, 81
1, 279929, Control_c, 0, 64, 66
1, 279944, Control_c, 0, 64, 70
1, 279955, Note_off_c, 0, 54, 62
1, 279958, Control_c, 0, 64, 79
1, 279973, Control_c, 0, 64, 92
1, 279986, Note_off_c, 0, 42, 58
1, 279988, Control_c, 0, 64, 110
1, 280003, Control_c, 0, 64, 127
1, 280015, Note_on_c, 0, 44, 69
1, 280018, Note_on_c, 0, 56, 75
1, 280059, Note_off_c, 0, 56, 64
1, 280074, Note_off_c, 0, 44, 62
1, 280128, Note_on_c, 0, 46, 79
1, 280134, Note_on_c, 0, 58, 77
1, 280168, Note_off_c, 0, 58, 65
1, 280213, Note_off_c, 0, 46, 61
1, 280352, Note_on_c, 0, 49, 75
1, 280361, Note_on_c, 0, 37, 69
1, 280370, Note_on_c, 0, 39, 59
1, 280376, Note_off_c, 0, 49, 67
1, 280394, Note_off_c, 0, 39, 58
1, 280405, Note_off_c, 0, 37, 62
1, 280560, Control_c, 0, 64, 95
1, 280562, Note_off_c, 0, 70, 37
1, 280575, Control_c, 0, 64, 68
1, 280589, Control_c, 0, 64, 0
1, 280606, Note_on_c, 0, 42, 69
1, 280607, Note_on_c, 0, 30, 80
1, 280619, Control_c, 0, 64, 66
1, 280634, Control_c, 0, 64, 74
1, 280643, Note_off_c, 0, 80, 63
1, 280648, Control_c, 0, 64, 87
1, 280663, Control_c, 0, 64, 110
1, 280667, Note_off_c, 0, 42, 61
1, 280678, Note_off_c, 0, 30, 62
1, 280678, Control_c, 0, 64, 127
1, 280822, Note_on_c, 0, 49, 69
1, 280824, Note_on_c, 0, 78, 92
1, 280825, Note_on_c, 0, 37, 71
1, 280836, Note_on_c, 0, 70, 83
1, 280857, Note_off_c, 0, 76, 58
1, 280881, Note_off_c, 0, 49, 63
1, 280886, Note_off_c, 0, 37, 60
1, 280886, Note_off_c, 0, 78, 62
1, 280888, Note_off_c, 0, 70, 64
1, 280986, Note_on_c, 0, 75, 34
1, 281032, Note_off_c, 0, 75, 44
1, 281066, Note_on_c, 0, 44, 52
1, 281083, Note_on_c, 0, 56, 35
1, 281091, Note_on_c, 0, 76, 89
1, 281102, Note_on_c, 0, 66, 80
1, 281102, Note_on_c, 0, 68, 49
1, 281119, Note_off_c, 0, 56, 52
1, 281134, Note_off_c, 0, 68, 65
1, 281134, Note_off_c, 0, 44, 63
1, 281169, Note_off_c, 0, 66, 58
1, 281278, Control_c, 0, 64, 100
1, 281293, Control_c, 0, 64, 70
1, 281308, Control_c, 0, 64, 0
1, 281321, Note_on_c, 0, 47, 64
1, 281325, Note_on_c, 0, 75, 82
1, 281326, Note_on_c, 0, 66, 69
1, 281327, Note_on_c, 0, 35, 72
1, 281337, Control_c, 0, 64, 63
1, 281352, Control_c, 0, 64, 68
1, 281360, Note_off_c, 0, 76, 54
1, 281361, Note_off_c, 0, 66, 64
1, 281367, Control_c, 0, 64, 77
1, 281377, Note_off_c, 0, 35, 62
1, 281382, Control_c, 0, 64, 95
1, 281397, Control_c, 0, 64, 127
1, 281399, Note_off_c, 0, 47, 62
1, 281429, Note_on_c, 0, 73, 89
1, 281435, Note_on_c, 0, 64, 80
1, 281443, Note_off_c, 0, 75, 63
1, 281455, Note_off_c, 0, 64, 69
1, 281485, Note_off_c, 0, 73, 63
1, 281536, Note_on_c, 0, 71, 82
1, 281542, Note_on_c, 0, 42, 81
1, 281542, Note_on_c, 0, 54, 79
1, 281546, Note_on_c, 0, 63, 78
1, 281564, Poly_aftertouch_c, 0, 64, 0
1, 281574, Note_off_c, 0, 63, 65
1, 281598, Poly_aftertouch_c, 0, 64, 0
1, 281601, Note_off_c, 0, 54, 61
1, 281602, Note_off_c, 0, 42, 60
1, 281610, Note_off_c, 0, 71, 64
1, 281763, Note_on_c, 0, 59, 64
1, 281764, Note_on_c, 0, 47, 83
1, 281784, Note_off_c, 0, 59, 60
1, 281807, Note_off_c, 0, 47, 62
1, 281844, Note_on_c, 0, 72, 92
1, 281845, Note_on_c, 0, 66, 86
1, 281930, Note_off_c, 0, 66, 58
1, 282072, Control_c, 0, 64, 81
1, 282086, Control_c, 0, 64, 0
1, 282113, Note_on_c, 0, 32, 61
1, 282121, Note_on_c, 0, 44, 65
1, 282137, Note_on_c, 0, 82, 97
1, 282160, Control_c, 0, 64, 68
1, 282163, Note_off_c, 0, 32, 57
1, 282172, Note_off_c, 0, 72, 60
1, 282175, Control_c, 0, 64, 81
1, 282180, Note_off_c, 0, 44, 63
1, 282190, Control_c, 0, 64, 95
1, 282204, Control_c, 0, 64, 115
1, 282219, Control_c, 0, 64, 127
1, 282303, Note_off_c, 0, 82, 59
1, 282358, Note_on_c, 0, 39, 79
1, 282359, Note_on_c, 0, 51, 77
1, 282418, Note_off_c, 0, 51, 61
1, 282421, Note_off_c, 0, 39, 61
1, 282579, Note_on_c, 0, 46, 84
1, 282583, Note_on_c, 0, 58, 80
1, 282621, Note_off_c, 0, 58, 60
1, 282661, Note_off_c, 0, 46, 61
1, 282762, Control_c, 0, 64, 102
1, 282776, Control_c, 0, 64, 75
1, 282791, Control_c, 0, 64, 0
1, 282798, Note_on_c, 0, 44, 71
1, 282800, Note_on_c, 0, 56, 71
1, 282800, Note_on_c, 0, 82, 89
1, 282804, Note_on_c, 0, 78, 83
1, 282805, Note_on_c, 0, 72, 85
1, 282806, Control_c, 0, 64, 54
1, 282821, Control_c, 0, 64, 66
1, 282832, Note_off_c, 0, 56, 69
1, 282835, Control_c, 0, 64, 73
1, 282850, Note_off_c, 0, 44, 60
1, 282850, Control_c, 0, 64, 85
1, 282865, Control_c, 0, 64, 103
1, 282880, Control_c, 0, 64, 127
1, 282909, Note_on_c, 0, 46, 80
1, 282914, Note_on_c, 0, 58, 84
1, 282955, Note_off_c, 0, 58, 57
1, 282965, Note_off_c, 0, 46, 62
1, 283018, Note_on_c, 0, 60, 84
1, 283023, Note_on_c, 0, 48, 84
1, 283039, Note_off_c, 0, 60, 65
1, 283073, Note_off_c, 0, 48, 64
1, 283123, Note_on_c, 0, 60, 10
1, 283164, Note_off_c, 0, 82, 61
1, 283172, Note_off_c, 0, 60, 34
1, 283238, Note_on_c, 0, 39, 90
1, 283239, Note_on_c, 0, 51, 78
1, 283265, Note_off_c, 0, 51, 65
1, 283301, Note_off_c, 0, 39, 62
1, 283415, Note_off_c, 0, 72, 36
1, 283421, Control_c, 0, 64, 98
1, 283436, Control_c, 0, 64, 71
1, 283450, Control_c, 0, 64, 0
1, 283470, Note_on_c, 0, 32, 82
1, 283476, Note_on_c, 0, 44, 86
1, 283480, Control_c, 0, 64, 64
1, 283495, Control_c, 0, 64, 71
1, 283510, Control_c, 0, 64, 86
1, 283525, Control_c, 0, 64, 111
1, 283538, Note_off_c, 0, 32, 63
1, 283540, Control_c, 0, 64, 127
1, 283542, Note_off_c, 0, 44, 62
1, 283674, Note_off_c, 0, 78, 61
1, 283698, Note_on_c, 0, 51, 66
1, 283700, Note_on_c, 0, 72, 80
1, 283701, Note_on_c, 0, 80, 88
1, 283704, Note_on_c, 0, 39, 62
1, 283710, Note_on_c, 0, 77, 71
1, 283737, Note_off_c, 0, 77, 66
1, 283754, Note_off_c, 0, 39, 61
1, 283758, Note_off_c, 0, 51, 61
1, 283762, Note_off_c, 0, 72, 59
1, 283790, Note_off_c, 0, 80, 63
1, 283968, Note_on_c, 0, 44, 68
1, 283968, Note_on_c, 0, 78, 91
1, 283977, Note_on_c, 0, 70, 66
1, 283985, Note_on_c, 0, 68, 79
1, 283990, Note_on_c, 0, 56, 12
1, 284012, Note_off_c, 0, 44, 63
1, 284030, Note_off_c, 0, 56, 42
1, 284097, Note_off_c, 0, 68, 60
1, 284130, Note_off_c, 0, 78, 61
1, 284170, Control_c, 0, 64, 83
1, 284186, Note_on_c, 0, 77, 82
1, 284186, Control_c, 0, 64, 0
1, 284199, Note_on_c, 0, 68, 68
1, 284205, Note_on_c, 0, 37, 64
1, 284216, Note_on_c, 0, 49, 55
1, 284235, Note_off_c, 0, 68, 60
1, 284243, Note_off_c, 0, 70, 62
1, 284245, Control_c, 0, 64, 66
1, 284258, Note_off_c, 0, 37, 62
1, 284258, Note_off_c, 0, 49, 66
1, 284260, Control_c, 0, 64, 76
1, 284274, Control_c, 0, 64, 86
1, 284289, Control_c, 0, 64, 101
1, 284294, Note_on_c, 0, 75, 86
1, 284304, Control_c, 0, 64, 112
1, 284315, Note_on_c, 0, 66, 72
1, 284319, Control_c, 0, 64, 127
1, 284333, Note_off_c, 0, 66, 68
1, 284409, Note_on_c, 0, 56, 74
1, 284410, Note_on_c, 0, 73, 86
1, 284415, Note_on_c, 0, 44, 63
1, 284415, Note_off_c, 0, 77, 56
1, 284429, Note_on_c, 0, 65, 70
1, 284446, Note_off_c, 0, 75, 59
1, 284453, Note_off_c, 0, 56, 63
1, 284458, Note_off_c, 0, 44, 61
1, 284541, Note_off_c, 0, 65, 54
1, 284610, Note_on_c, 0, 77, 94
1, 284613, Note_on_c, 0, 68, 82
1, 284619, Note_on_c, 0, 61, 70
1, 284625, Note_off_c, 0, 73, 60
1, 284631, Note_on_c, 0, 49, 64
1, 284636, Note_off_c, 0, 68, 70
1, 284654, Note_off_c, 0, 61, 65
1, 284664, Note_off_c, 0, 77, 64
1, 284675, Note_off_c, 0, 49, 65
1, 284781, Note_on_c, 0, 68, 51
1, 284788, Note_on_c, 0, 77, 76
1, 284819, Note_off_c, 0, 68, 62
1, 284874, Control_c, 0, 64, 98
1, 284889, Control_c, 0, 64, 71
1, 284904, Control_c, 0, 64, 0
1, 284910, Note_on_c, 0, 83, 99
1, 284912, Note_on_c, 0, 37, 68
1, 284912, Poly_aftertouch_c, 0, 69, 0
1, 284920, Note_on_c, 0, 49, 68
1, 284948, Control_c, 0, 64, 64
1, 284958, Note_off_c, 0, 37, 63
1, 284963, Control_c, 0, 64, 79
1, 284979, Control_c, 0, 64, 98
1, 284980, Note_off_c, 0, 49, 64
1, 284994, Control_c, 0, 64, 127
1, 285095, Note_off_c, 0, 83, 55
1, 285114, Note_on_c, 0, 49, 65
1, 285114, Note_on_c, 0, 56, 71
1, 285132, Note_off_c, 0, 77, 60
1, 285203, Note_off_c, 0, 49, 61
1, 285219, Poly_aftertouch_c, 0, 80, 127
1, 285245, Note_off_c, 0, 56, 60
1, 285305, Note_on_c, 0, 65, 88
1, 285313, Note_on_c, 0, 56, 78
1, 285324, Note_off_c, 0, 65, 72
1, 285355, Note_off_c, 0, 56, 64
1, 285384, Note_on_c, 0, 65, 30
1, 285385, Note_off_c, 0, 65, 127
1, 285442, Note_on_c, 0, 68, 80
1, 285444, Note_on_c, 0, 76, 82
1, 285483, Poly_aftertouch_c, 0, 80, 0
1, 285528, Note_off_c, 0, 68, 62
1, 285548, Control_c, 0, 64, 118
1, 285563, Control_c, 0, 64, 78
1, 285578, Control_c, 0, 64, 0
1, 285585, Note_on_c, 0, 38, 88
1, 285585, Note_on_c, 0, 50, 84
1, 285593, Note_on_c, 0, 83, 100
1, 285632, Note_off_c, 0, 38, 61
1, 285637, Control_c, 0, 64, 75
1, 285643, Note_off_c, 0, 50, 65
1, 285652, Control_c, 0, 64, 90
1, 285667, Control_c, 0, 64, 120
1, 285682, Control_c, 0, 64, 127
1, 285810, Note_on_c, 0, 56, 83
1, 285814, Note_off_c, 0, 76, 55
1, 285817, Note_on_c, 0, 50, 72
1, 285836, Note_off_c, 0, 83, 50
1, 285910, Note_off_c, 0, 56, 63
1, 285946, Note_off_c, 0, 50, 42
1, 286019, Note_on_c, 0, 64, 90
1, 286020, Note_on_c, 0, 56, 83
1, 286040, Note_off_c, 0, 64, 71
1, 286068, Note_off_c, 0, 56, 64
1, 286139, Note_on_c, 0, 68, 91
1, 286148, Note_on_c, 0, 75, 93
1, 286157, Note_on_c, 0, 80, 30
1, 286190, Note_off_c, 0, 80, 55
1, 286292, Note_off_c, 0, 68, 61
1, 286297, Control_c, 0, 64, 113
1, 286312, Control_c, 0, 64, 79
1, 286327, Control_c, 0, 64, 0
1, 286365, Note_on_c, 0, 39, 91
1, 286367, Note_on_c, 0, 51, 89
1, 286369, Note_on_c, 0, 83, 97
1, 286371, Control_c, 0, 64, 65
1, 286386, Control_c, 0, 64, 81
1, 286401, Control_c, 0, 64, 104
1, 286411, Note_off_c, 0, 75, 62
1, 286413, Note_off_c, 0, 51, 63
1, 286415, Note_off_c, 0, 39, 63
1, 286416, Control_c, 0, 64, 127
1, 286417, Note_off_c, 0, 83, 65
1, 286479, Poly_aftertouch_c, 0, 80, 0
1, 286589, Note_on_c, 0, 85, 72
1, 286622, Note_on_c, 0, 83, 80
1, 286633, Note_on_c, 0, 51, 81
1, 286634, Note_on_c, 0, 75, 71
1, 286695, Note_off_c, 0, 75, 62
1, 286744, Note_off_c, 0, 83, 60
1, 286852, Note_off_c, 0, 51, 59
1, 286884, Note_on_c, 0, 56, 76
1, 286886, Note_on_c, 0, 63, 61
1, 286917, Note_off_c, 0, 63, 62
1, 286921, Note_off_c, 0, 56, 66
1, 287000, Note_on_c, 0, 82, 92
1, 287009, Note_on_c, 0, 73, 84
1, 287029, Note_off_c, 0, 85, 62
1, 287059, Note_off_c, 0, 73, 61
1, 287063, Note_off_c, 0, 82, 61
1, 287090, Control_c, 0, 64, 77
1, 287105, Control_c, 0, 64, 0
1, 287112, Note_on_c, 0, 82, 95
1, 287116, Note_on_c, 0, 73, 92
1, 287120, Note_on_c, 0, 39, 83
1, 287121, Note_on_c, 0, 51, 85
1, 287149, Control_c, 0, 64, 65
1, 287151, Note_off_c, 0, 39, 67
1, 287152, Note_off_c, 0, 51, 62
1, 287164, Control_c, 0, 64, 76
1, 287179, Control_c, 0, 64, 89
1, 287193, Control_c, 0, 64, 112
1, 287208, Control_c, 0, 64, 127
1, 287235, Note_off_c, 0, 73, 59
1, 287311, Note_off_c, 0, 82, 56
1, 287313, Note_on_c, 0, 83, 71
1, 287367, Note_on_c, 0, 51, 73
1, 287368, Note_on_c, 0, 82, 81
1, 287372, Note_on_c, 0, 73, 89
1, 287394, Note_off_c, 0, 83, 64
1, 287404, Note_off_c, 0, 73, 61
1, 287420, Note_off_c, 0, 82, 65
1, 287478, Note_off_c, 0, 51, 60
1, 287689, Note_on_c, 0, 61, 75
1, 287695, Note_on_c, 0, 55, 77
1, 287698, Note_on_c, 0, 75, 94
1, 287704, Note_on_c, 0, 70, 87
1, 287712, Note_on_c, 0, 73, 73
1, 287715, Note_off_c, 0, 61, 64
1, 287725, Note_off_c, 0, 55, 67
1, 287737, Note_off_c, 0, 73, 63
1, 287797, Note_off_c, 0, 70, 60
1, 287925, Note_off_c, 0, 75, 53
1, 288076, Control_c, 0, 64, 80
1, 288090, Control_c, 0, 64, 0
1, 288099, Note_on_c, 0, 32, 78
1, 288101, Note_on_c, 0, 44, 75
1, 288101, Note_on_c, 0, 75, 86
1, 288105, Note_on_c, 0, 68, 80
1, 288105, Note_on_c, 0, 73, 80
1, 288106, Note_on_c, 0, 80, 86
1, 288149, Control_c, 0, 64, 68
1, 288164, Note_off_c, 0, 32, 63
1, 288165, Control_c, 0, 64, 80
1, 288180, Control_c, 0, 64, 97
1, 288184, Note_off_c, 0, 44, 63
1, 288195, Control_c, 0, 64, 127
1, 288234, Note_off_c, 0, 68, 60
1, 288286, Note_off_c, 0, 73, 55
1, 288300, Note_off_c, 0, 75, 61
1, 288369, Note_on_c, 0, 75, 89
1, 288372, Note_on_c, 0, 51, 74
1, 288393, Note_on_c, 0, 73, 88
1, 288527, Note_off_c, 0, 51, 58
1, 288566, Note_on_c, 0, 56, 76
1, 288567, Note_on_c, 0, 59, 68
1, 288575, Note_off_c, 0, 80, 63
1, 288580, Note_on_c, 0, 71, 89
1, 288584, Note_off_c, 0, 59, 64
1, 288588, Note_off_c, 0, 73, 62
1, 288589, Note_off_c, 0, 75, 61
1, 288592, Note_off_c, 0, 56, 70
1, 288631, Note_off_c, 0, 71, 66
1, 288716, Note_on_c, 0, 70, 30
1, 288750, Note_off_c, 0, 70, 48
1, 288751, Control_c, 0, 64, 87
1, 288765, Control_c, 0, 64, 63
1, 288780, Control_c, 0, 64, 0
1, 288789, Note_on_c, 0, 34, 77
1, 288792, Note_on_c, 0, 46, 78
1, 288796, Note_on_c, 0, 71, 80
1, 288796, Note_on_c, 0, 75, 85
1, 288806, Note_on_c, 0, 67, 78
1, 288825, Control_c, 0, 64, 69
1, 288828, Note_off_c, 0, 34, 64
1, 288839, Control_c, 0, 64, 84
1, 288843, Note_off_c, 0, 46, 63
1, 288854, Control_c, 0, 64, 105
1, 288869, Control_c, 0, 64, 127
1, 288892, Note_off_c, 0, 67, 62
1, 288959, Note_off_c, 0, 71, 63
1, 288986, Note_off_c, 0, 75, 61
1, 289003, Note_on_c, 0, 51, 71
1, 289005, Note_on_c, 0, 73, 79
1, 289007, Note_on_c, 0, 71, 85
1, 289091, Note_off_c, 0, 51, 62
1, 289211, Note_on_c, 0, 61, 75
1, 289219, Note_on_c, 0, 55, 70
1, 289234, Note_on_c, 0, 70, 93
1, 289234, Note_off_c, 0, 61, 66
1, 289245, Note_off_c, 0, 55, 64
1, 289277, Note_off_c, 0, 71, 59
1, 289299, Poly_aftertouch_c, 0, 63, 0
1, 289379, Poly_aftertouch_c, 0, 61, 0
1, 289445, Note_off_c, 0, 73, 60
1, 289455, Control_c, 0, 64, 83
1, 289469, Control_c, 0, 64, 0
1, 289482, Note_off_c, 0, 70, 0
1, 289488, Note_on_c, 0, 47, 82
1, 289493, Note_on_c, 0, 35, 82
1, 289493, Note_on_c, 0, 63, 91
1, 289494, Note_on_c, 0, 75, 94
1, 289497, Note_on_c, 0, 70, 65
1, 289514, Control_c, 0, 64, 64
1, 289529, Control_c, 0, 64, 73
1, 289529, Note_off_c, 0, 35, 64
1, 289536, Note_on_c, 0, 37, 31
1, 289537, Note_off_c, 0, 37, 127
1, 289543, Control_c, 0, 64, 87
1, 289546, Note_off_c, 0, 47, 62
1, 289558, Control_c, 0, 64, 109
1, 289573, Control_c, 0, 64, 127
1, 289576, Poly_aftertouch_c, 0, 37, 0
1, 289605, Note_off_c, 0, 63, 60
1, 289682, Note_off_c, 0, 70, 61
1, 289704, Note_off_c, 0, 75, 62
1, 289727, Note_on_c, 0, 47, 73
1, 289746, Note_on_c, 0, 68, 91
1, 289797, Note_off_c, 0, 47, 59
1, 289965, Note_on_c, 0, 77, 96
1, 289969, Note_on_c, 0, 63, 57
1, 289974, Note_on_c, 0, 51, 71
1, 289974, Note_on_c, 0, 56, 59
1, 289991, Note_off_c, 0, 63, 44
1, 289995, Note_on_c, 0, 78, 61
1, 289996, Note_off_c, 0, 56, 61
1, 290013, Note_off_c, 0, 78, 61
1, 290014, Note_on_c, 0, 75, 31
1, 290015, Note_on_c, 0, 49, 37
1, 290023, Note_off_c, 0, 51, 61
1, 290047, Note_off_c, 0, 75, 49
1, 290050, Note_off_c, 0, 49, 52
1, 290051, Note_off_c, 0, 77, 59
1, 290263, Control_c, 0, 64, 117
1, 290278, Control_c, 0, 64, 73
1, 290286, Note_on_c, 0, 78, 92
1, 290292, Control_c, 0, 64, 0
1, 290293, Note_on_c, 0, 48, 78
1, 290293, Note_on_c, 0, 75, 80
1, 290294, Note_on_c, 0, 36, 80
1, 290366, Control_c, 0, 64, 71
1, 290381, Control_c, 0, 64, 83
1, 290394, Note_off_c, 0, 36, 62
1, 290396, Control_c, 0, 64, 95
1, 290411, Control_c, 0, 64, 106
1, 290422, Note_off_c, 0, 78, 62
1, 290423, Note_on_c, 0, 80, 82
1, 290426, Control_c, 0, 64, 112
1, 290430, Note_off_c, 0, 75, 60
1, 290432, Note_off_c, 0, 48, 61
1, 290441, Control_c, 0, 64, 117
1, 290456, Control_c, 0, 64, 127
1, 290462, Note_off_c, 0, 80, 60
1, 290504, Note_on_c, 0, 78, 74
1, 290538, Note_off_c, 0, 78, 62
1, 290557, Note_on_c, 0, 80, 58
1, 290585, Note_off_c, 0, 80, 53
1, 290588, Note_on_c, 0, 78, 80
1, 290617, Note_off_c, 0, 68, 62
1, 290640, Note_off_c, 0, 78, 62
1, 290682, Note_on_c, 0, 77, 98
1, 290685, Note_on_c, 0, 48, 86
1, 290864, Note_off_c, 0, 48, 48
1, 290907, Note_on_c, 0, 78, 98
1, 290919, Note_on_c, 0, 68, 74
1, 290950, Note_off_c, 0, 77, 60
1, 290958, Note_off_c, 0, 68, 56
1, 291076, Note_on_c, 0, 56, 79
1, 291078, Note_on_c, 0, 75, 93
1, 291082, Note_on_c, 0, 63, 65
1, 291083, Note_on_c, 0, 68, 87
1, 291088, Note_on_c, 0, 51, 70
1, 291101, Note_off_c, 0, 63, 64
1, 291129, Note_off_c, 0, 56, 64
1, 291152, Note_off_c, 0, 51, 63
1, 291169, Note_off_c, 0, 68, 57
1, 291251, Note_on_c, 0, 80, 88
1, 291255, Note_on_c, 0, 68, 94
1, 291278, Note_off_c, 0, 75, 62
1, 291278, Note_off_c, 0, 78, 60
1, 291301, Note_off_c, 0, 80, 66
1, 291332, Note_off_c, 0, 68, 64
1, 291583, Control_c, 0, 64, 105
1, 291597, Control_c, 0, 64, 71
1, 291605, Note_on_c, 0, 37, 90
1, 291606, Note_on_c, 0, 25, 86
1, 291612, Control_c, 0, 64, 0
1, 291618, Note_on_c, 0, 68, 89
1, 291622, Note_on_c, 0, 61, 81
1, 291624, Note_on_c, 0, 66, 82
1, 291687, Control_c, 0, 64, 44
1, 291702, Control_c, 0, 64, 75
1, 291716, Control_c, 0, 64, 89
1, 291725, Note_off_c, 0, 25, 62
1, 291725, Note_off_c, 0, 61, 60
1, 291731, Control_c, 0, 64, 127
1, 291765, Note_off_c, 0, 37, 59
1, 291796, Note_off_c, 0, 66, 58
1, 291827, Note_off_c, 0, 68, 62
1, 292085, Note_on_c, 0, 71, 84
1, 292095, Note_on_c, 0, 66, 82
1, 292101, Note_on_c, 0, 59, 71
1, 292109, Note_on_c, 0, 49, 58
1, 292113, Note_on_c, 0, 56, 57
1, 292207, Poly_aftertouch_c, 0, 68, 0
1, 292241, Note_off_c, 0, 59, 57
1, 292307, Note_off_c, 0, 56, 52
1, 292323, Note_off_c, 0, 66, 54
1, 292374, Note_off_c, 0, 71, 61
1, 292406, Note_on_c, 0, 73, 92
1, 292415, Note_on_c, 0, 66, 85
1, 292418, Note_on_c, 0, 61, 83
1, 292431, Note_on_c, 0, 56, 68
1, 292449, Note_on_c, 0, 68, 41
1, 292476, Note_off_c, 0, 68, 51
1, 292511, Note_off_c, 0, 61, 50
1, 292533, Note_off_c, 0, 56, 57
1, 292585, Note_off_c, 0, 66, 35
1, 292627, Note_off_c, 0, 73, 60
1, 292643, Control_c, 0, 64, 89
1, 292657, Control_c, 0, 64, 79
1, 292668, Note_on_c, 0, 75, 92
1, 292672, Control_c, 0, 64, 81
1, 292678, Note_on_c, 0, 66, 86
1, 292678, Note_off_c, 0, 49, 51
1, 292679, Note_on_c, 0, 56, 72
1, 292679, Note_on_c, 0, 63, 87
1, 292687, Control_c, 0, 64, 92
1, 292702, Control_c, 0, 64, 113
1, 292708, Note_on_c, 0, 71, 41
1, 292717, Control_c, 0, 64, 127
1, 292722, Note_on_c, 0, 61, 36
1, 292733, Note_off_c, 0, 71, 57
1, 292736, Note_off_c, 0, 56, 61
1, 292742, Note_off_c, 0, 66, 62
1, 292744, Note_off_c, 0, 61, 64
1, 292757, Note_off_c, 0, 63, 59
1, 292780, Poly_aftertouch_c, 0, 68, 0
1, 292797, Note_off_c, 0, 75, 62
1, 292940, Note_on_c, 0, 77, 90
1, 292947, Note_on_c, 0, 65, 86
1, 292949, Note_on_c, 0, 68, 84
1, 292955, Note_on_c, 0, 56, 76
1, 292959, Note_on_c, 0, 71, 75
1, 292960, Note_on_c, 0, 63, 74
1, 292962, Note_on_c, 0, 59, 73
1, 293026, Note_off_c, 0, 65, 57
1, 293074, Note_off_c, 0, 68, 59
1, 293091, Note_off_c, 0, 77, 57
1, 293108, Note_off_c, 0, 63, 33
1, 293177, Note_off_c, 0, 71, 60
1, 293226, Note_on_c, 0, 68, 89
1, 293226, Note_on_c, 0, 78, 97
1, 293231, Note_on_c, 0, 66, 95
1, 293232, Note_on_c, 0, 71, 70
1, 293252, Note_off_c, 0, 56, 63
1, 293252, Note_on_c, 0, 64, 71
1, 293264, Note_on_c, 0, 63, 25
1, 293264, Note_off_c, 0, 71, 65
1, 293276, Note_off_c, 0, 68, 64
1, 293280, Note_on_c, 0, 67, 27
1, 293280, Note_off_c, 0, 64, 67
1, 293283, Note_off_c, 0, 59, 60
1, 293293, Note_off_c, 0, 66, 62
1, 293305, Note_off_c, 0, 63, 43
1, 293317, Note_off_c, 0, 67, 41
1, 293324, Note_off_c, 0, 78, 60
1, 293510, Control_c, 0, 64, 110
1, 293525, Control_c, 0, 64, 81
1, 293531, Note_on_c, 0, 68, 88
1, 293535, Note_on_c, 0, 59, 71
1, 293535, Note_on_c, 0, 80, 95
1, 293538, Note_on_c, 0, 71, 92
1, 293540, Note_on_c, 0, 66, 74
1, 293540, Control_c, 0, 64, 69
1, 293542, Note_on_c, 0, 63, 63
1, 293554, Control_c, 0, 64, 71
1, 293556, Note_on_c, 0, 75, 68
1, 293559, Note_on_c, 0, 78, 62
1, 293569, Control_c, 0, 64, 77
1, 293578, Note_off_c, 0, 78, 62
1, 293584, Control_c, 0, 64, 84
1, 293594, Note_off_c, 0, 75, 56
1, 293599, Control_c, 0, 64, 94
1, 293614, Control_c, 0, 64, 107
1, 293636, Control_c, 0, 64, 127
1, 293640, Note_off_c, 0, 68, 63
1, 293646, Note_off_c, 0, 63, 59
1, 293671, Note_off_c, 0, 66, 0
1, 293709, Poly_aftertouch_c, 0, 66, 0
1, 293729, Poly_aftertouch_c, 0, 75, 127
1, 293735, Note_off_c, 0, 80, 61
1, 293736, Note_off_c, 0, 71, 54
1, 293752, Note_on_c, 0, 75, 4
1, 293816, Note_off_c, 0, 75, 45
1, 293860, Note_on_c, 0, 70, 93
1, 293862, Note_on_c, 0, 71, 100
1, 293863, Note_on_c, 0, 82, 94
1, 293870, Note_on_c, 0, 66, 74
1, 293875, Note_on_c, 0, 63, 72
1, 293889, Note_on_c, 0, 80, 62
1, 293889, Note_off_c, 0, 59, 59
1, 293900, Note_off_c, 0, 66, 64
1, 293910, Note_off_c, 0, 80, 62
1, 293927, Note_off_c, 0, 63, 61
1, 293997, Note_off_c, 0, 70, 60
1, 294002, Note_off_c, 0, 82, 60
1, 294027, Note_off_c, 0, 71, 53
1, 294185, Control_c, 0, 64, 107
1, 294188, Note_on_c, 0, 83, 96
1, 294194, Note_on_c, 0, 71, 91
1, 294194, Note_on_c, 0, 75, 94
1, 294194, Note_on_c, 0, 78, 85
1, 294198, Note_on_c, 0, 63, 80
1, 294200, Control_c, 0, 64, 92
1, 294212, Note_on_c, 0, 68, 70
1, 294223, Note_on_c, 0, 66, 58
1, 294229, Control_c, 0, 64, 100
1, 294235, Note_off_c, 0, 71, 64
1, 294244, Control_c, 0, 64, 127
1, 294245, Note_off_c, 0, 66, 62
1, 294256, Note_off_c, 0, 68, 54
1, 294266, Note_off_c, 0, 83, 61
1, 294272, Note_off_c, 0, 75, 62
1, 294297, Note_off_c, 0, 78, 61
1, 294304, Note_off_c, 0, 63, 57
1, 294594, Control_c, 0, 64, 86
1, 294596, Note_on_c, 0, 73, 96
1, 294596, Note_on_c, 0, 75, 102
1, 294605, Note_on_c, 0, 68, 82
1, 294605, Note_on_c, 0, 85, 86
1, 294608, Control_c, 0, 64, 66
1, 294609, Note_on_c, 0, 63, 80
1, 294614, Note_on_c, 0, 78, 71
1, 294617, Note_on_c, 0, 66, 72
1, 294623, Control_c, 0, 64, 0
1, 294627, Note_on_c, 0, 83, 65
1, 294638, Control_c, 0, 64, 65
1, 294653, Note_off_c, 0, 78, 53
1, 294653, Control_c, 0, 64, 72
1, 294668, Control_c, 0, 64, 82
1, 294683, Control_c, 0, 64, 99
1, 294697, Control_c, 0, 64, 120
1, 294712, Control_c, 0, 64, 127
1, 294744, Poly_aftertouch_c, 0, 78, 127
1, 294775, Note_off_c, 0, 85, 60
1, 294786, Note_off_c, 0, 73, 59
1, 294804, Note_off_c, 0, 75, 60
1, 294828, Poly_aftertouch_c, 0, 78, 0
1, 294873, Note_off_c, 0, 63, 36
1, 294886, Note_off_c, 0, 68, 37
1, 295142, Note_off_c, 0, 83, 4
1, 295179, Control_c, 0, 64, 97
1, 295183, Note_on_c, 0, 71, 91
1, 295186, Note_on_c, 0, 63, 73
1, 295186, Note_on_c, 0, 68, 78
1, 295186, Note_on_c, 0, 75, 96
1, 295188, Note_on_c, 0, 87, 92
1, 295189, Note_on_c, 0, 83, 67
1, 295193, Note_on_c, 0, 78, 88
1, 295194, Control_c, 0, 64, 72
1, 295195, Note_off_c, 0, 66, 0
1, 295195, Note_on_c, 0, 66, 23
1, 295204, Note_on_c, 0, 80, 71
1, 295208, Control_c, 0, 64, 0
1, 295267, Control_c, 0, 64, 64
1, 295282, Control_c, 0, 64, 72
1, 295297, Control_c, 0, 64, 78
1, 295312, Control_c, 0, 64, 85
1, 295327, Control_c, 0, 64, 88
1, 295341, Control_c, 0, 64, 92
1, 295357, Control_c, 0, 64, 95
1, 295372, Control_c, 0, 64, 97
1, 295410, Note_off_c, 0, 75, 54
1, 295469, Note_off_c, 0, 87, 50
1, 295483, Note_off_c, 0, 80, 48
1, 295508, Note_off_c, 0, 78, 54
1, 295520, Control_c, 0, 64, 96
1, 295528, Note_off_c, 0, 71, 42
1, 295550, Control_c, 0, 64, 95
1, 295565, Control_c, 0, 64, 95
1, 295580, Control_c, 0, 64, 93
1, 295589, Note_off_c, 0, 68, 32
1, 295595, Control_c, 0, 64, 90
1, 295610, Control_c, 0, 64, 87
1, 295621, Note_off_c, 0, 66, 32
1, 295624, Control_c, 0, 64, 86
1, 295646, Note_off_c, 0, 83, 27
1, 295683, Control_c, 0, 64, 85
1, 295698, Control_c, 0, 64, 85
1, 295708, Note_off_c, 0, 63, 43
1, 295713, Control_c, 0, 64, 84
1, 295728, Control_c, 0, 64, 83
1, 295743, Control_c, 0, 64, 82
1, 295757, Control_c, 0, 64, 81
1, 295772, Control_c, 0, 64, 80
1, 295787, Control_c, 0, 64, 80
1, 295801, Control_c, 0, 64, 79
1, 295816, Control_c, 0, 64, 78
1, 295831, Control_c, 0, 64, 77
1, 295846, Control_c, 0, 64, 76
1, 295861, Control_c, 0, 64, 76
1, 295883, Control_c, 0, 64, 75
1, 295913, Control_c, 0, 64, 75
1, 295928, Control_c, 0, 64, 74
1, 295943, Control_c, 0, 64, 73
1, 295957, Control_c, 0, 64, 73
1, 295971, Control_c, 0, 64, 72
1, 295986, Control_c, 0, 64, 71
1, 296001, Control_c, 0, 64, 70
1, 296015, Control_c, 0, 64, 69
1, 296030, Control_c, 0, 64, 68
1, 296045, Control_c, 0, 64, 67
1, 296060, Control_c, 0, 64, 67
1, 296090, Control_c, 0, 64, 66
1, 296104, Control_c, 0, 64, 65
1, 296119, Control_c, 0, 64, 55
1, 296134, Control_c, 0, 64, 0
1, 296224, Note_on_c, 0, 85, 98
1, 296224, Note_on_c, 0, 77, 98
1, 296224, Control_c, 0, 64, 62
1, 296225, Note_on_c, 0, 83, 90
1, 296226, Note_on_c, 0, 89, 98
1, 296227, Note_on_c, 0, 49, 95
1, 296233, Note_on_c, 0, 37, 91
1, 296239, Control_c, 0, 64, 76
1, 296253, Control_c, 0, 64, 89
1, 296259, Note_off_c, 0, 49, 63
1, 296261, Note_on_c, 0, 39, 39
1, 296263, Note_on_c, 0, 87, 40
1, 296268, Control_c, 0, 64, 105
1, 296283, Control_c, 0, 64, 115
1, 296290, Note_off_c, 0, 87, 55
1, 296295, Note_off_c, 0, 37, 63
1, 296295, Note_off_c, 0, 39, 42
1, 296298, Control_c, 0, 64, 117
1, 296313, Control_c, 0, 64, 124
1, 296323, Note_off_c, 0, 83, 60
1, 296323, Note_off_c, 0, 89, 63
1, 296328, Control_c, 0, 64, 127
1, 296358, Note_off_c, 0, 77, 58
1, 296594, Control_c, 0, 64, 93
1, 296609, Control_c, 0, 64, 69
1, 296631, Control_c, 0, 64, 0
1, 296635, Note_on_c, 0, 42, 91
1, 296636, Note_on_c, 0, 90, 100
1, 296637, Note_on_c, 0, 30, 85
1, 296638, Note_on_c, 0, 78, 99
1, 296639, Note_on_c, 0, 82, 92
1, 296676, Control_c, 0, 64, 69
1, 296691, Control_c, 0, 64, 82
1, 296698, Note_off_c, 0, 30, 62
1, 296699, Note_off_c, 0, 85, 59
1, 296705, Note_off_c, 0, 90, 67
1, 296705, Control_c, 0, 64, 99
1, 296710, Note_off_c, 0, 42, 60
1, 296720, Control_c, 0, 64, 119
1, 296725, Note_off_c, 0, 78, 62
1, 296735, Control_c, 0, 64, 127
1, 296752, Note_off_c, 0, 82, 61
1, 296755, Poly_aftertouch_c, 0, 87, 0
1, 296901, Note_on_c, 0, 49, 75
1, 296905, Note_on_c, 0, 61, 79
1, 296969, Note_off_c, 0, 61, 59
1, 296984, Poly_aftertouch_c, 0, 51, 127
1, 297005, Note_off_c, 0, 49, 62
1, 297028, Poly_aftertouch_c, 0, 51, 0
1, 297082, Note_on_c, 0, 84, 96
1, 297086, Note_on_c, 0, 51, 67
1, 297087, Note_on_c, 0, 72, 89
1, 297088, Note_on_c, 0, 81, 85
1, 297103, Note_on_c, 0, 63, 71
1, 297163, Note_off_c, 0, 51, 59
1, 297181, Note_off_c, 0, 63, 58
1, 297227, Note_off_c, 0, 84, 60
1, 297234, Note_off_c, 0, 81, 59
1, 297240, Control_c, 0, 64, 88
1, 297241, Note_off_c, 0, 72, 59
1, 297254, Control_c, 0, 64, 63
1, 297269, Control_c, 0, 64, 0
1, 297291, Note_on_c, 0, 83, 96
1, 297293, Note_on_c, 0, 65, 64
1, 297293, Note_on_c, 0, 71, 88
1, 297299, Note_on_c, 0, 80, 85
1, 297306, Note_on_c, 0, 61, 67
1, 297313, Note_on_c, 0, 56, 68
1, 297314, Control_c, 0, 64, 68
1, 297315, Note_on_c, 0, 53, 41
1, 297325, Note_off_c, 0, 65, 65
1, 297328, Control_c, 0, 64, 78
1, 297338, Note_off_c, 0, 61, 62
1, 297343, Control_c, 0, 64, 93
1, 297344, Note_off_c, 0, 53, 53
1, 297358, Control_c, 0, 64, 109
1, 297380, Control_c, 0, 64, 127
1, 297385, Note_off_c, 0, 56, 63
1, 297407, Note_off_c, 0, 83, 61
1, 297421, Note_off_c, 0, 71, 60
1, 297478, Note_on_c, 0, 61, 80
1, 297486, Note_off_c, 0, 80, 63
1, 297520, Note_off_c, 0, 61, 58
1, 297556, Poly_aftertouch_c, 0, 49, 0
1, 297578, Poly_aftertouch_c, 0, 49, 0
1, 297644, Note_on_c, 0, 65, 62
1, 297650, Note_on_c, 0, 80, 95
1, 297651, Note_on_c, 0, 61, 46
1, 297654, Note_on_c, 0, 68, 89
1, 297658, Note_on_c, 0, 77, 86
1, 297660, Note_on_c, 0, 59, 67
1, 297660, Note_off_c, 0, 65, 65
1, 297681, Note_off_c, 0, 61, 64
1, 297684, Note_off_c, 0, 59, 64
1, 297751, Note_off_c, 0, 68, 58
1, 297782, Control_c, 0, 64, 86
1, 297797, Control_c, 0, 64, 64
1, 297808, Note_off_c, 0, 80, 63
1, 297809, Note_off_c, 0, 77, 57
1, 297812, Control_c, 0, 64, 0
1, 297826, Control_c, 0, 64, 59
1, 297828, Note_on_c, 0, 42, 85
1, 297836, Note_on_c, 0, 54, 74
1, 297837, Note_on_c, 0, 82, 87
1, 297839, Note_on_c, 0, 78, 89
1, 297841, Note_on_c, 0, 70, 87
1, 297841, Control_c, 0, 64, 71
1, 297856, Control_c, 0, 64, 81
1, 297869, Note_off_c, 0, 54, 65
1, 297871, Control_c, 0, 64, 97
1, 297872, Note_off_c, 0, 42, 58
1, 297885, Control_c, 0, 64, 127
1, 297902, Note_off_c, 0, 70, 64
1, 297908, Note_off_c, 0, 82, 62
1, 297938, Note_off_c, 0, 78, 60
1, 297988, Note_on_c, 0, 61, 83
1, 298009, Note_on_c, 0, 54, 51
1, 298012, Note_on_c, 0, 58, 54
1, 298051, Note_off_c, 0, 61, 59
1, 298073, Note_off_c, 0, 54, 60
1, 298075, Note_off_c, 0, 58, 61
1, 298156, Note_on_c, 0, 49, 74
1, 298160, Note_on_c, 0, 85, 107
1, 298161, Note_on_c, 0, 73, 99
1, 298171, Note_on_c, 0, 58, 56
1, 298194, Note_off_c, 0, 73, 61
1, 298216, Note_off_c, 0, 49, 62
1, 298218, Note_off_c, 0, 85, 62
1, 298245, Note_off_c, 0, 58, 34
1, 298245, Poly_aftertouch_c, 0, 82, 127
1, 298268, Poly_aftertouch_c, 0, 82, 0
1, 298292, Control_c, 0, 64, 99
1, 298307, Control_c, 0, 64, 75
1, 298319, Poly_aftertouch_c, 0, 54, 0
1, 298322, Control_c, 0, 64, 69
1, 298337, Control_c, 0, 64, 76
1, 298343, Note_on_c, 0, 66, 80
1, 298348, Note_on_c, 0, 78, 90
1, 298348, Note_on_c, 0, 90, 93
1, 298350, Note_on_c, 0, 82, 83
1, 298352, Control_c, 0, 64, 84
1, 298356, Poly_aftertouch_c, 0, 54, 127
1, 298367, Control_c, 0, 64, 95
1, 298370, Note_on_c, 0, 58, 57
1, 298374, Note_on_c, 0, 54, 3
1, 298379, Note_off_c, 0, 66, 60
1, 298382, Control_c, 0, 64, 117
1, 298397, Control_c, 0, 64, 127
1, 298422, Note_off_c, 0, 58, 56
1, 298444, Note_off_c, 0, 54, 55
1, 298453, Note_off_c, 0, 90, 62
1, 298477, Note_off_c, 0, 78, 59
1, 298503, Note_on_c, 0, 61, 80
1, 298508, Note_on_c, 0, 58, 67
1, 298546, Note_on_c, 0, 54, 33
1, 298573, Note_off_c, 0, 61, 59
1, 298585, Note_off_c, 0, 58, 57
1, 298656, Note_on_c, 0, 49, 80
1, 298665, Note_on_c, 0, 89, 97
1, 298669, Note_on_c, 0, 77, 87
1, 298669, Note_on_c, 0, 85, 91
1, 298685, Note_off_c, 0, 54, 49
1, 298689, Note_off_c, 0, 49, 65
1, 298698, Note_off_c, 0, 82, 63
1, 298744, Note_off_c, 0, 89, 62
1, 298745, Note_off_c, 0, 77, 58
1, 298748, Poly_aftertouch_c, 0, 58, 0
1, 298768, Control_c, 0, 64, 91
1, 298782, Control_c, 0, 64, 67
1, 298797, Control_c, 0, 64, 0
1, 298812, Control_c, 0, 64, 34
1, 298826, Control_c, 0, 64, 65
1, 298839, Note_on_c, 0, 37, 73
1, 298841, Control_c, 0, 64, 71
1, 298843, Note_on_c, 0, 83, 75
1, 298843, Note_on_c, 0, 87, 91
1, 298844, Note_on_c, 0, 75, 87
1, 298845, Note_on_c, 0, 49, 72
1, 298856, Control_c, 0, 64, 82
1, 298866, Note_off_c, 0, 37, 64
1, 298879, Control_c, 0, 64, 99
1, 298885, Note_off_c, 0, 49, 65
1, 298889, Note_off_c, 0, 85, 58
1, 298894, Control_c, 0, 64, 127
1, 298934, Note_off_c, 0, 75, 62
1, 298942, Note_off_c, 0, 87, 64
1, 298948, Note_off_c, 0, 83, 61
1, 299008, Note_on_c, 0, 85, 101
1, 299008, Note_on_c, 0, 59, 70
1, 299013, Note_on_c, 0, 73, 91
1, 299026, Note_on_c, 0, 51, 57
1, 299029, Note_on_c, 0, 49, 44
1, 299033, Note_off_c, 0, 59, 64
1, 299060, Note_off_c, 0, 49, 64
1, 299082, Note_off_c, 0, 85, 62
1, 299089, Note_off_c, 0, 73, 60
1, 299104, Note_off_c, 0, 51, 60
1, 299154, Note_on_c, 0, 65, 71
1, 299156, Note_on_c, 0, 83, 91
1, 299157, Note_on_c, 0, 71, 91
1, 299163, Note_on_c, 0, 80, 83
1, 299175, Note_off_c, 0, 71, 70
1, 299178, Note_off_c, 0, 65, 68
1, 299199, Note_off_c, 0, 83, 63
1, 299208, Note_off_c, 0, 80, 62
1, 299266, Poly_aftertouch_c, 0, 78, 0
1, 299308, Control_c, 0, 64, 85
1, 299323, Control_c, 0, 64, 66
1, 299338, Control_c, 0, 64, 46
1, 299351, Note_on_c, 0, 87, 84
1, 299353, Note_on_c, 0, 75, 89
1, 299354, Control_c, 0, 64, 67
1, 299354, Note_on_c, 0, 68, 66
1, 299360, Note_on_c, 0, 83, 67
1, 299361, Note_on_c, 0, 59, 26
1, 299368, Control_c, 0, 64, 73
1, 299383, Control_c, 0, 64, 85
1, 299398, Control_c, 0, 64, 106
1, 299407, Note_off_c, 0, 68, 63
1, 299413, Control_c, 0, 64, 127
1, 299441, Note_off_c, 0, 87, 65
1, 299449, Poly_aftertouch_c, 0, 61, 127
1, 299455, Note_off_c, 0, 75, 62
1, 299475, Note_off_c, 0, 83, 62
1, 299500, Note_on_c, 0, 65, 69
1, 299504, Note_on_c, 0, 61, 10
1, 299509, Note_on_c, 0, 56, 77
1, 299518, Note_off_c, 0, 65, 66
1, 299541, Note_off_c, 0, 56, 66
1, 299542, Note_off_c, 0, 61, 56
1, 299565, Note_off_c, 0, 59, 23
1, 299687, Note_on_c, 0, 80, 87
1, 299687, Note_on_c, 0, 68, 83
1, 299688, Note_on_c, 0, 56, 50
1, 299691, Note_on_c, 0, 49, 74
1, 299691, Note_on_c, 0, 59, 57
1, 299692, Note_on_c, 0, 77, 78
1, 299714, Note_off_c, 0, 59, 58
1, 299715, Note_off_c, 0, 56, 66
1, 299741, Note_off_c, 0, 49, 62
1, 299788, Note_off_c, 0, 68, 54
1, 299819, Control_c, 0, 64, 94
1, 299834, Control_c, 0, 64, 70
1, 299841, Note_off_c, 0, 80, 62
1, 299848, Control_c, 0, 64, 0
1, 299863, Control_c, 0, 64, 59
1, 299866, Note_on_c, 0, 42, 82
1, 299871, Note_on_c, 0, 78, 88
1, 299872, Note_on_c, 0, 82, 88
1, 299875, Note_on_c, 0, 54, 75
1, 299878, Note_on_c, 0, 70, 88
1, 299878, Control_c, 0, 64, 69
1, 299893, Control_c, 0, 64, 77
1, 299905, Note_off_c, 0, 77, 54
1, 299908, Control_c, 0, 64, 93
1, 299923, Note_off_c, 0, 42, 60
1, 299923, Control_c, 0, 64, 127
1, 299932, Note_off_c, 0, 54, 61
1, 299962, Note_off_c, 0, 70, 64
1, 299969, Note_off_c, 0, 82, 61
1, 300021, Note_off_c, 0, 78, 61
1, 300039, Note_on_c, 0, 58, 92
1, 300044, Note_on_c, 0, 54, 73
1, 300046, Note_on_c, 0, 49, 70
1, 300081, Note_off_c, 0, 58, 64
1, 300082, Note_off_c, 0, 49, 66
1, 300089, Note_off_c, 0, 54, 53
1, 300204, Note_on_c, 0, 61, 74
1, 300208, Note_on_c, 0, 58, 72
1, 300212, Note_on_c, 0, 54, 77
1, 300232, Note_off_c, 0, 61, 65
1, 300237, Note_off_c, 0, 58, 64
1, 300262, Note_off_c, 0, 54, 60
1, 300391, Control_c, 0, 64, 106
1, 300405, Control_c, 0, 64, 75
1, 300406, Note_on_c, 0, 39, 93
1, 300407, Note_on_c, 0, 51, 86
1, 300415, Note_on_c, 0, 73, 94
1, 300415, Note_on_c, 0, 79, 91
1, 300416, Note_on_c, 0, 85, 94
1, 300420, Control_c, 0, 64, 0
1, 300447, Note_off_c, 0, 39, 62
1, 300448, Note_off_c, 0, 51, 64
1, 300450, Control_c, 0, 64, 68
1, 300465, Control_c, 0, 64, 76
1, 300479, Control_c, 0, 64, 91
1, 300494, Control_c, 0, 64, 127
1, 300561, Note_on_c, 0, 51, 77
1, 300571, Note_on_c, 0, 61, 79
1, 300602, Note_on_c, 0, 58, 59
1, 300617, Note_off_c, 0, 51, 62
1, 300636, Note_off_c, 0, 58, 63
1, 300638, Note_off_c, 0, 61, 59
1, 300718, Note_off_c, 0, 79, 61
1, 300743, Note_on_c, 0, 67, 76
1, 300745, Note_on_c, 0, 63, 78
1, 300750, Note_on_c, 0, 58, 61
1, 300758, Note_on_c, 0, 61, 55
1, 300761, Note_off_c, 0, 67, 68
1, 300770, Note_off_c, 0, 63, 67
1, 300777, Note_off_c, 0, 61, 62
1, 300784, Note_off_c, 0, 58, 63
1, 300939, Control_c, 0, 64, 107
1, 300954, Control_c, 0, 64, 78
1, 300966, Note_on_c, 0, 56, 81
1, 300966, Note_on_c, 0, 80, 82
1, 300968, Note_on_c, 0, 44, 76
1, 300969, Control_c, 0, 64, 66
1, 300984, Control_c, 0, 64, 69
1, 300999, Control_c, 0, 64, 77
1, 301014, Control_c, 0, 64, 89
1, 301018, Note_off_c, 0, 44, 60
1, 301020, Note_off_c, 0, 56, 64
1, 301028, Control_c, 0, 64, 112
1, 301043, Control_c, 0, 64, 127
1, 301085, Note_off_c, 0, 73, 61
1, 301090, Note_on_c, 0, 82, 10
1, 301090, Note_off_c, 0, 85, 61
1, 301142, Note_off_c, 0, 82, 42
1, 301149, Note_on_c, 0, 63, 80
1, 301154, Note_on_c, 0, 51, 59
1, 301157, Note_on_c, 0, 84, 93
1, 301159, Note_on_c, 0, 72, 93
1, 301160, Note_on_c, 0, 56, 58
1, 301180, Note_off_c, 0, 51, 60
1, 301189, Note_off_c, 0, 56, 66
1, 301199, Note_off_c, 0, 63, 60
1, 301235, Poly_aftertouch_c, 0, 54, 127
1, 301237, Poly_aftertouch_c, 0, 82, 127
1, 301255, Note_off_c, 0, 84, 59
1, 301261, Note_off_c, 0, 72, 59
1, 301265, Poly_aftertouch_c, 0, 54, 0
1, 301298, Poly_aftertouch_c, 0, 82, 0
1, 301308, Note_off_c, 0, 80, 62
1, 301315, Note_on_c, 0, 68, 63
1, 301325, Note_on_c, 0, 63, 56
1, 301337, Note_off_c, 0, 68, 65
1, 301348, Note_on_c, 0, 59, 49
1, 301354, Note_off_c, 0, 63, 66
1, 301375, Note_off_c, 0, 59, 63
1, 301415, Note_on_c, 0, 83, 86
1, 301419, Note_on_c, 0, 71, 85
1, 301434, Note_on_c, 0, 80, 46
1, 301435, Note_off_c, 0, 83, 67
1, 301443, Note_off_c, 0, 71, 66
1, 301458, Note_off_c, 0, 80, 59
1, 301480, Control_c, 0, 64, 84
1, 301494, Note_on_c, 0, 71, 87
1, 301494, Control_c, 0, 64, 64
1, 301496, Note_on_c, 0, 83, 96
1, 301509, Control_c, 0, 64, 0
1, 301512, Note_on_c, 0, 37, 73
1, 301513, Note_on_c, 0, 49, 66
1, 301514, Note_on_c, 0, 80, 78
1, 301524, Control_c, 0, 64, 65
1, 301539, Control_c, 0, 64, 71
1, 301542, Note_off_c, 0, 37, 64
1, 301545, Note_off_c, 0, 49, 65
1, 301554, Control_c, 0, 64, 81
1, 301569, Control_c, 0, 64, 98
1, 301584, Control_c, 0, 64, 127
1, 301605, Note_off_c, 0, 71, 63
1, 301625, Note_off_c, 0, 83, 58
1, 301629, Note_on_c, 0, 78, 40
1, 301629, Note_off_c, 0, 80, 60
1, 301657, Note_off_c, 0, 78, 52
1, 301676, Note_on_c, 0, 60, 73
1, 301688, Note_on_c, 0, 51, 68
1, 301693, Note_on_c, 0, 82, 99
1, 301697, Note_on_c, 0, 70, 94
1, 301704, Note_off_c, 0, 60, 52
1, 301714, Note_on_c, 0, 59, 29
1, 301715, Note_off_c, 0, 59, 127
1, 301725, Note_off_c, 0, 51, 47
1, 301759, Poly_aftertouch_c, 0, 59, 0
1, 301777, Note_off_c, 0, 70, 58
1, 301787, Note_off_c, 0, 82, 58
1, 301846, Note_on_c, 0, 65, 68
1, 301849, Note_on_c, 0, 59, 64
1, 301856, Note_on_c, 0, 81, 95
1, 301858, Note_on_c, 0, 69, 98
1, 301872, Note_off_c, 0, 65, 66
1, 301881, Note_off_c, 0, 59, 65
1, 301902, Note_on_c, 0, 80, 37
1, 301911, Note_off_c, 0, 69, 64
1, 301927, Note_off_c, 0, 80, 57
1, 301972, Note_off_c, 0, 81, 62
1, 301977, Control_c, 0, 64, 101
1, 301992, Control_c, 0, 64, 70
1, 302007, Control_c, 0, 64, 0
1, 302021, Control_c, 0, 64, 66
1, 302036, Control_c, 0, 64, 71
1, 302037, Note_on_c, 0, 42, 77
1, 302040, Note_on_c, 0, 54, 74
1, 302040, Note_on_c, 0, 82, 100
1, 302045, Note_on_c, 0, 70, 92
1, 302051, Control_c, 0, 64, 79
1, 302053, Note_on_c, 0, 78, 75
1, 302066, Control_c, 0, 64, 95
1, 302073, Note_off_c, 0, 42, 63
1, 302081, Control_c, 0, 64, 127
1, 302084, Note_off_c, 0, 54, 56
1, 302086, Note_off_c, 0, 70, 61
1, 302109, Note_off_c, 0, 78, 56
1, 302114, Note_off_c, 0, 82, 62
1, 302191, Note_on_c, 0, 58, 72
1, 302191, Note_on_c, 0, 85, 103
1, 302194, Note_on_c, 0, 73, 97
1, 302203, Note_on_c, 0, 49, 71
1, 302229, Note_off_c, 0, 58, 59
1, 302236, Note_off_c, 0, 73, 63
1, 302263, Note_off_c, 0, 85, 60
1, 302292, Note_off_c, 0, 49, 59
1, 302367, Note_on_c, 0, 54, 57
1, 302373, Note_on_c, 0, 90, 104
1, 302376, Note_on_c, 0, 78, 95
1, 302385, Note_on_c, 0, 61, 35
1, 302394, Note_on_c, 0, 63, 44
1, 302410, Note_on_c, 0, 87, 35
1, 302411, Note_off_c, 0, 87, 127
1, 302411, Note_off_c, 0, 54, 56
1, 302415, Note_off_c, 0, 78, 60
1, 302417, Note_off_c, 0, 61, 52
1, 302420, Note_off_c, 0, 90, 62
1, 302422, Note_off_c, 0, 63, 56
1, 302432, Note_on_c, 0, 80, 9
1, 302433, Note_off_c, 0, 80, 127
1, 302478, Poly_aftertouch_c, 0, 80, 0
1, 302570, Control_c, 0, 64, 81
1, 302585, Control_c, 0, 64, 66
1, 302588, Note_on_c, 0, 90, 92
1, 302589, Note_on_c, 0, 78, 91
1, 302597, Note_on_c, 0, 70, 60
1, 302603, Note_on_c, 0, 66, 50
1, 302606, Note_on_c, 0, 82, 75
1, 302618, Note_on_c, 0, 61, 34
1, 302622, Control_c, 0, 64, 70
1, 302637, Control_c, 0, 64, 73
1, 302652, Control_c, 0, 64, 81
1, 302667, Control_c, 0, 64, 96
1, 302681, Control_c, 0, 64, 104
1, 302711, Control_c, 0, 64, 107
1, 302714, Note_off_c, 0, 70, 55
1, 302719, Note_off_c, 0, 90, 63
1, 302726, Control_c, 0, 64, 111
1, 302741, Control_c, 0, 64, 127
1, 302770, Note_on_c, 0, 58, 65
1, 302781, Note_off_c, 0, 66, 63
1, 302796, Note_off_c, 0, 58, 65
1, 302802, Note_off_c, 0, 78, 47
1, 302804, Note_off_c, 0, 61, 55
1, 302916, Note_on_c, 0, 61, 63
1, 302922, Note_on_c, 0, 58, 35
1, 302937, Note_off_c, 0, 61, 62
1, 302940, Note_on_c, 0, 49, 72
1, 302945, Note_on_c, 0, 89, 98
1, 302947, Note_on_c, 0, 77, 89
1, 302948, Note_off_c, 0, 58, 58
1, 302951, Note_on_c, 0, 85, 85
1, 302976, Note_off_c, 0, 49, 65
1, 303083, Note_off_c, 0, 89, 61
1, 303090, Note_off_c, 0, 77, 57
1, 303093, Note_off_c, 0, 85, 61
1, 303096, Control_c, 0, 64, 99
1, 303111, Note_off_c, 0, 82, 62
1, 303111, Control_c, 0, 64, 72
1, 303125, Control_c, 0, 64, 0
1, 303131, Note_on_c, 0, 37, 75
1, 303139, Note_on_c, 0, 85, 80
1, 303139, Note_on_c, 0, 49, 72
1, 303143, Note_on_c, 0, 89, 92
1, 303145, Note_on_c, 0, 77, 83
1, 303155, Control_c, 0, 64, 66
1, 303170, Control_c, 0, 64, 71
1, 303172, Note_off_c, 0, 37, 65
1, 303175, Note_off_c, 0, 49, 66
1, 303185, Control_c, 0, 64, 81
1, 303199, Control_c, 0, 64, 94
1, 303210, Note_off_c, 0, 89, 64
1, 303214, Control_c, 0, 64, 108
1, 303223, Note_off_c, 0, 77, 58
1, 303229, Control_c, 0, 64, 119
1, 303244, Control_c, 0, 64, 127
1, 303273, Note_off_c, 0, 85, 64
1, 303302, Note_on_c, 0, 59, 73
1, 303305, Note_on_c, 0, 49, 74
1, 303312, Note_on_c, 0, 87, 90
1, 303315, Note_on_c, 0, 75, 94
1, 303328, Note_off_c, 0, 59, 52
1, 303357, Note_on_c, 0, 51, 28
1, 303357, Note_on_c, 0, 85, 22
1, 303405, Poly_aftertouch_c, 0, 82, 127
1, 303405, Note_off_c, 0, 75, 61
1, 303409, Note_off_c, 0, 85, 49
1, 303411, Note_off_c, 0, 49, 60
1, 303420, Note_off_c, 0, 87, 64
1, 303426, Note_off_c, 0, 51, 51
1, 303437, Poly_aftertouch_c, 0, 82, 0
1, 303463, Note_on_c, 0, 64, 68
1, 303479, Note_on_c, 0, 85, 106
1, 303482, Note_on_c, 0, 73, 93
1, 303491, Note_off_c, 0, 64, 65
1, 303494, Note_on_c, 0, 82, 81
1, 303538, Note_off_c, 0, 73, 60
1, 303593, Control_c, 0, 64, 116
1, 303608, Control_c, 0, 64, 82
1, 303622, Control_c, 0, 64, 62
1, 303630, Note_off_c, 0, 85, 54
1, 303637, Control_c, 0, 64, 0
1, 303652, Control_c, 0, 64, 66
1, 303659, Note_on_c, 0, 83, 85
1, 303660, Note_on_c, 0, 71, 70
1, 303660, Note_on_c, 0, 87, 86
1, 303663, Note_on_c, 0, 75, 94
1, 303667, Control_c, 0, 64, 73
1, 303670, Note_on_c, 0, 61, 66
1, 303682, Control_c, 0, 64, 84
1, 303685, Note_off_c, 0, 71, 68
1, 303687, Note_on_c, 0, 85, 33
1, 303689, Note_on_c, 0, 65, 38
1, 303694, Note_off_c, 0, 82, 55
1, 303697, Control_c, 0, 64, 102
1, 303712, Control_c, 0, 64, 127
1, 303720, Note_off_c, 0, 85, 46
1, 303727, Note_off_c, 0, 87, 64
1, 303730, Note_off_c, 0, 65, 48
1, 303738, Note_off_c, 0, 75, 62
1, 303760, Note_off_c, 0, 61, 59
1, 303763, Note_off_c, 0, 83, 61
1, 303807, Note_on_c, 0, 61, 60
1, 303813, Note_on_c, 0, 65, 53
1, 303813, Note_on_c, 0, 56, 74
1, 303834, Note_off_c, 0, 65, 62
1, 303835, Note_off_c, 0, 61, 65
1, 303846, Note_off_c, 0, 56, 67
1, 303944, Poly_aftertouch_c, 0, 78, 127
1, 303978, Note_on_c, 0, 61, 70
1, 303983, Note_on_c, 0, 49, 81
1, 303989, Poly_aftertouch_c, 0, 78, 0
1, 303992, Note_on_c, 0, 80, 92
1, 303992, Note_on_c, 0, 68, 88
1, 304000, Note_on_c, 0, 77, 75
1, 304004, Note_off_c, 0, 61, 64
1, 304032, Note_off_c, 0, 49, 63
1, 304106, Note_off_c, 0, 68, 59
1, 304150, Control_c, 0, 64, 85
1, 304165, Control_c, 0, 64, 63
1, 304168, Note_off_c, 0, 77, 58
1, 304179, Control_c, 0, 64, 0
1, 304184, Note_on_c, 0, 42, 85
1, 304185, Note_on_c, 0, 54, 88
1, 304195, Note_on_c, 0, 78, 89
1, 304201, Note_on_c, 0, 70, 88
1, 304201, Note_on_c, 0, 82, 85
1, 304209, Control_c, 0, 64, 69
1, 304224, Control_c, 0, 64, 85
1, 304236, Note_off_c, 0, 54, 63
1, 304239, Note_off_c, 0, 42, 60
1, 304239, Control_c, 0, 64, 113
1, 304253, Control_c, 0, 64, 127
1, 304275, Note_off_c, 0, 70, 65
1, 304285, Note_off_c, 0, 82, 60
1, 304312, Note_off_c, 0, 80, 30
1, 304355, Note_on_c, 0, 49, 81
1, 304356, Note_on_c, 0, 61, 84
1, 304359, Note_off_c, 0, 78, 60
1, 304368, Note_on_c, 0, 58, 66
1, 304408, Note_off_c, 0, 49, 64
1, 304414, Note_off_c, 0, 61, 59
1, 304452, Note_off_c, 0, 58, 56
1, 304536, Note_on_c, 0, 66, 89
1, 304543, Note_on_c, 0, 58, 79
1, 304543, Note_on_c, 0, 54, 74
1, 304555, Note_off_c, 0, 66, 71
1, 304570, Note_off_c, 0, 58, 66
1, 304591, Note_off_c, 0, 54, 63
1, 304786, Control_c, 0, 64, 88
1, 304791, Note_on_c, 0, 48, 92
1, 304794, Note_on_c, 0, 36, 99
1, 304801, Note_on_c, 0, 76, 90
1, 304801, Control_c, 0, 64, 64
1, 304803, Note_on_c, 0, 70, 91
1, 304803, Note_on_c, 0, 82, 89
1, 304816, Control_c, 0, 64, 0
1, 304845, Control_c, 0, 64, 66
1, 304846, Note_off_c, 0, 36, 64
1, 304868, Control_c, 0, 64, 73
1, 304875, Note_off_c, 0, 48, 61
1, 304883, Control_c, 0, 64, 85
1, 304897, Control_c, 0, 64, 104
1, 304912, Control_c, 0, 64, 127
1, 305004, Note_on_c, 0, 55, 79
1, 305006, Note_on_c, 0, 60, 74
1, 305011, Note_on_c, 0, 58, 68
1, 305092, Note_off_c, 0, 60, 51
1, 305119, Note_off_c, 0, 76, 59
1, 305128, Note_off_c, 0, 58, 59
1, 305181, Note_on_c, 0, 67, 85
1, 305193, Note_on_c, 0, 58, 71
1, 305196, Note_on_c, 0, 60, 72
1, 305199, Note_off_c, 0, 67, 69
1, 305211, Note_off_c, 0, 60, 67
1, 305221, Note_off_c, 0, 58, 66
1, 305237, Note_off_c, 0, 55, 63
1, 305267, Note_on_c, 0, 67, 19
1, 305298, Note_off_c, 0, 67, 53
1, 305357, Poly_aftertouch_c, 0, 60, 0
1, 305417, Control_c, 0, 64, 90
1, 305432, Control_c, 0, 64, 65
1, 305439, Note_on_c, 0, 53, 94
1, 305441, Note_on_c, 0, 75, 86
1, 305444, Note_on_c, 0, 41, 89
1, 305447, Control_c, 0, 64, 0
1, 305476, Control_c, 0, 64, 64
1, 305491, Control_c, 0, 64, 71
1, 305506, Control_c, 0, 64, 81
1, 305512, Note_off_c, 0, 41, 62
1, 305521, Control_c, 0, 64, 94
1, 305536, Control_c, 0, 64, 109
1, 305543, Note_off_c, 0, 53, 64
1, 305551, Control_c, 0, 64, 127
1, 305575, Note_off_c, 0, 70, 57
1, 305599, Note_off_c, 0, 82, 60
1, 305688, Note_off_c, 0, 75, 0
1, 305692, Note_on_c, 0, 53, 68
1, 305697, Note_on_c, 0, 81, 94
1, 305697, Note_on_c, 0, 63, 56
1, 305699, Note_on_c, 0, 69, 89
1, 305703, Note_on_c, 0, 75, 45
1, 305729, Note_off_c, 0, 63, 62
1, 305729, Note_off_c, 0, 75, 58
1, 305739, Note_off_c, 0, 69, 64
1, 305768, Note_off_c, 0, 81, 61
1, 305872, Note_on_c, 0, 63, 68
1, 305877, Note_on_c, 0, 65, 83
1, 305881, Note_on_c, 0, 73, 99
1, 305881, Note_on_c, 0, 85, 98
1, 305888, Note_on_c, 0, 57, 61
1, 305895, Note_off_c, 0, 53, 59
1, 305933, Note_off_c, 0, 65, 63
1, 305983, Note_off_c, 0, 63, 62
1, 306006, Note_off_c, 0, 85, 59
1, 306017, Note_off_c, 0, 73, 59
1, 306018, Control_c, 0, 64, 101
1, 306033, Control_c, 0, 64, 85
1, 306046, Note_on_c, 0, 69, 90
1, 306048, Control_c, 0, 64, 84
1, 306053, Note_on_c, 0, 63, 56
1, 306063, Control_c, 0, 64, 94
1, 306069, Note_on_c, 0, 73, 87
1, 306070, Note_on_c, 0, 85, 94
1, 306075, Note_on_c, 0, 77, 80
1, 306078, Control_c, 0, 64, 109
1, 306092, Control_c, 0, 64, 127
1, 306097, Note_off_c, 0, 69, 59
1, 306114, Note_off_c, 0, 57, 0
1, 306114, Note_on_c, 0, 57, 2
1, 306168, Note_off_c, 0, 77, 58
1, 306209, Note_on_c, 0, 65, 91
1, 306216, Note_off_c, 0, 85, 60
1, 306222, Note_off_c, 0, 57, 52
1, 306242, Note_off_c, 0, 63, 62
1, 306251, Note_off_c, 0, 65, 66
1, 306270, Note_off_c, 0, 73, 61
1, 306394, Poly_aftertouch_c, 0, 57, 127
1, 306409, Note_on_c, 0, 63, 80
1, 306411, Note_on_c, 0, 72, 92
1, 306411, Note_on_c, 0, 84, 102
1, 306413, Note_on_c, 0, 75, 90
1, 306419, Note_on_c, 0, 53, 71
1, 306432, Note_off_c, 0, 63, 67
1, 306455, Poly_aftertouch_c, 0, 57, 0
1, 306463, Note_off_c, 0, 53, 65
1, 306496, Note_off_c, 0, 84, 62
1, 306502, Note_off_c, 0, 72, 60
1, 306567, Note_off_c, 0, 75, 63
1, 306573, Poly_aftertouch_c, 0, 63, 0
1, 306586, Note_on_c, 0, 79, 45
1, 306611, Note_off_c, 0, 79, 58
1, 306618, Control_c, 0, 64, 84
1, 306633, Control_c, 0, 64, 66
1, 306634, Note_on_c, 0, 34, 71
1, 306636, Note_on_c, 0, 46, 76
1, 306640, Note_on_c, 0, 70, 94
1, 306642, Note_on_c, 0, 82, 94
1, 306648, Control_c, 0, 64, 68
1, 306657, Note_on_c, 0, 73, 73
1, 306663, Control_c, 0, 64, 75
1, 306678, Control_c, 0, 64, 86
1, 306686, Note_on_c, 0, 80, 19
1, 306689, Note_off_c, 0, 34, 63
1, 306693, Control_c, 0, 64, 108
1, 306697, Note_off_c, 0, 46, 63
1, 306707, Control_c, 0, 64, 127
1, 306722, Note_off_c, 0, 70, 63
1, 306734, Note_off_c, 0, 80, 46
1, 306752, Note_off_c, 0, 73, 61
1, 306764, Note_off_c, 0, 82, 61
1, 306826, Note_on_c, 0, 61, 75
1, 306827, Note_on_c, 0, 72, 93
1, 306829, Note_on_c, 0, 84, 91
1, 306843, Note_on_c, 0, 75, 64
1, 306860, Note_on_c, 0, 53, 53
1, 306862, Note_off_c, 0, 75, 66
1, 306874, Note_off_c, 0, 72, 59
1, 306895, Note_off_c, 0, 84, 61
1, 306910, Note_off_c, 0, 61, 61
1, 306977, Note_on_c, 0, 65, 85
1, 306985, Note_on_c, 0, 58, 81
1, 306997, Note_on_c, 0, 85, 96
1, 306997, Note_off_c, 0, 65, 70
1, 306998, Note_on_c, 0, 73, 91
1, 307010, Note_off_c, 0, 58, 68
1, 307020, Note_on_c, 0, 77, 69
1, 307037, Note_off_c, 0, 53, 57
1, 307064, Note_on_c, 0, 65, 25
1, 307065, Note_off_c, 0, 65, 127
1, 307089, Note_off_c, 0, 77, 59
1, 307101, Note_off_c, 0, 73, 58
1, 307146, Note_off_c, 0, 85, 60
1, 307147, Poly_aftertouch_c, 0, 82, 0
1, 307173, Control_c, 0, 64, 107
1, 307188, Control_c, 0, 64, 74
1, 307203, Control_c, 0, 64, 0
1, 307208, Note_on_c, 0, 73, 97
1, 307209, Note_on_c, 0, 45, 93
1, 307211, Note_on_c, 0, 33, 93
1, 307213, Note_on_c, 0, 85, 93
1, 307220, Note_on_c, 0, 79, 81
1, 307233, Note_off_c, 0, 33, 66
1, 307233, Control_c, 0, 64, 68
1, 307237, Note_on_c, 0, 35, 57
1, 307245, Note_off_c, 0, 45, 64
1, 307247, Control_c, 0, 64, 75
1, 307262, Control_c, 0, 64, 89
1, 307265, Note_off_c, 0, 35, 40
1, 307277, Control_c, 0, 64, 112
1, 307292, Control_c, 0, 64, 127
1, 307386, Poly_aftertouch_c, 0, 33, 0
1, 307393, Note_on_c, 0, 51, 70
1, 307394, Note_on_c, 0, 61, 87
1, 307404, Note_on_c, 0, 55, 67
1, 307450, Note_off_c, 0, 51, 62
1, 307451, Note_off_c, 0, 61, 59
1, 307464, Note_off_c, 0, 55, 61
1, 307471, Note_off_c, 0, 79, 61
1, 307569, Note_on_c, 0, 67, 88
1, 307571, Note_on_c, 0, 55, 92
1, 307581, Note_on_c, 0, 61, 74
1, 307590, Note_off_c, 0, 67, 68
1, 307603, Note_off_c, 0, 61, 64
1, 307611, Note_off_c, 0, 55, 61
1, 307706, Poly_aftertouch_c, 0, 61, 127
1, 307745, Poly_aftertouch_c, 0, 61, 0
1, 307826, Control_c, 0, 64, 92
1, 307841, Control_c, 0, 64, 67
1, 307846, Note_on_c, 0, 80, 84
1, 307849, Note_on_c, 0, 44, 89
1, 307851, Note_on_c, 0, 32, 97
1, 307863, Note_on_c, 0, 78, 73
1, 307863, Control_c, 0, 64, 0
1, 307908, Control_c, 0, 64, 63
1, 307922, Control_c, 0, 64, 73
1, 307927, Note_off_c, 0, 32, 64
1, 307937, Control_c, 0, 64, 83
1, 307952, Note_off_c, 0, 44, 63
1, 307953, Control_c, 0, 64, 97
1, 307968, Control_c, 0, 64, 113
1, 307983, Control_c, 0, 64, 127
1, 308002, Note_off_c, 0, 73, 57
1, 308020, Poly_aftertouch_c, 0, 82, 127
1, 308033, Note_off_c, 0, 85, 60
1, 308064, Poly_aftertouch_c, 0, 82, 0
1, 308079, Note_off_c, 0, 78, 60
1, 308096, Note_off_c, 0, 80, 63
1, 308118, Note_on_c, 0, 51, 77
1, 308119, Note_on_c, 0, 84, 98
1, 308120, Note_on_c, 0, 72, 98
1, 308124, Note_on_c, 0, 63, 72
1, 308165, Note_on_c, 0, 82, 38
1, 308189, Note_off_c, 0, 63, 62
1, 308192, Note_on_c, 0, 78, 47
1, 308193, Note_off_c, 0, 72, 57
1, 308195, Note_off_c, 0, 84, 64
1, 308197, Note_off_c, 0, 51, 60
1, 308206, Note_off_c, 0, 82, 46
1, 308214, Note_off_c, 0, 78, 60
1, 308303, Note_on_c, 0, 66, 76
1, 308309, Note_on_c, 0, 73, 100
1, 308310, Note_on_c, 0, 85, 92
1, 308331, Note_off_c, 0, 66, 64
1, 308355, Note_off_c, 0, 73, 62
1, 308387, Note_off_c, 0, 85, 61
1, 308470, Note_on_c, 0, 63, 71
1, 308473, Note_on_c, 0, 72, 67
1, 308479, Note_on_c, 0, 66, 60
1, 308482, Note_on_c, 0, 75, 101
1, 308483, Note_on_c, 0, 87, 99
1, 308489, Note_off_c, 0, 72, 66
1, 308525, Note_off_c, 0, 75, 63
1, 308533, Note_off_c, 0, 87, 63
1, 308577, Note_off_c, 0, 66, 63
1, 308642, Note_on_c, 0, 56, 70
1, 308646, Note_on_c, 0, 77, 98
1, 308650, Note_on_c, 0, 89, 89
1, 308653, Note_on_c, 0, 91, 90
1, 308669, Note_off_c, 0, 63, 61
1, 308673, Note_off_c, 0, 91, 65
1, 308681, Note_off_c, 0, 77, 57
1, 308688, Note_off_c, 0, 89, 67
1, 308691, Note_off_c, 0, 56, 61
1, 308827, Note_on_c, 0, 51, 66
1, 308827, Note_on_c, 0, 78, 101
1, 308830, Note_on_c, 0, 90, 101
1, 308845, Note_on_c, 0, 85, 77
1, 308855, Note_off_c, 0, 51, 63
1, 308863, Note_on_c, 0, 87, 41
1, 308888, Note_off_c, 0, 87, 59
1, 309025, Note_on_c, 0, 37, 61
1, 309073, Control_c, 0, 64, 112
1, 309088, Control_c, 0, 64, 78
1, 309103, Control_c, 0, 64, 0
1, 309119, Note_on_c, 0, 87, 91
1, 309129, Note_on_c, 0, 49, 83
1, 309147, Control_c, 0, 64, 57
1, 309161, Control_c, 0, 64, 73
1, 309176, Control_c, 0, 64, 86
1, 309191, Note_off_c, 0, 37, 62
1, 309191, Control_c, 0, 64, 105
1, 309199, Note_off_c, 0, 85, 58
1, 309206, Control_c, 0, 64, 127
1, 309221, Note_off_c, 0, 49, 62
1, 309259, Note_off_c, 0, 90, 35
1, 309330, Note_off_c, 0, 78, 59
1, 309397, Note_off_c, 0, 87, 64
1, 309422, Note_on_c, 0, 85, 100
1, 309425, Note_on_c, 0, 61, 69
1, 309428, Note_on_c, 0, 89, 94
1, 309429, Note_on_c, 0, 77, 88
1, 309432, Note_on_c, 0, 53, 58
1, 309456, Note_on_c, 0, 56, 43
1, 309476, Note_off_c, 0, 77, 59
1, 309486, Note_off_c, 0, 56, 56
1, 309487, Note_off_c, 0, 61, 60
1, 309502, Note_off_c, 0, 89, 60
1, 309550, Note_off_c, 0, 85, 62
1, 309611, Note_on_c, 0, 56, 58
1, 309611, Note_on_c, 0, 65, 59
1, 309616, Note_on_c, 0, 61, 58
1, 309618, Note_off_c, 0, 53, 0
1, 309625, Note_on_c, 0, 78, 98
1, 309625, Note_on_c, 0, 87, 88
1, 309626, Note_on_c, 0, 90, 91
1, 309629, Note_off_c, 0, 65, 63
1, 309638, Note_on_c, 0, 53, 23
1, 309646, Note_off_c, 0, 61, 62
1, 309667, Note_off_c, 0, 56, 64
1, 309672, Note_off_c, 0, 53, 49
1, 309721, Note_off_c, 0, 90, 66
1, 309731, Note_off_c, 0, 78, 60
1, 309732, Control_c, 0, 64, 103
1, 309748, Control_c, 0, 64, 73
1, 309763, Control_c, 0, 64, 0
1, 309767, Note_off_c, 0, 87, 63
1, 309796, Note_on_c, 0, 51, 74
1, 309797, Note_on_c, 0, 39, 73
1, 309802, Note_on_c, 0, 89, 98
1, 309802, Note_on_c, 0, 85, 84
1, 309805, Note_on_c, 0, 77, 87
1, 309807, Control_c, 0, 64, 67
1, 309820, Note_off_c, 0, 39, 59
1, 309822, Control_c, 0, 64, 76
1, 309826, Note_off_c, 0, 51, 64
1, 309837, Control_c, 0, 64, 89
1, 309840, Note_on_c, 0, 52, 33
1, 309852, Control_c, 0, 64, 108
1, 309866, Note_off_c, 0, 77, 56
1, 309866, Control_c, 0, 64, 127
1, 309875, Note_off_c, 0, 52, 49
1, 309876, Note_off_c, 0, 89, 63
1, 309905, Note_off_c, 0, 85, 63
1, 309955, Note_on_c, 0, 51, 58
1, 309963, Note_on_c, 0, 87, 97
1, 309970, Note_on_c, 0, 75, 88
1, 309970, Note_on_c, 0, 83, 80
1, 310034, Poly_aftertouch_c, 0, 59, 127
1, 310055, Note_off_c, 0, 51, 61
1, 310057, Note_off_c, 0, 75, 62
1, 310107, Note_off_c, 0, 87, 62
1, 310112, Note_off_c, 0, 83, 58
1, 310113, Poly_aftertouch_c, 0, 59, 0
1, 310127, Note_on_c, 0, 56, 69
1, 310127, Note_on_c, 0, 59, 37
1, 310136, Note_on_c, 0, 85, 90
1, 310136, Note_on_c, 0, 89, 90
1, 310137, Note_on_c, 0, 77, 86
1, 310141, Note_on_c, 0, 66, 22
1, 310152, Note_on_c, 0, 87, 51
1, 310155, Note_off_c, 0, 56, 65
1, 310159, Note_off_c, 0, 59, 53
1, 310180, Note_off_c, 0, 66, 46
1, 310186, Note_off_c, 0, 87, 47
1, 310197, Note_off_c, 0, 89, 61
1, 310222, Note_off_c, 0, 77, 57
1, 310247, Note_off_c, 0, 85, 62
1, 310273, Control_c, 0, 64, 99
1, 310288, Control_c, 0, 64, 71
1, 310302, Control_c, 0, 64, 0
1, 310308, Note_on_c, 0, 41, 76
1, 310308, Note_on_c, 0, 83, 82
1, 310314, Note_on_c, 0, 87, 78
1, 310316, Note_on_c, 0, 53, 73
1, 310317, Note_on_c, 0, 75, 84
1, 310332, Control_c, 0, 64, 64
1, 310347, Note_off_c, 0, 41, 63
1, 310347, Control_c, 0, 64, 69
1, 310348, Note_off_c, 0, 53, 66
1, 310362, Control_c, 0, 64, 79
1, 310377, Control_c, 0, 64, 94
1, 310391, Note_off_c, 0, 87, 64
1, 310391, Control_c, 0, 64, 117
1, 310392, Note_off_c, 0, 75, 60
1, 310406, Control_c, 0, 64, 127
1, 310435, Note_off_c, 0, 83, 59
1, 310466, Note_on_c, 0, 59, 78
1, 310478, Note_on_c, 0, 85, 95
1, 310480, Note_on_c, 0, 49, 68
1, 310481, Note_on_c, 0, 73, 93
1, 310496, Note_off_c, 0, 59, 64
1, 310538, Note_on_c, 0, 56, 7
1, 310547, Note_off_c, 0, 49, 62
1, 310576, Note_off_c, 0, 85, 62
1, 310580, Note_off_c, 0, 73, 61
1, 310588, Note_off_c, 0, 56, 53
1, 310615, Note_on_c, 0, 64, 70
1, 310636, Note_on_c, 0, 72, 91
1, 310636, Note_on_c, 0, 84, 93
1, 310641, Note_on_c, 0, 80, 86
1, 310642, Note_off_c, 0, 64, 67
1, 310675, Note_on_c, 0, 82, 35
1, 310708, Note_off_c, 0, 82, 32
1, 310733, Note_off_c, 0, 84, 62
1, 310746, Note_off_c, 0, 72, 58
1, 310747, Control_c, 0, 64, 108
1, 310761, Note_off_c, 0, 80, 62
1, 310762, Control_c, 0, 64, 79
1, 310777, Control_c, 0, 64, 0
1, 310813, Note_on_c, 0, 71, 93
1, 310814, Note_on_c, 0, 68, 75
1, 310815, Note_on_c, 0, 80, 87
1, 310815, Note_on_c, 0, 83, 95
1, 310821, Note_on_c, 0, 59, 58
1, 310821, Control_c, 0, 64, 67
1, 310836, Control_c, 0, 64, 73
1, 310858, Control_c, 0, 64, 83
1, 310864, Note_off_c, 0, 68, 59
1, 310873, Control_c, 0, 64, 93
1, 310888, Control_c, 0, 64, 105
1, 310893, Note_off_c, 0, 71, 58
1, 310896, Note_off_c, 0, 83, 60
1, 310903, Control_c, 0, 64, 113
1, 310918, Control_c, 0, 64, 127
1, 310922, Note_off_c, 0, 59, 55
1, 310959, Note_on_c, 0, 65, 80
1, 310975, Note_on_c, 0, 59, 37
1, 310978, Note_on_c, 0, 61, 59
1, 310982, Note_off_c, 0, 65, 70
1, 310985, Note_on_c, 0, 56, 62
1, 310996, Note_off_c, 0, 80, 59
1, 311000, Note_off_c, 0, 61, 62
1, 311003, Note_off_c, 0, 59, 62
1, 311012, Note_off_c, 0, 56, 66
1, 311075, Note_on_c, 0, 77, 15
1, 311128, Note_off_c, 0, 77, 44
1, 311159, Note_on_c, 0, 37, 97
1, 311160, Note_on_c, 0, 80, 102
1, 311161, Note_on_c, 0, 49, 87
1, 311164, Note_on_c, 0, 68, 89
1, 311166, Note_on_c, 0, 77, 84
1, 311191, Note_off_c, 0, 49, 65
1, 311207, Note_off_c, 0, 37, 60
1, 311265, Note_off_c, 0, 68, 36
1, 311273, Control_c, 0, 64, 93
1, 311288, Control_c, 0, 64, 67
1, 311303, Control_c, 0, 64, 0
1, 311330, Note_off_c, 0, 80, 62
1, 311336, Note_off_c, 0, 77, 58
1, 311362, Note_on_c, 0, 78, 92
1, 311363, Control_c, 0, 64, 65
1, 311365, Note_on_c, 0, 70, 96
1, 311367, Note_on_c, 0, 82, 87
1, 311368, Note_on_c, 0, 42, 85
1, 311372, Note_on_c, 0, 54, 85
1, 311378, Control_c, 0, 64, 81
1, 311393, Control_c, 0, 64, 98
1, 311402, Note_off_c, 0, 54, 65
1, 311403, Note_on_c, 0, 80, 35
1, 311408, Control_c, 0, 64, 127
1, 311410, Note_off_c, 0, 42, 61
1, 311411, Note_off_c, 0, 70, 65
1, 311417, Note_off_c, 0, 82, 63
1, 311432, Note_off_c, 0, 78, 62
1, 311432, Note_off_c, 0, 80, 58
1, 311543, Note_on_c, 0, 51, 73
1, 311545, Note_on_c, 0, 61, 80
1, 311563, Note_on_c, 0, 58, 64
1, 311587, Note_off_c, 0, 61, 58
1, 311591, Note_off_c, 0, 51, 58
1, 311596, Note_off_c, 0, 58, 62
1, 311709, Note_on_c, 0, 58, 60
1, 311717, Note_on_c, 0, 70, 73
1, 311723, Note_on_c, 0, 85, 106
1, 311726, Note_on_c, 0, 73, 97
1, 311733, Note_off_c, 0, 70, 69
1, 311734, Note_on_c, 0, 61, 55
1, 311765, Note_off_c, 0, 73, 64
1, 311766, Note_off_c, 0, 61, 52
1, 311775, Note_off_c, 0, 58, 62
1, 311780, Note_on_c, 0, 82, 10
1, 311877, Poly_aftertouch_c, 0, 70, 0
1, 311904, Control_c, 0, 64, 106
1, 311908, Note_off_c, 0, 85, 55
1, 311912, Note_off_c, 0, 82, 23
1, 311919, Control_c, 0, 64, 78
1, 311934, Control_c, 0, 64, 0
1, 311939, Note_on_c, 0, 39, 74
1, 311949, Note_on_c, 0, 78, 95
1, 311952, Note_on_c, 0, 90, 95
1, 311954, Note_on_c, 0, 82, 85
1, 311954, Note_on_c, 0, 51, 63
1, 311963, Control_c, 0, 64, 63
1, 311978, Control_c, 0, 64, 72
1, 311993, Control_c, 0, 64, 84
1, 311996, Note_off_c, 0, 39, 59
1, 312008, Control_c, 0, 64, 105
1, 312017, Note_off_c, 0, 51, 62
1, 312022, Control_c, 0, 64, 127
1, 312064, Note_off_c, 0, 90, 62
1, 312101, Note_off_c, 0, 78, 59
1, 312134, Note_on_c, 0, 63, 85
1, 312139, Note_on_c, 0, 54, 71
1, 312183, Note_off_c, 0, 63, 60
1, 312206, Note_off_c, 0, 54, 60
1, 312300, Note_on_c, 0, 66, 81
1, 312301, Note_on_c, 0, 89, 97
1, 312302, Note_on_c, 0, 63, 77
1, 312304, Note_on_c, 0, 77, 92
1, 312304, Note_on_c, 0, 85, 92
1, 312315, Note_on_c, 0, 58, 70
1, 312322, Note_off_c, 0, 66, 69
1, 312334, Note_off_c, 0, 63, 65
1, 312359, Note_off_c, 0, 58, 61
1, 312455, Note_off_c, 0, 89, 61
1, 312464, Note_off_c, 0, 77, 57
1, 312470, Note_off_c, 0, 85, 61
1, 312489, Note_off_c, 0, 82, 62
1, 312490, Control_c, 0, 64, 107
1, 312505, Control_c, 0, 64, 76
1, 312514, Note_on_c, 0, 85, 84
1, 312519, Note_on_c, 0, 89, 93
1, 312520, Control_c, 0, 64, 0
1, 312521, Note_on_c, 0, 77, 87
1, 312523, Note_on_c, 0, 44, 69
1, 312526, Note_on_c, 0, 56, 68
1, 312550, Control_c, 0, 64, 57
1, 312565, Note_on_c, 0, 87, 35
1, 312565, Control_c, 0, 64, 67
1, 312573, Note_off_c, 0, 44, 61
1, 312579, Control_c, 0, 64, 74
1, 312580, Note_off_c, 0, 56, 63
1, 312592, Note_off_c, 0, 89, 62
1, 312594, Control_c, 0, 64, 85
1, 312595, Note_off_c, 0, 87, 34
1, 312609, Control_c, 0, 64, 98
1, 312618, Note_off_c, 0, 77, 59
1, 312624, Control_c, 0, 64, 112
1, 312638, Control_c, 0, 64, 127
1, 312660, Note_off_c, 0, 85, 63
1, 312684, Note_on_c, 0, 87, 86
1, 312689, Note_on_c, 0, 75, 91
1, 312691, Note_on_c, 0, 83, 83
1, 312692, Note_on_c, 0, 51, 75
1, 312699, Note_on_c, 0, 59, 56
1, 312748, Note_off_c, 0, 59, 47
1, 312754, Note_off_c, 0, 51, 61
1, 312774, Note_off_c, 0, 83, 60
1, 312775, Note_off_c, 0, 75, 61
1, 312812, Note_off_c, 0, 87, 65
1, 312840, Note_on_c, 0, 66, 63
1, 312846, Note_on_c, 0, 56, 69
1, 312854, Note_on_c, 0, 73, 87
1, 312854, Note_on_c, 0, 82, 90
1, 312856, Note_on_c, 0, 85, 94
1, 312860, Note_off_c, 0, 66, 64
1, 312881, Note_off_c, 0, 56, 67
1, 312887, Note_on_c, 0, 54, 36
1, 312920, Note_off_c, 0, 54, 48
1, 312941, Note_off_c, 0, 73, 53
1, 313009, Control_c, 0, 64, 101
1, 313012, Note_off_c, 0, 85, 61
1, 313024, Control_c, 0, 64, 69
1, 313039, Control_c, 0, 64, 0
1, 313044, Note_on_c, 0, 37, 79
1, 313044, Note_on_c, 0, 49, 78
1, 313049, Note_on_c, 0, 83, 94
1, 313054, Note_on_c, 0, 87, 87
1, 313054, Control_c, 0, 64, 50
1, 313054, Note_on_c, 0, 75, 90
1, 313069, Control_c, 0, 64, 67
1, 313078, Note_off_c, 0, 37, 67
1, 313078, Note_off_c, 0, 82, 61
1, 313084, Control_c, 0, 64, 74
1, 313093, Note_off_c, 0, 49, 61
1, 313106, Control_c, 0, 64, 87
1, 313121, Control_c, 0, 64, 112
1, 313134, Note_off_c, 0, 87, 63
1, 313135, Control_c, 0, 64, 127
1, 313146, Note_off_c, 0, 75, 63
1, 313159, Poly_aftertouch_c, 0, 85, 0
1, 313173, Note_off_c, 0, 83, 63
1, 313224, Note_on_c, 0, 49, 74
1, 313230, Note_on_c, 0, 57, 64
1, 313230, Note_on_c, 0, 59, 65
1, 313250, Note_off_c, 0, 59, 62
1, 313257, Note_off_c, 0, 57, 66
1, 313294, Note_off_c, 0, 49, 62
1, 313406, Note_on_c, 0, 65, 67
1, 313412, Note_on_c, 0, 56, 71
1, 313412, Note_on_c, 0, 68, 91
1, 313414, Note_on_c, 0, 80, 92
1, 313416, Note_on_c, 0, 77, 86
1, 313420, Note_on_c, 0, 59, 48
1, 313425, Note_off_c, 0, 65, 65
1, 313444, Note_off_c, 0, 59, 56
1, 313458, Note_off_c, 0, 56, 65
1, 313519, Note_off_c, 0, 68, 59
1, 313595, Control_c, 0, 64, 117
1, 313609, Control_c, 0, 64, 78
1, 313624, Control_c, 0, 64, 0
1, 313649, Note_on_c, 0, 40, 85
1, 313650, Note_on_c, 0, 52, 81
1, 313656, Note_on_c, 0, 78, 87
1, 313658, Note_on_c, 0, 82, 79
1, 313661, Note_on_c, 0, 70, 89
1, 313675, Note_off_c, 0, 77, 37
1, 313683, Control_c, 0, 64, 61
1, 313695, Note_off_c, 0, 40, 65
1, 313698, Control_c, 0, 64, 75
1, 313700, Note_off_c, 0, 80, 61
1, 313705, Note_off_c, 0, 52, 62
1, 313713, Control_c, 0, 64, 85
1, 313729, Control_c, 0, 64, 99
1, 313742, Note_off_c, 0, 70, 63
1, 313744, Control_c, 0, 64, 117
1, 313758, Control_c, 0, 64, 127
1, 313769, Note_off_c, 0, 82, 60
1, 313859, Note_off_c, 0, 78, 60
1, 313869, Note_on_c, 0, 61, 87
1, 313873, Note_on_c, 0, 54, 63
1, 313885, Note_on_c, 0, 52, 61
1, 313923, Note_off_c, 0, 61, 61
1, 313930, Note_off_c, 0, 52, 60
1, 313953, Note_off_c, 0, 54, 61
1, 314061, Note_on_c, 0, 66, 91
1, 314062, Note_on_c, 0, 54, 63
1, 314069, Note_on_c, 0, 61, 79
1, 314114, Note_off_c, 0, 66, 61
1, 314150, Note_off_c, 0, 54, 60
1, 314157, Note_off_c, 0, 61, 55
1, 314270, Control_c, 0, 64, 82
1, 314284, Control_c, 0, 64, 13
1, 314299, Control_c, 0, 64, 0
1, 314301, Note_on_c, 0, 52, 77
1, 314306, Note_on_c, 0, 73, 94
1, 314307, Note_on_c, 0, 61, 80
1, 314311, Note_on_c, 0, 79, 89
1, 314311, Note_on_c, 0, 85, 95
1, 314321, Note_on_c, 0, 57, 71
1, 314329, Control_c, 0, 64, 68
1, 314344, Control_c, 0, 64, 79
1, 314354, Note_off_c, 0, 52, 61
1, 314358, Control_c, 0, 64, 96
1, 314373, Control_c, 0, 64, 127
1, 314380, Note_off_c, 0, 57, 59
1, 314437, Poly_aftertouch_c, 0, 82, 0
1, 314500, Note_on_c, 0, 67, 85
1, 314502, Note_off_c, 0, 61, 0
1, 314502, Note_on_c, 0, 61, 3
1, 314515, Note_on_c, 0, 57, 65
1, 314526, Note_on_c, 0, 58, 41
1, 314539, Note_off_c, 0, 67, 62
1, 314564, Note_off_c, 0, 58, 46
1, 314580, Note_off_c, 0, 61, 54
1, 314684, Note_on_c, 0, 52, 87
1, 314687, Note_on_c, 0, 61, 80
1, 314709, Note_off_c, 0, 61, 65
1, 314714, Note_off_c, 0, 57, 63
1, 314728, Note_off_c, 0, 52, 63
1, 314853, Poly_aftertouch_c, 0, 61, 0
1, 314855, Control_c, 0, 64, 113
1, 314870, Control_c, 0, 64, 78
1, 314885, Control_c, 0, 64, 0
1, 314902, Note_on_c, 0, 51, 92
1, 314905, Note_on_c, 0, 39, 94
1, 314929, Control_c, 0, 64, 66
1, 314933, Note_off_c, 0, 39, 69
1, 314943, Note_off_c, 0, 51, 57
1, 314944, Control_c, 0, 64, 76
1, 314959, Control_c, 0, 64, 92
1, 314974, Control_c, 0, 64, 127
1, 315042, Note_off_c, 0, 73, 61
1, 315054, Note_off_c, 0, 85, 57
1, 315120, Note_on_c, 0, 51, 75
1, 315134, Note_on_c, 0, 72, 97
1, 315134, Note_on_c, 0, 84, 92
1, 315138, Note_on_c, 0, 61, 49
1, 315150, Note_off_c, 0, 79, 63
1, 315170, Note_on_c, 0, 58, 59
1, 315173, Note_off_c, 0, 51, 63
1, 315205, Note_off_c, 0, 61, 56
1, 315230, Note_off_c, 0, 84, 61
1, 315239, Note_off_c, 0, 72, 59
1, 315268, Note_off_c, 0, 58, 57
1, 315307, Note_on_c, 0, 67, 65
1, 315308, Note_off_c, 0, 67, 127
1, 315320, Note_on_c, 0, 55, 68
1, 315340, Note_on_c, 0, 62, 55
1, 315371, Note_off_c, 0, 62, 60
1, 315379, Poly_aftertouch_c, 0, 58, 127
1, 315382, Note_off_c, 0, 55, 62
1, 315422, Poly_aftertouch_c, 0, 58, 0
1, 315445, Note_on_c, 0, 71, 92
1, 315445, Note_on_c, 0, 83, 90
1, 315467, Note_off_c, 0, 83, 63
1, 315483, Note_off_c, 0, 71, 62
1, 315485, Control_c, 0, 64, 104
1, 315500, Control_c, 0, 64, 75
1, 315515, Control_c, 0, 64, 0
1, 315531, Note_on_c, 0, 71, 92
1, 315532, Note_on_c, 0, 83, 99
1, 315536, Note_on_c, 0, 50, 87
1, 315540, Note_on_c, 0, 38, 83
1, 315559, Control_c, 0, 64, 63
1, 315568, Note_off_c, 0, 50, 67
1, 315571, Note_off_c, 0, 38, 65
1, 315574, Control_c, 0, 64, 74
1, 315589, Control_c, 0, 64, 86
1, 315603, Control_c, 0, 64, 102
1, 315618, Control_c, 0, 64, 127
1, 315642, Note_off_c, 0, 71, 61
1, 315714, Note_off_c, 0, 83, 58
1, 315775, Note_on_c, 0, 62, 88
1, 315775, Note_on_c, 0, 82, 97
1, 315778, Note_on_c, 0, 70, 98
1, 315780, Note_on_c, 0, 55, 73
1, 315785, Note_on_c, 0, 50, 74
1, 315841, Note_off_c, 0, 55, 59
1, 315843, Note_off_c, 0, 62, 51
1, 315880, Note_off_c, 0, 50, 56
1, 315888, Note_off_c, 0, 70, 59
1, 315912, Note_off_c, 0, 82, 56
1, 316023, Note_on_c, 0, 54, 75
1, 316023, Note_on_c, 0, 60, 76
1, 316032, Note_on_c, 0, 50, 77
1, 316039, Note_on_c, 0, 81, 101
1, 316040, Note_on_c, 0, 69, 100
1, 316044, Note_off_c, 0, 60, 65
1, 316065, Note_off_c, 0, 54, 61
1, 316083, Note_off_c, 0, 50, 66
1, 316085, Note_off_c, 0, 69, 63
1, 316231, Note_on_c, 0, 37, 77
1, 316308, Control_c, 0, 64, 102
1, 316318, Note_off_c, 0, 81, 57
1, 316323, Control_c, 0, 64, 71
1, 316338, Control_c, 0, 64, 0
1, 316354, Note_on_c, 0, 82, 101
1, 316357, Note_on_c, 0, 70, 91
1, 316357, Note_on_c, 0, 49, 87
1, 316362, Note_on_c, 0, 78, 91
1, 316386, Note_off_c, 0, 37, 63
1, 316396, Control_c, 0, 64, 51
1, 316405, Note_off_c, 0, 49, 63
1, 316411, Control_c, 0, 64, 74
1, 316426, Control_c, 0, 64, 85
1, 316441, Control_c, 0, 64, 102
1, 316456, Control_c, 0, 64, 127
1, 316461, Note_off_c, 0, 70, 61
1, 316489, Note_off_c, 0, 82, 59
1, 316618, Note_off_c, 0, 78, 60
1, 316635, Note_on_c, 0, 49, 34
1, 316649, Note_on_c, 0, 61, 83
1, 316649, Note_on_c, 0, 85, 103
1, 316651, Note_on_c, 0, 58, 75
1, 316652, Note_on_c, 0, 73, 99
1, 316681, Note_off_c, 0, 49, 64
1, 316686, Note_off_c, 0, 58, 59
1, 316696, Note_off_c, 0, 61, 60
1, 316702, Note_off_c, 0, 73, 62
1, 316767, Note_off_c, 0, 85, 62
1, 316889, Poly_aftertouch_c, 0, 61, 127
1, 316891, Note_on_c, 0, 61, 3
1, 316931, Note_off_c, 0, 61, 39
1, 317027, Note_on_c, 0, 61, 74
1, 317034, Note_on_c, 0, 58, 76
1, 317034, Note_on_c, 0, 78, 99
1, 317035, Note_on_c, 0, 90, 98
1, 317042, Note_on_c, 0, 82, 91
1, 317070, Note_off_c, 0, 61, 63
1, 317087, Note_off_c, 0, 58, 61
1, 317094, Note_on_c, 0, 87, 6
1, 317109, Note_off_c, 0, 78, 61
1, 317144, Note_off_c, 0, 82, 62
1, 317180, Note_off_c, 0, 87, 39
1, 317328, Note_off_c, 0, 90, 34
1, 317401, Note_on_c, 0, 36, 50
1, 317513, Note_on_c, 0, 82, 95
1, 317513, Note_on_c, 0, 78, 97
1, 317515, Control_c, 0, 64, 104
1, 317516, Note_on_c, 0, 48, 89
1, 317516, Note_on_c, 0, 90, 92
1, 317530, Control_c, 0, 64, 72
1, 317544, Control_c, 0, 64, 0
1, 317622, Note_off_c, 0, 90, 63
1, 317626, Control_c, 0, 64, 65
1, 317641, Control_c, 0, 64, 75
1, 317656, Control_c, 0, 64, 85
1, 317671, Control_c, 0, 64, 96
1, 317674, Note_off_c, 0, 36, 62
1, 317678, Note_off_c, 0, 78, 61
1, 317686, Control_c, 0, 64, 106
1, 317700, Control_c, 0, 64, 120
1, 317709, Note_off_c, 0, 82, 60
1, 317715, Control_c, 0, 64, 127
1, 317724, Note_off_c, 0, 48, 61
1, 318146, Note_on_c, 0, 68, 99
1, 318422, Note_on_c, 0, 56, 47
1, 318518, Note_on_c, 0, 63, 52
1, 318535, Note_off_c, 0, 68, 64
1, 318571, Note_on_c, 0, 66, 93
1, 318584, Control_c, 0, 64, 82
1, 318588, Note_on_c, 0, 68, 94
1, 318598, Control_c, 0, 64, 0
1, 318688, Control_c, 0, 64, 66
1, 318703, Control_c, 0, 64, 76
1, 318718, Control_c, 0, 64, 83
1, 318732, Control_c, 0, 64, 92
1, 318747, Control_c, 0, 64, 97
1, 318759, Note_off_c, 0, 68, 62
1, 318762, Control_c, 0, 64, 102
1, 318777, Control_c, 0, 64, 107
1, 318791, Control_c, 0, 64, 113
1, 318792, Note_on_c, 0, 70, 69
1, 318806, Control_c, 0, 64, 123
1, 318821, Control_c, 0, 64, 127
1, 318823, Note_off_c, 0, 70, 62
1, 318869, Note_on_c, 0, 68, 71
1, 318896, Note_off_c, 0, 68, 66
1, 318902, Note_on_c, 0, 70, 75
1, 318929, Note_off_c, 0, 70, 60
1, 318971, Note_on_c, 0, 68, 68
1, 319002, Note_off_c, 0, 68, 65
1, 319003, Note_on_c, 0, 70, 73
1, 319035, Note_off_c, 0, 70, 57
1, 319068, Note_on_c, 0, 68, 67
1, 319102, Note_off_c, 0, 68, 64
1, 319106, Note_on_c, 0, 70, 78
1, 319144, Note_off_c, 0, 70, 54
1, 319173, Note_on_c, 0, 68, 70
1, 319204, Note_on_c, 0, 70, 80
1, 319210, Note_off_c, 0, 68, 61
1, 319246, Note_off_c, 0, 70, 61
1, 319272, Note_on_c, 0, 68, 65
1, 319303, Note_on_c, 0, 70, 83
1, 319307, Note_off_c, 0, 68, 65
1, 319330, Note_off_c, 0, 66, 61
1, 319352, Note_off_c, 0, 70, 61
1, 319370, Note_on_c, 0, 68, 76
1, 319393, Note_off_c, 0, 63, 58
1, 319401, Note_on_c, 0, 70, 72
1, 319407, Note_off_c, 0, 68, 62
1, 319447, Note_off_c, 0, 56, 63
1, 319457, Note_off_c, 0, 70, 62
1, 319470, Note_on_c, 0, 68, 69
1, 319504, Note_off_c, 0, 68, 57
1, 319510, Note_on_c, 0, 70, 71
1, 319564, Note_off_c, 0, 70, 62
1, 319566, Note_on_c, 0, 68, 70
1, 319606, Note_on_c, 0, 70, 61
1, 319618, Note_off_c, 0, 68, 63
1, 319668, Note_off_c, 0, 70, 61
1, 319668, Note_on_c, 0, 68, 66
1, 319698, Note_on_c, 0, 70, 56
1, 319701, Note_off_c, 0, 68, 65
1, 319764, Note_on_c, 0, 68, 78
1, 319776, Note_off_c, 0, 70, 64
1, 319832, Note_on_c, 0, 67, 88
1, 319858, Note_off_c, 0, 68, 63
1, 319974, Note_off_c, 0, 67, 61
1, 320056, Note_on_c, 0, 32, 59
1, 320156, Control_c, 0, 64, 102
1, 320166, Note_on_c, 0, 68, 93
1, 320170, Note_on_c, 0, 44, 91
1, 320170, Control_c, 0, 64, 66
1, 320171, Note_on_c, 0, 60, 88
1, 320172, Note_on_c, 0, 66, 87
1, 320185, Control_c, 0, 64, 0
1, 320239, Note_off_c, 0, 60, 60
1, 320244, Control_c, 0, 64, 67
1, 320259, Control_c, 0, 64, 78
1, 320274, Control_c, 0, 64, 95
1, 320277, Note_off_c, 0, 32, 64
1, 320289, Control_c, 0, 64, 127
1, 320297, Note_off_c, 0, 44, 61
1, 320297, Note_off_c, 0, 66, 62
1, 320315, Note_off_c, 0, 68, 65
1, 320512, Note_on_c, 0, 65, 93
1, 320515, Note_on_c, 0, 77, 94
1, 320518, Note_on_c, 0, 72, 86
1, 320533, Note_on_c, 0, 54, 71
1, 320533, Note_on_c, 0, 56, 68
1, 320551, Note_on_c, 0, 60, 53
1, 320631, Note_off_c, 0, 77, 60
1, 320642, Note_off_c, 0, 60, 0
1, 320652, Note_off_c, 0, 65, 57
1, 320655, Note_off_c, 0, 54, 57
1, 320678, Poly_aftertouch_c, 0, 60, 127
1, 320752, Note_off_c, 0, 56, 35
1, 320760, Poly_aftertouch_c, 0, 60, 0
1, 320821, Note_off_c, 0, 72, 59
1, 320838, Note_on_c, 0, 63, 86
1, 320843, Note_on_c, 0, 60, 83
1, 320850, Note_on_c, 0, 56, 69
1, 320850, Note_on_c, 0, 66, 95
1, 320852, Note_on_c, 0, 78, 98
1, 320855, Note_on_c, 0, 54, 73
1, 320856, Poly_aftertouch_c, 0, 72, 0
1, 320861, Note_off_c, 0, 63, 68
1, 320861, Note_on_c, 0, 72, 63
1, 320868, Note_off_c, 0, 60, 66
1, 320896, Note_off_c, 0, 72, 59
1, 320914, Note_off_c, 0, 56, 64
1, 320916, Note_off_c, 0, 54, 63
1, 320994, Note_off_c, 0, 66, 52
1, 321131, Note_on_c, 0, 37, 47
1, 321132, Note_off_c, 0, 78, 56
1, 321211, Note_off_c, 0, 37, 60
1, 321230, Control_c, 0, 64, 102
1, 321245, Control_c, 0, 64, 68
1, 321259, Note_on_c, 0, 37, 83
1, 321259, Control_c, 0, 64, 0
1, 321262, Note_on_c, 0, 49, 93
1, 321266, Note_on_c, 0, 68, 94
1, 321267, Note_on_c, 0, 80, 95
1, 321269, Note_on_c, 0, 71, 85
1, 321273, Note_on_c, 0, 78, 85
1, 321275, Note_on_c, 0, 75, 79
1, 321356, Control_c, 0, 64, 74
1, 321358, Note_off_c, 0, 68, 63
1, 321371, Control_c, 0, 64, 88
1, 321385, Control_c, 0, 64, 110
1, 321395, Note_off_c, 0, 71, 61
1, 321400, Control_c, 0, 64, 127
1, 321402, Note_off_c, 0, 37, 61
1, 321433, Note_off_c, 0, 49, 61
1, 321461, Note_off_c, 0, 75, 60
1, 321469, Note_off_c, 0, 80, 57
1, 321510, Note_off_c, 0, 78, 57
1, 321757, Note_on_c, 0, 75, 101
1, 321757, Note_on_c, 0, 87, 99
1, 321758, Note_on_c, 0, 70, 91
1, 321759, Note_on_c, 0, 78, 94
1, 321766, Note_on_c, 0, 66, 77
1, 321767, Note_on_c, 0, 59, 77
1, 321774, Note_on_c, 0, 63, 72
1, 321800, Note_off_c, 0, 70, 62
1, 321844, Note_off_c, 0, 87, 67
1, 321847, Poly_aftertouch_c, 0, 82, 127
1, 321847, Note_off_c, 0, 66, 62
1, 321865, Note_off_c, 0, 59, 60
1, 321871, Note_off_c, 0, 63, 61
1, 321880, Poly_aftertouch_c, 0, 82, 0
1, 321905, Note_off_c, 0, 78, 60
1, 321935, Note_off_c, 0, 75, 60
1, 322298, Control_c, 0, 64, 93
1, 322313, Control_c, 0, 64, 69
1, 322316, Note_on_c, 0, 61, 96
1, 322318, Note_on_c, 0, 65, 92
1, 322318, Note_on_c, 0, 71, 90
1, 322319, Note_on_c, 0, 73, 90
1, 322320, Note_on_c, 0, 77, 93
1, 322322, Note_on_c, 0, 49, 78
1, 322324, Note_on_c, 0, 56, 78
1, 322327, Control_c, 0, 64, 30
1, 322342, Control_c, 0, 64, 65
1, 322357, Control_c, 0, 64, 70
1, 322369, Note_off_c, 0, 61, 62
1, 322372, Control_c, 0, 64, 79
1, 322387, Control_c, 0, 64, 96
1, 322402, Control_c, 0, 64, 127
1, 322435, Poly_aftertouch_c, 0, 75, 0
1, 322453, Note_off_c, 0, 56, 62
1, 322493, Note_off_c, 0, 77, 58
1, 322510, Note_off_c, 0, 49, 61
1, 322515, Note_off_c, 0, 71, 62
1, 322620, Note_off_c, 0, 65, 52
1, 323135, Control_c, 0, 64, 118
1, 323138, Note_on_c, 0, 42, 93
1, 323138, Note_on_c, 0, 30, 88
1, 323142, Note_on_c, 0, 78, 92
1, 323144, Note_on_c, 0, 70, 89
1, 323145, Note_on_c, 0, 66, 91
1, 323150, Control_c, 0, 64, 79
1, 323165, Control_c, 0, 64, 0
1, 323178, Note_off_c, 0, 73, 61
1, 323283, Control_c, 0, 64, 64
1, 323298, Control_c, 0, 64, 69
1, 323314, Control_c, 0, 64, 75
1, 323329, Control_c, 0, 64, 82
1, 323344, Control_c, 0, 64, 91
1, 323347, Note_off_c, 0, 30, 60
1, 323359, Control_c, 0, 64, 100
1, 323374, Control_c, 0, 64, 109
1, 323388, Control_c, 0, 64, 114
1, 323403, Control_c, 0, 64, 119
1, 323411, Note_off_c, 0, 42, 58
1, 323418, Control_c, 0, 64, 127
1, 323524, Note_off_c, 0, 78, 54
1, 323543, Note_off_c, 0, 66, 56
1, 323668, Note_off_c, 0, 70, 55
1, 323738, Note_on_c, 0, 49, 80
1, 324104, Note_on_c, 0, 61, 87
1, 324109, Note_on_c, 0, 54, 71
1, 324198, Note_off_c, 0, 54, 60
1, 324204, Note_off_c, 0, 61, 59
1, 324366, Control_c, 0, 64, 116
1, 324377, Note_on_c, 0, 66, 95
1, 324381, Control_c, 0, 64, 109
1, 324382, Note_on_c, 0, 78, 83
1, 324385, Note_on_c, 0, 61, 84
1, 324394, Note_on_c, 0, 54, 70
1, 324396, Control_c, 0, 64, 112
1, 324399, Note_on_c, 0, 70, 70
1, 324411, Control_c, 0, 64, 127
1, 324456, Note_on_c, 0, 75, 32
1, 324458, Note_off_c, 0, 49, 51
1, 324509, Note_off_c, 0, 66, 62
1, 324523, Note_off_c, 0, 61, 59
1, 324629, Note_off_c, 0, 70, 61
1, 324651, Note_on_c, 0, 49, 72
1, 324661, Note_on_c, 0, 71, 94
1, 324685, Note_off_c, 0, 54, 60
1, 324730, Note_off_c, 0, 49, 62
1, 324733, Note_off_c, 0, 75, 38
1, 324872, Note_on_c, 0, 72, 96
1, 324887, Note_on_c, 0, 42, 76
1, 324908, Note_off_c, 0, 71, 63
1, 324980, Note_off_c, 0, 78, 35
1, 325287, Note_on_c, 0, 30, 76
1, 325288, Note_on_c, 0, 68, 92
1, 325293, Control_c, 0, 64, 80
1, 325296, Note_on_c, 0, 78, 86
1, 325308, Control_c, 0, 64, 0
1, 325326, Note_on_c, 0, 73, 46
1, 325356, Note_off_c, 0, 73, 52
1, 325382, Control_c, 0, 64, 64
1, 325395, Note_off_c, 0, 72, 50
1, 325397, Control_c, 0, 64, 75
1, 325402, Note_off_c, 0, 30, 62
1, 325412, Control_c, 0, 64, 84
1, 325427, Control_c, 0, 64, 97
1, 325431, Note_off_c, 0, 42, 54
1, 325441, Control_c, 0, 64, 110
1, 325456, Control_c, 0, 64, 127
1, 325501, Note_off_c, 0, 78, 61
1, 325695, Note_on_c, 0, 49, 69
1, 325707, Note_on_c, 0, 77, 87
1, 325720, Note_on_c, 0, 73, 69
1, 325773, Note_off_c, 0, 68, 50
1, 325916, Note_off_c, 0, 77, 59
1, 325923, Note_off_c, 0, 73, 59
1, 325931, Note_on_c, 0, 66, 86
1, 325934, Note_on_c, 0, 61, 65
1, 325956, Note_on_c, 0, 56, 37
1, 325981, Note_off_c, 0, 66, 64
1, 325988, Note_off_c, 0, 56, 53
1, 325994, Note_off_c, 0, 61, 47
1, 326033, Note_on_c, 0, 73, 75
1, 326043, Note_on_c, 0, 66, 65
1, 326046, Note_on_c, 0, 68, 64
1, 326065, Note_off_c, 0, 73, 62
1, 326073, Note_off_c, 0, 66, 66
1, 326076, Note_off_c, 0, 68, 65
1, 326116, Control_c, 0, 64, 85
1, 326122, Note_on_c, 0, 66, 91
1, 326127, Note_on_c, 0, 68, 89
1, 326131, Note_on_c, 0, 73, 80
1, 326131, Control_c, 0, 64, 66
1, 326136, Note_on_c, 0, 61, 68
1, 326146, Control_c, 0, 64, 50
1, 326160, Note_on_c, 0, 54, 59
1, 326160, Note_off_c, 0, 49, 54
1, 326161, Control_c, 0, 64, 66
1, 326176, Control_c, 0, 64, 71
1, 326190, Control_c, 0, 64, 77
1, 326205, Control_c, 0, 64, 88
1, 326220, Control_c, 0, 64, 99
1, 326235, Control_c, 0, 64, 106
1, 326249, Note_off_c, 0, 61, 60
1, 326250, Control_c, 0, 64, 110
1, 326264, Control_c, 0, 64, 119
1, 326266, Note_off_c, 0, 66, 59
1, 326279, Control_c, 0, 64, 127
1, 326340, Poly_aftertouch_c, 0, 70, 127
1, 326374, Note_on_c, 0, 65, 92
1, 326384, Note_on_c, 0, 49, 73
1, 326406, Note_off_c, 0, 54, 60
1, 326455, Note_off_c, 0, 49, 62
1, 326611, Note_on_c, 0, 42, 82
1, 326637, Poly_aftertouch_c, 0, 70, 0
1, 326674, Poly_aftertouch_c, 0, 70, 127
1, 326724, Note_on_c, 0, 61, 88
1, 326724, Note_off_c, 0, 65, 61
1, 326745, Note_off_c, 0, 73, 61
1, 326747, Note_off_c, 0, 68, 40
1, 326756, Poly_aftertouch_c, 0, 70, 0
1, 326838, Note_off_c, 0, 61, 60
1, 327028, Control_c, 0, 64, 101
1, 327034, Note_on_c, 0, 68, 86
1, 327034, Note_on_c, 0, 76, 84
1, 327034, Note_on_c, 0, 30, 77
1, 327034, Note_on_c, 0, 64, 78
1, 327043, Control_c, 0, 64, 65
1, 327057, Control_c, 0, 64, 0
1, 327131, Control_c, 0, 64, 65
1, 327141, Note_off_c, 0, 30, 63
1, 327146, Control_c, 0, 64, 75
1, 327161, Control_c, 0, 64, 81
1, 327168, Note_off_c, 0, 42, 59
1, 327176, Control_c, 0, 64, 90
1, 327191, Control_c, 0, 64, 97
1, 327205, Control_c, 0, 64, 102
1, 327220, Control_c, 0, 64, 106
1, 327235, Control_c, 0, 64, 110
1, 327249, Control_c, 0, 64, 117
1, 327264, Control_c, 0, 64, 127
1, 327397, Note_on_c, 0, 70, 86
1, 327414, Note_on_c, 0, 49, 70
1, 327419, Note_off_c, 0, 76, 50
1, 327422, Note_off_c, 0, 64, 55
1, 327596, Note_on_c, 0, 71, 82
1, 327604, Note_on_c, 0, 61, 79
1, 327610, Note_off_c, 0, 70, 0
1, 327627, Note_on_c, 0, 64, 57
1, 327628, Note_off_c, 0, 68, 62
1, 327646, Poly_aftertouch_c, 0, 70, 127
1, 327648, Note_off_c, 0, 64, 61
1, 327653, Note_on_c, 0, 56, 34
1, 327669, Note_off_c, 0, 61, 50
1, 327684, Poly_aftertouch_c, 0, 51, 127
1, 327687, Note_off_c, 0, 56, 54
1, 327809, Poly_aftertouch_c, 0, 70, 0
1, 327821, Control_c, 0, 64, 91
1, 327824, Note_on_c, 0, 70, 55
1, 327831, Note_on_c, 0, 76, 90
1, 327833, Note_on_c, 0, 64, 85
1, 327836, Control_c, 0, 64, 68
1, 327838, Note_on_c, 0, 61, 75
1, 327839, Poly_aftertouch_c, 0, 51, 0
1, 327851, Control_c, 0, 64, 0
1, 327853, Note_on_c, 0, 54, 70
1, 327858, Note_off_c, 0, 71, 63
1, 327866, Control_c, 0, 64, 64
1, 327866, Note_off_c, 0, 49, 56
1, 327880, Control_c, 0, 64, 71
1, 327893, Poly_aftertouch_c, 0, 51, 0
1, 327895, Control_c, 0, 64, 78
1, 327910, Control_c, 0, 64, 93
1, 327920, Note_off_c, 0, 61, 60
1, 327925, Control_c, 0, 64, 108
1, 327940, Control_c, 0, 64, 117
1, 327954, Control_c, 0, 64, 127
1, 327997, Note_off_c, 0, 64, 60
1, 328046, Note_on_c, 0, 75, 89
1, 328059, Note_on_c, 0, 49, 74
1, 328092, Note_off_c, 0, 70, 62
1, 328095, Note_off_c, 0, 54, 61
1, 328099, Note_off_c, 0, 76, 56
1, 328131, Note_off_c, 0, 49, 61
1, 328273, Note_on_c, 0, 68, 89
1, 328276, Note_on_c, 0, 42, 81
1, 328280, Note_on_c, 0, 73, 78
1, 328322, Note_off_c, 0, 75, 60
1, 328411, Note_off_c, 0, 68, 61
1, 328629, Control_c, 0, 64, 112
1, 328644, Control_c, 0, 64, 77
1, 328654, Note_off_c, 0, 73, 0
1, 328659, Control_c, 0, 64, 0
1, 328659, Note_on_c, 0, 66, 94
1, 328665, Note_on_c, 0, 76, 85
1, 328666, Note_on_c, 0, 30, 80
1, 328692, Poly_aftertouch_c, 0, 73, 127
1, 328703, Control_c, 0, 64, 51
1, 328718, Control_c, 0, 64, 71
1, 328733, Poly_aftertouch_c, 0, 73, 0
1, 328733, Control_c, 0, 64, 80
1, 328748, Control_c, 0, 64, 92
1, 328760, Note_off_c, 0, 30, 62
1, 328763, Control_c, 0, 64, 107
1, 328777, Control_c, 0, 64, 121
1, 328792, Control_c, 0, 64, 127
1, 328795, Note_off_c, 0, 42, 56
1, 328984, Note_off_c, 0, 76, 52
1, 329109, Note_on_c, 0, 51, 65
1, 329109, Note_on_c, 0, 75, 86
1, 329121, Note_on_c, 0, 71, 63
1, 329136, Note_off_c, 0, 66, 62
1, 329224, Note_off_c, 0, 71, 61
1, 329330, Note_off_c, 0, 75, 62
1, 329339, Note_on_c, 0, 64, 81
1, 329352, Note_on_c, 0, 59, 64
1, 329360, Note_on_c, 0, 54, 52
1, 329413, Note_off_c, 0, 59, 58
1, 329436, Note_on_c, 0, 66, 69
1, 329436, Note_off_c, 0, 54, 56
1, 329437, Note_on_c, 0, 71, 66
1, 329449, Note_off_c, 0, 64, 62
1, 329466, Note_off_c, 0, 71, 64
1, 329466, Note_off_c, 0, 66, 63
1, 329511, Control_c, 0, 64, 101
1, 329517, Note_on_c, 0, 71, 81
1, 329522, Note_on_c, 0, 64, 91
1, 329525, Control_c, 0, 64, 72
1, 329527, Note_on_c, 0, 66, 72
1, 329532, Note_on_c, 0, 59, 73
1, 329540, Control_c, 0, 64, 0
1, 329555, Note_on_c, 0, 54, 62
1, 329577, Control_c, 0, 64, 50
1, 329592, Control_c, 0, 64, 66
1, 329607, Control_c, 0, 64, 71
1, 329613, Note_off_c, 0, 51, 55
1, 329622, Control_c, 0, 64, 79
1, 329637, Control_c, 0, 64, 87
1, 329651, Control_c, 0, 64, 93
1, 329666, Control_c, 0, 64, 97
1, 329681, Control_c, 0, 64, 101
1, 329696, Control_c, 0, 64, 106
1, 329699, Note_off_c, 0, 59, 53
1, 329711, Control_c, 0, 64, 111
1, 329726, Control_c, 0, 64, 117
1, 329729, Note_off_c, 0, 64, 61
1, 329741, Control_c, 0, 64, 127
1, 329771, Note_off_c, 0, 71, 56
1, 329774, Note_on_c, 0, 63, 91
1, 329795, Note_on_c, 0, 51, 64
1, 329828, Note_off_c, 0, 54, 60
1, 329860, Note_off_c, 0, 51, 61
1, 329887, Poly_aftertouch_c, 0, 68, 127
1, 330006, Note_on_c, 0, 42, 78
1, 330087, Note_on_c, 0, 59, 78
1, 330105, Poly_aftertouch_c, 0, 68, 0
1, 330110, Note_off_c, 0, 66, 58
1, 330118, Note_off_c, 0, 63, 58
1, 330132, Note_off_c, 0, 59, 62
1, 330176, Note_on_c, 0, 59, 75
1, 330275, Note_on_c, 0, 67, 72
1, 330421, Note_off_c, 0, 59, 48
1, 330459, Control_c, 0, 64, 98
1, 330474, Control_c, 0, 64, 70
1, 330479, Note_on_c, 0, 74, 86
1, 330489, Control_c, 0, 64, 0
1, 330489, Note_on_c, 0, 30, 74
1, 330549, Control_c, 0, 64, 66
1, 330564, Control_c, 0, 64, 75
1, 330579, Control_c, 0, 64, 84
1, 330593, Control_c, 0, 64, 94
1, 330595, Note_off_c, 0, 30, 62
1, 330608, Control_c, 0, 64, 101
1, 330623, Control_c, 0, 64, 109
1, 330634, Note_off_c, 0, 42, 57
1, 330638, Control_c, 0, 64, 115
1, 330653, Control_c, 0, 64, 122
1, 330668, Control_c, 0, 64, 127
1, 330879, Note_on_c, 0, 50, 66
1, 330885, Note_on_c, 0, 61, 89
1, 331041, Note_off_c, 0, 61, 60
1, 331110, Note_on_c, 0, 62, 92
1, 331114, Note_on_c, 0, 59, 65
1, 331124, Note_off_c, 0, 67, 34
1, 331127, Note_on_c, 0, 55, 56
1, 331164, Note_off_c, 0, 74, 51
1, 331187, Note_off_c, 0, 55, 55
1, 331188, Note_off_c, 0, 59, 58
1, 331252, Note_off_c, 0, 62, 63
1, 331267, Control_c, 0, 64, 102
1, 331282, Control_c, 0, 64, 75
1, 331297, Control_c, 0, 64, 0
1, 331309, Note_on_c, 0, 62, 90
1, 331310, Note_on_c, 0, 59, 75
1, 331312, Control_c, 0, 64, 65
1, 331314, Note_on_c, 0, 74, 82
1, 331319, Note_on_c, 0, 71, 73
1, 331325, Note_on_c, 0, 55, 63
1, 331327, Control_c, 0, 64, 72
1, 331342, Control_c, 0, 64, 80
1, 331351, Note_off_c, 0, 50, 55
1, 331357, Control_c, 0, 64, 93
1, 331371, Control_c, 0, 64, 106
1, 331386, Control_c, 0, 64, 115
1, 331401, Control_c, 0, 64, 120
1, 331416, Control_c, 0, 64, 127
1, 331442, Note_off_c, 0, 59, 58
1, 331544, Note_on_c, 0, 50, 55
1, 331546, Note_on_c, 0, 67, 79
1, 331558, Note_off_c, 0, 55, 60
1, 331589, Note_off_c, 0, 62, 62
1, 331591, Note_off_c, 0, 50, 61
1, 331646, Note_off_c, 0, 74, 52
1, 331745, Note_off_c, 0, 71, 55
1, 331756, Note_on_c, 0, 42, 80
1, 331763, Note_on_c, 0, 59, 85
1, 331864, Note_off_c, 0, 59, 53
1, 332121, Control_c, 0, 64, 103
1, 332136, Control_c, 0, 64, 73
1, 332141, Note_on_c, 0, 62, 86
1, 332144, Note_on_c, 0, 30, 73
1, 332144, Note_on_c, 0, 74, 82
1, 332150, Control_c, 0, 64, 0
1, 332152, Note_on_c, 0, 71, 70
1, 332210, Control_c, 0, 64, 67
1, 332224, Control_c, 0, 64, 74
1, 332239, Control_c, 0, 64, 80
1, 332249, Note_off_c, 0, 67, 0
1, 332254, Control_c, 0, 64, 88
1, 332269, Control_c, 0, 64, 96
1, 332271, Note_off_c, 0, 30, 62
1, 332284, Control_c, 0, 64, 103
1, 332286, Poly_aftertouch_c, 0, 67, 127
1, 332299, Control_c, 0, 64, 113
1, 332313, Note_off_c, 0, 42, 57
1, 332313, Control_c, 0, 64, 124
1, 332328, Control_c, 0, 64, 127
1, 332334, Note_off_c, 0, 62, 62
1, 332379, Note_off_c, 0, 74, 48
1, 332417, Note_off_c, 0, 71, 58
1, 332536, Poly_aftertouch_c, 0, 67, 0
1, 332558, Note_on_c, 0, 50, 63
1, 332573, Note_on_c, 0, 70, 78
1, 332582, Note_on_c, 0, 61, 80
1, 332704, Note_off_c, 0, 61, 60
1, 332767, Note_off_c, 0, 70, 56
1, 332802, Note_on_c, 0, 71, 86
1, 332811, Note_on_c, 0, 59, 79
1, 332818, Note_on_c, 0, 62, 75
1, 332831, Note_on_c, 0, 55, 63
1, 332894, Note_off_c, 0, 62, 59
1, 332899, Note_off_c, 0, 55, 58
1, 332903, Note_off_c, 0, 59, 59
1, 333003, Control_c, 0, 64, 86
1, 333005, Note_on_c, 0, 67, 83
1, 333014, Note_on_c, 0, 59, 75
1, 333014, Note_on_c, 0, 62, 77
1, 333018, Control_c, 0, 64, 62
1, 333025, Note_on_c, 0, 55, 63
1, 333032, Control_c, 0, 64, 0
1, 333039, Note_off_c, 0, 71, 59
1, 333062, Control_c, 0, 64, 64
1, 333077, Control_c, 0, 64, 70
1, 333092, Control_c, 0, 64, 77
1, 333093, Note_off_c, 0, 50, 58
1, 333106, Control_c, 0, 64, 85
1, 333121, Control_c, 0, 64, 91
1, 333136, Control_c, 0, 64, 95
1, 333151, Control_c, 0, 64, 98
1, 333157, Note_off_c, 0, 59, 57
1, 333166, Control_c, 0, 64, 102
1, 333181, Control_c, 0, 64, 107
1, 333196, Control_c, 0, 64, 109
1, 333199, Note_off_c, 0, 62, 59
1, 333225, Control_c, 0, 64, 112
1, 333240, Control_c, 0, 64, 127
1, 333244, Note_on_c, 0, 66, 85
1, 333248, Note_on_c, 0, 57, 78
1, 333249, Note_on_c, 0, 50, 59
1, 333273, Note_off_c, 0, 67, 58
1, 333276, Note_off_c, 0, 55, 57
1, 333325, Note_off_c, 0, 57, 58
1, 333529, Control_c, 0, 64, 95
1, 333543, Control_c, 0, 64, 74
1, 333550, Note_on_c, 0, 59, 61
1, 333551, Note_off_c, 0, 66, 64
1, 333551, Note_on_c, 0, 65, 74
1, 333557, Note_on_c, 0, 55, 56
1, 333558, Control_c, 0, 64, 64
1, 333573, Control_c, 0, 64, 67
1, 333588, Control_c, 0, 64, 74
1, 333593, Note_off_c, 0, 59, 62
1, 333603, Control_c, 0, 64, 82
1, 333617, Note_off_c, 0, 55, 60
1, 333617, Control_c, 0, 64, 96
1, 333632, Control_c, 0, 64, 110
1, 333647, Control_c, 0, 64, 127
1, 333662, Note_off_c, 0, 50, 60
1, 333709, Note_off_c, 0, 65, 62
1, 333759, Note_on_c, 0, 54, 71
1, 333881, Note_off_c, 0, 54, 56
1, 334004, Control_c, 0, 64, 91
1, 334019, Control_c, 0, 64, 67
1, 334033, Note_on_c, 0, 30, 39
1, 334033, Control_c, 0, 64, 0
1, 334039, Note_on_c, 0, 66, 56
1, 334040, Note_on_c, 0, 42, 18
1, 334085, Control_c, 0, 64, 64
1, 334100, Control_c, 0, 64, 71
1, 334115, Control_c, 0, 64, 80
1, 334129, Control_c, 0, 64, 88
1, 334144, Control_c, 0, 64, 94
1, 334152, Note_off_c, 0, 30, 61
1, 334159, Control_c, 0, 64, 98
1, 334165, Note_off_c, 0, 66, 61
1, 334174, Control_c, 0, 64, 102
1, 334183, Note_off_c, 0, 42, 54
1, 334188, Control_c, 0, 64, 106
1, 334203, Control_c, 0, 64, 111
1, 334204, Note_on_c, 0, 68, 44
1, 334218, Control_c, 0, 64, 119
1, 334231, Note_off_c, 0, 68, 60
1, 334233, Control_c, 0, 64, 127
1, 334280, Note_on_c, 0, 66, 27
1, 334307, Note_on_c, 0, 68, 59
1, 334310, Note_off_c, 0, 66, 56
1, 334326, Note_off_c, 0, 68, 67
1, 334388, Note_on_c, 0, 68, 72
1, 334414, Note_on_c, 0, 49, 54
1, 334418, Note_off_c, 0, 68, 64
1, 334418, Poly_aftertouch_c, 0, 66, 127
1, 334482, Note_on_c, 0, 68, 74
1, 334487, Poly_aftertouch_c, 0, 66, 0
1, 334519, Note_off_c, 0, 68, 63
1, 334549, Note_on_c, 0, 66, 60
1, 334597, Note_on_c, 0, 58, 59
1, 334603, Note_off_c, 0, 66, 63
1, 334618, Note_on_c, 0, 65, 74
1, 334658, Note_off_c, 0, 65, 60
1, 334674, Note_off_c, 0, 58, 60
1, 334696, Note_on_c, 0, 66, 42
1, 334722, Note_off_c, 0, 66, 55
1, 334722, Note_on_c, 0, 70, 71
1, 334737, Control_c, 0, 64, 111
1, 334752, Control_c, 0, 64, 79
1, 334767, Control_c, 0, 64, 0
1, 334773, Note_off_c, 0, 70, 60
1, 334788, Note_on_c, 0, 68, 70
1, 334794, Note_on_c, 0, 60, 54
1, 334797, Note_off_c, 0, 49, 52
1, 334800, Note_on_c, 0, 51, 41
1, 334811, Note_off_c, 0, 68, 67
1, 334834, Control_c, 0, 64, 67
1, 334849, Control_c, 0, 64, 76
1, 334853, Note_on_c, 0, 70, 69
1, 334864, Control_c, 0, 64, 87
1, 334878, Control_c, 0, 64, 106
1, 334893, Control_c, 0, 64, 127
1, 334894, Note_off_c, 0, 70, 60
1, 334897, Note_on_c, 0, 68, 66
1, 334928, Note_off_c, 0, 68, 66
1, 334954, Note_on_c, 0, 70, 61
1, 334969, Note_off_c, 0, 60, 35
1, 334981, Note_off_c, 0, 70, 66
1, 334985, Note_on_c, 0, 68, 71
1, 334995, Note_on_c, 0, 54, 65
1, 335011, Note_off_c, 0, 68, 64
1, 335020, Note_off_c, 0, 54, 64
1, 335025, Note_off_c, 0, 51, 60
1, 335044, Note_on_c, 0, 70, 67
1, 335076, Note_off_c, 0, 70, 61
1, 335077, Note_on_c, 0, 68, 72
1, 335113, Note_off_c, 0, 68, 59
1, 335136, Note_on_c, 0, 70, 61
1, 335166, Note_on_c, 0, 42, 74
1, 335182, Note_on_c, 0, 68, 66
1, 335183, Note_off_c, 0, 70, 57
1, 335203, Note_off_c, 0, 42, 60
1, 335229, Note_off_c, 0, 68, 56
1, 335247, Note_on_c, 0, 67, 79
1, 335289, Note_off_c, 0, 67, 58
1, 335312, Note_on_c, 0, 68, 83
1, 335380, Note_off_c, 0, 68, 62
1, 335383, Control_c, 0, 64, 95
1, 335391, Note_on_c, 0, 69, 74
1, 335398, Control_c, 0, 64, 70
1, 335399, Note_on_c, 0, 60, 70
1, 335402, Note_on_c, 0, 50, 60
1, 335412, Control_c, 0, 64, 0
1, 335431, Note_off_c, 0, 69, 61
1, 335442, Control_c, 0, 64, 64
1, 335457, Control_c, 0, 64, 69
1, 335458, Note_on_c, 0, 71, 76
1, 335472, Control_c, 0, 64, 77
1, 335483, Note_off_c, 0, 71, 66
1, 335486, Control_c, 0, 64, 89
1, 335501, Control_c, 0, 64, 103
1, 335509, Note_on_c, 0, 69, 78
1, 335516, Control_c, 0, 64, 117
1, 335531, Control_c, 0, 64, 127
1, 335533, Note_off_c, 0, 69, 59
1, 335554, Note_on_c, 0, 71, 67
1, 335580, Note_off_c, 0, 50, 60
1, 335581, Note_on_c, 0, 54, 61
1, 335592, Note_off_c, 0, 71, 63
1, 335631, Note_off_c, 0, 60, 32
1, 335646, Note_on_c, 0, 71, 65
1, 335664, Note_off_c, 0, 71, 63
1, 335681, Poly_aftertouch_c, 0, 69, 127
1, 335739, Note_on_c, 0, 50, 65
1, 335746, Note_off_c, 0, 54, 61
1, 335750, Poly_aftertouch_c, 0, 69, 0
1, 335760, Note_on_c, 0, 68, 82
1, 335774, Note_off_c, 0, 50, 66
1, 335840, Note_on_c, 0, 69, 79
1, 335852, Note_on_c, 0, 67, 31
1, 335885, Note_off_c, 0, 67, 45
1, 335893, Note_off_c, 0, 68, 57
1, 335968, Control_c, 0, 64, 89
1, 335978, Note_on_c, 0, 70, 84
1, 335980, Note_off_c, 0, 69, 61
1, 335983, Control_c, 0, 64, 65
1, 335986, Note_on_c, 0, 65, 70
1, 335990, Note_on_c, 0, 49, 70
1, 335992, Note_on_c, 0, 61, 72
1, 335998, Control_c, 0, 64, 0
1, 336040, Note_off_c, 0, 70, 63
1, 336042, Control_c, 0, 64, 69
1, 336057, Control_c, 0, 64, 80
1, 336072, Control_c, 0, 64, 93
1, 336087, Control_c, 0, 64, 115
1, 336102, Control_c, 0, 64, 127
1, 336129, Note_off_c, 0, 65, 59
1, 336138, Note_on_c, 0, 72, 63
1, 336169, Note_off_c, 0, 72, 51
1, 336180, Note_on_c, 0, 58, 70
1, 336181, Note_on_c, 0, 70, 72
1, 336192, Note_on_c, 0, 53, 68
1, 336209, Note_off_c, 0, 61, 53
1, 336213, Note_off_c, 0, 49, 59
1, 336229, Note_off_c, 0, 70, 60
1, 336236, Note_on_c, 0, 72, 82
1, 336297, Note_on_c, 0, 70, 63
1, 336299, Note_off_c, 0, 72, 0
1, 336329, Note_off_c, 0, 70, 56
1, 336344, Poly_aftertouch_c, 0, 72, 127
1, 336371, Poly_aftertouch_c, 0, 72, 0
1, 336385, Note_on_c, 0, 61, 68
1, 336388, Note_on_c, 0, 70, 56
1, 336403, Note_on_c, 0, 69, 78
1, 336409, Note_off_c, 0, 61, 62
1, 336412, Note_on_c, 0, 49, 76
1, 336412, Note_off_c, 0, 70, 58
1, 336435, Note_off_c, 0, 69, 60
1, 336436, Note_off_c, 0, 58, 61
1, 336448, Note_off_c, 0, 53, 62
1, 336466, Note_on_c, 0, 70, 87
1, 336494, Note_off_c, 0, 49, 62
1, 336495, Note_off_c, 0, 70, 59
1, 336576, Note_on_c, 0, 63, 71
1, 336623, Note_on_c, 0, 68, 81
1, 336653, Note_off_c, 0, 63, 60
1, 336675, Note_on_c, 0, 72, 82
1, 336716, Note_off_c, 0, 68, 62
1, 336878, Note_on_c, 0, 42, 89
1, 336879, Note_on_c, 0, 30, 85
1, 336895, Control_c, 0, 64, 107
1, 336910, Control_c, 0, 64, 70
1, 336911, Note_on_c, 0, 80, 90
1, 336922, Note_off_c, 0, 72, 61
1, 336925, Control_c, 0, 64, 0
1, 336999, Control_c, 0, 64, 70
1, 336999, Note_off_c, 0, 30, 63
1, 337014, Control_c, 0, 64, 85
1, 337028, Note_off_c, 0, 42, 60
1, 337029, Control_c, 0, 64, 102
1, 337044, Control_c, 0, 64, 127
1, 337258, Note_on_c, 0, 51, 74
1, 337262, Note_on_c, 0, 75, 95
1, 337353, Poly_aftertouch_c, 0, 77, 127
1, 337399, Poly_aftertouch_c, 0, 77, 0
1, 337456, Note_on_c, 0, 68, 95
1, 337465, Note_on_c, 0, 63, 77
1, 337470, Note_on_c, 0, 60, 67
1, 337490, Note_on_c, 0, 56, 58
1, 337539, Note_off_c, 0, 63, 60
1, 337540, Note_off_c, 0, 60, 51
1, 337564, Note_off_c, 0, 56, 63
1, 337572, Note_off_c, 0, 80, 62
1, 337584, Note_off_c, 0, 75, 59
1, 337591, Note_off_c, 0, 68, 63
1, 337613, Control_c, 0, 64, 86
1, 337628, Control_c, 0, 64, 76
1, 337639, Note_on_c, 0, 68, 83
1, 337639, Note_on_c, 0, 75, 79
1, 337641, Note_on_c, 0, 80, 91
1, 337643, Note_on_c, 0, 63, 76
1, 337643, Control_c, 0, 64, 79
1, 337645, Note_on_c, 0, 72, 81
1, 337652, Note_on_c, 0, 60, 73
1, 337658, Control_c, 0, 64, 90
1, 337663, Note_off_c, 0, 51, 61
1, 337667, Note_on_c, 0, 56, 64
1, 337673, Control_c, 0, 64, 104
1, 337688, Control_c, 0, 64, 127
1, 337710, Note_off_c, 0, 72, 60
1, 337716, Note_off_c, 0, 63, 59
1, 337773, Note_off_c, 0, 80, 63
1, 337780, Note_off_c, 0, 60, 56
1, 337840, Note_on_c, 0, 51, 72
1, 337845, Note_on_c, 0, 76, 92
1, 337852, Note_on_c, 0, 73, 86
1, 337870, Note_off_c, 0, 56, 63
1, 337891, Note_off_c, 0, 51, 61
1, 337900, Note_off_c, 0, 75, 50
1, 337982, Note_off_c, 0, 76, 60
1, 338031, Note_on_c, 0, 42, 83
1, 338035, Note_on_c, 0, 75, 94
1, 338036, Note_on_c, 0, 78, 95
1, 338065, Note_off_c, 0, 73, 61
1, 338143, Note_off_c, 0, 78, 61
1, 338167, Note_off_c, 0, 68, 61
1, 338235, Note_off_c, 0, 75, 58
1, 338332, Control_c, 0, 64, 83
1, 338347, Control_c, 0, 64, 0
1, 338358, Note_on_c, 0, 30, 84
1, 338361, Note_on_c, 0, 78, 85
1, 338362, Note_on_c, 0, 81, 92
1, 338365, Note_on_c, 0, 69, 90
1, 338366, Note_on_c, 0, 75, 84
1, 338367, Note_on_c, 0, 72, 85
1, 338392, Control_c, 0, 64, 62
1, 338406, Control_c, 0, 64, 70
1, 338421, Control_c, 0, 64, 80
1, 338436, Control_c, 0, 64, 92
1, 338450, Note_off_c, 0, 30, 62
1, 338451, Control_c, 0, 64, 108
1, 338454, Note_off_c, 0, 81, 61
1, 338466, Control_c, 0, 64, 117
1, 338472, Note_off_c, 0, 75, 58
1, 338481, Note_off_c, 0, 42, 58
1, 338481, Control_c, 0, 64, 127
1, 338526, Note_off_c, 0, 69, 47
1, 338646, Note_off_c, 0, 78, 62
1, 338663, Note_off_c, 0, 72, 55
1, 338710, Note_on_c, 0, 76, 85
1, 338710, Note_on_c, 0, 80, 91
1, 338730, Note_on_c, 0, 52, 73
1, 338883, Note_on_c, 0, 73, 75
1, 338885, Note_on_c, 0, 68, 71
1, 338896, Note_on_c, 0, 56, 60
1, 338898, Note_on_c, 0, 64, 60
1, 338899, Note_off_c, 0, 76, 59
1, 338899, Note_off_c, 0, 80, 63
1, 338913, Note_on_c, 0, 61, 49
1, 338932, Note_off_c, 0, 73, 62
1, 338940, Note_off_c, 0, 56, 60
1, 338940, Note_off_c, 0, 61, 56
1, 338947, Note_off_c, 0, 64, 52
1, 338947, Note_off_c, 0, 68, 63
1, 338991, Note_on_c, 0, 76, 84
1, 339010, Note_on_c, 0, 73, 60
1, 339014, Note_on_c, 0, 69, 62
1, 339031, Note_off_c, 0, 69, 65
1, 339038, Note_off_c, 0, 73, 63
1, 339043, Note_off_c, 0, 76, 61
1, 339080, Note_on_c, 0, 69, 90
1, 339081, Note_on_c, 0, 76, 83
1, 339081, Control_c, 0, 64, 96
1, 339084, Note_on_c, 0, 73, 91
1, 339086, Note_on_c, 0, 64, 72
1, 339094, Note_on_c, 0, 61, 76
1, 339096, Control_c, 0, 64, 70
1, 339098, Note_on_c, 0, 57, 68
1, 339111, Control_c, 0, 64, 0
1, 339127, Note_off_c, 0, 52, 57
1, 339131, Note_off_c, 0, 64, 59
1, 339141, Control_c, 0, 64, 69
1, 339144, Note_off_c, 0, 69, 52
1, 339155, Control_c, 0, 64, 76
1, 339170, Control_c, 0, 64, 88
1, 339185, Control_c, 0, 64, 104
1, 339200, Control_c, 0, 64, 116
1, 339215, Control_c, 0, 64, 121
1, 339229, Control_c, 0, 64, 127
1, 339318, Note_off_c, 0, 61, 60
1, 339336, Note_on_c, 0, 68, 95
1, 339341, Note_on_c, 0, 52, 72
1, 339374, Note_off_c, 0, 57, 61
1, 339401, Note_off_c, 0, 52, 62
1, 339573, Note_on_c, 0, 42, 87
1, 339698, Note_on_c, 0, 64, 91
1, 339727, Note_off_c, 0, 68, 61
1, 339743, Note_off_c, 0, 73, 61
1, 339757, Note_off_c, 0, 64, 64
1, 339784, Note_off_c, 0, 76, 49
1, 340008, Control_c, 0, 64, 89
1, 340021, Note_on_c, 0, 30, 76
1, 340022, Note_on_c, 0, 67, 84
1, 340023, Note_on_c, 0, 79, 87
1, 340023, Control_c, 0, 64, 64
1, 340024, Note_on_c, 0, 71, 77
1, 340024, Note_on_c, 0, 76, 77
1, 340038, Control_c, 0, 64, 0
1, 340106, Control_c, 0, 64, 64
1, 340120, Control_c, 0, 64, 72
1, 340130, Note_off_c, 0, 30, 62
1, 340135, Control_c, 0, 64, 79
1, 340150, Control_c, 0, 64, 86
1, 340165, Control_c, 0, 64, 92
1, 340174, Note_off_c, 0, 42, 59
1, 340180, Control_c, 0, 64, 96
1, 340195, Control_c, 0, 64, 99
1, 340209, Control_c, 0, 64, 102
1, 340224, Control_c, 0, 64, 105
1, 340234, Note_off_c, 0, 71, 61
1, 340239, Note_off_c, 0, 76, 53
1, 340239, Control_c, 0, 64, 109
1, 340254, Control_c, 0, 64, 113
1, 340269, Control_c, 0, 64, 117
1, 340283, Control_c, 0, 64, 127
1, 340430, Note_off_c, 0, 79, 59
1, 340433, Note_on_c, 0, 73, 79
1, 340436, Note_on_c, 0, 70, 77
1, 340449, Note_on_c, 0, 52, 64
1, 340548, Note_off_c, 0, 70, 62
1, 340623, Note_on_c, 0, 74, 91
1, 340628, Note_on_c, 0, 71, 80
1, 340633, Note_on_c, 0, 64, 74
1, 340642, Note_on_c, 0, 59, 60
1, 340651, Note_on_c, 0, 55, 56
1, 340657, Note_off_c, 0, 73, 62
1, 340670, Note_off_c, 0, 59, 63
1, 340677, Note_off_c, 0, 71, 61
1, 340714, Note_off_c, 0, 64, 54
1, 340725, Note_off_c, 0, 55, 57
1, 340727, Note_off_c, 0, 67, 45
1, 340731, Note_off_c, 0, 74, 61
1, 340772, Control_c, 0, 64, 101
1, 340787, Control_c, 0, 64, 73
1, 340802, Control_c, 0, 64, 66
1, 340819, Note_on_c, 0, 70, 84
1, 340824, Control_c, 0, 64, 71
1, 340826, Note_on_c, 0, 76, 78
1, 340830, Note_on_c, 0, 67, 67
1, 340830, Note_on_c, 0, 79, 74
1, 340835, Note_on_c, 0, 64, 76
1, 340839, Control_c, 0, 64, 79
1, 340840, Note_on_c, 0, 60, 71
1, 340850, Note_on_c, 0, 55, 68
1, 340854, Control_c, 0, 64, 89
1, 340865, Note_off_c, 0, 64, 61
1, 340868, Control_c, 0, 64, 108
1, 340884, Control_c, 0, 64, 127
1, 340900, Note_off_c, 0, 52, 55
1, 340907, Note_off_c, 0, 67, 60
1, 340932, Note_off_c, 0, 79, 61
1, 340954, Note_off_c, 0, 76, 58
1, 341019, Note_off_c, 0, 60, 38
1, 341022, Note_on_c, 0, 52, 76
1, 341030, Note_on_c, 0, 72, 94
1, 341033, Note_on_c, 0, 69, 77
1, 341063, Note_off_c, 0, 70, 62
1, 341065, Note_off_c, 0, 55, 60
1, 341081, Note_off_c, 0, 52, 61
1, 341203, Note_off_c, 0, 69, 60
1, 341228, Note_on_c, 0, 73, 90
1, 341234, Note_on_c, 0, 70, 91
1, 341242, Note_on_c, 0, 42, 81
1, 341260, Note_off_c, 0, 72, 62
1, 341329, Note_off_c, 0, 73, 61
1, 341602, Control_c, 0, 64, 85
1, 341617, Control_c, 0, 64, 0
1, 341620, Note_on_c, 0, 79, 93
1, 341622, Note_on_c, 0, 30, 77
1, 341622, Note_on_c, 0, 74, 85
1, 341630, Note_on_c, 0, 67, 73
1, 341692, Control_c, 0, 64, 64
1, 341706, Control_c, 0, 64, 73
1, 341721, Control_c, 0, 64, 79
1, 341733, Note_off_c, 0, 30, 62
1, 341736, Control_c, 0, 64, 88
1, 341751, Control_c, 0, 64, 95
1, 341757, Note_off_c, 0, 79, 63
1, 341766, Control_c, 0, 64, 98
1, 341772, Note_off_c, 0, 42, 58
1, 341796, Control_c, 0, 64, 101
1, 341809, Note_off_c, 0, 67, 63
1, 341811, Control_c, 0, 64, 105
1, 341820, Note_off_c, 0, 74, 55
1, 341826, Control_c, 0, 64, 111
1, 341840, Control_c, 0, 64, 127
1, 341983, Note_off_c, 0, 70, 60
1, 342009, Note_on_c, 0, 78, 88
1, 342010, Note_on_c, 0, 74, 81
1, 342017, Note_on_c, 0, 50, 73
1, 342037, Note_on_c, 0, 70, 33
1, 342069, Note_off_c, 0, 70, 49
1, 342202, Note_off_c, 0, 78, 61
1, 342209, Note_on_c, 0, 66, 75
1, 342214, Note_on_c, 0, 70, 65
1, 342216, Note_on_c, 0, 62, 60
1, 342219, Note_on_c, 0, 54, 58
1, 342227, Note_on_c, 0, 58, 45
1, 342234, Note_off_c, 0, 74, 56
1, 342252, Note_off_c, 0, 58, 56
1, 342263, Note_off_c, 0, 66, 63
1, 342266, Note_off_c, 0, 70, 63
1, 342267, Note_off_c, 0, 62, 55
1, 342320, Note_off_c, 0, 54, 57
1, 342331, Note_on_c, 0, 74, 79
1, 342334, Note_on_c, 0, 71, 73
1, 342360, Note_off_c, 0, 71, 66
1, 342361, Note_on_c, 0, 67, 40
1, 342378, Note_off_c, 0, 74, 58
1, 342381, Control_c, 0, 64, 103
1, 342390, Note_off_c, 0, 67, 50
1, 342396, Control_c, 0, 64, 77
1, 342411, Control_c, 0, 64, 0
1, 342419, Note_on_c, 0, 74, 75
1, 342422, Note_on_c, 0, 71, 79
1, 342438, Note_on_c, 0, 62, 58
1, 342440, Control_c, 0, 64, 67
1, 342443, Note_on_c, 0, 54, 55
1, 342449, Note_on_c, 0, 59, 62
1, 342455, Control_c, 0, 64, 75
1, 342470, Control_c, 0, 64, 85
1, 342486, Control_c, 0, 64, 99
1, 342490, Note_off_c, 0, 50, 59
1, 342499, Note_off_c, 0, 62, 58
1, 342501, Control_c, 0, 64, 110
1, 342516, Control_c, 0, 64, 119
1, 342530, Control_c, 0, 64, 127
1, 342531, Poly_aftertouch_c, 0, 67, 0
1, 342601, Poly_aftertouch_c, 0, 72, 127
1, 342612, Note_off_c, 0, 74, 58
1, 342649, Note_on_c, 0, 50, 61
1, 342657, Note_off_c, 0, 59, 60
1, 342663, Note_on_c, 0, 66, 90
1, 342691, Note_off_c, 0, 54, 60
1, 342725, Note_off_c, 0, 50, 62
1, 342792, Poly_aftertouch_c, 0, 72, 0
1, 342807, Note_off_c, 0, 71, 57
1, 342875, Note_on_c, 0, 42, 82
1, 342968, Note_on_c, 0, 62, 81
1, 342982, Note_off_c, 0, 66, 62
1, 343012, Note_off_c, 0, 62, 63
1, 343057, Note_on_c, 0, 62, 72
1, 343146, Note_on_c, 0, 70, 86
1, 343248, Note_off_c, 0, 62, 58
1, 343262, Control_c, 0, 64, 106
1, 343277, Control_c, 0, 64, 74
1, 343292, Control_c, 0, 64, 0
1, 343295, Note_on_c, 0, 30, 70
1, 343307, Note_on_c, 0, 77, 95
1, 343337, Control_c, 0, 64, 64
1, 343352, Control_c, 0, 64, 71
1, 343367, Control_c, 0, 64, 80
1, 343382, Control_c, 0, 64, 91
1, 343390, Note_off_c, 0, 30, 62
1, 343396, Control_c, 0, 64, 103
1, 343411, Control_c, 0, 64, 110
1, 343422, Note_off_c, 0, 42, 59
1, 343426, Control_c, 0, 64, 127
1, 343438, Note_off_c, 0, 70, 60
1, 343622, Note_on_c, 0, 64, 83
1, 343625, Note_on_c, 0, 50, 64
1, 343730, Note_off_c, 0, 64, 62
1, 343814, Note_on_c, 0, 65, 87
1, 343831, Note_on_c, 0, 62, 74
1, 343832, Note_on_c, 0, 58, 65
1, 343851, Note_on_c, 0, 53, 54
1, 343871, Note_off_c, 0, 58, 59
1, 343877, Note_off_c, 0, 77, 51
1, 343887, Note_off_c, 0, 62, 54
1, 343966, Note_off_c, 0, 65, 61
1, 343981, Control_c, 0, 64, 89
1, 343996, Control_c, 0, 64, 69
1, 344011, Control_c, 0, 64, 66
1, 344015, Note_on_c, 0, 62, 77
1, 344022, Note_on_c, 0, 59, 68
1, 344022, Note_on_c, 0, 68, 83
1, 344022, Note_on_c, 0, 77, 93
1, 344025, Control_c, 0, 64, 73
1, 344026, Note_on_c, 0, 65, 76
1, 344040, Control_c, 0, 64, 80
1, 344055, Control_c, 0, 64, 91
1, 344070, Control_c, 0, 64, 110
1, 344077, Note_off_c, 0, 62, 60
1, 344086, Control_c, 0, 64, 127
1, 344090, Note_off_c, 0, 50, 38
1, 344124, Note_off_c, 0, 65, 62
1, 344168, Note_off_c, 0, 77, 52
1, 344207, Note_off_c, 0, 59, 56
1, 344212, Note_on_c, 0, 50, 70
1, 344224, Note_on_c, 0, 64, 91
1, 344243, Note_off_c, 0, 68, 64
1, 344258, Note_off_c, 0, 53, 53
1, 344275, Note_off_c, 0, 50, 63
1, 344427, Note_on_c, 0, 63, 92
1, 344436, Note_on_c, 0, 42, 82
1, 344457, Note_off_c, 0, 64, 62
1, 344760, Control_c, 0, 64, 111
1, 344774, Control_c, 0, 64, 76
1, 344780, Note_on_c, 0, 62, 85
1, 344781, Note_on_c, 0, 71, 90
1, 344786, Note_on_c, 0, 30, 82
1, 344788, Note_on_c, 0, 65, 78
1, 344789, Control_c, 0, 64, 0
1, 344825, Note_off_c, 0, 63, 62
1, 344863, Control_c, 0, 64, 67
1, 344879, Control_c, 0, 64, 74
1, 344894, Control_c, 0, 64, 82
1, 344903, Note_off_c, 0, 30, 62
1, 344909, Control_c, 0, 64, 90
1, 344924, Control_c, 0, 64, 97
1, 344932, Note_off_c, 0, 42, 57
1, 344938, Control_c, 0, 64, 101
1, 344983, Control_c, 0, 64, 103
1, 345012, Control_c, 0, 64, 108
1, 345013, Note_off_c, 0, 71, 56
1, 345027, Control_c, 0, 64, 110
1, 345071, Note_off_c, 0, 62, 55
1, 345072, Control_c, 0, 64, 114
1, 345087, Control_c, 0, 64, 121
1, 345102, Control_c, 0, 64, 127
1, 345152, Note_on_c, 0, 61, 81
1, 345153, Note_on_c, 0, 69, 88
1, 345172, Note_on_c, 0, 50, 72
1, 345181, Note_off_c, 0, 65, 61
1, 345307, Note_off_c, 0, 61, 58
1, 345416, Note_on_c, 0, 62, 86
1, 345433, Note_off_c, 0, 69, 58
1, 345483, Note_off_c, 0, 62, 58
1, 345510, Note_on_c, 0, 67, 79
1, 345530, Note_on_c, 0, 59, 63
1, 345557, Note_off_c, 0, 59, 63
1, 345568, Note_off_c, 0, 67, 64
1, 345595, Note_on_c, 0, 62, 78
1, 345612, Note_on_c, 0, 67, 83
1, 345612, Control_c, 0, 64, 97
1, 345615, Note_on_c, 0, 59, 84
1, 345627, Control_c, 0, 64, 73
1, 345642, Control_c, 0, 64, 0
1, 345687, Control_c, 0, 64, 61
1, 345702, Control_c, 0, 64, 69
1, 345717, Control_c, 0, 64, 78
1, 345732, Control_c, 0, 64, 87
1, 345746, Note_off_c, 0, 59, 47
1, 345746, Control_c, 0, 64, 94
1, 345756, Note_off_c, 0, 50, 39
1, 345761, Control_c, 0, 64, 97
1, 345791, Control_c, 0, 64, 99
1, 345820, Control_c, 0, 64, 103
1, 345835, Control_c, 0, 64, 109
1, 345850, Control_c, 0, 64, 115
1, 345862, Note_off_c, 0, 62, 59
1, 345865, Control_c, 0, 64, 118
1, 345880, Control_c, 0, 64, 120
1, 345884, Note_on_c, 0, 50, 66
1, 345899, Note_on_c, 0, 66, 89
1, 345909, Control_c, 0, 64, 98
1, 345915, Note_on_c, 0, 57, 74
1, 345923, Note_off_c, 0, 67, 53
1, 345924, Control_c, 0, 64, 76
1, 345939, Control_c, 0, 64, 0
1, 345969, Control_c, 0, 64, 63
1, 345984, Control_c, 0, 64, 68
1, 345999, Control_c, 0, 64, 76
1, 346014, Control_c, 0, 64, 85
1, 346022, Note_off_c, 0, 57, 52
1, 346028, Control_c, 0, 64, 93
1, 346043, Control_c, 0, 64, 97
1, 346065, Control_c, 0, 64, 99
1, 346079, Control_c, 0, 64, 104
1, 346094, Control_c, 0, 64, 111
1, 346109, Control_c, 0, 64, 127
1, 346213, Control_c, 0, 64, 101
1, 346220, Note_on_c, 0, 59, 73
1, 346228, Control_c, 0, 64, 85
1, 346231, Note_on_c, 0, 65, 85
1, 346237, Note_on_c, 0, 55, 72
1, 346243, Control_c, 0, 64, 82
1, 346249, Note_off_c, 0, 66, 64
1, 346258, Control_c, 0, 64, 87
1, 346259, Note_off_c, 0, 59, 62
1, 346273, Control_c, 0, 64, 97
1, 346287, Control_c, 0, 64, 109
1, 346302, Control_c, 0, 64, 127
1, 346321, Note_off_c, 0, 50, 62
1, 346423, Note_off_c, 0, 55, 56
1, 346460, Note_off_c, 0, 65, 54
1, 346732, Note_on_c, 0, 65, 82
1, 346732, Note_on_c, 0, 55, 77
1, 346732, Control_c, 0, 64, 91
1, 346738, Note_on_c, 0, 42, 69
1, 346738, Note_on_c, 0, 30, 67
1, 346747, Control_c, 0, 64, 67
1, 346762, Control_c, 0, 64, 0
1, 346828, Control_c, 0, 64, 66
1, 346843, Control_c, 0, 64, 75
1, 346858, Control_c, 0, 64, 79
1, 346873, Control_c, 0, 64, 82
1, 346888, Control_c, 0, 64, 84
1, 346902, Control_c, 0, 64, 86
1, 346917, Control_c, 0, 64, 88
1, 346932, Control_c, 0, 64, 89
1, 346944, Note_off_c, 0, 30, 60
1, 346947, Control_c, 0, 64, 90
1, 346962, Control_c, 0, 64, 91
1, 346988, Note_off_c, 0, 42, 57
1, 347011, Note_off_c, 0, 55, 51
1, 347028, Note_on_c, 0, 58, 56
1, 347066, Control_c, 0, 64, 91
1, 347081, Control_c, 0, 64, 92
1, 347096, Control_c, 0, 64, 92
1, 347112, Note_off_c, 0, 58, 56
1, 347113, Note_on_c, 0, 60, 55
1, 347134, Note_off_c, 0, 60, 60
1, 347140, Control_c, 0, 64, 93
1, 347170, Control_c, 0, 64, 93
1, 347184, Control_c, 0, 64, 94
1, 347200, Note_on_c, 0, 59, 55
1, 347230, Note_off_c, 0, 65, 42
1, 347243, Control_c, 0, 64, 95
1, 347245, Note_off_c, 0, 59, 50
1, 347294, Note_on_c, 0, 61, 43
1, 347324, Note_off_c, 0, 61, 56
1, 347332, Note_on_c, 0, 50, 55
1, 347340, Note_on_c, 0, 64, 59
1, 347369, Note_off_c, 0, 64, 65
1, 347392, Control_c, 0, 64, 96
1, 347415, Note_on_c, 0, 62, 60
1, 347437, Control_c, 0, 64, 95
1, 347443, Note_off_c, 0, 62, 54
1, 347469, Note_on_c, 0, 64, 54
1, 347524, Note_off_c, 0, 64, 60
1, 347531, Note_on_c, 0, 67, 64
1, 347548, Control_c, 0, 64, 95
1, 347563, Note_off_c, 0, 67, 64
1, 347577, Note_on_c, 0, 55, 59
1, 347616, Note_on_c, 0, 65, 66
1, 347635, Note_off_c, 0, 55, 48
1, 347637, Control_c, 0, 64, 94
1, 347646, Note_off_c, 0, 50, 35
1, 347652, Note_off_c, 0, 65, 62
1, 347666, Control_c, 0, 64, 93
1, 347681, Control_c, 0, 64, 93
1, 347683, Note_on_c, 0, 70, 64
1, 347696, Control_c, 0, 64, 92
1, 347711, Control_c, 0, 64, 92
1, 347714, Note_off_c, 0, 70, 63
1, 347725, Control_c, 0, 64, 91
1, 347740, Note_on_c, 0, 72, 61
1, 347740, Control_c, 0, 64, 91
1, 347760, Note_off_c, 0, 72, 63
1, 347769, Control_c, 0, 64, 90
1, 347814, Control_c, 0, 64, 87
1, 347817, Note_on_c, 0, 71, 61
1, 347829, Control_c, 0, 64, 77
1, 347834, Note_on_c, 0, 65, 49
1, 347844, Control_c, 0, 64, 55
1, 347846, Note_on_c, 0, 55, 46
1, 347857, Note_off_c, 0, 71, 61
1, 347859, Control_c, 0, 64, 0
1, 347885, Note_on_c, 0, 73, 54
1, 347904, Control_c, 0, 64, 38
1, 347918, Control_c, 0, 64, 65
1, 347927, Note_off_c, 0, 73, 61
1, 347933, Control_c, 0, 64, 68
1, 347940, Note_on_c, 0, 76, 64
1, 347948, Control_c, 0, 64, 69
1, 347963, Control_c, 0, 64, 71
1, 347967, Note_off_c, 0, 76, 62
1, 347977, Control_c, 0, 64, 72
1, 347992, Control_c, 0, 64, 74
1, 348007, Control_c, 0, 64, 76
1, 348013, Note_on_c, 0, 74, 66
1, 348022, Control_c, 0, 64, 77
1, 348037, Control_c, 0, 64, 77
1, 348045, Note_off_c, 0, 74, 63
1, 348059, Note_on_c, 0, 76, 54
1, 348066, Control_c, 0, 64, 79
1, 348082, Control_c, 0, 64, 83
1, 348097, Control_c, 0, 64, 87
1, 348112, Control_c, 0, 64, 88
1, 348113, Note_off_c, 0, 76, 59
1, 348125, Note_on_c, 0, 79, 64
1, 348143, Note_off_c, 0, 79, 67
1, 348171, Control_c, 0, 64, 89
1, 348186, Control_c, 0, 64, 89
1, 348209, Note_on_c, 0, 77, 58
1, 348213, Note_off_c, 0, 55, 40
1, 348220, Note_off_c, 0, 65, 58
1, 348230, Control_c, 0, 64, 90
1, 348231, Note_off_c, 0, 77, 56
1, 348264, Note_on_c, 0, 82, 58
1, 348301, Note_off_c, 0, 82, 53
1, 348327, Note_on_c, 0, 84, 63
1, 348345, Note_off_c, 0, 84, 66
1, 348396, Note_on_c, 0, 83, 67
1, 348428, Note_off_c, 0, 83, 50
1, 348462, Note_on_c, 0, 85, 62
1, 348501, Note_off_c, 0, 85, 57
1, 348530, Note_on_c, 0, 88, 54
1, 348550, Note_off_c, 0, 88, 63
1, 348596, Note_on_c, 0, 86, 62
1, 348607, Control_c, 0, 64, 89
1, 348622, Control_c, 0, 64, 87
1, 348631, Note_off_c, 0, 86, 50
1, 348637, Control_c, 0, 64, 83
1, 348647, Note_on_c, 0, 71, 40
1, 348652, Control_c, 0, 64, 76
1, 348653, Note_on_c, 0, 88, 52
1, 348655, Note_on_c, 0, 65, 33
1, 348655, Note_on_c, 0, 62, 36
1, 348667, Control_c, 0, 64, 70
1, 348682, Control_c, 0, 64, 64
1, 348696, Control_c, 0, 64, 0
1, 348723, Note_off_c, 0, 88, 64
1, 348725, Note_on_c, 0, 91, 66
1, 348753, Note_off_c, 0, 91, 65
1, 348800, Control_c, 0, 64, 30
1, 348815, Control_c, 0, 64, 64
1, 348830, Control_c, 0, 64, 66
1, 348845, Control_c, 0, 64, 66
1, 348875, Control_c, 0, 64, 67
1, 348890, Control_c, 0, 64, 68
1, 348893, Note_on_c, 0, 94, 59
1, 348905, Control_c, 0, 64, 70
1, 348920, Control_c, 0, 64, 73
1, 348935, Control_c, 0, 64, 74
1, 348940, Note_off_c, 0, 94, 61
1, 348950, Control_c, 0, 64, 75
1, 348965, Control_c, 0, 64, 75
1, 348969, Note_on_c, 0, 96, 58
1, 348979, Control_c, 0, 64, 76
1, 348994, Control_c, 0, 64, 77
1, 349009, Control_c, 0, 64, 81
1, 349018, Note_off_c, 0, 96, 62
1, 349023, Control_c, 0, 64, 85
1, 349038, Control_c, 0, 64, 88
1, 349060, Control_c, 0, 64, 90
1, 349070, Note_on_c, 0, 95, 62
1, 349075, Control_c, 0, 64, 91
1, 349090, Control_c, 0, 64, 93
1, 349105, Control_c, 0, 64, 96
1, 349120, Control_c, 0, 64, 99
1, 349127, Note_off_c, 0, 95, 58
1, 349135, Control_c, 0, 64, 103
1, 349142, Note_on_c, 0, 97, 62
1, 349150, Control_c, 0, 64, 106
1, 349164, Control_c, 0, 64, 109
1, 349179, Control_c, 0, 64, 111
1, 349194, Control_c, 0, 64, 116
1, 349209, Control_c, 0, 64, 127
1, 349275, Note_on_c, 0, 100, 58
1, 349283, Note_off_c, 0, 97, 62
1, 349358, Note_off_c, 0, 100, 59
1, 349371, Note_on_c, 0, 98, 57
1, 349425, Note_off_c, 0, 98, 61
1, 349439, Note_on_c, 0, 95, 52
1, 349448, Note_off_c, 0, 71, 59
1, 349483, Note_off_c, 0, 95, 47
1, 349499, Note_on_c, 0, 91, 58
1, 349520, Note_off_c, 0, 91, 64
1, 349573, Note_off_c, 0, 65, 35
1, 349585, Note_on_c, 0, 89, 31
1, 349616, Note_off_c, 0, 89, 36
1, 349631, Note_on_c, 0, 86, 66
1, 349640, Note_off_c, 0, 62, 37
1, 349710, Note_on_c, 0, 83, 65
1, 349723, Note_off_c, 0, 86, 57
1, 349777, Note_off_c, 0, 83, 54
1, 349782, Note_on_c, 0, 79, 66
1, 349823, Note_off_c, 0, 79, 62
1, 349876, Note_on_c, 0, 77, 52
1, 349898, Note_off_c, 0, 77, 58
1, 349936, Note_on_c, 0, 74, 66
1, 350008, Note_off_c, 0, 74, 50
1, 350013, Note_on_c, 0, 71, 66
1, 350084, Note_off_c, 0, 71, 55
1, 350102, Note_on_c, 0, 67, 52
1, 350154, Note_off_c, 0, 67, 57
1, 350190, Note_on_c, 0, 65, 60
1, 350220, Note_off_c, 0, 65, 67
1, 350297, Note_on_c, 0, 62, 54
1, 350397, Note_off_c, 0, 62, 62
1, 350406, Note_on_c, 0, 59, 55
1, 350515, Note_off_c, 0, 59, 56
1, 350607, Note_on_c, 0, 55, 20
1, 350682, Note_off_c, 0, 55, 36
1, 350934, Note_on_c, 0, 30, 37
1, 350970, Note_on_c, 0, 66, 45
1, 350973, Control_c, 0, 64, 108
1, 350988, Control_c, 0, 64, 78
1, 350992, Note_on_c, 0, 54, 37
1, 351002, Control_c, 0, 64, 0
1, 351076, Control_c, 0, 64, 67
1, 351087, Note_off_c, 0, 66, 59
1, 351091, Control_c, 0, 64, 76
1, 351092, Note_off_c, 0, 30, 57
1, 351106, Control_c, 0, 64, 85
1, 351121, Control_c, 0, 64, 96
1, 351136, Note_off_c, 0, 54, 34
1, 351136, Control_c, 0, 64, 105
1, 351150, Control_c, 0, 64, 111
1, 351165, Control_c, 0, 64, 117
1, 351180, Control_c, 0, 64, 127
1, 351474, Note_on_c, 0, 49, 50
1, 351716, Note_off_c, 0, 49, 58
1, 351744, Note_on_c, 0, 61, 51
1, 351884, Note_off_c, 0, 61, 60
1, 351895, Note_on_c, 0, 60, 58
1, 352021, Note_on_c, 0, 63, 57
1, 352218, Note_off_c, 0, 60, 55
1, 352248, Note_off_c, 0, 63, 55
1, 352253, Note_on_c, 0, 80, 62
1, 352262, Note_on_c, 0, 61, 49
1, 352263, Control_c, 0, 64, 100
1, 352264, Note_on_c, 0, 71, 50
1, 352278, Control_c, 0, 64, 81
1, 352293, Control_c, 0, 64, 54
1, 352308, Control_c, 0, 64, 0
1, 352381, Control_c, 0, 64, 63
1, 352396, Control_c, 0, 64, 72
1, 352411, Control_c, 0, 64, 77
1, 352426, Control_c, 0, 64, 83
1, 352441, Control_c, 0, 64, 88
1, 352455, Control_c, 0, 64, 93
1, 352470, Control_c, 0, 64, 99
1, 352485, Control_c, 0, 64, 106
1, 352500, Control_c, 0, 64, 113
1, 352514, Note_off_c, 0, 71, 35
1, 352515, Control_c, 0, 64, 121
1, 352529, Note_off_c, 0, 80, 54
1, 352530, Control_c, 0, 64, 127
1, 352537, Note_on_c, 0, 77, 56
1, 352539, Note_on_c, 0, 68, 42
1, 352550, Note_off_c, 0, 61, 56
1, 352686, Note_off_c, 0, 68, 53
1, 352706, Note_on_c, 0, 71, 44
1, 352707, Note_off_c, 0, 77, 58
1, 352716, Note_on_c, 0, 80, 61
1, 352819, Note_off_c, 0, 80, 55
1, 352827, Note_off_c, 0, 71, 48
1, 352862, Note_on_c, 0, 75, 57
1, 352868, Note_on_c, 0, 66, 46
1, 352954, Note_off_c, 0, 66, 50
1, 353013, Note_on_c, 0, 80, 61
1, 353013, Note_off_c, 0, 75, 55
1, 353015, Note_on_c, 0, 71, 33
1, 353039, Note_on_c, 0, 49, 36
1, 353045, Note_off_c, 0, 80, 66
1, 353063, Note_off_c, 0, 71, 50
1, 353180, Note_on_c, 0, 61, 59
1, 353184, Note_on_c, 0, 73, 54
1, 353233, Note_off_c, 0, 49, 38
1, 353262, Note_off_c, 0, 61, 56
1, 353377, Note_on_c, 0, 42, 37
1, 353412, Control_c, 0, 64, 93
1, 353427, Note_on_c, 0, 78, 56
1, 353427, Control_c, 0, 64, 71
1, 353430, Note_off_c, 0, 73, 52
1, 353442, Control_c, 0, 64, 0
1, 353458, Note_on_c, 0, 70, 36
1, 353502, Control_c, 0, 64, 64
1, 353516, Control_c, 0, 64, 72
1, 353531, Control_c, 0, 64, 79
1, 353542, Note_off_c, 0, 78, 55
1, 353553, Control_c, 0, 64, 89
1, 353568, Control_c, 0, 64, 97
1, 353583, Control_c, 0, 64, 101
1, 353597, Control_c, 0, 64, 106
1, 353600, Note_off_c, 0, 70, 35
1, 353612, Control_c, 0, 64, 113
1, 353627, Control_c, 0, 64, 127
1, 353767, Note_off_c, 0, 42, 52
1, 353780, Note_on_c, 0, 49, 45
1, 353866, Note_off_c, 0, 49, 59
1, 354035, Note_on_c, 0, 61, 47
1, 354205, Note_on_c, 0, 60, 52
1, 354205, Note_off_c, 0, 61, 53
1, 354325, Note_on_c, 0, 63, 44
1, 354462, Note_off_c, 0, 60, 26
1, 354521, Note_on_c, 0, 61, 40
1, 354524, Control_c, 0, 64, 96
1, 354530, Note_on_c, 0, 80, 52
1, 354535, Note_on_c, 0, 71, 44
1, 354539, Control_c, 0, 64, 75
1, 354551, Note_off_c, 0, 63, 41
1, 354554, Control_c, 0, 64, 0
1, 354628, Control_c, 0, 64, 67
1, 354643, Control_c, 0, 64, 74
1, 354658, Control_c, 0, 64, 82
1, 354673, Control_c, 0, 64, 90
1, 354688, Control_c, 0, 64, 96
1, 354703, Control_c, 0, 64, 99
1, 354717, Control_c, 0, 64, 106
1, 354732, Control_c, 0, 64, 114
1, 354747, Control_c, 0, 64, 127
1, 354767, Note_off_c, 0, 80, 38
1, 354769, Note_on_c, 0, 77, 53
1, 354775, Note_on_c, 0, 68, 48
1, 354781, Note_off_c, 0, 61, 58
1, 354790, Note_off_c, 0, 71, 39
1, 354883, Note_off_c, 0, 68, 53
1, 354918, Note_on_c, 0, 71, 48
1, 354933, Note_on_c, 0, 80, 54
1, 354937, Note_off_c, 0, 77, 47
1, 355038, Note_off_c, 0, 80, 54
1, 355042, Note_off_c, 0, 71, 56
1, 355064, Note_on_c, 0, 66, 52
1, 355067, Note_on_c, 0, 75, 58
1, 355149, Note_off_c, 0, 66, 54
1, 355211, Note_on_c, 0, 71, 44
1, 355227, Note_on_c, 0, 80, 53
1, 355228, Note_off_c, 0, 75, 52
1, 355234, Note_on_c, 0, 49, 45
1, 355263, Note_off_c, 0, 80, 64
1, 355284, Note_off_c, 0, 71, 61
1, 355287, Note_off_c, 0, 49, 60
1, 355413, Note_on_c, 0, 61, 54
1, 355413, Note_on_c, 0, 73, 56
1, 355493, Note_off_c, 0, 61, 52
1, 355644, Control_c, 0, 64, 88
1, 355658, Control_c, 0, 64, 66
1, 355661, Note_off_c, 0, 73, 57
1, 355663, Note_on_c, 0, 78, 58
1, 355668, Note_on_c, 0, 30, 29
1, 355673, Control_c, 0, 64, 0
1, 355688, Note_on_c, 0, 70, 35
1, 355732, Control_c, 0, 64, 68
1, 355747, Control_c, 0, 64, 77
1, 355762, Control_c, 0, 64, 86
1, 355767, Note_off_c, 0, 78, 60
1, 355784, Control_c, 0, 64, 100
1, 355787, Note_off_c, 0, 30, 56
1, 355799, Control_c, 0, 64, 110
1, 355814, Control_c, 0, 64, 127
1, 355846, Note_off_c, 0, 70, 35
1, 356047, Note_on_c, 0, 49, 52
1, 356334, Note_on_c, 0, 58, 61
1, 356545, Note_off_c, 0, 58, 60
1, 356712, Control_c, 0, 64, 91
1, 356713, Note_on_c, 0, 68, 48
1, 356727, Control_c, 0, 64, 71
1, 356740, Note_on_c, 0, 59, 39
1, 356741, Control_c, 0, 64, 0
1, 356786, Control_c, 0, 64, 53
1, 356801, Control_c, 0, 64, 67
1, 356815, Control_c, 0, 64, 72
1, 356830, Control_c, 0, 64, 81
1, 356845, Control_c, 0, 64, 88
1, 356861, Control_c, 0, 64, 93
1, 356876, Control_c, 0, 64, 95
1, 356905, Control_c, 0, 64, 99
1, 356920, Note_off_c, 0, 59, 41
1, 356920, Control_c, 0, 64, 101
1, 356933, Note_off_c, 0, 68, 52
1, 356935, Control_c, 0, 64, 105
1, 356950, Control_c, 0, 64, 108
1, 356954, Note_on_c, 0, 56, 27
1, 356954, Note_on_c, 0, 65, 38
1, 356964, Control_c, 0, 64, 112
1, 356979, Control_c, 0, 64, 117
1, 356994, Control_c, 0, 64, 127
1, 357060, Note_off_c, 0, 56, 53
1, 357067, Note_off_c, 0, 49, 49
1, 357075, Note_off_c, 0, 65, 60
1, 357094, Note_on_c, 0, 68, 57
1, 357226, Note_off_c, 0, 68, 37
1, 357234, Note_on_c, 0, 54, 41
1, 357246, Note_on_c, 0, 63, 42
1, 357332, Note_off_c, 0, 54, 55
1, 357376, Note_on_c, 0, 68, 46
1, 357383, Note_on_c, 0, 49, 35
1, 357395, Note_off_c, 0, 63, 60
1, 357453, Note_off_c, 0, 68, 60
1, 357521, Note_on_c, 0, 61, 56
1, 357531, Note_on_c, 0, 53, 44
1, 357574, Note_off_c, 0, 49, 41
1, 357660, Note_off_c, 0, 53, 37
1, 357667, Control_c, 0, 64, 98
1, 357682, Control_c, 0, 64, 77
1, 357697, Control_c, 0, 64, 0
1, 357723, Note_on_c, 0, 42, 40
1, 357735, Note_off_c, 0, 61, 55
1, 357742, Note_on_c, 0, 66, 48
1, 357752, Note_on_c, 0, 58, 28
1, 357800, Control_c, 0, 64, 68
1, 357815, Control_c, 0, 64, 72
1, 357830, Control_c, 0, 64, 75
1, 357845, Control_c, 0, 64, 77
1, 357860, Control_c, 0, 64, 79
1, 357861, Note_off_c, 0, 66, 57
1, 357867, Note_off_c, 0, 58, 26
1, 357875, Control_c, 0, 64, 83
1, 357890, Control_c, 0, 64, 88
1, 357904, Control_c, 0, 64, 94
1, 357919, Control_c, 0, 64, 97
1, 357949, Control_c, 0, 64, 99
1, 357964, Control_c, 0, 64, 101
1, 357978, Control_c, 0, 64, 106
1, 357993, Note_off_c, 0, 42, 35
1, 357993, Control_c, 0, 64, 115
1, 358008, Control_c, 0, 64, 127
1, 358077, Note_on_c, 0, 49, 51
1, 358353, Note_on_c, 0, 58, 51
1, 358443, Note_off_c, 0, 49, 32
1, 358492, Note_off_c, 0, 58, 58
1, 358697, Control_c, 0, 64, 92
1, 358710, Note_on_c, 0, 68, 45
1, 358712, Control_c, 0, 64, 74
1, 358713, Note_on_c, 0, 59, 37
1, 358727, Control_c, 0, 64, 0
1, 358779, Control_c, 0, 64, 63
1, 358794, Control_c, 0, 64, 70
1, 358808, Control_c, 0, 64, 79
1, 358823, Control_c, 0, 64, 89
1, 358838, Control_c, 0, 64, 97
1, 358852, Control_c, 0, 64, 102
1, 358867, Control_c, 0, 64, 107
1, 358882, Control_c, 0, 64, 115
1, 358897, Control_c, 0, 64, 127
1, 358916, Note_off_c, 0, 59, 34
1, 358934, Note_on_c, 0, 65, 32
1, 358936, Note_on_c, 0, 56, 32
1, 358942, Note_off_c, 0, 68, 35
1, 359023, Note_off_c, 0, 56, 55
1, 359076, Note_on_c, 0, 68, 43
1, 359084, Note_off_c, 0, 65, 35
1, 359204, Note_off_c, 0, 68, 35
1, 359214, Note_on_c, 0, 54, 37
1, 359225, Note_on_c, 0, 63, 38
1, 359368, Note_off_c, 0, 54, 41
1, 359376, Note_on_c, 0, 68, 45
1, 359377, Note_on_c, 0, 49, 36
1, 359384, Note_off_c, 0, 63, 58
1, 359413, Note_off_c, 0, 49, 48
1, 359437, Note_off_c, 0, 68, 60
1, 359535, Note_on_c, 0, 53, 47
1, 359547, Note_on_c, 0, 61, 43
1, 359747, Note_off_c, 0, 53, 27
1, 359854, Control_c, 0, 64, 118
1, 359869, Control_c, 0, 64, 97
1, 359882, Note_on_c, 0, 42, 32
1, 359883, Note_off_c, 0, 61, 31
1, 359884, Control_c, 0, 64, 82
1, 359899, Control_c, 0, 64, 69
1, 359902, Note_on_c, 0, 58, 23
1, 359902, Note_on_c, 0, 66, 33
1, 359905, Note_on_c, 0, 30, 25
1, 359914, Control_c, 0, 64, 0
1, 359988, Control_c, 0, 64, 62
1, 359991, Note_off_c, 0, 58, 0
1, 360002, Control_c, 0, 64, 69
1, 360017, Control_c, 0, 64, 74
1, 360028, Poly_aftertouch_c, 0, 58, 127
1, 360032, Control_c, 0, 64, 78
1, 360047, Control_c, 0, 64, 79
1, 360063, Control_c, 0, 64, 81
1, 360078, Control_c, 0, 64, 83
1, 360092, Control_c, 0, 64, 85
1, 360107, Control_c, 0, 64, 87
1, 360116, Note_off_c, 0, 30, 39
1, 360122, Control_c, 0, 64, 87
1, 360151, Note_off_c, 0, 42, 42
1, 360322, Poly_aftertouch_c, 0, 58, 0
1, 360322, Control_c, 0, 64, 87
1, 360327, Note_off_c, 0, 66, 15
1, 360366, Control_c, 0, 64, 86
1, 360395, Control_c, 0, 64, 86
1, 360425, Control_c, 0, 64, 85
1, 360439, Control_c, 0, 64, 85
1, 360469, Control_c, 0, 64, 84
1, 360498, Control_c, 0, 64, 84
1, 360528, Control_c, 0, 64, 83
1, 360632, Control_c, 0, 64, 83
1, 360662, Control_c, 0, 64, 82
1, 360692, Control_c, 0, 64, 82
1, 360706, Control_c, 0, 64, 81
1, 360721, Control_c, 0, 64, 81
1, 360728, Note_on_c, 0, 58, 49
1, 360736, Control_c, 0, 64, 80
1, 360742, Note_on_c, 0, 49, 37
1, 360751, Control_c, 0, 64, 80
1, 360766, Control_c, 0, 64, 79
1, 360781, Note_on_c, 0, 54, 18
1, 360824, Control_c, 0, 64, 79
1, 360826, Note_off_c, 0, 54, 47
1, 360856, Control_c, 0, 64, 78
1, 360870, Control_c, 0, 64, 78
1, 360873, Note_off_c, 0, 49, 36
1, 360885, Control_c, 0, 64, 77
1, 360900, Control_c, 0, 64, 76
1, 360926, Note_off_c, 0, 58, 32
1, 361144, Control_c, 0, 64, 74
1, 361159, Control_c, 0, 64, 69
1, 361174, Control_c, 0, 64, 64
1, 361183, Note_on_c, 0, 59, 40
1, 361189, Control_c, 0, 64, 0
1, 361207, Note_on_c, 0, 54, 30
1, 361210, Note_on_c, 0, 51, 33
1, 361248, Control_c, 0, 64, 38
1, 361262, Control_c, 0, 64, 64
1, 361277, Control_c, 0, 64, 68
1, 361292, Control_c, 0, 64, 71
1, 361307, Control_c, 0, 64, 74
1, 361322, Control_c, 0, 64, 76
1, 361330, Note_on_c, 0, 63, 45
1, 361336, Control_c, 0, 64, 78
1, 361351, Control_c, 0, 64, 80
1, 361366, Control_c, 0, 64, 81
1, 361381, Control_c, 0, 64, 83
1, 361396, Control_c, 0, 64, 83
1, 361403, Note_off_c, 0, 63, 62
1, 361410, Control_c, 0, 64, 84
1, 361425, Control_c, 0, 64, 84
1, 361435, Note_on_c, 0, 65, 48
1, 361440, Control_c, 0, 64, 85
1, 361455, Control_c, 0, 64, 86
1, 361470, Control_c, 0, 64, 88
1, 361482, Note_off_c, 0, 65, 61
1, 361485, Control_c, 0, 64, 90
1, 361499, Control_c, 0, 64, 91
1, 361514, Control_c, 0, 64, 92
1, 361521, Note_on_c, 0, 66, 49
1, 361550, Note_off_c, 0, 59, 56
1, 361564, Note_off_c, 0, 66, 58
1, 361592, Note_on_c, 0, 68, 45
1, 361629, Note_off_c, 0, 68, 65
1, 361634, Note_off_c, 0, 54, 40
1, 361656, Note_on_c, 0, 70, 46
1, 361680, Note_off_c, 0, 70, 57
1, 361702, Note_off_c, 0, 51, 25
1, 361708, Control_c, 0, 64, 91
1, 361717, Note_on_c, 0, 71, 52
1, 361723, Control_c, 0, 64, 89
1, 361738, Control_c, 0, 64, 85
1, 361752, Control_c, 0, 64, 81
1, 361756, Note_off_c, 0, 71, 60
1, 361767, Control_c, 0, 64, 77
1, 361789, Control_c, 0, 64, 73
1, 361804, Control_c, 0, 64, 71
1, 361810, Note_on_c, 0, 72, 49
1, 361819, Control_c, 0, 64, 72
1, 361833, Note_on_c, 0, 58, 59
1, 361833, Control_c, 0, 64, 74
1, 361847, Note_on_c, 0, 49, 47
1, 361848, Control_c, 0, 64, 77
1, 361850, Note_on_c, 0, 54, 45
1, 361862, Note_off_c, 0, 72, 60
1, 361863, Control_c, 0, 64, 78
1, 361878, Control_c, 0, 64, 78
1, 361886, Note_on_c, 0, 73, 51
1, 361923, Note_off_c, 0, 73, 62
1, 361932, Note_off_c, 0, 49, 62
1, 361934, Note_on_c, 0, 78, 52
1, 361934, Note_off_c, 0, 58, 61
1, 361977, Note_off_c, 0, 54, 36
1, 361982, Note_off_c, 0, 78, 57
1, 362007, Note_on_c, 0, 75, 56
1, 362041, Control_c, 0, 64, 76
1, 362056, Control_c, 0, 64, 70
1, 362063, Note_off_c, 0, 75, 58
1, 362071, Control_c, 0, 64, 0
1, 362092, Note_on_c, 0, 73, 50
1, 362130, Note_on_c, 0, 54, 42
1, 362131, Note_off_c, 0, 73, 61
1, 362136, Note_on_c, 0, 56, 53
1, 362145, Note_on_c, 0, 47, 44
1, 362159, Control_c, 0, 64, 58
1, 362168, Note_on_c, 0, 75, 51
1, 362174, Control_c, 0, 64, 65
1, 362189, Control_c, 0, 64, 67
1, 362199, Note_off_c, 0, 75, 52
1, 362203, Control_c, 0, 64, 68
1, 362218, Control_c, 0, 64, 70
1, 362219, Note_on_c, 0, 73, 53
1, 362233, Control_c, 0, 64, 72
1, 362248, Control_c, 0, 64, 76
1, 362263, Control_c, 0, 64, 78
1, 362277, Note_off_c, 0, 73, 55
1, 362277, Control_c, 0, 64, 80
1, 362289, Note_on_c, 0, 70, 49
1, 362292, Control_c, 0, 64, 81
1, 362307, Control_c, 0, 64, 83
1, 362322, Control_c, 0, 64, 85
1, 362334, Note_off_c, 0, 70, 62
1, 362337, Control_c, 0, 64, 87
1, 362352, Control_c, 0, 64, 89
1, 362366, Note_on_c, 0, 68, 48
1, 362367, Control_c, 0, 64, 90
1, 362378, Note_off_c, 0, 56, 62
1, 362382, Control_c, 0, 64, 90
1, 362390, Note_off_c, 0, 68, 59
1, 362396, Control_c, 0, 64, 91
1, 362411, Control_c, 0, 64, 92
1, 362426, Control_c, 0, 64, 92
1, 362427, Note_on_c, 0, 70, 56
1, 362441, Control_c, 0, 64, 93
1, 362474, Note_on_c, 0, 68, 56
1, 362482, Note_off_c, 0, 70, 54
1, 362513, Note_off_c, 0, 47, 33
1, 362538, Control_c, 0, 64, 93
1, 362553, Control_c, 0, 64, 94
1, 362559, Note_off_c, 0, 68, 61
1, 362562, Note_off_c, 0, 54, 18
1, 362564, Note_on_c, 0, 66, 51
1, 362568, Control_c, 0, 64, 94
1, 362582, Control_c, 0, 64, 93
1, 362587, Note_off_c, 0, 66, 62
1, 362597, Control_c, 0, 64, 88
1, 362612, Control_c, 0, 64, 80
1, 362626, Control_c, 0, 64, 75
1, 362637, Note_on_c, 0, 58, 73
1, 362641, Control_c, 0, 64, 75
1, 362656, Control_c, 0, 64, 78
1, 362658, Note_on_c, 0, 54, 31
1, 362665, Note_on_c, 0, 49, 40
1, 362671, Control_c, 0, 64, 82
1, 362675, Note_on_c, 0, 66, 58
1, 362686, Control_c, 0, 64, 85
1, 362701, Control_c, 0, 64, 87
1, 362712, Note_off_c, 0, 58, 61
1, 362716, Control_c, 0, 64, 88
1, 362739, Note_off_c, 0, 66, 51
1, 362757, Note_on_c, 0, 63, 35
1, 362760, Control_c, 0, 64, 88
1, 362769, Note_off_c, 0, 54, 31
1, 362775, Control_c, 0, 64, 90
1, 362782, Note_off_c, 0, 49, 45
1, 362790, Control_c, 0, 64, 92
1, 362805, Control_c, 0, 64, 94
1, 362806, Note_off_c, 0, 63, 59
1, 362820, Control_c, 0, 64, 95
1, 362824, Note_on_c, 0, 61, 48
1, 362834, Control_c, 0, 64, 95
1, 362849, Control_c, 0, 64, 93
1, 362864, Control_c, 0, 64, 86
1, 362873, Note_off_c, 0, 61, 48
1, 362879, Control_c, 0, 64, 76
1, 362894, Control_c, 0, 64, 65
1, 362900, Note_on_c, 0, 59, 60
1, 362908, Control_c, 0, 64, 0
1, 362912, Note_on_c, 0, 54, 59
1, 362928, Note_on_c, 0, 51, 51
1, 362941, Note_off_c, 0, 59, 61
1, 362953, Control_c, 0, 64, 51
1, 362968, Control_c, 0, 64, 66
1, 362982, Control_c, 0, 64, 70
1, 362996, Note_on_c, 0, 63, 52
1, 362997, Control_c, 0, 64, 74
1, 363012, Control_c, 0, 64, 78
1, 363020, Note_off_c, 0, 63, 58
1, 363026, Control_c, 0, 64, 82
1, 363041, Control_c, 0, 64, 85
1, 363056, Control_c, 0, 64, 86
1, 363068, Note_on_c, 0, 65, 67
1, 363071, Control_c, 0, 64, 86
1, 363086, Control_c, 0, 64, 87
1, 363098, Note_off_c, 0, 65, 65
1, 363115, Control_c, 0, 64, 87
1, 363130, Control_c, 0, 64, 88
1, 363138, Note_on_c, 0, 66, 66
1, 363145, Control_c, 0, 64, 89
1, 363165, Note_off_c, 0, 66, 67
1, 363187, Note_off_c, 0, 54, 60
1, 363196, Note_off_c, 0, 51, 59
1, 363201, Note_on_c, 0, 68, 53
1, 363219, Control_c, 0, 64, 88
1, 363234, Control_c, 0, 64, 88
1, 363240, Note_off_c, 0, 68, 65
1, 363249, Control_c, 0, 64, 86
1, 363272, Control_c, 0, 64, 85
1, 363282, Note_on_c, 0, 70, 43
1, 363287, Control_c, 0, 64, 83
1, 363302, Control_c, 0, 64, 82
1, 363309, Note_off_c, 0, 70, 34
1, 363317, Control_c, 0, 64, 81
1, 363327, Note_on_c, 0, 71, 60
1, 363356, Note_off_c, 0, 71, 62
1, 363377, Control_c, 0, 64, 80
1, 363392, Control_c, 0, 64, 79
1, 363405, Note_on_c, 0, 73, 56
1, 363406, Control_c, 0, 64, 73
1, 363421, Control_c, 0, 64, 65
1, 363436, Control_c, 0, 64, 57
1, 363448, Note_off_c, 0, 73, 62
1, 363450, Control_c, 0, 64, 63
1, 363453, Note_on_c, 0, 63, 67
1, 363465, Control_c, 0, 64, 64
1, 363470, Note_on_c, 0, 59, 52
1, 363478, Note_on_c, 0, 75, 48
1, 363480, Control_c, 0, 64, 67
1, 363482, Note_on_c, 0, 54, 44
1, 363495, Control_c, 0, 64, 70
1, 363506, Note_off_c, 0, 75, 58
1, 363510, Control_c, 0, 64, 72
1, 363524, Control_c, 0, 64, 72
1, 363529, Note_off_c, 0, 59, 59
1, 363555, Note_on_c, 0, 77, 60
1, 363556, Note_off_c, 0, 63, 62
1, 363584, Control_c, 0, 64, 72
1, 363587, Note_off_c, 0, 54, 53
1, 363595, Note_off_c, 0, 77, 59
1, 363613, Control_c, 0, 64, 72
1, 363632, Note_on_c, 0, 78, 49
1, 363673, Control_c, 0, 64, 71
1, 363687, Note_off_c, 0, 78, 58
1, 363687, Control_c, 0, 64, 69
1, 363702, Note_on_c, 0, 83, 53
1, 363702, Control_c, 0, 64, 62
1, 363717, Control_c, 0, 64, 0
1, 363756, Note_on_c, 0, 61, 53
1, 363767, Note_on_c, 0, 54, 32
1, 363771, Note_off_c, 0, 83, 50
1, 363773, Note_on_c, 0, 82, 55
1, 363774, Note_on_c, 0, 58, 40
1, 363791, Control_c, 0, 64, 64
1, 363806, Control_c, 0, 64, 70
1, 363821, Control_c, 0, 64, 72
1, 363836, Control_c, 0, 64, 74
1, 363842, Note_off_c, 0, 82, 61
1, 363850, Control_c, 0, 64, 76
1, 363854, Note_on_c, 0, 78, 42
1, 363865, Control_c, 0, 64, 77
1, 363879, Note_off_c, 0, 78, 54
1, 363880, Control_c, 0, 64, 79
1, 363895, Control_c, 0, 64, 80
1, 363910, Control_c, 0, 64, 80
1, 363916, Note_on_c, 0, 77, 53
1, 363938, Note_off_c, 0, 77, 56
1, 363983, Note_on_c, 0, 75, 55
1, 364005, Note_off_c, 0, 75, 62
1, 364006, Note_off_c, 0, 54, 48
1, 364033, Note_on_c, 0, 78, 51
1, 364035, Note_off_c, 0, 61, 39
1, 364042, Note_off_c, 0, 58, 58
1, 364081, Control_c, 0, 64, 80
1, 364096, Note_on_c, 0, 75, 59
1, 364126, Note_off_c, 0, 78, 52
1, 364169, Note_on_c, 0, 73, 57
1, 364170, Note_off_c, 0, 75, 60
1, 364195, Note_off_c, 0, 73, 58
1, 364248, Note_on_c, 0, 71, 47
1, 364273, Control_c, 0, 64, 78
1, 364284, Note_off_c, 0, 71, 46
1, 364288, Control_c, 0, 64, 73
1, 364299, Note_on_c, 0, 61, 70
1, 364303, Control_c, 0, 64, 67
1, 364304, Note_on_c, 0, 49, 61
1, 364310, Note_on_c, 0, 70, 59
1, 364318, Control_c, 0, 64, 57
1, 364333, Control_c, 0, 64, 0
1, 364362, Control_c, 0, 64, 53
1, 364370, Note_off_c, 0, 70, 53
1, 364377, Control_c, 0, 64, 64
1, 364388, Note_on_c, 0, 68, 55
1, 364392, Control_c, 0, 64, 67
1, 364406, Control_c, 0, 64, 70
1, 364421, Control_c, 0, 64, 71
1, 364427, Note_off_c, 0, 68, 64
1, 364428, Note_off_c, 0, 61, 59
1, 364436, Control_c, 0, 64, 72
1, 364451, Control_c, 0, 64, 73
1, 364457, Note_on_c, 0, 66, 45
1, 364466, Control_c, 0, 64, 74
1, 364480, Control_c, 0, 64, 75
1, 364488, Note_off_c, 0, 66, 56
1, 364495, Control_c, 0, 64, 76
1, 364510, Note_on_c, 0, 70, 53
1, 364510, Control_c, 0, 64, 76
1, 364525, Control_c, 0, 64, 72
1, 364540, Control_c, 0, 64, 66
1, 364555, Control_c, 0, 64, 0
1, 364558, Note_off_c, 0, 70, 62
1, 364570, Control_c, 0, 64, 13
1, 364585, Control_c, 0, 64, 63
1, 364599, Control_c, 0, 64, 65
1, 364607, Note_on_c, 0, 63, 78
1, 364610, Note_on_c, 0, 54, 61
1, 364614, Control_c, 0, 64, 68
1, 364622, Note_on_c, 0, 71, 49
1, 364629, Control_c, 0, 64, 69
1, 364644, Control_c, 0, 64, 69
1, 364661, Note_off_c, 0, 71, 54
1, 364673, Control_c, 0, 64, 70
1, 364688, Control_c, 0, 64, 72
1, 364698, Note_on_c, 0, 73, 54
1, 364703, Control_c, 0, 64, 75
1, 364718, Control_c, 0, 64, 78
1, 364733, Control_c, 0, 64, 79
1, 364737, Note_off_c, 0, 73, 61
1, 364772, Note_on_c, 0, 75, 58
1, 364784, Control_c, 0, 64, 80
1, 364799, Control_c, 0, 64, 80
1, 364807, Note_off_c, 0, 75, 64
1, 364810, Note_off_c, 0, 49, 24
1, 364842, Note_on_c, 0, 77, 65
1, 364876, Note_off_c, 0, 77, 60
1, 364883, Note_off_c, 0, 63, 58
1, 364916, Note_on_c, 0, 78, 60
1, 364953, Note_off_c, 0, 78, 61
1, 364963, Note_on_c, 0, 80, 65
1, 365019, Note_off_c, 0, 80, 62
1, 365037, Note_on_c, 0, 82, 58
1, 365066, Control_c, 0, 64, 79
1, 365069, Note_off_c, 0, 82, 64
1, 365081, Control_c, 0, 64, 72
1, 365095, Control_c, 0, 64, 62
1, 365110, Control_c, 0, 64, 0
1, 365114, Note_on_c, 0, 83, 52
1, 365140, Control_c, 0, 64, 58
1, 365150, Note_on_c, 0, 49, 46
1, 365150, Note_off_c, 0, 83, 48
1, 365155, Control_c, 0, 64, 66
1, 365169, Note_on_c, 0, 61, 62
1, 365169, Control_c, 0, 64, 71
1, 365175, Note_on_c, 0, 58, 46
1, 365184, Control_c, 0, 64, 75
1, 365188, Note_on_c, 0, 84, 57
1, 365199, Control_c, 0, 64, 78
1, 365214, Control_c, 0, 64, 80
1, 365218, Note_off_c, 0, 49, 63
1, 365222, Note_off_c, 0, 54, 61
1, 365229, Control_c, 0, 64, 81
1, 365238, Note_off_c, 0, 58, 60
1, 365239, Note_off_c, 0, 84, 50
1, 365243, Control_c, 0, 64, 81
1, 365258, Control_c, 0, 64, 82
1, 365261, Note_off_c, 0, 61, 61
1, 365267, Note_on_c, 0, 85, 57
1, 365273, Control_c, 0, 64, 83
1, 365298, Note_off_c, 0, 85, 64
1, 365312, Note_on_c, 0, 90, 62
1, 365381, Note_off_c, 0, 90, 56
1, 365408, Note_on_c, 0, 87, 54
1, 365451, Control_c, 0, 64, 79
1, 365459, Note_off_c, 0, 87, 61
1, 365466, Control_c, 0, 64, 72
1, 365481, Control_c, 0, 64, 54
1, 365486, Note_on_c, 0, 70, 59
1, 365488, Note_on_c, 0, 58, 40
1, 365489, Note_on_c, 0, 85, 51
1, 365495, Note_on_c, 0, 61, 39
1, 365495, Control_c, 0, 64, 0
1, 365539, Note_off_c, 0, 85, 62
1, 365571, Note_on_c, 0, 87, 57
1, 365592, Control_c, 0, 64, 57
1, 365607, Control_c, 0, 64, 65
1, 365607, Note_off_c, 0, 87, 55
1, 365621, Control_c, 0, 64, 68
1, 365636, Control_c, 0, 64, 71
1, 365637, Note_on_c, 0, 85, 53
1, 365652, Control_c, 0, 64, 73
1, 365667, Control_c, 0, 64, 75
1, 365682, Control_c, 0, 64, 77
1, 365697, Control_c, 0, 64, 78
1, 365699, Note_off_c, 0, 85, 56
1, 365710, Note_on_c, 0, 82, 48
1, 365711, Control_c, 0, 64, 79
1, 365726, Control_c, 0, 64, 80
1, 365741, Control_c, 0, 64, 81
1, 365745, Note_off_c, 0, 82, 52
1, 365756, Control_c, 0, 64, 82
1, 365779, Note_off_c, 0, 58, 35
1, 365780, Note_off_c, 0, 70, 59
1, 365786, Control_c, 0, 64, 82
1, 365788, Note_on_c, 0, 80, 53
1, 365812, Note_off_c, 0, 80, 61
1, 365830, Note_off_c, 0, 61, 56
1, 365830, Control_c, 0, 64, 83
1, 365856, Note_on_c, 0, 82, 48
1, 365908, Note_on_c, 0, 80, 46
1, 365911, Note_off_c, 0, 82, 55
1, 365933, Control_c, 0, 64, 83
1, 365963, Control_c, 0, 64, 84
1, 365977, Control_c, 0, 64, 84
1, 365989, Note_on_c, 0, 78, 53
1, 365995, Note_off_c, 0, 80, 58
1, 366022, Control_c, 0, 64, 85
1, 366034, Note_off_c, 0, 78, 61
1, 366065, Note_on_c, 0, 75, 50
1, 366071, Note_on_c, 0, 58, 52
1, 366078, Note_on_c, 0, 66, 50
1, 366081, Control_c, 0, 64, 85
1, 366089, Note_off_c, 0, 75, 59
1, 366096, Note_on_c, 0, 61, 37
1, 366096, Control_c, 0, 64, 86
1, 366129, Note_off_c, 0, 58, 56
1, 366136, Note_on_c, 0, 78, 54
1, 366145, Note_off_c, 0, 61, 43
1, 366179, Note_off_c, 0, 66, 35
1, 366180, Note_on_c, 0, 75, 49
1, 366216, Note_off_c, 0, 78, 49
1, 366296, Note_off_c, 0, 75, 59
1, 366312, Note_on_c, 0, 73, 48
1, 366370, Control_c, 0, 64, 85
1, 366385, Control_c, 0, 64, 81
1, 366400, Note_off_c, 0, 73, 59
1, 366400, Control_c, 0, 64, 73
1, 366415, Control_c, 0, 64, 60
1, 366422, Note_on_c, 0, 66, 41
1, 366424, Note_on_c, 0, 56, 41
1, 366430, Control_c, 0, 64, 0
1, 366430, Note_on_c, 0, 71, 40
1, 366436, Note_on_c, 0, 63, 40
1, 366468, Note_off_c, 0, 71, 49
1, 366475, Control_c, 0, 64, 64
1, 366490, Control_c, 0, 64, 67
1, 366504, Control_c, 0, 64, 69
1, 366519, Control_c, 0, 64, 72
1, 366531, Note_on_c, 0, 75, 50
1, 366534, Control_c, 0, 64, 74
1, 366549, Control_c, 0, 64, 77
1, 366564, Control_c, 0, 64, 79
1, 366567, Note_off_c, 0, 75, 50
1, 366579, Control_c, 0, 64, 80
1, 366593, Control_c, 0, 64, 81
1, 366603, Note_on_c, 0, 78, 46
1, 366608, Control_c, 0, 64, 83
1, 366623, Control_c, 0, 64, 83
1, 366638, Note_off_c, 0, 78, 62
1, 366638, Control_c, 0, 64, 84
1, 366667, Control_c, 0, 64, 85
1, 366671, Note_on_c, 0, 82, 48
1, 366682, Control_c, 0, 64, 85
1, 366698, Note_off_c, 0, 82, 63
1, 366712, Control_c, 0, 64, 86
1, 366714, Note_off_c, 0, 63, 57
1, 366727, Control_c, 0, 64, 86
1, 366728, Note_off_c, 0, 66, 61
1, 366752, Note_on_c, 0, 83, 56
1, 366777, Note_off_c, 0, 83, 56
1, 366847, Note_on_c, 0, 85, 48
1, 366885, Note_off_c, 0, 85, 47
1, 366919, Note_on_c, 0, 87, 57
1, 366924, Note_off_c, 0, 56, 60
1, 366997, Note_off_c, 0, 87, 61
1, 367050, Note_on_c, 0, 89, 51
1, 367089, Control_c, 0, 64, 84
1, 367105, Control_c, 0, 64, 77
1, 367119, Note_on_c, 0, 71, 38
1, 367119, Control_c, 0, 64, 69
1, 367122, Note_on_c, 0, 61, 29
1, 367134, Control_c, 0, 64, 23
1, 367138, Note_on_c, 0, 65, 25
1, 367149, Control_c, 0, 64, 0
1, 367157, Note_off_c, 0, 89, 36
1, 367178, Note_on_c, 0, 90, 45
1, 367193, Control_c, 0, 64, 65
1, 367194, Note_off_c, 0, 71, 61
1, 367208, Control_c, 0, 64, 71
1, 367223, Control_c, 0, 64, 76
1, 367224, Note_off_c, 0, 65, 62
1, 367238, Control_c, 0, 64, 80
1, 367254, Control_c, 0, 64, 81
1, 367259, Note_off_c, 0, 61, 59
1, 367259, Note_on_c, 0, 92, 45
1, 367263, Note_off_c, 0, 90, 49
1, 367269, Control_c, 0, 64, 82
1, 367284, Control_c, 0, 64, 84
1, 367298, Control_c, 0, 64, 85
1, 367313, Control_c, 0, 64, 86
1, 367359, Note_off_c, 0, 92, 62
1, 367384, Note_on_c, 0, 94, 49
1, 367423, Note_off_c, 0, 94, 64
1, 367449, Note_on_c, 0, 54, 21
1, 367496, Note_on_c, 0, 95, 51
1, 367506, Control_c, 0, 64, 87
1, 367512, Note_on_c, 0, 61, 46
1, 367569, Note_off_c, 0, 54, 39
1, 367595, Control_c, 0, 64, 86
1, 367610, Control_c, 0, 64, 82
1, 367624, Control_c, 0, 64, 75
1, 367639, Control_c, 0, 64, 68
1, 367654, Control_c, 0, 64, 64
1, 367669, Control_c, 0, 64, 65
1, 367681, Note_off_c, 0, 95, 42
1, 367684, Control_c, 0, 64, 66
1, 367688, Note_on_c, 0, 96, 49
1, 367698, Control_c, 0, 64, 69
1, 367713, Control_c, 0, 64, 71
1, 367728, Control_c, 0, 64, 73
1, 367732, Note_on_c, 0, 70, 44
1, 367742, Control_c, 0, 64, 76
1, 367757, Control_c, 0, 64, 79
1, 367780, Control_c, 0, 64, 82
1, 367795, Control_c, 0, 64, 84
1, 367810, Control_c, 0, 64, 87
1, 367823, Note_on_c, 0, 97, 52
1, 367824, Control_c, 0, 64, 89
1, 367839, Note_off_c, 0, 96, 37
1, 367839, Control_c, 0, 64, 92
1, 367854, Control_c, 0, 64, 94
1, 367869, Control_c, 0, 64, 97
1, 367882, Note_off_c, 0, 97, 63
1, 367884, Control_c, 0, 64, 100
1, 367898, Control_c, 0, 64, 104
1, 367902, Note_on_c, 0, 102, 55
1, 367913, Control_c, 0, 64, 110
1, 367928, Control_c, 0, 64, 117
1, 367942, Control_c, 0, 64, 127
1, 367958, Note_off_c, 0, 102, 53
1, 367963, Note_on_c, 0, 99, 63
1, 368037, Note_off_c, 0, 99, 61
1, 368043, Note_on_c, 0, 97, 62
1, 368069, Note_off_c, 0, 97, 67
1, 368115, Note_on_c, 0, 95, 44
1, 368141, Note_off_c, 0, 95, 50
1, 368172, Note_on_c, 0, 94, 56
1, 368210, Note_on_c, 0, 92, 66
1, 368216, Note_off_c, 0, 94, 59
1, 368248, Note_off_c, 0, 92, 59
1, 368260, Note_on_c, 0, 90, 72
1, 368284, Note_off_c, 0, 90, 67
1, 368324, Note_on_c, 0, 94, 50
1, 368347, Note_on_c, 0, 90, 78
1, 368349, Note_off_c, 0, 94, 57
1, 368385, Note_off_c, 0, 90, 62
1, 368394, Poly_aftertouch_c, 0, 56, 127
1, 368421, Note_on_c, 0, 89, 62
1, 368441, Note_off_c, 0, 89, 61
1, 368469, Note_on_c, 0, 87, 63
1, 368487, Note_off_c, 0, 87, 64
1, 368523, Note_on_c, 0, 90, 62
1, 368524, Poly_aftertouch_c, 0, 56, 0
1, 368532, Note_off_c, 0, 70, 49
1, 368535, Note_off_c, 0, 61, 53
1, 368559, Note_on_c, 0, 87, 71
1, 368595, Note_off_c, 0, 90, 53
1, 368615, Note_off_c, 0, 87, 64
1, 368631, Note_on_c, 0, 85, 43
1, 368655, Note_off_c, 0, 85, 55
1, 368671, Note_on_c, 0, 83, 62
1, 368701, Note_off_c, 0, 83, 63
1, 368725, Note_on_c, 0, 82, 65
1, 368776, Note_off_c, 0, 82, 59
1, 368779, Note_on_c, 0, 80, 66
1, 368813, Note_off_c, 0, 80, 64
1, 368835, Note_on_c, 0, 78, 48
1, 368859, Note_off_c, 0, 78, 58
1, 368868, Note_on_c, 0, 82, 60
1, 368907, Note_off_c, 0, 82, 62
1, 368910, Note_on_c, 0, 78, 73
1, 368935, Note_off_c, 0, 78, 67
1, 368961, Note_on_c, 0, 77, 71
1, 368989, Note_off_c, 0, 77, 62
1, 369014, Note_on_c, 0, 75, 67
1, 369041, Note_off_c, 0, 75, 54
1, 369055, Note_on_c, 0, 78, 62
1, 369104, Note_on_c, 0, 75, 82
1, 369110, Note_off_c, 0, 78, 54
1, 369148, Note_on_c, 0, 73, 68
1, 369152, Note_off_c, 0, 75, 63
1, 369175, Note_off_c, 0, 73, 66
1, 369190, Note_on_c, 0, 71, 69
1, 369217, Note_off_c, 0, 71, 66
1, 369249, Note_on_c, 0, 70, 76
1, 369304, Note_on_c, 0, 68, 70
1, 369317, Note_off_c, 0, 70, 60
1, 369343, Note_off_c, 0, 68, 63
1, 369348, Note_on_c, 0, 66, 75
1, 369372, Note_off_c, 0, 66, 67
1, 369394, Note_on_c, 0, 70, 72
1, 369433, Note_on_c, 0, 66, 72
1, 369448, Note_off_c, 0, 70, 62
1, 369481, Note_off_c, 0, 66, 63
1, 369490, Note_on_c, 0, 65, 63
1, 369523, Note_off_c, 0, 65, 61
1, 369543, Note_on_c, 0, 63, 77
1, 369584, Note_off_c, 0, 63, 59
1, 369593, Note_on_c, 0, 66, 78
1, 369646, Note_on_c, 0, 63, 80
1, 369684, Note_on_c, 0, 61, 75
1, 369685, Note_off_c, 0, 66, 63
1, 369704, Note_off_c, 0, 63, 61
1, 369733, Note_off_c, 0, 61, 61
1, 369739, Note_on_c, 0, 59, 72
1, 369774, Note_off_c, 0, 59, 60
1, 369798, Note_on_c, 0, 58, 76
1, 369846, Note_on_c, 0, 56, 77
1, 369863, Note_off_c, 0, 58, 61
1, 369896, Note_off_c, 0, 56, 64
1, 369902, Note_on_c, 0, 54, 76
1, 369927, Note_off_c, 0, 54, 65
1, 369932, Note_on_c, 0, 58, 69
1, 369977, Note_on_c, 0, 54, 77
1, 370002, Note_off_c, 0, 58, 61
1, 370046, Note_on_c, 0, 53, 73
1, 370048, Note_off_c, 0, 54, 61
1, 370105, Note_on_c, 0, 51, 82
1, 370110, Note_off_c, 0, 53, 63
1, 370169, Note_on_c, 0, 49, 80
1, 370195, Note_off_c, 0, 51, 57
1, 370225, Note_on_c, 0, 47, 79
1, 370226, Note_off_c, 0, 49, 63
1, 370281, Note_off_c, 0, 47, 61
1, 370290, Note_on_c, 0, 46, 81
1, 370337, Note_on_c, 0, 44, 81
1, 370372, Note_off_c, 0, 46, 62
1, 370389, Note_on_c, 0, 42, 78
1, 370403, Note_off_c, 0, 44, 63
1, 370434, Note_on_c, 0, 41, 80
1, 370442, Note_off_c, 0, 42, 62
1, 370477, Note_off_c, 0, 41, 62
1, 370502, Note_on_c, 0, 39, 86
1, 370555, Note_on_c, 0, 37, 77
1, 370566, Note_off_c, 0, 39, 61
1, 370600, Note_off_c, 0, 37, 63
1, 370621, Note_on_c, 0, 35, 71
1, 370684, Note_on_c, 0, 34, 75
1, 370689, Note_off_c, 0, 35, 62
1, 370725, Note_on_c, 0, 32, 78
1, 370746, Note_off_c, 0, 34, 61
1, 370767, Note_off_c, 0, 32, 64
1, 370794, Note_on_c, 0, 30, 99
1, 370820, Control_c, 0, 64, 93
1, 370834, Control_c, 0, 64, 68
1, 370849, Control_c, 0, 64, 0
1, 371131, Control_c, 0, 64, 64
1, 371146, Control_c, 0, 64, 69
1, 371160, Control_c, 0, 64, 73
1, 371175, Control_c, 0, 64, 78
1, 371190, Control_c, 0, 64, 84
1, 371193, Note_off_c, 0, 30, 60
1, 371205, Control_c, 0, 64, 91
1, 371220, Control_c, 0, 64, 98
1, 371235, Control_c, 0, 64, 108
1, 371250, Control_c, 0, 64, 123
1, 371265, Control_c, 0, 64, 127
1, 371656, Note_on_c, 0, 61, 91
1, 371658, Note_on_c, 0, 49, 95
1, 371659, Note_on_c, 0, 85, 111
1, 371661, Note_on_c, 0, 73, 98
1, 371687, Note_off_c, 0, 73, 63
1, 371695, Note_off_c, 0, 61, 65
1, 371702, Note_off_c, 0, 85, 60
1, 371703, Note_off_c, 0, 49, 66
1, 371703, Note_on_c, 0, 75, 37
1, 371733, Note_off_c, 0, 75, 56
1, 372028, Note_on_c, 0, 54, 100
1, 372029, Note_on_c, 0, 66, 96
1, 372029, Note_on_c, 0, 90, 120
1, 372035, Note_on_c, 0, 78, 97
1, 372066, Note_on_c, 0, 87, 47
1, 372067, Note_off_c, 0, 66, 66
1, 372070, Note_off_c, 0, 78, 66
1, 372078, Note_off_c, 0, 90, 72
1, 372091, Note_off_c, 0, 87, 59
1, 372101, Note_off_c, 0, 54, 64
1, 372101, Control_c, 0, 64, 123
1, 372116, Control_c, 0, 64, 98
1, 372130, Control_c, 0, 64, 93
1, 372145, Control_c, 0, 64, 92
1, 372160, Control_c, 0, 64, 92
1, 372175, Control_c, 0, 64, 90
1, 372190, Control_c, 0, 64, 89
1, 372204, Control_c, 0, 64, 85
1, 372219, Control_c, 0, 64, 82
1, 372234, Control_c, 0, 64, 80
1, 372249, Control_c, 0, 64, 78
1, 372286, Control_c, 0, 64, 78
1, 372316, Control_c, 0, 64, 77
1, 372331, Control_c, 0, 64, 75
1, 372345, Control_c, 0, 64, 71
1, 372360, Control_c, 0, 64, 68
1, 372375, Control_c, 0, 64, 66
1, 372390, Control_c, 0, 64, 65
1, 372405, Control_c, 0, 64, 63
1, 372419, Control_c, 0, 64, 30
1, 372434, Control_c, 0, 64, 0
1, 372656, Control_c, 0, 64, 64
1, 372671, Control_c, 0, 64, 67
1, 372686, Control_c, 0, 64, 71
1, 372701, Control_c, 0, 64, 76
1, 372716, Control_c, 0, 64, 83
1, 372730, Control_c, 0, 64, 93
1, 372745, Control_c, 0, 64, 109
1, 372760, Control_c, 0, 64, 127
1, 372766, Note_on_c, 0, 37, 95
1, 372769, Note_on_c, 0, 49, 81
1, 372779, Note_on_c, 0, 73, 101
1, 372781, Note_on_c, 0, 61, 100
1, 372797, Note_off_c, 0, 49, 67
1, 372808, Note_off_c, 0, 61, 63
1, 372833, Note_off_c, 0, 37, 62
1, 372836, Note_off_c, 0, 73, 62
1, 373211, Note_on_c, 0, 42, 97
1, 373214, Note_on_c, 0, 30, 91
1, 373217, Note_on_c, 0, 78, 108
1, 373218, Note_on_c, 0, 66, 94
1, 373334, Poly_aftertouch_c, 0, 75, 0
1, 374229, Control_c, 0, 64, 115
1, 374244, Control_c, 0, 64, 107
1, 374258, Control_c, 0, 64, 100
1, 374273, Control_c, 0, 64, 93
1, 374288, Control_c, 0, 64, 87
1, 374302, Control_c, 0, 64, 81
1, 374317, Control_c, 0, 64, 76
1, 374332, Control_c, 0, 64, 71
1, 374347, Control_c, 0, 64, 66
1, 374353, Note_off_c, 0, 66, 62
1, 374362, Control_c, 0, 64, 50
1, 374374, Note_off_c, 0, 42, 59
1, 374377, Note_off_c, 0, 78, 57
1, 374377, Control_c, 0, 64, 0
1, 374406, Note_off_c, 0, 30, 61
1, 376193, Control_c, 0, 64, 13
1, 376208, Control_c, 0, 64, 23
1, 376223, Control_c, 0, 64, 30
1, 376238, Control_c, 0, 64, 34
1, 376252, Control_c, 0, 64, 38
1, 376267, Control_c, 0, 64, 44
1, 376282, Control_c, 0, 64, 46
1, 376297, Control_c, 0, 64, 50
1, 376312, Control_c, 0, 64, 51
1, 376326, Control_c, 0, 64, 53
1, 376341, Control_c, 0, 64, 56
1, 376356, Control_c, 0, 64, 59
1, 376371, Control_c, 0, 64, 60
1, 376386, Control_c, 0, 64, 61
1, 376460, Control_c, 0, 64, 61
1, 376519, Control_c, 0, 64, 60
1, 376549, Control_c, 0, 64, 59
1, 376578, Control_c, 0, 64, 59
1, 376593, Control_c, 0, 64, 58
1, 376608, Control_c, 0, 64, 57
1, 376637, Control_c, 0, 64, 56
1, 376667, Control_c, 0, 64, 55
1, 376682, Control_c, 0, 64, 54
1, 376697, Control_c, 0, 64, 53
1, 376711, Control_c, 0, 64, 51
1, 376711, End_track
0, 0, End_of_file
