0, 0, Header, 0, 1, 384
1, 0, Start_track
1, 0, Title_t, "Prelude & Fugue--Andrew Wang    "
1, 0, Text_t, "2008 e-Piano Junior Competition recital round"
1, 0, Text_t, "recorded July 2008"
1, 0, Text_t, "http://www.piano-e-competition.com/"
1, 0, Text_t, "File processed for distribution by software from Zenph Studios, Inc., http://www.zenph.com"
1, 0, Instrument_name_t, "Yamaha Disklavier Pro Mark IV concert grand piano, model DCFIIISM4PRO"
1, 0, Sequencer_specific, 39, 67, 113, 0, 1, 0, 1, 0, 80, 114, 101, 108, 117, 100, 101, 32, 38, 32, 70, 117, 103, 117, 101, 32, 65, 110, 100, 114, 101, 119, 32, 87, 97, 110, 103, 32, 32, 32, 32, 32
1, 0, Sequencer_specific, 6, 67, 113, 0, 0, 0, 69
1, 0, System_exclusive, 21, 67, 113, 126, 21, 0, 2, 2, 0, 3, 14, 1, 4, 1, 13, 13, 10, 11, 9, 2, 7, 247
1, 0, Sequencer_specific, 5, 67, 123, 12, 2, 1
1, 0, Tempo, 512820
1, 0, Time_signature, 4, 2, 24, 8
1, 0, System_exclusive, 5, 126, 127, 9, 1, 247
1, 1, System_exclusive, 8, 67, 16, 76, 0, 0, 126, 0, 247
1, 2, System_exclusive, 8, 67, 16, 76, 8, 9, 7, 1, 247
1, 3, Control_c, 0, 0, 0
1, 3, Control_c, 1, 0, 0
1, 3, Control_c, 2, 0, 0
1, 3, Control_c, 3, 0, 0
1, 3, Control_c, 4, 0, 0
1, 3, Control_c, 5, 0, 0
1, 3, Control_c, 6, 0, 0
1, 3, Control_c, 7, 0, 0
1, 3, Control_c, 8, 0, 0
1, 3, Control_c, 9, 0, 127
1, 3, Control_c, 10, 0, 0
1, 3, Control_c, 11, 0, 0
1, 3, Control_c, 12, 0, 0
1, 3, Control_c, 13, 0, 0
1, 3, Control_c, 14, 0, 0
1, 3, Control_c, 15, 0, 0
1, 4, Control_c, 0, 32, 0
1, 4, Control_c, 1, 32, 0
1, 4, Control_c, 2, 32, 0
1, 4, Control_c, 3, 32, 0
1, 4, Control_c, 4, 32, 0
1, 4, Control_c, 5, 32, 0
1, 4, Control_c, 6, 32, 0
1, 4, Control_c, 7, 32, 0
1, 4, Control_c, 8, 32, 0
1, 4, Control_c, 9, 32, 0
1, 4, Control_c, 10, 32, 0
1, 4, Control_c, 11, 32, 0
1, 4, Control_c, 12, 32, 0
1, 4, Control_c, 13, 32, 0
1, 4, Control_c, 14, 32, 0
1, 4, Control_c, 15, 32, 0
1, 5, Program_c, 0, 0
1, 5, Program_c, 1, 0
1, 5, Program_c, 2, 0
1, 5, Program_c, 3, 0
1, 5, Program_c, 4, 0
1, 5, Program_c, 5, 0
1, 5, Program_c, 6, 0
1, 5, Program_c, 7, 0
1, 5, Program_c, 8, 0
1, 5, Program_c, 9, 0
1, 5, Program_c, 10, 0
1, 5, Program_c, 11, 0
1, 5, Program_c, 12, 0
1, 5, Program_c, 13, 0
1, 5, Program_c, 14, 0
1, 5, Program_c, 15, 0
1, 6, Control_c, 0, 7, 100
1, 6, Control_c, 1, 7, 100
1, 6, Control_c, 2, 7, 100
1, 6, Control_c, 3, 7, 100
1, 6, Control_c, 4, 7, 100
1, 6, Control_c, 5, 7, 100
1, 6, Control_c, 6, 7, 100
1, 6, Control_c, 7, 7, 100
1, 6, Control_c, 8, 7, 100
1, 6, Control_c, 9, 7, 100
1, 6, Control_c, 10, 7, 100
1, 6, Control_c, 11, 7, 100
1, 6, Control_c, 12, 7, 100
1, 6, Control_c, 13, 7, 100
1, 6, Control_c, 14, 7, 100
1, 6, Control_c, 15, 7, 100
1, 1136, Note_on_c, 0, 41, 48
1, 1282, Note_on_c, 0, 76, 54
1, 1418, Note_on_c, 0, 77, 67
1, 1450, Note_off_c, 0, 76, 51
1, 1550, Note_on_c, 0, 79, 70
1, 1576, Note_off_c, 0, 77, 55
1, 1692, Note_off_c, 0, 41, 45
1, 1709, Note_on_c, 0, 77, 68
1, 1720, Note_on_c, 0, 53, 57
1, 1738, Note_off_c, 0, 79, 55
1, 1841, Note_on_c, 0, 76, 70
1, 1921, Note_off_c, 0, 77, 36
1, 1977, Note_on_c, 0, 74, 69
1, 1989, Note_off_c, 0, 76, 55
1, 2104, Note_on_c, 0, 72, 68
1, 2105, Note_off_c, 0, 74, 63
1, 2230, Note_off_c, 0, 72, 60
1, 2243, Note_on_c, 0, 57, 54
1, 2243, Note_on_c, 0, 74, 65
1, 2382, Note_on_c, 0, 72, 64
1, 2454, Note_off_c, 0, 74, 38
1, 2524, Note_on_c, 0, 70, 67
1, 2540, Note_off_c, 0, 72, 55
1, 2648, Note_off_c, 0, 70, 61
1, 2653, Note_on_c, 0, 69, 67
1, 2775, Note_off_c, 0, 69, 63
1, 2783, Note_on_c, 0, 70, 67
1, 2804, Note_on_c, 0, 62, 47
1, 2902, Note_off_c, 0, 57, 37
1, 2923, Note_on_c, 0, 69, 59
1, 3059, Note_off_c, 0, 69, 59
1, 3076, Note_on_c, 0, 67, 56
1, 3221, Note_on_c, 0, 65, 56
1, 3225, Note_off_c, 0, 67, 55
1, 3336, Note_off_c, 0, 65, 58
1, 3366, Note_on_c, 0, 58, 47
1, 3368, Note_off_c, 0, 62, 48
1, 3369, Note_on_c, 0, 67, 52
1, 3521, Note_on_c, 0, 65, 50
1, 3625, Note_off_c, 0, 65, 61
1, 3642, Note_on_c, 0, 64, 54
1, 3770, Note_off_c, 0, 64, 60
1, 3791, Note_on_c, 0, 62, 51
1, 3901, Note_off_c, 0, 58, 61
1, 3933, Note_on_c, 0, 64, 40
1, 3947, Note_off_c, 0, 62, 53
1, 3950, Note_on_c, 0, 55, 36
1, 4072, Note_on_c, 0, 58, 51
1, 4107, Note_off_c, 0, 55, 40
1, 4223, Note_on_c, 0, 60, 61
1, 4230, Note_off_c, 0, 58, 58
1, 4236, Note_off_c, 0, 70, 31
1, 4348, Note_on_c, 0, 62, 66
1, 4356, Note_off_c, 0, 60, 58
1, 4397, Note_off_c, 0, 64, 52
1, 4443, Note_off_c, 0, 67, 56
1, 4489, Note_on_c, 0, 60, 69
1, 4498, Note_off_c, 0, 62, 58
1, 4576, Note_off_c, 0, 53, 35
1, 4617, Note_on_c, 0, 58, 69
1, 4633, Note_off_c, 0, 60, 59
1, 4767, Note_off_c, 0, 58, 65
1, 4768, Note_on_c, 0, 57, 74
1, 4898, Note_off_c, 0, 57, 61
1, 4903, Note_on_c, 0, 55, 69
1, 5039, Note_off_c, 0, 55, 64
1, 5048, Note_on_c, 0, 57, 64
1, 5049, Note_on_c, 0, 69, 79
1, 5065, Note_on_c, 0, 60, 55
1, 5065, Note_on_c, 0, 65, 55
1, 5175, Note_on_c, 0, 55, 64
1, 5316, Note_on_c, 0, 53, 65
1, 5327, Note_off_c, 0, 57, 23
1, 5342, Note_off_c, 0, 55, 55
1, 5379, Note_off_c, 0, 60, 51
1, 5460, Note_off_c, 0, 53, 64
1, 5461, Note_on_c, 0, 52, 69
1, 5587, Note_off_c, 0, 52, 66
1, 5607, Note_on_c, 0, 53, 67
1, 5612, Note_on_c, 0, 68, 72
1, 5624, Note_on_c, 0, 62, 54
1, 5666, Note_off_c, 0, 69, 57
1, 5747, Note_on_c, 0, 50, 61
1, 5892, Note_off_c, 0, 50, 61
1, 5905, Note_on_c, 0, 48, 62
1, 5948, Note_off_c, 0, 62, 54
1, 5958, Note_off_c, 0, 65, 26
1, 6041, Note_on_c, 0, 47, 60
1, 6043, Note_off_c, 0, 48, 56
1, 6070, Note_off_c, 0, 53, 40
1, 6196, Note_off_c, 0, 68, 61
1, 6200, Note_on_c, 0, 48, 59
1, 6205, Note_on_c, 0, 65, 59
1, 6207, Note_off_c, 0, 47, 59
1, 6223, Note_on_c, 0, 60, 37
1, 6342, Note_on_c, 0, 68, 69
1, 6344, Note_on_c, 0, 53, 62
1, 6344, Note_off_c, 0, 65, 63
1, 6458, Note_off_c, 0, 60, 38
1, 6463, Note_off_c, 0, 53, 62
1, 6478, Note_off_c, 0, 68, 58
1, 6486, Note_on_c, 0, 67, 60
1, 6487, Note_on_c, 0, 52, 62
1, 6613, Note_off_c, 0, 52, 59
1, 6616, Note_off_c, 0, 67, 59
1, 6624, Note_on_c, 0, 65, 62
1, 6629, Note_on_c, 0, 50, 53
1, 6759, Note_off_c, 0, 50, 57
1, 6761, Note_on_c, 0, 67, 62
1, 6761, Note_off_c, 0, 65, 60
1, 6776, Note_on_c, 0, 52, 50
1, 6927, Note_on_c, 0, 65, 44
1, 7059, Note_off_c, 0, 65, 59
1, 7061, Note_on_c, 0, 55, 43
1, 7074, Note_on_c, 0, 64, 52
1, 7133, Note_off_c, 0, 52, 33
1, 7186, Note_off_c, 0, 64, 61
1, 7212, Note_on_c, 0, 62, 49
1, 7342, Note_off_c, 0, 62, 57
1, 7355, Note_on_c, 0, 64, 50
1, 7357, Note_off_c, 0, 67, 49
1, 7360, Note_off_c, 0, 55, 58
1, 7375, Note_on_c, 0, 60, 46
1, 7388, Note_off_c, 0, 48, 60
1, 7500, Note_on_c, 0, 50, 49
1, 7604, Note_off_c, 0, 50, 62
1, 7634, Note_on_c, 0, 48, 56
1, 7640, Note_on_c, 0, 55, 48
1, 7742, Note_off_c, 0, 60, 53
1, 7766, Note_off_c, 0, 48, 62
1, 7780, Note_on_c, 0, 46, 62
1, 7788, Note_off_c, 0, 64, 59
1, 7897, Note_off_c, 0, 55, 24
1, 7907, Note_off_c, 0, 46, 56
1, 7923, Note_on_c, 0, 45, 59
1, 8075, Note_on_c, 0, 60, 49
1, 8197, Note_off_c, 0, 45, 62
1, 8212, Note_off_c, 0, 60, 54
1, 8215, Note_on_c, 0, 55, 45
1, 8224, Note_on_c, 0, 62, 56
1, 8351, Note_on_c, 0, 63, 67
1, 8368, Note_off_c, 0, 62, 53
1, 8487, Note_off_c, 0, 55, 58
1, 8502, Note_on_c, 0, 50, 51
1, 8504, Note_on_c, 0, 54, 54
1, 8505, Note_on_c, 0, 62, 70
1, 8505, Note_off_c, 0, 63, 65
1, 8640, Note_on_c, 0, 64, 64
1, 8772, Note_on_c, 0, 66, 71
1, 8784, Note_on_c, 0, 58, 62
1, 8799, Note_off_c, 0, 64, 59
1, 8909, Note_on_c, 0, 67, 73
1, 8928, Note_off_c, 0, 66, 64
1, 9011, Note_off_c, 0, 54, 57
1, 9061, Note_on_c, 0, 57, 62
1, 9061, Note_on_c, 0, 66, 73
1, 9072, Note_off_c, 0, 67, 59
1, 9074, Note_off_c, 0, 58, 52
1, 9205, Note_on_c, 0, 69, 70
1, 9292, Note_off_c, 0, 50, 58
1, 9350, Note_on_c, 0, 70, 75
1, 9407, Note_off_c, 0, 69, 56
1, 9493, Note_on_c, 0, 72, 75
1, 9568, Note_off_c, 0, 70, 55
1, 9633, Note_on_c, 0, 43, 57
1, 9742, Note_off_c, 0, 57, 28
1, 9768, Note_off_c, 0, 66, 60
1, 9790, Note_on_c, 0, 69, 60
1, 9927, Note_off_c, 0, 69, 54
1, 9933, Note_on_c, 0, 50, 49
1, 9944, Note_on_c, 0, 67, 57
1, 9998, Note_off_c, 0, 72, 49
1, 10077, Note_on_c, 0, 66, 63
1, 10103, Note_off_c, 0, 67, 57
1, 10223, Note_on_c, 0, 46, 55
1, 10223, Note_on_c, 0, 67, 65
1, 10229, Note_off_c, 0, 43, 39
1, 10231, Note_off_c, 0, 50, 55
1, 10283, Note_off_c, 0, 62, 32
1, 10345, Note_off_c, 0, 66, 25
1, 10361, Note_on_c, 0, 69, 63
1, 10382, Note_off_c, 0, 67, 48
1, 10490, Note_on_c, 0, 70, 61
1, 10500, Note_on_c, 0, 55, 50
1, 10508, Note_off_c, 0, 46, 53
1, 10519, Note_off_c, 0, 69, 61
1, 10630, Note_on_c, 0, 67, 52
1, 10733, Note_off_c, 0, 67, 61
1, 10783, Note_on_c, 0, 62, 50
1, 10784, Note_on_c, 0, 43, 42
1, 10785, Note_off_c, 0, 55, 51
1, 10902, Note_off_c, 0, 62, 56
1, 10925, Note_on_c, 0, 65, 45
1, 11033, Note_off_c, 0, 43, 42
1, 11063, Note_on_c, 0, 55, 47
1, 11096, Note_on_c, 0, 64, 43
1, 11158, Note_off_c, 0, 65, 25
1, 11205, Note_on_c, 0, 62, 48
1, 11214, Note_off_c, 0, 64, 55
1, 11345, Note_on_c, 0, 48, 46
1, 11354, Note_off_c, 0, 55, 38
1, 11357, Note_off_c, 0, 62, 57
1, 11363, Note_on_c, 0, 64, 53
1, 11502, Note_on_c, 0, 58, 57
1, 11641, Note_on_c, 0, 60, 56
1, 11655, Note_off_c, 0, 70, 25
1, 11745, Note_off_c, 0, 58, 46
1, 11759, Note_off_c, 0, 64, 31
1, 11763, Note_on_c, 0, 61, 68
1, 11785, Note_off_c, 0, 60, 58
1, 11820, Note_off_c, 0, 48, 39
1, 11924, Note_off_c, 0, 61, 60
1, 11927, Note_on_c, 0, 60, 56
1, 11935, Note_on_c, 0, 52, 56
1, 12071, Note_on_c, 0, 62, 60
1, 12222, Note_on_c, 0, 64, 64
1, 12223, Note_off_c, 0, 62, 57
1, 12346, Note_on_c, 0, 65, 74
1, 12360, Note_off_c, 0, 64, 58
1, 12485, Note_off_c, 0, 52, 58
1, 12487, Note_off_c, 0, 65, 64
1, 12493, Note_on_c, 0, 48, 59
1, 12498, Note_on_c, 0, 64, 74
1, 12637, Note_on_c, 0, 67, 70
1, 12770, Note_on_c, 0, 69, 70
1, 12806, Note_off_c, 0, 67, 54
1, 12909, Note_on_c, 0, 70, 71
1, 12946, Note_off_c, 0, 69, 60
1, 13021, Note_off_c, 0, 48, 42
1, 13066, Note_on_c, 0, 53, 53
1, 13128, Note_off_c, 0, 64, 44
1, 13218, Note_on_c, 0, 67, 48
1, 13361, Note_off_c, 0, 67, 51
1, 13372, Note_on_c, 0, 65, 48
1, 13393, Note_off_c, 0, 60, 15
1, 13513, Note_on_c, 0, 64, 48
1, 13516, Note_off_c, 0, 65, 57
1, 13664, Note_on_c, 0, 65, 52
1, 13666, Note_on_c, 0, 57, 43
1, 13802, Note_on_c, 0, 67, 52
1, 13807, Note_off_c, 0, 65, 48
1, 13837, Note_off_c, 0, 64, 17
1, 13891, Note_off_c, 0, 70, 35
1, 13952, Note_on_c, 0, 69, 54
1, 14000, Note_off_c, 0, 67, 46
1, 14102, Note_on_c, 0, 65, 49
1, 14241, Note_on_c, 0, 60, 54
1, 14330, Note_off_c, 0, 53, 60
1, 14349, Note_off_c, 0, 57, 43
1, 14375, Note_on_c, 0, 63, 55
1, 14377, Note_off_c, 0, 65, 57
1, 14379, Note_off_c, 0, 60, 61
1, 14528, Note_on_c, 0, 62, 56
1, 14579, Note_off_c, 0, 63, 64
1, 14620, Note_off_c, 0, 69, 63
1, 14636, Note_off_c, 0, 62, 59
1, 14656, Note_on_c, 0, 60, 57
1, 14797, Note_off_c, 0, 60, 56
1, 14806, Note_on_c, 0, 62, 55
1, 14809, Note_on_c, 0, 58, 57
1, 14938, Note_on_c, 0, 72, 59
1, 15077, Note_on_c, 0, 57, 59
1, 15082, Note_off_c, 0, 58, 56
1, 15092, Note_on_c, 0, 74, 65
1, 15123, Note_off_c, 0, 72, 59
1, 15145, Note_off_c, 0, 62, 45
1, 15238, Note_on_c, 0, 75, 70
1, 15267, Note_off_c, 0, 74, 60
1, 15380, Note_on_c, 0, 58, 65
1, 15385, Note_on_c, 0, 74, 75
1, 15406, Note_off_c, 0, 75, 41
1, 15424, Note_off_c, 0, 57, 50
1, 15510, Note_on_c, 0, 72, 74
1, 15528, Note_off_c, 0, 74, 61
1, 15658, Note_on_c, 0, 62, 56
1, 15659, Note_on_c, 0, 70, 65
1, 15662, Note_on_c, 0, 67, 59
1, 15723, Note_off_c, 0, 72, 61
1, 15760, Note_off_c, 0, 70, 64
1, 15776, Note_on_c, 0, 69, 66
1, 15934, Note_on_c, 0, 70, 70
1, 15943, Note_off_c, 0, 69, 59
1, 15997, Note_off_c, 0, 67, 53
1, 16086, Note_on_c, 0, 69, 65
1, 16228, Note_off_c, 0, 69, 58
1, 16233, Note_on_c, 0, 67, 69
1, 16370, Note_on_c, 0, 65, 69
1, 16370, Note_off_c, 0, 67, 54
1, 16519, Note_on_c, 0, 76, 80
1, 16522, Note_off_c, 0, 70, 54
1, 16525, Note_off_c, 0, 65, 62
1, 16527, Note_on_c, 0, 67, 68
1, 16529, Note_on_c, 0, 72, 59
1, 16535, Note_off_c, 0, 62, 55
1, 16539, Note_off_c, 0, 58, 63
1, 16673, Note_on_c, 0, 58, 67
1, 16815, Note_on_c, 0, 60, 73
1, 16825, Note_off_c, 0, 58, 61
1, 16935, Note_on_c, 0, 62, 72
1, 16939, Note_off_c, 0, 60, 60
1, 17070, Note_on_c, 0, 60, 69
1, 17078, Note_off_c, 0, 62, 60
1, 17192, Note_on_c, 0, 58, 65
1, 17194, Note_off_c, 0, 60, 59
1, 17330, Note_off_c, 0, 58, 65
1, 17339, Note_on_c, 0, 57, 65
1, 17409, Note_off_c, 0, 67, 53
1, 17410, Note_off_c, 0, 76, 54
1, 17459, Note_off_c, 0, 57, 59
1, 17478, Note_on_c, 0, 55, 62
1, 17618, Note_off_c, 0, 55, 63
1, 17626, Note_on_c, 0, 77, 68
1, 17638, Note_on_c, 0, 57, 58
1, 17639, Note_on_c, 0, 65, 55
1, 17766, Note_on_c, 0, 55, 53
1, 17770, Note_off_c, 0, 57, 48
1, 17894, Note_off_c, 0, 55, 56
1, 17900, Note_on_c, 0, 53, 59
1, 17961, Note_off_c, 0, 65, 50
1, 18029, Note_off_c, 0, 53, 58
1, 18041, Note_on_c, 0, 52, 61
1, 18053, Note_off_c, 0, 72, 63
1, 18187, Note_off_c, 0, 52, 58
1, 18196, Note_on_c, 0, 50, 55
1, 18243, Note_off_c, 0, 77, 53
1, 18357, Note_on_c, 0, 76, 60
1, 18494, Note_on_c, 0, 57, 59
1, 18499, Note_on_c, 0, 77, 70
1, 18515, Note_off_c, 0, 76, 57
1, 18631, Note_on_c, 0, 79, 71
1, 18661, Note_off_c, 0, 77, 57
1, 18774, Note_on_c, 0, 62, 63
1, 18775, Note_on_c, 0, 77, 78
1, 18779, Note_off_c, 0, 50, 52
1, 18903, Note_off_c, 0, 79, 37
1, 18918, Note_on_c, 0, 76, 76
1, 18953, Note_off_c, 0, 77, 55
1, 19052, Note_on_c, 0, 74, 76
1, 19072, Note_off_c, 0, 76, 60
1, 19074, Note_on_c, 0, 52, 60
1, 19192, Note_on_c, 0, 72, 75
1, 19195, Note_off_c, 0, 74, 61
1, 19336, Note_on_c, 0, 74, 71
1, 19337, Note_off_c, 0, 72, 61
1, 19343, Note_off_c, 0, 52, 58
1, 19344, Note_on_c, 0, 53, 56
1, 19466, Note_on_c, 0, 72, 71
1, 19488, Note_off_c, 0, 74, 60
1, 19604, Note_on_c, 0, 71, 72
1, 19615, Note_off_c, 0, 72, 56
1, 19618, Note_off_c, 0, 57, 51
1, 19745, Note_on_c, 0, 69, 73
1, 19749, Note_off_c, 0, 71, 59
1, 19896, Note_off_c, 0, 69, 60
1, 19898, Note_on_c, 0, 71, 69
1, 19916, Note_on_c, 0, 55, 43
1, 20041, Note_on_c, 0, 69, 60
1, 20184, Note_off_c, 0, 69, 55
1, 20190, Note_on_c, 0, 67, 57
1, 20309, Note_off_c, 0, 67, 60
1, 20335, Note_on_c, 0, 65, 54
1, 20456, Note_off_c, 0, 65, 63
1, 20472, Note_on_c, 0, 67, 60
1, 20611, Note_on_c, 0, 65, 58
1, 20676, Note_off_c, 0, 62, 37
1, 20738, Note_off_c, 0, 67, 54
1, 20747, Note_off_c, 0, 65, 60
1, 20753, Note_on_c, 0, 64, 57
1, 20873, Note_off_c, 0, 71, 52
1, 20876, Note_off_c, 0, 64, 62
1, 20880, Note_off_c, 0, 55, 41
1, 20881, Note_off_c, 0, 53, 61
1, 20884, Note_on_c, 0, 62, 69
1, 21032, Note_on_c, 0, 67, 52
1, 21035, Note_on_c, 0, 72, 58
1, 21037, Note_off_c, 0, 62, 50
1, 21041, Note_on_c, 0, 52, 50
1, 21041, Note_on_c, 0, 64, 45
1, 21193, Note_on_c, 0, 59, 55
1, 21323, Note_on_c, 0, 60, 69
1, 21341, Note_off_c, 0, 59, 54
1, 21440, Note_on_c, 0, 62, 70
1, 21451, Note_off_c, 0, 60, 58
1, 21513, Note_off_c, 0, 64, 37
1, 21531, Note_off_c, 0, 72, 56
1, 21569, Note_off_c, 0, 67, 36
1, 21574, Note_on_c, 0, 60, 72
1, 21597, Note_off_c, 0, 62, 59
1, 21612, Note_off_c, 0, 52, 36
1, 21703, Note_on_c, 0, 59, 69
1, 21727, Note_off_c, 0, 60, 56
1, 21842, Note_off_c, 0, 59, 63
1, 21844, Note_on_c, 0, 57, 74
1, 21985, Note_on_c, 0, 55, 72
1, 21985, Note_off_c, 0, 57, 61
1, 22128, Note_off_c, 0, 55, 63
1, 22133, Note_on_c, 0, 65, 74
1, 22135, Note_on_c, 0, 57, 62
1, 22266, Note_on_c, 0, 55, 64
1, 22418, Note_off_c, 0, 55, 62
1, 22420, Note_on_c, 0, 53, 67
1, 22423, Note_on_c, 0, 72, 76
1, 22548, Note_off_c, 0, 53, 64
1, 22554, Note_on_c, 0, 52, 68
1, 22709, Note_on_c, 0, 74, 79
1, 22711, Note_off_c, 0, 52, 65
1, 22717, Note_on_c, 0, 53, 70
1, 22774, Note_off_c, 0, 72, 56
1, 22854, Note_on_c, 0, 52, 66
1, 22870, Note_off_c, 0, 53, 59
1, 23000, Note_on_c, 0, 50, 67
1, 23004, Note_on_c, 0, 77, 85
1, 23009, Note_off_c, 0, 52, 64
1, 23078, Note_off_c, 0, 74, 60
1, 23126, Note_on_c, 0, 48, 68
1, 23129, Note_off_c, 0, 50, 58
1, 23296, Note_on_c, 0, 50, 68
1, 23298, Note_off_c, 0, 48, 60
1, 23299, Note_on_c, 0, 71, 80
1, 23308, Note_off_c, 0, 57, 52
1, 23320, Note_off_c, 0, 77, 52
1, 23431, Note_on_c, 0, 48, 67
1, 23494, Note_off_c, 0, 50, 34
1, 23574, Note_off_c, 0, 48, 62
1, 23579, Note_on_c, 0, 47, 66
1, 23590, Note_on_c, 0, 72, 75
1, 23612, Note_off_c, 0, 71, 54
1, 23704, Note_off_c, 0, 47, 61
1, 23717, Note_on_c, 0, 45, 62
1, 23868, Note_off_c, 0, 45, 53
1, 23874, Note_on_c, 0, 47, 58
1, 23879, Note_off_c, 0, 65, 56
1, 23881, Note_on_c, 0, 55, 53
1, 23889, Note_off_c, 0, 72, 57
1, 23890, Note_on_c, 0, 74, 68
1, 24044, Note_on_c, 0, 65, 56
1, 24166, Note_on_c, 0, 43, 51
1, 24184, Note_off_c, 0, 47, 35
1, 24191, Note_off_c, 0, 65, 58
1, 24194, Note_on_c, 0, 64, 65
1, 24270, Note_off_c, 0, 74, 32
1, 24314, Note_on_c, 0, 62, 65
1, 24341, Note_off_c, 0, 64, 60
1, 24465, Note_on_c, 0, 64, 70
1, 24476, Note_on_c, 0, 48, 57
1, 24483, Note_off_c, 0, 43, 53
1, 24483, Note_off_c, 0, 62, 56
1, 24601, Note_on_c, 0, 67, 72
1, 24733, Note_on_c, 0, 69, 76
1, 24740, Note_off_c, 0, 67, 61
1, 24748, Note_on_c, 0, 47, 64
1, 24803, Note_off_c, 0, 48, 37
1, 24829, Note_off_c, 0, 55, 36
1, 24868, Note_on_c, 0, 71, 75
1, 24882, Note_off_c, 0, 69, 60
1, 25034, Note_on_c, 0, 72, 78
1, 25036, Note_off_c, 0, 71, 58
1, 25037, Note_on_c, 0, 57, 60
1, 25040, Note_off_c, 0, 64, 61
1, 25049, Note_off_c, 0, 47, 49
1, 25050, Note_on_c, 0, 45, 55
1, 25189, Note_on_c, 0, 64, 62
1, 25272, Note_off_c, 0, 57, 37
1, 25321, Note_on_c, 0, 43, 60
1, 25323, Note_on_c, 0, 65, 72
1, 25332, Note_off_c, 0, 64, 56
1, 25369, Note_off_c, 0, 45, 48
1, 25454, Note_on_c, 0, 67, 72
1, 25489, Note_off_c, 0, 65, 56
1, 25600, Note_on_c, 0, 69, 67
1, 25600, Note_on_c, 0, 41, 63
1, 25611, Note_off_c, 0, 67, 59
1, 25627, Note_off_c, 0, 43, 49
1, 25740, Note_on_c, 0, 67, 68
1, 25771, Note_off_c, 0, 69, 52
1, 25885, Note_off_c, 0, 67, 56
1, 25886, Note_on_c, 0, 38, 52
1, 25888, Note_on_c, 0, 65, 63
1, 25898, Note_off_c, 0, 41, 62
1, 26021, Note_off_c, 0, 65, 59
1, 26033, Note_on_c, 0, 64, 58
1, 26065, Note_off_c, 0, 72, 59
1, 26143, Note_off_c, 0, 38, 59
1, 26173, Note_on_c, 0, 43, 52
1, 26176, Note_off_c, 0, 64, 57
1, 26179, Note_on_c, 0, 62, 61
1, 26322, Note_on_c, 0, 65, 61
1, 26364, Note_off_c, 0, 62, 54
1, 26478, Note_on_c, 0, 72, 77
1, 26484, Note_off_c, 0, 65, 65
1, 26489, Note_on_c, 0, 55, 55
1, 26625, Note_on_c, 0, 71, 72
1, 26656, Note_off_c, 0, 72, 56
1, 26787, Note_on_c, 0, 72, 73
1, 26793, Note_off_c, 0, 43, 45
1, 26796, Note_on_c, 0, 48, 53
1, 26808, Note_on_c, 0, 60, 60
1, 26827, Note_off_c, 0, 71, 54
1, 26960, Note_on_c, 0, 65, 60
1, 26976, Note_off_c, 0, 60, 52
1, 27097, Note_on_c, 0, 67, 64
1, 27206, Note_off_c, 0, 65, 29
1, 27243, Note_on_c, 0, 69, 60
1, 27252, Note_off_c, 0, 67, 59
1, 27383, Note_on_c, 0, 67, 57
1, 27407, Note_off_c, 0, 69, 54
1, 27526, Note_on_c, 0, 65, 56
1, 27638, Note_off_c, 0, 65, 61
1, 27663, Note_on_c, 0, 64, 52
1, 27791, Note_off_c, 0, 48, 58
1, 27797, Note_off_c, 0, 64, 59
1, 27813, Note_on_c, 0, 62, 55
1, 27830, Note_off_c, 0, 55, 58
1, 27943, Note_off_c, 0, 62, 60
1, 27960, Note_on_c, 0, 64, 53
1, 28095, Note_off_c, 0, 64, 0
1, 28098, Note_on_c, 0, 62, 45
1, 28131, Poly_aftertouch_c, 0, 64, 127
1, 28218, Note_off_c, 0, 62, 57
1, 28225, Poly_aftertouch_c, 0, 64, 0
1, 28234, Note_on_c, 0, 60, 50
1, 28281, Note_off_c, 0, 67, 57
1, 28298, Note_off_c, 0, 72, 33
1, 28367, Note_off_c, 0, 60, 57
1, 28373, Note_on_c, 0, 59, 56
1, 28513, Note_off_c, 0, 59, 56
1, 28527, Note_on_c, 0, 60, 48
1, 28683, Note_on_c, 0, 71, 47
1, 28795, Note_off_c, 0, 60, 48
1, 28808, Note_on_c, 0, 55, 47
1, 28832, Note_on_c, 0, 72, 60
1, 28845, Note_off_c, 0, 71, 54
1, 28966, Note_on_c, 0, 74, 57
1, 28969, Note_off_c, 0, 72, 58
1, 29094, Note_on_c, 0, 48, 48
1, 29099, Note_on_c, 0, 57, 56
1, 29107, Note_on_c, 0, 72, 66
1, 29113, Note_off_c, 0, 55, 49
1, 29148, Note_off_c, 0, 74, 44
1, 29239, Note_on_c, 0, 71, 67
1, 29271, Note_off_c, 0, 72, 54
1, 29379, Note_on_c, 0, 52, 62
1, 29381, Note_off_c, 0, 57, 57
1, 29386, Note_on_c, 0, 69, 68
1, 29404, Note_off_c, 0, 71, 51
1, 29518, Note_on_c, 0, 67, 71
1, 29523, Note_off_c, 0, 69, 62
1, 29657, Note_on_c, 0, 53, 65
1, 29665, Note_on_c, 0, 69, 71
1, 29673, Note_off_c, 0, 67, 53
1, 29678, Note_off_c, 0, 52, 57
1, 29804, Note_on_c, 0, 67, 67
1, 29813, Note_off_c, 0, 69, 59
1, 29940, Note_on_c, 0, 57, 63
1, 29950, Note_off_c, 0, 53, 58
1, 29954, Note_on_c, 0, 65, 67
1, 29959, Note_off_c, 0, 67, 55
1, 30084, Note_off_c, 0, 65, 62
1, 30089, Note_on_c, 0, 64, 59
1, 30237, Note_off_c, 0, 64, 61
1, 30247, Note_on_c, 0, 65, 62
1, 30250, Note_on_c, 0, 50, 58
1, 30292, Note_off_c, 0, 57, 39
1, 30385, Note_on_c, 0, 64, 50
1, 30528, Note_on_c, 0, 52, 58
1, 30531, Note_off_c, 0, 64, 58
1, 30543, Note_on_c, 0, 62, 53
1, 30554, Note_off_c, 0, 50, 52
1, 30654, Note_off_c, 0, 62, 60
1, 30676, Note_on_c, 0, 60, 51
1, 30802, Note_off_c, 0, 60, 58
1, 30809, Note_off_c, 0, 52, 59
1, 30813, Note_on_c, 0, 53, 54
1, 30821, Note_on_c, 0, 62, 54
1, 30960, Note_on_c, 0, 60, 49
1, 31097, Note_off_c, 0, 60, 56
1, 31109, Note_on_c, 0, 59, 52
1, 31246, Note_on_c, 0, 57, 54
1, 31249, Note_off_c, 0, 59, 53
1, 31380, Note_off_c, 0, 53, 61
1, 31395, Note_off_c, 0, 57, 55
1, 31401, Note_on_c, 0, 59, 50
1, 31559, Note_on_c, 0, 53, 48
1, 31703, Note_on_c, 0, 55, 60
1, 31722, Note_off_c, 0, 53, 53
1, 31848, Note_on_c, 0, 57, 66
1, 31854, Note_off_c, 0, 55, 59
1, 31969, Note_off_c, 0, 48, 41
1, 31985, Note_on_c, 0, 55, 65
1, 32007, Note_off_c, 0, 65, 41
1, 32029, Note_off_c, 0, 57, 58
1, 32123, Note_on_c, 0, 53, 66
1, 32131, Note_off_c, 0, 55, 57
1, 32263, Note_off_c, 0, 53, 66
1, 32272, Note_on_c, 0, 52, 71
1, 32399, Note_off_c, 0, 52, 64
1, 32403, Note_on_c, 0, 50, 69
1, 32545, Note_on_c, 0, 64, 75
1, 32545, Note_off_c, 0, 50, 62
1, 32552, Note_on_c, 0, 52, 64
1, 32559, Note_on_c, 0, 60, 56
1, 32570, Note_on_c, 0, 55, 51
1, 32611, Note_off_c, 0, 62, 52
1, 32667, Note_off_c, 0, 59, 8
1, 32690, Note_on_c, 0, 50, 62
1, 32837, Note_on_c, 0, 48, 71
1, 32842, Note_off_c, 0, 50, 59
1, 32875, Note_off_c, 0, 52, 18
1, 32891, Note_off_c, 0, 60, 60
1, 32927, Note_off_c, 0, 55, 59
1, 32972, Note_off_c, 0, 48, 60
1, 32981, Note_on_c, 0, 47, 70
1, 33121, Note_off_c, 0, 47, 64
1, 33133, Note_on_c, 0, 63, 79
1, 33138, Note_on_c, 0, 48, 69
1, 33151, Note_on_c, 0, 57, 55
1, 33154, Note_on_c, 0, 60, 57
1, 33196, Note_off_c, 0, 64, 53
1, 33279, Note_on_c, 0, 45, 62
1, 33419, Note_on_c, 0, 43, 64
1, 33420, Note_off_c, 0, 45, 61
1, 33469, Note_off_c, 0, 57, 55
1, 33485, Note_off_c, 0, 60, 34
1, 33553, Note_off_c, 0, 48, 31
1, 33561, Note_on_c, 0, 42, 69
1, 33579, Note_off_c, 0, 43, 52
1, 33703, Note_off_c, 0, 42, 64
1, 33705, Note_on_c, 0, 43, 61
1, 33723, Note_on_c, 0, 55, 56
1, 33723, Note_off_c, 0, 63, 63
1, 33725, Note_on_c, 0, 60, 66
1, 33850, Note_on_c, 0, 63, 71
1, 33867, Note_on_c, 0, 48, 65
1, 33875, Note_off_c, 0, 60, 53
1, 33995, Note_off_c, 0, 55, 41
1, 33996, Note_off_c, 0, 48, 64
1, 34000, Note_on_c, 0, 62, 68
1, 34000, Note_off_c, 0, 63, 59
1, 34005, Note_on_c, 0, 47, 69
1, 34133, Note_off_c, 0, 47, 60
1, 34135, Note_off_c, 0, 62, 60
1, 34138, Note_on_c, 0, 60, 67
1, 34144, Note_on_c, 0, 45, 59
1, 34288, Note_off_c, 0, 60, 60
1, 34290, Note_on_c, 0, 62, 67
1, 34293, Note_off_c, 0, 45, 56
1, 34297, Note_on_c, 0, 47, 62
1, 34433, Note_on_c, 0, 60, 49
1, 34573, Note_on_c, 0, 50, 52
1, 34577, Note_off_c, 0, 47, 54
1, 34581, Note_off_c, 0, 60, 57
1, 34589, Note_on_c, 0, 59, 55
1, 34710, Note_off_c, 0, 59, 59
1, 34732, Note_on_c, 0, 57, 47
1, 34874, Note_off_c, 0, 57, 56
1, 34879, Note_on_c, 0, 59, 54
1, 34891, Note_on_c, 0, 55, 50
1, 34904, Note_off_c, 0, 50, 58
1, 34910, Note_off_c, 0, 62, 37
1, 34929, Note_off_c, 0, 43, 59
1, 35038, Note_on_c, 0, 45, 52
1, 35148, Note_off_c, 0, 45, 59
1, 35172, Note_on_c, 0, 43, 58
1, 35172, Note_on_c, 0, 50, 53
1, 35288, Note_off_c, 0, 43, 58
1, 35298, Note_on_c, 0, 41, 61
1, 35330, Note_off_c, 0, 55, 38
1, 35422, Note_off_c, 0, 59, 57
1, 35437, Note_off_c, 0, 41, 63
1, 35461, Note_on_c, 0, 40, 53
1, 35509, Note_off_c, 0, 50, 38
1, 35616, Note_on_c, 0, 55, 47
1, 35737, Note_off_c, 0, 40, 58
1, 35752, Note_off_c, 0, 55, 57
1, 35759, Note_on_c, 0, 57, 58
1, 35765, Note_on_c, 0, 50, 52
1, 35887, Note_on_c, 0, 58, 65
1, 35896, Note_off_c, 0, 57, 54
1, 36024, Note_off_c, 0, 50, 62
1, 36033, Note_on_c, 0, 57, 67
1, 36036, Note_on_c, 0, 49, 62
1, 36036, Note_off_c, 0, 58, 65
1, 36041, Note_on_c, 0, 45, 56
1, 36173, Note_on_c, 0, 59, 68
1, 36311, Note_on_c, 0, 61, 72
1, 36319, Note_on_c, 0, 53, 67
1, 36336, Note_off_c, 0, 59, 54
1, 36451, Note_on_c, 0, 62, 74
1, 36469, Note_off_c, 0, 61, 60
1, 36582, Note_off_c, 0, 49, 55
1, 36598, Note_off_c, 0, 53, 64
1, 36601, Note_on_c, 0, 52, 72
1, 36606, Note_on_c, 0, 61, 74
1, 36615, Note_off_c, 0, 62, 62
1, 36743, Note_on_c, 0, 64, 74
1, 36794, Note_off_c, 0, 45, 60
1, 36902, Note_on_c, 0, 65, 78
1, 36938, Note_off_c, 0, 64, 62
1, 37044, Note_on_c, 0, 67, 81
1, 37120, Note_off_c, 0, 65, 56
1, 37176, Note_on_c, 0, 38, 60
1, 37221, Note_off_c, 0, 52, 40
1, 37301, Note_off_c, 0, 61, 51
1, 37334, Note_on_c, 0, 64, 64
1, 37474, Note_off_c, 0, 64, 58
1, 37475, Note_on_c, 0, 45, 55
1, 37479, Note_on_c, 0, 62, 59
1, 37613, Note_off_c, 0, 62, 57
1, 37618, Note_on_c, 0, 61, 57
1, 37748, Note_off_c, 0, 45, 62
1, 37755, Note_off_c, 0, 67, 52
1, 37759, Note_on_c, 0, 62, 61
1, 37770, Note_on_c, 0, 41, 57
1, 37783, Note_off_c, 0, 61, 51
1, 37827, Note_off_c, 0, 38, 31
1, 37901, Note_on_c, 0, 64, 61
1, 37979, Note_off_c, 0, 62, 36
1, 38042, Note_on_c, 0, 65, 64
1, 38063, Note_on_c, 0, 50, 53
1, 38084, Note_off_c, 0, 64, 56
1, 38129, Note_off_c, 0, 41, 36
1, 38166, Note_off_c, 0, 57, 49
1, 38195, Note_on_c, 0, 62, 53
1, 38308, Note_off_c, 0, 62, 58
1, 38329, Note_on_c, 0, 38, 47
1, 38331, Note_on_c, 0, 57, 46
1, 38359, Note_off_c, 0, 50, 49
1, 38458, Note_off_c, 0, 57, 55
1, 38480, Note_on_c, 0, 60, 54
1, 38602, Note_off_c, 0, 60, 54
1, 38609, Note_off_c, 0, 38, 51
1, 38624, Note_on_c, 0, 59, 50
1, 38631, Note_on_c, 0, 50, 48
1, 38752, Note_on_c, 0, 57, 53
1, 38753, Note_off_c, 0, 59, 54
1, 38912, Note_on_c, 0, 43, 45
1, 38922, Note_off_c, 0, 57, 54
1, 38923, Note_on_c, 0, 59, 49
1, 38923, Note_off_c, 0, 50, 37
1, 39048, Note_on_c, 0, 53, 54
1, 39205, Note_on_c, 0, 55, 64
1, 39293, Note_off_c, 0, 53, 37
1, 39336, Note_off_c, 0, 59, 56
1, 39348, Note_on_c, 0, 56, 68
1, 39357, Note_off_c, 0, 55, 61
1, 39371, Note_off_c, 0, 43, 42
1, 39490, Note_on_c, 0, 55, 59
1, 39490, Note_off_c, 0, 56, 61
1, 39503, Note_on_c, 0, 47, 56
1, 39603, Note_off_c, 0, 65, 31
1, 39635, Note_on_c, 0, 57, 60
1, 39774, Note_on_c, 0, 59, 67
1, 39778, Note_off_c, 0, 57, 57
1, 39912, Note_on_c, 0, 60, 71
1, 39936, Note_off_c, 0, 59, 55
1, 40054, Note_on_c, 0, 43, 59
1, 40057, Note_on_c, 0, 59, 72
1, 40057, Note_off_c, 0, 60, 61
1, 40061, Note_off_c, 0, 47, 51
1, 40188, Note_on_c, 0, 62, 64
1, 40331, Note_on_c, 0, 64, 69
1, 40375, Note_off_c, 0, 62, 54
1, 40466, Note_on_c, 0, 65, 69
1, 40510, Note_off_c, 0, 64, 56
1, 40606, Note_off_c, 0, 43, 35
1, 40630, Note_on_c, 0, 48, 57
1, 40764, Note_off_c, 0, 59, 54
1, 40768, Note_on_c, 0, 62, 54
1, 40903, Note_off_c, 0, 62, 57
1, 40919, Note_on_c, 0, 60, 56
1, 41044, Note_off_c, 0, 60, 58
1, 41046, Note_on_c, 0, 59, 53
1, 41186, Note_off_c, 0, 55, 57
1, 41202, Note_on_c, 0, 52, 46
1, 41205, Note_on_c, 0, 60, 46
1, 41331, Note_off_c, 0, 60, 56
1, 41332, Note_on_c, 0, 62, 58
1, 41336, Note_off_c, 0, 59, 20
1, 41404, Note_off_c, 0, 65, 49
1, 41478, Note_on_c, 0, 64, 53
1, 41503, Note_off_c, 0, 62, 47
1, 41623, Note_on_c, 0, 60, 52
1, 41760, Note_on_c, 0, 55, 47
1, 41856, Note_off_c, 0, 48, 59
1, 41882, Note_off_c, 0, 52, 44
1, 41892, Note_on_c, 0, 58, 57
1, 41910, Note_off_c, 0, 60, 52
1, 41912, Note_off_c, 0, 55, 64
1, 42034, Note_on_c, 0, 57, 53
1, 42078, Note_off_c, 0, 58, 62
1, 42154, Note_off_c, 0, 57, 60
1, 42169, Note_on_c, 0, 55, 62
1, 42193, Note_off_c, 0, 64, 63
1, 42321, Note_off_c, 0, 55, 60
1, 42334, Note_on_c, 0, 53, 60
1, 42335, Note_on_c, 0, 57, 55
1, 42479, Note_on_c, 0, 67, 61
1, 42602, Note_off_c, 0, 53, 58
1, 42614, Note_on_c, 0, 52, 67
1, 42624, Note_on_c, 0, 69, 72
1, 42653, Note_off_c, 0, 67, 55
1, 42657, Note_off_c, 0, 57, 42
1, 42754, Note_on_c, 0, 70, 73
1, 42771, Note_off_c, 0, 69, 61
1, 42901, Note_on_c, 0, 69, 73
1, 42902, Note_off_c, 0, 70, 55
1, 42907, Note_on_c, 0, 53, 69
1, 42933, Note_off_c, 0, 52, 55
1, 43048, Note_on_c, 0, 67, 70
1, 43091, Note_off_c, 0, 69, 59
1, 43192, Note_on_c, 0, 57, 58
1, 43194, Note_on_c, 0, 65, 70
1, 43195, Control_c, 0, 64, 52
1, 43205, Note_on_c, 0, 62, 53
1, 43210, Control_c, 0, 64, 65
1, 43222, Note_off_c, 0, 67, 59
1, 43225, Control_c, 0, 64, 70
1, 43240, Control_c, 0, 64, 76
1, 43255, Control_c, 0, 64, 80
1, 43264, Note_off_c, 0, 65, 63
1, 43271, Control_c, 0, 64, 81
1, 43286, Control_c, 0, 64, 81
1, 43337, Note_on_c, 0, 64, 71
1, 43346, Control_c, 0, 64, 81
1, 43360, Control_c, 0, 64, 80
1, 43375, Control_c, 0, 64, 78
1, 43390, Control_c, 0, 64, 75
1, 43405, Control_c, 0, 64, 69
1, 43420, Control_c, 0, 64, 61
1, 43435, Control_c, 0, 64, 0
1, 43468, Note_off_c, 0, 64, 63
1, 43468, Note_on_c, 0, 65, 74
1, 43523, Note_off_c, 0, 62, 31
1, 43617, Note_on_c, 0, 64, 63
1, 43742, Note_off_c, 0, 64, 61
1, 43754, Note_on_c, 0, 62, 65
1, 43868, Note_off_c, 0, 62, 57
1, 43882, Note_on_c, 0, 60, 66
1, 44009, Note_off_c, 0, 60, 60
1, 44019, Note_off_c, 0, 65, 62
1, 44024, Note_on_c, 0, 71, 69
1, 44029, Note_on_c, 0, 67, 59
1, 44031, Note_off_c, 0, 57, 57
1, 44031, Note_on_c, 0, 62, 70
1, 44040, Note_off_c, 0, 53, 66
1, 44186, Note_on_c, 0, 53, 66
1, 44325, Note_on_c, 0, 55, 70
1, 44366, Note_off_c, 0, 53, 57
1, 44459, Note_on_c, 0, 57, 71
1, 44463, Note_off_c, 0, 55, 61
1, 44599, Note_on_c, 0, 55, 65
1, 44601, Note_off_c, 0, 57, 62
1, 44727, Note_on_c, 0, 53, 70
1, 44740, Note_off_c, 0, 55, 54
1, 44862, Note_off_c, 0, 53, 66
1, 44875, Note_on_c, 0, 52, 74
1, 44939, Note_off_c, 0, 71, 49
1, 44943, Note_off_c, 0, 62, 54
1, 44992, Note_off_c, 0, 52, 64
1, 45003, Note_on_c, 0, 50, 67
1, 45162, Note_off_c, 0, 50, 63
1, 45172, Note_on_c, 0, 72, 77
1, 45174, Note_on_c, 0, 52, 65
1, 45185, Note_on_c, 0, 60, 62
1, 45309, Note_on_c, 0, 50, 62
1, 45336, Note_off_c, 0, 60, 53
1, 45388, Note_off_c, 0, 52, 35
1, 45404, Note_off_c, 0, 67, 55
1, 45413, Control_c, 0, 64, 39
1, 45427, Control_c, 0, 64, 54
1, 45442, Control_c, 0, 64, 61
1, 45447, Note_on_c, 0, 48, 68
1, 45447, Note_off_c, 0, 50, 59
1, 45457, Control_c, 0, 64, 63
1, 45471, Control_c, 0, 64, 64
1, 45486, Control_c, 0, 64, 66
1, 45501, Control_c, 0, 64, 67
1, 45516, Control_c, 0, 64, 67
1, 45520, Note_off_c, 0, 72, 58
1, 45531, Control_c, 0, 64, 68
1, 45545, Control_c, 0, 64, 69
1, 45557, Note_off_c, 0, 48, 63
1, 45560, Control_c, 0, 64, 70
1, 45571, Note_on_c, 0, 46, 65
1, 45635, Control_c, 0, 64, 69
1, 45650, Control_c, 0, 64, 69
1, 45665, Control_c, 0, 64, 66
1, 45680, Control_c, 0, 64, 63
1, 45695, Control_c, 0, 64, 51
1, 45709, Control_c, 0, 64, 23
1, 45711, Note_off_c, 0, 46, 58
1, 45724, Control_c, 0, 64, 0
1, 45727, Note_on_c, 0, 45, 64
1, 45739, Note_on_c, 0, 65, 70
1, 45887, Note_on_c, 0, 52, 67
1, 45888, Note_on_c, 0, 72, 72
1, 46021, Note_on_c, 0, 53, 72
1, 46023, Note_on_c, 0, 74, 71
1, 46042, Note_off_c, 0, 52, 51
1, 46055, Note_off_c, 0, 72, 58
1, 46152, Note_on_c, 0, 75, 78
1, 46154, Note_off_c, 0, 74, 60
1, 46157, Note_off_c, 0, 53, 65
1, 46160, Note_on_c, 0, 55, 73
1, 46166, Poly_aftertouch_c, 0, 72, 127
1, 46198, Poly_aftertouch_c, 0, 72, 0
1, 46259, Note_off_c, 0, 45, 40
1, 46291, Note_on_c, 0, 53, 73
1, 46297, Note_off_c, 0, 55, 61
1, 46301, Note_on_c, 0, 74, 74
1, 46303, Note_off_c, 0, 65, 63
1, 46388, Note_off_c, 0, 75, 32
1, 46419, Note_on_c, 0, 52, 69
1, 46420, Note_on_c, 0, 72, 71
1, 46425, Note_off_c, 0, 53, 58
1, 46435, Note_off_c, 0, 74, 59
1, 46561, Note_off_c, 0, 52, 59
1, 46571, Note_on_c, 0, 70, 69
1, 46572, Note_on_c, 0, 50, 69
1, 46579, Note_on_c, 0, 67, 59
1, 46663, Note_off_c, 0, 72, 62
1, 46699, Note_on_c, 0, 48, 71
1, 46699, Note_off_c, 0, 50, 56
1, 46708, Note_off_c, 0, 70, 64
1, 46721, Note_on_c, 0, 69, 75
1, 46825, Note_off_c, 0, 48, 64
1, 46842, Note_on_c, 0, 50, 68
1, 46856, Note_on_c, 0, 70, 78
1, 46869, Note_off_c, 0, 69, 59
1, 46922, Note_off_c, 0, 67, 36
1, 46961, Note_off_c, 0, 50, 61
1, 46973, Note_on_c, 0, 48, 68
1, 46984, Note_on_c, 0, 69, 75
1, 47121, Note_on_c, 0, 46, 70
1, 47126, Note_off_c, 0, 69, 59
1, 47131, Note_off_c, 0, 48, 54
1, 47133, Note_on_c, 0, 67, 74
1, 47249, Note_off_c, 0, 46, 60
1, 47258, Note_off_c, 0, 67, 60
1, 47264, Note_on_c, 0, 45, 64
1, 47269, Note_on_c, 0, 65, 70
1, 47415, Note_off_c, 0, 70, 54
1, 47420, Note_on_c, 0, 43, 65
1, 47421, Control_c, 0, 64, 51
1, 47423, Note_on_c, 0, 76, 85
1, 47426, Note_off_c, 0, 45, 53
1, 47429, Note_on_c, 0, 67, 78
1, 47431, Note_on_c, 0, 72, 67
1, 47432, Note_off_c, 0, 65, 64
1, 47436, Control_c, 0, 64, 63
1, 47451, Control_c, 0, 64, 66
1, 47465, Control_c, 0, 64, 69
1, 47468, Note_off_c, 0, 43, 62
1, 47480, Control_c, 0, 64, 73
1, 47495, Control_c, 0, 64, 76
1, 47510, Control_c, 0, 64, 77
1, 47525, Control_c, 0, 64, 78
1, 47576, Note_on_c, 0, 58, 66
1, 47644, Control_c, 0, 64, 76
1, 47659, Control_c, 0, 64, 74
1, 47673, Control_c, 0, 64, 70
1, 47688, Control_c, 0, 64, 64
1, 47703, Control_c, 0, 64, 44
1, 47715, Note_on_c, 0, 60, 74
1, 47718, Control_c, 0, 64, 0
1, 47725, Note_off_c, 0, 58, 56
1, 47850, Note_on_c, 0, 62, 70
1, 47857, Note_off_c, 0, 60, 60
1, 48003, Note_on_c, 0, 60, 68
1, 48008, Note_off_c, 0, 62, 60
1, 48139, Note_on_c, 0, 58, 68
1, 48146, Note_off_c, 0, 60, 55
1, 48283, Note_off_c, 0, 58, 65
1, 48287, Note_on_c, 0, 57, 67
1, 48365, Note_off_c, 0, 76, 50
1, 48369, Note_off_c, 0, 67, 56
1, 48398, Note_off_c, 0, 57, 60
1, 48410, Note_on_c, 0, 55, 64
1, 48550, Note_off_c, 0, 55, 62
1, 48556, Note_on_c, 0, 77, 84
1, 48562, Note_on_c, 0, 57, 62
1, 48576, Note_on_c, 0, 65, 57
1, 48687, Note_on_c, 0, 55, 61
1, 48792, Control_c, 0, 64, 32
1, 48796, Note_off_c, 0, 65, 56
1, 48807, Control_c, 0, 64, 45
1, 48822, Control_c, 0, 64, 52
1, 48844, Control_c, 0, 64, 56
1, 48847, Note_off_c, 0, 72, 61
1, 48848, Note_on_c, 0, 53, 72
1, 48860, Control_c, 0, 64, 58
1, 48863, Note_off_c, 0, 55, 55
1, 48875, Control_c, 0, 64, 60
1, 48890, Control_c, 0, 64, 61
1, 48905, Control_c, 0, 64, 62
1, 48911, Note_off_c, 0, 57, 20
1, 48919, Control_c, 0, 64, 63
1, 48934, Control_c, 0, 64, 64
1, 48949, Control_c, 0, 64, 64
1, 48954, Note_off_c, 0, 77, 55
1, 48964, Control_c, 0, 64, 65
1, 48979, Control_c, 0, 64, 65
1, 48980, Note_off_c, 0, 53, 64
1, 48985, Note_on_c, 0, 52, 74
1, 49067, Control_c, 0, 64, 65
1, 49097, Control_c, 0, 64, 63
1, 49111, Control_c, 0, 64, 61
1, 49115, Note_off_c, 0, 52, 64
1, 49118, Note_on_c, 0, 50, 71
1, 49126, Control_c, 0, 64, 55
1, 49141, Control_c, 0, 64, 46
1, 49156, Control_c, 0, 64, 34
1, 49171, Control_c, 0, 64, 0
1, 49277, Note_on_c, 0, 77, 77
1, 49281, Note_on_c, 0, 57, 69
1, 49420, Note_on_c, 0, 58, 73
1, 49427, Note_off_c, 0, 57, 55
1, 49430, Note_on_c, 0, 79, 79
1, 49452, Note_off_c, 0, 77, 58
1, 49563, Note_on_c, 0, 81, 89
1, 49568, Note_off_c, 0, 58, 63
1, 49569, Note_on_c, 0, 60, 74
1, 49594, Note_off_c, 0, 79, 58
1, 49708, Note_on_c, 0, 58, 75
1, 49710, Note_on_c, 0, 79, 82
1, 49731, Note_off_c, 0, 60, 51
1, 49740, Note_off_c, 0, 81, 57
1, 49750, Note_off_c, 0, 50, 35
1, 49848, Note_on_c, 0, 77, 78
1, 49849, Note_on_c, 0, 57, 67
1, 49868, Note_off_c, 0, 79, 59
1, 49892, Note_off_c, 0, 58, 50
1, 49975, Note_off_c, 0, 57, 58
1, 49983, Note_on_c, 0, 55, 66
1, 49995, Note_on_c, 0, 76, 76
1, 50020, Note_off_c, 0, 77, 51
1, 50109, Note_off_c, 0, 55, 62
1, 50114, Note_on_c, 0, 53, 67
1, 50121, Note_on_c, 0, 74, 71
1, 50122, Note_off_c, 0, 76, 61
1, 50249, Note_off_c, 0, 53, 62
1, 50252, Note_off_c, 0, 74, 60
1, 50256, Note_on_c, 0, 55, 63
1, 50264, Note_on_c, 0, 76, 68
1, 50413, Note_on_c, 0, 65, 60
1, 50419, Note_on_c, 0, 74, 68
1, 50436, Note_off_c, 0, 76, 59
1, 50556, Note_off_c, 0, 65, 62
1, 50558, Note_on_c, 0, 73, 74
1, 50560, Note_on_c, 0, 64, 68
1, 50565, Note_off_c, 0, 74, 58
1, 50682, Note_off_c, 0, 73, 63
1, 50694, Note_on_c, 0, 62, 66
1, 50694, Note_on_c, 0, 71, 67
1, 50694, Note_off_c, 0, 64, 62
1, 50827, Note_off_c, 0, 62, 58
1, 50840, Note_on_c, 0, 64, 64
1, 50840, Note_on_c, 0, 73, 72
1, 50843, Note_off_c, 0, 71, 58
1, 50974, Note_on_c, 0, 70, 61
1, 51113, Note_off_c, 0, 70, 58
1, 51120, Note_on_c, 0, 69, 62
1, 51258, Note_off_c, 0, 69, 61
1, 51269, Note_on_c, 0, 67, 62
1, 51398, Note_off_c, 0, 67, 59
1, 51410, Note_on_c, 0, 69, 62
1, 51561, Note_on_c, 0, 67, 57
1, 51610, Control_c, 0, 64, 31
1, 51625, Control_c, 0, 64, 45
1, 51639, Control_c, 0, 64, 52
1, 51654, Control_c, 0, 64, 59
1, 51669, Control_c, 0, 64, 62
1, 51683, Note_off_c, 0, 69, 32
1, 51684, Control_c, 0, 64, 65
1, 51699, Control_c, 0, 64, 67
1, 51701, Note_off_c, 0, 67, 60
1, 51706, Note_on_c, 0, 65, 62
1, 51706, Note_off_c, 0, 64, 60
1, 51713, Control_c, 0, 64, 69
1, 51728, Control_c, 0, 64, 72
1, 51743, Control_c, 0, 64, 74
1, 51744, Note_off_c, 0, 55, 62
1, 51758, Control_c, 0, 64, 76
1, 51770, Note_off_c, 0, 73, 36
1, 51773, Control_c, 0, 64, 76
1, 51788, Note_off_c, 0, 65, 55
1, 51826, Note_on_c, 0, 64, 64
1, 51877, Note_off_c, 0, 64, 57
1, 51973, Control_c, 0, 64, 76
1, 51984, Note_on_c, 0, 74, 67
1, 51987, Control_c, 0, 64, 74
1, 51990, Note_on_c, 0, 53, 58
1, 51991, Note_on_c, 0, 65, 66
1, 51992, Note_on_c, 0, 69, 63
1, 52002, Control_c, 0, 64, 70
1, 52017, Control_c, 0, 64, 64
1, 52032, Control_c, 0, 64, 48
1, 52047, Control_c, 0, 64, 0
1, 52140, Note_on_c, 0, 61, 56
1, 52288, Note_on_c, 0, 62, 65
1, 52301, Note_off_c, 0, 61, 52
1, 52416, Note_off_c, 0, 62, 59
1, 52428, Note_on_c, 0, 64, 64
1, 52445, Note_off_c, 0, 53, 20
1, 52449, Note_off_c, 0, 65, 59
1, 52454, Note_off_c, 0, 69, 53
1, 52506, Note_off_c, 0, 74, 62
1, 52563, Note_on_c, 0, 62, 68
1, 52564, Note_off_c, 0, 64, 62
1, 52691, Note_off_c, 0, 62, 57
1, 52695, Note_on_c, 0, 60, 64
1, 52807, Note_off_c, 0, 60, 56
1, 52833, Note_on_c, 0, 58, 60
1, 52858, Note_on_c, 0, 77, 74
1, 52864, Note_on_c, 0, 69, 61
1, 52970, Note_off_c, 0, 58, 59
1, 52976, Note_on_c, 0, 57, 59
1, 53084, Note_off_c, 0, 69, 64
1, 53128, Note_on_c, 0, 76, 75
1, 53130, Note_off_c, 0, 57, 63
1, 53132, Note_on_c, 0, 67, 64
1, 53141, Note_on_c, 0, 58, 68
1, 53169, Note_off_c, 0, 77, 57
1, 53275, Note_on_c, 0, 57, 62
1, 53320, Note_off_c, 0, 58, 58
1, 53406, Note_off_c, 0, 67, 51
1, 53408, Note_on_c, 0, 79, 88
1, 53412, Note_on_c, 0, 70, 69
1, 53418, Note_on_c, 0, 55, 67
1, 53424, Note_off_c, 0, 57, 61
1, 53433, Note_off_c, 0, 76, 57
1, 53556, Note_on_c, 0, 53, 70
1, 53556, Note_off_c, 0, 55, 59
1, 53560, Control_c, 0, 64, 42
1, 53575, Control_c, 0, 64, 51
1, 53590, Control_c, 0, 64, 55
1, 53604, Control_c, 0, 64, 57
1, 53619, Control_c, 0, 64, 59
1, 53634, Control_c, 0, 64, 60
1, 53649, Control_c, 0, 64, 62
1, 53653, Note_off_c, 0, 79, 53
1, 53665, Control_c, 0, 64, 62
1, 53694, Note_off_c, 0, 53, 61
1, 53709, Control_c, 0, 64, 62
1, 53713, Note_on_c, 0, 73, 79
1, 53718, Note_on_c, 0, 57, 67
1, 53724, Control_c, 0, 64, 59
1, 53725, Note_on_c, 0, 64, 66
1, 53728, Note_on_c, 0, 55, 63
1, 53739, Control_c, 0, 64, 24
1, 53754, Control_c, 0, 64, 0
1, 53758, Note_off_c, 0, 70, 58
1, 53827, Control_c, 0, 64, 34
1, 53842, Control_c, 0, 64, 64
1, 53857, Control_c, 0, 64, 69
1, 53865, Note_on_c, 0, 53, 69
1, 53871, Note_off_c, 0, 55, 61
1, 53872, Control_c, 0, 64, 73
1, 53875, Note_off_c, 0, 73, 63
1, 53887, Control_c, 0, 64, 75
1, 53901, Control_c, 0, 64, 76
1, 53958, Note_off_c, 0, 57, 23
1, 53990, Control_c, 0, 64, 75
1, 53993, Note_off_c, 0, 53, 63
1, 53993, Note_off_c, 0, 64, 61
1, 53996, Note_on_c, 0, 74, 75
1, 54005, Note_on_c, 0, 52, 69
1, 54005, Note_on_c, 0, 65, 74
1, 54005, Control_c, 0, 64, 71
1, 54020, Control_c, 0, 64, 64
1, 54035, Control_c, 0, 64, 33
1, 54050, Control_c, 0, 64, 0
1, 54131, Control_c, 0, 64, 18
1, 54145, Note_on_c, 0, 50, 69
1, 54146, Control_c, 0, 64, 50
1, 54161, Control_c, 0, 64, 51
1, 54181, Note_off_c, 0, 52, 40
1, 54190, Control_c, 0, 64, 51
1, 54205, Control_c, 0, 64, 50
1, 54220, Control_c, 0, 64, 49
1, 54235, Control_c, 0, 64, 47
1, 54250, Control_c, 0, 64, 23
1, 54265, Note_off_c, 0, 65, 56
1, 54265, Control_c, 0, 64, 0
1, 54284, Note_off_c, 0, 50, 58
1, 54287, Note_on_c, 0, 57, 75
1, 54296, Note_off_c, 0, 74, 60
1, 54369, Control_c, 0, 64, 46
1, 54383, Control_c, 0, 64, 56
1, 54398, Control_c, 0, 64, 62
1, 54413, Note_on_c, 0, 74, 68
1, 54413, Control_c, 0, 64, 64
1, 54420, Note_on_c, 0, 65, 64
1, 54427, Control_c, 0, 64, 66
1, 54442, Control_c, 0, 64, 68
1, 54458, Control_c, 0, 64, 70
1, 54467, Note_off_c, 0, 65, 58
1, 54473, Control_c, 0, 64, 72
1, 54488, Control_c, 0, 64, 73
1, 54502, Control_c, 0, 64, 74
1, 54517, Control_c, 0, 64, 74
1, 54561, Control_c, 0, 64, 73
1, 54566, Note_on_c, 0, 45, 65
1, 54574, Note_on_c, 0, 73, 80
1, 54576, Control_c, 0, 64, 69
1, 54590, Note_on_c, 0, 64, 61
1, 54591, Control_c, 0, 64, 59
1, 54605, Control_c, 0, 64, 0
1, 54628, Note_off_c, 0, 64, 60
1, 54635, Control_c, 0, 64, 54
1, 54649, Control_c, 0, 64, 65
1, 54664, Control_c, 0, 64, 70
1, 54679, Control_c, 0, 64, 74
1, 54694, Note_off_c, 0, 74, 27
1, 54694, Control_c, 0, 64, 76
1, 54709, Control_c, 0, 64, 77
1, 54718, Note_on_c, 0, 71, 80
1, 54723, Note_on_c, 0, 62, 72
1, 54727, Note_off_c, 0, 45, 60
1, 54762, Note_off_c, 0, 73, 58
1, 54765, Note_off_c, 0, 62, 50
1, 54870, Note_off_c, 0, 57, 55
1, 54879, Control_c, 0, 64, 76
1, 54884, Note_on_c, 0, 73, 79
1, 54894, Control_c, 0, 64, 75
1, 54900, Note_on_c, 0, 64, 67
1, 54900, Note_on_c, 0, 69, 67
1, 54909, Control_c, 0, 64, 71
1, 54924, Control_c, 0, 64, 65
1, 54925, Note_off_c, 0, 71, 55
1, 54938, Control_c, 0, 64, 53
1, 54953, Control_c, 0, 64, 0
1, 55022, Note_on_c, 0, 55, 51
1, 55164, Note_off_c, 0, 55, 62
1, 55174, Note_on_c, 0, 57, 63
1, 55305, Note_off_c, 0, 57, 61
1, 55317, Note_on_c, 0, 58, 68
1, 55439, Note_off_c, 0, 58, 65
1, 55459, Note_on_c, 0, 57, 60
1, 55585, Note_off_c, 0, 57, 60
1, 55588, Note_on_c, 0, 55, 62
1, 55630, Note_off_c, 0, 64, 52
1, 55704, Note_off_c, 0, 69, 32
1, 55728, Note_off_c, 0, 55, 61
1, 55740, Note_on_c, 0, 53, 62
1, 55847, Note_off_c, 0, 73, 35
1, 55875, Note_off_c, 0, 53, 59
1, 55883, Note_on_c, 0, 52, 60
1, 56038, Note_on_c, 0, 53, 52
1, 56047, Note_off_c, 0, 52, 58
1, 56148, Note_on_c, 0, 73, 53
1, 56300, Note_on_c, 0, 74, 58
1, 56343, Note_off_c, 0, 73, 49
1, 56441, Note_on_c, 0, 76, 65
1, 56456, Note_off_c, 0, 74, 55
1, 56584, Note_on_c, 0, 74, 65
1, 56586, Note_on_c, 0, 57, 55
1, 56602, Note_off_c, 0, 76, 49
1, 56726, Note_on_c, 0, 72, 73
1, 56754, Note_off_c, 0, 74, 55
1, 56866, Note_on_c, 0, 70, 71
1, 56900, Note_off_c, 0, 72, 62
1, 56998, Note_on_c, 0, 69, 67
1, 56999, Note_off_c, 0, 70, 61
1, 57135, Note_on_c, 0, 70, 71
1, 57145, Note_off_c, 0, 69, 57
1, 57156, Note_on_c, 0, 62, 58
1, 57251, Note_off_c, 0, 53, 56
1, 57269, Note_on_c, 0, 69, 72
1, 57337, Note_off_c, 0, 70, 37
1, 57404, Note_on_c, 0, 67, 75
1, 57408, Note_off_c, 0, 69, 60
1, 57537, Note_off_c, 0, 67, 60
1, 57542, Note_on_c, 0, 65, 69
1, 57677, Note_off_c, 0, 62, 55
1, 57693, Note_off_c, 0, 65, 60
1, 57694, Note_on_c, 0, 67, 74
1, 57699, Note_on_c, 0, 52, 52
1, 57734, Note_off_c, 0, 57, 36
1, 57842, Note_on_c, 0, 65, 60
1, 57975, Note_off_c, 0, 65, 60
1, 57992, Note_on_c, 0, 64, 58
1, 58116, Note_off_c, 0, 64, 62
1, 58134, Note_on_c, 0, 62, 52
1, 58258, Note_off_c, 0, 62, 60
1, 58267, Note_on_c, 0, 64, 55
1, 58399, Note_on_c, 0, 62, 54
1, 58534, Note_off_c, 0, 62, 56
1, 58543, Note_on_c, 0, 61, 53
1, 58685, Note_off_c, 0, 61, 55
1, 58690, Note_on_c, 0, 59, 55
1, 58827, Note_off_c, 0, 59, 53
1, 58837, Note_on_c, 0, 61, 52
1, 58980, Note_off_c, 0, 52, 59
1, 58991, Note_on_c, 0, 55, 48
1, 59120, Note_off_c, 0, 55, 58
1, 59129, Note_on_c, 0, 57, 65
1, 59259, Note_off_c, 0, 57, 62
1, 59261, Note_on_c, 0, 58, 76
1, 59389, Note_off_c, 0, 58, 65
1, 59396, Note_on_c, 0, 57, 68
1, 59499, Note_off_c, 0, 67, 36
1, 59525, Note_off_c, 0, 57, 61
1, 59526, Note_on_c, 0, 55, 69
1, 59674, Note_off_c, 0, 61, 29
1, 59681, Note_on_c, 0, 53, 72
1, 59687, Note_off_c, 0, 55, 61
1, 59812, Note_off_c, 0, 53, 63
1, 59821, Note_on_c, 0, 52, 70
1, 59950, Note_off_c, 0, 52, 65
1, 59962, Note_on_c, 0, 65, 70
1, 59964, Note_on_c, 0, 53, 69
1, 59973, Note_on_c, 0, 57, 57
1, 59973, Note_on_c, 0, 62, 65
1, 60100, Note_off_c, 0, 53, 58
1, 60107, Note_on_c, 0, 52, 62
1, 60113, Note_off_c, 0, 64, 24
1, 60252, Note_on_c, 0, 50, 69
1, 60256, Note_off_c, 0, 52, 63
1, 60383, Note_off_c, 0, 50, 63
1, 60398, Note_on_c, 0, 49, 66
1, 60536, Note_off_c, 0, 49, 62
1, 60549, Note_on_c, 0, 50, 68
1, 60670, Note_off_c, 0, 50, 62
1, 60675, Note_on_c, 0, 48, 66
1, 60838, Note_off_c, 0, 48, 57
1, 60839, Note_on_c, 0, 47, 67
1, 60954, Note_off_c, 0, 47, 56
1, 60966, Note_on_c, 0, 45, 61
1, 60977, Note_off_c, 0, 62, 56
1, 61127, Note_on_c, 0, 47, 62
1, 61140, Note_off_c, 0, 45, 57
1, 61220, Note_off_c, 0, 57, 36
1, 61256, Note_on_c, 0, 60, 54
1, 61400, Note_on_c, 0, 59, 58
1, 61411, Note_off_c, 0, 60, 55
1, 61541, Note_off_c, 0, 59, 55
1, 61543, Note_on_c, 0, 57, 61
1, 61690, Note_on_c, 0, 56, 65
1, 61718, Note_off_c, 0, 57, 43
1, 61808, Note_on_c, 0, 48, 59
1, 61911, Note_off_c, 0, 47, 31
1, 61944, Note_on_c, 0, 50, 64
1, 61946, Note_off_c, 0, 48, 63
1, 61965, Note_on_c, 0, 57, 67
1, 61970, Note_off_c, 0, 56, 61
1, 62089, Note_off_c, 0, 50, 61
1, 62094, Note_on_c, 0, 52, 63
1, 62230, Note_off_c, 0, 52, 62
1, 62230, Note_on_c, 0, 50, 63
1, 62249, Note_on_c, 0, 59, 62
1, 62257, Note_off_c, 0, 57, 57
1, 62372, Note_off_c, 0, 50, 58
1, 62379, Note_on_c, 0, 48, 60
1, 62527, Note_on_c, 0, 47, 58
1, 62542, Note_off_c, 0, 48, 34
1, 62589, Control_c, 0, 64, 37
1, 62604, Control_c, 0, 64, 51
1, 62619, Control_c, 0, 64, 58
1, 62634, Control_c, 0, 64, 63
1, 62649, Control_c, 0, 64, 66
1, 62656, Note_on_c, 0, 45, 59
1, 62663, Control_c, 0, 64, 69
1, 62678, Control_c, 0, 64, 72
1, 62686, Note_off_c, 0, 47, 36
1, 62693, Control_c, 0, 64, 75
1, 62700, Note_off_c, 0, 45, 66
1, 62708, Control_c, 0, 64, 76
1, 62723, Control_c, 0, 64, 77
1, 62738, Control_c, 0, 64, 78
1, 62797, Control_c, 0, 64, 77
1, 62806, Note_on_c, 0, 44, 61
1, 62812, Control_c, 0, 64, 75
1, 62827, Control_c, 0, 64, 72
1, 62842, Control_c, 0, 64, 68
1, 62850, Note_off_c, 0, 59, 57
1, 62857, Control_c, 0, 64, 61
1, 62861, Note_off_c, 0, 65, 40
1, 62871, Control_c, 0, 64, 50
1, 62886, Control_c, 0, 64, 46
1, 62901, Control_c, 0, 64, 46
1, 62931, Control_c, 0, 64, 45
1, 62939, Note_on_c, 0, 50, 56
1, 62945, Control_c, 0, 64, 42
1, 62960, Control_c, 0, 64, 39
1, 62975, Control_c, 0, 64, 38
1, 62990, Control_c, 0, 64, 37
1, 63034, Control_c, 0, 64, 36
1, 63081, Note_off_c, 0, 50, 57
1, 63094, Note_on_c, 0, 52, 63
1, 63240, Note_on_c, 0, 53, 59
1, 63240, Note_off_c, 0, 52, 61
1, 63265, Control_c, 0, 64, 36
1, 63294, Control_c, 0, 64, 35
1, 63324, Control_c, 0, 64, 34
1, 63354, Control_c, 0, 64, 34
1, 63366, Note_off_c, 0, 53, 63
1, 63370, Note_on_c, 0, 52, 63
1, 63383, Control_c, 0, 64, 33
1, 63398, Control_c, 0, 64, 32
1, 63493, Note_on_c, 0, 57, 56
1, 63517, Control_c, 0, 64, 32
1, 63532, Control_c, 0, 64, 31
1, 63576, Control_c, 0, 64, 30
1, 63630, Note_off_c, 0, 57, 58
1, 63637, Note_on_c, 0, 59, 60
1, 63650, Control_c, 0, 64, 29
1, 63777, Note_off_c, 0, 59, 57
1, 63778, Note_on_c, 0, 60, 65
1, 63783, Control_c, 0, 64, 29
1, 63820, Control_c, 0, 64, 28
1, 63894, Control_c, 0, 64, 27
1, 63927, Note_off_c, 0, 60, 60
1, 63938, Note_on_c, 0, 59, 66
1, 63939, Control_c, 0, 64, 25
1, 63953, Control_c, 0, 64, 24
1, 63968, Control_c, 0, 64, 23
1, 64013, Control_c, 0, 64, 21
1, 64043, Control_c, 0, 64, 20
1, 64058, Control_c, 0, 64, 18
1, 64065, Note_on_c, 0, 61, 67
1, 64088, Control_c, 0, 64, 17
1, 64117, Control_c, 0, 64, 15
1, 64128, Note_off_c, 0, 44, 30
1, 64132, Control_c, 0, 64, 10
1, 64147, Control_c, 0, 64, 0
1, 64200, Note_on_c, 0, 62, 70
1, 64208, Note_off_c, 0, 61, 59
1, 64349, Note_on_c, 0, 64, 66
1, 64363, Note_off_c, 0, 59, 54
1, 64382, Note_off_c, 0, 62, 60
1, 64501, Note_on_c, 0, 61, 71
1, 64501, Note_off_c, 0, 64, 61
1, 64504, Note_on_c, 0, 57, 62
1, 64510, Note_on_c, 0, 43, 54
1, 64641, Note_on_c, 0, 64, 69
1, 64767, Note_off_c, 0, 52, 12
1, 64792, Note_on_c, 0, 65, 73
1, 64822, Note_off_c, 0, 64, 61
1, 64852, Control_c, 0, 64, 34
1, 64866, Control_c, 0, 64, 61
1, 64881, Control_c, 0, 64, 64
1, 64896, Control_c, 0, 64, 67
1, 64911, Control_c, 0, 64, 70
1, 64913, Note_on_c, 0, 67, 78
1, 64926, Control_c, 0, 64, 73
1, 64940, Control_c, 0, 64, 76
1, 64951, Note_off_c, 0, 65, 54
1, 64955, Control_c, 0, 64, 78
1, 64960, Note_off_c, 0, 57, 53
1, 64970, Control_c, 0, 64, 79
1, 64984, Control_c, 0, 64, 80
1, 64990, Note_off_c, 0, 61, 35
1, 64994, Note_off_c, 0, 67, 59
1, 65061, Note_on_c, 0, 69, 82
1, 65073, Control_c, 0, 64, 79
1, 65088, Control_c, 0, 64, 78
1, 65103, Control_c, 0, 64, 75
1, 65118, Control_c, 0, 64, 71
1, 65132, Control_c, 0, 64, 65
1, 65147, Control_c, 0, 64, 49
1, 65162, Control_c, 0, 64, 15
1, 65177, Control_c, 0, 64, 0
1, 65196, Note_off_c, 0, 43, 57
1, 65206, Control_c, 0, 64, 10
1, 65208, Note_on_c, 0, 59, 60
1, 65213, Note_on_c, 0, 53, 55
1, 65236, Control_c, 0, 64, 0
1, 65318, Control_c, 0, 64, 10
1, 65342, Note_off_c, 0, 53, 61
1, 65346, Note_on_c, 0, 61, 65
1, 65347, Control_c, 0, 64, 13
1, 65352, Note_on_c, 0, 52, 60
1, 65421, Control_c, 0, 64, 15
1, 65451, Control_c, 0, 64, 17
1, 65459, Note_off_c, 0, 59, 20
1, 65477, Note_on_c, 0, 50, 54
1, 65479, Note_off_c, 0, 52, 54
1, 65480, Note_on_c, 0, 62, 62
1, 65495, Control_c, 0, 64, 18
1, 65496, Note_off_c, 0, 61, 51
1, 65510, Control_c, 0, 64, 20
1, 65525, Control_c, 0, 64, 23
1, 65539, Control_c, 0, 64, 24
1, 65554, Control_c, 0, 64, 25
1, 65569, Control_c, 0, 64, 26
1, 65583, Control_c, 0, 64, 29
1, 65598, Control_c, 0, 64, 32
1, 65613, Control_c, 0, 64, 35
1, 65625, Note_off_c, 0, 62, 57
1, 65628, Note_on_c, 0, 64, 59
1, 65628, Control_c, 0, 64, 39
1, 65630, Note_on_c, 0, 49, 58
1, 65640, Note_off_c, 0, 50, 52
1, 65644, Control_c, 0, 64, 42
1, 65659, Control_c, 0, 64, 47
1, 65674, Control_c, 0, 64, 50
1, 65688, Control_c, 0, 64, 54
1, 65703, Control_c, 0, 64, 58
1, 65718, Control_c, 0, 64, 60
1, 65734, Control_c, 0, 64, 63
1, 65748, Control_c, 0, 64, 64
1, 65763, Control_c, 0, 64, 65
1, 65778, Control_c, 0, 64, 67
1, 65787, Note_on_c, 0, 46, 59
1, 65792, Note_off_c, 0, 49, 54
1, 65793, Control_c, 0, 64, 68
1, 65807, Control_c, 0, 64, 69
1, 65822, Control_c, 0, 64, 70
1, 65837, Control_c, 0, 64, 70
1, 65856, Note_off_c, 0, 46, 63
1, 65922, Note_on_c, 0, 45, 61
1, 65926, Control_c, 0, 64, 70
1, 65941, Control_c, 0, 64, 69
1, 65956, Control_c, 0, 64, 67
1, 65971, Control_c, 0, 64, 64
1, 65986, Control_c, 0, 64, 61
1, 66000, Control_c, 0, 64, 58
1, 66015, Control_c, 0, 64, 56
1, 66030, Control_c, 0, 64, 55
1, 66040, Note_off_c, 0, 45, 58
1, 66045, Control_c, 0, 64, 53
1, 66066, Note_on_c, 0, 43, 60
1, 66067, Control_c, 0, 64, 50
1, 66072, Note_off_c, 0, 69, 54
1, 66082, Control_c, 0, 64, 46
1, 66096, Control_c, 0, 64, 41
1, 66111, Control_c, 0, 64, 37
1, 66126, Control_c, 0, 64, 36
1, 66141, Control_c, 0, 64, 35
1, 66155, Control_c, 0, 64, 34
1, 66170, Control_c, 0, 64, 31
1, 66185, Control_c, 0, 64, 29
1, 66200, Control_c, 0, 64, 27
1, 66219, Note_off_c, 0, 43, 58
1, 66226, Note_on_c, 0, 41, 58
1, 66339, Note_off_c, 0, 64, 38
1, 66363, Control_c, 0, 64, 28
1, 66367, Note_on_c, 0, 67, 53
1, 66378, Control_c, 0, 64, 29
1, 66393, Control_c, 0, 64, 29
1, 66407, Control_c, 0, 64, 31
1, 66422, Control_c, 0, 64, 33
1, 66438, Control_c, 0, 64, 39
1, 66453, Control_c, 0, 64, 47
1, 66468, Control_c, 0, 64, 54
1, 66483, Control_c, 0, 64, 60
1, 66498, Control_c, 0, 64, 63
1, 66501, Note_on_c, 0, 70, 68
1, 66505, Note_on_c, 0, 50, 52
1, 66512, Control_c, 0, 64, 65
1, 66527, Control_c, 0, 64, 66
1, 66542, Control_c, 0, 64, 68
1, 66556, Control_c, 0, 64, 69
1, 66571, Control_c, 0, 64, 70
1, 66586, Note_off_c, 0, 67, 37
1, 66586, Control_c, 0, 64, 70
1, 66616, Control_c, 0, 64, 71
1, 66637, Note_off_c, 0, 41, 62
1, 66647, Note_on_c, 0, 69, 74
1, 66678, Note_off_c, 0, 50, 52
1, 66690, Control_c, 0, 64, 70
1, 66719, Control_c, 0, 64, 70
1, 66734, Control_c, 0, 64, 69
1, 66749, Control_c, 0, 64, 67
1, 66764, Control_c, 0, 64, 64
1, 66778, Control_c, 0, 64, 57
1, 66785, Note_on_c, 0, 67, 75
1, 66786, Note_on_c, 0, 62, 64
1, 66788, Note_on_c, 0, 43, 56
1, 66788, Note_off_c, 0, 70, 20
1, 66790, Note_on_c, 0, 52, 59
1, 66793, Control_c, 0, 64, 49
1, 66816, Control_c, 0, 64, 45
1, 66831, Control_c, 0, 64, 44
1, 66832, Note_off_c, 0, 69, 57
1, 66845, Control_c, 0, 64, 43
1, 66860, Control_c, 0, 64, 42
1, 66875, Control_c, 0, 64, 40
1, 66890, Control_c, 0, 64, 39
1, 66911, Note_off_c, 0, 62, 38
1, 66928, Note_on_c, 0, 65, 73
1, 67007, Note_off_c, 0, 67, 37
1, 67008, Control_c, 0, 64, 39
1, 67038, Control_c, 0, 64, 40
1, 67060, Note_on_c, 0, 53, 63
1, 67062, Note_off_c, 0, 65, 64
1, 67066, Note_on_c, 0, 64, 68
1, 67082, Note_off_c, 0, 52, 42
1, 67127, Note_off_c, 0, 43, 37
1, 67194, Note_off_c, 0, 64, 65
1, 67201, Control_c, 0, 64, 39
1, 67207, Note_on_c, 0, 62, 70
1, 67261, Control_c, 0, 64, 39
1, 67335, Note_off_c, 0, 53, 62
1, 67335, Control_c, 0, 64, 38
1, 67350, Note_on_c, 0, 55, 54
1, 67350, Note_off_c, 0, 62, 60
1, 67352, Note_on_c, 0, 61, 69
1, 67354, Note_on_c, 0, 45, 46
1, 67379, Control_c, 0, 64, 38
1, 67424, Control_c, 0, 64, 37
1, 67453, Control_c, 0, 64, 37
1, 67468, Control_c, 0, 64, 36
1, 67483, Control_c, 0, 64, 36
1, 67485, Note_on_c, 0, 64, 62
1, 67498, Control_c, 0, 64, 34
1, 67513, Control_c, 0, 64, 34
1, 67527, Control_c, 0, 64, 33
1, 67565, Control_c, 0, 64, 32
1, 67580, Control_c, 0, 64, 32
1, 67592, Note_off_c, 0, 45, 49
1, 67609, Control_c, 0, 64, 31
1, 67634, Note_on_c, 0, 57, 59
1, 67640, Note_on_c, 0, 65, 66
1, 67660, Note_off_c, 0, 55, 57
1, 67668, Control_c, 0, 64, 30
1, 67724, Note_off_c, 0, 61, 52
1, 67728, Control_c, 0, 64, 29
1, 67757, Control_c, 0, 64, 29
1, 67768, Note_on_c, 0, 67, 67
1, 67772, Control_c, 0, 64, 28
1, 67789, Note_off_c, 0, 64, 20
1, 67801, Control_c, 0, 64, 27
1, 67816, Control_c, 0, 64, 26
1, 67831, Control_c, 0, 64, 25
1, 67846, Control_c, 0, 64, 24
1, 67861, Control_c, 0, 64, 23
1, 67875, Control_c, 0, 64, 21
1, 67876, Note_off_c, 0, 65, 25
1, 67890, Control_c, 0, 64, 20
1, 67905, Note_off_c, 0, 57, 58
1, 67905, Control_c, 0, 64, 18
1, 67909, Note_on_c, 0, 62, 60
1, 67920, Note_on_c, 0, 50, 47
1, 67921, Note_on_c, 0, 58, 57
1, 67929, Note_off_c, 0, 67, 49
1, 67935, Control_c, 0, 64, 17
1, 67965, Control_c, 0, 64, 15
1, 67994, Control_c, 0, 64, 13
1, 68024, Control_c, 0, 64, 10
1, 68054, Control_c, 0, 64, 0
1, 68058, Note_on_c, 0, 67, 59
1, 68187, Note_off_c, 0, 58, 61
1, 68200, Note_on_c, 0, 57, 54
1, 68200, Note_off_c, 0, 67, 57
1, 68221, Note_on_c, 0, 65, 56
1, 68321, Note_off_c, 0, 57, 58
1, 68343, Note_on_c, 0, 55, 51
1, 68357, Note_on_c, 0, 64, 52
1, 68387, Note_off_c, 0, 65, 44
1, 68494, Note_off_c, 0, 55, 58
1, 68495, Note_on_c, 0, 57, 49
1, 68500, Note_on_c, 0, 65, 59
1, 68503, Note_off_c, 0, 62, 52
1, 68510, Note_off_c, 0, 64, 58
1, 68643, Note_on_c, 0, 64, 55
1, 68790, Note_on_c, 0, 62, 56
1, 68800, Note_off_c, 0, 64, 58
1, 68916, Note_off_c, 0, 62, 57
1, 68923, Note_on_c, 0, 61, 53
1, 69089, Note_on_c, 0, 62, 52
1, 69101, Note_off_c, 0, 61, 51
1, 69199, Note_off_c, 0, 57, 52
1, 69243, Note_on_c, 0, 60, 45
1, 69315, Note_off_c, 0, 65, 38
1, 69365, Note_off_c, 0, 60, 52
1, 69373, Note_on_c, 0, 58, 56
1, 69527, Note_on_c, 0, 57, 59
1, 69539, Note_off_c, 0, 58, 60
1, 69556, Note_off_c, 0, 50, 30
1, 69661, Note_off_c, 0, 57, 58
1, 69663, Note_on_c, 0, 58, 64
1, 69800, Note_on_c, 0, 50, 57
1, 69810, Note_on_c, 0, 65, 60
1, 69851, Note_off_c, 0, 58, 55
1, 69882, Note_off_c, 0, 62, 28
1, 69949, Note_on_c, 0, 52, 59
1, 69950, Note_on_c, 0, 67, 69
1, 69975, Note_off_c, 0, 65, 52
1, 69983, Note_off_c, 0, 50, 36
1, 70093, Note_on_c, 0, 53, 64
1, 70097, Note_on_c, 0, 69, 73
1, 70100, Note_off_c, 0, 52, 58
1, 70121, Note_off_c, 0, 67, 55
1, 70223, Note_off_c, 0, 53, 62
1, 70227, Note_on_c, 0, 70, 76
1, 70238, Note_on_c, 0, 55, 63
1, 70246, Note_off_c, 0, 69, 60
1, 70372, Note_on_c, 0, 62, 57
1, 70515, Note_on_c, 0, 64, 61
1, 70516, Note_off_c, 0, 55, 59
1, 70517, Note_on_c, 0, 57, 47
1, 70518, Note_off_c, 0, 62, 56
1, 70520, Note_on_c, 0, 53, 49
1, 70658, Note_on_c, 0, 65, 56
1, 70677, Note_off_c, 0, 64, 50
1, 70789, Note_off_c, 0, 53, 63
1, 70800, Note_on_c, 0, 67, 62
1, 70804, Note_off_c, 0, 57, 52
1, 70806, Note_off_c, 0, 70, 0
1, 70814, Note_off_c, 0, 65, 59
1, 70815, Note_on_c, 0, 55, 53
1, 70843, Poly_aftertouch_c, 0, 70, 127
1, 70941, Note_off_c, 0, 55, 58
1, 70955, Note_on_c, 0, 52, 38
1, 70990, Note_on_c, 0, 53, 29
1, 71029, Note_off_c, 0, 53, 31
1, 71086, Note_on_c, 0, 50, 56
1, 71088, Note_on_c, 0, 64, 56
1, 71129, Note_off_c, 0, 67, 54
1, 71136, Note_off_c, 0, 52, 37
1, 71203, Poly_aftertouch_c, 0, 70, 0
1, 71213, Note_off_c, 0, 50, 53
1, 71217, Note_on_c, 0, 48, 59
1, 71356, Note_off_c, 0, 48, 58
1, 71383, Note_on_c, 0, 60, 57
1, 71390, Note_on_c, 0, 55, 49
1, 71405, Note_on_c, 0, 53, 37
1, 71426, Control_c, 0, 64, 34
1, 71432, Note_off_c, 0, 64, 34
1, 71441, Control_c, 0, 64, 52
1, 71456, Control_c, 0, 64, 61
1, 71470, Control_c, 0, 64, 65
1, 71485, Control_c, 0, 64, 67
1, 71500, Control_c, 0, 64, 70
1, 71514, Note_on_c, 0, 70, 63
1, 71515, Control_c, 0, 64, 72
1, 71530, Control_c, 0, 64, 75
1, 71545, Control_c, 0, 64, 76
1, 71559, Control_c, 0, 64, 77
1, 71564, Note_off_c, 0, 53, 33
1, 71570, Note_off_c, 0, 55, 38
1, 71589, Control_c, 0, 64, 77
1, 71671, Note_on_c, 0, 41, 58
1, 71673, Note_on_c, 0, 53, 57
1, 71678, Control_c, 0, 64, 77
1, 71682, Note_on_c, 0, 69, 62
1, 71693, Control_c, 0, 64, 75
1, 71707, Control_c, 0, 64, 73
1, 71717, Note_off_c, 0, 70, 31
1, 71722, Control_c, 0, 64, 69
1, 71737, Control_c, 0, 64, 64
1, 71751, Control_c, 0, 64, 51
1, 71766, Control_c, 0, 64, 39
1, 71772, Note_off_c, 0, 60, 23
1, 71781, Control_c, 0, 64, 39
1, 71796, Control_c, 0, 64, 40
1, 71806, Note_off_c, 0, 53, 61
1, 71816, Note_on_c, 0, 67, 65
1, 71819, Note_on_c, 0, 52, 62
1, 71821, Note_off_c, 0, 69, 57
1, 71825, Control_c, 0, 64, 39
1, 71840, Control_c, 0, 64, 38
1, 71855, Control_c, 0, 64, 35
1, 71856, Note_off_c, 0, 41, 34
1, 71870, Control_c, 0, 64, 34
1, 71900, Control_c, 0, 64, 33
1, 71929, Control_c, 0, 64, 32
1, 71937, Note_off_c, 0, 67, 61
1, 71942, Note_off_c, 0, 52, 64
1, 71944, Note_on_c, 0, 69, 71
1, 71944, Control_c, 0, 64, 31
1, 71948, Note_on_c, 0, 53, 67
1, 71974, Control_c, 0, 64, 30
1, 71989, Control_c, 0, 64, 29
1, 72019, Control_c, 0, 64, 29
1, 72034, Control_c, 0, 64, 28
1, 72071, Control_c, 0, 64, 27
1, 72102, Note_on_c, 0, 67, 55
1, 72130, Control_c, 0, 64, 26
1, 72174, Control_c, 0, 64, 25
1, 72234, Note_on_c, 0, 57, 49
1, 72248, Note_on_c, 0, 65, 56
1, 72258, Note_off_c, 0, 67, 37
1, 72278, Control_c, 0, 64, 24
1, 72374, Note_off_c, 0, 65, 59
1, 72383, Note_on_c, 0, 64, 55
1, 72412, Control_c, 0, 64, 25
1, 72494, Note_off_c, 0, 57, 59
1, 72531, Control_c, 0, 64, 24
1, 72535, Note_on_c, 0, 65, 59
1, 72535, Note_off_c, 0, 64, 64
1, 72561, Control_c, 0, 64, 23
1, 72575, Control_c, 0, 64, 21
1, 72605, Control_c, 0, 64, 20
1, 72620, Control_c, 0, 64, 18
1, 72649, Control_c, 0, 64, 17
1, 72662, Note_on_c, 0, 64, 56
1, 72664, Control_c, 0, 64, 15
1, 72679, Control_c, 0, 64, 13
1, 72708, Control_c, 0, 64, 10
1, 72782, Control_c, 0, 64, 0
1, 72812, Note_on_c, 0, 62, 64
1, 72820, Note_off_c, 0, 64, 59
1, 72915, Note_off_c, 0, 65, 60
1, 72944, Note_on_c, 0, 61, 62
1, 72968, Note_off_c, 0, 62, 53
1, 72994, Note_off_c, 0, 69, 61
1, 73088, Note_off_c, 0, 61, 62
1, 73095, Note_on_c, 0, 62, 69
1, 73114, Note_off_c, 0, 53, 42
1, 73235, Note_on_c, 0, 53, 59
1, 73238, Note_on_c, 0, 69, 73
1, 73369, Note_off_c, 0, 62, 52
1, 73371, Note_on_c, 0, 70, 77
1, 73377, Note_on_c, 0, 55, 62
1, 73424, Note_off_c, 0, 69, 54
1, 73506, Note_off_c, 0, 53, 23
1, 73513, Note_on_c, 0, 57, 66
1, 73517, Note_on_c, 0, 72, 81
1, 73557, Note_off_c, 0, 70, 62
1, 73662, Note_on_c, 0, 58, 69
1, 73667, Note_on_c, 0, 74, 81
1, 73668, Note_off_c, 0, 57, 58
1, 73678, Note_off_c, 0, 55, 22
1, 73700, Note_off_c, 0, 72, 60
1, 73802, Note_on_c, 0, 65, 68
1, 73942, Note_on_c, 0, 57, 49
1, 73942, Note_off_c, 0, 58, 59
1, 73943, Note_on_c, 0, 67, 64
1, 73949, Note_off_c, 0, 65, 53
1, 73956, Note_on_c, 0, 60, 49
1, 74076, Note_on_c, 0, 69, 62
1, 74114, Note_off_c, 0, 67, 47
1, 74193, Note_off_c, 0, 57, 57
1, 74210, Note_on_c, 0, 58, 56
1, 74227, Note_on_c, 0, 70, 60
1, 74249, Note_off_c, 0, 69, 59
1, 74254, Note_off_c, 0, 60, 33
1, 74364, Note_on_c, 0, 55, 54
1, 74366, Note_off_c, 0, 58, 57
1, 74508, Note_on_c, 0, 53, 61
1, 74517, Note_on_c, 0, 67, 60
1, 74556, Control_c, 0, 64, 17
1, 74570, Control_c, 0, 64, 29
1, 74585, Note_off_c, 0, 70, 47
1, 74585, Control_c, 0, 64, 38
1, 74600, Control_c, 0, 64, 45
1, 74615, Control_c, 0, 64, 50
1, 74629, Note_off_c, 0, 55, 21
1, 74630, Control_c, 0, 64, 56
1, 74631, Note_off_c, 0, 74, 36
1, 74636, Note_on_c, 0, 52, 61
1, 74644, Control_c, 0, 64, 59
1, 74659, Control_c, 0, 64, 61
1, 74670, Note_off_c, 0, 53, 35
1, 74674, Control_c, 0, 64, 63
1, 74689, Control_c, 0, 64, 64
1, 74704, Control_c, 0, 64, 65
1, 74718, Control_c, 0, 64, 66
1, 74733, Control_c, 0, 64, 67
1, 74748, Control_c, 0, 64, 68
1, 74760, Note_off_c, 0, 52, 64
1, 74763, Control_c, 0, 64, 69
1, 74794, Note_on_c, 0, 57, 60
1, 74794, Note_on_c, 0, 64, 64
1, 74801, Note_on_c, 0, 58, 58
1, 74807, Control_c, 0, 64, 68
1, 74822, Control_c, 0, 64, 66
1, 74837, Control_c, 0, 64, 64
1, 74866, Control_c, 0, 64, 65
1, 74881, Control_c, 0, 64, 66
1, 74892, Note_off_c, 0, 57, 62
1, 74895, Control_c, 0, 64, 67
1, 74910, Control_c, 0, 64, 69
1, 74925, Note_on_c, 0, 74, 72
1, 74925, Control_c, 0, 64, 70
1, 74934, Note_off_c, 0, 67, 62
1, 74938, Note_off_c, 0, 58, 60
1, 74940, Control_c, 0, 64, 72
1, 74955, Control_c, 0, 64, 72
1, 74970, Control_c, 0, 64, 73
1, 74985, Control_c, 0, 64, 73
1, 75030, Control_c, 0, 64, 73
1, 75051, Control_c, 0, 64, 72
1, 75066, Control_c, 0, 64, 70
1, 75074, Note_on_c, 0, 72, 74
1, 75075, Note_on_c, 0, 45, 64
1, 75076, Note_on_c, 0, 57, 62
1, 75081, Control_c, 0, 64, 66
1, 75096, Control_c, 0, 64, 60
1, 75110, Control_c, 0, 64, 44
1, 75125, Control_c, 0, 64, 36
1, 75140, Control_c, 0, 64, 36
1, 75155, Control_c, 0, 64, 38
1, 75157, Note_off_c, 0, 74, 34
1, 75163, Note_off_c, 0, 64, 29
1, 75170, Control_c, 0, 64, 39
1, 75185, Control_c, 0, 64, 40
1, 75191, Note_off_c, 0, 57, 57
1, 75200, Control_c, 0, 64, 42
1, 75210, Note_on_c, 0, 70, 71
1, 75214, Control_c, 0, 64, 43
1, 75217, Note_on_c, 0, 55, 62
1, 75229, Note_off_c, 0, 72, 53
1, 75230, Control_c, 0, 64, 46
1, 75245, Control_c, 0, 64, 48
1, 75260, Control_c, 0, 64, 51
1, 75274, Control_c, 0, 64, 53
1, 75289, Control_c, 0, 64, 54
1, 75319, Control_c, 0, 64, 53
1, 75334, Control_c, 0, 64, 53
1, 75335, Note_off_c, 0, 45, 37
1, 75356, Note_off_c, 0, 55, 64
1, 75360, Note_off_c, 0, 70, 61
1, 75363, Control_c, 0, 64, 52
1, 75364, Note_on_c, 0, 72, 57
1, 75365, Note_on_c, 0, 57, 62
1, 75378, Control_c, 0, 64, 51
1, 75393, Control_c, 0, 64, 49
1, 75408, Control_c, 0, 64, 48
1, 75423, Control_c, 0, 64, 47
1, 75438, Control_c, 0, 64, 45
1, 75453, Control_c, 0, 64, 44
1, 75467, Control_c, 0, 64, 44
1, 75482, Control_c, 0, 64, 43
1, 75496, Note_on_c, 0, 70, 62
1, 75497, Control_c, 0, 64, 43
1, 75512, Control_c, 0, 64, 42
1, 75541, Control_c, 0, 64, 42
1, 75556, Control_c, 0, 64, 41
1, 75586, Control_c, 0, 64, 41
1, 75630, Note_on_c, 0, 69, 60
1, 75632, Note_on_c, 0, 60, 57
1, 75784, Note_off_c, 0, 70, 22
1, 75784, Note_on_c, 0, 67, 59
1, 75798, Note_off_c, 0, 69, 59
1, 75880, Note_off_c, 0, 60, 54
1, 75889, Control_c, 0, 64, 41
1, 75929, Note_off_c, 0, 67, 62
1, 75938, Note_on_c, 0, 69, 59
1, 76061, Note_on_c, 0, 67, 58
1, 76142, Control_c, 0, 64, 42
1, 76207, Note_on_c, 0, 65, 68
1, 76209, Note_off_c, 0, 67, 56
1, 76231, Control_c, 0, 64, 42
1, 76242, Note_off_c, 0, 69, 60
1, 76323, Note_off_c, 0, 72, 64
1, 76347, Note_on_c, 0, 64, 68
1, 76357, Note_off_c, 0, 65, 58
1, 76472, Note_off_c, 0, 64, 63
1, 76481, Note_on_c, 0, 65, 73
1, 76483, Control_c, 0, 64, 42
1, 76487, Note_off_c, 0, 57, 33
1, 76527, Control_c, 0, 64, 41
1, 76564, Control_c, 0, 64, 41
1, 76594, Control_c, 0, 64, 40
1, 76609, Control_c, 0, 64, 40
1, 76623, Control_c, 0, 64, 39
1, 76630, Note_on_c, 0, 72, 82
1, 76632, Note_on_c, 0, 57, 67
1, 76638, Control_c, 0, 64, 39
1, 76653, Control_c, 0, 64, 38
1, 76657, Note_off_c, 0, 65, 53
1, 76668, Control_c, 0, 64, 37
1, 76683, Control_c, 0, 64, 36
1, 76697, Control_c, 0, 64, 34
1, 76712, Control_c, 0, 64, 34
1, 76727, Control_c, 0, 64, 32
1, 76741, Control_c, 0, 64, 31
1, 76756, Control_c, 0, 64, 29
1, 76769, Note_on_c, 0, 59, 69
1, 76770, Note_on_c, 0, 74, 84
1, 76771, Control_c, 0, 64, 29
1, 76786, Control_c, 0, 64, 27
1, 76801, Control_c, 0, 64, 24
1, 76802, Note_off_c, 0, 72, 62
1, 76817, Control_c, 0, 64, 18
1, 76832, Control_c, 0, 64, 0
1, 76903, Note_off_c, 0, 57, 26
1, 76912, Note_on_c, 0, 60, 73
1, 76920, Note_on_c, 0, 76, 85
1, 76949, Note_off_c, 0, 74, 63
1, 77008, Note_off_c, 0, 59, 26
1, 77049, Note_off_c, 0, 60, 59
1, 77051, Note_on_c, 0, 62, 74
1, 77061, Note_on_c, 0, 77, 90
1, 77083, Note_off_c, 0, 76, 63
1, 77209, Note_on_c, 0, 69, 67
1, 77358, Note_off_c, 0, 69, 61
1, 77361, Note_on_c, 0, 64, 62
1, 77361, Note_on_c, 0, 60, 58
1, 77361, Note_on_c, 0, 71, 69
1, 77368, Note_off_c, 0, 62, 53
1, 77507, Note_on_c, 0, 72, 69
1, 77515, Note_off_c, 0, 71, 55
1, 77639, Note_off_c, 0, 60, 59
1, 77647, Note_on_c, 0, 74, 63
1, 77656, Note_on_c, 0, 62, 68
1, 77678, Note_off_c, 0, 72, 59
1, 77686, Note_off_c, 0, 64, 52
1, 77783, Note_on_c, 0, 59, 62
1, 77807, Note_off_c, 0, 62, 50
1, 77917, Note_off_c, 0, 59, 58
1, 77923, Note_on_c, 0, 57, 63
1, 77934, Note_on_c, 0, 71, 62
1, 77951, Note_off_c, 0, 74, 57
1, 77966, Control_c, 0, 64, 10
1, 77981, Control_c, 0, 64, 25
1, 77995, Control_c, 0, 64, 32
1, 78010, Control_c, 0, 64, 37
1, 78025, Control_c, 0, 64, 43
1, 78047, Control_c, 0, 64, 51
1, 78048, Note_off_c, 0, 57, 58
1, 78052, Note_on_c, 0, 55, 66
1, 78054, Note_off_c, 0, 77, 29
1, 78062, Control_c, 0, 64, 57
1, 78076, Control_c, 0, 64, 61
1, 78091, Control_c, 0, 64, 63
1, 78106, Control_c, 0, 64, 65
1, 78121, Control_c, 0, 64, 66
1, 78136, Control_c, 0, 64, 67
1, 78151, Control_c, 0, 64, 68
1, 78166, Control_c, 0, 64, 69
1, 78180, Control_c, 0, 64, 70
1, 78195, Control_c, 0, 64, 70
1, 78198, Note_off_c, 0, 55, 49
1, 78207, Note_on_c, 0, 60, 65
1, 78207, Note_on_c, 0, 62, 64
1, 78209, Note_on_c, 0, 67, 69
1, 78210, Control_c, 0, 64, 71
1, 78225, Control_c, 0, 64, 71
1, 78255, Control_c, 0, 64, 72
1, 78313, Control_c, 0, 64, 72
1, 78326, Note_off_c, 0, 60, 61
1, 78339, Note_on_c, 0, 77, 84
1, 78351, Note_off_c, 0, 71, 58
1, 78374, Note_off_c, 0, 62, 58
1, 78463, Control_c, 0, 64, 72
1, 78478, Control_c, 0, 64, 71
1, 78484, Note_on_c, 0, 48, 67
1, 78484, Note_on_c, 0, 76, 86
1, 78487, Note_on_c, 0, 60, 63
1, 78492, Control_c, 0, 64, 69
1, 78507, Control_c, 0, 64, 67
1, 78522, Control_c, 0, 64, 63
1, 78536, Control_c, 0, 64, 56
1, 78544, Note_off_c, 0, 77, 49
1, 78551, Control_c, 0, 64, 50
1, 78561, Note_off_c, 0, 67, 41
1, 78566, Control_c, 0, 64, 47
1, 78581, Control_c, 0, 64, 46
1, 78596, Control_c, 0, 64, 45
1, 78610, Control_c, 0, 64, 43
1, 78614, Note_off_c, 0, 60, 57
1, 78623, Note_on_c, 0, 74, 77
1, 78625, Control_c, 0, 64, 40
1, 78627, Note_on_c, 0, 59, 66
1, 78640, Control_c, 0, 64, 35
1, 78655, Control_c, 0, 64, 30
1, 78660, Note_off_c, 0, 76, 60
1, 78670, Control_c, 0, 64, 27
1, 78685, Control_c, 0, 64, 25
1, 78699, Control_c, 0, 64, 24
1, 78714, Control_c, 0, 64, 23
1, 78729, Control_c, 0, 64, 21
1, 78744, Control_c, 0, 64, 17
1, 78758, Note_off_c, 0, 59, 60
1, 78759, Control_c, 0, 64, 10
1, 78761, Note_on_c, 0, 60, 67
1, 78762, Note_on_c, 0, 76, 85
1, 78770, Note_off_c, 0, 74, 66
1, 78774, Control_c, 0, 64, 0
1, 78912, Note_on_c, 0, 74, 62
1, 79056, Note_on_c, 0, 72, 68
1, 79182, Note_off_c, 0, 74, 54
1, 79187, Note_on_c, 0, 71, 62
1, 79213, Note_off_c, 0, 72, 62
1, 79331, Note_off_c, 0, 71, 60
1, 79337, Note_on_c, 0, 72, 69
1, 79471, Note_on_c, 0, 71, 56
1, 79604, Note_off_c, 0, 71, 59
1, 79618, Note_on_c, 0, 69, 57
1, 79748, Note_on_c, 0, 68, 50
1, 79756, Note_off_c, 0, 69, 61
1, 79809, Note_off_c, 0, 48, 42
1, 79904, Note_off_c, 0, 60, 60
1, 79913, Note_on_c, 0, 69, 62
1, 79951, Note_off_c, 0, 68, 38
1, 80053, Note_on_c, 0, 64, 65
1, 80190, Note_on_c, 0, 65, 75
1, 80199, Note_off_c, 0, 64, 58
1, 80258, Note_off_c, 0, 69, 45
1, 80309, Note_off_c, 0, 72, 55
1, 80329, Note_on_c, 0, 67, 78
1, 80335, Note_off_c, 0, 65, 63
1, 80490, Note_on_c, 0, 65, 77
1, 80499, Note_on_c, 0, 69, 67
1, 80499, Note_on_c, 0, 74, 65
1, 80501, Note_off_c, 0, 67, 59
1, 80503, Note_on_c, 0, 71, 68
1, 80546, Note_off_c, 0, 76, 55
1, 80622, Note_on_c, 0, 64, 70
1, 80640, Note_off_c, 0, 65, 54
1, 80759, Note_off_c, 0, 64, 64
1, 80762, Note_on_c, 0, 62, 76
1, 80899, Note_off_c, 0, 62, 60
1, 80906, Note_on_c, 0, 60, 73
1, 81052, Note_off_c, 0, 60, 59
1, 81057, Note_on_c, 0, 62, 67
1, 81190, Note_on_c, 0, 60, 64
1, 81278, Note_off_c, 0, 62, 25
1, 81328, Note_off_c, 0, 60, 59
1, 81330, Note_on_c, 0, 59, 69
1, 81455, Note_off_c, 0, 59, 60
1, 81465, Note_on_c, 0, 57, 61
1, 81590, Note_off_c, 0, 57, 61
1, 81605, Note_on_c, 0, 59, 56
1, 81606, Note_on_c, 0, 68, 64
1, 81609, Note_off_c, 0, 69, 55
1, 81650, Control_c, 0, 64, 10
1, 81733, Note_off_c, 0, 59, 58
1, 81738, Note_on_c, 0, 57, 60
1, 81878, Note_on_c, 0, 56, 62
1, 81883, Note_off_c, 0, 57, 53
1, 82006, Note_off_c, 0, 56, 60
1, 82014, Control_c, 0, 64, 0
1, 82017, Note_on_c, 0, 54, 59
1, 82168, Note_off_c, 0, 54, 57
1, 82177, Note_on_c, 0, 56, 57
1, 82178, Note_on_c, 0, 64, 51
1, 82304, Note_on_c, 0, 50, 59
1, 82309, Note_off_c, 0, 56, 55
1, 82458, Note_on_c, 0, 52, 71
1, 82467, Note_off_c, 0, 50, 57
1, 82597, Note_off_c, 0, 52, 65
1, 82608, Note_on_c, 0, 53, 71
1, 82690, Note_off_c, 0, 64, 48
1, 82742, Note_off_c, 0, 53, 65
1, 82747, Note_on_c, 0, 52, 68
1, 82829, Note_off_c, 0, 68, 58
1, 82875, Note_off_c, 0, 71, 55
1, 82876, Note_off_c, 0, 74, 48
1, 82884, Note_on_c, 0, 50, 61
1, 82887, Note_off_c, 0, 52, 54
1, 83005, Note_off_c, 0, 50, 60
1, 83020, Note_on_c, 0, 48, 65
1, 83156, Note_off_c, 0, 48, 60
1, 83161, Note_on_c, 0, 47, 65
1, 83302, Note_off_c, 0, 47, 60
1, 83313, Note_on_c, 0, 48, 61
1, 83463, Note_on_c, 0, 74, 55
1, 83611, Note_on_c, 0, 52, 55
1, 83617, Note_on_c, 0, 76, 70
1, 83626, Note_off_c, 0, 74, 61
1, 83751, Note_on_c, 0, 77, 73
1, 83773, Note_off_c, 0, 76, 61
1, 83895, Note_on_c, 0, 76, 74
1, 83899, Note_off_c, 0, 52, 62
1, 83901, Note_on_c, 0, 54, 63
1, 83932, Note_off_c, 0, 77, 53
1, 84041, Note_on_c, 0, 74, 70
1, 84068, Note_off_c, 0, 76, 62
1, 84185, Note_off_c, 0, 54, 62
1, 84186, Note_on_c, 0, 56, 61
1, 84187, Note_on_c, 0, 72, 77
1, 84198, Note_off_c, 0, 74, 58
1, 84316, Note_on_c, 0, 71, 74
1, 84321, Note_off_c, 0, 72, 62
1, 84452, Note_off_c, 0, 56, 58
1, 84455, Note_on_c, 0, 72, 76
1, 84463, Note_on_c, 0, 57, 69
1, 84465, Note_off_c, 0, 71, 54
1, 84601, Note_on_c, 0, 71, 72
1, 84629, Note_off_c, 0, 72, 58
1, 84736, Note_off_c, 0, 71, 61
1, 84737, Note_off_c, 0, 57, 59
1, 84745, Note_on_c, 0, 69, 69
1, 84748, Note_on_c, 0, 59, 64
1, 84874, Note_on_c, 0, 68, 69
1, 84911, Note_off_c, 0, 69, 58
1, 85021, Note_off_c, 0, 59, 59
1, 85022, Note_on_c, 0, 69, 75
1, 85028, Note_on_c, 0, 60, 65
1, 85029, Note_off_c, 0, 68, 64
1, 85141, Control_c, 0, 64, 43
1, 85155, Note_on_c, 0, 67, 62
1, 85156, Control_c, 0, 64, 57
1, 85170, Note_off_c, 0, 60, 52
1, 85171, Control_c, 0, 64, 62
1, 85186, Control_c, 0, 64, 64
1, 85201, Control_c, 0, 64, 66
1, 85216, Control_c, 0, 64, 67
1, 85231, Control_c, 0, 64, 69
1, 85246, Control_c, 0, 64, 70
1, 85260, Control_c, 0, 64, 72
1, 85275, Control_c, 0, 64, 72
1, 85290, Note_off_c, 0, 48, 42
1, 85304, Note_off_c, 0, 67, 57
1, 85305, Control_c, 0, 64, 71
1, 85308, Note_on_c, 0, 65, 62
1, 85308, Note_on_c, 0, 49, 59
1, 85314, Note_on_c, 0, 57, 45
1, 85320, Control_c, 0, 64, 69
1, 85335, Control_c, 0, 64, 64
1, 85349, Control_c, 0, 64, 41
1, 85364, Control_c, 0, 64, 0
1, 85394, Control_c, 0, 64, 49
1, 85409, Control_c, 0, 64, 62
1, 85424, Control_c, 0, 64, 65
1, 85439, Control_c, 0, 64, 68
1, 85452, Note_off_c, 0, 65, 61
1, 85453, Control_c, 0, 64, 70
1, 85459, Note_off_c, 0, 49, 58
1, 85461, Note_on_c, 0, 64, 62
1, 85468, Control_c, 0, 64, 72
1, 85483, Control_c, 0, 64, 74
1, 85498, Control_c, 0, 64, 75
1, 85512, Control_c, 0, 64, 76
1, 85534, Control_c, 0, 64, 76
1, 85579, Control_c, 0, 64, 76
1, 85594, Control_c, 0, 64, 73
1, 85597, Note_on_c, 0, 50, 73
1, 85606, Note_off_c, 0, 57, 59
1, 85609, Control_c, 0, 64, 69
1, 85610, Note_on_c, 0, 65, 73
1, 85615, Note_off_c, 0, 64, 59
1, 85624, Control_c, 0, 64, 62
1, 85639, Control_c, 0, 64, 28
1, 85654, Control_c, 0, 64, 0
1, 85749, Note_on_c, 0, 64, 66
1, 85753, Note_off_c, 0, 65, 60
1, 85860, Note_off_c, 0, 50, 52
1, 85870, Note_on_c, 0, 52, 67
1, 85877, Note_on_c, 0, 61, 65
1, 85887, Note_on_c, 0, 65, 71
1, 85912, Note_off_c, 0, 64, 50
1, 85981, Note_off_c, 0, 69, 57
1, 86023, Note_on_c, 0, 67, 74
1, 86054, Note_off_c, 0, 65, 62
1, 86109, Note_off_c, 0, 61, 58
1, 86163, Note_on_c, 0, 53, 61
1, 86168, Note_on_c, 0, 62, 64
1, 86181, Note_on_c, 0, 65, 72
1, 86192, Note_off_c, 0, 52, 55
1, 86201, Control_c, 0, 64, 24
1, 86212, Note_off_c, 0, 67, 55
1, 86216, Control_c, 0, 64, 40
1, 86231, Control_c, 0, 64, 50
1, 86246, Control_c, 0, 64, 56
1, 86260, Control_c, 0, 64, 60
1, 86283, Control_c, 0, 64, 62
1, 86283, Note_off_c, 0, 62, 58
1, 86297, Control_c, 0, 64, 63
1, 86312, Control_c, 0, 64, 64
1, 86324, Note_on_c, 0, 64, 67
1, 86324, Note_off_c, 0, 65, 61
1, 86327, Control_c, 0, 64, 65
1, 86342, Control_c, 0, 64, 66
1, 86357, Control_c, 0, 64, 66
1, 86372, Control_c, 0, 64, 67
1, 86446, Control_c, 0, 64, 66
1, 86457, Note_off_c, 0, 53, 50
1, 86457, Note_off_c, 0, 64, 65
1, 86458, Note_on_c, 0, 55, 60
1, 86458, Note_on_c, 0, 57, 55
1, 86461, Control_c, 0, 64, 65
1, 86462, Note_on_c, 0, 62, 72
1, 86476, Control_c, 0, 64, 62
1, 86491, Control_c, 0, 64, 47
1, 86506, Control_c, 0, 64, 10
1, 86521, Control_c, 0, 64, 0
1, 86550, Control_c, 0, 64, 17
1, 86565, Control_c, 0, 64, 34
1, 86578, Note_off_c, 0, 62, 60
1, 86580, Control_c, 0, 64, 38
1, 86590, Note_on_c, 0, 61, 64
1, 86610, Control_c, 0, 64, 41
1, 86624, Control_c, 0, 64, 50
1, 86639, Note_off_c, 0, 57, 36
1, 86639, Control_c, 0, 64, 58
1, 86654, Control_c, 0, 64, 63
1, 86669, Control_c, 0, 64, 65
1, 86683, Control_c, 0, 64, 68
1, 86698, Control_c, 0, 64, 70
1, 86701, Note_off_c, 0, 61, 62
1, 86713, Control_c, 0, 64, 73
1, 86724, Note_on_c, 0, 62, 72
1, 86728, Control_c, 0, 64, 75
1, 86743, Control_c, 0, 64, 76
1, 86745, Note_on_c, 0, 53, 68
1, 86754, Note_off_c, 0, 62, 63
1, 86757, Control_c, 0, 64, 77
1, 86871, Note_on_c, 0, 79, 76
1, 86901, Note_off_c, 0, 55, 19
1, 86950, Control_c, 0, 64, 76
1, 86965, Control_c, 0, 64, 75
1, 86980, Control_c, 0, 64, 73
1, 86995, Control_c, 0, 64, 71
1, 87004, Note_on_c, 0, 57, 70
1, 87009, Note_on_c, 0, 81, 82
1, 87010, Control_c, 0, 64, 67
1, 87012, Note_off_c, 0, 79, 63
1, 87031, Control_c, 0, 64, 61
1, 87046, Control_c, 0, 64, 49
1, 87061, Control_c, 0, 64, 37
1, 87076, Control_c, 0, 64, 34
1, 87090, Control_c, 0, 64, 36
1, 87120, Control_c, 0, 64, 34
1, 87135, Control_c, 0, 64, 31
1, 87150, Note_on_c, 0, 82, 85
1, 87150, Control_c, 0, 64, 28
1, 87154, Note_off_c, 0, 81, 62
1, 87165, Control_c, 0, 64, 27
1, 87180, Control_c, 0, 64, 26
1, 87225, Control_c, 0, 64, 25
1, 87282, Note_off_c, 0, 82, 59
1, 87284, Control_c, 0, 64, 26
1, 87294, Note_on_c, 0, 81, 83
1, 87300, Note_on_c, 0, 59, 71
1, 87308, Note_off_c, 0, 57, 62
1, 87359, Control_c, 0, 64, 27
1, 87388, Control_c, 0, 64, 28
1, 87403, Control_c, 0, 64, 29
1, 87422, Note_on_c, 0, 79, 80
1, 87448, Note_off_c, 0, 81, 59
1, 87477, Control_c, 0, 64, 29
1, 87551, Control_c, 0, 64, 30
1, 87563, Note_on_c, 0, 77, 83
1, 87575, Note_on_c, 0, 61, 70
1, 87585, Note_off_c, 0, 59, 53
1, 87597, Note_off_c, 0, 79, 58
1, 87640, Control_c, 0, 64, 31
1, 87693, Note_on_c, 0, 76, 77
1, 87713, Note_off_c, 0, 77, 54
1, 87743, Control_c, 0, 64, 32
1, 87839, Note_on_c, 0, 77, 73
1, 87848, Note_off_c, 0, 76, 58
1, 87852, Note_on_c, 0, 62, 66
1, 87855, Note_off_c, 0, 61, 54
1, 87869, Control_c, 0, 64, 32
1, 87974, Note_on_c, 0, 76, 67
1, 88007, Note_off_c, 0, 77, 52
1, 88115, Note_off_c, 0, 62, 60
1, 88116, Note_on_c, 0, 74, 55
1, 88116, Note_off_c, 0, 76, 57
1, 88123, Note_on_c, 0, 64, 56
1, 88152, Control_c, 0, 64, 36
1, 88166, Control_c, 0, 64, 42
1, 88181, Control_c, 0, 64, 49
1, 88196, Control_c, 0, 64, 55
1, 88211, Control_c, 0, 64, 60
1, 88226, Control_c, 0, 64, 63
1, 88241, Control_c, 0, 64, 65
1, 88253, Note_off_c, 0, 74, 64
1, 88256, Control_c, 0, 64, 67
1, 88262, Note_on_c, 0, 73, 68
1, 88271, Control_c, 0, 64, 69
1, 88285, Control_c, 0, 64, 72
1, 88300, Control_c, 0, 64, 73
1, 88315, Control_c, 0, 64, 75
1, 88329, Control_c, 0, 64, 75
1, 88366, Note_off_c, 0, 64, 63
1, 88401, Note_off_c, 0, 73, 61
1, 88402, Note_on_c, 0, 74, 65
1, 88405, Note_on_c, 0, 65, 68
1, 88426, Note_off_c, 0, 53, 14
1, 88447, Control_c, 0, 64, 75
1, 88462, Control_c, 0, 64, 74
1, 88477, Control_c, 0, 64, 74
1, 88492, Control_c, 0, 64, 73
1, 88507, Control_c, 0, 64, 71
1, 88529, Control_c, 0, 64, 69
1, 88544, Control_c, 0, 64, 67
1, 88545, Note_on_c, 0, 76, 74
1, 88550, Note_on_c, 0, 55, 60
1, 88556, Note_off_c, 0, 65, 39
1, 88556, Note_off_c, 0, 74, 58
1, 88559, Control_c, 0, 64, 63
1, 88574, Control_c, 0, 64, 60
1, 88589, Control_c, 0, 64, 58
1, 88603, Control_c, 0, 64, 58
1, 88618, Control_c, 0, 64, 57
1, 88633, Control_c, 0, 64, 57
1, 88647, Control_c, 0, 64, 55
1, 88662, Control_c, 0, 64, 52
1, 88677, Control_c, 0, 64, 50
1, 88685, Note_on_c, 0, 77, 78
1, 88690, Note_on_c, 0, 57, 67
1, 88692, Control_c, 0, 64, 48
1, 88696, Note_off_c, 0, 76, 62
1, 88706, Note_off_c, 0, 55, 58
1, 88707, Control_c, 0, 64, 47
1, 88721, Control_c, 0, 64, 46
1, 88736, Control_c, 0, 64, 45
1, 88751, Control_c, 0, 64, 43
1, 88766, Control_c, 0, 64, 42
1, 88781, Control_c, 0, 64, 41
1, 88797, Control_c, 0, 64, 40
1, 88812, Control_c, 0, 64, 38
1, 88819, Note_on_c, 0, 79, 81
1, 88820, Note_off_c, 0, 57, 61
1, 88825, Note_on_c, 0, 58, 74
1, 88826, Control_c, 0, 64, 37
1, 88831, Note_off_c, 0, 77, 55
1, 88841, Control_c, 0, 64, 35
1, 88856, Control_c, 0, 64, 33
1, 88870, Control_c, 0, 64, 32
1, 88885, Control_c, 0, 64, 31
1, 88900, Control_c, 0, 64, 30
1, 88915, Control_c, 0, 64, 29
1, 88946, Control_c, 0, 64, 29
1, 88960, Note_on_c, 0, 77, 78
1, 88970, Note_on_c, 0, 57, 67
1, 88975, Control_c, 0, 64, 28
1, 88989, Note_off_c, 0, 79, 57
1, 88990, Control_c, 0, 64, 27
1, 88991, Note_off_c, 0, 58, 60
1, 89005, Control_c, 0, 64, 26
1, 89020, Control_c, 0, 64, 25
1, 89034, Control_c, 0, 64, 24
1, 89099, Note_on_c, 0, 76, 78
1, 89101, Note_on_c, 0, 55, 66
1, 89108, Control_c, 0, 64, 23
1, 89110, Note_off_c, 0, 57, 56
1, 89114, Note_off_c, 0, 77, 55
1, 89123, Control_c, 0, 64, 21
1, 89138, Control_c, 0, 64, 20
1, 89153, Control_c, 0, 64, 18
1, 89183, Control_c, 0, 64, 17
1, 89233, Note_off_c, 0, 55, 63
1, 89234, Note_on_c, 0, 53, 72
1, 89235, Note_off_c, 0, 76, 62
1, 89237, Note_on_c, 0, 74, 69
1, 89257, Control_c, 0, 64, 15
1, 89368, Control_c, 0, 64, 13
1, 89380, Note_on_c, 0, 73, 65
1, 89383, Note_off_c, 0, 53, 65
1, 89386, Note_on_c, 0, 52, 62
1, 89401, Note_off_c, 0, 74, 55
1, 89506, Note_off_c, 0, 52, 64
1, 89520, Note_on_c, 0, 53, 59
1, 89524, Note_off_c, 0, 73, 60
1, 89526, Note_on_c, 0, 74, 63
1, 89575, Control_c, 0, 64, 10
1, 89646, Note_off_c, 0, 53, 60
1, 89651, Note_on_c, 0, 52, 58
1, 89657, Note_on_c, 0, 72, 67
1, 89671, Note_off_c, 0, 74, 53
1, 89694, Control_c, 0, 64, 13
1, 89777, Note_off_c, 0, 52, 64
1, 89786, Note_on_c, 0, 50, 62
1, 89797, Note_on_c, 0, 70, 68
1, 89800, Note_off_c, 0, 72, 59
1, 89827, Control_c, 0, 64, 10
1, 89886, Control_c, 0, 64, 13
1, 89902, Note_off_c, 0, 50, 57
1, 89925, Note_on_c, 0, 49, 59
1, 89928, Note_on_c, 0, 69, 67
1, 89932, Note_off_c, 0, 70, 56
1, 90078, Note_off_c, 0, 49, 61
1, 90085, Note_on_c, 0, 50, 52
1, 90085, Note_on_c, 0, 70, 66
1, 90107, Note_off_c, 0, 69, 50
1, 90131, Control_c, 0, 64, 15
1, 90229, Note_on_c, 0, 72, 64
1, 90354, Note_on_c, 0, 53, 62
1, 90365, Note_on_c, 0, 74, 63
1, 90393, Note_off_c, 0, 72, 59
1, 90405, Note_off_c, 0, 70, 52
1, 90413, Control_c, 0, 64, 17
1, 90498, Note_on_c, 0, 75, 69
1, 90516, Control_c, 0, 64, 18
1, 90530, Note_off_c, 0, 74, 64
1, 90546, Control_c, 0, 64, 20
1, 90590, Control_c, 0, 64, 21
1, 90620, Control_c, 0, 64, 23
1, 90635, Control_c, 0, 64, 24
1, 90640, Note_on_c, 0, 74, 71
1, 90641, Note_off_c, 0, 53, 64
1, 90650, Note_on_c, 0, 58, 63
1, 90678, Note_off_c, 0, 75, 56
1, 90679, Control_c, 0, 64, 25
1, 90754, Control_c, 0, 64, 26
1, 90787, Note_on_c, 0, 72, 71
1, 90800, Note_off_c, 0, 74, 58
1, 90864, Control_c, 0, 64, 25
1, 90918, Note_off_c, 0, 58, 54
1, 90926, Note_on_c, 0, 70, 66
1, 90929, Note_on_c, 0, 60, 53
1, 90945, Note_off_c, 0, 72, 58
1, 90969, Control_c, 0, 64, 24
1, 91056, Note_off_c, 0, 70, 62
1, 91059, Note_on_c, 0, 69, 64
1, 91131, Control_c, 0, 64, 23
1, 91179, Note_off_c, 0, 69, 59
1, 91191, Note_on_c, 0, 70, 62
1, 91206, Note_on_c, 0, 62, 57
1, 91213, Note_off_c, 0, 60, 52
1, 91317, Note_on_c, 0, 69, 55
1, 91324, Note_off_c, 0, 70, 50
1, 91463, Note_off_c, 0, 69, 61
1, 91470, Note_on_c, 0, 68, 61
1, 91472, Note_off_c, 0, 62, 57
1, 91482, Note_on_c, 0, 60, 43
1, 91606, Note_on_c, 0, 66, 53
1, 91615, Note_off_c, 0, 68, 55
1, 91720, Note_off_c, 0, 60, 51
1, 91766, Note_on_c, 0, 59, 48
1, 91773, Note_on_c, 0, 68, 56
1, 91778, Note_off_c, 0, 50, 41
1, 91783, Note_off_c, 0, 66, 56
1, 91903, Note_on_c, 0, 50, 45
1, 92045, Control_c, 0, 64, 21
1, 92046, Note_on_c, 0, 52, 60
1, 92063, Note_on_c, 0, 64, 61
1, 92064, Note_off_c, 0, 50, 35
1, 92070, Note_off_c, 0, 59, 36
1, 92092, Note_off_c, 0, 68, 58
1, 92149, Control_c, 0, 64, 20
1, 92191, Note_off_c, 0, 52, 59
1, 92192, Note_on_c, 0, 53, 65
1, 92304, Control_c, 0, 64, 18
1, 92349, Note_on_c, 0, 68, 79
1, 92356, Note_on_c, 0, 52, 68
1, 92368, Note_off_c, 0, 53, 61
1, 92496, Note_on_c, 0, 50, 69
1, 92511, Control_c, 0, 64, 17
1, 92516, Note_off_c, 0, 52, 59
1, 92614, Control_c, 0, 64, 15
1, 92632, Note_on_c, 0, 48, 73
1, 92634, Note_on_c, 0, 71, 81
1, 92635, Note_off_c, 0, 50, 61
1, 92659, Control_c, 0, 64, 13
1, 92674, Control_c, 0, 64, 10
1, 92718, Control_c, 0, 64, 0
1, 92772, Note_on_c, 0, 47, 66
1, 92790, Note_off_c, 0, 48, 65
1, 92913, Note_off_c, 0, 47, 65
1, 92919, Note_on_c, 0, 74, 79
1, 92930, Note_on_c, 0, 48, 68
1, 93079, Note_off_c, 0, 48, 56
1, 93082, Note_on_c, 0, 47, 56
1, 93226, Note_on_c, 0, 45, 68
1, 93228, Note_off_c, 0, 47, 61
1, 93363, Note_off_c, 0, 45, 59
1, 93367, Note_on_c, 0, 44, 71
1, 93511, Note_off_c, 0, 44, 64
1, 93517, Note_on_c, 0, 45, 74
1, 93535, Note_off_c, 0, 64, 62
1, 93543, Note_off_c, 0, 68, 38
1, 93566, Note_off_c, 0, 71, 53
1, 93657, Note_on_c, 0, 41, 71
1, 93746, Note_off_c, 0, 45, 35
1, 93799, Note_off_c, 0, 74, 64
1, 93807, Note_on_c, 0, 72, 80
1, 93814, Note_on_c, 0, 66, 80
1, 93818, Note_on_c, 0, 69, 62
1, 93824, Note_off_c, 0, 41, 60
1, 93828, Note_on_c, 0, 40, 70
1, 93905, Control_c, 0, 64, 37
1, 93920, Control_c, 0, 64, 52
1, 93935, Control_c, 0, 64, 60
1, 93942, Note_off_c, 0, 69, 56
1, 93949, Control_c, 0, 64, 64
1, 93951, Note_on_c, 0, 39, 66
1, 93958, Note_off_c, 0, 40, 56
1, 93964, Control_c, 0, 64, 67
1, 93978, Note_off_c, 0, 66, 65
1, 93979, Control_c, 0, 64, 70
1, 93994, Control_c, 0, 64, 73
1, 94009, Control_c, 0, 64, 75
1, 94024, Control_c, 0, 64, 76
1, 94039, Control_c, 0, 64, 77
1, 94094, Note_off_c, 0, 39, 63
1, 94098, Control_c, 0, 64, 77
1, 94099, Note_on_c, 0, 40, 69
1, 94113, Control_c, 0, 64, 75
1, 94113, Note_on_c, 0, 69, 72
1, 94121, Note_on_c, 0, 64, 69
1, 94122, Note_off_c, 0, 72, 59
1, 94128, Control_c, 0, 64, 73
1, 94142, Control_c, 0, 64, 71
1, 94157, Control_c, 0, 64, 66
1, 94172, Control_c, 0, 64, 60
1, 94186, Control_c, 0, 64, 53
1, 94201, Control_c, 0, 64, 52
1, 94215, Control_c, 0, 64, 53
1, 94245, Control_c, 0, 64, 52
1, 94259, Note_on_c, 0, 72, 78
1, 94259, Control_c, 0, 64, 51
1, 94262, Note_on_c, 0, 45, 67
1, 94274, Control_c, 0, 64, 51
1, 94281, Note_off_c, 0, 69, 61
1, 94334, Control_c, 0, 64, 51
1, 94399, Note_on_c, 0, 47, 73
1, 94401, Note_off_c, 0, 45, 63
1, 94404, Note_on_c, 0, 71, 80
1, 94409, Control_c, 0, 64, 52
1, 94439, Note_off_c, 0, 72, 59
1, 94498, Control_c, 0, 64, 52
1, 94534, Note_off_c, 0, 47, 63
1, 94539, Note_on_c, 0, 48, 71
1, 94540, Note_on_c, 0, 69, 79
1, 94570, Note_off_c, 0, 71, 58
1, 94594, Control_c, 0, 64, 52
1, 94681, Note_on_c, 0, 50, 71
1, 94687, Note_on_c, 0, 71, 83
1, 94692, Note_off_c, 0, 48, 61
1, 94704, Note_off_c, 0, 69, 58
1, 94713, Control_c, 0, 64, 51
1, 94825, Note_on_c, 0, 66, 70
1, 94832, Control_c, 0, 64, 51
1, 94841, Note_off_c, 0, 64, 54
1, 94876, Control_c, 0, 64, 50
1, 94960, Note_on_c, 0, 52, 68
1, 94962, Note_off_c, 0, 50, 58
1, 94965, Control_c, 0, 64, 50
1, 94968, Note_on_c, 0, 68, 76
1, 94995, Control_c, 0, 64, 49
1, 95007, Note_off_c, 0, 66, 57
1, 95024, Control_c, 0, 64, 51
1, 95039, Control_c, 0, 64, 54
1, 95054, Control_c, 0, 64, 58
1, 95069, Control_c, 0, 64, 61
1, 95070, Note_off_c, 0, 40, 41
1, 95081, Note_off_c, 0, 71, 53
1, 95083, Control_c, 0, 64, 63
1, 95098, Control_c, 0, 64, 65
1, 95112, Note_on_c, 0, 62, 68
1, 95113, Control_c, 0, 64, 68
1, 95128, Control_c, 0, 64, 70
1, 95143, Control_c, 0, 64, 72
1, 95157, Control_c, 0, 64, 73
1, 95172, Control_c, 0, 64, 74
1, 95188, Control_c, 0, 64, 75
1, 95270, Note_on_c, 0, 69, 82
1, 95276, Note_off_c, 0, 62, 59
1, 95279, Note_on_c, 0, 45, 64
1, 95285, Control_c, 0, 64, 74
1, 95299, Note_off_c, 0, 52, 50
1, 95300, Control_c, 0, 64, 72
1, 95310, Note_off_c, 0, 68, 62
1, 95315, Control_c, 0, 64, 70
1, 95329, Control_c, 0, 64, 66
1, 95344, Control_c, 0, 64, 60
1, 95359, Control_c, 0, 64, 51
1, 95374, Control_c, 0, 64, 47
1, 95388, Control_c, 0, 64, 48
1, 95409, Note_on_c, 0, 62, 67
1, 95433, Control_c, 0, 64, 48
1, 95447, Control_c, 0, 64, 47
1, 95462, Control_c, 0, 64, 47
1, 95477, Control_c, 0, 64, 46
1, 95492, Control_c, 0, 64, 46
1, 95507, Control_c, 0, 64, 45
1, 95521, Control_c, 0, 64, 44
1, 95539, Note_on_c, 0, 50, 56
1, 95553, Note_on_c, 0, 64, 67
1, 95567, Note_off_c, 0, 62, 47
1, 95581, Control_c, 0, 64, 44
1, 95595, Control_c, 0, 64, 43
1, 95610, Control_c, 0, 64, 42
1, 95625, Control_c, 0, 64, 41
1, 95640, Control_c, 0, 64, 40
1, 95654, Control_c, 0, 64, 40
1, 95669, Control_c, 0, 64, 39
1, 95684, Control_c, 0, 64, 38
1, 95687, Note_on_c, 0, 65, 71
1, 95699, Control_c, 0, 64, 37
1, 95713, Control_c, 0, 64, 37
1, 95722, Note_off_c, 0, 64, 59
1, 95728, Control_c, 0, 64, 36
1, 95743, Control_c, 0, 64, 34
1, 95758, Control_c, 0, 64, 32
1, 95773, Control_c, 0, 64, 29
1, 95787, Control_c, 0, 64, 29
1, 95802, Control_c, 0, 64, 28
1, 95824, Note_on_c, 0, 64, 78
1, 95831, Control_c, 0, 64, 27
1, 95836, Note_off_c, 0, 50, 59
1, 95837, Note_on_c, 0, 53, 63
1, 95846, Control_c, 0, 64, 25
1, 95861, Control_c, 0, 64, 23
1, 95876, Control_c, 0, 64, 18
1, 95891, Control_c, 0, 64, 13
1, 95906, Control_c, 0, 64, 0
1, 95971, Note_on_c, 0, 62, 74
1, 95994, Note_off_c, 0, 65, 38
1, 96042, Note_off_c, 0, 64, 54
1, 96107, Control_c, 0, 64, 34
1, 96121, Note_off_c, 0, 62, 62
1, 96122, Note_on_c, 0, 56, 60
1, 96122, Note_on_c, 0, 61, 75
1, 96122, Control_c, 0, 64, 55
1, 96127, Note_off_c, 0, 53, 57
1, 96136, Control_c, 0, 64, 61
1, 96151, Control_c, 0, 64, 64
1, 96164, Poly_aftertouch_c, 0, 64, 127
1, 96166, Control_c, 0, 64, 67
1, 96181, Control_c, 0, 64, 71
1, 96182, Note_off_c, 0, 61, 61
1, 96196, Control_c, 0, 64, 75
1, 96197, Note_off_c, 0, 56, 61
1, 96210, Control_c, 0, 64, 78
1, 96225, Control_c, 0, 64, 80
1, 96240, Control_c, 0, 64, 81
1, 96255, Control_c, 0, 64, 81
1, 96266, Note_on_c, 0, 59, 70
1, 96300, Poly_aftertouch_c, 0, 64, 0
1, 96325, Note_off_c, 0, 59, 59
1, 96432, Control_c, 0, 64, 81
1, 96434, Note_off_c, 0, 45, 56
1, 96444, Note_on_c, 0, 57, 63
1, 96447, Control_c, 0, 64, 79
1, 96449, Note_on_c, 0, 61, 69
1, 96456, Note_on_c, 0, 52, 62
1, 96461, Control_c, 0, 64, 77
1, 96476, Control_c, 0, 64, 73
1, 96491, Control_c, 0, 64, 69
1, 96506, Control_c, 0, 64, 63
1, 96510, Note_off_c, 0, 69, 50
1, 96521, Control_c, 0, 64, 50
1, 96535, Control_c, 0, 64, 23
1, 96550, Control_c, 0, 64, 17
1, 96565, Control_c, 0, 64, 23
1, 96603, Note_on_c, 0, 46, 59
1, 96609, Control_c, 0, 64, 21
1, 96624, Control_c, 0, 64, 20
1, 96654, Control_c, 0, 64, 18
1, 96717, Note_off_c, 0, 57, 53
1, 96762, Note_on_c, 0, 45, 59
1, 96780, Control_c, 0, 64, 17
1, 96804, Note_off_c, 0, 46, 36
1, 96811, Control_c, 0, 64, 15
1, 96832, Note_off_c, 0, 61, 57
1, 96840, Control_c, 0, 64, 13
1, 96862, Note_off_c, 0, 52, 31
1, 96907, Note_off_c, 0, 45, 59
1, 96910, Note_on_c, 0, 43, 62
1, 96914, Control_c, 0, 64, 10
1, 96929, Control_c, 0, 64, 0
1, 97058, Note_off_c, 0, 43, 55
1, 97069, Note_on_c, 0, 41, 60
1, 97229, Note_on_c, 0, 76, 45
1, 97363, Note_on_c, 0, 77, 58
1, 97479, Note_off_c, 0, 76, 27
1, 97493, Note_on_c, 0, 79, 64
1, 97532, Note_off_c, 0, 77, 59
1, 97634, Note_off_c, 0, 41, 53
1, 97650, Note_on_c, 0, 53, 56
1, 97651, Note_on_c, 0, 77, 76
1, 97680, Note_off_c, 0, 79, 49
1, 97779, Note_on_c, 0, 76, 70
1, 97807, Note_off_c, 0, 77, 58
1, 97925, Note_on_c, 0, 74, 71
1, 97947, Note_off_c, 0, 76, 59
1, 98062, Note_on_c, 0, 72, 71
1, 98081, Note_off_c, 0, 74, 58
1, 98194, Note_on_c, 0, 57, 53
1, 98206, Note_on_c, 0, 74, 58
1, 98207, Note_off_c, 0, 72, 58
1, 98338, Note_on_c, 0, 72, 71
1, 98379, Note_off_c, 0, 74, 56
1, 98482, Note_on_c, 0, 70, 70
1, 98483, Note_off_c, 0, 72, 61
1, 98617, Note_off_c, 0, 70, 62
1, 98624, Note_on_c, 0, 69, 62
1, 98762, Note_off_c, 0, 69, 62
1, 98768, Note_on_c, 0, 70, 65
1, 98773, Note_off_c, 0, 57, 55
1, 98785, Note_on_c, 0, 62, 52
1, 98893, Note_on_c, 0, 69, 60
1, 99056, Note_on_c, 0, 67, 59
1, 99069, Note_off_c, 0, 69, 55
1, 99206, Note_on_c, 0, 65, 56
1, 99207, Note_off_c, 0, 67, 56
1, 99315, Note_off_c, 0, 65, 61
1, 99319, Note_off_c, 0, 62, 55
1, 99331, Note_on_c, 0, 58, 51
1, 99354, Note_on_c, 0, 67, 57
1, 99497, Note_on_c, 0, 65, 58
1, 99606, Note_off_c, 0, 65, 58
1, 99613, Note_on_c, 0, 64, 57
1, 99744, Note_off_c, 0, 64, 56
1, 99772, Note_on_c, 0, 62, 55
1, 99879, Note_off_c, 0, 58, 58
1, 99904, Note_on_c, 0, 55, 45
1, 99905, Note_on_c, 0, 64, 48
1, 99912, Note_off_c, 0, 62, 47
1, 100037, Note_on_c, 0, 58, 51
1, 100062, Note_off_c, 0, 55, 37
1, 100185, Note_on_c, 0, 60, 61
1, 100194, Note_off_c, 0, 58, 59
1, 100321, Note_on_c, 0, 62, 62
1, 100321, Note_off_c, 0, 60, 59
1, 100368, Note_off_c, 0, 70, 30
1, 100472, Note_on_c, 0, 60, 68
1, 100485, Note_off_c, 0, 62, 57
1, 100582, Note_off_c, 0, 64, 55
1, 100612, Note_on_c, 0, 58, 67
1, 100612, Note_off_c, 0, 53, 30
1, 100626, Note_off_c, 0, 60, 58
1, 100680, Note_off_c, 0, 67, 56
1, 100755, Note_off_c, 0, 58, 64
1, 100758, Note_on_c, 0, 57, 64
1, 100886, Note_off_c, 0, 57, 60
1, 100892, Note_on_c, 0, 55, 64
1, 101026, Note_on_c, 0, 69, 76
1, 101028, Note_off_c, 0, 55, 63
1, 101039, Note_on_c, 0, 57, 54
1, 101042, Note_on_c, 0, 65, 60
1, 101046, Note_on_c, 0, 60, 52
1, 101178, Note_on_c, 0, 55, 67
1, 101286, Note_off_c, 0, 57, 24
1, 101331, Note_on_c, 0, 53, 67
1, 101336, Note_off_c, 0, 55, 60
1, 101389, Note_off_c, 0, 60, 40
1, 101467, Note_off_c, 0, 53, 63
1, 101474, Note_on_c, 0, 52, 72
1, 101602, Note_off_c, 0, 52, 65
1, 101617, Note_on_c, 0, 68, 78
1, 101618, Note_on_c, 0, 53, 70
1, 101642, Note_on_c, 0, 62, 45
1, 101674, Note_off_c, 0, 69, 60
1, 101760, Note_on_c, 0, 50, 63
1, 101905, Note_off_c, 0, 50, 61
1, 101911, Note_on_c, 0, 48, 65
1, 101935, Note_off_c, 0, 65, 55
1, 101952, Note_off_c, 0, 62, 51
1, 102064, Note_on_c, 0, 47, 70
1, 102069, Note_off_c, 0, 48, 58
1, 102090, Note_off_c, 0, 53, 37
1, 102201, Note_off_c, 0, 68, 64
1, 102205, Note_on_c, 0, 65, 64
1, 102207, Note_on_c, 0, 48, 62
1, 102214, Note_off_c, 0, 47, 62
1, 102222, Note_on_c, 0, 60, 47
1, 102346, Note_on_c, 0, 68, 68
1, 102353, Note_on_c, 0, 53, 63
1, 102375, Note_off_c, 0, 65, 59
1, 102478, Note_off_c, 0, 53, 63
1, 102486, Note_off_c, 0, 60, 52
1, 102490, Note_on_c, 0, 52, 65
1, 102493, Note_on_c, 0, 67, 70
1, 102512, Note_off_c, 0, 68, 41
1, 102621, Note_off_c, 0, 52, 62
1, 102627, Note_off_c, 0, 67, 59
1, 102633, Note_on_c, 0, 65, 66
1, 102634, Note_on_c, 0, 50, 58
1, 102776, Note_off_c, 0, 65, 65
1, 102779, Note_on_c, 0, 67, 67
1, 102784, Note_off_c, 0, 50, 59
1, 102794, Note_on_c, 0, 52, 57
1, 102930, Note_on_c, 0, 65, 52
1, 103062, Note_on_c, 0, 55, 51
1, 103064, Note_off_c, 0, 65, 60
1, 103077, Note_on_c, 0, 64, 53
1, 103123, Note_off_c, 0, 52, 29
1, 103193, Note_off_c, 0, 64, 61
1, 103216, Note_on_c, 0, 62, 50
1, 103354, Note_off_c, 0, 67, 56
1, 103359, Note_on_c, 0, 64, 57
1, 103360, Note_off_c, 0, 62, 56
1, 103375, Note_on_c, 0, 60, 51
1, 103401, Note_off_c, 0, 55, 57
1, 103423, Note_off_c, 0, 48, 60
1, 103509, Note_on_c, 0, 50, 50
1, 103628, Note_off_c, 0, 50, 61
1, 103653, Note_on_c, 0, 55, 46
1, 103658, Note_on_c, 0, 48, 53
1, 103776, Note_off_c, 0, 48, 59
1, 103780, Note_off_c, 0, 60, 51
1, 103788, Note_on_c, 0, 46, 57
1, 103869, Note_off_c, 0, 64, 60
1, 103914, Note_off_c, 0, 55, 38
1, 103928, Note_off_c, 0, 46, 55
1, 103942, Note_on_c, 0, 45, 52
1, 104088, Note_on_c, 0, 60, 47
1, 104202, Note_off_c, 0, 45, 58
1, 104213, Note_off_c, 0, 60, 55
1, 104219, Note_on_c, 0, 62, 56
1, 104236, Note_on_c, 0, 55, 48
1, 104351, Note_on_c, 0, 63, 63
1, 104369, Note_off_c, 0, 62, 54
1, 104487, Note_off_c, 0, 55, 58
1, 104505, Note_on_c, 0, 54, 54
1, 104505, Note_on_c, 0, 62, 66
1, 104506, Note_on_c, 0, 50, 51
1, 104517, Note_off_c, 0, 63, 65
1, 104636, Note_on_c, 0, 64, 66
1, 104773, Note_on_c, 0, 66, 75
1, 104779, Note_on_c, 0, 58, 64
1, 104788, Note_off_c, 0, 64, 60
1, 104916, Note_on_c, 0, 67, 73
1, 104922, Note_off_c, 0, 66, 66
1, 104963, Note_off_c, 0, 54, 29
1, 105056, Note_off_c, 0, 58, 60
1, 105062, Note_on_c, 0, 57, 59
1, 105068, Note_on_c, 0, 66, 78
1, 105077, Note_off_c, 0, 67, 61
1, 105200, Note_on_c, 0, 69, 72
1, 105255, Note_off_c, 0, 50, 42
1, 105342, Note_on_c, 0, 70, 74
1, 105394, Note_off_c, 0, 69, 61
1, 105483, Note_on_c, 0, 72, 81
1, 105531, Note_off_c, 0, 70, 54
1, 105613, Note_on_c, 0, 43, 55
1, 105685, Note_off_c, 0, 57, 28
1, 105762, Note_off_c, 0, 66, 59
1, 105775, Note_on_c, 0, 69, 59
1, 105889, Note_off_c, 0, 69, 59
1, 105900, Note_on_c, 0, 50, 49
1, 105909, Note_on_c, 0, 67, 56
1, 105974, Note_off_c, 0, 72, 48
1, 106044, Note_on_c, 0, 66, 59
1, 106073, Note_off_c, 0, 67, 51
1, 106198, Note_on_c, 0, 67, 63
1, 106203, Note_on_c, 0, 46, 55
1, 106204, Note_off_c, 0, 50, 56
1, 106280, Note_off_c, 0, 43, 23
1, 106337, Note_on_c, 0, 69, 64
1, 106356, Note_off_c, 0, 66, 38
1, 106365, Note_off_c, 0, 67, 49
1, 106416, Note_off_c, 0, 62, 32
1, 106473, Note_off_c, 0, 46, 60
1, 106478, Note_on_c, 0, 70, 61
1, 106499, Note_on_c, 0, 55, 50
1, 106517, Note_off_c, 0, 69, 60
1, 106626, Note_on_c, 0, 67, 57
1, 106761, Note_on_c, 0, 50, 55
1, 106767, Note_on_c, 0, 62, 61
1, 106782, Note_off_c, 0, 67, 52
1, 106786, Note_off_c, 0, 55, 37
1, 106898, Note_on_c, 0, 54, 64
1, 106959, Note_off_c, 0, 50, 35
1, 107029, Note_on_c, 0, 55, 74
1, 107069, Note_off_c, 0, 54, 57
1, 107171, Note_off_c, 0, 62, 57
1, 107175, Note_on_c, 0, 57, 72
1, 107179, Note_off_c, 0, 55, 65
1, 107255, Note_off_c, 0, 70, 56
1, 107328, Note_on_c, 0, 55, 58
1, 107331, Note_on_c, 0, 58, 70
1, 107331, Note_off_c, 0, 57, 58
1, 107472, Note_on_c, 0, 67, 70
1, 107603, Note_on_c, 0, 69, 73
1, 107614, Note_off_c, 0, 67, 59
1, 107734, Note_on_c, 0, 70, 77
1, 107772, Note_off_c, 0, 69, 58
1, 107877, Note_off_c, 0, 70, 63
1, 107879, Note_on_c, 0, 57, 67
1, 107891, Note_on_c, 0, 72, 81
1, 107910, Note_off_c, 0, 55, 57
1, 107919, Note_off_c, 0, 58, 58
1, 108020, Note_on_c, 0, 74, 69
1, 108085, Note_off_c, 0, 72, 46
1, 108159, Note_on_c, 0, 75, 74
1, 108164, Note_off_c, 0, 74, 61
1, 108302, Note_on_c, 0, 70, 68
1, 108416, Note_off_c, 0, 57, 61
1, 108443, Note_on_c, 0, 53, 64
1, 108443, Note_on_c, 0, 69, 73
1, 108444, Note_off_c, 0, 70, 61
1, 108487, Control_c, 0, 64, 23
1, 108502, Control_c, 0, 64, 53
1, 108516, Control_c, 0, 64, 60
1, 108531, Control_c, 0, 64, 64
1, 108535, Note_off_c, 0, 53, 66
1, 108546, Control_c, 0, 64, 66
1, 108561, Control_c, 0, 64, 68
1, 108575, Control_c, 0, 64, 71
1, 108580, Note_on_c, 0, 67, 77
1, 108590, Control_c, 0, 64, 74
1, 108605, Control_c, 0, 64, 76
1, 108620, Control_c, 0, 64, 76
1, 108635, Control_c, 0, 64, 77
1, 108720, Note_on_c, 0, 65, 78
1, 108720, Note_off_c, 0, 67, 61
1, 108761, Control_c, 0, 64, 76
1, 108776, Control_c, 0, 64, 76
1, 108791, Control_c, 0, 64, 75
1, 108806, Control_c, 0, 64, 73
1, 108821, Control_c, 0, 64, 70
1, 108836, Control_c, 0, 64, 65
1, 108851, Control_c, 0, 64, 57
1, 108860, Note_on_c, 0, 63, 68
1, 108862, Note_off_c, 0, 65, 60
1, 108865, Control_c, 0, 64, 42
1, 108880, Control_c, 0, 64, 30
1, 108889, Note_off_c, 0, 69, 56
1, 108895, Control_c, 0, 64, 29
1, 108910, Control_c, 0, 64, 30
1, 108939, Control_c, 0, 64, 29
1, 108954, Control_c, 0, 64, 29
1, 108990, Note_off_c, 0, 63, 64
1, 108995, Note_on_c, 0, 62, 70
1, 108998, Control_c, 0, 64, 28
1, 109006, Note_off_c, 0, 75, 64
1, 109113, Note_off_c, 0, 62, 59
1, 109127, Note_on_c, 0, 60, 68
1, 109262, Note_off_c, 0, 60, 58
1, 109265, Note_on_c, 0, 58, 68
1, 109339, Control_c, 0, 64, 29
1, 109394, Note_on_c, 0, 57, 64
1, 109399, Note_off_c, 0, 58, 62
1, 109550, Note_on_c, 0, 55, 58
1, 109555, Note_on_c, 0, 74, 66
1, 109568, Note_on_c, 0, 65, 57
1, 109569, Note_on_c, 0, 70, 66
1, 109593, Note_off_c, 0, 57, 37
1, 109671, Note_off_c, 0, 55, 61
1, 109674, Control_c, 0, 64, 29
1, 109686, Note_on_c, 0, 58, 60
1, 109777, Control_c, 0, 64, 30
1, 109792, Control_c, 0, 64, 34
1, 109800, Note_off_c, 0, 58, 63
1, 109807, Control_c, 0, 64, 40
1, 109821, Control_c, 0, 64, 46
1, 109826, Note_off_c, 0, 74, 52
1, 109827, Note_on_c, 0, 50, 68
1, 109827, Note_on_c, 0, 69, 73
1, 109827, Note_on_c, 0, 72, 77
1, 109836, Control_c, 0, 64, 53
1, 109851, Control_c, 0, 64, 58
1, 109861, Note_off_c, 0, 70, 61
1, 109866, Control_c, 0, 64, 62
1, 109881, Control_c, 0, 64, 64
1, 109895, Control_c, 0, 64, 64
1, 109910, Control_c, 0, 64, 65
1, 109921, Note_off_c, 0, 50, 60
1, 109925, Control_c, 0, 64, 67
1, 109932, Note_on_c, 0, 51, 67
1, 109940, Control_c, 0, 64, 69
1, 109955, Control_c, 0, 64, 72
1, 109969, Control_c, 0, 64, 73
1, 109984, Control_c, 0, 64, 74
1, 109999, Control_c, 0, 64, 75
1, 110013, Control_c, 0, 64, 76
1, 110016, Note_off_c, 0, 51, 60
1, 110030, Note_on_c, 0, 53, 57
1, 110096, Note_off_c, 0, 53, 65
1, 110118, Control_c, 0, 64, 75
1, 110124, Note_on_c, 0, 74, 73
1, 110126, Note_on_c, 0, 51, 68
1, 110133, Note_off_c, 0, 69, 36
1, 110133, Control_c, 0, 64, 74
1, 110141, Note_on_c, 0, 70, 66
1, 110148, Control_c, 0, 64, 72
1, 110162, Control_c, 0, 64, 69
1, 110174, Note_off_c, 0, 72, 61
1, 110177, Control_c, 0, 64, 65
1, 110192, Control_c, 0, 64, 61
1, 110206, Control_c, 0, 64, 60
1, 110221, Control_c, 0, 64, 63
1, 110243, Control_c, 0, 64, 65
1, 110244, Note_off_c, 0, 51, 59
1, 110258, Control_c, 0, 64, 66
1, 110259, Note_on_c, 0, 50, 59
1, 110273, Control_c, 0, 64, 69
1, 110288, Control_c, 0, 64, 70
1, 110303, Control_c, 0, 64, 72
1, 110318, Control_c, 0, 64, 73
1, 110332, Control_c, 0, 64, 73
1, 110347, Control_c, 0, 64, 74
1, 110371, Note_off_c, 0, 50, 63
1, 110389, Note_on_c, 0, 68, 74
1, 110394, Note_on_c, 0, 48, 63
1, 110398, Note_off_c, 0, 65, 51
1, 110422, Control_c, 0, 64, 73
1, 110437, Control_c, 0, 64, 72
1, 110452, Control_c, 0, 64, 68
1, 110467, Control_c, 0, 64, 64
1, 110481, Note_off_c, 0, 48, 57
1, 110481, Control_c, 0, 64, 55
1, 110483, Note_off_c, 0, 70, 54
1, 110496, Note_off_c, 0, 74, 38
1, 110496, Control_c, 0, 64, 42
1, 110505, Note_on_c, 0, 46, 61
1, 110511, Control_c, 0, 64, 34
1, 110526, Control_c, 0, 64, 34
1, 110541, Control_c, 0, 64, 31
1, 110556, Control_c, 0, 64, 26
1, 110571, Control_c, 0, 64, 17
1, 110586, Control_c, 0, 64, 0
1, 110654, Note_off_c, 0, 46, 63
1, 110668, Note_on_c, 0, 51, 69
1, 110792, Note_on_c, 0, 65, 70
1, 110818, Note_off_c, 0, 68, 54
1, 110941, Note_on_c, 0, 50, 65
1, 110941, Note_on_c, 0, 67, 79
1, 110960, Note_off_c, 0, 51, 49
1, 111023, Note_off_c, 0, 65, 37
1, 111085, Note_on_c, 0, 68, 74
1, 111113, Note_off_c, 0, 67, 58
1, 111230, Note_on_c, 0, 72, 70
1, 111241, Note_off_c, 0, 68, 59
1, 111244, Note_on_c, 0, 67, 70
1, 111247, Note_on_c, 0, 51, 59
1, 111261, Note_off_c, 0, 50, 50
1, 111358, Note_off_c, 0, 67, 59
1, 111376, Note_on_c, 0, 65, 60
1, 111467, Control_c, 0, 64, 10
1, 111482, Control_c, 0, 64, 15
1, 111494, Note_off_c, 0, 65, 59
1, 111497, Control_c, 0, 64, 17
1, 111512, Control_c, 0, 64, 18
1, 111522, Note_on_c, 0, 63, 56
1, 111527, Control_c, 0, 64, 21
1, 111541, Control_c, 0, 64, 24
1, 111556, Control_c, 0, 64, 25
1, 111571, Control_c, 0, 64, 26
1, 111647, Note_on_c, 0, 62, 64
1, 111650, Note_off_c, 0, 63, 59
1, 111704, Control_c, 0, 64, 27
1, 111716, Note_off_c, 0, 51, 62
1, 111719, Control_c, 0, 64, 28
1, 111741, Control_c, 0, 64, 32
1, 111756, Control_c, 0, 64, 44
1, 111771, Control_c, 0, 64, 53
1, 111786, Control_c, 0, 64, 60
1, 111790, Note_on_c, 0, 63, 68
1, 111790, Note_off_c, 0, 62, 56
1, 111800, Control_c, 0, 64, 64
1, 111815, Control_c, 0, 64, 66
1, 111830, Control_c, 0, 64, 68
1, 111845, Control_c, 0, 64, 71
1, 111859, Control_c, 0, 64, 73
1, 111867, Note_off_c, 0, 63, 66
1, 111874, Control_c, 0, 64, 74
1, 111889, Control_c, 0, 64, 75
1, 111901, Note_off_c, 0, 72, 60
1, 111919, Control_c, 0, 64, 76
1, 111932, Note_on_c, 0, 62, 55
1, 112023, Control_c, 0, 64, 75
1, 112035, Note_off_c, 0, 62, 57
1, 112038, Control_c, 0, 64, 75
1, 112053, Control_c, 0, 64, 72
1, 112062, Note_on_c, 0, 60, 61
1, 112068, Note_on_c, 0, 74, 67
1, 112068, Control_c, 0, 64, 67
1, 112082, Control_c, 0, 64, 57
1, 112097, Control_c, 0, 64, 0
1, 112142, Control_c, 0, 64, 34
1, 112157, Control_c, 0, 64, 57
1, 112172, Control_c, 0, 64, 64
1, 112187, Control_c, 0, 64, 67
1, 112201, Control_c, 0, 64, 71
1, 112204, Note_on_c, 0, 75, 76
1, 112210, Note_on_c, 0, 58, 71
1, 112212, Note_off_c, 0, 74, 56
1, 112216, Control_c, 0, 64, 75
1, 112220, Note_off_c, 0, 60, 61
1, 112231, Control_c, 0, 64, 78
1, 112246, Control_c, 0, 64, 79
1, 112248, Note_off_c, 0, 75, 59
1, 112254, Note_off_c, 0, 58, 61
1, 112261, Control_c, 0, 64, 80
1, 112362, Note_on_c, 0, 70, 80
1, 112373, Note_on_c, 0, 60, 64
1, 112383, Note_on_c, 0, 65, 60
1, 112394, Control_c, 0, 64, 78
1, 112408, Control_c, 0, 64, 76
1, 112423, Control_c, 0, 64, 72
1, 112438, Control_c, 0, 64, 67
1, 112453, Control_c, 0, 64, 57
1, 112468, Control_c, 0, 64, 25
1, 112490, Control_c, 0, 64, 0
1, 112503, Note_on_c, 0, 51, 63
1, 112655, Note_off_c, 0, 51, 59
1, 112656, Note_on_c, 0, 53, 72
1, 112659, Note_on_c, 0, 69, 81
1, 112693, Note_off_c, 0, 70, 59
1, 112786, Note_off_c, 0, 53, 62
1, 112787, Note_on_c, 0, 55, 60
1, 112938, Note_on_c, 0, 53, 63
1, 112945, Note_off_c, 0, 55, 61
1, 113073, Note_off_c, 0, 53, 62
1, 113081, Note_on_c, 0, 51, 62
1, 113201, Note_off_c, 0, 65, 34
1, 113202, Note_off_c, 0, 60, 51
1, 113208, Note_off_c, 0, 51, 62
1, 113221, Note_on_c, 0, 50, 65
1, 113354, Note_off_c, 0, 50, 61
1, 113364, Note_on_c, 0, 48, 60
1, 113493, Note_off_c, 0, 48, 62
1, 113506, Note_on_c, 0, 70, 63
1, 113515, Note_on_c, 0, 65, 52
1, 113521, Note_on_c, 0, 50, 50
1, 113527, Note_on_c, 0, 58, 49
1, 113528, Note_off_c, 0, 69, 48
1, 113637, Note_off_c, 0, 50, 56
1, 113644, Note_on_c, 0, 48, 55
1, 113766, Note_off_c, 0, 48, 58
1, 113779, Note_on_c, 0, 46, 59
1, 113801, Note_off_c, 0, 58, 61
1, 113901, Note_off_c, 0, 46, 56
1, 113919, Note_on_c, 0, 45, 57
1, 113933, Note_off_c, 0, 65, 37
1, 113952, Note_off_c, 0, 70, 56
1, 114067, Note_off_c, 0, 45, 58
1, 114086, Note_on_c, 0, 43, 60
1, 114208, Note_on_c, 0, 69, 59
1, 114359, Note_on_c, 0, 70, 68
1, 114364, Note_on_c, 0, 50, 54
1, 114374, Note_off_c, 0, 69, 62
1, 114490, Note_on_c, 0, 72, 72
1, 114517, Note_off_c, 0, 70, 57
1, 114632, Note_on_c, 0, 55, 59
1, 114637, Note_on_c, 0, 70, 74
1, 114663, Note_off_c, 0, 43, 40
1, 114663, Note_off_c, 0, 72, 57
1, 114785, Note_on_c, 0, 69, 75
1, 114819, Note_off_c, 0, 70, 57
1, 114935, Note_on_c, 0, 67, 72
1, 114935, Note_on_c, 0, 45, 62
1, 114939, Note_off_c, 0, 69, 61
1, 115065, Note_off_c, 0, 67, 62
1, 115066, Note_on_c, 0, 65, 70
1, 115213, Note_off_c, 0, 45, 59
1, 115217, Note_on_c, 0, 67, 72
1, 115220, Note_off_c, 0, 65, 62
1, 115224, Note_on_c, 0, 46, 57
1, 115355, Note_on_c, 0, 65, 67
1, 115501, Control_c, 0, 64, 39
1, 115505, Note_on_c, 0, 64, 65
1, 115516, Control_c, 0, 64, 55
1, 115531, Control_c, 0, 64, 61
1, 115542, Note_off_c, 0, 65, 54
1, 115543, Note_off_c, 0, 67, 17
1, 115546, Control_c, 0, 64, 63
1, 115560, Control_c, 0, 64, 65
1, 115575, Control_c, 0, 64, 67
1, 115590, Control_c, 0, 64, 68
1, 115605, Control_c, 0, 64, 70
1, 115620, Control_c, 0, 64, 71
1, 115633, Note_off_c, 0, 64, 63
1, 115634, Control_c, 0, 64, 73
1, 115641, Note_on_c, 0, 62, 66
1, 115649, Control_c, 0, 64, 74
1, 115664, Control_c, 0, 64, 74
1, 115767, Control_c, 0, 64, 73
1, 115780, Note_off_c, 0, 62, 53
1, 115782, Control_c, 0, 64, 71
1, 115793, Note_on_c, 0, 64, 68
1, 115797, Control_c, 0, 64, 68
1, 115812, Control_c, 0, 64, 63
1, 115826, Control_c, 0, 64, 55
1, 115841, Control_c, 0, 64, 45
1, 115856, Control_c, 0, 64, 39
1, 115871, Control_c, 0, 64, 39
1, 115916, Control_c, 0, 64, 38
1, 115937, Note_on_c, 0, 62, 55
1, 116020, Control_c, 0, 64, 39
1, 116050, Control_c, 0, 64, 39
1, 116065, Control_c, 0, 64, 40
1, 116068, Note_on_c, 0, 60, 55
1, 116088, Note_off_c, 0, 50, 25
1, 116211, Note_off_c, 0, 60, 57
1, 116213, Control_c, 0, 64, 40
1, 116217, Note_on_c, 0, 58, 57
1, 116250, Note_off_c, 0, 62, 16
1, 116357, Note_off_c, 0, 58, 62
1, 116364, Note_on_c, 0, 60, 54
1, 116413, Control_c, 0, 64, 41
1, 116443, Control_c, 0, 64, 42
1, 116457, Control_c, 0, 64, 43
1, 116472, Control_c, 0, 64, 44
1, 116487, Control_c, 0, 64, 45
1, 116499, Note_on_c, 0, 58, 52
1, 116502, Note_off_c, 0, 55, 41
1, 116502, Control_c, 0, 64, 47
1, 116517, Control_c, 0, 64, 50
1, 116531, Control_c, 0, 64, 54
1, 116546, Control_c, 0, 64, 57
1, 116561, Control_c, 0, 64, 60
1, 116575, Control_c, 0, 64, 62
1, 116590, Control_c, 0, 64, 64
1, 116605, Control_c, 0, 64, 65
1, 116620, Control_c, 0, 64, 67
1, 116633, Note_off_c, 0, 60, 35
1, 116635, Control_c, 0, 64, 69
1, 116639, Note_off_c, 0, 58, 59
1, 116643, Note_on_c, 0, 57, 56
1, 116649, Control_c, 0, 64, 70
1, 116664, Control_c, 0, 64, 72
1, 116679, Control_c, 0, 64, 74
1, 116694, Control_c, 0, 64, 75
1, 116709, Control_c, 0, 64, 76
1, 116724, Control_c, 0, 64, 76
1, 116751, Note_off_c, 0, 46, 57
1, 116769, Control_c, 0, 64, 77
1, 116778, Note_off_c, 0, 64, 30
1, 116779, Note_off_c, 0, 57, 34
1, 116782, Note_on_c, 0, 55, 61
1, 116814, Note_off_c, 0, 55, 62
1, 116858, Control_c, 0, 64, 77
1, 116917, Control_c, 0, 64, 77
1, 116943, Note_on_c, 0, 65, 64
1, 116947, Note_on_c, 0, 57, 52
1, 116947, Control_c, 0, 64, 76
1, 116951, Note_on_c, 0, 60, 48
1, 116959, Note_on_c, 0, 45, 48
1, 116962, Control_c, 0, 64, 74
1, 116984, Control_c, 0, 64, 72
1, 116999, Control_c, 0, 64, 69
1, 117013, Control_c, 0, 64, 65
1, 117028, Control_c, 0, 64, 59
1, 117043, Control_c, 0, 64, 56
1, 117058, Control_c, 0, 64, 55
1, 117087, Control_c, 0, 64, 54
1, 117098, Note_on_c, 0, 52, 55
1, 117102, Control_c, 0, 64, 52
1, 117117, Control_c, 0, 64, 49
1, 117132, Control_c, 0, 64, 46
1, 117147, Control_c, 0, 64, 44
1, 117162, Control_c, 0, 64, 43
1, 117177, Control_c, 0, 64, 43
1, 117192, Control_c, 0, 64, 42
1, 117206, Control_c, 0, 64, 40
1, 117221, Control_c, 0, 64, 38
1, 117236, Control_c, 0, 64, 37
1, 117240, Note_on_c, 0, 53, 64
1, 117253, Note_off_c, 0, 52, 56
1, 117266, Control_c, 0, 64, 37
1, 117354, Control_c, 0, 64, 36
1, 117362, Note_off_c, 0, 57, 45
1, 117369, Note_on_c, 0, 55, 70
1, 117379, Note_off_c, 0, 53, 63
1, 117516, Note_on_c, 0, 53, 70
1, 117531, Note_off_c, 0, 60, 52
1, 117539, Note_off_c, 0, 55, 61
1, 117584, Note_off_c, 0, 45, 43
1, 117620, Note_off_c, 0, 65, 59
1, 117659, Note_on_c, 0, 52, 74
1, 117679, Note_off_c, 0, 53, 61
1, 117681, Control_c, 0, 64, 36
1, 117695, Control_c, 0, 64, 35
1, 117710, Control_c, 0, 64, 34
1, 117792, Control_c, 0, 64, 34
1, 117807, Control_c, 0, 64, 33
1, 117810, Note_on_c, 0, 50, 77
1, 117811, Note_off_c, 0, 52, 66
1, 117822, Control_c, 0, 64, 32
1, 117836, Control_c, 0, 64, 29
1, 117851, Control_c, 0, 64, 27
1, 117866, Control_c, 0, 64, 24
1, 117881, Control_c, 0, 64, 20
1, 117896, Control_c, 0, 64, 15
1, 117910, Control_c, 0, 64, 0
1, 117937, Note_off_c, 0, 50, 63
1, 117939, Note_on_c, 0, 48, 75
1, 118083, Note_off_c, 0, 48, 63
1, 118093, Note_on_c, 0, 50, 62
1, 118101, Note_on_c, 0, 58, 70
1, 118226, Note_on_c, 0, 48, 56
1, 118363, Note_off_c, 0, 48, 62
1, 118369, Note_on_c, 0, 46, 68
1, 118375, Note_on_c, 0, 65, 77
1, 118509, Note_on_c, 0, 45, 62
1, 118509, Note_off_c, 0, 46, 62
1, 118662, Note_on_c, 0, 67, 82
1, 118666, Note_on_c, 0, 46, 71
1, 118669, Note_off_c, 0, 45, 64
1, 118700, Note_off_c, 0, 65, 60
1, 118813, Note_on_c, 0, 45, 61
1, 118834, Note_off_c, 0, 46, 57
1, 118940, Note_on_c, 0, 69, 77
1, 118952, Note_off_c, 0, 45, 63
1, 118953, Note_on_c, 0, 43, 65
1, 118974, Note_off_c, 0, 67, 57
1, 119087, Note_on_c, 0, 70, 79
1, 119095, Note_on_c, 0, 41, 67
1, 119099, Note_off_c, 0, 43, 55
1, 119123, Note_off_c, 0, 69, 58
1, 119249, Note_on_c, 0, 64, 64
1, 119252, Note_on_c, 0, 43, 63
1, 119260, Note_off_c, 0, 41, 65
1, 119282, Note_off_c, 0, 50, 48
1, 119285, Note_off_c, 0, 70, 55
1, 119394, Note_on_c, 0, 41, 63
1, 119457, Note_off_c, 0, 43, 36
1, 119533, Note_on_c, 0, 65, 76
1, 119542, Note_off_c, 0, 41, 64
1, 119550, Note_on_c, 0, 40, 65
1, 119594, Note_off_c, 0, 58, 0
1, 119630, Poly_aftertouch_c, 0, 58, 127
1, 119638, Note_off_c, 0, 64, 35
1, 119690, Note_off_c, 0, 40, 60
1, 119698, Note_on_c, 0, 38, 62
1, 119750, Poly_aftertouch_c, 0, 58, 0
1, 119857, Note_on_c, 0, 67, 78
1, 119864, Note_on_c, 0, 48, 54
1, 119865, Note_on_c, 0, 40, 55
1, 119871, Note_off_c, 0, 38, 53
1, 119886, Note_off_c, 0, 65, 64
1, 119941, Control_c, 0, 64, 34
1, 119958, Control_c, 0, 64, 45
1, 119979, Control_c, 0, 64, 53
1, 119994, Control_c, 0, 64, 59
1, 120007, Note_on_c, 0, 58, 59
1, 120009, Control_c, 0, 64, 62
1, 120024, Control_c, 0, 64, 64
1, 120038, Control_c, 0, 64, 66
1, 120053, Control_c, 0, 64, 68
1, 120068, Control_c, 0, 64, 70
1, 120083, Control_c, 0, 64, 72
1, 120098, Control_c, 0, 64, 74
1, 120113, Control_c, 0, 64, 76
1, 120120, Note_off_c, 0, 67, 59
1, 120128, Control_c, 0, 64, 76
1, 120143, Control_c, 0, 64, 77
1, 120153, Note_off_c, 0, 58, 63
1, 120171, Note_on_c, 0, 36, 55
1, 120175, Note_on_c, 0, 57, 61
1, 120195, Note_off_c, 0, 40, 36
1, 120246, Control_c, 0, 64, 76
1, 120305, Control_c, 0, 64, 76
1, 120316, Note_off_c, 0, 57, 58
1, 120317, Note_on_c, 0, 55, 66
1, 120335, Control_c, 0, 64, 75
1, 120349, Control_c, 0, 64, 75
1, 120364, Control_c, 0, 64, 74
1, 120379, Control_c, 0, 64, 74
1, 120393, Control_c, 0, 64, 73
1, 120408, Control_c, 0, 64, 71
1, 120423, Control_c, 0, 64, 68
1, 120438, Control_c, 0, 64, 64
1, 120453, Control_c, 0, 64, 54
1, 120462, Note_off_c, 0, 55, 64
1, 120468, Control_c, 0, 64, 18
1, 120468, Note_on_c, 0, 57, 71
1, 120471, Note_off_c, 0, 36, 57
1, 120476, Note_on_c, 0, 41, 59
1, 120482, Control_c, 0, 64, 0
1, 120603, Note_on_c, 0, 60, 72
1, 120760, Note_on_c, 0, 62, 77
1, 120767, Note_on_c, 0, 40, 64
1, 120777, Note_off_c, 0, 41, 57
1, 120819, Note_off_c, 0, 60, 50
1, 120910, Note_on_c, 0, 64, 74
1, 120956, Note_off_c, 0, 62, 58
1, 121070, Note_on_c, 0, 65, 79
1, 121078, Note_on_c, 0, 38, 57
1, 121078, Note_off_c, 0, 40, 59
1, 121082, Note_off_c, 0, 57, 60
1, 121105, Note_off_c, 0, 64, 62
1, 121111, Note_off_c, 0, 48, 47
1, 121209, Note_on_c, 0, 57, 59
1, 121352, Note_off_c, 0, 57, 54
1, 121361, Note_on_c, 0, 48, 53
1, 121362, Note_on_c, 0, 58, 61
1, 121512, Note_on_c, 0, 60, 59
1, 121523, Note_off_c, 0, 58, 55
1, 121672, Note_on_c, 0, 46, 57
1, 121674, Note_on_c, 0, 62, 61
1, 121680, Note_off_c, 0, 60, 58
1, 121687, Note_off_c, 0, 48, 52
1, 121815, Note_on_c, 0, 60, 57
1, 121833, Note_off_c, 0, 62, 51
1, 121965, Note_on_c, 0, 43, 53
1, 121970, Note_on_c, 0, 58, 63
1, 121980, Note_off_c, 0, 46, 48
1, 121982, Note_off_c, 0, 60, 56
1, 122126, Note_off_c, 0, 58, 58
1, 122130, Note_on_c, 0, 57, 57
1, 122250, Note_off_c, 0, 65, 35
1, 122301, Note_off_c, 0, 43, 59
1, 122304, Note_on_c, 0, 48, 48
1, 122306, Note_on_c, 0, 55, 58
1, 122332, Note_off_c, 0, 57, 38
1, 122369, Note_off_c, 0, 38, 49
1, 122464, Note_on_c, 0, 58, 64
1, 122636, Note_off_c, 0, 55, 50
1, 122638, Note_on_c, 0, 36, 49
1, 122641, Note_on_c, 0, 65, 71
1, 122660, Note_off_c, 0, 58, 63
1, 122827, Note_on_c, 0, 64, 66
1, 122862, Note_off_c, 0, 65, 50
1, 123025, Note_on_c, 0, 65, 74
1, 123028, Note_off_c, 0, 64, 63
1, 123034, Note_on_c, 0, 41, 56
1, 123037, Note_off_c, 0, 36, 42
1, 123049, Note_on_c, 0, 53, 55
1, 123216, Note_on_c, 0, 58, 51
1, 123342, Note_off_c, 0, 53, 44
1, 123374, Note_on_c, 0, 57, 56
1, 123379, Note_off_c, 0, 58, 57
1, 123528, Note_off_c, 0, 57, 61
1, 123541, Note_on_c, 0, 55, 51
1, 123726, Note_off_c, 0, 55, 61
1, 123735, Note_on_c, 0, 57, 59
1, 123917, Note_on_c, 0, 55, 47
1, 124144, Note_on_c, 0, 53, 52
1, 124146, Note_off_c, 0, 55, 54
1, 124417, Note_off_c, 0, 53, 58
1, 124417, Note_on_c, 0, 52, 44
1, 124752, Note_on_c, 0, 53, 47
1, 124817, Note_off_c, 0, 52, 55
1, 125987, Note_off_c, 0, 53, 35
1, 126207, Note_off_c, 0, 41, 56
1, 126215, Note_off_c, 0, 57, 55
1, 126223, Note_off_c, 0, 48, 47
1, 126245, Note_off_c, 0, 65, 38
1, 127830, Note_on_c, 0, 65, 62
1, 127864, Note_off_c, 0, 65, 64
1, 127953, Note_on_c, 0, 64, 53
1, 127987, Note_off_c, 0, 64, 65
1, 128064, Note_on_c, 0, 65, 62
1, 128108, Note_off_c, 0, 65, 57
1, 128216, Note_on_c, 0, 72, 85
1, 128248, Note_off_c, 0, 72, 67
1, 128593, Note_on_c, 0, 69, 69
1, 128626, Note_off_c, 0, 69, 62
1, 128709, Note_on_c, 0, 67, 68
1, 128760, Note_off_c, 0, 67, 59
1, 128824, Note_on_c, 0, 69, 69
1, 128868, Note_off_c, 0, 69, 54
1, 128979, Note_on_c, 0, 74, 86
1, 129016, Note_off_c, 0, 74, 67
1, 129358, Note_on_c, 0, 72, 66
1, 129384, Note_off_c, 0, 72, 69
1, 129475, Note_on_c, 0, 74, 65
1, 129515, Note_off_c, 0, 74, 60
1, 129595, Note_on_c, 0, 76, 75
1, 129634, Note_off_c, 0, 76, 65
1, 129736, Note_on_c, 0, 77, 84
1, 129831, Note_off_c, 0, 77, 60
1, 129877, Note_on_c, 0, 76, 76
1, 129918, Note_off_c, 0, 76, 65
1, 130001, Note_on_c, 0, 74, 63
1, 130027, Note_off_c, 0, 74, 67
1, 130126, Note_on_c, 0, 72, 55
1, 130156, Note_off_c, 0, 72, 58
1, 130240, Note_on_c, 0, 74, 58
1, 130272, Note_off_c, 0, 74, 63
1, 130359, Note_on_c, 0, 70, 68
1, 130403, Note_off_c, 0, 70, 63
1, 130501, Note_on_c, 0, 69, 65
1, 130536, Note_off_c, 0, 69, 63
1, 130615, Note_on_c, 0, 67, 54
1, 130653, Note_off_c, 0, 67, 62
1, 130727, Note_on_c, 0, 65, 65
1, 130759, Note_off_c, 0, 65, 65
1, 130846, Note_on_c, 0, 60, 61
1, 130853, Note_on_c, 0, 64, 52
1, 130879, Note_off_c, 0, 60, 64
1, 130879, Note_off_c, 0, 64, 60
1, 130965, Note_on_c, 0, 58, 66
1, 131002, Note_off_c, 0, 58, 65
1, 131085, Note_on_c, 0, 70, 67
1, 131096, Note_on_c, 0, 60, 62
1, 131112, Note_off_c, 0, 70, 68
1, 131129, Note_off_c, 0, 60, 64
1, 131226, Note_on_c, 0, 65, 81
1, 131230, Note_on_c, 0, 69, 74
1, 131255, Note_off_c, 0, 65, 64
1, 131257, Note_off_c, 0, 69, 65
1, 131467, Note_on_c, 0, 74, 59
1, 131504, Note_off_c, 0, 74, 61
1, 131595, Note_on_c, 0, 67, 60
1, 131596, Note_on_c, 0, 64, 73
1, 131625, Note_off_c, 0, 67, 66
1, 131625, Note_off_c, 0, 64, 63
1, 131711, Note_on_c, 0, 62, 69
1, 131756, Note_off_c, 0, 62, 61
1, 131836, Note_on_c, 0, 64, 77
1, 131838, Note_on_c, 0, 74, 70
1, 131869, Note_off_c, 0, 74, 61
1, 131872, Note_off_c, 0, 64, 65
1, 131975, Note_on_c, 0, 69, 88
1, 131982, Note_on_c, 0, 72, 85
1, 132011, Note_off_c, 0, 69, 67
1, 132018, Note_off_c, 0, 72, 60
1, 132221, Note_on_c, 0, 77, 64
1, 132248, Note_off_c, 0, 77, 57
1, 132339, Note_on_c, 0, 67, 73
1, 132340, Note_on_c, 0, 71, 69
1, 132376, Note_off_c, 0, 71, 55
1, 132384, Note_off_c, 0, 67, 63
1, 132456, Note_on_c, 0, 69, 75
1, 132501, Note_off_c, 0, 69, 64
1, 132574, Note_on_c, 0, 77, 79
1, 132576, Note_on_c, 0, 71, 79
1, 132618, Note_off_c, 0, 71, 62
1, 132627, Note_off_c, 0, 77, 60
1, 132698, Note_on_c, 0, 72, 77
1, 132713, Note_on_c, 0, 76, 83
1, 132773, Note_off_c, 0, 72, 61
1, 132781, Note_off_c, 0, 76, 64
1, 132821, Note_on_c, 0, 71, 72
1, 132831, Note_on_c, 0, 74, 69
1, 132861, Note_off_c, 0, 71, 61
1, 132869, Note_off_c, 0, 74, 61
1, 132949, Note_on_c, 0, 69, 76
1, 132950, Note_on_c, 0, 72, 75
1, 132978, Note_off_c, 0, 69, 62
1, 132984, Note_off_c, 0, 72, 59
1, 133074, Note_on_c, 0, 67, 68
1, 133083, Note_on_c, 0, 79, 62
1, 133112, Note_off_c, 0, 67, 60
1, 133115, Note_off_c, 0, 79, 63
1, 133192, Note_on_c, 0, 69, 54
1, 133214, Note_off_c, 0, 69, 62
1, 133305, Note_on_c, 0, 71, 64
1, 133315, Note_on_c, 0, 65, 59
1, 133345, Note_off_c, 0, 65, 65
1, 133354, Note_off_c, 0, 71, 55
1, 133428, Note_on_c, 0, 72, 64
1, 133439, Note_on_c, 0, 64, 64
1, 133480, Note_off_c, 0, 64, 64
1, 133566, Note_on_c, 0, 62, 64
1, 133607, Note_off_c, 0, 62, 61
1, 133685, Note_on_c, 0, 60, 64
1, 133725, Note_off_c, 0, 60, 55
1, 133811, Note_on_c, 0, 62, 65
1, 133822, Note_off_c, 0, 72, 60
1, 133850, Note_off_c, 0, 62, 60
1, 133929, Note_on_c, 0, 64, 68
1, 133935, Note_on_c, 0, 70, 65
1, 133965, Note_off_c, 0, 64, 63
1, 133968, Note_off_c, 0, 70, 63
1, 134048, Note_on_c, 0, 66, 76
1, 134052, Note_on_c, 0, 69, 73
1, 134097, Note_off_c, 0, 69, 63
1, 134101, Note_off_c, 0, 66, 62
1, 134170, Note_on_c, 0, 67, 77
1, 134177, Note_on_c, 0, 70, 74
1, 134233, Note_off_c, 0, 70, 60
1, 134311, Note_on_c, 0, 72, 66
1, 134356, Note_off_c, 0, 72, 62
1, 134427, Note_on_c, 0, 74, 70
1, 134481, Note_off_c, 0, 74, 62
1, 134566, Note_on_c, 0, 75, 86
1, 134591, Note_off_c, 0, 67, 56
1, 134684, Note_on_c, 0, 65, 66
1, 134713, Note_off_c, 0, 65, 68
1, 134800, Note_on_c, 0, 63, 73
1, 134848, Note_off_c, 0, 63, 63
1, 134932, Note_on_c, 0, 65, 78
1, 134976, Note_off_c, 0, 75, 61
1, 134978, Note_off_c, 0, 65, 65
1, 135059, Note_on_c, 0, 67, 74
1, 135073, Note_on_c, 0, 74, 65
1, 135098, Note_off_c, 0, 67, 62
1, 135102, Note_off_c, 0, 74, 63
1, 135177, Note_on_c, 0, 69, 73
1, 135190, Note_on_c, 0, 72, 71
1, 135226, Note_off_c, 0, 69, 63
1, 135226, Note_off_c, 0, 72, 60
1, 135301, Note_on_c, 0, 70, 82
1, 135317, Note_on_c, 0, 74, 76
1, 135369, Note_off_c, 0, 74, 63
1, 135435, Note_on_c, 0, 76, 77
1, 135483, Note_off_c, 0, 76, 64
1, 135554, Note_on_c, 0, 77, 83
1, 135617, Note_off_c, 0, 77, 62
1, 135676, Note_on_c, 0, 79, 91
1, 135703, Note_off_c, 0, 70, 60
1, 135813, Note_on_c, 0, 69, 73
1, 135851, Note_off_c, 0, 69, 60
1, 135932, Note_on_c, 0, 67, 75
1, 135979, Note_off_c, 0, 67, 62
1, 136053, Note_off_c, 0, 79, 55
1, 136061, Note_on_c, 0, 69, 81
1, 136104, Note_off_c, 0, 69, 64
1, 136182, Note_on_c, 0, 71, 78
1, 136189, Note_on_c, 0, 77, 79
1, 136213, Note_off_c, 0, 71, 59
1, 136237, Note_off_c, 0, 77, 61
1, 136296, Note_on_c, 0, 76, 73
1, 136304, Note_on_c, 0, 73, 78
1, 136344, Note_off_c, 0, 73, 63
1, 136351, Note_off_c, 0, 76, 63
1, 136426, Note_on_c, 0, 77, 87
1, 136427, Note_on_c, 0, 74, 85
1, 136489, Note_off_c, 0, 77, 61
1, 136553, Note_on_c, 0, 79, 81
1, 136606, Note_off_c, 0, 79, 62
1, 136675, Note_on_c, 0, 81, 89
1, 136738, Note_off_c, 0, 81, 61
1, 136808, Note_on_c, 0, 82, 92
1, 136824, Note_off_c, 0, 74, 62
1, 136934, Note_on_c, 0, 72, 71
1, 136962, Note_off_c, 0, 72, 65
1, 137042, Note_off_c, 0, 82, 61
1, 137046, Note_on_c, 0, 70, 77
1, 137090, Note_off_c, 0, 70, 63
1, 137178, Note_on_c, 0, 72, 83
1, 137229, Note_off_c, 0, 72, 63
1, 137305, Note_on_c, 0, 74, 69
1, 137311, Note_on_c, 0, 81, 68
1, 137352, Note_off_c, 0, 81, 59
1, 137356, Note_off_c, 0, 74, 59
1, 137429, Note_on_c, 0, 79, 69
1, 137435, Note_on_c, 0, 76, 67
1, 137467, Note_off_c, 0, 76, 63
1, 137474, Note_off_c, 0, 79, 63
1, 137549, Note_on_c, 0, 77, 61
1, 137549, Note_on_c, 0, 81, 70
1, 137558, Note_on_c, 0, 53, 72
1, 137596, Note_off_c, 0, 53, 63
1, 137652, Note_off_c, 0, 81, 57
1, 137670, Note_on_c, 0, 82, 69
1, 137682, Note_on_c, 0, 52, 81
1, 137720, Note_off_c, 0, 82, 63
1, 137729, Note_off_c, 0, 52, 65
1, 137801, Note_on_c, 0, 53, 83
1, 137802, Note_on_c, 0, 81, 67
1, 137846, Note_off_c, 0, 53, 65
1, 137883, Note_off_c, 0, 81, 60
1, 137927, Note_off_c, 0, 77, 59
1, 137927, Note_on_c, 0, 60, 90
1, 137933, Note_on_c, 0, 79, 80
1, 137975, Note_off_c, 0, 60, 65
1, 138062, Note_on_c, 0, 76, 59
1, 138107, Note_off_c, 0, 76, 62
1, 138182, Note_on_c, 0, 74, 66
1, 138226, Note_off_c, 0, 74, 63
1, 138292, Note_off_c, 0, 79, 60
1, 138316, Note_on_c, 0, 57, 77
1, 138321, Note_on_c, 0, 72, 70
1, 138358, Note_off_c, 0, 57, 61
1, 138435, Note_on_c, 0, 55, 81
1, 138439, Note_on_c, 0, 84, 70
1, 138483, Note_off_c, 0, 55, 64
1, 138483, Note_off_c, 0, 84, 59
1, 138557, Note_on_c, 0, 76, 69
1, 138558, Note_on_c, 0, 57, 85
1, 138606, Note_off_c, 0, 57, 62
1, 138648, Note_off_c, 0, 76, 63
1, 138682, Note_on_c, 0, 62, 94
1, 138689, Note_on_c, 0, 77, 78
1, 138708, Note_off_c, 0, 72, 60
1, 138732, Note_off_c, 0, 62, 62
1, 138734, Note_off_c, 0, 77, 60
1, 138819, Note_on_c, 0, 69, 73
1, 138871, Note_off_c, 0, 69, 59
1, 138940, Note_on_c, 0, 70, 75
1, 139062, Note_on_c, 0, 60, 78
1, 139079, Note_on_c, 0, 76, 71
1, 139092, Note_off_c, 0, 70, 60
1, 139108, Note_off_c, 0, 60, 59
1, 139134, Note_off_c, 0, 76, 64
1, 139191, Note_on_c, 0, 62, 77
1, 139196, Note_on_c, 0, 77, 68
1, 139224, Note_off_c, 0, 62, 60
1, 139240, Note_off_c, 0, 77, 61
1, 139316, Note_on_c, 0, 64, 76
1, 139317, Note_on_c, 0, 79, 72
1, 139345, Note_off_c, 0, 79, 64
1, 139365, Note_off_c, 0, 64, 61
1, 139433, Note_on_c, 0, 65, 75
1, 139451, Note_on_c, 0, 69, 57
1, 139451, Note_on_c, 0, 72, 75
1, 139469, Note_off_c, 0, 69, 62
1, 139482, Note_off_c, 0, 72, 59
1, 139484, Note_off_c, 0, 65, 65
1, 139557, Note_on_c, 0, 64, 66
1, 139591, Note_off_c, 0, 64, 62
1, 139678, Note_on_c, 0, 62, 72
1, 139682, Note_on_c, 0, 70, 68
1, 139688, Note_on_c, 0, 77, 66
1, 139709, Note_off_c, 0, 62, 62
1, 139714, Note_off_c, 0, 77, 55
1, 139724, Note_off_c, 0, 70, 60
1, 139805, Note_on_c, 0, 60, 63
1, 139806, Note_on_c, 0, 77, 73
1, 139815, Note_on_c, 0, 69, 73
1, 139836, Note_off_c, 0, 60, 64
1, 139844, Note_off_c, 0, 77, 56
1, 139845, Note_off_c, 0, 69, 63
1, 139909, Note_on_c, 0, 62, 62
1, 139937, Note_off_c, 0, 62, 58
1, 140041, Note_on_c, 0, 76, 64
1, 140045, Note_on_c, 0, 58, 63
1, 140058, Note_on_c, 0, 67, 37
1, 140078, Note_off_c, 0, 58, 65
1, 140086, Note_off_c, 0, 67, 52
1, 140092, Note_off_c, 0, 76, 62
1, 140169, Note_on_c, 0, 77, 59
1, 140173, Note_on_c, 0, 57, 60
1, 140174, Note_on_c, 0, 72, 67
1, 140214, Note_off_c, 0, 57, 63
1, 140228, Note_off_c, 0, 72, 62
1, 140291, Note_on_c, 0, 70, 66
1, 140312, Note_on_c, 0, 55, 58
1, 140343, Note_off_c, 0, 55, 66
1, 140356, Note_off_c, 0, 70, 57
1, 140410, Note_on_c, 0, 69, 64
1, 140416, Note_on_c, 0, 53, 63
1, 140442, Note_off_c, 0, 69, 62
1, 140457, Note_off_c, 0, 53, 63
1, 140542, Note_on_c, 0, 67, 66
1, 140544, Note_on_c, 0, 58, 69
1, 140604, Note_off_c, 0, 67, 58
1, 140631, Note_off_c, 0, 77, 31
1, 140662, Note_on_c, 0, 69, 66
1, 140699, Note_off_c, 0, 69, 61
1, 140781, Note_on_c, 0, 65, 67
1, 140814, Note_off_c, 0, 65, 64
1, 140906, Note_on_c, 0, 79, 73
1, 140911, Note_on_c, 0, 64, 61
1, 140914, Note_off_c, 0, 58, 45
1, 140953, Note_off_c, 0, 64, 62
1, 140966, Note_off_c, 0, 79, 58
1, 141043, Note_on_c, 0, 77, 78
1, 141046, Note_on_c, 0, 62, 73
1, 141085, Note_off_c, 0, 62, 58
1, 141101, Note_off_c, 0, 77, 60
1, 141161, Note_on_c, 0, 76, 82
1, 141162, Note_on_c, 0, 60, 73
1, 141204, Note_off_c, 0, 60, 58
1, 141212, Note_off_c, 0, 76, 64
1, 141283, Note_on_c, 0, 74, 75
1, 141302, Note_on_c, 0, 57, 63
1, 141303, Note_on_c, 0, 66, 76
1, 141329, Note_off_c, 0, 74, 62
1, 141402, Note_on_c, 0, 75, 66
1, 141441, Note_off_c, 0, 75, 62
1, 141465, Note_off_c, 0, 66, 65
1, 141515, Note_on_c, 0, 72, 65
1, 141531, Note_off_c, 0, 57, 58
1, 141542, Note_off_c, 0, 72, 68
1, 141650, Note_on_c, 0, 70, 70
1, 141662, Note_on_c, 0, 55, 69
1, 141667, Note_on_c, 0, 67, 49
1, 141698, Note_off_c, 0, 67, 58
1, 141704, Note_off_c, 0, 55, 62
1, 141705, Note_off_c, 0, 70, 60
1, 141786, Note_on_c, 0, 69, 66
1, 141788, Note_on_c, 0, 53, 67
1, 141819, Note_off_c, 0, 53, 65
1, 141822, Note_off_c, 0, 69, 60
1, 141901, Note_on_c, 0, 67, 66
1, 141906, Note_on_c, 0, 51, 66
1, 141933, Note_off_c, 0, 67, 62
1, 141946, Note_off_c, 0, 51, 59
1, 142031, Note_on_c, 0, 65, 70
1, 142032, Note_on_c, 0, 69, 73
1, 142038, Note_on_c, 0, 50, 70
1, 142071, Note_off_c, 0, 50, 65
1, 142079, Note_off_c, 0, 69, 62
1, 142152, Note_on_c, 0, 51, 69
1, 142190, Note_off_c, 0, 51, 63
1, 142280, Note_on_c, 0, 48, 77
1, 142287, Note_on_c, 0, 74, 63
1, 142320, Note_off_c, 0, 48, 67
1, 142368, Note_off_c, 0, 74, 50
1, 142417, Note_on_c, 0, 47, 76
1, 142429, Note_on_c, 0, 67, 66
1, 142461, Note_off_c, 0, 47, 65
1, 142484, Note_off_c, 0, 67, 57
1, 142545, Note_on_c, 0, 45, 66
1, 142589, Note_off_c, 0, 45, 66
1, 142674, Note_on_c, 0, 43, 70
1, 142677, Note_on_c, 0, 74, 64
1, 142702, Note_off_c, 0, 65, 54
1, 142720, Note_off_c, 0, 43, 60
1, 142729, Note_off_c, 0, 74, 56
1, 142804, Note_on_c, 0, 48, 82
1, 142807, Note_on_c, 0, 67, 63
1, 142812, Note_on_c, 0, 64, 67
1, 142837, Note_off_c, 0, 67, 65
1, 142842, Note_off_c, 0, 48, 68
1, 142926, Note_on_c, 0, 47, 82
1, 142970, Note_off_c, 0, 47, 65
1, 143049, Note_on_c, 0, 76, 72
1, 143050, Note_on_c, 0, 48, 83
1, 143052, Note_off_c, 0, 64, 59
1, 143090, Note_off_c, 0, 48, 67
1, 143158, Note_off_c, 0, 76, 64
1, 143179, Note_on_c, 0, 53, 90
1, 143194, Note_on_c, 0, 69, 81
1, 143224, Note_off_c, 0, 53, 68
1, 143316, Note_on_c, 0, 73, 62
1, 143388, Note_off_c, 0, 73, 59
1, 143441, Note_on_c, 0, 74, 66
1, 143466, Note_off_c, 0, 69, 60
1, 143495, Note_off_c, 0, 74, 60
1, 143568, Note_on_c, 0, 52, 80
1, 143575, Note_on_c, 0, 67, 74
1, 143606, Note_off_c, 0, 52, 67
1, 143689, Note_on_c, 0, 50, 79
1, 143689, Note_on_c, 0, 71, 61
1, 143730, Note_off_c, 0, 50, 65
1, 143772, Note_off_c, 0, 71, 58
1, 143814, Note_on_c, 0, 52, 87
1, 143824, Note_on_c, 0, 72, 75
1, 143842, Note_off_c, 0, 67, 59
1, 143863, Note_off_c, 0, 52, 64
1, 143898, Note_off_c, 0, 72, 64
1, 143956, Note_on_c, 0, 57, 89
1, 143963, Note_on_c, 0, 65, 80
1, 143990, Note_off_c, 0, 57, 65
1, 144082, Note_on_c, 0, 76, 71
1, 144145, Note_off_c, 0, 76, 65
1, 144205, Note_on_c, 0, 77, 73
1, 144267, Note_off_c, 0, 77, 53
1, 144334, Note_on_c, 0, 55, 75
1, 144337, Note_on_c, 0, 71, 71
1, 144376, Note_off_c, 0, 55, 61
1, 144419, Note_off_c, 0, 71, 57
1, 144450, Note_on_c, 0, 57, 79
1, 144457, Note_on_c, 0, 72, 70
1, 144500, Note_off_c, 0, 57, 60
1, 144537, Note_off_c, 0, 72, 57
1, 144577, Note_on_c, 0, 59, 78
1, 144577, Note_on_c, 0, 74, 66
1, 144619, Note_off_c, 0, 74, 56
1, 144622, Note_off_c, 0, 59, 62
1, 144652, Note_off_c, 0, 65, 61
1, 144708, Note_on_c, 0, 60, 72
1, 144715, Note_on_c, 0, 67, 74
1, 144753, Note_off_c, 0, 60, 61
1, 144759, Note_off_c, 0, 67, 63
1, 144836, Note_on_c, 0, 64, 66
1, 144845, Note_on_c, 0, 59, 56
1, 144878, Note_off_c, 0, 59, 62
1, 144879, Note_off_c, 0, 64, 60
1, 144966, Note_on_c, 0, 57, 66
1, 144969, Note_on_c, 0, 65, 62
1, 144979, Note_on_c, 0, 72, 54
1, 144994, Note_off_c, 0, 57, 64
1, 144999, Note_off_c, 0, 65, 67
1, 144999, Note_off_c, 0, 72, 62
1, 145082, Note_on_c, 0, 55, 76
1, 145089, Note_on_c, 0, 72, 67
1, 145090, Note_on_c, 0, 64, 73
1, 145118, Note_off_c, 0, 72, 66
1, 145120, Note_off_c, 0, 64, 65
1, 145122, Note_off_c, 0, 55, 62
1, 145203, Note_on_c, 0, 57, 67
1, 145235, Note_off_c, 0, 57, 63
1, 145325, Note_on_c, 0, 53, 67
1, 145328, Note_on_c, 0, 62, 63
1, 145329, Note_on_c, 0, 71, 53
1, 145357, Note_off_c, 0, 53, 66
1, 145362, Note_off_c, 0, 62, 62
1, 145370, Note_off_c, 0, 71, 44
1, 145458, Note_on_c, 0, 72, 73
1, 145461, Note_on_c, 0, 52, 64
1, 145462, Note_on_c, 0, 60, 67
1, 145497, Note_off_c, 0, 52, 65
1, 145583, Note_on_c, 0, 53, 66
1, 145619, Note_off_c, 0, 53, 64
1, 145706, Note_on_c, 0, 50, 70
1, 145715, Note_on_c, 0, 67, 65
1, 145740, Note_off_c, 0, 50, 64
1, 145752, Note_off_c, 0, 67, 59
1, 145838, Note_on_c, 0, 48, 70
1, 145838, Note_on_c, 0, 70, 82
1, 145877, Note_off_c, 0, 72, 57
1, 145884, Note_off_c, 0, 48, 64
1, 145966, Note_on_c, 0, 50, 67
1, 146008, Note_off_c, 0, 50, 62
1, 146088, Note_on_c, 0, 67, 79
1, 146091, Note_off_c, 0, 60, 55
1, 146094, Note_on_c, 0, 52, 69
1, 146110, Note_off_c, 0, 70, 54
1, 146137, Note_off_c, 0, 52, 63
1, 146231, Note_on_c, 0, 69, 84
1, 146234, Note_on_c, 0, 53, 68
1, 146285, Note_off_c, 0, 53, 65
1, 146353, Note_on_c, 0, 55, 63
1, 146391, Note_off_c, 0, 55, 61
1, 146438, Note_off_c, 0, 67, 56
1, 146487, Note_on_c, 0, 52, 72
1, 146495, Note_on_c, 0, 60, 59
1, 146526, Note_off_c, 0, 52, 62
1, 146540, Note_off_c, 0, 60, 58
1, 146617, Note_on_c, 0, 65, 81
1, 146620, Note_on_c, 0, 50, 71
1, 146646, Note_off_c, 0, 69, 61
1, 146663, Note_off_c, 0, 50, 61
1, 146739, Note_on_c, 0, 52, 69
1, 146783, Note_off_c, 0, 52, 66
1, 146870, Note_on_c, 0, 74, 72
1, 146872, Note_on_c, 0, 53, 74
1, 146915, Note_off_c, 0, 53, 67
1, 146917, Note_off_c, 0, 74, 61
1, 147005, Note_on_c, 0, 67, 81
1, 147015, Note_on_c, 0, 55, 68
1, 147042, Note_off_c, 0, 65, 59
1, 147058, Note_off_c, 0, 55, 63
1, 147123, Note_on_c, 0, 57, 58
1, 147162, Note_off_c, 0, 57, 61
1, 147261, Note_on_c, 0, 53, 65
1, 147269, Note_on_c, 0, 59, 65
1, 147299, Note_off_c, 0, 53, 64
1, 147327, Note_off_c, 0, 59, 54
1, 147329, Note_off_c, 0, 67, 54
1, 147392, Note_on_c, 0, 52, 65
1, 147398, Note_on_c, 0, 60, 63
1, 147429, Note_off_c, 0, 52, 64
1, 147445, Note_off_c, 0, 60, 57
1, 147516, Note_on_c, 0, 62, 52
1, 147520, Note_on_c, 0, 53, 60
1, 147554, Note_off_c, 0, 62, 55
1, 147558, Note_off_c, 0, 53, 66
1, 147638, Note_on_c, 0, 55, 64
1, 147638, Note_on_c, 0, 67, 59
1, 147641, Note_on_c, 0, 64, 55
1, 147666, Note_off_c, 0, 64, 65
1, 147681, Note_off_c, 0, 67, 60
1, 147685, Note_off_c, 0, 55, 62
1, 147778, Note_on_c, 0, 65, 69
1, 147782, Note_on_c, 0, 57, 52
1, 147782, Note_on_c, 0, 72, 73
1, 147820, Note_off_c, 0, 57, 62
1, 147831, Note_off_c, 0, 65, 57
1, 147902, Note_on_c, 0, 55, 68
1, 147913, Note_on_c, 0, 67, 63
1, 147953, Note_off_c, 0, 55, 64
1, 147973, Note_off_c, 0, 67, 60
1, 148030, Note_off_c, 0, 72, 62
1, 148033, Note_on_c, 0, 69, 67
1, 148035, Note_on_c, 0, 53, 64
1, 148068, Note_off_c, 0, 53, 67
1, 148088, Note_off_c, 0, 69, 61
1, 148144, Note_on_c, 0, 55, 64
1, 148152, Note_on_c, 0, 62, 71
1, 148190, Note_off_c, 0, 55, 59
1, 148202, Note_off_c, 0, 62, 55
1, 148274, Note_on_c, 0, 72, 65
1, 148315, Note_off_c, 0, 72, 58
1, 148383, Note_on_c, 0, 43, 55
1, 148395, Note_on_c, 0, 71, 60
1, 148413, Note_off_c, 0, 43, 61
1, 148440, Note_off_c, 0, 71, 57
1, 148539, Note_on_c, 0, 72, 61
1, 148540, Note_on_c, 0, 60, 57
1, 148547, Note_on_c, 0, 64, 52
1, 148579, Note_off_c, 0, 60, 59
1, 148582, Note_off_c, 0, 64, 61
1, 148664, Note_on_c, 0, 59, 54
1, 148668, Note_on_c, 0, 67, 48
1, 148680, Note_off_c, 0, 72, 50
1, 148710, Note_off_c, 0, 59, 56
1, 148721, Note_off_c, 0, 67, 49
1, 148774, Note_on_c, 0, 57, 58
1, 148780, Note_on_c, 0, 65, 59
1, 148804, Note_off_c, 0, 57, 64
1, 148824, Note_off_c, 0, 65, 62
1, 148906, Note_on_c, 0, 64, 54
1, 148914, Note_on_c, 0, 55, 55
1, 148944, Note_off_c, 0, 64, 63
1, 148948, Note_off_c, 0, 55, 65
1, 149025, Note_on_c, 0, 57, 56
1, 149029, Note_on_c, 0, 65, 58
1, 149063, Note_off_c, 0, 57, 60
1, 149065, Note_off_c, 0, 65, 65
1, 149129, Note_on_c, 0, 53, 60
1, 149134, Note_on_c, 0, 62, 69
1, 149162, Note_off_c, 0, 62, 64
1, 149168, Note_off_c, 0, 53, 62
1, 149275, Note_on_c, 0, 79, 70
1, 149276, Note_on_c, 0, 52, 69
1, 149284, Note_on_c, 0, 60, 57
1, 149308, Note_off_c, 0, 60, 61
1, 149314, Note_off_c, 0, 52, 62
1, 149324, Note_off_c, 0, 79, 61
1, 149394, Note_on_c, 0, 77, 70
1, 149400, Note_on_c, 0, 50, 65
1, 149437, Note_off_c, 0, 50, 61
1, 149448, Note_off_c, 0, 77, 57
1, 149513, Note_on_c, 0, 48, 66
1, 149513, Note_on_c, 0, 76, 71
1, 149563, Note_off_c, 0, 76, 64
1, 149565, Note_off_c, 0, 48, 58
1, 149647, Note_on_c, 0, 53, 70
1, 149649, Note_on_c, 0, 74, 68
1, 149695, Note_off_c, 0, 74, 63
1, 149761, Note_on_c, 0, 76, 62
1, 149800, Note_off_c, 0, 76, 60
1, 149880, Note_on_c, 0, 72, 61
1, 149910, Note_off_c, 0, 72, 67
1, 150015, Note_on_c, 0, 62, 58
1, 150020, Note_on_c, 0, 71, 65
1, 150055, Note_off_c, 0, 71, 59
1, 150068, Note_off_c, 0, 62, 52
1, 150130, Note_on_c, 0, 69, 67
1, 150142, Note_on_c, 0, 60, 61
1, 150157, Note_off_c, 0, 69, 68
1, 150199, Note_off_c, 0, 60, 56
1, 150250, Note_on_c, 0, 67, 60
1, 150267, Note_on_c, 0, 59, 52
1, 150289, Note_off_c, 0, 59, 58
1, 150290, Note_off_c, 0, 67, 58
1, 150302, Note_off_c, 0, 53, 60
1, 150373, Note_on_c, 0, 73, 73
1, 150381, Note_on_c, 0, 57, 71
1, 150386, Note_on_c, 0, 52, 64
1, 150395, Note_off_c, 0, 73, 67
1, 150419, Note_off_c, 0, 52, 67
1, 150420, Note_off_c, 0, 57, 61
1, 150500, Note_on_c, 0, 58, 69
1, 150551, Note_off_c, 0, 58, 60
1, 150622, Note_on_c, 0, 55, 67
1, 150655, Note_off_c, 0, 55, 64
1, 150752, Note_on_c, 0, 81, 86
1, 150765, Note_on_c, 0, 50, 66
1, 150768, Note_on_c, 0, 53, 59
1, 150801, Note_off_c, 0, 53, 66
1, 150803, Note_on_c, 0, 52, 24
1, 150804, Note_off_c, 0, 52, 127
1, 150804, Note_off_c, 0, 50, 65
1, 150807, Note_off_c, 0, 81, 62
1, 150871, Note_on_c, 0, 79, 83
1, 150885, Note_on_c, 0, 52, 59
1, 150921, Note_off_c, 0, 79, 62
1, 150925, Note_off_c, 0, 52, 65
1, 150986, Note_on_c, 0, 77, 82
1, 150991, Note_on_c, 0, 50, 74
1, 151024, Note_off_c, 0, 50, 65
1, 151038, Note_off_c, 0, 77, 60
1, 151114, Note_on_c, 0, 76, 77
1, 151123, Note_on_c, 0, 55, 64
1, 151134, Note_on_c, 0, 46, 62
1, 151165, Note_off_c, 0, 76, 64
1, 151232, Note_on_c, 0, 77, 67
1, 151265, Note_off_c, 0, 77, 60
1, 151349, Note_on_c, 0, 74, 65
1, 151388, Note_off_c, 0, 74, 63
1, 151458, Note_off_c, 0, 46, 60
1, 151482, Note_on_c, 0, 45, 60
1, 151604, Note_on_c, 0, 71, 60
1, 151671, Note_off_c, 0, 71, 55
1, 151716, Note_on_c, 0, 69, 69
1, 151758, Note_off_c, 0, 69, 58
1, 151776, Note_off_c, 0, 55, 34
1, 151849, Note_on_c, 0, 53, 65
1, 151857, Note_on_c, 0, 74, 68
1, 151884, Note_off_c, 0, 53, 66
1, 151980, Note_on_c, 0, 52, 58
1, 152011, Note_off_c, 0, 52, 67
1, 152107, Note_on_c, 0, 50, 58
1, 152149, Note_off_c, 0, 45, 55
1, 152151, Note_off_c, 0, 50, 61
1, 152234, Note_on_c, 0, 52, 71
1, 152268, Note_off_c, 0, 74, 61
1, 152270, Note_off_c, 0, 52, 64
1, 152365, Note_on_c, 0, 72, 63
1, 152369, Note_on_c, 0, 54, 65
1, 152396, Note_off_c, 0, 72, 64
1, 152400, Note_off_c, 0, 54, 63
1, 152481, Note_on_c, 0, 56, 62
1, 152484, Note_on_c, 0, 71, 72
1, 152527, Note_off_c, 0, 56, 60
1, 152542, Note_off_c, 0, 71, 56
1, 152600, Note_on_c, 0, 72, 76
1, 152605, Note_on_c, 0, 57, 71
1, 152654, Note_off_c, 0, 57, 57
1, 152730, Note_on_c, 0, 46, 72
1, 152769, Note_off_c, 0, 46, 64
1, 152859, Note_on_c, 0, 48, 65
1, 152899, Note_off_c, 0, 48, 67
1, 152990, Note_on_c, 0, 50, 68
1, 153025, Note_off_c, 0, 72, 56
1, 153033, Note_off_c, 0, 50, 65
1, 153109, Note_on_c, 0, 70, 66
1, 153114, Note_on_c, 0, 52, 70
1, 153142, Note_off_c, 0, 52, 66
1, 153149, Note_off_c, 0, 70, 60
1, 153227, Note_on_c, 0, 69, 78
1, 153234, Note_on_c, 0, 54, 69
1, 153272, Note_off_c, 0, 54, 59
1, 153278, Note_off_c, 0, 69, 62
1, 153353, Note_on_c, 0, 55, 80
1, 153358, Note_on_c, 0, 70, 88
1, 153411, Note_off_c, 0, 55, 62
1, 153478, Note_on_c, 0, 57, 70
1, 153526, Note_off_c, 0, 57, 62
1, 153615, Note_on_c, 0, 58, 79
1, 153628, Note_on_c, 0, 53, 65
1, 153652, Note_off_c, 0, 58, 59
1, 153675, Note_off_c, 0, 53, 61
1, 153758, Note_on_c, 0, 52, 72
1, 153758, Note_on_c, 0, 60, 72
1, 153777, Note_off_c, 0, 70, 55
1, 153886, Note_on_c, 0, 72, 71
1, 153925, Note_off_c, 0, 72, 59
1, 154000, Note_on_c, 0, 70, 75
1, 154050, Note_off_c, 0, 70, 61
1, 154120, Note_off_c, 0, 52, 61
1, 154130, Note_on_c, 0, 51, 67
1, 154135, Note_on_c, 0, 69, 70
1, 154178, Note_off_c, 0, 69, 62
1, 154247, Note_on_c, 0, 70, 58
1, 154280, Note_off_c, 0, 70, 67
1, 154362, Note_on_c, 0, 67, 57
1, 154399, Note_off_c, 0, 67, 60
1, 154472, Note_off_c, 0, 51, 58
1, 154494, Note_on_c, 0, 66, 69
1, 154500, Note_on_c, 0, 50, 63
1, 154527, Note_off_c, 0, 66, 67
1, 154611, Note_on_c, 0, 64, 57
1, 154648, Note_off_c, 0, 64, 62
1, 154743, Note_on_c, 0, 62, 55
1, 154748, Note_off_c, 0, 60, 31
1, 154787, Note_off_c, 0, 62, 59
1, 154855, Note_on_c, 0, 67, 71
1, 154861, Note_on_c, 0, 58, 68
1, 154900, Note_off_c, 0, 58, 63
1, 154981, Note_on_c, 0, 57, 60
1, 155018, Note_off_c, 0, 57, 61
1, 155103, Note_on_c, 0, 55, 61
1, 155144, Note_off_c, 0, 55, 61
1, 155237, Note_on_c, 0, 57, 60
1, 155254, Note_off_c, 0, 67, 50
1, 155272, Note_off_c, 0, 57, 60
1, 155362, Note_on_c, 0, 59, 52
1, 155365, Note_on_c, 0, 65, 60
1, 155384, Note_off_c, 0, 59, 57
1, 155401, Note_off_c, 0, 65, 65
1, 155472, Note_on_c, 0, 64, 50
1, 155481, Note_on_c, 0, 61, 62
1, 155511, Note_off_c, 0, 64, 63
1, 155523, Note_off_c, 0, 61, 60
1, 155538, Note_off_c, 0, 50, 30
1, 155600, Note_on_c, 0, 65, 62
1, 155609, Note_on_c, 0, 62, 51
1, 155636, Note_off_c, 0, 65, 61
1, 155640, Note_off_c, 0, 62, 62
1, 155716, Note_on_c, 0, 67, 70
1, 155717, Note_on_c, 0, 52, 60
1, 155754, Note_off_c, 0, 52, 64
1, 155758, Note_off_c, 0, 67, 60
1, 155830, Note_on_c, 0, 69, 74
1, 155841, Note_on_c, 0, 53, 65
1, 155870, Note_off_c, 0, 69, 65
1, 155876, Note_off_c, 0, 53, 63
1, 155975, Note_on_c, 0, 55, 67
1, 155979, Note_on_c, 0, 70, 72
1, 156091, Note_off_c, 0, 55, 61
1, 156101, Note_on_c, 0, 60, 61
1, 156137, Note_off_c, 0, 60, 63
1, 156223, Note_on_c, 0, 58, 76
1, 156274, Note_off_c, 0, 58, 59
1, 156318, Note_off_c, 0, 70, 54
1, 156343, Note_on_c, 0, 52, 72
1, 156346, Note_on_c, 0, 60, 76
1, 156469, Note_on_c, 0, 69, 68
1, 156471, Note_off_c, 0, 60, 41
1, 156519, Note_off_c, 0, 69, 62
1, 156545, Note_off_c, 0, 52, 59
1, 156585, Note_on_c, 0, 67, 80
1, 156632, Note_off_c, 0, 67, 59
1, 156718, Note_on_c, 0, 69, 77
1, 156720, Note_on_c, 0, 53, 73
1, 156829, Note_on_c, 0, 62, 73
1, 156867, Note_off_c, 0, 62, 60
1, 156946, Note_on_c, 0, 64, 75
1, 156988, Note_off_c, 0, 64, 61
1, 157051, Note_off_c, 0, 69, 62
1, 157067, Note_on_c, 0, 65, 87
1, 157123, Note_off_c, 0, 53, 64
1, 157207, Note_on_c, 0, 70, 77
1, 157219, Note_on_c, 0, 55, 68
1, 157258, Note_off_c, 0, 70, 61
1, 157261, Note_off_c, 0, 55, 61
1, 157332, Note_on_c, 0, 72, 77
1, 157337, Note_on_c, 0, 57, 68
1, 157389, Note_off_c, 0, 57, 59
1, 157392, Note_off_c, 0, 72, 63
1, 157453, Note_off_c, 0, 65, 61
1, 157468, Note_on_c, 0, 74, 86
1, 157469, Note_on_c, 0, 58, 81
1, 157610, Note_on_c, 0, 64, 76
1, 157613, Note_off_c, 0, 58, 62
1, 157651, Note_off_c, 0, 64, 63
1, 157732, Note_on_c, 0, 62, 79
1, 157782, Note_off_c, 0, 62, 59
1, 157856, Note_on_c, 0, 64, 80
1, 157858, Note_on_c, 0, 55, 78
1, 157863, Note_off_c, 0, 74, 42
1, 157986, Note_on_c, 0, 72, 74
1, 158036, Note_off_c, 0, 72, 61
1, 158041, Note_off_c, 0, 55, 57
1, 158096, Note_on_c, 0, 70, 78
1, 158166, Note_off_c, 0, 70, 62
1, 158225, Note_off_c, 0, 64, 62
1, 158232, Note_on_c, 0, 57, 82
1, 158237, Note_on_c, 0, 72, 87
1, 158364, Note_on_c, 0, 65, 68
1, 158405, Note_off_c, 0, 65, 61
1, 158485, Note_on_c, 0, 67, 80
1, 158536, Note_off_c, 0, 67, 60
1, 158600, Note_off_c, 0, 72, 61
1, 158617, Note_on_c, 0, 69, 89
1, 158662, Note_off_c, 0, 57, 61
1, 158751, Note_on_c, 0, 59, 76
1, 158754, Note_on_c, 0, 74, 75
1, 158793, Note_off_c, 0, 59, 59
1, 158795, Note_off_c, 0, 74, 63
1, 158865, Note_on_c, 0, 76, 84
1, 158869, Note_on_c, 0, 60, 79
1, 158921, Note_off_c, 0, 60, 60
1, 158937, Note_off_c, 0, 76, 66
1, 158990, Note_off_c, 0, 69, 62
1, 159001, Note_on_c, 0, 77, 92
1, 159005, Note_on_c, 0, 62, 82
1, 159136, Note_on_c, 0, 67, 81
1, 159183, Note_off_c, 0, 67, 60
1, 159206, Note_off_c, 0, 62, 54
1, 159254, Note_on_c, 0, 65, 84
1, 159306, Note_off_c, 0, 65, 64
1, 159381, Note_on_c, 0, 67, 85
1, 159382, Note_on_c, 0, 59, 80
1, 159393, Note_off_c, 0, 77, 38
1, 159514, Note_on_c, 0, 76, 73
1, 159568, Note_off_c, 0, 76, 64
1, 159625, Note_on_c, 0, 74, 77
1, 159635, Note_off_c, 0, 59, 63
1, 159687, Note_off_c, 0, 74, 63
1, 159758, Note_off_c, 0, 67, 58
1, 159765, Note_on_c, 0, 60, 82
1, 159766, Note_on_c, 0, 76, 90
1, 159893, Note_on_c, 0, 69, 77
1, 159938, Note_off_c, 0, 69, 59
1, 160024, Note_on_c, 0, 71, 73
1, 160063, Note_off_c, 0, 71, 61
1, 160121, Note_off_c, 0, 76, 62
1, 160145, Note_on_c, 0, 72, 81
1, 160203, Note_off_c, 0, 60, 58
1, 160260, Note_off_c, 0, 72, 63
1, 160268, Note_on_c, 0, 77, 81
1, 160283, Note_on_c, 0, 62, 76
1, 160318, Note_off_c, 0, 77, 60
1, 160326, Note_off_c, 0, 62, 59
1, 160395, Note_on_c, 0, 79, 79
1, 160400, Note_on_c, 0, 64, 72
1, 160448, Note_off_c, 0, 64, 64
1, 160453, Note_off_c, 0, 79, 62
1, 160517, Note_on_c, 0, 81, 85
1, 160520, Note_on_c, 0, 65, 73
1, 160564, Note_off_c, 0, 65, 60
1, 160568, Note_off_c, 0, 81, 60
1, 160632, Note_on_c, 0, 64, 68
1, 160640, Note_on_c, 0, 79, 75
1, 160674, Note_off_c, 0, 64, 61
1, 160692, Note_off_c, 0, 79, 59
1, 160753, Note_on_c, 0, 77, 75
1, 160754, Note_on_c, 0, 62, 68
1, 160793, Note_off_c, 0, 62, 56
1, 160805, Note_off_c, 0, 77, 60
1, 160869, Note_on_c, 0, 60, 70
1, 160873, Note_on_c, 0, 76, 75
1, 160904, Note_off_c, 0, 60, 60
1, 160917, Note_off_c, 0, 76, 66
1, 160989, Note_on_c, 0, 77, 70
1, 160990, Note_on_c, 0, 62, 65
1, 161031, Note_off_c, 0, 62, 58
1, 161036, Note_on_c, 0, 76, 71
1, 161064, Note_off_c, 0, 77, 57
1, 161084, Note_on_c, 0, 74, 68
1, 161108, Note_on_c, 0, 58, 67
1, 161118, Note_off_c, 0, 76, 63
1, 161142, Note_on_c, 0, 72, 65
1, 161142, Note_off_c, 0, 58, 66
1, 161199, Note_off_c, 0, 74, 58
1, 161211, Note_on_c, 0, 77, 83
1, 161220, Note_on_c, 0, 57, 75
1, 161225, Note_off_c, 0, 72, 63
1, 161265, Note_off_c, 0, 57, 59
1, 161346, Note_on_c, 0, 55, 62
1, 161381, Note_off_c, 0, 55, 64
1, 161475, Note_on_c, 0, 53, 66
1, 161487, Note_on_c, 0, 74, 66
1, 161512, Note_off_c, 0, 53, 64
1, 161544, Note_off_c, 0, 74, 62
1, 161601, Note_on_c, 0, 55, 70
1, 161604, Note_on_c, 0, 71, 61
1, 161634, Note_off_c, 0, 55, 64
1, 161636, Note_off_c, 0, 71, 63
1, 161729, Note_on_c, 0, 57, 60
1, 161765, Note_off_c, 0, 57, 62
1, 161849, Note_on_c, 0, 67, 64
1, 161854, Note_on_c, 0, 59, 63
1, 161884, Note_off_c, 0, 67, 62
1, 161892, Note_off_c, 0, 59, 60
1, 161911, Note_off_c, 0, 77, 56
1, 161979, Note_on_c, 0, 75, 65
1, 161983, Note_on_c, 0, 60, 54
1, 162013, Note_off_c, 0, 75, 61
1, 162018, Note_off_c, 0, 60, 61
1, 162104, Note_on_c, 0, 59, 57
1, 162104, Note_on_c, 0, 79, 70
1, 162139, Note_off_c, 0, 59, 61
1, 162148, Note_off_c, 0, 79, 56
1, 162218, Note_on_c, 0, 78, 78
1, 162223, Note_on_c, 0, 57, 63
1, 162228, Note_on_c, 0, 72, 58
1, 162252, Note_off_c, 0, 57, 63
1, 162252, Note_off_c, 0, 72, 57
1, 162290, Note_off_c, 0, 78, 62
1, 162348, Note_on_c, 0, 55, 67
1, 162354, Note_on_c, 0, 71, 65
1, 162355, Note_on_c, 0, 79, 68
1, 162391, Note_off_c, 0, 55, 61
1, 162410, Note_off_c, 0, 71, 55
1, 162478, Note_on_c, 0, 56, 60
1, 162480, Note_on_c, 0, 72, 64
1, 162520, Note_off_c, 0, 56, 59
1, 162554, Note_off_c, 0, 72, 60
1, 162595, Note_on_c, 0, 53, 65
1, 162613, Note_on_c, 0, 74, 64
1, 162624, Note_off_c, 0, 53, 67
1, 162662, Note_off_c, 0, 74, 54
1, 162725, Note_on_c, 0, 51, 71
1, 162736, Note_on_c, 0, 72, 64
1, 162773, Note_off_c, 0, 51, 58
1, 162786, Note_off_c, 0, 72, 57
1, 162856, Note_on_c, 0, 74, 61
1, 162857, Note_on_c, 0, 50, 72
1, 162902, Note_off_c, 0, 50, 64
1, 162936, Note_off_c, 0, 74, 56
1, 162946, Note_off_c, 0, 79, 29
1, 162987, Note_on_c, 0, 48, 75
1, 162987, Note_on_c, 0, 75, 76
1, 163033, Note_off_c, 0, 75, 61
1, 163037, Note_off_c, 0, 48, 62
1, 163113, Note_on_c, 0, 50, 80
1, 163118, Note_on_c, 0, 78, 84
1, 163118, Note_on_c, 0, 69, 78
1, 163165, Note_off_c, 0, 50, 62
1, 163178, Note_off_c, 0, 78, 62
1, 163240, Note_on_c, 0, 52, 78
1, 163240, Note_on_c, 0, 79, 80
1, 163281, Note_off_c, 0, 52, 66
1, 163308, Note_off_c, 0, 79, 62
1, 163367, Note_on_c, 0, 54, 78
1, 163369, Note_on_c, 0, 81, 82
1, 163398, Note_off_c, 0, 81, 54
1, 163425, Note_off_c, 0, 54, 61
1, 163500, Note_on_c, 0, 55, 71
1, 163501, Note_on_c, 0, 70, 79
1, 163539, Note_off_c, 0, 69, 62
1, 163550, Note_off_c, 0, 55, 64
1, 163570, Note_off_c, 0, 70, 62
1, 163624, Note_on_c, 0, 53, 65
1, 163628, Note_on_c, 0, 74, 69
1, 163667, Note_off_c, 0, 53, 63
1, 163679, Note_off_c, 0, 74, 63
1, 163747, Note_on_c, 0, 51, 69
1, 163748, Note_on_c, 0, 72, 75
1, 163759, Note_on_c, 0, 67, 60
1, 163777, Note_off_c, 0, 72, 62
1, 163785, Note_off_c, 0, 51, 61
1, 163872, Note_on_c, 0, 70, 70
1, 163876, Note_on_c, 0, 50, 74
1, 163916, Note_off_c, 0, 50, 60
1, 163917, Note_off_c, 0, 67, 59
1, 163935, Note_off_c, 0, 70, 53
1, 163995, Note_on_c, 0, 72, 70
1, 163998, Note_on_c, 0, 51, 64
1, 164032, Note_off_c, 0, 72, 57
1, 164043, Note_off_c, 0, 51, 63
1, 164115, Note_on_c, 0, 69, 73
1, 164117, Note_on_c, 0, 48, 68
1, 164120, Note_on_c, 0, 66, 62
1, 164148, Note_off_c, 0, 48, 64
1, 164164, Note_off_c, 0, 66, 62
1, 164186, Note_off_c, 0, 69, 59
1, 164250, Note_on_c, 0, 46, 74
1, 164254, Note_on_c, 0, 67, 72
1, 164294, Note_off_c, 0, 46, 59
1, 164380, Note_on_c, 0, 45, 71
1, 164425, Note_off_c, 0, 45, 65
1, 164516, Note_on_c, 0, 43, 73
1, 164522, Note_on_c, 0, 75, 70
1, 164561, Note_off_c, 0, 43, 62
1, 164588, Note_off_c, 0, 75, 62
1, 164645, Note_on_c, 0, 45, 82
1, 164647, Note_on_c, 0, 73, 78
1, 164696, Note_off_c, 0, 45, 63
1, 164701, Note_off_c, 0, 73, 63
1, 164773, Note_on_c, 0, 47, 78
1, 164814, Note_off_c, 0, 47, 67
1, 164869, Note_off_c, 0, 67, 58
1, 164889, Note_on_c, 0, 49, 80
1, 164909, Note_on_c, 0, 69, 76
1, 164949, Note_off_c, 0, 49, 62
1, 164975, Note_off_c, 0, 69, 60
1, 165025, Note_on_c, 0, 50, 72
1, 165038, Note_on_c, 0, 65, 76
1, 165075, Note_off_c, 0, 50, 61
1, 165098, Note_off_c, 0, 65, 63
1, 165151, Note_on_c, 0, 69, 73
1, 165155, Note_on_c, 0, 48, 69
1, 165193, Note_off_c, 0, 48, 65
1, 165217, Note_off_c, 0, 69, 58
1, 165272, Note_on_c, 0, 46, 72
1, 165276, Note_on_c, 0, 67, 66
1, 165279, Note_on_c, 0, 74, 66
1, 165306, Note_off_c, 0, 67, 64
1, 165318, Note_off_c, 0, 46, 63
1, 165347, Note_off_c, 0, 74, 62
1, 165402, Note_on_c, 0, 45, 67
1, 165406, Note_on_c, 0, 73, 69
1, 165407, Note_on_c, 0, 69, 62
1, 165444, Note_off_c, 0, 45, 63
1, 165467, Note_off_c, 0, 73, 64
1, 165523, Note_on_c, 0, 46, 70
1, 165533, Note_on_c, 0, 74, 61
1, 165561, Note_off_c, 0, 46, 66
1, 165604, Note_off_c, 0, 74, 59
1, 165657, Note_on_c, 0, 76, 64
1, 165660, Note_on_c, 0, 43, 72
1, 165698, Note_off_c, 0, 43, 63
1, 165730, Note_off_c, 0, 76, 58
1, 165786, Note_on_c, 0, 74, 63
1, 165798, Note_on_c, 0, 41, 69
1, 165799, Note_off_c, 0, 69, 41
1, 165832, Note_off_c, 0, 41, 67
1, 165859, Note_off_c, 0, 74, 63
1, 165914, Note_on_c, 0, 40, 63
1, 165916, Note_on_c, 0, 76, 60
1, 165951, Note_off_c, 0, 40, 64
1, 165971, Note_off_c, 0, 76, 63
1, 166029, Note_on_c, 0, 77, 68
1, 166031, Note_on_c, 0, 38, 64
1, 166059, Note_off_c, 0, 38, 64
1, 166063, Note_off_c, 0, 77, 58
1, 166153, Note_on_c, 0, 70, 81
1, 166168, Note_on_c, 0, 50, 78
1, 166168, Note_on_c, 0, 53, 83
1, 166204, Note_off_c, 0, 50, 63
1, 166205, Note_off_c, 0, 53, 68
1, 166293, Note_on_c, 0, 52, 83
1, 166304, Note_off_c, 0, 70, 61
1, 166342, Note_off_c, 0, 52, 66
1, 166415, Note_on_c, 0, 53, 87
1, 166471, Note_off_c, 0, 53, 64
1, 166557, Note_on_c, 0, 60, 90
1, 166561, Note_on_c, 0, 52, 87
1, 166599, Note_off_c, 0, 52, 67
1, 166600, Note_off_c, 0, 60, 60
1, 166690, Note_on_c, 0, 76, 69
1, 166751, Note_off_c, 0, 76, 61
1, 166805, Note_on_c, 0, 79, 63
1, 166863, Note_off_c, 0, 79, 58
1, 166937, Note_on_c, 0, 57, 79
1, 166937, Note_on_c, 0, 51, 72
1, 166940, Note_on_c, 0, 72, 85
1, 166979, Note_off_c, 0, 51, 64
1, 166990, Note_off_c, 0, 57, 61
1, 167066, Note_on_c, 0, 55, 83
1, 167122, Note_off_c, 0, 55, 63
1, 167154, Note_off_c, 0, 72, 62
1, 167203, Note_on_c, 0, 57, 86
1, 167251, Note_off_c, 0, 57, 64
1, 167335, Note_on_c, 0, 62, 95
1, 167340, Note_on_c, 0, 50, 87
1, 167376, Note_off_c, 0, 50, 64
1, 167379, Note_off_c, 0, 62, 61
1, 167452, Note_on_c, 0, 70, 62
1, 167506, Note_off_c, 0, 70, 56
1, 167569, Note_on_c, 0, 69, 71
1, 167593, Note_off_c, 0, 69, 69
1, 167714, Note_on_c, 0, 52, 69
1, 167718, Note_on_c, 0, 70, 72
1, 167719, Note_on_c, 0, 60, 76
1, 167766, Note_off_c, 0, 52, 65
1, 167786, Note_off_c, 0, 60, 59
1, 167807, Note_off_c, 0, 70, 61
1, 167829, Note_on_c, 0, 53, 81
1, 167838, Note_on_c, 0, 62, 82
1, 167885, Note_off_c, 0, 53, 65
1, 167902, Note_off_c, 0, 62, 61
1, 167965, Note_on_c, 0, 64, 86
1, 167968, Note_on_c, 0, 55, 74
1, 168004, Note_off_c, 0, 55, 62
1, 168016, Note_off_c, 0, 64, 64
1, 168092, Note_on_c, 0, 65, 96
1, 168098, Note_on_c, 0, 45, 76
1, 168159, Note_off_c, 0, 65, 63
1, 168172, Note_off_c, 0, 45, 59
1, 168207, Note_on_c, 0, 64, 71
1, 168246, Note_off_c, 0, 64, 63
1, 168323, Note_on_c, 0, 46, 80
1, 168330, Note_on_c, 0, 62, 72
1, 168330, Note_on_c, 0, 70, 75
1, 168372, Note_off_c, 0, 70, 52
1, 168374, Note_off_c, 0, 62, 58
1, 168377, Note_off_c, 0, 46, 61
1, 168454, Note_on_c, 0, 48, 80
1, 168463, Note_on_c, 0, 69, 77
1, 168465, Note_on_c, 0, 60, 76
1, 168490, Note_off_c, 0, 48, 67
1, 168509, Note_off_c, 0, 60, 57
1, 168518, Note_off_c, 0, 69, 57
1, 168592, Note_on_c, 0, 62, 53
1, 168635, Note_off_c, 0, 62, 46
1, 168711, Note_on_c, 0, 49, 66
1, 168713, Note_on_c, 0, 67, 64
1, 168733, Note_on_c, 0, 58, 54
1, 168740, Note_off_c, 0, 49, 64
1, 168755, Note_off_c, 0, 58, 63
1, 168758, Note_off_c, 0, 67, 54
1, 168846, Note_on_c, 0, 65, 64
1, 168848, Note_on_c, 0, 57, 60
1, 168851, Note_on_c, 0, 50, 60
1, 168889, Note_off_c, 0, 57, 58
1, 168973, Note_on_c, 0, 55, 62
1, 169010, Note_off_c, 0, 55, 64
1, 169104, Note_on_c, 0, 53, 59
1, 169157, Note_off_c, 0, 53, 62
1, 169232, Note_on_c, 0, 58, 73
1, 169336, Note_off_c, 0, 58, 56
1, 169342, Note_off_c, 0, 50, 41
1, 169365, Note_on_c, 0, 48, 62
1, 169369, Note_on_c, 0, 63, 67
1, 169387, Note_off_c, 0, 65, 59
1, 169414, Note_off_c, 0, 63, 65
1, 169419, Note_off_c, 0, 48, 64
1, 169493, Note_on_c, 0, 62, 65
1, 169495, Note_on_c, 0, 46, 48
1, 169523, Note_off_c, 0, 46, 52
1, 169525, Note_off_c, 0, 62, 63
1, 169624, Note_on_c, 0, 60, 64
1, 169626, Note_on_c, 0, 53, 64
1, 169751, Note_on_c, 0, 57, 58
1, 169790, Note_off_c, 0, 57, 63
1, 169897, Note_on_c, 0, 55, 53
1, 169954, Note_off_c, 0, 55, 63
1, 170001, Note_on_c, 0, 57, 76
1, 170131, Note_off_c, 0, 53, 61
1, 170135, Note_off_c, 0, 60, 60
1, 170145, Note_on_c, 0, 62, 65
1, 170147, Note_off_c, 0, 57, 59
1, 170191, Note_off_c, 0, 62, 56
1, 170262, Note_on_c, 0, 63, 69
1, 170264, Note_on_c, 0, 51, 67
1, 170299, Note_off_c, 0, 51, 62
1, 170332, Note_off_c, 0, 63, 62
1, 170386, Note_on_c, 0, 65, 72
1, 170391, Note_on_c, 0, 50, 70
1, 170433, Note_off_c, 0, 50, 60
1, 170499, Note_on_c, 0, 58, 74
1, 170526, Note_off_c, 0, 58, 68
1, 170610, Note_on_c, 0, 48, 73
1, 170618, Note_on_c, 0, 60, 76
1, 170645, Note_off_c, 0, 60, 65
1, 170648, Note_off_c, 0, 48, 65
1, 170693, Note_off_c, 0, 65, 64
1, 170740, Note_on_c, 0, 62, 83
1, 170748, Note_on_c, 0, 46, 82
1, 170810, Note_off_c, 0, 46, 60
1, 170861, Note_on_c, 0, 67, 73
1, 170937, Note_off_c, 0, 67, 61
1, 170994, Note_on_c, 0, 45, 78
1, 170994, Note_on_c, 0, 69, 85
1, 171028, Note_off_c, 0, 62, 59
1, 171033, Note_off_c, 0, 45, 66
1, 171046, Note_off_c, 0, 69, 61
1, 171129, Note_on_c, 0, 70, 87
1, 171138, Note_on_c, 0, 43, 83
1, 171214, Note_off_c, 0, 43, 57
1, 171250, Note_on_c, 0, 63, 64
1, 171283, Note_off_c, 0, 63, 67
1, 171379, Note_on_c, 0, 41, 82
1, 171384, Note_on_c, 0, 65, 79
1, 171417, Note_off_c, 0, 65, 64
1, 171420, Note_off_c, 0, 41, 67
1, 171465, Note_off_c, 0, 70, 60
1, 171509, Note_on_c, 0, 67, 87
1, 171516, Note_on_c, 0, 39, 81
1, 171587, Note_off_c, 0, 39, 59
1, 171645, Note_on_c, 0, 72, 74
1, 171697, Note_off_c, 0, 72, 62
1, 171767, Note_on_c, 0, 74, 86
1, 171771, Note_on_c, 0, 38, 85
1, 171823, Note_off_c, 0, 38, 60
1, 171823, Note_off_c, 0, 74, 64
1, 171849, Note_off_c, 0, 67, 51
1, 171897, Note_on_c, 0, 75, 92
1, 171909, Note_on_c, 0, 36, 82
1, 172027, Note_on_c, 0, 69, 70
1, 172080, Note_off_c, 0, 69, 60
1, 172153, Note_on_c, 0, 70, 75
1, 172222, Note_off_c, 0, 70, 62
1, 172278, Note_on_c, 0, 72, 88
1, 172409, Note_off_c, 0, 36, 53
1, 172413, Note_on_c, 0, 38, 69
1, 172457, Note_off_c, 0, 38, 65
1, 172534, Note_on_c, 0, 70, 75
1, 172537, Note_on_c, 0, 39, 72
1, 172543, Note_off_c, 0, 72, 46
1, 172576, Note_off_c, 0, 39, 64
1, 172598, Note_off_c, 0, 75, 48
1, 172607, Note_off_c, 0, 70, 61
1, 172657, Note_on_c, 0, 69, 76
1, 172668, Note_on_c, 0, 41, 85
1, 172723, Note_off_c, 0, 69, 60
1, 172796, Note_on_c, 0, 74, 75
1, 172854, Note_off_c, 0, 74, 65
1, 172915, Note_on_c, 0, 72, 87
1, 172967, Note_off_c, 0, 72, 64
1, 173037, Note_on_c, 0, 74, 83
1, 173045, Note_on_c, 0, 70, 84
1, 173155, Note_off_c, 0, 74, 63
1, 173173, Note_on_c, 0, 75, 76
1, 173221, Note_off_c, 0, 75, 63
1, 173310, Note_on_c, 0, 74, 71
1, 173370, Note_off_c, 0, 74, 65
1, 173424, Note_off_c, 0, 70, 59
1, 173431, Note_on_c, 0, 72, 86
1, 173559, Note_on_c, 0, 69, 68
1, 173610, Note_off_c, 0, 69, 64
1, 173674, Note_on_c, 0, 67, 68
1, 173711, Note_off_c, 0, 67, 58
1, 173786, Note_off_c, 0, 72, 59
1, 173802, Note_on_c, 0, 69, 84
1, 173934, Note_on_c, 0, 72, 76
1, 173993, Note_off_c, 0, 72, 64
1, 174052, Note_on_c, 0, 77, 84
1, 174101, Note_off_c, 0, 77, 56
1, 174192, Note_on_c, 0, 70, 83
1, 174222, Note_off_c, 0, 69, 59
1, 174314, Note_on_c, 0, 67, 71
1, 174367, Note_off_c, 0, 67, 60
1, 174440, Note_on_c, 0, 65, 67
1, 174476, Note_off_c, 0, 65, 62
1, 174561, Note_off_c, 0, 70, 58
1, 174569, Note_on_c, 0, 67, 76
1, 174698, Note_on_c, 0, 70, 63
1, 174754, Note_off_c, 0, 70, 55
1, 174813, Note_on_c, 0, 75, 73
1, 174867, Note_off_c, 0, 75, 59
1, 174956, Note_on_c, 0, 69, 75
1, 174995, Note_off_c, 0, 67, 61
1, 175078, Note_on_c, 0, 65, 63
1, 175120, Note_off_c, 0, 65, 61
1, 175194, Note_on_c, 0, 64, 67
1, 175230, Note_off_c, 0, 64, 57
1, 175283, Note_off_c, 0, 69, 59
1, 175320, Note_on_c, 0, 65, 73
1, 175438, Note_on_c, 0, 69, 63
1, 175501, Note_off_c, 0, 69, 61
1, 175572, Note_on_c, 0, 74, 67
1, 175611, Note_off_c, 0, 74, 53
1, 175713, Note_on_c, 0, 67, 68
1, 175769, Note_off_c, 0, 65, 58
1, 175841, Note_on_c, 0, 63, 60
1, 175908, Note_off_c, 0, 63, 64
1, 175963, Note_on_c, 0, 62, 57
1, 176002, Note_off_c, 0, 62, 59
1, 176097, Note_on_c, 0, 63, 72
1, 176104, Note_off_c, 0, 67, 59
1, 176206, Note_off_c, 0, 41, 65
1, 176224, Note_on_c, 0, 67, 62
1, 176301, Note_off_c, 0, 67, 58
1, 176345, Note_on_c, 0, 72, 64
1, 176384, Note_off_c, 0, 72, 57
1, 176386, Note_off_c, 0, 63, 64
1, 176480, Note_on_c, 0, 65, 65
1, 176604, Note_on_c, 0, 62, 59
1, 176637, Note_off_c, 0, 62, 62
1, 176736, Note_on_c, 0, 60, 56
1, 176759, Note_off_c, 0, 60, 57
1, 176811, Note_off_c, 0, 65, 62
1, 176848, Note_on_c, 0, 62, 68
1, 176854, Note_on_c, 0, 46, 68
1, 176895, Note_off_c, 0, 62, 58
1, 176903, Note_off_c, 0, 46, 62
1, 176985, Note_on_c, 0, 45, 63
1, 177030, Note_off_c, 0, 45, 64
1, 177117, Note_on_c, 0, 70, 47
1, 177118, Note_on_c, 0, 46, 46
1, 177149, Note_off_c, 0, 46, 53
1, 177173, Note_off_c, 0, 70, 42
1, 177233, Note_on_c, 0, 60, 72
1, 177235, Note_on_c, 0, 53, 67
1, 177266, Note_off_c, 0, 60, 58
1, 177268, Note_off_c, 0, 53, 67
1, 177347, Note_on_c, 0, 67, 65
1, 177399, Note_off_c, 0, 67, 57
1, 177478, Note_on_c, 0, 69, 58
1, 177520, Note_off_c, 0, 69, 62
1, 177594, Note_on_c, 0, 65, 70
1, 177595, Note_on_c, 0, 50, 64
1, 177623, Note_off_c, 0, 65, 66
1, 177634, Note_off_c, 0, 50, 63
1, 177715, Note_on_c, 0, 48, 69
1, 177762, Note_off_c, 0, 48, 65
1, 177856, Note_on_c, 0, 50, 66
1, 177857, Note_on_c, 0, 74, 63
1, 177886, Note_off_c, 0, 74, 63
1, 177898, Note_off_c, 0, 50, 64
1, 177978, Note_on_c, 0, 70, 75
1, 177999, Note_on_c, 0, 55, 40
1, 178024, Note_off_c, 0, 70, 55
1, 178029, Note_off_c, 0, 55, 52
1, 178103, Note_on_c, 0, 62, 62
1, 178141, Note_off_c, 0, 62, 59
1, 178221, Note_on_c, 0, 63, 55
1, 178241, Note_off_c, 0, 63, 59
1, 178351, Note_on_c, 0, 53, 62
1, 178357, Note_on_c, 0, 69, 52
1, 178390, Note_off_c, 0, 69, 59
1, 178394, Note_off_c, 0, 53, 64
1, 178475, Note_on_c, 0, 70, 59
1, 178486, Note_on_c, 0, 55, 57
1, 178520, Note_off_c, 0, 55, 65
1, 178521, Note_off_c, 0, 70, 61
1, 178598, Note_on_c, 0, 57, 59
1, 178599, Note_on_c, 0, 72, 50
1, 178622, Note_off_c, 0, 72, 57
1, 178627, Note_off_c, 0, 57, 64
1, 178723, Note_on_c, 0, 58, 68
1, 178723, Note_on_c, 0, 74, 67
1, 178793, Note_off_c, 0, 58, 61
1, 178831, Note_on_c, 0, 57, 67
1, 178840, Note_on_c, 0, 72, 67
1, 178860, Note_off_c, 0, 74, 30
1, 178876, Note_off_c, 0, 57, 56
1, 178886, Note_off_c, 0, 72, 60
1, 178952, Note_on_c, 0, 55, 66
1, 178965, Note_on_c, 0, 75, 67
1, 178986, Note_off_c, 0, 55, 65
1, 179000, Note_off_c, 0, 75, 58
1, 179078, Note_on_c, 0, 74, 65
1, 179086, Note_on_c, 0, 53, 65
1, 179115, Note_off_c, 0, 74, 58
1, 179119, Note_off_c, 0, 53, 66
1, 179214, Note_on_c, 0, 75, 58
1, 179216, Note_on_c, 0, 55, 57
1, 179241, Note_off_c, 0, 55, 59
1, 179258, Note_off_c, 0, 75, 64
1, 179338, Note_on_c, 0, 51, 61
1, 179342, Note_on_c, 0, 72, 59
1, 179376, Note_off_c, 0, 51, 59
1, 179378, Note_off_c, 0, 72, 57
1, 179461, Note_on_c, 0, 50, 63
1, 179483, Note_on_c, 0, 71, 45
1, 179502, Note_off_c, 0, 50, 62
1, 179524, Note_off_c, 0, 71, 47
1, 179585, Note_on_c, 0, 48, 66
1, 179627, Note_on_c, 0, 70, 44
1, 179628, Note_off_c, 0, 48, 64
1, 179704, Note_on_c, 0, 46, 75
1, 179735, Note_off_c, 0, 46, 61
1, 179835, Note_on_c, 0, 62, 65
1, 179846, Note_on_c, 0, 58, 73
1, 179886, Note_off_c, 0, 58, 60
1, 179887, Note_off_c, 0, 62, 56
1, 179972, Note_on_c, 0, 63, 64
1, 179979, Note_on_c, 0, 60, 62
1, 180013, Note_off_c, 0, 60, 62
1, 180026, Note_off_c, 0, 63, 56
1, 180099, Note_on_c, 0, 65, 68
1, 180100, Note_on_c, 0, 62, 59
1, 180139, Note_off_c, 0, 62, 60
1, 180142, Note_off_c, 0, 65, 62
1, 180215, Note_on_c, 0, 67, 71
1, 180216, Note_on_c, 0, 63, 73
1, 180282, Note_off_c, 0, 63, 63
1, 180314, Note_off_c, 0, 67, 58
1, 180334, Note_on_c, 0, 65, 56
1, 180343, Note_on_c, 0, 62, 60
1, 180373, Note_off_c, 0, 65, 64
1, 180381, Note_off_c, 0, 62, 61
1, 180395, Note_off_c, 0, 70, 60
1, 180459, Note_on_c, 0, 60, 61
1, 180461, Note_on_c, 0, 68, 65
1, 180485, Note_off_c, 0, 60, 63
1, 180512, Note_off_c, 0, 68, 57
1, 180583, Note_on_c, 0, 58, 61
1, 180588, Note_on_c, 0, 67, 57
1, 180629, Note_off_c, 0, 58, 61
1, 180639, Note_off_c, 0, 67, 59
1, 180711, Note_on_c, 0, 68, 58
1, 180712, Note_on_c, 0, 60, 57
1, 180745, Note_off_c, 0, 60, 65
1, 180758, Note_off_c, 0, 68, 56
1, 180828, Note_on_c, 0, 56, 62
1, 180832, Note_on_c, 0, 65, 59
1, 180867, Note_off_c, 0, 56, 63
1, 180876, Note_off_c, 0, 65, 62
1, 180953, Note_on_c, 0, 55, 70
1, 180955, Note_on_c, 0, 64, 68
1, 180988, Note_off_c, 0, 55, 64
1, 181001, Note_off_c, 0, 64, 59
1, 181073, Note_on_c, 0, 65, 60
1, 181123, Note_off_c, 0, 65, 56
1, 181186, Note_on_c, 0, 53, 60
1, 181197, Note_on_c, 0, 67, 51
1, 181220, Note_off_c, 0, 53, 66
1, 181233, Note_off_c, 0, 67, 62
1, 181314, Note_on_c, 0, 60, 62
1, 181316, Note_on_c, 0, 52, 69
1, 181343, Note_off_c, 0, 52, 67
1, 181364, Note_off_c, 0, 60, 55
1, 181432, Note_on_c, 0, 67, 61
1, 181478, Note_off_c, 0, 67, 60
1, 181554, Note_on_c, 0, 48, 55
1, 181558, Note_on_c, 0, 68, 74
1, 181587, Note_off_c, 0, 48, 65
1, 181605, Note_off_c, 0, 68, 61
1, 181690, Note_on_c, 0, 68, 83
1, 181691, Note_on_c, 0, 53, 67
1, 181746, Note_off_c, 0, 53, 59
1, 181813, Note_on_c, 0, 56, 57
1, 181843, Note_off_c, 0, 56, 64
1, 181930, Note_on_c, 0, 58, 72
1, 181964, Note_off_c, 0, 58, 63
1, 182036, Note_off_c, 0, 68, 55
1, 182066, Note_on_c, 0, 50, 67
1, 182074, Note_on_c, 0, 58, 70
1, 182190, Note_on_c, 0, 65, 69
1, 182240, Note_off_c, 0, 65, 58
1, 182288, Note_off_c, 0, 58, 54
1, 182315, Note_on_c, 0, 67, 73
1, 182353, Note_off_c, 0, 67, 58
1, 182448, Note_on_c, 0, 52, 63
1, 182448, Note_on_c, 0, 67, 78
1, 182480, Note_off_c, 0, 50, 47
1, 182488, Note_off_c, 0, 52, 61
1, 182561, Note_on_c, 0, 55, 63
1, 182599, Note_off_c, 0, 55, 62
1, 182689, Note_on_c, 0, 56, 60
1, 182727, Note_off_c, 0, 56, 60
1, 182789, Note_off_c, 0, 67, 53
1, 182819, Note_on_c, 0, 56, 62
1, 182822, Note_on_c, 0, 53, 65
1, 182932, Note_off_c, 0, 53, 65
1, 182947, Note_off_c, 0, 56, 58
1, 182953, Note_on_c, 0, 64, 57
1, 182992, Note_off_c, 0, 64, 62
1, 183071, Note_on_c, 0, 65, 67
1, 183111, Note_off_c, 0, 65, 59
1, 183198, Note_on_c, 0, 49, 63
1, 183207, Note_on_c, 0, 65, 72
1, 183254, Note_off_c, 0, 49, 59
1, 183333, Note_on_c, 0, 53, 60
1, 183372, Note_off_c, 0, 53, 65
1, 183445, Note_on_c, 0, 55, 54
1, 183485, Note_off_c, 0, 55, 64
1, 183562, Note_off_c, 0, 65, 55
1, 183585, Note_on_c, 0, 55, 64
1, 183600, Note_on_c, 0, 47, 61
1, 183719, Note_on_c, 0, 62, 68
1, 183760, Note_off_c, 0, 62, 55
1, 183788, Note_off_c, 0, 47, 59
1, 183817, Note_off_c, 0, 55, 53
1, 183852, Note_on_c, 0, 64, 67
1, 183889, Note_off_c, 0, 64, 62
1, 183973, Note_on_c, 0, 64, 65
1, 183982, Note_on_c, 0, 48, 62
1, 184101, Note_on_c, 0, 59, 65
1, 184143, Note_off_c, 0, 59, 63
1, 184226, Note_on_c, 0, 60, 71
1, 184333, Note_off_c, 0, 64, 58
1, 184346, Note_on_c, 0, 68, 79
1, 184480, Note_on_c, 0, 64, 58
1, 184561, Note_off_c, 0, 60, 46
1, 184596, Note_off_c, 0, 64, 54
1, 184612, Note_on_c, 0, 65, 66
1, 184708, Note_off_c, 0, 68, 44
1, 184732, Note_off_c, 0, 65, 61
1, 184736, Note_on_c, 0, 58, 71
1, 184856, Note_on_c, 0, 67, 66
1, 184892, Note_off_c, 0, 67, 60
1, 184977, Note_on_c, 0, 65, 71
1, 185032, Note_off_c, 0, 65, 61
1, 185060, Note_off_c, 0, 58, 48
1, 185103, Note_on_c, 0, 67, 77
1, 185245, Note_on_c, 0, 52, 58
1, 185279, Note_off_c, 0, 52, 66
1, 185360, Note_on_c, 0, 55, 62
1, 185401, Note_off_c, 0, 55, 63
1, 185490, Note_on_c, 0, 56, 69
1, 185493, Note_off_c, 0, 67, 53
1, 185607, Note_on_c, 0, 65, 62
1, 185639, Note_off_c, 0, 65, 67
1, 185726, Note_on_c, 0, 64, 64
1, 185763, Note_off_c, 0, 64, 63
1, 185856, Note_on_c, 0, 65, 72
1, 185913, Note_off_c, 0, 65, 60
1, 185972, Note_off_c, 0, 56, 49
1, 185992, Note_on_c, 0, 72, 74
1, 186050, Note_off_c, 0, 72, 63
1, 186109, Note_on_c, 0, 77, 78
1, 186168, Note_off_c, 0, 77, 59
1, 186247, Note_on_c, 0, 70, 87
1, 186377, Note_on_c, 0, 55, 63
1, 186416, Note_off_c, 0, 55, 65
1, 186498, Note_on_c, 0, 53, 59
1, 186528, Note_off_c, 0, 53, 67
1, 186611, Note_on_c, 0, 52, 69
1, 186653, Note_off_c, 0, 70, 59
1, 186664, Note_off_c, 0, 52, 66
1, 186748, Note_on_c, 0, 55, 66
1, 186752, Note_on_c, 0, 76, 74
1, 186802, Note_off_c, 0, 76, 65
1, 186808, Note_off_c, 0, 55, 60
1, 186872, Note_on_c, 0, 79, 80
1, 186874, Note_on_c, 0, 58, 76
1, 186921, Note_off_c, 0, 79, 63
1, 186951, Note_off_c, 0, 58, 56
1, 187006, Note_on_c, 0, 72, 90
1, 187126, Note_on_c, 0, 56, 66
1, 187173, Note_off_c, 0, 56, 61
1, 187247, Note_on_c, 0, 55, 72
1, 187286, Note_off_c, 0, 55, 63
1, 187332, Note_off_c, 0, 72, 59
1, 187371, Note_on_c, 0, 53, 76
1, 187424, Note_off_c, 0, 53, 64
1, 187495, Note_on_c, 0, 56, 78
1, 187498, Note_on_c, 0, 77, 81
1, 187542, Note_off_c, 0, 56, 64
1, 187553, Note_off_c, 0, 77, 58
1, 187617, Note_on_c, 0, 60, 83
1, 187617, Note_on_c, 0, 80, 89
1, 187672, Note_off_c, 0, 60, 62
1, 187676, Note_off_c, 0, 80, 64
1, 187746, Note_on_c, 0, 73, 89
1, 187799, Note_off_c, 0, 73, 60
1, 187872, Note_on_c, 0, 58, 76
1, 187931, Note_off_c, 0, 58, 64
1, 187987, Note_on_c, 0, 77, 87
1, 187992, Note_on_c, 0, 56, 74
1, 188045, Note_off_c, 0, 56, 63
1, 188048, Note_off_c, 0, 77, 60
1, 188117, Note_on_c, 0, 55, 74
1, 188124, Note_on_c, 0, 82, 89
1, 188184, Note_off_c, 0, 55, 57
1, 188188, Note_off_c, 0, 82, 61
1, 188236, Note_on_c, 0, 56, 67
1, 188274, Note_off_c, 0, 56, 63
1, 188352, Note_on_c, 0, 53, 72
1, 188352, Note_on_c, 0, 73, 73
1, 188395, Note_off_c, 0, 53, 66
1, 188408, Note_off_c, 0, 73, 60
1, 188430, Note_off_c, 0, 48, 56
1, 188477, Note_on_c, 0, 52, 79
1, 188483, Note_on_c, 0, 72, 77
1, 188520, Note_off_c, 0, 52, 64
1, 188551, Note_off_c, 0, 72, 59
1, 188596, Note_on_c, 0, 50, 79
1, 188644, Note_off_c, 0, 50, 63
1, 188724, Note_on_c, 0, 82, 84
1, 188732, Note_on_c, 0, 52, 83
1, 188781, Note_off_c, 0, 52, 65
1, 188795, Note_off_c, 0, 82, 62
1, 188857, Note_on_c, 0, 80, 90
1, 188865, Note_on_c, 0, 53, 83
1, 188910, Note_off_c, 0, 53, 65
1, 188934, Note_off_c, 0, 80, 63
1, 188984, Note_on_c, 0, 55, 63
1, 189035, Note_off_c, 0, 55, 61
1, 189082, Note_on_c, 0, 56, 82
1, 189094, Note_on_c, 0, 77, 86
1, 189109, Note_off_c, 0, 56, 67
1, 189155, Note_off_c, 0, 77, 59
1, 189218, Note_on_c, 0, 71, 79
1, 189225, Note_on_c, 0, 38, 84
1, 189276, Note_off_c, 0, 71, 60
1, 189353, Note_on_c, 0, 77, 76
1, 189413, Note_off_c, 0, 77, 61
1, 189481, Note_on_c, 0, 79, 87
1, 189537, Note_off_c, 0, 79, 62
1, 189579, Note_on_c, 0, 47, 84
1, 189593, Note_on_c, 0, 80, 91
1, 189665, Note_off_c, 0, 80, 64
1, 189712, Note_on_c, 0, 79, 86
1, 189770, Note_off_c, 0, 79, 63
1, 189815, Note_off_c, 0, 47, 61
1, 189832, Note_on_c, 0, 77, 87
1, 189835, Note_off_c, 0, 38, 61
1, 189881, Note_off_c, 0, 77, 64
1, 189958, Note_on_c, 0, 36, 79
1, 189958, Note_on_c, 0, 48, 87
1, 190048, Note_off_c, 0, 36, 60
1, 190075, Note_on_c, 0, 76, 77
1, 190078, Note_off_c, 0, 48, 61
1, 190122, Note_off_c, 0, 76, 64
1, 190194, Note_on_c, 0, 73, 86
1, 190194, Note_on_c, 0, 50, 78
1, 190237, Note_off_c, 0, 50, 65
1, 190256, Note_off_c, 0, 73, 58
1, 190324, Note_on_c, 0, 52, 87
1, 190450, Note_on_c, 0, 72, 77
1, 190494, Note_off_c, 0, 72, 64
1, 190547, Note_off_c, 0, 52, 59
1, 190569, Note_on_c, 0, 48, 77
1, 190569, Note_on_c, 0, 70, 89
1, 190629, Note_off_c, 0, 70, 58
1, 190709, Note_on_c, 0, 53, 81
1, 190827, Note_on_c, 0, 68, 76
1, 190871, Note_off_c, 0, 68, 64
1, 190903, Note_off_c, 0, 53, 63
1, 190939, Note_on_c, 0, 67, 85
1, 190945, Note_on_c, 0, 55, 68
1, 190977, Note_off_c, 0, 55, 66
1, 190986, Note_off_c, 0, 67, 62
1, 191066, Note_on_c, 0, 65, 81
1, 191067, Note_on_c, 0, 56, 73
1, 191116, Note_off_c, 0, 65, 64
1, 191142, Note_off_c, 0, 56, 63
1, 191189, Note_on_c, 0, 64, 78
1, 191192, Note_on_c, 0, 60, 73
1, 191241, Note_off_c, 0, 64, 64
1, 191254, Note_off_c, 0, 60, 59
1, 191298, Note_off_c, 0, 48, 39
1, 191310, Note_on_c, 0, 65, 84
1, 191315, Note_on_c, 0, 59, 71
1, 191377, Note_off_c, 0, 59, 61
1, 191389, Note_off_c, 0, 65, 58
1, 191440, Note_on_c, 0, 60, 88
1, 191441, Note_on_c, 0, 55, 81
1, 191441, Note_on_c, 0, 72, 90
1, 191453, Note_on_c, 0, 48, 70
1, 191484, Note_off_c, 0, 60, 57
1, 191495, Note_off_c, 0, 55, 58
1, 191520, Note_off_c, 0, 48, 64
1, 191533, Note_off_c, 0, 72, 62
1, 191573, Note_on_c, 0, 62, 71
1, 191630, Note_off_c, 0, 62, 59
1, 191681, Note_on_c, 0, 64, 74
1, 191732, Note_off_c, 0, 64, 59
1, 191812, Note_on_c, 0, 48, 82
1, 191812, Note_on_c, 0, 53, 87
1, 191813, Note_on_c, 0, 63, 91
1, 191814, Note_on_c, 0, 69, 85
1, 191819, Note_on_c, 0, 60, 84
1, 191852, Note_off_c, 0, 53, 68
1, 191863, Note_off_c, 0, 60, 56
1, 191883, Note_off_c, 0, 63, 64
1, 191884, Note_off_c, 0, 48, 65
1, 191896, Note_off_c, 0, 69, 61
1, 191954, Note_on_c, 0, 67, 65
1, 192003, Note_off_c, 0, 67, 59
1, 192054, Note_on_c, 0, 69, 70
1, 192091, Note_off_c, 0, 69, 63
1, 192189, Control_c, 0, 64, 43
1, 192196, Note_on_c, 0, 61, 79
1, 192200, Note_on_c, 0, 73, 97
1, 192201, Note_on_c, 0, 65, 76
1, 192204, Control_c, 0, 64, 67
1, 192206, Note_on_c, 0, 46, 89
1, 192215, Note_on_c, 0, 70, 72
1, 192219, Control_c, 0, 64, 73
1, 192222, Note_off_c, 0, 61, 68
1, 192225, Note_on_c, 0, 74, 79
1, 192232, Note_off_c, 0, 65, 64
1, 192234, Control_c, 0, 64, 77
1, 192243, Note_off_c, 0, 70, 64
1, 192256, Note_off_c, 0, 74, 53
1, 192263, Control_c, 0, 64, 76
1, 192275, Note_off_c, 0, 73, 60
1, 192278, Control_c, 0, 64, 71
1, 192292, Control_c, 0, 64, 58
1, 192295, Note_off_c, 0, 46, 59
1, 192307, Control_c, 0, 64, 0
1, 192331, Note_on_c, 0, 49, 67
1, 192400, Note_off_c, 0, 49, 60
1, 192434, Note_on_c, 0, 53, 64
1, 192524, Note_off_c, 0, 53, 62
1, 192570, Note_on_c, 0, 58, 62
1, 192583, Note_on_c, 0, 72, 72
1, 192597, Note_off_c, 0, 58, 67
1, 192630, Note_off_c, 0, 72, 64
1, 192710, Note_on_c, 0, 74, 65
1, 192713, Note_on_c, 0, 57, 63
1, 192748, Note_off_c, 0, 57, 59
1, 192748, Note_off_c, 0, 74, 55
1, 192832, Note_on_c, 0, 55, 70
1, 192833, Note_on_c, 0, 76, 67
1, 192872, Note_off_c, 0, 55, 60
1, 192874, Note_off_c, 0, 76, 56
1, 192948, Note_on_c, 0, 77, 73
1, 192951, Note_on_c, 0, 57, 69
1, 192981, Note_off_c, 0, 57, 65
1, 193010, Note_off_c, 0, 77, 61
1, 193062, Note_on_c, 0, 76, 71
1, 193091, Note_off_c, 0, 76, 65
1, 193190, Note_on_c, 0, 58, 67
1, 193191, Note_on_c, 0, 70, 73
1, 193192, Note_on_c, 0, 74, 61
1, 193222, Note_off_c, 0, 58, 64
1, 193234, Note_off_c, 0, 74, 60
1, 193235, Note_off_c, 0, 70, 61
1, 193316, Note_on_c, 0, 60, 69
1, 193316, Note_on_c, 0, 72, 72
1, 193323, Note_on_c, 0, 69, 62
1, 193353, Note_off_c, 0, 69, 65
1, 193368, Note_off_c, 0, 60, 62
1, 193371, Note_off_c, 0, 72, 61
1, 193440, Note_on_c, 0, 74, 52
1, 193471, Note_off_c, 0, 74, 57
1, 193555, Note_on_c, 0, 48, 60
1, 193556, Note_on_c, 0, 70, 69
1, 193563, Note_on_c, 0, 67, 55
1, 193589, Note_off_c, 0, 67, 63
1, 193597, Note_off_c, 0, 70, 54
1, 193600, Note_off_c, 0, 48, 62
1, 193687, Note_on_c, 0, 69, 79
1, 193689, Note_on_c, 0, 65, 66
1, 193690, Note_on_c, 0, 53, 76
1, 193715, Note_off_c, 0, 53, 68
1, 193717, Note_off_c, 0, 65, 68
1, 193740, Note_off_c, 0, 69, 61
1, 193806, Note_on_c, 0, 65, 66
1, 193856, Note_on_c, 0, 67, 69
1, 193868, Note_off_c, 0, 65, 60
1, 193904, Note_on_c, 0, 69, 75
1, 193936, Note_off_c, 0, 67, 62
1, 193956, Note_on_c, 0, 70, 72
1, 194011, Note_off_c, 0, 69, 60
1, 194013, Note_on_c, 0, 72, 95
1, 194031, Note_on_c, 0, 41, 56
1, 194042, Note_on_c, 0, 43, 49
1, 194045, Note_off_c, 0, 70, 62
1, 194059, Note_off_c, 0, 41, 59
1, 194073, Note_off_c, 0, 43, 51
1, 194155, Note_on_c, 0, 40, 78
1, 194156, Note_on_c, 0, 69, 77
1, 194206, Note_off_c, 0, 40, 61
1, 194239, Note_off_c, 0, 69, 64
1, 194284, Note_on_c, 0, 41, 84
1, 194289, Note_on_c, 0, 63, 78
1, 194323, Note_off_c, 0, 63, 59
1, 194333, Note_off_c, 0, 41, 61
1, 194409, Note_on_c, 0, 46, 93
1, 194414, Note_on_c, 0, 63, 89
1, 194442, Note_off_c, 0, 46, 63
1, 194465, Note_off_c, 0, 63, 64
1, 194483, Note_off_c, 0, 72, 49
1, 194556, Note_on_c, 0, 62, 66
1, 194606, Note_on_c, 0, 65, 68
1, 194626, Note_off_c, 0, 62, 58
1, 194636, Note_on_c, 0, 67, 64
1, 194710, Note_on_c, 0, 69, 66
1, 194732, Note_off_c, 0, 65, 53
1, 194767, Note_on_c, 0, 43, 80
1, 194771, Note_on_c, 0, 70, 90
1, 194785, Note_off_c, 0, 67, 55
1, 194800, Note_off_c, 0, 69, 63
1, 194803, Note_off_c, 0, 43, 64
1, 194910, Note_on_c, 0, 41, 86
1, 194912, Note_on_c, 0, 62, 70
1, 194955, Note_off_c, 0, 62, 58
1, 194963, Note_off_c, 0, 41, 65
1, 195039, Note_on_c, 0, 65, 77
1, 195040, Note_on_c, 0, 43, 82
1, 195092, Note_off_c, 0, 43, 58
1, 195104, Note_off_c, 0, 65, 62
1, 195166, Note_on_c, 0, 48, 86
1, 195166, Note_on_c, 0, 65, 77
1, 195202, Note_off_c, 0, 48, 68
1, 195238, Note_off_c, 0, 65, 62
1, 195303, Note_off_c, 0, 70, 56
1, 195306, Note_on_c, 0, 64, 64
1, 195363, Note_on_c, 0, 67, 79
1, 195367, Note_off_c, 0, 64, 64
1, 195424, Note_on_c, 0, 69, 73
1, 195463, Note_off_c, 0, 67, 61
1, 195475, Note_on_c, 0, 70, 72
1, 195509, Note_off_c, 0, 69, 65
1, 195512, Note_on_c, 0, 45, 78
1, 195530, Note_on_c, 0, 72, 86
1, 195549, Note_off_c, 0, 45, 67
1, 195559, Note_off_c, 0, 70, 64
1, 195657, Note_on_c, 0, 43, 77
1, 195670, Note_on_c, 0, 64, 64
1, 195705, Note_off_c, 0, 43, 60
1, 195720, Note_off_c, 0, 64, 55
1, 195782, Note_on_c, 0, 45, 88
1, 195783, Note_on_c, 0, 67, 81
1, 195828, Note_off_c, 0, 45, 63
1, 195838, Note_off_c, 0, 67, 61
1, 195910, Note_on_c, 0, 67, 88
1, 195912, Note_on_c, 0, 50, 83
1, 195961, Note_off_c, 0, 50, 62
1, 195977, Note_off_c, 0, 67, 60
1, 196024, Note_on_c, 0, 65, 70
1, 196030, Note_off_c, 0, 72, 38
1, 196090, Note_off_c, 0, 65, 61
1, 196092, Note_on_c, 0, 69, 78
1, 196149, Note_on_c, 0, 70, 76
1, 196197, Note_off_c, 0, 69, 62
1, 196220, Note_on_c, 0, 72, 66
1, 196238, Note_off_c, 0, 70, 64
1, 196260, Note_on_c, 0, 46, 81
1, 196265, Note_off_c, 0, 72, 67
1, 196269, Note_on_c, 0, 74, 77
1, 196314, Note_off_c, 0, 46, 63
1, 196337, Note_on_c, 0, 72, 69
1, 196388, Note_off_c, 0, 74, 56
1, 196394, Note_on_c, 0, 45, 76
1, 196427, Note_on_c, 0, 71, 52
1, 196436, Note_off_c, 0, 72, 63
1, 196444, Note_off_c, 0, 45, 63
1, 196450, Note_on_c, 0, 70, 30
1, 196468, Note_on_c, 0, 69, 75
1, 196470, Note_off_c, 0, 70, 49
1, 196473, Note_off_c, 0, 71, 59
1, 196504, Note_on_c, 0, 46, 79
1, 196522, Note_off_c, 0, 69, 66
1, 196527, Note_on_c, 0, 67, 78
1, 196570, Note_off_c, 0, 46, 62
1, 196588, Note_off_c, 0, 67, 60
1, 196600, Note_on_c, 0, 65, 54
1, 196627, Note_on_c, 0, 67, 44
1, 196628, Note_off_c, 0, 65, 54
1, 196630, Note_on_c, 0, 52, 80
1, 196667, Control_c, 0, 64, 57
1, 196668, Note_off_c, 0, 67, 64
1, 196681, Control_c, 0, 64, 64
1, 196684, Note_on_c, 0, 70, 77
1, 196695, Note_off_c, 0, 52, 63
1, 196696, Control_c, 0, 64, 68
1, 196706, Note_off_c, 0, 70, 70
1, 196711, Control_c, 0, 64, 71
1, 196726, Control_c, 0, 64, 74
1, 196741, Control_c, 0, 64, 75
1, 196752, Note_on_c, 0, 72, 87
1, 196770, Control_c, 0, 64, 74
1, 196785, Control_c, 0, 64, 73
1, 196800, Control_c, 0, 64, 69
1, 196810, Note_off_c, 0, 72, 63
1, 196813, Note_on_c, 0, 74, 73
1, 196815, Control_c, 0, 64, 64
1, 196829, Control_c, 0, 64, 27
1, 196844, Control_c, 0, 64, 0
1, 196853, Note_on_c, 0, 76, 70
1, 196884, Note_off_c, 0, 74, 65
1, 196888, Note_on_c, 0, 77, 71
1, 196931, Note_off_c, 0, 76, 67
1, 196955, Note_off_c, 0, 77, 63
1, 196955, Note_on_c, 0, 79, 84
1, 196958, Note_on_c, 0, 48, 82
1, 197011, Note_off_c, 0, 48, 63
1, 197023, Note_on_c, 0, 77, 68
1, 197059, Note_off_c, 0, 79, 58
1, 197061, Note_on_c, 0, 76, 75
1, 197079, Note_on_c, 0, 50, 76
1, 197117, Note_off_c, 0, 77, 61
1, 197130, Note_off_c, 0, 50, 65
1, 197140, Note_off_c, 0, 76, 69
1, 197145, Note_on_c, 0, 74, 67
1, 197183, Note_on_c, 0, 72, 76
1, 197186, Note_off_c, 0, 74, 65
1, 197202, Note_on_c, 0, 52, 76
1, 197256, Note_on_c, 0, 70, 68
1, 197256, Note_off_c, 0, 72, 64
1, 197260, Note_off_c, 0, 52, 64
1, 197305, Note_on_c, 0, 69, 76
1, 197309, Note_off_c, 0, 70, 59
1, 197309, Note_on_c, 0, 53, 71
1, 197345, Note_off_c, 0, 69, 63
1, 197351, Note_off_c, 0, 53, 66
1, 197446, Note_on_c, 0, 72, 67
1, 197449, Note_on_c, 0, 52, 54
1, 197476, Note_off_c, 0, 52, 60
1, 197503, Note_off_c, 0, 72, 63
1, 197560, Note_on_c, 0, 50, 61
1, 197564, Note_on_c, 0, 70, 76
1, 197600, Note_off_c, 0, 50, 63
1, 197658, Note_off_c, 0, 70, 43
1, 197697, Note_on_c, 0, 72, 75
1, 197699, Note_on_c, 0, 48, 56
1, 197731, Note_off_c, 0, 48, 66
1, 197816, Note_on_c, 0, 50, 61
1, 197857, Note_off_c, 0, 50, 65
1, 197960, Note_on_c, 0, 64, 64
1, 197978, Note_on_c, 0, 46, 36
1, 197979, Note_off_c, 0, 46, 127
1, 197994, Note_off_c, 0, 64, 62
1, 198087, Note_on_c, 0, 45, 62
1, 198091, Note_on_c, 0, 65, 75
1, 198126, Note_off_c, 0, 72, 60
1, 198130, Note_off_c, 0, 45, 67
1, 198153, Note_off_c, 0, 65, 59
1, 198209, Note_on_c, 0, 46, 65
1, 198251, Note_off_c, 0, 46, 63
1, 198329, Note_on_c, 0, 74, 70
1, 198330, Note_on_c, 0, 43, 65
1, 198367, Note_off_c, 0, 43, 61
1, 198384, Note_off_c, 0, 74, 61
1, 198463, Note_on_c, 0, 75, 75
1, 198467, Note_on_c, 0, 69, 65
1, 198471, Note_on_c, 0, 41, 63
1, 198514, Note_off_c, 0, 41, 62
1, 198523, Note_off_c, 0, 69, 57
1, 198601, Note_on_c, 0, 70, 73
1, 198609, Note_on_c, 0, 43, 61
1, 198658, Note_off_c, 0, 43, 58
1, 198659, Note_off_c, 0, 75, 50
1, 198723, Note_on_c, 0, 45, 66
1, 198725, Note_on_c, 0, 72, 73
1, 198797, Note_off_c, 0, 45, 56
1, 198805, Note_off_c, 0, 70, 37
1, 198865, Note_on_c, 0, 74, 89
1, 198865, Note_on_c, 0, 46, 75
1, 198897, Note_off_c, 0, 72, 65
1, 198928, Note_off_c, 0, 46, 62
1, 198984, Note_on_c, 0, 48, 62
1, 199022, Note_off_c, 0, 48, 63
1, 199118, Note_on_c, 0, 45, 75
1, 199128, Note_on_c, 0, 65, 76
1, 199158, Note_off_c, 0, 45, 67
1, 199206, Note_off_c, 0, 65, 62
1, 199253, Note_off_c, 0, 74, 66
1, 199254, Note_on_c, 0, 43, 74
1, 199270, Note_on_c, 0, 70, 52
1, 199271, Note_on_c, 0, 69, 87
1, 199300, Note_off_c, 0, 70, 47
1, 199304, Note_off_c, 0, 43, 58
1, 199353, Note_off_c, 0, 69, 63
1, 199390, Note_on_c, 0, 45, 72
1, 199494, Note_off_c, 0, 45, 62
1, 199522, Note_on_c, 0, 79, 84
1, 199534, Note_on_c, 0, 46, 71
1, 199574, Note_off_c, 0, 46, 64
1, 199631, Note_off_c, 0, 79, 53
1, 199658, Note_on_c, 0, 76, 84
1, 199664, Note_on_c, 0, 48, 77
1, 199709, Note_off_c, 0, 48, 63
1, 199791, Note_on_c, 0, 50, 51
1, 199865, Note_off_c, 0, 50, 58
1, 199911, Note_on_c, 0, 67, 82
1, 199919, Note_on_c, 0, 46, 76
1, 199958, Note_off_c, 0, 46, 63
1, 199967, Note_off_c, 0, 67, 59
1, 200040, Note_on_c, 0, 45, 75
1, 200046, Note_on_c, 0, 72, 93
1, 200055, Note_off_c, 0, 76, 64
1, 200089, Note_off_c, 0, 45, 64
1, 200172, Note_on_c, 0, 46, 73
1, 200222, Note_off_c, 0, 46, 57
1, 200297, Note_on_c, 0, 81, 90
1, 200302, Note_on_c, 0, 48, 79
1, 200319, Note_off_c, 0, 72, 64
1, 200349, Note_off_c, 0, 48, 64
1, 200356, Note_off_c, 0, 81, 60
1, 200436, Note_on_c, 0, 50, 79
1, 200438, Note_on_c, 0, 77, 77
1, 200488, Note_off_c, 0, 50, 62
1, 200491, Note_off_c, 0, 77, 62
1, 200572, Note_on_c, 0, 69, 83
1, 200576, Note_on_c, 0, 48, 80
1, 200618, Note_off_c, 0, 48, 66
1, 200626, Note_off_c, 0, 69, 61
1, 200722, Note_on_c, 0, 74, 84
1, 200729, Note_on_c, 0, 46, 81
1, 200729, Note_on_c, 0, 70, 82
1, 200767, Note_off_c, 0, 46, 64
1, 200775, Note_off_c, 0, 74, 66
1, 200776, Note_off_c, 0, 70, 59
1, 200893, Note_on_c, 0, 48, 86
1, 200893, Note_on_c, 0, 69, 90
1, 200896, Note_on_c, 0, 65, 89
1, 201065, Note_on_c, 0, 70, 91
1, 201070, Note_off_c, 0, 65, 56
1, 201075, Note_off_c, 0, 69, 63
1, 201083, Note_off_c, 0, 48, 64
1, 201122, Note_off_c, 0, 70, 61
1, 201274, Note_on_c, 0, 67, 93
1, 201274, Note_on_c, 0, 64, 84
1, 201275, Note_on_c, 0, 36, 74
1, 201319, Note_off_c, 0, 64, 62
1, 201319, Note_off_c, 0, 36, 62
1, 201321, Note_off_c, 0, 67, 64
1, 201550, Note_on_c, 0, 65, 73
1, 201554, Note_on_c, 0, 41, 73
1, 201604, Note_on_c, 0, 64, 76
1, 201605, Note_off_c, 0, 65, 65
1, 201649, Note_on_c, 0, 65, 76
1, 201674, Note_off_c, 0, 64, 63
1, 202159, Control_c, 0, 64, 41
1, 202174, Control_c, 0, 64, 53
1, 202189, Control_c, 0, 64, 60
1, 202204, Control_c, 0, 64, 63
1, 202220, Control_c, 0, 64, 65
1, 202235, Control_c, 0, 64, 67
1, 202249, Control_c, 0, 64, 70
1, 202264, Control_c, 0, 64, 73
1, 202279, Control_c, 0, 64, 76
1, 202293, Control_c, 0, 64, 78
1, 202308, Control_c, 0, 64, 79
1, 202338, Control_c, 0, 64, 80
1, 202364, Note_off_c, 0, 65, 59
1, 202384, Note_off_c, 0, 41, 62
1, 202627, Control_c, 0, 64, 79
1, 202642, Control_c, 0, 64, 78
1, 202657, Control_c, 0, 64, 75
1, 202672, Control_c, 0, 64, 67
1, 202687, Control_c, 0, 64, 48
1, 202701, Control_c, 0, 64, 0
1, 202701, End_track
0, 0, End_of_file
