0, 0, Header, 0, 1, 384
1, 0, Start_track
1, 0, Title_t, "Etude No. 6, by Liszt--Andrew Wang "
1, 0, Text_t, "2008 e-Piano Junior Competition virtual audition round"
1, 0, Text_t, "recorded January and February 2008"
1, 0, Text_t, "http://www.piano-e-competition.com/"
1, 0, Text_t, "File processed for distribution by software from Zenph Studios, Inc., http://www.zenph.com"
1, 0, Instrument_name_t, "Yamaha Disklavier Pro Mark IV concert grand piano, model DCFIIISM4PRO"
1, 0, Sequencer_specific, 39, 67, 113, 0, 1, 0, 1, 0, 69, 116, 117, 100, 101, 32, 78, 111, 46, 32, 54, 32, 32, 32, 32, 32, 65, 110, 100, 114, 101, 119, 32, 87, 97, 110, 103, 32, 32, 32, 32, 32
1, 0, Sequencer_specific, 6, 67, 113, 0, 0, 0, 69
1, 0, System_exclusive, 21, 67, 113, 126, 21, 0, 2, 2, 0, 0, 8, 1, 4, 7, 9, 14, 5, 4, 10, 15, 6, 247
1, 0, Sequencer_specific, 5, 67, 123, 12, 2, 1
1, 0, Tempo, 512820
1, 0, Time_signature, 4, 2, 24, 8
1, 0, System_exclusive, 5, 126, 127, 9, 1, 247
1, 1, System_exclusive, 8, 67, 16, 76, 0, 0, 126, 0, 247
1, 2, System_exclusive, 8, 67, 16, 76, 8, 9, 7, 1, 247
1, 3, Control_c, 0, 0, 0
1, 3, Control_c, 1, 0, 0
1, 3, Control_c, 2, 0, 0
1, 3, Control_c, 3, 0, 0
1, 3, Control_c, 4, 0, 0
1, 3, Control_c, 5, 0, 0
1, 3, Control_c, 6, 0, 0
1, 3, Control_c, 7, 0, 0
1, 3, Control_c, 8, 0, 0
1, 3, Control_c, 9, 0, 127
1, 3, Control_c, 10, 0, 0
1, 3, Control_c, 11, 0, 0
1, 3, Control_c, 12, 0, 0
1, 3, Control_c, 13, 0, 0
1, 3, Control_c, 14, 0, 0
1, 3, Control_c, 15, 0, 0
1, 4, Control_c, 0, 32, 0
1, 4, Control_c, 1, 32, 0
1, 4, Control_c, 2, 32, 0
1, 4, Control_c, 3, 32, 0
1, 4, Control_c, 4, 32, 0
1, 4, Control_c, 5, 32, 0
1, 4, Control_c, 6, 32, 0
1, 4, Control_c, 7, 32, 0
1, 4, Control_c, 8, 32, 0
1, 4, Control_c, 9, 32, 0
1, 4, Control_c, 10, 32, 0
1, 4, Control_c, 11, 32, 0
1, 4, Control_c, 12, 32, 0
1, 4, Control_c, 13, 32, 0
1, 4, Control_c, 14, 32, 0
1, 4, Control_c, 15, 32, 0
1, 5, Program_c, 0, 0
1, 5, Program_c, 1, 0
1, 5, Program_c, 2, 0
1, 5, Program_c, 3, 0
1, 5, Program_c, 4, 0
1, 5, Program_c, 5, 0
1, 5, Program_c, 6, 0
1, 5, Program_c, 7, 0
1, 5, Program_c, 8, 0
1, 5, Program_c, 9, 0
1, 5, Program_c, 10, 0
1, 5, Program_c, 11, 0
1, 5, Program_c, 12, 0
1, 5, Program_c, 13, 0
1, 5, Program_c, 14, 0
1, 5, Program_c, 15, 0
1, 6, Control_c, 0, 7, 100
1, 6, Control_c, 1, 7, 100
1, 6, Control_c, 2, 7, 100
1, 6, Control_c, 3, 7, 100
1, 6, Control_c, 4, 7, 100
1, 6, Control_c, 5, 7, 100
1, 6, Control_c, 6, 7, 100
1, 6, Control_c, 7, 7, 100
1, 6, Control_c, 8, 7, 100
1, 6, Control_c, 9, 7, 100
1, 6, Control_c, 10, 7, 100
1, 6, Control_c, 11, 7, 100
1, 6, Control_c, 12, 7, 100
1, 6, Control_c, 13, 7, 100
1, 6, Control_c, 14, 7, 100
1, 6, Control_c, 15, 7, 100
1, 1130, Control_c, 0, 64, 38
1, 1131, Note_on_c, 0, 45, 51
1, 1145, Control_c, 0, 64, 53
1, 1159, Control_c, 0, 64, 58
1, 1170, Note_on_c, 0, 64, 48
1, 1170, Note_off_c, 0, 45, 58
1, 1174, Control_c, 0, 64, 61
1, 1197, Control_c, 0, 64, 63
1, 1203, Note_on_c, 0, 52, 67
1, 1209, Note_off_c, 0, 64, 62
1, 1211, Control_c, 0, 64, 65
1, 1222, Note_on_c, 0, 69, 68
1, 1226, Control_c, 0, 64, 66
1, 1241, Control_c, 0, 64, 68
1, 1249, Note_on_c, 0, 72, 66
1, 1256, Control_c, 0, 64, 71
1, 1256, Note_on_c, 0, 57, 70
1, 1271, Control_c, 0, 64, 74
1, 1274, Note_off_c, 0, 69, 61
1, 1283, Note_on_c, 0, 60, 71
1, 1286, Control_c, 0, 64, 77
1, 1289, Note_off_c, 0, 52, 59
1, 1293, Note_on_c, 0, 81, 84
1, 1299, Note_off_c, 0, 57, 61
1, 1300, Control_c, 0, 64, 77
1, 1311, Note_off_c, 0, 72, 62
1, 1315, Control_c, 0, 64, 72
1, 1319, Note_off_c, 0, 60, 61
1, 1321, Note_off_c, 0, 81, 63
1, 1330, Control_c, 0, 64, 48
1, 1345, Control_c, 0, 64, 0
1, 1561, Note_on_c, 0, 69, 62
1, 1587, Note_off_c, 0, 69, 67
1, 1632, Note_on_c, 0, 69, 67
1, 1706, Note_on_c, 0, 72, 70
1, 1714, Note_off_c, 0, 69, 58
1, 1785, Note_on_c, 0, 71, 71
1, 1821, Note_off_c, 0, 72, 60
1, 1848, Note_on_c, 0, 69, 67
1, 1849, Control_c, 0, 64, 26
1, 1864, Control_c, 0, 64, 49
1, 1871, Note_on_c, 0, 52, 67
1, 1872, Note_off_c, 0, 69, 69
1, 1878, Note_off_c, 0, 71, 44
1, 1879, Control_c, 0, 64, 58
1, 1894, Control_c, 0, 64, 62
1, 1905, Note_on_c, 0, 71, 56
1, 1908, Control_c, 0, 64, 64
1, 1918, Note_off_c, 0, 52, 55
1, 1923, Control_c, 0, 64, 66
1, 1945, Control_c, 0, 64, 69
1, 1947, Note_on_c, 0, 59, 54
1, 1960, Control_c, 0, 64, 71
1, 1974, Note_on_c, 0, 76, 85
1, 1975, Control_c, 0, 64, 74
1, 1978, Note_off_c, 0, 71, 62
1, 1990, Control_c, 0, 64, 77
1, 1992, Note_on_c, 0, 64, 67
1, 1999, Note_on_c, 0, 80, 74
1, 2005, Control_c, 0, 64, 82
1, 2014, Note_on_c, 0, 68, 78
1, 2019, Control_c, 0, 64, 86
1, 2027, Note_off_c, 0, 76, 62
1, 2029, Note_on_c, 0, 88, 87
1, 2034, Control_c, 0, 64, 87
1, 2035, Note_off_c, 0, 59, 60
1, 2042, Note_off_c, 0, 68, 59
1, 2047, Note_off_c, 0, 88, 70
1, 2049, Control_c, 0, 64, 75
1, 2050, Note_off_c, 0, 80, 63
1, 2052, Note_off_c, 0, 64, 61
1, 2054, Note_on_c, 0, 86, 38
1, 2054, Poly_aftertouch_c, 0, 63, 0
1, 2064, Control_c, 0, 64, 54
1, 2079, Control_c, 0, 64, 0
1, 2085, Note_off_c, 0, 86, 33
1, 2272, Note_on_c, 0, 64, 56
1, 2294, Note_off_c, 0, 64, 60
1, 2328, Note_on_c, 0, 64, 61
1, 2420, Note_on_c, 0, 68, 62
1, 2435, Note_off_c, 0, 64, 52
1, 2476, Note_on_c, 0, 66, 68
1, 2508, Note_off_c, 0, 68, 56
1, 2538, Note_off_c, 0, 66, 61
1, 2550, Note_on_c, 0, 64, 70
1, 2575, Note_on_c, 0, 45, 57
1, 2581, Note_off_c, 0, 64, 60
1, 2583, Control_c, 0, 64, 45
1, 2598, Control_c, 0, 64, 57
1, 2602, Note_off_c, 0, 45, 55
1, 2613, Control_c, 0, 64, 62
1, 2628, Note_on_c, 0, 52, 62
1, 2628, Control_c, 0, 64, 65
1, 2636, Note_on_c, 0, 64, 51
1, 2642, Control_c, 0, 64, 69
1, 2657, Control_c, 0, 64, 73
1, 2660, Note_off_c, 0, 64, 62
1, 2663, Note_on_c, 0, 69, 71
1, 2665, Note_on_c, 0, 57, 66
1, 2672, Control_c, 0, 64, 78
1, 2694, Control_c, 0, 64, 81
1, 2705, Note_on_c, 0, 60, 67
1, 2705, Note_on_c, 0, 72, 66
1, 2709, Control_c, 0, 64, 84
1, 2712, Note_off_c, 0, 69, 65
1, 2717, Note_on_c, 0, 73, 44
1, 2717, Note_off_c, 0, 57, 56
1, 2720, Note_off_c, 0, 52, 57
1, 2724, Control_c, 0, 64, 86
1, 2733, Note_on_c, 0, 81, 76
1, 2740, Note_off_c, 0, 72, 59
1, 2741, Note_off_c, 0, 60, 59
1, 2743, Note_off_c, 0, 73, 55
1, 2753, Control_c, 0, 64, 75
1, 2755, Note_off_c, 0, 81, 67
1, 2768, Control_c, 0, 64, 57
1, 2783, Control_c, 0, 64, 0
1, 2981, Note_on_c, 0, 69, 71
1, 3006, Note_off_c, 0, 69, 68
1, 3053, Note_on_c, 0, 69, 78
1, 3109, Note_off_c, 0, 69, 63
1, 3121, Note_on_c, 0, 72, 79
1, 3194, Note_on_c, 0, 71, 75
1, 3227, Note_off_c, 0, 72, 61
1, 3259, Note_on_c, 0, 69, 68
1, 3280, Note_off_c, 0, 71, 51
1, 3281, Note_off_c, 0, 69, 69
1, 3287, Control_c, 0, 64, 45
1, 3298, Note_on_c, 0, 52, 66
1, 3302, Control_c, 0, 64, 57
1, 3317, Control_c, 0, 64, 61
1, 3322, Note_on_c, 0, 71, 64
1, 3332, Control_c, 0, 64, 64
1, 3338, Note_off_c, 0, 52, 54
1, 3347, Control_c, 0, 64, 66
1, 3355, Note_on_c, 0, 59, 57
1, 3361, Control_c, 0, 64, 68
1, 3376, Control_c, 0, 64, 70
1, 3380, Note_on_c, 0, 76, 86
1, 3384, Note_off_c, 0, 71, 62
1, 3391, Control_c, 0, 64, 73
1, 3403, Note_on_c, 0, 64, 68
1, 3406, Control_c, 0, 64, 75
1, 3408, Note_on_c, 0, 80, 74
1, 3420, Control_c, 0, 64, 79
1, 3443, Control_c, 0, 64, 82
1, 3447, Note_on_c, 0, 68, 74
1, 3452, Note_on_c, 0, 88, 93
1, 3452, Note_off_c, 0, 76, 62
1, 3458, Control_c, 0, 64, 85
1, 3468, Note_off_c, 0, 68, 67
1, 3473, Control_c, 0, 64, 87
1, 3479, Note_off_c, 0, 59, 59
1, 3481, Note_off_c, 0, 80, 64
1, 3483, Note_off_c, 0, 64, 59
1, 3487, Control_c, 0, 64, 87
1, 3489, Note_off_c, 0, 88, 63
1, 3784, Control_c, 0, 64, 87
1, 3799, Control_c, 0, 64, 81
1, 3808, Note_on_c, 0, 64, 70
1, 3814, Control_c, 0, 64, 67
1, 3829, Control_c, 0, 64, 51
1, 3859, Control_c, 0, 64, 0
1, 3874, Note_off_c, 0, 64, 53
1, 4026, Note_on_c, 0, 45, 44
1, 4058, Note_off_c, 0, 45, 51
1, 4066, Control_c, 0, 64, 46
1, 4081, Note_on_c, 0, 64, 27
1, 4081, Control_c, 0, 64, 61
1, 4086, Note_on_c, 0, 52, 60
1, 4096, Control_c, 0, 64, 64
1, 4102, Note_on_c, 0, 69, 64
1, 4110, Control_c, 0, 64, 67
1, 4118, Note_off_c, 0, 64, 44
1, 4125, Control_c, 0, 64, 69
1, 4128, Note_on_c, 0, 72, 63
1, 4130, Note_on_c, 0, 57, 65
1, 4140, Note_off_c, 0, 69, 56
1, 4140, Control_c, 0, 64, 71
1, 4154, Control_c, 0, 64, 71
1, 4156, Note_on_c, 0, 60, 63
1, 4163, Note_off_c, 0, 52, 59
1, 4166, Note_on_c, 0, 81, 78
1, 4169, Control_c, 0, 64, 67
1, 4172, Note_off_c, 0, 57, 62
1, 4191, Note_off_c, 0, 72, 61
1, 4192, Control_c, 0, 64, 56
1, 4193, Note_off_c, 0, 60, 62
1, 4204, Note_off_c, 0, 81, 61
1, 4207, Control_c, 0, 64, 34
1, 4222, Control_c, 0, 64, 0
1, 4422, Note_on_c, 0, 69, 67
1, 4447, Note_off_c, 0, 69, 68
1, 4494, Note_on_c, 0, 69, 68
1, 4549, Note_off_c, 0, 69, 62
1, 4569, Note_on_c, 0, 72, 66
1, 4643, Note_on_c, 0, 71, 69
1, 4652, Note_off_c, 0, 72, 61
1, 4711, Note_off_c, 0, 71, 61
1, 4711, Note_on_c, 0, 69, 59
1, 4711, Control_c, 0, 64, 41
1, 4726, Control_c, 0, 64, 57
1, 4734, Note_off_c, 0, 69, 64
1, 4739, Note_on_c, 0, 52, 63
1, 4741, Control_c, 0, 64, 63
1, 4756, Control_c, 0, 64, 66
1, 4771, Note_on_c, 0, 71, 61
1, 4771, Note_off_c, 0, 52, 62
1, 4771, Control_c, 0, 64, 68
1, 4785, Control_c, 0, 64, 71
1, 4798, Note_on_c, 0, 59, 54
1, 4800, Control_c, 0, 64, 75
1, 4815, Control_c, 0, 64, 78
1, 4819, Note_off_c, 0, 71, 63
1, 4827, Note_on_c, 0, 76, 74
1, 4830, Control_c, 0, 64, 81
1, 4845, Note_on_c, 0, 64, 66
1, 4845, Control_c, 0, 64, 84
1, 4850, Note_on_c, 0, 80, 70
1, 4859, Control_c, 0, 64, 87
1, 4873, Note_on_c, 0, 68, 68
1, 4874, Note_off_c, 0, 76, 62
1, 4874, Control_c, 0, 64, 87
1, 4876, Note_on_c, 0, 88, 83
1, 4889, Control_c, 0, 64, 84
1, 4891, Note_off_c, 0, 68, 65
1, 4896, Note_off_c, 0, 59, 60
1, 4896, Note_off_c, 0, 88, 70
1, 4902, Note_off_c, 0, 64, 55
1, 4904, Control_c, 0, 64, 66
1, 4908, Note_off_c, 0, 80, 62
1, 4919, Control_c, 0, 64, 45
1, 4941, Control_c, 0, 64, 0
1, 5131, Note_on_c, 0, 64, 49
1, 5155, Note_off_c, 0, 64, 57
1, 5186, Note_on_c, 0, 64, 57
1, 5256, Note_off_c, 0, 64, 49
1, 5274, Note_on_c, 0, 68, 63
1, 5340, Note_on_c, 0, 66, 63
1, 5369, Note_off_c, 0, 68, 54
1, 5404, Note_off_c, 0, 66, 61
1, 5408, Note_on_c, 0, 64, 67
1, 5430, Note_on_c, 0, 45, 44
1, 5461, Control_c, 0, 64, 44
1, 5465, Note_off_c, 0, 45, 49
1, 5470, Note_off_c, 0, 64, 0
1, 5475, Control_c, 0, 64, 58
1, 5483, Note_on_c, 0, 52, 62
1, 5484, Note_on_c, 0, 64, 34
1, 5486, Note_on_c, 0, 47, 5
1, 5490, Control_c, 0, 64, 63
1, 5505, Control_c, 0, 64, 66
1, 5510, Note_off_c, 0, 64, 59
1, 5519, Note_on_c, 0, 69, 71
1, 5520, Control_c, 0, 64, 70
1, 5525, Note_on_c, 0, 57, 65
1, 5535, Control_c, 0, 64, 75
1, 5540, Note_on_c, 0, 72, 72
1, 5545, Note_off_c, 0, 47, 34
1, 5547, Note_on_c, 0, 60, 63
1, 5549, Control_c, 0, 64, 81
1, 5555, Note_off_c, 0, 69, 56
1, 5563, Note_off_c, 0, 52, 57
1, 5564, Control_c, 0, 64, 85
1, 5565, Note_off_c, 0, 57, 59
1, 5576, Note_on_c, 0, 81, 76
1, 5579, Control_c, 0, 64, 85
1, 5591, Note_off_c, 0, 60, 59
1, 5594, Control_c, 0, 64, 84
1, 5599, Note_off_c, 0, 72, 56
1, 5600, Note_off_c, 0, 81, 66
1, 5608, Control_c, 0, 64, 73
1, 5623, Control_c, 0, 64, 60
1, 5638, Control_c, 0, 64, 46
1, 5653, Control_c, 0, 64, 29
1, 5668, Control_c, 0, 64, 0
1, 5807, Note_on_c, 0, 69, 66
1, 5832, Note_off_c, 0, 69, 64
1, 5878, Note_on_c, 0, 69, 76
1, 5925, Note_off_c, 0, 69, 62
1, 5951, Note_on_c, 0, 72, 70
1, 6019, Note_on_c, 0, 71, 69
1, 6035, Note_off_c, 0, 72, 59
1, 6083, Note_on_c, 0, 69, 63
1, 6100, Note_on_c, 0, 52, 62
1, 6104, Note_off_c, 0, 71, 56
1, 6109, Note_off_c, 0, 69, 68
1, 6133, Control_c, 0, 64, 25
1, 6141, Note_off_c, 0, 52, 54
1, 6150, Control_c, 0, 64, 49
1, 6159, Note_on_c, 0, 71, 60
1, 6165, Control_c, 0, 64, 59
1, 6166, Note_on_c, 0, 59, 56
1, 6179, Control_c, 0, 64, 63
1, 6194, Control_c, 0, 64, 66
1, 6209, Control_c, 0, 64, 68
1, 6210, Note_on_c, 0, 64, 67
1, 6210, Note_off_c, 0, 71, 63
1, 6214, Note_on_c, 0, 76, 75
1, 6223, Control_c, 0, 64, 72
1, 6237, Note_on_c, 0, 80, 67
1, 6238, Control_c, 0, 64, 75
1, 6243, Note_on_c, 0, 68, 70
1, 6253, Control_c, 0, 64, 79
1, 6268, Control_c, 0, 64, 82
1, 6270, Note_off_c, 0, 76, 59
1, 6275, Note_off_c, 0, 68, 56
1, 6278, Note_on_c, 0, 88, 85
1, 6283, Control_c, 0, 64, 84
1, 6288, Note_off_c, 0, 64, 58
1, 6297, Control_c, 0, 64, 85
1, 6312, Control_c, 0, 64, 86
1, 6313, Note_off_c, 0, 80, 60
1, 6313, Note_off_c, 0, 88, 60
1, 6339, Note_off_c, 0, 59, 33
1, 6512, Control_c, 0, 64, 85
1, 6571, Control_c, 0, 64, 85
1, 6586, Control_c, 0, 64, 84
1, 6601, Control_c, 0, 64, 82
1, 6616, Control_c, 0, 64, 76
1, 6622, Note_on_c, 0, 64, 72
1, 6631, Control_c, 0, 64, 62
1, 6646, Control_c, 0, 64, 45
1, 6661, Control_c, 0, 64, 0
1, 6667, Note_off_c, 0, 64, 60
1, 6844, Note_on_c, 0, 45, 52
1, 6884, Note_on_c, 0, 76, 66
1, 6896, Note_off_c, 0, 45, 51
1, 6903, Note_on_c, 0, 52, 63
1, 6920, Note_on_c, 0, 81, 76
1, 6927, Control_c, 0, 64, 47
1, 6942, Control_c, 0, 64, 62
1, 6945, Note_on_c, 0, 57, 73
1, 6947, Note_off_c, 0, 76, 61
1, 6951, Note_on_c, 0, 85, 77
1, 6958, Control_c, 0, 64, 66
1, 6972, Control_c, 0, 64, 69
1, 6979, Note_on_c, 0, 93, 98
1, 6979, Note_off_c, 0, 81, 64
1, 6987, Note_on_c, 0, 61, 86
1, 6987, Control_c, 0, 64, 73
1, 7000, Note_off_c, 0, 85, 64
1, 7002, Control_c, 0, 64, 75
1, 7005, Note_off_c, 0, 52, 60
1, 7005, Note_off_c, 0, 57, 62
1, 7006, Note_on_c, 0, 87, 30
1, 7007, Note_off_c, 0, 87, 127
1, 7015, Note_off_c, 0, 93, 63
1, 7017, Control_c, 0, 64, 72
1, 7026, Note_off_c, 0, 61, 61
1, 7032, Control_c, 0, 64, 61
1, 7046, Control_c, 0, 64, 42
1, 7061, Control_c, 0, 64, 0
1, 7239, Note_on_c, 0, 81, 77
1, 7260, Note_off_c, 0, 81, 66
1, 7308, Note_on_c, 0, 81, 88
1, 7379, Note_on_c, 0, 82, 85
1, 7380, Note_off_c, 0, 81, 63
1, 7457, Note_on_c, 0, 81, 83
1, 7486, Note_off_c, 0, 82, 60
1, 7498, Control_c, 0, 64, 46
1, 7513, Control_c, 0, 64, 61
1, 7519, Note_on_c, 0, 79, 69
1, 7528, Control_c, 0, 64, 65
1, 7536, Note_on_c, 0, 50, 54
1, 7538, Note_off_c, 0, 81, 60
1, 7543, Control_c, 0, 64, 68
1, 7558, Control_c, 0, 64, 72
1, 7561, Note_off_c, 0, 50, 58
1, 7568, Note_off_c, 0, 79, 59
1, 7573, Control_c, 0, 64, 76
1, 7576, Note_on_c, 0, 57, 66
1, 7587, Control_c, 0, 64, 79
1, 7597, Note_on_c, 0, 69, 58
1, 7602, Control_c, 0, 64, 81
1, 7603, Note_on_c, 0, 71, 48
1, 7617, Control_c, 0, 64, 83
1, 7623, Note_off_c, 0, 69, 67
1, 7626, Note_on_c, 0, 62, 72
1, 7627, Note_off_c, 0, 71, 57
1, 7632, Control_c, 0, 64, 85
1, 7640, Note_on_c, 0, 77, 75
1, 7647, Control_c, 0, 64, 86
1, 7647, Note_on_c, 0, 65, 74
1, 7648, Note_on_c, 0, 81, 79
1, 7661, Control_c, 0, 64, 86
1, 7686, Note_off_c, 0, 77, 59
1, 7691, Control_c, 0, 64, 79
1, 7693, Note_on_c, 0, 89, 86
1, 7703, Note_off_c, 0, 81, 62
1, 7705, Control_c, 0, 64, 62
1, 7709, Note_off_c, 0, 62, 39
1, 7716, Note_off_c, 0, 65, 57
1, 7718, Note_off_c, 0, 57, 36
1, 7719, Note_off_c, 0, 89, 61
1, 7720, Control_c, 0, 64, 28
1, 7723, Poly_aftertouch_c, 0, 78, 0
1, 7735, Control_c, 0, 64, 0
1, 7898, Note_on_c, 0, 74, 79
1, 7937, Note_off_c, 0, 74, 60
1, 7987, Note_on_c, 0, 74, 68
1, 8041, Note_off_c, 0, 74, 60
1, 8064, Note_on_c, 0, 77, 66
1, 8131, Note_on_c, 0, 76, 68
1, 8139, Note_off_c, 0, 77, 59
1, 8201, Note_on_c, 0, 74, 63
1, 8204, Note_off_c, 0, 76, 64
1, 8217, Control_c, 0, 64, 39
1, 8229, Note_on_c, 0, 43, 56
1, 8231, Note_off_c, 0, 74, 0
1, 8232, Control_c, 0, 64, 55
1, 8247, Control_c, 0, 64, 61
1, 8250, Note_on_c, 0, 74, 54
1, 8261, Note_off_c, 0, 43, 57
1, 8261, Control_c, 0, 64, 65
1, 8276, Control_c, 0, 64, 68
1, 8282, Note_on_c, 0, 50, 60
1, 8291, Control_c, 0, 64, 70
1, 8306, Control_c, 0, 64, 72
1, 8306, Note_on_c, 0, 79, 74
1, 8312, Note_off_c, 0, 74, 61
1, 8320, Control_c, 0, 64, 74
1, 8331, Note_on_c, 0, 55, 62
1, 8335, Control_c, 0, 64, 74
1, 8336, Note_on_c, 0, 83, 80
1, 8350, Control_c, 0, 64, 74
1, 8354, Note_on_c, 0, 59, 69
1, 8356, Note_off_c, 0, 79, 61
1, 8364, Note_off_c, 0, 50, 60
1, 8365, Note_on_c, 0, 91, 80
1, 8365, Control_c, 0, 64, 67
1, 8366, Note_off_c, 0, 55, 60
1, 8373, Note_off_c, 0, 83, 64
1, 8380, Control_c, 0, 64, 53
1, 8385, Note_off_c, 0, 91, 71
1, 8386, Note_off_c, 0, 59, 61
1, 8394, Control_c, 0, 64, 0
1, 8613, Note_on_c, 0, 79, 54
1, 8633, Note_off_c, 0, 79, 62
1, 8700, Note_on_c, 0, 79, 78
1, 8729, Note_off_c, 0, 79, 58
1, 8768, Note_on_c, 0, 81, 70
1, 8838, Note_on_c, 0, 79, 67
1, 8847, Control_c, 0, 64, 44
1, 8853, Note_off_c, 0, 81, 59
1, 8862, Control_c, 0, 64, 58
1, 8877, Control_c, 0, 64, 64
1, 8892, Control_c, 0, 64, 66
1, 8906, Control_c, 0, 64, 68
1, 8910, Note_on_c, 0, 48, 53
1, 8910, Note_off_c, 0, 79, 61
1, 8915, Note_on_c, 0, 77, 55
1, 8921, Control_c, 0, 64, 71
1, 8935, Note_off_c, 0, 77, 60
1, 8936, Control_c, 0, 64, 74
1, 8946, Note_off_c, 0, 48, 64
1, 8950, Control_c, 0, 64, 77
1, 8956, Note_on_c, 0, 55, 53
1, 8965, Control_c, 0, 64, 79
1, 8980, Control_c, 0, 64, 83
1, 8983, Note_on_c, 0, 67, 64
1, 8995, Control_c, 0, 64, 85
1, 9010, Control_c, 0, 64, 87
1, 9012, Note_off_c, 0, 67, 63
1, 9015, Note_on_c, 0, 60, 67
1, 9025, Control_c, 0, 64, 88
1, 9025, Note_on_c, 0, 76, 78
1, 9039, Control_c, 0, 64, 89
1, 9042, Note_on_c, 0, 79, 71
1, 9048, Note_on_c, 0, 64, 63
1, 9052, Note_off_c, 0, 55, 56
1, 9069, Control_c, 0, 64, 89
1, 9080, Note_off_c, 0, 76, 62
1, 9084, Note_off_c, 0, 60, 47
1, 9084, Control_c, 0, 64, 77
1, 9088, Note_off_c, 0, 64, 55
1, 9093, Note_on_c, 0, 88, 66
1, 9099, Note_off_c, 0, 79, 61
1, 9099, Control_c, 0, 64, 61
1, 9108, Note_off_c, 0, 88, 67
1, 9114, Control_c, 0, 64, 30
1, 9129, Control_c, 0, 64, 0
1, 9293, Note_on_c, 0, 72, 75
1, 9334, Note_off_c, 0, 72, 64
1, 9366, Note_on_c, 0, 72, 66
1, 9444, Note_off_c, 0, 72, 61
1, 9451, Note_on_c, 0, 76, 78
1, 9519, Note_on_c, 0, 74, 78
1, 9551, Note_off_c, 0, 76, 61
1, 9578, Note_on_c, 0, 72, 74
1, 9599, Note_off_c, 0, 74, 61
1, 9611, Control_c, 0, 64, 54
1, 9613, Note_on_c, 0, 50, 63
1, 9620, Note_off_c, 0, 72, 62
1, 9626, Control_c, 0, 64, 64
1, 9633, Note_on_c, 0, 53, 62
1, 9638, Note_on_c, 0, 71, 75
1, 9641, Control_c, 0, 64, 68
1, 9655, Control_c, 0, 64, 72
1, 9663, Note_on_c, 0, 59, 68
1, 9670, Control_c, 0, 64, 76
1, 9677, Note_off_c, 0, 50, 50
1, 9685, Control_c, 0, 64, 81
1, 9695, Note_on_c, 0, 77, 78
1, 9695, Note_off_c, 0, 71, 62
1, 9699, Control_c, 0, 64, 85
1, 9714, Control_c, 0, 64, 90
1, 9715, Note_on_c, 0, 65, 73
1, 9725, Note_on_c, 0, 83, 84
1, 9729, Control_c, 0, 64, 93
1, 9740, Note_off_c, 0, 53, 36
1, 9743, Note_on_c, 0, 82, 39
1, 9744, Control_c, 0, 64, 94
1, 9751, Note_off_c, 0, 77, 60
1, 9752, Note_on_c, 0, 89, 93
1, 9754, Note_off_c, 0, 59, 56
1, 9759, Control_c, 0, 64, 84
1, 9770, Note_on_c, 0, 85, 45
1, 9771, Note_off_c, 0, 82, 57
1, 9772, Note_off_c, 0, 83, 61
1, 9773, Control_c, 0, 64, 63
1, 9786, Note_off_c, 0, 65, 58
1, 9788, Control_c, 0, 64, 0
1, 9789, Note_off_c, 0, 89, 63
1, 9794, Note_off_c, 0, 85, 41
1, 9992, Note_on_c, 0, 71, 72
1, 10016, Note_off_c, 0, 71, 66
1, 10064, Note_on_c, 0, 71, 73
1, 10123, Note_off_c, 0, 71, 61
1, 10139, Note_on_c, 0, 74, 75
1, 10223, Note_on_c, 0, 72, 68
1, 10235, Note_off_c, 0, 74, 60
1, 10285, Control_c, 0, 64, 36
1, 10288, Note_on_c, 0, 71, 60
1, 10292, Note_off_c, 0, 72, 62
1, 10300, Control_c, 0, 64, 54
1, 10315, Note_off_c, 0, 71, 66
1, 10315, Control_c, 0, 64, 62
1, 10318, Note_on_c, 0, 52, 54
1, 10330, Control_c, 0, 64, 65
1, 10345, Control_c, 0, 64, 69
1, 10348, Note_on_c, 0, 60, 56
1, 10360, Note_on_c, 0, 69, 66
1, 10360, Control_c, 0, 64, 73
1, 10375, Control_c, 0, 64, 78
1, 10389, Note_on_c, 0, 64, 54
1, 10390, Control_c, 0, 64, 81
1, 10398, Note_off_c, 0, 69, 59
1, 10404, Control_c, 0, 64, 84
1, 10419, Note_on_c, 0, 76, 72
1, 10419, Control_c, 0, 64, 86
1, 10434, Control_c, 0, 64, 87
1, 10449, Control_c, 0, 64, 87
1, 10451, Note_on_c, 0, 81, 74
1, 10464, Control_c, 0, 64, 86
1, 10469, Note_off_c, 0, 76, 60
1, 10478, Note_on_c, 0, 88, 80
1, 10478, Control_c, 0, 64, 72
1, 10487, Note_off_c, 0, 64, 44
1, 10493, Control_c, 0, 64, 52
1, 10495, Note_off_c, 0, 60, 47
1, 10499, Note_off_c, 0, 88, 65
1, 10500, Note_off_c, 0, 81, 62
1, 10508, Control_c, 0, 64, 0
1, 10528, Poly_aftertouch_c, 0, 80, 0
1, 10555, Note_off_c, 0, 52, 46
1, 10698, Note_on_c, 0, 69, 72
1, 10723, Note_off_c, 0, 69, 66
1, 10782, Note_on_c, 0, 69, 64
1, 10831, Note_off_c, 0, 69, 62
1, 10857, Note_on_c, 0, 72, 62
1, 10945, Note_on_c, 0, 71, 57
1, 10973, Note_off_c, 0, 72, 49
1, 11025, Note_on_c, 0, 69, 55
1, 11030, Note_off_c, 0, 71, 52
1, 11108, Note_off_c, 0, 69, 60
1, 11108, Control_c, 0, 64, 34
1, 11123, Control_c, 0, 64, 52
1, 11124, Note_on_c, 0, 65, 52
1, 11135, Note_on_c, 0, 53, 46
1, 11138, Control_c, 0, 64, 57
1, 11153, Control_c, 0, 64, 59
1, 11168, Control_c, 0, 64, 61
1, 11183, Control_c, 0, 64, 61
1, 11198, Control_c, 0, 64, 62
1, 11213, Control_c, 0, 64, 63
1, 11227, Control_c, 0, 64, 63
1, 11242, Control_c, 0, 64, 64
1, 11257, Control_c, 0, 64, 64
1, 11287, Control_c, 0, 64, 65
1, 11317, Control_c, 0, 64, 65
1, 11332, Control_c, 0, 64, 66
1, 11346, Control_c, 0, 64, 66
1, 11380, Note_off_c, 0, 53, 53
1, 11385, Note_off_c, 0, 65, 54
1, 11391, Control_c, 0, 64, 66
1, 11396, Note_on_c, 0, 69, 52
1, 11401, Note_on_c, 0, 63, 45
1, 11404, Note_on_c, 0, 57, 45
1, 11406, Control_c, 0, 64, 65
1, 11415, Note_on_c, 0, 75, 54
1, 11420, Control_c, 0, 64, 61
1, 11435, Control_c, 0, 64, 52
1, 11450, Control_c, 0, 64, 45
1, 11465, Control_c, 0, 64, 34
1, 11476, Note_off_c, 0, 63, 52
1, 11491, Note_off_c, 0, 57, 54
1, 11494, Control_c, 0, 64, 0
1, 11502, Note_on_c, 0, 52, 61
1, 11504, Note_on_c, 0, 64, 60
1, 11518, Note_off_c, 0, 75, 58
1, 11564, Note_off_c, 0, 69, 26
1, 11581, Note_off_c, 0, 64, 51
1, 11590, Note_on_c, 0, 76, 71
1, 11669, Note_on_c, 0, 74, 69
1, 11685, Note_off_c, 0, 76, 49
1, 11752, Note_off_c, 0, 52, 42
1, 11754, Note_on_c, 0, 56, 61
1, 11756, Note_off_c, 0, 74, 61
1, 11760, Note_on_c, 0, 71, 70
1, 11787, Note_off_c, 0, 56, 63
1, 11793, Note_on_c, 0, 62, 15
1, 11799, Note_off_c, 0, 71, 59
1, 11839, Note_off_c, 0, 62, 41
1, 11856, Note_on_c, 0, 69, 67
1, 11876, Note_on_c, 0, 60, 56
1, 11889, Note_on_c, 0, 57, 48
1, 11932, Control_c, 0, 64, 36
1, 11947, Control_c, 0, 64, 56
1, 11962, Control_c, 0, 64, 61
1, 11973, Note_off_c, 0, 60, 55
1, 11976, Control_c, 0, 64, 63
1, 11991, Control_c, 0, 64, 64
1, 12004, Note_off_c, 0, 69, 44
1, 12005, Control_c, 0, 64, 65
1, 12020, Control_c, 0, 64, 65
1, 12035, Control_c, 0, 64, 66
1, 12050, Control_c, 0, 64, 67
1, 12065, Control_c, 0, 64, 68
1, 12080, Control_c, 0, 64, 69
1, 12094, Control_c, 0, 64, 69
1, 12109, Control_c, 0, 64, 70
1, 12139, Control_c, 0, 64, 70
1, 12154, Control_c, 0, 64, 71
1, 12168, Control_c, 0, 64, 71
1, 12183, Control_c, 0, 64, 72
1, 12228, Control_c, 0, 64, 70
1, 12238, Note_on_c, 0, 72, 57
1, 12239, Note_on_c, 0, 69, 51
1, 12241, Note_on_c, 0, 81, 63
1, 12242, Control_c, 0, 64, 61
1, 12243, Note_on_c, 0, 64, 58
1, 12257, Note_off_c, 0, 72, 63
1, 12257, Control_c, 0, 64, 45
1, 12260, Note_off_c, 0, 69, 62
1, 12272, Note_off_c, 0, 64, 64
1, 12272, Note_off_c, 0, 81, 63
1, 12287, Control_c, 0, 64, 0
1, 12303, Note_off_c, 0, 57, 37
1, 12515, Note_on_c, 0, 45, 45
1, 12547, Control_c, 0, 64, 24
1, 12554, Note_on_c, 0, 76, 47
1, 12562, Control_c, 0, 64, 37
1, 12563, Note_off_c, 0, 45, 50
1, 12569, Note_on_c, 0, 52, 60
1, 12572, Note_on_c, 0, 81, 66
1, 12577, Note_off_c, 0, 76, 59
1, 12577, Control_c, 0, 64, 39
1, 12591, Control_c, 0, 64, 37
1, 12596, Note_on_c, 0, 85, 71
1, 12606, Control_c, 0, 64, 33
1, 12617, Note_off_c, 0, 81, 61
1, 12621, Control_c, 0, 64, 27
1, 12626, Note_on_c, 0, 93, 85
1, 12627, Note_on_c, 0, 57, 62
1, 12636, Control_c, 0, 64, 22
1, 12643, Note_off_c, 0, 85, 65
1, 12646, Note_off_c, 0, 52, 60
1, 12651, Control_c, 0, 64, 18
1, 12652, Note_off_c, 0, 93, 61
1, 12656, Note_off_c, 0, 57, 65
1, 12660, Note_on_c, 0, 61, 64
1, 12687, Note_off_c, 0, 61, 62
1, 12710, Control_c, 0, 64, 0
1, 12882, Note_on_c, 0, 81, 62
1, 12900, Note_off_c, 0, 81, 66
1, 12947, Note_on_c, 0, 64, 66
1, 12950, Note_on_c, 0, 81, 85
1, 12950, Note_on_c, 0, 69, 62
1, 12959, Note_on_c, 0, 61, 63
1, 12968, Note_off_c, 0, 69, 66
1, 12972, Note_off_c, 0, 64, 66
1, 12986, Note_off_c, 0, 61, 65
1, 12996, Note_off_c, 0, 81, 55
1, 13022, Note_on_c, 0, 82, 73
1, 13096, Note_on_c, 0, 81, 77
1, 13108, Note_off_c, 0, 82, 57
1, 13139, Control_c, 0, 64, 39
1, 13153, Note_on_c, 0, 79, 67
1, 13154, Control_c, 0, 64, 56
1, 13174, Note_off_c, 0, 81, 60
1, 13177, Control_c, 0, 64, 62
1, 13191, Control_c, 0, 64, 65
1, 13197, Note_on_c, 0, 50, 34
1, 13206, Control_c, 0, 64, 67
1, 13207, Note_off_c, 0, 79, 60
1, 13221, Control_c, 0, 64, 69
1, 13228, Note_on_c, 0, 57, 57
1, 13231, Note_off_c, 0, 50, 47
1, 13236, Control_c, 0, 64, 71
1, 13250, Control_c, 0, 64, 73
1, 13262, Note_on_c, 0, 69, 53
1, 13265, Control_c, 0, 64, 75
1, 13280, Control_c, 0, 64, 77
1, 13284, Note_off_c, 0, 69, 59
1, 13285, Note_on_c, 0, 62, 74
1, 13288, Note_on_c, 0, 77, 73
1, 13295, Control_c, 0, 64, 79
1, 13301, Note_on_c, 0, 81, 76
1, 13305, Note_off_c, 0, 57, 60
1, 13308, Note_on_c, 0, 65, 71
1, 13323, Note_off_c, 0, 62, 57
1, 13324, Control_c, 0, 64, 75
1, 13340, Control_c, 0, 64, 62
1, 13343, Note_off_c, 0, 77, 59
1, 13344, Note_off_c, 0, 65, 56
1, 13348, Note_on_c, 0, 89, 80
1, 13355, Control_c, 0, 64, 39
1, 13356, Note_off_c, 0, 81, 63
1, 13368, Note_off_c, 0, 89, 67
1, 13370, Control_c, 0, 64, 0
1, 13557, Note_on_c, 0, 74, 75
1, 13580, Note_off_c, 0, 74, 68
1, 13637, Note_on_c, 0, 74, 75
1, 13639, Note_on_c, 0, 65, 63
1, 13646, Note_on_c, 0, 69, 57
1, 13665, Note_off_c, 0, 65, 64
1, 13665, Note_off_c, 0, 69, 62
1, 13693, Note_off_c, 0, 74, 60
1, 13722, Note_on_c, 0, 77, 63
1, 13787, Note_on_c, 0, 76, 69
1, 13801, Note_off_c, 0, 77, 56
1, 13856, Note_on_c, 0, 74, 65
1, 13858, Note_off_c, 0, 76, 59
1, 13873, Control_c, 0, 64, 23
1, 13883, Note_off_c, 0, 74, 63
1, 13888, Control_c, 0, 64, 49
1, 13898, Note_on_c, 0, 43, 66
1, 13903, Control_c, 0, 64, 59
1, 13925, Note_on_c, 0, 74, 59
1, 13925, Control_c, 0, 64, 62
1, 13940, Control_c, 0, 64, 65
1, 13945, Note_on_c, 0, 50, 59
1, 13953, Note_off_c, 0, 43, 53
1, 13955, Control_c, 0, 64, 68
1, 13967, Note_on_c, 0, 79, 66
1, 13970, Control_c, 0, 64, 70
1, 13975, Note_off_c, 0, 74, 61
1, 13985, Control_c, 0, 64, 73
1, 13991, Note_on_c, 0, 83, 79
1, 13993, Note_on_c, 0, 81, 60
1, 14000, Control_c, 0, 64, 74
1, 14005, Note_on_c, 0, 55, 68
1, 14014, Note_off_c, 0, 81, 43
1, 14014, Control_c, 0, 64, 72
1, 14020, Note_on_c, 0, 91, 78
1, 14022, Note_off_c, 0, 50, 58
1, 14025, Note_off_c, 0, 83, 63
1, 14027, Note_on_c, 0, 59, 76
1, 14029, Control_c, 0, 64, 63
1, 14030, Note_off_c, 0, 55, 65
1, 14035, Note_off_c, 0, 91, 71
1, 14040, Note_off_c, 0, 79, 34
1, 14044, Control_c, 0, 64, 43
1, 14051, Note_off_c, 0, 59, 66
1, 14059, Control_c, 0, 64, 0
1, 14266, Note_on_c, 0, 79, 57
1, 14285, Note_off_c, 0, 79, 63
1, 14338, Note_on_c, 0, 79, 81
1, 14344, Note_on_c, 0, 67, 63
1, 14348, Note_on_c, 0, 59, 62
1, 14349, Note_on_c, 0, 62, 54
1, 14362, Note_off_c, 0, 67, 63
1, 14372, Note_off_c, 0, 62, 59
1, 14381, Note_off_c, 0, 59, 63
1, 14383, Note_off_c, 0, 79, 61
1, 14414, Note_on_c, 0, 81, 70
1, 14493, Note_on_c, 0, 79, 68
1, 14497, Note_off_c, 0, 81, 56
1, 14563, Note_on_c, 0, 77, 63
1, 14563, Control_c, 0, 64, 22
1, 14569, Note_off_c, 0, 79, 60
1, 14574, Note_on_c, 0, 48, 54
1, 14578, Control_c, 0, 64, 48
1, 14593, Control_c, 0, 64, 59
1, 14599, Note_off_c, 0, 77, 59
1, 14608, Control_c, 0, 64, 63
1, 14615, Note_on_c, 0, 55, 55
1, 14623, Control_c, 0, 64, 66
1, 14628, Note_off_c, 0, 48, 53
1, 14637, Control_c, 0, 64, 69
1, 14650, Note_on_c, 0, 67, 64
1, 14652, Control_c, 0, 64, 71
1, 14674, Control_c, 0, 64, 74
1, 14684, Note_off_c, 0, 67, 66
1, 14688, Control_c, 0, 64, 76
1, 14689, Note_on_c, 0, 60, 69
1, 14703, Note_on_c, 0, 76, 71
1, 14703, Control_c, 0, 64, 78
1, 14709, Note_on_c, 0, 79, 65
1, 14715, Note_off_c, 0, 55, 54
1, 14716, Note_on_c, 0, 64, 70
1, 14718, Control_c, 0, 64, 79
1, 14726, Note_off_c, 0, 60, 62
1, 14748, Control_c, 0, 64, 70
1, 14750, Note_off_c, 0, 64, 59
1, 14750, Note_off_c, 0, 76, 61
1, 14755, Note_on_c, 0, 88, 79
1, 14759, Note_on_c, 0, 77, 12
1, 14763, Control_c, 0, 64, 53
1, 14768, Note_off_c, 0, 79, 62
1, 14775, Note_off_c, 0, 88, 68
1, 14778, Control_c, 0, 64, 0
1, 14805, Note_off_c, 0, 77, 34
1, 14964, Note_on_c, 0, 72, 73
1, 15005, Note_off_c, 0, 72, 64
1, 15040, Note_on_c, 0, 72, 69
1, 15044, Note_on_c, 0, 64, 71
1, 15048, Note_on_c, 0, 67, 67
1, 15067, Note_off_c, 0, 64, 67
1, 15070, Note_off_c, 0, 67, 63
1, 15120, Note_off_c, 0, 72, 58
1, 15129, Note_on_c, 0, 76, 69
1, 15191, Note_on_c, 0, 74, 68
1, 15235, Note_off_c, 0, 76, 57
1, 15257, Note_on_c, 0, 72, 65
1, 15275, Note_on_c, 0, 50, 54
1, 15276, Note_off_c, 0, 74, 61
1, 15283, Control_c, 0, 64, 42
1, 15295, Note_off_c, 0, 72, 60
1, 15298, Control_c, 0, 64, 57
1, 15309, Note_on_c, 0, 53, 66
1, 15312, Control_c, 0, 64, 63
1, 15327, Control_c, 0, 64, 67
1, 15342, Control_c, 0, 64, 69
1, 15357, Control_c, 0, 64, 72
1, 15359, Note_on_c, 0, 58, 65
1, 15368, Note_on_c, 0, 70, 66
1, 15371, Note_off_c, 0, 50, 47
1, 15372, Control_c, 0, 64, 75
1, 15386, Note_off_c, 0, 70, 65
1, 15386, Control_c, 0, 64, 78
1, 15392, Note_on_c, 0, 78, 77
1, 15401, Control_c, 0, 64, 81
1, 15419, Note_on_c, 0, 65, 69
1, 15424, Control_c, 0, 64, 85
1, 15431, Note_off_c, 0, 53, 57
1, 15438, Control_c, 0, 64, 87
1, 15439, Note_on_c, 0, 77, 72
1, 15445, Note_off_c, 0, 58, 55
1, 15453, Control_c, 0, 64, 86
1, 15468, Note_off_c, 0, 77, 62
1, 15468, Control_c, 0, 64, 71
1, 15471, Note_off_c, 0, 78, 62
1, 15475, Note_on_c, 0, 89, 90
1, 15483, Control_c, 0, 64, 42
1, 15496, Note_off_c, 0, 65, 56
1, 15498, Control_c, 0, 64, 0
1, 15502, Note_off_c, 0, 89, 64
1, 15691, Note_on_c, 0, 70, 72
1, 15709, Note_on_c, 0, 73, 41
1, 15715, Note_off_c, 0, 70, 64
1, 15737, Note_off_c, 0, 73, 53
1, 15770, Note_on_c, 0, 70, 74
1, 15782, Note_on_c, 0, 62, 68
1, 15783, Note_on_c, 0, 65, 62
1, 15803, Note_off_c, 0, 65, 65
1, 15809, Note_off_c, 0, 62, 66
1, 15851, Note_off_c, 0, 70, 59
1, 15861, Note_on_c, 0, 74, 69
1, 15908, Note_on_c, 0, 72, 64
1, 15947, Note_off_c, 0, 74, 51
1, 15981, Note_on_c, 0, 70, 66
1, 15994, Note_off_c, 0, 72, 61
1, 16003, Control_c, 0, 64, 25
1, 16017, Control_c, 0, 64, 51
1, 16025, Note_off_c, 0, 70, 62
1, 16032, Control_c, 0, 64, 60
1, 16035, Note_on_c, 0, 52, 53
1, 16047, Control_c, 0, 64, 64
1, 16056, Note_on_c, 0, 67, 65
1, 16061, Control_c, 0, 64, 67
1, 16062, Note_on_c, 0, 60, 57
1, 16076, Control_c, 0, 64, 70
1, 16091, Control_c, 0, 64, 72
1, 16092, Note_on_c, 0, 64, 62
1, 16099, Note_off_c, 0, 67, 58
1, 16104, Note_on_c, 0, 74, 71
1, 16106, Control_c, 0, 64, 74
1, 16121, Control_c, 0, 64, 76
1, 16135, Control_c, 0, 64, 76
1, 16150, Control_c, 0, 64, 75
1, 16164, Note_on_c, 0, 86, 80
1, 16169, Note_off_c, 0, 74, 59
1, 16173, Control_c, 0, 64, 64
1, 16188, Note_off_c, 0, 64, 56
1, 16188, Control_c, 0, 64, 43
1, 16203, Control_c, 0, 64, 0
1, 16204, Note_off_c, 0, 86, 61
1, 16206, Note_off_c, 0, 60, 35
1, 16212, Note_off_c, 0, 52, 52
1, 16380, Note_on_c, 0, 69, 81
1, 16420, Note_off_c, 0, 69, 65
1, 16465, Note_on_c, 0, 69, 60
1, 16476, Note_on_c, 0, 57, 57
1, 16506, Note_off_c, 0, 57, 58
1, 16520, Note_off_c, 0, 69, 60
1, 16547, Note_on_c, 0, 72, 64
1, 16626, Note_on_c, 0, 71, 59
1, 16677, Note_off_c, 0, 72, 37
1, 16705, Note_on_c, 0, 69, 56
1, 16738, Note_off_c, 0, 71, 36
1, 16802, Note_on_c, 0, 53, 44
1, 16811, Note_off_c, 0, 69, 59
1, 16823, Note_on_c, 0, 65, 53
1, 17080, Note_off_c, 0, 53, 48
1, 17100, Note_on_c, 0, 63, 40
1, 17105, Note_on_c, 0, 57, 43
1, 17106, Note_off_c, 0, 65, 57
1, 17113, Control_c, 0, 64, 26
1, 17119, Note_on_c, 0, 69, 49
1, 17127, Note_on_c, 0, 75, 47
1, 17128, Control_c, 0, 64, 31
1, 17143, Control_c, 0, 64, 32
1, 17172, Control_c, 0, 64, 31
1, 17186, Note_off_c, 0, 63, 48
1, 17202, Control_c, 0, 64, 31
1, 17211, Note_off_c, 0, 57, 54
1, 17216, Control_c, 0, 64, 30
1, 17219, Note_on_c, 0, 52, 58
1, 17228, Note_on_c, 0, 64, 58
1, 17231, Control_c, 0, 64, 30
1, 17238, Note_off_c, 0, 75, 56
1, 17246, Control_c, 0, 64, 29
1, 17261, Control_c, 0, 64, 28
1, 17276, Control_c, 0, 64, 27
1, 17291, Control_c, 0, 64, 27
1, 17305, Control_c, 0, 64, 26
1, 17310, Note_off_c, 0, 64, 53
1, 17320, Control_c, 0, 64, 25
1, 17323, Note_on_c, 0, 76, 61
1, 17336, Control_c, 0, 64, 25
1, 17338, Note_off_c, 0, 69, 43
1, 17351, Control_c, 0, 64, 24
1, 17380, Control_c, 0, 64, 24
1, 17404, Note_on_c, 0, 74, 64
1, 17412, Note_off_c, 0, 76, 46
1, 17458, Note_off_c, 0, 52, 35
1, 17459, Note_on_c, 0, 56, 60
1, 17489, Note_on_c, 0, 62, 30
1, 17491, Note_off_c, 0, 56, 64
1, 17498, Note_off_c, 0, 74, 60
1, 17499, Control_c, 0, 64, 23
1, 17504, Note_on_c, 0, 71, 62
1, 17526, Note_off_c, 0, 62, 45
1, 17542, Note_off_c, 0, 71, 57
1, 17559, Control_c, 0, 64, 23
1, 17597, Note_on_c, 0, 60, 57
1, 17601, Note_on_c, 0, 69, 60
1, 17618, Note_on_c, 0, 57, 37
1, 17669, Control_c, 0, 64, 34
1, 17674, Note_off_c, 0, 60, 55
1, 17684, Control_c, 0, 64, 50
1, 17699, Control_c, 0, 64, 58
1, 17714, Control_c, 0, 64, 62
1, 17729, Control_c, 0, 64, 65
1, 17744, Control_c, 0, 64, 66
1, 17747, Note_off_c, 0, 69, 53
1, 17759, Control_c, 0, 64, 68
1, 17774, Control_c, 0, 64, 70
1, 17788, Control_c, 0, 64, 71
1, 17803, Control_c, 0, 64, 73
1, 17818, Control_c, 0, 64, 74
1, 17833, Control_c, 0, 64, 75
1, 17847, Control_c, 0, 64, 76
1, 18011, Control_c, 0, 64, 73
1, 18020, Note_on_c, 0, 69, 55
1, 18026, Control_c, 0, 64, 64
1, 18028, Note_on_c, 0, 64, 49
1, 18033, Note_on_c, 0, 72, 26
1, 18040, Control_c, 0, 64, 52
1, 18055, Control_c, 0, 64, 36
1, 18057, Note_off_c, 0, 69, 59
1, 18070, Control_c, 0, 64, 0
1, 18074, Note_on_c, 0, 81, 56
1, 18079, Note_off_c, 0, 64, 54
1, 18079, Note_off_c, 0, 72, 43
1, 18106, Note_off_c, 0, 81, 63
1, 18113, Note_off_c, 0, 57, 51
1, 18489, Note_on_c, 0, 72, 51
1, 18533, Note_off_c, 0, 72, 62
1, 18540, Note_on_c, 0, 81, 61
1, 18546, Note_on_c, 0, 57, 62
1, 18548, Note_on_c, 0, 88, 73
1, 18573, Note_off_c, 0, 81, 62
1, 18575, Note_off_c, 0, 57, 66
1, 18589, Note_off_c, 0, 88, 59
1, 18716, Note_on_c, 0, 84, 57
1, 18753, Note_off_c, 0, 84, 52
1, 18783, Note_on_c, 0, 81, 65
1, 18787, Note_on_c, 0, 57, 68
1, 18815, Note_off_c, 0, 57, 66
1, 18863, Note_on_c, 0, 76, 71
1, 18863, Note_off_c, 0, 81, 41
1, 18871, Note_on_c, 0, 57, 74
1, 18899, Note_off_c, 0, 76, 59
1, 18943, Note_off_c, 0, 57, 59
1, 18944, Note_on_c, 0, 60, 76
1, 18979, Note_on_c, 0, 72, 69
1, 19023, Note_on_c, 0, 59, 81
1, 19034, Note_off_c, 0, 60, 57
1, 19058, Note_on_c, 0, 69, 74
1, 19079, Note_off_c, 0, 72, 61
1, 19093, Note_off_c, 0, 69, 61
1, 19115, Note_on_c, 0, 57, 74
1, 19185, Note_off_c, 0, 59, 59
1, 19213, Note_on_c, 0, 64, 80
1, 19221, Note_off_c, 0, 57, 58
1, 19228, Note_on_c, 0, 68, 77
1, 19235, Note_on_c, 0, 83, 82
1, 19248, Note_off_c, 0, 64, 62
1, 19251, Note_on_c, 0, 76, 53
1, 19255, Note_off_c, 0, 68, 58
1, 19272, Note_off_c, 0, 76, 62
1, 19272, Note_off_c, 0, 83, 53
1, 19383, Note_on_c, 0, 80, 59
1, 19454, Note_off_c, 0, 80, 59
1, 19467, Note_on_c, 0, 52, 71
1, 19477, Note_on_c, 0, 76, 65
1, 19494, Note_off_c, 0, 52, 63
1, 19529, Note_off_c, 0, 76, 58
1, 19562, Note_on_c, 0, 52, 75
1, 19568, Note_on_c, 0, 71, 50
1, 19598, Note_off_c, 0, 71, 55
1, 19619, Note_off_c, 0, 52, 58
1, 19629, Note_on_c, 0, 55, 67
1, 19663, Note_on_c, 0, 68, 60
1, 19702, Note_off_c, 0, 55, 58
1, 19708, Note_on_c, 0, 53, 69
1, 19759, Note_on_c, 0, 64, 67
1, 19783, Note_off_c, 0, 64, 67
1, 19794, Note_off_c, 0, 68, 42
1, 19795, Note_on_c, 0, 52, 67
1, 19818, Note_off_c, 0, 53, 56
1, 19829, Note_off_c, 0, 52, 63
1, 19914, Note_on_c, 0, 72, 64
1, 19922, Note_on_c, 0, 57, 71
1, 19932, Note_on_c, 0, 88, 74
1, 19932, Note_on_c, 0, 81, 67
1, 19941, Note_off_c, 0, 72, 66
1, 19950, Note_off_c, 0, 57, 64
1, 19970, Note_off_c, 0, 81, 55
1, 19984, Note_off_c, 0, 88, 60
1, 20082, Note_on_c, 0, 84, 63
1, 20164, Note_on_c, 0, 81, 65
1, 20170, Note_off_c, 0, 84, 50
1, 20173, Note_on_c, 0, 57, 67
1, 20200, Note_off_c, 0, 57, 65
1, 20230, Note_off_c, 0, 81, 51
1, 20241, Note_on_c, 0, 76, 63
1, 20265, Note_on_c, 0, 57, 75
1, 20270, Note_off_c, 0, 76, 66
1, 20325, Note_off_c, 0, 57, 62
1, 20330, Note_on_c, 0, 60, 74
1, 20337, Note_on_c, 0, 72, 69
1, 20412, Note_on_c, 0, 59, 75
1, 20417, Note_on_c, 0, 69, 70
1, 20419, Note_off_c, 0, 60, 58
1, 20444, Note_off_c, 0, 72, 61
1, 20454, Note_off_c, 0, 69, 64
1, 20503, Note_on_c, 0, 57, 71
1, 20540, Note_off_c, 0, 59, 58
1, 20593, Note_off_c, 0, 57, 56
1, 20596, Note_on_c, 0, 64, 70
1, 20706, Note_on_c, 0, 76, 66
1, 20714, Note_on_c, 0, 68, 51
1, 20754, Control_c, 0, 64, 20
1, 20769, Control_c, 0, 64, 53
1, 20776, Note_off_c, 0, 68, 37
1, 20783, Control_c, 0, 64, 62
1, 20798, Control_c, 0, 64, 65
1, 20802, Note_on_c, 0, 80, 64
1, 20804, Note_on_c, 0, 71, 56
1, 20813, Control_c, 0, 64, 68
1, 20828, Control_c, 0, 64, 71
1, 20830, Note_off_c, 0, 71, 62
1, 20835, Note_off_c, 0, 76, 35
1, 20843, Control_c, 0, 64, 72
1, 20857, Control_c, 0, 64, 73
1, 20862, Note_off_c, 0, 80, 59
1, 20872, Control_c, 0, 64, 74
1, 20887, Control_c, 0, 64, 74
1, 20902, Control_c, 0, 64, 75
1, 20917, Control_c, 0, 64, 76
1, 20937, Note_on_c, 0, 52, 62
1, 20945, Note_on_c, 0, 76, 69
1, 20946, Control_c, 0, 64, 72
1, 20954, Note_on_c, 0, 88, 61
1, 20960, Note_off_c, 0, 64, 58
1, 20961, Control_c, 0, 64, 62
1, 20974, Note_off_c, 0, 76, 64
1, 20976, Control_c, 0, 64, 47
1, 20983, Note_off_c, 0, 88, 64
1, 20991, Control_c, 0, 64, 0
1, 20996, Note_off_c, 0, 52, 56
1, 21246, Note_on_c, 0, 72, 53
1, 21276, Note_on_c, 0, 81, 60
1, 21286, Note_off_c, 0, 72, 62
1, 21300, Note_on_c, 0, 88, 69
1, 21304, Note_on_c, 0, 57, 61
1, 21335, Note_off_c, 0, 57, 66
1, 21336, Note_off_c, 0, 81, 56
1, 21357, Note_off_c, 0, 88, 56
1, 21452, Note_on_c, 0, 84, 62
1, 21490, Note_off_c, 0, 84, 51
1, 21539, Note_on_c, 0, 57, 59
1, 21547, Note_on_c, 0, 81, 54
1, 21570, Note_off_c, 0, 57, 64
1, 21582, Note_off_c, 0, 81, 52
1, 21618, Note_on_c, 0, 76, 58
1, 21635, Note_on_c, 0, 57, 70
1, 21652, Note_off_c, 0, 76, 64
1, 21675, Note_off_c, 0, 57, 60
1, 21700, Note_on_c, 0, 60, 70
1, 21729, Note_on_c, 0, 72, 64
1, 21786, Note_on_c, 0, 59, 70
1, 21786, Note_off_c, 0, 60, 58
1, 21807, Note_on_c, 0, 69, 60
1, 21818, Note_off_c, 0, 72, 61
1, 21835, Note_off_c, 0, 69, 66
1, 21876, Note_on_c, 0, 57, 68
1, 21923, Note_off_c, 0, 59, 57
1, 21959, Note_on_c, 0, 68, 68
1, 21962, Note_on_c, 0, 64, 66
1, 21964, Note_on_c, 0, 83, 76
1, 21974, Note_on_c, 0, 76, 55
1, 21976, Note_off_c, 0, 68, 65
1, 21989, Note_off_c, 0, 64, 63
1, 21994, Note_off_c, 0, 57, 61
1, 21999, Note_off_c, 0, 76, 61
1, 22006, Note_off_c, 0, 83, 46
1, 22090, Note_on_c, 0, 80, 59
1, 22144, Note_off_c, 0, 80, 47
1, 22201, Note_on_c, 0, 52, 61
1, 22205, Note_on_c, 0, 76, 50
1, 22230, Note_off_c, 0, 52, 60
1, 22249, Note_off_c, 0, 76, 60
1, 22304, Note_on_c, 0, 71, 47
1, 22307, Note_on_c, 0, 52, 64
1, 22333, Note_off_c, 0, 71, 53
1, 22348, Note_off_c, 0, 52, 58
1, 22370, Note_on_c, 0, 55, 65
1, 22396, Note_on_c, 0, 68, 60
1, 22442, Note_off_c, 0, 55, 57
1, 22450, Note_on_c, 0, 53, 64
1, 22474, Control_c, 0, 64, 47
1, 22488, Control_c, 0, 64, 59
1, 22494, Note_on_c, 0, 64, 65
1, 22501, Note_off_c, 0, 68, 51
1, 22502, Control_c, 0, 64, 63
1, 22517, Control_c, 0, 64, 66
1, 22519, Note_off_c, 0, 64, 66
1, 22526, Note_on_c, 0, 52, 69
1, 22532, Control_c, 0, 64, 69
1, 22547, Control_c, 0, 64, 71
1, 22553, Note_off_c, 0, 53, 57
1, 22561, Control_c, 0, 64, 73
1, 22564, Note_off_c, 0, 52, 61
1, 22576, Control_c, 0, 64, 74
1, 22591, Control_c, 0, 64, 75
1, 22621, Control_c, 0, 64, 72
1, 22635, Control_c, 0, 64, 59
1, 22647, Note_on_c, 0, 57, 76
1, 22654, Note_on_c, 0, 72, 46
1, 22657, Note_on_c, 0, 88, 79
1, 22660, Note_on_c, 0, 81, 63
1, 22662, Note_on_c, 0, 74, 59
1, 22665, Control_c, 0, 64, 0
1, 22675, Note_off_c, 0, 57, 64
1, 22677, Note_off_c, 0, 72, 57
1, 22683, Note_off_c, 0, 74, 60
1, 22706, Note_off_c, 0, 81, 57
1, 22723, Note_off_c, 0, 88, 54
1, 22806, Note_on_c, 0, 84, 60
1, 22879, Note_on_c, 0, 57, 72
1, 22884, Note_on_c, 0, 81, 64
1, 22914, Note_off_c, 0, 57, 64
1, 22945, Note_off_c, 0, 84, 35
1, 22961, Note_off_c, 0, 81, 59
1, 22972, Note_on_c, 0, 76, 68
1, 22980, Note_on_c, 0, 57, 78
1, 23005, Note_off_c, 0, 76, 62
1, 23043, Note_off_c, 0, 57, 61
1, 23053, Note_on_c, 0, 60, 73
1, 23071, Note_on_c, 0, 72, 67
1, 23135, Note_on_c, 0, 59, 69
1, 23138, Note_off_c, 0, 60, 57
1, 23147, Note_on_c, 0, 69, 69
1, 23172, Note_off_c, 0, 72, 60
1, 23184, Note_off_c, 0, 69, 59
1, 23220, Note_on_c, 0, 57, 66
1, 23249, Note_off_c, 0, 59, 55
1, 23301, Note_off_c, 0, 57, 58
1, 23312, Note_on_c, 0, 64, 66
1, 23419, Note_on_c, 0, 76, 64
1, 23434, Note_on_c, 0, 68, 52
1, 23444, Control_c, 0, 64, 44
1, 23458, Control_c, 0, 64, 56
1, 23473, Control_c, 0, 64, 61
1, 23488, Control_c, 0, 64, 64
1, 23494, Note_off_c, 0, 68, 45
1, 23503, Control_c, 0, 64, 65
1, 23518, Control_c, 0, 64, 66
1, 23524, Note_on_c, 0, 80, 58
1, 23531, Note_on_c, 0, 71, 55
1, 23533, Control_c, 0, 64, 67
1, 23548, Control_c, 0, 64, 69
1, 23554, Note_off_c, 0, 76, 35
1, 23560, Note_off_c, 0, 71, 62
1, 23562, Control_c, 0, 64, 70
1, 23577, Control_c, 0, 64, 73
1, 23589, Note_off_c, 0, 80, 59
1, 23592, Control_c, 0, 64, 74
1, 23607, Control_c, 0, 64, 75
1, 23622, Control_c, 0, 64, 76
1, 23637, Control_c, 0, 64, 76
1, 23653, Note_on_c, 0, 52, 67
1, 23673, Note_on_c, 0, 88, 76
1, 23674, Note_on_c, 0, 76, 65
1, 23688, Control_c, 0, 64, 75
1, 23689, Note_off_c, 0, 64, 56
1, 23701, Note_off_c, 0, 76, 64
1, 23703, Control_c, 0, 64, 69
1, 23703, Note_off_c, 0, 52, 57
1, 23717, Control_c, 0, 64, 60
1, 23732, Note_off_c, 0, 88, 59
1, 23734, Control_c, 0, 64, 45
1, 23748, Control_c, 0, 64, 0
1, 23946, Note_on_c, 0, 57, 65
1, 23959, Note_on_c, 0, 81, 71
1, 23974, Note_on_c, 0, 64, 73
1, 23986, Control_c, 0, 64, 53
1, 24000, Control_c, 0, 64, 67
1, 24005, Note_on_c, 0, 85, 85
1, 24015, Control_c, 0, 64, 72
1, 24022, Note_on_c, 0, 69, 94
1, 24027, Note_off_c, 0, 57, 63
1, 24030, Control_c, 0, 64, 75
1, 24032, Note_on_c, 0, 93, 97
1, 24035, Note_off_c, 0, 81, 61
1, 24045, Control_c, 0, 64, 74
1, 24048, Note_off_c, 0, 64, 60
1, 24060, Control_c, 0, 64, 64
1, 24061, Note_off_c, 0, 85, 65
1, 24072, Note_off_c, 0, 69, 66
1, 24074, Control_c, 0, 64, 40
1, 24089, Control_c, 0, 64, 0
1, 24104, Note_off_c, 0, 93, 52
1, 24165, Note_on_c, 0, 88, 71
1, 24242, Note_on_c, 0, 85, 72
1, 24255, Note_on_c, 0, 69, 82
1, 24289, Note_off_c, 0, 69, 65
1, 24289, Note_off_c, 0, 88, 55
1, 24316, Note_off_c, 0, 85, 65
1, 24325, Note_on_c, 0, 81, 64
1, 24346, Note_on_c, 0, 69, 81
1, 24352, Note_off_c, 0, 81, 67
1, 24414, Note_on_c, 0, 76, 76
1, 24421, Note_off_c, 0, 69, 63
1, 24432, Note_on_c, 0, 70, 80
1, 24467, Control_c, 0, 64, 41
1, 24481, Control_c, 0, 64, 58
1, 24496, Control_c, 0, 64, 63
1, 24498, Note_on_c, 0, 69, 75
1, 24510, Note_off_c, 0, 70, 61
1, 24511, Control_c, 0, 64, 65
1, 24527, Control_c, 0, 64, 67
1, 24542, Control_c, 0, 64, 69
1, 24556, Control_c, 0, 64, 73
1, 24567, Note_on_c, 0, 67, 76
1, 24571, Control_c, 0, 64, 76
1, 24576, Note_off_c, 0, 69, 64
1, 24586, Control_c, 0, 64, 78
1, 24587, Note_off_c, 0, 67, 68
1, 24600, Note_on_c, 0, 73, 72
1, 24601, Control_c, 0, 64, 80
1, 24608, Note_off_c, 0, 76, 54
1, 24616, Control_c, 0, 64, 81
1, 24630, Control_c, 0, 64, 82
1, 24645, Control_c, 0, 64, 83
1, 24660, Control_c, 0, 64, 84
1, 24690, Control_c, 0, 64, 82
1, 24691, Note_on_c, 0, 50, 81
1, 24704, Control_c, 0, 64, 68
1, 24715, Note_on_c, 0, 65, 78
1, 24719, Control_c, 0, 64, 47
1, 24735, Control_c, 0, 64, 0
1, 24737, Note_off_c, 0, 50, 59
1, 24749, Note_off_c, 0, 65, 64
1, 24760, Note_off_c, 0, 73, 50
1, 24852, Note_on_c, 0, 69, 67
1, 24853, Note_on_c, 0, 74, 76
1, 24882, Note_off_c, 0, 69, 65
1, 24892, Note_off_c, 0, 74, 58
1, 24946, Note_on_c, 0, 62, 68
1, 24960, Note_on_c, 0, 77, 63
1, 24975, Note_off_c, 0, 62, 61
1, 24994, Note_off_c, 0, 77, 57
1, 25025, Note_on_c, 0, 77, 52
1, 25033, Note_on_c, 0, 62, 79
1, 25038, Note_on_c, 0, 81, 69
1, 25057, Note_off_c, 0, 77, 60
1, 25062, Note_off_c, 0, 81, 67
1, 25111, Note_on_c, 0, 65, 68
1, 25119, Note_off_c, 0, 62, 56
1, 25150, Note_on_c, 0, 81, 68
1, 25151, Note_on_c, 0, 86, 67
1, 25168, Note_on_c, 0, 64, 69
1, 25178, Note_off_c, 0, 86, 65
1, 25193, Note_off_c, 0, 65, 59
1, 25228, Note_off_c, 0, 81, 0
1, 25228, Note_on_c, 0, 81, 22
1, 25229, Note_on_c, 0, 62, 77
1, 25235, Note_off_c, 0, 64, 61
1, 25240, Note_on_c, 0, 86, 60
1, 25243, Note_on_c, 0, 89, 76
1, 25270, Note_off_c, 0, 81, 61
1, 25276, Note_off_c, 0, 62, 59
1, 25291, Control_c, 0, 64, 16
1, 25294, Note_off_c, 0, 86, 58
1, 25305, Control_c, 0, 64, 53
1, 25308, Note_off_c, 0, 89, 60
1, 25320, Control_c, 0, 64, 63
1, 25323, Note_on_c, 0, 55, 74
1, 25336, Note_on_c, 0, 62, 78
1, 25336, Control_c, 0, 64, 67
1, 25351, Control_c, 0, 64, 71
1, 25366, Control_c, 0, 64, 75
1, 25367, Note_on_c, 0, 79, 76
1, 25378, Note_on_c, 0, 83, 87
1, 25380, Control_c, 0, 64, 79
1, 25392, Note_on_c, 0, 67, 90
1, 25392, Note_off_c, 0, 55, 52
1, 25395, Control_c, 0, 64, 79
1, 25397, Note_off_c, 0, 62, 61
1, 25408, Note_on_c, 0, 91, 82
1, 25409, Note_off_c, 0, 79, 55
1, 25410, Control_c, 0, 64, 73
1, 25418, Note_on_c, 0, 93, 79
1, 25425, Control_c, 0, 64, 61
1, 25430, Note_off_c, 0, 83, 63
1, 25434, Note_off_c, 0, 93, 43
1, 25435, Note_off_c, 0, 67, 62
1, 25440, Control_c, 0, 64, 29
1, 25454, Control_c, 0, 64, 0
1, 25463, Note_off_c, 0, 91, 62
1, 25526, Note_on_c, 0, 86, 69
1, 25599, Note_on_c, 0, 83, 75
1, 25608, Note_on_c, 0, 67, 75
1, 25635, Note_off_c, 0, 67, 62
1, 25675, Note_off_c, 0, 86, 44
1, 25679, Note_off_c, 0, 83, 61
1, 25683, Note_on_c, 0, 79, 70
1, 25700, Note_on_c, 0, 67, 78
1, 25718, Note_off_c, 0, 79, 59
1, 25759, Note_off_c, 0, 67, 60
1, 25779, Note_on_c, 0, 69, 79
1, 25788, Note_on_c, 0, 74, 58
1, 25797, Note_on_c, 0, 76, 55
1, 25825, Control_c, 0, 64, 43
1, 25829, Note_off_c, 0, 76, 59
1, 25839, Control_c, 0, 64, 56
1, 25846, Note_on_c, 0, 67, 70
1, 25854, Control_c, 0, 64, 62
1, 25859, Note_off_c, 0, 69, 61
1, 25869, Control_c, 0, 64, 64
1, 25884, Control_c, 0, 64, 65
1, 25905, Control_c, 0, 64, 66
1, 25916, Note_off_c, 0, 67, 62
1, 25917, Note_on_c, 0, 65, 60
1, 25920, Control_c, 0, 64, 67
1, 25924, Note_on_c, 0, 71, 64
1, 25935, Control_c, 0, 64, 68
1, 25938, Note_off_c, 0, 65, 64
1, 25950, Control_c, 0, 64, 69
1, 25961, Note_off_c, 0, 74, 52
1, 25965, Control_c, 0, 64, 72
1, 25980, Control_c, 0, 64, 74
1, 25995, Control_c, 0, 64, 77
1, 26010, Control_c, 0, 64, 78
1, 26012, Note_off_c, 0, 71, 53
1, 26025, Control_c, 0, 64, 79
1, 26043, Note_on_c, 0, 48, 72
1, 26054, Control_c, 0, 64, 74
1, 26069, Control_c, 0, 64, 63
1, 26076, Note_off_c, 0, 48, 64
1, 26078, Note_on_c, 0, 64, 67
1, 26084, Control_c, 0, 64, 47
1, 26098, Control_c, 0, 64, 0
1, 26103, Note_off_c, 0, 64, 67
1, 26201, Note_on_c, 0, 67, 61
1, 26201, Note_on_c, 0, 72, 70
1, 26233, Note_off_c, 0, 67, 62
1, 26234, Note_off_c, 0, 72, 60
1, 26303, Note_on_c, 0, 60, 65
1, 26305, Note_on_c, 0, 76, 70
1, 26332, Note_off_c, 0, 60, 63
1, 26379, Note_on_c, 0, 79, 71
1, 26383, Note_off_c, 0, 76, 60
1, 26392, Note_on_c, 0, 60, 72
1, 26400, Note_off_c, 0, 79, 68
1, 26466, Note_on_c, 0, 64, 72
1, 26471, Note_on_c, 0, 83, 60
1, 26478, Note_on_c, 0, 77, 45
1, 26482, Note_off_c, 0, 60, 59
1, 26490, Note_off_c, 0, 83, 63
1, 26499, Control_c, 0, 64, 17
1, 26504, Note_off_c, 0, 77, 41
1, 26505, Note_on_c, 0, 84, 23
1, 26514, Control_c, 0, 64, 46
1, 26519, Note_on_c, 0, 62, 70
1, 26528, Control_c, 0, 64, 60
1, 26542, Note_off_c, 0, 84, 32
1, 26543, Control_c, 0, 64, 65
1, 26554, Note_off_c, 0, 64, 53
1, 26558, Note_on_c, 0, 86, 74
1, 26558, Control_c, 0, 64, 68
1, 26568, Note_on_c, 0, 60, 81
1, 26573, Control_c, 0, 64, 72
1, 26577, Note_on_c, 0, 84, 63
1, 26579, Note_off_c, 0, 86, 59
1, 26588, Control_c, 0, 64, 77
1, 26593, Note_on_c, 0, 89, 62
1, 26593, Note_off_c, 0, 62, 60
1, 26595, Note_on_c, 0, 88, 43
1, 26598, Note_off_c, 0, 60, 64
1, 26603, Control_c, 0, 64, 81
1, 26618, Control_c, 0, 64, 84
1, 26620, Note_off_c, 0, 88, 61
1, 26624, Note_off_c, 0, 89, 52
1, 26633, Control_c, 0, 64, 87
1, 26636, Note_off_c, 0, 84, 59
1, 26655, Control_c, 0, 64, 90
1, 26669, Control_c, 0, 64, 94
1, 26680, Note_on_c, 0, 50, 82
1, 26684, Control_c, 0, 64, 99
1, 26699, Control_c, 0, 64, 104
1, 26704, Note_on_c, 0, 56, 88
1, 26706, Note_on_c, 0, 84, 74
1, 26710, Note_off_c, 0, 50, 58
1, 26714, Control_c, 0, 64, 105
1, 26718, Note_on_c, 0, 91, 68
1, 26719, Note_on_c, 0, 89, 64
1, 26728, Control_c, 0, 64, 104
1, 26736, Note_off_c, 0, 91, 65
1, 26740, Note_off_c, 0, 89, 66
1, 26743, Control_c, 0, 64, 90
1, 26758, Control_c, 0, 64, 74
1, 26759, Note_off_c, 0, 84, 60
1, 26762, Note_on_c, 0, 65, 73
1, 26773, Control_c, 0, 64, 59
1, 26779, Note_off_c, 0, 56, 59
1, 26788, Control_c, 0, 64, 40
1, 26803, Control_c, 0, 64, 26
1, 26803, Note_off_c, 0, 65, 62
1, 26818, Control_c, 0, 64, 19
1, 26824, Note_on_c, 0, 80, 72
1, 26832, Control_c, 0, 64, 19
1, 26845, Note_off_c, 0, 80, 68
1, 26862, Control_c, 0, 64, 18
1, 26877, Control_c, 0, 64, 17
1, 26892, Control_c, 0, 64, 16
1, 26907, Control_c, 0, 64, 16
1, 26922, Note_on_c, 0, 83, 81
1, 26933, Note_on_c, 0, 59, 76
1, 26937, Note_on_c, 0, 77, 65
1, 26964, Note_off_c, 0, 83, 63
1, 26969, Note_off_c, 0, 59, 63
1, 26972, Note_off_c, 0, 77, 59
1, 27029, Note_on_c, 0, 80, 74
1, 27032, Note_on_c, 0, 59, 77
1, 27041, Note_on_c, 0, 74, 64
1, 27049, Note_off_c, 0, 80, 69
1, 27060, Note_off_c, 0, 74, 63
1, 27092, Note_off_c, 0, 59, 60
1, 27110, Note_on_c, 0, 62, 73
1, 27164, Note_on_c, 0, 69, 41
1, 27166, Note_on_c, 0, 77, 37
1, 27169, Note_on_c, 0, 60, 72
1, 27175, Note_on_c, 0, 76, 53
1, 27182, Note_off_c, 0, 62, 57
1, 27185, Note_on_c, 0, 71, 18
1, 27198, Note_off_c, 0, 69, 50
1, 27224, Note_off_c, 0, 71, 40
1, 27232, Note_off_c, 0, 76, 48
1, 27241, Note_on_c, 0, 74, 63
1, 27241, Note_on_c, 0, 59, 66
1, 27251, Note_off_c, 0, 60, 60
1, 27270, Note_off_c, 0, 74, 65
1, 27273, Note_off_c, 0, 59, 62
1, 27277, Control_c, 0, 64, 21
1, 27278, Note_off_c, 0, 77, 36
1, 27292, Control_c, 0, 64, 34
1, 27306, Control_c, 0, 64, 43
1, 27321, Control_c, 0, 64, 45
1, 27345, Note_on_c, 0, 52, 62
1, 27349, Note_on_c, 0, 76, 62
1, 27357, Note_on_c, 0, 57, 65
1, 27394, Note_on_c, 0, 81, 62
1, 27402, Note_on_c, 0, 88, 76
1, 27408, Note_on_c, 0, 64, 69
1, 27414, Note_off_c, 0, 57, 52
1, 27417, Note_off_c, 0, 76, 59
1, 27435, Note_off_c, 0, 81, 58
1, 27438, Note_off_c, 0, 64, 60
1, 27447, Control_c, 0, 64, 45
1, 27452, Note_off_c, 0, 52, 46
1, 27466, Note_off_c, 0, 88, 57
1, 27528, Note_on_c, 0, 84, 66
1, 27600, Note_on_c, 0, 81, 59
1, 27622, Note_on_c, 0, 57, 61
1, 27637, Note_off_c, 0, 84, 36
1, 27652, Note_off_c, 0, 57, 66
1, 27665, Note_off_c, 0, 81, 58
1, 27680, Note_on_c, 0, 76, 67
1, 27710, Note_off_c, 0, 76, 64
1, 27719, Note_on_c, 0, 57, 68
1, 27789, Note_off_c, 0, 57, 59
1, 27791, Note_on_c, 0, 60, 62
1, 27798, Note_on_c, 0, 72, 52
1, 27802, Note_on_c, 0, 74, 45
1, 27830, Note_off_c, 0, 74, 60
1, 27870, Note_on_c, 0, 69, 61
1, 27870, Note_off_c, 0, 60, 57
1, 27873, Note_on_c, 0, 59, 64
1, 27911, Note_off_c, 0, 72, 43
1, 27932, Note_off_c, 0, 69, 53
1, 27944, Note_on_c, 0, 57, 56
1, 27961, Note_off_c, 0, 59, 52
1, 28040, Note_on_c, 0, 53, 59
1, 28062, Note_off_c, 0, 57, 35
1, 28151, Note_on_c, 0, 71, 57
1, 28156, Note_on_c, 0, 63, 58
1, 28260, Note_on_c, 0, 75, 59
1, 28263, Note_off_c, 0, 63, 51
1, 28266, Note_on_c, 0, 69, 43
1, 28270, Note_off_c, 0, 71, 56
1, 28272, Note_on_c, 0, 59, 68
1, 28276, Note_off_c, 0, 53, 57
1, 28290, Note_off_c, 0, 69, 52
1, 28291, Note_off_c, 0, 75, 63
1, 28388, Note_on_c, 0, 52, 70
1, 28419, Control_c, 0, 64, 41
1, 28423, Note_off_c, 0, 59, 54
1, 28434, Control_c, 0, 64, 27
1, 28448, Note_on_c, 0, 68, 59
1, 28448, Control_c, 0, 64, 0
1, 28464, Note_on_c, 0, 76, 61
1, 28469, Note_off_c, 0, 52, 59
1, 28470, Note_on_c, 0, 64, 69
1, 28535, Note_off_c, 0, 68, 56
1, 28561, Note_off_c, 0, 64, 60
1, 28562, Note_on_c, 0, 62, 70
1, 28564, Note_on_c, 0, 71, 60
1, 28571, Note_on_c, 0, 80, 66
1, 28588, Note_off_c, 0, 76, 59
1, 28594, Note_off_c, 0, 71, 64
1, 28613, Note_off_c, 0, 80, 59
1, 28645, Note_off_c, 0, 62, 58
1, 28649, Note_on_c, 0, 59, 64
1, 28741, Note_off_c, 0, 59, 57
1, 28744, Note_on_c, 0, 57, 64
1, 28805, Control_c, 0, 64, 31
1, 28820, Control_c, 0, 64, 48
1, 28835, Control_c, 0, 64, 56
1, 28850, Control_c, 0, 64, 59
1, 28863, Note_on_c, 0, 72, 52
1, 28864, Control_c, 0, 64, 61
1, 28869, Note_on_c, 0, 81, 55
1, 28879, Control_c, 0, 64, 63
1, 28901, Control_c, 0, 64, 64
1, 28916, Control_c, 0, 64, 66
1, 28931, Control_c, 0, 64, 68
1, 28946, Control_c, 0, 64, 70
1, 28961, Control_c, 0, 64, 73
1, 28976, Control_c, 0, 64, 76
1, 28977, Note_off_c, 0, 72, 55
1, 28988, Note_off_c, 0, 57, 38
1, 28991, Control_c, 0, 64, 79
1, 28993, Note_on_c, 0, 84, 66
1, 28996, Note_on_c, 0, 76, 56
1, 29005, Control_c, 0, 64, 81
1, 29014, Note_off_c, 0, 81, 55
1, 29016, Note_off_c, 0, 76, 62
1, 29020, Control_c, 0, 64, 82
1, 29032, Note_off_c, 0, 84, 59
1, 29050, Control_c, 0, 64, 82
1, 29183, Control_c, 0, 64, 83
1, 29204, Note_on_c, 0, 72, 60
1, 29206, Note_on_c, 0, 93, 73
1, 29209, Note_on_c, 0, 81, 60
1, 29213, Note_on_c, 0, 64, 57
1, 29227, Control_c, 0, 64, 79
1, 29241, Note_off_c, 0, 72, 59
1, 29241, Control_c, 0, 64, 67
1, 29244, Note_off_c, 0, 81, 61
1, 29256, Control_c, 0, 64, 54
1, 29261, Note_off_c, 0, 93, 60
1, 29263, Note_off_c, 0, 64, 56
1, 29271, Control_c, 0, 64, 30
1, 29286, Control_c, 0, 64, 0
1, 29843, Control_c, 0, 64, 18
1, 29858, Control_c, 0, 64, 19
1, 29872, Control_c, 0, 64, 20
1, 29887, Control_c, 0, 64, 20
1, 29934, Note_on_c, 0, 45, 49
1, 29946, Control_c, 0, 64, 21
1, 29960, Note_on_c, 0, 41, 41
1, 30006, Control_c, 0, 64, 21
1, 30012, Note_off_c, 0, 45, 57
1, 30028, Note_on_c, 0, 44, 53
1, 30083, Note_off_c, 0, 44, 58
1, 30105, Note_on_c, 0, 45, 42
1, 30125, Control_c, 0, 64, 22
1, 30182, Note_off_c, 0, 45, 58
1, 30192, Note_on_c, 0, 44, 59
1, 30199, Control_c, 0, 64, 22
1, 30208, Note_off_c, 0, 41, 53
1, 30226, Note_off_c, 0, 44, 61
1, 30253, Note_on_c, 0, 46, 57
1, 30258, Control_c, 0, 64, 23
1, 30294, Note_on_c, 0, 45, 64
1, 30296, Note_off_c, 0, 46, 61
1, 30365, Note_off_c, 0, 45, 59
1, 30365, Note_on_c, 0, 47, 61
1, 30446, Note_on_c, 0, 48, 69
1, 30519, Note_off_c, 0, 47, 44
1, 30534, Note_on_c, 0, 50, 81
1, 30541, Note_off_c, 0, 48, 64
1, 30584, Note_off_c, 0, 50, 63
1, 30601, Note_on_c, 0, 44, 70
1, 30625, Note_on_c, 0, 40, 67
1, 30630, Note_on_c, 0, 52, 66
1, 30642, Note_off_c, 0, 44, 59
1, 30667, Note_on_c, 0, 50, 15
1, 30702, Note_off_c, 0, 50, 44
1, 30711, Note_on_c, 0, 51, 79
1, 30718, Note_off_c, 0, 52, 61
1, 30779, Note_off_c, 0, 51, 59
1, 30784, Note_on_c, 0, 52, 66
1, 30842, Note_on_c, 0, 51, 81
1, 30860, Note_off_c, 0, 52, 61
1, 30896, Note_off_c, 0, 40, 61
1, 30896, Note_off_c, 0, 51, 60
1, 30916, Note_on_c, 0, 53, 86
1, 30947, Note_on_c, 0, 52, 73
1, 31000, Note_off_c, 0, 53, 59
1, 31015, Note_on_c, 0, 50, 74
1, 31021, Note_off_c, 0, 52, 59
1, 31090, Note_off_c, 0, 50, 60
1, 31092, Note_on_c, 0, 48, 63
1, 31182, Note_on_c, 0, 47, 69
1, 31198, Note_off_c, 0, 48, 56
1, 31223, Note_off_c, 0, 47, 60
1, 31250, Note_on_c, 0, 45, 67
1, 31265, Note_on_c, 0, 41, 58
1, 31320, Note_off_c, 0, 45, 57
1, 31338, Note_on_c, 0, 44, 62
1, 31382, Note_off_c, 0, 44, 63
1, 31420, Note_on_c, 0, 45, 53
1, 31470, Note_off_c, 0, 45, 57
1, 31480, Note_on_c, 0, 44, 63
1, 31482, Note_off_c, 0, 41, 59
1, 31512, Note_off_c, 0, 44, 63
1, 31539, Note_on_c, 0, 46, 60
1, 31568, Note_on_c, 0, 45, 71
1, 31570, Note_off_c, 0, 46, 63
1, 31643, Note_off_c, 0, 45, 56
1, 31644, Note_on_c, 0, 47, 62
1, 31725, Note_on_c, 0, 48, 61
1, 31800, Note_off_c, 0, 47, 38
1, 31807, Note_off_c, 0, 48, 63
1, 31808, Note_on_c, 0, 50, 71
1, 31840, Note_off_c, 0, 50, 66
1, 31890, Note_on_c, 0, 52, 76
1, 31892, Note_on_c, 0, 44, 46
1, 31898, Note_on_c, 0, 40, 63
1, 31922, Note_off_c, 0, 44, 55
1, 31966, Note_on_c, 0, 51, 75
1, 31969, Note_off_c, 0, 52, 62
1, 32028, Note_off_c, 0, 51, 59
1, 32040, Note_on_c, 0, 52, 70
1, 32103, Note_on_c, 0, 51, 82
1, 32120, Note_off_c, 0, 52, 60
1, 32151, Note_off_c, 0, 40, 61
1, 32162, Note_off_c, 0, 51, 60
1, 32181, Note_on_c, 0, 53, 92
1, 32199, Note_on_c, 0, 52, 89
1, 32231, Note_off_c, 0, 53, 61
1, 32241, Note_off_c, 0, 52, 61
1, 32518, Note_on_c, 0, 57, 58
1, 32528, Note_on_c, 0, 53, 57
1, 32580, Note_off_c, 0, 57, 59
1, 32601, Note_on_c, 0, 56, 62
1, 32657, Note_off_c, 0, 56, 56
1, 32689, Note_on_c, 0, 57, 47
1, 32740, Note_off_c, 0, 57, 58
1, 32764, Note_on_c, 0, 56, 57
1, 32768, Note_off_c, 0, 53, 55
1, 32793, Note_off_c, 0, 56, 62
1, 32818, Note_on_c, 0, 58, 61
1, 32848, Note_on_c, 0, 57, 65
1, 32850, Note_off_c, 0, 58, 63
1, 32908, Note_off_c, 0, 57, 60
1, 32914, Note_on_c, 0, 59, 62
1, 32975, Note_on_c, 0, 60, 68
1, 33023, Note_off_c, 0, 59, 57
1, 33070, Note_on_c, 0, 62, 79
1, 33071, Note_off_c, 0, 60, 60
1, 33106, Note_off_c, 0, 62, 65
1, 33135, Note_on_c, 0, 56, 67
1, 33138, Note_on_c, 0, 64, 82
1, 33151, Note_on_c, 0, 52, 70
1, 33181, Note_off_c, 0, 56, 60
1, 33219, Note_on_c, 0, 63, 81
1, 33229, Note_off_c, 0, 64, 61
1, 33286, Note_off_c, 0, 63, 59
1, 33295, Note_on_c, 0, 64, 67
1, 33360, Note_on_c, 0, 63, 85
1, 33377, Note_off_c, 0, 64, 61
1, 33417, Note_off_c, 0, 63, 63
1, 33424, Note_off_c, 0, 52, 60
1, 33450, Note_on_c, 0, 65, 73
1, 33471, Note_on_c, 0, 64, 64
1, 33522, Note_off_c, 0, 65, 61
1, 33540, Note_on_c, 0, 62, 77
1, 33546, Note_off_c, 0, 64, 58
1, 33617, Note_on_c, 0, 60, 67
1, 33617, Note_off_c, 0, 62, 59
1, 33685, Note_on_c, 0, 59, 77
1, 33707, Note_off_c, 0, 60, 54
1, 33731, Note_off_c, 0, 59, 59
1, 33757, Note_on_c, 0, 57, 71
1, 33757, Note_on_c, 0, 53, 71
1, 33837, Note_off_c, 0, 57, 59
1, 33847, Note_on_c, 0, 56, 70
1, 33906, Note_off_c, 0, 56, 61
1, 33918, Note_on_c, 0, 57, 59
1, 33995, Note_on_c, 0, 56, 75
1, 34001, Note_off_c, 0, 57, 62
1, 34012, Note_off_c, 0, 53, 54
1, 34046, Note_off_c, 0, 56, 57
1, 34052, Note_on_c, 0, 58, 71
1, 34089, Note_off_c, 0, 58, 62
1, 34091, Note_on_c, 0, 57, 70
1, 34133, Note_off_c, 0, 57, 65
1, 34157, Note_on_c, 0, 59, 76
1, 34230, Note_on_c, 0, 60, 72
1, 34287, Note_off_c, 0, 59, 56
1, 34312, Note_on_c, 0, 62, 76
1, 34320, Note_off_c, 0, 60, 61
1, 34339, Note_off_c, 0, 62, 64
1, 34371, Note_on_c, 0, 56, 72
1, 34374, Note_on_c, 0, 64, 82
1, 34380, Note_on_c, 0, 52, 73
1, 34420, Note_off_c, 0, 56, 57
1, 34458, Note_on_c, 0, 63, 84
1, 34465, Note_off_c, 0, 64, 63
1, 34519, Note_off_c, 0, 63, 61
1, 34534, Note_on_c, 0, 64, 70
1, 34593, Note_on_c, 0, 63, 83
1, 34610, Note_off_c, 0, 64, 61
1, 34625, Note_off_c, 0, 52, 58
1, 34649, Note_off_c, 0, 63, 62
1, 34668, Note_on_c, 0, 65, 93
1, 34684, Note_on_c, 0, 64, 90
1, 34719, Note_off_c, 0, 65, 63
1, 34734, Note_off_c, 0, 64, 64
1, 34982, Note_on_c, 0, 69, 84
1, 34992, Note_on_c, 0, 64, 75
1, 34997, Note_on_c, 0, 61, 70
1, 35072, Note_off_c, 0, 69, 59
1, 35074, Note_on_c, 0, 68, 84
1, 35100, Control_c, 0, 64, 23
1, 35102, Note_off_c, 0, 64, 49
1, 35146, Note_off_c, 0, 68, 60
1, 35150, Note_on_c, 0, 69, 73
1, 35222, Note_on_c, 0, 68, 87
1, 35240, Note_off_c, 0, 69, 64
1, 35262, Control_c, 0, 64, 24
1, 35268, Note_off_c, 0, 68, 62
1, 35280, Note_off_c, 0, 61, 60
1, 35288, Note_on_c, 0, 70, 79
1, 35327, Note_on_c, 0, 69, 79
1, 35382, Note_off_c, 0, 70, 60
1, 35390, Note_on_c, 0, 67, 78
1, 35401, Note_off_c, 0, 69, 63
1, 35425, Control_c, 0, 64, 24
1, 35461, Note_on_c, 0, 65, 68
1, 35462, Note_off_c, 0, 67, 62
1, 35537, Note_on_c, 0, 64, 70
1, 35559, Note_off_c, 0, 65, 50
1, 35590, Note_off_c, 0, 64, 55
1, 35609, Note_on_c, 0, 62, 74
1, 35610, Note_on_c, 0, 57, 59
1, 35620, Note_on_c, 0, 53, 56
1, 35693, Note_on_c, 0, 61, 69
1, 35694, Note_off_c, 0, 62, 60
1, 35699, Note_off_c, 0, 57, 52
1, 35759, Note_off_c, 0, 61, 60
1, 35780, Note_on_c, 0, 62, 62
1, 35842, Note_on_c, 0, 61, 66
1, 35846, Note_off_c, 0, 62, 58
1, 35893, Note_off_c, 0, 53, 58
1, 35896, Note_off_c, 0, 61, 55
1, 35919, Note_on_c, 0, 63, 69
1, 35960, Note_off_c, 0, 63, 62
1, 35970, Note_on_c, 0, 62, 61
1, 36032, Note_on_c, 0, 64, 65
1, 36036, Note_off_c, 0, 62, 51
1, 36094, Note_on_c, 0, 65, 56
1, 36160, Note_off_c, 0, 64, 34
1, 36166, Note_on_c, 0, 62, 65
1, 36181, Note_off_c, 0, 65, 62
1, 36195, Note_off_c, 0, 62, 63
1, 36243, Note_on_c, 0, 62, 52
1, 36249, Note_on_c, 0, 67, 66
1, 36253, Note_on_c, 0, 59, 51
1, 36318, Note_off_c, 0, 67, 51
1, 36321, Control_c, 0, 64, 25
1, 36329, Note_on_c, 0, 66, 71
1, 36382, Note_off_c, 0, 62, 35
1, 36398, Note_off_c, 0, 66, 62
1, 36431, Note_on_c, 0, 67, 55
1, 36485, Note_on_c, 0, 66, 68
1, 36490, Note_off_c, 0, 67, 60
1, 36520, Note_off_c, 0, 66, 62
1, 36533, Note_off_c, 0, 59, 53
1, 36562, Note_on_c, 0, 68, 65
1, 36601, Note_on_c, 0, 67, 65
1, 36630, Note_off_c, 0, 68, 59
1, 36658, Note_on_c, 0, 65, 64
1, 36661, Note_off_c, 0, 67, 60
1, 36685, Control_c, 0, 64, 25
1, 36724, Note_off_c, 0, 65, 59
1, 36732, Note_on_c, 0, 64, 54
1, 36807, Note_on_c, 0, 62, 65
1, 36827, Note_off_c, 0, 64, 45
1, 36849, Note_off_c, 0, 62, 54
1, 36867, Note_on_c, 0, 60, 60
1, 36881, Note_on_c, 0, 52, 47
1, 36881, Note_on_c, 0, 55, 50
1, 36948, Note_off_c, 0, 60, 55
1, 36953, Note_on_c, 0, 59, 65
1, 37019, Note_off_c, 0, 59, 58
1, 37036, Note_on_c, 0, 60, 55
1, 37039, Note_off_c, 0, 55, 35
1, 37110, Note_on_c, 0, 59, 64
1, 37116, Note_off_c, 0, 60, 53
1, 37176, Note_off_c, 0, 59, 58
1, 37182, Note_on_c, 0, 61, 54
1, 37189, Note_off_c, 0, 52, 55
1, 37214, Note_off_c, 0, 61, 64
1, 37233, Note_on_c, 0, 60, 57
1, 37281, Note_on_c, 0, 62, 67
1, 37286, Note_off_c, 0, 60, 51
1, 37349, Note_off_c, 0, 62, 57
1, 37349, Note_on_c, 0, 64, 57
1, 37429, Note_on_c, 0, 60, 53
1, 37438, Note_off_c, 0, 64, 57
1, 37497, Note_on_c, 0, 65, 65
1, 37499, Note_off_c, 0, 60, 49
1, 37508, Control_c, 0, 64, 26
1, 37516, Note_on_c, 0, 50, 52
1, 37523, Note_on_c, 0, 56, 58
1, 37523, Control_c, 0, 64, 37
1, 37538, Control_c, 0, 64, 51
1, 37552, Control_c, 0, 64, 58
1, 37567, Control_c, 0, 64, 61
1, 37574, Note_on_c, 0, 64, 64
1, 37579, Note_off_c, 0, 65, 56
1, 37582, Control_c, 0, 64, 64
1, 37597, Control_c, 0, 64, 66
1, 37611, Control_c, 0, 64, 67
1, 37626, Control_c, 0, 64, 69
1, 37641, Control_c, 0, 64, 72
1, 37642, Note_off_c, 0, 64, 59
1, 37656, Control_c, 0, 64, 76
1, 37658, Note_on_c, 0, 65, 55
1, 37671, Control_c, 0, 64, 79
1, 37686, Control_c, 0, 64, 82
1, 37701, Control_c, 0, 64, 84
1, 37716, Control_c, 0, 64, 85
1, 37727, Note_on_c, 0, 64, 56
1, 37731, Control_c, 0, 64, 86
1, 37737, Note_off_c, 0, 65, 59
1, 37746, Control_c, 0, 64, 87
1, 37759, Note_off_c, 0, 64, 63
1, 37760, Control_c, 0, 64, 87
1, 37775, Control_c, 0, 64, 88
1, 37788, Note_off_c, 0, 56, 58
1, 37790, Control_c, 0, 64, 88
1, 37807, Note_off_c, 0, 50, 54
1, 37811, Note_on_c, 0, 67, 84
1, 37819, Control_c, 0, 64, 85
1, 37834, Control_c, 0, 64, 73
1, 37844, Note_on_c, 0, 65, 77
1, 37849, Control_c, 0, 64, 61
1, 37864, Control_c, 0, 64, 40
1, 37886, Control_c, 0, 64, 0
1, 37890, Note_off_c, 0, 67, 58
1, 37929, Note_on_c, 0, 62, 69
1, 37933, Note_off_c, 0, 65, 62
1, 37967, Note_on_c, 0, 60, 67
1, 37969, Note_off_c, 0, 62, 58
1, 38034, Control_c, 0, 64, 18
1, 38044, Note_off_c, 0, 60, 58
1, 38047, Note_on_c, 0, 59, 66
1, 38049, Control_c, 0, 64, 23
1, 38064, Control_c, 0, 64, 29
1, 38078, Control_c, 0, 64, 32
1, 38093, Control_c, 0, 64, 35
1, 38109, Control_c, 0, 64, 37
1, 38115, Note_off_c, 0, 59, 57
1, 38124, Control_c, 0, 64, 39
1, 38133, Note_on_c, 0, 64, 62
1, 38139, Control_c, 0, 64, 41
1, 38140, Note_on_c, 0, 57, 63
1, 38144, Note_on_c, 0, 48, 56
1, 38154, Control_c, 0, 64, 42
1, 38169, Control_c, 0, 64, 43
1, 38198, Control_c, 0, 64, 43
1, 38205, Note_off_c, 0, 64, 60
1, 38212, Note_on_c, 0, 63, 66
1, 38242, Control_c, 0, 64, 44
1, 38272, Control_c, 0, 64, 44
1, 38273, Note_off_c, 0, 63, 56
1, 38287, Control_c, 0, 64, 45
1, 38291, Note_on_c, 0, 64, 53
1, 38331, Control_c, 0, 64, 45
1, 38358, Note_on_c, 0, 63, 63
1, 38369, Note_off_c, 0, 64, 59
1, 38431, Note_off_c, 0, 63, 60
1, 38434, Note_on_c, 0, 65, 72
1, 38449, Control_c, 0, 64, 46
1, 38468, Note_off_c, 0, 48, 61
1, 38480, Note_on_c, 0, 64, 71
1, 38481, Note_off_c, 0, 57, 57
1, 38509, Note_off_c, 0, 65, 57
1, 38544, Note_on_c, 0, 60, 59
1, 38553, Note_off_c, 0, 64, 60
1, 38583, Control_c, 0, 64, 46
1, 38594, Note_off_c, 0, 60, 58
1, 38600, Note_on_c, 0, 59, 61
1, 38690, Note_on_c, 0, 57, 64
1, 38721, Note_off_c, 0, 59, 38
1, 38742, Note_off_c, 0, 57, 55
1, 38758, Note_on_c, 0, 53, 61
1, 38774, Note_on_c, 0, 50, 46
1, 38777, Note_on_c, 0, 58, 63
1, 38798, Control_c, 0, 64, 47
1, 38837, Note_off_c, 0, 53, 49
1, 38858, Note_on_c, 0, 57, 69
1, 38866, Note_off_c, 0, 58, 60
1, 38887, Control_c, 0, 64, 47
1, 38902, Control_c, 0, 64, 48
1, 38917, Control_c, 0, 64, 49
1, 38931, Note_off_c, 0, 57, 61
1, 38932, Control_c, 0, 64, 49
1, 38947, Note_on_c, 0, 58, 69
1, 38947, Control_c, 0, 64, 50
1, 38962, Control_c, 0, 64, 51
1, 38976, Control_c, 0, 64, 51
1, 38987, Note_on_c, 0, 57, 72
1, 38991, Control_c, 0, 64, 52
1, 39006, Control_c, 0, 64, 52
1, 39019, Note_off_c, 0, 58, 60
1, 39039, Note_off_c, 0, 57, 64
1, 39053, Note_on_c, 0, 60, 64
1, 39057, Note_off_c, 0, 50, 38
1, 39105, Note_on_c, 0, 52, 71
1, 39109, Note_on_c, 0, 56, 81
1, 39132, Note_on_c, 0, 59, 72
1, 39154, Note_off_c, 0, 60, 55
1, 39159, Note_off_c, 0, 56, 58
1, 39164, Note_off_c, 0, 52, 58
1, 39202, Note_off_c, 0, 59, 58
1, 39207, Note_on_c, 0, 65, 59
1, 39213, Control_c, 0, 64, 52
1, 39287, Control_c, 0, 64, 51
1, 39299, Note_on_c, 0, 64, 61
1, 39302, Control_c, 0, 64, 51
1, 39307, Note_off_c, 0, 65, 59
1, 39331, Note_off_c, 0, 64, 61
1, 39331, Control_c, 0, 64, 50
1, 39361, Control_c, 0, 64, 50
1, 39364, Note_on_c, 0, 56, 55
1, 39447, Note_off_c, 0, 56, 59
1, 39455, Note_on_c, 0, 57, 67
1, 39541, Note_off_c, 0, 57, 57
1, 39578, Note_on_c, 0, 56, 58
1, 39606, Control_c, 0, 64, 49
1, 39624, Note_on_c, 0, 50, 48
1, 39624, Note_off_c, 0, 56, 57
1, 39650, Note_on_c, 0, 57, 65
1, 39651, Note_on_c, 0, 53, 38
1, 39688, Note_off_c, 0, 53, 60
1, 39689, Note_off_c, 0, 50, 53
1, 39713, Note_off_c, 0, 57, 52
1, 39749, Note_on_c, 0, 56, 58
1, 39815, Note_on_c, 0, 48, 60
1, 39815, Note_off_c, 0, 56, 55
1, 39819, Note_on_c, 0, 52, 59
1, 39823, Note_on_c, 0, 57, 71
1, 39848, Note_off_c, 0, 48, 65
1, 39851, Note_off_c, 0, 57, 65
1, 39860, Note_off_c, 0, 52, 62
1, 40199, Note_on_c, 0, 45, 46
1, 40280, Note_off_c, 0, 45, 58
1, 40294, Note_on_c, 0, 44, 48
1, 40331, Note_off_c, 0, 44, 60
1, 40375, Note_on_c, 0, 45, 48
1, 40425, Note_off_c, 0, 45, 55
1, 40426, Note_on_c, 0, 44, 60
1, 40474, Note_on_c, 0, 46, 68
1, 40507, Note_on_c, 0, 52, 62
1, 40509, Note_on_c, 0, 55, 44
1, 40509, Note_on_c, 0, 61, 60
1, 40512, Note_off_c, 0, 44, 61
1, 40539, Note_off_c, 0, 46, 60
1, 40543, Note_on_c, 0, 45, 78
1, 40618, Note_off_c, 0, 45, 59
1, 40625, Note_on_c, 0, 43, 73
1, 40676, Note_off_c, 0, 43, 60
1, 40727, Note_off_c, 0, 55, 47
1, 40731, Note_on_c, 0, 41, 64
1, 40791, Note_off_c, 0, 41, 59
1, 40813, Note_on_c, 0, 40, 46
1, 40833, Note_off_c, 0, 52, 41
1, 40844, Control_c, 0, 64, 50
1, 40860, Note_off_c, 0, 40, 46
1, 40879, Note_on_c, 0, 38, 68
1, 40884, Note_off_c, 0, 61, 55
1, 40930, Note_off_c, 0, 38, 56
1, 40978, Note_on_c, 0, 37, 62
1, 41033, Note_off_c, 0, 37, 57
1, 41049, Note_on_c, 0, 38, 61
1, 41097, Note_off_c, 0, 38, 61
1, 41124, Note_on_c, 0, 37, 64
1, 41197, Note_on_c, 0, 39, 71
1, 41211, Note_off_c, 0, 37, 60
1, 41214, Note_on_c, 0, 65, 64
1, 41221, Note_on_c, 0, 53, 48
1, 41230, Note_on_c, 0, 38, 54
1, 41254, Note_off_c, 0, 39, 62
1, 41260, Note_on_c, 0, 57, 16
1, 41281, Control_c, 0, 64, 49
1, 41293, Note_on_c, 0, 40, 60
1, 41294, Note_off_c, 0, 38, 60
1, 41338, Note_on_c, 0, 41, 46
1, 41341, Note_off_c, 0, 40, 58
1, 41414, Note_off_c, 0, 41, 59
1, 41424, Note_on_c, 0, 38, 62
1, 41469, Note_off_c, 0, 38, 63
1, 41513, Note_on_c, 0, 43, 57
1, 41518, Note_off_c, 0, 65, 52
1, 41556, Note_off_c, 0, 57, 53
1, 41585, Note_off_c, 0, 53, 43
1, 41597, Note_off_c, 0, 43, 61
1, 41606, Note_on_c, 0, 42, 55
1, 41660, Note_off_c, 0, 42, 60
1, 41686, Note_on_c, 0, 43, 50
1, 41752, Note_on_c, 0, 42, 58
1, 41794, Note_off_c, 0, 43, 32
1, 41817, Note_on_c, 0, 44, 69
1, 41847, Note_off_c, 0, 42, 62
1, 41862, Note_on_c, 0, 50, 63
1, 41865, Note_on_c, 0, 56, 45
1, 41868, Note_on_c, 0, 59, 60
1, 41868, Note_off_c, 0, 44, 57
1, 41892, Note_on_c, 0, 43, 71
1, 41953, Note_off_c, 0, 43, 57
1, 41969, Note_on_c, 0, 41, 67
1, 42019, Note_off_c, 0, 41, 60
1, 42068, Note_on_c, 0, 40, 66
1, 42120, Control_c, 0, 64, 50
1, 42127, Note_off_c, 0, 40, 55
1, 42157, Note_on_c, 0, 38, 60
1, 42181, Note_off_c, 0, 50, 35
1, 42208, Note_off_c, 0, 38, 62
1, 42212, Note_off_c, 0, 56, 57
1, 42217, Note_off_c, 0, 59, 57
1, 42226, Note_on_c, 0, 36, 61
1, 42285, Note_off_c, 0, 36, 54
1, 42318, Note_on_c, 0, 35, 56
1, 42384, Note_off_c, 0, 35, 57
1, 42402, Note_on_c, 0, 36, 62
1, 42482, Note_off_c, 0, 36, 43
1, 42490, Note_on_c, 0, 35, 61
1, 42548, Note_on_c, 0, 37, 64
1, 42553, Note_on_c, 0, 52, 52
1, 42561, Note_on_c, 0, 64, 59
1, 42567, Note_on_c, 0, 55, 43
1, 42596, Note_on_c, 0, 36, 60
1, 42606, Note_off_c, 0, 37, 58
1, 42636, Note_on_c, 0, 38, 52
1, 42640, Note_off_c, 0, 35, 33
1, 42679, Note_off_c, 0, 36, 57
1, 42701, Note_on_c, 0, 40, 58
1, 42703, Note_off_c, 0, 38, 54
1, 42798, Note_off_c, 0, 40, 58
1, 42814, Note_on_c, 0, 36, 63
1, 42867, Note_off_c, 0, 36, 58
1, 42876, Note_off_c, 0, 64, 47
1, 42906, Note_on_c, 0, 41, 57
1, 42930, Note_off_c, 0, 55, 47
1, 42950, Note_off_c, 0, 52, 47
1, 42978, Note_off_c, 0, 41, 57
1, 42995, Note_on_c, 0, 40, 58
1, 43037, Note_off_c, 0, 40, 62
1, 43079, Note_on_c, 0, 41, 59
1, 43135, Note_off_c, 0, 41, 60
1, 43144, Note_on_c, 0, 40, 63
1, 43198, Note_off_c, 0, 40, 58
1, 43231, Note_on_c, 0, 43, 58
1, 43235, Note_on_c, 0, 50, 53
1, 43238, Note_on_c, 0, 56, 49
1, 43240, Note_on_c, 0, 59, 56
1, 43273, Note_off_c, 0, 43, 63
1, 43281, Note_on_c, 0, 41, 58
1, 43322, Note_on_c, 0, 38, 57
1, 43326, Note_off_c, 0, 41, 62
1, 43368, Note_off_c, 0, 50, 35
1, 43396, Note_on_c, 0, 36, 52
1, 43429, Note_off_c, 0, 56, 55
1, 43445, Note_off_c, 0, 59, 55
1, 43457, Note_off_c, 0, 38, 30
1, 43489, Note_on_c, 0, 35, 52
1, 43496, Note_off_c, 0, 36, 42
1, 43547, Note_off_c, 0, 35, 56
1, 43556, Note_on_c, 0, 40, 57
1, 43624, Note_off_c, 0, 40, 58
1, 43638, Note_on_c, 0, 39, 61
1, 43698, Note_off_c, 0, 39, 59
1, 43718, Note_on_c, 0, 40, 55
1, 43773, Note_off_c, 0, 40, 60
1, 43796, Note_on_c, 0, 39, 56
1, 43847, Note_off_c, 0, 39, 59
1, 43880, Note_on_c, 0, 64, 52
1, 43882, Note_on_c, 0, 41, 56
1, 43883, Note_on_c, 0, 57, 40
1, 43892, Note_on_c, 0, 52, 43
1, 43929, Note_off_c, 0, 41, 62
1, 43933, Note_on_c, 0, 40, 59
1, 43999, Note_on_c, 0, 36, 56
1, 44000, Note_off_c, 0, 40, 54
1, 44045, Note_off_c, 0, 57, 45
1, 44066, Note_off_c, 0, 52, 51
1, 44071, Note_on_c, 0, 35, 51
1, 44074, Note_off_c, 0, 64, 48
1, 44090, Note_off_c, 0, 36, 43
1, 44158, Control_c, 0, 64, 49
1, 44176, Note_on_c, 0, 33, 57
1, 44242, Note_on_c, 0, 57, 39
1, 44250, Note_off_c, 0, 35, 0
1, 44259, Note_on_c, 0, 53, 57
1, 44259, Note_on_c, 0, 62, 66
1, 44265, Note_on_c, 0, 35, 39
1, 44294, Note_off_c, 0, 57, 60
1, 44299, Note_off_c, 0, 33, 34
1, 44384, Note_on_c, 0, 34, 70
1, 44396, Note_off_c, 0, 35, 55
1, 44489, Note_on_c, 0, 63, 79
1, 44497, Note_on_c, 0, 35, 77
1, 44503, Note_off_c, 0, 34, 62
1, 44530, Note_off_c, 0, 62, 57
1, 44575, Control_c, 0, 64, 50
1, 44589, Control_c, 0, 64, 50
1, 44599, Note_off_c, 0, 53, 36
1, 44604, Control_c, 0, 64, 53
1, 44618, Note_on_c, 0, 34, 76
1, 44626, Control_c, 0, 64, 55
1, 44636, Note_off_c, 0, 35, 58
1, 44641, Control_c, 0, 64, 56
1, 44656, Control_c, 0, 64, 56
1, 44667, Note_on_c, 0, 32, 15
1, 44685, Control_c, 0, 64, 56
1, 44715, Control_c, 0, 64, 55
1, 44730, Control_c, 0, 64, 54
1, 44733, Note_off_c, 0, 32, 40
1, 44745, Control_c, 0, 64, 53
1, 44760, Control_c, 0, 64, 53
1, 44767, Note_on_c, 0, 52, 62
1, 44769, Note_on_c, 0, 56, 58
1, 44771, Note_on_c, 0, 64, 72
1, 44775, Note_on_c, 0, 36, 71
1, 44775, Control_c, 0, 64, 51
1, 44785, Note_off_c, 0, 34, 61
1, 44789, Control_c, 0, 64, 48
1, 44804, Control_c, 0, 64, 42
1, 44816, Note_off_c, 0, 63, 37
1, 44819, Control_c, 0, 64, 29
1, 44834, Control_c, 0, 64, 0
1, 44989, Note_off_c, 0, 36, 60
1, 44990, Note_on_c, 0, 35, 68
1, 45229, Note_off_c, 0, 35, 59
1, 45234, Note_on_c, 0, 41, 68
1, 45449, Control_c, 0, 64, 28
1, 45464, Control_c, 0, 64, 42
1, 45479, Control_c, 0, 64, 50
1, 45493, Control_c, 0, 64, 53
1, 45508, Control_c, 0, 64, 54
1, 45523, Control_c, 0, 64, 55
1, 45538, Control_c, 0, 64, 55
1, 45567, Control_c, 0, 64, 56
1, 45582, Control_c, 0, 64, 56
1, 45612, Control_c, 0, 64, 57
1, 45774, Control_c, 0, 64, 56
1, 45789, Control_c, 0, 64, 55
1, 45804, Control_c, 0, 64, 54
1, 45818, Control_c, 0, 64, 53
1, 45833, Control_c, 0, 64, 51
1, 45848, Control_c, 0, 64, 49
1, 45863, Control_c, 0, 64, 48
1, 45985, Note_off_c, 0, 41, 57
1, 45986, Note_on_c, 0, 40, 65
1, 46056, Control_c, 0, 67, 30
1, 46070, Control_c, 0, 67, 63
1, 46086, Control_c, 0, 67, 107
1, 46101, Control_c, 0, 67, 127
1, 46113, Note_off_c, 0, 40, 61
1, 46138, Control_c, 0, 64, 48
1, 46153, Control_c, 0, 64, 49
1, 46182, Control_c, 0, 64, 49
1, 46197, Control_c, 0, 64, 50
1, 46212, Control_c, 0, 64, 50
1, 46227, Control_c, 0, 64, 51
1, 46232, Note_off_c, 0, 56, 55
1, 46239, Note_off_c, 0, 64, 57
1, 46241, Note_on_c, 0, 33, 62
1, 46268, Note_off_c, 0, 52, 52
1, 46286, Control_c, 0, 64, 51
1, 46295, Note_off_c, 0, 33, 58
1, 46301, Control_c, 0, 64, 50
1, 46314, Note_on_c, 0, 32, 58
1, 46316, Control_c, 0, 64, 48
1, 46331, Control_c, 0, 64, 46
1, 46345, Control_c, 0, 64, 49
1, 46360, Control_c, 0, 64, 47
1, 46365, Note_off_c, 0, 32, 58
1, 46375, Control_c, 0, 64, 47
1, 46396, Note_on_c, 0, 33, 58
1, 46470, Note_on_c, 0, 32, 44
1, 46515, Note_on_c, 0, 34, 68
1, 46521, Note_off_c, 0, 33, 33
1, 46524, Note_on_c, 0, 62, 68
1, 46525, Note_on_c, 0, 53, 68
1, 46527, Note_off_c, 0, 32, 55
1, 46529, Note_on_c, 0, 57, 47
1, 46561, Note_off_c, 0, 53, 58
1, 46563, Note_off_c, 0, 57, 64
1, 46566, Note_off_c, 0, 34, 60
1, 46586, Note_off_c, 0, 62, 48
1, 46605, Note_on_c, 0, 33, 46
1, 46647, Note_off_c, 0, 33, 59
1, 46663, Note_on_c, 0, 32, 55
1, 46713, Note_off_c, 0, 32, 60
1, 46760, Note_on_c, 0, 33, 50
1, 46804, Note_off_c, 0, 33, 62
1, 46817, Note_on_c, 0, 60, 58
1, 46819, Note_on_c, 0, 52, 64
1, 46821, Note_on_c, 0, 57, 48
1, 46822, Note_on_c, 0, 32, 64
1, 46849, Note_off_c, 0, 57, 61
1, 46852, Note_off_c, 0, 52, 62
1, 46855, Note_off_c, 0, 60, 59
1, 46870, Note_off_c, 0, 32, 60
1, 46916, Note_on_c, 0, 33, 51
1, 46931, Control_c, 0, 64, 46
1, 46966, Note_off_c, 0, 33, 58
1, 46977, Note_on_c, 0, 32, 47
1, 47087, Note_off_c, 0, 32, 55
1, 47106, Note_on_c, 0, 53, 63
1, 47109, Note_on_c, 0, 50, 63
1, 47111, Note_on_c, 0, 57, 57
1, 47115, Note_on_c, 0, 34, 58
1, 47146, Note_off_c, 0, 50, 59
1, 47147, Note_off_c, 0, 53, 57
1, 47153, Note_off_c, 0, 57, 56
1, 47156, Note_off_c, 0, 34, 65
1, 47189, Note_on_c, 0, 33, 51
1, 47237, Note_off_c, 0, 33, 59
1, 47261, Note_on_c, 0, 32, 43
1, 47305, Note_off_c, 0, 32, 60
1, 47344, Note_on_c, 0, 33, 45
1, 47393, Note_off_c, 0, 33, 61
1, 47410, Note_on_c, 0, 32, 58
1, 47422, Note_on_c, 0, 48, 58
1, 47423, Note_on_c, 0, 57, 58
1, 47425, Note_on_c, 0, 52, 54
1, 47451, Note_off_c, 0, 32, 61
1, 47460, Note_off_c, 0, 48, 62
1, 47461, Note_off_c, 0, 52, 60
1, 47478, Note_off_c, 0, 57, 52
1, 47492, Note_on_c, 0, 33, 49
1, 47558, Note_on_c, 0, 32, 46
1, 47577, Note_off_c, 0, 33, 37
1, 47669, Note_off_c, 0, 32, 57
1, 47691, Note_on_c, 0, 33, 32
1, 47717, Note_on_c, 0, 34, 56
1, 47731, Note_off_c, 0, 33, 40
1, 47735, Note_on_c, 0, 50, 57
1, 47749, Note_on_c, 0, 53, 51
1, 47761, Note_off_c, 0, 34, 64
1, 47792, Note_off_c, 0, 50, 52
1, 47805, Note_on_c, 0, 33, 46
1, 47813, Note_off_c, 0, 53, 45
1, 47837, Note_off_c, 0, 33, 52
1, 47857, Note_on_c, 0, 32, 44
1, 47896, Note_off_c, 0, 32, 62
1, 47934, Note_on_c, 0, 33, 47
1, 47982, Note_off_c, 0, 33, 59
1, 48012, Note_on_c, 0, 32, 50
1, 48076, Note_off_c, 0, 32, 57
1, 48103, Note_on_c, 0, 33, 62
1, 48111, Note_on_c, 0, 48, 54
1, 48113, Note_on_c, 0, 52, 58
1, 48114, Note_on_c, 0, 57, 57
1, 48138, Note_off_c, 0, 48, 60
1, 48140, Note_off_c, 0, 33, 61
1, 48148, Note_off_c, 0, 52, 61
1, 48157, Note_off_c, 0, 57, 63
1, 49022, Control_c, 0, 67, 121
1, 49037, Control_c, 0, 67, 104
1, 49052, Control_c, 0, 67, 87
1, 49067, Control_c, 0, 67, 71
1, 49081, Control_c, 0, 67, 60
1, 49096, Control_c, 0, 64, 47
1, 49096, Control_c, 0, 67, 51
1, 49118, Control_c, 0, 64, 48
1, 49118, Control_c, 0, 67, 30
1, 49133, Control_c, 0, 64, 52
1, 49133, Control_c, 0, 67, 22
1, 49148, Control_c, 0, 64, 55
1, 49162, Control_c, 0, 64, 58
1, 49162, Control_c, 0, 67, 0
1, 49177, Control_c, 0, 64, 60
1, 49192, Control_c, 0, 64, 61
1, 49207, Control_c, 0, 64, 62
1, 49222, Control_c, 0, 64, 63
1, 49237, Control_c, 0, 64, 64
1, 49252, Control_c, 0, 64, 66
1, 49267, Control_c, 0, 64, 68
1, 49282, Control_c, 0, 64, 70
1, 49297, Control_c, 0, 64, 75
1, 49311, Control_c, 0, 64, 80
1, 49326, Control_c, 0, 64, 85
1, 49341, Control_c, 0, 64, 90
1, 49356, Control_c, 0, 64, 94
1, 49371, Control_c, 0, 64, 99
1, 49386, Control_c, 0, 64, 103
1, 49401, Control_c, 0, 64, 108
1, 49416, Control_c, 0, 64, 111
1, 49431, Control_c, 0, 64, 114
1, 49445, Control_c, 0, 64, 116
1, 49459, Control_c, 0, 64, 118
1, 49503, Control_c, 0, 64, 118
1, 49548, Control_c, 0, 64, 120
1, 49563, Control_c, 0, 64, 127
1, 49620, Note_on_c, 0, 48, 100
1, 49621, Note_on_c, 0, 57, 93
1, 49622, Note_on_c, 0, 69, 96
1, 49622, Control_c, 0, 64, 110
1, 49623, Note_on_c, 0, 36, 92
1, 49636, Control_c, 0, 64, 71
1, 49651, Control_c, 0, 64, 0
1, 49726, Control_c, 0, 64, 25
1, 49735, Note_on_c, 0, 66, 63
1, 49738, Note_on_c, 0, 63, 79
1, 49738, Note_off_c, 0, 36, 62
1, 49741, Control_c, 0, 64, 69
1, 49756, Note_off_c, 0, 57, 62
1, 49756, Control_c, 0, 64, 90
1, 49757, Note_off_c, 0, 48, 64
1, 49760, Note_off_c, 0, 69, 61
1, 49771, Control_c, 0, 64, 127
1, 49794, Note_off_c, 0, 66, 63
1, 49800, Note_off_c, 0, 63, 60
1, 50015, Note_on_c, 0, 69, 73
1, 50019, Note_on_c, 0, 57, 70
1, 50028, Note_on_c, 0, 60, 69
1, 50042, Note_on_c, 0, 54, 60
1, 50053, Note_on_c, 0, 51, 36
1, 50061, Note_off_c, 0, 57, 62
1, 50073, Note_off_c, 0, 69, 59
1, 50082, Note_off_c, 0, 54, 59
1, 50089, Note_off_c, 0, 51, 51
1, 50141, Note_on_c, 0, 57, 78
1, 50143, Note_on_c, 0, 69, 71
1, 50152, Note_off_c, 0, 60, 29
1, 50159, Note_on_c, 0, 51, 67
1, 50177, Note_on_c, 0, 54, 48
1, 50188, Note_off_c, 0, 57, 58
1, 50191, Note_off_c, 0, 51, 63
1, 50200, Note_off_c, 0, 54, 60
1, 50200, Note_off_c, 0, 69, 59
1, 50270, Note_on_c, 0, 60, 81
1, 50277, Note_on_c, 0, 72, 65
1, 50300, Note_on_c, 0, 74, 48
1, 50316, Note_off_c, 0, 72, 58
1, 50325, Note_off_c, 0, 74, 59
1, 50326, Note_off_c, 0, 60, 54
1, 50374, Note_on_c, 0, 45, 83
1, 50381, Note_on_c, 0, 33, 76
1, 50393, Note_on_c, 0, 59, 82
1, 50394, Note_on_c, 0, 71, 80
1, 50417, Note_off_c, 0, 71, 65
1, 50424, Note_off_c, 0, 33, 61
1, 50426, Note_off_c, 0, 59, 58
1, 50432, Note_off_c, 0, 45, 54
1, 50486, Note_on_c, 0, 69, 90
1, 50489, Note_on_c, 0, 57, 82
1, 50523, Note_off_c, 0, 57, 60
1, 50546, Note_off_c, 0, 69, 64
1, 50635, Note_on_c, 0, 32, 52
1, 50638, Note_on_c, 0, 76, 92
1, 50640, Note_on_c, 0, 64, 88
1, 50644, Control_c, 0, 64, 92
1, 50647, Note_on_c, 0, 44, 72
1, 50653, Note_on_c, 0, 45, 84
1, 50659, Control_c, 0, 64, 63
1, 50674, Control_c, 0, 64, 0
1, 50732, Note_off_c, 0, 45, 55
1, 50733, Control_c, 0, 64, 43
1, 50748, Note_on_c, 0, 71, 79
1, 50748, Control_c, 0, 64, 66
1, 50752, Note_on_c, 0, 68, 80
1, 50754, Note_off_c, 0, 44, 60
1, 50763, Control_c, 0, 64, 73
1, 50772, Note_off_c, 0, 32, 60
1, 50778, Control_c, 0, 64, 80
1, 50792, Control_c, 0, 64, 84
1, 50807, Control_c, 0, 64, 86
1, 50808, Note_off_c, 0, 64, 50
1, 50822, Control_c, 0, 64, 91
1, 50829, Note_off_c, 0, 76, 53
1, 50837, Control_c, 0, 64, 97
1, 50852, Control_c, 0, 64, 104
1, 50866, Control_c, 0, 64, 109
1, 50868, Note_on_c, 0, 47, 92
1, 50880, Note_on_c, 0, 35, 72
1, 50882, Control_c, 0, 64, 111
1, 50888, Note_on_c, 0, 33, 67
1, 50912, Control_c, 0, 64, 112
1, 50927, Control_c, 0, 64, 113
1, 50930, Note_off_c, 0, 71, 57
1, 50931, Note_off_c, 0, 35, 57
1, 50932, Note_off_c, 0, 33, 46
1, 50942, Note_off_c, 0, 68, 31
1, 50942, Control_c, 0, 64, 114
1, 50948, Note_off_c, 0, 47, 57
1, 50957, Control_c, 0, 64, 116
1, 50972, Control_c, 0, 64, 118
1, 50976, Note_on_c, 0, 64, 84
1, 50978, Note_on_c, 0, 76, 88
1, 50987, Control_c, 0, 64, 127
1, 51036, Note_off_c, 0, 64, 60
1, 51049, Note_off_c, 0, 76, 55
1, 51084, Poly_aftertouch_c, 0, 73, 0
1, 51090, Control_c, 0, 64, 111
1, 51105, Control_c, 0, 64, 71
1, 51117, Note_on_c, 0, 64, 93
1, 51118, Note_on_c, 0, 52, 94
1, 51118, Note_on_c, 0, 76, 88
1, 51120, Control_c, 0, 64, 0
1, 51124, Note_on_c, 0, 40, 77
1, 51131, Note_on_c, 0, 44, 85
1, 51142, Poly_aftertouch_c, 0, 73, 0
1, 51148, Note_off_c, 0, 64, 65
1, 51159, Note_on_c, 0, 73, 11
1, 51164, Control_c, 0, 64, 46
1, 51179, Control_c, 0, 64, 70
1, 51190, Note_off_c, 0, 76, 63
1, 51194, Control_c, 0, 64, 85
1, 51208, Control_c, 0, 64, 121
1, 51211, Note_off_c, 0, 73, 35
1, 51223, Control_c, 0, 64, 127
1, 51245, Note_off_c, 0, 52, 58
1, 51249, Note_on_c, 0, 79, 92
1, 51252, Note_on_c, 0, 67, 90
1, 51280, Note_off_c, 0, 40, 55
1, 51300, Note_off_c, 0, 44, 58
1, 51300, Note_off_c, 0, 79, 64
1, 51305, Note_off_c, 0, 67, 61
1, 51372, Note_on_c, 0, 65, 97
1, 51374, Note_on_c, 0, 77, 91
1, 51415, Note_off_c, 0, 77, 59
1, 51424, Note_off_c, 0, 65, 62
1, 51473, Note_on_c, 0, 76, 84
1, 51476, Note_on_c, 0, 64, 91
1, 51519, Note_off_c, 0, 76, 62
1, 51535, Note_off_c, 0, 64, 61
1, 51624, Note_on_c, 0, 48, 95
1, 51628, Note_on_c, 0, 36, 86
1, 51629, Note_on_c, 0, 69, 89
1, 51631, Control_c, 0, 64, 107
1, 51634, Note_on_c, 0, 57, 87
1, 51646, Control_c, 0, 64, 65
1, 51660, Control_c, 0, 64, 0
1, 51735, Control_c, 0, 64, 25
1, 51739, Note_on_c, 0, 63, 72
1, 51739, Note_on_c, 0, 66, 75
1, 51750, Control_c, 0, 64, 73
1, 51765, Note_off_c, 0, 57, 54
1, 51765, Control_c, 0, 64, 91
1, 51768, Note_off_c, 0, 36, 60
1, 51779, Note_off_c, 0, 69, 49
1, 51779, Control_c, 0, 64, 127
1, 51791, Note_off_c, 0, 48, 62
1, 51815, Note_off_c, 0, 66, 61
1, 51818, Note_off_c, 0, 63, 57
1, 51985, Note_on_c, 0, 57, 64
1, 51986, Note_on_c, 0, 69, 67
1, 52002, Note_on_c, 0, 51, 59
1, 52007, Note_on_c, 0, 54, 58
1, 52011, Note_on_c, 0, 60, 54
1, 52021, Note_off_c, 0, 69, 55
1, 52022, Note_off_c, 0, 57, 59
1, 52033, Note_off_c, 0, 54, 56
1, 52034, Note_off_c, 0, 51, 56
1, 52039, Note_off_c, 0, 60, 50
1, 52125, Note_on_c, 0, 57, 77
1, 52130, Note_on_c, 0, 51, 69
1, 52130, Note_on_c, 0, 69, 76
1, 52132, Note_on_c, 0, 54, 66
1, 52150, Note_off_c, 0, 57, 64
1, 52157, Note_on_c, 0, 60, 6
1, 52167, Note_off_c, 0, 69, 57
1, 52170, Note_off_c, 0, 54, 60
1, 52180, Note_off_c, 0, 51, 57
1, 52211, Note_off_c, 0, 60, 36
1, 52251, Note_on_c, 0, 60, 72
1, 52253, Note_on_c, 0, 72, 80
1, 52277, Note_off_c, 0, 72, 63
1, 52288, Note_off_c, 0, 60, 57
1, 52366, Note_on_c, 0, 33, 78
1, 52366, Note_on_c, 0, 45, 75
1, 52371, Note_on_c, 0, 59, 86
1, 52373, Note_on_c, 0, 71, 81
1, 52405, Note_off_c, 0, 71, 54
1, 52421, Note_off_c, 0, 59, 59
1, 52434, Note_off_c, 0, 45, 48
1, 52440, Note_off_c, 0, 33, 50
1, 52477, Note_on_c, 0, 69, 86
1, 52481, Note_on_c, 0, 57, 84
1, 52530, Note_off_c, 0, 69, 61
1, 52531, Note_off_c, 0, 57, 62
1, 52587, Control_c, 0, 64, 115
1, 52595, Note_on_c, 0, 47, 93
1, 52598, Note_on_c, 0, 35, 83
1, 52599, Note_on_c, 0, 56, 89
1, 52601, Note_on_c, 0, 68, 86
1, 52602, Control_c, 0, 64, 79
1, 52617, Control_c, 0, 64, 52
1, 52632, Control_c, 0, 64, 0
1, 52641, Note_on_c, 0, 55, 39
1, 52674, Note_off_c, 0, 55, 52
1, 52676, Control_c, 0, 64, 41
1, 52690, Note_off_c, 0, 47, 53
1, 52691, Control_c, 0, 64, 67
1, 52692, Note_off_c, 0, 35, 60
1, 52694, Note_on_c, 0, 59, 76
1, 52706, Control_c, 0, 64, 80
1, 52721, Control_c, 0, 64, 98
1, 52726, Note_off_c, 0, 68, 48
1, 52735, Control_c, 0, 64, 116
1, 52744, Note_off_c, 0, 56, 52
1, 52750, Control_c, 0, 64, 117
1, 52794, Control_c, 0, 64, 118
1, 52809, Control_c, 0, 64, 119
1, 52810, Note_on_c, 0, 51, 95
1, 52815, Note_on_c, 0, 39, 86
1, 52824, Control_c, 0, 64, 121
1, 52861, Control_c, 0, 64, 122
1, 52876, Control_c, 0, 64, 124
1, 52891, Control_c, 0, 64, 127
1, 52907, Note_off_c, 0, 51, 51
1, 52912, Note_off_c, 0, 39, 59
1, 52924, Note_on_c, 0, 63, 92
1, 52956, Note_off_c, 0, 59, 57
1, 53039, Control_c, 0, 64, 80
1, 53053, Control_c, 0, 64, 45
1, 53056, Note_on_c, 0, 65, 84
1, 53058, Note_on_c, 0, 53, 97
1, 53060, Note_on_c, 0, 59, 78
1, 53061, Note_on_c, 0, 56, 90
1, 53064, Note_on_c, 0, 41, 86
1, 53068, Control_c, 0, 64, 0
1, 53091, Note_off_c, 0, 63, 57
1, 53127, Control_c, 0, 64, 58
1, 53142, Control_c, 0, 64, 78
1, 53145, Note_off_c, 0, 53, 59
1, 53151, Note_off_c, 0, 56, 62
1, 53157, Control_c, 0, 64, 99
1, 53170, Note_off_c, 0, 41, 62
1, 53172, Control_c, 0, 64, 127
1, 53261, Note_off_c, 0, 65, 55
1, 53323, Note_on_c, 0, 52, 92
1, 53326, Note_on_c, 0, 40, 90
1, 53327, Note_on_c, 0, 64, 90
1, 53336, Note_off_c, 0, 59, 59
1, 53371, Note_off_c, 0, 52, 61
1, 53380, Note_off_c, 0, 64, 65
1, 53390, Note_off_c, 0, 40, 61
1, 53625, Control_c, 0, 64, 121
1, 53633, Note_on_c, 0, 69, 99
1, 53634, Note_on_c, 0, 48, 99
1, 53634, Note_on_c, 0, 81, 97
1, 53634, Poly_aftertouch_c, 0, 75, 0
1, 53638, Note_on_c, 0, 36, 97
1, 53640, Control_c, 0, 64, 78
1, 53655, Control_c, 0, 64, 41
1, 53668, Poly_aftertouch_c, 0, 75, 0
1, 53670, Control_c, 0, 64, 0
1, 53744, Control_c, 0, 64, 57
1, 53758, Control_c, 0, 64, 84
1, 53761, Note_off_c, 0, 36, 61
1, 53767, Note_on_c, 0, 75, 81
1, 53767, Note_on_c, 0, 78, 72
1, 53773, Control_c, 0, 64, 113
1, 53781, Note_off_c, 0, 69, 61
1, 53782, Note_off_c, 0, 81, 61
1, 53788, Control_c, 0, 64, 127
1, 53792, Note_off_c, 0, 48, 62
1, 53827, Note_off_c, 0, 75, 62
1, 53835, Note_off_c, 0, 78, 60
1, 54005, Note_on_c, 0, 81, 73
1, 54008, Note_on_c, 0, 69, 70
1, 54009, Note_on_c, 0, 51, 59
1, 54010, Note_on_c, 0, 54, 61
1, 54012, Note_on_c, 0, 60, 63
1, 54045, Note_off_c, 0, 69, 59
1, 54054, Note_off_c, 0, 81, 45
1, 54057, Note_off_c, 0, 51, 52
1, 54057, Note_off_c, 0, 60, 52
1, 54072, Note_off_c, 0, 54, 54
1, 54128, Note_on_c, 0, 60, 47
1, 54134, Note_on_c, 0, 69, 78
1, 54138, Note_on_c, 0, 81, 75
1, 54144, Note_on_c, 0, 51, 72
1, 54150, Note_on_c, 0, 54, 51
1, 54153, Note_off_c, 0, 60, 60
1, 54159, Note_off_c, 0, 69, 66
1, 54175, Note_off_c, 0, 81, 59
1, 54183, Note_off_c, 0, 54, 64
1, 54195, Note_off_c, 0, 51, 56
1, 54254, Note_on_c, 0, 84, 90
1, 54258, Note_on_c, 0, 72, 82
1, 54300, Note_off_c, 0, 84, 59
1, 54301, Note_off_c, 0, 72, 59
1, 54377, Note_on_c, 0, 47, 70
1, 54379, Note_on_c, 0, 71, 86
1, 54380, Note_on_c, 0, 45, 69
1, 54381, Note_on_c, 0, 83, 90
1, 54386, Note_on_c, 0, 35, 54
1, 54387, Note_on_c, 0, 33, 56
1, 54409, Note_off_c, 0, 47, 64
1, 54412, Note_off_c, 0, 45, 62
1, 54414, Note_off_c, 0, 83, 56
1, 54417, Note_off_c, 0, 33, 57
1, 54418, Note_off_c, 0, 35, 60
1, 54421, Note_off_c, 0, 71, 62
1, 54481, Note_on_c, 0, 69, 92
1, 54481, Note_on_c, 0, 81, 84
1, 54519, Note_off_c, 0, 69, 64
1, 54543, Note_off_c, 0, 81, 63
1, 54597, Control_c, 0, 64, 94
1, 54602, Note_on_c, 0, 44, 70
1, 54605, Note_on_c, 0, 32, 58
1, 54612, Control_c, 0, 64, 63
1, 54614, Note_on_c, 0, 88, 89
1, 54615, Note_on_c, 0, 76, 90
1, 54626, Control_c, 0, 64, 0
1, 54671, Control_c, 0, 64, 23
1, 54686, Control_c, 0, 64, 61
1, 54700, Control_c, 0, 64, 73
1, 54704, Note_off_c, 0, 32, 62
1, 54706, Note_off_c, 0, 44, 58
1, 54715, Control_c, 0, 64, 87
1, 54716, Note_on_c, 0, 83, 80
1, 54720, Note_on_c, 0, 80, 80
1, 54730, Control_c, 0, 64, 97
1, 54744, Control_c, 0, 64, 100
1, 54759, Control_c, 0, 64, 101
1, 54765, Note_off_c, 0, 88, 54
1, 54774, Control_c, 0, 64, 103
1, 54781, Note_off_c, 0, 76, 36
1, 54789, Control_c, 0, 64, 106
1, 54804, Control_c, 0, 64, 110
1, 54819, Control_c, 0, 64, 114
1, 54820, Note_on_c, 0, 47, 102
1, 54824, Note_on_c, 0, 35, 93
1, 54834, Note_off_c, 0, 80, 53
1, 54834, Control_c, 0, 64, 117
1, 54848, Note_off_c, 0, 83, 51
1, 54849, Control_c, 0, 64, 118
1, 54864, Control_c, 0, 64, 119
1, 54880, Control_c, 0, 64, 121
1, 54881, Note_off_c, 0, 35, 61
1, 54889, Note_off_c, 0, 47, 56
1, 54895, Control_c, 0, 64, 124
1, 54910, Control_c, 0, 64, 127
1, 54933, Note_on_c, 0, 76, 91
1, 54934, Note_on_c, 0, 88, 90
1, 54994, Note_off_c, 0, 76, 63
1, 55020, Note_off_c, 0, 88, 59
1, 55028, Control_c, 0, 64, 116
1, 55043, Control_c, 0, 64, 78
1, 55057, Control_c, 0, 64, 61
1, 55059, Note_on_c, 0, 52, 99
1, 55064, Note_on_c, 0, 40, 85
1, 55070, Note_on_c, 0, 44, 80
1, 55072, Control_c, 0, 64, 53
1, 55076, Note_on_c, 0, 76, 96
1, 55077, Note_on_c, 0, 88, 88
1, 55087, Control_c, 0, 64, 55
1, 55109, Control_c, 0, 64, 65
1, 55124, Control_c, 0, 64, 81
1, 55134, Note_off_c, 0, 76, 64
1, 55139, Control_c, 0, 64, 110
1, 55154, Control_c, 0, 64, 127
1, 55155, Note_off_c, 0, 88, 64
1, 55192, Note_off_c, 0, 52, 56
1, 55202, Poly_aftertouch_c, 0, 85, 0
1, 55221, Note_on_c, 0, 91, 102
1, 55223, Note_on_c, 0, 79, 97
1, 55232, Note_off_c, 0, 40, 57
1, 55237, Note_off_c, 0, 44, 58
1, 55272, Note_off_c, 0, 79, 65
1, 55272, Note_off_c, 0, 91, 67
1, 55343, Note_on_c, 0, 77, 99
1, 55345, Note_on_c, 0, 89, 97
1, 55390, Note_off_c, 0, 77, 63
1, 55391, Note_off_c, 0, 89, 61
1, 55448, Note_on_c, 0, 76, 94
1, 55449, Note_on_c, 0, 88, 95
1, 55492, Note_off_c, 0, 88, 63
1, 55498, Note_off_c, 0, 76, 65
1, 55589, Note_on_c, 0, 48, 99
1, 55595, Note_on_c, 0, 69, 98
1, 55595, Note_on_c, 0, 81, 94
1, 55595, Note_on_c, 0, 36, 99
1, 55628, Control_c, 0, 64, 68
1, 55643, Control_c, 0, 64, 0
1, 55709, Note_on_c, 0, 75, 79
1, 55714, Note_on_c, 0, 78, 76
1, 55717, Control_c, 0, 64, 53
1, 55723, Note_off_c, 0, 69, 62
1, 55729, Note_off_c, 0, 36, 61
1, 55732, Control_c, 0, 64, 87
1, 55736, Note_off_c, 0, 81, 59
1, 55747, Control_c, 0, 64, 127
1, 55766, Note_off_c, 0, 48, 59
1, 55770, Note_off_c, 0, 75, 61
1, 55782, Note_off_c, 0, 78, 61
1, 55950, Note_on_c, 0, 81, 75
1, 55953, Note_on_c, 0, 54, 69
1, 55953, Note_on_c, 0, 69, 73
1, 55956, Note_on_c, 0, 51, 59
1, 55959, Note_on_c, 0, 60, 64
1, 55983, Note_off_c, 0, 69, 59
1, 55992, Note_off_c, 0, 51, 60
1, 55992, Note_off_c, 0, 60, 59
1, 55998, Note_off_c, 0, 81, 55
1, 56004, Note_off_c, 0, 54, 55
1, 56075, Note_on_c, 0, 69, 78
1, 56080, Note_on_c, 0, 60, 65
1, 56083, Note_on_c, 0, 81, 78
1, 56084, Note_on_c, 0, 51, 68
1, 56090, Note_on_c, 0, 54, 67
1, 56100, Note_off_c, 0, 69, 64
1, 56108, Note_off_c, 0, 60, 63
1, 56127, Note_off_c, 0, 81, 60
1, 56142, Note_off_c, 0, 54, 55
1, 56157, Note_off_c, 0, 51, 58
1, 56195, Note_on_c, 0, 72, 86
1, 56196, Note_on_c, 0, 84, 88
1, 56242, Note_off_c, 0, 84, 61
1, 56243, Note_off_c, 0, 72, 62
1, 56308, Note_on_c, 0, 45, 85
1, 56309, Note_on_c, 0, 33, 86
1, 56319, Note_on_c, 0, 83, 92
1, 56320, Note_on_c, 0, 71, 89
1, 56358, Note_off_c, 0, 71, 64
1, 56358, Note_off_c, 0, 83, 63
1, 56366, Note_off_c, 0, 33, 59
1, 56371, Note_off_c, 0, 45, 56
1, 56424, Note_on_c, 0, 81, 88
1, 56425, Note_on_c, 0, 69, 91
1, 56471, Note_off_c, 0, 69, 64
1, 56472, Note_off_c, 0, 81, 62
1, 56510, Control_c, 0, 64, 95
1, 56525, Control_c, 0, 64, 63
1, 56528, Note_on_c, 0, 47, 96
1, 56534, Note_on_c, 0, 35, 85
1, 56540, Control_c, 0, 64, 0
1, 56547, Note_on_c, 0, 68, 94
1, 56550, Note_on_c, 0, 80, 88
1, 56584, Control_c, 0, 64, 51
1, 56585, Note_off_c, 0, 35, 60
1, 56586, Note_off_c, 0, 47, 58
1, 56606, Control_c, 0, 64, 75
1, 56621, Control_c, 0, 64, 100
1, 56636, Control_c, 0, 64, 127
1, 56642, Note_on_c, 0, 71, 81
1, 56670, Poly_aftertouch_c, 0, 67, 0
1, 56670, Note_off_c, 0, 68, 60
1, 56691, Note_off_c, 0, 71, 64
1, 56691, Note_off_c, 0, 80, 37
1, 56779, Note_on_c, 0, 51, 96
1, 56785, Note_on_c, 0, 39, 84
1, 56861, Note_off_c, 0, 51, 56
1, 56867, Note_off_c, 0, 39, 63
1, 56877, Note_on_c, 0, 75, 91
1, 56878, Note_on_c, 0, 87, 93
1, 56965, Note_off_c, 0, 75, 62
1, 57021, Control_c, 0, 64, 88
1, 57028, Note_on_c, 0, 77, 101
1, 57029, Note_on_c, 0, 53, 104
1, 57031, Note_on_c, 0, 89, 97
1, 57035, Note_on_c, 0, 41, 90
1, 57036, Control_c, 0, 64, 48
1, 57051, Control_c, 0, 64, 0
1, 57062, Note_off_c, 0, 87, 62
1, 57095, Control_c, 0, 64, 37
1, 57110, Control_c, 0, 64, 73
1, 57125, Control_c, 0, 64, 100
1, 57136, Note_off_c, 0, 53, 55
1, 57140, Control_c, 0, 64, 127
1, 57155, Note_off_c, 0, 77, 56
1, 57159, Note_off_c, 0, 41, 59
1, 57181, Note_off_c, 0, 89, 54
1, 57186, Note_on_c, 0, 82, 31
1, 57281, Note_on_c, 0, 40, 89
1, 57281, Note_on_c, 0, 52, 104
1, 57285, Note_off_c, 0, 82, 0
1, 57289, Control_c, 0, 64, 101
1, 57290, Note_on_c, 0, 76, 100
1, 57294, Note_on_c, 0, 88, 98
1, 57300, Poly_aftertouch_c, 0, 82, 0
1, 57304, Control_c, 0, 64, 85
1, 57318, Note_off_c, 0, 40, 63
1, 57318, Control_c, 0, 64, 82
1, 57333, Control_c, 0, 64, 88
1, 57348, Note_off_c, 0, 52, 63
1, 57348, Note_off_c, 0, 76, 66
1, 57356, Poly_aftertouch_c, 0, 82, 0
1, 57356, Control_c, 0, 64, 102
1, 57371, Control_c, 0, 64, 127
1, 57377, Note_off_c, 0, 88, 65
1, 57440, Note_on_c, 0, 45, 75
1, 57479, Note_on_c, 0, 47, 33
1, 57539, Note_on_c, 0, 52, 77
1, 57558, Note_off_c, 0, 45, 55
1, 57563, Control_c, 0, 64, 111
1, 57578, Control_c, 0, 64, 70
1, 57585, Note_off_c, 0, 47, 26
1, 57592, Control_c, 0, 64, 0
1, 57612, Note_on_c, 0, 61, 93
1, 57613, Note_on_c, 0, 81, 103
1, 57613, Note_on_c, 0, 93, 103
1, 57652, Control_c, 0, 64, 58
1, 57654, Note_on_c, 0, 90, 40
1, 57656, Note_off_c, 0, 52, 60
1, 57667, Control_c, 0, 64, 91
1, 57673, Note_off_c, 0, 61, 61
1, 57682, Control_c, 0, 64, 127
1, 57695, Note_off_c, 0, 90, 47
1, 57721, Poly_aftertouch_c, 0, 88, 0
1, 57770, Note_off_c, 0, 81, 60
1, 57771, Note_on_c, 0, 85, 77
1, 57777, Note_on_c, 0, 88, 70
1, 57786, Note_off_c, 0, 93, 55
1, 57924, Note_off_c, 0, 88, 57
1, 57926, Note_off_c, 0, 85, 59
1, 57941, Note_on_c, 0, 64, 70
1, 57947, Note_on_c, 0, 69, 74
1, 57954, Note_on_c, 0, 81, 80
1, 57955, Note_on_c, 0, 93, 78
1, 57986, Note_off_c, 0, 93, 49
1, 57995, Note_off_c, 0, 81, 57
1, 58046, Note_off_c, 0, 69, 59
1, 58058, Note_on_c, 0, 81, 84
1, 58060, Note_on_c, 0, 61, 73
1, 58066, Note_on_c, 0, 93, 87
1, 58070, Note_off_c, 0, 64, 59
1, 58084, Note_off_c, 0, 61, 68
1, 58111, Note_off_c, 0, 81, 64
1, 58113, Note_off_c, 0, 93, 56
1, 58186, Note_on_c, 0, 82, 85
1, 58192, Note_on_c, 0, 94, 81
1, 58232, Note_off_c, 0, 82, 59
1, 58234, Note_off_c, 0, 94, 60
1, 58269, Note_on_c, 0, 52, 68
1, 58286, Poly_aftertouch_c, 0, 95, 0
1, 58297, Note_on_c, 0, 37, 69
1, 58307, Note_on_c, 0, 93, 82
1, 58309, Note_on_c, 0, 81, 79
1, 58345, Note_off_c, 0, 81, 58
1, 58345, Note_off_c, 0, 93, 55
1, 58355, Note_off_c, 0, 37, 60
1, 58356, Note_off_c, 0, 52, 48
1, 58412, Note_on_c, 0, 79, 81
1, 58413, Note_on_c, 0, 91, 82
1, 58450, Note_off_c, 0, 91, 56
1, 58460, Note_off_c, 0, 79, 62
1, 58531, Note_on_c, 0, 77, 84
1, 58534, Control_c, 0, 64, 94
1, 58536, Note_on_c, 0, 53, 76
1, 58543, Note_on_c, 0, 38, 67
1, 58543, Note_on_c, 0, 89, 67
1, 58546, Note_on_c, 0, 52, 73
1, 58549, Control_c, 0, 64, 59
1, 58564, Control_c, 0, 64, 0
1, 58573, Note_on_c, 0, 88, 39
1, 58587, Note_on_c, 0, 40, 27
1, 58592, Note_off_c, 0, 52, 0
1, 58604, Note_off_c, 0, 88, 54
1, 58624, Control_c, 0, 64, 64
1, 58630, Poly_aftertouch_c, 0, 52, 127
1, 58631, Note_off_c, 0, 77, 61
1, 58639, Control_c, 0, 64, 80
1, 58640, Note_off_c, 0, 40, 29
1, 58642, Note_off_c, 0, 53, 58
1, 58644, Note_on_c, 0, 81, 66
1, 58645, Note_off_c, 0, 38, 61
1, 58648, Note_on_c, 0, 86, 70
1, 58654, Control_c, 0, 64, 101
1, 58658, Note_off_c, 0, 89, 53
1, 58661, Poly_aftertouch_c, 0, 52, 0
1, 58668, Control_c, 0, 64, 127
1, 58713, Note_off_c, 0, 86, 55
1, 58735, Note_off_c, 0, 81, 59
1, 58754, Note_on_c, 0, 55, 88
1, 58757, Note_on_c, 0, 40, 77
1, 58771, Note_on_c, 0, 53, 63
1, 58776, Note_on_c, 0, 41, 66
1, 58800, Note_off_c, 0, 53, 35
1, 58801, Note_off_c, 0, 41, 54
1, 58810, Note_off_c, 0, 55, 58
1, 58825, Note_off_c, 0, 40, 58
1, 58849, Note_on_c, 0, 73, 86
1, 58849, Note_on_c, 0, 85, 86
1, 58902, Note_off_c, 0, 73, 63
1, 58907, Note_off_c, 0, 85, 64
1, 58971, Note_on_c, 0, 74, 95
1, 58972, Note_on_c, 0, 86, 93
1, 58975, Note_on_c, 0, 56, 92
1, 58979, Note_on_c, 0, 41, 80
1, 59017, Note_off_c, 0, 74, 63
1, 59023, Note_off_c, 0, 86, 66
1, 59035, Note_off_c, 0, 56, 62
1, 59083, Note_off_c, 0, 41, 37
1, 59095, Note_on_c, 0, 89, 102
1, 59097, Note_on_c, 0, 77, 100
1, 59103, Poly_aftertouch_c, 0, 43, 0
1, 59134, Note_on_c, 0, 87, 41
1, 59137, Note_off_c, 0, 89, 63
1, 59140, Note_off_c, 0, 77, 63
1, 59162, Note_off_c, 0, 87, 56
1, 59199, Note_on_c, 0, 57, 83
1, 59202, Note_on_c, 0, 42, 80
1, 59218, Note_on_c, 0, 55, 61
1, 59219, Note_off_c, 0, 55, 127
1, 59221, Note_on_c, 0, 74, 96
1, 59222, Note_on_c, 0, 76, 92
1, 59223, Note_on_c, 0, 86, 91
1, 59224, Note_on_c, 0, 88, 93
1, 59232, Note_off_c, 0, 42, 66
1, 59244, Note_off_c, 0, 88, 66
1, 59259, Note_off_c, 0, 74, 62
1, 59263, Note_off_c, 0, 57, 58
1, 59263, Note_off_c, 0, 76, 62
1, 59265, Poly_aftertouch_c, 0, 55, 0
1, 59266, Note_off_c, 0, 86, 66
1, 59321, Poly_aftertouch_c, 0, 44, 0
1, 59333, Note_on_c, 0, 43, 71
1, 59334, Note_on_c, 0, 86, 95
1, 59338, Note_on_c, 0, 74, 95
1, 59373, Note_on_c, 0, 50, 66
1, 59392, Note_on_c, 0, 82, 26
1, 59395, Note_off_c, 0, 74, 60
1, 59404, Note_off_c, 0, 86, 58
1, 59408, Note_on_c, 0, 85, 58
1, 59431, Note_on_c, 0, 46, 32
1, 59447, Control_c, 0, 64, 78
1, 59447, Note_off_c, 0, 43, 54
1, 59450, Note_off_c, 0, 85, 61
1, 59458, Note_off_c, 0, 82, 38
1, 59461, Control_c, 0, 64, 30
1, 59473, Note_on_c, 0, 59, 95
1, 59476, Note_on_c, 0, 79, 99
1, 59476, Control_c, 0, 64, 0
1, 59478, Note_off_c, 0, 46, 60
1, 59479, Note_on_c, 0, 91, 98
1, 59486, Note_on_c, 0, 57, 58
1, 59489, Note_on_c, 0, 83, 68
1, 59501, Note_off_c, 0, 50, 62
1, 59509, Note_off_c, 0, 57, 55
1, 59509, Note_off_c, 0, 83, 64
1, 59521, Control_c, 0, 64, 56
1, 59525, Note_off_c, 0, 59, 63
1, 59535, Control_c, 0, 64, 79
1, 59550, Control_c, 0, 64, 113
1, 59565, Control_c, 0, 64, 127
1, 59596, Note_on_c, 0, 83, 72
1, 59605, Note_on_c, 0, 86, 81
1, 59616, Note_off_c, 0, 79, 58
1, 59616, Note_off_c, 0, 91, 63
1, 59767, Note_off_c, 0, 86, 59
1, 59793, Note_off_c, 0, 83, 36
1, 59804, Note_on_c, 0, 67, 70
1, 59807, Note_on_c, 0, 62, 68
1, 59811, Note_on_c, 0, 79, 78
1, 59813, Note_on_c, 0, 91, 77
1, 59858, Note_off_c, 0, 91, 59
1, 59862, Note_off_c, 0, 79, 59
1, 59874, Note_off_c, 0, 67, 60
1, 59925, Note_on_c, 0, 59, 72
1, 59925, Note_on_c, 0, 79, 78
1, 59929, Note_on_c, 0, 91, 77
1, 59934, Note_off_c, 0, 62, 59
1, 59956, Note_off_c, 0, 59, 64
1, 59957, Note_off_c, 0, 91, 62
1, 59962, Note_off_c, 0, 79, 63
1, 60037, Note_on_c, 0, 80, 78
1, 60043, Note_on_c, 0, 92, 76
1, 60078, Note_off_c, 0, 80, 57
1, 60078, Note_off_c, 0, 92, 57
1, 60130, Note_on_c, 0, 50, 71
1, 60146, Note_on_c, 0, 35, 64
1, 60158, Note_on_c, 0, 91, 83
1, 60162, Note_on_c, 0, 79, 81
1, 60167, Note_on_c, 0, 36, 37
1, 60203, Note_off_c, 0, 91, 63
1, 60207, Note_off_c, 0, 79, 59
1, 60216, Note_off_c, 0, 50, 54
1, 60216, Note_off_c, 0, 36, 43
1, 60221, Note_off_c, 0, 35, 57
1, 60274, Note_on_c, 0, 77, 81
1, 60275, Note_on_c, 0, 89, 78
1, 60313, Note_off_c, 0, 89, 53
1, 60323, Note_off_c, 0, 77, 60
1, 60397, Note_on_c, 0, 52, 82
1, 60404, Note_on_c, 0, 36, 73
1, 60404, Note_on_c, 0, 76, 83
1, 60421, Note_on_c, 0, 88, 66
1, 60425, Control_c, 0, 64, 109
1, 60439, Control_c, 0, 64, 69
1, 60448, Note_on_c, 0, 86, 48
1, 60454, Control_c, 0, 64, 23
1, 60470, Control_c, 0, 64, 0
1, 60474, Note_off_c, 0, 86, 37
1, 60500, Control_c, 0, 64, 16
1, 60504, Note_on_c, 0, 79, 74
1, 60512, Note_off_c, 0, 52, 60
1, 60515, Control_c, 0, 64, 60
1, 60516, Note_on_c, 0, 84, 73
1, 60523, Note_off_c, 0, 76, 54
1, 60525, Note_off_c, 0, 36, 60
1, 60529, Control_c, 0, 64, 75
1, 60544, Control_c, 0, 64, 91
1, 60554, Note_off_c, 0, 88, 53
1, 60559, Control_c, 0, 64, 113
1, 60574, Control_c, 0, 64, 127
1, 60586, Note_off_c, 0, 84, 59
1, 60594, Note_off_c, 0, 79, 61
1, 60622, Note_on_c, 0, 53, 90
1, 60625, Note_on_c, 0, 38, 81
1, 60637, Note_on_c, 0, 52, 66
1, 60657, Note_on_c, 0, 40, 49
1, 60663, Note_off_c, 0, 52, 37
1, 60675, Note_off_c, 0, 53, 61
1, 60687, Note_off_c, 0, 40, 44
1, 60704, Note_on_c, 0, 71, 89
1, 60708, Note_off_c, 0, 38, 59
1, 60711, Note_on_c, 0, 83, 88
1, 60754, Note_on_c, 0, 80, 29
1, 60757, Note_off_c, 0, 71, 60
1, 60768, Note_off_c, 0, 83, 62
1, 60788, Note_off_c, 0, 80, 46
1, 60833, Note_on_c, 0, 72, 93
1, 60835, Note_on_c, 0, 54, 86
1, 60836, Note_on_c, 0, 39, 86
1, 60838, Note_on_c, 0, 84, 96
1, 60877, Note_off_c, 0, 84, 62
1, 60877, Note_off_c, 0, 72, 62
1, 60889, Note_on_c, 0, 82, 13
1, 60889, Note_off_c, 0, 54, 61
1, 60893, Note_off_c, 0, 39, 63
1, 60935, Note_off_c, 0, 82, 49
1, 60945, Note_on_c, 0, 75, 97
1, 60948, Note_on_c, 0, 87, 98
1, 60988, Note_on_c, 0, 85, 32
1, 60991, Note_off_c, 0, 75, 62
1, 60991, Note_off_c, 0, 87, 63
1, 61020, Note_off_c, 0, 85, 55
1, 61055, Note_on_c, 0, 55, 93
1, 61060, Note_on_c, 0, 85, 100
1, 61062, Note_on_c, 0, 73, 96
1, 61068, Note_on_c, 0, 41, 73
1, 61068, Note_on_c, 0, 40, 61
1, 61107, Note_off_c, 0, 40, 61
1, 61117, Note_off_c, 0, 41, 63
1, 61119, Note_off_c, 0, 73, 63
1, 61121, Note_off_c, 0, 55, 58
1, 61122, Note_off_c, 0, 85, 64
1, 61170, Note_on_c, 0, 84, 95
1, 61172, Note_on_c, 0, 72, 95
1, 61187, Note_on_c, 0, 41, 73
1, 61225, Note_off_c, 0, 72, 61
1, 61228, Note_on_c, 0, 47, 69
1, 61238, Note_off_c, 0, 84, 62
1, 61250, Note_on_c, 0, 50, 75
1, 61308, Control_c, 0, 64, 91
1, 61323, Control_c, 0, 64, 52
1, 61326, Note_on_c, 0, 77, 96
1, 61330, Note_on_c, 0, 89, 100
1, 61333, Note_on_c, 0, 56, 87
1, 61335, Note_on_c, 0, 80, 57
1, 61337, Control_c, 0, 64, 0
1, 61360, Note_on_c, 0, 83, 44
1, 61361, Note_off_c, 0, 80, 65
1, 61384, Note_off_c, 0, 41, 51
1, 61397, Control_c, 0, 64, 70
1, 61411, Control_c, 0, 64, 106
1, 61415, Note_off_c, 0, 83, 0
1, 61415, Note_on_c, 0, 83, 32
1, 61426, Control_c, 0, 64, 127
1, 61429, Note_off_c, 0, 50, 61
1, 61434, Note_off_c, 0, 47, 57
1, 61438, Note_on_c, 0, 80, 88
1, 61446, Note_off_c, 0, 89, 62
1, 61451, Note_off_c, 0, 77, 62
1, 61458, Note_off_c, 0, 56, 60
1, 61477, Note_off_c, 0, 83, 63
1, 61485, Note_off_c, 0, 80, 62
1, 61664, Note_on_c, 0, 71, 62
1, 61680, Note_on_c, 0, 65, 73
1, 61681, Note_on_c, 0, 62, 66
1, 61700, Note_off_c, 0, 71, 60
1, 61721, Note_off_c, 0, 65, 57
1, 61738, Note_off_c, 0, 62, 57
1, 61752, Note_on_c, 0, 68, 51
1, 61762, Note_on_c, 0, 71, 80
1, 61780, Note_on_c, 0, 65, 68
1, 61788, Note_on_c, 0, 62, 66
1, 61807, Note_off_c, 0, 68, 60
1, 61863, Note_off_c, 0, 65, 57
1, 61887, Note_on_c, 0, 74, 94
1, 61888, Note_off_c, 0, 71, 61
1, 61897, Note_on_c, 0, 59, 83
1, 61920, Note_off_c, 0, 62, 57
1, 61936, Note_on_c, 0, 76, 60
1, 61938, Control_c, 0, 64, 93
1, 61939, Note_on_c, 0, 67, 44
1, 61952, Control_c, 0, 64, 58
1, 61964, Note_off_c, 0, 67, 47
1, 61967, Control_c, 0, 64, 0
1, 61993, Note_on_c, 0, 60, 80
1, 61995, Note_off_c, 0, 76, 53
1, 61997, Note_on_c, 0, 72, 76
1, 62012, Control_c, 0, 64, 50
1, 62026, Control_c, 0, 64, 69
1, 62041, Control_c, 0, 64, 81
1, 62056, Control_c, 0, 64, 104
1, 62072, Control_c, 0, 64, 127
1, 62085, Note_on_c, 0, 62, 84
1, 62104, Note_on_c, 0, 71, 78
1, 62115, Note_off_c, 0, 60, 51
1, 62125, Note_off_c, 0, 62, 58
1, 62125, Note_off_c, 0, 71, 67
1, 62132, Note_off_c, 0, 74, 54
1, 62137, Note_off_c, 0, 72, 63
1, 62160, Note_off_c, 0, 59, 35
1, 62229, Note_on_c, 0, 40, 84
1, 62235, Note_on_c, 0, 76, 96
1, 62236, Note_on_c, 0, 88, 95
1, 62249, Control_c, 0, 64, 80
1, 62255, Note_on_c, 0, 48, 80
1, 62264, Control_c, 0, 64, 55
1, 62279, Control_c, 0, 64, 0
1, 62287, Note_off_c, 0, 40, 63
1, 62308, Control_c, 0, 64, 39
1, 62323, Control_c, 0, 64, 67
1, 62326, Note_on_c, 0, 57, 84
1, 62338, Control_c, 0, 64, 83
1, 62339, Note_on_c, 0, 84, 74
1, 62340, Note_on_c, 0, 81, 58
1, 62344, Note_off_c, 0, 48, 62
1, 62353, Note_off_c, 0, 88, 61
1, 62353, Control_c, 0, 64, 127
1, 62365, Note_off_c, 0, 76, 60
1, 62378, Note_off_c, 0, 57, 61
1, 62381, Note_off_c, 0, 84, 61
1, 62386, Note_off_c, 0, 81, 63
1, 62578, Note_on_c, 0, 69, 60
1, 62579, Note_on_c, 0, 64, 65
1, 62615, Note_on_c, 0, 60, 45
1, 62619, Note_off_c, 0, 64, 61
1, 62623, Note_on_c, 0, 70, 16
1, 62625, Note_off_c, 0, 69, 58
1, 62633, Note_on_c, 0, 59, 37
1, 62644, Note_off_c, 0, 60, 53
1, 62666, Note_off_c, 0, 59, 48
1, 62668, Note_off_c, 0, 70, 39
1, 62698, Note_on_c, 0, 69, 72
1, 62702, Note_on_c, 0, 64, 67
1, 62709, Note_on_c, 0, 60, 79
1, 62805, Note_on_c, 0, 57, 76
1, 62805, Control_c, 0, 64, 118
1, 62807, Note_on_c, 0, 72, 86
1, 62811, Note_off_c, 0, 69, 64
1, 62820, Control_c, 0, 64, 80
1, 62835, Control_c, 0, 64, 59
1, 62838, Note_off_c, 0, 60, 55
1, 62849, Control_c, 0, 64, 0
1, 62921, Note_on_c, 0, 59, 88
1, 62922, Note_on_c, 0, 71, 89
1, 62953, Note_off_c, 0, 57, 58
1, 62954, Note_off_c, 0, 64, 60
1, 62969, Control_c, 0, 64, 44
1, 62984, Control_c, 0, 64, 61
1, 62998, Control_c, 0, 64, 69
1, 63013, Control_c, 0, 64, 76
1, 63023, Note_on_c, 0, 60, 80
1, 63028, Control_c, 0, 64, 85
1, 63035, Note_on_c, 0, 69, 96
1, 63038, Note_off_c, 0, 59, 60
1, 63043, Control_c, 0, 64, 94
1, 63056, Note_off_c, 0, 72, 46
1, 63057, Control_c, 0, 64, 98
1, 63067, Note_off_c, 0, 71, 61
1, 63072, Control_c, 0, 64, 99
1, 63087, Control_c, 0, 64, 100
1, 63091, Note_off_c, 0, 60, 57
1, 63102, Control_c, 0, 64, 103
1, 63116, Control_c, 0, 64, 108
1, 63131, Control_c, 0, 64, 116
1, 63146, Control_c, 0, 64, 119
1, 63161, Control_c, 0, 64, 111
1, 63176, Control_c, 0, 64, 76
1, 63191, Control_c, 0, 64, 52
1, 63205, Control_c, 0, 64, 0
1, 63210, Note_on_c, 0, 47, 66
1, 63214, Note_on_c, 0, 57, 66
1, 63216, Note_on_c, 0, 53, 68
1, 63224, Note_on_c, 0, 74, 83
1, 63225, Note_on_c, 0, 62, 73
1, 63250, Control_c, 0, 64, 39
1, 63263, Note_off_c, 0, 69, 58
1, 63265, Control_c, 0, 64, 67
1, 63269, Note_off_c, 0, 62, 59
1, 63280, Control_c, 0, 64, 84
1, 63295, Control_c, 0, 64, 127
1, 63298, Note_off_c, 0, 74, 61
1, 63357, Note_off_c, 0, 57, 59
1, 63360, Poly_aftertouch_c, 0, 64, 0
1, 63381, Note_on_c, 0, 77, 88
1, 63384, Note_on_c, 0, 65, 84
1, 63389, Note_off_c, 0, 53, 57
1, 63421, Note_off_c, 0, 47, 55
1, 63429, Note_off_c, 0, 65, 61
1, 63430, Note_off_c, 0, 77, 60
1, 63495, Note_on_c, 0, 64, 85
1, 63495, Note_on_c, 0, 76, 90
1, 63537, Note_off_c, 0, 64, 62
1, 63571, Note_off_c, 0, 76, 59
1, 63572, Note_on_c, 0, 40, 76
1, 63612, Note_on_c, 0, 75, 86
1, 63615, Note_on_c, 0, 63, 91
1, 63628, Control_c, 0, 64, 89
1, 63642, Control_c, 0, 64, 60
1, 63657, Control_c, 0, 64, 0
1, 63672, Note_off_c, 0, 40, 60
1, 63687, Note_off_c, 0, 63, 60
1, 63700, Note_off_c, 0, 75, 63
1, 63703, Control_c, 0, 64, 51
1, 63718, Control_c, 0, 64, 71
1, 63731, Note_on_c, 0, 56, 83
1, 63733, Note_on_c, 0, 64, 90
1, 63733, Control_c, 0, 64, 86
1, 63735, Note_on_c, 0, 76, 92
1, 63748, Control_c, 0, 64, 127
1, 63768, Note_on_c, 0, 57, 42
1, 63784, Note_off_c, 0, 76, 65
1, 63789, Note_off_c, 0, 64, 60
1, 63796, Note_off_c, 0, 57, 57
1, 63805, Note_off_c, 0, 56, 59
1, 63852, Poly_aftertouch_c, 0, 65, 0
1, 63858, Note_on_c, 0, 59, 96
1, 63859, Note_on_c, 0, 71, 95
1, 63908, Note_off_c, 0, 59, 61
1, 63924, Note_off_c, 0, 71, 63
1, 64003, Note_on_c, 0, 74, 107
1, 64004, Note_on_c, 0, 62, 97
1, 64049, Note_off_c, 0, 62, 61
1, 64060, Note_off_c, 0, 74, 61
1, 64151, Note_on_c, 0, 72, 96
1, 64153, Note_on_c, 0, 60, 95
1, 64207, Note_off_c, 0, 60, 60
1, 64216, Note_off_c, 0, 72, 60
1, 64331, Note_on_c, 0, 45, 63
1, 64332, Note_on_c, 0, 56, 86
1, 64333, Note_on_c, 0, 50, 62
1, 64334, Note_on_c, 0, 71, 89
1, 64335, Note_on_c, 0, 64, 80
1, 64337, Note_on_c, 0, 52, 77
1, 64338, Note_on_c, 0, 59, 88
1, 64347, Control_c, 0, 64, 106
1, 64362, Control_c, 0, 64, 71
1, 64377, Control_c, 0, 64, 26
1, 64392, Control_c, 0, 64, 0
1, 64446, Note_off_c, 0, 56, 61
1, 64450, Control_c, 0, 64, 58
1, 64466, Control_c, 0, 64, 69
1, 64481, Control_c, 0, 64, 77
1, 64493, Note_on_c, 0, 55, 68
1, 64495, Control_c, 0, 64, 84
1, 64496, Note_on_c, 0, 67, 76
1, 64497, Note_off_c, 0, 50, 56
1, 64499, Note_off_c, 0, 64, 54
1, 64503, Note_off_c, 0, 52, 50
1, 64510, Control_c, 0, 64, 85
1, 64525, Control_c, 0, 64, 86
1, 64540, Control_c, 0, 64, 88
1, 64555, Control_c, 0, 64, 92
1, 64569, Control_c, 0, 64, 95
1, 64584, Control_c, 0, 64, 96
1, 64621, Note_on_c, 0, 65, 69
1, 64625, Note_off_c, 0, 71, 30
1, 64630, Note_on_c, 0, 53, 68
1, 64636, Note_off_c, 0, 55, 54
1, 64724, Note_off_c, 0, 59, 33
1, 64727, Note_on_c, 0, 64, 73
1, 64737, Note_on_c, 0, 52, 66
1, 64741, Note_off_c, 0, 65, 58
1, 64742, Note_off_c, 0, 67, 40
1, 64749, Note_off_c, 0, 53, 56
1, 64764, Note_off_c, 0, 52, 65
1, 64771, Note_off_c, 0, 64, 60
1, 64814, Note_off_c, 0, 45, 34
1, 64902, Control_c, 0, 64, 93
1, 64908, Note_on_c, 0, 52, 61
1, 64910, Note_on_c, 0, 69, 73
1, 64912, Note_on_c, 0, 64, 62
1, 64914, Note_on_c, 0, 57, 69
1, 64914, Note_on_c, 0, 45, 47
1, 64914, Note_on_c, 0, 48, 62
1, 64917, Control_c, 0, 64, 75
1, 64932, Control_c, 0, 64, 56
1, 64947, Control_c, 0, 64, 0
1, 65021, Control_c, 0, 64, 55
1, 65036, Control_c, 0, 64, 68
1, 65051, Control_c, 0, 64, 75
1, 65066, Control_c, 0, 64, 81
1, 65080, Control_c, 0, 64, 84
1, 65083, Note_off_c, 0, 45, 52
1, 65095, Control_c, 0, 64, 85
1, 65098, Note_off_c, 0, 48, 58
1, 65110, Note_off_c, 0, 57, 35
1, 65110, Control_c, 0, 64, 86
1, 65125, Control_c, 0, 64, 89
1, 65138, Note_off_c, 0, 52, 33
1, 65140, Control_c, 0, 64, 91
1, 65154, Control_c, 0, 64, 93
1, 65169, Control_c, 0, 64, 94
1, 65184, Control_c, 0, 64, 94
1, 65217, Note_off_c, 0, 64, 47
1, 65229, Note_off_c, 0, 69, 49
1, 65496, Control_c, 0, 64, 94
1, 65510, Control_c, 0, 64, 93
1, 65651, Control_c, 0, 64, 92
1, 65666, Control_c, 0, 64, 84
1, 65681, Control_c, 0, 64, 69
1, 65686, Note_on_c, 0, 81, 59
1, 65690, Note_on_c, 0, 69, 57
1, 65693, Note_on_c, 0, 57, 49
1, 65696, Control_c, 0, 64, 55
1, 65697, Note_on_c, 0, 60, 49
1, 65710, Control_c, 0, 64, 34
1, 65720, Note_off_c, 0, 57, 57
1, 65721, Note_off_c, 0, 69, 51
1, 65725, Control_c, 0, 64, 0
1, 65733, Note_off_c, 0, 60, 61
1, 65749, Note_off_c, 0, 81, 56
1, 65784, Note_on_c, 0, 93, 63
1, 65837, Note_off_c, 0, 93, 40
1, 65888, Note_on_c, 0, 80, 68
1, 65891, Note_on_c, 0, 92, 66
1, 65912, Note_on_c, 0, 72, 50
1, 65916, Note_on_c, 0, 64, 46
1, 65916, Note_off_c, 0, 80, 64
1, 65919, Note_off_c, 0, 92, 65
1, 65936, Note_off_c, 0, 72, 58
1, 65943, Note_off_c, 0, 64, 56
1, 65999, Note_on_c, 0, 91, 66
1, 66002, Note_on_c, 0, 79, 59
1, 66018, Note_off_c, 0, 91, 64
1, 66021, Note_off_c, 0, 79, 65
1, 66082, Control_c, 0, 64, 18
1, 66097, Control_c, 0, 64, 21
1, 66102, Note_on_c, 0, 78, 75
1, 66109, Note_on_c, 0, 62, 60
1, 66111, Note_on_c, 0, 90, 65
1, 66112, Control_c, 0, 64, 23
1, 66112, Note_on_c, 0, 71, 54
1, 66127, Control_c, 0, 64, 23
1, 66133, Note_off_c, 0, 78, 59
1, 66133, Note_off_c, 0, 71, 59
1, 66140, Note_off_c, 0, 90, 63
1, 66146, Note_off_c, 0, 62, 57
1, 66162, Poly_aftertouch_c, 0, 91, 127
1, 66186, Control_c, 0, 64, 24
1, 66189, Poly_aftertouch_c, 0, 91, 0
1, 66207, Note_on_c, 0, 89, 73
1, 66209, Note_on_c, 0, 77, 70
1, 66231, Note_off_c, 0, 89, 63
1, 66233, Note_off_c, 0, 77, 64
1, 66310, Note_on_c, 0, 60, 67
1, 66311, Note_on_c, 0, 76, 75
1, 66315, Note_on_c, 0, 88, 61
1, 66323, Note_on_c, 0, 69, 50
1, 66340, Note_off_c, 0, 76, 69
1, 66340, Note_off_c, 0, 88, 64
1, 66350, Note_off_c, 0, 69, 60
1, 66356, Note_off_c, 0, 60, 56
1, 66401, Control_c, 0, 64, 24
1, 66415, Control_c, 0, 64, 25
1, 66416, Note_on_c, 0, 75, 78
1, 66425, Note_on_c, 0, 87, 67
1, 66429, Note_on_c, 0, 88, 44
1, 66430, Control_c, 0, 64, 27
1, 66443, Note_off_c, 0, 75, 63
1, 66445, Control_c, 0, 64, 30
1, 66454, Note_off_c, 0, 88, 57
1, 66456, Note_off_c, 0, 87, 63
1, 66459, Control_c, 0, 64, 31
1, 66474, Control_c, 0, 64, 32
1, 66524, Note_on_c, 0, 52, 69
1, 66527, Note_on_c, 0, 77, 75
1, 66527, Note_on_c, 0, 89, 80
1, 66538, Note_on_c, 0, 56, 55
1, 66546, Note_off_c, 0, 89, 65
1, 66553, Note_off_c, 0, 77, 61
1, 66564, Note_off_c, 0, 56, 57
1, 66565, Note_off_c, 0, 52, 54
1, 66627, Poly_aftertouch_c, 0, 64, 0
1, 66629, Note_on_c, 0, 76, 79
1, 66639, Note_on_c, 0, 88, 50
1, 66657, Note_off_c, 0, 76, 64
1, 66662, Note_off_c, 0, 88, 60
1, 66711, Control_c, 0, 64, 32
1, 66732, Note_on_c, 0, 75, 76
1, 66738, Note_on_c, 0, 67, 60
1, 66739, Note_on_c, 0, 59, 60
1, 66741, Control_c, 0, 64, 33
1, 66744, Note_on_c, 0, 87, 66
1, 66747, Note_on_c, 0, 88, 44
1, 66753, Note_off_c, 0, 75, 69
1, 66756, Control_c, 0, 64, 34
1, 66761, Note_off_c, 0, 67, 60
1, 66771, Note_off_c, 0, 87, 65
1, 66771, Control_c, 0, 64, 35
1, 66772, Note_off_c, 0, 88, 58
1, 66774, Note_off_c, 0, 59, 62
1, 66785, Control_c, 0, 64, 36
1, 66800, Control_c, 0, 64, 36
1, 66815, Control_c, 0, 64, 37
1, 66830, Note_on_c, 0, 77, 79
1, 66830, Note_on_c, 0, 89, 81
1, 66857, Note_on_c, 0, 87, 46
1, 66860, Note_off_c, 0, 89, 54
1, 66863, Note_off_c, 0, 77, 57
1, 66880, Note_off_c, 0, 87, 58
1, 66943, Note_on_c, 0, 57, 65
1, 66944, Note_on_c, 0, 65, 68
1, 66944, Note_on_c, 0, 76, 79
1, 66957, Note_on_c, 0, 88, 44
1, 66979, Note_off_c, 0, 65, 55
1, 66985, Note_off_c, 0, 88, 53
1, 66997, Note_off_c, 0, 57, 56
1, 67030, Note_on_c, 0, 83, 74
1, 67049, Note_off_c, 0, 76, 35
1, 67056, Note_off_c, 0, 83, 65
1, 67148, Note_on_c, 0, 64, 52
1, 67151, Note_on_c, 0, 56, 45
1, 67152, Note_on_c, 0, 71, 71
1, 67158, Note_on_c, 0, 80, 69
1, 67170, Note_off_c, 0, 64, 61
1, 67179, Note_off_c, 0, 56, 54
1, 67187, Note_off_c, 0, 71, 56
1, 67209, Control_c, 0, 64, 37
1, 67254, Note_on_c, 0, 76, 63
1, 67259, Note_off_c, 0, 80, 55
1, 67280, Note_off_c, 0, 76, 65
1, 67342, Note_on_c, 0, 60, 64
1, 67350, Note_on_c, 0, 69, 62
1, 67358, Note_on_c, 0, 81, 63
1, 67360, Note_on_c, 0, 57, 41
1, 67375, Note_off_c, 0, 60, 57
1, 67376, Note_off_c, 0, 69, 61
1, 67388, Note_off_c, 0, 57, 54
1, 67423, Note_off_c, 0, 81, 60
1, 67441, Note_on_c, 0, 93, 72
1, 67543, Note_on_c, 0, 80, 66
1, 67543, Note_on_c, 0, 92, 70
1, 67553, Note_on_c, 0, 72, 60
1, 67555, Note_on_c, 0, 64, 58
1, 67568, Note_off_c, 0, 80, 65
1, 67572, Note_off_c, 0, 92, 62
1, 67573, Note_off_c, 0, 72, 61
1, 67587, Note_off_c, 0, 64, 63
1, 67596, Note_off_c, 0, 93, 43
1, 67636, Note_on_c, 0, 91, 76
1, 67642, Note_on_c, 0, 79, 73
1, 67677, Note_off_c, 0, 79, 62
1, 67683, Note_off_c, 0, 91, 55
1, 67749, Note_on_c, 0, 62, 68
1, 67750, Note_on_c, 0, 78, 76
1, 67753, Note_on_c, 0, 71, 60
1, 67757, Note_on_c, 0, 90, 66
1, 67779, Note_off_c, 0, 78, 60
1, 67780, Note_off_c, 0, 71, 62
1, 67784, Note_off_c, 0, 90, 64
1, 67786, Note_off_c, 0, 62, 54
1, 67862, Note_on_c, 0, 89, 77
1, 67865, Note_on_c, 0, 77, 75
1, 67883, Note_off_c, 0, 89, 65
1, 67891, Note_off_c, 0, 77, 63
1, 67958, Note_on_c, 0, 60, 67
1, 67966, Note_on_c, 0, 76, 81
1, 67969, Note_on_c, 0, 88, 72
1, 67971, Note_on_c, 0, 69, 54
1, 67990, Note_off_c, 0, 69, 62
1, 67991, Note_off_c, 0, 76, 65
1, 67996, Note_off_c, 0, 88, 61
1, 67999, Note_off_c, 0, 60, 59
1, 68070, Note_on_c, 0, 75, 70
1, 68078, Note_on_c, 0, 87, 64
1, 68087, Note_off_c, 0, 75, 67
1, 68105, Note_off_c, 0, 87, 61
1, 68160, Note_on_c, 0, 57, 51
1, 68166, Note_on_c, 0, 60, 53
1, 68172, Note_on_c, 0, 89, 84
1, 68174, Note_on_c, 0, 65, 52
1, 68175, Note_on_c, 0, 77, 78
1, 68204, Note_off_c, 0, 89, 58
1, 68204, Note_off_c, 0, 77, 58
1, 68281, Note_on_c, 0, 76, 81
1, 68284, Note_on_c, 0, 88, 61
1, 68303, Note_off_c, 0, 88, 60
1, 68309, Note_off_c, 0, 76, 63
1, 68329, Note_off_c, 0, 65, 53
1, 68347, Note_off_c, 0, 60, 59
1, 68348, Note_off_c, 0, 57, 60
1, 68387, Note_on_c, 0, 75, 72
1, 68392, Note_on_c, 0, 87, 62
1, 68395, Note_on_c, 0, 88, 46
1, 68410, Note_off_c, 0, 75, 68
1, 68420, Note_off_c, 0, 88, 57
1, 68425, Note_off_c, 0, 87, 62
1, 68493, Note_on_c, 0, 89, 76
1, 68497, Note_on_c, 0, 77, 65
1, 68515, Note_off_c, 0, 89, 62
1, 68526, Note_off_c, 0, 77, 62
1, 68597, Note_on_c, 0, 52, 50
1, 68598, Note_on_c, 0, 64, 54
1, 68606, Note_on_c, 0, 88, 57
1, 68607, Note_on_c, 0, 76, 63
1, 68617, Control_c, 0, 64, 39
1, 68620, Note_on_c, 0, 56, 47
1, 68632, Control_c, 0, 64, 50
1, 68647, Control_c, 0, 64, 61
1, 68661, Control_c, 0, 64, 65
1, 68676, Control_c, 0, 64, 69
1, 68683, Note_off_c, 0, 76, 46
1, 68688, Note_off_c, 0, 52, 54
1, 68691, Control_c, 0, 64, 74
1, 68706, Control_c, 0, 64, 78
1, 68721, Note_off_c, 0, 56, 57
1, 68721, Control_c, 0, 64, 81
1, 68733, Note_off_c, 0, 64, 56
1, 68735, Control_c, 0, 64, 83
1, 68750, Control_c, 0, 64, 84
1, 68765, Control_c, 0, 64, 85
1, 68780, Control_c, 0, 64, 86
1, 68795, Control_c, 0, 64, 87
1, 68821, Note_on_c, 0, 76, 67
1, 68824, Control_c, 0, 64, 87
1, 68839, Control_c, 0, 64, 84
1, 68851, Note_off_c, 0, 76, 64
1, 68854, Control_c, 0, 64, 76
1, 68869, Control_c, 0, 64, 67
1, 68884, Control_c, 0, 64, 59
1, 68892, Note_off_c, 0, 88, 60
1, 68899, Control_c, 0, 64, 53
1, 68914, Control_c, 0, 64, 52
1, 69014, Note_on_c, 0, 57, 52
1, 69015, Note_on_c, 0, 81, 63
1, 69020, Note_on_c, 0, 60, 56
1, 69021, Note_on_c, 0, 69, 49
1, 69048, Note_off_c, 0, 57, 64
1, 69050, Note_off_c, 0, 69, 53
1, 69054, Note_off_c, 0, 60, 61
1, 69075, Note_off_c, 0, 81, 56
1, 69108, Note_on_c, 0, 93, 61
1, 69207, Note_on_c, 0, 80, 58
1, 69209, Note_on_c, 0, 92, 60
1, 69222, Note_on_c, 0, 72, 45
1, 69226, Note_off_c, 0, 93, 25
1, 69227, Note_off_c, 0, 80, 63
1, 69230, Note_off_c, 0, 92, 63
1, 69232, Note_on_c, 0, 64, 34
1, 69248, Note_off_c, 0, 72, 57
1, 69264, Note_off_c, 0, 64, 52
1, 69304, Note_on_c, 0, 91, 65
1, 69307, Note_on_c, 0, 79, 59
1, 69334, Note_off_c, 0, 79, 64
1, 69336, Note_off_c, 0, 91, 59
1, 69421, Note_on_c, 0, 78, 71
1, 69427, Note_on_c, 0, 90, 62
1, 69434, Note_on_c, 0, 62, 55
1, 69451, Note_off_c, 0, 78, 61
1, 69455, Note_off_c, 0, 90, 61
1, 69471, Note_off_c, 0, 62, 60
1, 69525, Note_on_c, 0, 89, 74
1, 69525, Note_on_c, 0, 77, 70
1, 69549, Note_off_c, 0, 89, 62
1, 69553, Note_off_c, 0, 77, 61
1, 69632, Note_on_c, 0, 76, 78
1, 69632, Note_on_c, 0, 60, 64
1, 69640, Note_on_c, 0, 69, 53
1, 69641, Note_on_c, 0, 88, 58
1, 69659, Note_off_c, 0, 76, 63
1, 69661, Note_off_c, 0, 69, 61
1, 69662, Note_off_c, 0, 88, 60
1, 69670, Note_off_c, 0, 60, 57
1, 69737, Note_on_c, 0, 75, 69
1, 69743, Note_on_c, 0, 87, 63
1, 69761, Note_off_c, 0, 75, 65
1, 69763, Note_off_c, 0, 87, 64
1, 69834, Note_on_c, 0, 52, 62
1, 69839, Note_on_c, 0, 89, 79
1, 69842, Note_on_c, 0, 77, 72
1, 69847, Note_on_c, 0, 56, 57
1, 69850, Note_on_c, 0, 64, 40
1, 69860, Note_off_c, 0, 89, 64
1, 69868, Note_off_c, 0, 77, 63
1, 69874, Note_off_c, 0, 52, 57
1, 69886, Note_off_c, 0, 56, 63
1, 69887, Note_off_c, 0, 64, 48
1, 69942, Note_on_c, 0, 76, 77
1, 69951, Note_on_c, 0, 88, 54
1, 69970, Note_off_c, 0, 76, 65
1, 69972, Note_off_c, 0, 88, 62
1, 70047, Note_on_c, 0, 75, 73
1, 70051, Note_on_c, 0, 87, 64
1, 70052, Note_on_c, 0, 59, 63
1, 70056, Note_on_c, 0, 67, 60
1, 70057, Note_on_c, 0, 88, 48
1, 70078, Note_off_c, 0, 75, 67
1, 70085, Note_off_c, 0, 67, 62
1, 70088, Note_off_c, 0, 87, 63
1, 70089, Note_off_c, 0, 88, 58
1, 70097, Note_off_c, 0, 59, 58
1, 70101, Control_c, 0, 64, 52
1, 70157, Note_on_c, 0, 89, 76
1, 70159, Note_on_c, 0, 77, 72
1, 70178, Note_off_c, 0, 89, 66
1, 70186, Note_off_c, 0, 77, 63
1, 70264, Note_on_c, 0, 65, 67
1, 70265, Note_on_c, 0, 57, 60
1, 70267, Note_on_c, 0, 76, 71
1, 70304, Note_off_c, 0, 65, 54
1, 70321, Poly_aftertouch_c, 0, 88, 127
1, 70323, Note_off_c, 0, 57, 55
1, 70354, Note_on_c, 0, 83, 71
1, 70357, Poly_aftertouch_c, 0, 88, 0
1, 70378, Note_off_c, 0, 83, 67
1, 70394, Note_off_c, 0, 76, 36
1, 70454, Note_on_c, 0, 64, 58
1, 70455, Note_on_c, 0, 56, 57
1, 70465, Note_on_c, 0, 71, 69
1, 70476, Note_on_c, 0, 80, 64
1, 70485, Note_off_c, 0, 56, 54
1, 70485, Note_off_c, 0, 64, 61
1, 70498, Note_off_c, 0, 71, 55
1, 70556, Note_on_c, 0, 76, 72
1, 70581, Note_off_c, 0, 76, 65
1, 70608, Note_off_c, 0, 80, 36
1, 70658, Note_on_c, 0, 60, 52
1, 70664, Note_on_c, 0, 57, 49
1, 70671, Note_on_c, 0, 81, 71
1, 70675, Note_on_c, 0, 69, 46
1, 70691, Note_off_c, 0, 57, 59
1, 70693, Note_off_c, 0, 60, 61
1, 70700, Note_off_c, 0, 69, 55
1, 70739, Note_off_c, 0, 81, 60
1, 70755, Note_on_c, 0, 93, 67
1, 70832, Note_off_c, 0, 93, 0
1, 70856, Note_on_c, 0, 80, 67
1, 70860, Note_on_c, 0, 92, 65
1, 70869, Note_on_c, 0, 64, 57
1, 70869, Note_on_c, 0, 72, 54
1, 70870, Poly_aftertouch_c, 0, 93, 127
1, 70883, Note_off_c, 0, 80, 64
1, 70890, Note_off_c, 0, 92, 66
1, 70890, Note_off_c, 0, 72, 60
1, 70902, Note_off_c, 0, 64, 62
1, 70922, Poly_aftertouch_c, 0, 93, 0
1, 70960, Note_on_c, 0, 91, 70
1, 70962, Note_on_c, 0, 79, 66
1, 70980, Note_off_c, 0, 91, 60
1, 70992, Note_off_c, 0, 79, 64
1, 71069, Note_on_c, 0, 78, 70
1, 71072, Note_on_c, 0, 62, 66
1, 71075, Note_on_c, 0, 71, 57
1, 71075, Note_on_c, 0, 90, 63
1, 71097, Note_off_c, 0, 71, 59
1, 71101, Note_off_c, 0, 78, 60
1, 71108, Note_off_c, 0, 90, 63
1, 71109, Note_off_c, 0, 62, 55
1, 71138, Poly_aftertouch_c, 0, 91, 127
1, 71163, Poly_aftertouch_c, 0, 91, 0
1, 71172, Note_on_c, 0, 89, 74
1, 71176, Note_on_c, 0, 77, 69
1, 71194, Note_off_c, 0, 89, 64
1, 71203, Note_off_c, 0, 77, 63
1, 71276, Note_on_c, 0, 60, 64
1, 71282, Note_on_c, 0, 69, 59
1, 71284, Note_on_c, 0, 76, 69
1, 71288, Note_on_c, 0, 88, 56
1, 71302, Note_off_c, 0, 69, 64
1, 71310, Note_off_c, 0, 88, 59
1, 71311, Note_off_c, 0, 76, 65
1, 71317, Note_off_c, 0, 60, 56
1, 71383, Note_on_c, 0, 75, 66
1, 71397, Note_on_c, 0, 87, 53
1, 71402, Note_off_c, 0, 75, 66
1, 71418, Note_off_c, 0, 87, 62
1, 71484, Note_on_c, 0, 89, 80
1, 71487, Note_on_c, 0, 77, 69
1, 71488, Note_on_c, 0, 57, 54
1, 71492, Note_on_c, 0, 65, 60
1, 71495, Note_on_c, 0, 60, 59
1, 71507, Note_off_c, 0, 89, 61
1, 71513, Note_off_c, 0, 77, 62
1, 71601, Note_on_c, 0, 76, 72
1, 71605, Note_on_c, 0, 88, 54
1, 71627, Note_off_c, 0, 76, 67
1, 71627, Note_off_c, 0, 88, 57
1, 71641, Note_off_c, 0, 65, 56
1, 71663, Note_off_c, 0, 57, 59
1, 71663, Note_off_c, 0, 60, 58
1, 71701, Note_on_c, 0, 75, 68
1, 71707, Note_on_c, 0, 88, 57
1, 71710, Note_on_c, 0, 87, 54
1, 71725, Note_off_c, 0, 75, 67
1, 71725, Note_off_c, 0, 88, 64
1, 71734, Note_off_c, 0, 87, 61
1, 71799, Note_on_c, 0, 89, 81
1, 71802, Note_on_c, 0, 77, 73
1, 71833, Note_off_c, 0, 77, 57
1, 71836, Note_off_c, 0, 89, 56
1, 71850, Control_c, 0, 64, 52
1, 71865, Control_c, 0, 64, 49
1, 71880, Control_c, 0, 64, 44
1, 71895, Control_c, 0, 64, 41
1, 71905, Note_on_c, 0, 52, 60
1, 71907, Note_on_c, 0, 64, 58
1, 71910, Control_c, 0, 64, 41
1, 71920, Note_on_c, 0, 88, 70
1, 71921, Note_on_c, 0, 76, 66
1, 71925, Control_c, 0, 64, 41
1, 71931, Note_on_c, 0, 56, 55
1, 71940, Control_c, 0, 64, 51
1, 71954, Control_c, 0, 64, 64
1, 71969, Control_c, 0, 64, 70
1, 71972, Note_off_c, 0, 52, 54
1, 71981, Note_off_c, 0, 76, 54
1, 71984, Control_c, 0, 64, 75
1, 71998, Control_c, 0, 64, 80
1, 72001, Note_off_c, 0, 56, 55
1, 72008, Note_off_c, 0, 64, 57
1, 72013, Control_c, 0, 64, 82
1, 72028, Control_c, 0, 64, 83
1, 72043, Control_c, 0, 64, 84
1, 72058, Control_c, 0, 64, 84
1, 72072, Control_c, 0, 64, 85
1, 72087, Control_c, 0, 64, 86
1, 72102, Control_c, 0, 64, 86
1, 72118, Note_on_c, 0, 76, 77
1, 72132, Control_c, 0, 64, 84
1, 72146, Control_c, 0, 64, 70
1, 72155, Note_off_c, 0, 76, 62
1, 72161, Control_c, 0, 64, 47
1, 72176, Control_c, 0, 64, 0
1, 72187, Note_off_c, 0, 88, 61
1, 72217, Poly_aftertouch_c, 0, 57, 0
1, 72302, Note_on_c, 0, 81, 97
1, 72309, Note_on_c, 0, 69, 90
1, 72310, Note_on_c, 0, 57, 81
1, 72327, Note_on_c, 0, 61, 83
1, 72374, Note_off_c, 0, 57, 60
1, 72390, Note_off_c, 0, 69, 61
1, 72405, Note_off_c, 0, 61, 59
1, 72410, Note_on_c, 0, 93, 93
1, 72416, Note_off_c, 0, 81, 60
1, 72509, Note_on_c, 0, 80, 92
1, 72515, Note_on_c, 0, 70, 79
1, 72517, Note_on_c, 0, 92, 79
1, 72521, Note_on_c, 0, 62, 73
1, 72541, Note_off_c, 0, 80, 62
1, 72549, Note_off_c, 0, 93, 58
1, 72564, Note_off_c, 0, 70, 53
1, 72565, Note_off_c, 0, 92, 60
1, 72585, Note_off_c, 0, 62, 56
1, 72619, Note_on_c, 0, 91, 90
1, 72623, Note_on_c, 0, 79, 83
1, 72658, Note_off_c, 0, 79, 61
1, 72659, Note_off_c, 0, 91, 57
1, 72727, Note_on_c, 0, 61, 74
1, 72728, Note_on_c, 0, 78, 85
1, 72730, Note_on_c, 0, 69, 69
1, 72737, Note_on_c, 0, 90, 68
1, 72755, Note_off_c, 0, 78, 58
1, 72759, Note_off_c, 0, 69, 64
1, 72762, Note_off_c, 0, 90, 66
1, 72774, Note_off_c, 0, 61, 57
1, 72824, Note_on_c, 0, 77, 82
1, 72824, Note_on_c, 0, 89, 85
1, 72861, Note_off_c, 0, 89, 59
1, 72862, Note_off_c, 0, 77, 60
1, 72926, Note_on_c, 0, 76, 85
1, 72927, Note_on_c, 0, 58, 69
1, 72931, Note_on_c, 0, 88, 71
1, 72932, Note_on_c, 0, 67, 64
1, 72948, Note_off_c, 0, 88, 65
1, 72950, Note_off_c, 0, 76, 62
1, 72974, Note_off_c, 0, 67, 53
1, 73000, Note_off_c, 0, 58, 54
1, 73019, Note_on_c, 0, 74, 85
1, 73022, Note_on_c, 0, 86, 80
1, 73057, Note_off_c, 0, 74, 63
1, 73060, Note_off_c, 0, 86, 58
1, 73138, Note_on_c, 0, 65, 71
1, 73138, Note_on_c, 0, 57, 68
1, 73143, Note_on_c, 0, 73, 77
1, 73151, Note_on_c, 0, 85, 64
1, 73175, Note_off_c, 0, 65, 53
1, 73186, Note_off_c, 0, 73, 57
1, 73194, Note_off_c, 0, 57, 59
1, 73233, Note_on_c, 0, 88, 71
1, 73267, Note_off_c, 0, 85, 27
1, 73281, Note_off_c, 0, 88, 58
1, 73341, Note_on_c, 0, 64, 69
1, 73342, Note_on_c, 0, 55, 71
1, 73345, Note_on_c, 0, 73, 73
1, 73352, Note_on_c, 0, 81, 65
1, 73370, Note_off_c, 0, 64, 60
1, 73387, Note_off_c, 0, 55, 56
1, 73409, Note_off_c, 0, 73, 57
1, 73433, Note_on_c, 0, 85, 61
1, 73464, Note_off_c, 0, 81, 57
1, 73495, Note_off_c, 0, 85, 60
1, 73528, Note_on_c, 0, 74, 75
1, 73529, Note_on_c, 0, 86, 73
1, 73530, Note_on_c, 0, 53, 64
1, 73531, Note_on_c, 0, 62, 72
1, 73570, Note_off_c, 0, 86, 49
1, 73573, Note_off_c, 0, 62, 54
1, 73578, Note_off_c, 0, 53, 49
1, 73625, Note_on_c, 0, 81, 68
1, 73648, Note_off_c, 0, 74, 59
1, 73651, Note_off_c, 0, 81, 66
1, 73667, Note_on_c, 0, 50, 76
1, 73689, Control_c, 0, 64, 46
1, 73702, Note_off_c, 0, 50, 63
1, 73704, Control_c, 0, 64, 60
1, 73719, Control_c, 0, 64, 66
1, 73734, Control_c, 0, 64, 72
1, 73738, Note_on_c, 0, 77, 76
1, 73742, Note_on_c, 0, 69, 75
1, 73749, Control_c, 0, 64, 78
1, 73755, Note_on_c, 0, 65, 79
1, 73764, Control_c, 0, 64, 83
1, 73778, Control_c, 0, 64, 84
1, 73806, Note_off_c, 0, 65, 56
1, 73808, Control_c, 0, 64, 84
1, 73830, Control_c, 0, 64, 78
1, 73832, Note_off_c, 0, 69, 38
1, 73834, Note_on_c, 0, 74, 86
1, 73845, Control_c, 0, 64, 69
1, 73857, Note_off_c, 0, 77, 48
1, 73859, Control_c, 0, 64, 58
1, 73874, Control_c, 0, 64, 47
1, 73876, Note_off_c, 0, 74, 63
1, 73889, Control_c, 0, 64, 35
1, 73904, Control_c, 0, 64, 22
1, 73919, Control_c, 0, 64, 21
1, 73965, Note_on_c, 0, 55, 60
1, 73967, Note_on_c, 0, 79, 78
1, 73967, Note_on_c, 0, 67, 69
1, 73974, Note_on_c, 0, 59, 60
1, 73996, Note_off_c, 0, 67, 62
1, 73997, Note_off_c, 0, 55, 63
1, 74008, Note_off_c, 0, 59, 63
1, 74044, Note_off_c, 0, 79, 58
1, 74057, Note_on_c, 0, 91, 64
1, 74142, Control_c, 0, 64, 22
1, 74148, Note_off_c, 0, 91, 0
1, 74155, Note_on_c, 0, 78, 70
1, 74157, Control_c, 0, 64, 23
1, 74158, Note_on_c, 0, 60, 62
1, 74162, Note_on_c, 0, 90, 66
1, 74166, Note_on_c, 0, 68, 56
1, 74172, Control_c, 0, 64, 24
1, 74185, Note_off_c, 0, 68, 63
1, 74185, Poly_aftertouch_c, 0, 91, 127
1, 74187, Control_c, 0, 64, 25
1, 74191, Note_off_c, 0, 78, 59
1, 74193, Note_off_c, 0, 90, 64
1, 74210, Note_off_c, 0, 60, 55
1, 74216, Control_c, 0, 64, 25
1, 74224, Poly_aftertouch_c, 0, 91, 0
1, 74231, Control_c, 0, 64, 26
1, 74261, Control_c, 0, 64, 27
1, 74265, Note_on_c, 0, 89, 64
1, 74267, Note_on_c, 0, 77, 67
1, 74282, Note_off_c, 0, 89, 65
1, 74290, Control_c, 0, 64, 27
1, 74293, Note_off_c, 0, 77, 65
1, 74369, Note_on_c, 0, 59, 66
1, 74369, Note_on_c, 0, 76, 74
1, 74372, Note_on_c, 0, 67, 61
1, 74377, Note_on_c, 0, 88, 58
1, 74395, Note_off_c, 0, 76, 65
1, 74397, Note_off_c, 0, 88, 60
1, 74402, Note_off_c, 0, 67, 63
1, 74408, Control_c, 0, 64, 28
1, 74411, Note_off_c, 0, 59, 61
1, 74423, Control_c, 0, 64, 28
1, 74438, Control_c, 0, 64, 29
1, 74453, Control_c, 0, 64, 30
1, 74467, Control_c, 0, 64, 32
1, 74474, Note_on_c, 0, 75, 76
1, 74480, Note_on_c, 0, 87, 66
1, 74482, Control_c, 0, 64, 34
1, 74497, Control_c, 0, 64, 36
1, 74500, Note_off_c, 0, 87, 66
1, 74502, Note_off_c, 0, 75, 63
1, 74512, Control_c, 0, 64, 37
1, 74527, Control_c, 0, 64, 37
1, 74579, Control_c, 0, 64, 38
1, 74584, Note_on_c, 0, 74, 85
1, 74588, Note_on_c, 0, 65, 64
1, 74588, Note_on_c, 0, 86, 76
1, 74590, Note_on_c, 0, 56, 62
1, 74614, Note_off_c, 0, 86, 59
1, 74621, Note_off_c, 0, 65, 60
1, 74622, Note_off_c, 0, 74, 57
1, 74634, Note_off_c, 0, 56, 60
1, 74690, Note_on_c, 0, 72, 70
1, 74715, Note_off_c, 0, 72, 66
1, 74787, Note_on_c, 0, 83, 73
1, 74788, Note_on_c, 0, 55, 68
1, 74790, Note_on_c, 0, 64, 66
1, 74791, Note_on_c, 0, 71, 61
1, 74816, Note_off_c, 0, 71, 53
1, 74824, Note_on_c, 0, 72, 38
1, 74825, Note_off_c, 0, 72, 127
1, 74827, Note_off_c, 0, 64, 55
1, 74854, Note_off_c, 0, 55, 58
1, 74861, Control_c, 0, 64, 38
1, 74883, Note_on_c, 0, 86, 72
1, 74921, Note_off_c, 0, 83, 37
1, 74923, Note_off_c, 0, 86, 49
1, 74992, Note_on_c, 0, 71, 63
1, 74993, Note_on_c, 0, 53, 70
1, 74995, Note_on_c, 0, 62, 67
1, 75024, Note_on_c, 0, 79, 47
1, 75026, Note_off_c, 0, 71, 58
1, 75028, Note_off_c, 0, 62, 59
1, 75052, Note_off_c, 0, 53, 55
1, 75083, Control_c, 0, 64, 39
1, 75084, Note_on_c, 0, 83, 55
1, 75138, Note_off_c, 0, 79, 36
1, 75149, Note_off_c, 0, 83, 43
1, 75177, Note_on_c, 0, 84, 75
1, 75181, Note_on_c, 0, 52, 52
1, 75181, Note_on_c, 0, 72, 73
1, 75187, Note_on_c, 0, 60, 66
1, 75202, Note_on_c, 0, 53, 39
1, 75204, Note_off_c, 0, 84, 58
1, 75211, Note_off_c, 0, 52, 56
1, 75229, Note_off_c, 0, 60, 51
1, 75236, Note_off_c, 0, 53, 48
1, 75243, Note_off_c, 0, 72, 54
1, 75260, Control_c, 0, 64, 38
1, 75275, Control_c, 0, 64, 33
1, 75290, Control_c, 0, 64, 24
1, 75297, Note_on_c, 0, 48, 78
1, 75305, Control_c, 0, 64, 23
1, 75310, Note_on_c, 0, 79, 4
1, 75337, Note_off_c, 0, 48, 65
1, 75341, Control_c, 0, 64, 24
1, 75356, Control_c, 0, 64, 25
1, 75369, Note_off_c, 0, 79, 26
1, 75371, Control_c, 0, 64, 26
1, 75389, Note_on_c, 0, 64, 71
1, 75403, Note_on_c, 0, 76, 75
1, 75412, Note_on_c, 0, 67, 70
1, 75419, Note_off_c, 0, 64, 57
1, 75430, Control_c, 0, 64, 0
1, 75489, Note_on_c, 0, 72, 72
1, 75499, Note_off_c, 0, 67, 56
1, 75523, Note_off_c, 0, 72, 65
1, 75528, Note_off_c, 0, 76, 57
1, 75543, Note_on_c, 0, 50, 52
1, 75564, Control_c, 0, 64, 30
1, 75566, Note_on_c, 0, 52, 50
1, 75579, Control_c, 0, 64, 61
1, 75587, Note_off_c, 0, 50, 62
1, 75590, Note_on_c, 0, 60, 50
1, 75594, Control_c, 0, 64, 69
1, 75594, Note_on_c, 0, 59, 41
1, 75594, Note_off_c, 0, 52, 55
1, 75609, Control_c, 0, 64, 75
1, 75617, Note_on_c, 0, 77, 72
1, 75621, Note_on_c, 0, 65, 80
1, 75623, Control_c, 0, 64, 81
1, 75624, Note_off_c, 0, 59, 54
1, 75632, Note_off_c, 0, 60, 58
1, 75638, Control_c, 0, 64, 82
1, 75657, Note_on_c, 0, 89, 75
1, 75666, Note_off_c, 0, 65, 61
1, 75676, Note_off_c, 0, 77, 60
1, 75684, Control_c, 0, 64, 77
1, 75685, Note_off_c, 0, 89, 60
1, 75698, Control_c, 0, 64, 67
1, 75713, Control_c, 0, 64, 58
1, 75728, Control_c, 0, 64, 44
1, 75743, Control_c, 0, 64, 30
1, 75758, Control_c, 0, 64, 0
1, 75805, Note_on_c, 0, 88, 73
1, 75808, Note_on_c, 0, 76, 75
1, 75824, Note_off_c, 0, 88, 70
1, 75830, Note_off_c, 0, 76, 69
1, 75913, Note_on_c, 0, 75, 73
1, 75913, Note_on_c, 0, 87, 73
1, 75943, Note_off_c, 0, 87, 57
1, 75949, Note_off_c, 0, 75, 57
1, 76012, Note_on_c, 0, 74, 63
1, 76023, Note_on_c, 0, 72, 54
1, 76031, Note_off_c, 0, 74, 63
1, 76043, Note_off_c, 0, 72, 60
1, 76095, Note_on_c, 0, 73, 81
1, 76100, Note_on_c, 0, 85, 77
1, 76130, Note_off_c, 0, 85, 57
1, 76142, Note_off_c, 0, 73, 58
1, 76210, Note_on_c, 0, 72, 62
1, 76215, Note_on_c, 0, 84, 56
1, 76235, Note_off_c, 0, 84, 59
1, 76236, Note_off_c, 0, 72, 65
1, 76239, Note_on_c, 0, 83, 38
1, 76298, Note_off_c, 0, 83, 0
1, 76302, Note_on_c, 0, 71, 77
1, 76308, Note_on_c, 0, 83, 60
1, 76317, Note_on_c, 0, 48, 62
1, 76324, Note_off_c, 0, 71, 64
1, 76357, Note_off_c, 0, 83, 61
1, 76364, Note_off_c, 0, 48, 57
1, 76370, Note_on_c, 0, 57, 60
1, 76372, Control_c, 0, 64, 44
1, 76387, Control_c, 0, 64, 63
1, 76402, Control_c, 0, 64, 69
1, 76417, Note_on_c, 0, 64, 76
1, 76417, Note_off_c, 0, 57, 60
1, 76417, Note_on_c, 0, 76, 79
1, 76417, Control_c, 0, 64, 74
1, 76432, Control_c, 0, 64, 79
1, 76441, Note_on_c, 0, 88, 76
1, 76448, Control_c, 0, 64, 79
1, 76462, Note_off_c, 0, 64, 59
1, 76463, Control_c, 0, 64, 71
1, 76464, Note_off_c, 0, 88, 63
1, 76468, Note_off_c, 0, 76, 61
1, 76477, Control_c, 0, 64, 60
1, 76492, Control_c, 0, 64, 45
1, 76507, Control_c, 0, 64, 25
1, 76522, Control_c, 0, 64, 0
1, 76621, Note_on_c, 0, 75, 72
1, 76629, Note_on_c, 0, 87, 61
1, 76645, Note_off_c, 0, 75, 66
1, 76647, Note_off_c, 0, 87, 66
1, 76726, Note_on_c, 0, 74, 76
1, 76726, Note_on_c, 0, 86, 71
1, 76749, Note_off_c, 0, 86, 65
1, 76757, Note_off_c, 0, 74, 61
1, 76825, Note_on_c, 0, 72, 72
1, 76848, Note_off_c, 0, 72, 68
1, 76909, Note_on_c, 0, 71, 71
1, 76933, Note_off_c, 0, 71, 66
1, 77025, Note_on_c, 0, 70, 60
1, 77028, Note_on_c, 0, 82, 58
1, 77045, Note_off_c, 0, 70, 61
1, 77048, Note_off_c, 0, 82, 63
1, 77063, Control_c, 0, 64, 16
1, 77077, Control_c, 0, 64, 18
1, 77092, Control_c, 0, 64, 19
1, 77107, Control_c, 0, 64, 20
1, 77117, Note_on_c, 0, 69, 63
1, 77121, Control_c, 0, 64, 20
1, 77122, Note_on_c, 0, 81, 66
1, 77139, Note_off_c, 0, 81, 65
1, 77162, Note_off_c, 0, 69, 59
1, 77210, Control_c, 0, 64, 21
1, 77216, Note_on_c, 0, 57, 67
1, 77217, Note_on_c, 0, 65, 69
1, 77241, Control_c, 0, 64, 21
1, 77244, Note_off_c, 0, 65, 63
1, 77268, Note_off_c, 0, 57, 55
1, 77271, Control_c, 0, 64, 22
1, 77306, Note_on_c, 0, 64, 74
1, 77314, Note_on_c, 0, 76, 57
1, 77330, Control_c, 0, 64, 22
1, 77333, Note_off_c, 0, 76, 62
1, 77336, Note_off_c, 0, 64, 62
1, 77359, Control_c, 0, 64, 23
1, 77389, Control_c, 0, 64, 23
1, 77404, Control_c, 0, 64, 24
1, 77415, Note_on_c, 0, 63, 79
1, 77416, Note_on_c, 0, 75, 75
1, 77418, Control_c, 0, 64, 25
1, 77433, Control_c, 0, 64, 25
1, 77448, Control_c, 0, 64, 27
1, 77450, Note_off_c, 0, 75, 58
1, 77456, Note_off_c, 0, 63, 58
1, 77463, Control_c, 0, 64, 28
1, 77478, Control_c, 0, 64, 29
1, 77493, Control_c, 0, 64, 31
1, 77508, Control_c, 0, 64, 32
1, 77516, Note_on_c, 0, 62, 82
1, 77517, Note_on_c, 0, 74, 83
1, 77523, Control_c, 0, 64, 33
1, 77537, Control_c, 0, 64, 33
1, 77559, Note_off_c, 0, 62, 62
1, 77571, Note_off_c, 0, 74, 62
1, 77574, Control_c, 0, 64, 34
1, 77628, Note_on_c, 0, 64, 81
1, 77636, Note_on_c, 0, 56, 80
1, 77660, Note_off_c, 0, 64, 61
1, 77696, Note_off_c, 0, 56, 61
1, 77728, Note_on_c, 0, 72, 75
1, 77730, Note_on_c, 0, 60, 73
1, 77750, Note_off_c, 0, 72, 62
1, 77756, Note_off_c, 0, 60, 62
1, 77826, Note_on_c, 0, 71, 32
1, 77833, Note_on_c, 0, 59, 80
1, 77863, Note_off_c, 0, 71, 61
1, 77870, Note_off_c, 0, 59, 62
1, 77949, Note_on_c, 0, 70, 70
1, 77956, Note_on_c, 0, 58, 64
1, 77989, Note_off_c, 0, 58, 61
1, 78038, Note_off_c, 0, 70, 33
1, 78050, Note_on_c, 0, 57, 61
1, 78133, Note_on_c, 0, 65, 59
1, 78161, Note_on_c, 0, 53, 73
1, 78172, Note_off_c, 0, 57, 56
1, 78260, Note_on_c, 0, 64, 74
1, 78268, Note_off_c, 0, 65, 61
1, 78276, Note_on_c, 0, 52, 76
1, 78333, Note_off_c, 0, 53, 53
1, 78374, Note_on_c, 0, 63, 77
1, 78383, Note_on_c, 0, 51, 73
1, 78403, Note_off_c, 0, 64, 55
1, 78438, Note_off_c, 0, 52, 36
1, 78482, Note_off_c, 0, 51, 60
1, 78484, Note_on_c, 0, 62, 71
1, 78484, Note_off_c, 0, 63, 59
1, 78497, Note_on_c, 0, 50, 74
1, 78598, Note_on_c, 0, 60, 64
1, 78598, Note_off_c, 0, 50, 59
1, 78602, Note_on_c, 0, 48, 67
1, 78607, Note_off_c, 0, 62, 54
1, 78687, Note_off_c, 0, 60, 57
1, 78715, Note_on_c, 0, 47, 55
1, 78717, Note_on_c, 0, 59, 56
1, 78718, Note_off_c, 0, 48, 0
1, 78756, Poly_aftertouch_c, 0, 48, 127
1, 78758, Note_off_c, 0, 47, 46
1, 78766, Control_c, 0, 64, 31
1, 78781, Control_c, 0, 64, 0
1, 78793, Poly_aftertouch_c, 0, 48, 0
1, 78796, Note_on_c, 0, 46, 57
1, 78810, Note_off_c, 0, 59, 59
1, 78819, Note_on_c, 0, 58, 57
1, 78841, Note_off_c, 0, 46, 57
1, 78860, Note_off_c, 0, 58, 60
1, 78927, Note_on_c, 0, 57, 55
1, 78930, Control_c, 0, 64, 50
1, 78935, Note_on_c, 0, 45, 71
1, 78945, Control_c, 0, 64, 72
1, 78950, Note_off_c, 0, 57, 63
1, 78960, Control_c, 0, 64, 80
1, 78974, Control_c, 0, 64, 92
1, 78989, Control_c, 0, 64, 94
1, 79002, Note_off_c, 0, 45, 56
1, 79034, Control_c, 0, 64, 94
1, 79049, Control_c, 0, 64, 95
1, 79070, Control_c, 0, 64, 96
1, 79144, Note_on_c, 0, 89, 67
1, 79145, Note_on_c, 0, 81, 69
1, 79239, Note_on_c, 0, 77, 67
1, 79253, Note_on_c, 0, 84, 64
1, 79255, Note_off_c, 0, 81, 30
1, 79258, Note_off_c, 0, 89, 46
1, 79285, Note_off_c, 0, 84, 58
1, 79297, Note_off_c, 0, 77, 51
1, 79321, Note_on_c, 0, 70, 58
1, 79350, Note_on_c, 0, 76, 64
1, 79380, Note_off_c, 0, 76, 65
1, 79402, Note_on_c, 0, 72, 62
1, 79412, Note_off_c, 0, 70, 50
1, 79420, Note_on_c, 0, 69, 38
1, 79429, Note_off_c, 0, 72, 65
1, 79431, Note_on_c, 0, 64, 69
1, 79447, Note_off_c, 0, 69, 52
1, 79456, Note_off_c, 0, 64, 64
1, 79559, Note_on_c, 0, 60, 68
1, 79574, Note_on_c, 0, 48, 63
1, 79574, Control_c, 0, 64, 95
1, 79588, Control_c, 0, 64, 92
1, 79603, Control_c, 0, 64, 83
1, 79613, Note_on_c, 0, 59, 65
1, 79613, Note_off_c, 0, 48, 62
1, 79617, Note_on_c, 0, 47, 67
1, 79618, Control_c, 0, 64, 68
1, 79634, Control_c, 0, 64, 50
1, 79635, Note_off_c, 0, 60, 57
1, 79649, Control_c, 0, 64, 0
1, 79671, Note_off_c, 0, 59, 59
1, 79673, Note_on_c, 0, 57, 71
1, 79684, Note_on_c, 0, 45, 56
1, 79695, Note_off_c, 0, 47, 52
1, 79719, Note_off_c, 0, 45, 58
1, 79731, Note_off_c, 0, 57, 59
1, 79752, Note_on_c, 0, 44, 69
1, 79758, Note_on_c, 0, 56, 77
1, 79788, Note_off_c, 0, 56, 63
1, 79797, Control_c, 0, 64, 57
1, 79818, Note_off_c, 0, 44, 57
1, 79819, Control_c, 0, 64, 82
1, 79834, Control_c, 0, 64, 106
1, 79849, Control_c, 0, 64, 127
1, 79979, Note_on_c, 0, 87, 70
1, 79989, Note_on_c, 0, 80, 57
1, 80066, Note_on_c, 0, 75, 65
1, 80078, Note_on_c, 0, 83, 66
1, 80089, Note_off_c, 0, 87, 61
1, 80113, Note_off_c, 0, 83, 59
1, 80115, Note_off_c, 0, 80, 51
1, 80122, Note_off_c, 0, 75, 58
1, 80163, Note_on_c, 0, 68, 54
1, 80166, Note_on_c, 0, 76, 59
1, 80197, Note_on_c, 0, 71, 60
1, 80200, Note_off_c, 0, 76, 64
1, 80229, Note_off_c, 0, 71, 62
1, 80230, Note_on_c, 0, 64, 64
1, 80236, Note_off_c, 0, 68, 55
1, 80257, Note_off_c, 0, 64, 65
1, 80383, Control_c, 0, 64, 110
1, 80398, Control_c, 0, 64, 90
1, 80409, Note_on_c, 0, 40, 57
1, 80412, Control_c, 0, 64, 73
1, 80414, Note_on_c, 0, 52, 59
1, 80427, Control_c, 0, 64, 58
1, 80443, Control_c, 0, 64, 36
1, 80458, Control_c, 0, 64, 0
1, 80485, Note_on_c, 0, 42, 49
1, 80498, Note_off_c, 0, 40, 50
1, 80501, Note_off_c, 0, 52, 57
1, 80508, Note_on_c, 0, 54, 58
1, 80513, Note_on_c, 0, 44, 64
1, 80533, Note_off_c, 0, 42, 58
1, 80540, Note_on_c, 0, 56, 63
1, 80561, Note_off_c, 0, 54, 61
1, 80597, Note_off_c, 0, 44, 59
1, 80602, Note_off_c, 0, 56, 60
1, 80611, Note_on_c, 0, 45, 74
1, 80614, Note_on_c, 0, 57, 79
1, 80650, Note_off_c, 0, 45, 61
1, 80658, Control_c, 0, 64, 66
1, 80660, Note_off_c, 0, 57, 61
1, 80673, Control_c, 0, 64, 86
1, 80687, Control_c, 0, 64, 127
1, 80843, Note_on_c, 0, 89, 65
1, 80845, Note_on_c, 0, 81, 65
1, 80926, Note_on_c, 0, 77, 61
1, 80938, Note_on_c, 0, 84, 46
1, 80944, Note_off_c, 0, 89, 28
1, 80979, Note_off_c, 0, 81, 43
1, 80987, Note_off_c, 0, 84, 57
1, 81006, Note_off_c, 0, 77, 50
1, 81031, Note_on_c, 0, 69, 55
1, 81036, Note_on_c, 0, 76, 63
1, 81078, Note_off_c, 0, 76, 60
1, 81081, Note_on_c, 0, 72, 61
1, 81109, Note_off_c, 0, 72, 65
1, 81120, Note_on_c, 0, 64, 61
1, 81127, Note_off_c, 0, 69, 47
1, 81146, Note_off_c, 0, 64, 66
1, 81264, Note_on_c, 0, 48, 62
1, 81272, Note_on_c, 0, 60, 52
1, 81277, Note_on_c, 0, 59, 53
1, 81280, Control_c, 0, 64, 110
1, 81295, Control_c, 0, 64, 88
1, 81317, Control_c, 0, 64, 70
1, 81321, Note_off_c, 0, 48, 59
1, 81332, Control_c, 0, 64, 54
1, 81338, Note_off_c, 0, 60, 57
1, 81341, Note_on_c, 0, 47, 66
1, 81347, Control_c, 0, 64, 0
1, 81380, Note_on_c, 0, 57, 60
1, 81384, Note_off_c, 0, 59, 60
1, 81396, Note_on_c, 0, 45, 51
1, 81431, Note_off_c, 0, 47, 37
1, 81439, Note_off_c, 0, 45, 57
1, 81445, Note_off_c, 0, 57, 56
1, 81459, Note_on_c, 0, 56, 78
1, 81463, Note_on_c, 0, 44, 71
1, 81480, Control_c, 0, 64, 32
1, 81493, Note_off_c, 0, 56, 64
1, 81495, Control_c, 0, 64, 68
1, 81509, Control_c, 0, 64, 81
1, 81510, Note_off_c, 0, 44, 59
1, 81524, Control_c, 0, 64, 99
1, 81539, Control_c, 0, 64, 121
1, 81569, Control_c, 0, 64, 122
1, 81583, Control_c, 0, 64, 124
1, 81598, Control_c, 0, 64, 127
1, 81687, Note_on_c, 0, 87, 69
1, 81712, Note_on_c, 0, 80, 46
1, 81771, Note_on_c, 0, 75, 67
1, 81779, Note_on_c, 0, 83, 69
1, 81790, Note_off_c, 0, 87, 60
1, 81809, Note_off_c, 0, 80, 36
1, 81826, Note_off_c, 0, 83, 60
1, 81828, Note_off_c, 0, 75, 56
1, 81881, Note_on_c, 0, 76, 62
1, 81886, Note_on_c, 0, 68, 57
1, 81908, Note_on_c, 0, 71, 64
1, 81917, Note_off_c, 0, 76, 62
1, 81955, Note_on_c, 0, 64, 64
1, 81958, Note_off_c, 0, 71, 58
1, 81966, Note_off_c, 0, 68, 58
1, 81980, Note_off_c, 0, 64, 66
1, 82125, Control_c, 0, 64, 117
1, 82140, Control_c, 0, 64, 98
1, 82146, Note_on_c, 0, 54, 17
1, 82155, Control_c, 0, 64, 79
1, 82170, Control_c, 0, 64, 58
1, 82178, Note_on_c, 0, 40, 64
1, 82180, Note_on_c, 0, 52, 71
1, 82185, Control_c, 0, 64, 21
1, 82187, Note_off_c, 0, 54, 41
1, 82200, Control_c, 0, 64, 0
1, 82236, Note_on_c, 0, 42, 66
1, 82247, Note_on_c, 0, 44, 78
1, 82250, Note_on_c, 0, 54, 80
1, 82261, Note_off_c, 0, 52, 57
1, 82263, Note_off_c, 0, 40, 59
1, 82276, Note_on_c, 0, 56, 77
1, 82277, Note_off_c, 0, 44, 67
1, 82283, Note_off_c, 0, 42, 62
1, 82313, Note_off_c, 0, 54, 0
1, 82329, Note_on_c, 0, 57, 94
1, 82329, Poly_aftertouch_c, 0, 54, 0
1, 82332, Note_off_c, 0, 56, 63
1, 82335, Note_on_c, 0, 53, 44
1, 82338, Note_on_c, 0, 45, 106
1, 82341, Note_on_c, 0, 33, 96
1, 82343, Note_on_c, 0, 55, 43
1, 82367, Note_off_c, 0, 53, 55
1, 82373, Note_off_c, 0, 55, 54
1, 82377, Control_c, 0, 64, 43
1, 82384, Note_off_c, 0, 57, 67
1, 82388, Note_off_c, 0, 33, 63
1, 82392, Control_c, 0, 64, 79
1, 82394, Note_off_c, 0, 45, 56
1, 82406, Control_c, 0, 64, 127
1, 82565, Note_on_c, 0, 81, 65
1, 82583, Note_on_c, 0, 89, 52
1, 82597, Note_on_c, 0, 91, 31
1, 82632, Note_off_c, 0, 91, 53
1, 82647, Note_on_c, 0, 84, 75
1, 82656, Note_on_c, 0, 77, 70
1, 82674, Note_off_c, 0, 81, 53
1, 82694, Note_off_c, 0, 89, 27
1, 82722, Note_off_c, 0, 84, 59
1, 82730, Note_off_c, 0, 77, 53
1, 82750, Note_on_c, 0, 76, 82
1, 82755, Note_on_c, 0, 69, 60
1, 82775, Note_on_c, 0, 72, 65
1, 82793, Note_off_c, 0, 76, 64
1, 82834, Note_off_c, 0, 72, 63
1, 82836, Note_on_c, 0, 64, 74
1, 82846, Note_off_c, 0, 69, 61
1, 82869, Note_off_c, 0, 64, 59
1, 82987, Note_on_c, 0, 60, 81
1, 82991, Note_on_c, 0, 48, 77
1, 83008, Control_c, 0, 64, 103
1, 83023, Control_c, 0, 64, 74
1, 83037, Control_c, 0, 64, 51
1, 83046, Note_on_c, 0, 47, 77
1, 83049, Note_on_c, 0, 59, 68
1, 83052, Control_c, 0, 64, 0
1, 83055, Note_off_c, 0, 48, 60
1, 83074, Note_off_c, 0, 60, 55
1, 83088, Note_on_c, 0, 45, 68
1, 83101, Note_off_c, 0, 47, 62
1, 83106, Note_on_c, 0, 57, 76
1, 83109, Note_off_c, 0, 59, 62
1, 83124, Note_off_c, 0, 45, 61
1, 83156, Note_off_c, 0, 57, 62
1, 83178, Note_on_c, 0, 56, 95
1, 83183, Note_on_c, 0, 44, 99
1, 83186, Note_on_c, 0, 32, 87
1, 83201, Control_c, 0, 64, 58
1, 83216, Note_off_c, 0, 32, 65
1, 83216, Control_c, 0, 64, 82
1, 83222, Note_off_c, 0, 44, 61
1, 83225, Note_off_c, 0, 56, 63
1, 83230, Control_c, 0, 64, 110
1, 83245, Control_c, 0, 64, 127
1, 83409, Note_on_c, 0, 87, 66
1, 83412, Note_on_c, 0, 80, 66
1, 83493, Note_on_c, 0, 75, 71
1, 83495, Note_on_c, 0, 83, 75
1, 83511, Note_off_c, 0, 87, 60
1, 83545, Note_off_c, 0, 83, 63
1, 83562, Note_off_c, 0, 80, 24
1, 83563, Note_off_c, 0, 75, 59
1, 83597, Note_on_c, 0, 76, 82
1, 83616, Note_on_c, 0, 71, 66
1, 83628, Note_on_c, 0, 68, 59
1, 83649, Note_off_c, 0, 76, 65
1, 83666, Note_off_c, 0, 68, 51
1, 83670, Note_off_c, 0, 71, 63
1, 83672, Note_on_c, 0, 64, 69
1, 83698, Note_off_c, 0, 64, 65
1, 83859, Note_on_c, 0, 52, 69
1, 83861, Note_on_c, 0, 40, 66
1, 83875, Control_c, 0, 64, 113
1, 83890, Control_c, 0, 64, 89
1, 83905, Control_c, 0, 64, 65
1, 83914, Note_on_c, 0, 42, 58
1, 83920, Control_c, 0, 64, 25
1, 83932, Note_on_c, 0, 44, 64
1, 83935, Control_c, 0, 64, 0
1, 83935, Note_on_c, 0, 54, 72
1, 83946, Note_off_c, 0, 40, 58
1, 83949, Note_off_c, 0, 52, 56
1, 83961, Note_off_c, 0, 44, 64
1, 83967, Note_off_c, 0, 42, 61
1, 83967, Note_on_c, 0, 56, 69
1, 83987, Note_off_c, 0, 54, 62
1, 84023, Note_off_c, 0, 56, 61
1, 84024, Note_on_c, 0, 53, 39
1, 84025, Note_on_c, 0, 57, 85
1, 84026, Note_on_c, 0, 55, 55
1, 84031, Note_on_c, 0, 45, 99
1, 84033, Note_on_c, 0, 33, 91
1, 84050, Note_off_c, 0, 55, 60
1, 84057, Note_off_c, 0, 53, 55
1, 84068, Control_c, 0, 64, 57
1, 84069, Note_off_c, 0, 57, 68
1, 84078, Note_off_c, 0, 33, 63
1, 84083, Control_c, 0, 64, 82
1, 84098, Control_c, 0, 64, 127
1, 84099, Note_off_c, 0, 45, 53
1, 84262, Note_on_c, 0, 81, 75
1, 84262, Note_on_c, 0, 89, 77
1, 84340, Note_on_c, 0, 84, 72
1, 84341, Note_off_c, 0, 89, 53
1, 84356, Note_on_c, 0, 77, 65
1, 84377, Note_off_c, 0, 81, 37
1, 84415, Note_off_c, 0, 84, 60
1, 84421, Note_off_c, 0, 77, 57
1, 84444, Note_on_c, 0, 76, 80
1, 84447, Note_on_c, 0, 69, 67
1, 84468, Poly_aftertouch_c, 0, 79, 0
1, 84485, Note_on_c, 0, 72, 67
1, 84485, Note_off_c, 0, 76, 63
1, 84519, Note_off_c, 0, 72, 61
1, 84529, Note_on_c, 0, 64, 63
1, 84534, Note_off_c, 0, 69, 61
1, 84554, Note_off_c, 0, 64, 66
1, 84671, Note_on_c, 0, 60, 78
1, 84674, Note_on_c, 0, 48, 73
1, 84728, Control_c, 0, 64, 91
1, 84728, Note_on_c, 0, 59, 74
1, 84730, Note_on_c, 0, 47, 70
1, 84741, Note_off_c, 0, 48, 58
1, 84742, Control_c, 0, 64, 67
1, 84750, Note_off_c, 0, 60, 57
1, 84757, Control_c, 0, 64, 37
1, 84768, Note_on_c, 0, 45, 69
1, 84772, Control_c, 0, 64, 0
1, 84778, Note_off_c, 0, 47, 59
1, 84788, Note_on_c, 0, 57, 79
1, 84792, Note_off_c, 0, 59, 60
1, 84796, Note_off_c, 0, 45, 63
1, 84847, Note_off_c, 0, 57, 62
1, 84864, Note_on_c, 0, 56, 89
1, 84867, Note_on_c, 0, 44, 100
1, 84873, Note_on_c, 0, 32, 86
1, 84891, Control_c, 0, 64, 55
1, 84895, Note_off_c, 0, 32, 66
1, 84903, Note_off_c, 0, 44, 61
1, 84906, Control_c, 0, 64, 80
1, 84910, Note_on_c, 0, 45, 30
1, 84911, Note_off_c, 0, 45, 127
1, 84914, Note_off_c, 0, 56, 62
1, 84921, Control_c, 0, 64, 127
1, 84947, Poly_aftertouch_c, 0, 45, 0
1, 85055, Poly_aftertouch_c, 0, 32, 0
1, 85096, Note_on_c, 0, 87, 75
1, 85112, Note_on_c, 0, 80, 52
1, 85150, Note_off_c, 0, 80, 45
1, 85176, Note_on_c, 0, 75, 75
1, 85178, Note_on_c, 0, 83, 77
1, 85193, Note_off_c, 0, 87, 61
1, 85226, Note_off_c, 0, 83, 63
1, 85241, Note_off_c, 0, 75, 59
1, 85263, Note_on_c, 0, 76, 78
1, 85282, Note_on_c, 0, 71, 69
1, 85285, Note_on_c, 0, 68, 62
1, 85306, Note_off_c, 0, 76, 65
1, 85338, Note_off_c, 0, 71, 62
1, 85342, Note_on_c, 0, 64, 66
1, 85355, Note_off_c, 0, 68, 59
1, 85365, Note_off_c, 0, 64, 67
1, 85520, Control_c, 0, 64, 101
1, 85535, Control_c, 0, 64, 79
1, 85541, Note_on_c, 0, 57, 68
1, 85550, Note_on_c, 0, 45, 72
1, 85550, Control_c, 0, 64, 60
1, 85565, Control_c, 0, 64, 23
1, 85580, Control_c, 0, 64, 0
1, 85580, Note_on_c, 0, 47, 68
1, 85602, Note_on_c, 0, 59, 76
1, 85611, Note_off_c, 0, 57, 60
1, 85622, Note_off_c, 0, 45, 58
1, 85628, Note_on_c, 0, 48, 47
1, 85638, Note_on_c, 0, 60, 70
1, 85645, Note_off_c, 0, 47, 54
1, 85656, Note_off_c, 0, 48, 58
1, 85685, Note_on_c, 0, 61, 93
1, 85695, Note_off_c, 0, 59, 59
1, 85696, Note_on_c, 0, 49, 99
1, 85702, Note_on_c, 0, 37, 93
1, 85717, Note_off_c, 0, 60, 60
1, 85723, Note_off_c, 0, 61, 67
1, 85728, Control_c, 0, 64, 77
1, 85732, Note_off_c, 0, 37, 65
1, 85736, Note_off_c, 0, 49, 65
1, 85743, Control_c, 0, 64, 102
1, 85757, Control_c, 0, 64, 127
1, 85846, Poly_aftertouch_c, 0, 62, 0
1, 85902, Note_on_c, 0, 94, 74
1, 85917, Note_on_c, 0, 88, 67
1, 85989, Note_on_c, 0, 91, 81
1, 85991, Note_on_c, 0, 82, 76
1, 86015, Note_off_c, 0, 88, 58
1, 86018, Note_off_c, 0, 94, 32
1, 86047, Note_off_c, 0, 91, 63
1, 86054, Note_off_c, 0, 82, 60
1, 86075, Note_on_c, 0, 81, 72
1, 86083, Note_on_c, 0, 76, 61
1, 86104, Note_on_c, 0, 79, 75
1, 86114, Note_off_c, 0, 81, 64
1, 86150, Note_off_c, 0, 79, 64
1, 86153, Note_on_c, 0, 69, 83
1, 86164, Note_off_c, 0, 76, 60
1, 86196, Note_off_c, 0, 69, 62
1, 86315, Note_on_c, 0, 57, 78
1, 86327, Note_on_c, 0, 45, 69
1, 86363, Note_on_c, 0, 49, 76
1, 86373, Control_c, 0, 64, 89
1, 86388, Control_c, 0, 64, 65
1, 86396, Note_on_c, 0, 59, 74
1, 86403, Note_off_c, 0, 57, 59
1, 86403, Control_c, 0, 64, 0
1, 86418, Note_off_c, 0, 49, 63
1, 86422, Note_off_c, 0, 45, 55
1, 86438, Note_on_c, 0, 61, 60
1, 86448, Poly_aftertouch_c, 0, 64, 0
1, 86486, Note_on_c, 0, 62, 100
1, 86489, Note_off_c, 0, 61, 64
1, 86490, Note_on_c, 0, 60, 45
1, 86492, Note_off_c, 0, 59, 62
1, 86495, Note_on_c, 0, 50, 97
1, 86497, Note_on_c, 0, 38, 89
1, 86516, Note_off_c, 0, 60, 35
1, 86522, Control_c, 0, 64, 30
1, 86537, Control_c, 0, 64, 74
1, 86540, Note_off_c, 0, 62, 65
1, 86555, Note_off_c, 0, 38, 61
1, 86560, Note_off_c, 0, 50, 58
1, 86560, Control_c, 0, 64, 127
1, 86707, Note_on_c, 0, 88, 78
1, 86716, Note_on_c, 0, 81, 75
1, 86782, Note_off_c, 0, 88, 57
1, 86794, Note_on_c, 0, 86, 77
1, 86800, Note_on_c, 0, 76, 74
1, 86835, Note_off_c, 0, 81, 37
1, 86856, Note_off_c, 0, 76, 60
1, 86873, Note_off_c, 0, 86, 61
1, 86895, Note_on_c, 0, 69, 50
1, 86903, Note_on_c, 0, 77, 81
1, 86918, Note_on_c, 0, 74, 74
1, 86945, Note_off_c, 0, 77, 63
1, 86977, Note_off_c, 0, 74, 64
1, 86985, Note_on_c, 0, 65, 73
1, 87003, Note_off_c, 0, 69, 51
1, 87018, Note_off_c, 0, 65, 59
1, 87114, Note_on_c, 0, 64, 81
1, 87124, Note_on_c, 0, 52, 80
1, 87174, Note_on_c, 0, 62, 71
1, 87175, Note_on_c, 0, 50, 75
1, 87182, Control_c, 0, 64, 104
1, 87184, Note_off_c, 0, 52, 58
1, 87197, Control_c, 0, 64, 74
1, 87212, Note_off_c, 0, 64, 56
1, 87212, Control_c, 0, 64, 47
1, 87217, Note_on_c, 0, 48, 64
1, 87227, Note_off_c, 0, 50, 60
1, 87227, Control_c, 0, 64, 0
1, 87249, Note_off_c, 0, 48, 65
1, 87253, Note_on_c, 0, 60, 76
1, 87256, Note_off_c, 0, 62, 62
1, 87321, Note_off_c, 0, 60, 58
1, 87330, Note_on_c, 0, 59, 87
1, 87333, Note_on_c, 0, 45, 96
1, 87339, Note_on_c, 0, 33, 85
1, 87350, Note_on_c, 0, 35, 76
1, 87353, Control_c, 0, 64, 67
1, 87367, Note_off_c, 0, 33, 65
1, 87368, Control_c, 0, 64, 98
1, 87371, Note_off_c, 0, 45, 64
1, 87378, Note_off_c, 0, 35, 64
1, 87381, Note_off_c, 0, 59, 61
1, 87382, Control_c, 0, 64, 127
1, 87437, Poly_aftertouch_c, 0, 63, 0
1, 87553, Note_on_c, 0, 83, 75
1, 87562, Note_on_c, 0, 90, 40
1, 87565, Note_on_c, 0, 92, 37
1, 87595, Note_off_c, 0, 92, 53
1, 87617, Note_on_c, 0, 89, 78
1, 87623, Note_on_c, 0, 80, 77
1, 87637, Note_off_c, 0, 83, 55
1, 87644, Note_off_c, 0, 90, 30
1, 87692, Note_off_c, 0, 89, 62
1, 87703, Note_off_c, 0, 80, 54
1, 87726, Note_on_c, 0, 79, 80
1, 87739, Note_off_c, 0, 79, 70
1, 87740, Note_on_c, 0, 77, 83
1, 87770, Note_on_c, 0, 74, 70
1, 87793, Note_off_c, 0, 77, 58
1, 87802, Note_on_c, 0, 67, 82
1, 87818, Note_off_c, 0, 74, 63
1, 87840, Note_off_c, 0, 67, 63
1, 87883, Poly_aftertouch_c, 0, 79, 0
1, 87962, Note_on_c, 0, 55, 82
1, 87974, Note_on_c, 0, 43, 78
1, 87976, Control_c, 0, 64, 111
1, 87986, Note_off_c, 0, 55, 66
1, 87991, Control_c, 0, 64, 76
1, 88005, Control_c, 0, 64, 49
1, 88020, Control_c, 0, 64, 0
1, 88023, Note_on_c, 0, 45, 56
1, 88048, Note_on_c, 0, 57, 71
1, 88068, Note_on_c, 0, 47, 62
1, 88075, Note_off_c, 0, 43, 60
1, 88079, Note_off_c, 0, 45, 59
1, 88092, Note_on_c, 0, 59, 55
1, 88099, Note_off_c, 0, 47, 64
1, 88144, Note_off_c, 0, 57, 65
1, 88146, Note_on_c, 0, 48, 96
1, 88149, Note_on_c, 0, 36, 91
1, 88151, Note_on_c, 0, 60, 93
1, 88165, Note_off_c, 0, 59, 61
1, 88176, Control_c, 0, 64, 38
1, 88186, Note_off_c, 0, 36, 60
1, 88191, Control_c, 0, 64, 81
1, 88192, Note_off_c, 0, 60, 63
1, 88200, Note_off_c, 0, 48, 64
1, 88205, Control_c, 0, 64, 127
1, 88373, Note_on_c, 0, 87, 71
1, 88374, Note_on_c, 0, 79, 70
1, 88451, Note_on_c, 0, 84, 76
1, 88463, Note_on_c, 0, 75, 80
1, 88494, Note_off_c, 0, 79, 58
1, 88508, Note_off_c, 0, 87, 27
1, 88513, Note_off_c, 0, 84, 61
1, 88529, Note_off_c, 0, 75, 57
1, 88534, Note_on_c, 0, 76, 91
1, 88548, Note_on_c, 0, 67, 41
1, 88551, Note_on_c, 0, 72, 71
1, 88579, Note_off_c, 0, 76, 65
1, 88598, Note_on_c, 0, 64, 79
1, 88606, Note_off_c, 0, 72, 62
1, 88634, Note_off_c, 0, 64, 58
1, 88664, Note_off_c, 0, 67, 34
1, 88758, Note_on_c, 0, 59, 80
1, 88761, Note_on_c, 0, 63, 51
1, 88770, Note_on_c, 0, 47, 80
1, 88791, Note_on_c, 0, 49, 81
1, 88792, Note_off_c, 0, 63, 64
1, 88821, Control_c, 0, 64, 94
1, 88835, Control_c, 0, 64, 71
1, 88841, Note_off_c, 0, 59, 59
1, 88844, Note_off_c, 0, 47, 59
1, 88850, Control_c, 0, 64, 48
1, 88851, Note_on_c, 0, 60, 57
1, 88860, Note_off_c, 0, 49, 63
1, 88865, Control_c, 0, 64, 0
1, 88882, Note_on_c, 0, 61, 74
1, 88928, Note_on_c, 0, 62, 78
1, 88929, Note_on_c, 0, 50, 103
1, 88934, Note_on_c, 0, 38, 97
1, 88943, Note_off_c, 0, 61, 64
1, 88948, Note_off_c, 0, 60, 53
1, 88967, Note_off_c, 0, 38, 63
1, 88969, Control_c, 0, 64, 54
1, 88973, Note_off_c, 0, 50, 63
1, 88981, Note_off_c, 0, 62, 62
1, 88984, Control_c, 0, 64, 77
1, 88999, Control_c, 0, 64, 103
1, 89014, Control_c, 0, 64, 127
1, 89144, Note_on_c, 0, 95, 87
1, 89148, Note_on_c, 0, 86, 86
1, 89220, Note_on_c, 0, 89, 73
1, 89238, Note_on_c, 0, 81, 70
1, 89239, Note_off_c, 0, 95, 37
1, 89243, Note_on_c, 0, 83, 72
1, 89251, Note_off_c, 0, 86, 58
1, 89279, Note_off_c, 0, 81, 60
1, 89282, Note_off_c, 0, 83, 56
1, 89285, Note_off_c, 0, 89, 62
1, 89311, Note_on_c, 0, 82, 85
1, 89325, Note_on_c, 0, 74, 59
1, 89327, Note_on_c, 0, 77, 68
1, 89345, Note_off_c, 0, 82, 67
1, 89370, Note_on_c, 0, 70, 83
1, 89377, Note_off_c, 0, 77, 62
1, 89387, Note_off_c, 0, 74, 59
1, 89416, Note_off_c, 0, 70, 55
1, 89533, Note_on_c, 0, 58, 75
1, 89551, Note_on_c, 0, 46, 69
1, 89569, Note_off_c, 0, 58, 61
1, 89579, Note_off_c, 0, 46, 62
1, 89595, Note_on_c, 0, 48, 65
1, 89596, Note_on_c, 0, 51, 73
1, 89613, Note_on_c, 0, 61, 69
1, 89622, Note_off_c, 0, 51, 62
1, 89628, Control_c, 0, 64, 90
1, 89634, Note_off_c, 0, 61, 60
1, 89637, Note_on_c, 0, 60, 77
1, 89643, Control_c, 0, 64, 69
1, 89649, Note_on_c, 0, 52, 30
1, 89658, Note_off_c, 0, 48, 63
1, 89658, Control_c, 0, 64, 36
1, 89661, Note_on_c, 0, 62, 71
1, 89673, Control_c, 0, 64, 0
1, 89685, Note_off_c, 0, 52, 48
1, 89726, Note_on_c, 0, 52, 98
1, 89727, Note_on_c, 0, 64, 97
1, 89727, Note_on_c, 0, 40, 97
1, 89730, Note_off_c, 0, 60, 63
1, 89741, Note_off_c, 0, 62, 61
1, 89756, Note_off_c, 0, 40, 65
1, 89762, Control_c, 0, 64, 33
1, 89763, Note_off_c, 0, 64, 67
1, 89776, Note_off_c, 0, 52, 60
1, 89776, Control_c, 0, 64, 70
1, 89791, Control_c, 0, 64, 92
1, 89806, Control_c, 0, 64, 127
1, 89855, Poly_aftertouch_c, 0, 42, 0
1, 89923, Note_on_c, 0, 84, 75
1, 89941, Note_on_c, 0, 94, 62
1, 89955, Note_on_c, 0, 92, 55
1, 89974, Note_off_c, 0, 94, 61
1, 90009, Note_on_c, 0, 82, 72
1, 90016, Note_on_c, 0, 73, 43
1, 90034, Note_on_c, 0, 88, 53
1, 90037, Note_on_c, 0, 80, 42
1, 90039, Note_off_c, 0, 84, 55
1, 90042, Note_on_c, 0, 89, 47
1, 90054, Note_off_c, 0, 92, 28
1, 90063, Note_off_c, 0, 88, 65
1, 90065, Note_off_c, 0, 80, 57
1, 90066, Note_off_c, 0, 89, 58
1, 90067, Note_off_c, 0, 82, 58
1, 90087, Note_on_c, 0, 81, 92
1, 90094, Note_off_c, 0, 73, 0
1, 90100, Note_on_c, 0, 76, 75
1, 90108, Note_on_c, 0, 73, 39
1, 90114, Note_off_c, 0, 81, 65
1, 90121, Note_on_c, 0, 72, 52
1, 90134, Note_on_c, 0, 69, 77
1, 90149, Note_off_c, 0, 76, 64
1, 90155, Note_off_c, 0, 73, 61
1, 90173, Note_off_c, 0, 72, 56
1, 90177, Note_off_c, 0, 69, 65
1, 90306, Note_on_c, 0, 53, 81
1, 90308, Note_on_c, 0, 65, 75
1, 90354, Note_on_c, 0, 52, 70
1, 90356, Note_on_c, 0, 64, 69
1, 90365, Note_off_c, 0, 53, 59
1, 90371, Note_on_c, 0, 51, 72
1, 90376, Note_off_c, 0, 65, 58
1, 90377, Note_off_c, 0, 52, 65
1, 90378, Control_c, 0, 64, 108
1, 90393, Control_c, 0, 64, 78
1, 90397, Note_off_c, 0, 51, 66
1, 90407, Control_c, 0, 64, 46
1, 90414, Note_on_c, 0, 63, 69
1, 90414, Note_off_c, 0, 64, 60
1, 90422, Control_c, 0, 64, 0
1, 90470, Note_on_c, 0, 50, 100
1, 90470, Note_on_c, 0, 62, 91
1, 90478, Note_on_c, 0, 38, 88
1, 90492, Note_off_c, 0, 63, 60
1, 90494, Note_on_c, 0, 36, 55
1, 90495, Note_off_c, 0, 36, 127
1, 90511, Note_off_c, 0, 50, 66
1, 90511, Control_c, 0, 64, 63
1, 90522, Note_off_c, 0, 38, 59
1, 90526, Control_c, 0, 64, 85
1, 90527, Note_off_c, 0, 62, 61
1, 90541, Control_c, 0, 64, 127
1, 90664, Note_on_c, 0, 47, 89
1, 90664, Note_on_c, 0, 89, 86
1, 90666, Note_on_c, 0, 81, 85
1, 90679, Note_on_c, 0, 48, 83
1, 90686, Note_on_c, 0, 79, 57
1, 90687, Note_off_c, 0, 79, 127
1, 90733, Note_on_c, 0, 83, 88
1, 90734, Note_on_c, 0, 50, 75
1, 90734, Note_off_c, 0, 89, 58
1, 90740, Note_off_c, 0, 47, 59
1, 90747, Note_on_c, 0, 77, 79
1, 90767, Note_off_c, 0, 48, 61
1, 90770, Note_on_c, 0, 52, 84
1, 90775, Note_off_c, 0, 83, 61
1, 90783, Note_off_c, 0, 50, 60
1, 90787, Note_off_c, 0, 81, 36
1, 90789, Note_off_c, 0, 77, 63
1, 90827, Note_off_c, 0, 52, 61
1, 90853, Control_c, 0, 64, 98
1, 90868, Control_c, 0, 64, 64
1, 90882, Note_on_c, 0, 76, 89
1, 90883, Control_c, 0, 64, 0
1, 90887, Note_on_c, 0, 40, 86
1, 90889, Note_on_c, 0, 52, 100
1, 90896, Note_on_c, 0, 68, 83
1, 90941, Note_on_c, 0, 69, 38
1, 90942, Control_c, 0, 64, 51
1, 90957, Control_c, 0, 64, 74
1, 90960, Note_off_c, 0, 76, 63
1, 90964, Note_off_c, 0, 52, 56
1, 90967, Note_off_c, 0, 69, 55
1, 90971, Control_c, 0, 64, 95
1, 90976, Note_on_c, 0, 64, 81
1, 90986, Control_c, 0, 64, 127
1, 91014, Note_off_c, 0, 68, 29
1, 91030, Note_off_c, 0, 64, 60
1, 91083, Control_c, 0, 64, 118
1, 91086, Note_on_c, 0, 62, 83
1, 91089, Note_on_c, 0, 50, 78
1, 91097, Control_c, 0, 64, 79
1, 91112, Control_c, 0, 64, 54
1, 91119, Note_off_c, 0, 40, 50
1, 91127, Control_c, 0, 64, 0
1, 91132, Note_on_c, 0, 48, 72
1, 91142, Note_on_c, 0, 60, 75
1, 91155, Note_off_c, 0, 50, 60
1, 91178, Note_off_c, 0, 48, 60
1, 91178, Note_off_c, 0, 62, 58
1, 91184, Note_on_c, 0, 47, 64
1, 91207, Note_off_c, 0, 47, 60
1, 91211, Note_on_c, 0, 59, 86
1, 91262, Note_off_c, 0, 60, 60
1, 91264, Note_off_c, 0, 59, 63
1, 91292, Note_on_c, 0, 45, 107
1, 91294, Note_on_c, 0, 57, 91
1, 91295, Note_on_c, 0, 33, 99
1, 91315, Note_off_c, 0, 33, 71
1, 91319, Control_c, 0, 64, 63
1, 91333, Note_off_c, 0, 45, 67
1, 91334, Control_c, 0, 64, 94
1, 91344, Note_off_c, 0, 57, 65
1, 91348, Control_c, 0, 64, 127
1, 91431, Poly_aftertouch_c, 0, 33, 127
1, 91473, Poly_aftertouch_c, 0, 33, 0
1, 91495, Note_on_c, 0, 63, 41
1, 91584, Note_on_c, 0, 72, 81
1, 91587, Note_on_c, 0, 96, 95
1, 91588, Note_on_c, 0, 88, 80
1, 91592, Note_off_c, 0, 63, 52
1, 91593, Note_on_c, 0, 64, 77
1, 91600, Note_off_c, 0, 72, 72
1, 91609, Note_on_c, 0, 84, 85
1, 91617, Note_on_c, 0, 60, 42
1, 91624, Note_off_c, 0, 96, 63
1, 91633, Note_off_c, 0, 64, 56
1, 91635, Note_off_c, 0, 88, 63
1, 91646, Note_off_c, 0, 60, 54
1, 91658, Note_off_c, 0, 84, 62
1, 91831, Poly_aftertouch_c, 0, 58, 0
1, 91858, Note_on_c, 0, 93, 87
1, 91859, Note_on_c, 0, 84, 77
1, 91864, Note_on_c, 0, 69, 100
1, 91866, Note_on_c, 0, 60, 75
1, 91881, Note_on_c, 0, 57, 73
1, 91889, Note_on_c, 0, 81, 96
1, 91894, Note_on_c, 0, 55, 54
1, 91912, Note_off_c, 0, 69, 66
1, 91919, Note_off_c, 0, 55, 59
1, 91928, Note_off_c, 0, 84, 61
1, 91933, Note_off_c, 0, 57, 63
1, 91939, Note_off_c, 0, 81, 65
1, 91944, Note_off_c, 0, 60, 59
1, 91974, Note_off_c, 0, 93, 61
1, 92244, Control_c, 0, 64, 117
1, 92259, Control_c, 0, 64, 79
1, 92274, Control_c, 0, 64, 52
1, 92287, Poly_aftertouch_c, 0, 94, 0
1, 92288, Control_c, 0, 64, 0
1, 92623, Note_on_c, 0, 96, 99
1, 92624, Note_on_c, 0, 36, 104
1, 92624, Note_on_c, 0, 100, 100
1, 92625, Note_on_c, 0, 33, 98
1, 92625, Note_on_c, 0, 88, 103
1, 92638, Control_c, 0, 64, 21
1, 92650, Note_on_c, 0, 99, 63
1, 92651, Note_on_c, 0, 97, 43
1, 92652, Note_off_c, 0, 97, 127
1, 92653, Control_c, 0, 64, 89
1, 92667, Note_off_c, 0, 36, 60
1, 92667, Control_c, 0, 64, 127
1, 92668, Note_off_c, 0, 99, 64
1, 92674, Note_off_c, 0, 33, 62
1, 92723, Poly_aftertouch_c, 0, 31, 0
1, 92749, Note_on_c, 0, 35, 84
1, 92749, Poly_aftertouch_c, 0, 31, 0
1, 92765, Note_on_c, 0, 38, 74
1, 92792, Note_off_c, 0, 35, 61
1, 92806, Note_off_c, 0, 38, 62
1, 92872, Note_on_c, 0, 36, 77
1, 92877, Note_on_c, 0, 40, 72
1, 92905, Control_c, 0, 64, 84
1, 92919, Control_c, 0, 64, 56
1, 92923, Note_off_c, 0, 40, 58
1, 92934, Control_c, 0, 64, 0
1, 92940, Note_on_c, 0, 38, 65
1, 92974, Note_off_c, 0, 36, 55
1, 92979, Note_on_c, 0, 41, 72
1, 92985, Note_off_c, 0, 38, 61
1, 92994, Control_c, 0, 64, 59
1, 93006, Note_off_c, 0, 41, 64
1, 93009, Control_c, 0, 64, 74
1, 93023, Control_c, 0, 64, 87
1, 93038, Control_c, 0, 64, 107
1, 93053, Control_c, 0, 64, 117
1, 93071, Note_on_c, 0, 40, 73
1, 93083, Control_c, 0, 64, 118
1, 93091, Note_on_c, 0, 43, 64
1, 93098, Control_c, 0, 64, 118
1, 93113, Control_c, 0, 64, 119
1, 93114, Note_off_c, 0, 43, 59
1, 93117, Note_off_c, 0, 40, 59
1, 93128, Control_c, 0, 64, 120
1, 93134, Note_on_c, 0, 41, 2
1, 93140, Note_off_c, 0, 96, 49
1, 93143, Control_c, 0, 64, 121
1, 93144, Note_off_c, 0, 100, 52
1, 93147, Note_off_c, 0, 41, 0
1, 93155, Note_off_c, 0, 88, 55
1, 93159, Note_on_c, 0, 38, 3
1, 93164, Note_on_c, 0, 41, 33
1, 93173, Note_off_c, 0, 38, 0
1, 93178, Note_on_c, 0, 45, 79
1, 93187, Control_c, 0, 64, 122
1, 93198, Poly_aftertouch_c, 0, 38, 0
1, 93206, Note_off_c, 0, 45, 61
1, 93256, Note_on_c, 0, 44, 92
1, 93273, Note_on_c, 0, 47, 76
1, 93274, Note_on_c, 0, 98, 82
1, 93274, Note_on_c, 0, 86, 87
1, 93277, Note_on_c, 0, 95, 78
1, 93314, Note_off_c, 0, 44, 61
1, 93316, Note_off_c, 0, 47, 58
1, 93323, Note_off_c, 0, 98, 64
1, 93325, Note_off_c, 0, 41, 25
1, 93327, Note_off_c, 0, 86, 62
1, 93329, Note_off_c, 0, 95, 61
1, 93358, Control_c, 0, 64, 127
1, 93378, Note_on_c, 0, 45, 86
1, 93384, Note_on_c, 0, 48, 84
1, 93390, Note_on_c, 0, 93, 79
1, 93392, Note_on_c, 0, 84, 83
1, 93392, Note_on_c, 0, 96, 60
1, 93403, Control_c, 0, 64, 111
1, 93417, Note_off_c, 0, 48, 62
1, 93417, Control_c, 0, 64, 79
1, 93422, Note_off_c, 0, 96, 61
1, 93423, Note_on_c, 0, 91, 42
1, 93428, Note_off_c, 0, 93, 60
1, 93432, Note_off_c, 0, 45, 59
1, 93432, Control_c, 0, 64, 55
1, 93438, Note_off_c, 0, 84, 57
1, 93447, Control_c, 0, 64, 0
1, 93450, Note_off_c, 0, 91, 60
1, 93482, Note_on_c, 0, 47, 84
1, 93484, Note_on_c, 0, 50, 80
1, 93488, Note_on_c, 0, 95, 82
1, 93491, Note_on_c, 0, 83, 82
1, 93491, Control_c, 0, 64, 50
1, 93493, Note_on_c, 0, 92, 84
1, 93506, Control_c, 0, 64, 69
1, 93518, Note_off_c, 0, 95, 53
1, 93521, Control_c, 0, 64, 80
1, 93524, Note_off_c, 0, 47, 59
1, 93532, Note_off_c, 0, 50, 58
1, 93536, Note_off_c, 0, 83, 62
1, 93536, Control_c, 0, 64, 96
1, 93537, Note_off_c, 0, 92, 64
1, 93551, Control_c, 0, 64, 103
1, 93593, Note_on_c, 0, 93, 80
1, 93595, Note_on_c, 0, 81, 83
1, 93599, Note_on_c, 0, 48, 75
1, 93599, Note_on_c, 0, 89, 76
1, 93602, Note_on_c, 0, 52, 80
1, 93615, Note_off_c, 0, 93, 64
1, 93620, Note_off_c, 0, 81, 63
1, 93625, Control_c, 0, 64, 103
1, 93632, Note_off_c, 0, 89, 59
1, 93633, Note_off_c, 0, 52, 59
1, 93636, Note_off_c, 0, 48, 61
1, 93670, Control_c, 0, 64, 104
1, 93672, Note_on_c, 0, 50, 82
1, 93683, Note_on_c, 0, 53, 81
1, 93685, Control_c, 0, 64, 105
1, 93699, Control_c, 0, 64, 106
1, 93701, Note_on_c, 0, 92, 76
1, 93701, Note_off_c, 0, 50, 63
1, 93714, Note_on_c, 0, 89, 52
1, 93714, Control_c, 0, 64, 107
1, 93715, Note_on_c, 0, 80, 46
1, 93715, Note_on_c, 0, 88, 41
1, 93716, Note_off_c, 0, 53, 60
1, 93723, Note_off_c, 0, 92, 69
1, 93729, Control_c, 0, 64, 107
1, 93735, Note_off_c, 0, 89, 60
1, 93738, Note_off_c, 0, 80, 57
1, 93740, Note_off_c, 0, 88, 56
1, 93778, Poly_aftertouch_c, 0, 79, 0
1, 93786, Note_on_c, 0, 52, 83
1, 93788, Note_on_c, 0, 56, 86
1, 93793, Note_on_c, 0, 77, 92
1, 93795, Note_on_c, 0, 89, 92
1, 93796, Note_on_c, 0, 86, 86
1, 93801, Poly_aftertouch_c, 0, 79, 0
1, 93803, Control_c, 0, 64, 108
1, 93825, Note_off_c, 0, 56, 59
1, 93835, Note_off_c, 0, 89, 61
1, 93839, Note_off_c, 0, 77, 62
1, 93840, Note_off_c, 0, 52, 55
1, 93841, Note_off_c, 0, 86, 62
1, 93876, Poly_aftertouch_c, 0, 54, 0
1, 93885, Poly_aftertouch_c, 0, 88, 0
1, 93899, Note_on_c, 0, 53, 76
1, 93899, Note_on_c, 0, 88, 53
1, 93900, Note_on_c, 0, 76, 97
1, 93901, Note_on_c, 0, 84, 88
1, 93904, Poly_aftertouch_c, 0, 54, 0
1, 93907, Note_on_c, 0, 59, 76
1, 93908, Note_on_c, 0, 57, 77
1, 93918, Note_on_c, 0, 55, 56
1, 93927, Note_on_c, 0, 86, 50
1, 93933, Note_off_c, 0, 59, 66
1, 93936, Note_off_c, 0, 57, 64
1, 93942, Note_off_c, 0, 55, 38
1, 93948, Note_off_c, 0, 88, 62
1, 93949, Note_off_c, 0, 76, 63
1, 93950, Note_off_c, 0, 84, 60
1, 93950, Note_off_c, 0, 86, 36
1, 93959, Note_off_c, 0, 53, 57
1, 93998, Note_on_c, 0, 56, 89
1, 94000, Note_on_c, 0, 74, 98
1, 94001, Note_on_c, 0, 59, 90
1, 94004, Note_on_c, 0, 83, 85
1, 94010, Note_on_c, 0, 86, 80
1, 94042, Note_off_c, 0, 86, 62
1, 94044, Note_off_c, 0, 56, 61
1, 94047, Note_on_c, 0, 84, 28
1, 94059, Note_off_c, 0, 59, 62
1, 94059, Note_off_c, 0, 83, 63
1, 94063, Note_off_c, 0, 74, 63
1, 94082, Note_off_c, 0, 84, 37
1, 94105, Poly_aftertouch_c, 0, 57, 127
1, 94116, Note_on_c, 0, 57, 32
1, 94123, Note_on_c, 0, 60, 95
1, 94126, Note_on_c, 0, 72, 84
1, 94127, Note_on_c, 0, 83, 72
1, 94128, Note_on_c, 0, 71, 82
1, 94130, Note_on_c, 0, 81, 74
1, 94140, Note_on_c, 0, 79, 62
1, 94141, Note_on_c, 0, 84, 69
1, 94148, Note_off_c, 0, 71, 66
1, 94156, Note_off_c, 0, 84, 66
1, 94160, Note_off_c, 0, 79, 64
1, 94166, Note_off_c, 0, 83, 51
1, 94167, Note_off_c, 0, 60, 59
1, 94168, Note_off_c, 0, 72, 64
1, 94170, Note_off_c, 0, 81, 61
1, 94177, Note_off_c, 0, 57, 61
1, 94224, Note_on_c, 0, 62, 92
1, 94228, Note_on_c, 0, 59, 89
1, 94230, Note_on_c, 0, 71, 98
1, 94234, Note_on_c, 0, 80, 90
1, 94234, Note_on_c, 0, 83, 92
1, 94240, Control_c, 0, 64, 109
1, 94255, Control_c, 0, 64, 114
1, 94270, Control_c, 0, 64, 127
1, 94274, Note_off_c, 0, 71, 62
1, 94281, Note_off_c, 0, 59, 61
1, 94281, Note_off_c, 0, 62, 60
1, 94284, Note_off_c, 0, 83, 60
1, 94300, Note_off_c, 0, 80, 62
1, 94314, Control_c, 0, 64, 95
1, 94329, Control_c, 0, 64, 64
1, 94344, Control_c, 0, 64, 0
1, 94350, Note_on_c, 0, 57, 90
1, 94353, Note_on_c, 0, 72, 108
1, 94353, Note_on_c, 0, 84, 97
1, 94354, Note_on_c, 0, 60, 92
1, 94356, Note_on_c, 0, 81, 93
1, 94418, Control_c, 0, 64, 55
1, 94433, Control_c, 0, 64, 77
1, 94442, Note_off_c, 0, 60, 56
1, 94448, Control_c, 0, 64, 92
1, 94449, Note_on_c, 0, 59, 78
1, 94456, Note_off_c, 0, 57, 37
1, 94463, Control_c, 0, 64, 104
1, 94468, Note_on_c, 0, 62, 76
1, 94478, Control_c, 0, 64, 104
1, 94497, Note_off_c, 0, 59, 58
1, 94502, Note_off_c, 0, 62, 59
1, 94570, Note_on_c, 0, 64, 86
1, 94571, Note_on_c, 0, 60, 75
1, 94581, Control_c, 0, 64, 105
1, 94596, Control_c, 0, 64, 109
1, 94611, Control_c, 0, 64, 112
1, 94617, Note_off_c, 0, 64, 60
1, 94620, Note_off_c, 0, 60, 53
1, 94626, Control_c, 0, 64, 110
1, 94640, Control_c, 0, 64, 87
1, 94655, Control_c, 0, 64, 65
1, 94665, Note_on_c, 0, 65, 83
1, 94668, Note_on_c, 0, 62, 80
1, 94670, Control_c, 0, 64, 48
1, 94684, Control_c, 0, 64, 43
1, 94699, Control_c, 0, 64, 45
1, 94714, Control_c, 0, 64, 63
1, 94716, Note_off_c, 0, 65, 61
1, 94719, Note_off_c, 0, 62, 58
1, 94729, Control_c, 0, 64, 75
1, 94744, Control_c, 0, 64, 89
1, 94758, Control_c, 0, 64, 107
1, 94766, Note_on_c, 0, 62, 70
1, 94766, Note_on_c, 0, 65, 71
1, 94773, Control_c, 0, 64, 111
1, 94823, Note_off_c, 0, 62, 58
1, 94824, Note_off_c, 0, 72, 57
1, 94834, Note_off_c, 0, 65, 59
1, 94853, Note_off_c, 0, 84, 46
1, 94854, Note_off_c, 0, 81, 59
1, 94870, Note_on_c, 0, 64, 83
1, 94878, Note_on_c, 0, 60, 77
1, 94913, Note_off_c, 0, 64, 61
1, 94925, Note_off_c, 0, 60, 56
1, 94949, Note_on_c, 0, 74, 83
1, 94959, Note_on_c, 0, 83, 77
1, 94960, Note_on_c, 0, 86, 72
1, 94972, Note_on_c, 0, 59, 84
1, 94976, Note_on_c, 0, 62, 78
1, 94991, Note_on_c, 0, 60, 60
1, 94997, Note_off_c, 0, 74, 61
1, 95000, Note_off_c, 0, 86, 56
1, 95000, Note_off_c, 0, 62, 64
1, 95001, Note_off_c, 0, 83, 58
1, 95009, Note_off_c, 0, 60, 39
1, 95024, Note_off_c, 0, 59, 61
1, 95061, Note_on_c, 0, 57, 78
1, 95064, Note_on_c, 0, 84, 61
1, 95064, Note_on_c, 0, 88, 88
1, 95066, Note_on_c, 0, 76, 86
1, 95075, Note_on_c, 0, 60, 69
1, 95093, Control_c, 0, 64, 112
1, 95108, Control_c, 0, 64, 112
1, 95110, Note_off_c, 0, 60, 59
1, 95110, Note_off_c, 0, 76, 62
1, 95111, Note_off_c, 0, 88, 62
1, 95112, Note_off_c, 0, 84, 59
1, 95116, Note_off_c, 0, 57, 62
1, 95138, Control_c, 0, 64, 99
1, 95153, Control_c, 0, 64, 75
1, 95168, Control_c, 0, 64, 58
1, 95170, Note_on_c, 0, 59, 82
1, 95174, Note_on_c, 0, 62, 83
1, 95182, Note_on_c, 0, 74, 88
1, 95183, Control_c, 0, 64, 43
1, 95184, Note_on_c, 0, 86, 75
1, 95186, Note_on_c, 0, 83, 78
1, 95197, Control_c, 0, 64, 42
1, 95208, Note_off_c, 0, 86, 56
1, 95212, Control_c, 0, 64, 47
1, 95220, Note_off_c, 0, 59, 59
1, 95223, Note_off_c, 0, 83, 61
1, 95227, Note_off_c, 0, 62, 54
1, 95227, Control_c, 0, 64, 65
1, 95230, Note_off_c, 0, 74, 61
1, 95242, Control_c, 0, 64, 74
1, 95257, Control_c, 0, 64, 86
1, 95268, Note_on_c, 0, 60, 82
1, 95271, Control_c, 0, 64, 96
1, 95280, Note_on_c, 0, 57, 75
1, 95286, Control_c, 0, 64, 98
1, 95287, Note_on_c, 0, 81, 79
1, 95289, Note_on_c, 0, 72, 78
1, 95306, Note_off_c, 0, 60, 60
1, 95307, Note_on_c, 0, 84, 41
1, 95313, Note_off_c, 0, 81, 62
1, 95315, Note_off_c, 0, 57, 63
1, 95322, Note_off_c, 0, 72, 62
1, 95333, Note_off_c, 0, 84, 55
1, 95378, Note_on_c, 0, 59, 83
1, 95384, Note_on_c, 0, 56, 79
1, 95389, Note_on_c, 0, 80, 82
1, 95391, Note_on_c, 0, 71, 82
1, 95399, Note_on_c, 0, 83, 62
1, 95417, Note_off_c, 0, 83, 64
1, 95420, Note_off_c, 0, 56, 59
1, 95420, Note_off_c, 0, 71, 60
1, 95431, Note_off_c, 0, 59, 57
1, 95433, Note_off_c, 0, 80, 57
1, 95450, Control_c, 0, 64, 98
1, 95464, Control_c, 0, 64, 99
1, 95474, Note_on_c, 0, 53, 84
1, 95479, Note_on_c, 0, 81, 82
1, 95479, Control_c, 0, 64, 101
1, 95481, Note_on_c, 0, 69, 79
1, 95494, Control_c, 0, 64, 104
1, 95508, Control_c, 0, 64, 107
1, 95510, Note_on_c, 0, 77, 42
1, 95515, Note_off_c, 0, 81, 52
1, 95521, Note_off_c, 0, 69, 65
1, 95523, Control_c, 0, 64, 107
1, 95536, Note_on_c, 0, 76, 44
1, 95542, Note_off_c, 0, 53, 60
1, 95542, Note_off_c, 0, 77, 55
1, 95545, Control_c, 0, 64, 98
1, 95560, Control_c, 0, 64, 75
1, 95561, Note_off_c, 0, 76, 56
1, 95575, Control_c, 0, 64, 52
1, 95587, Note_on_c, 0, 56, 81
1, 95590, Control_c, 0, 64, 0
1, 95590, Note_on_c, 0, 68, 92
1, 95593, Note_on_c, 0, 52, 84
1, 95593, Note_on_c, 0, 76, 72
1, 95593, Note_on_c, 0, 80, 85
1, 95620, Control_c, 0, 64, 23
1, 95623, Note_off_c, 0, 56, 63
1, 95634, Note_off_c, 0, 68, 60
1, 95635, Control_c, 0, 64, 64
1, 95638, Note_off_c, 0, 52, 60
1, 95650, Control_c, 0, 64, 79
1, 95653, Note_off_c, 0, 76, 63
1, 95665, Control_c, 0, 64, 101
1, 95673, Note_off_c, 0, 80, 62
1, 95680, Control_c, 0, 64, 127
1, 95873, Control_c, 0, 64, 97
1, 95887, Control_c, 0, 64, 74
1, 95902, Control_c, 0, 64, 58
1, 95917, Control_c, 0, 64, 33
1, 95932, Control_c, 0, 64, 0
1, 96084, Note_on_c, 0, 45, 107
1, 96084, Note_on_c, 0, 96, 102
1, 96085, Note_on_c, 0, 33, 96
1, 96085, Note_on_c, 0, 88, 102
1, 96085, Note_on_c, 0, 100, 104
1, 96109, Control_c, 0, 64, 57
1, 96118, Note_on_c, 0, 98, 49
1, 96124, Control_c, 0, 64, 98
1, 96138, Control_c, 0, 64, 127
1, 96141, Note_off_c, 0, 98, 64
1, 96147, Note_off_c, 0, 33, 61
1, 96160, Note_off_c, 0, 45, 51
1, 96247, Note_on_c, 0, 47, 90
1, 96252, Note_on_c, 0, 35, 83
1, 96282, Note_off_c, 0, 35, 62
1, 96299, Note_off_c, 0, 47, 56
1, 96376, Note_on_c, 0, 36, 78
1, 96377, Note_on_c, 0, 48, 80
1, 96404, Note_off_c, 0, 48, 64
1, 96410, Note_off_c, 0, 36, 60
1, 96414, Control_c, 0, 64, 84
1, 96419, Note_on_c, 0, 38, 29
1, 96429, Control_c, 0, 64, 59
1, 96443, Control_c, 0, 64, 0
1, 96472, Note_off_c, 0, 38, 0
1, 96472, Note_on_c, 0, 38, 54
1, 96475, Note_on_c, 0, 50, 84
1, 96487, Control_c, 0, 64, 56
1, 96502, Control_c, 0, 64, 71
1, 96517, Note_off_c, 0, 50, 60
1, 96517, Control_c, 0, 64, 82
1, 96520, Note_off_c, 0, 38, 61
1, 96532, Control_c, 0, 64, 95
1, 96547, Control_c, 0, 64, 101
1, 96580, Note_on_c, 0, 52, 87
1, 96586, Note_on_c, 0, 40, 81
1, 96592, Control_c, 0, 64, 101
1, 96606, Control_c, 0, 64, 102
1, 96617, Note_off_c, 0, 40, 65
1, 96621, Control_c, 0, 64, 103
1, 96628, Note_off_c, 0, 52, 56
1, 96636, Control_c, 0, 64, 104
1, 96641, Note_off_c, 0, 100, 52
1, 96651, Note_off_c, 0, 88, 55
1, 96651, Note_off_c, 0, 96, 58
1, 96680, Control_c, 0, 64, 104
1, 96690, Note_on_c, 0, 41, 82
1, 96690, Note_on_c, 0, 53, 86
1, 96720, Note_off_c, 0, 41, 65
1, 96722, Note_off_c, 0, 53, 62
1, 96787, Note_on_c, 0, 86, 83
1, 96787, Note_on_c, 0, 98, 80
1, 96788, Note_on_c, 0, 95, 78
1, 96793, Note_on_c, 0, 56, 85
1, 96795, Note_on_c, 0, 44, 87
1, 96822, Note_off_c, 0, 98, 57
1, 96823, Note_off_c, 0, 56, 59
1, 96827, Note_off_c, 0, 86, 58
1, 96827, Note_off_c, 0, 95, 58
1, 96837, Note_off_c, 0, 44, 59
1, 96843, Control_c, 0, 64, 105
1, 96858, Control_c, 0, 64, 108
1, 96873, Control_c, 0, 64, 113
1, 96887, Note_on_c, 0, 57, 69
1, 96887, Control_c, 0, 64, 121
1, 96888, Note_on_c, 0, 45, 85
1, 96898, Note_on_c, 0, 93, 82
1, 96899, Note_on_c, 0, 84, 83
1, 96902, Control_c, 0, 64, 127
1, 96909, Note_on_c, 0, 96, 60
1, 96923, Note_off_c, 0, 93, 61
1, 96925, Note_off_c, 0, 45, 59
1, 96925, Note_off_c, 0, 57, 62
1, 96929, Note_off_c, 0, 96, 62
1, 96935, Note_off_c, 0, 84, 57
1, 96961, Control_c, 0, 64, 83
1, 96976, Control_c, 0, 64, 59
1, 96991, Control_c, 0, 64, 0
1, 96997, Note_on_c, 0, 59, 91
1, 96998, Note_on_c, 0, 47, 82
1, 97001, Note_on_c, 0, 92, 83
1, 97003, Note_on_c, 0, 95, 79
1, 97003, Note_on_c, 0, 83, 84
1, 97039, Note_off_c, 0, 95, 56
1, 97043, Control_c, 0, 64, 47
1, 97044, Note_off_c, 0, 47, 59
1, 97051, Note_off_c, 0, 59, 59
1, 97052, Note_off_c, 0, 92, 64
1, 97054, Note_off_c, 0, 83, 62
1, 97058, Control_c, 0, 64, 67
1, 97073, Control_c, 0, 64, 80
1, 97087, Control_c, 0, 64, 94
1, 97102, Control_c, 0, 64, 102
1, 97113, Note_on_c, 0, 81, 86
1, 97116, Note_on_c, 0, 60, 88
1, 97117, Control_c, 0, 64, 103
1, 97118, Note_on_c, 0, 48, 88
1, 97119, Note_on_c, 0, 88, 77
1, 97130, Note_on_c, 0, 91, 55
1, 97137, Note_off_c, 0, 81, 65
1, 97152, Note_on_c, 0, 90, 37
1, 97152, Note_off_c, 0, 91, 62
1, 97155, Note_on_c, 0, 93, 16
1, 97156, Note_off_c, 0, 60, 57
1, 97158, Note_off_c, 0, 48, 59
1, 97158, Note_off_c, 0, 88, 59
1, 97182, Note_off_c, 0, 90, 56
1, 97205, Note_off_c, 0, 93, 51
1, 97218, Note_on_c, 0, 80, 83
1, 97218, Note_on_c, 0, 88, 68
1, 97218, Note_on_c, 0, 92, 81
1, 97223, Note_on_c, 0, 62, 91
1, 97225, Note_on_c, 0, 50, 85
1, 97243, Note_off_c, 0, 92, 65
1, 97249, Note_off_c, 0, 88, 61
1, 97260, Note_off_c, 0, 50, 59
1, 97260, Note_off_c, 0, 80, 59
1, 97270, Note_off_c, 0, 62, 58
1, 97322, Note_on_c, 0, 77, 96
1, 97325, Note_on_c, 0, 89, 87
1, 97329, Note_on_c, 0, 64, 92
1, 97330, Note_on_c, 0, 52, 87
1, 97340, Note_on_c, 0, 86, 59
1, 97359, Note_off_c, 0, 86, 65
1, 97364, Note_on_c, 0, 84, 43
1, 97365, Note_off_c, 0, 52, 61
1, 97365, Note_off_c, 0, 77, 62
1, 97365, Note_off_c, 0, 89, 61
1, 97368, Note_off_c, 0, 64, 61
1, 97390, Note_off_c, 0, 84, 55
1, 97431, Note_on_c, 0, 65, 94
1, 97432, Note_on_c, 0, 53, 91
1, 97433, Note_on_c, 0, 88, 19
1, 97434, Note_on_c, 0, 76, 88
1, 97438, Note_on_c, 0, 86, 60
1, 97442, Note_on_c, 0, 84, 65
1, 97456, Note_on_c, 0, 74, 41
1, 97457, Note_off_c, 0, 74, 127
1, 97457, Note_on_c, 0, 83, 59
1, 97458, Note_off_c, 0, 86, 60
1, 97462, Note_off_c, 0, 53, 61
1, 97466, Note_off_c, 0, 65, 62
1, 97471, Note_off_c, 0, 84, 64
1, 97474, Note_off_c, 0, 88, 63
1, 97475, Note_off_c, 0, 76, 61
1, 97475, Note_off_c, 0, 83, 63
1, 97532, Note_on_c, 0, 56, 76
1, 97535, Note_on_c, 0, 68, 100
1, 97539, Note_on_c, 0, 83, 87
1, 97541, Note_on_c, 0, 86, 76
1, 97547, Note_on_c, 0, 74, 95
1, 97576, Note_off_c, 0, 86, 49
1, 97578, Note_on_c, 0, 72, 25
1, 97579, Note_off_c, 0, 72, 127
1, 97579, Note_on_c, 0, 84, 40
1, 97580, Note_off_c, 0, 84, 127
1, 97580, Note_off_c, 0, 68, 58
1, 97582, Note_off_c, 0, 74, 59
1, 97588, Note_off_c, 0, 56, 61
1, 97591, Note_off_c, 0, 83, 62
1, 97615, Poly_aftertouch_c, 0, 72, 0
1, 97639, Note_on_c, 0, 57, 88
1, 97640, Note_on_c, 0, 69, 96
1, 97644, Note_on_c, 0, 72, 78
1, 97645, Note_on_c, 0, 81, 90
1, 97651, Note_on_c, 0, 84, 85
1, 97653, Control_c, 0, 64, 103
1, 97671, Note_off_c, 0, 84, 67
1, 97673, Note_on_c, 0, 74, 36
1, 97682, Note_off_c, 0, 69, 66
1, 97682, Control_c, 0, 64, 104
1, 97685, Note_off_c, 0, 72, 62
1, 97686, Note_off_c, 0, 57, 59
1, 97687, Note_off_c, 0, 81, 63
1, 97697, Control_c, 0, 64, 104
1, 97702, Note_off_c, 0, 74, 57
1, 97711, Control_c, 0, 64, 105
1, 97726, Control_c, 0, 64, 106
1, 97741, Control_c, 0, 64, 107
1, 97745, Note_on_c, 0, 71, 115
1, 97748, Note_on_c, 0, 59, 92
1, 97750, Note_on_c, 0, 80, 96
1, 97750, Note_on_c, 0, 83, 91
1, 97756, Control_c, 0, 64, 109
1, 97771, Control_c, 0, 64, 116
1, 97788, Note_off_c, 0, 71, 64
1, 97793, Control_c, 0, 64, 127
1, 97800, Note_off_c, 0, 83, 58
1, 97804, Note_off_c, 0, 59, 61
1, 97814, Note_off_c, 0, 80, 63
1, 97837, Control_c, 0, 64, 112
1, 97852, Control_c, 0, 64, 75
1, 97867, Control_c, 0, 64, 36
1, 97877, Note_on_c, 0, 69, 105
1, 97879, Note_on_c, 0, 72, 102
1, 97879, Note_on_c, 0, 84, 101
1, 97881, Note_on_c, 0, 57, 94
1, 97882, Control_c, 0, 64, 0
1, 97886, Note_on_c, 0, 81, 93
1, 97914, Note_off_c, 0, 57, 61
1, 97917, Note_off_c, 0, 69, 65
1, 97941, Control_c, 0, 64, 64
1, 97956, Control_c, 0, 64, 80
1, 97971, Control_c, 0, 64, 97
1, 97985, Control_c, 0, 64, 110
1, 97993, Note_on_c, 0, 68, 90
1, 97996, Note_on_c, 0, 56, 86
1, 98000, Poly_aftertouch_c, 0, 59, 0
1, 98020, Note_off_c, 0, 56, 66
1, 98025, Note_off_c, 0, 68, 61
1, 98099, Note_on_c, 0, 53, 86
1, 98108, Note_on_c, 0, 65, 71
1, 98131, Note_off_c, 0, 65, 66
1, 98134, Note_off_c, 0, 53, 58
1, 98199, Note_on_c, 0, 64, 77
1, 98202, Note_on_c, 0, 52, 83
1, 98225, Note_off_c, 0, 64, 63
1, 98230, Note_off_c, 0, 52, 58
1, 98297, Note_on_c, 0, 62, 83
1, 98300, Note_on_c, 0, 50, 83
1, 98337, Note_off_c, 0, 50, 62
1, 98339, Note_off_c, 0, 62, 55
1, 98369, Note_off_c, 0, 72, 53
1, 98382, Note_off_c, 0, 81, 58
1, 98393, Note_off_c, 0, 84, 50
1, 98401, Note_on_c, 0, 60, 86
1, 98403, Note_on_c, 0, 48, 86
1, 98437, Note_off_c, 0, 60, 59
1, 98441, Note_off_c, 0, 48, 61
1, 98446, Control_c, 0, 64, 110
1, 98502, Note_on_c, 0, 59, 90
1, 98503, Note_on_c, 0, 47, 88
1, 98505, Note_on_c, 0, 74, 84
1, 98509, Note_on_c, 0, 83, 79
1, 98510, Note_on_c, 0, 86, 78
1, 98545, Note_off_c, 0, 59, 61
1, 98552, Note_off_c, 0, 47, 60
1, 98555, Note_off_c, 0, 74, 58
1, 98556, Note_off_c, 0, 83, 58
1, 98560, Note_off_c, 0, 86, 61
1, 98602, Control_c, 0, 64, 110
1, 98613, Note_on_c, 0, 45, 85
1, 98615, Note_on_c, 0, 57, 78
1, 98616, Control_c, 0, 64, 113
1, 98617, Note_on_c, 0, 76, 88
1, 98618, Note_on_c, 0, 88, 91
1, 98631, Control_c, 0, 64, 115
1, 98645, Note_off_c, 0, 45, 58
1, 98646, Control_c, 0, 64, 113
1, 98649, Note_off_c, 0, 57, 61
1, 98660, Control_c, 0, 64, 89
1, 98661, Note_off_c, 0, 76, 62
1, 98664, Note_off_c, 0, 88, 57
1, 98675, Control_c, 0, 64, 64
1, 98690, Control_c, 0, 64, 21
1, 98705, Control_c, 0, 64, 0
1, 98720, Note_on_c, 0, 59, 90
1, 98724, Note_on_c, 0, 47, 82
1, 98735, Control_c, 0, 64, 47
1, 98736, Note_on_c, 0, 86, 84
1, 98736, Note_on_c, 0, 74, 88
1, 98749, Control_c, 0, 64, 67
1, 98754, Note_off_c, 0, 47, 65
1, 98754, Note_off_c, 0, 59, 62
1, 98764, Control_c, 0, 64, 77
1, 98766, Note_off_c, 0, 86, 49
1, 98778, Note_off_c, 0, 74, 61
1, 98779, Control_c, 0, 64, 90
1, 98794, Control_c, 0, 64, 102
1, 98810, Control_c, 0, 64, 102
1, 98830, Note_on_c, 0, 57, 89
1, 98831, Note_on_c, 0, 45, 88
1, 98837, Note_on_c, 0, 72, 92
1, 98840, Note_on_c, 0, 84, 88
1, 98854, Control_c, 0, 64, 103
1, 98858, Note_off_c, 0, 57, 66
1, 98859, Note_off_c, 0, 45, 63
1, 98876, Note_off_c, 0, 84, 56
1, 98882, Note_off_c, 0, 72, 62
1, 98883, Control_c, 0, 64, 103
1, 98928, Control_c, 0, 64, 104
1, 98943, Control_c, 0, 64, 105
1, 98945, Note_on_c, 0, 44, 70
1, 98945, Note_on_c, 0, 58, 74
1, 98953, Note_on_c, 0, 71, 92
1, 98955, Note_on_c, 0, 83, 92
1, 98963, Note_off_c, 0, 58, 64
1, 98965, Note_on_c, 0, 56, 39
1, 98967, Note_off_c, 0, 44, 59
1, 98972, Control_c, 0, 64, 106
1, 98987, Control_c, 0, 64, 106
1, 98990, Note_off_c, 0, 83, 55
1, 98991, Note_off_c, 0, 71, 62
1, 98997, Note_off_c, 0, 56, 54
1, 99002, Control_c, 0, 64, 109
1, 99017, Control_c, 0, 64, 112
1, 99022, Poly_aftertouch_c, 0, 46, 127
1, 99031, Control_c, 0, 64, 121
1, 99046, Control_c, 0, 64, 127
1, 99054, Note_on_c, 0, 65, 100
1, 99055, Note_on_c, 0, 53, 96
1, 99057, Note_on_c, 0, 81, 94
1, 99058, Note_on_c, 0, 69, 93
1, 99064, Poly_aftertouch_c, 0, 46, 0
1, 99087, Note_off_c, 0, 65, 63
1, 99091, Note_on_c, 0, 56, 36
1, 99097, Note_on_c, 0, 78, 45
1, 99098, Note_off_c, 0, 53, 60
1, 99099, Note_off_c, 0, 69, 64
1, 99102, Note_off_c, 0, 81, 60
1, 99122, Note_off_c, 0, 56, 54
1, 99122, Note_off_c, 0, 78, 55
1, 99150, Control_c, 0, 64, 83
1, 99163, Note_on_c, 0, 64, 102
1, 99164, Note_on_c, 0, 68, 92
1, 99164, Note_on_c, 0, 80, 96
1, 99165, Control_c, 0, 64, 61
1, 99170, Note_on_c, 0, 52, 91
1, 99180, Control_c, 0, 64, 28
1, 99206, Note_on_c, 0, 81, 49
1, 99207, Note_off_c, 0, 81, 127
1, 99210, Control_c, 0, 64, 35
1, 99225, Control_c, 0, 64, 63
1, 99239, Control_c, 0, 64, 76
1, 99254, Control_c, 0, 64, 94
1, 99258, Note_off_c, 0, 68, 61
1, 99269, Control_c, 0, 64, 127
1, 99281, Note_off_c, 0, 52, 61
1, 99284, Note_off_c, 0, 80, 58
1, 99296, Note_off_c, 0, 64, 57
1, 99424, Control_c, 0, 64, 86
1, 99439, Control_c, 0, 64, 63
1, 99454, Control_c, 0, 64, 0
1, 99532, Poly_aftertouch_c, 0, 73, 0
1, 99609, Note_on_c, 0, 76, 97
1, 99610, Note_on_c, 0, 73, 103
1, 99612, Note_on_c, 0, 70, 103
1, 99612, Note_on_c, 0, 85, 102
1, 99615, Note_on_c, 0, 58, 91
1, 99648, Control_c, 0, 64, 68
1, 99660, Note_off_c, 0, 70, 65
1, 99662, Control_c, 0, 64, 127
1, 99684, Note_off_c, 0, 58, 58
1, 99734, Note_on_c, 0, 57, 80
1, 99734, Note_on_c, 0, 69, 91
1, 99773, Note_off_c, 0, 69, 65
1, 99782, Note_off_c, 0, 57, 61
1, 99850, Note_on_c, 0, 67, 89
1, 99851, Note_on_c, 0, 55, 86
1, 99887, Note_off_c, 0, 67, 59
1, 99893, Note_off_c, 0, 55, 62
1, 99900, Note_off_c, 0, 76, 56
1, 99967, Note_on_c, 0, 64, 88
1, 99971, Note_on_c, 0, 52, 74
1, 99979, Note_on_c, 0, 50, 76
1, 99989, Note_off_c, 0, 64, 64
1, 99991, Note_off_c, 0, 73, 56
1, 99999, Note_off_c, 0, 50, 66
1, 100002, Note_off_c, 0, 52, 61
1, 100004, Note_off_c, 0, 85, 54
1, 100086, Note_on_c, 0, 61, 88
1, 100101, Note_on_c, 0, 73, 78
1, 100105, Note_on_c, 0, 85, 68
1, 100108, Note_on_c, 0, 81, 65
1, 100113, Note_on_c, 0, 49, 44
1, 100122, Note_on_c, 0, 48, 42
1, 100124, Note_off_c, 0, 73, 67
1, 100125, Note_off_c, 0, 81, 67
1, 100127, Note_off_c, 0, 61, 59
1, 100140, Note_off_c, 0, 49, 58
1, 100151, Note_off_c, 0, 48, 56
1, 100155, Note_off_c, 0, 85, 59
1, 100191, Note_on_c, 0, 58, 85
1, 100199, Note_on_c, 0, 46, 77
1, 100228, Note_off_c, 0, 46, 63
1, 100242, Note_off_c, 0, 58, 57
1, 100256, Note_on_c, 0, 82, 24
1, 100289, Note_on_c, 0, 45, 78
1, 100295, Note_off_c, 0, 82, 50
1, 100304, Note_on_c, 0, 57, 75
1, 100313, Note_on_c, 0, 74, 88
1, 100315, Note_on_c, 0, 83, 81
1, 100320, Note_on_c, 0, 86, 74
1, 100334, Note_off_c, 0, 57, 63
1, 100361, Note_off_c, 0, 83, 61
1, 100362, Note_off_c, 0, 74, 58
1, 100372, Note_off_c, 0, 86, 59
1, 100410, Note_on_c, 0, 55, 83
1, 100424, Note_on_c, 0, 76, 85
1, 100424, Note_on_c, 0, 88, 83
1, 100426, Note_on_c, 0, 85, 81
1, 100427, Poly_aftertouch_c, 0, 84, 0
1, 100436, Note_off_c, 0, 55, 61
1, 100461, Note_off_c, 0, 45, 57
1, 100461, Note_off_c, 0, 76, 58
1, 100467, Note_off_c, 0, 88, 62
1, 100476, Note_off_c, 0, 85, 64
1, 100485, Control_c, 0, 64, 108
1, 100500, Control_c, 0, 64, 69
1, 100524, Note_on_c, 0, 50, 76
1, 100527, Note_on_c, 0, 53, 77
1, 100530, Control_c, 0, 64, 0
1, 100533, Note_on_c, 0, 77, 88
1, 100533, Note_on_c, 0, 89, 85
1, 100545, Note_on_c, 0, 86, 68
1, 100565, Note_off_c, 0, 50, 61
1, 100574, Control_c, 0, 64, 52
1, 100575, Note_off_c, 0, 77, 60
1, 100576, Note_off_c, 0, 86, 63
1, 100584, Note_off_c, 0, 89, 61
1, 100589, Control_c, 0, 64, 69
1, 100590, Note_off_c, 0, 53, 55
1, 100603, Control_c, 0, 64, 80
1, 100618, Control_c, 0, 64, 94
1, 100620, Note_on_c, 0, 52, 75
1, 100627, Note_on_c, 0, 49, 84
1, 100633, Control_c, 0, 64, 102
1, 100641, Note_on_c, 0, 91, 90
1, 100644, Note_on_c, 0, 88, 77
1, 100645, Note_on_c, 0, 79, 79
1, 100656, Note_off_c, 0, 52, 59
1, 100678, Note_off_c, 0, 79, 59
1, 100685, Note_off_c, 0, 49, 62
1, 100685, Note_off_c, 0, 91, 64
1, 100688, Note_off_c, 0, 88, 62
1, 100707, Control_c, 0, 64, 103
1, 100745, Note_on_c, 0, 93, 95
1, 100749, Note_on_c, 0, 81, 83
1, 100750, Note_on_c, 0, 89, 76
1, 100752, Note_on_c, 0, 47, 68
1, 100753, Note_on_c, 0, 50, 71
1, 100766, Note_on_c, 0, 48, 65
1, 100787, Note_off_c, 0, 47, 60
1, 100792, Note_off_c, 0, 50, 62
1, 100793, Note_off_c, 0, 81, 62
1, 100794, Note_off_c, 0, 93, 64
1, 100795, Note_off_c, 0, 48, 62
1, 100796, Note_off_c, 0, 89, 58
1, 100804, Control_c, 0, 64, 103
1, 100814, Note_on_c, 0, 52, 3
1, 100852, Note_on_c, 0, 83, 79
1, 100853, Note_on_c, 0, 49, 87
1, 100855, Note_on_c, 0, 95, 93
1, 100856, Note_off_c, 0, 52, 46
1, 100858, Note_on_c, 0, 91, 80
1, 100859, Note_on_c, 0, 45, 83
1, 100862, Control_c, 0, 64, 104
1, 100877, Control_c, 0, 64, 105
1, 100890, Note_off_c, 0, 95, 66
1, 100892, Control_c, 0, 64, 105
1, 100900, Note_off_c, 0, 83, 60
1, 100900, Note_off_c, 0, 91, 52
1, 100909, Note_off_c, 0, 49, 62
1, 100917, Note_off_c, 0, 45, 59
1, 100936, Control_c, 0, 64, 106
1, 100951, Control_c, 0, 64, 109
1, 100966, Control_c, 0, 64, 111
1, 100967, Note_on_c, 0, 97, 93
1, 100970, Note_on_c, 0, 85, 83
1, 100972, Note_on_c, 0, 47, 86
1, 100981, Control_c, 0, 64, 112
1, 100985, Note_on_c, 0, 45, 71
1, 100987, Note_on_c, 0, 94, 52
1, 100996, Note_on_c, 0, 43, 59
1, 100998, Note_on_c, 0, 93, 43
1, 101002, Note_off_c, 0, 85, 55
1, 101005, Note_on_c, 0, 84, 39
1, 101007, Note_off_c, 0, 45, 66
1, 101008, Note_on_c, 0, 86, 35
1, 101013, Note_off_c, 0, 94, 53
1, 101013, Note_off_c, 0, 97, 62
1, 101020, Note_off_c, 0, 43, 57
1, 101024, Note_off_c, 0, 93, 57
1, 101025, Note_off_c, 0, 47, 59
1, 101034, Note_off_c, 0, 84, 53
1, 101039, Note_off_c, 0, 86, 53
1, 101070, Note_on_c, 0, 98, 100
1, 101072, Note_on_c, 0, 86, 88
1, 101076, Note_on_c, 0, 45, 86
1, 101080, Note_on_c, 0, 41, 77
1, 101092, Note_on_c, 0, 96, 66
1, 101106, Note_on_c, 0, 95, 19
1, 101110, Note_off_c, 0, 96, 65
1, 101117, Note_off_c, 0, 98, 67
1, 101118, Note_off_c, 0, 86, 65
1, 101121, Note_off_c, 0, 41, 61
1, 101127, Note_off_c, 0, 45, 60
1, 101147, Note_off_c, 0, 95, 52
1, 101180, Note_on_c, 0, 43, 25
1, 101183, Note_on_c, 0, 88, 100
1, 101183, Note_on_c, 0, 97, 98
1, 101183, Note_on_c, 0, 100, 101
1, 101196, Note_on_c, 0, 38, 76
1, 101204, Control_c, 0, 64, 113
1, 101208, Note_on_c, 0, 40, 69
1, 101217, Note_off_c, 0, 100, 67
1, 101220, Note_off_c, 0, 88, 64
1, 101222, Note_on_c, 0, 41, 46
1, 101232, Note_off_c, 0, 40, 61
1, 101233, Note_off_c, 0, 97, 66
1, 101234, Note_off_c, 0, 38, 64
1, 101241, Note_off_c, 0, 43, 59
1, 101243, Note_off_c, 0, 41, 62
1, 101285, Note_on_c, 0, 89, 101
1, 101286, Note_on_c, 0, 41, 95
1, 101290, Note_on_c, 0, 36, 71
1, 101298, Note_on_c, 0, 101, 70
1, 101308, Control_c, 0, 64, 113
1, 101316, Note_on_c, 0, 99, 41
1, 101317, Note_off_c, 0, 36, 59
1, 101317, Note_off_c, 0, 101, 44
1, 101320, Note_on_c, 0, 38, 41
1, 101320, Note_off_c, 0, 41, 62
1, 101323, Control_c, 0, 64, 114
1, 101329, Note_off_c, 0, 89, 64
1, 101338, Control_c, 0, 64, 115
1, 101345, Note_off_c, 0, 99, 56
1, 101347, Note_off_c, 0, 38, 58
1, 101352, Control_c, 0, 64, 116
1, 101367, Control_c, 0, 64, 117
1, 101382, Control_c, 0, 64, 119
1, 101397, Control_c, 0, 64, 127
1, 101485, Note_on_c, 0, 71, 104
1, 101488, Note_on_c, 0, 74, 99
1, 101488, Note_on_c, 0, 83, 107
1, 101492, Note_on_c, 0, 68, 103
1, 101498, Note_on_c, 0, 54, 82
1, 101498, Note_on_c, 0, 56, 92
1, 101500, Control_c, 0, 64, 103
1, 101505, Note_on_c, 0, 66, 75
1, 101515, Control_c, 0, 64, 67
1, 101522, Note_off_c, 0, 66, 62
1, 101538, Control_c, 0, 64, 0
1, 101558, Note_off_c, 0, 54, 61
1, 101597, Control_c, 0, 64, 57
1, 101598, Note_off_c, 0, 68, 59
1, 101609, Note_off_c, 0, 56, 60
1, 101611, Control_c, 0, 64, 75
1, 101626, Control_c, 0, 64, 91
1, 101641, Control_c, 0, 64, 127
1, 101660, Note_on_c, 0, 55, 78
1, 101663, Note_on_c, 0, 67, 78
1, 101696, Note_off_c, 0, 67, 56
1, 101719, Note_off_c, 0, 55, 60
1, 101760, Note_off_c, 0, 74, 58
1, 101776, Note_on_c, 0, 65, 75
1, 101780, Note_on_c, 0, 53, 82
1, 101816, Note_off_c, 0, 65, 61
1, 101826, Note_off_c, 0, 71, 50
1, 101833, Note_off_c, 0, 53, 58
1, 101866, Note_off_c, 0, 83, 31
1, 101896, Note_on_c, 0, 62, 87
1, 101899, Note_on_c, 0, 50, 85
1, 101923, Note_off_c, 0, 62, 60
1, 101940, Note_off_c, 0, 50, 61
1, 101982, Control_c, 0, 64, 93
1, 101995, Note_on_c, 0, 71, 90
1, 101997, Control_c, 0, 64, 66
1, 101997, Note_on_c, 0, 83, 81
1, 102008, Note_on_c, 0, 59, 89
1, 102009, Note_on_c, 0, 79, 74
1, 102012, Control_c, 0, 64, 39
1, 102013, Note_on_c, 0, 47, 84
1, 102039, Note_off_c, 0, 59, 61
1, 102042, Control_c, 0, 64, 25
1, 102043, Note_off_c, 0, 47, 65
1, 102051, Note_off_c, 0, 71, 61
1, 102057, Control_c, 0, 64, 56
1, 102066, Note_off_c, 0, 79, 61
1, 102071, Control_c, 0, 64, 73
1, 102083, Note_off_c, 0, 83, 60
1, 102086, Control_c, 0, 64, 88
1, 102101, Control_c, 0, 64, 110
1, 102116, Note_on_c, 0, 56, 88
1, 102116, Control_c, 0, 64, 119
1, 102119, Note_on_c, 0, 44, 85
1, 102148, Note_off_c, 0, 44, 64
1, 102149, Note_off_c, 0, 56, 61
1, 102203, Note_on_c, 0, 43, 68
1, 102206, Note_on_c, 0, 72, 85
1, 102209, Note_on_c, 0, 84, 83
1, 102212, Note_on_c, 0, 81, 72
1, 102214, Note_on_c, 0, 55, 80
1, 102246, Note_off_c, 0, 72, 61
1, 102250, Note_off_c, 0, 55, 60
1, 102255, Note_off_c, 0, 81, 60
1, 102256, Note_off_c, 0, 84, 60
1, 102326, Note_on_c, 0, 53, 88
1, 102326, Note_on_c, 0, 74, 93
1, 102327, Note_on_c, 0, 86, 85
1, 102328, Note_on_c, 0, 83, 72
1, 102362, Note_off_c, 0, 53, 59
1, 102370, Note_off_c, 0, 74, 62
1, 102374, Note_off_c, 0, 83, 61
1, 102379, Note_off_c, 0, 86, 62
1, 102390, Control_c, 0, 64, 117
1, 102392, Note_off_c, 0, 43, 58
1, 102405, Control_c, 0, 64, 91
1, 102420, Control_c, 0, 64, 67
1, 102434, Control_c, 0, 64, 41
1, 102441, Note_on_c, 0, 48, 80
1, 102441, Note_on_c, 0, 52, 82
1, 102445, Note_on_c, 0, 76, 89
1, 102447, Note_on_c, 0, 88, 85
1, 102449, Control_c, 0, 64, 0
1, 102452, Note_on_c, 0, 84, 72
1, 102479, Control_c, 0, 64, 40
1, 102491, Note_off_c, 0, 76, 62
1, 102492, Note_off_c, 0, 48, 61
1, 102494, Control_c, 0, 64, 64
1, 102495, Note_off_c, 0, 84, 60
1, 102495, Note_off_c, 0, 88, 63
1, 102497, Note_off_c, 0, 52, 59
1, 102508, Control_c, 0, 64, 73
1, 102523, Control_c, 0, 64, 84
1, 102538, Control_c, 0, 64, 94
1, 102550, Note_on_c, 0, 50, 82
1, 102553, Control_c, 0, 64, 97
1, 102557, Note_on_c, 0, 47, 79
1, 102560, Note_on_c, 0, 86, 52
1, 102562, Note_on_c, 0, 77, 88
1, 102563, Note_on_c, 0, 89, 88
1, 102582, Control_c, 0, 64, 98
1, 102590, Note_off_c, 0, 50, 61
1, 102604, Note_off_c, 0, 77, 60
1, 102612, Note_off_c, 0, 47, 62
1, 102613, Control_c, 0, 64, 98
1, 102614, Note_off_c, 0, 89, 61
1, 102614, Note_off_c, 0, 86, 61
1, 102668, Note_on_c, 0, 48, 90
1, 102672, Note_on_c, 0, 45, 90
1, 102674, Note_on_c, 0, 79, 92
1, 102677, Note_on_c, 0, 91, 91
1, 102677, Note_on_c, 0, 88, 85
1, 102717, Note_off_c, 0, 48, 63
1, 102719, Note_off_c, 0, 79, 64
1, 102721, Note_off_c, 0, 45, 55
1, 102721, Note_off_c, 0, 91, 64
1, 102724, Note_off_c, 0, 88, 63
1, 102775, Note_on_c, 0, 47, 95
1, 102782, Note_on_c, 0, 43, 81
1, 102784, Note_on_c, 0, 81, 94
1, 102784, Note_on_c, 0, 93, 93
1, 102789, Note_on_c, 0, 89, 88
1, 102821, Note_off_c, 0, 47, 62
1, 102824, Note_on_c, 0, 91, 44
1, 102829, Note_off_c, 0, 81, 65
1, 102831, Note_off_c, 0, 93, 65
1, 102835, Note_off_c, 0, 89, 63
1, 102838, Note_off_c, 0, 43, 62
1, 102852, Note_off_c, 0, 91, 60
1, 102880, Control_c, 0, 64, 99
1, 102891, Note_on_c, 0, 83, 105
1, 102893, Note_on_c, 0, 45, 91
1, 102893, Note_on_c, 0, 95, 94
1, 102895, Control_c, 0, 64, 99
1, 102896, Note_on_c, 0, 41, 89
1, 102897, Note_on_c, 0, 91, 91
1, 102910, Control_c, 0, 64, 100
1, 102930, Note_on_c, 0, 93, 47
1, 102933, Note_off_c, 0, 83, 66
1, 102934, Note_off_c, 0, 95, 65
1, 102937, Note_off_c, 0, 91, 65
1, 102942, Note_off_c, 0, 45, 61
1, 102947, Note_off_c, 0, 41, 61
1, 102957, Note_off_c, 0, 93, 40
1, 103003, Note_on_c, 0, 84, 98
1, 103006, Note_on_c, 0, 96, 88
1, 103007, Note_on_c, 0, 93, 99
1, 103010, Note_on_c, 0, 43, 90
1, 103013, Control_c, 0, 64, 100
1, 103019, Note_on_c, 0, 95, 84
1, 103028, Note_on_c, 0, 38, 69
1, 103037, Note_on_c, 0, 40, 60
1, 103038, Note_off_c, 0, 95, 71
1, 103050, Note_off_c, 0, 84, 63
1, 103051, Control_c, 0, 64, 101
1, 103052, Note_off_c, 0, 96, 64
1, 103055, Note_off_c, 0, 93, 64
1, 103061, Note_off_c, 0, 40, 60
1, 103064, Note_off_c, 0, 38, 63
1, 103067, Note_on_c, 0, 41, 20
1, 103068, Note_off_c, 0, 41, 127
1, 103068, Note_off_c, 0, 43, 59
1, 103080, Control_c, 0, 64, 101
1, 103091, Poly_aftertouch_c, 0, 41, 0
1, 103114, Note_on_c, 0, 86, 97
1, 103116, Note_on_c, 0, 98, 92
1, 103121, Note_on_c, 0, 95, 48
1, 103125, Control_c, 0, 64, 102
1, 103127, Note_on_c, 0, 93, 80
1, 103130, Note_on_c, 0, 36, 78
1, 103130, Note_on_c, 0, 38, 77
1, 103130, Note_on_c, 0, 96, 81
1, 103135, Note_on_c, 0, 41, 74
1, 103139, Note_on_c, 0, 40, 72
1, 103139, Control_c, 0, 64, 104
1, 103144, Note_off_c, 0, 96, 65
1, 103148, Note_off_c, 0, 93, 68
1, 103154, Note_off_c, 0, 95, 64
1, 103154, Control_c, 0, 64, 106
1, 103157, Note_off_c, 0, 86, 66
1, 103160, Note_off_c, 0, 98, 67
1, 103164, Note_off_c, 0, 36, 63
1, 103165, Note_off_c, 0, 41, 64
1, 103167, Note_off_c, 0, 40, 61
1, 103168, Note_off_c, 0, 38, 62
1, 103169, Control_c, 0, 64, 108
1, 103183, Control_c, 0, 64, 109
1, 103198, Control_c, 0, 64, 112
1, 103213, Control_c, 0, 64, 115
1, 103227, Note_on_c, 0, 88, 91
1, 103228, Note_on_c, 0, 100, 85
1, 103228, Control_c, 0, 64, 120
1, 103234, Note_on_c, 0, 36, 87
1, 103236, Note_on_c, 0, 98, 81
1, 103243, Control_c, 0, 64, 127
1, 103245, Note_on_c, 0, 40, 61
1, 103247, Note_on_c, 0, 38, 69
1, 103250, Note_on_c, 0, 95, 70
1, 103255, Note_off_c, 0, 98, 67
1, 103261, Note_off_c, 0, 40, 66
1, 103263, Note_on_c, 0, 41, 33
1, 103268, Note_off_c, 0, 38, 63
1, 103270, Note_off_c, 0, 36, 60
1, 103272, Note_off_c, 0, 100, 64
1, 103295, Note_off_c, 0, 41, 47
1, 103308, Note_off_c, 0, 88, 49
1, 103317, Poly_aftertouch_c, 0, 92, 127
1, 103344, Poly_aftertouch_c, 0, 92, 0
1, 103347, Control_c, 0, 64, 112
1, 103362, Control_c, 0, 64, 71
1, 103362, Note_off_c, 0, 95, 0
1, 103375, Note_on_c, 0, 95, 65
1, 103377, Control_c, 0, 64, 23
1, 103379, Note_on_c, 0, 89, 99
1, 103381, Note_on_c, 0, 38, 77
1, 103383, Note_on_c, 0, 101, 100
1, 103384, Note_on_c, 0, 50, 101
1, 103384, Note_on_c, 0, 92, 91
1, 103390, Note_on_c, 0, 47, 95
1, 103391, Control_c, 0, 64, 0
1, 103397, Note_on_c, 0, 100, 81
1, 103398, Note_on_c, 0, 44, 80
1, 103419, Note_off_c, 0, 100, 52
1, 103436, Control_c, 0, 64, 60
1, 103448, Note_off_c, 0, 50, 51
1, 103451, Control_c, 0, 64, 83
1, 103452, Note_off_c, 0, 101, 61
1, 103461, Note_off_c, 0, 95, 61
1, 103462, Note_off_c, 0, 89, 61
1, 103465, Control_c, 0, 64, 127
1, 103470, Note_off_c, 0, 38, 61
1, 103477, Note_off_c, 0, 44, 58
1, 103485, Note_off_c, 0, 47, 26
1, 103485, Note_off_c, 0, 92, 62
1, 103562, Note_on_c, 0, 86, 90
1, 103565, Note_on_c, 0, 98, 76
1, 103565, Note_on_c, 0, 53, 89
1, 103568, Note_on_c, 0, 41, 77
1, 103572, Note_on_c, 0, 96, 78
1, 103589, Note_off_c, 0, 53, 65
1, 103596, Note_off_c, 0, 41, 65
1, 103600, Note_off_c, 0, 96, 59
1, 103601, Note_off_c, 0, 98, 66
1, 103602, Note_off_c, 0, 86, 61
1, 103672, Note_on_c, 0, 44, 62
1, 103679, Note_on_c, 0, 56, 93
1, 103683, Note_on_c, 0, 83, 92
1, 103684, Note_on_c, 0, 95, 78
1, 103707, Note_off_c, 0, 95, 55
1, 103708, Note_off_c, 0, 83, 66
1, 103715, Note_on_c, 0, 93, 46
1, 103716, Note_off_c, 0, 93, 127
1, 103725, Note_off_c, 0, 56, 59
1, 103732, Note_off_c, 0, 44, 59
1, 103739, Note_on_c, 0, 46, 10
1, 103794, Note_off_c, 0, 46, 50
1, 103797, Note_on_c, 0, 92, 61
1, 103800, Note_on_c, 0, 80, 87
1, 103805, Note_on_c, 0, 59, 92
1, 103806, Note_on_c, 0, 47, 88
1, 103823, Note_on_c, 0, 78, 66
1, 103831, Note_on_c, 0, 90, 46
1, 103838, Note_off_c, 0, 47, 61
1, 103839, Note_off_c, 0, 92, 61
1, 103842, Note_off_c, 0, 78, 65
1, 103846, Note_off_c, 0, 80, 56
1, 103851, Note_off_c, 0, 59, 58
1, 103856, Note_off_c, 0, 90, 59
1, 103903, Control_c, 0, 64, 69
1, 103911, Note_on_c, 0, 77, 89
1, 103918, Control_c, 0, 64, 23
1, 103926, Note_on_c, 0, 62, 76
1, 103929, Note_on_c, 0, 50, 64
1, 103930, Note_on_c, 0, 59, 72
1, 103931, Note_on_c, 0, 83, 68
1, 103933, Note_on_c, 0, 56, 68
1, 103933, Control_c, 0, 64, 0
1, 103935, Note_on_c, 0, 88, 48
1, 103938, Note_on_c, 0, 82, 41
1, 103939, Note_on_c, 0, 85, 51
1, 103947, Note_on_c, 0, 79, 63
1, 103949, Note_off_c, 0, 50, 63
1, 103949, Note_off_c, 0, 77, 62
1, 103952, Note_off_c, 0, 62, 64
1, 103953, Note_on_c, 0, 89, 13
1, 103953, Note_off_c, 0, 59, 66
1, 103955, Note_off_c, 0, 88, 60
1, 103960, Note_off_c, 0, 85, 62
1, 103967, Note_off_c, 0, 56, 64
1, 103970, Note_on_c, 0, 80, 9
1, 103973, Note_off_c, 0, 83, 50
1, 103977, Control_c, 0, 64, 57
1, 103985, Note_off_c, 0, 79, 60
1, 103987, Note_off_c, 0, 82, 42
1, 103992, Control_c, 0, 64, 73
1, 103995, Note_off_c, 0, 89, 40
1, 104006, Note_off_c, 0, 80, 0
1, 104006, Control_c, 0, 64, 90
1, 104021, Control_c, 0, 64, 109
1, 104023, Note_on_c, 0, 87, 86
1, 104024, Note_on_c, 0, 51, 86
1, 104024, Note_on_c, 0, 63, 95
1, 104025, Note_on_c, 0, 75, 80
1, 104036, Control_c, 0, 64, 115
1, 104041, Note_on_c, 0, 74, 68
1, 104044, Poly_aftertouch_c, 0, 80, 127
1, 104050, Note_on_c, 0, 85, 54
1, 104059, Note_off_c, 0, 74, 65
1, 104069, Note_off_c, 0, 85, 63
1, 104076, Note_off_c, 0, 75, 58
1, 104077, Note_off_c, 0, 87, 62
1, 104079, Note_off_c, 0, 63, 54
1, 104083, Note_off_c, 0, 51, 57
1, 104096, Poly_aftertouch_c, 0, 80, 0
1, 104130, Note_on_c, 0, 76, 94
1, 104132, Note_on_c, 0, 88, 89
1, 104138, Note_on_c, 0, 52, 76
1, 104139, Note_on_c, 0, 64, 83
1, 104140, Control_c, 0, 64, 116
1, 104154, Note_on_c, 0, 85, 42
1, 104155, Note_off_c, 0, 85, 127
1, 104162, Note_off_c, 0, 64, 63
1, 104167, Note_off_c, 0, 52, 57
1, 104173, Note_off_c, 0, 88, 58
1, 104174, Note_off_c, 0, 76, 62
1, 104179, Note_on_c, 0, 53, 27
1, 104211, Note_off_c, 0, 53, 0
1, 104213, Control_c, 0, 64, 116
1, 104226, Note_on_c, 0, 86, 82
1, 104228, Note_on_c, 0, 53, 64
1, 104228, Control_c, 0, 64, 117
1, 104230, Note_on_c, 0, 65, 86
1, 104232, Note_on_c, 0, 74, 83
1, 104243, Control_c, 0, 64, 118
1, 104247, Note_off_c, 0, 65, 72
1, 104251, Note_off_c, 0, 74, 67
1, 104273, Control_c, 0, 64, 119
1, 104273, Note_off_c, 0, 86, 63
1, 104276, Note_on_c, 0, 56, 33
1, 104286, Note_off_c, 0, 53, 59
1, 104287, Control_c, 0, 64, 124
1, 104302, Control_c, 0, 64, 127
1, 104322, Note_off_c, 0, 56, 50
1, 104407, Control_c, 0, 64, 124
1, 104420, Note_on_c, 0, 96, 103
1, 104421, Control_c, 0, 64, 74
1, 104423, Note_on_c, 0, 45, 107
1, 104423, Note_on_c, 0, 84, 84
1, 104425, Note_on_c, 0, 39, 89
1, 104425, Note_on_c, 0, 87, 95
1, 104426, Note_on_c, 0, 33, 105
1, 104429, Note_on_c, 0, 90, 91
1, 104430, Note_on_c, 0, 42, 86
1, 104431, Note_on_c, 0, 86, 67
1, 104436, Control_c, 0, 64, 38
1, 104451, Control_c, 0, 64, 0
1, 104456, Note_off_c, 0, 86, 51
1, 104458, Note_off_c, 0, 39, 56
1, 104461, Note_off_c, 0, 45, 54
1, 104470, Note_off_c, 0, 33, 57
1, 104477, Note_off_c, 0, 42, 43
1, 104481, Control_c, 0, 64, 27
1, 104493, Note_off_c, 0, 84, 59
1, 104493, Note_off_c, 0, 96, 60
1, 104495, Control_c, 0, 64, 64
1, 104506, Note_off_c, 0, 90, 63
1, 104510, Control_c, 0, 64, 87
1, 104515, Note_off_c, 0, 87, 61
1, 104533, Control_c, 0, 64, 127
1, 104543, Poly_aftertouch_c, 0, 95, 0
1, 104601, Note_on_c, 0, 48, 83
1, 104605, Note_on_c, 0, 36, 80
1, 104610, Note_on_c, 0, 81, 89
1, 104622, Note_on_c, 0, 93, 66
1, 104628, Note_on_c, 0, 91, 66
1, 104629, Note_on_c, 0, 47, 46
1, 104635, Note_off_c, 0, 36, 61
1, 104639, Note_off_c, 0, 93, 66
1, 104641, Note_off_c, 0, 48, 64
1, 104646, Note_off_c, 0, 91, 68
1, 104647, Note_off_c, 0, 81, 60
1, 104660, Note_off_c, 0, 47, 57
1, 104727, Note_on_c, 0, 51, 86
1, 104727, Note_on_c, 0, 78, 89
1, 104730, Note_on_c, 0, 39, 71
1, 104732, Note_on_c, 0, 90, 77
1, 104751, Note_off_c, 0, 51, 65
1, 104752, Note_off_c, 0, 90, 70
1, 104765, Note_off_c, 0, 39, 65
1, 104765, Note_off_c, 0, 78, 60
1, 104772, Note_on_c, 0, 38, 20
1, 104819, Note_off_c, 0, 38, 39
1, 104835, Note_on_c, 0, 75, 91
1, 104841, Note_on_c, 0, 87, 79
1, 104846, Note_on_c, 0, 54, 88
1, 104847, Note_on_c, 0, 42, 83
1, 104873, Note_off_c, 0, 54, 63
1, 104884, Note_off_c, 0, 42, 61
1, 104885, Note_off_c, 0, 87, 59
1, 104887, Note_off_c, 0, 75, 62
1, 104933, Control_c, 0, 64, 79
1, 104947, Control_c, 0, 64, 48
1, 104953, Note_on_c, 0, 72, 86
1, 104954, Note_on_c, 0, 57, 80
1, 104958, Note_on_c, 0, 75, 83
1, 104960, Note_on_c, 0, 78, 77
1, 104962, Control_c, 0, 64, 0
1, 104963, Note_on_c, 0, 84, 64
1, 104969, Note_on_c, 0, 45, 55
1, 104977, Note_off_c, 0, 57, 68
1, 104980, Note_off_c, 0, 84, 64
1, 104981, Note_off_c, 0, 72, 68
1, 104986, Note_on_c, 0, 53, 48
1, 104987, Note_on_c, 0, 52, 48
1, 104993, Note_off_c, 0, 45, 57
1, 104996, Note_on_c, 0, 43, 14
1, 104997, Note_off_c, 0, 43, 127
1, 105007, Control_c, 0, 64, 57
1, 105014, Note_off_c, 0, 52, 56
1, 105014, Note_off_c, 0, 53, 56
1, 105021, Control_c, 0, 64, 74
1, 105022, Note_off_c, 0, 75, 58
1, 105023, Note_off_c, 0, 78, 60
1, 105036, Control_c, 0, 64, 90
1, 105051, Control_c, 0, 64, 110
1, 105063, Note_on_c, 0, 58, 85
1, 105066, Control_c, 0, 64, 120
1, 105067, Note_on_c, 0, 46, 81
1, 105076, Note_on_c, 0, 70, 84
1, 105080, Note_on_c, 0, 82, 74
1, 105113, Note_off_c, 0, 70, 59
1, 105114, Note_off_c, 0, 46, 58
1, 105115, Note_off_c, 0, 82, 59
1, 105116, Note_off_c, 0, 58, 56
1, 105170, Note_on_c, 0, 59, 85
1, 105178, Note_on_c, 0, 71, 87
1, 105180, Note_on_c, 0, 83, 84
1, 105191, Note_on_c, 0, 48, 58
1, 105204, Note_on_c, 0, 47, 39
1, 105213, Note_off_c, 0, 59, 58
1, 105216, Note_off_c, 0, 48, 60
1, 105222, Note_off_c, 0, 83, 54
1, 105222, Note_off_c, 0, 71, 61
1, 105238, Note_off_c, 0, 47, 51
1, 105284, Note_on_c, 0, 60, 87
1, 105295, Note_on_c, 0, 50, 76
1, 105305, Note_on_c, 0, 81, 71
1, 105306, Note_on_c, 0, 67, 81
1, 105306, Note_on_c, 0, 69, 74
1, 105312, Control_c, 0, 64, 121
1, 105316, Note_on_c, 0, 79, 66
1, 105326, Note_off_c, 0, 81, 58
1, 105326, Control_c, 0, 64, 122
1, 105329, Note_off_c, 0, 67, 65
1, 105330, Note_off_c, 0, 69, 66
1, 105333, Note_off_c, 0, 79, 63
1, 105336, Note_off_c, 0, 60, 57
1, 105338, Note_off_c, 0, 50, 53
1, 105356, Control_c, 0, 64, 112
1, 105371, Control_c, 0, 64, 85
1, 105386, Control_c, 0, 64, 63
1, 105400, Control_c, 0, 64, 37
1, 105404, Note_on_c, 0, 59, 74
1, 105406, Note_on_c, 0, 50, 75
1, 105406, Note_on_c, 0, 70, 57
1, 105410, Note_on_c, 0, 65, 84
1, 105413, Note_on_c, 0, 77, 73
1, 105415, Control_c, 0, 64, 20
1, 105428, Note_on_c, 0, 57, 49
1, 105430, Control_c, 0, 64, 28
1, 105433, Note_on_c, 0, 79, 27
1, 105437, Note_on_c, 0, 71, 46
1, 105443, Note_off_c, 0, 65, 59
1, 105445, Note_off_c, 0, 77, 58
1, 105445, Control_c, 0, 64, 55
1, 105446, Note_on_c, 0, 67, 35
1, 105447, Note_off_c, 0, 67, 127
1, 105455, Note_off_c, 0, 57, 53
1, 105459, Control_c, 0, 64, 69
1, 105462, Note_off_c, 0, 71, 39
1, 105467, Note_off_c, 0, 79, 32
1, 105474, Control_c, 0, 64, 80
1, 105489, Control_c, 0, 64, 95
1, 105498, Note_off_c, 0, 59, 0
1, 105504, Control_c, 0, 64, 107
1, 105508, Note_off_c, 0, 70, 27
1, 105509, Note_on_c, 0, 51, 83
1, 105519, Control_c, 0, 64, 109
1, 105523, Note_on_c, 0, 75, 82
1, 105526, Note_on_c, 0, 63, 92
1, 105533, Control_c, 0, 64, 110
1, 105535, Poly_aftertouch_c, 0, 59, 127
1, 105548, Control_c, 0, 64, 113
1, 105556, Note_on_c, 0, 73, 45
1, 105563, Control_c, 0, 64, 120
1, 105577, Control_c, 0, 64, 127
1, 105580, Note_off_c, 0, 73, 57
1, 105583, Note_off_c, 0, 51, 58
1, 105583, Note_off_c, 0, 75, 58
1, 105585, Note_off_c, 0, 50, 34
1, 105585, Note_off_c, 0, 63, 61
1, 105588, Poly_aftertouch_c, 0, 59, 0
1, 105624, Note_on_c, 0, 52, 88
1, 105640, Note_on_c, 0, 64, 90
1, 105642, Note_on_c, 0, 76, 82
1, 105669, Note_on_c, 0, 73, 56
1, 105678, Note_off_c, 0, 52, 60
1, 105687, Note_off_c, 0, 73, 62
1, 105688, Note_off_c, 0, 76, 56
1, 105688, Note_off_c, 0, 64, 59
1, 105726, Control_c, 0, 64, 104
1, 105732, Note_on_c, 0, 53, 87
1, 105741, Control_c, 0, 64, 75
1, 105747, Note_on_c, 0, 62, 87
1, 105749, Note_on_c, 0, 74, 80
1, 105756, Control_c, 0, 64, 55
1, 105771, Control_c, 0, 64, 0
1, 105773, Note_on_c, 0, 64, 45
1, 105780, Note_on_c, 0, 76, 27
1, 105781, Note_off_c, 0, 76, 127
1, 105784, Note_off_c, 0, 53, 59
1, 105788, Note_off_c, 0, 74, 61
1, 105796, Note_off_c, 0, 62, 59
1, 105807, Note_off_c, 0, 64, 36
1, 105866, Note_on_c, 0, 64, 94
1, 105875, Note_on_c, 0, 61, 93
1, 105876, Note_on_c, 0, 52, 69
1, 105877, Note_on_c, 0, 56, 72
1, 105878, Note_on_c, 0, 73, 89
1, 105917, Note_off_c, 0, 56, 60
1, 105919, Note_off_c, 0, 52, 56
1, 105919, Note_off_c, 0, 73, 60
1, 105920, Note_off_c, 0, 64, 58
1, 105926, Note_off_c, 0, 61, 60
1, 105986, Note_on_c, 0, 71, 87
1, 105988, Note_on_c, 0, 59, 92
1, 106048, Note_off_c, 0, 59, 61
1, 106058, Note_off_c, 0, 71, 61
1, 106128, Note_on_c, 0, 60, 94
1, 106128, Note_on_c, 0, 62, 85
1, 106134, Note_on_c, 0, 72, 98
1, 106135, Note_on_c, 0, 56, 84
1, 106138, Note_on_c, 0, 52, 64
1, 106163, Note_off_c, 0, 62, 58
1, 106168, Note_on_c, 0, 70, 42
1, 106178, Note_off_c, 0, 60, 62
1, 106180, Note_off_c, 0, 72, 64
1, 106185, Note_off_c, 0, 52, 60
1, 106188, Note_off_c, 0, 56, 63
1, 106197, Note_off_c, 0, 70, 37
1, 106260, Note_on_c, 0, 59, 97
1, 106265, Note_on_c, 0, 71, 86
1, 106284, Note_on_c, 0, 69, 62
1, 106304, Note_off_c, 0, 69, 63
1, 106307, Note_off_c, 0, 71, 60
1, 106313, Note_off_c, 0, 59, 61
1, 106457, Note_on_c, 0, 62, 72
1, 106459, Note_on_c, 0, 57, 94
1, 106459, Note_on_c, 0, 53, 93
1, 106459, Note_on_c, 0, 69, 90
1, 106462, Note_on_c, 0, 65, 82
1, 106462, Note_on_c, 0, 45, 87
1, 106463, Note_on_c, 0, 50, 87
1, 106820, Note_off_c, 0, 62, 49
1, 106897, Control_c, 0, 64, 33
1, 106912, Control_c, 0, 64, 46
1, 106927, Control_c, 0, 64, 53
1, 106942, Control_c, 0, 64, 56
1, 106957, Control_c, 0, 64, 59
1, 106971, Control_c, 0, 64, 60
1, 106986, Control_c, 0, 64, 61
1, 107001, Control_c, 0, 64, 63
1, 107016, Control_c, 0, 64, 64
1, 107030, Control_c, 0, 64, 64
1, 107045, Control_c, 0, 64, 65
1, 107060, Control_c, 0, 64, 65
1, 107133, Note_off_c, 0, 65, 24
1, 107204, Note_off_c, 0, 50, 53
1, 107205, Note_on_c, 0, 52, 58
1, 107207, Note_off_c, 0, 53, 53
1, 107209, Note_on_c, 0, 48, 46
1, 107214, Note_on_c, 0, 64, 47
1, 107217, Note_on_c, 0, 60, 51
1, 107237, Control_c, 0, 64, 64
1, 107252, Control_c, 0, 64, 58
1, 107267, Control_c, 0, 64, 48
1, 107282, Control_c, 0, 64, 36
1, 107297, Control_c, 0, 64, 18
1, 107312, Control_c, 0, 64, 0
1, 107445, Control_c, 0, 64, 29
1, 107460, Control_c, 0, 64, 48
1, 107475, Control_c, 0, 64, 60
1, 107489, Control_c, 0, 64, 64
1, 107504, Control_c, 0, 64, 66
1, 107527, Note_off_c, 0, 57, 54
1, 107527, Control_c, 0, 64, 68
1, 107541, Control_c, 0, 64, 70
1, 107556, Control_c, 0, 64, 74
1, 107571, Control_c, 0, 64, 78
1, 107577, Note_off_c, 0, 45, 48
1, 107586, Control_c, 0, 64, 83
1, 107601, Control_c, 0, 64, 88
1, 107616, Control_c, 0, 64, 92
1, 107618, Note_off_c, 0, 52, 57
1, 107631, Control_c, 0, 64, 94
1, 107646, Control_c, 0, 64, 94
1, 107652, Note_off_c, 0, 60, 35
1, 107655, Note_off_c, 0, 48, 34
1, 107669, Note_off_c, 0, 69, 42
1, 107703, Note_off_c, 0, 64, 30
1, 107839, Control_c, 0, 64, 94
1, 107853, Control_c, 0, 64, 93
1, 107868, Control_c, 0, 64, 92
1, 107883, Control_c, 0, 64, 92
1, 107898, Control_c, 0, 64, 90
1, 107912, Control_c, 0, 64, 89
1, 107927, Control_c, 0, 64, 86
1, 107942, Control_c, 0, 64, 82
1, 107957, Control_c, 0, 64, 75
1, 107971, Control_c, 0, 64, 68
1, 107986, Control_c, 0, 64, 61
1, 108001, Control_c, 0, 64, 58
1, 108016, Control_c, 0, 64, 55
1, 108031, Control_c, 0, 64, 54
1, 108045, Control_c, 0, 64, 52
1, 108060, Control_c, 0, 64, 49
1, 108075, Control_c, 0, 64, 46
1, 108090, Control_c, 0, 64, 41
1, 108105, Control_c, 0, 64, 34
1, 108120, Control_c, 0, 64, 21
1, 108135, Control_c, 0, 64, 0
1, 108629, Note_on_c, 0, 64, 50
1, 108638, Note_on_c, 0, 88, 58
1, 108688, Note_off_c, 0, 64, 54
1, 108689, Note_off_c, 0, 88, 56
1, 108701, Note_on_c, 0, 89, 74
1, 108707, Note_on_c, 0, 65, 59
1, 108772, Note_off_c, 0, 65, 59
1, 108775, Note_on_c, 0, 88, 74
1, 108776, Note_on_c, 0, 64, 59
1, 108794, Control_c, 0, 64, 21
1, 108809, Control_c, 0, 64, 55
1, 108818, Note_off_c, 0, 89, 34
1, 108824, Control_c, 0, 64, 65
1, 108839, Control_c, 0, 64, 70
1, 108847, Note_on_c, 0, 84, 79
1, 108854, Note_off_c, 0, 88, 63
1, 108854, Control_c, 0, 64, 75
1, 108861, Note_on_c, 0, 60, 69
1, 108867, Note_off_c, 0, 64, 60
1, 108868, Control_c, 0, 64, 81
1, 108869, Note_off_c, 0, 84, 63
1, 108883, Control_c, 0, 64, 85
1, 108892, Note_off_c, 0, 60, 61
1, 108898, Control_c, 0, 64, 88
1, 108913, Control_c, 0, 64, 89
1, 108928, Control_c, 0, 64, 91
1, 108942, Control_c, 0, 64, 92
1, 108957, Control_c, 0, 64, 93
1, 109182, Note_on_c, 0, 76, 56
1, 109204, Note_on_c, 0, 72, 52
1, 109208, Note_on_c, 0, 52, 60
1, 109213, Note_on_c, 0, 45, 57
1, 109225, Note_off_c, 0, 72, 61
1, 109232, Note_off_c, 0, 76, 60
1, 109251, Note_off_c, 0, 52, 57
1, 109253, Note_off_c, 0, 45, 60
1, 109477, Note_on_c, 0, 81, 46
1, 109506, Note_on_c, 0, 57, 43
1, 109523, Note_on_c, 0, 55, 17
1, 109545, Note_on_c, 0, 83, 69
1, 109549, Note_off_c, 0, 81, 52
1, 109564, Note_off_c, 0, 57, 58
1, 109567, Note_off_c, 0, 55, 51
1, 109569, Note_on_c, 0, 59, 69
1, 109589, Control_c, 0, 64, 92
1, 109604, Control_c, 0, 64, 90
1, 109618, Control_c, 0, 64, 82
1, 109633, Control_c, 0, 64, 74
1, 109640, Note_off_c, 0, 59, 59
1, 109640, Note_off_c, 0, 83, 61
1, 109643, Note_on_c, 0, 81, 73
1, 109648, Control_c, 0, 64, 65
1, 109649, Note_on_c, 0, 57, 66
1, 109663, Control_c, 0, 64, 60
1, 109678, Control_c, 0, 64, 57
1, 109692, Control_c, 0, 64, 55
1, 109707, Control_c, 0, 64, 54
1, 109712, Note_on_c, 0, 83, 77
1, 109712, Note_on_c, 0, 59, 71
1, 109714, Note_off_c, 0, 57, 61
1, 109722, Control_c, 0, 64, 53
1, 109736, Control_c, 0, 64, 51
1, 109751, Control_c, 0, 64, 49
1, 109756, Note_off_c, 0, 81, 34
1, 109773, Note_off_c, 0, 59, 59
1, 109774, Control_c, 0, 64, 48
1, 109780, Note_on_c, 0, 60, 73
1, 109789, Control_c, 0, 64, 47
1, 109794, Note_on_c, 0, 84, 78
1, 109796, Note_off_c, 0, 83, 62
1, 109848, Control_c, 0, 64, 47
1, 109855, Note_off_c, 0, 60, 59
1, 109856, Note_on_c, 0, 59, 66
1, 109881, Note_on_c, 0, 83, 66
1, 109901, Note_off_c, 0, 84, 47
1, 109914, Note_off_c, 0, 59, 59
1, 109917, Note_on_c, 0, 56, 75
1, 109938, Note_on_c, 0, 80, 71
1, 109941, Note_off_c, 0, 83, 60
1, 109991, Note_off_c, 0, 56, 60
1, 110000, Note_off_c, 0, 80, 58
1, 110013, Note_on_c, 0, 57, 74
1, 110025, Note_on_c, 0, 81, 73
1, 110081, Note_on_c, 0, 56, 60
1, 110081, Note_on_c, 0, 80, 62
1, 110111, Note_off_c, 0, 57, 57
1, 110124, Note_off_c, 0, 56, 61
1, 110132, Note_off_c, 0, 81, 44
1, 110150, Note_on_c, 0, 76, 72
1, 110152, Note_on_c, 0, 52, 64
1, 110156, Note_off_c, 0, 80, 59
1, 110215, Note_off_c, 0, 76, 53
1, 110215, Note_off_c, 0, 52, 57
1, 110227, Note_on_c, 0, 53, 68
1, 110245, Note_on_c, 0, 77, 64
1, 110314, Note_on_c, 0, 76, 64
1, 110322, Note_on_c, 0, 52, 58
1, 110329, Note_off_c, 0, 53, 55
1, 110342, Note_off_c, 0, 77, 51
1, 110352, Control_c, 0, 64, 46
1, 110371, Note_off_c, 0, 52, 59
1, 110381, Control_c, 0, 64, 46
1, 110396, Control_c, 0, 64, 44
1, 110411, Control_c, 0, 64, 43
1, 110430, Note_on_c, 0, 56, 60
1, 110438, Note_on_c, 0, 45, 57
1, 110442, Note_on_c, 0, 71, 55
1, 110443, Note_on_c, 0, 64, 51
1, 110446, Note_on_c, 0, 62, 67
1, 110455, Control_c, 0, 64, 48
1, 110470, Control_c, 0, 64, 61
1, 110484, Control_c, 0, 64, 69
1, 110495, Note_off_c, 0, 45, 56
1, 110499, Control_c, 0, 64, 77
1, 110504, Note_off_c, 0, 62, 57
1, 110514, Note_off_c, 0, 56, 57
1, 110515, Note_off_c, 0, 64, 57
1, 110522, Control_c, 0, 64, 84
1, 110537, Control_c, 0, 64, 89
1, 110552, Control_c, 0, 64, 89
1, 110555, Note_off_c, 0, 71, 58
1, 110613, Note_off_c, 0, 76, 40
1, 110744, Control_c, 0, 64, 89
1, 110759, Control_c, 0, 64, 88
1, 110773, Control_c, 0, 64, 88
1, 110834, Control_c, 0, 64, 87
1, 110864, Control_c, 0, 64, 87
1, 110878, Control_c, 0, 64, 86
1, 110893, Control_c, 0, 64, 85
1, 110896, Note_on_c, 0, 88, 66
1, 110901, Note_on_c, 0, 64, 56
1, 110908, Control_c, 0, 64, 81
1, 110922, Control_c, 0, 64, 73
1, 110937, Control_c, 0, 64, 57
1, 110952, Control_c, 0, 64, 21
1, 110960, Note_off_c, 0, 64, 55
1, 110961, Note_off_c, 0, 88, 60
1, 110967, Control_c, 0, 64, 0
1, 110970, Note_on_c, 0, 89, 84
1, 110974, Note_on_c, 0, 65, 67
1, 111041, Note_on_c, 0, 88, 79
1, 111043, Note_on_c, 0, 64, 69
1, 111047, Note_off_c, 0, 65, 60
1, 111085, Note_off_c, 0, 89, 58
1, 111107, Note_on_c, 0, 84, 85
1, 111115, Control_c, 0, 64, 44
1, 111119, Note_off_c, 0, 88, 61
1, 111124, Note_on_c, 0, 60, 74
1, 111128, Note_off_c, 0, 64, 61
1, 111130, Control_c, 0, 64, 71
1, 111140, Note_off_c, 0, 84, 60
1, 111145, Control_c, 0, 64, 81
1, 111159, Note_off_c, 0, 60, 61
1, 111160, Control_c, 0, 64, 93
1, 111175, Control_c, 0, 64, 95
1, 111219, Control_c, 0, 64, 97
1, 111234, Control_c, 0, 64, 98
1, 111249, Control_c, 0, 64, 101
1, 111271, Control_c, 0, 64, 102
1, 111387, Note_on_c, 0, 76, 65
1, 111394, Note_on_c, 0, 72, 62
1, 111402, Note_on_c, 0, 45, 59
1, 111403, Note_on_c, 0, 52, 55
1, 111415, Note_off_c, 0, 76, 66
1, 111428, Note_off_c, 0, 72, 63
1, 111440, Note_off_c, 0, 45, 61
1, 111444, Note_off_c, 0, 52, 55
1, 111627, Control_c, 0, 64, 99
1, 111634, Note_on_c, 0, 60, 63
1, 111638, Note_on_c, 0, 57, 66
1, 111642, Control_c, 0, 64, 89
1, 111654, Note_on_c, 0, 64, 57
1, 111657, Control_c, 0, 64, 69
1, 111667, Note_off_c, 0, 60, 61
1, 111672, Control_c, 0, 64, 50
1, 111685, Note_off_c, 0, 57, 59
1, 111687, Control_c, 0, 64, 0
1, 111703, Note_on_c, 0, 59, 70
1, 111724, Note_on_c, 0, 62, 62
1, 111756, Note_off_c, 0, 64, 58
1, 111777, Note_off_c, 0, 59, 60
1, 111778, Note_on_c, 0, 57, 74
1, 111779, Note_on_c, 0, 60, 69
1, 111799, Note_off_c, 0, 62, 58
1, 111839, Note_off_c, 0, 60, 61
1, 111840, Note_on_c, 0, 59, 68
1, 111852, Note_on_c, 0, 56, 80
1, 111854, Note_off_c, 0, 57, 61
1, 111879, Note_on_c, 0, 64, 69
1, 111911, Note_on_c, 0, 57, 67
1, 111911, Note_off_c, 0, 59, 58
1, 111915, Note_off_c, 0, 56, 61
1, 111926, Note_on_c, 0, 60, 68
1, 111968, Note_off_c, 0, 64, 60
1, 111977, Note_off_c, 0, 60, 53
1, 111984, Note_on_c, 0, 55, 80
1, 111991, Note_off_c, 0, 57, 64
1, 111992, Note_on_c, 0, 59, 80
1, 112072, Note_on_c, 0, 54, 80
1, 112086, Note_off_c, 0, 55, 61
1, 112086, Note_off_c, 0, 59, 59
1, 112093, Note_on_c, 0, 69, 80
1, 112150, Note_on_c, 0, 55, 73
1, 112159, Note_off_c, 0, 54, 64
1, 112165, Note_on_c, 0, 71, 84
1, 112169, Note_off_c, 0, 69, 64
1, 112216, Note_on_c, 0, 53, 82
1, 112227, Note_off_c, 0, 55, 60
1, 112242, Note_on_c, 0, 69, 74
1, 112286, Note_off_c, 0, 71, 59
1, 112302, Note_on_c, 0, 68, 79
1, 112309, Note_on_c, 0, 52, 75
1, 112315, Note_on_c, 0, 64, 54
1, 112322, Note_off_c, 0, 53, 0
1, 112322, Note_off_c, 0, 69, 63
1, 112353, Note_on_c, 0, 53, 25
1, 112376, Note_on_c, 0, 69, 76
1, 112377, Note_off_c, 0, 52, 59
1, 112385, Note_off_c, 0, 68, 59
1, 112395, Note_off_c, 0, 64, 59
1, 112448, Note_on_c, 0, 52, 69
1, 112448, Note_on_c, 0, 68, 69
1, 112475, Note_off_c, 0, 69, 64
1, 112481, Control_c, 0, 64, 37
1, 112486, Note_off_c, 0, 53, 38
1, 112496, Control_c, 0, 64, 59
1, 112496, Note_off_c, 0, 52, 56
1, 112510, Control_c, 0, 64, 65
1, 112525, Control_c, 0, 64, 69
1, 112540, Control_c, 0, 64, 73
1, 112552, Note_on_c, 0, 40, 69
1, 112555, Control_c, 0, 64, 79
1, 112569, Control_c, 0, 64, 85
1, 112584, Control_c, 0, 64, 89
1, 112588, Note_off_c, 0, 40, 63
1, 112597, Note_off_c, 0, 68, 51
1, 112599, Control_c, 0, 64, 91
1, 112614, Control_c, 0, 64, 91
1, 112747, Control_c, 0, 64, 91
1, 112769, Control_c, 0, 64, 90
1, 112799, Control_c, 0, 64, 90
1, 112814, Control_c, 0, 64, 89
1, 112829, Control_c, 0, 64, 89
1, 112858, Control_c, 0, 64, 88
1, 112873, Control_c, 0, 64, 88
1, 112887, Control_c, 0, 64, 87
1, 112902, Control_c, 0, 64, 85
1, 112917, Control_c, 0, 64, 80
1, 112929, Note_on_c, 0, 64, 56
1, 112932, Control_c, 0, 64, 67
1, 112934, Note_on_c, 0, 88, 71
1, 112947, Control_c, 0, 64, 47
1, 112961, Control_c, 0, 64, 0
1, 112973, Note_off_c, 0, 64, 60
1, 112988, Note_on_c, 0, 65, 73
1, 113008, Note_on_c, 0, 89, 85
1, 113009, Note_off_c, 0, 88, 62
1, 113061, Note_on_c, 0, 64, 81
1, 113068, Note_on_c, 0, 88, 76
1, 113074, Note_off_c, 0, 65, 60
1, 113136, Note_off_c, 0, 89, 59
1, 113137, Note_on_c, 0, 61, 82
1, 113137, Note_on_c, 0, 85, 90
1, 113140, Control_c, 0, 64, 36
1, 113148, Note_off_c, 0, 64, 60
1, 113154, Control_c, 0, 64, 73
1, 113168, Note_off_c, 0, 61, 64
1, 113169, Note_off_c, 0, 88, 62
1, 113169, Control_c, 0, 64, 86
1, 113184, Control_c, 0, 64, 99
1, 113185, Note_off_c, 0, 85, 67
1, 113199, Control_c, 0, 64, 101
1, 113244, Control_c, 0, 64, 102
1, 113259, Control_c, 0, 64, 104
1, 113274, Control_c, 0, 64, 106
1, 113289, Control_c, 0, 64, 106
1, 113306, Note_on_c, 0, 45, 62
1, 113364, Note_on_c, 0, 55, 65
1, 113373, Note_on_c, 0, 76, 64
1, 113387, Note_on_c, 0, 73, 64
1, 113396, Note_off_c, 0, 45, 55
1, 113408, Note_off_c, 0, 73, 60
1, 113414, Note_on_c, 0, 58, 74
1, 113419, Note_off_c, 0, 76, 61
1, 113421, Note_off_c, 0, 55, 60
1, 113440, Note_off_c, 0, 58, 64
1, 113578, Control_c, 0, 64, 106
1, 113607, Control_c, 0, 64, 105
1, 113614, Note_on_c, 0, 57, 70
1, 113621, Note_on_c, 0, 81, 74
1, 113622, Control_c, 0, 64, 105
1, 113637, Control_c, 0, 64, 102
1, 113652, Control_c, 0, 64, 96
1, 113666, Control_c, 0, 64, 85
1, 113679, Note_on_c, 0, 58, 72
1, 113679, Note_on_c, 0, 82, 84
1, 113681, Note_off_c, 0, 57, 61
1, 113681, Control_c, 0, 64, 71
1, 113683, Note_off_c, 0, 81, 61
1, 113696, Control_c, 0, 64, 58
1, 113711, Control_c, 0, 64, 29
1, 113725, Control_c, 0, 64, 0
1, 113739, Note_on_c, 0, 81, 77
1, 113742, Note_on_c, 0, 57, 69
1, 113756, Note_off_c, 0, 82, 64
1, 113775, Note_off_c, 0, 58, 54
1, 113815, Note_on_c, 0, 86, 87
1, 113819, Note_on_c, 0, 62, 82
1, 113834, Note_off_c, 0, 81, 61
1, 113837, Note_off_c, 0, 57, 60
1, 113843, Control_c, 0, 64, 17
1, 113858, Control_c, 0, 64, 61
1, 113859, Note_on_c, 0, 64, 72
1, 113872, Note_off_c, 0, 62, 58
1, 113873, Control_c, 0, 64, 71
1, 113876, Note_on_c, 0, 88, 83
1, 113879, Note_off_c, 0, 86, 64
1, 113888, Control_c, 0, 64, 78
1, 113903, Control_c, 0, 64, 84
1, 113918, Control_c, 0, 64, 86
1, 113932, Control_c, 0, 64, 86
1, 113940, Note_on_c, 0, 86, 72
1, 113944, Note_on_c, 0, 62, 84
1, 113947, Control_c, 0, 64, 88
1, 113952, Note_off_c, 0, 64, 60
1, 113952, Note_off_c, 0, 88, 62
1, 113962, Control_c, 0, 64, 91
1, 113964, Note_off_c, 0, 86, 69
1, 113968, Note_off_c, 0, 62, 63
1, 113977, Control_c, 0, 64, 94
1, 113993, Control_c, 0, 64, 98
1, 114007, Control_c, 0, 64, 99
1, 114035, Note_on_c, 0, 69, 90
1, 114037, Control_c, 0, 64, 92
1, 114045, Note_on_c, 0, 61, 78
1, 114052, Control_c, 0, 64, 76
1, 114067, Control_c, 0, 64, 61
1, 114079, Note_off_c, 0, 61, 55
1, 114080, Note_off_c, 0, 69, 61
1, 114082, Control_c, 0, 64, 34
1, 114096, Control_c, 0, 64, 0
1, 114102, Note_on_c, 0, 70, 69
1, 114178, Note_on_c, 0, 68, 28
1, 114180, Note_on_c, 0, 64, 59
1, 114201, Note_on_c, 0, 69, 63
1, 114232, Note_off_c, 0, 70, 60
1, 114239, Note_off_c, 0, 64, 59
1, 114269, Note_on_c, 0, 57, 70
1, 114270, Note_on_c, 0, 65, 76
1, 114273, Note_off_c, 0, 69, 60
1, 114277, Note_off_c, 0, 68, 40
1, 114291, Note_off_c, 0, 65, 69
1, 114309, Note_off_c, 0, 57, 62
1, 114348, Note_on_c, 0, 62, 62
1, 114350, Note_on_c, 0, 67, 63
1, 114415, Note_on_c, 0, 65, 63
1, 114433, Note_off_c, 0, 62, 50
1, 114433, Note_off_c, 0, 67, 53
1, 114464, Note_on_c, 0, 53, 56
1, 114471, Note_on_c, 0, 57, 63
1, 114511, Note_off_c, 0, 65, 59
1, 114519, Control_c, 0, 64, 48
1, 114534, Control_c, 0, 64, 61
1, 114535, Note_on_c, 0, 62, 68
1, 114536, Note_off_c, 0, 57, 59
1, 114548, Control_c, 0, 64, 66
1, 114563, Control_c, 0, 64, 70
1, 114578, Control_c, 0, 64, 74
1, 114582, Note_off_c, 0, 53, 44
1, 114590, Note_off_c, 0, 62, 52
1, 114592, Control_c, 0, 64, 79
1, 114606, Control_c, 0, 64, 82
1, 114621, Control_c, 0, 64, 84
1, 114636, Control_c, 0, 64, 85
1, 114815, Control_c, 0, 64, 82
1, 114830, Control_c, 0, 64, 69
1, 114840, Note_on_c, 0, 86, 59
1, 114845, Control_c, 0, 64, 53
1, 114845, Note_on_c, 0, 62, 50
1, 114860, Control_c, 0, 64, 0
1, 114908, Note_off_c, 0, 86, 61
1, 114911, Note_off_c, 0, 62, 54
1, 114916, Note_on_c, 0, 88, 68
1, 114936, Note_on_c, 0, 64, 55
1, 114993, Control_c, 0, 64, 53
1, 114996, Note_on_c, 0, 86, 64
1, 115014, Note_on_c, 0, 62, 54
1, 115015, Control_c, 0, 64, 64
1, 115030, Control_c, 0, 64, 68
1, 115044, Control_c, 0, 64, 70
1, 115049, Note_off_c, 0, 64, 57
1, 115050, Note_off_c, 0, 88, 34
1, 115059, Control_c, 0, 64, 72
1, 115068, Note_off_c, 0, 62, 59
1, 115071, Note_on_c, 0, 59, 53
1, 115074, Control_c, 0, 64, 75
1, 115084, Note_on_c, 0, 83, 71
1, 115089, Control_c, 0, 64, 78
1, 115090, Note_off_c, 0, 86, 60
1, 115093, Note_off_c, 0, 59, 58
1, 115104, Control_c, 0, 64, 82
1, 115108, Note_off_c, 0, 83, 67
1, 115119, Control_c, 0, 64, 86
1, 115134, Control_c, 0, 64, 89
1, 115149, Control_c, 0, 64, 89
1, 115163, Control_c, 0, 64, 90
1, 115178, Control_c, 0, 64, 91
1, 115193, Control_c, 0, 64, 91
1, 115208, Control_c, 0, 64, 92
1, 115223, Control_c, 0, 64, 92
1, 115223, Note_on_c, 0, 43, 44
1, 115269, Note_off_c, 0, 43, 0
1, 115269, Note_on_c, 0, 43, 15
1, 115286, Note_on_c, 0, 53, 66
1, 115329, Note_on_c, 0, 74, 66
1, 115331, Note_on_c, 0, 71, 61
1, 115342, Note_on_c, 0, 56, 67
1, 115346, Note_off_c, 0, 43, 54
1, 115351, Note_off_c, 0, 71, 64
1, 115359, Note_off_c, 0, 53, 55
1, 115359, Note_off_c, 0, 74, 64
1, 115381, Note_off_c, 0, 56, 61
1, 115563, Note_on_c, 0, 79, 55
1, 115563, Control_c, 0, 64, 92
1, 115572, Note_on_c, 0, 55, 63
1, 115594, Control_c, 0, 64, 91
1, 115603, Note_off_c, 0, 79, 60
1, 115609, Control_c, 0, 64, 90
1, 115622, Note_on_c, 0, 81, 68
1, 115624, Control_c, 0, 64, 86
1, 115635, Note_off_c, 0, 55, 55
1, 115639, Control_c, 0, 64, 73
1, 115640, Note_on_c, 0, 57, 63
1, 115653, Control_c, 0, 64, 59
1, 115668, Control_c, 0, 64, 31
1, 115683, Control_c, 0, 64, 0
1, 115689, Note_off_c, 0, 81, 61
1, 115690, Note_on_c, 0, 79, 78
1, 115700, Note_on_c, 0, 55, 61
1, 115701, Note_off_c, 0, 57, 59
1, 115764, Note_on_c, 0, 84, 78
1, 115772, Note_off_c, 0, 79, 61
1, 115777, Note_on_c, 0, 60, 82
1, 115794, Note_off_c, 0, 55, 60
1, 115794, Control_c, 0, 64, 42
1, 115809, Control_c, 0, 64, 59
1, 115824, Control_c, 0, 64, 65
1, 115826, Note_on_c, 0, 62, 75
1, 115831, Note_off_c, 0, 60, 58
1, 115834, Note_off_c, 0, 84, 62
1, 115836, Note_on_c, 0, 86, 79
1, 115838, Control_c, 0, 64, 69
1, 115853, Control_c, 0, 64, 74
1, 115868, Control_c, 0, 64, 78
1, 115883, Control_c, 0, 64, 80
1, 115898, Control_c, 0, 64, 81
1, 115899, Note_on_c, 0, 60, 76
1, 115899, Note_on_c, 0, 84, 71
1, 115910, Note_off_c, 0, 86, 64
1, 115912, Control_c, 0, 64, 82
1, 115922, Note_off_c, 0, 60, 65
1, 115924, Note_off_c, 0, 84, 63
1, 115927, Control_c, 0, 64, 82
1, 115957, Control_c, 0, 64, 78
1, 115962, Note_off_c, 0, 62, 35
1, 115972, Control_c, 0, 64, 67
1, 115983, Note_on_c, 0, 67, 88
1, 115986, Control_c, 0, 64, 52
1, 115989, Note_on_c, 0, 59, 77
1, 116001, Control_c, 0, 64, 0
1, 116025, Note_off_c, 0, 59, 60
1, 116028, Note_off_c, 0, 67, 59
1, 116067, Note_on_c, 0, 69, 66
1, 116097, Note_on_c, 0, 62, 58
1, 116120, Note_off_c, 0, 69, 51
1, 116132, Note_on_c, 0, 67, 61
1, 116174, Note_off_c, 0, 62, 58
1, 116201, Note_off_c, 0, 67, 61
1, 116228, Note_on_c, 0, 64, 74
1, 116232, Note_on_c, 0, 55, 64
1, 116250, Note_off_c, 0, 64, 67
1, 116307, Note_off_c, 0, 55, 54
1, 116318, Note_on_c, 0, 65, 61
1, 116338, Note_on_c, 0, 60, 49
1, 116386, Note_on_c, 0, 64, 55
1, 116402, Note_off_c, 0, 65, 45
1, 116404, Note_off_c, 0, 60, 48
1, 116447, Note_on_c, 0, 52, 50
1, 116457, Note_on_c, 0, 55, 53
1, 116472, Note_off_c, 0, 64, 54
1, 116491, Control_c, 0, 64, 24
1, 116514, Control_c, 0, 64, 53
1, 116521, Note_off_c, 0, 55, 57
1, 116522, Note_on_c, 0, 60, 69
1, 116529, Control_c, 0, 64, 63
1, 116543, Control_c, 0, 64, 67
1, 116552, Note_off_c, 0, 52, 55
1, 116558, Control_c, 0, 64, 71
1, 116573, Control_c, 0, 64, 75
1, 116586, Note_off_c, 0, 60, 55
1, 116588, Control_c, 0, 64, 77
1, 116603, Control_c, 0, 64, 78
1, 116617, Control_c, 0, 64, 79
1, 116632, Control_c, 0, 64, 80
1, 116765, Control_c, 0, 64, 79
1, 116780, Control_c, 0, 64, 78
1, 116795, Control_c, 0, 64, 77
1, 116809, Control_c, 0, 64, 75
1, 116824, Control_c, 0, 64, 72
1, 116833, Note_on_c, 0, 86, 72
1, 116837, Note_on_c, 0, 62, 69
1, 116839, Control_c, 0, 64, 66
1, 116854, Control_c, 0, 64, 55
1, 116857, Note_on_c, 0, 88, 34
1, 116858, Note_off_c, 0, 88, 49
1, 116884, Control_c, 0, 64, 0
1, 116899, Note_on_c, 0, 88, 64
1, 116904, Note_off_c, 0, 86, 62
1, 116906, Note_on_c, 0, 64, 82
1, 116907, Note_off_c, 0, 62, 60
1, 116966, Note_on_c, 0, 86, 85
1, 116977, Note_on_c, 0, 62, 83
1, 117000, Note_off_c, 0, 88, 62
1, 117004, Note_off_c, 0, 64, 61
1, 117017, Control_c, 0, 64, 25
1, 117032, Control_c, 0, 64, 63
1, 117036, Note_on_c, 0, 65, 87
1, 117036, Note_on_c, 0, 89, 98
1, 117047, Control_c, 0, 64, 70
1, 117049, Note_off_c, 0, 62, 59
1, 117059, Note_off_c, 0, 86, 61
1, 117061, Control_c, 0, 64, 76
1, 117076, Control_c, 0, 64, 80
1, 117084, Note_off_c, 0, 65, 60
1, 117091, Control_c, 0, 64, 81
1, 117106, Control_c, 0, 64, 81
1, 117121, Control_c, 0, 64, 82
1, 117135, Control_c, 0, 64, 83
1, 117150, Control_c, 0, 64, 84
1, 117211, Control_c, 0, 64, 84
1, 117226, Note_on_c, 0, 50, 63
1, 117261, Note_on_c, 0, 56, 72
1, 117262, Control_c, 0, 64, 85
1, 117269, Note_on_c, 0, 83, 68
1, 117277, Control_c, 0, 64, 85
1, 117280, Note_on_c, 0, 80, 79
1, 117292, Note_on_c, 0, 77, 76
1, 117292, Control_c, 0, 64, 86
1, 117295, Note_on_c, 0, 59, 76
1, 117303, Note_off_c, 0, 89, 36
1, 117307, Note_off_c, 0, 83, 63
1, 117310, Note_off_c, 0, 56, 58
1, 117319, Note_off_c, 0, 80, 61
1, 117319, Note_off_c, 0, 50, 61
1, 117322, Control_c, 0, 64, 86
1, 117323, Note_off_c, 0, 59, 64
1, 117330, Note_off_c, 0, 77, 60
1, 117516, Note_on_c, 0, 62, 62
1, 117534, Note_on_c, 0, 71, 69
1, 117553, Note_off_c, 0, 62, 58
1, 117565, Note_off_c, 0, 71, 61
1, 117568, Note_on_c, 0, 64, 64
1, 117573, Control_c, 0, 64, 86
1, 117575, Note_on_c, 0, 72, 78
1, 117588, Control_c, 0, 64, 80
1, 117602, Control_c, 0, 64, 68
1, 117609, Note_on_c, 0, 71, 58
1, 117617, Control_c, 0, 64, 55
1, 117618, Note_on_c, 0, 62, 79
1, 117630, Note_off_c, 0, 72, 60
1, 117632, Note_off_c, 0, 64, 58
1, 117632, Control_c, 0, 64, 37
1, 117654, Note_off_c, 0, 71, 64
1, 117657, Note_off_c, 0, 62, 64
1, 117662, Control_c, 0, 64, 0
1, 117855, Note_on_c, 0, 84, 61
1, 117859, Note_on_c, 0, 60, 55
1, 117921, Note_off_c, 0, 84, 58
1, 117921, Note_off_c, 0, 60, 56
1, 117936, Note_on_c, 0, 86, 63
1, 117942, Note_on_c, 0, 62, 63
1, 118026, Control_c, 0, 64, 33
1, 118034, Note_on_c, 0, 60, 50
1, 118037, Note_on_c, 0, 84, 58
1, 118041, Control_c, 0, 64, 48
1, 118046, Note_off_c, 0, 86, 54
1, 118055, Control_c, 0, 64, 58
1, 118070, Control_c, 0, 64, 62
1, 118076, Note_off_c, 0, 60, 59
1, 118084, Note_off_c, 0, 62, 35
1, 118085, Control_c, 0, 64, 64
1, 118088, Note_off_c, 0, 84, 58
1, 118098, Note_on_c, 0, 64, 72
1, 118100, Control_c, 0, 64, 66
1, 118103, Note_on_c, 0, 88, 73
1, 118115, Control_c, 0, 64, 68
1, 118130, Control_c, 0, 64, 70
1, 118137, Note_off_c, 0, 64, 60
1, 118145, Control_c, 0, 64, 73
1, 118159, Control_c, 0, 64, 76
1, 118174, Control_c, 0, 64, 78
1, 118189, Control_c, 0, 64, 80
1, 118204, Control_c, 0, 64, 81
1, 118219, Control_c, 0, 64, 82
1, 118272, Note_on_c, 0, 48, 45
1, 118278, Control_c, 0, 64, 82
1, 118310, Note_on_c, 0, 57, 58
1, 118322, Control_c, 0, 64, 83
1, 118339, Note_on_c, 0, 81, 59
1, 118347, Note_off_c, 0, 57, 65
1, 118351, Control_c, 0, 64, 83
1, 118356, Note_off_c, 0, 48, 60
1, 118360, Note_off_c, 0, 88, 43
1, 118364, Note_on_c, 0, 60, 56
1, 118368, Note_on_c, 0, 76, 66
1, 118369, Note_off_c, 0, 81, 65
1, 118386, Note_off_c, 0, 60, 57
1, 118396, Note_off_c, 0, 76, 66
1, 118630, Note_on_c, 0, 62, 62
1, 118657, Note_on_c, 0, 69, 61
1, 118687, Note_off_c, 0, 62, 57
1, 118687, Note_on_c, 0, 65, 66
1, 118693, Note_on_c, 0, 70, 64
1, 118706, Control_c, 0, 64, 81
1, 118709, Note_off_c, 0, 69, 0
1, 118721, Control_c, 0, 64, 73
1, 118729, Note_on_c, 0, 64, 62
1, 118730, Note_on_c, 0, 69, 42
1, 118736, Control_c, 0, 64, 63
1, 118758, Control_c, 0, 64, 53
1, 118766, Note_off_c, 0, 70, 56
1, 118770, Note_off_c, 0, 65, 61
1, 118773, Control_c, 0, 64, 46
1, 118776, Note_off_c, 0, 64, 62
1, 118782, Note_off_c, 0, 69, 65
1, 118789, Control_c, 0, 64, 44
1, 118988, Note_on_c, 0, 71, 68
1, 119003, Note_on_c, 0, 50, 66
1, 119009, Note_on_c, 0, 65, 55
1, 119023, Note_on_c, 0, 67, 42
1, 119030, Note_off_c, 0, 65, 61
1, 119033, Note_off_c, 0, 71, 62
1, 119041, Control_c, 0, 64, 44
1, 119047, Note_off_c, 0, 50, 57
1, 119049, Note_off_c, 0, 67, 49
1, 119057, Note_on_c, 0, 69, 51
1, 119057, Note_on_c, 0, 72, 63
1, 119101, Note_on_c, 0, 65, 72
1, 119104, Note_off_c, 0, 69, 63
1, 119114, Note_on_c, 0, 71, 49
1, 119126, Note_off_c, 0, 65, 66
1, 119135, Note_off_c, 0, 72, 62
1, 119144, Note_off_c, 0, 71, 63
1, 119284, Note_on_c, 0, 69, 69
1, 119298, Note_on_c, 0, 77, 66
1, 119301, Note_on_c, 0, 65, 65
1, 119310, Note_on_c, 0, 57, 46
1, 119310, Note_on_c, 0, 59, 59
1, 119310, Note_off_c, 0, 69, 66
1, 119326, Note_on_c, 0, 79, 69
1, 119329, Note_on_c, 0, 71, 26
1, 119340, Note_off_c, 0, 65, 54
1, 119348, Note_on_c, 0, 72, 16
1, 119353, Note_off_c, 0, 77, 0
1, 119364, Note_on_c, 0, 77, 48
1, 119366, Note_off_c, 0, 57, 56
1, 119367, Note_off_c, 0, 59, 56
1, 119388, Note_on_c, 0, 69, 64
1, 119390, Note_off_c, 0, 72, 52
1, 119398, Note_off_c, 0, 79, 61
1, 119414, Note_off_c, 0, 71, 27
1, 119419, Note_off_c, 0, 69, 64
1, 119441, Note_off_c, 0, 77, 57
1, 119567, Control_c, 0, 64, 45
1, 119574, Note_on_c, 0, 77, 57
1, 119583, Control_c, 0, 64, 46
1, 119587, Note_on_c, 0, 71, 59
1, 119593, Note_on_c, 0, 52, 62
1, 119598, Control_c, 0, 64, 51
1, 119613, Control_c, 0, 64, 58
1, 119615, Note_on_c, 0, 68, 34
1, 119627, Control_c, 0, 64, 62
1, 119629, Note_off_c, 0, 52, 60
1, 119642, Control_c, 0, 64, 64
1, 119645, Note_off_c, 0, 71, 61
1, 119649, Note_off_c, 0, 68, 0
1, 119649, Note_on_c, 0, 68, 29
1, 119659, Note_on_c, 0, 76, 70
1, 119672, Control_c, 0, 64, 64
1, 119685, Note_off_c, 0, 68, 61
1, 119692, Note_off_c, 0, 77, 54
1, 119725, Note_off_c, 0, 76, 63
1, 119731, Control_c, 0, 64, 64
1, 119746, Control_c, 0, 64, 63
1, 119760, Control_c, 0, 64, 63
1, 119775, Control_c, 0, 64, 62
1, 119790, Control_c, 0, 64, 62
1, 119834, Control_c, 0, 64, 61
1, 119849, Control_c, 0, 64, 61
1, 119859, Note_on_c, 0, 74, 65
1, 119862, Note_on_c, 0, 68, 59
1, 119864, Control_c, 0, 64, 60
1, 119878, Control_c, 0, 64, 60
1, 119879, Note_on_c, 0, 64, 54
1, 119880, Note_off_c, 0, 74, 64
1, 119882, Note_on_c, 0, 83, 43
1, 119885, Note_on_c, 0, 76, 69
1, 119889, Note_off_c, 0, 68, 64
1, 119893, Note_on_c, 0, 62, 37
1, 119913, Note_off_c, 0, 64, 63
1, 119915, Note_on_c, 0, 84, 38
1, 119926, Note_off_c, 0, 62, 51
1, 119928, Note_on_c, 0, 86, 40
1, 119936, Note_off_c, 0, 83, 0
1, 119946, Note_on_c, 0, 83, 67
1, 119954, Note_on_c, 0, 74, 71
1, 119954, Note_off_c, 0, 86, 56
1, 119978, Note_off_c, 0, 76, 61
1, 119982, Note_off_c, 0, 84, 54
1, 119982, Control_c, 0, 64, 59
1, 120010, Note_off_c, 0, 74, 59
1, 120014, Note_off_c, 0, 83, 61
1, 120115, Control_c, 0, 64, 59
1, 120139, Note_on_c, 0, 72, 59
1, 120145, Control_c, 0, 64, 58
1, 120151, Note_on_c, 0, 81, 53
1, 120160, Control_c, 0, 64, 57
1, 120175, Control_c, 0, 64, 56
1, 120177, Note_off_c, 0, 72, 62
1, 120189, Control_c, 0, 64, 56
1, 120192, Note_on_c, 0, 45, 62
1, 120192, Note_on_c, 0, 76, 60
1, 120201, Note_off_c, 0, 81, 62
1, 120216, Note_on_c, 0, 83, 69
1, 120219, Control_c, 0, 64, 55
1, 120219, Control_c, 0, 67, 33
1, 120234, Control_c, 0, 64, 55
1, 120234, Control_c, 0, 67, 59
1, 120240, Note_off_c, 0, 45, 58
1, 120256, Control_c, 0, 67, 88
1, 120269, Note_off_c, 0, 76, 61
1, 120271, Note_on_c, 0, 72, 42
1, 120271, Control_c, 0, 64, 54
1, 120271, Control_c, 0, 67, 120
1, 120272, Note_on_c, 0, 81, 59
1, 120285, Control_c, 0, 67, 127
1, 120294, Note_off_c, 0, 83, 61
1, 120297, Note_off_c, 0, 72, 54
1, 120300, Note_off_c, 0, 81, 66
1, 120315, Control_c, 0, 64, 54
1, 120359, Control_c, 0, 64, 53
1, 120405, Control_c, 0, 64, 53
1, 120529, Note_on_c, 0, 89, 69
1, 120533, Note_on_c, 0, 81, 56
1, 120566, Note_off_c, 0, 81, 63
1, 120571, Note_on_c, 0, 45, 52
1, 120572, Note_on_c, 0, 38, 48
1, 120579, Note_on_c, 0, 86, 63
1, 120595, Note_off_c, 0, 89, 61
1, 120601, Note_on_c, 0, 91, 67
1, 120604, Note_off_c, 0, 45, 57
1, 120627, Note_off_c, 0, 38, 47
1, 120635, Note_on_c, 0, 81, 68
1, 120648, Note_on_c, 0, 89, 52
1, 120649, Note_off_c, 0, 86, 59
1, 120660, Note_off_c, 0, 81, 67
1, 120672, Note_off_c, 0, 91, 59
1, 120686, Note_off_c, 0, 89, 62
1, 120938, Control_c, 0, 64, 53
1, 120947, Note_on_c, 0, 96, 61
1, 120953, Control_c, 0, 64, 59
1, 120959, Note_on_c, 0, 40, 49
1, 120964, Note_on_c, 0, 33, 48
1, 120964, Note_on_c, 0, 84, 54
1, 120967, Control_c, 0, 64, 65
1, 120970, Note_on_c, 0, 88, 59
1, 120982, Control_c, 0, 64, 69
1, 121001, Note_off_c, 0, 84, 60
1, 121005, Control_c, 0, 64, 74
1, 121012, Note_off_c, 0, 40, 60
1, 121014, Note_off_c, 0, 33, 63
1, 121019, Note_off_c, 0, 96, 60
1, 121020, Control_c, 0, 64, 78
1, 121034, Control_c, 0, 64, 81
1, 121036, Note_off_c, 0, 88, 60
1, 121049, Control_c, 0, 64, 82
1, 121064, Control_c, 0, 64, 82
1, 121138, Control_c, 0, 64, 83
1, 121257, Control_c, 0, 64, 77
1, 121272, Control_c, 0, 64, 69
1, 121287, Control_c, 0, 64, 61
1, 121302, Control_c, 0, 64, 53
1, 121317, Control_c, 0, 64, 48
1, 121331, Control_c, 0, 64, 46
1, 121346, Control_c, 0, 64, 45
1, 121361, Control_c, 0, 64, 44
1, 121406, Control_c, 0, 64, 44
1, 121421, Control_c, 0, 64, 43
1, 121435, Control_c, 0, 64, 42
1, 121450, Control_c, 0, 64, 42
1, 121465, Control_c, 0, 64, 41
1, 121480, Control_c, 0, 64, 41
1, 121495, Control_c, 0, 64, 40
1, 121628, Control_c, 0, 64, 43
1, 121642, Control_c, 0, 64, 49
1, 121657, Control_c, 0, 64, 55
1, 121672, Control_c, 0, 64, 60
1, 121672, Control_c, 0, 67, 120
1, 121687, Control_c, 0, 64, 62
1, 121687, Control_c, 0, 67, 107
1, 121702, Control_c, 0, 64, 63
1, 121702, Control_c, 0, 67, 91
1, 121716, Control_c, 0, 64, 64
1, 121716, Control_c, 0, 67, 74
1, 121731, Control_c, 0, 64, 64
1, 121731, Control_c, 0, 67, 56
1, 121754, Control_c, 0, 64, 65
1, 121754, Control_c, 0, 67, 24
1, 121769, Control_c, 0, 64, 67
1, 121769, Control_c, 0, 67, 0
1, 121783, Control_c, 0, 64, 69
1, 121798, Control_c, 0, 64, 71
1, 121813, Control_c, 0, 64, 74
1, 121828, Control_c, 0, 64, 76
1, 121843, Control_c, 0, 64, 79
1, 121857, Control_c, 0, 64, 81
1, 121872, Control_c, 0, 64, 83
1, 121887, Control_c, 0, 64, 84
1, 121902, Control_c, 0, 64, 86
1, 121917, Control_c, 0, 64, 87
1, 121931, Control_c, 0, 64, 89
1, 121946, Control_c, 0, 64, 90
1, 121961, Control_c, 0, 64, 92
1, 121977, Control_c, 0, 64, 93
1, 121992, Control_c, 0, 64, 94
1, 122006, Control_c, 0, 64, 95
1, 122021, Control_c, 0, 64, 95
1, 122036, Control_c, 0, 64, 96
1, 122051, Control_c, 0, 64, 96
1, 122170, Control_c, 0, 64, 97
1, 122318, Control_c, 0, 64, 98
1, 122333, Control_c, 0, 64, 99
1, 122348, Control_c, 0, 64, 102
1, 122362, Control_c, 0, 64, 105
1, 122381, Note_on_c, 0, 60, 94
1, 122382, Note_on_c, 0, 45, 96
1, 122382, Note_on_c, 0, 57, 92
1, 122383, Note_on_c, 0, 52, 102
1, 122383, Note_on_c, 0, 64, 91
1, 122392, Control_c, 0, 64, 92
1, 122407, Control_c, 0, 64, 68
1, 122422, Control_c, 0, 64, 39
1, 122437, Control_c, 0, 64, 0
1, 122466, Control_c, 0, 64, 24
1, 122481, Control_c, 0, 64, 62
1, 122489, Note_off_c, 0, 52, 53
1, 122493, Note_off_c, 0, 45, 54
1, 122503, Control_c, 0, 64, 73
1, 122518, Control_c, 0, 64, 87
1, 122533, Control_c, 0, 64, 102
1, 122547, Control_c, 0, 64, 110
1, 122550, Note_off_c, 0, 57, 55
1, 122561, Note_off_c, 0, 60, 51
1, 122567, Note_off_c, 0, 64, 54
1, 122581, Note_on_c, 0, 48, 80
1, 122589, Note_on_c, 0, 52, 75
1, 122622, Control_c, 0, 64, 106
1, 122637, Control_c, 0, 64, 88
1, 122641, Note_off_c, 0, 48, 60
1, 122652, Control_c, 0, 64, 69
1, 122653, Note_off_c, 0, 52, 56
1, 122667, Control_c, 0, 64, 51
1, 122678, Note_on_c, 0, 64, 78
1, 122696, Control_c, 0, 64, 0
1, 122726, Note_on_c, 0, 52, 66
1, 122729, Note_on_c, 0, 47, 75
1, 122748, Note_off_c, 0, 64, 58
1, 122755, Control_c, 0, 64, 22
1, 122771, Control_c, 0, 64, 51
1, 122786, Control_c, 0, 64, 64
1, 122796, Note_off_c, 0, 52, 57
1, 122801, Note_off_c, 0, 47, 58
1, 122801, Control_c, 0, 64, 68
1, 122816, Note_on_c, 0, 64, 63
1, 122816, Control_c, 0, 64, 71
1, 122830, Note_on_c, 0, 62, 67
1, 122830, Control_c, 0, 64, 73
1, 122845, Control_c, 0, 64, 73
1, 122860, Control_c, 0, 64, 73
1, 122875, Control_c, 0, 64, 66
1, 122876, Note_off_c, 0, 62, 54
1, 122881, Note_off_c, 0, 64, 56
1, 122884, Note_on_c, 0, 45, 71
1, 122890, Control_c, 0, 64, 50
1, 122894, Note_on_c, 0, 52, 65
1, 122904, Control_c, 0, 64, 22
1, 122919, Control_c, 0, 64, 0
1, 122938, Note_off_c, 0, 52, 61
1, 122942, Note_off_c, 0, 45, 57
1, 122960, Note_on_c, 0, 60, 69
1, 122978, Control_c, 0, 64, 50
1, 122980, Note_on_c, 0, 64, 39
1, 122993, Control_c, 0, 64, 62
1, 123008, Control_c, 0, 64, 63
1, 123010, Note_off_c, 0, 64, 54
1, 123018, Note_off_c, 0, 60, 55
1, 123036, Note_on_c, 0, 52, 72
1, 123042, Note_on_c, 0, 44, 76
1, 123052, Control_c, 0, 64, 64
1, 123067, Control_c, 0, 64, 66
1, 123082, Control_c, 0, 64, 67
1, 123088, Note_off_c, 0, 52, 53
1, 123096, Note_off_c, 0, 44, 51
1, 123096, Control_c, 0, 64, 69
1, 123099, Note_on_c, 0, 64, 63
1, 123108, Note_on_c, 0, 59, 74
1, 123111, Control_c, 0, 64, 70
1, 123126, Control_c, 0, 64, 69
1, 123141, Control_c, 0, 64, 67
1, 123142, Note_off_c, 0, 59, 59
1, 123154, Note_off_c, 0, 64, 59
1, 123156, Control_c, 0, 64, 60
1, 123170, Control_c, 0, 64, 49
1, 123185, Control_c, 0, 64, 40
1, 123193, Note_on_c, 0, 52, 87
1, 123195, Note_on_c, 0, 40, 81
1, 123200, Control_c, 0, 64, 38
1, 123215, Control_c, 0, 64, 39
1, 123230, Control_c, 0, 64, 49
1, 123252, Control_c, 0, 64, 61
1, 123254, Note_off_c, 0, 52, 61
1, 123267, Control_c, 0, 64, 67
1, 123268, Note_off_c, 0, 40, 60
1, 123275, Note_on_c, 0, 71, 77
1, 123277, Note_on_c, 0, 59, 79
1, 123282, Control_c, 0, 64, 69
1, 123293, Note_on_c, 0, 64, 49
1, 123296, Control_c, 0, 64, 70
1, 123311, Control_c, 0, 64, 69
1, 123322, Note_off_c, 0, 71, 63
1, 123326, Control_c, 0, 64, 63
1, 123328, Note_off_c, 0, 64, 62
1, 123341, Control_c, 0, 64, 50
1, 123349, Note_off_c, 0, 59, 58
1, 123355, Control_c, 0, 64, 27
1, 123361, Note_on_c, 0, 52, 89
1, 123363, Note_on_c, 0, 42, 88
1, 123370, Control_c, 0, 64, 0
1, 123420, Note_off_c, 0, 52, 58
1, 123440, Note_off_c, 0, 42, 61
1, 123446, Note_on_c, 0, 57, 80
1, 123450, Note_on_c, 0, 64, 74
1, 123494, Note_off_c, 0, 57, 59
1, 123508, Note_off_c, 0, 64, 55
1, 123510, Note_on_c, 0, 44, 96
1, 123511, Note_on_c, 0, 52, 91
1, 123585, Note_on_c, 0, 59, 94
1, 123588, Note_off_c, 0, 52, 52
1, 123594, Note_off_c, 0, 44, 57
1, 123642, Note_off_c, 0, 59, 62
1, 123678, Note_on_c, 0, 52, 98
1, 123680, Note_on_c, 0, 45, 93
1, 123685, Note_on_c, 0, 64, 88
1, 123686, Note_on_c, 0, 57, 96
1, 123686, Note_on_c, 0, 60, 91
1, 123698, Control_c, 0, 64, 25
1, 123713, Control_c, 0, 64, 74
1, 123727, Control_c, 0, 64, 94
1, 123728, Note_off_c, 0, 52, 60
1, 123735, Note_off_c, 0, 45, 57
1, 123742, Control_c, 0, 64, 117
1, 123757, Control_c, 0, 64, 122
1, 123761, Note_off_c, 0, 57, 58
1, 123771, Control_c, 0, 64, 115
1, 123779, Note_off_c, 0, 60, 56
1, 123786, Control_c, 0, 64, 113
1, 123797, Note_off_c, 0, 64, 58
1, 123816, Control_c, 0, 64, 113
1, 123850, Note_on_c, 0, 52, 76
1, 123863, Note_on_c, 0, 48, 70
1, 123875, Control_c, 0, 64, 109
1, 123890, Control_c, 0, 64, 95
1, 123898, Note_off_c, 0, 48, 62
1, 123905, Control_c, 0, 64, 73
1, 123912, Note_off_c, 0, 52, 59
1, 123919, Control_c, 0, 64, 57
1, 123930, Note_on_c, 0, 64, 71
1, 123934, Control_c, 0, 64, 27
1, 123949, Control_c, 0, 64, 0
1, 124002, Note_off_c, 0, 64, 57
1, 124016, Note_on_c, 0, 52, 76
1, 124017, Note_on_c, 0, 47, 73
1, 124071, Note_off_c, 0, 47, 58
1, 124077, Note_off_c, 0, 52, 56
1, 124094, Note_on_c, 0, 62, 72
1, 124105, Note_on_c, 0, 64, 55
1, 124142, Note_off_c, 0, 64, 59
1, 124152, Note_off_c, 0, 62, 57
1, 124164, Control_c, 0, 64, 34
1, 124169, Note_on_c, 0, 45, 76
1, 124178, Control_c, 0, 64, 50
1, 124180, Note_on_c, 0, 52, 68
1, 124193, Control_c, 0, 64, 57
1, 124208, Control_c, 0, 64, 60
1, 124214, Note_off_c, 0, 52, 60
1, 124223, Control_c, 0, 64, 62
1, 124235, Note_on_c, 0, 60, 65
1, 124235, Note_off_c, 0, 45, 58
1, 124238, Control_c, 0, 64, 63
1, 124252, Note_on_c, 0, 64, 31
1, 124252, Control_c, 0, 64, 64
1, 124282, Control_c, 0, 64, 65
1, 124287, Note_off_c, 0, 64, 47
1, 124297, Note_off_c, 0, 60, 57
1, 124297, Control_c, 0, 64, 65
1, 124312, Control_c, 0, 64, 66
1, 124314, Note_on_c, 0, 52, 78
1, 124324, Note_on_c, 0, 44, 76
1, 124327, Control_c, 0, 64, 67
1, 124342, Control_c, 0, 64, 68
1, 124357, Control_c, 0, 64, 69
1, 124372, Control_c, 0, 64, 70
1, 124374, Note_off_c, 0, 52, 59
1, 124377, Note_off_c, 0, 44, 56
1, 124387, Note_on_c, 0, 64, 70
1, 124387, Control_c, 0, 64, 71
1, 124388, Note_on_c, 0, 59, 76
1, 124401, Control_c, 0, 64, 73
1, 124416, Control_c, 0, 64, 74
1, 124431, Note_off_c, 0, 59, 59
1, 124454, Note_off_c, 0, 64, 60
1, 124461, Control_c, 0, 64, 68
1, 124466, Note_on_c, 0, 41, 83
1, 124470, Note_on_c, 0, 51, 86
1, 124476, Control_c, 0, 64, 53
1, 124491, Control_c, 0, 64, 0
1, 124524, Note_off_c, 0, 51, 60
1, 124533, Note_off_c, 0, 41, 61
1, 124541, Note_on_c, 0, 59, 73
1, 124545, Note_on_c, 0, 69, 64
1, 124553, Note_on_c, 0, 67, 64
1, 124556, Note_on_c, 0, 63, 67
1, 124565, Control_c, 0, 64, 51
1, 124580, Control_c, 0, 64, 63
1, 124586, Note_off_c, 0, 67, 55
1, 124594, Control_c, 0, 64, 67
1, 124601, Note_off_c, 0, 59, 60
1, 124609, Control_c, 0, 64, 69
1, 124618, Note_on_c, 0, 40, 84
1, 124619, Note_on_c, 0, 52, 91
1, 124620, Note_off_c, 0, 69, 35
1, 124622, Note_off_c, 0, 63, 59
1, 124624, Control_c, 0, 64, 70
1, 124639, Control_c, 0, 64, 70
1, 124649, Note_off_c, 0, 40, 65
1, 124654, Control_c, 0, 64, 71
1, 124677, Note_off_c, 0, 52, 60
1, 124683, Control_c, 0, 64, 71
1, 124685, Note_on_c, 0, 68, 87
1, 124690, Note_on_c, 0, 59, 81
1, 124698, Control_c, 0, 64, 73
1, 124713, Control_c, 0, 64, 74
1, 124728, Control_c, 0, 64, 76
1, 124742, Note_off_c, 0, 59, 55
1, 124750, Control_c, 0, 64, 77
1, 124759, Note_off_c, 0, 68, 60
1, 124765, Control_c, 0, 64, 79
1, 124777, Note_on_c, 0, 52, 82
1, 124777, Note_on_c, 0, 56, 90
1, 124780, Control_c, 0, 64, 80
1, 124794, Control_c, 0, 64, 82
1, 124809, Control_c, 0, 64, 84
1, 124824, Note_off_c, 0, 52, 56
1, 124824, Control_c, 0, 64, 87
1, 124825, Note_off_c, 0, 56, 60
1, 124839, Control_c, 0, 64, 89
1, 124846, Note_on_c, 0, 64, 87
1, 124847, Note_on_c, 0, 59, 83
1, 124854, Control_c, 0, 64, 92
1, 124869, Control_c, 0, 64, 94
1, 124874, Note_on_c, 0, 66, 56
1, 124877, Note_off_c, 0, 59, 64
1, 124883, Control_c, 0, 64, 97
1, 124892, Note_off_c, 0, 64, 60
1, 124894, Note_off_c, 0, 66, 63
1, 124898, Control_c, 0, 64, 99
1, 124913, Control_c, 0, 64, 104
1, 124927, Control_c, 0, 64, 112
1, 124942, Control_c, 0, 64, 113
1, 124957, Control_c, 0, 64, 90
1, 124970, Note_on_c, 0, 57, 99
1, 124972, Control_c, 0, 64, 64
1, 124974, Note_on_c, 0, 45, 95
1, 124975, Note_on_c, 0, 76, 97
1, 124977, Note_on_c, 0, 64, 100
1, 124986, Note_on_c, 0, 69, 76
1, 124987, Control_c, 0, 64, 0
1, 124989, Note_on_c, 0, 72, 76
1, 125019, Note_off_c, 0, 57, 63
1, 125024, Note_off_c, 0, 45, 59
1, 125031, Control_c, 0, 64, 23
1, 125046, Control_c, 0, 64, 61
1, 125061, Control_c, 0, 64, 74
1, 125075, Control_c, 0, 64, 85
1, 125090, Control_c, 0, 64, 95
1, 125100, Note_off_c, 0, 64, 47
1, 125105, Control_c, 0, 64, 97
1, 125106, Note_off_c, 0, 69, 53
1, 125109, Note_off_c, 0, 76, 54
1, 125135, Control_c, 0, 64, 98
1, 125145, Note_on_c, 0, 60, 90
1, 125150, Control_c, 0, 64, 98
1, 125153, Note_on_c, 0, 48, 81
1, 125172, Note_off_c, 0, 72, 40
1, 125200, Note_off_c, 0, 60, 56
1, 125207, Note_off_c, 0, 48, 55
1, 125210, Control_c, 0, 64, 97
1, 125224, Control_c, 0, 64, 87
1, 125233, Note_on_c, 0, 76, 79
1, 125235, Note_on_c, 0, 64, 78
1, 125239, Control_c, 0, 64, 68
1, 125254, Control_c, 0, 64, 51
1, 125269, Control_c, 0, 64, 0
1, 125289, Note_off_c, 0, 64, 58
1, 125299, Note_off_c, 0, 76, 59
1, 125309, Note_on_c, 0, 59, 80
1, 125312, Note_on_c, 0, 47, 78
1, 125356, Note_off_c, 0, 59, 57
1, 125371, Note_off_c, 0, 47, 57
1, 125391, Note_on_c, 0, 64, 75
1, 125394, Note_on_c, 0, 74, 72
1, 125409, Note_on_c, 0, 76, 57
1, 125434, Note_off_c, 0, 64, 58
1, 125434, Note_off_c, 0, 76, 60
1, 125445, Note_off_c, 0, 74, 57
1, 125467, Note_on_c, 0, 45, 84
1, 125467, Note_on_c, 0, 57, 78
1, 125521, Note_off_c, 0, 57, 60
1, 125530, Note_off_c, 0, 45, 58
1, 125549, Note_on_c, 0, 72, 67
1, 125553, Note_on_c, 0, 64, 70
1, 125557, Note_on_c, 0, 76, 48
1, 125591, Note_off_c, 0, 64, 56
1, 125597, Note_off_c, 0, 76, 60
1, 125613, Note_on_c, 0, 56, 85
1, 125615, Note_on_c, 0, 44, 86
1, 125623, Note_off_c, 0, 72, 48
1, 125660, Note_off_c, 0, 56, 59
1, 125671, Note_off_c, 0, 44, 59
1, 125677, Control_c, 0, 64, 26
1, 125692, Note_on_c, 0, 64, 78
1, 125692, Control_c, 0, 64, 49
1, 125704, Note_on_c, 0, 76, 64
1, 125706, Control_c, 0, 64, 59
1, 125714, Note_on_c, 0, 71, 59
1, 125716, Note_on_c, 0, 73, 55
1, 125721, Control_c, 0, 64, 63
1, 125727, Note_off_c, 0, 64, 59
1, 125736, Control_c, 0, 64, 65
1, 125743, Note_off_c, 0, 71, 64
1, 125747, Note_off_c, 0, 73, 63
1, 125747, Note_off_c, 0, 76, 61
1, 125750, Control_c, 0, 64, 66
1, 125764, Note_on_c, 0, 52, 91
1, 125765, Note_on_c, 0, 40, 85
1, 125815, Note_off_c, 0, 52, 62
1, 125817, Note_off_c, 0, 40, 62
1, 125824, Control_c, 0, 64, 66
1, 125834, Note_on_c, 0, 71, 87
1, 125836, Note_on_c, 0, 83, 86
1, 125839, Note_on_c, 0, 76, 85
1, 125854, Control_c, 0, 64, 66
1, 125869, Note_off_c, 0, 83, 55
1, 125869, Control_c, 0, 64, 65
1, 125875, Note_off_c, 0, 76, 60
1, 125884, Control_c, 0, 64, 59
1, 125892, Note_off_c, 0, 71, 61
1, 125898, Control_c, 0, 64, 45
1, 125909, Note_on_c, 0, 54, 95
1, 125917, Note_on_c, 0, 42, 83
1, 125928, Control_c, 0, 64, 0
1, 125946, Note_on_c, 0, 44, 42
1, 125947, Note_off_c, 0, 44, 127
1, 125963, Note_off_c, 0, 54, 63
1, 125966, Note_on_c, 0, 55, 8
1, 125967, Note_off_c, 0, 55, 127
1, 125978, Note_off_c, 0, 42, 59
1, 125980, Note_on_c, 0, 69, 89
1, 125986, Note_on_c, 0, 64, 79
1, 126029, Note_off_c, 0, 64, 58
1, 126043, Note_off_c, 0, 69, 62
1, 126063, Note_on_c, 0, 56, 101
1, 126064, Note_on_c, 0, 44, 93
1, 126127, Note_off_c, 0, 56, 58
1, 126138, Note_on_c, 0, 71, 89
1, 126142, Note_on_c, 0, 64, 84
1, 126146, Note_off_c, 0, 44, 59
1, 126186, Note_off_c, 0, 64, 60
1, 126190, Note_off_c, 0, 71, 63
1, 126233, Note_on_c, 0, 57, 96
1, 126235, Note_on_c, 0, 45, 93
1, 126247, Note_on_c, 0, 76, 87
1, 126249, Note_on_c, 0, 64, 95
1, 126250, Note_on_c, 0, 72, 36
1, 126254, Note_on_c, 0, 69, 91
1, 126292, Note_off_c, 0, 57, 64
1, 126292, Control_c, 0, 64, 62
1, 126295, Note_off_c, 0, 45, 62
1, 126307, Control_c, 0, 64, 82
1, 126321, Control_c, 0, 64, 95
1, 126336, Control_c, 0, 64, 108
1, 126346, Note_off_c, 0, 64, 57
1, 126366, Control_c, 0, 64, 109
1, 126366, Note_off_c, 0, 69, 59
1, 126366, Note_off_c, 0, 76, 55
1, 126381, Control_c, 0, 64, 112
1, 126382, Note_off_c, 0, 72, 55
1, 126396, Control_c, 0, 64, 121
1, 126411, Control_c, 0, 64, 127
1, 126415, Note_on_c, 0, 60, 87
1, 126421, Note_on_c, 0, 48, 79
1, 126460, Note_on_c, 0, 50, 33
1, 126461, Note_off_c, 0, 50, 127
1, 126468, Note_off_c, 0, 60, 55
1, 126470, Control_c, 0, 64, 98
1, 126481, Note_off_c, 0, 48, 59
1, 126485, Control_c, 0, 64, 79
1, 126490, Note_on_c, 0, 76, 81
1, 126491, Note_on_c, 0, 64, 77
1, 126500, Control_c, 0, 64, 63
1, 126514, Control_c, 0, 64, 45
1, 126529, Control_c, 0, 64, 0
1, 126542, Note_off_c, 0, 64, 59
1, 126553, Note_off_c, 0, 76, 60
1, 126575, Note_on_c, 0, 59, 85
1, 126578, Note_on_c, 0, 47, 79
1, 126625, Note_off_c, 0, 59, 59
1, 126637, Note_off_c, 0, 47, 58
1, 126649, Note_on_c, 0, 64, 77
1, 126649, Note_on_c, 0, 74, 75
1, 126673, Note_on_c, 0, 76, 50
1, 126694, Note_off_c, 0, 64, 58
1, 126695, Note_off_c, 0, 76, 59
1, 126715, Note_off_c, 0, 74, 61
1, 126729, Note_on_c, 0, 57, 81
1, 126730, Note_on_c, 0, 45, 82
1, 126781, Note_off_c, 0, 57, 63
1, 126787, Note_off_c, 0, 45, 57
1, 126802, Note_on_c, 0, 72, 70
1, 126804, Note_on_c, 0, 64, 72
1, 126837, Note_off_c, 0, 64, 57
1, 126873, Note_on_c, 0, 56, 84
1, 126874, Note_on_c, 0, 44, 82
1, 126874, Note_off_c, 0, 72, 58
1, 126910, Note_off_c, 0, 56, 59
1, 126941, Note_off_c, 0, 44, 60
1, 126946, Note_on_c, 0, 64, 76
1, 126957, Note_on_c, 0, 71, 67
1, 126964, Note_on_c, 0, 76, 73
1, 126998, Note_off_c, 0, 64, 60
1, 127013, Note_off_c, 0, 71, 62
1, 127030, Note_off_c, 0, 76, 57
1, 127036, Note_on_c, 0, 53, 92
1, 127040, Note_on_c, 0, 41, 84
1, 127092, Note_off_c, 0, 53, 61
1, 127102, Note_off_c, 0, 41, 61
1, 127108, Note_on_c, 0, 71, 83
1, 127113, Note_on_c, 0, 75, 75
1, 127114, Note_on_c, 0, 81, 64
1, 127126, Note_on_c, 0, 79, 58
1, 127144, Note_off_c, 0, 81, 51
1, 127148, Note_off_c, 0, 79, 59
1, 127174, Note_off_c, 0, 71, 60
1, 127189, Note_on_c, 0, 52, 102
1, 127192, Note_on_c, 0, 40, 90
1, 127195, Note_off_c, 0, 75, 56
1, 127218, Control_c, 0, 64, 47
1, 127230, Note_off_c, 0, 40, 60
1, 127233, Control_c, 0, 64, 60
1, 127240, Note_off_c, 0, 52, 60
1, 127248, Control_c, 0, 64, 64
1, 127262, Note_on_c, 0, 80, 85
1, 127263, Control_c, 0, 64, 67
1, 127266, Note_on_c, 0, 71, 80
1, 127278, Control_c, 0, 64, 68
1, 127293, Control_c, 0, 64, 70
1, 127308, Control_c, 0, 64, 72
1, 127314, Note_off_c, 0, 71, 57
1, 127322, Control_c, 0, 64, 75
1, 127331, Note_off_c, 0, 80, 55
1, 127337, Control_c, 0, 64, 77
1, 127352, Control_c, 0, 64, 79
1, 127357, Note_on_c, 0, 64, 97
1, 127362, Note_on_c, 0, 52, 96
1, 127367, Control_c, 0, 64, 80
1, 127382, Control_c, 0, 64, 81
1, 127395, Note_off_c, 0, 64, 64
1, 127396, Control_c, 0, 64, 82
1, 127409, Note_off_c, 0, 52, 61
1, 127411, Control_c, 0, 64, 84
1, 127426, Control_c, 0, 64, 85
1, 127430, Note_on_c, 0, 76, 86
1, 127430, Note_on_c, 0, 71, 80
1, 127441, Control_c, 0, 64, 89
1, 127456, Control_c, 0, 64, 92
1, 127470, Control_c, 0, 64, 95
1, 127474, Note_off_c, 0, 71, 62
1, 127475, Note_off_c, 0, 76, 61
1, 127485, Control_c, 0, 64, 97
1, 127500, Control_c, 0, 64, 96
1, 127514, Control_c, 0, 64, 80
1, 127529, Control_c, 0, 64, 59
1, 127544, Control_c, 0, 64, 0
1, 127567, Note_on_c, 0, 57, 103
1, 127568, Note_on_c, 0, 45, 96
1, 127570, Note_on_c, 0, 64, 100
1, 127570, Note_on_c, 0, 76, 97
1, 127577, Note_on_c, 0, 73, 85
1, 127581, Note_on_c, 0, 69, 79
1, 127590, Control_c, 0, 64, 38
1, 127605, Note_off_c, 0, 57, 67
1, 127605, Control_c, 0, 64, 63
1, 127608, Note_off_c, 0, 45, 63
1, 127619, Control_c, 0, 64, 73
1, 127634, Control_c, 0, 64, 83
1, 127649, Control_c, 0, 64, 90
1, 127664, Control_c, 0, 64, 91
1, 127680, Note_off_c, 0, 64, 53
1, 127699, Note_off_c, 0, 69, 53
1, 127706, Note_off_c, 0, 76, 49
1, 127719, Note_off_c, 0, 73, 52
1, 127729, Note_on_c, 0, 47, 91
1, 127729, Note_on_c, 0, 59, 95
1, 127760, Control_c, 0, 64, 91
1, 127775, Control_c, 0, 64, 90
1, 127785, Note_off_c, 0, 47, 58
1, 127788, Note_off_c, 0, 59, 61
1, 127790, Control_c, 0, 64, 87
1, 127805, Control_c, 0, 64, 81
1, 127819, Control_c, 0, 64, 72
1, 127823, Note_on_c, 0, 64, 77
1, 127826, Note_on_c, 0, 74, 78
1, 127834, Control_c, 0, 64, 61
1, 127840, Note_on_c, 0, 76, 64
1, 127849, Control_c, 0, 64, 47
1, 127864, Control_c, 0, 64, 0
1, 127871, Note_off_c, 0, 76, 64
1, 127874, Note_off_c, 0, 64, 57
1, 127880, Note_on_c, 0, 61, 88
1, 127885, Note_on_c, 0, 49, 86
1, 127889, Note_off_c, 0, 74, 60
1, 127925, Note_off_c, 0, 61, 61
1, 127937, Note_off_c, 0, 49, 62
1, 127970, Note_on_c, 0, 64, 82
1, 127972, Note_on_c, 0, 76, 83
1, 127979, Note_on_c, 0, 73, 72
1, 128024, Note_off_c, 0, 64, 57
1, 128027, Note_on_c, 0, 57, 87
1, 128029, Note_on_c, 0, 45, 89
1, 128029, Note_off_c, 0, 76, 59
1, 128038, Note_off_c, 0, 73, 52
1, 128062, Note_off_c, 0, 45, 62
1, 128076, Note_off_c, 0, 57, 63
1, 128111, Note_on_c, 0, 69, 78
1, 128119, Note_on_c, 0, 64, 62
1, 128120, Note_on_c, 0, 76, 79
1, 128131, Control_c, 0, 64, 59
1, 128143, Note_off_c, 0, 64, 62
1, 128145, Control_c, 0, 64, 67
1, 128160, Note_off_c, 0, 69, 61
1, 128160, Control_c, 0, 64, 70
1, 128175, Control_c, 0, 64, 71
1, 128175, Note_off_c, 0, 76, 64
1, 128187, Note_on_c, 0, 62, 99
1, 128190, Note_on_c, 0, 50, 89
1, 128190, Control_c, 0, 64, 72
1, 128205, Control_c, 0, 64, 73
1, 128212, Note_off_c, 0, 50, 66
1, 128219, Control_c, 0, 64, 74
1, 128232, Note_on_c, 0, 52, 36
1, 128233, Note_off_c, 0, 52, 127
1, 128233, Note_off_c, 0, 62, 62
1, 128234, Control_c, 0, 64, 75
1, 128249, Control_c, 0, 64, 77
1, 128263, Control_c, 0, 64, 78
1, 128266, Poly_aftertouch_c, 0, 52, 0
1, 128269, Note_on_c, 0, 77, 83
1, 128271, Note_on_c, 0, 74, 88
1, 128271, Note_on_c, 0, 86, 88
1, 128315, Note_off_c, 0, 74, 62
1, 128323, Control_c, 0, 64, 79
1, 128324, Note_off_c, 0, 77, 60
1, 128327, Note_off_c, 0, 86, 61
1, 128337, Control_c, 0, 64, 79
1, 128341, Note_on_c, 0, 70, 98
1, 128343, Note_on_c, 0, 61, 84
1, 128353, Control_c, 0, 64, 80
1, 128368, Control_c, 0, 64, 80
1, 128378, Note_on_c, 0, 60, 41
1, 128383, Control_c, 0, 64, 81
1, 128396, Note_off_c, 0, 70, 61
1, 128407, Note_off_c, 0, 60, 54
1, 128413, Control_c, 0, 64, 81
1, 128414, Note_on_c, 0, 76, 94
1, 128417, Note_on_c, 0, 79, 96
1, 128418, Note_on_c, 0, 88, 94
1, 128419, Note_off_c, 0, 61, 57
1, 128428, Control_c, 0, 64, 82
1, 128442, Control_c, 0, 64, 82
1, 128457, Control_c, 0, 64, 83
1, 128468, Note_off_c, 0, 76, 63
1, 128488, Note_off_c, 0, 79, 62
1, 128494, Control_c, 0, 64, 76
1, 128496, Note_off_c, 0, 88, 64
1, 128506, Note_on_c, 0, 69, 97
1, 128508, Note_on_c, 0, 62, 90
1, 128509, Control_c, 0, 64, 54
1, 128524, Control_c, 0, 64, 0
1, 128558, Note_on_c, 0, 77, 101
1, 128559, Note_on_c, 0, 89, 101
1, 128560, Note_on_c, 0, 81, 97
1, 128580, Note_off_c, 0, 69, 63
1, 128583, Control_c, 0, 64, 39
1, 128592, Note_off_c, 0, 62, 56
1, 128598, Control_c, 0, 64, 66
1, 128613, Control_c, 0, 64, 78
1, 128619, Note_off_c, 0, 89, 62
1, 128628, Control_c, 0, 64, 89
1, 128628, Note_off_c, 0, 81, 61
1, 128636, Note_off_c, 0, 77, 60
1, 128642, Control_c, 0, 64, 96
1, 128653, Note_on_c, 0, 65, 88
1, 128654, Note_on_c, 0, 69, 83
1, 128657, Control_c, 0, 64, 97
1, 128672, Control_c, 0, 64, 99
1, 128673, Note_off_c, 0, 69, 71
1, 128686, Control_c, 0, 64, 100
1, 128701, Control_c, 0, 64, 100
1, 128710, Note_off_c, 0, 65, 63
1, 128724, Note_on_c, 0, 77, 89
1, 128729, Note_on_c, 0, 74, 88
1, 128733, Note_on_c, 0, 86, 70
1, 128744, Note_on_c, 0, 84, 66
1, 128749, Note_off_c, 0, 86, 68
1, 128760, Note_off_c, 0, 84, 66
1, 128764, Note_off_c, 0, 77, 58
1, 128775, Control_c, 0, 64, 101
1, 128786, Note_off_c, 0, 74, 54
1, 128790, Control_c, 0, 64, 101
1, 128820, Control_c, 0, 64, 92
1, 128834, Control_c, 0, 64, 71
1, 128849, Control_c, 0, 64, 47
1, 128852, Note_on_c, 0, 43, 89
1, 128852, Note_on_c, 0, 55, 93
1, 128864, Control_c, 0, 64, 0
1, 128879, Note_on_c, 0, 62, 88
1, 128888, Note_on_c, 0, 74, 64
1, 128894, Control_c, 0, 64, 18
1, 128897, Note_on_c, 0, 67, 50
1, 128900, Note_on_c, 0, 71, 53
1, 128904, Note_off_c, 0, 55, 62
1, 128907, Note_off_c, 0, 43, 63
1, 128909, Control_c, 0, 64, 59
1, 128923, Control_c, 0, 64, 69
1, 128938, Control_c, 0, 64, 76
1, 128944, Note_off_c, 0, 67, 41
1, 128953, Note_off_c, 0, 74, 35
1, 128953, Control_c, 0, 64, 83
1, 128968, Control_c, 0, 64, 84
1, 128976, Note_off_c, 0, 62, 52
1, 129019, Note_on_c, 0, 57, 90
1, 129024, Note_on_c, 0, 45, 86
1, 129042, Control_c, 0, 64, 82
1, 129053, Note_off_c, 0, 71, 39
1, 129057, Control_c, 0, 64, 74
1, 129072, Note_off_c, 0, 57, 62
1, 129072, Control_c, 0, 64, 63
1, 129073, Note_off_c, 0, 45, 56
1, 129086, Control_c, 0, 64, 46
1, 129096, Note_on_c, 0, 72, 82
1, 129098, Note_on_c, 0, 62, 82
1, 129101, Control_c, 0, 64, 0
1, 129153, Note_on_c, 0, 74, 8
1, 129158, Note_on_c, 0, 59, 97
1, 129161, Note_off_c, 0, 62, 59
1, 129162, Note_on_c, 0, 47, 94
1, 129165, Note_off_c, 0, 72, 62
1, 129201, Note_off_c, 0, 74, 27
1, 129206, Note_off_c, 0, 59, 62
1, 129220, Note_off_c, 0, 47, 63
1, 129249, Note_on_c, 0, 74, 77
1, 129254, Note_on_c, 0, 62, 89
1, 129258, Note_on_c, 0, 71, 73
1, 129299, Note_off_c, 0, 62, 60
1, 129311, Note_off_c, 0, 74, 58
1, 129312, Note_off_c, 0, 71, 53
1, 129314, Note_on_c, 0, 43, 91
1, 129314, Note_on_c, 0, 55, 93
1, 129359, Note_off_c, 0, 43, 60
1, 129361, Note_off_c, 0, 55, 60
1, 129388, Note_on_c, 0, 62, 83
1, 129393, Note_on_c, 0, 67, 79
1, 129397, Note_on_c, 0, 74, 82
1, 129411, Note_off_c, 0, 62, 67
1, 129443, Note_off_c, 0, 67, 60
1, 129465, Note_off_c, 0, 74, 61
1, 129465, Control_c, 0, 64, 61
1, 129472, Note_on_c, 0, 60, 105
1, 129473, Note_on_c, 0, 48, 101
1, 129480, Control_c, 0, 64, 77
1, 129495, Control_c, 0, 64, 88
1, 129510, Control_c, 0, 64, 97
1, 129511, Note_off_c, 0, 48, 65
1, 129512, Note_off_c, 0, 60, 63
1, 129539, Control_c, 0, 64, 98
1, 129554, Control_c, 0, 64, 99
1, 129569, Control_c, 0, 64, 101
1, 129570, Note_on_c, 0, 76, 81
1, 129574, Note_on_c, 0, 88, 65
1, 129584, Control_c, 0, 64, 102
1, 129585, Note_on_c, 0, 86, 63
1, 129604, Note_off_c, 0, 86, 59
1, 129609, Note_on_c, 0, 84, 33
1, 129631, Note_off_c, 0, 76, 61
1, 129631, Note_off_c, 0, 88, 53
1, 129641, Note_off_c, 0, 84, 51
1, 129652, Note_on_c, 0, 62, 52
1, 129654, Note_on_c, 0, 64, 59
1, 129659, Note_on_c, 0, 69, 56
1, 129675, Note_on_c, 0, 67, 42
1, 129679, Note_off_c, 0, 69, 62
1, 129683, Poly_aftertouch_c, 0, 83, 0
1, 129684, Note_off_c, 0, 64, 52
1, 129689, Note_off_c, 0, 62, 60
1, 129703, Note_off_c, 0, 67, 53
1, 129711, Note_on_c, 0, 89, 79
1, 129723, Note_on_c, 0, 77, 73
1, 129726, Note_on_c, 0, 84, 68
1, 129776, Control_c, 0, 64, 101
1, 129782, Note_off_c, 0, 77, 57
1, 129783, Note_off_c, 0, 89, 59
1, 129784, Note_on_c, 0, 67, 72
1, 129786, Note_on_c, 0, 65, 71
1, 129797, Note_on_c, 0, 64, 66
1, 129803, Note_off_c, 0, 65, 68
1, 129809, Note_off_c, 0, 84, 58
1, 129850, Poly_aftertouch_c, 0, 84, 0
1, 129856, Note_off_c, 0, 64, 50
1, 129857, Note_on_c, 0, 84, 62
1, 129859, Note_on_c, 0, 79, 86
1, 129859, Note_off_c, 0, 67, 56
1, 129862, Note_on_c, 0, 91, 85
1, 129884, Note_on_c, 0, 87, 53
1, 129918, Note_on_c, 0, 67, 82
1, 129918, Note_off_c, 0, 91, 62
1, 129919, Note_off_c, 0, 87, 47
1, 129925, Note_on_c, 0, 60, 85
1, 129928, Note_off_c, 0, 84, 54
1, 129931, Note_off_c, 0, 79, 57
1, 129972, Note_off_c, 0, 67, 63
1, 130001, Note_off_c, 0, 60, 60
1, 130015, Note_on_c, 0, 76, 96
1, 130017, Note_on_c, 0, 88, 84
1, 130021, Control_c, 0, 64, 103
1, 130036, Control_c, 0, 64, 104
1, 130051, Control_c, 0, 64, 105
1, 130066, Note_on_c, 0, 80, 26
1, 130066, Control_c, 0, 64, 93
1, 130078, Note_off_c, 0, 76, 62
1, 130081, Control_c, 0, 64, 68
1, 130092, Note_off_c, 0, 88, 62
1, 130095, Control_c, 0, 64, 0
1, 130101, Note_off_c, 0, 80, 45
1, 130128, Note_on_c, 0, 50, 86
1, 130129, Note_on_c, 0, 62, 93
1, 130129, Note_on_c, 0, 64, 92
1, 130143, Note_on_c, 0, 77, 97
1, 130144, Note_on_c, 0, 52, 76
1, 130146, Note_on_c, 0, 83, 83
1, 130146, Note_on_c, 0, 89, 95
1, 130153, Note_on_c, 0, 80, 82
1, 130161, Note_off_c, 0, 50, 67
1, 130164, Note_off_c, 0, 52, 64
1, 130169, Control_c, 0, 64, 62
1, 130174, Note_off_c, 0, 64, 60
1, 130179, Note_off_c, 0, 62, 60
1, 130184, Control_c, 0, 64, 74
1, 130199, Control_c, 0, 64, 84
1, 130214, Control_c, 0, 64, 91
1, 130229, Control_c, 0, 64, 92
1, 130237, Note_off_c, 0, 89, 56
1, 130244, Control_c, 0, 64, 92
1, 130254, Note_off_c, 0, 77, 55
1, 130259, Control_c, 0, 64, 94
1, 130274, Control_c, 0, 64, 95
1, 130286, Note_off_c, 0, 80, 51
1, 130288, Control_c, 0, 64, 96
1, 130298, Note_off_c, 0, 83, 30
1, 130326, Note_on_c, 0, 65, 60
1, 130329, Note_on_c, 0, 72, 65
1, 130333, Note_on_c, 0, 71, 62
1, 130346, Note_off_c, 0, 72, 64
1, 130351, Note_off_c, 0, 71, 63
1, 130354, Note_on_c, 0, 69, 43
1, 130365, Note_off_c, 0, 65, 59
1, 130380, Note_off_c, 0, 69, 53
1, 130387, Note_on_c, 0, 86, 78
1, 130392, Control_c, 0, 64, 94
1, 130395, Note_on_c, 0, 74, 76
1, 130400, Note_on_c, 0, 76, 74
1, 130404, Note_on_c, 0, 83, 66
1, 130407, Control_c, 0, 64, 83
1, 130414, Poly_aftertouch_c, 0, 66, 0
1, 130420, Note_on_c, 0, 80, 48
1, 130421, Control_c, 0, 64, 70
1, 130427, Note_off_c, 0, 76, 61
1, 130432, Note_off_c, 0, 74, 61
1, 130436, Control_c, 0, 64, 56
1, 130447, Note_off_c, 0, 86, 62
1, 130449, Note_off_c, 0, 80, 55
1, 130450, Note_on_c, 0, 71, 75
1, 130451, Control_c, 0, 64, 46
1, 130458, Note_on_c, 0, 64, 68
1, 130462, Note_on_c, 0, 68, 67
1, 130465, Control_c, 0, 64, 41
1, 130480, Control_c, 0, 64, 35
1, 130485, Note_off_c, 0, 83, 46
1, 130495, Control_c, 0, 64, 30
1, 130509, Note_off_c, 0, 71, 60
1, 130510, Control_c, 0, 64, 25
1, 130524, Note_off_c, 0, 68, 52
1, 130525, Control_c, 0, 64, 20
1, 130526, Note_off_c, 0, 64, 57
1, 130527, Note_on_c, 0, 76, 88
1, 130533, Note_on_c, 0, 88, 78
1, 130538, Note_on_c, 0, 80, 63
1, 130585, Note_off_c, 0, 76, 62
1, 130597, Note_off_c, 0, 80, 56
1, 130602, Note_on_c, 0, 71, 79
1, 130605, Note_on_c, 0, 68, 67
1, 130610, Note_on_c, 0, 62, 66
1, 130611, Note_off_c, 0, 88, 60
1, 130658, Note_off_c, 0, 71, 57
1, 130664, Note_off_c, 0, 62, 58
1, 130670, Note_on_c, 0, 77, 81
1, 130674, Note_off_c, 0, 68, 57
1, 130675, Note_on_c, 0, 89, 80
1, 130676, Note_on_c, 0, 80, 75
1, 130748, Note_off_c, 0, 77, 57
1, 130754, Note_off_c, 0, 89, 59
1, 130763, Note_on_c, 0, 72, 82
1, 130763, Note_on_c, 0, 69, 85
1, 130770, Control_c, 0, 64, 19
1, 130772, Note_on_c, 0, 60, 70
1, 130776, Note_off_c, 0, 80, 58
1, 130785, Control_c, 0, 64, 45
1, 130800, Control_c, 0, 64, 62
1, 130802, Note_on_c, 0, 62, 51
1, 130812, Note_off_c, 0, 72, 61
1, 130815, Control_c, 0, 64, 68
1, 130824, Note_off_c, 0, 69, 63
1, 130829, Note_off_c, 0, 62, 56
1, 130830, Control_c, 0, 64, 73
1, 130844, Note_off_c, 0, 60, 58
1, 130844, Control_c, 0, 64, 77
1, 130847, Note_on_c, 0, 88, 77
1, 130849, Note_on_c, 0, 81, 71
1, 130850, Note_on_c, 0, 76, 83
1, 130859, Control_c, 0, 64, 80
1, 130874, Control_c, 0, 64, 81
1, 130888, Control_c, 0, 64, 82
1, 130903, Control_c, 0, 64, 82
1, 130910, Note_off_c, 0, 81, 62
1, 130910, Note_off_c, 0, 88, 61
1, 130915, Note_off_c, 0, 76, 61
1, 130921, Note_on_c, 0, 66, 77
1, 130935, Note_on_c, 0, 68, 73
1, 130943, Note_on_c, 0, 60, 66
1, 130948, Note_on_c, 0, 59, 48
1, 130948, Control_c, 0, 64, 80
1, 130950, Note_off_c, 0, 68, 68
1, 130962, Control_c, 0, 64, 71
1, 130977, Control_c, 0, 64, 60
1, 130983, Note_off_c, 0, 59, 61
1, 130992, Control_c, 0, 64, 41
1, 130999, Note_on_c, 0, 74, 88
1, 131002, Note_on_c, 0, 86, 80
1, 131004, Note_off_c, 0, 60, 58
1, 131007, Control_c, 0, 64, 0
1, 131010, Note_off_c, 0, 66, 60
1, 131060, Note_off_c, 0, 74, 61
1, 131066, Note_off_c, 0, 86, 61
1, 131084, Note_on_c, 0, 64, 75
1, 131085, Note_on_c, 0, 59, 64
1, 131088, Note_on_c, 0, 69, 74
1, 131089, Note_on_c, 0, 71, 83
1, 131097, Note_on_c, 0, 57, 59
1, 131108, Note_off_c, 0, 71, 69
1, 131136, Note_off_c, 0, 69, 61
1, 131147, Note_on_c, 0, 72, 89
1, 131151, Note_on_c, 0, 84, 82
1, 131151, Note_off_c, 0, 64, 61
1, 131171, Note_off_c, 0, 59, 61
1, 131188, Note_off_c, 0, 57, 36
1, 131212, Note_off_c, 0, 72, 61
1, 131216, Note_off_c, 0, 84, 62
1, 131238, Note_on_c, 0, 64, 91
1, 131243, Note_on_c, 0, 57, 70
1, 131255, Note_on_c, 0, 62, 72
1, 131296, Note_off_c, 0, 64, 60
1, 131302, Note_on_c, 0, 73, 90
1, 131304, Note_on_c, 0, 76, 62
1, 131305, Note_off_c, 0, 62, 57
1, 131314, Note_on_c, 0, 85, 75
1, 131314, Note_on_c, 0, 81, 42
1, 131316, Note_off_c, 0, 57, 62
1, 131369, Note_off_c, 0, 73, 63
1, 131371, Note_off_c, 0, 76, 60
1, 131376, Note_off_c, 0, 85, 62
1, 131398, Note_on_c, 0, 65, 97
1, 131401, Note_on_c, 0, 53, 93
1, 131404, Note_off_c, 0, 81, 50
1, 131436, Control_c, 0, 64, 46
1, 131451, Control_c, 0, 64, 70
1, 131452, Note_off_c, 0, 65, 64
1, 131464, Note_on_c, 0, 78, 87
1, 131465, Note_on_c, 0, 74, 90
1, 131466, Control_c, 0, 64, 78
1, 131472, Note_off_c, 0, 53, 61
1, 131487, Note_on_c, 0, 86, 72
1, 131488, Control_c, 0, 64, 84
1, 131490, Note_on_c, 0, 81, 78
1, 131503, Control_c, 0, 64, 84
1, 131508, Note_off_c, 0, 74, 66
1, 131517, Note_off_c, 0, 78, 60
1, 131518, Control_c, 0, 64, 85
1, 131519, Note_on_c, 0, 77, 53
1, 131533, Control_c, 0, 64, 87
1, 131540, Note_off_c, 0, 77, 59
1, 131541, Note_off_c, 0, 81, 64
1, 131548, Control_c, 0, 64, 90
1, 131556, Note_off_c, 0, 86, 62
1, 131564, Control_c, 0, 64, 94
1, 131565, Note_on_c, 0, 63, 100
1, 131568, Note_on_c, 0, 51, 85
1, 131579, Control_c, 0, 64, 97
1, 131593, Control_c, 0, 64, 97
1, 131608, Control_c, 0, 64, 98
1, 131609, Note_on_c, 0, 56, 27
1, 131612, Note_off_c, 0, 63, 62
1, 131621, Note_on_c, 0, 54, 26
1, 131625, Note_on_c, 0, 81, 95
1, 131627, Note_on_c, 0, 93, 97
1, 131628, Note_off_c, 0, 51, 60
1, 131633, Note_on_c, 0, 84, 86
1, 131649, Note_off_c, 0, 56, 45
1, 131653, Control_c, 0, 64, 97
1, 131662, Note_off_c, 0, 54, 54
1, 131667, Control_c, 0, 64, 90
1, 131682, Control_c, 0, 64, 76
1, 131697, Control_c, 0, 64, 59
1, 131702, Note_off_c, 0, 81, 57
1, 131711, Control_c, 0, 64, 16
1, 131715, Note_off_c, 0, 93, 58
1, 131720, Note_off_c, 0, 84, 54
1, 131722, Note_on_c, 0, 57, 81
1, 131723, Note_on_c, 0, 64, 91
1, 131726, Control_c, 0, 64, 0
1, 131733, Note_on_c, 0, 52, 75
1, 131740, Note_on_c, 0, 60, 69
1, 131772, Note_off_c, 0, 64, 63
1, 131779, Note_off_c, 0, 60, 53
1, 131792, Note_on_c, 0, 81, 90
1, 131792, Note_on_c, 0, 93, 89
1, 131795, Note_on_c, 0, 84, 77
1, 131798, Note_off_c, 0, 57, 63
1, 131817, Note_off_c, 0, 52, 60
1, 131818, Note_on_c, 0, 88, 69
1, 131844, Note_off_c, 0, 93, 56
1, 131857, Note_off_c, 0, 81, 60
1, 131896, Note_off_c, 0, 84, 53
1, 131898, Note_on_c, 0, 64, 84
1, 131903, Note_on_c, 0, 59, 82
1, 131903, Note_on_c, 0, 62, 86
1, 131904, Note_off_c, 0, 88, 54
1, 131904, Note_on_c, 0, 56, 73
1, 131916, Note_on_c, 0, 52, 65
1, 131924, Note_off_c, 0, 62, 67
1, 131928, Note_on_c, 0, 50, 46
1, 131937, Note_off_c, 0, 64, 63
1, 131948, Note_off_c, 0, 59, 58
1, 131962, Note_on_c, 0, 80, 90
1, 131964, Note_off_c, 0, 50, 54
1, 131970, Note_on_c, 0, 92, 80
1, 131970, Note_off_c, 0, 56, 61
1, 131976, Note_off_c, 0, 52, 59
1, 131980, Note_on_c, 0, 84, 65
1, 131983, Note_on_c, 0, 88, 48
1, 132003, Note_on_c, 0, 90, 39
1, 132018, Note_off_c, 0, 80, 61
1, 132030, Note_off_c, 0, 90, 56
1, 132036, Note_off_c, 0, 84, 50
1, 132040, Note_off_c, 0, 92, 62
1, 132056, Note_off_c, 0, 88, 57
1, 132099, Note_on_c, 0, 57, 97
1, 132103, Note_on_c, 0, 45, 95
1, 132104, Note_on_c, 0, 81, 104
1, 132104, Note_on_c, 0, 93, 99
1, 132104, Poly_aftertouch_c, 0, 88, 0
1, 132105, Note_on_c, 0, 52, 87
1, 132105, Note_on_c, 0, 84, 96
1, 132111, Note_on_c, 0, 88, 77
1, 132127, Control_c, 0, 64, 55
1, 132131, Note_on_c, 0, 90, 41
1, 132140, Note_off_c, 0, 57, 65
1, 132142, Control_c, 0, 64, 90
1, 132149, Note_off_c, 0, 45, 58
1, 132151, Note_off_c, 0, 93, 62
1, 132155, Note_off_c, 0, 52, 57
1, 132157, Control_c, 0, 64, 127
1, 132161, Note_off_c, 0, 90, 58
1, 132166, Note_off_c, 0, 81, 59
1, 132188, Note_off_c, 0, 84, 58
1, 132189, Note_off_c, 0, 88, 60
1, 132555, Note_on_c, 0, 72, 88
1, 132557, Note_on_c, 0, 81, 93
1, 132560, Note_on_c, 0, 69, 85
1, 132564, Note_on_c, 0, 64, 79
1, 132564, Note_on_c, 0, 76, 77
1, 132566, Note_on_c, 0, 60, 67
1, 132586, Note_off_c, 0, 76, 67
1, 132587, Note_off_c, 0, 69, 62
1, 132592, Note_off_c, 0, 72, 60
1, 132606, Note_off_c, 0, 64, 58
1, 132609, Note_on_c, 0, 79, 13
1, 132613, Note_off_c, 0, 81, 65
1, 132615, Note_off_c, 0, 60, 56
1, 132656, Note_off_c, 0, 79, 39
1, 133011, Note_on_c, 0, 76, 71
1, 133016, Control_c, 0, 64, 111
1, 133018, Note_on_c, 0, 84, 70
1, 133024, Note_on_c, 0, 57, 64
1, 133031, Control_c, 0, 64, 81
1, 133040, Note_off_c, 0, 76, 63
1, 133046, Control_c, 0, 64, 58
1, 133048, Note_off_c, 0, 84, 59
1, 133061, Control_c, 0, 64, 0
1, 133063, Note_off_c, 0, 57, 62
1, 133103, Note_on_c, 0, 81, 76
1, 133106, Note_on_c, 0, 64, 60
1, 133159, Note_off_c, 0, 81, 60
1, 133166, Note_off_c, 0, 64, 51
1, 133195, Note_on_c, 0, 76, 58
1, 133200, Note_on_c, 0, 52, 62
1, 133240, Note_off_c, 0, 76, 57
1, 133252, Note_off_c, 0, 52, 51
1, 133264, Note_on_c, 0, 72, 64
1, 133294, Note_on_c, 0, 64, 58
1, 133298, Note_off_c, 0, 72, 62
1, 133362, Note_off_c, 0, 64, 54
1, 133367, Note_on_c, 0, 60, 65
1, 133367, Note_on_c, 0, 69, 65
1, 133399, Note_off_c, 0, 60, 59
1, 133399, Note_off_c, 0, 69, 63
1, 133438, Note_on_c, 0, 76, 64
1, 133469, Note_on_c, 0, 64, 50
1, 133520, Note_off_c, 0, 76, 56
1, 133526, Note_on_c, 0, 72, 59
1, 133528, Note_off_c, 0, 64, 53
1, 133537, Note_on_c, 0, 57, 60
1, 133583, Note_off_c, 0, 57, 60
1, 133592, Note_on_c, 0, 69, 74
1, 133614, Note_off_c, 0, 69, 68
1, 133621, Note_on_c, 0, 64, 68
1, 133624, Note_off_c, 0, 72, 62
1, 133700, Note_on_c, 0, 76, 77
1, 133707, Note_on_c, 0, 83, 88
1, 133710, Note_off_c, 0, 64, 57
1, 133716, Note_on_c, 0, 56, 69
1, 133741, Note_off_c, 0, 76, 60
1, 133755, Note_on_c, 0, 77, 15
1, 133756, Note_off_c, 0, 77, 127
1, 133761, Note_off_c, 0, 56, 62
1, 133804, Note_on_c, 0, 64, 60
1, 133809, Note_off_c, 0, 83, 59
1, 133815, Note_on_c, 0, 80, 63
1, 133855, Note_off_c, 0, 80, 61
1, 133877, Note_off_c, 0, 64, 49
1, 133885, Note_on_c, 0, 52, 66
1, 133885, Note_on_c, 0, 76, 69
1, 133935, Note_off_c, 0, 52, 54
1, 133952, Note_off_c, 0, 76, 54
1, 133967, Note_on_c, 0, 86, 71
1, 133989, Note_on_c, 0, 64, 58
1, 134028, Note_off_c, 0, 64, 59
1, 134028, Note_off_c, 0, 86, 52
1, 134045, Note_on_c, 0, 83, 69
1, 134052, Note_on_c, 0, 56, 58
1, 134083, Note_off_c, 0, 56, 64
1, 134085, Note_off_c, 0, 83, 55
1, 134137, Note_on_c, 0, 76, 54
1, 134146, Note_on_c, 0, 64, 50
1, 134174, Note_off_c, 0, 76, 62
1, 134188, Note_off_c, 0, 64, 59
1, 134209, Note_on_c, 0, 59, 60
1, 134209, Note_on_c, 0, 80, 63
1, 134231, Note_off_c, 0, 80, 66
1, 134243, Note_off_c, 0, 59, 61
1, 134271, Note_on_c, 0, 76, 67
1, 134292, Note_on_c, 0, 64, 58
1, 134316, Note_off_c, 0, 76, 60
1, 134346, Note_on_c, 0, 76, 64
1, 134361, Note_off_c, 0, 64, 53
1, 134364, Note_on_c, 0, 57, 68
1, 134364, Note_on_c, 0, 84, 83
1, 134399, Note_off_c, 0, 76, 60
1, 134402, Note_off_c, 0, 57, 62
1, 134443, Note_on_c, 0, 81, 75
1, 134443, Note_off_c, 0, 84, 60
1, 134446, Note_on_c, 0, 64, 58
1, 134515, Note_off_c, 0, 64, 55
1, 134536, Note_off_c, 0, 81, 58
1, 134540, Note_on_c, 0, 76, 71
1, 134542, Note_on_c, 0, 52, 60
1, 134588, Note_off_c, 0, 52, 57
1, 134606, Note_off_c, 0, 76, 58
1, 134615, Note_on_c, 0, 72, 63
1, 134628, Note_on_c, 0, 64, 61
1, 134649, Note_off_c, 0, 72, 62
1, 134694, Note_off_c, 0, 64, 54
1, 134698, Note_on_c, 0, 60, 66
1, 134704, Note_on_c, 0, 69, 69
1, 134741, Note_off_c, 0, 60, 59
1, 134752, Note_off_c, 0, 69, 60
1, 134778, Note_on_c, 0, 76, 59
1, 134800, Note_on_c, 0, 64, 49
1, 134858, Note_on_c, 0, 72, 55
1, 134858, Note_off_c, 0, 76, 54
1, 134864, Note_off_c, 0, 64, 54
1, 134866, Note_on_c, 0, 57, 63
1, 134916, Note_off_c, 0, 57, 59
1, 134929, Note_on_c, 0, 69, 57
1, 134948, Note_off_c, 0, 69, 64
1, 134954, Note_off_c, 0, 72, 62
1, 134955, Note_on_c, 0, 64, 67
1, 135025, Note_on_c, 0, 76, 86
1, 135031, Note_on_c, 0, 83, 86
1, 135047, Note_off_c, 0, 64, 56
1, 135048, Note_on_c, 0, 56, 69
1, 135070, Note_off_c, 0, 76, 61
1, 135099, Note_off_c, 0, 56, 56
1, 135119, Note_off_c, 0, 83, 37
1, 135121, Note_on_c, 0, 76, 65
1, 135127, Note_on_c, 0, 79, 64
1, 135130, Note_on_c, 0, 64, 62
1, 135144, Note_off_c, 0, 79, 66
1, 135149, Note_off_c, 0, 76, 64
1, 135207, Note_on_c, 0, 76, 79
1, 135208, Note_off_c, 0, 64, 55
1, 135210, Note_on_c, 0, 52, 69
1, 135256, Note_off_c, 0, 76, 62
1, 135295, Note_off_c, 0, 52, 41
1, 135296, Note_on_c, 0, 76, 62
1, 135301, Note_on_c, 0, 64, 67
1, 135355, Note_off_c, 0, 76, 61
1, 135365, Note_on_c, 0, 72, 50
1, 135377, Note_on_c, 0, 56, 64
1, 135385, Note_off_c, 0, 64, 55
1, 135393, Note_off_c, 0, 72, 55
1, 135416, Note_off_c, 0, 56, 62
1, 135455, Note_on_c, 0, 71, 29
1, 135457, Note_on_c, 0, 68, 71
1, 135472, Note_on_c, 0, 59, 72
1, 135490, Note_off_c, 0, 68, 58
1, 135490, Note_off_c, 0, 71, 31
1, 135522, Note_off_c, 0, 59, 58
1, 135546, Note_on_c, 0, 64, 73
1, 135616, Note_off_c, 0, 64, 57
1, 135681, Note_on_c, 0, 84, 75
1, 135692, Note_on_c, 0, 88, 87
1, 135702, Note_on_c, 0, 57, 70
1, 135705, Note_off_c, 0, 84, 64
1, 135722, Note_on_c, 0, 96, 91
1, 135741, Note_off_c, 0, 57, 62
1, 135756, Note_off_c, 0, 88, 59
1, 135768, Note_on_c, 0, 64, 73
1, 135775, Note_on_c, 0, 93, 79
1, 135816, Note_off_c, 0, 96, 53
1, 135837, Note_off_c, 0, 64, 59
1, 135876, Note_on_c, 0, 52, 68
1, 135882, Note_on_c, 0, 88, 65
1, 135899, Note_off_c, 0, 93, 58
1, 135929, Note_off_c, 0, 52, 52
1, 135942, Note_on_c, 0, 84, 72
1, 135950, Note_off_c, 0, 88, 61
1, 135961, Note_on_c, 0, 64, 66
1, 135999, Note_off_c, 0, 84, 56
1, 136039, Note_on_c, 0, 81, 75
1, 136045, Note_off_c, 0, 64, 58
1, 136047, Note_on_c, 0, 60, 70
1, 136112, Note_off_c, 0, 60, 54
1, 136121, Note_on_c, 0, 88, 63
1, 136132, Note_off_c, 0, 81, 52
1, 136137, Note_on_c, 0, 64, 59
1, 136191, Note_on_c, 0, 84, 66
1, 136203, Note_on_c, 0, 57, 65
1, 136210, Note_off_c, 0, 64, 58
1, 136213, Note_off_c, 0, 88, 46
1, 136245, Note_on_c, 0, 81, 80
1, 136266, Note_off_c, 0, 57, 59
1, 136282, Note_off_c, 0, 84, 61
1, 136289, Note_off_c, 0, 81, 62
1, 136294, Note_on_c, 0, 64, 63
1, 136349, Note_on_c, 0, 83, 88
1, 136367, Note_on_c, 0, 56, 83
1, 136372, Note_on_c, 0, 88, 69
1, 136372, Note_off_c, 0, 64, 59
1, 136388, Note_on_c, 0, 95, 89
1, 136401, Note_off_c, 0, 88, 60
1, 136405, Note_off_c, 0, 83, 63
1, 136426, Note_off_c, 0, 56, 61
1, 136447, Note_on_c, 0, 64, 63
1, 136485, Note_on_c, 0, 92, 69
1, 136491, Note_off_c, 0, 95, 56
1, 136528, Note_on_c, 0, 52, 67
1, 136531, Note_off_c, 0, 64, 59
1, 136540, Note_off_c, 0, 92, 61
1, 136557, Note_on_c, 0, 88, 68
1, 136587, Note_off_c, 0, 52, 55
1, 136618, Note_on_c, 0, 64, 62
1, 136620, Note_on_c, 0, 98, 75
1, 136629, Note_off_c, 0, 88, 54
1, 136685, Note_off_c, 0, 64, 55
1, 136699, Note_on_c, 0, 56, 63
1, 136704, Note_on_c, 0, 95, 63
1, 136705, Note_off_c, 0, 98, 48
1, 136748, Note_off_c, 0, 56, 61
1, 136769, Note_off_c, 0, 95, 60
1, 136791, Note_on_c, 0, 88, 58
1, 136798, Note_on_c, 0, 64, 52
1, 136853, Note_off_c, 0, 88, 50
1, 136860, Note_on_c, 0, 59, 70
1, 136862, Note_off_c, 0, 64, 59
1, 136867, Note_on_c, 0, 92, 66
1, 136925, Note_off_c, 0, 59, 59
1, 136931, Note_on_c, 0, 88, 57
1, 136935, Note_off_c, 0, 92, 56
1, 136951, Note_off_c, 0, 88, 63
1, 136957, Note_on_c, 0, 64, 65
1, 137025, Note_on_c, 0, 84, 88
1, 137029, Note_on_c, 0, 57, 78
1, 137031, Note_on_c, 0, 88, 83
1, 137032, Note_off_c, 0, 64, 59
1, 137061, Note_on_c, 0, 96, 83
1, 137075, Note_off_c, 0, 84, 62
1, 137086, Note_off_c, 0, 57, 62
1, 137088, Note_off_c, 0, 88, 62
1, 137118, Note_on_c, 0, 64, 63
1, 137125, Note_on_c, 0, 93, 79
1, 137160, Note_off_c, 0, 96, 54
1, 137191, Note_off_c, 0, 64, 52
1, 137201, Note_on_c, 0, 52, 69
1, 137217, Note_on_c, 0, 88, 72
1, 137226, Note_off_c, 0, 93, 59
1, 137256, Note_off_c, 0, 52, 51
1, 137286, Note_off_c, 0, 88, 61
1, 137288, Note_on_c, 0, 64, 63
1, 137289, Note_on_c, 0, 84, 67
1, 137318, Note_off_c, 0, 84, 59
1, 137362, Note_off_c, 0, 64, 56
1, 137365, Note_on_c, 0, 60, 71
1, 137369, Note_on_c, 0, 81, 77
1, 137427, Note_off_c, 0, 60, 56
1, 137434, Note_off_c, 0, 81, 59
1, 137441, Note_on_c, 0, 88, 60
1, 137449, Note_on_c, 0, 64, 57
1, 137526, Note_on_c, 0, 84, 67
1, 137530, Note_off_c, 0, 64, 57
1, 137530, Note_off_c, 0, 88, 55
1, 137532, Note_on_c, 0, 57, 62
1, 137573, Note_off_c, 0, 57, 60
1, 137588, Note_on_c, 0, 81, 66
1, 137616, Note_on_c, 0, 64, 62
1, 137618, Note_off_c, 0, 84, 60
1, 137619, Note_off_c, 0, 81, 62
1, 137684, Note_on_c, 0, 83, 79
1, 137692, Note_on_c, 0, 56, 78
1, 137701, Note_off_c, 0, 64, 58
1, 137708, Note_on_c, 0, 88, 73
1, 137723, Note_on_c, 0, 95, 79
1, 137738, Note_off_c, 0, 83, 61
1, 137756, Note_off_c, 0, 56, 60
1, 137771, Note_on_c, 0, 64, 66
1, 137802, Note_on_c, 0, 92, 74
1, 137805, Note_off_c, 0, 88, 0
1, 137825, Note_on_c, 0, 88, 28
1, 137834, Control_c, 0, 64, 37
1, 137848, Control_c, 0, 64, 50
1, 137850, Note_off_c, 0, 64, 58
1, 137857, Note_on_c, 0, 52, 66
1, 137857, Note_off_c, 0, 95, 51
1, 137863, Control_c, 0, 64, 56
1, 137878, Control_c, 0, 64, 60
1, 137893, Control_c, 0, 64, 63
1, 137899, Note_off_c, 0, 92, 63
1, 137902, Note_on_c, 0, 83, 77
1, 137908, Control_c, 0, 64, 66
1, 137912, Note_off_c, 0, 52, 56
1, 137914, Note_off_c, 0, 88, 61
1, 137923, Control_c, 0, 64, 69
1, 137938, Control_c, 0, 64, 71
1, 137940, Note_on_c, 0, 64, 61
1, 137940, Note_off_c, 0, 83, 58
1, 137953, Control_c, 0, 64, 73
1, 137968, Control_c, 0, 64, 74
1, 137972, Note_off_c, 0, 64, 63
1, 137983, Control_c, 0, 64, 75
1, 138006, Note_on_c, 0, 80, 81
1, 138016, Note_on_c, 0, 59, 69
1, 138042, Control_c, 0, 64, 74
1, 138057, Control_c, 0, 64, 71
1, 138072, Control_c, 0, 64, 67
1, 138087, Note_off_c, 0, 59, 51
1, 138087, Control_c, 0, 64, 58
1, 138087, Note_on_c, 0, 71, 60
1, 138097, Note_on_c, 0, 68, 60
1, 138102, Control_c, 0, 64, 43
1, 138117, Control_c, 0, 64, 45
1, 138131, Control_c, 0, 64, 35
1, 138146, Control_c, 0, 64, 0
1, 138146, Note_off_c, 0, 80, 57
1, 138152, Note_on_c, 0, 76, 81
1, 138153, Note_on_c, 0, 64, 74
1, 138167, Note_off_c, 0, 71, 59
1, 138169, Note_off_c, 0, 68, 57
1, 138197, Note_off_c, 0, 64, 60
1, 138199, Note_off_c, 0, 76, 62
1, 138342, Note_on_c, 0, 81, 93
1, 138355, Note_on_c, 0, 61, 85
1, 138357, Note_on_c, 0, 88, 93
1, 138391, Control_c, 0, 64, 59
1, 138391, Note_off_c, 0, 81, 64
1, 138405, Control_c, 0, 64, 74
1, 138420, Control_c, 0, 64, 79
1, 138424, Note_off_c, 0, 61, 59
1, 138426, Note_on_c, 0, 69, 82
1, 138435, Control_c, 0, 64, 82
1, 138462, Note_on_c, 0, 85, 77
1, 138465, Control_c, 0, 64, 82
1, 138494, Control_c, 0, 64, 84
1, 138500, Note_off_c, 0, 69, 58
1, 138509, Control_c, 0, 64, 85
1, 138510, Note_off_c, 0, 88, 59
1, 138513, Note_on_c, 0, 57, 74
1, 138524, Control_c, 0, 64, 86
1, 138528, Note_on_c, 0, 81, 69
1, 138539, Control_c, 0, 64, 87
1, 138573, Note_off_c, 0, 57, 61
1, 138577, Note_off_c, 0, 85, 63
1, 138591, Note_off_c, 0, 81, 62
1, 138598, Note_on_c, 0, 76, 70
1, 138602, Note_on_c, 0, 69, 82
1, 138627, Note_off_c, 0, 76, 64
1, 138628, Control_c, 0, 64, 85
1, 138643, Control_c, 0, 64, 76
1, 138653, Note_off_c, 0, 69, 55
1, 138658, Control_c, 0, 64, 63
1, 138672, Control_c, 0, 64, 45
1, 138687, Control_c, 0, 64, 0
1, 138689, Note_on_c, 0, 73, 80
1, 138731, Note_off_c, 0, 73, 59
1, 138766, Note_on_c, 0, 69, 64
1, 138830, Note_off_c, 0, 69, 56
1, 138831, Note_on_c, 0, 67, 69
1, 138906, Note_off_c, 0, 67, 61
1, 138914, Note_on_c, 0, 64, 70
1, 138936, Note_off_c, 0, 64, 68
1, 139014, Note_on_c, 0, 65, 73
1, 139021, Control_c, 0, 64, 52
1, 139026, Note_on_c, 0, 50, 86
1, 139028, Note_on_c, 0, 57, 82
1, 139036, Control_c, 0, 64, 64
1, 139051, Control_c, 0, 64, 68
1, 139066, Control_c, 0, 64, 72
1, 139070, Note_off_c, 0, 57, 60
1, 139077, Note_off_c, 0, 50, 57
1, 139081, Control_c, 0, 64, 77
1, 139088, Note_off_c, 0, 65, 60
1, 139092, Note_on_c, 0, 62, 76
1, 139095, Control_c, 0, 64, 82
1, 139110, Control_c, 0, 64, 86
1, 139119, Note_off_c, 0, 62, 62
1, 139125, Control_c, 0, 64, 88
1, 139140, Control_c, 0, 64, 88
1, 139154, Control_c, 0, 64, 89
1, 139217, Note_on_c, 0, 86, 66
1, 139224, Note_on_c, 0, 88, 78
1, 139245, Note_off_c, 0, 88, 69
1, 139283, Note_on_c, 0, 81, 76
1, 139296, Note_off_c, 0, 86, 58
1, 139329, Note_off_c, 0, 81, 62
1, 139352, Note_on_c, 0, 77, 71
1, 139392, Note_off_c, 0, 77, 64
1, 139425, Note_on_c, 0, 74, 69
1, 139450, Control_c, 0, 64, 88
1, 139455, Note_off_c, 0, 74, 61
1, 139465, Control_c, 0, 64, 84
1, 139480, Control_c, 0, 64, 74
1, 139494, Control_c, 0, 64, 61
1, 139509, Control_c, 0, 64, 43
1, 139512, Note_on_c, 0, 65, 73
1, 139524, Control_c, 0, 64, 0
1, 139567, Note_off_c, 0, 65, 60
1, 139606, Note_on_c, 0, 62, 51
1, 139632, Note_on_c, 0, 64, 19
1, 139632, Note_off_c, 0, 62, 57
1, 139672, Note_off_c, 0, 64, 41
1, 139732, Note_on_c, 0, 59, 73
1, 139740, Note_on_c, 0, 79, 90
1, 139740, Control_c, 0, 64, 62
1, 139748, Note_on_c, 0, 86, 91
1, 139755, Control_c, 0, 64, 74
1, 139770, Control_c, 0, 64, 81
1, 139784, Control_c, 0, 64, 86
1, 139791, Note_off_c, 0, 79, 63
1, 139798, Note_off_c, 0, 59, 58
1, 139814, Note_on_c, 0, 67, 73
1, 139848, Note_off_c, 0, 86, 58
1, 139850, Note_on_c, 0, 83, 77
1, 139873, Control_c, 0, 64, 85
1, 139888, Control_c, 0, 64, 78
1, 139896, Note_off_c, 0, 67, 56
1, 139903, Control_c, 0, 64, 65
1, 139911, Note_on_c, 0, 55, 69
1, 139913, Note_on_c, 0, 79, 67
1, 139917, Control_c, 0, 64, 48
1, 139919, Note_off_c, 0, 83, 60
1, 139932, Control_c, 0, 64, 0
1, 139966, Note_off_c, 0, 79, 59
1, 139968, Note_off_c, 0, 55, 60
1, 139995, Note_on_c, 0, 74, 68
1, 139998, Note_on_c, 0, 67, 73
1, 140021, Note_off_c, 0, 74, 65
1, 140038, Note_off_c, 0, 67, 60
1, 140077, Note_on_c, 0, 71, 78
1, 140111, Note_off_c, 0, 71, 57
1, 140156, Note_on_c, 0, 67, 61
1, 140217, Note_on_c, 0, 65, 70
1, 140219, Note_off_c, 0, 67, 59
1, 140278, Note_off_c, 0, 65, 60
1, 140291, Note_on_c, 0, 62, 55
1, 140314, Note_off_c, 0, 62, 58
1, 140376, Note_on_c, 0, 64, 70
1, 140378, Control_c, 0, 64, 51
1, 140387, Note_on_c, 0, 48, 76
1, 140392, Control_c, 0, 64, 65
1, 140407, Note_on_c, 0, 55, 45
1, 140407, Control_c, 0, 64, 69
1, 140421, Note_off_c, 0, 48, 57
1, 140422, Control_c, 0, 64, 73
1, 140436, Note_off_c, 0, 55, 56
1, 140437, Control_c, 0, 64, 77
1, 140445, Note_off_c, 0, 64, 60
1, 140446, Note_on_c, 0, 60, 71
1, 140452, Control_c, 0, 64, 80
1, 140474, Control_c, 0, 64, 82
1, 140476, Note_off_c, 0, 60, 66
1, 140489, Control_c, 0, 64, 85
1, 140504, Control_c, 0, 64, 86
1, 140519, Control_c, 0, 64, 87
1, 140582, Note_on_c, 0, 86, 65
1, 140601, Note_on_c, 0, 84, 54
1, 140632, Note_off_c, 0, 84, 48
1, 140637, Note_off_c, 0, 86, 61
1, 140651, Note_on_c, 0, 81, 61
1, 140677, Note_off_c, 0, 81, 66
1, 140728, Note_on_c, 0, 76, 66
1, 140743, Poly_aftertouch_c, 0, 79, 0
1, 140749, Note_off_c, 0, 76, 69
1, 140776, Note_on_c, 0, 72, 73
1, 140801, Note_off_c, 0, 72, 65
1, 140876, Note_on_c, 0, 64, 80
1, 140925, Note_off_c, 0, 64, 58
1, 140960, Note_on_c, 0, 62, 67
1, 140973, Note_on_c, 0, 60, 47
1, 140993, Note_off_c, 0, 62, 58
1, 141001, Note_off_c, 0, 60, 52
1, 141066, Control_c, 0, 64, 87
1, 141081, Control_c, 0, 64, 85
1, 141096, Control_c, 0, 64, 81
1, 141097, Note_on_c, 0, 62, 76
1, 141100, Note_on_c, 0, 65, 87
1, 141103, Note_on_c, 0, 56, 84
1, 141106, Note_on_c, 0, 83, 107
1, 141110, Control_c, 0, 64, 73
1, 141125, Control_c, 0, 64, 61
1, 141142, Control_c, 0, 64, 43
1, 141157, Control_c, 0, 64, 0
1, 141166, Note_off_c, 0, 83, 64
1, 141193, Note_on_c, 0, 89, 86
1, 141196, Note_on_c, 0, 81, 89
1, 141240, Note_off_c, 0, 89, 60
1, 141249, Note_off_c, 0, 81, 61
1, 141259, Note_off_c, 0, 65, 37
1, 141295, Note_on_c, 0, 80, 85
1, 141300, Note_off_c, 0, 62, 35
1, 141312, Note_off_c, 0, 56, 35
1, 141341, Note_off_c, 0, 80, 62
1, 141365, Note_on_c, 0, 77, 86
1, 141372, Note_on_c, 0, 86, 79
1, 141407, Note_off_c, 0, 86, 58
1, 141409, Note_off_c, 0, 77, 61
1, 141455, Note_on_c, 0, 76, 85
1, 141518, Note_off_c, 0, 76, 63
1, 141536, Note_on_c, 0, 74, 79
1, 141537, Note_on_c, 0, 83, 74
1, 141555, Note_off_c, 0, 83, 65
1, 141585, Note_off_c, 0, 74, 61
1, 141624, Note_on_c, 0, 72, 78
1, 141700, Note_off_c, 0, 72, 59
1, 141703, Note_on_c, 0, 80, 70
1, 141723, Note_on_c, 0, 71, 67
1, 141742, Note_off_c, 0, 80, 61
1, 141750, Note_off_c, 0, 71, 63
1, 141782, Note_on_c, 0, 60, 68
1, 141789, Note_on_c, 0, 64, 63
1, 141790, Note_on_c, 0, 57, 57
1, 141805, Note_on_c, 0, 69, 83
1, 141810, Note_off_c, 0, 60, 63
1, 141818, Note_off_c, 0, 64, 63
1, 141826, Note_off_c, 0, 57, 61
1, 141870, Note_off_c, 0, 69, 62
1, 141899, Note_on_c, 0, 67, 65
1, 141917, Note_on_c, 0, 74, 43
1, 141921, Note_on_c, 0, 76, 22
1, 141927, Note_off_c, 0, 67, 64
1, 141944, Note_off_c, 0, 74, 53
1, 141961, Note_off_c, 0, 76, 42
1, 141975, Note_on_c, 0, 65, 71
1, 142001, Note_off_c, 0, 65, 66
1, 142065, Note_on_c, 0, 64, 63
1, 142084, Note_on_c, 0, 72, 36
1, 142087, Note_on_c, 0, 71, 33
1, 142099, Note_off_c, 0, 64, 59
1, 142113, Note_off_c, 0, 72, 49
1, 142116, Note_off_c, 0, 71, 48
1, 142147, Note_on_c, 0, 62, 76
1, 142177, Note_off_c, 0, 62, 57
1, 142226, Note_on_c, 0, 69, 65
1, 142227, Note_on_c, 0, 60, 63
1, 142264, Note_off_c, 0, 69, 56
1, 142266, Note_off_c, 0, 60, 55
1, 142320, Note_on_c, 0, 59, 62
1, 142341, Note_off_c, 0, 59, 62
1, 142376, Note_on_c, 0, 57, 61
1, 142391, Note_on_c, 0, 64, 71
1, 142400, Note_off_c, 0, 57, 66
1, 142432, Note_off_c, 0, 64, 64
1, 142496, Note_on_c, 0, 65, 73
1, 142532, Note_off_c, 0, 65, 53
1, 142586, Note_on_c, 0, 50, 76
1, 142620, Note_off_c, 0, 50, 59
1, 142677, Note_on_c, 0, 71, 63
1, 142679, Note_on_c, 0, 81, 60
1, 142756, Note_on_c, 0, 77, 73
1, 142761, Note_on_c, 0, 74, 57
1, 142764, Note_off_c, 0, 71, 61
1, 142773, Note_off_c, 0, 81, 60
1, 142791, Note_off_c, 0, 74, 65
1, 142791, Note_off_c, 0, 77, 60
1, 142846, Note_on_c, 0, 68, 82
1, 142881, Note_off_c, 0, 68, 63
1, 142931, Note_on_c, 0, 52, 87
1, 142986, Note_off_c, 0, 52, 60
1, 143016, Note_on_c, 0, 71, 85
1, 143021, Note_on_c, 0, 83, 83
1, 143099, Note_off_c, 0, 83, 61
1, 143103, Note_on_c, 0, 80, 67
1, 143108, Note_off_c, 0, 71, 62
1, 143112, Note_on_c, 0, 74, 72
1, 143139, Note_off_c, 0, 80, 57
1, 143151, Note_off_c, 0, 74, 62
1, 143183, Note_on_c, 0, 81, 88
1, 143184, Note_on_c, 0, 72, 93
1, 143190, Note_on_c, 0, 76, 80
1, 143213, Note_off_c, 0, 76, 67
1, 143220, Note_off_c, 0, 81, 62
1, 143225, Note_off_c, 0, 72, 63
1, 143280, Note_on_c, 0, 64, 72
1, 143281, Note_on_c, 0, 69, 65
1, 143299, Note_off_c, 0, 69, 65
1, 143319, Note_off_c, 0, 64, 63
1, 143328, Control_c, 0, 64, 18
1, 143343, Control_c, 0, 64, 20
1, 143373, Control_c, 0, 64, 20
1, 143384, Note_on_c, 0, 60, 67
1, 143438, Note_off_c, 0, 60, 51
1, 143469, Control_c, 0, 64, 20
1, 143477, Note_on_c, 0, 57, 62
1, 143484, Control_c, 0, 64, 19
1, 143499, Control_c, 0, 64, 19
1, 143514, Control_c, 0, 64, 18
1, 143528, Control_c, 0, 64, 18
1, 143539, Note_off_c, 0, 57, 53
1, 143559, Control_c, 0, 64, 23
1, 143574, Control_c, 0, 64, 45
1, 143589, Control_c, 0, 64, 60
1, 143596, Note_on_c, 0, 45, 60
1, 143604, Control_c, 0, 64, 66
1, 143618, Control_c, 0, 64, 73
1, 143633, Control_c, 0, 64, 80
1, 143648, Control_c, 0, 64, 85
1, 143663, Control_c, 0, 64, 86
1, 143686, Note_off_c, 0, 45, 37
1, 143709, Poly_aftertouch_c, 0, 47, 0
1, 143722, Control_c, 0, 64, 83
1, 143736, Control_c, 0, 64, 75
1, 143751, Control_c, 0, 64, 66
1, 143766, Control_c, 0, 64, 57
1, 143781, Control_c, 0, 64, 50
1, 143795, Control_c, 0, 64, 48
1, 144121, Control_c, 0, 64, 48
1, 144135, Control_c, 0, 64, 50
1, 144150, Control_c, 0, 64, 52
1, 144165, Control_c, 0, 64, 54
1, 144180, Control_c, 0, 64, 55
1, 144195, Control_c, 0, 64, 56
1, 144217, Control_c, 0, 64, 57
1, 144232, Control_c, 0, 64, 58
1, 144247, Control_c, 0, 64, 59
1, 144262, Control_c, 0, 64, 60
1, 144277, Control_c, 0, 64, 60
1, 144291, Control_c, 0, 64, 61
1, 144352, Control_c, 0, 64, 60
1, 144366, Control_c, 0, 64, 56
1, 144381, Control_c, 0, 64, 53
1, 144396, Control_c, 0, 64, 50
1, 144411, Control_c, 0, 64, 48
1, 144426, Control_c, 0, 64, 48
1, 144440, Control_c, 0, 64, 45
1, 144455, Control_c, 0, 64, 41
1, 144470, Control_c, 0, 64, 34
1, 144485, Control_c, 0, 64, 22
1, 144500, Control_c, 0, 64, 0
1, 144812, Control_c, 0, 64, 18
1, 144827, Control_c, 0, 64, 27
1, 144841, Control_c, 0, 64, 33
1, 144856, Control_c, 0, 64, 38
1, 144871, Control_c, 0, 64, 43
1, 144885, Control_c, 0, 64, 48
1, 144900, Control_c, 0, 64, 52
1, 144915, Control_c, 0, 64, 54
1, 144930, Control_c, 0, 64, 56
1, 144940, Note_on_c, 0, 81, 28
1, 144945, Control_c, 0, 64, 57
1, 144967, Control_c, 0, 64, 58
1, 144970, Note_on_c, 0, 69, 26
1, 144982, Control_c, 0, 64, 59
1, 144982, Note_on_c, 0, 76, 25
1, 144988, Note_on_c, 0, 84, 44
1, 144996, Control_c, 0, 64, 60
1, 145011, Control_c, 0, 64, 61
1, 145026, Control_c, 0, 64, 62
1, 145031, Note_on_c, 0, 93, 59
1, 145041, Control_c, 0, 64, 63
1, 145056, Control_c, 0, 64, 64
1, 145071, Control_c, 0, 64, 64
1, 145085, Control_c, 0, 64, 65
1, 145100, Control_c, 0, 64, 66
1, 145115, Control_c, 0, 64, 67
1, 145130, Control_c, 0, 64, 68
1, 145132, Note_off_c, 0, 76, 41
1, 145133, Note_on_c, 0, 77, 40
1, 145146, Control_c, 0, 64, 70
1, 145160, Control_c, 0, 64, 71
1, 145175, Control_c, 0, 64, 73
1, 145190, Control_c, 0, 64, 74
1, 145205, Control_c, 0, 64, 75
1, 145220, Control_c, 0, 64, 76
1, 145235, Control_c, 0, 64, 77
1, 145243, Note_off_c, 0, 77, 36
1, 145250, Control_c, 0, 64, 78
1, 145264, Control_c, 0, 64, 79
1, 145270, Note_on_c, 0, 76, 36
1, 145279, Control_c, 0, 64, 79
1, 145294, Control_c, 0, 64, 80
1, 145308, Note_off_c, 0, 76, 50
1, 145309, Control_c, 0, 64, 80
1, 145323, Control_c, 0, 64, 81
1, 145342, Note_on_c, 0, 77, 39
1, 145353, Control_c, 0, 64, 81
1, 145407, Note_off_c, 0, 77, 39
1, 145426, Note_on_c, 0, 76, 44
1, 145465, Note_off_c, 0, 76, 55
1, 145508, Note_on_c, 0, 77, 44
1, 145530, Control_c, 0, 64, 82
1, 145556, Note_off_c, 0, 77, 50
1, 145585, Note_on_c, 0, 76, 46
1, 145616, Note_off_c, 0, 76, 53
1, 145655, Note_off_c, 0, 84, 40
1, 145662, Note_on_c, 0, 77, 48
1, 145664, Control_c, 0, 64, 82
1, 145712, Note_off_c, 0, 77, 55
1, 145730, Control_c, 0, 64, 83
1, 145731, Note_on_c, 0, 76, 51
1, 145745, Control_c, 0, 64, 83
1, 145772, Note_off_c, 0, 76, 63
1, 145775, Control_c, 0, 64, 84
1, 145789, Control_c, 0, 64, 84
1, 145804, Note_off_c, 0, 81, 37
1, 145812, Note_on_c, 0, 77, 52
1, 145819, Control_c, 0, 64, 85
1, 145849, Control_c, 0, 64, 85
1, 145855, Note_off_c, 0, 77, 56
1, 145894, Control_c, 0, 64, 86
1, 145894, Note_off_c, 0, 93, 50
1, 145895, Note_on_c, 0, 76, 46
1, 145924, Note_off_c, 0, 76, 55
1, 145964, Note_on_c, 0, 77, 50
1, 146016, Note_off_c, 0, 77, 51
1, 146040, Note_on_c, 0, 76, 47
1, 146096, Note_off_c, 0, 76, 57
1, 146135, Note_on_c, 0, 77, 50
1, 146171, Note_on_c, 0, 88, 55
1, 146210, Note_off_c, 0, 77, 48
1, 146229, Note_on_c, 0, 76, 53
1, 146280, Note_off_c, 0, 76, 56
1, 146308, Note_on_c, 0, 77, 51
1, 146368, Control_c, 0, 64, 86
1, 146384, Note_off_c, 0, 77, 56
1, 146390, Note_on_c, 0, 96, 73
1, 146400, Note_on_c, 0, 76, 61
1, 146427, Control_c, 0, 64, 87
1, 146449, Note_off_c, 0, 76, 54
1, 146485, Note_on_c, 0, 77, 52
1, 146507, Note_off_c, 0, 96, 52
1, 146527, Note_off_c, 0, 88, 51
1, 146538, Poly_aftertouch_c, 0, 91, 127
1, 146564, Note_off_c, 0, 69, 41
1, 146567, Note_off_c, 0, 77, 47
1, 146591, Note_on_c, 0, 76, 38
1, 146603, Poly_aftertouch_c, 0, 91, 0
1, 146616, Note_on_c, 0, 77, 25
1, 146618, Note_off_c, 0, 76, 54
1, 146654, Note_on_c, 0, 95, 65
1, 146662, Note_on_c, 0, 83, 55
1, 146664, Note_on_c, 0, 88, 53
1, 146680, Note_off_c, 0, 77, 53
1, 146681, Note_on_c, 0, 74, 46
1, 146686, Note_on_c, 0, 69, 50
1, 146708, Note_on_c, 0, 76, 56
1, 146747, Control_c, 0, 64, 82
1, 146753, Note_off_c, 0, 76, 57
1, 146761, Control_c, 0, 64, 74
1, 146776, Control_c, 0, 64, 65
1, 146791, Control_c, 0, 64, 60
1, 146797, Note_on_c, 0, 77, 49
1, 146806, Control_c, 0, 64, 59
1, 146836, Control_c, 0, 64, 61
1, 146851, Control_c, 0, 64, 64
1, 146866, Control_c, 0, 64, 68
1, 146874, Note_off_c, 0, 77, 52
1, 146880, Control_c, 0, 64, 72
1, 146886, Note_on_c, 0, 76, 54
1, 146886, Note_on_c, 0, 93, 66
1, 146895, Control_c, 0, 64, 77
1, 146910, Control_c, 0, 64, 79
1, 146925, Control_c, 0, 64, 80
1, 146937, Note_off_c, 0, 88, 51
1, 146938, Note_off_c, 0, 76, 56
1, 146940, Control_c, 0, 64, 81
1, 146954, Control_c, 0, 64, 82
1, 146964, Note_on_c, 0, 77, 46
1, 146969, Control_c, 0, 64, 83
1, 146984, Control_c, 0, 64, 84
1, 146999, Control_c, 0, 64, 84
1, 147014, Control_c, 0, 64, 85
1, 147028, Control_c, 0, 64, 85
1, 147043, Control_c, 0, 64, 86
1, 147052, Note_off_c, 0, 77, 53
1, 147066, Note_on_c, 0, 76, 61
1, 147066, Note_on_c, 0, 92, 78
1, 147073, Note_off_c, 0, 83, 36
1, 147132, Note_off_c, 0, 95, 35
1, 147143, Note_off_c, 0, 76, 58
1, 147161, Note_on_c, 0, 77, 59
1, 147247, Note_on_c, 0, 90, 85
1, 147253, Note_off_c, 0, 77, 57
1, 147268, Note_on_c, 0, 76, 68
1, 147285, Note_off_c, 0, 93, 18
1, 147290, Note_off_c, 0, 92, 60
1, 147345, Note_off_c, 0, 76, 60
1, 147363, Note_on_c, 0, 77, 63
1, 147414, Note_on_c, 0, 88, 87
1, 147446, Note_off_c, 0, 77, 56
1, 147453, Note_off_c, 0, 90, 61
1, 147460, Note_on_c, 0, 76, 66
1, 147526, Note_off_c, 0, 76, 60
1, 147535, Note_off_c, 0, 74, 39
1, 147539, Note_on_c, 0, 77, 58
1, 147581, Note_on_c, 0, 90, 82
1, 147602, Note_off_c, 0, 88, 60
1, 147614, Note_off_c, 0, 77, 57
1, 147635, Note_on_c, 0, 76, 62
1, 147685, Note_off_c, 0, 76, 58
1, 147716, Note_on_c, 0, 77, 56
1, 147766, Note_on_c, 0, 92, 77
1, 147775, Note_off_c, 0, 90, 60
1, 147783, Note_off_c, 0, 77, 51
1, 147813, Note_on_c, 0, 76, 56
1, 147856, Note_off_c, 0, 76, 60
1, 147894, Note_on_c, 0, 77, 51
1, 147960, Note_off_c, 0, 77, 53
1, 147968, Note_on_c, 0, 88, 58
1, 147986, Note_on_c, 0, 76, 57
1, 148031, Note_off_c, 0, 88, 45
1, 148034, Note_off_c, 0, 76, 56
1, 148082, Note_on_c, 0, 77, 53
1, 148114, Note_off_c, 0, 69, 23
1, 148115, Note_off_c, 0, 92, 20
1, 148231, Note_on_c, 0, 76, 34
1, 148236, Note_on_c, 0, 69, 41
1, 148241, Note_off_c, 0, 77, 35
1, 148255, Note_on_c, 0, 88, 46
1, 148258, Note_on_c, 0, 72, 47
1, 148260, Note_on_c, 0, 84, 47
1, 148264, Note_on_c, 0, 93, 56
1, 148302, Control_c, 0, 64, 82
1, 148317, Control_c, 0, 64, 74
1, 148332, Control_c, 0, 64, 64
1, 148344, Note_off_c, 0, 76, 53
1, 148347, Control_c, 0, 64, 57
1, 148362, Control_c, 0, 64, 54
1, 148377, Note_on_c, 0, 77, 37
1, 148392, Control_c, 0, 64, 54
1, 148407, Control_c, 0, 64, 60
1, 148422, Control_c, 0, 64, 66
1, 148436, Control_c, 0, 64, 71
1, 148451, Note_off_c, 0, 77, 44
1, 148451, Control_c, 0, 64, 76
1, 148466, Control_c, 0, 64, 81
1, 148475, Note_on_c, 0, 76, 50
1, 148481, Control_c, 0, 64, 83
1, 148496, Control_c, 0, 64, 83
1, 148505, Note_off_c, 0, 88, 42
1, 148511, Control_c, 0, 64, 84
1, 148523, Note_off_c, 0, 76, 58
1, 148525, Control_c, 0, 64, 85
1, 148540, Control_c, 0, 64, 85
1, 148555, Control_c, 0, 64, 86
1, 148559, Note_off_c, 0, 93, 52
1, 148565, Note_on_c, 0, 77, 49
1, 148570, Control_c, 0, 64, 86
1, 148599, Control_c, 0, 64, 87
1, 148617, Note_off_c, 0, 77, 51
1, 148643, Note_on_c, 0, 76, 55
1, 148695, Note_off_c, 0, 76, 55
1, 148733, Note_on_c, 0, 77, 52
1, 148767, Note_on_c, 0, 95, 59
1, 148814, Note_on_c, 0, 93, 69
1, 148832, Note_off_c, 0, 77, 50
1, 148840, Note_on_c, 0, 76, 56
1, 148848, Note_off_c, 0, 95, 58
1, 148870, Note_on_c, 0, 92, 79
1, 148877, Note_off_c, 0, 93, 62
1, 148911, Note_off_c, 0, 76, 56
1, 148914, Note_on_c, 0, 77, 53
1, 148946, Note_on_c, 0, 93, 86
1, 148967, Note_off_c, 0, 92, 63
1, 149006, Control_c, 0, 64, 87
1, 149030, Note_off_c, 0, 77, 54
1, 149033, Note_on_c, 0, 76, 71
1, 149080, Control_c, 0, 64, 88
1, 149113, Note_off_c, 0, 76, 60
1, 149114, Note_on_c, 0, 77, 62
1, 149115, Note_on_c, 0, 95, 90
1, 149131, Note_off_c, 0, 84, 0
1, 149131, Note_on_c, 0, 84, 3
1, 149140, Note_off_c, 0, 93, 57
1, 149230, Note_on_c, 0, 76, 72
1, 149239, Note_off_c, 0, 77, 57
1, 149302, Note_on_c, 0, 96, 95
1, 149322, Note_on_c, 0, 77, 66
1, 149322, Note_off_c, 0, 76, 60
1, 149339, Note_off_c, 0, 95, 62
1, 149360, Note_off_c, 0, 84, 53
1, 149391, Note_off_c, 0, 96, 62
1, 149408, Control_c, 0, 64, 88
1, 149424, Note_off_c, 0, 77, 57
1, 149426, Note_on_c, 0, 76, 76
1, 149474, Control_c, 0, 64, 89
1, 149489, Control_c, 0, 64, 89
1, 149494, Note_on_c, 0, 98, 89
1, 149496, Note_on_c, 0, 96, 86
1, 149513, Note_off_c, 0, 76, 59
1, 149533, Control_c, 0, 64, 90
1, 149539, Note_on_c, 0, 77, 65
1, 149563, Note_off_c, 0, 96, 58
1, 149563, Note_off_c, 0, 98, 60
1, 149566, Note_off_c, 0, 72, 34
1, 149598, Note_off_c, 0, 77, 55
1, 149608, Note_on_c, 0, 76, 70
1, 149608, Control_c, 0, 64, 90
1, 149642, Note_off_c, 0, 69, 35
1, 149675, Note_off_c, 0, 76, 53
1, 149687, Note_on_c, 0, 77, 54
1, 149755, Control_c, 0, 64, 91
1, 149773, Note_on_c, 0, 99, 80
1, 149778, Note_on_c, 0, 86, 68
1, 149779, Note_on_c, 0, 71, 59
1, 149786, Note_on_c, 0, 69, 47
1, 149787, Note_off_c, 0, 77, 34
1, 149787, Note_on_c, 0, 76, 56
1, 149795, Note_on_c, 0, 92, 58
1, 149799, Control_c, 0, 64, 86
1, 149814, Control_c, 0, 64, 72
1, 149829, Control_c, 0, 64, 56
1, 149843, Control_c, 0, 64, 32
1, 149847, Note_off_c, 0, 76, 46
1, 149858, Control_c, 0, 64, 0
1, 149876, Note_on_c, 0, 77, 53
1, 149918, Control_c, 0, 64, 43
1, 149933, Control_c, 0, 64, 59
1, 149948, Control_c, 0, 64, 63
1, 149959, Note_off_c, 0, 77, 56
1, 149963, Control_c, 0, 64, 65
1, 149972, Note_on_c, 0, 76, 58
1, 149978, Control_c, 0, 64, 67
1, 149992, Control_c, 0, 64, 68
1, 150007, Control_c, 0, 64, 70
1, 150019, Note_off_c, 0, 76, 55
1, 150022, Control_c, 0, 64, 73
1, 150037, Control_c, 0, 64, 77
1, 150052, Control_c, 0, 64, 80
1, 150058, Note_on_c, 0, 77, 51
1, 150067, Control_c, 0, 64, 82
1, 150082, Control_c, 0, 64, 83
1, 150097, Control_c, 0, 64, 84
1, 150111, Control_c, 0, 64, 84
1, 150126, Control_c, 0, 64, 85
1, 150136, Note_off_c, 0, 77, 36
1, 150141, Control_c, 0, 64, 85
1, 150149, Note_on_c, 0, 76, 54
1, 150162, Note_off_c, 0, 86, 38
1, 150185, Control_c, 0, 64, 86
1, 150189, Note_off_c, 0, 76, 57
1, 150242, Note_on_c, 0, 77, 50
1, 150358, Note_on_c, 0, 76, 48
1, 150366, Note_off_c, 0, 99, 40
1, 150372, Note_off_c, 0, 77, 35
1, 150389, Note_on_c, 0, 100, 71
1, 150411, Note_off_c, 0, 76, 51
1, 150446, Note_on_c, 0, 77, 50
1, 150474, Control_c, 0, 64, 86
1, 150552, Note_on_c, 0, 76, 51
1, 150562, Note_off_c, 0, 77, 35
1, 150563, Control_c, 0, 64, 87
1, 150572, Note_off_c, 0, 100, 40
1, 150598, Note_off_c, 0, 76, 56
1, 150603, Note_on_c, 0, 88, 54
1, 150632, Note_on_c, 0, 77, 44
1, 150636, Control_c, 0, 64, 87
1, 150642, Note_off_c, 0, 92, 16
1, 150676, Note_off_c, 0, 88, 42
1, 150702, Note_off_c, 0, 77, 45
1, 150726, Note_on_c, 0, 76, 47
1, 150756, Control_c, 0, 64, 88
1, 150763, Note_off_c, 0, 76, 49
1, 150794, Note_on_c, 0, 77, 45
1, 150881, Note_on_c, 0, 76, 49
1, 150887, Note_off_c, 0, 77, 35
1, 150923, Note_off_c, 0, 76, 54
1, 150958, Note_on_c, 0, 77, 39
1, 151025, Note_off_c, 0, 71, 31
1, 151067, Note_on_c, 0, 76, 46
1, 151070, Note_off_c, 0, 77, 35
1, 151110, Note_off_c, 0, 76, 51
1, 151149, Note_on_c, 0, 77, 39
1, 151240, Note_off_c, 0, 77, 35
1, 151242, Note_on_c, 0, 76, 44
1, 151314, Note_off_c, 0, 76, 36
1, 151358, Note_on_c, 0, 77, 45
1, 151361, Note_off_c, 0, 69, 38
1, 151510, Note_off_c, 0, 77, 22
1, 151531, Note_on_c, 0, 69, 31
1, 151542, Note_on_c, 0, 93, 54
1, 151546, Note_on_c, 0, 81, 44
1, 151556, Note_on_c, 0, 84, 51
1, 151559, Note_on_c, 0, 76, 41
1, 151580, Control_c, 0, 64, 87
1, 151595, Control_c, 0, 64, 83
1, 151610, Control_c, 0, 64, 76
1, 151624, Control_c, 0, 64, 67
1, 151639, Control_c, 0, 64, 60
1, 151654, Control_c, 0, 64, 57
1, 151683, Note_off_c, 0, 76, 34
1, 151683, Note_on_c, 0, 77, 36
1, 151706, Control_c, 0, 64, 59
1, 151721, Control_c, 0, 64, 63
1, 151736, Control_c, 0, 64, 67
1, 151751, Control_c, 0, 64, 71
1, 151765, Control_c, 0, 64, 76
1, 151778, Note_off_c, 0, 77, 44
1, 151780, Control_c, 0, 64, 80
1, 151793, Note_on_c, 0, 76, 38
1, 151795, Control_c, 0, 64, 83
1, 151810, Control_c, 0, 64, 84
1, 151825, Control_c, 0, 64, 84
1, 151838, Note_off_c, 0, 76, 45
1, 151839, Control_c, 0, 64, 85
1, 151854, Control_c, 0, 64, 86
1, 151867, Note_on_c, 0, 77, 33
1, 151869, Control_c, 0, 64, 87
1, 151883, Control_c, 0, 64, 88
1, 151898, Control_c, 0, 64, 88
1, 151913, Control_c, 0, 64, 89
1, 151921, Note_off_c, 0, 77, 42
1, 151946, Note_on_c, 0, 76, 39
1, 151982, Note_off_c, 0, 76, 49
1, 152018, Note_on_c, 0, 77, 41
1, 152060, Note_off_c, 0, 77, 45
1, 152061, Control_c, 0, 64, 89
1, 152095, Note_on_c, 0, 76, 41
1, 152124, Note_off_c, 0, 76, 54
1, 152159, Note_on_c, 0, 77, 49
1, 152195, Note_off_c, 0, 77, 47
1, 152228, Note_on_c, 0, 76, 45
1, 152260, Note_off_c, 0, 76, 52
1, 152297, Note_off_c, 0, 81, 46
1, 152306, Note_on_c, 0, 77, 43
1, 152318, Note_off_c, 0, 84, 39
1, 152341, Note_off_c, 0, 77, 48
1, 152375, Note_on_c, 0, 76, 43
1, 152407, Note_off_c, 0, 76, 51
1, 152425, Note_off_c, 0, 93, 54
1, 152449, Note_on_c, 0, 77, 51
1, 152523, Note_on_c, 0, 76, 49
1, 152525, Note_off_c, 0, 77, 37
1, 152594, Note_off_c, 0, 76, 47
1, 152628, Note_on_c, 0, 77, 45
1, 152673, Note_on_c, 0, 88, 52
1, 152723, Note_off_c, 0, 77, 36
1, 152726, Note_on_c, 0, 76, 50
1, 152770, Note_off_c, 0, 76, 59
1, 152801, Note_on_c, 0, 77, 48
1, 152886, Note_off_c, 0, 77, 53
1, 152891, Note_on_c, 0, 76, 52
1, 152910, Note_on_c, 0, 96, 73
1, 152971, Note_off_c, 0, 76, 52
1, 152982, Note_off_c, 0, 96, 56
1, 152988, Note_on_c, 0, 77, 50
1, 153003, Note_off_c, 0, 88, 36
1, 153011, Note_off_c, 0, 69, 35
1, 153149, Note_on_c, 0, 95, 57
1, 153151, Note_on_c, 0, 69, 44
1, 153155, Note_on_c, 0, 88, 32
1, 153159, Note_on_c, 0, 76, 37
1, 153159, Note_on_c, 0, 83, 51
1, 153161, Note_off_c, 0, 77, 39
1, 153170, Note_on_c, 0, 74, 43
1, 153182, Control_c, 0, 64, 89
1, 153203, Control_c, 0, 64, 83
1, 153218, Control_c, 0, 64, 74
1, 153233, Control_c, 0, 64, 64
1, 153248, Control_c, 0, 64, 58
1, 153263, Control_c, 0, 64, 56
1, 153286, Note_off_c, 0, 76, 40
1, 153292, Control_c, 0, 64, 57
1, 153293, Note_on_c, 0, 77, 45
1, 153307, Control_c, 0, 64, 63
1, 153322, Control_c, 0, 64, 67
1, 153337, Control_c, 0, 64, 71
1, 153352, Control_c, 0, 64, 76
1, 153367, Control_c, 0, 64, 79
1, 153382, Control_c, 0, 64, 81
1, 153385, Note_off_c, 0, 77, 51
1, 153392, Note_on_c, 0, 93, 61
1, 153396, Control_c, 0, 64, 83
1, 153411, Control_c, 0, 64, 84
1, 153419, Note_on_c, 0, 76, 37
1, 153426, Control_c, 0, 64, 84
1, 153441, Control_c, 0, 64, 85
1, 153446, Note_off_c, 0, 88, 42
1, 153454, Note_off_c, 0, 76, 50
1, 153455, Control_c, 0, 64, 85
1, 153485, Control_c, 0, 64, 86
1, 153486, Note_on_c, 0, 77, 43
1, 153489, Note_off_c, 0, 83, 46
1, 153489, Note_off_c, 0, 95, 37
1, 153500, Control_c, 0, 64, 87
1, 153529, Control_c, 0, 64, 87
1, 153568, Note_on_c, 0, 92, 69
1, 153575, Note_on_c, 0, 76, 44
1, 153575, Note_off_c, 0, 77, 36
1, 153632, Note_off_c, 0, 76, 56
1, 153662, Control_c, 0, 64, 88
1, 153671, Note_on_c, 0, 77, 47
1, 153672, Note_off_c, 0, 93, 33
1, 153730, Note_on_c, 0, 90, 65
1, 153738, Note_off_c, 0, 77, 44
1, 153743, Note_off_c, 0, 92, 53
1, 153764, Note_on_c, 0, 76, 51
1, 153813, Note_off_c, 0, 76, 58
1, 153853, Note_on_c, 0, 77, 48
1, 153893, Note_on_c, 0, 88, 57
1, 153897, Note_off_c, 0, 90, 50
1, 153964, Note_on_c, 0, 76, 41
1, 153979, Note_off_c, 0, 77, 34
1, 154014, Note_off_c, 0, 76, 43
1, 154044, Note_on_c, 0, 77, 44
1, 154050, Note_off_c, 0, 88, 36
1, 154065, Note_on_c, 0, 90, 56
1, 154134, Note_off_c, 0, 77, 49
1, 154153, Note_on_c, 0, 76, 36
1, 154202, Note_off_c, 0, 76, 43
1, 154232, Note_on_c, 0, 77, 42
1, 154234, Note_off_c, 0, 90, 47
1, 154243, Note_on_c, 0, 92, 60
1, 154304, Note_off_c, 0, 77, 45
1, 154322, Note_on_c, 0, 76, 51
1, 154370, Note_off_c, 0, 76, 55
1, 154404, Note_off_c, 0, 74, 31
1, 154409, Note_on_c, 0, 77, 44
1, 154433, Note_off_c, 0, 92, 49
1, 154434, Note_on_c, 0, 88, 60
1, 154455, Note_off_c, 0, 77, 57
1, 154487, Note_on_c, 0, 76, 53
1, 154494, Note_off_c, 0, 88, 48
1, 154533, Note_off_c, 0, 76, 56
1, 154568, Note_off_c, 0, 69, 36
1, 154575, Note_on_c, 0, 77, 48
1, 154714, Note_on_c, 0, 69, 36
1, 154717, Note_on_c, 0, 88, 37
1, 154722, Note_on_c, 0, 93, 57
1, 154723, Note_off_c, 0, 77, 32
1, 154725, Note_on_c, 0, 84, 44
1, 154731, Control_c, 0, 64, 84
1, 154741, Note_on_c, 0, 72, 42
1, 154745, Note_on_c, 0, 76, 29
1, 154746, Control_c, 0, 64, 76
1, 154761, Control_c, 0, 64, 67
1, 154775, Control_c, 0, 64, 62
1, 154790, Control_c, 0, 64, 61
1, 154802, Note_off_c, 0, 76, 43
1, 154820, Control_c, 0, 64, 64
1, 154834, Control_c, 0, 64, 68
1, 154838, Note_on_c, 0, 77, 49
1, 154849, Control_c, 0, 64, 74
1, 154864, Control_c, 0, 64, 81
1, 154879, Control_c, 0, 64, 86
1, 154893, Control_c, 0, 64, 87
1, 154908, Control_c, 0, 64, 88
1, 154923, Control_c, 0, 64, 88
1, 154929, Note_off_c, 0, 77, 51
1, 154938, Note_on_c, 0, 76, 46
1, 154938, Control_c, 0, 64, 90
1, 154953, Control_c, 0, 64, 91
1, 154968, Control_c, 0, 64, 92
1, 154983, Control_c, 0, 64, 92
1, 154990, Note_off_c, 0, 88, 42
1, 154997, Note_off_c, 0, 76, 55
1, 154997, Control_c, 0, 64, 93
1, 155012, Control_c, 0, 64, 93
1, 155025, Note_on_c, 0, 77, 49
1, 155060, Note_off_c, 0, 93, 44
1, 155072, Control_c, 0, 64, 94
1, 155133, Note_on_c, 0, 76, 54
1, 155143, Note_off_c, 0, 77, 35
1, 155215, Note_off_c, 0, 76, 50
1, 155240, Note_on_c, 0, 77, 50
1, 155242, Note_on_c, 0, 95, 55
1, 155296, Note_on_c, 0, 93, 64
1, 155310, Note_off_c, 0, 95, 57
1, 155330, Note_off_c, 0, 77, 52
1, 155350, Note_on_c, 0, 92, 74
1, 155353, Note_off_c, 0, 93, 61
1, 155359, Note_on_c, 0, 76, 54
1, 155418, Note_off_c, 0, 76, 52
1, 155426, Note_on_c, 0, 93, 76
1, 155447, Note_on_c, 0, 77, 55
1, 155561, Note_on_c, 0, 76, 63
1, 155564, Note_off_c, 0, 77, 49
1, 155600, Note_on_c, 0, 95, 79
1, 155624, Note_off_c, 0, 93, 57
1, 155648, Note_off_c, 0, 76, 59
1, 155653, Note_off_c, 0, 92, 39
1, 155660, Note_on_c, 0, 77, 56
1, 155775, Note_on_c, 0, 76, 64
1, 155778, Note_off_c, 0, 77, 52
1, 155792, Note_on_c, 0, 96, 79
1, 155845, Note_off_c, 0, 95, 49
1, 155850, Note_off_c, 0, 84, 40
1, 155857, Note_off_c, 0, 76, 57
1, 155869, Note_on_c, 0, 77, 55
1, 155892, Note_off_c, 0, 96, 55
1, 155981, Note_off_c, 0, 77, 53
1, 155990, Note_on_c, 0, 76, 59
1, 156005, Note_on_c, 0, 98, 71
1, 156073, Note_off_c, 0, 98, 59
1, 156085, Note_off_c, 0, 76, 53
1, 156095, Note_off_c, 0, 72, 33
1, 156111, Note_on_c, 0, 77, 56
1, 156140, Note_off_c, 0, 69, 41
1, 156246, Note_off_c, 0, 77, 42
1, 156284, Note_on_c, 0, 76, 39
1, 156285, Note_on_c, 0, 99, 61
1, 156285, Note_on_c, 0, 71, 47
1, 156288, Note_on_c, 0, 86, 54
1, 156292, Note_on_c, 0, 69, 41
1, 156318, Note_on_c, 0, 92, 49
1, 156333, Control_c, 0, 64, 88
1, 156347, Control_c, 0, 64, 78
1, 156362, Control_c, 0, 64, 67
1, 156377, Control_c, 0, 64, 58
1, 156392, Control_c, 0, 64, 55
1, 156403, Note_off_c, 0, 76, 28
1, 156421, Control_c, 0, 64, 57
1, 156430, Note_on_c, 0, 77, 29
1, 156436, Control_c, 0, 64, 63
1, 156451, Control_c, 0, 64, 68
1, 156466, Control_c, 0, 64, 74
1, 156480, Control_c, 0, 64, 79
1, 156495, Control_c, 0, 64, 83
1, 156510, Control_c, 0, 64, 85
1, 156525, Note_off_c, 0, 77, 36
1, 156525, Control_c, 0, 64, 87
1, 156533, Note_on_c, 0, 76, 42
1, 156540, Control_c, 0, 64, 88
1, 156554, Control_c, 0, 64, 89
1, 156569, Control_c, 0, 64, 91
1, 156581, Note_off_c, 0, 76, 43
1, 156584, Control_c, 0, 64, 92
1, 156598, Control_c, 0, 64, 93
1, 156613, Control_c, 0, 64, 94
1, 156620, Note_on_c, 0, 77, 41
1, 156628, Control_c, 0, 64, 95
1, 156643, Control_c, 0, 64, 96
1, 156658, Control_c, 0, 64, 96
1, 156671, Note_off_c, 0, 77, 41
1, 156697, Note_on_c, 0, 76, 39
1, 156741, Note_off_c, 0, 76, 44
1, 156779, Note_on_c, 0, 77, 47
1, 156836, Control_c, 0, 64, 97
1, 156837, Note_off_c, 0, 77, 40
1, 156866, Note_on_c, 0, 76, 48
1, 156890, Note_off_c, 0, 86, 31
1, 156914, Note_off_c, 0, 76, 43
1, 156944, Note_on_c, 0, 100, 54
1, 156964, Note_on_c, 0, 77, 51
1, 157030, Note_off_c, 0, 77, 41
1, 157059, Note_off_c, 0, 71, 33
1, 157078, Note_on_c, 0, 76, 43
1, 157138, Note_off_c, 0, 76, 41
1, 157159, Note_on_c, 0, 88, 51
1, 157168, Note_on_c, 0, 77, 49
1, 157210, Note_off_c, 0, 100, 42
1, 157227, Note_off_c, 0, 77, 46
1, 157241, Note_off_c, 0, 99, 16
1, 157251, Note_off_c, 0, 88, 49
1, 157265, Note_off_c, 0, 92, 43
1, 157270, Note_on_c, 0, 76, 36
1, 157303, Note_off_c, 0, 76, 50
1, 157343, Note_on_c, 0, 77, 44
1, 157394, Note_off_c, 0, 77, 41
1, 157424, Note_on_c, 0, 76, 44
1, 157463, Note_off_c, 0, 76, 46
1, 157503, Note_on_c, 0, 77, 45
1, 157551, Note_off_c, 0, 77, 42
1, 157588, Note_on_c, 0, 76, 39
1, 157618, Note_off_c, 0, 76, 53
1, 157647, Note_on_c, 0, 77, 42
1, 157723, Note_off_c, 0, 77, 37
1, 157751, Note_on_c, 0, 76, 43
1, 157796, Note_off_c, 0, 76, 43
1, 157826, Note_on_c, 0, 77, 46
1, 157870, Note_off_c, 0, 69, 36
1, 158013, Note_on_c, 0, 93, 73
1, 158016, Note_on_c, 0, 69, 53
1, 158019, Note_on_c, 0, 79, 52
1, 158019, Note_off_c, 0, 77, 37
1, 158027, Note_on_c, 0, 85, 60
1, 158030, Note_on_c, 0, 76, 48
1, 158052, Control_c, 0, 64, 93
1, 158067, Control_c, 0, 64, 81
1, 158082, Control_c, 0, 64, 67
1, 158097, Control_c, 0, 64, 52
1, 158111, Control_c, 0, 64, 43
1, 158123, Note_off_c, 0, 76, 53
1, 158126, Control_c, 0, 64, 42
1, 158141, Control_c, 0, 64, 42
1, 158148, Note_on_c, 0, 77, 48
1, 158156, Control_c, 0, 64, 52
1, 158170, Control_c, 0, 64, 63
1, 158185, Control_c, 0, 64, 68
1, 158200, Control_c, 0, 64, 72
1, 158215, Control_c, 0, 64, 76
1, 158226, Note_off_c, 0, 77, 50
1, 158230, Control_c, 0, 64, 78
1, 158242, Note_on_c, 0, 76, 54
1, 158244, Control_c, 0, 64, 80
1, 158259, Control_c, 0, 64, 82
1, 158274, Control_c, 0, 64, 85
1, 158285, Note_off_c, 0, 76, 60
1, 158289, Control_c, 0, 64, 87
1, 158304, Control_c, 0, 64, 89
1, 158309, Note_on_c, 0, 77, 54
1, 158318, Control_c, 0, 64, 90
1, 158333, Control_c, 0, 64, 91
1, 158348, Control_c, 0, 64, 91
1, 158373, Note_off_c, 0, 77, 50
1, 158385, Note_on_c, 0, 76, 62
1, 158428, Note_off_c, 0, 76, 56
1, 158450, Note_on_c, 0, 77, 53
1, 158516, Note_off_c, 0, 77, 50
1, 158524, Note_on_c, 0, 76, 58
1, 158566, Note_off_c, 0, 76, 57
1, 158569, Note_on_c, 0, 77, 44
1, 158652, Note_on_c, 0, 76, 47
1, 158664, Note_off_c, 0, 77, 42
1, 158722, Note_on_c, 0, 77, 46
1, 158724, Note_off_c, 0, 76, 53
1, 158828, Note_off_c, 0, 79, 55
1, 158834, Note_on_c, 0, 76, 41
1, 158849, Note_off_c, 0, 77, 49
1, 158875, Note_off_c, 0, 85, 50
1, 158917, Note_off_c, 0, 93, 53
1, 158934, Control_c, 0, 64, 91
1, 158949, Control_c, 0, 64, 90
1, 158964, Control_c, 0, 64, 90
1, 158979, Control_c, 0, 64, 89
1, 158993, Control_c, 0, 64, 89
1, 159008, Control_c, 0, 64, 87
1, 159023, Control_c, 0, 64, 85
1, 159038, Control_c, 0, 64, 82
1, 159053, Control_c, 0, 64, 77
1, 159067, Control_c, 0, 64, 72
1, 159082, Control_c, 0, 64, 67
1, 159097, Control_c, 0, 64, 66
1, 159156, Control_c, 0, 64, 65
1, 159171, Control_c, 0, 64, 65
1, 159193, Control_c, 0, 64, 64
1, 159208, Control_c, 0, 64, 63
1, 159237, Note_on_c, 0, 100, 68
1, 159445, Control_c, 0, 64, 64
1, 159460, Control_c, 0, 64, 66
1, 159475, Control_c, 0, 64, 67
1, 159487, Note_on_c, 0, 97, 80
1, 159490, Control_c, 0, 64, 69
1, 159505, Control_c, 0, 64, 70
1, 159520, Control_c, 0, 64, 71
1, 159535, Control_c, 0, 64, 73
1, 159550, Control_c, 0, 64, 74
1, 159564, Control_c, 0, 64, 75
1, 159579, Control_c, 0, 64, 76
1, 159594, Control_c, 0, 64, 77
1, 159603, Note_off_c, 0, 100, 36
1, 159609, Control_c, 0, 64, 78
1, 159624, Control_c, 0, 64, 79
1, 159639, Control_c, 0, 64, 80
1, 159654, Control_c, 0, 64, 82
1, 159668, Control_c, 0, 64, 83
1, 159683, Control_c, 0, 64, 84
1, 159697, Note_on_c, 0, 93, 82
1, 159698, Control_c, 0, 64, 85
1, 159713, Control_c, 0, 64, 86
1, 159728, Control_c, 0, 64, 88
1, 159742, Control_c, 0, 64, 89
1, 159752, Note_off_c, 0, 97, 57
1, 159757, Control_c, 0, 64, 89
1, 159787, Control_c, 0, 64, 90
1, 159831, Control_c, 0, 64, 90
1, 159875, Note_on_c, 0, 91, 83
1, 159893, Note_off_c, 0, 93, 59
1, 159923, Note_off_c, 0, 91, 62
1, 160048, Note_on_c, 0, 88, 71
1, 160149, Control_c, 0, 64, 89
1, 160164, Control_c, 0, 64, 88
1, 160179, Control_c, 0, 64, 87
1, 160188, Note_off_c, 0, 69, 54
1, 160194, Control_c, 0, 64, 86
1, 160206, Note_off_c, 0, 76, 54
1, 160209, Control_c, 0, 64, 85
1, 160217, Note_on_c, 0, 85, 73
1, 160223, Control_c, 0, 64, 82
1, 160238, Control_c, 0, 64, 77
1, 160244, Note_off_c, 0, 88, 60
1, 160253, Control_c, 0, 64, 73
1, 160268, Control_c, 0, 64, 70
1, 160283, Control_c, 0, 64, 67
1, 160297, Control_c, 0, 64, 67
1, 160328, Control_c, 0, 64, 66
1, 160343, Control_c, 0, 64, 66
1, 160358, Control_c, 0, 64, 65
1, 160366, Note_on_c, 0, 81, 71
1, 160372, Control_c, 0, 64, 64
1, 160387, Control_c, 0, 64, 64
1, 160396, Note_off_c, 0, 85, 45
1, 160402, Control_c, 0, 64, 63
1, 160447, Control_c, 0, 64, 63
1, 160532, Note_on_c, 0, 79, 64
1, 160574, Note_off_c, 0, 81, 53
1, 160580, Control_c, 0, 64, 62
1, 160654, Control_c, 0, 64, 62
1, 160699, Note_on_c, 0, 77, 53
1, 160731, Note_off_c, 0, 79, 37
1, 160887, Note_on_c, 0, 89, 57
1, 160891, Note_on_c, 0, 86, 44
1, 160891, Note_on_c, 0, 76, 50
1, 160903, Note_on_c, 0, 81, 50
1, 160926, Note_off_c, 0, 77, 35
1, 161062, Control_c, 0, 64, 63
1, 161077, Control_c, 0, 64, 66
1, 161082, Note_off_c, 0, 76, 47
1, 161092, Control_c, 0, 64, 69
1, 161094, Note_on_c, 0, 74, 50
1, 161107, Control_c, 0, 64, 73
1, 161123, Control_c, 0, 64, 79
1, 161138, Control_c, 0, 64, 84
1, 161153, Control_c, 0, 64, 86
1, 161168, Control_c, 0, 64, 87
1, 161171, Note_off_c, 0, 86, 52
1, 161179, Note_off_c, 0, 81, 36
1, 161183, Control_c, 0, 64, 88
1, 161189, Note_off_c, 0, 89, 36
1, 161197, Control_c, 0, 64, 90
1, 161212, Control_c, 0, 64, 91
1, 161227, Control_c, 0, 64, 91
1, 161369, Note_off_c, 0, 74, 39
1, 161377, Note_on_c, 0, 71, 41
1, 161387, Note_on_c, 0, 91, 67
1, 161389, Control_c, 0, 64, 90
1, 161390, Note_on_c, 0, 77, 40
1, 161396, Note_on_c, 0, 86, 48
1, 161397, Note_on_c, 0, 79, 53
1, 161404, Control_c, 0, 64, 89
1, 161419, Control_c, 0, 64, 85
1, 161442, Control_c, 0, 64, 79
1, 161457, Control_c, 0, 64, 69
1, 161471, Control_c, 0, 64, 61
1, 161486, Control_c, 0, 64, 57
1, 161501, Control_c, 0, 64, 57
1, 161530, Control_c, 0, 64, 57
1, 161536, Note_off_c, 0, 77, 48
1, 161545, Control_c, 0, 64, 60
1, 161560, Control_c, 0, 64, 64
1, 161575, Control_c, 0, 64, 67
1, 161585, Note_on_c, 0, 76, 46
1, 161589, Control_c, 0, 64, 69
1, 161604, Control_c, 0, 64, 73
1, 161619, Control_c, 0, 64, 77
1, 161634, Control_c, 0, 64, 80
1, 161649, Control_c, 0, 64, 80
1, 161653, Note_off_c, 0, 76, 53
1, 161663, Note_on_c, 0, 77, 46
1, 161663, Control_c, 0, 64, 81
1, 161678, Control_c, 0, 64, 82
1, 161693, Control_c, 0, 64, 84
1, 161707, Control_c, 0, 64, 85
1, 161722, Control_c, 0, 64, 85
1, 161737, Control_c, 0, 64, 86
1, 161748, Note_off_c, 0, 77, 52
1, 161786, Note_on_c, 0, 76, 35
1, 161818, Note_off_c, 0, 76, 51
1, 161824, Note_on_c, 0, 77, 46
1, 161878, Note_off_c, 0, 77, 53
1, 161908, Note_on_c, 0, 76, 61
1, 161915, Control_c, 0, 64, 85
1, 161929, Control_c, 0, 64, 85
1, 161944, Control_c, 0, 64, 84
1, 161946, Note_off_c, 0, 76, 62
1, 161959, Control_c, 0, 64, 83
1, 161972, Note_on_c, 0, 77, 52
1, 161974, Control_c, 0, 64, 83
1, 161989, Control_c, 0, 64, 82
1, 162018, Control_c, 0, 64, 82
1, 162024, Note_off_c, 0, 77, 50
1, 162043, Note_on_c, 0, 76, 56
1, 162063, Control_c, 0, 64, 81
1, 162085, Note_off_c, 0, 76, 56
1, 162113, Note_on_c, 0, 77, 56
1, 162152, Control_c, 0, 64, 81
1, 162161, Note_off_c, 0, 77, 52
1, 162173, Note_on_c, 0, 76, 54
1, 162189, Control_c, 0, 64, 80
1, 162204, Control_c, 0, 64, 78
1, 162218, Control_c, 0, 64, 76
1, 162233, Control_c, 0, 64, 73
1, 162236, Note_off_c, 0, 76, 52
1, 162248, Control_c, 0, 64, 69
1, 162251, Note_on_c, 0, 77, 52
1, 162263, Control_c, 0, 64, 66
1, 162278, Control_c, 0, 64, 64
1, 162292, Control_c, 0, 64, 63
1, 162309, Note_off_c, 0, 79, 37
1, 162336, Control_c, 0, 64, 63
1, 162351, Control_c, 0, 64, 62
1, 162366, Control_c, 0, 64, 61
1, 162381, Control_c, 0, 64, 60
1, 162383, Note_off_c, 0, 86, 56
1, 162418, Note_off_c, 0, 91, 54
1, 162676, Note_on_c, 0, 98, 55
1, 162944, Note_on_c, 0, 95, 73
1, 163036, Note_off_c, 0, 98, 44
1, 163132, Note_on_c, 0, 91, 82
1, 163166, Note_off_c, 0, 95, 57
1, 163234, Control_c, 0, 64, 62
1, 163249, Control_c, 0, 64, 66
1, 163263, Control_c, 0, 64, 70
1, 163278, Control_c, 0, 64, 75
1, 163293, Control_c, 0, 64, 81
1, 163302, Note_on_c, 0, 89, 81
1, 163308, Control_c, 0, 64, 85
1, 163317, Note_off_c, 0, 91, 62
1, 163323, Control_c, 0, 64, 86
1, 163338, Control_c, 0, 64, 87
1, 163352, Note_off_c, 0, 89, 60
1, 163353, Control_c, 0, 64, 87
1, 163367, Control_c, 0, 64, 88
1, 163463, Note_on_c, 0, 86, 76
1, 163501, Control_c, 0, 64, 87
1, 163516, Control_c, 0, 64, 85
1, 163531, Control_c, 0, 64, 80
1, 163546, Control_c, 0, 64, 74
1, 163556, Note_off_c, 0, 77, 38
1, 163561, Control_c, 0, 64, 67
1, 163575, Control_c, 0, 64, 62
1, 163590, Control_c, 0, 64, 61
1, 163621, Note_on_c, 0, 83, 78
1, 163637, Note_off_c, 0, 71, 54
1, 163637, Note_off_c, 0, 86, 58
1, 163664, Control_c, 0, 64, 61
1, 163687, Control_c, 0, 64, 60
1, 163731, Control_c, 0, 64, 60
1, 163781, Note_on_c, 0, 79, 65
1, 163785, Note_off_c, 0, 83, 55
1, 163941, Note_on_c, 0, 77, 53
1, 164021, Note_off_c, 0, 79, 37
1, 164116, Note_on_c, 0, 76, 49
1, 164184, Note_off_c, 0, 77, 33
1, 164272, Note_on_c, 0, 88, 54
1, 164289, Note_on_c, 0, 79, 46
1, 164292, Note_on_c, 0, 74, 50
1, 164292, Note_on_c, 0, 84, 52
1, 164371, Note_off_c, 0, 76, 35
1, 164450, Control_c, 0, 64, 62
1, 164465, Control_c, 0, 64, 66
1, 164468, Note_off_c, 0, 74, 53
1, 164480, Control_c, 0, 64, 69
1, 164490, Note_on_c, 0, 72, 45
1, 164495, Control_c, 0, 64, 74
1, 164509, Control_c, 0, 64, 79
1, 164524, Control_c, 0, 64, 84
1, 164539, Control_c, 0, 64, 87
1, 164548, Note_off_c, 0, 79, 52
1, 164551, Note_off_c, 0, 88, 36
1, 164554, Control_c, 0, 64, 89
1, 164560, Note_off_c, 0, 84, 34
1, 164569, Control_c, 0, 64, 90
1, 164584, Control_c, 0, 64, 91
1, 164599, Control_c, 0, 64, 92
1, 164613, Control_c, 0, 64, 92
1, 164628, Control_c, 0, 64, 93
1, 164691, Note_off_c, 0, 72, 36
1, 164764, Note_on_c, 0, 68, 43
1, 164766, Note_on_c, 0, 74, 44
1, 164775, Note_on_c, 0, 77, 44
1, 164776, Control_c, 0, 64, 92
1, 164783, Note_on_c, 0, 89, 58
1, 164784, Note_on_c, 0, 86, 48
1, 164791, Control_c, 0, 64, 89
1, 164805, Control_c, 0, 64, 86
1, 164820, Control_c, 0, 64, 81
1, 164835, Control_c, 0, 64, 73
1, 164842, Poly_aftertouch_c, 0, 80, 127
1, 164850, Control_c, 0, 64, 66
1, 164864, Control_c, 0, 64, 62
1, 164879, Control_c, 0, 64, 59
1, 164894, Control_c, 0, 64, 58
1, 164909, Control_c, 0, 64, 57
1, 164960, Note_off_c, 0, 77, 39
1, 164969, Control_c, 0, 64, 58
1, 164983, Note_on_c, 0, 76, 53
1, 164983, Control_c, 0, 64, 61
1, 164998, Control_c, 0, 64, 65
1, 165013, Control_c, 0, 64, 68
1, 165028, Control_c, 0, 64, 73
1, 165043, Control_c, 0, 64, 79
1, 165057, Control_c, 0, 64, 82
1, 165071, Note_off_c, 0, 76, 56
1, 165088, Note_on_c, 0, 77, 47
1, 165103, Control_c, 0, 64, 82
1, 165157, Note_off_c, 0, 77, 52
1, 165169, Note_on_c, 0, 76, 50
1, 165214, Control_c, 0, 64, 82
1, 165228, Control_c, 0, 64, 81
1, 165234, Note_off_c, 0, 76, 52
1, 165243, Control_c, 0, 64, 79
1, 165252, Note_on_c, 0, 77, 49
1, 165258, Control_c, 0, 64, 77
1, 165273, Control_c, 0, 64, 73
1, 165287, Control_c, 0, 64, 68
1, 165302, Control_c, 0, 64, 64
1, 165317, Control_c, 0, 64, 63
1, 165321, Note_on_c, 0, 76, 49
1, 165322, Note_off_c, 0, 77, 52
1, 165332, Control_c, 0, 64, 62
1, 165377, Control_c, 0, 64, 62
1, 165394, Note_off_c, 0, 76, 51
1, 165399, Note_on_c, 0, 77, 42
1, 165407, Control_c, 0, 64, 61
1, 165422, Control_c, 0, 64, 61
1, 165463, Note_on_c, 0, 76, 36
1, 165472, Note_off_c, 0, 77, 48
1, 165558, Note_off_c, 0, 76, 54
1, 165562, Note_on_c, 0, 77, 43
1, 165653, Note_off_c, 0, 89, 42
1, 165668, Poly_aftertouch_c, 0, 80, 0
1, 165672, Note_off_c, 0, 86, 38
1, 165964, Note_on_c, 0, 86, 41
1, 166096, Control_c, 0, 64, 60
1, 166208, Note_on_c, 0, 83, 65
1, 166262, Note_off_c, 0, 77, 41
1, 166268, Note_off_c, 0, 74, 39
1, 166325, Note_off_c, 0, 68, 57
1, 166394, Note_on_c, 0, 81, 75
1, 166430, Note_off_c, 0, 86, 21
1, 166447, Note_off_c, 0, 83, 55
1, 166575, Note_on_c, 0, 80, 72
1, 166646, Note_off_c, 0, 81, 36
1, 166726, Note_off_c, 0, 80, 58
1, 166740, Note_on_c, 0, 76, 52
1, 166885, Note_off_c, 0, 76, 53
1, 166918, Note_on_c, 0, 88, 50
1, 166922, Note_on_c, 0, 74, 53
1, 166924, Note_on_c, 0, 80, 47
1, 166933, Control_c, 0, 64, 61
1, 166948, Control_c, 0, 64, 65
1, 166963, Control_c, 0, 64, 68
1, 166978, Control_c, 0, 64, 73
1, 166993, Control_c, 0, 64, 77
1, 167007, Control_c, 0, 64, 80
1, 167022, Control_c, 0, 64, 81
1, 167037, Control_c, 0, 64, 81
1, 167052, Note_off_c, 0, 80, 36
1, 167061, Note_off_c, 0, 88, 36
1, 167074, Note_on_c, 0, 71, 59
1, 167106, Note_off_c, 0, 74, 34
1, 167126, Control_c, 0, 64, 82
1, 167133, Note_off_c, 0, 71, 58
1, 167240, Note_on_c, 0, 88, 74
1, 167241, Note_on_c, 0, 81, 67
1, 167244, Note_on_c, 0, 72, 67
1, 167244, Control_c, 0, 64, 80
1, 167259, Control_c, 0, 64, 77
1, 167274, Control_c, 0, 64, 70
1, 167289, Control_c, 0, 64, 65
1, 167304, Control_c, 0, 64, 62
1, 167318, Control_c, 0, 64, 61
1, 167367, Note_off_c, 0, 81, 56
1, 167368, Note_off_c, 0, 88, 51
1, 167395, Note_on_c, 0, 76, 63
1, 167401, Note_off_c, 0, 72, 53
1, 167551, Note_on_c, 0, 81, 53
1, 167578, Note_on_c, 0, 88, 64
1, 167580, Note_on_c, 0, 85, 65
1, 167639, Note_off_c, 0, 76, 36
1, 167660, Note_off_c, 0, 88, 53
1, 167677, Note_off_c, 0, 85, 57
1, 167718, Note_off_c, 0, 81, 51
1, 167722, Note_on_c, 0, 79, 55
1, 167891, Note_off_c, 0, 79, 52
1, 167913, Note_on_c, 0, 77, 49
1, 167919, Note_on_c, 0, 89, 62
1, 167926, Note_on_c, 0, 86, 50
1, 167935, Control_c, 0, 64, 62
1, 167949, Control_c, 0, 64, 64
1, 167964, Control_c, 0, 64, 68
1, 167979, Control_c, 0, 64, 72
1, 167981, Note_off_c, 0, 89, 57
1, 167994, Control_c, 0, 64, 79
1, 167995, Note_off_c, 0, 77, 48
1, 168008, Note_off_c, 0, 86, 58
1, 168009, Control_c, 0, 64, 82
1, 168024, Control_c, 0, 64, 83
1, 168087, Note_on_c, 0, 86, 57
1, 168113, Control_c, 0, 64, 83
1, 168128, Control_c, 0, 64, 81
1, 168142, Control_c, 0, 64, 78
1, 168157, Control_c, 0, 64, 71
1, 168179, Control_c, 0, 64, 64
1, 168194, Control_c, 0, 64, 60
1, 168209, Control_c, 0, 64, 57
1, 168224, Control_c, 0, 64, 56
1, 168239, Control_c, 0, 64, 55
1, 168253, Control_c, 0, 64, 53
1, 168257, Note_off_c, 0, 86, 46
1, 168268, Control_c, 0, 64, 52
1, 168273, Note_on_c, 0, 83, 55
1, 168283, Control_c, 0, 64, 49
1, 168298, Control_c, 0, 64, 47
1, 168313, Control_c, 0, 64, 46
1, 168388, Control_c, 0, 64, 48
1, 168403, Control_c, 0, 64, 56
1, 168417, Control_c, 0, 64, 63
1, 168432, Control_c, 0, 64, 67
1, 168447, Control_c, 0, 64, 70
1, 168462, Control_c, 0, 64, 73
1, 168471, Note_on_c, 0, 81, 60
1, 168477, Control_c, 0, 64, 76
1, 168483, Note_off_c, 0, 83, 60
1, 168492, Control_c, 0, 64, 78
1, 168498, Note_off_c, 0, 81, 67
1, 168505, Control_c, 0, 64, 80
1, 168520, Control_c, 0, 64, 81
1, 168535, Control_c, 0, 64, 83
1, 168550, Control_c, 0, 64, 83
1, 168623, Control_c, 0, 64, 84
1, 168692, Note_on_c, 0, 76, 50
1, 168694, Note_on_c, 0, 86, 43
1, 168715, Note_on_c, 0, 80, 52
1, 168727, Control_c, 0, 64, 83
1, 168742, Control_c, 0, 64, 81
1, 168757, Control_c, 0, 64, 77
1, 168772, Control_c, 0, 64, 71
1, 168787, Control_c, 0, 64, 64
1, 168802, Control_c, 0, 64, 61
1, 168817, Control_c, 0, 64, 59
1, 168863, Note_off_c, 0, 86, 37
1, 168865, Note_off_c, 0, 80, 49
1, 168876, Control_c, 0, 64, 58
1, 168891, Control_c, 0, 64, 57
1, 168897, Note_on_c, 0, 95, 63
1, 168905, Control_c, 0, 64, 57
1, 168927, Control_c, 0, 64, 56
1, 168937, Note_off_c, 0, 76, 44
1, 169122, Note_on_c, 0, 92, 58
1, 169122, Note_off_c, 0, 95, 48
1, 169372, Note_on_c, 0, 88, 51
1, 169376, Note_off_c, 0, 92, 54
1, 169684, Note_on_c, 0, 92, 52
1, 169712, Note_on_c, 0, 81, 38
1, 169721, Note_on_c, 0, 84, 37
1, 169726, Note_on_c, 0, 93, 59
1, 169729, Note_off_c, 0, 88, 37
1, 169931, Note_off_c, 0, 92, 18
1, 170048, Control_c, 0, 64, 57
1, 170063, Control_c, 0, 64, 58
1, 170077, Control_c, 0, 64, 60
1, 170092, Control_c, 0, 64, 62
1, 170107, Control_c, 0, 64, 64
1, 170122, Control_c, 0, 64, 66
1, 170126, Note_off_c, 0, 84, 35
1, 170137, Control_c, 0, 64, 68
1, 170151, Control_c, 0, 64, 71
1, 170166, Control_c, 0, 64, 74
1, 170181, Control_c, 0, 64, 77
1, 170195, Control_c, 0, 64, 79
1, 170210, Control_c, 0, 64, 81
1, 170220, Note_off_c, 0, 81, 56
1, 170225, Control_c, 0, 64, 82
1, 170240, Control_c, 0, 64, 83
1, 170255, Control_c, 0, 64, 84
1, 170269, Control_c, 0, 64, 85
1, 170284, Control_c, 0, 64, 86
1, 170299, Control_c, 0, 64, 87
1, 170343, Control_c, 0, 64, 88
1, 170785, Note_on_c, 0, 81, 45
1, 170834, Note_off_c, 0, 93, 29
1, 170923, Note_off_c, 0, 81, 36
1, 170945, Control_c, 0, 64, 87
1, 171049, Control_c, 0, 64, 87
1, 171093, Control_c, 0, 64, 86
1, 171123, Control_c, 0, 64, 86
1, 171138, Control_c, 0, 64, 85
1, 171153, Control_c, 0, 64, 85
1, 171190, Control_c, 0, 64, 84
1, 171205, Control_c, 0, 64, 84
1, 171219, Control_c, 0, 64, 83
1, 171234, Control_c, 0, 64, 82
1, 171249, Control_c, 0, 64, 82
1, 171264, Control_c, 0, 64, 81
1, 171279, Control_c, 0, 64, 81
1, 171294, Control_c, 0, 64, 80
1, 171308, Control_c, 0, 64, 79
1, 171323, Control_c, 0, 64, 78
1, 171338, Control_c, 0, 64, 76
1, 171352, Control_c, 0, 64, 74
1, 171367, Control_c, 0, 64, 71
1, 171382, Control_c, 0, 64, 68
1, 171397, Control_c, 0, 64, 65
1, 171412, Control_c, 0, 64, 63
1, 171426, Control_c, 0, 64, 61
1, 171441, Control_c, 0, 64, 57
1, 171456, Control_c, 0, 64, 52
1, 171471, Control_c, 0, 64, 42
1, 171486, Control_c, 0, 64, 20
1, 171502, Control_c, 0, 64, 0
1, 171887, Control_c, 0, 64, 37
1, 171902, Control_c, 0, 64, 55
1, 171910, Note_on_c, 0, 40, 68
1, 171923, Control_c, 0, 64, 61
1, 171938, Control_c, 0, 64, 63
1, 171953, Control_c, 0, 64, 64
1, 171961, Note_on_c, 0, 42, 72
1, 171968, Control_c, 0, 64, 64
1, 171983, Control_c, 0, 64, 65
1, 171998, Control_c, 0, 64, 66
1, 172005, Note_on_c, 0, 44, 88
1, 172012, Control_c, 0, 64, 69
1, 172027, Note_off_c, 0, 40, 59
1, 172027, Control_c, 0, 64, 72
1, 172042, Control_c, 0, 64, 77
1, 172045, Note_off_c, 0, 42, 63
1, 172054, Note_off_c, 0, 44, 62
1, 172057, Control_c, 0, 64, 80
1, 172072, Control_c, 0, 64, 75
1, 172087, Control_c, 0, 64, 40
1, 172102, Control_c, 0, 64, 0
1, 172102, Note_on_c, 0, 45, 100
1, 172104, Note_on_c, 0, 33, 94
1, 172156, Note_off_c, 0, 33, 64
1, 172161, Control_c, 0, 64, 18
1, 172173, Note_off_c, 0, 45, 59
1, 172175, Control_c, 0, 64, 65
1, 172188, Poly_aftertouch_c, 0, 62, 0
1, 172190, Control_c, 0, 64, 83
1, 172203, Note_on_c, 0, 52, 69
1, 172205, Control_c, 0, 64, 99
1, 172220, Control_c, 0, 64, 105
1, 172244, Note_off_c, 0, 52, 59
1, 172245, Note_on_c, 0, 57, 66
1, 172293, Note_on_c, 0, 60, 66
1, 172305, Note_off_c, 0, 57, 0
1, 172314, Note_on_c, 0, 57, 67
1, 172319, Note_on_c, 0, 64, 67
1, 172337, Note_off_c, 0, 60, 56
1, 172345, Note_off_c, 0, 64, 65
1, 172349, Note_off_c, 0, 57, 58
1, 172351, Note_on_c, 0, 62, 18
1, 172395, Note_on_c, 0, 64, 67
1, 172395, Note_off_c, 0, 62, 44
1, 172398, Control_c, 0, 64, 105
1, 172413, Control_c, 0, 64, 106
1, 172428, Control_c, 0, 64, 109
1, 172443, Control_c, 0, 64, 111
1, 172464, Note_on_c, 0, 69, 79
1, 172472, Control_c, 0, 64, 96
1, 172473, Note_off_c, 0, 64, 54
1, 172487, Control_c, 0, 64, 69
1, 172502, Control_c, 0, 64, 49
1, 172517, Control_c, 0, 64, 36
1, 172519, Note_on_c, 0, 72, 73
1, 172522, Note_on_c, 0, 36, 90
1, 172525, Note_on_c, 0, 48, 96
1, 172543, Note_on_c, 0, 76, 76
1, 172543, Note_off_c, 0, 69, 62
1, 172546, Note_off_c, 0, 36, 68
1, 172546, Control_c, 0, 64, 52
1, 172561, Control_c, 0, 64, 68
1, 172566, Note_on_c, 0, 74, 45
1, 172569, Note_off_c, 0, 48, 64
1, 172571, Note_off_c, 0, 72, 61
1, 172576, Control_c, 0, 64, 78
1, 172579, Note_off_c, 0, 76, 58
1, 172591, Control_c, 0, 64, 93
1, 172594, Note_off_c, 0, 74, 52
1, 172606, Control_c, 0, 64, 102
1, 172609, Note_on_c, 0, 76, 74
1, 172621, Control_c, 0, 64, 103
1, 172686, Note_on_c, 0, 81, 80
1, 172687, Control_c, 0, 64, 103
1, 172702, Control_c, 0, 64, 104
1, 172704, Note_off_c, 0, 76, 58
1, 172717, Control_c, 0, 64, 104
1, 172719, Note_on_c, 0, 84, 72
1, 172727, Note_on_c, 0, 60, 92
1, 172737, Note_on_c, 0, 88, 77
1, 172745, Note_off_c, 0, 81, 63
1, 172761, Control_c, 0, 64, 105
1, 172762, Note_off_c, 0, 84, 61
1, 172764, Note_off_c, 0, 60, 60
1, 172776, Note_off_c, 0, 88, 57
1, 172800, Note_on_c, 0, 88, 74
1, 172805, Control_c, 0, 64, 106
1, 172820, Control_c, 0, 64, 110
1, 172835, Control_c, 0, 64, 116
1, 172850, Control_c, 0, 64, 127
1, 172863, Note_on_c, 0, 93, 84
1, 172895, Control_c, 0, 64, 91
1, 172904, Note_off_c, 0, 88, 56
1, 172910, Control_c, 0, 64, 65
1, 172920, Note_off_c, 0, 93, 62
1, 172922, Note_on_c, 0, 98, 87
1, 172922, Note_on_c, 0, 100, 93
1, 172925, Control_c, 0, 64, 42
1, 172927, Note_on_c, 0, 47, 109
1, 172929, Note_on_c, 0, 35, 92
1, 172939, Control_c, 0, 64, 34
1, 172954, Control_c, 0, 64, 40
1, 172961, Note_off_c, 0, 35, 62
1, 172969, Control_c, 0, 64, 61
1, 172978, Note_off_c, 0, 47, 62
1, 172984, Control_c, 0, 64, 74
1, 172989, Note_off_c, 0, 100, 65
1, 172997, Control_c, 0, 64, 91
1, 173003, Note_on_c, 0, 92, 85
1, 173012, Control_c, 0, 64, 111
1, 173017, Note_off_c, 0, 98, 65
1, 173020, Note_on_c, 0, 88, 82
1, 173027, Control_c, 0, 64, 118
1, 173048, Note_off_c, 0, 92, 64
1, 173071, Note_off_c, 0, 88, 62
1, 173071, Control_c, 0, 64, 118
1, 173124, Note_on_c, 0, 59, 95
1, 173130, Note_on_c, 0, 88, 68
1, 173131, Note_on_c, 0, 86, 79
1, 173168, Note_off_c, 0, 59, 61
1, 173177, Note_on_c, 0, 80, 74
1, 173191, Control_c, 0, 64, 119
1, 173206, Control_c, 0, 64, 122
1, 173220, Control_c, 0, 64, 127
1, 173228, Note_off_c, 0, 88, 61
1, 173240, Note_off_c, 0, 86, 61
1, 173246, Note_on_c, 0, 76, 83
1, 173274, Note_off_c, 0, 80, 61
1, 173280, Control_c, 0, 64, 103
1, 173284, Note_off_c, 0, 76, 64
1, 173294, Control_c, 0, 64, 72
1, 173309, Control_c, 0, 64, 43
1, 173324, Control_c, 0, 64, 26
1, 173326, Note_on_c, 0, 45, 114
1, 173327, Note_on_c, 0, 33, 99
1, 173339, Note_on_c, 0, 72, 81
1, 173339, Control_c, 0, 64, 36
1, 173344, Note_on_c, 0, 76, 63
1, 173354, Control_c, 0, 64, 61
1, 173356, Note_off_c, 0, 33, 67
1, 173367, Note_off_c, 0, 45, 61
1, 173369, Control_c, 0, 64, 76
1, 173384, Control_c, 0, 64, 94
1, 173389, Note_on_c, 0, 71, 64
1, 173399, Control_c, 0, 64, 127
1, 173434, Note_off_c, 0, 76, 51
1, 173443, Note_off_c, 0, 72, 36
1, 173450, Note_on_c, 0, 64, 71
1, 173453, Note_off_c, 0, 71, 62
1, 173476, Note_off_c, 0, 64, 65
1, 173529, Note_on_c, 0, 57, 96
1, 173539, Note_on_c, 0, 64, 75
1, 173546, Note_on_c, 0, 60, 74
1, 173560, Note_off_c, 0, 57, 68
1, 173586, Note_off_c, 0, 60, 55
1, 173588, Note_off_c, 0, 64, 61
1, 173732, Control_c, 0, 64, 78
1, 173746, Control_c, 0, 64, 29
1, 173761, Control_c, 0, 64, 0
1, 173779, Note_on_c, 0, 59, 78
1, 173783, Note_on_c, 0, 56, 105
1, 173788, Note_on_c, 0, 64, 83
1, 173812, Note_on_c, 0, 63, 51
1, 173813, Note_off_c, 0, 63, 127
1, 173820, Control_c, 0, 64, 66
1, 173828, Note_off_c, 0, 56, 65
1, 173835, Control_c, 0, 64, 107
1, 173836, Note_off_c, 0, 59, 63
1, 173850, Control_c, 0, 64, 127
1, 173861, Note_off_c, 0, 64, 64
1, 173904, Note_on_c, 0, 32, 78
1, 173968, Note_on_c, 0, 35, 74
1, 173999, Note_on_c, 0, 82, 55
1, 174072, Note_off_c, 0, 82, 59
1, 174085, Note_on_c, 0, 40, 81
1, 174087, Note_off_c, 0, 35, 58
1, 174098, Note_on_c, 0, 88, 96
1, 174099, Note_on_c, 0, 76, 97
1, 174102, Note_on_c, 0, 80, 91
1, 174122, Note_off_c, 0, 32, 37
1, 174123, Note_on_c, 0, 83, 71
1, 174126, Note_on_c, 0, 84, 64
1, 174129, Note_off_c, 0, 40, 60
1, 174150, Note_off_c, 0, 84, 66
1, 174153, Note_off_c, 0, 76, 63
1, 174181, Note_off_c, 0, 80, 60
1, 174188, Note_off_c, 0, 83, 63
1, 174191, Note_off_c, 0, 88, 62
1, 174217, Note_on_c, 0, 44, 80
1, 174258, Note_on_c, 0, 47, 72
1, 174308, Note_off_c, 0, 44, 59
1, 174320, Note_off_c, 0, 47, 58
1, 174323, Note_on_c, 0, 52, 65
1, 174326, Note_on_c, 0, 53, 79
1, 174345, Note_off_c, 0, 52, 63
1, 174354, Note_off_c, 0, 53, 63
1, 174430, Note_on_c, 0, 55, 60
1, 174431, Note_on_c, 0, 56, 58
1, 174436, Note_on_c, 0, 54, 50
1, 174451, Note_on_c, 0, 59, 72
1, 174499, Note_off_c, 0, 55, 53
1, 174509, Note_on_c, 0, 83, 105
1, 174510, Note_on_c, 0, 91, 104
1, 174510, Note_off_c, 0, 54, 56
1, 174510, Note_off_c, 0, 56, 0
1, 174511, Note_on_c, 0, 79, 102
1, 174512, Note_on_c, 0, 86, 92
1, 174530, Note_on_c, 0, 65, 86
1, 174537, Note_on_c, 0, 64, 66
1, 174543, Note_off_c, 0, 59, 58
1, 174555, Note_off_c, 0, 65, 63
1, 174556, Note_off_c, 0, 64, 64
1, 174561, Poly_aftertouch_c, 0, 56, 0
1, 174625, Note_on_c, 0, 68, 86
1, 174669, Note_on_c, 0, 71, 70
1, 174717, Note_on_c, 0, 76, 80
1, 174729, Note_off_c, 0, 71, 60
1, 174733, Note_off_c, 0, 68, 56
1, 174737, Note_off_c, 0, 91, 54
1, 174769, Note_on_c, 0, 74, 15
1, 174780, Note_off_c, 0, 86, 56
1, 174781, Note_off_c, 0, 83, 56
1, 174785, Note_off_c, 0, 79, 55
1, 174793, Note_off_c, 0, 76, 63
1, 174799, Note_on_c, 0, 71, 67
1, 174816, Note_off_c, 0, 74, 49
1, 174824, Note_on_c, 0, 72, 35
1, 174839, Note_on_c, 0, 68, 77
1, 174842, Note_off_c, 0, 71, 62
1, 174853, Note_off_c, 0, 72, 55
1, 174857, Note_off_c, 0, 68, 66
1, 174922, Note_on_c, 0, 83, 88
1, 174923, Note_on_c, 0, 89, 85
1, 174925, Note_on_c, 0, 77, 91
1, 174925, Note_on_c, 0, 86, 74
1, 174926, Note_on_c, 0, 64, 83
1, 174984, Note_off_c, 0, 86, 62
1, 174986, Note_off_c, 0, 64, 60
1, 174989, Note_on_c, 0, 59, 75
1, 174997, Note_off_c, 0, 83, 62
1, 175003, Note_off_c, 0, 89, 54
1, 175027, Note_off_c, 0, 77, 56
1, 175045, Note_on_c, 0, 56, 68
1, 175045, Note_off_c, 0, 59, 61
1, 175078, Note_off_c, 0, 56, 65
1, 175131, Note_on_c, 0, 52, 81
1, 175184, Note_on_c, 0, 47, 80
1, 175185, Note_off_c, 0, 52, 61
1, 175245, Note_on_c, 0, 44, 75
1, 175250, Note_off_c, 0, 47, 61
1, 175274, Note_off_c, 0, 44, 64
1, 175302, Note_on_c, 0, 88, 79
1, 175309, Note_on_c, 0, 80, 86
1, 175309, Note_on_c, 0, 83, 87
1, 175310, Note_on_c, 0, 76, 86
1, 175337, Note_on_c, 0, 40, 77
1, 175347, Note_off_c, 0, 88, 62
1, 175366, Note_off_c, 0, 83, 61
1, 175379, Note_off_c, 0, 80, 61
1, 175381, Note_off_c, 0, 76, 59
1, 175390, Note_on_c, 0, 35, 71
1, 175410, Note_off_c, 0, 40, 56
1, 175446, Note_on_c, 0, 32, 64
1, 175465, Note_off_c, 0, 35, 60
1, 175477, Note_off_c, 0, 32, 62
1, 175557, Control_c, 0, 64, 68
1, 175572, Control_c, 0, 64, 0
1, 175581, Note_on_c, 0, 45, 103
1, 175584, Note_on_c, 0, 33, 93
1, 175631, Control_c, 0, 64, 40
1, 175633, Note_off_c, 0, 33, 64
1, 175637, Note_off_c, 0, 45, 55
1, 175646, Control_c, 0, 64, 71
1, 175668, Control_c, 0, 64, 93
1, 175676, Note_on_c, 0, 52, 71
1, 175683, Control_c, 0, 64, 127
1, 175715, Note_off_c, 0, 52, 61
1, 175715, Note_on_c, 0, 57, 67
1, 175748, Note_on_c, 0, 60, 60
1, 175772, Note_on_c, 0, 64, 57
1, 175776, Note_off_c, 0, 57, 61
1, 175798, Note_off_c, 0, 60, 55
1, 175805, Note_off_c, 0, 64, 63
1, 175811, Note_on_c, 0, 57, 78
1, 175847, Note_off_c, 0, 57, 65
1, 175855, Note_on_c, 0, 64, 73
1, 175923, Note_on_c, 0, 69, 80
1, 175928, Note_off_c, 0, 64, 57
1, 175977, Note_on_c, 0, 72, 70
1, 175979, Control_c, 0, 64, 77
1, 175992, Control_c, 0, 64, 46
1, 176005, Note_off_c, 0, 69, 64
1, 176007, Control_c, 0, 64, 0
1, 176009, Note_on_c, 0, 76, 79
1, 176010, Note_on_c, 0, 48, 110
1, 176015, Note_on_c, 0, 36, 94
1, 176037, Control_c, 0, 64, 27
1, 176040, Note_off_c, 0, 72, 62
1, 176048, Note_on_c, 0, 74, 24
1, 176048, Note_off_c, 0, 76, 59
1, 176049, Note_off_c, 0, 36, 61
1, 176052, Control_c, 0, 64, 64
1, 176056, Note_off_c, 0, 48, 62
1, 176066, Control_c, 0, 64, 84
1, 176074, Note_on_c, 0, 76, 76
1, 176081, Control_c, 0, 64, 127
1, 176085, Note_off_c, 0, 74, 31
1, 176144, Note_on_c, 0, 81, 83
1, 176161, Note_off_c, 0, 76, 58
1, 176174, Note_on_c, 0, 84, 76
1, 176192, Note_on_c, 0, 88, 77
1, 176195, Note_off_c, 0, 81, 63
1, 176205, Note_on_c, 0, 60, 98
1, 176220, Note_off_c, 0, 84, 62
1, 176236, Note_off_c, 0, 88, 62
1, 176242, Note_off_c, 0, 60, 63
1, 176261, Note_on_c, 0, 88, 78
1, 176317, Note_on_c, 0, 93, 86
1, 176378, Control_c, 0, 64, 92
1, 176381, Note_off_c, 0, 88, 58
1, 176390, Note_off_c, 0, 93, 60
1, 176391, Note_on_c, 0, 100, 93
1, 176393, Control_c, 0, 64, 60
1, 176395, Note_on_c, 0, 98, 89
1, 176415, Control_c, 0, 64, 0
1, 176418, Note_on_c, 0, 47, 104
1, 176422, Note_on_c, 0, 35, 95
1, 176445, Note_off_c, 0, 35, 70
1, 176445, Control_c, 0, 64, 33
1, 176460, Control_c, 0, 64, 66
1, 176466, Note_off_c, 0, 47, 65
1, 176474, Note_on_c, 0, 92, 91
1, 176475, Control_c, 0, 64, 89
1, 176483, Note_off_c, 0, 100, 66
1, 176490, Control_c, 0, 64, 127
1, 176496, Note_off_c, 0, 98, 65
1, 176499, Note_on_c, 0, 88, 84
1, 176530, Note_off_c, 0, 92, 64
1, 176543, Note_off_c, 0, 88, 63
1, 176595, Note_on_c, 0, 59, 98
1, 176606, Note_on_c, 0, 86, 73
1, 176609, Note_on_c, 0, 88, 78
1, 176636, Note_off_c, 0, 59, 65
1, 176652, Note_on_c, 0, 80, 73
1, 176703, Note_off_c, 0, 88, 60
1, 176716, Note_on_c, 0, 76, 83
1, 176719, Note_off_c, 0, 86, 57
1, 176750, Note_off_c, 0, 80, 60
1, 176766, Note_off_c, 0, 76, 62
1, 176785, Control_c, 0, 64, 81
1, 176800, Control_c, 0, 64, 50
1, 176805, Note_on_c, 0, 45, 110
1, 176807, Note_on_c, 0, 33, 94
1, 176815, Note_on_c, 0, 76, 66
1, 176815, Control_c, 0, 64, 0
1, 176820, Note_on_c, 0, 72, 79
1, 176836, Note_off_c, 0, 33, 64
1, 176844, Control_c, 0, 64, 56
1, 176850, Note_off_c, 0, 45, 62
1, 176850, Note_on_c, 0, 71, 75
1, 176859, Control_c, 0, 64, 75
1, 176873, Note_off_c, 0, 72, 59
1, 176874, Control_c, 0, 64, 105
1, 176886, Note_off_c, 0, 76, 62
1, 176889, Control_c, 0, 64, 127
1, 176903, Note_on_c, 0, 64, 76
1, 176910, Note_off_c, 0, 71, 61
1, 176931, Note_off_c, 0, 64, 60
1, 176994, Note_on_c, 0, 57, 97
1, 177004, Note_on_c, 0, 64, 74
1, 177011, Note_on_c, 0, 60, 73
1, 177031, Note_off_c, 0, 57, 65
1, 177044, Note_off_c, 0, 60, 58
1, 177049, Note_on_c, 0, 62, 15
1, 177059, Note_off_c, 0, 64, 60
1, 177096, Note_off_c, 0, 62, 50
1, 177208, Control_c, 0, 64, 88
1, 177223, Control_c, 0, 64, 48
1, 177238, Control_c, 0, 64, 0
1, 177240, Note_on_c, 0, 52, 104
1, 177244, Note_on_c, 0, 47, 97
1, 177244, Note_on_c, 0, 56, 97
1, 177245, Note_on_c, 0, 59, 88
1, 177247, Note_on_c, 0, 40, 90
1, 177252, Note_on_c, 0, 64, 88
1, 177276, Note_on_c, 0, 63, 41
1, 177298, Control_c, 0, 64, 66
1, 177306, Note_off_c, 0, 59, 62
1, 177308, Note_off_c, 0, 56, 62
1, 177312, Control_c, 0, 64, 96
1, 177312, Note_off_c, 0, 52, 62
1, 177318, Note_off_c, 0, 63, 31
1, 177325, Note_off_c, 0, 40, 61
1, 177327, Control_c, 0, 64, 127
1, 177333, Note_off_c, 0, 47, 61
1, 177335, Note_off_c, 0, 64, 58
1, 177357, Poly_aftertouch_c, 0, 58, 0
1, 177474, Note_on_c, 0, 52, 77
1, 177476, Note_on_c, 0, 64, 71
1, 177479, Note_on_c, 0, 76, 73
1, 177504, Note_off_c, 0, 64, 60
1, 177507, Note_off_c, 0, 76, 60
1, 177525, Note_off_c, 0, 52, 60
1, 177596, Note_on_c, 0, 65, 78
1, 177599, Note_on_c, 0, 53, 78
1, 177599, Note_on_c, 0, 77, 79
1, 177634, Note_off_c, 0, 65, 59
1, 177646, Note_off_c, 0, 77, 57
1, 177668, Note_off_c, 0, 53, 52
1, 177694, Note_on_c, 0, 54, 81
1, 177698, Control_c, 0, 64, 110
1, 177707, Note_on_c, 0, 66, 81
1, 177710, Note_on_c, 0, 78, 80
1, 177712, Control_c, 0, 64, 72
1, 177727, Control_c, 0, 64, 55
1, 177742, Control_c, 0, 64, 52
1, 177744, Note_off_c, 0, 66, 63
1, 177757, Control_c, 0, 64, 57
1, 177759, Note_off_c, 0, 54, 62
1, 177768, Note_off_c, 0, 78, 58
1, 177772, Control_c, 0, 64, 69
1, 177781, Note_on_c, 0, 55, 80
1, 177786, Control_c, 0, 64, 84
1, 177801, Control_c, 0, 64, 127
1, 177805, Note_on_c, 0, 79, 80
1, 177806, Note_on_c, 0, 67, 79
1, 177840, Note_off_c, 0, 67, 56
1, 177844, Note_off_c, 0, 55, 60
1, 177852, Note_off_c, 0, 79, 55
1, 177888, Note_on_c, 0, 56, 81
1, 177910, Note_on_c, 0, 68, 84
1, 177919, Note_on_c, 0, 80, 75
1, 177948, Note_off_c, 0, 80, 59
1, 177956, Note_off_c, 0, 56, 62
1, 177959, Note_off_c, 0, 68, 56
1, 177986, Note_on_c, 0, 57, 81
1, 178004, Note_on_c, 0, 69, 90
1, 178004, Note_on_c, 0, 81, 92
1, 178033, Note_on_c, 0, 80, 43
1, 178045, Note_off_c, 0, 69, 60
1, 178048, Note_off_c, 0, 57, 61
1, 178048, Note_off_c, 0, 81, 60
1, 178061, Note_off_c, 0, 80, 52
1, 178087, Note_on_c, 0, 58, 81
1, 178096, Note_on_c, 0, 70, 87
1, 178106, Note_on_c, 0, 82, 81
1, 178118, Note_on_c, 0, 69, 64
1, 178132, Note_off_c, 0, 69, 71
1, 178149, Note_off_c, 0, 70, 58
1, 178151, Note_off_c, 0, 82, 60
1, 178166, Note_off_c, 0, 58, 59
1, 178177, Note_on_c, 0, 59, 81
1, 178186, Note_on_c, 0, 83, 79
1, 178191, Note_on_c, 0, 71, 92
1, 178213, Note_on_c, 0, 82, 32
1, 178229, Note_off_c, 0, 71, 60
1, 178236, Note_off_c, 0, 59, 61
1, 178236, Note_off_c, 0, 83, 64
1, 178245, Note_off_c, 0, 82, 53
1, 178283, Note_on_c, 0, 60, 87
1, 178284, Note_on_c, 0, 72, 95
1, 178290, Note_on_c, 0, 84, 88
1, 178314, Note_off_c, 0, 84, 52
1, 178324, Note_off_c, 0, 72, 64
1, 178346, Note_off_c, 0, 60, 59
1, 178371, Note_on_c, 0, 61, 87
1, 178380, Note_on_c, 0, 73, 97
1, 178384, Note_on_c, 0, 85, 91
1, 178426, Note_off_c, 0, 73, 63
1, 178430, Note_off_c, 0, 61, 62
1, 178435, Note_off_c, 0, 85, 63
1, 178465, Note_on_c, 0, 62, 83
1, 178466, Note_on_c, 0, 86, 72
1, 178469, Note_on_c, 0, 74, 96
1, 178481, Note_on_c, 0, 85, 48
1, 178502, Note_off_c, 0, 85, 61
1, 178511, Note_off_c, 0, 74, 61
1, 178522, Note_off_c, 0, 86, 62
1, 178525, Note_off_c, 0, 62, 59
1, 178561, Note_on_c, 0, 63, 91
1, 178571, Note_on_c, 0, 75, 95
1, 178573, Note_on_c, 0, 87, 93
1, 178600, Note_on_c, 0, 88, 44
1, 178613, Note_off_c, 0, 75, 65
1, 178623, Note_off_c, 0, 87, 62
1, 178624, Note_off_c, 0, 88, 58
1, 178627, Note_off_c, 0, 63, 62
1, 178666, Note_on_c, 0, 64, 94
1, 178674, Note_on_c, 0, 76, 98
1, 178686, Note_on_c, 0, 88, 85
1, 178696, Note_on_c, 0, 89, 69
1, 178705, Note_on_c, 0, 87, 53
1, 178713, Note_off_c, 0, 89, 67
1, 178719, Note_off_c, 0, 76, 64
1, 178726, Note_off_c, 0, 87, 60
1, 178729, Note_off_c, 0, 88, 63
1, 178730, Note_off_c, 0, 64, 62
1, 178757, Note_on_c, 0, 65, 90
1, 178776, Note_on_c, 0, 77, 85
1, 178777, Note_on_c, 0, 89, 102
1, 178823, Note_off_c, 0, 89, 64
1, 178824, Note_off_c, 0, 77, 63
1, 178825, Note_on_c, 0, 87, 19
1, 178826, Note_off_c, 0, 87, 127
1, 178838, Note_off_c, 0, 65, 60
1, 178866, Note_on_c, 0, 64, 90
1, 178878, Note_on_c, 0, 88, 97
1, 178879, Note_on_c, 0, 76, 110
1, 178889, Note_on_c, 0, 89, 87
1, 178890, Note_off_c, 0, 89, 127
1, 178898, Note_off_c, 0, 64, 64
1, 178915, Note_on_c, 0, 87, 31
1, 178920, Note_off_c, 0, 76, 64
1, 178925, Note_off_c, 0, 88, 67
1, 178946, Note_off_c, 0, 87, 55
1, 178964, Note_on_c, 0, 89, 31
1, 178992, Note_off_c, 0, 89, 56
1, 179128, Note_on_c, 0, 40, 66
1, 179189, Note_on_c, 0, 42, 72
1, 179222, Note_on_c, 0, 44, 87
1, 179238, Note_off_c, 0, 40, 58
1, 179262, Note_off_c, 0, 42, 62
1, 179268, Note_off_c, 0, 44, 61
1, 179269, Control_c, 0, 64, 117
1, 179283, Control_c, 0, 64, 70
1, 179298, Control_c, 0, 64, 0
1, 179314, Note_on_c, 0, 45, 99
1, 179316, Note_on_c, 0, 33, 93
1, 179360, Note_off_c, 0, 33, 63
1, 179372, Control_c, 0, 64, 65
1, 179373, Note_on_c, 0, 52, 68
1, 179380, Note_off_c, 0, 45, 61
1, 179387, Control_c, 0, 64, 87
1, 179397, Note_on_c, 0, 57, 64
1, 179400, Note_off_c, 0, 52, 64
1, 179410, Control_c, 0, 64, 127
1, 179442, Note_on_c, 0, 60, 71
1, 179469, Note_off_c, 0, 57, 62
1, 179471, Note_on_c, 0, 64, 68
1, 179494, Note_off_c, 0, 60, 57
1, 179500, Note_off_c, 0, 64, 60
1, 179530, Note_on_c, 0, 57, 77
1, 179551, Poly_aftertouch_c, 0, 62, 127
1, 179552, Note_on_c, 0, 64, 69
1, 179560, Note_on_c, 0, 55, 34
1, 179562, Note_off_c, 0, 57, 64
1, 179589, Poly_aftertouch_c, 0, 62, 0
1, 179594, Note_off_c, 0, 55, 52
1, 179623, Note_on_c, 0, 69, 79
1, 179631, Note_off_c, 0, 64, 59
1, 179671, Note_on_c, 0, 72, 69
1, 179677, Control_c, 0, 64, 107
1, 179692, Control_c, 0, 64, 69
1, 179700, Note_off_c, 0, 69, 63
1, 179706, Control_c, 0, 64, 31
1, 179709, Note_on_c, 0, 76, 74
1, 179719, Note_on_c, 0, 48, 102
1, 179720, Note_on_c, 0, 36, 98
1, 179721, Control_c, 0, 64, 0
1, 179735, Note_off_c, 0, 72, 62
1, 179740, Note_on_c, 0, 74, 35
1, 179745, Note_off_c, 0, 36, 66
1, 179751, Note_off_c, 0, 76, 61
1, 179751, Control_c, 0, 64, 45
1, 179766, Control_c, 0, 64, 70
1, 179769, Note_off_c, 0, 48, 66
1, 179774, Note_off_c, 0, 74, 44
1, 179775, Note_on_c, 0, 76, 75
1, 179781, Control_c, 0, 64, 85
1, 179796, Control_c, 0, 64, 127
1, 179850, Note_on_c, 0, 81, 72
1, 179857, Note_on_c, 0, 79, 70
1, 179862, Note_off_c, 0, 76, 58
1, 179873, Note_off_c, 0, 79, 67
1, 179882, Note_on_c, 0, 84, 69
1, 179900, Note_on_c, 0, 88, 78
1, 179909, Note_on_c, 0, 60, 94
1, 179912, Note_off_c, 0, 81, 63
1, 179928, Note_on_c, 0, 83, 14
1, 179929, Note_off_c, 0, 84, 62
1, 179943, Note_off_c, 0, 88, 60
1, 179954, Note_off_c, 0, 60, 60
1, 179972, Note_on_c, 0, 88, 78
1, 179976, Note_off_c, 0, 83, 48
1, 180030, Note_on_c, 0, 93, 82
1, 180077, Control_c, 0, 64, 88
1, 180092, Control_c, 0, 64, 60
1, 180093, Note_off_c, 0, 88, 44
1, 180097, Note_on_c, 0, 98, 84
1, 180097, Note_on_c, 0, 100, 89
1, 180097, Note_off_c, 0, 93, 63
1, 180106, Control_c, 0, 64, 0
1, 180115, Note_on_c, 0, 47, 96
1, 180115, Note_on_c, 0, 48, 96
1, 180120, Note_on_c, 0, 36, 86
1, 180123, Note_on_c, 0, 35, 81
1, 180136, Control_c, 0, 64, 43
1, 180157, Note_off_c, 0, 35, 61
1, 180157, Note_off_c, 0, 36, 65
1, 180159, Control_c, 0, 64, 68
1, 180174, Control_c, 0, 64, 84
1, 180175, Note_off_c, 0, 48, 62
1, 180178, Note_off_c, 0, 47, 61
1, 180180, Note_on_c, 0, 92, 86
1, 180183, Note_off_c, 0, 100, 65
1, 180188, Control_c, 0, 64, 127
1, 180194, Note_on_c, 0, 88, 86
1, 180195, Note_off_c, 0, 98, 65
1, 180225, Note_off_c, 0, 92, 64
1, 180243, Note_off_c, 0, 88, 63
1, 180299, Note_on_c, 0, 59, 100
1, 180301, Note_on_c, 0, 88, 67
1, 180302, Note_on_c, 0, 86, 81
1, 180334, Note_off_c, 0, 59, 64
1, 180346, Note_on_c, 0, 80, 75
1, 180389, Note_on_c, 0, 81, 65
1, 180407, Note_off_c, 0, 88, 53
1, 180413, Note_on_c, 0, 76, 82
1, 180420, Note_off_c, 0, 86, 58
1, 180428, Note_off_c, 0, 81, 58
1, 180447, Note_off_c, 0, 80, 54
1, 180463, Note_off_c, 0, 76, 64
1, 180486, Control_c, 0, 64, 77
1, 180501, Control_c, 0, 64, 45
1, 180504, Note_on_c, 0, 45, 106
1, 180506, Note_on_c, 0, 33, 93
1, 180516, Control_c, 0, 64, 0
1, 180517, Note_on_c, 0, 76, 74
1, 180523, Note_on_c, 0, 72, 80
1, 180532, Note_off_c, 0, 33, 68
1, 180545, Control_c, 0, 64, 51
1, 180551, Note_off_c, 0, 45, 63
1, 180555, Note_on_c, 0, 71, 69
1, 180560, Control_c, 0, 64, 74
1, 180575, Control_c, 0, 64, 95
1, 180585, Note_off_c, 0, 76, 59
1, 180590, Control_c, 0, 64, 127
1, 180605, Note_on_c, 0, 64, 78
1, 180619, Note_off_c, 0, 71, 62
1, 180625, Note_off_c, 0, 72, 36
1, 180652, Note_off_c, 0, 64, 57
1, 180687, Note_on_c, 0, 57, 96
1, 180702, Note_on_c, 0, 64, 64
1, 180712, Note_on_c, 0, 60, 74
1, 180724, Note_off_c, 0, 57, 67
1, 180731, Note_on_c, 0, 62, 34
1, 180746, Note_off_c, 0, 60, 57
1, 180767, Note_off_c, 0, 62, 51
1, 180767, Note_off_c, 0, 64, 57
1, 180908, Control_c, 0, 64, 84
1, 180923, Control_c, 0, 64, 48
1, 180937, Control_c, 0, 64, 0
1, 180952, Note_on_c, 0, 56, 97
1, 180952, Note_on_c, 0, 59, 88
1, 180954, Note_on_c, 0, 64, 80
1, 180982, Control_c, 0, 64, 59
1, 180992, Note_on_c, 0, 58, 37
1, 180993, Note_off_c, 0, 58, 127
1, 180997, Control_c, 0, 64, 83
1, 180998, Note_off_c, 0, 56, 64
1, 181004, Note_off_c, 0, 59, 60
1, 181012, Control_c, 0, 64, 127
1, 181033, Note_off_c, 0, 64, 63
1, 181053, Note_on_c, 0, 32, 80
1, 181122, Note_on_c, 0, 35, 79
1, 181171, Note_off_c, 0, 32, 49
1, 181235, Note_on_c, 0, 88, 93
1, 181240, Note_on_c, 0, 83, 68
1, 181242, Note_on_c, 0, 76, 87
1, 181244, Note_on_c, 0, 80, 74
1, 181247, Note_on_c, 0, 40, 77
1, 181254, Note_off_c, 0, 35, 58
1, 181273, Note_on_c, 0, 38, 42
1, 181283, Note_off_c, 0, 76, 63
1, 181289, Note_off_c, 0, 40, 61
1, 181302, Note_off_c, 0, 80, 62
1, 181308, Note_off_c, 0, 38, 50
1, 181311, Note_off_c, 0, 83, 62
1, 181315, Note_on_c, 0, 85, 8
1, 181322, Note_off_c, 0, 88, 62
1, 181360, Note_on_c, 0, 44, 76
1, 181364, Note_off_c, 0, 85, 52
1, 181404, Note_on_c, 0, 47, 73
1, 181440, Note_off_c, 0, 44, 59
1, 181453, Note_on_c, 0, 52, 81
1, 181466, Note_off_c, 0, 47, 56
1, 181485, Note_off_c, 0, 52, 60
1, 181542, Note_on_c, 0, 56, 90
1, 181584, Note_on_c, 0, 59, 75
1, 181627, Note_on_c, 0, 83, 100
1, 181629, Note_on_c, 0, 86, 88
1, 181630, Note_on_c, 0, 91, 101
1, 181632, Note_on_c, 0, 79, 96
1, 181639, Note_off_c, 0, 56, 60
1, 181653, Note_on_c, 0, 64, 82
1, 181665, Note_off_c, 0, 59, 60
1, 181685, Note_on_c, 0, 62, 24
1, 181687, Note_off_c, 0, 64, 59
1, 181727, Note_off_c, 0, 62, 47
1, 181742, Note_on_c, 0, 68, 90
1, 181766, Note_on_c, 0, 71, 80
1, 181806, Note_on_c, 0, 69, 6
1, 181826, Note_off_c, 0, 68, 62
1, 181832, Note_on_c, 0, 76, 89
1, 181843, Note_off_c, 0, 71, 58
1, 181851, Note_off_c, 0, 69, 39
1, 181861, Note_off_c, 0, 91, 42
1, 181885, Note_off_c, 0, 86, 49
1, 181891, Note_off_c, 0, 79, 49
1, 181897, Note_off_c, 0, 83, 55
1, 181902, Note_off_c, 0, 76, 62
1, 181907, Note_on_c, 0, 71, 66
1, 181942, Note_on_c, 0, 68, 75
1, 181958, Note_off_c, 0, 71, 63
1, 181978, Note_off_c, 0, 68, 65
1, 182026, Note_on_c, 0, 83, 86
1, 182028, Note_on_c, 0, 89, 87
1, 182028, Note_on_c, 0, 77, 97
1, 182030, Note_on_c, 0, 86, 80
1, 182034, Note_on_c, 0, 64, 82
1, 182096, Note_off_c, 0, 64, 59
1, 182109, Note_on_c, 0, 59, 76
1, 182114, Note_off_c, 0, 86, 59
1, 182124, Note_off_c, 0, 83, 60
1, 182124, Note_off_c, 0, 89, 51
1, 182161, Note_on_c, 0, 56, 69
1, 182161, Note_off_c, 0, 77, 50
1, 182162, Note_off_c, 0, 59, 61
1, 182193, Note_off_c, 0, 56, 65
1, 182240, Note_on_c, 0, 52, 81
1, 182303, Note_on_c, 0, 47, 76
1, 182306, Note_off_c, 0, 52, 59
1, 182356, Note_on_c, 0, 44, 72
1, 182367, Note_off_c, 0, 47, 58
1, 182395, Note_off_c, 0, 44, 62
1, 182444, Note_on_c, 0, 88, 75
1, 182450, Note_on_c, 0, 83, 80
1, 182452, Note_on_c, 0, 76, 85
1, 182452, Note_on_c, 0, 80, 85
1, 182460, Note_on_c, 0, 40, 70
1, 182491, Note_off_c, 0, 88, 59
1, 182500, Note_off_c, 0, 83, 63
1, 182506, Note_on_c, 0, 35, 71
1, 182520, Note_off_c, 0, 80, 58
1, 182523, Note_off_c, 0, 76, 59
1, 182544, Note_off_c, 0, 40, 52
1, 182556, Note_on_c, 0, 32, 61
1, 182571, Note_off_c, 0, 35, 60
1, 182599, Note_off_c, 0, 32, 61
1, 182700, Note_on_c, 0, 45, 103
1, 182703, Control_c, 0, 64, 69
1, 182704, Note_on_c, 0, 33, 97
1, 182718, Control_c, 0, 64, 0
1, 182767, Note_off_c, 0, 33, 59
1, 182777, Control_c, 0, 64, 53
1, 182788, Note_on_c, 0, 52, 73
1, 182792, Control_c, 0, 64, 82
1, 182806, Control_c, 0, 64, 127
1, 182809, Note_off_c, 0, 45, 58
1, 182815, Note_off_c, 0, 52, 65
1, 182821, Note_on_c, 0, 57, 65
1, 182853, Note_on_c, 0, 60, 63
1, 182881, Note_off_c, 0, 57, 62
1, 182882, Note_on_c, 0, 64, 65
1, 182908, Note_off_c, 0, 60, 57
1, 182914, Note_off_c, 0, 64, 59
1, 182930, Note_on_c, 0, 57, 76
1, 182956, Poly_aftertouch_c, 0, 62, 127
1, 182963, Note_on_c, 0, 64, 72
1, 182966, Note_off_c, 0, 57, 61
1, 183003, Poly_aftertouch_c, 0, 62, 0
1, 183032, Note_on_c, 0, 69, 78
1, 183047, Note_off_c, 0, 64, 56
1, 183051, Poly_aftertouch_c, 0, 55, 0
1, 183085, Note_on_c, 0, 72, 73
1, 183103, Control_c, 0, 64, 70
1, 183117, Control_c, 0, 64, 28
1, 183119, Note_off_c, 0, 69, 64
1, 183125, Note_on_c, 0, 36, 92
1, 183125, Note_on_c, 0, 48, 105
1, 183125, Note_on_c, 0, 76, 71
1, 183132, Control_c, 0, 64, 0
1, 183152, Note_on_c, 0, 74, 43
1, 183160, Note_off_c, 0, 72, 63
1, 183169, Note_off_c, 0, 36, 58
1, 183170, Control_c, 0, 64, 30
1, 183172, Note_off_c, 0, 76, 57
1, 183181, Note_off_c, 0, 74, 52
1, 183185, Control_c, 0, 64, 65
1, 183187, Note_off_c, 0, 48, 62
1, 183198, Note_on_c, 0, 76, 73
1, 183200, Control_c, 0, 64, 81
1, 183214, Control_c, 0, 64, 127
1, 183271, Note_on_c, 0, 81, 83
1, 183301, Note_off_c, 0, 76, 53
1, 183303, Note_on_c, 0, 84, 79
1, 183326, Note_on_c, 0, 88, 78
1, 183331, Note_on_c, 0, 60, 97
1, 183332, Note_off_c, 0, 81, 64
1, 183353, Note_off_c, 0, 84, 62
1, 183362, Note_off_c, 0, 88, 58
1, 183376, Note_off_c, 0, 60, 60
1, 183397, Note_on_c, 0, 88, 83
1, 183460, Note_on_c, 0, 93, 87
1, 183526, Control_c, 0, 64, 77
1, 183527, Note_off_c, 0, 88, 58
1, 183531, Note_on_c, 0, 98, 91
1, 183531, Note_on_c, 0, 100, 94
1, 183531, Note_off_c, 0, 93, 61
1, 183539, Note_on_c, 0, 47, 106
1, 183541, Control_c, 0, 64, 51
1, 183543, Note_on_c, 0, 35, 100
1, 183555, Control_c, 0, 64, 24
1, 183570, Note_off_c, 0, 35, 63
1, 183570, Control_c, 0, 64, 35
1, 183585, Control_c, 0, 64, 61
1, 183590, Note_off_c, 0, 47, 62
1, 183600, Control_c, 0, 64, 78
1, 183608, Note_on_c, 0, 92, 88
1, 183612, Note_off_c, 0, 100, 64
1, 183615, Control_c, 0, 64, 119
1, 183629, Note_off_c, 0, 98, 65
1, 183629, Control_c, 0, 64, 127
1, 183632, Note_on_c, 0, 88, 85
1, 183665, Note_off_c, 0, 92, 65
1, 183678, Note_off_c, 0, 88, 62
1, 183718, Note_on_c, 0, 59, 96
1, 183744, Note_on_c, 0, 88, 68
1, 183747, Note_on_c, 0, 86, 75
1, 183760, Note_off_c, 0, 59, 64
1, 183784, Note_on_c, 0, 80, 81
1, 183831, Note_off_c, 0, 88, 59
1, 183841, Note_off_c, 0, 86, 60
1, 183859, Note_on_c, 0, 74, 80
1, 183859, Note_on_c, 0, 76, 63
1, 183875, Note_off_c, 0, 80, 62
1, 183888, Note_off_c, 0, 74, 59
1, 183891, Note_off_c, 0, 76, 64
1, 183918, Control_c, 0, 64, 71
1, 183933, Control_c, 0, 64, 17
1, 183938, Note_on_c, 0, 45, 112
1, 183942, Note_on_c, 0, 33, 97
1, 183947, Note_on_c, 0, 76, 69
1, 183948, Control_c, 0, 64, 0
1, 183954, Note_on_c, 0, 72, 78
1, 183963, Control_c, 0, 64, 23
1, 183972, Note_off_c, 0, 33, 66
1, 183978, Control_c, 0, 64, 62
1, 183984, Note_on_c, 0, 71, 73
1, 183987, Note_off_c, 0, 45, 60
1, 183993, Control_c, 0, 64, 80
1, 184008, Control_c, 0, 64, 116
1, 184012, Note_off_c, 0, 76, 60
1, 184022, Control_c, 0, 64, 127
1, 184031, Note_off_c, 0, 72, 58
1, 184040, Note_on_c, 0, 64, 76
1, 184052, Note_off_c, 0, 71, 61
1, 184086, Note_off_c, 0, 64, 57
1, 184130, Note_on_c, 0, 57, 93
1, 184134, Note_on_c, 0, 64, 61
1, 184148, Note_on_c, 0, 60, 71
1, 184169, Note_off_c, 0, 57, 64
1, 184190, Note_off_c, 0, 64, 60
1, 184192, Note_off_c, 0, 60, 53
1, 184335, Control_c, 0, 64, 93
1, 184350, Control_c, 0, 64, 54
1, 184365, Control_c, 0, 64, 0
1, 184378, Note_on_c, 0, 47, 99
1, 184378, Note_on_c, 0, 52, 103
1, 184379, Note_on_c, 0, 59, 84
1, 184381, Note_on_c, 0, 56, 102
1, 184383, Note_on_c, 0, 40, 90
1, 184386, Note_on_c, 0, 64, 84
1, 184424, Control_c, 0, 64, 71
1, 184439, Control_c, 0, 64, 127
1, 184445, Note_off_c, 0, 59, 61
1, 184446, Note_off_c, 0, 56, 65
1, 184458, Note_off_c, 0, 52, 58
1, 184467, Note_off_c, 0, 40, 61
1, 184470, Note_off_c, 0, 47, 61
1, 184485, Note_off_c, 0, 64, 55
1, 184495, Poly_aftertouch_c, 0, 58, 0
1, 184601, Note_on_c, 0, 52, 80
1, 184604, Note_on_c, 0, 64, 79
1, 184610, Note_on_c, 0, 76, 72
1, 184631, Note_off_c, 0, 64, 63
1, 184636, Note_off_c, 0, 76, 61
1, 184666, Note_off_c, 0, 52, 53
1, 184731, Note_on_c, 0, 65, 72
1, 184737, Note_on_c, 0, 77, 76
1, 184739, Note_on_c, 0, 53, 82
1, 184761, Note_on_c, 0, 76, 47
1, 184776, Note_off_c, 0, 65, 59
1, 184777, Note_off_c, 0, 77, 57
1, 184783, Note_off_c, 0, 76, 59
1, 184799, Note_off_c, 0, 53, 58
1, 184844, Note_on_c, 0, 54, 72
1, 184849, Note_on_c, 0, 66, 74
1, 184849, Note_on_c, 0, 78, 76
1, 184870, Note_off_c, 0, 66, 69
1, 184881, Note_off_c, 0, 78, 54
1, 184896, Note_off_c, 0, 54, 61
1, 184922, Note_on_c, 0, 55, 78
1, 184938, Note_on_c, 0, 67, 83
1, 184940, Note_on_c, 0, 79, 82
1, 184966, Note_off_c, 0, 67, 56
1, 184968, Note_off_c, 0, 79, 55
1, 184976, Note_off_c, 0, 55, 60
1, 185032, Note_on_c, 0, 56, 79
1, 185033, Note_on_c, 0, 68, 82
1, 185039, Note_on_c, 0, 80, 78
1, 185066, Note_off_c, 0, 68, 56
1, 185066, Note_off_c, 0, 80, 59
1, 185092, Note_off_c, 0, 56, 61
1, 185120, Note_on_c, 0, 57, 85
1, 185122, Note_on_c, 0, 69, 90
1, 185123, Note_on_c, 0, 81, 90
1, 185161, Note_off_c, 0, 69, 59
1, 185167, Note_off_c, 0, 81, 57
1, 185174, Note_off_c, 0, 57, 64
1, 185216, Note_on_c, 0, 70, 96
1, 185221, Note_on_c, 0, 82, 89
1, 185223, Note_on_c, 0, 58, 82
1, 185245, Poly_aftertouch_c, 0, 71, 0
1, 185262, Note_off_c, 0, 70, 59
1, 185266, Note_on_c, 0, 83, 16
1, 185266, Note_off_c, 0, 82, 60
1, 185298, Note_off_c, 0, 58, 56
1, 185302, Note_on_c, 0, 59, 85
1, 185304, Note_off_c, 0, 83, 0
1, 185304, Note_on_c, 0, 83, 54
1, 185316, Note_on_c, 0, 71, 88
1, 185331, Note_on_c, 0, 82, 40
1, 185333, Note_on_c, 0, 72, 62
1, 185334, Note_off_c, 0, 71, 68
1, 185352, Note_off_c, 0, 72, 65
1, 185352, Note_off_c, 0, 83, 62
1, 185359, Note_off_c, 0, 59, 61
1, 185359, Note_off_c, 0, 82, 39
1, 185400, Note_on_c, 0, 60, 84
1, 185407, Note_on_c, 0, 84, 102
1, 185409, Note_on_c, 0, 72, 107
1, 185443, Note_off_c, 0, 84, 63
1, 185444, Note_off_c, 0, 72, 66
1, 185465, Note_off_c, 0, 60, 58
1, 185489, Note_on_c, 0, 61, 84
1, 185505, Note_on_c, 0, 73, 99
1, 185510, Note_on_c, 0, 85, 85
1, 185528, Note_on_c, 0, 86, 58
1, 185546, Note_off_c, 0, 73, 61
1, 185546, Note_off_c, 0, 86, 65
1, 185550, Note_off_c, 0, 61, 61
1, 185553, Note_off_c, 0, 85, 61
1, 185579, Note_on_c, 0, 62, 82
1, 185598, Note_on_c, 0, 74, 95
1, 185600, Note_on_c, 0, 86, 90
1, 185614, Note_on_c, 0, 88, 74
1, 185623, Note_on_c, 0, 87, 50
1, 185625, Note_on_c, 0, 76, 54
1, 185626, Note_off_c, 0, 76, 127
1, 185630, Note_off_c, 0, 88, 45
1, 185641, Note_off_c, 0, 74, 61
1, 185643, Note_off_c, 0, 86, 60
1, 185644, Note_off_c, 0, 87, 62
1, 185674, Note_on_c, 0, 63, 87
1, 185682, Note_off_c, 0, 62, 37
1, 185698, Note_on_c, 0, 75, 93
1, 185701, Note_on_c, 0, 87, 100
1, 185726, Note_on_c, 0, 88, 23
1, 185741, Note_off_c, 0, 75, 63
1, 185745, Note_off_c, 0, 87, 62
1, 185767, Note_off_c, 0, 88, 45
1, 185769, Note_on_c, 0, 64, 87
1, 185789, Note_on_c, 0, 76, 94
1, 185790, Note_on_c, 0, 88, 88
1, 185813, Note_off_c, 0, 63, 30
1, 185818, Note_on_c, 0, 77, 47
1, 185819, Note_off_c, 0, 77, 127
1, 185835, Note_off_c, 0, 76, 63
1, 185840, Note_on_c, 0, 87, 8
1, 185841, Note_off_c, 0, 87, 127
1, 185843, Note_off_c, 0, 88, 63
1, 185845, Note_off_c, 0, 64, 55
1, 185859, Note_on_c, 0, 65, 87
1, 185888, Note_on_c, 0, 77, 98
1, 185889, Note_on_c, 0, 89, 101
1, 185930, Note_off_c, 0, 89, 66
1, 185934, Note_off_c, 0, 77, 64
1, 185943, Note_on_c, 0, 79, 7
1, 185944, Note_off_c, 0, 79, 127
1, 185969, Note_on_c, 0, 64, 90
1, 185986, Note_on_c, 0, 88, 98
1, 185987, Note_on_c, 0, 76, 109
1, 185989, Note_off_c, 0, 65, 60
1, 185998, Poly_aftertouch_c, 0, 79, 0
1, 186005, Note_on_c, 0, 87, 71
1, 186010, Note_off_c, 0, 64, 65
1, 186025, Note_off_c, 0, 87, 66
1, 186025, Note_off_c, 0, 88, 68
1, 186035, Note_off_c, 0, 76, 64
1, 186255, Control_c, 0, 64, 94
1, 186257, Note_on_c, 0, 52, 84
1, 186257, Note_on_c, 0, 57, 89
1, 186263, Note_on_c, 0, 49, 88
1, 186270, Control_c, 0, 64, 52
1, 186284, Control_c, 0, 64, 0
1, 186288, Note_off_c, 0, 57, 62
1, 186301, Note_on_c, 0, 55, 27
1, 186302, Note_off_c, 0, 55, 127
1, 186306, Note_on_c, 0, 61, 69
1, 186323, Note_off_c, 0, 52, 61
1, 186329, Control_c, 0, 64, 48
1, 186343, Note_off_c, 0, 49, 63
1, 186343, Note_off_c, 0, 61, 62
1, 186344, Control_c, 0, 64, 73
1, 186349, Note_on_c, 0, 64, 60
1, 186358, Control_c, 0, 64, 90
1, 186373, Control_c, 0, 64, 127
1, 186392, Note_on_c, 0, 69, 74
1, 186410, Note_off_c, 0, 64, 58
1, 186421, Note_off_c, 0, 69, 65
1, 186434, Note_on_c, 0, 37, 85
1, 186474, Note_off_c, 0, 37, 59
1, 186495, Note_on_c, 0, 69, 77
1, 186559, Note_on_c, 0, 73, 71
1, 186566, Note_off_c, 0, 69, 61
1, 186631, Note_on_c, 0, 79, 81
1, 186634, Note_on_c, 0, 55, 74
1, 186639, Note_on_c, 0, 58, 98
1, 186650, Note_on_c, 0, 49, 87
1, 186651, Note_on_c, 0, 82, 86
1, 186653, Note_on_c, 0, 76, 16
1, 186661, Note_off_c, 0, 73, 63
1, 186675, Note_off_c, 0, 79, 63
1, 186686, Note_off_c, 0, 58, 60
1, 186687, Note_off_c, 0, 82, 64
1, 186690, Note_off_c, 0, 55, 63
1, 186696, Note_off_c, 0, 76, 52
1, 186721, Note_off_c, 0, 49, 61
1, 186744, Poly_aftertouch_c, 0, 77, 0
1, 186745, Note_on_c, 0, 82, 84
1, 186804, Note_on_c, 0, 85, 78
1, 186828, Note_off_c, 0, 82, 60
1, 186830, Note_on_c, 0, 43, 81
1, 186846, Note_on_c, 0, 94, 85
1, 186863, Note_on_c, 0, 45, 53
1, 186880, Note_off_c, 0, 43, 56
1, 186902, Note_off_c, 0, 45, 52
1, 186935, Note_on_c, 0, 82, 87
1, 186971, Note_off_c, 0, 94, 63
1, 186977, Note_off_c, 0, 85, 62
1, 187009, Note_off_c, 0, 82, 64
1, 187026, Note_on_c, 0, 57, 94
1, 187030, Note_on_c, 0, 93, 93
1, 187030, Note_on_c, 0, 89, 91
1, 187033, Control_c, 0, 64, 82
1, 187035, Note_on_c, 0, 53, 86
1, 187036, Note_on_c, 0, 49, 91
1, 187048, Control_c, 0, 64, 58
1, 187051, Note_on_c, 0, 91, 65
1, 187063, Control_c, 0, 64, 43
1, 187074, Note_off_c, 0, 57, 63
1, 187078, Control_c, 0, 64, 46
1, 187090, Note_on_c, 0, 85, 79
1, 187093, Note_off_c, 0, 53, 59
1, 187093, Control_c, 0, 64, 65
1, 187102, Note_off_c, 0, 93, 53
1, 187107, Control_c, 0, 64, 82
1, 187120, Note_off_c, 0, 89, 61
1, 187122, Control_c, 0, 64, 121
1, 187125, Note_on_c, 0, 81, 75
1, 187126, Note_on_c, 0, 79, 78
1, 187129, Note_off_c, 0, 49, 61
1, 187137, Control_c, 0, 64, 127
1, 187149, Note_off_c, 0, 81, 66
1, 187149, Note_off_c, 0, 85, 64
1, 187153, Note_off_c, 0, 79, 60
1, 187156, Note_off_c, 0, 91, 43
1, 187216, Note_on_c, 0, 37, 73
1, 187220, Note_on_c, 0, 81, 84
1, 187229, Note_on_c, 0, 35, 50
1, 187244, Note_on_c, 0, 77, 50
1, 187246, Note_on_c, 0, 72, 63
1, 187248, Note_on_c, 0, 36, 32
1, 187251, Note_on_c, 0, 74, 68
1, 187256, Note_off_c, 0, 37, 61
1, 187258, Note_off_c, 0, 35, 55
1, 187266, Note_off_c, 0, 77, 58
1, 187291, Note_off_c, 0, 36, 44
1, 187303, Note_on_c, 0, 69, 74
1, 187316, Note_off_c, 0, 81, 61
1, 187332, Note_on_c, 0, 71, 40
1, 187334, Note_off_c, 0, 74, 58
1, 187357, Note_off_c, 0, 72, 60
1, 187361, Note_off_c, 0, 71, 35
1, 187379, Note_off_c, 0, 69, 63
1, 187388, Control_c, 0, 64, 91
1, 187397, Note_on_c, 0, 79, 86
1, 187397, Note_on_c, 0, 76, 89
1, 187400, Note_on_c, 0, 52, 29
1, 187403, Control_c, 0, 64, 64
1, 187414, Note_on_c, 0, 55, 80
1, 187415, Note_on_c, 0, 53, 77
1, 187418, Control_c, 0, 64, 44
1, 187422, Note_on_c, 0, 49, 80
1, 187428, Note_on_c, 0, 78, 54
1, 187433, Control_c, 0, 64, 43
1, 187448, Control_c, 0, 64, 55
1, 187449, Note_off_c, 0, 78, 59
1, 187459, Note_on_c, 0, 70, 84
1, 187462, Control_c, 0, 64, 71
1, 187468, Note_off_c, 0, 79, 61
1, 187478, Control_c, 0, 64, 90
1, 187479, Note_on_c, 0, 69, 86
1, 187486, Note_off_c, 0, 76, 63
1, 187493, Control_c, 0, 64, 127
1, 187516, Note_off_c, 0, 69, 66
1, 187518, Note_off_c, 0, 70, 61
1, 187546, Note_on_c, 0, 45, 81
1, 187558, Note_off_c, 0, 53, 39
1, 187572, Note_off_c, 0, 49, 57
1, 187580, Note_on_c, 0, 67, 81
1, 187581, Note_off_c, 0, 52, 32
1, 187585, Note_off_c, 0, 55, 37
1, 187592, Note_off_c, 0, 45, 59
1, 187594, Note_on_c, 0, 64, 53
1, 187600, Note_on_c, 0, 60, 76
1, 187618, Note_off_c, 0, 64, 58
1, 187669, Note_on_c, 0, 38, 76
1, 187670, Note_on_c, 0, 57, 77
1, 187680, Note_off_c, 0, 60, 49
1, 187688, Note_on_c, 0, 36, 49
1, 187689, Note_off_c, 0, 36, 127
1, 187720, Poly_aftertouch_c, 0, 36, 0
1, 187722, Control_c, 0, 64, 113
1, 187731, Note_off_c, 0, 57, 58
1, 187732, Note_off_c, 0, 38, 60
1, 187737, Control_c, 0, 64, 72
1, 187752, Control_c, 0, 64, 48
1, 187766, Note_on_c, 0, 62, 87
1, 187767, Control_c, 0, 64, 28
1, 187769, Note_on_c, 0, 65, 86
1, 187776, Note_on_c, 0, 53, 94
1, 187782, Control_c, 0, 64, 30
1, 187796, Control_c, 0, 64, 59
1, 187808, Note_on_c, 0, 52, 28
1, 187811, Control_c, 0, 64, 75
1, 187814, Note_off_c, 0, 62, 59
1, 187826, Note_off_c, 0, 53, 61
1, 187826, Note_off_c, 0, 65, 64
1, 187826, Control_c, 0, 64, 92
1, 187832, Note_off_c, 0, 67, 25
1, 187841, Control_c, 0, 64, 127
1, 187845, Note_off_c, 0, 52, 50
1, 187957, Note_on_c, 0, 67, 69
1, 187964, Note_on_c, 0, 55, 77
1, 187973, Note_on_c, 0, 73, 69
1, 187975, Note_on_c, 0, 64, 70
1, 187977, Note_on_c, 0, 58, 68
1, 188001, Note_off_c, 0, 64, 65
1, 188004, Control_c, 0, 64, 101
1, 188008, Note_off_c, 0, 58, 61
1, 188008, Note_off_c, 0, 67, 59
1, 188014, Note_off_c, 0, 55, 52
1, 188019, Control_c, 0, 64, 78
1, 188023, Note_on_c, 0, 74, 62
1, 188034, Control_c, 0, 64, 61
1, 188048, Control_c, 0, 64, 37
1, 188063, Control_c, 0, 64, 0
1, 188069, Note_off_c, 0, 73, 60
1, 188074, Note_on_c, 0, 76, 66
1, 188092, Note_off_c, 0, 74, 61
1, 188100, Note_off_c, 0, 76, 67
1, 188152, Control_c, 0, 64, 19
1, 188156, Note_on_c, 0, 65, 81
1, 188157, Note_on_c, 0, 57, 74
1, 188157, Note_on_c, 0, 62, 77
1, 188158, Note_on_c, 0, 74, 73
1, 188166, Control_c, 0, 64, 59
1, 188173, Note_on_c, 0, 77, 71
1, 188181, Control_c, 0, 64, 69
1, 188184, Note_off_c, 0, 57, 63
1, 188193, Note_off_c, 0, 62, 57
1, 188196, Control_c, 0, 64, 77
1, 188211, Control_c, 0, 64, 86
1, 188214, Note_off_c, 0, 65, 52
1, 188221, Note_on_c, 0, 79, 66
1, 188224, Note_off_c, 0, 74, 55
1, 188226, Control_c, 0, 64, 89
1, 188240, Control_c, 0, 64, 90
1, 188255, Control_c, 0, 64, 91
1, 188263, Note_off_c, 0, 77, 60
1, 188264, Note_on_c, 0, 81, 68
1, 188271, Control_c, 0, 64, 93
1, 188282, Note_off_c, 0, 79, 61
1, 188286, Control_c, 0, 64, 96
1, 188288, Note_off_c, 0, 81, 68
1, 188301, Control_c, 0, 64, 97
1, 188343, Note_on_c, 0, 67, 77
1, 188345, Control_c, 0, 64, 96
1, 188347, Note_on_c, 0, 70, 77
1, 188349, Note_on_c, 0, 76, 80
1, 188351, Note_on_c, 0, 81, 74
1, 188360, Control_c, 0, 64, 86
1, 188375, Control_c, 0, 64, 70
1, 188376, Note_on_c, 0, 85, 73
1, 188377, Note_off_c, 0, 76, 61
1, 188386, Note_off_c, 0, 67, 60
1, 188398, Control_c, 0, 64, 50
1, 188409, Note_off_c, 0, 70, 55
1, 188413, Control_c, 0, 64, 0
1, 188419, Note_off_c, 0, 81, 58
1, 188434, Note_on_c, 0, 86, 76
1, 188468, Note_off_c, 0, 85, 63
1, 188473, Note_on_c, 0, 88, 63
1, 188484, Note_off_c, 0, 86, 61
1, 188497, Note_off_c, 0, 88, 65
1, 188531, Control_c, 0, 64, 43
1, 188538, Note_on_c, 0, 69, 92
1, 188539, Note_on_c, 0, 74, 86
1, 188543, Note_on_c, 0, 77, 80
1, 188543, Note_on_c, 0, 79, 85
1, 188545, Control_c, 0, 64, 68
1, 188546, Note_on_c, 0, 88, 74
1, 188550, Note_on_c, 0, 86, 83
1, 188560, Control_c, 0, 64, 75
1, 188569, Note_on_c, 0, 89, 66
1, 188570, Note_off_c, 0, 77, 55
1, 188571, Note_off_c, 0, 79, 58
1, 188572, Note_off_c, 0, 69, 48
1, 188575, Control_c, 0, 64, 82
1, 188580, Note_off_c, 0, 74, 63
1, 188589, Control_c, 0, 64, 83
1, 188592, Note_on_c, 0, 91, 42
1, 188605, Note_off_c, 0, 86, 60
1, 188610, Note_off_c, 0, 88, 58
1, 188610, Note_on_c, 0, 93, 75
1, 188625, Note_off_c, 0, 91, 0
1, 188625, Note_on_c, 0, 91, 46
1, 188634, Control_c, 0, 64, 85
1, 188646, Note_off_c, 0, 89, 59
1, 188649, Note_off_c, 0, 91, 64
1, 188649, Control_c, 0, 64, 87
1, 188664, Control_c, 0, 64, 90
1, 188666, Note_off_c, 0, 93, 62
1, 188679, Control_c, 0, 64, 91
1, 188704, Note_on_c, 0, 93, 76
1, 188717, Note_on_c, 0, 82, 80
1, 188718, Note_on_c, 0, 88, 76
1, 188723, Control_c, 0, 64, 90
1, 188724, Note_on_c, 0, 79, 54
1, 188724, Note_on_c, 0, 80, 50
1, 188738, Control_c, 0, 64, 81
1, 188741, Note_off_c, 0, 79, 65
1, 188742, Note_off_c, 0, 88, 66
1, 188744, Note_on_c, 0, 95, 25
1, 188746, Note_off_c, 0, 80, 56
1, 188751, Note_on_c, 0, 97, 82
1, 188753, Control_c, 0, 64, 67
1, 188767, Note_off_c, 0, 82, 60
1, 188768, Control_c, 0, 64, 51
1, 188782, Note_off_c, 0, 95, 47
1, 188783, Control_c, 0, 64, 27
1, 188786, Note_off_c, 0, 93, 57
1, 188797, Control_c, 0, 64, 0
1, 188807, Note_on_c, 0, 98, 81
1, 188855, Note_off_c, 0, 97, 64
1, 188878, Note_on_c, 0, 89, 97
1, 188878, Note_on_c, 0, 101, 101
1, 188879, Note_on_c, 0, 93, 111
1, 188881, Note_on_c, 0, 81, 89
1, 188883, Note_on_c, 0, 86, 80
1, 188899, Note_on_c, 0, 87, 68
1, 188901, Control_c, 0, 64, 40
1, 188903, Note_on_c, 0, 96, 69
1, 188913, Note_off_c, 0, 89, 67
1, 188916, Note_off_c, 0, 87, 68
1, 188916, Control_c, 0, 64, 98
1, 188920, Note_off_c, 0, 98, 66
1, 188920, Note_off_c, 0, 96, 66
1, 188929, Note_on_c, 0, 100, 18
1, 188930, Note_off_c, 0, 100, 127
1, 188930, Note_off_c, 0, 86, 61
1, 188931, Control_c, 0, 64, 127
1, 188936, Note_off_c, 0, 101, 68
1, 188938, Note_off_c, 0, 93, 65
1, 188939, Note_off_c, 0, 81, 65
1, 189215, Poly_aftertouch_c, 0, 51, 127
1, 189235, Control_c, 0, 64, 65
1, 189243, Poly_aftertouch_c, 0, 51, 0
1, 189250, Control_c, 0, 64, 0
1, 189272, Note_on_c, 0, 50, 94
1, 189273, Note_on_c, 0, 55, 97
1, 189275, Note_on_c, 0, 47, 90
1, 189309, Note_on_c, 0, 59, 79
1, 189309, Control_c, 0, 64, 45
1, 189324, Control_c, 0, 64, 74
1, 189325, Note_off_c, 0, 55, 64
1, 189339, Control_c, 0, 64, 96
1, 189344, Note_off_c, 0, 50, 63
1, 189354, Control_c, 0, 64, 127
1, 189358, Note_on_c, 0, 62, 74
1, 189361, Note_off_c, 0, 47, 62
1, 189382, Note_off_c, 0, 59, 60
1, 189411, Note_on_c, 0, 67, 71
1, 189425, Note_off_c, 0, 62, 60
1, 189445, Note_off_c, 0, 67, 60
1, 189464, Note_on_c, 0, 35, 83
1, 189489, Note_off_c, 0, 35, 63
1, 189497, Note_on_c, 0, 67, 63
1, 189498, Note_on_c, 0, 36, 50
1, 189506, Poly_aftertouch_c, 0, 65, 0
1, 189536, Note_off_c, 0, 36, 49
1, 189564, Note_on_c, 0, 71, 71
1, 189601, Note_off_c, 0, 67, 56
1, 189633, Control_c, 0, 64, 90
1, 189645, Note_on_c, 0, 77, 68
1, 189648, Control_c, 0, 64, 64
1, 189658, Note_on_c, 0, 53, 84
1, 189659, Note_on_c, 0, 47, 82
1, 189660, Note_on_c, 0, 56, 94
1, 189663, Note_off_c, 0, 71, 63
1, 189663, Control_c, 0, 64, 37
1, 189664, Note_on_c, 0, 80, 89
1, 189678, Control_c, 0, 64, 25
1, 189680, Note_on_c, 0, 76, 36
1, 189691, Note_off_c, 0, 77, 60
1, 189692, Control_c, 0, 64, 41
1, 189698, Note_off_c, 0, 80, 64
1, 189707, Control_c, 0, 64, 64
1, 189710, Note_off_c, 0, 76, 37
1, 189715, Note_off_c, 0, 56, 62
1, 189722, Control_c, 0, 64, 78
1, 189725, Note_off_c, 0, 53, 61
1, 189737, Control_c, 0, 64, 109
1, 189751, Note_off_c, 0, 47, 59
1, 189752, Control_c, 0, 64, 127
1, 189759, Note_on_c, 0, 80, 76
1, 189830, Note_on_c, 0, 83, 72
1, 189837, Note_off_c, 0, 80, 60
1, 189850, Poly_aftertouch_c, 0, 82, 127
1, 189854, Note_on_c, 0, 92, 77
1, 189862, Note_on_c, 0, 41, 78
1, 189889, Note_on_c, 0, 43, 67
1, 189890, Note_on_c, 0, 89, 57
1, 189912, Note_off_c, 0, 41, 58
1, 189913, Poly_aftertouch_c, 0, 84, 0
1, 189919, Note_off_c, 0, 43, 54
1, 189934, Note_off_c, 0, 83, 0
1, 189934, Note_on_c, 0, 83, 13
1, 189949, Note_on_c, 0, 80, 86
1, 189975, Note_off_c, 0, 92, 62
1, 189978, Note_off_c, 0, 89, 57
1, 189981, Poly_aftertouch_c, 0, 82, 0
1, 190012, Note_off_c, 0, 80, 63
1, 190018, Note_off_c, 0, 83, 54
1, 190027, Control_c, 0, 64, 88
1, 190040, Note_on_c, 0, 88, 88
1, 190040, Note_on_c, 0, 91, 97
1, 190041, Control_c, 0, 64, 55
1, 190044, Note_on_c, 0, 55, 97
1, 190045, Note_on_c, 0, 47, 95
1, 190047, Note_on_c, 0, 52, 87
1, 190056, Control_c, 0, 64, 37
1, 190071, Control_c, 0, 64, 48
1, 190086, Note_off_c, 0, 55, 62
1, 190086, Control_c, 0, 64, 68
1, 190092, Note_off_c, 0, 52, 57
1, 190101, Control_c, 0, 64, 88
1, 190111, Note_on_c, 0, 83, 87
1, 190115, Control_c, 0, 64, 127
1, 190120, Note_off_c, 0, 91, 62
1, 190123, Note_off_c, 0, 47, 62
1, 190134, Note_on_c, 0, 79, 83
1, 190139, Note_off_c, 0, 88, 63
1, 190154, Note_off_c, 0, 83, 63
1, 190175, Note_off_c, 0, 79, 62
1, 190175, Poly_aftertouch_c, 0, 89, 0
1, 190223, Note_on_c, 0, 35, 89
1, 190232, Note_on_c, 0, 79, 68
1, 190256, Note_off_c, 0, 35, 63
1, 190263, Note_on_c, 0, 71, 72
1, 190270, Note_on_c, 0, 76, 53
1, 190299, Note_off_c, 0, 76, 51
1, 190309, Poly_aftertouch_c, 0, 77, 127
1, 190317, Note_on_c, 0, 67, 83
1, 190332, Note_off_c, 0, 79, 56
1, 190343, Poly_aftertouch_c, 0, 77, 0
1, 190381, Note_off_c, 0, 71, 61
1, 190408, Note_on_c, 0, 50, 19
1, 190410, Note_on_c, 0, 75, 89
1, 190413, Control_c, 0, 64, 68
1, 190414, Note_on_c, 0, 77, 93
1, 190416, Note_on_c, 0, 53, 91
1, 190425, Note_on_c, 0, 44, 85
1, 190428, Control_c, 0, 64, 0
1, 190433, Note_off_c, 0, 67, 37
1, 190472, Note_on_c, 0, 46, 29
1, 190472, Control_c, 0, 64, 49
1, 190487, Control_c, 0, 64, 73
1, 190491, Note_on_c, 0, 68, 85
1, 190496, Note_off_c, 0, 77, 61
1, 190502, Control_c, 0, 64, 96
1, 190506, Note_off_c, 0, 75, 63
1, 190511, Note_on_c, 0, 67, 79
1, 190516, Control_c, 0, 64, 127
1, 190521, Note_off_c, 0, 46, 45
1, 190537, Note_off_c, 0, 67, 64
1, 190539, Note_off_c, 0, 68, 55
1, 190569, Note_off_c, 0, 53, 33
1, 190569, Note_on_c, 0, 43, 75
1, 190575, Note_off_c, 0, 50, 44
1, 190599, Note_on_c, 0, 64, 79
1, 190617, Note_on_c, 0, 57, 73
1, 190619, Note_off_c, 0, 43, 60
1, 190630, Note_off_c, 0, 44, 0
1, 190660, Poly_aftertouch_c, 0, 44, 0
1, 190687, Note_on_c, 0, 36, 83
1, 190691, Note_on_c, 0, 55, 77
1, 190703, Note_off_c, 0, 57, 60
1, 190747, Control_c, 0, 64, 116
1, 190749, Note_off_c, 0, 64, 55
1, 190754, Note_off_c, 0, 55, 61
1, 190762, Control_c, 0, 64, 67
1, 190767, Note_off_c, 0, 36, 60
1, 190777, Control_c, 0, 64, 39
1, 190791, Control_c, 0, 64, 29
1, 190795, Note_on_c, 0, 52, 88
1, 190795, Note_on_c, 0, 62, 77
1, 190802, Note_on_c, 0, 60, 68
1, 190806, Control_c, 0, 64, 36
1, 190807, Note_on_c, 0, 64, 62
1, 190810, Note_on_c, 0, 59, 63
1, 190821, Control_c, 0, 64, 62
1, 190829, Note_off_c, 0, 60, 64
1, 190830, Note_off_c, 0, 64, 60
1, 190831, Note_off_c, 0, 59, 63
1, 190836, Control_c, 0, 64, 78
1, 190845, Note_off_c, 0, 52, 61
1, 190851, Control_c, 0, 64, 102
1, 190852, Note_off_c, 0, 62, 59
1, 190865, Control_c, 0, 64, 127
1, 190974, Note_on_c, 0, 65, 75
1, 190978, Note_on_c, 0, 53, 78
1, 190982, Note_on_c, 0, 62, 81
1, 190988, Note_on_c, 0, 71, 76
1, 190989, Note_on_c, 0, 56, 71
1, 191013, Control_c, 0, 64, 82
1, 191022, Note_off_c, 0, 62, 57
1, 191023, Note_off_c, 0, 56, 59
1, 191025, Note_off_c, 0, 65, 59
1, 191028, Control_c, 0, 64, 62
1, 191037, Note_off_c, 0, 53, 58
1, 191043, Control_c, 0, 64, 36
1, 191048, Note_on_c, 0, 72, 72
1, 191058, Control_c, 0, 64, 0
1, 191092, Note_off_c, 0, 71, 60
1, 191105, Note_on_c, 0, 74, 67
1, 191111, Note_off_c, 0, 72, 62
1, 191131, Note_off_c, 0, 74, 66
1, 191169, Note_on_c, 0, 64, 82
1, 191171, Note_on_c, 0, 55, 79
1, 191171, Note_on_c, 0, 72, 77
1, 191174, Note_on_c, 0, 60, 72
1, 191189, Note_on_c, 0, 76, 82
1, 191197, Note_off_c, 0, 55, 64
1, 191199, Note_off_c, 0, 60, 64
1, 191225, Note_off_c, 0, 64, 58
1, 191241, Note_on_c, 0, 77, 73
1, 191241, Note_off_c, 0, 72, 61
1, 191280, Control_c, 0, 64, 54
1, 191290, Note_on_c, 0, 79, 72
1, 191293, Note_off_c, 0, 76, 62
1, 191295, Control_c, 0, 64, 64
1, 191309, Note_off_c, 0, 77, 60
1, 191310, Control_c, 0, 64, 68
1, 191314, Note_off_c, 0, 79, 65
1, 191325, Control_c, 0, 64, 69
1, 191348, Note_on_c, 0, 65, 75
1, 191353, Poly_aftertouch_c, 0, 79, 0
1, 191354, Control_c, 0, 64, 69
1, 191355, Note_on_c, 0, 68, 70
1, 191355, Note_on_c, 0, 74, 79
1, 191358, Note_on_c, 0, 79, 72
1, 191361, Note_on_c, 0, 72, 64
1, 191369, Control_c, 0, 64, 64
1, 191381, Note_off_c, 0, 74, 65
1, 191391, Control_c, 0, 64, 56
1, 191394, Note_off_c, 0, 72, 67
1, 191400, Note_on_c, 0, 83, 75
1, 191400, Note_off_c, 0, 65, 59
1, 191404, Note_off_c, 0, 68, 47
1, 191406, Control_c, 0, 64, 42
1, 191421, Control_c, 0, 64, 0
1, 191439, Note_off_c, 0, 79, 59
1, 191450, Note_on_c, 0, 84, 72
1, 191487, Note_off_c, 0, 83, 64
1, 191487, Note_on_c, 0, 86, 75
1, 191502, Note_off_c, 0, 84, 56
1, 191506, Note_off_c, 0, 86, 71
1, 191511, Control_c, 0, 64, 44
1, 191525, Control_c, 0, 64, 62
1, 191539, Note_on_c, 0, 67, 87
1, 191539, Note_on_c, 0, 76, 93
1, 191540, Note_on_c, 0, 72, 80
1, 191540, Control_c, 0, 64, 67
1, 191552, Note_on_c, 0, 84, 75
1, 191555, Control_c, 0, 64, 68
1, 191570, Note_off_c, 0, 67, 58
1, 191573, Note_off_c, 0, 72, 62
1, 191576, Note_on_c, 0, 89, 76
1, 191585, Note_off_c, 0, 76, 60
1, 191585, Control_c, 0, 64, 66
1, 191600, Control_c, 0, 64, 64
1, 191613, Note_off_c, 0, 84, 59
1, 191614, Control_c, 0, 64, 64
1, 191629, Control_c, 0, 64, 65
1, 191632, Note_on_c, 0, 91, 80
1, 191644, Control_c, 0, 64, 67
1, 191659, Control_c, 0, 64, 69
1, 191661, Note_on_c, 0, 93, 70
1, 191663, Note_off_c, 0, 89, 61
1, 191674, Control_c, 0, 64, 70
1, 191678, Note_off_c, 0, 91, 60
1, 191683, Note_off_c, 0, 93, 69
1, 191709, Note_on_c, 0, 80, 85
1, 191710, Note_on_c, 0, 77, 74
1, 191710, Note_on_c, 0, 91, 79
1, 191718, Control_c, 0, 64, 69
1, 191727, Note_on_c, 0, 86, 59
1, 191733, Control_c, 0, 64, 65
1, 191734, Note_off_c, 0, 77, 64
1, 191734, Note_on_c, 0, 84, 39
1, 191745, Note_off_c, 0, 86, 66
1, 191748, Control_c, 0, 64, 60
1, 191761, Note_on_c, 0, 95, 79
1, 191761, Note_off_c, 0, 84, 53
1, 191762, Control_c, 0, 64, 55
1, 191768, Note_off_c, 0, 80, 52
1, 191777, Control_c, 0, 64, 53
1, 191792, Control_c, 0, 64, 52
1, 191795, Note_off_c, 0, 91, 62
1, 191821, Note_on_c, 0, 96, 85
1, 191821, Control_c, 0, 64, 53
1, 191836, Control_c, 0, 64, 61
1, 191851, Control_c, 0, 64, 73
1, 191859, Note_on_c, 0, 84, 72
1, 191864, Note_on_c, 0, 79, 81
1, 191864, Note_on_c, 0, 100, 96
1, 191865, Note_on_c, 0, 88, 87
1, 191866, Control_c, 0, 64, 91
1, 191871, Note_on_c, 0, 91, 99
1, 191881, Control_c, 0, 64, 127
1, 191883, Note_off_c, 0, 88, 70
1, 191889, Note_off_c, 0, 95, 62
1, 191889, Note_off_c, 0, 96, 63
1, 191900, Note_on_c, 0, 85, 27
1, 191902, Note_off_c, 0, 84, 62
1, 191904, Note_off_c, 0, 100, 66
1, 191913, Note_on_c, 0, 93, 32
1, 191914, Note_off_c, 0, 93, 127
1, 191917, Note_off_c, 0, 91, 68
1, 191921, Note_off_c, 0, 79, 64
1, 191935, Note_off_c, 0, 85, 36
1, 191949, Poly_aftertouch_c, 0, 93, 0
1, 192098, Note_on_c, 0, 50, 95
1, 192102, Note_on_c, 0, 38, 80
1, 192102, Note_on_c, 0, 62, 87
1, 192107, Note_on_c, 0, 36, 81
1, 192136, Note_off_c, 0, 36, 61
1, 192143, Note_off_c, 0, 38, 64
1, 192145, Note_off_c, 0, 50, 64
1, 192146, Note_on_c, 0, 66, 24
1, 192184, Note_off_c, 0, 66, 53
1, 192184, Note_on_c, 0, 64, 76
1, 192199, Control_c, 0, 64, 100
1, 192214, Control_c, 0, 64, 73
1, 192224, Poly_aftertouch_c, 0, 48, 0
1, 192229, Control_c, 0, 64, 30
1, 192244, Control_c, 0, 64, 0
1, 192247, Note_on_c, 0, 65, 71
1, 192265, Note_off_c, 0, 65, 67
1, 192298, Note_on_c, 0, 41, 90
1, 192298, Note_on_c, 0, 53, 106
1, 192310, Note_on_c, 0, 65, 93
1, 192321, Note_off_c, 0, 62, 46
1, 192321, Note_off_c, 0, 64, 64
1, 192322, Note_off_c, 0, 41, 69
1, 192333, Control_c, 0, 64, 71
1, 192339, Note_off_c, 0, 53, 63
1, 192348, Control_c, 0, 64, 92
1, 192353, Note_off_c, 0, 65, 65
1, 192363, Control_c, 0, 64, 127
1, 192454, Note_on_c, 0, 58, 54
1, 192491, Note_off_c, 0, 58, 62
1, 192540, Note_on_c, 0, 77, 87
1, 192543, Note_on_c, 0, 56, 50
1, 192545, Note_on_c, 0, 65, 93
1, 192545, Note_on_c, 0, 89, 88
1, 192566, Note_on_c, 0, 59, 56
1, 192596, Note_off_c, 0, 77, 59
1, 192596, Note_off_c, 0, 89, 61
1, 192605, Note_off_c, 0, 65, 58
1, 192625, Note_off_c, 0, 56, 51
1, 192664, Poly_aftertouch_c, 0, 58, 0
1, 192669, Note_off_c, 0, 59, 34
1, 192739, Note_on_c, 0, 65, 89
1, 192742, Note_on_c, 0, 59, 79
1, 192743, Note_on_c, 0, 71, 98
1, 192744, Note_on_c, 0, 56, 84
1, 192745, Note_on_c, 0, 83, 97
1, 192770, Note_off_c, 0, 65, 60
1, 192778, Note_off_c, 0, 83, 65
1, 192790, Note_off_c, 0, 59, 63
1, 192799, Note_off_c, 0, 71, 60
1, 192807, Note_off_c, 0, 56, 62
1, 192850, Poly_aftertouch_c, 0, 80, 0
1, 192969, Note_on_c, 0, 59, 81
1, 192978, Note_on_c, 0, 47, 91
1, 192980, Note_on_c, 0, 35, 88
1, 192982, Note_on_c, 0, 45, 81
1, 193001, Note_off_c, 0, 45, 65
1, 193007, Note_on_c, 0, 33, 37
1, 193010, Note_off_c, 0, 35, 64
1, 193023, Note_off_c, 0, 47, 62
1, 193044, Note_on_c, 0, 60, 79
1, 193051, Note_off_c, 0, 33, 47
1, 193058, Note_off_c, 0, 59, 51
1, 193067, Poly_aftertouch_c, 0, 63, 127
1, 193082, Control_c, 0, 64, 78
1, 193092, Poly_aftertouch_c, 0, 63, 0
1, 193097, Note_on_c, 0, 62, 75
1, 193097, Control_c, 0, 64, 27
1, 193112, Control_c, 0, 64, 0
1, 193132, Note_on_c, 0, 42, 23
1, 193165, Note_off_c, 0, 42, 50
1, 193170, Note_on_c, 0, 63, 96
1, 193181, Note_off_c, 0, 60, 57
1, 193184, Note_on_c, 0, 51, 102
1, 193189, Note_off_c, 0, 62, 61
1, 193191, Note_on_c, 0, 39, 80
1, 193207, Note_off_c, 0, 63, 68
1, 193216, Control_c, 0, 64, 82
1, 193216, Note_off_c, 0, 39, 66
1, 193230, Control_c, 0, 64, 127
1, 193232, Note_off_c, 0, 51, 61
1, 193323, Note_on_c, 0, 58, 46
1, 193349, Note_off_c, 0, 58, 57
1, 193416, Note_on_c, 0, 75, 94
1, 193416, Note_on_c, 0, 87, 83
1, 193421, Note_on_c, 0, 66, 91
1, 193427, Note_on_c, 0, 60, 80
1, 193442, Note_on_c, 0, 58, 44
1, 193444, Note_on_c, 0, 57, 65
1, 193460, Note_off_c, 0, 87, 62
1, 193465, Note_off_c, 0, 75, 63
1, 193472, Note_off_c, 0, 66, 59
1, 193477, Note_off_c, 0, 58, 48
1, 193507, Note_off_c, 0, 60, 50
1, 193550, Note_off_c, 0, 57, 35
1, 193604, Note_on_c, 0, 66, 82
1, 193607, Note_on_c, 0, 60, 73
1, 193609, Note_on_c, 0, 57, 67
1, 193623, Note_on_c, 0, 69, 76
1, 193624, Note_on_c, 0, 67, 81
1, 193633, Note_off_c, 0, 66, 68
1, 193636, Note_on_c, 0, 81, 70
1, 193637, Note_on_c, 0, 79, 68
1, 193653, Note_off_c, 0, 81, 67
1, 193654, Note_off_c, 0, 79, 68
1, 193656, Note_off_c, 0, 69, 64
1, 193658, Note_off_c, 0, 67, 59
1, 193662, Note_off_c, 0, 60, 58
1, 193667, Note_off_c, 0, 57, 64
1, 193836, Note_on_c, 0, 45, 96
1, 193839, Note_on_c, 0, 57, 76
1, 193842, Note_on_c, 0, 33, 81
1, 193854, Note_on_c, 0, 35, 75
1, 193868, Note_on_c, 0, 61, 8
1, 193874, Note_off_c, 0, 33, 66
1, 193884, Note_off_c, 0, 35, 63
1, 193885, Note_off_c, 0, 45, 61
1, 193915, Note_off_c, 0, 61, 50
1, 193916, Note_on_c, 0, 58, 80
1, 193964, Control_c, 0, 64, 74
1, 193972, Note_off_c, 0, 57, 37
1, 193979, Control_c, 0, 64, 0
1, 193995, Note_on_c, 0, 60, 64
1, 194037, Note_on_c, 0, 59, 16
1, 194038, Note_off_c, 0, 59, 127
1, 194042, Note_off_c, 0, 58, 60
1, 194045, Note_on_c, 0, 61, 88
1, 194055, Note_on_c, 0, 49, 101
1, 194059, Note_on_c, 0, 37, 77
1, 194068, Control_c, 0, 64, 56
1, 194078, Note_off_c, 0, 60, 60
1, 194083, Control_c, 0, 64, 93
1, 194084, Note_off_c, 0, 61, 67
1, 194088, Note_off_c, 0, 37, 64
1, 194098, Control_c, 0, 64, 127
1, 194102, Note_off_c, 0, 49, 62
1, 194283, Note_on_c, 0, 85, 84
1, 194288, Note_on_c, 0, 73, 97
1, 194291, Note_on_c, 0, 64, 88
1, 194292, Note_on_c, 0, 55, 72
1, 194298, Note_on_c, 0, 58, 82
1, 194330, Note_off_c, 0, 85, 63
1, 194333, Note_off_c, 0, 73, 66
1, 194338, Note_off_c, 0, 64, 61
1, 194355, Note_off_c, 0, 58, 58
1, 194357, Note_off_c, 0, 55, 56
1, 194501, Note_on_c, 0, 67, 92
1, 194503, Note_on_c, 0, 58, 84
1, 194504, Note_on_c, 0, 55, 76
1, 194508, Note_on_c, 0, 79, 85
1, 194509, Note_on_c, 0, 64, 77
1, 194525, Note_off_c, 0, 79, 70
1, 194529, Note_off_c, 0, 64, 69
1, 194548, Note_off_c, 0, 67, 61
1, 194554, Note_off_c, 0, 58, 63
1, 194556, Note_off_c, 0, 55, 63
1, 194723, Note_on_c, 0, 31, 87
1, 194724, Note_on_c, 0, 43, 89
1, 194727, Note_on_c, 0, 55, 70
1, 194763, Note_off_c, 0, 31, 58
1, 194775, Note_off_c, 0, 43, 61
1, 194799, Note_on_c, 0, 56, 77
1, 194816, Note_off_c, 0, 55, 50
1, 194846, Control_c, 0, 64, 81
1, 194855, Note_on_c, 0, 58, 74
1, 194861, Control_c, 0, 64, 44
1, 194876, Control_c, 0, 64, 0
1, 194906, Note_off_c, 0, 56, 56
1, 194929, Note_off_c, 0, 58, 62
1, 194930, Note_on_c, 0, 47, 102
1, 194930, Note_on_c, 0, 59, 91
1, 194932, Note_on_c, 0, 35, 91
1, 194950, Control_c, 0, 64, 73
1, 194955, Note_off_c, 0, 35, 66
1, 194965, Control_c, 0, 64, 112
1, 194971, Note_on_c, 0, 45, 17
1, 194971, Note_off_c, 0, 59, 66
1, 194974, Note_off_c, 0, 47, 65
1, 194980, Control_c, 0, 64, 127
1, 195026, Note_off_c, 0, 45, 44
1, 195183, Note_on_c, 0, 53, 67
1, 195185, Note_on_c, 0, 83, 92
1, 195186, Note_on_c, 0, 71, 92
1, 195187, Note_on_c, 0, 62, 94
1, 195196, Note_on_c, 0, 56, 82
1, 195230, Note_off_c, 0, 83, 64
1, 195231, Note_on_c, 0, 80, 21
1, 195233, Note_off_c, 0, 71, 63
1, 195236, Note_off_c, 0, 62, 62
1, 195257, Note_off_c, 0, 56, 59
1, 195258, Note_off_c, 0, 53, 58
1, 195272, Note_off_c, 0, 80, 41
1, 195401, Note_on_c, 0, 53, 91
1, 195402, Note_on_c, 0, 56, 88
1, 195402, Note_on_c, 0, 65, 100
1, 195403, Note_on_c, 0, 62, 97
1, 195405, Note_on_c, 0, 77, 100
1, 195436, Note_off_c, 0, 62, 64
1, 195439, Note_off_c, 0, 77, 64
1, 195447, Note_off_c, 0, 65, 60
1, 195460, Note_off_c, 0, 56, 66
1, 195463, Note_off_c, 0, 53, 63
1, 195623, Note_on_c, 0, 29, 89
1, 195624, Note_on_c, 0, 41, 97
1, 195627, Note_on_c, 0, 53, 90
1, 195657, Note_on_c, 0, 58, 44
1, 195663, Note_off_c, 0, 29, 64
1, 195671, Note_off_c, 0, 41, 61
1, 195711, Note_off_c, 0, 58, 48
1, 195714, Note_on_c, 0, 56, 83
1, 195717, Poly_aftertouch_c, 0, 61, 127
1, 195736, Note_off_c, 0, 53, 53
1, 195758, Control_c, 0, 64, 68
1, 195763, Poly_aftertouch_c, 0, 61, 0
1, 195773, Control_c, 0, 64, 0
1, 195779, Note_on_c, 0, 58, 68
1, 195836, Note_off_c, 0, 56, 62
1, 195845, Note_on_c, 0, 47, 107
1, 195848, Note_on_c, 0, 35, 95
1, 195851, Note_on_c, 0, 59, 96
1, 195870, Note_off_c, 0, 35, 69
1, 195874, Note_off_c, 0, 58, 62
1, 195877, Control_c, 0, 64, 79
1, 195895, Note_off_c, 0, 47, 66
1, 195899, Control_c, 0, 64, 127
1, 195900, Note_off_c, 0, 59, 67
1, 196117, Note_on_c, 0, 62, 99
1, 196118, Note_on_c, 0, 53, 70
1, 196120, Note_on_c, 0, 57, 75
1, 196122, Note_on_c, 0, 71, 91
1, 196125, Note_on_c, 0, 84, 81
1, 196127, Note_on_c, 0, 83, 84
1, 196145, Note_on_c, 0, 72, 49
1, 196147, Note_off_c, 0, 84, 63
1, 196167, Note_off_c, 0, 72, 62
1, 196170, Note_off_c, 0, 62, 60
1, 196172, Note_off_c, 0, 71, 62
1, 196173, Note_off_c, 0, 83, 63
1, 196185, Note_off_c, 0, 57, 61
1, 196191, Poly_aftertouch_c, 0, 80, 0
1, 196196, Note_off_c, 0, 53, 55
1, 196217, Poly_aftertouch_c, 0, 80, 0
1, 196351, Note_on_c, 0, 57, 84
1, 196351, Note_on_c, 0, 62, 97
1, 196352, Note_on_c, 0, 53, 85
1, 196356, Note_on_c, 0, 65, 105
1, 196358, Note_on_c, 0, 77, 102
1, 196389, Note_on_c, 0, 75, 49
1, 196389, Note_off_c, 0, 62, 65
1, 196397, Note_off_c, 0, 65, 65
1, 196398, Note_off_c, 0, 77, 65
1, 196404, Note_off_c, 0, 57, 65
1, 196411, Note_off_c, 0, 75, 60
1, 196424, Note_off_c, 0, 53, 62
1, 196591, Note_on_c, 0, 29, 86
1, 196592, Note_on_c, 0, 41, 100
1, 196592, Note_on_c, 0, 53, 88
1, 196641, Note_off_c, 0, 29, 60
1, 196641, Note_on_c, 0, 61, 37
1, 196651, Note_off_c, 0, 41, 62
1, 196673, Note_off_c, 0, 61, 51
1, 196685, Note_on_c, 0, 57, 81
1, 196712, Poly_aftertouch_c, 0, 58, 0
1, 196730, Poly_aftertouch_c, 0, 59, 0
1, 196736, Control_c, 0, 64, 98
1, 196748, Note_off_c, 0, 53, 35
1, 196751, Control_c, 0, 64, 59
1, 196762, Note_on_c, 0, 58, 67
1, 196766, Control_c, 0, 64, 0
1, 196839, Note_off_c, 0, 57, 62
1, 196840, Note_on_c, 0, 59, 91
1, 196842, Note_on_c, 0, 47, 114
1, 196843, Note_off_c, 0, 58, 66
1, 196846, Note_on_c, 0, 35, 94
1, 196870, Control_c, 0, 64, 63
1, 196870, Note_off_c, 0, 35, 68
1, 196884, Note_off_c, 0, 47, 62
1, 196885, Control_c, 0, 64, 127
1, 196885, Note_off_c, 0, 59, 68
1, 196897, Note_on_c, 0, 37, 6
1, 196945, Note_off_c, 0, 37, 46
1, 197134, Note_on_c, 0, 71, 102
1, 197137, Note_on_c, 0, 83, 98
1, 197138, Note_on_c, 0, 57, 51
1, 197141, Note_on_c, 0, 63, 98
1, 197150, Note_on_c, 0, 53, 76
1, 197168, Note_on_c, 0, 80, 48
1, 197184, Note_off_c, 0, 83, 65
1, 197186, Note_off_c, 0, 71, 61
1, 197190, Note_off_c, 0, 80, 60
1, 197213, Note_off_c, 0, 63, 54
1, 197231, Note_off_c, 0, 57, 57
1, 197320, Note_off_c, 0, 53, 23
1, 197403, Note_on_c, 0, 65, 103
1, 197404, Note_on_c, 0, 63, 99
1, 197406, Note_on_c, 0, 57, 86
1, 197406, Note_on_c, 0, 77, 99
1, 197413, Note_on_c, 0, 53, 87
1, 197446, Note_off_c, 0, 63, 63
1, 197449, Note_off_c, 0, 77, 63
1, 197450, Note_off_c, 0, 65, 64
1, 197464, Note_off_c, 0, 57, 65
1, 197478, Note_off_c, 0, 53, 61
1, 197506, Poly_aftertouch_c, 0, 55, 127
1, 197515, Poly_aftertouch_c, 0, 75, 0
1, 197535, Poly_aftertouch_c, 0, 55, 0
1, 197673, Note_on_c, 0, 57, 87
1, 197680, Note_on_c, 0, 45, 93
1, 197760, Note_on_c, 0, 43, 80
1, 197761, Note_on_c, 0, 55, 83
1, 197779, Note_off_c, 0, 45, 54
1, 197809, Note_off_c, 0, 57, 57
1, 197812, Note_on_c, 0, 41, 78
1, 197830, Note_off_c, 0, 43, 62
1, 197833, Note_on_c, 0, 53, 93
1, 197840, Note_off_c, 0, 55, 64
1, 197848, Note_off_c, 0, 41, 63
1, 197900, Note_off_c, 0, 53, 64
1, 197901, Control_c, 0, 64, 74
1, 197916, Control_c, 0, 64, 0
1, 197931, Note_on_c, 0, 52, 98
1, 197935, Note_on_c, 0, 40, 103
1, 197937, Note_on_c, 0, 28, 96
1, 197958, Note_on_c, 0, 56, 60
1, 197976, Note_on_c, 0, 30, 36
1, 197976, Note_off_c, 0, 28, 66
1, 197980, Note_off_c, 0, 56, 61
1, 197990, Control_c, 0, 64, 63
1, 197992, Note_off_c, 0, 40, 57
1, 198000, Note_off_c, 0, 52, 64
1, 198005, Control_c, 0, 64, 109
1, 198011, Note_off_c, 0, 30, 50
1, 198020, Control_c, 0, 64, 127
1, 198407, Note_on_c, 0, 71, 102
1, 198408, Note_on_c, 0, 64, 103
1, 198410, Note_on_c, 0, 76, 96
1, 198411, Note_on_c, 0, 83, 96
1, 198412, Note_on_c, 0, 59, 97
1, 198414, Note_on_c, 0, 81, 90
1, 198414, Note_on_c, 0, 52, 88
1, 198418, Note_on_c, 0, 57, 87
1, 198451, Note_off_c, 0, 64, 65
1, 198457, Note_off_c, 0, 71, 64
1, 198462, Note_off_c, 0, 83, 64
1, 198471, Note_off_c, 0, 52, 60
1, 198471, Note_off_c, 0, 59, 66
1, 198480, Note_off_c, 0, 57, 64
1, 198482, Note_off_c, 0, 76, 65
1, 198490, Note_off_c, 0, 81, 63
1, 198970, Note_on_c, 0, 64, 108
1, 198972, Note_on_c, 0, 52, 110
1, 198975, Note_on_c, 0, 40, 94
1, 199004, Note_on_c, 0, 42, 56
1, 199006, Note_on_c, 0, 65, 52
1, 199013, Control_c, 0, 64, 77
1, 199028, Control_c, 0, 64, 0
1, 199029, Note_off_c, 0, 65, 58
1, 199046, Note_off_c, 0, 42, 46
1, 199076, Note_off_c, 0, 40, 62
1, 199102, Control_c, 0, 64, 62
1, 199117, Note_off_c, 0, 52, 61
1, 199117, Control_c, 0, 64, 101
1, 199131, Control_c, 0, 64, 127
1, 199133, Note_off_c, 0, 64, 55
1, 199537, Note_on_c, 0, 76, 100
1, 199539, Note_on_c, 0, 88, 98
1, 199541, Note_on_c, 0, 64, 104
1, 199541, Note_on_c, 0, 80, 96
1, 199544, Note_on_c, 0, 83, 99
1, 199547, Note_on_c, 0, 59, 96
1, 199548, Note_on_c, 0, 52, 89
1, 199550, Note_on_c, 0, 56, 92
1, 199594, Note_off_c, 0, 64, 68
1, 199597, Note_off_c, 0, 76, 68
1, 199601, Note_off_c, 0, 88, 66
1, 199611, Note_off_c, 0, 52, 59
1, 199612, Note_on_c, 0, 54, 17
1, 199615, Note_off_c, 0, 59, 65
1, 199627, Note_off_c, 0, 80, 67
1, 199629, Note_off_c, 0, 83, 66
1, 199639, Note_off_c, 0, 56, 64
1, 199663, Note_off_c, 0, 54, 43
1, 200200, Note_on_c, 0, 45, 102
1, 200202, Note_on_c, 0, 40, 89
1, 200203, Note_on_c, 0, 33, 92
1, 200212, Note_on_c, 0, 36, 84
1, 200216, Note_on_c, 0, 41, 72
1, 200222, Control_c, 0, 64, 67
1, 200237, Note_on_c, 0, 38, 48
1, 200237, Control_c, 0, 64, 0
1, 200253, Note_off_c, 0, 41, 34
1, 200272, Note_off_c, 0, 38, 34
1, 200286, Note_off_c, 0, 33, 63
1, 200292, Note_off_c, 0, 45, 58
1, 200312, Control_c, 0, 64, 61
1, 200313, Note_off_c, 0, 36, 61
1, 200316, Note_on_c, 0, 52, 66
1, 200319, Note_off_c, 0, 40, 62
1, 200327, Control_c, 0, 64, 95
1, 200342, Control_c, 0, 64, 127
1, 200350, Note_on_c, 0, 57, 71
1, 200359, Note_off_c, 0, 52, 59
1, 200389, Note_on_c, 0, 60, 72
1, 200423, Note_off_c, 0, 57, 61
1, 200425, Note_on_c, 0, 64, 69
1, 200457, Note_off_c, 0, 60, 57
1, 200459, Note_off_c, 0, 64, 59
1, 200504, Poly_aftertouch_c, 0, 62, 127
1, 200513, Note_on_c, 0, 64, 68
1, 200543, Poly_aftertouch_c, 0, 62, 0
1, 200580, Note_on_c, 0, 57, 88
1, 200583, Note_on_c, 0, 69, 78
1, 200591, Note_off_c, 0, 64, 55
1, 200618, Note_off_c, 0, 57, 60
1, 200641, Note_on_c, 0, 72, 74
1, 200662, Note_on_c, 0, 57, 90
1, 200670, Note_on_c, 0, 76, 78
1, 200670, Note_off_c, 0, 69, 61
1, 200703, Note_on_c, 0, 74, 42
1, 200706, Note_off_c, 0, 72, 60
1, 200721, Note_off_c, 0, 76, 62
1, 200728, Note_off_c, 0, 57, 63
1, 200732, Note_off_c, 0, 74, 49
1, 200739, Note_on_c, 0, 60, 89
1, 200745, Note_on_c, 0, 76, 62
1, 200775, Note_on_c, 0, 74, 29
1, 200810, Note_off_c, 0, 74, 54
1, 200819, Note_on_c, 0, 81, 81
1, 200823, Note_on_c, 0, 59, 84
1, 200833, Note_off_c, 0, 76, 58
1, 200855, Note_off_c, 0, 60, 56
1, 200868, Note_on_c, 0, 84, 74
1, 200881, Note_on_c, 0, 88, 77
1, 200889, Note_off_c, 0, 81, 64
1, 200915, Note_off_c, 0, 84, 60
1, 200923, Note_on_c, 0, 57, 72
1, 200931, Note_off_c, 0, 88, 61
1, 200952, Note_on_c, 0, 88, 72
1, 201030, Note_off_c, 0, 59, 56
1, 201035, Note_on_c, 0, 93, 86
1, 201047, Note_off_c, 0, 88, 60
1, 201052, Note_on_c, 0, 64, 92
1, 201058, Note_on_c, 0, 100, 90
1, 201067, Note_on_c, 0, 96, 83
1, 201100, Note_off_c, 0, 64, 61
1, 201106, Note_off_c, 0, 100, 66
1, 201125, Note_off_c, 0, 57, 62
1, 201130, Note_on_c, 0, 88, 91
1, 201139, Note_off_c, 0, 96, 62
1, 201148, Note_off_c, 0, 93, 62
1, 201172, Note_off_c, 0, 88, 59
1, 201248, Note_on_c, 0, 88, 70
1, 201249, Note_on_c, 0, 86, 55
1, 201255, Note_on_c, 0, 83, 69
1, 201275, Note_on_c, 0, 81, 66
1, 201300, Note_off_c, 0, 88, 55
1, 201327, Note_off_c, 0, 86, 50
1, 201336, Note_on_c, 0, 40, 81
1, 201343, Note_off_c, 0, 83, 61
1, 201347, Note_off_c, 0, 81, 63
1, 201352, Note_on_c, 0, 74, 67
1, 201362, Note_on_c, 0, 76, 41
1, 201373, Note_off_c, 0, 40, 62
1, 201380, Note_off_c, 0, 74, 64
1, 201392, Note_off_c, 0, 76, 51
1, 201417, Note_on_c, 0, 40, 94
1, 201437, Note_on_c, 0, 72, 76
1, 201437, Note_on_c, 0, 76, 71
1, 201459, Note_on_c, 0, 69, 69
1, 201500, Note_off_c, 0, 76, 56
1, 201508, Note_on_c, 0, 43, 88
1, 201515, Note_off_c, 0, 40, 58
1, 201518, Note_on_c, 0, 64, 83
1, 201529, Note_off_c, 0, 72, 58
1, 201543, Note_off_c, 0, 69, 62
1, 201566, Note_off_c, 0, 64, 61
1, 201613, Note_on_c, 0, 41, 78
1, 201625, Note_on_c, 0, 64, 69
1, 201634, Note_on_c, 0, 60, 67
1, 201640, Note_off_c, 0, 43, 57
1, 201683, Note_on_c, 0, 57, 35
1, 201689, Note_on_c, 0, 40, 69
1, 201704, Note_on_c, 0, 59, 40
1, 201705, Control_c, 0, 64, 109
1, 201720, Control_c, 0, 64, 95
1, 201723, Note_on_c, 0, 52, 93
1, 201723, Note_off_c, 0, 41, 62
1, 201735, Control_c, 0, 64, 78
1, 201743, Note_off_c, 0, 60, 58
1, 201746, Note_off_c, 0, 40, 63
1, 201749, Note_off_c, 0, 64, 55
1, 201750, Control_c, 0, 64, 58
1, 201765, Control_c, 0, 64, 0
1, 201785, Note_off_c, 0, 52, 60
1, 201804, Note_off_c, 0, 57, 56
1, 201819, Note_off_c, 0, 59, 46
1, 201832, Note_on_c, 0, 45, 103
1, 201833, Note_on_c, 0, 33, 97
1, 201835, Note_on_c, 0, 40, 95
1, 201843, Note_on_c, 0, 37, 90
1, 201858, Note_on_c, 0, 52, 82
1, 201871, Note_off_c, 0, 40, 61
1, 201878, Note_off_c, 0, 45, 63
1, 201891, Control_c, 0, 64, 66
1, 201896, Note_off_c, 0, 33, 64
1, 201906, Control_c, 0, 64, 127
1, 201907, Note_off_c, 0, 52, 59
1, 201910, Note_on_c, 0, 57, 62
1, 201924, Note_off_c, 0, 37, 60
1, 201928, Note_on_c, 0, 61, 72
1, 201962, Note_off_c, 0, 57, 60
1, 201968, Note_on_c, 0, 64, 58
1, 201985, Note_off_c, 0, 61, 62
1, 201991, Note_on_c, 0, 63, 31
1, 201997, Note_off_c, 0, 64, 65
1, 202026, Note_off_c, 0, 63, 52
1, 202048, Note_on_c, 0, 64, 77
1, 202113, Note_on_c, 0, 69, 73
1, 202132, Note_off_c, 0, 64, 53
1, 202154, Note_on_c, 0, 57, 89
1, 202159, Note_on_c, 0, 73, 71
1, 202191, Note_off_c, 0, 57, 61
1, 202194, Note_off_c, 0, 69, 62
1, 202197, Note_on_c, 0, 76, 70
1, 202230, Note_off_c, 0, 73, 63
1, 202234, Note_on_c, 0, 58, 73
1, 202235, Note_off_c, 0, 58, 127
1, 202236, Note_off_c, 0, 76, 58
1, 202238, Note_on_c, 0, 57, 90
1, 202240, Note_on_c, 0, 74, 11
1, 202276, Note_on_c, 0, 76, 72
1, 202290, Note_off_c, 0, 74, 37
1, 202304, Note_off_c, 0, 57, 59
1, 202316, Note_on_c, 0, 61, 90
1, 202353, Note_on_c, 0, 81, 81
1, 202362, Note_off_c, 0, 76, 57
1, 202391, Note_on_c, 0, 85, 75
1, 202392, Note_on_c, 0, 59, 75
1, 202410, Note_off_c, 0, 61, 59
1, 202418, Note_on_c, 0, 88, 73
1, 202421, Note_off_c, 0, 81, 63
1, 202448, Note_off_c, 0, 85, 64
1, 202459, Note_off_c, 0, 88, 57
1, 202483, Note_on_c, 0, 57, 68
1, 202488, Note_on_c, 0, 88, 75
1, 202566, Note_on_c, 0, 93, 79
1, 202569, Note_off_c, 0, 59, 37
1, 202585, Note_off_c, 0, 88, 59
1, 202596, Note_on_c, 0, 100, 88
1, 202597, Note_on_c, 0, 67, 99
1, 202598, Note_on_c, 0, 97, 81
1, 202644, Note_off_c, 0, 100, 64
1, 202648, Note_off_c, 0, 67, 63
1, 202662, Note_on_c, 0, 88, 80
1, 202665, Note_off_c, 0, 97, 64
1, 202674, Note_off_c, 0, 93, 62
1, 202676, Note_off_c, 0, 57, 61
1, 202704, Note_off_c, 0, 88, 62
1, 202777, Note_on_c, 0, 88, 52
1, 202786, Note_on_c, 0, 85, 69
1, 202788, Note_on_c, 0, 86, 59
1, 202799, Note_on_c, 0, 81, 67
1, 202828, Note_off_c, 0, 88, 60
1, 202848, Note_off_c, 0, 86, 47
1, 202862, Note_off_c, 0, 85, 64
1, 202872, Note_on_c, 0, 74, 73
1, 202878, Note_off_c, 0, 81, 61
1, 202879, Note_on_c, 0, 76, 60
1, 202889, Note_on_c, 0, 45, 90
1, 202906, Note_off_c, 0, 76, 67
1, 202913, Note_off_c, 0, 74, 59
1, 202926, Note_off_c, 0, 45, 59
1, 202970, Note_on_c, 0, 45, 92
1, 202971, Note_on_c, 0, 76, 78
1, 202989, Note_on_c, 0, 73, 73
1, 203008, Note_on_c, 0, 69, 73
1, 203010, Control_c, 0, 64, 97
1, 203024, Control_c, 0, 64, 76
1, 203039, Control_c, 0, 64, 59
1, 203042, Note_off_c, 0, 76, 60
1, 203043, Note_off_c, 0, 45, 56
1, 203047, Note_on_c, 0, 48, 86
1, 203054, Control_c, 0, 64, 21
1, 203060, Note_on_c, 0, 64, 78
1, 203069, Control_c, 0, 64, 0
1, 203073, Note_off_c, 0, 69, 64
1, 203073, Note_off_c, 0, 73, 63
1, 203106, Note_off_c, 0, 64, 61
1, 203135, Note_on_c, 0, 46, 84
1, 203148, Note_on_c, 0, 64, 75
1, 203170, Note_off_c, 0, 48, 62
1, 203172, Note_on_c, 0, 61, 70
1, 203198, Note_on_c, 0, 45, 76
1, 203200, Note_on_c, 0, 57, 64
1, 203249, Note_off_c, 0, 46, 59
1, 203252, Note_on_c, 0, 52, 89
1, 203257, Note_off_c, 0, 45, 61
1, 203318, Note_off_c, 0, 52, 61
1, 203319, Note_off_c, 0, 57, 57
1, 203339, Note_off_c, 0, 64, 55
1, 203344, Note_on_c, 0, 50, 106
1, 203345, Note_on_c, 0, 38, 92
1, 203348, Note_on_c, 0, 45, 92
1, 203357, Note_on_c, 0, 41, 80
1, 203362, Note_off_c, 0, 61, 57
1, 203372, Control_c, 0, 64, 59
1, 203387, Control_c, 0, 64, 127
1, 203391, Note_on_c, 0, 53, 79
1, 203410, Note_off_c, 0, 50, 60
1, 203419, Note_on_c, 0, 57, 66
1, 203425, Note_off_c, 0, 38, 63
1, 203428, Note_off_c, 0, 45, 55
1, 203432, Note_off_c, 0, 53, 63
1, 203443, Note_off_c, 0, 41, 61
1, 203467, Note_on_c, 0, 62, 71
1, 203485, Note_on_c, 0, 65, 76
1, 203486, Note_off_c, 0, 57, 62
1, 203525, Note_off_c, 0, 62, 57
1, 203527, Note_off_c, 0, 65, 56
1, 203562, Note_on_c, 0, 65, 66
1, 203637, Note_on_c, 0, 69, 80
1, 203646, Note_off_c, 0, 65, 58
1, 203664, Note_on_c, 0, 57, 88
1, 203685, Note_off_c, 0, 57, 66
1, 203702, Note_on_c, 0, 74, 77
1, 203719, Note_off_c, 0, 69, 64
1, 203726, Note_on_c, 0, 77, 75
1, 203749, Note_on_c, 0, 57, 100
1, 203760, Note_off_c, 0, 74, 59
1, 203774, Note_off_c, 0, 77, 52
1, 203802, Note_on_c, 0, 77, 60
1, 203816, Note_off_c, 0, 57, 52
1, 203820, Note_on_c, 0, 76, 44
1, 203821, Note_off_c, 0, 76, 127
1, 203821, Note_on_c, 0, 60, 89
1, 203871, Note_on_c, 0, 81, 83
1, 203893, Note_off_c, 0, 77, 55
1, 203899, Note_on_c, 0, 58, 83
1, 203917, Note_on_c, 0, 86, 77
1, 203932, Note_on_c, 0, 89, 83
1, 203937, Note_off_c, 0, 81, 64
1, 203942, Note_off_c, 0, 60, 57
1, 203970, Note_off_c, 0, 86, 61
1, 203977, Note_off_c, 0, 89, 61
1, 203985, Note_on_c, 0, 57, 70
1, 204011, Note_on_c, 0, 89, 75
1, 204018, Note_on_c, 0, 88, 62
1, 204019, Note_off_c, 0, 88, 127
1, 204089, Note_on_c, 0, 93, 88
1, 204099, Note_off_c, 0, 89, 60
1, 204105, Note_off_c, 0, 58, 0
1, 204125, Note_on_c, 0, 65, 95
1, 204126, Note_on_c, 0, 101, 92
1, 204126, Note_on_c, 0, 98, 79
1, 204149, Poly_aftertouch_c, 0, 58, 127
1, 204169, Note_off_c, 0, 101, 62
1, 204173, Note_off_c, 0, 65, 64
1, 204183, Note_on_c, 0, 89, 93
1, 204194, Note_off_c, 0, 98, 65
1, 204194, Note_off_c, 0, 57, 63
1, 204200, Note_off_c, 0, 93, 61
1, 204206, Poly_aftertouch_c, 0, 58, 0
1, 204222, Note_off_c, 0, 89, 64
1, 204266, Poly_aftertouch_c, 0, 56, 0
1, 204279, Note_on_c, 0, 89, 73
1, 204293, Note_on_c, 0, 86, 75
1, 204316, Note_on_c, 0, 81, 71
1, 204321, Note_on_c, 0, 88, 39
1, 204352, Note_off_c, 0, 88, 34
1, 204355, Note_off_c, 0, 89, 57
1, 204376, Note_on_c, 0, 38, 88
1, 204380, Note_on_c, 0, 77, 77
1, 204382, Note_off_c, 0, 86, 60
1, 204395, Note_off_c, 0, 81, 62
1, 204418, Note_off_c, 0, 38, 60
1, 204427, Note_off_c, 0, 77, 56
1, 204464, Note_on_c, 0, 38, 86
1, 204465, Note_on_c, 0, 77, 61
1, 204475, Note_on_c, 0, 74, 85
1, 204487, Note_on_c, 0, 69, 77
1, 204498, Note_on_c, 0, 76, 32
1, 204499, Note_off_c, 0, 76, 127
1, 204507, Control_c, 0, 64, 83
1, 204522, Control_c, 0, 64, 61
1, 204536, Control_c, 0, 64, 0
1, 204547, Note_off_c, 0, 77, 60
1, 204557, Note_on_c, 0, 37, 82
1, 204557, Note_on_c, 0, 65, 83
1, 204559, Note_off_c, 0, 38, 63
1, 204571, Note_off_c, 0, 74, 61
1, 204573, Note_off_c, 0, 69, 64
1, 204604, Note_off_c, 0, 65, 60
1, 204633, Note_on_c, 0, 38, 81
1, 204651, Note_on_c, 0, 62, 78
1, 204653, Note_on_c, 0, 67, 58
1, 204656, Note_on_c, 0, 65, 66
1, 204657, Note_off_c, 0, 37, 61
1, 204670, Note_on_c, 0, 57, 75
1, 204710, Note_on_c, 0, 40, 75
1, 204714, Note_off_c, 0, 38, 63
1, 204723, Note_off_c, 0, 67, 46
1, 204736, Note_on_c, 0, 53, 89
1, 204740, Note_off_c, 0, 40, 66
1, 204817, Note_off_c, 0, 53, 61
1, 204822, Note_off_c, 0, 57, 54
1, 204847, Control_c, 0, 64, 82
1, 204853, Note_on_c, 0, 53, 89
1, 204856, Note_on_c, 0, 41, 93
1, 204869, Control_c, 0, 64, 127
1, 204874, Note_off_c, 0, 62, 56
1, 204877, Note_on_c, 0, 52, 60
1, 204878, Note_off_c, 0, 52, 127
1, 204889, Note_off_c, 0, 65, 60
1, 204890, Note_off_c, 0, 41, 66
1, 204903, Note_off_c, 0, 53, 59
1, 205052, Note_on_c, 0, 56, 81
1, 205054, Note_on_c, 0, 65, 79
1, 205054, Note_on_c, 0, 71, 94
1, 205055, Note_on_c, 0, 62, 75
1, 205057, Note_on_c, 0, 83, 93
1, 205059, Note_on_c, 0, 74, 87
1, 205062, Note_on_c, 0, 63, 69
1, 205074, Note_off_c, 0, 65, 71
1, 205080, Note_off_c, 0, 63, 65
1, 205082, Note_off_c, 0, 62, 64
1, 205097, Note_off_c, 0, 71, 62
1, 205108, Note_off_c, 0, 74, 63
1, 205112, Note_off_c, 0, 56, 61
1, 205124, Note_off_c, 0, 83, 62
1, 205196, Control_c, 0, 64, 79
1, 205211, Control_c, 0, 64, 34
1, 205226, Control_c, 0, 64, 0
1, 205255, Note_on_c, 0, 56, 98
1, 205262, Note_on_c, 0, 44, 73
1, 205267, Note_on_c, 0, 57, 87
1, 205270, Control_c, 0, 64, 55
1, 205284, Note_off_c, 0, 44, 61
1, 205285, Control_c, 0, 64, 84
1, 205289, Note_off_c, 0, 57, 69
1, 205294, Note_off_c, 0, 56, 59
1, 205300, Control_c, 0, 64, 127
1, 205381, Poly_aftertouch_c, 0, 46, 0
1, 205418, Note_on_c, 0, 59, 92
1, 205418, Note_on_c, 0, 68, 95
1, 205419, Note_on_c, 0, 65, 85
1, 205420, Note_on_c, 0, 74, 101
1, 205424, Note_on_c, 0, 86, 89
1, 205430, Note_on_c, 0, 83, 77
1, 205432, Note_on_c, 0, 80, 83
1, 205433, Note_off_c, 0, 68, 70
1, 205457, Note_off_c, 0, 65, 56
1, 205476, Note_off_c, 0, 59, 61
1, 205477, Note_on_c, 0, 85, 31
1, 205500, Note_off_c, 0, 74, 58
1, 205513, Note_off_c, 0, 85, 50
1, 205520, Note_off_c, 0, 86, 58
1, 205536, Note_off_c, 0, 80, 53
1, 205537, Control_c, 0, 64, 91
1, 205551, Note_off_c, 0, 83, 37
1, 205552, Control_c, 0, 64, 45
1, 205566, Control_c, 0, 64, 0
1, 205631, Note_on_c, 0, 59, 110
1, 205633, Note_on_c, 0, 47, 93
1, 205633, Control_c, 0, 64, 40
1, 205648, Control_c, 0, 64, 78
1, 205661, Note_on_c, 0, 45, 42
1, 205662, Note_off_c, 0, 45, 127
1, 205663, Control_c, 0, 64, 127
1, 205667, Note_off_c, 0, 47, 60
1, 205675, Note_off_c, 0, 59, 62
1, 205825, Note_on_c, 0, 62, 93
1, 205828, Note_on_c, 0, 68, 93
1, 205828, Note_on_c, 0, 89, 97
1, 205830, Note_on_c, 0, 71, 77
1, 205830, Note_on_c, 0, 77, 100
1, 205832, Note_on_c, 0, 80, 94
1, 205837, Note_on_c, 0, 83, 89
1, 205850, Note_off_c, 0, 71, 70
1, 205863, Note_off_c, 0, 68, 66
1, 205880, Note_off_c, 0, 62, 61
1, 205929, Note_off_c, 0, 77, 52
1, 205929, Note_off_c, 0, 89, 55
1, 205932, Note_off_c, 0, 83, 57
1, 205945, Note_off_c, 0, 80, 53
1, 205975, Control_c, 0, 64, 109
1, 205989, Control_c, 0, 64, 65
1, 206004, Control_c, 0, 64, 0
1, 206062, Note_on_c, 0, 52, 110
1, 206063, Control_c, 0, 64, 27
1, 206066, Note_on_c, 0, 40, 95
1, 206078, Control_c, 0, 64, 79
1, 206089, Note_off_c, 0, 40, 69
1, 206093, Control_c, 0, 64, 127
1, 206111, Note_off_c, 0, 52, 62
1, 206139, Note_on_c, 0, 42, 3
1, 206177, Note_off_c, 0, 42, 51
1, 206310, Note_on_c, 0, 64, 86
1, 206314, Note_on_c, 0, 76, 102
1, 206315, Note_on_c, 0, 88, 88
1, 206316, Note_on_c, 0, 80, 96
1, 206317, Note_on_c, 0, 59, 81
1, 206317, Note_on_c, 0, 83, 94
1, 206320, Note_on_c, 0, 56, 81
1, 206349, Note_off_c, 0, 64, 59
1, 206355, Note_off_c, 0, 76, 65
1, 206355, Note_off_c, 0, 88, 64
1, 206367, Note_off_c, 0, 59, 62
1, 206374, Note_on_c, 0, 85, 9
1, 206385, Note_off_c, 0, 80, 62
1, 206387, Note_off_c, 0, 56, 63
1, 206393, Note_off_c, 0, 83, 63
1, 206418, Note_off_c, 0, 85, 50
1, 206649, Note_on_c, 0, 45, 102
1, 206653, Note_on_c, 0, 40, 91
1, 206656, Note_on_c, 0, 36, 74
1, 206659, Note_on_c, 0, 33, 90
1, 206664, Control_c, 0, 64, 77
1, 206677, Note_on_c, 0, 37, 60
1, 206679, Control_c, 0, 64, 0
1, 206711, Note_off_c, 0, 37, 35
1, 206734, Note_off_c, 0, 33, 62
1, 206747, Note_off_c, 0, 45, 55
1, 206754, Control_c, 0, 64, 45
1, 206762, Note_off_c, 0, 36, 60
1, 206767, Note_on_c, 0, 52, 64
1, 206769, Control_c, 0, 64, 75
1, 206775, Note_off_c, 0, 40, 61
1, 206784, Control_c, 0, 64, 118
1, 206798, Control_c, 0, 64, 127
1, 206809, Note_on_c, 0, 57, 59
1, 206828, Note_off_c, 0, 52, 58
1, 206838, Note_on_c, 0, 60, 68
1, 206865, Note_on_c, 0, 64, 75
1, 206871, Note_off_c, 0, 57, 62
1, 206899, Note_off_c, 0, 60, 58
1, 206904, Note_off_c, 0, 64, 57
1, 206949, Note_on_c, 0, 64, 64
1, 206992, Poly_aftertouch_c, 0, 62, 0
1, 207004, Note_on_c, 0, 57, 89
1, 207020, Note_on_c, 0, 69, 79
1, 207032, Note_off_c, 0, 64, 58
1, 207040, Note_off_c, 0, 57, 65
1, 207071, Note_on_c, 0, 72, 73
1, 207088, Note_on_c, 0, 57, 91
1, 207098, Note_off_c, 0, 69, 60
1, 207099, Note_on_c, 0, 76, 79
1, 207134, Note_on_c, 0, 74, 42
1, 207140, Note_off_c, 0, 72, 60
1, 207152, Note_off_c, 0, 76, 58
1, 207163, Note_off_c, 0, 74, 52
1, 207174, Note_on_c, 0, 76, 72
1, 207178, Note_off_c, 0, 57, 59
1, 207183, Note_on_c, 0, 60, 86
1, 207246, Note_on_c, 0, 81, 82
1, 207259, Note_off_c, 0, 76, 55
1, 207260, Note_on_c, 0, 59, 80
1, 207285, Note_on_c, 0, 84, 74
1, 207293, Note_off_c, 0, 60, 55
1, 207300, Note_on_c, 0, 88, 76
1, 207305, Note_off_c, 0, 81, 64
1, 207333, Note_on_c, 0, 86, 43
1, 207333, Note_off_c, 0, 84, 61
1, 207345, Note_off_c, 0, 88, 62
1, 207356, Note_on_c, 0, 57, 68
1, 207359, Note_off_c, 0, 86, 57
1, 207372, Note_on_c, 0, 88, 76
1, 207451, Note_on_c, 0, 93, 80
1, 207452, Note_off_c, 0, 59, 57
1, 207465, Note_off_c, 0, 88, 59
1, 207473, Note_on_c, 0, 100, 86
1, 207482, Note_on_c, 0, 96, 82
1, 207483, Note_on_c, 0, 64, 90
1, 207525, Note_off_c, 0, 100, 65
1, 207527, Note_off_c, 0, 64, 61
1, 207541, Note_on_c, 0, 88, 86
1, 207547, Note_off_c, 0, 96, 62
1, 207551, Note_off_c, 0, 57, 63
1, 207554, Note_off_c, 0, 93, 61
1, 207569, Note_off_c, 0, 88, 60
1, 207630, Note_on_c, 0, 88, 76
1, 207652, Note_on_c, 0, 84, 73
1, 207673, Note_on_c, 0, 81, 71
1, 207717, Note_off_c, 0, 88, 61
1, 207733, Note_on_c, 0, 40, 89
1, 207739, Note_on_c, 0, 76, 79
1, 207742, Note_off_c, 0, 84, 58
1, 207753, Note_off_c, 0, 81, 62
1, 207775, Note_off_c, 0, 40, 61
1, 207789, Note_off_c, 0, 76, 60
1, 207828, Note_on_c, 0, 40, 87
1, 207840, Note_on_c, 0, 76, 69
1, 207845, Note_on_c, 0, 77, 61
1, 207851, Note_on_c, 0, 72, 70
1, 207877, Note_off_c, 0, 77, 62
1, 207879, Note_on_c, 0, 74, 36
1, 207882, Note_on_c, 0, 69, 69
1, 207911, Note_off_c, 0, 74, 50
1, 207918, Note_off_c, 0, 76, 58
1, 207920, Note_on_c, 0, 43, 84
1, 207922, Note_off_c, 0, 40, 60
1, 207928, Note_on_c, 0, 64, 83
1, 207931, Note_off_c, 0, 72, 59
1, 207941, Note_off_c, 0, 69, 64
1, 207969, Control_c, 0, 64, 117
1, 207974, Note_off_c, 0, 64, 58
1, 207984, Control_c, 0, 64, 82
1, 207999, Control_c, 0, 64, 63
1, 208013, Control_c, 0, 64, 34
1, 208017, Note_on_c, 0, 41, 80
1, 208019, Note_on_c, 0, 64, 68
1, 208028, Note_on_c, 0, 60, 70
1, 208028, Control_c, 0, 64, 0
1, 208047, Note_off_c, 0, 43, 61
1, 208076, Note_on_c, 0, 57, 63
1, 208096, Note_on_c, 0, 40, 67
1, 208127, Note_on_c, 0, 52, 87
1, 208130, Note_off_c, 0, 41, 63
1, 208145, Note_off_c, 0, 40, 61
1, 208189, Note_off_c, 0, 57, 62
1, 208192, Note_off_c, 0, 52, 60
1, 208204, Note_off_c, 0, 60, 46
1, 208227, Note_on_c, 0, 45, 108
1, 208229, Note_on_c, 0, 33, 102
1, 208233, Note_on_c, 0, 40, 94
1, 208238, Note_on_c, 0, 37, 88
1, 208252, Note_on_c, 0, 52, 80
1, 208263, Note_off_c, 0, 40, 64
1, 208266, Control_c, 0, 64, 72
1, 208269, Note_off_c, 0, 45, 61
1, 208281, Control_c, 0, 64, 127
1, 208281, Note_off_c, 0, 33, 62
1, 208289, Note_on_c, 0, 57, 56
1, 208303, Note_off_c, 0, 37, 60
1, 208304, Note_off_c, 0, 52, 59
1, 208309, Note_off_c, 0, 64, 19
1, 208318, Note_on_c, 0, 61, 70
1, 208355, Note_off_c, 0, 57, 61
1, 208359, Note_on_c, 0, 64, 45
1, 208362, Note_on_c, 0, 63, 53
1, 208372, Note_off_c, 0, 61, 63
1, 208385, Note_off_c, 0, 63, 59
1, 208387, Note_off_c, 0, 64, 62
1, 208439, Note_on_c, 0, 64, 81
1, 208505, Note_on_c, 0, 69, 75
1, 208520, Note_off_c, 0, 64, 50
1, 208546, Note_on_c, 0, 73, 66
1, 208552, Note_on_c, 0, 57, 91
1, 208579, Note_on_c, 0, 76, 75
1, 208584, Note_off_c, 0, 69, 61
1, 208590, Note_off_c, 0, 57, 62
1, 208624, Note_off_c, 0, 73, 63
1, 208636, Note_on_c, 0, 57, 87
1, 208638, Note_off_c, 0, 76, 60
1, 208654, Poly_aftertouch_c, 0, 58, 0
1, 208672, Note_on_c, 0, 76, 66
1, 208693, Poly_aftertouch_c, 0, 74, 0
1, 208710, Note_off_c, 0, 57, 59
1, 208723, Note_on_c, 0, 61, 88
1, 208744, Note_on_c, 0, 81, 79
1, 208758, Note_off_c, 0, 76, 59
1, 208786, Note_on_c, 0, 85, 71
1, 208788, Note_on_c, 0, 59, 71
1, 208803, Note_off_c, 0, 61, 61
1, 208807, Note_on_c, 0, 88, 75
1, 208814, Note_off_c, 0, 81, 62
1, 208837, Note_off_c, 0, 85, 66
1, 208856, Note_off_c, 0, 88, 58
1, 208872, Note_on_c, 0, 57, 68
1, 208883, Note_on_c, 0, 88, 68
1, 208955, Note_on_c, 0, 93, 84
1, 208958, Note_off_c, 0, 59, 37
1, 208963, Note_off_c, 0, 88, 61
1, 208976, Note_on_c, 0, 100, 88
1, 208980, Note_on_c, 0, 67, 99
1, 208980, Note_on_c, 0, 97, 85
1, 209020, Note_on_c, 0, 99, 28
1, 209021, Note_off_c, 0, 99, 127
1, 209021, Note_off_c, 0, 100, 65
1, 209023, Note_off_c, 0, 67, 64
1, 209041, Note_on_c, 0, 88, 83
1, 209041, Note_off_c, 0, 97, 64
1, 209050, Note_off_c, 0, 57, 59
1, 209050, Note_off_c, 0, 93, 63
1, 209071, Note_off_c, 0, 88, 60
1, 209136, Note_on_c, 0, 88, 76
1, 209172, Note_on_c, 0, 81, 67
1, 209188, Note_on_c, 0, 85, 57
1, 209217, Note_off_c, 0, 88, 59
1, 209233, Note_off_c, 0, 85, 61
1, 209235, Note_on_c, 0, 76, 80
1, 209245, Note_on_c, 0, 45, 96
1, 209253, Note_off_c, 0, 81, 62
1, 209281, Note_off_c, 0, 76, 64
1, 209284, Note_off_c, 0, 45, 62
1, 209333, Note_on_c, 0, 45, 94
1, 209351, Note_on_c, 0, 76, 72
1, 209351, Note_on_c, 0, 74, 68
1, 209363, Control_c, 0, 64, 103
1, 209378, Control_c, 0, 64, 72
1, 209380, Note_on_c, 0, 73, 67
1, 209387, Note_on_c, 0, 69, 59
1, 209392, Control_c, 0, 64, 51
1, 209407, Control_c, 0, 64, 0
1, 209413, Note_off_c, 0, 45, 55
1, 209414, Note_off_c, 0, 76, 56
1, 209424, Note_on_c, 0, 48, 83
1, 209429, Note_off_c, 0, 74, 47
1, 209433, Note_on_c, 0, 64, 79
1, 209444, Note_off_c, 0, 73, 61
1, 209448, Note_off_c, 0, 69, 61
1, 209480, Note_off_c, 0, 64, 60
1, 209508, Note_on_c, 0, 46, 82
1, 209527, Note_on_c, 0, 64, 72
1, 209545, Note_off_c, 0, 48, 62
1, 209548, Note_on_c, 0, 61, 74
1, 209575, Note_on_c, 0, 57, 68
1, 209581, Note_on_c, 0, 45, 73
1, 209625, Note_off_c, 0, 46, 59
1, 209628, Note_on_c, 0, 52, 88
1, 209637, Note_off_c, 0, 45, 59
1, 209689, Note_off_c, 0, 52, 61
1, 209697, Note_off_c, 0, 57, 58
1, 209719, Note_on_c, 0, 38, 92
1, 209719, Note_on_c, 0, 50, 104
1, 209721, Note_on_c, 0, 45, 98
1, 209727, Note_on_c, 0, 41, 85
1, 209736, Note_off_c, 0, 61, 59
1, 209748, Control_c, 0, 64, 95
1, 209755, Note_on_c, 0, 53, 83
1, 209763, Control_c, 0, 64, 127
1, 209775, Note_off_c, 0, 50, 57
1, 209776, Note_off_c, 0, 64, 35
1, 209785, Note_off_c, 0, 45, 56
1, 209787, Note_on_c, 0, 57, 64
1, 209789, Note_off_c, 0, 38, 61
1, 209798, Note_off_c, 0, 53, 61
1, 209804, Note_off_c, 0, 41, 61
1, 209833, Poly_aftertouch_c, 0, 43, 0
1, 209836, Note_on_c, 0, 62, 68
1, 209855, Note_off_c, 0, 57, 62
1, 209855, Note_on_c, 0, 65, 79
1, 209894, Note_off_c, 0, 62, 57
1, 209902, Note_off_c, 0, 65, 61
1, 209937, Note_on_c, 0, 65, 67
1, 210011, Note_on_c, 0, 69, 79
1, 210016, Note_on_c, 0, 57, 92
1, 210022, Note_off_c, 0, 65, 56
1, 210055, Note_off_c, 0, 57, 62
1, 210070, Note_on_c, 0, 74, 76
1, 210085, Note_off_c, 0, 69, 64
1, 210085, Note_on_c, 0, 77, 78
1, 210099, Note_on_c, 0, 57, 94
1, 210132, Note_off_c, 0, 74, 63
1, 210142, Note_off_c, 0, 77, 57
1, 210168, Note_on_c, 0, 77, 70
1, 210189, Note_on_c, 0, 60, 85
1, 210205, Note_off_c, 0, 57, 52
1, 210238, Note_on_c, 0, 81, 81
1, 210254, Note_off_c, 0, 77, 57
1, 210255, Note_on_c, 0, 58, 80
1, 210281, Note_on_c, 0, 86, 77
1, 210298, Note_on_c, 0, 89, 81
1, 210302, Note_off_c, 0, 81, 64
1, 210302, Note_off_c, 0, 60, 56
1, 210332, Note_off_c, 0, 86, 60
1, 210338, Note_off_c, 0, 89, 56
1, 210342, Note_on_c, 0, 57, 69
1, 210362, Note_on_c, 0, 89, 69
1, 210408, Poly_aftertouch_c, 0, 56, 127
1, 210438, Poly_aftertouch_c, 0, 56, 0
1, 210452, Note_off_c, 0, 89, 61
1, 210453, Note_on_c, 0, 93, 69
1, 210453, Note_on_c, 0, 95, 78
1, 210463, Note_on_c, 0, 101, 89
1, 210463, Note_on_c, 0, 65, 94
1, 210472, Note_on_c, 0, 98, 72
1, 210481, Note_off_c, 0, 58, 0
1, 210490, Note_on_c, 0, 100, 50
1, 210512, Note_off_c, 0, 101, 61
1, 210517, Note_off_c, 0, 65, 63
1, 210517, Note_off_c, 0, 100, 36
1, 210520, Note_on_c, 0, 89, 91
1, 210523, Note_on_c, 0, 56, 32
1, 210526, Note_off_c, 0, 95, 61
1, 210535, Note_off_c, 0, 98, 65
1, 210538, Note_off_c, 0, 93, 61
1, 210547, Note_off_c, 0, 57, 61
1, 210551, Poly_aftertouch_c, 0, 58, 0
1, 210560, Note_off_c, 0, 56, 49
1, 210564, Note_off_c, 0, 89, 61
1, 210618, Note_on_c, 0, 89, 67
1, 210622, Note_on_c, 0, 86, 78
1, 210664, Note_on_c, 0, 81, 76
1, 210696, Note_off_c, 0, 89, 58
1, 210715, Note_on_c, 0, 38, 88
1, 210719, Note_on_c, 0, 77, 84
1, 210731, Note_off_c, 0, 86, 61
1, 210746, Note_off_c, 0, 81, 61
1, 210761, Note_off_c, 0, 38, 61
1, 210771, Note_off_c, 0, 77, 60
1, 210818, Note_on_c, 0, 38, 88
1, 210825, Note_on_c, 0, 77, 72
1, 210836, Note_on_c, 0, 74, 76
1, 210841, Note_on_c, 0, 76, 61
1, 210850, Note_on_c, 0, 69, 73
1, 210907, Note_on_c, 0, 37, 86
1, 210910, Note_off_c, 0, 77, 56
1, 210916, Note_on_c, 0, 65, 89
1, 210920, Control_c, 0, 64, 110
1, 210922, Note_off_c, 0, 38, 60
1, 210935, Control_c, 0, 64, 77
1, 210936, Note_off_c, 0, 74, 62
1, 210941, Note_off_c, 0, 76, 26
1, 210943, Note_off_c, 0, 69, 64
1, 210950, Control_c, 0, 64, 55
1, 210964, Control_c, 0, 64, 0
1, 210965, Note_off_c, 0, 65, 60
1, 210986, Note_on_c, 0, 38, 75
1, 211000, Note_off_c, 0, 37, 62
1, 211009, Note_on_c, 0, 65, 66
1, 211035, Note_on_c, 0, 62, 64
1, 211042, Note_on_c, 0, 64, 51
1, 211058, Note_on_c, 0, 57, 61
1, 211059, Note_on_c, 0, 40, 81
1, 211066, Note_off_c, 0, 64, 58
1, 211069, Note_off_c, 0, 38, 62
1, 211104, Note_on_c, 0, 53, 90
1, 211113, Note_off_c, 0, 40, 59
1, 211178, Note_off_c, 0, 53, 61
1, 211199, Note_off_c, 0, 57, 38
1, 211202, Control_c, 0, 64, 65
1, 211217, Control_c, 0, 64, 100
1, 211227, Note_on_c, 0, 53, 95
1, 211229, Note_on_c, 0, 52, 91
1, 211232, Control_c, 0, 64, 127
1, 211232, Note_on_c, 0, 41, 90
1, 211234, Note_on_c, 0, 40, 83
1, 211238, Note_off_c, 0, 62, 52
1, 211244, Note_off_c, 0, 52, 72
1, 211244, Note_off_c, 0, 65, 58
1, 211256, Note_off_c, 0, 40, 63
1, 211256, Note_off_c, 0, 41, 68
1, 211259, Note_off_c, 0, 53, 66
1, 211414, Note_on_c, 0, 65, 85
1, 211415, Note_on_c, 0, 62, 85
1, 211417, Note_on_c, 0, 56, 87
1, 211420, Note_on_c, 0, 71, 94
1, 211422, Note_on_c, 0, 74, 94
1, 211423, Note_on_c, 0, 83, 100
1, 211441, Note_off_c, 0, 65, 63
1, 211444, Note_off_c, 0, 62, 61
1, 211465, Note_off_c, 0, 71, 63
1, 211475, Note_off_c, 0, 56, 60
1, 211481, Note_off_c, 0, 74, 64
1, 211492, Note_off_c, 0, 83, 62
1, 211543, Control_c, 0, 64, 73
1, 211558, Control_c, 0, 64, 0
1, 211634, Note_on_c, 0, 56, 111
1, 211640, Control_c, 0, 64, 29
1, 211642, Note_on_c, 0, 44, 88
1, 211655, Control_c, 0, 64, 79
1, 211664, Note_off_c, 0, 44, 66
1, 211669, Control_c, 0, 64, 127
1, 211673, Note_off_c, 0, 56, 59
1, 211810, Note_on_c, 0, 64, 81
1, 211810, Note_on_c, 0, 68, 91
1, 211813, Note_on_c, 0, 59, 84
1, 211813, Note_on_c, 0, 74, 102
1, 211819, Note_on_c, 0, 86, 86
1, 211822, Note_on_c, 0, 80, 76
1, 211822, Note_on_c, 0, 83, 72
1, 211828, Note_off_c, 0, 68, 69
1, 211852, Note_off_c, 0, 64, 59
1, 211869, Note_off_c, 0, 59, 61
1, 211870, Note_on_c, 0, 85, 35
1, 211876, Note_off_c, 0, 74, 61
1, 211901, Note_off_c, 0, 86, 59
1, 211907, Note_off_c, 0, 80, 56
1, 211908, Note_off_c, 0, 85, 48
1, 211921, Control_c, 0, 64, 76
1, 211931, Note_off_c, 0, 83, 38
1, 211936, Control_c, 0, 64, 29
1, 211951, Control_c, 0, 64, 0
1, 212016, Note_on_c, 0, 47, 97
1, 212017, Note_on_c, 0, 59, 110
1, 212025, Control_c, 0, 64, 63
1, 212040, Control_c, 0, 64, 122
1, 212052, Note_off_c, 0, 47, 65
1, 212054, Control_c, 0, 64, 127
1, 212058, Note_on_c, 0, 57, 23
1, 212059, Note_off_c, 0, 57, 127
1, 212063, Note_off_c, 0, 59, 62
1, 212095, Poly_aftertouch_c, 0, 57, 0
1, 212216, Note_on_c, 0, 62, 93
1, 212216, Note_on_c, 0, 68, 93
1, 212217, Note_on_c, 0, 71, 86
1, 212217, Note_on_c, 0, 77, 93
1, 212218, Note_on_c, 0, 89, 97
1, 212219, Note_on_c, 0, 80, 89
1, 212223, Note_on_c, 0, 83, 82
1, 212237, Note_off_c, 0, 71, 69
1, 212253, Note_off_c, 0, 68, 64
1, 212269, Note_off_c, 0, 62, 59
1, 212308, Note_off_c, 0, 83, 54
1, 212318, Note_off_c, 0, 89, 55
1, 212319, Note_off_c, 0, 77, 52
1, 212335, Note_off_c, 0, 80, 50
1, 212389, Control_c, 0, 64, 72
1, 212404, Control_c, 0, 64, 0
1, 212474, Note_on_c, 0, 52, 103
1, 212475, Note_on_c, 0, 40, 94
1, 212478, Control_c, 0, 64, 66
1, 212487, Note_on_c, 0, 50, 67
1, 212488, Note_off_c, 0, 50, 127
1, 212492, Control_c, 0, 64, 109
1, 212502, Note_off_c, 0, 40, 66
1, 212507, Control_c, 0, 64, 127
1, 212512, Note_off_c, 0, 52, 62
1, 212610, Poly_aftertouch_c, 0, 42, 0
1, 212734, Note_on_c, 0, 59, 27
1, 212738, Note_on_c, 0, 88, 86
1, 212738, Note_on_c, 0, 64, 98
1, 212738, Note_on_c, 0, 76, 103
1, 212740, Note_on_c, 0, 56, 76
1, 212741, Note_on_c, 0, 80, 95
1, 212744, Note_on_c, 0, 83, 94
1, 212774, Note_off_c, 0, 88, 61
1, 212779, Note_on_c, 0, 85, 39
1, 212790, Note_off_c, 0, 83, 64
1, 212792, Note_off_c, 0, 64, 62
1, 212797, Note_off_c, 0, 76, 62
1, 212800, Note_off_c, 0, 80, 61
1, 212806, Note_off_c, 0, 85, 56
1, 212813, Note_off_c, 0, 59, 59
1, 212840, Note_off_c, 0, 56, 60
1, 213167, Note_on_c, 0, 45, 95
1, 213168, Note_on_c, 0, 33, 99
1, 213195, Note_on_c, 0, 51, 57
1, 213199, Note_on_c, 0, 40, 54
1, 213200, Note_off_c, 0, 40, 127
1, 213229, Note_on_c, 0, 52, 11
1, 213240, Control_c, 0, 64, 77
1, 213255, Control_c, 0, 64, 34
1, 213265, Poly_aftertouch_c, 0, 50, 0
1, 213267, Poly_aftertouch_c, 0, 54, 127
1, 213270, Control_c, 0, 64, 0
1, 213276, Note_off_c, 0, 52, 39
1, 213288, Note_off_c, 0, 51, 23
1, 213410, Poly_aftertouch_c, 0, 54, 0
1, 213411, Note_on_c, 0, 49, 71
1, 213414, Note_off_c, 0, 45, 55
1, 213418, Control_c, 0, 64, 71
1, 213427, Note_on_c, 0, 37, 68
1, 213433, Control_c, 0, 64, 91
1, 213448, Control_c, 0, 64, 127
1, 213461, Note_off_c, 0, 33, 50
1, 213480, Note_off_c, 0, 49, 62
1, 213482, Note_on_c, 0, 40, 68
1, 213500, Note_on_c, 0, 52, 65
1, 213531, Note_off_c, 0, 52, 63
1, 213536, Note_off_c, 0, 37, 57
1, 213542, Note_on_c, 0, 45, 74
1, 213551, Note_off_c, 0, 40, 59
1, 213573, Note_off_c, 0, 45, 54
1, 213575, Note_on_c, 0, 57, 75
1, 213641, Note_off_c, 0, 57, 58
1, 213646, Note_on_c, 0, 61, 77
1, 213653, Note_on_c, 0, 49, 77
1, 213709, Note_off_c, 0, 61, 62
1, 213709, Note_on_c, 0, 52, 71
1, 213718, Note_on_c, 0, 64, 72
1, 213739, Note_off_c, 0, 64, 68
1, 213748, Note_off_c, 0, 49, 59
1, 213762, Note_off_c, 0, 52, 59
1, 213766, Note_on_c, 0, 57, 66
1, 213780, Note_on_c, 0, 55, 52
1, 213791, Note_off_c, 0, 57, 65
1, 213793, Note_on_c, 0, 69, 73
1, 213806, Note_off_c, 0, 55, 57
1, 213820, Note_on_c, 0, 67, 21
1, 213821, Note_off_c, 0, 67, 127
1, 213865, Note_on_c, 0, 61, 73
1, 213867, Poly_aftertouch_c, 0, 67, 0
1, 213878, Note_on_c, 0, 72, 69
1, 213900, Note_off_c, 0, 69, 39
1, 213915, Note_on_c, 0, 64, 71
1, 213930, Note_on_c, 0, 76, 68
1, 213932, Note_off_c, 0, 72, 57
1, 213936, Note_on_c, 0, 74, 58
1, 213956, Note_off_c, 0, 74, 62
1, 213956, Note_off_c, 0, 76, 67
1, 213968, Note_off_c, 0, 61, 60
1, 213975, Note_off_c, 0, 64, 51
1, 213977, Note_on_c, 0, 69, 80
1, 213987, Note_on_c, 0, 67, 41
1, 214000, Note_on_c, 0, 81, 88
1, 214000, Note_off_c, 0, 69, 64
1, 214016, Note_off_c, 0, 67, 49
1, 214067, Note_on_c, 0, 73, 81
1, 214097, Note_off_c, 0, 81, 53
1, 214097, Note_on_c, 0, 86, 61
1, 214098, Note_on_c, 0, 85, 53
1, 214121, Note_on_c, 0, 88, 81
1, 214121, Note_on_c, 0, 76, 59
1, 214149, Note_off_c, 0, 76, 65
1, 214159, Note_off_c, 0, 85, 36
1, 214173, Note_on_c, 0, 81, 90
1, 214177, Note_off_c, 0, 73, 48
1, 214180, Note_on_c, 0, 93, 103
1, 214191, Note_off_c, 0, 88, 64
1, 214192, Note_off_c, 0, 86, 37
1, 214230, Note_off_c, 0, 81, 64
1, 214237, Note_on_c, 0, 76, 66
1, 214254, Note_on_c, 0, 88, 78
1, 214292, Note_on_c, 0, 73, 79
1, 214292, Note_on_c, 0, 87, 19
1, 214293, Note_off_c, 0, 87, 127
1, 214296, Note_off_c, 0, 93, 53
1, 214303, Note_off_c, 0, 76, 62
1, 214307, Note_on_c, 0, 85, 80
1, 214325, Note_off_c, 0, 88, 60
1, 214332, Note_off_c, 0, 73, 65
1, 214339, Note_on_c, 0, 81, 82
1, 214350, Note_off_c, 0, 85, 64
1, 214370, Note_off_c, 0, 81, 62
1, 214383, Note_on_c, 0, 69, 73
1, 214432, Note_on_c, 0, 76, 69
1, 214437, Note_on_c, 0, 64, 72
1, 214440, Note_off_c, 0, 69, 63
1, 214484, Note_off_c, 0, 76, 56
1, 214489, Note_on_c, 0, 73, 75
1, 214499, Note_on_c, 0, 61, 68
1, 214500, Note_off_c, 0, 64, 60
1, 214534, Note_off_c, 0, 61, 60
1, 214542, Note_on_c, 0, 69, 68
1, 214546, Note_off_c, 0, 73, 62
1, 214568, Note_off_c, 0, 69, 67
1, 214582, Note_on_c, 0, 57, 73
1, 214628, Note_on_c, 0, 64, 68
1, 214648, Note_off_c, 0, 57, 60
1, 214666, Note_on_c, 0, 52, 61
1, 214672, Note_on_c, 0, 50, 64
1, 214693, Note_on_c, 0, 61, 68
1, 214699, Note_off_c, 0, 64, 57
1, 214717, Note_off_c, 0, 52, 58
1, 214723, Note_on_c, 0, 49, 52
1, 214723, Note_off_c, 0, 50, 57
1, 214740, Note_off_c, 0, 61, 57
1, 214747, Note_on_c, 0, 48, 52
1, 214757, Note_off_c, 0, 49, 54
1, 214771, Note_on_c, 0, 57, 34
1, 214773, Note_off_c, 0, 48, 58
1, 214807, Note_on_c, 0, 45, 72
1, 214808, Note_off_c, 0, 57, 51
1, 214827, Note_on_c, 0, 52, 67
1, 214841, Note_on_c, 0, 43, 51
1, 214869, Note_on_c, 0, 40, 74
1, 214869, Note_off_c, 0, 43, 59
1, 214870, Note_off_c, 0, 45, 57
1, 214873, Note_on_c, 0, 54, 24
1, 214886, Note_on_c, 0, 49, 73
1, 214907, Note_on_c, 0, 37, 76
1, 214914, Note_off_c, 0, 54, 48
1, 214916, Note_off_c, 0, 52, 49
1, 214932, Note_off_c, 0, 40, 61
1, 214957, Note_on_c, 0, 45, 100
1, 214962, Note_on_c, 0, 33, 95
1, 214976, Note_off_c, 0, 49, 58
1, 214976, Control_c, 0, 64, 105
1, 214983, Note_off_c, 0, 37, 59
1, 214991, Note_on_c, 0, 54, 55
1, 214991, Control_c, 0, 64, 60
1, 215005, Control_c, 0, 64, 0
1, 215019, Note_off_c, 0, 54, 41
1, 215066, Note_on_c, 0, 49, 77
1, 215069, Note_off_c, 0, 45, 57
1, 215094, Control_c, 0, 64, 31
1, 215098, Note_on_c, 0, 37, 61
1, 215109, Control_c, 0, 64, 69
1, 215122, Note_off_c, 0, 49, 63
1, 215123, Control_c, 0, 64, 90
1, 215128, Note_off_c, 0, 33, 55
1, 215134, Note_on_c, 0, 52, 74
1, 215134, Note_on_c, 0, 40, 74
1, 215138, Control_c, 0, 64, 127
1, 215158, Note_off_c, 0, 52, 64
1, 215179, Note_off_c, 0, 37, 58
1, 215194, Note_on_c, 0, 45, 75
1, 215200, Note_off_c, 0, 40, 59
1, 215208, Note_on_c, 0, 57, 80
1, 215224, Note_off_c, 0, 45, 61
1, 215280, Note_on_c, 0, 61, 78
1, 215282, Note_off_c, 0, 57, 57
1, 215299, Note_on_c, 0, 49, 75
1, 215334, Note_off_c, 0, 61, 59
1, 215340, Note_on_c, 0, 64, 71
1, 215367, Note_on_c, 0, 52, 61
1, 215375, Note_off_c, 0, 64, 63
1, 215385, Note_on_c, 0, 53, 47
1, 215399, Note_off_c, 0, 49, 60
1, 215408, Note_off_c, 0, 52, 58
1, 215408, Note_on_c, 0, 57, 78
1, 215415, Note_off_c, 0, 53, 57
1, 215425, Note_on_c, 0, 69, 87
1, 215447, Note_off_c, 0, 57, 60
1, 215495, Note_on_c, 0, 73, 84
1, 215498, Note_off_c, 0, 69, 58
1, 215504, Note_on_c, 0, 61, 77
1, 215545, Note_on_c, 0, 76, 80
1, 215548, Note_off_c, 0, 73, 64
1, 215557, Note_on_c, 0, 64, 78
1, 215585, Note_off_c, 0, 76, 64
1, 215600, Note_off_c, 0, 61, 60
1, 215611, Note_on_c, 0, 69, 84
1, 215618, Note_off_c, 0, 64, 55
1, 215626, Note_on_c, 0, 81, 90
1, 215640, Note_off_c, 0, 69, 59
1, 215702, Note_on_c, 0, 85, 78
1, 215706, Note_on_c, 0, 73, 84
1, 215709, Note_off_c, 0, 81, 53
1, 215742, Note_on_c, 0, 88, 80
1, 215754, Note_off_c, 0, 85, 66
1, 215763, Note_on_c, 0, 76, 64
1, 215783, Note_off_c, 0, 88, 65
1, 215789, Note_off_c, 0, 76, 63
1, 215793, Note_off_c, 0, 73, 64
1, 215814, Note_on_c, 0, 81, 85
1, 215826, Note_on_c, 0, 93, 84
1, 215895, Note_off_c, 0, 93, 47
1, 215898, Note_on_c, 0, 85, 87
1, 215900, Note_on_c, 0, 97, 86
1, 215920, Note_off_c, 0, 81, 47
1, 215929, Note_off_c, 0, 85, 61
1, 215950, Note_on_c, 0, 93, 82
1, 215951, Note_on_c, 0, 96, 64
1, 215951, Note_off_c, 0, 97, 64
1, 215969, Note_off_c, 0, 96, 64
1, 215978, Note_on_c, 0, 81, 58
1, 215993, Note_off_c, 0, 93, 62
1, 216005, Note_off_c, 0, 81, 66
1, 216039, Note_on_c, 0, 76, 81
1, 216040, Note_on_c, 0, 88, 77
1, 216057, Poly_aftertouch_c, 0, 83, 0
1, 216105, Note_on_c, 0, 73, 76
1, 216106, Note_off_c, 0, 76, 63
1, 216119, Note_on_c, 0, 85, 81
1, 216137, Note_off_c, 0, 88, 58
1, 216149, Note_off_c, 0, 73, 64
1, 216177, Note_off_c, 0, 85, 63
1, 216181, Note_on_c, 0, 81, 61
1, 216197, Note_on_c, 0, 69, 78
1, 216205, Note_off_c, 0, 81, 67
1, 216247, Note_off_c, 0, 69, 64
1, 216253, Note_on_c, 0, 64, 76
1, 216255, Note_on_c, 0, 76, 72
1, 216315, Note_on_c, 0, 61, 69
1, 216319, Note_on_c, 0, 73, 77
1, 216320, Note_off_c, 0, 64, 61
1, 216325, Note_off_c, 0, 76, 62
1, 216344, Note_off_c, 0, 61, 63
1, 216362, Note_on_c, 0, 69, 70
1, 216368, Note_off_c, 0, 73, 63
1, 216383, Note_off_c, 0, 69, 70
1, 216413, Note_on_c, 0, 57, 61
1, 216414, Note_on_c, 0, 55, 61
1, 216443, Note_on_c, 0, 64, 72
1, 216452, Note_off_c, 0, 57, 58
1, 216458, Note_on_c, 0, 52, 80
1, 216463, Note_off_c, 0, 55, 56
1, 216500, Note_off_c, 0, 64, 46
1, 216505, Note_on_c, 0, 61, 71
1, 216511, Note_on_c, 0, 49, 74
1, 216518, Note_off_c, 0, 52, 61
1, 216551, Note_off_c, 0, 61, 57
1, 216552, Note_on_c, 0, 57, 66
1, 216553, Note_off_c, 0, 49, 61
1, 216574, Note_off_c, 0, 57, 69
1, 216595, Note_on_c, 0, 45, 80
1, 216595, Poly_aftertouch_c, 0, 63, 0
1, 216634, Note_on_c, 0, 52, 66
1, 216649, Note_on_c, 0, 40, 75
1, 216660, Note_off_c, 0, 45, 53
1, 216688, Note_on_c, 0, 54, 18
1, 216694, Note_on_c, 0, 49, 77
1, 216699, Note_on_c, 0, 37, 78
1, 216710, Note_off_c, 0, 52, 52
1, 216732, Note_off_c, 0, 54, 53
1, 216736, Note_off_c, 0, 40, 60
1, 216753, Note_off_c, 0, 37, 61
1, 216770, Note_on_c, 0, 45, 98
1, 216778, Note_on_c, 0, 33, 96
1, 216784, Control_c, 0, 64, 74
1, 216797, Note_on_c, 0, 35, 78
1, 216799, Control_c, 0, 64, 0
1, 216803, Note_on_c, 0, 54, 55
1, 216805, Note_off_c, 0, 49, 62
1, 216826, Note_off_c, 0, 35, 65
1, 216889, Note_off_c, 0, 54, 37
1, 216910, Note_off_c, 0, 45, 60
1, 216910, Control_c, 0, 64, 25
1, 216914, Note_on_c, 0, 49, 76
1, 216925, Control_c, 0, 64, 72
1, 216940, Control_c, 0, 64, 101
1, 216953, Note_on_c, 0, 37, 77
1, 216955, Control_c, 0, 64, 127
1, 216972, Note_off_c, 0, 49, 59
1, 216989, Note_on_c, 0, 52, 67
1, 216990, Note_off_c, 0, 33, 57
1, 217003, Note_on_c, 0, 50, 12
1, 217019, Note_on_c, 0, 41, 43
1, 217019, Note_off_c, 0, 52, 64
1, 217024, Note_on_c, 0, 40, 59
1, 217048, Note_off_c, 0, 37, 60
1, 217052, Note_off_c, 0, 50, 51
1, 217054, Note_on_c, 0, 45, 74
1, 217059, Note_off_c, 0, 40, 62
1, 217060, Note_off_c, 0, 41, 62
1, 217062, Note_on_c, 0, 57, 75
1, 217087, Note_off_c, 0, 45, 63
1, 217119, Note_on_c, 0, 47, 13
1, 217133, Note_on_c, 0, 61, 76
1, 217137, Note_off_c, 0, 57, 58
1, 217163, Note_on_c, 0, 49, 76
1, 217164, Note_off_c, 0, 47, 52
1, 217192, Poly_aftertouch_c, 0, 59, 0
1, 217198, Note_off_c, 0, 61, 60
1, 217199, Note_on_c, 0, 64, 74
1, 217223, Note_on_c, 0, 52, 69
1, 217231, Note_off_c, 0, 64, 61
1, 217260, Note_off_c, 0, 49, 59
1, 217264, Note_on_c, 0, 57, 74
1, 217277, Note_off_c, 0, 52, 53
1, 217281, Note_on_c, 0, 69, 90
1, 217307, Note_off_c, 0, 57, 59
1, 217348, Note_on_c, 0, 73, 84
1, 217365, Note_on_c, 0, 61, 78
1, 217385, Note_off_c, 0, 69, 38
1, 217413, Note_on_c, 0, 76, 70
1, 217421, Note_off_c, 0, 73, 64
1, 217423, Note_on_c, 0, 64, 73
1, 217440, Note_off_c, 0, 76, 65
1, 217461, Note_off_c, 0, 61, 60
1, 217475, Note_off_c, 0, 64, 54
1, 217483, Note_on_c, 0, 69, 75
1, 217486, Note_on_c, 0, 81, 91
1, 217505, Note_off_c, 0, 69, 68
1, 217563, Note_on_c, 0, 85, 83
1, 217569, Note_on_c, 0, 73, 81
1, 217602, Note_off_c, 0, 81, 38
1, 217618, Note_on_c, 0, 88, 82
1, 217622, Note_on_c, 0, 76, 74
1, 217634, Note_off_c, 0, 85, 65
1, 217654, Note_off_c, 0, 76, 62
1, 217659, Note_off_c, 0, 88, 64
1, 217662, Note_off_c, 0, 73, 64
1, 217689, Note_on_c, 0, 81, 79
1, 217701, Note_on_c, 0, 93, 83
1, 217710, Note_off_c, 0, 81, 69
1, 217768, Note_on_c, 0, 85, 84
1, 217776, Note_on_c, 0, 97, 92
1, 217817, Note_off_c, 0, 93, 59
1, 217855, Note_off_c, 0, 85, 66
1, 217858, Note_on_c, 0, 101, 100
1, 217859, Note_on_c, 0, 89, 88
1, 217882, Note_off_c, 0, 97, 65
1, 217949, Note_on_c, 0, 88, 82
1, 217951, Note_on_c, 0, 100, 69
1, 217952, Note_on_c, 0, 98, 63
1, 217963, Note_off_c, 0, 89, 59
1, 217996, Note_off_c, 0, 101, 59
1, 218002, Note_on_c, 0, 85, 79
1, 218007, Note_off_c, 0, 88, 64
1, 218012, Note_on_c, 0, 97, 74
1, 218037, Note_off_c, 0, 85, 68
1, 218046, Note_off_c, 0, 98, 58
1, 218048, Note_off_c, 0, 100, 63
1, 218049, Note_off_c, 0, 97, 65
1, 218050, Note_on_c, 0, 93, 84
1, 218076, Note_off_c, 0, 93, 63
1, 218096, Note_on_c, 0, 83, 60
1, 218102, Note_on_c, 0, 81, 63
1, 218118, Note_off_c, 0, 83, 64
1, 218118, Note_off_c, 0, 81, 67
1, 218131, Note_on_c, 0, 88, 77
1, 218154, Note_on_c, 0, 77, 59
1, 218159, Note_on_c, 0, 76, 72
1, 218193, Note_off_c, 0, 77, 59
1, 218204, Note_on_c, 0, 73, 78
1, 218210, Note_on_c, 0, 85, 80
1, 218214, Note_off_c, 0, 76, 61
1, 218237, Note_off_c, 0, 88, 61
1, 218258, Note_off_c, 0, 73, 63
1, 218263, Note_on_c, 0, 81, 66
1, 218272, Note_off_c, 0, 85, 62
1, 218290, Note_off_c, 0, 81, 66
1, 218294, Note_on_c, 0, 71, 72
1, 218321, Note_on_c, 0, 69, 47
1, 218339, Note_on_c, 0, 76, 74
1, 218352, Note_off_c, 0, 71, 62
1, 218354, Note_off_c, 0, 69, 59
1, 218377, Note_on_c, 0, 65, 56
1, 218382, Note_on_c, 0, 64, 64
1, 218410, Note_off_c, 0, 65, 62
1, 218416, Note_off_c, 0, 64, 59
1, 218416, Note_on_c, 0, 73, 77
1, 218419, Note_on_c, 0, 61, 54
1, 218426, Note_off_c, 0, 76, 62
1, 218443, Note_on_c, 0, 62, 63
1, 218453, Note_off_c, 0, 61, 50
1, 218464, Note_on_c, 0, 69, 69
1, 218464, Note_off_c, 0, 62, 62
1, 218473, Note_off_c, 0, 73, 62
1, 218484, Note_off_c, 0, 69, 71
1, 218503, Note_on_c, 0, 59, 76
1, 218547, Note_on_c, 0, 64, 69
1, 218563, Note_off_c, 0, 59, 58
1, 218575, Note_on_c, 0, 53, 65
1, 218582, Note_on_c, 0, 52, 66
1, 218611, Note_on_c, 0, 61, 70
1, 218613, Note_off_c, 0, 64, 59
1, 218632, Note_on_c, 0, 50, 64
1, 218640, Note_off_c, 0, 53, 55
1, 218645, Note_off_c, 0, 52, 57
1, 218672, Note_off_c, 0, 50, 62
1, 218673, Note_on_c, 0, 57, 74
1, 218680, Note_off_c, 0, 61, 60
1, 218687, Note_on_c, 0, 49, 16
1, 218706, Note_off_c, 0, 57, 59
1, 218726, Note_on_c, 0, 45, 77
1, 218730, Note_off_c, 0, 49, 52
1, 218772, Note_on_c, 0, 40, 78
1, 218772, Note_on_c, 0, 52, 71
1, 218792, Note_off_c, 0, 45, 51
1, 218797, Note_off_c, 0, 52, 66
1, 218807, Note_on_c, 0, 49, 80
1, 218816, Note_on_c, 0, 51, 42
1, 218824, Note_on_c, 0, 37, 79
1, 218845, Note_off_c, 0, 51, 56
1, 218863, Note_off_c, 0, 49, 61
1, 218871, Note_off_c, 0, 40, 56
1, 218882, Note_on_c, 0, 33, 87
1, 218886, Note_on_c, 0, 45, 91
1, 218903, Note_off_c, 0, 37, 60
1, 218956, Control_c, 0, 64, 92
1, 218970, Control_c, 0, 64, 60
1, 218985, Control_c, 0, 64, 0
1, 219030, Note_on_c, 0, 46, 72
1, 219036, Note_off_c, 0, 33, 57
1, 219038, Note_off_c, 0, 45, 56
1, 219041, Note_on_c, 0, 34, 69
1, 219074, Control_c, 0, 64, 54
1, 219096, Control_c, 0, 64, 72
1, 219111, Control_c, 0, 64, 91
1, 219117, Note_off_c, 0, 46, 57
1, 219121, Note_off_c, 0, 34, 60
1, 219126, Control_c, 0, 64, 127
1, 219131, Note_on_c, 0, 33, 59
1, 219131, Note_on_c, 0, 45, 69
1, 219188, Note_off_c, 0, 45, 52
1, 219202, Note_off_c, 0, 33, 58
1, 219203, Note_on_c, 0, 46, 63
1, 219207, Note_on_c, 0, 34, 58
1, 219252, Note_off_c, 0, 34, 60
1, 219254, Note_off_c, 0, 46, 56
1, 219267, Note_on_c, 0, 33, 57
1, 219278, Note_on_c, 0, 45, 65
1, 219318, Note_off_c, 0, 45, 56
1, 219332, Note_off_c, 0, 33, 47
1, 219347, Note_on_c, 0, 34, 66
1, 219348, Note_on_c, 0, 46, 61
1, 219382, Note_off_c, 0, 46, 56
1, 219396, Note_off_c, 0, 34, 60
1, 219407, Note_on_c, 0, 33, 59
1, 219409, Note_on_c, 0, 45, 68
1, 219464, Note_off_c, 0, 33, 58
1, 219467, Note_off_c, 0, 45, 50
1, 219483, Note_on_c, 0, 46, 66
1, 219498, Note_on_c, 0, 34, 60
1, 219528, Note_off_c, 0, 34, 64
1, 219540, Note_off_c, 0, 46, 51
1, 219550, Note_on_c, 0, 33, 62
1, 219558, Note_on_c, 0, 45, 63
1, 219606, Note_off_c, 0, 45, 59
1, 219612, Note_on_c, 0, 34, 58
1, 219612, Note_on_c, 0, 46, 56
1, 219612, Note_off_c, 0, 33, 53
1, 219676, Note_off_c, 0, 34, 56
1, 219681, Note_off_c, 0, 46, 53
1, 219689, Note_on_c, 0, 33, 51
1, 219693, Note_on_c, 0, 45, 67
1, 219751, Note_on_c, 0, 34, 66
1, 219753, Note_on_c, 0, 46, 65
1, 219756, Note_off_c, 0, 33, 57
1, 219767, Note_off_c, 0, 45, 49
1, 219809, Note_off_c, 0, 46, 59
1, 219820, Note_on_c, 0, 35, 78
1, 219822, Note_off_c, 0, 34, 61
1, 219829, Note_on_c, 0, 47, 77
1, 219896, Note_on_c, 0, 36, 78
1, 219907, Note_on_c, 0, 48, 67
1, 219916, Note_off_c, 0, 47, 53
1, 219921, Note_on_c, 0, 49, 78
1, 219935, Note_on_c, 0, 37, 80
1, 219940, Note_off_c, 0, 48, 62
1, 219972, Note_off_c, 0, 36, 60
1, 219975, Note_off_c, 0, 49, 60
1, 219993, Note_on_c, 0, 38, 88
1, 219996, Note_on_c, 0, 50, 75
1, 220000, Note_off_c, 0, 35, 29
1, 220008, Note_off_c, 0, 37, 61
1, 220047, Note_on_c, 0, 51, 72
1, 220065, Note_on_c, 0, 39, 81
1, 220079, Note_on_c, 0, 40, 79
1, 220093, Note_off_c, 0, 50, 0
1, 220094, Note_on_c, 0, 52, 78
1, 220097, Note_off_c, 0, 51, 64
1, 220121, Note_on_c, 0, 50, 11
1, 220142, Control_c, 0, 64, 69
1, 220142, Note_on_c, 0, 53, 91
1, 220145, Note_on_c, 0, 41, 93
1, 220156, Note_off_c, 0, 38, 26
1, 220157, Control_c, 0, 64, 0
1, 220158, Note_off_c, 0, 50, 52
1, 220160, Poly_aftertouch_c, 0, 49, 0
1, 220164, Note_off_c, 0, 39, 61
1, 220168, Note_off_c, 0, 40, 60
1, 220173, Note_off_c, 0, 52, 62
1, 220228, Note_on_c, 0, 52, 70
1, 220232, Control_c, 0, 64, 34
1, 220235, Note_on_c, 0, 40, 70
1, 220246, Control_c, 0, 64, 71
1, 220261, Note_on_c, 0, 51, 78
1, 220261, Control_c, 0, 64, 106
1, 220267, Note_on_c, 0, 39, 74
1, 220267, Note_off_c, 0, 41, 63
1, 220276, Control_c, 0, 64, 127
1, 220294, Note_off_c, 0, 52, 59
1, 220303, Note_off_c, 0, 53, 35
1, 220303, Note_on_c, 0, 38, 72
1, 220318, Note_on_c, 0, 50, 69
1, 220319, Note_off_c, 0, 39, 64
1, 220326, Note_off_c, 0, 40, 41
1, 220335, Note_off_c, 0, 51, 57
1, 220343, Note_off_c, 0, 38, 63
1, 220387, Note_on_c, 0, 36, 65
1, 220395, Note_on_c, 0, 49, 76
1, 220402, Note_off_c, 0, 50, 59
1, 220431, Note_on_c, 0, 35, 65
1, 220452, Note_off_c, 0, 49, 61
1, 220452, Note_on_c, 0, 48, 68
1, 220462, Note_on_c, 0, 34, 70
1, 220513, Note_off_c, 0, 35, 59
1, 220514, Note_off_c, 0, 48, 61
1, 220518, Note_off_c, 0, 34, 60
1, 220524, Note_on_c, 0, 47, 62
1, 220524, Note_off_c, 0, 36, 56
1, 220557, Control_c, 0, 64, 79
1, 220566, Note_on_c, 0, 45, 100
1, 220568, Note_on_c, 0, 33, 103
1, 220572, Control_c, 0, 64, 0
1, 220577, Note_off_c, 0, 47, 0
1, 220651, Poly_aftertouch_c, 0, 47, 0
1, 220654, Note_off_c, 0, 33, 60
1, 220654, Control_c, 0, 64, 20
1, 220662, Note_off_c, 0, 45, 59
1, 220668, Control_c, 0, 64, 64
1, 220683, Control_c, 0, 64, 80
1, 220698, Control_c, 0, 64, 95
1, 220713, Control_c, 0, 64, 127
1, 220977, Note_on_c, 0, 69, 98
1, 220980, Note_on_c, 0, 73, 104
1, 220981, Note_on_c, 0, 57, 96
1, 220983, Note_on_c, 0, 81, 99
1, 220983, Note_on_c, 0, 45, 89
1, 220984, Note_on_c, 0, 76, 91
1, 220986, Note_on_c, 0, 52, 93
1, 220990, Note_on_c, 0, 49, 90
1, 221009, Note_on_c, 0, 78, 62
1, 221015, Note_off_c, 0, 69, 69
1, 221026, Note_off_c, 0, 45, 61
1, 221027, Note_off_c, 0, 57, 66
1, 221036, Note_off_c, 0, 52, 64
1, 221038, Note_off_c, 0, 73, 68
1, 221039, Note_off_c, 0, 81, 66
1, 221044, Note_off_c, 0, 76, 66
1, 221048, Note_off_c, 0, 49, 64
1, 221057, Note_off_c, 0, 78, 58
1, 221493, Note_on_c, 0, 81, 105
1, 221494, Note_on_c, 0, 69, 108
1, 221495, Note_on_c, 0, 93, 100
1, 221498, Note_on_c, 0, 85, 96
1, 221499, Note_on_c, 0, 57, 88
1, 221499, Note_on_c, 0, 88, 93
1, 221501, Note_on_c, 0, 64, 97
1, 221506, Note_on_c, 0, 61, 86
1, 221547, Note_off_c, 0, 69, 70
1, 221549, Note_off_c, 0, 57, 66
1, 221549, Note_off_c, 0, 81, 68
1, 221552, Note_off_c, 0, 93, 66
1, 221567, Note_off_c, 0, 64, 64
1, 221569, Note_off_c, 0, 85, 69
1, 221576, Note_off_c, 0, 88, 66
1, 221576, Note_off_c, 0, 61, 63
1, 222462, Control_c, 0, 64, 77
1, 222477, Control_c, 0, 64, 49
1, 222492, Control_c, 0, 64, 0
1, 227438, Control_c, 0, 64, 16
1, 227645, Control_c, 0, 64, 16
1, 227926, Control_c, 0, 64, 17
1, 228171, Control_c, 0, 64, 18
1, 228394, Control_c, 0, 64, 18
1, 228587, Control_c, 0, 64, 19
1, 228646, Control_c, 0, 64, 19
1, 228690, Control_c, 0, 64, 20
1, 228764, Control_c, 0, 64, 20
1, 229084, Control_c, 0, 64, 20
1, 229113, Control_c, 0, 64, 0
1, 229113, End_track
0, 0, End_of_file
