0, 0, Header, 0, 1, 384
1, 0, Start_track
1, 0, Title_t, "ProkofievSonataNo2Op14--Wang    "
1, 0, Text_t, "2011 ePiano Junior Competition"
1, 0, Text_t, "captured in spring and summer 2011"
1, 0, Text_t, "http://www.piano-e-competition.com/"
1, 0, Text_t, "standard-resolution version"
1, 0, Text_t, "File processed for distribution with software designed and coded by Dr. John Q. Walker, founder of Zenph Sound Innovations"
1, 0, Instrument_name_t, "Yamaha Disklavier Pro Mark IV concert grand piano, model DCFIIISM4PRO"
1, 0, Sequencer_specific, 39, 67, 113, 0, 1, 0, 1, 0, 80, 114, 111, 107, 111, 102, 105, 101, 118, 78, 111, 50, 79, 112, 49, 52, 90, 105, 116, 111, 110, 103, 32, 87, 97, 110, 103, 32, 32, 32, 32, 32
1, 0, Sequencer_specific, 6, 67, 113, 0, 0, 0, 69
1, 0, System_exclusive, 21, 67, 113, 126, 21, 0, 2, 2, 2, 5, 12, 8, 4, 14, 1, 3, 5, 10, 13, 14, 3, 247
1, 0, Sequencer_specific, 5, 67, 123, 12, 2, 1
1, 0, Tempo, 512820
1, 0, Time_signature, 4, 2, 24, 8
1, 0, System_exclusive, 5, 126, 127, 9, 1, 247
1, 1, System_exclusive, 8, 67, 16, 76, 0, 0, 126, 0, 247
1, 2, System_exclusive, 8, 67, 16, 76, 8, 9, 7, 1, 247
1, 3, Control_c, 0, 0, 108
1, 3, Control_c, 1, 0, 108
1, 3, Control_c, 2, 0, 0
1, 3, Control_c, 3, 0, 0
1, 3, Control_c, 4, 0, 0
1, 3, Control_c, 5, 0, 0
1, 3, Control_c, 6, 0, 0
1, 3, Control_c, 7, 0, 0
1, 3, Control_c, 8, 0, 0
1, 3, Control_c, 9, 0, 127
1, 3, Control_c, 10, 0, 0
1, 3, Control_c, 11, 0, 0
1, 3, Control_c, 12, 0, 0
1, 3, Control_c, 13, 0, 0
1, 3, Control_c, 14, 0, 0
1, 3, Control_c, 15, 0, 0
1, 4, Control_c, 0, 32, 0
1, 4, Control_c, 1, 32, 0
1, 4, Control_c, 2, 32, 0
1, 4, Control_c, 3, 32, 0
1, 4, Control_c, 4, 32, 0
1, 4, Control_c, 5, 32, 0
1, 4, Control_c, 6, 32, 0
1, 4, Control_c, 7, 32, 0
1, 4, Control_c, 8, 32, 0
1, 4, Control_c, 9, 32, 0
1, 4, Control_c, 10, 32, 0
1, 4, Control_c, 11, 32, 0
1, 4, Control_c, 12, 32, 0
1, 4, Control_c, 13, 32, 0
1, 4, Control_c, 14, 32, 0
1, 4, Control_c, 15, 32, 0
1, 5, Program_c, 0, 0
1, 5, Program_c, 1, 0
1, 5, Program_c, 2, 0
1, 5, Program_c, 3, 0
1, 5, Program_c, 4, 0
1, 5, Program_c, 5, 0
1, 5, Program_c, 6, 0
1, 5, Program_c, 7, 0
1, 5, Program_c, 8, 0
1, 5, Program_c, 9, 0
1, 5, Program_c, 10, 0
1, 5, Program_c, 11, 0
1, 5, Program_c, 12, 0
1, 5, Program_c, 13, 0
1, 5, Program_c, 14, 0
1, 5, Program_c, 15, 0
1, 6, Control_c, 0, 7, 100
1, 6, Control_c, 1, 7, 100
1, 6, Control_c, 2, 7, 100
1, 6, Control_c, 3, 7, 100
1, 6, Control_c, 4, 7, 100
1, 6, Control_c, 5, 7, 100
1, 6, Control_c, 6, 7, 100
1, 6, Control_c, 7, 7, 100
1, 6, Control_c, 8, 7, 100
1, 6, Control_c, 9, 7, 100
1, 6, Control_c, 10, 7, 100
1, 6, Control_c, 11, 7, 100
1, 6, Control_c, 12, 7, 100
1, 6, Control_c, 13, 7, 100
1, 6, Control_c, 14, 7, 100
1, 6, Control_c, 15, 7, 100
1, 381, Note_on_c, 0, 69, 57
1, 422, Note_off_c, 0, 69, 63
1, 464, Note_on_c, 0, 57, 61
1, 494, Note_on_c, 0, 50, 24
1, 543, Note_off_c, 0, 50, 47
1, 583, Note_off_c, 0, 57, 49
1, 604, Note_on_c, 0, 53, 43
1, 623, Note_on_c, 0, 62, 58
1, 663, Note_off_c, 0, 53, 60
1, 697, Note_on_c, 0, 57, 45
1, 746, Note_off_c, 0, 62, 56
1, 758, Note_off_c, 0, 57, 59
1, 776, Note_on_c, 0, 65, 69
1, 794, Note_on_c, 0, 53, 50
1, 852, Note_off_c, 0, 53, 62
1, 887, Note_on_c, 0, 57, 54
1, 953, Note_off_c, 0, 57, 59
1, 1003, Note_on_c, 0, 53, 46
1, 1057, Note_off_c, 0, 53, 60
1, 1099, Note_on_c, 0, 48, 57
1, 1177, Note_off_c, 0, 48, 62
1, 1214, Note_on_c, 0, 52, 51
1, 1236, Note_off_c, 0, 65, 59
1, 1245, Note_on_c, 0, 64, 61
1, 1261, Note_off_c, 0, 52, 65
1, 1301, Note_on_c, 0, 57, 52
1, 1354, Note_off_c, 0, 57, 59
1, 1388, Note_on_c, 0, 67, 72
1, 1406, Note_on_c, 0, 52, 43
1, 1406, Note_off_c, 0, 64, 60
1, 1451, Note_off_c, 0, 52, 63
1, 1510, Note_on_c, 0, 57, 44
1, 1551, Note_on_c, 0, 65, 51
1, 1579, Note_off_c, 0, 57, 59
1, 1611, Note_on_c, 0, 52, 41
1, 1671, Note_off_c, 0, 52, 62
1, 1672, Note_off_c, 0, 65, 60
1, 1692, Note_on_c, 0, 64, 63
1, 1707, Note_on_c, 0, 47, 49
1, 1769, Note_off_c, 0, 47, 58
1, 1808, Note_on_c, 0, 53, 50
1, 1820, Note_off_c, 0, 64, 63
1, 1832, Note_off_c, 0, 67, 57
1, 1838, Note_on_c, 0, 65, 76
1, 1844, Note_on_c, 0, 61, 60
1, 1886, Note_off_c, 0, 53, 63
1, 1913, Note_on_c, 0, 57, 50
1, 1946, Note_off_c, 0, 61, 48
1, 1972, Note_off_c, 0, 57, 60
1, 1992, Note_on_c, 0, 69, 85
1, 1995, Note_off_c, 0, 65, 64
1, 2005, Note_on_c, 0, 62, 66
1, 2021, Note_on_c, 0, 53, 54
1, 2067, Note_off_c, 0, 53, 64
1, 2104, Note_on_c, 0, 57, 56
1, 2124, Note_off_c, 0, 62, 38
1, 2150, Note_on_c, 0, 65, 52
1, 2183, Note_off_c, 0, 57, 62
1, 2213, Note_on_c, 0, 53, 50
1, 2281, Note_off_c, 0, 53, 62
1, 2320, Note_off_c, 0, 65, 55
1, 2326, Note_on_c, 0, 46, 50
1, 2328, Note_on_c, 0, 67, 67
1, 2374, Note_off_c, 0, 67, 60
1, 2407, Note_off_c, 0, 46, 61
1, 2431, Note_off_c, 0, 69, 63
1, 2435, Note_on_c, 0, 52, 48
1, 2476, Note_on_c, 0, 67, 83
1, 2500, Note_off_c, 0, 52, 62
1, 2541, Note_on_c, 0, 55, 56
1, 2583, Note_off_c, 0, 67, 63
1, 2596, Note_off_c, 0, 55, 55
1, 2609, Note_on_c, 0, 70, 89
1, 2619, Note_on_c, 0, 66, 75
1, 2627, Note_on_c, 0, 52, 59
1, 2679, Note_off_c, 0, 52, 62
1, 2727, Note_on_c, 0, 55, 58
1, 2786, Note_off_c, 0, 55, 56
1, 2814, Note_on_c, 0, 52, 56
1, 2868, Note_off_c, 0, 66, 58
1, 2893, Note_off_c, 0, 52, 62
1, 2913, Note_on_c, 0, 45, 58
1, 2924, Note_on_c, 0, 65, 76
1, 3006, Note_off_c, 0, 45, 63
1, 3028, Note_on_c, 0, 48, 54
1, 3072, Note_on_c, 0, 69, 82
1, 3102, Note_off_c, 0, 70, 65
1, 3110, Note_off_c, 0, 48, 63
1, 3120, Note_off_c, 0, 65, 53
1, 3132, Note_on_c, 0, 57, 66
1, 3208, Note_off_c, 0, 57, 62
1, 3210, Note_off_c, 0, 69, 67
1, 3214, Note_on_c, 0, 72, 92
1, 3223, Note_on_c, 0, 48, 67
1, 3224, Note_on_c, 0, 64, 85
1, 3275, Control_c, 0, 64, 32
1, 3290, Control_c, 0, 64, 41
1, 3302, Note_off_c, 0, 48, 61
1, 3304, Control_c, 0, 64, 47
1, 3311, Note_on_c, 0, 57, 72
1, 3319, Control_c, 0, 64, 51
1, 3334, Control_c, 0, 64, 55
1, 3349, Control_c, 0, 64, 57
1, 3364, Control_c, 0, 64, 60
1, 3378, Control_c, 0, 64, 62
1, 3393, Control_c, 0, 64, 65
1, 3398, Note_off_c, 0, 64, 57
1, 3401, Note_off_c, 0, 57, 60
1, 3408, Control_c, 0, 64, 66
1, 3414, Note_on_c, 0, 48, 64
1, 3438, Control_c, 0, 64, 64
1, 3459, Control_c, 0, 64, 60
1, 3474, Control_c, 0, 64, 47
1, 3489, Control_c, 0, 64, 0
1, 3505, Note_on_c, 0, 43, 79
1, 3517, Note_on_c, 0, 63, 93
1, 3522, Note_off_c, 0, 48, 58
1, 3579, Control_c, 0, 64, 45
1, 3591, Note_off_c, 0, 43, 62
1, 3593, Control_c, 0, 64, 61
1, 3606, Note_on_c, 0, 50, 72
1, 3608, Control_c, 0, 64, 67
1, 3623, Control_c, 0, 64, 78
1, 3628, Note_off_c, 0, 72, 55
1, 3638, Control_c, 0, 64, 127
1, 3639, Note_off_c, 0, 63, 58
1, 3661, Note_on_c, 0, 70, 88
1, 3694, Note_off_c, 0, 50, 62
1, 3708, Note_on_c, 0, 58, 83
1, 3722, Poly_aftertouch_c, 0, 48, 127
1, 3772, Control_c, 0, 64, 84
1, 3787, Control_c, 0, 64, 50
1, 3787, Note_off_c, 0, 58, 61
1, 3791, Note_off_c, 0, 70, 58
1, 3794, Note_on_c, 0, 50, 75
1, 3802, Control_c, 0, 64, 0
1, 3805, Note_on_c, 0, 74, 93
1, 3806, Note_on_c, 0, 62, 96
1, 3809, Poly_aftertouch_c, 0, 48, 0
1, 3831, Control_c, 0, 64, 35
1, 3846, Control_c, 0, 64, 59
1, 3861, Control_c, 0, 64, 74
1, 3868, Note_off_c, 0, 50, 61
1, 3876, Control_c, 0, 64, 127
1, 3877, Note_on_c, 0, 58, 79
1, 3889, Note_off_c, 0, 62, 62
1, 3922, Note_off_c, 0, 58, 63
1, 3964, Note_on_c, 0, 65, 74
1, 3980, Note_on_c, 0, 50, 66
1, 4018, Note_off_c, 0, 65, 63
1, 4026, Note_off_c, 0, 50, 62
1, 4102, Note_on_c, 0, 70, 83
1, 4103, Note_off_c, 0, 74, 59
1, 4105, Note_on_c, 0, 41, 73
1, 4112, Control_c, 0, 64, 69
1, 4123, Note_off_c, 0, 70, 71
1, 4127, Control_c, 0, 64, 0
1, 4132, Note_off_c, 0, 41, 66
1, 4262, Note_on_c, 0, 76, 96
1, 4263, Note_on_c, 0, 43, 80
1, 4266, Note_on_c, 0, 40, 78
1, 4266, Note_on_c, 0, 72, 78
1, 4289, Note_off_c, 0, 72, 69
1, 4297, Note_off_c, 0, 43, 66
1, 4298, Note_off_c, 0, 76, 67
1, 4298, Note_off_c, 0, 40, 69
1, 4398, Note_on_c, 0, 77, 102
1, 4404, Note_on_c, 0, 41, 93
1, 4404, Note_on_c, 0, 74, 85
1, 4407, Note_on_c, 0, 38, 84
1, 4411, Note_on_c, 0, 76, 77
1, 4422, Note_off_c, 0, 74, 71
1, 4437, Note_off_c, 0, 41, 64
1, 4437, Note_off_c, 0, 76, 70
1, 4437, Note_off_c, 0, 77, 69
1, 4448, Note_off_c, 0, 38, 61
1, 4548, Note_on_c, 0, 40, 90
1, 4572, Note_on_c, 0, 35, 52
1, 4572, Note_on_c, 0, 38, 48
1, 4574, Note_on_c, 0, 36, 54
1, 4595, Note_on_c, 0, 74, 98
1, 4597, Note_on_c, 0, 86, 95
1, 4600, Note_off_c, 0, 40, 63
1, 4616, Note_off_c, 0, 36, 59
1, 4618, Note_off_c, 0, 35, 57
1, 4620, Note_off_c, 0, 86, 61
1, 4631, Note_off_c, 0, 74, 68
1, 4646, Note_off_c, 0, 38, 36
1, 4670, Poly_aftertouch_c, 0, 37, 127
1, 4689, Note_on_c, 0, 39, 96
1, 4692, Note_on_c, 0, 35, 88
1, 4694, Note_on_c, 0, 75, 100
1, 4695, Note_on_c, 0, 69, 99
1, 4695, Note_on_c, 0, 73, 94
1, 4699, Control_c, 0, 64, 53
1, 4700, Note_on_c, 0, 81, 69
1, 4702, Poly_aftertouch_c, 0, 37, 0
1, 4713, Control_c, 0, 64, 85
1, 4715, Note_off_c, 0, 81, 68
1, 4723, Note_off_c, 0, 69, 63
1, 4728, Control_c, 0, 64, 127
1, 4729, Note_off_c, 0, 39, 65
1, 4732, Note_off_c, 0, 75, 59
1, 4735, Note_off_c, 0, 35, 58
1, 4739, Note_off_c, 0, 73, 62
1, 4899, Note_on_c, 0, 61, 71
1, 4906, Note_on_c, 0, 63, 69
1, 5037, Note_off_c, 0, 61, 61
1, 5039, Note_off_c, 0, 63, 62
1, 5054, Note_on_c, 0, 60, 101
1, 5165, Note_on_c, 0, 61, 75
1, 5165, Note_on_c, 0, 63, 75
1, 5217, Note_off_c, 0, 61, 59
1, 5217, Note_off_c, 0, 63, 61
1, 5266, Note_on_c, 0, 63, 67
1, 5268, Note_on_c, 0, 61, 69
1, 5343, Note_off_c, 0, 60, 60
1, 5349, Note_off_c, 0, 61, 62
1, 5356, Note_off_c, 0, 63, 63
1, 5358, Control_c, 0, 64, 76
1, 5367, Note_on_c, 0, 59, 94
1, 5373, Control_c, 0, 64, 45
1, 5388, Control_c, 0, 64, 0
1, 5446, Control_c, 0, 64, 44
1, 5460, Control_c, 0, 64, 58
1, 5475, Control_c, 0, 64, 66
1, 5490, Control_c, 0, 64, 76
1, 5505, Control_c, 0, 64, 106
1, 5520, Control_c, 0, 64, 127
1, 5529, Note_on_c, 0, 61, 72
1, 5531, Note_on_c, 0, 63, 73
1, 5671, Note_off_c, 0, 61, 62
1, 5674, Note_off_c, 0, 59, 64
1, 5679, Note_on_c, 0, 60, 97
1, 5680, Note_off_c, 0, 63, 63
1, 5683, Control_c, 0, 64, 87
1, 5705, Control_c, 0, 64, 65
1, 5720, Control_c, 0, 64, 44
1, 5734, Control_c, 0, 64, 42
1, 5749, Control_c, 0, 64, 52
1, 5764, Control_c, 0, 64, 58
1, 5779, Control_c, 0, 64, 63
1, 5794, Control_c, 0, 64, 66
1, 5796, Note_on_c, 0, 61, 71
1, 5797, Note_on_c, 0, 63, 72
1, 5808, Control_c, 0, 64, 70
1, 5823, Control_c, 0, 64, 82
1, 5838, Control_c, 0, 64, 116
1, 5849, Note_off_c, 0, 61, 61
1, 5852, Note_off_c, 0, 63, 62
1, 5853, Control_c, 0, 64, 127
1, 5901, Note_on_c, 0, 61, 72
1, 5902, Note_on_c, 0, 63, 67
1, 5986, Control_c, 0, 64, 98
1, 5988, Note_off_c, 0, 61, 61
1, 5998, Note_off_c, 0, 63, 63
1, 5999, Note_on_c, 0, 53, 96
1, 6001, Control_c, 0, 64, 72
1, 6012, Note_off_c, 0, 60, 34
1, 6016, Control_c, 0, 64, 47
1, 6031, Control_c, 0, 64, 0
1, 6062, Control_c, 0, 64, 26
1, 6076, Control_c, 0, 64, 44
1, 6091, Control_c, 0, 64, 54
1, 6106, Control_c, 0, 64, 60
1, 6121, Control_c, 0, 64, 63
1, 6136, Control_c, 0, 64, 66
1, 6151, Control_c, 0, 64, 72
1, 6166, Control_c, 0, 64, 84
1, 6178, Note_on_c, 0, 63, 25
1, 6181, Control_c, 0, 64, 112
1, 6187, Note_on_c, 0, 61, 74
1, 6196, Control_c, 0, 64, 127
1, 6314, Control_c, 0, 64, 88
1, 6315, Note_off_c, 0, 53, 64
1, 6321, Note_on_c, 0, 60, 96
1, 6329, Control_c, 0, 64, 66
1, 6333, Note_off_c, 0, 61, 62
1, 6340, Note_off_c, 0, 63, 62
1, 6344, Control_c, 0, 64, 43
1, 6358, Control_c, 0, 64, 30
1, 6373, Control_c, 0, 64, 45
1, 6388, Control_c, 0, 64, 56
1, 6402, Control_c, 0, 64, 61
1, 6417, Control_c, 0, 64, 65
1, 6431, Note_on_c, 0, 63, 69
1, 6432, Note_on_c, 0, 61, 73
1, 6432, Control_c, 0, 64, 69
1, 6455, Control_c, 0, 64, 76
1, 6470, Control_c, 0, 64, 97
1, 6484, Control_c, 0, 64, 127
1, 6491, Note_off_c, 0, 61, 60
1, 6495, Note_off_c, 0, 63, 64
1, 6536, Poly_aftertouch_c, 0, 63, 0
1, 6539, Note_on_c, 0, 61, 73
1, 6541, Note_on_c, 0, 63, 70
1, 6609, Note_off_c, 0, 60, 63
1, 6616, Note_off_c, 0, 61, 61
1, 6617, Control_c, 0, 64, 85
1, 6628, Note_off_c, 0, 63, 62
1, 6632, Control_c, 0, 64, 64
1, 6641, Note_on_c, 0, 59, 100
1, 6647, Control_c, 0, 64, 23
1, 6662, Control_c, 0, 64, 0
1, 6676, Control_c, 0, 64, 42
1, 6691, Control_c, 0, 64, 56
1, 6704, Note_on_c, 0, 64, 41
1, 6706, Control_c, 0, 64, 62
1, 6721, Control_c, 0, 64, 66
1, 6736, Control_c, 0, 64, 71
1, 6750, Control_c, 0, 64, 82
1, 6765, Control_c, 0, 64, 110
1, 6771, Note_off_c, 0, 64, 55
1, 6780, Control_c, 0, 64, 127
1, 6812, Note_on_c, 0, 61, 78
1, 6815, Note_on_c, 0, 63, 75
1, 6909, Note_off_c, 0, 59, 61
1, 6964, Note_on_c, 0, 60, 94
1, 6995, Note_off_c, 0, 63, 61
1, 7003, Note_off_c, 0, 61, 60
1, 7078, Note_on_c, 0, 61, 68
1, 7083, Note_on_c, 0, 63, 67
1, 7093, Note_off_c, 0, 60, 61
1, 7117, Note_off_c, 0, 63, 61
1, 7135, Note_off_c, 0, 61, 61
1, 7177, Note_on_c, 0, 63, 68
1, 7183, Note_on_c, 0, 61, 55
1, 7317, Note_on_c, 0, 54, 93
1, 7320, Note_on_c, 0, 39, 93
1, 7324, Note_on_c, 0, 27, 85
1, 7352, Control_c, 0, 64, 85
1, 7367, Control_c, 0, 64, 61
1, 7381, Control_c, 0, 64, 0
1, 7399, Note_off_c, 0, 61, 23
1, 7414, Note_off_c, 0, 63, 54
1, 7514, Control_c, 0, 64, 44
1, 7518, Note_on_c, 0, 63, 72
1, 7524, Note_on_c, 0, 61, 64
1, 7529, Control_c, 0, 64, 62
1, 7544, Control_c, 0, 64, 67
1, 7558, Control_c, 0, 64, 70
1, 7573, Control_c, 0, 64, 75
1, 7576, Note_off_c, 0, 54, 62
1, 7588, Control_c, 0, 64, 83
1, 7603, Control_c, 0, 64, 93
1, 7618, Control_c, 0, 64, 107
1, 7633, Control_c, 0, 64, 127
1, 7653, Note_off_c, 0, 61, 59
1, 7666, Note_on_c, 0, 60, 95
1, 7701, Note_off_c, 0, 63, 58
1, 7741, Note_off_c, 0, 27, 63
1, 7770, Note_on_c, 0, 61, 75
1, 7775, Note_on_c, 0, 63, 68
1, 7798, Note_off_c, 0, 39, 59
1, 7821, Note_off_c, 0, 63, 59
1, 7827, Note_off_c, 0, 61, 62
1, 7873, Note_on_c, 0, 61, 71
1, 7877, Note_on_c, 0, 63, 78
1, 7879, Note_off_c, 0, 60, 62
1, 7973, Note_off_c, 0, 63, 64
1, 7977, Note_on_c, 0, 59, 96
1, 7978, Note_off_c, 0, 61, 0
1, 8020, Poly_aftertouch_c, 0, 61, 0
1, 8087, Note_on_c, 0, 42, 78
1, 8151, Note_on_c, 0, 45, 72
1, 8181, Note_on_c, 0, 61, 64
1, 8181, Note_off_c, 0, 42, 61
1, 8215, Note_on_c, 0, 64, 52
1, 8219, Note_on_c, 0, 47, 78
1, 8219, Control_c, 0, 64, 93
1, 8234, Control_c, 0, 64, 66
1, 8248, Control_c, 0, 64, 0
1, 8254, Note_off_c, 0, 45, 62
1, 8255, Note_off_c, 0, 59, 59
1, 8255, Note_off_c, 0, 64, 58
1, 8302, Note_on_c, 0, 52, 89
1, 8312, Note_on_c, 0, 60, 89
1, 8322, Control_c, 0, 64, 39
1, 8333, Note_off_c, 0, 61, 52
1, 8337, Control_c, 0, 64, 54
1, 8342, Note_on_c, 0, 66, 46
1, 8348, Note_off_c, 0, 47, 62
1, 8352, Control_c, 0, 64, 61
1, 8367, Control_c, 0, 64, 68
1, 8375, Note_off_c, 0, 66, 62
1, 8381, Control_c, 0, 64, 81
1, 8396, Control_c, 0, 64, 127
1, 8419, Note_off_c, 0, 52, 65
1, 8442, Note_on_c, 0, 61, 73
1, 8445, Note_on_c, 0, 63, 71
1, 8489, Note_off_c, 0, 63, 61
1, 8496, Note_off_c, 0, 61, 61
1, 8544, Note_on_c, 0, 61, 74
1, 8568, Note_on_c, 0, 64, 71
1, 8571, Note_on_c, 0, 63, 22
1, 8581, Note_off_c, 0, 60, 59
1, 8610, Note_off_c, 0, 64, 59
1, 8613, Note_off_c, 0, 63, 57
1, 8619, Control_c, 0, 64, 114
1, 8633, Note_off_c, 0, 61, 63
1, 8634, Control_c, 0, 64, 77
1, 8635, Note_on_c, 0, 57, 90
1, 8637, Note_on_c, 0, 51, 86
1, 8649, Control_c, 0, 64, 56
1, 8664, Control_c, 0, 64, 0
1, 8730, Control_c, 0, 64, 9
1, 8745, Control_c, 0, 64, 40
1, 8760, Control_c, 0, 64, 51
1, 8774, Control_c, 0, 64, 56
1, 8789, Control_c, 0, 64, 60
1, 8804, Control_c, 0, 64, 64
1, 8819, Control_c, 0, 64, 70
1, 8828, Note_on_c, 0, 61, 64
1, 8828, Note_on_c, 0, 63, 66
1, 8834, Control_c, 0, 64, 81
1, 8849, Control_c, 0, 64, 107
1, 8864, Control_c, 0, 64, 127
1, 8992, Note_on_c, 0, 60, 93
1, 8992, Note_off_c, 0, 61, 61
1, 8996, Note_off_c, 0, 63, 62
1, 8996, Control_c, 0, 64, 98
1, 8999, Note_off_c, 0, 57, 56
1, 9011, Control_c, 0, 64, 74
1, 9026, Control_c, 0, 64, 61
1, 9041, Control_c, 0, 64, 39
1, 9056, Control_c, 0, 64, 32
1, 9070, Control_c, 0, 64, 36
1, 9085, Control_c, 0, 64, 44
1, 9100, Note_on_c, 0, 61, 76
1, 9100, Note_on_c, 0, 63, 72
1, 9100, Control_c, 0, 64, 53
1, 9115, Control_c, 0, 64, 59
1, 9130, Control_c, 0, 64, 62
1, 9144, Control_c, 0, 64, 65
1, 9149, Note_off_c, 0, 63, 61
1, 9151, Note_off_c, 0, 61, 60
1, 9159, Control_c, 0, 64, 68
1, 9174, Control_c, 0, 64, 74
1, 9189, Control_c, 0, 64, 86
1, 9198, Note_on_c, 0, 63, 75
1, 9199, Note_on_c, 0, 61, 69
1, 9204, Control_c, 0, 64, 127
1, 9281, Note_off_c, 0, 61, 60
1, 9285, Note_off_c, 0, 63, 63
1, 9307, Note_on_c, 0, 59, 91
1, 9308, Control_c, 0, 64, 89
1, 9309, Note_off_c, 0, 60, 37
1, 9323, Control_c, 0, 64, 69
1, 9338, Control_c, 0, 64, 54
1, 9353, Control_c, 0, 64, 23
1, 9368, Control_c, 0, 64, 24
1, 9383, Control_c, 0, 64, 34
1, 9397, Control_c, 0, 64, 45
1, 9412, Control_c, 0, 64, 55
1, 9427, Control_c, 0, 64, 60
1, 9449, Control_c, 0, 64, 63
1, 9464, Control_c, 0, 64, 67
1, 9479, Control_c, 0, 64, 72
1, 9481, Note_on_c, 0, 61, 72
1, 9481, Note_on_c, 0, 63, 73
1, 9494, Control_c, 0, 64, 83
1, 9508, Control_c, 0, 64, 107
1, 9523, Control_c, 0, 64, 127
1, 9568, Control_c, 0, 64, 97
1, 9582, Control_c, 0, 64, 74
1, 9597, Control_c, 0, 64, 63
1, 9612, Control_c, 0, 64, 54
1, 9627, Control_c, 0, 64, 53
1, 9642, Control_c, 0, 64, 55
1, 9642, Note_on_c, 0, 60, 86
1, 9657, Control_c, 0, 64, 58
1, 9670, Note_off_c, 0, 63, 59
1, 9672, Control_c, 0, 64, 63
1, 9673, Note_off_c, 0, 59, 59
1, 9674, Note_off_c, 0, 61, 51
1, 9687, Control_c, 0, 64, 66
1, 9701, Control_c, 0, 64, 70
1, 9716, Control_c, 0, 64, 75
1, 9731, Note_off_c, 0, 51, 64
1, 9731, Control_c, 0, 64, 84
1, 9746, Control_c, 0, 64, 95
1, 9750, Note_on_c, 0, 63, 55
1, 9752, Note_on_c, 0, 61, 59
1, 9761, Control_c, 0, 64, 127
1, 9776, Note_off_c, 0, 60, 60
1, 9789, Note_off_c, 0, 63, 62
1, 9789, Poly_aftertouch_c, 0, 65, 0
1, 9796, Note_off_c, 0, 61, 58
1, 9859, Note_on_c, 0, 63, 73
1, 9862, Note_on_c, 0, 61, 54
1, 9968, Control_c, 0, 64, 110
1, 9983, Control_c, 0, 64, 85
1, 9998, Control_c, 0, 64, 70
1, 10013, Control_c, 0, 64, 57
1, 10014, Note_off_c, 0, 61, 59
1, 10019, Note_off_c, 0, 63, 58
1, 10021, Note_on_c, 0, 56, 69
1, 10027, Control_c, 0, 64, 38
1, 10038, Note_on_c, 0, 35, 42
1, 10043, Control_c, 0, 64, 23
1, 10046, Note_on_c, 0, 47, 43
1, 10073, Control_c, 0, 64, 24
1, 10088, Control_c, 0, 64, 31
1, 10103, Control_c, 0, 64, 43
1, 10117, Control_c, 0, 64, 52
1, 10132, Control_c, 0, 64, 57
1, 10147, Control_c, 0, 64, 61
1, 10162, Control_c, 0, 64, 63
1, 10177, Control_c, 0, 64, 65
1, 10199, Control_c, 0, 64, 68
1, 10214, Control_c, 0, 64, 72
1, 10229, Control_c, 0, 64, 76
1, 10244, Control_c, 0, 64, 83
1, 10248, Note_on_c, 0, 63, 52
1, 10252, Note_on_c, 0, 61, 48
1, 10258, Control_c, 0, 64, 91
1, 10264, Note_off_c, 0, 56, 61
1, 10273, Control_c, 0, 64, 103
1, 10288, Control_c, 0, 64, 127
1, 10332, Control_c, 0, 64, 111
1, 10347, Control_c, 0, 64, 94
1, 10362, Control_c, 0, 64, 78
1, 10377, Control_c, 0, 64, 66
1, 10387, Note_on_c, 0, 59, 69
1, 10391, Note_off_c, 0, 61, 57
1, 10392, Control_c, 0, 64, 59
1, 10402, Note_off_c, 0, 63, 59
1, 10406, Control_c, 0, 64, 57
1, 10421, Control_c, 0, 64, 59
1, 10436, Control_c, 0, 64, 60
1, 10450, Control_c, 0, 64, 62
1, 10465, Control_c, 0, 64, 65
1, 10480, Control_c, 0, 64, 68
1, 10494, Note_on_c, 0, 63, 59
1, 10495, Control_c, 0, 64, 72
1, 10505, Note_on_c, 0, 61, 48
1, 10510, Control_c, 0, 64, 77
1, 10524, Control_c, 0, 64, 85
1, 10527, Note_off_c, 0, 63, 64
1, 10530, Note_off_c, 0, 61, 57
1, 10539, Control_c, 0, 64, 92
1, 10542, Note_off_c, 0, 59, 56
1, 10554, Control_c, 0, 64, 102
1, 10569, Control_c, 0, 64, 127
1, 10588, Note_on_c, 0, 63, 75
1, 10604, Note_on_c, 0, 61, 66
1, 10643, Note_off_c, 0, 61, 59
1, 10649, Note_off_c, 0, 63, 58
1, 10658, Control_c, 0, 64, 98
1, 10673, Control_c, 0, 64, 73
1, 10688, Control_c, 0, 64, 62
1, 10688, Note_on_c, 0, 58, 79
1, 10703, Control_c, 0, 64, 47
1, 10717, Control_c, 0, 64, 39
1, 10732, Control_c, 0, 64, 41
1, 10747, Control_c, 0, 64, 44
1, 10762, Control_c, 0, 64, 51
1, 10776, Control_c, 0, 64, 57
1, 10791, Control_c, 0, 64, 61
1, 10806, Control_c, 0, 64, 64
1, 10821, Control_c, 0, 64, 66
1, 10836, Control_c, 0, 64, 70
1, 10852, Control_c, 0, 64, 75
1, 10866, Control_c, 0, 64, 81
1, 10873, Note_on_c, 0, 61, 58
1, 10876, Note_on_c, 0, 64, 64
1, 10881, Control_c, 0, 64, 90
1, 10896, Control_c, 0, 64, 104
1, 10911, Control_c, 0, 64, 127
1, 10945, Note_off_c, 0, 58, 59
1, 11021, Note_off_c, 0, 61, 60
1, 11037, Control_c, 0, 64, 85
1, 11037, Note_on_c, 0, 59, 67
1, 11052, Control_c, 0, 64, 66
1, 11067, Control_c, 0, 64, 54
1, 11081, Control_c, 0, 64, 47
1, 11096, Control_c, 0, 64, 49
1, 11111, Control_c, 0, 64, 52
1, 11126, Control_c, 0, 64, 57
1, 11138, Note_off_c, 0, 64, 63
1, 11141, Control_c, 0, 64, 62
1, 11148, Note_on_c, 0, 65, 69
1, 11153, Note_on_c, 0, 61, 58
1, 11155, Control_c, 0, 64, 65
1, 11170, Control_c, 0, 64, 69
1, 11185, Control_c, 0, 64, 75
1, 11191, Note_off_c, 0, 61, 64
1, 11194, Note_off_c, 0, 65, 60
1, 11200, Control_c, 0, 64, 83
1, 11202, Note_off_c, 0, 59, 62
1, 11215, Control_c, 0, 64, 93
1, 11229, Control_c, 0, 64, 110
1, 11244, Control_c, 0, 64, 127
1, 11266, Note_on_c, 0, 61, 65
1, 11269, Note_on_c, 0, 65, 56
1, 11303, Control_c, 0, 64, 95
1, 11318, Control_c, 0, 64, 74
1, 11331, Note_off_c, 0, 61, 51
1, 11333, Control_c, 0, 64, 62
1, 11347, Control_c, 0, 64, 49
1, 11362, Control_c, 0, 64, 38
1, 11377, Note_on_c, 0, 57, 64
1, 11377, Control_c, 0, 64, 33
1, 11392, Control_c, 0, 64, 33
1, 11407, Control_c, 0, 64, 34
1, 11421, Control_c, 0, 64, 39
1, 11436, Note_off_c, 0, 65, 50
1, 11436, Control_c, 0, 64, 47
1, 11451, Control_c, 0, 64, 54
1, 11466, Control_c, 0, 64, 59
1, 11481, Control_c, 0, 64, 62
1, 11496, Control_c, 0, 64, 65
1, 11511, Control_c, 0, 64, 68
1, 11526, Control_c, 0, 64, 72
1, 11541, Control_c, 0, 64, 78
1, 11555, Control_c, 0, 64, 85
1, 11570, Control_c, 0, 64, 94
1, 11584, Note_on_c, 0, 65, 53
1, 11585, Control_c, 0, 64, 112
1, 11599, Note_on_c, 0, 61, 50
1, 11599, Control_c, 0, 64, 127
1, 11648, Note_off_c, 0, 57, 32
1, 11739, Note_off_c, 0, 65, 57
1, 11741, Control_c, 0, 64, 121
1, 11743, Note_off_c, 0, 61, 48
1, 11756, Control_c, 0, 64, 94
1, 11770, Control_c, 0, 64, 78
1, 11785, Control_c, 0, 64, 65
1, 11800, Control_c, 0, 64, 55
1, 11812, Note_on_c, 0, 60, 57
1, 11815, Control_c, 0, 64, 41
1, 11830, Control_c, 0, 64, 38
1, 11845, Control_c, 0, 64, 40
1, 11860, Control_c, 0, 64, 45
1, 11875, Control_c, 0, 64, 52
1, 11889, Control_c, 0, 64, 57
1, 11904, Control_c, 0, 64, 61
1, 11919, Control_c, 0, 64, 63
1, 11934, Control_c, 0, 64, 66
1, 11948, Note_on_c, 0, 66, 48
1, 11949, Control_c, 0, 64, 69
1, 11958, Note_on_c, 0, 64, 43
1, 11964, Control_c, 0, 64, 74
1, 11978, Control_c, 0, 64, 85
1, 11987, Note_off_c, 0, 64, 60
1, 11990, Note_off_c, 0, 66, 62
1, 11993, Control_c, 0, 64, 101
1, 12008, Control_c, 0, 64, 127
1, 12050, Note_off_c, 0, 60, 31
1, 12077, Note_on_c, 0, 66, 57
1, 12079, Note_on_c, 0, 64, 54
1, 12126, Control_c, 0, 64, 111
1, 12134, Note_off_c, 0, 64, 55
1, 12140, Control_c, 0, 64, 91
1, 12155, Control_c, 0, 64, 74
1, 12170, Control_c, 0, 64, 65
1, 12174, Note_off_c, 0, 66, 37
1, 12185, Control_c, 0, 64, 54
1, 12200, Control_c, 0, 64, 44
1, 12221, Note_on_c, 0, 59, 55
1, 12229, Control_c, 0, 64, 47
1, 12244, Control_c, 0, 64, 51
1, 12259, Control_c, 0, 64, 55
1, 12274, Control_c, 0, 64, 58
1, 12288, Control_c, 0, 64, 61
1, 12303, Control_c, 0, 64, 63
1, 12318, Control_c, 0, 64, 65
1, 12333, Control_c, 0, 64, 66
1, 12348, Control_c, 0, 64, 69
1, 12363, Control_c, 0, 64, 71
1, 12377, Control_c, 0, 64, 75
1, 12392, Control_c, 0, 64, 81
1, 12407, Control_c, 0, 64, 87
1, 12421, Control_c, 0, 64, 91
1, 12445, Control_c, 0, 64, 92
1, 12460, Control_c, 0, 64, 91
1, 12474, Control_c, 0, 64, 90
1, 12489, Control_c, 0, 64, 89
1, 12504, Control_c, 0, 64, 88
1, 12510, Note_on_c, 0, 67, 45
1, 12515, Note_on_c, 0, 65, 37
1, 12518, Control_c, 0, 64, 87
1, 12533, Control_c, 0, 64, 86
1, 12548, Control_c, 0, 64, 85
1, 12563, Control_c, 0, 64, 85
1, 12578, Control_c, 0, 64, 84
1, 12593, Control_c, 0, 64, 82
1, 12608, Control_c, 0, 64, 80
1, 12623, Control_c, 0, 64, 79
1, 12638, Control_c, 0, 64, 78
1, 12652, Control_c, 0, 64, 77
1, 12667, Control_c, 0, 64, 76
1, 12673, Note_off_c, 0, 65, 54
1, 12682, Control_c, 0, 64, 75
1, 12697, Control_c, 0, 64, 75
1, 12701, Note_off_c, 0, 59, 33
1, 12712, Control_c, 0, 64, 74
1, 12726, Control_c, 0, 64, 74
1, 12741, Control_c, 0, 64, 73
1, 12771, Control_c, 0, 64, 72
1, 12786, Control_c, 0, 64, 71
1, 12800, Control_c, 0, 64, 69
1, 12815, Control_c, 0, 64, 66
1, 12829, Note_off_c, 0, 67, 23
1, 12830, Control_c, 0, 64, 62
1, 12844, Control_c, 0, 64, 57
1, 12855, Note_on_c, 0, 60, 47
1, 12859, Control_c, 0, 64, 50
1, 12874, Control_c, 0, 64, 47
1, 12889, Control_c, 0, 64, 48
1, 12904, Control_c, 0, 64, 50
1, 12918, Control_c, 0, 64, 52
1, 12933, Control_c, 0, 64, 55
1, 12948, Control_c, 0, 64, 58
1, 12963, Control_c, 0, 64, 60
1, 12978, Control_c, 0, 64, 62
1, 12992, Control_c, 0, 64, 64
1, 13007, Control_c, 0, 64, 65
1, 13022, Control_c, 0, 64, 66
1, 13037, Control_c, 0, 64, 68
1, 13052, Control_c, 0, 64, 72
1, 13067, Control_c, 0, 64, 78
1, 13082, Control_c, 0, 64, 86
1, 13097, Control_c, 0, 64, 91
1, 13111, Control_c, 0, 64, 93
1, 13141, Control_c, 0, 64, 92
1, 13156, Control_c, 0, 64, 92
1, 13171, Control_c, 0, 64, 91
1, 13192, Control_c, 0, 64, 90
1, 13207, Control_c, 0, 64, 89
1, 13222, Control_c, 0, 64, 87
1, 13237, Control_c, 0, 64, 84
1, 13253, Control_c, 0, 64, 80
1, 13267, Control_c, 0, 64, 74
1, 13282, Control_c, 0, 64, 68
1, 13297, Control_c, 0, 64, 64
1, 13312, Control_c, 0, 64, 59
1, 13327, Control_c, 0, 64, 56
1, 13342, Control_c, 0, 64, 57
1, 13356, Control_c, 0, 64, 57
1, 13371, Control_c, 0, 64, 58
1, 13374, Note_on_c, 0, 66, 36
1, 13380, Note_on_c, 0, 68, 41
1, 13386, Control_c, 0, 64, 60
1, 13401, Control_c, 0, 64, 61
1, 13416, Control_c, 0, 64, 63
1, 13431, Control_c, 0, 64, 64
1, 13446, Control_c, 0, 64, 65
1, 13460, Control_c, 0, 64, 67
1, 13475, Control_c, 0, 64, 69
1, 13490, Control_c, 0, 64, 72
1, 13505, Control_c, 0, 64, 74
1, 13520, Control_c, 0, 64, 77
1, 13535, Control_c, 0, 64, 80
1, 13548, Note_off_c, 0, 66, 40
1, 13549, Control_c, 0, 64, 82
1, 13564, Control_c, 0, 64, 83
1, 13594, Control_c, 0, 64, 82
1, 13609, Control_c, 0, 64, 82
1, 13639, Control_c, 0, 64, 81
1, 13639, Note_off_c, 0, 68, 31
1, 13654, Control_c, 0, 64, 80
1, 13668, Control_c, 0, 64, 79
1, 13683, Control_c, 0, 64, 78
1, 13698, Control_c, 0, 64, 77
1, 13713, Control_c, 0, 64, 76
1, 13728, Control_c, 0, 64, 75
1, 13742, Control_c, 0, 64, 73
1, 13757, Control_c, 0, 64, 71
1, 13772, Control_c, 0, 64, 69
1, 13787, Control_c, 0, 64, 67
1, 13802, Control_c, 0, 64, 65
1, 13814, Note_off_c, 0, 60, 35
1, 13816, Control_c, 0, 64, 63
1, 13831, Control_c, 0, 64, 55
1, 13835, Note_off_c, 0, 47, 56
1, 13844, Note_off_c, 0, 35, 40
1, 13846, Control_c, 0, 64, 44
1, 13860, Control_c, 0, 64, 28
1, 13875, Control_c, 0, 64, 18
1, 13890, Control_c, 0, 64, 17
1, 14239, Control_c, 0, 64, 18
1, 14254, Control_c, 0, 64, 19
1, 14269, Control_c, 0, 64, 20
1, 14284, Control_c, 0, 64, 21
1, 14298, Control_c, 0, 64, 23
1, 14313, Control_c, 0, 64, 24
1, 14328, Control_c, 0, 64, 25
1, 14343, Control_c, 0, 64, 26
1, 14358, Control_c, 0, 64, 28
1, 14373, Control_c, 0, 64, 31
1, 14387, Control_c, 0, 64, 34
1, 14402, Control_c, 0, 64, 40
1, 14417, Control_c, 0, 64, 46
1, 14422, Note_on_c, 0, 69, 62
1, 14432, Control_c, 0, 64, 50
1, 14447, Control_c, 0, 64, 54
1, 14462, Control_c, 0, 64, 57
1, 14466, Note_off_c, 0, 69, 63
1, 14477, Control_c, 0, 64, 60
1, 14491, Control_c, 0, 64, 62
1, 14506, Control_c, 0, 64, 64
1, 14519, Note_on_c, 0, 38, 37
1, 14521, Control_c, 0, 64, 68
1, 14525, Note_on_c, 0, 57, 52
1, 14536, Control_c, 0, 64, 76
1, 14542, Note_on_c, 0, 50, 25
1, 14551, Control_c, 0, 64, 89
1, 14559, Note_off_c, 0, 38, 44
1, 14565, Control_c, 0, 64, 105
1, 14579, Note_off_c, 0, 57, 58
1, 14580, Control_c, 0, 64, 121
1, 14582, Note_off_c, 0, 50, 53
1, 14595, Control_c, 0, 64, 119
1, 14609, Control_c, 0, 64, 114
1, 14624, Control_c, 0, 64, 111
1, 14639, Control_c, 0, 64, 108
1, 14654, Control_c, 0, 64, 104
1, 14669, Control_c, 0, 64, 96
1, 14691, Control_c, 0, 64, 86
1, 14694, Note_on_c, 0, 62, 56
1, 14695, Note_on_c, 0, 53, 34
1, 14706, Control_c, 0, 64, 76
1, 14721, Control_c, 0, 64, 67
1, 14730, Note_off_c, 0, 53, 50
1, 14736, Control_c, 0, 64, 60
1, 14751, Control_c, 0, 64, 49
1, 14765, Control_c, 0, 64, 45
1, 14780, Control_c, 0, 64, 47
1, 14786, Note_off_c, 0, 62, 58
1, 14795, Control_c, 0, 64, 51
1, 14804, Note_on_c, 0, 57, 21
1, 14810, Control_c, 0, 64, 54
1, 14824, Control_c, 0, 64, 58
1, 14833, Note_off_c, 0, 57, 50
1, 14837, Note_on_c, 0, 53, 52
1, 14841, Control_c, 0, 64, 61
1, 14855, Control_c, 0, 64, 63
1, 14858, Note_on_c, 0, 65, 53
1, 14870, Control_c, 0, 64, 65
1, 14885, Control_c, 0, 64, 67
1, 14897, Note_off_c, 0, 53, 60
1, 14900, Control_c, 0, 64, 70
1, 14914, Control_c, 0, 64, 76
1, 14929, Control_c, 0, 64, 87
1, 14941, Note_on_c, 0, 57, 50
1, 14944, Control_c, 0, 64, 107
1, 14959, Control_c, 0, 64, 127
1, 14996, Note_off_c, 0, 57, 61
1, 15018, Note_on_c, 0, 72, 55
1, 15022, Note_on_c, 0, 53, 63
1, 15052, Note_off_c, 0, 53, 65
1, 15077, Control_c, 0, 64, 98
1, 15092, Control_c, 0, 64, 75
1, 15107, Control_c, 0, 64, 62
1, 15121, Control_c, 0, 64, 48
1, 15136, Control_c, 0, 64, 53
1, 15146, Note_on_c, 0, 48, 70
1, 15150, Note_off_c, 0, 65, 0
1, 15151, Control_c, 0, 64, 59
1, 15153, Note_on_c, 0, 36, 48
1, 15154, Note_on_c, 0, 60, 55
1, 15166, Control_c, 0, 64, 64
1, 15179, Note_off_c, 0, 48, 68
1, 15181, Control_c, 0, 64, 68
1, 15185, Note_off_c, 0, 36, 54
1, 15186, Poly_aftertouch_c, 0, 65, 127
1, 15195, Control_c, 0, 64, 76
1, 15210, Control_c, 0, 64, 88
1, 15225, Control_c, 0, 64, 106
1, 15240, Control_c, 0, 64, 127
1, 15257, Note_off_c, 0, 72, 56
1, 15280, Note_off_c, 0, 60, 37
1, 15301, Note_on_c, 0, 52, 46
1, 15308, Note_on_c, 0, 64, 56
1, 15329, Note_off_c, 0, 52, 60
1, 15339, Poly_aftertouch_c, 0, 65, 0
1, 15382, Note_on_c, 0, 57, 54
1, 15429, Note_off_c, 0, 57, 60
1, 15453, Note_on_c, 0, 67, 72
1, 15458, Note_off_c, 0, 64, 61
1, 15461, Note_on_c, 0, 52, 54
1, 15508, Note_off_c, 0, 52, 63
1, 15556, Note_on_c, 0, 57, 56
1, 15594, Note_off_c, 0, 57, 65
1, 15617, Note_on_c, 0, 65, 57
1, 15629, Note_on_c, 0, 52, 53
1, 15652, Note_off_c, 0, 52, 61
1, 15663, Control_c, 0, 64, 96
1, 15678, Control_c, 0, 64, 72
1, 15693, Control_c, 0, 64, 58
1, 15708, Control_c, 0, 64, 40
1, 15718, Note_off_c, 0, 65, 60
1, 15723, Control_c, 0, 64, 44
1, 15738, Control_c, 0, 64, 52
1, 15752, Control_c, 0, 64, 58
1, 15754, Note_on_c, 0, 47, 61
1, 15756, Note_on_c, 0, 35, 40
1, 15759, Note_on_c, 0, 64, 61
1, 15767, Control_c, 0, 64, 63
1, 15782, Control_c, 0, 64, 68
1, 15783, Note_off_c, 0, 47, 64
1, 15797, Note_off_c, 0, 35, 32
1, 15797, Control_c, 0, 64, 76
1, 15811, Control_c, 0, 64, 85
1, 15826, Control_c, 0, 64, 99
1, 15841, Control_c, 0, 64, 127
1, 15882, Note_off_c, 0, 67, 56
1, 15883, Note_on_c, 0, 53, 61
1, 15889, Note_off_c, 0, 64, 61
1, 15911, Note_on_c, 0, 65, 77
1, 15922, Note_on_c, 0, 61, 61
1, 15938, Note_off_c, 0, 53, 61
1, 15974, Control_c, 0, 64, 86
1, 15979, Note_on_c, 0, 57, 58
1, 15989, Control_c, 0, 64, 69
1, 15992, Note_off_c, 0, 61, 59
1, 16004, Control_c, 0, 64, 58
1, 16018, Control_c, 0, 64, 47
1, 16026, Note_off_c, 0, 57, 59
1, 16033, Control_c, 0, 64, 47
1, 16048, Note_on_c, 0, 69, 86
1, 16048, Control_c, 0, 64, 49
1, 16051, Note_off_c, 0, 65, 65
1, 16061, Note_on_c, 0, 62, 65
1, 16063, Control_c, 0, 64, 54
1, 16065, Note_on_c, 0, 53, 57
1, 16078, Control_c, 0, 64, 60
1, 16093, Control_c, 0, 64, 65
1, 16104, Note_off_c, 0, 53, 64
1, 16107, Control_c, 0, 64, 71
1, 16122, Control_c, 0, 64, 83
1, 16137, Control_c, 0, 64, 115
1, 16149, Note_on_c, 0, 57, 54
1, 16152, Control_c, 0, 64, 127
1, 16207, Note_off_c, 0, 57, 61
1, 16221, Note_on_c, 0, 65, 57
1, 16225, Note_on_c, 0, 53, 62
1, 16226, Note_off_c, 0, 62, 36
1, 16257, Note_off_c, 0, 53, 64
1, 16263, Control_c, 0, 64, 93
1, 16277, Control_c, 0, 64, 68
1, 16292, Control_c, 0, 64, 53
1, 16307, Control_c, 0, 64, 43
1, 16322, Control_c, 0, 64, 48
1, 16337, Control_c, 0, 64, 55
1, 16352, Control_c, 0, 64, 62
1, 16358, Note_on_c, 0, 46, 72
1, 16363, Note_off_c, 0, 65, 60
1, 16367, Control_c, 0, 64, 66
1, 16372, Note_on_c, 0, 67, 65
1, 16373, Note_on_c, 0, 34, 43
1, 16382, Control_c, 0, 64, 73
1, 16390, Note_off_c, 0, 46, 67
1, 16397, Control_c, 0, 64, 85
1, 16411, Note_off_c, 0, 69, 59
1, 16411, Control_c, 0, 64, 107
1, 16412, Note_off_c, 0, 34, 49
1, 16420, Note_off_c, 0, 67, 60
1, 16426, Control_c, 0, 64, 127
1, 16510, Note_on_c, 0, 52, 66
1, 16529, Note_on_c, 0, 67, 71
1, 16564, Note_off_c, 0, 52, 62
1, 16599, Note_on_c, 0, 55, 66
1, 16638, Note_off_c, 0, 67, 59
1, 16650, Note_off_c, 0, 55, 58
1, 16666, Note_on_c, 0, 78, 95
1, 16681, Note_on_c, 0, 70, 75
1, 16686, Note_on_c, 0, 52, 66
1, 16730, Note_off_c, 0, 52, 62
1, 16772, Note_on_c, 0, 55, 59
1, 16829, Note_off_c, 0, 55, 64
1, 16853, Note_on_c, 0, 52, 69
1, 16878, Note_off_c, 0, 52, 67
1, 16914, Control_c, 0, 64, 76
1, 16915, Note_off_c, 0, 78, 62
1, 16929, Control_c, 0, 64, 47
1, 16951, Control_c, 0, 64, 0
1, 16970, Note_off_c, 0, 70, 61
1, 16985, Note_on_c, 0, 77, 96
1, 16987, Note_on_c, 0, 33, 66
1, 16989, Note_on_c, 0, 45, 77
1, 17017, Note_off_c, 0, 33, 61
1, 17026, Control_c, 0, 64, 35
1, 17028, Note_off_c, 0, 45, 65
1, 17040, Control_c, 0, 64, 53
1, 17055, Control_c, 0, 64, 63
1, 17070, Control_c, 0, 64, 74
1, 17085, Control_c, 0, 64, 101
1, 17099, Control_c, 0, 64, 127
1, 17112, Note_on_c, 0, 48, 69
1, 17137, Note_on_c, 0, 69, 67
1, 17180, Note_off_c, 0, 48, 63
1, 17207, Note_on_c, 0, 57, 72
1, 17237, Note_off_c, 0, 77, 60
1, 17268, Note_off_c, 0, 69, 60
1, 17278, Note_off_c, 0, 57, 62
1, 17291, Note_on_c, 0, 76, 92
1, 17293, Note_on_c, 0, 48, 71
1, 17297, Note_on_c, 0, 72, 81
1, 17355, Note_off_c, 0, 48, 61
1, 17385, Note_on_c, 0, 57, 78
1, 17444, Note_off_c, 0, 57, 64
1, 17477, Note_on_c, 0, 48, 75
1, 17520, Note_off_c, 0, 48, 62
1, 17530, Control_c, 0, 64, 83
1, 17545, Control_c, 0, 64, 62
1, 17560, Control_c, 0, 64, 0
1, 17577, Note_off_c, 0, 72, 0
1, 17589, Control_c, 0, 64, 27
1, 17604, Note_on_c, 0, 75, 88
1, 17604, Control_c, 0, 64, 47
1, 17609, Note_on_c, 0, 43, 74
1, 17610, Note_on_c, 0, 31, 64
1, 17613, Poly_aftertouch_c, 0, 72, 127
1, 17619, Control_c, 0, 64, 60
1, 17633, Note_off_c, 0, 76, 63
1, 17634, Control_c, 0, 64, 67
1, 17640, Note_off_c, 0, 31, 57
1, 17640, Note_off_c, 0, 43, 67
1, 17649, Control_c, 0, 64, 81
1, 17663, Control_c, 0, 64, 127
1, 17728, Note_on_c, 0, 50, 78
1, 17771, Note_on_c, 0, 70, 85
1, 17805, Note_off_c, 0, 75, 58
1, 17814, Note_off_c, 0, 50, 63
1, 17819, Note_on_c, 0, 58, 86
1, 17874, Poly_aftertouch_c, 0, 72, 0
1, 17878, Control_c, 0, 64, 111
1, 17893, Control_c, 0, 64, 71
1, 17902, Note_on_c, 0, 74, 91
1, 17907, Note_on_c, 0, 50, 81
1, 17908, Note_off_c, 0, 58, 57
1, 17908, Control_c, 0, 64, 50
1, 17923, Control_c, 0, 64, 36
1, 17938, Control_c, 0, 64, 55
1, 17939, Note_off_c, 0, 70, 50
1, 17953, Control_c, 0, 64, 64
1, 17968, Control_c, 0, 64, 74
1, 17982, Control_c, 0, 64, 127
1, 17989, Note_off_c, 0, 50, 61
1, 17994, Note_on_c, 0, 58, 85
1, 18039, Note_off_c, 0, 58, 62
1, 18071, Note_on_c, 0, 72, 84
1, 18082, Note_on_c, 0, 50, 71
1, 18132, Note_off_c, 0, 50, 57
1, 18203, Note_off_c, 0, 72, 60
1, 18203, Note_on_c, 0, 70, 87
1, 18206, Note_on_c, 0, 41, 74
1, 18206, Control_c, 0, 64, 92
1, 18206, Note_off_c, 0, 74, 60
1, 18220, Control_c, 0, 64, 62
1, 18227, Note_off_c, 0, 70, 69
1, 18233, Note_off_c, 0, 41, 66
1, 18235, Control_c, 0, 64, 0
1, 18357, Note_on_c, 0, 43, 76
1, 18359, Note_on_c, 0, 76, 96
1, 18363, Note_on_c, 0, 40, 72
1, 18370, Note_on_c, 0, 72, 74
1, 18391, Note_off_c, 0, 43, 68
1, 18393, Note_off_c, 0, 72, 69
1, 18393, Note_off_c, 0, 76, 66
1, 18397, Note_off_c, 0, 40, 67
1, 18499, Note_on_c, 0, 74, 94
1, 18499, Note_on_c, 0, 77, 99
1, 18501, Note_on_c, 0, 41, 96
1, 18507, Note_on_c, 0, 38, 82
1, 18523, Note_off_c, 0, 74, 68
1, 18537, Note_off_c, 0, 41, 66
1, 18539, Note_off_c, 0, 77, 65
1, 18543, Note_off_c, 0, 38, 63
1, 18633, Note_on_c, 0, 40, 92
1, 18646, Note_on_c, 0, 36, 76
1, 18688, Note_off_c, 0, 40, 64
1, 18693, Note_on_c, 0, 74, 97
1, 18696, Note_on_c, 0, 86, 93
1, 18701, Note_off_c, 0, 36, 53
1, 18714, Note_off_c, 0, 86, 71
1, 18728, Note_off_c, 0, 74, 65
1, 18731, Note_on_c, 0, 38, 9
1, 18783, Note_off_c, 0, 38, 37
1, 18786, Note_on_c, 0, 39, 94
1, 18787, Note_on_c, 0, 35, 90
1, 18788, Note_on_c, 0, 81, 95
1, 18791, Note_on_c, 0, 69, 104
1, 18792, Note_on_c, 0, 73, 96
1, 18793, Note_on_c, 0, 75, 93
1, 18805, Control_c, 0, 64, 59
1, 18820, Control_c, 0, 64, 79
1, 18835, Control_c, 0, 64, 127
1, 18868, Note_off_c, 0, 69, 59
1, 18912, Note_off_c, 0, 35, 58
1, 18919, Note_off_c, 0, 81, 57
1, 18921, Note_off_c, 0, 39, 54
1, 18948, Note_off_c, 0, 73, 61
1, 18986, Note_off_c, 0, 75, 45
1, 18987, Note_on_c, 0, 69, 79
1, 19005, Note_off_c, 0, 69, 74
1, 19169, Note_on_c, 0, 38, 91
1, 19169, Note_on_c, 0, 34, 93
1, 19172, Note_on_c, 0, 81, 104
1, 19172, Note_on_c, 0, 93, 103
1, 19198, Control_c, 0, 64, 73
1, 19213, Control_c, 0, 64, 42
1, 19228, Control_c, 0, 64, 0
1, 19285, Note_off_c, 0, 93, 67
1, 19301, Control_c, 0, 64, 56
1, 19316, Control_c, 0, 64, 70
1, 19319, Note_off_c, 0, 81, 66
1, 19331, Control_c, 0, 64, 127
1, 19351, Note_off_c, 0, 38, 55
1, 19512, Note_off_c, 0, 34, 60
1, 19524, Control_c, 0, 64, 109
1, 19534, Note_on_c, 0, 81, 94
1, 19535, Note_on_c, 0, 69, 106
1, 19536, Note_on_c, 0, 33, 92
1, 19536, Note_on_c, 0, 37, 95
1, 19538, Note_on_c, 0, 73, 90
1, 19538, Control_c, 0, 64, 64
1, 19540, Note_on_c, 0, 76, 87
1, 19553, Control_c, 0, 64, 0
1, 19613, Control_c, 0, 64, 23
1, 19628, Control_c, 0, 64, 58
1, 19635, Note_off_c, 0, 69, 60
1, 19643, Control_c, 0, 64, 69
1, 19645, Note_off_c, 0, 81, 58
1, 19658, Control_c, 0, 64, 85
1, 19673, Control_c, 0, 64, 127
1, 19693, Note_off_c, 0, 73, 61
1, 19704, Note_off_c, 0, 76, 64
1, 19714, Note_on_c, 0, 69, 101
1, 19739, Note_off_c, 0, 37, 62
1, 19747, Note_off_c, 0, 69, 69
1, 19748, Note_off_c, 0, 33, 59
1, 19872, Note_on_c, 0, 57, 104
1, 19880, Control_c, 0, 64, 81
1, 19895, Control_c, 0, 64, 50
1, 19909, Control_c, 0, 64, 0
1, 20027, Note_on_c, 0, 53, 89
1, 20033, Note_on_c, 0, 50, 84
1, 20071, Note_off_c, 0, 53, 64
1, 20072, Note_off_c, 0, 50, 63
1, 20191, Note_on_c, 0, 52, 99
1, 20192, Note_off_c, 0, 57, 56
1, 20194, Note_on_c, 0, 45, 91
1, 20213, Control_c, 0, 64, 53
1, 20228, Control_c, 0, 64, 61
1, 20243, Control_c, 0, 64, 69
1, 20257, Control_c, 0, 64, 116
1, 20272, Control_c, 0, 64, 127
1, 20330, Note_on_c, 0, 69, 105
1, 20366, Note_off_c, 0, 69, 69
1, 20495, Note_on_c, 0, 59, 101
1, 20501, Note_on_c, 0, 57, 92
1, 20501, Note_off_c, 0, 52, 62
1, 20529, Note_off_c, 0, 45, 58
1, 20555, Control_c, 0, 64, 101
1, 20570, Control_c, 0, 64, 80
1, 20585, Control_c, 0, 64, 64
1, 20599, Control_c, 0, 64, 31
1, 20614, Control_c, 0, 64, 0
1, 20643, Note_on_c, 0, 53, 92
1, 20645, Note_on_c, 0, 50, 87
1, 20704, Note_off_c, 0, 53, 63
1, 20706, Note_off_c, 0, 50, 65
1, 20758, Note_off_c, 0, 59, 59
1, 20814, Note_on_c, 0, 52, 104
1, 20817, Note_on_c, 0, 45, 94
1, 20844, Control_c, 0, 64, 51
1, 20858, Control_c, 0, 64, 62
1, 20873, Control_c, 0, 64, 68
1, 20888, Control_c, 0, 64, 83
1, 20898, Note_off_c, 0, 57, 50
1, 20903, Control_c, 0, 64, 127
1, 20993, Note_on_c, 0, 69, 99
1, 21055, Note_off_c, 0, 69, 63
1, 21196, Note_on_c, 0, 61, 98
1, 21196, Note_on_c, 0, 57, 97
1, 21217, Note_off_c, 0, 52, 65
1, 21237, Note_off_c, 0, 45, 65
1, 21726, Note_on_c, 0, 38, 90
1, 21726, Note_on_c, 0, 31, 93
1, 21729, Note_on_c, 0, 34, 84
1, 21785, Control_c, 0, 64, 84
1, 21800, Control_c, 0, 64, 60
1, 21815, Control_c, 0, 64, 0
1, 21893, Note_off_c, 0, 57, 59
1, 21899, Note_off_c, 0, 61, 60
1, 22179, Control_c, 0, 64, 17
1, 22194, Control_c, 0, 64, 24
1, 22209, Control_c, 0, 64, 27
1, 22224, Control_c, 0, 64, 34
1, 22239, Control_c, 0, 64, 42
1, 22253, Control_c, 0, 64, 47
1, 22268, Control_c, 0, 64, 51
1, 22283, Control_c, 0, 64, 54
1, 22298, Control_c, 0, 64, 55
1, 22312, Control_c, 0, 64, 58
1, 22327, Control_c, 0, 64, 60
1, 22342, Control_c, 0, 64, 61
1, 22357, Control_c, 0, 64, 62
1, 22372, Control_c, 0, 64, 63
1, 22386, Control_c, 0, 64, 64
1, 22401, Control_c, 0, 64, 65
1, 22416, Control_c, 0, 64, 66
1, 22431, Control_c, 0, 64, 68
1, 22446, Control_c, 0, 64, 70
1, 22460, Control_c, 0, 64, 72
1, 22475, Control_c, 0, 64, 76
1, 22490, Control_c, 0, 64, 80
1, 22504, Control_c, 0, 64, 85
1, 22519, Control_c, 0, 64, 92
1, 22534, Control_c, 0, 64, 101
1, 22549, Control_c, 0, 64, 127
1, 23179, Control_c, 0, 67, 9
1, 23194, Control_c, 0, 67, 33
1, 23208, Control_c, 0, 67, 58
1, 23223, Control_c, 0, 67, 84
1, 23238, Control_c, 0, 67, 109
1, 23253, Control_c, 0, 67, 127
1, 23794, Note_off_c, 0, 31, 49
1, 23803, Note_off_c, 0, 34, 41
1, 23830, Note_off_c, 0, 38, 49
1, 24963, Note_on_c, 0, 86, 79
1, 24967, Note_on_c, 0, 70, 51
1, 24976, Note_on_c, 0, 67, 40
1, 25005, Note_off_c, 0, 86, 60
1, 25008, Note_off_c, 0, 70, 62
1, 25012, Note_off_c, 0, 67, 61
1, 25092, Note_on_c, 0, 74, 57
1, 25155, Note_off_c, 0, 74, 55
1, 25229, Note_on_c, 0, 73, 55
1, 25235, Note_on_c, 0, 62, 43
1, 25245, Note_on_c, 0, 69, 43
1, 25275, Note_off_c, 0, 73, 61
1, 25282, Note_off_c, 0, 69, 53
1, 25286, Note_off_c, 0, 62, 58
1, 25292, Control_c, 0, 64, 102
1, 25307, Control_c, 0, 64, 87
1, 25322, Control_c, 0, 64, 76
1, 25337, Control_c, 0, 64, 68
1, 25351, Control_c, 0, 64, 64
1, 25362, Note_on_c, 0, 74, 49
1, 25366, Control_c, 0, 64, 63
1, 25381, Control_c, 0, 64, 64
1, 25411, Control_c, 0, 64, 64
1, 25423, Note_off_c, 0, 74, 45
1, 25426, Control_c, 0, 64, 65
1, 25441, Control_c, 0, 64, 67
1, 25456, Control_c, 0, 64, 68
1, 25461, Note_on_c, 0, 70, 51
1, 25462, Note_on_c, 0, 67, 42
1, 25470, Control_c, 0, 64, 71
1, 25473, Note_on_c, 0, 86, 73
1, 25485, Control_c, 0, 64, 74
1, 25500, Control_c, 0, 64, 80
1, 25503, Note_off_c, 0, 86, 63
1, 25506, Note_off_c, 0, 70, 59
1, 25509, Note_off_c, 0, 67, 60
1, 25515, Control_c, 0, 64, 87
1, 25529, Control_c, 0, 64, 96
1, 25544, Control_c, 0, 64, 107
1, 25559, Control_c, 0, 64, 116
1, 25574, Control_c, 0, 64, 117
1, 25596, Note_on_c, 0, 74, 57
1, 25603, Control_c, 0, 64, 118
1, 25634, Control_c, 0, 64, 119
1, 25636, Note_off_c, 0, 74, 61
1, 25701, Note_on_c, 0, 69, 45
1, 25704, Note_on_c, 0, 62, 42
1, 25712, Note_on_c, 0, 73, 53
1, 25735, Note_off_c, 0, 73, 64
1, 25737, Control_c, 0, 64, 118
1, 25740, Note_off_c, 0, 69, 55
1, 25748, Note_off_c, 0, 62, 58
1, 25752, Control_c, 0, 64, 117
1, 25767, Control_c, 0, 64, 113
1, 25782, Control_c, 0, 64, 108
1, 25796, Control_c, 0, 64, 100
1, 25811, Control_c, 0, 64, 90
1, 25819, Note_on_c, 0, 74, 53
1, 25826, Control_c, 0, 64, 80
1, 25841, Control_c, 0, 64, 71
1, 25856, Control_c, 0, 64, 67
1, 25870, Control_c, 0, 64, 66
1, 25876, Note_off_c, 0, 74, 54
1, 25885, Control_c, 0, 64, 67
1, 25900, Control_c, 0, 64, 69
1, 25922, Control_c, 0, 64, 70
1, 25924, Note_on_c, 0, 70, 46
1, 25926, Note_on_c, 0, 67, 41
1, 25937, Note_on_c, 0, 86, 63
1, 25937, Control_c, 0, 64, 73
1, 25952, Control_c, 0, 64, 75
1, 25967, Control_c, 0, 64, 77
1, 25974, Note_off_c, 0, 86, 61
1, 25976, Note_off_c, 0, 67, 57
1, 25978, Note_off_c, 0, 70, 55
1, 25982, Control_c, 0, 64, 80
1, 25996, Control_c, 0, 64, 83
1, 26011, Control_c, 0, 64, 88
1, 26027, Control_c, 0, 64, 97
1, 26038, Note_on_c, 0, 74, 60
1, 26042, Control_c, 0, 64, 113
1, 26057, Control_c, 0, 64, 127
1, 26078, Note_off_c, 0, 74, 59
1, 26149, Note_on_c, 0, 73, 57
1, 26156, Note_on_c, 0, 69, 43
1, 26158, Note_on_c, 0, 76, 55
1, 26168, Note_on_c, 0, 62, 38
1, 26173, Note_off_c, 0, 73, 65
1, 26202, Note_off_c, 0, 76, 53
1, 26203, Note_off_c, 0, 69, 55
1, 26216, Note_off_c, 0, 62, 57
1, 26238, Note_on_c, 0, 78, 71
1, 26246, Note_on_c, 0, 74, 59
1, 26264, Control_c, 0, 64, 103
1, 26266, Note_off_c, 0, 78, 68
1, 26279, Control_c, 0, 64, 86
1, 26280, Note_off_c, 0, 74, 64
1, 26294, Control_c, 0, 64, 74
1, 26308, Control_c, 0, 64, 66
1, 26323, Control_c, 0, 64, 61
1, 26338, Control_c, 0, 64, 63
1, 26350, Note_on_c, 0, 70, 47
1, 26353, Note_on_c, 0, 79, 68
1, 26353, Control_c, 0, 64, 64
1, 26358, Note_on_c, 0, 67, 39
1, 26359, Note_on_c, 0, 86, 63
1, 26368, Control_c, 0, 64, 65
1, 26383, Control_c, 0, 64, 67
1, 26387, Note_off_c, 0, 79, 62
1, 26393, Note_off_c, 0, 86, 63
1, 26398, Control_c, 0, 64, 70
1, 26404, Note_off_c, 0, 70, 55
1, 26409, Note_off_c, 0, 67, 55
1, 26412, Control_c, 0, 64, 74
1, 26427, Control_c, 0, 64, 80
1, 26442, Control_c, 0, 64, 90
1, 26446, Note_on_c, 0, 81, 73
1, 26456, Note_on_c, 0, 74, 54
1, 26457, Control_c, 0, 64, 106
1, 26472, Control_c, 0, 64, 127
1, 26475, Note_off_c, 0, 74, 62
1, 26476, Note_off_c, 0, 81, 64
1, 26552, Note_on_c, 0, 82, 70
1, 26559, Note_on_c, 0, 73, 69
1, 26566, Note_on_c, 0, 62, 44
1, 26570, Note_on_c, 0, 69, 37
1, 26588, Note_off_c, 0, 82, 58
1, 26594, Note_off_c, 0, 73, 58
1, 26608, Note_off_c, 0, 69, 50
1, 26617, Note_off_c, 0, 62, 58
1, 26648, Note_on_c, 0, 83, 79
1, 26675, Note_on_c, 0, 74, 54
1, 26685, Note_off_c, 0, 83, 63
1, 26698, Note_off_c, 0, 74, 63
1, 26716, Control_c, 0, 64, 99
1, 26731, Control_c, 0, 64, 79
1, 26746, Control_c, 0, 64, 64
1, 26760, Control_c, 0, 64, 38
1, 26764, Note_on_c, 0, 84, 79
1, 26768, Note_on_c, 0, 75, 76
1, 26774, Note_on_c, 0, 65, 48
1, 26775, Control_c, 0, 64, 0
1, 26777, Note_on_c, 0, 68, 49
1, 26787, Note_off_c, 0, 84, 67
1, 26794, Note_off_c, 0, 75, 67
1, 26815, Note_off_c, 0, 65, 60
1, 26823, Note_off_c, 0, 68, 59
1, 26886, Note_on_c, 0, 72, 59
1, 26915, Note_off_c, 0, 72, 67
1, 26974, Note_on_c, 0, 76, 68
1, 26979, Note_on_c, 0, 60, 50
1, 26982, Note_on_c, 0, 71, 52
1, 26989, Note_on_c, 0, 67, 42
1, 27004, Note_off_c, 0, 71, 63
1, 27014, Note_off_c, 0, 76, 63
1, 27021, Note_off_c, 0, 67, 54
1, 27022, Note_off_c, 0, 60, 61
1, 27086, Note_on_c, 0, 72, 64
1, 27117, Note_off_c, 0, 72, 64
1, 27177, Note_on_c, 0, 84, 76
1, 27179, Note_on_c, 0, 77, 68
1, 27182, Note_on_c, 0, 65, 52
1, 27187, Note_on_c, 0, 68, 47
1, 27201, Note_off_c, 0, 84, 67
1, 27208, Note_off_c, 0, 77, 66
1, 27222, Note_off_c, 0, 68, 60
1, 27223, Note_off_c, 0, 65, 62
1, 27275, Note_on_c, 0, 72, 64
1, 27308, Note_off_c, 0, 72, 64
1, 27375, Note_on_c, 0, 71, 63
1, 27375, Note_on_c, 0, 79, 65
1, 27387, Note_on_c, 0, 67, 49
1, 27388, Note_on_c, 0, 60, 46
1, 27403, Note_off_c, 0, 71, 65
1, 27423, Note_off_c, 0, 79, 57
1, 27434, Note_off_c, 0, 67, 61
1, 27439, Note_off_c, 0, 60, 62
1, 27474, Note_on_c, 0, 72, 71
1, 27533, Note_off_c, 0, 72, 60
1, 27583, Note_on_c, 0, 80, 70
1, 27589, Note_on_c, 0, 65, 51
1, 27590, Note_on_c, 0, 68, 51
1, 27592, Note_on_c, 0, 84, 53
1, 27626, Note_off_c, 0, 80, 57
1, 27630, Note_off_c, 0, 68, 59
1, 27633, Note_off_c, 0, 65, 61
1, 27635, Note_off_c, 0, 84, 62
1, 27676, Note_on_c, 0, 74, 52
1, 27692, Note_on_c, 0, 72, 62
1, 27712, Note_off_c, 0, 72, 61
1, 27714, Note_off_c, 0, 74, 50
1, 27776, Note_on_c, 0, 71, 70
1, 27778, Note_on_c, 0, 77, 62
1, 27795, Note_on_c, 0, 67, 44
1, 27801, Note_off_c, 0, 71, 68
1, 27805, Note_on_c, 0, 60, 39
1, 27811, Note_off_c, 0, 77, 62
1, 27827, Note_off_c, 0, 67, 56
1, 27839, Note_off_c, 0, 60, 54
1, 27864, Note_on_c, 0, 76, 73
1, 27864, Note_on_c, 0, 72, 70
1, 27894, Note_off_c, 0, 76, 67
1, 27904, Note_off_c, 0, 72, 60
1, 27966, Note_on_c, 0, 68, 56
1, 27971, Note_on_c, 0, 65, 49
1, 27974, Note_on_c, 0, 79, 75
1, 27977, Note_on_c, 0, 84, 71
1, 28001, Note_off_c, 0, 79, 67
1, 28005, Note_off_c, 0, 68, 63
1, 28007, Note_off_c, 0, 65, 64
1, 28034, Note_off_c, 0, 84, 47
1, 28055, Note_on_c, 0, 77, 77
1, 28072, Note_on_c, 0, 72, 53
1, 28084, Note_off_c, 0, 77, 65
1, 28093, Note_off_c, 0, 72, 63
1, 28147, Note_on_c, 0, 80, 80
1, 28155, Note_on_c, 0, 67, 56
1, 28159, Note_on_c, 0, 71, 65
1, 28160, Note_on_c, 0, 60, 51
1, 28188, Note_off_c, 0, 80, 62
1, 28193, Note_off_c, 0, 67, 59
1, 28193, Note_off_c, 0, 71, 64
1, 28203, Note_off_c, 0, 60, 62
1, 28237, Note_on_c, 0, 79, 80
1, 28267, Note_on_c, 0, 72, 35
1, 28271, Note_off_c, 0, 79, 66
1, 28294, Note_off_c, 0, 72, 53
1, 28341, Note_on_c, 0, 82, 89
1, 28353, Note_on_c, 0, 66, 52
1, 28357, Note_on_c, 0, 63, 47
1, 28384, Note_off_c, 0, 63, 57
1, 28386, Note_off_c, 0, 66, 64
1, 28388, Note_off_c, 0, 82, 64
1, 28458, Note_on_c, 0, 70, 59
1, 28490, Note_off_c, 0, 70, 66
1, 28554, Note_on_c, 0, 58, 53
1, 28558, Note_on_c, 0, 69, 56
1, 28562, Note_on_c, 0, 65, 40
1, 28591, Note_off_c, 0, 65, 54
1, 28593, Note_off_c, 0, 58, 62
1, 28597, Note_off_c, 0, 69, 63
1, 28664, Note_on_c, 0, 70, 52
1, 28714, Note_off_c, 0, 70, 56
1, 28761, Note_on_c, 0, 82, 83
1, 28770, Note_on_c, 0, 66, 50
1, 28771, Note_on_c, 0, 63, 47
1, 28794, Note_off_c, 0, 82, 65
1, 28798, Note_off_c, 0, 63, 58
1, 28800, Note_off_c, 0, 66, 63
1, 28856, Note_on_c, 0, 70, 58
1, 28889, Note_off_c, 0, 70, 64
1, 28970, Note_on_c, 0, 69, 57
1, 28985, Note_on_c, 0, 58, 52
1, 28987, Note_on_c, 0, 65, 42
1, 29000, Note_off_c, 0, 69, 65
1, 29015, Note_off_c, 0, 65, 55
1, 29020, Note_off_c, 0, 58, 63
1, 29059, Note_on_c, 0, 70, 63
1, 29101, Note_off_c, 0, 70, 60
1, 29165, Note_on_c, 0, 82, 80
1, 29176, Note_on_c, 0, 66, 54
1, 29179, Note_on_c, 0, 63, 52
1, 29209, Note_off_c, 0, 66, 65
1, 29210, Note_off_c, 0, 63, 62
1, 29211, Note_off_c, 0, 82, 63
1, 29256, Note_on_c, 0, 70, 69
1, 29287, Note_off_c, 0, 70, 65
1, 29352, Note_on_c, 0, 69, 70
1, 29370, Note_on_c, 0, 72, 56
1, 29374, Note_on_c, 0, 65, 48
1, 29376, Note_on_c, 0, 58, 51
1, 29379, Note_off_c, 0, 69, 68
1, 29401, Note_off_c, 0, 65, 59
1, 29409, Note_off_c, 0, 58, 63
1, 29410, Note_off_c, 0, 72, 57
1, 29435, Note_on_c, 0, 74, 54
1, 29447, Note_on_c, 0, 70, 67
1, 29452, Note_off_c, 0, 74, 62
1, 29503, Note_off_c, 0, 70, 62
1, 29542, Note_on_c, 0, 63, 56
1, 29542, Note_on_c, 0, 75, 73
1, 29548, Note_on_c, 0, 82, 59
1, 29551, Note_on_c, 0, 66, 46
1, 29577, Note_off_c, 0, 82, 56
1, 29579, Note_off_c, 0, 75, 56
1, 29583, Note_off_c, 0, 63, 59
1, 29587, Note_off_c, 0, 66, 60
1, 29629, Note_on_c, 0, 77, 67
1, 29640, Note_on_c, 0, 70, 50
1, 29657, Note_off_c, 0, 77, 67
1, 29676, Note_off_c, 0, 70, 60
1, 29721, Note_on_c, 0, 78, 77
1, 29736, Note_on_c, 0, 65, 60
1, 29745, Note_on_c, 0, 58, 56
1, 29755, Note_off_c, 0, 78, 63
1, 29766, Note_off_c, 0, 65, 65
1, 29777, Note_off_c, 0, 58, 65
1, 29840, Note_on_c, 0, 79, 39
1, 29841, Note_off_c, 0, 79, 127
1, 29909, Note_on_c, 0, 80, 75
1, 29911, Note_on_c, 0, 71, 71
1, 29915, Note_on_c, 0, 61, 54
1, 29915, Note_on_c, 0, 64, 56
1, 29931, Note_off_c, 0, 80, 71
1, 29935, Note_off_c, 0, 71, 69
1, 29949, Note_off_c, 0, 64, 64
1, 29954, Note_off_c, 0, 61, 61
1, 30100, Note_on_c, 0, 67, 53
1, 30106, Note_on_c, 0, 63, 50
1, 30108, Note_on_c, 0, 56, 48
1, 30110, Note_on_c, 0, 72, 61
1, 30136, Note_off_c, 0, 67, 64
1, 30144, Note_off_c, 0, 56, 63
1, 30148, Note_off_c, 0, 63, 60
1, 30151, Note_off_c, 0, 72, 65
1, 30210, Note_on_c, 0, 68, 65
1, 30258, Note_off_c, 0, 68, 59
1, 30297, Note_on_c, 0, 80, 81
1, 30301, Note_on_c, 0, 61, 56
1, 30301, Note_on_c, 0, 64, 57
1, 30304, Note_on_c, 0, 73, 66
1, 30332, Note_off_c, 0, 73, 67
1, 30339, Note_off_c, 0, 64, 63
1, 30341, Note_off_c, 0, 61, 60
1, 30348, Note_off_c, 0, 80, 62
1, 30386, Note_on_c, 0, 68, 69
1, 30436, Note_off_c, 0, 68, 62
1, 30492, Note_on_c, 0, 75, 75
1, 30499, Note_on_c, 0, 67, 63
1, 30501, Note_on_c, 0, 63, 48
1, 30505, Note_on_c, 0, 56, 47
1, 30520, Note_off_c, 0, 67, 63
1, 30527, Note_off_c, 0, 75, 60
1, 30543, Note_off_c, 0, 63, 59
1, 30544, Note_off_c, 0, 56, 63
1, 30592, Note_on_c, 0, 68, 70
1, 30658, Note_off_c, 0, 68, 60
1, 30679, Note_on_c, 0, 80, 69
1, 30684, Note_on_c, 0, 64, 56
1, 30684, Note_on_c, 0, 76, 66
1, 30686, Note_on_c, 0, 61, 52
1, 30716, Note_off_c, 0, 64, 64
1, 30719, Note_off_c, 0, 61, 64
1, 30721, Note_off_c, 0, 76, 63
1, 30736, Note_off_c, 0, 80, 61
1, 30775, Note_on_c, 0, 73, 72
1, 30814, Note_off_c, 0, 73, 65
1, 30859, Note_on_c, 0, 68, 69
1, 30884, Note_off_c, 0, 68, 67
1, 30958, Note_on_c, 0, 64, 64
1, 30986, Note_off_c, 0, 64, 67
1, 31041, Note_on_c, 0, 61, 45
1, 31063, Note_on_c, 0, 64, 60
1, 31085, Note_off_c, 0, 61, 63
1, 31098, Note_off_c, 0, 64, 63
1, 31113, Control_c, 0, 64, 18
1, 31128, Control_c, 0, 64, 33
1, 31138, Note_on_c, 0, 60, 50
1, 31143, Control_c, 0, 64, 42
1, 31152, Note_on_c, 0, 68, 61
1, 31158, Control_c, 0, 64, 49
1, 31179, Control_c, 0, 64, 56
1, 31193, Note_off_c, 0, 60, 59
1, 31194, Control_c, 0, 64, 62
1, 31209, Control_c, 0, 64, 66
1, 31221, Note_off_c, 0, 68, 59
1, 31224, Control_c, 0, 64, 69
1, 31239, Control_c, 0, 64, 75
1, 31251, Note_on_c, 0, 56, 54
1, 31253, Control_c, 0, 64, 84
1, 31268, Control_c, 0, 64, 97
1, 31271, Note_on_c, 0, 72, 65
1, 31283, Control_c, 0, 64, 118
1, 31298, Control_c, 0, 64, 127
1, 31328, Note_off_c, 0, 56, 57
1, 31340, Note_off_c, 0, 72, 61
1, 31367, Note_on_c, 0, 75, 69
1, 31369, Note_on_c, 0, 54, 51
1, 31372, Control_c, 0, 67, 126
1, 31387, Control_c, 0, 67, 125
1, 31402, Control_c, 0, 67, 122
1, 31416, Control_c, 0, 64, 108
1, 31416, Control_c, 0, 67, 120
1, 31431, Control_c, 0, 64, 90
1, 31431, Control_c, 0, 67, 120
1, 31433, Note_off_c, 0, 54, 57
1, 31446, Control_c, 0, 64, 74
1, 31446, Control_c, 0, 67, 119
1, 31461, Control_c, 0, 64, 63
1, 31461, Control_c, 0, 67, 119
1, 31476, Control_c, 0, 64, 50
1, 31476, Control_c, 0, 67, 117
1, 31483, Note_on_c, 0, 53, 44
1, 31490, Control_c, 0, 64, 40
1, 31505, Control_c, 0, 64, 44
1, 31505, Control_c, 0, 67, 115
1, 31520, Control_c, 0, 64, 48
1, 31520, Control_c, 0, 67, 110
1, 31534, Control_c, 0, 64, 52
1, 31534, Control_c, 0, 67, 107
1, 31540, Note_on_c, 0, 76, 67
1, 31540, Note_off_c, 0, 75, 58
1, 31544, Note_on_c, 0, 64, 50
1, 31549, Control_c, 0, 64, 55
1, 31549, Control_c, 0, 67, 103
1, 31564, Control_c, 0, 64, 58
1, 31564, Control_c, 0, 67, 97
1, 31579, Control_c, 0, 64, 60
1, 31579, Control_c, 0, 67, 91
1, 31594, Control_c, 0, 64, 61
1, 31594, Control_c, 0, 67, 84
1, 31610, Control_c, 0, 64, 63
1, 31610, Control_c, 0, 67, 77
1, 31625, Control_c, 0, 64, 65
1, 31625, Control_c, 0, 67, 73
1, 31639, Control_c, 0, 64, 67
1, 31639, Control_c, 0, 67, 69
1, 31641, Note_off_c, 0, 64, 54
1, 31654, Control_c, 0, 64, 72
1, 31654, Control_c, 0, 67, 66
1, 31658, Note_on_c, 0, 57, 34
1, 31669, Control_c, 0, 64, 79
1, 31669, Control_c, 0, 67, 64
1, 31678, Note_on_c, 0, 69, 52
1, 31684, Control_c, 0, 64, 89
1, 31684, Control_c, 0, 67, 62
1, 31699, Control_c, 0, 64, 100
1, 31699, Control_c, 0, 67, 60
1, 31713, Control_c, 0, 64, 112
1, 31713, Control_c, 0, 67, 59
1, 31728, Note_off_c, 0, 53, 0
1, 31728, Control_c, 0, 64, 127
1, 31728, Control_c, 0, 67, 58
1, 31732, Note_off_c, 0, 57, 58
1, 31742, Note_off_c, 0, 69, 51
1, 31743, Control_c, 0, 67, 56
1, 31758, Control_c, 0, 67, 55
1, 31766, Poly_aftertouch_c, 0, 53, 127
1, 31773, Control_c, 0, 67, 54
1, 31776, Note_on_c, 0, 60, 50
1, 31786, Note_on_c, 0, 64, 44
1, 31787, Control_c, 0, 67, 53
1, 31802, Control_c, 0, 67, 52
1, 31817, Control_c, 0, 67, 51
1, 31832, Control_c, 0, 67, 51
1, 31835, Note_off_c, 0, 64, 59
1, 31843, Note_off_c, 0, 60, 54
1, 31847, Control_c, 0, 67, 50
1, 31873, Note_on_c, 0, 69, 53
1, 31877, Note_on_c, 0, 57, 43
1, 31891, Control_c, 0, 67, 50
1, 31928, Control_c, 0, 64, 108
1, 31943, Control_c, 0, 64, 92
1, 31958, Control_c, 0, 64, 78
1, 31960, Note_off_c, 0, 57, 57
1, 31972, Control_c, 0, 64, 68
1, 31978, Note_off_c, 0, 69, 62
1, 31987, Control_c, 0, 64, 61
1, 31987, Control_c, 0, 67, 49
1, 31997, Note_on_c, 0, 75, 58
1, 31997, Note_off_c, 0, 76, 56
1, 32002, Control_c, 0, 64, 56
1, 32005, Note_on_c, 0, 48, 32
1, 32007, Note_on_c, 0, 63, 41
1, 32017, Control_c, 0, 64, 57
1, 32032, Control_c, 0, 64, 58
1, 32046, Control_c, 0, 64, 60
1, 32058, Poly_aftertouch_c, 0, 53, 0
1, 32061, Control_c, 0, 64, 61
1, 32076, Control_c, 0, 64, 62
1, 32077, Note_off_c, 0, 63, 54
1, 32089, Note_off_c, 0, 75, 63
1, 32091, Control_c, 0, 64, 64
1, 32103, Note_on_c, 0, 68, 48
1, 32106, Control_c, 0, 64, 65
1, 32118, Note_on_c, 0, 58, 43
1, 32121, Control_c, 0, 64, 66
1, 32136, Control_c, 0, 64, 68
1, 32151, Control_c, 0, 64, 70
1, 32159, Note_off_c, 0, 58, 64
1, 32165, Control_c, 0, 64, 73
1, 32180, Control_c, 0, 64, 77
1, 32194, Note_off_c, 0, 68, 62
1, 32195, Control_c, 0, 64, 86
1, 32195, Control_c, 0, 67, 50
1, 32208, Note_on_c, 0, 63, 65
1, 32210, Note_on_c, 0, 60, 65
1, 32210, Control_c, 0, 64, 98
1, 32225, Control_c, 0, 64, 127
1, 32282, Note_off_c, 0, 60, 61
1, 32294, Note_on_c, 0, 58, 62
1, 32300, Note_off_c, 0, 48, 38
1, 32300, Note_on_c, 0, 68, 73
1, 32306, Note_off_c, 0, 63, 63
1, 32343, Control_c, 0, 64, 102
1, 32347, Note_off_c, 0, 58, 54
1, 32357, Control_c, 0, 64, 84
1, 32372, Control_c, 0, 64, 69
1, 32379, Note_off_c, 0, 68, 61
1, 32387, Control_c, 0, 64, 59
1, 32399, Note_on_c, 0, 76, 83
1, 32402, Control_c, 0, 64, 43
1, 32403, Note_on_c, 0, 53, 55
1, 32414, Note_on_c, 0, 64, 64
1, 32418, Control_c, 0, 64, 40
1, 32418, Control_c, 0, 67, 49
1, 32433, Control_c, 0, 64, 44
1, 32448, Control_c, 0, 64, 49
1, 32455, Note_off_c, 0, 64, 58
1, 32462, Control_c, 0, 64, 54
1, 32477, Control_c, 0, 64, 58
1, 32492, Control_c, 0, 64, 61
1, 32507, Control_c, 0, 64, 63
1, 32514, Note_on_c, 0, 69, 62
1, 32522, Control_c, 0, 64, 64
1, 32535, Note_on_c, 0, 57, 43
1, 32536, Control_c, 0, 64, 66
1, 32536, Control_c, 0, 67, 48
1, 32551, Control_c, 0, 64, 70
1, 32566, Control_c, 0, 64, 76
1, 32568, Note_off_c, 0, 69, 59
1, 32580, Note_off_c, 0, 57, 64
1, 32581, Control_c, 0, 64, 86
1, 32595, Control_c, 0, 64, 100
1, 32605, Note_on_c, 0, 64, 54
1, 32610, Control_c, 0, 64, 127
1, 32622, Note_on_c, 0, 60, 52
1, 32668, Note_off_c, 0, 64, 52
1, 32692, Note_off_c, 0, 60, 51
1, 32717, Note_on_c, 0, 69, 57
1, 32737, Note_on_c, 0, 57, 44
1, 32751, Control_c, 0, 64, 99
1, 32766, Control_c, 0, 64, 82
1, 32781, Control_c, 0, 64, 71
1, 32795, Control_c, 0, 64, 63
1, 32798, Note_off_c, 0, 57, 59
1, 32810, Control_c, 0, 64, 57
1, 32820, Note_off_c, 0, 69, 61
1, 32825, Control_c, 0, 64, 54
1, 32830, Note_off_c, 0, 76, 58
1, 32840, Control_c, 0, 64, 56
1, 32845, Note_on_c, 0, 48, 38
1, 32845, Note_on_c, 0, 75, 60
1, 32849, Note_on_c, 0, 63, 46
1, 32855, Control_c, 0, 64, 57
1, 32869, Control_c, 0, 64, 59
1, 32884, Control_c, 0, 64, 61
1, 32899, Control_c, 0, 64, 63
1, 32902, Note_off_c, 0, 53, 45
1, 32912, Note_off_c, 0, 63, 55
1, 32914, Control_c, 0, 64, 65
1, 32929, Control_c, 0, 64, 68
1, 32944, Control_c, 0, 64, 71
1, 32947, Note_off_c, 0, 75, 62
1, 32954, Note_on_c, 0, 68, 52
1, 32959, Control_c, 0, 64, 76
1, 32964, Note_on_c, 0, 58, 49
1, 32973, Control_c, 0, 64, 82
1, 32988, Control_c, 0, 64, 91
1, 33003, Control_c, 0, 64, 111
1, 33011, Note_off_c, 0, 58, 61
1, 33018, Control_c, 0, 64, 127
1, 33030, Note_off_c, 0, 68, 61
1, 33045, Note_on_c, 0, 63, 64
1, 33058, Note_on_c, 0, 60, 64
1, 33082, Note_off_c, 0, 63, 58
1, 33122, Control_c, 0, 67, 49
1, 33130, Note_off_c, 0, 60, 61
1, 33130, Note_off_c, 0, 48, 29
1, 33134, Note_on_c, 0, 68, 67
1, 33136, Note_on_c, 0, 58, 65
1, 33136, Control_c, 0, 64, 88
1, 33151, Control_c, 0, 64, 69
1, 33166, Control_c, 0, 64, 56
1, 33166, Control_c, 0, 67, 48
1, 33178, Note_off_c, 0, 58, 64
1, 33181, Control_c, 0, 64, 35
1, 33183, Note_off_c, 0, 68, 59
1, 33195, Control_c, 0, 67, 48
1, 33200, Note_on_c, 0, 76, 67
1, 33211, Control_c, 0, 64, 43
1, 33216, Note_on_c, 0, 64, 71
1, 33226, Control_c, 0, 64, 51
1, 33233, Note_off_c, 0, 76, 66
1, 33236, Note_on_c, 0, 53, 65
1, 33241, Control_c, 0, 64, 58
1, 33254, Note_off_c, 0, 64, 60
1, 33256, Control_c, 0, 64, 62
1, 33271, Control_c, 0, 64, 65
1, 33285, Control_c, 0, 64, 68
1, 33293, Note_on_c, 0, 65, 71
1, 33300, Control_c, 0, 64, 74
1, 33315, Control_c, 0, 64, 86
1, 33315, Control_c, 0, 67, 47
1, 33330, Control_c, 0, 64, 127
1, 33331, Note_off_c, 0, 65, 61
1, 33336, Note_on_c, 0, 67, 74
1, 33349, Note_on_c, 0, 57, 57
1, 33361, Note_off_c, 0, 67, 65
1, 33394, Note_off_c, 0, 57, 62
1, 33397, Note_on_c, 0, 69, 80
1, 33429, Note_on_c, 0, 60, 70
1, 33455, Note_off_c, 0, 69, 65
1, 33456, Control_c, 0, 67, 46
1, 33464, Note_on_c, 0, 71, 74
1, 33485, Control_c, 0, 67, 46
1, 33492, Note_on_c, 0, 72, 76
1, 33499, Note_off_c, 0, 60, 63
1, 33499, Note_off_c, 0, 71, 57
1, 33509, Note_on_c, 0, 57, 66
1, 33515, Control_c, 0, 64, 82
1, 33515, Control_c, 0, 67, 45
1, 33530, Control_c, 0, 64, 59
1, 33530, Control_c, 0, 67, 44
1, 33540, Note_on_c, 0, 74, 61
1, 33545, Control_c, 0, 64, 0
1, 33545, Control_c, 0, 67, 43
1, 33574, Note_on_c, 0, 63, 69
1, 33593, Note_off_c, 0, 57, 62
1, 33603, Note_on_c, 0, 75, 81
1, 33603, Note_off_c, 0, 63, 67
1, 33603, Note_off_c, 0, 72, 61
1, 33604, Control_c, 0, 67, 44
1, 33607, Note_off_c, 0, 53, 33
1, 33608, Note_on_c, 0, 48, 67
1, 33618, Control_c, 0, 67, 45
1, 33622, Note_off_c, 0, 74, 64
1, 33633, Control_c, 0, 64, 23
1, 33647, Note_off_c, 0, 75, 66
1, 33648, Control_c, 0, 64, 56
1, 33663, Control_c, 0, 64, 69
1, 33663, Control_c, 0, 67, 43
1, 33678, Control_c, 0, 64, 87
1, 33678, Control_c, 0, 67, 43
1, 33682, Note_on_c, 0, 76, 83
1, 33692, Control_c, 0, 64, 127
1, 33692, Control_c, 0, 67, 42
1, 33725, Note_on_c, 0, 58, 65
1, 33733, Note_on_c, 0, 77, 78
1, 33738, Note_off_c, 0, 76, 64
1, 33769, Note_off_c, 0, 77, 64
1, 33769, Note_on_c, 0, 79, 71
1, 33781, Note_off_c, 0, 58, 59
1, 33796, Note_off_c, 0, 79, 68
1, 33821, Note_on_c, 0, 60, 64
1, 33835, Note_on_c, 0, 81, 71
1, 33835, Note_off_c, 0, 48, 30
1, 33871, Control_c, 0, 67, 43
1, 33877, Note_on_c, 0, 82, 81
1, 33879, Note_off_c, 0, 81, 63
1, 33885, Control_c, 0, 67, 44
1, 33899, Note_on_c, 0, 58, 68
1, 33903, Note_off_c, 0, 60, 51
1, 33910, Note_on_c, 0, 84, 80
1, 33933, Note_off_c, 0, 82, 66
1, 33945, Control_c, 0, 64, 96
1, 33951, Note_on_c, 0, 86, 75
1, 33959, Control_c, 0, 64, 71
1, 33974, Control_c, 0, 64, 51
1, 33978, Note_off_c, 0, 84, 57
1, 33981, Note_off_c, 0, 58, 62
1, 33989, Control_c, 0, 64, 0
1, 33995, Note_on_c, 0, 76, 79
1, 33999, Note_on_c, 0, 88, 81
1, 34003, Note_on_c, 0, 53, 55
1, 34026, Note_off_c, 0, 86, 57
1, 34049, Control_c, 0, 64, 33
1, 34064, Control_c, 0, 64, 44
1, 34076, Note_off_c, 0, 76, 47
1, 34079, Control_c, 0, 64, 50
1, 34094, Control_c, 0, 64, 55
1, 34108, Control_c, 0, 64, 59
1, 34121, Note_on_c, 0, 81, 59
1, 34123, Control_c, 0, 64, 63
1, 34135, Note_on_c, 0, 57, 47
1, 34138, Control_c, 0, 64, 69
1, 34160, Control_c, 0, 64, 77
1, 34175, Control_c, 0, 64, 91
1, 34189, Note_off_c, 0, 81, 61
1, 34190, Control_c, 0, 64, 127
1, 34213, Note_off_c, 0, 57, 60
1, 34226, Note_on_c, 0, 76, 56
1, 34249, Note_on_c, 0, 60, 53
1, 34285, Note_off_c, 0, 76, 52
1, 34315, Note_off_c, 0, 60, 55
1, 34336, Note_on_c, 0, 81, 48
1, 34351, Note_on_c, 0, 57, 49
1, 34353, Control_c, 0, 67, 45
1, 34382, Control_c, 0, 64, 97
1, 34382, Control_c, 0, 67, 45
1, 34397, Control_c, 0, 64, 80
1, 34407, Note_off_c, 0, 57, 60
1, 34412, Control_c, 0, 64, 69
1, 34427, Control_c, 0, 64, 59
1, 34433, Note_off_c, 0, 81, 65
1, 34441, Control_c, 0, 64, 51
1, 34452, Note_on_c, 0, 87, 63
1, 34455, Note_on_c, 0, 48, 41
1, 34456, Control_c, 0, 64, 50
1, 34461, Note_on_c, 0, 75, 49
1, 34466, Note_off_c, 0, 88, 57
1, 34471, Control_c, 0, 64, 52
1, 34486, Control_c, 0, 64, 53
1, 34486, Control_c, 0, 67, 46
1, 34499, Note_off_c, 0, 53, 47
1, 34501, Control_c, 0, 64, 54
1, 34515, Control_c, 0, 64, 57
1, 34515, Control_c, 0, 67, 47
1, 34530, Control_c, 0, 64, 59
1, 34530, Control_c, 0, 67, 48
1, 34544, Note_off_c, 0, 75, 60
1, 34545, Control_c, 0, 64, 61
1, 34551, Note_on_c, 0, 80, 58
1, 34558, Note_on_c, 0, 58, 43
1, 34559, Control_c, 0, 64, 62
1, 34569, Note_off_c, 0, 87, 62
1, 34574, Control_c, 0, 64, 64
1, 34574, Control_c, 0, 67, 49
1, 34589, Control_c, 0, 64, 66
1, 34589, Control_c, 0, 67, 50
1, 34595, Note_off_c, 0, 48, 36
1, 34600, Note_off_c, 0, 58, 64
1, 34604, Control_c, 0, 64, 69
1, 34604, Control_c, 0, 67, 50
1, 34619, Control_c, 0, 64, 76
1, 34619, Control_c, 0, 67, 51
1, 34634, Control_c, 0, 64, 91
1, 34640, Note_off_c, 0, 80, 65
1, 34646, Note_on_c, 0, 60, 55
1, 34649, Control_c, 0, 64, 127
1, 34659, Note_on_c, 0, 75, 68
1, 34706, Note_off_c, 0, 60, 51
1, 34721, Note_on_c, 0, 58, 53
1, 34738, Control_c, 0, 67, 51
1, 34744, Note_on_c, 0, 80, 75
1, 34744, Note_off_c, 0, 75, 60
1, 34750, Note_off_c, 0, 58, 62
1, 34753, Control_c, 0, 67, 50
1, 34767, Control_c, 0, 67, 50
1, 34782, Control_c, 0, 64, 89
1, 34782, Control_c, 0, 67, 49
1, 34797, Control_c, 0, 64, 66
1, 34813, Control_c, 0, 64, 47
1, 34813, Control_c, 0, 67, 48
1, 34816, Note_off_c, 0, 80, 62
1, 34828, Control_c, 0, 64, 28
1, 34833, Note_on_c, 0, 88, 79
1, 34839, Note_on_c, 0, 76, 75
1, 34842, Control_c, 0, 64, 39
1, 34848, Note_on_c, 0, 65, 60
1, 34857, Control_c, 0, 64, 48
1, 34872, Control_c, 0, 64, 54
1, 34874, Note_off_c, 0, 76, 62
1, 34884, Note_off_c, 0, 88, 59
1, 34887, Control_c, 0, 64, 61
1, 34902, Control_c, 0, 64, 65
1, 34902, Control_c, 0, 67, 49
1, 34924, Control_c, 0, 64, 71
1, 34935, Note_on_c, 0, 77, 75
1, 34938, Control_c, 0, 64, 86
1, 34953, Control_c, 0, 64, 127
1, 34961, Note_on_c, 0, 69, 58
1, 34965, Note_off_c, 0, 77, 63
1, 34989, Note_on_c, 0, 79, 69
1, 35012, Note_off_c, 0, 69, 61
1, 35015, Note_off_c, 0, 79, 66
1, 35056, Note_on_c, 0, 72, 56
1, 35059, Note_on_c, 0, 81, 62
1, 35093, Note_off_c, 0, 81, 67
1, 35101, Note_on_c, 0, 83, 74
1, 35114, Note_off_c, 0, 72, 57
1, 35139, Note_on_c, 0, 69, 60
1, 35139, Note_on_c, 0, 84, 76
1, 35157, Note_off_c, 0, 83, 58
1, 35176, Control_c, 0, 64, 92
1, 35185, Note_on_c, 0, 86, 62
1, 35190, Control_c, 0, 64, 72
1, 35193, Note_off_c, 0, 84, 62
1, 35205, Control_c, 0, 64, 58
1, 35220, Control_c, 0, 64, 24
1, 35222, Note_off_c, 0, 69, 61
1, 35235, Control_c, 0, 64, 11
1, 35247, Note_on_c, 0, 60, 53
1, 35250, Control_c, 0, 64, 29
1, 35254, Note_on_c, 0, 87, 74
1, 35260, Note_on_c, 0, 75, 61
1, 35264, Control_c, 0, 64, 41
1, 35267, Note_off_c, 0, 86, 63
1, 35279, Control_c, 0, 64, 50
1, 35294, Control_c, 0, 64, 55
1, 35296, Note_off_c, 0, 65, 32
1, 35309, Control_c, 0, 64, 59
1, 35324, Control_c, 0, 64, 62
1, 35338, Control_c, 0, 64, 64
1, 35341, Note_off_c, 0, 75, 60
1, 35352, Note_on_c, 0, 80, 60
1, 35353, Control_c, 0, 64, 68
1, 35368, Control_c, 0, 64, 77
1, 35371, Note_on_c, 0, 70, 53
1, 35382, Control_c, 0, 64, 95
1, 35385, Note_off_c, 0, 60, 37
1, 35392, Note_off_c, 0, 87, 57
1, 35397, Control_c, 0, 64, 127
1, 35412, Control_c, 0, 67, 50
1, 35436, Note_off_c, 0, 70, 61
1, 35442, Control_c, 0, 67, 50
1, 35451, Note_off_c, 0, 80, 64
1, 35468, Note_on_c, 0, 75, 70
1, 35480, Note_on_c, 0, 72, 57
1, 35531, Note_off_c, 0, 75, 63
1, 35552, Note_on_c, 0, 80, 75
1, 35552, Note_off_c, 0, 72, 57
1, 35559, Note_on_c, 0, 70, 61
1, 35590, Control_c, 0, 64, 101
1, 35606, Control_c, 0, 64, 76
1, 35619, Note_off_c, 0, 70, 58
1, 35620, Control_c, 0, 64, 61
1, 35635, Control_c, 0, 64, 49
1, 35637, Note_on_c, 0, 88, 72
1, 35640, Note_off_c, 0, 80, 62
1, 35648, Note_on_c, 0, 65, 53
1, 35648, Note_on_c, 0, 76, 78
1, 35650, Control_c, 0, 64, 51
1, 35673, Control_c, 0, 64, 56
1, 35687, Note_off_c, 0, 88, 64
1, 35687, Control_c, 0, 64, 61
1, 35688, Note_off_c, 0, 76, 65
1, 35702, Control_c, 0, 64, 65
1, 35717, Control_c, 0, 64, 70
1, 35732, Control_c, 0, 64, 76
1, 35734, Note_on_c, 0, 77, 76
1, 35747, Control_c, 0, 64, 85
1, 35761, Control_c, 0, 64, 97
1, 35776, Control_c, 0, 64, 127
1, 35777, Note_on_c, 0, 69, 48
1, 35778, Note_off_c, 0, 77, 60
1, 35780, Note_on_c, 0, 79, 70
1, 35806, Note_off_c, 0, 79, 68
1, 35829, Note_off_c, 0, 69, 62
1, 35852, Note_on_c, 0, 81, 73
1, 35858, Note_on_c, 0, 72, 60
1, 35898, Note_off_c, 0, 81, 65
1, 35906, Note_on_c, 0, 83, 74
1, 35925, Control_c, 0, 67, 50
1, 35933, Note_off_c, 0, 72, 58
1, 35940, Note_on_c, 0, 84, 76
1, 35960, Note_on_c, 0, 69, 53
1, 35963, Note_off_c, 0, 83, 64
1, 35980, Note_on_c, 0, 86, 62
1, 35999, Control_c, 0, 64, 110
1, 36013, Control_c, 0, 64, 86
1, 36028, Control_c, 0, 64, 72
1, 36029, Note_off_c, 0, 84, 57
1, 36032, Note_off_c, 0, 69, 57
1, 36043, Control_c, 0, 64, 63
1, 36054, Note_on_c, 0, 75, 64
1, 36058, Note_on_c, 0, 60, 48
1, 36058, Control_c, 0, 64, 53
1, 36065, Note_on_c, 0, 87, 73
1, 36073, Control_c, 0, 64, 50
1, 36087, Control_c, 0, 64, 53
1, 36102, Control_c, 0, 64, 55
1, 36117, Control_c, 0, 64, 58
1, 36125, Note_off_c, 0, 86, 41
1, 36132, Control_c, 0, 64, 61
1, 36147, Control_c, 0, 64, 64
1, 36148, Note_off_c, 0, 75, 60
1, 36158, Note_off_c, 0, 60, 50
1, 36161, Control_c, 0, 64, 66
1, 36169, Note_on_c, 0, 80, 62
1, 36176, Control_c, 0, 64, 69
1, 36177, Note_off_c, 0, 65, 39
1, 36191, Control_c, 0, 64, 74
1, 36194, Note_on_c, 0, 70, 51
1, 36205, Control_c, 0, 64, 81
1, 36220, Note_off_c, 0, 87, 55
1, 36220, Control_c, 0, 64, 89
1, 36235, Control_c, 0, 64, 106
1, 36235, Control_c, 0, 67, 50
1, 36250, Control_c, 0, 64, 127
1, 36268, Note_off_c, 0, 70, 61
1, 36272, Note_off_c, 0, 80, 63
1, 36279, Note_on_c, 0, 75, 61
1, 36300, Note_on_c, 0, 72, 53
1, 36354, Control_c, 0, 67, 51
1, 36389, Note_on_c, 0, 80, 60
1, 36397, Note_on_c, 0, 70, 47
1, 36398, Note_off_c, 0, 75, 60
1, 36422, Control_c, 0, 67, 51
1, 36455, Note_off_c, 0, 70, 59
1, 36466, Control_c, 0, 64, 98
1, 36481, Control_c, 0, 64, 78
1, 36489, Note_off_c, 0, 80, 61
1, 36496, Control_c, 0, 64, 67
1, 36497, Note_on_c, 0, 65, 41
1, 36497, Note_on_c, 0, 76, 54
1, 36503, Note_on_c, 0, 88, 57
1, 36510, Control_c, 0, 64, 60
1, 36525, Control_c, 0, 64, 59
1, 36540, Control_c, 0, 64, 61
1, 36555, Control_c, 0, 64, 63
1, 36570, Control_c, 0, 64, 65
1, 36584, Control_c, 0, 64, 67
1, 36599, Control_c, 0, 64, 71
1, 36601, Note_on_c, 0, 81, 68
1, 36605, Note_on_c, 0, 69, 53
1, 36613, Note_off_c, 0, 76, 60
1, 36614, Control_c, 0, 64, 75
1, 36629, Control_c, 0, 64, 81
1, 36631, Note_off_c, 0, 72, 42
1, 36635, Note_off_c, 0, 65, 29
1, 36643, Control_c, 0, 64, 88
1, 36658, Control_c, 0, 64, 98
1, 36658, Control_c, 0, 67, 51
1, 36673, Control_c, 0, 64, 105
1, 36688, Control_c, 0, 64, 113
1, 36703, Control_c, 0, 64, 127
1, 36706, Note_off_c, 0, 69, 62
1, 36716, Note_off_c, 0, 81, 59
1, 36718, Note_on_c, 0, 72, 71
1, 36734, Note_on_c, 0, 76, 58
1, 36813, Note_off_c, 0, 76, 57
1, 36834, Note_on_c, 0, 81, 58
1, 36845, Note_on_c, 0, 69, 48
1, 36845, Note_off_c, 0, 88, 62
1, 36896, Control_c, 0, 67, 50
1, 36909, Note_off_c, 0, 69, 59
1, 36923, Note_off_c, 0, 81, 63
1, 36951, Note_on_c, 0, 76, 57
1, 36959, Note_on_c, 0, 88, 65
1, 36983, Note_on_c, 0, 65, 38
1, 37013, Note_off_c, 0, 72, 59
1, 37049, Note_on_c, 0, 82, 80
1, 37060, Note_on_c, 0, 69, 53
1, 37074, Control_c, 0, 64, 98
1, 37086, Note_off_c, 0, 76, 51
1, 37089, Control_c, 0, 64, 80
1, 37103, Control_c, 0, 64, 69
1, 37118, Control_c, 0, 64, 62
1, 37133, Control_c, 0, 64, 61
1, 37143, Note_off_c, 0, 69, 60
1, 37156, Control_c, 0, 64, 62
1, 37159, Note_on_c, 0, 73, 78
1, 37171, Control_c, 0, 64, 64
1, 37185, Control_c, 0, 64, 65
1, 37197, Note_off_c, 0, 82, 60
1, 37200, Control_c, 0, 64, 67
1, 37209, Note_on_c, 0, 76, 45
1, 37215, Control_c, 0, 64, 70
1, 37230, Control_c, 0, 64, 73
1, 37245, Control_c, 0, 64, 77
1, 37253, Note_off_c, 0, 65, 39
1, 37260, Control_c, 0, 64, 82
1, 37275, Control_c, 0, 64, 87
1, 37290, Control_c, 0, 64, 92
1, 37298, Note_on_c, 0, 69, 45
1, 37305, Control_c, 0, 64, 99
1, 37306, Note_off_c, 0, 88, 58
1, 37313, Note_off_c, 0, 76, 51
1, 37318, Note_on_c, 0, 82, 56
1, 37320, Control_c, 0, 64, 106
1, 37320, Control_c, 0, 67, 51
1, 37334, Control_c, 0, 64, 127
1, 37359, Note_off_c, 0, 69, 55
1, 37401, Note_off_c, 0, 82, 61
1, 37407, Note_on_c, 0, 65, 39
1, 37423, Note_on_c, 0, 88, 63
1, 37434, Note_on_c, 0, 76, 52
1, 37438, Control_c, 0, 67, 51
1, 37467, Control_c, 0, 67, 52
1, 37546, Note_on_c, 0, 83, 75
1, 37552, Note_on_c, 0, 69, 47
1, 37572, Note_off_c, 0, 76, 36
1, 37585, Note_off_c, 0, 73, 60
1, 37586, Control_c, 0, 64, 98
1, 37586, Control_c, 0, 67, 53
1, 37600, Control_c, 0, 64, 79
1, 37614, Control_c, 0, 64, 68
1, 37629, Control_c, 0, 64, 62
1, 37644, Control_c, 0, 64, 61
1, 37656, Note_off_c, 0, 69, 58
1, 37658, Control_c, 0, 64, 62
1, 37665, Note_on_c, 0, 74, 71
1, 37673, Control_c, 0, 64, 63
1, 37673, Control_c, 0, 67, 52
1, 37688, Control_c, 0, 64, 64
1, 37698, Note_on_c, 0, 76, 55
1, 37703, Control_c, 0, 64, 65
1, 37716, Note_off_c, 0, 83, 56
1, 37718, Control_c, 0, 64, 67
1, 37732, Control_c, 0, 64, 70
1, 37747, Control_c, 0, 64, 73
1, 37762, Control_c, 0, 64, 79
1, 37776, Control_c, 0, 64, 83
1, 37790, Note_off_c, 0, 65, 37
1, 37791, Control_c, 0, 64, 88
1, 37806, Control_c, 0, 64, 92
1, 37821, Control_c, 0, 64, 98
1, 37836, Control_c, 0, 64, 107
1, 37841, Note_off_c, 0, 76, 54
1, 37845, Note_on_c, 0, 69, 44
1, 37848, Note_on_c, 0, 83, 55
1, 37850, Control_c, 0, 64, 127
1, 37865, Note_off_c, 0, 88, 57
1, 37952, Note_off_c, 0, 69, 52
1, 37977, Control_c, 0, 67, 53
1, 38016, Note_off_c, 0, 83, 58
1, 38021, Note_on_c, 0, 65, 37
1, 38029, Note_on_c, 0, 88, 49
1, 38038, Note_on_c, 0, 76, 34
1, 38067, Control_c, 0, 67, 53
1, 38111, Control_c, 0, 67, 54
1, 38155, Control_c, 0, 67, 55
1, 38200, Control_c, 0, 67, 55
1, 38211, Note_off_c, 0, 74, 56
1, 38213, Note_on_c, 0, 69, 47
1, 38229, Control_c, 0, 67, 56
1, 38244, Control_c, 0, 67, 56
1, 38253, Note_on_c, 0, 84, 53
1, 38259, Control_c, 0, 64, 117
1, 38274, Control_c, 0, 64, 108
1, 38274, Control_c, 0, 67, 57
1, 38288, Control_c, 0, 64, 97
1, 38288, Control_c, 0, 67, 58
1, 38303, Control_c, 0, 64, 85
1, 38318, Control_c, 0, 64, 74
1, 38324, Note_off_c, 0, 76, 34
1, 38333, Control_c, 0, 64, 65
1, 38333, Control_c, 0, 67, 58
1, 38348, Control_c, 0, 64, 62
1, 38363, Control_c, 0, 64, 62
1, 38363, Control_c, 0, 67, 59
1, 38393, Control_c, 0, 64, 62
1, 38393, Control_c, 0, 67, 60
1, 38407, Control_c, 0, 67, 60
1, 38422, Control_c, 0, 64, 63
1, 38422, Control_c, 0, 67, 61
1, 38437, Control_c, 0, 64, 63
1, 38437, Control_c, 0, 67, 61
1, 38452, Control_c, 0, 64, 64
1, 38452, Control_c, 0, 67, 63
1, 38456, Note_on_c, 0, 75, 63
1, 38456, Note_off_c, 0, 69, 60
1, 38467, Control_c, 0, 64, 65
1, 38467, Control_c, 0, 67, 63
1, 38481, Control_c, 0, 64, 67
1, 38481, Control_c, 0, 67, 64
1, 38496, Control_c, 0, 64, 68
1, 38496, Control_c, 0, 67, 65
1, 38511, Control_c, 0, 64, 70
1, 38518, Note_off_c, 0, 84, 56
1, 38526, Control_c, 0, 64, 73
1, 38541, Control_c, 0, 64, 76
1, 38541, Control_c, 0, 67, 65
1, 38542, Note_on_c, 0, 76, 37
1, 38555, Control_c, 0, 64, 81
1, 38555, Control_c, 0, 67, 66
1, 38570, Control_c, 0, 64, 87
1, 38570, Control_c, 0, 67, 67
1, 38585, Control_c, 0, 64, 93
1, 38585, Control_c, 0, 67, 68
1, 38599, Control_c, 0, 64, 101
1, 38599, Control_c, 0, 67, 69
1, 38614, Control_c, 0, 64, 116
1, 38629, Control_c, 0, 64, 127
1, 38629, Control_c, 0, 67, 70
1, 38644, Control_c, 0, 67, 73
1, 38667, Control_c, 0, 67, 82
1, 38681, Control_c, 0, 67, 88
1, 38682, Note_off_c, 0, 75, 58
1, 38696, Control_c, 0, 67, 93
1, 38711, Control_c, 0, 67, 98
1, 38726, Control_c, 0, 67, 102
1, 38741, Control_c, 0, 67, 107
1, 38755, Control_c, 0, 67, 113
1, 38770, Control_c, 0, 67, 118
1, 38785, Control_c, 0, 67, 121
1, 38801, Control_c, 0, 67, 122
1, 38816, Control_c, 0, 67, 123
1, 38830, Control_c, 0, 67, 124
1, 38845, Control_c, 0, 67, 124
1, 38855, Note_off_c, 0, 65, 37
1, 38879, Note_on_c, 0, 84, 46
1, 38884, Note_on_c, 0, 69, 35
1, 38947, Note_off_c, 0, 69, 60
1, 38964, Control_c, 0, 67, 124
1, 38978, Control_c, 0, 67, 123
1, 39022, Control_c, 0, 67, 122
1, 39037, Control_c, 0, 67, 122
1, 39042, Note_off_c, 0, 88, 30
1, 39076, Note_off_c, 0, 76, 36
1, 39097, Control_c, 0, 67, 121
1, 39111, Control_c, 0, 67, 120
1, 39186, Control_c, 0, 67, 119
1, 39245, Control_c, 0, 67, 118
1, 39260, Control_c, 0, 67, 117
1, 39275, Control_c, 0, 67, 117
1, 39334, Control_c, 0, 67, 116
1, 39349, Control_c, 0, 67, 115
1, 39378, Control_c, 0, 64, 111
1, 39393, Control_c, 0, 64, 98
1, 39405, Note_on_c, 0, 52, 39
1, 39415, Control_c, 0, 64, 85
1, 39415, Control_c, 0, 67, 115
1, 39422, Note_on_c, 0, 59, 33
1, 39430, Control_c, 0, 64, 74
1, 39440, Note_on_c, 0, 88, 69
1, 39445, Control_c, 0, 64, 65
1, 39445, Control_c, 0, 67, 114
1, 39445, Note_on_c, 0, 76, 64
1, 39460, Control_c, 0, 64, 58
1, 39466, Note_off_c, 0, 84, 56
1, 39475, Control_c, 0, 64, 55
1, 39490, Control_c, 0, 64, 56
1, 39490, Control_c, 0, 67, 114
1, 39504, Control_c, 0, 64, 58
1, 39504, Control_c, 0, 67, 113
1, 39519, Control_c, 0, 64, 61
1, 39519, Control_c, 0, 67, 112
1, 39534, Control_c, 0, 64, 63
1, 39549, Control_c, 0, 64, 65
1, 39563, Control_c, 0, 64, 67
1, 39578, Control_c, 0, 64, 70
1, 39578, Control_c, 0, 67, 112
1, 39593, Control_c, 0, 64, 74
1, 39593, Control_c, 0, 67, 111
1, 39609, Control_c, 0, 64, 78
1, 39624, Control_c, 0, 64, 83
1, 39639, Control_c, 0, 64, 93
1, 39653, Control_c, 0, 64, 117
1, 39668, Control_c, 0, 64, 127
1, 39668, Control_c, 0, 67, 110
1, 39701, Note_off_c, 0, 52, 37
1, 39749, Note_off_c, 0, 59, 42
1, 39803, Note_on_c, 0, 64, 42
1, 39919, Note_off_c, 0, 64, 60
1, 40004, Note_on_c, 0, 67, 47
1, 40135, Note_off_c, 0, 76, 54
1, 40154, Note_off_c, 0, 67, 33
1, 40179, Note_on_c, 0, 71, 54
1, 40242, Note_off_c, 0, 88, 59
1, 40261, Note_on_c, 0, 81, 14
1, 40267, Control_c, 0, 67, 111
1, 40315, Note_off_c, 0, 71, 56
1, 40322, Note_off_c, 0, 81, 40
1, 40340, Note_on_c, 0, 87, 73
1, 40342, Note_on_c, 0, 75, 69
1, 40351, Note_on_c, 0, 67, 54
1, 40356, Control_c, 0, 67, 112
1, 40415, Note_off_c, 0, 75, 59
1, 40421, Note_off_c, 0, 87, 63
1, 40429, Note_off_c, 0, 67, 58
1, 40505, Control_c, 0, 67, 112
1, 40510, Note_on_c, 0, 64, 62
1, 40627, Note_off_c, 0, 64, 56
1, 40654, Control_c, 0, 64, 107
1, 40669, Control_c, 0, 64, 85
1, 40673, Note_on_c, 0, 57, 52
1, 40682, Note_on_c, 0, 84, 78
1, 40683, Control_c, 0, 64, 72
1, 40686, Note_on_c, 0, 53, 47
1, 40694, Note_on_c, 0, 72, 70
1, 40698, Control_c, 0, 64, 63
1, 40713, Control_c, 0, 64, 52
1, 40728, Control_c, 0, 64, 48
1, 40742, Control_c, 0, 64, 50
1, 40757, Control_c, 0, 64, 55
1, 40772, Control_c, 0, 64, 59
1, 40787, Control_c, 0, 64, 62
1, 40801, Control_c, 0, 64, 65
1, 40816, Control_c, 0, 64, 68
1, 40816, Control_c, 0, 67, 112
1, 40831, Control_c, 0, 64, 73
1, 40831, Control_c, 0, 67, 111
1, 40846, Control_c, 0, 64, 80
1, 40861, Control_c, 0, 64, 86
1, 40863, Note_off_c, 0, 57, 57
1, 40868, Note_on_c, 0, 60, 55
1, 40876, Control_c, 0, 64, 94
1, 40883, Note_off_c, 0, 53, 52
1, 40898, Control_c, 0, 64, 104
1, 40913, Control_c, 0, 64, 127
1, 40913, Control_c, 0, 67, 110
1, 40989, Note_off_c, 0, 60, 60
1, 41043, Note_on_c, 0, 65, 46
1, 41153, Note_off_c, 0, 72, 59
1, 41180, Note_off_c, 0, 65, 35
1, 41219, Note_on_c, 0, 69, 49
1, 41310, Note_off_c, 0, 69, 39
1, 41335, Note_off_c, 0, 84, 63
1, 41349, Note_on_c, 0, 86, 67
1, 41367, Note_on_c, 0, 74, 58
1, 41383, Note_on_c, 0, 65, 54
1, 41452, Note_off_c, 0, 86, 62
1, 41462, Control_c, 0, 67, 111
1, 41482, Note_off_c, 0, 74, 62
1, 41484, Note_off_c, 0, 65, 57
1, 41545, Note_on_c, 0, 60, 61
1, 41578, Note_off_c, 0, 60, 64
1, 41692, Control_c, 0, 64, 105
1, 41706, Control_c, 0, 64, 83
1, 41721, Control_c, 0, 64, 69
1, 41728, Note_on_c, 0, 52, 51
1, 41731, Note_on_c, 0, 83, 82
1, 41731, Note_on_c, 0, 48, 38
1, 41736, Control_c, 0, 64, 61
1, 41740, Note_on_c, 0, 71, 69
1, 41751, Control_c, 0, 64, 51
1, 41766, Control_c, 0, 64, 48
1, 41780, Control_c, 0, 64, 50
1, 41795, Control_c, 0, 64, 53
1, 41810, Control_c, 0, 64, 58
1, 41824, Control_c, 0, 64, 62
1, 41839, Control_c, 0, 64, 65
1, 41839, Control_c, 0, 67, 110
1, 41854, Control_c, 0, 64, 69
1, 41854, Control_c, 0, 67, 107
1, 41869, Control_c, 0, 64, 76
1, 41869, Control_c, 0, 67, 103
1, 41884, Control_c, 0, 64, 84
1, 41884, Control_c, 0, 67, 100
1, 41898, Control_c, 0, 64, 95
1, 41898, Control_c, 0, 67, 98
1, 41913, Control_c, 0, 64, 111
1, 41913, Control_c, 0, 67, 97
1, 41926, Note_on_c, 0, 55, 52
1, 41928, Control_c, 0, 64, 127
1, 41928, Control_c, 0, 67, 95
1, 41931, Note_off_c, 0, 71, 53
1, 41943, Control_c, 0, 67, 93
1, 41958, Control_c, 0, 67, 84
1, 41970, Note_off_c, 0, 52, 47
1, 41973, Control_c, 0, 67, 73
1, 41988, Control_c, 0, 67, 65
1, 42003, Control_c, 0, 67, 59
1, 42018, Control_c, 0, 67, 55
1, 42021, Note_off_c, 0, 48, 38
1, 42033, Control_c, 0, 67, 50
1, 42047, Control_c, 0, 67, 45
1, 42062, Control_c, 0, 67, 38
1, 42073, Note_off_c, 0, 55, 57
1, 42077, Control_c, 0, 67, 30
1, 42092, Control_c, 0, 67, 20
1, 42107, Control_c, 0, 67, 10
1, 42114, Note_on_c, 0, 60, 47
1, 42121, Note_on_c, 0, 84, 73
1, 42122, Control_c, 0, 67, 0
1, 42130, Note_on_c, 0, 72, 61
1, 42152, Note_off_c, 0, 83, 60
1, 42251, Note_off_c, 0, 72, 62
1, 42288, Note_off_c, 0, 84, 63
1, 42310, Note_off_c, 0, 60, 34
1, 42336, Note_on_c, 0, 83, 76
1, 42344, Note_on_c, 0, 64, 52
1, 42348, Note_on_c, 0, 71, 68
1, 42425, Note_off_c, 0, 83, 62
1, 42426, Note_off_c, 0, 71, 61
1, 42434, Note_off_c, 0, 64, 52
1, 42515, Note_on_c, 0, 81, 79
1, 42517, Note_on_c, 0, 60, 59
1, 42528, Note_on_c, 0, 69, 70
1, 42592, Note_off_c, 0, 81, 64
1, 42594, Note_off_c, 0, 69, 63
1, 42634, Note_off_c, 0, 60, 56
1, 42680, Note_on_c, 0, 79, 84
1, 42682, Note_on_c, 0, 55, 58
1, 42688, Note_on_c, 0, 67, 77
1, 42735, Note_off_c, 0, 79, 63
1, 42745, Note_off_c, 0, 67, 62
1, 42826, Control_c, 0, 64, 96
1, 42831, Note_off_c, 0, 55, 54
1, 42841, Control_c, 0, 64, 78
1, 42856, Control_c, 0, 64, 64
1, 42857, Note_on_c, 0, 50, 43
1, 42864, Note_on_c, 0, 57, 46
1, 42870, Control_c, 0, 64, 47
1, 42884, Note_on_c, 0, 77, 73
1, 42885, Control_c, 0, 64, 0
1, 42891, Note_on_c, 0, 65, 62
1, 43049, Control_c, 0, 64, 43
1, 43055, Note_off_c, 0, 57, 59
1, 43064, Control_c, 0, 64, 60
1, 43067, Note_off_c, 0, 50, 52
1, 43078, Control_c, 0, 64, 69
1, 43083, Note_on_c, 0, 62, 53
1, 43093, Control_c, 0, 64, 77
1, 43108, Control_c, 0, 64, 92
1, 43123, Control_c, 0, 64, 127
1, 43173, Note_off_c, 0, 65, 62
1, 43181, Note_off_c, 0, 62, 45
1, 43254, Note_on_c, 0, 65, 45
1, 43305, Note_off_c, 0, 65, 56
1, 43420, Note_on_c, 0, 62, 58
1, 43512, Note_off_c, 0, 62, 54
1, 43584, Note_on_c, 0, 79, 79
1, 43587, Note_off_c, 0, 77, 59
1, 43591, Note_on_c, 0, 57, 48
1, 43597, Note_on_c, 0, 67, 63
1, 43686, Note_off_c, 0, 57, 51
1, 43691, Note_off_c, 0, 67, 57
1, 43714, Note_off_c, 0, 79, 62
1, 43743, Note_on_c, 0, 50, 60
1, 43929, Note_on_c, 0, 45, 48
1, 43937, Control_c, 0, 64, 99
1, 43945, Note_off_c, 0, 50, 32
1, 43952, Control_c, 0, 64, 77
1, 43959, Note_on_c, 0, 52, 48
1, 43967, Control_c, 0, 64, 64
1, 43973, Note_on_c, 0, 81, 76
1, 43979, Note_on_c, 0, 69, 76
1, 43982, Control_c, 0, 64, 47
1, 43997, Control_c, 0, 64, 35
1, 44012, Control_c, 0, 64, 38
1, 44027, Control_c, 0, 64, 42
1, 44042, Control_c, 0, 64, 48
1, 44056, Control_c, 0, 64, 55
1, 44071, Control_c, 0, 64, 60
1, 44086, Control_c, 0, 64, 63
1, 44100, Control_c, 0, 64, 67
1, 44115, Control_c, 0, 64, 71
1, 44123, Note_off_c, 0, 52, 61
1, 44130, Control_c, 0, 64, 77
1, 44134, Note_off_c, 0, 45, 35
1, 44145, Control_c, 0, 64, 84
1, 44160, Control_c, 0, 64, 92
1, 44162, Note_on_c, 0, 57, 54
1, 44174, Control_c, 0, 64, 103
1, 44189, Control_c, 0, 64, 127
1, 44297, Note_off_c, 0, 57, 57
1, 44331, Note_on_c, 0, 60, 55
1, 44427, Note_off_c, 0, 60, 59
1, 44485, Note_on_c, 0, 64, 61
1, 44492, Note_off_c, 0, 69, 58
1, 44622, Note_off_c, 0, 64, 55
1, 44653, Note_off_c, 0, 81, 62
1, 44655, Note_on_c, 0, 80, 67
1, 44662, Note_on_c, 0, 60, 53
1, 44665, Note_on_c, 0, 68, 59
1, 44730, Note_off_c, 0, 60, 60
1, 44751, Note_off_c, 0, 80, 63
1, 44754, Note_off_c, 0, 68, 52
1, 44810, Note_on_c, 0, 57, 62
1, 44912, Note_off_c, 0, 57, 57
1, 44954, Control_c, 0, 64, 119
1, 44969, Control_c, 0, 64, 85
1, 44975, Note_on_c, 0, 50, 56
1, 44977, Note_on_c, 0, 46, 55
1, 44983, Control_c, 0, 64, 68
1, 44991, Note_on_c, 0, 77, 79
1, 44995, Note_on_c, 0, 65, 68
1, 44998, Control_c, 0, 64, 57
1, 45013, Control_c, 0, 64, 41
1, 45028, Control_c, 0, 64, 38
1, 45042, Control_c, 0, 64, 40
1, 45057, Control_c, 0, 64, 44
1, 45072, Control_c, 0, 64, 52
1, 45087, Control_c, 0, 64, 59
1, 45102, Control_c, 0, 64, 63
1, 45116, Control_c, 0, 64, 66
1, 45131, Control_c, 0, 64, 71
1, 45144, Note_on_c, 0, 53, 60
1, 45144, Note_off_c, 0, 50, 55
1, 45146, Control_c, 0, 64, 78
1, 45161, Control_c, 0, 64, 86
1, 45176, Control_c, 0, 64, 97
1, 45192, Control_c, 0, 64, 127
1, 45218, Note_off_c, 0, 46, 37
1, 45268, Note_off_c, 0, 53, 62
1, 45310, Note_on_c, 0, 58, 59
1, 45361, Note_off_c, 0, 65, 60
1, 45365, Note_off_c, 0, 58, 62
1, 45484, Note_on_c, 0, 62, 63
1, 45546, Note_off_c, 0, 62, 61
1, 45637, Note_on_c, 0, 58, 57
1, 45651, Note_off_c, 0, 77, 60
1, 45652, Note_on_c, 0, 79, 76
1, 45664, Note_on_c, 0, 67, 68
1, 45703, Note_off_c, 0, 58, 59
1, 45775, Note_off_c, 0, 79, 59
1, 45800, Note_off_c, 0, 67, 56
1, 45820, Note_on_c, 0, 53, 61
1, 45851, Control_c, 0, 67, 12
1, 45865, Control_c, 0, 67, 16
1, 45866, Note_off_c, 0, 53, 63
1, 45880, Control_c, 0, 67, 19
1, 45895, Control_c, 0, 67, 23
1, 45910, Control_c, 0, 67, 27
1, 45925, Control_c, 0, 67, 30
1, 45939, Control_c, 0, 67, 31
1, 45954, Control_c, 0, 67, 32
1, 45969, Control_c, 0, 67, 33
1, 45984, Control_c, 0, 67, 33
1, 46000, Control_c, 0, 67, 34
1, 46030, Control_c, 0, 64, 98
1, 46033, Note_on_c, 0, 45, 46
1, 46033, Note_on_c, 0, 41, 37
1, 46044, Control_c, 0, 64, 77
1, 46051, Note_on_c, 0, 76, 73
1, 46059, Control_c, 0, 64, 63
1, 46065, Note_on_c, 0, 64, 58
1, 46074, Control_c, 0, 64, 46
1, 46088, Control_c, 0, 64, 33
1, 46088, Control_c, 0, 67, 32
1, 46103, Control_c, 0, 64, 37
1, 46118, Control_c, 0, 64, 46
1, 46133, Control_c, 0, 64, 55
1, 46155, Control_c, 0, 64, 62
1, 46170, Control_c, 0, 64, 66
1, 46170, Control_c, 0, 67, 31
1, 46185, Control_c, 0, 64, 70
1, 46185, Control_c, 0, 67, 29
1, 46196, Note_off_c, 0, 64, 59
1, 46200, Control_c, 0, 64, 76
1, 46215, Control_c, 0, 64, 84
1, 46229, Control_c, 0, 64, 97
1, 46244, Control_c, 0, 64, 127
1, 46259, Control_c, 0, 67, 29
1, 46274, Control_c, 0, 67, 28
1, 46303, Control_c, 0, 67, 28
1, 46318, Note_on_c, 0, 48, 40
1, 46328, Note_off_c, 0, 76, 60
1, 46348, Control_c, 0, 67, 28
1, 46420, Note_off_c, 0, 41, 40
1, 46422, Control_c, 0, 67, 27
1, 46450, Note_off_c, 0, 45, 35
1, 46493, Note_on_c, 0, 86, 68
1, 46501, Note_on_c, 0, 74, 58
1, 46501, Note_on_c, 0, 53, 43
1, 46510, Note_off_c, 0, 48, 40
1, 46510, Control_c, 0, 67, 26
1, 46525, Control_c, 0, 67, 26
1, 46555, Control_c, 0, 67, 26
1, 46599, Control_c, 0, 67, 26
1, 46612, Note_off_c, 0, 74, 61
1, 46617, Note_off_c, 0, 86, 55
1, 46703, Control_c, 0, 67, 25
1, 46769, Note_on_c, 0, 57, 45
1, 46774, Note_on_c, 0, 84, 72
1, 46780, Note_off_c, 0, 53, 39
1, 46788, Note_on_c, 0, 72, 61
1, 46853, Control_c, 0, 67, 24
1, 46859, Note_off_c, 0, 72, 61
1, 46866, Note_off_c, 0, 84, 61
1, 46960, Note_off_c, 0, 57, 34
1, 47022, Control_c, 0, 67, 24
1, 47036, Note_on_c, 0, 83, 71
1, 47041, Note_on_c, 0, 53, 43
1, 47058, Note_on_c, 0, 71, 52
1, 47098, Note_off_c, 0, 71, 62
1, 47175, Note_off_c, 0, 83, 58
1, 47303, Note_off_c, 0, 53, 39
1, 47315, Note_on_c, 0, 82, 68
1, 47335, Note_on_c, 0, 48, 43
1, 47341, Note_on_c, 0, 70, 46
1, 47365, Note_off_c, 0, 70, 62
1, 47466, Note_off_c, 0, 82, 59
1, 47568, Note_off_c, 0, 48, 33
1, 47710, Note_on_c, 0, 41, 28
1, 47712, Control_c, 0, 64, 105
1, 47727, Control_c, 0, 64, 88
1, 47738, Note_on_c, 0, 47, 34
1, 47741, Control_c, 0, 64, 74
1, 47744, Note_on_c, 0, 88, 66
1, 47750, Note_on_c, 0, 76, 58
1, 47756, Control_c, 0, 64, 65
1, 47771, Control_c, 0, 64, 58
1, 47771, Control_c, 0, 67, 23
1, 47786, Control_c, 0, 64, 52
1, 47801, Control_c, 0, 64, 53
1, 47815, Control_c, 0, 64, 56
1, 47830, Control_c, 0, 64, 60
1, 47845, Control_c, 0, 64, 63
1, 47860, Control_c, 0, 64, 66
1, 47875, Control_c, 0, 64, 69
1, 47875, Control_c, 0, 67, 23
1, 47890, Control_c, 0, 64, 74
1, 47905, Control_c, 0, 64, 80
1, 47920, Control_c, 0, 64, 92
1, 47920, Control_c, 0, 67, 22
1, 47935, Control_c, 0, 64, 121
1, 47935, Control_c, 0, 67, 21
1, 47949, Control_c, 0, 64, 127
1, 48009, Control_c, 0, 67, 21
1, 48025, Note_off_c, 0, 47, 40
1, 48033, Note_on_c, 0, 50, 44
1, 48042, Note_off_c, 0, 41, 42
1, 48122, Note_off_c, 0, 50, 56
1, 48206, Note_on_c, 0, 55, 41
1, 48274, Note_off_c, 0, 55, 63
1, 48304, Control_c, 0, 67, 21
1, 48311, Note_off_c, 0, 76, 39
1, 48398, Note_on_c, 0, 62, 48
1, 48417, Control_c, 0, 67, 22
1, 48427, Note_off_c, 0, 88, 53
1, 48531, Note_off_c, 0, 62, 36
1, 48535, Control_c, 0, 67, 21
1, 48557, Note_on_c, 0, 87, 52
1, 48563, Note_on_c, 0, 75, 46
1, 48572, Note_on_c, 0, 60, 44
1, 48624, Control_c, 0, 67, 21
1, 48647, Note_off_c, 0, 75, 50
1, 48707, Note_off_c, 0, 60, 58
1, 48713, Control_c, 0, 67, 20
1, 48731, Note_on_c, 0, 59, 51
1, 48755, Note_off_c, 0, 59, 61
1, 48927, Note_off_c, 0, 87, 56
1, 48934, Control_c, 0, 64, 98
1, 48949, Control_c, 0, 64, 75
1, 48963, Control_c, 0, 64, 64
1, 48963, Control_c, 0, 67, 19
1, 48967, Note_on_c, 0, 76, 76
1, 48978, Control_c, 0, 64, 56
1, 48984, Note_on_c, 0, 88, 56
1, 48990, Note_on_c, 0, 47, 43
1, 48993, Control_c, 0, 64, 55
1, 49004, Note_on_c, 0, 40, 40
1, 49008, Control_c, 0, 64, 59
1, 49023, Control_c, 0, 64, 62
1, 49038, Control_c, 0, 64, 65
1, 49052, Control_c, 0, 64, 69
1, 49067, Control_c, 0, 64, 74
1, 49082, Control_c, 0, 64, 82
1, 49097, Control_c, 0, 64, 92
1, 49112, Control_c, 0, 64, 107
1, 49112, Control_c, 0, 67, 19
1, 49127, Control_c, 0, 64, 127
1, 49131, Note_off_c, 0, 47, 49
1, 49153, Note_off_c, 0, 88, 61
1, 49174, Note_off_c, 0, 40, 40
1, 49187, Note_on_c, 0, 52, 50
1, 49190, Note_on_c, 0, 87, 45
1, 49295, Note_off_c, 0, 52, 58
1, 49346, Note_off_c, 0, 87, 37
1, 49357, Note_on_c, 0, 55, 45
1, 49357, Control_c, 0, 67, 19
1, 49374, Note_on_c, 0, 86, 57
1, 49473, Note_off_c, 0, 55, 56
1, 49499, Note_off_c, 0, 76, 60
1, 49506, Note_off_c, 0, 86, 45
1, 49522, Note_on_c, 0, 85, 60
1, 49557, Note_on_c, 0, 59, 12
1, 49669, Note_off_c, 0, 59, 52
1, 49678, Note_on_c, 0, 75, 72
1, 49683, Control_c, 0, 67, 20
1, 49695, Note_on_c, 0, 84, 61
1, 49699, Note_on_c, 0, 55, 48
1, 49707, Note_off_c, 0, 85, 56
1, 49816, Note_off_c, 0, 55, 59
1, 49847, Note_on_c, 0, 52, 48
1, 49856, Note_on_c, 0, 83, 70
1, 49890, Note_off_c, 0, 52, 64
1, 49897, Note_off_c, 0, 84, 57
1, 49908, Note_off_c, 0, 75, 59
1, 49912, Control_c, 0, 67, 21
1, 49927, Control_c, 0, 67, 21
1, 49942, Control_c, 0, 67, 22
1, 49957, Control_c, 0, 67, 23
1, 49988, Control_c, 0, 64, 95
1, 50003, Control_c, 0, 64, 75
1, 50003, Control_c, 0, 67, 23
1, 50017, Control_c, 0, 64, 64
1, 50017, Control_c, 0, 67, 24
1, 50021, Note_on_c, 0, 72, 74
1, 50027, Note_on_c, 0, 53, 42
1, 50032, Control_c, 0, 64, 53
1, 50039, Note_on_c, 0, 57, 50
1, 50042, Note_on_c, 0, 82, 52
1, 50047, Control_c, 0, 64, 48
1, 50062, Control_c, 0, 64, 51
1, 50077, Control_c, 0, 64, 55
1, 50091, Control_c, 0, 64, 60
1, 50106, Control_c, 0, 64, 63
1, 50121, Control_c, 0, 64, 66
1, 50121, Control_c, 0, 67, 24
1, 50135, Control_c, 0, 64, 70
1, 50146, Note_off_c, 0, 82, 63
1, 50150, Control_c, 0, 64, 77
1, 50162, Note_off_c, 0, 57, 57
1, 50165, Control_c, 0, 64, 86
1, 50180, Control_c, 0, 64, 98
1, 50185, Note_on_c, 0, 81, 57
1, 50193, Note_off_c, 0, 83, 24
1, 50195, Control_c, 0, 64, 121
1, 50202, Note_on_c, 0, 60, 47
1, 50209, Control_c, 0, 64, 127
1, 50213, Note_off_c, 0, 53, 45
1, 50239, Control_c, 0, 67, 24
1, 50284, Note_off_c, 0, 60, 57
1, 50347, Note_on_c, 0, 83, 57
1, 50349, Note_on_c, 0, 65, 47
1, 50431, Note_off_c, 0, 72, 52
1, 50433, Note_off_c, 0, 65, 46
1, 50456, Note_off_c, 0, 81, 33
1, 50510, Note_on_c, 0, 69, 52
1, 50526, Note_on_c, 0, 84, 55
1, 50533, Note_off_c, 0, 83, 59
1, 50581, Note_off_c, 0, 69, 49
1, 50679, Note_on_c, 0, 74, 75
1, 50686, Note_on_c, 0, 65, 48
1, 50697, Note_off_c, 0, 84, 59
1, 50700, Note_on_c, 0, 83, 57
1, 50720, Control_c, 0, 67, 23
1, 50756, Note_off_c, 0, 65, 50
1, 50779, Control_c, 0, 67, 23
1, 50825, Control_c, 0, 67, 22
1, 50839, Note_on_c, 0, 60, 56
1, 50847, Note_on_c, 0, 81, 68
1, 50856, Note_off_c, 0, 74, 60
1, 50861, Note_off_c, 0, 83, 62
1, 50868, Note_off_c, 0, 60, 65
1, 50888, Note_off_c, 0, 81, 62
1, 50913, Control_c, 0, 67, 21
1, 50972, Control_c, 0, 67, 22
1, 50987, Control_c, 0, 64, 100
1, 51001, Note_on_c, 0, 71, 79
1, 51002, Control_c, 0, 64, 76
1, 51007, Note_on_c, 0, 48, 42
1, 51007, Note_on_c, 0, 79, 66
1, 51017, Note_on_c, 0, 52, 46
1, 51017, Control_c, 0, 64, 64
1, 51032, Control_c, 0, 64, 54
1, 51032, Control_c, 0, 67, 21
1, 51047, Control_c, 0, 64, 50
1, 51062, Control_c, 0, 64, 53
1, 51062, Control_c, 0, 67, 21
1, 51076, Control_c, 0, 64, 57
1, 51091, Control_c, 0, 64, 61
1, 51106, Control_c, 0, 64, 64
1, 51121, Control_c, 0, 64, 66
1, 51136, Control_c, 0, 64, 70
1, 51150, Control_c, 0, 64, 75
1, 51165, Control_c, 0, 64, 83
1, 51176, Note_on_c, 0, 76, 61
1, 51180, Control_c, 0, 64, 93
1, 51180, Control_c, 0, 67, 20
1, 51181, Note_off_c, 0, 52, 52
1, 51195, Control_c, 0, 64, 104
1, 51197, Note_on_c, 0, 55, 45
1, 51205, Note_off_c, 0, 71, 58
1, 51210, Control_c, 0, 64, 127
1, 51234, Note_off_c, 0, 48, 33
1, 51291, Note_off_c, 0, 55, 57
1, 51338, Note_off_c, 0, 76, 60
1, 51343, Note_on_c, 0, 72, 69
1, 51354, Note_on_c, 0, 60, 46
1, 51364, Note_on_c, 0, 81, 64
1, 51372, Control_c, 0, 67, 21
1, 51395, Note_off_c, 0, 79, 60
1, 51431, Note_off_c, 0, 72, 62
1, 51533, Note_off_c, 0, 60, 40
1, 51537, Note_on_c, 0, 71, 77
1, 51542, Note_on_c, 0, 79, 67
1, 51553, Note_on_c, 0, 64, 54
1, 51589, Note_off_c, 0, 81, 39
1, 51623, Note_off_c, 0, 71, 60
1, 51625, Note_off_c, 0, 64, 52
1, 51694, Note_on_c, 0, 69, 79
1, 51702, Note_off_c, 0, 79, 60
1, 51705, Note_on_c, 0, 77, 66
1, 51714, Note_on_c, 0, 60, 59
1, 51753, Note_off_c, 0, 77, 54
1, 51773, Note_off_c, 0, 69, 62
1, 51780, Control_c, 0, 67, 20
1, 51812, Note_off_c, 0, 60, 60
1, 51850, Note_on_c, 0, 67, 85
1, 51859, Note_on_c, 0, 76, 72
1, 51861, Note_on_c, 0, 55, 57
1, 51885, Control_c, 0, 67, 19
1, 51908, Note_off_c, 0, 76, 62
1, 51914, Note_off_c, 0, 67, 63
1, 51974, Control_c, 0, 64, 116
1, 51980, Note_off_c, 0, 55, 51
1, 51989, Control_c, 0, 64, 87
1, 52001, Note_on_c, 0, 65, 78
1, 52004, Control_c, 0, 64, 71
1, 52018, Control_c, 0, 64, 60
1, 52020, Note_on_c, 0, 74, 61
1, 52024, Note_on_c, 0, 57, 50
1, 52029, Note_on_c, 0, 50, 41
1, 52033, Control_c, 0, 64, 54
1, 52048, Control_c, 0, 64, 54
1, 52048, Control_c, 0, 67, 19
1, 52063, Control_c, 0, 64, 57
1, 52078, Control_c, 0, 64, 60
1, 52093, Control_c, 0, 64, 64
1, 52093, Control_c, 0, 67, 19
1, 52107, Control_c, 0, 64, 68
1, 52108, Note_off_c, 0, 50, 52
1, 52122, Control_c, 0, 64, 74
1, 52142, Note_off_c, 0, 57, 60
1, 52144, Control_c, 0, 64, 82
1, 52144, Control_c, 0, 67, 20
1, 52159, Control_c, 0, 64, 93
1, 52174, Control_c, 0, 64, 112
1, 52185, Note_on_c, 0, 69, 53
1, 52188, Control_c, 0, 64, 127
1, 52200, Note_on_c, 0, 62, 54
1, 52246, Note_off_c, 0, 65, 57
1, 52248, Control_c, 0, 67, 21
1, 52261, Note_off_c, 0, 62, 48
1, 52345, Note_on_c, 0, 71, 52
1, 52369, Note_on_c, 0, 65, 52
1, 52382, Control_c, 0, 67, 21
1, 52396, Note_off_c, 0, 69, 37
1, 52412, Note_off_c, 0, 65, 57
1, 52445, Note_off_c, 0, 74, 58
1, 52471, Note_off_c, 0, 71, 59
1, 52495, Note_on_c, 0, 72, 61
1, 52522, Note_on_c, 0, 62, 45
1, 52579, Note_off_c, 0, 62, 52
1, 52639, Note_off_c, 0, 72, 61
1, 52642, Note_on_c, 0, 67, 77
1, 52663, Note_on_c, 0, 71, 53
1, 52664, Note_on_c, 0, 57, 54
1, 52758, Note_off_c, 0, 71, 59
1, 52759, Note_off_c, 0, 57, 55
1, 52799, Note_on_c, 0, 77, 82
1, 52811, Note_on_c, 0, 50, 56
1, 52836, Note_off_c, 0, 67, 57
1, 52908, Control_c, 0, 67, 21
1, 52923, Control_c, 0, 64, 103
1, 52937, Control_c, 0, 64, 84
1, 52940, Note_off_c, 0, 50, 50
1, 52952, Control_c, 0, 64, 70
1, 52957, Note_on_c, 0, 45, 51
1, 52958, Note_off_c, 0, 77, 59
1, 52963, Note_on_c, 0, 69, 84
1, 52967, Control_c, 0, 64, 63
1, 52978, Note_on_c, 0, 72, 64
1, 52982, Control_c, 0, 64, 57
1, 52982, Control_c, 0, 67, 20
1, 52997, Control_c, 0, 67, 19
1, 52999, Note_on_c, 0, 52, 45
1, 53011, Control_c, 0, 64, 60
1, 53026, Control_c, 0, 64, 63
1, 53041, Control_c, 0, 64, 66
1, 53056, Control_c, 0, 64, 71
1, 53062, Note_off_c, 0, 72, 63
1, 53071, Control_c, 0, 64, 77
1, 53086, Control_c, 0, 64, 85
1, 53092, Note_off_c, 0, 45, 38
1, 53092, Note_off_c, 0, 52, 59
1, 53100, Control_c, 0, 64, 96
1, 53115, Control_c, 0, 64, 117
1, 53130, Control_c, 0, 64, 127
1, 53136, Note_on_c, 0, 57, 54
1, 53158, Note_on_c, 0, 81, 57
1, 53253, Note_off_c, 0, 57, 62
1, 53297, Note_off_c, 0, 81, 57
1, 53306, Note_on_c, 0, 80, 57
1, 53309, Note_on_c, 0, 60, 51
1, 53399, Note_off_c, 0, 60, 56
1, 53414, Note_off_c, 0, 80, 59
1, 53464, Note_on_c, 0, 64, 52
1, 53473, Note_on_c, 0, 79, 68
1, 53475, Note_off_c, 0, 69, 56
1, 53619, Note_on_c, 0, 60, 56
1, 53621, Note_off_c, 0, 64, 33
1, 53633, Note_on_c, 0, 68, 79
1, 53637, Note_off_c, 0, 79, 62
1, 53640, Note_on_c, 0, 77, 72
1, 53693, Note_off_c, 0, 60, 59
1, 53731, Control_c, 0, 67, 19
1, 53748, Note_off_c, 0, 77, 59
1, 53760, Control_c, 0, 67, 18
1, 53779, Note_on_c, 0, 76, 57
1, 53783, Note_on_c, 0, 57, 61
1, 53790, Control_c, 0, 67, 17
1, 53805, Control_c, 0, 67, 16
1, 53820, Control_c, 0, 67, 15
1, 53857, Note_off_c, 0, 68, 59
1, 53893, Control_c, 0, 64, 100
1, 53894, Note_off_c, 0, 57, 58
1, 53908, Control_c, 0, 64, 82
1, 53923, Control_c, 0, 64, 67
1, 53933, Note_off_c, 0, 76, 53
1, 53938, Control_c, 0, 64, 50
1, 53938, Control_c, 0, 67, 14
1, 53943, Note_on_c, 0, 46, 42
1, 53944, Note_on_c, 0, 75, 66
1, 53946, Note_on_c, 0, 65, 73
1, 53948, Note_on_c, 0, 50, 44
1, 53953, Control_c, 0, 64, 0
1, 53998, Control_c, 0, 67, 15
1, 54013, Control_c, 0, 67, 16
1, 54028, Control_c, 0, 67, 17
1, 54043, Control_c, 0, 67, 18
1, 54092, Note_off_c, 0, 75, 61
1, 54100, Note_on_c, 0, 74, 63
1, 54111, Note_on_c, 0, 53, 50
1, 54131, Control_c, 0, 67, 17
1, 54146, Control_c, 0, 64, 9
1, 54161, Control_c, 0, 64, 50
1, 54175, Control_c, 0, 64, 63
1, 54175, Control_c, 0, 67, 16
1, 54180, Note_off_c, 0, 50, 34
1, 54190, Control_c, 0, 64, 68
1, 54190, Control_c, 0, 67, 16
1, 54205, Control_c, 0, 64, 74
1, 54205, Control_c, 0, 67, 15
1, 54220, Note_off_c, 0, 46, 33
1, 54220, Control_c, 0, 64, 82
1, 54220, Control_c, 0, 67, 14
1, 54231, Note_off_c, 0, 53, 62
1, 54235, Control_c, 0, 64, 98
1, 54249, Control_c, 0, 64, 127
1, 54272, Note_on_c, 0, 58, 53
1, 54279, Control_c, 0, 67, 15
1, 54290, Note_on_c, 0, 76, 59
1, 54320, Note_off_c, 0, 58, 61
1, 54338, Control_c, 0, 67, 14
1, 54346, Note_off_c, 0, 74, 51
1, 54448, Note_on_c, 0, 62, 55
1, 54456, Note_on_c, 0, 77, 66
1, 54466, Note_off_c, 0, 65, 30
1, 54478, Note_off_c, 0, 76, 56
1, 54507, Note_off_c, 0, 62, 58
1, 54523, Control_c, 0, 67, 15
1, 54588, Note_on_c, 0, 67, 79
1, 54594, Note_on_c, 0, 58, 54
1, 54606, Note_on_c, 0, 76, 61
1, 54648, Note_off_c, 0, 77, 56
1, 54650, Note_off_c, 0, 58, 53
1, 54731, Control_c, 0, 67, 14
1, 54753, Note_on_c, 0, 74, 73
1, 54755, Note_on_c, 0, 53, 63
1, 54782, Note_off_c, 0, 76, 63
1, 54785, Note_off_c, 0, 67, 60
1, 54793, Note_off_c, 0, 53, 63
1, 54809, Note_off_c, 0, 74, 63
1, 54895, Control_c, 0, 64, 94
1, 54895, Control_c, 0, 67, 15
1, 54910, Control_c, 0, 64, 69
1, 54915, Note_on_c, 0, 64, 81
1, 54919, Note_on_c, 0, 41, 42
1, 54925, Control_c, 0, 64, 47
1, 54931, Note_on_c, 0, 45, 49
1, 54931, Note_on_c, 0, 72, 56
1, 54940, Control_c, 0, 64, 0
1, 54940, Control_c, 0, 67, 16
1, 55013, Control_c, 0, 64, 31
1, 55028, Control_c, 0, 64, 47
1, 55043, Control_c, 0, 64, 54
1, 55058, Control_c, 0, 64, 58
1, 55072, Control_c, 0, 64, 62
1, 55076, Note_off_c, 0, 72, 62
1, 55087, Control_c, 0, 64, 65
1, 55089, Note_off_c, 0, 45, 55
1, 55092, Note_on_c, 0, 48, 48
1, 55095, Note_on_c, 0, 76, 56
1, 55102, Control_c, 0, 64, 69
1, 55117, Control_c, 0, 64, 78
1, 55117, Control_c, 0, 67, 15
1, 55118, Note_off_c, 0, 41, 44
1, 55139, Control_c, 0, 64, 97
1, 55154, Control_c, 0, 64, 127
1, 55181, Note_off_c, 0, 48, 59
1, 55228, Control_c, 0, 67, 16
1, 55232, Note_off_c, 0, 76, 56
1, 55237, Note_on_c, 0, 53, 47
1, 55247, Note_on_c, 0, 74, 54
1, 55345, Note_off_c, 0, 53, 50
1, 55347, Note_off_c, 0, 64, 51
1, 55405, Note_off_c, 0, 74, 36
1, 55407, Note_on_c, 0, 72, 55
1, 55414, Note_on_c, 0, 57, 51
1, 55450, Control_c, 0, 67, 16
1, 55459, Note_off_c, 0, 72, 63
1, 55470, Note_off_c, 0, 57, 56
1, 55539, Control_c, 0, 67, 17
1, 55553, Note_on_c, 0, 63, 79
1, 55569, Note_on_c, 0, 53, 60
1, 55572, Note_on_c, 0, 71, 68
1, 55682, Note_off_c, 0, 53, 55
1, 55715, Note_off_c, 0, 71, 62
1, 55717, Note_on_c, 0, 69, 77
1, 55724, Note_on_c, 0, 48, 58
1, 55790, Note_off_c, 0, 63, 56
1, 55821, Note_off_c, 0, 48, 57
1, 55822, Control_c, 0, 64, 106
1, 55837, Control_c, 0, 64, 78
1, 55852, Control_c, 0, 64, 64
1, 55867, Control_c, 0, 64, 47
1, 55879, Note_on_c, 0, 62, 79
1, 55880, Note_on_c, 0, 41, 45
1, 55889, Note_on_c, 0, 47, 41
1, 55889, Control_c, 0, 64, 30
1, 55903, Control_c, 0, 64, 31
1, 55911, Note_on_c, 0, 71, 54
1, 55918, Control_c, 0, 64, 34
1, 55920, Note_off_c, 0, 69, 51
1, 55933, Control_c, 0, 64, 41
1, 55933, Control_c, 0, 67, 18
1, 55948, Control_c, 0, 64, 49
1, 55962, Control_c, 0, 64, 55
1, 55977, Control_c, 0, 64, 59
1, 55992, Control_c, 0, 64, 62
1, 56007, Control_c, 0, 64, 64
1, 56010, Note_off_c, 0, 47, 58
1, 56022, Control_c, 0, 64, 67
1, 56037, Control_c, 0, 64, 70
1, 56037, Note_off_c, 0, 71, 60
1, 56050, Note_on_c, 0, 74, 56
1, 56052, Control_c, 0, 64, 74
1, 56053, Note_on_c, 0, 50, 48
1, 56058, Note_off_c, 0, 41, 35
1, 56066, Control_c, 0, 64, 80
1, 56081, Control_c, 0, 64, 89
1, 56096, Control_c, 0, 64, 105
1, 56111, Control_c, 0, 64, 127
1, 56112, Note_off_c, 0, 50, 59
1, 56179, Note_off_c, 0, 74, 50
1, 56187, Note_on_c, 0, 55, 45
1, 56205, Note_on_c, 0, 72, 55
1, 56295, Note_off_c, 0, 62, 39
1, 56344, Note_on_c, 0, 71, 59
1, 56345, Note_off_c, 0, 72, 34
1, 56347, Control_c, 0, 67, 18
1, 56355, Note_off_c, 0, 55, 27
1, 56365, Note_on_c, 0, 59, 45
1, 56379, Note_off_c, 0, 71, 62
1, 56413, Note_off_c, 0, 59, 58
1, 56452, Control_c, 0, 67, 19
1, 56493, Note_on_c, 0, 55, 51
1, 56517, Note_on_c, 0, 61, 79
1, 56534, Note_on_c, 0, 69, 62
1, 56599, Note_off_c, 0, 55, 60
1, 56672, Note_off_c, 0, 69, 62
1, 56674, Note_on_c, 0, 67, 74
1, 56682, Control_c, 0, 67, 19
1, 56693, Note_on_c, 0, 50, 23
1, 56704, Note_off_c, 0, 61, 56
1, 56732, Note_off_c, 0, 50, 42
1, 56800, Control_c, 0, 64, 111
1, 56800, Control_c, 0, 67, 20
1, 56815, Control_c, 0, 64, 89
1, 56830, Control_c, 0, 64, 73
1, 56830, Control_c, 0, 67, 21
1, 56832, Note_on_c, 0, 41, 37
1, 56834, Note_on_c, 0, 60, 70
1, 56841, Note_on_c, 0, 45, 33
1, 56844, Note_off_c, 0, 67, 50
1, 56845, Control_c, 0, 64, 63
1, 56845, Control_c, 0, 67, 21
1, 56857, Note_on_c, 0, 69, 58
1, 56859, Control_c, 0, 64, 46
1, 56874, Control_c, 0, 64, 36
1, 56889, Control_c, 0, 64, 38
1, 56904, Control_c, 0, 64, 40
1, 56919, Control_c, 0, 64, 45
1, 56934, Control_c, 0, 64, 52
1, 56949, Control_c, 0, 64, 57
1, 56964, Control_c, 0, 64, 62
1, 56978, Control_c, 0, 64, 64
1, 56993, Control_c, 0, 64, 67
1, 56993, Control_c, 0, 67, 21
1, 57000, Note_off_c, 0, 69, 59
1, 57008, Control_c, 0, 64, 70
1, 57014, Note_on_c, 0, 48, 44
1, 57017, Note_off_c, 0, 45, 41
1, 57017, Note_on_c, 0, 72, 54
1, 57023, Control_c, 0, 64, 76
1, 57038, Note_off_c, 0, 41, 41
1, 57038, Control_c, 0, 64, 85
1, 57052, Control_c, 0, 64, 109
1, 57067, Control_c, 0, 64, 127
1, 57101, Note_off_c, 0, 48, 58
1, 57111, Control_c, 0, 67, 20
1, 57159, Note_on_c, 0, 53, 43
1, 57181, Note_on_c, 0, 71, 51
1, 57182, Note_off_c, 0, 72, 36
1, 57216, Control_c, 0, 67, 19
1, 57251, Note_off_c, 0, 53, 48
1, 57315, Note_off_c, 0, 60, 30
1, 57329, Note_on_c, 0, 57, 53
1, 57330, Note_on_c, 0, 69, 59
1, 57357, Note_off_c, 0, 71, 42
1, 57377, Note_off_c, 0, 69, 64
1, 57395, Note_off_c, 0, 57, 55
1, 57461, Control_c, 0, 67, 19
1, 57501, Note_on_c, 0, 59, 67
1, 57505, Note_on_c, 0, 67, 66
1, 57506, Note_on_c, 0, 53, 55
1, 57549, Control_c, 0, 67, 18
1, 57552, Note_off_c, 0, 53, 57
1, 57623, Control_c, 0, 67, 18
1, 57638, Note_off_c, 0, 67, 61
1, 57658, Note_on_c, 0, 48, 53
1, 57661, Note_on_c, 0, 65, 67
1, 57661, Note_off_c, 0, 59, 56
1, 57742, Control_c, 0, 67, 17
1, 57782, Note_off_c, 0, 48, 46
1, 57786, Control_c, 0, 64, 104
1, 57801, Control_c, 0, 64, 80
1, 57816, Control_c, 0, 64, 67
1, 57831, Note_off_c, 0, 65, 57
1, 57831, Control_c, 0, 64, 56
1, 57832, Note_on_c, 0, 49, 51
1, 57833, Note_on_c, 0, 58, 61
1, 57846, Control_c, 0, 64, 44
1, 57852, Note_on_c, 0, 67, 52
1, 57861, Control_c, 0, 64, 45
1, 57861, Control_c, 0, 67, 18
1, 57875, Control_c, 0, 64, 49
1, 57890, Control_c, 0, 64, 54
1, 57905, Control_c, 0, 64, 59
1, 57919, Control_c, 0, 64, 62
1, 57934, Control_c, 0, 64, 64
1, 57949, Control_c, 0, 64, 67
1, 57964, Control_c, 0, 64, 70
1, 57980, Control_c, 0, 64, 75
1, 57995, Control_c, 0, 64, 79
1, 57995, Note_off_c, 0, 67, 50
1, 58009, Note_on_c, 0, 37, 38
1, 58010, Control_c, 0, 64, 83
1, 58013, Note_on_c, 0, 70, 56
1, 58024, Control_c, 0, 64, 88
1, 58039, Control_c, 0, 64, 94
1, 58045, Note_off_c, 0, 49, 31
1, 58054, Control_c, 0, 64, 101
1, 58054, Control_c, 0, 67, 17
1, 58069, Control_c, 0, 64, 112
1, 58084, Note_off_c, 0, 70, 52
1, 58084, Control_c, 0, 64, 127
1, 58183, Note_off_c, 0, 37, 36
1, 58190, Note_on_c, 0, 69, 57
1, 58202, Note_on_c, 0, 48, 46
1, 58254, Control_c, 0, 67, 16
1, 58329, Note_off_c, 0, 48, 34
1, 58363, Note_off_c, 0, 69, 52
1, 58397, Note_on_c, 0, 36, 38
1, 58401, Note_on_c, 0, 67, 49
1, 58436, Note_off_c, 0, 36, 51
1, 58476, Control_c, 0, 67, 17
1, 58550, Control_c, 0, 67, 18
1, 58564, Control_c, 0, 64, 110
1, 58579, Control_c, 0, 64, 96
1, 58594, Control_c, 0, 64, 81
1, 58594, Control_c, 0, 67, 18
1, 58609, Control_c, 0, 64, 69
1, 58609, Control_c, 0, 67, 19
1, 58623, Control_c, 0, 64, 61
1, 58623, Control_c, 0, 67, 19
1, 58625, Note_off_c, 0, 58, 36
1, 58638, Control_c, 0, 64, 55
1, 58638, Control_c, 0, 67, 20
1, 58641, Note_on_c, 0, 57, 41
1, 58653, Control_c, 0, 67, 21
1, 58660, Note_on_c, 0, 65, 38
1, 58668, Control_c, 0, 64, 56
1, 58668, Control_c, 0, 67, 23
1, 58681, Note_off_c, 0, 67, 29
1, 58683, Control_c, 0, 64, 58
1, 58683, Control_c, 0, 67, 24
1, 58697, Control_c, 0, 64, 61
1, 58697, Control_c, 0, 67, 26
1, 58712, Control_c, 0, 64, 63
1, 58712, Control_c, 0, 67, 27
1, 58727, Control_c, 0, 64, 66
1, 58727, Control_c, 0, 67, 28
1, 58741, Control_c, 0, 64, 69
1, 58741, Control_c, 0, 67, 28
1, 58756, Control_c, 0, 64, 73
1, 58756, Control_c, 0, 67, 29
1, 58773, Control_c, 0, 64, 79
1, 58773, Control_c, 0, 67, 29
1, 58788, Control_c, 0, 64, 85
1, 58802, Control_c, 0, 64, 92
1, 58817, Control_c, 0, 64, 113
1, 58832, Control_c, 0, 64, 127
1, 58832, Control_c, 0, 67, 30
1, 58913, Control_c, 0, 67, 29
1, 58928, Note_off_c, 0, 57, 30
1, 58932, Note_on_c, 0, 56, 39
1, 58943, Control_c, 0, 67, 29
1, 58950, Note_on_c, 0, 64, 42
1, 58977, Note_off_c, 0, 56, 63
1, 59002, Control_c, 0, 67, 28
1, 59015, Note_off_c, 0, 65, 23
1, 59017, Control_c, 0, 67, 28
1, 59130, Note_off_c, 0, 64, 35
1, 59165, Control_c, 0, 67, 27
1, 59253, Control_c, 0, 67, 26
1, 59283, Control_c, 0, 64, 95
1, 59298, Note_on_c, 0, 35, 51
1, 59298, Control_c, 0, 64, 77
1, 59313, Control_c, 0, 64, 66
1, 59328, Control_c, 0, 64, 57
1, 59328, Control_c, 0, 67, 26
1, 59342, Control_c, 0, 64, 54
1, 59357, Control_c, 0, 64, 57
1, 59372, Control_c, 0, 64, 61
1, 59387, Control_c, 0, 64, 64
1, 59402, Control_c, 0, 64, 67
1, 59417, Control_c, 0, 64, 71
1, 59432, Control_c, 0, 64, 77
1, 59446, Control_c, 0, 64, 85
1, 59461, Control_c, 0, 64, 94
1, 59476, Control_c, 0, 64, 111
1, 59491, Control_c, 0, 64, 127
1, 59566, Control_c, 0, 67, 25
1, 59720, Note_on_c, 0, 45, 43
1, 59721, Control_c, 0, 67, 24
1, 59724, Note_on_c, 0, 65, 79
1, 59729, Note_on_c, 0, 77, 77
1, 59736, Note_off_c, 0, 35, 37
1, 59924, Note_off_c, 0, 45, 55
1, 59997, Note_off_c, 0, 77, 28
1, 60020, Note_on_c, 0, 48, 30
1, 60059, Note_on_c, 0, 76, 46
1, 60098, Note_off_c, 0, 48, 57
1, 60221, Note_on_c, 0, 74, 49
1, 60227, Note_off_c, 0, 76, 36
1, 60229, Note_on_c, 0, 53, 53
1, 60258, Note_off_c, 0, 65, 20
1, 60261, Note_off_c, 0, 74, 63
1, 60336, Note_off_c, 0, 53, 56
1, 60383, Note_on_c, 0, 64, 73
1, 60397, Note_on_c, 0, 73, 61
1, 60399, Note_on_c, 0, 57, 52
1, 60506, Note_off_c, 0, 73, 62
1, 60508, Note_off_c, 0, 57, 59
1, 60526, Note_off_c, 0, 64, 57
1, 60544, Note_on_c, 0, 60, 68
1, 60544, Control_c, 0, 67, 24
1, 60550, Note_on_c, 0, 72, 77
1, 60678, Control_c, 0, 64, 106
1, 60692, Note_off_c, 0, 72, 57
1, 60692, Control_c, 0, 64, 85
1, 60707, Control_c, 0, 64, 70
1, 60721, Note_on_c, 0, 61, 79
1, 60722, Control_c, 0, 64, 62
1, 60723, Note_off_c, 0, 60, 53
1, 60723, Note_on_c, 0, 53, 51
1, 60737, Note_on_c, 0, 71, 65
1, 60737, Control_c, 0, 64, 55
1, 60751, Control_c, 0, 64, 56
1, 60751, Control_c, 0, 67, 23
1, 60766, Control_c, 0, 64, 59
1, 60781, Control_c, 0, 64, 63
1, 60796, Control_c, 0, 64, 65
1, 60810, Control_c, 0, 64, 68
1, 60824, Control_c, 0, 64, 73
1, 60839, Control_c, 0, 64, 78
1, 60854, Control_c, 0, 64, 84
1, 60869, Control_c, 0, 64, 91
1, 60884, Control_c, 0, 64, 97
1, 60899, Control_c, 0, 64, 103
1, 60906, Note_off_c, 0, 71, 57
1, 60913, Control_c, 0, 64, 111
1, 60915, Note_on_c, 0, 58, 56
1, 60928, Note_on_c, 0, 70, 64
1, 60928, Control_c, 0, 64, 127
1, 60948, Note_off_c, 0, 53, 29
1, 61085, Note_on_c, 0, 72, 69
1, 61100, Note_on_c, 0, 57, 53
1, 61119, Note_off_c, 0, 58, 36
1, 61127, Note_off_c, 0, 70, 27
1, 61193, Note_off_c, 0, 61, 49
1, 61241, Note_on_c, 0, 73, 73
1, 61241, Note_off_c, 0, 57, 36
1, 61257, Note_on_c, 0, 56, 53
1, 61262, Note_off_c, 0, 72, 53
1, 61367, Control_c, 0, 64, 107
1, 61381, Control_c, 0, 64, 91
1, 61396, Control_c, 0, 64, 77
1, 61402, Note_off_c, 0, 56, 35
1, 61406, Note_on_c, 0, 63, 70
1, 61411, Control_c, 0, 64, 67
1, 61411, Control_c, 0, 67, 23
1, 61416, Note_on_c, 0, 55, 55
1, 61426, Control_c, 0, 64, 60
1, 61435, Note_on_c, 0, 72, 54
1, 61440, Control_c, 0, 64, 59
1, 61455, Control_c, 0, 64, 61
1, 61470, Control_c, 0, 64, 63
1, 61479, Note_off_c, 0, 73, 35
1, 61485, Control_c, 0, 64, 66
1, 61500, Control_c, 0, 64, 69
1, 61514, Control_c, 0, 64, 75
1, 61529, Control_c, 0, 64, 81
1, 61544, Control_c, 0, 64, 86
1, 61547, Note_off_c, 0, 72, 52
1, 61559, Control_c, 0, 64, 93
1, 61573, Control_c, 0, 64, 100
1, 61573, Control_c, 0, 67, 22
1, 61575, Note_off_c, 0, 55, 54
1, 61588, Control_c, 0, 64, 110
1, 61602, Note_on_c, 0, 54, 50
1, 61603, Control_c, 0, 64, 127
1, 61626, Note_off_c, 0, 54, 58
1, 61632, Note_on_c, 0, 68, 46
1, 61677, Note_off_c, 0, 63, 39
1, 61727, Note_off_c, 0, 68, 51
1, 61781, Control_c, 0, 64, 113
1, 61796, Control_c, 0, 64, 85
1, 61807, Note_on_c, 0, 35, 44
1, 61811, Control_c, 0, 64, 71
1, 61812, Note_on_c, 0, 60, 64
1, 61821, Note_on_c, 0, 69, 59
1, 61826, Control_c, 0, 64, 63
1, 61826, Control_c, 0, 67, 21
1, 61840, Control_c, 0, 64, 60
1, 61855, Control_c, 0, 64, 61
1, 61855, Control_c, 0, 67, 21
1, 61877, Control_c, 0, 64, 64
1, 61892, Control_c, 0, 64, 67
1, 61907, Control_c, 0, 64, 70
1, 61921, Control_c, 0, 64, 74
1, 61936, Control_c, 0, 64, 79
1, 61951, Control_c, 0, 64, 83
1, 61967, Control_c, 0, 64, 86
1, 61982, Control_c, 0, 64, 91
1, 61996, Control_c, 0, 64, 95
1, 62011, Control_c, 0, 64, 101
1, 62019, Note_off_c, 0, 69, 24
1, 62023, Note_on_c, 0, 66, 59
1, 62026, Control_c, 0, 64, 109
1, 62041, Control_c, 0, 64, 127
1, 62043, Note_on_c, 0, 46, 46
1, 62046, Note_off_c, 0, 35, 38
1, 62075, Note_off_c, 0, 60, 57
1, 62092, Note_off_c, 0, 46, 57
1, 62186, Note_off_c, 0, 66, 62
1, 62204, Control_c, 0, 64, 100
1, 62219, Control_c, 0, 64, 82
1, 62234, Control_c, 0, 64, 70
1, 62240, Note_on_c, 0, 59, 56
1, 62243, Note_on_c, 0, 47, 46
1, 62248, Note_on_c, 0, 67, 55
1, 62249, Control_c, 0, 64, 63
1, 62249, Control_c, 0, 67, 20
1, 62263, Control_c, 0, 64, 60
1, 62278, Control_c, 0, 64, 60
1, 62293, Control_c, 0, 64, 61
1, 62308, Control_c, 0, 64, 62
1, 62323, Control_c, 0, 64, 63
1, 62323, Control_c, 0, 67, 19
1, 62337, Control_c, 0, 64, 65
1, 62352, Control_c, 0, 64, 68
1, 62367, Control_c, 0, 64, 71
1, 62382, Control_c, 0, 64, 75
1, 62396, Control_c, 0, 64, 80
1, 62411, Control_c, 0, 64, 84
1, 62426, Control_c, 0, 64, 88
1, 62437, Note_off_c, 0, 67, 37
1, 62441, Control_c, 0, 64, 91
1, 62456, Control_c, 0, 64, 97
1, 62470, Control_c, 0, 64, 103
1, 62470, Control_c, 0, 67, 19
1, 62485, Control_c, 0, 64, 111
1, 62487, Note_on_c, 0, 64, 54
1, 62494, Note_on_c, 0, 48, 43
1, 62496, Note_off_c, 0, 47, 33
1, 62500, Control_c, 0, 64, 127
1, 62511, Note_off_c, 0, 59, 31
1, 62685, Control_c, 0, 64, 117
1, 62700, Control_c, 0, 64, 112
1, 62715, Control_c, 0, 64, 108
1, 62723, Note_off_c, 0, 64, 61
1, 62725, Note_off_c, 0, 48, 33
1, 62730, Control_c, 0, 64, 104
1, 62744, Control_c, 0, 64, 98
1, 62751, Note_on_c, 0, 49, 35
1, 62756, Note_on_c, 0, 66, 50
1, 62759, Control_c, 0, 64, 91
1, 62775, Control_c, 0, 64, 82
1, 62778, Note_on_c, 0, 57, 43
1, 62790, Control_c, 0, 64, 74
1, 62805, Control_c, 0, 64, 68
1, 62819, Control_c, 0, 64, 62
1, 62834, Control_c, 0, 64, 59
1, 62849, Control_c, 0, 64, 57
1, 62864, Control_c, 0, 64, 56
1, 62893, Control_c, 0, 64, 56
1, 62908, Control_c, 0, 64, 57
1, 62923, Control_c, 0, 64, 59
1, 62938, Control_c, 0, 64, 62
1, 62953, Control_c, 0, 64, 63
1, 62967, Control_c, 0, 64, 65
1, 62982, Control_c, 0, 64, 67
1, 62997, Control_c, 0, 64, 70
1, 63012, Control_c, 0, 64, 73
1, 63027, Control_c, 0, 64, 77
1, 63042, Control_c, 0, 64, 80
1, 63057, Control_c, 0, 64, 85
1, 63072, Control_c, 0, 64, 89
1, 63081, Note_off_c, 0, 57, 52
1, 63083, Note_off_c, 0, 49, 37
1, 63087, Control_c, 0, 64, 94
1, 63087, Control_c, 0, 67, 18
1, 63096, Note_on_c, 0, 50, 34
1, 63097, Note_on_c, 0, 59, 45
1, 63101, Control_c, 0, 64, 104
1, 63116, Control_c, 0, 64, 127
1, 63140, Note_off_c, 0, 50, 52
1, 63509, Control_c, 0, 64, 104
1, 63524, Control_c, 0, 64, 89
1, 63528, Note_off_c, 0, 59, 58
1, 63538, Control_c, 0, 64, 74
1, 63549, Note_off_c, 0, 66, 40
1, 63553, Control_c, 0, 64, 64
1, 63560, Note_on_c, 0, 40, 38
1, 63569, Note_on_c, 0, 51, 40
1, 63569, Control_c, 0, 64, 49
1, 63584, Control_c, 0, 64, 34
1, 63599, Control_c, 0, 64, 32
1, 63643, Control_c, 0, 67, 19
1, 63777, Control_c, 0, 64, 32
1, 63844, Note_off_c, 0, 51, 45
1, 63850, Note_off_c, 0, 40, 44
1, 63898, Note_on_c, 0, 64, 35
1, 63900, Note_on_c, 0, 55, 31
1, 63900, Note_on_c, 0, 59, 29
1, 64563, Note_off_c, 0, 64, 63
1, 64565, Note_off_c, 0, 59, 53
1, 64572, Note_off_c, 0, 55, 55
1, 64598, Note_on_c, 0, 50, 46
1, 64600, Note_on_c, 0, 40, 40
1, 64643, Control_c, 0, 67, 19
1, 64732, Control_c, 0, 67, 20
1, 65006, Control_c, 0, 67, 19
1, 65080, Control_c, 0, 67, 19
1, 65170, Control_c, 0, 67, 18
1, 65185, Note_off_c, 0, 50, 60
1, 65185, Control_c, 0, 67, 18
1, 65200, Control_c, 0, 67, 16
1, 65212, Note_off_c, 0, 40, 44
1, 65215, Control_c, 0, 67, 14
1, 65230, Control_c, 0, 67, 12
1, 65232, Note_on_c, 0, 64, 43
1, 65241, Note_on_c, 0, 55, 36
1, 65244, Control_c, 0, 67, 10
1, 65245, Note_on_c, 0, 59, 21
1, 65259, Control_c, 0, 67, 9
1, 65274, Control_c, 0, 67, 0
1, 65504, Note_off_c, 0, 59, 15
1, 65504, Note_off_c, 0, 64, 61
1, 65525, Note_off_c, 0, 55, 42
1, 65533, Note_on_c, 0, 48, 49
1, 65535, Note_on_c, 0, 40, 49
1, 65540, Control_c, 0, 64, 30
1, 65555, Control_c, 0, 64, 22
1, 65570, Control_c, 0, 64, 0
1, 65829, Note_on_c, 0, 64, 66
1, 65835, Note_on_c, 0, 59, 67
1, 65839, Note_on_c, 0, 55, 51
1, 65844, Control_c, 0, 64, 52
1, 65848, Note_off_c, 0, 48, 63
1, 65859, Control_c, 0, 64, 65
1, 65862, Note_off_c, 0, 40, 50
1, 65864, Note_off_c, 0, 59, 66
1, 65865, Note_off_c, 0, 55, 62
1, 65868, Note_off_c, 0, 64, 66
1, 65874, Control_c, 0, 64, 74
1, 65888, Control_c, 0, 64, 89
1, 65903, Control_c, 0, 64, 127
1, 66091, Note_on_c, 0, 76, 85
1, 66111, Control_c, 0, 64, 102
1, 66126, Control_c, 0, 64, 67
1, 66133, Note_off_c, 0, 76, 65
1, 66141, Control_c, 0, 64, 0
1, 66156, Note_on_c, 0, 64, 75
1, 66184, Note_off_c, 0, 64, 68
1, 66228, Note_on_c, 0, 63, 80
1, 66283, Note_off_c, 0, 63, 62
1, 66290, Note_on_c, 0, 64, 69
1, 66343, Note_on_c, 0, 65, 85
1, 66345, Note_on_c, 0, 49, 94
1, 66348, Note_on_c, 0, 61, 89
1, 66352, Note_on_c, 0, 37, 70
1, 66363, Note_off_c, 0, 64, 57
1, 66364, Note_on_c, 0, 56, 81
1, 66383, Note_off_c, 0, 56, 69
1, 66385, Control_c, 0, 64, 61
1, 66389, Note_off_c, 0, 49, 64
1, 66390, Note_off_c, 0, 37, 63
1, 66395, Note_off_c, 0, 65, 63
1, 66400, Control_c, 0, 64, 98
1, 66402, Note_off_c, 0, 61, 62
1, 66415, Control_c, 0, 64, 127
1, 66497, Poly_aftertouch_c, 0, 56, 127
1, 66523, Poly_aftertouch_c, 0, 56, 0
1, 66652, Note_on_c, 0, 89, 90
1, 66662, Note_on_c, 0, 65, 94
1, 66664, Note_on_c, 0, 61, 88
1, 66664, Note_on_c, 0, 56, 87
1, 66691, Note_off_c, 0, 89, 64
1, 66720, Note_on_c, 0, 77, 83
1, 66753, Note_off_c, 0, 77, 64
1, 66803, Note_on_c, 0, 70, 96
1, 66864, Note_off_c, 0, 70, 67
1, 66872, Note_on_c, 0, 71, 88
1, 66913, Note_off_c, 0, 71, 66
1, 66941, Note_on_c, 0, 72, 99
1, 66983, Note_off_c, 0, 72, 69
1, 67254, Note_on_c, 0, 54, 101
1, 67313, Control_c, 0, 64, 109
1, 67328, Control_c, 0, 64, 77
1, 67342, Control_c, 0, 64, 60
1, 67357, Control_c, 0, 64, 0
1, 67360, Note_off_c, 0, 65, 41
1, 67370, Note_off_c, 0, 61, 52
1, 67373, Note_off_c, 0, 56, 61
1, 67386, Control_c, 0, 64, 18
1, 67401, Control_c, 0, 64, 36
1, 67416, Control_c, 0, 64, 49
1, 67431, Control_c, 0, 64, 56
1, 67446, Control_c, 0, 64, 61
1, 67460, Control_c, 0, 64, 64
1, 67475, Control_c, 0, 64, 67
1, 67490, Control_c, 0, 64, 71
1, 67505, Control_c, 0, 64, 79
1, 67510, Note_off_c, 0, 54, 58
1, 67520, Control_c, 0, 64, 97
1, 67531, Note_on_c, 0, 61, 66
1, 67534, Note_on_c, 0, 57, 66
1, 67534, Control_c, 0, 64, 127
1, 67539, Note_on_c, 0, 64, 75
1, 67611, Note_off_c, 0, 57, 61
1, 67641, Note_off_c, 0, 61, 60
1, 67802, Control_c, 0, 64, 86
1, 67817, Control_c, 0, 64, 69
1, 67825, Note_off_c, 0, 64, 54
1, 67832, Control_c, 0, 64, 57
1, 67847, Control_c, 0, 64, 40
1, 67859, Note_on_c, 0, 58, 47
1, 67861, Note_on_c, 0, 63, 47
1, 67869, Control_c, 0, 64, 38
1, 67870, Note_on_c, 0, 61, 39
1, 67877, Note_on_c, 0, 66, 63
1, 67883, Control_c, 0, 64, 40
1, 67898, Control_c, 0, 64, 46
1, 67913, Control_c, 0, 64, 54
1, 67928, Control_c, 0, 64, 59
1, 67943, Control_c, 0, 64, 63
1, 67958, Control_c, 0, 64, 66
1, 67972, Control_c, 0, 64, 71
1, 67987, Control_c, 0, 64, 78
1, 68002, Control_c, 0, 64, 89
1, 68017, Control_c, 0, 64, 110
1, 68023, Note_off_c, 0, 63, 34
1, 68032, Control_c, 0, 64, 127
1, 68050, Note_off_c, 0, 58, 33
1, 68074, Note_off_c, 0, 66, 61
1, 68076, Note_off_c, 0, 61, 25
1, 68194, Note_on_c, 0, 52, 52
1, 68195, Control_c, 0, 64, 106
1, 68209, Control_c, 0, 64, 89
1, 68224, Control_c, 0, 64, 75
1, 68239, Control_c, 0, 64, 68
1, 68254, Control_c, 0, 64, 64
1, 68269, Control_c, 0, 64, 62
1, 68283, Control_c, 0, 64, 59
1, 68298, Control_c, 0, 64, 53
1, 68313, Control_c, 0, 64, 44
1, 68328, Control_c, 0, 64, 38
1, 68343, Control_c, 0, 64, 32
1, 68359, Control_c, 0, 64, 25
1, 68374, Control_c, 0, 64, 16
1, 68388, Control_c, 0, 64, 0
1, 68467, Note_on_c, 0, 55, 35
1, 68471, Note_on_c, 0, 59, 41
1, 68485, Note_on_c, 0, 64, 45
1, 68536, Control_c, 0, 64, 15
1, 68551, Control_c, 0, 64, 32
1, 68566, Control_c, 0, 64, 43
1, 68580, Control_c, 0, 64, 51
1, 68595, Control_c, 0, 64, 57
1, 68618, Control_c, 0, 64, 60
1, 68632, Control_c, 0, 64, 63
1, 68647, Control_c, 0, 64, 65
1, 68649, Note_off_c, 0, 64, 36
1, 68662, Control_c, 0, 64, 67
1, 68677, Control_c, 0, 64, 70
1, 68684, Note_off_c, 0, 59, 36
1, 68689, Note_off_c, 0, 55, 37
1, 68692, Control_c, 0, 64, 78
1, 68706, Control_c, 0, 64, 93
1, 68721, Control_c, 0, 64, 127
1, 69254, Control_c, 0, 64, 78
1, 69266, Note_off_c, 0, 52, 42
1, 69269, Control_c, 0, 64, 59
1, 69282, Note_on_c, 0, 51, 41
1, 69284, Control_c, 0, 64, 0
1, 69290, Note_on_c, 0, 40, 34
1, 69877, Note_off_c, 0, 51, 58
1, 69886, Note_off_c, 0, 40, 48
1, 69904, Note_on_c, 0, 64, 50
1, 69906, Note_on_c, 0, 59, 42
1, 69909, Note_on_c, 0, 55, 42
1, 70168, Note_off_c, 0, 55, 62
1, 70171, Note_off_c, 0, 64, 62
1, 70171, Note_off_c, 0, 59, 57
1, 70204, Note_on_c, 0, 40, 52
1, 70205, Note_on_c, 0, 50, 55
1, 70484, Control_c, 0, 64, 41
1, 70491, Note_on_c, 0, 64, 73
1, 70495, Note_on_c, 0, 59, 72
1, 70498, Note_on_c, 0, 55, 63
1, 70499, Control_c, 0, 64, 59
1, 70514, Control_c, 0, 64, 66
1, 70524, Note_off_c, 0, 59, 68
1, 70529, Control_c, 0, 64, 77
1, 70530, Note_off_c, 0, 55, 66
1, 70537, Note_off_c, 0, 64, 64
1, 70545, Control_c, 0, 64, 127
1, 70761, Note_off_c, 0, 40, 58
1, 70765, Note_off_c, 0, 50, 58
1, 70770, Note_on_c, 0, 76, 91
1, 70816, Note_off_c, 0, 76, 67
1, 70837, Note_on_c, 0, 64, 78
1, 70875, Note_off_c, 0, 64, 66
1, 70917, Note_on_c, 0, 63, 84
1, 70968, Control_c, 0, 64, 113
1, 70982, Control_c, 0, 64, 69
1, 70984, Note_off_c, 0, 63, 60
1, 70992, Note_on_c, 0, 65, 52
1, 70993, Note_on_c, 0, 64, 53
1, 70997, Control_c, 0, 64, 0
1, 71034, Note_on_c, 0, 61, 92
1, 71035, Note_on_c, 0, 49, 98
1, 71042, Note_on_c, 0, 56, 87
1, 71046, Note_on_c, 0, 37, 70
1, 71069, Note_off_c, 0, 37, 64
1, 71071, Control_c, 0, 64, 48
1, 71072, Note_off_c, 0, 56, 68
1, 71078, Note_off_c, 0, 64, 43
1, 71082, Note_off_c, 0, 49, 67
1, 71084, Note_off_c, 0, 65, 64
1, 71085, Note_off_c, 0, 61, 65
1, 71086, Control_c, 0, 64, 77
1, 71100, Control_c, 0, 64, 127
1, 71320, Note_on_c, 0, 89, 94
1, 71333, Note_on_c, 0, 65, 95
1, 71334, Note_on_c, 0, 56, 90
1, 71334, Note_on_c, 0, 61, 86
1, 71373, Note_off_c, 0, 89, 64
1, 71384, Note_on_c, 0, 79, 83
1, 71415, Note_off_c, 0, 79, 62
1, 71473, Note_on_c, 0, 70, 93
1, 71528, Note_off_c, 0, 70, 65
1, 71544, Note_on_c, 0, 71, 83
1, 71585, Note_off_c, 0, 71, 61
1, 71617, Note_on_c, 0, 72, 99
1, 71657, Note_off_c, 0, 72, 68
1, 71911, Note_on_c, 0, 54, 102
1, 71937, Control_c, 0, 64, 99
1, 71952, Control_c, 0, 64, 69
1, 71967, Control_c, 0, 64, 51
1, 71980, Note_off_c, 0, 65, 41
1, 71982, Control_c, 0, 64, 11
1, 71996, Control_c, 0, 64, 23
1, 72011, Control_c, 0, 64, 36
1, 72026, Control_c, 0, 64, 45
1, 72035, Note_off_c, 0, 61, 36
1, 72041, Control_c, 0, 64, 53
1, 72044, Note_off_c, 0, 56, 54
1, 72056, Control_c, 0, 64, 58
1, 72071, Control_c, 0, 64, 61
1, 72086, Control_c, 0, 64, 64
1, 72101, Control_c, 0, 64, 66
1, 72116, Control_c, 0, 64, 69
1, 72130, Control_c, 0, 64, 75
1, 72145, Control_c, 0, 64, 85
1, 72160, Control_c, 0, 64, 100
1, 72175, Control_c, 0, 64, 127
1, 72211, Note_on_c, 0, 61, 65
1, 72216, Note_on_c, 0, 57, 66
1, 72219, Note_off_c, 0, 54, 55
1, 72220, Note_on_c, 0, 64, 72
1, 72304, Note_off_c, 0, 57, 60
1, 72332, Note_off_c, 0, 61, 57
1, 72464, Control_c, 0, 64, 106
1, 72479, Control_c, 0, 64, 80
1, 72494, Control_c, 0, 64, 66
1, 72503, Note_on_c, 0, 61, 53
1, 72503, Note_off_c, 0, 64, 48
1, 72508, Note_on_c, 0, 58, 52
1, 72509, Control_c, 0, 64, 53
1, 72511, Note_on_c, 0, 63, 58
1, 72518, Note_on_c, 0, 66, 80
1, 72524, Control_c, 0, 64, 40
1, 72539, Control_c, 0, 64, 38
1, 72553, Control_c, 0, 64, 39
1, 72568, Control_c, 0, 64, 44
1, 72583, Control_c, 0, 64, 51
1, 72598, Control_c, 0, 64, 56
1, 72613, Control_c, 0, 64, 61
1, 72627, Control_c, 0, 64, 64
1, 72642, Control_c, 0, 64, 67
1, 72657, Control_c, 0, 64, 70
1, 72671, Control_c, 0, 64, 77
1, 72686, Control_c, 0, 64, 89
1, 72701, Control_c, 0, 64, 127
1, 72754, Note_off_c, 0, 58, 36
1, 72754, Note_off_c, 0, 66, 62
1, 72802, Note_off_c, 0, 63, 20
1, 72825, Note_off_c, 0, 61, 38
1, 72826, Note_on_c, 0, 52, 76
1, 72998, Control_c, 0, 64, 90
1, 73013, Control_c, 0, 64, 74
1, 73027, Control_c, 0, 64, 65
1, 73042, Control_c, 0, 64, 59
1, 73055, Note_off_c, 0, 52, 54
1, 73057, Control_c, 0, 64, 57
1, 73071, Control_c, 0, 64, 60
1, 73086, Control_c, 0, 64, 62
1, 73108, Control_c, 0, 64, 65
1, 73123, Control_c, 0, 64, 71
1, 73127, Note_on_c, 0, 59, 59
1, 73138, Note_on_c, 0, 55, 50
1, 73138, Control_c, 0, 64, 81
1, 73141, Note_on_c, 0, 64, 57
1, 73154, Control_c, 0, 64, 110
1, 73162, Note_off_c, 0, 64, 62
1, 73165, Note_off_c, 0, 59, 66
1, 73169, Control_c, 0, 64, 127
1, 73174, Note_off_c, 0, 55, 64
1, 73402, Note_on_c, 0, 59, 64
1, 73402, Note_on_c, 0, 76, 76
1, 73406, Control_c, 0, 64, 119
1, 73421, Control_c, 0, 64, 76
1, 73431, Note_off_c, 0, 59, 65
1, 73436, Control_c, 0, 64, 53
1, 73439, Note_off_c, 0, 76, 65
1, 73451, Control_c, 0, 64, 0
1, 73460, Note_on_c, 0, 47, 62
1, 73476, Note_on_c, 0, 64, 61
1, 73502, Note_off_c, 0, 47, 61
1, 73508, Note_off_c, 0, 64, 65
1, 73541, Note_on_c, 0, 63, 69
1, 73545, Note_on_c, 0, 46, 40
1, 73568, Note_off_c, 0, 63, 67
1, 73575, Note_off_c, 0, 46, 55
1, 73603, Note_on_c, 0, 64, 57
1, 73604, Note_on_c, 0, 47, 59
1, 73639, Note_off_c, 0, 47, 63
1, 73669, Note_off_c, 0, 64, 65
1, 73679, Note_on_c, 0, 37, 63
1, 73687, Note_on_c, 0, 54, 73
1, 73712, Note_off_c, 0, 37, 63
1, 73717, Note_off_c, 0, 54, 66
1, 74022, Control_c, 0, 67, 13
1, 74037, Control_c, 0, 67, 43
1, 74052, Control_c, 0, 67, 85
1, 74067, Control_c, 0, 67, 127
1, 74115, Note_on_c, 0, 55, 50
1, 74119, Note_on_c, 0, 59, 39
1, 74121, Note_on_c, 0, 64, 50
1, 74556, Control_c, 0, 64, 26
1, 74571, Control_c, 0, 64, 36
1, 74586, Control_c, 0, 64, 44
1, 74608, Control_c, 0, 64, 52
1, 74623, Control_c, 0, 64, 59
1, 74638, Control_c, 0, 64, 63
1, 74652, Control_c, 0, 64, 65
1, 74667, Control_c, 0, 64, 67
1, 74682, Control_c, 0, 64, 71
1, 74697, Control_c, 0, 64, 77
1, 74712, Control_c, 0, 64, 85
1, 74722, Note_off_c, 0, 55, 32
1, 74726, Control_c, 0, 64, 91
1, 74741, Control_c, 0, 64, 93
1, 74757, Control_c, 0, 64, 94
1, 74772, Control_c, 0, 64, 96
1, 74787, Control_c, 0, 64, 103
1, 74793, Note_off_c, 0, 59, 38
1, 74801, Control_c, 0, 64, 127
1, 74814, Note_off_c, 0, 64, 57
1, 75114, Note_on_c, 0, 59, 49
1, 75122, Note_on_c, 0, 76, 76
1, 75146, Note_off_c, 0, 59, 64
1, 75151, Note_off_c, 0, 76, 66
1, 75174, Note_on_c, 0, 47, 57
1, 75186, Control_c, 0, 64, 105
1, 75191, Note_on_c, 0, 64, 64
1, 75201, Control_c, 0, 64, 88
1, 75215, Control_c, 0, 64, 74
1, 75219, Note_off_c, 0, 64, 67
1, 75221, Note_off_c, 0, 47, 59
1, 75230, Control_c, 0, 64, 63
1, 75242, Note_on_c, 0, 46, 57
1, 75245, Control_c, 0, 64, 38
1, 75258, Note_on_c, 0, 63, 71
1, 75260, Control_c, 0, 64, 0
1, 75275, Note_off_c, 0, 46, 65
1, 75286, Note_off_c, 0, 63, 64
1, 75316, Note_on_c, 0, 47, 64
1, 75323, Note_on_c, 0, 64, 60
1, 75359, Note_off_c, 0, 47, 66
1, 75383, Note_off_c, 0, 64, 65
1, 75397, Note_on_c, 0, 37, 61
1, 75408, Note_on_c, 0, 54, 66
1, 75427, Note_off_c, 0, 37, 61
1, 75435, Note_off_c, 0, 54, 64
1, 75818, Note_on_c, 0, 64, 50
1, 75821, Note_on_c, 0, 55, 42
1, 75824, Note_on_c, 0, 59, 37
1, 77068, Note_on_c, 0, 49, 56
1, 77076, Note_on_c, 0, 37, 49
1, 77100, Note_off_c, 0, 49, 65
1, 77110, Note_off_c, 0, 37, 62
1, 77408, Note_on_c, 0, 42, 45
1, 77410, Note_on_c, 0, 30, 41
1, 77440, Note_off_c, 0, 42, 62
1, 77446, Note_off_c, 0, 30, 54
1, 77926, Note_off_c, 0, 55, 28
1, 77958, Note_off_c, 0, 59, 32
1, 77967, Note_off_c, 0, 64, 57
1, 78095, Note_on_c, 0, 64, 55
1, 78098, Note_on_c, 0, 55, 40
1, 78118, Note_on_c, 0, 59, 33
1, 78574, Control_c, 0, 64, 11
1, 78589, Control_c, 0, 64, 17
1, 78604, Control_c, 0, 64, 23
1, 78619, Control_c, 0, 64, 29
1, 78634, Control_c, 0, 64, 34
1, 78648, Control_c, 0, 64, 39
1, 78663, Control_c, 0, 64, 45
1, 78678, Control_c, 0, 64, 49
1, 78692, Control_c, 0, 64, 53
1, 78707, Control_c, 0, 64, 56
1, 78708, Note_off_c, 0, 55, 39
1, 78711, Note_on_c, 0, 49, 25
1, 78717, Note_off_c, 0, 59, 54
1, 78722, Control_c, 0, 64, 59
1, 78724, Note_off_c, 0, 64, 58
1, 78738, Control_c, 0, 64, 62
1, 78753, Control_c, 0, 64, 65
1, 78758, Note_off_c, 0, 49, 50
1, 78768, Control_c, 0, 64, 69
1, 78783, Control_c, 0, 64, 74
1, 78797, Control_c, 0, 64, 83
1, 78799, Note_on_c, 0, 37, 49
1, 78812, Control_c, 0, 64, 94
1, 78827, Control_c, 0, 64, 107
1, 78842, Control_c, 0, 64, 127
1, 78844, Note_off_c, 0, 37, 59
1, 78937, Note_on_c, 0, 42, 54
1, 78972, Note_off_c, 0, 42, 63
1, 79053, Note_on_c, 0, 30, 48
1, 79106, Note_off_c, 0, 30, 60
1, 79190, Control_c, 0, 64, 114
1, 79204, Control_c, 0, 64, 90
1, 79219, Control_c, 0, 64, 72
1, 79234, Control_c, 0, 64, 61
1, 79249, Control_c, 0, 64, 45
1, 79264, Control_c, 0, 64, 38
1, 79268, Note_on_c, 0, 28, 33
1, 79274, Note_on_c, 0, 52, 47
1, 79279, Control_c, 0, 64, 41
1, 79280, Note_on_c, 0, 43, 40
1, 79285, Note_on_c, 0, 35, 16
1, 79294, Control_c, 0, 64, 46
1, 79309, Control_c, 0, 64, 52
1, 79323, Control_c, 0, 64, 57
1, 79338, Control_c, 0, 64, 60
1, 79353, Control_c, 0, 64, 63
1, 79368, Control_c, 0, 64, 66
1, 79383, Control_c, 0, 64, 71
1, 79397, Control_c, 0, 64, 83
1, 79412, Control_c, 0, 64, 127
1, 79453, Note_off_c, 0, 52, 51
1, 79462, Note_off_c, 0, 35, 39
1, 79484, Note_off_c, 0, 28, 36
1, 79517, Note_off_c, 0, 43, 36
1, 79768, Control_c, 0, 64, 113
1, 79783, Control_c, 0, 64, 104
1, 79797, Control_c, 0, 64, 99
1, 79812, Control_c, 0, 64, 96
1, 79827, Control_c, 0, 64, 94
1, 79849, Control_c, 0, 64, 93
1, 79864, Control_c, 0, 64, 91
1, 79879, Control_c, 0, 64, 87
1, 79893, Control_c, 0, 64, 84
1, 79908, Control_c, 0, 64, 81
1, 79923, Control_c, 0, 64, 78
1, 79938, Control_c, 0, 64, 75
1, 79952, Control_c, 0, 64, 72
1, 79967, Control_c, 0, 64, 69
1, 79982, Control_c, 0, 64, 68
1, 79997, Control_c, 0, 64, 66
1, 80012, Control_c, 0, 64, 65
1, 80027, Control_c, 0, 64, 64
1, 80042, Control_c, 0, 64, 63
1, 80057, Control_c, 0, 64, 62
1, 80072, Control_c, 0, 64, 61
1, 80087, Control_c, 0, 64, 60
1, 80101, Control_c, 0, 64, 60
1, 80116, Control_c, 0, 64, 58
1, 80131, Control_c, 0, 64, 56
1, 80145, Control_c, 0, 64, 52
1, 80160, Control_c, 0, 64, 49
1, 80175, Control_c, 0, 64, 47
1, 80190, Control_c, 0, 64, 43
1, 80205, Control_c, 0, 64, 39
1, 80219, Control_c, 0, 64, 33
1, 80234, Control_c, 0, 64, 26
1, 80249, Control_c, 0, 64, 23
1, 80263, Control_c, 0, 64, 21
1, 80278, Control_c, 0, 64, 21
1, 80293, Control_c, 0, 64, 19
1, 80308, Control_c, 0, 64, 17
1, 80323, Control_c, 0, 64, 13
1, 80339, Control_c, 0, 64, 12
1, 80368, Control_c, 0, 64, 11
1, 80516, Control_c, 0, 64, 12
1, 80531, Control_c, 0, 64, 15
1, 80546, Control_c, 0, 64, 17
1, 80561, Control_c, 0, 64, 19
1, 80575, Control_c, 0, 64, 22
1, 80598, Control_c, 0, 64, 25
1, 80613, Control_c, 0, 64, 29
1, 80628, Control_c, 0, 64, 33
1, 80642, Control_c, 0, 64, 37
1, 80657, Control_c, 0, 64, 40
1, 80672, Control_c, 0, 64, 44
1, 80687, Control_c, 0, 64, 47
1, 80702, Control_c, 0, 64, 49
1, 80716, Control_c, 0, 64, 52
1, 80731, Control_c, 0, 64, 54
1, 80746, Control_c, 0, 64, 56
1, 80760, Control_c, 0, 64, 58
1, 80775, Control_c, 0, 64, 59
1, 80790, Control_c, 0, 64, 61
1, 80805, Control_c, 0, 64, 62
1, 80820, Control_c, 0, 64, 63
1, 80835, Control_c, 0, 64, 65
1, 80835, Control_c, 0, 67, 122
1, 80850, Control_c, 0, 64, 66
1, 80850, Control_c, 0, 67, 115
1, 80865, Control_c, 0, 64, 69
1, 80865, Control_c, 0, 67, 107
1, 80880, Control_c, 0, 64, 72
1, 80880, Control_c, 0, 67, 99
1, 80894, Control_c, 0, 64, 78
1, 80894, Control_c, 0, 67, 92
1, 80909, Control_c, 0, 64, 85
1, 80909, Control_c, 0, 67, 85
1, 80924, Control_c, 0, 64, 93
1, 80924, Control_c, 0, 67, 80
1, 80939, Control_c, 0, 64, 102
1, 80939, Control_c, 0, 67, 74
1, 80954, Control_c, 0, 64, 127
1, 80954, Control_c, 0, 67, 70
1, 80968, Control_c, 0, 67, 66
1, 80983, Control_c, 0, 67, 63
1, 80998, Control_c, 0, 67, 61
1, 81013, Control_c, 0, 67, 60
1, 81027, Control_c, 0, 67, 58
1, 81041, Control_c, 0, 67, 55
1, 81056, Control_c, 0, 67, 51
1, 81071, Control_c, 0, 67, 48
1, 81085, Control_c, 0, 67, 46
1, 81100, Control_c, 0, 67, 45
1, 81130, Control_c, 0, 67, 44
1, 81346, Control_c, 0, 67, 43
1, 81435, Control_c, 0, 67, 43
1, 81476, Note_on_c, 0, 60, 32
1, 81480, Note_on_c, 0, 70, 34
1, 81483, Note_on_c, 0, 76, 69
1, 81484, Note_on_c, 0, 64, 40
1, 81603, Note_off_c, 0, 64, 57
1, 81613, Control_c, 0, 67, 42
1, 81634, Note_off_c, 0, 60, 34
1, 81646, Note_off_c, 0, 70, 42
1, 81769, Note_on_c, 0, 60, 38
1, 81771, Note_on_c, 0, 70, 49
1, 81807, Note_on_c, 0, 64, 36
1, 81838, Note_off_c, 0, 60, 54
1, 81846, Note_off_c, 0, 70, 52
1, 81847, Note_off_c, 0, 64, 50
1, 81850, Control_c, 0, 67, 41
1, 81923, Control_c, 0, 67, 41
1, 81964, Note_on_c, 0, 64, 40
1, 81982, Note_on_c, 0, 60, 35
1, 81988, Note_on_c, 0, 70, 36
1, 82014, Note_off_c, 0, 64, 58
1, 82017, Note_off_c, 0, 60, 54
1, 82020, Note_off_c, 0, 70, 52
1, 82142, Note_on_c, 0, 70, 43
1, 82146, Note_on_c, 0, 60, 43
1, 82154, Note_on_c, 0, 64, 42
1, 82194, Note_off_c, 0, 70, 56
1, 82197, Note_off_c, 0, 60, 57
1, 82201, Note_off_c, 0, 64, 59
1, 82309, Note_on_c, 0, 75, 72
1, 82320, Note_on_c, 0, 70, 48
1, 82325, Note_on_c, 0, 64, 45
1, 82331, Note_on_c, 0, 60, 38
1, 82376, Note_off_c, 0, 70, 56
1, 82376, Note_off_c, 0, 76, 55
1, 82381, Note_off_c, 0, 64, 55
1, 82382, Note_off_c, 0, 60, 55
1, 82451, Control_c, 0, 67, 41
1, 82480, Control_c, 0, 67, 42
1, 82489, Note_on_c, 0, 70, 62
1, 82498, Note_on_c, 0, 64, 58
1, 82504, Note_off_c, 0, 75, 54
1, 82511, Note_on_c, 0, 60, 45
1, 82525, Control_c, 0, 67, 43
1, 82532, Note_off_c, 0, 64, 64
1, 82551, Note_off_c, 0, 70, 55
1, 82552, Note_off_c, 0, 60, 61
1, 82555, Control_c, 0, 67, 43
1, 82614, Control_c, 0, 67, 44
1, 82644, Control_c, 0, 64, 98
1, 82644, Control_c, 0, 67, 45
1, 82659, Control_c, 0, 64, 76
1, 82661, Note_on_c, 0, 72, 77
1, 82671, Note_on_c, 0, 60, 40
1, 82674, Control_c, 0, 64, 63
1, 82679, Note_on_c, 0, 69, 51
1, 82686, Note_on_c, 0, 63, 42
1, 82688, Control_c, 0, 64, 49
1, 82703, Control_c, 0, 64, 47
1, 82718, Control_c, 0, 64, 53
1, 82734, Control_c, 0, 64, 57
1, 82748, Note_off_c, 0, 63, 55
1, 82749, Control_c, 0, 64, 62
1, 82755, Note_off_c, 0, 60, 57
1, 82763, Control_c, 0, 64, 65
1, 82772, Note_off_c, 0, 69, 50
1, 82778, Control_c, 0, 64, 68
1, 82793, Control_c, 0, 64, 72
1, 82808, Control_c, 0, 64, 82
1, 82823, Control_c, 0, 64, 106
1, 82844, Note_on_c, 0, 69, 33
1, 82844, Control_c, 0, 64, 127
1, 82862, Note_on_c, 0, 60, 33
1, 82868, Note_on_c, 0, 63, 42
1, 82911, Note_off_c, 0, 63, 59
1, 82912, Note_off_c, 0, 60, 58
1, 82933, Note_off_c, 0, 69, 54
1, 83037, Note_on_c, 0, 63, 38
1, 83038, Note_on_c, 0, 69, 44
1, 83044, Note_on_c, 0, 60, 42
1, 83089, Note_off_c, 0, 60, 57
1, 83091, Note_off_c, 0, 63, 56
1, 83095, Note_off_c, 0, 69, 57
1, 83217, Note_on_c, 0, 63, 42
1, 83217, Note_on_c, 0, 69, 49
1, 83218, Note_on_c, 0, 60, 41
1, 83264, Note_off_c, 0, 60, 57
1, 83265, Note_off_c, 0, 63, 58
1, 83267, Note_off_c, 0, 69, 57
1, 83359, Note_on_c, 0, 74, 73
1, 83389, Note_on_c, 0, 60, 38
1, 83389, Note_on_c, 0, 63, 45
1, 83395, Note_on_c, 0, 69, 47
1, 83401, Note_off_c, 0, 72, 58
1, 83442, Note_off_c, 0, 69, 60
1, 83443, Note_off_c, 0, 60, 55
1, 83452, Note_off_c, 0, 63, 54
1, 83547, Note_on_c, 0, 69, 66
1, 83563, Note_on_c, 0, 63, 60
1, 83591, Note_off_c, 0, 69, 63
1, 83608, Note_off_c, 0, 63, 59
1, 83622, Poly_aftertouch_c, 0, 60, 127
1, 83652, Poly_aftertouch_c, 0, 60, 0
1, 83675, Note_off_c, 0, 74, 63
1, 83682, Control_c, 0, 64, 105
1, 83697, Control_c, 0, 64, 83
1, 83697, Control_c, 0, 67, 45
1, 83712, Control_c, 0, 64, 71
1, 83727, Control_c, 0, 64, 62
1, 83733, Note_on_c, 0, 60, 30
1, 83736, Note_on_c, 0, 68, 47
1, 83738, Note_on_c, 0, 71, 69
1, 83741, Note_on_c, 0, 62, 44
1, 83741, Control_c, 0, 64, 53
1, 83771, Control_c, 0, 64, 57
1, 83786, Control_c, 0, 64, 62
1, 83801, Control_c, 0, 64, 64
1, 83816, Control_c, 0, 64, 67
1, 83816, Control_c, 0, 67, 46
1, 83831, Control_c, 0, 64, 71
1, 83846, Control_c, 0, 64, 76
1, 83854, Note_off_c, 0, 62, 57
1, 83860, Control_c, 0, 64, 82
1, 83860, Note_off_c, 0, 60, 36
1, 83875, Control_c, 0, 64, 93
1, 83876, Note_off_c, 0, 68, 34
1, 83890, Control_c, 0, 64, 113
1, 83905, Control_c, 0, 64, 127
1, 83920, Control_c, 0, 67, 46
1, 83950, Note_on_c, 0, 68, 40
1, 83956, Note_on_c, 0, 62, 39
1, 83967, Note_on_c, 0, 60, 37
1, 83978, Control_c, 0, 67, 47
1, 84009, Note_off_c, 0, 60, 58
1, 84012, Note_off_c, 0, 68, 54
1, 84015, Note_off_c, 0, 62, 57
1, 84126, Control_c, 0, 67, 48
1, 84132, Note_on_c, 0, 60, 40
1, 84146, Note_on_c, 0, 68, 48
1, 84156, Note_on_c, 0, 62, 46
1, 84195, Note_off_c, 0, 60, 56
1, 84202, Note_off_c, 0, 62, 59
1, 84202, Note_off_c, 0, 68, 54
1, 84314, Note_on_c, 0, 72, 64
1, 84317, Note_on_c, 0, 60, 38
1, 84319, Note_on_c, 0, 68, 34
1, 84337, Note_off_c, 0, 71, 51
1, 84341, Note_on_c, 0, 62, 43
1, 84379, Note_off_c, 0, 60, 55
1, 84382, Note_off_c, 0, 68, 50
1, 84388, Note_off_c, 0, 62, 58
1, 84486, Note_off_c, 0, 72, 59
1, 84507, Note_on_c, 0, 60, 45
1, 84509, Note_on_c, 0, 71, 69
1, 84514, Note_on_c, 0, 62, 49
1, 84519, Note_on_c, 0, 68, 44
1, 84557, Note_off_c, 0, 60, 56
1, 84562, Note_off_c, 0, 68, 54
1, 84567, Note_off_c, 0, 62, 58
1, 84660, Note_on_c, 0, 72, 80
1, 84666, Note_off_c, 0, 71, 54
1, 84677, Note_on_c, 0, 60, 44
1, 84679, Note_on_c, 0, 68, 46
1, 84686, Note_on_c, 0, 62, 47
1, 84719, Note_off_c, 0, 68, 54
1, 84721, Note_off_c, 0, 60, 53
1, 84728, Note_off_c, 0, 62, 60
1, 84772, Control_c, 0, 64, 110
1, 84787, Control_c, 0, 64, 90
1, 84802, Control_c, 0, 64, 73
1, 84808, Note_off_c, 0, 72, 62
1, 84814, Note_on_c, 0, 71, 74
1, 84816, Control_c, 0, 64, 64
1, 84829, Note_on_c, 0, 68, 46
1, 84831, Control_c, 0, 64, 54
1, 84839, Note_on_c, 0, 62, 41
1, 84841, Note_on_c, 0, 60, 36
1, 84846, Control_c, 0, 64, 52
1, 84861, Control_c, 0, 64, 56
1, 84875, Control_c, 0, 64, 60
1, 84890, Control_c, 0, 64, 64
1, 84891, Note_off_c, 0, 60, 57
1, 84900, Note_off_c, 0, 62, 57
1, 84905, Control_c, 0, 64, 67
1, 84907, Note_off_c, 0, 68, 48
1, 84920, Control_c, 0, 64, 71
1, 84934, Control_c, 0, 64, 77
1, 84949, Control_c, 0, 64, 83
1, 84964, Control_c, 0, 64, 94
1, 84979, Control_c, 0, 64, 121
1, 84981, Note_on_c, 0, 60, 40
1, 84984, Note_on_c, 0, 68, 18
1, 84994, Control_c, 0, 64, 127
1, 84995, Note_on_c, 0, 62, 36
1, 85009, Note_on_c, 0, 72, 53
1, 85050, Note_off_c, 0, 60, 57
1, 85059, Note_off_c, 0, 62, 55
1, 85089, Note_off_c, 0, 68, 37
1, 85169, Note_on_c, 0, 68, 34
1, 85171, Note_off_c, 0, 72, 59
1, 85176, Note_on_c, 0, 60, 37
1, 85181, Note_on_c, 0, 62, 36
1, 85184, Note_on_c, 0, 74, 56
1, 85222, Note_off_c, 0, 60, 57
1, 85229, Note_off_c, 0, 62, 58
1, 85236, Note_off_c, 0, 68, 53
1, 85332, Note_off_c, 0, 74, 58
1, 85333, Note_on_c, 0, 76, 63
1, 85334, Note_on_c, 0, 68, 35
1, 85339, Note_on_c, 0, 72, 64
1, 85342, Note_off_c, 0, 71, 57
1, 85350, Note_on_c, 0, 60, 39
1, 85362, Note_on_c, 0, 62, 39
1, 85393, Note_off_c, 0, 60, 56
1, 85407, Note_off_c, 0, 68, 53
1, 85408, Note_off_c, 0, 62, 58
1, 85484, Note_off_c, 0, 76, 60
1, 85493, Note_on_c, 0, 71, 78
1, 85493, Note_off_c, 0, 72, 64
1, 85500, Note_on_c, 0, 77, 71
1, 85503, Note_on_c, 0, 68, 48
1, 85504, Note_on_c, 0, 60, 51
1, 85528, Note_on_c, 0, 62, 48
1, 85568, Note_off_c, 0, 77, 63
1, 85569, Note_off_c, 0, 60, 52
1, 85577, Note_off_c, 0, 62, 57
1, 85582, Note_off_c, 0, 68, 53
1, 85639, Control_c, 0, 67, 47
1, 85646, Note_off_c, 0, 71, 60
1, 85655, Note_on_c, 0, 72, 79
1, 85663, Note_on_c, 0, 79, 77
1, 85678, Note_on_c, 0, 68, 50
1, 85686, Note_on_c, 0, 60, 46
1, 85700, Note_on_c, 0, 62, 50
1, 85734, Note_off_c, 0, 60, 57
1, 85735, Note_off_c, 0, 72, 62
1, 85744, Note_off_c, 0, 62, 60
1, 85749, Note_off_c, 0, 68, 53
1, 85772, Control_c, 0, 64, 98
1, 85787, Control_c, 0, 64, 79
1, 85787, Control_c, 0, 67, 48
1, 85802, Control_c, 0, 64, 67
1, 85817, Control_c, 0, 64, 58
1, 85834, Note_on_c, 0, 80, 79
1, 85837, Note_on_c, 0, 68, 43
1, 85839, Control_c, 0, 64, 49
1, 85840, Note_on_c, 0, 71, 74
1, 85841, Note_off_c, 0, 79, 60
1, 85854, Control_c, 0, 64, 51
1, 85862, Note_on_c, 0, 60, 43
1, 85869, Control_c, 0, 64, 56
1, 85872, Note_on_c, 0, 62, 45
1, 85884, Control_c, 0, 64, 59
1, 85899, Control_c, 0, 64, 63
1, 85913, Control_c, 0, 64, 66
1, 85926, Note_off_c, 0, 60, 52
1, 85929, Control_c, 0, 64, 72
1, 85932, Note_off_c, 0, 62, 53
1, 85944, Control_c, 0, 64, 78
1, 85949, Note_off_c, 0, 68, 54
1, 85959, Control_c, 0, 64, 87
1, 85974, Control_c, 0, 64, 97
1, 85988, Control_c, 0, 64, 109
1, 86003, Control_c, 0, 64, 127
1, 86028, Note_on_c, 0, 68, 42
1, 86031, Note_on_c, 0, 79, 47
1, 86036, Note_on_c, 0, 60, 40
1, 86041, Note_off_c, 0, 80, 65
1, 86051, Note_on_c, 0, 62, 42
1, 86111, Note_off_c, 0, 60, 55
1, 86127, Note_off_c, 0, 62, 53
1, 86134, Note_off_c, 0, 68, 49
1, 86174, Note_on_c, 0, 76, 60
1, 86206, Note_off_c, 0, 71, 55
1, 86211, Note_on_c, 0, 68, 42
1, 86232, Note_on_c, 0, 62, 33
1, 86238, Note_on_c, 0, 60, 39
1, 86283, Note_off_c, 0, 60, 57
1, 86297, Note_off_c, 0, 62, 55
1, 86303, Note_off_c, 0, 68, 51
1, 86333, Note_on_c, 0, 72, 69
1, 86338, Note_on_c, 0, 77, 73
1, 86367, Note_off_c, 0, 76, 59
1, 86368, Note_off_c, 0, 79, 49
1, 86370, Note_on_c, 0, 68, 35
1, 86394, Note_on_c, 0, 62, 36
1, 86409, Note_on_c, 0, 60, 38
1, 86418, Note_off_c, 0, 72, 62
1, 86447, Control_c, 0, 67, 47
1, 86449, Note_off_c, 0, 60, 50
1, 86454, Note_off_c, 0, 62, 54
1, 86459, Note_off_c, 0, 68, 49
1, 86519, Note_on_c, 0, 79, 77
1, 86523, Note_on_c, 0, 71, 76
1, 86534, Note_on_c, 0, 68, 47
1, 86542, Note_off_c, 0, 77, 56
1, 86551, Note_on_c, 0, 62, 43
1, 86561, Note_on_c, 0, 60, 44
1, 86606, Note_off_c, 0, 60, 59
1, 86617, Note_off_c, 0, 71, 58
1, 86628, Note_off_c, 0, 62, 56
1, 86628, Note_off_c, 0, 68, 52
1, 86709, Note_on_c, 0, 80, 78
1, 86713, Note_on_c, 0, 68, 52
1, 86719, Note_on_c, 0, 72, 70
1, 86722, Note_on_c, 0, 60, 44
1, 86725, Note_off_c, 0, 79, 57
1, 86734, Note_on_c, 0, 62, 45
1, 86772, Note_off_c, 0, 60, 54
1, 86789, Note_off_c, 0, 62, 55
1, 86800, Note_off_c, 0, 68, 58
1, 86806, Note_off_c, 0, 72, 62
1, 86812, Note_off_c, 0, 80, 58
1, 86885, Control_c, 0, 67, 48
1, 86900, Control_c, 0, 64, 99
1, 86915, Control_c, 0, 64, 79
1, 86920, Note_on_c, 0, 67, 52
1, 86922, Note_on_c, 0, 60, 43
1, 86927, Note_on_c, 0, 81, 63
1, 86928, Note_on_c, 0, 62, 46
1, 86929, Control_c, 0, 64, 67
1, 86933, Note_on_c, 0, 71, 57
1, 86944, Control_c, 0, 64, 59
1, 86974, Control_c, 0, 64, 62
1, 86989, Control_c, 0, 64, 65
1, 87003, Control_c, 0, 64, 68
1, 87018, Control_c, 0, 64, 73
1, 87033, Control_c, 0, 64, 82
1, 87048, Control_c, 0, 64, 94
1, 87057, Note_off_c, 0, 60, 31
1, 87063, Control_c, 0, 64, 107
1, 87064, Note_off_c, 0, 67, 37
1, 87065, Note_off_c, 0, 62, 35
1, 87077, Control_c, 0, 64, 127
1, 87152, Note_on_c, 0, 67, 41
1, 87163, Note_off_c, 0, 81, 52
1, 87171, Note_on_c, 0, 62, 32
1, 87175, Note_on_c, 0, 79, 59
1, 87176, Note_on_c, 0, 60, 37
1, 87219, Note_off_c, 0, 60, 57
1, 87229, Note_off_c, 0, 62, 54
1, 87235, Note_off_c, 0, 67, 56
1, 87348, Note_on_c, 0, 77, 65
1, 87351, Note_on_c, 0, 67, 46
1, 87362, Note_on_c, 0, 60, 34
1, 87367, Note_on_c, 0, 62, 39
1, 87400, Note_off_c, 0, 71, 45
1, 87407, Note_off_c, 0, 67, 55
1, 87408, Note_off_c, 0, 60, 48
1, 87408, Note_off_c, 0, 62, 59
1, 87423, Note_off_c, 0, 79, 43
1, 87506, Note_on_c, 0, 67, 46
1, 87509, Note_on_c, 0, 72, 59
1, 87511, Note_on_c, 0, 76, 65
1, 87533, Note_on_c, 0, 62, 42
1, 87548, Note_off_c, 0, 77, 24
1, 87552, Note_off_c, 0, 67, 60
1, 87553, Note_off_c, 0, 72, 58
1, 87572, Note_off_c, 0, 62, 58
1, 87597, Poly_aftertouch_c, 0, 60, 0
1, 87624, Poly_aftertouch_c, 0, 60, 0
1, 87665, Note_on_c, 0, 77, 77
1, 87666, Note_off_c, 0, 76, 63
1, 87675, Note_on_c, 0, 74, 67
1, 87676, Note_on_c, 0, 62, 53
1, 87679, Note_on_c, 0, 69, 52
1, 87691, Note_on_c, 0, 60, 20
1, 87724, Note_off_c, 0, 69, 60
1, 87744, Note_off_c, 0, 60, 45
1, 87750, Note_off_c, 0, 62, 52
1, 87778, Note_off_c, 0, 74, 55
1, 87836, Note_on_c, 0, 69, 54
1, 87838, Note_on_c, 0, 75, 74
1, 87838, Note_on_c, 0, 79, 77
1, 87841, Control_c, 0, 64, 121
1, 87843, Note_off_c, 0, 77, 57
1, 87856, Control_c, 0, 67, 48
1, 87858, Note_on_c, 0, 63, 50
1, 87873, Note_off_c, 0, 69, 62
1, 87881, Note_on_c, 0, 60, 3
1, 87886, Control_c, 0, 64, 123
1, 87886, Control_c, 0, 67, 49
1, 87896, Note_off_c, 0, 63, 63
1, 87900, Control_c, 0, 67, 50
1, 87920, Note_off_c, 0, 75, 62
1, 87921, Note_off_c, 0, 60, 48
1, 87930, Control_c, 0, 64, 116
1, 87930, Control_c, 0, 67, 50
1, 87944, Control_c, 0, 64, 104
1, 87944, Control_c, 0, 67, 51
1, 87959, Control_c, 0, 64, 87
1, 87959, Control_c, 0, 67, 53
1, 87974, Control_c, 0, 64, 68
1, 87974, Control_c, 0, 67, 54
1, 87989, Control_c, 0, 64, 49
1, 87989, Control_c, 0, 67, 55
1, 88002, Note_on_c, 0, 60, 41
1, 88004, Control_c, 0, 64, 0
1, 88004, Control_c, 0, 67, 57
1, 88019, Control_c, 0, 67, 58
1, 88023, Note_on_c, 0, 70, 50
1, 88026, Note_on_c, 0, 64, 46
1, 88034, Control_c, 0, 67, 58
1, 88049, Note_on_c, 0, 76, 60
1, 88049, Control_c, 0, 67, 59
1, 88107, Note_off_c, 0, 79, 53
1, 88115, Control_c, 0, 67, 58
1, 88128, Note_off_c, 0, 60, 56
1, 88130, Control_c, 0, 64, 16
1, 88130, Control_c, 0, 67, 58
1, 88131, Note_off_c, 0, 70, 58
1, 88137, Note_off_c, 0, 64, 59
1, 88145, Control_c, 0, 64, 45
1, 88145, Control_c, 0, 67, 57
1, 88159, Control_c, 0, 64, 60
1, 88174, Control_c, 0, 64, 64
1, 88174, Control_c, 0, 67, 56
1, 88189, Control_c, 0, 64, 68
1, 88189, Control_c, 0, 67, 56
1, 88204, Control_c, 0, 64, 73
1, 88219, Control_c, 0, 64, 82
1, 88233, Control_c, 0, 64, 95
1, 88246, Note_on_c, 0, 70, 46
1, 88248, Control_c, 0, 64, 127
1, 88254, Note_on_c, 0, 60, 32
1, 88274, Note_on_c, 0, 64, 25
1, 88288, Note_on_c, 0, 79, 54
1, 88293, Control_c, 0, 67, 55
1, 88301, Note_off_c, 0, 70, 55
1, 88305, Note_off_c, 0, 60, 48
1, 88311, Note_off_c, 0, 64, 50
1, 88322, Note_off_c, 0, 79, 66
1, 88335, Note_on_c, 0, 82, 61
1, 88338, Control_c, 0, 67, 55
1, 88370, Note_off_c, 0, 82, 66
1, 88403, Note_on_c, 0, 88, 60
1, 88413, Note_on_c, 0, 70, 38
1, 88435, Note_on_c, 0, 60, 19
1, 88436, Note_on_c, 0, 64, 36
1, 88442, Control_c, 0, 67, 55
1, 88468, Note_off_c, 0, 64, 56
1, 88471, Note_off_c, 0, 70, 55
1, 88475, Note_off_c, 0, 60, 48
1, 88481, Note_off_c, 0, 88, 59
1, 88502, Control_c, 0, 67, 56
1, 88585, Note_on_c, 0, 70, 54
1, 88585, Note_on_c, 0, 64, 40
1, 88594, Note_on_c, 0, 60, 44
1, 88605, Control_c, 0, 67, 56
1, 88639, Note_off_c, 0, 64, 58
1, 88640, Note_off_c, 0, 60, 57
1, 88648, Note_off_c, 0, 70, 53
1, 88750, Note_on_c, 0, 75, 75
1, 88761, Note_on_c, 0, 70, 53
1, 88764, Note_on_c, 0, 64, 45
1, 88766, Note_off_c, 0, 76, 54
1, 88767, Note_on_c, 0, 60, 41
1, 88812, Note_off_c, 0, 60, 57
1, 88818, Note_off_c, 0, 64, 58
1, 88825, Note_off_c, 0, 70, 56
1, 88909, Control_c, 0, 67, 56
1, 88929, Note_on_c, 0, 70, 63
1, 88936, Note_on_c, 0, 60, 44
1, 88937, Note_on_c, 0, 64, 49
1, 88938, Control_c, 0, 67, 55
1, 88968, Control_c, 0, 67, 55
1, 88973, Note_off_c, 0, 64, 64
1, 88976, Note_off_c, 0, 70, 51
1, 88982, Note_off_c, 0, 60, 59
1, 88998, Note_off_c, 0, 75, 63
1, 89042, Control_c, 0, 64, 97
1, 89056, Control_c, 0, 64, 79
1, 89071, Note_on_c, 0, 72, 76
1, 89071, Control_c, 0, 64, 66
1, 89086, Control_c, 0, 64, 54
1, 89101, Note_on_c, 0, 60, 44
1, 89101, Control_c, 0, 64, 54
1, 89104, Note_on_c, 0, 69, 53
1, 89110, Note_on_c, 0, 63, 44
1, 89116, Control_c, 0, 64, 59
1, 89132, Control_c, 0, 64, 62
1, 89146, Control_c, 0, 64, 63
1, 89157, Note_off_c, 0, 63, 60
1, 89160, Note_off_c, 0, 60, 54
1, 89161, Control_c, 0, 64, 66
1, 89168, Note_off_c, 0, 69, 54
1, 89176, Control_c, 0, 64, 71
1, 89191, Control_c, 0, 64, 81
1, 89191, Control_c, 0, 67, 54
1, 89205, Control_c, 0, 64, 103
1, 89220, Control_c, 0, 64, 127
1, 89259, Note_on_c, 0, 69, 45
1, 89267, Note_on_c, 0, 60, 36
1, 89278, Note_on_c, 0, 63, 39
1, 89294, Note_on_c, 0, 75, 55
1, 89312, Note_off_c, 0, 63, 53
1, 89318, Note_off_c, 0, 69, 51
1, 89322, Note_off_c, 0, 60, 56
1, 89330, Note_off_c, 0, 75, 65
1, 89341, Note_on_c, 0, 78, 53
1, 89389, Note_off_c, 0, 78, 62
1, 89393, Note_on_c, 0, 84, 60
1, 89424, Note_on_c, 0, 69, 44
1, 89427, Note_on_c, 0, 60, 36
1, 89429, Note_on_c, 0, 63, 37
1, 89466, Note_off_c, 0, 84, 62
1, 89468, Note_off_c, 0, 63, 52
1, 89473, Note_off_c, 0, 69, 57
1, 89479, Note_off_c, 0, 60, 56
1, 89593, Note_on_c, 0, 69, 57
1, 89596, Note_on_c, 0, 63, 41
1, 89608, Note_on_c, 0, 60, 40
1, 89638, Note_off_c, 0, 69, 54
1, 89645, Note_off_c, 0, 63, 55
1, 89652, Note_off_c, 0, 60, 58
1, 89734, Note_on_c, 0, 74, 79
1, 89762, Note_on_c, 0, 69, 48
1, 89766, Note_off_c, 0, 72, 38
1, 89776, Note_on_c, 0, 63, 36
1, 89780, Note_on_c, 0, 60, 37
1, 89805, Note_off_c, 0, 69, 58
1, 89811, Note_off_c, 0, 63, 51
1, 89827, Note_off_c, 0, 60, 55
1, 89851, Control_c, 0, 67, 53
1, 89901, Note_on_c, 0, 63, 58
1, 89906, Note_on_c, 0, 69, 62
1, 89926, Control_c, 0, 67, 53
1, 89935, Note_on_c, 0, 60, 21
1, 89941, Note_off_c, 0, 69, 62
1, 89968, Note_off_c, 0, 60, 51
1, 89971, Note_off_c, 0, 63, 56
1, 90014, Control_c, 0, 64, 92
1, 90021, Note_off_c, 0, 74, 57
1, 90028, Control_c, 0, 64, 73
1, 90043, Control_c, 0, 64, 62
1, 90051, Note_on_c, 0, 71, 72
1, 90058, Control_c, 0, 64, 48
1, 90070, Note_on_c, 0, 60, 47
1, 90073, Control_c, 0, 64, 50
1, 90075, Note_on_c, 0, 68, 57
1, 90088, Note_on_c, 0, 62, 44
1, 90088, Control_c, 0, 64, 56
1, 90102, Control_c, 0, 64, 59
1, 90117, Control_c, 0, 64, 62
1, 90132, Note_off_c, 0, 60, 55
1, 90132, Control_c, 0, 64, 65
1, 90146, Note_off_c, 0, 68, 57
1, 90147, Control_c, 0, 64, 68
1, 90148, Note_off_c, 0, 62, 58
1, 90162, Control_c, 0, 64, 75
1, 90177, Control_c, 0, 64, 89
1, 90177, Control_c, 0, 67, 52
1, 90192, Control_c, 0, 64, 111
1, 90207, Control_c, 0, 64, 127
1, 90249, Note_on_c, 0, 68, 50
1, 90266, Note_on_c, 0, 60, 39
1, 90268, Note_on_c, 0, 74, 50
1, 90284, Note_on_c, 0, 62, 34
1, 90302, Note_off_c, 0, 74, 61
1, 90307, Note_on_c, 0, 77, 61
1, 90307, Note_off_c, 0, 60, 57
1, 90307, Note_off_c, 0, 68, 54
1, 90330, Note_off_c, 0, 62, 52
1, 90371, Note_on_c, 0, 83, 59
1, 90380, Note_off_c, 0, 77, 59
1, 90408, Note_off_c, 0, 83, 61
1, 90423, Note_on_c, 0, 68, 47
1, 90436, Note_on_c, 0, 60, 43
1, 90451, Note_on_c, 0, 62, 40
1, 90481, Note_off_c, 0, 60, 57
1, 90485, Note_off_c, 0, 62, 60
1, 90489, Note_off_c, 0, 68, 48
1, 90541, Note_on_c, 0, 72, 62
1, 90542, Note_off_c, 0, 71, 49
1, 90578, Note_on_c, 0, 68, 36
1, 90606, Note_on_c, 0, 62, 39
1, 90609, Note_on_c, 0, 60, 35
1, 90639, Note_off_c, 0, 68, 53
1, 90641, Note_off_c, 0, 60, 53
1, 90644, Note_off_c, 0, 62, 55
1, 90711, Note_on_c, 0, 71, 73
1, 90718, Control_c, 0, 64, 121
1, 90721, Note_off_c, 0, 72, 64
1, 90731, Note_on_c, 0, 68, 42
1, 90748, Control_c, 0, 64, 119
1, 90758, Note_on_c, 0, 60, 36
1, 90769, Note_on_c, 0, 62, 31
1, 90778, Control_c, 0, 64, 118
1, 90785, Note_off_c, 0, 60, 56
1, 90792, Control_c, 0, 64, 117
1, 90793, Note_off_c, 0, 68, 51
1, 90806, Note_off_c, 0, 62, 50
1, 90807, Control_c, 0, 64, 116
1, 90822, Control_c, 0, 64, 114
1, 90866, Control_c, 0, 64, 113
1, 90881, Note_on_c, 0, 68, 45
1, 90883, Note_on_c, 0, 60, 50
1, 90889, Note_on_c, 0, 72, 82
1, 90905, Note_off_c, 0, 71, 60
1, 90913, Note_on_c, 0, 62, 49
1, 90936, Note_off_c, 0, 60, 55
1, 90940, Control_c, 0, 64, 114
1, 90954, Note_off_c, 0, 68, 55
1, 90956, Note_off_c, 0, 62, 59
1, 90985, Control_c, 0, 64, 111
1, 91000, Control_c, 0, 64, 102
1, 91015, Control_c, 0, 64, 88
1, 91029, Control_c, 0, 64, 76
1, 91044, Control_c, 0, 64, 64
1, 91059, Control_c, 0, 64, 57
1, 91060, Note_on_c, 0, 71, 79
1, 91069, Note_on_c, 0, 68, 49
1, 91073, Note_on_c, 0, 62, 49
1, 91075, Note_on_c, 0, 60, 43
1, 91081, Control_c, 0, 64, 59
1, 91096, Control_c, 0, 64, 61
1, 91111, Control_c, 0, 64, 63
1, 91125, Control_c, 0, 64, 64
1, 91137, Note_off_c, 0, 60, 55
1, 91140, Control_c, 0, 64, 67
1, 91155, Control_c, 0, 64, 69
1, 91161, Note_off_c, 0, 62, 56
1, 91161, Note_off_c, 0, 68, 50
1, 91170, Control_c, 0, 64, 72
1, 91185, Control_c, 0, 64, 77
1, 91185, Note_off_c, 0, 72, 30
1, 91199, Control_c, 0, 64, 86
1, 91214, Control_c, 0, 64, 98
1, 91229, Control_c, 0, 64, 111
1, 91244, Note_off_c, 0, 71, 60
1, 91244, Control_c, 0, 64, 118
1, 91246, Note_on_c, 0, 68, 39
1, 91257, Note_on_c, 0, 72, 56
1, 91264, Note_on_c, 0, 60, 43
1, 91265, Note_on_c, 0, 62, 36
1, 91289, Control_c, 0, 64, 127
1, 91323, Note_off_c, 0, 60, 51
1, 91333, Note_off_c, 0, 62, 55
1, 91338, Note_off_c, 0, 68, 53
1, 91387, Note_on_c, 0, 74, 54
1, 91395, Note_off_c, 0, 72, 48
1, 91411, Note_on_c, 0, 77, 61
1, 91418, Note_on_c, 0, 68, 43
1, 91422, Control_c, 0, 64, 123
1, 91429, Note_on_c, 0, 60, 37
1, 91434, Note_on_c, 0, 62, 41
1, 91437, Control_c, 0, 64, 119
1, 91446, Note_on_c, 0, 83, 64
1, 91448, Note_off_c, 0, 74, 59
1, 91481, Note_off_c, 0, 60, 57
1, 91481, Control_c, 0, 64, 118
1, 91489, Note_off_c, 0, 62, 55
1, 91496, Control_c, 0, 64, 116
1, 91497, Note_off_c, 0, 68, 51
1, 91506, Note_off_c, 0, 77, 56
1, 91511, Control_c, 0, 64, 115
1, 91526, Control_c, 0, 64, 114
1, 91540, Control_c, 0, 64, 113
1, 91555, Control_c, 0, 64, 111
1, 91570, Control_c, 0, 64, 111
1, 91572, Note_on_c, 0, 68, 40
1, 91575, Note_on_c, 0, 76, 70
1, 91583, Note_on_c, 0, 72, 61
1, 91598, Note_on_c, 0, 60, 44
1, 91599, Note_on_c, 0, 62, 42
1, 91600, Control_c, 0, 64, 110
1, 91614, Control_c, 0, 64, 110
1, 91632, Note_off_c, 0, 83, 39
1, 91644, Note_off_c, 0, 60, 57
1, 91644, Control_c, 0, 64, 109
1, 91649, Note_off_c, 0, 62, 57
1, 91652, Note_off_c, 0, 72, 60
1, 91656, Note_off_c, 0, 68, 53
1, 91659, Control_c, 0, 64, 108
1, 91673, Control_c, 0, 64, 107
1, 91688, Control_c, 0, 64, 107
1, 91703, Control_c, 0, 64, 106
1, 91718, Control_c, 0, 64, 106
1, 91736, Note_on_c, 0, 71, 73
1, 91738, Note_on_c, 0, 68, 43
1, 91741, Note_on_c, 0, 77, 79
1, 91756, Note_on_c, 0, 60, 45
1, 91757, Note_off_c, 0, 76, 59
1, 91763, Control_c, 0, 64, 105
1, 91768, Note_on_c, 0, 62, 50
1, 91778, Control_c, 0, 64, 105
1, 91792, Control_c, 0, 64, 104
1, 91803, Note_off_c, 0, 71, 57
1, 91805, Note_off_c, 0, 60, 57
1, 91807, Control_c, 0, 64, 104
1, 91824, Note_off_c, 0, 62, 57
1, 91828, Note_off_c, 0, 68, 54
1, 91844, Control_c, 0, 64, 103
1, 91859, Control_c, 0, 64, 103
1, 91873, Control_c, 0, 64, 102
1, 91900, Note_on_c, 0, 72, 79
1, 91900, Note_on_c, 0, 79, 82
1, 91907, Note_on_c, 0, 68, 53
1, 91918, Note_off_c, 0, 77, 47
1, 91918, Control_c, 0, 64, 103
1, 91925, Note_on_c, 0, 60, 50
1, 91931, Note_on_c, 0, 62, 55
1, 91933, Control_c, 0, 64, 104
1, 91948, Control_c, 0, 64, 105
1, 91963, Control_c, 0, 64, 106
1, 91975, Note_off_c, 0, 60, 57
1, 91977, Control_c, 0, 64, 107
1, 91983, Note_off_c, 0, 62, 56
1, 91984, Note_off_c, 0, 68, 58
1, 91986, Note_off_c, 0, 72, 59
1, 92007, Control_c, 0, 64, 104
1, 92022, Control_c, 0, 64, 97
1, 92037, Control_c, 0, 64, 85
1, 92052, Control_c, 0, 64, 73
1, 92067, Control_c, 0, 64, 63
1, 92070, Note_on_c, 0, 80, 76
1, 92070, Note_on_c, 0, 68, 47
1, 92071, Note_on_c, 0, 71, 77
1, 92081, Control_c, 0, 64, 56
1, 92085, Note_on_c, 0, 60, 51
1, 92094, Note_on_c, 0, 62, 49
1, 92096, Control_c, 0, 64, 59
1, 92100, Note_off_c, 0, 79, 55
1, 92111, Control_c, 0, 64, 61
1, 92126, Control_c, 0, 64, 63
1, 92141, Control_c, 0, 64, 64
1, 92150, Note_off_c, 0, 62, 51
1, 92150, Note_off_c, 0, 60, 52
1, 92155, Control_c, 0, 64, 66
1, 92155, Control_c, 0, 67, 53
1, 92163, Note_off_c, 0, 68, 55
1, 92170, Control_c, 0, 64, 69
1, 92185, Control_c, 0, 64, 73
1, 92199, Control_c, 0, 64, 81
1, 92214, Control_c, 0, 64, 96
1, 92229, Control_c, 0, 64, 127
1, 92232, Note_on_c, 0, 68, 42
1, 92238, Note_on_c, 0, 60, 35
1, 92245, Note_on_c, 0, 79, 58
1, 92246, Note_on_c, 0, 62, 33
1, 92301, Note_off_c, 0, 80, 58
1, 92322, Note_off_c, 0, 60, 50
1, 92383, Note_off_c, 0, 68, 0
1, 92390, Note_off_c, 0, 62, 0
1, 92398, Note_on_c, 0, 68, 32
1, 92407, Note_on_c, 0, 60, 29
1, 92407, Note_on_c, 0, 62, 31
1, 92429, Note_on_c, 0, 76, 56
1, 92431, Note_off_c, 0, 71, 52
1, 92470, Note_off_c, 0, 60, 53
1, 92490, Note_off_c, 0, 62, 54
1, 92504, Note_off_c, 0, 68, 36
1, 92580, Note_on_c, 0, 68, 47
1, 92585, Note_on_c, 0, 62, 37
1, 92589, Note_on_c, 0, 77, 75
1, 92590, Note_on_c, 0, 72, 64
1, 92597, Note_off_c, 0, 79, 54
1, 92598, Note_on_c, 0, 60, 38
1, 92611, Note_off_c, 0, 76, 53
1, 92644, Note_off_c, 0, 60, 56
1, 92648, Note_off_c, 0, 72, 56
1, 92661, Note_off_c, 0, 68, 51
1, 92668, Note_off_c, 0, 62, 56
1, 92745, Note_on_c, 0, 68, 50
1, 92753, Note_on_c, 0, 79, 73
1, 92761, Note_on_c, 0, 72, 70
1, 92763, Note_on_c, 0, 62, 43
1, 92770, Control_c, 0, 67, 53
1, 92776, Note_on_c, 0, 60, 41
1, 92793, Note_off_c, 0, 77, 58
1, 92800, Note_off_c, 0, 72, 60
1, 92817, Note_off_c, 0, 60, 55
1, 92889, Control_c, 0, 67, 54
1, 92894, Note_off_c, 0, 62, 0
1, 92894, Note_off_c, 0, 68, 0
1, 92906, Note_on_c, 0, 68, 45
1, 92912, Note_on_c, 0, 62, 31
1, 92925, Note_on_c, 0, 80, 82
1, 92940, Note_on_c, 0, 60, 46
1, 92943, Note_on_c, 0, 71, 55
1, 92958, Note_off_c, 0, 79, 63
1, 92969, Note_off_c, 0, 60, 59
1, 92986, Note_off_c, 0, 71, 53
1, 92994, Note_off_c, 0, 68, 53
1, 93006, Note_off_c, 0, 62, 51
1, 93009, Note_off_c, 0, 80, 61
1, 93052, Control_c, 0, 64, 106
1, 93067, Control_c, 0, 64, 85
1, 93082, Control_c, 0, 64, 70
1, 93086, Note_on_c, 0, 68, 43
1, 93087, Note_on_c, 0, 62, 31
1, 93088, Note_on_c, 0, 60, 38
1, 93092, Note_on_c, 0, 81, 73
1, 93096, Control_c, 0, 64, 57
1, 93102, Note_on_c, 0, 71, 64
1, 93111, Control_c, 0, 64, 47
1, 93127, Control_c, 0, 64, 53
1, 93142, Control_c, 0, 64, 57
1, 93157, Control_c, 0, 64, 60
1, 93172, Control_c, 0, 64, 62
1, 93186, Control_c, 0, 64, 65
1, 93200, Note_off_c, 0, 60, 50
1, 93201, Control_c, 0, 64, 67
1, 93216, Control_c, 0, 64, 70
1, 93231, Control_c, 0, 64, 77
1, 93245, Control_c, 0, 64, 91
1, 93248, Note_off_c, 0, 68, 36
1, 93260, Control_c, 0, 64, 118
1, 93275, Note_on_c, 0, 79, 67
1, 93275, Control_c, 0, 64, 127
1, 93279, Note_off_c, 0, 62, 0
1, 93290, Control_c, 0, 67, 55
1, 93301, Note_on_c, 0, 62, 15
1, 93327, Note_on_c, 0, 67, 49
1, 93341, Note_on_c, 0, 60, 4
1, 93349, Note_off_c, 0, 81, 36
1, 93375, Note_off_c, 0, 67, 57
1, 93396, Note_off_c, 0, 60, 45
1, 93438, Note_off_c, 0, 71, 36
1, 93443, Note_off_c, 0, 62, 0
1, 93455, Note_on_c, 0, 76, 58
1, 93464, Note_on_c, 0, 62, 24
1, 93481, Note_on_c, 0, 67, 45
1, 93485, Note_on_c, 0, 60, 25
1, 93517, Note_off_c, 0, 67, 57
1, 93532, Note_off_c, 0, 60, 46
1, 93620, Note_off_c, 0, 62, 0
1, 93627, Note_on_c, 0, 67, 42
1, 93635, Note_on_c, 0, 62, 30
1, 93638, Note_on_c, 0, 72, 52
1, 93638, Note_off_c, 0, 76, 55
1, 93646, Note_on_c, 0, 77, 59
1, 93658, Note_on_c, 0, 60, 37
1, 93677, Note_off_c, 0, 79, 50
1, 93688, Note_off_c, 0, 67, 55
1, 93706, Note_off_c, 0, 60, 46
1, 93711, Note_off_c, 0, 62, 52
1, 93714, Note_off_c, 0, 72, 56
1, 93771, Control_c, 0, 64, 115
1, 93786, Control_c, 0, 64, 101
1, 93801, Control_c, 0, 64, 89
1, 93816, Control_c, 0, 64, 78
1, 93831, Control_c, 0, 64, 69
1, 93832, Note_on_c, 0, 62, 48
1, 93843, Note_on_c, 0, 69, 49
1, 93845, Control_c, 0, 64, 61
1, 93851, Note_on_c, 0, 60, 35
1, 93860, Note_off_c, 0, 77, 57
1, 93860, Control_c, 0, 64, 57
1, 93860, Control_c, 0, 67, 55
1, 93864, Note_on_c, 0, 79, 61
1, 93866, Note_on_c, 0, 71, 53
1, 93875, Control_c, 0, 64, 59
1, 93875, Control_c, 0, 67, 56
1, 93890, Control_c, 0, 64, 61
1, 93890, Control_c, 0, 67, 58
1, 93904, Note_off_c, 0, 69, 54
1, 93905, Control_c, 0, 64, 62
1, 93905, Control_c, 0, 67, 60
1, 93921, Control_c, 0, 64, 63
1, 93921, Control_c, 0, 67, 63
1, 93932, Note_off_c, 0, 71, 50
1, 93936, Control_c, 0, 64, 65
1, 93936, Control_c, 0, 67, 66
1, 93950, Control_c, 0, 64, 67
1, 93950, Control_c, 0, 67, 69
1, 93965, Control_c, 0, 64, 68
1, 93965, Control_c, 0, 67, 72
1, 93980, Control_c, 0, 64, 70
1, 93980, Control_c, 0, 67, 75
1, 93995, Control_c, 0, 64, 74
1, 93995, Control_c, 0, 67, 88
1, 94010, Control_c, 0, 64, 79
1, 94010, Control_c, 0, 67, 100
1, 94024, Control_c, 0, 64, 87
1, 94024, Control_c, 0, 67, 113
1, 94039, Control_c, 0, 64, 96
1, 94039, Control_c, 0, 67, 125
1, 94053, Note_off_c, 0, 60, 0
1, 94054, Control_c, 0, 64, 107
1, 94054, Control_c, 0, 67, 127
1, 94076, Control_c, 0, 64, 127
1, 94087, Note_on_c, 0, 69, 48
1, 94088, Note_off_c, 0, 79, 60
1, 94093, Note_on_c, 0, 63, 49
1, 94097, Poly_aftertouch_c, 0, 60, 127
1, 94104, Note_on_c, 0, 80, 62
1, 94106, Note_on_c, 0, 71, 42
1, 94133, Note_off_c, 0, 71, 55
1, 94142, Note_off_c, 0, 69, 59
1, 94148, Note_off_c, 0, 62, 37
1, 94150, Poly_aftertouch_c, 0, 60, 0
1, 94156, Note_off_c, 0, 63, 61
1, 94170, Note_off_c, 0, 80, 62
1, 94298, Control_c, 0, 64, 99
1, 94313, Control_c, 0, 64, 79
1, 94317, Note_on_c, 0, 88, 69
1, 94324, Note_on_c, 0, 70, 54
1, 94328, Control_c, 0, 64, 64
1, 94329, Note_on_c, 0, 60, 36
1, 94329, Note_on_c, 0, 64, 51
1, 94342, Control_c, 0, 64, 40
1, 94351, Note_off_c, 0, 88, 63
1, 94357, Control_c, 0, 64, 0
1, 94363, Note_off_c, 0, 70, 64
1, 94370, Note_off_c, 0, 60, 48
1, 94371, Note_off_c, 0, 64, 62
1, 94384, Note_on_c, 0, 76, 65
1, 94419, Note_off_c, 0, 76, 66
1, 94472, Note_on_c, 0, 75, 63
1, 94483, Note_on_c, 0, 70, 55
1, 94488, Note_off_c, 0, 75, 62
1, 94490, Note_on_c, 0, 60, 32
1, 94497, Note_on_c, 0, 64, 38
1, 94520, Control_c, 0, 64, 24
1, 94535, Note_on_c, 0, 76, 64
1, 94535, Note_off_c, 0, 64, 61
1, 94535, Control_c, 0, 64, 38
1, 94550, Control_c, 0, 64, 48
1, 94565, Control_c, 0, 64, 54
1, 94580, Control_c, 0, 64, 59
1, 94594, Control_c, 0, 64, 62
1, 94608, Note_off_c, 0, 76, 63
1, 94609, Control_c, 0, 64, 66
1, 94624, Control_c, 0, 64, 74
1, 94625, Note_off_c, 0, 70, 52
1, 94632, Note_on_c, 0, 64, 68
1, 94639, Control_c, 0, 64, 92
1, 94654, Control_c, 0, 64, 127
1, 94664, Note_off_c, 0, 64, 64
1, 94678, Note_off_c, 0, 60, 52
1, 94788, Note_on_c, 0, 70, 67
1, 94794, Note_on_c, 0, 64, 55
1, 94827, Note_on_c, 0, 60, 31
1, 94841, Note_off_c, 0, 64, 61
1, 94852, Note_off_c, 0, 70, 52
1, 94862, Note_off_c, 0, 60, 51
1, 94884, Control_c, 0, 64, 100
1, 94899, Control_c, 0, 64, 77
1, 94914, Control_c, 0, 64, 61
1, 94929, Control_c, 0, 64, 0
1, 94936, Note_on_c, 0, 86, 81
1, 94952, Note_on_c, 0, 60, 47
1, 94957, Note_on_c, 0, 65, 51
1, 94966, Note_on_c, 0, 70, 48
1, 94967, Note_off_c, 0, 86, 63
1, 94983, Note_off_c, 0, 60, 59
1, 94998, Note_off_c, 0, 65, 61
1, 95000, Note_off_c, 0, 70, 55
1, 95004, Note_on_c, 0, 74, 59
1, 95036, Note_off_c, 0, 74, 65
1, 95084, Note_on_c, 0, 73, 71
1, 95101, Note_on_c, 0, 70, 52
1, 95102, Note_on_c, 0, 65, 48
1, 95106, Control_c, 0, 67, 125
1, 95108, Note_off_c, 0, 73, 69
1, 95115, Note_on_c, 0, 60, 35
1, 95121, Control_c, 0, 67, 122
1, 95136, Control_c, 0, 67, 119
1, 95143, Note_off_c, 0, 65, 63
1, 95147, Note_on_c, 0, 74, 61
1, 95151, Control_c, 0, 67, 116
1, 95165, Control_c, 0, 64, 28
1, 95165, Control_c, 0, 67, 111
1, 95180, Control_c, 0, 64, 45
1, 95180, Control_c, 0, 67, 106
1, 95195, Control_c, 0, 64, 54
1, 95195, Control_c, 0, 67, 102
1, 95209, Note_off_c, 0, 74, 62
1, 95210, Control_c, 0, 64, 59
1, 95210, Control_c, 0, 67, 96
1, 95224, Control_c, 0, 64, 62
1, 95224, Control_c, 0, 67, 85
1, 95239, Control_c, 0, 64, 66
1, 95239, Control_c, 0, 67, 71
1, 95250, Note_on_c, 0, 62, 65
1, 95254, Control_c, 0, 64, 71
1, 95254, Control_c, 0, 67, 56
1, 95269, Control_c, 0, 64, 83
1, 95269, Control_c, 0, 67, 41
1, 95284, Control_c, 0, 64, 110
1, 95284, Control_c, 0, 67, 28
1, 95286, Note_off_c, 0, 62, 64
1, 95298, Control_c, 0, 64, 127
1, 95298, Control_c, 0, 67, 19
1, 95307, Note_off_c, 0, 70, 36
1, 95313, Control_c, 0, 67, 12
1, 95328, Note_off_c, 0, 60, 39
1, 95328, Control_c, 0, 67, 0
1, 95408, Note_on_c, 0, 60, 44
1, 95409, Note_on_c, 0, 65, 51
1, 95414, Note_on_c, 0, 70, 58
1, 95445, Note_off_c, 0, 65, 63
1, 95454, Note_off_c, 0, 70, 59
1, 95456, Note_off_c, 0, 60, 57
1, 95522, Control_c, 0, 64, 91
1, 95537, Control_c, 0, 64, 71
1, 95552, Control_c, 0, 64, 54
1, 95574, Note_on_c, 0, 70, 59
1, 95574, Note_on_c, 0, 84, 68
1, 95574, Control_c, 0, 64, 0
1, 95577, Note_on_c, 0, 60, 47
1, 95583, Note_on_c, 0, 66, 52
1, 95598, Note_off_c, 0, 84, 69
1, 95603, Note_off_c, 0, 60, 59
1, 95608, Note_off_c, 0, 70, 62
1, 95627, Note_off_c, 0, 66, 60
1, 95644, Note_on_c, 0, 72, 55
1, 95673, Note_off_c, 0, 72, 66
1, 95717, Note_on_c, 0, 71, 71
1, 95738, Note_on_c, 0, 70, 56
1, 95742, Note_off_c, 0, 71, 68
1, 95744, Note_on_c, 0, 66, 46
1, 95756, Note_on_c, 0, 60, 25
1, 95789, Note_off_c, 0, 70, 58
1, 95799, Note_off_c, 0, 66, 59
1, 95804, Note_on_c, 0, 72, 62
1, 95814, Note_off_c, 0, 60, 56
1, 95826, Control_c, 0, 64, 21
1, 95840, Control_c, 0, 64, 52
1, 95847, Note_off_c, 0, 72, 64
1, 95855, Control_c, 0, 64, 62
1, 95870, Control_c, 0, 64, 67
1, 95885, Control_c, 0, 64, 77
1, 95892, Note_on_c, 0, 60, 73
1, 95900, Control_c, 0, 64, 127
1, 95936, Note_off_c, 0, 60, 59
1, 96050, Note_on_c, 0, 70, 50
1, 96051, Note_on_c, 0, 66, 59
1, 96064, Note_on_c, 0, 60, 40
1, 96075, Note_off_c, 0, 70, 58
1, 96082, Note_off_c, 0, 66, 65
1, 96085, Note_off_c, 0, 60, 61
1, 96180, Control_c, 0, 64, 77
1, 96189, Note_on_c, 0, 60, 61
1, 96195, Control_c, 0, 64, 53
1, 96197, Note_on_c, 0, 56, 77
1, 96210, Control_c, 0, 64, 0
1, 96225, Note_off_c, 0, 56, 67
1, 96225, Note_off_c, 0, 60, 65
1, 96356, Note_on_c, 0, 64, 73
1, 96358, Note_on_c, 0, 55, 67
1, 96359, Note_on_c, 0, 58, 72
1, 96386, Note_off_c, 0, 64, 66
1, 96388, Note_off_c, 0, 58, 67
1, 96392, Note_off_c, 0, 55, 65
1, 96499, Note_on_c, 0, 68, 81
1, 96501, Note_on_c, 0, 65, 76
1, 96502, Note_on_c, 0, 56, 76
1, 96510, Note_on_c, 0, 53, 68
1, 96526, Note_off_c, 0, 65, 67
1, 96531, Note_off_c, 0, 68, 66
1, 96532, Note_off_c, 0, 56, 63
1, 96550, Note_off_c, 0, 53, 58
1, 96648, Note_on_c, 0, 67, 84
1, 96649, Note_on_c, 0, 70, 83
1, 96657, Note_on_c, 0, 55, 78
1, 96675, Note_off_c, 0, 67, 64
1, 96684, Note_on_c, 0, 52, 29
1, 96690, Note_off_c, 0, 70, 66
1, 96698, Note_off_c, 0, 55, 58
1, 96720, Note_off_c, 0, 52, 54
1, 96786, Note_on_c, 0, 49, 81
1, 96788, Note_on_c, 0, 53, 87
1, 96792, Note_on_c, 0, 72, 93
1, 96793, Note_on_c, 0, 68, 101
1, 96810, Note_off_c, 0, 53, 70
1, 96811, Control_c, 0, 64, 52
1, 96825, Note_off_c, 0, 49, 63
1, 96826, Control_c, 0, 64, 67
1, 96827, Note_off_c, 0, 72, 67
1, 96830, Note_off_c, 0, 68, 64
1, 96841, Control_c, 0, 64, 81
1, 96856, Control_c, 0, 64, 127
1, 97012, Note_on_c, 0, 49, 93
1, 97018, Note_on_c, 0, 37, 76
1, 97019, Note_on_c, 0, 72, 91
1, 97021, Note_on_c, 0, 84, 94
1, 97036, Note_off_c, 0, 84, 75
1, 97039, Note_off_c, 0, 49, 67
1, 97040, Note_off_c, 0, 37, 64
1, 97048, Note_off_c, 0, 72, 64
1, 97048, Control_c, 0, 64, 72
1, 97070, Control_c, 0, 64, 0
1, 97117, Note_on_c, 0, 67, 97
1, 97117, Note_on_c, 0, 55, 97
1, 97118, Note_on_c, 0, 74, 87
1, 97119, Note_on_c, 0, 43, 83
1, 97119, Note_on_c, 0, 72, 88
1, 97120, Note_on_c, 0, 79, 81
1, 97145, Note_off_c, 0, 43, 65
1, 97160, Control_c, 0, 64, 26
1, 97162, Note_off_c, 0, 55, 66
1, 97166, Note_off_c, 0, 67, 64
1, 97167, Note_off_c, 0, 79, 64
1, 97175, Control_c, 0, 64, 64
1, 97183, Note_off_c, 0, 72, 66
1, 97185, Note_off_c, 0, 74, 65
1, 97190, Control_c, 0, 64, 80
1, 97205, Control_c, 0, 64, 127
1, 97459, Note_on_c, 0, 63, 67
1, 97459, Note_on_c, 0, 83, 97
1, 97463, Note_on_c, 0, 60, 63
1, 97580, Note_off_c, 0, 83, 50
1, 97614, Note_on_c, 0, 71, 91
1, 97738, Control_c, 0, 64, 104
1, 97748, Note_off_c, 0, 71, 57
1, 97753, Control_c, 0, 64, 75
1, 97764, Note_off_c, 0, 60, 62
1, 97765, Note_on_c, 0, 70, 92
1, 97767, Control_c, 0, 64, 60
1, 97768, Note_off_c, 0, 63, 62
1, 97775, Note_on_c, 0, 55, 67
1, 97776, Note_on_c, 0, 62, 76
1, 97782, Control_c, 0, 64, 35
1, 97797, Control_c, 0, 64, 26
1, 97819, Control_c, 0, 64, 35
1, 97834, Control_c, 0, 64, 44
1, 97849, Control_c, 0, 64, 51
1, 97864, Control_c, 0, 64, 55
1, 97879, Control_c, 0, 64, 58
1, 97893, Control_c, 0, 64, 60
1, 97908, Note_off_c, 0, 70, 68
1, 97909, Control_c, 0, 64, 63
1, 97924, Control_c, 0, 64, 65
1, 97927, Note_on_c, 0, 71, 91
1, 97939, Control_c, 0, 64, 72
1, 97954, Control_c, 0, 64, 85
1, 97969, Control_c, 0, 64, 114
1, 97984, Control_c, 0, 64, 127
1, 98045, Note_off_c, 0, 71, 58
1, 98050, Note_off_c, 0, 62, 61
1, 98072, Control_c, 0, 64, 99
1, 98082, Note_off_c, 0, 55, 59
1, 98083, Note_on_c, 0, 83, 99
1, 98085, Note_on_c, 0, 63, 76
1, 98085, Note_on_c, 0, 60, 72
1, 98087, Control_c, 0, 64, 80
1, 98102, Control_c, 0, 64, 68
1, 98116, Control_c, 0, 64, 58
1, 98131, Control_c, 0, 64, 46
1, 98146, Control_c, 0, 64, 48
1, 98161, Control_c, 0, 64, 52
1, 98176, Control_c, 0, 64, 56
1, 98190, Control_c, 0, 64, 59
1, 98205, Control_c, 0, 64, 62
1, 98213, Note_off_c, 0, 83, 62
1, 98220, Control_c, 0, 64, 63
1, 98229, Note_on_c, 0, 71, 85
1, 98234, Control_c, 0, 64, 65
1, 98249, Control_c, 0, 64, 67
1, 98264, Control_c, 0, 64, 69
1, 98279, Control_c, 0, 64, 75
1, 98294, Control_c, 0, 64, 83
1, 98309, Control_c, 0, 64, 99
1, 98324, Control_c, 0, 64, 115
1, 98339, Control_c, 0, 64, 127
1, 98351, Note_off_c, 0, 71, 60
1, 98380, Note_off_c, 0, 60, 62
1, 98381, Note_on_c, 0, 70, 92
1, 98383, Note_off_c, 0, 63, 61
1, 98394, Note_on_c, 0, 55, 68
1, 98395, Note_on_c, 0, 62, 78
1, 98518, Note_off_c, 0, 70, 64
1, 98527, Note_on_c, 0, 71, 95
1, 98667, Note_off_c, 0, 62, 60
1, 98670, Note_off_c, 0, 71, 62
1, 98687, Control_c, 0, 64, 109
1, 98692, Note_on_c, 0, 83, 94
1, 98702, Control_c, 0, 64, 82
1, 98703, Note_off_c, 0, 55, 59
1, 98709, Note_on_c, 0, 60, 75
1, 98711, Note_on_c, 0, 63, 75
1, 98717, Control_c, 0, 64, 65
1, 98732, Control_c, 0, 64, 30
1, 98744, Note_off_c, 0, 83, 67
1, 98747, Control_c, 0, 64, 0
1, 98757, Note_on_c, 0, 71, 81
1, 98796, Note_off_c, 0, 71, 64
1, 98834, Note_on_c, 0, 70, 82
1, 98881, Note_off_c, 0, 70, 69
1, 98900, Note_on_c, 0, 71, 83
1, 98921, Note_off_c, 0, 63, 22
1, 98953, Note_off_c, 0, 71, 61
1, 98956, Note_off_c, 0, 60, 64
1, 98966, Note_on_c, 0, 62, 90
1, 98968, Note_on_c, 0, 55, 85
1, 98971, Note_on_c, 0, 59, 91
1, 98984, Control_c, 0, 64, 48
1, 98999, Control_c, 0, 64, 57
1, 99006, Note_off_c, 0, 62, 65
1, 99013, Control_c, 0, 64, 68
1, 99015, Note_off_c, 0, 59, 63
1, 99020, Note_off_c, 0, 55, 64
1, 99028, Control_c, 0, 64, 94
1, 99043, Control_c, 0, 64, 127
1, 99260, Note_on_c, 0, 74, 84
1, 99297, Note_off_c, 0, 74, 65
1, 99325, Note_on_c, 0, 62, 81
1, 99359, Note_off_c, 0, 62, 64
1, 99406, Note_on_c, 0, 55, 77
1, 99436, Control_c, 0, 64, 102
1, 99451, Control_c, 0, 64, 72
1, 99465, Control_c, 0, 64, 44
1, 99466, Note_on_c, 0, 56, 83
1, 99471, Note_off_c, 0, 55, 65
1, 99480, Control_c, 0, 64, 0
1, 99526, Note_off_c, 0, 56, 68
1, 99537, Note_on_c, 0, 43, 92
1, 99537, Note_on_c, 0, 57, 95
1, 99539, Note_on_c, 0, 31, 88
1, 99570, Control_c, 0, 64, 41
1, 99582, Note_off_c, 0, 57, 67
1, 99585, Control_c, 0, 64, 59
1, 99600, Control_c, 0, 64, 68
1, 99614, Control_c, 0, 64, 96
1, 99629, Control_c, 0, 64, 127
1, 99660, Note_off_c, 0, 43, 62
1, 99774, Note_off_c, 0, 31, 63
1, 99792, Control_c, 0, 64, 101
1, 99807, Control_c, 0, 64, 73
1, 99822, Note_on_c, 0, 42, 81
1, 99822, Control_c, 0, 64, 49
1, 99832, Note_on_c, 0, 30, 53
1, 99836, Control_c, 0, 64, 0
1, 99838, Note_on_c, 0, 94, 81
1, 99853, Note_off_c, 0, 42, 66
1, 99869, Note_off_c, 0, 30, 55
1, 99880, Control_c, 0, 67, 28
1, 99881, Note_off_c, 0, 94, 62
1, 99895, Note_on_c, 0, 82, 71
1, 99895, Control_c, 0, 67, 125
1, 99910, Control_c, 0, 67, 127
1, 99922, Note_off_c, 0, 82, 65
1, 99978, Note_on_c, 0, 81, 65
1, 99994, Note_on_c, 0, 64, 54
1, 99996, Note_on_c, 0, 54, 46
1, 100014, Note_on_c, 0, 58, 50
1, 100032, Note_off_c, 0, 81, 66
1, 100057, Note_on_c, 0, 82, 64
1, 100080, Control_c, 0, 64, 23
1, 100095, Control_c, 0, 64, 54
1, 100110, Control_c, 0, 64, 65
1, 100125, Control_c, 0, 64, 69
1, 100140, Control_c, 0, 64, 75
1, 100147, Note_off_c, 0, 54, 56
1, 100148, Note_off_c, 0, 58, 59
1, 100151, Note_on_c, 0, 70, 66
1, 100154, Control_c, 0, 64, 82
1, 100169, Control_c, 0, 64, 98
1, 100181, Note_off_c, 0, 82, 58
1, 100183, Note_off_c, 0, 64, 34
1, 100184, Note_off_c, 0, 70, 65
1, 100184, Control_c, 0, 64, 127
1, 100294, Note_on_c, 0, 58, 56
1, 100294, Note_on_c, 0, 54, 55
1, 100295, Note_on_c, 0, 64, 62
1, 100328, Note_off_c, 0, 64, 64
1, 100333, Note_off_c, 0, 58, 63
1, 100336, Note_off_c, 0, 54, 62
1, 100348, Control_c, 0, 64, 121
1, 100363, Control_c, 0, 64, 87
1, 100378, Control_c, 0, 64, 69
1, 100393, Control_c, 0, 64, 46
1, 100407, Control_c, 0, 64, 0
1, 100433, Note_on_c, 0, 92, 77
1, 100436, Note_on_c, 0, 54, 52
1, 100436, Note_on_c, 0, 64, 53
1, 100439, Note_on_c, 0, 59, 52
1, 100456, Note_off_c, 0, 92, 70
1, 100458, Note_off_c, 0, 64, 62
1, 100470, Note_off_c, 0, 54, 65
1, 100470, Note_off_c, 0, 59, 65
1, 100497, Note_on_c, 0, 80, 58
1, 100515, Note_off_c, 0, 80, 64
1, 100568, Note_on_c, 0, 64, 35
1, 100571, Note_on_c, 0, 79, 56
1, 100574, Note_on_c, 0, 59, 40
1, 100595, Note_on_c, 0, 54, 28
1, 100610, Note_off_c, 0, 79, 47
1, 100638, Note_on_c, 0, 80, 60
1, 100689, Control_c, 0, 64, 29
1, 100703, Control_c, 0, 64, 56
1, 100704, Note_off_c, 0, 80, 66
1, 100714, Note_on_c, 0, 68, 80
1, 100718, Control_c, 0, 64, 70
1, 100728, Note_off_c, 0, 64, 57
1, 100733, Control_c, 0, 64, 91
1, 100748, Control_c, 0, 64, 127
1, 100749, Note_off_c, 0, 68, 63
1, 100750, Note_off_c, 0, 59, 36
1, 100765, Note_off_c, 0, 54, 37
1, 100866, Note_on_c, 0, 64, 66
1, 100882, Note_on_c, 0, 54, 60
1, 100884, Note_on_c, 0, 59, 55
1, 100904, Note_off_c, 0, 64, 60
1, 100911, Note_off_c, 0, 54, 66
1, 100917, Note_off_c, 0, 59, 63
1, 100955, Note_on_c, 0, 78, 35
1, 100985, Note_off_c, 0, 78, 49
1, 101007, Control_c, 0, 64, 75
1, 101011, Note_on_c, 0, 90, 86
1, 101018, Note_on_c, 0, 60, 63
1, 101018, Note_on_c, 0, 64, 64
1, 101019, Note_on_c, 0, 54, 52
1, 101022, Control_c, 0, 64, 49
1, 101036, Control_c, 0, 64, 0
1, 101048, Note_off_c, 0, 64, 65
1, 101051, Note_off_c, 0, 90, 65
1, 101054, Note_off_c, 0, 60, 63
1, 101056, Note_off_c, 0, 54, 66
1, 101068, Note_on_c, 0, 78, 67
1, 101105, Note_off_c, 0, 78, 63
1, 101153, Note_on_c, 0, 77, 65
1, 101162, Note_on_c, 0, 64, 54
1, 101165, Note_on_c, 0, 60, 56
1, 101176, Note_on_c, 0, 54, 47
1, 101199, Note_off_c, 0, 77, 56
1, 101218, Note_on_c, 0, 78, 73
1, 101289, Note_off_c, 0, 78, 64
1, 101305, Control_c, 0, 64, 30
1, 101311, Note_on_c, 0, 66, 91
1, 101315, Note_off_c, 0, 60, 54
1, 101320, Control_c, 0, 64, 48
1, 101320, Control_c, 0, 67, 98
1, 101323, Note_off_c, 0, 64, 35
1, 101334, Control_c, 0, 64, 58
1, 101334, Control_c, 0, 67, 55
1, 101349, Control_c, 0, 64, 69
1, 101349, Control_c, 0, 67, 17
1, 101355, Note_off_c, 0, 54, 36
1, 101364, Control_c, 0, 64, 89
1, 101364, Control_c, 0, 67, 0
1, 101379, Control_c, 0, 64, 127
1, 101465, Note_on_c, 0, 60, 69
1, 101467, Note_off_c, 0, 66, 61
1, 101468, Note_on_c, 0, 54, 72
1, 101469, Note_on_c, 0, 64, 58
1, 101493, Note_off_c, 0, 60, 68
1, 101493, Note_off_c, 0, 64, 63
1, 101516, Note_off_c, 0, 54, 63
1, 101615, Note_on_c, 0, 52, 81
1, 101616, Note_on_c, 0, 56, 78
1, 101623, Control_c, 0, 64, 77
1, 101638, Control_c, 0, 64, 39
1, 101644, Note_off_c, 0, 52, 68
1, 101646, Note_off_c, 0, 56, 65
1, 101653, Control_c, 0, 64, 0
1, 101759, Note_on_c, 0, 51, 71
1, 101761, Note_on_c, 0, 72, 80
1, 101764, Note_on_c, 0, 54, 68
1, 101766, Note_on_c, 0, 60, 71
1, 101785, Note_off_c, 0, 51, 67
1, 101788, Note_off_c, 0, 72, 64
1, 101793, Note_off_c, 0, 60, 68
1, 101794, Note_off_c, 0, 54, 66
1, 101900, Note_on_c, 0, 52, 78
1, 101901, Note_on_c, 0, 76, 82
1, 101901, Note_on_c, 0, 73, 78
1, 101905, Note_on_c, 0, 64, 78
1, 101911, Note_on_c, 0, 49, 71
1, 101928, Note_off_c, 0, 76, 67
1, 101928, Note_off_c, 0, 64, 69
1, 101931, Note_off_c, 0, 52, 67
1, 101946, Note_off_c, 0, 73, 62
1, 101947, Note_off_c, 0, 49, 64
1, 102043, Note_on_c, 0, 66, 91
1, 102044, Note_on_c, 0, 75, 81
1, 102045, Note_on_c, 0, 78, 85
1, 102047, Note_on_c, 0, 51, 81
1, 102052, Note_on_c, 0, 47, 73
1, 102092, Note_off_c, 0, 78, 59
1, 102101, Note_off_c, 0, 66, 60
1, 102107, Note_off_c, 0, 51, 62
1, 102113, Note_off_c, 0, 47, 61
1, 102121, Note_off_c, 0, 75, 61
1, 102173, Note_on_c, 0, 45, 89
1, 102178, Note_on_c, 0, 49, 83
1, 102183, Note_on_c, 0, 68, 100
1, 102183, Note_on_c, 0, 76, 94
1, 102184, Note_on_c, 0, 80, 93
1, 102186, Control_c, 0, 64, 27
1, 102201, Control_c, 0, 64, 55
1, 102204, Note_off_c, 0, 49, 69
1, 102215, Note_off_c, 0, 45, 64
1, 102216, Control_c, 0, 64, 66
1, 102230, Note_off_c, 0, 68, 63
1, 102230, Control_c, 0, 64, 88
1, 102244, Note_off_c, 0, 76, 66
1, 102245, Control_c, 0, 64, 127
1, 102249, Note_off_c, 0, 80, 63
1, 102407, Note_on_c, 0, 33, 69
1, 102408, Note_on_c, 0, 45, 79
1, 102413, Note_on_c, 0, 80, 104
1, 102417, Note_on_c, 0, 92, 96
1, 102433, Note_off_c, 0, 45, 68
1, 102434, Note_off_c, 0, 33, 63
1, 102435, Note_off_c, 0, 92, 71
1, 102445, Control_c, 0, 64, 86
1, 102453, Note_off_c, 0, 80, 64
1, 102460, Control_c, 0, 64, 55
1, 102466, Note_on_c, 0, 90, 15
1, 102467, Note_off_c, 0, 90, 127
1, 102475, Control_c, 0, 64, 0
1, 102509, Note_on_c, 0, 75, 98
1, 102511, Note_on_c, 0, 87, 84
1, 102512, Note_on_c, 0, 80, 88
1, 102513, Note_on_c, 0, 82, 87
1, 102514, Note_on_c, 0, 51, 100
1, 102519, Control_c, 0, 64, 26
1, 102521, Note_on_c, 0, 39, 74
1, 102534, Control_c, 0, 64, 60
1, 102545, Note_off_c, 0, 39, 66
1, 102549, Note_off_c, 0, 87, 66
1, 102549, Control_c, 0, 64, 76
1, 102557, Note_off_c, 0, 51, 66
1, 102560, Note_off_c, 0, 75, 61
1, 102563, Control_c, 0, 64, 127
1, 102570, Note_off_c, 0, 82, 64
1, 102572, Note_off_c, 0, 80, 64
1, 102624, Poly_aftertouch_c, 0, 81, 0
1, 102875, Note_on_c, 0, 59, 74
1, 102877, Note_on_c, 0, 56, 66
1, 102882, Note_on_c, 0, 79, 96
1, 103034, Note_off_c, 0, 79, 55
1, 103044, Note_on_c, 0, 67, 90
1, 103164, Control_c, 0, 64, 88
1, 103178, Control_c, 0, 64, 67
1, 103192, Note_off_c, 0, 59, 46
1, 103193, Control_c, 0, 64, 41
1, 103195, Note_on_c, 0, 66, 90
1, 103201, Note_on_c, 0, 51, 76
1, 103201, Note_off_c, 0, 67, 62
1, 103202, Note_on_c, 0, 58, 78
1, 103208, Control_c, 0, 64, 0
1, 103211, Note_off_c, 0, 56, 60
1, 103237, Control_c, 0, 64, 17
1, 103252, Control_c, 0, 64, 43
1, 103267, Control_c, 0, 64, 55
1, 103282, Control_c, 0, 64, 61
1, 103297, Control_c, 0, 64, 64
1, 103311, Control_c, 0, 64, 66
1, 103326, Note_off_c, 0, 66, 67
1, 103326, Control_c, 0, 64, 70
1, 103341, Control_c, 0, 64, 78
1, 103347, Note_on_c, 0, 67, 87
1, 103356, Control_c, 0, 64, 92
1, 103371, Control_c, 0, 64, 127
1, 103487, Note_off_c, 0, 67, 61
1, 103490, Control_c, 0, 64, 95
1, 103505, Control_c, 0, 64, 71
1, 103511, Note_on_c, 0, 79, 90
1, 103511, Note_off_c, 0, 51, 57
1, 103514, Note_off_c, 0, 58, 60
1, 103517, Note_on_c, 0, 59, 79
1, 103519, Control_c, 0, 64, 51
1, 103522, Note_on_c, 0, 56, 67
1, 103534, Control_c, 0, 64, 0
1, 103579, Control_c, 0, 64, 11
1, 103594, Control_c, 0, 64, 38
1, 103609, Control_c, 0, 64, 53
1, 103624, Control_c, 0, 64, 60
1, 103639, Note_off_c, 0, 79, 57
1, 103639, Control_c, 0, 64, 63
1, 103654, Control_c, 0, 64, 66
1, 103666, Note_on_c, 0, 67, 85
1, 103668, Control_c, 0, 64, 70
1, 103683, Control_c, 0, 64, 76
1, 103698, Control_c, 0, 64, 86
1, 103713, Control_c, 0, 64, 127
1, 103776, Note_off_c, 0, 67, 62
1, 103809, Control_c, 0, 64, 97
1, 103824, Note_on_c, 0, 66, 84
1, 103824, Note_off_c, 0, 59, 60
1, 103824, Control_c, 0, 64, 77
1, 103828, Note_off_c, 0, 56, 61
1, 103829, Note_on_c, 0, 58, 72
1, 103830, Note_on_c, 0, 51, 70
1, 103838, Control_c, 0, 64, 65
1, 103853, Control_c, 0, 64, 54
1, 103868, Control_c, 0, 64, 42
1, 103883, Control_c, 0, 64, 29
1, 103898, Control_c, 0, 64, 0
1, 103943, Note_off_c, 0, 66, 62
1, 103958, Note_on_c, 0, 67, 85
1, 104095, Note_off_c, 0, 67, 61
1, 104113, Note_off_c, 0, 58, 57
1, 104114, Note_off_c, 0, 51, 58
1, 104122, Note_on_c, 0, 79, 82
1, 104122, Note_on_c, 0, 59, 72
1, 104131, Note_on_c, 0, 56, 64
1, 104154, Note_off_c, 0, 59, 64
1, 104159, Note_off_c, 0, 79, 66
1, 104183, Note_on_c, 0, 67, 71
1, 104210, Note_off_c, 0, 67, 68
1, 104278, Note_on_c, 0, 65, 63
1, 104306, Note_off_c, 0, 65, 66
1, 104321, Note_on_c, 0, 67, 66
1, 104399, Note_off_c, 0, 67, 64
1, 104399, Note_on_c, 0, 51, 71
1, 104402, Note_on_c, 0, 58, 78
1, 104402, Note_off_c, 0, 56, 37
1, 104414, Note_on_c, 0, 55, 72
1, 104417, Control_c, 0, 64, 39
1, 104427, Note_off_c, 0, 58, 67
1, 104430, Note_off_c, 0, 51, 68
1, 104432, Control_c, 0, 64, 56
1, 104444, Note_off_c, 0, 55, 68
1, 104447, Control_c, 0, 64, 63
1, 104462, Control_c, 0, 64, 67
1, 104476, Control_c, 0, 64, 74
1, 104491, Control_c, 0, 64, 98
1, 104506, Control_c, 0, 64, 127
1, 104676, Control_c, 0, 64, 95
1, 104691, Control_c, 0, 64, 69
1, 104706, Control_c, 0, 64, 50
1, 104717, Note_on_c, 0, 46, 88
1, 104718, Note_on_c, 0, 67, 74
1, 104721, Control_c, 0, 64, 9
1, 104724, Note_on_c, 0, 34, 79
1, 104736, Control_c, 0, 64, 33
1, 104747, Note_off_c, 0, 46, 67
1, 104751, Control_c, 0, 64, 51
1, 104751, Note_off_c, 0, 67, 65
1, 104755, Note_off_c, 0, 34, 66
1, 104765, Control_c, 0, 64, 61
1, 104774, Note_on_c, 0, 55, 71
1, 104780, Control_c, 0, 64, 68
1, 104795, Control_c, 0, 64, 82
1, 104809, Note_off_c, 0, 55, 64
1, 104810, Control_c, 0, 64, 127
1, 104864, Note_on_c, 0, 48, 75
1, 104899, Control_c, 0, 64, 105
1, 104914, Control_c, 0, 64, 71
1, 104929, Control_c, 0, 64, 34
1, 104929, Note_off_c, 0, 48, 64
1, 104931, Note_on_c, 0, 49, 76
1, 104943, Control_c, 0, 64, 0
1, 104997, Note_off_c, 0, 49, 64
1, 105003, Control_c, 0, 64, 27
1, 105005, Note_on_c, 0, 50, 88
1, 105006, Note_on_c, 0, 39, 85
1, 105013, Note_on_c, 0, 27, 66
1, 105018, Control_c, 0, 64, 63
1, 105032, Control_c, 0, 64, 81
1, 105040, Note_off_c, 0, 50, 65
1, 105043, Note_off_c, 0, 27, 59
1, 105045, Note_off_c, 0, 39, 61
1, 105047, Control_c, 0, 64, 127
1, 105181, Control_c, 0, 64, 102
1, 105196, Control_c, 0, 64, 92
1, 105211, Control_c, 0, 64, 84
1, 105226, Control_c, 0, 64, 75
1, 105241, Control_c, 0, 64, 67
1, 105255, Control_c, 0, 64, 59
1, 105270, Control_c, 0, 64, 38
1, 105285, Control_c, 0, 64, 0
1, 105381, Note_on_c, 0, 62, 58
1, 105383, Note_on_c, 0, 58, 47
1, 105404, Note_on_c, 0, 51, 36
1, 105570, Note_off_c, 0, 51, 38
1, 105582, Note_on_c, 0, 46, 39
1, 105723, Note_off_c, 0, 58, 49
1, 105735, Note_off_c, 0, 46, 42
1, 105739, Note_on_c, 0, 61, 41
1, 105742, Note_on_c, 0, 45, 37
1, 105746, Note_on_c, 0, 55, 24
1, 105781, Control_c, 0, 64, 27
1, 105796, Control_c, 0, 64, 46
1, 105811, Control_c, 0, 64, 55
1, 105826, Control_c, 0, 64, 60
1, 105841, Control_c, 0, 64, 63
1, 105855, Control_c, 0, 64, 66
1, 105870, Control_c, 0, 64, 69
1, 105876, Note_off_c, 0, 45, 57
1, 105885, Control_c, 0, 64, 77
1, 105901, Control_c, 0, 64, 91
1, 105914, Note_off_c, 0, 61, 36
1, 105916, Control_c, 0, 64, 127
1, 105919, Note_on_c, 0, 46, 44
1, 105956, Note_off_c, 0, 62, 49
1, 106019, Control_c, 0, 64, 99
1, 106023, Note_off_c, 0, 55, 41
1, 106034, Control_c, 0, 64, 79
1, 106040, Note_off_c, 0, 46, 53
1, 106056, Control_c, 0, 64, 66
1, 106067, Note_on_c, 0, 63, 58
1, 106068, Note_on_c, 0, 62, 54
1, 106070, Note_on_c, 0, 58, 46
1, 106071, Control_c, 0, 64, 54
1, 106083, Note_on_c, 0, 51, 50
1, 106086, Control_c, 0, 64, 41
1, 106101, Control_c, 0, 64, 41
1, 106116, Control_c, 0, 64, 44
1, 106130, Control_c, 0, 64, 44
1, 106145, Control_c, 0, 64, 45
1, 106202, Note_off_c, 0, 51, 36
1, 106219, Control_c, 0, 64, 44
1, 106247, Note_on_c, 0, 39, 35
1, 106364, Note_off_c, 0, 62, 53
1, 106369, Note_off_c, 0, 39, 47
1, 106375, Note_off_c, 0, 58, 49
1, 106395, Note_on_c, 0, 61, 30
1, 106396, Control_c, 0, 64, 45
1, 106408, Note_on_c, 0, 38, 38
1, 106411, Control_c, 0, 64, 45
1, 106415, Note_on_c, 0, 55, 30
1, 106426, Control_c, 0, 64, 47
1, 106441, Control_c, 0, 64, 49
1, 106456, Control_c, 0, 64, 52
1, 106471, Control_c, 0, 64, 56
1, 106485, Control_c, 0, 64, 58
1, 106500, Control_c, 0, 64, 61
1, 106515, Control_c, 0, 64, 63
1, 106529, Control_c, 0, 64, 64
1, 106532, Note_off_c, 0, 38, 54
1, 106544, Control_c, 0, 64, 66
1, 106559, Control_c, 0, 64, 68
1, 106565, Note_on_c, 0, 39, 38
1, 106574, Control_c, 0, 64, 70
1, 106588, Control_c, 0, 64, 71
1, 106603, Control_c, 0, 64, 72
1, 106618, Control_c, 0, 64, 71
1, 106633, Control_c, 0, 64, 69
1, 106637, Note_off_c, 0, 63, 58
1, 106647, Control_c, 0, 64, 66
1, 106662, Control_c, 0, 64, 61
1, 106664, Note_off_c, 0, 55, 49
1, 106677, Control_c, 0, 64, 53
1, 106679, Note_off_c, 0, 61, 37
1, 106683, Note_off_c, 0, 39, 50
1, 106692, Note_on_c, 0, 64, 73
1, 106693, Control_c, 0, 64, 40
1, 106703, Note_on_c, 0, 62, 59
1, 106706, Note_on_c, 0, 51, 51
1, 106708, Control_c, 0, 64, 27
1, 106715, Note_on_c, 0, 58, 40
1, 106723, Control_c, 0, 64, 15
1, 106737, Control_c, 0, 64, 0
1, 106842, Note_off_c, 0, 51, 34
1, 106849, Note_off_c, 0, 58, 0
1, 106879, Note_on_c, 0, 46, 43
1, 106887, Poly_aftertouch_c, 0, 58, 127
1, 107001, Note_off_c, 0, 46, 51
1, 107028, Note_off_c, 0, 62, 47
1, 107037, Note_on_c, 0, 61, 48
1, 107037, Poly_aftertouch_c, 0, 58, 0
1, 107046, Note_on_c, 0, 45, 36
1, 107054, Note_on_c, 0, 55, 36
1, 107139, Note_off_c, 0, 45, 53
1, 107205, Note_on_c, 0, 46, 35
1, 107227, Note_off_c, 0, 61, 0
1, 107257, Note_off_c, 0, 64, 60
1, 107264, Poly_aftertouch_c, 0, 61, 127
1, 107278, Control_c, 0, 64, 19
1, 107293, Control_c, 0, 64, 32
1, 107308, Control_c, 0, 64, 45
1, 107320, Note_off_c, 0, 46, 49
1, 107323, Control_c, 0, 64, 54
1, 107338, Control_c, 0, 64, 60
1, 107352, Control_c, 0, 64, 64
1, 107354, Note_off_c, 0, 55, 53
1, 107356, Note_on_c, 0, 65, 61
1, 107357, Poly_aftertouch_c, 0, 61, 0
1, 107359, Note_on_c, 0, 51, 50
1, 107363, Note_on_c, 0, 58, 36
1, 107367, Control_c, 0, 64, 68
1, 107377, Note_on_c, 0, 62, 10
1, 107382, Control_c, 0, 64, 76
1, 107390, Note_off_c, 0, 65, 65
1, 107396, Note_off_c, 0, 58, 42
1, 107397, Control_c, 0, 64, 100
1, 107410, Note_off_c, 0, 62, 0
1, 107412, Control_c, 0, 64, 127
1, 107433, Poly_aftertouch_c, 0, 62, 0
1, 107437, Note_off_c, 0, 51, 51
1, 107520, Note_on_c, 0, 39, 41
1, 107657, Control_c, 0, 64, 93
1, 107663, Note_off_c, 0, 39, 0
1, 107666, Note_on_c, 0, 89, 87
1, 107672, Control_c, 0, 64, 70
1, 107684, Note_on_c, 0, 38, 44
1, 107687, Control_c, 0, 64, 47
1, 107687, Poly_aftertouch_c, 0, 39, 0
1, 107702, Control_c, 0, 64, 0
1, 107703, Note_off_c, 0, 89, 65
1, 107731, Note_on_c, 0, 77, 68
1, 107761, Note_off_c, 0, 77, 66
1, 107773, Note_off_c, 0, 38, 52
1, 107825, Note_on_c, 0, 39, 39
1, 107875, Note_on_c, 0, 79, 66
1, 107924, Note_off_c, 0, 79, 65
1, 107949, Note_off_c, 0, 39, 53
1, 107955, Note_on_c, 0, 67, 73
1, 107974, Note_on_c, 0, 51, 56
1, 107978, Note_off_c, 0, 67, 68
1, 108062, Note_off_c, 0, 51, 50
1, 108126, Note_on_c, 0, 46, 43
1, 108172, Note_on_c, 0, 64, 74
1, 108198, Note_off_c, 0, 64, 68
1, 108246, Note_on_c, 0, 64, 75
1, 108264, Note_off_c, 0, 46, 34
1, 108274, Note_on_c, 0, 55, 48
1, 108279, Note_on_c, 0, 61, 50
1, 108295, Note_on_c, 0, 45, 33
1, 108392, Note_off_c, 0, 45, 55
1, 108402, Note_off_c, 0, 61, 41
1, 108415, Note_off_c, 0, 55, 59
1, 108433, Note_on_c, 0, 46, 45
1, 108529, Note_off_c, 0, 46, 60
1, 108557, Note_on_c, 0, 51, 58
1, 108560, Note_on_c, 0, 58, 62
1, 108566, Note_on_c, 0, 62, 53
1, 108599, Control_c, 0, 64, 28
1, 108610, Note_off_c, 0, 51, 55
1, 108614, Control_c, 0, 64, 45
1, 108629, Control_c, 0, 64, 55
1, 108644, Control_c, 0, 64, 59
1, 108659, Control_c, 0, 64, 61
1, 108673, Control_c, 0, 64, 64
1, 108688, Control_c, 0, 64, 66
1, 108702, Note_on_c, 0, 39, 40
1, 108703, Control_c, 0, 64, 69
1, 108717, Control_c, 0, 64, 75
1, 108732, Control_c, 0, 64, 81
1, 108745, Note_off_c, 0, 62, 19
1, 108747, Control_c, 0, 64, 89
1, 108752, Note_off_c, 0, 64, 62
1, 108757, Note_on_c, 0, 65, 76
1, 108759, Note_off_c, 0, 58, 40
1, 108762, Control_c, 0, 64, 94
1, 108777, Control_c, 0, 64, 96
1, 108790, Note_off_c, 0, 65, 62
1, 108791, Control_c, 0, 64, 93
1, 108806, Control_c, 0, 64, 87
1, 108821, Control_c, 0, 64, 76
1, 108836, Control_c, 0, 64, 63
1, 108840, Note_on_c, 0, 65, 74
1, 108847, Note_on_c, 0, 38, 49
1, 108851, Control_c, 0, 64, 29
1, 108861, Note_off_c, 0, 39, 34
1, 108861, Note_on_c, 0, 55, 60
1, 108865, Control_c, 0, 64, 0
1, 108876, Note_on_c, 0, 61, 43
1, 108978, Note_off_c, 0, 38, 53
1, 108983, Note_off_c, 0, 61, 0
1, 109019, Poly_aftertouch_c, 0, 61, 127
1, 109020, Note_on_c, 0, 39, 43
1, 109061, Note_off_c, 0, 55, 35
1, 109079, Poly_aftertouch_c, 0, 61, 0
1, 109164, Note_off_c, 0, 39, 55
1, 109179, Note_on_c, 0, 51, 60
1, 109182, Note_on_c, 0, 58, 64
1, 109183, Note_on_c, 0, 62, 56
1, 109303, Note_off_c, 0, 51, 35
1, 109339, Note_on_c, 0, 46, 46
1, 109393, Note_on_c, 0, 66, 80
1, 109395, Note_off_c, 0, 65, 63
1, 109398, Note_off_c, 0, 62, 64
1, 109414, Note_off_c, 0, 58, 59
1, 109428, Note_off_c, 0, 66, 61
1, 109478, Note_off_c, 0, 46, 61
1, 109482, Note_on_c, 0, 66, 74
1, 109497, Note_on_c, 0, 55, 64
1, 109500, Note_on_c, 0, 45, 46
1, 109507, Note_on_c, 0, 61, 57
1, 109630, Note_off_c, 0, 45, 58
1, 109675, Note_on_c, 0, 46, 41
1, 109698, Note_off_c, 0, 61, 48
1, 109705, Note_off_c, 0, 55, 43
1, 109800, Note_off_c, 0, 46, 60
1, 109823, Note_on_c, 0, 62, 63
1, 109826, Note_on_c, 0, 58, 62
1, 109828, Note_on_c, 0, 51, 54
1, 109962, Note_off_c, 0, 51, 34
1, 109986, Note_on_c, 0, 39, 44
1, 110013, Note_off_c, 0, 58, 59
1, 110040, Note_on_c, 0, 67, 74
1, 110040, Note_off_c, 0, 62, 63
1, 110042, Note_off_c, 0, 66, 62
1, 110074, Note_off_c, 0, 67, 64
1, 110106, Note_off_c, 0, 39, 56
1, 110130, Note_on_c, 0, 38, 48
1, 110146, Note_on_c, 0, 67, 41
1, 110146, Note_on_c, 0, 55, 55
1, 110150, Note_on_c, 0, 61, 55
1, 110264, Note_off_c, 0, 38, 52
1, 110315, Note_on_c, 0, 39, 41
1, 110340, Note_off_c, 0, 67, 52
1, 110386, Note_off_c, 0, 55, 13
1, 110387, Note_off_c, 0, 61, 42
1, 110433, Note_on_c, 0, 67, 74
1, 110438, Note_on_c, 0, 65, 74
1, 110438, Note_off_c, 0, 39, 52
1, 110441, Note_on_c, 0, 61, 59
1, 110456, Note_on_c, 0, 51, 53
1, 110543, Note_off_c, 0, 51, 51
1, 110619, Note_on_c, 0, 46, 42
1, 110736, Note_off_c, 0, 46, 57
1, 110760, Note_off_c, 0, 65, 58
1, 110772, Note_on_c, 0, 55, 52
1, 110774, Note_on_c, 0, 64, 57
1, 110775, Note_off_c, 0, 61, 42
1, 110787, Note_on_c, 0, 45, 37
1, 110816, Control_c, 0, 64, 12
1, 110831, Control_c, 0, 64, 30
1, 110846, Control_c, 0, 64, 42
1, 110861, Control_c, 0, 64, 54
1, 110875, Control_c, 0, 64, 60
1, 110890, Control_c, 0, 64, 63
1, 110896, Note_off_c, 0, 45, 56
1, 110905, Control_c, 0, 64, 65
1, 110919, Control_c, 0, 64, 67
1, 110934, Control_c, 0, 64, 71
1, 110945, Note_on_c, 0, 46, 49
1, 110949, Control_c, 0, 64, 79
1, 110964, Control_c, 0, 64, 87
1, 110977, Note_off_c, 0, 55, 30
1, 110979, Control_c, 0, 64, 96
1, 110988, Note_off_c, 0, 67, 44
1, 110993, Control_c, 0, 64, 99
1, 111022, Control_c, 0, 64, 97
1, 111037, Control_c, 0, 64, 93
1, 111052, Control_c, 0, 64, 85
1, 111067, Control_c, 0, 64, 73
1, 111069, Note_off_c, 0, 46, 57
1, 111082, Control_c, 0, 64, 60
1, 111089, Note_on_c, 0, 65, 66
1, 111091, Note_on_c, 0, 68, 79
1, 111091, Note_off_c, 0, 64, 37
1, 111095, Note_on_c, 0, 61, 65
1, 111097, Control_c, 0, 64, 0
1, 111101, Note_on_c, 0, 51, 54
1, 111200, Note_off_c, 0, 51, 47
1, 111260, Note_on_c, 0, 39, 38
1, 111418, Note_off_c, 0, 65, 58
1, 111422, Note_off_c, 0, 39, 43
1, 111422, Note_on_c, 0, 64, 52
1, 111426, Note_off_c, 0, 61, 42
1, 111427, Note_on_c, 0, 55, 44
1, 111443, Note_on_c, 0, 38, 41
1, 111460, Control_c, 0, 64, 15
1, 111474, Control_c, 0, 64, 34
1, 111490, Control_c, 0, 64, 50
1, 111505, Control_c, 0, 64, 60
1, 111520, Control_c, 0, 64, 65
1, 111535, Control_c, 0, 64, 68
1, 111549, Control_c, 0, 64, 72
1, 111564, Control_c, 0, 64, 81
1, 111579, Control_c, 0, 64, 94
1, 111581, Note_off_c, 0, 38, 50
1, 111594, Control_c, 0, 64, 113
1, 111599, Note_off_c, 0, 55, 32
1, 111604, Note_on_c, 0, 39, 48
1, 111609, Control_c, 0, 64, 127
1, 111653, Note_off_c, 0, 68, 60
1, 111683, Control_c, 0, 64, 104
1, 111697, Control_c, 0, 64, 87
1, 111699, Note_off_c, 0, 64, 38
1, 111712, Control_c, 0, 64, 69
1, 111714, Note_off_c, 0, 39, 57
1, 111720, Note_on_c, 0, 65, 63
1, 111727, Note_on_c, 0, 69, 81
1, 111727, Control_c, 0, 64, 50
1, 111741, Note_on_c, 0, 61, 59
1, 111742, Note_on_c, 0, 51, 58
1, 111742, Control_c, 0, 64, 0
1, 111790, Note_off_c, 0, 61, 50
1, 111845, Note_off_c, 0, 51, 50
1, 111872, Note_on_c, 0, 61, 23
1, 111902, Note_on_c, 0, 46, 42
1, 112012, Note_off_c, 0, 46, 56
1, 112042, Note_off_c, 0, 61, 42
1, 112046, Control_c, 0, 64, 16
1, 112061, Control_c, 0, 64, 32
1, 112063, Note_on_c, 0, 55, 42
1, 112072, Note_on_c, 0, 45, 42
1, 112072, Note_on_c, 0, 64, 56
1, 112076, Control_c, 0, 64, 45
1, 112090, Control_c, 0, 64, 58
1, 112104, Note_off_c, 0, 55, 51
1, 112105, Control_c, 0, 64, 62
1, 112120, Control_c, 0, 64, 65
1, 112123, Note_off_c, 0, 65, 35
1, 112134, Control_c, 0, 64, 67
1, 112145, Note_off_c, 0, 64, 63
1, 112148, Note_off_c, 0, 45, 52
1, 112149, Control_c, 0, 64, 72
1, 112164, Control_c, 0, 64, 81
1, 112179, Control_c, 0, 64, 94
1, 112194, Control_c, 0, 64, 121
1, 112209, Control_c, 0, 64, 127
1, 112219, Note_on_c, 0, 46, 51
1, 112243, Note_off_c, 0, 69, 42
1, 112268, Control_c, 0, 64, 110
1, 112284, Control_c, 0, 64, 87
1, 112299, Control_c, 0, 64, 71
1, 112313, Control_c, 0, 64, 54
1, 112327, Note_on_c, 0, 65, 32
1, 112328, Control_c, 0, 64, 0
1, 112333, Note_off_c, 0, 46, 59
1, 112350, Note_on_c, 0, 70, 77
1, 112355, Note_on_c, 0, 61, 64
1, 112368, Note_on_c, 0, 51, 55
1, 112372, Note_off_c, 0, 65, 65
1, 112373, Control_c, 0, 64, 34
1, 112381, Note_off_c, 0, 61, 62
1, 112388, Control_c, 0, 64, 52
1, 112402, Note_off_c, 0, 70, 66
1, 112403, Control_c, 0, 64, 64
1, 112417, Control_c, 0, 64, 72
1, 112432, Control_c, 0, 64, 87
1, 112433, Note_off_c, 0, 51, 52
1, 112447, Control_c, 0, 64, 127
1, 112504, Note_on_c, 0, 39, 50
1, 112623, Note_off_c, 0, 39, 52
1, 112638, Note_on_c, 0, 94, 84
1, 112654, Control_c, 0, 64, 112
1, 112663, Note_on_c, 0, 38, 50
1, 112669, Control_c, 0, 64, 80
1, 112682, Note_off_c, 0, 94, 62
1, 112684, Control_c, 0, 64, 62
1, 112696, Note_on_c, 0, 82, 73
1, 112699, Control_c, 0, 64, 0
1, 112736, Note_off_c, 0, 82, 55
1, 112768, Note_off_c, 0, 38, 46
1, 112785, Note_on_c, 0, 81, 62
1, 112821, Note_on_c, 0, 39, 41
1, 112847, Note_off_c, 0, 81, 66
1, 112856, Note_on_c, 0, 82, 67
1, 112920, Note_off_c, 0, 39, 51
1, 112939, Note_off_c, 0, 82, 65
1, 112948, Note_on_c, 0, 51, 53
1, 112948, Note_on_c, 0, 70, 80
1, 112957, Control_c, 0, 64, 41
1, 112971, Note_off_c, 0, 70, 68
1, 112972, Control_c, 0, 64, 53
1, 112987, Control_c, 0, 64, 60
1, 113002, Control_c, 0, 64, 66
1, 113017, Control_c, 0, 64, 79
1, 113032, Control_c, 0, 64, 118
1, 113046, Control_c, 0, 64, 127
1, 113112, Note_on_c, 0, 46, 47
1, 113117, Note_off_c, 0, 51, 27
1, 113178, Note_on_c, 0, 69, 60
1, 113178, Note_on_c, 0, 71, 55
1, 113198, Note_off_c, 0, 71, 61
1, 113203, Note_off_c, 0, 69, 65
1, 113210, Control_c, 0, 64, 87
1, 113225, Control_c, 0, 64, 64
1, 113239, Control_c, 0, 64, 0
1, 113248, Note_off_c, 0, 46, 37
1, 113250, Note_on_c, 0, 69, 85
1, 113264, Note_on_c, 0, 64, 68
1, 113270, Note_on_c, 0, 55, 58
1, 113272, Note_on_c, 0, 45, 43
1, 113372, Control_c, 0, 64, 11
1, 113380, Note_off_c, 0, 55, 59
1, 113386, Control_c, 0, 64, 35
1, 113401, Control_c, 0, 64, 43
1, 113412, Note_off_c, 0, 45, 58
1, 113413, Note_off_c, 0, 64, 60
1, 113431, Control_c, 0, 64, 41
1, 113437, Note_on_c, 0, 46, 46
1, 113446, Control_c, 0, 64, 33
1, 113461, Control_c, 0, 64, 13
1, 113476, Control_c, 0, 64, 0
1, 113544, Note_off_c, 0, 46, 60
1, 113553, Note_on_c, 0, 65, 68
1, 113559, Note_on_c, 0, 61, 66
1, 113569, Note_on_c, 0, 51, 60
1, 113586, Control_c, 0, 64, 36
1, 113601, Control_c, 0, 64, 51
1, 113616, Control_c, 0, 64, 61
1, 113631, Control_c, 0, 64, 67
1, 113646, Control_c, 0, 64, 73
1, 113661, Control_c, 0, 64, 82
1, 113674, Note_off_c, 0, 51, 37
1, 113675, Control_c, 0, 64, 97
1, 113690, Control_c, 0, 64, 117
1, 113705, Control_c, 0, 64, 127
1, 113712, Note_on_c, 0, 39, 47
1, 113726, Note_off_c, 0, 61, 47
1, 113762, Note_off_c, 0, 65, 61
1, 113770, Note_off_c, 0, 69, 63
1, 113771, Note_on_c, 0, 70, 78
1, 113795, Note_off_c, 0, 70, 65
1, 113824, Control_c, 0, 64, 101
1, 113836, Note_off_c, 0, 39, 49
1, 113839, Control_c, 0, 64, 80
1, 113852, Note_on_c, 0, 70, 79
1, 113854, Control_c, 0, 64, 64
1, 113856, Note_on_c, 0, 38, 52
1, 113866, Note_on_c, 0, 58, 64
1, 113868, Control_c, 0, 64, 16
1, 113869, Note_on_c, 0, 64, 60
1, 113884, Control_c, 0, 64, 0
1, 113989, Note_off_c, 0, 38, 47
1, 114043, Note_on_c, 0, 39, 47
1, 114051, Note_off_c, 0, 64, 62
1, 114064, Note_off_c, 0, 58, 53
1, 114155, Note_off_c, 0, 39, 59
1, 114173, Note_on_c, 0, 65, 64
1, 114173, Note_on_c, 0, 61, 67
1, 114181, Note_on_c, 0, 51, 55
1, 114209, Control_c, 0, 64, 34
1, 114224, Control_c, 0, 64, 45
1, 114239, Control_c, 0, 64, 55
1, 114254, Control_c, 0, 64, 62
1, 114269, Control_c, 0, 64, 66
1, 114287, Note_off_c, 0, 61, 52
1, 114291, Control_c, 0, 64, 69
1, 114301, Note_off_c, 0, 51, 36
1, 114306, Control_c, 0, 64, 72
1, 114321, Control_c, 0, 64, 78
1, 114335, Control_c, 0, 64, 85
1, 114343, Note_on_c, 0, 46, 45
1, 114350, Control_c, 0, 64, 90
1, 114359, Note_off_c, 0, 65, 57
1, 114365, Control_c, 0, 64, 92
1, 114394, Note_on_c, 0, 71, 76
1, 114394, Note_off_c, 0, 70, 64
1, 114409, Control_c, 0, 64, 91
1, 114418, Note_off_c, 0, 71, 68
1, 114424, Control_c, 0, 64, 87
1, 114439, Control_c, 0, 64, 81
1, 114448, Note_off_c, 0, 46, 54
1, 114454, Control_c, 0, 64, 72
1, 114469, Control_c, 0, 64, 61
1, 114473, Note_on_c, 0, 71, 82
1, 114482, Note_on_c, 0, 45, 49
1, 114483, Control_c, 0, 64, 26
1, 114485, Note_on_c, 0, 62, 63
1, 114486, Note_on_c, 0, 66, 64
1, 114498, Control_c, 0, 64, 0
1, 114595, Note_off_c, 0, 45, 54
1, 114638, Note_on_c, 0, 46, 41
1, 114648, Note_off_c, 0, 62, 20
1, 114659, Note_off_c, 0, 66, 38
1, 114751, Note_off_c, 0, 46, 62
1, 114787, Note_on_c, 0, 51, 53
1, 114793, Note_on_c, 0, 61, 55
1, 114793, Note_on_c, 0, 65, 55
1, 114870, Note_off_c, 0, 51, 50
1, 114930, Note_off_c, 0, 61, 50
1, 114942, Note_on_c, 0, 39, 43
1, 114967, Note_off_c, 0, 65, 58
1, 114991, Note_on_c, 0, 72, 73
1, 114996, Note_off_c, 0, 71, 59
1, 115016, Note_off_c, 0, 72, 69
1, 115068, Note_off_c, 0, 39, 60
1, 115085, Note_on_c, 0, 38, 55
1, 115087, Note_on_c, 0, 72, 80
1, 115097, Note_on_c, 0, 66, 66
1, 115100, Note_on_c, 0, 60, 63
1, 115167, Note_off_c, 0, 60, 45
1, 115188, Control_c, 0, 64, 28
1, 115202, Note_off_c, 0, 38, 53
1, 115203, Control_c, 0, 64, 40
1, 115218, Control_c, 0, 64, 48
1, 115231, Note_off_c, 0, 66, 60
1, 115232, Control_c, 0, 64, 55
1, 115247, Control_c, 0, 64, 62
1, 115262, Control_c, 0, 64, 67
1, 115264, Note_on_c, 0, 39, 38
1, 115277, Control_c, 0, 64, 73
1, 115292, Control_c, 0, 64, 81
1, 115306, Control_c, 0, 64, 92
1, 115308, Note_off_c, 0, 72, 57
1, 115321, Control_c, 0, 64, 102
1, 115336, Control_c, 0, 64, 110
1, 115351, Control_c, 0, 64, 110
1, 115366, Control_c, 0, 64, 110
1, 115380, Control_c, 0, 64, 107
1, 115395, Control_c, 0, 64, 102
1, 115410, Control_c, 0, 64, 92
1, 115412, Note_on_c, 0, 77, 94
1, 115418, Note_on_c, 0, 50, 60
1, 115425, Control_c, 0, 64, 78
1, 115440, Note_off_c, 0, 39, 40
1, 115440, Control_c, 0, 64, 63
1, 115455, Control_c, 0, 64, 29
1, 115470, Control_c, 0, 64, 0
1, 115504, Note_off_c, 0, 50, 53
1, 115588, Note_on_c, 0, 38, 49
1, 115702, Note_off_c, 0, 38, 61
1, 115724, Note_on_c, 0, 65, 68
1, 115728, Note_on_c, 0, 37, 56
1, 115730, Note_on_c, 0, 68, 51
1, 115730, Note_on_c, 0, 71, 60
1, 115884, Note_off_c, 0, 37, 60
1, 115905, Note_on_c, 0, 38, 55
1, 115980, Note_off_c, 0, 65, 56
1, 116018, Note_off_c, 0, 38, 60
1, 116036, Note_off_c, 0, 68, 57
1, 116037, Note_off_c, 0, 71, 63
1, 116054, Note_on_c, 0, 50, 66
1, 116065, Note_on_c, 0, 64, 67
1, 116174, Note_off_c, 0, 50, 53
1, 116224, Note_on_c, 0, 38, 54
1, 116255, Note_off_c, 0, 64, 48
1, 116349, Note_off_c, 0, 38, 61
1, 116368, Control_c, 0, 64, 13
1, 116377, Note_on_c, 0, 37, 55
1, 116377, Note_on_c, 0, 65, 60
1, 116379, Note_on_c, 0, 71, 63
1, 116379, Note_on_c, 0, 68, 53
1, 116383, Control_c, 0, 64, 39
1, 116398, Control_c, 0, 64, 50
1, 116412, Control_c, 0, 64, 56
1, 116421, Note_off_c, 0, 77, 57
1, 116427, Control_c, 0, 64, 60
1, 116442, Note_off_c, 0, 71, 63
1, 116442, Control_c, 0, 64, 66
1, 116454, Note_off_c, 0, 68, 61
1, 116457, Control_c, 0, 64, 74
1, 116458, Note_off_c, 0, 65, 61
1, 116472, Control_c, 0, 64, 95
1, 116486, Control_c, 0, 64, 127
1, 116493, Note_off_c, 0, 37, 53
1, 116539, Note_on_c, 0, 38, 50
1, 116642, Control_c, 0, 64, 89
1, 116657, Control_c, 0, 64, 67
1, 116668, Note_off_c, 0, 38, 37
1, 116672, Control_c, 0, 64, 52
1, 116686, Control_c, 0, 64, 46
1, 116688, Note_on_c, 0, 56, 83
1, 116701, Control_c, 0, 64, 54
1, 116704, Note_on_c, 0, 50, 57
1, 116716, Control_c, 0, 64, 60
1, 116731, Control_c, 0, 64, 63
1, 116746, Control_c, 0, 64, 67
1, 116755, Note_off_c, 0, 56, 63
1, 116761, Control_c, 0, 64, 75
1, 116773, Note_off_c, 0, 50, 58
1, 116776, Control_c, 0, 64, 92
1, 116790, Control_c, 0, 64, 127
1, 116860, Note_on_c, 0, 38, 49
1, 116969, Note_off_c, 0, 38, 57
1, 116982, Control_c, 0, 64, 97
1, 116997, Control_c, 0, 64, 75
1, 117011, Control_c, 0, 64, 62
1, 117012, Note_on_c, 0, 37, 42
1, 117023, Note_on_c, 0, 65, 67
1, 117023, Note_on_c, 0, 71, 64
1, 117026, Control_c, 0, 64, 38
1, 117035, Note_on_c, 0, 68, 53
1, 117056, Control_c, 0, 64, 48
1, 117071, Control_c, 0, 64, 56
1, 117087, Control_c, 0, 64, 60
1, 117101, Control_c, 0, 64, 63
1, 117116, Control_c, 0, 64, 66
1, 117131, Control_c, 0, 64, 70
1, 117138, Note_off_c, 0, 37, 60
1, 117146, Control_c, 0, 64, 76
1, 117161, Control_c, 0, 64, 85
1, 117175, Control_c, 0, 64, 109
1, 117178, Note_on_c, 0, 38, 44
1, 117190, Control_c, 0, 64, 127
1, 117217, Note_off_c, 0, 65, 51
1, 117309, Note_off_c, 0, 38, 37
1, 117317, Note_off_c, 0, 71, 61
1, 117330, Note_on_c, 0, 76, 90
1, 117331, Control_c, 0, 64, 87
1, 117341, Note_on_c, 0, 64, 80
1, 117346, Control_c, 0, 64, 69
1, 117348, Note_on_c, 0, 50, 56
1, 117353, Note_off_c, 0, 68, 37
1, 117361, Control_c, 0, 64, 56
1, 117376, Control_c, 0, 64, 41
1, 117390, Control_c, 0, 64, 43
1, 117405, Control_c, 0, 64, 50
1, 117420, Control_c, 0, 64, 55
1, 117434, Note_off_c, 0, 50, 55
1, 117434, Control_c, 0, 64, 59
1, 117449, Control_c, 0, 64, 62
1, 117464, Control_c, 0, 64, 65
1, 117479, Control_c, 0, 64, 68
1, 117494, Control_c, 0, 64, 73
1, 117509, Control_c, 0, 64, 81
1, 117509, Note_on_c, 0, 38, 47
1, 117524, Control_c, 0, 64, 89
1, 117539, Control_c, 0, 64, 98
1, 117544, Note_off_c, 0, 64, 59
1, 117553, Control_c, 0, 64, 110
1, 117568, Control_c, 0, 64, 121
1, 117583, Control_c, 0, 64, 113
1, 117598, Control_c, 0, 64, 100
1, 117613, Control_c, 0, 64, 85
1, 117622, Note_off_c, 0, 38, 60
1, 117627, Control_c, 0, 64, 70
1, 117642, Control_c, 0, 64, 60
1, 117651, Note_on_c, 0, 37, 50
1, 117654, Note_on_c, 0, 65, 62
1, 117657, Control_c, 0, 64, 51
1, 117660, Note_on_c, 0, 68, 48
1, 117670, Note_on_c, 0, 71, 52
1, 117672, Control_c, 0, 64, 50
1, 117687, Control_c, 0, 64, 54
1, 117701, Control_c, 0, 64, 57
1, 117716, Control_c, 0, 64, 61
1, 117731, Control_c, 0, 64, 64
1, 117746, Control_c, 0, 64, 68
1, 117760, Control_c, 0, 64, 74
1, 117775, Note_off_c, 0, 37, 58
1, 117775, Control_c, 0, 64, 87
1, 117790, Control_c, 0, 64, 108
1, 117791, Note_off_c, 0, 76, 57
1, 117801, Note_on_c, 0, 38, 57
1, 117805, Control_c, 0, 64, 127
1, 117874, Note_off_c, 0, 71, 63
1, 117924, Note_off_c, 0, 65, 58
1, 117924, Control_c, 0, 64, 104
1, 117939, Control_c, 0, 64, 77
1, 117948, Note_on_c, 0, 73, 91
1, 117948, Note_off_c, 0, 38, 38
1, 117954, Control_c, 0, 64, 62
1, 117966, Note_on_c, 0, 50, 61
1, 117969, Control_c, 0, 64, 51
1, 117979, Note_off_c, 0, 68, 39
1, 117984, Control_c, 0, 64, 49
1, 117998, Control_c, 0, 64, 50
1, 118013, Control_c, 0, 64, 53
1, 118036, Control_c, 0, 64, 57
1, 118051, Control_c, 0, 64, 62
1, 118064, Note_off_c, 0, 50, 57
1, 118065, Control_c, 0, 64, 65
1, 118080, Control_c, 0, 64, 69
1, 118095, Control_c, 0, 64, 74
1, 118110, Control_c, 0, 64, 82
1, 118125, Note_on_c, 0, 38, 50
1, 118125, Control_c, 0, 64, 94
1, 118139, Control_c, 0, 64, 118
1, 118154, Control_c, 0, 64, 127
1, 118232, Note_off_c, 0, 38, 61
1, 118257, Control_c, 0, 64, 90
1, 118269, Note_on_c, 0, 64, 79
1, 118271, Note_on_c, 0, 70, 72
1, 118272, Control_c, 0, 64, 71
1, 118280, Note_on_c, 0, 67, 60
1, 118281, Note_on_c, 0, 37, 48
1, 118287, Control_c, 0, 64, 60
1, 118302, Control_c, 0, 64, 51
1, 118317, Control_c, 0, 64, 52
1, 118332, Control_c, 0, 64, 54
1, 118346, Control_c, 0, 64, 57
1, 118361, Control_c, 0, 64, 60
1, 118376, Control_c, 0, 64, 63
1, 118391, Control_c, 0, 64, 66
1, 118406, Control_c, 0, 64, 71
1, 118416, Note_off_c, 0, 37, 61
1, 118421, Control_c, 0, 64, 79
1, 118436, Control_c, 0, 64, 90
1, 118445, Note_on_c, 0, 38, 52
1, 118450, Control_c, 0, 64, 111
1, 118464, Note_off_c, 0, 64, 59
1, 118465, Control_c, 0, 64, 127
1, 118577, Note_off_c, 0, 38, 36
1, 118583, Control_c, 0, 64, 92
1, 118598, Control_c, 0, 64, 71
1, 118599, Note_on_c, 0, 50, 63
1, 118600, Note_on_c, 0, 63, 85
1, 118607, Note_off_c, 0, 67, 60
1, 118613, Control_c, 0, 64, 58
1, 118621, Note_off_c, 0, 70, 59
1, 118628, Control_c, 0, 64, 48
1, 118643, Control_c, 0, 64, 49
1, 118657, Control_c, 0, 64, 52
1, 118673, Control_c, 0, 64, 56
1, 118688, Control_c, 0, 64, 60
1, 118693, Note_off_c, 0, 50, 58
1, 118703, Control_c, 0, 64, 65
1, 118718, Control_c, 0, 64, 69
1, 118733, Control_c, 0, 64, 76
1, 118747, Control_c, 0, 64, 90
1, 118752, Note_on_c, 0, 38, 54
1, 118762, Control_c, 0, 64, 127
1, 118827, Note_off_c, 0, 63, 56
1, 118859, Control_c, 0, 64, 85
1, 118874, Control_c, 0, 64, 65
1, 118886, Note_off_c, 0, 38, 61
1, 118888, Control_c, 0, 64, 40
1, 118903, Control_c, 0, 64, 26
1, 118910, Note_on_c, 0, 64, 80
1, 118915, Note_on_c, 0, 70, 68
1, 118918, Control_c, 0, 64, 36
1, 118919, Note_on_c, 0, 37, 51
1, 118928, Note_on_c, 0, 67, 51
1, 118933, Control_c, 0, 64, 49
1, 118948, Control_c, 0, 64, 59
1, 118961, Note_off_c, 0, 73, 61
1, 118962, Control_c, 0, 64, 65
1, 118965, Note_off_c, 0, 67, 64
1, 118977, Control_c, 0, 64, 71
1, 118980, Note_off_c, 0, 70, 63
1, 118992, Control_c, 0, 64, 83
1, 119005, Note_off_c, 0, 64, 64
1, 119006, Control_c, 0, 64, 107
1, 119021, Control_c, 0, 64, 127
1, 119045, Note_off_c, 0, 37, 53
1, 119081, Note_on_c, 0, 38, 51
1, 119169, Control_c, 0, 64, 83
1, 119184, Control_c, 0, 64, 65
1, 119199, Control_c, 0, 64, 53
1, 119211, Note_off_c, 0, 38, 38
1, 119212, Note_on_c, 0, 55, 79
1, 119214, Control_c, 0, 64, 54
1, 119217, Note_on_c, 0, 50, 64
1, 119229, Control_c, 0, 64, 60
1, 119244, Control_c, 0, 64, 64
1, 119259, Control_c, 0, 64, 71
1, 119273, Control_c, 0, 64, 83
1, 119288, Control_c, 0, 64, 127
1, 119297, Note_off_c, 0, 55, 60
1, 119316, Note_off_c, 0, 50, 59
1, 119372, Note_on_c, 0, 38, 57
1, 119496, Control_c, 0, 64, 100
1, 119503, Note_off_c, 0, 38, 59
1, 119511, Control_c, 0, 64, 73
1, 119530, Note_on_c, 0, 64, 76
1, 119533, Control_c, 0, 64, 60
1, 119536, Note_on_c, 0, 70, 73
1, 119539, Note_on_c, 0, 37, 49
1, 119541, Note_on_c, 0, 67, 63
1, 119548, Control_c, 0, 64, 43
1, 119563, Control_c, 0, 64, 43
1, 119578, Control_c, 0, 64, 48
1, 119593, Control_c, 0, 64, 54
1, 119607, Control_c, 0, 64, 60
1, 119622, Control_c, 0, 64, 65
1, 119637, Control_c, 0, 64, 70
1, 119652, Control_c, 0, 64, 79
1, 119666, Note_off_c, 0, 37, 58
1, 119667, Control_c, 0, 64, 95
1, 119682, Control_c, 0, 64, 127
1, 119697, Note_on_c, 0, 38, 47
1, 119733, Note_off_c, 0, 64, 60
1, 119815, Control_c, 0, 64, 102
1, 119819, Note_off_c, 0, 67, 61
1, 119829, Note_off_c, 0, 70, 58
1, 119829, Control_c, 0, 64, 72
1, 119839, Note_off_c, 0, 38, 34
1, 119840, Note_on_c, 0, 74, 87
1, 119844, Control_c, 0, 64, 58
1, 119851, Note_on_c, 0, 63, 78
1, 119852, Note_on_c, 0, 50, 58
1, 119859, Control_c, 0, 64, 46
1, 119874, Control_c, 0, 64, 45
1, 119889, Control_c, 0, 64, 45
1, 119903, Control_c, 0, 64, 47
1, 119918, Control_c, 0, 64, 52
1, 119933, Control_c, 0, 64, 59
1, 119940, Note_off_c, 0, 50, 57
1, 119947, Control_c, 0, 64, 64
1, 119962, Control_c, 0, 64, 69
1, 119978, Control_c, 0, 64, 77
1, 119993, Control_c, 0, 64, 95
1, 120008, Note_on_c, 0, 38, 48
1, 120008, Control_c, 0, 64, 127
1, 120111, Control_c, 0, 64, 91
1, 120123, Note_off_c, 0, 38, 59
1, 120126, Control_c, 0, 64, 70
1, 120141, Control_c, 0, 64, 59
1, 120156, Control_c, 0, 64, 50
1, 120156, Note_off_c, 0, 63, 54
1, 120163, Note_on_c, 0, 37, 46
1, 120163, Note_on_c, 0, 67, 46
1, 120167, Note_on_c, 0, 64, 52
1, 120168, Note_on_c, 0, 70, 55
1, 120171, Control_c, 0, 64, 51
1, 120186, Control_c, 0, 64, 52
1, 120201, Control_c, 0, 64, 55
1, 120216, Control_c, 0, 64, 59
1, 120230, Control_c, 0, 64, 64
1, 120245, Control_c, 0, 64, 68
1, 120260, Control_c, 0, 64, 77
1, 120283, Control_c, 0, 64, 96
1, 120296, Note_off_c, 0, 37, 56
1, 120298, Control_c, 0, 64, 127
1, 120328, Note_on_c, 0, 38, 48
1, 120374, Note_off_c, 0, 74, 59
1, 120403, Note_off_c, 0, 64, 59
1, 120414, Note_off_c, 0, 67, 62
1, 120424, Note_off_c, 0, 70, 63
1, 120446, Control_c, 0, 64, 91
1, 120449, Note_off_c, 0, 38, 37
1, 120460, Note_on_c, 0, 71, 89
1, 120460, Control_c, 0, 64, 69
1, 120475, Control_c, 0, 64, 52
1, 120476, Note_on_c, 0, 50, 58
1, 120490, Control_c, 0, 64, 39
1, 120505, Control_c, 0, 64, 39
1, 120520, Control_c, 0, 64, 40
1, 120534, Control_c, 0, 64, 44
1, 120549, Control_c, 0, 64, 51
1, 120561, Note_off_c, 0, 50, 59
1, 120564, Control_c, 0, 64, 60
1, 120579, Control_c, 0, 64, 64
1, 120594, Control_c, 0, 64, 70
1, 120609, Control_c, 0, 64, 79
1, 120624, Control_c, 0, 64, 98
1, 120630, Note_on_c, 0, 38, 53
1, 120639, Control_c, 0, 64, 127
1, 120742, Control_c, 0, 64, 92
1, 120744, Note_off_c, 0, 38, 59
1, 120757, Control_c, 0, 64, 68
1, 120771, Control_c, 0, 64, 56
1, 120779, Note_on_c, 0, 37, 47
1, 120779, Note_on_c, 0, 62, 57
1, 120786, Control_c, 0, 64, 47
1, 120791, Note_on_c, 0, 68, 57
1, 120801, Control_c, 0, 64, 49
1, 120806, Note_on_c, 0, 65, 39
1, 120816, Control_c, 0, 64, 52
1, 120831, Control_c, 0, 64, 55
1, 120845, Control_c, 0, 64, 60
1, 120860, Control_c, 0, 64, 64
1, 120875, Control_c, 0, 64, 67
1, 120890, Control_c, 0, 64, 74
1, 120905, Control_c, 0, 64, 85
1, 120919, Control_c, 0, 64, 105
1, 120934, Control_c, 0, 64, 127
1, 120937, Note_off_c, 0, 37, 59
1, 120949, Note_off_c, 0, 62, 57
1, 120949, Note_on_c, 0, 38, 52
1, 121046, Control_c, 0, 64, 99
1, 121060, Control_c, 0, 64, 73
1, 121076, Control_c, 0, 64, 60
1, 121081, Note_off_c, 0, 38, 40
1, 121091, Control_c, 0, 64, 46
1, 121092, Note_on_c, 0, 61, 80
1, 121106, Note_off_c, 0, 65, 58
1, 121106, Control_c, 0, 64, 45
1, 121110, Note_on_c, 0, 50, 57
1, 121119, Note_off_c, 0, 68, 57
1, 121121, Control_c, 0, 64, 49
1, 121136, Control_c, 0, 64, 54
1, 121150, Control_c, 0, 64, 60
1, 121165, Control_c, 0, 64, 64
1, 121180, Control_c, 0, 64, 68
1, 121193, Note_off_c, 0, 50, 58
1, 121195, Control_c, 0, 64, 75
1, 121209, Control_c, 0, 64, 89
1, 121224, Control_c, 0, 64, 127
1, 121262, Note_on_c, 0, 38, 56
1, 121342, Note_off_c, 0, 61, 57
1, 121343, Control_c, 0, 64, 92
1, 121357, Control_c, 0, 64, 68
1, 121372, Control_c, 0, 64, 49
1, 121373, Note_off_c, 0, 38, 61
1, 121387, Control_c, 0, 64, 20
1, 121402, Control_c, 0, 64, 27
1, 121405, Note_on_c, 0, 62, 81
1, 121408, Note_on_c, 0, 37, 53
1, 121417, Control_c, 0, 64, 42
1, 121420, Note_on_c, 0, 68, 65
1, 121431, Note_on_c, 0, 65, 49
1, 121432, Control_c, 0, 64, 55
1, 121447, Control_c, 0, 64, 64
1, 121462, Control_c, 0, 64, 73
1, 121475, Control_c, 0, 64, 94
1, 121485, Note_off_c, 0, 65, 60
1, 121490, Control_c, 0, 64, 127
1, 121525, Note_off_c, 0, 62, 62
1, 121526, Note_off_c, 0, 68, 53
1, 121528, Note_off_c, 0, 37, 57
1, 121577, Note_off_c, 0, 71, 60
1, 121581, Note_on_c, 0, 38, 39
1, 121690, Note_off_c, 0, 38, 37
1, 121697, Control_c, 0, 64, 111
1, 121712, Control_c, 0, 64, 73
1, 121727, Control_c, 0, 64, 57
1, 121728, Note_on_c, 0, 53, 73
1, 121735, Note_on_c, 0, 50, 60
1, 121742, Control_c, 0, 64, 45
1, 121757, Control_c, 0, 64, 54
1, 121779, Control_c, 0, 64, 62
1, 121794, Control_c, 0, 64, 67
1, 121808, Control_c, 0, 64, 77
1, 121817, Note_off_c, 0, 53, 64
1, 121823, Control_c, 0, 64, 107
1, 121838, Control_c, 0, 64, 127
1, 121846, Note_off_c, 0, 50, 54
1, 121917, Note_on_c, 0, 38, 54
1, 122013, Note_off_c, 0, 38, 58
1, 122017, Control_c, 0, 64, 111
1, 122031, Control_c, 0, 64, 76
1, 122037, Note_on_c, 0, 72, 83
1, 122046, Control_c, 0, 64, 60
1, 122050, Note_on_c, 0, 62, 73
1, 122050, Note_on_c, 0, 68, 66
1, 122051, Note_on_c, 0, 37, 48
1, 122051, Note_on_c, 0, 65, 41
1, 122061, Control_c, 0, 64, 43
1, 122076, Control_c, 0, 64, 47
1, 122091, Control_c, 0, 64, 54
1, 122105, Control_c, 0, 64, 60
1, 122120, Control_c, 0, 64, 64
1, 122135, Control_c, 0, 64, 70
1, 122150, Control_c, 0, 64, 82
1, 122165, Control_c, 0, 64, 111
1, 122180, Control_c, 0, 64, 127
1, 122189, Note_off_c, 0, 37, 60
1, 122216, Note_on_c, 0, 38, 52
1, 122246, Note_off_c, 0, 62, 62
1, 122314, Note_off_c, 0, 38, 51
1, 122314, Note_off_c, 0, 72, 62
1, 122328, Control_c, 0, 64, 100
1, 122343, Control_c, 0, 64, 70
1, 122350, Note_on_c, 0, 61, 83
1, 122354, Note_on_c, 0, 71, 77
1, 122358, Control_c, 0, 64, 55
1, 122366, Note_on_c, 0, 50, 62
1, 122372, Control_c, 0, 64, 40
1, 122386, Note_off_c, 0, 65, 53
1, 122402, Control_c, 0, 64, 43
1, 122416, Control_c, 0, 64, 48
1, 122423, Note_off_c, 0, 68, 52
1, 122431, Control_c, 0, 64, 57
1, 122446, Control_c, 0, 64, 63
1, 122460, Note_off_c, 0, 50, 58
1, 122461, Control_c, 0, 64, 68
1, 122476, Control_c, 0, 64, 76
1, 122490, Control_c, 0, 64, 93
1, 122505, Control_c, 0, 64, 127
1, 122511, Note_on_c, 0, 38, 63
1, 122563, Note_off_c, 0, 61, 58
1, 122620, Note_off_c, 0, 71, 57
1, 122646, Control_c, 0, 64, 79
1, 122661, Control_c, 0, 64, 61
1, 122662, Note_on_c, 0, 72, 85
1, 122663, Note_off_c, 0, 38, 61
1, 122672, Note_on_c, 0, 62, 77
1, 122674, Note_on_c, 0, 37, 63
1, 122676, Note_on_c, 0, 68, 65
1, 122677, Note_on_c, 0, 65, 59
1, 122677, Control_c, 0, 64, 41
1, 122692, Control_c, 0, 64, 37
1, 122707, Control_c, 0, 64, 43
1, 122721, Control_c, 0, 64, 50
1, 122736, Control_c, 0, 64, 58
1, 122751, Control_c, 0, 64, 64
1, 122766, Control_c, 0, 64, 70
1, 122781, Control_c, 0, 64, 80
1, 122795, Control_c, 0, 64, 104
1, 122810, Control_c, 0, 64, 127
1, 122814, Note_off_c, 0, 37, 59
1, 122817, Note_on_c, 0, 38, 65
1, 122853, Note_off_c, 0, 72, 52
1, 122902, Note_off_c, 0, 62, 40
1, 122928, Note_off_c, 0, 68, 57
1, 122934, Note_off_c, 0, 65, 55
1, 122943, Control_c, 0, 64, 100
1, 122946, Note_off_c, 0, 38, 56
1, 122958, Control_c, 0, 64, 73
1, 122972, Note_on_c, 0, 71, 96
1, 122973, Control_c, 0, 64, 57
1, 122982, Note_on_c, 0, 50, 70
1, 122988, Control_c, 0, 64, 31
1, 123003, Control_c, 0, 64, 30
1, 123018, Control_c, 0, 64, 34
1, 123032, Control_c, 0, 64, 43
1, 123047, Control_c, 0, 64, 54
1, 123062, Control_c, 0, 64, 61
1, 123077, Control_c, 0, 64, 66
1, 123092, Control_c, 0, 64, 71
1, 123107, Control_c, 0, 64, 80
1, 123108, Note_off_c, 0, 50, 50
1, 123121, Control_c, 0, 64, 97
1, 123130, Note_on_c, 0, 38, 63
1, 123136, Control_c, 0, 64, 127
1, 123225, Control_c, 0, 64, 113
1, 123239, Control_c, 0, 64, 80
1, 123254, Control_c, 0, 64, 64
1, 123272, Note_on_c, 0, 62, 80
1, 123277, Note_on_c, 0, 68, 76
1, 123277, Control_c, 0, 64, 45
1, 123281, Note_on_c, 0, 65, 64
1, 123286, Note_off_c, 0, 38, 62
1, 123292, Control_c, 0, 64, 42
1, 123294, Note_on_c, 0, 37, 66
1, 123307, Control_c, 0, 64, 46
1, 123321, Control_c, 0, 64, 51
1, 123336, Control_c, 0, 64, 56
1, 123351, Control_c, 0, 64, 62
1, 123366, Control_c, 0, 64, 67
1, 123380, Control_c, 0, 64, 74
1, 123395, Control_c, 0, 64, 87
1, 123410, Control_c, 0, 64, 127
1, 123435, Note_off_c, 0, 37, 60
1, 123450, Note_on_c, 0, 38, 62
1, 123461, Note_off_c, 0, 62, 60
1, 123545, Control_c, 0, 64, 108
1, 123559, Control_c, 0, 64, 76
1, 123574, Control_c, 0, 64, 61
1, 123576, Note_off_c, 0, 38, 56
1, 123587, Note_on_c, 0, 61, 86
1, 123589, Control_c, 0, 64, 47
1, 123593, Note_off_c, 0, 65, 60
1, 123597, Note_on_c, 0, 50, 74
1, 123604, Control_c, 0, 64, 46
1, 123605, Note_off_c, 0, 68, 57
1, 123618, Control_c, 0, 64, 50
1, 123633, Control_c, 0, 64, 55
1, 123648, Control_c, 0, 64, 62
1, 123663, Control_c, 0, 64, 67
1, 123677, Control_c, 0, 64, 73
1, 123692, Control_c, 0, 64, 85
1, 123699, Note_off_c, 0, 50, 58
1, 123707, Control_c, 0, 64, 115
1, 123721, Control_c, 0, 64, 127
1, 123746, Note_on_c, 0, 38, 67
1, 123799, Note_off_c, 0, 61, 59
1, 123840, Control_c, 0, 64, 85
1, 123855, Control_c, 0, 64, 65
1, 123869, Control_c, 0, 64, 48
1, 123879, Note_off_c, 0, 38, 61
1, 123882, Note_on_c, 0, 62, 84
1, 123883, Note_on_c, 0, 37, 73
1, 123884, Control_c, 0, 64, 46
1, 123895, Note_on_c, 0, 65, 58
1, 123896, Note_on_c, 0, 68, 67
1, 123899, Control_c, 0, 64, 53
1, 123914, Control_c, 0, 64, 61
1, 123929, Control_c, 0, 64, 67
1, 123943, Control_c, 0, 64, 78
1, 123958, Control_c, 0, 64, 116
1, 123973, Control_c, 0, 64, 127
1, 123974, Note_off_c, 0, 65, 61
1, 123984, Note_off_c, 0, 68, 62
1, 123985, Note_off_c, 0, 71, 58
1, 124007, Note_off_c, 0, 37, 59
1, 124018, Note_off_c, 0, 62, 61
1, 124042, Note_on_c, 0, 38, 63
1, 124158, Control_c, 0, 64, 104
1, 124173, Control_c, 0, 64, 72
1, 124177, Note_off_c, 0, 38, 55
1, 124188, Control_c, 0, 64, 55
1, 124200, Note_on_c, 0, 53, 84
1, 124201, Note_on_c, 0, 50, 72
1, 124202, Control_c, 0, 64, 34
1, 124217, Control_c, 0, 64, 44
1, 124232, Control_c, 0, 64, 56
1, 124247, Control_c, 0, 64, 63
1, 124263, Control_c, 0, 64, 71
1, 124269, Note_off_c, 0, 53, 64
1, 124278, Control_c, 0, 64, 88
1, 124292, Control_c, 0, 64, 127
1, 124317, Note_off_c, 0, 50, 57
1, 124357, Note_on_c, 0, 38, 71
1, 124470, Control_c, 0, 64, 78
1, 124485, Control_c, 0, 64, 57
1, 124490, Note_on_c, 0, 72, 85
1, 124492, Note_off_c, 0, 38, 61
1, 124494, Note_on_c, 0, 37, 78
1, 124496, Note_on_c, 0, 62, 82
1, 124497, Note_on_c, 0, 68, 77
1, 124499, Control_c, 0, 64, 37
1, 124507, Note_on_c, 0, 65, 68
1, 124514, Control_c, 0, 64, 39
1, 124529, Control_c, 0, 64, 48
1, 124544, Control_c, 0, 64, 57
1, 124559, Control_c, 0, 64, 63
1, 124574, Control_c, 0, 64, 71
1, 124589, Control_c, 0, 64, 85
1, 124603, Control_c, 0, 64, 108
1, 124618, Control_c, 0, 64, 127
1, 124645, Note_off_c, 0, 37, 62
1, 124653, Note_on_c, 0, 38, 71
1, 124684, Note_off_c, 0, 62, 57
1, 124720, Note_off_c, 0, 72, 60
1, 124788, Control_c, 0, 64, 88
1, 124803, Control_c, 0, 64, 65
1, 124815, Note_on_c, 0, 50, 82
1, 124815, Note_off_c, 0, 38, 57
1, 124818, Note_on_c, 0, 61, 91
1, 124818, Control_c, 0, 64, 43
1, 124823, Note_on_c, 0, 71, 88
1, 124833, Control_c, 0, 64, 30
1, 124848, Control_c, 0, 64, 32
1, 124862, Note_off_c, 0, 65, 45
1, 124863, Control_c, 0, 64, 42
1, 124869, Note_on_c, 0, 70, 7
1, 124878, Control_c, 0, 64, 54
1, 124892, Control_c, 0, 64, 63
1, 124907, Control_c, 0, 64, 70
1, 124910, Note_off_c, 0, 68, 36
1, 124910, Note_off_c, 0, 70, 26
1, 124922, Control_c, 0, 64, 85
1, 124932, Note_off_c, 0, 50, 61
1, 124937, Control_c, 0, 64, 127
1, 124967, Note_on_c, 0, 38, 75
1, 125025, Note_off_c, 0, 61, 58
1, 125042, Note_off_c, 0, 71, 54
1, 125055, Control_c, 0, 64, 115
1, 125071, Control_c, 0, 64, 74
1, 125086, Control_c, 0, 64, 57
1, 125097, Note_off_c, 0, 38, 57
1, 125101, Control_c, 0, 64, 39
1, 125110, Note_on_c, 0, 37, 77
1, 125114, Note_on_c, 0, 72, 88
1, 125114, Note_on_c, 0, 62, 84
1, 125115, Control_c, 0, 64, 44
1, 125122, Note_on_c, 0, 68, 76
1, 125123, Note_on_c, 0, 65, 67
1, 125130, Control_c, 0, 64, 55
1, 125145, Control_c, 0, 64, 62
1, 125160, Control_c, 0, 64, 71
1, 125175, Control_c, 0, 64, 101
1, 125186, Note_off_c, 0, 62, 56
1, 125189, Control_c, 0, 64, 127
1, 125237, Note_off_c, 0, 37, 59
1, 125260, Note_off_c, 0, 72, 59
1, 125274, Note_off_c, 0, 68, 64
1, 125288, Note_on_c, 0, 38, 68
1, 125295, Note_off_c, 0, 65, 36
1, 125375, Note_off_c, 0, 38, 60
1, 125396, Control_c, 0, 64, 101
1, 125411, Control_c, 0, 64, 65
1, 125426, Control_c, 0, 64, 41
1, 125428, Note_on_c, 0, 52, 80
1, 125432, Note_on_c, 0, 79, 101
1, 125441, Control_c, 0, 64, 28
1, 125456, Control_c, 0, 64, 38
1, 125471, Control_c, 0, 64, 48
1, 125486, Control_c, 0, 64, 58
1, 125501, Control_c, 0, 64, 66
1, 125522, Control_c, 0, 64, 75
1, 125537, Control_c, 0, 64, 100
1, 125551, Note_off_c, 0, 52, 54
1, 125552, Control_c, 0, 64, 127
1, 125597, Note_on_c, 0, 40, 68
1, 125715, Control_c, 0, 64, 95
1, 125717, Note_on_c, 0, 67, 90
1, 125730, Control_c, 0, 64, 67
1, 125731, Note_on_c, 0, 39, 74
1, 125735, Note_off_c, 0, 40, 62
1, 125745, Control_c, 0, 64, 50
1, 125760, Control_c, 0, 64, 47
1, 125775, Control_c, 0, 64, 55
1, 125789, Control_c, 0, 64, 62
1, 125804, Control_c, 0, 64, 67
1, 125819, Control_c, 0, 64, 75
1, 125822, Note_on_c, 0, 70, 73
1, 125826, Note_on_c, 0, 73, 69
1, 125832, Note_off_c, 0, 67, 61
1, 125834, Control_c, 0, 64, 97
1, 125846, Note_off_c, 0, 39, 63
1, 125848, Control_c, 0, 64, 127
1, 125850, Note_off_c, 0, 70, 65
1, 125856, Note_off_c, 0, 73, 65
1, 125890, Note_on_c, 0, 40, 69
1, 125930, Note_on_c, 0, 73, 77
1, 125939, Note_on_c, 0, 70, 68
1, 125967, Note_off_c, 0, 70, 67
1, 125983, Control_c, 0, 64, 95
1, 125998, Control_c, 0, 64, 69
1, 126006, Note_off_c, 0, 73, 63
1, 126012, Control_c, 0, 64, 51
1, 126015, Note_off_c, 0, 40, 62
1, 126019, Note_on_c, 0, 66, 92
1, 126027, Control_c, 0, 64, 39
1, 126030, Note_on_c, 0, 52, 84
1, 126042, Control_c, 0, 64, 42
1, 126057, Control_c, 0, 64, 47
1, 126071, Control_c, 0, 64, 56
1, 126086, Control_c, 0, 64, 63
1, 126101, Control_c, 0, 64, 69
1, 126116, Control_c, 0, 64, 81
1, 126130, Control_c, 0, 64, 121
1, 126133, Note_off_c, 0, 52, 61
1, 126134, Note_off_c, 0, 66, 61
1, 126145, Control_c, 0, 64, 127
1, 126194, Note_on_c, 0, 70, 74
1, 126198, Note_on_c, 0, 73, 72
1, 126201, Note_on_c, 0, 40, 70
1, 126316, Control_c, 0, 64, 79
1, 126331, Control_c, 0, 64, 61
1, 126340, Note_on_c, 0, 67, 90
1, 126343, Note_on_c, 0, 39, 80
1, 126344, Note_off_c, 0, 70, 52
1, 126345, Control_c, 0, 64, 45
1, 126353, Note_off_c, 0, 73, 62
1, 126357, Note_off_c, 0, 40, 60
1, 126360, Control_c, 0, 64, 51
1, 126375, Note_on_c, 0, 77, 14
1, 126375, Control_c, 0, 64, 58
1, 126376, Note_on_c, 0, 43, 21
1, 126389, Control_c, 0, 64, 63
1, 126404, Control_c, 0, 64, 70
1, 126419, Control_c, 0, 64, 85
1, 126423, Note_off_c, 0, 77, 48
1, 126425, Note_off_c, 0, 79, 62
1, 126429, Note_on_c, 0, 73, 67
1, 126429, Note_off_c, 0, 43, 55
1, 126434, Control_c, 0, 64, 127
1, 126436, Note_off_c, 0, 67, 62
1, 126442, Note_on_c, 0, 70, 59
1, 126458, Note_off_c, 0, 73, 68
1, 126463, Note_off_c, 0, 70, 61
1, 126494, Note_on_c, 0, 40, 70
1, 126517, Note_on_c, 0, 73, 77
1, 126522, Note_off_c, 0, 39, 36
1, 126525, Note_on_c, 0, 70, 76
1, 126541, Note_off_c, 0, 73, 65
1, 126555, Note_off_c, 0, 70, 63
1, 126612, Control_c, 0, 64, 79
1, 126619, Note_off_c, 0, 40, 62
1, 126627, Control_c, 0, 64, 57
1, 126634, Note_on_c, 0, 45, 78
1, 126636, Note_on_c, 0, 58, 94
1, 126642, Control_c, 0, 64, 37
1, 126657, Control_c, 0, 64, 39
1, 126672, Control_c, 0, 64, 48
1, 126687, Control_c, 0, 64, 57
1, 126702, Control_c, 0, 64, 65
1, 126714, Note_off_c, 0, 58, 64
1, 126717, Control_c, 0, 64, 77
1, 126732, Control_c, 0, 64, 114
1, 126747, Control_c, 0, 64, 127
1, 126754, Note_off_c, 0, 45, 54
1, 126807, Note_on_c, 0, 33, 69
1, 126812, Note_on_c, 0, 73, 74
1, 126815, Note_on_c, 0, 70, 60
1, 126908, Note_off_c, 0, 33, 62
1, 126939, Control_c, 0, 64, 112
1, 126946, Note_on_c, 0, 32, 75
1, 126946, Note_on_c, 0, 67, 91
1, 126947, Note_off_c, 0, 70, 56
1, 126953, Control_c, 0, 64, 75
1, 126958, Note_off_c, 0, 73, 63
1, 126968, Control_c, 0, 64, 60
1, 126983, Control_c, 0, 64, 50
1, 126998, Control_c, 0, 64, 56
1, 127020, Control_c, 0, 64, 62
1, 127035, Control_c, 0, 64, 66
1, 127050, Control_c, 0, 64, 73
1, 127057, Note_on_c, 0, 70, 75
1, 127057, Note_on_c, 0, 73, 77
1, 127065, Control_c, 0, 64, 94
1, 127080, Control_c, 0, 64, 127
1, 127082, Note_off_c, 0, 32, 60
1, 127087, Note_off_c, 0, 67, 59
1, 127102, Note_off_c, 0, 73, 62
1, 127103, Note_off_c, 0, 70, 60
1, 127113, Note_on_c, 0, 33, 68
1, 127145, Note_on_c, 0, 70, 63
1, 127146, Note_on_c, 0, 73, 68
1, 127224, Note_off_c, 0, 70, 65
1, 127227, Control_c, 0, 64, 96
1, 127235, Note_off_c, 0, 33, 50
1, 127241, Note_off_c, 0, 73, 62
1, 127242, Control_c, 0, 64, 69
1, 127246, Note_on_c, 0, 78, 97
1, 127248, Note_on_c, 0, 66, 90
1, 127257, Control_c, 0, 64, 54
1, 127258, Note_on_c, 0, 45, 78
1, 127272, Control_c, 0, 64, 42
1, 127286, Control_c, 0, 64, 46
1, 127301, Control_c, 0, 64, 52
1, 127316, Control_c, 0, 64, 58
1, 127331, Control_c, 0, 64, 64
1, 127346, Control_c, 0, 64, 70
1, 127361, Control_c, 0, 64, 84
1, 127376, Control_c, 0, 64, 117
1, 127378, Note_off_c, 0, 45, 51
1, 127391, Control_c, 0, 64, 127
1, 127422, Note_on_c, 0, 70, 69
1, 127428, Note_off_c, 0, 66, 58
1, 127432, Note_on_c, 0, 73, 72
1, 127440, Note_on_c, 0, 33, 72
1, 127555, Control_c, 0, 64, 98
1, 127569, Control_c, 0, 64, 71
1, 127576, Note_on_c, 0, 32, 77
1, 127576, Note_off_c, 0, 70, 57
1, 127580, Note_on_c, 0, 67, 87
1, 127580, Note_off_c, 0, 33, 63
1, 127584, Control_c, 0, 64, 59
1, 127586, Note_off_c, 0, 73, 62
1, 127599, Control_c, 0, 64, 54
1, 127614, Control_c, 0, 64, 58
1, 127629, Control_c, 0, 64, 63
1, 127643, Control_c, 0, 64, 68
1, 127658, Control_c, 0, 64, 78
1, 127664, Note_on_c, 0, 73, 75
1, 127668, Note_on_c, 0, 70, 76
1, 127673, Control_c, 0, 64, 103
1, 127675, Note_off_c, 0, 67, 61
1, 127688, Control_c, 0, 64, 127
1, 127695, Note_off_c, 0, 70, 66
1, 127696, Note_off_c, 0, 32, 61
1, 127699, Note_off_c, 0, 73, 62
1, 127707, Note_off_c, 0, 78, 61
1, 127738, Note_on_c, 0, 33, 72
1, 127767, Note_on_c, 0, 70, 83
1, 127768, Note_on_c, 0, 73, 82
1, 127793, Note_off_c, 0, 33, 62
1, 127820, Note_off_c, 0, 73, 65
1, 127828, Note_off_c, 0, 70, 61
1, 127858, Control_c, 0, 64, 91
1, 127873, Control_c, 0, 64, 67
1, 127880, Note_on_c, 0, 75, 96
1, 127885, Note_on_c, 0, 52, 86
1, 127888, Control_c, 0, 64, 52
1, 127903, Control_c, 0, 64, 48
1, 127917, Control_c, 0, 64, 53
1, 127932, Control_c, 0, 64, 60
1, 127947, Control_c, 0, 64, 65
1, 127962, Control_c, 0, 64, 73
1, 127977, Control_c, 0, 64, 91
1, 127991, Control_c, 0, 64, 127
1, 128006, Note_off_c, 0, 52, 62
1, 128044, Note_on_c, 0, 40, 73
1, 128087, Note_on_c, 0, 69, 28
1, 128133, Note_off_c, 0, 69, 49
1, 128198, Control_c, 0, 64, 78
1, 128200, Note_on_c, 0, 66, 94
1, 128202, Note_on_c, 0, 39, 80
1, 128205, Note_off_c, 0, 40, 62
1, 128213, Control_c, 0, 64, 62
1, 128228, Control_c, 0, 64, 52
1, 128243, Control_c, 0, 64, 54
1, 128259, Control_c, 0, 64, 59
1, 128274, Control_c, 0, 64, 63
1, 128288, Control_c, 0, 64, 68
1, 128294, Note_on_c, 0, 69, 75
1, 128303, Control_c, 0, 64, 82
1, 128304, Note_on_c, 0, 72, 69
1, 128308, Note_off_c, 0, 66, 62
1, 128318, Control_c, 0, 64, 127
1, 128333, Note_off_c, 0, 39, 60
1, 128333, Note_off_c, 0, 72, 66
1, 128342, Note_off_c, 0, 69, 62
1, 128372, Note_on_c, 0, 40, 70
1, 128386, Note_on_c, 0, 69, 61
1, 128395, Note_on_c, 0, 72, 81
1, 128458, Note_off_c, 0, 69, 63
1, 128466, Control_c, 0, 64, 94
1, 128481, Control_c, 0, 64, 65
1, 128486, Note_off_c, 0, 72, 61
1, 128493, Note_on_c, 0, 65, 91
1, 128493, Note_off_c, 0, 40, 59
1, 128496, Control_c, 0, 64, 43
1, 128499, Note_on_c, 0, 52, 89
1, 128518, Control_c, 0, 64, 39
1, 128533, Control_c, 0, 64, 49
1, 128547, Control_c, 0, 64, 56
1, 128562, Control_c, 0, 64, 62
1, 128564, Poly_aftertouch_c, 0, 45, 127
1, 128577, Control_c, 0, 64, 69
1, 128592, Control_c, 0, 64, 82
1, 128607, Control_c, 0, 64, 127
1, 128613, Note_off_c, 0, 52, 58
1, 128677, Note_off_c, 0, 65, 60
1, 128681, Note_on_c, 0, 40, 77
1, 128684, Note_on_c, 0, 69, 72
1, 128686, Note_on_c, 0, 72, 74
1, 128735, Poly_aftertouch_c, 0, 45, 0
1, 128800, Control_c, 0, 64, 76
1, 128814, Control_c, 0, 64, 58
1, 128821, Note_on_c, 0, 39, 80
1, 128821, Note_off_c, 0, 72, 62
1, 128825, Note_off_c, 0, 69, 63
1, 128829, Note_on_c, 0, 66, 87
1, 128829, Control_c, 0, 64, 0
1, 128833, Note_off_c, 0, 40, 54
1, 128920, Note_on_c, 0, 72, 69
1, 128924, Note_on_c, 0, 69, 68
1, 128929, Note_off_c, 0, 66, 61
1, 128947, Control_c, 0, 64, 26
1, 128953, Note_off_c, 0, 69, 67
1, 128953, Note_off_c, 0, 72, 63
1, 128954, Note_off_c, 0, 75, 50
1, 128962, Control_c, 0, 64, 55
1, 128977, Control_c, 0, 64, 67
1, 128988, Note_on_c, 0, 40, 63
1, 128990, Note_off_c, 0, 39, 59
1, 128992, Control_c, 0, 64, 84
1, 129004, Note_on_c, 0, 72, 71
1, 129007, Control_c, 0, 64, 127
1, 129012, Note_on_c, 0, 69, 73
1, 129036, Note_off_c, 0, 72, 63
1, 129040, Note_off_c, 0, 69, 67
1, 129067, Control_c, 0, 64, 105
1, 129081, Control_c, 0, 64, 74
1, 129096, Control_c, 0, 64, 55
1, 129111, Control_c, 0, 64, 27
1, 129117, Note_off_c, 0, 40, 59
1, 129122, Note_on_c, 0, 57, 91
1, 129126, Control_c, 0, 64, 38
1, 129129, Note_on_c, 0, 45, 84
1, 129141, Control_c, 0, 64, 52
1, 129155, Control_c, 0, 64, 59
1, 129170, Control_c, 0, 64, 64
1, 129185, Control_c, 0, 64, 71
1, 129200, Control_c, 0, 64, 86
1, 129207, Note_off_c, 0, 57, 63
1, 129215, Control_c, 0, 64, 127
1, 129235, Note_off_c, 0, 45, 58
1, 129309, Note_on_c, 0, 33, 72
1, 129316, Note_on_c, 0, 69, 68
1, 129322, Note_on_c, 0, 72, 65
1, 129412, Note_off_c, 0, 33, 61
1, 129430, Control_c, 0, 64, 82
1, 129443, Note_on_c, 0, 66, 92
1, 129444, Control_c, 0, 64, 65
1, 129446, Note_on_c, 0, 32, 73
1, 129454, Note_off_c, 0, 72, 50
1, 129457, Note_off_c, 0, 69, 37
1, 129459, Control_c, 0, 64, 54
1, 129474, Control_c, 0, 64, 56
1, 129489, Control_c, 0, 64, 62
1, 129504, Control_c, 0, 64, 65
1, 129519, Control_c, 0, 64, 72
1, 129534, Control_c, 0, 64, 84
1, 129535, Note_on_c, 0, 69, 73
1, 129537, Note_on_c, 0, 72, 73
1, 129538, Note_off_c, 0, 66, 62
1, 129549, Control_c, 0, 64, 127
1, 129563, Note_off_c, 0, 32, 62
1, 129590, Note_off_c, 0, 72, 62
1, 129592, Note_off_c, 0, 69, 59
1, 129605, Note_on_c, 0, 33, 64
1, 129625, Note_on_c, 0, 69, 67
1, 129626, Note_on_c, 0, 72, 67
1, 129696, Control_c, 0, 64, 85
1, 129699, Note_off_c, 0, 69, 63
1, 129710, Note_off_c, 0, 72, 65
1, 129711, Control_c, 0, 64, 68
1, 129726, Control_c, 0, 64, 54
1, 129728, Note_on_c, 0, 76, 96
1, 129730, Note_on_c, 0, 65, 91
1, 129738, Note_off_c, 0, 33, 37
1, 129741, Note_on_c, 0, 45, 79
1, 129741, Control_c, 0, 64, 40
1, 129755, Control_c, 0, 64, 42
1, 129770, Control_c, 0, 64, 47
1, 129785, Control_c, 0, 64, 53
1, 129800, Control_c, 0, 64, 59
1, 129815, Control_c, 0, 64, 62
1, 129829, Control_c, 0, 64, 65
1, 129844, Control_c, 0, 64, 67
1, 129860, Control_c, 0, 64, 72
1, 129875, Note_off_c, 0, 45, 46
1, 129875, Control_c, 0, 64, 81
1, 129890, Control_c, 0, 64, 95
1, 129903, Note_on_c, 0, 69, 72
1, 129903, Note_off_c, 0, 65, 57
1, 129905, Control_c, 0, 64, 127
1, 129906, Note_on_c, 0, 72, 69
1, 129924, Note_on_c, 0, 33, 69
1, 130056, Note_off_c, 0, 72, 60
1, 130061, Control_c, 0, 64, 85
1, 130061, Note_off_c, 0, 69, 63
1, 130063, Note_on_c, 0, 66, 88
1, 130070, Note_on_c, 0, 32, 74
1, 130075, Note_off_c, 0, 33, 63
1, 130075, Control_c, 0, 64, 66
1, 130090, Control_c, 0, 64, 57
1, 130105, Control_c, 0, 64, 54
1, 130119, Control_c, 0, 64, 58
1, 130134, Control_c, 0, 64, 61
1, 130146, Note_on_c, 0, 72, 69
1, 130148, Note_on_c, 0, 69, 69
1, 130149, Control_c, 0, 64, 64
1, 130155, Note_off_c, 0, 66, 62
1, 130164, Control_c, 0, 64, 70
1, 130179, Control_c, 0, 64, 79
1, 130181, Note_off_c, 0, 72, 64
1, 130181, Note_off_c, 0, 69, 64
1, 130181, Note_off_c, 0, 76, 61
1, 130190, Note_off_c, 0, 32, 61
1, 130193, Control_c, 0, 64, 98
1, 130208, Control_c, 0, 64, 127
1, 130228, Note_on_c, 0, 33, 69
1, 130236, Note_on_c, 0, 69, 75
1, 130241, Note_on_c, 0, 72, 78
1, 130270, Note_off_c, 0, 33, 62
1, 130290, Note_off_c, 0, 72, 66
1, 130294, Note_off_c, 0, 69, 64
1, 130342, Control_c, 0, 64, 86
1, 130357, Note_on_c, 0, 73, 95
1, 130357, Control_c, 0, 64, 64
1, 130359, Note_on_c, 0, 52, 84
1, 130371, Control_c, 0, 64, 47
1, 130386, Control_c, 0, 64, 43
1, 130401, Control_c, 0, 64, 49
1, 130416, Control_c, 0, 64, 56
1, 130430, Control_c, 0, 64, 62
1, 130445, Control_c, 0, 64, 67
1, 130459, Note_off_c, 0, 52, 57
1, 130460, Control_c, 0, 64, 74
1, 130475, Control_c, 0, 64, 87
1, 130490, Control_c, 0, 64, 127
1, 130515, Note_on_c, 0, 40, 75
1, 130631, Poly_aftertouch_c, 0, 67, 127
1, 130637, Control_c, 0, 64, 118
1, 130654, Control_c, 0, 64, 78
1, 130660, Poly_aftertouch_c, 0, 67, 0
1, 130668, Note_off_c, 0, 40, 58
1, 130669, Note_on_c, 0, 39, 80
1, 130669, Control_c, 0, 64, 64
1, 130675, Note_on_c, 0, 64, 89
1, 130683, Control_c, 0, 64, 55
1, 130698, Control_c, 0, 64, 57
1, 130713, Control_c, 0, 64, 60
1, 130727, Control_c, 0, 64, 63
1, 130742, Control_c, 0, 64, 67
1, 130759, Note_on_c, 0, 67, 73
1, 130765, Control_c, 0, 64, 74
1, 130770, Note_on_c, 0, 70, 71
1, 130780, Control_c, 0, 64, 88
1, 130783, Note_off_c, 0, 64, 61
1, 130795, Control_c, 0, 64, 127
1, 130797, Note_off_c, 0, 39, 61
1, 130808, Note_off_c, 0, 70, 57
1, 130809, Note_off_c, 0, 67, 61
1, 130853, Note_on_c, 0, 40, 73
1, 130862, Note_on_c, 0, 67, 67
1, 130867, Note_on_c, 0, 70, 73
1, 130946, Note_off_c, 0, 67, 61
1, 130957, Control_c, 0, 64, 80
1, 130960, Note_off_c, 0, 70, 61
1, 130971, Note_on_c, 0, 63, 94
1, 130972, Control_c, 0, 64, 63
1, 130977, Note_off_c, 0, 40, 58
1, 130979, Note_on_c, 0, 52, 86
1, 130987, Control_c, 0, 64, 45
1, 131002, Control_c, 0, 64, 48
1, 131016, Control_c, 0, 64, 54
1, 131031, Control_c, 0, 64, 59
1, 131046, Control_c, 0, 64, 64
1, 131060, Control_c, 0, 64, 70
1, 131066, Note_off_c, 0, 52, 62
1, 131075, Control_c, 0, 64, 81
1, 131090, Control_c, 0, 64, 127
1, 131141, Note_on_c, 0, 67, 75
1, 131144, Note_on_c, 0, 70, 76
1, 131144, Note_off_c, 0, 63, 44
1, 131149, Note_on_c, 0, 40, 73
1, 131211, Poly_aftertouch_c, 0, 45, 0
1, 131254, Control_c, 0, 64, 110
1, 131257, Note_off_c, 0, 67, 62
1, 131269, Control_c, 0, 64, 73
1, 131275, Note_off_c, 0, 70, 60
1, 131280, Note_on_c, 0, 39, 82
1, 131284, Control_c, 0, 64, 52
1, 131284, Note_on_c, 0, 64, 88
1, 131291, Note_off_c, 0, 40, 54
1, 131299, Control_c, 0, 64, 42
1, 131313, Control_c, 0, 64, 53
1, 131328, Control_c, 0, 64, 61
1, 131343, Control_c, 0, 64, 65
1, 131358, Control_c, 0, 64, 72
1, 131366, Note_on_c, 0, 67, 72
1, 131369, Note_off_c, 0, 64, 60
1, 131370, Note_on_c, 0, 70, 73
1, 131373, Control_c, 0, 64, 90
1, 131381, Note_off_c, 0, 73, 64
1, 131388, Control_c, 0, 64, 127
1, 131397, Note_off_c, 0, 70, 67
1, 131400, Note_off_c, 0, 67, 64
1, 131401, Note_off_c, 0, 39, 62
1, 131446, Note_on_c, 0, 40, 64
1, 131461, Note_on_c, 0, 70, 80
1, 131464, Note_on_c, 0, 67, 76
1, 131490, Note_off_c, 0, 67, 66
1, 131523, Note_off_c, 0, 70, 59
1, 131573, Control_c, 0, 64, 107
1, 131588, Note_on_c, 0, 55, 89
1, 131588, Control_c, 0, 64, 74
1, 131589, Note_off_c, 0, 40, 59
1, 131596, Note_on_c, 0, 45, 83
1, 131603, Control_c, 0, 64, 59
1, 131618, Control_c, 0, 64, 54
1, 131632, Control_c, 0, 64, 60
1, 131647, Control_c, 0, 64, 65
1, 131657, Note_off_c, 0, 55, 60
1, 131662, Control_c, 0, 64, 72
1, 131677, Control_c, 0, 64, 86
1, 131692, Control_c, 0, 64, 127
1, 131715, Note_off_c, 0, 45, 57
1, 131765, Note_on_c, 0, 70, 80
1, 131771, Note_on_c, 0, 33, 73
1, 131775, Note_on_c, 0, 67, 70
1, 131880, Note_off_c, 0, 70, 61
1, 131887, Note_off_c, 0, 33, 57
1, 131899, Control_c, 0, 64, 87
1, 131901, Note_on_c, 0, 74, 95
1, 131904, Note_on_c, 0, 32, 80
1, 131907, Note_on_c, 0, 64, 89
1, 131913, Note_off_c, 0, 67, 44
1, 131914, Control_c, 0, 64, 66
1, 131929, Control_c, 0, 64, 47
1, 131957, Control_c, 0, 64, 56
1, 131972, Control_c, 0, 64, 61
1, 131987, Control_c, 0, 64, 65
1, 132002, Note_on_c, 0, 67, 62
1, 132002, Control_c, 0, 64, 72
1, 132005, Note_on_c, 0, 70, 62
1, 132011, Note_off_c, 0, 64, 57
1, 132017, Control_c, 0, 64, 88
1, 132029, Note_off_c, 0, 32, 61
1, 132032, Control_c, 0, 64, 127
1, 132035, Note_off_c, 0, 70, 66
1, 132041, Note_off_c, 0, 67, 63
1, 132078, Note_on_c, 0, 33, 72
1, 132087, Note_off_c, 0, 74, 58
1, 132088, Note_on_c, 0, 67, 67
1, 132091, Note_on_c, 0, 70, 86
1, 132205, Note_on_c, 0, 63, 91
1, 132205, Note_on_c, 0, 73, 96
1, 132210, Control_c, 0, 64, 94
1, 132217, Note_off_c, 0, 67, 49
1, 132220, Note_on_c, 0, 45, 84
1, 132224, Control_c, 0, 64, 69
1, 132229, Note_off_c, 0, 33, 51
1, 132230, Note_off_c, 0, 70, 57
1, 132239, Control_c, 0, 64, 55
1, 132260, Poly_aftertouch_c, 0, 38, 127
1, 132262, Control_c, 0, 64, 45
1, 132277, Control_c, 0, 64, 51
1, 132292, Control_c, 0, 64, 57
1, 132306, Control_c, 0, 64, 63
1, 132321, Control_c, 0, 64, 68
1, 132336, Control_c, 0, 64, 79
1, 132339, Note_off_c, 0, 45, 57
1, 132351, Control_c, 0, 64, 113
1, 132366, Note_on_c, 0, 67, 64
1, 132366, Control_c, 0, 64, 127
1, 132372, Note_on_c, 0, 70, 72
1, 132385, Note_off_c, 0, 63, 42
1, 132390, Note_on_c, 0, 33, 74
1, 132408, Note_off_c, 0, 73, 60
1, 132514, Control_c, 0, 64, 81
1, 132518, Note_off_c, 0, 67, 63
1, 132519, Note_on_c, 0, 74, 81
1, 132522, Note_on_c, 0, 64, 84
1, 132523, Note_on_c, 0, 32, 80
1, 132529, Control_c, 0, 64, 62
1, 132530, Note_off_c, 0, 33, 61
1, 132532, Note_off_c, 0, 70, 63
1, 132543, Note_on_c, 0, 72, 55
1, 132544, Control_c, 0, 64, 44
1, 132559, Control_c, 0, 64, 47
1, 132567, Note_off_c, 0, 72, 38
1, 132573, Control_c, 0, 64, 55
1, 132588, Control_c, 0, 64, 61
1, 132603, Control_c, 0, 64, 66
1, 132606, Poly_aftertouch_c, 0, 38, 0
1, 132616, Note_on_c, 0, 67, 66
1, 132616, Note_on_c, 0, 70, 65
1, 132618, Control_c, 0, 64, 76
1, 132625, Note_off_c, 0, 64, 61
1, 132633, Control_c, 0, 64, 106
1, 132637, Note_off_c, 0, 74, 62
1, 132640, Note_off_c, 0, 32, 61
1, 132648, Control_c, 0, 64, 127
1, 132649, Note_off_c, 0, 67, 62
1, 132649, Note_off_c, 0, 70, 64
1, 132679, Note_on_c, 0, 33, 74
1, 132705, Note_on_c, 0, 70, 76
1, 132706, Note_on_c, 0, 67, 70
1, 132728, Note_off_c, 0, 33, 60
1, 132766, Note_off_c, 0, 70, 64
1, 132774, Note_off_c, 0, 67, 62
1, 132780, Control_c, 0, 64, 79
1, 132795, Control_c, 0, 64, 59
1, 132810, Control_c, 0, 64, 0
1, 132816, Note_on_c, 0, 73, 93
1, 132826, Note_on_c, 0, 52, 86
1, 132840, Control_c, 0, 64, 25
1, 132855, Control_c, 0, 64, 48
1, 132869, Control_c, 0, 64, 60
1, 132884, Control_c, 0, 64, 67
1, 132899, Control_c, 0, 64, 79
1, 132914, Control_c, 0, 64, 127
1, 132941, Note_off_c, 0, 52, 60
1, 132992, Note_on_c, 0, 40, 75
1, 133142, Note_on_c, 0, 64, 88
1, 133144, Control_c, 0, 64, 76
1, 133146, Note_on_c, 0, 39, 80
1, 133151, Note_off_c, 0, 40, 62
1, 133159, Control_c, 0, 64, 62
1, 133174, Control_c, 0, 64, 51
1, 133189, Control_c, 0, 64, 55
1, 133203, Control_c, 0, 64, 60
1, 133218, Control_c, 0, 64, 64
1, 133233, Control_c, 0, 64, 71
1, 133236, Note_on_c, 0, 70, 68
1, 133238, Note_on_c, 0, 67, 67
1, 133248, Note_off_c, 0, 64, 61
1, 133248, Control_c, 0, 64, 86
1, 133263, Control_c, 0, 64, 127
1, 133283, Note_off_c, 0, 67, 57
1, 133290, Note_off_c, 0, 70, 53
1, 133299, Note_off_c, 0, 39, 59
1, 133309, Note_on_c, 0, 40, 65
1, 133331, Note_on_c, 0, 70, 59
1, 133333, Note_on_c, 0, 67, 60
1, 133411, Control_c, 0, 64, 87
1, 133426, Control_c, 0, 64, 64
1, 133436, Note_on_c, 0, 52, 82
1, 133438, Note_on_c, 0, 63, 89
1, 133439, Note_off_c, 0, 67, 59
1, 133441, Control_c, 0, 64, 51
1, 133454, Note_off_c, 0, 70, 64
1, 133454, Note_off_c, 0, 40, 39
1, 133456, Control_c, 0, 64, 50
1, 133471, Control_c, 0, 64, 55
1, 133485, Control_c, 0, 64, 59
1, 133500, Control_c, 0, 64, 64
1, 133505, Poly_aftertouch_c, 0, 45, 127
1, 133515, Control_c, 0, 64, 70
1, 133529, Control_c, 0, 64, 82
1, 133539, Note_off_c, 0, 52, 60
1, 133544, Control_c, 0, 64, 127
1, 133585, Note_on_c, 0, 67, 73
1, 133593, Note_on_c, 0, 70, 75
1, 133596, Note_off_c, 0, 63, 58
1, 133616, Note_on_c, 0, 40, 77
1, 133646, Poly_aftertouch_c, 0, 45, 0
1, 133707, Control_c, 0, 64, 101
1, 133716, Note_off_c, 0, 70, 59
1, 133722, Control_c, 0, 64, 70
1, 133723, Note_off_c, 0, 67, 61
1, 133728, Note_on_c, 0, 64, 79
1, 133737, Control_c, 0, 64, 58
1, 133744, Note_on_c, 0, 39, 84
1, 133759, Control_c, 0, 64, 59
1, 133774, Control_c, 0, 64, 64
1, 133779, Note_off_c, 0, 40, 59
1, 133789, Control_c, 0, 64, 68
1, 133804, Control_c, 0, 64, 80
1, 133818, Control_c, 0, 64, 127
1, 133825, Note_off_c, 0, 64, 60
1, 133829, Note_on_c, 0, 70, 71
1, 133832, Note_off_c, 0, 73, 64
1, 133844, Note_on_c, 0, 67, 58
1, 133858, Note_off_c, 0, 70, 63
1, 133875, Note_off_c, 0, 67, 64
1, 133906, Note_on_c, 0, 40, 72
1, 133907, Note_on_c, 0, 70, 74
1, 133925, Note_on_c, 0, 67, 63
1, 133940, Note_off_c, 0, 39, 37
1, 133946, Note_off_c, 0, 67, 64
1, 133955, Note_off_c, 0, 70, 59
1, 133997, Control_c, 0, 64, 94
1, 134012, Control_c, 0, 64, 66
1, 134024, Note_off_c, 0, 40, 62
1, 134026, Control_c, 0, 64, 48
1, 134027, Note_on_c, 0, 55, 88
1, 134035, Note_on_c, 0, 45, 86
1, 134041, Control_c, 0, 64, 51
1, 134056, Control_c, 0, 64, 60
1, 134071, Control_c, 0, 64, 67
1, 134086, Control_c, 0, 64, 87
1, 134089, Note_off_c, 0, 55, 61
1, 134101, Control_c, 0, 64, 127
1, 134151, Note_off_c, 0, 45, 58
1, 134202, Note_on_c, 0, 67, 71
1, 134204, Note_on_c, 0, 70, 79
1, 134211, Note_on_c, 0, 32, 50
1, 134222, Note_on_c, 0, 33, 77
1, 134336, Note_off_c, 0, 32, 0
1, 134336, Control_c, 0, 64, 99
1, 134346, Note_on_c, 0, 74, 91
1, 134349, Note_on_c, 0, 32, 68
1, 134351, Control_c, 0, 64, 63
1, 134353, Note_on_c, 0, 64, 88
1, 134353, Note_off_c, 0, 33, 52
1, 134362, Note_off_c, 0, 67, 60
1, 134362, Note_off_c, 0, 70, 62
1, 134366, Control_c, 0, 64, 26
1, 134381, Control_c, 0, 64, 0
1, 134396, Control_c, 0, 64, 33
1, 134411, Control_c, 0, 64, 52
1, 134425, Control_c, 0, 64, 62
1, 134440, Control_c, 0, 64, 72
1, 134455, Control_c, 0, 64, 95
1, 134469, Control_c, 0, 64, 127
1, 134471, Note_on_c, 0, 67, 72
1, 134471, Note_on_c, 0, 70, 72
1, 134486, Note_off_c, 0, 32, 59
1, 134505, Note_off_c, 0, 64, 58
1, 134508, Note_off_c, 0, 74, 64
1, 134527, Note_on_c, 0, 33, 75
1, 134529, Poly_aftertouch_c, 0, 31, 127
1, 134541, Note_off_c, 0, 70, 0
1, 134560, Note_on_c, 0, 70, 41
1, 134587, Poly_aftertouch_c, 0, 31, 0
1, 134666, Note_on_c, 0, 63, 93
1, 134667, Note_on_c, 0, 73, 91
1, 134673, Note_on_c, 0, 45, 87
1, 134682, Note_off_c, 0, 33, 58
1, 134682, Note_off_c, 0, 67, 55
1, 134685, Control_c, 0, 64, 76
1, 134700, Control_c, 0, 64, 59
1, 134706, Note_off_c, 0, 70, 58
1, 134715, Control_c, 0, 64, 47
1, 134730, Control_c, 0, 64, 55
1, 134744, Control_c, 0, 64, 61
1, 134759, Control_c, 0, 64, 66
1, 134774, Control_c, 0, 64, 76
1, 134789, Control_c, 0, 64, 127
1, 134789, Note_off_c, 0, 45, 60
1, 134798, Poly_aftertouch_c, 0, 38, 127
1, 134821, Note_off_c, 0, 63, 62
1, 134834, Note_on_c, 0, 67, 73
1, 134840, Note_on_c, 0, 70, 78
1, 134847, Note_on_c, 0, 33, 82
1, 134870, Note_off_c, 0, 73, 60
1, 134978, Note_on_c, 0, 32, 92
1, 134982, Control_c, 0, 64, 73
1, 134992, Note_on_c, 0, 74, 92
1, 134996, Note_on_c, 0, 64, 88
1, 134997, Control_c, 0, 64, 51
1, 134999, Note_off_c, 0, 33, 59
1, 134999, Note_off_c, 0, 67, 61
1, 135007, Note_off_c, 0, 70, 64
1, 135012, Control_c, 0, 64, 39
1, 135027, Control_c, 0, 64, 52
1, 135042, Control_c, 0, 64, 62
1, 135056, Control_c, 0, 64, 70
1, 135071, Control_c, 0, 64, 97
1, 135078, Poly_aftertouch_c, 0, 38, 0
1, 135085, Note_off_c, 0, 32, 60
1, 135086, Control_c, 0, 64, 127
1, 135094, Note_on_c, 0, 67, 65
1, 135108, Note_off_c, 0, 64, 57
1, 135128, Note_off_c, 0, 67, 60
1, 135129, Note_off_c, 0, 74, 61
1, 135137, Note_on_c, 0, 33, 52
1, 135168, Note_on_c, 0, 70, 83
1, 135174, Note_off_c, 0, 33, 59
1, 135183, Poly_aftertouch_c, 0, 67, 127
1, 135197, Poly_aftertouch_c, 0, 67, 0
1, 135227, Note_off_c, 0, 70, 67
1, 135361, Note_on_c, 0, 55, 77
1, 135361, Note_on_c, 0, 81, 98
1, 135389, Control_c, 0, 64, 76
1, 135404, Control_c, 0, 64, 22
1, 135419, Control_c, 0, 64, 0
1, 135509, Control_c, 0, 64, 40
1, 135523, Control_c, 0, 64, 56
1, 135527, Note_off_c, 0, 55, 57
1, 135538, Control_c, 0, 64, 67
1, 135553, Control_c, 0, 64, 81
1, 135557, Note_on_c, 0, 43, 80
1, 135568, Control_c, 0, 64, 127
1, 135573, Note_on_c, 0, 72, 81
1, 135573, Note_on_c, 0, 75, 81
1, 135629, Note_on_c, 0, 44, 32
1, 135666, Note_off_c, 0, 44, 60
1, 135687, Note_off_c, 0, 72, 62
1, 135719, Note_on_c, 0, 40, 79
1, 135721, Note_off_c, 0, 43, 60
1, 135725, Note_on_c, 0, 69, 84
1, 135728, Note_off_c, 0, 75, 58
1, 135731, Note_on_c, 0, 71, 81
1, 135731, Note_off_c, 0, 81, 0
1, 135731, Note_on_c, 0, 81, 7
1, 135757, Note_on_c, 0, 41, 34
1, 135758, Note_off_c, 0, 41, 127
1, 135803, Note_off_c, 0, 71, 58
1, 135804, Note_on_c, 0, 72, 73
1, 135807, Note_on_c, 0, 75, 68
1, 135812, Note_off_c, 0, 69, 63
1, 135835, Note_off_c, 0, 72, 66
1, 135838, Note_off_c, 0, 75, 62
1, 135856, Note_off_c, 0, 40, 62
1, 135868, Note_on_c, 0, 41, 70
1, 135881, Note_on_c, 0, 40, 61
1, 135892, Note_on_c, 0, 72, 73
1, 135899, Note_on_c, 0, 75, 73
1, 135938, Note_off_c, 0, 40, 57
1, 135953, Control_c, 0, 64, 85
1, 135968, Control_c, 0, 64, 60
1, 135982, Note_off_c, 0, 41, 62
1, 135983, Control_c, 0, 64, 0
1, 135999, Note_on_c, 0, 48, 94
1, 136002, Note_on_c, 0, 68, 91
1, 136024, Note_off_c, 0, 75, 60
1, 136030, Note_off_c, 0, 72, 60
1, 136050, Control_c, 0, 64, 40
1, 136065, Control_c, 0, 64, 53
1, 136079, Control_c, 0, 64, 60
1, 136093, Note_off_c, 0, 68, 61
1, 136094, Control_c, 0, 64, 64
1, 136109, Control_c, 0, 64, 72
1, 136123, Control_c, 0, 64, 95
1, 136130, Poly_aftertouch_c, 0, 69, 0
1, 136137, Note_off_c, 0, 48, 60
1, 136138, Control_c, 0, 64, 127
1, 136144, Note_on_c, 0, 75, 77
1, 136145, Note_on_c, 0, 72, 76
1, 136161, Note_off_c, 0, 81, 42
1, 136165, Note_on_c, 0, 36, 80
1, 136219, Note_off_c, 0, 72, 59
1, 136243, Note_on_c, 0, 67, 81
1, 136261, Note_off_c, 0, 75, 62
1, 136277, Note_off_c, 0, 67, 62
1, 136330, Note_on_c, 0, 35, 83
1, 136337, Note_on_c, 0, 82, 92
1, 136348, Note_off_c, 0, 36, 52
1, 136404, Note_off_c, 0, 82, 66
1, 136441, Note_on_c, 0, 72, 71
1, 136465, Note_off_c, 0, 72, 69
1, 136480, Note_on_c, 0, 36, 74
1, 136492, Note_off_c, 0, 35, 57
1, 136514, Note_on_c, 0, 75, 79
1, 136518, Note_off_c, 0, 36, 61
1, 136526, Note_on_c, 0, 72, 76
1, 136563, Note_off_c, 0, 72, 58
1, 136581, Note_off_c, 0, 75, 62
1, 136623, Note_on_c, 0, 53, 92
1, 136624, Note_on_c, 0, 79, 97
1, 136628, Control_c, 0, 64, 78
1, 136643, Control_c, 0, 64, 58
1, 136658, Control_c, 0, 64, 0
1, 136732, Control_c, 0, 64, 34
1, 136754, Control_c, 0, 64, 48
1, 136765, Note_off_c, 0, 53, 57
1, 136768, Control_c, 0, 64, 56
1, 136783, Control_c, 0, 64, 62
1, 136798, Control_c, 0, 64, 66
1, 136803, Note_on_c, 0, 72, 79
1, 136806, Note_on_c, 0, 75, 81
1, 136807, Note_on_c, 0, 41, 81
1, 136813, Control_c, 0, 64, 72
1, 136828, Control_c, 0, 64, 84
1, 136843, Control_c, 0, 64, 127
1, 136932, Note_off_c, 0, 72, 61
1, 136934, Note_on_c, 0, 69, 87
1, 136945, Note_off_c, 0, 75, 60
1, 136956, Note_on_c, 0, 40, 83
1, 136986, Note_off_c, 0, 41, 61
1, 137012, Note_on_c, 0, 75, 72
1, 137018, Note_on_c, 0, 72, 73
1, 137034, Note_off_c, 0, 69, 61
1, 137036, Note_off_c, 0, 79, 61
1, 137048, Note_off_c, 0, 72, 63
1, 137051, Note_off_c, 0, 75, 59
1, 137099, Note_on_c, 0, 41, 83
1, 137100, Note_on_c, 0, 75, 81
1, 137100, Note_off_c, 0, 40, 59
1, 137105, Note_on_c, 0, 72, 72
1, 137177, Note_off_c, 0, 72, 63
1, 137192, Note_off_c, 0, 75, 63
1, 137229, Control_c, 0, 64, 73
1, 137239, Note_on_c, 0, 48, 83
1, 137242, Note_off_c, 0, 41, 61
1, 137243, Control_c, 0, 64, 54
1, 137252, Note_on_c, 0, 81, 89
1, 137254, Note_on_c, 0, 67, 83
1, 137258, Control_c, 0, 64, 37
1, 137273, Control_c, 0, 64, 51
1, 137279, Note_on_c, 0, 69, 58
1, 137287, Control_c, 0, 64, 59
1, 137301, Note_off_c, 0, 69, 41
1, 137302, Control_c, 0, 64, 63
1, 137317, Control_c, 0, 64, 70
1, 137332, Note_off_c, 0, 81, 61
1, 137332, Control_c, 0, 64, 90
1, 137347, Control_c, 0, 64, 127
1, 137353, Note_off_c, 0, 67, 57
1, 137385, Note_off_c, 0, 48, 63
1, 137433, Note_on_c, 0, 79, 86
1, 137436, Note_on_c, 0, 72, 75
1, 137442, Note_on_c, 0, 75, 74
1, 137444, Note_on_c, 0, 36, 83
1, 137511, Note_off_c, 0, 79, 64
1, 137556, Note_off_c, 0, 75, 62
1, 137558, Note_off_c, 0, 72, 60
1, 137600, Note_on_c, 0, 35, 87
1, 137603, Note_on_c, 0, 77, 95
1, 137603, Note_on_c, 0, 66, 93
1, 137666, Note_off_c, 0, 36, 29
1, 137686, Note_off_c, 0, 77, 61
1, 137693, Note_off_c, 0, 35, 60
1, 137698, Note_off_c, 0, 66, 59
1, 137748, Note_on_c, 0, 75, 87
1, 137750, Note_on_c, 0, 67, 89
1, 137753, Note_on_c, 0, 70, 81
1, 137757, Note_on_c, 0, 36, 66
1, 137759, Note_on_c, 0, 38, 64
1, 137796, Note_off_c, 0, 36, 55
1, 137804, Note_off_c, 0, 38, 62
1, 137807, Note_off_c, 0, 67, 63
1, 137810, Note_on_c, 0, 73, 34
1, 137823, Note_off_c, 0, 75, 64
1, 137844, Note_off_c, 0, 70, 63
1, 137848, Note_off_c, 0, 73, 43
1, 137874, Control_c, 0, 64, 86
1, 137889, Control_c, 0, 64, 58
1, 137900, Note_on_c, 0, 53, 91
1, 137904, Control_c, 0, 64, 0
1, 137906, Note_on_c, 0, 74, 85
1, 137910, Note_on_c, 0, 72, 88
1, 137947, Control_c, 0, 64, 30
1, 137962, Control_c, 0, 64, 48
1, 137977, Control_c, 0, 64, 60
1, 137991, Control_c, 0, 64, 65
1, 138006, Control_c, 0, 64, 71
1, 138021, Control_c, 0, 64, 87
1, 138032, Note_off_c, 0, 53, 55
1, 138034, Note_off_c, 0, 72, 54
1, 138036, Control_c, 0, 64, 127
1, 138068, Note_on_c, 0, 65, 76
1, 138068, Note_on_c, 0, 69, 81
1, 138069, Note_on_c, 0, 41, 83
1, 138157, Note_off_c, 0, 65, 59
1, 138205, Note_off_c, 0, 69, 62
1, 138219, Note_on_c, 0, 65, 78
1, 138220, Note_on_c, 0, 40, 83
1, 138254, Note_off_c, 0, 41, 58
1, 138304, Note_on_c, 0, 69, 84
1, 138313, Note_off_c, 0, 65, 61
1, 138351, Note_off_c, 0, 69, 62
1, 138378, Note_on_c, 0, 41, 77
1, 138380, Note_off_c, 0, 40, 60
1, 138390, Note_on_c, 0, 69, 81
1, 138473, Control_c, 0, 64, 91
1, 138488, Control_c, 0, 64, 67
1, 138491, Note_off_c, 0, 69, 61
1, 138500, Note_on_c, 0, 48, 83
1, 138502, Note_on_c, 0, 64, 82
1, 138503, Control_c, 0, 64, 47
1, 138512, Note_off_c, 0, 41, 56
1, 138518, Control_c, 0, 64, 23
1, 138532, Control_c, 0, 64, 35
1, 138547, Control_c, 0, 64, 48
1, 138562, Control_c, 0, 64, 55
1, 138577, Control_c, 0, 64, 62
1, 138591, Control_c, 0, 64, 66
1, 138606, Control_c, 0, 64, 70
1, 138621, Control_c, 0, 64, 78
1, 138636, Control_c, 0, 64, 94
1, 138637, Note_off_c, 0, 48, 56
1, 138652, Control_c, 0, 64, 127
1, 138662, Note_on_c, 0, 67, 78
1, 138662, Note_on_c, 0, 70, 85
1, 138664, Note_off_c, 0, 74, 60
1, 138666, Note_off_c, 0, 64, 62
1, 138668, Note_on_c, 0, 36, 75
1, 138763, Note_off_c, 0, 70, 64
1, 138774, Note_off_c, 0, 67, 62
1, 138808, Note_on_c, 0, 63, 94
1, 138811, Note_on_c, 0, 75, 96
1, 138819, Note_on_c, 0, 35, 81
1, 138839, Note_off_c, 0, 36, 54
1, 138882, Note_off_c, 0, 63, 62
1, 138898, Note_on_c, 0, 67, 74
1, 138906, Note_on_c, 0, 70, 69
1, 138921, Note_off_c, 0, 75, 61
1, 138933, Note_off_c, 0, 67, 63
1, 138936, Note_off_c, 0, 70, 67
1, 138964, Note_on_c, 0, 36, 76
1, 138968, Note_off_c, 0, 35, 49
1, 138985, Note_on_c, 0, 70, 84
1, 138996, Note_on_c, 0, 67, 72
1, 139028, Note_off_c, 0, 36, 60
1, 139050, Note_off_c, 0, 67, 63
1, 139054, Note_off_c, 0, 70, 64
1, 139090, Control_c, 0, 64, 88
1, 139104, Control_c, 0, 64, 61
1, 139107, Note_on_c, 0, 72, 97
1, 139108, Note_on_c, 0, 53, 96
1, 139119, Control_c, 0, 64, 0
1, 139178, Control_c, 0, 64, 41
1, 139193, Control_c, 0, 64, 57
1, 139208, Control_c, 0, 64, 63
1, 139222, Control_c, 0, 64, 68
1, 139236, Note_off_c, 0, 53, 60
1, 139237, Control_c, 0, 64, 75
1, 139252, Control_c, 0, 64, 90
1, 139266, Control_c, 0, 64, 127
1, 139284, Note_on_c, 0, 69, 80
1, 139286, Note_on_c, 0, 41, 79
1, 139286, Note_on_c, 0, 65, 79
1, 139390, Note_off_c, 0, 65, 58
1, 139412, Note_off_c, 0, 69, 63
1, 139425, Note_on_c, 0, 40, 86
1, 139436, Note_on_c, 0, 63, 91
1, 139439, Note_off_c, 0, 41, 56
1, 139498, Note_off_c, 0, 63, 63
1, 139512, Note_on_c, 0, 65, 77
1, 139516, Note_off_c, 0, 72, 61
1, 139517, Note_on_c, 0, 69, 75
1, 139524, Note_on_c, 0, 64, 45
1, 139543, Note_off_c, 0, 69, 66
1, 139550, Note_off_c, 0, 64, 57
1, 139550, Note_off_c, 0, 65, 65
1, 139574, Note_on_c, 0, 41, 78
1, 139576, Note_off_c, 0, 40, 64
1, 139591, Note_on_c, 0, 65, 61
1, 139592, Note_on_c, 0, 69, 80
1, 139644, Note_off_c, 0, 65, 61
1, 139690, Note_off_c, 0, 69, 63
1, 139712, Control_c, 0, 64, 76
1, 139716, Note_on_c, 0, 48, 87
1, 139727, Control_c, 0, 64, 58
1, 139729, Note_on_c, 0, 74, 92
1, 139729, Note_on_c, 0, 62, 97
1, 139746, Note_off_c, 0, 41, 62
1, 139749, Control_c, 0, 64, 35
1, 139764, Control_c, 0, 64, 45
1, 139779, Control_c, 0, 64, 55
1, 139794, Control_c, 0, 64, 62
1, 139809, Control_c, 0, 64, 68
1, 139824, Control_c, 0, 64, 82
1, 139839, Control_c, 0, 64, 127
1, 139853, Note_off_c, 0, 74, 61
1, 139865, Note_off_c, 0, 62, 58
1, 139884, Note_off_c, 0, 48, 58
1, 139931, Note_on_c, 0, 72, 88
1, 139935, Note_on_c, 0, 67, 86
1, 139937, Note_on_c, 0, 63, 81
1, 139937, Note_on_c, 0, 36, 81
1, 140021, Note_off_c, 0, 72, 65
1, 140057, Note_off_c, 0, 67, 63
1, 140073, Note_off_c, 0, 63, 62
1, 140098, Note_on_c, 0, 35, 82
1, 140101, Note_on_c, 0, 70, 97
1, 140105, Note_on_c, 0, 60, 87
1, 140178, Note_off_c, 0, 70, 65
1, 140182, Note_off_c, 0, 60, 60
1, 140182, Note_off_c, 0, 36, 31
1, 140244, Note_on_c, 0, 69, 90
1, 140247, Note_on_c, 0, 36, 77
1, 140250, Note_on_c, 0, 63, 76
1, 140253, Note_on_c, 0, 67, 77
1, 140271, Note_off_c, 0, 35, 60
1, 140301, Note_off_c, 0, 36, 63
1, 140331, Note_off_c, 0, 63, 64
1, 140337, Note_off_c, 0, 69, 60
1, 140347, Note_off_c, 0, 67, 63
1, 140372, Control_c, 0, 64, 113
1, 140387, Control_c, 0, 64, 70
1, 140390, Note_on_c, 0, 69, 89
1, 140393, Note_on_c, 0, 53, 97
1, 140402, Control_c, 0, 64, 30
1, 140417, Control_c, 0, 64, 0
1, 140432, Control_c, 0, 64, 24
1, 140447, Control_c, 0, 64, 49
1, 140461, Control_c, 0, 64, 60
1, 140476, Control_c, 0, 64, 66
1, 140498, Control_c, 0, 64, 78
1, 140513, Control_c, 0, 64, 108
1, 140527, Control_c, 0, 64, 127
1, 140533, Note_off_c, 0, 53, 57
1, 140571, Note_on_c, 0, 41, 82
1, 140571, Note_on_c, 0, 60, 82
1, 140574, Note_on_c, 0, 63, 79
1, 140715, Note_off_c, 0, 60, 63
1, 140719, Note_on_c, 0, 57, 88
1, 140723, Note_on_c, 0, 40, 87
1, 140731, Note_off_c, 0, 63, 61
1, 140743, Note_off_c, 0, 41, 61
1, 140802, Note_on_c, 0, 63, 68
1, 140805, Note_on_c, 0, 60, 73
1, 140812, Note_off_c, 0, 57, 65
1, 140833, Note_off_c, 0, 60, 68
1, 140837, Note_off_c, 0, 63, 60
1, 140850, Note_off_c, 0, 40, 60
1, 140873, Note_on_c, 0, 41, 84
1, 140897, Note_on_c, 0, 60, 77
1, 140900, Note_on_c, 0, 63, 71
1, 140972, Control_c, 0, 64, 99
1, 140986, Control_c, 0, 64, 66
1, 140995, Note_on_c, 0, 48, 85
1, 141001, Note_on_c, 0, 56, 95
1, 141001, Control_c, 0, 64, 34
1, 141009, Note_off_c, 0, 63, 57
1, 141016, Control_c, 0, 64, 0
1, 141022, Note_off_c, 0, 60, 61
1, 141030, Note_off_c, 0, 41, 63
1, 141031, Control_c, 0, 64, 23
1, 141047, Control_c, 0, 64, 48
1, 141062, Control_c, 0, 64, 61
1, 141077, Control_c, 0, 64, 69
1, 141089, Note_off_c, 0, 56, 64
1, 141091, Control_c, 0, 64, 86
1, 141106, Control_c, 0, 64, 127
1, 141135, Note_off_c, 0, 48, 60
1, 141142, Note_on_c, 0, 60, 68
1, 141142, Note_off_c, 0, 69, 47
1, 141147, Note_on_c, 0, 63, 60
1, 141180, Note_on_c, 0, 36, 73
1, 141208, Note_on_c, 0, 64, 24
1, 141219, Note_off_c, 0, 60, 55
1, 141231, Note_on_c, 0, 55, 75
1, 141250, Note_off_c, 0, 63, 62
1, 141257, Note_off_c, 0, 64, 49
1, 141267, Note_off_c, 0, 55, 67
1, 141333, Note_on_c, 0, 70, 91
1, 141346, Note_on_c, 0, 35, 78
1, 141383, Note_off_c, 0, 36, 57
1, 141419, Note_off_c, 0, 70, 65
1, 141443, Note_on_c, 0, 63, 78
1, 141446, Note_on_c, 0, 60, 79
1, 141475, Note_off_c, 0, 63, 63
1, 141475, Note_off_c, 0, 60, 62
1, 141514, Note_on_c, 0, 36, 71
1, 141529, Note_on_c, 0, 63, 86
1, 141529, Note_off_c, 0, 35, 54
1, 141532, Note_on_c, 0, 60, 73
1, 141571, Note_off_c, 0, 36, 60
1, 141577, Note_off_c, 0, 60, 62
1, 141602, Note_off_c, 0, 63, 65
1, 141647, Note_on_c, 0, 67, 94
1, 141647, Control_c, 0, 64, 77
1, 141650, Note_on_c, 0, 53, 89
1, 141662, Control_c, 0, 64, 58
1, 141677, Control_c, 0, 64, 26
1, 141691, Control_c, 0, 64, 21
1, 141706, Control_c, 0, 64, 36
1, 141721, Control_c, 0, 64, 51
1, 141735, Control_c, 0, 64, 60
1, 141750, Control_c, 0, 64, 66
1, 141765, Control_c, 0, 64, 74
1, 141780, Control_c, 0, 64, 94
1, 141794, Note_off_c, 0, 53, 57
1, 141795, Control_c, 0, 64, 127
1, 141822, Note_on_c, 0, 60, 77
1, 141824, Note_on_c, 0, 63, 75
1, 141829, Note_on_c, 0, 41, 77
1, 141959, Note_off_c, 0, 60, 63
1, 141962, Note_on_c, 0, 57, 81
1, 141963, Note_off_c, 0, 63, 60
1, 141994, Note_on_c, 0, 40, 83
1, 142028, Note_off_c, 0, 41, 63
1, 142057, Note_on_c, 0, 63, 64
1, 142058, Note_on_c, 0, 60, 66
1, 142060, Note_off_c, 0, 67, 60
1, 142068, Note_off_c, 0, 57, 63
1, 142085, Note_off_c, 0, 63, 67
1, 142089, Note_off_c, 0, 60, 64
1, 142132, Note_on_c, 0, 41, 81
1, 142144, Note_on_c, 0, 63, 79
1, 142146, Note_on_c, 0, 60, 71
1, 142201, Note_off_c, 0, 60, 64
1, 142224, Note_off_c, 0, 63, 63
1, 142247, Control_c, 0, 64, 80
1, 142262, Control_c, 0, 64, 58
1, 142268, Note_on_c, 0, 55, 86
1, 142269, Note_on_c, 0, 69, 88
1, 142271, Note_on_c, 0, 48, 85
1, 142277, Control_c, 0, 64, 34
1, 142280, Note_off_c, 0, 41, 49
1, 142281, Note_off_c, 0, 40, 38
1, 142292, Control_c, 0, 64, 48
1, 142307, Control_c, 0, 64, 59
1, 142322, Note_on_c, 0, 67, 17
1, 142323, Note_off_c, 0, 67, 127
1, 142323, Control_c, 0, 64, 65
1, 142337, Control_c, 0, 64, 76
1, 142352, Control_c, 0, 64, 116
1, 142363, Note_off_c, 0, 69, 58
1, 142366, Control_c, 0, 64, 127
1, 142377, Note_off_c, 0, 55, 60
1, 142425, Note_off_c, 0, 48, 60
1, 142448, Note_on_c, 0, 67, 84
1, 142459, Note_on_c, 0, 60, 78
1, 142464, Note_on_c, 0, 63, 74
1, 142471, Note_on_c, 0, 36, 80
1, 142537, Note_off_c, 0, 67, 63
1, 142578, Note_off_c, 0, 63, 62
1, 142581, Note_off_c, 0, 60, 63
1, 142620, Note_on_c, 0, 65, 89
1, 142623, Note_on_c, 0, 54, 97
1, 142629, Note_on_c, 0, 35, 81
1, 142687, Note_off_c, 0, 36, 0
1, 142709, Note_off_c, 0, 65, 56
1, 142718, Note_off_c, 0, 54, 61
1, 142721, Poly_aftertouch_c, 0, 36, 0
1, 142736, Note_off_c, 0, 35, 57
1, 142787, Note_on_c, 0, 63, 87
1, 142788, Note_on_c, 0, 55, 84
1, 142792, Note_on_c, 0, 58, 78
1, 142793, Note_on_c, 0, 36, 60
1, 142827, Note_off_c, 0, 36, 60
1, 142874, Note_off_c, 0, 55, 60
1, 142885, Note_off_c, 0, 58, 61
1, 142888, Note_off_c, 0, 63, 62
1, 142954, Note_on_c, 0, 44, 94
1, 142955, Note_on_c, 0, 61, 95
1, 142961, Note_on_c, 0, 52, 88
1, 142964, Note_on_c, 0, 37, 76
1, 142966, Note_on_c, 0, 56, 79
1, 142996, Control_c, 0, 64, 80
1, 143011, Control_c, 0, 64, 43
1, 143026, Control_c, 0, 64, 0
1, 143077, Note_off_c, 0, 52, 56
1, 143125, Note_off_c, 0, 56, 62
1, 143220, Note_off_c, 0, 61, 59
1, 143288, Note_on_c, 0, 64, 101
1, 143308, Control_c, 0, 64, 46
1, 143322, Control_c, 0, 64, 64
1, 143334, Note_off_c, 0, 64, 69
1, 143337, Control_c, 0, 64, 78
1, 143352, Control_c, 0, 64, 127
1, 143631, Note_on_c, 0, 52, 99
1, 143642, Control_c, 0, 64, 103
1, 143657, Control_c, 0, 64, 67
1, 143672, Control_c, 0, 64, 0
1, 143745, Note_off_c, 0, 44, 61
1, 143762, Note_off_c, 0, 37, 63
1, 143777, Note_on_c, 0, 45, 84
1, 143782, Note_on_c, 0, 48, 88
1, 143834, Note_off_c, 0, 48, 65
1, 143855, Note_off_c, 0, 45, 64
1, 143946, Note_on_c, 0, 44, 97
1, 143952, Note_on_c, 0, 37, 84
1, 144001, Note_off_c, 0, 44, 63
1, 144015, Note_off_c, 0, 37, 58
1, 144098, Note_on_c, 0, 45, 87
1, 144101, Note_on_c, 0, 48, 85
1, 144146, Note_off_c, 0, 48, 62
1, 144173, Note_off_c, 0, 45, 63
1, 144271, Note_on_c, 0, 44, 101
1, 144279, Note_on_c, 0, 37, 88
1, 144302, Control_c, 0, 64, 48
1, 144316, Control_c, 0, 64, 62
1, 144331, Control_c, 0, 64, 72
1, 144344, Note_off_c, 0, 52, 47
1, 144346, Control_c, 0, 64, 127
1, 144594, Note_on_c, 0, 64, 96
1, 144640, Note_off_c, 0, 64, 69
1, 144910, Note_on_c, 0, 54, 99
1, 144911, Note_on_c, 0, 52, 93
1, 144952, Control_c, 0, 64, 82
1, 144966, Control_c, 0, 64, 26
1, 144969, Note_off_c, 0, 44, 62
1, 144989, Control_c, 0, 64, 0
1, 145011, Note_off_c, 0, 37, 62
1, 145069, Note_on_c, 0, 48, 90
1, 145081, Note_on_c, 0, 45, 75
1, 145096, Note_on_c, 0, 46, 54
1, 145119, Note_off_c, 0, 48, 66
1, 145125, Note_off_c, 0, 46, 53
1, 145130, Note_on_c, 0, 44, 7
1, 145131, Note_off_c, 0, 44, 127
1, 145142, Note_off_c, 0, 45, 64
1, 145229, Note_on_c, 0, 37, 82
1, 145229, Note_on_c, 0, 44, 91
1, 145284, Note_off_c, 0, 44, 63
1, 145291, Note_off_c, 0, 37, 56
1, 145374, Note_on_c, 0, 45, 84
1, 145374, Note_on_c, 0, 48, 86
1, 145422, Note_off_c, 0, 48, 63
1, 145448, Note_off_c, 0, 45, 63
1, 145527, Note_on_c, 0, 44, 98
1, 145532, Note_on_c, 0, 37, 91
1, 145553, Control_c, 0, 64, 49
1, 145561, Note_off_c, 0, 52, 54
1, 145568, Control_c, 0, 64, 61
1, 145576, Note_off_c, 0, 54, 63
1, 145582, Control_c, 0, 64, 78
1, 145597, Control_c, 0, 64, 127
1, 145643, Poly_aftertouch_c, 0, 43, 0
1, 145881, Note_on_c, 0, 64, 99
1, 145924, Note_off_c, 0, 64, 68
1, 146072, Note_off_c, 0, 37, 30
1, 146205, Note_on_c, 0, 55, 92
1, 146209, Note_on_c, 0, 52, 86
1, 146584, Note_on_c, 0, 37, 87
1, 146789, Note_off_c, 0, 52, 54
1, 147031, Note_on_c, 0, 56, 85
1, 147035, Note_on_c, 0, 52, 86
1, 147037, Note_on_c, 0, 46, 94
1, 147080, Note_on_c, 0, 58, 53
1, 147096, Control_c, 0, 64, 104
1, 147110, Note_off_c, 0, 58, 55
1, 147110, Control_c, 0, 64, 63
1, 147125, Control_c, 0, 64, 0
1, 147340, Control_c, 0, 64, 13
1, 147354, Control_c, 0, 64, 37
1, 147369, Control_c, 0, 64, 44
1, 147384, Control_c, 0, 64, 47
1, 147399, Control_c, 0, 64, 51
1, 147414, Control_c, 0, 64, 54
1, 147430, Control_c, 0, 64, 60
1, 147445, Control_c, 0, 64, 64
1, 147459, Control_c, 0, 64, 67
1, 147474, Control_c, 0, 64, 71
1, 147489, Control_c, 0, 64, 81
1, 147504, Control_c, 0, 64, 101
1, 147519, Control_c, 0, 64, 127
1, 147663, Note_off_c, 0, 52, 59
1, 147779, Note_off_c, 0, 44, 8
1, 147792, Note_off_c, 0, 55, 48
1, 147843, Note_off_c, 0, 37, 36
1, 147845, Control_c, 0, 67, 25
1, 147859, Control_c, 0, 67, 58
1, 147866, Note_off_c, 0, 46, 55
1, 147874, Control_c, 0, 67, 95
1, 147889, Control_c, 0, 67, 127
1, 147908, Note_off_c, 0, 56, 58
1, 148763, Control_c, 0, 64, 94
1, 148778, Control_c, 0, 64, 72
1, 148793, Control_c, 0, 64, 60
1, 148804, Note_on_c, 0, 67, 42
1, 148807, Note_on_c, 0, 64, 45
1, 148807, Control_c, 0, 64, 61
1, 148822, Control_c, 0, 64, 63
1, 148823, Note_on_c, 0, 49, 34
1, 148823, Note_on_c, 0, 68, 42
1, 148830, Note_on_c, 0, 60, 34
1, 148837, Control_c, 0, 64, 65
1, 148852, Control_c, 0, 64, 71
1, 148867, Control_c, 0, 64, 84
1, 148869, Note_off_c, 0, 67, 54
1, 148880, Note_off_c, 0, 49, 58
1, 148880, Note_off_c, 0, 64, 52
1, 148881, Control_c, 0, 64, 127
1, 148898, Note_off_c, 0, 60, 57
1, 148925, Note_off_c, 0, 68, 50
1, 149519, Note_on_c, 0, 76, 53
1, 149526, Note_on_c, 0, 61, 42
1, 149529, Note_on_c, 0, 80, 46
1, 149539, Note_on_c, 0, 70, 41
1, 149540, Note_on_c, 0, 79, 34
1, 149557, Note_off_c, 0, 80, 63
1, 149560, Note_off_c, 0, 76, 61
1, 149568, Note_off_c, 0, 79, 53
1, 149574, Note_off_c, 0, 70, 63
1, 149584, Note_off_c, 0, 61, 59
1, 150165, Control_c, 0, 67, 117
1, 150180, Control_c, 0, 67, 79
1, 150183, Note_on_c, 0, 44, 79
1, 150194, Control_c, 0, 64, 75
1, 150194, Control_c, 0, 67, 45
1, 150209, Control_c, 0, 64, 11
1, 150209, Control_c, 0, 67, 14
1, 150232, Control_c, 0, 64, 0
1, 150232, Control_c, 0, 67, 0
1, 150318, Note_off_c, 0, 44, 58
1, 150372, Note_on_c, 0, 32, 49
1, 150518, Note_off_c, 0, 32, 35
1, 150532, Note_on_c, 0, 31, 39
1, 150550, Note_on_c, 0, 56, 32
1, 150692, Note_on_c, 0, 32, 38
1, 150697, Note_off_c, 0, 31, 35
1, 150847, Note_on_c, 0, 45, 44
1, 150854, Note_off_c, 0, 56, 48
1, 150855, Note_off_c, 0, 32, 44
1, 150864, Note_on_c, 0, 55, 41
1, 150959, Note_off_c, 0, 45, 47
1, 151018, Note_on_c, 0, 33, 54
1, 151139, Note_off_c, 0, 33, 60
1, 151169, Note_on_c, 0, 32, 50
1, 151174, Note_off_c, 0, 55, 60
1, 151183, Note_on_c, 0, 56, 60
1, 151247, Control_c, 0, 64, 21
1, 151262, Control_c, 0, 64, 34
1, 151277, Control_c, 0, 64, 45
1, 151291, Control_c, 0, 64, 54
1, 151306, Control_c, 0, 64, 60
1, 151311, Note_off_c, 0, 32, 57
1, 151321, Control_c, 0, 64, 62
1, 151336, Control_c, 0, 64, 65
1, 151342, Note_on_c, 0, 33, 50
1, 151351, Control_c, 0, 64, 67
1, 151366, Control_c, 0, 64, 72
1, 151381, Control_c, 0, 64, 77
1, 151384, Note_off_c, 0, 33, 61
1, 151396, Control_c, 0, 64, 84
1, 151410, Control_c, 0, 64, 87
1, 151470, Control_c, 0, 64, 86
1, 151479, Note_off_c, 0, 56, 52
1, 151485, Control_c, 0, 64, 86
1, 151497, Note_on_c, 0, 46, 53
1, 151500, Control_c, 0, 64, 85
1, 151515, Control_c, 0, 64, 84
1, 151522, Note_on_c, 0, 68, 54
1, 151530, Control_c, 0, 64, 83
1, 151545, Control_c, 0, 64, 82
1, 151560, Control_c, 0, 64, 81
1, 151574, Control_c, 0, 64, 79
1, 151589, Control_c, 0, 64, 77
1, 151604, Control_c, 0, 64, 74
1, 151619, Control_c, 0, 64, 72
1, 151633, Control_c, 0, 64, 69
1, 151648, Control_c, 0, 64, 66
1, 151660, Note_off_c, 0, 46, 33
1, 151663, Control_c, 0, 64, 62
1, 151673, Note_on_c, 0, 34, 37
1, 151678, Control_c, 0, 64, 56
1, 151692, Control_c, 0, 64, 49
1, 151707, Control_c, 0, 64, 44
1, 151730, Control_c, 0, 64, 39
1, 151745, Control_c, 0, 64, 35
1, 151759, Control_c, 0, 64, 28
1, 151774, Control_c, 0, 64, 18
1, 151789, Control_c, 0, 64, 11
1, 151804, Control_c, 0, 64, 9
1, 151839, Note_off_c, 0, 34, 40
1, 151840, Note_on_c, 0, 33, 39
1, 151849, Note_on_c, 0, 56, 51
1, 151876, Note_off_c, 0, 68, 36
1, 151997, Note_on_c, 0, 34, 51
1, 152010, Note_off_c, 0, 33, 39
1, 152166, Note_off_c, 0, 34, 56
1, 152172, Note_off_c, 0, 56, 59
1, 152173, Note_on_c, 0, 47, 46
1, 152189, Note_on_c, 0, 55, 50
1, 152281, Note_off_c, 0, 47, 53
1, 152331, Note_on_c, 0, 35, 47
1, 152448, Note_off_c, 0, 55, 59
1, 152462, Note_off_c, 0, 35, 55
1, 152498, Note_on_c, 0, 34, 50
1, 152501, Note_on_c, 0, 56, 42
1, 152537, Control_c, 0, 64, 12
1, 152552, Control_c, 0, 64, 15
1, 152567, Control_c, 0, 64, 17
1, 152582, Control_c, 0, 64, 20
1, 152597, Control_c, 0, 64, 24
1, 152612, Control_c, 0, 64, 28
1, 152627, Control_c, 0, 64, 32
1, 152642, Control_c, 0, 64, 36
1, 152654, Note_off_c, 0, 34, 60
1, 152656, Control_c, 0, 64, 39
1, 152669, Note_on_c, 0, 35, 48
1, 152671, Control_c, 0, 64, 42
1, 152686, Control_c, 0, 64, 45
1, 152701, Control_c, 0, 64, 48
1, 152716, Control_c, 0, 64, 51
1, 152730, Control_c, 0, 64, 54
1, 152745, Control_c, 0, 64, 58
1, 152760, Note_off_c, 0, 35, 57
1, 152760, Control_c, 0, 64, 61
1, 152774, Control_c, 0, 64, 64
1, 152789, Control_c, 0, 64, 66
1, 152804, Control_c, 0, 64, 67
1, 152817, Note_on_c, 0, 48, 68
1, 152819, Control_c, 0, 64, 67
1, 152821, Note_off_c, 0, 56, 63
1, 152834, Control_c, 0, 64, 67
1, 152848, Control_c, 0, 64, 66
1, 152863, Control_c, 0, 64, 64
1, 152878, Control_c, 0, 64, 62
1, 152893, Control_c, 0, 64, 60
1, 152908, Control_c, 0, 64, 56
1, 152922, Control_c, 0, 64, 50
1, 152936, Note_off_c, 0, 48, 53
1, 152937, Control_c, 0, 64, 44
1, 152952, Control_c, 0, 64, 39
1, 152966, Control_c, 0, 64, 37
1, 152981, Control_c, 0, 64, 35
1, 152982, Note_on_c, 0, 36, 52
1, 152996, Control_c, 0, 64, 33
1, 153011, Control_c, 0, 64, 31
1, 153026, Control_c, 0, 64, 28
1, 153041, Control_c, 0, 64, 25
1, 153056, Control_c, 0, 64, 24
1, 153071, Control_c, 0, 64, 23
1, 153086, Control_c, 0, 64, 22
1, 153101, Control_c, 0, 64, 21
1, 153112, Note_off_c, 0, 36, 58
1, 153116, Control_c, 0, 64, 21
1, 153139, Note_on_c, 0, 56, 47
1, 153145, Control_c, 0, 64, 20
1, 153148, Note_on_c, 0, 35, 44
1, 153160, Control_c, 0, 64, 19
1, 153190, Control_c, 0, 64, 18
1, 153256, Control_c, 0, 64, 17
1, 153305, Note_on_c, 0, 36, 47
1, 153328, Note_off_c, 0, 35, 45
1, 153330, Control_c, 0, 64, 17
1, 153382, Note_off_c, 0, 36, 60
1, 153455, Note_on_c, 0, 49, 60
1, 153459, Note_off_c, 0, 56, 62
1, 153490, Note_on_c, 0, 55, 47
1, 153625, Note_on_c, 0, 37, 46
1, 153628, Note_off_c, 0, 49, 38
1, 153770, Note_off_c, 0, 55, 59
1, 153776, Note_off_c, 0, 37, 53
1, 153810, Note_on_c, 0, 36, 41
1, 153814, Note_on_c, 0, 56, 45
1, 153850, Control_c, 0, 64, 17
1, 153865, Control_c, 0, 64, 18
1, 153880, Control_c, 0, 64, 20
1, 153894, Control_c, 0, 64, 21
1, 153924, Control_c, 0, 64, 21
1, 154004, Note_off_c, 0, 36, 46
1, 154019, Note_on_c, 0, 37, 38
1, 154174, Note_off_c, 0, 56, 51
1, 154197, Note_on_c, 0, 50, 44
1, 154201, Note_off_c, 0, 37, 45
1, 154205, Note_on_c, 0, 68, 42
1, 154364, Note_off_c, 0, 50, 39
1, 154424, Note_on_c, 0, 38, 37
1, 154600, Note_off_c, 0, 68, 56
1, 154602, Note_off_c, 0, 38, 43
1, 154635, Note_on_c, 0, 37, 34
1, 154658, Note_on_c, 0, 56, 33
1, 154876, Note_off_c, 0, 37, 42
1, 154894, Note_on_c, 0, 38, 35
1, 155165, Note_off_c, 0, 38, 40
1, 155190, Note_on_c, 0, 39, 35
1, 155594, Note_on_c, 0, 44, 31
1, 155599, Note_off_c, 0, 39, 42
1, 156555, Note_off_c, 0, 56, 33
1, 156557, Note_off_c, 0, 44, 29
1, 157083, Note_on_c, 0, 57, 40
1, 157113, Note_off_c, 0, 57, 56
1, 157180, Note_on_c, 0, 38, 41
1, 157191, Note_on_c, 0, 45, 40
1, 157241, Note_on_c, 0, 65, 48
1, 157266, Control_c, 0, 64, 21
1, 157298, Note_off_c, 0, 65, 60
1, 157305, Note_off_c, 0, 45, 59
1, 157333, Note_off_c, 0, 38, 35
1, 157350, Note_on_c, 0, 69, 30
1, 157351, Note_on_c, 0, 50, 47
1, 157355, Control_c, 0, 64, 21
1, 157370, Control_c, 0, 64, 27
1, 157383, Note_off_c, 0, 69, 54
1, 157384, Control_c, 0, 64, 33
1, 157399, Control_c, 0, 64, 39
1, 157415, Control_c, 0, 64, 44
1, 157430, Control_c, 0, 64, 48
1, 157432, Note_on_c, 0, 65, 40
1, 157444, Control_c, 0, 64, 52
1, 157459, Control_c, 0, 64, 58
1, 157467, Note_off_c, 0, 65, 59
1, 157474, Control_c, 0, 64, 63
1, 157489, Control_c, 0, 64, 66
1, 157498, Note_on_c, 0, 69, 32
1, 157504, Control_c, 0, 64, 68
1, 157512, Note_off_c, 0, 50, 56
1, 157518, Note_on_c, 0, 53, 59
1, 157519, Control_c, 0, 64, 72
1, 157533, Control_c, 0, 64, 80
1, 157548, Control_c, 0, 64, 89
1, 157558, Note_off_c, 0, 69, 47
1, 157563, Control_c, 0, 64, 101
1, 157566, Note_off_c, 0, 53, 56
1, 157578, Note_on_c, 0, 65, 45
1, 157578, Control_c, 0, 64, 127
1, 157654, Note_off_c, 0, 65, 52
1, 157681, Note_on_c, 0, 69, 49
1, 157763, Control_c, 0, 64, 110
1, 157778, Control_c, 0, 64, 86
1, 157780, Note_off_c, 0, 69, 55
1, 157793, Note_on_c, 0, 64, 45
1, 157793, Control_c, 0, 64, 70
1, 157808, Control_c, 0, 64, 61
1, 157819, Note_on_c, 0, 36, 55
1, 157822, Note_off_c, 0, 64, 61
1, 157823, Control_c, 0, 64, 56
1, 157838, Control_c, 0, 64, 60
1, 157850, Note_off_c, 0, 36, 63
1, 157853, Control_c, 0, 64, 62
1, 157868, Control_c, 0, 64, 64
1, 157883, Control_c, 0, 64, 67
1, 157897, Control_c, 0, 64, 71
1, 157912, Control_c, 0, 64, 83
1, 157918, Note_on_c, 0, 64, 48
1, 157927, Control_c, 0, 64, 108
1, 157942, Control_c, 0, 64, 127
1, 157960, Note_off_c, 0, 64, 64
1, 157975, Note_on_c, 0, 52, 76
1, 158016, Control_c, 0, 64, 92
1, 158031, Control_c, 0, 64, 77
1, 158046, Control_c, 0, 64, 66
1, 158060, Control_c, 0, 64, 56
1, 158075, Control_c, 0, 64, 49
1, 158084, Note_on_c, 0, 64, 38
1, 158090, Control_c, 0, 64, 54
1, 158105, Control_c, 0, 64, 59
1, 158119, Note_off_c, 0, 64, 61
1, 158120, Control_c, 0, 64, 61
1, 158124, Note_on_c, 0, 55, 71
1, 158134, Control_c, 0, 64, 63
1, 158149, Control_c, 0, 64, 65
1, 158164, Control_c, 0, 64, 66
1, 158174, Note_on_c, 0, 69, 40
1, 158179, Control_c, 0, 64, 70
1, 158194, Control_c, 0, 64, 80
1, 158203, Note_off_c, 0, 69, 56
1, 158209, Control_c, 0, 64, 96
1, 158221, Note_on_c, 0, 64, 49
1, 158223, Control_c, 0, 64, 118
1, 158231, Note_off_c, 0, 52, 50
1, 158238, Control_c, 0, 64, 127
1, 158240, Note_off_c, 0, 55, 60
1, 158252, Note_off_c, 0, 64, 64
1, 158267, Note_on_c, 0, 53, 74
1, 158297, Note_off_c, 0, 53, 65
1, 158338, Note_on_c, 0, 64, 53
1, 158354, Poly_aftertouch_c, 0, 69, 127
1, 158356, Control_c, 0, 64, 95
1, 158360, Note_off_c, 0, 64, 61
1, 158371, Control_c, 0, 64, 69
1, 158383, Poly_aftertouch_c, 0, 69, 0
1, 158386, Control_c, 0, 64, 50
1, 158401, Control_c, 0, 64, 0
1, 158416, Control_c, 0, 64, 34
1, 158422, Note_on_c, 0, 35, 68
1, 158431, Control_c, 0, 64, 51
1, 158437, Note_on_c, 0, 52, 72
1, 158446, Control_c, 0, 64, 59
1, 158460, Note_off_c, 0, 35, 63
1, 158467, Control_c, 0, 64, 64
1, 158474, Note_off_c, 0, 52, 69
1, 158482, Control_c, 0, 64, 75
1, 158497, Control_c, 0, 64, 106
1, 158512, Control_c, 0, 64, 127
1, 158556, Note_on_c, 0, 64, 24
1, 158571, Control_c, 0, 64, 86
1, 158586, Control_c, 0, 64, 69
1, 158592, Note_on_c, 0, 65, 16
1, 158596, Note_on_c, 0, 53, 63
1, 158597, Note_off_c, 0, 64, 64
1, 158601, Control_c, 0, 64, 54
1, 158617, Control_c, 0, 64, 0
1, 158623, Note_on_c, 0, 49, 44
1, 158633, Note_off_c, 0, 65, 39
1, 158636, Note_on_c, 0, 69, 57
1, 158657, Note_off_c, 0, 49, 52
1, 158675, Note_off_c, 0, 69, 65
1, 158685, Note_on_c, 0, 65, 50
1, 158731, Note_off_c, 0, 65, 63
1, 158750, Control_c, 0, 64, 34
1, 158755, Note_on_c, 0, 57, 78
1, 158755, Note_off_c, 0, 53, 60
1, 158759, Note_on_c, 0, 69, 61
1, 158765, Control_c, 0, 64, 44
1, 158779, Control_c, 0, 64, 49
1, 158789, Note_on_c, 0, 50, 45
1, 158794, Control_c, 0, 64, 54
1, 158802, Note_off_c, 0, 69, 66
1, 158809, Control_c, 0, 64, 58
1, 158824, Control_c, 0, 64, 62
1, 158833, Note_on_c, 0, 65, 50
1, 158839, Control_c, 0, 64, 66
1, 158854, Control_c, 0, 64, 72
1, 158869, Control_c, 0, 64, 81
1, 158872, Note_off_c, 0, 57, 63
1, 158873, Note_off_c, 0, 65, 64
1, 158884, Control_c, 0, 64, 95
1, 158898, Control_c, 0, 64, 127
1, 158904, Note_on_c, 0, 69, 56
1, 158905, Note_off_c, 0, 50, 62
1, 158907, Note_on_c, 0, 53, 72
1, 158934, Note_off_c, 0, 53, 66
1, 158952, Note_off_c, 0, 69, 51
1, 158961, Note_on_c, 0, 65, 60
1, 159000, Note_off_c, 0, 65, 63
1, 159001, Control_c, 0, 64, 94
1, 159016, Control_c, 0, 64, 71
1, 159030, Control_c, 0, 64, 50
1, 159045, Control_c, 0, 64, 28
1, 159054, Note_on_c, 0, 55, 77
1, 159054, Note_on_c, 0, 34, 67
1, 159060, Control_c, 0, 64, 44
1, 159075, Control_c, 0, 64, 54
1, 159087, Note_off_c, 0, 34, 63
1, 159089, Control_c, 0, 64, 59
1, 159104, Control_c, 0, 64, 64
1, 159119, Control_c, 0, 64, 69
1, 159124, Note_off_c, 0, 55, 62
1, 159134, Control_c, 0, 64, 82
1, 159137, Note_on_c, 0, 64, 70
1, 159149, Control_c, 0, 64, 127
1, 159194, Note_off_c, 0, 64, 64
1, 159202, Note_on_c, 0, 55, 80
1, 159219, Note_on_c, 0, 67, 69
1, 159268, Note_off_c, 0, 67, 61
1, 159274, Note_on_c, 0, 64, 58
1, 159275, Control_c, 0, 64, 113
1, 159289, Control_c, 0, 64, 78
1, 159304, Control_c, 0, 64, 60
1, 159317, Note_off_c, 0, 64, 64
1, 159319, Control_c, 0, 64, 0
1, 159334, Control_c, 0, 64, 17
1, 159344, Note_on_c, 0, 67, 60
1, 159346, Note_off_c, 0, 55, 62
1, 159349, Control_c, 0, 64, 44
1, 159350, Note_on_c, 0, 58, 96
1, 159364, Control_c, 0, 64, 56
1, 159367, Note_on_c, 0, 54, 70
1, 159379, Control_c, 0, 64, 62
1, 159394, Control_c, 0, 64, 65
1, 159397, Note_off_c, 0, 67, 62
1, 159400, Note_off_c, 0, 54, 68
1, 159408, Note_on_c, 0, 64, 69
1, 159409, Control_c, 0, 64, 71
1, 159424, Control_c, 0, 64, 86
1, 159425, Note_off_c, 0, 58, 63
1, 159439, Control_c, 0, 64, 127
1, 159478, Note_off_c, 0, 64, 63
1, 159513, Note_on_c, 0, 67, 58
1, 159549, Note_off_c, 0, 67, 62
1, 159552, Note_on_c, 0, 64, 60
1, 159602, Control_c, 0, 64, 82
1, 159617, Control_c, 0, 64, 62
1, 159623, Note_off_c, 0, 64, 58
1, 159632, Control_c, 0, 64, 0
1, 159645, Note_on_c, 0, 33, 72
1, 159647, Note_on_c, 0, 53, 80
1, 159661, Control_c, 0, 64, 29
1, 159676, Control_c, 0, 64, 52
1, 159680, Note_off_c, 0, 33, 66
1, 159691, Control_c, 0, 64, 62
1, 159702, Note_off_c, 0, 53, 62
1, 159706, Control_c, 0, 64, 68
1, 159715, Poly_aftertouch_c, 0, 64, 127
1, 159717, Note_on_c, 0, 60, 74
1, 159720, Control_c, 0, 64, 80
1, 159735, Control_c, 0, 64, 127
1, 159747, Poly_aftertouch_c, 0, 64, 0
1, 159771, Note_off_c, 0, 60, 63
1, 159790, Note_on_c, 0, 69, 83
1, 159811, Note_on_c, 0, 57, 84
1, 159848, Note_off_c, 0, 69, 62
1, 159869, Note_on_c, 0, 60, 78
1, 159873, Note_on_c, 0, 59, 2
1, 159874, Note_off_c, 0, 59, 127
1, 159897, Note_off_c, 0, 60, 61
1, 159898, Control_c, 0, 64, 118
1, 159912, Control_c, 0, 64, 74
1, 159923, Note_off_c, 0, 57, 64
1, 159927, Control_c, 0, 64, 54
1, 159942, Control_c, 0, 64, 23
1, 159945, Note_on_c, 0, 60, 83
1, 159946, Note_on_c, 0, 69, 76
1, 159960, Note_on_c, 0, 52, 81
1, 159965, Control_c, 0, 64, 48
1, 159980, Control_c, 0, 64, 59
1, 159985, Note_off_c, 0, 60, 67
1, 159994, Control_c, 0, 64, 64
1, 159998, Note_off_c, 0, 69, 60
1, 160004, Note_off_c, 0, 52, 65
1, 160009, Control_c, 0, 64, 71
1, 160020, Note_on_c, 0, 60, 66
1, 160024, Control_c, 0, 64, 84
1, 160038, Control_c, 0, 64, 127
1, 160057, Note_off_c, 0, 60, 66
1, 160100, Note_on_c, 0, 69, 61
1, 160125, Note_off_c, 0, 69, 56
1, 160152, Note_on_c, 0, 62, 50
1, 160153, Note_on_c, 0, 60, 27
1, 160174, Note_off_c, 0, 60, 62
1, 160186, Control_c, 0, 64, 74
1, 160201, Control_c, 0, 64, 52
1, 160213, Note_off_c, 0, 62, 63
1, 160217, Control_c, 0, 64, 0
1, 160219, Note_on_c, 0, 51, 86
1, 160232, Control_c, 0, 64, 20
1, 160234, Note_on_c, 0, 31, 85
1, 160243, Note_off_c, 0, 51, 70
1, 160247, Control_c, 0, 64, 55
1, 160262, Control_c, 0, 64, 65
1, 160264, Note_off_c, 0, 31, 68
1, 160277, Control_c, 0, 64, 80
1, 160291, Control_c, 0, 64, 127
1, 160306, Note_on_c, 0, 63, 3
1, 160314, Poly_aftertouch_c, 0, 54, 0
1, 160327, Note_on_c, 0, 62, 67
1, 160342, Note_off_c, 0, 63, 34
1, 160387, Note_off_c, 0, 62, 63
1, 160395, Note_on_c, 0, 70, 83
1, 160407, Note_on_c, 0, 59, 71
1, 160410, Note_on_c, 0, 58, 46
1, 160430, Note_on_c, 0, 60, 42
1, 160440, Note_off_c, 0, 58, 53
1, 160458, Note_off_c, 0, 60, 55
1, 160458, Note_off_c, 0, 70, 61
1, 160469, Control_c, 0, 64, 87
1, 160474, Note_off_c, 0, 59, 59
1, 160484, Note_on_c, 0, 62, 62
1, 160484, Control_c, 0, 64, 62
1, 160499, Control_c, 0, 64, 0
1, 160502, Note_off_c, 0, 62, 66
1, 160514, Control_c, 0, 64, 32
1, 160523, Note_on_c, 0, 62, 83
1, 160529, Control_c, 0, 64, 60
1, 160532, Note_on_c, 0, 50, 69
1, 160537, Note_on_c, 0, 70, 68
1, 160543, Control_c, 0, 64, 68
1, 160550, Note_on_c, 0, 52, 65
1, 160558, Note_off_c, 0, 62, 68
1, 160558, Control_c, 0, 64, 87
1, 160572, Note_off_c, 0, 70, 61
1, 160573, Control_c, 0, 64, 127
1, 160574, Note_off_c, 0, 52, 59
1, 160580, Note_off_c, 0, 50, 62
1, 160592, Note_on_c, 0, 62, 69
1, 160652, Note_off_c, 0, 62, 55
1, 160662, Note_on_c, 0, 53, 77
1, 160691, Note_off_c, 0, 53, 67
1, 160747, Note_on_c, 0, 58, 65
1, 160831, Note_on_c, 0, 41, 77
1, 160832, Control_c, 0, 64, 76
1, 160836, Note_on_c, 0, 40, 80
1, 160843, Note_off_c, 0, 58, 62
1, 160847, Control_c, 0, 64, 49
1, 160861, Control_c, 0, 64, 0
1, 160866, Note_off_c, 0, 40, 66
1, 160875, Note_off_c, 0, 41, 64
1, 160958, Note_on_c, 0, 64, 71
1, 160967, Note_on_c, 0, 40, 62
1, 160968, Note_on_c, 0, 43, 75
1, 160973, Note_on_c, 0, 60, 48
1, 160983, Note_off_c, 0, 64, 69
1, 160997, Note_off_c, 0, 60, 57
1, 161004, Note_off_c, 0, 43, 66
1, 161016, Note_off_c, 0, 40, 63
1, 161111, Note_on_c, 0, 65, 82
1, 161111, Note_on_c, 0, 62, 78
1, 161113, Note_on_c, 0, 41, 90
1, 161120, Note_on_c, 0, 38, 79
1, 161136, Note_off_c, 0, 62, 69
1, 161152, Note_off_c, 0, 41, 65
1, 161154, Note_off_c, 0, 65, 61
1, 161158, Note_off_c, 0, 38, 61
1, 161253, Note_on_c, 0, 40, 88
1, 161263, Note_on_c, 0, 36, 70
1, 161298, Note_off_c, 0, 36, 60
1, 161312, Note_on_c, 0, 74, 85
1, 161312, Note_off_c, 0, 40, 64
1, 161313, Note_on_c, 0, 62, 87
1, 161326, Note_on_c, 0, 38, 46
1, 161333, Note_off_c, 0, 74, 70
1, 161343, Note_off_c, 0, 62, 66
1, 161356, Note_off_c, 0, 38, 56
1, 161398, Note_on_c, 0, 39, 87
1, 161403, Note_on_c, 0, 69, 94
1, 161404, Note_on_c, 0, 35, 87
1, 161404, Note_on_c, 0, 57, 98
1, 161406, Note_on_c, 0, 61, 90
1, 161409, Note_on_c, 0, 63, 86
1, 161441, Control_c, 0, 64, 60
1, 161463, Control_c, 0, 64, 84
1, 161478, Control_c, 0, 64, 127
1, 161497, Note_off_c, 0, 57, 60
1, 161548, Note_off_c, 0, 35, 60
1, 161574, Note_off_c, 0, 61, 53
1, 161597, Note_on_c, 0, 57, 81
1, 161604, Note_off_c, 0, 63, 38
1, 161608, Note_off_c, 0, 69, 0
1, 161617, Note_off_c, 0, 57, 73
1, 161644, Poly_aftertouch_c, 0, 69, 127
1, 161645, Note_off_c, 0, 39, 36
1, 161683, Poly_aftertouch_c, 0, 69, 0
1, 161808, Note_on_c, 0, 34, 96
1, 161808, Note_on_c, 0, 38, 95
1, 161811, Note_on_c, 0, 81, 104
1, 161812, Note_on_c, 0, 93, 106
1, 161835, Control_c, 0, 64, 102
1, 161844, Note_on_c, 0, 92, 55
1, 161850, Control_c, 0, 64, 63
1, 161864, Control_c, 0, 64, 0
1, 161865, Note_off_c, 0, 92, 59
1, 161927, Note_off_c, 0, 93, 65
1, 161938, Control_c, 0, 64, 12
1, 161953, Control_c, 0, 64, 54
1, 161964, Note_off_c, 0, 81, 66
1, 161968, Control_c, 0, 64, 62
1, 161972, Note_off_c, 0, 38, 61
1, 161982, Control_c, 0, 64, 69
1, 161997, Control_c, 0, 64, 88
1, 162012, Control_c, 0, 64, 127
1, 162140, Note_off_c, 0, 34, 60
1, 162158, Note_on_c, 0, 69, 105
1, 162158, Note_on_c, 0, 81, 92
1, 162160, Note_on_c, 0, 73, 86
1, 162160, Control_c, 0, 64, 71
1, 162161, Note_on_c, 0, 76, 81
1, 162163, Note_on_c, 0, 37, 96
1, 162163, Note_on_c, 0, 33, 87
1, 162175, Control_c, 0, 64, 0
1, 162256, Control_c, 0, 64, 39
1, 162262, Note_off_c, 0, 81, 65
1, 162264, Note_off_c, 0, 69, 61
1, 162271, Control_c, 0, 64, 62
1, 162286, Control_c, 0, 64, 69
1, 162301, Control_c, 0, 64, 80
1, 162309, Note_off_c, 0, 73, 61
1, 162315, Control_c, 0, 64, 108
1, 162316, Note_off_c, 0, 76, 62
1, 162330, Control_c, 0, 64, 127
1, 162347, Note_on_c, 0, 69, 98
1, 162347, Note_on_c, 0, 81, 75
1, 162369, Note_off_c, 0, 81, 71
1, 162370, Note_off_c, 0, 33, 59
1, 162371, Note_off_c, 0, 37, 61
1, 162384, Note_off_c, 0, 69, 69
1, 162494, Control_c, 0, 64, 99
1, 162502, Note_on_c, 0, 57, 104
1, 162508, Control_c, 0, 64, 67
1, 162523, Control_c, 0, 64, 0
1, 162656, Note_on_c, 0, 50, 84
1, 162657, Note_on_c, 0, 53, 90
1, 162704, Note_off_c, 0, 50, 63
1, 162705, Note_off_c, 0, 53, 63
1, 162754, Note_off_c, 0, 57, 64
1, 162810, Note_on_c, 0, 52, 101
1, 162816, Note_on_c, 0, 45, 92
1, 162820, Control_c, 0, 64, 9
1, 162835, Control_c, 0, 64, 48
1, 162850, Control_c, 0, 64, 57
1, 162865, Control_c, 0, 64, 66
1, 162880, Control_c, 0, 64, 83
1, 162894, Control_c, 0, 64, 127
1, 162966, Note_on_c, 0, 69, 97
1, 162968, Note_on_c, 0, 81, 93
1, 162996, Note_off_c, 0, 81, 64
1, 163007, Note_off_c, 0, 69, 66
1, 163075, Poly_aftertouch_c, 0, 71, 0
1, 163127, Note_on_c, 0, 59, 92
1, 163130, Note_off_c, 0, 52, 58
1, 163132, Note_on_c, 0, 57, 92
1, 163138, Control_c, 0, 64, 94
1, 163153, Control_c, 0, 64, 70
1, 163168, Control_c, 0, 64, 45
1, 163175, Note_off_c, 0, 45, 59
1, 163183, Control_c, 0, 64, 0
1, 163269, Note_on_c, 0, 53, 92
1, 163272, Note_on_c, 0, 50, 90
1, 163306, Note_off_c, 0, 57, 62
1, 163324, Note_off_c, 0, 53, 64
1, 163346, Note_off_c, 0, 59, 67
1, 163352, Note_off_c, 0, 50, 63
1, 163421, Control_c, 0, 64, 43
1, 163427, Note_on_c, 0, 52, 101
1, 163432, Note_on_c, 0, 45, 90
1, 163435, Control_c, 0, 64, 58
1, 163450, Control_c, 0, 64, 67
1, 163465, Control_c, 0, 64, 85
1, 163480, Control_c, 0, 64, 127
1, 163582, Note_on_c, 0, 69, 99
1, 163588, Note_on_c, 0, 81, 80
1, 163600, Note_on_c, 0, 79, 72
1, 163609, Note_off_c, 0, 81, 69
1, 163621, Note_off_c, 0, 69, 67
1, 163626, Note_off_c, 0, 79, 68
1, 163758, Note_on_c, 0, 61, 98
1, 163764, Note_on_c, 0, 57, 87
1, 163777, Note_off_c, 0, 52, 65
1, 163799, Note_off_c, 0, 45, 66
1, 164148, Note_on_c, 0, 31, 91
1, 164149, Note_on_c, 0, 38, 91
1, 164151, Note_on_c, 0, 34, 87
1, 164170, Note_off_c, 0, 61, 67
1, 164181, Note_off_c, 0, 57, 63
1, 164199, Control_c, 0, 64, 71
1, 164214, Control_c, 0, 64, 0
1, 164421, Control_c, 0, 64, 9
1, 164436, Control_c, 0, 64, 41
1, 164458, Control_c, 0, 64, 54
1, 164473, Control_c, 0, 64, 63
1, 164488, Control_c, 0, 64, 69
1, 164503, Control_c, 0, 64, 78
1, 164517, Control_c, 0, 64, 104
1, 164532, Control_c, 0, 64, 127
1, 164780, Note_off_c, 0, 31, 62
1, 164784, Note_off_c, 0, 38, 60
1, 164786, Note_off_c, 0, 34, 57
1, 164914, Note_on_c, 0, 74, 98
1, 164915, Note_on_c, 0, 86, 90
1, 164933, Note_off_c, 0, 86, 74
1, 164950, Note_off_c, 0, 74, 69
1, 165067, Control_c, 0, 64, 82
1, 165077, Note_on_c, 0, 62, 103
1, 165081, Control_c, 0, 64, 41
1, 165096, Control_c, 0, 64, 0
1, 165232, Note_on_c, 0, 55, 81
1, 165233, Note_on_c, 0, 58, 89
1, 165272, Note_off_c, 0, 55, 64
1, 165278, Note_off_c, 0, 58, 64
1, 165323, Note_off_c, 0, 62, 64
1, 165391, Note_on_c, 0, 57, 104
1, 165396, Note_on_c, 0, 50, 89
1, 165400, Control_c, 0, 64, 39
1, 165415, Control_c, 0, 64, 51
1, 165430, Control_c, 0, 64, 63
1, 165445, Control_c, 0, 64, 75
1, 165460, Control_c, 0, 64, 127
1, 165535, Note_on_c, 0, 74, 101
1, 165536, Note_on_c, 0, 86, 99
1, 165552, Note_off_c, 0, 86, 74
1, 165570, Note_off_c, 0, 74, 67
1, 165695, Note_on_c, 0, 64, 97
1, 165702, Note_on_c, 0, 62, 90
1, 165703, Note_off_c, 0, 57, 61
1, 165743, Note_off_c, 0, 50, 59
1, 165801, Control_c, 0, 64, 102
1, 165816, Control_c, 0, 64, 76
1, 165830, Control_c, 0, 64, 53
1, 165843, Note_on_c, 0, 55, 93
1, 165845, Control_c, 0, 64, 0
1, 165846, Note_on_c, 0, 58, 93
1, 165895, Note_off_c, 0, 62, 48
1, 165896, Note_off_c, 0, 55, 64
1, 165916, Note_off_c, 0, 58, 65
1, 165964, Note_off_c, 0, 64, 64
1, 166018, Note_on_c, 0, 57, 104
1, 166023, Note_on_c, 0, 50, 92
1, 166030, Control_c, 0, 64, 39
1, 166045, Control_c, 0, 64, 54
1, 166060, Control_c, 0, 64, 63
1, 166075, Control_c, 0, 64, 73
1, 166090, Control_c, 0, 64, 108
1, 166104, Control_c, 0, 64, 127
1, 166191, Note_on_c, 0, 74, 100
1, 166193, Note_on_c, 0, 86, 93
1, 166218, Note_on_c, 0, 76, 57
1, 166219, Note_off_c, 0, 76, 127
1, 166226, Note_off_c, 0, 86, 64
1, 166234, Note_off_c, 0, 74, 67
1, 166418, Note_on_c, 0, 66, 97
1, 166420, Note_on_c, 0, 62, 93
1, 166445, Note_off_c, 0, 57, 61
1, 166472, Note_off_c, 0, 62, 64
1, 166476, Note_off_c, 0, 50, 65
1, 166508, Note_off_c, 0, 66, 61
1, 166966, Note_on_c, 0, 43, 92
1, 166966, Note_on_c, 0, 55, 91
1, 166969, Note_on_c, 0, 36, 82
1, 166969, Note_on_c, 0, 51, 95
1, 167030, Control_c, 0, 64, 117
1, 167045, Control_c, 0, 64, 66
1, 167059, Control_c, 0, 64, 0
1, 167266, Control_c, 0, 64, 17
1, 167281, Control_c, 0, 64, 32
1, 167296, Control_c, 0, 64, 39
1, 167311, Control_c, 0, 64, 44
1, 167326, Control_c, 0, 64, 53
1, 167341, Control_c, 0, 64, 59
1, 167356, Control_c, 0, 64, 63
1, 167370, Control_c, 0, 64, 65
1, 167385, Control_c, 0, 64, 66
1, 167400, Control_c, 0, 64, 69
1, 167415, Control_c, 0, 64, 78
1, 167430, Control_c, 0, 64, 99
1, 167453, Control_c, 0, 64, 127
1, 167585, Note_off_c, 0, 51, 37
1, 167788, Note_off_c, 0, 36, 48
1, 168305, Control_c, 0, 67, 19
1, 168315, Note_off_c, 0, 43, 56
1, 168320, Control_c, 0, 64, 94
1, 168320, Control_c, 0, 67, 45
1, 168335, Control_c, 0, 64, 72
1, 168335, Control_c, 0, 67, 69
1, 168345, Note_on_c, 0, 56, 55
1, 168345, Note_on_c, 0, 51, 49
1, 168347, Note_off_c, 0, 55, 58
1, 168349, Control_c, 0, 64, 52
1, 168349, Control_c, 0, 67, 92
1, 168351, Note_on_c, 0, 36, 30
1, 168354, Note_on_c, 0, 42, 35
1, 168364, Control_c, 0, 64, 25
1, 168364, Control_c, 0, 67, 112
1, 168379, Control_c, 0, 64, 34
1, 168379, Control_c, 0, 67, 127
1, 168394, Control_c, 0, 64, 43
1, 168409, Control_c, 0, 64, 50
1, 168423, Control_c, 0, 64, 56
1, 168438, Control_c, 0, 64, 62
1, 168448, Note_off_c, 0, 36, 54
1, 168453, Control_c, 0, 64, 68
1, 168468, Control_c, 0, 64, 77
1, 168470, Note_off_c, 0, 51, 59
1, 168483, Control_c, 0, 64, 99
1, 168497, Control_c, 0, 64, 127
1, 168511, Note_off_c, 0, 42, 34
1, 168525, Note_off_c, 0, 56, 64
1, 168824, Control_c, 0, 64, 107
1, 168839, Control_c, 0, 64, 80
1, 168854, Control_c, 0, 64, 64
1, 168864, Note_on_c, 0, 40, 31
1, 168869, Control_c, 0, 64, 36
1, 168876, Note_on_c, 0, 33, 25
1, 168884, Control_c, 0, 64, 0
1, 168898, Control_c, 0, 64, 39
1, 168913, Control_c, 0, 64, 51
1, 168928, Control_c, 0, 64, 58
1, 168950, Control_c, 0, 64, 65
1, 168951, Note_on_c, 0, 88, 70
1, 168952, Note_off_c, 0, 33, 60
1, 168962, Note_off_c, 0, 40, 59
1, 168965, Control_c, 0, 64, 75
1, 168980, Control_c, 0, 64, 103
1, 168995, Control_c, 0, 64, 127
1, 169000, Note_off_c, 0, 88, 58
1, 169093, Note_on_c, 0, 76, 51
1, 169144, Note_off_c, 0, 76, 59
1, 169213, Note_on_c, 0, 75, 48
1, 169222, Note_on_c, 0, 64, 45
1, 169242, Note_on_c, 0, 71, 36
1, 169250, Note_off_c, 0, 75, 63
1, 169279, Note_off_c, 0, 64, 55
1, 169296, Note_off_c, 0, 71, 51
1, 169325, Note_on_c, 0, 76, 53
1, 169406, Note_off_c, 0, 76, 60
1, 169442, Note_on_c, 0, 88, 78
1, 169444, Note_on_c, 0, 69, 44
1, 169451, Note_on_c, 0, 72, 44
1, 169479, Note_off_c, 0, 88, 54
1, 169498, Note_off_c, 0, 69, 53
1, 169499, Note_off_c, 0, 72, 57
1, 169555, Note_on_c, 0, 76, 59
1, 169608, Note_off_c, 0, 76, 59
1, 169660, Note_on_c, 0, 64, 46
1, 169665, Note_on_c, 0, 75, 56
1, 169675, Note_on_c, 0, 71, 35
1, 169711, Note_off_c, 0, 75, 63
1, 169722, Note_off_c, 0, 64, 54
1, 169764, Note_on_c, 0, 76, 61
1, 169772, Control_c, 0, 64, 106
1, 169787, Control_c, 0, 64, 89
1, 169803, Control_c, 0, 64, 74
1, 169818, Control_c, 0, 64, 64
1, 169833, Control_c, 0, 64, 54
1, 169839, Note_off_c, 0, 76, 59
1, 169848, Control_c, 0, 64, 56
1, 169851, Note_off_c, 0, 71, 21
1, 169862, Control_c, 0, 64, 59
1, 169873, Note_on_c, 0, 72, 46
1, 169875, Note_on_c, 0, 88, 70
1, 169877, Control_c, 0, 64, 62
1, 169877, Note_on_c, 0, 69, 50
1, 169892, Control_c, 0, 64, 64
1, 169907, Control_c, 0, 64, 65
1, 169913, Note_off_c, 0, 88, 52
1, 169922, Control_c, 0, 64, 69
1, 169925, Note_off_c, 0, 72, 56
1, 169937, Control_c, 0, 64, 73
1, 169951, Control_c, 0, 64, 82
1, 169966, Control_c, 0, 64, 92
1, 169969, Note_on_c, 0, 76, 67
1, 169981, Control_c, 0, 64, 104
1, 169995, Control_c, 0, 64, 114
1, 170010, Control_c, 0, 64, 127
1, 170012, Note_off_c, 0, 76, 61
1, 170028, Note_off_c, 0, 69, 24
1, 170083, Note_on_c, 0, 75, 65
1, 170092, Note_on_c, 0, 78, 60
1, 170099, Note_on_c, 0, 64, 41
1, 170101, Note_on_c, 0, 71, 41
1, 170122, Note_off_c, 0, 75, 60
1, 170147, Note_off_c, 0, 78, 56
1, 170165, Note_off_c, 0, 64, 52
1, 170168, Note_on_c, 0, 80, 70
1, 170186, Note_on_c, 0, 76, 61
1, 170202, Note_off_c, 0, 80, 64
1, 170225, Note_off_c, 0, 76, 63
1, 170247, Note_off_c, 0, 71, 54
1, 170286, Note_on_c, 0, 81, 75
1, 170288, Note_on_c, 0, 88, 75
1, 170294, Note_on_c, 0, 72, 46
1, 170305, Note_on_c, 0, 69, 52
1, 170319, Note_off_c, 0, 88, 60
1, 170338, Note_off_c, 0, 81, 63
1, 170345, Note_off_c, 0, 72, 52
1, 170379, Note_on_c, 0, 83, 78
1, 170389, Note_on_c, 0, 76, 62
1, 170414, Note_off_c, 0, 83, 60
1, 170416, Note_off_c, 0, 76, 65
1, 170418, Note_off_c, 0, 69, 37
1, 170494, Note_on_c, 0, 84, 70
1, 170494, Note_on_c, 0, 75, 72
1, 170515, Note_on_c, 0, 64, 46
1, 170517, Note_on_c, 0, 71, 42
1, 170522, Note_on_c, 0, 72, 34
1, 170536, Note_off_c, 0, 84, 59
1, 170543, Note_off_c, 0, 71, 52
1, 170544, Note_off_c, 0, 75, 0
1, 170558, Note_off_c, 0, 64, 60
1, 170564, Note_off_c, 0, 72, 47
1, 170581, Poly_aftertouch_c, 0, 75, 0
1, 170587, Note_on_c, 0, 85, 75
1, 170594, Note_on_c, 0, 76, 70
1, 170596, Control_c, 0, 64, 94
1, 170611, Control_c, 0, 64, 76
1, 170617, Note_off_c, 0, 85, 65
1, 170626, Control_c, 0, 64, 61
1, 170635, Note_off_c, 0, 76, 60
1, 170640, Control_c, 0, 64, 25
1, 170655, Control_c, 0, 64, 0
1, 170685, Control_c, 0, 64, 33
1, 170693, Note_on_c, 0, 86, 74
1, 170697, Note_on_c, 0, 77, 75
1, 170700, Control_c, 0, 64, 46
1, 170709, Note_on_c, 0, 70, 54
1, 170715, Control_c, 0, 64, 54
1, 170721, Note_on_c, 0, 67, 43
1, 170724, Note_off_c, 0, 86, 60
1, 170730, Control_c, 0, 64, 59
1, 170731, Note_off_c, 0, 77, 62
1, 170745, Control_c, 0, 64, 64
1, 170753, Note_off_c, 0, 70, 59
1, 170760, Control_c, 0, 64, 71
1, 170766, Note_off_c, 0, 67, 58
1, 170774, Control_c, 0, 64, 84
1, 170789, Control_c, 0, 64, 98
1, 170804, Control_c, 0, 64, 104
1, 170809, Note_on_c, 0, 74, 66
1, 170818, Control_c, 0, 64, 101
1, 170833, Control_c, 0, 64, 95
1, 170841, Note_off_c, 0, 74, 63
1, 170848, Control_c, 0, 64, 87
1, 170863, Control_c, 0, 64, 76
1, 170878, Control_c, 0, 64, 68
1, 170892, Control_c, 0, 64, 61
1, 170906, Note_on_c, 0, 73, 71
1, 170907, Note_on_c, 0, 78, 67
1, 170907, Control_c, 0, 64, 49
1, 170909, Note_on_c, 0, 69, 53
1, 170914, Note_on_c, 0, 62, 45
1, 170922, Control_c, 0, 64, 36
1, 170937, Control_c, 0, 64, 32
1, 170938, Note_off_c, 0, 73, 66
1, 170945, Note_off_c, 0, 78, 62
1, 170951, Control_c, 0, 64, 31
1, 170952, Note_off_c, 0, 69, 60
1, 170965, Note_off_c, 0, 62, 58
1, 170966, Control_c, 0, 64, 31
1, 170981, Control_c, 0, 64, 30
1, 170996, Control_c, 0, 64, 30
1, 171004, Note_on_c, 0, 74, 64
1, 171011, Control_c, 0, 64, 29
1, 171025, Control_c, 0, 64, 28
1, 171040, Control_c, 0, 64, 27
1, 171061, Note_off_c, 0, 74, 62
1, 171085, Control_c, 0, 64, 27
1, 171099, Note_on_c, 0, 79, 75
1, 171100, Note_on_c, 0, 86, 78
1, 171100, Control_c, 0, 64, 26
1, 171106, Note_on_c, 0, 70, 50
1, 171110, Note_on_c, 0, 67, 42
1, 171114, Control_c, 0, 64, 26
1, 171127, Note_off_c, 0, 79, 65
1, 171129, Control_c, 0, 64, 25
1, 171143, Note_off_c, 0, 86, 54
1, 171144, Control_c, 0, 64, 23
1, 171144, Note_off_c, 0, 70, 61
1, 171152, Note_off_c, 0, 67, 56
1, 171159, Control_c, 0, 64, 23
1, 171174, Control_c, 0, 64, 22
1, 171201, Note_on_c, 0, 74, 68
1, 171225, Control_c, 0, 64, 21
1, 171240, Control_c, 0, 64, 21
1, 171246, Note_off_c, 0, 74, 61
1, 171255, Control_c, 0, 64, 19
1, 171270, Control_c, 0, 64, 18
1, 171285, Control_c, 0, 64, 17
1, 171299, Control_c, 0, 64, 17
1, 171301, Note_on_c, 0, 73, 72
1, 171301, Note_on_c, 0, 81, 72
1, 171311, Note_on_c, 0, 69, 53
1, 171314, Control_c, 0, 64, 16
1, 171318, Note_on_c, 0, 62, 46
1, 171326, Note_off_c, 0, 73, 70
1, 171344, Control_c, 0, 64, 15
1, 171345, Note_off_c, 0, 81, 58
1, 171347, Note_off_c, 0, 69, 60
1, 171359, Control_c, 0, 64, 13
1, 171364, Note_off_c, 0, 62, 60
1, 171374, Control_c, 0, 64, 12
1, 171398, Note_on_c, 0, 74, 66
1, 171434, Control_c, 0, 64, 17
1, 171448, Control_c, 0, 64, 27
1, 171453, Note_off_c, 0, 74, 60
1, 171463, Control_c, 0, 64, 39
1, 171478, Control_c, 0, 64, 48
1, 171493, Note_on_c, 0, 82, 66
1, 171493, Control_c, 0, 64, 54
1, 171499, Note_on_c, 0, 70, 46
1, 171502, Note_on_c, 0, 67, 45
1, 171508, Control_c, 0, 64, 59
1, 171511, Note_on_c, 0, 86, 50
1, 171514, Note_on_c, 0, 88, 42
1, 171523, Control_c, 0, 64, 61
1, 171526, Note_off_c, 0, 82, 63
1, 171538, Control_c, 0, 64, 64
1, 171538, Note_off_c, 0, 88, 50
1, 171544, Note_off_c, 0, 86, 63
1, 171550, Note_off_c, 0, 70, 56
1, 171553, Control_c, 0, 64, 68
1, 171562, Note_off_c, 0, 67, 51
1, 171567, Control_c, 0, 64, 75
1, 171580, Note_on_c, 0, 74, 65
1, 171582, Control_c, 0, 64, 85
1, 171584, Note_on_c, 0, 76, 61
1, 171597, Control_c, 0, 64, 96
1, 171612, Control_c, 0, 64, 105
1, 171616, Note_off_c, 0, 76, 66
1, 171618, Note_off_c, 0, 74, 63
1, 171627, Control_c, 0, 64, 107
1, 171672, Note_on_c, 0, 73, 76
1, 171674, Note_on_c, 0, 79, 69
1, 171701, Note_on_c, 0, 69, 51
1, 171707, Note_off_c, 0, 79, 60
1, 171709, Note_on_c, 0, 62, 43
1, 171710, Note_off_c, 0, 73, 56
1, 171745, Control_c, 0, 64, 106
1, 171749, Note_off_c, 0, 69, 52
1, 171757, Note_on_c, 0, 78, 71
1, 171758, Note_on_c, 0, 74, 71
1, 171760, Control_c, 0, 64, 102
1, 171761, Note_off_c, 0, 62, 57
1, 171774, Control_c, 0, 64, 95
1, 171784, Note_off_c, 0, 78, 69
1, 171789, Control_c, 0, 64, 82
1, 171804, Control_c, 0, 64, 71
1, 171810, Note_off_c, 0, 74, 58
1, 171819, Control_c, 0, 64, 61
1, 171834, Control_c, 0, 64, 47
1, 171848, Control_c, 0, 64, 44
1, 171863, Control_c, 0, 64, 50
1, 171867, Note_on_c, 0, 81, 75
1, 171869, Note_on_c, 0, 86, 73
1, 171872, Note_on_c, 0, 70, 52
1, 171878, Note_on_c, 0, 67, 47
1, 171878, Control_c, 0, 64, 57
1, 171893, Control_c, 0, 64, 60
1, 171904, Note_off_c, 0, 81, 65
1, 171908, Control_c, 0, 64, 63
1, 171918, Note_off_c, 0, 86, 50
1, 171922, Control_c, 0, 64, 65
1, 171945, Control_c, 0, 64, 67
1, 171960, Note_on_c, 0, 79, 74
1, 171960, Control_c, 0, 64, 69
1, 171961, Note_on_c, 0, 74, 59
1, 171974, Control_c, 0, 64, 76
1, 171989, Note_off_c, 0, 67, 33
1, 171989, Control_c, 0, 64, 86
1, 171991, Note_off_c, 0, 74, 64
1, 171998, Note_off_c, 0, 79, 63
1, 172004, Note_off_c, 0, 70, 35
1, 172004, Control_c, 0, 64, 98
1, 172019, Control_c, 0, 64, 107
1, 172034, Control_c, 0, 64, 110
1, 172048, Control_c, 0, 64, 111
1, 172055, Note_on_c, 0, 82, 81
1, 172056, Note_on_c, 0, 73, 80
1, 172063, Control_c, 0, 64, 113
1, 172066, Note_on_c, 0, 69, 53
1, 172074, Note_on_c, 0, 62, 49
1, 172078, Control_c, 0, 64, 127
1, 172102, Note_off_c, 0, 82, 62
1, 172104, Note_off_c, 0, 73, 62
1, 172109, Note_off_c, 0, 69, 59
1, 172125, Note_off_c, 0, 62, 57
1, 172137, Control_c, 0, 64, 109
1, 172143, Note_on_c, 0, 81, 76
1, 172152, Control_c, 0, 64, 91
1, 172155, Note_on_c, 0, 74, 59
1, 172167, Control_c, 0, 64, 74
1, 172179, Note_off_c, 0, 81, 60
1, 172182, Control_c, 0, 64, 64
1, 172194, Note_off_c, 0, 74, 62
1, 172197, Control_c, 0, 64, 52
1, 172212, Control_c, 0, 64, 40
1, 172227, Control_c, 0, 64, 38
1, 172241, Note_on_c, 0, 84, 83
1, 172242, Control_c, 0, 64, 39
1, 172259, Note_on_c, 0, 65, 52
1, 172261, Note_on_c, 0, 68, 54
1, 172277, Note_off_c, 0, 84, 66
1, 172304, Note_off_c, 0, 68, 59
1, 172309, Note_off_c, 0, 65, 56
1, 172334, Note_on_c, 0, 72, 73
1, 172375, Note_off_c, 0, 72, 61
1, 172375, Control_c, 0, 64, 38
1, 172436, Note_on_c, 0, 71, 63
1, 172449, Note_on_c, 0, 60, 50
1, 172460, Note_on_c, 0, 67, 36
1, 172467, Note_off_c, 0, 71, 62
1, 172489, Note_off_c, 0, 67, 50
1, 172500, Note_off_c, 0, 60, 57
1, 172510, Control_c, 0, 64, 38
1, 172522, Note_on_c, 0, 72, 66
1, 172584, Control_c, 0, 64, 37
1, 172586, Note_off_c, 0, 72, 59
1, 172630, Note_on_c, 0, 84, 88
1, 172642, Note_on_c, 0, 65, 55
1, 172643, Note_on_c, 0, 68, 55
1, 172674, Note_off_c, 0, 84, 63
1, 172689, Note_off_c, 0, 68, 62
1, 172691, Note_off_c, 0, 65, 61
1, 172738, Note_on_c, 0, 72, 60
1, 172772, Note_off_c, 0, 72, 63
1, 172784, Control_c, 0, 64, 37
1, 172831, Note_on_c, 0, 71, 70
1, 172853, Note_on_c, 0, 60, 46
1, 172857, Note_on_c, 0, 67, 37
1, 172858, Control_c, 0, 64, 36
1, 172860, Note_off_c, 0, 71, 62
1, 172886, Note_off_c, 0, 67, 54
1, 172887, Control_c, 0, 64, 36
1, 172903, Note_off_c, 0, 60, 59
1, 172916, Control_c, 0, 64, 35
1, 172928, Note_on_c, 0, 72, 68
1, 172992, Control_c, 0, 64, 37
1, 172994, Note_off_c, 0, 72, 61
1, 173007, Control_c, 0, 64, 43
1, 173021, Control_c, 0, 64, 51
1, 173028, Note_on_c, 0, 84, 84
1, 173036, Control_c, 0, 64, 57
1, 173043, Note_on_c, 0, 65, 48
1, 173043, Note_on_c, 0, 68, 48
1, 173051, Control_c, 0, 64, 61
1, 173066, Control_c, 0, 64, 63
1, 173078, Note_off_c, 0, 84, 63
1, 173081, Control_c, 0, 64, 66
1, 173091, Note_off_c, 0, 68, 57
1, 173095, Control_c, 0, 64, 71
1, 173110, Control_c, 0, 64, 80
1, 173112, Note_on_c, 0, 72, 74
1, 173113, Note_off_c, 0, 65, 45
1, 173125, Control_c, 0, 64, 97
1, 173140, Control_c, 0, 64, 127
1, 173156, Note_off_c, 0, 72, 62
1, 173207, Note_on_c, 0, 74, 76
1, 173209, Note_on_c, 0, 71, 72
1, 173222, Note_on_c, 0, 67, 57
1, 173225, Note_on_c, 0, 60, 56
1, 173233, Note_off_c, 0, 71, 69
1, 173243, Control_c, 0, 64, 98
1, 173258, Control_c, 0, 64, 82
1, 173273, Control_c, 0, 64, 71
1, 173278, Note_off_c, 0, 67, 51
1, 173285, Note_off_c, 0, 74, 61
1, 173285, Note_off_c, 0, 60, 53
1, 173288, Note_on_c, 0, 76, 70
1, 173288, Control_c, 0, 64, 61
1, 173302, Note_on_c, 0, 72, 68
1, 173302, Control_c, 0, 64, 50
1, 173317, Control_c, 0, 64, 46
1, 173318, Note_off_c, 0, 76, 68
1, 173332, Control_c, 0, 64, 48
1, 173347, Control_c, 0, 64, 53
1, 173350, Note_off_c, 0, 72, 53
1, 173362, Control_c, 0, 64, 57
1, 173377, Control_c, 0, 64, 61
1, 173392, Control_c, 0, 64, 63
1, 173396, Note_on_c, 0, 77, 79
1, 173401, Note_on_c, 0, 65, 53
1, 173401, Note_on_c, 0, 68, 56
1, 173404, Note_on_c, 0, 84, 71
1, 173407, Control_c, 0, 64, 65
1, 173421, Control_c, 0, 64, 68
1, 173443, Control_c, 0, 64, 71
1, 173447, Note_off_c, 0, 77, 54
1, 173458, Control_c, 0, 64, 78
1, 173471, Note_off_c, 0, 84, 45
1, 173473, Control_c, 0, 64, 91
1, 173487, Note_on_c, 0, 79, 74
1, 173487, Control_c, 0, 64, 113
1, 173502, Control_c, 0, 64, 127
1, 173512, Note_off_c, 0, 79, 70
1, 173527, Note_on_c, 0, 72, 26
1, 173527, Note_off_c, 0, 68, 29
1, 173553, Note_off_c, 0, 65, 34
1, 173565, Note_off_c, 0, 72, 0
1, 173565, Note_on_c, 0, 72, 11
1, 173565, Note_on_c, 0, 80, 81
1, 173589, Note_on_c, 0, 67, 61
1, 173600, Note_on_c, 0, 60, 55
1, 173602, Note_off_c, 0, 72, 61
1, 173605, Note_off_c, 0, 80, 60
1, 173643, Note_on_c, 0, 81, 83
1, 173645, Note_off_c, 0, 67, 44
1, 173647, Note_off_c, 0, 60, 59
1, 173683, Note_off_c, 0, 81, 66
1, 173725, Control_c, 0, 64, 95
1, 173739, Control_c, 0, 64, 76
1, 173744, Note_on_c, 0, 82, 82
1, 173749, Note_on_c, 0, 73, 79
1, 173754, Control_c, 0, 64, 64
1, 173765, Note_on_c, 0, 66, 54
1, 173767, Note_on_c, 0, 63, 53
1, 173769, Control_c, 0, 64, 48
1, 173776, Note_off_c, 0, 73, 65
1, 173779, Note_off_c, 0, 82, 64
1, 173784, Control_c, 0, 64, 22
1, 173800, Control_c, 0, 64, 16
1, 173803, Note_off_c, 0, 63, 58
1, 173805, Note_off_c, 0, 66, 61
1, 173815, Control_c, 0, 64, 17
1, 173830, Control_c, 0, 64, 18
1, 173833, Note_on_c, 0, 70, 73
1, 173844, Control_c, 0, 64, 20
1, 173859, Control_c, 0, 64, 21
1, 173865, Note_off_c, 0, 70, 67
1, 173934, Note_on_c, 0, 69, 71
1, 173937, Note_on_c, 0, 74, 75
1, 173943, Note_on_c, 0, 65, 54
1, 173951, Note_on_c, 0, 58, 50
1, 173974, Note_off_c, 0, 69, 64
1, 173980, Note_off_c, 0, 65, 60
1, 173991, Note_off_c, 0, 74, 64
1, 173995, Note_off_c, 0, 58, 60
1, 174033, Note_on_c, 0, 70, 73
1, 174093, Note_off_c, 0, 70, 62
1, 174120, Note_on_c, 0, 82, 82
1, 174125, Note_on_c, 0, 75, 73
1, 174125, Note_on_c, 0, 63, 58
1, 174131, Note_on_c, 0, 66, 49
1, 174152, Note_off_c, 0, 75, 67
1, 174164, Note_off_c, 0, 82, 63
1, 174166, Note_off_c, 0, 66, 63
1, 174168, Note_off_c, 0, 63, 61
1, 174217, Note_on_c, 0, 70, 70
1, 174241, Note_off_c, 0, 70, 68
1, 174307, Note_on_c, 0, 77, 80
1, 174313, Note_on_c, 0, 69, 65
1, 174328, Note_on_c, 0, 58, 53
1, 174331, Note_on_c, 0, 65, 39
1, 174340, Control_c, 0, 64, 17
1, 174342, Note_off_c, 0, 69, 68
1, 174355, Control_c, 0, 64, 0
1, 174358, Note_off_c, 0, 77, 60
1, 174361, Note_off_c, 0, 65, 53
1, 174374, Note_off_c, 0, 58, 58
1, 174408, Note_on_c, 0, 70, 71
1, 174468, Note_off_c, 0, 70, 59
1, 174506, Note_on_c, 0, 82, 66
1, 174509, Note_on_c, 0, 78, 62
1, 174510, Note_on_c, 0, 63, 49
1, 174513, Note_on_c, 0, 66, 44
1, 174517, Control_c, 0, 64, 17
1, 174532, Control_c, 0, 64, 53
1, 174547, Control_c, 0, 64, 63
1, 174551, Note_off_c, 0, 66, 64
1, 174561, Note_off_c, 0, 78, 56
1, 174561, Control_c, 0, 64, 68
1, 174564, Note_off_c, 0, 82, 52
1, 174571, Note_off_c, 0, 63, 56
1, 174576, Control_c, 0, 64, 75
1, 174592, Control_c, 0, 64, 90
1, 174596, Note_on_c, 0, 75, 73
1, 174607, Control_c, 0, 64, 114
1, 174622, Control_c, 0, 64, 127
1, 174657, Note_off_c, 0, 75, 62
1, 174684, Note_on_c, 0, 70, 74
1, 174714, Note_off_c, 0, 70, 65
1, 174778, Note_on_c, 0, 66, 71
1, 174823, Note_off_c, 0, 66, 59
1, 174829, Control_c, 0, 64, 113
1, 174844, Control_c, 0, 64, 90
1, 174845, Note_on_c, 0, 63, 57
1, 174858, Control_c, 0, 64, 71
1, 174861, Note_on_c, 0, 66, 59
1, 174873, Control_c, 0, 64, 58
1, 174888, Control_c, 0, 64, 29
1, 174900, Note_off_c, 0, 63, 52
1, 174903, Control_c, 0, 64, 24
1, 174918, Control_c, 0, 64, 36
1, 174939, Note_off_c, 0, 66, 55
1, 174940, Control_c, 0, 64, 45
1, 174955, Control_c, 0, 64, 50
1, 174958, Note_on_c, 0, 70, 67
1, 174962, Note_on_c, 0, 58, 54
1, 174970, Control_c, 0, 64, 55
1, 174985, Control_c, 0, 64, 59
1, 174999, Control_c, 0, 64, 64
1, 175014, Control_c, 0, 64, 68
1, 175028, Note_off_c, 0, 70, 64
1, 175029, Control_c, 0, 64, 75
1, 175031, Note_off_c, 0, 58, 61
1, 175044, Control_c, 0, 64, 85
1, 175059, Control_c, 0, 64, 95
1, 175061, Note_on_c, 0, 72, 68
1, 175073, Control_c, 0, 64, 109
1, 175088, Control_c, 0, 64, 127
1, 175148, Note_off_c, 0, 72, 61
1, 175154, Note_on_c, 0, 73, 75
1, 175156, Note_on_c, 0, 53, 53
1, 175216, Note_off_c, 0, 53, 57
1, 175220, Note_off_c, 0, 73, 62
1, 175281, Control_c, 0, 64, 113
1, 175296, Control_c, 0, 64, 88
1, 175297, Note_on_c, 0, 51, 53
1, 175306, Note_on_c, 0, 74, 71
1, 175310, Control_c, 0, 64, 72
1, 175315, Note_on_c, 0, 62, 61
1, 175325, Control_c, 0, 64, 58
1, 175340, Control_c, 0, 64, 44
1, 175355, Control_c, 0, 64, 49
1, 175370, Control_c, 0, 64, 54
1, 175386, Control_c, 0, 64, 57
1, 175401, Control_c, 0, 64, 59
1, 175415, Control_c, 0, 64, 62
1, 175430, Control_c, 0, 64, 64
1, 175434, Note_on_c, 0, 55, 32
1, 175438, Note_off_c, 0, 62, 51
1, 175445, Control_c, 0, 64, 68
1, 175460, Control_c, 0, 64, 74
1, 175464, Note_on_c, 0, 67, 48
1, 175475, Control_c, 0, 64, 84
1, 175489, Control_c, 0, 64, 95
1, 175496, Note_off_c, 0, 55, 61
1, 175504, Control_c, 0, 64, 105
1, 175519, Control_c, 0, 64, 111
1, 175534, Control_c, 0, 64, 114
1, 175544, Note_on_c, 0, 58, 50
1, 175544, Note_off_c, 0, 67, 60
1, 175549, Control_c, 0, 64, 121
1, 175563, Control_c, 0, 64, 127
1, 175583, Note_on_c, 0, 62, 45
1, 175605, Note_off_c, 0, 58, 54
1, 175619, Note_off_c, 0, 62, 58
1, 175631, Note_on_c, 0, 55, 43
1, 175687, Note_on_c, 0, 67, 49
1, 175704, Control_c, 0, 64, 105
1, 175714, Note_off_c, 0, 55, 56
1, 175719, Control_c, 0, 64, 89
1, 175734, Control_c, 0, 64, 78
1, 175735, Note_on_c, 0, 46, 52
1, 175747, Note_off_c, 0, 67, 56
1, 175749, Control_c, 0, 64, 68
1, 175763, Control_c, 0, 64, 59
1, 175769, Note_on_c, 0, 73, 62
1, 175777, Note_on_c, 0, 61, 49
1, 175778, Control_c, 0, 64, 45
1, 175782, Note_off_c, 0, 74, 42
1, 175791, Note_off_c, 0, 51, 34
1, 175793, Control_c, 0, 64, 43
1, 175808, Control_c, 0, 64, 47
1, 175822, Control_c, 0, 64, 50
1, 175837, Control_c, 0, 64, 53
1, 175851, Note_off_c, 0, 61, 60
1, 175852, Control_c, 0, 64, 56
1, 175857, Note_off_c, 0, 73, 65
1, 175861, Note_on_c, 0, 56, 47
1, 175865, Note_on_c, 0, 66, 47
1, 175867, Control_c, 0, 64, 58
1, 175882, Control_c, 0, 64, 61
1, 175896, Control_c, 0, 64, 63
1, 175911, Control_c, 0, 64, 66
1, 175920, Note_off_c, 0, 56, 63
1, 175926, Control_c, 0, 64, 71
1, 175941, Control_c, 0, 64, 80
1, 175954, Note_off_c, 0, 66, 63
1, 175955, Note_on_c, 0, 58, 63
1, 175955, Control_c, 0, 64, 94
1, 175970, Control_c, 0, 64, 112
1, 175972, Note_on_c, 0, 61, 71
1, 175985, Control_c, 0, 64, 127
1, 176010, Note_off_c, 0, 46, 39
1, 176032, Note_off_c, 0, 58, 60
1, 176042, Note_on_c, 0, 56, 62
1, 176056, Note_on_c, 0, 66, 71
1, 176061, Note_off_c, 0, 61, 60
1, 176066, Poly_aftertouch_c, 0, 71, 0
1, 176089, Control_c, 0, 64, 116
1, 176104, Control_c, 0, 64, 90
1, 176107, Note_off_c, 0, 56, 58
1, 176119, Control_c, 0, 64, 75
1, 176124, Note_off_c, 0, 66, 62
1, 176134, Control_c, 0, 64, 64
1, 176134, Note_on_c, 0, 51, 70
1, 176148, Note_on_c, 0, 74, 82
1, 176149, Control_c, 0, 64, 49
1, 176163, Note_on_c, 0, 62, 69
1, 176164, Control_c, 0, 64, 28
1, 176179, Control_c, 0, 64, 31
1, 176194, Control_c, 0, 64, 37
1, 176209, Control_c, 0, 64, 43
1, 176224, Control_c, 0, 64, 50
1, 176239, Control_c, 0, 64, 54
1, 176254, Control_c, 0, 64, 57
1, 176259, Note_off_c, 0, 62, 57
1, 176268, Control_c, 0, 64, 60
1, 176273, Note_on_c, 0, 55, 41
1, 176274, Note_on_c, 0, 67, 54
1, 176283, Control_c, 0, 64, 63
1, 176298, Control_c, 0, 64, 67
1, 176313, Control_c, 0, 64, 72
1, 176328, Control_c, 0, 64, 82
1, 176328, Note_off_c, 0, 55, 62
1, 176335, Note_off_c, 0, 67, 58
1, 176343, Control_c, 0, 64, 92
1, 176358, Control_c, 0, 64, 100
1, 176366, Note_on_c, 0, 58, 58
1, 176373, Control_c, 0, 64, 102
1, 176387, Control_c, 0, 64, 103
1, 176388, Note_on_c, 0, 62, 45
1, 176402, Control_c, 0, 64, 106
1, 176417, Control_c, 0, 64, 111
1, 176438, Control_c, 0, 64, 118
1, 176440, Note_off_c, 0, 58, 48
1, 176443, Note_off_c, 0, 62, 56
1, 176453, Control_c, 0, 64, 123
1, 176468, Note_on_c, 0, 55, 48
1, 176468, Control_c, 0, 64, 121
1, 176476, Note_on_c, 0, 67, 55
1, 176483, Control_c, 0, 64, 114
1, 176498, Control_c, 0, 64, 108
1, 176513, Control_c, 0, 64, 99
1, 176528, Control_c, 0, 64, 89
1, 176543, Control_c, 0, 64, 76
1, 176543, Note_off_c, 0, 74, 39
1, 176553, Note_off_c, 0, 55, 59
1, 176558, Control_c, 0, 64, 67
1, 176572, Control_c, 0, 64, 59
1, 176575, Note_off_c, 0, 67, 63
1, 176587, Control_c, 0, 64, 48
1, 176592, Note_on_c, 0, 73, 57
1, 176596, Note_on_c, 0, 61, 48
1, 176597, Note_on_c, 0, 46, 41
1, 176602, Control_c, 0, 64, 48
1, 176617, Control_c, 0, 64, 50
1, 176632, Control_c, 0, 64, 53
1, 176646, Control_c, 0, 64, 56
1, 176661, Control_c, 0, 64, 58
1, 176671, Note_off_c, 0, 61, 59
1, 176673, Note_off_c, 0, 51, 55
1, 176676, Control_c, 0, 64, 60
1, 176676, Control_c, 0, 67, 127
1, 176681, Note_off_c, 0, 73, 65
1, 176689, Note_on_c, 0, 66, 49
1, 176691, Control_c, 0, 64, 62
1, 176691, Control_c, 0, 67, 126
1, 176695, Note_on_c, 0, 56, 52
1, 176705, Note_off_c, 0, 46, 53
1, 176706, Control_c, 0, 64, 64
1, 176706, Control_c, 0, 67, 125
1, 176720, Control_c, 0, 64, 67
1, 176720, Control_c, 0, 67, 125
1, 176735, Control_c, 0, 64, 73
1, 176735, Control_c, 0, 67, 120
1, 176750, Control_c, 0, 64, 85
1, 176750, Control_c, 0, 67, 114
1, 176762, Note_off_c, 0, 56, 61
1, 176764, Control_c, 0, 64, 119
1, 176764, Control_c, 0, 67, 110
1, 176779, Note_off_c, 0, 66, 62
1, 176779, Control_c, 0, 64, 127
1, 176779, Control_c, 0, 67, 107
1, 176793, Note_on_c, 0, 58, 69
1, 176794, Control_c, 0, 67, 104
1, 176796, Note_on_c, 0, 61, 67
1, 176809, Control_c, 0, 67, 100
1, 176824, Control_c, 0, 67, 95
1, 176838, Control_c, 0, 67, 90
1, 176853, Control_c, 0, 67, 85
1, 176856, Note_off_c, 0, 61, 61
1, 176868, Control_c, 0, 67, 78
1, 176878, Note_off_c, 0, 58, 59
1, 176880, Note_on_c, 0, 56, 67
1, 176882, Control_c, 0, 67, 70
1, 176886, Note_on_c, 0, 66, 66
1, 176897, Control_c, 0, 67, 59
1, 176911, Control_c, 0, 64, 82
1, 176911, Control_c, 0, 67, 46
1, 176926, Control_c, 0, 64, 66
1, 176926, Control_c, 0, 67, 33
1, 176939, Note_off_c, 0, 66, 59
1, 176941, Control_c, 0, 64, 44
1, 176941, Control_c, 0, 67, 20
1, 176954, Note_on_c, 0, 74, 68
1, 176955, Control_c, 0, 64, 0
1, 176955, Control_c, 0, 67, 0
1, 176956, Note_off_c, 0, 56, 63
1, 176961, Note_on_c, 0, 62, 73
1, 176968, Note_on_c, 0, 51, 68
1, 176970, Control_c, 0, 64, 17
1, 176984, Note_off_c, 0, 74, 65
1, 176987, Control_c, 0, 64, 37
1, 177001, Control_c, 0, 64, 49
1, 177016, Control_c, 0, 64, 56
1, 177017, Note_off_c, 0, 62, 52
1, 177031, Control_c, 0, 64, 60
1, 177046, Control_c, 0, 64, 65
1, 177053, Note_on_c, 0, 63, 71
1, 177060, Control_c, 0, 64, 72
1, 177075, Control_c, 0, 64, 86
1, 177090, Control_c, 0, 64, 127
1, 177094, Note_off_c, 0, 63, 60
1, 177094, Note_on_c, 0, 65, 64
1, 177098, Note_on_c, 0, 55, 59
1, 177126, Note_off_c, 0, 65, 61
1, 177147, Note_off_c, 0, 51, 0
1, 177155, Note_on_c, 0, 67, 77
1, 177168, Note_off_c, 0, 55, 62
1, 177172, Note_on_c, 0, 51, 25
1, 177192, Note_on_c, 0, 58, 67
1, 177219, Note_off_c, 0, 67, 64
1, 177225, Note_on_c, 0, 69, 76
1, 177246, Control_c, 0, 64, 98
1, 177254, Note_on_c, 0, 70, 83
1, 177258, Note_off_c, 0, 58, 59
1, 177260, Control_c, 0, 64, 73
1, 177261, Note_off_c, 0, 69, 62
1, 177275, Control_c, 0, 64, 52
1, 177279, Note_on_c, 0, 55, 61
1, 177290, Control_c, 0, 64, 0
1, 177302, Note_off_c, 0, 51, 52
1, 177312, Note_on_c, 0, 72, 64
1, 177318, Note_off_c, 0, 70, 64
1, 177355, Note_on_c, 0, 61, 41
1, 177365, Note_on_c, 0, 73, 79
1, 177375, Note_off_c, 0, 55, 62
1, 177381, Note_on_c, 0, 46, 67
1, 177381, Note_off_c, 0, 72, 65
1, 177383, Note_off_c, 0, 61, 36
1, 177393, Control_c, 0, 64, 41
1, 177408, Control_c, 0, 64, 62
1, 177410, Note_off_c, 0, 73, 65
1, 177423, Control_c, 0, 64, 72
1, 177438, Control_c, 0, 64, 85
1, 177446, Note_on_c, 0, 74, 84
1, 177453, Control_c, 0, 64, 127
1, 177484, Note_off_c, 0, 46, 58
1, 177492, Note_on_c, 0, 75, 76
1, 177492, Note_off_c, 0, 74, 62
1, 177499, Note_on_c, 0, 56, 59
1, 177516, Note_off_c, 0, 75, 69
1, 177526, Note_on_c, 0, 77, 49
1, 177548, Note_off_c, 0, 77, 57
1, 177562, Note_off_c, 0, 56, 61
1, 177574, Note_on_c, 0, 79, 70
1, 177588, Note_on_c, 0, 58, 68
1, 177589, Note_on_c, 0, 77, 60
1, 177609, Note_off_c, 0, 77, 54
1, 177614, Note_on_c, 0, 80, 62
1, 177627, Note_on_c, 0, 81, 81
1, 177643, Note_off_c, 0, 80, 50
1, 177652, Note_on_c, 0, 82, 85
1, 177666, Note_off_c, 0, 58, 56
1, 177675, Control_c, 0, 64, 118
1, 177675, Note_off_c, 0, 79, 36
1, 177676, Note_off_c, 0, 81, 65
1, 177677, Note_on_c, 0, 56, 66
1, 177690, Control_c, 0, 64, 85
1, 177699, Note_on_c, 0, 84, 73
1, 177705, Control_c, 0, 64, 67
1, 177720, Control_c, 0, 64, 45
1, 177726, Note_off_c, 0, 82, 59
1, 177734, Control_c, 0, 64, 0
1, 177747, Note_on_c, 0, 86, 81
1, 177750, Note_on_c, 0, 74, 75
1, 177753, Note_off_c, 0, 56, 63
1, 177770, Note_on_c, 0, 51, 56
1, 177778, Note_off_c, 0, 84, 61
1, 177795, Control_c, 0, 64, 22
1, 177810, Control_c, 0, 64, 36
1, 177824, Control_c, 0, 64, 44
1, 177839, Control_c, 0, 64, 51
1, 177843, Note_off_c, 0, 74, 54
1, 177854, Control_c, 0, 64, 58
1, 177869, Control_c, 0, 64, 63
1, 177883, Control_c, 0, 64, 66
1, 177898, Control_c, 0, 64, 70
1, 177898, Control_c, 0, 67, 9
1, 177900, Note_on_c, 0, 79, 56
1, 177902, Note_on_c, 0, 55, 47
1, 177913, Control_c, 0, 64, 75
1, 177913, Control_c, 0, 67, 18
1, 177935, Control_c, 0, 64, 83
1, 177935, Control_c, 0, 67, 26
1, 177950, Control_c, 0, 64, 95
1, 177950, Control_c, 0, 67, 36
1, 177956, Note_off_c, 0, 51, 0
1, 177965, Control_c, 0, 64, 108
1, 177965, Control_c, 0, 67, 48
1, 177976, Note_off_c, 0, 55, 60
1, 177978, Note_off_c, 0, 79, 64
1, 177979, Control_c, 0, 64, 127
1, 177979, Control_c, 0, 67, 61
1, 177992, Poly_aftertouch_c, 0, 51, 127
1, 177994, Control_c, 0, 67, 77
1, 177995, Note_on_c, 0, 74, 51
1, 178009, Control_c, 0, 67, 88
1, 178013, Note_on_c, 0, 58, 54
1, 178024, Control_c, 0, 67, 97
1, 178039, Control_c, 0, 67, 102
1, 178054, Control_c, 0, 67, 104
1, 178060, Note_off_c, 0, 86, 59
1, 178069, Control_c, 0, 67, 105
1, 178070, Note_off_c, 0, 58, 52
1, 178077, Note_off_c, 0, 74, 57
1, 178083, Control_c, 0, 67, 105
1, 178098, Control_c, 0, 64, 110
1, 178103, Note_on_c, 0, 55, 55
1, 178111, Note_on_c, 0, 79, 58
1, 178113, Control_c, 0, 64, 90
1, 178128, Control_c, 0, 64, 75
1, 178143, Control_c, 0, 64, 66
1, 178157, Control_c, 0, 64, 56
1, 178172, Control_c, 0, 64, 44
1, 178173, Note_off_c, 0, 55, 62
1, 178187, Control_c, 0, 64, 43
1, 178197, Note_off_c, 0, 79, 64
1, 178202, Control_c, 0, 64, 45
1, 178202, Control_c, 0, 67, 105
1, 178213, Note_on_c, 0, 46, 45
1, 178213, Note_on_c, 0, 85, 68
1, 178216, Control_c, 0, 64, 48
1, 178216, Control_c, 0, 67, 104
1, 178218, Note_on_c, 0, 73, 61
1, 178231, Control_c, 0, 64, 51
1, 178246, Control_c, 0, 64, 55
1, 178246, Control_c, 0, 67, 103
1, 178261, Control_c, 0, 64, 58
1, 178276, Control_c, 0, 64, 60
1, 178276, Control_c, 0, 67, 103
1, 178290, Note_off_c, 0, 46, 56
1, 178290, Control_c, 0, 64, 62
1, 178295, Note_off_c, 0, 73, 50
1, 178305, Control_c, 0, 64, 65
1, 178311, Note_on_c, 0, 56, 52
1, 178317, Note_off_c, 0, 85, 64
1, 178320, Note_on_c, 0, 78, 65
1, 178320, Control_c, 0, 64, 69
1, 178335, Poly_aftertouch_c, 0, 51, 0
1, 178335, Control_c, 0, 64, 80
1, 178335, Control_c, 0, 67, 102
1, 178350, Control_c, 0, 64, 104
1, 178350, Control_c, 0, 67, 102
1, 178361, Note_off_c, 0, 56, 64
1, 178364, Control_c, 0, 64, 127
1, 178364, Control_c, 0, 67, 101
1, 178379, Control_c, 0, 67, 100
1, 178394, Control_c, 0, 67, 99
1, 178400, Note_on_c, 0, 58, 60
1, 178409, Control_c, 0, 67, 98
1, 178410, Note_off_c, 0, 78, 65
1, 178424, Control_c, 0, 67, 97
1, 178430, Note_on_c, 0, 73, 68
1, 178430, Poly_aftertouch_c, 0, 51, 127
1, 178439, Control_c, 0, 67, 95
1, 178453, Control_c, 0, 67, 93
1, 178465, Note_on_c, 0, 56, 58
1, 178466, Note_off_c, 0, 58, 62
1, 178467, Poly_aftertouch_c, 0, 51, 0
1, 178468, Control_c, 0, 67, 92
1, 178482, Note_off_c, 0, 73, 64
1, 178497, Note_off_c, 0, 56, 66
1, 178498, Control_c, 0, 67, 91
1, 178511, Note_on_c, 0, 78, 75
1, 178528, Control_c, 0, 67, 90
1, 178543, Control_c, 0, 64, 111
1, 178557, Control_c, 0, 64, 76
1, 178572, Control_c, 0, 64, 56
1, 178579, Note_on_c, 0, 74, 55
1, 178583, Note_on_c, 0, 86, 71
1, 178585, Note_off_c, 0, 78, 61
1, 178588, Control_c, 0, 64, 0
1, 178591, Note_on_c, 0, 63, 66
1, 178602, Control_c, 0, 64, 23
1, 178610, Note_off_c, 0, 86, 65
1, 178617, Control_c, 0, 64, 43
1, 178632, Control_c, 0, 64, 52
1, 178639, Note_off_c, 0, 74, 59
1, 178647, Control_c, 0, 64, 59
1, 178662, Control_c, 0, 64, 64
1, 178662, Control_c, 0, 67, 91
1, 178684, Control_c, 0, 64, 73
1, 178685, Note_on_c, 0, 75, 72
1, 178694, Note_on_c, 0, 67, 53
1, 178699, Control_c, 0, 64, 93
1, 178709, Note_on_c, 0, 78, 71
1, 178713, Control_c, 0, 64, 127
1, 178717, Note_off_c, 0, 75, 62
1, 178725, Note_off_c, 0, 78, 66
1, 178735, Note_on_c, 0, 77, 64
1, 178744, Note_off_c, 0, 67, 61
1, 178752, Note_off_c, 0, 77, 64
1, 178758, Control_c, 0, 67, 90
1, 178783, Note_on_c, 0, 70, 50
1, 178790, Note_on_c, 0, 79, 73
1, 178817, Note_off_c, 0, 70, 49
1, 178840, Note_on_c, 0, 81, 75
1, 178841, Note_off_c, 0, 79, 66
1, 178867, Note_on_c, 0, 67, 61
1, 178877, Control_c, 0, 64, 110
1, 178879, Note_on_c, 0, 82, 76
1, 178892, Control_c, 0, 64, 80
1, 178892, Control_c, 0, 67, 91
1, 178895, Note_off_c, 0, 81, 64
1, 178906, Control_c, 0, 64, 63
1, 178906, Control_c, 0, 67, 92
1, 178921, Control_c, 0, 64, 28
1, 178923, Note_off_c, 0, 63, 40
1, 178924, Note_on_c, 0, 84, 62
1, 178936, Control_c, 0, 64, 0
1, 178936, Control_c, 0, 67, 92
1, 178945, Note_off_c, 0, 82, 62
1, 178954, Note_off_c, 0, 67, 62
1, 178974, Note_on_c, 0, 58, 58
1, 178980, Control_c, 0, 64, 27
1, 178985, Note_on_c, 0, 73, 70
1, 178985, Note_on_c, 0, 85, 77
1, 178995, Control_c, 0, 64, 44
1, 179005, Note_off_c, 0, 84, 58
1, 179010, Control_c, 0, 64, 54
1, 179010, Control_c, 0, 67, 93
1, 179025, Control_c, 0, 64, 58
1, 179025, Control_c, 0, 67, 93
1, 179039, Control_c, 0, 64, 63
1, 179054, Control_c, 0, 64, 69
1, 179062, Note_off_c, 0, 73, 54
1, 179069, Control_c, 0, 64, 78
1, 179075, Note_off_c, 0, 58, 59
1, 179084, Control_c, 0, 64, 97
1, 179088, Note_on_c, 0, 68, 58
1, 179089, Note_off_c, 0, 85, 61
1, 179093, Note_on_c, 0, 78, 59
1, 179098, Control_c, 0, 64, 127
1, 179157, Note_off_c, 0, 68, 60
1, 179158, Control_c, 0, 67, 94
1, 179172, Note_off_c, 0, 78, 64
1, 179185, Note_on_c, 0, 73, 64
1, 179190, Note_on_c, 0, 70, 62
1, 179202, Control_c, 0, 67, 93
1, 179217, Control_c, 0, 67, 93
1, 179231, Note_off_c, 0, 73, 61
1, 179267, Note_off_c, 0, 70, 58
1, 179274, Note_on_c, 0, 78, 68
1, 179279, Note_on_c, 0, 68, 62
1, 179306, Control_c, 0, 64, 99
1, 179321, Control_c, 0, 64, 77
1, 179321, Control_c, 0, 67, 92
1, 179333, Note_off_c, 0, 68, 49
1, 179336, Control_c, 0, 64, 62
1, 179336, Control_c, 0, 67, 91
1, 179338, Note_on_c, 0, 86, 69
1, 179339, Note_off_c, 0, 78, 60
1, 179347, Note_on_c, 0, 74, 78
1, 179350, Control_c, 0, 64, 49
1, 179350, Control_c, 0, 67, 90
1, 179365, Note_on_c, 0, 63, 62
1, 179365, Control_c, 0, 64, 54
1, 179366, Note_off_c, 0, 86, 64
1, 179381, Control_c, 0, 64, 61
1, 179381, Control_c, 0, 67, 89
1, 179396, Control_c, 0, 64, 64
1, 179402, Note_off_c, 0, 74, 53
1, 179410, Control_c, 0, 64, 67
1, 179433, Control_c, 0, 64, 73
1, 179442, Note_on_c, 0, 75, 77
1, 179448, Control_c, 0, 64, 83
1, 179462, Control_c, 0, 64, 101
1, 179473, Note_on_c, 0, 67, 62
1, 179477, Control_c, 0, 64, 127
1, 179477, Control_c, 0, 67, 88
1, 179480, Note_on_c, 0, 77, 70
1, 179491, Note_off_c, 0, 75, 60
1, 179492, Control_c, 0, 67, 87
1, 179508, Note_off_c, 0, 77, 67
1, 179539, Note_off_c, 0, 67, 61
1, 179541, Note_off_c, 0, 63, 0
1, 179552, Note_on_c, 0, 79, 82
1, 179562, Note_on_c, 0, 63, 19
1, 179569, Note_on_c, 0, 70, 62
1, 179607, Note_off_c, 0, 79, 66
1, 179611, Note_on_c, 0, 81, 76
1, 179627, Note_off_c, 0, 70, 56
1, 179644, Note_on_c, 0, 82, 79
1, 179652, Note_on_c, 0, 67, 61
1, 179655, Control_c, 0, 67, 88
1, 179663, Note_off_c, 0, 81, 64
1, 179670, Control_c, 0, 67, 88
1, 179685, Control_c, 0, 64, 113
1, 179685, Control_c, 0, 67, 89
1, 179691, Note_on_c, 0, 84, 60
1, 179699, Control_c, 0, 64, 86
1, 179699, Control_c, 0, 67, 90
1, 179710, Note_off_c, 0, 82, 64
1, 179714, Control_c, 0, 64, 69
1, 179723, Note_off_c, 0, 63, 28
1, 179727, Note_off_c, 0, 67, 62
1, 179729, Control_c, 0, 64, 56
1, 179744, Control_c, 0, 64, 33
1, 179753, Note_on_c, 0, 58, 55
1, 179756, Note_on_c, 0, 73, 71
1, 179758, Note_on_c, 0, 85, 74
1, 179759, Control_c, 0, 64, 33
1, 179774, Control_c, 0, 64, 43
1, 179777, Note_off_c, 0, 84, 55
1, 179789, Control_c, 0, 64, 51
1, 179803, Control_c, 0, 64, 57
1, 179803, Control_c, 0, 67, 90
1, 179818, Control_c, 0, 64, 60
1, 179833, Control_c, 0, 64, 63
1, 179847, Control_c, 0, 64, 65
1, 179848, Note_off_c, 0, 73, 59
1, 179854, Note_off_c, 0, 58, 59
1, 179857, Note_on_c, 0, 68, 60
1, 179860, Note_on_c, 0, 78, 63
1, 179862, Control_c, 0, 64, 68
1, 179869, Note_off_c, 0, 85, 63
1, 179877, Control_c, 0, 64, 76
1, 179892, Control_c, 0, 64, 96
1, 179907, Control_c, 0, 64, 127
1, 179921, Control_c, 0, 67, 91
1, 179930, Note_off_c, 0, 68, 61
1, 179936, Control_c, 0, 67, 92
1, 179962, Note_on_c, 0, 70, 60
1, 179965, Note_off_c, 0, 78, 64
1, 179973, Note_on_c, 0, 73, 68
1, 180019, Note_off_c, 0, 73, 61
1, 180040, Control_c, 0, 67, 91
1, 180041, Note_off_c, 0, 70, 50
1, 180067, Note_on_c, 0, 68, 55
1, 180070, Note_on_c, 0, 78, 71
1, 180144, Control_c, 0, 64, 108
1, 180159, Control_c, 0, 64, 88
1, 180177, Note_off_c, 0, 68, 48
1, 180182, Control_c, 0, 64, 72
1, 180197, Control_c, 0, 64, 62
1, 180199, Note_off_c, 0, 78, 62
1, 180212, Control_c, 0, 64, 48
1, 180225, Note_on_c, 0, 63, 42
1, 180227, Control_c, 0, 64, 42
1, 180241, Control_c, 0, 64, 48
1, 180246, Note_on_c, 0, 74, 50
1, 180251, Note_on_c, 0, 86, 60
1, 180256, Control_c, 0, 64, 55
1, 180271, Control_c, 0, 64, 60
1, 180285, Control_c, 0, 64, 63
1, 180289, Note_off_c, 0, 74, 63
1, 180300, Control_c, 0, 64, 65
1, 180315, Control_c, 0, 64, 69
1, 180330, Control_c, 0, 64, 74
1, 180345, Control_c, 0, 64, 84
1, 180359, Control_c, 0, 64, 115
1, 180359, Control_c, 0, 67, 90
1, 180369, Note_off_c, 0, 86, 59
1, 180374, Control_c, 0, 64, 127
1, 180385, Note_off_c, 0, 63, 34
1, 180389, Control_c, 0, 67, 90
1, 180397, Note_on_c, 0, 74, 56
1, 180400, Note_on_c, 0, 81, 60
1, 180451, Note_off_c, 0, 81, 59
1, 180466, Note_off_c, 0, 74, 51
1, 180521, Note_on_c, 0, 70, 51
1, 180522, Note_on_c, 0, 79, 62
1, 180576, Note_off_c, 0, 79, 63
1, 180591, Note_off_c, 0, 70, 51
1, 180621, Note_on_c, 0, 69, 64
1, 180625, Note_on_c, 0, 74, 61
1, 180656, Note_off_c, 0, 69, 64
1, 180665, Note_off_c, 0, 74, 61
1, 180730, Control_c, 0, 67, 89
1, 180762, Note_on_c, 0, 62, 57
1, 180762, Note_on_c, 0, 69, 64
1, 180826, Note_off_c, 0, 62, 46
1, 180863, Control_c, 0, 67, 88
1, 180869, Note_off_c, 0, 69, 61
1, 180890, Note_on_c, 0, 67, 58
1, 180894, Note_on_c, 0, 58, 57
1, 181003, Note_off_c, 0, 67, 57
1, 181029, Note_off_c, 0, 58, 33
1, 181030, Note_on_c, 0, 69, 63
1, 181035, Note_on_c, 0, 57, 44
1, 181113, Note_off_c, 0, 57, 51
1, 181128, Note_off_c, 0, 69, 60
1, 181170, Note_on_c, 0, 51, 52
1, 181182, Control_c, 0, 64, 94
1, 181187, Note_on_c, 0, 74, 60
1, 181191, Note_on_c, 0, 62, 56
1, 181197, Control_c, 0, 64, 75
1, 181212, Control_c, 0, 64, 66
1, 181226, Control_c, 0, 64, 61
1, 181241, Control_c, 0, 64, 63
1, 181242, Note_off_c, 0, 62, 59
1, 181243, Note_off_c, 0, 74, 58
1, 181256, Control_c, 0, 64, 64
1, 181271, Control_c, 0, 64, 66
1, 181281, Note_off_c, 0, 51, 58
1, 181286, Control_c, 0, 64, 70
1, 181300, Control_c, 0, 64, 75
1, 181312, Note_on_c, 0, 55, 46
1, 181315, Control_c, 0, 64, 80
1, 181330, Control_c, 0, 64, 86
1, 181345, Control_c, 0, 64, 90
1, 181360, Note_on_c, 0, 74, 57
1, 181360, Control_c, 0, 64, 94
1, 181363, Note_on_c, 0, 62, 47
1, 181375, Control_c, 0, 64, 98
1, 181390, Control_c, 0, 64, 102
1, 181404, Note_off_c, 0, 62, 52
1, 181405, Control_c, 0, 64, 104
1, 181419, Control_c, 0, 64, 105
1, 181424, Note_off_c, 0, 55, 54
1, 181462, Note_off_c, 0, 74, 46
1, 181494, Control_c, 0, 64, 104
1, 181503, Note_on_c, 0, 69, 59
1, 181509, Note_on_c, 0, 62, 51
1, 181561, Note_off_c, 0, 62, 54
1, 181582, Control_c, 0, 64, 103
1, 181597, Control_c, 0, 64, 102
1, 181625, Note_off_c, 0, 69, 53
1, 181679, Note_on_c, 0, 57, 47
1, 181679, Control_c, 0, 64, 102
1, 181686, Note_on_c, 0, 67, 56
1, 181738, Control_c, 0, 64, 101
1, 181753, Control_c, 0, 64, 101
1, 181767, Note_off_c, 0, 67, 57
1, 181768, Control_c, 0, 64, 100
1, 181831, Note_off_c, 0, 57, 36
1, 181843, Control_c, 0, 64, 100
1, 181848, Note_on_c, 0, 55, 46
1, 181855, Note_on_c, 0, 62, 51
1, 181877, Note_off_c, 0, 55, 61
1, 181887, Control_c, 0, 64, 99
1, 181911, Note_off_c, 0, 62, 60
1, 181931, Control_c, 0, 64, 99
1, 181991, Control_c, 0, 64, 98
1, 182011, Note_on_c, 0, 50, 46
1, 182034, Note_on_c, 0, 57, 53
1, 182035, Control_c, 0, 64, 98
1, 182109, Control_c, 0, 64, 97
1, 182147, Note_off_c, 0, 57, 39
1, 182189, Note_off_c, 0, 50, 29
1, 182197, Control_c, 0, 64, 97
1, 182236, Note_on_c, 0, 45, 47
1, 182236, Note_on_c, 0, 55, 50
1, 182317, Note_off_c, 0, 55, 59
1, 182329, Note_off_c, 0, 45, 48
1, 182442, Control_c, 0, 64, 96
1, 182458, Note_on_c, 0, 43, 41
1, 182485, Note_on_c, 0, 57, 41
1, 182547, Note_off_c, 0, 57, 52
1, 182576, Control_c, 0, 64, 95
1, 182680, Note_off_c, 0, 43, 24
1, 182731, Note_on_c, 0, 38, 35
1, 182778, Note_on_c, 0, 62, 34
1, 182817, Note_off_c, 0, 38, 47
1, 182821, Note_off_c, 0, 62, 50
1, 182843, Control_c, 0, 64, 95
1, 183191, Control_c, 0, 67, 88
1, 183220, Control_c, 0, 64, 94
1, 183280, Control_c, 0, 64, 93
1, 183294, Control_c, 0, 64, 92
1, 183309, Control_c, 0, 64, 90
1, 183324, Control_c, 0, 64, 86
1, 183333, Note_on_c, 0, 43, 35
1, 183339, Control_c, 0, 64, 78
1, 183342, Note_on_c, 0, 36, 32
1, 183354, Control_c, 0, 64, 70
1, 183369, Control_c, 0, 64, 64
1, 183381, Note_on_c, 0, 86, 79
1, 183384, Control_c, 0, 64, 57
1, 183393, Note_on_c, 0, 74, 65
1, 183399, Control_c, 0, 64, 51
1, 183399, Control_c, 0, 67, 87
1, 183414, Control_c, 0, 64, 51
1, 183429, Control_c, 0, 64, 54
1, 183443, Control_c, 0, 64, 57
1, 183458, Control_c, 0, 64, 60
1, 183458, Control_c, 0, 67, 87
1, 183473, Control_c, 0, 64, 63
1, 183473, Control_c, 0, 67, 86
1, 183488, Control_c, 0, 64, 65
1, 183488, Control_c, 0, 67, 85
1, 183503, Control_c, 0, 64, 67
1, 183503, Control_c, 0, 67, 85
1, 183518, Control_c, 0, 64, 71
1, 183533, Control_c, 0, 64, 76
1, 183533, Control_c, 0, 67, 84
1, 183548, Control_c, 0, 64, 83
1, 183563, Control_c, 0, 64, 96
1, 183563, Control_c, 0, 67, 83
1, 183577, Control_c, 0, 64, 127
1, 183577, Control_c, 0, 67, 83
1, 183601, Note_off_c, 0, 36, 40
1, 183673, Note_off_c, 0, 43, 54
1, 183725, Note_on_c, 0, 52, 42
1, 183785, Control_c, 0, 67, 82
1, 183830, Note_off_c, 0, 52, 61
1, 183935, Note_on_c, 0, 55, 43
1, 184024, Note_off_c, 0, 55, 57
1, 184079, Note_off_c, 0, 74, 55
1, 184104, Note_on_c, 0, 60, 48
1, 184148, Control_c, 0, 67, 83
1, 184194, Control_c, 0, 67, 83
1, 184233, Note_off_c, 0, 60, 59
1, 184235, Note_on_c, 0, 81, 11
1, 184248, Note_on_c, 0, 85, 70
1, 184251, Note_on_c, 0, 73, 65
1, 184268, Control_c, 0, 67, 84
1, 184271, Note_off_c, 0, 86, 37
1, 184272, Note_on_c, 0, 64, 51
1, 184275, Note_off_c, 0, 81, 41
1, 184312, Control_c, 0, 67, 85
1, 184334, Note_off_c, 0, 85, 65
1, 184350, Note_off_c, 0, 73, 61
1, 184371, Control_c, 0, 67, 85
1, 184374, Note_off_c, 0, 64, 56
1, 184409, Note_on_c, 0, 52, 66
1, 184442, Note_off_c, 0, 52, 65
1, 184563, Control_c, 0, 64, 108
1, 184578, Control_c, 0, 64, 85
1, 184587, Note_on_c, 0, 82, 80
1, 184592, Control_c, 0, 64, 71
1, 184597, Note_on_c, 0, 41, 31
1, 184599, Note_on_c, 0, 70, 70
1, 184605, Note_on_c, 0, 50, 46
1, 184607, Control_c, 0, 64, 61
1, 184622, Control_c, 0, 64, 47
1, 184637, Control_c, 0, 64, 46
1, 184651, Control_c, 0, 64, 52
1, 184674, Control_c, 0, 64, 57
1, 184689, Control_c, 0, 64, 61
1, 184704, Control_c, 0, 64, 65
1, 184719, Control_c, 0, 64, 68
1, 184733, Control_c, 0, 64, 75
1, 184734, Note_off_c, 0, 50, 63
1, 184748, Control_c, 0, 64, 81
1, 184757, Note_off_c, 0, 41, 42
1, 184763, Control_c, 0, 64, 92
1, 184772, Note_on_c, 0, 53, 55
1, 184778, Control_c, 0, 64, 118
1, 184793, Control_c, 0, 64, 127
1, 184835, Note_off_c, 0, 70, 62
1, 184862, Note_off_c, 0, 53, 51
1, 184925, Note_on_c, 0, 58, 45
1, 185045, Note_off_c, 0, 58, 56
1, 185096, Note_on_c, 0, 62, 52
1, 185182, Note_off_c, 0, 62, 50
1, 185203, Note_off_c, 0, 82, 56
1, 185242, Note_on_c, 0, 84, 70
1, 185252, Note_on_c, 0, 72, 62
1, 185255, Note_on_c, 0, 58, 53
1, 185267, Control_c, 0, 67, 85
1, 185289, Note_off_c, 0, 58, 64
1, 185334, Note_off_c, 0, 84, 63
1, 185366, Note_off_c, 0, 72, 62
1, 185401, Control_c, 0, 67, 85
1, 185402, Note_on_c, 0, 53, 55
1, 185482, Control_c, 0, 67, 86
1, 185512, Control_c, 0, 64, 102
1, 185527, Control_c, 0, 64, 85
1, 185527, Control_c, 0, 67, 87
1, 185542, Control_c, 0, 64, 69
1, 185542, Control_c, 0, 67, 87
1, 185556, Control_c, 0, 64, 55
1, 185556, Control_c, 0, 67, 88
1, 185569, Note_on_c, 0, 42, 40
1, 185571, Control_c, 0, 64, 0
1, 185571, Control_c, 0, 67, 89
1, 185572, Note_off_c, 0, 53, 37
1, 185586, Note_on_c, 0, 81, 73
1, 185586, Control_c, 0, 67, 90
1, 185589, Note_on_c, 0, 51, 43
1, 185589, Note_on_c, 0, 69, 71
1, 185600, Control_c, 0, 67, 91
1, 185615, Control_c, 0, 67, 92
1, 185630, Control_c, 0, 67, 92
1, 185689, Control_c, 0, 67, 91
1, 185704, Control_c, 0, 67, 90
1, 185719, Control_c, 0, 67, 89
1, 185734, Control_c, 0, 64, 36
1, 185734, Control_c, 0, 67, 88
1, 185748, Control_c, 0, 64, 57
1, 185748, Control_c, 0, 67, 88
1, 185763, Note_off_c, 0, 42, 62
1, 185763, Control_c, 0, 64, 65
1, 185779, Control_c, 0, 64, 68
1, 185779, Control_c, 0, 67, 87
1, 185794, Control_c, 0, 64, 74
1, 185795, Note_off_c, 0, 51, 59
1, 185802, Note_off_c, 0, 69, 61
1, 185809, Control_c, 0, 64, 88
1, 185813, Note_on_c, 0, 57, 48
1, 185824, Control_c, 0, 64, 127
1, 185950, Note_off_c, 0, 81, 63
1, 185964, Note_on_c, 0, 82, 74
1, 185983, Note_on_c, 0, 70, 65
1, 185998, Note_on_c, 0, 60, 44
1, 186009, Note_off_c, 0, 57, 33
1, 186016, Control_c, 0, 67, 88
1, 186071, Note_off_c, 0, 70, 61
1, 186081, Note_off_c, 0, 82, 63
1, 186146, Note_off_c, 0, 60, 36
1, 186199, Note_on_c, 0, 81, 81
1, 186201, Note_on_c, 0, 63, 50
1, 186210, Note_on_c, 0, 69, 72
1, 186267, Note_off_c, 0, 81, 62
1, 186274, Note_off_c, 0, 69, 61
1, 186320, Note_off_c, 0, 63, 54
1, 186372, Note_on_c, 0, 79, 82
1, 186375, Note_on_c, 0, 60, 55
1, 186385, Note_on_c, 0, 67, 70
1, 186439, Note_off_c, 0, 60, 57
1, 186445, Note_off_c, 0, 67, 62
1, 186475, Note_off_c, 0, 79, 63
1, 186527, Note_on_c, 0, 57, 57
1, 186548, Note_on_c, 0, 78, 86
1, 186556, Note_on_c, 0, 66, 76
1, 186662, Control_c, 0, 67, 88
1, 186669, Note_off_c, 0, 66, 61
1, 186677, Note_off_c, 0, 78, 63
1, 186683, Note_off_c, 0, 57, 38
1, 186691, Control_c, 0, 64, 108
1, 186706, Control_c, 0, 64, 84
1, 186710, Note_on_c, 0, 50, 45
1, 186720, Control_c, 0, 64, 69
1, 186724, Note_on_c, 0, 43, 38
1, 186735, Control_c, 0, 64, 57
1, 186740, Note_on_c, 0, 77, 76
1, 186746, Note_on_c, 0, 65, 67
1, 186750, Control_c, 0, 64, 38
1, 186765, Control_c, 0, 64, 31
1, 186780, Control_c, 0, 64, 32
1, 186794, Control_c, 0, 64, 33
1, 186809, Control_c, 0, 64, 38
1, 186824, Control_c, 0, 64, 46
1, 186839, Control_c, 0, 64, 52
1, 186854, Control_c, 0, 64, 57
1, 186869, Control_c, 0, 64, 61
1, 186874, Note_off_c, 0, 43, 35
1, 186874, Note_off_c, 0, 50, 62
1, 186883, Control_c, 0, 64, 64
1, 186898, Control_c, 0, 64, 66
1, 186920, Control_c, 0, 64, 70
1, 186935, Control_c, 0, 64, 78
1, 186938, Note_on_c, 0, 57, 55
1, 186950, Control_c, 0, 64, 93
1, 186965, Control_c, 0, 64, 127
1, 187085, Note_off_c, 0, 57, 34
1, 187113, Note_on_c, 0, 60, 52
1, 187116, Note_off_c, 0, 65, 30
1, 187191, Note_off_c, 0, 60, 51
1, 187202, Control_c, 0, 67, 88
1, 187253, Note_on_c, 0, 57, 55
1, 187366, Note_off_c, 0, 57, 61
1, 187396, Note_on_c, 0, 53, 66
1, 187486, Note_off_c, 0, 53, 58
1, 187518, Note_off_c, 0, 77, 60
1, 187540, Note_on_c, 0, 50, 69
1, 187587, Note_off_c, 0, 50, 60
1, 187685, Control_c, 0, 64, 102
1, 187700, Control_c, 0, 64, 82
1, 187715, Control_c, 0, 64, 67
1, 187719, Note_on_c, 0, 43, 37
1, 187720, Note_on_c, 0, 49, 43
1, 187726, Note_on_c, 0, 79, 80
1, 187730, Control_c, 0, 64, 56
1, 187730, Note_on_c, 0, 67, 73
1, 187744, Control_c, 0, 64, 38
1, 187744, Control_c, 0, 67, 87
1, 187759, Control_c, 0, 64, 35
1, 187774, Control_c, 0, 64, 40
1, 187789, Control_c, 0, 64, 48
1, 187804, Control_c, 0, 64, 54
1, 187818, Control_c, 0, 64, 60
1, 187833, Control_c, 0, 64, 63
1, 187848, Control_c, 0, 64, 66
1, 187863, Control_c, 0, 64, 70
1, 187876, Note_on_c, 0, 52, 54
1, 187877, Control_c, 0, 64, 79
1, 187879, Note_off_c, 0, 43, 34
1, 187892, Control_c, 0, 64, 98
1, 187907, Control_c, 0, 64, 127
1, 187909, Note_off_c, 0, 49, 34
1, 187939, Note_off_c, 0, 52, 56
1, 188034, Note_on_c, 0, 61, 62
1, 188126, Note_off_c, 0, 61, 58
1, 188189, Note_on_c, 0, 58, 56
1, 188190, Note_off_c, 0, 67, 55
1, 188222, Note_off_c, 0, 58, 65
1, 188275, Note_off_c, 0, 79, 58
1, 188344, Note_on_c, 0, 78, 70
1, 188348, Note_on_c, 0, 66, 65
1, 188350, Note_on_c, 0, 52, 59
1, 188431, Note_off_c, 0, 66, 61
1, 188432, Note_off_c, 0, 78, 62
1, 188457, Note_off_c, 0, 52, 60
1, 188491, Control_c, 0, 67, 88
1, 188502, Note_on_c, 0, 49, 67
1, 188595, Control_c, 0, 64, 117
1, 188610, Control_c, 0, 64, 92
1, 188618, Note_off_c, 0, 49, 61
1, 188625, Control_c, 0, 64, 77
1, 188639, Control_c, 0, 64, 65
1, 188654, Control_c, 0, 64, 56
1, 188657, Note_on_c, 0, 75, 78
1, 188660, Note_on_c, 0, 44, 42
1, 188664, Note_on_c, 0, 63, 70
1, 188669, Control_c, 0, 64, 47
1, 188675, Note_on_c, 0, 48, 44
1, 188684, Control_c, 0, 64, 46
1, 188699, Control_c, 0, 64, 48
1, 188714, Control_c, 0, 64, 51
1, 188729, Control_c, 0, 64, 56
1, 188744, Control_c, 0, 64, 60
1, 188758, Control_c, 0, 64, 63
1, 188773, Control_c, 0, 64, 65
1, 188788, Control_c, 0, 64, 68
1, 188803, Control_c, 0, 64, 73
1, 188805, Note_off_c, 0, 48, 59
1, 188818, Control_c, 0, 64, 80
1, 188830, Note_on_c, 0, 51, 58
1, 188833, Control_c, 0, 64, 98
1, 188845, Note_off_c, 0, 63, 54
1, 188847, Control_c, 0, 64, 127
1, 188863, Note_off_c, 0, 44, 39
1, 188923, Note_off_c, 0, 51, 63
1, 188997, Note_on_c, 0, 56, 51
1, 189041, Control_c, 0, 67, 87
1, 189075, Note_off_c, 0, 56, 61
1, 189151, Note_on_c, 0, 58, 57
1, 189303, Note_off_c, 0, 75, 59
1, 189309, Note_on_c, 0, 77, 71
1, 189322, Note_on_c, 0, 65, 64
1, 189337, Note_off_c, 0, 58, 58
1, 189398, Note_off_c, 0, 77, 61
1, 189402, Note_on_c, 0, 59, 21
1, 189433, Note_off_c, 0, 65, 56
1, 189447, Poly_aftertouch_c, 0, 60, 0
1, 189460, Note_off_c, 0, 59, 61
1, 189468, Poly_aftertouch_c, 0, 60, 0
1, 189488, Note_on_c, 0, 51, 64
1, 189524, Note_off_c, 0, 51, 65
1, 189640, Control_c, 0, 64, 98
1, 189655, Control_c, 0, 64, 78
1, 189670, Control_c, 0, 64, 64
1, 189677, Note_on_c, 0, 39, 47
1, 189685, Control_c, 0, 64, 51
1, 189690, Note_on_c, 0, 74, 66
1, 189700, Note_on_c, 0, 62, 51
1, 189700, Control_c, 0, 64, 48
1, 189704, Note_on_c, 0, 46, 42
1, 189714, Control_c, 0, 64, 55
1, 189729, Control_c, 0, 64, 61
1, 189744, Control_c, 0, 64, 64
1, 189760, Control_c, 0, 64, 69
1, 189775, Control_c, 0, 64, 76
1, 189784, Note_off_c, 0, 62, 60
1, 189790, Control_c, 0, 64, 90
1, 189795, Note_off_c, 0, 39, 57
1, 189804, Control_c, 0, 64, 127
1, 189865, Note_off_c, 0, 46, 62
1, 189886, Note_off_c, 0, 74, 62
1, 189899, Note_on_c, 0, 51, 54
1, 189982, Note_off_c, 0, 51, 54
1, 190067, Note_on_c, 0, 55, 43
1, 190068, Note_on_c, 0, 84, 74
1, 190082, Note_on_c, 0, 72, 57
1, 190135, Note_off_c, 0, 72, 58
1, 190138, Note_off_c, 0, 84, 61
1, 190148, Note_off_c, 0, 55, 51
1, 190258, Note_on_c, 0, 82, 75
1, 190262, Note_on_c, 0, 58, 43
1, 190270, Control_c, 0, 67, 88
1, 190273, Note_on_c, 0, 70, 68
1, 190317, Note_off_c, 0, 70, 55
1, 190328, Note_off_c, 0, 82, 64
1, 190442, Note_on_c, 0, 81, 80
1, 190448, Control_c, 0, 67, 87
1, 190454, Note_on_c, 0, 69, 71
1, 190459, Note_on_c, 0, 63, 48
1, 190461, Note_off_c, 0, 58, 41
1, 190493, Note_off_c, 0, 69, 60
1, 190512, Note_off_c, 0, 81, 62
1, 190625, Note_on_c, 0, 80, 83
1, 190629, Note_off_c, 0, 63, 37
1, 190635, Note_on_c, 0, 68, 71
1, 190636, Note_on_c, 0, 58, 46
1, 190672, Note_off_c, 0, 68, 64
1, 190741, Note_off_c, 0, 80, 62
1, 190856, Control_c, 0, 64, 95
1, 190867, Note_on_c, 0, 63, 38
1, 190871, Control_c, 0, 64, 81
1, 190885, Control_c, 0, 64, 69
1, 190896, Note_on_c, 0, 86, 63
1, 190897, Note_on_c, 0, 74, 63
1, 190900, Control_c, 0, 64, 61
1, 190915, Control_c, 0, 64, 52
1, 190930, Control_c, 0, 64, 50
1, 190945, Control_c, 0, 64, 54
1, 190959, Control_c, 0, 64, 58
1, 190974, Control_c, 0, 64, 62
1, 190984, Note_off_c, 0, 58, 28
1, 190989, Control_c, 0, 64, 65
1, 191004, Control_c, 0, 64, 68
1, 191019, Control_c, 0, 64, 74
1, 191033, Control_c, 0, 64, 87
1, 191048, Control_c, 0, 64, 127
1, 191140, Note_off_c, 0, 63, 55
1, 191194, Note_on_c, 0, 67, 41
1, 191268, Note_off_c, 0, 67, 49
1, 191410, Note_on_c, 0, 72, 50
1, 191565, Note_off_c, 0, 72, 31
1, 191594, Note_off_c, 0, 74, 34
1, 191633, Note_on_c, 0, 70, 43
1, 191781, Note_off_c, 0, 70, 30
1, 191826, Note_off_c, 0, 86, 31
1, 191880, Note_on_c, 0, 69, 38
1, 191882, Note_on_c, 0, 73, 52
1, 191882, Note_on_c, 0, 85, 54
1, 192033, Note_off_c, 0, 73, 38
1, 192174, Note_off_c, 0, 69, 41
1, 192175, Note_on_c, 0, 67, 32
1, 192209, Note_off_c, 0, 67, 46
1, 192443, Control_c, 0, 67, 87
1, 192461, Note_off_c, 0, 85, 43
1, 192562, Control_c, 0, 64, 123
1, 192577, Control_c, 0, 64, 90
1, 192581, Note_on_c, 0, 43, 37
1, 192591, Note_on_c, 0, 74, 72
1, 192592, Control_c, 0, 64, 74
1, 192601, Note_on_c, 0, 36, 33
1, 192606, Control_c, 0, 64, 63
1, 192607, Note_on_c, 0, 86, 59
1, 192621, Control_c, 0, 64, 49
1, 192636, Control_c, 0, 64, 44
1, 192651, Control_c, 0, 64, 51
1, 192666, Control_c, 0, 64, 56
1, 192680, Control_c, 0, 64, 60
1, 192695, Control_c, 0, 64, 63
1, 192710, Control_c, 0, 64, 66
1, 192725, Control_c, 0, 64, 70
1, 192739, Control_c, 0, 64, 82
1, 192754, Control_c, 0, 64, 112
1, 192769, Control_c, 0, 64, 127
1, 192773, Note_off_c, 0, 36, 43
1, 192782, Note_off_c, 0, 86, 56
1, 192852, Note_off_c, 0, 43, 40
1, 192890, Note_on_c, 0, 52, 42
1, 192891, Note_on_c, 0, 85, 48
1, 193003, Note_off_c, 0, 52, 61
1, 193072, Note_off_c, 0, 85, 39
1, 193084, Note_on_c, 0, 84, 60
1, 193111, Note_on_c, 0, 55, 39
1, 193157, Note_off_c, 0, 74, 56
1, 193167, Note_off_c, 0, 55, 60
1, 193199, Note_off_c, 0, 84, 53
1, 193259, Note_on_c, 0, 83, 60
1, 193270, Note_on_c, 0, 60, 43
1, 193389, Note_off_c, 0, 60, 50
1, 193407, Note_off_c, 0, 83, 54
1, 193411, Note_on_c, 0, 73, 77
1, 193427, Note_on_c, 0, 64, 51
1, 193435, Note_on_c, 0, 82, 52
1, 193528, Note_off_c, 0, 64, 57
1, 193547, Note_off_c, 0, 82, 64
1, 193566, Note_on_c, 0, 52, 55
1, 193583, Note_on_c, 0, 81, 73
1, 193596, Note_off_c, 0, 52, 66
1, 193603, Note_off_c, 0, 73, 61
1, 193636, Control_c, 0, 67, 86
1, 193703, Control_c, 0, 64, 117
1, 193718, Control_c, 0, 64, 93
1, 193718, Control_c, 0, 67, 87
1, 193733, Control_c, 0, 64, 78
1, 193745, Note_off_c, 0, 81, 54
1, 193748, Control_c, 0, 64, 67
1, 193757, Note_on_c, 0, 70, 79
1, 193763, Control_c, 0, 64, 56
1, 193767, Note_on_c, 0, 41, 46
1, 193767, Note_on_c, 0, 80, 60
1, 193772, Note_on_c, 0, 50, 46
1, 193778, Control_c, 0, 64, 51
1, 193793, Control_c, 0, 64, 56
1, 193808, Control_c, 0, 64, 60
1, 193823, Control_c, 0, 64, 63
1, 193838, Control_c, 0, 64, 66
1, 193838, Control_c, 0, 67, 87
1, 193853, Control_c, 0, 64, 69
1, 193867, Note_off_c, 0, 41, 59
1, 193867, Control_c, 0, 64, 75
1, 193881, Note_off_c, 0, 50, 59
1, 193882, Control_c, 0, 64, 80
1, 193897, Control_c, 0, 64, 85
1, 193908, Note_off_c, 0, 80, 58
1, 193912, Control_c, 0, 64, 94
1, 193927, Control_c, 0, 64, 107
1, 193933, Note_on_c, 0, 53, 45
1, 193941, Control_c, 0, 64, 127
1, 193954, Note_on_c, 0, 79, 49
1, 194012, Note_off_c, 0, 53, 49
1, 194079, Note_on_c, 0, 58, 43
1, 194104, Note_off_c, 0, 79, 50
1, 194108, Note_on_c, 0, 81, 54
1, 194197, Note_off_c, 0, 58, 56
1, 194198, Note_off_c, 0, 70, 49
1, 194252, Note_off_c, 0, 81, 61
1, 194254, Note_on_c, 0, 62, 48
1, 194257, Note_on_c, 0, 82, 64
1, 194337, Note_off_c, 0, 62, 54
1, 194392, Note_off_c, 0, 82, 64
1, 194409, Note_on_c, 0, 72, 75
1, 194419, Note_on_c, 0, 58, 48
1, 194427, Note_on_c, 0, 81, 63
1, 194455, Note_off_c, 0, 58, 64
1, 194577, Note_on_c, 0, 79, 68
1, 194583, Note_on_c, 0, 53, 53
1, 194594, Note_off_c, 0, 81, 62
1, 194603, Note_off_c, 0, 72, 62
1, 194621, Note_off_c, 0, 79, 60
1, 194664, Note_off_c, 0, 53, 50
1, 194690, Control_c, 0, 64, 109
1, 194705, Control_c, 0, 64, 89
1, 194720, Control_c, 0, 64, 75
1, 194731, Note_on_c, 0, 42, 50
1, 194734, Control_c, 0, 64, 66
1, 194742, Note_on_c, 0, 69, 80
1, 194746, Note_on_c, 0, 51, 45
1, 194749, Control_c, 0, 64, 59
1, 194756, Note_on_c, 0, 77, 69
1, 194764, Control_c, 0, 64, 56
1, 194779, Control_c, 0, 64, 59
1, 194794, Control_c, 0, 64, 63
1, 194808, Control_c, 0, 64, 65
1, 194823, Control_c, 0, 64, 69
1, 194838, Control_c, 0, 64, 73
1, 194852, Note_off_c, 0, 42, 61
1, 194853, Control_c, 0, 64, 79
1, 194868, Control_c, 0, 64, 84
1, 194882, Control_c, 0, 64, 91
1, 194893, Note_off_c, 0, 51, 54
1, 194897, Control_c, 0, 64, 96
1, 194912, Control_c, 0, 64, 102
1, 194926, Control_c, 0, 64, 107
1, 194927, Note_on_c, 0, 57, 53
1, 194929, Note_on_c, 0, 72, 55
1, 194941, Control_c, 0, 64, 111
1, 194956, Control_c, 0, 64, 113
1, 194971, Control_c, 0, 64, 114
1, 194997, Note_off_c, 0, 57, 50
1, 195001, Control_c, 0, 67, 87
1, 195030, Control_c, 0, 64, 115
1, 195045, Control_c, 0, 64, 116
1, 195069, Note_on_c, 0, 70, 70
1, 195075, Control_c, 0, 64, 117
1, 195079, Note_off_c, 0, 69, 53
1, 195087, Note_on_c, 0, 60, 47
1, 195153, Note_off_c, 0, 72, 39
1, 195186, Control_c, 0, 64, 116
1, 195199, Note_off_c, 0, 77, 55
1, 195215, Control_c, 0, 64, 115
1, 195231, Note_off_c, 0, 60, 35
1, 195232, Note_on_c, 0, 69, 82
1, 195245, Control_c, 0, 64, 114
1, 195251, Note_on_c, 0, 63, 57
1, 195254, Note_off_c, 0, 70, 62
1, 195260, Control_c, 0, 64, 113
1, 195261, Note_on_c, 0, 74, 59
1, 195275, Control_c, 0, 64, 113
1, 195304, Control_c, 0, 64, 112
1, 195334, Control_c, 0, 64, 111
1, 195349, Control_c, 0, 64, 109
1, 195364, Control_c, 0, 64, 108
1, 195369, Note_off_c, 0, 63, 44
1, 195384, Note_off_c, 0, 69, 58
1, 195391, Note_on_c, 0, 67, 72
1, 195394, Control_c, 0, 64, 108
1, 195398, Note_on_c, 0, 60, 51
1, 195409, Control_c, 0, 64, 107
1, 195424, Control_c, 0, 64, 107
1, 195454, Control_c, 0, 64, 106
1, 195457, Note_off_c, 0, 60, 59
1, 195483, Control_c, 0, 64, 106
1, 195532, Note_off_c, 0, 74, 55
1, 195541, Note_on_c, 0, 57, 60
1, 195549, Note_on_c, 0, 66, 83
1, 195549, Note_off_c, 0, 67, 64
1, 195549, Note_on_c, 0, 75, 67
1, 195572, Control_c, 0, 64, 106
1, 195587, Control_c, 0, 64, 107
1, 195617, Control_c, 0, 64, 107
1, 195631, Control_c, 0, 64, 107
1, 195646, Control_c, 0, 64, 104
1, 195646, Control_c, 0, 67, 87
1, 195660, Note_off_c, 0, 57, 39
1, 195661, Control_c, 0, 64, 100
1, 195661, Control_c, 0, 67, 88
1, 195676, Control_c, 0, 64, 92
1, 195677, Note_off_c, 0, 66, 62
1, 195691, Control_c, 0, 64, 80
1, 195705, Control_c, 0, 64, 69
1, 195705, Control_c, 0, 67, 88
1, 195707, Note_on_c, 0, 65, 68
1, 195714, Note_off_c, 0, 75, 59
1, 195720, Control_c, 0, 64, 60
1, 195722, Note_on_c, 0, 69, 67
1, 195725, Note_on_c, 0, 43, 35
1, 195727, Note_on_c, 0, 50, 36
1, 195735, Control_c, 0, 64, 52
1, 195764, Control_c, 0, 64, 55
1, 195779, Control_c, 0, 64, 59
1, 195794, Control_c, 0, 64, 62
1, 195809, Control_c, 0, 64, 65
1, 195823, Control_c, 0, 64, 68
1, 195838, Control_c, 0, 64, 72
1, 195846, Note_off_c, 0, 50, 55
1, 195853, Control_c, 0, 64, 77
1, 195865, Note_off_c, 0, 43, 35
1, 195868, Control_c, 0, 64, 83
1, 195883, Control_c, 0, 64, 90
1, 195905, Control_c, 0, 64, 98
1, 195918, Note_on_c, 0, 57, 49
1, 195920, Control_c, 0, 64, 116
1, 195935, Control_c, 0, 64, 127
1, 195940, Note_on_c, 0, 71, 55
1, 195950, Control_c, 0, 67, 88
1, 196065, Note_off_c, 0, 57, 28
1, 196069, Note_off_c, 0, 71, 58
1, 196089, Note_on_c, 0, 72, 50
1, 196092, Note_on_c, 0, 60, 46
1, 196108, Note_off_c, 0, 69, 35
1, 196160, Note_off_c, 0, 60, 51
1, 196229, Note_off_c, 0, 72, 59
1, 196240, Note_on_c, 0, 57, 47
1, 196249, Note_on_c, 0, 74, 60
1, 196289, Note_off_c, 0, 65, 36
1, 196350, Note_off_c, 0, 57, 51
1, 196353, Note_off_c, 0, 74, 57
1, 196399, Note_on_c, 0, 53, 53
1, 196399, Note_on_c, 0, 76, 66
1, 196484, Control_c, 0, 67, 87
1, 196491, Note_off_c, 0, 53, 51
1, 196536, Note_on_c, 0, 77, 80
1, 196538, Note_on_c, 0, 50, 58
1, 196554, Note_off_c, 0, 76, 47
1, 196572, Control_c, 0, 67, 87
1, 196580, Note_off_c, 0, 50, 62
1, 196632, Control_c, 0, 64, 121
1, 196654, Control_c, 0, 64, 101
1, 196669, Control_c, 0, 64, 84
1, 196671, Note_off_c, 0, 77, 60
1, 196684, Control_c, 0, 64, 71
1, 196699, Control_c, 0, 64, 63
1, 196703, Note_on_c, 0, 67, 80
1, 196713, Control_c, 0, 64, 53
1, 196714, Note_on_c, 0, 43, 40
1, 196723, Note_on_c, 0, 49, 39
1, 196724, Note_on_c, 0, 79, 63
1, 196728, Control_c, 0, 64, 50
1, 196743, Control_c, 0, 64, 54
1, 196743, Control_c, 0, 67, 86
1, 196758, Control_c, 0, 64, 60
1, 196773, Control_c, 0, 64, 63
1, 196787, Control_c, 0, 64, 66
1, 196802, Control_c, 0, 64, 69
1, 196813, Note_off_c, 0, 43, 54
1, 196817, Control_c, 0, 64, 75
1, 196832, Control_c, 0, 64, 82
1, 196847, Control_c, 0, 64, 94
1, 196849, Note_off_c, 0, 49, 38
1, 196861, Control_c, 0, 64, 121
1, 196869, Note_on_c, 0, 52, 48
1, 196876, Control_c, 0, 64, 127
1, 196878, Note_off_c, 0, 79, 58
1, 196894, Note_on_c, 0, 78, 57
1, 196927, Note_off_c, 0, 52, 57
1, 196981, Control_c, 0, 67, 87
1, 196995, Note_off_c, 0, 78, 57
1, 197028, Note_on_c, 0, 61, 52
1, 197057, Note_on_c, 0, 77, 60
1, 197129, Note_off_c, 0, 61, 58
1, 197158, Note_off_c, 0, 67, 53
1, 197192, Note_on_c, 0, 58, 52
1, 197208, Note_off_c, 0, 77, 51
1, 197215, Note_on_c, 0, 76, 63
1, 197227, Note_off_c, 0, 58, 64
1, 197345, Note_off_c, 0, 76, 60
1, 197346, Note_on_c, 0, 66, 76
1, 197358, Note_on_c, 0, 75, 63
1, 197362, Note_on_c, 0, 52, 59
1, 197458, Note_off_c, 0, 75, 58
1, 197476, Note_off_c, 0, 52, 57
1, 197510, Note_on_c, 0, 49, 56
1, 197519, Note_on_c, 0, 74, 69
1, 197546, Note_off_c, 0, 66, 60
1, 197551, Control_c, 0, 67, 86
1, 197614, Note_off_c, 0, 49, 54
1, 197640, Control_c, 0, 64, 106
1, 197655, Control_c, 0, 64, 87
1, 197667, Note_on_c, 0, 44, 44
1, 197670, Control_c, 0, 64, 73
1, 197676, Note_on_c, 0, 63, 74
1, 197677, Note_off_c, 0, 74, 60
1, 197683, Note_on_c, 0, 73, 65
1, 197684, Control_c, 0, 64, 63
1, 197687, Note_on_c, 0, 48, 41
1, 197699, Control_c, 0, 64, 54
1, 197699, Control_c, 0, 67, 85
1, 197714, Control_c, 0, 64, 50
1, 197728, Control_c, 0, 64, 53
1, 197743, Control_c, 0, 64, 58
1, 197760, Control_c, 0, 64, 61
1, 197774, Control_c, 0, 64, 64
1, 197789, Control_c, 0, 64, 67
1, 197804, Control_c, 0, 64, 71
1, 197806, Note_off_c, 0, 73, 58
1, 197819, Control_c, 0, 64, 76
1, 197833, Control_c, 0, 64, 83
1, 197848, Control_c, 0, 64, 92
1, 197850, Note_on_c, 0, 72, 51
1, 197852, Note_on_c, 0, 51, 53
1, 197856, Note_off_c, 0, 48, 38
1, 197863, Control_c, 0, 64, 110
1, 197878, Control_c, 0, 64, 127
1, 197895, Note_off_c, 0, 44, 37
1, 197969, Note_off_c, 0, 51, 61
1, 198019, Note_on_c, 0, 56, 49
1, 198019, Note_off_c, 0, 72, 49
1, 198023, Note_on_c, 0, 74, 53
1, 198095, Note_off_c, 0, 56, 62
1, 198137, Note_off_c, 0, 63, 58
1, 198174, Note_off_c, 0, 74, 55
1, 198184, Note_on_c, 0, 58, 50
1, 198189, Note_on_c, 0, 75, 55
1, 198270, Control_c, 0, 67, 86
1, 198280, Note_off_c, 0, 75, 61
1, 198323, Note_off_c, 0, 58, 53
1, 198325, Note_on_c, 0, 65, 70
1, 198327, Note_on_c, 0, 74, 55
1, 198350, Note_on_c, 0, 59, 54
1, 198469, Note_off_c, 0, 59, 62
1, 198492, Control_c, 0, 67, 85
1, 198500, Note_on_c, 0, 51, 66
1, 198502, Note_on_c, 0, 72, 74
1, 198505, Note_off_c, 0, 65, 53
1, 198534, Note_off_c, 0, 51, 65
1, 198545, Note_off_c, 0, 74, 63
1, 198553, Control_c, 0, 67, 85
1, 198611, Control_c, 0, 64, 93
1, 198626, Control_c, 0, 64, 75
1, 198626, Control_c, 0, 67, 85
1, 198641, Control_c, 0, 64, 61
1, 198655, Control_c, 0, 64, 18
1, 198658, Note_on_c, 0, 62, 75
1, 198670, Control_c, 0, 64, 0
1, 198670, Control_c, 0, 67, 86
1, 198674, Note_on_c, 0, 46, 47
1, 198678, Note_on_c, 0, 70, 64
1, 198679, Note_off_c, 0, 72, 58
1, 198679, Note_on_c, 0, 39, 40
1, 198700, Control_c, 0, 67, 87
1, 198715, Control_c, 0, 67, 87
1, 198772, Note_off_c, 0, 46, 49
1, 198774, Control_c, 0, 67, 86
1, 198775, Note_off_c, 0, 39, 60
1, 198789, Control_c, 0, 67, 85
1, 198804, Control_c, 0, 64, 46
1, 198804, Control_c, 0, 67, 85
1, 198819, Control_c, 0, 64, 62
1, 198834, Control_c, 0, 64, 67
1, 198834, Control_c, 0, 67, 84
1, 198837, Note_off_c, 0, 70, 59
1, 198848, Control_c, 0, 64, 73
1, 198848, Control_c, 0, 67, 83
1, 198851, Note_on_c, 0, 74, 53
1, 198853, Note_on_c, 0, 51, 51
1, 198863, Control_c, 0, 64, 83
1, 198863, Control_c, 0, 67, 83
1, 198878, Control_c, 0, 64, 105
1, 198900, Control_c, 0, 64, 127
1, 198908, Note_off_c, 0, 51, 59
1, 198969, Note_on_c, 0, 55, 50
1, 198988, Note_off_c, 0, 74, 56
1, 199012, Note_on_c, 0, 72, 52
1, 199104, Note_off_c, 0, 55, 38
1, 199131, Note_on_c, 0, 58, 51
1, 199140, Note_on_c, 0, 70, 65
1, 199145, Note_off_c, 0, 72, 50
1, 199163, Note_off_c, 0, 62, 59
1, 199175, Note_off_c, 0, 58, 61
1, 199215, Note_off_c, 0, 70, 62
1, 199273, Note_on_c, 0, 55, 54
1, 199289, Note_on_c, 0, 61, 81
1, 199297, Note_on_c, 0, 69, 72
1, 199390, Note_off_c, 0, 55, 54
1, 199433, Note_on_c, 0, 51, 64
1, 199445, Note_on_c, 0, 67, 78
1, 199458, Note_off_c, 0, 69, 54
1, 199464, Note_off_c, 0, 51, 65
1, 199487, Note_off_c, 0, 61, 60
1, 199523, Control_c, 0, 67, 83
1, 199538, Control_c, 0, 67, 84
1, 199567, Control_c, 0, 67, 85
1, 199582, Control_c, 0, 64, 101
1, 199597, Control_c, 0, 64, 78
1, 199603, Note_on_c, 0, 60, 82
1, 199612, Control_c, 0, 64, 64
1, 199612, Note_on_c, 0, 39, 43
1, 199617, Note_on_c, 0, 69, 63
1, 199622, Note_on_c, 0, 45, 54
1, 199627, Control_c, 0, 64, 43
1, 199649, Control_c, 0, 64, 28
1, 199651, Note_off_c, 0, 67, 33
1, 199664, Control_c, 0, 64, 40
1, 199678, Control_c, 0, 64, 49
1, 199693, Control_c, 0, 64, 54
1, 199708, Control_c, 0, 64, 59
1, 199708, Control_c, 0, 67, 85
1, 199723, Control_c, 0, 64, 62
1, 199738, Control_c, 0, 64, 68
1, 199747, Note_off_c, 0, 45, 60
1, 199752, Control_c, 0, 64, 78
1, 199752, Control_c, 0, 67, 85
1, 199764, Note_off_c, 0, 69, 62
1, 199767, Control_c, 0, 64, 99
1, 199779, Note_on_c, 0, 72, 64
1, 199779, Note_on_c, 0, 48, 51
1, 199782, Control_c, 0, 64, 127
1, 199782, Control_c, 0, 67, 84
1, 199832, Note_off_c, 0, 39, 36
1, 199866, Note_off_c, 0, 48, 61
1, 199915, Note_off_c, 0, 72, 52
1, 199925, Note_on_c, 0, 70, 57
1, 199930, Note_on_c, 0, 53, 49
1, 200001, Note_off_c, 0, 70, 61
1, 200020, Note_off_c, 0, 53, 50
1, 200078, Note_on_c, 0, 69, 62
1, 200083, Note_off_c, 0, 60, 27
1, 200091, Note_on_c, 0, 57, 52
1, 200128, Note_off_c, 0, 69, 56
1, 200142, Note_off_c, 0, 57, 58
1, 200232, Note_on_c, 0, 53, 54
1, 200237, Note_on_c, 0, 59, 75
1, 200247, Note_on_c, 0, 67, 70
1, 200303, Note_off_c, 0, 53, 48
1, 200381, Note_on_c, 0, 48, 59
1, 200390, Note_off_c, 0, 67, 61
1, 200409, Note_on_c, 0, 65, 72
1, 200417, Note_off_c, 0, 59, 61
1, 200457, Control_c, 0, 67, 85
1, 200488, Note_off_c, 0, 48, 59
1, 200531, Control_c, 0, 64, 101
1, 200545, Control_c, 0, 64, 84
1, 200545, Control_c, 0, 67, 85
1, 200554, Note_on_c, 0, 43, 50
1, 200559, Note_on_c, 0, 39, 41
1, 200560, Control_c, 0, 64, 72
1, 200562, Note_on_c, 0, 58, 73
1, 200575, Note_off_c, 0, 65, 54
1, 200575, Control_c, 0, 64, 61
1, 200577, Note_on_c, 0, 67, 64
1, 200590, Control_c, 0, 64, 50
1, 200620, Control_c, 0, 64, 55
1, 200634, Control_c, 0, 64, 59
1, 200649, Control_c, 0, 64, 61
1, 200649, Control_c, 0, 67, 86
1, 200664, Control_c, 0, 64, 63
1, 200679, Control_c, 0, 64, 65
1, 200694, Control_c, 0, 64, 67
1, 200709, Control_c, 0, 64, 70
1, 200718, Note_off_c, 0, 43, 58
1, 200723, Note_on_c, 0, 70, 60
1, 200724, Control_c, 0, 64, 75
1, 200738, Note_on_c, 0, 46, 50
1, 200739, Control_c, 0, 64, 84
1, 200753, Control_c, 0, 64, 98
1, 200763, Note_off_c, 0, 39, 42
1, 200768, Control_c, 0, 64, 118
1, 200783, Control_c, 0, 64, 127
1, 200798, Control_c, 0, 67, 87
1, 200812, Note_off_c, 0, 70, 57
1, 200825, Note_off_c, 0, 46, 61
1, 200846, Note_off_c, 0, 67, 20
1, 200866, Note_off_c, 0, 58, 57
1, 200874, Note_on_c, 0, 51, 51
1, 200894, Note_on_c, 0, 69, 63
1, 200913, Note_off_c, 0, 51, 63
1, 201039, Note_on_c, 0, 67, 60
1, 201060, Note_on_c, 0, 55, 40
1, 201096, Note_off_c, 0, 55, 53
1, 201103, Note_off_c, 0, 69, 24
1, 201161, Control_c, 0, 64, 121
1, 201175, Control_c, 0, 64, 118
1, 201190, Control_c, 0, 64, 117
1, 201205, Control_c, 0, 64, 116
1, 201209, Note_on_c, 0, 65, 59
1, 201216, Note_on_c, 0, 57, 61
1, 201219, Note_on_c, 0, 51, 49
1, 201220, Control_c, 0, 64, 115
1, 201249, Control_c, 0, 64, 114
1, 201263, Note_off_c, 0, 67, 37
1, 201264, Control_c, 0, 64, 113
1, 201294, Control_c, 0, 64, 113
1, 201329, Note_off_c, 0, 65, 57
1, 201338, Control_c, 0, 64, 113
1, 201359, Note_off_c, 0, 51, 34
1, 201364, Note_on_c, 0, 63, 62
1, 201368, Control_c, 0, 64, 114
1, 201369, Note_off_c, 0, 57, 48
1, 201383, Control_c, 0, 64, 115
1, 201394, Note_on_c, 0, 46, 47
1, 201397, Control_c, 0, 64, 117
1, 201412, Control_c, 0, 64, 118
1, 201427, Control_c, 0, 64, 119
1, 201457, Control_c, 0, 64, 118
1, 201472, Control_c, 0, 64, 113
1, 201487, Control_c, 0, 64, 105
1, 201501, Note_off_c, 0, 46, 52
1, 201502, Control_c, 0, 64, 90
1, 201516, Control_c, 0, 64, 77
1, 201531, Control_c, 0, 64, 69
1, 201534, Note_off_c, 0, 63, 61
1, 201538, Note_on_c, 0, 56, 69
1, 201546, Control_c, 0, 64, 62
1, 201551, Note_on_c, 0, 65, 58
1, 201556, Note_on_c, 0, 47, 57
1, 201561, Control_c, 0, 64, 56
1, 201575, Control_c, 0, 64, 57
1, 201590, Control_c, 0, 64, 60
1, 201605, Control_c, 0, 64, 61
1, 201620, Control_c, 0, 64, 63
1, 201635, Control_c, 0, 64, 64
1, 201649, Control_c, 0, 64, 65
1, 201664, Control_c, 0, 64, 67
1, 201679, Control_c, 0, 64, 70
1, 201694, Note_off_c, 0, 47, 37
1, 201694, Control_c, 0, 64, 73
1, 201708, Note_on_c, 0, 35, 52
1, 201709, Control_c, 0, 64, 77
1, 201713, Note_off_c, 0, 65, 56
1, 201723, Note_on_c, 0, 68, 52
1, 201723, Control_c, 0, 64, 83
1, 201739, Control_c, 0, 64, 96
1, 201754, Control_c, 0, 64, 127
1, 201779, Note_off_c, 0, 68, 52
1, 201780, Note_off_c, 0, 35, 55
1, 201828, Control_c, 0, 64, 112
1, 201843, Control_c, 0, 64, 89
1, 201858, Control_c, 0, 64, 75
1, 201872, Control_c, 0, 64, 66
1, 201878, Note_on_c, 0, 67, 54
1, 201895, Control_c, 0, 64, 63
1, 201895, Note_on_c, 0, 46, 50
1, 201910, Control_c, 0, 64, 65
1, 201925, Control_c, 0, 64, 66
1, 201940, Control_c, 0, 64, 68
1, 201954, Control_c, 0, 64, 70
1, 201969, Control_c, 0, 64, 74
1, 201984, Control_c, 0, 64, 77
1, 201998, Control_c, 0, 64, 82
1, 202013, Control_c, 0, 64, 87
1, 202028, Control_c, 0, 64, 93
1, 202043, Control_c, 0, 64, 104
1, 202057, Note_off_c, 0, 67, 54
1, 202058, Control_c, 0, 64, 127
1, 202066, Note_on_c, 0, 34, 40
1, 202077, Note_off_c, 0, 46, 36
1, 202086, Note_on_c, 0, 65, 50
1, 202107, Note_off_c, 0, 34, 54
1, 202235, Control_c, 0, 64, 93
1, 202250, Control_c, 0, 64, 78
1, 202261, Note_on_c, 0, 55, 66
1, 202265, Control_c, 0, 64, 69
1, 202280, Control_c, 0, 64, 63
1, 202295, Control_c, 0, 64, 60
1, 202298, Note_on_c, 0, 63, 43
1, 202310, Control_c, 0, 64, 60
1, 202315, Note_off_c, 0, 56, 38
1, 202325, Control_c, 0, 64, 62
1, 202339, Control_c, 0, 64, 64
1, 202339, Control_c, 0, 67, 87
1, 202352, Note_off_c, 0, 65, 32
1, 202354, Control_c, 0, 64, 66
1, 202369, Control_c, 0, 64, 68
1, 202384, Control_c, 0, 64, 70
1, 202398, Control_c, 0, 64, 73
1, 202413, Control_c, 0, 64, 77
1, 202428, Control_c, 0, 64, 82
1, 202443, Control_c, 0, 64, 87
1, 202457, Note_off_c, 0, 55, 56
1, 202458, Control_c, 0, 64, 95
1, 202472, Control_c, 0, 64, 110
1, 202487, Control_c, 0, 64, 127
1, 202517, Note_on_c, 0, 54, 46
1, 202559, Note_on_c, 0, 62, 37
1, 202560, Note_off_c, 0, 54, 64
1, 202660, Note_off_c, 0, 63, 20
1, 202667, Note_off_c, 0, 62, 51
1, 202836, Control_c, 0, 64, 119
1, 202836, Control_c, 0, 67, 88
1, 202847, Note_on_c, 0, 33, 58
1, 202851, Control_c, 0, 64, 92
1, 202866, Control_c, 0, 64, 77
1, 202881, Control_c, 0, 64, 68
1, 202895, Control_c, 0, 64, 61
1, 202910, Control_c, 0, 64, 60
1, 202925, Control_c, 0, 64, 62
1, 202940, Control_c, 0, 64, 64
1, 202955, Control_c, 0, 64, 66
1, 202969, Control_c, 0, 64, 68
1, 202984, Control_c, 0, 64, 71
1, 202999, Control_c, 0, 64, 75
1, 203013, Control_c, 0, 64, 79
1, 203013, Control_c, 0, 67, 87
1, 203028, Control_c, 0, 64, 84
1, 203028, Control_c, 0, 67, 87
1, 203043, Control_c, 0, 64, 90
1, 203058, Control_c, 0, 64, 97
1, 203073, Control_c, 0, 64, 107
1, 203089, Control_c, 0, 64, 127
1, 203103, Control_c, 0, 67, 86
1, 203147, Control_c, 0, 67, 85
1, 203216, Note_off_c, 0, 33, 35
1, 203266, Control_c, 0, 67, 85
1, 203287, Note_on_c, 0, 75, 78
1, 203288, Note_on_c, 0, 63, 78
1, 203296, Note_on_c, 0, 43, 41
1, 203391, Note_off_c, 0, 75, 61
1, 203522, Note_off_c, 0, 43, 38
1, 203556, Control_c, 0, 67, 85
1, 203573, Note_on_c, 0, 46, 34
1, 203618, Note_on_c, 0, 74, 40
1, 203621, Note_off_c, 0, 46, 50
1, 203734, Note_off_c, 0, 63, 56
1, 203816, Note_on_c, 0, 51, 41
1, 203818, Note_on_c, 0, 72, 48
1, 203882, Control_c, 0, 67, 86
1, 203937, Note_off_c, 0, 74, 16
1, 203967, Note_on_c, 0, 62, 75
1, 203967, Note_off_c, 0, 51, 39
1, 203970, Control_c, 0, 64, 123
1, 203978, Note_on_c, 0, 55, 47
1, 203985, Note_on_c, 0, 71, 62
1, 203985, Control_c, 0, 64, 117
1, 204000, Control_c, 0, 64, 113
1, 204015, Control_c, 0, 64, 113
1, 204044, Control_c, 0, 64, 112
1, 204059, Control_c, 0, 64, 111
1, 204104, Control_c, 0, 64, 112
1, 204113, Note_off_c, 0, 55, 51
1, 204119, Control_c, 0, 64, 115
1, 204122, Note_on_c, 0, 70, 70
1, 204140, Note_on_c, 0, 58, 61
1, 204142, Control_c, 0, 64, 119
1, 204143, Note_off_c, 0, 72, 30
1, 204144, Note_off_c, 0, 71, 59
1, 204157, Control_c, 0, 64, 127
1, 204157, Control_c, 0, 67, 87
1, 204178, Note_off_c, 0, 62, 45
1, 204188, Note_off_c, 0, 70, 62
1, 204201, Control_c, 0, 67, 87
1, 204238, Note_off_c, 0, 58, 56
1, 204261, Control_c, 0, 64, 110
1, 204275, Control_c, 0, 64, 87
1, 204290, Control_c, 0, 64, 71
1, 204298, Note_on_c, 0, 59, 73
1, 204303, Note_on_c, 0, 69, 69
1, 204305, Control_c, 0, 64, 63
1, 204308, Note_on_c, 0, 51, 49
1, 204320, Control_c, 0, 64, 59
1, 204335, Control_c, 0, 64, 61
1, 204349, Control_c, 0, 64, 63
1, 204364, Control_c, 0, 64, 65
1, 204379, Control_c, 0, 64, 67
1, 204393, Control_c, 0, 64, 71
1, 204408, Control_c, 0, 64, 75
1, 204423, Control_c, 0, 64, 79
1, 204438, Control_c, 0, 64, 83
1, 204445, Note_off_c, 0, 69, 59
1, 204453, Control_c, 0, 64, 87
1, 204466, Note_off_c, 0, 51, 32
1, 204468, Note_on_c, 0, 68, 58
1, 204468, Control_c, 0, 64, 92
1, 204480, Note_on_c, 0, 56, 51
1, 204483, Control_c, 0, 64, 99
1, 204498, Control_c, 0, 64, 106
1, 204512, Control_c, 0, 64, 112
1, 204527, Control_c, 0, 64, 117
1, 204542, Control_c, 0, 64, 121
1, 204542, Control_c, 0, 67, 88
1, 204564, Note_off_c, 0, 59, 32
1, 204611, Note_off_c, 0, 56, 55
1, 204637, Note_on_c, 0, 70, 56
1, 204650, Note_on_c, 0, 55, 46
1, 204665, Note_off_c, 0, 68, 35
1, 204763, Note_off_c, 0, 55, 54
1, 204799, Note_off_c, 0, 70, 58
1, 204803, Note_on_c, 0, 54, 44
1, 204814, Note_on_c, 0, 71, 61
1, 204853, Control_c, 0, 64, 117
1, 204867, Control_c, 0, 64, 113
1, 204890, Control_c, 0, 64, 107
1, 204905, Control_c, 0, 64, 97
1, 204919, Control_c, 0, 64, 86
1, 204933, Note_off_c, 0, 54, 52
1, 204934, Control_c, 0, 64, 75
1, 204951, Control_c, 0, 64, 67
1, 204954, Note_off_c, 0, 71, 60
1, 204966, Control_c, 0, 64, 63
1, 204969, Note_on_c, 0, 61, 61
1, 204977, Note_on_c, 0, 53, 46
1, 204977, Note_on_c, 0, 70, 54
1, 204995, Control_c, 0, 64, 65
1, 204995, Control_c, 0, 67, 87
1, 205010, Control_c, 0, 64, 66
1, 205024, Control_c, 0, 64, 69
1, 205039, Control_c, 0, 64, 72
1, 205054, Control_c, 0, 64, 76
1, 205069, Control_c, 0, 64, 81
1, 205084, Control_c, 0, 64, 87
1, 205098, Control_c, 0, 64, 93
1, 205113, Control_c, 0, 64, 98
1, 205128, Control_c, 0, 64, 105
1, 205140, Note_off_c, 0, 53, 36
1, 205143, Control_c, 0, 64, 127
1, 205147, Note_on_c, 0, 52, 47
1, 205159, Note_on_c, 0, 68, 53
1, 205161, Note_off_c, 0, 70, 52
1, 205167, Note_off_c, 0, 61, 48
1, 205174, Note_off_c, 0, 52, 56
1, 205299, Note_off_c, 0, 68, 35
1, 205305, Control_c, 0, 64, 96
1, 205320, Control_c, 0, 64, 78
1, 205335, Note_on_c, 0, 58, 64
1, 205335, Control_c, 0, 64, 69
1, 205336, Note_on_c, 0, 33, 43
1, 205347, Note_on_c, 0, 67, 48
1, 205350, Control_c, 0, 64, 65
1, 205364, Control_c, 0, 64, 64
1, 205379, Control_c, 0, 64, 66
1, 205394, Control_c, 0, 64, 68
1, 205408, Control_c, 0, 64, 72
1, 205423, Control_c, 0, 64, 75
1, 205438, Control_c, 0, 64, 79
1, 205453, Control_c, 0, 64, 84
1, 205468, Control_c, 0, 64, 88
1, 205482, Control_c, 0, 64, 94
1, 205497, Control_c, 0, 64, 102
1, 205498, Note_off_c, 0, 67, 33
1, 205512, Control_c, 0, 64, 116
1, 205527, Control_c, 0, 64, 127
1, 205539, Note_on_c, 0, 44, 39
1, 205543, Note_on_c, 0, 64, 51
1, 205543, Note_off_c, 0, 58, 54
1, 205546, Note_off_c, 0, 33, 39
1, 205595, Note_off_c, 0, 44, 52
1, 205697, Control_c, 0, 64, 104
1, 205705, Note_off_c, 0, 64, 51
1, 205712, Control_c, 0, 64, 88
1, 205721, Note_on_c, 0, 57, 52
1, 205727, Control_c, 0, 64, 77
1, 205730, Note_on_c, 0, 65, 54
1, 205732, Note_on_c, 0, 45, 40
1, 205743, Control_c, 0, 64, 70
1, 205758, Control_c, 0, 64, 66
1, 205773, Control_c, 0, 64, 66
1, 205773, Control_c, 0, 67, 87
1, 205787, Control_c, 0, 64, 67
1, 205802, Control_c, 0, 64, 68
1, 205817, Control_c, 0, 64, 70
1, 205832, Control_c, 0, 64, 72
1, 205846, Control_c, 0, 64, 76
1, 205861, Control_c, 0, 64, 80
1, 205876, Control_c, 0, 64, 86
1, 205891, Control_c, 0, 64, 92
1, 205906, Control_c, 0, 64, 99
1, 205920, Control_c, 0, 64, 108
1, 205931, Note_off_c, 0, 45, 37
1, 205932, Note_off_c, 0, 65, 37
1, 205935, Control_c, 0, 64, 123
1, 205938, Note_on_c, 0, 62, 51
1, 205941, Note_on_c, 0, 46, 37
1, 205950, Control_c, 0, 64, 127
1, 205953, Note_off_c, 0, 57, 45
1, 205994, Control_c, 0, 67, 86
1, 206098, Control_c, 0, 64, 103
1, 206113, Control_c, 0, 64, 88
1, 206119, Note_off_c, 0, 62, 62
1, 206128, Control_c, 0, 64, 78
1, 206143, Control_c, 0, 64, 70
1, 206153, Note_off_c, 0, 46, 33
1, 206156, Note_on_c, 0, 64, 48
1, 206157, Control_c, 0, 64, 63
1, 206167, Note_on_c, 0, 47, 34
1, 206172, Note_on_c, 0, 55, 31
1, 206172, Control_c, 0, 64, 57
1, 206187, Control_c, 0, 64, 54
1, 206202, Control_c, 0, 64, 55
1, 206217, Control_c, 0, 64, 57
1, 206231, Control_c, 0, 64, 59
1, 206246, Control_c, 0, 64, 62
1, 206261, Control_c, 0, 64, 64
1, 206261, Control_c, 0, 67, 85
1, 206276, Control_c, 0, 64, 66
1, 206276, Control_c, 0, 67, 85
1, 206291, Control_c, 0, 64, 68
1, 206305, Control_c, 0, 64, 71
1, 206305, Control_c, 0, 67, 84
1, 206320, Control_c, 0, 64, 75
1, 206335, Control_c, 0, 64, 80
1, 206350, Control_c, 0, 64, 86
1, 206350, Control_c, 0, 67, 83
1, 206364, Control_c, 0, 64, 93
1, 206364, Control_c, 0, 67, 83
1, 206387, Control_c, 0, 64, 104
1, 206387, Control_c, 0, 67, 82
1, 206393, Note_off_c, 0, 47, 41
1, 206402, Control_c, 0, 64, 127
1, 206402, Control_c, 0, 67, 82
1, 206423, Note_off_c, 0, 55, 42
1, 206435, Note_on_c, 0, 57, 41
1, 206441, Note_on_c, 0, 48, 34
1, 206446, Control_c, 0, 67, 81
1, 206474, Note_off_c, 0, 48, 55
1, 206729, Control_c, 0, 67, 82
1, 206743, Control_c, 0, 64, 111
1, 206751, Note_off_c, 0, 57, 59
1, 206754, Note_off_c, 0, 64, 40
1, 206758, Control_c, 0, 64, 89
1, 206773, Control_c, 0, 64, 73
1, 206774, Note_on_c, 0, 38, 37
1, 206786, Note_on_c, 0, 49, 35
1, 206787, Control_c, 0, 64, 60
1, 206802, Control_c, 0, 64, 0
1, 206862, Control_c, 0, 67, 82
1, 207061, Note_off_c, 0, 38, 41
1, 207063, Note_off_c, 0, 49, 43
1, 207102, Note_on_c, 0, 62, 41
1, 207109, Note_on_c, 0, 57, 31
1, 207112, Note_on_c, 0, 53, 36
1, 207359, Control_c, 0, 67, 83
1, 207759, Note_off_c, 0, 57, 58
1, 207765, Note_off_c, 0, 62, 62
1, 207768, Note_off_c, 0, 53, 55
1, 207800, Note_on_c, 0, 48, 43
1, 207803, Note_on_c, 0, 38, 35
1, 207930, Control_c, 0, 67, 83
1, 208004, Control_c, 0, 67, 84
1, 208093, Control_c, 0, 67, 83
1, 208138, Control_c, 0, 67, 83
1, 208168, Control_c, 0, 67, 82
1, 208361, Control_c, 0, 67, 82
1, 208376, Control_c, 0, 67, 80
1, 208379, Note_off_c, 0, 48, 63
1, 208390, Control_c, 0, 67, 79
1, 208392, Note_off_c, 0, 38, 52
1, 208402, Note_on_c, 0, 62, 58
1, 208405, Control_c, 0, 67, 77
1, 208411, Note_on_c, 0, 57, 40
1, 208414, Note_on_c, 0, 53, 46
1, 208420, Control_c, 0, 67, 73
1, 208434, Control_c, 0, 67, 58
1, 208449, Control_c, 0, 67, 40
1, 208464, Control_c, 0, 67, 21
1, 208479, Control_c, 0, 67, 0
1, 208711, Note_off_c, 0, 57, 62
1, 208716, Note_off_c, 0, 62, 62
1, 208717, Note_off_c, 0, 53, 60
1, 208719, Note_on_c, 0, 46, 71
1, 208724, Note_on_c, 0, 38, 55
1, 209005, Note_on_c, 0, 62, 75
1, 209009, Note_on_c, 0, 53, 75
1, 209011, Note_on_c, 0, 57, 76
1, 209021, Control_c, 0, 64, 42
1, 209036, Control_c, 0, 64, 66
1, 209038, Note_off_c, 0, 53, 69
1, 209046, Note_off_c, 0, 57, 65
1, 209051, Control_c, 0, 64, 87
1, 209064, Note_off_c, 0, 38, 60
1, 209065, Note_off_c, 0, 62, 65
1, 209065, Control_c, 0, 64, 127
1, 209130, Note_off_c, 0, 46, 55
1, 209270, Note_on_c, 0, 74, 88
1, 209315, Note_off_c, 0, 74, 65
1, 209330, Control_c, 0, 64, 94
1, 209335, Note_on_c, 0, 62, 82
1, 209345, Control_c, 0, 64, 66
1, 209360, Control_c, 0, 64, 0
1, 209381, Note_off_c, 0, 62, 61
1, 209414, Note_on_c, 0, 61, 85
1, 209476, Note_off_c, 0, 61, 61
1, 209479, Note_on_c, 0, 62, 72
1, 209525, Note_on_c, 0, 59, 85
1, 209529, Note_on_c, 0, 47, 94
1, 209530, Note_on_c, 0, 63, 88
1, 209532, Note_on_c, 0, 35, 75
1, 209540, Note_on_c, 0, 54, 89
1, 209549, Note_off_c, 0, 62, 61
1, 209557, Note_off_c, 0, 35, 64
1, 209560, Control_c, 0, 64, 55
1, 209562, Note_off_c, 0, 54, 73
1, 209574, Note_off_c, 0, 59, 66
1, 209575, Note_off_c, 0, 47, 67
1, 209575, Control_c, 0, 64, 78
1, 209587, Note_off_c, 0, 63, 65
1, 209590, Control_c, 0, 64, 127
1, 209818, Note_on_c, 0, 87, 85
1, 209824, Note_on_c, 0, 54, 78
1, 209825, Note_on_c, 0, 63, 96
1, 209828, Note_on_c, 0, 59, 87
1, 209858, Note_off_c, 0, 87, 67
1, 209880, Note_on_c, 0, 75, 87
1, 209901, Note_off_c, 0, 75, 70
1, 209965, Note_on_c, 0, 68, 88
1, 210021, Note_on_c, 0, 69, 63
1, 210025, Note_off_c, 0, 68, 65
1, 210093, Note_on_c, 0, 70, 98
1, 210105, Note_off_c, 0, 69, 57
1, 210151, Note_off_c, 0, 70, 66
1, 210409, Note_on_c, 0, 52, 98
1, 210427, Control_c, 0, 64, 92
1, 210442, Control_c, 0, 64, 66
1, 210457, Control_c, 0, 64, 43
1, 210472, Control_c, 0, 64, 0
1, 210486, Control_c, 0, 64, 16
1, 210501, Control_c, 0, 64, 28
1, 210516, Control_c, 0, 64, 38
1, 210532, Control_c, 0, 64, 47
1, 210537, Note_off_c, 0, 54, 64
1, 210547, Control_c, 0, 64, 52
1, 210555, Note_off_c, 0, 63, 50
1, 210562, Control_c, 0, 64, 56
1, 210567, Note_off_c, 0, 59, 31
1, 210578, Control_c, 0, 64, 59
1, 210592, Control_c, 0, 64, 62
1, 210607, Control_c, 0, 64, 64
1, 210622, Control_c, 0, 64, 66
1, 210637, Control_c, 0, 64, 69
1, 210652, Control_c, 0, 64, 73
1, 210666, Control_c, 0, 64, 81
1, 210681, Control_c, 0, 64, 93
1, 210696, Note_on_c, 0, 55, 63
1, 210696, Control_c, 0, 64, 112
1, 210699, Note_on_c, 0, 62, 70
1, 210705, Note_on_c, 0, 59, 69
1, 210710, Control_c, 0, 64, 127
1, 210734, Note_off_c, 0, 52, 51
1, 210766, Note_off_c, 0, 55, 62
1, 210955, Control_c, 0, 64, 92
1, 210970, Control_c, 0, 64, 77
1, 210972, Note_off_c, 0, 62, 53
1, 210984, Control_c, 0, 64, 66
1, 210999, Control_c, 0, 64, 53
1, 211014, Control_c, 0, 64, 36
1, 211025, Note_on_c, 0, 64, 58
1, 211029, Note_on_c, 0, 61, 49
1, 211029, Control_c, 0, 64, 32
1, 211035, Note_on_c, 0, 56, 38
1, 211044, Control_c, 0, 64, 34
1, 211059, Control_c, 0, 64, 39
1, 211073, Control_c, 0, 64, 46
1, 211088, Control_c, 0, 64, 51
1, 211103, Control_c, 0, 64, 55
1, 211118, Control_c, 0, 64, 58
1, 211133, Control_c, 0, 64, 60
1, 211148, Control_c, 0, 64, 62
1, 211163, Control_c, 0, 64, 63
1, 211177, Control_c, 0, 64, 65
1, 211192, Control_c, 0, 64, 67
1, 211201, Note_off_c, 0, 61, 37
1, 211207, Control_c, 0, 64, 71
1, 211218, Note_off_c, 0, 56, 42
1, 211222, Control_c, 0, 64, 76
1, 211236, Control_c, 0, 64, 83
1, 211249, Note_off_c, 0, 64, 30
1, 211251, Control_c, 0, 64, 88
1, 211266, Control_c, 0, 64, 89
1, 211281, Control_c, 0, 64, 88
1, 211291, Note_off_c, 0, 59, 27
1, 211296, Control_c, 0, 64, 87
1, 211310, Control_c, 0, 64, 86
1, 211325, Control_c, 0, 64, 85
1, 211327, Note_on_c, 0, 50, 40
1, 211340, Control_c, 0, 64, 83
1, 211355, Control_c, 0, 64, 79
1, 211370, Control_c, 0, 64, 74
1, 211385, Control_c, 0, 64, 69
1, 211399, Control_c, 0, 64, 65
1, 211414, Control_c, 0, 64, 63
1, 211429, Control_c, 0, 64, 59
1, 211444, Control_c, 0, 64, 52
1, 211458, Control_c, 0, 64, 39
1, 211473, Control_c, 0, 64, 24
1, 211488, Control_c, 0, 64, 0
1, 211644, Note_on_c, 0, 53, 33
1, 211647, Note_on_c, 0, 62, 40
1, 211650, Note_on_c, 0, 57, 36
1, 211688, Control_c, 0, 64, 17
1, 211703, Control_c, 0, 64, 30
1, 211718, Control_c, 0, 64, 39
1, 211732, Control_c, 0, 64, 46
1, 211747, Control_c, 0, 64, 52
1, 211762, Control_c, 0, 64, 56
1, 211777, Control_c, 0, 64, 58
1, 211792, Control_c, 0, 64, 60
1, 211807, Control_c, 0, 64, 62
1, 211822, Note_off_c, 0, 62, 38
1, 211822, Control_c, 0, 64, 65
1, 211837, Control_c, 0, 64, 71
1, 211851, Control_c, 0, 64, 78
1, 211858, Note_off_c, 0, 57, 34
1, 211866, Control_c, 0, 64, 88
1, 211881, Control_c, 0, 64, 99
1, 211896, Control_c, 0, 64, 115
1, 211898, Note_off_c, 0, 53, 39
1, 211911, Control_c, 0, 64, 127
1, 212355, Control_c, 0, 64, 119
1, 212370, Control_c, 0, 64, 101
1, 212380, Note_on_c, 0, 38, 46
1, 212382, Note_on_c, 0, 49, 51
1, 212393, Control_c, 0, 64, 87
1, 212408, Note_off_c, 0, 50, 40
1, 212408, Control_c, 0, 64, 74
1, 212423, Control_c, 0, 64, 64
1, 212437, Control_c, 0, 64, 49
1, 212452, Control_c, 0, 64, 24
1, 212467, Control_c, 0, 64, 17
1, 212600, Control_c, 0, 64, 17
1, 212674, Control_c, 0, 64, 18
1, 212948, Note_off_c, 0, 38, 54
1, 212960, Note_on_c, 0, 62, 51
1, 212961, Note_off_c, 0, 49, 39
1, 212963, Note_on_c, 0, 53, 49
1, 212969, Note_on_c, 0, 57, 37
1, 213263, Note_off_c, 0, 62, 61
1, 213264, Note_off_c, 0, 57, 57
1, 213270, Note_off_c, 0, 53, 49
1, 213271, Note_on_c, 0, 48, 62
1, 213272, Note_on_c, 0, 38, 60
1, 213393, Control_c, 0, 64, 16
1, 213408, Control_c, 0, 64, 12
1, 213423, Control_c, 0, 64, 0
1, 213497, Control_c, 0, 64, 15
1, 213512, Control_c, 0, 64, 35
1, 213527, Control_c, 0, 64, 48
1, 213542, Control_c, 0, 64, 56
1, 213546, Note_on_c, 0, 62, 70
1, 213551, Note_on_c, 0, 53, 68
1, 213551, Note_on_c, 0, 57, 70
1, 213557, Control_c, 0, 64, 62
1, 213571, Control_c, 0, 64, 70
1, 213583, Note_off_c, 0, 53, 66
1, 213585, Note_off_c, 0, 57, 66
1, 213586, Control_c, 0, 64, 88
1, 213601, Control_c, 0, 64, 127
1, 213607, Note_off_c, 0, 62, 65
1, 213781, Note_off_c, 0, 48, 38
1, 213826, Note_on_c, 0, 74, 88
1, 213857, Note_off_c, 0, 38, 56
1, 213879, Note_off_c, 0, 74, 65
1, 213894, Note_on_c, 0, 62, 80
1, 213928, Note_off_c, 0, 62, 62
1, 213962, Note_on_c, 0, 61, 86
1, 214009, Control_c, 0, 64, 123
1, 214024, Control_c, 0, 64, 77
1, 214031, Note_on_c, 0, 62, 74
1, 214035, Note_off_c, 0, 61, 59
1, 214039, Control_c, 0, 64, 49
1, 214053, Control_c, 0, 64, 0
1, 214079, Note_on_c, 0, 59, 89
1, 214082, Note_on_c, 0, 63, 89
1, 214090, Note_on_c, 0, 47, 95
1, 214092, Note_on_c, 0, 54, 93
1, 214093, Note_on_c, 0, 35, 80
1, 214104, Note_off_c, 0, 62, 56
1, 214117, Note_off_c, 0, 35, 64
1, 214127, Control_c, 0, 64, 57
1, 214130, Note_off_c, 0, 54, 66
1, 214135, Note_off_c, 0, 59, 65
1, 214141, Note_off_c, 0, 47, 66
1, 214142, Control_c, 0, 64, 77
1, 214149, Note_off_c, 0, 63, 67
1, 214157, Control_c, 0, 64, 127
1, 214387, Note_on_c, 0, 87, 85
1, 214392, Note_on_c, 0, 54, 80
1, 214395, Note_on_c, 0, 63, 97
1, 214397, Note_on_c, 0, 59, 86
1, 214436, Note_off_c, 0, 87, 66
1, 214450, Note_on_c, 0, 75, 82
1, 214471, Note_off_c, 0, 75, 69
1, 214541, Note_on_c, 0, 68, 87
1, 214591, Note_off_c, 0, 68, 63
1, 214598, Note_on_c, 0, 69, 70
1, 214656, Note_off_c, 0, 69, 61
1, 214676, Note_on_c, 0, 70, 97
1, 214725, Note_off_c, 0, 70, 66
1, 214966, Control_c, 0, 64, 87
1, 214981, Control_c, 0, 64, 67
1, 214984, Note_on_c, 0, 52, 96
1, 214996, Control_c, 0, 64, 47
1, 215011, Control_c, 0, 64, 0
1, 215032, Note_off_c, 0, 59, 36
1, 215055, Control_c, 0, 64, 17
1, 215070, Control_c, 0, 64, 36
1, 215084, Control_c, 0, 64, 48
1, 215089, Note_off_c, 0, 54, 64
1, 215099, Control_c, 0, 64, 55
1, 215114, Control_c, 0, 64, 58
1, 215127, Note_off_c, 0, 63, 54
1, 215129, Control_c, 0, 64, 61
1, 215143, Control_c, 0, 64, 63
1, 215158, Control_c, 0, 64, 65
1, 215173, Control_c, 0, 64, 66
1, 215188, Control_c, 0, 64, 69
1, 215203, Control_c, 0, 64, 73
1, 215217, Control_c, 0, 64, 76
1, 215232, Control_c, 0, 64, 80
1, 215247, Control_c, 0, 64, 85
1, 215262, Note_on_c, 0, 62, 64
1, 215262, Control_c, 0, 64, 90
1, 215265, Note_on_c, 0, 55, 52
1, 215277, Control_c, 0, 64, 100
1, 215279, Note_on_c, 0, 59, 50
1, 215291, Control_c, 0, 64, 117
1, 215306, Control_c, 0, 64, 127
1, 215312, Note_off_c, 0, 52, 60
1, 215330, Note_off_c, 0, 55, 57
1, 215543, Note_off_c, 0, 62, 51
1, 215552, Control_c, 0, 64, 107
1, 215567, Control_c, 0, 64, 78
1, 215581, Control_c, 0, 64, 65
1, 215584, Note_on_c, 0, 64, 68
1, 215586, Note_on_c, 0, 61, 50
1, 215590, Note_on_c, 0, 56, 39
1, 215596, Control_c, 0, 64, 56
1, 215611, Control_c, 0, 64, 46
1, 215626, Control_c, 0, 64, 44
1, 215655, Control_c, 0, 64, 45
1, 215670, Control_c, 0, 64, 49
1, 215685, Control_c, 0, 64, 55
1, 215700, Control_c, 0, 64, 60
1, 215715, Control_c, 0, 64, 63
1, 215730, Control_c, 0, 64, 66
1, 215745, Control_c, 0, 64, 69
1, 215759, Control_c, 0, 64, 74
1, 215774, Control_c, 0, 64, 80
1, 215789, Control_c, 0, 64, 89
1, 215804, Control_c, 0, 64, 101
1, 215818, Control_c, 0, 64, 127
1, 215824, Note_off_c, 0, 64, 37
1, 215850, Note_off_c, 0, 56, 29
1, 215878, Note_off_c, 0, 59, 28
1, 215882, Note_on_c, 0, 50, 58
1, 215941, Note_off_c, 0, 61, 19
1, 215995, Control_c, 0, 64, 87
1, 216010, Control_c, 0, 64, 70
1, 216025, Control_c, 0, 64, 59
1, 216040, Control_c, 0, 64, 53
1, 216055, Control_c, 0, 64, 54
1, 216055, Note_off_c, 0, 50, 49
1, 216069, Control_c, 0, 64, 56
1, 216084, Control_c, 0, 64, 60
1, 216099, Control_c, 0, 64, 63
1, 216122, Control_c, 0, 64, 67
1, 216137, Control_c, 0, 64, 73
1, 216152, Control_c, 0, 64, 83
1, 216167, Control_c, 0, 64, 101
1, 216178, Note_on_c, 0, 53, 48
1, 216182, Control_c, 0, 64, 127
1, 216192, Note_on_c, 0, 57, 45
1, 216192, Note_on_c, 0, 62, 32
1, 216213, Note_off_c, 0, 53, 64
1, 216219, Note_off_c, 0, 57, 56
1, 216227, Note_off_c, 0, 62, 49
1, 216449, Note_on_c, 0, 57, 59
1, 216457, Note_on_c, 0, 74, 67
1, 216478, Control_c, 0, 64, 87
1, 216484, Note_off_c, 0, 74, 67
1, 216486, Note_off_c, 0, 57, 67
1, 216493, Control_c, 0, 64, 66
1, 216508, Control_c, 0, 64, 40
1, 216512, Note_on_c, 0, 62, 69
1, 216518, Note_on_c, 0, 45, 55
1, 216522, Control_c, 0, 64, 0
1, 216546, Note_off_c, 0, 62, 67
1, 216557, Note_off_c, 0, 45, 62
1, 216583, Note_on_c, 0, 44, 62
1, 216592, Note_on_c, 0, 61, 67
1, 216612, Note_off_c, 0, 44, 63
1, 216618, Note_off_c, 0, 61, 66
1, 216651, Note_on_c, 0, 62, 67
1, 216662, Note_on_c, 0, 45, 62
1, 216704, Note_off_c, 0, 45, 65
1, 216706, Note_off_c, 0, 62, 62
1, 216727, Note_on_c, 0, 52, 69
1, 216737, Note_on_c, 0, 35, 63
1, 216753, Note_off_c, 0, 52, 67
1, 216767, Note_off_c, 0, 35, 62
1, 217202, Note_on_c, 0, 53, 45
1, 217202, Note_on_c, 0, 57, 37
1, 217205, Note_on_c, 0, 62, 44
1, 217798, Control_c, 0, 64, 24
1, 217813, Control_c, 0, 64, 37
1, 217828, Control_c, 0, 64, 45
1, 217828, Control_c, 0, 67, 32
1, 217842, Control_c, 0, 64, 50
1, 217842, Control_c, 0, 67, 55
1, 217857, Control_c, 0, 64, 54
1, 217857, Control_c, 0, 67, 77
1, 217870, Note_off_c, 0, 53, 32
1, 217872, Control_c, 0, 64, 59
1, 217872, Control_c, 0, 67, 97
1, 217873, Note_off_c, 0, 57, 43
1, 217887, Control_c, 0, 64, 64
1, 217887, Control_c, 0, 67, 114
1, 217901, Control_c, 0, 64, 68
1, 217901, Control_c, 0, 67, 125
1, 217916, Control_c, 0, 64, 73
1, 217916, Control_c, 0, 67, 127
1, 217931, Control_c, 0, 64, 81
1, 217946, Control_c, 0, 64, 92
1, 217953, Note_off_c, 0, 62, 59
1, 217961, Control_c, 0, 64, 106
1, 217975, Control_c, 0, 64, 127
1, 218162, Note_on_c, 0, 57, 49
1, 218168, Control_c, 0, 67, 124
1, 218171, Note_on_c, 0, 74, 70
1, 218183, Control_c, 0, 64, 95
1, 218183, Control_c, 0, 67, 119
1, 218198, Note_off_c, 0, 57, 65
1, 218198, Control_c, 0, 64, 76
1, 218198, Control_c, 0, 67, 112
1, 218199, Note_off_c, 0, 74, 65
1, 218213, Control_c, 0, 64, 62
1, 218213, Control_c, 0, 67, 109
1, 218228, Control_c, 0, 64, 34
1, 218228, Control_c, 0, 67, 105
1, 218230, Note_on_c, 0, 45, 50
1, 218237, Note_on_c, 0, 62, 62
1, 218243, Control_c, 0, 64, 0
1, 218243, Control_c, 0, 67, 98
1, 218257, Control_c, 0, 67, 92
1, 218262, Note_off_c, 0, 45, 63
1, 218268, Note_off_c, 0, 62, 66
1, 218272, Control_c, 0, 67, 85
1, 218287, Control_c, 0, 67, 79
1, 218299, Note_on_c, 0, 44, 50
1, 218302, Control_c, 0, 67, 75
1, 218316, Note_on_c, 0, 61, 59
1, 218317, Control_c, 0, 67, 72
1, 218332, Control_c, 0, 67, 70
1, 218332, Note_off_c, 0, 44, 63
1, 218336, Note_off_c, 0, 61, 60
1, 218365, Note_on_c, 0, 62, 65
1, 218398, Note_on_c, 0, 45, 31
1, 218413, Control_c, 0, 67, 71
1, 218427, Note_off_c, 0, 62, 62
1, 218428, Control_c, 0, 67, 72
1, 218430, Note_off_c, 0, 45, 54
1, 218443, Control_c, 0, 67, 72
1, 218449, Note_on_c, 0, 52, 67
1, 218453, Note_on_c, 0, 35, 63
1, 218477, Note_off_c, 0, 52, 67
1, 218484, Note_off_c, 0, 35, 61
1, 218487, Control_c, 0, 67, 73
1, 218606, Control_c, 0, 67, 72
1, 218711, Control_c, 0, 67, 72
1, 218785, Control_c, 0, 67, 71
1, 218859, Control_c, 0, 67, 70
1, 218952, Note_on_c, 0, 57, 36
1, 218956, Note_on_c, 0, 62, 43
1, 218965, Note_on_c, 0, 53, 31
1, 219969, Control_c, 0, 67, 70
1, 220131, Note_on_c, 0, 47, 37
1, 220142, Note_on_c, 0, 35, 28
1, 220161, Note_off_c, 0, 47, 47
1, 220184, Note_off_c, 0, 35, 43
1, 220472, Note_on_c, 0, 28, 46
1, 220486, Note_on_c, 0, 40, 43
1, 220509, Note_off_c, 0, 28, 60
1, 220518, Note_off_c, 0, 40, 60
1, 220562, Control_c, 0, 67, 70
1, 221030, Control_c, 0, 64, 11
1, 221045, Control_c, 0, 64, 27
1, 221059, Control_c, 0, 64, 39
1, 221074, Control_c, 0, 64, 46
1, 221089, Control_c, 0, 64, 51
1, 221104, Control_c, 0, 64, 54
1, 221118, Control_c, 0, 64, 57
1, 221133, Control_c, 0, 64, 59
1, 221148, Control_c, 0, 64, 61
1, 221152, Note_off_c, 0, 57, 42
1, 221163, Control_c, 0, 64, 64
1, 221178, Control_c, 0, 64, 66
1, 221192, Control_c, 0, 64, 70
1, 221195, Note_off_c, 0, 53, 38
1, 221207, Control_c, 0, 64, 76
1, 221222, Control_c, 0, 64, 84
1, 221237, Control_c, 0, 64, 94
1, 221252, Control_c, 0, 64, 101
1, 221266, Control_c, 0, 64, 102
1, 221281, Control_c, 0, 64, 102
1, 221296, Control_c, 0, 64, 100
1, 221310, Control_c, 0, 64, 99
1, 221325, Control_c, 0, 64, 95
1, 221337, Note_on_c, 0, 52, 51
1, 221340, Control_c, 0, 64, 90
1, 221363, Control_c, 0, 64, 82
1, 221370, Note_off_c, 0, 52, 59
1, 221378, Control_c, 0, 64, 74
1, 221392, Control_c, 0, 64, 68
1, 221407, Control_c, 0, 64, 63
1, 221422, Control_c, 0, 64, 56
1, 221429, Note_on_c, 0, 53, 47
1, 221437, Control_c, 0, 64, 47
1, 221452, Control_c, 0, 64, 43
1, 221456, Note_off_c, 0, 53, 59
1, 221459, Note_off_c, 0, 62, 32
1, 221466, Control_c, 0, 64, 41
1, 221481, Control_c, 0, 64, 41
1, 221494, Note_on_c, 0, 57, 50
1, 221496, Control_c, 0, 64, 39
1, 221510, Control_c, 0, 64, 36
1, 221525, Control_c, 0, 64, 31
1, 221529, Note_off_c, 0, 57, 63
1, 221539, Note_on_c, 0, 53, 56
1, 221540, Control_c, 0, 64, 27
1, 221555, Control_c, 0, 64, 25
1, 221570, Control_c, 0, 64, 24
1, 221584, Control_c, 0, 64, 24
1, 221599, Control_c, 0, 64, 23
1, 221614, Control_c, 0, 64, 23
1, 221616, Note_off_c, 0, 53, 62
1, 221629, Control_c, 0, 64, 22
1, 221644, Control_c, 0, 64, 21
1, 221648, Note_on_c, 0, 52, 50
1, 221659, Control_c, 0, 64, 20
1, 221674, Control_c, 0, 64, 18
1, 221676, Note_off_c, 0, 52, 56
1, 221688, Control_c, 0, 64, 17
1, 221703, Control_c, 0, 64, 17
1, 221733, Control_c, 0, 64, 16
1, 221763, Control_c, 0, 64, 15
1, 221808, Control_c, 0, 64, 13
1, 221852, Control_c, 0, 64, 12
1, 221882, Control_c, 0, 64, 11
1, 221912, Control_c, 0, 64, 9
1, 221971, Control_c, 0, 64, 0
1, 221995, Note_on_c, 0, 62, 41
1, 222001, Note_on_c, 0, 57, 33
1, 222004, Note_on_c, 0, 53, 34
1, 223245, Control_c, 0, 64, 12
1, 223260, Control_c, 0, 64, 17
1, 223275, Control_c, 0, 64, 21
1, 223289, Control_c, 0, 64, 25
1, 223306, Control_c, 0, 64, 29
1, 223321, Control_c, 0, 64, 32
1, 223335, Control_c, 0, 64, 36
1, 223350, Control_c, 0, 64, 40
1, 223365, Control_c, 0, 64, 43
1, 223379, Control_c, 0, 64, 48
1, 223380, Note_off_c, 0, 57, 31
1, 223394, Control_c, 0, 64, 51
1, 223409, Control_c, 0, 64, 54
1, 223424, Control_c, 0, 64, 56
1, 223439, Control_c, 0, 64, 58
1, 223453, Control_c, 0, 64, 60
1, 223468, Control_c, 0, 64, 62
1, 223483, Control_c, 0, 64, 64
1, 223498, Control_c, 0, 64, 65
1, 223513, Control_c, 0, 64, 68
1, 223528, Control_c, 0, 64, 71
1, 223543, Control_c, 0, 64, 77
1, 223557, Control_c, 0, 64, 85
1, 223572, Control_c, 0, 64, 96
1, 223587, Control_c, 0, 64, 107
1, 223602, Control_c, 0, 64, 121
1, 223624, Control_c, 0, 64, 127
1, 223732, Note_off_c, 0, 53, 35
1, 223772, Control_c, 0, 64, 123
1, 223787, Control_c, 0, 64, 118
1, 223802, Control_c, 0, 64, 115
1, 223808, Note_on_c, 0, 52, 36
1, 223817, Control_c, 0, 64, 112
1, 223832, Control_c, 0, 64, 110
1, 223847, Control_c, 0, 64, 107
1, 223861, Control_c, 0, 64, 105
1, 223873, Note_off_c, 0, 52, 56
1, 223876, Control_c, 0, 64, 104
1, 223891, Control_c, 0, 64, 104
1, 223905, Control_c, 0, 64, 102
1, 223920, Control_c, 0, 64, 102
1, 223935, Control_c, 0, 64, 101
1, 223948, Note_on_c, 0, 53, 35
1, 223950, Control_c, 0, 64, 101
1, 223965, Control_c, 0, 64, 100
1, 223966, Note_off_c, 0, 62, 35
1, 223979, Control_c, 0, 64, 99
1, 223994, Control_c, 0, 64, 98
1, 223998, Note_off_c, 0, 53, 58
1, 224009, Control_c, 0, 64, 97
1, 224024, Control_c, 0, 64, 97
1, 224039, Control_c, 0, 64, 96
1, 224042, Note_on_c, 0, 57, 40
1, 224053, Control_c, 0, 64, 95
1, 224068, Control_c, 0, 64, 94
1, 224081, Note_off_c, 0, 57, 54
1, 224083, Control_c, 0, 64, 93
1, 224098, Control_c, 0, 64, 93
1, 224114, Control_c, 0, 64, 92
1, 224122, Note_on_c, 0, 53, 46
1, 224129, Control_c, 0, 64, 92
1, 224181, Note_off_c, 0, 53, 61
1, 224221, Note_on_c, 0, 57, 45
1, 224266, Note_off_c, 0, 57, 63
1, 224276, Control_c, 0, 64, 91
1, 224291, Control_c, 0, 64, 88
1, 224306, Note_on_c, 0, 53, 47
1, 224306, Control_c, 0, 64, 80
1, 224321, Control_c, 0, 64, 69
1, 224336, Control_c, 0, 64, 61
1, 224358, Control_c, 0, 64, 58
1, 224364, Note_off_c, 0, 53, 54
1, 224373, Control_c, 0, 64, 60
1, 224388, Control_c, 0, 64, 62
1, 224403, Control_c, 0, 64, 64
1, 224410, Note_on_c, 0, 52, 44
1, 224417, Control_c, 0, 64, 66
1, 224432, Control_c, 0, 64, 69
1, 224432, Control_c, 0, 67, 71
1, 224447, Control_c, 0, 64, 71
1, 224447, Control_c, 0, 67, 72
1, 224462, Control_c, 0, 64, 73
1, 224462, Control_c, 0, 67, 74
1, 224463, Note_off_c, 0, 52, 60
1, 224477, Control_c, 0, 64, 77
1, 224477, Control_c, 0, 67, 76
1, 224491, Control_c, 0, 64, 84
1, 224491, Control_c, 0, 67, 78
1, 224500, Note_on_c, 0, 53, 43
1, 224506, Control_c, 0, 64, 99
1, 224506, Control_c, 0, 67, 82
1, 224521, Control_c, 0, 64, 127
1, 224521, Control_c, 0, 67, 85
1, 224535, Control_c, 0, 67, 87
1, 224550, Control_c, 0, 67, 92
1, 224565, Control_c, 0, 67, 93
1, 224569, Note_off_c, 0, 53, 60
1, 224580, Control_c, 0, 67, 96
1, 224595, Control_c, 0, 67, 99
1, 224610, Control_c, 0, 67, 109
1, 224614, Note_on_c, 0, 57, 40
1, 224625, Control_c, 0, 67, 122
1, 224640, Control_c, 0, 67, 127
1, 224660, Note_off_c, 0, 57, 61
1, 224709, Note_on_c, 0, 53, 43
1, 224754, Note_off_c, 0, 53, 61
1, 224792, Note_on_c, 0, 57, 42
1, 224817, Control_c, 0, 64, 112
1, 224832, Control_c, 0, 64, 102
1, 224847, Note_off_c, 0, 57, 59
1, 224847, Control_c, 0, 64, 91
1, 224862, Control_c, 0, 64, 79
1, 224877, Control_c, 0, 64, 66
1, 224883, Note_on_c, 0, 53, 38
1, 224891, Control_c, 0, 64, 56
1, 224907, Control_c, 0, 64, 51
1, 224922, Control_c, 0, 64, 54
1, 224937, Control_c, 0, 64, 58
1, 224943, Note_off_c, 0, 53, 59
1, 224951, Control_c, 0, 64, 62
1, 224966, Control_c, 0, 64, 65
1, 224976, Note_on_c, 0, 51, 47
1, 224981, Control_c, 0, 64, 69
1, 224996, Control_c, 0, 64, 72
1, 225011, Control_c, 0, 64, 76
1, 225025, Control_c, 0, 64, 82
1, 225040, Control_c, 0, 64, 93
1, 225050, Note_off_c, 0, 51, 56
1, 225055, Control_c, 0, 64, 111
1, 225070, Control_c, 0, 64, 127
1, 225084, Note_on_c, 0, 53, 39
1, 225148, Note_off_c, 0, 53, 59
1, 225199, Note_on_c, 0, 57, 33
1, 225242, Note_off_c, 0, 57, 50
1, 225282, Note_on_c, 0, 53, 43
1, 225343, Note_off_c, 0, 53, 61
1, 225382, Note_on_c, 0, 57, 40
1, 225432, Control_c, 0, 64, 114
1, 225434, Note_off_c, 0, 57, 61
1, 225447, Control_c, 0, 64, 101
1, 225462, Control_c, 0, 64, 88
1, 225477, Note_on_c, 0, 53, 46
1, 225477, Control_c, 0, 64, 77
1, 225492, Control_c, 0, 64, 68
1, 225507, Control_c, 0, 64, 62
1, 225522, Control_c, 0, 64, 60
1, 225528, Note_off_c, 0, 53, 60
1, 225537, Control_c, 0, 64, 62
1, 225552, Control_c, 0, 64, 64
1, 225567, Note_on_c, 0, 51, 47
1, 225567, Control_c, 0, 64, 66
1, 225582, Control_c, 0, 64, 69
1, 225596, Control_c, 0, 64, 72
1, 225611, Control_c, 0, 64, 76
1, 225626, Control_c, 0, 64, 80
1, 225632, Note_off_c, 0, 51, 56
1, 225641, Control_c, 0, 64, 84
1, 225656, Control_c, 0, 64, 87
1, 225666, Note_on_c, 0, 53, 43
1, 225671, Control_c, 0, 64, 92
1, 225686, Control_c, 0, 64, 101
1, 225701, Control_c, 0, 64, 123
1, 225716, Control_c, 0, 64, 127
1, 225728, Note_off_c, 0, 53, 60
1, 225772, Note_on_c, 0, 57, 45
1, 225817, Note_off_c, 0, 57, 61
1, 225873, Note_on_c, 0, 53, 47
1, 225920, Note_off_c, 0, 53, 62
1, 225965, Note_on_c, 0, 57, 44
1, 226009, Note_off_c, 0, 57, 61
1, 226044, Note_on_c, 0, 53, 48
1, 226050, Control_c, 0, 64, 117
1, 226064, Control_c, 0, 64, 95
1, 226079, Control_c, 0, 64, 79
1, 226094, Control_c, 0, 64, 66
1, 226106, Note_off_c, 0, 53, 57
1, 226109, Control_c, 0, 64, 58
1, 226124, Control_c, 0, 64, 57
1, 226138, Control_c, 0, 64, 60
1, 226149, Note_on_c, 0, 50, 50
1, 226153, Control_c, 0, 64, 62
1, 226168, Control_c, 0, 64, 64
1, 226182, Control_c, 0, 64, 67
1, 226197, Control_c, 0, 64, 70
1, 226212, Control_c, 0, 64, 73
1, 226227, Control_c, 0, 64, 77
1, 226242, Note_on_c, 0, 53, 45
1, 226242, Control_c, 0, 64, 81
1, 226256, Control_c, 0, 64, 85
1, 226271, Control_c, 0, 64, 94
1, 226286, Control_c, 0, 64, 104
1, 226297, Note_off_c, 0, 53, 60
1, 226300, Control_c, 0, 64, 127
1, 226309, Note_on_c, 0, 62, 62
1, 226345, Note_on_c, 0, 57, 45
1, 226376, Note_off_c, 0, 50, 0
1, 226400, Note_off_c, 0, 57, 61
1, 226413, Poly_aftertouch_c, 0, 50, 127
1, 226438, Note_on_c, 0, 53, 44
1, 226455, Note_off_c, 0, 62, 63
1, 226456, Note_on_c, 0, 65, 70
1, 226492, Note_off_c, 0, 53, 60
1, 226547, Note_on_c, 0, 57, 47
1, 226583, Control_c, 0, 64, 116
1, 226604, Note_off_c, 0, 57, 60
1, 226604, Control_c, 0, 64, 108
1, 226619, Control_c, 0, 64, 99
1, 226634, Control_c, 0, 64, 88
1, 226638, Note_on_c, 0, 53, 51
1, 226649, Control_c, 0, 64, 75
1, 226664, Control_c, 0, 64, 65
1, 226678, Control_c, 0, 64, 46
1, 226693, Control_c, 0, 64, 0
1, 226724, Note_off_c, 0, 53, 57
1, 226739, Poly_aftertouch_c, 0, 50, 0
1, 226765, Note_on_c, 0, 48, 45
1, 226827, Control_c, 0, 64, 43
1, 226842, Control_c, 0, 64, 57
1, 226857, Control_c, 0, 64, 63
1, 226868, Note_on_c, 0, 52, 42
1, 226872, Control_c, 0, 64, 67
1, 226886, Control_c, 0, 64, 73
1, 226887, Note_off_c, 0, 65, 55
1, 226893, Note_on_c, 0, 64, 60
1, 226901, Control_c, 0, 64, 84
1, 226916, Control_c, 0, 64, 103
1, 226927, Note_off_c, 0, 52, 61
1, 226930, Control_c, 0, 64, 127
1, 226961, Note_on_c, 0, 57, 49
1, 227004, Control_c, 0, 67, 121
1, 227017, Note_off_c, 0, 57, 58
1, 227019, Control_c, 0, 67, 109
1, 227034, Note_on_c, 0, 67, 75
1, 227034, Control_c, 0, 67, 92
1, 227036, Note_off_c, 0, 64, 61
1, 227049, Control_c, 0, 67, 73
1, 227055, Note_on_c, 0, 52, 49
1, 227064, Control_c, 0, 67, 52
1, 227078, Control_c, 0, 67, 31
1, 227093, Control_c, 0, 67, 12
1, 227105, Note_off_c, 0, 52, 59
1, 227108, Control_c, 0, 67, 0
1, 227149, Note_on_c, 0, 57, 49
1, 227206, Note_on_c, 0, 65, 51
1, 227217, Note_off_c, 0, 57, 57
1, 227226, Note_off_c, 0, 48, 40
1, 227241, Note_on_c, 0, 52, 45
1, 227242, Control_c, 0, 64, 98
1, 227257, Control_c, 0, 64, 81
1, 227272, Control_c, 0, 64, 67
1, 227286, Control_c, 0, 64, 53
1, 227299, Note_off_c, 0, 52, 59
1, 227300, Note_off_c, 0, 65, 60
1, 227302, Control_c, 0, 64, 15
1, 227316, Control_c, 0, 64, 0
1, 227331, Control_c, 0, 64, 16
1, 227346, Note_on_c, 0, 64, 52
1, 227346, Control_c, 0, 64, 23
1, 227368, Control_c, 0, 64, 32
1, 227370, Note_on_c, 0, 47, 33
1, 227383, Control_c, 0, 64, 41
1, 227398, Control_c, 0, 64, 49
1, 227413, Control_c, 0, 64, 55
1, 227428, Control_c, 0, 64, 61
1, 227442, Control_c, 0, 64, 66
1, 227457, Control_c, 0, 64, 70
1, 227472, Control_c, 0, 64, 73
1, 227476, Note_off_c, 0, 64, 61
1, 227477, Note_on_c, 0, 53, 38
1, 227480, Note_off_c, 0, 67, 57
1, 227487, Control_c, 0, 64, 73
1, 227502, Control_c, 0, 64, 71
1, 227504, Note_on_c, 0, 65, 68
1, 227506, Note_on_c, 0, 61, 57
1, 227516, Control_c, 0, 64, 69
1, 227531, Note_off_c, 0, 53, 60
1, 227531, Control_c, 0, 64, 65
1, 227546, Control_c, 0, 64, 61
1, 227560, Note_off_c, 0, 47, 0
1, 227561, Control_c, 0, 64, 53
1, 227570, Note_on_c, 0, 57, 49
1, 227576, Control_c, 0, 64, 38
1, 227591, Control_c, 0, 64, 25
1, 227596, Note_off_c, 0, 61, 51
1, 227597, Poly_aftertouch_c, 0, 47, 127
1, 227606, Control_c, 0, 64, 24
1, 227620, Note_off_c, 0, 57, 62
1, 227635, Control_c, 0, 64, 26
1, 227650, Control_c, 0, 64, 33
1, 227653, Note_on_c, 0, 69, 84
1, 227654, Note_off_c, 0, 65, 64
1, 227656, Note_on_c, 0, 53, 50
1, 227665, Control_c, 0, 64, 43
1, 227672, Note_on_c, 0, 62, 62
1, 227680, Control_c, 0, 64, 51
1, 227695, Control_c, 0, 64, 56
1, 227709, Control_c, 0, 64, 61
1, 227717, Note_off_c, 0, 53, 62
1, 227724, Control_c, 0, 64, 67
1, 227739, Control_c, 0, 64, 74
1, 227751, Note_on_c, 0, 57, 49
1, 227753, Control_c, 0, 64, 89
1, 227768, Control_c, 0, 64, 127
1, 227799, Note_off_c, 0, 62, 51
1, 227818, Note_on_c, 0, 65, 52
1, 227834, Note_off_c, 0, 57, 56
1, 227836, Poly_aftertouch_c, 0, 47, 0
1, 227842, Control_c, 0, 64, 98
1, 227844, Note_on_c, 0, 53, 56
1, 227857, Control_c, 0, 64, 80
1, 227872, Control_c, 0, 64, 68
1, 227887, Control_c, 0, 64, 56
1, 227901, Control_c, 0, 64, 40
1, 227903, Note_off_c, 0, 53, 56
1, 227916, Control_c, 0, 64, 44
1, 227931, Control_c, 0, 64, 51
1, 227945, Control_c, 0, 64, 56
1, 227954, Note_on_c, 0, 46, 51
1, 227960, Control_c, 0, 64, 59
1, 227974, Note_on_c, 0, 67, 59
1, 227975, Note_off_c, 0, 65, 55
1, 227975, Control_c, 0, 64, 62
1, 227990, Control_c, 0, 64, 64
1, 228005, Control_c, 0, 64, 67
1, 228020, Control_c, 0, 64, 75
1, 228035, Control_c, 0, 64, 94
1, 228040, Note_off_c, 0, 67, 62
1, 228050, Control_c, 0, 64, 127
1, 228054, Note_on_c, 0, 52, 50
1, 228116, Note_off_c, 0, 69, 58
1, 228125, Note_off_c, 0, 52, 60
1, 228133, Note_on_c, 0, 67, 84
1, 228164, Note_on_c, 0, 55, 60
1, 228230, Note_off_c, 0, 55, 52
1, 228236, Control_c, 0, 64, 123
1, 228251, Control_c, 0, 64, 89
1, 228252, Note_on_c, 0, 52, 59
1, 228265, Control_c, 0, 64, 72
1, 228278, Note_on_c, 0, 70, 88
1, 228280, Control_c, 0, 64, 60
1, 228288, Note_on_c, 0, 66, 73
1, 228289, Note_off_c, 0, 67, 61
1, 228295, Control_c, 0, 64, 39
1, 228299, Note_off_c, 0, 46, 36
1, 228310, Control_c, 0, 64, 38
1, 228325, Control_c, 0, 64, 47
1, 228339, Control_c, 0, 64, 52
1, 228342, Note_off_c, 0, 52, 64
1, 228354, Control_c, 0, 64, 55
1, 228364, Note_on_c, 0, 55, 57
1, 228369, Control_c, 0, 64, 58
1, 228384, Control_c, 0, 64, 61
1, 228398, Control_c, 0, 64, 63
1, 228413, Control_c, 0, 64, 67
1, 228428, Control_c, 0, 64, 75
1, 228443, Control_c, 0, 64, 92
1, 228447, Note_off_c, 0, 55, 59
1, 228458, Control_c, 0, 64, 127
1, 228463, Note_on_c, 0, 52, 65
1, 228548, Note_off_c, 0, 66, 50
1, 228559, Note_off_c, 0, 52, 58
1, 228562, Note_on_c, 0, 45, 59
1, 228576, Control_c, 0, 64, 99
1, 228590, Note_on_c, 0, 65, 73
1, 228591, Control_c, 0, 64, 79
1, 228606, Control_c, 0, 64, 65
1, 228621, Control_c, 0, 64, 54
1, 228650, Control_c, 0, 64, 58
1, 228665, Control_c, 0, 64, 61
1, 228680, Control_c, 0, 64, 63
1, 228684, Note_on_c, 0, 48, 56
1, 228695, Control_c, 0, 64, 65
1, 228710, Control_c, 0, 64, 68
1, 228724, Control_c, 0, 64, 72
1, 228739, Control_c, 0, 64, 79
1, 228744, Note_on_c, 0, 69, 81
1, 228754, Note_off_c, 0, 48, 62
1, 228754, Control_c, 0, 64, 95
1, 228768, Control_c, 0, 64, 127
1, 228771, Note_off_c, 0, 70, 62
1, 228787, Note_on_c, 0, 57, 61
1, 228790, Note_off_c, 0, 65, 54
1, 228867, Note_off_c, 0, 57, 62
1, 228881, Note_on_c, 0, 48, 66
1, 228890, Note_off_c, 0, 69, 65
1, 228892, Note_on_c, 0, 72, 95
1, 228895, Control_c, 0, 64, 89
1, 228899, Note_on_c, 0, 64, 83
1, 228911, Control_c, 0, 64, 72
1, 228926, Control_c, 0, 64, 61
1, 228941, Control_c, 0, 64, 49
1, 228955, Control_c, 0, 64, 53
1, 228959, Note_off_c, 0, 48, 63
1, 228970, Control_c, 0, 64, 58
1, 228985, Note_on_c, 0, 57, 68
1, 228985, Control_c, 0, 64, 61
1, 228999, Control_c, 0, 64, 64
1, 229014, Control_c, 0, 64, 67
1, 229029, Control_c, 0, 64, 70
1, 229043, Note_off_c, 0, 45, 40
1, 229044, Control_c, 0, 64, 75
1, 229059, Control_c, 0, 64, 83
1, 229074, Control_c, 0, 64, 114
1, 229080, Note_on_c, 0, 48, 69
1, 229087, Note_off_c, 0, 57, 58
1, 229088, Control_c, 0, 64, 127
1, 229117, Note_off_c, 0, 64, 59
1, 229184, Note_on_c, 0, 43, 72
1, 229192, Control_c, 0, 64, 88
1, 229206, Control_c, 0, 64, 71
1, 229215, Note_on_c, 0, 63, 83
1, 229218, Note_off_c, 0, 48, 61
1, 229221, Control_c, 0, 64, 61
1, 229236, Control_c, 0, 64, 58
1, 229251, Control_c, 0, 64, 62
1, 229266, Control_c, 0, 64, 65
1, 229281, Control_c, 0, 64, 68
1, 229289, Note_off_c, 0, 43, 63
1, 229293, Note_on_c, 0, 50, 72
1, 229296, Control_c, 0, 64, 74
1, 229311, Control_c, 0, 64, 84
1, 229326, Control_c, 0, 64, 104
1, 229341, Control_c, 0, 64, 127
1, 229359, Note_on_c, 0, 70, 88
1, 229365, Note_off_c, 0, 72, 63
1, 229391, Note_off_c, 0, 50, 62
1, 229394, Note_on_c, 0, 58, 84
1, 229397, Note_off_c, 0, 63, 60
1, 229430, Control_c, 0, 64, 107
1, 229445, Control_c, 0, 64, 70
1, 229460, Control_c, 0, 64, 55
1, 229474, Control_c, 0, 64, 51
1, 229483, Note_off_c, 0, 58, 62
1, 229484, Note_on_c, 0, 50, 72
1, 229489, Control_c, 0, 64, 60
1, 229501, Note_on_c, 0, 74, 92
1, 229504, Note_on_c, 0, 62, 89
1, 229504, Control_c, 0, 64, 65
1, 229519, Control_c, 0, 64, 74
1, 229520, Note_off_c, 0, 70, 62
1, 229533, Control_c, 0, 64, 115
1, 229544, Note_off_c, 0, 50, 64
1, 229548, Control_c, 0, 64, 127
1, 229559, Note_on_c, 0, 58, 80
1, 229591, Note_off_c, 0, 62, 61
1, 229604, Note_off_c, 0, 58, 61
1, 229647, Note_on_c, 0, 50, 80
1, 229665, Note_on_c, 0, 65, 84
1, 229684, Note_off_c, 0, 50, 65
1, 229739, Note_off_c, 0, 65, 63
1, 229800, Note_on_c, 0, 70, 95
1, 229802, Note_on_c, 0, 41, 95
1, 229806, Note_off_c, 0, 74, 63
1, 229808, Control_c, 0, 64, 73
1, 229823, Control_c, 0, 64, 0
1, 229840, Note_off_c, 0, 70, 67
1, 229848, Note_off_c, 0, 41, 64
1, 229953, Note_on_c, 0, 76, 91
1, 229958, Note_on_c, 0, 72, 87
1, 229960, Note_on_c, 0, 40, 85
1, 229960, Note_on_c, 0, 43, 83
1, 229987, Note_off_c, 0, 72, 60
1, 229994, Note_off_c, 0, 43, 67
1, 229997, Note_off_c, 0, 76, 61
1, 230043, Note_off_c, 0, 40, 61
1, 230098, Note_on_c, 0, 44, 95
1, 230101, Note_on_c, 0, 41, 84
1, 230101, Note_on_c, 0, 77, 104
1, 230102, Note_on_c, 0, 74, 83
1, 230103, Note_on_c, 0, 38, 79
1, 230103, Note_on_c, 0, 71, 94
1, 230125, Note_off_c, 0, 74, 66
1, 230134, Control_c, 0, 64, 58
1, 230139, Note_on_c, 0, 72, 30
1, 230139, Note_off_c, 0, 41, 66
1, 230143, Note_off_c, 0, 72, 48
1, 230144, Note_off_c, 0, 44, 63
1, 230148, Control_c, 0, 64, 65
1, 230154, Note_off_c, 0, 38, 64
1, 230155, Note_off_c, 0, 71, 62
1, 230155, Note_off_c, 0, 77, 68
1, 230163, Control_c, 0, 64, 73
1, 230178, Control_c, 0, 64, 127
1, 230333, Note_on_c, 0, 45, 92
1, 230338, Note_on_c, 0, 81, 96
1, 230342, Note_on_c, 0, 33, 79
1, 230375, Note_off_c, 0, 33, 64
1, 230378, Control_c, 0, 64, 66
1, 230384, Note_off_c, 0, 45, 62
1, 230393, Control_c, 0, 64, 0
1, 230443, Note_on_c, 0, 50, 95
1, 230445, Note_on_c, 0, 38, 78
1, 230446, Note_on_c, 0, 69, 98
1, 230471, Note_off_c, 0, 38, 67
1, 230482, Control_c, 0, 64, 60
1, 230484, Note_off_c, 0, 50, 65
1, 230494, Note_on_c, 0, 78, 28
1, 230498, Control_c, 0, 64, 81
1, 230513, Control_c, 0, 64, 127
1, 230554, Note_off_c, 0, 78, 61
1, 230606, Note_off_c, 0, 69, 52
1, 230619, Note_on_c, 0, 65, 75
1, 230637, Note_on_c, 0, 74, 84
1, 230639, Note_off_c, 0, 81, 53
1, 230673, Note_off_c, 0, 65, 59
1, 230716, Note_on_c, 0, 69, 68
1, 230751, Note_off_c, 0, 69, 64
1, 230777, Note_on_c, 0, 77, 95
1, 230778, Note_on_c, 0, 65, 68
1, 230797, Note_off_c, 0, 74, 59
1, 230816, Note_off_c, 0, 65, 57
1, 230849, Note_on_c, 0, 69, 67
1, 230903, Note_off_c, 0, 69, 62
1, 230923, Note_on_c, 0, 65, 78
1, 230924, Note_on_c, 0, 84, 84
1, 230968, Note_off_c, 0, 65, 60
1, 231031, Control_c, 0, 64, 96
1, 231045, Control_c, 0, 64, 65
1, 231048, Note_off_c, 0, 77, 55
1, 231052, Note_on_c, 0, 60, 93
1, 231054, Note_on_c, 0, 48, 80
1, 231057, Note_on_c, 0, 72, 98
1, 231060, Control_c, 0, 64, 9
1, 231075, Control_c, 0, 64, 32
1, 231078, Note_off_c, 0, 48, 68
1, 231079, Note_off_c, 0, 84, 44
1, 231082, Note_on_c, 0, 79, 42
1, 231090, Control_c, 0, 64, 55
1, 231111, Note_off_c, 0, 60, 66
1, 231112, Control_c, 0, 64, 65
1, 231126, Control_c, 0, 64, 91
1, 231132, Note_off_c, 0, 79, 43
1, 231141, Control_c, 0, 64, 127
1, 231163, Poly_aftertouch_c, 0, 77, 127
1, 231186, Poly_aftertouch_c, 0, 77, 0
1, 231193, Poly_aftertouch_c, 0, 50, 0
1, 231217, Note_on_c, 0, 64, 55
1, 231220, Note_on_c, 0, 76, 91
1, 231233, Note_on_c, 0, 65, 50
1, 231239, Note_off_c, 0, 72, 62
1, 231257, Note_off_c, 0, 65, 57
1, 231264, Note_off_c, 0, 64, 63
1, 231289, Note_on_c, 0, 69, 80
1, 231356, Note_on_c, 0, 79, 95
1, 231358, Note_off_c, 0, 69, 58
1, 231360, Note_off_c, 0, 76, 68
1, 231374, Note_on_c, 0, 64, 70
1, 231427, Note_off_c, 0, 64, 62
1, 231453, Note_on_c, 0, 69, 78
1, 231499, Note_off_c, 0, 69, 63
1, 231499, Note_on_c, 0, 77, 80
1, 231525, Note_on_c, 0, 64, 78
1, 231552, Note_off_c, 0, 64, 66
1, 231601, Control_c, 0, 64, 92
1, 231616, Control_c, 0, 64, 64
1, 231631, Control_c, 0, 64, 0
1, 231640, Note_on_c, 0, 59, 89
1, 231642, Note_on_c, 0, 76, 87
1, 231645, Note_on_c, 0, 47, 81
1, 231656, Note_off_c, 0, 77, 56
1, 231661, Control_c, 0, 64, 40
1, 231666, Note_off_c, 0, 47, 66
1, 231675, Control_c, 0, 64, 65
1, 231690, Control_c, 0, 64, 83
1, 231697, Note_off_c, 0, 59, 66
1, 231705, Control_c, 0, 64, 127
1, 231749, Note_off_c, 0, 79, 62
1, 231768, Note_off_c, 0, 76, 64
1, 231783, Note_on_c, 0, 65, 78
1, 231798, Note_on_c, 0, 77, 90
1, 231801, Note_on_c, 0, 73, 88
1, 231866, Note_off_c, 0, 65, 62
1, 231878, Note_on_c, 0, 69, 81
1, 231888, Note_off_c, 0, 73, 64
1, 231930, Note_off_c, 0, 77, 68
1, 231943, Note_on_c, 0, 81, 98
1, 231944, Note_on_c, 0, 74, 94
1, 231947, Note_off_c, 0, 69, 60
1, 231954, Note_on_c, 0, 65, 79
1, 232013, Note_off_c, 0, 65, 62
1, 232034, Note_on_c, 0, 69, 80
1, 232078, Note_off_c, 0, 74, 54
1, 232101, Note_on_c, 0, 77, 90
1, 232111, Note_off_c, 0, 69, 60
1, 232118, Note_on_c, 0, 65, 81
1, 232144, Note_off_c, 0, 65, 67
1, 232172, Control_c, 0, 64, 99
1, 232187, Control_c, 0, 64, 65
1, 232202, Control_c, 0, 64, 0
1, 232220, Note_off_c, 0, 81, 62
1, 232232, Control_c, 0, 64, 40
1, 232234, Note_on_c, 0, 58, 99
1, 232241, Note_on_c, 0, 46, 77
1, 232243, Note_on_c, 0, 79, 93
1, 232247, Control_c, 0, 64, 60
1, 232262, Control_c, 0, 64, 71
1, 232267, Note_off_c, 0, 46, 67
1, 232269, Note_off_c, 0, 77, 64
1, 232277, Control_c, 0, 64, 127
1, 232289, Note_off_c, 0, 58, 63
1, 232300, Note_on_c, 0, 81, 5
1, 232336, Note_off_c, 0, 79, 67
1, 232357, Note_off_c, 0, 81, 34
1, 232383, Note_on_c, 0, 64, 78
1, 232385, Note_on_c, 0, 79, 98
1, 232444, Note_off_c, 0, 79, 67
1, 232445, Note_off_c, 0, 64, 63
1, 232468, Note_on_c, 0, 67, 81
1, 232525, Note_on_c, 0, 82, 98
1, 232528, Note_on_c, 0, 78, 89
1, 232541, Note_on_c, 0, 64, 81
1, 232542, Note_off_c, 0, 67, 62
1, 232562, Note_off_c, 0, 78, 55
1, 232572, Note_on_c, 0, 63, 39
1, 232584, Note_off_c, 0, 82, 64
1, 232607, Note_off_c, 0, 64, 62
1, 232612, Note_off_c, 0, 63, 48
1, 232631, Note_on_c, 0, 67, 79
1, 232662, Note_on_c, 0, 93, 101
1, 232679, Note_off_c, 0, 67, 65
1, 232688, Note_on_c, 0, 63, 59
1, 232693, Note_on_c, 0, 64, 87
1, 232715, Note_off_c, 0, 64, 69
1, 232716, Note_off_c, 0, 93, 67
1, 232718, Note_off_c, 0, 63, 65
1, 232757, Control_c, 0, 64, 87
1, 232771, Control_c, 0, 64, 57
1, 232786, Control_c, 0, 64, 0
1, 232801, Note_on_c, 0, 81, 92
1, 232801, Control_c, 0, 64, 39
1, 232803, Note_on_c, 0, 77, 94
1, 232807, Note_on_c, 0, 45, 83
1, 232807, Note_on_c, 0, 57, 95
1, 232816, Control_c, 0, 64, 63
1, 232831, Control_c, 0, 64, 78
1, 232834, Note_off_c, 0, 45, 67
1, 232840, Note_on_c, 0, 47, 53
1, 232846, Control_c, 0, 64, 127
1, 232852, Note_off_c, 0, 57, 67
1, 232867, Note_off_c, 0, 47, 35
1, 232888, Note_off_c, 0, 81, 66
1, 232891, Note_off_c, 0, 77, 55
1, 232928, Note_on_c, 0, 60, 86
1, 232953, Note_on_c, 0, 81, 96
1, 233003, Note_off_c, 0, 60, 63
1, 233017, Note_on_c, 0, 69, 81
1, 233045, Note_off_c, 0, 81, 66
1, 233077, Note_on_c, 0, 60, 68
1, 233082, Note_off_c, 0, 69, 60
1, 233096, Note_on_c, 0, 84, 97
1, 233099, Note_on_c, 0, 76, 80
1, 233122, Note_off_c, 0, 76, 73
1, 233130, Note_off_c, 0, 60, 62
1, 233144, Note_off_c, 0, 84, 65
1, 233150, Note_on_c, 0, 69, 78
1, 233195, Note_off_c, 0, 69, 66
1, 233211, Note_on_c, 0, 60, 69
1, 233218, Note_on_c, 0, 59, 62
1, 233224, Note_on_c, 0, 96, 101
1, 233247, Note_off_c, 0, 59, 65
1, 233257, Note_off_c, 0, 60, 65
1, 233263, Note_off_c, 0, 96, 68
1, 233307, Control_c, 0, 64, 93
1, 233316, Poly_aftertouch_c, 0, 95, 0
1, 233321, Control_c, 0, 64, 62
1, 233336, Control_c, 0, 64, 0
1, 233359, Control_c, 0, 64, 21
1, 233359, Note_on_c, 0, 55, 96
1, 233361, Note_on_c, 0, 43, 82
1, 233373, Control_c, 0, 64, 57
1, 233379, Note_on_c, 0, 84, 96
1, 233380, Note_on_c, 0, 75, 101
1, 233385, Note_off_c, 0, 43, 66
1, 233388, Control_c, 0, 64, 70
1, 233400, Note_on_c, 0, 76, 72
1, 233400, Note_off_c, 0, 55, 67
1, 233403, Control_c, 0, 64, 127
1, 233417, Note_off_c, 0, 76, 68
1, 233457, Note_off_c, 0, 84, 60
1, 233469, Note_off_c, 0, 75, 59
1, 233497, Note_on_c, 0, 62, 80
1, 233520, Note_on_c, 0, 74, 92
1, 233523, Note_on_c, 0, 82, 95
1, 233561, Note_off_c, 0, 62, 64
1, 233579, Note_on_c, 0, 70, 85
1, 233593, Note_off_c, 0, 74, 58
1, 233606, Note_off_c, 0, 82, 66
1, 233627, Note_off_c, 0, 70, 64
1, 233665, Note_on_c, 0, 86, 96
1, 233666, Note_on_c, 0, 62, 64
1, 233700, Note_on_c, 0, 70, 83
1, 233725, Note_off_c, 0, 70, 62
1, 233725, Note_off_c, 0, 86, 64
1, 233751, Note_off_c, 0, 62, 64
1, 233806, Note_on_c, 0, 77, 91
1, 233848, Note_off_c, 0, 77, 67
1, 233952, Note_on_c, 0, 47, 96
1, 233952, Control_c, 0, 64, 89
1, 233953, Note_on_c, 0, 86, 108
1, 233956, Note_on_c, 0, 41, 90
1, 233957, Note_on_c, 0, 83, 96
1, 233961, Note_on_c, 0, 44, 79
1, 233967, Control_c, 0, 64, 48
1, 233982, Note_off_c, 0, 47, 64
1, 233982, Control_c, 0, 64, 0
1, 233986, Note_off_c, 0, 41, 64
1, 233988, Note_off_c, 0, 83, 65
1, 233990, Note_off_c, 0, 86, 68
1, 233996, Note_off_c, 0, 44, 60
1, 234122, Note_on_c, 0, 88, 100
1, 234124, Note_on_c, 0, 85, 98
1, 234127, Note_on_c, 0, 82, 88
1, 234134, Note_on_c, 0, 46, 77
1, 234135, Note_on_c, 0, 43, 76
1, 234138, Note_on_c, 0, 40, 64
1, 234148, Note_off_c, 0, 82, 65
1, 234171, Note_off_c, 0, 88, 66
1, 234181, Note_off_c, 0, 46, 60
1, 234184, Note_off_c, 0, 85, 64
1, 234210, Note_off_c, 0, 43, 62
1, 234219, Note_off_c, 0, 40, 62
1, 234268, Poly_aftertouch_c, 0, 86, 0
1, 234272, Note_on_c, 0, 86, 101
1, 234274, Note_on_c, 0, 44, 86
1, 234274, Note_on_c, 0, 89, 100
1, 234275, Note_on_c, 0, 41, 79
1, 234276, Note_on_c, 0, 38, 75
1, 234276, Note_on_c, 0, 83, 94
1, 234294, Note_off_c, 0, 83, 70
1, 234304, Note_off_c, 0, 38, 64
1, 234309, Note_off_c, 0, 41, 66
1, 234309, Note_off_c, 0, 86, 68
1, 234314, Note_off_c, 0, 89, 66
1, 234330, Control_c, 0, 64, 59
1, 234344, Control_c, 0, 64, 71
1, 234352, Note_off_c, 0, 44, 61
1, 234359, Control_c, 0, 64, 87
1, 234374, Control_c, 0, 64, 127
1, 234403, Control_c, 0, 64, 110
1, 234414, Note_on_c, 0, 39, 38
1, 234418, Control_c, 0, 64, 77
1, 234433, Control_c, 0, 64, 60
1, 234448, Control_c, 0, 64, 0
1, 234456, Note_off_c, 0, 39, 52
1, 234518, Note_on_c, 0, 45, 84
1, 234527, Note_on_c, 0, 93, 100
1, 234530, Note_on_c, 0, 105, 99
1, 234530, Note_on_c, 0, 33, 59
1, 234548, Note_off_c, 0, 105, 72
1, 234560, Note_off_c, 0, 33, 56
1, 234561, Note_off_c, 0, 93, 69
1, 234564, Note_off_c, 0, 45, 60
1, 234640, Note_on_c, 0, 44, 66
1, 234640, Note_on_c, 0, 89, 96
1, 234640, Note_on_c, 0, 93, 97
1, 234642, Note_on_c, 0, 98, 97
1, 234643, Note_on_c, 0, 86, 97
1, 234648, Note_on_c, 0, 50, 99
1, 234649, Note_on_c, 0, 38, 84
1, 234649, Note_on_c, 0, 41, 83
1, 234671, Control_c, 0, 64, 65
1, 234679, Note_on_c, 0, 88, 35
1, 234680, Note_off_c, 0, 88, 127
1, 234685, Note_on_c, 0, 45, 69
1, 234685, Note_off_c, 0, 44, 63
1, 234685, Note_off_c, 0, 98, 68
1, 234686, Control_c, 0, 64, 127
1, 234688, Note_on_c, 0, 42, 49
1, 234699, Note_off_c, 0, 93, 67
1, 234700, Note_off_c, 0, 38, 61
1, 234702, Note_off_c, 0, 86, 67
1, 234707, Note_off_c, 0, 89, 65
1, 234719, Note_off_c, 0, 41, 64
1, 234721, Note_off_c, 0, 42, 56
1, 234724, Note_off_c, 0, 45, 63
1, 234733, Note_off_c, 0, 50, 66
1, 234989, Control_c, 0, 64, 87
1, 235004, Control_c, 0, 64, 56
1, 235019, Control_c, 0, 64, 0
1, 239827, Note_on_c, 0, 64, 76
1, 239829, Note_on_c, 0, 60, 70
1, 239833, Note_on_c, 0, 52, 69
1, 239841, Note_on_c, 0, 45, 55
1, 239857, Note_off_c, 0, 52, 65
1, 239857, Note_off_c, 0, 60, 67
1, 239866, Note_off_c, 0, 45, 57
1, 239868, Note_off_c, 0, 64, 61
1, 239992, Note_on_c, 0, 57, 46
1, 240028, Note_off_c, 0, 57, 60
1, 240090, Note_on_c, 0, 60, 60
1, 240128, Note_off_c, 0, 60, 64
1, 240224, Note_on_c, 0, 57, 61
1, 240226, Note_on_c, 0, 69, 74
1, 240251, Note_off_c, 0, 69, 68
1, 240268, Note_off_c, 0, 57, 61
1, 240342, Note_on_c, 0, 65, 84
1, 240351, Note_on_c, 0, 59, 69
1, 240362, Note_off_c, 0, 65, 70
1, 240370, Note_on_c, 0, 62, 51
1, 240377, Note_off_c, 0, 59, 67
1, 240395, Note_off_c, 0, 62, 56
1, 240477, Note_on_c, 0, 57, 58
1, 240523, Note_off_c, 0, 57, 61
1, 240586, Note_on_c, 0, 52, 75
1, 240594, Note_on_c, 0, 40, 64
1, 240596, Note_on_c, 0, 62, 78
1, 240598, Note_on_c, 0, 59, 71
1, 240612, Note_off_c, 0, 52, 68
1, 240623, Note_off_c, 0, 40, 66
1, 240623, Note_off_c, 0, 62, 67
1, 240625, Note_off_c, 0, 59, 66
1, 240724, Note_on_c, 0, 57, 50
1, 240767, Note_off_c, 0, 57, 62
1, 240825, Note_on_c, 0, 64, 88
1, 240826, Note_on_c, 0, 52, 72
1, 240829, Note_on_c, 0, 60, 81
1, 240839, Note_on_c, 0, 45, 57
1, 240857, Note_off_c, 0, 52, 67
1, 240862, Note_off_c, 0, 60, 69
1, 240866, Note_off_c, 0, 45, 57
1, 240875, Note_off_c, 0, 64, 64
1, 240976, Note_on_c, 0, 57, 45
1, 241020, Note_off_c, 0, 57, 62
1, 241081, Note_on_c, 0, 60, 70
1, 241112, Note_off_c, 0, 60, 66
1, 241210, Note_on_c, 0, 57, 58
1, 241210, Note_on_c, 0, 69, 79
1, 241246, Note_off_c, 0, 57, 62
1, 241249, Note_off_c, 0, 69, 65
1, 241323, Note_on_c, 0, 65, 92
1, 241327, Note_on_c, 0, 63, 73
1, 241331, Note_on_c, 0, 59, 65
1, 241348, Note_off_c, 0, 65, 65
1, 241351, Note_off_c, 0, 63, 66
1, 241357, Note_off_c, 0, 59, 66
1, 241465, Note_on_c, 0, 57, 62
1, 241507, Note_off_c, 0, 57, 64
1, 241585, Note_on_c, 0, 52, 74
1, 241592, Note_on_c, 0, 40, 64
1, 241598, Note_on_c, 0, 62, 69
1, 241600, Note_on_c, 0, 59, 63
1, 241610, Note_off_c, 0, 52, 68
1, 241619, Note_off_c, 0, 40, 65
1, 241625, Note_off_c, 0, 62, 66
1, 241631, Note_off_c, 0, 59, 65
1, 241723, Note_on_c, 0, 57, 60
1, 241763, Note_off_c, 0, 57, 62
1, 241838, Note_on_c, 0, 52, 68
1, 241845, Note_on_c, 0, 45, 54
1, 241850, Note_on_c, 0, 64, 68
1, 241854, Note_on_c, 0, 60, 63
1, 241864, Note_off_c, 0, 52, 67
1, 241873, Note_off_c, 0, 45, 55
1, 241880, Note_off_c, 0, 64, 66
1, 241883, Note_off_c, 0, 60, 66
1, 241976, Note_on_c, 0, 65, 63
1, 241978, Note_on_c, 0, 57, 55
1, 242006, Note_off_c, 0, 65, 65
1, 242007, Note_off_c, 0, 57, 56
1, 242099, Note_on_c, 0, 63, 56
1, 242099, Note_on_c, 0, 66, 55
1, 242134, Note_off_c, 0, 66, 64
1, 242134, Note_off_c, 0, 63, 64
1, 242211, Note_on_c, 0, 76, 91
1, 242212, Note_on_c, 0, 67, 73
1, 242218, Note_on_c, 0, 60, 60
1, 242248, Note_off_c, 0, 67, 58
1, 242251, Note_off_c, 0, 60, 63
1, 242251, Note_off_c, 0, 76, 63
1, 242341, Note_on_c, 0, 76, 105
1, 242346, Note_on_c, 0, 72, 87
1, 242352, Note_on_c, 0, 68, 65
1, 242353, Note_on_c, 0, 64, 68
1, 242373, Note_off_c, 0, 76, 68
1, 242389, Note_off_c, 0, 72, 66
1, 242392, Note_off_c, 0, 68, 64
1, 242398, Note_off_c, 0, 64, 57
1, 242482, Note_on_c, 0, 60, 65
1, 242482, Note_on_c, 0, 67, 68
1, 242520, Note_off_c, 0, 67, 58
1, 242526, Note_off_c, 0, 60, 63
1, 242600, Note_on_c, 0, 66, 67
1, 242605, Note_on_c, 0, 63, 61
1, 242630, Note_off_c, 0, 66, 66
1, 242640, Note_off_c, 0, 63, 65
1, 242719, Note_on_c, 0, 60, 68
1, 242723, Note_on_c, 0, 65, 61
1, 242725, Note_on_c, 0, 45, 77
1, 242758, Note_off_c, 0, 65, 63
1, 242766, Note_off_c, 0, 45, 64
1, 242772, Note_off_c, 0, 60, 61
1, 242830, Note_on_c, 0, 52, 95
1, 242835, Note_on_c, 0, 40, 80
1, 242836, Note_on_c, 0, 64, 79
1, 242843, Note_on_c, 0, 63, 74
1, 242860, Note_off_c, 0, 52, 68
1, 242861, Note_off_c, 0, 40, 66
1, 242879, Note_off_c, 0, 63, 64
1, 242881, Note_off_c, 0, 64, 62
1, 242970, Note_on_c, 0, 65, 65
1, 242971, Note_on_c, 0, 60, 62
1, 243001, Note_off_c, 0, 65, 65
1, 243008, Note_off_c, 0, 60, 63
1, 243094, Note_on_c, 0, 66, 67
1, 243095, Note_on_c, 0, 62, 74
1, 243137, Note_off_c, 0, 66, 60
1, 243139, Note_off_c, 0, 62, 59
1, 243208, Note_on_c, 0, 83, 90
1, 243213, Note_on_c, 0, 59, 77
1, 243214, Note_on_c, 0, 67, 77
1, 243214, Note_on_c, 0, 76, 71
1, 243258, Note_off_c, 0, 59, 62
1, 243258, Note_off_c, 0, 83, 64
1, 243261, Note_off_c, 0, 67, 60
1, 243275, Note_off_c, 0, 76, 61
1, 243333, Note_on_c, 0, 76, 96
1, 243342, Note_on_c, 0, 71, 83
1, 243345, Note_on_c, 0, 61, 77
1, 243346, Note_on_c, 0, 68, 73
1, 243375, Note_off_c, 0, 71, 66
1, 243378, Note_off_c, 0, 76, 69
1, 243399, Note_off_c, 0, 68, 61
1, 243404, Note_off_c, 0, 61, 61
1, 243461, Note_on_c, 0, 67, 70
1, 243469, Note_on_c, 0, 58, 69
1, 243503, Note_off_c, 0, 58, 63
1, 243503, Note_off_c, 0, 67, 61
1, 243586, Note_on_c, 0, 66, 58
1, 243589, Note_on_c, 0, 62, 59
1, 243621, Note_off_c, 0, 62, 65
1, 243624, Note_off_c, 0, 66, 65
1, 243705, Note_on_c, 0, 65, 56
1, 243714, Note_on_c, 0, 59, 48
1, 243741, Note_off_c, 0, 65, 65
1, 243747, Note_off_c, 0, 59, 61
1, 243817, Note_on_c, 0, 45, 59
1, 243831, Note_on_c, 0, 52, 62
1, 243834, Note_on_c, 0, 64, 67
1, 243840, Note_on_c, 0, 62, 56
1, 243852, Note_off_c, 0, 52, 63
1, 243855, Note_off_c, 0, 45, 63
1, 243866, Note_off_c, 0, 64, 65
1, 243870, Note_off_c, 0, 62, 64
1, 243963, Note_on_c, 0, 57, 54
1, 244002, Note_off_c, 0, 57, 55
1, 244087, Note_on_c, 0, 61, 60
1, 244123, Note_off_c, 0, 61, 65
1, 244190, Note_on_c, 0, 69, 79
1, 244214, Note_on_c, 0, 57, 57
1, 244227, Note_off_c, 0, 69, 66
1, 244258, Note_off_c, 0, 57, 60
1, 244324, Note_on_c, 0, 65, 88
1, 244333, Note_on_c, 0, 63, 70
1, 244337, Note_on_c, 0, 60, 62
1, 244343, Note_off_c, 0, 65, 69
1, 244360, Note_off_c, 0, 63, 68
1, 244364, Note_off_c, 0, 60, 66
1, 244463, Note_on_c, 0, 57, 61
1, 244501, Note_off_c, 0, 57, 64
1, 244588, Note_on_c, 0, 52, 79
1, 244591, Note_on_c, 0, 59, 76
1, 244591, Note_on_c, 0, 62, 74
1, 244597, Note_on_c, 0, 40, 67
1, 244615, Note_off_c, 0, 52, 70
1, 244619, Note_off_c, 0, 59, 66
1, 244621, Note_off_c, 0, 62, 66
1, 244624, Note_off_c, 0, 40, 65
1, 244723, Note_on_c, 0, 57, 55
1, 244768, Note_off_c, 0, 57, 59
1, 244847, Note_on_c, 0, 64, 75
1, 244847, Note_on_c, 0, 52, 74
1, 244849, Note_on_c, 0, 45, 68
1, 244851, Note_on_c, 0, 62, 70
1, 244876, Note_off_c, 0, 52, 69
1, 244878, Note_off_c, 0, 64, 65
1, 244880, Note_off_c, 0, 45, 65
1, 244880, Note_off_c, 0, 62, 67
1, 244979, Note_on_c, 0, 57, 61
1, 245023, Note_off_c, 0, 57, 58
1, 245097, Note_on_c, 0, 61, 69
1, 245126, Note_off_c, 0, 61, 66
1, 245220, Note_on_c, 0, 69, 80
1, 245223, Note_on_c, 0, 57, 58
1, 245255, Note_off_c, 0, 69, 61
1, 245264, Note_off_c, 0, 57, 62
1, 245348, Note_on_c, 0, 65, 93
1, 245351, Note_on_c, 0, 63, 73
1, 245352, Note_on_c, 0, 60, 70
1, 245369, Note_off_c, 0, 65, 70
1, 245373, Note_off_c, 0, 63, 67
1, 245378, Note_off_c, 0, 60, 66
1, 245481, Note_on_c, 0, 57, 59
1, 245521, Note_off_c, 0, 57, 64
1, 245601, Note_on_c, 0, 62, 71
1, 245602, Note_on_c, 0, 52, 71
1, 245604, Note_on_c, 0, 59, 63
1, 245613, Note_on_c, 0, 40, 55
1, 245625, Note_off_c, 0, 52, 65
1, 245629, Note_off_c, 0, 62, 67
1, 245634, Note_off_c, 0, 59, 65
1, 245643, Note_off_c, 0, 40, 61
1, 245726, Note_on_c, 0, 57, 59
1, 245768, Note_off_c, 0, 57, 63
1, 245848, Note_on_c, 0, 52, 75
1, 245852, Note_on_c, 0, 45, 66
1, 245856, Note_on_c, 0, 64, 68
1, 245860, Note_on_c, 0, 60, 63
1, 245877, Note_off_c, 0, 52, 68
1, 245879, Note_off_c, 0, 45, 65
1, 245886, Note_off_c, 0, 64, 66
1, 245890, Note_off_c, 0, 60, 66
1, 245971, Note_on_c, 0, 65, 69
1, 245981, Note_on_c, 0, 57, 62
1, 246011, Note_off_c, 0, 65, 63
1, 246015, Note_off_c, 0, 57, 64
1, 246099, Note_on_c, 0, 66, 69
1, 246106, Note_on_c, 0, 63, 64
1, 246145, Note_off_c, 0, 66, 61
1, 246146, Note_off_c, 0, 63, 62
1, 246221, Note_on_c, 0, 67, 73
1, 246224, Note_on_c, 0, 76, 89
1, 246225, Note_on_c, 0, 60, 69
1, 246261, Note_off_c, 0, 67, 63
1, 246262, Note_off_c, 0, 76, 63
1, 246264, Note_off_c, 0, 60, 64
1, 246340, Note_on_c, 0, 72, 92
1, 246341, Note_on_c, 0, 76, 100
1, 246347, Note_on_c, 0, 68, 68
1, 246350, Note_on_c, 0, 64, 67
1, 246368, Note_off_c, 0, 76, 65
1, 246386, Note_off_c, 0, 72, 66
1, 246391, Note_off_c, 0, 64, 60
1, 246400, Note_off_c, 0, 68, 61
1, 246477, Note_on_c, 0, 60, 63
1, 246478, Note_on_c, 0, 66, 63
1, 246510, Note_off_c, 0, 60, 63
1, 246525, Note_off_c, 0, 66, 58
1, 246603, Note_on_c, 0, 64, 58
1, 246606, Note_on_c, 0, 67, 55
1, 246638, Note_off_c, 0, 64, 65
1, 246641, Note_off_c, 0, 67, 66
1, 246715, Note_on_c, 0, 61, 74
1, 246719, Note_on_c, 0, 68, 70
1, 246728, Note_on_c, 0, 45, 74
1, 246758, Note_off_c, 0, 61, 58
1, 246773, Note_off_c, 0, 68, 59
1, 246778, Note_off_c, 0, 45, 61
1, 246845, Note_on_c, 0, 50, 90
1, 246849, Note_on_c, 0, 64, 72
1, 246851, Note_on_c, 0, 69, 76
1, 246854, Note_on_c, 0, 38, 71
1, 246862, Note_on_c, 0, 60, 53
1, 246876, Note_off_c, 0, 64, 67
1, 246881, Note_off_c, 0, 38, 64
1, 246881, Note_off_c, 0, 50, 65
1, 246883, Note_off_c, 0, 60, 59
1, 246891, Note_off_c, 0, 69, 64
1, 246974, Note_on_c, 0, 68, 80
1, 246982, Note_on_c, 0, 65, 67
1, 247011, Note_off_c, 0, 68, 65
1, 247014, Note_off_c, 0, 65, 65
1, 247091, Note_on_c, 0, 66, 79
1, 247092, Note_on_c, 0, 69, 74
1, 247123, Note_off_c, 0, 66, 66
1, 247130, Note_off_c, 0, 69, 66
1, 247206, Note_on_c, 0, 83, 92
1, 247220, Note_on_c, 0, 67, 79
1, 247221, Note_on_c, 0, 71, 80
1, 247252, Note_off_c, 0, 83, 64
1, 247252, Note_off_c, 0, 67, 61
1, 247258, Note_off_c, 0, 71, 65
1, 247328, Note_on_c, 0, 79, 98
1, 247330, Note_on_c, 0, 83, 99
1, 247339, Note_on_c, 0, 69, 84
1, 247340, Note_on_c, 0, 72, 85
1, 247353, Note_off_c, 0, 83, 69
1, 247360, Note_off_c, 0, 69, 69
1, 247366, Note_off_c, 0, 79, 66
1, 247382, Note_off_c, 0, 72, 64
1, 247460, Note_on_c, 0, 71, 75
1, 247460, Note_on_c, 0, 74, 81
1, 247493, Note_off_c, 0, 74, 58
1, 247496, Note_off_c, 0, 71, 62
1, 247584, Note_on_c, 0, 76, 78
1, 247589, Note_on_c, 0, 72, 71
1, 247613, Note_off_c, 0, 76, 68
1, 247615, Note_off_c, 0, 72, 68
1, 247700, Note_on_c, 0, 74, 77
1, 247702, Note_on_c, 0, 78, 82
1, 247733, Note_off_c, 0, 74, 59
1, 247756, Note_off_c, 0, 78, 62
1, 247816, Note_on_c, 0, 67, 97
1, 247819, Note_on_c, 0, 78, 83
1, 247820, Note_on_c, 0, 74, 87
1, 247823, Note_on_c, 0, 79, 79
1, 247843, Note_off_c, 0, 74, 65
1, 247843, Note_off_c, 0, 78, 71
1, 247846, Note_off_c, 0, 67, 69
1, 247859, Note_off_c, 0, 79, 64
1, 247936, Note_on_c, 0, 76, 79
1, 247938, Note_on_c, 0, 72, 78
1, 247939, Note_on_c, 0, 79, 73
1, 247968, Note_off_c, 0, 76, 64
1, 247972, Note_off_c, 0, 79, 63
1, 247977, Note_off_c, 0, 72, 62
1, 248053, Note_on_c, 0, 74, 80
1, 248057, Note_on_c, 0, 71, 79
1, 248062, Note_on_c, 0, 79, 78
1, 248089, Note_off_c, 0, 74, 63
1, 248094, Note_off_c, 0, 79, 62
1, 248097, Note_off_c, 0, 71, 62
1, 248171, Note_on_c, 0, 86, 94
1, 248180, Note_on_c, 0, 69, 78
1, 248182, Note_on_c, 0, 79, 77
1, 248188, Note_on_c, 0, 72, 63
1, 248216, Note_off_c, 0, 79, 62
1, 248218, Note_off_c, 0, 86, 62
1, 248219, Note_off_c, 0, 72, 66
1, 248221, Note_off_c, 0, 69, 60
1, 248299, Note_on_c, 0, 91, 107
1, 248305, Note_on_c, 0, 79, 78
1, 248308, Note_on_c, 0, 67, 74
1, 248320, Note_on_c, 0, 71, 66
1, 248337, Note_off_c, 0, 79, 63
1, 248342, Note_off_c, 0, 91, 67
1, 248350, Note_off_c, 0, 67, 58
1, 248353, Note_off_c, 0, 71, 66
1, 248434, Note_on_c, 0, 78, 78
1, 248442, Note_on_c, 0, 67, 70
1, 248454, Note_on_c, 0, 71, 51
1, 248467, Note_off_c, 0, 78, 64
1, 248468, Note_off_c, 0, 67, 68
1, 248482, Note_off_c, 0, 71, 64
1, 248555, Note_on_c, 0, 71, 70
1, 248559, Note_on_c, 0, 76, 66
1, 248560, Note_on_c, 0, 68, 67
1, 248595, Note_off_c, 0, 68, 61
1, 248595, Note_off_c, 0, 76, 64
1, 248599, Note_off_c, 0, 71, 63
1, 248673, Note_on_c, 0, 74, 71
1, 248676, Note_on_c, 0, 68, 68
1, 248681, Note_on_c, 0, 67, 84
1, 248711, Note_off_c, 0, 74, 62
1, 248719, Note_off_c, 0, 68, 61
1, 248722, Note_off_c, 0, 67, 63
1, 248795, Note_on_c, 0, 62, 95
1, 248801, Note_on_c, 0, 68, 77
1, 248802, Note_on_c, 0, 74, 71
1, 248809, Note_on_c, 0, 72, 54
1, 248831, Note_off_c, 0, 62, 64
1, 248839, Note_off_c, 0, 72, 66
1, 248839, Note_off_c, 0, 74, 63
1, 248848, Note_off_c, 0, 68, 59
1, 248911, Note_on_c, 0, 71, 80
1, 248914, Note_on_c, 0, 67, 76
1, 248919, Note_on_c, 0, 74, 61
1, 248941, Note_off_c, 0, 67, 66
1, 248950, Note_off_c, 0, 74, 64
1, 248952, Note_off_c, 0, 71, 62
1, 249026, Note_on_c, 0, 74, 71
1, 249031, Note_on_c, 0, 69, 74
1, 249036, Note_on_c, 0, 66, 71
1, 249062, Note_off_c, 0, 69, 64
1, 249065, Note_off_c, 0, 66, 67
1, 249089, Note_off_c, 0, 74, 57
1, 249158, Note_on_c, 0, 86, 79
1, 249165, Note_on_c, 0, 88, 66
1, 249166, Note_on_c, 0, 64, 80
1, 249169, Note_on_c, 0, 67, 73
1, 249171, Note_on_c, 0, 74, 67
1, 249181, Note_off_c, 0, 88, 66
1, 249199, Note_off_c, 0, 86, 65
1, 249200, Note_off_c, 0, 67, 65
1, 249205, Note_off_c, 0, 74, 63
1, 249220, Note_off_c, 0, 64, 62
1, 249278, Note_on_c, 0, 81, 106
1, 249287, Note_on_c, 0, 74, 82
1, 249289, Note_on_c, 0, 62, 77
1, 249290, Note_on_c, 0, 66, 76
1, 249307, Note_off_c, 0, 81, 67
1, 249312, Note_off_c, 0, 74, 63
1, 249315, Note_off_c, 0, 66, 68
1, 249321, Note_off_c, 0, 62, 65
1, 249414, Note_on_c, 0, 63, 64
1, 249416, Note_on_c, 0, 62, 72
1, 249444, Note_off_c, 0, 62, 65
1, 249446, Note_on_c, 0, 71, 21
1, 249448, Note_off_c, 0, 63, 64
1, 249472, Note_off_c, 0, 71, 45
1, 249531, Note_on_c, 0, 62, 68
1, 249538, Note_on_c, 0, 64, 64
1, 249557, Note_on_c, 0, 71, 40
1, 249566, Note_off_c, 0, 62, 61
1, 249569, Note_off_c, 0, 64, 66
1, 249584, Note_off_c, 0, 71, 52
1, 249646, Note_on_c, 0, 65, 67
1, 249651, Note_on_c, 0, 69, 65
1, 249657, Note_on_c, 0, 50, 58
1, 249664, Note_on_c, 0, 62, 61
1, 249685, Note_off_c, 0, 65, 61
1, 249694, Note_off_c, 0, 69, 65
1, 249698, Note_off_c, 0, 62, 65
1, 249701, Note_off_c, 0, 50, 64
1, 249766, Note_on_c, 0, 62, 76
1, 249767, Note_on_c, 0, 55, 85
1, 249771, Note_on_c, 0, 66, 71
1, 249771, Note_on_c, 0, 67, 72
1, 249790, Note_off_c, 0, 55, 70
1, 249798, Note_off_c, 0, 66, 69
1, 249801, Note_off_c, 0, 62, 62
1, 249804, Note_off_c, 0, 67, 63
1, 249897, Note_on_c, 0, 67, 72
1, 249899, Note_on_c, 0, 64, 67
1, 249903, Note_on_c, 0, 60, 61
1, 249927, Note_off_c, 0, 64, 67
1, 249928, Note_off_c, 0, 67, 63
1, 249935, Note_off_c, 0, 60, 66
1, 250017, Note_on_c, 0, 62, 71
1, 250018, Note_on_c, 0, 59, 69
1, 250019, Note_on_c, 0, 67, 71
1, 250046, Note_off_c, 0, 67, 65
1, 250049, Note_off_c, 0, 62, 65
1, 250052, Note_off_c, 0, 59, 63
1, 250120, Note_on_c, 0, 74, 77
1, 250136, Note_on_c, 0, 67, 77
1, 250146, Note_on_c, 0, 57, 70
1, 250154, Note_on_c, 0, 60, 55
1, 250161, Note_off_c, 0, 74, 64
1, 250180, Note_off_c, 0, 57, 64
1, 250183, Note_off_c, 0, 67, 57
1, 250184, Note_off_c, 0, 60, 65
1, 250239, Note_on_c, 0, 79, 107
1, 250261, Note_on_c, 0, 59, 77
1, 250262, Note_on_c, 0, 55, 77
1, 250262, Note_on_c, 0, 67, 75
1, 250269, Note_off_c, 0, 79, 71
1, 250288, Note_off_c, 0, 67, 66
1, 250296, Note_off_c, 0, 55, 63
1, 250298, Note_off_c, 0, 59, 65
1, 250374, Note_on_c, 0, 66, 79
1, 250382, Note_on_c, 0, 55, 73
1, 250404, Note_on_c, 0, 59, 38
1, 250412, Note_off_c, 0, 55, 67
1, 250427, Note_off_c, 0, 66, 61
1, 250428, Note_off_c, 0, 59, 58
1, 250492, Note_on_c, 0, 64, 72
1, 250496, Note_on_c, 0, 59, 75
1, 250502, Note_on_c, 0, 56, 63
1, 250534, Note_off_c, 0, 56, 66
1, 250535, Note_off_c, 0, 59, 61
1, 250537, Note_off_c, 0, 64, 59
1, 250614, Note_on_c, 0, 56, 73
1, 250620, Note_on_c, 0, 62, 72
1, 250624, Note_on_c, 0, 55, 75
1, 250654, Note_off_c, 0, 55, 69
1, 250660, Note_off_c, 0, 62, 64
1, 250663, Note_off_c, 0, 56, 60
1, 250670, Note_on_c, 0, 59, 2
1, 250671, Note_off_c, 0, 59, 127
1, 250743, Note_on_c, 0, 50, 82
1, 250749, Note_on_c, 0, 56, 75
1, 250749, Note_on_c, 0, 62, 72
1, 250752, Note_on_c, 0, 60, 66
1, 250767, Note_off_c, 0, 50, 67
1, 250782, Note_off_c, 0, 60, 66
1, 250783, Note_off_c, 0, 56, 66
1, 250786, Note_off_c, 0, 62, 64
1, 250857, Note_on_c, 0, 59, 70
1, 250860, Note_on_c, 0, 55, 73
1, 250869, Note_on_c, 0, 62, 53
1, 250890, Note_off_c, 0, 55, 67
1, 250891, Note_off_c, 0, 59, 65
1, 250898, Note_off_c, 0, 62, 64
1, 250980, Note_on_c, 0, 62, 65
1, 250983, Note_on_c, 0, 54, 72
1, 250987, Note_on_c, 0, 57, 53
1, 251010, Note_off_c, 0, 57, 59
1, 251014, Note_off_c, 0, 54, 65
1, 251015, Note_off_c, 0, 62, 62
1, 251107, Note_on_c, 0, 74, 85
1, 251113, Note_on_c, 0, 62, 65
1, 251113, Note_on_c, 0, 52, 70
1, 251126, Note_on_c, 0, 55, 48
1, 251144, Note_off_c, 0, 74, 64
1, 251146, Note_off_c, 0, 62, 64
1, 251152, Note_off_c, 0, 55, 58
1, 251153, Note_off_c, 0, 52, 62
1, 251223, Note_on_c, 0, 62, 70
1, 251232, Note_on_c, 0, 50, 70
1, 251232, Note_on_c, 0, 71, 79
1, 251234, Note_on_c, 0, 54, 72
1, 251239, Note_on_c, 0, 69, 71
1, 251252, Note_off_c, 0, 62, 65
1, 251255, Note_off_c, 0, 71, 69
1, 251256, Note_off_c, 0, 69, 67
1, 251265, Note_off_c, 0, 54, 66
1, 251266, Note_off_c, 0, 50, 65
1, 251357, Note_on_c, 0, 50, 70
1, 251361, Note_on_c, 0, 51, 69
1, 251387, Note_on_c, 0, 60, 18
1, 251392, Note_off_c, 0, 50, 63
1, 251394, Note_on_c, 0, 59, 18
1, 251395, Note_off_c, 0, 51, 65
1, 251425, Note_off_c, 0, 60, 38
1, 251426, Note_off_c, 0, 59, 43
1, 251474, Note_on_c, 0, 52, 71
1, 251480, Note_on_c, 0, 50, 61
1, 251489, Note_on_c, 0, 59, 52
1, 251517, Note_off_c, 0, 50, 62
1, 251524, Note_off_c, 0, 59, 65
1, 251526, Note_off_c, 0, 52, 62
1, 251592, Note_on_c, 0, 57, 72
1, 251593, Note_on_c, 0, 53, 69
1, 251599, Note_on_c, 0, 50, 62
1, 251638, Note_off_c, 0, 50, 64
1, 251638, Note_off_c, 0, 53, 62
1, 251655, Note_off_c, 0, 57, 64
1, 251708, Note_on_c, 0, 56, 90
1, 251708, Note_on_c, 0, 64, 107
1, 251712, Note_on_c, 0, 50, 66
1, 251729, Control_c, 0, 64, 49
1, 251730, Note_off_c, 0, 64, 69
1, 251735, Note_off_c, 0, 50, 62
1, 251741, Note_off_c, 0, 56, 67
1, 251743, Control_c, 0, 64, 75
1, 251758, Control_c, 0, 64, 127
1, 251936, Control_c, 0, 64, 108
1, 251951, Control_c, 0, 64, 71
1, 251952, Note_on_c, 0, 71, 81
1, 251953, Note_on_c, 0, 76, 77
1, 251955, Note_on_c, 0, 75, 64
1, 251965, Control_c, 0, 64, 32
1, 251980, Control_c, 0, 64, 0
1, 251983, Note_off_c, 0, 76, 66
1, 251985, Note_off_c, 0, 71, 59
1, 251985, Note_off_c, 0, 75, 67
1, 252068, Note_on_c, 0, 69, 81
1, 252069, Note_on_c, 0, 76, 80
1, 252080, Note_on_c, 0, 73, 50
1, 252086, Note_on_c, 0, 83, 61
1, 252103, Note_off_c, 0, 73, 59
1, 252110, Note_off_c, 0, 76, 63
1, 252118, Note_off_c, 0, 69, 61
1, 252150, Note_on_c, 0, 85, 70
1, 252158, Note_off_c, 0, 83, 47
1, 252166, Note_on_c, 0, 87, 78
1, 252172, Note_on_c, 0, 88, 84
1, 252181, Control_c, 0, 64, 47
1, 252186, Note_off_c, 0, 87, 71
1, 252189, Note_off_c, 0, 88, 73
1, 252196, Control_c, 0, 64, 60
1, 252198, Note_off_c, 0, 85, 67
1, 252199, Note_on_c, 0, 68, 78
1, 252199, Note_on_c, 0, 76, 68
1, 252209, Note_on_c, 0, 62, 68
1, 252210, Note_on_c, 0, 64, 46
1, 252211, Control_c, 0, 64, 69
1, 252218, Note_off_c, 0, 76, 64
1, 252226, Control_c, 0, 64, 104
1, 252229, Note_off_c, 0, 62, 64
1, 252231, Note_off_c, 0, 68, 59
1, 252240, Note_off_c, 0, 64, 65
1, 252240, Control_c, 0, 64, 127
1, 252300, Control_c, 0, 64, 100
1, 252313, Note_on_c, 0, 75, 82
1, 252314, Control_c, 0, 64, 73
1, 252317, Note_on_c, 0, 64, 73
1, 252327, Note_on_c, 0, 68, 64
1, 252329, Control_c, 0, 64, 56
1, 252330, Note_on_c, 0, 52, 80
1, 252344, Control_c, 0, 64, 0
1, 252347, Note_off_c, 0, 64, 64
1, 252364, Note_off_c, 0, 68, 64
1, 252365, Note_off_c, 0, 52, 62
1, 252368, Note_off_c, 0, 75, 63
1, 252434, Note_on_c, 0, 73, 72
1, 252436, Note_on_c, 0, 65, 70
1, 252438, Note_on_c, 0, 68, 69
1, 252441, Note_on_c, 0, 56, 81
1, 252449, Note_off_c, 0, 73, 66
1, 252469, Note_off_c, 0, 65, 62
1, 252475, Note_off_c, 0, 68, 60
1, 252482, Note_off_c, 0, 56, 63
1, 252550, Note_on_c, 0, 71, 76
1, 252556, Note_on_c, 0, 65, 71
1, 252563, Note_on_c, 0, 52, 68
1, 252595, Note_off_c, 0, 65, 59
1, 252599, Note_off_c, 0, 71, 58
1, 252602, Note_off_c, 0, 52, 63
1, 252661, Note_on_c, 0, 59, 95
1, 252666, Note_on_c, 0, 71, 77
1, 252681, Note_on_c, 0, 69, 42
1, 252688, Note_off_c, 0, 59, 66
1, 252709, Note_off_c, 0, 69, 54
1, 252711, Note_off_c, 0, 71, 62
1, 252784, Note_on_c, 0, 71, 65
1, 252789, Note_on_c, 0, 68, 69
1, 252793, Note_on_c, 0, 64, 63
1, 252831, Note_off_c, 0, 64, 66
1, 252833, Note_off_c, 0, 71, 60
1, 252837, Note_off_c, 0, 68, 64
1, 252905, Note_on_c, 0, 70, 96
1, 252922, Note_off_c, 0, 70, 71
1, 252924, Note_on_c, 0, 63, 78
1, 252930, Note_on_c, 0, 71, 66
1, 252952, Note_off_c, 0, 63, 64
1, 252964, Note_off_c, 0, 71, 61
1, 253036, Note_on_c, 0, 61, 68
1, 253042, Note_on_c, 0, 64, 55
1, 253042, Note_on_c, 0, 71, 40
1, 253067, Note_off_c, 0, 71, 52
1, 253074, Note_off_c, 0, 61, 59
1, 253078, Note_off_c, 0, 64, 65
1, 253122, Control_c, 0, 64, 28
1, 253137, Control_c, 0, 64, 51
1, 253144, Note_on_c, 0, 83, 100
1, 253151, Note_on_c, 0, 71, 75
1, 253152, Control_c, 0, 64, 62
1, 253156, Note_on_c, 0, 59, 84
1, 253161, Note_on_c, 0, 63, 78
1, 253167, Note_off_c, 0, 83, 70
1, 253167, Control_c, 0, 64, 70
1, 253182, Control_c, 0, 64, 89
1, 253186, Note_off_c, 0, 59, 60
1, 253194, Note_off_c, 0, 63, 57
1, 253197, Control_c, 0, 64, 127
1, 253203, Note_off_c, 0, 71, 61
1, 253271, Note_on_c, 0, 66, 74
1, 253280, Note_on_c, 0, 69, 61
1, 253287, Note_on_c, 0, 60, 64
1, 253289, Note_on_c, 0, 59, 61
1, 253310, Note_off_c, 0, 69, 66
1, 253311, Note_off_c, 0, 66, 57
1, 253313, Note_off_c, 0, 59, 69
1, 253318, Note_off_c, 0, 60, 66
1, 253329, Control_c, 0, 64, 92
1, 253344, Control_c, 0, 64, 72
1, 253359, Control_c, 0, 64, 58
1, 253366, Note_on_c, 0, 54, 85
1, 253374, Control_c, 0, 64, 0
1, 253389, Note_off_c, 0, 54, 70
1, 253396, Note_on_c, 0, 68, 72
1, 253398, Note_on_c, 0, 59, 66
1, 253398, Note_on_c, 0, 61, 67
1, 253425, Note_off_c, 0, 59, 67
1, 253435, Note_off_c, 0, 68, 60
1, 253439, Note_off_c, 0, 61, 59
1, 253504, Note_on_c, 0, 47, 63
1, 253511, Note_on_c, 0, 66, 73
1, 253513, Note_on_c, 0, 62, 72
1, 253514, Note_on_c, 0, 59, 74
1, 253547, Note_off_c, 0, 47, 62
1, 253552, Note_off_c, 0, 59, 58
1, 253552, Note_off_c, 0, 62, 63
1, 253581, Note_off_c, 0, 66, 62
1, 253633, Note_on_c, 0, 52, 82
1, 253644, Note_on_c, 0, 63, 71
1, 253644, Note_on_c, 0, 64, 73
1, 253646, Note_on_c, 0, 59, 80
1, 253656, Note_off_c, 0, 52, 68
1, 253680, Note_off_c, 0, 59, 66
1, 253681, Note_off_c, 0, 63, 63
1, 253684, Note_off_c, 0, 64, 62
1, 253775, Note_on_c, 0, 61, 73
1, 253775, Note_on_c, 0, 64, 72
1, 253775, Note_on_c, 0, 57, 76
1, 253812, Note_off_c, 0, 57, 64
1, 253813, Note_off_c, 0, 61, 60
1, 253814, Note_off_c, 0, 64, 63
1, 253871, Control_c, 0, 64, 44
1, 253876, Note_on_c, 0, 71, 91
1, 253876, Note_on_c, 0, 76, 87
1, 253885, Control_c, 0, 64, 59
1, 253893, Note_on_c, 0, 56, 86
1, 253893, Note_on_c, 0, 59, 79
1, 253894, Note_off_c, 0, 71, 66
1, 253897, Note_on_c, 0, 64, 74
1, 253899, Note_off_c, 0, 76, 71
1, 253900, Control_c, 0, 64, 66
1, 253907, Note_on_c, 0, 74, 48
1, 253908, Note_off_c, 0, 74, 127
1, 253915, Control_c, 0, 64, 81
1, 253930, Control_c, 0, 64, 127
1, 253933, Note_off_c, 0, 64, 60
1, 253940, Note_off_c, 0, 59, 61
1, 253947, Note_off_c, 0, 56, 64
1, 254023, Note_on_c, 0, 54, 80
1, 254028, Note_on_c, 0, 57, 64
1, 254035, Note_on_c, 0, 71, 97
1, 254041, Note_on_c, 0, 64, 54
1, 254046, Note_on_c, 0, 76, 86
1, 254052, Note_off_c, 0, 54, 69
1, 254056, Note_off_c, 0, 57, 66
1, 254061, Note_off_c, 0, 64, 62
1, 254065, Note_off_c, 0, 71, 70
1, 254080, Note_off_c, 0, 76, 63
1, 254118, Note_on_c, 0, 64, 73
1, 254119, Note_on_c, 0, 52, 70
1, 254123, Note_on_c, 0, 56, 69
1, 254151, Note_off_c, 0, 64, 64
1, 254152, Note_on_c, 0, 53, 31
1, 254168, Note_off_c, 0, 56, 60
1, 254170, Note_off_c, 0, 52, 64
1, 254187, Note_off_c, 0, 53, 52
1, 254222, Note_on_c, 0, 40, 75
1, 254237, Note_on_c, 0, 63, 84
1, 254243, Note_on_c, 0, 52, 76
1, 254246, Note_on_c, 0, 56, 68
1, 254257, Note_off_c, 0, 40, 66
1, 254271, Control_c, 0, 64, 98
1, 254275, Note_off_c, 0, 52, 65
1, 254282, Note_off_c, 0, 56, 62
1, 254285, Control_c, 0, 64, 68
1, 254291, Note_off_c, 0, 63, 64
1, 254300, Control_c, 0, 64, 0
1, 254354, Note_on_c, 0, 44, 76
1, 254376, Note_on_c, 0, 61, 72
1, 254377, Note_on_c, 0, 53, 73
1, 254379, Note_on_c, 0, 56, 71
1, 254386, Note_off_c, 0, 44, 67
1, 254408, Note_off_c, 0, 53, 64
1, 254413, Note_off_c, 0, 56, 66
1, 254417, Note_off_c, 0, 61, 61
1, 254491, Note_on_c, 0, 40, 59
1, 254498, Note_on_c, 0, 53, 65
1, 254498, Note_on_c, 0, 59, 67
1, 254502, Note_on_c, 0, 56, 65
1, 254540, Note_off_c, 0, 56, 65
1, 254543, Note_off_c, 0, 53, 62
1, 254544, Note_off_c, 0, 59, 61
1, 254548, Note_off_c, 0, 40, 58
1, 254606, Note_on_c, 0, 47, 81
1, 254614, Note_on_c, 0, 59, 71
1, 254615, Note_on_c, 0, 57, 73
1, 254628, Note_on_c, 0, 54, 57
1, 254630, Note_off_c, 0, 47, 66
1, 254649, Note_off_c, 0, 57, 67
1, 254653, Note_off_c, 0, 54, 38
1, 254654, Note_off_c, 0, 59, 64
1, 254733, Note_on_c, 0, 59, 60
1, 254737, Note_on_c, 0, 52, 63
1, 254745, Note_on_c, 0, 56, 60
1, 254777, Note_off_c, 0, 52, 65
1, 254777, Note_off_c, 0, 59, 64
1, 254782, Note_off_c, 0, 56, 65
1, 254869, Note_on_c, 0, 51, 83
1, 254877, Note_on_c, 0, 59, 65
1, 254904, Note_off_c, 0, 51, 63
1, 254905, Note_off_c, 0, 59, 65
1, 254985, Note_on_c, 0, 49, 66
1, 254991, Note_on_c, 0, 59, 43
1, 254993, Note_on_c, 0, 52, 52
1, 255020, Note_off_c, 0, 59, 59
1, 255021, Note_off_c, 0, 52, 65
1, 255027, Note_off_c, 0, 49, 62
1, 255086, Control_c, 0, 64, 39
1, 255101, Control_c, 0, 64, 55
1, 255110, Note_on_c, 0, 59, 64
1, 255112, Note_on_c, 0, 51, 69
1, 255116, Control_c, 0, 64, 63
1, 255126, Note_on_c, 0, 69, 30
1, 255127, Note_off_c, 0, 69, 127
1, 255127, Note_on_c, 0, 47, 29
1, 255131, Control_c, 0, 64, 70
1, 255132, Note_on_c, 0, 48, 36
1, 255137, Note_off_c, 0, 51, 67
1, 255143, Note_off_c, 0, 59, 65
1, 255146, Control_c, 0, 64, 95
1, 255160, Poly_aftertouch_c, 0, 69, 0
1, 255160, Control_c, 0, 64, 127
1, 255165, Note_off_c, 0, 47, 55
1, 255166, Note_off_c, 0, 48, 54
1, 255235, Control_c, 0, 64, 80
1, 255236, Note_on_c, 0, 64, 68
1, 255236, Note_on_c, 0, 59, 55
1, 255238, Note_on_c, 0, 38, 69
1, 255238, Note_on_c, 0, 50, 73
1, 255242, Note_on_c, 0, 53, 63
1, 255249, Control_c, 0, 64, 63
1, 255265, Note_off_c, 0, 50, 65
1, 255265, Note_off_c, 0, 53, 61
1, 255265, Control_c, 0, 64, 0
1, 255269, Note_on_c, 0, 56, 27
1, 255271, Note_off_c, 0, 38, 65
1, 255272, Note_off_c, 0, 59, 64
1, 255275, Note_off_c, 0, 64, 57
1, 255309, Note_off_c, 0, 56, 30
1, 255350, Note_on_c, 0, 53, 68
1, 255354, Note_on_c, 0, 60, 72
1, 255355, Note_on_c, 0, 48, 83
1, 255359, Note_on_c, 0, 36, 78
1, 255362, Note_on_c, 0, 56, 66
1, 255381, Note_off_c, 0, 48, 68
1, 255385, Note_off_c, 0, 36, 65
1, 255385, Note_off_c, 0, 53, 65
1, 255390, Note_off_c, 0, 56, 66
1, 255396, Note_off_c, 0, 60, 63
1, 255468, Note_on_c, 0, 62, 86
1, 255469, Note_on_c, 0, 47, 93
1, 255471, Note_on_c, 0, 53, 86
1, 255473, Note_on_c, 0, 35, 85
1, 255479, Note_on_c, 0, 60, 79
1, 255483, Note_on_c, 0, 56, 53
1, 255501, Note_off_c, 0, 53, 66
1, 255508, Note_off_c, 0, 35, 64
1, 255514, Note_off_c, 0, 47, 63
1, 255514, Note_off_c, 0, 60, 67
1, 255515, Note_off_c, 0, 56, 64
1, 255529, Note_off_c, 0, 62, 65
1, 255593, Note_on_c, 0, 45, 101
1, 255596, Note_on_c, 0, 64, 87
1, 255599, Note_on_c, 0, 62, 89
1, 255599, Note_on_c, 0, 33, 91
1, 255606, Control_c, 0, 64, 34
1, 255621, Control_c, 0, 64, 64
1, 255623, Note_off_c, 0, 33, 68
1, 255636, Control_c, 0, 64, 105
1, 255637, Note_off_c, 0, 45, 67
1, 255641, Note_off_c, 0, 62, 61
1, 255643, Note_off_c, 0, 64, 63
1, 255650, Control_c, 0, 64, 127
1, 255710, Note_on_c, 0, 62, 75
1, 255710, Control_c, 0, 64, 71
1, 255711, Note_on_c, 0, 57, 79
1, 255725, Control_c, 0, 64, 27
1, 255739, Control_c, 0, 64, 0
1, 255765, Note_off_c, 0, 57, 56
1, 255766, Note_off_c, 0, 62, 62
1, 255862, Note_on_c, 0, 64, 63
1, 255867, Note_on_c, 0, 61, 58
1, 255898, Note_off_c, 0, 61, 64
1, 255900, Note_off_c, 0, 64, 64
1, 255991, Note_on_c, 0, 69, 89
1, 255993, Note_on_c, 0, 61, 67
1, 256002, Note_on_c, 0, 57, 61
1, 256026, Note_off_c, 0, 69, 65
1, 256044, Note_off_c, 0, 61, 61
1, 256046, Note_off_c, 0, 57, 62
1, 256113, Note_on_c, 0, 65, 94
1, 256126, Note_on_c, 0, 60, 78
1, 256127, Note_on_c, 0, 63, 77
1, 256140, Note_off_c, 0, 65, 67
1, 256148, Note_off_c, 0, 63, 71
1, 256154, Note_off_c, 0, 60, 63
1, 256255, Note_on_c, 0, 57, 62
1, 256258, Note_on_c, 0, 60, 65
1, 256297, Note_off_c, 0, 60, 62
1, 256315, Note_off_c, 0, 57, 60
1, 256371, Note_on_c, 0, 52, 80
1, 256376, Note_on_c, 0, 62, 74
1, 256378, Note_on_c, 0, 40, 67
1, 256378, Note_on_c, 0, 59, 76
1, 256398, Note_off_c, 0, 52, 69
1, 256403, Note_off_c, 0, 59, 68
1, 256407, Note_off_c, 0, 40, 63
1, 256408, Note_off_c, 0, 62, 65
1, 256488, Note_on_c, 0, 59, 66
1, 256504, Note_on_c, 0, 57, 62
1, 256545, Note_off_c, 0, 57, 66
1, 256546, Note_off_c, 0, 59, 59
1, 256630, Note_on_c, 0, 52, 77
1, 256631, Note_on_c, 0, 45, 70
1, 256631, Note_on_c, 0, 64, 84
1, 256635, Note_on_c, 0, 62, 76
1, 256658, Note_off_c, 0, 45, 66
1, 256660, Note_off_c, 0, 52, 69
1, 256667, Note_off_c, 0, 62, 65
1, 256672, Note_off_c, 0, 64, 61
1, 256755, Note_on_c, 0, 57, 61
1, 256768, Note_on_c, 0, 62, 60
1, 256804, Note_off_c, 0, 62, 63
1, 256814, Note_off_c, 0, 57, 58
1, 256888, Note_on_c, 0, 61, 74
1, 256888, Note_on_c, 0, 64, 69
1, 256920, Note_off_c, 0, 64, 65
1, 256924, Note_off_c, 0, 61, 61
1, 257014, Note_on_c, 0, 69, 91
1, 257016, Note_on_c, 0, 61, 76
1, 257021, Note_on_c, 0, 57, 64
1, 257057, Note_off_c, 0, 69, 65
1, 257063, Note_off_c, 0, 57, 62
1, 257069, Note_off_c, 0, 61, 62
1, 257134, Note_on_c, 0, 65, 90
1, 257139, Note_on_c, 0, 63, 82
1, 257140, Note_on_c, 0, 60, 79
1, 257161, Note_off_c, 0, 65, 67
1, 257161, Note_off_c, 0, 63, 71
1, 257164, Note_off_c, 0, 60, 69
1, 257258, Note_on_c, 0, 60, 66
1, 257266, Note_on_c, 0, 57, 61
1, 257315, Note_off_c, 0, 60, 63
1, 257317, Note_off_c, 0, 57, 62
1, 257391, Note_on_c, 0, 52, 79
1, 257395, Note_on_c, 0, 62, 74
1, 257401, Note_on_c, 0, 40, 64
1, 257403, Note_on_c, 0, 59, 68
1, 257418, Note_off_c, 0, 52, 69
1, 257427, Note_off_c, 0, 62, 64
1, 257429, Note_off_c, 0, 40, 64
1, 257429, Note_off_c, 0, 59, 66
1, 257501, Note_on_c, 0, 59, 67
1, 257527, Note_on_c, 0, 57, 52
1, 257553, Note_off_c, 0, 59, 60
1, 257561, Note_off_c, 0, 57, 65
1, 257633, Note_on_c, 0, 52, 76
1, 257634, Note_on_c, 0, 45, 65
1, 257638, Note_on_c, 0, 60, 71
1, 257639, Note_on_c, 0, 64, 68
1, 257669, Note_off_c, 0, 60, 67
1, 257673, Note_off_c, 0, 45, 62
1, 257673, Note_off_c, 0, 64, 65
1, 257700, Note_off_c, 0, 52, 64
1, 257751, Note_on_c, 0, 65, 73
1, 257757, Note_on_c, 0, 57, 63
1, 257793, Note_off_c, 0, 57, 64
1, 257801, Note_off_c, 0, 65, 60
1, 257876, Note_on_c, 0, 66, 66
1, 257877, Note_on_c, 0, 63, 69
1, 257913, Note_off_c, 0, 66, 66
1, 257919, Note_off_c, 0, 63, 60
1, 257994, Note_on_c, 0, 67, 77
1, 257998, Note_on_c, 0, 76, 93
1, 258000, Note_on_c, 0, 60, 65
1, 258032, Note_off_c, 0, 67, 64
1, 258034, Note_off_c, 0, 60, 64
1, 258039, Note_off_c, 0, 76, 63
1, 258121, Note_on_c, 0, 76, 106
1, 258123, Note_on_c, 0, 72, 87
1, 258125, Note_on_c, 0, 68, 75
1, 258128, Note_on_c, 0, 64, 73
1, 258161, Note_off_c, 0, 68, 65
1, 258161, Note_off_c, 0, 76, 66
1, 258175, Note_off_c, 0, 64, 54
1, 258176, Note_off_c, 0, 72, 66
1, 258255, Note_on_c, 0, 67, 68
1, 258259, Note_on_c, 0, 60, 63
1, 258309, Note_off_c, 0, 67, 61
1, 258310, Note_off_c, 0, 60, 61
1, 258377, Note_on_c, 0, 66, 67
1, 258385, Note_on_c, 0, 63, 63
1, 258413, Note_off_c, 0, 66, 67
1, 258419, Note_off_c, 0, 63, 65
1, 258501, Note_on_c, 0, 60, 74
1, 258501, Note_on_c, 0, 65, 73
1, 258509, Note_on_c, 0, 45, 73
1, 258553, Note_off_c, 0, 65, 60
1, 258559, Note_off_c, 0, 45, 61
1, 258560, Note_off_c, 0, 60, 63
1, 258618, Note_on_c, 0, 52, 95
1, 258623, Note_on_c, 0, 40, 77
1, 258626, Note_on_c, 0, 64, 75
1, 258629, Note_on_c, 0, 63, 75
1, 258649, Note_off_c, 0, 40, 66
1, 258655, Note_off_c, 0, 52, 69
1, 258668, Note_off_c, 0, 64, 63
1, 258680, Note_off_c, 0, 63, 61
1, 258747, Note_on_c, 0, 65, 72
1, 258750, Note_on_c, 0, 60, 68
1, 258787, Note_off_c, 0, 65, 64
1, 258802, Note_off_c, 0, 60, 62
1, 258879, Note_on_c, 0, 66, 63
1, 258880, Note_on_c, 0, 62, 71
1, 258923, Note_off_c, 0, 66, 61
1, 258931, Note_off_c, 0, 62, 56
1, 258997, Note_on_c, 0, 83, 84
1, 259002, Note_on_c, 0, 67, 77
1, 259004, Note_on_c, 0, 59, 74
1, 259011, Note_on_c, 0, 76, 66
1, 259038, Note_off_c, 0, 83, 67
1, 259053, Note_off_c, 0, 67, 62
1, 259055, Note_off_c, 0, 59, 62
1, 259057, Note_off_c, 0, 76, 61
1, 259123, Note_on_c, 0, 76, 89
1, 259129, Note_on_c, 0, 68, 69
1, 259131, Note_on_c, 0, 61, 74
1, 259136, Note_on_c, 0, 71, 70
1, 259162, Note_off_c, 0, 71, 70
1, 259165, Note_off_c, 0, 76, 67
1, 259183, Note_off_c, 0, 68, 61
1, 259197, Note_off_c, 0, 61, 61
1, 259250, Note_on_c, 0, 67, 76
1, 259251, Note_on_c, 0, 58, 77
1, 259298, Note_off_c, 0, 58, 59
1, 259307, Note_off_c, 0, 67, 61
1, 259373, Note_on_c, 0, 62, 68
1, 259373, Note_on_c, 0, 66, 66
1, 259408, Note_off_c, 0, 66, 67
1, 259415, Note_off_c, 0, 62, 64
1, 259488, Note_on_c, 0, 65, 74
1, 259491, Note_on_c, 0, 59, 74
1, 259540, Note_off_c, 0, 65, 60
1, 259555, Note_off_c, 0, 59, 62
1, 259614, Note_on_c, 0, 33, 84
1, 259620, Note_on_c, 0, 64, 80
1, 259623, Note_on_c, 0, 62, 80
1, 259629, Note_on_c, 0, 40, 77
1, 259637, Note_on_c, 0, 38, 72
1, 259639, Control_c, 0, 64, 47
1, 259654, Control_c, 0, 64, 64
1, 259663, Note_off_c, 0, 38, 55
1, 259669, Control_c, 0, 64, 83
1, 259671, Note_off_c, 0, 62, 61
1, 259673, Note_off_c, 0, 64, 65
1, 259684, Control_c, 0, 64, 127
1, 259688, Note_off_c, 0, 33, 63
1, 259691, Note_off_c, 0, 40, 64
1, 259752, Note_on_c, 0, 57, 71
1, 259758, Control_c, 0, 64, 77
1, 259772, Control_c, 0, 64, 52
1, 259787, Control_c, 0, 64, 0
1, 259814, Note_off_c, 0, 57, 58
1, 259883, Note_on_c, 0, 61, 75
1, 259950, Note_off_c, 0, 61, 62
1, 259985, Note_on_c, 0, 69, 88
1, 260010, Note_on_c, 0, 57, 71
1, 260032, Note_off_c, 0, 69, 64
1, 260079, Note_off_c, 0, 57, 63
1, 260114, Note_on_c, 0, 65, 97
1, 260130, Note_on_c, 0, 63, 76
1, 260131, Note_on_c, 0, 60, 80
1, 260150, Note_off_c, 0, 65, 67
1, 260170, Note_off_c, 0, 63, 65
1, 260185, Note_off_c, 0, 60, 61
1, 260255, Note_on_c, 0, 57, 67
1, 260319, Note_off_c, 0, 57, 61
1, 260379, Note_on_c, 0, 28, 83
1, 260381, Note_on_c, 0, 40, 88
1, 260387, Note_on_c, 0, 62, 84
1, 260389, Note_on_c, 0, 59, 81
1, 260426, Note_on_c, 0, 30, 26
1, 260441, Note_off_c, 0, 59, 63
1, 260443, Note_off_c, 0, 62, 62
1, 260473, Note_off_c, 0, 30, 29
1, 260480, Note_off_c, 0, 28, 51
1, 260487, Note_off_c, 0, 40, 40
1, 260509, Note_on_c, 0, 57, 79
1, 260579, Note_off_c, 0, 57, 62
1, 260628, Note_on_c, 0, 33, 88
1, 260631, Note_on_c, 0, 64, 89
1, 260631, Note_on_c, 0, 40, 85
1, 260635, Note_on_c, 0, 62, 83
1, 260655, Control_c, 0, 64, 36
1, 260670, Control_c, 0, 64, 67
1, 260685, Control_c, 0, 64, 92
1, 260700, Note_off_c, 0, 64, 65
1, 260700, Control_c, 0, 64, 127
1, 260701, Note_off_c, 0, 33, 63
1, 260703, Note_off_c, 0, 62, 61
1, 260710, Note_off_c, 0, 40, 61
1, 260749, Poly_aftertouch_c, 0, 31, 0
1, 260759, Control_c, 0, 64, 86
1, 260767, Note_on_c, 0, 57, 67
1, 260773, Control_c, 0, 64, 67
1, 260788, Control_c, 0, 64, 47
1, 260803, Control_c, 0, 64, 0
1, 260813, Note_off_c, 0, 57, 61
1, 260892, Note_on_c, 0, 61, 74
1, 260949, Note_off_c, 0, 61, 61
1, 261004, Note_on_c, 0, 69, 91
1, 261016, Note_on_c, 0, 57, 73
1, 261061, Note_off_c, 0, 69, 66
1, 261088, Note_off_c, 0, 57, 63
1, 261129, Note_on_c, 0, 65, 97
1, 261138, Note_on_c, 0, 63, 79
1, 261139, Note_on_c, 0, 60, 81
1, 261164, Note_off_c, 0, 65, 67
1, 261182, Note_off_c, 0, 63, 66
1, 261191, Note_off_c, 0, 60, 61
1, 261261, Note_on_c, 0, 57, 67
1, 261306, Note_off_c, 0, 57, 63
1, 261386, Note_on_c, 0, 40, 80
1, 261389, Note_on_c, 0, 62, 75
1, 261390, Note_on_c, 0, 28, 76
1, 261390, Note_on_c, 0, 59, 78
1, 261422, Note_off_c, 0, 59, 65
1, 261423, Note_off_c, 0, 28, 63
1, 261424, Note_off_c, 0, 40, 62
1, 261425, Note_off_c, 0, 62, 63
1, 261510, Note_on_c, 0, 57, 68
1, 261558, Note_off_c, 0, 57, 58
1, 261640, Control_c, 0, 64, 9
1, 261644, Note_on_c, 0, 64, 62
1, 261646, Note_on_c, 0, 60, 57
1, 261649, Note_on_c, 0, 33, 53
1, 261656, Control_c, 0, 64, 28
1, 261662, Note_on_c, 0, 40, 48
1, 261671, Control_c, 0, 64, 40
1, 261680, Note_off_c, 0, 64, 63
1, 261683, Note_off_c, 0, 60, 64
1, 261686, Control_c, 0, 64, 48
1, 261700, Control_c, 0, 64, 53
1, 261715, Control_c, 0, 64, 58
1, 261730, Control_c, 0, 64, 64
1, 261745, Control_c, 0, 64, 69
1, 261751, Note_off_c, 0, 33, 59
1, 261758, Note_on_c, 0, 65, 68
1, 261760, Control_c, 0, 64, 78
1, 261762, Note_on_c, 0, 57, 65
1, 261774, Control_c, 0, 64, 94
1, 261789, Control_c, 0, 64, 127
1, 261802, Note_off_c, 0, 40, 59
1, 261806, Note_off_c, 0, 65, 60
1, 261808, Note_off_c, 0, 57, 62
1, 261885, Note_on_c, 0, 66, 71
1, 261890, Note_on_c, 0, 62, 65
1, 261931, Note_off_c, 0, 62, 61
1, 261943, Note_off_c, 0, 66, 61
1, 261998, Note_on_c, 0, 67, 79
1, 262005, Note_on_c, 0, 59, 70
1, 262033, Control_c, 0, 64, 108
1, 262041, Note_off_c, 0, 59, 61
1, 262048, Control_c, 0, 64, 81
1, 262050, Note_off_c, 0, 67, 65
1, 262063, Control_c, 0, 64, 65
1, 262078, Control_c, 0, 64, 43
1, 262093, Control_c, 0, 64, 0
1, 262124, Note_on_c, 0, 68, 72
1, 262127, Note_on_c, 0, 53, 79
1, 262131, Note_on_c, 0, 41, 71
1, 262133, Note_on_c, 0, 64, 62
1, 262151, Control_c, 0, 64, 15
1, 262166, Control_c, 0, 64, 34
1, 262179, Note_off_c, 0, 64, 58
1, 262181, Control_c, 0, 64, 45
1, 262185, Note_off_c, 0, 68, 62
1, 262196, Control_c, 0, 64, 51
1, 262211, Control_c, 0, 64, 55
1, 262226, Control_c, 0, 64, 58
1, 262241, Control_c, 0, 64, 61
1, 262247, Note_on_c, 0, 69, 78
1, 262253, Note_on_c, 0, 60, 68
1, 262256, Control_c, 0, 64, 63
1, 262270, Control_c, 0, 64, 66
1, 262285, Control_c, 0, 64, 71
1, 262292, Note_off_c, 0, 60, 64
1, 262300, Control_c, 0, 64, 79
1, 262300, Note_off_c, 0, 69, 66
1, 262315, Control_c, 0, 64, 91
1, 262330, Control_c, 0, 64, 105
1, 262344, Control_c, 0, 64, 127
1, 262368, Note_on_c, 0, 65, 71
1, 262370, Note_on_c, 0, 70, 74
1, 262399, Note_off_c, 0, 53, 61
1, 262425, Note_off_c, 0, 65, 61
1, 262428, Note_off_c, 0, 70, 63
1, 262431, Note_off_c, 0, 41, 63
1, 262489, Note_on_c, 0, 71, 85
1, 262498, Note_on_c, 0, 62, 71
1, 262538, Note_off_c, 0, 62, 61
1, 262548, Note_off_c, 0, 71, 65
1, 262590, Control_c, 0, 64, 100
1, 262604, Control_c, 0, 64, 73
1, 262618, Note_on_c, 0, 72, 77
1, 262619, Control_c, 0, 64, 61
1, 262625, Note_on_c, 0, 68, 72
1, 262631, Note_on_c, 0, 50, 78
1, 262633, Note_on_c, 0, 38, 74
1, 262634, Control_c, 0, 64, 42
1, 262649, Control_c, 0, 64, 33
1, 262664, Control_c, 0, 64, 38
1, 262673, Note_off_c, 0, 72, 65
1, 262674, Note_off_c, 0, 68, 59
1, 262679, Control_c, 0, 64, 45
1, 262694, Control_c, 0, 64, 53
1, 262709, Control_c, 0, 64, 58
1, 262723, Control_c, 0, 64, 61
1, 262738, Control_c, 0, 64, 64
1, 262743, Note_on_c, 0, 64, 72
1, 262743, Note_on_c, 0, 73, 81
1, 262753, Control_c, 0, 64, 66
1, 262768, Control_c, 0, 64, 69
1, 262782, Control_c, 0, 64, 76
1, 262796, Note_off_c, 0, 64, 60
1, 262797, Control_c, 0, 64, 86
1, 262812, Control_c, 0, 64, 113
1, 262826, Note_off_c, 0, 73, 61
1, 262827, Control_c, 0, 64, 127
1, 262849, Note_off_c, 0, 50, 60
1, 262861, Note_on_c, 0, 74, 81
1, 262866, Note_on_c, 0, 70, 78
1, 262885, Note_off_c, 0, 38, 61
1, 262913, Note_off_c, 0, 74, 65
1, 262922, Note_off_c, 0, 70, 63
1, 262980, Note_on_c, 0, 75, 89
1, 262985, Note_on_c, 0, 65, 76
1, 263025, Note_on_c, 0, 67, 38
1, 263026, Note_off_c, 0, 67, 127
1, 263036, Note_off_c, 0, 65, 59
1, 263048, Control_c, 0, 64, 85
1, 263058, Note_off_c, 0, 75, 63
1, 263063, Control_c, 0, 64, 64
1, 263078, Control_c, 0, 64, 40
1, 263093, Control_c, 0, 64, 24
1, 263104, Note_on_c, 0, 72, 75
1, 263105, Note_on_c, 0, 76, 83
1, 263106, Note_on_c, 0, 46, 90
1, 263108, Control_c, 0, 64, 36
1, 263113, Note_on_c, 0, 34, 81
1, 263123, Control_c, 0, 64, 47
1, 263138, Control_c, 0, 64, 55
1, 263153, Control_c, 0, 64, 63
1, 263158, Note_off_c, 0, 76, 64
1, 263159, Note_off_c, 0, 72, 64
1, 263165, Note_off_c, 0, 34, 61
1, 263167, Control_c, 0, 64, 67
1, 263169, Note_off_c, 0, 46, 61
1, 263182, Control_c, 0, 64, 74
1, 263197, Control_c, 0, 64, 92
1, 263212, Control_c, 0, 64, 127
1, 263218, Note_on_c, 0, 77, 91
1, 263237, Note_on_c, 0, 73, 64
1, 263239, Note_on_c, 0, 67, 70
1, 263258, Note_off_c, 0, 73, 65
1, 263272, Note_off_c, 0, 67, 62
1, 263279, Note_off_c, 0, 77, 63
1, 263309, Control_c, 0, 64, 93
1, 263324, Control_c, 0, 64, 69
1, 263339, Control_c, 0, 64, 52
1, 263343, Note_on_c, 0, 52, 91
1, 263345, Note_on_c, 0, 77, 91
1, 263353, Note_on_c, 0, 40, 80
1, 263353, Control_c, 0, 64, 45
1, 263359, Note_on_c, 0, 67, 80
1, 263364, Note_on_c, 0, 41, 53
1, 263368, Control_c, 0, 64, 54
1, 263369, Note_off_c, 0, 52, 67
1, 263383, Control_c, 0, 64, 60
1, 263388, Note_off_c, 0, 40, 66
1, 263391, Note_off_c, 0, 67, 62
1, 263392, Note_off_c, 0, 41, 57
1, 263398, Control_c, 0, 64, 65
1, 263413, Control_c, 0, 64, 71
1, 263417, Note_off_c, 0, 77, 63
1, 263427, Control_c, 0, 64, 88
1, 263442, Control_c, 0, 64, 127
1, 263460, Note_on_c, 0, 73, 73
1, 263466, Note_on_c, 0, 76, 79
1, 263487, Note_on_c, 0, 75, 40
1, 263514, Note_off_c, 0, 75, 35
1, 263521, Note_off_c, 0, 73, 63
1, 263530, Note_off_c, 0, 76, 64
1, 263531, Control_c, 0, 64, 75
1, 263546, Control_c, 0, 64, 54
1, 263561, Control_c, 0, 64, 0
1, 263593, Note_on_c, 0, 81, 93
1, 263594, Note_on_c, 0, 45, 94
1, 263594, Note_on_c, 0, 70, 87
1, 263601, Note_on_c, 0, 33, 75
1, 263605, Control_c, 0, 64, 33
1, 263620, Control_c, 0, 64, 60
1, 263631, Note_off_c, 0, 33, 63
1, 263632, Note_off_c, 0, 70, 63
1, 263635, Control_c, 0, 64, 70
1, 263639, Note_off_c, 0, 81, 67
1, 263645, Note_off_c, 0, 45, 65
1, 263650, Control_c, 0, 64, 87
1, 263665, Control_c, 0, 64, 127
1, 263718, Note_on_c, 0, 70, 96
1, 263721, Note_on_c, 0, 81, 90
1, 263759, Note_off_c, 0, 81, 64
1, 263763, Note_off_c, 0, 70, 62
1, 263830, Note_on_c, 0, 71, 91
1, 263831, Note_on_c, 0, 81, 89
1, 263874, Note_off_c, 0, 71, 65
1, 263877, Note_off_c, 0, 81, 65
1, 263929, Note_on_c, 0, 64, 72
1, 263949, Note_on_c, 0, 72, 93
1, 263953, Note_on_c, 0, 81, 88
1, 263985, Note_on_c, 0, 66, 66
1, 263988, Note_off_c, 0, 72, 65
1, 263996, Note_off_c, 0, 81, 65
1, 264021, Note_off_c, 0, 64, 61
1, 264054, Note_on_c, 0, 68, 75
1, 264080, Note_off_c, 0, 66, 63
1, 264085, Note_on_c, 0, 72, 91
1, 264086, Note_on_c, 0, 81, 87
1, 264086, Note_off_c, 0, 68, 65
1, 264086, Note_on_c, 0, 73, 85
1, 264087, Note_on_c, 0, 69, 105
1, 264127, Note_off_c, 0, 72, 62
1, 264128, Note_off_c, 0, 69, 70
1, 264128, Note_off_c, 0, 81, 65
1, 264131, Control_c, 0, 64, 86
1, 264136, Note_off_c, 0, 73, 58
1, 264146, Control_c, 0, 64, 63
1, 264161, Control_c, 0, 64, 0
1, 264209, Note_on_c, 0, 72, 86
1, 264209, Note_on_c, 0, 74, 77
1, 264212, Note_on_c, 0, 81, 82
1, 264238, Note_off_c, 0, 74, 63
1, 264255, Note_off_c, 0, 72, 62
1, 264258, Note_off_c, 0, 81, 63
1, 264328, Note_on_c, 0, 75, 86
1, 264331, Note_on_c, 0, 81, 73
1, 264332, Note_on_c, 0, 72, 80
1, 264357, Note_off_c, 0, 72, 66
1, 264364, Note_off_c, 0, 81, 62
1, 264371, Note_off_c, 0, 75, 65
1, 264429, Note_on_c, 0, 57, 96
1, 264432, Note_on_c, 0, 45, 87
1, 264445, Note_on_c, 0, 76, 89
1, 264447, Note_on_c, 0, 72, 88
1, 264449, Note_on_c, 0, 81, 83
1, 264475, Note_off_c, 0, 45, 62
1, 264475, Note_off_c, 0, 57, 66
1, 264485, Note_off_c, 0, 76, 65
1, 264494, Note_off_c, 0, 81, 65
1, 264494, Note_off_c, 0, 72, 62
1, 264549, Note_on_c, 0, 57, 104
1, 264552, Note_on_c, 0, 45, 98
1, 264557, Note_on_c, 0, 81, 86
1, 264558, Note_on_c, 0, 72, 92
1, 264563, Note_on_c, 0, 77, 82
1, 264569, Note_on_c, 0, 76, 85
1, 264584, Note_off_c, 0, 57, 68
1, 264588, Note_off_c, 0, 45, 65
1, 264593, Note_off_c, 0, 76, 70
1, 264602, Note_off_c, 0, 77, 66
1, 264611, Note_off_c, 0, 72, 63
1, 264616, Note_off_c, 0, 81, 66
1, 264677, Note_on_c, 0, 72, 85
1, 264678, Note_on_c, 0, 81, 79
1, 264680, Note_on_c, 0, 78, 88
1, 264725, Note_off_c, 0, 81, 63
1, 264726, Note_off_c, 0, 72, 62
1, 264736, Note_off_c, 0, 78, 65
1, 264796, Note_on_c, 0, 81, 84
1, 264802, Note_on_c, 0, 72, 89
1, 264803, Note_on_c, 0, 79, 83
1, 264849, Note_off_c, 0, 79, 64
1, 264851, Note_off_c, 0, 72, 64
1, 264861, Note_off_c, 0, 81, 66
1, 264908, Note_on_c, 0, 40, 83
1, 264920, Note_on_c, 0, 80, 90
1, 264922, Note_on_c, 0, 81, 79
1, 264924, Note_on_c, 0, 72, 86
1, 264977, Note_off_c, 0, 81, 62
1, 264979, Note_off_c, 0, 72, 62
1, 265003, Note_off_c, 0, 80, 65
1, 265038, Note_off_c, 0, 40, 59
1, 265051, Note_on_c, 0, 45, 88
1, 265053, Note_on_c, 0, 81, 100
1, 265058, Control_c, 0, 64, 25
1, 265060, Note_on_c, 0, 33, 78
1, 265061, Note_on_c, 0, 72, 87
1, 265073, Control_c, 0, 64, 42
1, 265081, Note_off_c, 0, 72, 70
1, 265087, Control_c, 0, 64, 52
1, 265102, Control_c, 0, 64, 61
1, 265117, Control_c, 0, 64, 71
1, 265129, Note_off_c, 0, 81, 65
1, 265132, Control_c, 0, 64, 87
1, 265147, Control_c, 0, 64, 127
1, 265182, Note_off_c, 0, 33, 55
1, 265242, Note_off_c, 0, 45, 53
1, 265349, Note_on_c, 0, 93, 97
1, 265440, Note_off_c, 0, 93, 61
1, 265457, Note_on_c, 0, 81, 94
1, 265554, Control_c, 0, 64, 109
1, 265557, Note_off_c, 0, 81, 66
1, 265568, Control_c, 0, 64, 81
1, 265583, Control_c, 0, 64, 63
1, 265592, Note_on_c, 0, 82, 101
1, 265598, Control_c, 0, 64, 37
1, 265613, Control_c, 0, 64, 0
1, 265628, Control_c, 0, 64, 21
1, 265644, Control_c, 0, 64, 35
1, 265659, Control_c, 0, 64, 44
1, 265673, Control_c, 0, 64, 52
1, 265688, Control_c, 0, 64, 56
1, 265698, Note_off_c, 0, 82, 63
1, 265703, Control_c, 0, 64, 60
1, 265718, Control_c, 0, 64, 63
1, 265733, Control_c, 0, 64, 66
1, 265747, Control_c, 0, 64, 71
1, 265762, Control_c, 0, 64, 83
1, 265777, Control_c, 0, 64, 107
1, 265792, Control_c, 0, 64, 127
1, 265873, Note_on_c, 0, 81, 96
1, 265969, Note_off_c, 0, 81, 56
1, 265970, Control_c, 0, 64, 110
1, 265982, Note_on_c, 0, 69, 95
1, 265985, Control_c, 0, 64, 85
1, 266000, Control_c, 0, 64, 69
1, 266014, Control_c, 0, 64, 54
1, 266029, Control_c, 0, 64, 0
1, 266084, Note_off_c, 0, 69, 58
1, 266088, Control_c, 0, 64, 23
1, 266103, Control_c, 0, 64, 39
1, 266112, Note_on_c, 0, 76, 92
1, 266118, Control_c, 0, 64, 48
1, 266133, Control_c, 0, 64, 55
1, 266147, Control_c, 0, 64, 60
1, 266162, Control_c, 0, 64, 65
1, 266172, Note_off_c, 0, 76, 66
1, 266177, Control_c, 0, 64, 72
1, 266191, Control_c, 0, 64, 85
1, 266206, Control_c, 0, 64, 127
1, 266367, Note_on_c, 0, 93, 98
1, 266437, Note_off_c, 0, 93, 58
1, 266452, Control_c, 0, 64, 92
1, 266467, Control_c, 0, 64, 75
1, 266477, Note_on_c, 0, 81, 91
1, 266482, Control_c, 0, 64, 62
1, 266496, Control_c, 0, 64, 39
1, 266511, Control_c, 0, 64, 0
1, 266569, Note_off_c, 0, 81, 65
1, 266570, Control_c, 0, 64, 17
1, 266585, Control_c, 0, 64, 31
1, 266600, Control_c, 0, 64, 45
1, 266605, Note_on_c, 0, 82, 100
1, 266614, Control_c, 0, 64, 52
1, 266629, Control_c, 0, 64, 56
1, 266644, Control_c, 0, 64, 60
1, 266659, Control_c, 0, 64, 63
1, 266674, Control_c, 0, 64, 66
1, 266676, Note_off_c, 0, 82, 63
1, 266688, Control_c, 0, 64, 72
1, 266703, Control_c, 0, 64, 83
1, 266718, Control_c, 0, 64, 106
1, 266734, Control_c, 0, 64, 127
1, 266859, Note_on_c, 0, 81, 96
1, 266882, Control_c, 0, 64, 98
1, 266897, Control_c, 0, 64, 78
1, 266912, Control_c, 0, 64, 66
1, 266927, Control_c, 0, 64, 52
1, 266935, Note_off_c, 0, 81, 53
1, 266942, Control_c, 0, 64, 0
1, 266965, Note_on_c, 0, 69, 91
1, 267080, Note_off_c, 0, 69, 58
1, 267082, Control_c, 0, 64, 23
1, 267097, Control_c, 0, 64, 40
1, 267103, Note_on_c, 0, 76, 96
1, 267111, Control_c, 0, 64, 50
1, 267126, Control_c, 0, 64, 55
1, 267141, Control_c, 0, 64, 59
1, 267156, Control_c, 0, 64, 63
1, 267171, Control_c, 0, 64, 69
1, 267172, Note_off_c, 0, 76, 64
1, 267186, Control_c, 0, 64, 78
1, 267201, Control_c, 0, 64, 93
1, 267216, Control_c, 0, 64, 127
1, 267357, Note_on_c, 0, 81, 95
1, 267365, Control_c, 0, 64, 99
1, 267380, Control_c, 0, 64, 78
1, 267394, Control_c, 0, 64, 65
1, 267409, Control_c, 0, 64, 48
1, 267424, Control_c, 0, 64, 0
1, 267426, Note_off_c, 0, 81, 61
1, 267457, Note_on_c, 0, 69, 90
1, 267536, Note_off_c, 0, 69, 57
1, 267557, Control_c, 0, 64, 27
1, 267572, Control_c, 0, 64, 43
1, 267575, Note_on_c, 0, 71, 92
1, 267586, Control_c, 0, 64, 52
1, 267601, Control_c, 0, 64, 57
1, 267616, Control_c, 0, 64, 62
1, 267631, Control_c, 0, 64, 67
1, 267635, Note_off_c, 0, 71, 63
1, 267645, Control_c, 0, 64, 75
1, 267660, Control_c, 0, 64, 92
1, 267675, Control_c, 0, 64, 127
1, 267831, Control_c, 0, 64, 93
1, 267836, Note_on_c, 0, 81, 87
1, 267845, Control_c, 0, 64, 77
1, 267860, Control_c, 0, 64, 65
1, 267875, Control_c, 0, 64, 49
1, 267890, Control_c, 0, 64, 0
1, 267897, Note_off_c, 0, 81, 67
1, 267932, Note_on_c, 0, 69, 77
1, 267994, Control_c, 0, 64, 19
1, 267997, Note_off_c, 0, 69, 60
1, 268009, Control_c, 0, 64, 38
1, 268024, Control_c, 0, 64, 48
1, 268039, Control_c, 0, 64, 53
1, 268054, Control_c, 0, 64, 57
1, 268057, Note_on_c, 0, 68, 72
1, 268068, Control_c, 0, 64, 60
1, 268083, Control_c, 0, 64, 62
1, 268098, Control_c, 0, 64, 65
1, 268105, Note_off_c, 0, 68, 56
1, 268113, Control_c, 0, 64, 68
1, 268128, Control_c, 0, 64, 73
1, 268143, Control_c, 0, 64, 82
1, 268158, Control_c, 0, 64, 96
1, 268173, Control_c, 0, 64, 127
1, 268304, Note_on_c, 0, 81, 80
1, 268305, Control_c, 0, 64, 102
1, 268320, Control_c, 0, 64, 80
1, 268334, Control_c, 0, 64, 66
1, 268349, Control_c, 0, 64, 52
1, 268360, Note_off_c, 0, 81, 64
1, 268364, Control_c, 0, 64, 0
1, 268407, Note_on_c, 0, 69, 73
1, 268438, Control_c, 0, 64, 17
1, 268453, Control_c, 0, 64, 30
1, 268459, Note_off_c, 0, 69, 56
1, 268468, Control_c, 0, 64, 44
1, 268483, Control_c, 0, 64, 51
1, 268498, Control_c, 0, 64, 55
1, 268512, Control_c, 0, 64, 57
1, 268527, Control_c, 0, 64, 60
1, 268544, Note_on_c, 0, 70, 65
1, 268549, Control_c, 0, 64, 62
1, 268564, Control_c, 0, 64, 65
1, 268579, Control_c, 0, 64, 67
1, 268593, Note_off_c, 0, 70, 58
1, 268594, Control_c, 0, 64, 70
1, 268609, Control_c, 0, 64, 77
1, 268623, Control_c, 0, 64, 89
1, 268638, Control_c, 0, 64, 115
1, 268653, Control_c, 0, 64, 127
1, 268816, Control_c, 0, 64, 104
1, 268831, Control_c, 0, 64, 80
1, 268833, Note_on_c, 0, 81, 66
1, 268846, Control_c, 0, 64, 68
1, 268861, Control_c, 0, 64, 58
1, 268864, Note_off_c, 0, 81, 64
1, 268876, Control_c, 0, 64, 43
1, 268891, Control_c, 0, 64, 35
1, 268921, Control_c, 0, 64, 35
1, 268936, Control_c, 0, 64, 36
1, 268937, Note_on_c, 0, 69, 66
1, 268951, Control_c, 0, 64, 38
1, 268965, Control_c, 0, 64, 41
1, 268980, Control_c, 0, 64, 46
1, 268995, Control_c, 0, 64, 50
1, 269010, Control_c, 0, 64, 54
1, 269021, Note_off_c, 0, 69, 60
1, 269025, Control_c, 0, 64, 57
1, 269039, Control_c, 0, 64, 59
1, 269054, Control_c, 0, 64, 61
1, 269069, Control_c, 0, 64, 63
1, 269081, Note_on_c, 0, 68, 59
1, 269083, Control_c, 0, 64, 64
1, 269098, Control_c, 0, 64, 66
1, 269113, Control_c, 0, 64, 72
1, 269126, Note_off_c, 0, 68, 59
1, 269128, Control_c, 0, 64, 81
1, 269143, Control_c, 0, 64, 96
1, 269157, Control_c, 0, 64, 127
1, 269402, Control_c, 0, 64, 123
1, 269416, Control_c, 0, 64, 97
1, 269428, Note_on_c, 0, 81, 64
1, 269431, Control_c, 0, 64, 82
1, 269437, Note_on_c, 0, 45, 42
1, 269446, Control_c, 0, 64, 72
1, 269461, Control_c, 0, 64, 64
1, 269476, Control_c, 0, 64, 57
1, 269491, Control_c, 0, 64, 47
1, 269505, Control_c, 0, 64, 39
1, 269520, Control_c, 0, 64, 29
1, 269527, Note_off_c, 0, 81, 47
1, 269535, Control_c, 0, 64, 0
1, 269627, Note_on_c, 0, 69, 61
1, 269799, Note_off_c, 0, 69, 58
1, 269859, Note_on_c, 0, 71, 64
1, 269860, Note_on_c, 0, 38, 37
1, 269865, Note_off_c, 0, 45, 44
1, 269871, Note_on_c, 0, 68, 37
1, 269894, Note_off_c, 0, 71, 64
1, 269899, Note_off_c, 0, 68, 51
1, 269908, Note_off_c, 0, 38, 60
1, 270185, Note_on_c, 0, 57, 43
1, 270189, Note_on_c, 0, 81, 62
1, 270232, Note_off_c, 0, 81, 61
1, 270289, Note_on_c, 0, 69, 64
1, 270354, Note_off_c, 0, 69, 62
1, 270391, Note_off_c, 0, 57, 44
1, 270412, Note_on_c, 0, 71, 75
1, 270421, Note_on_c, 0, 67, 55
1, 270427, Note_on_c, 0, 45, 40
1, 270439, Note_off_c, 0, 71, 67
1, 270448, Note_off_c, 0, 67, 63
1, 270458, Note_off_c, 0, 45, 57
1, 270666, Note_on_c, 0, 81, 75
1, 270686, Note_on_c, 0, 45, 41
1, 270711, Note_off_c, 0, 81, 63
1, 270763, Note_on_c, 0, 69, 69
1, 270832, Note_off_c, 0, 69, 61
1, 270892, Note_on_c, 0, 73, 75
1, 270896, Note_on_c, 0, 68, 70
1, 270896, Note_off_c, 0, 45, 37
1, 270906, Note_on_c, 0, 38, 42
1, 270924, Note_off_c, 0, 68, 67
1, 270931, Note_off_c, 0, 73, 63
1, 270937, Note_off_c, 0, 38, 58
1, 271141, Note_on_c, 0, 81, 77
1, 271146, Note_on_c, 0, 57, 44
1, 271191, Note_off_c, 0, 81, 65
1, 271240, Note_on_c, 0, 69, 73
1, 271295, Note_off_c, 0, 69, 62
1, 271346, Note_off_c, 0, 57, 46
1, 271362, Note_on_c, 0, 73, 78
1, 271365, Note_on_c, 0, 45, 59
1, 271370, Note_on_c, 0, 67, 61
1, 271391, Note_off_c, 0, 67, 63
1, 271401, Note_off_c, 0, 73, 63
1, 271405, Note_off_c, 0, 45, 62
1, 271603, Note_on_c, 0, 81, 88
1, 271615, Note_on_c, 0, 45, 55
1, 271651, Note_off_c, 0, 81, 67
1, 271701, Note_on_c, 0, 69, 83
1, 271782, Note_off_c, 0, 69, 61
1, 271816, Note_off_c, 0, 45, 59
1, 271825, Note_on_c, 0, 74, 74
1, 271826, Note_on_c, 0, 68, 70
1, 271830, Note_on_c, 0, 38, 47
1, 271833, Note_on_c, 0, 71, 71
1, 271863, Note_off_c, 0, 74, 65
1, 271863, Note_off_c, 0, 68, 63
1, 271863, Note_off_c, 0, 71, 65
1, 271868, Note_off_c, 0, 38, 63
1, 272077, Note_on_c, 0, 57, 52
1, 272082, Note_on_c, 0, 81, 78
1, 272121, Note_off_c, 0, 81, 65
1, 272167, Note_on_c, 0, 69, 75
1, 272240, Note_off_c, 0, 69, 64
1, 272291, Note_off_c, 0, 57, 63
1, 272295, Note_on_c, 0, 76, 82
1, 272298, Note_on_c, 0, 67, 74
1, 272303, Note_on_c, 0, 70, 79
1, 272304, Note_on_c, 0, 45, 57
1, 272326, Note_off_c, 0, 67, 66
1, 272337, Note_off_c, 0, 76, 66
1, 272344, Note_off_c, 0, 45, 63
1, 272344, Note_off_c, 0, 70, 62
1, 272528, Note_on_c, 0, 81, 86
1, 272530, Note_on_c, 0, 45, 63
1, 272566, Note_off_c, 0, 81, 66
1, 272607, Note_on_c, 0, 69, 78
1, 272681, Note_off_c, 0, 69, 59
1, 272729, Note_off_c, 0, 45, 61
1, 272731, Note_on_c, 0, 68, 68
1, 272731, Note_on_c, 0, 77, 77
1, 272735, Note_on_c, 0, 71, 70
1, 272742, Note_on_c, 0, 38, 44
1, 272768, Note_off_c, 0, 68, 65
1, 272770, Note_off_c, 0, 71, 62
1, 272772, Note_off_c, 0, 77, 64
1, 272781, Note_off_c, 0, 38, 62
1, 272981, Note_on_c, 0, 57, 44
1, 272987, Note_on_c, 0, 81, 66
1, 273014, Note_off_c, 0, 81, 68
1, 273066, Note_on_c, 0, 69, 66
1, 273124, Note_off_c, 0, 69, 63
1, 273169, Note_off_c, 0, 57, 58
1, 273185, Note_on_c, 0, 74, 75
1, 273194, Note_on_c, 0, 71, 66
1, 273198, Note_on_c, 0, 67, 56
1, 273200, Note_on_c, 0, 45, 45
1, 273219, Note_off_c, 0, 74, 66
1, 273220, Note_off_c, 0, 71, 67
1, 273225, Note_off_c, 0, 67, 63
1, 273240, Note_off_c, 0, 45, 62
1, 273415, Note_on_c, 0, 81, 84
1, 273418, Note_on_c, 0, 45, 53
1, 273456, Note_off_c, 0, 81, 65
1, 273494, Note_on_c, 0, 69, 80
1, 273570, Note_off_c, 0, 69, 61
1, 273611, Note_off_c, 0, 45, 57
1, 273616, Note_on_c, 0, 79, 80
1, 273618, Note_on_c, 0, 74, 74
1, 273620, Note_on_c, 0, 71, 68
1, 273630, Note_on_c, 0, 38, 49
1, 273647, Note_off_c, 0, 71, 69
1, 273654, Note_off_c, 0, 74, 65
1, 273661, Note_off_c, 0, 79, 65
1, 273666, Note_off_c, 0, 38, 62
1, 273863, Note_on_c, 0, 81, 75
1, 273871, Note_on_c, 0, 57, 41
1, 273898, Note_off_c, 0, 81, 63
1, 273955, Note_on_c, 0, 69, 69
1, 274021, Note_off_c, 0, 69, 61
1, 274069, Note_off_c, 0, 57, 54
1, 274077, Note_on_c, 0, 74, 71
1, 274084, Note_on_c, 0, 71, 68
1, 274090, Note_on_c, 0, 45, 51
1, 274093, Note_on_c, 0, 67, 52
1, 274111, Note_off_c, 0, 71, 67
1, 274112, Note_off_c, 0, 74, 65
1, 274117, Note_off_c, 0, 67, 61
1, 274131, Note_off_c, 0, 45, 63
1, 274318, Note_on_c, 0, 81, 77
1, 274336, Note_on_c, 0, 45, 46
1, 274362, Note_off_c, 0, 81, 65
1, 274428, Note_on_c, 0, 69, 71
1, 274490, Note_off_c, 0, 69, 60
1, 274540, Note_off_c, 0, 45, 60
1, 274557, Note_on_c, 0, 38, 45
1, 274559, Note_on_c, 0, 79, 71
1, 274561, Note_on_c, 0, 70, 67
1, 274563, Note_on_c, 0, 74, 66
1, 274589, Note_off_c, 0, 70, 68
1, 274590, Note_off_c, 0, 79, 65
1, 274591, Note_off_c, 0, 38, 59
1, 274592, Note_off_c, 0, 74, 66
1, 274800, Note_on_c, 0, 57, 60
1, 274800, Note_on_c, 0, 81, 81
1, 274848, Note_off_c, 0, 81, 65
1, 274904, Note_on_c, 0, 69, 75
1, 274965, Note_off_c, 0, 69, 63
1, 274979, Note_off_c, 0, 57, 50
1, 275011, Note_on_c, 0, 74, 70
1, 275015, Note_on_c, 0, 70, 67
1, 275016, Note_on_c, 0, 45, 60
1, 275024, Note_on_c, 0, 67, 49
1, 275041, Note_off_c, 0, 74, 64
1, 275047, Note_off_c, 0, 67, 60
1, 275052, Note_off_c, 0, 70, 65
1, 275057, Note_off_c, 0, 45, 64
1, 275249, Note_on_c, 0, 81, 73
1, 275263, Note_on_c, 0, 45, 56
1, 275301, Note_off_c, 0, 81, 62
1, 275357, Note_on_c, 0, 69, 71
1, 275427, Note_off_c, 0, 69, 60
1, 275467, Note_off_c, 0, 45, 62
1, 275477, Note_on_c, 0, 38, 53
1, 275479, Note_on_c, 0, 78, 67
1, 275488, Note_on_c, 0, 73, 56
1, 275492, Note_on_c, 0, 70, 49
1, 275512, Note_off_c, 0, 38, 62
1, 275513, Note_off_c, 0, 78, 63
1, 275518, Note_off_c, 0, 70, 56
1, 275518, Note_off_c, 0, 73, 66
1, 275709, Note_on_c, 0, 81, 70
1, 275717, Note_on_c, 0, 57, 67
1, 275763, Note_off_c, 0, 81, 62
1, 275790, Note_on_c, 0, 69, 73
1, 275827, Note_off_c, 0, 69, 62
1, 275898, Note_off_c, 0, 57, 59
1, 275905, Note_on_c, 0, 76, 63
1, 275914, Note_on_c, 0, 70, 66
1, 275914, Note_on_c, 0, 66, 61
1, 275918, Note_on_c, 0, 45, 59
1, 275947, Note_off_c, 0, 66, 63
1, 275947, Note_off_c, 0, 70, 64
1, 275947, Note_off_c, 0, 76, 64
1, 275960, Note_off_c, 0, 45, 63
1, 276143, Note_on_c, 0, 81, 83
1, 276150, Note_on_c, 0, 45, 51
1, 276228, Note_on_c, 0, 69, 81
1, 276247, Note_off_c, 0, 81, 62
1, 276262, Note_off_c, 0, 69, 64
1, 276304, Control_c, 0, 64, 28
1, 276319, Control_c, 0, 64, 39
1, 276334, Control_c, 0, 64, 47
1, 276344, Note_off_c, 0, 45, 58
1, 276349, Control_c, 0, 64, 55
1, 276352, Note_on_c, 0, 76, 63
1, 276353, Note_on_c, 0, 82, 82
1, 276363, Note_on_c, 0, 38, 43
1, 276363, Control_c, 0, 64, 63
1, 276369, Note_on_c, 0, 70, 60
1, 276378, Control_c, 0, 64, 69
1, 276393, Control_c, 0, 64, 79
1, 276408, Control_c, 0, 64, 98
1, 276411, Note_off_c, 0, 38, 59
1, 276423, Control_c, 0, 64, 127
1, 276452, Note_off_c, 0, 70, 47
1, 276498, Note_off_c, 0, 82, 60
1, 276570, Control_c, 0, 67, 13
1, 276585, Control_c, 0, 67, 26
1, 276600, Control_c, 0, 67, 36
1, 276615, Control_c, 0, 67, 44
1, 276625, Note_off_c, 0, 76, 61
1, 276629, Control_c, 0, 67, 49
1, 276632, Note_on_c, 0, 57, 44
1, 276643, Note_on_c, 0, 81, 50
1, 276644, Control_c, 0, 67, 53
1, 276659, Control_c, 0, 67, 56
1, 276674, Control_c, 0, 67, 58
1, 276722, Note_off_c, 0, 81, 60
1, 276736, Note_on_c, 0, 69, 51
1, 276800, Control_c, 0, 67, 57
1, 276801, Note_off_c, 0, 69, 54
1, 276826, Note_off_c, 0, 57, 29
1, 276860, Control_c, 0, 67, 56
1, 276864, Note_on_c, 0, 45, 63
1, 276875, Control_c, 0, 67, 56
1, 276890, Control_c, 0, 67, 55
1, 276904, Control_c, 0, 67, 55
1, 276934, Note_off_c, 0, 45, 60
1, 276934, Control_c, 0, 67, 54
1, 276949, Control_c, 0, 67, 53
1, 276964, Control_c, 0, 67, 52
1, 276978, Control_c, 0, 67, 51
1, 276993, Control_c, 0, 67, 51
1, 277008, Control_c, 0, 67, 50
1, 277023, Control_c, 0, 67, 48
1, 277038, Control_c, 0, 67, 48
1, 277053, Control_c, 0, 67, 46
1, 277064, Note_on_c, 0, 45, 63
1, 277068, Control_c, 0, 67, 45
1, 277074, Note_on_c, 0, 81, 79
1, 277083, Control_c, 0, 67, 44
1, 277097, Control_c, 0, 67, 43
1, 277112, Control_c, 0, 67, 41
1, 277127, Control_c, 0, 67, 41
1, 277142, Control_c, 0, 67, 40
1, 277166, Note_on_c, 0, 69, 81
1, 277172, Control_c, 0, 67, 40
1, 277199, Note_off_c, 0, 81, 63
1, 277201, Control_c, 0, 67, 39
1, 277214, Note_off_c, 0, 69, 64
1, 277216, Control_c, 0, 67, 38
1, 277231, Control_c, 0, 64, 119
1, 277245, Control_c, 0, 64, 83
1, 277245, Control_c, 0, 67, 38
1, 277260, Control_c, 0, 64, 65
1, 277275, Control_c, 0, 64, 38
1, 277275, Control_c, 0, 67, 37
1, 277290, Control_c, 0, 64, 0
1, 277297, Note_on_c, 0, 38, 56
1, 277297, Note_on_c, 0, 76, 50
1, 277297, Note_on_c, 0, 82, 74
1, 277297, Note_off_c, 0, 45, 56
1, 277304, Control_c, 0, 64, 27
1, 277306, Note_on_c, 0, 70, 70
1, 277319, Control_c, 0, 64, 43
1, 277334, Control_c, 0, 64, 52
1, 277349, Control_c, 0, 64, 59
1, 277349, Control_c, 0, 67, 36
1, 277364, Control_c, 0, 64, 65
1, 277364, Control_c, 0, 67, 36
1, 277372, Note_off_c, 0, 38, 61
1, 277375, Note_off_c, 0, 70, 65
1, 277378, Control_c, 0, 64, 74
1, 277378, Control_c, 0, 67, 35
1, 277393, Control_c, 0, 64, 90
1, 277408, Control_c, 0, 64, 127
1, 277434, Note_off_c, 0, 82, 57
1, 277497, Control_c, 0, 67, 35
1, 277549, Control_c, 0, 67, 34
1, 277573, Note_on_c, 0, 57, 44
1, 277586, Note_on_c, 0, 81, 58
1, 277596, Note_off_c, 0, 76, 60
1, 277661, Note_off_c, 0, 57, 57
1, 277679, Note_off_c, 0, 81, 54
1, 277702, Note_on_c, 0, 69, 60
1, 277777, Note_off_c, 0, 69, 53
1, 277864, Note_on_c, 0, 43, 48
1, 277890, Control_c, 0, 64, 118
1, 277905, Control_c, 0, 64, 107
1, 277920, Control_c, 0, 64, 101
1, 277935, Control_c, 0, 64, 96
1, 277950, Control_c, 0, 64, 92
1, 277965, Control_c, 0, 64, 87
1, 277980, Control_c, 0, 64, 84
1, 277995, Control_c, 0, 64, 81
1, 278010, Control_c, 0, 64, 77
1, 278025, Control_c, 0, 64, 74
1, 278039, Control_c, 0, 64, 71
1, 278054, Control_c, 0, 64, 68
1, 278069, Control_c, 0, 64, 67
1, 278084, Control_c, 0, 64, 65
1, 278099, Control_c, 0, 64, 64
1, 278114, Control_c, 0, 64, 62
1, 278128, Control_c, 0, 64, 59
1, 278143, Control_c, 0, 64, 54
1, 278158, Control_c, 0, 64, 49
1, 278173, Control_c, 0, 64, 44
1, 278188, Control_c, 0, 64, 38
1, 278189, Note_off_c, 0, 43, 58
1, 278202, Control_c, 0, 64, 33
1, 278211, Note_on_c, 0, 80, 60
1, 278217, Control_c, 0, 64, 27
1, 278219, Note_on_c, 0, 44, 41
1, 278232, Control_c, 0, 64, 21
1, 278247, Control_c, 0, 64, 16
1, 278262, Control_c, 0, 64, 11
1, 278284, Control_c, 0, 64, 0
1, 278416, Note_off_c, 0, 80, 50
1, 278502, Note_on_c, 0, 68, 44
1, 278522, Control_c, 0, 67, 33
1, 278581, Control_c, 0, 67, 33
1, 278625, Control_c, 0, 67, 32
1, 278661, Note_off_c, 0, 68, 56
1, 278714, Control_c, 0, 67, 31
1, 278723, Note_on_c, 0, 37, 42
1, 278732, Note_on_c, 0, 70, 67
1, 278737, Note_on_c, 0, 67, 54
1, 278740, Note_off_c, 0, 44, 49
1, 278743, Control_c, 0, 67, 31
1, 278758, Note_off_c, 0, 67, 61
1, 278758, Control_c, 0, 67, 30
1, 278762, Note_off_c, 0, 37, 61
1, 278763, Note_off_c, 0, 70, 66
1, 278773, Control_c, 0, 67, 29
1, 278788, Control_c, 0, 67, 28
1, 278803, Control_c, 0, 67, 23
1, 278817, Control_c, 0, 67, 23
1, 278832, Control_c, 0, 67, 22
1, 279065, Note_on_c, 0, 80, 54
1, 279071, Note_on_c, 0, 56, 42
1, 279089, Note_off_c, 0, 80, 63
1, 279136, Control_c, 0, 67, 21
1, 279185, Note_on_c, 0, 68, 40
1, 279214, Note_off_c, 0, 68, 54
1, 279288, Note_off_c, 0, 56, 43
1, 279315, Control_c, 0, 67, 21
1, 279320, Note_on_c, 0, 70, 66
1, 279322, Note_on_c, 0, 66, 53
1, 279330, Note_on_c, 0, 44, 41
1, 279348, Note_off_c, 0, 70, 68
1, 279354, Note_off_c, 0, 66, 64
1, 279363, Note_off_c, 0, 44, 57
1, 279433, Control_c, 0, 67, 21
1, 279572, Note_on_c, 0, 80, 66
1, 279575, Note_on_c, 0, 44, 37
1, 279581, Control_c, 0, 67, 21
1, 279595, Control_c, 0, 67, 20
1, 279622, Note_off_c, 0, 80, 59
1, 279655, Control_c, 0, 67, 19
1, 279658, Note_on_c, 0, 68, 62
1, 279690, Note_off_c, 0, 68, 65
1, 279699, Control_c, 0, 67, 19
1, 279782, Note_off_c, 0, 44, 41
1, 279783, Note_on_c, 0, 37, 43
1, 279783, Note_on_c, 0, 72, 76
1, 279795, Note_on_c, 0, 67, 55
1, 279816, Note_off_c, 0, 67, 61
1, 279818, Note_off_c, 0, 37, 53
1, 279819, Note_off_c, 0, 72, 66
1, 279870, Control_c, 0, 67, 19
1, 279885, Control_c, 0, 67, 20
1, 279929, Control_c, 0, 67, 21
1, 280020, Note_on_c, 0, 80, 72
1, 280028, Note_on_c, 0, 56, 50
1, 280061, Note_off_c, 0, 80, 59
1, 280104, Note_on_c, 0, 68, 60
1, 280108, Control_c, 0, 67, 20
1, 280138, Note_off_c, 0, 68, 63
1, 280155, Note_off_c, 0, 56, 36
1, 280167, Control_c, 0, 67, 19
1, 280196, Control_c, 0, 67, 19
1, 280218, Note_on_c, 0, 72, 76
1, 280227, Note_on_c, 0, 66, 59
1, 280230, Note_on_c, 0, 44, 57
1, 280252, Note_off_c, 0, 72, 67
1, 280257, Note_off_c, 0, 66, 64
1, 280265, Note_off_c, 0, 44, 63
1, 280300, Control_c, 0, 67, 19
1, 280314, Control_c, 0, 67, 20
1, 280344, Control_c, 0, 67, 21
1, 280443, Note_on_c, 0, 80, 72
1, 280445, Note_on_c, 0, 44, 50
1, 280494, Note_off_c, 0, 80, 58
1, 280508, Control_c, 0, 67, 20
1, 280533, Note_on_c, 0, 68, 63
1, 280594, Note_off_c, 0, 68, 57
1, 280603, Control_c, 0, 67, 19
1, 280636, Note_off_c, 0, 44, 49
1, 280652, Note_on_c, 0, 37, 52
1, 280656, Note_on_c, 0, 73, 72
1, 280660, Note_on_c, 0, 67, 67
1, 280666, Note_on_c, 0, 70, 56
1, 280678, Control_c, 0, 67, 19
1, 280684, Note_off_c, 0, 37, 61
1, 280686, Note_off_c, 0, 73, 63
1, 280687, Note_off_c, 0, 67, 67
1, 280687, Note_off_c, 0, 70, 61
1, 280752, Control_c, 0, 67, 19
1, 280875, Note_on_c, 0, 80, 74
1, 280883, Note_on_c, 0, 56, 61
1, 280943, Note_off_c, 0, 80, 63
1, 280967, Note_on_c, 0, 68, 66
1, 281002, Note_off_c, 0, 56, 51
1, 281002, Note_off_c, 0, 68, 62
1, 281071, Note_on_c, 0, 75, 76
1, 281076, Note_on_c, 0, 69, 69
1, 281079, Note_on_c, 0, 66, 65
1, 281082, Note_on_c, 0, 44, 58
1, 281098, Note_off_c, 0, 66, 64
1, 281102, Note_off_c, 0, 69, 68
1, 281115, Note_off_c, 0, 44, 65
1, 281124, Note_off_c, 0, 75, 61
1, 281182, Control_c, 0, 67, 20
1, 281212, Control_c, 0, 67, 21
1, 281308, Control_c, 0, 67, 20
1, 281310, Note_on_c, 0, 80, 70
1, 281318, Note_on_c, 0, 44, 52
1, 281367, Control_c, 0, 67, 19
1, 281387, Note_off_c, 0, 80, 55
1, 281402, Note_on_c, 0, 68, 60
1, 281426, Note_off_c, 0, 68, 57
1, 281426, Control_c, 0, 67, 19
1, 281471, Control_c, 0, 67, 18
1, 281490, Note_off_c, 0, 44, 44
1, 281512, Note_on_c, 0, 37, 54
1, 281515, Control_c, 0, 67, 18
1, 281518, Note_on_c, 0, 67, 64
1, 281521, Note_on_c, 0, 76, 74
1, 281522, Note_on_c, 0, 70, 60
1, 281541, Note_off_c, 0, 70, 63
1, 281544, Note_off_c, 0, 37, 63
1, 281547, Note_off_c, 0, 67, 67
1, 281560, Control_c, 0, 67, 17
1, 281567, Note_off_c, 0, 76, 62
1, 281590, Control_c, 0, 67, 18
1, 281620, Control_c, 0, 67, 18
1, 281649, Control_c, 0, 67, 19
1, 281709, Control_c, 0, 67, 19
1, 281757, Note_on_c, 0, 80, 61
1, 281760, Note_on_c, 0, 56, 56
1, 281803, Note_off_c, 0, 80, 59
1, 281840, Note_on_c, 0, 68, 67
1, 281858, Note_off_c, 0, 56, 49
1, 281870, Note_off_c, 0, 68, 65
1, 281872, Control_c, 0, 67, 19
1, 281938, Note_on_c, 0, 73, 69
1, 281940, Note_on_c, 0, 66, 69
1, 281940, Note_on_c, 0, 70, 72
1, 281961, Note_on_c, 0, 44, 44
1, 281968, Note_off_c, 0, 66, 64
1, 281970, Note_off_c, 0, 70, 62
1, 281979, Note_off_c, 0, 73, 63
1, 281991, Note_off_c, 0, 44, 53
1, 282102, Control_c, 0, 67, 19
1, 282158, Note_on_c, 0, 80, 67
1, 282159, Note_on_c, 0, 44, 45
1, 282198, Note_off_c, 0, 80, 59
1, 282247, Note_on_c, 0, 68, 72
1, 282264, Control_c, 0, 67, 19
1, 282290, Note_off_c, 0, 68, 56
1, 282308, Control_c, 0, 67, 18
1, 282343, Note_off_c, 0, 44, 36
1, 282351, Note_on_c, 0, 37, 46
1, 282351, Note_on_c, 0, 78, 77
1, 282353, Note_on_c, 0, 70, 71
1, 282354, Note_on_c, 0, 73, 71
1, 282368, Control_c, 0, 67, 18
1, 282378, Note_off_c, 0, 73, 69
1, 282379, Note_off_c, 0, 70, 69
1, 282380, Note_off_c, 0, 78, 67
1, 282383, Control_c, 0, 67, 17
1, 282383, Note_off_c, 0, 37, 56
1, 282413, Control_c, 0, 67, 16
1, 282428, Control_c, 0, 67, 14
1, 282443, Control_c, 0, 67, 13
1, 282592, Note_on_c, 0, 80, 64
1, 282595, Note_on_c, 0, 56, 56
1, 282623, Note_off_c, 0, 80, 67
1, 282680, Note_on_c, 0, 68, 64
1, 282713, Note_off_c, 0, 68, 63
1, 282718, Note_off_c, 0, 56, 54
1, 282784, Note_on_c, 0, 73, 70
1, 282785, Note_on_c, 0, 44, 56
1, 282787, Note_on_c, 0, 70, 71
1, 282791, Note_on_c, 0, 66, 58
1, 282810, Note_off_c, 0, 73, 68
1, 282816, Note_off_c, 0, 70, 64
1, 282818, Note_off_c, 0, 44, 63
1, 282822, Note_off_c, 0, 66, 65
1, 282997, Note_on_c, 0, 80, 65
1, 283007, Note_on_c, 0, 44, 41
1, 283046, Note_off_c, 0, 80, 53
1, 283085, Note_on_c, 0, 68, 56
1, 283129, Note_off_c, 0, 68, 57
1, 283176, Control_c, 0, 67, 12
1, 283181, Note_off_c, 0, 44, 46
1, 283197, Note_on_c, 0, 78, 76
1, 283200, Note_on_c, 0, 37, 41
1, 283202, Note_on_c, 0, 69, 64
1, 283205, Note_on_c, 0, 73, 55
1, 283232, Note_off_c, 0, 69, 66
1, 283236, Note_off_c, 0, 37, 53
1, 283236, Note_off_c, 0, 73, 66
1, 283269, Note_off_c, 0, 78, 63
1, 283440, Note_on_c, 0, 80, 60
1, 283443, Note_on_c, 0, 56, 49
1, 283503, Note_off_c, 0, 80, 64
1, 283540, Note_on_c, 0, 68, 47
1, 283565, Note_off_c, 0, 68, 56
1, 283580, Note_off_c, 0, 56, 50
1, 283630, Note_on_c, 0, 66, 59
1, 283632, Note_on_c, 0, 69, 65
1, 283632, Note_on_c, 0, 73, 65
1, 283644, Note_on_c, 0, 44, 51
1, 283653, Note_off_c, 0, 66, 63
1, 283659, Note_off_c, 0, 69, 68
1, 283668, Note_off_c, 0, 73, 61
1, 283678, Note_off_c, 0, 44, 64
1, 283860, Note_on_c, 0, 80, 62
1, 283865, Note_on_c, 0, 44, 41
1, 283910, Control_c, 0, 67, 11
1, 283925, Control_c, 0, 64, 9
1, 283939, Control_c, 0, 64, 21
1, 283946, Note_off_c, 0, 80, 61
1, 283954, Control_c, 0, 64, 29
1, 283968, Control_c, 0, 64, 35
1, 283968, Control_c, 0, 67, 11
1, 283978, Note_on_c, 0, 68, 54
1, 283983, Control_c, 0, 64, 40
1, 283998, Control_c, 0, 64, 45
1, 284007, Note_off_c, 0, 68, 62
1, 284014, Control_c, 0, 64, 48
1, 284029, Control_c, 0, 64, 51
1, 284043, Control_c, 0, 64, 54
1, 284058, Control_c, 0, 64, 57
1, 284073, Control_c, 0, 64, 60
1, 284088, Control_c, 0, 64, 63
1, 284095, Note_off_c, 0, 44, 40
1, 284103, Note_on_c, 0, 37, 39
1, 284103, Control_c, 0, 64, 68
1, 284118, Control_c, 0, 64, 73
1, 284132, Control_c, 0, 64, 81
1, 284147, Control_c, 0, 64, 92
1, 284149, Note_off_c, 0, 37, 60
1, 284162, Control_c, 0, 64, 106
1, 284177, Control_c, 0, 64, 127
1, 284227, Note_on_c, 0, 54, 65
1, 284290, Note_off_c, 0, 54, 63
1, 284358, Note_on_c, 0, 61, 71
1, 284370, Note_on_c, 0, 56, 61
1, 284560, Note_on_c, 0, 44, 64
1, 284563, Note_off_c, 0, 56, 60
1, 284613, Note_off_c, 0, 44, 57
1, 284648, Note_on_c, 0, 65, 83
1, 284652, Note_off_c, 0, 61, 59
1, 284687, Control_c, 0, 67, 10
1, 284717, Control_c, 0, 64, 91
1, 284732, Control_c, 0, 64, 72
1, 284746, Control_c, 0, 64, 58
1, 284761, Control_c, 0, 64, 36
1, 284771, Note_on_c, 0, 44, 55
1, 284773, Note_off_c, 0, 65, 61
1, 284776, Control_c, 0, 64, 44
1, 284776, Note_on_c, 0, 66, 78
1, 284790, Note_on_c, 0, 60, 61
1, 284791, Control_c, 0, 64, 52
1, 284806, Control_c, 0, 64, 56
1, 284806, Control_c, 0, 67, 11
1, 284821, Control_c, 0, 64, 60
1, 284836, Control_c, 0, 64, 63
1, 284836, Control_c, 0, 67, 11
1, 284851, Control_c, 0, 64, 67
1, 284866, Control_c, 0, 64, 74
1, 284866, Control_c, 0, 67, 12
1, 284881, Control_c, 0, 64, 88
1, 284896, Control_c, 0, 64, 127
1, 284910, Control_c, 0, 67, 13
1, 284925, Control_c, 0, 67, 14
1, 284940, Control_c, 0, 67, 15
1, 284955, Control_c, 0, 67, 16
1, 284958, Note_off_c, 0, 66, 62
1, 284964, Note_off_c, 0, 44, 58
1, 284970, Control_c, 0, 67, 16
1, 284975, Note_on_c, 0, 37, 53
1, 284978, Note_off_c, 0, 60, 38
1, 285018, Note_off_c, 0, 37, 61
1, 285032, Note_on_c, 0, 66, 63
1, 285036, Control_c, 0, 67, 17
1, 285122, Note_on_c, 0, 59, 63
1, 285149, Note_off_c, 0, 66, 51
1, 285166, Note_off_c, 0, 59, 57
1, 285184, Control_c, 0, 64, 90
1, 285199, Control_c, 0, 64, 72
1, 285199, Control_c, 0, 67, 18
1, 285214, Control_c, 0, 64, 59
1, 285214, Control_c, 0, 67, 18
1, 285229, Control_c, 0, 64, 45
1, 285229, Control_c, 0, 67, 19
1, 285244, Note_on_c, 0, 56, 52
1, 285244, Control_c, 0, 64, 53
1, 285244, Control_c, 0, 67, 21
1, 285259, Control_c, 0, 64, 59
1, 285259, Control_c, 0, 67, 22
1, 285266, Note_on_c, 0, 73, 68
1, 285273, Control_c, 0, 64, 63
1, 285273, Control_c, 0, 67, 23
1, 285288, Control_c, 0, 64, 65
1, 285288, Control_c, 0, 67, 24
1, 285303, Control_c, 0, 64, 69
1, 285303, Control_c, 0, 67, 25
1, 285317, Control_c, 0, 64, 77
1, 285317, Control_c, 0, 67, 26
1, 285332, Control_c, 0, 64, 90
1, 285332, Control_c, 0, 67, 28
1, 285347, Control_c, 0, 64, 127
1, 285347, Control_c, 0, 67, 30
1, 285357, Note_off_c, 0, 73, 61
1, 285362, Control_c, 0, 67, 31
1, 285377, Control_c, 0, 67, 32
1, 285391, Control_c, 0, 67, 33
1, 285406, Control_c, 0, 67, 34
1, 285421, Control_c, 0, 67, 35
1, 285436, Control_c, 0, 67, 38
1, 285451, Control_c, 0, 67, 40
1, 285466, Control_c, 0, 67, 44
1, 285481, Control_c, 0, 67, 50
1, 285496, Control_c, 0, 67, 55
1, 285510, Control_c, 0, 67, 58
1, 285525, Control_c, 0, 67, 61
1, 285540, Control_c, 0, 67, 65
1, 285555, Control_c, 0, 67, 71
1, 285563, Note_on_c, 0, 85, 78
1, 285570, Control_c, 0, 67, 78
1, 285581, Note_off_c, 0, 56, 42
1, 285584, Control_c, 0, 67, 83
1, 285587, Note_on_c, 0, 44, 38
1, 285599, Control_c, 0, 67, 88
1, 285615, Control_c, 0, 67, 94
1, 285630, Note_off_c, 0, 44, 58
1, 285630, Control_c, 0, 67, 100
1, 285645, Control_c, 0, 67, 108
1, 285660, Control_c, 0, 67, 115
1, 285675, Control_c, 0, 67, 119
1, 285689, Control_c, 0, 67, 120
1, 285700, Note_off_c, 0, 85, 53
1, 285786, Control_c, 0, 67, 119
1, 285875, Control_c, 0, 67, 119
1, 285889, Control_c, 0, 64, 108
1, 285893, Note_on_c, 0, 88, 65
1, 285904, Control_c, 0, 64, 89
1, 285904, Control_c, 0, 67, 118
1, 285919, Control_c, 0, 64, 75
1, 285919, Control_c, 0, 67, 117
1, 285933, Control_c, 0, 64, 65
1, 285933, Control_c, 0, 67, 116
1, 285948, Control_c, 0, 64, 60
1, 285948, Control_c, 0, 67, 115
1, 285956, Note_off_c, 0, 88, 64
1, 285963, Control_c, 0, 64, 61
1, 285963, Control_c, 0, 67, 114
1, 285971, Note_on_c, 0, 76, 73
1, 285978, Control_c, 0, 64, 64
1, 285993, Control_c, 0, 64, 67
1, 285994, Note_on_c, 0, 40, 43
1, 286003, Note_off_c, 0, 76, 67
1, 286008, Control_c, 0, 64, 71
1, 286008, Control_c, 0, 67, 114
1, 286022, Control_c, 0, 64, 76
1, 286022, Control_c, 0, 67, 113
1, 286037, Control_c, 0, 64, 85
1, 286037, Control_c, 0, 67, 112
1, 286052, Control_c, 0, 64, 98
1, 286067, Control_c, 0, 64, 127
1, 286097, Control_c, 0, 67, 112
1, 286112, Control_c, 0, 67, 111
1, 286127, Control_c, 0, 67, 110
1, 286156, Control_c, 0, 67, 110
1, 286230, Control_c, 0, 67, 109
1, 286245, Control_c, 0, 67, 108
1, 286260, Control_c, 0, 67, 107
1, 286275, Control_c, 0, 67, 107
1, 286289, Control_c, 0, 67, 106
1, 286303, Note_on_c, 0, 64, 68
1, 286304, Control_c, 0, 64, 123
1, 286304, Control_c, 0, 67, 105
1, 286319, Control_c, 0, 64, 111
1, 286319, Control_c, 0, 67, 103
1, 286333, Control_c, 0, 64, 102
1, 286333, Control_c, 0, 67, 102
1, 286348, Control_c, 0, 64, 94
1, 286363, Control_c, 0, 64, 90
1, 286378, Control_c, 0, 64, 87
1, 286393, Control_c, 0, 64, 85
1, 286409, Control_c, 0, 64, 83
1, 286409, Control_c, 0, 67, 102
1, 286424, Control_c, 0, 64, 80
1, 286424, Control_c, 0, 67, 101
1, 286438, Control_c, 0, 64, 78
1, 286453, Control_c, 0, 64, 76
1, 286468, Control_c, 0, 64, 75
1, 286483, Control_c, 0, 64, 74
1, 286483, Control_c, 0, 67, 100
1, 286498, Control_c, 0, 64, 72
1, 286520, Control_c, 0, 64, 71
1, 286535, Control_c, 0, 64, 69
1, 286550, Control_c, 0, 64, 67
1, 286564, Control_c, 0, 64, 65
1, 286579, Control_c, 0, 64, 64
1, 286594, Control_c, 0, 64, 63
1, 286609, Control_c, 0, 64, 63
1, 286609, Control_c, 0, 67, 100
1, 286624, Control_c, 0, 64, 61
1, 286638, Control_c, 0, 64, 58
1, 286638, Control_c, 0, 67, 99
1, 286653, Control_c, 0, 64, 51
1, 286663, Note_off_c, 0, 64, 61
1, 286668, Control_c, 0, 64, 42
1, 286668, Control_c, 0, 67, 98
1, 286674, Note_on_c, 0, 66, 65
1, 286676, Note_on_c, 0, 33, 42
1, 286677, Note_on_c, 0, 63, 54
1, 286683, Control_c, 0, 64, 30
1, 286698, Control_c, 0, 64, 21
1, 286698, Control_c, 0, 67, 98
1, 286706, Note_off_c, 0, 40, 42
1, 286712, Control_c, 0, 64, 17
1, 286716, Note_off_c, 0, 63, 62
1, 286719, Note_off_c, 0, 33, 60
1, 286726, Note_off_c, 0, 66, 61
1, 286727, Control_c, 0, 64, 15
1, 286742, Control_c, 0, 64, 12
1, 286757, Control_c, 0, 64, 11
1, 286786, Control_c, 0, 64, 9
1, 286875, Control_c, 0, 67, 98
1, 286890, Control_c, 0, 67, 99
1, 287063, Note_on_c, 0, 52, 37
1, 287079, Note_on_c, 0, 76, 66
1, 287083, Control_c, 0, 67, 98
1, 287098, Control_c, 0, 64, 0
1, 287098, Control_c, 0, 67, 98
1, 287112, Control_c, 0, 67, 97
1, 287142, Control_c, 0, 67, 97
1, 287146, Note_off_c, 0, 76, 59
1, 287156, Control_c, 0, 67, 96
1, 287186, Control_c, 0, 67, 95
1, 287217, Control_c, 0, 67, 95
1, 287233, Note_on_c, 0, 64, 61
1, 287313, Control_c, 0, 67, 94
1, 287331, Note_off_c, 0, 64, 61
1, 287373, Note_off_c, 0, 52, 43
1, 287405, Note_on_c, 0, 66, 71
1, 287409, Note_on_c, 0, 40, 44
1, 287411, Note_on_c, 0, 62, 49
1, 287438, Note_off_c, 0, 62, 57
1, 287442, Note_off_c, 0, 66, 63
1, 287448, Note_off_c, 0, 40, 63
1, 287491, Control_c, 0, 67, 95
1, 287521, Control_c, 0, 67, 95
1, 287550, Control_c, 0, 64, 9
1, 287550, Control_c, 0, 67, 96
1, 287565, Control_c, 0, 64, 12
1, 287580, Control_c, 0, 67, 97
1, 287594, Control_c, 0, 64, 13
1, 287668, Control_c, 0, 67, 95
1, 287683, Control_c, 0, 64, 15
1, 287683, Control_c, 0, 67, 95
1, 287698, Note_on_c, 0, 88, 80
1, 287698, Control_c, 0, 64, 17
1, 287698, Control_c, 0, 67, 94
1, 287707, Note_on_c, 0, 40, 38
1, 287713, Control_c, 0, 64, 25
1, 287713, Control_c, 0, 67, 93
1, 287728, Control_c, 0, 64, 33
1, 287728, Control_c, 0, 67, 92
1, 287742, Control_c, 0, 64, 41
1, 287752, Note_off_c, 0, 88, 64
1, 287757, Control_c, 0, 64, 46
1, 287772, Control_c, 0, 64, 49
1, 287787, Control_c, 0, 64, 50
1, 287802, Control_c, 0, 64, 51
1, 287802, Control_c, 0, 67, 92
1, 287802, Note_on_c, 0, 76, 75
1, 287832, Note_off_c, 0, 76, 69
1, 287832, Control_c, 0, 67, 91
1, 287847, Control_c, 0, 67, 90
1, 287891, Control_c, 0, 64, 50
1, 287906, Control_c, 0, 64, 48
1, 287921, Control_c, 0, 64, 44
1, 287935, Control_c, 0, 64, 39
1, 287945, Note_on_c, 0, 68, 85
1, 287950, Control_c, 0, 64, 34
1, 287958, Note_on_c, 0, 63, 63
1, 287960, Note_on_c, 0, 33, 42
1, 287965, Control_c, 0, 64, 30
1, 287965, Control_c, 0, 67, 89
1, 287969, Note_off_c, 0, 40, 42
1, 287978, Note_off_c, 0, 63, 61
1, 287978, Note_off_c, 0, 68, 59
1, 287979, Control_c, 0, 64, 25
1, 287979, Control_c, 0, 67, 88
1, 287993, Note_off_c, 0, 33, 52
1, 287994, Control_c, 0, 64, 21
1, 288017, Control_c, 0, 64, 21
1, 288032, Control_c, 0, 67, 89
1, 288047, Control_c, 0, 67, 90
1, 288062, Control_c, 0, 67, 91
1, 288106, Control_c, 0, 67, 92
1, 288166, Control_c, 0, 64, 20
1, 288195, Control_c, 0, 64, 18
1, 288195, Control_c, 0, 67, 91
1, 288210, Note_on_c, 0, 52, 36
1, 288210, Control_c, 0, 64, 16
1, 288210, Control_c, 0, 67, 90
1, 288216, Note_on_c, 0, 76, 74
1, 288225, Control_c, 0, 64, 11
1, 288225, Control_c, 0, 67, 89
1, 288240, Control_c, 0, 64, 0
1, 288252, Note_off_c, 0, 76, 62
1, 288255, Control_c, 0, 67, 88
1, 288299, Control_c, 0, 67, 88
1, 288309, Note_on_c, 0, 64, 56
1, 288329, Control_c, 0, 67, 87
1, 288344, Control_c, 0, 67, 87
1, 288351, Note_off_c, 0, 64, 62
1, 288358, Control_c, 0, 67, 86
1, 288388, Control_c, 0, 67, 85
1, 288416, Note_off_c, 0, 52, 36
1, 288421, Note_on_c, 0, 68, 78
1, 288429, Note_on_c, 0, 62, 55
1, 288439, Note_on_c, 0, 40, 43
1, 288452, Note_off_c, 0, 62, 60
1, 288461, Note_off_c, 0, 68, 62
1, 288462, Control_c, 0, 67, 85
1, 288470, Note_off_c, 0, 40, 57
1, 288477, Control_c, 0, 67, 83
1, 288521, Control_c, 0, 67, 84
1, 288535, Control_c, 0, 67, 85
1, 288580, Control_c, 0, 64, 9
1, 288658, Note_on_c, 0, 40, 40
1, 288658, Note_on_c, 0, 88, 77
1, 288684, Control_c, 0, 67, 84
1, 288697, Note_off_c, 0, 88, 67
1, 288699, Control_c, 0, 67, 83
1, 288714, Control_c, 0, 64, 0
1, 288714, Control_c, 0, 67, 83
1, 288726, Note_on_c, 0, 76, 72
1, 288761, Note_off_c, 0, 76, 69
1, 288780, Control_c, 0, 67, 82
1, 288862, Note_on_c, 0, 33, 42
1, 288862, Note_off_c, 0, 40, 47
1, 288866, Note_on_c, 0, 69, 64
1, 288875, Note_on_c, 0, 67, 60
1, 288881, Note_on_c, 0, 65, 55
1, 288885, Note_off_c, 0, 69, 65
1, 288887, Note_on_c, 0, 62, 41
1, 288896, Note_off_c, 0, 33, 53
1, 288896, Note_off_c, 0, 67, 64
1, 288903, Note_off_c, 0, 65, 59
1, 288915, Note_off_c, 0, 62, 56
1, 288929, Control_c, 0, 67, 83
1, 288944, Control_c, 0, 67, 84
1, 288959, Control_c, 0, 67, 85
1, 288974, Control_c, 0, 67, 85
1, 289003, Control_c, 0, 67, 86
1, 289093, Control_c, 0, 67, 85
1, 289095, Note_on_c, 0, 52, 45
1, 289107, Control_c, 0, 67, 85
1, 289111, Note_on_c, 0, 76, 61
1, 289131, Note_off_c, 0, 76, 61
1, 289137, Control_c, 0, 67, 84
1, 289151, Control_c, 0, 67, 83
1, 289181, Control_c, 0, 67, 83
1, 289188, Note_on_c, 0, 64, 69
1, 289211, Control_c, 0, 67, 82
1, 289237, Note_off_c, 0, 64, 61
1, 289255, Control_c, 0, 67, 82
1, 289285, Note_off_c, 0, 52, 36
1, 289295, Note_on_c, 0, 71, 76
1, 289299, Note_on_c, 0, 66, 71
1, 289307, Note_on_c, 0, 62, 48
1, 289309, Note_on_c, 0, 40, 45
1, 289314, Control_c, 0, 67, 81
1, 289327, Note_off_c, 0, 71, 66
1, 289328, Note_off_c, 0, 66, 66
1, 289333, Note_off_c, 0, 62, 57
1, 289340, Note_off_c, 0, 40, 58
1, 289344, Control_c, 0, 67, 80
1, 289388, Control_c, 0, 67, 81
1, 289418, Control_c, 0, 67, 82
1, 289447, Control_c, 0, 67, 82
1, 289530, Note_on_c, 0, 40, 43
1, 289530, Note_on_c, 0, 88, 79
1, 289569, Note_off_c, 0, 88, 66
1, 289573, Control_c, 0, 67, 82
1, 289594, Note_on_c, 0, 76, 76
1, 289621, Note_off_c, 0, 76, 70
1, 289663, Control_c, 0, 67, 81
1, 289701, Note_off_c, 0, 40, 60
1, 289719, Note_on_c, 0, 33, 44
1, 289719, Note_on_c, 0, 72, 81
1, 289724, Note_on_c, 0, 66, 75
1, 289728, Note_on_c, 0, 63, 73
1, 289745, Note_off_c, 0, 72, 66
1, 289751, Note_off_c, 0, 33, 57
1, 289751, Note_off_c, 0, 66, 66
1, 289754, Note_off_c, 0, 63, 68
1, 289782, Control_c, 0, 67, 82
1, 289797, Control_c, 0, 67, 82
1, 289811, Control_c, 0, 67, 83
1, 289826, Control_c, 0, 67, 83
1, 289841, Control_c, 0, 67, 84
1, 289951, Note_on_c, 0, 76, 77
1, 289962, Note_on_c, 0, 52, 49
1, 289974, Control_c, 0, 67, 83
1, 289975, Note_off_c, 0, 76, 67
1, 289989, Control_c, 0, 67, 83
1, 290019, Control_c, 0, 67, 82
1, 290040, Note_on_c, 0, 64, 67
1, 290063, Control_c, 0, 67, 82
1, 290088, Note_off_c, 0, 64, 60
1, 290093, Control_c, 0, 67, 81
1, 290122, Control_c, 0, 67, 80
1, 290125, Note_off_c, 0, 52, 38
1, 290137, Control_c, 0, 67, 80
1, 290141, Note_on_c, 0, 69, 78
1, 290142, Note_on_c, 0, 66, 73
1, 290146, Note_on_c, 0, 62, 59
1, 290154, Note_on_c, 0, 40, 49
1, 290170, Note_off_c, 0, 62, 63
1, 290174, Note_off_c, 0, 69, 66
1, 290176, Note_off_c, 0, 66, 65
1, 290181, Control_c, 0, 67, 79
1, 290188, Note_off_c, 0, 40, 64
1, 290241, Control_c, 0, 67, 80
1, 290367, Note_on_c, 0, 88, 85
1, 290372, Note_on_c, 0, 40, 49
1, 290381, Control_c, 0, 67, 79
1, 290396, Control_c, 0, 67, 78
1, 290412, Note_off_c, 0, 88, 64
1, 290442, Note_on_c, 0, 76, 81
1, 290476, Note_off_c, 0, 76, 63
1, 290537, Note_off_c, 0, 40, 59
1, 290559, Note_on_c, 0, 74, 81
1, 290559, Note_on_c, 0, 69, 84
1, 290560, Note_on_c, 0, 33, 48
1, 290560, Control_c, 0, 67, 79
1, 290569, Note_on_c, 0, 66, 80
1, 290575, Control_c, 0, 67, 80
1, 290592, Note_off_c, 0, 33, 60
1, 290598, Note_off_c, 0, 74, 64
1, 290600, Note_off_c, 0, 69, 64
1, 290603, Note_off_c, 0, 66, 65
1, 290604, Control_c, 0, 67, 80
1, 290693, Control_c, 0, 67, 81
1, 290792, Note_on_c, 0, 52, 54
1, 290795, Note_on_c, 0, 74, 59
1, 290796, Note_on_c, 0, 76, 64
1, 290797, Control_c, 0, 67, 80
1, 290813, Note_off_c, 0, 76, 65
1, 290825, Note_off_c, 0, 74, 66
1, 290827, Control_c, 0, 67, 80
1, 290857, Control_c, 0, 67, 79
1, 290874, Note_on_c, 0, 64, 68
1, 290886, Control_c, 0, 67, 78
1, 290919, Note_off_c, 0, 64, 60
1, 290944, Note_off_c, 0, 52, 33
1, 290945, Control_c, 0, 67, 78
1, 290977, Note_on_c, 0, 69, 79
1, 290980, Note_on_c, 0, 66, 72
1, 290986, Note_on_c, 0, 62, 52
1, 290993, Note_on_c, 0, 40, 41
1, 291016, Note_off_c, 0, 62, 58
1, 291021, Note_off_c, 0, 66, 65
1, 291021, Note_off_c, 0, 69, 65
1, 291033, Note_off_c, 0, 40, 54
1, 291057, Control_c, 0, 67, 78
1, 291072, Control_c, 0, 67, 79
1, 291175, Control_c, 0, 67, 78
1, 291204, Note_on_c, 0, 40, 34
1, 291207, Note_on_c, 0, 88, 77
1, 291221, Control_c, 0, 67, 78
1, 291232, Note_off_c, 0, 88, 68
1, 291250, Control_c, 0, 67, 77
1, 291277, Note_on_c, 0, 76, 68
1, 291280, Control_c, 0, 67, 77
1, 291310, Note_off_c, 0, 76, 64
1, 291339, Control_c, 0, 67, 76
1, 291382, Note_off_c, 0, 40, 47
1, 291389, Note_on_c, 0, 74, 70
1, 291393, Note_on_c, 0, 69, 71
1, 291394, Note_on_c, 0, 33, 44
1, 291399, Note_on_c, 0, 65, 60
1, 291419, Note_off_c, 0, 74, 65
1, 291420, Note_off_c, 0, 69, 68
1, 291423, Note_off_c, 0, 65, 62
1, 291426, Note_off_c, 0, 33, 56
1, 291442, Control_c, 0, 67, 77
1, 291457, Control_c, 0, 67, 77
1, 291607, Note_on_c, 0, 76, 71
1, 291617, Note_on_c, 0, 52, 49
1, 291637, Note_off_c, 0, 76, 67
1, 291650, Control_c, 0, 67, 77
1, 291694, Note_on_c, 0, 64, 60
1, 291709, Control_c, 0, 67, 76
1, 291731, Note_off_c, 0, 64, 62
1, 291783, Note_off_c, 0, 52, 43
1, 291799, Note_on_c, 0, 69, 71
1, 291809, Note_on_c, 0, 62, 49
1, 291810, Note_on_c, 0, 40, 52
1, 291813, Note_on_c, 0, 65, 54
1, 291834, Note_off_c, 0, 62, 58
1, 291837, Note_off_c, 0, 69, 67
1, 291842, Note_off_c, 0, 65, 65
1, 291847, Note_off_c, 0, 40, 62
1, 291850, Control_c, 0, 67, 75
1, 291895, Control_c, 0, 67, 75
1, 291939, Control_c, 0, 64, 12
1, 291953, Control_c, 0, 64, 21
1, 291953, Control_c, 0, 67, 74
1, 291968, Control_c, 0, 64, 28
1, 291983, Control_c, 0, 64, 33
1, 291999, Control_c, 0, 64, 37
1, 292014, Control_c, 0, 64, 40
1, 292014, Control_c, 0, 67, 73
1, 292018, Note_on_c, 0, 40, 36
1, 292029, Control_c, 0, 64, 43
1, 292029, Control_c, 0, 67, 73
1, 292031, Note_on_c, 0, 88, 75
1, 292044, Control_c, 0, 64, 46
1, 292058, Control_c, 0, 64, 47
1, 292058, Control_c, 0, 67, 72
1, 292073, Control_c, 0, 64, 50
1, 292075, Note_off_c, 0, 88, 62
1, 292088, Control_c, 0, 64, 52
1, 292088, Control_c, 0, 67, 72
1, 292103, Control_c, 0, 64, 54
1, 292107, Note_on_c, 0, 76, 66
1, 292118, Control_c, 0, 64, 57
1, 292118, Control_c, 0, 67, 70
1, 292132, Control_c, 0, 64, 59
1, 292132, Control_c, 0, 67, 58
1, 292136, Note_off_c, 0, 76, 67
1, 292147, Control_c, 0, 64, 62
1, 292147, Control_c, 0, 67, 45
1, 292162, Control_c, 0, 64, 65
1, 292162, Control_c, 0, 67, 37
1, 292177, Control_c, 0, 64, 69
1, 292177, Control_c, 0, 67, 33
1, 292192, Control_c, 0, 64, 76
1, 292192, Control_c, 0, 67, 30
1, 292206, Control_c, 0, 64, 90
1, 292206, Control_c, 0, 67, 29
1, 292221, Control_c, 0, 64, 111
1, 292221, Control_c, 0, 67, 28
1, 292236, Control_c, 0, 64, 127
1, 292236, Control_c, 0, 67, 28
1, 292240, Note_on_c, 0, 33, 41
1, 292254, Note_on_c, 0, 77, 77
1, 292256, Note_off_c, 0, 40, 42
1, 292265, Note_on_c, 0, 71, 65
1, 292270, Note_on_c, 0, 65, 59
1, 292277, Note_off_c, 0, 33, 51
1, 292280, Control_c, 0, 67, 27
1, 292306, Note_off_c, 0, 65, 61
1, 292357, Note_off_c, 0, 71, 63
1, 292381, Note_off_c, 0, 77, 62
1, 292533, Note_on_c, 0, 52, 38
1, 292564, Note_on_c, 0, 88, 62
1, 292605, Note_off_c, 0, 88, 58
1, 292640, Note_on_c, 0, 76, 62
1, 292675, Note_off_c, 0, 76, 65
1, 292719, Note_off_c, 0, 52, 44
1, 292745, Note_on_c, 0, 40, 54
1, 292762, Control_c, 0, 67, 28
1, 292800, Note_off_c, 0, 40, 57
1, 292881, Control_c, 0, 67, 28
1, 292896, Control_c, 0, 67, 29
1, 292953, Note_on_c, 0, 40, 57
1, 292962, Note_on_c, 0, 76, 80
1, 293056, Note_on_c, 0, 64, 74
1, 293059, Control_c, 0, 64, 94
1, 293069, Note_off_c, 0, 76, 62
1, 293073, Control_c, 0, 64, 71
1, 293088, Note_off_c, 0, 64, 63
1, 293088, Control_c, 0, 64, 52
1, 293103, Control_c, 0, 64, 35
1, 293118, Control_c, 0, 64, 47
1, 293133, Control_c, 0, 64, 57
1, 293147, Note_off_c, 0, 40, 59
1, 293147, Control_c, 0, 64, 63
1, 293157, Note_on_c, 0, 33, 53
1, 293162, Note_on_c, 0, 71, 57
1, 293162, Control_c, 0, 64, 68
1, 293164, Note_on_c, 0, 77, 84
1, 293168, Note_on_c, 0, 65, 73
1, 293177, Control_c, 0, 64, 77
1, 293177, Control_c, 0, 67, 29
1, 293190, Note_off_c, 0, 33, 62
1, 293192, Control_c, 0, 64, 106
1, 293200, Note_off_c, 0, 65, 63
1, 293206, Control_c, 0, 64, 127
1, 293227, Note_off_c, 0, 71, 63
1, 293263, Note_off_c, 0, 77, 64
1, 293274, Control_c, 0, 67, 29
1, 293333, Control_c, 0, 67, 29
1, 293409, Note_on_c, 0, 52, 42
1, 293417, Note_on_c, 0, 88, 67
1, 293421, Control_c, 0, 67, 30
1, 293469, Note_off_c, 0, 88, 59
1, 293478, Note_on_c, 0, 76, 59
1, 293515, Note_off_c, 0, 76, 65
1, 293525, Control_c, 0, 67, 31
1, 293555, Control_c, 0, 67, 31
1, 293572, Note_off_c, 0, 52, 49
1, 293611, Note_on_c, 0, 40, 61
1, 293662, Note_off_c, 0, 40, 59
1, 293749, Control_c, 0, 67, 31
1, 293808, Control_c, 0, 67, 30
1, 293820, Note_on_c, 0, 76, 81
1, 293827, Note_on_c, 0, 40, 51
1, 293852, Control_c, 0, 67, 29
1, 293882, Note_off_c, 0, 76, 64
1, 293895, Note_on_c, 0, 64, 76
1, 293921, Note_off_c, 0, 64, 68
1, 293970, Control_c, 0, 64, 82
1, 293985, Control_c, 0, 64, 62
1, 294008, Control_c, 0, 64, 43
1, 294011, Note_off_c, 0, 40, 53
1, 294023, Control_c, 0, 64, 46
1, 294037, Control_c, 0, 64, 54
1, 294037, Control_c, 0, 67, 30
1, 294038, Note_on_c, 0, 65, 74
1, 294043, Note_on_c, 0, 33, 44
1, 294047, Note_on_c, 0, 53, 63
1, 294047, Note_on_c, 0, 59, 54
1, 294052, Control_c, 0, 64, 60
1, 294067, Control_c, 0, 64, 64
1, 294067, Control_c, 0, 67, 31
1, 294080, Note_off_c, 0, 33, 61
1, 294082, Control_c, 0, 64, 70
1, 294083, Note_off_c, 0, 53, 59
1, 294097, Control_c, 0, 64, 79
1, 294111, Control_c, 0, 64, 93
1, 294112, Note_off_c, 0, 59, 59
1, 294126, Control_c, 0, 64, 127
1, 294140, Note_off_c, 0, 65, 60
1, 294215, Control_c, 0, 67, 31
1, 294273, Note_on_c, 0, 52, 49
1, 294279, Note_on_c, 0, 76, 63
1, 294315, Note_off_c, 0, 76, 65
1, 294357, Note_on_c, 0, 64, 52
1, 294378, Control_c, 0, 67, 32
1, 294383, Note_off_c, 0, 64, 62
1, 294408, Control_c, 0, 67, 33
1, 294438, Control_c, 0, 67, 33
1, 294452, Control_c, 0, 67, 34
1, 294462, Note_off_c, 0, 52, 30
1, 294467, Control_c, 0, 67, 35
1, 294482, Control_c, 0, 67, 35
1, 294498, Note_on_c, 0, 40, 51
1, 294527, Control_c, 0, 67, 36
1, 294539, Note_off_c, 0, 40, 60
1, 294726, Note_on_c, 0, 64, 67
1, 294734, Control_c, 0, 67, 35
1, 294750, Note_on_c, 0, 40, 42
1, 294786, Control_c, 0, 67, 35
1, 294841, Note_on_c, 0, 52, 63
1, 294860, Note_off_c, 0, 64, 62
1, 294873, Note_off_c, 0, 52, 65
1, 294890, Control_c, 0, 64, 96
1, 294905, Control_c, 0, 64, 71
1, 294905, Control_c, 0, 67, 35
1, 294919, Control_c, 0, 64, 34
1, 294919, Control_c, 0, 67, 36
1, 294934, Control_c, 0, 64, 0
1, 294934, Control_c, 0, 67, 36
1, 294964, Control_c, 0, 67, 37
1, 294977, Note_on_c, 0, 65, 60
1, 294978, Note_on_c, 0, 33, 46
1, 294982, Note_on_c, 0, 59, 49
1, 294986, Note_on_c, 0, 53, 53
1, 295008, Control_c, 0, 67, 38
1, 295023, Control_c, 0, 64, 16
1, 295027, Note_off_c, 0, 53, 65
1, 295037, Note_off_c, 0, 33, 58
1, 295038, Control_c, 0, 64, 51
1, 295042, Note_off_c, 0, 40, 42
1, 295052, Control_c, 0, 64, 64
1, 295067, Control_c, 0, 64, 72
1, 295067, Control_c, 0, 67, 37
1, 295068, Note_off_c, 0, 59, 60
1, 295082, Control_c, 0, 64, 87
1, 295082, Control_c, 0, 67, 36
1, 295097, Control_c, 0, 64, 127
1, 295097, Control_c, 0, 67, 36
1, 295100, Note_off_c, 0, 65, 59
1, 295112, Control_c, 0, 67, 35
1, 295141, Control_c, 0, 67, 35
1, 295230, Control_c, 0, 67, 34
1, 295260, Note_on_c, 0, 52, 43
1, 295276, Note_on_c, 0, 76, 39
1, 295315, Note_off_c, 0, 76, 46
1, 295354, Note_on_c, 0, 64, 52
1, 295392, Note_off_c, 0, 64, 62
1, 295440, Note_off_c, 0, 52, 32
1, 295452, Control_c, 0, 67, 33
1, 295466, Control_c, 0, 67, 33
1, 295522, Note_on_c, 0, 40, 44
1, 295561, Note_off_c, 0, 40, 59
1, 295593, Control_c, 0, 67, 34
1, 295608, Control_c, 0, 67, 35
1, 295622, Control_c, 0, 67, 40
1, 295637, Control_c, 0, 67, 44
1, 295652, Control_c, 0, 67, 49
1, 295666, Control_c, 0, 67, 55
1, 295681, Control_c, 0, 67, 63
1, 295696, Control_c, 0, 67, 85
1, 295711, Control_c, 0, 67, 116
1, 295726, Control_c, 0, 67, 127
1, 295799, Note_on_c, 0, 40, 43
1, 295805, Note_on_c, 0, 64, 52
1, 295861, Note_off_c, 0, 64, 51
1, 295870, Note_off_c, 0, 40, 47
1, 295923, Note_on_c, 0, 52, 53
1, 295957, Note_off_c, 0, 52, 64
1, 296047, Note_on_c, 0, 52, 69
1, 296053, Control_c, 0, 64, 89
1, 296059, Note_on_c, 0, 48, 70
1, 296065, Note_on_c, 0, 33, 54
1, 296068, Control_c, 0, 64, 62
1, 296082, Note_off_c, 0, 52, 66
1, 296083, Control_c, 0, 64, 0
1, 296087, Note_on_c, 0, 40, 20
1, 296089, Note_off_c, 0, 48, 66
1, 296100, Note_off_c, 0, 33, 52
1, 296135, Note_off_c, 0, 40, 29
1, 296187, Note_on_c, 0, 45, 44
1, 296219, Note_off_c, 0, 45, 55
1, 296308, Note_on_c, 0, 48, 52
1, 296335, Note_off_c, 0, 48, 61
1, 296427, Note_on_c, 0, 57, 61
1, 296440, Note_on_c, 0, 45, 41
1, 296458, Note_off_c, 0, 57, 66
1, 296472, Note_off_c, 0, 45, 53
1, 296532, Note_on_c, 0, 53, 87
1, 296540, Note_on_c, 0, 51, 67
1, 296548, Note_on_c, 0, 47, 56
1, 296555, Note_off_c, 0, 53, 67
1, 296566, Note_off_c, 0, 51, 67
1, 296575, Note_off_c, 0, 47, 63
1, 296672, Note_on_c, 0, 45, 40
1, 296704, Note_off_c, 0, 45, 60
1, 296781, Note_on_c, 0, 40, 58
1, 296785, Note_on_c, 0, 28, 52
1, 296786, Note_on_c, 0, 50, 59
1, 296795, Note_on_c, 0, 47, 45
1, 296810, Note_off_c, 0, 40, 59
1, 296812, Note_off_c, 0, 50, 62
1, 296820, Note_off_c, 0, 28, 54
1, 296825, Note_off_c, 0, 47, 51
1, 296919, Note_on_c, 0, 45, 33
1, 296952, Note_off_c, 0, 45, 47
1, 297031, Note_on_c, 0, 52, 64
1, 297036, Note_on_c, 0, 33, 49
1, 297037, Note_on_c, 0, 48, 57
1, 297042, Note_on_c, 0, 40, 47
1, 297059, Note_off_c, 0, 52, 67
1, 297069, Note_off_c, 0, 48, 64
1, 297070, Note_off_c, 0, 33, 53
1, 297073, Note_off_c, 0, 40, 55
1, 297162, Note_on_c, 0, 45, 39
1, 297192, Note_off_c, 0, 45, 54
1, 297275, Note_on_c, 0, 48, 55
1, 297308, Note_off_c, 0, 48, 64
1, 297389, Note_on_c, 0, 57, 73
1, 297407, Note_on_c, 0, 45, 42
1, 297418, Note_off_c, 0, 57, 67
1, 297439, Note_off_c, 0, 45, 56
1, 297505, Note_on_c, 0, 53, 86
1, 297506, Note_on_c, 0, 51, 74
1, 297511, Note_on_c, 0, 47, 62
1, 297529, Note_off_c, 0, 53, 69
1, 297536, Note_off_c, 0, 51, 67
1, 297541, Note_off_c, 0, 47, 64
1, 297643, Note_on_c, 0, 45, 34
1, 297677, Note_off_c, 0, 45, 53
1, 297757, Note_on_c, 0, 50, 67
1, 297761, Note_on_c, 0, 28, 57
1, 297762, Note_on_c, 0, 40, 56
1, 297762, Note_on_c, 0, 47, 60
1, 297785, Note_off_c, 0, 50, 65
1, 297791, Note_off_c, 0, 40, 57
1, 297793, Note_off_c, 0, 47, 64
1, 297794, Note_off_c, 0, 28, 59
1, 297892, Note_on_c, 0, 45, 41
1, 297926, Note_off_c, 0, 45, 61
1, 298003, Note_on_c, 0, 33, 52
1, 298006, Note_on_c, 0, 52, 61
1, 298008, Note_on_c, 0, 40, 50
1, 298010, Note_on_c, 0, 48, 52
1, 298033, Note_off_c, 0, 33, 53
1, 298038, Note_off_c, 0, 40, 55
1, 298038, Note_off_c, 0, 52, 65
1, 298042, Note_off_c, 0, 48, 63
1, 298111, Note_on_c, 0, 53, 65
1, 298126, Note_on_c, 0, 45, 50
1, 298155, Note_off_c, 0, 53, 63
1, 298160, Note_off_c, 0, 45, 63
1, 298235, Note_on_c, 0, 54, 58
1, 298238, Note_on_c, 0, 51, 58
1, 298264, Note_off_c, 0, 54, 67
1, 298272, Note_off_c, 0, 51, 65
1, 298347, Note_on_c, 0, 55, 59
1, 298352, Note_on_c, 0, 64, 74
1, 298356, Note_on_c, 0, 48, 51
1, 298378, Note_off_c, 0, 64, 68
1, 298382, Note_off_c, 0, 55, 63
1, 298396, Note_off_c, 0, 48, 60
1, 298468, Note_on_c, 0, 64, 77
1, 298471, Note_on_c, 0, 60, 78
1, 298475, Note_on_c, 0, 52, 64
1, 298477, Note_on_c, 0, 56, 58
1, 298497, Note_off_c, 0, 64, 70
1, 298500, Note_off_c, 0, 60, 70
1, 298515, Note_off_c, 0, 52, 64
1, 298518, Note_off_c, 0, 56, 65
1, 298604, Note_on_c, 0, 55, 56
1, 298614, Note_on_c, 0, 48, 47
1, 298640, Note_off_c, 0, 55, 63
1, 298652, Note_off_c, 0, 48, 63
1, 298723, Note_on_c, 0, 54, 60
1, 298727, Note_on_c, 0, 51, 55
1, 298754, Note_off_c, 0, 54, 67
1, 298762, Note_off_c, 0, 51, 65
1, 298846, Note_on_c, 0, 53, 49
1, 298846, Note_on_c, 0, 48, 49
1, 298848, Note_on_c, 0, 33, 64
1, 298884, Note_off_c, 0, 33, 62
1, 298885, Note_off_c, 0, 53, 63
1, 298890, Note_off_c, 0, 48, 60
1, 298950, Note_on_c, 0, 28, 79
1, 298951, Note_on_c, 0, 40, 85
1, 298956, Note_on_c, 0, 52, 69
1, 298963, Note_on_c, 0, 51, 62
1, 298974, Note_off_c, 0, 28, 64
1, 298980, Note_off_c, 0, 40, 69
1, 298989, Note_off_c, 0, 52, 67
1, 298993, Note_off_c, 0, 51, 66
1, 299072, Note_on_c, 0, 53, 66
1, 299080, Note_on_c, 0, 48, 56
1, 299110, Note_off_c, 0, 53, 66
1, 299118, Note_off_c, 0, 48, 61
1, 299204, Note_on_c, 0, 54, 56
1, 299209, Note_on_c, 0, 50, 57
1, 299248, Note_off_c, 0, 54, 65
1, 299261, Note_off_c, 0, 50, 59
1, 299320, Note_on_c, 0, 71, 81
1, 299331, Note_on_c, 0, 64, 60
1, 299332, Note_on_c, 0, 47, 61
1, 299332, Note_on_c, 0, 55, 60
1, 299357, Note_off_c, 0, 71, 65
1, 299367, Note_off_c, 0, 64, 63
1, 299371, Note_off_c, 0, 55, 64
1, 299377, Note_off_c, 0, 47, 61
1, 299434, Note_on_c, 0, 64, 89
1, 299445, Note_on_c, 0, 59, 68
1, 299448, Note_on_c, 0, 49, 78
1, 299448, Note_on_c, 0, 56, 74
1, 299466, Note_off_c, 0, 64, 67
1, 299474, Note_off_c, 0, 59, 65
1, 299485, Note_off_c, 0, 56, 67
1, 299502, Note_off_c, 0, 49, 61
1, 299556, Note_on_c, 0, 55, 64
1, 299565, Note_on_c, 0, 46, 64
1, 299596, Note_off_c, 0, 55, 62
1, 299603, Note_off_c, 0, 46, 60
1, 299680, Note_on_c, 0, 50, 62
1, 299686, Note_on_c, 0, 54, 53
1, 299716, Note_off_c, 0, 50, 63
1, 299729, Note_off_c, 0, 54, 66
1, 299780, Note_on_c, 0, 53, 70
1, 299787, Note_on_c, 0, 47, 55
1, 299814, Note_off_c, 0, 47, 62
1, 299823, Note_off_c, 0, 53, 64
1, 299885, Control_c, 0, 67, 98
1, 299900, Control_c, 0, 67, 0
1, 299916, Note_on_c, 0, 45, 64
1, 299917, Note_on_c, 0, 52, 72
1, 299924, Note_on_c, 0, 64, 81
1, 299927, Note_on_c, 0, 62, 71
1, 299946, Note_off_c, 0, 45, 65
1, 299946, Note_off_c, 0, 52, 67
1, 299953, Note_off_c, 0, 62, 68
1, 299956, Note_off_c, 0, 64, 62
1, 300061, Note_on_c, 0, 57, 40
1, 300094, Note_off_c, 0, 57, 50
1, 300173, Note_on_c, 0, 61, 62
1, 300200, Note_off_c, 0, 61, 65
1, 300297, Note_on_c, 0, 69, 77
1, 300307, Note_on_c, 0, 57, 56
1, 300324, Note_off_c, 0, 69, 67
1, 300343, Note_off_c, 0, 57, 63
1, 300407, Note_on_c, 0, 65, 88
1, 300419, Note_on_c, 0, 63, 74
1, 300423, Note_on_c, 0, 60, 68
1, 300427, Note_off_c, 0, 65, 70
1, 300444, Note_off_c, 0, 63, 67
1, 300451, Note_off_c, 0, 60, 67
1, 300545, Note_on_c, 0, 57, 55
1, 300587, Note_off_c, 0, 57, 61
1, 300661, Note_on_c, 0, 52, 74
1, 300664, Note_on_c, 0, 62, 76
1, 300668, Note_on_c, 0, 59, 66
1, 300669, Note_on_c, 0, 40, 57
1, 300685, Note_off_c, 0, 52, 68
1, 300694, Note_off_c, 0, 62, 65
1, 300696, Note_off_c, 0, 59, 66
1, 300702, Note_off_c, 0, 40, 64
1, 300802, Note_on_c, 0, 57, 60
1, 300840, Note_off_c, 0, 57, 62
1, 300916, Note_on_c, 0, 52, 70
1, 300918, Note_on_c, 0, 64, 77
1, 300920, Note_on_c, 0, 45, 62
1, 300921, Note_on_c, 0, 62, 74
1, 300946, Note_off_c, 0, 52, 65
1, 300949, Note_off_c, 0, 45, 63
1, 300949, Note_off_c, 0, 62, 65
1, 300956, Note_off_c, 0, 64, 64
1, 301049, Note_on_c, 0, 57, 61
1, 301085, Note_off_c, 0, 57, 62
1, 301166, Note_on_c, 0, 61, 69
1, 301192, Note_off_c, 0, 61, 66
1, 301278, Note_on_c, 0, 69, 87
1, 301291, Note_on_c, 0, 57, 58
1, 301304, Note_off_c, 0, 69, 66
1, 301332, Note_off_c, 0, 57, 61
1, 301394, Note_on_c, 0, 65, 90
1, 301410, Note_on_c, 0, 60, 69
1, 301411, Note_on_c, 0, 63, 65
1, 301416, Note_off_c, 0, 65, 68
1, 301437, Note_off_c, 0, 60, 67
1, 301441, Note_off_c, 0, 63, 67
1, 301543, Note_on_c, 0, 57, 62
1, 301586, Note_off_c, 0, 57, 63
1, 301660, Note_on_c, 0, 52, 71
1, 301666, Note_on_c, 0, 62, 70
1, 301668, Note_on_c, 0, 59, 66
1, 301676, Note_on_c, 0, 40, 54
1, 301684, Note_off_c, 0, 52, 68
1, 301694, Note_off_c, 0, 62, 67
1, 301696, Note_off_c, 0, 59, 66
1, 301706, Note_off_c, 0, 40, 55
1, 301782, Note_on_c, 0, 57, 60
1, 301824, Note_off_c, 0, 57, 64
1, 301908, Note_on_c, 0, 64, 70
1, 301908, Note_on_c, 0, 52, 73
1, 301910, Note_on_c, 0, 45, 61
1, 301911, Note_on_c, 0, 60, 63
1, 301937, Note_off_c, 0, 45, 62
1, 301937, Note_off_c, 0, 52, 68
1, 301940, Note_off_c, 0, 64, 63
1, 301941, Note_off_c, 0, 60, 66
1, 302021, Note_on_c, 0, 65, 71
1, 302030, Note_on_c, 0, 57, 63
1, 302067, Note_off_c, 0, 65, 60
1, 302068, Note_off_c, 0, 57, 62
1, 302150, Note_on_c, 0, 63, 69
1, 302188, Note_off_c, 0, 63, 62
1, 302190, Note_on_c, 0, 67, 19
1, 302218, Note_off_c, 0, 67, 44
1, 302270, Note_on_c, 0, 76, 89
1, 302275, Note_on_c, 0, 67, 66
1, 302281, Note_on_c, 0, 60, 64
1, 302307, Note_off_c, 0, 76, 64
1, 302313, Note_off_c, 0, 60, 64
1, 302314, Note_off_c, 0, 67, 66
1, 302377, Note_on_c, 0, 76, 101
1, 302382, Note_on_c, 0, 72, 84
1, 302387, Note_on_c, 0, 68, 70
1, 302389, Note_on_c, 0, 64, 72
1, 302400, Note_off_c, 0, 76, 67
1, 302414, Note_off_c, 0, 72, 66
1, 302418, Note_off_c, 0, 64, 63
1, 302441, Note_off_c, 0, 68, 60
1, 302515, Note_on_c, 0, 66, 69
1, 302523, Note_on_c, 0, 60, 60
1, 302557, Note_off_c, 0, 60, 64
1, 302573, Note_off_c, 0, 66, 59
1, 302634, Note_on_c, 0, 64, 73
1, 302638, Note_on_c, 0, 67, 64
1, 302674, Note_off_c, 0, 64, 63
1, 302682, Note_off_c, 0, 67, 63
1, 302751, Note_on_c, 0, 61, 75
1, 302757, Note_on_c, 0, 45, 72
1, 302758, Note_on_c, 0, 68, 74
1, 302785, Note_off_c, 0, 61, 63
1, 302798, Note_off_c, 0, 45, 64
1, 302800, Note_off_c, 0, 68, 60
1, 302864, Note_on_c, 0, 50, 88
1, 302867, Note_on_c, 0, 64, 76
1, 302870, Note_on_c, 0, 69, 78
1, 302872, Note_on_c, 0, 38, 69
1, 302887, Note_on_c, 0, 60, 45
1, 302895, Note_off_c, 0, 64, 67
1, 302896, Note_off_c, 0, 38, 62
1, 302896, Note_off_c, 0, 50, 67
1, 302909, Note_off_c, 0, 69, 65
1, 302914, Note_off_c, 0, 60, 36
1, 302999, Note_on_c, 0, 68, 77
1, 303002, Note_on_c, 0, 65, 72
1, 303031, Note_off_c, 0, 68, 66
1, 303032, Note_off_c, 0, 65, 62
1, 303122, Note_on_c, 0, 69, 63
1, 303136, Note_on_c, 0, 71, 48
1, 303140, Note_on_c, 0, 67, 47
1, 303154, Note_off_c, 0, 69, 66
1, 303159, Note_off_c, 0, 71, 59
1, 303163, Note_off_c, 0, 67, 58
1, 303231, Note_on_c, 0, 83, 93
1, 303237, Note_on_c, 0, 71, 73
1, 303237, Note_on_c, 0, 67, 72
1, 303266, Note_off_c, 0, 83, 64
1, 303279, Note_off_c, 0, 67, 61
1, 303282, Note_off_c, 0, 71, 64
1, 303355, Note_on_c, 0, 79, 88
1, 303355, Note_on_c, 0, 83, 101
1, 303362, Note_on_c, 0, 69, 77
1, 303363, Note_on_c, 0, 72, 76
1, 303386, Note_off_c, 0, 69, 68
1, 303397, Note_off_c, 0, 83, 64
1, 303397, Note_off_c, 0, 79, 66
1, 303400, Note_off_c, 0, 72, 60
1, 303478, Note_on_c, 0, 74, 81
1, 303484, Note_on_c, 0, 71, 69
1, 303514, Note_off_c, 0, 71, 63
1, 303517, Note_off_c, 0, 74, 61
1, 303599, Note_on_c, 0, 76, 75
1, 303600, Note_on_c, 0, 72, 73
1, 303624, Note_off_c, 0, 72, 68
1, 303631, Note_off_c, 0, 76, 66
1, 303713, Note_on_c, 0, 74, 76
1, 303714, Note_on_c, 0, 78, 81
1, 303749, Note_off_c, 0, 74, 63
1, 303759, Note_off_c, 0, 78, 64
1, 303828, Note_on_c, 0, 67, 94
1, 303833, Note_on_c, 0, 74, 87
1, 303833, Note_on_c, 0, 78, 87
1, 303833, Note_on_c, 0, 79, 85
1, 303852, Note_off_c, 0, 78, 72
1, 303857, Note_off_c, 0, 67, 68
1, 303860, Note_off_c, 0, 74, 61
1, 303873, Note_off_c, 0, 79, 67
1, 303948, Note_on_c, 0, 76, 75
1, 303952, Note_on_c, 0, 72, 73
1, 303953, Note_on_c, 0, 79, 70
1, 303975, Note_off_c, 0, 76, 67
1, 303981, Note_off_c, 0, 72, 64
1, 303983, Note_off_c, 0, 79, 66
1, 304065, Note_on_c, 0, 74, 78
1, 304066, Note_on_c, 0, 71, 78
1, 304066, Note_on_c, 0, 79, 80
1, 304096, Note_off_c, 0, 74, 62
1, 304099, Note_off_c, 0, 79, 60
1, 304107, Note_off_c, 0, 71, 63
1, 304179, Note_on_c, 0, 86, 97
1, 304190, Note_on_c, 0, 79, 78
1, 304191, Note_on_c, 0, 69, 78
1, 304200, Note_on_c, 0, 72, 58
1, 304224, Note_off_c, 0, 79, 56
1, 304228, Note_off_c, 0, 69, 58
1, 304228, Note_off_c, 0, 72, 65
1, 304233, Note_off_c, 0, 86, 64
1, 304304, Note_on_c, 0, 91, 106
1, 304313, Note_on_c, 0, 79, 78
1, 304317, Note_on_c, 0, 67, 72
1, 304319, Note_on_c, 0, 71, 68
1, 304342, Note_off_c, 0, 79, 61
1, 304348, Note_off_c, 0, 91, 69
1, 304354, Note_off_c, 0, 71, 62
1, 304354, Note_off_c, 0, 67, 61
1, 304434, Note_on_c, 0, 67, 77
1, 304445, Note_on_c, 0, 77, 67
1, 304450, Note_on_c, 0, 71, 58
1, 304465, Note_off_c, 0, 67, 61
1, 304481, Note_off_c, 0, 77, 64
1, 304489, Note_off_c, 0, 71, 65
1, 304555, Note_on_c, 0, 68, 69
1, 304555, Note_on_c, 0, 71, 69
1, 304578, Note_on_c, 0, 76, 43
1, 304584, Note_off_c, 0, 71, 66
1, 304588, Note_off_c, 0, 68, 62
1, 304604, Note_off_c, 0, 76, 48
1, 304664, Note_on_c, 0, 74, 75
1, 304670, Note_on_c, 0, 68, 70
1, 304671, Note_on_c, 0, 71, 65
1, 304674, Note_on_c, 0, 67, 84
1, 304700, Note_off_c, 0, 71, 67
1, 304706, Note_off_c, 0, 74, 63
1, 304712, Note_off_c, 0, 67, 64
1, 304713, Note_off_c, 0, 68, 61
1, 304788, Note_on_c, 0, 62, 98
1, 304788, Note_on_c, 0, 72, 79
1, 304791, Note_on_c, 0, 68, 82
1, 304796, Note_on_c, 0, 74, 70
1, 304826, Note_off_c, 0, 72, 65
1, 304829, Note_off_c, 0, 62, 67
1, 304829, Note_off_c, 0, 74, 62
1, 304836, Note_off_c, 0, 68, 59
1, 304906, Note_on_c, 0, 74, 71
1, 304907, Note_on_c, 0, 67, 76
1, 304907, Note_on_c, 0, 71, 75
1, 304932, Note_off_c, 0, 67, 68
1, 304935, Note_off_c, 0, 74, 66
1, 304936, Note_off_c, 0, 71, 66
1, 305022, Note_on_c, 0, 69, 77
1, 305023, Note_on_c, 0, 74, 72
1, 305025, Note_on_c, 0, 66, 75
1, 305052, Note_off_c, 0, 66, 65
1, 305056, Note_off_c, 0, 69, 62
1, 305059, Note_off_c, 0, 74, 56
1, 305135, Note_on_c, 0, 86, 95
1, 305148, Note_on_c, 0, 64, 78
1, 305149, Note_on_c, 0, 67, 74
1, 305156, Note_on_c, 0, 74, 68
1, 305177, Note_off_c, 0, 86, 64
1, 305181, Note_off_c, 0, 67, 63
1, 305183, Note_off_c, 0, 74, 67
1, 305200, Note_off_c, 0, 64, 61
1, 305268, Note_on_c, 0, 81, 102
1, 305271, Note_on_c, 0, 74, 82
1, 305278, Note_on_c, 0, 66, 80
1, 305279, Note_on_c, 0, 62, 77
1, 305310, Note_off_c, 0, 81, 69
1, 305311, Note_off_c, 0, 66, 64
1, 305312, Note_off_c, 0, 62, 66
1, 305312, Note_off_c, 0, 74, 60
1, 305397, Note_on_c, 0, 63, 74
1, 305404, Note_on_c, 0, 62, 73
1, 305410, Note_on_c, 0, 72, 46
1, 305431, Note_off_c, 0, 62, 67
1, 305432, Note_on_c, 0, 71, 37
1, 305433, Note_off_c, 0, 72, 59
1, 305439, Note_off_c, 0, 63, 61
1, 305461, Note_off_c, 0, 71, 47
1, 305517, Note_on_c, 0, 62, 76
1, 305521, Note_on_c, 0, 64, 72
1, 305531, Note_on_c, 0, 71, 68
1, 305551, Note_off_c, 0, 64, 63
1, 305559, Note_off_c, 0, 71, 66
1, 305561, Note_off_c, 0, 62, 58
1, 305627, Note_on_c, 0, 50, 72
1, 305635, Note_on_c, 0, 65, 77
1, 305637, Note_on_c, 0, 69, 79
1, 305642, Note_on_c, 0, 62, 71
1, 305673, Note_off_c, 0, 65, 63
1, 305673, Note_off_c, 0, 62, 65
1, 305679, Note_off_c, 0, 50, 62
1, 305688, Note_off_c, 0, 69, 62
1, 305741, Note_on_c, 0, 55, 100
1, 305749, Note_on_c, 0, 62, 83
1, 305749, Note_on_c, 0, 66, 75
1, 305750, Note_on_c, 0, 67, 64
1, 305771, Note_on_c, 0, 69, 49
1, 305795, Note_off_c, 0, 55, 67
1, 305795, Note_off_c, 0, 67, 65
1, 305795, Note_off_c, 0, 62, 61
1, 305800, Note_off_c, 0, 69, 35
1, 305803, Note_off_c, 0, 66, 62
1, 305866, Note_on_c, 0, 67, 66
1, 305868, Note_on_c, 0, 64, 74
1, 305870, Note_on_c, 0, 60, 75
1, 305894, Note_off_c, 0, 64, 69
1, 305905, Note_off_c, 0, 60, 63
1, 305908, Note_off_c, 0, 67, 65
1, 305982, Note_on_c, 0, 62, 74
1, 305984, Note_on_c, 0, 67, 66
1, 305987, Note_on_c, 0, 59, 71
1, 306017, Note_off_c, 0, 62, 65
1, 306021, Note_off_c, 0, 67, 61
1, 306029, Note_off_c, 0, 59, 63
1, 306099, Note_on_c, 0, 74, 93
1, 306111, Note_on_c, 0, 57, 77
1, 306115, Note_on_c, 0, 67, 75
1, 306117, Note_on_c, 0, 60, 65
1, 306146, Note_off_c, 0, 74, 62
1, 306149, Note_off_c, 0, 67, 58
1, 306152, Note_off_c, 0, 60, 65
1, 306158, Note_off_c, 0, 57, 60
1, 306215, Note_on_c, 0, 79, 103
1, 306236, Note_on_c, 0, 67, 78
1, 306236, Note_on_c, 0, 55, 73
1, 306241, Note_on_c, 0, 59, 70
1, 306254, Note_off_c, 0, 79, 69
1, 306265, Note_off_c, 0, 67, 61
1, 306277, Note_off_c, 0, 55, 60
1, 306279, Note_off_c, 0, 59, 64
1, 306349, Note_on_c, 0, 66, 78
1, 306351, Note_on_c, 0, 55, 76
1, 306361, Note_on_c, 0, 59, 59
1, 306389, Note_off_c, 0, 55, 64
1, 306397, Note_off_c, 0, 59, 64
1, 306401, Note_off_c, 0, 66, 62
1, 306469, Note_on_c, 0, 56, 74
1, 306472, Note_on_c, 0, 59, 68
1, 306472, Note_on_c, 0, 64, 66
1, 306507, Note_off_c, 0, 56, 65
1, 306507, Note_off_c, 0, 64, 62
1, 306507, Note_off_c, 0, 59, 64
1, 306579, Note_on_c, 0, 62, 73
1, 306581, Note_on_c, 0, 56, 74
1, 306588, Note_on_c, 0, 59, 48
1, 306593, Note_on_c, 0, 55, 80
1, 306613, Note_off_c, 0, 59, 58
1, 306620, Note_off_c, 0, 62, 63
1, 306631, Note_off_c, 0, 55, 63
1, 306636, Note_off_c, 0, 56, 64
1, 306707, Note_on_c, 0, 56, 78
1, 306707, Note_on_c, 0, 60, 73
1, 306709, Note_on_c, 0, 50, 97
1, 306715, Note_on_c, 0, 62, 67
1, 306753, Note_off_c, 0, 50, 65
1, 306753, Note_off_c, 0, 60, 66
1, 306754, Note_off_c, 0, 62, 65
1, 306758, Note_off_c, 0, 56, 62
1, 306838, Note_on_c, 0, 55, 74
1, 306838, Note_on_c, 0, 59, 65
1, 306847, Note_on_c, 0, 62, 60
1, 306869, Note_off_c, 0, 55, 67
1, 306871, Note_off_c, 0, 59, 66
1, 306880, Note_off_c, 0, 62, 65
1, 306959, Note_on_c, 0, 62, 65
1, 306965, Note_on_c, 0, 54, 74
1, 306969, Note_on_c, 0, 57, 60
1, 306992, Note_off_c, 0, 57, 62
1, 306996, Note_off_c, 0, 54, 65
1, 306999, Note_off_c, 0, 62, 61
1, 307076, Note_on_c, 0, 74, 86
1, 307090, Note_on_c, 0, 52, 73
1, 307097, Note_on_c, 0, 62, 64
1, 307100, Note_on_c, 0, 55, 50
1, 307114, Note_off_c, 0, 74, 63
1, 307127, Note_off_c, 0, 62, 65
1, 307130, Note_off_c, 0, 55, 62
1, 307135, Note_off_c, 0, 52, 61
1, 307187, Note_on_c, 0, 69, 103
1, 307196, Note_on_c, 0, 62, 70
1, 307204, Note_on_c, 0, 50, 76
1, 307207, Note_on_c, 0, 54, 77
1, 307220, Note_off_c, 0, 69, 68
1, 307228, Note_off_c, 0, 62, 63
1, 307235, Note_off_c, 0, 54, 70
1, 307237, Note_off_c, 0, 50, 66
1, 307318, Note_on_c, 0, 51, 77
1, 307318, Note_on_c, 0, 60, 72
1, 307322, Note_on_c, 0, 50, 73
1, 307356, Note_off_c, 0, 50, 64
1, 307356, Note_off_c, 0, 60, 64
1, 307363, Note_off_c, 0, 51, 61
1, 307432, Note_on_c, 0, 59, 72
1, 307434, Note_on_c, 0, 50, 70
1, 307439, Note_on_c, 0, 52, 68
1, 307477, Note_off_c, 0, 59, 63
1, 307479, Note_off_c, 0, 52, 67
1, 307482, Note_off_c, 0, 50, 63
1, 307555, Note_on_c, 0, 57, 73
1, 307559, Note_on_c, 0, 53, 72
1, 307568, Note_on_c, 0, 50, 57
1, 307601, Note_off_c, 0, 50, 64
1, 307601, Note_off_c, 0, 53, 63
1, 307613, Note_off_c, 0, 57, 64
1, 307666, Note_on_c, 0, 64, 99
1, 307669, Note_on_c, 0, 50, 79
1, 307670, Note_on_c, 0, 56, 94
1, 307691, Note_off_c, 0, 50, 67
1, 307693, Note_off_c, 0, 64, 66
1, 307705, Note_off_c, 0, 56, 66
1, 307707, Control_c, 0, 64, 57
1, 307721, Control_c, 0, 64, 80
1, 307736, Control_c, 0, 64, 127
1, 307913, Note_on_c, 0, 75, 63
1, 307914, Control_c, 0, 64, 103
1, 307917, Note_on_c, 0, 76, 79
1, 307922, Note_on_c, 0, 71, 79
1, 307929, Control_c, 0, 64, 68
1, 307944, Control_c, 0, 64, 0
1, 307951, Note_off_c, 0, 75, 63
1, 307953, Note_off_c, 0, 76, 64
1, 307956, Note_off_c, 0, 71, 61
1, 308036, Note_on_c, 0, 76, 74
1, 308039, Note_on_c, 0, 83, 69
1, 308047, Note_on_c, 0, 73, 57
1, 308056, Note_on_c, 0, 69, 47
1, 308060, Note_on_c, 0, 71, 47
1, 308068, Note_off_c, 0, 76, 63
1, 308075, Note_off_c, 0, 73, 66
1, 308081, Note_off_c, 0, 71, 58
1, 308082, Note_off_c, 0, 69, 57
1, 308102, Note_on_c, 0, 85, 72
1, 308116, Note_on_c, 0, 87, 77
1, 308121, Note_on_c, 0, 88, 88
1, 308128, Note_off_c, 0, 83, 51
1, 308138, Note_off_c, 0, 87, 71
1, 308138, Control_c, 0, 64, 49
1, 308148, Note_off_c, 0, 88, 66
1, 308151, Note_on_c, 0, 76, 76
1, 308152, Control_c, 0, 64, 60
1, 308156, Note_off_c, 0, 85, 67
1, 308158, Note_on_c, 0, 64, 73
1, 308164, Note_on_c, 0, 68, 70
1, 308167, Control_c, 0, 64, 70
1, 308182, Control_c, 0, 64, 127
1, 308186, Note_off_c, 0, 76, 62
1, 308191, Note_off_c, 0, 68, 67
1, 308193, Note_off_c, 0, 64, 59
1, 308281, Note_on_c, 0, 75, 86
1, 308285, Note_on_c, 0, 68, 73
1, 308290, Note_on_c, 0, 52, 85
1, 308292, Note_on_c, 0, 64, 75
1, 308308, Control_c, 0, 64, 119
1, 308318, Note_off_c, 0, 64, 66
1, 308322, Control_c, 0, 64, 72
1, 308330, Note_off_c, 0, 68, 60
1, 308337, Control_c, 0, 64, 38
1, 308339, Note_off_c, 0, 75, 62
1, 308340, Note_off_c, 0, 52, 63
1, 308352, Control_c, 0, 64, 0
1, 308403, Note_on_c, 0, 56, 85
1, 308403, Note_on_c, 0, 65, 79
1, 308403, Note_on_c, 0, 68, 71
1, 308403, Note_on_c, 0, 73, 76
1, 308442, Note_off_c, 0, 65, 62
1, 308446, Note_off_c, 0, 56, 63
1, 308448, Note_off_c, 0, 68, 60
1, 308454, Note_off_c, 0, 73, 62
1, 308517, Note_on_c, 0, 71, 82
1, 308522, Note_on_c, 0, 65, 77
1, 308535, Note_on_c, 0, 52, 71
1, 308561, Note_on_c, 0, 67, 17
1, 308566, Note_off_c, 0, 65, 57
1, 308576, Note_off_c, 0, 71, 63
1, 308587, Note_off_c, 0, 52, 57
1, 308600, Note_off_c, 0, 67, 31
1, 308629, Note_on_c, 0, 71, 69
1, 308632, Note_on_c, 0, 59, 97
1, 308634, Note_on_c, 0, 69, 80
1, 308635, Note_on_c, 0, 66, 86
1, 308663, Control_c, 0, 64, 42
1, 308665, Note_off_c, 0, 59, 68
1, 308678, Control_c, 0, 64, 59
1, 308681, Note_off_c, 0, 69, 62
1, 308683, Note_off_c, 0, 71, 64
1, 308690, Note_off_c, 0, 66, 63
1, 308693, Control_c, 0, 64, 73
1, 308708, Control_c, 0, 64, 113
1, 308723, Control_c, 0, 64, 127
1, 308746, Note_on_c, 0, 71, 73
1, 308757, Note_on_c, 0, 64, 70
1, 308760, Note_on_c, 0, 68, 71
1, 308796, Note_off_c, 0, 64, 62
1, 308799, Note_off_c, 0, 71, 63
1, 308816, Note_off_c, 0, 68, 62
1, 308857, Control_c, 0, 64, 95
1, 308872, Control_c, 0, 64, 66
1, 308880, Note_on_c, 0, 70, 90
1, 308887, Control_c, 0, 64, 0
1, 308896, Note_on_c, 0, 63, 77
1, 308896, Note_on_c, 0, 71, 74
1, 308898, Note_off_c, 0, 70, 69
1, 308926, Note_off_c, 0, 71, 56
1, 308928, Note_off_c, 0, 63, 65
1, 308933, Note_on_c, 0, 65, 24
1, 308978, Note_off_c, 0, 65, 31
1, 308999, Note_on_c, 0, 64, 79
1, 309004, Note_on_c, 0, 61, 71
1, 309010, Note_on_c, 0, 71, 49
1, 309035, Note_off_c, 0, 71, 60
1, 309052, Note_off_c, 0, 64, 62
1, 309055, Note_off_c, 0, 61, 61
1, 309102, Control_c, 0, 64, 21
1, 309112, Note_on_c, 0, 83, 109
1, 309117, Control_c, 0, 64, 51
1, 309118, Note_on_c, 0, 71, 78
1, 309121, Note_on_c, 0, 59, 88
1, 309124, Note_on_c, 0, 63, 84
1, 309131, Control_c, 0, 64, 62
1, 309141, Note_off_c, 0, 83, 71
1, 309146, Control_c, 0, 64, 68
1, 309161, Control_c, 0, 64, 89
1, 309167, Note_off_c, 0, 71, 62
1, 309170, Note_off_c, 0, 59, 58
1, 309175, Control_c, 0, 64, 127
1, 309181, Note_off_c, 0, 63, 63
1, 309241, Note_on_c, 0, 66, 72
1, 309248, Note_on_c, 0, 69, 61
1, 309250, Note_on_c, 0, 60, 57
1, 309253, Note_on_c, 0, 59, 73
1, 309281, Note_off_c, 0, 69, 67
1, 309285, Note_off_c, 0, 66, 60
1, 309291, Note_off_c, 0, 60, 63
1, 309293, Note_off_c, 0, 59, 65
1, 309324, Control_c, 0, 64, 115
1, 309339, Control_c, 0, 64, 76
1, 309354, Control_c, 0, 64, 48
1, 309369, Note_on_c, 0, 68, 74
1, 309369, Control_c, 0, 64, 0
1, 309369, Note_on_c, 0, 59, 76
1, 309370, Note_on_c, 0, 54, 88
1, 309372, Note_on_c, 0, 61, 73
1, 309395, Note_off_c, 0, 59, 67
1, 309398, Note_off_c, 0, 54, 68
1, 309407, Note_off_c, 0, 61, 62
1, 309410, Note_off_c, 0, 68, 59
1, 309449, Note_on_c, 0, 53, 3
1, 309450, Note_off_c, 0, 53, 127
1, 309482, Note_on_c, 0, 66, 74
1, 309483, Note_on_c, 0, 47, 70
1, 309488, Note_on_c, 0, 59, 76
1, 309488, Note_on_c, 0, 62, 69
1, 309518, Note_off_c, 0, 47, 66
1, 309519, Note_off_c, 0, 59, 63
1, 309522, Note_off_c, 0, 62, 64
1, 309526, Note_off_c, 0, 66, 63
1, 309590, Note_on_c, 0, 52, 93
1, 309601, Note_on_c, 0, 63, 80
1, 309602, Note_on_c, 0, 59, 86
1, 309603, Note_on_c, 0, 64, 78
1, 309614, Note_off_c, 0, 52, 71
1, 309621, Control_c, 0, 64, 59
1, 309636, Control_c, 0, 64, 68
1, 309642, Note_off_c, 0, 64, 61
1, 309645, Note_off_c, 0, 63, 61
1, 309649, Note_off_c, 0, 59, 64
1, 309651, Control_c, 0, 64, 89
1, 309665, Control_c, 0, 64, 127
1, 309726, Note_on_c, 0, 64, 79
1, 309729, Note_on_c, 0, 61, 77
1, 309730, Note_on_c, 0, 57, 78
1, 309770, Note_off_c, 0, 64, 61
1, 309771, Note_off_c, 0, 57, 63
1, 309771, Note_off_c, 0, 61, 60
1, 309836, Note_on_c, 0, 76, 101
1, 309837, Note_on_c, 0, 71, 104
1, 309849, Note_on_c, 0, 56, 82
1, 309849, Note_on_c, 0, 64, 78
1, 309850, Note_on_c, 0, 59, 79
1, 309853, Note_off_c, 0, 71, 67
1, 309867, Note_off_c, 0, 76, 61
1, 309900, Note_off_c, 0, 64, 62
1, 309902, Note_off_c, 0, 56, 63
1, 309905, Note_off_c, 0, 59, 63
1, 309969, Control_c, 0, 64, 103
1, 309984, Control_c, 0, 64, 66
1, 309995, Note_on_c, 0, 57, 66
1, 309998, Control_c, 0, 64, 0
1, 310000, Note_on_c, 0, 64, 48
1, 310005, Note_on_c, 0, 71, 108
1, 310011, Note_on_c, 0, 55, 46
1, 310021, Note_on_c, 0, 76, 84
1, 310021, Note_off_c, 0, 64, 63
1, 310024, Note_off_c, 0, 57, 66
1, 310025, Note_off_c, 0, 71, 62
1, 310028, Control_c, 0, 64, 40
1, 310039, Note_off_c, 0, 55, 55
1, 310043, Control_c, 0, 64, 59
1, 310056, Note_off_c, 0, 76, 68
1, 310058, Control_c, 0, 64, 71
1, 310072, Control_c, 0, 64, 108
1, 310084, Note_on_c, 0, 53, 74
1, 310087, Control_c, 0, 64, 127
1, 310088, Note_on_c, 0, 64, 63
1, 310099, Note_on_c, 0, 65, 59
1, 310101, Note_on_c, 0, 57, 49
1, 310107, Note_on_c, 0, 56, 8
1, 310123, Note_off_c, 0, 64, 65
1, 310124, Note_off_c, 0, 65, 63
1, 310127, Note_off_c, 0, 57, 64
1, 310141, Note_off_c, 0, 53, 62
1, 310162, Note_off_c, 0, 56, 35
1, 310194, Note_on_c, 0, 40, 76
1, 310199, Note_on_c, 0, 63, 77
1, 310204, Note_on_c, 0, 52, 78
1, 310209, Note_on_c, 0, 56, 59
1, 310220, Control_c, 0, 64, 78
1, 310230, Note_off_c, 0, 40, 65
1, 310235, Control_c, 0, 64, 55
1, 310238, Note_off_c, 0, 52, 65
1, 310246, Note_off_c, 0, 56, 66
1, 310250, Control_c, 0, 64, 0
1, 310261, Note_off_c, 0, 63, 62
1, 310305, Note_on_c, 0, 44, 80
1, 310318, Note_on_c, 0, 53, 78
1, 310320, Note_on_c, 0, 61, 72
1, 310321, Note_on_c, 0, 56, 72
1, 310338, Note_off_c, 0, 44, 67
1, 310349, Note_off_c, 0, 53, 66
1, 310349, Note_off_c, 0, 61, 66
1, 310355, Note_off_c, 0, 56, 67
1, 310433, Note_on_c, 0, 53, 77
1, 310439, Note_on_c, 0, 40, 65
1, 310441, Note_on_c, 0, 56, 65
1, 310441, Note_on_c, 0, 59, 57
1, 310484, Note_off_c, 0, 56, 65
1, 310485, Note_off_c, 0, 53, 61
1, 310489, Note_off_c, 0, 59, 65
1, 310513, Note_off_c, 0, 40, 51
1, 310548, Note_on_c, 0, 47, 89
1, 310553, Note_on_c, 0, 59, 69
1, 310556, Note_on_c, 0, 54, 82
1, 310559, Note_on_c, 0, 57, 72
1, 310574, Note_off_c, 0, 47, 66
1, 310590, Note_off_c, 0, 57, 67
1, 310593, Note_off_c, 0, 59, 64
1, 310608, Note_off_c, 0, 54, 62
1, 310670, Note_on_c, 0, 56, 66
1, 310674, Note_on_c, 0, 59, 62
1, 310675, Note_on_c, 0, 52, 69
1, 310710, Note_off_c, 0, 59, 63
1, 310713, Note_off_c, 0, 52, 64
1, 310727, Note_off_c, 0, 56, 64
1, 310790, Note_on_c, 0, 58, 98
1, 310806, Note_on_c, 0, 59, 65
1, 310808, Note_off_c, 0, 58, 72
1, 310809, Note_on_c, 0, 51, 77
1, 310814, Note_on_c, 0, 54, 63
1, 310837, Note_off_c, 0, 59, 60
1, 310843, Note_off_c, 0, 51, 67
1, 310844, Note_off_c, 0, 54, 67
1, 310913, Note_on_c, 0, 59, 53
1, 310921, Note_on_c, 0, 52, 64
1, 310938, Note_on_c, 0, 49, 33
1, 310945, Note_off_c, 0, 59, 61
1, 310952, Note_off_c, 0, 52, 66
1, 310974, Note_off_c, 0, 49, 32
1, 310999, Control_c, 0, 64, 18
1, 311014, Control_c, 0, 64, 46
1, 311022, Note_on_c, 0, 71, 76
1, 311029, Control_c, 0, 64, 65
1, 311039, Note_on_c, 0, 47, 56
1, 311039, Note_on_c, 0, 59, 63
1, 311040, Note_on_c, 0, 51, 65
1, 311044, Control_c, 0, 64, 77
1, 311044, Note_off_c, 0, 71, 70
1, 311059, Control_c, 0, 64, 111
1, 311065, Note_off_c, 0, 47, 55
1, 311068, Note_off_c, 0, 51, 66
1, 311074, Control_c, 0, 64, 127
1, 311074, Note_off_c, 0, 59, 65
1, 311133, Control_c, 0, 64, 91
1, 311147, Control_c, 0, 64, 67
1, 311157, Note_on_c, 0, 64, 70
1, 311158, Note_on_c, 0, 53, 75
1, 311163, Control_c, 0, 64, 17
1, 311165, Note_on_c, 0, 59, 65
1, 311166, Note_on_c, 0, 38, 69
1, 311168, Note_on_c, 0, 50, 70
1, 311178, Control_c, 0, 64, 0
1, 311183, Note_on_c, 0, 56, 42
1, 311186, Note_off_c, 0, 53, 66
1, 311190, Note_off_c, 0, 59, 68
1, 311194, Note_off_c, 0, 64, 59
1, 311195, Note_off_c, 0, 50, 66
1, 311198, Note_off_c, 0, 38, 65
1, 311212, Note_off_c, 0, 56, 54
1, 311277, Note_on_c, 0, 53, 74
1, 311279, Note_on_c, 0, 56, 81
1, 311280, Note_on_c, 0, 60, 77
1, 311286, Note_on_c, 0, 48, 74
1, 311288, Note_on_c, 0, 36, 79
1, 311291, Note_on_c, 0, 50, 68
1, 311314, Note_off_c, 0, 53, 63
1, 311315, Note_off_c, 0, 48, 66
1, 311316, Note_off_c, 0, 36, 65
1, 311317, Note_off_c, 0, 50, 65
1, 311319, Note_off_c, 0, 56, 61
1, 311329, Note_off_c, 0, 60, 63
1, 311395, Note_on_c, 0, 47, 95
1, 311396, Note_on_c, 0, 62, 84
1, 311399, Note_on_c, 0, 35, 87
1, 311404, Note_on_c, 0, 53, 87
1, 311408, Note_on_c, 0, 60, 70
1, 311417, Note_on_c, 0, 56, 62
1, 311430, Note_off_c, 0, 53, 68
1, 311435, Note_off_c, 0, 35, 63
1, 311438, Note_off_c, 0, 56, 63
1, 311439, Note_off_c, 0, 47, 64
1, 311441, Note_off_c, 0, 60, 66
1, 311458, Note_off_c, 0, 62, 64
1, 311514, Note_on_c, 0, 45, 102
1, 311516, Note_on_c, 0, 64, 88
1, 311518, Note_on_c, 0, 62, 85
1, 311519, Note_on_c, 0, 33, 94
1, 311541, Control_c, 0, 64, 58
1, 311546, Note_off_c, 0, 33, 68
1, 311556, Control_c, 0, 64, 89
1, 311566, Note_off_c, 0, 45, 66
1, 311569, Note_off_c, 0, 62, 63
1, 311569, Note_off_c, 0, 64, 65
1, 311570, Control_c, 0, 64, 127
1, 311624, Note_on_c, 0, 57, 51
1, 311630, Control_c, 0, 64, 84
1, 311638, Note_on_c, 0, 62, 55
1, 311644, Control_c, 0, 64, 58
1, 311659, Control_c, 0, 64, 0
1, 311691, Note_off_c, 0, 62, 64
1, 311703, Note_off_c, 0, 57, 58
1, 311768, Note_on_c, 0, 61, 68
1, 311779, Note_on_c, 0, 64, 55
1, 311810, Note_off_c, 0, 61, 57
1, 311813, Note_off_c, 0, 64, 65
1, 311889, Note_on_c, 0, 69, 88
1, 311911, Note_on_c, 0, 57, 54
1, 311911, Note_on_c, 0, 61, 64
1, 311925, Note_off_c, 0, 69, 65
1, 311949, Note_off_c, 0, 61, 64
1, 311953, Note_off_c, 0, 57, 64
1, 312016, Note_on_c, 0, 65, 99
1, 312031, Note_on_c, 0, 63, 79
1, 312034, Note_on_c, 0, 60, 77
1, 312034, Note_off_c, 0, 65, 69
1, 312055, Note_off_c, 0, 63, 70
1, 312063, Note_off_c, 0, 60, 64
1, 312161, Note_on_c, 0, 60, 57
1, 312165, Note_on_c, 0, 57, 55
1, 312201, Note_off_c, 0, 60, 64
1, 312209, Note_off_c, 0, 57, 62
1, 312275, Note_on_c, 0, 52, 79
1, 312281, Note_on_c, 0, 62, 75
1, 312283, Note_on_c, 0, 40, 68
1, 312283, Note_on_c, 0, 59, 72
1, 312301, Note_off_c, 0, 52, 71
1, 312308, Note_off_c, 0, 59, 67
1, 312311, Note_off_c, 0, 62, 66
1, 312317, Note_off_c, 0, 40, 61
1, 312382, Note_on_c, 0, 59, 59
1, 312401, Note_on_c, 0, 57, 62
1, 312442, Note_off_c, 0, 59, 55
1, 312466, Note_off_c, 0, 57, 60
1, 312528, Note_on_c, 0, 45, 73
1, 312528, Note_on_c, 0, 52, 81
1, 312529, Note_on_c, 0, 64, 78
1, 312531, Note_on_c, 0, 62, 79
1, 312555, Note_off_c, 0, 45, 65
1, 312564, Note_off_c, 0, 64, 63
1, 312566, Note_off_c, 0, 62, 64
1, 312567, Note_off_c, 0, 52, 63
1, 312654, Note_on_c, 0, 57, 58
1, 312662, Note_on_c, 0, 62, 59
1, 312698, Note_off_c, 0, 62, 62
1, 312702, Note_off_c, 0, 57, 58
1, 312783, Note_on_c, 0, 64, 63
1, 312786, Note_on_c, 0, 61, 65
1, 312817, Note_off_c, 0, 64, 66
1, 312817, Note_off_c, 0, 61, 65
1, 312901, Note_on_c, 0, 61, 75
1, 312902, Note_on_c, 0, 69, 86
1, 312912, Note_on_c, 0, 57, 61
1, 312944, Note_off_c, 0, 69, 65
1, 312953, Note_off_c, 0, 57, 63
1, 312956, Note_off_c, 0, 61, 63
1, 313024, Note_on_c, 0, 65, 95
1, 313032, Note_on_c, 0, 60, 78
1, 313032, Note_on_c, 0, 63, 78
1, 313056, Note_off_c, 0, 63, 70
1, 313056, Note_off_c, 0, 65, 66
1, 313067, Note_off_c, 0, 60, 64
1, 313159, Note_on_c, 0, 60, 59
1, 313160, Note_on_c, 0, 57, 58
1, 313194, Note_off_c, 0, 60, 65
1, 313203, Note_off_c, 0, 57, 62
1, 313276, Note_on_c, 0, 52, 77
1, 313278, Note_on_c, 0, 62, 72
1, 313280, Note_on_c, 0, 59, 71
1, 313286, Note_on_c, 0, 40, 63
1, 313304, Note_off_c, 0, 52, 69
1, 313305, Note_off_c, 0, 59, 66
1, 313305, Note_off_c, 0, 62, 66
1, 313318, Note_off_c, 0, 40, 64
1, 313375, Note_on_c, 0, 59, 62
1, 313414, Note_on_c, 0, 57, 40
1, 313439, Note_off_c, 0, 59, 62
1, 313456, Note_off_c, 0, 57, 60
1, 313524, Note_on_c, 0, 52, 76
1, 313527, Note_on_c, 0, 45, 63
1, 313541, Note_on_c, 0, 64, 49
1, 313542, Note_on_c, 0, 60, 41
1, 313547, Note_on_c, 0, 62, 47
1, 313554, Note_off_c, 0, 52, 67
1, 313557, Note_off_c, 0, 45, 65
1, 313570, Note_off_c, 0, 60, 52
1, 313572, Note_off_c, 0, 64, 63
1, 313574, Note_off_c, 0, 62, 58
1, 313643, Note_on_c, 0, 65, 63
1, 313655, Note_on_c, 0, 57, 48
1, 313682, Note_off_c, 0, 65, 60
1, 313688, Note_off_c, 0, 57, 63
1, 313763, Note_on_c, 0, 66, 63
1, 313768, Note_on_c, 0, 63, 59
1, 313792, Note_off_c, 0, 66, 66
1, 313804, Note_off_c, 0, 63, 64
1, 313876, Note_on_c, 0, 67, 78
1, 313876, Note_on_c, 0, 76, 89
1, 313882, Note_on_c, 0, 60, 67
1, 313912, Note_off_c, 0, 76, 64
1, 313915, Note_off_c, 0, 60, 63
1, 313918, Note_off_c, 0, 67, 62
1, 313993, Note_on_c, 0, 72, 89
1, 313993, Note_on_c, 0, 76, 95
1, 314001, Note_on_c, 0, 68, 69
1, 314002, Note_on_c, 0, 64, 74
1, 314030, Note_off_c, 0, 76, 64
1, 314034, Note_off_c, 0, 68, 66
1, 314038, Note_off_c, 0, 64, 58
1, 314038, Note_off_c, 0, 72, 67
1, 314123, Note_on_c, 0, 67, 73
1, 314132, Note_on_c, 0, 60, 59
1, 314165, Note_off_c, 0, 67, 62
1, 314168, Note_off_c, 0, 60, 63
1, 314248, Note_on_c, 0, 66, 67
1, 314256, Note_on_c, 0, 63, 60
1, 314284, Note_off_c, 0, 66, 66
1, 314293, Note_off_c, 0, 63, 64
1, 314371, Note_on_c, 0, 65, 67
1, 314371, Note_on_c, 0, 60, 67
1, 314375, Note_on_c, 0, 45, 70
1, 314407, Note_off_c, 0, 65, 61
1, 314415, Note_off_c, 0, 45, 65
1, 314423, Note_off_c, 0, 60, 61
1, 314481, Note_on_c, 0, 52, 92
1, 314486, Note_on_c, 0, 40, 76
1, 314487, Note_on_c, 0, 64, 75
1, 314491, Note_on_c, 0, 63, 76
1, 314511, Note_off_c, 0, 40, 66
1, 314515, Note_off_c, 0, 52, 67
1, 314529, Note_off_c, 0, 64, 63
1, 314539, Note_off_c, 0, 63, 60
1, 314606, Note_on_c, 0, 65, 73
1, 314616, Note_on_c, 0, 60, 64
1, 314654, Note_off_c, 0, 60, 61
1, 314654, Note_off_c, 0, 65, 60
1, 314732, Note_on_c, 0, 62, 70
1, 314737, Note_on_c, 0, 66, 57
1, 314776, Note_off_c, 0, 66, 64
1, 314791, Note_off_c, 0, 62, 59
1, 314855, Note_on_c, 0, 83, 82
1, 314857, Note_on_c, 0, 67, 72
1, 314860, Note_on_c, 0, 59, 67
1, 314870, Note_on_c, 0, 76, 59
1, 314886, Note_off_c, 0, 83, 65
1, 314904, Note_off_c, 0, 59, 60
1, 314905, Note_off_c, 0, 67, 57
1, 314914, Note_off_c, 0, 76, 60
1, 314989, Note_on_c, 0, 68, 73
1, 314991, Note_on_c, 0, 76, 80
1, 314994, Note_on_c, 0, 61, 70
1, 315001, Note_on_c, 0, 71, 65
1, 315009, Note_on_c, 0, 77, 47
1, 315010, Note_off_c, 0, 77, 127
1, 315018, Note_off_c, 0, 76, 68
1, 315028, Note_off_c, 0, 71, 67
1, 315041, Note_off_c, 0, 61, 58
1, 315047, Note_off_c, 0, 68, 61
1, 315113, Note_on_c, 0, 67, 68
1, 315120, Note_on_c, 0, 58, 66
1, 315153, Note_off_c, 0, 58, 63
1, 315176, Note_off_c, 0, 67, 61
1, 315237, Note_on_c, 0, 62, 65
1, 315237, Note_on_c, 0, 66, 65
1, 315271, Note_off_c, 0, 66, 66
1, 315282, Note_off_c, 0, 62, 62
1, 315350, Note_on_c, 0, 65, 69
1, 315353, Note_on_c, 0, 59, 71
1, 315406, Note_off_c, 0, 65, 60
1, 315408, Note_off_c, 0, 59, 60
1, 315459, Note_on_c, 0, 33, 89
1, 315466, Note_on_c, 0, 64, 84
1, 315467, Note_on_c, 0, 40, 92
1, 315472, Note_on_c, 0, 62, 76
1, 315478, Control_c, 0, 64, 53
1, 315492, Control_c, 0, 64, 76
1, 315507, Control_c, 0, 64, 127
1, 315530, Note_on_c, 0, 35, 6
1, 315533, Note_off_c, 0, 62, 62
1, 315535, Note_off_c, 0, 33, 63
1, 315536, Note_off_c, 0, 64, 61
1, 315548, Note_off_c, 0, 40, 63
1, 315552, Control_c, 0, 64, 116
1, 315563, Note_off_c, 0, 35, 0
1, 315566, Control_c, 0, 64, 78
1, 315581, Poly_aftertouch_c, 0, 35, 0
1, 315581, Control_c, 0, 64, 48
1, 315596, Note_on_c, 0, 57, 67
1, 315596, Control_c, 0, 64, 0
1, 315658, Note_off_c, 0, 57, 58
1, 315730, Note_on_c, 0, 61, 70
1, 315788, Note_off_c, 0, 61, 62
1, 315855, Note_on_c, 0, 69, 82
1, 315865, Note_on_c, 0, 57, 65
1, 315900, Note_off_c, 0, 69, 63
1, 315921, Note_off_c, 0, 57, 59
1, 315975, Note_on_c, 0, 65, 93
1, 315983, Note_on_c, 0, 63, 73
1, 315984, Note_on_c, 0, 60, 74
1, 315992, Note_off_c, 0, 65, 71
1, 316011, Note_off_c, 0, 63, 68
1, 316021, Note_off_c, 0, 60, 63
1, 316113, Note_on_c, 0, 57, 64
1, 316154, Note_off_c, 0, 57, 66
1, 316216, Note_on_c, 0, 28, 90
1, 316216, Note_on_c, 0, 40, 91
1, 316224, Note_on_c, 0, 59, 83
1, 316224, Note_on_c, 0, 62, 81
1, 316256, Note_off_c, 0, 59, 65
1, 316268, Note_off_c, 0, 62, 63
1, 316309, Note_off_c, 0, 40, 42
1, 316321, Note_off_c, 0, 28, 53
1, 316353, Note_on_c, 0, 57, 67
1, 316397, Note_off_c, 0, 57, 63
1, 316466, Note_on_c, 0, 33, 93
1, 316470, Note_on_c, 0, 40, 88
1, 316472, Note_on_c, 0, 64, 82
1, 316474, Note_on_c, 0, 62, 83
1, 316485, Control_c, 0, 64, 35
1, 316500, Control_c, 0, 64, 61
1, 316514, Control_c, 0, 64, 82
1, 316516, Note_on_c, 0, 31, 30
1, 316529, Control_c, 0, 64, 127
1, 316532, Note_off_c, 0, 64, 63
1, 316541, Note_off_c, 0, 62, 61
1, 316550, Note_off_c, 0, 33, 63
1, 316558, Note_off_c, 0, 40, 61
1, 316564, Note_off_c, 0, 31, 47
1, 316607, Note_on_c, 0, 57, 68
1, 316618, Control_c, 0, 64, 80
1, 316633, Control_c, 0, 64, 59
1, 316648, Control_c, 0, 64, 0
1, 316663, Note_off_c, 0, 57, 58
1, 316726, Note_on_c, 0, 61, 75
1, 316781, Note_off_c, 0, 61, 60
1, 316850, Note_on_c, 0, 69, 82
1, 316852, Note_on_c, 0, 57, 66
1, 316890, Note_off_c, 0, 69, 66
1, 316904, Note_off_c, 0, 57, 60
1, 316960, Note_on_c, 0, 65, 96
1, 316961, Note_on_c, 0, 63, 77
1, 316962, Note_on_c, 0, 60, 77
1, 316991, Note_off_c, 0, 65, 67
1, 317001, Note_off_c, 0, 60, 61
1, 317008, Note_off_c, 0, 63, 66
1, 317086, Note_on_c, 0, 57, 64
1, 317139, Note_off_c, 0, 57, 60
1, 317222, Note_on_c, 0, 59, 78
1, 317222, Note_on_c, 0, 62, 79
1, 317223, Note_on_c, 0, 40, 88
1, 317226, Note_on_c, 0, 28, 80
1, 317257, Note_off_c, 0, 59, 64
1, 317259, Note_off_c, 0, 40, 64
1, 317260, Note_off_c, 0, 28, 66
1, 317260, Note_off_c, 0, 62, 63
1, 317350, Note_on_c, 0, 57, 68
1, 317391, Note_off_c, 0, 57, 61
1, 317477, Note_on_c, 0, 64, 61
1, 317480, Note_on_c, 0, 60, 56
1, 317483, Note_on_c, 0, 33, 60
1, 317490, Note_on_c, 0, 40, 55
1, 317513, Note_off_c, 0, 64, 64
1, 317515, Note_off_c, 0, 60, 66
1, 317530, Control_c, 0, 64, 31
1, 317545, Control_c, 0, 64, 45
1, 317560, Control_c, 0, 64, 51
1, 317575, Control_c, 0, 64, 56
1, 317590, Control_c, 0, 64, 62
1, 317596, Note_on_c, 0, 65, 64
1, 317599, Note_on_c, 0, 57, 62
1, 317605, Control_c, 0, 64, 66
1, 317620, Control_c, 0, 64, 72
1, 317632, Note_off_c, 0, 65, 61
1, 317635, Control_c, 0, 64, 82
1, 317635, Note_off_c, 0, 33, 57
1, 317637, Note_off_c, 0, 57, 62
1, 317650, Control_c, 0, 64, 93
1, 317657, Note_off_c, 0, 40, 59
1, 317665, Control_c, 0, 64, 109
1, 317680, Control_c, 0, 64, 127
1, 317708, Note_on_c, 0, 66, 72
1, 317711, Note_on_c, 0, 62, 69
1, 317753, Note_off_c, 0, 62, 58
1, 317758, Note_off_c, 0, 66, 62
1, 317819, Note_on_c, 0, 67, 81
1, 317827, Note_on_c, 0, 59, 72
1, 317857, Control_c, 0, 64, 91
1, 317866, Note_off_c, 0, 59, 59
1, 317872, Control_c, 0, 64, 71
1, 317875, Note_off_c, 0, 67, 65
1, 317886, Control_c, 0, 64, 56
1, 317901, Control_c, 0, 64, 0
1, 317940, Note_on_c, 0, 53, 79
1, 317943, Note_on_c, 0, 64, 73
1, 317944, Note_on_c, 0, 41, 74
1, 317945, Note_on_c, 0, 68, 72
1, 317968, Control_c, 0, 64, 11
1, 317983, Control_c, 0, 64, 35
1, 317998, Control_c, 0, 64, 47
1, 318010, Note_off_c, 0, 64, 62
1, 318012, Control_c, 0, 64, 53
1, 318017, Note_off_c, 0, 68, 62
1, 318027, Control_c, 0, 64, 57
1, 318042, Control_c, 0, 64, 59
1, 318057, Control_c, 0, 64, 62
1, 318071, Note_on_c, 0, 69, 78
1, 318072, Control_c, 0, 64, 63
1, 318075, Note_on_c, 0, 60, 69
1, 318086, Control_c, 0, 64, 65
1, 318101, Control_c, 0, 64, 68
1, 318116, Control_c, 0, 64, 73
1, 318121, Note_off_c, 0, 60, 61
1, 318125, Note_off_c, 0, 69, 66
1, 318131, Control_c, 0, 64, 82
1, 318145, Control_c, 0, 64, 98
1, 318160, Control_c, 0, 64, 127
1, 318187, Note_on_c, 0, 65, 72
1, 318191, Note_on_c, 0, 70, 73
1, 318195, Note_off_c, 0, 53, 61
1, 318228, Note_off_c, 0, 41, 63
1, 318232, Note_off_c, 0, 65, 60
1, 318255, Note_off_c, 0, 70, 62
1, 318304, Note_on_c, 0, 71, 86
1, 318309, Note_on_c, 0, 62, 77
1, 318357, Note_off_c, 0, 71, 65
1, 318362, Note_off_c, 0, 62, 60
1, 318398, Control_c, 0, 64, 89
1, 318413, Control_c, 0, 64, 69
1, 318428, Control_c, 0, 64, 54
1, 318429, Note_on_c, 0, 72, 77
1, 318432, Note_on_c, 0, 50, 81
1, 318432, Note_on_c, 0, 68, 76
1, 318437, Note_on_c, 0, 38, 76
1, 318443, Control_c, 0, 64, 36
1, 318458, Control_c, 0, 64, 39
1, 318473, Control_c, 0, 64, 46
1, 318480, Note_off_c, 0, 68, 59
1, 318482, Note_off_c, 0, 72, 64
1, 318488, Control_c, 0, 64, 52
1, 318503, Control_c, 0, 64, 59
1, 318517, Control_c, 0, 64, 62
1, 318532, Control_c, 0, 64, 65
1, 318547, Control_c, 0, 64, 68
1, 318550, Note_on_c, 0, 73, 83
1, 318551, Note_on_c, 0, 64, 74
1, 318562, Control_c, 0, 64, 72
1, 318577, Control_c, 0, 64, 79
1, 318587, Note_off_c, 0, 64, 58
1, 318592, Control_c, 0, 64, 88
1, 318607, Control_c, 0, 64, 104
1, 318621, Control_c, 0, 64, 127
1, 318624, Note_off_c, 0, 73, 62
1, 318627, Note_off_c, 0, 50, 59
1, 318663, Note_on_c, 0, 74, 84
1, 318668, Note_on_c, 0, 70, 80
1, 318669, Note_off_c, 0, 38, 60
1, 318720, Note_off_c, 0, 74, 65
1, 318729, Note_off_c, 0, 70, 64
1, 318788, Note_on_c, 0, 75, 92
1, 318793, Note_on_c, 0, 65, 84
1, 318831, Note_on_c, 0, 73, 29
1, 318842, Note_off_c, 0, 65, 58
1, 318851, Control_c, 0, 64, 82
1, 318862, Note_off_c, 0, 75, 63
1, 318864, Note_off_c, 0, 73, 54
1, 318866, Control_c, 0, 64, 64
1, 318881, Control_c, 0, 64, 40
1, 318896, Control_c, 0, 64, 24
1, 318907, Note_on_c, 0, 76, 85
1, 318908, Note_on_c, 0, 72, 81
1, 318910, Control_c, 0, 64, 36
1, 318915, Note_on_c, 0, 46, 93
1, 318922, Note_on_c, 0, 34, 80
1, 318925, Control_c, 0, 64, 47
1, 318940, Control_c, 0, 64, 58
1, 318955, Control_c, 0, 64, 64
1, 318961, Note_off_c, 0, 72, 64
1, 318963, Note_off_c, 0, 76, 64
1, 318964, Note_off_c, 0, 34, 61
1, 318969, Control_c, 0, 64, 70
1, 318972, Note_off_c, 0, 46, 62
1, 318984, Control_c, 0, 64, 81
1, 318999, Control_c, 0, 64, 127
1, 319021, Note_on_c, 0, 77, 91
1, 319030, Note_on_c, 0, 67, 81
1, 319072, Note_off_c, 0, 77, 63
1, 319083, Note_off_c, 0, 67, 63
1, 319103, Control_c, 0, 64, 77
1, 319117, Control_c, 0, 64, 60
1, 319132, Control_c, 0, 64, 26
1, 319136, Note_on_c, 0, 52, 92
1, 319143, Note_on_c, 0, 40, 83
1, 319143, Note_on_c, 0, 77, 87
1, 319145, Note_on_c, 0, 73, 89
1, 319147, Control_c, 0, 64, 37
1, 319163, Control_c, 0, 64, 51
1, 319167, Note_off_c, 0, 52, 65
1, 319178, Control_c, 0, 64, 60
1, 319193, Control_c, 0, 64, 66
1, 319196, Note_off_c, 0, 77, 64
1, 319197, Note_off_c, 0, 40, 62
1, 319205, Note_off_c, 0, 73, 66
1, 319207, Control_c, 0, 64, 76
1, 319222, Control_c, 0, 64, 127
1, 319246, Poly_aftertouch_c, 0, 42, 0
1, 319253, Note_on_c, 0, 76, 94
1, 319259, Note_on_c, 0, 68, 87
1, 319296, Control_c, 0, 64, 91
1, 319297, Note_off_c, 0, 68, 53
1, 319309, Note_off_c, 0, 76, 64
1, 319311, Control_c, 0, 64, 59
1, 319326, Control_c, 0, 64, 0
1, 319371, Note_on_c, 0, 45, 92
1, 319375, Note_on_c, 0, 81, 100
1, 319376, Note_on_c, 0, 72, 93
1, 319378, Note_on_c, 0, 33, 79
1, 319385, Control_c, 0, 64, 45
1, 319400, Control_c, 0, 64, 67
1, 319409, Note_off_c, 0, 33, 64
1, 319414, Control_c, 0, 64, 127
1, 319417, Note_off_c, 0, 72, 64
1, 319420, Note_off_c, 0, 45, 66
1, 319421, Note_off_c, 0, 81, 67
1, 319499, Note_on_c, 0, 70, 90
1, 319502, Note_on_c, 0, 81, 88
1, 319546, Note_off_c, 0, 81, 64
1, 319547, Note_off_c, 0, 70, 63
1, 319626, Note_on_c, 0, 71, 84
1, 319626, Note_on_c, 0, 81, 84
1, 319629, Control_c, 0, 64, 83
1, 319644, Control_c, 0, 64, 60
1, 319656, Note_off_c, 0, 81, 66
1, 319659, Control_c, 0, 64, 0
1, 319665, Note_off_c, 0, 71, 61
1, 319736, Note_on_c, 0, 64, 67
1, 319745, Note_on_c, 0, 72, 88
1, 319748, Note_on_c, 0, 81, 84
1, 319782, Note_on_c, 0, 66, 67
1, 319785, Note_off_c, 0, 72, 64
1, 319787, Note_off_c, 0, 81, 65
1, 319810, Note_off_c, 0, 64, 62
1, 319824, Note_on_c, 0, 68, 77
1, 319851, Note_on_c, 0, 72, 94
1, 319852, Control_c, 0, 64, 48
1, 319852, Note_on_c, 0, 69, 111
1, 319852, Note_on_c, 0, 81, 84
1, 319853, Note_on_c, 0, 73, 90
1, 319859, Note_off_c, 0, 68, 63
1, 319866, Control_c, 0, 64, 64
1, 319879, Note_off_c, 0, 66, 59
1, 319881, Control_c, 0, 64, 85
1, 319883, Note_on_c, 0, 67, 41
1, 319884, Note_off_c, 0, 67, 127
1, 319896, Control_c, 0, 64, 127
1, 319898, Note_off_c, 0, 69, 67
1, 319899, Note_off_c, 0, 72, 62
1, 319907, Note_off_c, 0, 73, 66
1, 319907, Note_off_c, 0, 81, 65
1, 319975, Note_on_c, 0, 72, 85
1, 319978, Note_on_c, 0, 81, 80
1, 319978, Note_on_c, 0, 74, 82
1, 320002, Note_off_c, 0, 74, 67
1, 320023, Note_off_c, 0, 72, 61
1, 320025, Note_off_c, 0, 81, 62
1, 320046, Control_c, 0, 64, 95
1, 320061, Control_c, 0, 64, 63
1, 320076, Control_c, 0, 64, 0
1, 320090, Note_on_c, 0, 75, 86
1, 320093, Note_on_c, 0, 81, 70
1, 320094, Note_on_c, 0, 72, 78
1, 320123, Note_off_c, 0, 72, 63
1, 320127, Note_off_c, 0, 81, 62
1, 320142, Note_off_c, 0, 75, 64
1, 320213, Note_on_c, 0, 57, 97
1, 320213, Note_on_c, 0, 76, 88
1, 320216, Note_on_c, 0, 72, 89
1, 320216, Note_on_c, 0, 45, 87
1, 320220, Note_on_c, 0, 81, 77
1, 320249, Note_off_c, 0, 45, 65
1, 320256, Note_off_c, 0, 76, 65
1, 320258, Note_off_c, 0, 57, 65
1, 320264, Note_off_c, 0, 81, 63
1, 320268, Note_off_c, 0, 72, 64
1, 320328, Note_on_c, 0, 57, 103
1, 320329, Note_on_c, 0, 81, 84
1, 320330, Note_on_c, 0, 45, 100
1, 320332, Note_on_c, 0, 72, 94
1, 320334, Note_on_c, 0, 77, 94
1, 320335, Control_c, 0, 64, 52
1, 320350, Control_c, 0, 64, 68
1, 320361, Note_off_c, 0, 57, 68
1, 320364, Control_c, 0, 64, 90
1, 320372, Note_off_c, 0, 45, 65
1, 320376, Note_off_c, 0, 77, 65
1, 320379, Control_c, 0, 64, 127
1, 320391, Note_off_c, 0, 72, 63
1, 320395, Note_off_c, 0, 81, 66
1, 320453, Note_on_c, 0, 72, 87
1, 320453, Note_on_c, 0, 78, 90
1, 320453, Note_on_c, 0, 81, 77
1, 320453, Control_c, 0, 64, 83
1, 320468, Control_c, 0, 64, 63
1, 320482, Control_c, 0, 64, 13
1, 320492, Note_off_c, 0, 81, 61
1, 320497, Control_c, 0, 64, 0
1, 320502, Note_off_c, 0, 72, 64
1, 320509, Note_off_c, 0, 78, 65
1, 320571, Note_on_c, 0, 81, 86
1, 320571, Note_on_c, 0, 72, 88
1, 320572, Note_on_c, 0, 79, 83
1, 320614, Note_off_c, 0, 72, 63
1, 320619, Note_off_c, 0, 79, 65
1, 320626, Note_off_c, 0, 81, 65
1, 320688, Note_on_c, 0, 80, 92
1, 320693, Note_on_c, 0, 72, 89
1, 320694, Note_on_c, 0, 40, 87
1, 320699, Note_on_c, 0, 81, 65
1, 320725, Note_off_c, 0, 81, 60
1, 320763, Note_off_c, 0, 72, 61
1, 320784, Note_off_c, 0, 80, 64
1, 320809, Note_off_c, 0, 40, 62
1, 320831, Note_on_c, 0, 81, 103
1, 320833, Note_on_c, 0, 45, 99
1, 320837, Note_on_c, 0, 72, 100
1, 320838, Note_on_c, 0, 33, 91
1, 320853, Control_c, 0, 64, 48
1, 320868, Control_c, 0, 64, 63
1, 320883, Control_c, 0, 64, 82
1, 320898, Control_c, 0, 64, 127
1, 320929, Note_off_c, 0, 33, 63
1, 320930, Note_off_c, 0, 72, 67
1, 320931, Note_off_c, 0, 81, 68
1, 320970, Note_off_c, 0, 45, 67
1, 321068, Control_c, 0, 64, 88
1, 321083, Control_c, 0, 64, 63
1, 321098, Control_c, 0, 64, 0
1, 324916, Control_c, 0, 67, 18
1, 324931, Control_c, 0, 67, 31
1, 324946, Control_c, 0, 67, 46
1, 324960, Control_c, 0, 67, 58
1, 324975, Control_c, 0, 67, 70
1, 324990, Control_c, 0, 67, 80
1, 325005, Control_c, 0, 67, 90
1, 325020, Control_c, 0, 67, 98
1, 325034, Control_c, 0, 67, 107
1, 325049, Control_c, 0, 67, 111
1, 325064, Control_c, 0, 67, 114
1, 325078, Control_c, 0, 67, 116
1, 325093, Control_c, 0, 67, 117
1, 325108, Control_c, 0, 67, 117
1, 325182, Control_c, 0, 64, 30
1, 325197, Control_c, 0, 64, 41
1, 325212, Control_c, 0, 64, 47
1, 325212, Control_c, 0, 67, 117
1, 325227, Control_c, 0, 64, 50
1, 325242, Control_c, 0, 64, 53
1, 325257, Control_c, 0, 64, 55
1, 325271, Control_c, 0, 64, 58
1, 325286, Control_c, 0, 64, 60
1, 325286, Control_c, 0, 67, 115
1, 325301, Control_c, 0, 64, 61
1, 325316, Control_c, 0, 64, 62
1, 325316, Control_c, 0, 67, 115
1, 325331, Control_c, 0, 64, 63
1, 325345, Control_c, 0, 64, 64
1, 325360, Control_c, 0, 64, 65
1, 325375, Control_c, 0, 64, 66
1, 325375, Control_c, 0, 67, 114
1, 325390, Control_c, 0, 64, 67
1, 325390, Control_c, 0, 67, 114
1, 325404, Control_c, 0, 64, 68
1, 325419, Control_c, 0, 64, 70
1, 325434, Control_c, 0, 64, 72
1, 325457, Control_c, 0, 64, 74
1, 325472, Control_c, 0, 64, 76
1, 325486, Control_c, 0, 64, 78
1, 325486, Control_c, 0, 67, 113
1, 325501, Control_c, 0, 64, 80
1, 325516, Control_c, 0, 64, 82
1, 325531, Control_c, 0, 64, 83
1, 325546, Control_c, 0, 64, 83
1, 325561, Control_c, 0, 64, 84
1, 325576, Control_c, 0, 67, 112
1, 325680, Control_c, 0, 67, 112
1, 325842, Control_c, 0, 67, 111
1, 325901, Control_c, 0, 64, 83
1, 326109, Control_c, 0, 64, 83
1, 326265, Control_c, 0, 67, 110
1, 326592, Control_c, 0, 64, 83
1, 326592, Control_c, 0, 67, 110
1, 326650, Control_c, 0, 64, 84
1, 326650, Control_c, 0, 67, 109
1, 326665, Control_c, 0, 64, 84
1, 326680, Control_c, 0, 64, 85
1, 326680, Control_c, 0, 67, 109
1, 326695, Control_c, 0, 64, 86
1, 326710, Control_c, 0, 64, 87
1, 326724, Control_c, 0, 64, 88
1, 326739, Control_c, 0, 64, 89
1, 326754, Control_c, 0, 64, 91
1, 326754, Control_c, 0, 67, 108
1, 326769, Control_c, 0, 64, 94
1, 326784, Control_c, 0, 64, 96
1, 326798, Control_c, 0, 64, 97
1, 326813, Control_c, 0, 64, 99
1, 326828, Control_c, 0, 64, 100
1, 326843, Control_c, 0, 64, 101
1, 326858, Control_c, 0, 64, 102
1, 326858, Control_c, 0, 67, 107
1, 326873, Control_c, 0, 64, 103
1, 326888, Control_c, 0, 64, 104
1, 326902, Control_c, 0, 64, 105
1, 326917, Control_c, 0, 64, 106
1, 326932, Control_c, 0, 64, 106
1, 326954, Control_c, 0, 64, 107
1, 326954, Control_c, 0, 67, 107
1, 326984, Control_c, 0, 64, 108
1, 326998, Control_c, 0, 64, 108
1, 327013, Control_c, 0, 64, 109
1, 327028, Control_c, 0, 64, 110
1, 327043, Control_c, 0, 64, 110
1, 327044, Note_on_c, 0, 51, 38
1, 327066, Note_on_c, 0, 44, 22
1, 327072, Control_c, 0, 64, 111
1, 327078, Note_on_c, 0, 47, 25
1, 327087, Control_c, 0, 64, 111
1, 327117, Control_c, 0, 64, 112
1, 327177, Control_c, 0, 64, 113
1, 327370, Control_c, 0, 64, 113
1, 327532, Control_c, 0, 67, 106
1, 327575, Note_on_c, 0, 56, 39
1, 327653, Note_off_c, 0, 51, 36
1, 327705, Note_off_c, 0, 47, 28
1, 327743, Note_off_c, 0, 44, 36
1, 327970, Control_c, 0, 64, 113
1, 327999, Control_c, 0, 64, 112
1, 328014, Control_c, 0, 64, 111
1, 328029, Control_c, 0, 64, 110
1, 328044, Control_c, 0, 64, 107
1, 328059, Control_c, 0, 64, 102
1, 328074, Control_c, 0, 64, 93
1, 328088, Control_c, 0, 64, 85
1, 328101, Note_on_c, 0, 42, 46
1, 328103, Control_c, 0, 64, 77
1, 328118, Control_c, 0, 64, 70
1, 328133, Control_c, 0, 64, 65
1, 328148, Control_c, 0, 64, 63
1, 328162, Control_c, 0, 64, 64
1, 328177, Control_c, 0, 64, 64
1, 328192, Control_c, 0, 64, 65
1, 328207, Control_c, 0, 64, 65
1, 328222, Control_c, 0, 64, 66
1, 328237, Control_c, 0, 64, 67
1, 328251, Control_c, 0, 64, 68
1, 328266, Control_c, 0, 64, 70
1, 328281, Control_c, 0, 64, 74
1, 328295, Control_c, 0, 64, 80
1, 328310, Control_c, 0, 64, 88
1, 328325, Control_c, 0, 64, 97
1, 328340, Control_c, 0, 64, 108
1, 328355, Control_c, 0, 64, 127
1, 328619, Note_on_c, 0, 47, 41
1, 328635, Note_off_c, 0, 42, 33
1, 328852, Control_c, 0, 67, 105
1, 329123, Note_on_c, 0, 51, 48
1, 329126, Note_on_c, 0, 44, 34
1, 329133, Control_c, 0, 64, 99
1, 329148, Control_c, 0, 64, 83
1, 329163, Control_c, 0, 64, 71
1, 329178, Control_c, 0, 64, 63
1, 329195, Note_off_c, 0, 56, 37
1, 329200, Control_c, 0, 64, 54
1, 329215, Control_c, 0, 64, 52
1, 329230, Control_c, 0, 64, 53
1, 329244, Control_c, 0, 64, 55
1, 329259, Control_c, 0, 64, 56
1, 329274, Control_c, 0, 64, 58
1, 329289, Control_c, 0, 64, 59
1, 329304, Control_c, 0, 64, 61
1, 329318, Control_c, 0, 64, 62
1, 329333, Control_c, 0, 64, 64
1, 329348, Control_c, 0, 64, 67
1, 329363, Control_c, 0, 64, 70
1, 329378, Control_c, 0, 64, 77
1, 329392, Control_c, 0, 64, 84
1, 329407, Control_c, 0, 64, 90
1, 329422, Control_c, 0, 64, 97
1, 329437, Control_c, 0, 64, 104
1, 329437, Control_c, 0, 67, 105
1, 329451, Control_c, 0, 64, 115
1, 329466, Control_c, 0, 64, 127
1, 329669, Note_on_c, 0, 56, 39
1, 329687, Note_off_c, 0, 44, 38
1, 329717, Note_off_c, 0, 51, 32
1, 329882, Control_c, 0, 67, 104
1, 330171, Control_c, 0, 64, 116
1, 330183, Note_on_c, 0, 42, 44
1, 330186, Control_c, 0, 64, 97
1, 330201, Control_c, 0, 64, 85
1, 330215, Control_c, 0, 64, 73
1, 330230, Control_c, 0, 64, 66
1, 330245, Control_c, 0, 64, 60
1, 330260, Control_c, 0, 64, 57
1, 330274, Control_c, 0, 64, 58
1, 330283, Note_off_c, 0, 47, 31
1, 330289, Control_c, 0, 64, 58
1, 330304, Control_c, 0, 64, 59
1, 330319, Control_c, 0, 64, 60
1, 330334, Control_c, 0, 64, 61
1, 330350, Control_c, 0, 64, 62
1, 330364, Control_c, 0, 64, 63
1, 330379, Control_c, 0, 64, 64
1, 330394, Control_c, 0, 64, 66
1, 330409, Control_c, 0, 64, 68
1, 330424, Control_c, 0, 64, 72
1, 330438, Control_c, 0, 64, 79
1, 330453, Control_c, 0, 64, 87
1, 330468, Control_c, 0, 64, 95
1, 330483, Control_c, 0, 64, 104
1, 330497, Control_c, 0, 64, 127
1, 330722, Note_on_c, 0, 47, 38
1, 330752, Note_off_c, 0, 42, 32
1, 331187, Control_c, 0, 64, 111
1, 331202, Control_c, 0, 64, 98
1, 331211, Note_on_c, 0, 44, 37
1, 331213, Note_on_c, 0, 51, 45
1, 331217, Control_c, 0, 64, 89
1, 331232, Control_c, 0, 64, 79
1, 331247, Control_c, 0, 64, 71
1, 331261, Control_c, 0, 64, 65
1, 331275, Note_off_c, 0, 56, 34
1, 331276, Control_c, 0, 64, 61
1, 331291, Control_c, 0, 64, 59
1, 331306, Control_c, 0, 64, 60
1, 331320, Control_c, 0, 64, 60
1, 331335, Control_c, 0, 64, 61
1, 331350, Control_c, 0, 64, 62
1, 331365, Control_c, 0, 64, 63
1, 331380, Control_c, 0, 64, 64
1, 331395, Control_c, 0, 64, 64
1, 331395, Control_c, 0, 67, 103
1, 331410, Control_c, 0, 64, 65
1, 331424, Control_c, 0, 64, 66
1, 331447, Control_c, 0, 64, 68
1, 331462, Control_c, 0, 64, 72
1, 331476, Control_c, 0, 64, 77
1, 331491, Control_c, 0, 64, 85
1, 331506, Control_c, 0, 64, 91
1, 331520, Control_c, 0, 64, 97
1, 331535, Control_c, 0, 64, 102
1, 331550, Control_c, 0, 64, 107
1, 331565, Control_c, 0, 64, 109
1, 331580, Control_c, 0, 64, 110
1, 331594, Control_c, 0, 64, 111
1, 331609, Control_c, 0, 64, 112
1, 331609, Control_c, 0, 67, 103
1, 331639, Control_c, 0, 64, 113
1, 331654, Control_c, 0, 64, 113
1, 331753, Note_on_c, 0, 56, 43
1, 331812, Note_off_c, 0, 44, 36
1, 331827, Note_off_c, 0, 51, 33
1, 331996, Control_c, 0, 64, 113
1, 332055, Control_c, 0, 64, 112
1, 332070, Control_c, 0, 64, 111
1, 332084, Control_c, 0, 64, 111
1, 332099, Control_c, 0, 64, 110
1, 332114, Control_c, 0, 64, 109
1, 332129, Control_c, 0, 64, 108
1, 332143, Control_c, 0, 64, 107
1, 332158, Control_c, 0, 64, 105
1, 332173, Control_c, 0, 64, 102
1, 332196, Control_c, 0, 64, 97
1, 332211, Control_c, 0, 64, 90
1, 332225, Control_c, 0, 64, 83
1, 332240, Control_c, 0, 64, 75
1, 332249, Note_on_c, 0, 42, 37
1, 332255, Control_c, 0, 64, 67
1, 332255, Control_c, 0, 67, 102
1, 332269, Control_c, 0, 64, 59
1, 332284, Control_c, 0, 64, 53
1, 332314, Control_c, 0, 64, 54
1, 332325, Note_off_c, 0, 47, 36
1, 332329, Control_c, 0, 64, 54
1, 332343, Control_c, 0, 64, 55
1, 332358, Control_c, 0, 64, 56
1, 332373, Control_c, 0, 64, 58
1, 332388, Control_c, 0, 64, 59
1, 332403, Control_c, 0, 64, 61
1, 332417, Control_c, 0, 64, 62
1, 332432, Control_c, 0, 64, 63
1, 332447, Control_c, 0, 64, 64
1, 332462, Control_c, 0, 64, 66
1, 332477, Control_c, 0, 64, 69
1, 332492, Control_c, 0, 64, 75
1, 332507, Control_c, 0, 64, 83
1, 332521, Control_c, 0, 64, 91
1, 332536, Control_c, 0, 64, 99
1, 332551, Control_c, 0, 64, 107
1, 332566, Control_c, 0, 64, 119
1, 332581, Control_c, 0, 64, 127
1, 332787, Note_on_c, 0, 47, 36
1, 332861, Note_off_c, 0, 42, 38
1, 332989, Control_c, 0, 64, 121
1, 333004, Control_c, 0, 64, 118
1, 333019, Control_c, 0, 64, 116
1, 333034, Control_c, 0, 64, 113
1, 333048, Control_c, 0, 64, 112
1, 333063, Control_c, 0, 64, 111
1, 333078, Control_c, 0, 64, 110
1, 333092, Control_c, 0, 64, 109
1, 333107, Control_c, 0, 64, 107
1, 333122, Control_c, 0, 64, 106
1, 333137, Control_c, 0, 64, 105
1, 333152, Control_c, 0, 64, 103
1, 333166, Control_c, 0, 64, 102
1, 333181, Control_c, 0, 64, 99
1, 333196, Control_c, 0, 64, 95
1, 333211, Control_c, 0, 64, 90
1, 333226, Control_c, 0, 64, 84
1, 333240, Control_c, 0, 64, 78
1, 333254, Note_on_c, 0, 44, 29
1, 333255, Control_c, 0, 64, 71
1, 333270, Control_c, 0, 64, 64
1, 333276, Note_on_c, 0, 51, 37
1, 333279, Note_off_c, 0, 56, 38
1, 333285, Control_c, 0, 64, 57
1, 333299, Control_c, 0, 64, 55
1, 333314, Control_c, 0, 64, 56
1, 333329, Control_c, 0, 64, 57
1, 333344, Control_c, 0, 64, 58
1, 333359, Control_c, 0, 64, 59
1, 333374, Control_c, 0, 64, 60
1, 333389, Control_c, 0, 64, 61
1, 333404, Control_c, 0, 64, 62
1, 333404, Control_c, 0, 67, 103
1, 333419, Control_c, 0, 64, 63
1, 333433, Control_c, 0, 64, 64
1, 333448, Control_c, 0, 64, 65
1, 333463, Control_c, 0, 64, 66
1, 333478, Control_c, 0, 64, 68
1, 333492, Control_c, 0, 64, 71
1, 333507, Control_c, 0, 64, 75
1, 333522, Control_c, 0, 64, 79
1, 333538, Control_c, 0, 64, 82
1, 333553, Control_c, 0, 64, 85
1, 333568, Control_c, 0, 64, 87
1, 333582, Control_c, 0, 64, 90
1, 333597, Control_c, 0, 64, 94
1, 333612, Control_c, 0, 64, 97
1, 333627, Control_c, 0, 64, 99
1, 333642, Control_c, 0, 64, 99
1, 333656, Control_c, 0, 64, 100
1, 333671, Control_c, 0, 64, 101
1, 333693, Control_c, 0, 64, 101
1, 333708, Control_c, 0, 64, 102
1, 333738, Control_c, 0, 64, 102
1, 333782, Note_on_c, 0, 56, 41
1, 333797, Control_c, 0, 67, 103
1, 333854, Note_off_c, 0, 51, 34
1, 333930, Control_c, 0, 67, 104
1, 334063, Control_c, 0, 64, 102
1, 334167, Control_c, 0, 64, 101
1, 334241, Control_c, 0, 64, 101
1, 334271, Control_c, 0, 64, 100
1, 334331, Control_c, 0, 64, 100
1, 334361, Control_c, 0, 64, 99
1, 334376, Control_c, 0, 64, 99
1, 334379, Note_on_c, 0, 64, 65
1, 334396, Note_on_c, 0, 51, 40
1, 334405, Control_c, 0, 64, 98
1, 334442, Control_c, 0, 64, 98
1, 334457, Control_c, 0, 64, 97
1, 334459, Note_off_c, 0, 56, 39
1, 334472, Control_c, 0, 64, 97
1, 334501, Control_c, 0, 64, 96
1, 334531, Control_c, 0, 64, 95
1, 334545, Control_c, 0, 64, 95
1, 334560, Control_c, 0, 64, 94
1, 334620, Control_c, 0, 64, 94
1, 334635, Control_c, 0, 64, 93
1, 334650, Control_c, 0, 64, 92
1, 334694, Control_c, 0, 64, 92
1, 334738, Control_c, 0, 64, 91
1, 334753, Control_c, 0, 64, 91
1, 334768, Control_c, 0, 64, 90
1, 334798, Control_c, 0, 64, 90
1, 334842, Control_c, 0, 64, 89
1, 334856, Control_c, 0, 64, 88
1, 334871, Control_c, 0, 64, 87
1, 334886, Control_c, 0, 64, 86
1, 334901, Control_c, 0, 64, 83
1, 334916, Control_c, 0, 64, 80
1, 334930, Control_c, 0, 64, 77
1, 334945, Control_c, 0, 64, 73
1, 334960, Control_c, 0, 64, 71
1, 334974, Note_on_c, 0, 61, 44
1, 334975, Control_c, 0, 64, 70
1, 334976, Note_on_c, 0, 56, 25
1, 334990, Control_c, 0, 64, 71
1, 335005, Control_c, 0, 64, 71
1, 335019, Control_c, 0, 64, 72
1, 335034, Control_c, 0, 64, 74
1, 335049, Control_c, 0, 64, 76
1, 335050, Note_off_c, 0, 64, 30
1, 335064, Control_c, 0, 64, 78
1, 335079, Control_c, 0, 64, 80
1, 335094, Control_c, 0, 64, 82
1, 335109, Control_c, 0, 64, 84
1, 335124, Control_c, 0, 64, 87
1, 335139, Control_c, 0, 64, 92
1, 335154, Control_c, 0, 64, 99
1, 335168, Control_c, 0, 64, 107
1, 335191, Control_c, 0, 64, 118
1, 335196, Note_off_c, 0, 47, 36
1, 335206, Note_off_c, 0, 51, 14
1, 335206, Control_c, 0, 64, 127
1, 335222, Note_off_c, 0, 44, 36
1, 335295, Note_off_c, 0, 61, 32
1, 335458, Note_off_c, 0, 56, 39
1, 335502, Control_c, 0, 64, 121
1, 335506, Note_on_c, 0, 63, 62
1, 335508, Note_on_c, 0, 51, 44
1, 335509, Note_on_c, 0, 44, 42
1, 335517, Note_on_c, 0, 47, 31
1, 335517, Control_c, 0, 64, 99
1, 335532, Control_c, 0, 64, 86
1, 335532, Control_c, 0, 67, 105
1, 335547, Control_c, 0, 64, 75
1, 335561, Control_c, 0, 64, 66
1, 335576, Control_c, 0, 64, 58
1, 335591, Control_c, 0, 64, 51
1, 335606, Control_c, 0, 64, 52
1, 335621, Control_c, 0, 64, 55
1, 335635, Control_c, 0, 64, 56
1, 335650, Control_c, 0, 64, 58
1, 335665, Control_c, 0, 64, 60
1, 335679, Control_c, 0, 64, 61
1, 335694, Control_c, 0, 64, 62
1, 335709, Control_c, 0, 64, 64
1, 335724, Control_c, 0, 64, 66
1, 335739, Control_c, 0, 64, 69
1, 335754, Control_c, 0, 64, 74
1, 335768, Control_c, 0, 64, 80
1, 335783, Control_c, 0, 64, 85
1, 335783, Control_c, 0, 67, 104
1, 335798, Control_c, 0, 64, 91
1, 335813, Control_c, 0, 64, 95
1, 335828, Control_c, 0, 64, 100
1, 335842, Control_c, 0, 64, 105
1, 335857, Control_c, 0, 64, 107
1, 335872, Control_c, 0, 64, 108
1, 335887, Control_c, 0, 64, 110
1, 335902, Control_c, 0, 64, 112
1, 335917, Control_c, 0, 64, 114
1, 336029, Control_c, 0, 64, 113
1, 336040, Note_on_c, 0, 59, 47
1, 336059, Note_on_c, 0, 56, 36
1, 336103, Control_c, 0, 64, 113
1, 336109, Note_off_c, 0, 51, 39
1, 336118, Control_c, 0, 64, 112
1, 336221, Control_c, 0, 64, 111
1, 336251, Control_c, 0, 64, 111
1, 336265, Control_c, 0, 64, 110
1, 336280, Control_c, 0, 64, 109
1, 336300, Note_off_c, 0, 63, 35
1, 336325, Control_c, 0, 64, 108
1, 336429, Control_c, 0, 64, 108
1, 336458, Control_c, 0, 64, 107
1, 336473, Control_c, 0, 64, 107
1, 336488, Control_c, 0, 64, 106
1, 336502, Control_c, 0, 64, 102
1, 336517, Control_c, 0, 64, 97
1, 336529, Note_on_c, 0, 61, 67
1, 336532, Control_c, 0, 64, 89
1, 336547, Control_c, 0, 64, 81
1, 336552, Note_on_c, 0, 51, 44
1, 336552, Note_off_c, 0, 56, 40
1, 336562, Control_c, 0, 64, 76
1, 336576, Control_c, 0, 64, 71
1, 336586, Note_off_c, 0, 59, 32
1, 336591, Control_c, 0, 64, 66
1, 336606, Control_c, 0, 64, 64
1, 336636, Control_c, 0, 64, 65
1, 336650, Control_c, 0, 64, 65
1, 336665, Control_c, 0, 64, 66
1, 336688, Control_c, 0, 64, 67
1, 336703, Control_c, 0, 64, 68
1, 336717, Control_c, 0, 64, 70
1, 336733, Control_c, 0, 64, 71
1, 336748, Control_c, 0, 64, 73
1, 336763, Control_c, 0, 64, 75
1, 336778, Control_c, 0, 64, 77
1, 336793, Control_c, 0, 64, 79
1, 336807, Control_c, 0, 64, 83
1, 336822, Control_c, 0, 64, 88
1, 336837, Control_c, 0, 64, 95
1, 336852, Control_c, 0, 64, 104
1, 336867, Control_c, 0, 64, 119
1, 336881, Control_c, 0, 64, 127
1, 337014, Control_c, 0, 64, 107
1, 337020, Note_on_c, 0, 63, 75
1, 337029, Control_c, 0, 64, 92
1, 337032, Note_on_c, 0, 56, 41
1, 337044, Control_c, 0, 64, 82
1, 337059, Control_c, 0, 64, 75
1, 337074, Control_c, 0, 64, 70
1, 337088, Control_c, 0, 64, 66
1, 337091, Note_off_c, 0, 61, 42
1, 337103, Control_c, 0, 64, 65
1, 337109, Note_off_c, 0, 51, 28
1, 337118, Control_c, 0, 64, 65
1, 337133, Control_c, 0, 64, 66
1, 337148, Control_c, 0, 64, 67
1, 337163, Control_c, 0, 64, 68
1, 337178, Control_c, 0, 64, 70
1, 337193, Control_c, 0, 64, 72
1, 337207, Control_c, 0, 64, 74
1, 337222, Control_c, 0, 64, 76
1, 337237, Control_c, 0, 64, 79
1, 337252, Control_c, 0, 64, 84
1, 337267, Control_c, 0, 64, 92
1, 337281, Control_c, 0, 64, 105
1, 337296, Control_c, 0, 64, 127
1, 337376, Note_off_c, 0, 63, 59
1, 337556, Control_c, 0, 64, 101
1, 337565, Note_on_c, 0, 64, 61
1, 337569, Note_on_c, 0, 51, 37
1, 337571, Control_c, 0, 64, 84
1, 337586, Control_c, 0, 64, 73
1, 337601, Control_c, 0, 64, 66
1, 337616, Control_c, 0, 64, 60
1, 337630, Control_c, 0, 64, 57
1, 337639, Note_off_c, 0, 56, 37
1, 337645, Control_c, 0, 64, 59
1, 337660, Control_c, 0, 64, 60
1, 337675, Control_c, 0, 64, 61
1, 337675, Control_c, 0, 67, 105
1, 337690, Control_c, 0, 64, 63
1, 337704, Control_c, 0, 64, 64
1, 337719, Control_c, 0, 64, 65
1, 337734, Control_c, 0, 64, 66
1, 337749, Control_c, 0, 64, 68
1, 337763, Control_c, 0, 64, 71
1, 337778, Control_c, 0, 64, 76
1, 337793, Control_c, 0, 64, 82
1, 337808, Control_c, 0, 64, 91
1, 337823, Control_c, 0, 64, 100
1, 337837, Control_c, 0, 64, 109
1, 337852, Control_c, 0, 64, 117
1, 337867, Control_c, 0, 64, 119
1, 337881, Control_c, 0, 64, 121
1, 337896, Control_c, 0, 64, 123
1, 338043, Control_c, 0, 64, 121
1, 338058, Control_c, 0, 64, 119
1, 338072, Control_c, 0, 64, 118
1, 338082, Note_on_c, 0, 61, 44
1, 338087, Note_on_c, 0, 56, 32
1, 338087, Control_c, 0, 64, 117
1, 338146, Control_c, 0, 64, 116
1, 338161, Control_c, 0, 64, 115
1, 338184, Control_c, 0, 64, 114
1, 338199, Control_c, 0, 64, 113
1, 338206, Note_off_c, 0, 51, 35
1, 338218, Note_off_c, 0, 64, 37
1, 338243, Control_c, 0, 64, 113
1, 338273, Control_c, 0, 64, 112
1, 338317, Control_c, 0, 64, 111
1, 338333, Control_c, 0, 64, 111
1, 338348, Control_c, 0, 64, 110
1, 338363, Control_c, 0, 64, 110
1, 338392, Control_c, 0, 64, 109
1, 338407, Control_c, 0, 64, 108
1, 338422, Control_c, 0, 64, 107
1, 338437, Control_c, 0, 64, 107
1, 338466, Control_c, 0, 64, 106
1, 338481, Control_c, 0, 64, 105
1, 338496, Control_c, 0, 64, 104
1, 338511, Control_c, 0, 64, 103
1, 338525, Control_c, 0, 64, 101
1, 338540, Control_c, 0, 64, 99
1, 338555, Control_c, 0, 64, 96
1, 338570, Control_c, 0, 64, 91
1, 338582, Note_on_c, 0, 63, 54
1, 338585, Control_c, 0, 64, 85
1, 338600, Control_c, 0, 64, 80
1, 338604, Note_on_c, 0, 51, 39
1, 338614, Control_c, 0, 64, 76
1, 338630, Control_c, 0, 64, 72
1, 338645, Control_c, 0, 64, 68
1, 338659, Control_c, 0, 64, 66
1, 338664, Note_off_c, 0, 56, 34
1, 338674, Control_c, 0, 64, 66
1, 338685, Note_off_c, 0, 61, 28
1, 338689, Control_c, 0, 64, 66
1, 338704, Control_c, 0, 64, 67
1, 338719, Control_c, 0, 64, 67
1, 338734, Control_c, 0, 64, 68
1, 338749, Control_c, 0, 64, 69
1, 338763, Control_c, 0, 64, 71
1, 338778, Control_c, 0, 64, 73
1, 338793, Control_c, 0, 64, 75
1, 338808, Control_c, 0, 64, 77
1, 338808, Control_c, 0, 67, 105
1, 338823, Control_c, 0, 64, 79
1, 338838, Control_c, 0, 64, 81
1, 338852, Control_c, 0, 64, 85
1, 338867, Control_c, 0, 64, 90
1, 338882, Control_c, 0, 64, 95
1, 338896, Control_c, 0, 64, 99
1, 338911, Control_c, 0, 64, 100
1, 338948, Control_c, 0, 64, 100
1, 338963, Control_c, 0, 64, 102
1, 338978, Control_c, 0, 64, 102
1, 338993, Control_c, 0, 64, 103
1, 339052, Control_c, 0, 64, 102
1, 339078, Note_on_c, 0, 59, 43
1, 339098, Note_on_c, 0, 56, 35
1, 339111, Control_c, 0, 64, 102
1, 339129, Note_off_c, 0, 63, 25
1, 339157, Control_c, 0, 64, 101
1, 339180, Note_off_c, 0, 51, 25
1, 339201, Control_c, 0, 64, 101
1, 339231, Control_c, 0, 64, 100
1, 339275, Control_c, 0, 64, 100
1, 339290, Control_c, 0, 64, 99
1, 339320, Control_c, 0, 64, 99
1, 339364, Control_c, 0, 64, 98
1, 339379, Control_c, 0, 64, 98
1, 339438, Control_c, 0, 64, 97
1, 339453, Control_c, 0, 64, 97
1, 339468, Control_c, 0, 64, 96
1, 339482, Control_c, 0, 64, 95
1, 339497, Control_c, 0, 64, 93
1, 339512, Control_c, 0, 64, 91
1, 339527, Control_c, 0, 64, 86
1, 339541, Control_c, 0, 64, 82
1, 339552, Note_on_c, 0, 61, 53
1, 339556, Control_c, 0, 64, 77
1, 339562, Note_on_c, 0, 51, 39
1, 339571, Control_c, 0, 64, 74
1, 339586, Control_c, 0, 64, 71
1, 339601, Control_c, 0, 64, 69
1, 339616, Control_c, 0, 64, 67
1, 339631, Control_c, 0, 64, 67
1, 339635, Note_off_c, 0, 56, 31
1, 339646, Control_c, 0, 64, 67
1, 339661, Control_c, 0, 64, 68
1, 339682, Control_c, 0, 64, 68
1, 339697, Control_c, 0, 64, 69
1, 339709, Note_off_c, 0, 59, 19
1, 339712, Control_c, 0, 64, 70
1, 339726, Control_c, 0, 64, 71
1, 339741, Control_c, 0, 64, 73
1, 339756, Control_c, 0, 64, 74
1, 339771, Control_c, 0, 64, 76
1, 339786, Control_c, 0, 64, 77
1, 339801, Control_c, 0, 64, 79
1, 339816, Control_c, 0, 64, 81
1, 339831, Control_c, 0, 64, 83
1, 339846, Control_c, 0, 64, 84
1, 339860, Control_c, 0, 64, 86
1, 339875, Control_c, 0, 64, 88
1, 339890, Control_c, 0, 64, 90
1, 339905, Control_c, 0, 64, 91
1, 339965, Control_c, 0, 64, 92
1, 340054, Note_on_c, 0, 58, 57
1, 340069, Control_c, 0, 64, 91
1, 340085, Note_on_c, 0, 56, 35
1, 340099, Note_off_c, 0, 61, 30
1, 340113, Control_c, 0, 64, 91
1, 340172, Control_c, 0, 67, 105
1, 340198, Note_off_c, 0, 51, 22
1, 340231, Control_c, 0, 64, 90
1, 340337, Note_off_c, 0, 58, 38
1, 340349, Control_c, 0, 67, 104
1, 340476, Control_c, 0, 64, 90
1, 340491, Control_c, 0, 64, 89
1, 340505, Control_c, 0, 64, 86
1, 340520, Control_c, 0, 64, 82
1, 340535, Control_c, 0, 64, 76
1, 340549, Note_on_c, 0, 59, 64
1, 340549, Control_c, 0, 64, 70
1, 340564, Control_c, 0, 64, 66
1, 340568, Note_on_c, 0, 51, 40
1, 340579, Control_c, 0, 64, 62
1, 340594, Note_off_c, 0, 56, 38
1, 340594, Control_c, 0, 64, 60
1, 340624, Control_c, 0, 64, 61
1, 340638, Control_c, 0, 64, 62
1, 340653, Control_c, 0, 64, 64
1, 340668, Control_c, 0, 64, 65
1, 340683, Control_c, 0, 64, 66
1, 340698, Control_c, 0, 64, 67
1, 340713, Control_c, 0, 64, 69
1, 340728, Control_c, 0, 64, 71
1, 340743, Control_c, 0, 64, 74
1, 340758, Control_c, 0, 64, 77
1, 340773, Control_c, 0, 64, 82
1, 340787, Control_c, 0, 64, 90
1, 340802, Control_c, 0, 64, 104
1, 340817, Control_c, 0, 64, 127
1, 340995, Control_c, 0, 64, 105
1, 341010, Control_c, 0, 64, 88
1, 341025, Control_c, 0, 64, 78
1, 341026, Note_on_c, 0, 61, 58
1, 341032, Note_on_c, 0, 56, 36
1, 341040, Control_c, 0, 64, 71
1, 341044, Note_off_c, 0, 59, 38
1, 341054, Control_c, 0, 64, 65
1, 341069, Control_c, 0, 64, 61
1, 341073, Note_off_c, 0, 51, 37
1, 341084, Control_c, 0, 64, 61
1, 341099, Control_c, 0, 64, 61
1, 341114, Control_c, 0, 64, 62
1, 341128, Control_c, 0, 64, 63
1, 341143, Control_c, 0, 64, 64
1, 341158, Control_c, 0, 64, 65
1, 341180, Control_c, 0, 64, 66
1, 341195, Control_c, 0, 64, 67
1, 341210, Control_c, 0, 64, 69
1, 341225, Control_c, 0, 64, 71
1, 341240, Control_c, 0, 64, 73
1, 341254, Control_c, 0, 64, 75
1, 341269, Control_c, 0, 64, 77
1, 341284, Control_c, 0, 64, 82
1, 341298, Control_c, 0, 64, 88
1, 341313, Control_c, 0, 64, 91
1, 341343, Control_c, 0, 67, 105
1, 341358, Control_c, 0, 64, 92
1, 341387, Control_c, 0, 64, 91
1, 341402, Control_c, 0, 64, 91
1, 341432, Control_c, 0, 64, 90
1, 341446, Control_c, 0, 64, 89
1, 341461, Control_c, 0, 64, 87
1, 341476, Control_c, 0, 64, 85
1, 341491, Control_c, 0, 64, 80
1, 341506, Control_c, 0, 64, 75
1, 341513, Note_on_c, 0, 51, 36
1, 341522, Control_c, 0, 64, 70
1, 341537, Control_c, 0, 64, 67
1, 341546, Note_on_c, 0, 63, 40
1, 341551, Note_off_c, 0, 61, 33
1, 341551, Control_c, 0, 64, 64
1, 341554, Note_off_c, 0, 56, 38
1, 341566, Control_c, 0, 64, 61
1, 341581, Control_c, 0, 64, 59
1, 341595, Control_c, 0, 67, 105
1, 341610, Control_c, 0, 67, 106
1, 341625, Control_c, 0, 64, 60
1, 341640, Control_c, 0, 67, 107
1, 341655, Control_c, 0, 64, 60
1, 341669, Control_c, 0, 64, 61
1, 341669, Control_c, 0, 67, 107
1, 341684, Control_c, 0, 64, 61
1, 341699, Control_c, 0, 64, 62
1, 341699, Control_c, 0, 67, 108
1, 341714, Control_c, 0, 64, 63
1, 341714, Control_c, 0, 67, 109
1, 341729, Control_c, 0, 64, 64
1, 341729, Control_c, 0, 67, 109
1, 341743, Control_c, 0, 64, 65
1, 341743, Control_c, 0, 67, 110
1, 341758, Control_c, 0, 64, 67
1, 341773, Control_c, 0, 64, 68
1, 341788, Control_c, 0, 64, 70
1, 341802, Control_c, 0, 64, 73
1, 341817, Control_c, 0, 64, 76
1, 341832, Control_c, 0, 64, 80
1, 341847, Control_c, 0, 64, 83
1, 341862, Control_c, 0, 64, 85
1, 341876, Control_c, 0, 64, 87
1, 341891, Control_c, 0, 64, 92
1, 341906, Control_c, 0, 64, 99
1, 341928, Control_c, 0, 64, 108
1, 341943, Control_c, 0, 64, 116
1, 341958, Control_c, 0, 64, 127
1, 342075, Note_on_c, 0, 56, 28
1, 342078, Note_on_c, 0, 59, 30
1, 342178, Note_off_c, 0, 63, 37
1, 342198, Note_off_c, 0, 51, 34
1, 342358, Note_off_c, 0, 59, 34
1, 342404, Control_c, 0, 67, 109
1, 342582, Control_c, 0, 64, 111
1, 342597, Control_c, 0, 64, 88
1, 342612, Control_c, 0, 64, 76
1, 342613, Note_on_c, 0, 68, 71
1, 342618, Note_on_c, 0, 51, 38
1, 342626, Control_c, 0, 64, 67
1, 342631, Note_on_c, 0, 64, 55
1, 342641, Control_c, 0, 64, 61
1, 342650, Note_off_c, 0, 56, 40
1, 342656, Control_c, 0, 64, 58
1, 342678, Control_c, 0, 64, 60
1, 342693, Control_c, 0, 64, 62
1, 342707, Control_c, 0, 64, 63
1, 342722, Control_c, 0, 64, 64
1, 342737, Control_c, 0, 64, 66
1, 342752, Control_c, 0, 64, 68
1, 342767, Control_c, 0, 64, 70
1, 342782, Control_c, 0, 64, 72
1, 342797, Control_c, 0, 64, 77
1, 342812, Control_c, 0, 64, 85
1, 342826, Control_c, 0, 64, 99
1, 342841, Control_c, 0, 64, 127
1, 343097, Note_off_c, 0, 64, 48
1, 343211, Note_on_c, 0, 56, 31
1, 343211, Note_on_c, 0, 61, 35
1, 343260, Note_off_c, 0, 68, 36
1, 343367, Note_off_c, 0, 51, 28
1, 343491, Note_on_c, 0, 75, 76
1, 343505, Note_off_c, 0, 47, 38
1, 343510, Note_on_c, 0, 68, 51
1, 343524, Note_off_c, 0, 44, 37
1, 343595, Note_off_c, 0, 75, 59
1, 343597, Note_off_c, 0, 68, 54
1, 343753, Note_off_c, 0, 61, 9
1, 343798, Note_off_c, 0, 56, 37
1, 343827, Control_c, 0, 67, 110
1, 343860, Note_on_c, 0, 51, 42
1, 343866, Note_on_c, 0, 44, 34
1, 343871, Control_c, 0, 64, 114
1, 343873, Note_on_c, 0, 68, 67
1, 343876, Note_on_c, 0, 63, 61
1, 343879, Note_on_c, 0, 47, 35
1, 343886, Control_c, 0, 64, 94
1, 343900, Control_c, 0, 64, 79
1, 343917, Control_c, 0, 64, 68
1, 343932, Control_c, 0, 64, 59
1, 343946, Control_c, 0, 64, 47
1, 343961, Control_c, 0, 64, 43
1, 343976, Control_c, 0, 64, 46
1, 343990, Control_c, 0, 64, 48
1, 343990, Control_c, 0, 67, 110
1, 344005, Control_c, 0, 64, 51
1, 344020, Control_c, 0, 64, 53
1, 344035, Control_c, 0, 64, 56
1, 344050, Control_c, 0, 64, 58
1, 344065, Control_c, 0, 64, 61
1, 344079, Control_c, 0, 64, 63
1, 344094, Control_c, 0, 64, 64
1, 344109, Control_c, 0, 64, 66
1, 344124, Control_c, 0, 64, 68
1, 344138, Control_c, 0, 64, 72
1, 344153, Control_c, 0, 64, 79
1, 344176, Control_c, 0, 64, 91
1, 344191, Control_c, 0, 64, 113
1, 344205, Control_c, 0, 64, 127
1, 344236, Note_off_c, 0, 63, 34
1, 344493, Note_on_c, 0, 59, 47
1, 344520, Note_on_c, 0, 56, 31
1, 344588, Note_off_c, 0, 51, 36
1, 344679, Control_c, 0, 67, 110
1, 344984, Control_c, 0, 64, 105
1, 344989, Note_off_c, 0, 59, 40
1, 344996, Note_on_c, 0, 61, 63
1, 344999, Control_c, 0, 64, 88
1, 345014, Note_on_c, 0, 51, 39
1, 345014, Control_c, 0, 64, 75
1, 345028, Control_c, 0, 64, 68
1, 345043, Control_c, 0, 64, 64
1, 345056, Note_off_c, 0, 56, 39
1, 345058, Control_c, 0, 64, 63
1, 345073, Control_c, 0, 64, 63
1, 345088, Control_c, 0, 64, 64
1, 345102, Control_c, 0, 64, 65
1, 345117, Control_c, 0, 64, 66
1, 345132, Control_c, 0, 64, 67
1, 345147, Control_c, 0, 64, 69
1, 345162, Control_c, 0, 64, 71
1, 345176, Control_c, 0, 64, 74
1, 345191, Control_c, 0, 64, 77
1, 345206, Control_c, 0, 64, 81
1, 345220, Control_c, 0, 64, 84
1, 345235, Control_c, 0, 64, 89
1, 345250, Control_c, 0, 64, 96
1, 345265, Control_c, 0, 64, 110
1, 345280, Control_c, 0, 64, 127
1, 345352, Note_off_c, 0, 61, 61
1, 345510, Note_on_c, 0, 63, 61
1, 345517, Control_c, 0, 64, 116
1, 345525, Note_on_c, 0, 56, 36
1, 345532, Control_c, 0, 64, 93
1, 345547, Control_c, 0, 64, 79
1, 345562, Control_c, 0, 64, 71
1, 345577, Control_c, 0, 64, 66
1, 345606, Control_c, 0, 64, 67
1, 345621, Control_c, 0, 64, 68
1, 345629, Note_off_c, 0, 51, 34
1, 345635, Control_c, 0, 64, 69
1, 345650, Control_c, 0, 64, 71
1, 345673, Control_c, 0, 64, 74
1, 345688, Control_c, 0, 64, 77
1, 345703, Control_c, 0, 64, 81
1, 345717, Control_c, 0, 64, 85
1, 345732, Control_c, 0, 64, 91
1, 345747, Control_c, 0, 64, 100
1, 345762, Control_c, 0, 64, 127
1, 345836, Control_c, 0, 67, 109
1, 345970, Note_off_c, 0, 63, 58
1, 345998, Control_c, 0, 64, 99
1, 346004, Note_on_c, 0, 64, 62
1, 346009, Note_on_c, 0, 51, 40
1, 346013, Control_c, 0, 64, 83
1, 346028, Control_c, 0, 64, 72
1, 346043, Control_c, 0, 64, 64
1, 346058, Control_c, 0, 64, 62
1, 346064, Note_off_c, 0, 56, 40
1, 346073, Control_c, 0, 64, 63
1, 346088, Control_c, 0, 64, 64
1, 346102, Control_c, 0, 64, 64
1, 346117, Control_c, 0, 64, 65
1, 346117, Control_c, 0, 67, 110
1, 346132, Control_c, 0, 64, 67
1, 346147, Control_c, 0, 64, 68
1, 346147, Control_c, 0, 67, 110
1, 346162, Control_c, 0, 64, 70
1, 346177, Control_c, 0, 64, 73
1, 346192, Control_c, 0, 64, 77
1, 346192, Control_c, 0, 67, 111
1, 346207, Control_c, 0, 64, 80
1, 346207, Control_c, 0, 67, 112
1, 346222, Control_c, 0, 64, 85
1, 346222, Control_c, 0, 67, 113
1, 346236, Control_c, 0, 64, 94
1, 346251, Control_c, 0, 64, 111
1, 346251, Control_c, 0, 67, 114
1, 346266, Control_c, 0, 64, 127
1, 346356, Control_c, 0, 67, 114
1, 346530, Note_on_c, 0, 61, 48
1, 346550, Note_on_c, 0, 56, 30
1, 346578, Note_off_c, 0, 64, 37
1, 346650, Note_off_c, 0, 51, 37
1, 346861, Note_off_c, 0, 68, 29
1, 346920, Note_off_c, 0, 61, 38
1, 347015, Control_c, 0, 64, 121
1, 347029, Control_c, 0, 64, 105
1, 347044, Control_c, 0, 64, 94
1, 347045, Note_on_c, 0, 67, 59
1, 347059, Control_c, 0, 64, 84
1, 347059, Note_on_c, 0, 51, 38
1, 347060, Note_on_c, 0, 63, 49
1, 347074, Control_c, 0, 64, 77
1, 347089, Control_c, 0, 64, 70
1, 347104, Control_c, 0, 64, 65
1, 347118, Note_off_c, 0, 56, 38
1, 347119, Control_c, 0, 64, 63
1, 347134, Control_c, 0, 64, 64
1, 347149, Control_c, 0, 64, 64
1, 347171, Control_c, 0, 64, 65
1, 347186, Control_c, 0, 64, 66
1, 347201, Control_c, 0, 64, 68
1, 347215, Control_c, 0, 64, 69
1, 347230, Control_c, 0, 64, 71
1, 347245, Control_c, 0, 64, 74
1, 347260, Control_c, 0, 64, 77
1, 347275, Control_c, 0, 64, 80
1, 347289, Control_c, 0, 64, 83
1, 347304, Control_c, 0, 64, 86
1, 347319, Control_c, 0, 64, 91
1, 347334, Control_c, 0, 64, 96
1, 347349, Control_c, 0, 64, 101
1, 347363, Control_c, 0, 64, 104
1, 347378, Control_c, 0, 64, 106
1, 347393, Control_c, 0, 64, 107
1, 347408, Control_c, 0, 64, 110
1, 347423, Control_c, 0, 64, 113
1, 347438, Control_c, 0, 64, 115
1, 347542, Note_off_c, 0, 63, 31
1, 347571, Control_c, 0, 64, 114
1, 347586, Control_c, 0, 64, 113
1, 347605, Note_on_c, 0, 59, 47
1, 347615, Control_c, 0, 64, 113
1, 347625, Note_on_c, 0, 56, 33
1, 347645, Control_c, 0, 64, 112
1, 347689, Control_c, 0, 64, 111
1, 347719, Control_c, 0, 64, 110
1, 347734, Control_c, 0, 64, 110
1, 347749, Control_c, 0, 64, 109
1, 347752, Note_off_c, 0, 51, 34
1, 347763, Control_c, 0, 64, 108
1, 347793, Control_c, 0, 64, 108
1, 347867, Control_c, 0, 64, 107
1, 347920, Control_c, 0, 64, 107
1, 347935, Control_c, 0, 64, 106
1, 347950, Control_c, 0, 64, 106
1, 347965, Control_c, 0, 64, 105
1, 347980, Control_c, 0, 64, 104
1, 347994, Control_c, 0, 64, 103
1, 348009, Control_c, 0, 64, 102
1, 348019, Note_off_c, 0, 59, 38
1, 348024, Control_c, 0, 64, 101
1, 348038, Control_c, 0, 64, 101
1, 348053, Control_c, 0, 64, 100
1, 348068, Control_c, 0, 64, 99
1, 348083, Control_c, 0, 64, 97
1, 348098, Control_c, 0, 64, 92
1, 348112, Control_c, 0, 64, 87
1, 348127, Control_c, 0, 64, 80
1, 348141, Note_on_c, 0, 51, 39
1, 348142, Control_c, 0, 64, 74
1, 348157, Control_c, 0, 64, 68
1, 348162, Note_on_c, 0, 61, 35
1, 348168, Note_on_c, 0, 68, 51
1, 348172, Control_c, 0, 64, 64
1, 348174, Note_off_c, 0, 67, 60
1, 348180, Note_off_c, 0, 56, 38
1, 348186, Control_c, 0, 64, 60
1, 348216, Control_c, 0, 64, 61
1, 348231, Control_c, 0, 64, 62
1, 348246, Control_c, 0, 64, 63
1, 348261, Control_c, 0, 64, 64
1, 348276, Control_c, 0, 64, 66
1, 348290, Control_c, 0, 64, 67
1, 348305, Control_c, 0, 64, 69
1, 348320, Control_c, 0, 64, 72
1, 348335, Control_c, 0, 64, 75
1, 348350, Control_c, 0, 64, 78
1, 348362, Control_c, 0, 64, 81
1, 348377, Control_c, 0, 64, 86
1, 348392, Control_c, 0, 64, 94
1, 348407, Control_c, 0, 64, 105
1, 348422, Control_c, 0, 64, 127
1, 348705, Note_on_c, 0, 58, 46
1, 348709, Note_off_c, 0, 61, 36
1, 348726, Note_on_c, 0, 56, 30
1, 348831, Note_off_c, 0, 51, 34
1, 349075, Note_off_c, 0, 58, 34
1, 349127, Control_c, 0, 64, 119
1, 349141, Control_c, 0, 64, 108
1, 349156, Control_c, 0, 64, 97
1, 349159, Note_on_c, 0, 59, 51
1, 349171, Control_c, 0, 64, 85
1, 349181, Note_on_c, 0, 51, 38
1, 349185, Control_c, 0, 64, 76
1, 349200, Control_c, 0, 64, 69
1, 349215, Control_c, 0, 64, 66
1, 349230, Control_c, 0, 64, 67
1, 349236, Note_off_c, 0, 56, 36
1, 349245, Control_c, 0, 64, 67
1, 349259, Control_c, 0, 64, 68
1, 349274, Control_c, 0, 64, 69
1, 349289, Control_c, 0, 64, 71
1, 349304, Control_c, 0, 64, 73
1, 349319, Control_c, 0, 64, 76
1, 349334, Control_c, 0, 64, 79
1, 349349, Control_c, 0, 64, 82
1, 349364, Control_c, 0, 64, 85
1, 349378, Control_c, 0, 64, 88
1, 349393, Control_c, 0, 64, 93
1, 349415, Control_c, 0, 64, 97
1, 349430, Control_c, 0, 64, 102
1, 349445, Control_c, 0, 64, 108
1, 349459, Control_c, 0, 64, 117
1, 349474, Control_c, 0, 64, 127
1, 349490, Note_off_c, 0, 59, 58
1, 349691, Note_on_c, 0, 61, 57
1, 349704, Note_on_c, 0, 56, 34
1, 349834, Note_off_c, 0, 51, 32
1, 350054, Control_c, 0, 64, 123
1, 350069, Control_c, 0, 64, 118
1, 350083, Control_c, 0, 64, 113
1, 350098, Control_c, 0, 64, 106
1, 350113, Control_c, 0, 64, 97
1, 350128, Control_c, 0, 64, 87
1, 350141, Note_off_c, 0, 61, 62
1, 350143, Control_c, 0, 64, 76
1, 350148, Note_on_c, 0, 63, 60
1, 350165, Control_c, 0, 64, 69
1, 350174, Note_on_c, 0, 51, 38
1, 350180, Control_c, 0, 64, 63
1, 350195, Control_c, 0, 64, 60
1, 350209, Control_c, 0, 64, 61
1, 350224, Control_c, 0, 64, 62
1, 350239, Control_c, 0, 64, 64
1, 350254, Control_c, 0, 64, 65
1, 350256, Note_off_c, 0, 56, 37
1, 350269, Control_c, 0, 64, 66
1, 350283, Control_c, 0, 64, 68
1, 350298, Control_c, 0, 64, 71
1, 350314, Control_c, 0, 64, 73
1, 350329, Control_c, 0, 64, 77
1, 350344, Control_c, 0, 64, 81
1, 350359, Control_c, 0, 64, 86
1, 350374, Control_c, 0, 64, 93
1, 350388, Control_c, 0, 64, 103
1, 350403, Control_c, 0, 64, 127
1, 350428, Note_off_c, 0, 63, 61
1, 350610, Control_c, 0, 67, 115
1, 350625, Control_c, 0, 67, 115
1, 350632, Note_on_c, 0, 64, 64
1, 350654, Control_c, 0, 67, 116
1, 350657, Note_on_c, 0, 56, 43
1, 350669, Control_c, 0, 67, 117
1, 350684, Control_c, 0, 67, 117
1, 350699, Control_c, 0, 67, 118
1, 350714, Note_off_c, 0, 51, 37
1, 351034, Note_off_c, 0, 64, 22
1, 351077, Control_c, 0, 67, 119
1, 351092, Control_c, 0, 67, 120
1, 351107, Control_c, 0, 67, 120
1, 351122, Control_c, 0, 64, 117
1, 351122, Control_c, 0, 67, 121
1, 351137, Control_c, 0, 64, 99
1, 351137, Control_c, 0, 67, 122
1, 351152, Control_c, 0, 64, 84
1, 351152, Control_c, 0, 67, 122
1, 351167, Control_c, 0, 64, 72
1, 351167, Control_c, 0, 67, 123
1, 351173, Note_on_c, 0, 70, 76
1, 351178, Note_on_c, 0, 51, 39
1, 351182, Control_c, 0, 64, 64
1, 351182, Control_c, 0, 67, 127
1, 351188, Note_on_c, 0, 66, 52
1, 351197, Control_c, 0, 64, 61
1, 351202, Note_off_c, 0, 68, 50
1, 351209, Note_off_c, 0, 56, 34
1, 351211, Control_c, 0, 64, 62
1, 351226, Control_c, 0, 64, 63
1, 351241, Control_c, 0, 64, 65
1, 351255, Control_c, 0, 64, 67
1, 351270, Control_c, 0, 64, 69
1, 351285, Control_c, 0, 64, 72
1, 351300, Control_c, 0, 64, 75
1, 351315, Control_c, 0, 64, 79
1, 351329, Control_c, 0, 64, 83
1, 351344, Control_c, 0, 64, 90
1, 351359, Control_c, 0, 64, 103
1, 351374, Control_c, 0, 64, 127
1, 351703, Note_off_c, 0, 47, 29
1, 351721, Note_on_c, 0, 63, 60
1, 351732, Note_on_c, 0, 56, 41
1, 351733, Note_off_c, 0, 51, 33
1, 351755, Note_off_c, 0, 66, 38
1, 351852, Note_off_c, 0, 44, 40
1, 351873, Note_off_c, 0, 56, 37
1, 352025, Note_off_c, 0, 63, 57
1, 352232, Note_off_c, 0, 70, 60
1, 352485, Control_c, 0, 64, 121
1, 352487, Note_on_c, 0, 52, 50
1, 352488, Note_on_c, 0, 71, 71
1, 352491, Note_on_c, 0, 43, 44
1, 352499, Note_on_c, 0, 64, 54
1, 352499, Control_c, 0, 64, 105
1, 352501, Note_on_c, 0, 47, 43
1, 352514, Control_c, 0, 64, 94
1, 352529, Control_c, 0, 64, 83
1, 352544, Control_c, 0, 64, 74
1, 352559, Control_c, 0, 64, 66
1, 352574, Control_c, 0, 64, 57
1, 352589, Control_c, 0, 64, 52
1, 352604, Control_c, 0, 64, 54
1, 352618, Control_c, 0, 64, 57
1, 352633, Control_c, 0, 64, 59
1, 352648, Control_c, 0, 64, 60
1, 352663, Control_c, 0, 64, 62
1, 352678, Control_c, 0, 64, 63
1, 352692, Control_c, 0, 64, 64
1, 352708, Control_c, 0, 64, 65
1, 352723, Control_c, 0, 64, 67
1, 352738, Control_c, 0, 64, 69
1, 352753, Control_c, 0, 64, 72
1, 352768, Control_c, 0, 64, 74
1, 352782, Control_c, 0, 64, 77
1, 352797, Control_c, 0, 64, 81
1, 352812, Control_c, 0, 64, 87
1, 352827, Control_c, 0, 64, 94
1, 352842, Control_c, 0, 64, 104
1, 352856, Control_c, 0, 64, 114
1, 352871, Control_c, 0, 64, 127
1, 353226, Note_on_c, 0, 61, 47
1, 353239, Note_on_c, 0, 55, 36
1, 353334, Note_off_c, 0, 52, 39
1, 353360, Note_off_c, 0, 64, 38
1, 353766, Note_off_c, 0, 61, 37
1, 353777, Note_on_c, 0, 63, 49
1, 353797, Note_on_c, 0, 52, 36
1, 353847, Note_off_c, 0, 55, 37
1, 354126, Note_off_c, 0, 63, 60
1, 354243, Note_on_c, 0, 70, 72
1, 354258, Note_on_c, 0, 64, 59
1, 354297, Note_on_c, 0, 55, 37
1, 354338, Note_off_c, 0, 71, 49
1, 354340, Note_off_c, 0, 52, 39
1, 354458, Control_c, 0, 64, 123
1, 354473, Control_c, 0, 64, 121
1, 354488, Control_c, 0, 64, 119
1, 354503, Control_c, 0, 64, 118
1, 354518, Control_c, 0, 64, 117
1, 354532, Control_c, 0, 64, 116
1, 354547, Control_c, 0, 64, 115
1, 354562, Control_c, 0, 64, 114
1, 354577, Control_c, 0, 64, 113
1, 354592, Control_c, 0, 64, 113
1, 354607, Control_c, 0, 64, 111
1, 354621, Control_c, 0, 64, 111
1, 354636, Control_c, 0, 64, 110
1, 354658, Control_c, 0, 64, 108
1, 354673, Control_c, 0, 64, 107
1, 354687, Control_c, 0, 64, 103
1, 354702, Control_c, 0, 64, 97
1, 354717, Control_c, 0, 64, 87
1, 354732, Control_c, 0, 64, 79
1, 354747, Control_c, 0, 64, 72
1, 354762, Control_c, 0, 64, 66
1, 354769, Note_on_c, 0, 66, 48
1, 354773, Note_on_c, 0, 71, 71
1, 354777, Control_c, 0, 64, 63
1, 354789, Note_on_c, 0, 52, 36
1, 354792, Control_c, 0, 64, 63
1, 354807, Control_c, 0, 64, 64
1, 354822, Control_c, 0, 64, 65
1, 354830, Note_off_c, 0, 70, 51
1, 354834, Note_off_c, 0, 64, 32
1, 354836, Control_c, 0, 64, 66
1, 354839, Note_off_c, 0, 55, 41
1, 354851, Control_c, 0, 64, 67
1, 354866, Control_c, 0, 64, 69
1, 354880, Control_c, 0, 64, 71
1, 354895, Control_c, 0, 64, 74
1, 354910, Control_c, 0, 64, 77
1, 354925, Control_c, 0, 64, 81
1, 354940, Control_c, 0, 64, 84
1, 354954, Control_c, 0, 64, 87
1, 354969, Control_c, 0, 64, 91
1, 354984, Control_c, 0, 64, 96
1, 354998, Control_c, 0, 64, 101
1, 355013, Control_c, 0, 64, 107
1, 355028, Control_c, 0, 64, 114
1, 355043, Control_c, 0, 64, 127
1, 355272, Note_on_c, 0, 63, 55
1, 355303, Note_on_c, 0, 55, 31
1, 355378, Note_off_c, 0, 66, 28
1, 355379, Note_off_c, 0, 52, 41
1, 355733, Control_c, 0, 64, 115
1, 355748, Control_c, 0, 64, 102
1, 355763, Control_c, 0, 64, 92
1, 355777, Control_c, 0, 64, 82
1, 355779, Note_on_c, 0, 64, 50
1, 355787, Note_on_c, 0, 73, 75
1, 355792, Control_c, 0, 64, 74
1, 355798, Note_on_c, 0, 52, 38
1, 355807, Control_c, 0, 64, 68
1, 355821, Control_c, 0, 64, 65
1, 355830, Note_off_c, 0, 71, 56
1, 355836, Control_c, 0, 64, 65
1, 355850, Control_c, 0, 64, 66
1, 355856, Note_off_c, 0, 55, 39
1, 355865, Control_c, 0, 64, 66
1, 355880, Control_c, 0, 64, 67
1, 355894, Note_off_c, 0, 63, 28
1, 355896, Control_c, 0, 64, 69
1, 355911, Control_c, 0, 64, 72
1, 355925, Control_c, 0, 64, 75
1, 355940, Control_c, 0, 64, 80
1, 355955, Control_c, 0, 64, 84
1, 355970, Control_c, 0, 64, 89
1, 355985, Control_c, 0, 64, 94
1, 355999, Control_c, 0, 64, 102
1, 356014, Control_c, 0, 64, 121
1, 356029, Control_c, 0, 64, 127
1, 356335, Note_on_c, 0, 61, 49
1, 356360, Note_on_c, 0, 55, 35
1, 356362, Note_off_c, 0, 64, 36
1, 356440, Note_off_c, 0, 52, 31
1, 356572, Note_off_c, 0, 73, 56
1, 356762, Note_off_c, 0, 61, 36
1, 356838, Note_on_c, 0, 63, 48
1, 356840, Note_on_c, 0, 71, 63
1, 356848, Note_on_c, 0, 52, 39
1, 356852, Control_c, 0, 64, 104
1, 356866, Control_c, 0, 64, 87
1, 356881, Control_c, 0, 64, 75
1, 356904, Control_c, 0, 64, 68
1, 356919, Control_c, 0, 64, 64
1, 356934, Control_c, 0, 64, 64
1, 356948, Control_c, 0, 64, 65
1, 356963, Control_c, 0, 64, 66
1, 356974, Note_off_c, 0, 55, 39
1, 356978, Control_c, 0, 64, 67
1, 356993, Control_c, 0, 64, 70
1, 357008, Control_c, 0, 64, 73
1, 357023, Control_c, 0, 64, 78
1, 357037, Control_c, 0, 64, 83
1, 357052, Control_c, 0, 64, 89
1, 357067, Control_c, 0, 64, 95
1, 357081, Control_c, 0, 64, 103
1, 357096, Control_c, 0, 64, 116
1, 357111, Control_c, 0, 64, 127
1, 357376, Note_on_c, 0, 59, 44
1, 357400, Note_on_c, 0, 55, 36
1, 357491, Note_off_c, 0, 63, 36
1, 357520, Note_off_c, 0, 52, 40
1, 357846, Control_c, 0, 64, 113
1, 357861, Control_c, 0, 64, 97
1, 357876, Note_on_c, 0, 52, 38
1, 357876, Control_c, 0, 64, 82
1, 357880, Note_on_c, 0, 67, 57
1, 357888, Note_on_c, 0, 61, 43
1, 357891, Control_c, 0, 64, 72
1, 357905, Control_c, 0, 64, 66
1, 357918, Note_off_c, 0, 59, 31
1, 357920, Control_c, 0, 64, 63
1, 357935, Control_c, 0, 64, 64
1, 357937, Note_off_c, 0, 55, 39
1, 357950, Control_c, 0, 64, 64
1, 357965, Control_c, 0, 64, 65
1, 357979, Control_c, 0, 64, 67
1, 357994, Control_c, 0, 64, 69
1, 358009, Control_c, 0, 64, 71
1, 358023, Control_c, 0, 64, 74
1, 358038, Control_c, 0, 64, 77
1, 358053, Control_c, 0, 64, 82
1, 358068, Note_off_c, 0, 71, 30
1, 358068, Control_c, 0, 64, 86
1, 358083, Control_c, 0, 64, 90
1, 358098, Control_c, 0, 64, 95
1, 358112, Control_c, 0, 64, 101
1, 358127, Control_c, 0, 64, 108
1, 358142, Control_c, 0, 64, 116
1, 358157, Control_c, 0, 64, 127
1, 358402, Note_on_c, 0, 63, 52
1, 358404, Note_on_c, 0, 55, 36
1, 358484, Note_off_c, 0, 52, 40
1, 358533, Note_off_c, 0, 61, 27
1, 358714, Control_c, 0, 64, 123
1, 358728, Control_c, 0, 64, 121
1, 358743, Control_c, 0, 64, 118
1, 358758, Control_c, 0, 64, 115
1, 358773, Control_c, 0, 64, 113
1, 358780, Note_off_c, 0, 63, 35
1, 358788, Control_c, 0, 64, 111
1, 358802, Control_c, 0, 64, 109
1, 358817, Control_c, 0, 64, 106
1, 358832, Control_c, 0, 64, 102
1, 358845, Control_c, 0, 64, 97
1, 358860, Control_c, 0, 64, 90
1, 358875, Control_c, 0, 64, 81
1, 358890, Control_c, 0, 64, 73
1, 358905, Control_c, 0, 64, 68
1, 358919, Control_c, 0, 64, 65
1, 358923, Note_on_c, 0, 64, 44
1, 358930, Note_on_c, 0, 52, 31
1, 358934, Control_c, 0, 64, 65
1, 358949, Control_c, 0, 64, 65
1, 358959, Note_off_c, 0, 55, 38
1, 358964, Control_c, 0, 64, 66
1, 358979, Control_c, 0, 64, 66
1, 358993, Control_c, 0, 64, 68
1, 359008, Control_c, 0, 64, 70
1, 359023, Control_c, 0, 64, 72
1, 359038, Control_c, 0, 64, 76
1, 359052, Control_c, 0, 64, 79
1, 359067, Control_c, 0, 64, 83
1, 359082, Control_c, 0, 64, 88
1, 359098, Control_c, 0, 64, 93
1, 359113, Control_c, 0, 64, 100
1, 359128, Control_c, 0, 64, 108
1, 359150, Control_c, 0, 64, 121
1, 359165, Control_c, 0, 64, 127
1, 359451, Note_off_c, 0, 64, 33
1, 359467, Note_on_c, 0, 61, 30
1, 359497, Note_on_c, 0, 55, 28
1, 359579, Control_c, 0, 64, 123
1, 359594, Control_c, 0, 64, 119
1, 359604, Note_off_c, 0, 52, 38
1, 359609, Control_c, 0, 64, 117
1, 359624, Control_c, 0, 64, 115
1, 359639, Control_c, 0, 64, 113
1, 359641, Note_off_c, 0, 67, 40
1, 359654, Control_c, 0, 64, 111
1, 359667, Note_off_c, 0, 61, 40
1, 359668, Control_c, 0, 64, 110
1, 359683, Control_c, 0, 64, 108
1, 359698, Control_c, 0, 64, 107
1, 359713, Control_c, 0, 64, 106
1, 359728, Control_c, 0, 64, 105
1, 359742, Control_c, 0, 64, 104
1, 359757, Control_c, 0, 64, 104
1, 359787, Control_c, 0, 64, 103
1, 359802, Control_c, 0, 64, 102
1, 359816, Control_c, 0, 64, 102
1, 359831, Control_c, 0, 64, 101
1, 359846, Control_c, 0, 64, 101
1, 359861, Control_c, 0, 64, 99
1, 359875, Control_c, 0, 64, 99
1, 359898, Control_c, 0, 64, 98
1, 359913, Control_c, 0, 64, 98
1, 359928, Control_c, 0, 64, 97
1, 359943, Control_c, 0, 64, 97
1, 359958, Control_c, 0, 64, 96
1, 359973, Control_c, 0, 64, 95
1, 359987, Control_c, 0, 64, 94
1, 360002, Control_c, 0, 64, 93
1, 360017, Control_c, 0, 64, 91
1, 360032, Control_c, 0, 64, 89
1, 360047, Control_c, 0, 64, 86
1, 360062, Control_c, 0, 64, 82
1, 360077, Control_c, 0, 64, 77
1, 360091, Control_c, 0, 64, 72
1, 360106, Control_c, 0, 64, 67
1, 360112, Note_on_c, 0, 69, 49
1, 360119, Note_on_c, 0, 52, 32
1, 360121, Control_c, 0, 64, 66
1, 360125, Note_on_c, 0, 66, 36
1, 360135, Note_off_c, 0, 55, 40
1, 360151, Control_c, 0, 64, 67
1, 360166, Control_c, 0, 64, 67
1, 360180, Control_c, 0, 64, 69
1, 360195, Control_c, 0, 64, 72
1, 360210, Control_c, 0, 64, 76
1, 360225, Control_c, 0, 64, 80
1, 360239, Control_c, 0, 64, 85
1, 360254, Control_c, 0, 64, 91
1, 360269, Control_c, 0, 64, 96
1, 360284, Control_c, 0, 64, 101
1, 360298, Control_c, 0, 64, 110
1, 360313, Control_c, 0, 64, 127
1, 360649, Note_on_c, 0, 62, 37
1, 360661, Note_on_c, 0, 55, 34
1, 360677, Note_off_c, 0, 52, 40
1, 360721, Note_off_c, 0, 66, 39
1, 360804, Note_off_c, 0, 47, 37
1, 360810, Note_off_c, 0, 43, 38
1, 360945, Note_off_c, 0, 62, 36
1, 360953, Note_off_c, 0, 69, 41
1, 361108, Control_c, 0, 64, 119
1, 361118, Note_off_c, 0, 55, 39
1, 361122, Control_c, 0, 64, 104
1, 361137, Control_c, 0, 64, 91
1, 361152, Control_c, 0, 64, 81
1, 361167, Control_c, 0, 64, 73
1, 361182, Control_c, 0, 64, 68
1, 361189, Note_on_c, 0, 71, 62
1, 361196, Control_c, 0, 64, 64
1, 361197, Note_on_c, 0, 52, 35
1, 361203, Note_on_c, 0, 64, 46
1, 361211, Control_c, 0, 64, 63
1, 361213, Note_on_c, 0, 43, 22
1, 361226, Control_c, 0, 64, 63
1, 361234, Note_on_c, 0, 47, 19
1, 361241, Control_c, 0, 64, 64
1, 361256, Control_c, 0, 64, 65
1, 361270, Control_c, 0, 64, 67
1, 361285, Control_c, 0, 64, 69
1, 361300, Control_c, 0, 64, 72
1, 361314, Control_c, 0, 64, 77
1, 361329, Control_c, 0, 64, 81
1, 361344, Control_c, 0, 64, 86
1, 361359, Control_c, 0, 64, 92
1, 361374, Control_c, 0, 64, 97
1, 361396, Control_c, 0, 64, 104
1, 361411, Control_c, 0, 64, 119
1, 361426, Control_c, 0, 64, 127
1, 361725, Note_off_c, 0, 64, 43
1, 361769, Note_on_c, 0, 61, 39
1, 361773, Note_on_c, 0, 55, 33
1, 361872, Note_off_c, 0, 52, 38
1, 361949, Note_off_c, 0, 71, 22
1, 361968, Note_off_c, 0, 61, 26
1, 362108, Note_on_c, 0, 62, 31
1, 362212, Note_off_c, 0, 62, 52
1, 362635, Note_on_c, 0, 52, 29
1, 362658, Note_on_c, 0, 83, 59
1, 362728, Note_off_c, 0, 55, 34
1, 362904, Note_off_c, 0, 83, 50
1, 363299, Note_on_c, 0, 64, 38
1, 363300, Note_on_c, 0, 55, 25
1, 363383, Note_off_c, 0, 52, 31
1, 363449, Note_off_c, 0, 64, 35
1, 363827, Note_on_c, 0, 52, 27
1, 363839, Note_on_c, 0, 78, 63
1, 363875, Note_on_c, 0, 66, 28
1, 363886, Note_off_c, 0, 55, 35
1, 363978, Note_off_c, 0, 78, 54
1, 364056, Note_off_c, 0, 66, 30
1, 364417, Note_on_c, 0, 76, 57
1, 364449, Note_on_c, 0, 62, 31
1, 364457, Note_on_c, 0, 55, 27
1, 364504, Note_off_c, 0, 52, 33
1, 364588, Note_off_c, 0, 76, 52
1, 364596, Note_off_c, 0, 62, 33
1, 364946, Note_on_c, 0, 52, 33
1, 364948, Note_on_c, 0, 74, 58
1, 364974, Note_on_c, 0, 64, 37
1, 364983, Note_off_c, 0, 55, 34
1, 365157, Note_off_c, 0, 74, 37
1, 365159, Note_off_c, 0, 64, 29
1, 365540, Note_on_c, 0, 73, 51
1, 365541, Note_on_c, 0, 61, 44
1, 365544, Note_on_c, 0, 55, 20
1, 365595, Note_off_c, 0, 52, 32
1, 365623, Note_off_c, 0, 73, 52
1, 365642, Note_off_c, 0, 61, 43
1, 366179, Note_on_c, 0, 71, 58
1, 366182, Note_on_c, 0, 52, 26
1, 366185, Note_on_c, 0, 62, 47
1, 366259, Note_off_c, 0, 55, 34
1, 366463, Note_off_c, 0, 62, 34
1, 366805, Note_on_c, 0, 59, 44
1, 366837, Note_on_c, 0, 55, 29
1, 366927, Note_off_c, 0, 52, 36
1, 367028, Note_off_c, 0, 59, 54
1, 367303, Note_on_c, 0, 52, 30
1, 367308, Note_off_c, 0, 55, 38
1, 367317, Note_on_c, 0, 67, 56
1, 367324, Note_on_c, 0, 61, 51
1, 367455, Note_off_c, 0, 71, 31
1, 367610, Note_off_c, 0, 61, 57
1, 367868, Note_on_c, 0, 62, 54
1, 367876, Note_on_c, 0, 55, 37
1, 367978, Note_off_c, 0, 52, 32
1, 368224, Control_c, 0, 64, 123
1, 368240, Note_off_c, 0, 62, 36
1, 368298, Control_c, 0, 64, 121
1, 368313, Control_c, 0, 64, 118
1, 368328, Control_c, 0, 64, 117
1, 368343, Control_c, 0, 64, 115
1, 368358, Control_c, 0, 64, 112
1, 368373, Control_c, 0, 64, 108
1, 368387, Control_c, 0, 64, 102
1, 368398, Note_on_c, 0, 52, 39
1, 368402, Control_c, 0, 64, 94
1, 368406, Note_on_c, 0, 64, 57
1, 368417, Control_c, 0, 64, 87
1, 368432, Control_c, 0, 64, 79
1, 368447, Control_c, 0, 64, 73
1, 368454, Note_off_c, 0, 55, 26
1, 368461, Control_c, 0, 64, 68
1, 368476, Control_c, 0, 64, 67
1, 368491, Control_c, 0, 64, 69
1, 368505, Control_c, 0, 64, 71
1, 368520, Control_c, 0, 64, 74
1, 368535, Control_c, 0, 64, 78
1, 368550, Control_c, 0, 64, 83
1, 368565, Control_c, 0, 64, 89
1, 368581, Control_c, 0, 64, 96
1, 368595, Control_c, 0, 64, 104
1, 368610, Control_c, 0, 64, 121
1, 368625, Control_c, 0, 64, 127
1, 368920, Note_on_c, 0, 66, 58
1, 368930, Note_on_c, 0, 55, 34
1, 368940, Note_off_c, 0, 64, 39
1, 368958, Note_off_c, 0, 67, 38
1, 368991, Note_off_c, 0, 52, 35
1, 369064, Note_off_c, 0, 66, 59
1, 369403, Control_c, 0, 64, 114
1, 369418, Control_c, 0, 64, 106
1, 369433, Control_c, 0, 64, 100
1, 369448, Control_c, 0, 64, 96
1, 369451, Note_on_c, 0, 72, 70
1, 369452, Note_on_c, 0, 52, 38
1, 369463, Note_on_c, 0, 67, 56
1, 369463, Control_c, 0, 64, 92
1, 369479, Control_c, 0, 64, 88
1, 369494, Control_c, 0, 64, 82
1, 369508, Control_c, 0, 64, 76
1, 369511, Note_off_c, 0, 55, 38
1, 369523, Control_c, 0, 64, 70
1, 369538, Control_c, 0, 64, 66
1, 369552, Control_c, 0, 64, 63
1, 369567, Control_c, 0, 64, 58
1, 369582, Control_c, 0, 64, 49
1, 369597, Control_c, 0, 64, 26
1, 369612, Control_c, 0, 64, 0
1, 369886, Control_c, 0, 64, 34
1, 369900, Control_c, 0, 64, 47
1, 369915, Control_c, 0, 64, 54
1, 369930, Control_c, 0, 64, 58
1, 369945, Control_c, 0, 64, 60
1, 369959, Control_c, 0, 64, 61
1, 369974, Control_c, 0, 64, 63
1, 369989, Control_c, 0, 64, 65
1, 370004, Control_c, 0, 64, 66
1, 370019, Control_c, 0, 64, 68
1, 370033, Control_c, 0, 64, 70
1, 370048, Control_c, 0, 64, 73
1, 370063, Note_on_c, 0, 55, 34
1, 370063, Control_c, 0, 64, 78
1, 370068, Note_on_c, 0, 64, 46
1, 370077, Control_c, 0, 64, 83
1, 370089, Note_off_c, 0, 52, 37
1, 370092, Control_c, 0, 64, 89
1, 370106, Control_c, 0, 64, 96
1, 370121, Control_c, 0, 64, 107
1, 370130, Note_off_c, 0, 67, 33
1, 370136, Control_c, 0, 64, 127
1, 370190, Note_off_c, 0, 47, 31
1, 370236, Note_off_c, 0, 43, 34
1, 370328, Note_off_c, 0, 55, 40
1, 370336, Note_off_c, 0, 72, 33
1, 370354, Note_off_c, 0, 64, 35
1, 370811, Control_c, 0, 64, 106
1, 370811, Note_on_c, 0, 74, 63
1, 370822, Note_on_c, 0, 41, 38
1, 370823, Note_on_c, 0, 65, 50
1, 370826, Control_c, 0, 64, 95
1, 370831, Note_on_c, 0, 50, 42
1, 370837, Note_on_c, 0, 45, 35
1, 370841, Control_c, 0, 64, 85
1, 370855, Control_c, 0, 64, 75
1, 370870, Control_c, 0, 64, 67
1, 370885, Control_c, 0, 64, 61
1, 370900, Control_c, 0, 64, 53
1, 370915, Control_c, 0, 64, 50
1, 370944, Control_c, 0, 64, 51
1, 370959, Control_c, 0, 64, 51
1, 370973, Control_c, 0, 64, 52
1, 370988, Control_c, 0, 64, 54
1, 371003, Control_c, 0, 64, 56
1, 371018, Control_c, 0, 64, 58
1, 371033, Control_c, 0, 64, 59
1, 371047, Control_c, 0, 64, 60
1, 371062, Control_c, 0, 64, 62
1, 371078, Control_c, 0, 64, 64
1, 371093, Control_c, 0, 64, 66
1, 371108, Control_c, 0, 64, 69
1, 371130, Control_c, 0, 64, 74
1, 371145, Control_c, 0, 64, 79
1, 371160, Control_c, 0, 64, 84
1, 371175, Control_c, 0, 64, 90
1, 371190, Control_c, 0, 64, 96
1, 371204, Control_c, 0, 64, 104
1, 371219, Control_c, 0, 64, 117
1, 371234, Control_c, 0, 64, 127
1, 371511, Note_off_c, 0, 65, 38
1, 371536, Note_on_c, 0, 53, 37
1, 371544, Note_on_c, 0, 62, 43
1, 371655, Note_off_c, 0, 50, 36
1, 372007, Note_off_c, 0, 62, 34
1, 372065, Note_on_c, 0, 64, 49
1, 372081, Note_on_c, 0, 50, 27
1, 372084, Note_off_c, 0, 53, 39
1, 372320, Note_off_c, 0, 64, 49
1, 372532, Note_off_c, 0, 74, 46
1, 372559, Note_on_c, 0, 71, 60
1, 372575, Note_on_c, 0, 65, 49
1, 372584, Note_on_c, 0, 57, 30
1, 372673, Note_off_c, 0, 50, 32
1, 373040, Note_off_c, 0, 65, 36
1, 373072, Control_c, 0, 64, 110
1, 373087, Control_c, 0, 64, 101
1, 373094, Note_on_c, 0, 72, 64
1, 373095, Note_on_c, 0, 67, 45
1, 373102, Control_c, 0, 64, 94
1, 373108, Note_on_c, 0, 50, 32
1, 373117, Control_c, 0, 64, 87
1, 373131, Control_c, 0, 64, 80
1, 373145, Note_off_c, 0, 71, 53
1, 373146, Control_c, 0, 64, 73
1, 373161, Control_c, 0, 64, 67
1, 373175, Control_c, 0, 64, 64
1, 373190, Control_c, 0, 64, 63
1, 373205, Control_c, 0, 64, 64
1, 373211, Note_off_c, 0, 57, 36
1, 373220, Control_c, 0, 64, 64
1, 373235, Control_c, 0, 64, 65
1, 373250, Control_c, 0, 64, 66
1, 373264, Control_c, 0, 64, 68
1, 373279, Control_c, 0, 64, 70
1, 373294, Control_c, 0, 64, 72
1, 373309, Control_c, 0, 64, 74
1, 373324, Control_c, 0, 64, 79
1, 373339, Control_c, 0, 64, 86
1, 373354, Control_c, 0, 64, 97
1, 373375, Control_c, 0, 64, 119
1, 373390, Control_c, 0, 64, 127
1, 373479, Note_off_c, 0, 72, 59
1, 373583, Note_off_c, 0, 67, 36
1, 373610, Note_on_c, 0, 72, 69
1, 373634, Note_on_c, 0, 53, 36
1, 373638, Note_on_c, 0, 64, 51
1, 373753, Note_off_c, 0, 50, 34
1, 374124, Control_c, 0, 64, 102
1, 374132, Note_off_c, 0, 64, 37
1, 374139, Control_c, 0, 64, 91
1, 374144, Note_on_c, 0, 65, 56
1, 374147, Note_on_c, 0, 74, 71
1, 374154, Control_c, 0, 64, 83
1, 374165, Note_off_c, 0, 72, 53
1, 374169, Control_c, 0, 64, 75
1, 374171, Note_on_c, 0, 50, 38
1, 374184, Control_c, 0, 64, 69
1, 374196, Note_off_c, 0, 53, 41
1, 374198, Control_c, 0, 64, 65
1, 374213, Control_c, 0, 64, 64
1, 374228, Control_c, 0, 64, 65
1, 374243, Control_c, 0, 64, 65
1, 374258, Control_c, 0, 64, 66
1, 374274, Control_c, 0, 64, 68
1, 374289, Control_c, 0, 64, 69
1, 374303, Control_c, 0, 64, 71
1, 374318, Control_c, 0, 64, 73
1, 374333, Control_c, 0, 64, 75
1, 374348, Control_c, 0, 64, 77
1, 374363, Control_c, 0, 64, 81
1, 374377, Control_c, 0, 64, 88
1, 374392, Control_c, 0, 64, 97
1, 374407, Control_c, 0, 64, 112
1, 374421, Control_c, 0, 64, 127
1, 374501, Note_off_c, 0, 74, 61
1, 374537, Note_off_c, 0, 65, 56
1, 374642, Note_off_c, 0, 41, 23
1, 374651, Note_on_c, 0, 74, 69
1, 374659, Note_on_c, 0, 62, 59
1, 374663, Note_on_c, 0, 57, 40
1, 374841, Note_off_c, 0, 50, 27
1, 374855, Note_off_c, 0, 57, 37
1, 374885, Note_off_c, 0, 45, 39
1, 375002, Note_off_c, 0, 62, 55
1, 375156, Control_c, 0, 64, 115
1, 375170, Control_c, 0, 64, 100
1, 375185, Control_c, 0, 64, 89
1, 375200, Control_c, 0, 64, 79
1, 375202, Note_on_c, 0, 76, 71
1, 375208, Note_on_c, 0, 50, 45
1, 375210, Note_on_c, 0, 45, 34
1, 375215, Note_on_c, 0, 64, 55
1, 375215, Control_c, 0, 64, 70
1, 375220, Note_on_c, 0, 41, 37
1, 375220, Note_off_c, 0, 74, 55
1, 375230, Control_c, 0, 64, 64
1, 375244, Control_c, 0, 64, 57
1, 375259, Control_c, 0, 64, 54
1, 375274, Control_c, 0, 64, 56
1, 375289, Control_c, 0, 64, 58
1, 375304, Control_c, 0, 64, 59
1, 375318, Control_c, 0, 64, 61
1, 375333, Control_c, 0, 64, 63
1, 375348, Control_c, 0, 64, 64
1, 375363, Control_c, 0, 64, 66
1, 375378, Control_c, 0, 64, 68
1, 375393, Control_c, 0, 64, 70
1, 375408, Control_c, 0, 64, 75
1, 375423, Control_c, 0, 64, 84
1, 375437, Control_c, 0, 64, 100
1, 375452, Control_c, 0, 64, 127
1, 375505, Note_off_c, 0, 76, 43
1, 375553, Note_off_c, 0, 64, 55
1, 375826, Note_on_c, 0, 69, 63
1, 375828, Note_on_c, 0, 60, 53
1, 375831, Note_on_c, 0, 53, 36
1, 375831, Note_off_c, 0, 50, 36
1, 376172, Note_off_c, 0, 60, 54
1, 376305, Control_c, 0, 64, 119
1, 376320, Control_c, 0, 64, 110
1, 376334, Control_c, 0, 64, 101
1, 376349, Control_c, 0, 64, 94
1, 376356, Note_on_c, 0, 74, 60
1, 376371, Control_c, 0, 64, 87
1, 376374, Note_on_c, 0, 50, 36
1, 376383, Note_on_c, 0, 62, 46
1, 376386, Control_c, 0, 64, 80
1, 376389, Note_off_c, 0, 53, 38
1, 376400, Control_c, 0, 64, 73
1, 376415, Control_c, 0, 64, 66
1, 376425, Note_off_c, 0, 69, 39
1, 376430, Control_c, 0, 64, 60
1, 376445, Control_c, 0, 64, 58
1, 376460, Control_c, 0, 64, 59
1, 376475, Control_c, 0, 64, 60
1, 376490, Control_c, 0, 64, 62
1, 376505, Control_c, 0, 64, 63
1, 376520, Control_c, 0, 64, 64
1, 376534, Control_c, 0, 64, 66
1, 376549, Control_c, 0, 64, 67
1, 376564, Control_c, 0, 64, 70
1, 376579, Control_c, 0, 64, 72
1, 376593, Control_c, 0, 64, 77
1, 376608, Control_c, 0, 64, 84
1, 376623, Control_c, 0, 64, 94
1, 376638, Control_c, 0, 64, 110
1, 376653, Control_c, 0, 64, 127
1, 376670, Note_off_c, 0, 62, 58
1, 376869, Note_on_c, 0, 64, 58
1, 376870, Note_on_c, 0, 57, 42
1, 376986, Note_off_c, 0, 50, 35
1, 377196, Note_off_c, 0, 64, 48
1, 377428, Note_on_c, 0, 65, 58
1, 377454, Note_on_c, 0, 50, 30
1, 377488, Note_off_c, 0, 57, 40
1, 377699, Control_c, 0, 64, 123
1, 377728, Control_c, 0, 64, 119
1, 377743, Control_c, 0, 64, 118
1, 377758, Control_c, 0, 64, 117
1, 377760, Note_off_c, 0, 65, 64
1, 377773, Control_c, 0, 64, 116
1, 377787, Control_c, 0, 64, 115
1, 377802, Control_c, 0, 64, 114
1, 377817, Control_c, 0, 64, 113
1, 377942, Note_on_c, 0, 67, 69
1, 377958, Control_c, 0, 64, 113
1, 377968, Note_on_c, 0, 53, 43
1, 378087, Note_off_c, 0, 50, 33
1, 378106, Control_c, 0, 64, 112
1, 378180, Control_c, 0, 64, 111
1, 378239, Control_c, 0, 64, 111
1, 378284, Control_c, 0, 64, 110
1, 378314, Control_c, 0, 64, 109
1, 378323, Note_off_c, 0, 74, 59
1, 378329, Control_c, 0, 64, 108
1, 378361, Note_off_c, 0, 67, 60
1, 378389, Control_c, 0, 64, 108
1, 378404, Control_c, 0, 64, 107
1, 378418, Control_c, 0, 64, 106
1, 378433, Control_c, 0, 64, 103
1, 378448, Control_c, 0, 64, 98
1, 378462, Control_c, 0, 64, 89
1, 378477, Control_c, 0, 64, 80
1, 378483, Note_on_c, 0, 72, 71
1, 378492, Control_c, 0, 64, 73
1, 378494, Note_on_c, 0, 50, 45
1, 378497, Note_on_c, 0, 69, 64
1, 378505, Note_off_c, 0, 53, 38
1, 378507, Control_c, 0, 64, 66
1, 378522, Control_c, 0, 64, 60
1, 378536, Control_c, 0, 64, 56
1, 378551, Control_c, 0, 64, 57
1, 378566, Control_c, 0, 64, 59
1, 378581, Control_c, 0, 64, 60
1, 378595, Control_c, 0, 64, 62
1, 378618, Control_c, 0, 64, 63
1, 378633, Control_c, 0, 64, 65
1, 378648, Control_c, 0, 64, 67
1, 378663, Control_c, 0, 64, 70
1, 378677, Control_c, 0, 64, 75
1, 378692, Control_c, 0, 64, 85
1, 378707, Control_c, 0, 64, 100
1, 378722, Control_c, 0, 64, 127
1, 378833, Note_off_c, 0, 41, 41
1, 379015, Note_on_c, 0, 65, 65
1, 379035, Note_on_c, 0, 57, 57
1, 379043, Note_off_c, 0, 69, 56
1, 379068, Note_off_c, 0, 50, 35
1, 379104, Note_off_c, 0, 45, 20
1, 379181, Note_off_c, 0, 57, 56
1, 379256, Control_c, 0, 67, 124
1, 379271, Control_c, 0, 67, 121
1, 379285, Control_c, 0, 67, 119
1, 379300, Control_c, 0, 67, 118
1, 379315, Control_c, 0, 67, 116
1, 379330, Control_c, 0, 67, 115
1, 379345, Control_c, 0, 67, 114
1, 379366, Control_c, 0, 67, 114
1, 379426, Control_c, 0, 67, 113
1, 379455, Note_off_c, 0, 65, 33
1, 379618, Control_c, 0, 64, 118
1, 379633, Control_c, 0, 64, 97
1, 379644, Note_on_c, 0, 40, 45
1, 379648, Control_c, 0, 64, 84
1, 379658, Note_on_c, 0, 50, 46
1, 379661, Note_on_c, 0, 74, 67
1, 379661, Note_on_c, 0, 46, 42
1, 379663, Control_c, 0, 64, 72
1, 379667, Note_on_c, 0, 67, 51
1, 379678, Control_c, 0, 64, 63
1, 379678, Control_c, 0, 67, 112
1, 379686, Note_off_c, 0, 72, 56
1, 379692, Control_c, 0, 64, 53
1, 379707, Control_c, 0, 64, 48
1, 379722, Control_c, 0, 64, 51
1, 379722, Control_c, 0, 67, 112
1, 379737, Control_c, 0, 64, 54
1, 379752, Control_c, 0, 64, 56
1, 379766, Control_c, 0, 64, 58
1, 379766, Control_c, 0, 67, 111
1, 379781, Control_c, 0, 64, 60
1, 379781, Control_c, 0, 67, 110
1, 379796, Control_c, 0, 64, 61
1, 379796, Control_c, 0, 67, 109
1, 379810, Control_c, 0, 64, 63
1, 379810, Control_c, 0, 67, 103
1, 379825, Control_c, 0, 64, 64
1, 379825, Control_c, 0, 67, 85
1, 379840, Control_c, 0, 64, 66
1, 379840, Control_c, 0, 67, 66
1, 379856, Control_c, 0, 64, 70
1, 379856, Control_c, 0, 67, 48
1, 379871, Control_c, 0, 64, 76
1, 379871, Control_c, 0, 67, 31
1, 379886, Control_c, 0, 64, 87
1, 379886, Control_c, 0, 67, 16
1, 379901, Control_c, 0, 64, 101
1, 379901, Control_c, 0, 67, 0
1, 379915, Control_c, 0, 64, 127
1, 380037, Note_off_c, 0, 40, 42
1, 380303, Note_on_c, 0, 55, 35
1, 380305, Note_on_c, 0, 64, 40
1, 380335, Note_off_c, 0, 50, 28
1, 380499, Note_off_c, 0, 67, 35
1, 380827, Note_on_c, 0, 65, 50
1, 380836, Note_on_c, 0, 50, 34
1, 380922, Note_off_c, 0, 55, 41
1, 380969, Note_off_c, 0, 64, 36
1, 381140, Note_off_c, 0, 65, 60
1, 381348, Note_on_c, 0, 72, 63
1, 381359, Note_on_c, 0, 67, 57
1, 381365, Note_on_c, 0, 58, 39
1, 381487, Note_off_c, 0, 74, 32
1, 381533, Note_off_c, 0, 50, 26
1, 381551, Note_off_c, 0, 58, 37
1, 381839, Note_off_c, 0, 67, 36
1, 381887, Note_on_c, 0, 69, 48
1, 381899, Note_on_c, 0, 74, 62
1, 381924, Note_on_c, 0, 50, 36
1, 381984, Note_off_c, 0, 72, 57
1, 382311, Note_off_c, 0, 74, 58
1, 382451, Note_on_c, 0, 74, 62
1, 382467, Note_on_c, 0, 55, 39
1, 382471, Note_on_c, 0, 65, 54
1, 382527, Note_off_c, 0, 50, 39
1, 382562, Note_off_c, 0, 69, 41
1, 382946, Note_on_c, 0, 67, 45
1, 382967, Note_on_c, 0, 76, 70
1, 382980, Note_on_c, 0, 50, 41
1, 383035, Note_off_c, 0, 74, 48
1, 383054, Note_off_c, 0, 55, 33
1, 383068, Note_off_c, 0, 65, 17
1, 383307, Note_off_c, 0, 76, 59
1, 383364, Note_off_c, 0, 67, 61
1, 383510, Note_on_c, 0, 76, 75
1, 383514, Poly_aftertouch_c, 0, 74, 127
1, 383516, Note_on_c, 0, 64, 56
1, 383526, Note_on_c, 0, 58, 48
1, 383553, Poly_aftertouch_c, 0, 74, 0
1, 383609, Note_off_c, 0, 50, 30
1, 383638, Note_off_c, 0, 58, 54
1, 383745, Note_off_c, 0, 46, 40
1, 383787, Note_off_c, 0, 64, 36
1, 384036, Control_c, 0, 64, 119
1, 384051, Control_c, 0, 64, 90
1, 384066, Control_c, 0, 64, 76
1, 384079, Note_on_c, 0, 77, 71
1, 384080, Control_c, 0, 64, 66
1, 384084, Note_on_c, 0, 46, 42
1, 384087, Note_on_c, 0, 40, 48
1, 384095, Control_c, 0, 64, 59
1, 384097, Note_on_c, 0, 65, 56
1, 384100, Note_on_c, 0, 50, 44
1, 384110, Control_c, 0, 64, 53
1, 384125, Control_c, 0, 64, 54
1, 384130, Note_off_c, 0, 76, 56
1, 384140, Control_c, 0, 64, 57
1, 384154, Control_c, 0, 64, 60
1, 384169, Control_c, 0, 64, 63
1, 384184, Control_c, 0, 64, 65
1, 384199, Control_c, 0, 64, 67
1, 384214, Control_c, 0, 64, 71
1, 384228, Control_c, 0, 64, 77
1, 384243, Control_c, 0, 64, 83
1, 384258, Control_c, 0, 64, 91
1, 384273, Control_c, 0, 64, 103
1, 384288, Control_c, 0, 64, 127
1, 384327, Note_off_c, 0, 40, 34
1, 384332, Note_off_c, 0, 77, 53
1, 384401, Note_off_c, 0, 65, 55
1, 384610, Note_off_c, 0, 50, 29
1, 384622, Note_on_c, 0, 55, 38
1, 384646, Note_on_c, 0, 70, 66
1, 384669, Note_on_c, 0, 62, 52
1, 384926, Note_off_c, 0, 62, 38
1, 385160, Note_on_c, 0, 76, 59
1, 385173, Note_on_c, 0, 64, 48
1, 385179, Note_on_c, 0, 50, 36
1, 385188, Note_off_c, 0, 55, 41
1, 385228, Note_off_c, 0, 70, 51
1, 385532, Note_off_c, 0, 64, 37
1, 385691, Note_on_c, 0, 65, 51
1, 385695, Note_on_c, 0, 58, 44
1, 385804, Note_off_c, 0, 50, 32
1, 385970, Note_off_c, 0, 58, 35
1, 386004, Note_off_c, 0, 65, 33
1, 386245, Note_on_c, 0, 67, 41
1, 386246, Note_on_c, 0, 50, 37
1, 386765, Note_off_c, 0, 67, 35
1, 386795, Note_on_c, 0, 55, 35
1, 386798, Note_on_c, 0, 69, 45
1, 386860, Note_off_c, 0, 76, 40
1, 386950, Note_off_c, 0, 55, 34
1, 386966, Note_off_c, 0, 46, 39
1, 387057, Note_off_c, 0, 69, 34
1, 387243, Note_off_c, 0, 50, 28
1, 387328, Control_c, 0, 64, 95
1, 387341, Note_on_c, 0, 71, 75
1, 387343, Control_c, 0, 64, 79
1, 387347, Note_on_c, 0, 55, 53
1, 387348, Note_on_c, 0, 47, 50
1, 387358, Control_c, 0, 64, 69
1, 387372, Control_c, 0, 64, 64
1, 387387, Control_c, 0, 64, 62
1, 387432, Control_c, 0, 64, 63
1, 387446, Control_c, 0, 64, 64
1, 387461, Control_c, 0, 64, 65
1, 387476, Control_c, 0, 64, 67
1, 387491, Control_c, 0, 64, 71
1, 387505, Control_c, 0, 64, 75
1, 387520, Control_c, 0, 64, 79
1, 387535, Control_c, 0, 64, 84
1, 387550, Control_c, 0, 64, 90
1, 387565, Control_c, 0, 64, 98
1, 387579, Control_c, 0, 64, 114
1, 387602, Control_c, 0, 64, 127
1, 387626, Note_off_c, 0, 55, 49
1, 387814, Note_off_c, 0, 71, 55
1, 387841, Note_off_c, 0, 47, 59
1, 387881, Note_on_c, 0, 68, 68
1, 387884, Control_c, 0, 64, 94
1, 387892, Note_on_c, 0, 54, 57
1, 387895, Note_on_c, 0, 46, 53
1, 387899, Control_c, 0, 64, 78
1, 387914, Control_c, 0, 64, 68
1, 387928, Control_c, 0, 64, 63
1, 387943, Control_c, 0, 64, 61
1, 387958, Control_c, 0, 64, 61
1, 387973, Control_c, 0, 64, 62
1, 387988, Control_c, 0, 64, 63
1, 388002, Control_c, 0, 64, 64
1, 388017, Control_c, 0, 64, 66
1, 388032, Control_c, 0, 64, 68
1, 388048, Control_c, 0, 64, 72
1, 388063, Control_c, 0, 64, 76
1, 388077, Control_c, 0, 64, 81
1, 388092, Control_c, 0, 64, 87
1, 388107, Control_c, 0, 64, 95
1, 388121, Control_c, 0, 64, 107
1, 388127, Note_off_c, 0, 46, 57
1, 388136, Control_c, 0, 64, 127
1, 388217, Note_off_c, 0, 54, 53
1, 388410, Control_c, 0, 64, 102
1, 388416, Note_on_c, 0, 70, 74
1, 388419, Note_on_c, 0, 53, 65
1, 388425, Control_c, 0, 64, 78
1, 388428, Note_on_c, 0, 39, 57
1, 388430, Note_on_c, 0, 45, 48
1, 388440, Control_c, 0, 64, 67
1, 388455, Control_c, 0, 64, 62
1, 388470, Control_c, 0, 64, 62
1, 388473, Note_off_c, 0, 68, 40
1, 388485, Control_c, 0, 64, 63
1, 388500, Control_c, 0, 64, 64
1, 388515, Control_c, 0, 64, 66
1, 388529, Control_c, 0, 64, 69
1, 388544, Control_c, 0, 64, 73
1, 388559, Control_c, 0, 64, 78
1, 388574, Control_c, 0, 64, 84
1, 388589, Control_c, 0, 64, 92
1, 388603, Control_c, 0, 64, 105
1, 388618, Control_c, 0, 64, 127
1, 388693, Note_off_c, 0, 53, 37
1, 388787, Note_off_c, 0, 39, 53
1, 388842, Poly_aftertouch_c, 0, 69, 127
1, 388891, Poly_aftertouch_c, 0, 69, 0
1, 388925, Note_on_c, 0, 44, 53
1, 388930, Note_off_c, 0, 45, 34
1, 388930, Note_off_c, 0, 70, 65
1, 388930, Control_c, 0, 64, 95
1, 388932, Note_on_c, 0, 52, 56
1, 388933, Note_on_c, 0, 67, 70
1, 388944, Control_c, 0, 64, 79
1, 388959, Control_c, 0, 64, 70
1, 388974, Control_c, 0, 64, 66
1, 388989, Control_c, 0, 64, 67
1, 389004, Control_c, 0, 64, 69
1, 389019, Control_c, 0, 64, 71
1, 389033, Control_c, 0, 64, 74
1, 389048, Control_c, 0, 64, 77
1, 389063, Control_c, 0, 64, 82
1, 389075, Note_off_c, 0, 44, 61
1, 389078, Control_c, 0, 64, 89
1, 389100, Control_c, 0, 64, 96
1, 389115, Control_c, 0, 64, 105
1, 389130, Control_c, 0, 64, 127
1, 389147, Note_off_c, 0, 52, 56
1, 389292, Note_off_c, 0, 67, 53
1, 389491, Note_on_c, 0, 59, 52
1, 389509, Note_on_c, 0, 51, 49
1, 389531, Control_c, 0, 64, 99
1, 389545, Note_on_c, 0, 75, 86
1, 389546, Control_c, 0, 64, 77
1, 389561, Control_c, 0, 64, 66
1, 389567, Note_on_c, 0, 68, 59
1, 389575, Control_c, 0, 64, 60
1, 389590, Control_c, 0, 64, 56
1, 389605, Control_c, 0, 64, 57
1, 389620, Control_c, 0, 64, 57
1, 389635, Control_c, 0, 64, 60
1, 389649, Control_c, 0, 64, 62
1, 389664, Control_c, 0, 64, 64
1, 389679, Control_c, 0, 64, 67
1, 389693, Control_c, 0, 64, 71
1, 389708, Control_c, 0, 64, 76
1, 389723, Control_c, 0, 64, 83
1, 389738, Control_c, 0, 64, 90
1, 389753, Control_c, 0, 64, 97
1, 389767, Control_c, 0, 64, 109
1, 389782, Control_c, 0, 64, 127
1, 389940, Note_off_c, 0, 68, 36
1, 390080, Note_off_c, 0, 59, 58
1, 390101, Note_on_c, 0, 56, 50
1, 390101, Note_off_c, 0, 51, 36
1, 390104, Note_on_c, 0, 63, 49
1, 390112, Note_on_c, 0, 70, 63
1, 390253, Note_off_c, 0, 75, 56
1, 390420, Note_on_c, 0, 80, 86
1, 390432, Note_on_c, 0, 75, 75
1, 390510, Note_off_c, 0, 75, 62
1, 390542, Note_off_c, 0, 80, 65
1, 390578, Note_off_c, 0, 70, 40
1, 390626, Note_off_c, 0, 63, 52
1, 390637, Note_on_c, 0, 51, 57
1, 390643, Note_on_c, 0, 59, 54
1, 390649, Note_on_c, 0, 75, 87
1, 390658, Control_c, 0, 64, 96
1, 390661, Note_off_c, 0, 56, 35
1, 390667, Note_on_c, 0, 71, 70
1, 390672, Control_c, 0, 64, 76
1, 390687, Control_c, 0, 64, 65
1, 390702, Control_c, 0, 64, 58
1, 390717, Control_c, 0, 64, 55
1, 390731, Control_c, 0, 64, 56
1, 390746, Control_c, 0, 64, 57
1, 390761, Control_c, 0, 64, 58
1, 390776, Control_c, 0, 64, 61
1, 390791, Control_c, 0, 64, 63
1, 390805, Control_c, 0, 64, 65
1, 390820, Control_c, 0, 64, 67
1, 390835, Control_c, 0, 64, 71
1, 390849, Control_c, 0, 64, 76
1, 390864, Control_c, 0, 64, 80
1, 390879, Control_c, 0, 64, 84
1, 390894, Control_c, 0, 64, 88
1, 390909, Control_c, 0, 64, 95
1, 390923, Control_c, 0, 64, 106
1, 390938, Control_c, 0, 64, 127
1, 391131, Note_off_c, 0, 51, 60
1, 391143, Note_off_c, 0, 59, 60
1, 391150, Note_on_c, 0, 68, 77
1, 391155, Note_on_c, 0, 63, 57
1, 391158, Note_on_c, 0, 56, 56
1, 391183, Note_off_c, 0, 71, 56
1, 391260, Note_off_c, 0, 63, 62
1, 391351, Note_off_c, 0, 56, 63
1, 391526, Note_off_c, 0, 68, 56
1, 391612, Note_off_c, 0, 75, 55
1, 391677, Note_on_c, 0, 76, 82
1, 391682, Note_on_c, 0, 70, 68
1, 391687, Note_on_c, 0, 39, 64
1, 391699, Note_on_c, 0, 47, 60
1, 391712, Poly_aftertouch_c, 0, 74, 0
1, 391731, Control_c, 0, 64, 98
1, 391745, Control_c, 0, 64, 78
1, 391760, Control_c, 0, 64, 66
1, 391775, Control_c, 0, 64, 56
1, 391791, Control_c, 0, 64, 52
1, 391806, Control_c, 0, 64, 53
1, 391820, Control_c, 0, 64, 55
1, 391835, Control_c, 0, 64, 57
1, 391850, Control_c, 0, 64, 60
1, 391865, Control_c, 0, 64, 63
1, 391880, Control_c, 0, 64, 65
1, 391895, Control_c, 0, 64, 67
1, 391910, Control_c, 0, 64, 71
1, 391925, Control_c, 0, 64, 75
1, 391940, Control_c, 0, 64, 80
1, 391955, Control_c, 0, 64, 85
1, 391969, Control_c, 0, 64, 91
1, 391984, Control_c, 0, 64, 98
1, 391999, Control_c, 0, 64, 109
1, 392014, Control_c, 0, 64, 127
1, 392193, Note_on_c, 0, 51, 65
1, 392193, Note_off_c, 0, 47, 58
1, 392196, Note_on_c, 0, 67, 67
1, 392208, Note_on_c, 0, 44, 60
1, 392232, Note_off_c, 0, 70, 40
1, 392259, Note_off_c, 0, 39, 57
1, 392506, Note_off_c, 0, 76, 52
1, 392607, Note_off_c, 0, 67, 58
1, 392668, Note_on_c, 0, 47, 55
1, 392672, Note_on_c, 0, 77, 84
1, 392673, Note_on_c, 0, 39, 57
1, 392673, Control_c, 0, 64, 105
1, 392676, Note_off_c, 0, 51, 37
1, 392679, Note_on_c, 0, 68, 71
1, 392688, Control_c, 0, 64, 84
1, 392703, Control_c, 0, 64, 69
1, 392709, Note_off_c, 0, 44, 37
1, 392718, Control_c, 0, 64, 62
1, 392733, Control_c, 0, 64, 56
1, 392763, Control_c, 0, 64, 57
1, 392777, Control_c, 0, 64, 59
1, 392792, Control_c, 0, 64, 62
1, 392807, Control_c, 0, 64, 64
1, 392822, Control_c, 0, 64, 66
1, 392844, Control_c, 0, 64, 70
1, 392859, Control_c, 0, 64, 75
1, 392873, Control_c, 0, 64, 80
1, 392888, Control_c, 0, 64, 87
1, 392903, Control_c, 0, 64, 92
1, 392918, Control_c, 0, 64, 99
1, 392932, Control_c, 0, 64, 109
1, 392947, Control_c, 0, 64, 127
1, 393180, Note_on_c, 0, 44, 58
1, 393182, Note_off_c, 0, 47, 56
1, 393186, Note_on_c, 0, 65, 72
1, 393189, Note_on_c, 0, 51, 57
1, 393228, Note_off_c, 0, 39, 32
1, 393233, Note_off_c, 0, 68, 53
1, 393324, Note_off_c, 0, 44, 59
1, 393376, Note_off_c, 0, 51, 59
1, 393552, Note_off_c, 0, 65, 38
1, 393690, Note_on_c, 0, 59, 64
1, 393690, Note_on_c, 0, 51, 59
1, 393691, Note_on_c, 0, 67, 74
1, 393889, Note_off_c, 0, 77, 44
1, 394125, Control_c, 0, 64, 102
1, 394140, Control_c, 0, 64, 82
1, 394146, Note_on_c, 0, 76, 83
1, 394154, Note_on_c, 0, 68, 73
1, 394155, Control_c, 0, 64, 69
1, 394158, Note_on_c, 0, 63, 67
1, 394163, Note_off_c, 0, 59, 62
1, 394170, Control_c, 0, 64, 62
1, 394172, Note_on_c, 0, 56, 58
1, 394184, Control_c, 0, 64, 56
1, 394186, Note_off_c, 0, 51, 55
1, 394199, Control_c, 0, 64, 58
1, 394214, Control_c, 0, 64, 60
1, 394217, Note_off_c, 0, 67, 44
1, 394229, Control_c, 0, 64, 62
1, 394244, Control_c, 0, 64, 63
1, 394259, Control_c, 0, 64, 65
1, 394274, Control_c, 0, 64, 68
1, 394289, Control_c, 0, 64, 72
1, 394304, Control_c, 0, 64, 78
1, 394319, Control_c, 0, 64, 84
1, 394341, Control_c, 0, 64, 90
1, 394356, Control_c, 0, 64, 98
1, 394370, Control_c, 0, 64, 113
1, 394385, Control_c, 0, 64, 127
1, 394405, Note_off_c, 0, 68, 60
1, 394468, Note_off_c, 0, 63, 50
1, 394494, Poly_aftertouch_c, 0, 67, 127
1, 394589, Poly_aftertouch_c, 0, 67, 0
1, 394614, Note_off_c, 0, 76, 58
1, 394623, Control_c, 0, 64, 104
1, 394629, Note_on_c, 0, 77, 79
1, 394634, Note_on_c, 0, 51, 61
1, 394635, Note_on_c, 0, 70, 69
1, 394637, Control_c, 0, 64, 83
1, 394642, Note_on_c, 0, 62, 54
1, 394652, Control_c, 0, 64, 70
1, 394667, Control_c, 0, 64, 61
1, 394682, Control_c, 0, 64, 55
1, 394708, Note_off_c, 0, 56, 29
1, 394711, Control_c, 0, 64, 57
1, 394726, Control_c, 0, 64, 59
1, 394741, Control_c, 0, 64, 61
1, 394756, Control_c, 0, 64, 63
1, 394770, Control_c, 0, 64, 65
1, 394785, Control_c, 0, 64, 67
1, 394800, Control_c, 0, 64, 70
1, 394815, Control_c, 0, 64, 74
1, 394830, Control_c, 0, 64, 78
1, 394844, Control_c, 0, 64, 83
1, 394859, Control_c, 0, 64, 88
1, 394867, Note_off_c, 0, 62, 50
1, 394874, Control_c, 0, 64, 94
1, 394888, Control_c, 0, 64, 104
1, 394903, Control_c, 0, 64, 127
1, 394987, Poly_aftertouch_c, 0, 56, 127
1, 395090, Note_off_c, 0, 51, 53
1, 395144, Note_on_c, 0, 63, 62
1, 395149, Note_on_c, 0, 59, 52
1, 395150, Note_on_c, 0, 67, 72
1, 395156, Note_off_c, 0, 77, 57
1, 395241, Poly_aftertouch_c, 0, 56, 0
1, 395243, Note_off_c, 0, 70, 32
1, 395250, Note_off_c, 0, 63, 55
1, 395284, Note_off_c, 0, 59, 58
1, 395495, Note_off_c, 0, 67, 54
1, 395730, Note_on_c, 0, 47, 74
1, 395731, Note_on_c, 0, 55, 73
1, 395734, Note_on_c, 0, 71, 85
1, 395742, Control_c, 0, 64, 107
1, 395757, Control_c, 0, 64, 78
1, 395772, Control_c, 0, 64, 63
1, 395786, Control_c, 0, 64, 56
1, 395801, Control_c, 0, 64, 54
1, 395816, Control_c, 0, 64, 53
1, 395839, Control_c, 0, 64, 52
1, 395854, Control_c, 0, 64, 54
1, 395869, Control_c, 0, 64, 57
1, 395884, Control_c, 0, 64, 61
1, 395898, Control_c, 0, 64, 64
1, 395913, Control_c, 0, 64, 67
1, 395928, Control_c, 0, 64, 72
1, 395943, Control_c, 0, 64, 78
1, 395958, Control_c, 0, 64, 88
1, 395973, Control_c, 0, 64, 107
1, 395988, Control_c, 0, 64, 127
1, 396024, Note_off_c, 0, 55, 58
1, 396206, Note_off_c, 0, 47, 63
1, 396220, Note_on_c, 0, 46, 75
1, 396220, Note_on_c, 0, 68, 86
1, 396222, Note_on_c, 0, 54, 83
1, 396224, Control_c, 0, 64, 92
1, 396239, Control_c, 0, 64, 68
1, 396254, Control_c, 0, 64, 57
1, 396269, Control_c, 0, 64, 49
1, 396283, Control_c, 0, 64, 50
1, 396298, Control_c, 0, 64, 51
1, 396313, Control_c, 0, 64, 54
1, 396328, Control_c, 0, 64, 59
1, 396343, Control_c, 0, 64, 63
1, 396357, Control_c, 0, 64, 66
1, 396372, Control_c, 0, 64, 69
1, 396387, Control_c, 0, 64, 75
1, 396399, Note_off_c, 0, 71, 18
1, 396402, Control_c, 0, 64, 83
1, 396417, Control_c, 0, 64, 92
1, 396432, Control_c, 0, 64, 107
1, 396447, Control_c, 0, 64, 127
1, 396459, Note_off_c, 0, 46, 60
1, 396559, Note_off_c, 0, 54, 57
1, 396639, Note_off_c, 0, 68, 58
1, 396763, Note_on_c, 0, 53, 72
1, 396766, Note_on_c, 0, 45, 56
1, 396773, Note_on_c, 0, 70, 87
1, 396779, Note_on_c, 0, 39, 66
1, 396781, Control_c, 0, 64, 89
1, 396796, Control_c, 0, 64, 66
1, 396805, Note_on_c, 0, 52, 37
1, 396811, Control_c, 0, 64, 53
1, 396825, Control_c, 0, 64, 44
1, 396838, Note_off_c, 0, 52, 35
1, 396840, Control_c, 0, 64, 44
1, 396855, Control_c, 0, 64, 46
1, 396870, Control_c, 0, 64, 50
1, 396885, Control_c, 0, 64, 57
1, 396900, Control_c, 0, 64, 62
1, 396914, Control_c, 0, 64, 66
1, 396929, Control_c, 0, 64, 70
1, 396944, Control_c, 0, 64, 78
1, 396958, Control_c, 0, 64, 89
1, 396973, Control_c, 0, 64, 104
1, 396983, Note_off_c, 0, 53, 50
1, 396988, Control_c, 0, 64, 127
1, 397131, Note_off_c, 0, 39, 58
1, 397207, Note_off_c, 0, 45, 55
1, 397261, Note_off_c, 0, 70, 52
1, 397265, Note_on_c, 0, 67, 81
1, 397268, Note_on_c, 0, 44, 71
1, 397270, Note_on_c, 0, 52, 74
1, 397358, Note_off_c, 0, 44, 62
1, 397399, Note_off_c, 0, 52, 64
1, 397434, Note_off_c, 0, 67, 61
1, 397813, Note_on_c, 0, 51, 74
1, 397817, Note_on_c, 0, 59, 77
1, 397821, Note_on_c, 0, 77, 93
1, 397824, Note_on_c, 0, 75, 73
1, 397827, Note_on_c, 0, 68, 83
1, 397831, Note_on_c, 0, 78, 61
1, 397832, Note_off_c, 0, 78, 127
1, 397840, Control_c, 0, 64, 78
1, 397854, Control_c, 0, 64, 59
1, 397869, Control_c, 0, 64, 0
1, 398003, Control_c, 0, 64, 35
1, 398018, Control_c, 0, 64, 58
1, 398033, Control_c, 0, 64, 64
1, 398048, Control_c, 0, 64, 69
1, 398062, Control_c, 0, 64, 74
1, 398084, Control_c, 0, 64, 85
1, 398099, Control_c, 0, 64, 107
1, 398113, Control_c, 0, 64, 127
1, 398208, Note_off_c, 0, 68, 53
1, 398355, Note_off_c, 0, 75, 59
1, 398367, Note_on_c, 0, 56, 64
1, 398373, Note_on_c, 0, 63, 75
1, 398376, Note_off_c, 0, 51, 41
1, 398386, Note_on_c, 0, 70, 79
1, 398387, Note_off_c, 0, 59, 58
1, 398404, Note_off_c, 0, 77, 61
1, 398545, Note_off_c, 0, 70, 62
1, 398668, Note_on_c, 0, 83, 91
1, 398680, Note_on_c, 0, 77, 82
1, 398683, Note_on_c, 0, 75, 73
1, 398765, Note_off_c, 0, 83, 61
1, 398784, Note_off_c, 0, 75, 61
1, 398792, Note_off_c, 0, 77, 61
1, 398823, Note_off_c, 0, 63, 59
1, 398835, Note_off_c, 0, 56, 55
1, 398854, Note_on_c, 0, 77, 91
1, 398855, Note_on_c, 0, 51, 78
1, 398863, Note_on_c, 0, 59, 72
1, 398863, Control_c, 0, 64, 111
1, 398865, Note_on_c, 0, 71, 85
1, 398870, Note_on_c, 0, 75, 76
1, 398878, Control_c, 0, 64, 74
1, 398892, Control_c, 0, 64, 52
1, 398907, Control_c, 0, 64, 0
1, 398966, Control_c, 0, 64, 24
1, 398981, Control_c, 0, 64, 43
1, 398996, Control_c, 0, 64, 52
1, 399010, Control_c, 0, 64, 57
1, 399025, Control_c, 0, 64, 61
1, 399041, Control_c, 0, 64, 64
1, 399056, Control_c, 0, 64, 67
1, 399071, Control_c, 0, 64, 74
1, 399076, Note_off_c, 0, 71, 50
1, 399086, Control_c, 0, 64, 89
1, 399101, Control_c, 0, 64, 127
1, 399291, Note_off_c, 0, 75, 48
1, 399334, Note_on_c, 0, 68, 88
1, 399344, Note_on_c, 0, 63, 75
1, 399347, Note_on_c, 0, 56, 72
1, 399350, Note_off_c, 0, 51, 62
1, 399353, Note_off_c, 0, 59, 62
1, 399437, Note_off_c, 0, 63, 61
1, 399534, Note_off_c, 0, 56, 63
1, 399598, Note_off_c, 0, 68, 53
1, 399828, Note_off_c, 0, 77, 60
1, 399857, Note_on_c, 0, 79, 86
1, 399867, Note_on_c, 0, 39, 77
1, 399867, Note_on_c, 0, 70, 80
1, 399867, Note_on_c, 0, 76, 71
1, 399872, Note_on_c, 0, 47, 76
1, 399910, Control_c, 0, 64, 86
1, 399925, Control_c, 0, 64, 68
1, 399939, Control_c, 0, 64, 54
1, 399954, Control_c, 0, 64, 32
1, 399969, Control_c, 0, 64, 32
1, 399983, Control_c, 0, 64, 38
1, 399998, Control_c, 0, 64, 46
1, 400013, Control_c, 0, 64, 53
1, 400028, Control_c, 0, 64, 58
1, 400043, Control_c, 0, 64, 61
1, 400057, Control_c, 0, 64, 64
1, 400072, Control_c, 0, 64, 67
1, 400087, Control_c, 0, 64, 70
1, 400102, Control_c, 0, 64, 76
1, 400117, Control_c, 0, 64, 85
1, 400131, Control_c, 0, 64, 110
1, 400146, Control_c, 0, 64, 127
1, 400160, Note_off_c, 0, 70, 61
1, 400356, Note_on_c, 0, 51, 77
1, 400357, Note_off_c, 0, 47, 59
1, 400361, Note_on_c, 0, 67, 86
1, 400368, Note_on_c, 0, 44, 67
1, 400368, Note_off_c, 0, 39, 61
1, 400540, Note_off_c, 0, 79, 59
1, 400588, Note_off_c, 0, 67, 61
1, 400608, Note_off_c, 0, 76, 9
1, 400724, Note_off_c, 0, 51, 26
1, 400814, Note_on_c, 0, 80, 89
1, 400816, Note_on_c, 0, 39, 70
1, 400816, Note_on_c, 0, 68, 89
1, 400816, Note_on_c, 0, 77, 85
1, 400823, Note_on_c, 0, 47, 69
1, 400836, Control_c, 0, 64, 107
1, 400851, Control_c, 0, 64, 76
1, 400866, Control_c, 0, 64, 62
1, 400874, Note_off_c, 0, 44, 26
1, 400880, Control_c, 0, 64, 39
1, 400895, Control_c, 0, 64, 26
1, 400910, Control_c, 0, 64, 32
1, 400925, Control_c, 0, 64, 39
1, 400940, Control_c, 0, 64, 49
1, 400954, Control_c, 0, 64, 57
1, 400969, Control_c, 0, 64, 62
1, 400984, Control_c, 0, 64, 66
1, 400999, Control_c, 0, 64, 72
1, 401014, Control_c, 0, 64, 81
1, 401029, Control_c, 0, 64, 110
1, 401043, Control_c, 0, 64, 127
1, 401170, Note_off_c, 0, 68, 60
1, 401179, Note_off_c, 0, 80, 63
1, 401257, Note_off_c, 0, 77, 43
1, 401298, Poly_aftertouch_c, 0, 79, 0
1, 401300, Note_off_c, 0, 47, 61
1, 401303, Note_on_c, 0, 44, 62
1, 401306, Note_on_c, 0, 51, 72
1, 401307, Note_on_c, 0, 65, 86
1, 401311, Note_off_c, 0, 39, 60
1, 401362, Note_off_c, 0, 44, 60
1, 401377, Note_off_c, 0, 51, 63
1, 401536, Note_off_c, 0, 65, 55
1, 401744, Note_on_c, 0, 67, 89
1, 401745, Note_on_c, 0, 51, 75
1, 401748, Control_c, 0, 64, 90
1, 401749, Note_on_c, 0, 59, 80
1, 401763, Control_c, 0, 64, 69
1, 401777, Control_c, 0, 64, 56
1, 401792, Control_c, 0, 64, 53
1, 401807, Control_c, 0, 64, 59
1, 401829, Control_c, 0, 64, 62
1, 401844, Control_c, 0, 64, 65
1, 401859, Control_c, 0, 64, 70
1, 401874, Control_c, 0, 64, 80
1, 401889, Control_c, 0, 64, 97
1, 401903, Control_c, 0, 64, 127
1, 402005, Note_off_c, 0, 67, 60
1, 402196, Note_off_c, 0, 51, 49
1, 402231, Note_on_c, 0, 78, 97
1, 402238, Note_on_c, 0, 68, 91
1, 402243, Note_on_c, 0, 56, 66
1, 402245, Note_on_c, 0, 63, 76
1, 402245, Note_on_c, 0, 75, 73
1, 402247, Note_off_c, 0, 59, 63
1, 402320, Note_off_c, 0, 56, 61
1, 402348, Note_off_c, 0, 68, 60
1, 402373, Note_off_c, 0, 63, 55
1, 402464, Note_off_c, 0, 75, 59
1, 402508, Note_off_c, 0, 78, 64
1, 402835, Note_on_c, 0, 70, 88
1, 402838, Note_on_c, 0, 85, 99
1, 402838, Note_on_c, 0, 63, 70
1, 402841, Note_on_c, 0, 76, 94
1, 402847, Note_on_c, 0, 61, 72
1, 402858, Control_c, 0, 64, 107
1, 402873, Control_c, 0, 64, 74
1, 402888, Control_c, 0, 64, 55
1, 402903, Control_c, 0, 64, 0
1, 402932, Control_c, 0, 64, 15
1, 402947, Control_c, 0, 64, 38
1, 402962, Control_c, 0, 64, 52
1, 402976, Control_c, 0, 64, 60
1, 402991, Control_c, 0, 64, 64
1, 403006, Control_c, 0, 64, 71
1, 403023, Control_c, 0, 64, 91
1, 403038, Control_c, 0, 64, 127
1, 403075, Note_off_c, 0, 70, 61
1, 403151, Note_off_c, 0, 61, 58
1, 403194, Note_off_c, 0, 63, 61
1, 403198, Note_off_c, 0, 76, 56
1, 403208, Note_off_c, 0, 85, 61
1, 403469, Note_on_c, 0, 67, 84
1, 403478, Note_on_c, 0, 51, 73
1, 403478, Note_on_c, 0, 57, 73
1, 403711, Note_off_c, 0, 67, 52
1, 403715, Note_off_c, 0, 57, 58
1, 403752, Note_off_c, 0, 51, 57
1, 404216, Note_on_c, 0, 56, 57
1, 404218, Note_on_c, 0, 50, 51
1, 404226, Note_on_c, 0, 68, 78
1, 404230, Note_on_c, 0, 64, 65
1, 404283, Control_c, 0, 64, 83
1, 404297, Control_c, 0, 64, 67
1, 404312, Control_c, 0, 64, 54
1, 404327, Control_c, 0, 64, 39
1, 404342, Control_c, 0, 64, 38
1, 404356, Control_c, 0, 64, 40
1, 404371, Control_c, 0, 64, 46
1, 404386, Control_c, 0, 64, 54
1, 404401, Control_c, 0, 64, 60
1, 404416, Control_c, 0, 64, 64
1, 404430, Control_c, 0, 64, 68
1, 404445, Control_c, 0, 64, 75
1, 404460, Control_c, 0, 64, 85
1, 404475, Control_c, 0, 64, 99
1, 404490, Control_c, 0, 64, 127
1, 404510, Note_off_c, 0, 50, 55
1, 404805, Note_off_c, 0, 56, 35
1, 404805, Note_off_c, 0, 64, 58
1, 404861, Note_on_c, 0, 61, 55
1, 404865, Note_on_c, 0, 55, 50
1, 404871, Note_on_c, 0, 49, 46
1, 404966, Note_off_c, 0, 68, 59
1, 405148, Note_off_c, 0, 61, 37
1, 405154, Note_off_c, 0, 55, 59
1, 405221, Note_off_c, 0, 49, 60
1, 405302, Note_on_c, 0, 75, 73
1, 405311, Note_on_c, 0, 68, 60
1, 405380, Note_off_c, 0, 75, 63
1, 405404, Note_off_c, 0, 68, 59
1, 405587, Note_on_c, 0, 54, 50
1, 405589, Note_on_c, 0, 48, 46
1, 405593, Note_on_c, 0, 44, 40
1, 405595, Note_on_c, 0, 68, 59
1, 405600, Note_on_c, 0, 63, 53
1, 405616, Control_c, 0, 64, 92
1, 405623, Note_on_c, 0, 66, 44
1, 405631, Control_c, 0, 64, 71
1, 405646, Control_c, 0, 64, 58
1, 405655, Note_off_c, 0, 66, 50
1, 405661, Control_c, 0, 64, 48
1, 405676, Control_c, 0, 64, 47
1, 405691, Control_c, 0, 64, 46
1, 405706, Control_c, 0, 64, 47
1, 405721, Control_c, 0, 64, 50
1, 405735, Control_c, 0, 64, 55
1, 405750, Control_c, 0, 64, 61
1, 405765, Control_c, 0, 64, 65
1, 405780, Control_c, 0, 64, 69
1, 405794, Control_c, 0, 64, 76
1, 405809, Control_c, 0, 64, 84
1, 405824, Control_c, 0, 64, 94
1, 405839, Control_c, 0, 64, 119
1, 405854, Control_c, 0, 64, 127
1, 405927, Note_off_c, 0, 48, 37
1, 406014, Note_off_c, 0, 54, 43
1, 406138, Note_on_c, 0, 47, 46
1, 406142, Note_on_c, 0, 53, 54
1, 406148, Note_on_c, 0, 59, 57
1, 406150, Control_c, 0, 64, 87
1, 406165, Control_c, 0, 64, 70
1, 406180, Control_c, 0, 64, 61
1, 406194, Control_c, 0, 64, 57
1, 406216, Note_off_c, 0, 63, 53
1, 406224, Control_c, 0, 64, 57
1, 406239, Control_c, 0, 64, 58
1, 406254, Control_c, 0, 64, 61
1, 406269, Control_c, 0, 64, 63
1, 406284, Control_c, 0, 64, 66
1, 406299, Control_c, 0, 64, 72
1, 406321, Control_c, 0, 64, 81
1, 406336, Control_c, 0, 64, 95
1, 406351, Control_c, 0, 64, 127
1, 406405, Note_off_c, 0, 47, 51
1, 406490, Note_off_c, 0, 53, 38
1, 406656, Note_on_c, 0, 52, 53
1, 406660, Note_on_c, 0, 46, 50
1, 406670, Note_on_c, 0, 61, 66
1, 406677, Control_c, 0, 64, 84
1, 406691, Control_c, 0, 64, 69
1, 406695, Note_off_c, 0, 59, 51
1, 406706, Control_c, 0, 64, 61
1, 406721, Control_c, 0, 64, 58
1, 406766, Control_c, 0, 64, 59
1, 406781, Control_c, 0, 64, 61
1, 406796, Control_c, 0, 64, 64
1, 406811, Control_c, 0, 64, 67
1, 406825, Control_c, 0, 64, 72
1, 406840, Control_c, 0, 64, 79
1, 406853, Note_off_c, 0, 44, 33
1, 406855, Control_c, 0, 64, 90
1, 406870, Control_c, 0, 64, 100
1, 406885, Control_c, 0, 64, 112
1, 406899, Control_c, 0, 64, 127
1, 407133, Note_off_c, 0, 46, 33
1, 407160, Control_c, 0, 64, 109
1, 407168, Note_off_c, 0, 52, 34
1, 407175, Control_c, 0, 64, 91
1, 407190, Control_c, 0, 64, 77
1, 407196, Note_on_c, 0, 51, 51
1, 407198, Note_on_c, 0, 45, 43
1, 407203, Note_on_c, 0, 63, 61
1, 407204, Control_c, 0, 64, 68
1, 407219, Control_c, 0, 64, 63
1, 407233, Note_off_c, 0, 61, 56
1, 407234, Control_c, 0, 64, 61
1, 407248, Control_c, 0, 64, 62
1, 407263, Control_c, 0, 64, 63
1, 407278, Control_c, 0, 64, 63
1, 407293, Control_c, 0, 64, 65
1, 407308, Control_c, 0, 64, 66
1, 407322, Control_c, 0, 64, 69
1, 407337, Control_c, 0, 64, 73
1, 407352, Control_c, 0, 64, 78
1, 407367, Control_c, 0, 64, 83
1, 407382, Control_c, 0, 64, 89
1, 407396, Control_c, 0, 64, 94
1, 407411, Control_c, 0, 64, 101
1, 407426, Control_c, 0, 64, 116
1, 407440, Control_c, 0, 64, 127
1, 407475, Note_off_c, 0, 51, 54
1, 407593, Note_off_c, 0, 45, 32
1, 407653, Note_off_c, 0, 63, 53
1, 407678, Control_c, 0, 64, 102
1, 407693, Control_c, 0, 64, 86
1, 407704, Note_on_c, 0, 44, 35
1, 407706, Note_on_c, 0, 64, 51
1, 407708, Note_on_c, 0, 50, 39
1, 407708, Control_c, 0, 64, 75
1, 407722, Control_c, 0, 64, 68
1, 407737, Control_c, 0, 64, 63
1, 407752, Control_c, 0, 64, 60
1, 407766, Control_c, 0, 64, 61
1, 407781, Control_c, 0, 64, 62
1, 407796, Control_c, 0, 64, 63
1, 407819, Control_c, 0, 64, 64
1, 407834, Control_c, 0, 64, 66
1, 407849, Control_c, 0, 64, 68
1, 407864, Control_c, 0, 64, 71
1, 407879, Control_c, 0, 64, 74
1, 407894, Control_c, 0, 64, 78
1, 407908, Control_c, 0, 64, 82
1, 407923, Control_c, 0, 64, 87
1, 407938, Control_c, 0, 64, 92
1, 407953, Control_c, 0, 64, 99
1, 407968, Control_c, 0, 64, 109
1, 407983, Control_c, 0, 64, 127
1, 408160, Control_c, 0, 64, 123
1, 408175, Control_c, 0, 64, 110
1, 408190, Control_c, 0, 64, 99
1, 408191, Note_off_c, 0, 44, 36
1, 408195, Note_off_c, 0, 50, 39
1, 408205, Control_c, 0, 64, 88
1, 408212, Note_off_c, 0, 64, 57
1, 408219, Control_c, 0, 64, 77
1, 408223, Note_on_c, 0, 43, 38
1, 408223, Note_on_c, 0, 61, 50
1, 408224, Note_on_c, 0, 49, 42
1, 408234, Control_c, 0, 64, 69
1, 408249, Control_c, 0, 64, 64
1, 408263, Control_c, 0, 64, 61
1, 408278, Control_c, 0, 64, 62
1, 408293, Control_c, 0, 64, 63
1, 408308, Control_c, 0, 64, 64
1, 408323, Control_c, 0, 64, 65
1, 408337, Control_c, 0, 64, 66
1, 408352, Control_c, 0, 64, 69
1, 408367, Control_c, 0, 64, 73
1, 408382, Control_c, 0, 64, 77
1, 408396, Control_c, 0, 64, 81
1, 408411, Control_c, 0, 64, 86
1, 408426, Control_c, 0, 64, 90
1, 408441, Control_c, 0, 64, 98
1, 408456, Control_c, 0, 64, 110
1, 408470, Control_c, 0, 64, 127
1, 408547, Note_off_c, 0, 49, 34
1, 408713, Note_off_c, 0, 43, 38
1, 408731, Control_c, 0, 64, 105
1, 408746, Control_c, 0, 64, 95
1, 408749, Note_on_c, 0, 42, 42
1, 408753, Note_on_c, 0, 48, 43
1, 408761, Control_c, 0, 64, 88
1, 408767, Note_on_c, 0, 63, 47
1, 408775, Control_c, 0, 64, 84
1, 408790, Control_c, 0, 64, 81
1, 408803, Note_off_c, 0, 61, 37
1, 408805, Control_c, 0, 64, 79
1, 408819, Control_c, 0, 64, 77
1, 408834, Control_c, 0, 64, 75
1, 408849, Control_c, 0, 64, 73
1, 408864, Control_c, 0, 64, 72
1, 408879, Control_c, 0, 64, 71
1, 408893, Control_c, 0, 64, 70
1, 408908, Control_c, 0, 64, 68
1, 408923, Control_c, 0, 64, 65
1, 408938, Control_c, 0, 64, 63
1, 408953, Control_c, 0, 64, 60
1, 408967, Control_c, 0, 64, 58
1, 408982, Control_c, 0, 64, 58
1, 408997, Control_c, 0, 64, 57
1, 409011, Control_c, 0, 64, 56
1, 409026, Control_c, 0, 64, 52
1, 409041, Control_c, 0, 64, 48
1, 409056, Control_c, 0, 64, 43
1, 409071, Control_c, 0, 64, 37
1, 409086, Control_c, 0, 64, 27
1, 409101, Control_c, 0, 64, 11
1, 409116, Control_c, 0, 64, 0
1, 409222, Note_off_c, 0, 42, 32
1, 409240, Note_off_c, 0, 48, 46
1, 409265, Note_on_c, 0, 41, 36
1, 409270, Note_on_c, 0, 59, 46
1, 409282, Note_on_c, 0, 47, 40
1, 409287, Note_off_c, 0, 63, 52
1, 409375, Control_c, 0, 64, 33
1, 409390, Control_c, 0, 64, 51
1, 409405, Control_c, 0, 64, 62
1, 409420, Control_c, 0, 64, 67
1, 409435, Control_c, 0, 64, 73
1, 409450, Control_c, 0, 64, 83
1, 409465, Control_c, 0, 64, 100
1, 409476, Note_off_c, 0, 47, 60
1, 409479, Control_c, 0, 64, 127
1, 409619, Note_off_c, 0, 41, 42
1, 409767, Note_off_c, 0, 59, 51
1, 409776, Control_c, 0, 64, 96
1, 409781, Note_on_c, 0, 40, 42
1, 409783, Note_on_c, 0, 46, 44
1, 409783, Note_on_c, 0, 61, 47
1, 409790, Control_c, 0, 64, 80
1, 409805, Control_c, 0, 64, 69
1, 409820, Control_c, 0, 64, 60
1, 409834, Control_c, 0, 64, 51
1, 409849, Control_c, 0, 64, 54
1, 409864, Control_c, 0, 64, 57
1, 409879, Control_c, 0, 64, 59
1, 409894, Control_c, 0, 64, 61
1, 409909, Control_c, 0, 64, 62
1, 409924, Control_c, 0, 64, 63
1, 409938, Control_c, 0, 64, 65
1, 409953, Control_c, 0, 64, 66
1, 409968, Control_c, 0, 64, 69
1, 409983, Control_c, 0, 64, 73
1, 409998, Control_c, 0, 64, 80
1, 410013, Control_c, 0, 64, 86
1, 410028, Control_c, 0, 64, 93
1, 410042, Control_c, 0, 64, 97
1, 410064, Control_c, 0, 64, 99
1, 410079, Control_c, 0, 64, 99
1, 410094, Control_c, 0, 64, 100
1, 410109, Control_c, 0, 64, 102
1, 410153, Control_c, 0, 64, 102
1, 410165, Note_off_c, 0, 46, 39
1, 410168, Control_c, 0, 64, 101
1, 410183, Control_c, 0, 64, 100
1, 410198, Control_c, 0, 64, 99
1, 410213, Control_c, 0, 64, 97
1, 410228, Control_c, 0, 64, 94
1, 410243, Control_c, 0, 64, 92
1, 410258, Control_c, 0, 64, 90
1, 410272, Control_c, 0, 64, 85
1, 410287, Control_c, 0, 64, 80
1, 410301, Note_off_c, 0, 61, 54
1, 410302, Control_c, 0, 64, 73
1, 410317, Control_c, 0, 64, 67
1, 410326, Note_on_c, 0, 45, 41
1, 410329, Note_on_c, 0, 39, 41
1, 410332, Control_c, 0, 64, 63
1, 410333, Note_on_c, 0, 58, 43
1, 410341, Note_off_c, 0, 40, 44
1, 410347, Control_c, 0, 64, 59
1, 410362, Control_c, 0, 64, 57
1, 410377, Control_c, 0, 64, 58
1, 410392, Control_c, 0, 64, 58
1, 410406, Control_c, 0, 64, 59
1, 410421, Control_c, 0, 64, 60
1, 410436, Control_c, 0, 64, 61
1, 410451, Control_c, 0, 64, 62
1, 410465, Control_c, 0, 64, 63
1, 410480, Control_c, 0, 64, 64
1, 410495, Control_c, 0, 64, 66
1, 410511, Control_c, 0, 64, 67
1, 410526, Control_c, 0, 64, 69
1, 410540, Control_c, 0, 64, 72
1, 410555, Control_c, 0, 64, 75
1, 410570, Control_c, 0, 64, 81
1, 410585, Control_c, 0, 64, 90
1, 410600, Control_c, 0, 64, 99
1, 410614, Control_c, 0, 64, 106
1, 410629, Control_c, 0, 64, 109
1, 410673, Control_c, 0, 64, 111
1, 410688, Control_c, 0, 64, 112
1, 410718, Control_c, 0, 64, 111
1, 410732, Control_c, 0, 64, 110
1, 410747, Control_c, 0, 64, 109
1, 410762, Control_c, 0, 64, 107
1, 410777, Control_c, 0, 64, 104
1, 410791, Control_c, 0, 64, 100
1, 410806, Control_c, 0, 64, 95
1, 410829, Control_c, 0, 64, 88
1, 410844, Control_c, 0, 64, 80
1, 410854, Note_off_c, 0, 45, 52
1, 410859, Control_c, 0, 64, 73
1, 410873, Control_c, 0, 64, 66
1, 410874, Note_off_c, 0, 39, 40
1, 410874, Note_off_c, 0, 58, 31
1, 410879, Note_on_c, 0, 44, 48
1, 410884, Note_on_c, 0, 59, 37
1, 410886, Note_on_c, 0, 38, 30
1, 410888, Control_c, 0, 64, 61
1, 410903, Control_c, 0, 64, 56
1, 410933, Control_c, 0, 64, 57
1, 410947, Control_c, 0, 64, 58
1, 410962, Control_c, 0, 64, 59
1, 410977, Control_c, 0, 64, 60
1, 410991, Control_c, 0, 64, 61
1, 411006, Control_c, 0, 64, 63
1, 411023, Control_c, 0, 64, 64
1, 411037, Control_c, 0, 64, 66
1, 411052, Control_c, 0, 64, 68
1, 411067, Control_c, 0, 64, 70
1, 411082, Control_c, 0, 64, 74
1, 411096, Control_c, 0, 64, 79
1, 411111, Control_c, 0, 64, 86
1, 411126, Control_c, 0, 64, 97
1, 411141, Control_c, 0, 64, 115
1, 411156, Control_c, 0, 64, 127
1, 411304, Control_c, 0, 64, 116
1, 411319, Control_c, 0, 64, 108
1, 411334, Control_c, 0, 64, 101
1, 411348, Control_c, 0, 64, 94
1, 411363, Control_c, 0, 64, 86
1, 411378, Control_c, 0, 64, 78
1, 411393, Control_c, 0, 64, 72
1, 411394, Note_off_c, 0, 59, 36
1, 411399, Note_off_c, 0, 38, 36
1, 411407, Control_c, 0, 64, 67
1, 411414, Note_on_c, 0, 61, 44
1, 411414, Note_off_c, 0, 44, 37
1, 411421, Note_on_c, 0, 37, 39
1, 411422, Control_c, 0, 64, 62
1, 411425, Note_on_c, 0, 43, 38
1, 411437, Control_c, 0, 64, 59
1, 411481, Control_c, 0, 64, 60
1, 411496, Control_c, 0, 64, 60
1, 411511, Control_c, 0, 64, 61
1, 411526, Control_c, 0, 64, 62
1, 411541, Control_c, 0, 64, 64
1, 411563, Control_c, 0, 64, 65
1, 411578, Control_c, 0, 64, 67
1, 411593, Control_c, 0, 64, 69
1, 411608, Control_c, 0, 64, 72
1, 411622, Control_c, 0, 64, 76
1, 411637, Control_c, 0, 64, 79
1, 411652, Control_c, 0, 64, 84
1, 411667, Control_c, 0, 64, 91
1, 411682, Control_c, 0, 64, 102
1, 411696, Control_c, 0, 64, 127
1, 411712, Note_off_c, 0, 43, 40
1, 411771, Note_off_c, 0, 61, 55
1, 411861, Control_c, 0, 64, 107
1, 411875, Control_c, 0, 64, 95
1, 411890, Control_c, 0, 64, 82
1, 411897, Note_off_c, 0, 37, 38
1, 411905, Control_c, 0, 64, 74
1, 411919, Control_c, 0, 64, 68
1, 411929, Note_on_c, 0, 36, 34
1, 411933, Note_on_c, 0, 42, 41
1, 411934, Control_c, 0, 64, 63
1, 411941, Note_on_c, 0, 63, 45
1, 411949, Control_c, 0, 64, 61
1, 411964, Control_c, 0, 64, 61
1, 411979, Control_c, 0, 64, 62
1, 411993, Control_c, 0, 64, 63
1, 412008, Control_c, 0, 64, 64
1, 412023, Control_c, 0, 64, 65
1, 412037, Control_c, 0, 64, 67
1, 412052, Control_c, 0, 64, 69
1, 412067, Control_c, 0, 64, 71
1, 412082, Control_c, 0, 64, 75
1, 412097, Control_c, 0, 64, 80
1, 412112, Control_c, 0, 64, 84
1, 412126, Control_c, 0, 64, 90
1, 412141, Control_c, 0, 64, 99
1, 412156, Control_c, 0, 64, 127
1, 412156, Control_c, 0, 67, 10
1, 412171, Control_c, 0, 67, 22
1, 412186, Control_c, 0, 67, 32
1, 412201, Control_c, 0, 67, 41
1, 412216, Control_c, 0, 67, 50
1, 412230, Control_c, 0, 67, 58
1, 412245, Control_c, 0, 67, 65
1, 412260, Control_c, 0, 67, 71
1, 412275, Control_c, 0, 67, 77
1, 412280, Note_off_c, 0, 42, 39
1, 412290, Control_c, 0, 67, 83
1, 412310, Note_off_c, 0, 36, 40
1, 412311, Control_c, 0, 67, 90
1, 412326, Control_c, 0, 67, 98
1, 412341, Control_c, 0, 67, 105
1, 412356, Control_c, 0, 67, 110
1, 412371, Control_c, 0, 67, 116
1, 412386, Control_c, 0, 67, 120
1, 412401, Control_c, 0, 67, 125
1, 412416, Control_c, 0, 64, 100
1, 412416, Control_c, 0, 67, 127
1, 412431, Control_c, 0, 64, 87
1, 412445, Control_c, 0, 64, 76
1, 412460, Control_c, 0, 64, 71
1, 412475, Control_c, 0, 64, 68
1, 412490, Control_c, 0, 64, 66
1, 412490, Note_off_c, 0, 63, 33
1, 412492, Note_on_c, 0, 35, 29
1, 412496, Note_on_c, 0, 41, 33
1, 412505, Control_c, 0, 64, 66
1, 412505, Note_on_c, 0, 59, 35
1, 412519, Control_c, 0, 64, 66
1, 412549, Control_c, 0, 64, 67
1, 412564, Control_c, 0, 64, 68
1, 412579, Control_c, 0, 64, 69
1, 412593, Control_c, 0, 64, 72
1, 412608, Control_c, 0, 64, 75
1, 412624, Control_c, 0, 64, 80
1, 412639, Control_c, 0, 64, 86
1, 412644, Note_off_c, 0, 35, 37
1, 412654, Control_c, 0, 64, 92
1, 412668, Control_c, 0, 64, 99
1, 412672, Note_off_c, 0, 68, 35
1, 412674, Note_off_c, 0, 41, 41
1, 412683, Control_c, 0, 64, 109
1, 412698, Control_c, 0, 64, 127
1, 412819, Note_off_c, 0, 59, 34
1, 413163, Control_c, 0, 64, 105
1, 413178, Control_c, 0, 64, 92
1, 413193, Control_c, 0, 64, 80
1, 413207, Control_c, 0, 64, 73
1, 413212, Note_on_c, 0, 50, 39
1, 413217, Note_on_c, 0, 68, 56
1, 413221, Note_on_c, 0, 56, 33
1, 413222, Control_c, 0, 64, 68
1, 413237, Control_c, 0, 64, 65
1, 413240, Note_on_c, 0, 64, 43
1, 413266, Control_c, 0, 64, 66
1, 413281, Control_c, 0, 64, 67
1, 413296, Control_c, 0, 64, 69
1, 413311, Control_c, 0, 64, 72
1, 413326, Control_c, 0, 64, 75
1, 413340, Control_c, 0, 64, 79
1, 413355, Control_c, 0, 64, 83
1, 413370, Control_c, 0, 64, 87
1, 413385, Control_c, 0, 64, 92
1, 413400, Control_c, 0, 64, 98
1, 413416, Control_c, 0, 64, 106
1, 413430, Control_c, 0, 64, 127
1, 413501, Note_off_c, 0, 56, 36
1, 413653, Note_off_c, 0, 64, 34
1, 413736, Note_off_c, 0, 50, 38
1, 413764, Note_on_c, 0, 49, 29
1, 413782, Note_on_c, 0, 55, 34
1, 413788, Note_on_c, 0, 61, 41
1, 413848, Note_off_c, 0, 68, 36
1, 413995, Note_off_c, 0, 61, 49
1, 413999, Note_off_c, 0, 55, 41
1, 414019, Note_off_c, 0, 49, 32
1, 414068, Note_on_c, 0, 75, 64
1, 414076, Note_on_c, 0, 68, 51
1, 414176, Note_off_c, 0, 75, 62
1, 414241, Note_off_c, 0, 68, 35
1, 414402, Control_c, 0, 64, 113
1, 414417, Control_c, 0, 64, 102
1, 414432, Control_c, 0, 64, 92
1, 414440, Note_on_c, 0, 48, 37
1, 414445, Note_on_c, 0, 68, 56
1, 414447, Control_c, 0, 64, 83
1, 414450, Note_on_c, 0, 54, 41
1, 414455, Note_on_c, 0, 63, 47
1, 414461, Control_c, 0, 64, 75
1, 414462, Note_on_c, 0, 44, 33
1, 414476, Control_c, 0, 64, 69
1, 414491, Control_c, 0, 64, 65
1, 414505, Control_c, 0, 64, 63
1, 414520, Control_c, 0, 64, 62
1, 414535, Control_c, 0, 64, 63
1, 414550, Control_c, 0, 64, 63
1, 414573, Control_c, 0, 64, 64
1, 414587, Control_c, 0, 64, 66
1, 414602, Control_c, 0, 64, 68
1, 414617, Control_c, 0, 64, 72
1, 414631, Control_c, 0, 64, 76
1, 414646, Control_c, 0, 64, 80
1, 414661, Control_c, 0, 64, 84
1, 414676, Control_c, 0, 64, 89
1, 414691, Control_c, 0, 64, 95
1, 414705, Control_c, 0, 64, 102
1, 414720, Control_c, 0, 64, 113
1, 414735, Control_c, 0, 64, 127
1, 414771, Note_off_c, 0, 54, 41
1, 414976, Note_off_c, 0, 48, 34
1, 415010, Note_off_c, 0, 63, 34
1, 415042, Note_on_c, 0, 59, 42
1, 415044, Note_on_c, 0, 47, 36
1, 415057, Note_on_c, 0, 53, 44
1, 415257, Note_off_c, 0, 47, 34
1, 415306, Control_c, 0, 64, 123
1, 415321, Control_c, 0, 64, 121
1, 415335, Control_c, 0, 64, 118
1, 415344, Note_off_c, 0, 53, 39
1, 415350, Control_c, 0, 64, 115
1, 415365, Control_c, 0, 64, 113
1, 415380, Control_c, 0, 64, 113
1, 415424, Control_c, 0, 64, 111
1, 415439, Control_c, 0, 64, 110
1, 415454, Control_c, 0, 64, 110
1, 415468, Control_c, 0, 64, 109
1, 415483, Control_c, 0, 64, 108
1, 415498, Control_c, 0, 64, 106
1, 415513, Control_c, 0, 64, 104
1, 415528, Control_c, 0, 64, 100
1, 415543, Control_c, 0, 64, 96
1, 415557, Control_c, 0, 64, 89
1, 415572, Control_c, 0, 64, 82
1, 415587, Note_off_c, 0, 59, 36
1, 415587, Control_c, 0, 64, 75
1, 415590, Note_on_c, 0, 46, 38
1, 415591, Note_on_c, 0, 61, 51
1, 415597, Note_on_c, 0, 52, 47
1, 415602, Control_c, 0, 64, 69
1, 415617, Control_c, 0, 64, 65
1, 415632, Control_c, 0, 64, 64
1, 415647, Control_c, 0, 64, 65
1, 415661, Control_c, 0, 64, 65
1, 415676, Control_c, 0, 64, 66
1, 415691, Control_c, 0, 64, 68
1, 415706, Control_c, 0, 64, 70
1, 415721, Control_c, 0, 64, 74
1, 415735, Control_c, 0, 64, 78
1, 415750, Control_c, 0, 64, 82
1, 415765, Control_c, 0, 64, 86
1, 415780, Control_c, 0, 64, 92
1, 415795, Control_c, 0, 64, 99
1, 415811, Control_c, 0, 64, 113
1, 415825, Control_c, 0, 64, 127
1, 415921, Note_off_c, 0, 44, 36
1, 415981, Note_off_c, 0, 61, 53
1, 416095, Note_off_c, 0, 52, 40
1, 416103, Note_off_c, 0, 46, 38
1, 416125, Note_on_c, 0, 45, 44
1, 416125, Note_on_c, 0, 51, 53
1, 416136, Note_on_c, 0, 63, 58
1, 416144, Control_c, 0, 64, 115
1, 416158, Control_c, 0, 64, 99
1, 416173, Control_c, 0, 64, 88
1, 416188, Control_c, 0, 64, 81
1, 416203, Control_c, 0, 64, 75
1, 416218, Control_c, 0, 64, 72
1, 416232, Control_c, 0, 64, 71
1, 416262, Control_c, 0, 64, 71
1, 416276, Control_c, 0, 64, 72
1, 416291, Control_c, 0, 64, 74
1, 416306, Control_c, 0, 64, 76
1, 416321, Control_c, 0, 64, 80
1, 416336, Control_c, 0, 64, 85
1, 416351, Control_c, 0, 64, 91
1, 416365, Control_c, 0, 64, 100
1, 416380, Control_c, 0, 64, 109
1, 416395, Control_c, 0, 64, 127
1, 416435, Note_off_c, 0, 51, 53
1, 416467, Note_off_c, 0, 45, 49
1, 416632, Note_off_c, 0, 63, 48
1, 416634, Control_c, 0, 64, 107
1, 416647, Note_on_c, 0, 64, 57
1, 416648, Control_c, 0, 64, 94
1, 416650, Note_on_c, 0, 50, 42
1, 416654, Note_on_c, 0, 44, 39
1, 416663, Control_c, 0, 64, 84
1, 416678, Control_c, 0, 64, 77
1, 416693, Control_c, 0, 64, 72
1, 416707, Control_c, 0, 64, 69
1, 416722, Control_c, 0, 64, 67
1, 416737, Control_c, 0, 64, 65
1, 416752, Control_c, 0, 64, 66
1, 416767, Control_c, 0, 64, 66
1, 416781, Control_c, 0, 64, 67
1, 416804, Control_c, 0, 64, 68
1, 416818, Control_c, 0, 64, 69
1, 416833, Control_c, 0, 64, 72
1, 416848, Control_c, 0, 64, 75
1, 416863, Control_c, 0, 64, 79
1, 416878, Control_c, 0, 64, 83
1, 416893, Control_c, 0, 64, 86
1, 416907, Control_c, 0, 64, 91
1, 416922, Control_c, 0, 64, 97
1, 416937, Control_c, 0, 64, 104
1, 416952, Control_c, 0, 64, 113
1, 416967, Control_c, 0, 64, 127
1, 417167, Note_off_c, 0, 44, 35
1, 417173, Control_c, 0, 64, 114
1, 417179, Note_off_c, 0, 50, 40
1, 417184, Note_off_c, 0, 64, 51
1, 417188, Control_c, 0, 64, 98
1, 417190, Note_on_c, 0, 61, 48
1, 417197, Note_on_c, 0, 43, 36
1, 417197, Note_on_c, 0, 49, 41
1, 417203, Control_c, 0, 64, 83
1, 417218, Control_c, 0, 64, 73
1, 417233, Control_c, 0, 64, 67
1, 417248, Control_c, 0, 64, 63
1, 417263, Control_c, 0, 64, 62
1, 417277, Control_c, 0, 64, 62
1, 417292, Control_c, 0, 64, 63
1, 417307, Control_c, 0, 64, 64
1, 417322, Control_c, 0, 64, 65
1, 417337, Control_c, 0, 64, 67
1, 417352, Control_c, 0, 64, 69
1, 417367, Control_c, 0, 64, 72
1, 417381, Control_c, 0, 64, 77
1, 417397, Control_c, 0, 64, 80
1, 417412, Control_c, 0, 64, 84
1, 417427, Control_c, 0, 64, 89
1, 417441, Control_c, 0, 64, 95
1, 417456, Control_c, 0, 64, 103
1, 417471, Control_c, 0, 64, 127
1, 417483, Note_off_c, 0, 49, 37
1, 417537, Note_off_c, 0, 43, 37
1, 417671, Control_c, 0, 64, 111
1, 417686, Control_c, 0, 64, 99
1, 417701, Control_c, 0, 64, 88
1, 417716, Control_c, 0, 64, 77
1, 417722, Note_on_c, 0, 42, 36
1, 417722, Note_on_c, 0, 48, 37
1, 417730, Control_c, 0, 64, 69
1, 417735, Note_on_c, 0, 63, 37
1, 417745, Control_c, 0, 64, 64
1, 417760, Control_c, 0, 64, 63
1, 417760, Control_c, 0, 67, 127
1, 417763, Note_off_c, 0, 61, 31
1, 417775, Control_c, 0, 64, 63
1, 417804, Control_c, 0, 64, 64
1, 417819, Control_c, 0, 64, 65
1, 417834, Control_c, 0, 64, 66
1, 417848, Control_c, 0, 64, 70
1, 417863, Control_c, 0, 64, 74
1, 417878, Control_c, 0, 64, 81
1, 417878, Control_c, 0, 67, 126
1, 417893, Control_c, 0, 64, 89
1, 417908, Control_c, 0, 64, 97
1, 417922, Control_c, 0, 64, 110
1, 417937, Control_c, 0, 64, 127
1, 418012, Control_c, 0, 67, 125
1, 418145, Control_c, 0, 64, 110
1, 418160, Control_c, 0, 64, 96
1, 418175, Control_c, 0, 64, 86
1, 418190, Control_c, 0, 64, 79
1, 418204, Note_off_c, 0, 42, 39
1, 418206, Control_c, 0, 64, 72
1, 418216, Note_off_c, 0, 48, 38
1, 418221, Control_c, 0, 64, 67
1, 418235, Control_c, 0, 64, 64
1, 418239, Note_on_c, 0, 59, 37
1, 418246, Note_on_c, 0, 47, 37
1, 418246, Note_on_c, 0, 41, 26
1, 418250, Control_c, 0, 64, 64
1, 418282, Note_off_c, 0, 63, 36
1, 418302, Control_c, 0, 64, 65
1, 418317, Control_c, 0, 64, 66
1, 418332, Control_c, 0, 64, 68
1, 418347, Control_c, 0, 64, 71
1, 418361, Control_c, 0, 64, 76
1, 418376, Control_c, 0, 64, 82
1, 418391, Control_c, 0, 64, 88
1, 418406, Control_c, 0, 64, 95
1, 418421, Control_c, 0, 64, 103
1, 418435, Control_c, 0, 64, 117
1, 418443, Note_off_c, 0, 47, 39
1, 418450, Control_c, 0, 64, 127
1, 418544, Note_off_c, 0, 41, 42
1, 418702, Control_c, 0, 64, 118
1, 418711, Note_off_c, 0, 59, 37
1, 418717, Control_c, 0, 64, 101
1, 418732, Control_c, 0, 64, 88
1, 418745, Control_c, 0, 64, 78
1, 418754, Note_on_c, 0, 40, 32
1, 418760, Note_on_c, 0, 46, 34
1, 418760, Control_c, 0, 64, 71
1, 418762, Note_on_c, 0, 61, 39
1, 418775, Control_c, 0, 64, 67
1, 418790, Control_c, 0, 64, 65
1, 418864, Control_c, 0, 64, 66
1, 418878, Control_c, 0, 64, 67
1, 418893, Control_c, 0, 64, 69
1, 418908, Control_c, 0, 64, 73
1, 418923, Control_c, 0, 64, 77
1, 418938, Control_c, 0, 64, 82
1, 418953, Control_c, 0, 64, 88
1, 418968, Control_c, 0, 64, 94
1, 418983, Control_c, 0, 64, 99
1, 418998, Control_c, 0, 64, 106
1, 419013, Control_c, 0, 64, 114
1, 419028, Control_c, 0, 64, 127
1, 419036, Note_off_c, 0, 46, 32
1, 419213, Control_c, 0, 64, 118
1, 419228, Control_c, 0, 64, 110
1, 419243, Control_c, 0, 64, 104
1, 419257, Control_c, 0, 64, 98
1, 419272, Control_c, 0, 64, 94
1, 419287, Control_c, 0, 64, 91
1, 419293, Note_on_c, 0, 45, 37
1, 419293, Note_off_c, 0, 61, 41
1, 419296, Note_on_c, 0, 58, 47
1, 419302, Control_c, 0, 64, 88
1, 419306, Note_on_c, 0, 39, 39
1, 419313, Note_off_c, 0, 40, 41
1, 419316, Control_c, 0, 64, 85
1, 419331, Control_c, 0, 64, 81
1, 419346, Control_c, 0, 64, 76
1, 419361, Control_c, 0, 64, 74
1, 419376, Control_c, 0, 64, 73
1, 419391, Control_c, 0, 64, 72
1, 419406, Control_c, 0, 64, 71
1, 419421, Control_c, 0, 64, 70
1, 419436, Control_c, 0, 64, 68
1, 419450, Control_c, 0, 64, 67
1, 419465, Control_c, 0, 64, 66
1, 419480, Control_c, 0, 64, 65
1, 419494, Control_c, 0, 64, 64
1, 419509, Control_c, 0, 64, 63
1, 419509, Control_c, 0, 67, 126
1, 419524, Control_c, 0, 64, 61
1, 419539, Control_c, 0, 64, 58
1, 419554, Control_c, 0, 64, 56
1, 419554, Control_c, 0, 67, 127
1, 419568, Control_c, 0, 64, 53
1, 419583, Control_c, 0, 64, 51
1, 419598, Control_c, 0, 64, 48
1, 419613, Control_c, 0, 64, 40
1, 419613, Control_c, 0, 67, 127
1, 419628, Control_c, 0, 64, 28
1, 419642, Control_c, 0, 64, 0
1, 419826, Note_off_c, 0, 39, 41
1, 419826, Note_off_c, 0, 58, 38
1, 419850, Note_on_c, 0, 59, 45
1, 419857, Note_off_c, 0, 45, 36
1, 419868, Note_on_c, 0, 38, 14
1, 419874, Note_on_c, 0, 44, 32
1, 419977, Control_c, 0, 64, 16
1, 419992, Control_c, 0, 64, 40
1, 419992, Control_c, 0, 67, 127
1, 420006, Control_c, 0, 64, 54
1, 420006, Control_c, 0, 67, 126
1, 420021, Control_c, 0, 64, 61
1, 420021, Control_c, 0, 67, 125
1, 420036, Control_c, 0, 64, 63
1, 420051, Control_c, 0, 64, 65
1, 420051, Control_c, 0, 67, 125
1, 420066, Control_c, 0, 64, 68
1, 420080, Control_c, 0, 64, 74
1, 420095, Control_c, 0, 64, 82
1, 420110, Control_c, 0, 64, 91
1, 420124, Control_c, 0, 64, 99
1, 420124, Control_c, 0, 67, 124
1, 420133, Note_off_c, 0, 44, 40
1, 420139, Control_c, 0, 64, 108
1, 420154, Control_c, 0, 64, 127
1, 420243, Control_c, 0, 67, 124
1, 420276, Note_off_c, 0, 38, 33
1, 420303, Control_c, 0, 64, 123
1, 420315, Note_off_c, 0, 59, 39
1, 420317, Control_c, 0, 64, 109
1, 420332, Control_c, 0, 64, 99
1, 420347, Control_c, 0, 64, 88
1, 420362, Control_c, 0, 64, 76
1, 420377, Control_c, 0, 64, 68
1, 420378, Note_on_c, 0, 37, 23
1, 420388, Note_on_c, 0, 61, 37
1, 420391, Control_c, 0, 64, 61
1, 420393, Note_on_c, 0, 43, 25
1, 420406, Control_c, 0, 64, 54
1, 420421, Control_c, 0, 64, 53
1, 420436, Control_c, 0, 64, 55
1, 420451, Control_c, 0, 64, 56
1, 420451, Control_c, 0, 67, 123
1, 420465, Control_c, 0, 64, 58
1, 420480, Control_c, 0, 64, 59
1, 420495, Control_c, 0, 64, 61
1, 420495, Control_c, 0, 67, 122
1, 420510, Control_c, 0, 64, 62
1, 420524, Control_c, 0, 64, 64
1, 420547, Control_c, 0, 64, 65
1, 420547, Control_c, 0, 67, 122
1, 420562, Control_c, 0, 64, 69
1, 420562, Note_off_c, 0, 43, 42
1, 420577, Control_c, 0, 64, 74
1, 420592, Control_c, 0, 64, 81
1, 420607, Control_c, 0, 64, 91
1, 420607, Control_c, 0, 67, 121
1, 420622, Control_c, 0, 64, 104
1, 420637, Control_c, 0, 64, 127
1, 420785, Control_c, 0, 64, 113
1, 420800, Control_c, 0, 64, 94
1, 420815, Control_c, 0, 64, 81
1, 420829, Control_c, 0, 64, 71
1, 420829, Control_c, 0, 67, 120
1, 420844, Control_c, 0, 64, 64
1, 420847, Note_off_c, 0, 37, 40
1, 420859, Control_c, 0, 64, 60
1, 420874, Control_c, 0, 64, 59
1, 420874, Control_c, 0, 67, 120
1, 420881, Note_on_c, 0, 36, 19
1, 420889, Control_c, 0, 64, 60
1, 420890, Note_on_c, 0, 42, 26
1, 420903, Control_c, 0, 64, 61
1, 420907, Note_off_c, 0, 61, 35
1, 420914, Note_on_c, 0, 63, 23
1, 420918, Control_c, 0, 64, 62
1, 420933, Control_c, 0, 64, 63
1, 420947, Control_c, 0, 64, 64
1, 420962, Control_c, 0, 64, 65
1, 420977, Control_c, 0, 64, 67
1, 420992, Control_c, 0, 64, 69
1, 421007, Control_c, 0, 64, 72
1, 421021, Control_c, 0, 64, 76
1, 421036, Control_c, 0, 64, 78
1, 421051, Control_c, 0, 64, 81
1, 421066, Control_c, 0, 64, 84
1, 421081, Control_c, 0, 64, 88
1, 421096, Control_c, 0, 64, 93
1, 421111, Control_c, 0, 64, 96
1, 421111, Control_c, 0, 67, 120
1, 421126, Control_c, 0, 64, 97
1, 421141, Control_c, 0, 67, 122
1, 421142, Note_off_c, 0, 42, 34
1, 421144, Note_off_c, 0, 36, 39
1, 421155, Control_c, 0, 67, 122
1, 421170, Control_c, 0, 64, 98
1, 421185, Control_c, 0, 64, 99
1, 421185, Control_c, 0, 67, 123
1, 421229, Control_c, 0, 67, 124
1, 421244, Control_c, 0, 67, 124
1, 421259, Control_c, 0, 67, 125
1, 421288, Control_c, 0, 67, 125
1, 421326, Control_c, 0, 64, 99
1, 421326, Control_c, 0, 67, 126
1, 421340, Control_c, 0, 64, 98
1, 421355, Control_c, 0, 64, 98
1, 421370, Control_c, 0, 64, 97
1, 421385, Control_c, 0, 64, 96
1, 421385, Control_c, 0, 67, 127
1, 421400, Control_c, 0, 64, 93
1, 421400, Control_c, 0, 67, 127
1, 421415, Control_c, 0, 64, 89
1, 421430, Control_c, 0, 64, 83
1, 421445, Control_c, 0, 64, 76
1, 421460, Control_c, 0, 64, 69
1, 421475, Control_c, 0, 64, 64
1, 421489, Control_c, 0, 64, 61
1, 421500, Note_off_c, 0, 63, 35
1, 421504, Control_c, 0, 64, 60
1, 421511, Note_on_c, 0, 41, 20
1, 421519, Control_c, 0, 64, 60
1, 421528, Note_on_c, 0, 59, 20
1, 421534, Control_c, 0, 64, 61
1, 421549, Control_c, 0, 64, 62
1, 421549, Poly_aftertouch_c, 0, 35, 127
1, 421564, Control_c, 0, 64, 64
1, 421578, Control_c, 0, 64, 66
1, 421593, Control_c, 0, 64, 69
1, 421608, Control_c, 0, 64, 73
1, 421623, Control_c, 0, 64, 78
1, 421638, Control_c, 0, 64, 85
1, 421644, Poly_aftertouch_c, 0, 35, 0
1, 421652, Control_c, 0, 64, 99
1, 421667, Control_c, 0, 64, 127
1, 421685, Note_off_c, 0, 41, 41
1, 421689, Note_off_c, 0, 59, 44
1, 421782, Note_off_c, 0, 68, 36
1, 422008, Control_c, 0, 67, 127
1, 422104, Control_c, 0, 67, 126
1, 422217, Note_on_c, 0, 75, 27
1, 422238, Note_on_c, 0, 63, 19
1, 422252, Note_on_c, 0, 59, 19
1, 422261, Note_on_c, 0, 68, 20
1, 422328, Control_c, 0, 67, 125
1, 422391, Note_off_c, 0, 68, 39
1, 422393, Note_off_c, 0, 63, 41
1, 422402, Note_off_c, 0, 59, 51
1, 422530, Note_on_c, 0, 74, 30
1, 422631, Note_off_c, 0, 75, 41
1, 422712, Note_off_c, 0, 74, 39
1, 422858, Note_on_c, 0, 32, 33
1, 422868, Note_on_c, 0, 80, 62
1, 422941, Poly_aftertouch_c, 0, 73, 127
1, 422976, Note_off_c, 0, 32, 36
1, 423004, Poly_aftertouch_c, 0, 73, 0
1, 423047, Note_off_c, 0, 80, 38
1, 423197, Note_on_c, 0, 72, 32
1, 423335, Note_off_c, 0, 72, 35
1, 423454, Note_on_c, 0, 79, 55
1, 423463, Note_on_c, 0, 67, 21
1, 423481, Note_on_c, 0, 59, 27
1, 423493, Note_on_c, 0, 62, 23
1, 423511, Note_on_c, 0, 71, 31
1, 423558, Note_off_c, 0, 67, 57
1, 423561, Note_off_c, 0, 62, 51
1, 423591, Note_off_c, 0, 59, 53
1, 423604, Note_off_c, 0, 79, 59
1, 423606, Poly_aftertouch_c, 0, 74, 127
1, 423649, Note_off_c, 0, 71, 38
1, 423794, Note_on_c, 0, 70, 35
1, 423874, Note_off_c, 0, 70, 50
1, 424039, Note_on_c, 0, 32, 34
1, 424057, Poly_aftertouch_c, 0, 74, 0
1, 424072, Note_on_c, 0, 69, 38
1, 424077, Note_on_c, 0, 77, 54
1, 424134, Note_off_c, 0, 69, 57
1, 424141, Poly_aftertouch_c, 0, 72, 127
1, 424196, Note_off_c, 0, 32, 40
1, 424333, Poly_aftertouch_c, 0, 72, 0
1, 424350, Control_c, 0, 67, 125
1, 424387, Note_on_c, 0, 68, 36
1, 424393, Note_off_c, 0, 77, 40
1, 424409, Control_c, 0, 67, 124
1, 424501, Note_off_c, 0, 68, 36
1, 424644, Note_on_c, 0, 50, 29
1, 424647, Note_on_c, 0, 60, 21
1, 424655, Note_on_c, 0, 54, 17
1, 424657, Note_on_c, 0, 75, 60
1, 424672, Note_on_c, 0, 67, 39
1, 424683, Note_on_c, 0, 70, 29
1, 424715, Note_off_c, 0, 60, 43
1, 424733, Note_off_c, 0, 67, 54
1, 424736, Note_off_c, 0, 54, 38
1, 424758, Note_off_c, 0, 50, 35
1, 424801, Note_off_c, 0, 70, 30
1, 424968, Note_on_c, 0, 66, 36
1, 425067, Note_off_c, 0, 66, 55
1, 425245, Note_on_c, 0, 32, 33
1, 425260, Note_on_c, 0, 77, 62
1, 425267, Note_off_c, 0, 75, 51
1, 425275, Note_on_c, 0, 65, 37
1, 425346, Note_off_c, 0, 32, 38
1, 425350, Control_c, 0, 67, 124
1, 425353, Note_off_c, 0, 77, 54
1, 425470, Control_c, 0, 67, 123
1, 425485, Control_c, 0, 67, 122
1, 425505, Note_off_c, 0, 65, 39
1, 425539, Note_on_c, 0, 79, 62
1, 425552, Note_on_c, 0, 70, 42
1, 425588, Control_c, 0, 67, 122
1, 425615, Note_off_c, 0, 79, 61
1, 425634, Note_off_c, 0, 70, 37
1, 425663, Control_c, 0, 67, 121
1, 425821, Note_on_c, 0, 60, 29
1, 425837, Note_on_c, 0, 72, 55
1, 425845, Note_on_c, 0, 69, 43
1, 425848, Note_on_c, 0, 52, 36
1, 425851, Note_on_c, 0, 55, 24
1, 425904, Note_off_c, 0, 55, 48
1, 425918, Note_off_c, 0, 60, 53
1, 425920, Note_off_c, 0, 52, 52
1, 425946, Note_off_c, 0, 72, 57
1, 426070, Control_c, 0, 67, 120
1, 426077, Note_off_c, 0, 69, 44
1, 426122, Note_on_c, 0, 68, 42
1, 426280, Note_off_c, 0, 68, 36
1, 426337, Control_c, 0, 67, 120
1, 426408, Note_on_c, 0, 72, 61
1, 426423, Note_on_c, 0, 40, 36
1, 426432, Note_on_c, 0, 67, 40
1, 426432, Note_on_c, 0, 69, 30
1, 426485, Note_off_c, 0, 69, 43
1, 426596, Note_off_c, 0, 67, 34
1, 426670, Control_c, 0, 67, 119
1, 426690, Note_off_c, 0, 72, 60
1, 426704, Note_on_c, 0, 66, 36
1, 426863, Control_c, 0, 67, 119
1, 426927, Note_off_c, 0, 40, 42
1, 426952, Control_c, 0, 64, 99
1, 426959, Note_off_c, 0, 66, 40
1, 426966, Control_c, 0, 64, 85
1, 426982, Control_c, 0, 64, 73
1, 426997, Control_c, 0, 64, 66
1, 427006, Note_on_c, 0, 32, 26
1, 427010, Note_on_c, 0, 75, 59
1, 427012, Control_c, 0, 64, 61
1, 427027, Control_c, 0, 64, 58
1, 427042, Control_c, 0, 64, 59
1, 427050, Note_on_c, 0, 65, 23
1, 427056, Control_c, 0, 64, 60
1, 427071, Control_c, 0, 64, 62
1, 427086, Control_c, 0, 64, 64
1, 427101, Control_c, 0, 64, 67
1, 427116, Control_c, 0, 64, 71
1, 427131, Control_c, 0, 64, 77
1, 427135, Note_off_c, 0, 65, 0
1, 427145, Control_c, 0, 64, 85
1, 427160, Control_c, 0, 64, 97
1, 427173, Poly_aftertouch_c, 0, 65, 127
1, 427175, Note_off_c, 0, 32, 39
1, 427175, Control_c, 0, 64, 127
1, 427235, Note_off_c, 0, 75, 52
1, 427261, Poly_aftertouch_c, 0, 65, 0
1, 427294, Note_on_c, 0, 66, 44
1, 427449, Control_c, 0, 67, 118
1, 427485, Note_off_c, 0, 66, 41
1, 427560, Note_on_c, 0, 74, 58
1, 427584, Note_on_c, 0, 67, 29
1, 427585, Note_on_c, 0, 59, 21
1, 427588, Note_on_c, 0, 50, 34
1, 427592, Note_on_c, 0, 55, 24
1, 427642, Note_off_c, 0, 55, 56
1, 427651, Poly_aftertouch_c, 0, 71, 127
1, 427652, Note_off_c, 0, 59, 47
1, 427669, Note_off_c, 0, 50, 54
1, 427687, Poly_aftertouch_c, 0, 71, 0
1, 427722, Note_off_c, 0, 74, 55
1, 427730, Control_c, 0, 67, 117
1, 427762, Note_off_c, 0, 67, 39
1, 427838, Note_on_c, 0, 66, 26
1, 428040, Note_off_c, 0, 66, 39
1, 428100, Note_on_c, 0, 72, 57
1, 428103, Note_on_c, 0, 32, 38
1, 428107, Note_on_c, 0, 65, 32
1, 428181, Note_off_c, 0, 32, 53
1, 428240, Note_off_c, 0, 72, 40
1, 428328, Note_off_c, 0, 65, 41
1, 428366, Note_on_c, 0, 64, 34
1, 428584, Note_off_c, 0, 64, 38
1, 428645, Note_on_c, 0, 70, 60
1, 428656, Note_on_c, 0, 54, 33
1, 428656, Note_on_c, 0, 60, 31
1, 428659, Note_on_c, 0, 63, 39
1, 428667, Note_on_c, 0, 50, 31
1, 428686, Note_on_c, 0, 67, 6
1, 428742, Note_off_c, 0, 60, 56
1, 428789, Note_off_c, 0, 54, 37
1, 428799, Control_c, 0, 67, 118
1, 428816, Note_off_c, 0, 67, 0
1, 428817, Note_off_c, 0, 50, 36
1, 428845, Note_off_c, 0, 63, 33
1, 428852, Poly_aftertouch_c, 0, 67, 127
1, 428924, Note_on_c, 0, 62, 39
1, 428933, Note_off_c, 0, 70, 32
1, 428947, Control_c, 0, 67, 119
1, 428989, Note_off_c, 0, 62, 56
1, 429035, Control_c, 0, 67, 119
1, 429230, Note_on_c, 0, 32, 38
1, 429238, Note_on_c, 0, 72, 56
1, 429239, Note_on_c, 0, 60, 45
1, 429257, Poly_aftertouch_c, 0, 67, 0
1, 429327, Note_off_c, 0, 32, 39
1, 429354, Note_off_c, 0, 72, 60
1, 429472, Note_off_c, 0, 60, 33
1, 429524, Note_on_c, 0, 74, 65
1, 429545, Note_on_c, 0, 66, 48
1, 429616, Note_off_c, 0, 74, 62
1, 429836, Note_on_c, 0, 69, 62
1, 429850, Note_off_c, 0, 66, 40
1, 429851, Note_on_c, 0, 60, 26
1, 429855, Note_on_c, 0, 65, 38
1, 429860, Note_on_c, 0, 55, 23
1, 429864, Note_on_c, 0, 52, 31
1, 429907, Note_off_c, 0, 60, 45
1, 429909, Note_off_c, 0, 55, 47
1, 429944, Note_off_c, 0, 69, 60
1, 429965, Note_off_c, 0, 52, 38
1, 430069, Note_off_c, 0, 65, 37
1, 430101, Note_on_c, 0, 64, 44
1, 430322, Note_off_c, 0, 64, 40
1, 430414, Note_on_c, 0, 69, 48
1, 430423, Note_on_c, 0, 40, 35
1, 430430, Note_on_c, 0, 65, 23
1, 430434, Note_on_c, 0, 63, 16
1, 430510, Note_off_c, 0, 63, 40
1, 430678, Note_off_c, 0, 65, 37
1, 430705, Note_on_c, 0, 62, 39
1, 430712, Note_off_c, 0, 69, 36
1, 430861, Note_off_c, 0, 40, 42
1, 430919, Control_c, 0, 64, 91
1, 430928, Note_off_c, 0, 62, 56
1, 430933, Control_c, 0, 64, 77
1, 430948, Control_c, 0, 64, 69
1, 430963, Control_c, 0, 64, 65
1, 430978, Note_on_c, 0, 32, 32
1, 430979, Control_c, 0, 64, 63
1, 430984, Note_on_c, 0, 68, 59
1, 430994, Control_c, 0, 64, 63
1, 431000, Note_on_c, 0, 63, 27
1, 431009, Control_c, 0, 64, 64
1, 431017, Note_on_c, 0, 61, 14
1, 431031, Control_c, 0, 64, 65
1, 431031, Control_c, 0, 67, 120
1, 431046, Control_c, 0, 64, 68
1, 431061, Control_c, 0, 64, 72
1, 431076, Control_c, 0, 64, 79
1, 431091, Control_c, 0, 64, 87
1, 431106, Control_c, 0, 64, 97
1, 431120, Control_c, 0, 64, 113
1, 431135, Control_c, 0, 64, 127
1, 431148, Note_off_c, 0, 32, 40
1, 431154, Note_off_c, 0, 63, 0
1, 431180, Note_off_c, 0, 68, 45
1, 431191, Poly_aftertouch_c, 0, 63, 127
1, 431248, Note_off_c, 0, 61, 15
1, 431312, Note_on_c, 0, 60, 38
1, 431318, Poly_aftertouch_c, 0, 63, 0
1, 431342, Control_c, 0, 67, 119
1, 431481, Note_off_c, 0, 60, 28
1, 431574, Note_on_c, 0, 67, 64
1, 431582, Note_on_c, 0, 55, 26
1, 431595, Note_on_c, 0, 50, 7
1, 431603, Note_on_c, 0, 59, 38
1, 431610, Note_on_c, 0, 47, 11
1, 431624, Note_on_c, 0, 62, 26
1, 431655, Note_off_c, 0, 55, 50
1, 431661, Note_off_c, 0, 50, 44
1, 431699, Note_off_c, 0, 67, 60
1, 431747, Note_off_c, 0, 47, 36
1, 431765, Note_off_c, 0, 59, 33
1, 431906, Note_on_c, 0, 58, 49
1, 431967, Note_off_c, 0, 58, 57
1, 432162, Note_off_c, 0, 62, 40
1, 432194, Note_on_c, 0, 65, 60
1, 432197, Note_on_c, 0, 32, 34
1, 432215, Note_on_c, 0, 57, 32
1, 432253, Note_off_c, 0, 57, 59
1, 432307, Note_off_c, 0, 32, 36
1, 432309, Poly_aftertouch_c, 0, 60, 127
1, 432328, Control_c, 0, 67, 120
1, 432465, Poly_aftertouch_c, 0, 60, 0
1, 432485, Note_on_c, 0, 56, 43
1, 432487, Note_off_c, 0, 65, 60
1, 432593, Note_off_c, 0, 56, 58
1, 432772, Note_on_c, 0, 48, 28
1, 432782, Note_on_c, 0, 63, 62
1, 432789, Note_on_c, 0, 38, 23
1, 432799, Note_on_c, 0, 55, 37
1, 432805, Note_on_c, 0, 42, 22
1, 432849, Note_off_c, 0, 55, 57
1, 432891, Note_off_c, 0, 48, 37
1, 432891, Note_off_c, 0, 63, 61
1, 432910, Poly_aftertouch_c, 0, 58, 127
1, 432984, Note_off_c, 0, 38, 38
1, 433079, Note_on_c, 0, 54, 44
1, 433122, Poly_aftertouch_c, 0, 58, 0
1, 433153, Note_off_c, 0, 54, 61
1, 433351, Poly_aftertouch_c, 0, 58, 127
1, 433383, Note_on_c, 0, 65, 61
1, 433386, Poly_aftertouch_c, 0, 58, 0
1, 433388, Note_on_c, 0, 32, 29
1, 433398, Note_on_c, 0, 53, 36
1, 433426, Note_off_c, 0, 42, 36
1, 433465, Note_off_c, 0, 65, 58
1, 433552, Note_off_c, 0, 32, 43
1, 433628, Note_off_c, 0, 53, 41
1, 433663, Note_on_c, 0, 67, 70
1, 433680, Note_on_c, 0, 58, 46
1, 433737, Note_off_c, 0, 67, 61
1, 433914, Control_c, 0, 64, 106
1, 433929, Control_c, 0, 64, 86
1, 433944, Control_c, 0, 64, 74
1, 433947, Note_off_c, 0, 58, 52
1, 433959, Control_c, 0, 64, 67
1, 433964, Note_on_c, 0, 48, 27
1, 433974, Note_on_c, 0, 57, 40
1, 433974, Control_c, 0, 64, 64
1, 433974, Note_on_c, 0, 60, 56
1, 433976, Note_on_c, 0, 43, 19
1, 433977, Note_on_c, 0, 40, 24
1, 433988, Control_c, 0, 64, 63
1, 434018, Control_c, 0, 64, 64
1, 434040, Control_c, 0, 64, 66
1, 434055, Control_c, 0, 64, 70
1, 434070, Control_c, 0, 64, 75
1, 434085, Control_c, 0, 64, 81
1, 434100, Control_c, 0, 64, 90
1, 434100, Control_c, 0, 67, 120
1, 434114, Control_c, 0, 64, 100
1, 434129, Control_c, 0, 64, 113
1, 434144, Control_c, 0, 64, 127
1, 434162, Note_off_c, 0, 43, 21
1, 434174, Note_off_c, 0, 60, 33
1, 434214, Note_off_c, 0, 48, 37
1, 434220, Note_off_c, 0, 57, 53
1, 434245, Note_off_c, 0, 40, 42
1, 434265, Note_on_c, 0, 56, 35
1, 434539, Note_off_c, 0, 56, 41
1, 434573, Note_on_c, 0, 60, 50
1, 434573, Note_on_c, 0, 40, 34
1, 434584, Note_on_c, 0, 55, 35
1, 434601, Poly_aftertouch_c, 0, 57, 127
1, 434737, Control_c, 0, 67, 121
1, 434801, Note_off_c, 0, 60, 55
1, 434813, Note_off_c, 0, 55, 41
1, 434818, Control_c, 0, 64, 123
1, 434833, Control_c, 0, 64, 117
1, 434848, Control_c, 0, 64, 115
1, 434865, Note_on_c, 0, 54, 40
1, 434877, Control_c, 0, 64, 114
1, 434892, Control_c, 0, 64, 113
1, 434936, Poly_aftertouch_c, 0, 57, 0
1, 435012, Control_c, 0, 64, 111
1, 435026, Control_c, 0, 64, 109
1, 435041, Control_c, 0, 64, 103
1, 435056, Control_c, 0, 64, 93
1, 435071, Control_c, 0, 64, 82
1, 435083, Note_off_c, 0, 54, 58
1, 435085, Control_c, 0, 64, 72
1, 435100, Control_c, 0, 64, 67
1, 435115, Control_c, 0, 64, 65
1, 435120, Note_off_c, 0, 40, 41
1, 435130, Control_c, 0, 64, 64
1, 435144, Note_on_c, 0, 32, 29
1, 435144, Note_on_c, 0, 63, 56
1, 435145, Control_c, 0, 64, 65
1, 435160, Control_c, 0, 64, 66
1, 435167, Note_on_c, 0, 53, 27
1, 435175, Control_c, 0, 64, 67
1, 435190, Control_c, 0, 64, 70
1, 435190, Control_c, 0, 67, 122
1, 435204, Control_c, 0, 64, 75
1, 435219, Control_c, 0, 64, 82
1, 435234, Control_c, 0, 64, 91
1, 435249, Control_c, 0, 64, 100
1, 435264, Control_c, 0, 64, 119
1, 435278, Control_c, 0, 64, 127
1, 435315, Note_off_c, 0, 32, 44
1, 435347, Note_off_c, 0, 63, 37
1, 435425, Note_on_c, 0, 54, 43
1, 435427, Note_off_c, 0, 53, 41
1, 435601, Note_off_c, 0, 54, 57
1, 435611, Control_c, 0, 67, 121
1, 435700, Control_c, 0, 67, 120
1, 435713, Note_on_c, 0, 62, 53
1, 435717, Note_on_c, 0, 43, 28
1, 435740, Note_on_c, 0, 55, 34
1, 435740, Note_on_c, 0, 59, 23
1, 435744, Note_on_c, 0, 47, 26
1, 435749, Note_on_c, 0, 38, 19
1, 435857, Note_off_c, 0, 43, 36
1, 435860, Note_off_c, 0, 62, 55
1, 435878, Note_off_c, 0, 47, 32
1, 435897, Note_off_c, 0, 38, 29
1, 435946, Note_off_c, 0, 55, 41
1, 435951, Note_off_c, 0, 59, 38
1, 435983, Note_on_c, 0, 54, 45
1, 436100, Control_c, 0, 67, 121
1, 436209, Note_off_c, 0, 54, 40
1, 436281, Note_on_c, 0, 60, 55
1, 436286, Note_on_c, 0, 32, 29
1, 436296, Note_on_c, 0, 53, 34
1, 436448, Note_off_c, 0, 32, 44
1, 436497, Note_off_c, 0, 60, 35
1, 436524, Note_off_c, 0, 53, 43
1, 436547, Note_on_c, 0, 52, 42
1, 436746, Control_c, 0, 64, 121
1, 436761, Control_c, 0, 64, 97
1, 436776, Control_c, 0, 64, 84
1, 436791, Control_c, 0, 64, 75
1, 436805, Note_off_c, 0, 52, 42
1, 436805, Control_c, 0, 64, 69
1, 436820, Control_c, 0, 64, 66
1, 436827, Note_on_c, 0, 58, 53
1, 436828, Note_on_c, 0, 51, 44
1, 436835, Control_c, 0, 64, 66
1, 436838, Note_on_c, 0, 42, 23
1, 436840, Note_on_c, 0, 48, 19
1, 436850, Control_c, 0, 64, 67
1, 436856, Note_on_c, 0, 55, 22
1, 436860, Note_on_c, 0, 38, 23
1, 436865, Control_c, 0, 64, 69
1, 436880, Control_c, 0, 64, 73
1, 436895, Control_c, 0, 64, 79
1, 436910, Control_c, 0, 64, 88
1, 436924, Control_c, 0, 64, 100
1, 436939, Control_c, 0, 64, 127
1, 436965, Note_off_c, 0, 48, 34
1, 436993, Note_off_c, 0, 51, 25
1, 437041, Note_off_c, 0, 38, 40
1, 437079, Note_off_c, 0, 58, 33
1, 437114, Note_on_c, 0, 50, 38
1, 437163, Note_off_c, 0, 50, 58
1, 437169, Note_off_c, 0, 42, 42
1, 437272, Control_c, 0, 67, 122
1, 437384, Note_on_c, 0, 32, 32
1, 437394, Note_on_c, 0, 60, 54
1, 437396, Note_on_c, 0, 48, 43
1, 437407, Control_c, 0, 67, 122
1, 437413, Note_off_c, 0, 55, 43
1, 437495, Note_off_c, 0, 60, 57
1, 437540, Note_off_c, 0, 32, 39
1, 437572, Note_off_c, 0, 48, 37
1, 437660, Note_on_c, 0, 62, 62
1, 437664, Note_on_c, 0, 54, 51
1, 437718, Control_c, 0, 67, 123
1, 437753, Note_off_c, 0, 62, 60
1, 437813, Control_c, 0, 67, 124
1, 437843, Control_c, 0, 67, 124
1, 437873, Control_c, 0, 64, 111
1, 437887, Control_c, 0, 64, 90
1, 437887, Control_c, 0, 67, 125
1, 437902, Control_c, 0, 64, 77
1, 437902, Control_c, 0, 67, 125
1, 437917, Control_c, 0, 64, 68
1, 437932, Control_c, 0, 64, 63
1, 437932, Control_c, 0, 67, 127
1, 437944, Note_off_c, 0, 54, 54
1, 437947, Control_c, 0, 64, 61
1, 437947, Control_c, 0, 67, 127
1, 437960, Note_on_c, 0, 57, 51
1, 437962, Control_c, 0, 64, 61
1, 437972, Note_on_c, 0, 53, 36
1, 437977, Note_on_c, 0, 48, 33
1, 437977, Control_c, 0, 64, 63
1, 437990, Note_on_c, 0, 40, 22
1, 437992, Note_on_c, 0, 43, 12
1, 437992, Control_c, 0, 64, 65
1, 438006, Control_c, 0, 64, 67
1, 438021, Control_c, 0, 64, 71
1, 438036, Control_c, 0, 64, 76
1, 438051, Control_c, 0, 64, 81
1, 438066, Control_c, 0, 64, 87
1, 438080, Control_c, 0, 64, 92
1, 438095, Control_c, 0, 64, 100
1, 438110, Control_c, 0, 64, 118
1, 438125, Control_c, 0, 64, 127
1, 438132, Note_off_c, 0, 57, 58
1, 438175, Note_off_c, 0, 48, 37
1, 438221, Note_off_c, 0, 53, 42
1, 438232, Note_on_c, 0, 52, 47
1, 438287, Note_off_c, 0, 40, 41
1, 438287, Note_off_c, 0, 52, 58
1, 438436, Control_c, 0, 64, 118
1, 438451, Control_c, 0, 64, 111
1, 438466, Control_c, 0, 64, 104
1, 438481, Control_c, 0, 64, 98
1, 438496, Control_c, 0, 64, 90
1, 438510, Control_c, 0, 64, 80
1, 438533, Control_c, 0, 64, 70
1, 438534, Note_on_c, 0, 57, 45
1, 438537, Note_on_c, 0, 51, 37
1, 438548, Control_c, 0, 64, 63
1, 438552, Note_on_c, 0, 35, 33
1, 438561, Note_on_c, 0, 53, 23
1, 438563, Control_c, 0, 64, 56
1, 438567, Note_off_c, 0, 43, 38
1, 438577, Control_c, 0, 64, 53
1, 438592, Control_c, 0, 64, 54
1, 438607, Control_c, 0, 64, 56
1, 438621, Control_c, 0, 64, 59
1, 438636, Control_c, 0, 64, 61
1, 438651, Control_c, 0, 64, 63
1, 438666, Control_c, 0, 64, 65
1, 438681, Control_c, 0, 64, 67
1, 438695, Control_c, 0, 64, 69
1, 438701, Note_off_c, 0, 51, 38
1, 438710, Control_c, 0, 64, 72
1, 438725, Control_c, 0, 64, 75
1, 438740, Control_c, 0, 64, 78
1, 438755, Control_c, 0, 64, 84
1, 438770, Control_c, 0, 64, 92
1, 438785, Control_c, 0, 64, 102
1, 438800, Control_c, 0, 64, 116
1, 438814, Control_c, 0, 64, 127
1, 438831, Note_off_c, 0, 53, 36
1, 438873, Note_on_c, 0, 50, 34
1, 438901, Note_off_c, 0, 57, 39
1, 438907, Note_off_c, 0, 50, 50
1, 439282, Control_c, 0, 64, 110
1, 439297, Control_c, 0, 64, 100
1, 439312, Control_c, 0, 64, 89
1, 439326, Control_c, 0, 64, 77
1, 439341, Control_c, 0, 64, 68
1, 439356, Control_c, 0, 64, 62
1, 439363, Note_on_c, 0, 84, 64
1, 439371, Control_c, 0, 64, 58
1, 439373, Note_off_c, 0, 35, 36
1, 439378, Note_on_c, 0, 77, 49
1, 439382, Note_on_c, 0, 79, 35
1, 439385, Note_on_c, 0, 36, 19
1, 439386, Control_c, 0, 64, 59
1, 439400, Control_c, 0, 64, 61
1, 439413, Note_off_c, 0, 79, 54
1, 439415, Control_c, 0, 64, 63
1, 439430, Control_c, 0, 64, 66
1, 439444, Control_c, 0, 64, 69
1, 439445, Note_off_c, 0, 77, 50
1, 439459, Control_c, 0, 64, 74
1, 439474, Control_c, 0, 64, 80
1, 439489, Control_c, 0, 64, 88
1, 439504, Control_c, 0, 64, 101
1, 439518, Control_c, 0, 64, 127
1, 439521, Note_off_c, 0, 36, 34
1, 439633, Note_off_c, 0, 84, 56
1, 439689, Note_on_c, 0, 88, 42
1, 439717, Note_on_c, 0, 76, 23
1, 439737, Note_off_c, 0, 88, 52
1, 439767, Note_off_c, 0, 76, 57
1, 439991, Note_on_c, 0, 83, 65
1, 439995, Note_on_c, 0, 71, 35
1, 439999, Note_on_c, 0, 63, 32
1, 440014, Note_on_c, 0, 75, 50
1, 440029, Note_on_c, 0, 66, 22
1, 440068, Note_off_c, 0, 71, 55
1, 440081, Note_off_c, 0, 66, 46
1, 440091, Poly_aftertouch_c, 0, 78, 0
1, 440093, Note_off_c, 0, 75, 56
1, 440101, Note_off_c, 0, 63, 53
1, 440275, Note_on_c, 0, 86, 53
1, 440279, Note_off_c, 0, 83, 48
1, 440297, Note_on_c, 0, 74, 33
1, 440318, Note_off_c, 0, 86, 54
1, 440354, Note_off_c, 0, 74, 57
1, 440549, Note_on_c, 0, 81, 68
1, 440568, Note_on_c, 0, 73, 54
1, 440578, Note_on_c, 0, 36, 36
1, 440606, Note_on_c, 0, 48, 8
1, 440633, Note_off_c, 0, 36, 53
1, 440653, Note_off_c, 0, 73, 55
1, 440657, Note_off_c, 0, 48, 47
1, 440833, Note_off_c, 0, 81, 45
1, 440848, Note_on_c, 0, 84, 40
1, 440855, Note_on_c, 0, 72, 30
1, 440877, Note_off_c, 0, 84, 51
1, 440923, Note_off_c, 0, 72, 43
1, 441107, Note_on_c, 0, 79, 66
1, 441125, Note_on_c, 0, 58, 28
1, 441129, Note_on_c, 0, 64, 26
1, 441131, Note_on_c, 0, 71, 46
1, 441133, Note_on_c, 0, 54, 36
1, 441156, Note_on_c, 0, 74, 6
1, 441180, Note_off_c, 0, 71, 59
1, 441199, Note_off_c, 0, 74, 37
1, 441200, Note_off_c, 0, 64, 53
1, 441214, Note_off_c, 0, 58, 46
1, 441307, Note_off_c, 0, 54, 43
1, 441420, Note_on_c, 0, 82, 48
1, 441424, Note_on_c, 0, 70, 35
1, 441504, Note_off_c, 0, 70, 47
1, 441506, Note_off_c, 0, 82, 55
1, 441659, Note_on_c, 0, 81, 61
1, 441673, Note_off_c, 0, 79, 45
1, 441678, Note_on_c, 0, 36, 36
1, 441679, Note_on_c, 0, 69, 43
1, 441713, Note_on_c, 0, 48, 14
1, 441736, Note_off_c, 0, 36, 55
1, 441757, Note_off_c, 0, 81, 59
1, 441767, Note_off_c, 0, 48, 45
1, 441816, Note_off_c, 0, 69, 28
1, 441936, Note_on_c, 0, 83, 68
1, 441944, Note_on_c, 0, 74, 49
1, 441983, Note_off_c, 0, 74, 64
1, 442014, Note_off_c, 0, 83, 58
1, 442210, Note_on_c, 0, 76, 56
1, 442215, Note_on_c, 0, 73, 48
1, 442235, Note_on_c, 0, 64, 31
1, 442247, Note_on_c, 0, 59, 16
1, 442248, Note_on_c, 0, 56, 24
1, 442302, Note_off_c, 0, 59, 49
1, 442315, Note_off_c, 0, 64, 55
1, 442336, Note_off_c, 0, 73, 0
1, 442380, Poly_aftertouch_c, 0, 73, 0
1, 442387, Note_off_c, 0, 56, 38
1, 442458, Note_off_c, 0, 76, 49
1, 442525, Note_on_c, 0, 72, 32
1, 442585, Note_off_c, 0, 72, 39
1, 442770, Note_on_c, 0, 76, 49
1, 442784, Note_on_c, 0, 44, 40
1, 442797, Note_on_c, 0, 73, 36
1, 442809, Note_on_c, 0, 71, 37
1, 442870, Note_off_c, 0, 76, 57
1, 443015, Note_off_c, 0, 71, 37
1, 443018, Note_off_c, 0, 73, 35
1, 443070, Note_on_c, 0, 70, 41
1, 443123, Note_off_c, 0, 70, 56
1, 443314, Note_off_c, 0, 44, 39
1, 443328, Note_on_c, 0, 36, 31
1, 443342, Note_on_c, 0, 79, 64
1, 443368, Note_on_c, 0, 69, 43
1, 443381, Note_off_c, 0, 36, 55
1, 443397, Note_off_c, 0, 69, 54
1, 443421, Note_off_c, 0, 79, 65
1, 443642, Note_on_c, 0, 70, 52
1, 443649, Note_on_c, 0, 84, 27
1, 443693, Note_off_c, 0, 84, 46
1, 443760, Note_off_c, 0, 70, 38
1, 443912, Note_on_c, 0, 78, 71
1, 443924, Note_on_c, 0, 63, 28
1, 443929, Note_on_c, 0, 71, 55
1, 443930, Note_on_c, 0, 59, 12
1, 443933, Note_on_c, 0, 54, 34
1, 443980, Note_off_c, 0, 59, 51
1, 443982, Note_off_c, 0, 63, 52
1, 443983, Note_off_c, 0, 71, 52
1, 444049, Note_off_c, 0, 54, 43
1, 444153, Note_off_c, 0, 78, 53
1, 444198, Note_on_c, 0, 82, 46
1, 444227, Note_on_c, 0, 70, 36
1, 444246, Note_off_c, 0, 82, 60
1, 444264, Note_off_c, 0, 70, 51
1, 444461, Note_on_c, 0, 36, 35
1, 444466, Note_on_c, 0, 76, 64
1, 444479, Note_on_c, 0, 73, 48
1, 444490, Note_on_c, 0, 69, 45
1, 444531, Note_off_c, 0, 73, 58
1, 444541, Note_off_c, 0, 69, 61
1, 444541, Note_off_c, 0, 36, 52
1, 444693, Note_off_c, 0, 76, 49
1, 444773, Note_on_c, 0, 80, 38
1, 444793, Note_on_c, 0, 68, 35
1, 444839, Note_off_c, 0, 80, 49
1, 444874, Note_off_c, 0, 68, 38
1, 445019, Note_on_c, 0, 64, 33
1, 445021, Note_on_c, 0, 58, 27
1, 445022, Note_on_c, 0, 74, 58
1, 445027, Note_on_c, 0, 54, 34
1, 445036, Note_on_c, 0, 71, 43
1, 445049, Note_on_c, 0, 67, 40
1, 445097, Note_off_c, 0, 58, 53
1, 445097, Note_off_c, 0, 71, 55
1, 445097, Note_off_c, 0, 64, 56
1, 445104, Note_off_c, 0, 67, 57
1, 445173, Note_off_c, 0, 54, 34
1, 445319, Note_off_c, 0, 74, 56
1, 445327, Note_on_c, 0, 78, 35
1, 445337, Note_on_c, 0, 66, 36
1, 445401, Note_off_c, 0, 66, 54
1, 445432, Note_off_c, 0, 78, 46
1, 445577, Note_on_c, 0, 76, 59
1, 445581, Note_on_c, 0, 36, 34
1, 445594, Note_on_c, 0, 64, 49
1, 445647, Note_off_c, 0, 64, 57
1, 445650, Note_off_c, 0, 36, 49
1, 445688, Note_off_c, 0, 76, 62
1, 445846, Note_on_c, 0, 78, 64
1, 445864, Note_on_c, 0, 70, 51
1, 445942, Note_off_c, 0, 78, 61
1, 446132, Note_off_c, 0, 70, 55
1, 446136, Note_on_c, 0, 73, 60
1, 446139, Note_on_c, 0, 56, 35
1, 446144, Note_on_c, 0, 64, 32
1, 446152, Note_on_c, 0, 69, 49
1, 446156, Note_on_c, 0, 59, 14
1, 446199, Note_off_c, 0, 59, 51
1, 446201, Note_off_c, 0, 64, 56
1, 446237, Note_off_c, 0, 56, 51
1, 446267, Note_off_c, 0, 73, 57
1, 446422, Note_off_c, 0, 69, 33
1, 446434, Note_on_c, 0, 68, 44
1, 446594, Note_off_c, 0, 68, 34
1, 446683, Note_on_c, 0, 73, 51
1, 446705, Note_on_c, 0, 44, 32
1, 446709, Note_on_c, 0, 67, 29
1, 446717, Note_on_c, 0, 69, 17
1, 446886, Note_off_c, 0, 67, 43
1, 446893, Note_off_c, 0, 73, 38
1, 446977, Note_on_c, 0, 66, 35
1, 446981, Note_off_c, 0, 69, 43
1, 447010, Note_off_c, 0, 66, 60
1, 447213, Control_c, 0, 64, 94
1, 447228, Control_c, 0, 64, 77
1, 447243, Control_c, 0, 64, 68
1, 447244, Note_off_c, 0, 44, 35
1, 447258, Control_c, 0, 64, 64
1, 447259, Note_on_c, 0, 72, 60
1, 447268, Note_on_c, 0, 36, 28
1, 447273, Control_c, 0, 64, 64
1, 447279, Note_on_c, 0, 67, 18
1, 447282, Note_on_c, 0, 65, 37
1, 447287, Control_c, 0, 64, 66
1, 447302, Control_c, 0, 64, 68
1, 447317, Control_c, 0, 64, 73
1, 447319, Note_off_c, 0, 67, 49
1, 447331, Control_c, 0, 64, 80
1, 447346, Control_c, 0, 64, 91
1, 447355, Note_off_c, 0, 65, 49
1, 447361, Control_c, 0, 64, 107
1, 447376, Control_c, 0, 64, 127
1, 447442, Note_off_c, 0, 36, 42
1, 447514, Note_off_c, 0, 72, 58
1, 447552, Note_on_c, 0, 76, 49
1, 447605, Note_off_c, 0, 76, 58
1, 447620, Note_on_c, 0, 64, 4
1, 447668, Note_off_c, 0, 64, 38
1, 447824, Note_on_c, 0, 71, 66
1, 447842, Note_on_c, 0, 66, 39
1, 447852, Note_on_c, 0, 51, 32
1, 447853, Note_on_c, 0, 59, 17
1, 447856, Note_on_c, 0, 54, 27
1, 447858, Note_on_c, 0, 63, 36
1, 447885, Note_off_c, 0, 66, 48
1, 447914, Note_off_c, 0, 59, 44
1, 447914, Note_off_c, 0, 63, 48
1, 447941, Note_off_c, 0, 54, 39
1, 447971, Note_off_c, 0, 51, 37
1, 448115, Note_off_c, 0, 71, 55
1, 448125, Note_on_c, 0, 74, 49
1, 448134, Note_on_c, 0, 62, 35
1, 448170, Note_off_c, 0, 74, 60
1, 448198, Note_off_c, 0, 62, 58
1, 448398, Note_on_c, 0, 69, 66
1, 448422, Note_on_c, 0, 36, 21
1, 448426, Note_on_c, 0, 61, 41
1, 448429, Note_on_c, 0, 64, 25
1, 448473, Note_off_c, 0, 64, 48
1, 448535, Note_off_c, 0, 61, 51
1, 448580, Note_off_c, 0, 36, 42
1, 448682, Note_off_c, 0, 69, 54
1, 448701, Note_on_c, 0, 72, 52
1, 448703, Note_on_c, 0, 60, 39
1, 448741, Note_off_c, 0, 72, 58
1, 448763, Note_off_c, 0, 60, 58
1, 448956, Note_on_c, 0, 67, 65
1, 448973, Note_on_c, 0, 52, 29
1, 448979, Note_on_c, 0, 62, 41
1, 448982, Note_on_c, 0, 42, 32
1, 448984, Note_on_c, 0, 59, 39
1, 449035, Note_off_c, 0, 59, 58
1, 449042, Poly_aftertouch_c, 0, 46, 127
1, 449080, Note_off_c, 0, 52, 38
1, 449081, Poly_aftertouch_c, 0, 46, 0
1, 449153, Note_off_c, 0, 42, 34
1, 449195, Note_off_c, 0, 62, 23
1, 449248, Note_on_c, 0, 58, 29
1, 449249, Note_on_c, 0, 70, 43
1, 449324, Note_off_c, 0, 70, 48
1, 449358, Note_off_c, 0, 58, 38
1, 449498, Note_on_c, 0, 69, 65
1, 449507, Note_on_c, 0, 57, 46
1, 449525, Note_on_c, 0, 36, 36
1, 449543, Note_off_c, 0, 67, 40
1, 449601, Note_off_c, 0, 36, 53
1, 449653, Note_off_c, 0, 69, 60
1, 449663, Note_off_c, 0, 57, 60
1, 449764, Note_on_c, 0, 71, 75
1, 449786, Note_on_c, 0, 62, 43
1, 449827, Note_off_c, 0, 62, 60
1, 449872, Note_off_c, 0, 71, 61
1, 450016, Control_c, 0, 64, 91
1, 450031, Control_c, 0, 64, 76
1, 450043, Note_on_c, 0, 64, 58
1, 450045, Note_on_c, 0, 61, 47
1, 450046, Control_c, 0, 64, 68
1, 450052, Note_on_c, 0, 47, 29
1, 450052, Note_on_c, 0, 52, 35
1, 450060, Control_c, 0, 64, 64
1, 450063, Note_on_c, 0, 44, 20
1, 450075, Control_c, 0, 64, 63
1, 450090, Control_c, 0, 64, 64
1, 450105, Control_c, 0, 64, 66
1, 450120, Control_c, 0, 64, 68
1, 450134, Control_c, 0, 64, 73
1, 450150, Control_c, 0, 64, 81
1, 450165, Control_c, 0, 64, 93
1, 450180, Control_c, 0, 64, 107
1, 450195, Control_c, 0, 64, 127
1, 450259, Note_off_c, 0, 47, 37
1, 450274, Note_off_c, 0, 61, 31
1, 450283, Note_off_c, 0, 52, 41
1, 450320, Note_off_c, 0, 44, 38
1, 450336, Note_off_c, 0, 64, 61
1, 450341, Note_on_c, 0, 60, 50
1, 450478, Note_off_c, 0, 60, 32
1, 450589, Note_on_c, 0, 64, 56
1, 450617, Note_on_c, 0, 61, 39
1, 450621, Note_on_c, 0, 44, 28
1, 450623, Note_on_c, 0, 59, 34
1, 450801, Note_off_c, 0, 59, 42
1, 450842, Note_off_c, 0, 61, 39
1, 450863, Note_off_c, 0, 64, 35
1, 450864, Note_on_c, 0, 58, 54
1, 450977, Note_off_c, 0, 58, 57
1, 451046, Control_c, 0, 64, 93
1, 451061, Control_c, 0, 64, 76
1, 451076, Control_c, 0, 64, 67
1, 451091, Control_c, 0, 64, 62
1, 451105, Note_off_c, 0, 44, 37
1, 451106, Control_c, 0, 64, 62
1, 451120, Control_c, 0, 64, 64
1, 451129, Note_on_c, 0, 67, 65
1, 451131, Note_on_c, 0, 36, 37
1, 451135, Control_c, 0, 64, 66
1, 451145, Note_on_c, 0, 57, 50
1, 451150, Control_c, 0, 64, 70
1, 451151, Note_on_c, 0, 63, 39
1, 451165, Control_c, 0, 64, 77
1, 451179, Control_c, 0, 64, 86
1, 451184, Note_off_c, 0, 63, 58
1, 451185, Note_off_c, 0, 57, 52
1, 451194, Control_c, 0, 64, 100
1, 451209, Control_c, 0, 64, 127
1, 451215, Note_off_c, 0, 67, 62
1, 451237, Note_off_c, 0, 36, 37
1, 451400, Note_on_c, 0, 72, 49
1, 451412, Note_on_c, 0, 58, 37
1, 451477, Note_off_c, 0, 72, 56
1, 451540, Note_off_c, 0, 58, 44
1, 451656, Note_on_c, 0, 51, 42
1, 451666, Note_on_c, 0, 66, 61
1, 451672, Note_on_c, 0, 42, 33
1, 451677, Note_on_c, 0, 59, 46
1, 451685, Note_on_c, 0, 47, 15
1, 451685, Note_on_c, 0, 63, 47
1, 451730, Note_off_c, 0, 47, 48
1, 451734, Note_off_c, 0, 51, 53
1, 451748, Note_off_c, 0, 59, 56
1, 451751, Note_off_c, 0, 63, 48
1, 451789, Note_off_c, 0, 42, 48
1, 451954, Note_on_c, 0, 70, 44
1, 451963, Note_on_c, 0, 58, 41
1, 451978, Note_off_c, 0, 66, 36
1, 452039, Note_off_c, 0, 58, 54
1, 452121, Note_off_c, 0, 70, 29
1, 452212, Note_on_c, 0, 64, 58
1, 452215, Note_on_c, 0, 61, 49
1, 452223, Note_on_c, 0, 36, 38
1, 452232, Note_on_c, 0, 57, 47
1, 452250, Note_off_c, 0, 61, 51
1, 452305, Note_off_c, 0, 57, 56
1, 452326, Note_off_c, 0, 36, 37
1, 452456, Note_off_c, 0, 64, 54
1, 452500, Note_on_c, 0, 68, 47
1, 452514, Note_on_c, 0, 56, 40
1, 452601, Note_off_c, 0, 56, 48
1, 452693, Note_off_c, 0, 68, 34
1, 452708, Control_c, 0, 64, 106
1, 452723, Control_c, 0, 64, 90
1, 452738, Control_c, 0, 64, 77
1, 452759, Control_c, 0, 64, 69
1, 452767, Note_on_c, 0, 55, 44
1, 452770, Note_on_c, 0, 52, 41
1, 452773, Note_on_c, 0, 46, 30
1, 452773, Note_on_c, 0, 62, 52
1, 452774, Control_c, 0, 64, 64
1, 452777, Note_on_c, 0, 42, 36
1, 452779, Note_on_c, 0, 59, 36
1, 452789, Control_c, 0, 64, 63
1, 452804, Control_c, 0, 64, 64
1, 452819, Control_c, 0, 64, 65
1, 452834, Control_c, 0, 64, 66
1, 452844, Note_off_c, 0, 55, 57
1, 452849, Control_c, 0, 64, 69
1, 452863, Control_c, 0, 64, 73
1, 452878, Control_c, 0, 64, 78
1, 452893, Control_c, 0, 64, 84
1, 452908, Control_c, 0, 64, 89
1, 452923, Control_c, 0, 64, 93
1, 452938, Control_c, 0, 64, 98
1, 452949, Note_off_c, 0, 52, 32
1, 452952, Control_c, 0, 64, 104
1, 452967, Control_c, 0, 64, 115
1, 452982, Control_c, 0, 64, 127
1, 453045, Note_off_c, 0, 46, 40
1, 453075, Note_off_c, 0, 42, 35
1, 453077, Note_off_c, 0, 62, 57
1, 453082, Note_on_c, 0, 66, 39
1, 453086, Note_on_c, 0, 54, 39
1, 453131, Note_off_c, 0, 59, 39
1, 453166, Note_off_c, 0, 66, 61
1, 453172, Note_off_c, 0, 54, 57
1, 453293, Control_c, 0, 64, 118
1, 453308, Control_c, 0, 64, 104
1, 453323, Control_c, 0, 64, 89
1, 453337, Control_c, 0, 64, 74
1, 453352, Note_on_c, 0, 64, 56
1, 453353, Control_c, 0, 64, 66
1, 453361, Note_on_c, 0, 49, 44
1, 453362, Note_on_c, 0, 52, 48
1, 453364, Note_on_c, 0, 37, 42
1, 453367, Control_c, 0, 64, 62
1, 453382, Control_c, 0, 64, 61
1, 453397, Control_c, 0, 64, 62
1, 453412, Control_c, 0, 64, 63
1, 453427, Control_c, 0, 64, 64
1, 453442, Control_c, 0, 64, 66
1, 453457, Control_c, 0, 64, 70
1, 453472, Control_c, 0, 64, 74
1, 453487, Control_c, 0, 64, 79
1, 453505, Note_off_c, 0, 64, 59
1, 453509, Control_c, 0, 64, 83
1, 453523, Control_c, 0, 64, 86
1, 453531, Note_off_c, 0, 52, 34
1, 453538, Control_c, 0, 64, 89
1, 453553, Control_c, 0, 64, 92
1, 453568, Control_c, 0, 64, 96
1, 453582, Control_c, 0, 64, 101
1, 453597, Control_c, 0, 64, 106
1, 453612, Control_c, 0, 64, 108
1, 453627, Control_c, 0, 64, 109
1, 453642, Control_c, 0, 64, 110
1, 453652, Note_on_c, 0, 66, 53
1, 453656, Control_c, 0, 64, 111
1, 453663, Note_on_c, 0, 58, 47
1, 453671, Control_c, 0, 64, 112
1, 453686, Control_c, 0, 64, 114
1, 453758, Note_off_c, 0, 66, 56
1, 453790, Control_c, 0, 64, 113
1, 453805, Control_c, 0, 64, 113
1, 453864, Control_c, 0, 64, 112
1, 453875, Note_off_c, 0, 49, 38
1, 453879, Control_c, 0, 64, 111
1, 453894, Control_c, 0, 64, 111
1, 453909, Control_c, 0, 64, 110
1, 453923, Control_c, 0, 64, 110
1, 453937, Note_on_c, 0, 61, 57
1, 453944, Note_on_c, 0, 57, 50
1, 453947, Note_off_c, 0, 58, 37
1, 453953, Control_c, 0, 64, 109
1, 453982, Control_c, 0, 64, 108
1, 453997, Control_c, 0, 64, 108
1, 454012, Control_c, 0, 64, 107
1, 454041, Control_c, 0, 64, 107
1, 454056, Control_c, 0, 64, 106
1, 454071, Control_c, 0, 64, 106
1, 454101, Control_c, 0, 64, 105
1, 454115, Control_c, 0, 64, 105
1, 454130, Control_c, 0, 64, 104
1, 454146, Control_c, 0, 64, 103
1, 454161, Control_c, 0, 64, 103
1, 454190, Control_c, 0, 64, 102
1, 454205, Control_c, 0, 64, 102
1, 454211, Note_off_c, 0, 57, 50
1, 454214, Note_on_c, 0, 56, 53
1, 454220, Control_c, 0, 64, 101
1, 454235, Control_c, 0, 64, 100
1, 454258, Control_c, 0, 64, 99
1, 454317, Control_c, 0, 64, 99
1, 454332, Control_c, 0, 64, 98
1, 454346, Control_c, 0, 64, 98
1, 454405, Control_c, 0, 64, 98
1, 454420, Control_c, 0, 64, 99
1, 454465, Control_c, 0, 64, 98
1, 454479, Control_c, 0, 64, 96
1, 454494, Control_c, 0, 64, 91
1, 454509, Control_c, 0, 64, 81
1, 454524, Control_c, 0, 64, 70
1, 454539, Control_c, 0, 64, 63
1, 454551, Note_on_c, 0, 46, 33
1, 454554, Control_c, 0, 64, 55
1, 454557, Note_on_c, 0, 34, 41
1, 454558, Note_off_c, 0, 56, 60
1, 454560, Note_on_c, 0, 64, 57
1, 454569, Control_c, 0, 64, 53
1, 454578, Note_on_c, 0, 55, 38
1, 454583, Control_c, 0, 64, 54
1, 454598, Control_c, 0, 64, 56
1, 454600, Note_off_c, 0, 37, 32
1, 454613, Control_c, 0, 64, 60
1, 454628, Control_c, 0, 64, 63
1, 454643, Control_c, 0, 64, 66
1, 454658, Control_c, 0, 64, 69
1, 454672, Control_c, 0, 64, 74
1, 454687, Control_c, 0, 64, 80
1, 454701, Control_c, 0, 64, 85
1, 454713, Note_off_c, 0, 61, 0
1, 454715, Control_c, 0, 64, 89
1, 454730, Control_c, 0, 64, 93
1, 454745, Control_c, 0, 64, 96
1, 454751, Poly_aftertouch_c, 0, 61, 127
1, 454760, Control_c, 0, 64, 99
1, 454762, Note_off_c, 0, 55, 58
1, 454775, Control_c, 0, 64, 100
1, 454786, Note_off_c, 0, 64, 52
1, 454804, Control_c, 0, 64, 101
1, 454871, Poly_aftertouch_c, 0, 61, 0
1, 454926, Note_on_c, 0, 64, 54
1, 454940, Note_on_c, 0, 54, 56
1, 455087, Note_off_c, 0, 64, 57
1, 455111, Note_off_c, 0, 54, 57
1, 455211, Note_on_c, 0, 53, 60
1, 455215, Note_on_c, 0, 61, 52
1, 455242, Control_c, 0, 64, 100
1, 455302, Control_c, 0, 67, 127
1, 455317, Control_c, 0, 67, 122
1, 455328, Note_off_c, 0, 53, 55
1, 455332, Control_c, 0, 67, 117
1, 455336, Note_off_c, 0, 61, 53
1, 455346, Control_c, 0, 67, 109
1, 455361, Control_c, 0, 67, 102
1, 455376, Control_c, 0, 67, 94
1, 455391, Control_c, 0, 67, 86
1, 455406, Control_c, 0, 64, 101
1, 455406, Control_c, 0, 67, 78
1, 455420, Control_c, 0, 64, 101
1, 455420, Control_c, 0, 67, 70
1, 455435, Control_c, 0, 67, 62
1, 455450, Control_c, 0, 67, 55
1, 455465, Note_on_c, 0, 53, 60
1, 455465, Control_c, 0, 67, 49
1, 455469, Note_on_c, 0, 61, 60
1, 455480, Control_c, 0, 67, 44
1, 455494, Control_c, 0, 64, 102
1, 455494, Control_c, 0, 67, 38
1, 455509, Control_c, 0, 67, 33
1, 455524, Control_c, 0, 67, 28
1, 455538, Control_c, 0, 67, 21
1, 455553, Control_c, 0, 67, 17
1, 455568, Control_c, 0, 67, 13
1, 455576, Note_off_c, 0, 53, 56
1, 455583, Control_c, 0, 67, 11
1, 455597, Note_off_c, 0, 61, 55
1, 455598, Control_c, 0, 67, 8
1, 455612, Control_c, 0, 67, 0
1, 455627, Control_c, 0, 64, 101
1, 455644, Note_off_c, 0, 34, 42
1, 455647, Note_off_c, 0, 46, 39
1, 455672, Control_c, 0, 64, 101
1, 455686, Control_c, 0, 64, 100
1, 455701, Control_c, 0, 64, 100
1, 455716, Control_c, 0, 64, 99
1, 455731, Control_c, 0, 64, 96
1, 455755, Control_c, 0, 64, 90
1, 455769, Note_on_c, 0, 53, 67
1, 455769, Control_c, 0, 64, 80
1, 455772, Note_on_c, 0, 35, 49
1, 455773, Note_on_c, 0, 63, 63
1, 455773, Note_on_c, 0, 47, 61
1, 455784, Control_c, 0, 64, 69
1, 455799, Control_c, 0, 64, 61
1, 455814, Control_c, 0, 64, 53
1, 455829, Control_c, 0, 64, 49
1, 455843, Control_c, 0, 64, 47
1, 455858, Control_c, 0, 64, 48
1, 455873, Control_c, 0, 64, 50
1, 455888, Control_c, 0, 64, 55
1, 455903, Control_c, 0, 64, 60
1, 455917, Control_c, 0, 64, 64
1, 455932, Control_c, 0, 64, 67
1, 455947, Control_c, 0, 64, 71
1, 455957, Note_off_c, 0, 63, 58
1, 455961, Control_c, 0, 64, 76
1, 455976, Control_c, 0, 64, 81
1, 455991, Control_c, 0, 64, 86
1, 456006, Control_c, 0, 64, 92
1, 456021, Control_c, 0, 64, 97
1, 456035, Control_c, 0, 64, 104
1, 456050, Control_c, 0, 64, 108
1, 456065, Control_c, 0, 64, 108
1, 456092, Note_on_c, 0, 63, 52
1, 456095, Control_c, 0, 64, 110
1, 456110, Control_c, 0, 64, 111
1, 456125, Control_c, 0, 64, 112
1, 456154, Control_c, 0, 64, 111
1, 456184, Control_c, 0, 64, 110
1, 456199, Control_c, 0, 64, 109
1, 456214, Control_c, 0, 64, 108
1, 456229, Control_c, 0, 64, 107
1, 456243, Control_c, 0, 64, 106
1, 456258, Control_c, 0, 64, 106
1, 456273, Control_c, 0, 64, 105
1, 456288, Control_c, 0, 64, 104
1, 456303, Control_c, 0, 64, 104
1, 456318, Note_off_c, 0, 63, 55
1, 456332, Control_c, 0, 64, 103
1, 456333, Note_on_c, 0, 59, 59
1, 456347, Control_c, 0, 64, 103
1, 456361, Control_c, 0, 64, 102
1, 456421, Control_c, 0, 64, 102
1, 456435, Control_c, 0, 64, 101
1, 456450, Control_c, 0, 64, 100
1, 456465, Control_c, 0, 64, 100
1, 456480, Control_c, 0, 64, 99
1, 456500, Note_off_c, 0, 53, 59
1, 456502, Control_c, 0, 64, 98
1, 456518, Note_off_c, 0, 59, 61
1, 456539, Note_off_c, 0, 47, 33
1, 456548, Control_c, 0, 64, 97
1, 456578, Control_c, 0, 64, 96
1, 456610, Note_on_c, 0, 53, 76
1, 456614, Note_on_c, 0, 59, 64
1, 456637, Control_c, 0, 64, 96
1, 456681, Control_c, 0, 64, 96
1, 456766, Note_off_c, 0, 59, 61
1, 456781, Note_off_c, 0, 53, 60
1, 456799, Control_c, 0, 64, 95
1, 456814, Control_c, 0, 64, 93
1, 456829, Control_c, 0, 64, 87
1, 456844, Control_c, 0, 64, 76
1, 456856, Note_on_c, 0, 44, 57
1, 456858, Note_on_c, 0, 32, 48
1, 456858, Note_on_c, 0, 53, 75
1, 456859, Control_c, 0, 64, 66
1, 456873, Note_on_c, 0, 61, 58
1, 456873, Control_c, 0, 64, 59
1, 456878, Note_off_c, 0, 35, 35
1, 456888, Control_c, 0, 64, 57
1, 456918, Control_c, 0, 64, 58
1, 456932, Control_c, 0, 64, 60
1, 456947, Control_c, 0, 64, 62
1, 456962, Control_c, 0, 64, 65
1, 456977, Control_c, 0, 64, 69
1, 456991, Control_c, 0, 64, 74
1, 457006, Control_c, 0, 64, 81
1, 457021, Control_c, 0, 64, 88
1, 457022, Note_off_c, 0, 61, 57
1, 457036, Control_c, 0, 64, 93
1, 457051, Control_c, 0, 64, 95
1, 457065, Control_c, 0, 64, 98
1, 457080, Control_c, 0, 64, 99
1, 457110, Control_c, 0, 64, 100
1, 457125, Control_c, 0, 64, 101
1, 457129, Note_on_c, 0, 61, 59
1, 457139, Control_c, 0, 64, 101
1, 457184, Control_c, 0, 64, 101
1, 457198, Control_c, 0, 64, 100
1, 457207, Note_off_c, 0, 61, 58
1, 457228, Control_c, 0, 64, 100
1, 457280, Control_c, 0, 64, 99
1, 457310, Control_c, 0, 64, 99
1, 457341, Control_c, 0, 64, 98
1, 457356, Control_c, 0, 64, 98
1, 457370, Control_c, 0, 64, 97
1, 457385, Control_c, 0, 64, 97
1, 457386, Note_on_c, 0, 63, 61
1, 457400, Control_c, 0, 64, 96
1, 457429, Control_c, 0, 64, 95
1, 457444, Control_c, 0, 64, 94
1, 457459, Control_c, 0, 64, 94
1, 457509, Note_off_c, 0, 63, 52
1, 457518, Control_c, 0, 64, 93
1, 457533, Control_c, 0, 64, 92
1, 457548, Control_c, 0, 64, 92
1, 457607, Control_c, 0, 64, 91
1, 457638, Note_on_c, 0, 63, 64
1, 457657, Note_off_c, 0, 44, 36
1, 457666, Control_c, 0, 64, 92
1, 457737, Note_off_c, 0, 53, 61
1, 457829, Control_c, 0, 64, 91
1, 457844, Control_c, 0, 64, 90
1, 457859, Control_c, 0, 64, 86
1, 457874, Control_c, 0, 64, 77
1, 457874, Note_on_c, 0, 46, 54
1, 457880, Note_on_c, 0, 34, 46
1, 457885, Note_off_c, 0, 63, 61
1, 457888, Note_on_c, 0, 54, 70
1, 457888, Control_c, 0, 64, 67
1, 457899, Note_on_c, 0, 64, 61
1, 457903, Control_c, 0, 64, 61
1, 457918, Control_c, 0, 64, 58
1, 457920, Note_off_c, 0, 32, 34
1, 457962, Control_c, 0, 64, 58
1, 457977, Control_c, 0, 64, 60
1, 458000, Control_c, 0, 64, 62
1, 458014, Control_c, 0, 64, 64
1, 458029, Control_c, 0, 64, 67
1, 458044, Control_c, 0, 64, 70
1, 458052, Note_off_c, 0, 64, 58
1, 458059, Control_c, 0, 64, 74
1, 458074, Control_c, 0, 64, 78
1, 458088, Control_c, 0, 64, 81
1, 458103, Control_c, 0, 64, 84
1, 458118, Control_c, 0, 64, 86
1, 458133, Control_c, 0, 64, 89
1, 458149, Control_c, 0, 64, 92
1, 458163, Note_on_c, 0, 64, 48
1, 458164, Control_c, 0, 64, 95
1, 458178, Control_c, 0, 64, 97
1, 458193, Control_c, 0, 64, 98
1, 458208, Control_c, 0, 64, 99
1, 458223, Control_c, 0, 64, 99
1, 458237, Control_c, 0, 64, 100
1, 458311, Control_c, 0, 64, 99
1, 458385, Control_c, 0, 64, 99
1, 458394, Note_off_c, 0, 64, 57
1, 458415, Control_c, 0, 64, 98
1, 458417, Note_on_c, 0, 61, 50
1, 458459, Control_c, 0, 64, 98
1, 458538, Note_off_c, 0, 61, 53
1, 458548, Control_c, 0, 64, 97
1, 458571, Note_off_c, 0, 46, 35
1, 458578, Control_c, 0, 64, 97
1, 458682, Note_on_c, 0, 61, 50
1, 458751, Note_off_c, 0, 34, 40
1, 458763, Control_c, 0, 64, 96
1, 458793, Control_c, 0, 64, 96
1, 458822, Control_c, 0, 64, 95
1, 458837, Control_c, 0, 64, 95
1, 458852, Control_c, 0, 64, 94
1, 458867, Control_c, 0, 64, 93
1, 458882, Control_c, 0, 64, 91
1, 458897, Control_c, 0, 64, 89
1, 458911, Control_c, 0, 64, 85
1, 458926, Control_c, 0, 64, 80
1, 458942, Control_c, 0, 64, 74
1, 458956, Control_c, 0, 64, 69
1, 458959, Note_on_c, 0, 47, 43
1, 458966, Note_off_c, 0, 61, 50
1, 458970, Note_on_c, 0, 35, 35
1, 458971, Control_c, 0, 64, 65
1, 458984, Note_on_c, 0, 63, 47
1, 458986, Control_c, 0, 64, 62
1, 459001, Control_c, 0, 64, 62
1, 459031, Control_c, 0, 64, 62
1, 459046, Control_c, 0, 64, 63
1, 459060, Control_c, 0, 64, 65
1, 459075, Control_c, 0, 64, 67
1, 459090, Control_c, 0, 64, 70
1, 459105, Control_c, 0, 64, 74
1, 459112, Note_off_c, 0, 63, 59
1, 459120, Control_c, 0, 64, 78
1, 459134, Control_c, 0, 64, 81
1, 459149, Control_c, 0, 64, 85
1, 459164, Control_c, 0, 64, 89
1, 459179, Control_c, 0, 64, 93
1, 459194, Control_c, 0, 64, 99
1, 459209, Control_c, 0, 64, 106
1, 459224, Control_c, 0, 64, 111
1, 459239, Control_c, 0, 64, 113
1, 459240, Note_on_c, 0, 63, 58
1, 459254, Control_c, 0, 64, 113
1, 459268, Control_c, 0, 64, 116
1, 459283, Control_c, 0, 64, 118
1, 459342, Control_c, 0, 64, 121
1, 459357, Control_c, 0, 64, 123
1, 459372, Control_c, 0, 64, 127
1, 459446, Control_c, 0, 64, 123
1, 459500, Note_off_c, 0, 63, 57
1, 459506, Note_on_c, 0, 59, 59
1, 459528, Control_c, 0, 64, 121
1, 459557, Control_c, 0, 64, 119
1, 459572, Control_c, 0, 64, 118
1, 459616, Control_c, 0, 64, 117
1, 459631, Control_c, 0, 64, 115
1, 459646, Control_c, 0, 64, 114
1, 459651, Note_off_c, 0, 59, 60
1, 459660, Control_c, 0, 64, 113
1, 459675, Control_c, 0, 64, 111
1, 459690, Control_c, 0, 64, 111
1, 459704, Note_off_c, 0, 47, 33
1, 459705, Control_c, 0, 64, 110
1, 459732, Note_on_c, 0, 63, 12
1, 459735, Control_c, 0, 64, 110
1, 459751, Control_c, 0, 64, 109
1, 459764, Note_on_c, 0, 59, 74
1, 459776, Note_off_c, 0, 63, 41
1, 459815, Note_off_c, 0, 35, 35
1, 459988, Control_c, 0, 64, 107
1, 459997, Note_off_c, 0, 54, 33
1, 460003, Control_c, 0, 64, 100
1, 460017, Control_c, 0, 64, 87
1, 460026, Note_on_c, 0, 49, 53
1, 460032, Control_c, 0, 64, 72
1, 460035, Note_on_c, 0, 37, 37
1, 460035, Note_on_c, 0, 55, 68
1, 460047, Control_c, 0, 64, 64
1, 460057, Note_on_c, 0, 61, 56
1, 460062, Control_c, 0, 64, 60
1, 460071, Note_off_c, 0, 59, 51
1, 460077, Control_c, 0, 64, 58
1, 460106, Control_c, 0, 64, 59
1, 460121, Control_c, 0, 64, 60
1, 460136, Control_c, 0, 64, 63
1, 460151, Control_c, 0, 64, 65
1, 460165, Control_c, 0, 64, 69
1, 460180, Control_c, 0, 64, 73
1, 460187, Note_off_c, 0, 61, 54
1, 460195, Control_c, 0, 64, 79
1, 460209, Control_c, 0, 64, 86
1, 460224, Control_c, 0, 64, 94
1, 460247, Control_c, 0, 64, 101
1, 460262, Control_c, 0, 64, 112
1, 460277, Control_c, 0, 64, 127
1, 460282, Note_on_c, 0, 61, 37
1, 460568, Note_on_c, 0, 58, 52
1, 460620, Note_off_c, 0, 49, 37
1, 460711, Note_off_c, 0, 55, 48
1, 460743, Note_off_c, 0, 58, 60
1, 460826, Note_on_c, 0, 58, 63
1, 460827, Note_on_c, 0, 55, 74
1, 460965, Note_off_c, 0, 58, 54
1, 460971, Note_off_c, 0, 55, 59
1, 461013, Note_off_c, 0, 61, 40
1, 461054, Control_c, 0, 64, 99
1, 461069, Control_c, 0, 64, 78
1, 461083, Note_on_c, 0, 34, 37
1, 461084, Control_c, 0, 64, 67
1, 461090, Note_on_c, 0, 46, 41
1, 461091, Note_on_c, 0, 55, 69
1, 461099, Control_c, 0, 64, 61
1, 461101, Note_on_c, 0, 59, 60
1, 461113, Control_c, 0, 64, 58
1, 461128, Control_c, 0, 64, 59
1, 461131, Note_off_c, 0, 37, 36
1, 461143, Control_c, 0, 64, 60
1, 461157, Control_c, 0, 64, 62
1, 461172, Control_c, 0, 64, 64
1, 461187, Control_c, 0, 64, 67
1, 461202, Control_c, 0, 64, 70
1, 461217, Control_c, 0, 64, 75
1, 461227, Note_off_c, 0, 59, 62
1, 461231, Control_c, 0, 64, 80
1, 461246, Control_c, 0, 64, 87
1, 461261, Control_c, 0, 64, 93
1, 461276, Control_c, 0, 64, 99
1, 461291, Control_c, 0, 64, 111
1, 461305, Control_c, 0, 64, 127
1, 461347, Note_on_c, 0, 59, 61
1, 461428, Note_off_c, 0, 59, 61
1, 461621, Note_on_c, 0, 61, 56
1, 461709, Note_off_c, 0, 46, 33
1, 461733, Note_off_c, 0, 34, 33
1, 461779, Note_off_c, 0, 61, 37
1, 461882, Note_on_c, 0, 63, 47
1, 461946, Note_off_c, 0, 63, 54
1, 462069, Control_c, 0, 64, 123
1, 462084, Control_c, 0, 64, 107
1, 462099, Control_c, 0, 64, 97
1, 462114, Control_c, 0, 64, 87
1, 462130, Control_c, 0, 64, 77
1, 462140, Note_on_c, 0, 47, 42
1, 462145, Control_c, 0, 64, 69
1, 462146, Note_on_c, 0, 35, 31
1, 462159, Note_on_c, 0, 63, 47
1, 462159, Control_c, 0, 64, 64
1, 462167, Note_on_c, 0, 56, 39
1, 462174, Control_c, 0, 64, 62
1, 462189, Control_c, 0, 64, 63
1, 462203, Control_c, 0, 64, 63
1, 462218, Control_c, 0, 64, 64
1, 462233, Control_c, 0, 64, 66
1, 462248, Control_c, 0, 64, 69
1, 462263, Note_off_c, 0, 63, 57
1, 462263, Control_c, 0, 64, 73
1, 462266, Note_off_c, 0, 55, 31
1, 462277, Control_c, 0, 64, 78
1, 462292, Control_c, 0, 64, 84
1, 462307, Control_c, 0, 64, 90
1, 462322, Control_c, 0, 64, 97
1, 462337, Control_c, 0, 64, 105
1, 462352, Control_c, 0, 64, 117
1, 462367, Control_c, 0, 64, 127
1, 462403, Note_on_c, 0, 63, 52
1, 462471, Control_c, 0, 67, 8
1, 462492, Control_c, 0, 67, 9
1, 462507, Control_c, 0, 67, 11
1, 462522, Control_c, 0, 67, 12
1, 462537, Control_c, 0, 67, 13
1, 462541, Note_off_c, 0, 63, 34
1, 462551, Control_c, 0, 67, 14
1, 462566, Control_c, 0, 67, 16
1, 462581, Control_c, 0, 67, 18
1, 462596, Control_c, 0, 67, 19
1, 462611, Control_c, 0, 67, 19
1, 462626, Control_c, 0, 67, 21
1, 462641, Control_c, 0, 67, 29
1, 462656, Control_c, 0, 67, 41
1, 462671, Control_c, 0, 67, 53
1, 462674, Note_on_c, 0, 59, 47
1, 462685, Control_c, 0, 67, 65
1, 462700, Control_c, 0, 67, 73
1, 462715, Control_c, 0, 67, 80
1, 462730, Control_c, 0, 67, 87
1, 462745, Control_c, 0, 67, 92
1, 462759, Control_c, 0, 67, 94
1, 462769, Note_off_c, 0, 59, 54
1, 462774, Control_c, 0, 67, 95
1, 462789, Control_c, 0, 64, 121
1, 462789, Control_c, 0, 67, 96
1, 462803, Control_c, 0, 64, 117
1, 462818, Control_c, 0, 64, 115
1, 462826, Note_off_c, 0, 47, 36
1, 462833, Control_c, 0, 64, 114
1, 462848, Control_c, 0, 64, 113
1, 462863, Control_c, 0, 64, 112
1, 462877, Control_c, 0, 64, 111
1, 462892, Control_c, 0, 64, 110
1, 462907, Control_c, 0, 64, 110
1, 462922, Control_c, 0, 64, 109
1, 462930, Note_on_c, 0, 59, 46
1, 462938, Control_c, 0, 64, 108
1, 462953, Control_c, 0, 64, 108
1, 462968, Control_c, 0, 64, 107
1, 462982, Control_c, 0, 67, 95
1, 463026, Control_c, 0, 67, 95
1, 463056, Control_c, 0, 64, 107
1, 463071, Control_c, 0, 64, 106
1, 463071, Control_c, 0, 67, 94
1, 463086, Control_c, 0, 64, 104
1, 463100, Control_c, 0, 64, 100
1, 463115, Control_c, 0, 64, 92
1, 463130, Control_c, 0, 64, 83
1, 463145, Control_c, 0, 64, 74
1, 463160, Control_c, 0, 64, 67
1, 463160, Control_c, 0, 67, 93
1, 463168, Note_on_c, 0, 32, 40
1, 463174, Control_c, 0, 64, 63
1, 463179, Note_on_c, 0, 44, 36
1, 463180, Note_off_c, 0, 59, 38
1, 463189, Control_c, 0, 64, 62
1, 463189, Control_c, 0, 67, 93
1, 463190, Note_on_c, 0, 63, 48
1, 463193, Note_off_c, 0, 35, 38
1, 463204, Control_c, 0, 64, 63
1, 463219, Control_c, 0, 64, 63
1, 463241, Control_c, 0, 64, 65
1, 463256, Control_c, 0, 64, 67
1, 463271, Control_c, 0, 64, 70
1, 463286, Control_c, 0, 64, 74
1, 463301, Control_c, 0, 64, 80
1, 463301, Control_c, 0, 67, 92
1, 463315, Control_c, 0, 64, 86
1, 463315, Control_c, 0, 67, 92
1, 463320, Note_off_c, 0, 63, 58
1, 463330, Control_c, 0, 64, 92
1, 463330, Control_c, 0, 67, 91
1, 463345, Control_c, 0, 64, 99
1, 463360, Control_c, 0, 64, 107
1, 463375, Control_c, 0, 64, 127
1, 463375, Control_c, 0, 67, 90
1, 463404, Control_c, 0, 67, 90
1, 463434, Control_c, 0, 67, 89
1, 463449, Control_c, 0, 67, 88
1, 463460, Note_on_c, 0, 63, 48
1, 463464, Control_c, 0, 67, 88
1, 463508, Control_c, 0, 67, 87
1, 463523, Control_c, 0, 67, 87
1, 463538, Control_c, 0, 67, 86
1, 463552, Control_c, 0, 67, 85
1, 463567, Control_c, 0, 67, 85
1, 463582, Control_c, 0, 67, 84
1, 463612, Control_c, 0, 67, 83
1, 463641, Control_c, 0, 67, 82
1, 463669, Note_off_c, 0, 63, 34
1, 463687, Control_c, 0, 67, 82
1, 463701, Control_c, 0, 67, 81
1, 463729, Note_on_c, 0, 59, 52
1, 463732, Control_c, 0, 67, 80
1, 463762, Control_c, 0, 67, 80
1, 463777, Control_c, 0, 67, 79
1, 463806, Control_c, 0, 67, 78
1, 463821, Control_c, 0, 67, 78
1, 463836, Control_c, 0, 67, 77
1, 463848, Note_off_c, 0, 44, 33
1, 463864, Note_off_c, 0, 59, 58
1, 463865, Control_c, 0, 67, 77
1, 463880, Control_c, 0, 67, 76
1, 463895, Control_c, 0, 67, 75
1, 463910, Control_c, 0, 67, 75
1, 463924, Control_c, 0, 67, 74
1, 463939, Control_c, 0, 67, 73
1, 463954, Control_c, 0, 67, 73
1, 463969, Control_c, 0, 67, 72
1, 463991, Control_c, 0, 67, 72
1, 464002, Note_on_c, 0, 59, 59
1, 464006, Control_c, 0, 67, 70
1, 464021, Control_c, 0, 67, 70
1, 464036, Control_c, 0, 67, 69
1, 464051, Control_c, 0, 67, 68
1, 464065, Control_c, 0, 67, 67
1, 464080, Control_c, 0, 67, 66
1, 464095, Control_c, 0, 67, 66
1, 464110, Control_c, 0, 67, 63
1, 464125, Control_c, 0, 67, 56
1, 464139, Control_c, 0, 67, 52
1, 464154, Control_c, 0, 67, 48
1, 464169, Control_c, 0, 67, 45
1, 464184, Control_c, 0, 67, 40
1, 464192, Note_off_c, 0, 56, 42
1, 464198, Control_c, 0, 67, 36
1, 464213, Control_c, 0, 67, 32
1, 464228, Control_c, 0, 64, 85
1, 464228, Control_c, 0, 67, 29
1, 464232, Note_on_c, 0, 51, 77
1, 464233, Note_on_c, 0, 34, 50
1, 464234, Note_on_c, 0, 46, 56
1, 464243, Control_c, 0, 64, 70
1, 464243, Control_c, 0, 67, 27
1, 464247, Note_on_c, 0, 61, 65
1, 464257, Control_c, 0, 64, 61
1, 464257, Control_c, 0, 67, 24
1, 464270, Note_off_c, 0, 32, 42
1, 464272, Control_c, 0, 64, 54
1, 464272, Control_c, 0, 67, 22
1, 464287, Control_c, 0, 64, 53
1, 464287, Control_c, 0, 67, 19
1, 464302, Control_c, 0, 64, 54
1, 464302, Control_c, 0, 67, 18
1, 464317, Control_c, 0, 64, 57
1, 464317, Control_c, 0, 67, 16
1, 464331, Control_c, 0, 64, 61
1, 464331, Control_c, 0, 67, 16
1, 464346, Control_c, 0, 64, 64
1, 464346, Control_c, 0, 67, 15
1, 464361, Control_c, 0, 64, 67
1, 464361, Control_c, 0, 67, 14
1, 464376, Control_c, 0, 64, 71
1, 464376, Control_c, 0, 67, 14
1, 464390, Note_off_c, 0, 61, 58
1, 464391, Control_c, 0, 64, 77
1, 464391, Control_c, 0, 67, 12
1, 464406, Control_c, 0, 64, 84
1, 464406, Control_c, 0, 67, 8
1, 464409, Note_off_c, 0, 59, 0
1, 464420, Control_c, 0, 64, 94
1, 464420, Control_c, 0, 67, 0
1, 464435, Control_c, 0, 64, 104
1, 464447, Poly_aftertouch_c, 0, 59, 127
1, 464450, Control_c, 0, 64, 121
1, 464465, Control_c, 0, 64, 127
1, 464518, Note_on_c, 0, 61, 60
1, 464601, Poly_aftertouch_c, 0, 59, 0
1, 464767, Note_off_c, 0, 46, 33
1, 464774, Note_on_c, 0, 58, 60
1, 464936, Note_off_c, 0, 51, 54
1, 464966, Note_off_c, 0, 58, 61
1, 464977, Note_off_c, 0, 61, 40
1, 465064, Note_on_c, 0, 51, 65
1, 465089, Note_on_c, 0, 59, 54
1, 465166, Note_off_c, 0, 59, 59
1, 465198, Note_off_c, 0, 51, 58
1, 465296, Note_on_c, 0, 59, 64
1, 465302, Control_c, 0, 64, 91
1, 465303, Note_on_c, 0, 42, 58
1, 465307, Note_on_c, 0, 30, 51
1, 465307, Note_on_c, 0, 51, 69
1, 465317, Control_c, 0, 64, 73
1, 465333, Control_c, 0, 64, 63
1, 465348, Control_c, 0, 64, 55
1, 465362, Control_c, 0, 64, 54
1, 465377, Control_c, 0, 64, 55
1, 465392, Control_c, 0, 64, 56
1, 465399, Note_off_c, 0, 34, 36
1, 465407, Control_c, 0, 64, 60
1, 465422, Control_c, 0, 64, 63
1, 465437, Control_c, 0, 64, 67
1, 465451, Control_c, 0, 64, 71
1, 465466, Control_c, 0, 64, 78
1, 465468, Note_off_c, 0, 59, 62
1, 465488, Control_c, 0, 64, 85
1, 465503, Control_c, 0, 64, 94
1, 465517, Control_c, 0, 64, 101
1, 465532, Control_c, 0, 64, 108
1, 465547, Control_c, 0, 64, 127
1, 465595, Note_on_c, 0, 59, 68
1, 465756, Note_off_c, 0, 59, 59
1, 465848, Note_on_c, 0, 61, 67
1, 465952, Note_off_c, 0, 61, 57
1, 465991, Control_c, 0, 64, 123
1, 466006, Control_c, 0, 64, 116
1, 466021, Control_c, 0, 64, 113
1, 466036, Control_c, 0, 64, 111
1, 466051, Control_c, 0, 64, 110
1, 466051, Control_c, 0, 67, 8
1, 466066, Control_c, 0, 64, 108
1, 466066, Control_c, 0, 67, 13
1, 466078, Note_off_c, 0, 42, 40
1, 466081, Control_c, 0, 64, 107
1, 466081, Control_c, 0, 67, 24
1, 466095, Control_c, 0, 64, 105
1, 466095, Control_c, 0, 67, 38
1, 466110, Note_on_c, 0, 61, 61
1, 466110, Control_c, 0, 64, 103
1, 466110, Control_c, 0, 67, 53
1, 466126, Control_c, 0, 64, 101
1, 466126, Control_c, 0, 67, 67
1, 466140, Control_c, 0, 64, 100
1, 466140, Control_c, 0, 67, 82
1, 466155, Control_c, 0, 64, 99
1, 466155, Control_c, 0, 67, 93
1, 466170, Control_c, 0, 64, 97
1, 466170, Control_c, 0, 67, 104
1, 466185, Control_c, 0, 64, 95
1, 466185, Control_c, 0, 67, 114
1, 466200, Control_c, 0, 64, 94
1, 466200, Control_c, 0, 67, 123
1, 466215, Control_c, 0, 67, 127
1, 466237, Control_c, 0, 64, 94
1, 466266, Control_c, 0, 64, 93
1, 466281, Control_c, 0, 64, 91
1, 466296, Control_c, 0, 64, 89
1, 466311, Control_c, 0, 64, 85
1, 466316, Note_off_c, 0, 51, 33
1, 466325, Control_c, 0, 64, 79
1, 466340, Control_c, 0, 64, 72
1, 466355, Control_c, 0, 64, 65
1, 466370, Control_c, 0, 64, 60
1, 466384, Note_off_c, 0, 61, 55
1, 466385, Control_c, 0, 64, 58
1, 466387, Note_on_c, 0, 52, 65
1, 466400, Control_c, 0, 64, 57
1, 466406, Note_on_c, 0, 63, 53
1, 466408, Note_on_c, 0, 44, 35
1, 466409, Note_on_c, 0, 32, 37
1, 466415, Control_c, 0, 64, 58
1, 466430, Control_c, 0, 64, 59
1, 466444, Control_c, 0, 64, 61
1, 466459, Control_c, 0, 64, 63
1, 466474, Control_c, 0, 64, 66
1, 466487, Note_off_c, 0, 30, 37
1, 466489, Control_c, 0, 64, 69
1, 466504, Control_c, 0, 64, 74
1, 466519, Control_c, 0, 64, 78
1, 466525, Note_off_c, 0, 63, 55
1, 466533, Control_c, 0, 64, 82
1, 466548, Control_c, 0, 64, 87
1, 466563, Control_c, 0, 64, 93
1, 466578, Control_c, 0, 64, 100
1, 466593, Control_c, 0, 64, 111
1, 466607, Control_c, 0, 64, 127
1, 466656, Note_on_c, 0, 63, 55
1, 466800, Note_off_c, 0, 63, 48
1, 466907, Note_on_c, 0, 59, 55
1, 466957, Note_off_c, 0, 44, 39
1, 467014, Note_off_c, 0, 59, 56
1, 467149, Note_on_c, 0, 59, 56
1, 467230, Note_off_c, 0, 59, 60
1, 467311, Control_c, 0, 64, 123
1, 467326, Control_c, 0, 64, 111
1, 467341, Control_c, 0, 64, 100
1, 467355, Control_c, 0, 64, 87
1, 467370, Control_c, 0, 64, 76
1, 467385, Control_c, 0, 64, 67
1, 467394, Note_on_c, 0, 34, 34
1, 467398, Note_on_c, 0, 46, 36
1, 467398, Note_on_c, 0, 61, 51
1, 467400, Control_c, 0, 64, 63
1, 467415, Control_c, 0, 64, 61
1, 467429, Control_c, 0, 64, 62
1, 467444, Control_c, 0, 64, 62
1, 467459, Control_c, 0, 64, 64
1, 467473, Control_c, 0, 64, 65
1, 467484, Note_off_c, 0, 61, 60
1, 467488, Control_c, 0, 64, 68
1, 467503, Control_c, 0, 64, 72
1, 467518, Control_c, 0, 64, 76
1, 467527, Note_off_c, 0, 32, 37
1, 467533, Control_c, 0, 64, 81
1, 467547, Control_c, 0, 64, 87
1, 467562, Control_c, 0, 64, 91
1, 467577, Control_c, 0, 64, 96
1, 467592, Control_c, 0, 64, 101
1, 467607, Control_c, 0, 64, 107
1, 467622, Control_c, 0, 64, 114
1, 467634, Note_on_c, 0, 61, 50
1, 467637, Control_c, 0, 64, 127
1, 467730, Note_off_c, 0, 61, 54
1, 467931, Note_on_c, 0, 58, 44
1, 467965, Note_off_c, 0, 46, 37
1, 467981, Note_off_c, 0, 58, 59
1, 468147, Note_off_c, 0, 34, 33
1, 468178, Note_on_c, 0, 58, 53
1, 468237, Control_c, 0, 64, 123
1, 468248, Note_off_c, 0, 52, 44
1, 468252, Control_c, 0, 64, 121
1, 468267, Control_c, 0, 64, 119
1, 468282, Control_c, 0, 64, 118
1, 468341, Control_c, 0, 64, 117
1, 468356, Control_c, 0, 64, 113
1, 468370, Control_c, 0, 64, 108
1, 468385, Control_c, 0, 64, 102
1, 468400, Control_c, 0, 64, 93
1, 468415, Control_c, 0, 64, 81
1, 468418, Note_on_c, 0, 53, 65
1, 468430, Control_c, 0, 64, 72
1, 468433, Note_on_c, 0, 35, 35
1, 468436, Note_on_c, 0, 47, 42
1, 468445, Control_c, 0, 64, 66
1, 468451, Note_on_c, 0, 59, 45
1, 468460, Control_c, 0, 64, 63
1, 468482, Control_c, 0, 64, 62
1, 468496, Control_c, 0, 64, 62
1, 468501, Note_off_c, 0, 58, 28
1, 468511, Control_c, 0, 64, 63
1, 468527, Control_c, 0, 64, 65
1, 468542, Control_c, 0, 64, 67
1, 468557, Control_c, 0, 64, 70
1, 468572, Control_c, 0, 64, 74
1, 468587, Control_c, 0, 64, 79
1, 468588, Note_off_c, 0, 59, 57
1, 468601, Control_c, 0, 64, 84
1, 468616, Control_c, 0, 64, 89
1, 468631, Control_c, 0, 64, 92
1, 468646, Control_c, 0, 64, 95
1, 468661, Control_c, 0, 64, 100
1, 468675, Control_c, 0, 64, 105
1, 468690, Control_c, 0, 64, 112
1, 468705, Control_c, 0, 64, 121
1, 468719, Control_c, 0, 64, 123
1, 468725, Note_on_c, 0, 59, 36
1, 468764, Control_c, 0, 64, 127
1, 468788, Note_off_c, 0, 59, 46
1, 468853, Control_c, 0, 64, 123
1, 468913, Control_c, 0, 64, 121
1, 468942, Control_c, 0, 64, 119
1, 468957, Control_c, 0, 64, 118
1, 468972, Control_c, 0, 64, 117
1, 468972, Note_on_c, 0, 56, 48
1, 469016, Control_c, 0, 64, 116
1, 469031, Control_c, 0, 64, 115
1, 469045, Control_c, 0, 64, 114
1, 469052, Note_off_c, 0, 47, 37
1, 469075, Control_c, 0, 64, 113
1, 469083, Note_off_c, 0, 56, 53
1, 469088, Note_off_c, 0, 53, 34
1, 469105, Control_c, 0, 64, 113
1, 469134, Control_c, 0, 64, 112
1, 469233, Note_on_c, 0, 53, 59
1, 469236, Note_on_c, 0, 56, 51
1, 469245, Control_c, 0, 64, 111
1, 469348, Note_off_c, 0, 56, 52
1, 469354, Note_off_c, 0, 53, 59
1, 469395, Control_c, 0, 64, 111
1, 469410, Control_c, 0, 64, 108
1, 469424, Control_c, 0, 64, 102
1, 469439, Control_c, 0, 64, 91
1, 469454, Control_c, 0, 64, 76
1, 469460, Note_off_c, 0, 35, 38
1, 469468, Control_c, 0, 64, 67
1, 469476, Note_on_c, 0, 32, 39
1, 469483, Note_on_c, 0, 53, 56
1, 469483, Control_c, 0, 64, 63
1, 469488, Note_on_c, 0, 44, 36
1, 469498, Control_c, 0, 64, 62
1, 469501, Note_on_c, 0, 58, 48
1, 469513, Control_c, 0, 64, 63
1, 469528, Control_c, 0, 64, 64
1, 469542, Control_c, 0, 64, 67
1, 469557, Control_c, 0, 64, 71
1, 469572, Control_c, 0, 64, 76
1, 469587, Control_c, 0, 64, 83
1, 469596, Note_off_c, 0, 58, 59
1, 469602, Control_c, 0, 64, 90
1, 469616, Control_c, 0, 64, 99
1, 469631, Control_c, 0, 64, 108
1, 469646, Control_c, 0, 64, 123
1, 469661, Control_c, 0, 64, 127
1, 469723, Note_on_c, 0, 58, 57
1, 469787, Note_off_c, 0, 58, 53
1, 469968, Note_on_c, 0, 59, 51
1, 470038, Note_off_c, 0, 59, 51
1, 470180, Note_off_c, 0, 44, 33
1, 470198, Note_on_c, 0, 59, 47
1, 470225, Note_off_c, 0, 32, 39
1, 470277, Control_c, 0, 64, 123
1, 470285, Note_off_c, 0, 53, 41
1, 470365, Control_c, 0, 64, 119
1, 470380, Control_c, 0, 64, 112
1, 470395, Control_c, 0, 64, 102
1, 470410, Control_c, 0, 64, 89
1, 470425, Control_c, 0, 64, 77
1, 470439, Control_c, 0, 64, 68
1, 470449, Note_on_c, 0, 54, 55
1, 470452, Note_off_c, 0, 59, 36
1, 470454, Note_on_c, 0, 46, 31
1, 470454, Control_c, 0, 64, 63
1, 470459, Note_on_c, 0, 34, 30
1, 470459, Note_on_c, 0, 61, 48
1, 470469, Control_c, 0, 64, 62
1, 470484, Control_c, 0, 64, 62
1, 470499, Control_c, 0, 64, 63
1, 470513, Control_c, 0, 64, 65
1, 470528, Control_c, 0, 64, 68
1, 470543, Control_c, 0, 64, 72
1, 470558, Control_c, 0, 64, 79
1, 470571, Note_off_c, 0, 61, 54
1, 470573, Control_c, 0, 64, 87
1, 470588, Control_c, 0, 64, 97
1, 470603, Control_c, 0, 64, 107
1, 470618, Control_c, 0, 64, 127
1, 470722, Note_on_c, 0, 61, 48
1, 470844, Note_off_c, 0, 61, 36
1, 470901, Note_off_c, 0, 46, 39
1, 470961, Note_on_c, 0, 58, 40
1, 471063, Note_off_c, 0, 58, 51
1, 471250, Note_off_c, 0, 54, 54
1, 471291, Note_on_c, 0, 58, 36
1, 471339, Note_off_c, 0, 58, 62
1, 471595, Control_c, 0, 64, 115
1, 471610, Control_c, 0, 64, 100
1, 471625, Control_c, 0, 64, 87
1, 471640, Control_c, 0, 64, 77
1, 471641, Note_on_c, 0, 42, 31
1, 471648, Note_on_c, 0, 30, 32
1, 471655, Control_c, 0, 64, 68
1, 471661, Note_on_c, 0, 68, 62
1, 471665, Note_off_c, 0, 34, 38
1, 471670, Control_c, 0, 64, 64
1, 471676, Note_on_c, 0, 64, 46
1, 471685, Control_c, 0, 64, 62
1, 471700, Control_c, 0, 64, 62
1, 471715, Control_c, 0, 64, 64
1, 471730, Control_c, 0, 64, 65
1, 471745, Control_c, 0, 64, 68
1, 471759, Control_c, 0, 64, 73
1, 471774, Control_c, 0, 64, 81
1, 471789, Control_c, 0, 64, 91
1, 471801, Note_off_c, 0, 64, 58
1, 471804, Control_c, 0, 64, 104
1, 471819, Control_c, 0, 64, 127
1, 471932, Note_on_c, 0, 64, 52
1, 472036, Note_off_c, 0, 64, 51
1, 472042, Note_off_c, 0, 30, 44
1, 472144, Note_off_c, 0, 42, 40
1, 472241, Note_on_c, 0, 61, 50
1, 472248, Note_off_c, 0, 68, 59
1, 472311, Note_off_c, 0, 61, 57
1, 472554, Note_on_c, 0, 75, 62
1, 472585, Note_on_c, 0, 68, 40
1, 472602, Note_on_c, 0, 61, 32
1, 472653, Note_off_c, 0, 75, 61
1, 472679, Note_off_c, 0, 68, 51
1, 472937, Note_off_c, 0, 61, 39
1, 472953, Control_c, 0, 64, 117
1, 472975, Control_c, 0, 64, 100
1, 472990, Control_c, 0, 64, 82
1, 472991, Note_on_c, 0, 47, 40
1, 472995, Note_on_c, 0, 44, 36
1, 472998, Note_on_c, 0, 68, 55
1, 473005, Control_c, 0, 64, 70
1, 473005, Note_on_c, 0, 63, 38
1, 473020, Control_c, 0, 64, 63
1, 473035, Control_c, 0, 64, 59
1, 473064, Control_c, 0, 64, 60
1, 473079, Control_c, 0, 64, 61
1, 473093, Control_c, 0, 64, 63
1, 473108, Control_c, 0, 64, 66
1, 473123, Control_c, 0, 64, 69
1, 473138, Control_c, 0, 64, 73
1, 473153, Control_c, 0, 64, 79
1, 473167, Control_c, 0, 64, 86
1, 473171, Note_off_c, 0, 63, 55
1, 473182, Control_c, 0, 64, 92
1, 473197, Control_c, 0, 64, 98
1, 473212, Control_c, 0, 64, 106
1, 473227, Control_c, 0, 64, 119
1, 473241, Control_c, 0, 64, 127
1, 473339, Note_off_c, 0, 47, 40
1, 473374, Note_on_c, 0, 51, 41
1, 473378, Note_on_c, 0, 63, 35
1, 473441, Note_off_c, 0, 63, 55
1, 473582, Note_off_c, 0, 51, 46
1, 473636, Note_on_c, 0, 52, 43
1, 473653, Note_on_c, 0, 59, 41
1, 473727, Note_off_c, 0, 59, 54
1, 473813, Note_off_c, 0, 52, 34
1, 473888, Note_on_c, 0, 51, 49
1, 473892, Note_on_c, 0, 59, 42
1, 473914, Note_off_c, 0, 44, 39
1, 473955, Note_off_c, 0, 59, 55
1, 474020, Control_c, 0, 64, 123
1, 474064, Control_c, 0, 64, 121
1, 474071, Note_off_c, 0, 51, 61
1, 474110, Control_c, 0, 64, 119
1, 474117, Note_on_c, 0, 55, 47
1, 474144, Note_on_c, 0, 61, 41
1, 474154, Control_c, 0, 64, 118
1, 474169, Control_c, 0, 64, 117
1, 474184, Control_c, 0, 64, 116
1, 474197, Note_off_c, 0, 61, 55
1, 474199, Control_c, 0, 64, 115
1, 474213, Control_c, 0, 64, 114
1, 474243, Control_c, 0, 64, 113
1, 474258, Control_c, 0, 64, 113
1, 474305, Note_off_c, 0, 55, 48
1, 474365, Note_on_c, 0, 54, 57
1, 474377, Note_on_c, 0, 61, 44
1, 474444, Note_off_c, 0, 61, 54
1, 474568, Note_off_c, 0, 54, 59
1, 474588, Note_on_c, 0, 58, 65
1, 474616, Note_on_c, 0, 63, 46
1, 474665, Control_c, 0, 64, 112
1, 474696, Note_off_c, 0, 63, 49
1, 474754, Control_c, 0, 64, 111
1, 474769, Control_c, 0, 64, 111
1, 474784, Control_c, 0, 64, 110
1, 474799, Control_c, 0, 64, 110
1, 474807, Note_off_c, 0, 58, 57
1, 474813, Control_c, 0, 64, 108
1, 474824, Note_on_c, 0, 57, 68
1, 474828, Control_c, 0, 64, 107
1, 474833, Note_on_c, 0, 63, 49
1, 474843, Control_c, 0, 64, 106
1, 474858, Control_c, 0, 64, 105
1, 474872, Control_c, 0, 64, 104
1, 474902, Control_c, 0, 64, 103
1, 474912, Note_off_c, 0, 63, 48
1, 474919, Control_c, 0, 64, 102
1, 474963, Control_c, 0, 64, 103
1, 474993, Control_c, 0, 64, 102
1, 475008, Control_c, 0, 64, 101
1, 475023, Control_c, 0, 64, 97
1, 475037, Control_c, 0, 64, 85
1, 475052, Control_c, 0, 64, 74
1, 475067, Control_c, 0, 64, 66
1, 475081, Control_c, 0, 64, 61
1, 475096, Control_c, 0, 64, 61
1, 475099, Note_on_c, 0, 60, 58
1, 475105, Note_on_c, 0, 64, 39
1, 475111, Control_c, 0, 64, 63
1, 475119, Note_off_c, 0, 57, 57
1, 475126, Control_c, 0, 64, 64
1, 475141, Control_c, 0, 64, 66
1, 475155, Control_c, 0, 64, 68
1, 475170, Control_c, 0, 64, 72
1, 475185, Control_c, 0, 64, 76
1, 475200, Control_c, 0, 64, 80
1, 475223, Control_c, 0, 64, 85
1, 475237, Control_c, 0, 64, 90
1, 475250, Note_off_c, 0, 64, 58
1, 475252, Control_c, 0, 64, 95
1, 475267, Control_c, 0, 64, 101
1, 475282, Control_c, 0, 64, 113
1, 475296, Control_c, 0, 64, 127
1, 475353, Note_off_c, 0, 60, 60
1, 475378, Note_on_c, 0, 59, 54
1, 475390, Note_on_c, 0, 64, 45
1, 475439, Note_off_c, 0, 64, 56
1, 475585, Note_off_c, 0, 59, 51
1, 475616, Note_on_c, 0, 58, 44
1, 475620, Note_on_c, 0, 61, 50
1, 475698, Note_off_c, 0, 61, 53
1, 475846, Note_off_c, 0, 58, 37
1, 475852, Note_on_c, 0, 51, 47
1, 475875, Note_on_c, 0, 61, 41
1, 475974, Note_off_c, 0, 68, 40
1, 475981, Note_off_c, 0, 61, 55
1, 476082, Note_on_c, 0, 67, 68
1, 476091, Note_on_c, 0, 63, 56
1, 476100, Note_on_c, 0, 59, 44
1, 476148, Control_c, 0, 64, 119
1, 476160, Note_off_c, 0, 63, 43
1, 476163, Control_c, 0, 64, 118
1, 476178, Control_c, 0, 64, 117
1, 476192, Control_c, 0, 64, 116
1, 476207, Control_c, 0, 64, 114
1, 476222, Control_c, 0, 64, 111
1, 476237, Control_c, 0, 64, 108
1, 476252, Control_c, 0, 64, 105
1, 476255, Note_off_c, 0, 51, 31
1, 476267, Control_c, 0, 64, 104
1, 476296, Control_c, 0, 64, 104
1, 476307, Note_off_c, 0, 59, 47
1, 476323, Note_on_c, 0, 63, 42
1, 476326, Control_c, 0, 64, 102
1, 476342, Note_on_c, 0, 58, 49
1, 476377, Note_off_c, 0, 63, 63
1, 476385, Control_c, 0, 64, 103
1, 476444, Control_c, 0, 64, 104
1, 476497, Note_off_c, 0, 58, 53
1, 476549, Control_c, 0, 64, 103
1, 476564, Note_on_c, 0, 57, 43
1, 476564, Control_c, 0, 64, 103
1, 476579, Control_c, 0, 64, 102
1, 476591, Note_on_c, 0, 59, 49
1, 476644, Note_off_c, 0, 59, 54
1, 476653, Control_c, 0, 64, 102
1, 476668, Control_c, 0, 64, 101
1, 476682, Control_c, 0, 64, 100
1, 476697, Control_c, 0, 64, 99
1, 476720, Control_c, 0, 64, 97
1, 476734, Control_c, 0, 64, 96
1, 476749, Control_c, 0, 64, 95
1, 476790, Note_off_c, 0, 57, 54
1, 476794, Control_c, 0, 64, 95
1, 476808, Control_c, 0, 64, 93
1, 476823, Control_c, 0, 64, 92
1, 476833, Note_on_c, 0, 51, 52
1, 476857, Note_on_c, 0, 59, 46
1, 476881, Note_off_c, 0, 51, 61
1, 476897, Control_c, 0, 64, 92
1, 476976, Note_off_c, 0, 59, 49
1, 477030, Control_c, 0, 64, 91
1, 477045, Control_c, 0, 64, 90
1, 477059, Control_c, 0, 64, 88
1, 477074, Control_c, 0, 64, 84
1, 477089, Control_c, 0, 64, 77
1, 477104, Control_c, 0, 64, 69
1, 477119, Control_c, 0, 64, 63
1, 477124, Note_on_c, 0, 52, 40
1, 477134, Control_c, 0, 64, 59
1, 477137, Note_on_c, 0, 68, 61
1, 477140, Note_on_c, 0, 44, 35
1, 477146, Note_on_c, 0, 61, 48
1, 477146, Note_off_c, 0, 67, 52
1, 477149, Control_c, 0, 64, 58
1, 477178, Control_c, 0, 64, 59
1, 477193, Control_c, 0, 64, 60
1, 477207, Control_c, 0, 64, 62
1, 477222, Control_c, 0, 64, 64
1, 477237, Control_c, 0, 64, 66
1, 477244, Note_off_c, 0, 61, 56
1, 477251, Control_c, 0, 64, 69
1, 477266, Control_c, 0, 64, 74
1, 477281, Control_c, 0, 64, 78
1, 477296, Control_c, 0, 64, 83
1, 477312, Control_c, 0, 64, 87
1, 477327, Control_c, 0, 64, 91
1, 477342, Control_c, 0, 64, 95
1, 477356, Control_c, 0, 64, 99
1, 477371, Control_c, 0, 64, 101
1, 477386, Control_c, 0, 64, 102
1, 477437, Note_off_c, 0, 52, 40
1, 477472, Note_on_c, 0, 61, 39
1, 477474, Note_on_c, 0, 49, 37
1, 477512, Control_c, 0, 64, 102
1, 477527, Control_c, 0, 64, 101
1, 477539, Note_off_c, 0, 61, 50
1, 477586, Control_c, 0, 64, 101
1, 477616, Control_c, 0, 64, 100
1, 477675, Control_c, 0, 64, 100
1, 477699, Note_off_c, 0, 49, 33
1, 477709, Note_on_c, 0, 50, 41
1, 477710, Note_on_c, 0, 58, 49
1, 477719, Control_c, 0, 64, 99
1, 477763, Note_off_c, 0, 58, 57
1, 477763, Control_c, 0, 64, 99
1, 477808, Control_c, 0, 64, 98
1, 477867, Control_c, 0, 64, 98
1, 477929, Note_off_c, 0, 50, 40
1, 477940, Note_on_c, 0, 51, 53
1, 477943, Note_on_c, 0, 58, 44
1, 477993, Note_off_c, 0, 58, 52
1, 478010, Note_off_c, 0, 51, 55
1, 478031, Note_off_c, 0, 44, 37
1, 478156, Note_on_c, 0, 52, 57
1, 478168, Note_on_c, 0, 59, 54
1, 478261, Note_off_c, 0, 59, 48
1, 478333, Note_off_c, 0, 52, 37
1, 478402, Note_on_c, 0, 53, 56
1, 478408, Note_on_c, 0, 59, 52
1, 478438, Control_c, 0, 64, 97
1, 478459, Note_off_c, 0, 59, 54
1, 478541, Control_c, 0, 64, 97
1, 478556, Control_c, 0, 64, 96
1, 478571, Control_c, 0, 64, 93
1, 478586, Control_c, 0, 64, 89
1, 478601, Control_c, 0, 64, 82
1, 478613, Note_off_c, 0, 53, 55
1, 478616, Control_c, 0, 64, 76
1, 478621, Note_on_c, 0, 54, 60
1, 478630, Control_c, 0, 64, 70
1, 478645, Note_on_c, 0, 61, 51
1, 478645, Control_c, 0, 64, 66
1, 478660, Control_c, 0, 64, 65
1, 478675, Control_c, 0, 64, 66
1, 478690, Control_c, 0, 64, 66
1, 478705, Control_c, 0, 64, 67
1, 478720, Control_c, 0, 64, 69
1, 478735, Control_c, 0, 64, 71
1, 478750, Control_c, 0, 64, 74
1, 478756, Note_off_c, 0, 61, 59
1, 478765, Control_c, 0, 64, 78
1, 478779, Control_c, 0, 64, 81
1, 478794, Control_c, 0, 64, 85
1, 478809, Control_c, 0, 64, 87
1, 478824, Control_c, 0, 64, 91
1, 478827, Note_off_c, 0, 54, 63
1, 478839, Control_c, 0, 64, 94
1, 478853, Control_c, 0, 64, 99
1, 478860, Note_on_c, 0, 55, 61
1, 478868, Control_c, 0, 64, 104
1, 478877, Note_on_c, 0, 61, 61
1, 478883, Control_c, 0, 64, 110
1, 478899, Control_c, 0, 64, 127
1, 478971, Note_off_c, 0, 61, 59
1, 479039, Control_c, 0, 64, 115
1, 479054, Control_c, 0, 64, 100
1, 479069, Control_c, 0, 64, 87
1, 479084, Control_c, 0, 64, 76
1, 479098, Control_c, 0, 64, 68
1, 479106, Note_on_c, 0, 56, 61
1, 479113, Control_c, 0, 64, 64
1, 479124, Note_on_c, 0, 63, 52
1, 479128, Control_c, 0, 64, 63
1, 479137, Note_off_c, 0, 55, 34
1, 479143, Control_c, 0, 64, 64
1, 479158, Control_c, 0, 64, 65
1, 479173, Control_c, 0, 64, 67
1, 479188, Control_c, 0, 64, 69
1, 479200, Note_off_c, 0, 63, 57
1, 479203, Control_c, 0, 64, 72
1, 479218, Control_c, 0, 64, 77
1, 479233, Control_c, 0, 64, 82
1, 479247, Control_c, 0, 64, 88
1, 479262, Control_c, 0, 64, 94
1, 479277, Control_c, 0, 64, 99
1, 479292, Control_c, 0, 64, 105
1, 479307, Control_c, 0, 64, 114
1, 479322, Control_c, 0, 64, 127
1, 479350, Note_on_c, 0, 59, 67
1, 479355, Note_on_c, 0, 63, 52
1, 479358, Note_off_c, 0, 56, 61
1, 479436, Note_off_c, 0, 63, 62
1, 479514, Control_c, 0, 64, 118
1, 479528, Control_c, 0, 64, 96
1, 479543, Control_c, 0, 64, 82
1, 479556, Note_off_c, 0, 59, 62
1, 479558, Control_c, 0, 64, 72
1, 479573, Control_c, 0, 64, 67
1, 479574, Note_on_c, 0, 61, 67
1, 479588, Control_c, 0, 64, 66
1, 479593, Note_on_c, 0, 64, 65
1, 479602, Control_c, 0, 64, 67
1, 479617, Control_c, 0, 64, 68
1, 479632, Control_c, 0, 64, 69
1, 479647, Control_c, 0, 64, 70
1, 479662, Control_c, 0, 64, 72
1, 479677, Control_c, 0, 64, 75
1, 479692, Control_c, 0, 64, 79
1, 479715, Control_c, 0, 64, 84
1, 479730, Control_c, 0, 64, 88
1, 479745, Control_c, 0, 64, 92
1, 479759, Control_c, 0, 64, 95
1, 479774, Control_c, 0, 64, 99
1, 479789, Control_c, 0, 64, 107
1, 479804, Control_c, 0, 64, 127
1, 479805, Note_off_c, 0, 61, 60
1, 479821, Note_on_c, 0, 58, 72
1, 479902, Note_off_c, 0, 64, 37
1, 479946, Note_off_c, 0, 68, 62
1, 480011, Control_c, 0, 64, 111
1, 480025, Control_c, 0, 64, 90
1, 480040, Control_c, 0, 64, 76
1, 480055, Control_c, 0, 64, 68
1, 480060, Note_on_c, 0, 56, 59
1, 480061, Note_on_c, 0, 70, 77
1, 480070, Control_c, 0, 64, 63
1, 480076, Note_off_c, 0, 58, 52
1, 480082, Note_on_c, 0, 66, 54
1, 480085, Control_c, 0, 64, 61
1, 480100, Control_c, 0, 64, 62
1, 480115, Control_c, 0, 64, 62
1, 480130, Control_c, 0, 64, 64
1, 480145, Control_c, 0, 64, 66
1, 480159, Control_c, 0, 64, 69
1, 480174, Control_c, 0, 64, 73
1, 480189, Control_c, 0, 64, 77
1, 480204, Control_c, 0, 64, 82
1, 480215, Note_off_c, 0, 66, 59
1, 480219, Control_c, 0, 64, 87
1, 480233, Control_c, 0, 64, 92
1, 480248, Control_c, 0, 64, 99
1, 480263, Control_c, 0, 64, 108
1, 480278, Control_c, 0, 64, 127
1, 480294, Note_off_c, 0, 56, 59
1, 480318, Note_on_c, 0, 55, 64
1, 480321, Note_on_c, 0, 66, 65
1, 480442, Note_off_c, 0, 66, 50
1, 480478, Control_c, 0, 67, 126
1, 480492, Control_c, 0, 67, 125
1, 480508, Control_c, 0, 67, 120
1, 480523, Control_c, 0, 67, 114
1, 480537, Note_off_c, 0, 55, 55
1, 480538, Control_c, 0, 67, 107
1, 480553, Control_c, 0, 67, 102
1, 480561, Note_on_c, 0, 54, 57
1, 480568, Control_c, 0, 67, 97
1, 480578, Note_on_c, 0, 63, 65
1, 480582, Control_c, 0, 67, 92
1, 480597, Control_c, 0, 67, 88
1, 480612, Control_c, 0, 67, 85
1, 480627, Control_c, 0, 67, 80
1, 480642, Control_c, 0, 67, 76
1, 480656, Control_c, 0, 67, 71
1, 480671, Control_c, 0, 67, 67
1, 480672, Note_off_c, 0, 63, 59
1, 480686, Control_c, 0, 67, 63
1, 480701, Control_c, 0, 67, 61
1, 480716, Control_c, 0, 67, 60
1, 480730, Control_c, 0, 67, 58
1, 480745, Control_c, 0, 67, 57
1, 480774, Control_c, 0, 67, 56
1, 480810, Note_off_c, 0, 54, 45
1, 480856, Note_on_c, 0, 63, 60
1, 480860, Note_on_c, 0, 53, 53
1, 480878, Control_c, 0, 67, 56
1, 480953, Control_c, 0, 64, 119
1, 480967, Control_c, 0, 64, 116
1, 480976, Note_off_c, 0, 63, 51
1, 480982, Control_c, 0, 64, 113
1, 480997, Control_c, 0, 64, 111
1, 481012, Control_c, 0, 64, 110
1, 481024, Note_off_c, 0, 70, 43
1, 481027, Control_c, 0, 64, 108
1, 481042, Control_c, 0, 64, 107
1, 481056, Control_c, 0, 64, 104
1, 481071, Control_c, 0, 64, 101
1, 481086, Control_c, 0, 64, 99
1, 481100, Control_c, 0, 64, 97
1, 481108, Note_off_c, 0, 53, 33
1, 481115, Control_c, 0, 64, 94
1, 481130, Control_c, 0, 64, 91
1, 481145, Control_c, 0, 64, 87
1, 481160, Control_c, 0, 64, 81
1, 481174, Control_c, 0, 64, 73
1, 481189, Control_c, 0, 64, 66
1, 481197, Note_on_c, 0, 52, 40
1, 481208, Note_on_c, 0, 43, 37
1, 481209, Note_on_c, 0, 71, 73
1, 481212, Control_c, 0, 64, 62
1, 481226, Note_on_c, 0, 64, 53
1, 481227, Control_c, 0, 64, 60
1, 481227, Control_c, 0, 67, 55
1, 481242, Control_c, 0, 64, 60
1, 481271, Control_c, 0, 64, 60
1, 481286, Control_c, 0, 64, 61
1, 481301, Control_c, 0, 64, 63
1, 481316, Control_c, 0, 64, 65
1, 481331, Control_c, 0, 64, 68
1, 481346, Control_c, 0, 64, 72
1, 481361, Control_c, 0, 64, 77
1, 481376, Control_c, 0, 64, 83
1, 481391, Control_c, 0, 64, 87
1, 481405, Control_c, 0, 64, 91
1, 481407, Note_off_c, 0, 64, 54
1, 481420, Control_c, 0, 64, 96
1, 481435, Control_c, 0, 64, 102
1, 481450, Control_c, 0, 64, 107
1, 481465, Control_c, 0, 64, 112
1, 481479, Control_c, 0, 64, 115
1, 481490, Note_off_c, 0, 43, 32
1, 481494, Control_c, 0, 64, 119
1, 481509, Control_c, 0, 64, 127
1, 481526, Note_off_c, 0, 52, 44
1, 481566, Note_on_c, 0, 64, 39
1, 481574, Note_on_c, 0, 55, 40
1, 481771, Note_off_c, 0, 64, 40
1, 481797, Note_off_c, 0, 55, 35
1, 481802, Note_on_c, 0, 61, 45
1, 481814, Note_on_c, 0, 59, 47
1, 481858, Note_off_c, 0, 61, 57
1, 482023, Note_off_c, 0, 59, 38
1, 482026, Note_on_c, 0, 58, 44
1, 482035, Note_on_c, 0, 61, 46
1, 482099, Note_off_c, 0, 61, 52
1, 482216, Note_off_c, 0, 58, 52
1, 482260, Note_on_c, 0, 63, 52
1, 482279, Note_on_c, 0, 57, 42
1, 482338, Note_off_c, 0, 63, 57
1, 482477, Note_off_c, 0, 57, 38
1, 482479, Note_on_c, 0, 63, 52
1, 482493, Note_on_c, 0, 56, 41
1, 482524, Control_c, 0, 67, 56
1, 482547, Note_off_c, 0, 63, 61
1, 482568, Control_c, 0, 64, 123
1, 482583, Control_c, 0, 64, 121
1, 482628, Control_c, 0, 64, 119
1, 482640, Note_off_c, 0, 56, 35
1, 482687, Control_c, 0, 64, 118
1, 482709, Control_c, 0, 64, 117
1, 482710, Note_on_c, 0, 70, 72
1, 482723, Note_on_c, 0, 55, 43
1, 482724, Control_c, 0, 64, 116
1, 482733, Note_on_c, 0, 64, 52
1, 482739, Control_c, 0, 64, 114
1, 482741, Note_off_c, 0, 71, 41
1, 482753, Control_c, 0, 64, 113
1, 482768, Control_c, 0, 64, 113
1, 482783, Control_c, 0, 64, 112
1, 482798, Control_c, 0, 64, 111
1, 482813, Note_off_c, 0, 64, 43
1, 482813, Control_c, 0, 64, 110
1, 482828, Control_c, 0, 64, 110
1, 482842, Control_c, 0, 64, 109
1, 482857, Control_c, 0, 64, 108
1, 482872, Control_c, 0, 64, 107
1, 482887, Control_c, 0, 64, 107
1, 482918, Control_c, 0, 64, 106
1, 482923, Note_off_c, 0, 55, 32
1, 482932, Control_c, 0, 64, 106
1, 482947, Control_c, 0, 64, 105
1, 482951, Note_on_c, 0, 54, 50
1, 482959, Note_on_c, 0, 64, 55
1, 482962, Control_c, 0, 64, 104
1, 482977, Control_c, 0, 64, 104
1, 482991, Control_c, 0, 64, 103
1, 483006, Control_c, 0, 64, 103
1, 483036, Control_c, 0, 64, 102
1, 483125, Control_c, 0, 64, 102
1, 483140, Control_c, 0, 64, 100
1, 483155, Control_c, 0, 64, 96
1, 483161, Note_off_c, 0, 64, 32
1, 483169, Control_c, 0, 64, 90
1, 483184, Control_c, 0, 64, 83
1, 483199, Note_on_c, 0, 71, 75
1, 483199, Control_c, 0, 64, 75
1, 483206, Note_on_c, 0, 57, 53
1, 483214, Note_on_c, 0, 66, 52
1, 483214, Control_c, 0, 64, 69
1, 483221, Note_off_c, 0, 54, 29
1, 483229, Control_c, 0, 64, 65
1, 483243, Control_c, 0, 64, 64
1, 483258, Control_c, 0, 64, 65
1, 483263, Note_off_c, 0, 70, 40
1, 483273, Control_c, 0, 64, 66
1, 483288, Control_c, 0, 64, 68
1, 483303, Control_c, 0, 64, 71
1, 483316, Note_off_c, 0, 66, 53
1, 483317, Control_c, 0, 64, 75
1, 483332, Control_c, 0, 64, 80
1, 483347, Control_c, 0, 64, 85
1, 483362, Control_c, 0, 64, 91
1, 483376, Control_c, 0, 64, 98
1, 483391, Control_c, 0, 64, 106
1, 483406, Control_c, 0, 64, 117
1, 483421, Control_c, 0, 64, 127
1, 483464, Note_on_c, 0, 56, 52
1, 483465, Note_off_c, 0, 57, 53
1, 483467, Note_on_c, 0, 66, 52
1, 483680, Note_on_c, 0, 63, 58
1, 483681, Note_on_c, 0, 55, 51
1, 483710, Note_off_c, 0, 56, 31
1, 483770, Control_c, 0, 67, 56
1, 483782, Note_off_c, 0, 63, 53
1, 483882, Note_off_c, 0, 55, 34
1, 483901, Note_on_c, 0, 54, 60
1, 483903, Note_on_c, 0, 63, 66
1, 483924, Note_off_c, 0, 66, 13
1, 484008, Note_off_c, 0, 63, 59
1, 484118, Note_off_c, 0, 54, 57
1, 484122, Note_off_c, 0, 71, 39
1, 484129, Note_on_c, 0, 55, 60
1, 484134, Note_on_c, 0, 73, 78
1, 484149, Note_on_c, 0, 64, 60
1, 484253, Note_off_c, 0, 64, 57
1, 484370, Control_c, 0, 64, 123
1, 484381, Note_off_c, 0, 55, 53
1, 484382, Note_on_c, 0, 54, 60
1, 484385, Control_c, 0, 64, 118
1, 484393, Note_on_c, 0, 64, 52
1, 484399, Control_c, 0, 64, 117
1, 484414, Control_c, 0, 64, 116
1, 484429, Control_c, 0, 64, 114
1, 484444, Control_c, 0, 64, 112
1, 484459, Control_c, 0, 64, 110
1, 484473, Control_c, 0, 64, 108
1, 484488, Control_c, 0, 64, 108
1, 484504, Control_c, 0, 64, 107
1, 484519, Control_c, 0, 64, 107
1, 484534, Control_c, 0, 64, 104
1, 484548, Control_c, 0, 64, 102
1, 484569, Note_off_c, 0, 64, 50
1, 484578, Control_c, 0, 64, 102
1, 484595, Note_off_c, 0, 54, 59
1, 484603, Note_on_c, 0, 53, 66
1, 484608, Control_c, 0, 64, 101
1, 484609, Note_on_c, 0, 61, 64
1, 484622, Control_c, 0, 64, 101
1, 484637, Control_c, 0, 64, 100
1, 484667, Control_c, 0, 64, 100
1, 484682, Control_c, 0, 64, 99
1, 484697, Control_c, 0, 64, 99
1, 484706, Note_off_c, 0, 61, 54
1, 484711, Control_c, 0, 64, 97
1, 484726, Control_c, 0, 64, 97
1, 484741, Control_c, 0, 64, 96
1, 484771, Control_c, 0, 64, 96
1, 484786, Control_c, 0, 64, 95
1, 484786, Note_off_c, 0, 73, 48
1, 484801, Control_c, 0, 64, 95
1, 484810, Note_off_c, 0, 53, 56
1, 484815, Control_c, 0, 64, 94
1, 484830, Control_c, 0, 64, 94
1, 484830, Control_c, 0, 67, 57
1, 484834, Note_on_c, 0, 52, 61
1, 484840, Note_on_c, 0, 61, 69
1, 484845, Control_c, 0, 64, 93
1, 484860, Control_c, 0, 64, 93
1, 484875, Control_c, 0, 64, 92
1, 484890, Control_c, 0, 64, 91
1, 484904, Control_c, 0, 64, 91
1, 484919, Control_c, 0, 64, 90
1, 484934, Control_c, 0, 64, 90
1, 484956, Control_c, 0, 64, 89
1, 484971, Control_c, 0, 64, 88
1, 484974, Note_off_c, 0, 61, 58
1, 484986, Control_c, 0, 64, 87
1, 485001, Control_c, 0, 64, 86
1, 485016, Control_c, 0, 64, 86
1, 485030, Control_c, 0, 64, 85
1, 485034, Note_off_c, 0, 52, 61
1, 485045, Control_c, 0, 64, 83
1, 485060, Control_c, 0, 64, 80
1, 485075, Control_c, 0, 64, 76
1, 485084, Poly_aftertouch_c, 0, 69, 127
1, 485090, Control_c, 0, 64, 68
1, 485104, Control_c, 0, 64, 62
1, 485117, Note_on_c, 0, 47, 42
1, 485117, Note_on_c, 0, 53, 42
1, 485119, Control_c, 0, 64, 58
1, 485129, Note_on_c, 0, 71, 74
1, 485132, Note_on_c, 0, 43, 37
1, 485134, Control_c, 0, 64, 56
1, 485138, Note_on_c, 0, 63, 57
1, 485148, Control_c, 0, 64, 56
1, 485150, Poly_aftertouch_c, 0, 69, 0
1, 485163, Control_c, 0, 64, 57
1, 485178, Control_c, 0, 64, 60
1, 485193, Control_c, 0, 64, 63
1, 485208, Control_c, 0, 64, 66
1, 485222, Control_c, 0, 64, 70
1, 485237, Control_c, 0, 64, 76
1, 485252, Control_c, 0, 64, 89
1, 485267, Control_c, 0, 64, 127
1, 485272, Note_off_c, 0, 47, 54
1, 485314, Note_off_c, 0, 63, 57
1, 485326, Note_off_c, 0, 43, 40
1, 485460, Note_off_c, 0, 53, 55
1, 485476, Note_on_c, 0, 54, 51
1, 485487, Note_on_c, 0, 63, 52
1, 485615, Note_off_c, 0, 63, 47
1, 485674, Note_off_c, 0, 54, 52
1, 485717, Note_on_c, 0, 55, 47
1, 485720, Note_on_c, 0, 59, 51
1, 485809, Note_off_c, 0, 59, 56
1, 485928, Note_off_c, 0, 55, 48
1, 485939, Note_on_c, 0, 59, 56
1, 485944, Note_on_c, 0, 56, 50
1, 486094, Note_off_c, 0, 59, 37
1, 486121, Control_c, 0, 64, 113
1, 486136, Control_c, 0, 64, 99
1, 486150, Control_c, 0, 64, 88
1, 486160, Note_off_c, 0, 56, 37
1, 486165, Control_c, 0, 64, 79
1, 486166, Note_on_c, 0, 57, 44
1, 486178, Note_on_c, 0, 67, 59
1, 486180, Control_c, 0, 64, 73
1, 486182, Note_on_c, 0, 61, 44
1, 486194, Control_c, 0, 64, 68
1, 486209, Control_c, 0, 64, 65
1, 486239, Control_c, 0, 64, 66
1, 486254, Control_c, 0, 64, 68
1, 486268, Control_c, 0, 64, 70
1, 486283, Control_c, 0, 64, 73
1, 486283, Control_c, 0, 67, 58
1, 486289, Note_off_c, 0, 61, 56
1, 486298, Control_c, 0, 64, 76
1, 486313, Control_c, 0, 64, 80
1, 486328, Control_c, 0, 64, 83
1, 486342, Control_c, 0, 64, 86
1, 486357, Control_c, 0, 64, 89
1, 486372, Control_c, 0, 64, 92
1, 486387, Control_c, 0, 64, 95
1, 486401, Note_off_c, 0, 71, 19
1, 486402, Control_c, 0, 64, 97
1, 486410, Note_on_c, 0, 58, 49
1, 486417, Control_c, 0, 64, 99
1, 486418, Note_on_c, 0, 61, 52
1, 486431, Control_c, 0, 64, 102
1, 486434, Note_off_c, 0, 57, 35
1, 486454, Control_c, 0, 64, 106
1, 486468, Control_c, 0, 64, 112
1, 486483, Control_c, 0, 64, 121
1, 486498, Control_c, 0, 64, 127
1, 486628, Note_off_c, 0, 58, 51
1, 486657, Note_on_c, 0, 59, 45
1, 486658, Note_on_c, 0, 63, 51
1, 486661, Control_c, 0, 64, 123
1, 486667, Note_off_c, 0, 61, 21
1, 486691, Control_c, 0, 64, 121
1, 486706, Control_c, 0, 64, 119
1, 486736, Control_c, 0, 64, 118
1, 486753, Note_off_c, 0, 63, 52
1, 486765, Control_c, 0, 64, 117
1, 486780, Control_c, 0, 64, 116
1, 486794, Control_c, 0, 64, 115
1, 486809, Control_c, 0, 64, 114
1, 486839, Control_c, 0, 64, 113
1, 486842, Note_off_c, 0, 59, 57
1, 486854, Control_c, 0, 64, 113
1, 486868, Control_c, 0, 64, 112
1, 486880, Note_on_c, 0, 63, 55
1, 486892, Note_on_c, 0, 60, 42
1, 486914, Control_c, 0, 67, 58
1, 486944, Control_c, 0, 64, 111
1, 486973, Control_c, 0, 64, 111
1, 486998, Note_off_c, 0, 63, 58
1, 487003, Control_c, 0, 64, 110
1, 487017, Control_c, 0, 64, 110
1, 487047, Control_c, 0, 64, 108
1, 487062, Control_c, 0, 64, 107
1, 487077, Control_c, 0, 64, 103
1, 487091, Control_c, 0, 64, 97
1, 487106, Control_c, 0, 64, 88
1, 487121, Control_c, 0, 64, 79
1, 487123, Note_off_c, 0, 60, 36
1, 487125, Note_on_c, 0, 64, 54
1, 487126, Note_on_c, 0, 61, 41
1, 487136, Control_c, 0, 64, 71
1, 487151, Control_c, 0, 64, 68
1, 487165, Control_c, 0, 64, 66
1, 487180, Control_c, 0, 64, 67
1, 487203, Control_c, 0, 64, 68
1, 487217, Control_c, 0, 64, 70
1, 487232, Control_c, 0, 64, 72
1, 487243, Note_off_c, 0, 64, 57
1, 487247, Control_c, 0, 64, 77
1, 487262, Control_c, 0, 64, 81
1, 487277, Control_c, 0, 64, 86
1, 487291, Control_c, 0, 64, 92
1, 487306, Control_c, 0, 64, 97
1, 487321, Control_c, 0, 64, 102
1, 487336, Control_c, 0, 64, 107
1, 487349, Note_on_c, 0, 64, 55
1, 487351, Control_c, 0, 64, 113
1, 487359, Note_on_c, 0, 60, 46
1, 487359, Note_off_c, 0, 61, 36
1, 487365, Control_c, 0, 64, 127
1, 487380, Control_c, 0, 67, 58
1, 487484, Control_c, 0, 67, 57
1, 487562, Note_off_c, 0, 60, 37
1, 487573, Control_c, 0, 67, 56
1, 487584, Note_on_c, 0, 61, 58
1, 487597, Note_on_c, 0, 59, 46
1, 487618, Note_off_c, 0, 64, 33
1, 487661, Control_c, 0, 67, 56
1, 487752, Note_off_c, 0, 61, 51
1, 487803, Note_on_c, 0, 58, 62
1, 487819, Note_off_c, 0, 59, 33
1, 487926, Note_off_c, 0, 67, 57
1, 488006, Note_off_c, 0, 58, 52
1, 488025, Control_c, 0, 64, 116
1, 488039, Control_c, 0, 64, 102
1, 488054, Control_c, 0, 64, 88
1, 488054, Control_c, 0, 67, 56
1, 488059, Note_on_c, 0, 57, 54
1, 488065, Note_on_c, 0, 69, 71
1, 488068, Note_on_c, 0, 66, 61
1, 488069, Control_c, 0, 64, 76
1, 488084, Control_c, 0, 64, 69
1, 488099, Control_c, 0, 64, 66
1, 488113, Control_c, 0, 64, 66
1, 488128, Control_c, 0, 64, 67
1, 488143, Control_c, 0, 64, 69
1, 488158, Control_c, 0, 64, 72
1, 488172, Control_c, 0, 64, 77
1, 488187, Control_c, 0, 64, 84
1, 488202, Control_c, 0, 64, 91
1, 488208, Note_off_c, 0, 66, 57
1, 488217, Control_c, 0, 64, 100
1, 488232, Control_c, 0, 64, 111
1, 488247, Control_c, 0, 64, 127
1, 488313, Note_on_c, 0, 56, 50
1, 488319, Note_on_c, 0, 66, 62
1, 488353, Note_off_c, 0, 57, 31
1, 488457, Note_off_c, 0, 66, 34
1, 488500, Note_off_c, 0, 56, 56
1, 488549, Note_on_c, 0, 55, 51
1, 488558, Note_on_c, 0, 62, 56
1, 488573, Control_c, 0, 67, 57
1, 488646, Note_off_c, 0, 62, 56
1, 488766, Note_off_c, 0, 55, 48
1, 488809, Note_on_c, 0, 54, 54
1, 488811, Note_on_c, 0, 62, 65
1, 488921, Control_c, 0, 64, 104
1, 488936, Control_c, 0, 64, 94
1, 488938, Note_off_c, 0, 62, 56
1, 488950, Control_c, 0, 64, 90
1, 488965, Control_c, 0, 64, 89
1, 488980, Control_c, 0, 64, 87
1, 488995, Control_c, 0, 64, 84
1, 489010, Control_c, 0, 64, 79
1, 489025, Control_c, 0, 64, 74
1, 489039, Note_off_c, 0, 54, 61
1, 489040, Control_c, 0, 64, 69
1, 489055, Control_c, 0, 64, 66
1, 489069, Control_c, 0, 64, 63
1, 489070, Note_on_c, 0, 71, 72
1, 489075, Note_on_c, 0, 55, 44
1, 489084, Control_c, 0, 64, 61
1, 489086, Note_on_c, 0, 64, 46
1, 489099, Control_c, 0, 64, 55
1, 489099, Control_c, 0, 67, 58
1, 489114, Control_c, 0, 64, 43
1, 489114, Control_c, 0, 67, 58
1, 489129, Control_c, 0, 64, 0
1, 489129, Control_c, 0, 67, 60
1, 489133, Note_off_c, 0, 69, 50
1, 489143, Control_c, 0, 67, 60
1, 489173, Control_c, 0, 67, 61
1, 489222, Note_off_c, 0, 64, 62
1, 489276, Control_c, 0, 64, 40
1, 489292, Control_c, 0, 64, 57
1, 489307, Control_c, 0, 64, 64
1, 489317, Note_off_c, 0, 55, 56
1, 489322, Control_c, 0, 64, 68
1, 489322, Control_c, 0, 67, 60
1, 489337, Control_c, 0, 64, 74
1, 489338, Note_on_c, 0, 51, 45
1, 489352, Control_c, 0, 64, 83
1, 489361, Note_on_c, 0, 64, 52
1, 489366, Control_c, 0, 64, 99
1, 489381, Control_c, 0, 64, 127
1, 489403, Note_off_c, 0, 64, 62
1, 489478, Control_c, 0, 67, 61
1, 489507, Control_c, 0, 67, 61
1, 489537, Control_c, 0, 67, 62
1, 489546, Note_off_c, 0, 51, 34
1, 489566, Control_c, 0, 67, 63
1, 489581, Control_c, 0, 67, 64
1, 489596, Control_c, 0, 67, 65
1, 489611, Control_c, 0, 67, 66
1, 489615, Note_on_c, 0, 52, 36
1, 489625, Control_c, 0, 67, 66
1, 489627, Note_on_c, 0, 61, 52
1, 489640, Control_c, 0, 67, 68
1, 489655, Control_c, 0, 67, 70
1, 489670, Control_c, 0, 67, 72
1, 489685, Control_c, 0, 67, 73
1, 489699, Control_c, 0, 67, 75
1, 489714, Note_off_c, 0, 61, 57
1, 489714, Control_c, 0, 67, 76
1, 489729, Control_c, 0, 67, 78
1, 489744, Control_c, 0, 67, 80
1, 489758, Control_c, 0, 67, 82
1, 489773, Control_c, 0, 67, 83
1, 489788, Control_c, 0, 67, 85
1, 489803, Control_c, 0, 67, 87
1, 489818, Control_c, 0, 67, 98
1, 489833, Control_c, 0, 67, 112
1, 489848, Control_c, 0, 67, 125
1, 489859, Note_off_c, 0, 52, 42
1, 489862, Control_c, 0, 67, 127
1, 489920, Note_on_c, 0, 61, 38
1, 489921, Note_on_c, 0, 46, 37
1, 489982, Note_off_c, 0, 61, 49
1, 490032, Note_off_c, 0, 71, 36
1, 490138, Note_on_c, 0, 62, 37
1, 490176, Note_off_c, 0, 62, 51
1, 490392, Note_off_c, 0, 46, 33
1, 490476, Note_on_c, 0, 47, 24
1, 490568, Note_on_c, 0, 83, 66
1, 490661, Note_off_c, 0, 83, 61
1, 490704, Note_off_c, 0, 47, 34
1, 491091, Note_on_c, 0, 31, 32
1, 491146, Note_on_c, 0, 62, 31
1, 491203, Note_off_c, 0, 62, 48
1, 491384, Note_off_c, 0, 31, 39
1, 491419, Note_on_c, 0, 35, 28
1, 491430, Note_on_c, 0, 64, 31
1, 491467, Note_off_c, 0, 64, 50
1, 491651, Note_off_c, 0, 35, 35
1, 491705, Note_on_c, 0, 40, 29
1, 491711, Note_on_c, 0, 64, 24
1, 491749, Note_off_c, 0, 64, 48
1, 491893, Note_off_c, 0, 40, 44
1, 491979, Note_on_c, 0, 78, 65
1, 491983, Note_on_c, 0, 47, 16
1, 492006, Note_on_c, 0, 66, 33
1, 492050, Note_off_c, 0, 66, 47
1, 492053, Note_off_c, 0, 47, 57
1, 492274, Note_on_c, 0, 66, 38
1, 492284, Note_on_c, 0, 52, 39
1, 492286, Note_off_c, 0, 78, 54
1, 492328, Note_off_c, 0, 66, 56
1, 492439, Note_off_c, 0, 52, 36
1, 492567, Note_on_c, 0, 76, 60
1, 492579, Note_on_c, 0, 55, 34
1, 492584, Note_on_c, 0, 62, 39
1, 492636, Note_off_c, 0, 62, 46
1, 492833, Note_off_c, 0, 55, 44
1, 492869, Note_on_c, 0, 58, 32
1, 492880, Note_on_c, 0, 62, 36
1, 492888, Note_off_c, 0, 76, 23
1, 492913, Note_off_c, 0, 62, 53
1, 493132, Note_off_c, 0, 58, 41
1, 493149, Note_on_c, 0, 74, 62
1, 493165, Note_on_c, 0, 59, 34
1, 493174, Note_on_c, 0, 64, 33
1, 493261, Note_off_c, 0, 64, 42
1, 493386, Note_off_c, 0, 59, 38
1, 493451, Note_on_c, 0, 54, 39
1, 493456, Note_on_c, 0, 64, 31
1, 493500, Note_off_c, 0, 64, 55
1, 493704, Note_off_c, 0, 74, 50
1, 493710, Note_off_c, 0, 54, 43
1, 493732, Note_on_c, 0, 55, 38
1, 493734, Note_on_c, 0, 73, 51
1, 493736, Note_on_c, 0, 61, 43
1, 493798, Note_off_c, 0, 61, 51
1, 494118, Note_on_c, 0, 61, 41
1, 494118, Note_off_c, 0, 55, 40
1, 494125, Note_on_c, 0, 52, 31
1, 494157, Note_off_c, 0, 73, 31
1, 494277, Note_off_c, 0, 52, 35
1, 494293, Note_off_c, 0, 61, 53
1, 494504, Control_c, 0, 64, 117
1, 494519, Control_c, 0, 64, 98
1, 494534, Note_on_c, 0, 71, 65
1, 494534, Control_c, 0, 64, 85
1, 494539, Note_on_c, 0, 43, 31
1, 494545, Note_on_c, 0, 62, 49
1, 494547, Note_on_c, 0, 47, 32
1, 494548, Control_c, 0, 64, 74
1, 494552, Note_on_c, 0, 53, 37
1, 494563, Control_c, 0, 64, 66
1, 494578, Control_c, 0, 64, 60
1, 494593, Control_c, 0, 64, 58
1, 494608, Control_c, 0, 64, 60
1, 494623, Control_c, 0, 64, 62
1, 494638, Control_c, 0, 64, 63
1, 494653, Control_c, 0, 64, 64
1, 494668, Control_c, 0, 64, 66
1, 494689, Control_c, 0, 64, 70
1, 494704, Control_c, 0, 64, 75
1, 494719, Control_c, 0, 64, 85
1, 494734, Control_c, 0, 64, 101
1, 494738, Note_off_c, 0, 47, 41
1, 494749, Control_c, 0, 64, 127
1, 494769, Note_off_c, 0, 62, 59
1, 494772, Note_off_c, 0, 43, 40
1, 494932, Note_off_c, 0, 53, 42
1, 494934, Note_on_c, 0, 54, 43
1, 494939, Note_on_c, 0, 62, 43
1, 495000, Note_off_c, 0, 62, 56
1, 495169, Note_off_c, 0, 54, 42
1, 495191, Note_on_c, 0, 59, 46
1, 495196, Note_on_c, 0, 55, 39
1, 495261, Note_off_c, 0, 59, 55
1, 495401, Note_off_c, 0, 55, 43
1, 495450, Note_on_c, 0, 56, 38
1, 495458, Note_on_c, 0, 59, 45
1, 495528, Note_off_c, 0, 59, 56
1, 495651, Note_on_c, 0, 67, 64
1, 495664, Note_on_c, 0, 59, 41
1, 495669, Note_on_c, 0, 57, 44
1, 495671, Note_off_c, 0, 56, 41
1, 495721, Note_off_c, 0, 71, 35
1, 495747, Note_off_c, 0, 59, 49
1, 495886, Note_off_c, 0, 57, 34
1, 495893, Note_on_c, 0, 58, 47
1, 496101, Note_on_c, 0, 62, 53
1, 496102, Note_off_c, 0, 58, 38
1, 496111, Note_on_c, 0, 59, 43
1, 496149, Note_off_c, 0, 62, 57
1, 496301, Note_off_c, 0, 59, 60
1, 496341, Note_on_c, 0, 60, 52
1, 496344, Note_on_c, 0, 62, 50
1, 496484, Note_off_c, 0, 62, 49
1, 496499, Control_c, 0, 64, 106
1, 496514, Control_c, 0, 64, 89
1, 496529, Control_c, 0, 64, 77
1, 496544, Control_c, 0, 64, 68
1, 496549, Note_off_c, 0, 60, 58
1, 496558, Control_c, 0, 64, 65
1, 496568, Note_on_c, 0, 64, 53
1, 496572, Note_on_c, 0, 61, 49
1, 496573, Control_c, 0, 64, 66
1, 496588, Control_c, 0, 64, 67
1, 496603, Control_c, 0, 64, 69
1, 496618, Control_c, 0, 64, 71
1, 496632, Control_c, 0, 64, 73
1, 496647, Control_c, 0, 64, 77
1, 496662, Control_c, 0, 64, 80
1, 496676, Control_c, 0, 64, 83
1, 496691, Control_c, 0, 64, 89
1, 496702, Note_off_c, 0, 64, 59
1, 496706, Control_c, 0, 64, 99
1, 496721, Control_c, 0, 64, 118
1, 496736, Control_c, 0, 64, 127
1, 496758, Note_off_c, 0, 61, 60
1, 496800, Note_on_c, 0, 59, 55
1, 496802, Note_on_c, 0, 64, 58
1, 496960, Note_off_c, 0, 64, 61
1, 497013, Note_off_c, 0, 59, 51
1, 497025, Note_on_c, 0, 54, 58
1, 497029, Note_on_c, 0, 66, 69
1, 497063, Note_off_c, 0, 67, 40
1, 497192, Note_off_c, 0, 66, 62
1, 497258, Note_on_c, 0, 50, 66
1, 497263, Note_off_c, 0, 54, 58
1, 497485, Control_c, 0, 64, 110
1, 497500, Control_c, 0, 64, 91
1, 497514, Note_on_c, 0, 72, 73
1, 497514, Control_c, 0, 64, 78
1, 497522, Note_on_c, 0, 67, 59
1, 497529, Control_c, 0, 64, 68
1, 497544, Control_c, 0, 64, 60
1, 497545, Note_on_c, 0, 51, 59
1, 497559, Control_c, 0, 64, 53
1, 497565, Note_off_c, 0, 50, 59
1, 497574, Control_c, 0, 64, 56
1, 497589, Control_c, 0, 64, 59
1, 497604, Control_c, 0, 64, 60
1, 497618, Control_c, 0, 64, 62
1, 497633, Control_c, 0, 64, 63
1, 497648, Control_c, 0, 64, 65
1, 497659, Note_off_c, 0, 67, 58
1, 497663, Control_c, 0, 64, 68
1, 497685, Control_c, 0, 64, 74
1, 497699, Control_c, 0, 64, 84
1, 497714, Control_c, 0, 64, 99
1, 497729, Control_c, 0, 64, 127
1, 497788, Note_on_c, 0, 67, 64
1, 497797, Note_off_c, 0, 51, 58
1, 497798, Note_on_c, 0, 52, 64
1, 497952, Control_c, 0, 67, 125
1, 497967, Control_c, 0, 67, 120
1, 497971, Note_off_c, 0, 52, 60
1, 497981, Control_c, 0, 67, 117
1, 497996, Control_c, 0, 67, 112
1, 498011, Control_c, 0, 67, 107
1, 498016, Note_on_c, 0, 53, 60
1, 498018, Note_on_c, 0, 64, 66
1, 498025, Control_c, 0, 67, 98
1, 498039, Note_off_c, 0, 67, 27
1, 498040, Control_c, 0, 67, 87
1, 498055, Control_c, 0, 67, 74
1, 498071, Control_c, 0, 67, 60
1, 498086, Control_c, 0, 67, 46
1, 498101, Control_c, 0, 67, 31
1, 498116, Control_c, 0, 67, 18
1, 498129, Control_c, 0, 67, 0
1, 498150, Note_off_c, 0, 64, 58
1, 498226, Note_off_c, 0, 53, 36
1, 498269, Note_on_c, 0, 55, 61
1, 498286, Note_on_c, 0, 64, 67
1, 498307, Note_off_c, 0, 55, 58
1, 498474, Note_off_c, 0, 64, 62
1, 498589, Note_on_c, 0, 57, 53
1, 498596, Control_c, 0, 64, 91
1, 498598, Note_on_c, 0, 50, 47
1, 498602, Note_on_c, 0, 45, 43
1, 498611, Note_off_c, 0, 72, 54
1, 498611, Control_c, 0, 64, 73
1, 498616, Note_on_c, 0, 74, 70
1, 498626, Note_on_c, 0, 65, 57
1, 498626, Control_c, 0, 64, 62
1, 498641, Control_c, 0, 64, 50
1, 498655, Control_c, 0, 64, 52
1, 498670, Control_c, 0, 64, 56
1, 498685, Control_c, 0, 64, 60
1, 498700, Control_c, 0, 64, 62
1, 498715, Control_c, 0, 64, 65
1, 498729, Control_c, 0, 64, 68
1, 498744, Control_c, 0, 64, 75
1, 498759, Note_off_c, 0, 45, 49
1, 498759, Control_c, 0, 64, 89
1, 498760, Note_off_c, 0, 50, 62
1, 498774, Control_c, 0, 64, 127
1, 498847, Note_off_c, 0, 65, 50
1, 498986, Note_on_c, 0, 65, 57
1, 499000, Note_off_c, 0, 57, 38
1, 499012, Note_on_c, 0, 56, 60
1, 499175, Note_off_c, 0, 65, 35
1, 499280, Note_on_c, 0, 57, 61
1, 499294, Note_off_c, 0, 56, 32
1, 499296, Note_on_c, 0, 62, 62
1, 499408, Note_off_c, 0, 62, 55
1, 499528, Note_off_c, 0, 57, 61
1, 499531, Note_on_c, 0, 62, 67
1, 499540, Note_on_c, 0, 59, 66
1, 499690, Note_off_c, 0, 62, 62
1, 499730, Control_c, 0, 64, 100
1, 499743, Note_off_c, 0, 59, 59
1, 499745, Control_c, 0, 64, 84
1, 499755, Note_on_c, 0, 64, 60
1, 499760, Control_c, 0, 64, 73
1, 499771, Note_on_c, 0, 60, 53
1, 499774, Control_c, 0, 64, 66
1, 499789, Control_c, 0, 64, 63
1, 499804, Control_c, 0, 64, 65
1, 499819, Control_c, 0, 64, 67
1, 499834, Control_c, 0, 64, 68
1, 499848, Control_c, 0, 64, 71
1, 499863, Control_c, 0, 64, 74
1, 499878, Control_c, 0, 64, 78
1, 499888, Note_off_c, 0, 64, 60
1, 499893, Control_c, 0, 64, 82
1, 499908, Control_c, 0, 64, 86
1, 499930, Control_c, 0, 64, 91
1, 499945, Control_c, 0, 64, 96
1, 499960, Control_c, 0, 64, 104
1, 499974, Control_c, 0, 64, 116
1, 499989, Control_c, 0, 64, 127
1, 499998, Note_off_c, 0, 60, 52
1, 500001, Note_on_c, 0, 59, 61
1, 500004, Note_on_c, 0, 64, 75
1, 500094, Note_off_c, 0, 64, 61
1, 500107, Note_off_c, 0, 74, 55
1, 500218, Note_off_c, 0, 59, 53
1, 500232, Note_on_c, 0, 71, 77
1, 500242, Note_on_c, 0, 60, 51
1, 500249, Note_on_c, 0, 65, 56
1, 500303, Note_off_c, 0, 65, 50
1, 500428, Note_off_c, 0, 60, 56
1, 500448, Control_c, 0, 64, 118
1, 500457, Note_on_c, 0, 65, 58
1, 500463, Control_c, 0, 64, 114
1, 500472, Note_on_c, 0, 62, 45
1, 500479, Control_c, 0, 64, 113
1, 500494, Control_c, 0, 64, 113
1, 500509, Control_c, 0, 64, 112
1, 500523, Control_c, 0, 64, 111
1, 500538, Control_c, 0, 64, 110
1, 500553, Control_c, 0, 64, 108
1, 500568, Control_c, 0, 64, 107
1, 500583, Control_c, 0, 64, 105
1, 500597, Control_c, 0, 64, 103
1, 500612, Control_c, 0, 64, 99
1, 500627, Control_c, 0, 64, 95
1, 500635, Note_off_c, 0, 65, 50
1, 500642, Control_c, 0, 64, 88
1, 500657, Control_c, 0, 64, 81
1, 500679, Control_c, 0, 64, 75
1, 500694, Control_c, 0, 64, 70
1, 500696, Note_off_c, 0, 62, 38
1, 500709, Control_c, 0, 64, 65
1, 500712, Note_on_c, 0, 64, 41
1, 500723, Control_c, 0, 64, 61
1, 500734, Note_on_c, 0, 72, 68
1, 500738, Control_c, 0, 64, 59
1, 500747, Note_on_c, 0, 67, 47
1, 500753, Control_c, 0, 64, 60
1, 500765, Note_off_c, 0, 71, 58
1, 500768, Control_c, 0, 64, 61
1, 500783, Control_c, 0, 64, 62
1, 500797, Control_c, 0, 64, 63
1, 500812, Control_c, 0, 64, 65
1, 500827, Control_c, 0, 64, 66
1, 500842, Control_c, 0, 64, 69
1, 500856, Control_c, 0, 64, 71
1, 500858, Note_off_c, 0, 67, 60
1, 500871, Control_c, 0, 64, 74
1, 500886, Control_c, 0, 64, 76
1, 500901, Control_c, 0, 64, 79
1, 500916, Control_c, 0, 64, 82
1, 500931, Control_c, 0, 64, 86
1, 500945, Control_c, 0, 64, 92
1, 500960, Control_c, 0, 64, 102
1, 500975, Control_c, 0, 64, 127
1, 500977, Note_off_c, 0, 64, 50
1, 501009, Note_on_c, 0, 62, 40
1, 501021, Note_on_c, 0, 67, 51
1, 501071, Note_off_c, 0, 72, 58
1, 501224, Note_off_c, 0, 62, 56
1, 501229, Note_on_c, 0, 72, 73
1, 501229, Note_off_c, 0, 67, 54
1, 501243, Note_on_c, 0, 60, 48
1, 501246, Note_on_c, 0, 64, 57
1, 501337, Note_off_c, 0, 64, 59
1, 501461, Note_on_c, 0, 59, 55
1, 501461, Note_on_c, 0, 64, 63
1, 501463, Note_off_c, 0, 60, 34
1, 501589, Note_off_c, 0, 64, 61
1, 501648, Note_off_c, 0, 59, 57
1, 501695, Note_on_c, 0, 74, 72
1, 501696, Note_on_c, 0, 65, 63
1, 501698, Note_on_c, 0, 62, 48
1, 501703, Note_off_c, 0, 72, 58
1, 501816, Note_off_c, 0, 65, 58
1, 501883, Note_off_c, 0, 62, 52
1, 501941, Note_on_c, 0, 65, 60
1, 501950, Note_on_c, 0, 60, 43
1, 502031, Note_off_c, 0, 74, 59
1, 502040, Note_off_c, 0, 60, 53
1, 502096, Note_off_c, 0, 65, 60
1, 502150, Note_on_c, 0, 74, 81
1, 502153, Note_on_c, 0, 57, 47
1, 502159, Note_on_c, 0, 62, 66
1, 502310, Note_off_c, 0, 62, 55
1, 502354, Note_off_c, 0, 57, 36
1, 502364, Note_on_c, 0, 55, 56
1, 502390, Note_off_c, 0, 55, 62
1, 502437, Note_on_c, 0, 62, 60
1, 502508, Note_off_c, 0, 62, 58
1, 502555, Note_on_c, 0, 40, 41
1, 502596, Note_off_c, 0, 40, 46
1, 502630, Note_on_c, 0, 41, 12
1, 502639, Note_on_c, 0, 50, 51
1, 502674, Note_off_c, 0, 41, 54
1, 502695, Control_c, 0, 64, 121
1, 502710, Control_c, 0, 64, 88
1, 502714, Note_on_c, 0, 57, 64
1, 502725, Control_c, 0, 64, 74
1, 502737, Note_on_c, 0, 76, 72
1, 502739, Note_on_c, 0, 64, 66
1, 502740, Control_c, 0, 64, 64
1, 502755, Control_c, 0, 64, 59
1, 502758, Note_off_c, 0, 50, 61
1, 502769, Control_c, 0, 64, 59
1, 502779, Note_off_c, 0, 74, 56
1, 502784, Control_c, 0, 64, 62
1, 502799, Control_c, 0, 64, 64
1, 502814, Control_c, 0, 64, 66
1, 502829, Control_c, 0, 64, 68
1, 502843, Control_c, 0, 64, 72
1, 502858, Control_c, 0, 64, 77
1, 502874, Control_c, 0, 64, 84
1, 502889, Control_c, 0, 64, 91
1, 502893, Note_off_c, 0, 64, 60
1, 502904, Control_c, 0, 64, 100
1, 502925, Control_c, 0, 64, 121
1, 502940, Control_c, 0, 64, 127
1, 503035, Note_on_c, 0, 64, 59
1, 503036, Note_off_c, 0, 57, 59
1, 503051, Note_on_c, 0, 55, 50
1, 503091, Note_off_c, 0, 76, 60
1, 503113, Note_off_c, 0, 64, 59
1, 503262, Note_off_c, 0, 55, 55
1, 503276, Note_on_c, 0, 69, 71
1, 503288, Note_on_c, 0, 53, 50
1, 503300, Note_on_c, 0, 60, 51
1, 503363, Note_off_c, 0, 60, 50
1, 503485, Note_off_c, 0, 53, 48
1, 503508, Note_on_c, 0, 60, 56
1, 503509, Note_on_c, 0, 52, 50
1, 503558, Note_off_c, 0, 60, 52
1, 503697, Note_off_c, 0, 52, 57
1, 503736, Note_on_c, 0, 74, 70
1, 503742, Note_on_c, 0, 62, 60
1, 503745, Note_on_c, 0, 53, 45
1, 503765, Note_off_c, 0, 69, 55
1, 503822, Note_off_c, 0, 62, 59
1, 503962, Note_on_c, 0, 62, 55
1, 503977, Note_on_c, 0, 52, 46
1, 503988, Note_off_c, 0, 53, 42
1, 504120, Note_off_c, 0, 62, 36
1, 504195, Note_on_c, 0, 64, 56
1, 504203, Note_on_c, 0, 50, 56
1, 504203, Note_off_c, 0, 52, 48
1, 504290, Note_off_c, 0, 64, 59
1, 504397, Note_off_c, 0, 50, 53
1, 504424, Note_on_c, 0, 48, 60
1, 504424, Note_on_c, 0, 64, 63
1, 504531, Note_off_c, 0, 64, 56
1, 504616, Control_c, 0, 64, 108
1, 504631, Control_c, 0, 64, 91
1, 504634, Note_off_c, 0, 48, 52
1, 504645, Control_c, 0, 64, 80
1, 504659, Note_on_c, 0, 50, 60
1, 504660, Control_c, 0, 64, 71
1, 504671, Note_on_c, 0, 65, 63
1, 504675, Control_c, 0, 64, 67
1, 504689, Control_c, 0, 64, 66
1, 504704, Control_c, 0, 64, 68
1, 504719, Control_c, 0, 64, 70
1, 504734, Control_c, 0, 64, 73
1, 504749, Control_c, 0, 64, 77
1, 504764, Control_c, 0, 64, 81
1, 504779, Control_c, 0, 64, 86
1, 504785, Note_off_c, 0, 65, 57
1, 504794, Control_c, 0, 64, 92
1, 504809, Control_c, 0, 64, 99
1, 504824, Control_c, 0, 64, 107
1, 504838, Control_c, 0, 64, 127
1, 504880, Note_off_c, 0, 50, 56
1, 504887, Note_on_c, 0, 48, 61
1, 504899, Note_on_c, 0, 65, 67
1, 505049, Note_off_c, 0, 65, 58
1, 505078, Note_off_c, 0, 74, 47
1, 505099, Note_on_c, 0, 67, 74
1, 505100, Note_on_c, 0, 47, 67
1, 505104, Note_off_c, 0, 48, 55
1, 505291, Note_off_c, 0, 47, 61
1, 505311, Note_off_c, 0, 67, 57
1, 505320, Note_on_c, 0, 45, 63
1, 505543, Control_c, 0, 64, 118
1, 505558, Control_c, 0, 64, 95
1, 505573, Control_c, 0, 64, 79
1, 505587, Control_c, 0, 64, 68
1, 505590, Note_on_c, 0, 72, 75
1, 505591, Note_on_c, 0, 48, 61
1, 505598, Note_on_c, 0, 69, 67
1, 505602, Control_c, 0, 64, 61
1, 505617, Control_c, 0, 64, 57
1, 505632, Control_c, 0, 64, 58
1, 505647, Control_c, 0, 64, 61
1, 505661, Control_c, 0, 64, 63
1, 505676, Control_c, 0, 64, 66
1, 505691, Control_c, 0, 64, 70
1, 505706, Control_c, 0, 64, 75
1, 505721, Control_c, 0, 64, 81
1, 505725, Note_off_c, 0, 45, 34
1, 505736, Control_c, 0, 64, 88
1, 505751, Control_c, 0, 64, 99
1, 505757, Note_off_c, 0, 69, 61
1, 505766, Control_c, 0, 64, 127
1, 505842, Note_on_c, 0, 52, 68
1, 505843, Note_off_c, 0, 48, 59
1, 505845, Note_on_c, 0, 69, 70
1, 505960, Note_off_c, 0, 69, 53
1, 506073, Note_on_c, 0, 65, 69
1, 506077, Note_off_c, 0, 52, 61
1, 506084, Note_on_c, 0, 53, 69
1, 506207, Note_off_c, 0, 65, 57
1, 506216, Note_off_c, 0, 53, 62
1, 506269, Note_on_c, 0, 57, 56
1, 506299, Note_off_c, 0, 57, 65
1, 506349, Note_on_c, 0, 65, 70
1, 506373, Note_on_c, 0, 64, 21
1, 506374, Note_off_c, 0, 64, 127
1, 506440, Note_on_c, 0, 40, 66
1, 506487, Note_off_c, 0, 40, 60
1, 506492, Note_on_c, 0, 46, 64
1, 506541, Note_on_c, 0, 50, 59
1, 506546, Note_off_c, 0, 65, 57
1, 506559, Note_off_c, 0, 46, 64
1, 506631, Note_on_c, 0, 58, 71
1, 506648, Control_c, 0, 64, 102
1, 506651, Note_off_c, 0, 50, 61
1, 506664, Note_off_c, 0, 72, 61
1, 506668, Note_on_c, 0, 74, 81
1, 506670, Control_c, 0, 64, 82
1, 506680, Note_on_c, 0, 67, 51
1, 506685, Control_c, 0, 64, 70
1, 506699, Control_c, 0, 64, 61
1, 506714, Control_c, 0, 64, 58
1, 506729, Control_c, 0, 64, 60
1, 506743, Control_c, 0, 64, 62
1, 506758, Control_c, 0, 64, 64
1, 506773, Control_c, 0, 64, 66
1, 506788, Control_c, 0, 64, 70
1, 506803, Control_c, 0, 64, 75
1, 506818, Control_c, 0, 64, 82
1, 506820, Note_off_c, 0, 67, 57
1, 506833, Control_c, 0, 64, 90
1, 506848, Control_c, 0, 64, 104
1, 506863, Control_c, 0, 64, 127
1, 506899, Note_off_c, 0, 58, 60
1, 506955, Note_on_c, 0, 67, 58
1, 506959, Note_on_c, 0, 57, 52
1, 507027, Note_off_c, 0, 67, 61
1, 507124, Note_off_c, 0, 57, 54
1, 507158, Note_on_c, 0, 58, 51
1, 507172, Note_on_c, 0, 64, 57
1, 507217, Note_off_c, 0, 64, 58
1, 507353, Note_off_c, 0, 58, 48
1, 507378, Note_on_c, 0, 64, 54
1, 507387, Note_on_c, 0, 60, 46
1, 507475, Note_off_c, 0, 64, 52
1, 507546, Note_off_c, 0, 60, 60
1, 507607, Note_on_c, 0, 62, 45
1, 507608, Note_on_c, 0, 65, 56
1, 507712, Note_off_c, 0, 65, 58
1, 507826, Note_on_c, 0, 60, 53
1, 507832, Note_off_c, 0, 62, 37
1, 507841, Note_on_c, 0, 65, 59
1, 507912, Note_off_c, 0, 65, 62
1, 508038, Note_on_c, 0, 72, 77
1, 508043, Note_off_c, 0, 74, 61
1, 508051, Note_off_c, 0, 60, 53
1, 508054, Note_on_c, 0, 67, 61
1, 508055, Note_on_c, 0, 62, 56
1, 508126, Note_off_c, 0, 67, 58
1, 508274, Note_on_c, 0, 67, 53
1, 508277, Note_off_c, 0, 62, 54
1, 508289, Note_on_c, 0, 64, 58
1, 508490, Note_off_c, 0, 64, 57
1, 508503, Note_on_c, 0, 74, 72
1, 508511, Note_off_c, 0, 67, 32
1, 508517, Note_on_c, 0, 65, 53
1, 508520, Note_on_c, 0, 69, 61
1, 508562, Note_off_c, 0, 72, 60
1, 508630, Note_off_c, 0, 69, 58
1, 508750, Note_off_c, 0, 65, 35
1, 508755, Note_on_c, 0, 69, 66
1, 508777, Note_on_c, 0, 64, 51
1, 508842, Note_off_c, 0, 74, 58
1, 508970, Note_on_c, 0, 74, 78
1, 508979, Note_off_c, 0, 64, 53
1, 508985, Note_on_c, 0, 65, 63
1, 508987, Note_on_c, 0, 62, 62
1, 508998, Note_off_c, 0, 69, 47
1, 509060, Note_off_c, 0, 65, 56
1, 509167, Note_off_c, 0, 62, 56
1, 509182, Note_on_c, 0, 65, 68
1, 509189, Note_on_c, 0, 60, 68
1, 509313, Note_off_c, 0, 65, 61
1, 509361, Note_off_c, 0, 60, 62
1, 509405, Note_on_c, 0, 62, 65
1, 509417, Note_on_c, 0, 76, 78
1, 509419, Note_on_c, 0, 67, 64
1, 509436, Note_off_c, 0, 74, 58
1, 509545, Note_off_c, 0, 67, 56
1, 509598, Note_off_c, 0, 62, 49
1, 509623, Note_on_c, 0, 60, 69
1, 509648, Note_on_c, 0, 67, 75
1, 509721, Note_off_c, 0, 76, 52
1, 509819, Note_off_c, 0, 67, 61
1, 509861, Note_on_c, 0, 76, 84
1, 509870, Note_on_c, 0, 64, 74
1, 509883, Note_on_c, 0, 58, 68
1, 509895, Note_off_c, 0, 60, 52
1, 509990, Note_off_c, 0, 64, 58
1, 510055, Note_on_c, 0, 57, 63
1, 510067, Note_off_c, 0, 58, 54
1, 510090, Note_off_c, 0, 57, 65
1, 510100, Note_on_c, 0, 64, 73
1, 510205, Note_off_c, 0, 64, 57
1, 510230, Note_on_c, 0, 40, 59
1, 510283, Note_off_c, 0, 40, 57
1, 510286, Note_on_c, 0, 46, 33
1, 510308, Note_on_c, 0, 50, 59
1, 510320, Note_on_c, 0, 47, 37
1, 510326, Note_off_c, 0, 46, 50
1, 510356, Note_off_c, 0, 47, 53
1, 510407, Note_off_c, 0, 50, 56
1, 510416, Note_on_c, 0, 58, 77
1, 510422, Note_off_c, 0, 76, 63
1, 510428, Control_c, 0, 64, 83
1, 510430, Note_on_c, 0, 77, 85
1, 510434, Note_on_c, 0, 65, 77
1, 510443, Control_c, 0, 64, 69
1, 510457, Control_c, 0, 64, 59
1, 510472, Control_c, 0, 64, 56
1, 510487, Control_c, 0, 64, 59
1, 510502, Control_c, 0, 64, 62
1, 510517, Control_c, 0, 64, 65
1, 510531, Control_c, 0, 64, 68
1, 510546, Control_c, 0, 64, 72
1, 510561, Control_c, 0, 64, 78
1, 510575, Control_c, 0, 64, 83
1, 510590, Control_c, 0, 64, 89
1, 510605, Control_c, 0, 64, 96
1, 510607, Note_off_c, 0, 65, 58
1, 510620, Control_c, 0, 64, 104
1, 510635, Control_c, 0, 64, 123
1, 510649, Control_c, 0, 64, 127
1, 510684, Note_off_c, 0, 58, 60
1, 510723, Note_on_c, 0, 65, 66
1, 510727, Note_on_c, 0, 57, 49
1, 510773, Note_off_c, 0, 77, 50
1, 510827, Note_off_c, 0, 65, 55
1, 510955, Note_on_c, 0, 70, 78
1, 510961, Note_off_c, 0, 57, 56
1, 510964, Note_on_c, 0, 55, 57
1, 510978, Note_on_c, 0, 62, 60
1, 511054, Note_off_c, 0, 62, 44
1, 511179, Note_off_c, 0, 55, 54
1, 511191, Note_on_c, 0, 62, 65
1, 511193, Note_on_c, 0, 53, 58
1, 511254, Note_off_c, 0, 62, 57
1, 511359, Note_off_c, 0, 53, 58
1, 511400, Note_on_c, 0, 76, 70
1, 511411, Note_on_c, 0, 64, 61
1, 511412, Note_on_c, 0, 55, 50
1, 511420, Note_off_c, 0, 70, 59
1, 511494, Note_off_c, 0, 64, 56
1, 511621, Note_off_c, 0, 55, 57
1, 511622, Note_on_c, 0, 64, 59
1, 511635, Note_on_c, 0, 53, 58
1, 511745, Note_off_c, 0, 64, 49
1, 511843, Note_on_c, 0, 65, 61
1, 511847, Note_off_c, 0, 53, 55
1, 511848, Note_on_c, 0, 52, 58
1, 511954, Note_off_c, 0, 65, 58
1, 512067, Note_off_c, 0, 52, 57
1, 512076, Note_on_c, 0, 65, 67
1, 512086, Note_on_c, 0, 50, 58
1, 512209, Note_off_c, 0, 65, 54
1, 512221, Control_c, 0, 64, 123
1, 512236, Control_c, 0, 64, 117
1, 512251, Control_c, 0, 64, 110
1, 512266, Control_c, 0, 64, 100
1, 512274, Note_off_c, 0, 50, 61
1, 512281, Control_c, 0, 64, 88
1, 512296, Control_c, 0, 64, 79
1, 512299, Note_on_c, 0, 52, 69
1, 512302, Note_on_c, 0, 67, 71
1, 512310, Control_c, 0, 64, 72
1, 512325, Control_c, 0, 64, 68
1, 512355, Control_c, 0, 64, 70
1, 512370, Control_c, 0, 64, 71
1, 512385, Control_c, 0, 64, 73
1, 512400, Control_c, 0, 64, 75
1, 512415, Control_c, 0, 64, 78
1, 512425, Note_off_c, 0, 67, 61
1, 512429, Control_c, 0, 64, 82
1, 512445, Control_c, 0, 64, 85
1, 512460, Control_c, 0, 64, 90
1, 512475, Control_c, 0, 64, 97
1, 512490, Control_c, 0, 64, 105
1, 512505, Control_c, 0, 64, 123
1, 512519, Note_on_c, 0, 67, 77
1, 512520, Control_c, 0, 64, 127
1, 512526, Note_on_c, 0, 50, 68
1, 512577, Note_off_c, 0, 52, 52
1, 512756, Note_on_c, 0, 69, 84
1, 512761, Note_on_c, 0, 49, 73
1, 512774, Note_off_c, 0, 50, 56
1, 512774, Note_off_c, 0, 67, 57
1, 512778, Note_off_c, 0, 76, 49
1, 512995, Note_on_c, 0, 70, 89
1, 512998, Note_off_c, 0, 69, 60
1, 513009, Note_off_c, 0, 49, 61
1, 513009, Note_on_c, 0, 48, 79
1, 513263, Note_on_c, 0, 47, 73
1, 513267, Control_c, 0, 64, 92
1, 513268, Note_on_c, 0, 55, 65
1, 513268, Note_on_c, 0, 62, 72
1, 513269, Note_off_c, 0, 48, 55
1, 513272, Note_on_c, 0, 71, 75
1, 513282, Control_c, 0, 64, 73
1, 513297, Control_c, 0, 64, 63
1, 513312, Note_off_c, 0, 70, 54
1, 513312, Control_c, 0, 64, 49
1, 513327, Control_c, 0, 64, 47
1, 513341, Control_c, 0, 64, 49
1, 513356, Control_c, 0, 64, 52
1, 513371, Control_c, 0, 64, 56
1, 513386, Control_c, 0, 64, 60
1, 513408, Control_c, 0, 64, 64
1, 513423, Control_c, 0, 64, 67
1, 513438, Control_c, 0, 64, 72
1, 513453, Control_c, 0, 64, 79
1, 513468, Control_c, 0, 64, 88
1, 513482, Control_c, 0, 64, 98
1, 513486, Note_off_c, 0, 71, 59
1, 513492, Note_off_c, 0, 62, 60
1, 513497, Control_c, 0, 64, 116
1, 513512, Control_c, 0, 64, 127
1, 513587, Note_off_c, 0, 55, 52
1, 513594, Note_on_c, 0, 71, 78
1, 513604, Note_on_c, 0, 60, 70
1, 513607, Note_on_c, 0, 62, 67
1, 513681, Note_off_c, 0, 60, 58
1, 513740, Note_off_c, 0, 62, 59
1, 513745, Note_off_c, 0, 71, 59
1, 513786, Note_off_c, 0, 47, 61
1, 513826, Note_on_c, 0, 54, 74
1, 513830, Note_on_c, 0, 46, 64
1, 513835, Note_on_c, 0, 60, 75
1, 513837, Note_on_c, 0, 68, 77
1, 513966, Note_off_c, 0, 60, 60
1, 513987, Note_off_c, 0, 68, 60
1, 514028, Note_off_c, 0, 54, 59
1, 514053, Note_off_c, 0, 46, 53
1, 514058, Note_on_c, 0, 68, 78
1, 514066, Note_on_c, 0, 60, 82
1, 514227, Note_off_c, 0, 68, 60
1, 514241, Note_off_c, 0, 60, 56
1, 514272, Note_on_c, 0, 53, 72
1, 514279, Note_on_c, 0, 45, 54
1, 514285, Note_on_c, 0, 70, 81
1, 514289, Note_on_c, 0, 61, 75
1, 514290, Note_on_c, 0, 39, 67
1, 514291, Control_c, 0, 64, 98
1, 514305, Control_c, 0, 64, 73
1, 514320, Control_c, 0, 64, 56
1, 514335, Control_c, 0, 64, 0
1, 514434, Note_off_c, 0, 61, 61
1, 514441, Note_off_c, 0, 70, 61
1, 514483, Control_c, 0, 64, 46
1, 514497, Control_c, 0, 64, 58
1, 514509, Note_on_c, 0, 70, 76
1, 514512, Control_c, 0, 64, 63
1, 514514, Note_on_c, 0, 61, 72
1, 514521, Note_off_c, 0, 53, 50
1, 514527, Control_c, 0, 64, 68
1, 514542, Control_c, 0, 64, 78
1, 514556, Control_c, 0, 64, 127
1, 514621, Note_off_c, 0, 39, 56
1, 514637, Note_off_c, 0, 70, 61
1, 514717, Note_off_c, 0, 45, 38
1, 514729, Note_off_c, 0, 61, 62
1, 514741, Note_on_c, 0, 44, 68
1, 514743, Note_on_c, 0, 58, 78
1, 514743, Note_on_c, 0, 67, 82
1, 514744, Note_on_c, 0, 52, 73
1, 514801, Note_off_c, 0, 52, 65
1, 514804, Note_off_c, 0, 44, 62
1, 514839, Note_off_c, 0, 58, 59
1, 514877, Note_off_c, 0, 67, 60
1, 514958, Note_on_c, 0, 67, 84
1, 514959, Note_on_c, 0, 58, 80
1, 515006, Note_off_c, 0, 58, 64
1, 515048, Note_off_c, 0, 67, 61
1, 515197, Note_on_c, 0, 47, 78
1, 515199, Note_on_c, 0, 59, 85
1, 515261, Control_c, 0, 64, 83
1, 515266, Note_on_c, 0, 75, 93
1, 515272, Note_on_c, 0, 68, 82
1, 515276, Control_c, 0, 64, 63
1, 515291, Control_c, 0, 64, 0
1, 515409, Control_c, 0, 64, 40
1, 515420, Note_off_c, 0, 68, 45
1, 515424, Control_c, 0, 64, 60
1, 515439, Control_c, 0, 64, 68
1, 515454, Control_c, 0, 64, 78
1, 515468, Control_c, 0, 64, 98
1, 515483, Control_c, 0, 64, 127
1, 515499, Note_on_c, 0, 68, 63
1, 515557, Note_off_c, 0, 59, 60
1, 515594, Note_off_c, 0, 47, 60
1, 515644, Note_on_c, 0, 55, 33
1, 515649, Note_off_c, 0, 68, 59
1, 515722, Note_on_c, 0, 61, 86
1, 515722, Note_off_c, 0, 55, 35
1, 515730, Note_on_c, 0, 51, 71
1, 515734, Note_on_c, 0, 70, 83
1, 515845, Note_off_c, 0, 70, 62
1, 515916, Note_on_c, 0, 70, 79
1, 515919, Note_off_c, 0, 75, 59
1, 515957, Note_off_c, 0, 61, 59
1, 516015, Note_off_c, 0, 70, 63
1, 516033, Note_on_c, 0, 80, 79
1, 516036, Note_on_c, 0, 75, 81
1, 516047, Note_on_c, 0, 81, 89
1, 516078, Note_on_c, 0, 78, 44
1, 516087, Poly_aftertouch_c, 0, 70, 127
1, 516104, Note_off_c, 0, 78, 52
1, 516110, Note_off_c, 0, 81, 60
1, 516111, Note_off_c, 0, 75, 61
1, 516118, Poly_aftertouch_c, 0, 70, 0
1, 516157, Note_off_c, 0, 80, 62
1, 516187, Note_off_c, 0, 51, 56
1, 516238, Note_on_c, 0, 56, 70
1, 516240, Note_on_c, 0, 63, 80
1, 516262, Note_on_c, 0, 75, 93
1, 516274, Note_on_c, 0, 71, 70
1, 516277, Control_c, 0, 64, 108
1, 516289, Note_on_c, 0, 54, 19
1, 516292, Control_c, 0, 64, 72
1, 516307, Control_c, 0, 64, 51
1, 516321, Control_c, 0, 64, 0
1, 516381, Control_c, 0, 64, 18
1, 516403, Control_c, 0, 64, 40
1, 516418, Control_c, 0, 64, 50
1, 516429, Note_off_c, 0, 71, 59
1, 516433, Control_c, 0, 64, 57
1, 516437, Note_off_c, 0, 63, 52
1, 516449, Control_c, 0, 64, 63
1, 516464, Control_c, 0, 64, 68
1, 516479, Control_c, 0, 64, 79
1, 516494, Control_c, 0, 64, 100
1, 516508, Control_c, 0, 64, 127
1, 516534, Note_on_c, 0, 71, 78
1, 516684, Poly_aftertouch_c, 0, 53, 127
1, 516715, Note_off_c, 0, 54, 41
1, 516732, Note_off_c, 0, 56, 59
1, 516732, Note_on_c, 0, 51, 70
1, 516738, Note_on_c, 0, 59, 71
1, 516741, Note_off_c, 0, 71, 58
1, 516744, Note_on_c, 0, 68, 81
1, 516753, Poly_aftertouch_c, 0, 53, 0
1, 516838, Note_off_c, 0, 68, 58
1, 516840, Note_off_c, 0, 59, 57
1, 516858, Note_on_c, 0, 71, 30
1, 516938, Note_off_c, 0, 71, 57
1, 516953, Note_on_c, 0, 68, 86
1, 517078, Note_off_c, 0, 68, 61
1, 517108, Note_off_c, 0, 51, 29
1, 517153, Note_off_c, 0, 75, 52
1, 517179, Note_on_c, 0, 76, 92
1, 517182, Note_on_c, 0, 70, 77
1, 517182, Control_c, 0, 64, 92
1, 517185, Note_on_c, 0, 61, 82
1, 517188, Note_on_c, 0, 47, 75
1, 517197, Control_c, 0, 64, 72
1, 517212, Control_c, 0, 64, 59
1, 517226, Control_c, 0, 64, 45
1, 517241, Control_c, 0, 64, 51
1, 517257, Control_c, 0, 64, 56
1, 517272, Control_c, 0, 64, 59
1, 517287, Control_c, 0, 64, 62
1, 517302, Control_c, 0, 64, 65
1, 517317, Control_c, 0, 64, 69
1, 517325, Note_off_c, 0, 70, 62
1, 517331, Control_c, 0, 64, 78
1, 517346, Control_c, 0, 64, 100
1, 517360, Note_off_c, 0, 61, 55
1, 517361, Control_c, 0, 64, 127
1, 517399, Note_off_c, 0, 47, 61
1, 517415, Note_on_c, 0, 70, 80
1, 517615, Note_on_c, 0, 58, 85
1, 517617, Note_on_c, 0, 67, 84
1, 517618, Note_off_c, 0, 70, 42
1, 517620, Note_on_c, 0, 44, 73
1, 517668, Note_off_c, 0, 58, 63
1, 517698, Note_off_c, 0, 44, 64
1, 517739, Note_off_c, 0, 67, 57
1, 517820, Note_on_c, 0, 67, 86
1, 517841, Note_off_c, 0, 76, 59
1, 517920, Note_on_c, 0, 39, 72
1, 517972, Note_off_c, 0, 39, 63
1, 518005, Note_off_c, 0, 67, 56
1, 518077, Note_on_c, 0, 59, 85
1, 518088, Note_on_c, 0, 68, 68
1, 518089, Note_on_c, 0, 77, 88
1, 518109, Control_c, 0, 64, 104
1, 518124, Control_c, 0, 64, 80
1, 518138, Control_c, 0, 64, 66
1, 518153, Control_c, 0, 64, 53
1, 518168, Control_c, 0, 64, 51
1, 518183, Control_c, 0, 64, 55
1, 518197, Control_c, 0, 64, 59
1, 518212, Control_c, 0, 64, 62
1, 518227, Control_c, 0, 64, 65
1, 518242, Control_c, 0, 64, 68
1, 518253, Note_off_c, 0, 68, 62
1, 518257, Control_c, 0, 64, 73
1, 518271, Control_c, 0, 64, 80
1, 518286, Control_c, 0, 64, 93
1, 518301, Control_c, 0, 64, 127
1, 518323, Note_on_c, 0, 68, 69
1, 518333, Note_off_c, 0, 59, 57
1, 518425, Note_off_c, 0, 68, 60
1, 518442, Poly_aftertouch_c, 0, 50, 127
1, 518532, Poly_aftertouch_c, 0, 50, 0
1, 518535, Note_on_c, 0, 56, 81
1, 518539, Note_on_c, 0, 44, 63
1, 518540, Note_on_c, 0, 65, 79
1, 518640, Note_off_c, 0, 44, 61
1, 518652, Note_off_c, 0, 65, 53
1, 518768, Note_on_c, 0, 65, 77
1, 518835, Note_off_c, 0, 56, 57
1, 518860, Note_off_c, 0, 65, 55
1, 518974, Note_on_c, 0, 67, 76
1, 518977, Note_on_c, 0, 58, 81
1, 518985, Note_on_c, 0, 47, 58
1, 519020, Note_off_c, 0, 77, 43
1, 519101, Note_off_c, 0, 67, 61
1, 519180, Note_on_c, 0, 67, 80
1, 519295, Note_off_c, 0, 58, 57
1, 519371, Note_off_c, 0, 47, 32
1, 519416, Note_on_c, 0, 68, 75
1, 519416, Note_on_c, 0, 76, 82
1, 519424, Note_on_c, 0, 59, 72
1, 519426, Note_on_c, 0, 51, 67
1, 519437, Note_off_c, 0, 67, 53
1, 519561, Note_off_c, 0, 68, 59
1, 519580, Note_off_c, 0, 51, 62
1, 519636, Note_off_c, 0, 59, 59
1, 519652, Note_on_c, 0, 68, 86
1, 519689, Note_off_c, 0, 76, 58
1, 519746, Note_off_c, 0, 68, 59
1, 519852, Note_on_c, 0, 61, 83
1, 519859, Note_on_c, 0, 56, 77
1, 519861, Note_on_c, 0, 77, 84
1, 519864, Note_on_c, 0, 70, 84
1, 519872, Control_c, 0, 64, 94
1, 519887, Control_c, 0, 64, 73
1, 519902, Control_c, 0, 64, 62
1, 519916, Control_c, 0, 64, 50
1, 519931, Control_c, 0, 64, 54
1, 519946, Control_c, 0, 64, 58
1, 519961, Control_c, 0, 64, 61
1, 519976, Control_c, 0, 64, 64
1, 519990, Control_c, 0, 64, 66
1, 520005, Control_c, 0, 64, 70
1, 520020, Control_c, 0, 64, 80
1, 520035, Note_off_c, 0, 70, 63
1, 520035, Control_c, 0, 64, 105
1, 520050, Control_c, 0, 64, 127
1, 520096, Note_on_c, 0, 70, 81
1, 520227, Note_off_c, 0, 61, 51
1, 520292, Note_off_c, 0, 56, 53
1, 520312, Note_off_c, 0, 70, 57
1, 520322, Note_on_c, 0, 58, 80
1, 520325, Note_on_c, 0, 51, 75
1, 520337, Note_on_c, 0, 67, 85
1, 520350, Note_off_c, 0, 77, 60
1, 520359, Poly_aftertouch_c, 0, 74, 127
1, 520391, Poly_aftertouch_c, 0, 74, 0
1, 520433, Note_off_c, 0, 58, 61
1, 520458, Note_off_c, 0, 67, 60
1, 520460, Note_off_c, 0, 51, 61
1, 520854, Note_on_c, 0, 71, 89
1, 520862, Note_on_c, 0, 62, 82
1, 520863, Note_on_c, 0, 55, 83
1, 520864, Note_on_c, 0, 47, 76
1, 520873, Control_c, 0, 64, 87
1, 520895, Control_c, 0, 64, 62
1, 520910, Control_c, 0, 64, 0
1, 520919, Note_on_c, 0, 50, 30
1, 520998, Control_c, 0, 64, 53
1, 521013, Control_c, 0, 64, 66
1, 521028, Control_c, 0, 64, 76
1, 521043, Control_c, 0, 64, 96
1, 521058, Control_c, 0, 64, 127
1, 521090, Note_off_c, 0, 62, 59
1, 521098, Note_off_c, 0, 71, 60
1, 521167, Note_off_c, 0, 55, 52
1, 521172, Note_on_c, 0, 71, 88
1, 521179, Note_on_c, 0, 62, 77
1, 521336, Note_off_c, 0, 71, 61
1, 521404, Note_off_c, 0, 62, 50
1, 521410, Note_on_c, 0, 54, 86
1, 521410, Note_on_c, 0, 68, 86
1, 521415, Note_on_c, 0, 60, 81
1, 521417, Note_on_c, 0, 46, 75
1, 521420, Note_off_c, 0, 50, 37
1, 521496, Note_off_c, 0, 47, 35
1, 521555, Note_off_c, 0, 60, 59
1, 521558, Note_off_c, 0, 68, 59
1, 521574, Note_off_c, 0, 46, 62
1, 521610, Note_off_c, 0, 54, 63
1, 521641, Note_on_c, 0, 68, 89
1, 521646, Note_on_c, 0, 60, 88
1, 521793, Note_off_c, 0, 68, 54
1, 521832, Note_off_c, 0, 60, 57
1, 521870, Note_on_c, 0, 70, 87
1, 521871, Note_on_c, 0, 45, 56
1, 521871, Note_on_c, 0, 53, 80
1, 521874, Note_on_c, 0, 61, 75
1, 521881, Control_c, 0, 64, 81
1, 521882, Note_on_c, 0, 39, 72
1, 521895, Control_c, 0, 64, 59
1, 521910, Control_c, 0, 64, 0
1, 521924, Note_on_c, 0, 52, 15
1, 521925, Note_off_c, 0, 52, 127
1, 521970, Control_c, 0, 64, 18
1, 521985, Control_c, 0, 64, 44
1, 522000, Control_c, 0, 64, 55
1, 522008, Note_off_c, 0, 70, 62
1, 522012, Note_off_c, 0, 61, 61
1, 522014, Control_c, 0, 64, 62
1, 522029, Control_c, 0, 64, 66
1, 522044, Control_c, 0, 64, 75
1, 522059, Control_c, 0, 64, 100
1, 522060, Note_off_c, 0, 53, 53
1, 522074, Control_c, 0, 64, 127
1, 522084, Note_on_c, 0, 70, 84
1, 522091, Note_on_c, 0, 61, 77
1, 522137, Note_off_c, 0, 39, 58
1, 522205, Note_off_c, 0, 70, 59
1, 522301, Note_off_c, 0, 61, 61
1, 522309, Note_on_c, 0, 44, 69
1, 522310, Note_on_c, 0, 52, 72
1, 522315, Note_on_c, 0, 58, 86
1, 522316, Note_on_c, 0, 67, 84
1, 522320, Note_off_c, 0, 45, 27
1, 522367, Note_off_c, 0, 52, 62
1, 522369, Note_off_c, 0, 44, 62
1, 522422, Note_off_c, 0, 58, 61
1, 522454, Note_off_c, 0, 67, 59
1, 522539, Note_on_c, 0, 67, 86
1, 522540, Note_on_c, 0, 58, 82
1, 522574, Note_off_c, 0, 58, 63
1, 522608, Note_off_c, 0, 67, 63
1, 522813, Note_on_c, 0, 47, 81
1, 522815, Note_on_c, 0, 59, 85
1, 522822, Note_on_c, 0, 77, 94
1, 522823, Note_on_c, 0, 68, 88
1, 522825, Note_on_c, 0, 75, 79
1, 522838, Control_c, 0, 64, 100
1, 522853, Control_c, 0, 64, 67
1, 522867, Control_c, 0, 64, 0
1, 522942, Control_c, 0, 64, 22
1, 522956, Control_c, 0, 64, 48
1, 522971, Control_c, 0, 64, 62
1, 522986, Control_c, 0, 64, 73
1, 523001, Note_off_c, 0, 68, 55
1, 523001, Control_c, 0, 64, 111
1, 523016, Control_c, 0, 64, 127
1, 523071, Note_on_c, 0, 68, 75
1, 523100, Note_off_c, 0, 59, 59
1, 523118, Note_off_c, 0, 47, 58
1, 523192, Note_off_c, 0, 68, 57
1, 523208, Note_on_c, 0, 53, 28
1, 523275, Note_off_c, 0, 75, 24
1, 523282, Note_off_c, 0, 53, 48
1, 523299, Note_on_c, 0, 61, 91
1, 523301, Note_on_c, 0, 51, 76
1, 523301, Note_on_c, 0, 70, 82
1, 523394, Note_off_c, 0, 70, 61
1, 523463, Note_off_c, 0, 77, 62
1, 523487, Note_on_c, 0, 70, 83
1, 523544, Note_off_c, 0, 70, 62
1, 523612, Note_on_c, 0, 83, 87
1, 523614, Note_on_c, 0, 77, 76
1, 523618, Note_on_c, 0, 75, 77
1, 523648, Note_on_c, 0, 80, 52
1, 523661, Note_off_c, 0, 61, 35
1, 523675, Note_off_c, 0, 80, 57
1, 523720, Note_off_c, 0, 77, 61
1, 523723, Note_off_c, 0, 83, 60
1, 523723, Note_off_c, 0, 75, 58
1, 523734, Note_off_c, 0, 51, 58
1, 523785, Note_on_c, 0, 63, 82
1, 523787, Note_on_c, 0, 56, 74
1, 523791, Note_on_c, 0, 77, 91
1, 523800, Note_on_c, 0, 71, 84
1, 523800, Note_on_c, 0, 75, 76
1, 523809, Control_c, 0, 64, 89
1, 523824, Control_c, 0, 64, 63
1, 523839, Control_c, 0, 64, 0
1, 523869, Control_c, 0, 64, 17
1, 523890, Control_c, 0, 64, 41
1, 523905, Control_c, 0, 64, 52
1, 523920, Control_c, 0, 64, 59
1, 523934, Note_off_c, 0, 75, 57
1, 523935, Control_c, 0, 64, 64
1, 523950, Control_c, 0, 64, 71
1, 523955, Note_off_c, 0, 71, 54
1, 523964, Control_c, 0, 64, 89
1, 523979, Control_c, 0, 64, 127
1, 523992, Note_off_c, 0, 63, 54
1, 524042, Note_on_c, 0, 75, 78
1, 524050, Note_on_c, 0, 71, 79
1, 524104, Note_off_c, 0, 71, 60
1, 524239, Note_off_c, 0, 75, 58
1, 524264, Note_on_c, 0, 59, 76
1, 524265, Note_on_c, 0, 68, 84
1, 524265, Note_on_c, 0, 51, 75
1, 524267, Note_off_c, 0, 56, 63
1, 524359, Note_off_c, 0, 59, 57
1, 524375, Note_off_c, 0, 68, 58
1, 524486, Note_on_c, 0, 68, 84
1, 524578, Note_off_c, 0, 68, 59
1, 524677, Note_off_c, 0, 51, 62
1, 524696, Note_on_c, 0, 79, 88
1, 524697, Note_off_c, 0, 77, 62
1, 524699, Control_c, 0, 64, 99
1, 524700, Note_on_c, 0, 70, 87
1, 524705, Note_on_c, 0, 61, 89
1, 524705, Note_on_c, 0, 76, 76
1, 524707, Note_on_c, 0, 47, 77
1, 524713, Control_c, 0, 64, 74
1, 524728, Control_c, 0, 64, 61
1, 524743, Control_c, 0, 64, 51
1, 524758, Control_c, 0, 64, 55
1, 524773, Control_c, 0, 64, 61
1, 524787, Control_c, 0, 64, 65
1, 524802, Control_c, 0, 64, 69
1, 524817, Control_c, 0, 64, 78
1, 524829, Note_off_c, 0, 70, 57
1, 524831, Control_c, 0, 64, 107
1, 524846, Control_c, 0, 64, 127
1, 524891, Note_off_c, 0, 61, 57
1, 524912, Note_off_c, 0, 47, 61
1, 524916, Note_on_c, 0, 70, 85
1, 524998, Note_off_c, 0, 76, 0
1, 525011, Note_off_c, 0, 70, 61
1, 525035, Poly_aftertouch_c, 0, 76, 127
1, 525138, Note_on_c, 0, 58, 88
1, 525142, Note_on_c, 0, 44, 77
1, 525150, Note_on_c, 0, 67, 87
1, 525170, Poly_aftertouch_c, 0, 76, 0
1, 525192, Note_off_c, 0, 58, 64
1, 525207, Note_off_c, 0, 44, 64
1, 525280, Note_off_c, 0, 67, 59
1, 525322, Note_off_c, 0, 79, 37
1, 525350, Note_on_c, 0, 67, 91
1, 525454, Note_off_c, 0, 67, 61
1, 525465, Poly_aftertouch_c, 0, 76, 127
1, 525470, Note_on_c, 0, 39, 82
1, 525494, Poly_aftertouch_c, 0, 76, 0
1, 525536, Note_off_c, 0, 39, 64
1, 525633, Poly_aftertouch_c, 0, 74, 127
1, 525640, Note_on_c, 0, 77, 9
1, 525644, Note_on_c, 0, 59, 89
1, 525647, Note_on_c, 0, 80, 93
1, 525650, Note_on_c, 0, 68, 92
1, 525654, Control_c, 0, 64, 107
1, 525669, Control_c, 0, 64, 74
1, 525684, Poly_aftertouch_c, 0, 74, 0
1, 525684, Control_c, 0, 64, 54
1, 525699, Control_c, 0, 64, 0
1, 525729, Control_c, 0, 64, 19
1, 525744, Control_c, 0, 64, 40
1, 525759, Control_c, 0, 64, 53
1, 525773, Control_c, 0, 64, 60
1, 525788, Control_c, 0, 64, 65
1, 525803, Control_c, 0, 64, 72
1, 525818, Control_c, 0, 64, 95
1, 525828, Note_off_c, 0, 68, 54
1, 525833, Control_c, 0, 64, 127
1, 525899, Poly_aftertouch_c, 0, 74, 127
1, 525907, Note_off_c, 0, 59, 59
1, 525926, Note_on_c, 0, 68, 84
1, 525927, Poly_aftertouch_c, 0, 74, 0
1, 526036, Note_off_c, 0, 80, 64
1, 526052, Note_off_c, 0, 68, 62
1, 526065, Note_off_c, 0, 77, 40
1, 526137, Note_on_c, 0, 56, 89
1, 526140, Note_on_c, 0, 44, 73
1, 526144, Note_on_c, 0, 65, 79
1, 526226, Note_off_c, 0, 44, 58
1, 526263, Note_off_c, 0, 65, 58
1, 526346, Note_off_c, 0, 56, 59
1, 526356, Note_on_c, 0, 65, 84
1, 526448, Note_off_c, 0, 65, 52
1, 526560, Note_on_c, 0, 58, 88
1, 526569, Note_on_c, 0, 47, 71
1, 526575, Note_on_c, 0, 67, 83
1, 526662, Note_off_c, 0, 67, 60
1, 526769, Note_on_c, 0, 67, 82
1, 526772, Note_off_c, 0, 58, 55
1, 526830, Note_off_c, 0, 67, 63
1, 526953, Note_off_c, 0, 47, 38
1, 526999, Note_on_c, 0, 51, 81
1, 527001, Note_on_c, 0, 59, 87
1, 527002, Note_on_c, 0, 78, 90
1, 527007, Note_on_c, 0, 68, 88
1, 527010, Note_on_c, 0, 75, 77
1, 527082, Note_off_c, 0, 51, 64
1, 527097, Note_off_c, 0, 59, 61
1, 527148, Note_off_c, 0, 68, 56
1, 527171, Note_off_c, 0, 75, 60
1, 527245, Note_on_c, 0, 68, 75
1, 527252, Note_on_c, 0, 75, 65
1, 527273, Note_off_c, 0, 68, 61
1, 527323, Note_off_c, 0, 78, 61
1, 527333, Note_off_c, 0, 75, 62
1, 527508, Note_on_c, 0, 70, 92
1, 527517, Note_on_c, 0, 61, 86
1, 527517, Note_on_c, 0, 85, 92
1, 527517, Note_on_c, 0, 76, 88
1, 527519, Note_on_c, 0, 63, 79
1, 527607, Note_off_c, 0, 70, 56
1, 527740, Note_off_c, 0, 76, 57
1, 527829, Note_on_c, 0, 70, 99
1, 527902, Note_off_c, 0, 70, 62
1, 527914, Note_off_c, 0, 85, 61
1, 527948, Note_off_c, 0, 63, 61
1, 527962, Note_off_c, 0, 61, 60
1, 528150, Note_on_c, 0, 58, 88
1, 528152, Note_on_c, 0, 67, 93
1, 528429, Note_off_c, 0, 58, 61
1, 528436, Note_off_c, 0, 67, 58
1, 528760, Note_on_c, 0, 56, 76
1, 528760, Note_on_c, 0, 50, 70
1, 528778, Note_on_c, 0, 68, 80
1, 528789, Note_on_c, 0, 64, 61
1, 528814, Control_c, 0, 64, 97
1, 528828, Control_c, 0, 64, 74
1, 528843, Control_c, 0, 64, 61
1, 528858, Control_c, 0, 64, 53
1, 528872, Control_c, 0, 64, 57
1, 528887, Control_c, 0, 64, 60
1, 528902, Control_c, 0, 64, 63
1, 528917, Control_c, 0, 64, 66
1, 528932, Control_c, 0, 64, 72
1, 528946, Control_c, 0, 64, 81
1, 528961, Control_c, 0, 64, 100
1, 528976, Control_c, 0, 64, 127
1, 528981, Note_off_c, 0, 64, 60
1, 529014, Note_on_c, 0, 57, 82
1, 529069, Note_off_c, 0, 56, 59
1, 529087, Note_on_c, 0, 64, 75
1, 529207, Note_off_c, 0, 50, 59
1, 529221, Note_on_c, 0, 56, 81
1, 529235, Note_off_c, 0, 57, 57
1, 529310, Control_c, 0, 64, 85
1, 529325, Control_c, 0, 64, 68
1, 529340, Control_c, 0, 64, 59
1, 529355, Control_c, 0, 64, 56
1, 529369, Note_off_c, 0, 64, 60
1, 529384, Control_c, 0, 64, 57
1, 529388, Note_on_c, 0, 55, 74
1, 529390, Note_on_c, 0, 49, 67
1, 529399, Control_c, 0, 64, 60
1, 529404, Note_on_c, 0, 61, 66
1, 529414, Control_c, 0, 64, 63
1, 529416, Note_off_c, 0, 56, 59
1, 529429, Control_c, 0, 64, 67
1, 529444, Control_c, 0, 64, 74
1, 529458, Control_c, 0, 64, 86
1, 529473, Control_c, 0, 64, 113
1, 529484, Note_off_c, 0, 68, 59
1, 529488, Control_c, 0, 64, 127
1, 529593, Note_off_c, 0, 61, 58
1, 529595, Note_off_c, 0, 55, 62
1, 529599, Note_on_c, 0, 56, 84
1, 529637, Note_off_c, 0, 49, 60
1, 529685, Note_on_c, 0, 61, 86
1, 529756, Note_off_c, 0, 56, 63
1, 529807, Note_on_c, 0, 55, 58
1, 529814, Note_off_c, 0, 61, 57
1, 529897, Note_on_c, 0, 75, 88
1, 529908, Note_on_c, 0, 68, 66
1, 529944, Note_off_c, 0, 55, 59
1, 529988, Note_off_c, 0, 75, 64
1, 529992, Note_off_c, 0, 68, 61
1, 530043, Poly_aftertouch_c, 0, 62, 127
1, 530113, Note_on_c, 0, 54, 67
1, 530117, Note_on_c, 0, 44, 55
1, 530125, Poly_aftertouch_c, 0, 62, 0
1, 530126, Note_on_c, 0, 48, 60
1, 530163, Control_c, 0, 64, 82
1, 530178, Control_c, 0, 64, 64
1, 530181, Note_on_c, 0, 68, 73
1, 530193, Control_c, 0, 64, 53
1, 530194, Note_on_c, 0, 63, 63
1, 530207, Control_c, 0, 64, 44
1, 530222, Control_c, 0, 64, 44
1, 530237, Control_c, 0, 64, 45
1, 530252, Control_c, 0, 64, 50
1, 530267, Control_c, 0, 64, 58
1, 530281, Control_c, 0, 64, 63
1, 530296, Control_c, 0, 64, 66
1, 530311, Control_c, 0, 64, 71
1, 530324, Control_c, 0, 64, 79
1, 530328, Note_off_c, 0, 63, 60
1, 530339, Control_c, 0, 64, 87
1, 530354, Control_c, 0, 64, 98
1, 530369, Control_c, 0, 64, 111
1, 530384, Control_c, 0, 64, 127
1, 530412, Note_on_c, 0, 55, 77
1, 530419, Note_off_c, 0, 54, 58
1, 530469, Note_on_c, 0, 63, 64
1, 530474, Note_off_c, 0, 48, 55
1, 530479, Note_off_c, 0, 44, 56
1, 530588, Note_off_c, 0, 63, 59
1, 530600, Note_on_c, 0, 54, 78
1, 530605, Note_off_c, 0, 55, 60
1, 530717, Control_c, 0, 64, 99
1, 530731, Control_c, 0, 64, 74
1, 530746, Control_c, 0, 64, 63
1, 530755, Note_off_c, 0, 54, 62
1, 530761, Control_c, 0, 64, 55
1, 530766, Note_on_c, 0, 53, 67
1, 530766, Note_on_c, 0, 47, 59
1, 530776, Control_c, 0, 64, 52
1, 530805, Control_c, 0, 64, 53
1, 530807, Note_on_c, 0, 59, 61
1, 530821, Control_c, 0, 64, 55
1, 530836, Control_c, 0, 64, 59
1, 530851, Control_c, 0, 64, 62
1, 530866, Control_c, 0, 64, 65
1, 530881, Control_c, 0, 64, 69
1, 530895, Control_c, 0, 64, 75
1, 530910, Control_c, 0, 64, 83
1, 530925, Control_c, 0, 64, 90
1, 530940, Control_c, 0, 64, 97
1, 530942, Note_off_c, 0, 59, 58
1, 530948, Note_on_c, 0, 54, 80
1, 530954, Note_off_c, 0, 53, 64
1, 530954, Control_c, 0, 64, 106
1, 530969, Control_c, 0, 64, 127
1, 531085, Note_on_c, 0, 59, 66
1, 531121, Note_off_c, 0, 47, 39
1, 531130, Note_on_c, 0, 53, 74
1, 531134, Note_off_c, 0, 54, 63
1, 531274, Note_off_c, 0, 59, 36
1, 531281, Control_c, 0, 64, 97
1, 531296, Note_on_c, 0, 52, 75
1, 531296, Control_c, 0, 64, 77
1, 531305, Note_on_c, 0, 46, 65
1, 531305, Note_off_c, 0, 53, 58
1, 531311, Control_c, 0, 64, 65
1, 531326, Control_c, 0, 64, 55
1, 531340, Control_c, 0, 64, 50
1, 531343, Note_on_c, 0, 61, 62
1, 531378, Control_c, 0, 64, 51
1, 531392, Control_c, 0, 64, 53
1, 531407, Control_c, 0, 64, 57
1, 531422, Control_c, 0, 64, 61
1, 531437, Control_c, 0, 64, 64
1, 531452, Control_c, 0, 64, 67
1, 531467, Control_c, 0, 64, 71
1, 531479, Note_off_c, 0, 61, 61
1, 531481, Control_c, 0, 64, 77
1, 531496, Control_c, 0, 64, 81
1, 531506, Note_off_c, 0, 52, 60
1, 531510, Note_on_c, 0, 53, 78
1, 531511, Control_c, 0, 64, 84
1, 531526, Control_c, 0, 64, 88
1, 531541, Control_c, 0, 64, 92
1, 531555, Control_c, 0, 64, 99
1, 531570, Control_c, 0, 64, 109
1, 531585, Note_off_c, 0, 46, 53
1, 531585, Control_c, 0, 64, 116
1, 531593, Note_on_c, 0, 61, 67
1, 531600, Control_c, 0, 64, 119
1, 531675, Control_c, 0, 64, 117
1, 531690, Control_c, 0, 64, 114
1, 531697, Note_on_c, 0, 52, 80
1, 531704, Note_off_c, 0, 53, 61
1, 531704, Control_c, 0, 64, 111
1, 531719, Control_c, 0, 64, 109
1, 531734, Note_off_c, 0, 61, 59
1, 531734, Control_c, 0, 64, 106
1, 531749, Control_c, 0, 64, 102
1, 531764, Control_c, 0, 64, 99
1, 531778, Control_c, 0, 64, 92
1, 531793, Control_c, 0, 64, 83
1, 531808, Control_c, 0, 64, 73
1, 531823, Control_c, 0, 64, 65
1, 531838, Control_c, 0, 64, 57
1, 531852, Control_c, 0, 64, 52
1, 531859, Note_on_c, 0, 51, 66
1, 531859, Note_off_c, 0, 52, 55
1, 531867, Control_c, 0, 64, 50
1, 531875, Note_on_c, 0, 45, 49
1, 531877, Note_on_c, 0, 63, 54
1, 531882, Control_c, 0, 64, 49
1, 531911, Control_c, 0, 64, 50
1, 531926, Control_c, 0, 64, 52
1, 531941, Control_c, 0, 64, 56
1, 531956, Control_c, 0, 64, 59
1, 531971, Control_c, 0, 64, 62
1, 531986, Control_c, 0, 64, 64
1, 532001, Control_c, 0, 64, 65
1, 532015, Control_c, 0, 64, 67
1, 532018, Note_off_c, 0, 63, 62
1, 532030, Control_c, 0, 64, 70
1, 532045, Control_c, 0, 64, 73
1, 532054, Note_off_c, 0, 51, 59
1, 532059, Note_on_c, 0, 52, 63
1, 532060, Control_c, 0, 64, 76
1, 532075, Control_c, 0, 64, 80
1, 532089, Control_c, 0, 64, 84
1, 532104, Control_c, 0, 64, 87
1, 532126, Control_c, 0, 64, 93
1, 532127, Note_on_c, 0, 63, 64
1, 532129, Note_off_c, 0, 45, 38
1, 532141, Control_c, 0, 64, 99
1, 532156, Control_c, 0, 64, 110
1, 532170, Control_c, 0, 64, 127
1, 532227, Note_off_c, 0, 52, 58
1, 532235, Note_on_c, 0, 51, 67
1, 532297, Note_off_c, 0, 63, 56
1, 532304, Control_c, 0, 64, 114
1, 532319, Control_c, 0, 64, 98
1, 532334, Control_c, 0, 64, 83
1, 532349, Control_c, 0, 64, 70
1, 532364, Control_c, 0, 64, 62
1, 532375, Note_on_c, 0, 64, 53
1, 532378, Control_c, 0, 64, 56
1, 532382, Note_off_c, 0, 51, 60
1, 532388, Note_on_c, 0, 44, 51
1, 532393, Control_c, 0, 64, 55
1, 532400, Note_on_c, 0, 50, 54
1, 532408, Control_c, 0, 64, 56
1, 532424, Control_c, 0, 64, 58
1, 532439, Control_c, 0, 64, 60
1, 532454, Control_c, 0, 64, 63
1, 532468, Control_c, 0, 64, 65
1, 532483, Control_c, 0, 64, 68
1, 532498, Control_c, 0, 64, 74
1, 532513, Control_c, 0, 64, 80
1, 532526, Note_off_c, 0, 64, 63
1, 532527, Control_c, 0, 64, 85
1, 532532, Note_off_c, 0, 50, 56
1, 532542, Control_c, 0, 64, 89
1, 532557, Control_c, 0, 64, 94
1, 532558, Note_on_c, 0, 51, 65
1, 532572, Control_c, 0, 64, 100
1, 532587, Control_c, 0, 64, 115
1, 532601, Control_c, 0, 64, 127
1, 532636, Note_on_c, 0, 64, 62
1, 532638, Note_off_c, 0, 44, 36
1, 532719, Note_off_c, 0, 51, 53
1, 532722, Note_on_c, 0, 50, 64
1, 532808, Control_c, 0, 64, 108
1, 532823, Control_c, 0, 64, 93
1, 532838, Control_c, 0, 64, 80
1, 532853, Control_c, 0, 64, 70
1, 532856, Note_off_c, 0, 50, 56
1, 532861, Note_off_c, 0, 64, 56
1, 532875, Control_c, 0, 64, 63
1, 532883, Note_on_c, 0, 49, 50
1, 532890, Control_c, 0, 64, 60
1, 532891, Note_on_c, 0, 61, 57
1, 532895, Note_on_c, 0, 43, 42
1, 532919, Control_c, 0, 64, 60
1, 532949, Control_c, 0, 64, 61
1, 532964, Control_c, 0, 64, 63
1, 532979, Control_c, 0, 64, 65
1, 532994, Control_c, 0, 64, 67
1, 533008, Control_c, 0, 64, 70
1, 533023, Note_off_c, 0, 61, 60
1, 533023, Control_c, 0, 64, 74
1, 533038, Control_c, 0, 64, 78
1, 533046, Note_off_c, 0, 49, 59
1, 533053, Control_c, 0, 64, 82
1, 533057, Note_on_c, 0, 50, 56
1, 533068, Control_c, 0, 64, 87
1, 533083, Control_c, 0, 64, 95
1, 533097, Control_c, 0, 64, 106
1, 533101, Note_off_c, 0, 43, 33
1, 533112, Control_c, 0, 64, 127
1, 533154, Note_on_c, 0, 61, 59
1, 533200, Note_off_c, 0, 50, 59
1, 533234, Note_on_c, 0, 49, 52
1, 533343, Note_off_c, 0, 49, 58
1, 533365, Control_c, 0, 64, 88
1, 533380, Control_c, 0, 64, 72
1, 533390, Note_on_c, 0, 42, 41
1, 533395, Note_on_c, 0, 48, 41
1, 533395, Control_c, 0, 64, 64
1, 533410, Control_c, 0, 64, 61
1, 533416, Note_off_c, 0, 61, 47
1, 533422, Note_on_c, 0, 63, 45
1, 533425, Control_c, 0, 64, 62
1, 533440, Control_c, 0, 64, 63
1, 533455, Control_c, 0, 64, 64
1, 533470, Control_c, 0, 64, 66
1, 533485, Control_c, 0, 64, 70
1, 533499, Control_c, 0, 64, 76
1, 533514, Control_c, 0, 64, 87
1, 533518, Note_off_c, 0, 63, 60
1, 533529, Control_c, 0, 64, 99
1, 533538, Note_off_c, 0, 48, 48
1, 533543, Control_c, 0, 64, 116
1, 533556, Note_on_c, 0, 49, 52
1, 533558, Control_c, 0, 64, 127
1, 533654, Note_on_c, 0, 63, 53
1, 533668, Note_off_c, 0, 42, 37
1, 533717, Note_off_c, 0, 49, 57
1, 533718, Note_on_c, 0, 48, 53
1, 533832, Control_c, 0, 64, 119
1, 533847, Control_c, 0, 64, 86
1, 533849, Note_off_c, 0, 48, 58
1, 533862, Control_c, 0, 64, 71
1, 533873, Note_off_c, 0, 63, 54
1, 533876, Control_c, 0, 64, 62
1, 533881, Note_on_c, 0, 41, 37
1, 533886, Note_on_c, 0, 47, 39
1, 533891, Control_c, 0, 64, 58
1, 533898, Note_on_c, 0, 59, 46
1, 533906, Control_c, 0, 64, 59
1, 533921, Control_c, 0, 64, 61
1, 533936, Control_c, 0, 64, 63
1, 533950, Control_c, 0, 64, 65
1, 533965, Control_c, 0, 64, 69
1, 533980, Control_c, 0, 64, 75
1, 533995, Control_c, 0, 64, 87
1, 534010, Control_c, 0, 64, 106
1, 534016, Note_off_c, 0, 59, 57
1, 534026, Control_c, 0, 64, 127
1, 534055, Note_off_c, 0, 47, 38
1, 534057, Note_on_c, 0, 48, 55
1, 534085, Note_off_c, 0, 41, 40
1, 534149, Note_on_c, 0, 59, 51
1, 534199, Note_off_c, 0, 48, 59
1, 534213, Note_on_c, 0, 47, 57
1, 534307, Control_c, 0, 64, 119
1, 534321, Control_c, 0, 64, 92
1, 534327, Note_off_c, 0, 47, 55
1, 534336, Control_c, 0, 64, 78
1, 534342, Note_off_c, 0, 59, 49
1, 534351, Control_c, 0, 64, 67
1, 534373, Control_c, 0, 64, 63
1, 534373, Note_on_c, 0, 46, 44
1, 534388, Control_c, 0, 64, 62
1, 534397, Note_on_c, 0, 61, 44
1, 534400, Note_on_c, 0, 40, 35
1, 534403, Control_c, 0, 64, 63
1, 534418, Control_c, 0, 64, 64
1, 534433, Control_c, 0, 64, 66
1, 534447, Control_c, 0, 64, 69
1, 534462, Control_c, 0, 64, 74
1, 534462, Control_c, 0, 67, 28
1, 534477, Control_c, 0, 64, 78
1, 534477, Control_c, 0, 67, 48
1, 534491, Control_c, 0, 64, 84
1, 534491, Control_c, 0, 67, 67
1, 534506, Control_c, 0, 64, 90
1, 534506, Control_c, 0, 67, 82
1, 534514, Note_off_c, 0, 61, 55
1, 534521, Control_c, 0, 64, 99
1, 534521, Control_c, 0, 67, 93
1, 534536, Control_c, 0, 64, 121
1, 534536, Control_c, 0, 67, 100
1, 534551, Control_c, 0, 64, 127
1, 534551, Control_c, 0, 67, 105
1, 534565, Control_c, 0, 67, 107
1, 534567, Note_on_c, 0, 47, 32
1, 534572, Note_off_c, 0, 46, 36
1, 534580, Control_c, 0, 67, 108
1, 534595, Control_c, 0, 67, 109
1, 534651, Note_on_c, 0, 61, 53
1, 534664, Note_off_c, 0, 40, 40
1, 534706, Note_on_c, 0, 46, 52
1, 534718, Note_off_c, 0, 47, 38
1, 534788, Control_c, 0, 67, 108
1, 534827, Note_off_c, 0, 46, 54
1, 534834, Control_c, 0, 64, 113
1, 534849, Control_c, 0, 64, 92
1, 534863, Control_c, 0, 64, 80
1, 534865, Note_on_c, 0, 45, 45
1, 534878, Control_c, 0, 64, 71
1, 534879, Note_on_c, 0, 39, 40
1, 534893, Control_c, 0, 64, 65
1, 534893, Control_c, 0, 67, 107
1, 534897, Note_off_c, 0, 61, 33
1, 534903, Note_on_c, 0, 58, 48
1, 534908, Control_c, 0, 64, 63
1, 534908, Control_c, 0, 67, 107
1, 534922, Control_c, 0, 64, 64
1, 534937, Control_c, 0, 64, 65
1, 534952, Control_c, 0, 64, 67
1, 534967, Control_c, 0, 64, 69
1, 534982, Control_c, 0, 64, 72
1, 534989, Note_off_c, 0, 45, 59
1, 534996, Control_c, 0, 64, 76
1, 535011, Control_c, 0, 64, 80
1, 535018, Note_on_c, 0, 46, 55
1, 535019, Note_off_c, 0, 58, 56
1, 535026, Control_c, 0, 64, 83
1, 535041, Control_c, 0, 64, 87
1, 535056, Control_c, 0, 64, 91
1, 535056, Control_c, 0, 67, 106
1, 535071, Control_c, 0, 64, 95
1, 535086, Control_c, 0, 64, 101
1, 535101, Control_c, 0, 64, 113
1, 535122, Note_off_c, 0, 39, 42
1, 535122, Control_c, 0, 64, 127
1, 535167, Note_on_c, 0, 58, 54
1, 535185, Note_off_c, 0, 46, 56
1, 535194, Note_on_c, 0, 45, 57
1, 535315, Control_c, 0, 64, 110
1, 535329, Note_off_c, 0, 45, 56
1, 535330, Control_c, 0, 64, 94
1, 535345, Control_c, 0, 64, 82
1, 535359, Note_on_c, 0, 44, 45
1, 535360, Control_c, 0, 64, 72
1, 535375, Control_c, 0, 64, 66
1, 535378, Note_on_c, 0, 59, 47
1, 535380, Note_on_c, 0, 38, 30
1, 535384, Note_off_c, 0, 58, 36
1, 535389, Control_c, 0, 64, 62
1, 535404, Control_c, 0, 64, 61
1, 535419, Control_c, 0, 64, 62
1, 535434, Control_c, 0, 64, 63
1, 535449, Control_c, 0, 64, 64
1, 535463, Control_c, 0, 64, 66
1, 535478, Control_c, 0, 64, 69
1, 535493, Control_c, 0, 64, 72
1, 535508, Control_c, 0, 64, 75
1, 535521, Note_off_c, 0, 59, 59
1, 535522, Control_c, 0, 64, 79
1, 535537, Control_c, 0, 64, 83
1, 535545, Note_on_c, 0, 45, 59
1, 535552, Control_c, 0, 64, 87
1, 535553, Note_off_c, 0, 44, 39
1, 535567, Control_c, 0, 64, 93
1, 535567, Control_c, 0, 67, 105
1, 535582, Control_c, 0, 64, 98
1, 535586, Note_off_c, 0, 38, 24
1, 535596, Control_c, 0, 64, 105
1, 535612, Control_c, 0, 64, 112
1, 535627, Control_c, 0, 64, 119
1, 535642, Control_c, 0, 64, 127
1, 535642, Control_c, 0, 67, 105
1, 535659, Note_on_c, 0, 59, 50
1, 535722, Note_off_c, 0, 45, 60
1, 535734, Note_on_c, 0, 44, 61
1, 535760, Control_c, 0, 67, 104
1, 535805, Control_c, 0, 64, 121
1, 535819, Control_c, 0, 64, 116
1, 535834, Control_c, 0, 64, 110
1, 535849, Control_c, 0, 64, 100
1, 535872, Control_c, 0, 64, 91
1, 535885, Note_off_c, 0, 44, 55
1, 535887, Control_c, 0, 64, 80
1, 535901, Control_c, 0, 64, 72
1, 535916, Control_c, 0, 64, 66
1, 535921, Note_on_c, 0, 37, 38
1, 535926, Note_on_c, 0, 43, 41
1, 535931, Control_c, 0, 64, 63
1, 535941, Note_on_c, 0, 61, 48
1, 535942, Note_off_c, 0, 59, 50
1, 535945, Control_c, 0, 64, 61
1, 535960, Control_c, 0, 64, 62
1, 535975, Control_c, 0, 64, 63
1, 535990, Control_c, 0, 64, 65
1, 536005, Control_c, 0, 64, 67
1, 536019, Control_c, 0, 64, 69
1, 536034, Control_c, 0, 64, 73
1, 536049, Control_c, 0, 64, 77
1, 536064, Control_c, 0, 64, 81
1, 536079, Control_c, 0, 64, 85
1, 536093, Control_c, 0, 64, 89
1, 536095, Note_off_c, 0, 61, 59
1, 536108, Control_c, 0, 64, 93
1, 536114, Note_off_c, 0, 43, 42
1, 536123, Control_c, 0, 64, 99
1, 536129, Note_on_c, 0, 44, 50
1, 536138, Control_c, 0, 64, 105
1, 536153, Control_c, 0, 64, 111
1, 536168, Control_c, 0, 64, 117
1, 536183, Control_c, 0, 64, 118
1, 536202, Note_on_c, 0, 61, 46
1, 536227, Control_c, 0, 64, 119
1, 536243, Note_off_c, 0, 37, 40
1, 536257, Control_c, 0, 64, 117
1, 536272, Control_c, 0, 64, 114
1, 536286, Control_c, 0, 64, 113
1, 536301, Control_c, 0, 64, 112
1, 536311, Note_off_c, 0, 61, 58
1, 536312, Note_off_c, 0, 44, 56
1, 536316, Control_c, 0, 64, 110
1, 536326, Note_on_c, 0, 43, 55
1, 536331, Control_c, 0, 64, 108
1, 536345, Control_c, 0, 64, 107
1, 536360, Control_c, 0, 64, 104
1, 536375, Control_c, 0, 64, 101
1, 536390, Control_c, 0, 64, 97
1, 536405, Control_c, 0, 64, 90
1, 536421, Control_c, 0, 64, 84
1, 536435, Control_c, 0, 64, 76
1, 536450, Control_c, 0, 64, 69
1, 536454, Note_off_c, 0, 43, 57
1, 536465, Control_c, 0, 64, 64
1, 536479, Note_on_c, 0, 42, 46
1, 536480, Control_c, 0, 64, 62
1, 536493, Note_on_c, 0, 63, 36
1, 536508, Note_on_c, 0, 36, 32
1, 536509, Control_c, 0, 64, 63
1, 536524, Control_c, 0, 64, 64
1, 536539, Control_c, 0, 64, 65
1, 536554, Control_c, 0, 64, 66
1, 536568, Control_c, 0, 64, 68
1, 536583, Control_c, 0, 64, 72
1, 536598, Control_c, 0, 64, 77
1, 536621, Control_c, 0, 64, 82
1, 536636, Control_c, 0, 64, 88
1, 536642, Note_off_c, 0, 63, 59
1, 536650, Control_c, 0, 64, 95
1, 536665, Control_c, 0, 64, 107
1, 536680, Control_c, 0, 64, 127
1, 536691, Note_on_c, 0, 43, 42
1, 536696, Note_off_c, 0, 42, 37
1, 536719, Note_off_c, 0, 36, 23
1, 536781, Note_on_c, 0, 63, 48
1, 536877, Note_on_c, 0, 42, 50
1, 536880, Note_off_c, 0, 43, 37
1, 536902, Control_c, 0, 64, 116
1, 536916, Control_c, 0, 64, 108
1, 536931, Control_c, 0, 64, 102
1, 536946, Control_c, 0, 64, 96
1, 536961, Control_c, 0, 64, 89
1, 536976, Control_c, 0, 64, 80
1, 536991, Control_c, 0, 64, 72
1, 536993, Note_off_c, 0, 42, 53
1, 537005, Control_c, 0, 64, 66
1, 537020, Control_c, 0, 64, 61
1, 537035, Control_c, 0, 64, 56
1, 537041, Note_on_c, 0, 59, 36
1, 537044, Note_on_c, 0, 41, 41
1, 537050, Note_on_c, 0, 35, 24
1, 537050, Control_c, 0, 64, 55
1, 537060, Note_off_c, 0, 63, 34
1, 537065, Control_c, 0, 64, 56
1, 537080, Control_c, 0, 64, 57
1, 537094, Control_c, 0, 64, 58
1, 537109, Control_c, 0, 64, 59
1, 537124, Control_c, 0, 64, 61
1, 537139, Control_c, 0, 64, 63
1, 537154, Control_c, 0, 64, 66
1, 537168, Control_c, 0, 64, 69
1, 537178, Note_off_c, 0, 41, 55
1, 537183, Control_c, 0, 64, 72
1, 537198, Control_c, 0, 64, 76
1, 537201, Note_off_c, 0, 59, 47
1, 537212, Note_on_c, 0, 42, 41
1, 537214, Control_c, 0, 64, 81
1, 537229, Control_c, 0, 64, 88
1, 537244, Control_c, 0, 64, 101
1, 537258, Control_c, 0, 64, 127
1, 537369, Note_on_c, 0, 59, 40
1, 537426, Note_off_c, 0, 42, 42
1, 537480, Note_on_c, 0, 41, 34
1, 537514, Note_off_c, 0, 35, 36
1, 537536, Note_off_c, 0, 68, 35
1, 537539, Note_off_c, 0, 41, 61
1, 537573, Note_off_c, 0, 59, 31
1, 537784, Control_c, 0, 67, 103
1, 537843, Control_c, 0, 64, 110
1, 537858, Control_c, 0, 64, 100
1, 537873, Control_c, 0, 64, 91
1, 537888, Control_c, 0, 64, 84
1, 537888, Control_c, 0, 67, 103
1, 537903, Control_c, 0, 64, 76
1, 537917, Control_c, 0, 64, 71
1, 537922, Note_on_c, 0, 56, 34
1, 537926, Note_on_c, 0, 68, 45
1, 537932, Control_c, 0, 64, 68
1, 537933, Note_on_c, 0, 50, 24
1, 537946, Note_on_c, 0, 64, 34
1, 537947, Control_c, 0, 64, 65
1, 537991, Control_c, 0, 64, 66
1, 538007, Control_c, 0, 64, 67
1, 538022, Control_c, 0, 64, 68
1, 538037, Control_c, 0, 64, 70
1, 538052, Control_c, 0, 64, 72
1, 538067, Control_c, 0, 64, 76
1, 538081, Control_c, 0, 64, 80
1, 538096, Control_c, 0, 64, 83
1, 538118, Control_c, 0, 64, 87
1, 538133, Control_c, 0, 64, 91
1, 538147, Control_c, 0, 64, 96
1, 538162, Control_c, 0, 64, 102
1, 538177, Control_c, 0, 64, 112
1, 538192, Control_c, 0, 64, 127
1, 538241, Note_on_c, 0, 55, 37
1, 538275, Note_off_c, 0, 56, 35
1, 538317, Note_off_c, 0, 50, 38
1, 538328, Note_off_c, 0, 55, 58
1, 538467, Note_off_c, 0, 64, 35
1, 538515, Note_on_c, 0, 55, 34
1, 538530, Note_on_c, 0, 49, 29
1, 538538, Note_on_c, 0, 61, 41
1, 538592, Note_off_c, 0, 68, 38
1, 538681, Control_c, 0, 67, 102
1, 538714, Note_off_c, 0, 61, 35
1, 538770, Control_c, 0, 67, 102
1, 538818, Note_off_c, 0, 55, 40
1, 538828, Note_on_c, 0, 75, 56
1, 538837, Note_on_c, 0, 68, 47
1, 538840, Note_on_c, 0, 54, 34
1, 538882, Control_c, 0, 67, 101
1, 538896, Note_off_c, 0, 54, 52
1, 538904, Note_off_c, 0, 49, 36
1, 538946, Note_off_c, 0, 75, 54
1, 538967, Note_off_c, 0, 68, 45
1, 539089, Control_c, 0, 64, 115
1, 539104, Control_c, 0, 64, 105
1, 539119, Control_c, 0, 64, 93
1, 539134, Control_c, 0, 64, 84
1, 539149, Control_c, 0, 64, 76
1, 539164, Control_c, 0, 64, 69
1, 539170, Note_on_c, 0, 54, 31
1, 539170, Note_on_c, 0, 44, 18
1, 539170, Note_on_c, 0, 68, 55
1, 539176, Note_on_c, 0, 48, 28
1, 539179, Control_c, 0, 64, 65
1, 539179, Control_c, 0, 67, 100
1, 539193, Control_c, 0, 64, 63
1, 539208, Control_c, 0, 64, 64
1, 539223, Control_c, 0, 64, 64
1, 539238, Control_c, 0, 64, 65
1, 539253, Control_c, 0, 64, 67
1, 539268, Control_c, 0, 64, 69
1, 539283, Control_c, 0, 64, 72
1, 539298, Control_c, 0, 64, 77
1, 539312, Control_c, 0, 64, 82
1, 539327, Control_c, 0, 64, 88
1, 539342, Control_c, 0, 64, 95
1, 539356, Control_c, 0, 64, 104
1, 539371, Control_c, 0, 64, 118
1, 539386, Control_c, 0, 64, 127
1, 539453, Note_on_c, 0, 53, 44
1, 539466, Note_off_c, 0, 48, 35
1, 539514, Note_off_c, 0, 54, 41
1, 539527, Note_off_c, 0, 53, 55
1, 539563, Control_c, 0, 67, 100
1, 539734, Note_on_c, 0, 59, 42
1, 539736, Note_on_c, 0, 53, 43
1, 539741, Note_on_c, 0, 47, 35
1, 539854, Control_c, 0, 64, 119
1, 539868, Control_c, 0, 64, 116
1, 539883, Control_c, 0, 64, 114
1, 539898, Control_c, 0, 64, 112
1, 539913, Control_c, 0, 64, 110
1, 539928, Control_c, 0, 64, 107
1, 539942, Control_c, 0, 64, 106
1, 539957, Control_c, 0, 64, 105
1, 539972, Control_c, 0, 64, 105
1, 539984, Note_off_c, 0, 47, 37
1, 539986, Control_c, 0, 64, 104
1, 540001, Control_c, 0, 64, 103
1, 540004, Note_on_c, 0, 52, 42
1, 540016, Control_c, 0, 64, 102
1, 540049, Note_off_c, 0, 53, 39
1, 540064, Note_off_c, 0, 52, 59
1, 540179, Control_c, 0, 64, 102
1, 540194, Control_c, 0, 64, 101
1, 540209, Control_c, 0, 64, 98
1, 540224, Control_c, 0, 64, 92
1, 540239, Control_c, 0, 64, 86
1, 540253, Control_c, 0, 64, 78
1, 540268, Note_on_c, 0, 52, 41
1, 540268, Control_c, 0, 64, 72
1, 540278, Note_on_c, 0, 46, 31
1, 540280, Note_on_c, 0, 61, 45
1, 540283, Control_c, 0, 64, 67
1, 540298, Control_c, 0, 64, 64
1, 540302, Note_off_c, 0, 59, 40
1, 540312, Control_c, 0, 64, 63
1, 540327, Control_c, 0, 64, 64
1, 540342, Control_c, 0, 64, 64
1, 540365, Control_c, 0, 64, 65
1, 540380, Control_c, 0, 64, 67
1, 540394, Control_c, 0, 64, 69
1, 540410, Control_c, 0, 64, 72
1, 540425, Control_c, 0, 64, 77
1, 540439, Note_off_c, 0, 44, 26
1, 540439, Control_c, 0, 64, 81
1, 540454, Control_c, 0, 64, 86
1, 540469, Control_c, 0, 64, 91
1, 540484, Control_c, 0, 64, 97
1, 540499, Control_c, 0, 64, 104
1, 540514, Control_c, 0, 64, 123
1, 540529, Control_c, 0, 64, 127
1, 540554, Note_on_c, 0, 51, 47
1, 540555, Note_off_c, 0, 52, 43
1, 540584, Note_off_c, 0, 46, 39
1, 540651, Note_off_c, 0, 51, 51
1, 540765, Control_c, 0, 64, 111
1, 540780, Control_c, 0, 64, 94
1, 540791, Note_on_c, 0, 51, 52
1, 540795, Control_c, 0, 64, 81
1, 540809, Control_c, 0, 64, 72
1, 540817, Note_on_c, 0, 45, 35
1, 540824, Control_c, 0, 64, 67
1, 540833, Note_on_c, 0, 63, 37
1, 540839, Control_c, 0, 64, 65
1, 540843, Note_off_c, 0, 61, 34
1, 540854, Control_c, 0, 64, 66
1, 540869, Control_c, 0, 64, 66
1, 540884, Control_c, 0, 64, 67
1, 540899, Control_c, 0, 64, 69
1, 540913, Control_c, 0, 64, 71
1, 540928, Control_c, 0, 64, 74
1, 540943, Control_c, 0, 64, 78
1, 540958, Control_c, 0, 64, 83
1, 540973, Control_c, 0, 64, 88
1, 540988, Control_c, 0, 64, 92
1, 541002, Control_c, 0, 64, 97
1, 541017, Control_c, 0, 64, 104
1, 541032, Control_c, 0, 64, 117
1, 541047, Control_c, 0, 64, 127
1, 541068, Note_on_c, 0, 50, 46
1, 541074, Note_off_c, 0, 51, 35
1, 541130, Note_off_c, 0, 50, 58
1, 541169, Note_off_c, 0, 45, 40
1, 541292, Control_c, 0, 64, 123
1, 541307, Control_c, 0, 64, 106
1, 541322, Control_c, 0, 64, 97
1, 541331, Note_on_c, 0, 44, 38
1, 541337, Control_c, 0, 64, 91
1, 541337, Note_on_c, 0, 50, 37
1, 541352, Control_c, 0, 64, 87
1, 541354, Note_on_c, 0, 64, 48
1, 541367, Control_c, 0, 64, 85
1, 541368, Note_off_c, 0, 63, 37
1, 541381, Control_c, 0, 64, 83
1, 541396, Control_c, 0, 64, 79
1, 541411, Control_c, 0, 64, 75
1, 541426, Control_c, 0, 64, 72
1, 541440, Control_c, 0, 64, 68
1, 541455, Control_c, 0, 64, 65
1, 541470, Control_c, 0, 64, 63
1, 541485, Control_c, 0, 64, 59
1, 541500, Control_c, 0, 64, 52
1, 541514, Control_c, 0, 64, 44
1, 541529, Control_c, 0, 64, 32
1, 541529, Control_c, 0, 67, 100
1, 541544, Control_c, 0, 64, 17
1, 541557, Control_c, 0, 64, 0
1, 541572, Control_c, 0, 67, 101
1, 541602, Control_c, 0, 67, 102
1, 541612, Note_on_c, 0, 49, 41
1, 541646, Note_off_c, 0, 50, 42
1, 541646, Control_c, 0, 67, 102
1, 541764, Control_c, 0, 67, 103
1, 541776, Note_off_c, 0, 49, 55
1, 541790, Note_off_c, 0, 44, 40
1, 541855, Note_on_c, 0, 43, 34
1, 541862, Note_on_c, 0, 61, 44
1, 541865, Note_on_c, 0, 49, 26
1, 541935, Control_c, 0, 64, 25
1, 541935, Control_c, 0, 67, 102
1, 541938, Note_off_c, 0, 64, 33
1, 541950, Control_c, 0, 64, 40
1, 541964, Control_c, 0, 64, 51
1, 541979, Control_c, 0, 64, 56
1, 541979, Control_c, 0, 67, 102
1, 541994, Control_c, 0, 64, 59
1, 542010, Control_c, 0, 64, 61
1, 542025, Control_c, 0, 64, 63
1, 542040, Control_c, 0, 64, 65
1, 542054, Control_c, 0, 64, 67
1, 542069, Control_c, 0, 64, 69
1, 542084, Control_c, 0, 64, 73
1, 542084, Control_c, 0, 67, 101
1, 542099, Control_c, 0, 64, 81
1, 542112, Note_on_c, 0, 48, 46
1, 542114, Control_c, 0, 64, 91
1, 542128, Control_c, 0, 64, 108
1, 542143, Control_c, 0, 64, 127
1, 542144, Note_off_c, 0, 49, 35
1, 542185, Note_off_c, 0, 48, 54
1, 542202, Control_c, 0, 67, 100
1, 542211, Note_off_c, 0, 43, 39
1, 542351, Control_c, 0, 64, 104
1, 542366, Note_on_c, 0, 48, 42
1, 542366, Control_c, 0, 64, 91
1, 542371, Note_on_c, 0, 42, 37
1, 542378, Note_on_c, 0, 63, 41
1, 542380, Control_c, 0, 64, 80
1, 542395, Control_c, 0, 64, 72
1, 542410, Control_c, 0, 64, 64
1, 542425, Control_c, 0, 64, 58
1, 542440, Control_c, 0, 64, 54
1, 542455, Control_c, 0, 64, 55
1, 542484, Control_c, 0, 64, 55
1, 542499, Control_c, 0, 64, 56
1, 542500, Note_off_c, 0, 61, 27
1, 542514, Control_c, 0, 64, 58
1, 542529, Control_c, 0, 64, 59
1, 542544, Control_c, 0, 64, 61
1, 542559, Control_c, 0, 64, 62
1, 542573, Control_c, 0, 64, 63
1, 542588, Control_c, 0, 64, 65
1, 542610, Control_c, 0, 64, 67
1, 542625, Control_c, 0, 64, 70
1, 542635, Note_off_c, 0, 48, 39
1, 542639, Note_on_c, 0, 47, 39
1, 542640, Control_c, 0, 64, 75
1, 542654, Control_c, 0, 64, 84
1, 542669, Control_c, 0, 64, 91
1, 542684, Control_c, 0, 64, 95
1, 542692, Note_off_c, 0, 47, 56
1, 542699, Control_c, 0, 64, 98
1, 542714, Control_c, 0, 64, 99
1, 542729, Control_c, 0, 64, 100
1, 542732, Note_off_c, 0, 42, 38
1, 542744, Control_c, 0, 64, 100
1, 542759, Control_c, 0, 64, 101
1, 542788, Control_c, 0, 64, 100
1, 542803, Control_c, 0, 64, 99
1, 542818, Control_c, 0, 64, 97
1, 542833, Control_c, 0, 64, 92
1, 542848, Control_c, 0, 64, 85
1, 542863, Control_c, 0, 64, 78
1, 542878, Control_c, 0, 64, 71
1, 542893, Control_c, 0, 64, 66
1, 542896, Note_on_c, 0, 41, 28
1, 542908, Control_c, 0, 64, 62
1, 542910, Note_on_c, 0, 59, 30
1, 542911, Note_on_c, 0, 47, 24
1, 542920, Note_off_c, 0, 63, 31
1, 542923, Control_c, 0, 64, 59
1, 542923, Control_c, 0, 67, 101
1, 542937, Control_c, 0, 64, 60
1, 542937, Control_c, 0, 67, 102
1, 542952, Control_c, 0, 64, 60
1, 542952, Control_c, 0, 67, 104
1, 542967, Control_c, 0, 64, 61
1, 542967, Control_c, 0, 67, 105
1, 542982, Control_c, 0, 64, 63
1, 542982, Control_c, 0, 67, 107
1, 542997, Control_c, 0, 64, 64
1, 542997, Control_c, 0, 67, 109
1, 543011, Control_c, 0, 64, 65
1, 543011, Control_c, 0, 67, 111
1, 543026, Control_c, 0, 64, 67
1, 543026, Control_c, 0, 67, 112
1, 543041, Control_c, 0, 64, 69
1, 543041, Control_c, 0, 67, 115
1, 543056, Control_c, 0, 64, 71
1, 543056, Control_c, 0, 67, 125
1, 543071, Control_c, 0, 64, 75
1, 543071, Control_c, 0, 67, 127
1, 543085, Control_c, 0, 64, 80
1, 543100, Control_c, 0, 64, 86
1, 543115, Control_c, 0, 64, 94
1, 543130, Control_c, 0, 64, 99
1, 543145, Control_c, 0, 64, 106
1, 543159, Control_c, 0, 64, 114
1, 543161, Note_off_c, 0, 47, 38
1, 543174, Control_c, 0, 64, 127
1, 543180, Note_on_c, 0, 46, 37
1, 543223, Note_off_c, 0, 46, 51
1, 543263, Control_c, 0, 64, 123
1, 543277, Control_c, 0, 64, 118
1, 543279, Note_off_c, 0, 41, 41
1, 543292, Control_c, 0, 64, 117
1, 543307, Control_c, 0, 64, 114
1, 543322, Control_c, 0, 64, 111
1, 543337, Control_c, 0, 64, 106
1, 543359, Control_c, 0, 64, 99
1, 543374, Control_c, 0, 64, 90
1, 543389, Control_c, 0, 64, 80
1, 543394, Note_off_c, 0, 59, 41
1, 543403, Control_c, 0, 64, 71
1, 543417, Note_on_c, 0, 46, 28
1, 543418, Control_c, 0, 64, 65
1, 543423, Note_on_c, 0, 61, 32
1, 543429, Note_on_c, 0, 40, 30
1, 543433, Control_c, 0, 64, 61
1, 543448, Control_c, 0, 64, 61
1, 543463, Control_c, 0, 64, 62
1, 543477, Control_c, 0, 64, 62
1, 543492, Control_c, 0, 64, 63
1, 543507, Control_c, 0, 64, 64
1, 543522, Control_c, 0, 64, 64
1, 543537, Control_c, 0, 64, 65
1, 543552, Control_c, 0, 64, 66
1, 543566, Control_c, 0, 64, 68
1, 543581, Control_c, 0, 64, 69
1, 543596, Control_c, 0, 64, 71
1, 543612, Control_c, 0, 64, 72
1, 543626, Control_c, 0, 64, 75
1, 543641, Control_c, 0, 64, 79
1, 543656, Control_c, 0, 64, 84
1, 543671, Control_c, 0, 64, 89
1, 543686, Control_c, 0, 64, 90
1, 543692, Note_on_c, 0, 45, 38
1, 543714, Note_off_c, 0, 46, 36
1, 543730, Control_c, 0, 64, 91
1, 543731, Note_off_c, 0, 45, 56
1, 543742, Note_off_c, 0, 40, 42
1, 543775, Control_c, 0, 64, 90
1, 543805, Control_c, 0, 64, 90
1, 543834, Control_c, 0, 64, 89
1, 543849, Control_c, 0, 64, 88
1, 543864, Control_c, 0, 64, 87
1, 543879, Control_c, 0, 64, 86
1, 543894, Control_c, 0, 64, 85
1, 543908, Control_c, 0, 64, 83
1, 543923, Control_c, 0, 64, 80
1, 543938, Control_c, 0, 64, 77
1, 543953, Control_c, 0, 64, 72
1, 543954, Note_on_c, 0, 45, 37
1, 543968, Control_c, 0, 64, 69
1, 543969, Note_on_c, 0, 39, 23
1, 543981, Note_on_c, 0, 58, 36
1, 543982, Control_c, 0, 64, 65
1, 543983, Note_off_c, 0, 61, 38
1, 543997, Control_c, 0, 64, 63
1, 544012, Control_c, 0, 64, 61
1, 544041, Control_c, 0, 64, 62
1, 544056, Control_c, 0, 64, 62
1, 544071, Control_c, 0, 64, 63
1, 544086, Control_c, 0, 64, 64
1, 544108, Control_c, 0, 64, 64
1, 544123, Control_c, 0, 64, 65
1, 544138, Control_c, 0, 64, 66
1, 544152, Control_c, 0, 64, 67
1, 544167, Control_c, 0, 64, 69
1, 544182, Control_c, 0, 64, 70
1, 544197, Control_c, 0, 64, 72
1, 544207, Note_off_c, 0, 45, 49
1, 544212, Control_c, 0, 64, 74
1, 544227, Control_c, 0, 64, 76
1, 544241, Control_c, 0, 64, 80
1, 544242, Note_on_c, 0, 44, 21
1, 544256, Control_c, 0, 64, 84
1, 544264, Note_off_c, 0, 39, 40
1, 544271, Control_c, 0, 64, 87
1, 544286, Control_c, 0, 64, 89
1, 544290, Note_off_c, 0, 44, 48
1, 544374, Control_c, 0, 64, 89
1, 544405, Control_c, 0, 64, 88
1, 544420, Control_c, 0, 64, 86
1, 544435, Control_c, 0, 64, 85
1, 544449, Control_c, 0, 64, 82
1, 544464, Control_c, 0, 64, 78
1, 544479, Control_c, 0, 64, 74
1, 544494, Control_c, 0, 64, 70
1, 544498, Note_on_c, 0, 44, 35
1, 544502, Note_on_c, 0, 38, 23
1, 544508, Note_off_c, 0, 58, 37
1, 544509, Note_on_c, 0, 59, 41
1, 544509, Control_c, 0, 64, 67
1, 544523, Control_c, 0, 64, 65
1, 544538, Control_c, 0, 64, 63
1, 544568, Control_c, 0, 64, 64
1, 544582, Control_c, 0, 64, 64
1, 544597, Control_c, 0, 64, 65
1, 544612, Control_c, 0, 64, 66
1, 544627, Control_c, 0, 64, 68
1, 544642, Control_c, 0, 64, 70
1, 544656, Control_c, 0, 64, 72
1, 544671, Control_c, 0, 64, 74
1, 544686, Control_c, 0, 64, 76
1, 544701, Control_c, 0, 64, 80
1, 544716, Control_c, 0, 64, 84
1, 544730, Control_c, 0, 64, 91
1, 544745, Control_c, 0, 64, 100
1, 544760, Control_c, 0, 64, 108
1, 544771, Note_on_c, 0, 43, 38
1, 544774, Control_c, 0, 64, 113
1, 544798, Note_off_c, 0, 44, 35
1, 544819, Control_c, 0, 64, 114
1, 544821, Note_off_c, 0, 43, 59
1, 544836, Note_off_c, 0, 38, 35
1, 544871, Control_c, 0, 64, 113
1, 544886, Control_c, 0, 64, 111
1, 544901, Control_c, 0, 64, 110
1, 544916, Control_c, 0, 64, 107
1, 544930, Control_c, 0, 64, 106
1, 544945, Control_c, 0, 64, 104
1, 544960, Control_c, 0, 64, 101
1, 544974, Control_c, 0, 64, 98
1, 544989, Control_c, 0, 64, 94
1, 545004, Control_c, 0, 64, 88
1, 545019, Control_c, 0, 64, 82
1, 545034, Control_c, 0, 64, 76
1, 545045, Note_on_c, 0, 43, 35
1, 545048, Note_on_c, 0, 37, 24
1, 545049, Control_c, 0, 64, 72
1, 545063, Control_c, 0, 64, 69
1, 545065, Note_on_c, 0, 61, 36
1, 545078, Control_c, 0, 64, 66
1, 545093, Note_off_c, 0, 59, 28
1, 545093, Control_c, 0, 64, 65
1, 545137, Control_c, 0, 64, 65
1, 545152, Control_c, 0, 64, 66
1, 545167, Control_c, 0, 64, 67
1, 545182, Control_c, 0, 64, 68
1, 545197, Control_c, 0, 64, 70
1, 545212, Control_c, 0, 64, 73
1, 545227, Control_c, 0, 64, 75
1, 545242, Control_c, 0, 64, 78
1, 545257, Control_c, 0, 64, 80
1, 545272, Control_c, 0, 64, 83
1, 545286, Control_c, 0, 64, 85
1, 545301, Control_c, 0, 64, 88
1, 545316, Control_c, 0, 64, 92
1, 545325, Note_off_c, 0, 43, 36
1, 545326, Note_on_c, 0, 42, 36
1, 545331, Control_c, 0, 64, 97
1, 545346, Control_c, 0, 64, 105
1, 545361, Control_c, 0, 64, 114
1, 545376, Control_c, 0, 64, 121
1, 545392, Note_off_c, 0, 37, 37
1, 545404, Note_off_c, 0, 42, 47
1, 545405, Control_c, 0, 64, 127
1, 545453, Note_off_c, 0, 61, 33
1, 545494, Control_c, 0, 64, 121
1, 545509, Control_c, 0, 64, 116
1, 545524, Control_c, 0, 64, 111
1, 545539, Control_c, 0, 64, 107
1, 545553, Control_c, 0, 64, 101
1, 545568, Control_c, 0, 64, 95
1, 545583, Control_c, 0, 64, 88
1, 545605, Control_c, 0, 64, 81
1, 545620, Control_c, 0, 64, 74
1, 545629, Note_on_c, 0, 36, 25
1, 545635, Control_c, 0, 64, 70
1, 545638, Note_on_c, 0, 42, 37
1, 545650, Control_c, 0, 64, 68
1, 545652, Note_on_c, 0, 63, 28
1, 545665, Control_c, 0, 64, 67
1, 545694, Control_c, 0, 64, 67
1, 545709, Control_c, 0, 64, 68
1, 545724, Control_c, 0, 64, 69
1, 545739, Control_c, 0, 64, 71
1, 545753, Control_c, 0, 64, 73
1, 545768, Control_c, 0, 64, 76
1, 545783, Control_c, 0, 64, 78
1, 545797, Control_c, 0, 64, 81
1, 545812, Control_c, 0, 64, 85
1, 545827, Control_c, 0, 64, 88
1, 545842, Control_c, 0, 64, 92
1, 545857, Control_c, 0, 64, 97
1, 545871, Control_c, 0, 64, 102
1, 545886, Control_c, 0, 64, 106
1, 545901, Control_c, 0, 64, 112
1, 545916, Control_c, 0, 64, 127
1, 545941, Note_off_c, 0, 42, 37
1, 545944, Note_on_c, 0, 41, 33
1, 545993, Note_off_c, 0, 41, 53
1, 546039, Note_off_c, 0, 36, 39
1, 546214, Control_c, 0, 64, 119
1, 546228, Control_c, 0, 64, 113
1, 546243, Control_c, 0, 64, 108
1, 546258, Control_c, 0, 64, 103
1, 546269, Note_on_c, 0, 41, 30
1, 546273, Control_c, 0, 64, 97
1, 546276, Note_on_c, 0, 59, 30
1, 546288, Control_c, 0, 64, 91
1, 546303, Control_c, 0, 64, 86
1, 546318, Control_c, 0, 64, 81
1, 546329, Poly_aftertouch_c, 0, 35, 127
1, 546333, Control_c, 0, 64, 76
1, 546355, Control_c, 0, 64, 71
1, 546370, Control_c, 0, 64, 67
1, 546384, Control_c, 0, 64, 62
1, 546396, Note_off_c, 0, 63, 26
1, 546399, Control_c, 0, 64, 60
1, 546414, Control_c, 0, 64, 59
1, 546443, Control_c, 0, 64, 60
1, 546503, Control_c, 0, 64, 61
1, 546518, Control_c, 0, 64, 61
1, 546532, Control_c, 0, 64, 62
1, 546547, Control_c, 0, 64, 63
1, 546562, Control_c, 0, 64, 64
1, 546577, Control_c, 0, 64, 65
1, 546592, Control_c, 0, 64, 66
1, 546607, Control_c, 0, 64, 67
1, 546621, Control_c, 0, 64, 69
1, 546636, Control_c, 0, 64, 71
1, 546651, Control_c, 0, 64, 74
1, 546666, Control_c, 0, 64, 76
1, 546681, Control_c, 0, 64, 80
1, 546695, Control_c, 0, 64, 87
1, 546710, Control_c, 0, 64, 100
1, 546725, Control_c, 0, 64, 127
1, 546747, Note_on_c, 0, 40, 34
1, 546750, Note_off_c, 0, 41, 40
1, 546807, Note_off_c, 0, 59, 40
1, 546813, Note_off_c, 0, 40, 58
1, 546826, Poly_aftertouch_c, 0, 35, 0
1, 546934, Note_off_c, 0, 68, 38
1, 547471, Note_on_c, 0, 75, 17
1, 547476, Note_on_c, 0, 87, 38
1, 547492, Note_on_c, 0, 80, 35
1, 547503, Note_on_c, 0, 71, 28
1, 547580, Note_off_c, 0, 80, 57
1, 547611, Note_off_c, 0, 75, 41
1, 547616, Note_off_c, 0, 71, 52
1, 547784, Note_on_c, 0, 86, 32
1, 547884, Note_off_c, 0, 87, 39
1, 548037, Note_off_c, 0, 86, 42
1, 548102, Note_on_c, 0, 32, 31
1, 548136, Note_on_c, 0, 92, 61
1, 548178, Poly_aftertouch_c, 0, 85, 127
1, 548266, Note_off_c, 0, 32, 40
1, 548287, Note_off_c, 0, 92, 54
1, 548339, Poly_aftertouch_c, 0, 85, 0
1, 548455, Note_on_c, 0, 84, 31
1, 548622, Note_off_c, 0, 84, 25
1, 548725, Note_on_c, 0, 91, 67
1, 548735, Note_on_c, 0, 71, 25
1, 548735, Note_on_c, 0, 79, 31
1, 548783, Note_off_c, 0, 79, 48
1, 548806, Poly_aftertouch_c, 0, 83, 127
1, 548820, Poly_aftertouch_c, 0, 74, 0
1, 548828, Note_off_c, 0, 71, 56
1, 548874, Note_off_c, 0, 91, 59
1, 548943, Poly_aftertouch_c, 0, 83, 0
1, 549038, Note_on_c, 0, 82, 45
1, 549099, Note_off_c, 0, 82, 51
1, 549266, Note_on_c, 0, 32, 40
1, 549305, Note_on_c, 0, 89, 61
1, 549309, Note_on_c, 0, 81, 43
1, 549326, Note_on_c, 0, 84, 26
1, 549362, Note_off_c, 0, 32, 52
1, 549362, Note_off_c, 0, 81, 60
1, 549379, Note_off_c, 0, 84, 43
1, 549593, Note_on_c, 0, 80, 38
1, 549643, Note_off_c, 0, 89, 35
1, 549650, Note_off_c, 0, 80, 58
1, 549861, Note_on_c, 0, 66, 12
1, 549869, Note_on_c, 0, 87, 63
1, 549879, Poly_aftertouch_c, 0, 72, 127
1, 549883, Note_on_c, 0, 62, 11
1, 549884, Note_on_c, 0, 79, 44
1, 549898, Note_on_c, 0, 82, 24
1, 549922, Poly_aftertouch_c, 0, 72, 0
1, 549932, Note_off_c, 0, 79, 59
1, 549947, Note_off_c, 0, 82, 43
1, 549966, Note_off_c, 0, 66, 34
1, 550007, Note_off_c, 0, 62, 36
1, 550156, Note_on_c, 0, 78, 47
1, 550215, Note_off_c, 0, 78, 52
1, 550392, Note_on_c, 0, 32, 38
1, 550413, Note_on_c, 0, 77, 47
1, 550416, Note_on_c, 0, 89, 59
1, 550442, Note_off_c, 0, 87, 50
1, 550468, Note_off_c, 0, 32, 52
1, 550511, Note_off_c, 0, 89, 57
1, 550657, Note_off_c, 0, 77, 34
1, 550678, Note_on_c, 0, 91, 64
1, 550688, Note_on_c, 0, 82, 51
1, 550763, Note_off_c, 0, 91, 56
1, 550950, Note_on_c, 0, 72, 35
1, 550953, Note_on_c, 0, 64, 31
1, 550959, Note_on_c, 0, 67, 27
1, 550965, Note_off_c, 0, 82, 41
1, 550972, Note_on_c, 0, 81, 35
1, 550976, Note_on_c, 0, 84, 53
1, 551018, Note_off_c, 0, 72, 58
1, 551022, Note_off_c, 0, 67, 56
1, 551040, Note_off_c, 0, 64, 59
1, 551081, Note_off_c, 0, 84, 56
1, 551188, Note_off_c, 0, 81, 45
1, 551233, Note_on_c, 0, 80, 40
1, 551464, Note_off_c, 0, 80, 44
1, 551489, Note_on_c, 0, 40, 34
1, 551502, Note_on_c, 0, 84, 51
1, 551504, Note_on_c, 0, 79, 33
1, 551527, Poly_aftertouch_c, 0, 81, 127
1, 551567, Poly_aftertouch_c, 0, 81, 0
1, 551707, Note_off_c, 0, 79, 43
1, 551716, Note_off_c, 0, 84, 61
1, 551784, Note_on_c, 0, 78, 34
1, 551865, Note_off_c, 0, 40, 41
1, 551971, Note_off_c, 0, 78, 48
1, 552024, Note_on_c, 0, 32, 34
1, 552037, Note_on_c, 0, 87, 58
1, 552048, Note_on_c, 0, 77, 43
1, 552119, Note_off_c, 0, 32, 39
1, 552187, Note_off_c, 0, 87, 49
1, 552251, Note_off_c, 0, 77, 41
1, 552303, Note_on_c, 0, 78, 41
1, 552515, Note_off_c, 0, 78, 51
1, 552578, Note_on_c, 0, 86, 59
1, 552592, Note_on_c, 0, 79, 41
1, 552592, Note_on_c, 0, 83, 39
1, 552593, Note_on_c, 0, 71, 27
1, 552596, Note_on_c, 0, 67, 19
1, 552605, Note_on_c, 0, 62, 21
1, 552657, Note_off_c, 0, 67, 57
1, 552664, Note_off_c, 0, 71, 48
1, 552685, Note_off_c, 0, 62, 50
1, 552725, Note_off_c, 0, 83, 35
1, 552733, Note_off_c, 0, 86, 39
1, 552795, Note_off_c, 0, 79, 44
1, 552842, Note_on_c, 0, 78, 37
1, 553037, Note_off_c, 0, 78, 42
1, 553116, Note_on_c, 0, 77, 29
1, 553118, Note_on_c, 0, 32, 41
1, 553129, Note_on_c, 0, 81, 44
1, 553135, Note_on_c, 0, 84, 55
1, 553152, Note_off_c, 0, 81, 59
1, 553184, Note_off_c, 0, 32, 56
1, 553234, Note_off_c, 0, 84, 55
1, 553335, Note_off_c, 0, 77, 41
1, 553378, Note_on_c, 0, 76, 43
1, 553431, Note_off_c, 0, 76, 57
1, 553636, Note_on_c, 0, 82, 60
1, 553648, Note_on_c, 0, 75, 51
1, 553654, Note_on_c, 0, 79, 49
1, 553666, Note_on_c, 0, 66, 32
1, 553675, Note_on_c, 0, 72, 32
1, 553685, Note_on_c, 0, 62, 26
1, 553722, Note_off_c, 0, 72, 49
1, 553746, Note_off_c, 0, 62, 55
1, 553752, Note_off_c, 0, 66, 48
1, 553771, Note_off_c, 0, 75, 35
1, 553836, Note_off_c, 0, 82, 50
1, 553903, Note_on_c, 0, 74, 41
1, 553956, Note_off_c, 0, 79, 42
1, 553960, Note_off_c, 0, 74, 58
1, 554182, Note_on_c, 0, 84, 56
1, 554183, Note_on_c, 0, 32, 37
1, 554187, Note_on_c, 0, 72, 43
1, 554238, Poly_aftertouch_c, 0, 44, 127
1, 554245, Note_off_c, 0, 32, 50
1, 554273, Poly_aftertouch_c, 0, 44, 0
1, 554274, Note_off_c, 0, 84, 56
1, 554368, Note_off_c, 0, 72, 42
1, 554434, Note_on_c, 0, 86, 66
1, 554450, Note_on_c, 0, 78, 49
1, 554504, Note_off_c, 0, 86, 59
1, 554712, Note_on_c, 0, 67, 36
1, 554718, Note_off_c, 0, 78, 36
1, 554727, Note_on_c, 0, 81, 54
1, 554729, Note_on_c, 0, 72, 44
1, 554730, Note_on_c, 0, 77, 42
1, 554732, Note_on_c, 0, 64, 40
1, 554778, Note_off_c, 0, 72, 61
1, 554785, Note_off_c, 0, 67, 55
1, 554808, Note_off_c, 0, 64, 57
1, 554811, Note_off_c, 0, 81, 59
1, 554899, Note_off_c, 0, 77, 36
1, 554989, Note_on_c, 0, 76, 43
1, 555181, Note_off_c, 0, 76, 60
1, 555250, Note_on_c, 0, 81, 55
1, 555258, Note_on_c, 0, 40, 38
1, 555259, Note_on_c, 0, 75, 40
1, 555267, Note_on_c, 0, 77, 42
1, 555342, Note_off_c, 0, 75, 50
1, 555500, Note_off_c, 0, 77, 42
1, 555517, Note_off_c, 0, 81, 60
1, 555526, Note_on_c, 0, 74, 42
1, 555715, Note_off_c, 0, 74, 49
1, 555738, Note_off_c, 0, 40, 42
1, 555784, Control_c, 0, 64, 92
1, 555799, Control_c, 0, 64, 78
1, 555814, Control_c, 0, 64, 69
1, 555815, Note_on_c, 0, 44, 9
1, 555818, Note_on_c, 0, 32, 24
1, 555828, Control_c, 0, 64, 63
1, 555830, Note_on_c, 0, 75, 44
1, 555833, Note_on_c, 0, 80, 58
1, 555836, Note_on_c, 0, 73, 39
1, 555843, Control_c, 0, 64, 61
1, 555858, Control_c, 0, 64, 62
1, 555873, Control_c, 0, 64, 64
1, 555887, Control_c, 0, 64, 66
1, 555902, Control_c, 0, 64, 69
1, 555913, Note_off_c, 0, 44, 34
1, 555917, Control_c, 0, 64, 73
1, 555932, Control_c, 0, 64, 79
1, 555943, Note_off_c, 0, 32, 48
1, 555947, Control_c, 0, 64, 87
1, 555961, Control_c, 0, 64, 112
1, 555976, Control_c, 0, 64, 127
1, 556019, Note_off_c, 0, 73, 33
1, 556031, Note_off_c, 0, 75, 22
1, 556059, Note_off_c, 0, 80, 37
1, 556127, Note_on_c, 0, 72, 39
1, 556194, Note_off_c, 0, 72, 54
1, 556359, Note_on_c, 0, 79, 65
1, 556373, Note_on_c, 0, 59, 34
1, 556376, Note_on_c, 0, 71, 51
1, 556378, Note_on_c, 0, 67, 27
1, 556399, Note_on_c, 0, 74, 37
1, 556411, Poly_aftertouch_c, 0, 62, 127
1, 556426, Note_off_c, 0, 67, 51
1, 556454, Poly_aftertouch_c, 0, 62, 0
1, 556455, Note_off_c, 0, 71, 59
1, 556465, Note_off_c, 0, 59, 57
1, 556471, Note_off_c, 0, 79, 58
1, 556662, Note_on_c, 0, 70, 43
1, 556711, Note_off_c, 0, 70, 58
1, 556885, Note_off_c, 0, 74, 41
1, 556900, Note_on_c, 0, 32, 41
1, 556921, Note_on_c, 0, 77, 57
1, 556932, Note_on_c, 0, 69, 41
1, 556951, Note_on_c, 0, 72, 11
1, 556991, Note_off_c, 0, 32, 53
1, 556991, Note_off_c, 0, 69, 60
1, 557121, Note_off_c, 0, 72, 22
1, 557186, Note_off_c, 0, 77, 62
1, 557193, Note_on_c, 0, 68, 39
1, 557238, Note_off_c, 0, 68, 54
1, 557424, Note_on_c, 0, 75, 56
1, 557431, Note_on_c, 0, 60, 26
1, 557432, Note_on_c, 0, 54, 34
1, 557433, Note_on_c, 0, 50, 25
1, 557435, Note_on_c, 0, 70, 37
1, 557440, Note_on_c, 0, 67, 42
1, 557483, Note_off_c, 0, 70, 49
1, 557490, Note_off_c, 0, 67, 60
1, 557500, Note_off_c, 0, 60, 55
1, 557561, Note_off_c, 0, 54, 36
1, 557592, Note_off_c, 0, 50, 38
1, 557703, Note_on_c, 0, 66, 48
1, 557749, Note_off_c, 0, 66, 58
1, 557952, Note_on_c, 0, 32, 39
1, 557958, Note_on_c, 0, 77, 56
1, 557975, Note_on_c, 0, 65, 45
1, 558018, Note_off_c, 0, 75, 51
1, 558051, Note_off_c, 0, 32, 47
1, 558064, Poly_aftertouch_c, 0, 44, 0
1, 558103, Note_off_c, 0, 77, 60
1, 558128, Note_off_c, 0, 65, 33
1, 558206, Note_on_c, 0, 79, 69
1, 558224, Note_on_c, 0, 70, 49
1, 558271, Note_off_c, 0, 79, 61
1, 558482, Note_on_c, 0, 60, 26
1, 558486, Note_off_c, 0, 70, 40
1, 558488, Note_on_c, 0, 72, 58
1, 558495, Note_on_c, 0, 55, 21
1, 558495, Note_on_c, 0, 69, 47
1, 558505, Note_on_c, 0, 52, 39
1, 558550, Note_off_c, 0, 55, 47
1, 558560, Note_off_c, 0, 52, 59
1, 558563, Note_off_c, 0, 60, 50
1, 558575, Note_off_c, 0, 72, 57
1, 558710, Note_off_c, 0, 69, 40
1, 558757, Note_on_c, 0, 68, 41
1, 558987, Note_off_c, 0, 68, 36
1, 559011, Note_on_c, 0, 40, 38
1, 559016, Note_on_c, 0, 72, 49
1, 559021, Note_on_c, 0, 69, 21
1, 559026, Note_on_c, 0, 67, 22
1, 559081, Note_off_c, 0, 69, 43
1, 559204, Note_off_c, 0, 72, 52
1, 559217, Note_off_c, 0, 67, 42
1, 559274, Note_on_c, 0, 66, 39
1, 559464, Note_off_c, 0, 40, 42
1, 559475, Note_off_c, 0, 66, 52
1, 559532, Note_on_c, 0, 32, 31
1, 559552, Note_on_c, 0, 75, 61
1, 559569, Note_on_c, 0, 65, 40
1, 559682, Note_off_c, 0, 32, 33
1, 559690, Note_off_c, 0, 75, 52
1, 559775, Note_off_c, 0, 65, 49
1, 559825, Note_on_c, 0, 66, 43
1, 559981, Note_off_c, 0, 66, 51
1, 560072, Note_on_c, 0, 74, 58
1, 560081, Note_on_c, 0, 59, 31
1, 560083, Note_on_c, 0, 55, 34
1, 560088, Note_on_c, 0, 67, 49
1, 560092, Note_on_c, 0, 71, 40
1, 560107, Note_on_c, 0, 50, 19
1, 560143, Note_off_c, 0, 59, 55
1, 560168, Note_off_c, 0, 55, 59
1, 560213, Note_off_c, 0, 71, 44
1, 560221, Note_off_c, 0, 74, 54
1, 560243, Note_off_c, 0, 50, 37
1, 560247, Note_off_c, 0, 67, 42
1, 560355, Note_on_c, 0, 66, 30
1, 560510, Note_off_c, 0, 66, 42
1, 560603, Note_on_c, 0, 72, 57
1, 560608, Note_on_c, 0, 32, 39
1, 560616, Note_on_c, 0, 65, 42
1, 560671, Poly_aftertouch_c, 0, 69, 0
1, 560672, Note_off_c, 0, 32, 52
1, 560740, Note_off_c, 0, 72, 49
1, 560804, Note_off_c, 0, 65, 50
1, 560856, Note_on_c, 0, 64, 45
1, 561071, Note_off_c, 0, 64, 34
1, 561104, Note_on_c, 0, 70, 59
1, 561118, Note_on_c, 0, 63, 45
1, 561122, Note_on_c, 0, 60, 37
1, 561127, Note_on_c, 0, 54, 38
1, 561131, Note_on_c, 0, 50, 33
1, 561147, Note_on_c, 0, 67, 20
1, 561170, Note_off_c, 0, 60, 59
1, 561191, Note_off_c, 0, 63, 52
1, 561194, Note_off_c, 0, 54, 54
1, 561225, Note_off_c, 0, 50, 50
1, 561258, Note_off_c, 0, 67, 0
1, 561294, Poly_aftertouch_c, 0, 67, 127
1, 561297, Note_off_c, 0, 70, 49
1, 561363, Note_on_c, 0, 62, 40
1, 561427, Note_off_c, 0, 62, 53
1, 561608, Poly_aftertouch_c, 0, 67, 0
1, 561609, Note_on_c, 0, 32, 37
1, 561613, Note_on_c, 0, 72, 55
1, 561619, Note_on_c, 0, 60, 45
1, 561677, Note_off_c, 0, 32, 52
1, 561748, Note_off_c, 0, 72, 61
1, 561795, Note_off_c, 0, 60, 35
1, 561881, Note_on_c, 0, 74, 62
1, 561901, Note_on_c, 0, 66, 43
1, 561962, Note_off_c, 0, 74, 61
1, 562117, Note_off_c, 0, 66, 51
1, 562134, Note_on_c, 0, 55, 31
1, 562144, Note_on_c, 0, 69, 58
1, 562147, Note_on_c, 0, 52, 38
1, 562149, Note_on_c, 0, 60, 14
1, 562158, Note_on_c, 0, 65, 43
1, 562182, Note_off_c, 0, 55, 57
1, 562205, Note_off_c, 0, 60, 50
1, 562248, Note_off_c, 0, 52, 53
1, 562254, Note_off_c, 0, 65, 56
1, 562288, Note_off_c, 0, 69, 48
1, 562424, Note_on_c, 0, 64, 41
1, 562555, Note_off_c, 0, 64, 37
1, 562652, Note_on_c, 0, 69, 54
1, 562663, Note_on_c, 0, 40, 34
1, 562664, Note_on_c, 0, 63, 32
1, 562679, Note_on_c, 0, 65, 34
1, 562760, Note_off_c, 0, 65, 39
1, 562783, Note_off_c, 0, 63, 36
1, 562927, Note_off_c, 0, 69, 52
1, 562951, Note_on_c, 0, 62, 42
1, 563114, Note_off_c, 0, 40, 42
1, 563138, Control_c, 0, 64, 105
1, 563152, Control_c, 0, 64, 88
1, 563167, Control_c, 0, 64, 76
1, 563175, Note_off_c, 0, 62, 56
1, 563182, Control_c, 0, 64, 68
1, 563197, Control_c, 0, 64, 62
1, 563212, Control_c, 0, 64, 60
1, 563219, Note_on_c, 0, 32, 26
1, 563226, Control_c, 0, 64, 61
1, 563240, Note_on_c, 0, 68, 58
1, 563241, Control_c, 0, 64, 62
1, 563246, Note_on_c, 0, 61, 32
1, 563252, Note_on_c, 0, 63, 38
1, 563255, Poly_aftertouch_c, 0, 44, 127
1, 563256, Control_c, 0, 64, 64
1, 563270, Control_c, 0, 64, 65
1, 563285, Control_c, 0, 64, 68
1, 563300, Control_c, 0, 64, 71
1, 563315, Control_c, 0, 64, 76
1, 563326, Note_off_c, 0, 63, 50
1, 563330, Control_c, 0, 64, 82
1, 563336, Poly_aftertouch_c, 0, 44, 0
1, 563345, Control_c, 0, 64, 88
1, 563360, Control_c, 0, 64, 97
1, 563375, Note_off_c, 0, 32, 33
1, 563375, Control_c, 0, 64, 127
1, 563439, Note_off_c, 0, 61, 39
1, 563473, Note_off_c, 0, 68, 35
1, 563524, Note_on_c, 0, 60, 39
1, 563660, Note_off_c, 0, 60, 47
1, 563770, Note_on_c, 0, 67, 56
1, 563784, Note_on_c, 0, 50, 18
1, 563786, Note_on_c, 0, 59, 44
1, 563786, Note_on_c, 0, 47, 31
1, 563788, Note_on_c, 0, 55, 24
1, 563843, Note_off_c, 0, 55, 55
1, 563853, Poly_aftertouch_c, 0, 62, 127
1, 563857, Note_off_c, 0, 50, 47
1, 563898, Note_off_c, 0, 59, 54
1, 563935, Note_off_c, 0, 47, 35
1, 563981, Note_off_c, 0, 67, 37
1, 564038, Note_on_c, 0, 58, 45
1, 564090, Note_off_c, 0, 58, 57
1, 564293, Poly_aftertouch_c, 0, 62, 0
1, 564299, Note_on_c, 0, 32, 31
1, 564299, Note_on_c, 0, 65, 56
1, 564307, Note_on_c, 0, 57, 38
1, 564320, Note_on_c, 0, 60, 15
1, 564376, Note_off_c, 0, 57, 57
1, 564475, Note_off_c, 0, 60, 21
1, 564483, Note_off_c, 0, 32, 41
1, 564578, Note_on_c, 0, 56, 44
1, 564654, Note_off_c, 0, 56, 56
1, 564757, Note_off_c, 0, 65, 34
1, 564823, Note_on_c, 0, 63, 56
1, 564835, Note_on_c, 0, 58, 37
1, 564841, Note_on_c, 0, 55, 42
1, 564844, Note_on_c, 0, 48, 34
1, 564844, Note_on_c, 0, 42, 19
1, 564850, Note_on_c, 0, 38, 26
1, 564901, Note_off_c, 0, 55, 58
1, 564922, Note_off_c, 0, 48, 50
1, 564945, Note_off_c, 0, 58, 48
1, 565053, Note_off_c, 0, 38, 37
1, 565102, Note_on_c, 0, 54, 43
1, 565184, Note_off_c, 0, 54, 57
1, 565207, Note_off_c, 0, 42, 41
1, 565362, Note_on_c, 0, 32, 34
1, 565366, Note_on_c, 0, 65, 45
1, 565371, Note_on_c, 0, 53, 44
1, 565398, Note_off_c, 0, 63, 33
1, 565508, Note_off_c, 0, 65, 36
1, 565532, Note_off_c, 0, 32, 40
1, 565567, Note_off_c, 0, 53, 44
1, 565614, Note_on_c, 0, 67, 63
1, 565625, Note_on_c, 0, 58, 50
1, 565694, Note_off_c, 0, 67, 60
1, 565851, Control_c, 0, 64, 105
1, 565855, Note_off_c, 0, 58, 58
1, 565866, Control_c, 0, 64, 85
1, 565881, Control_c, 0, 64, 73
1, 565882, Note_on_c, 0, 60, 56
1, 565887, Note_on_c, 0, 57, 47
1, 565893, Note_on_c, 0, 43, 25
1, 565896, Control_c, 0, 64, 66
1, 565902, Note_on_c, 0, 40, 29
1, 565902, Note_on_c, 0, 48, 30
1, 565911, Control_c, 0, 64, 61
1, 565941, Control_c, 0, 64, 63
1, 565955, Control_c, 0, 64, 65
1, 565971, Control_c, 0, 64, 66
1, 565986, Control_c, 0, 64, 69
1, 566001, Control_c, 0, 64, 71
1, 566016, Control_c, 0, 64, 75
1, 566031, Control_c, 0, 64, 79
1, 566045, Control_c, 0, 64, 83
1, 566060, Control_c, 0, 64, 88
1, 566075, Control_c, 0, 64, 96
1, 566081, Note_off_c, 0, 57, 53
1, 566090, Control_c, 0, 64, 111
1, 566096, Note_off_c, 0, 43, 40
1, 566105, Control_c, 0, 64, 127
1, 566126, Note_off_c, 0, 48, 37
1, 566139, Note_off_c, 0, 60, 61
1, 566141, Note_on_c, 0, 56, 37
1, 566164, Note_off_c, 0, 40, 44
1, 566392, Note_off_c, 0, 56, 41
1, 566403, Note_on_c, 0, 40, 34
1, 566403, Note_on_c, 0, 60, 52
1, 566415, Note_on_c, 0, 55, 36
1, 566415, Note_on_c, 0, 57, 21
1, 566615, Note_off_c, 0, 55, 46
1, 566629, Note_off_c, 0, 60, 61
1, 566663, Note_on_c, 0, 54, 47
1, 566728, Note_off_c, 0, 57, 10
1, 566898, Note_off_c, 0, 54, 60
1, 566924, Note_on_c, 0, 63, 60
1, 566935, Note_on_c, 0, 32, 27
1, 566938, Note_on_c, 0, 53, 43
1, 566956, Note_off_c, 0, 40, 36
1, 567120, Note_off_c, 0, 32, 41
1, 567128, Note_off_c, 0, 63, 47
1, 567142, Note_off_c, 0, 53, 51
1, 567199, Note_on_c, 0, 54, 50
1, 567349, Control_c, 0, 64, 123
1, 567364, Control_c, 0, 64, 107
1, 567379, Control_c, 0, 64, 94
1, 567393, Control_c, 0, 64, 82
1, 567408, Control_c, 0, 64, 74
1, 567415, Note_off_c, 0, 54, 47
1, 567423, Control_c, 0, 64, 67
1, 567438, Control_c, 0, 64, 63
1, 567453, Control_c, 0, 64, 63
1, 567457, Note_on_c, 0, 59, 44
1, 567458, Note_on_c, 0, 62, 52
1, 567467, Note_on_c, 0, 55, 32
1, 567467, Control_c, 0, 64, 64
1, 567474, Note_on_c, 0, 47, 23
1, 567476, Note_on_c, 0, 43, 15
1, 567482, Control_c, 0, 64, 65
1, 567492, Note_on_c, 0, 38, 12
1, 567497, Control_c, 0, 64, 68
1, 567512, Control_c, 0, 64, 72
1, 567527, Control_c, 0, 64, 77
1, 567542, Control_c, 0, 64, 83
1, 567557, Control_c, 0, 64, 89
1, 567572, Control_c, 0, 64, 97
1, 567587, Control_c, 0, 64, 111
1, 567602, Control_c, 0, 64, 127
1, 567650, Note_off_c, 0, 47, 36
1, 567652, Note_off_c, 0, 43, 40
1, 567661, Note_off_c, 0, 55, 42
1, 567661, Note_off_c, 0, 62, 38
1, 567691, Note_off_c, 0, 38, 38
1, 567706, Note_off_c, 0, 59, 57
1, 567716, Note_on_c, 0, 54, 46
1, 567905, Note_off_c, 0, 54, 59
1, 567957, Note_on_c, 0, 32, 37
1, 567957, Note_on_c, 0, 60, 55
1, 567968, Note_on_c, 0, 53, 42
1, 568031, Poly_aftertouch_c, 0, 57, 0
1, 568105, Note_off_c, 0, 32, 33
1, 568154, Note_off_c, 0, 60, 36
1, 568195, Note_off_c, 0, 53, 40
1, 568219, Note_on_c, 0, 52, 43
1, 568410, Control_c, 0, 64, 100
1, 568413, Note_off_c, 0, 52, 61
1, 568425, Control_c, 0, 64, 85
1, 568439, Control_c, 0, 64, 74
1, 568454, Control_c, 0, 64, 66
1, 568456, Note_on_c, 0, 58, 53
1, 568462, Note_on_c, 0, 51, 46
1, 568469, Note_on_c, 0, 48, 30
1, 568469, Control_c, 0, 64, 64
1, 568470, Note_on_c, 0, 42, 17
1, 568484, Control_c, 0, 64, 64
1, 568485, Note_on_c, 0, 38, 17
1, 568485, Note_on_c, 0, 55, 25
1, 568499, Control_c, 0, 64, 66
1, 568514, Control_c, 0, 64, 68
1, 568529, Control_c, 0, 64, 72
1, 568543, Control_c, 0, 64, 78
1, 568558, Control_c, 0, 64, 84
1, 568573, Control_c, 0, 64, 91
1, 568588, Control_c, 0, 64, 98
1, 568603, Control_c, 0, 64, 105
1, 568618, Control_c, 0, 64, 117
1, 568633, Control_c, 0, 64, 127
1, 568639, Note_off_c, 0, 48, 32
1, 568667, Note_off_c, 0, 51, 37
1, 568671, Note_off_c, 0, 58, 50
1, 568716, Note_on_c, 0, 50, 43
1, 568740, Note_off_c, 0, 38, 39
1, 568779, Note_off_c, 0, 50, 53
1, 568967, Note_off_c, 0, 42, 40
1, 569015, Note_on_c, 0, 60, 54
1, 569020, Note_on_c, 0, 32, 37
1, 569021, Note_on_c, 0, 48, 43
1, 569038, Note_off_c, 0, 55, 44
1, 569110, Note_off_c, 0, 60, 58
1, 569196, Note_off_c, 0, 48, 28
1, 569296, Note_on_c, 0, 62, 56
1, 569313, Note_on_c, 0, 54, 45
1, 569364, Note_off_c, 0, 62, 63
1, 569383, Note_off_c, 0, 54, 52
1, 569441, Control_c, 0, 64, 123
1, 569470, Control_c, 0, 64, 121
1, 569515, Control_c, 0, 64, 119
1, 569530, Control_c, 0, 64, 117
1, 569545, Control_c, 0, 64, 113
1, 569567, Control_c, 0, 64, 106
1, 569582, Control_c, 0, 64, 99
1, 569596, Control_c, 0, 64, 90
1, 569611, Control_c, 0, 64, 81
1, 569626, Control_c, 0, 64, 75
1, 569631, Note_on_c, 0, 56, 49
1, 569639, Note_on_c, 0, 53, 42
1, 569641, Control_c, 0, 64, 70
1, 569652, Note_off_c, 0, 32, 38
1, 569654, Note_on_c, 0, 48, 37
1, 569655, Note_on_c, 0, 44, 22
1, 569656, Control_c, 0, 64, 67
1, 569670, Control_c, 0, 64, 66
1, 569685, Control_c, 0, 64, 67
1, 569700, Control_c, 0, 64, 68
1, 569715, Control_c, 0, 64, 71
1, 569730, Note_off_c, 0, 48, 56
1, 569730, Control_c, 0, 64, 74
1, 569745, Control_c, 0, 64, 79
1, 569760, Control_c, 0, 64, 84
1, 569775, Control_c, 0, 64, 89
1, 569789, Control_c, 0, 64, 93
1, 569804, Control_c, 0, 64, 97
1, 569819, Control_c, 0, 64, 102
1, 569834, Control_c, 0, 64, 110
1, 569849, Control_c, 0, 64, 123
1, 569863, Control_c, 0, 64, 127
1, 569906, Note_off_c, 0, 53, 41
1, 569946, Note_on_c, 0, 52, 43
1, 569956, Poly_aftertouch_c, 0, 38, 127
1, 569969, Note_on_c, 0, 49, 35
1, 570043, Note_off_c, 0, 49, 54
1, 570071, Control_c, 0, 64, 123
1, 570076, Note_off_c, 0, 56, 40
1, 570085, Control_c, 0, 64, 121
1, 570100, Control_c, 0, 64, 119
1, 570130, Control_c, 0, 64, 118
1, 570145, Control_c, 0, 64, 116
1, 570159, Note_off_c, 0, 52, 53
1, 570159, Control_c, 0, 64, 114
1, 570174, Control_c, 0, 64, 113
1, 570189, Control_c, 0, 64, 112
1, 570196, Note_on_c, 0, 56, 52
1, 570204, Control_c, 0, 64, 111
1, 570210, Note_on_c, 0, 48, 46
1, 570210, Note_on_c, 0, 53, 47
1, 570216, Note_on_c, 0, 32, 33
1, 570219, Control_c, 0, 64, 111
1, 570234, Control_c, 0, 64, 110
1, 570248, Note_off_c, 0, 44, 33
1, 570248, Control_c, 0, 64, 110
1, 570281, Note_off_c, 0, 48, 55
1, 570293, Control_c, 0, 64, 109
1, 570315, Control_c, 0, 64, 108
1, 570330, Control_c, 0, 64, 108
1, 570389, Control_c, 0, 64, 107
1, 570416, Note_off_c, 0, 53, 59
1, 570418, Note_off_c, 0, 56, 54
1, 570439, Note_on_c, 0, 52, 54
1, 570463, Note_on_c, 0, 49, 42
1, 570510, Note_off_c, 0, 49, 59
1, 570552, Control_c, 0, 64, 107
1, 570582, Control_c, 0, 64, 106
1, 570597, Control_c, 0, 64, 105
1, 570611, Control_c, 0, 64, 103
1, 570626, Control_c, 0, 64, 102
1, 570641, Control_c, 0, 64, 101
1, 570656, Control_c, 0, 64, 100
1, 570663, Note_off_c, 0, 52, 37
1, 570671, Control_c, 0, 64, 99
1, 570680, Note_on_c, 0, 56, 56
1, 570682, Note_on_c, 0, 53, 50
1, 570685, Control_c, 0, 64, 97
1, 570687, Note_on_c, 0, 48, 36
1, 570698, Note_on_c, 0, 44, 36
1, 570700, Control_c, 0, 64, 96
1, 570715, Control_c, 0, 64, 95
1, 570729, Control_c, 0, 64, 94
1, 570735, Note_off_c, 0, 48, 52
1, 570761, Control_c, 0, 64, 93
1, 570776, Control_c, 0, 64, 91
1, 570790, Control_c, 0, 64, 90
1, 570801, Note_off_c, 0, 32, 38
1, 570805, Control_c, 0, 64, 88
1, 570820, Control_c, 0, 64, 87
1, 570834, Control_c, 0, 64, 86
1, 570849, Control_c, 0, 64, 85
1, 570864, Control_c, 0, 64, 84
1, 570879, Control_c, 0, 64, 83
1, 570894, Control_c, 0, 64, 81
1, 570899, Note_off_c, 0, 53, 62
1, 570908, Control_c, 0, 64, 80
1, 570923, Control_c, 0, 64, 79
1, 570927, Note_on_c, 0, 52, 48
1, 570938, Control_c, 0, 64, 78
1, 570940, Note_on_c, 0, 49, 42
1, 570952, Control_c, 0, 64, 78
1, 570967, Control_c, 0, 64, 77
1, 570982, Control_c, 0, 64, 77
1, 570994, Poly_aftertouch_c, 0, 38, 0
1, 570997, Control_c, 0, 64, 76
1, 571012, Control_c, 0, 64, 76
1, 571027, Control_c, 0, 64, 74
1, 571041, Control_c, 0, 64, 72
1, 571064, Control_c, 0, 64, 69
1, 571079, Control_c, 0, 64, 65
1, 571094, Control_c, 0, 64, 61
1, 571109, Note_off_c, 0, 49, 39
1, 571109, Control_c, 0, 64, 54
1, 571123, Control_c, 0, 64, 51
1, 571153, Control_c, 0, 64, 52
1, 571164, Note_off_c, 0, 52, 60
1, 571167, Control_c, 0, 64, 54
1, 571182, Control_c, 0, 64, 56
1, 571190, Note_on_c, 0, 37, 38
1, 571195, Note_on_c, 0, 53, 47
1, 571197, Control_c, 0, 64, 59
1, 571205, Note_on_c, 0, 48, 33
1, 571212, Control_c, 0, 64, 61
1, 571227, Control_c, 0, 64, 63
1, 571232, Note_off_c, 0, 44, 33
1, 571241, Control_c, 0, 64, 65
1, 571256, Control_c, 0, 64, 67
1, 571268, Note_off_c, 0, 48, 56
1, 571271, Control_c, 0, 64, 70
1, 571286, Control_c, 0, 64, 74
1, 571301, Control_c, 0, 64, 82
1, 571316, Control_c, 0, 64, 94
1, 571331, Control_c, 0, 64, 114
1, 571345, Control_c, 0, 64, 127
1, 571448, Note_off_c, 0, 53, 58
1, 571480, Note_on_c, 0, 52, 49
1, 571495, Note_on_c, 0, 49, 34
1, 571497, Note_off_c, 0, 56, 41
1, 571606, Note_off_c, 0, 49, 49
1, 571672, Control_c, 0, 64, 115
1, 571687, Control_c, 0, 64, 106
1, 571702, Control_c, 0, 64, 93
1, 571714, Note_off_c, 0, 52, 54
1, 571717, Control_c, 0, 64, 82
1, 571731, Control_c, 0, 64, 74
1, 571746, Control_c, 0, 64, 67
1, 571760, Note_on_c, 0, 53, 44
1, 571761, Control_c, 0, 64, 63
1, 571763, Note_on_c, 0, 56, 44
1, 571769, Note_on_c, 0, 40, 43
1, 571769, Note_on_c, 0, 48, 34
1, 571775, Control_c, 0, 64, 60
1, 571790, Control_c, 0, 64, 61
1, 571813, Control_c, 0, 64, 63
1, 571828, Control_c, 0, 64, 65
1, 571843, Control_c, 0, 64, 66
1, 571857, Control_c, 0, 64, 68
1, 571858, Note_off_c, 0, 37, 36
1, 571865, Note_off_c, 0, 48, 49
1, 571872, Control_c, 0, 64, 70
1, 571887, Control_c, 0, 64, 72
1, 571902, Control_c, 0, 64, 75
1, 571917, Control_c, 0, 64, 77
1, 571932, Control_c, 0, 64, 80
1, 571946, Control_c, 0, 64, 85
1, 571961, Control_c, 0, 64, 90
1, 571976, Control_c, 0, 64, 96
1, 571990, Control_c, 0, 64, 100
1, 572005, Control_c, 0, 64, 101
1, 572035, Control_c, 0, 64, 101
1, 572064, Control_c, 0, 64, 102
1, 572072, Note_off_c, 0, 53, 41
1, 572084, Note_on_c, 0, 52, 47
1, 572104, Note_on_c, 0, 49, 37
1, 572109, Control_c, 0, 64, 101
1, 572124, Control_c, 0, 64, 101
1, 572138, Control_c, 0, 64, 100
1, 572168, Control_c, 0, 64, 100
1, 572174, Note_off_c, 0, 49, 51
1, 572183, Control_c, 0, 64, 99
1, 572243, Control_c, 0, 64, 99
1, 572272, Control_c, 0, 64, 98
1, 572287, Control_c, 0, 64, 97
1, 572302, Control_c, 0, 64, 95
1, 572317, Control_c, 0, 64, 94
1, 572331, Control_c, 0, 64, 91
1, 572346, Control_c, 0, 64, 87
1, 572359, Note_off_c, 0, 52, 54
1, 572362, Control_c, 0, 64, 80
1, 572377, Control_c, 0, 64, 73
1, 572392, Control_c, 0, 64, 68
1, 572406, Control_c, 0, 64, 64
1, 572412, Note_on_c, 0, 53, 37
1, 572413, Note_on_c, 0, 48, 31
1, 572416, Note_on_c, 0, 44, 32
1, 572421, Control_c, 0, 64, 62
1, 572436, Control_c, 0, 64, 63
1, 572451, Control_c, 0, 64, 64
1, 572466, Control_c, 0, 64, 64
1, 572471, Note_off_c, 0, 40, 42
1, 572480, Control_c, 0, 64, 66
1, 572495, Control_c, 0, 64, 67
1, 572510, Control_c, 0, 64, 69
1, 572525, Control_c, 0, 64, 70
1, 572540, Control_c, 0, 64, 73
1, 572562, Control_c, 0, 64, 75
1, 572577, Control_c, 0, 64, 77
1, 572589, Note_off_c, 0, 48, 37
1, 572591, Control_c, 0, 64, 79
1, 572606, Control_c, 0, 64, 80
1, 572621, Control_c, 0, 64, 82
1, 572636, Control_c, 0, 64, 84
1, 572651, Control_c, 0, 64, 86
1, 572666, Control_c, 0, 64, 87
1, 572680, Control_c, 0, 64, 87
1, 572710, Control_c, 0, 64, 88
1, 572723, Note_off_c, 0, 53, 54
1, 572725, Control_c, 0, 64, 88
1, 572755, Note_on_c, 0, 52, 43
1, 572774, Note_on_c, 0, 49, 31
1, 572792, Note_off_c, 0, 56, 38
1, 572858, Control_c, 0, 64, 88
1, 572899, Note_off_c, 0, 49, 34
1, 572917, Control_c, 0, 64, 87
1, 572961, Control_c, 0, 64, 87
1, 572966, Poly_aftertouch_c, 0, 40, 127
1, 572991, Control_c, 0, 64, 86
1, 573006, Control_c, 0, 64, 86
1, 573021, Control_c, 0, 64, 85
1, 573036, Control_c, 0, 64, 85
1, 573051, Control_c, 0, 64, 83
1, 573066, Control_c, 0, 64, 81
1, 573080, Control_c, 0, 64, 78
1, 573093, Note_off_c, 0, 52, 47
1, 573095, Control_c, 0, 64, 73
1, 573110, Control_c, 0, 64, 67
1, 573124, Note_on_c, 0, 37, 33
1, 573125, Poly_aftertouch_c, 0, 40, 0
1, 573125, Control_c, 0, 64, 63
1, 573129, Note_on_c, 0, 53, 39
1, 573135, Note_on_c, 0, 56, 38
1, 573140, Control_c, 0, 64, 60
1, 573143, Note_on_c, 0, 48, 31
1, 573156, Control_c, 0, 64, 59
1, 573171, Control_c, 0, 64, 59
1, 573185, Control_c, 0, 64, 60
1, 573200, Control_c, 0, 64, 62
1, 573215, Control_c, 0, 64, 64
1, 573229, Control_c, 0, 64, 66
1, 573244, Control_c, 0, 64, 68
1, 573259, Control_c, 0, 64, 70
1, 573274, Control_c, 0, 64, 73
1, 573289, Control_c, 0, 64, 75
1, 573311, Control_c, 0, 64, 77
1, 573319, Note_off_c, 0, 48, 41
1, 573326, Control_c, 0, 64, 79
1, 573331, Note_off_c, 0, 44, 26
1, 573341, Control_c, 0, 64, 81
1, 573356, Control_c, 0, 64, 84
1, 573371, Control_c, 0, 64, 86
1, 573385, Control_c, 0, 64, 88
1, 573459, Control_c, 0, 64, 88
1, 573474, Control_c, 0, 64, 87
1, 573504, Control_c, 0, 64, 87
1, 573519, Control_c, 0, 64, 86
1, 573533, Control_c, 0, 64, 85
1, 573538, Note_off_c, 0, 53, 41
1, 573548, Control_c, 0, 64, 85
1, 573563, Control_c, 0, 64, 84
1, 573564, Note_on_c, 0, 52, 39
1, 573575, Note_on_c, 0, 49, 36
1, 573578, Control_c, 0, 64, 83
1, 573608, Control_c, 0, 64, 83
1, 573623, Control_c, 0, 64, 82
1, 573637, Control_c, 0, 64, 81
1, 573652, Control_c, 0, 64, 80
1, 573667, Control_c, 0, 64, 79
1, 573682, Control_c, 0, 64, 78
1, 573697, Control_c, 0, 64, 77
1, 573711, Control_c, 0, 64, 76
1, 573726, Control_c, 0, 64, 76
1, 573754, Control_c, 0, 64, 75
1, 573769, Control_c, 0, 64, 75
1, 573784, Control_c, 0, 64, 74
1, 573799, Control_c, 0, 64, 74
1, 573814, Control_c, 0, 64, 73
1, 573828, Control_c, 0, 64, 72
1, 573843, Control_c, 0, 64, 72
1, 573858, Control_c, 0, 64, 71
1, 573873, Control_c, 0, 64, 71
1, 573888, Control_c, 0, 64, 70
1, 573902, Control_c, 0, 64, 70
1, 573917, Control_c, 0, 64, 69
1, 573932, Control_c, 0, 64, 69
1, 573947, Control_c, 0, 64, 68
1, 574007, Control_c, 0, 64, 68
1, 574037, Control_c, 0, 64, 67
1, 574088, Control_c, 0, 64, 67
1, 574127, Note_on_c, 0, 41, 37
1, 574162, Control_c, 0, 64, 66
1, 574192, Control_c, 0, 64, 66
1, 574207, Control_c, 0, 64, 65
1, 574222, Control_c, 0, 64, 65
1, 574234, Note_off_c, 0, 37, 40
1, 574252, Control_c, 0, 64, 64
1, 574281, Control_c, 0, 64, 64
1, 574311, Control_c, 0, 64, 63
1, 574355, Control_c, 0, 64, 63
1, 574414, Control_c, 0, 64, 62
1, 574458, Control_c, 0, 64, 62
1, 574503, Control_c, 0, 64, 61
1, 574518, Control_c, 0, 64, 61
1, 574532, Control_c, 0, 64, 60
1, 574562, Control_c, 0, 64, 60
1, 574595, Note_on_c, 0, 40, 45
1, 574607, Control_c, 0, 64, 59
1, 574630, Note_off_c, 0, 41, 42
1, 574651, Control_c, 0, 64, 59
1, 574681, Control_c, 0, 64, 58
1, 574725, Control_c, 0, 64, 58
1, 574771, Control_c, 0, 64, 57
1, 574822, Control_c, 0, 64, 57
1, 574881, Control_c, 0, 64, 56
1, 574985, Control_c, 0, 64, 56
1, 575017, Note_on_c, 0, 39, 38
1, 575020, Note_off_c, 0, 40, 44
1, 575178, Control_c, 0, 64, 55
1, 575536, Note_on_c, 0, 37, 33
1, 575572, Note_off_c, 0, 39, 41
1, 576246, Note_on_c, 0, 44, 32
1, 576282, Note_off_c, 0, 37, 37
1, 576616, Control_c, 0, 64, 56
1, 576646, Control_c, 0, 64, 56
1, 576660, Control_c, 0, 64, 57
1, 576675, Control_c, 0, 64, 58
1, 576690, Control_c, 0, 64, 59
1, 576705, Control_c, 0, 64, 60
1, 576720, Control_c, 0, 64, 61
1, 576734, Control_c, 0, 64, 62
1, 576750, Control_c, 0, 64, 63
1, 576765, Control_c, 0, 64, 64
1, 576779, Control_c, 0, 64, 65
1, 576794, Control_c, 0, 64, 66
1, 576809, Control_c, 0, 64, 68
1, 576824, Control_c, 0, 64, 69
1, 576839, Control_c, 0, 64, 72
1, 576853, Control_c, 0, 64, 75
1, 576868, Control_c, 0, 64, 79
1, 576883, Control_c, 0, 64, 84
1, 576898, Control_c, 0, 64, 88
1, 576913, Control_c, 0, 64, 92
1, 576927, Control_c, 0, 64, 95
1, 576942, Control_c, 0, 64, 97
1, 576957, Control_c, 0, 64, 99
1, 576971, Control_c, 0, 64, 100
1, 576986, Control_c, 0, 64, 101
1, 577001, Control_c, 0, 64, 102
1, 577203, Control_c, 0, 64, 102
1, 577225, Note_off_c, 0, 49, 36
1, 577232, Control_c, 0, 64, 101
1, 577239, Note_off_c, 0, 52, 31
1, 577336, Control_c, 0, 64, 101
1, 577409, Control_c, 0, 64, 100
1, 577528, Control_c, 0, 64, 100
1, 577543, Control_c, 0, 64, 99
1, 577573, Control_c, 0, 64, 99
1, 577587, Control_c, 0, 64, 98
1, 577602, Control_c, 0, 64, 98
1, 577604, Note_off_c, 0, 56, 31
1, 577617, Control_c, 0, 64, 97
1, 577632, Control_c, 0, 64, 97
1, 577662, Control_c, 0, 64, 96
1, 577676, Control_c, 0, 64, 95
1, 577706, Control_c, 0, 64, 95
1, 577721, Control_c, 0, 64, 94
1, 577736, Control_c, 0, 64, 94
1, 577750, Control_c, 0, 64, 93
1, 577765, Control_c, 0, 64, 93
1, 577780, Control_c, 0, 64, 92
1, 577802, Control_c, 0, 64, 92
1, 577817, Control_c, 0, 64, 91
1, 577832, Control_c, 0, 64, 91
1, 577862, Control_c, 0, 64, 90
1, 577891, Control_c, 0, 64, 89
1, 577906, Control_c, 0, 64, 89
1, 577921, Control_c, 0, 64, 88
1, 577936, Control_c, 0, 64, 87
1, 577951, Control_c, 0, 64, 86
1, 577966, Control_c, 0, 64, 85
1, 577981, Control_c, 0, 64, 83
1, 577987, Note_on_c, 0, 32, 29
1, 577996, Control_c, 0, 64, 81
1, 578011, Control_c, 0, 64, 80
1, 578025, Control_c, 0, 64, 78
1, 578040, Control_c, 0, 64, 76
1, 578055, Control_c, 0, 64, 75
1, 578070, Control_c, 0, 64, 74
1, 578085, Control_c, 0, 64, 73
1, 578099, Control_c, 0, 64, 72
1, 578106, Note_off_c, 0, 44, 34
1, 578114, Control_c, 0, 64, 71
1, 578129, Control_c, 0, 64, 70
1, 578144, Control_c, 0, 64, 70
1, 578159, Control_c, 0, 64, 69
1, 578173, Control_c, 0, 64, 68
1, 578188, Control_c, 0, 64, 67
1, 578203, Control_c, 0, 64, 66
1, 578217, Control_c, 0, 64, 65
1, 578232, Control_c, 0, 64, 64
1, 578247, Control_c, 0, 64, 63
1, 578262, Control_c, 0, 64, 62
1, 578277, Control_c, 0, 64, 62
1, 578292, Control_c, 0, 64, 61
1, 578306, Control_c, 0, 64, 61
1, 578321, Control_c, 0, 64, 60
1, 578336, Control_c, 0, 64, 58
1, 578351, Control_c, 0, 64, 58
1, 578365, Control_c, 0, 64, 57
1, 578380, Control_c, 0, 64, 56
1, 578395, Control_c, 0, 64, 55
1, 578410, Control_c, 0, 64, 55
1, 578425, Control_c, 0, 64, 54
1, 578455, Control_c, 0, 64, 54
1, 578470, Control_c, 0, 64, 53
1, 578514, Control_c, 0, 64, 53
1, 578566, Control_c, 0, 64, 52
1, 578595, Control_c, 0, 64, 52
1, 578640, Control_c, 0, 64, 51
1, 578789, Control_c, 0, 64, 51
1, 579188, Control_c, 0, 64, 51
1, 579775, Control_c, 0, 64, 52
1, 579805, Control_c, 0, 64, 52
1, 579819, Control_c, 0, 64, 53
1, 579834, Control_c, 0, 64, 53
1, 579864, Control_c, 0, 64, 54
1, 579878, Control_c, 0, 64, 54
1, 579908, Control_c, 0, 64, 55
1, 579923, Control_c, 0, 64, 55
1, 579952, Control_c, 0, 64, 56
1, 579982, Control_c, 0, 64, 56
1, 580011, Control_c, 0, 64, 57
1, 580026, Control_c, 0, 64, 57
1, 580049, Control_c, 0, 64, 58
1, 580078, Control_c, 0, 64, 58
1, 580093, Control_c, 0, 64, 59
1, 580108, Control_c, 0, 64, 59
1, 580123, Control_c, 0, 64, 60
1, 580138, Control_c, 0, 64, 60
1, 580152, Control_c, 0, 64, 61
1, 580167, Control_c, 0, 64, 62
1, 580182, Control_c, 0, 64, 62
1, 580196, Control_c, 0, 64, 63
1, 580211, Control_c, 0, 64, 64
1, 580226, Control_c, 0, 64, 64
1, 580241, Control_c, 0, 64, 65
1, 580256, Control_c, 0, 64, 66
1, 580270, Control_c, 0, 64, 67
1, 580285, Control_c, 0, 64, 69
1, 580300, Control_c, 0, 64, 71
1, 580315, Control_c, 0, 64, 74
1, 580330, Control_c, 0, 64, 77
1, 580346, Control_c, 0, 64, 80
1, 580361, Control_c, 0, 64, 83
1, 580375, Control_c, 0, 64, 86
1, 580390, Control_c, 0, 64, 90
1, 580405, Control_c, 0, 64, 93
1, 580420, Control_c, 0, 64, 97
1, 580435, Control_c, 0, 64, 100
1, 580449, Control_c, 0, 64, 103
1, 580464, Control_c, 0, 64, 104
1, 580479, Control_c, 0, 64, 105
1, 580613, Control_c, 0, 64, 105
1, 580642, Control_c, 0, 64, 104
1, 580657, Control_c, 0, 64, 104
1, 580716, Control_c, 0, 64, 103
1, 580731, Control_c, 0, 64, 102
1, 580775, Control_c, 0, 64, 101
1, 580798, Control_c, 0, 64, 101
1, 580813, Control_c, 0, 64, 100
1, 580842, Control_c, 0, 64, 99
1, 580872, Control_c, 0, 64, 99
1, 580887, Control_c, 0, 64, 98
1, 580901, Control_c, 0, 64, 98
1, 580931, Control_c, 0, 64, 97
1, 581091, Note_off_c, 0, 32, 25
1, 581108, Control_c, 0, 64, 97
1, 581421, Control_c, 0, 64, 96
1, 581524, Control_c, 0, 64, 96
1, 581546, Control_c, 0, 64, 95
1, 581576, Control_c, 0, 64, 95
1, 581591, Control_c, 0, 64, 94
1, 581621, Control_c, 0, 64, 94
1, 581636, Control_c, 0, 64, 93
1, 581650, Control_c, 0, 64, 93
1, 581665, Control_c, 0, 64, 92
1, 581695, Control_c, 0, 64, 92
1, 581710, Control_c, 0, 64, 91
1, 581724, Control_c, 0, 64, 91
1, 581754, Control_c, 0, 64, 90
1, 581769, Control_c, 0, 64, 90
1, 581784, Control_c, 0, 64, 89
1, 581798, Control_c, 0, 64, 89
1, 581813, Control_c, 0, 64, 88
1, 581828, Control_c, 0, 64, 88
1, 581842, Control_c, 0, 64, 87
1, 581857, Control_c, 0, 64, 87
1, 581872, Control_c, 0, 64, 86
1, 581887, Control_c, 0, 64, 86
1, 581902, Control_c, 0, 64, 85
1, 581916, Control_c, 0, 64, 85
1, 581931, Control_c, 0, 64, 84
1, 581947, Control_c, 0, 64, 84
1, 581962, Control_c, 0, 64, 83
1, 581977, Control_c, 0, 64, 83
1, 581992, Control_c, 0, 64, 82
1, 582021, Control_c, 0, 64, 82
1, 582036, Control_c, 0, 64, 81
1, 582051, Control_c, 0, 64, 81
1, 582065, Control_c, 0, 64, 80
1, 582095, Control_c, 0, 64, 80
1, 582125, Control_c, 0, 64, 79
1, 582154, Control_c, 0, 64, 79
1, 582169, Control_c, 0, 64, 78
1, 582199, Control_c, 0, 64, 78
1, 582229, Control_c, 0, 64, 77
1, 582244, Control_c, 0, 64, 77
1, 582273, Control_c, 0, 64, 76
1, 582310, Control_c, 0, 64, 76
1, 582340, Control_c, 0, 64, 75
1, 582369, Control_c, 0, 64, 75
1, 582399, Control_c, 0, 64, 74
1, 582414, Control_c, 0, 64, 74
1, 582428, Control_c, 0, 64, 73
1, 582443, Control_c, 0, 64, 73
1, 582458, Control_c, 0, 64, 72
1, 582562, Control_c, 0, 64, 72
1, 582591, Control_c, 0, 64, 71
1, 582606, Control_c, 0, 64, 71
1, 582636, Control_c, 0, 64, 70
1, 582651, Control_c, 0, 64, 69
1, 582665, Control_c, 0, 64, 69
1, 582695, Control_c, 0, 64, 68
1, 582710, Control_c, 0, 64, 68
1, 582741, Control_c, 0, 64, 67
1, 582770, Control_c, 0, 64, 67
1, 582800, Control_c, 0, 64, 66
1, 582874, Control_c, 0, 64, 66
1, 582918, Control_c, 0, 64, 65
1, 582992, Control_c, 0, 64, 65
1, 583022, Control_c, 0, 64, 64
1, 583044, Control_c, 0, 64, 64
1, 583059, Control_c, 0, 64, 63
1, 583074, Control_c, 0, 64, 62
1, 583103, Control_c, 0, 64, 62
1, 583163, Control_c, 0, 64, 61
1, 583177, Control_c, 0, 64, 61
1, 583207, Control_c, 0, 64, 60
1, 583236, Control_c, 0, 64, 60
1, 583251, Control_c, 0, 64, 59
1, 583266, Control_c, 0, 64, 58
1, 583281, Control_c, 0, 64, 57
1, 583296, Control_c, 0, 64, 56
1, 583311, Control_c, 0, 64, 56
1, 583341, Control_c, 0, 64, 55
1, 583356, Control_c, 0, 64, 55
1, 583370, Control_c, 0, 64, 54
1, 583385, Control_c, 0, 64, 54
1, 583400, Control_c, 0, 64, 53
1, 583429, Control_c, 0, 64, 53
1, 583444, Control_c, 0, 64, 52
1, 583459, Control_c, 0, 64, 51
1, 583474, Control_c, 0, 64, 51
1, 583488, Control_c, 0, 64, 50
1, 583503, Control_c, 0, 64, 49
1, 583533, Control_c, 0, 64, 49
1, 583549, Control_c, 0, 64, 48
1, 583579, Control_c, 0, 64, 48
1, 583623, Control_c, 0, 64, 47
1, 583667, Control_c, 0, 64, 47
1, 583697, Control_c, 0, 64, 46
1, 583711, Control_c, 0, 64, 45
1, 583726, Control_c, 0, 64, 44
1, 583741, Control_c, 0, 64, 42
1, 583756, Control_c, 0, 64, 40
1, 583771, Control_c, 0, 64, 39
1, 583793, Control_c, 0, 64, 38
1, 583808, Control_c, 0, 64, 37
1, 583823, Control_c, 0, 64, 37
1, 583867, Control_c, 0, 64, 36
1, 583926, Control_c, 0, 64, 35
1, 583941, Control_c, 0, 64, 33
1, 583956, Control_c, 0, 64, 31
1, 583971, Control_c, 0, 64, 27
1, 583973, Note_on_c, 0, 38, 42
1, 583981, Note_on_c, 0, 50, 37
1, 583986, Control_c, 0, 64, 22
1, 584000, Control_c, 0, 64, 15
1, 584008, Note_off_c, 0, 38, 61
1, 584014, Note_off_c, 0, 50, 55
1, 584015, Control_c, 0, 64, 0
1, 584034, Note_on_c, 0, 57, 55
1, 584061, Note_on_c, 0, 45, 37
1, 584082, Note_off_c, 0, 57, 56
1, 584099, Note_off_c, 0, 45, 57
1, 584140, Note_on_c, 0, 41, 40
1, 584141, Note_on_c, 0, 53, 42
1, 584170, Note_off_c, 0, 53, 59
1, 584178, Note_off_c, 0, 41, 52
1, 584197, Note_on_c, 0, 40, 47
1, 584201, Note_on_c, 0, 52, 48
1, 584231, Note_off_c, 0, 52, 53
1, 584232, Note_off_c, 0, 40, 64
1, 584276, Note_on_c, 0, 55, 52
1, 584286, Note_on_c, 0, 43, 29
1, 584311, Note_off_c, 0, 55, 63
1, 584318, Note_off_c, 0, 43, 46
1, 584336, Note_on_c, 0, 40, 42
1, 584345, Note_on_c, 0, 52, 44
1, 584379, Note_off_c, 0, 40, 63
1, 584384, Note_off_c, 0, 52, 65
1, 584390, Note_on_c, 0, 38, 54
1, 584405, Note_on_c, 0, 50, 58
1, 584425, Note_off_c, 0, 38, 62
1, 584444, Note_off_c, 0, 50, 61
1, 584476, Note_on_c, 0, 45, 42
1, 584479, Note_on_c, 0, 57, 49
1, 584521, Note_off_c, 0, 45, 62
1, 584539, Note_off_c, 0, 57, 59
1, 584569, Note_on_c, 0, 41, 32
1, 584581, Note_on_c, 0, 53, 28
1, 584606, Note_off_c, 0, 41, 52
1, 584616, Note_off_c, 0, 53, 52
1, 584619, Note_on_c, 0, 40, 51
1, 584628, Note_on_c, 0, 52, 54
1, 584653, Note_off_c, 0, 40, 62
1, 584656, Note_off_c, 0, 52, 58
1, 584700, Note_on_c, 0, 43, 42
1, 584703, Note_on_c, 0, 55, 54
1, 584742, Note_off_c, 0, 43, 61
1, 584742, Note_off_c, 0, 55, 62
1, 584768, Note_on_c, 0, 52, 46
1, 584771, Note_on_c, 0, 40, 28
1, 584817, Note_off_c, 0, 52, 65
1, 584823, Note_off_c, 0, 40, 60
1, 584831, Note_on_c, 0, 38, 52
1, 584837, Note_on_c, 0, 50, 66
1, 584864, Note_off_c, 0, 38, 62
1, 584888, Note_off_c, 0, 50, 55
1, 584912, Note_on_c, 0, 57, 60
1, 584915, Note_on_c, 0, 45, 42
1, 584956, Note_off_c, 0, 57, 58
1, 584959, Note_off_c, 0, 45, 63
1, 584996, Note_on_c, 0, 41, 34
1, 584998, Note_on_c, 0, 53, 53
1, 585033, Note_off_c, 0, 41, 52
1, 585039, Note_off_c, 0, 53, 64
1, 585054, Note_on_c, 0, 52, 67
1, 585055, Note_on_c, 0, 40, 45
1, 585085, Note_off_c, 0, 40, 58
1, 585090, Note_off_c, 0, 52, 60
1, 585115, Note_on_c, 0, 43, 48
1, 585119, Note_on_c, 0, 55, 64
1, 585156, Note_off_c, 0, 43, 63
1, 585158, Note_off_c, 0, 55, 64
1, 585187, Note_on_c, 0, 52, 57
1, 585191, Note_on_c, 0, 40, 28
1, 585228, Note_off_c, 0, 52, 66
1, 585240, Note_off_c, 0, 40, 62
1, 585245, Note_on_c, 0, 38, 65
1, 585252, Note_on_c, 0, 50, 73
1, 585253, Control_c, 0, 67, 122
1, 585268, Control_c, 0, 67, 88
1, 585278, Note_off_c, 0, 38, 63
1, 585290, Control_c, 0, 67, 44
1, 585291, Note_off_c, 0, 50, 65
1, 585305, Control_c, 0, 67, 0
1, 585440, Note_on_c, 0, 50, 63
1, 585473, Note_off_c, 0, 50, 65
1, 585488, Note_on_c, 0, 48, 71
1, 585491, Note_on_c, 0, 57, 70
1, 585493, Note_on_c, 0, 62, 69
1, 585494, Note_on_c, 0, 36, 64
1, 585497, Control_c, 0, 64, 25
1, 585512, Control_c, 0, 64, 50
1, 585517, Note_off_c, 0, 57, 67
1, 585519, Note_off_c, 0, 48, 65
1, 585523, Note_off_c, 0, 62, 68
1, 585525, Note_off_c, 0, 36, 64
1, 585527, Control_c, 0, 64, 62
1, 585542, Control_c, 0, 64, 67
1, 585557, Control_c, 0, 64, 74
1, 585571, Control_c, 0, 64, 84
1, 585586, Control_c, 0, 64, 96
1, 585601, Control_c, 0, 64, 98
1, 585616, Control_c, 0, 64, 92
1, 585630, Control_c, 0, 64, 81
1, 585645, Control_c, 0, 64, 69
1, 585660, Control_c, 0, 64, 51
1, 585673, Note_on_c, 0, 59, 39
1, 585675, Control_c, 0, 64, 0
1, 585699, Note_on_c, 0, 57, 38
1, 585702, Note_off_c, 0, 59, 34
1, 585714, Note_on_c, 0, 69, 81
1, 585724, Note_on_c, 0, 62, 75
1, 585727, Note_on_c, 0, 47, 80
1, 585732, Note_on_c, 0, 35, 70
1, 585734, Note_off_c, 0, 57, 45
1, 585749, Control_c, 0, 64, 41
1, 585753, Note_off_c, 0, 62, 66
1, 585764, Control_c, 0, 64, 56
1, 585772, Note_off_c, 0, 69, 63
1, 585779, Control_c, 0, 64, 65
1, 585781, Note_off_c, 0, 47, 60
1, 585782, Note_off_c, 0, 35, 56
1, 585794, Control_c, 0, 64, 76
1, 585809, Control_c, 0, 64, 127
1, 585904, Note_on_c, 0, 64, 47
1, 585912, Control_c, 0, 64, 83
1, 585920, Note_on_c, 0, 62, 49
1, 585927, Control_c, 0, 64, 63
1, 585936, Note_off_c, 0, 64, 56
1, 585943, Control_c, 0, 64, 0
1, 585952, Note_off_c, 0, 62, 49
1, 585958, Note_on_c, 0, 74, 86
1, 585958, Note_on_c, 0, 46, 98
1, 585962, Note_on_c, 0, 69, 79
1, 585966, Note_on_c, 0, 71, 71
1, 585967, Note_on_c, 0, 34, 82
1, 586002, Control_c, 0, 64, 37
1, 586006, Note_off_c, 0, 71, 51
1, 586017, Control_c, 0, 64, 54
1, 586039, Control_c, 0, 64, 61
1, 586041, Note_off_c, 0, 69, 63
1, 586047, Note_off_c, 0, 74, 61
1, 586054, Control_c, 0, 64, 69
1, 586068, Control_c, 0, 64, 86
1, 586083, Control_c, 0, 64, 127
1, 586098, Note_off_c, 0, 46, 59
1, 586133, Note_off_c, 0, 34, 57
1, 586146, Note_on_c, 0, 69, 81
1, 586158, Control_c, 0, 64, 82
1, 586172, Control_c, 0, 64, 61
1, 586187, Control_c, 0, 64, 0
1, 586202, Note_off_c, 0, 69, 63
1, 586207, Note_on_c, 0, 81, 94
1, 586208, Note_on_c, 0, 74, 90
1, 586210, Note_on_c, 0, 45, 92
1, 586212, Note_on_c, 0, 33, 87
1, 586261, Control_c, 0, 64, 47
1, 586276, Control_c, 0, 64, 61
1, 586291, Control_c, 0, 64, 73
1, 586306, Control_c, 0, 64, 127
1, 586308, Note_off_c, 0, 74, 62
1, 586321, Note_off_c, 0, 33, 63
1, 586321, Note_off_c, 0, 45, 62
1, 586325, Note_off_c, 0, 81, 62
1, 586379, Note_on_c, 0, 74, 89
1, 586389, Poly_aftertouch_c, 0, 38, 127
1, 586424, Control_c, 0, 64, 83
1, 586436, Note_off_c, 0, 74, 62
1, 586439, Control_c, 0, 64, 59
1, 586444, Note_on_c, 0, 81, 93
1, 586444, Note_on_c, 0, 86, 95
1, 586446, Note_on_c, 0, 44, 94
1, 586453, Control_c, 0, 64, 0
1, 586454, Note_on_c, 0, 32, 75
1, 586462, Poly_aftertouch_c, 0, 38, 0
1, 586463, Note_on_c, 0, 42, 68
1, 586469, Note_on_c, 0, 31, 76
1, 586482, Control_c, 0, 64, 44
1, 586497, Control_c, 0, 64, 61
1, 586512, Control_c, 0, 64, 75
1, 586527, Control_c, 0, 64, 127
1, 586531, Note_off_c, 0, 42, 34
1, 586537, Note_off_c, 0, 81, 65
1, 586551, Note_off_c, 0, 86, 62
1, 586554, Note_off_c, 0, 31, 53
1, 586565, Poly_aftertouch_c, 0, 43, 0
1, 586583, Note_off_c, 0, 32, 60
1, 586590, Note_off_c, 0, 44, 62
1, 586605, Poly_aftertouch_c, 0, 38, 127
1, 586606, Note_on_c, 0, 81, 85
1, 586651, Poly_aftertouch_c, 0, 38, 0
1, 586660, Control_c, 0, 64, 68
1, 586663, Note_off_c, 0, 81, 65
1, 586664, Note_on_c, 0, 43, 97
1, 586666, Note_on_c, 0, 31, 91
1, 586668, Note_on_c, 0, 86, 97
1, 586668, Note_on_c, 0, 93, 102
1, 586675, Control_c, 0, 64, 0
1, 586719, Control_c, 0, 64, 34
1, 586735, Control_c, 0, 64, 61
1, 586750, Control_c, 0, 64, 75
1, 586765, Control_c, 0, 64, 127
1, 586769, Note_off_c, 0, 86, 62
1, 586772, Note_off_c, 0, 43, 61
1, 586784, Poly_aftertouch_c, 0, 32, 0
1, 586786, Note_off_c, 0, 93, 65
1, 586799, Note_off_c, 0, 31, 63
1, 586854, Note_on_c, 0, 86, 86
1, 586891, Control_c, 0, 64, 72
1, 586901, Note_off_c, 0, 86, 62
1, 586906, Control_c, 0, 64, 46
1, 586914, Note_on_c, 0, 42, 103
1, 586915, Note_on_c, 0, 93, 97
1, 586915, Note_on_c, 0, 98, 100
1, 586921, Control_c, 0, 64, 37
1, 586922, Note_on_c, 0, 30, 93
1, 586935, Control_c, 0, 64, 56
1, 586950, Control_c, 0, 64, 65
1, 586965, Control_c, 0, 64, 77
1, 586980, Control_c, 0, 64, 127
1, 587001, Note_off_c, 0, 93, 66
1, 587014, Note_off_c, 0, 98, 66
1, 587028, Poly_aftertouch_c, 0, 32, 127
1, 587037, Note_off_c, 0, 30, 61
1, 587040, Note_off_c, 0, 42, 61
1, 587083, Control_c, 0, 64, 106
1, 587085, Note_on_c, 0, 93, 87
1, 587096, Poly_aftertouch_c, 0, 32, 0
1, 587098, Control_c, 0, 64, 67
1, 587113, Control_c, 0, 64, 37
1, 587128, Note_off_c, 0, 93, 65
1, 587128, Control_c, 0, 64, 38
1, 587129, Note_on_c, 0, 41, 101
1, 587132, Note_on_c, 0, 29, 92
1, 587136, Note_on_c, 0, 98, 96
1, 587141, Note_on_c, 0, 105, 100
1, 587142, Control_c, 0, 64, 57
1, 587157, Control_c, 0, 64, 65
1, 587172, Control_c, 0, 64, 83
1, 587187, Control_c, 0, 64, 127
1, 587216, Note_off_c, 0, 41, 54
1, 587255, Note_off_c, 0, 29, 61
1, 587320, Control_c, 0, 64, 90
1, 587335, Control_c, 0, 64, 60
1, 587350, Control_c, 0, 64, 0
1, 587388, Note_on_c, 0, 40, 101
1, 587392, Note_on_c, 0, 28, 86
1, 587393, Note_off_c, 0, 98, 66
1, 587409, Control_c, 0, 64, 23
1, 587421, Note_off_c, 0, 28, 64
1, 587421, Note_on_c, 0, 30, 41
1, 587424, Control_c, 0, 64, 70
1, 587427, Note_off_c, 0, 105, 65
1, 587439, Control_c, 0, 64, 127
1, 587443, Note_off_c, 0, 40, 65
1, 587467, Note_off_c, 0, 30, 53
1, 587690, Note_on_c, 0, 94, 105
1, 587696, Note_on_c, 0, 106, 104
1, 587751, Note_off_c, 0, 106, 65
1, 587767, Note_off_c, 0, 94, 62
1, 587776, Note_on_c, 0, 103, 88
1, 587779, Note_on_c, 0, 91, 95
1, 587837, Note_off_c, 0, 91, 66
1, 587854, Note_on_c, 0, 100, 92
1, 587855, Note_off_c, 0, 103, 65
1, 587872, Note_on_c, 0, 88, 79
1, 587895, Note_off_c, 0, 100, 67
1, 587927, Note_on_c, 0, 97, 76
1, 587934, Note_on_c, 0, 85, 65
1, 587941, Note_off_c, 0, 88, 61
1, 587952, Note_off_c, 0, 85, 64
1, 587955, Note_on_c, 0, 86, 65
1, 587968, Note_off_c, 0, 97, 63
1, 587972, Note_off_c, 0, 86, 64
1, 587993, Note_on_c, 0, 93, 88
1, 588006, Note_on_c, 0, 81, 85
1, 588044, Note_off_c, 0, 81, 67
1, 588056, Note_off_c, 0, 93, 67
1, 588063, Note_on_c, 0, 89, 95
1, 588074, Note_on_c, 0, 77, 80
1, 588102, Note_off_c, 0, 89, 67
1, 588134, Note_on_c, 0, 74, 84
1, 588137, Note_on_c, 0, 86, 79
1, 588141, Note_on_c, 0, 88, 64
1, 588152, Note_off_c, 0, 77, 55
1, 588158, Note_off_c, 0, 88, 65
1, 588199, Note_on_c, 0, 82, 92
1, 588201, Note_on_c, 0, 70, 79
1, 588205, Note_off_c, 0, 74, 63
1, 588213, Note_off_c, 0, 86, 61
1, 588221, Note_off_c, 0, 70, 70
1, 588258, Note_off_c, 0, 82, 70
1, 588268, Note_on_c, 0, 79, 87
1, 588285, Note_on_c, 0, 67, 72
1, 588290, Note_on_c, 0, 69, 66
1, 588312, Note_off_c, 0, 67, 68
1, 588315, Note_off_c, 0, 69, 67
1, 588331, Note_off_c, 0, 79, 65
1, 588345, Note_on_c, 0, 76, 85
1, 588351, Note_on_c, 0, 64, 73
1, 588383, Note_off_c, 0, 76, 64
1, 588405, Note_on_c, 0, 73, 89
1, 588423, Note_off_c, 0, 64, 63
1, 588426, Note_on_c, 0, 62, 64
1, 588436, Note_on_c, 0, 74, 35
1, 588453, Note_off_c, 0, 73, 70
1, 588456, Note_off_c, 0, 62, 66
1, 588462, Note_off_c, 0, 74, 49
1, 588477, Note_on_c, 0, 69, 88
1, 588486, Note_on_c, 0, 57, 77
1, 588528, Note_off_c, 0, 69, 67
1, 588537, Note_off_c, 0, 57, 65
1, 588539, Note_on_c, 0, 65, 83
1, 588552, Note_on_c, 0, 53, 83
1, 588577, Note_off_c, 0, 65, 64
1, 588609, Note_on_c, 0, 62, 79
1, 588612, Note_on_c, 0, 50, 73
1, 588616, Note_on_c, 0, 64, 63
1, 588635, Note_off_c, 0, 64, 64
1, 588643, Note_off_c, 0, 53, 61
1, 588668, Note_on_c, 0, 58, 93
1, 588669, Note_on_c, 0, 46, 83
1, 588679, Poly_aftertouch_c, 0, 52, 0
1, 588684, Note_off_c, 0, 62, 63
1, 588696, Note_off_c, 0, 50, 63
1, 588710, Note_off_c, 0, 46, 66
1, 588733, Note_off_c, 0, 58, 68
1, 588739, Note_on_c, 0, 55, 85
1, 588771, Note_on_c, 0, 43, 66
1, 588775, Note_on_c, 0, 45, 58
1, 588790, Note_off_c, 0, 55, 66
1, 588802, Note_on_c, 0, 52, 80
1, 588809, Note_off_c, 0, 45, 61
1, 588815, Note_off_c, 0, 43, 63
1, 588823, Note_on_c, 0, 40, 71
1, 588863, Note_off_c, 0, 52, 55
1, 588879, Note_on_c, 0, 37, 78
1, 588912, Note_off_c, 0, 40, 61
1, 588917, Note_on_c, 0, 50, 49
1, 588920, Note_on_c, 0, 51, 39
1, 588937, Control_c, 0, 64, 121
1, 588948, Note_on_c, 0, 33, 78
1, 588952, Control_c, 0, 64, 68
1, 588953, Note_off_c, 0, 50, 65
1, 588954, Note_off_c, 0, 37, 62
1, 588954, Note_off_c, 0, 51, 63
1, 588967, Control_c, 0, 64, 0
1, 588976, Note_on_c, 0, 45, 80
1, 589011, Control_c, 0, 64, 46
1, 589033, Control_c, 0, 64, 64
1, 589037, Note_on_c, 0, 34, 74
1, 589040, Note_on_c, 0, 46, 89
1, 589046, Note_off_c, 0, 33, 60
1, 589048, Control_c, 0, 64, 77
1, 589054, Note_off_c, 0, 45, 64
1, 589063, Control_c, 0, 64, 127
1, 589104, Note_on_c, 0, 45, 72
1, 589112, Note_off_c, 0, 46, 63
1, 589118, Note_off_c, 0, 34, 61
1, 589133, Note_on_c, 0, 33, 74
1, 589161, Note_on_c, 0, 46, 78
1, 589172, Note_off_c, 0, 45, 63
1, 589187, Note_on_c, 0, 34, 61
1, 589187, Poly_aftertouch_c, 0, 41, 127
1, 589201, Note_off_c, 0, 33, 54
1, 589223, Note_on_c, 0, 45, 76
1, 589229, Note_off_c, 0, 46, 64
1, 589251, Note_off_c, 0, 34, 61
1, 589252, Note_on_c, 0, 33, 60
1, 589285, Note_on_c, 0, 46, 74
1, 589291, Note_off_c, 0, 45, 64
1, 589318, Note_on_c, 0, 34, 55
1, 589332, Note_on_c, 0, 45, 68
1, 589338, Note_off_c, 0, 46, 63
1, 589339, Note_off_c, 0, 33, 0
1, 589340, Poly_aftertouch_c, 0, 41, 0
1, 589357, Note_off_c, 0, 34, 62
1, 589359, Note_on_c, 0, 33, 42
1, 589377, Poly_aftertouch_c, 0, 41, 127
1, 589390, Note_on_c, 0, 46, 73
1, 589398, Note_off_c, 0, 45, 62
1, 589421, Note_off_c, 0, 33, 61
1, 589428, Note_on_c, 0, 34, 69
1, 589432, Note_on_c, 0, 45, 59
1, 589452, Note_off_c, 0, 46, 0
1, 589467, Note_on_c, 0, 46, 57
1, 589513, Note_off_c, 0, 34, 61
1, 589513, Poly_aftertouch_c, 0, 41, 0
1, 589531, Note_on_c, 0, 33, 92
1, 589568, Control_c, 0, 64, 72
1, 589568, Note_off_c, 0, 46, 40
1, 589583, Control_c, 0, 64, 0
1, 589686, Control_c, 0, 64, 12
1, 589701, Control_c, 0, 64, 43
1, 589716, Control_c, 0, 64, 60
1, 589730, Control_c, 0, 64, 69
1, 589745, Control_c, 0, 64, 82
1, 589760, Control_c, 0, 64, 127
1, 589934, Note_off_c, 0, 33, 64
1, 589961, Note_off_c, 0, 45, 66
1, 589961, Note_on_c, 0, 34, 14
1, 590015, Note_off_c, 0, 34, 50
1, 590021, Control_c, 0, 64, 77
1, 590035, Control_c, 0, 64, 0
1, 590447, Note_on_c, 0, 64, 43
1, 590451, Note_on_c, 0, 62, 36
1, 590472, Note_off_c, 0, 64, 56
1, 590485, Note_off_c, 0, 62, 45
1, 590513, Note_on_c, 0, 69, 60
1, 590554, Note_off_c, 0, 69, 66
1, 590614, Note_on_c, 0, 65, 55
1, 590654, Note_off_c, 0, 65, 64
1, 590670, Note_on_c, 0, 64, 62
1, 590701, Note_off_c, 0, 64, 64
1, 590745, Note_on_c, 0, 67, 48
1, 590770, Note_off_c, 0, 67, 56
1, 590787, Note_on_c, 0, 64, 61
1, 590855, Note_off_c, 0, 64, 63
1, 590872, Note_on_c, 0, 62, 65
1, 590901, Note_off_c, 0, 62, 66
1, 590948, Note_on_c, 0, 69, 59
1, 590976, Note_off_c, 0, 69, 65
1, 591018, Note_on_c, 0, 65, 55
1, 591056, Note_off_c, 0, 65, 57
1, 591094, Note_on_c, 0, 64, 67
1, 591127, Note_off_c, 0, 64, 65
1, 591183, Note_on_c, 0, 67, 51
1, 591205, Note_off_c, 0, 67, 61
1, 591250, Note_on_c, 0, 64, 52
1, 591304, Note_off_c, 0, 64, 63
1, 591321, Note_on_c, 0, 62, 66
1, 591350, Note_off_c, 0, 62, 64
1, 591421, Note_on_c, 0, 69, 47
1, 591452, Note_off_c, 0, 69, 57
1, 591490, Note_on_c, 0, 65, 51
1, 591526, Note_off_c, 0, 65, 57
1, 591560, Note_on_c, 0, 64, 66
1, 591591, Note_off_c, 0, 64, 66
1, 591661, Note_on_c, 0, 67, 42
1, 591685, Note_off_c, 0, 67, 58
1, 591717, Note_on_c, 0, 64, 44
1, 591767, Note_off_c, 0, 64, 63
1, 591786, Note_on_c, 0, 62, 67
1, 591812, Note_off_c, 0, 62, 66
1, 591871, Note_on_c, 0, 69, 56
1, 591907, Note_off_c, 0, 69, 65
1, 591948, Note_on_c, 0, 65, 51
1, 591988, Note_off_c, 0, 65, 64
1, 592001, Note_on_c, 0, 64, 63
1, 592037, Note_off_c, 0, 64, 66
1, 592089, Note_on_c, 0, 67, 59
1, 592131, Note_off_c, 0, 67, 60
1, 592161, Note_on_c, 0, 64, 28
1, 592174, Note_on_c, 0, 50, 73
1, 592213, Note_off_c, 0, 50, 65
1, 592214, Note_on_c, 0, 57, 85
1, 592221, Note_off_c, 0, 64, 63
1, 592232, Note_on_c, 0, 62, 64
1, 592236, Note_off_c, 0, 57, 72
1, 592275, Note_off_c, 0, 62, 62
1, 592322, Note_on_c, 0, 69, 63
1, 592381, Note_off_c, 0, 69, 54
1, 592418, Note_on_c, 0, 65, 52
1, 592445, Note_on_c, 0, 74, 91
1, 592461, Note_off_c, 0, 74, 74
1, 592462, Note_off_c, 0, 65, 61
1, 592477, Note_on_c, 0, 64, 63
1, 592514, Note_off_c, 0, 64, 62
1, 592541, Note_on_c, 0, 74, 4
1, 592567, Note_on_c, 0, 67, 58
1, 592571, Note_off_c, 0, 74, 31
1, 592617, Note_off_c, 0, 67, 58
1, 592659, Note_on_c, 0, 64, 48
1, 592683, Note_on_c, 0, 81, 101
1, 592696, Control_c, 0, 64, 11
1, 592703, Note_off_c, 0, 64, 65
1, 592705, Note_on_c, 0, 62, 61
1, 592711, Control_c, 0, 64, 49
1, 592726, Control_c, 0, 64, 61
1, 592740, Note_off_c, 0, 62, 64
1, 592741, Control_c, 0, 64, 75
1, 592755, Control_c, 0, 64, 127
1, 592791, Note_on_c, 0, 69, 64
1, 592865, Note_off_c, 0, 69, 60
1, 592879, Note_on_c, 0, 65, 53
1, 592924, Note_off_c, 0, 81, 40
1, 592931, Note_off_c, 0, 65, 58
1, 592943, Note_on_c, 0, 64, 64
1, 592975, Note_off_c, 0, 64, 65
1, 593021, Note_on_c, 0, 67, 65
1, 593058, Note_off_c, 0, 67, 59
1, 593086, Note_on_c, 0, 64, 53
1, 593091, Note_on_c, 0, 86, 85
1, 593133, Note_off_c, 0, 86, 68
1, 593148, Note_on_c, 0, 81, 99
1, 593149, Control_c, 0, 64, 89
1, 593151, Note_off_c, 0, 64, 62
1, 593155, Note_on_c, 0, 62, 70
1, 593164, Control_c, 0, 64, 58
1, 593172, Note_off_c, 0, 81, 69
1, 593178, Control_c, 0, 64, 0
1, 593187, Note_off_c, 0, 62, 65
1, 593249, Note_on_c, 0, 69, 60
1, 593279, Note_off_c, 0, 69, 66
1, 593321, Note_on_c, 0, 65, 54
1, 593322, Note_on_c, 0, 84, 89
1, 593363, Note_off_c, 0, 65, 64
1, 593372, Note_off_c, 0, 84, 65
1, 593377, Note_on_c, 0, 79, 86
1, 593380, Note_on_c, 0, 64, 61
1, 593398, Note_off_c, 0, 79, 69
1, 593414, Note_off_c, 0, 64, 65
1, 593467, Note_on_c, 0, 67, 57
1, 593506, Note_off_c, 0, 67, 61
1, 593538, Note_on_c, 0, 64, 48
1, 593539, Note_on_c, 0, 82, 79
1, 593583, Note_off_c, 0, 82, 67
1, 593592, Note_on_c, 0, 77, 97
1, 593592, Note_off_c, 0, 64, 63
1, 593604, Note_on_c, 0, 62, 63
1, 593616, Control_c, 0, 64, 40
1, 593631, Control_c, 0, 64, 58
1, 593633, Note_off_c, 0, 62, 65
1, 593646, Control_c, 0, 64, 72
1, 593660, Control_c, 0, 64, 99
1, 593675, Control_c, 0, 64, 127
1, 593678, Note_on_c, 0, 69, 64
1, 593750, Note_off_c, 0, 69, 59
1, 593771, Note_on_c, 0, 65, 55
1, 593781, Note_off_c, 0, 77, 60
1, 593813, Note_off_c, 0, 65, 63
1, 593827, Note_on_c, 0, 64, 65
1, 593858, Note_off_c, 0, 64, 65
1, 593908, Note_on_c, 0, 67, 66
1, 593947, Note_on_c, 0, 81, 67
1, 593956, Note_off_c, 0, 67, 57
1, 593966, Note_on_c, 0, 64, 58
1, 593992, Note_on_c, 0, 85, 73
1, 594009, Note_off_c, 0, 81, 64
1, 594021, Note_on_c, 0, 89, 83
1, 594030, Note_on_c, 0, 93, 94
1, 594033, Note_off_c, 0, 85, 67
1, 594037, Note_off_c, 0, 64, 61
1, 594042, Note_on_c, 0, 62, 73
1, 594046, Control_c, 0, 64, 103
1, 594047, Note_off_c, 0, 89, 66
1, 594061, Control_c, 0, 64, 61
1, 594066, Note_off_c, 0, 93, 67
1, 594070, Note_off_c, 0, 62, 66
1, 594075, Control_c, 0, 64, 0
1, 594119, Note_on_c, 0, 69, 67
1, 594161, Note_off_c, 0, 69, 66
1, 594212, Note_on_c, 0, 77, 83
1, 594213, Note_on_c, 0, 65, 47
1, 594248, Note_off_c, 0, 77, 67
1, 594256, Note_off_c, 0, 65, 64
1, 594280, Note_on_c, 0, 76, 92
1, 594282, Note_on_c, 0, 64, 59
1, 594300, Note_off_c, 0, 76, 71
1, 594322, Note_off_c, 0, 64, 63
1, 594374, Note_on_c, 0, 67, 59
1, 594415, Note_off_c, 0, 67, 58
1, 594436, Note_on_c, 0, 74, 79
1, 594456, Note_on_c, 0, 64, 55
1, 594495, Note_on_c, 0, 73, 91
1, 594495, Note_off_c, 0, 74, 67
1, 594507, Note_off_c, 0, 64, 62
1, 594517, Note_on_c, 0, 62, 60
1, 594523, Note_off_c, 0, 73, 65
1, 594549, Note_off_c, 0, 62, 64
1, 594598, Note_on_c, 0, 69, 63
1, 594641, Note_off_c, 0, 69, 59
1, 594653, Note_on_c, 0, 74, 82
1, 594685, Note_on_c, 0, 65, 54
1, 594715, Note_on_c, 0, 76, 93
1, 594725, Note_off_c, 0, 65, 64
1, 594728, Note_off_c, 0, 74, 60
1, 594734, Note_on_c, 0, 64, 59
1, 594746, Note_off_c, 0, 76, 66
1, 594774, Note_off_c, 0, 64, 63
1, 594816, Note_on_c, 0, 67, 61
1, 594853, Note_off_c, 0, 67, 61
1, 594877, Note_on_c, 0, 77, 91
1, 594883, Note_on_c, 0, 64, 60
1, 594933, Note_on_c, 0, 76, 95
1, 594940, Note_off_c, 0, 77, 64
1, 594942, Note_off_c, 0, 64, 61
1, 594954, Note_on_c, 0, 62, 59
1, 594966, Note_off_c, 0, 76, 68
1, 594987, Note_off_c, 0, 62, 64
1, 595039, Note_on_c, 0, 69, 65
1, 595082, Note_off_c, 0, 69, 63
1, 595121, Note_on_c, 0, 74, 85
1, 595124, Note_on_c, 0, 65, 53
1, 595166, Note_off_c, 0, 65, 64
1, 595173, Note_on_c, 0, 64, 66
1, 595178, Note_off_c, 0, 74, 60
1, 595186, Note_on_c, 0, 73, 93
1, 595217, Note_off_c, 0, 73, 67
1, 595220, Note_off_c, 0, 64, 63
1, 595274, Note_on_c, 0, 67, 53
1, 595302, Note_off_c, 0, 67, 58
1, 595329, Note_on_c, 0, 64, 56
1, 595363, Note_on_c, 0, 79, 73
1, 595397, Note_off_c, 0, 64, 62
1, 595413, Note_on_c, 0, 63, 66
1, 595413, Note_on_c, 0, 72, 84
1, 595415, Note_off_c, 0, 79, 61
1, 595432, Note_off_c, 0, 72, 72
1, 595449, Note_off_c, 0, 63, 66
1, 595501, Note_on_c, 0, 69, 69
1, 595533, Note_off_c, 0, 69, 67
1, 595583, Note_on_c, 0, 65, 54
1, 595626, Note_off_c, 0, 65, 62
1, 595647, Note_on_c, 0, 60, 92
1, 595652, Note_on_c, 0, 64, 64
1, 595666, Note_off_c, 0, 60, 73
1, 595689, Note_off_c, 0, 64, 66
1, 595745, Note_on_c, 0, 67, 55
1, 595795, Note_off_c, 0, 67, 60
1, 595823, Note_on_c, 0, 64, 49
1, 595890, Note_on_c, 0, 53, 100
1, 595891, Control_c, 0, 64, 52
1, 595899, Note_on_c, 0, 65, 70
1, 595906, Control_c, 0, 64, 70
1, 595913, Note_off_c, 0, 53, 71
1, 595920, Note_off_c, 0, 64, 61
1, 595920, Control_c, 0, 64, 98
1, 595935, Control_c, 0, 64, 127
1, 595957, Note_off_c, 0, 65, 61
1, 595983, Note_on_c, 0, 72, 70
1, 596058, Note_off_c, 0, 72, 54
1, 596072, Note_on_c, 0, 68, 67
1, 596128, Control_c, 0, 64, 97
1, 596143, Control_c, 0, 64, 65
1, 596144, Note_on_c, 0, 80, 85
1, 596146, Note_on_c, 0, 84, 82
1, 596150, Note_on_c, 0, 67, 64
1, 596158, Control_c, 0, 64, 0
1, 596164, Note_off_c, 0, 68, 54
1, 596203, Note_off_c, 0, 80, 64
1, 596204, Note_off_c, 0, 67, 61
1, 596206, Note_off_c, 0, 84, 63
1, 596214, Note_on_c, 0, 79, 87
1, 596237, Note_on_c, 0, 70, 69
1, 596250, Note_off_c, 0, 79, 67
1, 596279, Note_off_c, 0, 70, 64
1, 596287, Note_on_c, 0, 84, 68
1, 596291, Note_on_c, 0, 80, 79
1, 596313, Note_off_c, 0, 80, 72
1, 596314, Note_off_c, 0, 84, 68
1, 596318, Note_on_c, 0, 67, 62
1, 596361, Note_on_c, 0, 77, 100
1, 596365, Note_on_c, 0, 80, 86
1, 596367, Note_on_c, 0, 84, 90
1, 596376, Note_on_c, 0, 85, 70
1, 596376, Note_on_c, 0, 65, 78
1, 596377, Note_off_c, 0, 67, 56
1, 596381, Control_c, 0, 64, 43
1, 596394, Note_off_c, 0, 85, 40
1, 596395, Control_c, 0, 64, 61
1, 596408, Note_off_c, 0, 77, 63
1, 596410, Control_c, 0, 64, 73
1, 596418, Note_off_c, 0, 84, 66
1, 596421, Note_off_c, 0, 80, 65
1, 596425, Control_c, 0, 64, 97
1, 596440, Note_off_c, 0, 65, 59
1, 596440, Control_c, 0, 64, 127
1, 596464, Note_on_c, 0, 72, 71
1, 596544, Note_off_c, 0, 72, 62
1, 596564, Note_on_c, 0, 68, 67
1, 596595, Control_c, 0, 64, 91
1, 596610, Note_on_c, 0, 89, 89
1, 596610, Control_c, 0, 64, 67
1, 596621, Note_on_c, 0, 84, 80
1, 596625, Control_c, 0, 64, 9
1, 596635, Note_on_c, 0, 67, 71
1, 596637, Note_off_c, 0, 68, 63
1, 596640, Control_c, 0, 64, 0
1, 596643, Note_off_c, 0, 84, 70
1, 596680, Note_on_c, 0, 82, 85
1, 596680, Note_off_c, 0, 67, 61
1, 596684, Note_off_c, 0, 89, 44
1, 596719, Note_on_c, 0, 70, 72
1, 596720, Note_off_c, 0, 82, 64
1, 596755, Note_on_c, 0, 84, 82
1, 596759, Note_off_c, 0, 70, 65
1, 596767, Note_on_c, 0, 89, 64
1, 596785, Note_off_c, 0, 89, 64
1, 596788, Note_on_c, 0, 67, 58
1, 596789, Note_off_c, 0, 84, 66
1, 596831, Note_on_c, 0, 89, 93
1, 596833, Note_on_c, 0, 84, 80
1, 596836, Note_on_c, 0, 80, 91
1, 596838, Note_on_c, 0, 65, 81
1, 596841, Note_off_c, 0, 67, 61
1, 596847, Control_c, 0, 64, 28
1, 596862, Note_off_c, 0, 84, 63
1, 596862, Control_c, 0, 64, 48
1, 596865, Note_off_c, 0, 89, 66
1, 596877, Control_c, 0, 64, 64
1, 596884, Note_off_c, 0, 80, 64
1, 596892, Control_c, 0, 64, 81
1, 596898, Note_off_c, 0, 65, 60
1, 596907, Control_c, 0, 64, 127
1, 596920, Note_on_c, 0, 72, 76
1, 596987, Note_off_c, 0, 72, 55
1, 597008, Note_on_c, 0, 68, 66
1, 597054, Control_c, 0, 64, 97
1, 597068, Control_c, 0, 64, 72
1, 597074, Note_on_c, 0, 76, 91
1, 597080, Note_on_c, 0, 67, 70
1, 597083, Control_c, 0, 64, 47
1, 597084, Note_off_c, 0, 68, 62
1, 597098, Control_c, 0, 64, 0
1, 597107, Note_off_c, 0, 76, 66
1, 597125, Note_off_c, 0, 67, 61
1, 597160, Note_on_c, 0, 70, 74
1, 597207, Note_off_c, 0, 70, 61
1, 597248, Note_on_c, 0, 67, 57
1, 597310, Note_off_c, 0, 67, 60
1, 597311, Note_on_c, 0, 65, 73
1, 597311, Note_on_c, 0, 84, 101
1, 597314, Control_c, 0, 64, 27
1, 597329, Control_c, 0, 64, 53
1, 597339, Note_off_c, 0, 84, 69
1, 597343, Control_c, 0, 64, 65
1, 597357, Note_off_c, 0, 65, 55
1, 597358, Control_c, 0, 64, 85
1, 597373, Control_c, 0, 64, 127
1, 597385, Note_on_c, 0, 72, 74
1, 597449, Note_off_c, 0, 72, 50
1, 597481, Note_on_c, 0, 68, 63
1, 597535, Note_on_c, 0, 55, 69
1, 597551, Note_on_c, 0, 67, 64
1, 597557, Note_off_c, 0, 68, 59
1, 597585, Note_on_c, 0, 56, 79
1, 597588, Note_off_c, 0, 55, 64
1, 597595, Control_c, 0, 64, 77
1, 597608, Note_off_c, 0, 67, 61
1, 597610, Control_c, 0, 64, 58
1, 597625, Note_on_c, 0, 70, 69
1, 597625, Control_c, 0, 64, 0
1, 597634, Note_on_c, 0, 58, 68
1, 597665, Note_off_c, 0, 56, 64
1, 597673, Note_off_c, 0, 70, 61
1, 597692, Note_on_c, 0, 53, 77
1, 597696, Note_off_c, 0, 58, 64
1, 597712, Note_on_c, 0, 67, 41
1, 597726, Note_off_c, 0, 53, 67
1, 597749, Note_on_c, 0, 60, 87
1, 597758, Note_off_c, 0, 67, 62
1, 597758, Control_c, 0, 64, 30
1, 597760, Note_on_c, 0, 65, 67
1, 597768, Note_off_c, 0, 60, 73
1, 597773, Control_c, 0, 64, 58
1, 597788, Control_c, 0, 64, 69
1, 597803, Control_c, 0, 64, 86
1, 597817, Control_c, 0, 64, 127
1, 597822, Note_off_c, 0, 65, 63
1, 597859, Note_on_c, 0, 72, 65
1, 597914, Note_on_c, 0, 89, 93
1, 597933, Note_on_c, 0, 68, 68
1, 597937, Note_off_c, 0, 72, 58
1, 597937, Control_c, 0, 64, 104
1, 597952, Control_c, 0, 64, 73
1, 597960, Note_off_c, 0, 89, 63
1, 597966, Control_c, 0, 64, 27
1, 597981, Control_c, 0, 64, 0
1, 597989, Note_on_c, 0, 84, 66
1, 598000, Note_on_c, 0, 67, 61
1, 598006, Note_off_c, 0, 84, 41
1, 598022, Note_off_c, 0, 68, 61
1, 598054, Note_off_c, 0, 67, 62
1, 598087, Note_on_c, 0, 70, 67
1, 598131, Note_on_c, 0, 77, 78
1, 598159, Note_on_c, 0, 69, 66
1, 598167, Note_off_c, 0, 77, 62
1, 598197, Note_on_c, 0, 82, 81
1, 598202, Note_off_c, 0, 70, 0
1, 598217, Note_off_c, 0, 69, 61
1, 598218, Note_off_c, 0, 82, 71
1, 598220, Note_on_c, 0, 70, 43
1, 598266, Note_off_c, 0, 70, 65
1, 598300, Note_on_c, 0, 74, 63
1, 598339, Note_on_c, 0, 81, 77
1, 598357, Note_off_c, 0, 74, 60
1, 598368, Note_on_c, 0, 70, 66
1, 598400, Note_on_c, 0, 82, 84
1, 598401, Note_off_c, 0, 81, 65
1, 598419, Note_off_c, 0, 82, 73
1, 598422, Note_off_c, 0, 70, 62
1, 598425, Note_on_c, 0, 66, 68
1, 598451, Note_off_c, 0, 66, 66
1, 598514, Note_on_c, 0, 65, 55
1, 598547, Note_off_c, 0, 65, 64
1, 598551, Note_on_c, 0, 86, 70
1, 598561, Note_on_c, 0, 62, 63
1, 598563, Note_on_c, 0, 88, 52
1, 598586, Note_off_c, 0, 88, 56
1, 598594, Note_off_c, 0, 86, 65
1, 598609, Note_on_c, 0, 89, 86
1, 598610, Note_off_c, 0, 62, 57
1, 598630, Note_off_c, 0, 89, 68
1, 598636, Note_on_c, 0, 63, 74
1, 598701, Note_off_c, 0, 63, 59
1, 598723, Note_on_c, 0, 62, 62
1, 598780, Note_on_c, 0, 88, 77
1, 598789, Note_off_c, 0, 62, 60
1, 598794, Note_on_c, 0, 61, 65
1, 598819, Note_off_c, 0, 88, 66
1, 598832, Note_off_c, 0, 61, 64
1, 598844, Note_on_c, 0, 91, 77
1, 598854, Note_on_c, 0, 60, 71
1, 598868, Note_off_c, 0, 91, 70
1, 598909, Note_off_c, 0, 60, 53
1, 598949, Note_on_c, 0, 59, 56
1, 598987, Note_on_c, 0, 92, 73
1, 599002, Note_off_c, 0, 59, 60
1, 599010, Note_on_c, 0, 58, 61
1, 599018, Note_off_c, 0, 92, 66
1, 599047, Note_off_c, 0, 58, 64
1, 599060, Note_on_c, 0, 93, 83
1, 599089, Note_on_c, 0, 57, 63
1, 599232, Note_off_c, 0, 93, 53
1, 599243, Note_on_c, 0, 97, 57
1, 599245, Note_off_c, 0, 57, 37
1, 599256, Note_on_c, 0, 52, 39
1, 599271, Control_c, 0, 64, 13
1, 599286, Control_c, 0, 64, 26
1, 599301, Control_c, 0, 64, 38
1, 599306, Note_off_c, 0, 97, 63
1, 599312, Note_off_c, 0, 52, 60
1, 599315, Control_c, 0, 64, 46
1, 599318, Note_on_c, 0, 100, 67
1, 599330, Control_c, 0, 64, 52
1, 599333, Note_on_c, 0, 49, 47
1, 599339, Note_on_c, 0, 104, 83
1, 599345, Note_on_c, 0, 105, 81
1, 599345, Control_c, 0, 64, 57
1, 599353, Note_off_c, 0, 100, 67
1, 599360, Control_c, 0, 64, 62
1, 599365, Note_on_c, 0, 45, 51
1, 599369, Note_off_c, 0, 105, 69
1, 599371, Note_off_c, 0, 104, 66
1, 599375, Note_off_c, 0, 49, 65
1, 599375, Control_c, 0, 64, 66
1, 599390, Control_c, 0, 64, 72
1, 599394, Note_off_c, 0, 45, 62
1, 599405, Control_c, 0, 64, 90
1, 599420, Control_c, 0, 64, 127
1, 599683, Note_on_c, 0, 50, 82
1, 599709, Control_c, 0, 64, 84
1, 599712, Note_off_c, 0, 50, 68
1, 599720, Note_on_c, 0, 62, 67
1, 599721, Note_on_c, 0, 57, 85
1, 599724, Control_c, 0, 64, 63
1, 599739, Control_c, 0, 64, 0
1, 599743, Note_off_c, 0, 57, 71
1, 599786, Note_off_c, 0, 62, 62
1, 599830, Note_on_c, 0, 69, 62
1, 599888, Note_off_c, 0, 69, 57
1, 599917, Note_on_c, 0, 65, 59
1, 599961, Note_on_c, 0, 74, 93
1, 599975, Note_off_c, 0, 65, 58
1, 599977, Note_off_c, 0, 74, 73
1, 599990, Note_on_c, 0, 64, 62
1, 600035, Note_off_c, 0, 64, 60
1, 600076, Note_on_c, 0, 67, 64
1, 600119, Note_off_c, 0, 67, 62
1, 600163, Note_on_c, 0, 64, 46
1, 600189, Note_on_c, 0, 81, 102
1, 600204, Note_on_c, 0, 62, 71
1, 600210, Note_off_c, 0, 64, 65
1, 600213, Control_c, 0, 64, 50
1, 600228, Control_c, 0, 64, 67
1, 600243, Control_c, 0, 64, 81
1, 600245, Note_off_c, 0, 62, 60
1, 600266, Control_c, 0, 64, 127
1, 600293, Note_on_c, 0, 69, 67
1, 600367, Note_off_c, 0, 69, 60
1, 600386, Note_on_c, 0, 65, 60
1, 600432, Note_off_c, 0, 81, 57
1, 600439, Note_on_c, 0, 82, 38
1, 600443, Note_on_c, 0, 64, 66
1, 600451, Note_off_c, 0, 65, 61
1, 600468, Note_off_c, 0, 82, 49
1, 600482, Note_off_c, 0, 64, 61
1, 600520, Note_on_c, 0, 67, 65
1, 600568, Note_off_c, 0, 67, 58
1, 600589, Note_on_c, 0, 86, 92
1, 600591, Note_on_c, 0, 64, 58
1, 600643, Note_off_c, 0, 86, 68
1, 600650, Note_on_c, 0, 62, 71
1, 600651, Control_c, 0, 64, 118
1, 600652, Note_on_c, 0, 81, 88
1, 600657, Note_off_c, 0, 64, 62
1, 600666, Control_c, 0, 64, 69
1, 600671, Note_off_c, 0, 81, 72
1, 600681, Control_c, 0, 64, 0
1, 600682, Note_off_c, 0, 62, 63
1, 600735, Note_on_c, 0, 69, 65
1, 600779, Note_off_c, 0, 69, 64
1, 600819, Note_on_c, 0, 65, 58
1, 600824, Note_on_c, 0, 84, 89
1, 600871, Note_off_c, 0, 65, 59
1, 600874, Note_on_c, 0, 64, 64
1, 600874, Note_on_c, 0, 79, 90
1, 600883, Note_off_c, 0, 84, 62
1, 600907, Note_off_c, 0, 79, 69
1, 600913, Note_off_c, 0, 64, 62
1, 600953, Note_on_c, 0, 67, 69
1, 601018, Note_off_c, 0, 67, 60
1, 601034, Note_on_c, 0, 64, 56
1, 601045, Note_on_c, 0, 82, 83
1, 601089, Note_off_c, 0, 82, 67
1, 601095, Note_on_c, 0, 77, 100
1, 601096, Note_off_c, 0, 64, 63
1, 601104, Note_on_c, 0, 62, 70
1, 601119, Control_c, 0, 64, 29
1, 601134, Control_c, 0, 64, 56
1, 601136, Note_off_c, 0, 62, 65
1, 601149, Control_c, 0, 64, 72
1, 601163, Control_c, 0, 64, 90
1, 601178, Control_c, 0, 64, 127
1, 601183, Note_on_c, 0, 69, 62
1, 601254, Note_off_c, 0, 69, 60
1, 601268, Note_on_c, 0, 65, 60
1, 601280, Note_off_c, 0, 77, 60
1, 601323, Note_off_c, 0, 65, 60
1, 601328, Note_on_c, 0, 64, 67
1, 601361, Note_off_c, 0, 64, 64
1, 601406, Note_on_c, 0, 67, 64
1, 601436, Note_on_c, 0, 81, 72
1, 601446, Note_off_c, 0, 67, 58
1, 601472, Note_on_c, 0, 64, 57
1, 601476, Note_on_c, 0, 85, 74
1, 601496, Note_off_c, 0, 81, 62
1, 601503, Note_off_c, 0, 85, 68
1, 601510, Note_on_c, 0, 89, 83
1, 601520, Note_on_c, 0, 86, 48
1, 601525, Note_on_c, 0, 93, 95
1, 601535, Note_off_c, 0, 89, 64
1, 601536, Note_on_c, 0, 62, 74
1, 601536, Note_off_c, 0, 64, 62
1, 601542, Note_off_c, 0, 86, 59
1, 601548, Control_c, 0, 64, 74
1, 601557, Note_off_c, 0, 93, 69
1, 601561, Note_off_c, 0, 62, 68
1, 601563, Control_c, 0, 64, 0
1, 601614, Note_on_c, 0, 69, 67
1, 601662, Note_off_c, 0, 69, 62
1, 601704, Note_on_c, 0, 77, 83
1, 601712, Note_on_c, 0, 65, 54
1, 601748, Note_off_c, 0, 77, 66
1, 601754, Note_off_c, 0, 65, 62
1, 601776, Note_on_c, 0, 76, 93
1, 601779, Note_on_c, 0, 64, 56
1, 601802, Note_off_c, 0, 76, 65
1, 601817, Note_off_c, 0, 64, 64
1, 601861, Note_on_c, 0, 67, 60
1, 601904, Note_off_c, 0, 67, 59
1, 601938, Note_on_c, 0, 74, 83
1, 601941, Note_on_c, 0, 64, 55
1, 601999, Note_on_c, 0, 73, 89
1, 602001, Note_off_c, 0, 74, 67
1, 602006, Note_off_c, 0, 64, 61
1, 602013, Note_on_c, 0, 62, 58
1, 602028, Note_off_c, 0, 73, 65
1, 602048, Note_off_c, 0, 62, 63
1, 602098, Note_on_c, 0, 69, 64
1, 602138, Note_off_c, 0, 69, 61
1, 602167, Note_on_c, 0, 74, 76
1, 602183, Note_on_c, 0, 65, 53
1, 602225, Note_off_c, 0, 65, 63
1, 602228, Note_on_c, 0, 76, 90
1, 602232, Note_off_c, 0, 74, 60
1, 602240, Note_on_c, 0, 64, 62
1, 602253, Note_off_c, 0, 76, 66
1, 602281, Note_off_c, 0, 64, 62
1, 602320, Note_on_c, 0, 67, 67
1, 602377, Note_off_c, 0, 67, 56
1, 602392, Note_on_c, 0, 77, 88
1, 602400, Note_on_c, 0, 64, 58
1, 602452, Note_on_c, 0, 76, 96
1, 602456, Note_off_c, 0, 64, 62
1, 602463, Note_off_c, 0, 77, 64
1, 602464, Note_on_c, 0, 62, 66
1, 602486, Note_off_c, 0, 76, 69
1, 602514, Note_off_c, 0, 62, 62
1, 602555, Note_on_c, 0, 69, 62
1, 602600, Note_off_c, 0, 69, 64
1, 602632, Note_on_c, 0, 74, 88
1, 602633, Note_on_c, 0, 65, 60
1, 602684, Note_off_c, 0, 65, 62
1, 602693, Note_on_c, 0, 64, 65
1, 602696, Note_on_c, 0, 73, 95
1, 602701, Note_off_c, 0, 74, 61
1, 602730, Note_off_c, 0, 73, 67
1, 602741, Note_off_c, 0, 64, 61
1, 602794, Note_on_c, 0, 67, 61
1, 602837, Note_off_c, 0, 67, 60
1, 602861, Note_on_c, 0, 64, 58
1, 602877, Note_on_c, 0, 79, 77
1, 602934, Note_off_c, 0, 64, 63
1, 602935, Note_on_c, 0, 72, 90
1, 602939, Note_on_c, 0, 63, 67
1, 602946, Note_off_c, 0, 79, 64
1, 602961, Note_off_c, 0, 72, 66
1, 602982, Note_off_c, 0, 63, 64
1, 603029, Note_on_c, 0, 69, 69
1, 603069, Note_off_c, 0, 69, 65
1, 603096, Note_on_c, 0, 65, 59
1, 603156, Note_off_c, 0, 65, 58
1, 603167, Note_on_c, 0, 60, 91
1, 603170, Note_on_c, 0, 64, 66
1, 603185, Note_off_c, 0, 60, 73
1, 603208, Note_off_c, 0, 64, 63
1, 603259, Note_on_c, 0, 67, 61
1, 603318, Note_off_c, 0, 67, 56
1, 603334, Note_on_c, 0, 64, 58
1, 603394, Control_c, 0, 64, 12
1, 603400, Note_on_c, 0, 53, 103
1, 603409, Control_c, 0, 64, 48
1, 603411, Note_on_c, 0, 65, 74
1, 603423, Note_off_c, 0, 53, 70
1, 603424, Control_c, 0, 64, 66
1, 603433, Note_off_c, 0, 64, 61
1, 603438, Control_c, 0, 64, 86
1, 603453, Control_c, 0, 64, 127
1, 603469, Note_off_c, 0, 65, 60
1, 603486, Note_on_c, 0, 72, 72
1, 603565, Note_off_c, 0, 72, 58
1, 603580, Note_on_c, 0, 68, 68
1, 603647, Control_c, 0, 64, 89
1, 603648, Note_on_c, 0, 84, 86
1, 603649, Note_on_c, 0, 80, 85
1, 603651, Note_on_c, 0, 67, 68
1, 603658, Note_off_c, 0, 68, 60
1, 603661, Control_c, 0, 64, 58
1, 603676, Control_c, 0, 64, 0
1, 603700, Note_off_c, 0, 80, 62
1, 603711, Note_off_c, 0, 67, 61
1, 603713, Note_off_c, 0, 84, 60
1, 603722, Note_on_c, 0, 79, 88
1, 603732, Note_on_c, 0, 70, 78
1, 603760, Note_off_c, 0, 79, 66
1, 603783, Note_off_c, 0, 70, 63
1, 603801, Note_on_c, 0, 80, 80
1, 603816, Note_on_c, 0, 84, 42
1, 603821, Note_on_c, 0, 67, 61
1, 603822, Note_off_c, 0, 80, 71
1, 603843, Note_off_c, 0, 84, 36
1, 603873, Note_on_c, 0, 84, 87
1, 603875, Note_on_c, 0, 77, 94
1, 603875, Note_on_c, 0, 80, 88
1, 603876, Note_on_c, 0, 65, 78
1, 603878, Note_off_c, 0, 67, 60
1, 603885, Control_c, 0, 64, 15
1, 603900, Control_c, 0, 64, 43
1, 603915, Control_c, 0, 64, 56
1, 603918, Note_off_c, 0, 77, 60
1, 603926, Note_off_c, 0, 84, 65
1, 603928, Note_off_c, 0, 80, 64
1, 603929, Control_c, 0, 64, 69
1, 603942, Note_off_c, 0, 65, 57
1, 603944, Control_c, 0, 64, 82
1, 603959, Control_c, 0, 64, 127
1, 603960, Note_on_c, 0, 72, 76
1, 604046, Note_off_c, 0, 72, 60
1, 604061, Note_on_c, 0, 68, 65
1, 604100, Control_c, 0, 64, 102
1, 604115, Control_c, 0, 64, 75
1, 604120, Note_on_c, 0, 89, 89
1, 604125, Note_on_c, 0, 84, 82
1, 604129, Control_c, 0, 64, 51
1, 604138, Note_on_c, 0, 67, 69
1, 604140, Note_off_c, 0, 68, 64
1, 604144, Control_c, 0, 64, 0
1, 604157, Note_off_c, 0, 84, 61
1, 604183, Note_off_c, 0, 67, 63
1, 604199, Note_on_c, 0, 82, 84
1, 604199, Note_off_c, 0, 89, 51
1, 604216, Note_on_c, 0, 70, 75
1, 604234, Note_off_c, 0, 82, 64
1, 604264, Note_off_c, 0, 70, 62
1, 604272, Note_on_c, 0, 84, 79
1, 604279, Note_on_c, 0, 89, 67
1, 604293, Note_on_c, 0, 67, 65
1, 604300, Note_off_c, 0, 89, 65
1, 604305, Note_off_c, 0, 84, 61
1, 604352, Note_on_c, 0, 89, 99
1, 604354, Note_on_c, 0, 80, 89
1, 604355, Note_on_c, 0, 84, 84
1, 604356, Note_on_c, 0, 65, 81
1, 604361, Note_off_c, 0, 67, 60
1, 604367, Control_c, 0, 64, 16
1, 604382, Control_c, 0, 64, 43
1, 604387, Note_off_c, 0, 89, 67
1, 604395, Note_off_c, 0, 84, 65
1, 604397, Control_c, 0, 64, 56
1, 604411, Control_c, 0, 64, 65
1, 604412, Note_off_c, 0, 65, 60
1, 604413, Note_off_c, 0, 80, 64
1, 604426, Control_c, 0, 64, 76
1, 604439, Note_on_c, 0, 72, 75
1, 604441, Control_c, 0, 64, 109
1, 604456, Control_c, 0, 64, 127
1, 604501, Note_off_c, 0, 72, 55
1, 604529, Note_on_c, 0, 68, 66
1, 604589, Control_c, 0, 64, 99
1, 604600, Note_on_c, 0, 76, 96
1, 604603, Note_off_c, 0, 68, 59
1, 604603, Control_c, 0, 64, 71
1, 604604, Note_on_c, 0, 67, 72
1, 604618, Control_c, 0, 64, 44
1, 604633, Control_c, 0, 64, 0
1, 604637, Note_off_c, 0, 76, 65
1, 604648, Note_on_c, 0, 74, 26
1, 604649, Note_off_c, 0, 74, 127
1, 604654, Note_off_c, 0, 67, 61
1, 604682, Note_on_c, 0, 70, 76
1, 604740, Note_off_c, 0, 70, 62
1, 604776, Note_on_c, 0, 67, 59
1, 604838, Note_on_c, 0, 84, 101
1, 604839, Note_on_c, 0, 65, 76
1, 604839, Note_off_c, 0, 67, 57
1, 604848, Control_c, 0, 64, 37
1, 604863, Control_c, 0, 64, 59
1, 604873, Note_off_c, 0, 84, 68
1, 604878, Control_c, 0, 64, 69
1, 604893, Control_c, 0, 64, 91
1, 604904, Note_off_c, 0, 65, 40
1, 604905, Note_on_c, 0, 72, 77
1, 604907, Control_c, 0, 64, 127
1, 604985, Note_off_c, 0, 72, 46
1, 605009, Note_on_c, 0, 68, 64
1, 605073, Note_on_c, 0, 55, 74
1, 605095, Note_on_c, 0, 67, 63
1, 605096, Note_off_c, 0, 68, 59
1, 605116, Control_c, 0, 64, 81
1, 605125, Note_on_c, 0, 56, 81
1, 605129, Note_off_c, 0, 55, 65
1, 605131, Control_c, 0, 64, 60
1, 605146, Control_c, 0, 64, 0
1, 605155, Note_off_c, 0, 67, 61
1, 605170, Note_on_c, 0, 70, 69
1, 605176, Note_on_c, 0, 58, 71
1, 605206, Note_off_c, 0, 56, 63
1, 605226, Note_off_c, 0, 70, 60
1, 605240, Note_off_c, 0, 58, 64
1, 605243, Note_on_c, 0, 53, 79
1, 605261, Note_on_c, 0, 67, 45
1, 605284, Note_off_c, 0, 53, 64
1, 605296, Note_on_c, 0, 60, 84
1, 605308, Note_on_c, 0, 65, 67
1, 605316, Note_off_c, 0, 60, 73
1, 605318, Note_off_c, 0, 67, 57
1, 605322, Control_c, 0, 64, 54
1, 605337, Control_c, 0, 64, 71
1, 605352, Control_c, 0, 64, 94
1, 605367, Control_c, 0, 64, 127
1, 605372, Note_off_c, 0, 65, 62
1, 605405, Note_on_c, 0, 72, 61
1, 605460, Note_on_c, 0, 89, 89
1, 605481, Note_off_c, 0, 72, 57
1, 605482, Note_on_c, 0, 68, 64
1, 605522, Control_c, 0, 64, 85
1, 605528, Note_off_c, 0, 89, 61
1, 605534, Note_on_c, 0, 84, 79
1, 605536, Control_c, 0, 64, 60
1, 605549, Note_on_c, 0, 67, 64
1, 605551, Control_c, 0, 64, 0
1, 605555, Note_off_c, 0, 84, 71
1, 605571, Note_off_c, 0, 68, 61
1, 605607, Note_off_c, 0, 67, 60
1, 605626, Note_on_c, 0, 70, 68
1, 605683, Note_off_c, 0, 70, 60
1, 605691, Note_on_c, 0, 77, 80
1, 605697, Note_on_c, 0, 69, 68
1, 605727, Note_off_c, 0, 77, 62
1, 605759, Note_on_c, 0, 82, 83
1, 605765, Note_off_c, 0, 69, 64
1, 605769, Note_on_c, 0, 70, 68
1, 605782, Note_off_c, 0, 82, 66
1, 605809, Note_off_c, 0, 70, 66
1, 605848, Note_on_c, 0, 74, 67
1, 605913, Note_on_c, 0, 81, 74
1, 605916, Note_off_c, 0, 74, 61
1, 605931, Note_on_c, 0, 70, 58
1, 605972, Note_on_c, 0, 82, 85
1, 605976, Note_off_c, 0, 70, 65
1, 605976, Note_off_c, 0, 81, 67
1, 605978, Note_on_c, 0, 66, 63
1, 605993, Note_off_c, 0, 82, 70
1, 606011, Note_off_c, 0, 66, 67
1, 606068, Note_on_c, 0, 65, 61
1, 606111, Note_off_c, 0, 65, 63
1, 606124, Note_on_c, 0, 62, 64
1, 606124, Note_on_c, 0, 86, 80
1, 606171, Note_off_c, 0, 62, 60
1, 606172, Note_off_c, 0, 86, 68
1, 606181, Note_on_c, 0, 89, 86
1, 606199, Note_on_c, 0, 63, 77
1, 606204, Note_off_c, 0, 89, 67
1, 606244, Note_off_c, 0, 63, 54
1, 606285, Note_on_c, 0, 62, 64
1, 606358, Note_off_c, 0, 62, 62
1, 606359, Note_on_c, 0, 88, 79
1, 606363, Note_on_c, 0, 61, 64
1, 606402, Note_off_c, 0, 61, 64
1, 606403, Note_off_c, 0, 88, 66
1, 606424, Note_on_c, 0, 91, 76
1, 606431, Note_on_c, 0, 60, 68
1, 606450, Note_off_c, 0, 91, 69
1, 606485, Note_off_c, 0, 60, 54
1, 606538, Note_on_c, 0, 59, 52
1, 606575, Note_on_c, 0, 92, 71
1, 606576, Note_off_c, 0, 59, 64
1, 606594, Note_on_c, 0, 58, 51
1, 606601, Note_off_c, 0, 92, 68
1, 606619, Note_off_c, 0, 58, 59
1, 606628, Note_on_c, 0, 93, 83
1, 606651, Note_on_c, 0, 57, 66
1, 606806, Note_off_c, 0, 93, 63
1, 606815, Note_off_c, 0, 57, 55
1, 606818, Note_on_c, 0, 97, 57
1, 606844, Note_on_c, 0, 52, 28
1, 606858, Note_on_c, 0, 100, 72
1, 606866, Note_on_c, 0, 105, 84
1, 606867, Note_on_c, 0, 104, 82
1, 606872, Note_off_c, 0, 97, 65
1, 606878, Note_on_c, 0, 49, 56
1, 606879, Note_off_c, 0, 52, 55
1, 606879, Control_c, 0, 64, 46
1, 606886, Note_off_c, 0, 100, 69
1, 606891, Note_on_c, 0, 45, 59
1, 606893, Note_off_c, 0, 105, 68
1, 606894, Control_c, 0, 64, 59
1, 606903, Note_off_c, 0, 104, 63
1, 606909, Control_c, 0, 64, 70
1, 606924, Control_c, 0, 64, 89
1, 606939, Control_c, 0, 64, 127
1, 607087, Note_off_c, 0, 45, 59
1, 607114, Note_off_c, 0, 49, 53
1, 607124, Control_c, 0, 64, 119
1, 607137, Note_on_c, 0, 79, 99
1, 607139, Control_c, 0, 64, 74
1, 607144, Note_on_c, 0, 76, 83
1, 607148, Note_on_c, 0, 74, 86
1, 607153, Control_c, 0, 64, 34
1, 607167, Note_off_c, 0, 74, 67
1, 607168, Control_c, 0, 64, 0
1, 607197, Note_off_c, 0, 76, 58
1, 607203, Note_off_c, 0, 79, 62
1, 607217, Note_on_c, 0, 72, 81
1, 607279, Note_on_c, 0, 79, 74
1, 607285, Note_on_c, 0, 76, 74
1, 607287, Note_off_c, 0, 72, 62
1, 607305, Note_off_c, 0, 79, 68
1, 607311, Note_off_c, 0, 76, 67
1, 607358, Note_on_c, 0, 76, 80
1, 607359, Note_on_c, 0, 72, 84
1, 607365, Note_on_c, 0, 79, 75
1, 607380, Note_off_c, 0, 76, 70
1, 607382, Note_off_c, 0, 72, 69
1, 607388, Note_off_c, 0, 79, 71
1, 607441, Note_on_c, 0, 70, 72
1, 607484, Note_off_c, 0, 70, 61
1, 607527, Note_on_c, 0, 79, 76
1, 607528, Note_on_c, 0, 72, 77
1, 607532, Note_on_c, 0, 76, 52
1, 607550, Note_off_c, 0, 72, 70
1, 607551, Note_off_c, 0, 79, 71
1, 607554, Note_off_c, 0, 76, 59
1, 607594, Note_on_c, 0, 79, 81
1, 607595, Note_on_c, 0, 72, 87
1, 607608, Note_on_c, 0, 76, 70
1, 607614, Note_off_c, 0, 72, 70
1, 607620, Note_off_c, 0, 79, 64
1, 607624, Note_off_c, 0, 76, 67
1, 607680, Note_on_c, 0, 70, 70
1, 607722, Note_off_c, 0, 70, 58
1, 607757, Note_on_c, 0, 69, 74
1, 607760, Note_on_c, 0, 77, 68
1, 607768, Note_on_c, 0, 74, 49
1, 607777, Note_off_c, 0, 77, 66
1, 607780, Note_off_c, 0, 69, 69
1, 607788, Note_off_c, 0, 74, 39
1, 607825, Note_on_c, 0, 69, 85
1, 607826, Note_on_c, 0, 77, 84
1, 607829, Note_on_c, 0, 74, 69
1, 607846, Note_off_c, 0, 69, 69
1, 607849, Note_off_c, 0, 77, 69
1, 607856, Note_off_c, 0, 74, 68
1, 607915, Note_on_c, 0, 70, 68
1, 607953, Note_off_c, 0, 70, 59
1, 607976, Note_on_c, 0, 67, 72
1, 607977, Note_on_c, 0, 76, 74
1, 607984, Note_on_c, 0, 72, 52
1, 608000, Note_off_c, 0, 67, 69
1, 608005, Note_off_c, 0, 76, 68
1, 608006, Note_off_c, 0, 72, 60
1, 608043, Note_on_c, 0, 76, 83
1, 608049, Note_on_c, 0, 67, 78
1, 608059, Note_on_c, 0, 72, 64
1, 608065, Note_off_c, 0, 76, 71
1, 608072, Note_off_c, 0, 67, 69
1, 608077, Note_off_c, 0, 72, 64
1, 608136, Note_on_c, 0, 70, 67
1, 608167, Note_off_c, 0, 70, 64
1, 608195, Note_on_c, 0, 65, 73
1, 608196, Note_on_c, 0, 69, 66
1, 608198, Note_on_c, 0, 74, 70
1, 608221, Note_off_c, 0, 65, 68
1, 608225, Note_off_c, 0, 69, 66
1, 608225, Note_off_c, 0, 74, 67
1, 608269, Note_on_c, 0, 74, 69
1, 608273, Note_on_c, 0, 65, 72
1, 608276, Note_on_c, 0, 69, 75
1, 608294, Note_off_c, 0, 74, 69
1, 608302, Note_off_c, 0, 69, 70
1, 608303, Note_off_c, 0, 65, 67
1, 608361, Note_on_c, 0, 70, 68
1, 608395, Note_off_c, 0, 70, 60
1, 608418, Note_on_c, 0, 64, 72
1, 608419, Note_on_c, 0, 67, 61
1, 608420, Note_on_c, 0, 72, 71
1, 608441, Note_off_c, 0, 67, 58
1, 608444, Note_off_c, 0, 64, 68
1, 608447, Note_off_c, 0, 72, 68
1, 608504, Note_on_c, 0, 64, 80
1, 608507, Note_on_c, 0, 72, 76
1, 608509, Note_on_c, 0, 67, 78
1, 608528, Note_off_c, 0, 64, 66
1, 608530, Note_off_c, 0, 72, 68
1, 608532, Note_off_c, 0, 67, 69
1, 608600, Note_on_c, 0, 70, 65
1, 608632, Note_off_c, 0, 70, 63
1, 608649, Note_on_c, 0, 69, 77
1, 608653, Note_on_c, 0, 65, 70
1, 608657, Note_on_c, 0, 74, 69
1, 608671, Note_off_c, 0, 69, 71
1, 608681, Note_off_c, 0, 65, 67
1, 608684, Note_off_c, 0, 74, 63
1, 608725, Note_on_c, 0, 69, 87
1, 608726, Note_on_c, 0, 74, 84
1, 608729, Note_on_c, 0, 65, 76
1, 608754, Note_off_c, 0, 65, 66
1, 608754, Note_off_c, 0, 74, 61
1, 608764, Note_off_c, 0, 69, 63
1, 608811, Note_on_c, 0, 70, 75
1, 608843, Note_off_c, 0, 70, 67
1, 608879, Note_on_c, 0, 67, 74
1, 608881, Note_on_c, 0, 72, 65
1, 608896, Note_on_c, 0, 76, 55
1, 608899, Note_off_c, 0, 72, 65
1, 608902, Note_off_c, 0, 67, 69
1, 608929, Note_off_c, 0, 76, 0
1, 608929, Note_on_c, 0, 76, 60
1, 608940, Note_on_c, 0, 70, 96
1, 609009, Note_off_c, 0, 70, 56
1, 609012, Note_on_c, 0, 66, 86
1, 609035, Note_off_c, 0, 76, 65
1, 609043, Note_off_c, 0, 66, 61
1, 609082, Note_on_c, 0, 76, 53
1, 609091, Note_on_c, 0, 69, 76
1, 609114, Note_off_c, 0, 69, 70
1, 609115, Note_off_c, 0, 76, 65
1, 609158, Note_on_c, 0, 66, 80
1, 609158, Note_on_c, 0, 76, 79
1, 609167, Note_on_c, 0, 70, 69
1, 609184, Note_off_c, 0, 76, 69
1, 609192, Note_off_c, 0, 66, 60
1, 609192, Note_off_c, 0, 70, 69
1, 609257, Note_on_c, 0, 57, 66
1, 609282, Note_off_c, 0, 57, 67
1, 609330, Note_on_c, 0, 66, 69
1, 609331, Note_on_c, 0, 76, 66
1, 609332, Note_on_c, 0, 70, 63
1, 609351, Note_off_c, 0, 70, 63
1, 609353, Note_off_c, 0, 76, 65
1, 609357, Note_off_c, 0, 66, 68
1, 609398, Note_on_c, 0, 66, 73
1, 609404, Note_on_c, 0, 76, 76
1, 609418, Note_on_c, 0, 70, 64
1, 609425, Note_off_c, 0, 66, 65
1, 609429, Note_off_c, 0, 76, 69
1, 609438, Note_off_c, 0, 70, 65
1, 609489, Note_on_c, 0, 57, 66
1, 609526, Note_off_c, 0, 57, 64
1, 609555, Note_on_c, 0, 65, 69
1, 609562, Note_on_c, 0, 74, 58
1, 609576, Note_on_c, 0, 69, 31
1, 609579, Note_off_c, 0, 74, 64
1, 609582, Note_off_c, 0, 65, 67
1, 609624, Note_off_c, 0, 69, 0
1, 609624, Note_on_c, 0, 69, 59
1, 609632, Note_on_c, 0, 65, 76
1, 609632, Note_on_c, 0, 74, 73
1, 609656, Note_off_c, 0, 65, 68
1, 609657, Note_off_c, 0, 74, 69
1, 609658, Note_off_c, 0, 69, 67
1, 609724, Note_on_c, 0, 57, 68
1, 609762, Note_off_c, 0, 57, 66
1, 609784, Note_on_c, 0, 64, 76
1, 609787, Note_on_c, 0, 72, 75
1, 609788, Note_on_c, 0, 68, 66
1, 609807, Note_off_c, 0, 64, 69
1, 609809, Note_off_c, 0, 72, 70
1, 609818, Note_off_c, 0, 68, 64
1, 609859, Note_on_c, 0, 72, 85
1, 609862, Note_on_c, 0, 64, 81
1, 609874, Note_on_c, 0, 68, 73
1, 609886, Note_off_c, 0, 72, 62
1, 609888, Note_off_c, 0, 64, 65
1, 609898, Note_off_c, 0, 68, 69
1, 609953, Note_on_c, 0, 57, 69
1, 609987, Note_off_c, 0, 57, 67
1, 610028, Note_on_c, 0, 70, 75
1, 610030, Note_on_c, 0, 63, 71
1, 610038, Note_on_c, 0, 67, 57
1, 610050, Note_off_c, 0, 70, 70
1, 610057, Note_off_c, 0, 63, 68
1, 610058, Note_off_c, 0, 67, 61
1, 610102, Note_on_c, 0, 70, 86
1, 610105, Note_on_c, 0, 63, 79
1, 610130, Note_on_c, 0, 67, 55
1, 610143, Note_off_c, 0, 63, 61
1, 610151, Note_off_c, 0, 67, 61
1, 610154, Note_off_c, 0, 70, 63
1, 610190, Note_on_c, 0, 57, 70
1, 610226, Note_off_c, 0, 57, 66
1, 610248, Note_on_c, 0, 68, 78
1, 610254, Note_on_c, 0, 62, 70
1, 610258, Note_on_c, 0, 66, 62
1, 610271, Note_off_c, 0, 68, 69
1, 610281, Note_off_c, 0, 62, 67
1, 610288, Note_off_c, 0, 66, 64
1, 610331, Note_on_c, 0, 68, 83
1, 610333, Note_on_c, 0, 62, 78
1, 610337, Note_on_c, 0, 66, 78
1, 610362, Note_off_c, 0, 62, 65
1, 610375, Note_off_c, 0, 68, 60
1, 610380, Note_off_c, 0, 66, 57
1, 610428, Note_on_c, 0, 57, 68
1, 610467, Note_off_c, 0, 57, 65
1, 610496, Note_on_c, 0, 61, 72
1, 610500, Note_on_c, 0, 69, 67
1, 610518, Note_off_c, 0, 69, 64
1, 610521, Note_off_c, 0, 61, 68
1, 610556, Note_on_c, 0, 69, 82
1, 610556, Note_on_c, 0, 61, 84
1, 610593, Control_c, 0, 64, 23
1, 610598, Note_off_c, 0, 61, 60
1, 610608, Control_c, 0, 64, 46
1, 610622, Control_c, 0, 64, 61
1, 610637, Control_c, 0, 64, 72
1, 610652, Control_c, 0, 64, 91
1, 610666, Note_on_c, 0, 57, 74
1, 610667, Control_c, 0, 64, 127
1, 610702, Note_on_c, 0, 64, 75
1, 610705, Note_off_c, 0, 69, 54
1, 610726, Note_off_c, 0, 64, 69
1, 610792, Note_off_c, 0, 57, 63
1, 610824, Control_c, 0, 64, 78
1, 610826, Note_on_c, 0, 78, 104
1, 610826, Note_on_c, 0, 81, 93
1, 610831, Note_on_c, 0, 80, 80
1, 610839, Control_c, 0, 64, 40
1, 610853, Control_c, 0, 64, 0
1, 610886, Note_off_c, 0, 80, 45
1, 610905, Note_on_c, 0, 74, 87
1, 610915, Note_off_c, 0, 81, 59
1, 610919, Note_off_c, 0, 78, 62
1, 610945, Note_off_c, 0, 74, 63
1, 610975, Note_on_c, 0, 81, 78
1, 610983, Note_on_c, 0, 78, 76
1, 610990, Note_on_c, 0, 74, 42
1, 611008, Note_off_c, 0, 78, 69
1, 611011, Note_off_c, 0, 81, 66
1, 611015, Note_off_c, 0, 74, 34
1, 611055, Note_on_c, 0, 81, 80
1, 611063, Note_on_c, 0, 74, 85
1, 611067, Note_on_c, 0, 78, 78
1, 611087, Note_off_c, 0, 74, 66
1, 611091, Note_off_c, 0, 78, 70
1, 611099, Note_off_c, 0, 81, 67
1, 611149, Note_on_c, 0, 72, 79
1, 611182, Note_off_c, 0, 72, 61
1, 611217, Note_on_c, 0, 81, 79
1, 611224, Note_on_c, 0, 74, 76
1, 611238, Note_on_c, 0, 78, 45
1, 611241, Note_off_c, 0, 81, 69
1, 611245, Note_off_c, 0, 74, 69
1, 611263, Note_off_c, 0, 78, 37
1, 611293, Note_on_c, 0, 81, 81
1, 611298, Note_on_c, 0, 74, 81
1, 611313, Note_on_c, 0, 78, 57
1, 611313, Note_off_c, 0, 81, 71
1, 611319, Note_off_c, 0, 74, 70
1, 611332, Note_off_c, 0, 78, 60
1, 611382, Note_on_c, 0, 72, 69
1, 611411, Note_off_c, 0, 72, 66
1, 611443, Note_on_c, 0, 71, 75
1, 611445, Note_on_c, 0, 79, 76
1, 611462, Note_on_c, 0, 76, 48
1, 611466, Note_off_c, 0, 71, 69
1, 611467, Note_off_c, 0, 79, 70
1, 611496, Note_off_c, 0, 76, 36
1, 611522, Note_on_c, 0, 79, 84
1, 611531, Note_on_c, 0, 71, 77
1, 611538, Note_on_c, 0, 76, 63
1, 611548, Note_off_c, 0, 79, 63
1, 611555, Note_off_c, 0, 71, 68
1, 611559, Note_off_c, 0, 76, 64
1, 611620, Note_on_c, 0, 72, 69
1, 611652, Note_off_c, 0, 72, 64
1, 611683, Note_on_c, 0, 78, 75
1, 611685, Note_on_c, 0, 69, 75
1, 611692, Note_on_c, 0, 74, 55
1, 611708, Note_off_c, 0, 69, 70
1, 611708, Note_off_c, 0, 78, 69
1, 611710, Note_off_c, 0, 74, 61
1, 611758, Note_on_c, 0, 78, 87
1, 611764, Note_on_c, 0, 69, 82
1, 611783, Note_on_c, 0, 74, 55
1, 611794, Note_off_c, 0, 69, 62
1, 611797, Note_off_c, 0, 78, 59
1, 611803, Note_off_c, 0, 74, 60
1, 611856, Note_on_c, 0, 72, 63
1, 611884, Note_off_c, 0, 72, 65
1, 611922, Note_on_c, 0, 67, 69
1, 611925, Note_on_c, 0, 76, 67
1, 611931, Note_on_c, 0, 71, 46
1, 611942, Note_off_c, 0, 76, 66
1, 611948, Note_off_c, 0, 67, 68
1, 611954, Note_off_c, 0, 71, 55
1, 612000, Note_on_c, 0, 71, 67
1, 612001, Note_on_c, 0, 67, 69
1, 612002, Note_on_c, 0, 76, 72
1, 612023, Note_off_c, 0, 76, 65
1, 612028, Note_off_c, 0, 67, 65
1, 612029, Note_off_c, 0, 71, 66
1, 612071, Note_on_c, 0, 72, 66
1, 612097, Note_off_c, 0, 72, 67
1, 612143, Note_on_c, 0, 66, 73
1, 612152, Note_on_c, 0, 69, 64
1, 612154, Note_on_c, 0, 74, 68
1, 612167, Note_off_c, 0, 66, 67
1, 612170, Note_off_c, 0, 69, 65
1, 612173, Note_off_c, 0, 74, 64
1, 612214, Note_on_c, 0, 66, 82
1, 612223, Note_on_c, 0, 74, 79
1, 612230, Note_on_c, 0, 69, 77
1, 612261, Note_off_c, 0, 69, 69
1, 612267, Note_off_c, 0, 74, 58
1, 612274, Note_off_c, 0, 66, 61
1, 612318, Note_on_c, 0, 72, 73
1, 612365, Note_off_c, 0, 72, 61
1, 612381, Note_on_c, 0, 71, 72
1, 612385, Note_on_c, 0, 67, 70
1, 612387, Note_on_c, 0, 76, 71
1, 612404, Note_off_c, 0, 71, 69
1, 612412, Note_off_c, 0, 67, 69
1, 612413, Note_off_c, 0, 76, 64
1, 612452, Note_on_c, 0, 67, 75
1, 612455, Note_on_c, 0, 71, 80
1, 612459, Note_on_c, 0, 76, 80
1, 612498, Control_c, 0, 64, 41
1, 612499, Note_off_c, 0, 76, 64
1, 612503, Note_off_c, 0, 71, 50
1, 612508, Note_off_c, 0, 67, 63
1, 612513, Control_c, 0, 64, 52
1, 612528, Control_c, 0, 64, 58
1, 612537, Note_on_c, 0, 72, 74
1, 612543, Control_c, 0, 64, 64
1, 612558, Control_c, 0, 64, 69
1, 612565, Note_off_c, 0, 72, 66
1, 612572, Control_c, 0, 64, 79
1, 612587, Control_c, 0, 64, 97
1, 612602, Control_c, 0, 64, 127
1, 612603, Note_on_c, 0, 69, 79
1, 612624, Note_off_c, 0, 69, 71
1, 612632, Control_c, 0, 64, 111
1, 612646, Control_c, 0, 64, 85
1, 612649, Note_on_c, 0, 78, 73
1, 612660, Note_on_c, 0, 72, 90
1, 612661, Control_c, 0, 64, 67
1, 612676, Control_c, 0, 64, 42
1, 612691, Control_c, 0, 64, 0
1, 612700, Note_off_c, 0, 78, 65
1, 612702, Note_off_c, 0, 72, 66
1, 612735, Note_on_c, 0, 68, 87
1, 612757, Note_on_c, 0, 78, 36
1, 612780, Note_off_c, 0, 68, 62
1, 612784, Note_off_c, 0, 78, 45
1, 612813, Note_on_c, 0, 72, 86
1, 612819, Note_on_c, 0, 78, 72
1, 612846, Note_off_c, 0, 78, 68
1, 612849, Note_off_c, 0, 72, 67
1, 612889, Note_on_c, 0, 68, 84
1, 612899, Note_on_c, 0, 78, 77
1, 612917, Note_off_c, 0, 68, 64
1, 612924, Note_off_c, 0, 78, 69
1, 612986, Note_on_c, 0, 59, 70
1, 613022, Note_off_c, 0, 59, 68
1, 613063, Note_on_c, 0, 68, 77
1, 613063, Note_on_c, 0, 72, 70
1, 613069, Note_on_c, 0, 78, 72
1, 613085, Note_off_c, 0, 68, 69
1, 613089, Note_off_c, 0, 78, 66
1, 613090, Note_off_c, 0, 72, 68
1, 613132, Note_on_c, 0, 78, 88
1, 613138, Note_on_c, 0, 68, 78
1, 613156, Note_on_c, 0, 72, 54
1, 613160, Note_off_c, 0, 78, 61
1, 613165, Note_off_c, 0, 68, 67
1, 613178, Note_off_c, 0, 72, 61
1, 613228, Note_on_c, 0, 59, 65
1, 613256, Note_off_c, 0, 59, 65
1, 613281, Note_on_c, 0, 71, 74
1, 613284, Note_on_c, 0, 67, 73
1, 613286, Note_on_c, 0, 76, 72
1, 613305, Note_off_c, 0, 71, 69
1, 613309, Note_off_c, 0, 67, 68
1, 613316, Note_off_c, 0, 76, 67
1, 613357, Note_on_c, 0, 71, 85
1, 613357, Note_on_c, 0, 76, 79
1, 613360, Note_on_c, 0, 67, 79
1, 613380, Note_off_c, 0, 76, 70
1, 613380, Note_off_c, 0, 71, 66
1, 613383, Note_off_c, 0, 67, 69
1, 613449, Note_on_c, 0, 59, 68
1, 613478, Note_off_c, 0, 59, 66
1, 613516, Note_on_c, 0, 66, 72
1, 613516, Note_on_c, 0, 74, 74
1, 613519, Note_on_c, 0, 70, 66
1, 613540, Note_off_c, 0, 74, 69
1, 613541, Note_off_c, 0, 70, 64
1, 613543, Note_off_c, 0, 66, 68
1, 613587, Note_on_c, 0, 74, 81
1, 613591, Note_on_c, 0, 66, 78
1, 613603, Note_on_c, 0, 70, 65
1, 613609, Note_off_c, 0, 74, 66
1, 613617, Note_off_c, 0, 66, 67
1, 613623, Note_off_c, 0, 70, 66
1, 613677, Note_on_c, 0, 59, 68
1, 613706, Note_off_c, 0, 59, 66
1, 613752, Note_on_c, 0, 69, 65
1, 613752, Note_on_c, 0, 72, 69
1, 613756, Note_on_c, 0, 65, 63
1, 613779, Note_off_c, 0, 69, 65
1, 613780, Note_off_c, 0, 72, 69
1, 613788, Note_off_c, 0, 65, 66
1, 613826, Note_on_c, 0, 72, 79
1, 613833, Note_on_c, 0, 65, 71
1, 613834, Note_on_c, 0, 69, 77
1, 613852, Note_off_c, 0, 72, 62
1, 613857, Note_off_c, 0, 69, 69
1, 613859, Note_off_c, 0, 65, 69
1, 613928, Note_on_c, 0, 59, 64
1, 613955, Note_off_c, 0, 59, 66
1, 613983, Note_on_c, 0, 64, 71
1, 613983, Note_on_c, 0, 70, 71
1, 613993, Note_on_c, 0, 68, 49
1, 614009, Note_off_c, 0, 64, 69
1, 614009, Note_off_c, 0, 70, 69
1, 614017, Note_off_c, 0, 68, 58
1, 614055, Note_on_c, 0, 70, 86
1, 614060, Note_on_c, 0, 64, 79
1, 614065, Note_on_c, 0, 68, 75
1, 614083, Note_off_c, 0, 64, 69
1, 614095, Note_off_c, 0, 70, 63
1, 614095, Note_off_c, 0, 68, 63
1, 614158, Note_on_c, 0, 59, 70
1, 614184, Note_off_c, 0, 59, 67
1, 614210, Note_on_c, 0, 63, 78
1, 614217, Note_on_c, 0, 71, 71
1, 614234, Note_off_c, 0, 63, 69
1, 614242, Note_off_c, 0, 71, 66
1, 614269, Note_on_c, 0, 63, 87
1, 614278, Control_c, 0, 64, 41
1, 614291, Poly_aftertouch_c, 0, 71, 127
1, 614293, Control_c, 0, 64, 54
1, 614306, Poly_aftertouch_c, 0, 71, 0
1, 614308, Control_c, 0, 64, 60
1, 614312, Note_off_c, 0, 63, 58
1, 614323, Control_c, 0, 64, 64
1, 614337, Control_c, 0, 64, 71
1, 614352, Control_c, 0, 64, 85
1, 614367, Control_c, 0, 64, 127
1, 614389, Note_on_c, 0, 59, 67
1, 614414, Note_off_c, 0, 59, 66
1, 614428, Note_on_c, 0, 66, 83
1, 614461, Note_off_c, 0, 66, 61
1, 614549, Note_on_c, 0, 48, 98
1, 614551, Note_on_c, 0, 56, 103
1, 614552, Control_c, 0, 64, 86
1, 614567, Control_c, 0, 64, 58
1, 614582, Control_c, 0, 64, 0
1, 614589, Note_off_c, 0, 56, 66
1, 614591, Note_off_c, 0, 48, 64
1, 614697, Note_on_c, 0, 55, 85
1, 614700, Note_on_c, 0, 67, 86
1, 614730, Note_off_c, 0, 67, 61
1, 614741, Note_off_c, 0, 55, 61
1, 614813, Note_on_c, 0, 44, 86
1, 614819, Note_on_c, 0, 60, 103
1, 614842, Note_off_c, 0, 60, 69
1, 614861, Note_off_c, 0, 44, 61
1, 614947, Note_on_c, 0, 54, 89
1, 614995, Note_off_c, 0, 54, 65
1, 615084, Note_on_c, 0, 48, 84
1, 615117, Note_off_c, 0, 48, 58
1, 615219, Note_on_c, 0, 67, 95
1, 615221, Note_on_c, 0, 55, 65
1, 615259, Note_off_c, 0, 67, 66
1, 615273, Note_off_c, 0, 55, 59
1, 615348, Note_on_c, 0, 44, 73
1, 615355, Note_on_c, 0, 60, 95
1, 615369, Note_off_c, 0, 44, 67
1, 615387, Note_off_c, 0, 60, 66
1, 615478, Note_on_c, 0, 66, 84
1, 615485, Note_on_c, 0, 54, 76
1, 615514, Note_off_c, 0, 54, 69
1, 615528, Note_off_c, 0, 66, 60
1, 615608, Note_on_c, 0, 48, 84
1, 615612, Note_on_c, 0, 56, 98
1, 615646, Note_on_c, 0, 61, 40
1, 615647, Note_off_c, 0, 61, 127
1, 615647, Note_off_c, 0, 48, 59
1, 615657, Note_off_c, 0, 56, 62
1, 615741, Note_on_c, 0, 55, 73
1, 615747, Note_on_c, 0, 67, 91
1, 615785, Note_off_c, 0, 67, 61
1, 615803, Note_off_c, 0, 55, 59
1, 615872, Note_on_c, 0, 44, 81
1, 615876, Note_on_c, 0, 60, 108
1, 615901, Note_on_c, 0, 52, 39
1, 615910, Note_off_c, 0, 60, 70
1, 615916, Note_off_c, 0, 44, 63
1, 615937, Note_off_c, 0, 52, 49
1, 616023, Note_on_c, 0, 54, 84
1, 616067, Note_off_c, 0, 54, 62
1, 616151, Note_on_c, 0, 48, 85
1, 616205, Note_off_c, 0, 48, 58
1, 616278, Note_on_c, 0, 67, 83
1, 616284, Note_on_c, 0, 55, 72
1, 616310, Note_off_c, 0, 67, 61
1, 616336, Note_off_c, 0, 55, 61
1, 616404, Note_on_c, 0, 44, 76
1, 616418, Note_on_c, 0, 60, 79
1, 616426, Note_off_c, 0, 44, 67
1, 616441, Note_off_c, 0, 60, 70
1, 616533, Note_on_c, 0, 54, 81
1, 616536, Note_on_c, 0, 66, 74
1, 616558, Note_off_c, 0, 54, 68
1, 616572, Note_off_c, 0, 66, 61
1, 616658, Note_on_c, 0, 48, 92
1, 616700, Note_off_c, 0, 48, 62
1, 616797, Note_on_c, 0, 55, 81
1, 616800, Note_on_c, 0, 59, 93
1, 616800, Note_on_c, 0, 67, 93
1, 616819, Note_off_c, 0, 59, 71
1, 616829, Note_off_c, 0, 67, 65
1, 616846, Note_off_c, 0, 55, 62
1, 616944, Note_on_c, 0, 45, 56
1, 616971, Note_off_c, 0, 45, 60
1, 617064, Note_on_c, 0, 54, 72
1, 617070, Note_on_c, 0, 55, 74
1, 617072, Note_on_c, 0, 60, 70
1, 617095, Note_off_c, 0, 54, 67
1, 617099, Note_off_c, 0, 60, 67
1, 617100, Note_off_c, 0, 55, 66
1, 617188, Note_on_c, 0, 48, 71
1, 617240, Note_off_c, 0, 48, 57
1, 617316, Note_on_c, 0, 53, 67
1, 617320, Note_on_c, 0, 67, 73
1, 617323, Note_on_c, 0, 59, 70
1, 617350, Note_off_c, 0, 59, 66
1, 617351, Note_off_c, 0, 67, 64
1, 617357, Note_off_c, 0, 53, 59
1, 617445, Note_on_c, 0, 44, 63
1, 617469, Note_off_c, 0, 44, 66
1, 617573, Note_on_c, 0, 60, 71
1, 617580, Note_on_c, 0, 55, 64
1, 617581, Note_on_c, 0, 52, 63
1, 617600, Note_off_c, 0, 60, 68
1, 617612, Note_off_c, 0, 55, 65
1, 617619, Note_off_c, 0, 52, 62
1, 617712, Note_on_c, 0, 48, 61
1, 617750, Note_off_c, 0, 48, 63
1, 617837, Note_on_c, 0, 51, 68
1, 617842, Note_on_c, 0, 67, 72
1, 617847, Note_on_c, 0, 59, 60
1, 617868, Note_off_c, 0, 59, 62
1, 617870, Note_off_c, 0, 67, 66
1, 617883, Note_off_c, 0, 51, 59
1, 617976, Note_on_c, 0, 44, 58
1, 618005, Note_off_c, 0, 44, 64
1, 618095, Note_on_c, 0, 55, 60
1, 618095, Note_on_c, 0, 60, 59
1, 618101, Note_on_c, 0, 50, 59
1, 618117, Note_off_c, 0, 60, 64
1, 618126, Note_off_c, 0, 55, 64
1, 618134, Note_off_c, 0, 50, 62
1, 618226, Note_on_c, 0, 48, 59
1, 618264, Note_off_c, 0, 48, 65
1, 618363, Note_on_c, 0, 49, 52
1, 618365, Note_on_c, 0, 67, 69
1, 618366, Note_on_c, 0, 59, 60
1, 618389, Note_off_c, 0, 59, 63
1, 618393, Note_off_c, 0, 67, 64
1, 618393, Note_off_c, 0, 49, 64
1, 618488, Note_on_c, 0, 44, 48
1, 618523, Note_off_c, 0, 44, 62
1, 618600, Note_on_c, 0, 60, 62
1, 618606, Note_on_c, 0, 55, 42
1, 618606, Control_c, 0, 64, 34
1, 618620, Note_on_c, 0, 48, 57
1, 618621, Note_off_c, 0, 60, 64
1, 618621, Control_c, 0, 64, 48
1, 618636, Note_off_c, 0, 55, 34
1, 618636, Control_c, 0, 64, 60
1, 618651, Control_c, 0, 64, 68
1, 618652, Note_off_c, 0, 48, 64
1, 618665, Control_c, 0, 64, 75
1, 618681, Control_c, 0, 64, 84
1, 618696, Control_c, 0, 64, 93
1, 618711, Control_c, 0, 64, 98
1, 618732, Note_on_c, 0, 48, 66
1, 618740, Control_c, 0, 64, 91
1, 618747, Note_on_c, 0, 76, 74
1, 618755, Control_c, 0, 64, 81
1, 618756, Note_on_c, 0, 64, 58
1, 618766, Note_on_c, 0, 72, 65
1, 618766, Note_off_c, 0, 48, 61
1, 618770, Control_c, 0, 64, 70
1, 618785, Control_c, 0, 64, 57
1, 618800, Control_c, 0, 64, 0
1, 618896, Note_on_c, 0, 55, 41
1, 618940, Note_off_c, 0, 55, 59
1, 619016, Note_on_c, 0, 44, 57
1, 619049, Note_off_c, 0, 44, 64
1, 619148, Note_on_c, 0, 54, 69
1, 619185, Note_off_c, 0, 54, 64
1, 619272, Note_on_c, 0, 48, 80
1, 619299, Note_off_c, 0, 72, 61
1, 619302, Note_off_c, 0, 48, 66
1, 619371, Note_off_c, 0, 64, 44
1, 619412, Note_on_c, 0, 55, 58
1, 619464, Note_off_c, 0, 55, 57
1, 619533, Note_on_c, 0, 66, 68
1, 619542, Note_on_c, 0, 44, 59
1, 619544, Note_on_c, 0, 63, 56
1, 619546, Note_off_c, 0, 76, 38
1, 619571, Note_off_c, 0, 44, 62
1, 619651, Note_off_c, 0, 63, 51
1, 619683, Note_on_c, 0, 54, 59
1, 619717, Note_off_c, 0, 54, 63
1, 619772, Note_off_c, 0, 66, 62
1, 619805, Note_on_c, 0, 76, 69
1, 619812, Note_on_c, 0, 48, 64
1, 619814, Note_on_c, 0, 64, 54
1, 619835, Note_off_c, 0, 76, 66
1, 619836, Note_off_c, 0, 64, 61
1, 619842, Note_off_c, 0, 48, 65
1, 619925, Note_on_c, 0, 76, 74
1, 619934, Note_on_c, 0, 55, 59
1, 619967, Note_off_c, 0, 76, 65
1, 619974, Note_off_c, 0, 55, 63
1, 620052, Note_on_c, 0, 72, 77
1, 620056, Note_on_c, 0, 44, 59
1, 620074, Note_off_c, 0, 72, 70
1, 620086, Note_off_c, 0, 44, 65
1, 620178, Note_on_c, 0, 65, 71
1, 620189, Note_on_c, 0, 54, 55
1, 620203, Note_off_c, 0, 65, 67
1, 620223, Note_off_c, 0, 54, 65
1, 620298, Note_on_c, 0, 66, 82
1, 620306, Note_on_c, 0, 48, 59
1, 620320, Note_off_c, 0, 66, 71
1, 620342, Note_off_c, 0, 48, 62
1, 620430, Note_on_c, 0, 63, 84
1, 620438, Note_on_c, 0, 55, 58
1, 620451, Note_off_c, 0, 63, 70
1, 620484, Note_off_c, 0, 55, 63
1, 620560, Note_on_c, 0, 44, 65
1, 620591, Note_off_c, 0, 44, 64
1, 620697, Note_on_c, 0, 54, 59
1, 620736, Note_off_c, 0, 54, 65
1, 620811, Note_on_c, 0, 72, 79
1, 620823, Note_on_c, 0, 48, 53
1, 620823, Note_on_c, 0, 64, 61
1, 620824, Note_on_c, 0, 67, 54
1, 620859, Note_off_c, 0, 48, 64
1, 620868, Note_off_c, 0, 67, 54
1, 620960, Note_on_c, 0, 55, 55
1, 620980, Poly_aftertouch_c, 0, 67, 127
1, 621003, Note_off_c, 0, 55, 62
1, 621082, Note_on_c, 0, 44, 62
1, 621115, Note_off_c, 0, 44, 64
1, 621214, Note_on_c, 0, 54, 61
1, 621261, Note_off_c, 0, 54, 66
1, 621342, Note_on_c, 0, 48, 73
1, 621345, Note_off_c, 0, 64, 62
1, 621349, Poly_aftertouch_c, 0, 67, 0
1, 621375, Note_off_c, 0, 48, 63
1, 621471, Note_on_c, 0, 55, 62
1, 621520, Note_off_c, 0, 55, 59
1, 621574, Note_off_c, 0, 72, 40
1, 621581, Note_on_c, 0, 74, 73
1, 621587, Control_c, 0, 64, 15
1, 621590, Note_on_c, 0, 66, 62
1, 621592, Note_on_c, 0, 63, 74
1, 621598, Note_on_c, 0, 44, 54
1, 621601, Control_c, 0, 64, 36
1, 621611, Note_off_c, 0, 74, 63
1, 621616, Control_c, 0, 64, 46
1, 621618, Note_off_c, 0, 66, 65
1, 621621, Note_off_c, 0, 63, 68
1, 621631, Control_c, 0, 64, 57
1, 621646, Control_c, 0, 64, 64
1, 621651, Note_off_c, 0, 44, 57
1, 621661, Control_c, 0, 64, 69
1, 621676, Control_c, 0, 64, 74
1, 621691, Control_c, 0, 64, 80
1, 621706, Control_c, 0, 64, 86
1, 621721, Control_c, 0, 64, 95
1, 621723, Note_on_c, 0, 54, 63
1, 621735, Control_c, 0, 64, 108
1, 621750, Control_c, 0, 64, 127
1, 621766, Note_off_c, 0, 54, 59
1, 621780, Control_c, 0, 64, 108
1, 621795, Control_c, 0, 64, 90
1, 621809, Control_c, 0, 64, 73
1, 621824, Control_c, 0, 64, 59
1, 621833, Note_on_c, 0, 67, 72
1, 621839, Control_c, 0, 64, 0
1, 621846, Note_on_c, 0, 57, 65
1, 621848, Note_on_c, 0, 43, 47
1, 621848, Note_on_c, 0, 60, 60
1, 621849, Note_on_c, 0, 65, 60
1, 621877, Note_off_c, 0, 43, 59
1, 621988, Note_on_c, 0, 55, 62
1, 622027, Note_off_c, 0, 55, 64
1, 622118, Note_on_c, 0, 53, 66
1, 622148, Note_off_c, 0, 53, 66
1, 622235, Note_on_c, 0, 56, 73
1, 622275, Note_off_c, 0, 56, 66
1, 622358, Note_off_c, 0, 65, 62
1, 622361, Note_off_c, 0, 60, 62
1, 622364, Note_off_c, 0, 57, 64
1, 622364, Note_on_c, 0, 52, 83
1, 622374, Note_off_c, 0, 67, 62
1, 622399, Note_off_c, 0, 52, 64
1, 622495, Note_on_c, 0, 57, 65
1, 622531, Note_off_c, 0, 57, 64
1, 622617, Note_on_c, 0, 50, 64
1, 622641, Note_off_c, 0, 50, 66
1, 622774, Note_on_c, 0, 59, 57
1, 622811, Note_off_c, 0, 59, 64
1, 622876, Note_on_c, 0, 48, 60
1, 622906, Note_off_c, 0, 48, 65
1, 623004, Note_on_c, 0, 60, 53
1, 623004, Note_on_c, 0, 64, 58
1, 623013, Note_on_c, 0, 55, 57
1, 623026, Note_off_c, 0, 60, 61
1, 623026, Note_off_c, 0, 64, 63
1, 623048, Note_off_c, 0, 55, 63
1, 623123, Note_on_c, 0, 52, 59
1, 623126, Note_on_c, 0, 65, 61
1, 623139, Note_on_c, 0, 62, 42
1, 623157, Note_off_c, 0, 65, 64
1, 623162, Note_off_c, 0, 52, 63
1, 623168, Note_off_c, 0, 62, 53
1, 623251, Note_on_c, 0, 60, 57
1, 623255, Note_on_c, 0, 67, 71
1, 623258, Note_on_c, 0, 64, 63
1, 623283, Note_off_c, 0, 67, 65
1, 623289, Note_off_c, 0, 64, 66
1, 623296, Note_off_c, 0, 60, 63
1, 623376, Note_on_c, 0, 69, 85
1, 623378, Note_on_c, 0, 65, 75
1, 623382, Note_on_c, 0, 47, 55
1, 623395, Note_off_c, 0, 69, 73
1, 623403, Note_off_c, 0, 65, 69
1, 623424, Note_off_c, 0, 47, 62
1, 623524, Note_on_c, 0, 55, 60
1, 623564, Note_off_c, 0, 55, 64
1, 623638, Note_on_c, 0, 71, 89
1, 623642, Note_on_c, 0, 67, 79
1, 623646, Note_on_c, 0, 52, 64
1, 623664, Note_off_c, 0, 67, 70
1, 623669, Note_off_c, 0, 71, 62
1, 623696, Note_off_c, 0, 52, 61
1, 623778, Note_on_c, 0, 64, 68
1, 623806, Note_off_c, 0, 64, 67
1, 623887, Note_on_c, 0, 69, 81
1, 623887, Note_on_c, 0, 72, 83
1, 623900, Note_on_c, 0, 46, 67
1, 623907, Note_off_c, 0, 72, 71
1, 623909, Note_off_c, 0, 69, 71
1, 623930, Note_off_c, 0, 46, 65
1, 624024, Note_on_c, 0, 54, 66
1, 624096, Note_off_c, 0, 54, 65
1, 624131, Note_on_c, 0, 81, 83
1, 624132, Note_on_c, 0, 78, 87
1, 624137, Note_on_c, 0, 72, 83
1, 624140, Note_on_c, 0, 60, 74
1, 624154, Note_off_c, 0, 78, 71
1, 624158, Note_off_c, 0, 72, 71
1, 624170, Note_off_c, 0, 81, 65
1, 624184, Note_off_c, 0, 60, 63
1, 624271, Note_on_c, 0, 57, 73
1, 624329, Note_off_c, 0, 57, 62
1, 624381, Note_on_c, 0, 75, 95
1, 624383, Note_on_c, 0, 79, 93
1, 624384, Note_on_c, 0, 70, 94
1, 624388, Note_on_c, 0, 58, 95
1, 624405, Control_c, 0, 64, 51
1, 624420, Control_c, 0, 64, 80
1, 624434, Control_c, 0, 64, 127
1, 624478, Note_off_c, 0, 58, 55
1, 624534, Note_on_c, 0, 63, 72
1, 624588, Note_off_c, 0, 79, 63
1, 624603, Note_off_c, 0, 75, 59
1, 624629, Note_off_c, 0, 63, 61
1, 624647, Note_off_c, 0, 70, 60
1, 624653, Note_on_c, 0, 67, 91
1, 624684, Note_off_c, 0, 67, 64
1, 624772, Note_on_c, 0, 70, 86
1, 624832, Note_off_c, 0, 70, 63
1, 624888, Note_on_c, 0, 44, 86
1, 624891, Note_on_c, 0, 75, 81
1, 624894, Control_c, 0, 64, 87
1, 624908, Control_c, 0, 64, 38
1, 624923, Control_c, 0, 64, 0
1, 624935, Note_off_c, 0, 75, 59
1, 624936, Note_off_c, 0, 44, 63
1, 625020, Note_on_c, 0, 51, 74
1, 625020, Note_on_c, 0, 70, 72
1, 625025, Note_on_c, 0, 67, 60
1, 625055, Note_off_c, 0, 67, 64
1, 625055, Note_off_c, 0, 70, 65
1, 625087, Note_off_c, 0, 51, 61
1, 625142, Note_on_c, 0, 71, 77
1, 625143, Note_on_c, 0, 68, 73
1, 625150, Note_on_c, 0, 59, 71
1, 625174, Note_off_c, 0, 68, 60
1, 625179, Note_off_c, 0, 71, 64
1, 625190, Note_off_c, 0, 59, 62
1, 625264, Note_on_c, 0, 56, 72
1, 625269, Note_on_c, 0, 70, 70
1, 625291, Note_on_c, 0, 72, 44
1, 625294, Note_off_c, 0, 56, 68
1, 625299, Note_off_c, 0, 70, 67
1, 625317, Note_off_c, 0, 72, 57
1, 625376, Note_on_c, 0, 43, 82
1, 625378, Note_on_c, 0, 71, 68
1, 625400, Note_off_c, 0, 71, 64
1, 625402, Note_off_c, 0, 43, 65
1, 625405, Note_on_c, 0, 74, 43
1, 625430, Note_off_c, 0, 74, 36
1, 625502, Note_on_c, 0, 53, 87
1, 625586, Note_off_c, 0, 53, 0
1, 625608, Note_on_c, 0, 88, 93
1, 625610, Note_on_c, 0, 76, 102
1, 625613, Control_c, 0, 64, 46
1, 625615, Note_on_c, 0, 83, 86
1, 625619, Note_on_c, 0, 65, 102
1, 625623, Poly_aftertouch_c, 0, 53, 127
1, 625628, Control_c, 0, 64, 69
1, 625633, Note_off_c, 0, 83, 72
1, 625639, Note_off_c, 0, 88, 69
1, 625643, Control_c, 0, 64, 127
1, 625654, Note_off_c, 0, 76, 70
1, 625658, Note_on_c, 0, 55, 28
1, 625687, Poly_aftertouch_c, 0, 53, 0
1, 625699, Note_off_c, 0, 55, 32
1, 625704, Note_off_c, 0, 65, 59
1, 625741, Note_on_c, 0, 59, 82
1, 625777, Note_off_c, 0, 59, 64
1, 625843, Control_c, 0, 64, 74
1, 625857, Control_c, 0, 64, 0
1, 625876, Note_on_c, 0, 60, 95
1, 625879, Note_on_c, 0, 36, 104
1, 625903, Control_c, 0, 64, 47
1, 625918, Control_c, 0, 64, 75
1, 625928, Note_off_c, 0, 36, 64
1, 625933, Control_c, 0, 64, 127
1, 625942, Note_off_c, 0, 60, 65
1, 626021, Note_on_c, 0, 55, 84
1, 626066, Note_off_c, 0, 55, 65
1, 626146, Note_on_c, 0, 42, 98
1, 626224, Note_off_c, 0, 42, 62
1, 626266, Note_on_c, 0, 48, 99
1, 626313, Note_off_c, 0, 48, 68
1, 626322, Note_on_c, 0, 39, 29
1, 626367, Note_off_c, 0, 39, 52
1, 626400, Note_on_c, 0, 36, 93
1, 626421, Control_c, 0, 64, 75
1, 626436, Control_c, 0, 64, 0
1, 626457, Note_off_c, 0, 36, 63
1, 626537, Note_on_c, 0, 43, 79
1, 626537, Note_on_c, 0, 55, 91
1, 626571, Note_off_c, 0, 55, 61
1, 626586, Note_on_c, 0, 39, 34
1, 626593, Note_off_c, 0, 43, 62
1, 626627, Note_off_c, 0, 39, 45
1, 626650, Note_on_c, 0, 32, 83
1, 626657, Note_on_c, 0, 48, 99
1, 626691, Note_off_c, 0, 48, 66
1, 626702, Note_off_c, 0, 32, 61
1, 626782, Note_on_c, 0, 42, 87
1, 626844, Note_off_c, 0, 42, 63
1, 626904, Note_on_c, 0, 36, 89
1, 626965, Note_off_c, 0, 36, 62
1, 627024, Note_on_c, 0, 55, 86
1, 627030, Note_on_c, 0, 43, 78
1, 627056, Note_off_c, 0, 55, 65
1, 627091, Note_off_c, 0, 43, 62
1, 627142, Note_on_c, 0, 32, 75
1, 627145, Note_on_c, 0, 48, 89
1, 627178, Note_off_c, 0, 48, 65
1, 627187, Note_off_c, 0, 32, 62
1, 627266, Note_on_c, 0, 54, 89
1, 627283, Note_on_c, 0, 42, 83
1, 627309, Note_off_c, 0, 54, 63
1, 627329, Note_off_c, 0, 42, 62
1, 627395, Note_on_c, 0, 44, 101
1, 627398, Note_on_c, 0, 36, 88
1, 627439, Note_off_c, 0, 44, 61
1, 627446, Note_off_c, 0, 36, 59
1, 627519, Note_on_c, 0, 43, 83
1, 627525, Note_on_c, 0, 55, 95
1, 627571, Note_off_c, 0, 55, 65
1, 627580, Note_off_c, 0, 43, 63
1, 627641, Poly_aftertouch_c, 0, 38, 0
1, 627645, Note_on_c, 0, 48, 101
1, 627646, Note_on_c, 0, 32, 84
1, 627666, Control_c, 0, 64, 48
1, 627681, Control_c, 0, 64, 67
1, 627682, Note_off_c, 0, 48, 69
1, 627683, Note_on_c, 0, 49, 35
1, 627688, Note_on_c, 0, 40, 26
1, 627696, Control_c, 0, 64, 92
1, 627710, Note_off_c, 0, 32, 62
1, 627711, Control_c, 0, 64, 127
1, 627719, Note_off_c, 0, 49, 35
1, 627735, Note_off_c, 0, 40, 51
1, 627755, Poly_aftertouch_c, 0, 50, 0
1, 627780, Note_on_c, 0, 42, 92
1, 627814, Control_c, 0, 64, 104
1, 627829, Control_c, 0, 64, 82
1, 627840, Note_off_c, 0, 42, 64
1, 627843, Control_c, 0, 64, 69
1, 627858, Control_c, 0, 64, 57
1, 627873, Control_c, 0, 64, 0
1, 627910, Note_on_c, 0, 36, 86
1, 627974, Note_off_c, 0, 36, 62
1, 628042, Note_on_c, 0, 43, 77
1, 628046, Note_on_c, 0, 55, 91
1, 628070, Note_off_c, 0, 55, 69
1, 628091, Note_off_c, 0, 43, 60
1, 628155, Note_on_c, 0, 32, 76
1, 628166, Note_on_c, 0, 48, 93
1, 628191, Note_off_c, 0, 48, 66
1, 628194, Note_off_c, 0, 32, 63
1, 628280, Note_on_c, 0, 54, 94
1, 628286, Note_on_c, 0, 42, 86
1, 628331, Note_off_c, 0, 54, 62
1, 628340, Note_off_c, 0, 42, 63
1, 628410, Note_on_c, 0, 36, 89
1, 628466, Note_off_c, 0, 36, 62
1, 628530, Note_on_c, 0, 43, 85
1, 628531, Note_on_c, 0, 47, 93
1, 628531, Note_on_c, 0, 55, 96
1, 628555, Note_off_c, 0, 55, 66
1, 628555, Note_off_c, 0, 47, 69
1, 628573, Note_on_c, 0, 38, 37
1, 628579, Note_off_c, 0, 43, 62
1, 628609, Note_off_c, 0, 38, 46
1, 628652, Note_on_c, 0, 32, 73
1, 628707, Note_off_c, 0, 32, 62
1, 628793, Note_on_c, 0, 42, 72
1, 628796, Note_on_c, 0, 48, 79
1, 628799, Note_on_c, 0, 43, 76
1, 628826, Note_off_c, 0, 48, 69
1, 628827, Note_off_c, 0, 43, 65
1, 628832, Note_off_c, 0, 42, 65
1, 628923, Note_on_c, 0, 36, 58
1, 628967, Note_off_c, 0, 36, 60
1, 629042, Note_on_c, 0, 41, 59
1, 629059, Note_on_c, 0, 47, 72
1, 629062, Note_on_c, 0, 55, 72
1, 629084, Note_off_c, 0, 47, 65
1, 629092, Note_off_c, 0, 41, 60
1, 629092, Note_off_c, 0, 55, 65
1, 629161, Note_on_c, 0, 32, 59
1, 629217, Note_off_c, 0, 32, 62
1, 629301, Note_on_c, 0, 48, 68
1, 629302, Note_on_c, 0, 40, 48
1, 629308, Note_on_c, 0, 43, 60
1, 629329, Note_off_c, 0, 48, 65
1, 629340, Note_off_c, 0, 43, 63
1, 629342, Note_off_c, 0, 40, 61
1, 629419, Note_on_c, 0, 36, 54
1, 629456, Note_off_c, 0, 36, 62
1, 629554, Note_on_c, 0, 55, 61
1, 629555, Note_on_c, 0, 39, 53
1, 629562, Note_on_c, 0, 47, 47
1, 629583, Note_off_c, 0, 55, 65
1, 629589, Note_off_c, 0, 47, 51
1, 629594, Note_off_c, 0, 39, 61
1, 629676, Note_on_c, 0, 32, 51
1, 629726, Note_off_c, 0, 32, 58
1, 629808, Note_on_c, 0, 48, 50
1, 629811, Note_on_c, 0, 43, 55
1, 629814, Note_on_c, 0, 38, 48
1, 629833, Note_off_c, 0, 48, 56
1, 629842, Note_off_c, 0, 43, 63
1, 629851, Note_off_c, 0, 38, 61
1, 629930, Note_on_c, 0, 36, 55
1, 629965, Note_off_c, 0, 36, 64
1, 630043, Note_on_c, 0, 47, 63
1, 630045, Note_on_c, 0, 55, 64
1, 630050, Note_on_c, 0, 37, 52
1, 630072, Note_off_c, 0, 47, 65
1, 630079, Note_off_c, 0, 55, 63
1, 630084, Note_off_c, 0, 37, 61
1, 630169, Note_on_c, 0, 32, 54
1, 630203, Note_off_c, 0, 32, 61
1, 630254, Note_on_c, 0, 43, 49
1, 630256, Note_on_c, 0, 48, 54
1, 630281, Note_off_c, 0, 48, 61
1, 630284, Note_off_c, 0, 43, 54
1, 630305, Control_c, 0, 64, 11
1, 630317, Note_on_c, 0, 36, 40
1, 630320, Control_c, 0, 64, 48
1, 630335, Control_c, 0, 64, 59
1, 630349, Control_c, 0, 64, 65
1, 630355, Note_off_c, 0, 36, 48
1, 630364, Control_c, 0, 64, 77
1, 630379, Control_c, 0, 64, 127
1, 630401, Note_on_c, 0, 36, 56
1, 630403, Note_on_c, 0, 52, 69
1, 630404, Note_on_c, 0, 64, 71
1, 630417, Note_on_c, 0, 60, 55
1, 630423, Note_off_c, 0, 52, 65
1, 630443, Note_off_c, 0, 60, 64
1, 630450, Note_off_c, 0, 36, 60
1, 630454, Note_off_c, 0, 64, 62
1, 630531, Note_on_c, 0, 43, 48
1, 630553, Note_on_c, 0, 64, 60
1, 630583, Note_off_c, 0, 43, 55
1, 630588, Note_off_c, 0, 64, 56
1, 630661, Note_on_c, 0, 32, 43
1, 630675, Note_on_c, 0, 76, 56
1, 630698, Note_off_c, 0, 76, 60
1, 630743, Poly_aftertouch_c, 0, 72, 127
1, 630744, Note_off_c, 0, 32, 52
1, 630763, Poly_aftertouch_c, 0, 72, 0
1, 630791, Note_on_c, 0, 76, 66
1, 630797, Note_on_c, 0, 42, 53
1, 630847, Note_off_c, 0, 42, 58
1, 630885, Note_off_c, 0, 76, 61
1, 630922, Note_on_c, 0, 88, 81
1, 630933, Note_on_c, 0, 84, 61
1, 630940, Note_on_c, 0, 36, 54
1, 630946, Note_off_c, 0, 88, 68
1, 630950, Note_off_c, 0, 84, 64
1, 630996, Note_off_c, 0, 36, 59
1, 631056, Note_on_c, 0, 43, 66
1, 631157, Control_c, 0, 64, 81
1, 631169, Note_off_c, 0, 43, 57
1, 631172, Control_c, 0, 64, 55
1, 631186, Note_on_c, 0, 54, 74
1, 631187, Control_c, 0, 64, 0
1, 631191, Note_on_c, 0, 51, 79
1, 631193, Note_on_c, 0, 32, 66
1, 631217, Control_c, 0, 64, 39
1, 631232, Control_c, 0, 64, 55
1, 631247, Control_c, 0, 64, 64
1, 631262, Control_c, 0, 64, 73
1, 631276, Control_c, 0, 64, 104
1, 631287, Note_off_c, 0, 32, 61
1, 631291, Control_c, 0, 64, 127
1, 631303, Note_off_c, 0, 51, 52
1, 631324, Note_on_c, 0, 42, 69
1, 631366, Note_off_c, 0, 42, 62
1, 631393, Note_off_c, 0, 54, 64
1, 631409, Control_c, 0, 64, 67
1, 631414, Note_on_c, 0, 64, 83
1, 631418, Note_on_c, 0, 52, 73
1, 631423, Note_on_c, 0, 60, 64
1, 631424, Control_c, 0, 64, 0
1, 631438, Note_on_c, 0, 36, 65
1, 631440, Note_off_c, 0, 60, 65
1, 631445, Note_off_c, 0, 52, 68
1, 631451, Note_off_c, 0, 64, 63
1, 631472, Note_off_c, 0, 36, 63
1, 631547, Note_on_c, 0, 64, 84
1, 631555, Note_on_c, 0, 43, 59
1, 631577, Note_off_c, 0, 64, 64
1, 631601, Note_off_c, 0, 43, 61
1, 631666, Note_on_c, 0, 60, 78
1, 631679, Note_on_c, 0, 32, 58
1, 631688, Note_off_c, 0, 60, 71
1, 631718, Note_off_c, 0, 32, 62
1, 631813, Note_on_c, 0, 42, 62
1, 631819, Note_on_c, 0, 53, 56
1, 631828, Note_on_c, 0, 55, 43
1, 631843, Note_off_c, 0, 53, 62
1, 631858, Note_off_c, 0, 55, 53
1, 631858, Note_off_c, 0, 42, 60
1, 631926, Note_on_c, 0, 54, 82
1, 631936, Note_on_c, 0, 36, 58
1, 631954, Note_off_c, 0, 54, 71
1, 631972, Note_off_c, 0, 36, 62
1, 632049, Note_on_c, 0, 51, 83
1, 632061, Note_on_c, 0, 43, 58
1, 632073, Note_off_c, 0, 51, 70
1, 632106, Note_off_c, 0, 43, 61
1, 632183, Note_on_c, 0, 32, 56
1, 632217, Note_off_c, 0, 32, 63
1, 632308, Note_on_c, 0, 42, 60
1, 632340, Note_off_c, 0, 42, 62
1, 632409, Note_on_c, 0, 55, 62
1, 632412, Note_on_c, 0, 52, 55
1, 632412, Note_on_c, 0, 60, 69
1, 632426, Control_c, 0, 64, 52
1, 632430, Note_off_c, 0, 55, 60
1, 632432, Note_on_c, 0, 36, 56
1, 632436, Note_off_c, 0, 52, 59
1, 632440, Control_c, 0, 64, 63
1, 632442, Note_off_c, 0, 60, 68
1, 632463, Control_c, 0, 64, 70
1, 632475, Note_off_c, 0, 36, 63
1, 632478, Control_c, 0, 64, 88
1, 632493, Control_c, 0, 64, 127
1, 632561, Note_on_c, 0, 64, 66
1, 632563, Note_on_c, 0, 43, 53
1, 632613, Note_off_c, 0, 43, 58
1, 632632, Note_off_c, 0, 64, 61
1, 632678, Note_on_c, 0, 72, 69
1, 632684, Note_on_c, 0, 67, 64
1, 632684, Note_on_c, 0, 32, 59
1, 632722, Note_off_c, 0, 67, 61
1, 632725, Note_off_c, 0, 72, 56
1, 632737, Note_off_c, 0, 32, 62
1, 632817, Note_on_c, 0, 42, 61
1, 632818, Note_on_c, 0, 64, 34
1, 632850, Note_off_c, 0, 64, 53
1, 632861, Note_off_c, 0, 42, 61
1, 632932, Note_on_c, 0, 55, 67
1, 632932, Note_on_c, 0, 60, 60
1, 632937, Note_on_c, 0, 36, 62
1, 632999, Note_off_c, 0, 36, 56
1, 633001, Note_off_c, 0, 55, 62
1, 633051, Note_on_c, 0, 52, 67
1, 633058, Note_on_c, 0, 43, 66
1, 633088, Note_off_c, 0, 52, 64
1, 633137, Note_off_c, 0, 43, 60
1, 633141, Note_off_c, 0, 60, 64
1, 633145, Control_c, 0, 64, 80
1, 633160, Control_c, 0, 64, 50
1, 633175, Control_c, 0, 64, 0
1, 633178, Note_on_c, 0, 62, 70
1, 633184, Note_on_c, 0, 32, 71
1, 633188, Note_on_c, 0, 54, 70
1, 633191, Note_on_c, 0, 51, 83
1, 633231, Note_off_c, 0, 62, 62
1, 633239, Note_off_c, 0, 54, 63
1, 633256, Control_c, 0, 64, 56
1, 633257, Note_off_c, 0, 51, 64
1, 633271, Control_c, 0, 64, 73
1, 633286, Control_c, 0, 64, 127
1, 633315, Note_on_c, 0, 42, 80
1, 633346, Note_off_c, 0, 32, 45
1, 633384, Note_off_c, 0, 42, 61
1, 633404, Control_c, 0, 64, 82
1, 633419, Control_c, 0, 64, 58
1, 633434, Control_c, 0, 64, 0
1, 633438, Note_on_c, 0, 55, 78
1, 633438, Note_on_c, 0, 45, 79
1, 633441, Note_on_c, 0, 48, 62
1, 633442, Note_on_c, 0, 31, 77
1, 633448, Note_on_c, 0, 53, 73
1, 633472, Note_off_c, 0, 45, 67
1, 633478, Control_c, 0, 64, 43
1, 633479, Note_off_c, 0, 48, 67
1, 633493, Control_c, 0, 64, 60
1, 633502, Note_off_c, 0, 55, 65
1, 633507, Note_off_c, 0, 53, 64
1, 633508, Note_off_c, 0, 31, 62
1, 633508, Control_c, 0, 64, 70
1, 633523, Control_c, 0, 64, 92
1, 633537, Control_c, 0, 64, 127
1, 633579, Note_on_c, 0, 43, 75
1, 633657, Note_off_c, 0, 43, 61
1, 633670, Control_c, 0, 64, 105
1, 633685, Control_c, 0, 64, 70
1, 633700, Control_c, 0, 64, 40
1, 633702, Note_on_c, 0, 67, 84
1, 633703, Note_on_c, 0, 60, 78
1, 633706, Note_on_c, 0, 41, 89
1, 633706, Note_on_c, 0, 57, 85
1, 633706, Note_on_c, 0, 65, 81
1, 633715, Control_c, 0, 64, 0
1, 633725, Note_off_c, 0, 57, 72
1, 633745, Control_c, 0, 64, 39
1, 633760, Note_off_c, 0, 60, 65
1, 633760, Control_c, 0, 64, 57
1, 633775, Control_c, 0, 64, 65
1, 633778, Note_off_c, 0, 67, 65
1, 633783, Note_off_c, 0, 65, 62
1, 633789, Control_c, 0, 64, 76
1, 633804, Control_c, 0, 64, 127
1, 633819, Note_on_c, 0, 57, 11
1, 633829, Note_on_c, 0, 44, 86
1, 633839, Note_off_c, 0, 41, 55
1, 633867, Note_on_c, 0, 43, 63
1, 633867, Note_off_c, 0, 57, 51
1, 633906, Note_off_c, 0, 44, 56
1, 633918, Note_off_c, 0, 43, 61
1, 633938, Control_c, 0, 64, 75
1, 633960, Control_c, 0, 64, 48
1, 633967, Note_on_c, 0, 79, 93
1, 633968, Note_on_c, 0, 40, 86
1, 633971, Note_on_c, 0, 72, 77
1, 633971, Note_on_c, 0, 77, 87
1, 633972, Note_on_c, 0, 69, 89
1, 633975, Control_c, 0, 64, 0
1, 634005, Control_c, 0, 64, 36
1, 634016, Note_off_c, 0, 69, 64
1, 634019, Control_c, 0, 64, 58
1, 634033, Note_off_c, 0, 72, 65
1, 634034, Control_c, 0, 64, 67
1, 634047, Note_off_c, 0, 79, 68
1, 634049, Control_c, 0, 64, 84
1, 634051, Note_off_c, 0, 77, 65
1, 634064, Control_c, 0, 64, 127
1, 634091, Note_on_c, 0, 45, 85
1, 634138, Note_off_c, 0, 40, 54
1, 634174, Note_off_c, 0, 45, 63
1, 634193, Poly_aftertouch_c, 0, 43, 127
1, 634198, Control_c, 0, 64, 69
1, 634210, Note_on_c, 0, 38, 88
1, 634212, Control_c, 0, 64, 0
1, 634214, Note_on_c, 0, 91, 95
1, 634221, Note_on_c, 0, 89, 92
1, 634222, Note_on_c, 0, 81, 90
1, 634223, Note_on_c, 0, 84, 82
1, 634257, Control_c, 0, 64, 23
1, 634261, Note_off_c, 0, 91, 66
1, 634272, Control_c, 0, 64, 59
1, 634280, Note_off_c, 0, 89, 65
1, 634286, Control_c, 0, 64, 77
1, 634287, Poly_aftertouch_c, 0, 43, 0
1, 634290, Note_off_c, 0, 81, 67
1, 634290, Note_off_c, 0, 84, 64
1, 634301, Control_c, 0, 64, 127
1, 634341, Note_on_c, 0, 47, 85
1, 634359, Note_off_c, 0, 38, 59
1, 634405, Note_off_c, 0, 47, 63
1, 634419, Control_c, 0, 64, 70
1, 634434, Control_c, 0, 64, 35
1, 634449, Control_c, 0, 64, 47
1, 634455, Note_on_c, 0, 36, 94
1, 634464, Control_c, 0, 64, 65
1, 634471, Note_on_c, 0, 38, 60
1, 634478, Control_c, 0, 64, 87
1, 634484, Note_off_c, 0, 36, 68
1, 634493, Note_off_c, 0, 38, 62
1, 634493, Control_c, 0, 64, 127
1, 634523, Control_c, 0, 64, 78
1, 634538, Control_c, 0, 64, 41
1, 634553, Control_c, 0, 64, 0
1, 634591, Note_on_c, 0, 60, 67
1, 634594, Note_on_c, 0, 64, 66
1, 634598, Note_on_c, 0, 55, 75
1, 634621, Note_off_c, 0, 60, 66
1, 634621, Note_off_c, 0, 64, 67
1, 634632, Note_off_c, 0, 55, 65
1, 634722, Note_on_c, 0, 65, 71
1, 634727, Note_on_c, 0, 62, 67
1, 634731, Note_on_c, 0, 52, 62
1, 634755, Note_off_c, 0, 62, 66
1, 634757, Note_off_c, 0, 65, 63
1, 634770, Note_off_c, 0, 52, 62
1, 634843, Note_on_c, 0, 64, 77
1, 634843, Note_on_c, 0, 67, 76
1, 634854, Note_on_c, 0, 60, 63
1, 634872, Note_off_c, 0, 64, 66
1, 634876, Note_off_c, 0, 67, 62
1, 634893, Note_off_c, 0, 60, 63
1, 634961, Note_on_c, 0, 69, 88
1, 634963, Note_on_c, 0, 65, 81
1, 634976, Note_on_c, 0, 47, 60
1, 634987, Note_off_c, 0, 65, 67
1, 635002, Note_off_c, 0, 69, 64
1, 635014, Note_off_c, 0, 47, 61
1, 635099, Note_on_c, 0, 60, 57
1, 635099, Note_on_c, 0, 64, 61
1, 635111, Note_on_c, 0, 55, 59
1, 635132, Note_off_c, 0, 60, 66
1, 635133, Note_off_c, 0, 64, 63
1, 635146, Note_off_c, 0, 55, 63
1, 635219, Note_on_c, 0, 64, 74
1, 635220, Note_on_c, 0, 67, 74
1, 635227, Note_on_c, 0, 52, 58
1, 635245, Note_off_c, 0, 64, 67
1, 635261, Note_off_c, 0, 67, 63
1, 635298, Note_off_c, 0, 52, 60
1, 635344, Note_on_c, 0, 67, 71
1, 635344, Note_on_c, 0, 71, 74
1, 635351, Note_on_c, 0, 64, 69
1, 635370, Note_off_c, 0, 67, 67
1, 635379, Note_off_c, 0, 64, 68
1, 635384, Note_off_c, 0, 71, 63
1, 635468, Note_on_c, 0, 68, 91
1, 635473, Note_on_c, 0, 71, 84
1, 635477, Note_on_c, 0, 46, 74
1, 635510, Note_off_c, 0, 71, 63
1, 635511, Note_off_c, 0, 46, 66
1, 635513, Note_off_c, 0, 68, 62
1, 635598, Note_on_c, 0, 72, 69
1, 635599, Note_on_c, 0, 69, 76
1, 635599, Note_on_c, 0, 54, 66
1, 635616, Note_off_c, 0, 72, 65
1, 635628, Note_off_c, 0, 69, 62
1, 635669, Note_off_c, 0, 54, 64
1, 635719, Note_on_c, 0, 60, 69
1, 635724, Note_on_c, 0, 77, 78
1, 635726, Note_on_c, 0, 73, 79
1, 635754, Note_off_c, 0, 73, 63
1, 635764, Note_off_c, 0, 77, 60
1, 635766, Note_off_c, 0, 60, 62
1, 635842, Note_on_c, 0, 57, 77
1, 635849, Note_on_c, 0, 78, 84
1, 635850, Note_on_c, 0, 81, 74
1, 635853, Note_on_c, 0, 72, 77
1, 635883, Note_off_c, 0, 81, 57
1, 635885, Note_off_c, 0, 72, 60
1, 635898, Note_off_c, 0, 78, 63
1, 635903, Note_off_c, 0, 57, 63
1, 635965, Note_on_c, 0, 58, 94
1, 635968, Note_on_c, 0, 75, 99
1, 635968, Note_on_c, 0, 79, 91
1, 635970, Note_on_c, 0, 70, 96
1, 635977, Control_c, 0, 64, 57
1, 635991, Control_c, 0, 64, 69
1, 636006, Control_c, 0, 64, 119
1, 636021, Control_c, 0, 64, 127
1, 636038, Note_off_c, 0, 79, 59
1, 636076, Note_off_c, 0, 70, 63
1, 636080, Note_off_c, 0, 58, 62
1, 636084, Note_off_c, 0, 75, 61
1, 636097, Note_on_c, 0, 63, 84
1, 636186, Note_off_c, 0, 63, 61
1, 636225, Note_on_c, 0, 67, 92
1, 636261, Note_off_c, 0, 67, 67
1, 636336, Poly_aftertouch_c, 0, 60, 0
1, 636344, Note_on_c, 0, 70, 90
1, 636409, Note_off_c, 0, 70, 63
1, 636468, Note_on_c, 0, 44, 87
1, 636469, Note_on_c, 0, 75, 90
1, 636474, Control_c, 0, 64, 81
1, 636488, Control_c, 0, 64, 54
1, 636503, Control_c, 0, 64, 0
1, 636517, Note_off_c, 0, 75, 66
1, 636529, Note_off_c, 0, 44, 62
1, 636600, Note_on_c, 0, 52, 68
1, 636603, Note_on_c, 0, 70, 75
1, 636603, Note_on_c, 0, 67, 68
1, 636630, Note_off_c, 0, 67, 68
1, 636643, Note_off_c, 0, 52, 57
1, 636643, Note_off_c, 0, 70, 61
1, 636720, Note_on_c, 0, 59, 77
1, 636723, Note_on_c, 0, 71, 60
1, 636726, Note_on_c, 0, 68, 56
1, 636750, Note_off_c, 0, 68, 54
1, 636769, Note_off_c, 0, 71, 63
1, 636776, Note_off_c, 0, 59, 62
1, 636819, Note_on_c, 0, 73, 67
1, 636824, Note_on_c, 0, 56, 80
1, 636837, Note_on_c, 0, 70, 65
1, 636863, Note_off_c, 0, 56, 65
1, 636878, Note_off_c, 0, 70, 61
1, 636885, Note_off_c, 0, 73, 0
1, 636922, Poly_aftertouch_c, 0, 73, 127
1, 636926, Note_on_c, 0, 71, 74
1, 636927, Note_on_c, 0, 75, 71
1, 636932, Note_on_c, 0, 43, 96
1, 636949, Poly_aftertouch_c, 0, 73, 0
1, 636960, Note_off_c, 0, 71, 66
1, 636970, Control_c, 0, 64, 45
1, 636975, Note_off_c, 0, 43, 64
1, 636981, Note_off_c, 0, 75, 62
1, 636985, Control_c, 0, 64, 66
1, 637000, Control_c, 0, 64, 96
1, 637014, Control_c, 0, 64, 127
1, 637039, Note_on_c, 0, 74, 57
1, 637047, Note_on_c, 0, 76, 55
1, 637059, Note_off_c, 0, 74, 60
1, 637069, Note_off_c, 0, 76, 63
1, 637077, Note_on_c, 0, 53, 89
1, 637092, Note_on_c, 0, 81, 57
1, 637098, Note_on_c, 0, 83, 55
1, 637112, Note_off_c, 0, 81, 63
1, 637116, Note_off_c, 0, 83, 62
1, 637149, Note_on_c, 0, 88, 90
1, 637200, Note_on_c, 0, 95, 102
1, 637203, Note_off_c, 0, 88, 66
1, 637203, Note_on_c, 0, 65, 97
1, 637205, Note_on_c, 0, 100, 102
1, 637232, Note_off_c, 0, 95, 68
1, 637242, Note_off_c, 0, 100, 67
1, 637248, Note_off_c, 0, 53, 58
1, 637276, Note_off_c, 0, 65, 68
1, 637329, Note_on_c, 0, 59, 85
1, 637367, Note_off_c, 0, 59, 65
1, 637406, Poly_aftertouch_c, 0, 57, 127
1, 637438, Poly_aftertouch_c, 0, 57, 0
1, 637444, Control_c, 0, 64, 66
1, 637459, Control_c, 0, 64, 0
1, 637488, Note_on_c, 0, 60, 104
1, 637492, Note_on_c, 0, 36, 98
1, 637503, Control_c, 0, 64, 32
1, 637518, Control_c, 0, 64, 60
1, 637528, Note_off_c, 0, 60, 69
1, 637533, Control_c, 0, 64, 73
1, 637542, Note_off_c, 0, 36, 65
1, 637548, Control_c, 0, 64, 127
1, 637623, Note_on_c, 0, 55, 82
1, 637661, Note_off_c, 0, 55, 61
1, 637747, Note_on_c, 0, 42, 99
1, 637824, Note_off_c, 0, 42, 58
1, 637851, Control_c, 0, 64, 123
1, 637855, Note_on_c, 0, 48, 96
1, 637867, Control_c, 0, 64, 107
1, 637874, Note_on_c, 0, 50, 59
1, 637875, Note_off_c, 0, 50, 127
1, 637882, Control_c, 0, 64, 113
1, 637897, Note_off_c, 0, 48, 65
1, 637897, Control_c, 0, 64, 127
1, 637956, Control_c, 0, 64, 109
1, 637971, Control_c, 0, 64, 73
1, 637986, Note_on_c, 0, 36, 88
1, 637986, Control_c, 0, 64, 9
1, 638001, Control_c, 0, 64, 0
1, 638039, Note_off_c, 0, 36, 64
1, 638121, Note_on_c, 0, 43, 73
1, 638178, Note_off_c, 0, 43, 59
1, 638236, Note_on_c, 0, 32, 79
1, 638288, Note_off_c, 0, 32, 61
1, 638369, Note_on_c, 0, 42, 76
1, 638434, Note_off_c, 0, 42, 63
1, 638470, Note_on_c, 0, 81, 92
1, 638476, Note_on_c, 0, 78, 88
1, 638481, Control_c, 0, 64, 36
1, 638482, Note_on_c, 0, 36, 81
1, 638496, Control_c, 0, 64, 53
1, 638511, Control_c, 0, 64, 60
1, 638526, Control_c, 0, 64, 65
1, 638541, Control_c, 0, 64, 77
1, 638547, Note_off_c, 0, 36, 58
1, 638547, Note_off_c, 0, 81, 65
1, 638550, Note_on_c, 0, 74, 86
1, 638551, Note_off_c, 0, 78, 57
1, 638556, Control_c, 0, 64, 127
1, 638601, Note_on_c, 0, 43, 73
1, 638623, Note_on_c, 0, 78, 89
1, 638623, Note_on_c, 0, 81, 80
1, 638632, Note_off_c, 0, 74, 61
1, 638650, Note_off_c, 0, 81, 67
1, 638659, Note_off_c, 0, 78, 63
1, 638660, Control_c, 0, 64, 113
1, 638675, Control_c, 0, 64, 71
1, 638679, Note_off_c, 0, 43, 60
1, 638690, Control_c, 0, 64, 43
1, 638696, Note_on_c, 0, 78, 90
1, 638699, Note_on_c, 0, 81, 85
1, 638705, Control_c, 0, 64, 0
1, 638717, Note_on_c, 0, 32, 77
1, 638735, Control_c, 0, 64, 34
1, 638750, Control_c, 0, 64, 51
1, 638757, Note_off_c, 0, 78, 66
1, 638764, Control_c, 0, 64, 62
1, 638771, Note_on_c, 0, 74, 88
1, 638779, Control_c, 0, 64, 68
1, 638779, Note_off_c, 0, 32, 62
1, 638780, Note_off_c, 0, 81, 64
1, 638794, Control_c, 0, 64, 80
1, 638809, Control_c, 0, 64, 127
1, 638824, Note_off_c, 0, 74, 0
1, 638832, Note_on_c, 0, 42, 79
1, 638836, Note_on_c, 0, 81, 77
1, 638837, Note_on_c, 0, 78, 91
1, 638846, Note_on_c, 0, 79, 73
1, 638851, Poly_aftertouch_c, 0, 74, 0
1, 638862, Note_off_c, 0, 79, 64
1, 638868, Control_c, 0, 64, 81
1, 638880, Note_off_c, 0, 78, 66
1, 638881, Note_off_c, 0, 81, 65
1, 638882, Note_off_c, 0, 42, 62
1, 638882, Control_c, 0, 64, 60
1, 638897, Control_c, 0, 64, 0
1, 638917, Note_on_c, 0, 81, 91
1, 638923, Note_on_c, 0, 74, 94
1, 638923, Note_on_c, 0, 78, 87
1, 638941, Control_c, 0, 64, 28
1, 638942, Note_on_c, 0, 36, 81
1, 638955, Control_c, 0, 64, 58
1, 638964, Note_off_c, 0, 78, 65
1, 638969, Note_off_c, 0, 74, 61
1, 638970, Note_off_c, 0, 81, 65
1, 638970, Control_c, 0, 64, 69
1, 638985, Control_c, 0, 64, 96
1, 639000, Control_c, 0, 64, 127
1, 639015, Note_off_c, 0, 36, 50
1, 639071, Note_on_c, 0, 43, 62
1, 639098, Note_on_c, 0, 79, 90
1, 639104, Note_on_c, 0, 76, 79
1, 639104, Note_on_c, 0, 71, 82
1, 639126, Note_off_c, 0, 79, 65
1, 639127, Note_off_c, 0, 71, 69
1, 639127, Note_off_c, 0, 76, 69
1, 639134, Control_c, 0, 64, 85
1, 639139, Note_off_c, 0, 43, 59
1, 639148, Control_c, 0, 64, 59
1, 639163, Control_c, 0, 64, 0
1, 639172, Note_on_c, 0, 76, 92
1, 639172, Note_on_c, 0, 79, 89
1, 639179, Note_on_c, 0, 32, 69
1, 639181, Note_on_c, 0, 71, 80
1, 639211, Note_off_c, 0, 71, 65
1, 639217, Note_off_c, 0, 32, 64
1, 639218, Note_off_c, 0, 76, 64
1, 639226, Note_off_c, 0, 79, 62
1, 639324, Note_on_c, 0, 42, 63
1, 639345, Note_on_c, 0, 78, 83
1, 639348, Note_on_c, 0, 69, 82
1, 639348, Note_on_c, 0, 74, 69
1, 639361, Note_off_c, 0, 42, 65
1, 639368, Note_off_c, 0, 78, 69
1, 639369, Note_off_c, 0, 69, 70
1, 639375, Note_off_c, 0, 74, 68
1, 639418, Note_on_c, 0, 78, 91
1, 639428, Note_on_c, 0, 69, 82
1, 639428, Note_on_c, 0, 74, 81
1, 639437, Note_on_c, 0, 36, 66
1, 639451, Note_off_c, 0, 74, 69
1, 639456, Note_off_c, 0, 69, 65
1, 639470, Note_off_c, 0, 78, 65
1, 639477, Note_off_c, 0, 36, 62
1, 639563, Note_on_c, 0, 43, 58
1, 639586, Note_on_c, 0, 67, 81
1, 639586, Note_on_c, 0, 76, 82
1, 639590, Note_on_c, 0, 71, 74
1, 639611, Note_off_c, 0, 76, 68
1, 639612, Note_off_c, 0, 67, 65
1, 639614, Note_off_c, 0, 71, 69
1, 639618, Note_off_c, 0, 43, 60
1, 639659, Note_on_c, 0, 76, 85
1, 639663, Note_on_c, 0, 71, 89
1, 639665, Note_on_c, 0, 67, 78
1, 639675, Note_on_c, 0, 32, 67
1, 639692, Note_off_c, 0, 71, 63
1, 639693, Note_off_c, 0, 67, 65
1, 639696, Note_off_c, 0, 76, 67
1, 639701, Note_off_c, 0, 32, 63
1, 639802, Note_on_c, 0, 42, 62
1, 639824, Note_on_c, 0, 66, 78
1, 639829, Note_on_c, 0, 74, 77
1, 639832, Note_on_c, 0, 69, 73
1, 639841, Note_off_c, 0, 42, 62
1, 639846, Note_off_c, 0, 66, 69
1, 639851, Note_off_c, 0, 74, 69
1, 639858, Note_off_c, 0, 69, 70
1, 639897, Note_on_c, 0, 74, 93
1, 639900, Note_on_c, 0, 66, 84
1, 639907, Note_on_c, 0, 69, 81
1, 639918, Note_on_c, 0, 36, 65
1, 639929, Note_off_c, 0, 69, 70
1, 639939, Note_off_c, 0, 74, 64
1, 639956, Note_off_c, 0, 66, 59
1, 639965, Note_off_c, 0, 36, 61
1, 640059, Note_on_c, 0, 43, 56
1, 640079, Note_on_c, 0, 67, 78
1, 640082, Note_on_c, 0, 71, 68
1, 640082, Note_on_c, 0, 76, 73
1, 640101, Note_off_c, 0, 67, 69
1, 640103, Note_off_c, 0, 43, 62
1, 640106, Note_off_c, 0, 71, 69
1, 640109, Note_off_c, 0, 76, 69
1, 640145, Note_on_c, 0, 71, 86
1, 640145, Note_on_c, 0, 76, 88
1, 640151, Note_on_c, 0, 67, 76
1, 640163, Note_on_c, 0, 32, 71
1, 640189, Note_off_c, 0, 71, 59
1, 640192, Note_off_c, 0, 76, 64
1, 640196, Note_off_c, 0, 67, 63
1, 640212, Note_off_c, 0, 32, 62
1, 640280, Note_on_c, 0, 42, 72
1, 640295, Note_on_c, 0, 74, 68
1, 640296, Note_on_c, 0, 69, 82
1, 640307, Note_off_c, 0, 42, 65
1, 640320, Note_off_c, 0, 74, 64
1, 640321, Note_off_c, 0, 69, 67
1, 640346, Note_on_c, 0, 78, 75
1, 640357, Note_on_c, 0, 73, 85
1, 640368, Note_on_c, 0, 36, 90
1, 640370, Note_on_c, 0, 72, 86
1, 640371, Note_off_c, 0, 73, 69
1, 640394, Control_c, 0, 64, 36
1, 640409, Control_c, 0, 64, 65
1, 640414, Note_off_c, 0, 78, 63
1, 640424, Control_c, 0, 64, 85
1, 640428, Note_off_c, 0, 72, 64
1, 640430, Note_on_c, 0, 68, 88
1, 640439, Control_c, 0, 64, 127
1, 640487, Note_off_c, 0, 36, 51
1, 640490, Note_on_c, 0, 43, 71
1, 640508, Note_on_c, 0, 72, 84
1, 640514, Note_on_c, 0, 78, 73
1, 640517, Note_off_c, 0, 68, 58
1, 640526, Note_off_c, 0, 72, 71
1, 640535, Note_off_c, 0, 78, 64
1, 640549, Note_off_c, 0, 43, 60
1, 640580, Note_on_c, 0, 72, 92
1, 640580, Note_on_c, 0, 78, 96
1, 640594, Note_on_c, 0, 32, 81
1, 640640, Note_off_c, 0, 72, 59
1, 640648, Note_on_c, 0, 68, 89
1, 640661, Note_off_c, 0, 78, 61
1, 640714, Note_on_c, 0, 42, 80
1, 640723, Note_on_c, 0, 78, 74
1, 640726, Note_on_c, 0, 72, 86
1, 640732, Note_off_c, 0, 32, 59
1, 640738, Note_off_c, 0, 68, 60
1, 640753, Note_off_c, 0, 78, 63
1, 640764, Note_off_c, 0, 72, 65
1, 640772, Control_c, 0, 64, 87
1, 640773, Note_off_c, 0, 42, 62
1, 640787, Control_c, 0, 64, 57
1, 640801, Note_on_c, 0, 78, 92
1, 640801, Control_c, 0, 64, 0
1, 640809, Note_on_c, 0, 68, 90
1, 640811, Note_on_c, 0, 72, 85
1, 640818, Note_on_c, 0, 36, 85
1, 640842, Note_off_c, 0, 72, 58
1, 640846, Control_c, 0, 64, 31
1, 640857, Note_off_c, 0, 78, 66
1, 640860, Control_c, 0, 64, 56
1, 640864, Note_off_c, 0, 68, 62
1, 640875, Control_c, 0, 64, 67
1, 640890, Control_c, 0, 64, 83
1, 640905, Note_off_c, 0, 36, 52
1, 640905, Control_c, 0, 64, 127
1, 640951, Note_on_c, 0, 43, 64
1, 640979, Note_on_c, 0, 76, 87
1, 640982, Note_on_c, 0, 67, 80
1, 640994, Note_on_c, 0, 71, 53
1, 641004, Note_on_c, 0, 72, 47
1, 641006, Note_off_c, 0, 67, 68
1, 641008, Note_off_c, 0, 43, 60
1, 641008, Note_off_c, 0, 76, 63
1, 641009, Control_c, 0, 64, 81
1, 641015, Note_off_c, 0, 71, 63
1, 641024, Control_c, 0, 64, 58
1, 641032, Note_off_c, 0, 72, 54
1, 641039, Control_c, 0, 64, 0
1, 641057, Note_on_c, 0, 76, 81
1, 641060, Note_on_c, 0, 32, 70
1, 641066, Note_on_c, 0, 71, 87
1, 641069, Note_on_c, 0, 67, 65
1, 641083, Note_off_c, 0, 32, 63
1, 641083, Note_off_c, 0, 76, 65
1, 641090, Note_off_c, 0, 67, 63
1, 641097, Note_off_c, 0, 71, 60
1, 641189, Note_on_c, 0, 42, 68
1, 641224, Note_on_c, 0, 74, 82
1, 641227, Note_on_c, 0, 66, 79
1, 641227, Note_on_c, 0, 70, 70
1, 641233, Note_off_c, 0, 42, 61
1, 641245, Note_off_c, 0, 74, 69
1, 641251, Note_off_c, 0, 66, 69
1, 641251, Note_off_c, 0, 70, 69
1, 641305, Note_on_c, 0, 74, 87
1, 641309, Note_on_c, 0, 66, 75
1, 641310, Note_on_c, 0, 70, 78
1, 641319, Note_on_c, 0, 36, 64
1, 641335, Note_off_c, 0, 70, 67
1, 641336, Note_off_c, 0, 66, 66
1, 641338, Note_off_c, 0, 74, 64
1, 641351, Note_off_c, 0, 36, 63
1, 641451, Note_on_c, 0, 43, 56
1, 641495, Note_on_c, 0, 65, 70
1, 641495, Note_on_c, 0, 72, 72
1, 641498, Note_off_c, 0, 43, 59
1, 641501, Note_on_c, 0, 69, 57
1, 641520, Note_off_c, 0, 72, 69
1, 641523, Note_off_c, 0, 65, 68
1, 641523, Note_off_c, 0, 69, 59
1, 641558, Note_on_c, 0, 32, 65
1, 641566, Note_on_c, 0, 72, 87
1, 641575, Note_on_c, 0, 65, 73
1, 641583, Note_on_c, 0, 69, 72
1, 641588, Note_off_c, 0, 32, 63
1, 641600, Note_off_c, 0, 72, 61
1, 641602, Note_off_c, 0, 65, 66
1, 641608, Note_off_c, 0, 69, 70
1, 641689, Note_on_c, 0, 42, 63
1, 641731, Note_on_c, 0, 70, 75
1, 641737, Note_on_c, 0, 64, 67
1, 641739, Note_off_c, 0, 42, 63
1, 641745, Note_on_c, 0, 68, 47
1, 641754, Note_off_c, 0, 70, 70
1, 641766, Note_off_c, 0, 64, 68
1, 641769, Note_off_c, 0, 68, 57
1, 641802, Note_on_c, 0, 70, 92
1, 641809, Note_on_c, 0, 36, 70
1, 641814, Note_on_c, 0, 64, 73
1, 641814, Note_on_c, 0, 68, 76
1, 641840, Note_off_c, 0, 64, 70
1, 641847, Note_off_c, 0, 68, 61
1, 641850, Note_off_c, 0, 70, 64
1, 641854, Note_off_c, 0, 36, 60
1, 641940, Note_on_c, 0, 43, 60
1, 641963, Note_on_c, 0, 67, 69
1, 641966, Note_on_c, 0, 63, 69
1, 641972, Note_on_c, 0, 71, 62
1, 641984, Note_off_c, 0, 63, 65
1, 641990, Note_off_c, 0, 67, 64
1, 641992, Note_off_c, 0, 71, 61
1, 641996, Note_off_c, 0, 43, 60
1, 642023, Note_on_c, 0, 71, 80
1, 642035, Note_on_c, 0, 63, 71
1, 642041, Note_on_c, 0, 67, 70
1, 642045, Note_on_c, 0, 32, 69
1, 642060, Note_off_c, 0, 63, 68
1, 642069, Note_off_c, 0, 67, 66
1, 642092, Note_off_c, 0, 71, 56
1, 642125, Note_off_c, 0, 32, 62
1, 642169, Note_on_c, 0, 42, 69
1, 642170, Note_on_c, 0, 66, 66
1, 642208, Note_off_c, 0, 66, 66
1, 642214, Note_off_c, 0, 42, 65
1, 642255, Control_c, 0, 64, 29
1, 642264, Note_on_c, 0, 71, 77
1, 642269, Note_on_c, 0, 68, 79
1, 642270, Control_c, 0, 64, 48
1, 642277, Note_on_c, 0, 36, 74
1, 642285, Control_c, 0, 64, 56
1, 642300, Control_c, 0, 64, 62
1, 642306, Note_on_c, 0, 70, 25
1, 642315, Control_c, 0, 64, 68
1, 642320, Note_off_c, 0, 71, 64
1, 642325, Note_off_c, 0, 68, 63
1, 642330, Control_c, 0, 64, 84
1, 642336, Note_on_c, 0, 64, 76
1, 642345, Control_c, 0, 64, 127
1, 642348, Note_off_c, 0, 70, 30
1, 642389, Note_on_c, 0, 68, 79
1, 642390, Note_on_c, 0, 43, 73
1, 642390, Note_on_c, 0, 71, 74
1, 642401, Note_off_c, 0, 64, 64
1, 642413, Note_off_c, 0, 71, 68
1, 642419, Note_off_c, 0, 68, 64
1, 642420, Note_off_c, 0, 36, 45
1, 642450, Note_off_c, 0, 43, 61
1, 642494, Control_c, 0, 64, 70
1, 642495, Note_on_c, 0, 32, 85
1, 642499, Note_on_c, 0, 59, 83
1, 642507, Note_on_c, 0, 56, 79
1, 642508, Control_c, 0, 64, 0
1, 642547, Note_off_c, 0, 56, 60
1, 642553, Control_c, 0, 64, 35
1, 642561, Note_on_c, 0, 52, 81
1, 642564, Note_off_c, 0, 59, 61
1, 642568, Control_c, 0, 64, 55
1, 642582, Control_c, 0, 64, 66
1, 642597, Control_c, 0, 64, 84
1, 642603, Note_on_c, 0, 56, 79
1, 642604, Note_on_c, 0, 59, 54
1, 642606, Note_off_c, 0, 52, 67
1, 642612, Control_c, 0, 64, 127
1, 642626, Note_on_c, 0, 42, 82
1, 642627, Note_off_c, 0, 56, 69
1, 642640, Note_off_c, 0, 59, 66
1, 642652, Note_off_c, 0, 32, 61
1, 642687, Note_off_c, 0, 42, 63
1, 642702, Control_c, 0, 64, 72
1, 642716, Control_c, 0, 64, 25
1, 642731, Control_c, 0, 64, 0
1, 642736, Note_on_c, 0, 83, 103
1, 642738, Note_on_c, 0, 76, 99
1, 642741, Note_on_c, 0, 80, 96
1, 642747, Note_on_c, 0, 36, 87
1, 642769, Note_off_c, 0, 83, 61
1, 642770, Note_off_c, 0, 76, 63
1, 642771, Note_on_c, 0, 81, 53
1, 642776, Control_c, 0, 64, 42
1, 642791, Control_c, 0, 64, 61
1, 642793, Note_off_c, 0, 81, 42
1, 642795, Note_off_c, 0, 80, 64
1, 642805, Control_c, 0, 64, 73
1, 642820, Control_c, 0, 64, 127
1, 642899, Note_on_c, 0, 43, 70
1, 642908, Note_on_c, 0, 69, 91
1, 642909, Note_on_c, 0, 61, 93
1, 642911, Note_off_c, 0, 36, 49
1, 642919, Note_on_c, 0, 66, 65
1, 642931, Note_off_c, 0, 61, 66
1, 642945, Note_off_c, 0, 66, 64
1, 642945, Note_off_c, 0, 69, 60
1, 642946, Control_c, 0, 64, 93
1, 642961, Control_c, 0, 64, 58
1, 642965, Note_off_c, 0, 43, 62
1, 642976, Control_c, 0, 64, 0
1, 642984, Note_on_c, 0, 69, 87
1, 642989, Note_on_c, 0, 61, 88
1, 643000, Note_on_c, 0, 66, 82
1, 643006, Note_on_c, 0, 32, 80
1, 643014, Note_off_c, 0, 61, 69
1, 643035, Control_c, 0, 64, 25
1, 643037, Note_off_c, 0, 69, 65
1, 643042, Note_off_c, 0, 66, 59
1, 643049, Control_c, 0, 64, 58
1, 643064, Control_c, 0, 64, 68
1, 643079, Control_c, 0, 64, 87
1, 643094, Control_c, 0, 64, 127
1, 643144, Note_on_c, 0, 42, 79
1, 643144, Note_off_c, 0, 32, 50
1, 643146, Note_on_c, 0, 80, 91
1, 643150, Note_on_c, 0, 76, 81
1, 643151, Note_on_c, 0, 71, 85
1, 643173, Note_off_c, 0, 80, 59
1, 643175, Note_off_c, 0, 71, 66
1, 643179, Note_off_c, 0, 42, 64
1, 643179, Note_off_c, 0, 76, 66
1, 643212, Control_c, 0, 64, 75
1, 643216, Note_on_c, 0, 80, 95
1, 643224, Note_on_c, 0, 71, 84
1, 643227, Control_c, 0, 64, 49
1, 643233, Note_on_c, 0, 76, 75
1, 643242, Control_c, 0, 64, 0
1, 643251, Note_on_c, 0, 36, 73
1, 643257, Note_off_c, 0, 76, 68
1, 643263, Note_off_c, 0, 80, 66
1, 643272, Control_c, 0, 64, 22
1, 643274, Note_off_c, 0, 71, 65
1, 643287, Control_c, 0, 64, 50
1, 643302, Control_c, 0, 64, 61
1, 643316, Control_c, 0, 64, 67
1, 643322, Note_off_c, 0, 36, 57
1, 643331, Control_c, 0, 64, 78
1, 643346, Control_c, 0, 64, 107
1, 643361, Control_c, 0, 64, 127
1, 643373, Note_on_c, 0, 43, 60
1, 643388, Note_on_c, 0, 66, 81
1, 643388, Note_on_c, 0, 59, 83
1, 643399, Note_on_c, 0, 61, 58
1, 643412, Note_off_c, 0, 66, 67
1, 643419, Control_c, 0, 64, 97
1, 643420, Note_off_c, 0, 59, 62
1, 643427, Note_off_c, 0, 61, 62
1, 643429, Note_off_c, 0, 43, 59
1, 643434, Control_c, 0, 64, 70
1, 643450, Control_c, 0, 64, 50
1, 643465, Control_c, 0, 64, 0
1, 643471, Note_on_c, 0, 66, 77
1, 643471, Note_on_c, 0, 57, 76
1, 643480, Control_c, 0, 64, 16
1, 643484, Note_on_c, 0, 61, 62
1, 643487, Note_on_c, 0, 32, 70
1, 643490, Note_off_c, 0, 57, 67
1, 643494, Control_c, 0, 64, 38
1, 643502, Note_on_c, 0, 59, 36
1, 643504, Note_off_c, 0, 61, 62
1, 643509, Control_c, 0, 64, 51
1, 643516, Note_on_c, 0, 67, 31
1, 643523, Note_on_c, 0, 62, 24
1, 643524, Control_c, 0, 64, 60
1, 643526, Note_off_c, 0, 66, 61
1, 643528, Note_off_c, 0, 59, 53
1, 643539, Note_off_c, 0, 32, 62
1, 643539, Control_c, 0, 64, 64
1, 643552, Note_off_c, 0, 67, 35
1, 643553, Control_c, 0, 64, 68
1, 643563, Note_off_c, 0, 62, 42
1, 643568, Control_c, 0, 64, 74
1, 643583, Control_c, 0, 64, 84
1, 643598, Control_c, 0, 64, 99
1, 643613, Control_c, 0, 64, 127
1, 643618, Note_on_c, 0, 42, 68
1, 643627, Control_c, 0, 64, 111
1, 643628, Note_on_c, 0, 70, 85
1, 643638, Note_on_c, 0, 76, 79
1, 643639, Note_on_c, 0, 68, 76
1, 643642, Control_c, 0, 64, 87
1, 643655, Note_off_c, 0, 70, 63
1, 643657, Control_c, 0, 64, 67
1, 643660, Note_off_c, 0, 42, 62
1, 643663, Note_off_c, 0, 68, 69
1, 643664, Note_off_c, 0, 76, 70
1, 643671, Control_c, 0, 64, 44
1, 643686, Control_c, 0, 64, 0
1, 643719, Note_on_c, 0, 76, 89
1, 643723, Note_on_c, 0, 71, 80
1, 643727, Note_on_c, 0, 68, 78
1, 643738, Note_on_c, 0, 36, 66
1, 643739, Control_c, 0, 64, 38
1, 643749, Note_off_c, 0, 76, 65
1, 643753, Control_c, 0, 64, 56
1, 643756, Note_off_c, 0, 71, 61
1, 643768, Control_c, 0, 64, 64
1, 643775, Note_off_c, 0, 68, 62
1, 643783, Control_c, 0, 64, 69
1, 643798, Control_c, 0, 64, 80
1, 643799, Note_off_c, 0, 36, 57
1, 643813, Control_c, 0, 64, 110
1, 643827, Control_c, 0, 64, 127
1, 643868, Note_on_c, 0, 43, 57
1, 643882, Note_on_c, 0, 66, 71
1, 643884, Note_on_c, 0, 57, 80
1, 643886, Control_c, 0, 64, 100
1, 643888, Note_on_c, 0, 61, 67
1, 643901, Control_c, 0, 64, 69
1, 643908, Note_off_c, 0, 66, 68
1, 643910, Note_off_c, 0, 57, 69
1, 643916, Note_off_c, 0, 61, 63
1, 643916, Control_c, 0, 64, 42
1, 643917, Note_off_c, 0, 43, 59
1, 643931, Control_c, 0, 64, 0
1, 643952, Note_on_c, 0, 66, 78
1, 643960, Control_c, 0, 64, 38
1, 643966, Note_on_c, 0, 57, 74
1, 643969, Note_on_c, 0, 61, 74
1, 643975, Note_on_c, 0, 32, 67
1, 643975, Control_c, 0, 64, 55
1, 643990, Control_c, 0, 64, 63
1, 643995, Note_off_c, 0, 57, 64
1, 644002, Note_off_c, 0, 61, 59
1, 644005, Control_c, 0, 64, 68
1, 644017, Note_off_c, 0, 66, 61
1, 644020, Control_c, 0, 64, 76
1, 644035, Control_c, 0, 64, 95
1, 644050, Control_c, 0, 64, 127
1, 644070, Note_off_c, 0, 32, 59
1, 644103, Note_on_c, 0, 42, 74
1, 644113, Note_on_c, 0, 59, 82
1, 644124, Control_c, 0, 64, 97
1, 644138, Control_c, 0, 64, 71
1, 644141, Note_off_c, 0, 42, 64
1, 644146, Note_on_c, 0, 64, 18
1, 644148, Note_off_c, 0, 59, 58
1, 644153, Control_c, 0, 64, 43
1, 644168, Control_c, 0, 64, 0
1, 644183, Note_on_c, 0, 68, 49
1, 644187, Note_off_c, 0, 64, 41
1, 644193, Note_on_c, 0, 62, 76
1, 644212, Note_on_c, 0, 36, 82
1, 644238, Note_off_c, 0, 68, 61
1, 644252, Note_off_c, 0, 62, 64
1, 644258, Note_on_c, 0, 58, 83
1, 644273, Control_c, 0, 64, 44
1, 644288, Control_c, 0, 64, 61
1, 644302, Control_c, 0, 64, 72
1, 644308, Note_off_c, 0, 58, 64
1, 644317, Control_c, 0, 64, 94
1, 644319, Note_on_c, 0, 62, 70
1, 644324, Note_on_c, 0, 68, 77
1, 644325, Note_on_c, 0, 43, 71
1, 644332, Control_c, 0, 64, 127
1, 644350, Note_off_c, 0, 62, 66
1, 644351, Note_off_c, 0, 36, 55
1, 644351, Note_off_c, 0, 68, 68
1, 644390, Note_off_c, 0, 43, 60
1, 644407, Poly_aftertouch_c, 0, 38, 127
1, 644430, Note_on_c, 0, 32, 80
1, 644434, Note_on_c, 0, 74, 88
1, 644434, Note_on_c, 0, 80, 80
1, 644449, Note_on_c, 0, 73, 45
1, 644450, Note_off_c, 0, 73, 127
1, 644450, Poly_aftertouch_c, 0, 38, 0
1, 644459, Note_on_c, 0, 78, 53
1, 644481, Note_off_c, 0, 78, 59
1, 644484, Note_off_c, 0, 80, 58
1, 644489, Note_off_c, 0, 74, 64
1, 644494, Note_on_c, 0, 70, 83
1, 644550, Note_on_c, 0, 74, 85
1, 644555, Note_off_c, 0, 70, 62
1, 644559, Note_on_c, 0, 42, 80
1, 644565, Note_on_c, 0, 80, 74
1, 644571, Note_off_c, 0, 74, 69
1, 644580, Note_off_c, 0, 80, 68
1, 644581, Note_off_c, 0, 32, 61
1, 644587, Note_on_c, 0, 78, 21
1, 644602, Note_on_c, 0, 81, 37
1, 644611, Note_off_c, 0, 42, 62
1, 644628, Note_off_c, 0, 78, 40
1, 644630, Note_off_c, 0, 81, 60
1, 644650, Control_c, 0, 64, 68
1, 644665, Control_c, 0, 64, 0
1, 644666, Note_on_c, 0, 36, 83
1, 644668, Note_on_c, 0, 86, 86
1, 644669, Note_on_c, 0, 82, 92
1, 644670, Note_on_c, 0, 92, 97
1, 644689, Note_off_c, 0, 92, 69
1, 644703, Note_off_c, 0, 86, 62
1, 644709, Control_c, 0, 64, 15
1, 644717, Note_off_c, 0, 82, 66
1, 644724, Control_c, 0, 64, 54
1, 644739, Control_c, 0, 64, 65
1, 644754, Control_c, 0, 64, 79
1, 644768, Control_c, 0, 64, 127
1, 644822, Note_on_c, 0, 43, 66
1, 644838, Note_off_c, 0, 36, 57
1, 644846, Note_on_c, 0, 66, 87
1, 644848, Note_on_c, 0, 57, 91
1, 644857, Note_on_c, 0, 61, 70
1, 644872, Control_c, 0, 64, 83
1, 644873, Note_off_c, 0, 57, 65
1, 644875, Note_off_c, 0, 43, 59
1, 644886, Note_off_c, 0, 66, 58
1, 644887, Note_off_c, 0, 61, 65
1, 644887, Control_c, 0, 64, 59
1, 644902, Control_c, 0, 64, 0
1, 644918, Note_on_c, 0, 66, 84
1, 644924, Note_on_c, 0, 57, 84
1, 644929, Note_on_c, 0, 32, 75
1, 644932, Note_on_c, 0, 61, 84
1, 644937, Poly_aftertouch_c, 0, 38, 0
1, 644947, Note_off_c, 0, 57, 69
1, 644962, Control_c, 0, 64, 42
1, 644972, Note_off_c, 0, 61, 57
1, 644977, Control_c, 0, 64, 59
1, 644992, Note_off_c, 0, 66, 63
1, 644992, Control_c, 0, 64, 65
1, 645007, Control_c, 0, 64, 74
1, 645021, Control_c, 0, 64, 100
1, 645036, Control_c, 0, 64, 127
1, 645056, Note_off_c, 0, 32, 51
1, 645061, Note_on_c, 0, 42, 74
1, 645093, Note_on_c, 0, 68, 86
1, 645096, Note_on_c, 0, 76, 84
1, 645096, Control_c, 0, 64, 76
1, 645099, Note_on_c, 0, 72, 70
1, 645111, Control_c, 0, 64, 56
1, 645112, Note_on_c, 0, 75, 42
1, 645114, Note_off_c, 0, 68, 69
1, 645114, Note_off_c, 0, 72, 67
1, 645115, Note_off_c, 0, 42, 62
1, 645117, Note_off_c, 0, 76, 71
1, 645126, Control_c, 0, 64, 0
1, 645138, Note_off_c, 0, 75, 36
1, 645159, Note_on_c, 0, 76, 98
1, 645162, Note_on_c, 0, 68, 88
1, 645165, Note_on_c, 0, 72, 89
1, 645171, Control_c, 0, 64, 26
1, 645172, Note_on_c, 0, 36, 72
1, 645185, Control_c, 0, 64, 54
1, 645203, Note_off_c, 0, 76, 63
1, 645207, Control_c, 0, 64, 63
1, 645216, Note_off_c, 0, 72, 59
1, 645222, Control_c, 0, 64, 69
1, 645226, Note_off_c, 0, 68, 63
1, 645237, Control_c, 0, 64, 78
1, 645248, Note_off_c, 0, 36, 57
1, 645252, Control_c, 0, 64, 105
1, 645267, Control_c, 0, 64, 127
1, 645305, Note_on_c, 0, 43, 62
1, 645334, Note_on_c, 0, 62, 75
1, 645337, Note_on_c, 0, 55, 84
1, 645354, Note_on_c, 0, 59, 42
1, 645355, Control_c, 0, 64, 86
1, 645356, Note_off_c, 0, 43, 60
1, 645361, Note_off_c, 0, 55, 70
1, 645366, Note_off_c, 0, 62, 64
1, 645370, Control_c, 0, 64, 65
1, 645379, Note_off_c, 0, 59, 53
1, 645385, Control_c, 0, 64, 0
1, 645404, Note_on_c, 0, 62, 84
1, 645408, Note_on_c, 0, 55, 78
1, 645412, Note_on_c, 0, 59, 78
1, 645413, Note_on_c, 0, 32, 70
1, 645436, Note_off_c, 0, 55, 67
1, 645445, Control_c, 0, 64, 39
1, 645453, Note_off_c, 0, 59, 63
1, 645460, Control_c, 0, 64, 56
1, 645464, Note_off_c, 0, 62, 64
1, 645474, Control_c, 0, 64, 64
1, 645489, Control_c, 0, 64, 70
1, 645504, Control_c, 0, 64, 88
1, 645510, Note_off_c, 0, 32, 60
1, 645518, Control_c, 0, 64, 127
1, 645549, Note_on_c, 0, 42, 70
1, 645573, Note_on_c, 0, 66, 88
1, 645579, Note_on_c, 0, 72, 78
1, 645593, Control_c, 0, 64, 111
1, 645595, Note_off_c, 0, 66, 69
1, 645600, Note_off_c, 0, 42, 61
1, 645601, Note_off_c, 0, 72, 70
1, 645607, Control_c, 0, 64, 72
1, 645622, Control_c, 0, 64, 50
1, 645637, Control_c, 0, 64, 0
1, 645647, Note_on_c, 0, 66, 87
1, 645647, Note_on_c, 0, 72, 82
1, 645665, Note_on_c, 0, 36, 64
1, 645666, Control_c, 0, 64, 32
1, 645668, Note_off_c, 0, 72, 71
1, 645680, Poly_aftertouch_c, 0, 70, 127
1, 645681, Control_c, 0, 64, 51
1, 645683, Note_off_c, 0, 66, 65
1, 645692, Poly_aftertouch_c, 0, 70, 0
1, 645696, Control_c, 0, 64, 61
1, 645711, Control_c, 0, 64, 67
1, 645725, Control_c, 0, 64, 77
1, 645726, Note_off_c, 0, 36, 55
1, 645740, Control_c, 0, 64, 103
1, 645755, Control_c, 0, 64, 127
1, 645789, Note_on_c, 0, 43, 58
1, 645805, Note_on_c, 0, 53, 80
1, 645809, Note_on_c, 0, 61, 71
1, 645829, Control_c, 0, 64, 123
1, 645830, Note_off_c, 0, 53, 66
1, 645838, Note_off_c, 0, 61, 65
1, 645841, Note_off_c, 0, 43, 57
1, 645845, Control_c, 0, 64, 72
1, 645860, Control_c, 0, 64, 50
1, 645870, Note_on_c, 0, 53, 89
1, 645875, Control_c, 0, 64, 0
1, 645898, Note_on_c, 0, 32, 58
1, 645906, Note_off_c, 0, 53, 64
1, 645907, Poly_aftertouch_c, 0, 61, 0
1, 645995, Note_off_c, 0, 32, 47
1, 646030, Note_on_c, 0, 56, 76
1, 646043, Note_on_c, 0, 42, 61
1, 646057, Note_off_c, 0, 56, 67
1, 646086, Note_off_c, 0, 42, 63
1, 646169, Note_on_c, 0, 36, 60
1, 646206, Note_off_c, 0, 36, 63
1, 646270, Note_on_c, 0, 55, 90
1, 646290, Note_on_c, 0, 43, 55
1, 646297, Note_off_c, 0, 55, 67
1, 646332, Note_off_c, 0, 43, 62
1, 646402, Note_on_c, 0, 48, 82
1, 646425, Note_off_c, 0, 48, 67
1, 646526, Note_on_c, 0, 42, 69
1, 646562, Note_off_c, 0, 42, 65
1, 646643, Note_on_c, 0, 36, 75
1, 646678, Note_off_c, 0, 36, 67
1, 646764, Note_on_c, 0, 55, 83
1, 646783, Note_on_c, 0, 43, 58
1, 646793, Note_off_c, 0, 55, 66
1, 646825, Note_off_c, 0, 43, 63
1, 646892, Note_on_c, 0, 48, 81
1, 646895, Note_on_c, 0, 32, 61
1, 646917, Note_off_c, 0, 48, 68
1, 646923, Note_off_c, 0, 32, 62
1, 647004, Note_on_c, 0, 54, 83
1, 647028, Note_on_c, 0, 42, 59
1, 647032, Note_off_c, 0, 54, 69
1, 647058, Note_off_c, 0, 42, 63
1, 647126, Note_on_c, 0, 44, 92
1, 647142, Note_on_c, 0, 36, 60
1, 647162, Note_off_c, 0, 44, 63
1, 647178, Note_off_c, 0, 36, 61
1, 647251, Note_on_c, 0, 43, 63
1, 647254, Note_on_c, 0, 55, 95
1, 647299, Note_off_c, 0, 55, 64
1, 647302, Note_off_c, 0, 43, 61
1, 647371, Note_on_c, 0, 32, 72
1, 647373, Note_on_c, 0, 48, 106
1, 647404, Note_off_c, 0, 32, 67
1, 647407, Note_off_c, 0, 48, 67
1, 647515, Note_on_c, 0, 42, 72
1, 647559, Note_off_c, 0, 42, 61
1, 647645, Note_on_c, 0, 36, 67
1, 647681, Note_off_c, 0, 36, 62
1, 647767, Note_on_c, 0, 55, 75
1, 647783, Note_on_c, 0, 43, 48
1, 647796, Note_off_c, 0, 55, 67
1, 647819, Note_off_c, 0, 43, 64
1, 647895, Note_on_c, 0, 32, 58
1, 647899, Note_on_c, 0, 48, 73
1, 647925, Note_off_c, 0, 32, 62
1, 647925, Note_off_c, 0, 48, 66
1, 648017, Note_on_c, 0, 54, 71
1, 648026, Note_on_c, 0, 42, 68
1, 648059, Note_off_c, 0, 54, 64
1, 648065, Note_off_c, 0, 42, 65
1, 648146, Note_on_c, 0, 36, 73
1, 648190, Note_off_c, 0, 36, 65
1, 648280, Note_on_c, 0, 43, 69
1, 648321, Note_off_c, 0, 43, 63
1, 648393, Note_on_c, 0, 32, 71
1, 648401, Note_on_c, 0, 47, 84
1, 648402, Note_on_c, 0, 55, 82
1, 648425, Note_off_c, 0, 47, 69
1, 648427, Note_off_c, 0, 55, 68
1, 648435, Note_off_c, 0, 32, 64
1, 648528, Note_on_c, 0, 42, 71
1, 648566, Note_off_c, 0, 42, 64
1, 648657, Note_on_c, 0, 36, 63
1, 648696, Note_off_c, 0, 36, 61
1, 648780, Note_on_c, 0, 41, 65
1, 648832, Note_off_c, 0, 41, 60
1, 648898, Note_on_c, 0, 32, 69
1, 648937, Note_off_c, 0, 32, 66
1, 649044, Note_on_c, 0, 40, 58
1, 649082, Note_off_c, 0, 40, 61
1, 649159, Note_on_c, 0, 36, 66
1, 649192, Note_off_c, 0, 36, 62
1, 649292, Note_on_c, 0, 39, 59
1, 649340, Note_off_c, 0, 39, 56
1, 649413, Note_on_c, 0, 48, 64
1, 649415, Note_on_c, 0, 32, 57
1, 649417, Note_on_c, 0, 43, 54
1, 649440, Note_off_c, 0, 48, 66
1, 649444, Note_off_c, 0, 43, 59
1, 649445, Note_off_c, 0, 32, 62
1, 649552, Note_on_c, 0, 38, 52
1, 649591, Note_off_c, 0, 38, 59
1, 649687, Note_on_c, 0, 36, 54
1, 649719, Note_off_c, 0, 36, 62
1, 649816, Note_on_c, 0, 37, 42
1, 649854, Note_off_c, 0, 37, 51
1, 649927, Note_on_c, 0, 32, 57
1, 649964, Note_off_c, 0, 32, 63
1, 650059, Note_on_c, 0, 36, 58
1, 650093, Note_off_c, 0, 36, 62
1, 650180, Note_on_c, 0, 36, 66
1, 650214, Note_off_c, 0, 36, 63
1, 650319, Note_on_c, 0, 43, 55
1, 650360, Note_off_c, 0, 43, 62
1, 650440, Note_on_c, 0, 55, 61
1, 650441, Note_on_c, 0, 47, 65
1, 650445, Note_on_c, 0, 32, 53
1, 650471, Note_off_c, 0, 55, 65
1, 650471, Note_off_c, 0, 47, 64
1, 650480, Note_off_c, 0, 32, 58
1, 650567, Note_on_c, 0, 42, 63
1, 650619, Note_off_c, 0, 42, 58
1, 650694, Note_on_c, 0, 36, 64
1, 650729, Note_off_c, 0, 36, 61
1, 650824, Note_on_c, 0, 41, 54
1, 650872, Note_off_c, 0, 41, 58
1, 650948, Note_on_c, 0, 32, 62
1, 650979, Note_off_c, 0, 32, 62
1, 651091, Note_on_c, 0, 40, 50
1, 651129, Note_off_c, 0, 40, 61
1, 651213, Note_on_c, 0, 36, 60
1, 651252, Note_off_c, 0, 36, 59
1, 651343, Note_on_c, 0, 39, 56
1, 651402, Note_off_c, 0, 39, 55
1, 651475, Note_on_c, 0, 32, 47
1, 651477, Note_on_c, 0, 48, 55
1, 651478, Note_on_c, 0, 43, 50
1, 651502, Note_off_c, 0, 48, 57
1, 651508, Note_off_c, 0, 43, 60
1, 651516, Note_off_c, 0, 32, 62
1, 651637, Note_on_c, 0, 38, 15
1, 651687, Note_off_c, 0, 38, 39
1, 651741, Note_on_c, 0, 36, 37
1, 651780, Note_off_c, 0, 36, 49
1, 652011, Note_on_c, 0, 55, 45
1, 652018, Note_on_c, 0, 43, 39
1, 652039, Note_off_c, 0, 55, 55
1, 652050, Note_off_c, 0, 43, 48
1, 652304, Note_on_c, 0, 32, 41
1, 652310, Note_on_c, 0, 48, 44
1, 652340, Note_off_c, 0, 48, 48
1, 652340, Note_off_c, 0, 32, 50
1, 652838, Note_on_c, 0, 36, 54
1, 652867, Note_off_c, 0, 36, 58
1, 653110, Note_on_c, 0, 56, 65
1, 653117, Note_on_c, 0, 42, 45
1, 653140, Note_off_c, 0, 56, 66
1, 653149, Note_off_c, 0, 42, 50
1, 653390, Note_on_c, 0, 45, 72
1, 653398, Note_on_c, 0, 29, 53
1, 653416, Note_off_c, 0, 45, 66
1, 653442, Note_off_c, 0, 29, 52
1, 654933, Note_on_c, 0, 55, 42
1, 654942, Note_on_c, 0, 31, 28
1, 654956, Note_on_c, 0, 43, 11
1, 654960, Note_off_c, 0, 55, 58
1, 654978, Note_off_c, 0, 31, 44
1, 655003, Note_off_c, 0, 43, 35
1, 655562, Note_on_c, 0, 24, 38
1, 655568, Note_on_c, 0, 48, 43
1, 655577, Note_on_c, 0, 36, 31
1, 655595, Note_off_c, 0, 48, 59
1, 655604, Note_off_c, 0, 24, 60
1, 655614, Note_off_c, 0, 36, 52
1, 656513, Control_c, 0, 64, 9
1, 656528, Control_c, 0, 64, 20
1, 656543, Control_c, 0, 64, 26
1, 656557, Control_c, 0, 64, 31
1, 656572, Control_c, 0, 64, 35
1, 656587, Control_c, 0, 64, 37
1, 656602, Control_c, 0, 64, 40
1, 656617, Control_c, 0, 64, 42
1, 656631, Control_c, 0, 64, 44
1, 656646, Control_c, 0, 64, 45
1, 656661, Control_c, 0, 64, 47
1, 656676, Control_c, 0, 64, 48
1, 656691, Control_c, 0, 64, 50
1, 656705, Control_c, 0, 64, 51
1, 656720, Control_c, 0, 64, 52
1, 656735, Control_c, 0, 64, 54
1, 656749, Control_c, 0, 64, 55
1, 656764, Control_c, 0, 64, 56
1, 656779, Control_c, 0, 64, 57
1, 656794, Control_c, 0, 64, 58
1, 656809, Control_c, 0, 64, 59
1, 656823, Control_c, 0, 64, 60
1, 656838, Control_c, 0, 64, 61
1, 656853, Control_c, 0, 64, 62
1, 656868, Control_c, 0, 64, 63
1, 656883, Control_c, 0, 64, 64
1, 656897, Control_c, 0, 64, 64
1, 656912, Control_c, 0, 64, 65
1, 656927, Control_c, 0, 64, 66
1, 656942, Control_c, 0, 64, 68
1, 656957, Control_c, 0, 64, 70
1, 656972, Control_c, 0, 64, 72
1, 656987, Control_c, 0, 64, 75
1, 657002, Control_c, 0, 64, 78
1, 657017, Control_c, 0, 64, 83
1, 657032, Control_c, 0, 64, 90
1, 657046, Control_c, 0, 64, 100
1, 657061, Control_c, 0, 64, 127
1, 657327, Poly_aftertouch_c, 0, 41, 127
1, 657450, Poly_aftertouch_c, 0, 38, 127
1, 657453, Note_on_c, 0, 58, 35
1, 657581, Note_off_c, 0, 58, 52
1, 657601, Note_on_c, 0, 64, 45
1, 657677, Note_off_c, 0, 64, 55
1, 657705, Note_on_c, 0, 68, 59
1, 657736, Poly_aftertouch_c, 0, 41, 0
1, 657770, Note_off_c, 0, 68, 61
1, 657821, Poly_aftertouch_c, 0, 38, 0
1, 657860, Note_on_c, 0, 36, 41
1, 657872, Note_on_c, 0, 48, 36
1, 657901, Note_on_c, 0, 76, 62
1, 657912, Note_off_c, 0, 36, 59
1, 657938, Note_off_c, 0, 48, 58
1, 658307, Note_on_c, 0, 64, 45
1, 658310, Note_on_c, 0, 70, 48
1, 658317, Note_on_c, 0, 60, 37
1, 658377, Note_off_c, 0, 60, 55
1, 658380, Note_off_c, 0, 64, 54
1, 658390, Note_off_c, 0, 70, 54
1, 658520, Note_on_c, 0, 60, 47
1, 658523, Note_on_c, 0, 70, 53
1, 658525, Note_on_c, 0, 64, 49
1, 658574, Note_off_c, 0, 60, 55
1, 658579, Note_off_c, 0, 64, 54
1, 658593, Note_off_c, 0, 70, 53
1, 658716, Note_on_c, 0, 60, 46
1, 658719, Note_on_c, 0, 64, 50
1, 658721, Note_on_c, 0, 70, 54
1, 658763, Note_off_c, 0, 60, 59
1, 658765, Note_off_c, 0, 70, 57
1, 658766, Note_off_c, 0, 64, 58
1, 658879, Note_on_c, 0, 75, 73
1, 658893, Note_on_c, 0, 70, 49
1, 658895, Note_on_c, 0, 64, 47
1, 658897, Note_on_c, 0, 60, 35
1, 658904, Note_off_c, 0, 76, 59
1, 658940, Note_off_c, 0, 70, 53
1, 658947, Note_off_c, 0, 64, 54
1, 658953, Note_off_c, 0, 60, 54
1, 659063, Note_on_c, 0, 70, 59
1, 659067, Note_on_c, 0, 64, 60
1, 659073, Note_off_c, 0, 75, 58
1, 659079, Note_on_c, 0, 60, 42
1, 659094, Note_off_c, 0, 70, 64
1, 659099, Note_off_c, 0, 64, 65
1, 659118, Note_off_c, 0, 60, 59
1, 659217, Control_c, 0, 64, 105
1, 659231, Control_c, 0, 64, 83
1, 659239, Note_on_c, 0, 60, 41
1, 659246, Control_c, 0, 64, 69
1, 659254, Note_on_c, 0, 72, 74
1, 659259, Note_on_c, 0, 69, 50
1, 659261, Control_c, 0, 64, 60
1, 659266, Note_on_c, 0, 63, 41
1, 659276, Control_c, 0, 64, 53
1, 659291, Control_c, 0, 64, 55
1, 659306, Control_c, 0, 64, 58
1, 659321, Control_c, 0, 64, 61
1, 659336, Control_c, 0, 64, 64
1, 659346, Note_off_c, 0, 63, 52
1, 659350, Control_c, 0, 64, 68
1, 659354, Note_off_c, 0, 60, 54
1, 659365, Control_c, 0, 64, 74
1, 659380, Control_c, 0, 64, 81
1, 659395, Control_c, 0, 64, 92
1, 659410, Control_c, 0, 64, 111
1, 659433, Control_c, 0, 64, 127
1, 659440, Note_off_c, 0, 69, 0
1, 659454, Note_on_c, 0, 69, 37
1, 659467, Note_on_c, 0, 60, 37
1, 659472, Note_on_c, 0, 63, 43
1, 659518, Note_off_c, 0, 60, 59
1, 659519, Note_off_c, 0, 63, 58
1, 659541, Note_off_c, 0, 69, 53
1, 659620, Poly_aftertouch_c, 0, 77, 127
1, 659636, Note_on_c, 0, 69, 47
1, 659643, Note_on_c, 0, 63, 40
1, 659644, Note_on_c, 0, 60, 43
1, 659694, Note_off_c, 0, 60, 59
1, 659694, Note_off_c, 0, 63, 58
1, 659694, Poly_aftertouch_c, 0, 77, 0
1, 659716, Note_off_c, 0, 69, 54
1, 659731, Poly_aftertouch_c, 0, 77, 127
1, 659825, Note_on_c, 0, 69, 46
1, 659826, Note_on_c, 0, 63, 42
1, 659829, Note_on_c, 0, 60, 41
1, 659878, Note_off_c, 0, 60, 58
1, 659881, Note_off_c, 0, 63, 56
1, 659887, Note_off_c, 0, 69, 57
1, 659898, Poly_aftertouch_c, 0, 77, 0
1, 660015, Note_on_c, 0, 63, 45
1, 660017, Note_on_c, 0, 74, 75
1, 660021, Note_on_c, 0, 69, 53
1, 660023, Note_on_c, 0, 60, 38
1, 660085, Note_off_c, 0, 69, 56
1, 660087, Note_off_c, 0, 60, 54
1, 660090, Note_off_c, 0, 63, 53
1, 660170, Note_off_c, 0, 72, 26
1, 660212, Note_on_c, 0, 69, 61
1, 660218, Note_on_c, 0, 63, 63
1, 660249, Note_on_c, 0, 60, 25
1, 660258, Note_off_c, 0, 69, 60
1, 660288, Note_off_c, 0, 60, 53
1, 660292, Note_off_c, 0, 63, 58
1, 660389, Control_c, 0, 64, 99
1, 660403, Control_c, 0, 64, 81
1, 660404, Note_on_c, 0, 60, 44
1, 660418, Note_on_c, 0, 62, 48
1, 660418, Control_c, 0, 64, 68
1, 660431, Note_on_c, 0, 68, 48
1, 660433, Control_c, 0, 64, 58
1, 660448, Control_c, 0, 64, 40
1, 660454, Note_on_c, 0, 71, 68
1, 660455, Note_off_c, 0, 74, 55
1, 660463, Control_c, 0, 64, 36
1, 660477, Control_c, 0, 64, 42
1, 660492, Control_c, 0, 64, 48
1, 660507, Control_c, 0, 64, 54
1, 660522, Control_c, 0, 64, 59
1, 660537, Control_c, 0, 64, 63
1, 660552, Control_c, 0, 64, 65
1, 660552, Note_off_c, 0, 60, 56
1, 660565, Note_off_c, 0, 62, 57
1, 660567, Control_c, 0, 64, 69
1, 660571, Note_off_c, 0, 68, 55
1, 660582, Control_c, 0, 64, 74
1, 660596, Control_c, 0, 64, 82
1, 660611, Control_c, 0, 64, 96
1, 660626, Control_c, 0, 64, 127
1, 660681, Note_on_c, 0, 62, 39
1, 660681, Note_on_c, 0, 68, 39
1, 660686, Note_on_c, 0, 60, 37
1, 660734, Note_off_c, 0, 60, 56
1, 660739, Note_off_c, 0, 62, 57
1, 660742, Note_off_c, 0, 68, 55
1, 660861, Note_on_c, 0, 60, 45
1, 660873, Note_on_c, 0, 68, 48
1, 660874, Note_on_c, 0, 62, 45
1, 660928, Note_off_c, 0, 60, 54
1, 660937, Note_off_c, 0, 62, 56
1, 660937, Note_off_c, 0, 68, 54
1, 661050, Note_on_c, 0, 60, 44
1, 661057, Note_on_c, 0, 68, 41
1, 661062, Note_on_c, 0, 72, 66
1, 661074, Note_on_c, 0, 62, 39
1, 661092, Note_off_c, 0, 71, 55
1, 661112, Note_off_c, 0, 60, 54
1, 661112, Note_off_c, 0, 68, 53
1, 661118, Note_off_c, 0, 62, 57
1, 661195, Note_off_c, 0, 72, 58
1, 661227, Note_on_c, 0, 71, 75
1, 661239, Note_on_c, 0, 62, 49
1, 661240, Note_on_c, 0, 60, 46
1, 661241, Note_on_c, 0, 68, 50
1, 661291, Note_off_c, 0, 60, 57
1, 661294, Note_off_c, 0, 62, 56
1, 661297, Note_off_c, 0, 68, 53
1, 661393, Note_off_c, 0, 71, 57
1, 661400, Note_on_c, 0, 72, 80
1, 661410, Note_on_c, 0, 60, 48
1, 661418, Note_on_c, 0, 62, 48
1, 661421, Note_on_c, 0, 68, 47
1, 661467, Note_off_c, 0, 60, 49
1, 661476, Note_off_c, 0, 68, 56
1, 661478, Note_off_c, 0, 62, 54
1, 661523, Control_c, 0, 64, 101
1, 661538, Control_c, 0, 64, 82
1, 661553, Control_c, 0, 64, 69
1, 661559, Note_off_c, 0, 72, 60
1, 661567, Control_c, 0, 64, 60
1, 661571, Note_on_c, 0, 71, 77
1, 661582, Control_c, 0, 64, 53
1, 661583, Note_on_c, 0, 68, 49
1, 661589, Note_on_c, 0, 60, 37
1, 661597, Control_c, 0, 64, 56
1, 661601, Note_on_c, 0, 62, 42
1, 661611, Control_c, 0, 64, 59
1, 661626, Control_c, 0, 64, 62
1, 661641, Control_c, 0, 64, 65
1, 661656, Control_c, 0, 64, 68
1, 661658, Note_off_c, 0, 62, 56
1, 661658, Note_off_c, 0, 60, 55
1, 661679, Control_c, 0, 64, 73
1, 661693, Control_c, 0, 64, 77
1, 661708, Control_c, 0, 64, 82
1, 661723, Control_c, 0, 64, 87
1, 661738, Control_c, 0, 64, 93
1, 661738, Note_off_c, 0, 68, 0
1, 661752, Control_c, 0, 64, 98
1, 661759, Note_on_c, 0, 68, 16
1, 661767, Note_on_c, 0, 60, 34
1, 661767, Control_c, 0, 64, 110
1, 661781, Note_on_c, 0, 72, 51
1, 661782, Control_c, 0, 64, 127
1, 661790, Note_on_c, 0, 62, 32
1, 661840, Note_off_c, 0, 60, 54
1, 661843, Note_off_c, 0, 62, 53
1, 661909, Note_off_c, 0, 68, 0
1, 661929, Note_on_c, 0, 68, 17
1, 661951, Note_on_c, 0, 60, 34
1, 661955, Note_off_c, 0, 72, 54
1, 661957, Note_on_c, 0, 74, 56
1, 661974, Note_on_c, 0, 62, 31
1, 662007, Note_off_c, 0, 60, 53
1, 662012, Note_off_c, 0, 62, 53
1, 662080, Note_off_c, 0, 68, 0
1, 662102, Note_on_c, 0, 68, 16
1, 662113, Note_off_c, 0, 71, 56
1, 662116, Note_off_c, 0, 74, 60
1, 662118, Note_on_c, 0, 72, 61
1, 662123, Note_on_c, 0, 76, 68
1, 662131, Note_on_c, 0, 60, 40
1, 662148, Note_on_c, 0, 62, 38
1, 662187, Note_off_c, 0, 60, 55
1, 662192, Note_off_c, 0, 62, 58
1, 662235, Note_off_c, 0, 68, 36
1, 662302, Note_on_c, 0, 71, 80
1, 662307, Note_off_c, 0, 76, 57
1, 662308, Note_on_c, 0, 68, 49
1, 662308, Note_off_c, 0, 72, 65
1, 662312, Note_on_c, 0, 60, 51
1, 662312, Note_on_c, 0, 77, 73
1, 662324, Note_on_c, 0, 62, 43
1, 662381, Note_off_c, 0, 62, 55
1, 662382, Note_off_c, 0, 60, 53
1, 662396, Note_off_c, 0, 68, 55
1, 662400, Note_off_c, 0, 77, 61
1, 662477, Note_off_c, 0, 71, 51
1, 662480, Note_on_c, 0, 72, 81
1, 662484, Note_on_c, 0, 79, 83
1, 662499, Note_on_c, 0, 68, 57
1, 662514, Note_on_c, 0, 62, 52
1, 662515, Note_on_c, 0, 60, 50
1, 662558, Note_off_c, 0, 60, 60
1, 662560, Note_off_c, 0, 72, 62
1, 662561, Note_off_c, 0, 62, 59
1, 662573, Note_off_c, 0, 68, 54
1, 662605, Control_c, 0, 64, 105
1, 662621, Control_c, 0, 64, 87
1, 662636, Control_c, 0, 64, 72
1, 662651, Control_c, 0, 64, 62
1, 662655, Note_on_c, 0, 80, 74
1, 662657, Note_on_c, 0, 68, 47
1, 662658, Note_on_c, 0, 71, 74
1, 662660, Note_off_c, 0, 79, 60
1, 662665, Control_c, 0, 64, 53
1, 662666, Note_on_c, 0, 60, 46
1, 662676, Note_on_c, 0, 62, 49
1, 662695, Control_c, 0, 64, 57
1, 662710, Control_c, 0, 64, 61
1, 662725, Control_c, 0, 64, 64
1, 662739, Control_c, 0, 64, 68
1, 662749, Note_off_c, 0, 62, 48
1, 662754, Control_c, 0, 64, 74
1, 662769, Control_c, 0, 64, 81
1, 662776, Note_off_c, 0, 60, 36
1, 662784, Control_c, 0, 64, 88
1, 662799, Control_c, 0, 64, 97
1, 662806, Note_off_c, 0, 68, 0
1, 662813, Control_c, 0, 64, 107
1, 662826, Note_on_c, 0, 68, 23
1, 662828, Control_c, 0, 64, 127
1, 662842, Note_on_c, 0, 60, 31
1, 662846, Note_on_c, 0, 79, 43
1, 662855, Note_on_c, 0, 62, 32
1, 662860, Note_off_c, 0, 80, 63
1, 662918, Note_off_c, 0, 62, 53
1, 662919, Note_off_c, 0, 60, 49
1, 662984, Note_off_c, 0, 68, 0
1, 663004, Note_on_c, 0, 68, 20
1, 663007, Note_on_c, 0, 76, 56
1, 663028, Note_on_c, 0, 60, 27
1, 663043, Note_on_c, 0, 62, 35
1, 663056, Note_off_c, 0, 71, 55
1, 663095, Note_off_c, 0, 62, 54
1, 663111, Note_off_c, 0, 60, 39
1, 663170, Note_off_c, 0, 68, 0
1, 663170, Note_on_c, 0, 68, 8
1, 663181, Note_on_c, 0, 72, 72
1, 663188, Note_on_c, 0, 60, 28
1, 663190, Note_on_c, 0, 77, 70
1, 663207, Note_on_c, 0, 62, 34
1, 663217, Note_off_c, 0, 76, 56
1, 663227, Note_off_c, 0, 79, 59
1, 663265, Note_off_c, 0, 62, 55
1, 663276, Note_off_c, 0, 60, 48
1, 663280, Note_off_c, 0, 72, 62
1, 663303, Note_off_c, 0, 68, 36
1, 663365, Note_on_c, 0, 71, 81
1, 663366, Note_on_c, 0, 79, 77
1, 663369, Note_on_c, 0, 68, 49
1, 663378, Note_on_c, 0, 60, 37
1, 663395, Note_on_c, 0, 62, 46
1, 663395, Note_off_c, 0, 77, 58
1, 663446, Note_off_c, 0, 62, 57
1, 663448, Note_off_c, 0, 60, 55
1, 663455, Note_off_c, 0, 68, 52
1, 663462, Note_off_c, 0, 71, 58
1, 663553, Note_off_c, 0, 79, 58
1, 663554, Note_on_c, 0, 72, 77
1, 663554, Note_on_c, 0, 80, 75
1, 663558, Note_on_c, 0, 68, 57
1, 663570, Note_on_c, 0, 62, 48
1, 663584, Note_on_c, 0, 60, 46
1, 663624, Note_off_c, 0, 60, 58
1, 663634, Note_off_c, 0, 68, 61
1, 663636, Note_off_c, 0, 62, 55
1, 663642, Note_off_c, 0, 80, 61
1, 663652, Note_off_c, 0, 72, 60
1, 663696, Control_c, 0, 64, 110
1, 663711, Control_c, 0, 64, 92
1, 663726, Control_c, 0, 64, 74
1, 663741, Control_c, 0, 64, 65
1, 663756, Control_c, 0, 64, 58
1, 663762, Note_on_c, 0, 60, 34
1, 663762, Note_on_c, 0, 67, 51
1, 663763, Note_on_c, 0, 71, 67
1, 663766, Note_on_c, 0, 81, 66
1, 663770, Control_c, 0, 64, 56
1, 663776, Note_on_c, 0, 62, 45
1, 663785, Control_c, 0, 64, 59
1, 663800, Control_c, 0, 64, 62
1, 663814, Control_c, 0, 64, 64
1, 663829, Control_c, 0, 64, 67
1, 663844, Control_c, 0, 64, 71
1, 663859, Control_c, 0, 64, 77
1, 663874, Control_c, 0, 64, 84
1, 663876, Note_off_c, 0, 67, 54
1, 663880, Note_off_c, 0, 62, 49
1, 663888, Control_c, 0, 64, 92
1, 663903, Control_c, 0, 64, 102
1, 663906, Note_off_c, 0, 60, 33
1, 663926, Control_c, 0, 64, 115
1, 663941, Control_c, 0, 64, 127
1, 664034, Note_on_c, 0, 67, 45
1, 664048, Note_on_c, 0, 79, 45
1, 664050, Note_on_c, 0, 60, 36
1, 664058, Note_on_c, 0, 62, 39
1, 664104, Note_off_c, 0, 67, 52
1, 664105, Note_off_c, 0, 60, 54
1, 664106, Note_off_c, 0, 62, 57
1, 664141, Note_off_c, 0, 81, 40
1, 664220, Note_on_c, 0, 77, 62
1, 664238, Note_on_c, 0, 67, 48
1, 664245, Note_on_c, 0, 62, 42
1, 664253, Note_on_c, 0, 60, 31
1, 664291, Note_off_c, 0, 71, 43
1, 664292, Note_off_c, 0, 67, 53
1, 664295, Note_off_c, 0, 60, 52
1, 664296, Note_off_c, 0, 62, 59
1, 664305, Note_off_c, 0, 79, 36
1, 664394, Note_on_c, 0, 67, 44
1, 664395, Note_on_c, 0, 76, 64
1, 664397, Note_on_c, 0, 72, 65
1, 664420, Note_on_c, 0, 62, 43
1, 664424, Note_on_c, 0, 60, 30
1, 664454, Note_off_c, 0, 67, 54
1, 664459, Note_off_c, 0, 77, 36
1, 664461, Note_off_c, 0, 62, 60
1, 664465, Note_off_c, 0, 60, 49
1, 664481, Note_off_c, 0, 72, 55
1, 664572, Note_on_c, 0, 77, 72
1, 664573, Note_off_c, 0, 76, 63
1, 664574, Note_on_c, 0, 62, 50
1, 664574, Note_on_c, 0, 74, 74
1, 664582, Note_on_c, 0, 69, 53
1, 664585, Note_on_c, 0, 60, 48
1, 664630, Note_off_c, 0, 69, 54
1, 664636, Note_off_c, 0, 60, 53
1, 664663, Note_off_c, 0, 62, 54
1, 664725, Note_off_c, 0, 74, 61
1, 664748, Note_on_c, 0, 69, 58
1, 664749, Note_on_c, 0, 75, 76
1, 664749, Note_on_c, 0, 79, 78
1, 664759, Note_on_c, 0, 63, 57
1, 664761, Note_off_c, 0, 77, 57
1, 664796, Note_off_c, 0, 69, 60
1, 664808, Note_off_c, 0, 63, 61
1, 664851, Control_c, 0, 64, 111
1, 664866, Control_c, 0, 64, 94
1, 664871, Note_off_c, 0, 75, 62
1, 664881, Control_c, 0, 64, 79
1, 664896, Control_c, 0, 64, 67
1, 664910, Control_c, 0, 64, 56
1, 664925, Control_c, 0, 64, 32
1, 664931, Note_on_c, 0, 60, 41
1, 664940, Note_on_c, 0, 70, 50
1, 664940, Control_c, 0, 64, 0
1, 664946, Note_on_c, 0, 64, 45
1, 664956, Note_on_c, 0, 76, 57
1, 665053, Note_off_c, 0, 60, 50
1, 665053, Note_off_c, 0, 79, 60
1, 665055, Note_off_c, 0, 70, 57
1, 665057, Note_off_c, 0, 64, 57
1, 665104, Control_c, 0, 64, 31
1, 665119, Control_c, 0, 64, 58
1, 665134, Control_c, 0, 64, 65
1, 665146, Note_on_c, 0, 70, 44
1, 665149, Control_c, 0, 64, 67
1, 665162, Note_on_c, 0, 64, 32
1, 665163, Note_on_c, 0, 60, 12
1, 665163, Control_c, 0, 64, 70
1, 665178, Control_c, 0, 64, 76
1, 665193, Control_c, 0, 64, 87
1, 665208, Control_c, 0, 64, 127
1, 665210, Note_off_c, 0, 64, 57
1, 665214, Note_off_c, 0, 70, 52
1, 665223, Note_off_c, 0, 60, 44
1, 665233, Note_on_c, 0, 79, 55
1, 665268, Note_off_c, 0, 79, 66
1, 665290, Note_on_c, 0, 82, 62
1, 665321, Note_off_c, 0, 82, 67
1, 665336, Note_on_c, 0, 70, 40
1, 665343, Note_on_c, 0, 64, 40
1, 665346, Note_on_c, 0, 88, 61
1, 665352, Note_on_c, 0, 60, 30
1, 665390, Note_off_c, 0, 64, 59
1, 665390, Note_off_c, 0, 70, 54
1, 665397, Note_off_c, 0, 60, 48
1, 665430, Note_off_c, 0, 88, 62
1, 665523, Note_on_c, 0, 70, 51
1, 665526, Note_on_c, 0, 64, 37
1, 665533, Note_on_c, 0, 60, 40
1, 665575, Note_off_c, 0, 60, 56
1, 665575, Note_off_c, 0, 64, 59
1, 665575, Note_off_c, 0, 70, 54
1, 665703, Note_on_c, 0, 60, 39
1, 665706, Note_on_c, 0, 70, 54
1, 665709, Note_on_c, 0, 64, 45
1, 665710, Note_on_c, 0, 75, 74
1, 665740, Note_off_c, 0, 76, 44
1, 665763, Note_off_c, 0, 60, 55
1, 665763, Note_off_c, 0, 64, 57
1, 665764, Note_off_c, 0, 70, 53
1, 665885, Note_on_c, 0, 64, 53
1, 665887, Note_on_c, 0, 70, 60
1, 665898, Note_on_c, 0, 60, 47
1, 665922, Note_off_c, 0, 70, 58
1, 665927, Note_off_c, 0, 64, 62
1, 665940, Note_off_c, 0, 60, 59
1, 666001, Control_c, 0, 64, 106
1, 666016, Control_c, 0, 64, 84
1, 666018, Note_off_c, 0, 75, 60
1, 666031, Control_c, 0, 64, 68
1, 666046, Control_c, 0, 64, 38
1, 666055, Note_on_c, 0, 72, 73
1, 666061, Control_c, 0, 64, 0
1, 666068, Note_on_c, 0, 60, 32
1, 666076, Note_on_c, 0, 63, 45
1, 666077, Note_on_c, 0, 69, 51
1, 666198, Note_off_c, 0, 63, 48
1, 666204, Note_off_c, 0, 69, 54
1, 666216, Control_c, 0, 64, 31
1, 666231, Control_c, 0, 64, 52
1, 666246, Control_c, 0, 64, 63
1, 666260, Control_c, 0, 64, 66
1, 666267, Note_off_c, 0, 60, 0
1, 666275, Control_c, 0, 64, 69
1, 666279, Note_on_c, 0, 69, 32
1, 666290, Control_c, 0, 64, 74
1, 666295, Note_on_c, 0, 63, 4
1, 666304, Poly_aftertouch_c, 0, 60, 127
1, 666305, Control_c, 0, 64, 83
1, 666320, Control_c, 0, 64, 97
1, 666335, Control_c, 0, 64, 127
1, 666350, Note_off_c, 0, 63, 47
1, 666350, Note_off_c, 0, 69, 50
1, 666356, Note_on_c, 0, 75, 47
1, 666362, Poly_aftertouch_c, 0, 60, 0
1, 666377, Note_off_c, 0, 75, 56
1, 666400, Note_on_c, 0, 78, 60
1, 666435, Note_off_c, 0, 78, 66
1, 666457, Note_on_c, 0, 84, 56
1, 666466, Note_on_c, 0, 69, 36
1, 666469, Note_on_c, 0, 60, 36
1, 666483, Note_on_c, 0, 63, 39
1, 666518, Note_off_c, 0, 63, 52
1, 666520, Note_off_c, 0, 69, 51
1, 666521, Note_off_c, 0, 60, 55
1, 666541, Note_off_c, 0, 84, 61
1, 666636, Note_on_c, 0, 63, 42
1, 666646, Note_on_c, 0, 69, 53
1, 666651, Note_on_c, 0, 60, 45
1, 666701, Note_off_c, 0, 63, 55
1, 666701, Note_off_c, 0, 69, 56
1, 666702, Note_off_c, 0, 60, 57
1, 666810, Note_on_c, 0, 74, 74
1, 666823, Note_on_c, 0, 69, 52
1, 666832, Note_on_c, 0, 63, 51
1, 666842, Note_on_c, 0, 60, 38
1, 666879, Note_off_c, 0, 69, 57
1, 666883, Note_off_c, 0, 60, 59
1, 666886, Note_off_c, 0, 72, 38
1, 666886, Note_off_c, 0, 63, 55
1, 666990, Note_on_c, 0, 69, 65
1, 666994, Note_on_c, 0, 63, 64
1, 667029, Note_on_c, 0, 60, 6
1, 667032, Note_off_c, 0, 69, 61
1, 667053, Note_off_c, 0, 63, 54
1, 667072, Note_off_c, 0, 60, 37
1, 667098, Control_c, 0, 64, 110
1, 667113, Control_c, 0, 64, 81
1, 667125, Note_off_c, 0, 74, 60
1, 667128, Control_c, 0, 64, 64
1, 667143, Control_c, 0, 64, 41
1, 667149, Note_on_c, 0, 62, 50
1, 667150, Note_on_c, 0, 71, 80
1, 667155, Note_on_c, 0, 68, 55
1, 667158, Control_c, 0, 64, 0
1, 667160, Note_on_c, 0, 60, 35
1, 667173, Control_c, 0, 64, 26
1, 667187, Control_c, 0, 64, 38
1, 667202, Control_c, 0, 64, 47
1, 667217, Control_c, 0, 64, 54
1, 667217, Note_off_c, 0, 60, 57
1, 667231, Control_c, 0, 64, 59
1, 667241, Note_off_c, 0, 62, 59
1, 667241, Note_off_c, 0, 68, 56
1, 667246, Control_c, 0, 64, 63
1, 667261, Control_c, 0, 64, 70
1, 667276, Control_c, 0, 64, 79
1, 667291, Control_c, 0, 64, 97
1, 667305, Control_c, 0, 64, 127
1, 667332, Note_on_c, 0, 68, 44
1, 667344, Note_on_c, 0, 62, 39
1, 667353, Note_on_c, 0, 60, 43
1, 667384, Note_on_c, 0, 74, 51
1, 667391, Note_off_c, 0, 60, 60
1, 667402, Note_off_c, 0, 62, 56
1, 667407, Note_off_c, 0, 68, 51
1, 667423, Note_off_c, 0, 74, 55
1, 667431, Note_on_c, 0, 77, 62
1, 667492, Note_on_c, 0, 83, 59
1, 667499, Note_off_c, 0, 77, 52
1, 667513, Note_on_c, 0, 68, 43
1, 667514, Note_on_c, 0, 60, 40
1, 667529, Note_on_c, 0, 62, 43
1, 667551, Note_off_c, 0, 83, 63
1, 667569, Note_off_c, 0, 60, 56
1, 667580, Note_off_c, 0, 62, 58
1, 667597, Note_off_c, 0, 68, 50
1, 667688, Note_on_c, 0, 68, 30
1, 667696, Note_on_c, 0, 72, 68
1, 667700, Note_off_c, 0, 71, 58
1, 667710, Note_on_c, 0, 60, 42
1, 667719, Note_on_c, 0, 62, 45
1, 667755, Note_off_c, 0, 60, 58
1, 667769, Note_off_c, 0, 62, 57
1, 667807, Note_off_c, 0, 68, 35
1, 667875, Note_on_c, 0, 68, 36
1, 667875, Note_on_c, 0, 71, 75
1, 667881, Note_on_c, 0, 60, 42
1, 667893, Note_off_c, 0, 72, 62
1, 667898, Note_on_c, 0, 62, 47
1, 667929, Note_off_c, 0, 60, 58
1, 667942, Note_off_c, 0, 62, 60
1, 667955, Note_off_c, 0, 68, 50
1, 668037, Note_on_c, 0, 72, 82
1, 668043, Note_off_c, 0, 71, 49
1, 668050, Note_on_c, 0, 68, 45
1, 668052, Note_on_c, 0, 60, 50
1, 668053, Note_on_c, 0, 62, 49
1, 668100, Note_off_c, 0, 60, 58
1, 668108, Note_off_c, 0, 68, 53
1, 668112, Note_off_c, 0, 62, 51
1, 668173, Control_c, 0, 64, 100
1, 668188, Control_c, 0, 64, 76
1, 668204, Control_c, 0, 64, 63
1, 668210, Note_on_c, 0, 71, 77
1, 668219, Note_on_c, 0, 60, 44
1, 668219, Control_c, 0, 64, 50
1, 668222, Note_on_c, 0, 68, 35
1, 668227, Note_on_c, 0, 62, 36
1, 668234, Note_off_c, 0, 72, 45
1, 668248, Control_c, 0, 64, 54
1, 668263, Control_c, 0, 64, 57
1, 668277, Control_c, 0, 64, 61
1, 668292, Control_c, 0, 64, 64
1, 668300, Note_off_c, 0, 60, 55
1, 668307, Control_c, 0, 64, 69
1, 668311, Note_off_c, 0, 68, 52
1, 668316, Note_off_c, 0, 62, 55
1, 668322, Control_c, 0, 64, 79
1, 668337, Control_c, 0, 64, 101
1, 668351, Control_c, 0, 64, 127
1, 668380, Note_off_c, 0, 71, 61
1, 668405, Note_on_c, 0, 72, 63
1, 668411, Note_on_c, 0, 68, 35
1, 668422, Note_on_c, 0, 62, 29
1, 668423, Note_on_c, 0, 60, 35
1, 668472, Note_off_c, 0, 60, 56
1, 668485, Note_off_c, 0, 68, 50
1, 668485, Note_off_c, 0, 62, 54
1, 668514, Note_off_c, 0, 72, 55
1, 668536, Note_on_c, 0, 74, 50
1, 668554, Note_on_c, 0, 77, 52
1, 668574, Note_on_c, 0, 83, 53
1, 668575, Note_on_c, 0, 68, 24
1, 668585, Note_on_c, 0, 62, 30
1, 668594, Note_on_c, 0, 60, 36
1, 668594, Note_off_c, 0, 74, 57
1, 668636, Note_off_c, 0, 60, 52
1, 668642, Note_off_c, 0, 62, 55
1, 668660, Note_off_c, 0, 68, 38
1, 668677, Note_off_c, 0, 77, 58
1, 668721, Note_on_c, 0, 72, 67
1, 668724, Note_off_c, 0, 83, 54
1, 668728, Note_on_c, 0, 68, 36
1, 668732, Note_on_c, 0, 76, 65
1, 668741, Note_on_c, 0, 62, 36
1, 668752, Note_on_c, 0, 60, 34
1, 668793, Note_off_c, 0, 60, 50
1, 668803, Note_off_c, 0, 62, 56
1, 668804, Note_off_c, 0, 68, 52
1, 668806, Note_off_c, 0, 72, 61
1, 668895, Note_on_c, 0, 68, 42
1, 668895, Note_on_c, 0, 71, 75
1, 668907, Note_on_c, 0, 60, 46
1, 668913, Note_on_c, 0, 62, 41
1, 668916, Note_on_c, 0, 77, 70
1, 668924, Note_off_c, 0, 76, 60
1, 668956, Note_off_c, 0, 60, 55
1, 668974, Note_off_c, 0, 62, 54
1, 668979, Note_off_c, 0, 68, 54
1, 668987, Note_off_c, 0, 71, 58
1, 669071, Note_on_c, 0, 72, 81
1, 669077, Note_off_c, 0, 77, 52
1, 669081, Note_on_c, 0, 68, 55
1, 669083, Note_on_c, 0, 79, 73
1, 669093, Note_on_c, 0, 60, 46
1, 669093, Note_on_c, 0, 62, 50
1, 669138, Note_off_c, 0, 60, 59
1, 669161, Note_off_c, 0, 62, 54
1, 669167, Note_off_c, 0, 68, 55
1, 669167, Note_off_c, 0, 72, 59
1, 669226, Control_c, 0, 64, 88
1, 669241, Control_c, 0, 64, 72
1, 669255, Note_on_c, 0, 71, 73
1, 669256, Control_c, 0, 64, 62
1, 669257, Note_on_c, 0, 60, 43
1, 669259, Note_on_c, 0, 68, 44
1, 669263, Note_on_c, 0, 80, 70
1, 669264, Note_on_c, 0, 62, 41
1, 669264, Note_off_c, 0, 79, 56
1, 669271, Control_c, 0, 64, 55
1, 669286, Control_c, 0, 64, 59
1, 669301, Control_c, 0, 64, 61
1, 669315, Control_c, 0, 64, 64
1, 669330, Control_c, 0, 64, 66
1, 669345, Control_c, 0, 64, 69
1, 669360, Control_c, 0, 64, 74
1, 669361, Note_off_c, 0, 68, 50
1, 669372, Note_off_c, 0, 60, 37
1, 669375, Control_c, 0, 64, 83
1, 669389, Control_c, 0, 64, 97
1, 669404, Control_c, 0, 64, 127
1, 669419, Note_off_c, 0, 62, 0
1, 669441, Note_on_c, 0, 68, 41
1, 669443, Note_on_c, 0, 62, 15
1, 669444, Note_on_c, 0, 79, 57
1, 669449, Note_on_c, 0, 60, 33
1, 669524, Note_off_c, 0, 60, 48
1, 669525, Note_off_c, 0, 80, 48
1, 669594, Note_off_c, 0, 68, 0
1, 669598, Note_off_c, 0, 62, 0
1, 669609, Note_on_c, 0, 68, 28
1, 669615, Note_on_c, 0, 62, 24
1, 669623, Note_on_c, 0, 76, 58
1, 669623, Note_on_c, 0, 60, 34
1, 669648, Note_off_c, 0, 71, 52
1, 669688, Note_off_c, 0, 60, 52
1, 669756, Note_off_c, 0, 62, 0
1, 669769, Note_off_c, 0, 68, 0
1, 669781, Note_on_c, 0, 62, 11
1, 669783, Note_on_c, 0, 68, 31
1, 669788, Note_on_c, 0, 72, 63
1, 669796, Note_on_c, 0, 77, 70
1, 669802, Note_on_c, 0, 60, 34
1, 669824, Note_off_c, 0, 76, 58
1, 669846, Note_off_c, 0, 79, 33
1, 669855, Note_off_c, 0, 60, 52
1, 669858, Note_off_c, 0, 72, 60
1, 669870, Note_off_c, 0, 68, 48
1, 669948, Note_off_c, 0, 62, 0
1, 669972, Note_on_c, 0, 62, 14
1, 669972, Note_on_c, 0, 79, 73
1, 669978, Note_on_c, 0, 68, 46
1, 669978, Note_on_c, 0, 71, 67
1, 669995, Note_on_c, 0, 60, 39
1, 670003, Note_off_c, 0, 77, 52
1, 670031, Note_off_c, 0, 71, 56
1, 670043, Note_off_c, 0, 60, 54
1, 670049, Note_off_c, 0, 68, 48
1, 670138, Note_off_c, 0, 62, 0
1, 670141, Note_on_c, 0, 80, 76
1, 670151, Note_off_c, 0, 79, 59
1, 670151, Note_on_c, 0, 72, 64
1, 670154, Note_on_c, 0, 62, 29
1, 670157, Note_on_c, 0, 68, 48
1, 670177, Note_on_c, 0, 60, 41
1, 670222, Note_off_c, 0, 60, 55
1, 670222, Note_off_c, 0, 72, 59
1, 670246, Note_off_c, 0, 80, 60
1, 670252, Note_off_c, 0, 68, 54
1, 670300, Control_c, 0, 64, 95
1, 670312, Note_off_c, 0, 62, 0
1, 670315, Control_c, 0, 64, 79
1, 670329, Control_c, 0, 64, 66
1, 670334, Note_on_c, 0, 62, 13
1, 670340, Note_on_c, 0, 81, 65
1, 670344, Note_on_c, 0, 67, 47
1, 670344, Control_c, 0, 64, 59
1, 670348, Note_on_c, 0, 60, 42
1, 670348, Note_on_c, 0, 71, 57
1, 670374, Control_c, 0, 64, 61
1, 670389, Control_c, 0, 64, 63
1, 670403, Control_c, 0, 64, 65
1, 670418, Control_c, 0, 64, 67
1, 670433, Control_c, 0, 64, 72
1, 670447, Control_c, 0, 64, 76
1, 670456, Note_off_c, 0, 67, 48
1, 670462, Control_c, 0, 64, 83
1, 670477, Control_c, 0, 64, 93
1, 670492, Control_c, 0, 64, 110
1, 670507, Control_c, 0, 64, 127
1, 670532, Note_off_c, 0, 62, 0
1, 670536, Note_off_c, 0, 60, 0
1, 670549, Note_on_c, 0, 79, 61
1, 670550, Note_on_c, 0, 62, 26
1, 670557, Note_on_c, 0, 60, 16
1, 670560, Note_on_c, 0, 67, 42
1, 670623, Note_off_c, 0, 67, 50
1, 670658, Note_off_c, 0, 81, 28
1, 670664, Note_off_c, 0, 60, 37
1, 670719, Note_off_c, 0, 62, 0
1, 670737, Note_on_c, 0, 62, 25
1, 670741, Note_on_c, 0, 77, 57
1, 670744, Note_on_c, 0, 67, 42
1, 670745, Note_on_c, 0, 60, 18
1, 670778, Note_off_c, 0, 71, 25
1, 670809, Note_off_c, 0, 67, 54
1, 670830, Note_off_c, 0, 60, 39
1, 670847, Note_off_c, 0, 62, 38
1, 670888, Note_off_c, 0, 79, 35
1, 670942, Note_on_c, 0, 67, 48
1, 670943, Note_off_c, 0, 77, 53
1, 670944, Note_on_c, 0, 76, 58
1, 670945, Note_on_c, 0, 62, 34
1, 670946, Note_on_c, 0, 60, 25
1, 670967, Note_on_c, 0, 72, 43
1, 671000, Note_off_c, 0, 72, 52
1, 671001, Note_off_c, 0, 67, 54
1, 671003, Note_off_c, 0, 62, 55
1, 671004, Note_off_c, 0, 60, 52
1, 671019, Control_c, 0, 64, 115
1, 671033, Control_c, 0, 64, 110
1, 671048, Control_c, 0, 64, 107
1, 671063, Control_c, 0, 64, 103
1, 671078, Control_c, 0, 64, 97
1, 671092, Control_c, 0, 64, 90
1, 671108, Control_c, 0, 64, 82
1, 671123, Control_c, 0, 64, 74
1, 671138, Control_c, 0, 64, 66
1, 671152, Control_c, 0, 64, 61
1, 671155, Note_off_c, 0, 76, 59
1, 671167, Control_c, 0, 64, 60
1, 671168, Note_on_c, 0, 62, 41
1, 671169, Note_on_c, 0, 77, 55
1, 671170, Note_on_c, 0, 74, 43
1, 671178, Note_on_c, 0, 69, 47
1, 671182, Note_on_c, 0, 60, 32
1, 671182, Control_c, 0, 64, 62
1, 671197, Control_c, 0, 64, 63
1, 671212, Control_c, 0, 64, 65
1, 671227, Control_c, 0, 64, 67
1, 671242, Control_c, 0, 64, 69
1, 671256, Control_c, 0, 64, 72
1, 671260, Note_off_c, 0, 69, 47
1, 671271, Control_c, 0, 64, 75
1, 671279, Note_off_c, 0, 60, 33
1, 671286, Control_c, 0, 64, 80
1, 671301, Control_c, 0, 64, 84
1, 671316, Control_c, 0, 64, 86
1, 671331, Control_c, 0, 64, 84
1, 671345, Control_c, 0, 64, 80
1, 671360, Control_c, 0, 64, 73
1, 671375, Control_c, 0, 64, 66
1, 671379, Note_off_c, 0, 62, 23
1, 671382, Note_off_c, 0, 74, 51
1, 671390, Control_c, 0, 64, 62
1, 671413, Control_c, 0, 64, 60
1, 671428, Control_c, 0, 64, 61
1, 671430, Note_on_c, 0, 69, 42
1, 671432, Poly_aftertouch_c, 0, 60, 127
1, 671443, Control_c, 0, 64, 62
1, 671444, Note_on_c, 0, 63, 37
1, 671451, Note_on_c, 0, 75, 42
1, 671455, Note_off_c, 0, 77, 55
1, 671457, Control_c, 0, 64, 64
1, 671464, Note_on_c, 0, 79, 54
1, 671472, Control_c, 0, 64, 66
1, 671487, Control_c, 0, 64, 68
1, 671501, Control_c, 0, 64, 72
1, 671512, Poly_aftertouch_c, 0, 60, 0
1, 671516, Control_c, 0, 64, 77
1, 671529, Note_off_c, 0, 75, 62
1, 671530, Note_off_c, 0, 63, 48
1, 671531, Control_c, 0, 64, 83
1, 671546, Control_c, 0, 64, 94
1, 671561, Control_c, 0, 64, 127
1, 671590, Note_off_c, 0, 69, 30
1, 671709, Control_c, 0, 64, 108
1, 671724, Control_c, 0, 64, 92
1, 671729, Note_on_c, 0, 60, 50
1, 671735, Note_off_c, 0, 79, 56
1, 671739, Control_c, 0, 64, 79
1, 671754, Control_c, 0, 64, 70
1, 671763, Note_on_c, 0, 76, 57
1, 671769, Control_c, 0, 64, 62
1, 671783, Control_c, 0, 64, 52
1, 671798, Control_c, 0, 64, 47
1, 671813, Control_c, 0, 64, 48
1, 671836, Note_off_c, 0, 60, 51
1, 671842, Control_c, 0, 64, 49
1, 671843, Note_off_c, 0, 76, 58
1, 671891, Note_on_c, 0, 79, 50
1, 671942, Note_off_c, 0, 79, 58
1, 671961, Control_c, 0, 64, 48
1, 672001, Note_on_c, 0, 82, 50
1, 672005, Control_c, 0, 64, 48
1, 672020, Control_c, 0, 64, 47
1, 672035, Control_c, 0, 64, 45
1, 672037, Note_off_c, 0, 82, 65
1, 672049, Control_c, 0, 64, 42
1, 672064, Control_c, 0, 64, 38
1, 672076, Note_on_c, 0, 88, 70
1, 672079, Note_on_c, 0, 70, 53
1, 672079, Control_c, 0, 64, 34
1, 672094, Control_c, 0, 64, 32
1, 672106, Note_off_c, 0, 88, 64
1, 672109, Control_c, 0, 64, 30
1, 672119, Note_off_c, 0, 70, 61
1, 672124, Control_c, 0, 64, 30
1, 672139, Control_c, 0, 64, 29
1, 672398, Note_on_c, 0, 54, 51
1, 672404, Note_on_c, 0, 75, 66
1, 672436, Note_off_c, 0, 54, 65
1, 672696, Note_on_c, 0, 70, 56
1, 672732, Note_off_c, 0, 70, 62
1, 672966, Note_on_c, 0, 60, 55
1, 672994, Note_off_c, 0, 75, 57
1, 673001, Note_off_c, 0, 60, 65
1, 673139, Note_on_c, 0, 76, 46
1, 673179, Note_on_c, 0, 79, 56
1, 673200, Note_off_c, 0, 76, 58
1, 673206, Note_on_c, 0, 82, 73
1, 673218, Note_off_c, 0, 79, 67
1, 673218, Note_on_c, 0, 88, 68
1, 673226, Note_on_c, 0, 70, 61
1, 673229, Note_off_c, 0, 82, 70
1, 673246, Note_off_c, 0, 88, 68
1, 673256, Note_off_c, 0, 70, 66
1, 673461, Note_on_c, 0, 54, 48
1, 673463, Note_on_c, 0, 75, 61
1, 673498, Note_off_c, 0, 75, 60
1, 673528, Note_off_c, 0, 54, 56
1, 673636, Note_on_c, 0, 76, 44
1, 673678, Note_on_c, 0, 79, 59
1, 673685, Note_off_c, 0, 76, 65
1, 673700, Note_on_c, 0, 82, 69
1, 673702, Note_on_c, 0, 88, 77
1, 673709, Note_off_c, 0, 79, 67
1, 673717, Note_on_c, 0, 70, 55
1, 673725, Note_off_c, 0, 82, 69
1, 673727, Note_off_c, 0, 88, 69
1, 673750, Note_off_c, 0, 70, 65
1, 673762, Control_c, 0, 64, 29
1, 673937, Note_on_c, 0, 60, 57
1, 673947, Note_on_c, 0, 77, 73
1, 673977, Note_off_c, 0, 60, 62
1, 673979, Note_off_c, 0, 77, 61
1, 674032, Note_on_c, 0, 79, 62
1, 674067, Note_off_c, 0, 79, 61
1, 674104, Note_on_c, 0, 82, 65
1, 674132, Note_off_c, 0, 82, 68
1, 674152, Note_on_c, 0, 89, 83
1, 674162, Note_on_c, 0, 70, 69
1, 674163, Control_c, 0, 64, 28
1, 674173, Note_off_c, 0, 89, 68
1, 674178, Control_c, 0, 64, 27
1, 674188, Note_off_c, 0, 70, 67
1, 674193, Control_c, 0, 64, 26
1, 674208, Control_c, 0, 64, 24
1, 674222, Control_c, 0, 64, 23
1, 674237, Control_c, 0, 64, 22
1, 674252, Control_c, 0, 64, 21
1, 674376, Note_on_c, 0, 54, 63
1, 674386, Note_on_c, 0, 76, 91
1, 674422, Control_c, 0, 64, 21
1, 674428, Note_off_c, 0, 54, 60
1, 674437, Control_c, 0, 64, 20
1, 674511, Control_c, 0, 64, 19
1, 674626, Note_on_c, 0, 70, 70
1, 674654, Note_off_c, 0, 70, 66
1, 674675, Control_c, 0, 64, 18
1, 674854, Note_on_c, 0, 60, 56
1, 674856, Note_off_c, 0, 76, 62
1, 674890, Note_off_c, 0, 60, 65
1, 674912, Control_c, 0, 64, 19
1, 674941, Control_c, 0, 64, 20
1, 674991, Note_on_c, 0, 77, 56
1, 675018, Note_on_c, 0, 79, 61
1, 675029, Note_off_c, 0, 77, 64
1, 675036, Note_on_c, 0, 82, 75
1, 675047, Note_off_c, 0, 79, 67
1, 675054, Note_on_c, 0, 89, 75
1, 675058, Note_off_c, 0, 82, 70
1, 675063, Note_on_c, 0, 70, 67
1, 675078, Note_off_c, 0, 89, 69
1, 675090, Note_off_c, 0, 70, 66
1, 675119, Control_c, 0, 64, 19
1, 675134, Control_c, 0, 64, 18
1, 675272, Note_on_c, 0, 76, 73
1, 675281, Note_on_c, 0, 54, 50
1, 675304, Note_off_c, 0, 76, 65
1, 675321, Note_off_c, 0, 54, 64
1, 675426, Note_on_c, 0, 77, 56
1, 675466, Note_on_c, 0, 79, 62
1, 675468, Note_off_c, 0, 77, 64
1, 675483, Note_on_c, 0, 82, 68
1, 675491, Note_on_c, 0, 89, 75
1, 675494, Note_off_c, 0, 79, 68
1, 675499, Note_on_c, 0, 70, 62
1, 675508, Note_off_c, 0, 82, 68
1, 675521, Note_off_c, 0, 89, 64
1, 675534, Note_off_c, 0, 70, 63
1, 675701, Note_on_c, 0, 78, 58
1, 675708, Note_on_c, 0, 60, 58
1, 675746, Note_off_c, 0, 60, 62
1, 675767, Note_off_c, 0, 78, 62
1, 675773, Note_on_c, 0, 81, 57
1, 675819, Note_off_c, 0, 81, 57
1, 675823, Control_c, 0, 64, 17
1, 675838, Note_on_c, 0, 84, 66
1, 675884, Note_on_c, 0, 90, 70
1, 675884, Note_off_c, 0, 84, 65
1, 675907, Note_on_c, 0, 69, 55
1, 675925, Note_off_c, 0, 90, 63
1, 675931, Note_off_c, 0, 69, 63
1, 676113, Note_on_c, 0, 77, 88
1, 676122, Note_on_c, 0, 54, 58
1, 676162, Note_off_c, 0, 54, 66
1, 676343, Note_on_c, 0, 69, 68
1, 676383, Note_off_c, 0, 69, 63
1, 676498, Control_c, 0, 64, 17
1, 676513, Control_c, 0, 64, 16
1, 676528, Control_c, 0, 64, 15
1, 676541, Note_on_c, 0, 60, 69
1, 676547, Note_off_c, 0, 77, 61
1, 676558, Control_c, 0, 64, 13
1, 676573, Note_off_c, 0, 60, 62
1, 676602, Control_c, 0, 64, 12
1, 676697, Note_on_c, 0, 78, 56
1, 676725, Note_on_c, 0, 81, 59
1, 676729, Note_off_c, 0, 78, 65
1, 676738, Note_on_c, 0, 69, 66
1, 676740, Note_on_c, 0, 84, 60
1, 676742, Note_on_c, 0, 90, 71
1, 676753, Note_off_c, 0, 81, 67
1, 676768, Note_off_c, 0, 69, 64
1, 676768, Note_off_c, 0, 84, 66
1, 676785, Note_off_c, 0, 90, 63
1, 676911, Note_on_c, 0, 77, 76
1, 676927, Note_on_c, 0, 54, 62
1, 676944, Note_off_c, 0, 77, 65
1, 676967, Note_off_c, 0, 54, 66
1, 677079, Note_on_c, 0, 78, 67
1, 677107, Note_on_c, 0, 69, 53
1, 677109, Note_on_c, 0, 81, 54
1, 677109, Note_on_c, 0, 84, 67
1, 677111, Note_off_c, 0, 78, 67
1, 677116, Note_on_c, 0, 90, 70
1, 677126, Note_off_c, 0, 81, 64
1, 677128, Note_off_c, 0, 69, 61
1, 677135, Note_off_c, 0, 84, 68
1, 677142, Note_off_c, 0, 90, 69
1, 677248, Control_c, 0, 64, 11
1, 677262, Control_c, 0, 64, 9
1, 677276, Note_on_c, 0, 53, 63
1, 677277, Control_c, 0, 64, 0
1, 677284, Note_on_c, 0, 55, 55
1, 677306, Note_off_c, 0, 53, 64
1, 677308, Note_off_c, 0, 55, 62
1, 677323, Note_on_c, 0, 79, 61
1, 677379, Note_on_c, 0, 83, 62
1, 677380, Note_off_c, 0, 79, 60
1, 677409, Note_on_c, 0, 86, 69
1, 677415, Note_off_c, 0, 83, 67
1, 677436, Note_off_c, 0, 86, 69
1, 677437, Note_on_c, 0, 91, 81
1, 677459, Note_off_c, 0, 91, 69
1, 677632, Note_on_c, 0, 65, 56
1, 677633, Note_on_c, 0, 67, 58
1, 677653, Note_off_c, 0, 65, 61
1, 677653, Note_off_c, 0, 67, 61
1, 677801, Note_on_c, 0, 79, 70
1, 677806, Note_on_c, 0, 77, 63
1, 677825, Note_off_c, 0, 77, 66
1, 677828, Note_off_c, 0, 79, 69
1, 677983, Note_on_c, 0, 55, 57
1, 677985, Note_on_c, 0, 53, 57
1, 678006, Note_off_c, 0, 55, 59
1, 678009, Note_off_c, 0, 53, 59
1, 678189, Note_on_c, 0, 65, 61
1, 678190, Note_on_c, 0, 67, 65
1, 678216, Note_off_c, 0, 65, 64
1, 678219, Note_off_c, 0, 67, 64
1, 678452, Note_on_c, 0, 41, 63
1, 678462, Note_on_c, 0, 43, 52
1, 678483, Note_off_c, 0, 41, 65
1, 678490, Note_off_c, 0, 43, 56
1, 679028, Note_on_c, 0, 79, 57
1, 679034, Note_on_c, 0, 65, 55
1, 679072, Note_off_c, 0, 65, 63
1, 679084, Note_off_c, 0, 79, 51
1, 679102, Note_on_c, 0, 82, 58
1, 679130, Note_off_c, 0, 82, 67
1, 679174, Note_on_c, 0, 86, 66
1, 679206, Note_off_c, 0, 86, 65
1, 679241, Note_on_c, 0, 91, 71
1, 679257, Note_on_c, 0, 74, 51
1, 679257, Note_off_c, 0, 91, 67
1, 679287, Note_off_c, 0, 74, 62
1, 679466, Note_on_c, 0, 60, 52
1, 679470, Note_on_c, 0, 78, 89
1, 679497, Note_off_c, 0, 60, 64
1, 679698, Note_on_c, 0, 74, 59
1, 679733, Note_off_c, 0, 74, 63
1, 679886, Note_on_c, 0, 65, 63
1, 679907, Note_off_c, 0, 78, 54
1, 679916, Note_off_c, 0, 65, 65
1, 680002, Note_on_c, 0, 79, 51
1, 680042, Note_on_c, 0, 82, 58
1, 680045, Note_off_c, 0, 79, 66
1, 680056, Note_on_c, 0, 86, 66
1, 680064, Note_on_c, 0, 91, 78
1, 680073, Note_off_c, 0, 82, 67
1, 680078, Note_on_c, 0, 74, 59
1, 680083, Note_off_c, 0, 86, 67
1, 680094, Note_off_c, 0, 91, 65
1, 680116, Note_off_c, 0, 74, 61
1, 680265, Note_on_c, 0, 60, 49
1, 680265, Note_on_c, 0, 78, 69
1, 680294, Note_off_c, 0, 60, 62
1, 680295, Note_off_c, 0, 78, 66
1, 680402, Note_on_c, 0, 79, 55
1, 680435, Note_off_c, 0, 79, 65
1, 680438, Note_on_c, 0, 82, 65
1, 680447, Note_on_c, 0, 91, 79
1, 680449, Note_on_c, 0, 86, 62
1, 680466, Note_off_c, 0, 82, 67
1, 680467, Note_on_c, 0, 74, 57
1, 680477, Note_off_c, 0, 86, 65
1, 680482, Note_off_c, 0, 91, 66
1, 680503, Note_off_c, 0, 74, 63
1, 680635, Note_on_c, 0, 80, 77
1, 680648, Note_on_c, 0, 65, 55
1, 680679, Note_off_c, 0, 65, 62
1, 680691, Note_off_c, 0, 80, 62
1, 680716, Note_on_c, 0, 82, 67
1, 680761, Note_off_c, 0, 82, 64
1, 680780, Note_on_c, 0, 86, 71
1, 680810, Note_off_c, 0, 86, 66
1, 680810, Note_on_c, 0, 92, 80
1, 680831, Note_on_c, 0, 74, 62
1, 680834, Note_off_c, 0, 92, 69
1, 680861, Note_off_c, 0, 74, 65
1, 681013, Note_on_c, 0, 79, 89
1, 681017, Note_on_c, 0, 60, 57
1, 681050, Note_off_c, 0, 60, 64
1, 681230, Note_on_c, 0, 74, 65
1, 681264, Note_off_c, 0, 74, 59
1, 681391, Note_off_c, 0, 79, 61
1, 681409, Note_on_c, 0, 65, 60
1, 681445, Note_off_c, 0, 65, 63
1, 681535, Note_on_c, 0, 80, 56
1, 681555, Note_on_c, 0, 82, 62
1, 681557, Note_off_c, 0, 80, 63
1, 681570, Note_on_c, 0, 86, 67
1, 681573, Note_on_c, 0, 92, 84
1, 681580, Note_on_c, 0, 74, 63
1, 681584, Note_off_c, 0, 82, 67
1, 681597, Note_off_c, 0, 86, 67
1, 681613, Note_off_c, 0, 74, 63
1, 681621, Note_off_c, 0, 92, 63
1, 681743, Note_on_c, 0, 79, 68
1, 681755, Note_on_c, 0, 60, 51
1, 681769, Note_off_c, 0, 79, 68
1, 681785, Note_off_c, 0, 60, 61
1, 681894, Note_on_c, 0, 80, 56
1, 681921, Note_off_c, 0, 80, 64
1, 681929, Note_on_c, 0, 82, 62
1, 681935, Note_on_c, 0, 74, 64
1, 681938, Note_on_c, 0, 92, 84
1, 681945, Note_on_c, 0, 86, 61
1, 681956, Note_off_c, 0, 82, 67
1, 681966, Note_off_c, 0, 86, 64
1, 681967, Note_off_c, 0, 74, 65
1, 681993, Note_off_c, 0, 92, 65
1, 682100, Note_on_c, 0, 81, 69
1, 682102, Note_on_c, 0, 65, 63
1, 682145, Note_off_c, 0, 65, 58
1, 682160, Note_off_c, 0, 81, 63
1, 682168, Note_on_c, 0, 83, 65
1, 682206, Note_off_c, 0, 83, 59
1, 682219, Note_on_c, 0, 86, 74
1, 682254, Note_off_c, 0, 86, 64
1, 682256, Note_on_c, 0, 93, 89
1, 682271, Note_on_c, 0, 74, 66
1, 682292, Note_off_c, 0, 93, 64
1, 682300, Note_off_c, 0, 74, 66
1, 682442, Note_on_c, 0, 59, 66
1, 682450, Note_on_c, 0, 80, 93
1, 682483, Note_off_c, 0, 59, 60
1, 682643, Note_on_c, 0, 74, 80
1, 682690, Note_off_c, 0, 74, 62
1, 682811, Note_on_c, 0, 65, 67
1, 682825, Note_off_c, 0, 80, 58
1, 682852, Note_off_c, 0, 65, 57
1, 682924, Note_on_c, 0, 81, 66
1, 682951, Note_off_c, 0, 81, 66
1, 682953, Note_on_c, 0, 83, 63
1, 682959, Note_on_c, 0, 93, 86
1, 682963, Note_on_c, 0, 74, 79
1, 682967, Note_on_c, 0, 86, 56
1, 682977, Note_off_c, 0, 83, 63
1, 682987, Note_off_c, 0, 86, 61
1, 683000, Note_off_c, 0, 74, 63
1, 683003, Note_off_c, 0, 93, 66
1, 683113, Note_on_c, 0, 59, 67
1, 683127, Note_on_c, 0, 80, 73
1, 683156, Note_off_c, 0, 59, 60
1, 683163, Note_off_c, 0, 80, 61
1, 683239, Note_on_c, 0, 81, 60
1, 683249, Note_on_c, 0, 83, 68
1, 683266, Note_off_c, 0, 81, 67
1, 683267, Note_on_c, 0, 74, 67
1, 683275, Note_on_c, 0, 93, 84
1, 683283, Note_off_c, 0, 74, 66
1, 683289, Note_off_c, 0, 83, 65
1, 683328, Note_off_c, 0, 93, 59
1, 683435, Note_on_c, 0, 58, 73
1, 683437, Note_on_c, 0, 60, 61
1, 683464, Note_off_c, 0, 60, 66
1, 683481, Note_on_c, 0, 82, 73
1, 683488, Note_off_c, 0, 58, 64
1, 683529, Note_on_c, 0, 84, 62
1, 683538, Note_off_c, 0, 82, 64
1, 683568, Note_on_c, 0, 88, 73
1, 683574, Note_on_c, 0, 94, 90
1, 683575, Note_off_c, 0, 84, 65
1, 683592, Note_off_c, 0, 88, 70
1, 683599, Note_off_c, 0, 94, 67
1, 683744, Note_on_c, 0, 62, 63
1, 683747, Note_on_c, 0, 60, 69
1, 683752, Note_on_c, 0, 58, 70
1, 683773, Note_off_c, 0, 60, 66
1, 683774, Note_off_c, 0, 62, 64
1, 683779, Note_off_c, 0, 58, 66
1, 683892, Note_on_c, 0, 72, 64
1, 683893, Note_on_c, 0, 74, 60
1, 683896, Note_on_c, 0, 70, 63
1, 683919, Note_off_c, 0, 72, 67
1, 683922, Note_off_c, 0, 74, 66
1, 683923, Note_off_c, 0, 70, 67
1, 684049, Note_on_c, 0, 50, 58
1, 684058, Note_on_c, 0, 48, 54
1, 684060, Note_on_c, 0, 46, 60
1, 684074, Note_off_c, 0, 50, 59
1, 684082, Note_off_c, 0, 48, 58
1, 684091, Note_off_c, 0, 46, 63
1, 684222, Note_on_c, 0, 60, 54
1, 684224, Note_on_c, 0, 58, 54
1, 684234, Note_on_c, 0, 62, 46
1, 684247, Note_off_c, 0, 58, 60
1, 684259, Note_off_c, 0, 62, 59
1, 684259, Note_off_c, 0, 60, 63
1, 684370, Note_on_c, 0, 34, 56
1, 684376, Note_on_c, 0, 38, 54
1, 684400, Note_off_c, 0, 34, 57
1, 684408, Note_off_c, 0, 38, 62
1, 684586, Control_c, 0, 64, 11
1, 684601, Control_c, 0, 64, 17
1, 684616, Control_c, 0, 64, 22
1, 684631, Control_c, 0, 64, 23
1, 684660, Control_c, 0, 64, 0
1, 684675, Note_on_c, 0, 55, 59
1, 684686, Note_on_c, 0, 43, 78
1, 684703, Note_on_c, 0, 58, 72
1, 684709, Note_on_c, 0, 61, 75
1, 684712, Note_off_c, 0, 43, 65
1, 684715, Note_on_c, 0, 50, 82
1, 684715, Note_on_c, 0, 64, 94
1, 684739, Note_off_c, 0, 61, 64
1, 684742, Note_off_c, 0, 50, 70
1, 684749, Control_c, 0, 64, 55
1, 684751, Note_off_c, 0, 58, 64
1, 684764, Control_c, 0, 64, 91
1, 684771, Note_off_c, 0, 55, 63
1, 684778, Control_c, 0, 64, 127
1, 684807, Note_off_c, 0, 64, 42
1, 684948, Note_on_c, 0, 67, 91
1, 684967, Note_off_c, 0, 67, 72
1, 684971, Note_on_c, 0, 64, 76
1, 684977, Note_on_c, 0, 58, 75
1, 684978, Note_on_c, 0, 74, 93
1, 684983, Note_on_c, 0, 55, 54
1, 684985, Note_on_c, 0, 61, 62
1, 684998, Note_off_c, 0, 74, 71
1, 685004, Note_off_c, 0, 58, 66
1, 685013, Note_off_c, 0, 61, 65
1, 685014, Note_off_c, 0, 64, 57
1, 685018, Note_off_c, 0, 55, 65
1, 685085, Note_on_c, 0, 58, 57
1, 685095, Note_on_c, 0, 61, 53
1, 685100, Note_on_c, 0, 64, 63
1, 685116, Note_on_c, 0, 55, 16
1, 685123, Note_off_c, 0, 58, 62
1, 685129, Note_off_c, 0, 61, 64
1, 685131, Note_off_c, 0, 64, 60
1, 685151, Note_off_c, 0, 55, 53
1, 685195, Note_on_c, 0, 79, 92
1, 685201, Control_c, 0, 64, 99
1, 685216, Note_on_c, 0, 64, 92
1, 685216, Control_c, 0, 64, 67
1, 685219, Note_on_c, 0, 61, 78
1, 685222, Note_on_c, 0, 55, 78
1, 685224, Note_on_c, 0, 58, 78
1, 685226, Note_on_c, 0, 86, 98
1, 685231, Control_c, 0, 64, 15
1, 685238, Note_off_c, 0, 79, 66
1, 685246, Control_c, 0, 64, 0
1, 685261, Note_off_c, 0, 58, 60
1, 685261, Control_c, 0, 64, 31
1, 685263, Note_off_c, 0, 61, 61
1, 685269, Note_off_c, 0, 64, 60
1, 685273, Note_off_c, 0, 55, 50
1, 685276, Control_c, 0, 64, 51
1, 685291, Control_c, 0, 64, 61
1, 685305, Control_c, 0, 64, 69
1, 685320, Control_c, 0, 64, 91
1, 685335, Control_c, 0, 64, 127
1, 685338, Note_on_c, 0, 64, 73
1, 685347, Note_on_c, 0, 61, 65
1, 685347, Note_on_c, 0, 58, 68
1, 685353, Note_on_c, 0, 55, 43
1, 685398, Note_off_c, 0, 64, 60
1, 685412, Note_off_c, 0, 55, 55
1, 685413, Note_off_c, 0, 58, 61
1, 685416, Note_off_c, 0, 61, 59
1, 685479, Note_off_c, 0, 86, 65
1, 685592, Note_on_c, 0, 64, 79
1, 685606, Note_on_c, 0, 58, 70
1, 685607, Note_on_c, 0, 61, 69
1, 685620, Note_on_c, 0, 55, 29
1, 685621, Note_off_c, 0, 64, 65
1, 685638, Control_c, 0, 64, 82
1, 685648, Note_off_c, 0, 61, 58
1, 685653, Control_c, 0, 64, 55
1, 685656, Note_off_c, 0, 58, 64
1, 685659, Note_off_c, 0, 55, 53
1, 685666, Note_on_c, 0, 91, 89
1, 685668, Control_c, 0, 64, 0
1, 685699, Note_on_c, 0, 54, 78
1, 685702, Note_on_c, 0, 60, 80
1, 685702, Note_on_c, 0, 63, 91
1, 685704, Note_on_c, 0, 57, 76
1, 685711, Note_on_c, 0, 86, 95
1, 685713, Note_off_c, 0, 91, 66
1, 685741, Control_c, 0, 64, 30
1, 685750, Note_on_c, 0, 64, 29
1, 685756, Control_c, 0, 64, 64
1, 685771, Control_c, 0, 64, 77
1, 685787, Note_off_c, 0, 63, 60
1, 685787, Note_off_c, 0, 64, 34
1, 685787, Control_c, 0, 64, 127
1, 685788, Note_off_c, 0, 54, 60
1, 685855, Note_off_c, 0, 60, 54
1, 685883, Note_off_c, 0, 86, 62
1, 685905, Note_on_c, 0, 90, 79
1, 685920, Control_c, 0, 64, 111
1, 685922, Note_off_c, 0, 57, 0
1, 685933, Note_on_c, 0, 54, 70
1, 685935, Control_c, 0, 64, 69
1, 685936, Note_on_c, 0, 57, 54
1, 685936, Note_on_c, 0, 63, 85
1, 685937, Note_off_c, 0, 90, 0
1, 685938, Note_on_c, 0, 85, 103
1, 685946, Note_on_c, 0, 60, 71
1, 685950, Control_c, 0, 64, 0
1, 685965, Poly_aftertouch_c, 0, 90, 0
1, 685980, Note_off_c, 0, 54, 58
1, 685982, Note_off_c, 0, 85, 68
1, 685985, Note_off_c, 0, 63, 64
1, 685986, Note_off_c, 0, 57, 62
1, 685988, Note_off_c, 0, 60, 64
1, 686058, Note_on_c, 0, 88, 29
1, 686070, Note_on_c, 0, 63, 76
1, 686076, Note_on_c, 0, 60, 57
1, 686085, Note_on_c, 0, 57, 54
1, 686091, Note_on_c, 0, 54, 41
1, 686095, Note_off_c, 0, 88, 39
1, 686117, Note_off_c, 0, 54, 60
1, 686119, Note_off_c, 0, 63, 60
1, 686125, Note_off_c, 0, 57, 65
1, 686125, Note_off_c, 0, 60, 64
1, 686144, Note_on_c, 0, 89, 74
1, 686176, Note_on_c, 0, 84, 101
1, 686184, Note_on_c, 0, 54, 78
1, 686188, Control_c, 0, 64, 50
1, 686188, Note_on_c, 0, 63, 86
1, 686193, Note_on_c, 0, 60, 69
1, 686194, Note_on_c, 0, 57, 76
1, 686198, Note_off_c, 0, 89, 63
1, 686203, Control_c, 0, 64, 60
1, 686204, Note_off_c, 0, 84, 69
1, 686218, Control_c, 0, 64, 68
1, 686232, Control_c, 0, 64, 127
1, 686238, Note_off_c, 0, 63, 63
1, 686250, Note_off_c, 0, 60, 63
1, 686256, Note_off_c, 0, 57, 61
1, 686265, Note_off_c, 0, 54, 0
1, 686298, Note_on_c, 0, 54, 13
1, 686312, Note_on_c, 0, 63, 70
1, 686313, Note_on_c, 0, 57, 53
1, 686322, Note_on_c, 0, 60, 46
1, 686416, Note_off_c, 0, 57, 58
1, 686428, Note_off_c, 0, 60, 57
1, 686431, Note_off_c, 0, 63, 56
1, 686437, Note_on_c, 0, 51, 108
1, 686507, Note_off_c, 0, 54, 33
1, 686563, Note_on_c, 0, 54, 38
1, 686566, Note_on_c, 0, 57, 66
1, 686567, Note_on_c, 0, 63, 69
1, 686569, Note_on_c, 0, 60, 64
1, 686581, Control_c, 0, 64, 114
1, 686594, Note_off_c, 0, 51, 50
1, 686596, Control_c, 0, 64, 83
1, 686604, Note_off_c, 0, 57, 64
1, 686608, Note_off_c, 0, 60, 57
1, 686611, Control_c, 0, 64, 63
1, 686616, Note_off_c, 0, 54, 60
1, 686622, Note_off_c, 0, 63, 61
1, 686626, Control_c, 0, 64, 0
1, 686634, Note_on_c, 0, 43, 79
1, 686672, Note_on_c, 0, 50, 91
1, 686679, Note_on_c, 0, 64, 97
1, 686683, Note_on_c, 0, 55, 84
1, 686685, Note_on_c, 0, 61, 84
1, 686685, Note_off_c, 0, 43, 65
1, 686689, Note_on_c, 0, 58, 82
1, 686708, Note_off_c, 0, 50, 64
1, 686715, Control_c, 0, 64, 43
1, 686729, Control_c, 0, 64, 81
1, 686743, Note_off_c, 0, 64, 60
1, 686744, Control_c, 0, 64, 127
1, 686802, Note_off_c, 0, 55, 54
1, 686832, Note_off_c, 0, 58, 50
1, 686835, Note_off_c, 0, 61, 57
1, 686899, Note_on_c, 0, 67, 87
1, 686924, Note_on_c, 0, 74, 85
1, 686926, Note_on_c, 0, 64, 79
1, 686932, Note_off_c, 0, 67, 67
1, 686934, Note_on_c, 0, 61, 72
1, 686936, Note_on_c, 0, 55, 56
1, 686936, Control_c, 0, 64, 73
1, 686938, Note_on_c, 0, 58, 69
1, 686950, Note_off_c, 0, 64, 65
1, 686951, Control_c, 0, 64, 0
1, 686954, Note_off_c, 0, 74, 65
1, 686957, Note_off_c, 0, 61, 70
1, 686958, Note_off_c, 0, 55, 62
1, 686964, Note_off_c, 0, 58, 69
1, 687036, Note_on_c, 0, 55, 58
1, 687042, Note_on_c, 0, 64, 81
1, 687043, Note_on_c, 0, 58, 73
1, 687046, Note_on_c, 0, 61, 72
1, 687079, Note_off_c, 0, 58, 63
1, 687079, Note_off_c, 0, 61, 64
1, 687082, Note_off_c, 0, 55, 60
1, 687094, Note_off_c, 0, 64, 61
1, 687136, Note_on_c, 0, 79, 75
1, 687161, Note_on_c, 0, 86, 103
1, 687168, Note_on_c, 0, 64, 89
1, 687174, Note_on_c, 0, 55, 78
1, 687179, Note_on_c, 0, 58, 85
1, 687187, Note_off_c, 0, 79, 65
1, 687191, Note_on_c, 0, 62, 70
1, 687195, Note_on_c, 0, 61, 39
1, 687195, Control_c, 0, 64, 49
1, 687210, Control_c, 0, 64, 58
1, 687220, Note_off_c, 0, 61, 53
1, 687223, Note_off_c, 0, 62, 65
1, 687225, Control_c, 0, 64, 69
1, 687231, Note_off_c, 0, 64, 58
1, 687235, Note_off_c, 0, 58, 64
1, 687240, Control_c, 0, 64, 98
1, 687255, Control_c, 0, 64, 127
1, 687260, Note_off_c, 0, 55, 60
1, 687308, Note_on_c, 0, 64, 75
1, 687317, Note_on_c, 0, 55, 48
1, 687319, Note_on_c, 0, 58, 64
1, 687323, Note_on_c, 0, 62, 64
1, 687391, Note_off_c, 0, 62, 59
1, 687393, Note_off_c, 0, 64, 57
1, 687393, Note_off_c, 0, 86, 62
1, 687404, Note_off_c, 0, 58, 56
1, 687428, Note_off_c, 0, 55, 58
1, 687529, Note_on_c, 0, 64, 72
1, 687538, Note_on_c, 0, 58, 63
1, 687542, Note_on_c, 0, 61, 66
1, 687556, Note_off_c, 0, 64, 67
1, 687559, Note_off_c, 0, 58, 56
1, 687561, Note_on_c, 0, 55, 11
1, 687567, Control_c, 0, 64, 77
1, 687571, Note_off_c, 0, 61, 66
1, 687582, Control_c, 0, 64, 44
1, 687584, Note_on_c, 0, 91, 87
1, 687595, Note_off_c, 0, 55, 45
1, 687597, Control_c, 0, 64, 0
1, 687630, Note_on_c, 0, 57, 61
1, 687634, Note_on_c, 0, 54, 76
1, 687634, Note_on_c, 0, 86, 101
1, 687636, Note_on_c, 0, 60, 84
1, 687637, Note_on_c, 0, 63, 96
1, 687652, Note_off_c, 0, 91, 64
1, 687670, Control_c, 0, 64, 15
1, 687685, Control_c, 0, 64, 58
1, 687700, Control_c, 0, 64, 71
1, 687715, Control_c, 0, 64, 92
1, 687720, Note_off_c, 0, 63, 55
1, 687730, Control_c, 0, 64, 127
1, 687744, Note_off_c, 0, 54, 60
1, 687750, Note_off_c, 0, 57, 60
1, 687783, Note_off_c, 0, 60, 59
1, 687799, Note_off_c, 0, 86, 55
1, 687825, Note_on_c, 0, 90, 84
1, 687863, Note_on_c, 0, 54, 74
1, 687863, Control_c, 0, 64, 86
1, 687866, Note_off_c, 0, 90, 64
1, 687875, Note_on_c, 0, 57, 72
1, 687875, Note_on_c, 0, 63, 80
1, 687881, Note_on_c, 0, 60, 74
1, 687884, Note_on_c, 0, 85, 95
1, 687885, Control_c, 0, 64, 61
1, 687900, Control_c, 0, 64, 0
1, 687912, Note_off_c, 0, 60, 63
1, 687915, Note_off_c, 0, 57, 65
1, 687915, Note_off_c, 0, 63, 60
1, 687920, Note_off_c, 0, 54, 60
1, 687922, Note_off_c, 0, 85, 68
1, 688003, Note_on_c, 0, 63, 78
1, 688013, Note_on_c, 0, 54, 53
1, 688018, Note_on_c, 0, 57, 60
1, 688019, Note_on_c, 0, 60, 56
1, 688051, Note_off_c, 0, 54, 65
1, 688055, Note_off_c, 0, 60, 65
1, 688057, Note_off_c, 0, 63, 59
1, 688058, Note_off_c, 0, 57, 66
1, 688075, Note_on_c, 0, 89, 78
1, 688113, Note_on_c, 0, 84, 94
1, 688116, Note_off_c, 0, 89, 64
1, 688122, Control_c, 0, 64, 28
1, 688130, Note_on_c, 0, 54, 71
1, 688131, Note_on_c, 0, 63, 80
1, 688131, Note_off_c, 0, 84, 71
1, 688135, Note_on_c, 0, 57, 66
1, 688135, Note_on_c, 0, 60, 64
1, 688137, Control_c, 0, 64, 50
1, 688152, Control_c, 0, 64, 60
1, 688167, Note_off_c, 0, 54, 64
1, 688167, Control_c, 0, 64, 69
1, 688177, Note_off_c, 0, 60, 65
1, 688182, Control_c, 0, 64, 86
1, 688183, Note_off_c, 0, 57, 61
1, 688185, Note_off_c, 0, 63, 61
1, 688197, Control_c, 0, 64, 127
1, 688263, Note_on_c, 0, 63, 72
1, 688271, Note_on_c, 0, 54, 60
1, 688285, Note_on_c, 0, 57, 54
1, 688291, Note_on_c, 0, 60, 51
1, 688328, Note_off_c, 0, 60, 63
1, 688332, Note_off_c, 0, 57, 59
1, 688343, Note_on_c, 0, 51, 104
1, 688344, Note_off_c, 0, 63, 60
1, 688388, Note_off_c, 0, 51, 62
1, 688462, Note_on_c, 0, 60, 59
1, 688465, Note_on_c, 0, 57, 55
1, 688466, Note_on_c, 0, 63, 59
1, 688489, Note_off_c, 0, 63, 58
1, 688494, Control_c, 0, 64, 97
1, 688497, Note_off_c, 0, 57, 66
1, 688500, Note_off_c, 0, 60, 64
1, 688509, Control_c, 0, 64, 66
1, 688513, Note_off_c, 0, 54, 17
1, 688524, Control_c, 0, 64, 0
1, 688534, Note_on_c, 0, 51, 89
1, 688569, Note_off_c, 0, 51, 68
1, 688583, Note_on_c, 0, 50, 88
1, 688583, Control_c, 0, 64, 32
1, 688598, Note_on_c, 0, 55, 73
1, 688598, Control_c, 0, 64, 62
1, 688601, Note_on_c, 0, 67, 79
1, 688606, Note_off_c, 0, 50, 69
1, 688613, Control_c, 0, 64, 84
1, 688635, Control_c, 0, 64, 127
1, 688659, Note_off_c, 0, 67, 61
1, 688667, Note_off_c, 0, 55, 62
1, 688727, Note_on_c, 0, 63, 72
1, 688732, Note_on_c, 0, 58, 68
1, 688773, Note_off_c, 0, 58, 58
1, 688779, Note_off_c, 0, 63, 59
1, 688783, Control_c, 0, 64, 113
1, 688792, Note_on_c, 0, 79, 83
1, 688798, Control_c, 0, 64, 72
1, 688813, Control_c, 0, 64, 0
1, 688830, Note_on_c, 0, 74, 92
1, 688834, Note_on_c, 0, 55, 69
1, 688835, Note_on_c, 0, 67, 77
1, 688841, Note_off_c, 0, 79, 62
1, 688853, Note_off_c, 0, 74, 66
1, 688862, Note_off_c, 0, 55, 67
1, 688867, Note_off_c, 0, 67, 63
1, 688955, Note_on_c, 0, 58, 54
1, 688958, Note_on_c, 0, 63, 58
1, 688964, Note_on_c, 0, 76, 26
1, 688996, Note_off_c, 0, 58, 64
1, 688996, Note_off_c, 0, 76, 33
1, 688997, Note_off_c, 0, 63, 63
1, 689011, Note_on_c, 0, 75, 75
1, 689041, Note_off_c, 0, 75, 60
1, 689047, Note_on_c, 0, 70, 78
1, 689067, Note_on_c, 0, 67, 75
1, 689070, Note_off_c, 0, 70, 70
1, 689075, Note_on_c, 0, 55, 63
1, 689097, Note_off_c, 0, 67, 64
1, 689110, Note_off_c, 0, 55, 62
1, 689167, Note_on_c, 0, 71, 82
1, 689175, Note_on_c, 0, 67, 72
1, 689187, Note_off_c, 0, 71, 71
1, 689190, Note_on_c, 0, 63, 59
1, 689192, Note_on_c, 0, 58, 55
1, 689199, Note_off_c, 0, 67, 70
1, 689220, Note_off_c, 0, 63, 65
1, 689224, Note_off_c, 0, 58, 64
1, 689282, Note_on_c, 0, 72, 82
1, 689282, Note_on_c, 0, 68, 88
1, 689294, Note_on_c, 0, 67, 76
1, 689300, Note_on_c, 0, 55, 67
1, 689306, Note_off_c, 0, 72, 68
1, 689309, Note_off_c, 0, 68, 64
1, 689328, Note_off_c, 0, 67, 60
1, 689332, Note_off_c, 0, 55, 64
1, 689404, Note_on_c, 0, 69, 93
1, 689407, Note_on_c, 0, 73, 83
1, 689417, Note_on_c, 0, 63, 71
1, 689419, Note_on_c, 0, 58, 68
1, 689437, Note_on_c, 0, 74, 53
1, 689437, Note_off_c, 0, 69, 66
1, 689444, Note_off_c, 0, 73, 58
1, 689452, Note_off_c, 0, 63, 62
1, 689453, Note_off_c, 0, 58, 65
1, 689457, Note_off_c, 0, 74, 40
1, 689523, Note_on_c, 0, 74, 92
1, 689524, Note_on_c, 0, 70, 100
1, 689532, Note_on_c, 0, 67, 85
1, 689534, Note_on_c, 0, 55, 79
1, 689551, Note_off_c, 0, 70, 66
1, 689553, Note_off_c, 0, 74, 66
1, 689567, Note_off_c, 0, 55, 66
1, 689568, Note_off_c, 0, 67, 64
1, 689663, Note_on_c, 0, 63, 64
1, 689669, Note_on_c, 0, 58, 56
1, 689700, Note_off_c, 0, 63, 63
1, 689703, Note_off_c, 0, 58, 65
1, 689735, Note_on_c, 0, 79, 88
1, 689786, Note_on_c, 0, 74, 91
1, 689791, Note_on_c, 0, 55, 65
1, 689792, Note_off_c, 0, 79, 66
1, 689793, Note_on_c, 0, 67, 69
1, 689808, Note_off_c, 0, 74, 68
1, 689821, Note_off_c, 0, 67, 68
1, 689824, Note_off_c, 0, 55, 64
1, 689924, Note_on_c, 0, 63, 55
1, 689935, Note_on_c, 0, 58, 34
1, 689964, Note_off_c, 0, 63, 63
1, 689973, Note_off_c, 0, 58, 61
1, 689981, Note_on_c, 0, 75, 82
1, 690005, Note_off_c, 0, 75, 69
1, 690006, Control_c, 0, 64, 26
1, 690019, Note_on_c, 0, 70, 84
1, 690021, Control_c, 0, 64, 53
1, 690036, Control_c, 0, 64, 62
1, 690038, Note_off_c, 0, 70, 73
1, 690044, Note_on_c, 0, 67, 71
1, 690045, Note_on_c, 0, 55, 64
1, 690051, Control_c, 0, 64, 68
1, 690066, Control_c, 0, 64, 79
1, 690078, Note_off_c, 0, 67, 58
1, 690081, Control_c, 0, 64, 127
1, 690096, Note_off_c, 0, 55, 56
1, 690183, Note_on_c, 0, 63, 60
1, 690190, Note_on_c, 0, 58, 53
1, 690231, Note_off_c, 0, 63, 57
1, 690241, Note_off_c, 0, 58, 58
1, 690251, Control_c, 0, 64, 77
1, 690266, Note_on_c, 0, 39, 96
1, 690266, Control_c, 0, 64, 43
1, 690281, Control_c, 0, 64, 0
1, 690292, Note_on_c, 0, 67, 70
1, 690293, Note_off_c, 0, 39, 64
1, 690298, Note_on_c, 0, 55, 59
1, 690331, Note_off_c, 0, 67, 61
1, 690342, Note_off_c, 0, 55, 63
1, 690419, Note_on_c, 0, 58, 60
1, 690422, Note_on_c, 0, 63, 58
1, 690436, Note_on_c, 0, 39, 73
1, 690480, Note_off_c, 0, 63, 61
1, 690496, Note_off_c, 0, 39, 53
1, 690497, Note_off_c, 0, 58, 60
1, 690503, Control_c, 0, 64, 29
1, 690505, Note_on_c, 0, 38, 67
1, 690518, Control_c, 0, 64, 49
1, 690524, Note_on_c, 0, 55, 58
1, 690527, Note_on_c, 0, 67, 69
1, 690533, Control_c, 0, 64, 59
1, 690538, Note_off_c, 0, 38, 64
1, 690547, Control_c, 0, 64, 64
1, 690562, Control_c, 0, 64, 68
1, 690567, Note_off_c, 0, 55, 63
1, 690571, Note_off_c, 0, 67, 60
1, 690578, Control_c, 0, 64, 80
1, 690593, Control_c, 0, 64, 127
1, 690646, Note_on_c, 0, 63, 60
1, 690680, Note_on_c, 0, 59, 26
1, 690704, Note_on_c, 0, 55, 75
1, 690711, Control_c, 0, 64, 99
1, 690716, Note_off_c, 0, 59, 47
1, 690726, Control_c, 0, 64, 69
1, 690729, Note_off_c, 0, 63, 59
1, 690741, Control_c, 0, 64, 39
1, 690755, Note_on_c, 0, 50, 75
1, 690756, Control_c, 0, 64, 0
1, 690788, Note_off_c, 0, 50, 66
1, 690817, Note_off_c, 0, 55, 58
1, 690886, Note_on_c, 0, 63, 60
1, 690893, Note_on_c, 0, 58, 52
1, 690928, Note_on_c, 0, 51, 74
1, 690955, Note_off_c, 0, 58, 55
1, 690960, Note_off_c, 0, 51, 66
1, 690963, Note_off_c, 0, 63, 61
1, 690981, Note_on_c, 0, 46, 74
1, 691000, Note_on_c, 0, 55, 66
1, 691011, Note_on_c, 0, 66, 72
1, 691020, Note_off_c, 0, 46, 62
1, 691058, Note_off_c, 0, 55, 55
1, 691065, Note_off_c, 0, 66, 59
1, 691109, Note_on_c, 0, 47, 77
1, 691113, Note_on_c, 0, 63, 69
1, 691115, Note_on_c, 0, 43, 73
1, 691117, Note_on_c, 0, 58, 62
1, 691152, Note_off_c, 0, 43, 65
1, 691160, Note_off_c, 0, 47, 62
1, 691179, Note_off_c, 0, 63, 62
1, 691193, Note_off_c, 0, 58, 58
1, 691219, Note_on_c, 0, 55, 62
1, 691225, Note_on_c, 0, 66, 70
1, 691231, Note_on_c, 0, 44, 78
1, 691240, Note_on_c, 0, 48, 64
1, 691271, Note_off_c, 0, 48, 64
1, 691274, Note_off_c, 0, 44, 62
1, 691276, Note_off_c, 0, 66, 60
1, 691280, Note_off_c, 0, 55, 59
1, 691342, Note_on_c, 0, 49, 91
1, 691343, Note_on_c, 0, 45, 81
1, 691345, Note_on_c, 0, 63, 61
1, 691346, Note_on_c, 0, 58, 55
1, 691374, Note_off_c, 0, 45, 68
1, 691392, Note_off_c, 0, 49, 66
1, 691399, Note_off_c, 0, 63, 55
1, 691413, Note_off_c, 0, 58, 55
1, 691444, Note_on_c, 0, 46, 86
1, 691444, Note_on_c, 0, 50, 80
1, 691459, Note_on_c, 0, 67, 76
1, 691474, Note_off_c, 0, 46, 69
1, 691475, Note_on_c, 0, 55, 54
1, 691478, Note_off_c, 0, 50, 67
1, 691498, Note_off_c, 0, 67, 62
1, 691509, Note_off_c, 0, 55, 64
1, 691570, Note_on_c, 0, 58, 53
1, 691573, Note_on_c, 0, 63, 60
1, 691634, Note_off_c, 0, 58, 58
1, 691646, Note_off_c, 0, 63, 57
1, 691649, Note_on_c, 0, 55, 75
1, 691712, Note_on_c, 0, 50, 64
1, 691714, Note_on_c, 0, 66, 66
1, 691738, Note_off_c, 0, 50, 63
1, 691743, Note_off_c, 0, 55, 61
1, 691751, Note_off_c, 0, 66, 60
1, 691855, Note_on_c, 0, 58, 44
1, 691866, Note_on_c, 0, 63, 32
1, 691897, Note_on_c, 0, 51, 62
1, 691904, Note_off_c, 0, 63, 53
1, 691911, Note_off_c, 0, 58, 58
1, 691932, Note_off_c, 0, 51, 65
1, 691940, Control_c, 0, 64, 17
1, 691955, Control_c, 0, 64, 43
1, 691959, Note_on_c, 0, 46, 63
1, 691968, Note_on_c, 0, 67, 53
1, 691970, Control_c, 0, 64, 54
1, 691971, Note_on_c, 0, 55, 45
1, 691985, Control_c, 0, 64, 61
1, 691991, Note_off_c, 0, 46, 65
1, 691999, Control_c, 0, 64, 66
1, 692014, Control_c, 0, 64, 76
1, 692018, Note_off_c, 0, 67, 54
1, 692029, Control_c, 0, 64, 100
1, 692043, Control_c, 0, 64, 127
1, 692054, Note_off_c, 0, 55, 50
1, 692098, Note_on_c, 0, 63, 47
1, 692101, Note_on_c, 0, 58, 39
1, 692123, Note_off_c, 0, 63, 56
1, 692132, Note_off_c, 0, 58, 50
1, 692212, Note_on_c, 0, 65, 57
1, 692222, Control_c, 0, 64, 121
1, 692237, Control_c, 0, 64, 82
1, 692249, Note_off_c, 0, 65, 63
1, 692252, Control_c, 0, 64, 64
1, 692259, Note_on_c, 0, 67, 63
1, 692266, Note_on_c, 0, 61, 44
1, 692266, Control_c, 0, 64, 0
1, 692267, Note_on_c, 0, 55, 40
1, 692302, Note_off_c, 0, 67, 65
1, 692308, Note_on_c, 0, 68, 68
1, 692327, Note_off_c, 0, 61, 54
1, 692328, Note_on_c, 0, 70, 62
1, 692334, Note_off_c, 0, 68, 67
1, 692339, Note_off_c, 0, 55, 55
1, 692346, Note_off_c, 0, 70, 65
1, 692379, Note_on_c, 0, 51, 54
1, 692392, Note_on_c, 0, 72, 75
1, 692416, Note_off_c, 0, 51, 65
1, 692434, Note_off_c, 0, 72, 66
1, 692439, Note_on_c, 0, 73, 72
1, 692483, Note_on_c, 0, 75, 63
1, 692491, Note_off_c, 0, 73, 56
1, 692511, Control_c, 0, 64, 16
1, 692512, Note_off_c, 0, 75, 63
1, 692526, Note_on_c, 0, 76, 61
1, 692526, Control_c, 0, 64, 50
1, 692537, Note_on_c, 0, 60, 56
1, 692541, Control_c, 0, 64, 63
1, 692545, Note_on_c, 0, 64, 51
1, 692546, Note_off_c, 0, 76, 65
1, 692546, Note_on_c, 0, 72, 61
1, 692555, Control_c, 0, 64, 68
1, 692570, Control_c, 0, 64, 73
1, 692582, Note_off_c, 0, 72, 62
1, 692585, Control_c, 0, 64, 82
1, 692587, Note_off_c, 0, 60, 59
1, 692600, Control_c, 0, 64, 103
1, 692604, Note_off_c, 0, 64, 53
1, 692615, Control_c, 0, 64, 127
1, 692681, Note_on_c, 0, 67, 50
1, 692704, Control_c, 0, 64, 96
1, 692704, Note_off_c, 0, 67, 58
1, 692719, Control_c, 0, 64, 74
1, 692734, Note_on_c, 0, 78, 70
1, 692734, Control_c, 0, 64, 55
1, 692748, Control_c, 0, 64, 0
1, 692762, Note_off_c, 0, 78, 67
1, 692776, Note_on_c, 0, 81, 82
1, 692782, Note_on_c, 0, 73, 81
1, 692790, Note_on_c, 0, 54, 51
1, 692793, Note_on_c, 0, 57, 56
1, 692799, Note_off_c, 0, 81, 69
1, 692802, Note_off_c, 0, 73, 72
1, 692867, Note_off_c, 0, 57, 52
1, 692914, Note_on_c, 0, 61, 59
1, 692919, Note_off_c, 0, 54, 57
1, 692945, Note_off_c, 0, 61, 64
1, 692966, Note_on_c, 0, 79, 73
1, 693002, Note_off_c, 0, 79, 68
1, 693023, Note_on_c, 0, 76, 79
1, 693031, Note_on_c, 0, 86, 64
1, 693034, Note_on_c, 0, 64, 64
1, 693043, Note_on_c, 0, 60, 49
1, 693045, Note_off_c, 0, 76, 70
1, 693047, Note_off_c, 0, 86, 64
1, 693053, Note_on_c, 0, 84, 25
1, 693054, Note_off_c, 0, 84, 127
1, 693071, Note_off_c, 0, 64, 61
1, 693075, Note_off_c, 0, 60, 65
1, 693164, Note_on_c, 0, 67, 57
1, 693185, Note_off_c, 0, 67, 61
1, 693245, Control_c, 0, 64, 42
1, 693250, Note_on_c, 0, 61, 110
1, 693260, Control_c, 0, 64, 64
1, 693261, Note_on_c, 0, 54, 72
1, 693271, Note_on_c, 0, 57, 62
1, 693275, Control_c, 0, 64, 100
1, 693285, Note_off_c, 0, 61, 69
1, 693289, Control_c, 0, 64, 127
1, 693348, Note_off_c, 0, 57, 64
1, 693369, Note_off_c, 0, 54, 62
1, 693395, Note_on_c, 0, 66, 66
1, 693422, Note_off_c, 0, 66, 66
1, 693459, Note_on_c, 0, 91, 81
1, 693504, Note_on_c, 0, 82, 84
1, 693506, Note_on_c, 0, 60, 59
1, 693507, Note_on_c, 0, 79, 73
1, 693512, Control_c, 0, 64, 84
1, 693516, Note_off_c, 0, 91, 63
1, 693527, Control_c, 0, 64, 46
1, 693533, Note_on_c, 0, 64, 46
1, 693534, Note_off_c, 0, 79, 70
1, 693536, Note_off_c, 0, 82, 64
1, 693542, Control_c, 0, 64, 0
1, 693568, Note_off_c, 0, 60, 61
1, 693588, Note_off_c, 0, 64, 60
1, 693625, Note_on_c, 0, 67, 70
1, 693676, Note_off_c, 0, 67, 58
1, 693687, Note_on_c, 0, 89, 80
1, 693733, Note_on_c, 0, 77, 77
1, 693738, Note_on_c, 0, 55, 48
1, 693740, Note_off_c, 0, 89, 61
1, 693741, Note_on_c, 0, 58, 63
1, 693742, Note_on_c, 0, 80, 70
1, 693758, Note_off_c, 0, 77, 69
1, 693768, Note_off_c, 0, 80, 70
1, 693798, Note_off_c, 0, 58, 61
1, 693807, Note_off_c, 0, 55, 54
1, 693852, Note_on_c, 0, 65, 58
1, 693893, Note_off_c, 0, 65, 64
1, 693932, Note_on_c, 0, 88, 68
1, 693962, Note_on_c, 0, 79, 77
1, 693967, Note_on_c, 0, 76, 75
1, 693968, Note_off_c, 0, 88, 66
1, 693979, Note_on_c, 0, 60, 51
1, 693985, Note_off_c, 0, 79, 70
1, 693992, Note_off_c, 0, 76, 68
1, 693995, Note_on_c, 0, 64, 39
1, 694015, Note_off_c, 0, 60, 66
1, 694023, Note_off_c, 0, 64, 62
1, 694089, Note_on_c, 0, 67, 61
1, 694115, Note_off_c, 0, 67, 63
1, 694158, Control_c, 0, 64, 11
1, 694173, Control_c, 0, 64, 42
1, 694180, Note_on_c, 0, 56, 73
1, 694181, Note_on_c, 0, 61, 102
1, 694185, Note_on_c, 0, 54, 76
1, 694188, Control_c, 0, 64, 60
1, 694202, Control_c, 0, 64, 74
1, 694214, Note_off_c, 0, 61, 69
1, 694217, Control_c, 0, 64, 127
1, 694243, Note_off_c, 0, 56, 63
1, 694257, Note_off_c, 0, 54, 64
1, 694314, Note_on_c, 0, 66, 72
1, 694342, Note_off_c, 0, 66, 66
1, 694383, Note_on_c, 0, 84, 77
1, 694404, Note_on_c, 0, 88, 79
1, 694409, Note_off_c, 0, 84, 63
1, 694418, Note_on_c, 0, 90, 77
1, 694424, Note_on_c, 0, 60, 56
1, 694427, Note_on_c, 0, 92, 68
1, 694428, Note_off_c, 0, 92, 127
1, 694430, Note_off_c, 0, 88, 67
1, 694432, Note_on_c, 0, 96, 92
1, 694438, Note_on_c, 0, 64, 51
1, 694439, Note_off_c, 0, 90, 70
1, 694439, Control_c, 0, 64, 77
1, 694453, Note_off_c, 0, 96, 68
1, 694454, Control_c, 0, 64, 0
1, 694464, Note_on_c, 0, 91, 27
1, 694465, Note_off_c, 0, 91, 127
1, 694493, Note_off_c, 0, 60, 63
1, 694503, Note_off_c, 0, 64, 62
1, 694538, Note_on_c, 0, 67, 62
1, 694577, Note_off_c, 0, 67, 60
1, 694627, Note_on_c, 0, 79, 73
1, 694661, Note_on_c, 0, 54, 59
1, 694672, Note_on_c, 0, 57, 57
1, 694674, Note_on_c, 0, 78, 85
1, 694681, Note_off_c, 0, 79, 66
1, 694700, Note_off_c, 0, 78, 68
1, 694748, Note_off_c, 0, 54, 59
1, 694777, Note_off_c, 0, 57, 62
1, 694794, Note_on_c, 0, 61, 61
1, 694821, Note_off_c, 0, 61, 65
1, 694860, Note_on_c, 0, 76, 70
1, 694903, Note_off_c, 0, 76, 65
1, 694914, Note_on_c, 0, 75, 83
1, 694922, Note_on_c, 0, 64, 67
1, 694931, Note_on_c, 0, 60, 43
1, 694937, Note_off_c, 0, 75, 64
1, 694967, Note_off_c, 0, 60, 55
1, 694993, Note_off_c, 0, 64, 62
1, 695042, Note_on_c, 0, 67, 59
1, 695080, Note_off_c, 0, 67, 61
1, 695101, Note_on_c, 0, 76, 78
1, 695151, Note_on_c, 0, 54, 60
1, 695160, Note_on_c, 0, 78, 85
1, 695162, Note_on_c, 0, 57, 58
1, 695167, Note_off_c, 0, 76, 64
1, 695190, Note_off_c, 0, 78, 64
1, 695214, Note_off_c, 0, 54, 64
1, 695274, Note_off_c, 0, 57, 61
1, 695285, Note_on_c, 0, 61, 61
1, 695313, Note_off_c, 0, 61, 65
1, 695329, Note_on_c, 0, 79, 77
1, 695384, Note_on_c, 0, 78, 91
1, 695385, Note_off_c, 0, 79, 51
1, 695411, Note_on_c, 0, 60, 64
1, 695415, Note_on_c, 0, 64, 63
1, 695426, Note_off_c, 0, 78, 65
1, 695453, Note_off_c, 0, 60, 65
1, 695478, Note_off_c, 0, 64, 62
1, 695529, Note_on_c, 0, 67, 67
1, 695566, Note_on_c, 0, 76, 81
1, 695575, Note_off_c, 0, 67, 62
1, 695624, Note_off_c, 0, 76, 64
1, 695625, Note_on_c, 0, 56, 68
1, 695625, Note_on_c, 0, 75, 94
1, 695637, Note_on_c, 0, 59, 61
1, 695661, Note_off_c, 0, 75, 60
1, 695707, Note_off_c, 0, 59, 63
1, 695719, Note_off_c, 0, 56, 59
1, 695743, Note_on_c, 0, 65, 62
1, 695786, Note_off_c, 0, 65, 59
1, 695806, Note_on_c, 0, 79, 75
1, 695852, Note_on_c, 0, 57, 57
1, 695852, Note_off_c, 0, 79, 64
1, 695858, Note_on_c, 0, 71, 86
1, 695864, Note_on_c, 0, 63, 59
1, 695876, Note_off_c, 0, 71, 72
1, 695897, Note_off_c, 0, 57, 61
1, 695920, Note_off_c, 0, 63, 61
1, 695980, Note_on_c, 0, 67, 60
1, 696007, Note_off_c, 0, 67, 63
1, 696040, Control_c, 0, 64, 15
1, 696055, Control_c, 0, 64, 51
1, 696069, Control_c, 0, 64, 64
1, 696075, Note_on_c, 0, 61, 111
1, 696084, Control_c, 0, 64, 89
1, 696086, Note_on_c, 0, 54, 78
1, 696092, Note_on_c, 0, 57, 63
1, 696099, Control_c, 0, 64, 127
1, 696125, Note_off_c, 0, 61, 65
1, 696196, Note_off_c, 0, 57, 64
1, 696216, Note_off_c, 0, 54, 62
1, 696233, Note_on_c, 0, 66, 70
1, 696260, Note_off_c, 0, 66, 67
1, 696350, Note_on_c, 0, 60, 59
1, 696358, Note_on_c, 0, 64, 60
1, 696359, Control_c, 0, 64, 103
1, 696374, Control_c, 0, 64, 72
1, 696388, Control_c, 0, 64, 48
1, 696403, Control_c, 0, 64, 0
1, 696433, Note_off_c, 0, 60, 61
1, 696451, Note_off_c, 0, 64, 62
1, 696478, Note_on_c, 0, 67, 69
1, 696534, Note_off_c, 0, 67, 56
1, 696606, Note_on_c, 0, 79, 66
1, 696612, Note_on_c, 0, 63, 61
1, 696612, Note_on_c, 0, 75, 66
1, 696616, Note_on_c, 0, 57, 50
1, 696626, Control_c, 0, 64, 13
1, 696640, Control_c, 0, 64, 45
1, 696653, Note_off_c, 0, 75, 61
1, 696655, Control_c, 0, 64, 56
1, 696670, Control_c, 0, 64, 61
1, 696674, Note_off_c, 0, 79, 58
1, 696680, Note_off_c, 0, 57, 54
1, 696685, Control_c, 0, 64, 66
1, 696686, Note_on_c, 0, 71, 70
1, 696694, Note_off_c, 0, 63, 62
1, 696700, Control_c, 0, 64, 76
1, 696714, Control_c, 0, 64, 95
1, 696729, Control_c, 0, 64, 127
1, 696746, Note_on_c, 0, 67, 56
1, 696749, Note_off_c, 0, 71, 57
1, 696755, Note_on_c, 0, 75, 72
1, 696759, Control_c, 0, 64, 114
1, 696761, Note_on_c, 0, 79, 48
1, 696774, Control_c, 0, 64, 80
1, 696780, Note_off_c, 0, 75, 68
1, 696782, Note_off_c, 0, 67, 65
1, 696783, Note_off_c, 0, 79, 60
1, 696788, Control_c, 0, 64, 61
1, 696803, Control_c, 0, 64, 22
1, 696818, Control_c, 0, 64, 21
1, 696830, Note_on_c, 0, 76, 74
1, 696832, Note_on_c, 0, 72, 81
1, 696833, Control_c, 0, 64, 41
1, 696833, Note_on_c, 0, 79, 82
1, 696842, Note_on_c, 0, 60, 59
1, 696846, Note_on_c, 0, 64, 60
1, 696847, Control_c, 0, 64, 51
1, 696870, Control_c, 0, 64, 58
1, 696881, Note_off_c, 0, 76, 63
1, 696885, Control_c, 0, 64, 64
1, 696895, Note_off_c, 0, 79, 64
1, 696899, Note_off_c, 0, 72, 63
1, 696900, Control_c, 0, 64, 69
1, 696902, Note_off_c, 0, 60, 58
1, 696914, Control_c, 0, 64, 79
1, 696929, Control_c, 0, 64, 127
1, 696952, Note_off_c, 0, 64, 61
1, 696974, Note_on_c, 0, 67, 75
1, 697042, Note_off_c, 0, 67, 60
1, 697063, Control_c, 0, 64, 77
1, 697078, Control_c, 0, 64, 56
1, 697089, Note_on_c, 0, 84, 84
1, 697093, Control_c, 0, 64, 43
1, 697094, Note_on_c, 0, 78, 83
1, 697095, Note_on_c, 0, 56, 64
1, 697103, Note_on_c, 0, 63, 65
1, 697108, Control_c, 0, 64, 54
1, 697123, Control_c, 0, 64, 61
1, 697137, Control_c, 0, 64, 66
1, 697151, Note_off_c, 0, 84, 65
1, 697151, Note_off_c, 0, 78, 63
1, 697152, Control_c, 0, 64, 73
1, 697167, Note_on_c, 0, 75, 83
1, 697167, Control_c, 0, 64, 101
1, 697182, Control_c, 0, 64, 127
1, 697201, Note_on_c, 0, 66, 81
1, 697208, Note_off_c, 0, 63, 61
1, 697224, Note_off_c, 0, 56, 59
1, 697227, Note_off_c, 0, 75, 58
1, 697232, Note_on_c, 0, 78, 90
1, 697238, Note_on_c, 0, 84, 81
1, 697247, Note_off_c, 0, 66, 63
1, 697256, Control_c, 0, 64, 98
1, 697265, Note_off_c, 0, 84, 63
1, 697271, Control_c, 0, 64, 70
1, 697277, Note_off_c, 0, 78, 65
1, 697286, Control_c, 0, 64, 49
1, 697301, Control_c, 0, 64, 0
1, 697315, Note_on_c, 0, 64, 77
1, 697315, Note_on_c, 0, 76, 67
1, 697315, Note_on_c, 0, 84, 85
1, 697316, Note_on_c, 0, 79, 91
1, 697316, Control_c, 0, 64, 32
1, 697321, Note_on_c, 0, 60, 66
1, 697330, Control_c, 0, 64, 48
1, 697345, Control_c, 0, 64, 58
1, 697360, Control_c, 0, 64, 64
1, 697375, Control_c, 0, 64, 71
1, 697380, Note_off_c, 0, 76, 64
1, 697381, Note_off_c, 0, 79, 65
1, 697384, Note_off_c, 0, 84, 65
1, 697390, Control_c, 0, 64, 91
1, 697405, Control_c, 0, 64, 127
1, 697408, Note_off_c, 0, 60, 61
1, 697412, Note_off_c, 0, 64, 59
1, 697437, Note_on_c, 0, 67, 80
1, 697494, Control_c, 0, 64, 81
1, 697497, Note_off_c, 0, 67, 61
1, 697509, Control_c, 0, 64, 62
1, 697524, Control_c, 0, 64, 20
1, 697538, Control_c, 0, 64, 22
1, 697553, Control_c, 0, 64, 40
1, 697560, Note_on_c, 0, 54, 63
1, 697563, Note_on_c, 0, 58, 68
1, 697568, Control_c, 0, 64, 55
1, 697569, Note_on_c, 0, 78, 96
1, 697583, Control_c, 0, 64, 64
1, 697598, Control_c, 0, 64, 72
1, 697620, Control_c, 0, 64, 88
1, 697624, Note_off_c, 0, 78, 63
1, 697634, Control_c, 0, 64, 127
1, 697650, Note_off_c, 0, 58, 61
1, 697660, Note_off_c, 0, 54, 58
1, 697678, Note_on_c, 0, 66, 76
1, 697679, Control_c, 0, 64, 102
1, 697694, Control_c, 0, 64, 73
1, 697709, Control_c, 0, 64, 55
1, 697710, Note_off_c, 0, 66, 62
1, 697724, Control_c, 0, 64, 0
1, 697738, Control_c, 0, 64, 12
1, 697753, Control_c, 0, 64, 30
1, 697769, Control_c, 0, 64, 45
1, 697783, Control_c, 0, 64, 56
1, 697798, Control_c, 0, 64, 63
1, 697800, Note_on_c, 0, 88, 89
1, 697813, Control_c, 0, 64, 67
1, 697816, Note_on_c, 0, 64, 60
1, 697822, Note_on_c, 0, 60, 47
1, 697827, Note_off_c, 0, 88, 68
1, 697828, Control_c, 0, 64, 73
1, 697843, Control_c, 0, 64, 83
1, 697858, Control_c, 0, 64, 115
1, 697862, Note_off_c, 0, 60, 65
1, 697868, Note_off_c, 0, 64, 60
1, 697873, Control_c, 0, 64, 127
1, 697921, Note_on_c, 0, 67, 65
1, 697950, Note_off_c, 0, 67, 65
1, 697991, Control_c, 0, 64, 92
1, 698006, Control_c, 0, 64, 67
1, 698021, Control_c, 0, 64, 65
1, 698029, Note_on_c, 0, 54, 75
1, 698034, Note_on_c, 0, 58, 74
1, 698034, Note_on_c, 0, 61, 105
1, 698035, Control_c, 0, 64, 71
1, 698050, Control_c, 0, 64, 83
1, 698065, Control_c, 0, 64, 127
1, 698082, Note_off_c, 0, 61, 66
1, 698132, Note_off_c, 0, 58, 63
1, 698151, Poly_aftertouch_c, 0, 60, 0
1, 698153, Note_on_c, 0, 66, 73
1, 698179, Note_off_c, 0, 54, 61
1, 698193, Poly_aftertouch_c, 0, 56, 0
1, 698197, Note_off_c, 0, 66, 61
1, 698278, Poly_aftertouch_c, 0, 65, 0
1, 698282, Note_on_c, 0, 60, 52
1, 698303, Note_on_c, 0, 64, 56
1, 698325, Note_on_c, 0, 79, 51
1, 698332, Control_c, 0, 64, 81
1, 698347, Control_c, 0, 64, 61
1, 698362, Note_on_c, 0, 82, 74
1, 698364, Note_off_c, 0, 79, 54
1, 698368, Control_c, 0, 64, 0
1, 698370, Note_off_c, 0, 60, 64
1, 698389, Note_off_c, 0, 64, 62
1, 698412, Note_off_c, 0, 82, 67
1, 698417, Note_on_c, 0, 67, 70
1, 698428, Note_on_c, 0, 84, 60
1, 698447, Note_on_c, 0, 76, 76
1, 698454, Note_off_c, 0, 84, 64
1, 698469, Note_off_c, 0, 67, 61
1, 698498, Note_off_c, 0, 76, 61
1, 698511, Note_on_c, 0, 88, 90
1, 698514, Note_on_c, 0, 54, 71
1, 698529, Note_off_c, 0, 88, 73
1, 698544, Note_on_c, 0, 57, 47
1, 698582, Note_off_c, 0, 57, 62
1, 698585, Note_off_c, 0, 54, 54
1, 698642, Note_on_c, 0, 66, 70
1, 698669, Note_off_c, 0, 66, 66
1, 698740, Control_c, 0, 64, 35
1, 698746, Note_on_c, 0, 61, 112
1, 698753, Note_on_c, 0, 64, 83
1, 698755, Control_c, 0, 64, 64
1, 698758, Note_on_c, 0, 57, 71
1, 698770, Control_c, 0, 64, 99
1, 698781, Note_off_c, 0, 61, 68
1, 698784, Control_c, 0, 64, 127
1, 698787, Note_on_c, 0, 68, 37
1, 698800, Note_off_c, 0, 57, 62
1, 698820, Note_off_c, 0, 68, 52
1, 698834, Note_off_c, 0, 64, 63
1, 698889, Note_on_c, 0, 67, 70
1, 698943, Note_off_c, 0, 67, 60
1, 698993, Note_on_c, 0, 54, 66
1, 699001, Note_on_c, 0, 58, 64
1, 699004, Note_on_c, 0, 80, 81
1, 699021, Control_c, 0, 64, 114
1, 699035, Control_c, 0, 64, 76
1, 699050, Control_c, 0, 64, 60
1, 699062, Note_on_c, 0, 82, 82
1, 699065, Control_c, 0, 64, 30
1, 699080, Control_c, 0, 64, 30
1, 699082, Note_off_c, 0, 54, 62
1, 699083, Note_off_c, 0, 80, 64
1, 699092, Note_off_c, 0, 58, 57
1, 699095, Control_c, 0, 64, 36
1, 699112, Note_on_c, 0, 66, 72
1, 699116, Note_off_c, 0, 82, 66
1, 699117, Control_c, 0, 64, 39
1, 699119, Note_on_c, 0, 84, 79
1, 699132, Control_c, 0, 64, 40
1, 699147, Note_off_c, 0, 66, 65
1, 699158, Note_on_c, 0, 76, 80
1, 699162, Control_c, 0, 64, 39
1, 699172, Note_off_c, 0, 84, 63
1, 699177, Control_c, 0, 64, 36
1, 699191, Control_c, 0, 64, 29
1, 699206, Control_c, 0, 64, 0
1, 699217, Note_off_c, 0, 76, 63
1, 699224, Note_on_c, 0, 88, 94
1, 699231, Note_on_c, 0, 64, 67
1, 699233, Note_on_c, 0, 60, 59
1, 699241, Note_off_c, 0, 88, 72
1, 699272, Note_off_c, 0, 60, 63
1, 699282, Note_off_c, 0, 64, 61
1, 699342, Note_on_c, 0, 67, 57
1, 699369, Note_off_c, 0, 67, 63
1, 699444, Control_c, 0, 64, 34
1, 699451, Note_on_c, 0, 54, 80
1, 699456, Note_on_c, 0, 61, 112
1, 699459, Control_c, 0, 64, 60
1, 699464, Note_on_c, 0, 58, 71
1, 699474, Control_c, 0, 64, 82
1, 699489, Control_c, 0, 64, 127
1, 699492, Note_off_c, 0, 61, 68
1, 699559, Note_off_c, 0, 58, 63
1, 699564, Note_off_c, 0, 54, 56
1, 699569, Note_on_c, 0, 66, 84
1, 699620, Note_off_c, 0, 66, 63
1, 699695, Note_on_c, 0, 60, 66
1, 699699, Note_on_c, 0, 80, 74
1, 699707, Note_on_c, 0, 64, 55
1, 699724, Control_c, 0, 64, 94
1, 699739, Control_c, 0, 64, 64
1, 699754, Control_c, 0, 64, 0
1, 699757, Note_on_c, 0, 82, 78
1, 699765, Note_off_c, 0, 60, 64
1, 699767, Note_off_c, 0, 80, 62
1, 699774, Note_off_c, 0, 64, 61
1, 699804, Note_off_c, 0, 82, 65
1, 699810, Note_on_c, 0, 67, 75
1, 699813, Note_on_c, 0, 84, 70
1, 699862, Note_off_c, 0, 67, 61
1, 699863, Note_off_c, 0, 84, 64
1, 699873, Note_on_c, 0, 76, 66
1, 699912, Note_off_c, 0, 76, 62
1, 699930, Note_on_c, 0, 54, 56
1, 699932, Note_on_c, 0, 58, 60
1, 699939, Note_on_c, 0, 88, 66
1, 699955, Note_off_c, 0, 88, 66
1, 699982, Note_off_c, 0, 54, 56
1, 699988, Note_off_c, 0, 58, 56
1, 700041, Note_on_c, 0, 90, 78
1, 700049, Note_on_c, 0, 66, 67
1, 700074, Note_off_c, 0, 66, 66
1, 700105, Note_off_c, 0, 90, 63
1, 700162, Note_on_c, 0, 79, 97
1, 700162, Note_on_c, 0, 91, 89
1, 700164, Note_on_c, 0, 88, 80
1, 700171, Note_on_c, 0, 64, 68
1, 700172, Note_on_c, 0, 60, 64
1, 700177, Control_c, 0, 64, 48
1, 700192, Control_c, 0, 64, 61
1, 700197, Note_off_c, 0, 91, 67
1, 700201, Note_off_c, 0, 88, 62
1, 700207, Control_c, 0, 64, 76
1, 700216, Note_off_c, 0, 79, 67
1, 700222, Control_c, 0, 64, 127
1, 700241, Note_off_c, 0, 60, 62
1, 700251, Note_off_c, 0, 64, 62
1, 700287, Note_on_c, 0, 67, 72
1, 700338, Note_off_c, 0, 67, 60
1, 700384, Note_on_c, 0, 66, 56
1, 700411, Note_on_c, 0, 54, 60
1, 700412, Note_on_c, 0, 58, 62
1, 700449, Note_off_c, 0, 66, 61
1, 700453, Note_on_c, 0, 68, 64
1, 700467, Note_off_c, 0, 58, 56
1, 700493, Note_off_c, 0, 54, 64
1, 700505, Note_on_c, 0, 70, 58
1, 700520, Note_off_c, 0, 68, 59
1, 700520, Note_on_c, 0, 64, 62
1, 700544, Note_off_c, 0, 70, 66
1, 700570, Note_on_c, 0, 66, 62
1, 700572, Note_off_c, 0, 64, 53
1, 700608, Note_off_c, 0, 66, 64
1, 700638, Note_on_c, 0, 76, 77
1, 700654, Note_on_c, 0, 60, 51
1, 700663, Note_on_c, 0, 64, 48
1, 700667, Note_off_c, 0, 76, 66
1, 700690, Note_off_c, 0, 60, 64
1, 700696, Note_off_c, 0, 64, 65
1, 700760, Note_on_c, 0, 67, 68
1, 700802, Note_off_c, 0, 67, 59
1, 700822, Control_c, 0, 64, 78
1, 700836, Control_c, 0, 64, 53
1, 700851, Control_c, 0, 64, 0
1, 700880, Note_on_c, 0, 78, 105
1, 700881, Control_c, 0, 64, 15
1, 700883, Note_on_c, 0, 75, 95
1, 700888, Note_on_c, 0, 54, 61
1, 700889, Note_on_c, 0, 58, 64
1, 700896, Control_c, 0, 64, 44
1, 700910, Control_c, 0, 64, 59
1, 700925, Control_c, 0, 64, 70
1, 700938, Note_off_c, 0, 75, 62
1, 700940, Control_c, 0, 64, 110
1, 700956, Control_c, 0, 64, 127
1, 700970, Note_off_c, 0, 78, 59
1, 700981, Note_off_c, 0, 58, 61
1, 700989, Note_off_c, 0, 54, 64
1, 701018, Note_on_c, 0, 64, 61
1, 701065, Note_off_c, 0, 64, 54
1, 701119, Control_c, 0, 64, 79
1, 701123, Note_on_c, 0, 91, 89
1, 701125, Note_on_c, 0, 88, 73
1, 701134, Note_on_c, 0, 79, 65
1, 701134, Control_c, 0, 64, 44
1, 701136, Note_on_c, 0, 60, 58
1, 701142, Note_on_c, 0, 64, 53
1, 701145, Note_off_c, 0, 88, 65
1, 701149, Control_c, 0, 64, 0
1, 701152, Note_off_c, 0, 79, 42
1, 701155, Note_off_c, 0, 91, 65
1, 701164, Note_off_c, 0, 60, 63
1, 701175, Note_off_c, 0, 64, 64
1, 701241, Note_on_c, 0, 91, 88
1, 701246, Note_on_c, 0, 67, 62
1, 701277, Note_off_c, 0, 91, 66
1, 701278, Note_off_c, 0, 67, 65
1, 701364, Note_on_c, 0, 88, 93
1, 701375, Note_on_c, 0, 54, 54
1, 701381, Note_on_c, 0, 58, 51
1, 701393, Note_off_c, 0, 88, 66
1, 701432, Note_off_c, 0, 58, 61
1, 701450, Note_off_c, 0, 54, 58
1, 701488, Note_on_c, 0, 64, 60
1, 701490, Note_on_c, 0, 82, 89
1, 701523, Note_off_c, 0, 64, 62
1, 701527, Note_off_c, 0, 82, 64
1, 701608, Note_on_c, 0, 83, 76
1, 701613, Note_on_c, 0, 60, 46
1, 701616, Note_on_c, 0, 64, 55
1, 701630, Note_off_c, 0, 83, 71
1, 701644, Note_off_c, 0, 60, 64
1, 701650, Note_off_c, 0, 64, 65
1, 701703, Note_on_c, 0, 79, 77
1, 701727, Note_off_c, 0, 79, 67
1, 701729, Note_on_c, 0, 67, 61
1, 701756, Note_off_c, 0, 67, 63
1, 701795, Control_c, 0, 64, 29
1, 701808, Control_c, 0, 64, 53
1, 701821, Note_on_c, 0, 61, 111
1, 701823, Control_c, 0, 64, 66
1, 701831, Note_on_c, 0, 54, 79
1, 701832, Note_on_c, 0, 58, 81
1, 701838, Control_c, 0, 64, 96
1, 701852, Control_c, 0, 64, 127
1, 701855, Note_off_c, 0, 61, 65
1, 701957, Note_off_c, 0, 58, 59
1, 701958, Note_on_c, 0, 64, 73
1, 701986, Note_off_c, 0, 54, 63
1, 702019, Note_off_c, 0, 64, 62
1, 702030, Control_c, 0, 64, 83
1, 702045, Control_c, 0, 64, 47
1, 702060, Control_c, 0, 64, 0
1, 702074, Note_on_c, 0, 88, 89
1, 702079, Note_on_c, 0, 76, 92
1, 702082, Note_on_c, 0, 84, 84
1, 702085, Note_on_c, 0, 60, 71
1, 702085, Note_on_c, 0, 64, 75
1, 702109, Note_on_c, 0, 77, 64
1, 702110, Note_off_c, 0, 77, 127
1, 702112, Control_c, 0, 64, 33
1, 702122, Note_off_c, 0, 88, 69
1, 702123, Note_off_c, 0, 84, 61
1, 702127, Control_c, 0, 64, 57
1, 702139, Note_off_c, 0, 60, 62
1, 702141, Control_c, 0, 64, 67
1, 702142, Note_off_c, 0, 76, 67
1, 702156, Note_off_c, 0, 64, 63
1, 702156, Control_c, 0, 64, 77
1, 702171, Control_c, 0, 64, 113
1, 702186, Control_c, 0, 64, 127
1, 702204, Note_on_c, 0, 67, 71
1, 702245, Note_off_c, 0, 67, 60
1, 702326, Note_on_c, 0, 54, 62
1, 702326, Note_on_c, 0, 58, 62
1, 702377, Note_on_c, 0, 68, 66
1, 702402, Note_off_c, 0, 58, 61
1, 702415, Note_off_c, 0, 54, 62
1, 702422, Note_on_c, 0, 70, 68
1, 702438, Note_on_c, 0, 64, 61
1, 702449, Note_off_c, 0, 68, 61
1, 702472, Note_off_c, 0, 70, 64
1, 702480, Note_off_c, 0, 64, 61
1, 702484, Note_on_c, 0, 66, 71
1, 702512, Note_off_c, 0, 66, 67
1, 702544, Note_on_c, 0, 76, 85
1, 702548, Note_on_c, 0, 60, 64
1, 702565, Note_on_c, 0, 64, 62
1, 702571, Note_off_c, 0, 76, 68
1, 702595, Note_off_c, 0, 60, 63
1, 702610, Note_off_c, 0, 64, 63
1, 702673, Note_on_c, 0, 67, 62
1, 702705, Control_c, 0, 64, 92
1, 702710, Note_off_c, 0, 67, 64
1, 702720, Control_c, 0, 64, 67
1, 702735, Control_c, 0, 64, 12
1, 702749, Control_c, 0, 64, 0
1, 702774, Note_on_c, 0, 78, 99
1, 702776, Note_on_c, 0, 75, 96
1, 702782, Note_on_c, 0, 58, 77
1, 702784, Note_on_c, 0, 54, 69
1, 702794, Control_c, 0, 64, 41
1, 702809, Control_c, 0, 64, 60
1, 702823, Control_c, 0, 64, 74
1, 702838, Control_c, 0, 64, 127
1, 702880, Note_off_c, 0, 75, 60
1, 702916, Note_off_c, 0, 58, 58
1, 702923, Note_on_c, 0, 64, 63
1, 702924, Note_off_c, 0, 54, 61
1, 702960, Note_off_c, 0, 78, 62
1, 702962, Note_off_c, 0, 64, 59
1, 703009, Control_c, 0, 64, 93
1, 703012, Note_on_c, 0, 88, 85
1, 703023, Control_c, 0, 64, 54
1, 703024, Note_on_c, 0, 76, 70
1, 703031, Note_on_c, 0, 60, 65
1, 703034, Note_on_c, 0, 84, 48
1, 703038, Control_c, 0, 64, 0
1, 703039, Note_on_c, 0, 64, 63
1, 703042, Note_off_c, 0, 76, 66
1, 703044, Note_off_c, 0, 88, 64
1, 703047, Note_off_c, 0, 84, 43
1, 703064, Note_off_c, 0, 60, 64
1, 703075, Note_off_c, 0, 64, 60
1, 703137, Note_on_c, 0, 88, 81
1, 703144, Note_on_c, 0, 67, 64
1, 703171, Note_off_c, 0, 88, 66
1, 703177, Note_off_c, 0, 67, 64
1, 703245, Note_on_c, 0, 84, 94
1, 703264, Note_on_c, 0, 54, 60
1, 703273, Note_on_c, 0, 58, 49
1, 703278, Note_off_c, 0, 84, 66
1, 703328, Note_off_c, 0, 58, 53
1, 703363, Note_off_c, 0, 54, 58
1, 703371, Note_on_c, 0, 78, 93
1, 703390, Note_on_c, 0, 64, 54
1, 703408, Note_off_c, 0, 78, 63
1, 703425, Note_off_c, 0, 64, 64
1, 703479, Note_on_c, 0, 79, 87
1, 703492, Note_on_c, 0, 60, 57
1, 703493, Note_on_c, 0, 64, 64
1, 703519, Note_off_c, 0, 79, 67
1, 703528, Note_off_c, 0, 60, 65
1, 703534, Note_off_c, 0, 64, 64
1, 703593, Note_on_c, 0, 76, 88
1, 703621, Note_on_c, 0, 67, 63
1, 703626, Note_off_c, 0, 76, 65
1, 703650, Note_off_c, 0, 67, 67
1, 703698, Control_c, 0, 64, 41
1, 703712, Control_c, 0, 64, 62
1, 703715, Note_on_c, 0, 61, 106
1, 703723, Note_on_c, 0, 58, 88
1, 703724, Note_on_c, 0, 54, 77
1, 703727, Control_c, 0, 64, 76
1, 703742, Control_c, 0, 64, 127
1, 703746, Note_off_c, 0, 61, 68
1, 703847, Note_on_c, 0, 64, 72
1, 703853, Note_off_c, 0, 58, 61
1, 703872, Note_off_c, 0, 54, 62
1, 703903, Note_off_c, 0, 64, 61
1, 703920, Control_c, 0, 64, 68
1, 703935, Control_c, 0, 64, 0
1, 703954, Note_on_c, 0, 79, 93
1, 703954, Note_on_c, 0, 84, 94
1, 703958, Note_on_c, 0, 60, 79
1, 703960, Note_on_c, 0, 64, 75
1, 703962, Note_on_c, 0, 76, 93
1, 703979, Control_c, 0, 64, 31
1, 703994, Control_c, 0, 64, 58
1, 704001, Note_off_c, 0, 84, 67
1, 704005, Note_off_c, 0, 79, 67
1, 704009, Control_c, 0, 64, 70
1, 704015, Note_off_c, 0, 60, 63
1, 704020, Note_off_c, 0, 76, 67
1, 704024, Control_c, 0, 64, 93
1, 704031, Note_off_c, 0, 64, 63
1, 704039, Control_c, 0, 64, 127
1, 704079, Note_on_c, 0, 67, 67
1, 704125, Note_off_c, 0, 67, 62
1, 704201, Note_on_c, 0, 54, 61
1, 704201, Note_on_c, 0, 58, 63
1, 704264, Note_on_c, 0, 68, 66
1, 704275, Note_off_c, 0, 58, 61
1, 704281, Note_off_c, 0, 54, 64
1, 704302, Note_on_c, 0, 70, 64
1, 704318, Note_on_c, 0, 64, 63
1, 704333, Note_off_c, 0, 68, 62
1, 704362, Note_off_c, 0, 64, 60
1, 704363, Note_off_c, 0, 70, 65
1, 704375, Note_on_c, 0, 66, 65
1, 704404, Note_off_c, 0, 66, 65
1, 704430, Note_on_c, 0, 76, 76
1, 704432, Control_c, 0, 64, 83
1, 704433, Note_on_c, 0, 60, 65
1, 704447, Control_c, 0, 64, 59
1, 704452, Note_on_c, 0, 64, 58
1, 704456, Note_off_c, 0, 76, 67
1, 704462, Control_c, 0, 64, 0
1, 704484, Note_off_c, 0, 60, 61
1, 704507, Note_off_c, 0, 64, 58
1, 704565, Note_on_c, 0, 67, 65
1, 704607, Note_off_c, 0, 67, 64
1, 704661, Note_on_c, 0, 78, 93
1, 704663, Note_on_c, 0, 75, 88
1, 704678, Note_on_c, 0, 54, 65
1, 704684, Note_on_c, 0, 58, 57
1, 704684, Control_c, 0, 64, 41
1, 704699, Control_c, 0, 64, 58
1, 704714, Control_c, 0, 64, 69
1, 704728, Control_c, 0, 64, 95
1, 704743, Control_c, 0, 64, 127
1, 704779, Note_off_c, 0, 58, 59
1, 704784, Note_off_c, 0, 54, 63
1, 704805, Note_on_c, 0, 64, 66
1, 704813, Note_off_c, 0, 75, 59
1, 704861, Note_off_c, 0, 64, 58
1, 704878, Note_off_c, 0, 78, 62
1, 704892, Control_c, 0, 64, 78
1, 704897, Note_on_c, 0, 79, 82
1, 704900, Note_on_c, 0, 84, 81
1, 704905, Note_on_c, 0, 76, 74
1, 704907, Control_c, 0, 64, 41
1, 704918, Note_on_c, 0, 60, 60
1, 704920, Note_on_c, 0, 64, 58
1, 704920, Note_off_c, 0, 84, 69
1, 704920, Note_off_c, 0, 79, 68
1, 704921, Control_c, 0, 64, 0
1, 704930, Note_off_c, 0, 76, 67
1, 704954, Note_off_c, 0, 60, 64
1, 704965, Note_off_c, 0, 64, 65
1, 705006, Note_on_c, 0, 84, 90
1, 705023, Note_on_c, 0, 67, 66
1, 705057, Note_off_c, 0, 84, 65
1, 705063, Note_off_c, 0, 67, 64
1, 705133, Note_on_c, 0, 79, 100
1, 705143, Note_on_c, 0, 54, 60
1, 705145, Note_on_c, 0, 58, 59
1, 705169, Note_off_c, 0, 79, 68
1, 705193, Note_off_c, 0, 58, 58
1, 705220, Note_off_c, 0, 54, 62
1, 705248, Note_on_c, 0, 64, 70
1, 705252, Note_on_c, 0, 75, 89
1, 705289, Note_off_c, 0, 64, 62
1, 705301, Note_off_c, 0, 75, 62
1, 705364, Note_on_c, 0, 60, 67
1, 705367, Note_on_c, 0, 76, 83
1, 705367, Note_on_c, 0, 77, 79
1, 705370, Note_on_c, 0, 64, 69
1, 705389, Note_off_c, 0, 77, 69
1, 705394, Note_off_c, 0, 60, 65
1, 705403, Note_off_c, 0, 76, 67
1, 705410, Note_off_c, 0, 64, 64
1, 705478, Note_on_c, 0, 72, 86
1, 705482, Note_on_c, 0, 67, 67
1, 705505, Note_off_c, 0, 72, 67
1, 705512, Note_off_c, 0, 67, 64
1, 705594, Note_on_c, 0, 61, 109
1, 705595, Note_on_c, 0, 54, 75
1, 705596, Note_on_c, 0, 58, 77
1, 705596, Control_c, 0, 64, 40
1, 705611, Control_c, 0, 64, 59
1, 705626, Control_c, 0, 64, 77
1, 705628, Note_off_c, 0, 61, 66
1, 705641, Control_c, 0, 64, 127
1, 705644, Note_on_c, 0, 57, 43
1, 705680, Poly_aftertouch_c, 0, 56, 127
1, 705682, Note_off_c, 0, 57, 59
1, 705710, Poly_aftertouch_c, 0, 56, 0
1, 705712, Note_off_c, 0, 58, 59
1, 705715, Note_on_c, 0, 64, 72
1, 705733, Note_off_c, 0, 54, 60
1, 705769, Note_off_c, 0, 64, 61
1, 705790, Control_c, 0, 64, 95
1, 705805, Control_c, 0, 64, 66
1, 705820, Control_c, 0, 64, 0
1, 705838, Note_on_c, 0, 79, 75
1, 705849, Note_on_c, 0, 76, 74
1, 705850, Note_on_c, 0, 60, 59
1, 705850, Note_on_c, 0, 64, 57
1, 705886, Control_c, 0, 64, 32
1, 705887, Note_off_c, 0, 76, 63
1, 705889, Note_off_c, 0, 60, 64
1, 705897, Note_off_c, 0, 79, 63
1, 705901, Control_c, 0, 64, 50
1, 705905, Note_off_c, 0, 64, 62
1, 705915, Note_on_c, 0, 72, 78
1, 705916, Control_c, 0, 64, 60
1, 705930, Control_c, 0, 64, 67
1, 705945, Control_c, 0, 64, 77
1, 705951, Note_on_c, 0, 67, 66
1, 705960, Control_c, 0, 64, 97
1, 705975, Control_c, 0, 64, 127
1, 705987, Note_on_c, 0, 76, 76
1, 705987, Note_off_c, 0, 72, 59
1, 705992, Note_off_c, 0, 67, 60
1, 705997, Note_on_c, 0, 79, 62
1, 706013, Note_off_c, 0, 76, 68
1, 706020, Control_c, 0, 64, 101
1, 706020, Note_off_c, 0, 79, 65
1, 706035, Control_c, 0, 64, 79
1, 706049, Control_c, 0, 64, 65
1, 706064, Control_c, 0, 64, 46
1, 706064, Note_on_c, 0, 72, 80
1, 706064, Note_on_c, 0, 76, 82
1, 706069, Note_on_c, 0, 54, 61
1, 706072, Note_on_c, 0, 58, 62
1, 706073, Note_on_c, 0, 79, 81
1, 706079, Control_c, 0, 64, 40
1, 706093, Control_c, 0, 64, 50
1, 706101, Note_off_c, 0, 79, 63
1, 706106, Note_off_c, 0, 76, 65
1, 706107, Note_off_c, 0, 72, 60
1, 706108, Control_c, 0, 64, 56
1, 706123, Control_c, 0, 64, 60
1, 706138, Control_c, 0, 64, 64
1, 706153, Control_c, 0, 64, 68
1, 706167, Control_c, 0, 64, 79
1, 706168, Note_off_c, 0, 54, 59
1, 706168, Note_off_c, 0, 58, 55
1, 706181, Note_on_c, 0, 64, 67
1, 706182, Control_c, 0, 64, 109
1, 706197, Control_c, 0, 64, 127
1, 706243, Note_on_c, 0, 74, 70
1, 706243, Note_on_c, 0, 77, 72
1, 706250, Note_on_c, 0, 71, 68
1, 706256, Control_c, 0, 64, 91
1, 706257, Note_off_c, 0, 64, 60
1, 706270, Note_off_c, 0, 74, 67
1, 706270, Note_off_c, 0, 77, 68
1, 706271, Control_c, 0, 64, 68
1, 706278, Note_off_c, 0, 71, 69
1, 706286, Control_c, 0, 64, 30
1, 706300, Control_c, 0, 64, 0
1, 706305, Note_on_c, 0, 55, 68
1, 706309, Note_on_c, 0, 59, 69
1, 706315, Note_on_c, 0, 71, 80
1, 706318, Note_on_c, 0, 77, 87
1, 706319, Note_on_c, 0, 74, 84
1, 706330, Control_c, 0, 64, 27
1, 706345, Control_c, 0, 64, 44
1, 706357, Note_off_c, 0, 71, 61
1, 706360, Control_c, 0, 64, 56
1, 706366, Note_off_c, 0, 77, 62
1, 706366, Note_off_c, 0, 74, 62
1, 706374, Control_c, 0, 64, 63
1, 706389, Control_c, 0, 64, 70
1, 706403, Note_off_c, 0, 59, 63
1, 706404, Control_c, 0, 64, 83
1, 706407, Note_off_c, 0, 55, 51
1, 706419, Control_c, 0, 64, 127
1, 706436, Note_on_c, 0, 65, 72
1, 706480, Note_on_c, 0, 76, 78
1, 706485, Note_on_c, 0, 69, 81
1, 706502, Note_off_c, 0, 65, 59
1, 706505, Note_off_c, 0, 76, 69
1, 706506, Note_off_c, 0, 69, 69
1, 706507, Control_c, 0, 64, 77
1, 706509, Note_on_c, 0, 73, 22
1, 706510, Note_off_c, 0, 73, 127
1, 706522, Control_c, 0, 64, 56
1, 706537, Control_c, 0, 64, 0
1, 706546, Note_on_c, 0, 57, 74
1, 706548, Note_on_c, 0, 69, 86
1, 706548, Note_on_c, 0, 76, 99
1, 706550, Note_on_c, 0, 73, 52
1, 706556, Note_on_c, 0, 61, 69
1, 706568, Control_c, 0, 64, 34
1, 706583, Control_c, 0, 64, 51
1, 706604, Control_c, 0, 64, 60
1, 706619, Control_c, 0, 64, 67
1, 706620, Note_off_c, 0, 69, 63
1, 706625, Note_off_c, 0, 76, 63
1, 706634, Note_off_c, 0, 73, 66
1, 706634, Control_c, 0, 64, 81
1, 706649, Control_c, 0, 64, 127
1, 706671, Note_off_c, 0, 57, 62
1, 706683, Note_on_c, 0, 67, 80
1, 706712, Note_off_c, 0, 61, 60
1, 706718, Note_on_c, 0, 74, 83
1, 706728, Note_on_c, 0, 79, 68
1, 706735, Note_on_c, 0, 70, 52
1, 706739, Note_off_c, 0, 74, 69
1, 706749, Note_off_c, 0, 79, 65
1, 706749, Note_off_c, 0, 67, 63
1, 706758, Note_off_c, 0, 70, 59
1, 706768, Control_c, 0, 64, 72
1, 706783, Control_c, 0, 64, 17
1, 706787, Note_on_c, 0, 67, 81
1, 706790, Note_on_c, 0, 52, 87
1, 706790, Note_on_c, 0, 79, 92
1, 706795, Note_on_c, 0, 74, 90
1, 706795, Note_on_c, 0, 70, 82
1, 706797, Control_c, 0, 64, 0
1, 706809, Note_on_c, 0, 55, 59
1, 706813, Note_on_c, 0, 57, 63
1, 706842, Control_c, 0, 64, 53
1, 706842, Note_off_c, 0, 79, 64
1, 706857, Control_c, 0, 64, 66
1, 706858, Note_off_c, 0, 74, 63
1, 706868, Note_off_c, 0, 67, 63
1, 706871, Control_c, 0, 64, 85
1, 706884, Note_off_c, 0, 70, 62
1, 706886, Control_c, 0, 64, 127
1, 706890, Note_off_c, 0, 55, 61
1, 706899, Note_off_c, 0, 57, 64
1, 706917, Note_on_c, 0, 62, 78
1, 706928, Note_off_c, 0, 52, 62
1, 706956, Note_on_c, 0, 72, 85
1, 706961, Note_on_c, 0, 69, 80
1, 706962, Note_on_c, 0, 65, 85
1, 706977, Note_off_c, 0, 62, 61
1, 706985, Note_off_c, 0, 69, 68
1, 706991, Note_off_c, 0, 65, 64
1, 707004, Note_off_c, 0, 72, 61
1, 707004, Control_c, 0, 64, 93
1, 707019, Control_c, 0, 64, 63
1, 707021, Note_on_c, 0, 53, 82
1, 707031, Note_on_c, 0, 57, 73
1, 707034, Control_c, 0, 64, 0
1, 707036, Note_on_c, 0, 72, 86
1, 707041, Note_on_c, 0, 69, 86
1, 707042, Note_on_c, 0, 65, 82
1, 707078, Control_c, 0, 64, 44
1, 707093, Control_c, 0, 64, 60
1, 707108, Control_c, 0, 64, 68
1, 707117, Note_off_c, 0, 53, 52
1, 707122, Note_off_c, 0, 69, 62
1, 707123, Control_c, 0, 64, 95
1, 707125, Note_off_c, 0, 65, 59
1, 707137, Note_off_c, 0, 72, 65
1, 707138, Control_c, 0, 64, 127
1, 707158, Note_on_c, 0, 63, 96
1, 707204, Note_off_c, 0, 57, 58
1, 707213, Note_on_c, 0, 64, 89
1, 707213, Note_on_c, 0, 70, 84
1, 707216, Note_on_c, 0, 67, 82
1, 707216, Note_off_c, 0, 63, 62
1, 707218, Note_on_c, 0, 76, 78
1, 707242, Note_off_c, 0, 70, 63
1, 707242, Note_off_c, 0, 76, 69
1, 707244, Note_off_c, 0, 64, 58
1, 707247, Note_off_c, 0, 67, 64
1, 707257, Control_c, 0, 64, 75
1, 707271, Control_c, 0, 64, 39
1, 707284, Note_on_c, 0, 48, 83
1, 707286, Control_c, 0, 64, 0
1, 707288, Note_on_c, 0, 64, 88
1, 707288, Note_on_c, 0, 76, 90
1, 707290, Note_on_c, 0, 70, 84
1, 707292, Note_on_c, 0, 67, 81
1, 707297, Note_on_c, 0, 53, 72
1, 707314, Note_on_c, 0, 51, 48
1, 707315, Control_c, 0, 64, 35
1, 707330, Control_c, 0, 64, 60
1, 707333, Note_off_c, 0, 48, 57
1, 707336, Note_off_c, 0, 76, 61
1, 707353, Control_c, 0, 64, 74
1, 707367, Note_off_c, 0, 51, 49
1, 707368, Control_c, 0, 64, 127
1, 707373, Note_off_c, 0, 64, 62
1, 707379, Note_off_c, 0, 70, 63
1, 707379, Note_off_c, 0, 67, 62
1, 707402, Note_off_c, 0, 53, 64
1, 707423, Note_on_c, 0, 58, 95
1, 707454, Note_on_c, 0, 69, 88
1, 707458, Note_on_c, 0, 65, 77
1, 707464, Note_on_c, 0, 62, 75
1, 707477, Note_off_c, 0, 58, 64
1, 707482, Note_off_c, 0, 65, 68
1, 707489, Note_off_c, 0, 62, 69
1, 707500, Note_off_c, 0, 69, 61
1, 707501, Control_c, 0, 64, 67
1, 707516, Control_c, 0, 64, 0
1, 707520, Note_on_c, 0, 50, 81
1, 707526, Note_on_c, 0, 69, 89
1, 707532, Note_on_c, 0, 53, 84
1, 707532, Note_on_c, 0, 62, 94
1, 707533, Note_on_c, 0, 65, 87
1, 707576, Control_c, 0, 64, 57
1, 707591, Control_c, 0, 64, 91
1, 707591, Note_off_c, 0, 62, 64
1, 707606, Control_c, 0, 64, 127
1, 707617, Note_off_c, 0, 65, 63
1, 707617, Note_off_c, 0, 69, 64
1, 707644, Note_on_c, 0, 60, 100
1, 707767, Note_on_c, 0, 61, 109
1, 707769, Note_off_c, 0, 60, 67
1, 707772, Note_off_c, 0, 50, 63
1, 707783, Note_off_c, 0, 53, 62
1, 707783, Control_c, 0, 64, 70
1, 707798, Control_c, 0, 64, 0
1, 707988, Note_off_c, 0, 61, 0
1, 708017, Poly_aftertouch_c, 0, 61, 0
1, 708040, Note_on_c, 0, 62, 72
1, 708063, Note_on_c, 0, 58, 65
1, 708096, Note_off_c, 0, 62, 56
1, 708109, Note_on_c, 0, 69, 64
1, 708112, Note_off_c, 0, 58, 62
1, 708145, Note_off_c, 0, 69, 60
1, 708188, Note_on_c, 0, 65, 58
1, 708193, Note_on_c, 0, 52, 30
1, 708226, Note_off_c, 0, 65, 62
1, 708230, Note_off_c, 0, 52, 46
1, 708267, Note_on_c, 0, 64, 58
1, 708299, Note_off_c, 0, 64, 65
1, 708306, Note_on_c, 0, 58, 44
1, 708348, Note_off_c, 0, 58, 54
1, 708351, Note_on_c, 0, 67, 51
1, 708378, Note_off_c, 0, 67, 63
1, 708386, Note_on_c, 0, 46, 47
1, 708415, Note_off_c, 0, 46, 58
1, 708419, Note_on_c, 0, 64, 51
1, 708464, Note_off_c, 0, 64, 64
1, 708499, Note_on_c, 0, 62, 65
1, 708500, Note_on_c, 0, 58, 60
1, 708542, Note_off_c, 0, 58, 60
1, 708542, Note_off_c, 0, 62, 57
1, 708560, Note_on_c, 0, 69, 65
1, 708596, Note_off_c, 0, 69, 63
1, 708618, Note_on_c, 0, 52, 55
1, 708635, Note_on_c, 0, 65, 63
1, 708655, Note_off_c, 0, 52, 65
1, 708668, Note_off_c, 0, 65, 65
1, 708702, Note_on_c, 0, 64, 73
1, 708729, Note_on_c, 0, 58, 63
1, 708738, Note_off_c, 0, 64, 62
1, 708769, Note_off_c, 0, 58, 62
1, 708774, Note_on_c, 0, 67, 77
1, 708801, Note_off_c, 0, 67, 67
1, 708821, Note_on_c, 0, 46, 69
1, 708843, Note_on_c, 0, 64, 79
1, 708864, Note_off_c, 0, 46, 67
1, 708898, Note_off_c, 0, 64, 63
1, 708916, Note_on_c, 0, 62, 83
1, 708936, Note_on_c, 0, 58, 76
1, 708965, Note_off_c, 0, 58, 66
1, 708971, Note_off_c, 0, 62, 64
1, 708976, Note_on_c, 0, 69, 88
1, 709007, Note_off_c, 0, 69, 68
1, 709033, Note_on_c, 0, 51, 73
1, 709044, Note_on_c, 0, 65, 89
1, 709063, Note_off_c, 0, 51, 64
1, 709075, Note_off_c, 0, 65, 67
1, 709092, Note_on_c, 0, 52, 27
1, 709114, Note_on_c, 0, 64, 89
1, 709128, Note_off_c, 0, 52, 45
1, 709137, Note_off_c, 0, 64, 68
1, 709159, Note_on_c, 0, 58, 73
1, 709216, Note_off_c, 0, 58, 57
1, 709279, Note_on_c, 0, 46, 54
1, 709291, Note_on_c, 0, 62, 64
1, 709317, Note_off_c, 0, 46, 64
1, 709332, Note_off_c, 0, 62, 62
1, 709355, Note_on_c, 0, 69, 67
1, 709355, Note_on_c, 0, 74, 67
1, 709391, Note_on_c, 0, 58, 62
1, 709409, Note_off_c, 0, 69, 55
1, 709430, Note_off_c, 0, 58, 64
1, 709458, Note_off_c, 0, 74, 52
1, 709501, Note_on_c, 0, 52, 60
1, 709555, Note_off_c, 0, 52, 60
1, 709600, Control_c, 0, 64, 36
1, 709611, Note_on_c, 0, 62, 66
1, 709615, Control_c, 0, 64, 51
1, 709622, Note_on_c, 0, 58, 69
1, 709630, Control_c, 0, 64, 58
1, 709644, Control_c, 0, 64, 67
1, 709647, Note_off_c, 0, 62, 60
1, 709653, Note_off_c, 0, 58, 62
1, 709659, Control_c, 0, 64, 79
1, 709674, Control_c, 0, 64, 117
1, 709680, Note_on_c, 0, 65, 64
1, 709689, Control_c, 0, 64, 127
1, 709716, Note_off_c, 0, 65, 58
1, 709728, Note_on_c, 0, 46, 59
1, 709752, Note_on_c, 0, 66, 65
1, 709769, Note_off_c, 0, 66, 64
1, 709774, Note_off_c, 0, 46, 62
1, 709829, Note_on_c, 0, 69, 78
1, 709840, Note_on_c, 0, 52, 71
1, 709892, Note_off_c, 0, 69, 63
1, 709892, Note_on_c, 0, 70, 75
1, 709901, Note_off_c, 0, 52, 61
1, 709946, Note_on_c, 0, 46, 78
1, 709971, Note_on_c, 0, 73, 78
1, 709974, Note_off_c, 0, 70, 63
1, 710002, Note_off_c, 0, 46, 61
1, 710014, Note_off_c, 0, 73, 67
1, 710050, Note_on_c, 0, 52, 86
1, 710051, Note_on_c, 0, 74, 83
1, 710101, Note_off_c, 0, 52, 65
1, 710122, Note_on_c, 0, 77, 76
1, 710123, Note_off_c, 0, 74, 62
1, 710157, Note_on_c, 0, 40, 86
1, 710202, Note_on_c, 0, 78, 79
1, 710203, Note_off_c, 0, 77, 64
1, 710209, Note_off_c, 0, 40, 63
1, 710237, Note_off_c, 0, 78, 64
1, 710278, Note_on_c, 0, 81, 90
1, 710283, Note_on_c, 0, 46, 89
1, 710347, Note_off_c, 0, 46, 62
1, 710360, Note_on_c, 0, 82, 86
1, 710375, Note_off_c, 0, 81, 54
1, 710376, Note_on_c, 0, 34, 88
1, 710401, Note_off_c, 0, 34, 70
1, 710426, Note_on_c, 0, 85, 84
1, 710430, Note_off_c, 0, 82, 67
1, 710452, Control_c, 0, 64, 113
1, 710467, Control_c, 0, 64, 65
1, 710482, Control_c, 0, 64, 0
1, 710503, Note_on_c, 0, 86, 94
1, 710514, Note_on_c, 0, 61, 112
1, 710517, Note_off_c, 0, 85, 64
1, 710526, Control_c, 0, 64, 53
1, 710542, Control_c, 0, 64, 68
1, 710557, Control_c, 0, 64, 105
1, 710571, Control_c, 0, 64, 127
1, 710581, Note_off_c, 0, 61, 58
1, 710586, Note_on_c, 0, 85, 77
1, 710607, Note_off_c, 0, 86, 61
1, 710663, Note_off_c, 0, 85, 66
1, 710674, Note_on_c, 0, 82, 80
1, 710743, Note_off_c, 0, 82, 60
1, 710746, Note_on_c, 0, 81, 78
1, 710753, Note_on_c, 0, 40, 79
1, 710799, Note_off_c, 0, 81, 62
1, 710809, Note_off_c, 0, 40, 60
1, 710824, Note_on_c, 0, 78, 73
1, 710859, Note_off_c, 0, 78, 65
1, 710876, Note_on_c, 0, 52, 65
1, 710899, Note_on_c, 0, 77, 78
1, 710934, Note_off_c, 0, 52, 61
1, 710950, Note_off_c, 0, 77, 63
1, 710971, Control_c, 0, 64, 111
1, 710974, Note_on_c, 0, 74, 71
1, 710986, Control_c, 0, 64, 70
1, 710986, Note_on_c, 0, 46, 69
1, 711001, Control_c, 0, 64, 0
1, 711014, Note_off_c, 0, 74, 62
1, 711042, Note_on_c, 0, 73, 76
1, 711081, Note_off_c, 0, 46, 60
1, 711103, Note_off_c, 0, 73, 65
1, 711120, Note_on_c, 0, 58, 57
1, 711132, Note_on_c, 0, 70, 72
1, 711168, Note_off_c, 0, 70, 67
1, 711168, Note_off_c, 0, 58, 58
1, 711201, Note_on_c, 0, 69, 70
1, 711209, Note_on_c, 0, 52, 53
1, 711235, Note_off_c, 0, 69, 64
1, 711254, Note_off_c, 0, 52, 64
1, 711268, Note_on_c, 0, 66, 65
1, 711302, Note_off_c, 0, 66, 62
1, 711335, Note_on_c, 0, 58, 47
1, 711338, Note_on_c, 0, 65, 64
1, 711382, Note_off_c, 0, 58, 60
1, 711388, Note_off_c, 0, 65, 61
1, 711414, Note_on_c, 0, 61, 73
1, 711447, Note_off_c, 0, 61, 64
1, 711490, Note_on_c, 0, 68, 64
1, 711540, Note_off_c, 0, 68, 61
1, 711567, Note_on_c, 0, 58, 50
1, 711573, Note_on_c, 0, 64, 56
1, 711594, Note_off_c, 0, 58, 62
1, 711614, Note_off_c, 0, 64, 61
1, 711651, Note_on_c, 0, 63, 65
1, 711656, Note_on_c, 0, 52, 47
1, 711686, Note_off_c, 0, 63, 60
1, 711690, Note_off_c, 0, 52, 64
1, 711731, Note_on_c, 0, 66, 57
1, 711766, Note_off_c, 0, 66, 64
1, 711776, Note_on_c, 0, 58, 41
1, 711801, Note_off_c, 0, 58, 58
1, 711803, Note_on_c, 0, 63, 61
1, 711868, Note_off_c, 0, 63, 61
1, 711886, Note_on_c, 0, 46, 58
1, 711886, Note_on_c, 0, 61, 70
1, 711916, Note_off_c, 0, 61, 64
1, 711919, Note_off_c, 0, 46, 64
1, 711950, Note_on_c, 0, 68, 61
1, 711987, Note_off_c, 0, 68, 63
1, 712020, Note_on_c, 0, 58, 52
1, 712030, Note_on_c, 0, 64, 56
1, 712059, Note_off_c, 0, 58, 63
1, 712084, Note_off_c, 0, 64, 57
1, 712110, Note_on_c, 0, 52, 52
1, 712117, Note_on_c, 0, 63, 64
1, 712151, Note_off_c, 0, 52, 64
1, 712154, Note_off_c, 0, 63, 62
1, 712205, Note_on_c, 0, 66, 53
1, 712236, Note_off_c, 0, 66, 62
1, 712239, Note_on_c, 0, 58, 58
1, 712276, Note_on_c, 0, 63, 59
1, 712283, Note_off_c, 0, 58, 61
1, 712336, Note_off_c, 0, 63, 62
1, 712350, Note_on_c, 0, 61, 70
1, 712356, Note_on_c, 0, 46, 61
1, 712381, Note_off_c, 0, 61, 64
1, 712383, Note_off_c, 0, 46, 66
1, 712422, Note_on_c, 0, 68, 66
1, 712495, Note_on_c, 0, 58, 56
1, 712496, Note_off_c, 0, 68, 61
1, 712515, Note_on_c, 0, 64, 50
1, 712527, Note_off_c, 0, 58, 65
1, 712560, Note_off_c, 0, 64, 62
1, 712593, Note_on_c, 0, 63, 61
1, 712594, Note_on_c, 0, 52, 57
1, 712628, Note_off_c, 0, 63, 61
1, 712635, Note_off_c, 0, 52, 63
1, 712668, Note_on_c, 0, 66, 62
1, 712694, Note_off_c, 0, 66, 66
1, 712730, Note_on_c, 0, 58, 60
1, 712733, Note_on_c, 0, 63, 66
1, 712774, Note_off_c, 0, 58, 62
1, 712786, Note_off_c, 0, 63, 64
1, 712795, Note_on_c, 0, 62, 85
1, 712803, Control_c, 0, 64, 50
1, 712807, Note_on_c, 0, 46, 80
1, 712817, Control_c, 0, 64, 62
1, 712832, Control_c, 0, 64, 72
1, 712841, Note_off_c, 0, 62, 64
1, 712847, Control_c, 0, 64, 127
1, 712859, Note_off_c, 0, 46, 65
1, 712953, Note_on_c, 0, 58, 67
1, 712981, Control_c, 0, 64, 85
1, 712983, Note_on_c, 0, 61, 69
1, 712989, Note_off_c, 0, 58, 62
1, 712996, Control_c, 0, 64, 65
1, 713011, Control_c, 0, 64, 38
1, 713019, Note_off_c, 0, 61, 63
1, 713026, Control_c, 0, 64, 0
1, 713043, Note_on_c, 0, 73, 71
1, 713048, Note_on_c, 0, 52, 60
1, 713057, Note_on_c, 0, 68, 62
1, 713114, Note_off_c, 0, 52, 59
1, 713159, Note_off_c, 0, 73, 57
1, 713177, Note_on_c, 0, 58, 65
1, 713219, Note_off_c, 0, 58, 61
1, 713236, Note_off_c, 0, 68, 61
1, 713281, Note_on_c, 0, 46, 59
1, 713283, Note_on_c, 0, 61, 67
1, 713305, Control_c, 0, 64, 32
1, 713320, Control_c, 0, 64, 47
1, 713343, Control_c, 0, 64, 58
1, 713344, Note_off_c, 0, 61, 55
1, 713358, Control_c, 0, 64, 63
1, 713368, Note_on_c, 0, 64, 62
1, 713368, Note_off_c, 0, 46, 61
1, 713372, Control_c, 0, 64, 68
1, 713387, Control_c, 0, 64, 74
1, 713402, Control_c, 0, 64, 89
1, 713417, Note_on_c, 0, 58, 69
1, 713417, Control_c, 0, 64, 127
1, 713430, Note_off_c, 0, 64, 61
1, 713439, Note_on_c, 0, 67, 63
1, 713450, Note_off_c, 0, 58, 62
1, 713510, Note_off_c, 0, 67, 59
1, 713513, Note_on_c, 0, 68, 75
1, 713523, Note_on_c, 0, 46, 65
1, 713537, Note_off_c, 0, 68, 68
1, 713603, Note_on_c, 0, 72, 80
1, 713606, Note_off_c, 0, 46, 63
1, 713631, Poly_aftertouch_c, 0, 69, 0
1, 713637, Note_on_c, 0, 52, 70
1, 713669, Note_on_c, 0, 73, 82
1, 713672, Note_off_c, 0, 72, 61
1, 713693, Note_off_c, 0, 52, 62
1, 713719, Note_off_c, 0, 73, 63
1, 713735, Note_on_c, 0, 40, 86
1, 713760, Note_on_c, 0, 76, 85
1, 713803, Note_off_c, 0, 40, 60
1, 713830, Note_on_c, 0, 79, 85
1, 713836, Note_off_c, 0, 76, 63
1, 713850, Note_on_c, 0, 52, 83
1, 713895, Note_off_c, 0, 52, 65
1, 713906, Note_on_c, 0, 80, 86
1, 713913, Note_off_c, 0, 79, 64
1, 713943, Note_off_c, 0, 80, 64
1, 713966, Note_on_c, 0, 34, 84
1, 713988, Note_on_c, 0, 84, 90
1, 714020, Poly_aftertouch_c, 0, 82, 0
1, 714046, Note_off_c, 0, 34, 63
1, 714055, Note_on_c, 0, 85, 87
1, 714070, Note_on_c, 0, 46, 91
1, 714072, Note_off_c, 0, 84, 57
1, 714106, Note_off_c, 0, 46, 65
1, 714126, Note_on_c, 0, 87, 87
1, 714152, Control_c, 0, 64, 71
1, 714155, Note_off_c, 0, 85, 65
1, 714167, Control_c, 0, 64, 0
1, 714197, Note_on_c, 0, 88, 91
1, 714199, Note_on_c, 0, 61, 108
1, 714211, Control_c, 0, 64, 43
1, 714212, Note_off_c, 0, 87, 61
1, 714226, Control_c, 0, 64, 64
1, 714241, Control_c, 0, 64, 90
1, 714256, Control_c, 0, 64, 127
1, 714267, Note_off_c, 0, 61, 59
1, 714287, Note_on_c, 0, 87, 86
1, 714309, Poly_aftertouch_c, 0, 60, 0
1, 714312, Note_off_c, 0, 88, 62
1, 714371, Note_on_c, 0, 85, 75
1, 714388, Note_off_c, 0, 87, 60
1, 714432, Note_on_c, 0, 84, 83
1, 714438, Note_off_c, 0, 85, 63
1, 714441, Note_on_c, 0, 40, 75
1, 714476, Note_off_c, 0, 84, 64
1, 714504, Note_off_c, 0, 40, 60
1, 714519, Note_on_c, 0, 80, 73
1, 714542, Note_on_c, 0, 52, 66
1, 714567, Note_off_c, 0, 80, 63
1, 714593, Note_on_c, 0, 79, 77
1, 714602, Note_off_c, 0, 52, 62
1, 714638, Note_off_c, 0, 79, 66
1, 714659, Note_on_c, 0, 46, 69
1, 714662, Note_on_c, 0, 76, 75
1, 714695, Note_off_c, 0, 76, 65
1, 714732, Note_on_c, 0, 73, 82
1, 714754, Note_on_c, 0, 58, 81
1, 714764, Note_off_c, 0, 46, 59
1, 714799, Note_on_c, 0, 72, 77
1, 714799, Note_off_c, 0, 73, 61
1, 714814, Note_off_c, 0, 58, 62
1, 714849, Note_on_c, 0, 52, 77
1, 714858, Note_off_c, 0, 72, 64
1, 714879, Note_on_c, 0, 68, 77
1, 714905, Note_off_c, 0, 68, 67
1, 714943, Note_off_c, 0, 52, 60
1, 714948, Note_on_c, 0, 65, 71
1, 714951, Note_on_c, 0, 58, 85
1, 714993, Note_off_c, 0, 58, 61
1, 715019, Note_off_c, 0, 65, 64
1, 715025, Note_on_c, 0, 62, 75
1, 715050, Note_off_c, 0, 62, 68
1, 715108, Control_c, 0, 64, 95
1, 715123, Control_c, 0, 64, 54
1, 715136, Note_on_c, 0, 50, 77
1, 715137, Control_c, 0, 64, 0
1, 715169, Note_on_c, 0, 40, 44
1, 715175, Note_off_c, 0, 50, 59
1, 715202, Note_on_c, 0, 57, 61
1, 715216, Note_off_c, 0, 40, 59
1, 715269, Note_off_c, 0, 57, 62
1, 715279, Note_on_c, 0, 53, 63
1, 715287, Note_on_c, 0, 46, 51
1, 715319, Note_off_c, 0, 53, 65
1, 715332, Note_off_c, 0, 46, 63
1, 715356, Note_on_c, 0, 52, 63
1, 715385, Note_off_c, 0, 52, 66
1, 715389, Note_on_c, 0, 37, 49
1, 715422, Note_off_c, 0, 37, 53
1, 715432, Note_on_c, 0, 55, 55
1, 715467, Note_off_c, 0, 55, 63
1, 715501, Note_on_c, 0, 52, 55
1, 715507, Note_on_c, 0, 48, 46
1, 715553, Note_off_c, 0, 48, 59
1, 715554, Note_off_c, 0, 52, 64
1, 715588, Note_on_c, 0, 50, 68
1, 715601, Note_on_c, 0, 40, 58
1, 715617, Note_off_c, 0, 50, 65
1, 715641, Note_off_c, 0, 40, 64
1, 715655, Note_on_c, 0, 57, 61
1, 715698, Note_off_c, 0, 57, 63
1, 715725, Note_on_c, 0, 46, 52
1, 715734, Note_on_c, 0, 53, 61
1, 715779, Note_off_c, 0, 53, 60
1, 715791, Note_off_c, 0, 46, 56
1, 715812, Note_on_c, 0, 52, 65
1, 715831, Note_on_c, 0, 37, 56
1, 715850, Note_off_c, 0, 52, 62
1, 715860, Note_off_c, 0, 37, 61
1, 715901, Note_on_c, 0, 55, 54
1, 715936, Note_off_c, 0, 55, 63
1, 715944, Note_on_c, 0, 48, 53
1, 715969, Note_on_c, 0, 52, 55
1, 715992, Note_off_c, 0, 48, 55
1, 716024, Note_off_c, 0, 52, 64
1, 716050, Note_on_c, 0, 40, 53
1, 716052, Note_on_c, 0, 50, 70
1, 716088, Note_off_c, 0, 50, 67
1, 716095, Note_off_c, 0, 40, 59
1, 716131, Note_on_c, 0, 57, 60
1, 716174, Note_on_c, 0, 46, 49
1, 716185, Note_off_c, 0, 57, 55
1, 716222, Note_on_c, 0, 53, 55
1, 716223, Note_off_c, 0, 46, 60
1, 716264, Note_off_c, 0, 53, 64
1, 716287, Note_on_c, 0, 52, 54
1, 716288, Note_on_c, 0, 37, 52
1, 716319, Note_off_c, 0, 52, 60
1, 716334, Note_off_c, 0, 37, 64
1, 716368, Note_on_c, 0, 55, 52
1, 716407, Note_off_c, 0, 55, 61
1, 716420, Note_on_c, 0, 52, 51
1, 716431, Note_on_c, 0, 48, 36
1, 716482, Note_off_c, 0, 52, 61
1, 716492, Note_off_c, 0, 48, 59
1, 716503, Control_c, 0, 64, 16
1, 716517, Note_on_c, 0, 40, 41
1, 716518, Control_c, 0, 64, 48
1, 716528, Note_on_c, 0, 50, 58
1, 716532, Control_c, 0, 64, 62
1, 716547, Control_c, 0, 64, 73
1, 716551, Note_off_c, 0, 40, 54
1, 716562, Control_c, 0, 64, 106
1, 716564, Note_off_c, 0, 50, 59
1, 716577, Control_c, 0, 64, 127
1, 716702, Note_on_c, 0, 50, 59
1, 716740, Note_off_c, 0, 50, 66
1, 716759, Note_on_c, 0, 61, 99
1, 716778, Note_on_c, 0, 62, 70
1, 716778, Note_on_c, 0, 57, 66
1, 716802, Note_off_c, 0, 61, 65
1, 716814, Note_off_c, 0, 57, 63
1, 716836, Note_off_c, 0, 62, 50
1, 716958, Note_on_c, 0, 49, 81
1, 716962, Control_c, 0, 64, 107
1, 716964, Note_on_c, 0, 55, 67
1, 716977, Control_c, 0, 64, 67
1, 716981, Note_on_c, 0, 37, 38
1, 716983, Note_off_c, 0, 49, 70
1, 716990, Note_off_c, 0, 55, 64
1, 716992, Control_c, 0, 64, 0
1, 717015, Note_on_c, 0, 36, 52
1, 717024, Note_off_c, 0, 37, 49
1, 717031, Note_on_c, 0, 48, 70
1, 717034, Note_on_c, 0, 69, 62
1, 717051, Control_c, 0, 64, 25
1, 717055, Note_on_c, 0, 62, 47
1, 717056, Note_on_c, 0, 60, 47
1, 717066, Note_on_c, 0, 67, 20
1, 717066, Control_c, 0, 64, 52
1, 717088, Control_c, 0, 64, 62
1, 717100, Note_off_c, 0, 60, 64
1, 717103, Control_c, 0, 64, 67
1, 717112, Note_off_c, 0, 67, 31
1, 717118, Control_c, 0, 64, 79
1, 717128, Note_off_c, 0, 62, 57
1, 717130, Note_off_c, 0, 69, 59
1, 717133, Control_c, 0, 64, 127
1, 717162, Note_off_c, 0, 48, 60
1, 717179, Note_off_c, 0, 36, 61
1, 717219, Note_on_c, 0, 62, 72
1, 717236, Control_c, 0, 64, 100
1, 717251, Control_c, 0, 64, 69
1, 717257, Note_off_c, 0, 62, 62
1, 717266, Control_c, 0, 64, 43
1, 717267, Note_on_c, 0, 47, 89
1, 717270, Note_on_c, 0, 35, 80
1, 717280, Control_c, 0, 64, 0
1, 717284, Note_on_c, 0, 69, 77
1, 717293, Note_on_c, 0, 74, 64
1, 717295, Control_c, 0, 64, 17
1, 717299, Note_on_c, 0, 76, 61
1, 717310, Control_c, 0, 64, 43
1, 717320, Note_off_c, 0, 76, 62
1, 717325, Control_c, 0, 64, 55
1, 717340, Control_c, 0, 64, 63
1, 717354, Control_c, 0, 64, 70
1, 717369, Control_c, 0, 64, 90
1, 717377, Note_off_c, 0, 69, 59
1, 717384, Control_c, 0, 64, 127
1, 717395, Note_off_c, 0, 47, 60
1, 717396, Note_off_c, 0, 74, 59
1, 717406, Note_off_c, 0, 35, 60
1, 717460, Note_on_c, 0, 69, 80
1, 717487, Control_c, 0, 64, 78
1, 717502, Control_c, 0, 64, 58
1, 717508, Note_on_c, 0, 46, 95
1, 717514, Note_on_c, 0, 34, 85
1, 717516, Note_off_c, 0, 69, 62
1, 717517, Control_c, 0, 64, 33
1, 717519, Note_on_c, 0, 74, 88
1, 717520, Note_on_c, 0, 81, 86
1, 717532, Control_c, 0, 64, 49
1, 717547, Control_c, 0, 64, 58
1, 717562, Control_c, 0, 64, 65
1, 717577, Control_c, 0, 64, 77
1, 717592, Control_c, 0, 64, 127
1, 717613, Note_off_c, 0, 74, 60
1, 717615, Note_off_c, 0, 46, 62
1, 717622, Note_off_c, 0, 34, 61
1, 717629, Poly_aftertouch_c, 0, 36, 127
1, 717631, Note_off_c, 0, 81, 63
1, 717678, Poly_aftertouch_c, 0, 36, 0
1, 717689, Note_on_c, 0, 74, 86
1, 717692, Note_on_c, 0, 45, 88
1, 717695, Control_c, 0, 64, 117
1, 717710, Control_c, 0, 64, 68
1, 717711, Note_on_c, 0, 33, 54
1, 717720, Note_off_c, 0, 45, 69
1, 717726, Control_c, 0, 64, 0
1, 717739, Note_off_c, 0, 74, 60
1, 717744, Note_off_c, 0, 33, 57
1, 717756, Note_on_c, 0, 81, 96
1, 717756, Control_c, 0, 64, 32
1, 717758, Note_on_c, 0, 86, 94
1, 717769, Note_on_c, 0, 44, 96
1, 717770, Control_c, 0, 64, 58
1, 717776, Note_on_c, 0, 32, 84
1, 717785, Control_c, 0, 64, 70
1, 717800, Control_c, 0, 64, 127
1, 717841, Note_on_c, 0, 37, 39
1, 717861, Note_off_c, 0, 81, 63
1, 717869, Note_off_c, 0, 86, 63
1, 717882, Note_off_c, 0, 37, 55
1, 717895, Note_on_c, 0, 34, 17
1, 717906, Note_off_c, 0, 44, 61
1, 717912, Note_off_c, 0, 32, 60
1, 717936, Note_on_c, 0, 81, 84
1, 717943, Note_off_c, 0, 34, 50
1, 717982, Note_off_c, 0, 81, 65
1, 717985, Control_c, 0, 64, 68
1, 717998, Note_on_c, 0, 86, 97
1, 717999, Note_on_c, 0, 43, 98
1, 718000, Note_on_c, 0, 93, 104
1, 718000, Control_c, 0, 64, 0
1, 718003, Note_on_c, 0, 31, 97
1, 718029, Control_c, 0, 64, 23
1, 718044, Control_c, 0, 64, 58
1, 718059, Control_c, 0, 64, 75
1, 718074, Control_c, 0, 64, 127
1, 718102, Note_off_c, 0, 43, 53
1, 718106, Note_off_c, 0, 86, 61
1, 718124, Note_off_c, 0, 31, 59
1, 718145, Note_off_c, 0, 93, 64
1, 718185, Note_on_c, 0, 86, 80
1, 718207, Control_c, 0, 64, 84
1, 718221, Control_c, 0, 64, 51
1, 718222, Note_off_c, 0, 86, 60
1, 718236, Control_c, 0, 64, 0
1, 718237, Note_on_c, 0, 42, 106
1, 718243, Note_on_c, 0, 93, 98
1, 718245, Note_on_c, 0, 30, 89
1, 718247, Note_on_c, 0, 98, 100
1, 718266, Control_c, 0, 64, 47
1, 718275, Note_on_c, 0, 41, 48
1, 718276, Note_off_c, 0, 41, 127
1, 718281, Control_c, 0, 64, 65
1, 718296, Control_c, 0, 64, 103
1, 718310, Control_c, 0, 64, 127
1, 718321, Poly_aftertouch_c, 0, 41, 0
1, 718337, Note_on_c, 0, 32, 9
1, 718341, Note_off_c, 0, 93, 66
1, 718346, Note_off_c, 0, 42, 61
1, 718361, Note_off_c, 0, 30, 61
1, 718367, Note_off_c, 0, 98, 66
1, 718407, Note_off_c, 0, 32, 45
1, 718414, Control_c, 0, 64, 110
1, 718421, Note_on_c, 0, 93, 82
1, 718429, Control_c, 0, 64, 65
1, 718444, Control_c, 0, 64, 0
1, 718453, Note_off_c, 0, 93, 63
1, 718461, Note_on_c, 0, 41, 98
1, 718467, Note_on_c, 0, 29, 92
1, 718471, Note_on_c, 0, 98, 92
1, 718474, Control_c, 0, 64, 27
1, 718477, Note_on_c, 0, 105, 97
1, 718489, Control_c, 0, 64, 58
1, 718503, Control_c, 0, 64, 70
1, 718518, Control_c, 0, 64, 127
1, 718550, Note_off_c, 0, 41, 60
1, 718609, Note_off_c, 0, 29, 61
1, 718689, Control_c, 0, 64, 80
1, 718704, Control_c, 0, 64, 42
1, 718719, Control_c, 0, 64, 0
1, 718736, Note_on_c, 0, 40, 101
1, 718742, Note_on_c, 0, 28, 84
1, 718746, Note_off_c, 0, 98, 66
1, 718763, Control_c, 0, 64, 30
1, 718772, Note_off_c, 0, 28, 66
1, 718772, Note_on_c, 0, 30, 42
1, 718778, Control_c, 0, 64, 76
1, 718789, Note_off_c, 0, 105, 65
1, 718793, Control_c, 0, 64, 127
1, 718796, Note_off_c, 0, 40, 65
1, 718816, Note_off_c, 0, 30, 58
1, 719049, Note_on_c, 0, 94, 112
1, 719052, Note_on_c, 0, 106, 105
1, 719131, Note_off_c, 0, 106, 66
1, 719138, Note_on_c, 0, 103, 89
1, 719142, Note_off_c, 0, 94, 64
1, 719150, Poly_aftertouch_c, 0, 92, 0
1, 719153, Note_on_c, 0, 91, 86
1, 719160, Note_on_c, 0, 93, 70
1, 719175, Note_off_c, 0, 93, 65
1, 719198, Note_off_c, 0, 91, 66
1, 719222, Note_on_c, 0, 100, 90
1, 719231, Note_off_c, 0, 103, 66
1, 719235, Note_on_c, 0, 88, 79
1, 719270, Note_off_c, 0, 100, 67
1, 719300, Note_on_c, 0, 85, 84
1, 719302, Note_on_c, 0, 97, 85
1, 719306, Note_off_c, 0, 88, 61
1, 719347, Note_off_c, 0, 85, 67
1, 719359, Note_off_c, 0, 97, 48
1, 719364, Note_on_c, 0, 96, 50
1, 719382, Note_on_c, 0, 93, 87
1, 719386, Note_off_c, 0, 96, 59
1, 719390, Note_on_c, 0, 81, 84
1, 719418, Note_off_c, 0, 81, 66
1, 719445, Note_off_c, 0, 93, 67
1, 719447, Note_on_c, 0, 89, 83
1, 719455, Note_on_c, 0, 77, 81
1, 719484, Note_off_c, 0, 89, 62
1, 719512, Note_on_c, 0, 86, 90
1, 719515, Note_on_c, 0, 74, 81
1, 719537, Note_off_c, 0, 77, 54
1, 719576, Note_on_c, 0, 70, 83
1, 719580, Note_on_c, 0, 82, 90
1, 719585, Note_off_c, 0, 86, 64
1, 719587, Note_off_c, 0, 74, 61
1, 719614, Note_off_c, 0, 70, 69
1, 719632, Note_off_c, 0, 82, 68
1, 719642, Note_on_c, 0, 79, 84
1, 719664, Note_on_c, 0, 67, 77
1, 719709, Note_off_c, 0, 67, 64
1, 719712, Note_on_c, 0, 76, 87
1, 719713, Note_off_c, 0, 79, 63
1, 719717, Note_on_c, 0, 64, 78
1, 719756, Note_off_c, 0, 76, 66
1, 719777, Note_on_c, 0, 61, 83
1, 719783, Note_on_c, 0, 73, 86
1, 719797, Note_off_c, 0, 64, 61
1, 719821, Note_off_c, 0, 61, 65
1, 719839, Note_off_c, 0, 73, 68
1, 719861, Note_on_c, 0, 69, 72
1, 719866, Note_on_c, 0, 70, 46
1, 719872, Note_on_c, 0, 57, 87
1, 719885, Note_off_c, 0, 70, 63
1, 719912, Note_off_c, 0, 69, 66
1, 719913, Note_off_c, 0, 57, 68
1, 719917, Note_on_c, 0, 65, 82
1, 719932, Note_on_c, 0, 53, 82
1, 719945, Note_off_c, 0, 65, 64
1, 719988, Note_on_c, 0, 62, 79
1, 719993, Note_on_c, 0, 50, 80
1, 719993, Note_on_c, 0, 64, 67
1, 720016, Note_off_c, 0, 64, 63
1, 720021, Note_off_c, 0, 53, 57
1, 720043, Note_on_c, 0, 58, 91
1, 720049, Note_on_c, 0, 46, 83
1, 720054, Note_off_c, 0, 62, 64
1, 720076, Note_off_c, 0, 50, 64
1, 720096, Note_off_c, 0, 46, 64
1, 720111, Note_off_c, 0, 58, 67
1, 720116, Note_on_c, 0, 55, 82
1, 720153, Note_on_c, 0, 43, 77
1, 720174, Note_off_c, 0, 55, 63
1, 720185, Note_on_c, 0, 52, 77
1, 720203, Note_on_c, 0, 40, 70
1, 720213, Note_off_c, 0, 43, 56
1, 720215, Note_off_c, 0, 52, 67
1, 720255, Note_on_c, 0, 49, 84
1, 720266, Note_on_c, 0, 37, 75
1, 720291, Control_c, 0, 64, 83
1, 720293, Note_off_c, 0, 40, 62
1, 720305, Note_off_c, 0, 49, 63
1, 720305, Control_c, 0, 64, 59
1, 720314, Note_on_c, 0, 45, 78
1, 720320, Control_c, 0, 64, 0
1, 720331, Note_on_c, 0, 33, 67
1, 720334, Note_off_c, 0, 37, 62
1, 720350, Control_c, 0, 64, 41
1, 720353, Note_on_c, 0, 46, 82
1, 720361, Note_on_c, 0, 35, 41
1, 720364, Note_off_c, 0, 45, 64
1, 720365, Control_c, 0, 64, 57
1, 720379, Control_c, 0, 64, 67
1, 720384, Note_off_c, 0, 46, 66
1, 720394, Control_c, 0, 64, 88
1, 720402, Note_on_c, 0, 45, 53
1, 720409, Control_c, 0, 64, 127
1, 720413, Note_off_c, 0, 35, 42
1, 720424, Note_off_c, 0, 33, 61
1, 720429, Note_on_c, 0, 34, 74
1, 720507, Note_off_c, 0, 34, 60
1, 720518, Note_on_c, 0, 33, 73
1, 720569, Note_on_c, 0, 34, 58
1, 720581, Note_off_c, 0, 33, 58
1, 720595, Note_on_c, 0, 60, 92
1, 720595, Note_on_c, 0, 61, 89
1, 720640, Note_on_c, 0, 33, 63
1, 720642, Note_off_c, 0, 34, 61
1, 720695, Poly_aftertouch_c, 0, 63, 127
1, 720695, Note_on_c, 0, 34, 56
1, 720702, Note_off_c, 0, 33, 60
1, 720767, Note_on_c, 0, 33, 69
1, 720772, Poly_aftertouch_c, 0, 63, 0
1, 720778, Note_off_c, 0, 34, 55
1, 720785, Note_off_c, 0, 61, 60
1, 720828, Note_on_c, 0, 34, 45
1, 720839, Note_off_c, 0, 33, 62
1, 720858, Note_on_c, 0, 58, 92
1, 720864, Note_on_c, 0, 61, 88
1, 720875, Note_off_c, 0, 60, 60
1, 720889, Note_on_c, 0, 33, 68
1, 720912, Note_off_c, 0, 34, 60
1, 720952, Note_off_c, 0, 45, 0
1, 720966, Note_on_c, 0, 45, 36
1, 721016, Note_off_c, 0, 45, 62
1, 721029, Note_off_c, 0, 33, 61
1, 721050, Note_off_c, 0, 61, 60
1, 721084, Control_c, 0, 64, 98
1, 721099, Control_c, 0, 64, 54
1, 721112, Note_on_c, 0, 57, 96
1, 721112, Note_on_c, 0, 61, 94
1, 721114, Control_c, 0, 64, 0
1, 721115, Note_on_c, 0, 45, 100
1, 721121, Note_on_c, 0, 33, 93
1, 721123, Note_off_c, 0, 58, 57
1, 721143, Control_c, 0, 64, 38
1, 721158, Control_c, 0, 64, 63
1, 721163, Note_off_c, 0, 33, 61
1, 721173, Control_c, 0, 64, 85
1, 721178, Note_off_c, 0, 45, 64
1, 721188, Control_c, 0, 64, 127
1, 721303, Note_off_c, 0, 57, 30
1, 721321, Control_c, 0, 64, 75
1, 721330, Note_off_c, 0, 61, 60
1, 721336, Control_c, 0, 64, 0
1, 721364, Note_on_c, 0, 50, 99
1, 721368, Note_on_c, 0, 38, 87
1, 721368, Note_on_c, 0, 62, 103
1, 721380, Control_c, 0, 64, 40
1, 721395, Note_off_c, 0, 38, 67
1, 721395, Control_c, 0, 64, 92
1, 721406, Note_off_c, 0, 50, 68
1, 721410, Control_c, 0, 64, 127
1, 721416, Note_off_c, 0, 62, 73
1, 721595, Control_c, 0, 64, 111
1, 721610, Control_c, 0, 64, 60
1, 721625, Control_c, 0, 64, 0
1, 721649, Note_on_c, 0, 64, 65
1, 721692, Note_off_c, 0, 64, 64
1, 721747, Note_on_c, 0, 67, 47
1, 721786, Note_off_c, 0, 67, 62
1, 721813, Note_on_c, 0, 64, 67
1, 721869, Note_off_c, 0, 64, 62
1, 721883, Note_on_c, 0, 62, 64
1, 721916, Note_off_c, 0, 62, 62
1, 721971, Note_on_c, 0, 69, 51
1, 721994, Note_off_c, 0, 69, 59
1, 722039, Note_on_c, 0, 65, 56
1, 722090, Note_off_c, 0, 65, 55
1, 722108, Note_on_c, 0, 64, 64
1, 722143, Note_off_c, 0, 64, 63
1, 722218, Note_on_c, 0, 67, 40
1, 722245, Note_off_c, 0, 67, 56
1, 722267, Note_on_c, 0, 64, 52
1, 722309, Note_off_c, 0, 64, 64
1, 722334, Note_on_c, 0, 62, 64
1, 722367, Note_off_c, 0, 62, 63
1, 722425, Note_on_c, 0, 69, 56
1, 722465, Note_off_c, 0, 69, 62
1, 722519, Note_on_c, 0, 65, 46
1, 722563, Note_off_c, 0, 65, 64
1, 722571, Note_on_c, 0, 64, 65
1, 722606, Note_off_c, 0, 64, 63
1, 722686, Note_on_c, 0, 67, 23
1, 722718, Note_off_c, 0, 67, 41
1, 722731, Note_on_c, 0, 64, 54
1, 722778, Note_off_c, 0, 64, 62
1, 722800, Note_on_c, 0, 62, 60
1, 722832, Note_off_c, 0, 62, 63
1, 722896, Note_on_c, 0, 69, 53
1, 722937, Note_off_c, 0, 69, 63
1, 722969, Note_on_c, 0, 65, 40
1, 723005, Note_off_c, 0, 65, 51
1, 723025, Note_on_c, 0, 64, 63
1, 723055, Note_off_c, 0, 64, 66
1, 723123, Note_on_c, 0, 67, 54
1, 723172, Note_off_c, 0, 67, 57
1, 723202, Note_on_c, 0, 64, 43
1, 723213, Note_on_c, 0, 50, 69
1, 723250, Note_off_c, 0, 50, 66
1, 723259, Note_on_c, 0, 57, 85
1, 723269, Note_off_c, 0, 64, 62
1, 723279, Note_on_c, 0, 62, 64
1, 723282, Note_off_c, 0, 57, 70
1, 723322, Note_off_c, 0, 62, 60
1, 723373, Note_on_c, 0, 69, 52
1, 723430, Note_off_c, 0, 69, 56
1, 723476, Note_on_c, 0, 65, 51
1, 723510, Note_on_c, 0, 74, 88
1, 723525, Note_off_c, 0, 65, 61
1, 723526, Note_off_c, 0, 74, 71
1, 723538, Note_on_c, 0, 64, 59
1, 723571, Note_off_c, 0, 64, 64
1, 723636, Note_on_c, 0, 67, 53
1, 723687, Note_off_c, 0, 67, 55
1, 723726, Note_on_c, 0, 64, 48
1, 723791, Note_off_c, 0, 64, 61
1, 723792, Note_on_c, 0, 81, 97
1, 723804, Control_c, 0, 64, 31
1, 723805, Note_on_c, 0, 62, 61
1, 723826, Control_c, 0, 64, 52
1, 723841, Control_c, 0, 64, 63
1, 723851, Note_off_c, 0, 62, 63
1, 723855, Control_c, 0, 64, 74
1, 723870, Control_c, 0, 64, 107
1, 723885, Control_c, 0, 64, 127
1, 723897, Note_on_c, 0, 69, 54
1, 723970, Note_off_c, 0, 69, 60
1, 723998, Note_on_c, 0, 65, 49
1, 724027, Note_off_c, 0, 81, 62
1, 724050, Note_off_c, 0, 65, 59
1, 724063, Note_on_c, 0, 64, 63
1, 724102, Note_off_c, 0, 64, 63
1, 724154, Note_on_c, 0, 67, 60
1, 724191, Note_off_c, 0, 67, 60
1, 724218, Note_on_c, 0, 86, 85
1, 724225, Note_on_c, 0, 64, 55
1, 724257, Control_c, 0, 64, 88
1, 724258, Note_off_c, 0, 86, 66
1, 724269, Note_off_c, 0, 64, 60
1, 724271, Control_c, 0, 64, 56
1, 724273, Note_on_c, 0, 81, 92
1, 724284, Note_on_c, 0, 62, 60
1, 724286, Control_c, 0, 64, 0
1, 724301, Note_off_c, 0, 81, 68
1, 724314, Note_off_c, 0, 62, 65
1, 724372, Note_on_c, 0, 69, 57
1, 724407, Note_off_c, 0, 69, 66
1, 724451, Note_on_c, 0, 84, 87
1, 724452, Note_on_c, 0, 65, 50
1, 724496, Note_off_c, 0, 65, 61
1, 724498, Note_off_c, 0, 84, 64
1, 724510, Note_on_c, 0, 79, 89
1, 724511, Note_on_c, 0, 64, 59
1, 724541, Note_off_c, 0, 79, 68
1, 724544, Note_off_c, 0, 64, 65
1, 724606, Note_on_c, 0, 67, 59
1, 724647, Note_off_c, 0, 67, 60
1, 724665, Note_on_c, 0, 64, 49
1, 724685, Note_on_c, 0, 82, 81
1, 724734, Note_off_c, 0, 64, 61
1, 724739, Note_off_c, 0, 82, 67
1, 724745, Note_on_c, 0, 62, 65
1, 724746, Note_on_c, 0, 77, 99
1, 724767, Control_c, 0, 64, 23
1, 724779, Note_off_c, 0, 62, 64
1, 724782, Control_c, 0, 64, 53
1, 724797, Control_c, 0, 64, 66
1, 724812, Control_c, 0, 64, 75
1, 724826, Control_c, 0, 64, 103
1, 724835, Note_on_c, 0, 69, 61
1, 724841, Control_c, 0, 64, 127
1, 724909, Note_off_c, 0, 69, 60
1, 724936, Note_on_c, 0, 65, 46
1, 724948, Note_off_c, 0, 77, 60
1, 724978, Note_off_c, 0, 65, 64
1, 724991, Note_on_c, 0, 64, 60
1, 725024, Note_off_c, 0, 64, 65
1, 725081, Note_on_c, 0, 67, 52
1, 725116, Note_on_c, 0, 81, 63
1, 725121, Note_off_c, 0, 67, 61
1, 725132, Note_on_c, 0, 64, 44
1, 725159, Note_on_c, 0, 85, 68
1, 725170, Note_off_c, 0, 81, 63
1, 725186, Note_on_c, 0, 89, 80
1, 725187, Note_off_c, 0, 85, 69
1, 725195, Note_on_c, 0, 93, 92
1, 725198, Note_off_c, 0, 64, 60
1, 725206, Note_on_c, 0, 88, 42
1, 725208, Note_on_c, 0, 62, 70
1, 725211, Note_off_c, 0, 89, 69
1, 725213, Control_c, 0, 64, 70
1, 725228, Control_c, 0, 64, 0
1, 725232, Note_off_c, 0, 88, 40
1, 725232, Note_off_c, 0, 93, 65
1, 725237, Note_off_c, 0, 62, 67
1, 725284, Note_on_c, 0, 69, 64
1, 725338, Note_off_c, 0, 69, 65
1, 725390, Note_on_c, 0, 77, 82
1, 725391, Note_on_c, 0, 65, 47
1, 725430, Note_off_c, 0, 77, 66
1, 725432, Note_off_c, 0, 65, 63
1, 725446, Note_on_c, 0, 64, 56
1, 725458, Note_on_c, 0, 76, 87
1, 725479, Note_off_c, 0, 76, 70
1, 725485, Note_off_c, 0, 64, 64
1, 725543, Note_on_c, 0, 67, 57
1, 725585, Note_off_c, 0, 67, 61
1, 725616, Note_on_c, 0, 74, 80
1, 725619, Note_on_c, 0, 64, 40
1, 725671, Note_off_c, 0, 64, 64
1, 725677, Note_on_c, 0, 73, 88
1, 725677, Note_off_c, 0, 74, 67
1, 725684, Note_on_c, 0, 62, 59
1, 725703, Note_off_c, 0, 73, 65
1, 725718, Note_off_c, 0, 62, 63
1, 725771, Note_on_c, 0, 69, 60
1, 725819, Note_off_c, 0, 69, 56
1, 725839, Note_on_c, 0, 74, 80
1, 725870, Note_on_c, 0, 65, 43
1, 725898, Note_off_c, 0, 74, 59
1, 725899, Note_on_c, 0, 76, 91
1, 725906, Note_off_c, 0, 65, 64
1, 725911, Note_on_c, 0, 64, 65
1, 725921, Note_off_c, 0, 76, 70
1, 725945, Note_off_c, 0, 64, 63
1, 725996, Note_on_c, 0, 67, 58
1, 726037, Note_off_c, 0, 67, 61
1, 726056, Note_on_c, 0, 64, 57
1, 726069, Note_on_c, 0, 77, 91
1, 726126, Note_off_c, 0, 64, 61
1, 726129, Note_off_c, 0, 77, 64
1, 726132, Note_on_c, 0, 76, 92
1, 726142, Note_on_c, 0, 62, 61
1, 726158, Note_off_c, 0, 76, 67
1, 726171, Note_off_c, 0, 62, 65
1, 726219, Note_on_c, 0, 69, 67
1, 726262, Note_off_c, 0, 69, 64
1, 726308, Note_on_c, 0, 74, 83
1, 726316, Note_on_c, 0, 65, 49
1, 726356, Note_off_c, 0, 65, 64
1, 726367, Note_on_c, 0, 64, 64
1, 726370, Note_on_c, 0, 73, 91
1, 726371, Note_off_c, 0, 74, 62
1, 726400, Note_off_c, 0, 73, 67
1, 726400, Note_off_c, 0, 64, 64
1, 726466, Note_on_c, 0, 67, 50
1, 726507, Note_off_c, 0, 67, 61
1, 726516, Note_on_c, 0, 64, 56
1, 726538, Note_on_c, 0, 79, 74
1, 726591, Note_off_c, 0, 64, 63
1, 726595, Note_on_c, 0, 72, 90
1, 726602, Note_on_c, 0, 63, 65
1, 726609, Note_off_c, 0, 79, 66
1, 726619, Note_off_c, 0, 72, 67
1, 726637, Note_off_c, 0, 63, 67
1, 726692, Note_on_c, 0, 69, 61
1, 726743, Note_off_c, 0, 69, 58
1, 726762, Note_on_c, 0, 65, 48
1, 726827, Note_off_c, 0, 65, 60
1, 726840, Note_on_c, 0, 64, 63
1, 726848, Note_on_c, 0, 60, 88
1, 726868, Note_off_c, 0, 60, 72
1, 726880, Note_off_c, 0, 64, 65
1, 726928, Note_on_c, 0, 67, 58
1, 726986, Note_off_c, 0, 67, 52
1, 727005, Note_on_c, 0, 64, 56
1, 727096, Note_on_c, 0, 65, 70
1, 727103, Control_c, 0, 64, 42
1, 727107, Note_on_c, 0, 53, 104
1, 727118, Control_c, 0, 64, 63
1, 727119, Note_off_c, 0, 64, 57
1, 727127, Note_off_c, 0, 53, 72
1, 727133, Control_c, 0, 64, 74
1, 727147, Control_c, 0, 64, 118
1, 727158, Note_off_c, 0, 65, 61
1, 727162, Control_c, 0, 64, 127
1, 727181, Note_on_c, 0, 72, 71
1, 727269, Note_off_c, 0, 72, 58
1, 727280, Note_on_c, 0, 68, 65
1, 727356, Control_c, 0, 64, 95
1, 727358, Note_on_c, 0, 80, 87
1, 727359, Note_on_c, 0, 84, 85
1, 727361, Note_on_c, 0, 67, 69
1, 727369, Note_off_c, 0, 68, 60
1, 727370, Control_c, 0, 64, 64
1, 727385, Control_c, 0, 64, 0
1, 727396, Note_off_c, 0, 80, 62
1, 727414, Note_off_c, 0, 84, 61
1, 727426, Note_off_c, 0, 67, 60
1, 727436, Note_on_c, 0, 79, 87
1, 727446, Note_on_c, 0, 70, 74
1, 727488, Note_off_c, 0, 79, 54
1, 727503, Note_off_c, 0, 70, 64
1, 727506, Note_on_c, 0, 80, 76
1, 727511, Note_on_c, 0, 84, 66
1, 727528, Note_off_c, 0, 80, 71
1, 727539, Note_off_c, 0, 84, 67
1, 727541, Note_on_c, 0, 67, 55
1, 727590, Note_on_c, 0, 80, 87
1, 727590, Note_off_c, 0, 67, 62
1, 727592, Note_on_c, 0, 77, 95
1, 727593, Note_on_c, 0, 84, 87
1, 727596, Note_on_c, 0, 65, 72
1, 727615, Control_c, 0, 64, 38
1, 727629, Note_off_c, 0, 77, 61
1, 727630, Control_c, 0, 64, 61
1, 727643, Note_off_c, 0, 80, 64
1, 727643, Note_off_c, 0, 84, 63
1, 727644, Control_c, 0, 64, 72
1, 727658, Note_off_c, 0, 65, 59
1, 727659, Control_c, 0, 64, 88
1, 727674, Control_c, 0, 64, 127
1, 727681, Note_on_c, 0, 72, 70
1, 727757, Note_off_c, 0, 72, 63
1, 727763, Note_on_c, 0, 68, 65
1, 727807, Control_c, 0, 64, 108
1, 727822, Control_c, 0, 64, 77
1, 727831, Note_on_c, 0, 89, 87
1, 727834, Note_on_c, 0, 84, 82
1, 727837, Control_c, 0, 64, 55
1, 727842, Note_on_c, 0, 67, 68
1, 727846, Note_off_c, 0, 68, 61
1, 727852, Control_c, 0, 64, 0
1, 727858, Note_off_c, 0, 84, 67
1, 727874, Note_off_c, 0, 89, 61
1, 727890, Note_off_c, 0, 67, 58
1, 727906, Note_on_c, 0, 82, 89
1, 727920, Note_on_c, 0, 70, 74
1, 727941, Note_off_c, 0, 82, 64
1, 727959, Note_off_c, 0, 70, 65
1, 727991, Note_on_c, 0, 84, 75
1, 727998, Note_on_c, 0, 89, 50
1, 728001, Note_on_c, 0, 67, 60
1, 728013, Note_off_c, 0, 84, 70
1, 728042, Note_off_c, 0, 89, 0
1, 728049, Note_on_c, 0, 89, 73
1, 728058, Note_off_c, 0, 67, 60
1, 728060, Note_on_c, 0, 80, 87
1, 728062, Note_on_c, 0, 65, 73
1, 728065, Note_on_c, 0, 84, 75
1, 728080, Note_off_c, 0, 84, 68
1, 728087, Note_off_c, 0, 89, 66
1, 728088, Control_c, 0, 64, 39
1, 728103, Control_c, 0, 64, 57
1, 728107, Note_off_c, 0, 80, 64
1, 728114, Note_off_c, 0, 65, 59
1, 728119, Control_c, 0, 64, 68
1, 728134, Control_c, 0, 64, 80
1, 728149, Control_c, 0, 64, 109
1, 728151, Note_on_c, 0, 72, 68
1, 728164, Control_c, 0, 64, 127
1, 728216, Note_off_c, 0, 72, 62
1, 728227, Note_on_c, 0, 68, 67
1, 728282, Control_c, 0, 64, 95
1, 728297, Note_on_c, 0, 76, 88
1, 728297, Control_c, 0, 64, 70
1, 728303, Note_on_c, 0, 67, 67
1, 728312, Note_off_c, 0, 68, 59
1, 728319, Control_c, 0, 64, 41
1, 728334, Control_c, 0, 64, 0
1, 728344, Note_off_c, 0, 76, 63
1, 728354, Note_off_c, 0, 67, 60
1, 728395, Note_on_c, 0, 70, 71
1, 728451, Note_off_c, 0, 70, 63
1, 728473, Note_on_c, 0, 67, 58
1, 728533, Note_off_c, 0, 67, 61
1, 728535, Note_on_c, 0, 84, 99
1, 728546, Note_on_c, 0, 65, 68
1, 728556, Control_c, 0, 64, 21
1, 728570, Note_off_c, 0, 84, 66
1, 728571, Control_c, 0, 64, 43
1, 728585, Control_c, 0, 64, 60
1, 728600, Control_c, 0, 64, 71
1, 728615, Control_c, 0, 64, 91
1, 728616, Note_on_c, 0, 72, 70
1, 728624, Note_off_c, 0, 65, 39
1, 728630, Control_c, 0, 64, 127
1, 728695, Note_off_c, 0, 72, 43
1, 728709, Note_on_c, 0, 68, 63
1, 728769, Note_on_c, 0, 55, 71
1, 728786, Note_on_c, 0, 67, 68
1, 728789, Note_off_c, 0, 68, 60
1, 728823, Control_c, 0, 64, 88
1, 728829, Note_on_c, 0, 56, 78
1, 728830, Note_off_c, 0, 55, 63
1, 728837, Control_c, 0, 64, 69
1, 728852, Control_c, 0, 64, 52
1, 728853, Note_off_c, 0, 67, 61
1, 728867, Note_on_c, 0, 58, 73
1, 728867, Control_c, 0, 64, 0
1, 728881, Note_on_c, 0, 70, 64
1, 728909, Note_off_c, 0, 56, 63
1, 728925, Note_off_c, 0, 70, 59
1, 728938, Note_on_c, 0, 53, 74
1, 728940, Note_off_c, 0, 58, 64
1, 728958, Note_on_c, 0, 67, 46
1, 728967, Note_off_c, 0, 53, 69
1, 728982, Note_on_c, 0, 60, 90
1, 729005, Note_off_c, 0, 60, 69
1, 729010, Note_off_c, 0, 67, 59
1, 729014, Note_on_c, 0, 65, 62
1, 729068, Note_off_c, 0, 65, 62
1, 729111, Note_on_c, 0, 72, 62
1, 729159, Note_on_c, 0, 89, 91
1, 729181, Note_off_c, 0, 72, 58
1, 729182, Note_on_c, 0, 68, 59
1, 729213, Note_off_c, 0, 89, 63
1, 729225, Note_on_c, 0, 84, 78
1, 729245, Note_off_c, 0, 84, 72
1, 729248, Note_on_c, 0, 67, 62
1, 729267, Note_off_c, 0, 68, 61
1, 729302, Note_off_c, 0, 67, 59
1, 729324, Note_on_c, 0, 70, 64
1, 729369, Note_on_c, 0, 77, 80
1, 729390, Note_off_c, 0, 70, 62
1, 729397, Note_on_c, 0, 69, 70
1, 729417, Note_off_c, 0, 77, 58
1, 729446, Note_on_c, 0, 82, 84
1, 729460, Note_on_c, 0, 70, 59
1, 729462, Note_off_c, 0, 69, 63
1, 729476, Note_off_c, 0, 82, 61
1, 729502, Note_off_c, 0, 70, 65
1, 729535, Note_on_c, 0, 74, 63
1, 729599, Note_on_c, 0, 81, 73
1, 729603, Note_off_c, 0, 74, 61
1, 729619, Note_on_c, 0, 70, 59
1, 729661, Note_off_c, 0, 70, 63
1, 729664, Note_on_c, 0, 82, 82
1, 729666, Note_off_c, 0, 81, 65
1, 729670, Note_on_c, 0, 66, 64
1, 729685, Note_off_c, 0, 82, 71
1, 729703, Note_off_c, 0, 66, 66
1, 729759, Note_on_c, 0, 65, 60
1, 729810, Note_off_c, 0, 65, 64
1, 729820, Note_on_c, 0, 86, 81
1, 729828, Note_on_c, 0, 62, 55
1, 729870, Note_off_c, 0, 62, 62
1, 729870, Note_off_c, 0, 86, 66
1, 729885, Note_on_c, 0, 89, 84
1, 729903, Note_on_c, 0, 63, 74
1, 729912, Note_off_c, 0, 89, 64
1, 729966, Note_off_c, 0, 63, 60
1, 729968, Note_on_c, 0, 62, 62
1, 730048, Note_off_c, 0, 62, 62
1, 730054, Note_on_c, 0, 61, 61
1, 730055, Note_on_c, 0, 88, 77
1, 730093, Note_off_c, 0, 61, 63
1, 730098, Note_off_c, 0, 88, 64
1, 730113, Note_on_c, 0, 91, 75
1, 730114, Note_on_c, 0, 60, 72
1, 730137, Note_off_c, 0, 91, 69
1, 730183, Note_off_c, 0, 60, 60
1, 730218, Note_on_c, 0, 59, 56
1, 730266, Note_off_c, 0, 59, 62
1, 730272, Note_on_c, 0, 92, 73
1, 730277, Note_on_c, 0, 58, 60
1, 730303, Note_off_c, 0, 92, 66
1, 730313, Note_off_c, 0, 58, 63
1, 730332, Note_on_c, 0, 93, 83
1, 730353, Note_on_c, 0, 57, 63
1, 730532, Note_off_c, 0, 93, 57
1, 730536, Note_on_c, 0, 52, 38
1, 730541, Note_on_c, 0, 97, 61
1, 730562, Note_off_c, 0, 57, 42
1, 730600, Note_off_c, 0, 52, 61
1, 730611, Note_on_c, 0, 100, 73
1, 730612, Note_off_c, 0, 97, 63
1, 730621, Note_on_c, 0, 105, 87
1, 730623, Note_on_c, 0, 104, 80
1, 730625, Control_c, 0, 64, 31
1, 730626, Note_on_c, 0, 49, 44
1, 730640, Note_off_c, 0, 100, 69
1, 730640, Control_c, 0, 64, 45
1, 730651, Note_off_c, 0, 104, 68
1, 730652, Note_on_c, 0, 45, 55
1, 730652, Note_off_c, 0, 105, 64
1, 730655, Control_c, 0, 64, 53
1, 730669, Control_c, 0, 64, 59
1, 730684, Control_c, 0, 64, 67
1, 730699, Control_c, 0, 64, 77
1, 730714, Control_c, 0, 64, 104
1, 730728, Control_c, 0, 64, 127
1, 730892, Control_c, 0, 64, 93
1, 730894, Note_off_c, 0, 45, 61
1, 730901, Note_on_c, 0, 81, 97
1, 730904, Note_on_c, 0, 78, 102
1, 730906, Control_c, 0, 64, 64
1, 730913, Note_off_c, 0, 49, 46
1, 730921, Note_on_c, 0, 80, 58
1, 730921, Control_c, 0, 64, 0
1, 730942, Note_off_c, 0, 80, 60
1, 730970, Note_off_c, 0, 81, 62
1, 730985, Note_on_c, 0, 74, 88
1, 731000, Note_off_c, 0, 78, 61
1, 731052, Note_on_c, 0, 78, 75
1, 731055, Note_on_c, 0, 81, 76
1, 731063, Note_off_c, 0, 74, 62
1, 731080, Note_off_c, 0, 81, 69
1, 731089, Note_off_c, 0, 78, 66
1, 731138, Note_on_c, 0, 74, 90
1, 731147, Note_on_c, 0, 81, 65
1, 731149, Note_on_c, 0, 78, 50
1, 731163, Note_off_c, 0, 74, 63
1, 731170, Note_off_c, 0, 81, 66
1, 731171, Note_off_c, 0, 78, 56
1, 731226, Note_on_c, 0, 72, 73
1, 731258, Note_off_c, 0, 72, 63
1, 731297, Note_on_c, 0, 74, 82
1, 731297, Note_on_c, 0, 81, 70
1, 731330, Note_off_c, 0, 81, 70
1, 731331, Note_off_c, 0, 74, 64
1, 731376, Note_on_c, 0, 74, 80
1, 731383, Note_on_c, 0, 81, 73
1, 731389, Note_on_c, 0, 78, 59
1, 731390, Note_off_c, 0, 78, 127
1, 731397, Poly_aftertouch_c, 0, 77, 0
1, 731404, Note_off_c, 0, 74, 64
1, 731405, Note_off_c, 0, 81, 70
1, 731473, Note_on_c, 0, 72, 68
1, 731501, Note_off_c, 0, 72, 65
1, 731530, Note_on_c, 0, 71, 74
1, 731534, Note_on_c, 0, 79, 70
1, 731544, Note_on_c, 0, 76, 49
1, 731552, Note_off_c, 0, 71, 69
1, 731562, Note_off_c, 0, 79, 68
1, 731566, Note_off_c, 0, 76, 38
1, 731603, Note_on_c, 0, 79, 80
1, 731606, Note_on_c, 0, 71, 81
1, 731613, Note_on_c, 0, 76, 64
1, 731623, Note_off_c, 0, 79, 72
1, 731629, Note_off_c, 0, 71, 69
1, 731631, Note_off_c, 0, 76, 65
1, 731691, Note_on_c, 0, 72, 69
1, 731723, Note_off_c, 0, 72, 65
1, 731751, Note_on_c, 0, 78, 70
1, 731755, Note_on_c, 0, 69, 65
1, 731757, Note_on_c, 0, 74, 56
1, 731770, Note_off_c, 0, 78, 65
1, 731773, Note_off_c, 0, 69, 65
1, 731776, Note_off_c, 0, 74, 61
1, 731819, Note_on_c, 0, 78, 86
1, 731832, Note_on_c, 0, 69, 67
1, 731832, Note_on_c, 0, 74, 63
1, 731852, Note_off_c, 0, 74, 64
1, 731855, Note_off_c, 0, 78, 60
1, 731861, Note_off_c, 0, 69, 66
1, 731917, Note_on_c, 0, 72, 63
1, 731947, Note_off_c, 0, 72, 66
1, 731969, Note_on_c, 0, 67, 69
1, 731978, Note_on_c, 0, 71, 44
1, 731981, Note_on_c, 0, 76, 50
1, 731997, Note_off_c, 0, 67, 68
1, 732001, Note_off_c, 0, 71, 54
1, 732004, Note_off_c, 0, 76, 38
1, 732038, Note_on_c, 0, 76, 71
1, 732043, Note_on_c, 0, 71, 71
1, 732045, Note_on_c, 0, 67, 67
1, 732079, Note_off_c, 0, 76, 62
1, 732081, Note_off_c, 0, 67, 66
1, 732085, Note_off_c, 0, 71, 59
1, 732135, Note_on_c, 0, 72, 69
1, 732160, Note_off_c, 0, 72, 68
1, 732204, Note_on_c, 0, 66, 73
1, 732210, Note_on_c, 0, 69, 62
1, 732210, Note_on_c, 0, 74, 70
1, 732228, Note_off_c, 0, 66, 68
1, 732228, Note_off_c, 0, 69, 63
1, 732237, Note_off_c, 0, 74, 64
1, 732276, Note_on_c, 0, 66, 79
1, 732280, Note_on_c, 0, 74, 77
1, 732294, Note_on_c, 0, 69, 63
1, 732298, Note_off_c, 0, 66, 68
1, 732322, Note_off_c, 0, 74, 62
1, 732325, Note_off_c, 0, 69, 66
1, 732370, Note_on_c, 0, 72, 68
1, 732409, Note_off_c, 0, 72, 63
1, 732432, Note_on_c, 0, 71, 63
1, 732434, Note_on_c, 0, 67, 70
1, 732438, Note_on_c, 0, 76, 63
1, 732448, Note_off_c, 0, 71, 65
1, 732456, Note_off_c, 0, 76, 64
1, 732460, Note_off_c, 0, 67, 69
1, 732506, Note_on_c, 0, 71, 80
1, 732509, Note_on_c, 0, 67, 69
1, 732510, Note_on_c, 0, 76, 74
1, 732544, Note_off_c, 0, 76, 62
1, 732550, Note_off_c, 0, 71, 49
1, 732556, Note_off_c, 0, 67, 58
1, 732591, Note_on_c, 0, 72, 71
1, 732617, Note_off_c, 0, 72, 69
1, 732652, Note_on_c, 0, 69, 84
1, 732666, Note_on_c, 0, 78, 68
1, 732678, Note_off_c, 0, 69, 66
1, 732711, Note_on_c, 0, 72, 84
1, 732743, Note_off_c, 0, 78, 63
1, 732755, Note_off_c, 0, 72, 60
1, 732782, Note_on_c, 0, 68, 87
1, 732836, Note_off_c, 0, 68, 62
1, 732860, Note_on_c, 0, 72, 88
1, 732860, Note_on_c, 0, 78, 68
1, 732899, Note_off_c, 0, 78, 66
1, 732902, Note_off_c, 0, 72, 65
1, 732928, Note_on_c, 0, 78, 76
1, 732936, Note_on_c, 0, 68, 82
1, 732942, Note_on_c, 0, 72, 64
1, 732955, Note_off_c, 0, 68, 68
1, 732969, Note_off_c, 0, 72, 67
1, 732976, Note_off_c, 0, 78, 63
1, 733033, Note_on_c, 0, 59, 67
1, 733065, Note_off_c, 0, 59, 65
1, 733086, Note_on_c, 0, 68, 55
1, 733094, Note_on_c, 0, 72, 62
1, 733097, Note_on_c, 0, 78, 69
1, 733116, Note_off_c, 0, 72, 65
1, 733118, Note_off_c, 0, 68, 63
1, 733119, Note_off_c, 0, 78, 64
1, 733162, Note_on_c, 0, 68, 75
1, 733168, Note_on_c, 0, 78, 75
1, 733182, Note_on_c, 0, 72, 64
1, 733194, Note_off_c, 0, 78, 69
1, 733195, Note_off_c, 0, 68, 57
1, 733199, Note_off_c, 0, 72, 66
1, 733268, Note_on_c, 0, 59, 63
1, 733299, Note_off_c, 0, 59, 64
1, 733318, Note_on_c, 0, 71, 70
1, 733319, Note_on_c, 0, 67, 71
1, 733325, Note_on_c, 0, 76, 61
1, 733343, Note_off_c, 0, 71, 67
1, 733344, Note_off_c, 0, 67, 68
1, 733351, Note_off_c, 0, 76, 64
1, 733397, Note_on_c, 0, 71, 82
1, 733401, Note_on_c, 0, 76, 75
1, 733402, Note_on_c, 0, 67, 76
1, 733427, Note_off_c, 0, 67, 68
1, 733428, Note_off_c, 0, 76, 68
1, 733436, Note_off_c, 0, 71, 62
1, 733495, Note_on_c, 0, 59, 65
1, 733530, Note_off_c, 0, 59, 65
1, 733571, Note_on_c, 0, 66, 74
1, 733575, Note_on_c, 0, 70, 65
1, 733576, Note_on_c, 0, 74, 66
1, 733591, Note_off_c, 0, 74, 65
1, 733593, Note_off_c, 0, 70, 64
1, 733594, Note_off_c, 0, 66, 68
1, 733641, Note_on_c, 0, 66, 77
1, 733645, Note_on_c, 0, 74, 79
1, 733654, Note_on_c, 0, 70, 73
1, 733669, Note_off_c, 0, 74, 64
1, 733673, Note_off_c, 0, 66, 56
1, 733676, Note_off_c, 0, 70, 71
1, 733743, Note_on_c, 0, 59, 61
1, 733773, Note_off_c, 0, 59, 65
1, 733799, Note_on_c, 0, 72, 71
1, 733801, Note_on_c, 0, 65, 68
1, 733801, Note_on_c, 0, 69, 64
1, 733823, Note_off_c, 0, 72, 68
1, 733826, Note_off_c, 0, 69, 64
1, 733828, Note_off_c, 0, 65, 66
1, 733867, Note_on_c, 0, 72, 83
1, 733876, Note_on_c, 0, 65, 76
1, 733882, Note_on_c, 0, 69, 78
1, 733901, Note_off_c, 0, 65, 68
1, 733902, Note_off_c, 0, 72, 57
1, 733903, Note_off_c, 0, 69, 71
1, 733966, Note_on_c, 0, 59, 67
1, 733999, Note_off_c, 0, 59, 63
1, 734028, Note_on_c, 0, 70, 71
1, 734034, Note_on_c, 0, 64, 68
1, 734042, Note_on_c, 0, 68, 46
1, 734052, Note_off_c, 0, 70, 69
1, 734064, Note_off_c, 0, 64, 64
1, 734067, Note_off_c, 0, 68, 56
1, 734104, Note_on_c, 0, 70, 82
1, 734118, Note_on_c, 0, 68, 63
1, 734121, Note_on_c, 0, 64, 63
1, 734139, Note_off_c, 0, 64, 66
1, 734149, Note_off_c, 0, 68, 65
1, 734151, Note_off_c, 0, 70, 61
1, 734202, Note_on_c, 0, 59, 60
1, 734232, Note_off_c, 0, 59, 65
1, 734252, Note_on_c, 0, 63, 83
1, 734261, Note_on_c, 0, 71, 72
1, 734273, Note_off_c, 0, 63, 69
1, 734285, Note_off_c, 0, 71, 70
1, 734323, Control_c, 0, 64, 49
1, 734326, Note_on_c, 0, 71, 75
1, 734335, Note_on_c, 0, 63, 73
1, 734338, Control_c, 0, 64, 67
1, 734353, Control_c, 0, 64, 79
1, 734366, Note_off_c, 0, 63, 64
1, 734368, Control_c, 0, 64, 127
1, 734403, Note_off_c, 0, 71, 52
1, 734440, Note_on_c, 0, 59, 62
1, 734453, Note_on_c, 0, 66, 70
1, 734481, Note_off_c, 0, 66, 67
1, 734507, Note_off_c, 0, 59, 59
1, 734547, Control_c, 0, 64, 109
1, 734559, Note_on_c, 0, 83, 99
1, 734560, Note_on_c, 0, 80, 100
1, 734561, Control_c, 0, 64, 69
1, 734565, Note_on_c, 0, 82, 80
1, 734576, Control_c, 0, 64, 0
1, 734580, Note_off_c, 0, 82, 69
1, 734602, Note_off_c, 0, 80, 63
1, 734633, Note_off_c, 0, 83, 55
1, 734639, Note_on_c, 0, 76, 90
1, 734699, Note_off_c, 0, 76, 0
1, 734708, Note_on_c, 0, 80, 80
1, 734708, Note_on_c, 0, 83, 81
1, 734721, Poly_aftertouch_c, 0, 76, 0
1, 734734, Note_off_c, 0, 83, 67
1, 734738, Note_off_c, 0, 80, 66
1, 734791, Note_on_c, 0, 76, 86
1, 734791, Note_on_c, 0, 83, 86
1, 734809, Note_on_c, 0, 80, 50
1, 734817, Note_off_c, 0, 76, 67
1, 734827, Note_off_c, 0, 83, 62
1, 734829, Note_off_c, 0, 80, 60
1, 734882, Note_on_c, 0, 74, 73
1, 734904, Note_off_c, 0, 74, 68
1, 734947, Note_on_c, 0, 83, 88
1, 734953, Note_on_c, 0, 76, 82
1, 734973, Note_off_c, 0, 83, 66
1, 734977, Note_off_c, 0, 76, 70
1, 735019, Note_on_c, 0, 83, 82
1, 735026, Note_on_c, 0, 80, 61
1, 735030, Note_on_c, 0, 76, 80
1, 735040, Note_off_c, 0, 83, 71
1, 735064, Note_off_c, 0, 76, 68
1, 735066, Note_off_c, 0, 80, 66
1, 735115, Note_on_c, 0, 74, 66
1, 735139, Note_off_c, 0, 74, 67
1, 735187, Note_on_c, 0, 73, 79
1, 735190, Note_on_c, 0, 81, 73
1, 735209, Note_off_c, 0, 73, 65
1, 735216, Note_off_c, 0, 81, 70
1, 735251, Note_on_c, 0, 73, 87
1, 735252, Note_on_c, 0, 81, 80
1, 735278, Poly_aftertouch_c, 0, 78, 127
1, 735284, Note_off_c, 0, 81, 67
1, 735285, Note_off_c, 0, 73, 63
1, 735304, Poly_aftertouch_c, 0, 78, 0
1, 735340, Note_on_c, 0, 74, 68
1, 735368, Note_off_c, 0, 74, 68
1, 735408, Note_on_c, 0, 75, 51
1, 735409, Note_on_c, 0, 80, 66
1, 735410, Note_on_c, 0, 71, 69
1, 735429, Note_off_c, 0, 75, 44
1, 735432, Note_off_c, 0, 80, 63
1, 735438, Note_off_c, 0, 71, 65
1, 735474, Note_on_c, 0, 76, 52
1, 735477, Note_on_c, 0, 80, 88
1, 735483, Note_on_c, 0, 71, 79
1, 735507, Note_off_c, 0, 80, 65
1, 735507, Note_off_c, 0, 71, 68
1, 735510, Note_off_c, 0, 76, 65
1, 735570, Note_on_c, 0, 74, 61
1, 735601, Note_off_c, 0, 74, 66
1, 735629, Note_on_c, 0, 69, 73
1, 735632, Note_on_c, 0, 78, 68
1, 735641, Note_on_c, 0, 73, 49
1, 735648, Note_off_c, 0, 78, 66
1, 735653, Note_off_c, 0, 69, 70
1, 735666, Note_off_c, 0, 73, 53
1, 735700, Note_on_c, 0, 78, 87
1, 735705, Note_on_c, 0, 69, 77
1, 735729, Note_on_c, 0, 73, 50
1, 735729, Note_off_c, 0, 69, 68
1, 735731, Note_off_c, 0, 78, 64
1, 735754, Note_off_c, 0, 73, 55
1, 735782, Note_on_c, 0, 74, 67
1, 735827, Note_off_c, 0, 74, 66
1, 735865, Note_on_c, 0, 68, 70
1, 735870, Note_on_c, 0, 76, 61
1, 735889, Note_off_c, 0, 76, 63
1, 735894, Note_off_c, 0, 68, 67
1, 735927, Note_on_c, 0, 68, 81
1, 735938, Note_on_c, 0, 76, 71
1, 735945, Poly_aftertouch_c, 0, 71, 127
1, 735966, Note_off_c, 0, 68, 56
1, 735966, Note_off_c, 0, 76, 67
1, 735971, Poly_aftertouch_c, 0, 71, 0
1, 736029, Note_on_c, 0, 74, 61
1, 736061, Note_off_c, 0, 74, 66
1, 736082, Note_on_c, 0, 69, 71
1, 736085, Note_on_c, 0, 73, 59
1, 736088, Note_on_c, 0, 78, 60
1, 736106, Note_off_c, 0, 73, 62
1, 736109, Note_off_c, 0, 69, 69
1, 736109, Note_off_c, 0, 78, 41
1, 736147, Note_on_c, 0, 78, 85
1, 736157, Note_on_c, 0, 69, 74
1, 736168, Note_on_c, 0, 73, 63
1, 736182, Note_off_c, 0, 69, 70
1, 736192, Note_off_c, 0, 73, 65
1, 736202, Note_off_c, 0, 78, 62
1, 736230, Note_on_c, 0, 74, 69
1, 736265, Note_off_c, 0, 74, 66
1, 736294, Note_on_c, 0, 71, 77
1, 736322, Note_off_c, 0, 71, 62
1, 736338, Note_on_c, 0, 80, 59
1, 736354, Note_on_c, 0, 74, 88
1, 736394, Note_off_c, 0, 80, 64
1, 736406, Note_off_c, 0, 74, 45
1, 736422, Note_on_c, 0, 70, 85
1, 736477, Note_off_c, 0, 70, 61
1, 736497, Note_on_c, 0, 74, 81
1, 736498, Note_on_c, 0, 80, 74
1, 736520, Note_off_c, 0, 74, 69
1, 736522, Note_off_c, 0, 80, 70
1, 736575, Note_on_c, 0, 80, 86
1, 736579, Note_on_c, 0, 70, 84
1, 736589, Note_on_c, 0, 74, 69
1, 736615, Note_off_c, 0, 70, 63
1, 736615, Note_off_c, 0, 74, 66
1, 736615, Note_off_c, 0, 80, 60
1, 736673, Note_on_c, 0, 61, 69
1, 736702, Note_off_c, 0, 61, 67
1, 736744, Note_on_c, 0, 70, 75
1, 736744, Note_on_c, 0, 74, 54
1, 736750, Note_on_c, 0, 80, 65
1, 736767, Note_off_c, 0, 70, 69
1, 736768, Note_off_c, 0, 80, 65
1, 736771, Note_off_c, 0, 74, 63
1, 736819, Note_on_c, 0, 80, 76
1, 736822, Note_on_c, 0, 70, 74
1, 736834, Note_on_c, 0, 74, 64
1, 736847, Note_off_c, 0, 80, 63
1, 736850, Note_off_c, 0, 70, 64
1, 736861, Note_off_c, 0, 74, 63
1, 736921, Note_on_c, 0, 61, 67
1, 736947, Note_off_c, 0, 61, 66
1, 736975, Note_on_c, 0, 78, 69
1, 736976, Note_on_c, 0, 69, 73
1, 736979, Note_on_c, 0, 73, 59
1, 736999, Note_off_c, 0, 73, 64
1, 737001, Note_off_c, 0, 69, 70
1, 737005, Note_off_c, 0, 78, 67
1, 737054, Note_on_c, 0, 69, 81
1, 737054, Note_on_c, 0, 78, 82
1, 737066, Note_on_c, 0, 73, 70
1, 737086, Note_off_c, 0, 69, 60
1, 737088, Note_off_c, 0, 78, 61
1, 737091, Note_off_c, 0, 73, 69
1, 737138, Note_on_c, 0, 61, 69
1, 737175, Note_off_c, 0, 61, 64
1, 737218, Note_on_c, 0, 76, 74
1, 737219, Note_on_c, 0, 68, 72
1, 737227, Note_on_c, 0, 72, 54
1, 737243, Note_off_c, 0, 76, 68
1, 737245, Note_off_c, 0, 68, 68
1, 737249, Note_off_c, 0, 72, 60
1, 737282, Note_on_c, 0, 76, 91
1, 737298, Note_on_c, 0, 68, 80
1, 737316, Note_on_c, 0, 72, 63
1, 737334, Note_off_c, 0, 72, 66
1, 737338, Note_off_c, 0, 76, 62
1, 737341, Note_off_c, 0, 68, 56
1, 737394, Note_on_c, 0, 61, 66
1, 737427, Note_off_c, 0, 61, 65
1, 737458, Note_on_c, 0, 71, 65
1, 737459, Note_on_c, 0, 67, 71
1, 737459, Note_on_c, 0, 74, 67
1, 737478, Note_off_c, 0, 74, 65
1, 737484, Note_off_c, 0, 67, 68
1, 737486, Note_off_c, 0, 71, 65
1, 737531, Note_on_c, 0, 67, 82
1, 737536, Note_on_c, 0, 74, 71
1, 737537, Note_on_c, 0, 71, 83
1, 737564, Note_off_c, 0, 71, 64
1, 737565, Note_on_c, 0, 72, 39
1, 737566, Note_off_c, 0, 72, 127
1, 737567, Note_off_c, 0, 67, 61
1, 737570, Note_off_c, 0, 74, 62
1, 737627, Note_on_c, 0, 61, 66
1, 737660, Note_off_c, 0, 61, 66
1, 737690, Note_on_c, 0, 72, 76
1, 737695, Note_on_c, 0, 66, 77
1, 737713, Note_off_c, 0, 72, 70
1, 737719, Note_off_c, 0, 66, 68
1, 737720, Note_on_c, 0, 70, 33
1, 737760, Note_on_c, 0, 72, 90
1, 737763, Note_on_c, 0, 66, 84
1, 737777, Note_off_c, 0, 70, 28
1, 737812, Note_off_c, 0, 66, 58
1, 737812, Note_off_c, 0, 72, 64
1, 737859, Note_on_c, 0, 61, 68
1, 737889, Note_off_c, 0, 61, 66
1, 737912, Note_on_c, 0, 65, 83
1, 737915, Note_on_c, 0, 73, 77
1, 737938, Note_off_c, 0, 73, 69
1, 737940, Note_off_c, 0, 65, 64
1, 737971, Control_c, 0, 64, 42
1, 737981, Note_on_c, 0, 73, 83
1, 737985, Note_on_c, 0, 65, 74
1, 737986, Control_c, 0, 64, 59
1, 738001, Control_c, 0, 64, 69
1, 738016, Control_c, 0, 64, 93
1, 738031, Control_c, 0, 64, 127
1, 738053, Note_off_c, 0, 73, 62
1, 738055, Note_off_c, 0, 65, 60
1, 738106, Note_on_c, 0, 61, 76
1, 738130, Note_off_c, 0, 61, 67
1, 738152, Note_on_c, 0, 68, 87
1, 738175, Note_off_c, 0, 68, 66
1, 738260, Control_c, 0, 64, 98
1, 738265, Note_on_c, 0, 50, 100
1, 738273, Note_on_c, 0, 58, 103
1, 738275, Control_c, 0, 64, 60
1, 738290, Control_c, 0, 64, 0
1, 738309, Note_off_c, 0, 58, 66
1, 738312, Note_off_c, 0, 50, 64
1, 738410, Note_on_c, 0, 57, 90
1, 738426, Note_on_c, 0, 67, 73
1, 738428, Note_on_c, 0, 69, 74
1, 738449, Note_off_c, 0, 67, 70
1, 738452, Note_off_c, 0, 57, 65
1, 738453, Note_off_c, 0, 69, 68
1, 738535, Note_on_c, 0, 46, 91
1, 738546, Note_on_c, 0, 62, 97
1, 738577, Note_off_c, 0, 62, 67
1, 738592, Note_on_c, 0, 60, 9
1, 738593, Note_off_c, 0, 60, 127
1, 738593, Note_off_c, 0, 46, 61
1, 738673, Note_on_c, 0, 56, 88
1, 738727, Note_off_c, 0, 56, 65
1, 738814, Note_on_c, 0, 50, 88
1, 738869, Note_off_c, 0, 50, 63
1, 738939, Note_on_c, 0, 69, 101
1, 738950, Note_on_c, 0, 57, 77
1, 738976, Note_off_c, 0, 69, 66
1, 739001, Note_off_c, 0, 57, 62
1, 739066, Note_on_c, 0, 46, 75
1, 739070, Note_on_c, 0, 62, 95
1, 739106, Note_off_c, 0, 62, 67
1, 739131, Note_off_c, 0, 46, 64
1, 739185, Note_on_c, 0, 68, 86
1, 739195, Note_on_c, 0, 56, 70
1, 739205, Note_off_c, 0, 68, 71
1, 739226, Note_off_c, 0, 56, 66
1, 739314, Note_on_c, 0, 46, 111
1, 739317, Note_on_c, 0, 38, 87
1, 739341, Note_on_c, 0, 51, 52
1, 739353, Note_off_c, 0, 38, 62
1, 739359, Note_off_c, 0, 46, 62
1, 739370, Note_off_c, 0, 51, 36
1, 739443, Note_on_c, 0, 57, 90
1, 739449, Note_on_c, 0, 45, 79
1, 739488, Note_off_c, 0, 57, 67
1, 739490, Note_off_c, 0, 45, 62
1, 739571, Note_on_c, 0, 34, 87
1, 739580, Note_on_c, 0, 50, 94
1, 739600, Note_off_c, 0, 50, 72
1, 739633, Note_off_c, 0, 34, 62
1, 739702, Note_on_c, 0, 44, 83
1, 739730, Note_off_c, 0, 44, 67
1, 739750, Note_on_c, 0, 45, 30
1, 739751, Note_off_c, 0, 45, 127
1, 739833, Note_on_c, 0, 38, 78
1, 739894, Note_off_c, 0, 38, 60
1, 739955, Note_on_c, 0, 57, 83
1, 739964, Note_on_c, 0, 45, 70
1, 739991, Note_off_c, 0, 57, 66
1, 740019, Note_off_c, 0, 45, 60
1, 740076, Note_on_c, 0, 34, 68
1, 740086, Note_on_c, 0, 50, 74
1, 740115, Note_off_c, 0, 50, 65
1, 740134, Note_off_c, 0, 34, 61
1, 740203, Note_on_c, 0, 44, 66
1, 740206, Note_on_c, 0, 56, 67
1, 740231, Note_off_c, 0, 44, 66
1, 740239, Note_off_c, 0, 56, 65
1, 740331, Note_on_c, 0, 50, 86
1, 740373, Note_off_c, 0, 50, 63
1, 740457, Note_on_c, 0, 57, 82
1, 740462, Note_on_c, 0, 69, 84
1, 740465, Note_on_c, 0, 62, 80
1, 740481, Note_off_c, 0, 69, 72
1, 740491, Note_off_c, 0, 62, 67
1, 740496, Note_off_c, 0, 57, 64
1, 740579, Note_on_c, 0, 46, 71
1, 740618, Note_off_c, 0, 46, 64
1, 740709, Note_on_c, 0, 55, 72
1, 740711, Note_on_c, 0, 60, 73
1, 740712, Note_on_c, 0, 58, 69
1, 740743, Note_off_c, 0, 55, 67
1, 740745, Note_off_c, 0, 60, 66
1, 740747, Note_off_c, 0, 58, 65
1, 740832, Note_on_c, 0, 50, 64
1, 740865, Note_off_c, 0, 50, 63
1, 740949, Note_on_c, 0, 58, 78
1, 740950, Note_on_c, 0, 69, 70
1, 740959, Note_on_c, 0, 53, 67
1, 740977, Note_off_c, 0, 69, 67
1, 740981, Note_off_c, 0, 58, 66
1, 740995, Note_off_c, 0, 53, 62
1, 741086, Note_on_c, 0, 46, 54
1, 741146, Note_off_c, 0, 46, 62
1, 741195, Note_on_c, 0, 52, 52
1, 741209, Note_on_c, 0, 55, 59
1, 741212, Note_on_c, 0, 57, 58
1, 741219, Note_off_c, 0, 52, 60
1, 741234, Note_off_c, 0, 57, 62
1, 741237, Note_off_c, 0, 55, 63
1, 741330, Note_on_c, 0, 38, 60
1, 741359, Note_off_c, 0, 38, 63
1, 741446, Note_on_c, 0, 45, 61
1, 741456, Note_on_c, 0, 57, 68
1, 741462, Note_on_c, 0, 50, 64
1, 741489, Note_off_c, 0, 45, 65
1, 741489, Note_off_c, 0, 50, 66
1, 741490, Note_off_c, 0, 57, 65
1, 741560, Note_on_c, 0, 34, 61
1, 741622, Note_off_c, 0, 34, 61
1, 741699, Note_on_c, 0, 43, 59
1, 741700, Note_on_c, 0, 46, 57
1, 741705, Note_on_c, 0, 48, 52
1, 741731, Note_off_c, 0, 46, 65
1, 741734, Note_off_c, 0, 48, 62
1, 741735, Note_off_c, 0, 43, 62
1, 741827, Note_on_c, 0, 38, 56
1, 741866, Note_off_c, 0, 38, 62
1, 741931, Note_on_c, 0, 57, 64
1, 741942, Note_on_c, 0, 46, 67
1, 741955, Note_on_c, 0, 41, 60
1, 741964, Note_off_c, 0, 57, 64
1, 741978, Note_off_c, 0, 46, 64
1, 741992, Note_off_c, 0, 41, 62
1, 742081, Note_on_c, 0, 34, 50
1, 742168, Control_c, 0, 64, 25
1, 742183, Control_c, 0, 64, 45
1, 742191, Note_off_c, 0, 34, 60
1, 742197, Note_on_c, 0, 43, 46
1, 742198, Control_c, 0, 64, 56
1, 742208, Note_on_c, 0, 45, 45
1, 742212, Control_c, 0, 64, 65
1, 742227, Note_off_c, 0, 43, 53
1, 742227, Control_c, 0, 64, 81
1, 742232, Note_on_c, 0, 40, 21
1, 742239, Note_off_c, 0, 45, 50
1, 742242, Control_c, 0, 64, 127
1, 742283, Note_off_c, 0, 40, 45
1, 742429, Note_on_c, 0, 50, 57
1, 742430, Note_on_c, 0, 77, 73
1, 742441, Note_on_c, 0, 74, 61
1, 742447, Note_on_c, 0, 65, 60
1, 742450, Control_c, 0, 64, 85
1, 742465, Control_c, 0, 64, 65
1, 742473, Note_off_c, 0, 50, 61
1, 742480, Control_c, 0, 64, 24
1, 742495, Control_c, 0, 64, 0
1, 742579, Note_on_c, 0, 57, 59
1, 742631, Note_off_c, 0, 57, 59
1, 742701, Note_on_c, 0, 46, 58
1, 742735, Note_off_c, 0, 46, 64
1, 742839, Note_on_c, 0, 56, 56
1, 742869, Note_off_c, 0, 56, 65
1, 742961, Note_on_c, 0, 50, 63
1, 742993, Note_off_c, 0, 50, 64
1, 743096, Note_on_c, 0, 57, 53
1, 743120, Note_off_c, 0, 65, 33
1, 743149, Note_off_c, 0, 57, 58
1, 743198, Note_off_c, 0, 74, 60
1, 743213, Note_on_c, 0, 46, 61
1, 743219, Note_on_c, 0, 68, 70
1, 743221, Note_off_c, 0, 77, 49
1, 743226, Note_on_c, 0, 64, 56
1, 743243, Note_off_c, 0, 46, 65
1, 743362, Note_on_c, 0, 56, 58
1, 743365, Note_off_c, 0, 64, 35
1, 743408, Note_off_c, 0, 56, 62
1, 743453, Note_off_c, 0, 68, 62
1, 743484, Note_on_c, 0, 77, 72
1, 743489, Note_on_c, 0, 50, 49
1, 743494, Note_on_c, 0, 65, 61
1, 743511, Note_off_c, 0, 77, 68
1, 743527, Note_off_c, 0, 65, 65
1, 743532, Note_off_c, 0, 50, 60
1, 743604, Note_on_c, 0, 77, 88
1, 743616, Note_on_c, 0, 57, 63
1, 743655, Note_off_c, 0, 77, 61
1, 743658, Note_off_c, 0, 57, 63
1, 743723, Note_on_c, 0, 74, 88
1, 743735, Note_on_c, 0, 46, 55
1, 743749, Note_off_c, 0, 74, 64
1, 743759, Note_off_c, 0, 46, 57
1, 743851, Note_on_c, 0, 67, 79
1, 743859, Note_on_c, 0, 56, 63
1, 743878, Note_off_c, 0, 67, 65
1, 743889, Note_off_c, 0, 56, 66
1, 743966, Note_on_c, 0, 68, 85
1, 743968, Note_on_c, 0, 50, 63
1, 743989, Note_off_c, 0, 68, 68
1, 744009, Note_off_c, 0, 50, 61
1, 744110, Note_on_c, 0, 64, 73
1, 744111, Note_on_c, 0, 57, 59
1, 744134, Note_off_c, 0, 64, 69
1, 744154, Note_off_c, 0, 57, 64
1, 744227, Note_on_c, 0, 46, 63
1, 744260, Note_off_c, 0, 46, 64
1, 744361, Note_on_c, 0, 56, 57
1, 744411, Note_off_c, 0, 56, 61
1, 744470, Note_on_c, 0, 74, 78
1, 744480, Note_on_c, 0, 69, 60
1, 744485, Note_on_c, 0, 50, 51
1, 744496, Note_on_c, 0, 65, 40
1, 744521, Note_off_c, 0, 50, 63
1, 744540, Note_off_c, 0, 69, 0
1, 744558, Note_off_c, 0, 65, 0
1, 744558, Note_on_c, 0, 65, 17
1, 744576, Poly_aftertouch_c, 0, 69, 127
1, 744608, Note_on_c, 0, 57, 60
1, 744658, Note_off_c, 0, 57, 60
1, 744737, Note_on_c, 0, 46, 58
1, 744766, Note_off_c, 0, 46, 63
1, 744868, Note_on_c, 0, 56, 59
1, 744912, Note_off_c, 0, 56, 63
1, 744987, Poly_aftertouch_c, 0, 69, 0
1, 744995, Note_on_c, 0, 50, 67
1, 745005, Note_off_c, 0, 65, 45
1, 745036, Note_off_c, 0, 50, 63
1, 745122, Note_on_c, 0, 57, 61
1, 745171, Note_off_c, 0, 57, 60
1, 745194, Note_off_c, 0, 74, 56
1, 745223, Control_c, 0, 64, 17
1, 745226, Note_on_c, 0, 76, 66
1, 745237, Control_c, 0, 64, 35
1, 745239, Note_on_c, 0, 65, 70
1, 745246, Note_on_c, 0, 46, 58
1, 745249, Note_on_c, 0, 68, 49
1, 745252, Control_c, 0, 64, 46
1, 745258, Note_off_c, 0, 76, 66
1, 745267, Control_c, 0, 64, 53
1, 745273, Note_off_c, 0, 68, 58
1, 745279, Note_off_c, 0, 65, 62
1, 745282, Control_c, 0, 64, 61
1, 745286, Note_off_c, 0, 46, 65
1, 745297, Control_c, 0, 64, 68
1, 745311, Control_c, 0, 64, 79
1, 745326, Control_c, 0, 64, 104
1, 745341, Control_c, 0, 64, 127
1, 745379, Note_on_c, 0, 56, 57
1, 745410, Note_off_c, 0, 56, 65
1, 745474, Control_c, 0, 64, 92
1, 745482, Note_on_c, 0, 69, 76
1, 745488, Note_on_c, 0, 58, 76
1, 745489, Control_c, 0, 64, 65
1, 745491, Note_on_c, 0, 62, 63
1, 745491, Note_on_c, 0, 67, 66
1, 745496, Note_on_c, 0, 45, 47
1, 745503, Control_c, 0, 64, 18
1, 745518, Control_c, 0, 64, 0
1, 745527, Note_off_c, 0, 45, 60
1, 745631, Note_on_c, 0, 57, 67
1, 745664, Note_off_c, 0, 57, 68
1, 745761, Note_on_c, 0, 55, 68
1, 745792, Note_off_c, 0, 55, 65
1, 745884, Note_on_c, 0, 59, 74
1, 745918, Note_off_c, 0, 59, 67
1, 746002, Note_on_c, 0, 53, 85
1, 746008, Note_off_c, 0, 69, 64
1, 746018, Note_off_c, 0, 62, 62
1, 746018, Note_off_c, 0, 58, 63
1, 746024, Note_off_c, 0, 67, 64
1, 746029, Note_off_c, 0, 53, 69
1, 746138, Note_on_c, 0, 60, 68
1, 746168, Note_off_c, 0, 60, 66
1, 746254, Note_on_c, 0, 52, 65
1, 746299, Note_off_c, 0, 52, 65
1, 746388, Note_on_c, 0, 61, 71
1, 746413, Note_off_c, 0, 61, 66
1, 746506, Note_on_c, 0, 50, 69
1, 746546, Note_off_c, 0, 50, 65
1, 746619, Note_on_c, 0, 61, 64
1, 746620, Note_on_c, 0, 64, 68
1, 746630, Note_on_c, 0, 57, 64
1, 746652, Note_off_c, 0, 61, 65
1, 746652, Note_off_c, 0, 64, 65
1, 746662, Note_off_c, 0, 57, 65
1, 746744, Note_on_c, 0, 65, 76
1, 746746, Note_on_c, 0, 62, 70
1, 746752, Note_on_c, 0, 53, 58
1, 746769, Note_off_c, 0, 65, 66
1, 746775, Note_off_c, 0, 62, 66
1, 746788, Note_off_c, 0, 53, 63
1, 746868, Note_on_c, 0, 67, 78
1, 746870, Note_on_c, 0, 64, 75
1, 746873, Note_on_c, 0, 62, 57
1, 746902, Note_off_c, 0, 67, 66
1, 746903, Note_off_c, 0, 64, 60
1, 746924, Note_off_c, 0, 62, 61
1, 746985, Note_on_c, 0, 69, 90
1, 746988, Note_on_c, 0, 65, 84
1, 746993, Note_on_c, 0, 48, 57
1, 747008, Note_off_c, 0, 65, 70
1, 747018, Note_off_c, 0, 69, 66
1, 747039, Note_off_c, 0, 48, 64
1, 747126, Note_on_c, 0, 57, 71
1, 747184, Note_off_c, 0, 57, 62
1, 747248, Note_on_c, 0, 71, 86
1, 747249, Note_on_c, 0, 53, 72
1, 747256, Note_on_c, 0, 67, 66
1, 747274, Note_off_c, 0, 67, 65
1, 747283, Note_off_c, 0, 71, 66
1, 747290, Note_off_c, 0, 53, 59
1, 747377, Note_on_c, 0, 62, 64
1, 747422, Note_off_c, 0, 62, 61
1, 747495, Note_on_c, 0, 72, 77
1, 747501, Note_on_c, 0, 69, 58
1, 747502, Note_on_c, 0, 47, 64
1, 747517, Note_off_c, 0, 72, 70
1, 747520, Note_off_c, 0, 69, 63
1, 747534, Note_off_c, 0, 47, 62
1, 747615, Note_on_c, 0, 57, 70
1, 747679, Note_off_c, 0, 57, 63
1, 747718, Note_on_c, 0, 90, 99
1, 747721, Note_on_c, 0, 81, 95
1, 747727, Note_on_c, 0, 85, 79
1, 747737, Note_on_c, 0, 66, 78
1, 747751, Note_off_c, 0, 85, 68
1, 747753, Note_off_c, 0, 90, 65
1, 747759, Note_off_c, 0, 81, 67
1, 747804, Note_off_c, 0, 66, 61
1, 747861, Note_on_c, 0, 61, 71
1, 747931, Note_off_c, 0, 61, 59
1, 747969, Note_on_c, 0, 76, 93
1, 747970, Note_on_c, 0, 69, 94
1, 747972, Note_on_c, 0, 73, 93
1, 747974, Note_on_c, 0, 64, 91
1, 747995, Control_c, 0, 64, 50
1, 748010, Control_c, 0, 64, 67
1, 748025, Control_c, 0, 64, 96
1, 748040, Control_c, 0, 64, 127
1, 748042, Note_off_c, 0, 64, 63
1, 748089, Note_on_c, 0, 68, 92
1, 748124, Note_off_c, 0, 69, 56
1, 748130, Note_off_c, 0, 68, 65
1, 748170, Note_off_c, 0, 73, 57
1, 748215, Note_on_c, 0, 69, 88
1, 748260, Note_off_c, 0, 76, 62
1, 748268, Note_off_c, 0, 69, 62
1, 748317, Note_on_c, 0, 73, 86
1, 748369, Note_off_c, 0, 73, 65
1, 748434, Note_on_c, 0, 68, 83
1, 748437, Note_on_c, 0, 41, 69
1, 748437, Note_on_c, 0, 76, 79
1, 748440, Control_c, 0, 64, 82
1, 748442, Note_on_c, 0, 72, 69
1, 748454, Control_c, 0, 64, 45
1, 748462, Note_off_c, 0, 68, 62
1, 748468, Note_off_c, 0, 72, 67
1, 748469, Control_c, 0, 64, 0
1, 748473, Note_off_c, 0, 76, 60
1, 748478, Note_off_c, 0, 41, 62
1, 748561, Note_on_c, 0, 48, 62
1, 748562, Note_on_c, 0, 76, 87
1, 748568, Note_on_c, 0, 72, 68
1, 748598, Note_off_c, 0, 76, 65
1, 748600, Note_off_c, 0, 72, 63
1, 748677, Note_on_c, 0, 74, 81
1, 748682, Note_on_c, 0, 77, 76
1, 748684, Note_on_c, 0, 56, 63
1, 748702, Note_off_c, 0, 74, 65
1, 748713, Note_off_c, 0, 77, 64
1, 748729, Note_off_c, 0, 56, 61
1, 748790, Note_on_c, 0, 79, 79
1, 748792, Note_on_c, 0, 76, 78
1, 748809, Note_on_c, 0, 46, 58
1, 748820, Note_off_c, 0, 76, 67
1, 748833, Note_off_c, 0, 79, 64
1, 748841, Note_off_c, 0, 48, 15
1, 748862, Note_off_c, 0, 46, 60
1, 748913, Note_on_c, 0, 79, 82
1, 748917, Note_on_c, 0, 81, 81
1, 748918, Note_on_c, 0, 39, 73
1, 748919, Note_on_c, 0, 69, 81
1, 748924, Note_on_c, 0, 73, 70
1, 748940, Note_off_c, 0, 69, 71
1, 748950, Note_off_c, 0, 73, 69
1, 748952, Note_off_c, 0, 79, 65
1, 748967, Note_off_c, 0, 81, 65
1, 748984, Note_off_c, 0, 39, 63
1, 749035, Note_on_c, 0, 49, 77
1, 749145, Note_off_c, 0, 49, 60
1, 749154, Note_on_c, 0, 57, 100
1, 749154, Note_on_c, 0, 93, 101
1, 749157, Note_on_c, 0, 85, 95
1, 749158, Note_on_c, 0, 81, 93
1, 749159, Note_on_c, 0, 79, 93
1, 749159, Control_c, 0, 64, 61
1, 749174, Control_c, 0, 64, 80
1, 749176, Note_off_c, 0, 93, 64
1, 749186, Note_on_c, 0, 90, 41
1, 749187, Note_off_c, 0, 90, 127
1, 749189, Control_c, 0, 64, 127
1, 749198, Note_off_c, 0, 85, 68
1, 749199, Note_off_c, 0, 81, 63
1, 749205, Note_off_c, 0, 79, 67
1, 749217, Poly_aftertouch_c, 0, 49, 127
1, 749237, Note_off_c, 0, 57, 59
1, 749269, Poly_aftertouch_c, 0, 49, 0
1, 749297, Note_on_c, 0, 45, 74
1, 749355, Note_off_c, 0, 45, 63
1, 749389, Control_c, 0, 64, 90
1, 749403, Control_c, 0, 64, 56
1, 749408, Note_on_c, 0, 38, 100
1, 749412, Note_on_c, 0, 62, 94
1, 749418, Control_c, 0, 64, 0
1, 749435, Note_on_c, 0, 63, 59
1, 749442, Note_on_c, 0, 40, 54
1, 749448, Control_c, 0, 64, 32
1, 749456, Note_off_c, 0, 63, 60
1, 749463, Control_c, 0, 64, 58
1, 749467, Note_off_c, 0, 38, 66
1, 749471, Note_off_c, 0, 40, 58
1, 749477, Note_off_c, 0, 62, 68
1, 749477, Control_c, 0, 64, 74
1, 749492, Control_c, 0, 64, 127
1, 749551, Note_on_c, 0, 57, 88
1, 749594, Note_off_c, 0, 57, 65
1, 749656, Note_on_c, 0, 34, 96
1, 749707, Note_on_c, 0, 36, 29
1, 749758, Note_off_c, 0, 36, 46
1, 749775, Note_on_c, 0, 50, 98
1, 749784, Note_off_c, 0, 34, 62
1, 749812, Note_off_c, 0, 50, 68
1, 749894, Note_on_c, 0, 38, 91
1, 749938, Control_c, 0, 64, 71
1, 749949, Note_off_c, 0, 38, 61
1, 749953, Control_c, 0, 64, 0
1, 750016, Note_on_c, 0, 45, 84
1, 750037, Note_on_c, 0, 57, 91
1, 750081, Note_off_c, 0, 57, 64
1, 750087, Note_off_c, 0, 45, 61
1, 750144, Note_on_c, 0, 34, 80
1, 750153, Note_on_c, 0, 50, 100
1, 750182, Note_off_c, 0, 50, 66
1, 750228, Note_off_c, 0, 34, 62
1, 750269, Note_on_c, 0, 44, 89
1, 750327, Note_off_c, 0, 44, 63
1, 750394, Note_on_c, 0, 38, 82
1, 750471, Note_off_c, 0, 38, 61
1, 750507, Note_on_c, 0, 57, 85
1, 750518, Note_on_c, 0, 45, 73
1, 750541, Note_off_c, 0, 57, 66
1, 750583, Note_off_c, 0, 45, 59
1, 750619, Note_on_c, 0, 34, 72
1, 750626, Note_on_c, 0, 50, 81
1, 750654, Note_off_c, 0, 50, 67
1, 750729, Note_off_c, 0, 34, 61
1, 750746, Note_on_c, 0, 56, 71
1, 750747, Note_on_c, 0, 44, 60
1, 750766, Note_off_c, 0, 56, 62
1, 750782, Note_off_c, 0, 44, 57
1, 750866, Note_on_c, 0, 58, 99
1, 750870, Note_on_c, 0, 50, 91
1, 750881, Note_on_c, 0, 49, 57
1, 750882, Note_off_c, 0, 49, 127
1, 750906, Note_off_c, 0, 58, 67
1, 750929, Note_off_c, 0, 50, 63
1, 750983, Note_on_c, 0, 69, 102
1, 750986, Note_on_c, 0, 57, 83
1, 751026, Note_off_c, 0, 69, 67
1, 751038, Note_off_c, 0, 57, 65
1, 751105, Note_on_c, 0, 46, 88
1, 751107, Note_on_c, 0, 62, 105
1, 751131, Note_on_c, 0, 63, 63
1, 751136, Note_off_c, 0, 62, 69
1, 751149, Note_off_c, 0, 63, 63
1, 751202, Note_off_c, 0, 46, 40
1, 751228, Note_on_c, 0, 56, 93
1, 751280, Note_off_c, 0, 56, 67
1, 751357, Note_on_c, 0, 50, 84
1, 751427, Note_off_c, 0, 50, 62
1, 751480, Note_on_c, 0, 57, 82
1, 751480, Note_on_c, 0, 69, 83
1, 751525, Note_off_c, 0, 69, 65
1, 751544, Note_off_c, 0, 57, 62
1, 751603, Note_on_c, 0, 46, 70
1, 751618, Note_on_c, 0, 62, 80
1, 751649, Note_off_c, 0, 62, 64
1, 751673, Note_off_c, 0, 46, 63
1, 751725, Note_on_c, 0, 56, 67
1, 751730, Note_on_c, 0, 68, 80
1, 751754, Note_off_c, 0, 56, 65
1, 751757, Note_off_c, 0, 68, 65
1, 751846, Note_on_c, 0, 38, 86
1, 751883, Note_off_c, 0, 38, 61
1, 751971, Note_on_c, 0, 50, 81
1, 751974, Note_on_c, 0, 45, 83
1, 751974, Note_on_c, 0, 57, 84
1, 751995, Note_off_c, 0, 50, 68
1, 752001, Note_off_c, 0, 57, 67
1, 752010, Note_off_c, 0, 45, 64
1, 752083, Note_on_c, 0, 34, 80
1, 752141, Note_off_c, 0, 34, 63
1, 752215, Note_on_c, 0, 46, 71
1, 752217, Note_on_c, 0, 43, 75
1, 752219, Note_on_c, 0, 48, 69
1, 752248, Note_off_c, 0, 48, 65
1, 752252, Note_off_c, 0, 46, 66
1, 752253, Note_off_c, 0, 43, 66
1, 752347, Note_on_c, 0, 38, 68
1, 752384, Note_off_c, 0, 38, 63
1, 752449, Note_on_c, 0, 57, 70
1, 752451, Note_on_c, 0, 46, 80
1, 752465, Note_on_c, 0, 41, 64
1, 752479, Note_off_c, 0, 57, 67
1, 752484, Note_off_c, 0, 46, 66
1, 752504, Note_off_c, 0, 41, 61
1, 752579, Note_on_c, 0, 34, 62
1, 752651, Note_off_c, 0, 34, 59
1, 752697, Note_on_c, 0, 40, 53
1, 752707, Note_on_c, 0, 43, 55
1, 752709, Note_on_c, 0, 45, 60
1, 752726, Note_off_c, 0, 40, 57
1, 752734, Note_off_c, 0, 43, 57
1, 752736, Note_off_c, 0, 45, 62
1, 752819, Note_on_c, 0, 50, 79
1, 752861, Note_off_c, 0, 50, 60
1, 752945, Note_on_c, 0, 57, 71
1, 752945, Note_on_c, 0, 69, 68
1, 752946, Note_on_c, 0, 62, 71
1, 752972, Note_off_c, 0, 69, 68
1, 752973, Note_off_c, 0, 62, 67
1, 752987, Note_off_c, 0, 57, 63
1, 753066, Note_on_c, 0, 46, 63
1, 753125, Note_off_c, 0, 46, 62
1, 753194, Note_on_c, 0, 58, 56
1, 753196, Note_on_c, 0, 60, 54
1, 753202, Note_on_c, 0, 55, 51
1, 753220, Note_off_c, 0, 60, 64
1, 753223, Note_off_c, 0, 58, 65
1, 753239, Note_off_c, 0, 55, 65
1, 753306, Note_on_c, 0, 50, 61
1, 753349, Note_off_c, 0, 50, 63
1, 753439, Note_on_c, 0, 69, 68
1, 753448, Note_on_c, 0, 58, 66
1, 753465, Note_on_c, 0, 53, 14
1, 753466, Note_off_c, 0, 69, 66
1, 753480, Note_off_c, 0, 58, 66
1, 753512, Note_off_c, 0, 53, 48
1, 753570, Note_on_c, 0, 46, 55
1, 753604, Note_off_c, 0, 46, 64
1, 753607, Control_c, 0, 64, 22
1, 753622, Control_c, 0, 64, 32
1, 753637, Control_c, 0, 64, 40
1, 753651, Control_c, 0, 64, 48
1, 753666, Control_c, 0, 64, 54
1, 753682, Control_c, 0, 64, 61
1, 753691, Note_on_c, 0, 57, 47
1, 753697, Control_c, 0, 64, 67
1, 753699, Note_on_c, 0, 55, 25
1, 753712, Control_c, 0, 64, 74
1, 753721, Note_off_c, 0, 57, 55
1, 753727, Control_c, 0, 64, 87
1, 753739, Note_off_c, 0, 55, 30
1, 753742, Control_c, 0, 64, 106
1, 753756, Control_c, 0, 64, 127
1, 753793, Control_c, 0, 64, 121
1, 753805, Note_on_c, 0, 38, 48
1, 753808, Control_c, 0, 64, 96
1, 753822, Control_c, 0, 64, 80
1, 753837, Control_c, 0, 64, 68
1, 753852, Control_c, 0, 64, 57
1, 753867, Control_c, 0, 64, 37
1, 753876, Note_off_c, 0, 38, 56
1, 753882, Control_c, 0, 64, 43
1, 753886, Note_on_c, 0, 77, 75
1, 753897, Control_c, 0, 64, 52
1, 753897, Note_on_c, 0, 45, 49
1, 753900, Note_on_c, 0, 65, 67
1, 753903, Note_on_c, 0, 74, 55
1, 753912, Control_c, 0, 64, 57
1, 753914, Note_off_c, 0, 77, 68
1, 753922, Note_off_c, 0, 74, 60
1, 753927, Note_off_c, 0, 45, 61
1, 753927, Control_c, 0, 64, 61
1, 753928, Note_off_c, 0, 65, 66
1, 753942, Control_c, 0, 64, 66
1, 753956, Control_c, 0, 64, 77
1, 753971, Control_c, 0, 64, 127
1, 754120, Note_on_c, 0, 50, 75
1, 754141, Note_off_c, 0, 50, 67
1, 754156, Note_on_c, 0, 57, 76
1, 754177, Note_on_c, 0, 34, 45
1, 754183, Note_off_c, 0, 57, 68
1, 754231, Poly_aftertouch_c, 0, 55, 127
1, 754254, Poly_aftertouch_c, 0, 55, 0
1, 754289, Note_on_c, 0, 44, 49
1, 754327, Note_off_c, 0, 34, 36
1, 754348, Note_off_c, 0, 44, 58
1, 754359, Note_on_c, 0, 74, 87
1, 754392, Note_on_c, 0, 81, 87
1, 754394, Note_off_c, 0, 74, 65
1, 754404, Note_on_c, 0, 38, 53
1, 754420, Note_off_c, 0, 81, 65
1, 754457, Note_off_c, 0, 38, 56
1, 754514, Note_on_c, 0, 45, 58
1, 754587, Control_c, 0, 64, 96
1, 754602, Control_c, 0, 64, 69
1, 754606, Note_off_c, 0, 45, 59
1, 754617, Control_c, 0, 64, 42
1, 754632, Control_c, 0, 64, 0
1, 754645, Note_on_c, 0, 68, 79
1, 754646, Control_c, 0, 64, 32
1, 754653, Note_on_c, 0, 64, 65
1, 754660, Note_on_c, 0, 34, 57
1, 754661, Control_c, 0, 64, 47
1, 754668, Note_off_c, 0, 68, 70
1, 754672, Note_off_c, 0, 64, 65
1, 754676, Control_c, 0, 64, 55
1, 754691, Control_c, 0, 64, 61
1, 754695, Note_off_c, 0, 34, 61
1, 754705, Control_c, 0, 64, 67
1, 754720, Control_c, 0, 64, 81
1, 754735, Control_c, 0, 64, 127
1, 754785, Note_on_c, 0, 44, 49
1, 754830, Note_on_c, 0, 86, 77
1, 754842, Note_off_c, 0, 44, 60
1, 754866, Note_on_c, 0, 81, 77
1, 754869, Control_c, 0, 64, 87
1, 754875, Note_on_c, 0, 78, 57
1, 754880, Note_off_c, 0, 86, 63
1, 754881, Note_on_c, 0, 38, 56
1, 754884, Control_c, 0, 64, 60
1, 754889, Note_off_c, 0, 81, 71
1, 754896, Note_on_c, 0, 74, 41
1, 754896, Note_on_c, 0, 77, 49
1, 754896, Note_off_c, 0, 78, 44
1, 754898, Control_c, 0, 64, 0
1, 754914, Note_off_c, 0, 38, 62
1, 754920, Note_off_c, 0, 77, 38
1, 754921, Note_off_c, 0, 74, 36
1, 754985, Note_on_c, 0, 77, 85
1, 754997, Note_on_c, 0, 45, 63
1, 755025, Note_off_c, 0, 77, 63
1, 755049, Note_off_c, 0, 45, 60
1, 755083, Note_on_c, 0, 84, 73
1, 755101, Note_on_c, 0, 79, 71
1, 755102, Note_on_c, 0, 74, 72
1, 755114, Note_on_c, 0, 34, 55
1, 755119, Note_off_c, 0, 84, 59
1, 755131, Note_off_c, 0, 74, 64
1, 755133, Note_off_c, 0, 79, 62
1, 755158, Note_off_c, 0, 34, 53
1, 755226, Note_on_c, 0, 67, 78
1, 755238, Note_on_c, 0, 44, 51
1, 755249, Note_off_c, 0, 67, 70
1, 755282, Note_off_c, 0, 44, 64
1, 755340, Note_on_c, 0, 82, 80
1, 755344, Note_on_c, 0, 77, 77
1, 755353, Note_on_c, 0, 38, 58
1, 755355, Note_on_c, 0, 68, 71
1, 755361, Note_off_c, 0, 82, 71
1, 755378, Note_off_c, 0, 77, 60
1, 755381, Note_off_c, 0, 68, 68
1, 755402, Note_off_c, 0, 38, 59
1, 755477, Note_on_c, 0, 64, 81
1, 755481, Note_on_c, 0, 45, 58
1, 755500, Note_off_c, 0, 64, 71
1, 755529, Note_off_c, 0, 45, 62
1, 755587, Note_on_c, 0, 34, 64
1, 755613, Note_off_c, 0, 34, 63
1, 755706, Note_on_c, 0, 44, 61
1, 755736, Note_off_c, 0, 44, 62
1, 755801, Note_on_c, 0, 74, 87
1, 755808, Note_on_c, 0, 65, 77
1, 755820, Note_on_c, 0, 69, 47
1, 755820, Note_on_c, 0, 38, 61
1, 755823, Control_c, 0, 64, 31
1, 755838, Control_c, 0, 64, 52
1, 755851, Note_off_c, 0, 69, 50
1, 755852, Control_c, 0, 64, 61
1, 755860, Note_off_c, 0, 38, 60
1, 755867, Control_c, 0, 64, 70
1, 755882, Control_c, 0, 64, 89
1, 755897, Note_off_c, 0, 74, 60
1, 755897, Control_c, 0, 64, 127
1, 755916, Note_on_c, 0, 69, 44
1, 755944, Note_on_c, 0, 45, 58
1, 756011, Note_off_c, 0, 69, 63
1, 756024, Note_off_c, 0, 65, 0
1, 756027, Note_off_c, 0, 45, 55
1, 756031, Note_on_c, 0, 77, 86
1, 756061, Poly_aftertouch_c, 0, 65, 127
1, 756068, Control_c, 0, 64, 114
1, 756071, Note_on_c, 0, 76, 82
1, 756073, Note_on_c, 0, 34, 67
1, 756083, Control_c, 0, 64, 80
1, 756098, Control_c, 0, 64, 62
1, 756099, Note_off_c, 0, 77, 66
1, 756101, Note_off_c, 0, 34, 63
1, 756102, Note_on_c, 0, 73, 52
1, 756113, Control_c, 0, 64, 0
1, 756126, Note_off_c, 0, 73, 54
1, 756137, Note_off_c, 0, 76, 60
1, 756205, Note_on_c, 0, 44, 54
1, 756215, Note_on_c, 0, 69, 5
1, 756241, Note_off_c, 0, 44, 62
1, 756252, Note_on_c, 0, 74, 72
1, 756274, Note_on_c, 0, 73, 80
1, 756285, Note_off_c, 0, 74, 67
1, 756309, Note_on_c, 0, 38, 62
1, 756314, Note_off_c, 0, 73, 67
1, 756356, Note_off_c, 0, 38, 57
1, 756420, Note_on_c, 0, 45, 61
1, 756455, Note_on_c, 0, 74, 71
1, 756493, Note_off_c, 0, 45, 59
1, 756514, Note_on_c, 0, 76, 92
1, 756527, Note_off_c, 0, 74, 65
1, 756529, Note_on_c, 0, 34, 67
1, 756555, Note_off_c, 0, 69, 54
1, 756565, Note_off_c, 0, 34, 65
1, 756575, Note_off_c, 0, 76, 60
1, 756655, Note_on_c, 0, 44, 56
1, 756699, Note_off_c, 0, 44, 63
1, 756701, Note_on_c, 0, 77, 81
1, 756755, Note_on_c, 0, 76, 76
1, 756771, Note_on_c, 0, 38, 61
1, 756783, Note_off_c, 0, 77, 61
1, 756808, Note_off_c, 0, 76, 63
1, 756830, Note_off_c, 0, 38, 57
1, 756859, Poly_aftertouch_c, 0, 65, 0
1, 756890, Note_on_c, 0, 45, 56
1, 756926, Note_on_c, 0, 74, 71
1, 756950, Note_off_c, 0, 45, 59
1, 756981, Note_on_c, 0, 73, 73
1, 756985, Note_on_c, 0, 34, 67
1, 756985, Note_off_c, 0, 74, 62
1, 756997, Note_on_c, 0, 76, 72
1, 756998, Note_on_c, 0, 65, 65
1, 757006, Note_on_c, 0, 68, 65
1, 757018, Note_off_c, 0, 73, 67
1, 757028, Note_off_c, 0, 76, 62
1, 757038, Note_off_c, 0, 65, 60
1, 757051, Note_off_c, 0, 68, 62
1, 757064, Note_off_c, 0, 34, 60
1, 757100, Note_on_c, 0, 44, 57
1, 757151, Note_off_c, 0, 44, 60
1, 757192, Note_on_c, 0, 33, 59
1, 757203, Note_on_c, 0, 71, 77
1, 757218, Control_c, 0, 64, 42
1, 757221, Note_off_c, 0, 33, 57
1, 757224, Note_off_c, 0, 71, 71
1, 757230, Note_on_c, 0, 59, 66
1, 757230, Note_on_c, 0, 68, 56
1, 757233, Control_c, 0, 64, 63
1, 757247, Control_c, 0, 64, 84
1, 757248, Note_off_c, 0, 59, 63
1, 757254, Note_off_c, 0, 68, 37
1, 757262, Control_c, 0, 64, 127
1, 757327, Note_on_c, 0, 59, 75
1, 757414, Note_off_c, 0, 59, 59
1, 757459, Note_on_c, 0, 55, 77
1, 757460, Note_on_c, 0, 45, 74
1, 757462, Note_on_c, 0, 43, 76
1, 757469, Control_c, 0, 64, 80
1, 757483, Note_off_c, 0, 43, 63
1, 757484, Control_c, 0, 64, 56
1, 757487, Note_off_c, 0, 45, 63
1, 757498, Control_c, 0, 64, 0
1, 757516, Note_off_c, 0, 55, 60
1, 757593, Note_on_c, 0, 61, 71
1, 757653, Note_off_c, 0, 61, 63
1, 757686, Note_on_c, 0, 38, 89
1, 757701, Note_on_c, 0, 53, 68
1, 757706, Note_off_c, 0, 38, 65
1, 757707, Note_on_c, 0, 55, 57
1, 757714, Control_c, 0, 64, 49
1, 757729, Note_off_c, 0, 55, 60
1, 757729, Control_c, 0, 64, 66
1, 757731, Note_off_c, 0, 53, 65
1, 757744, Control_c, 0, 64, 99
1, 757759, Control_c, 0, 64, 127
1, 757825, Poly_aftertouch_c, 0, 38, 127
1, 757840, Note_on_c, 0, 52, 57
1, 757848, Note_on_c, 0, 49, 60
1, 757856, Note_on_c, 0, 53, 47
1, 757860, Poly_aftertouch_c, 0, 38, 0
1, 757879, Note_off_c, 0, 52, 65
1, 757880, Note_off_c, 0, 53, 57
1, 757889, Note_off_c, 0, 49, 63
1, 757929, Note_on_c, 0, 81, 85
1, 757936, Control_c, 0, 64, 95
1, 757937, Note_on_c, 0, 77, 72
1, 757939, Note_on_c, 0, 53, 67
1, 757945, Note_on_c, 0, 50, 66
1, 757945, Note_on_c, 0, 76, 64
1, 757951, Control_c, 0, 64, 65
1, 757961, Note_on_c, 0, 79, 41
1, 757962, Note_off_c, 0, 79, 127
1, 757963, Note_off_c, 0, 76, 63
1, 757967, Control_c, 0, 64, 0
1, 757975, Note_off_c, 0, 77, 58
1, 757976, Note_off_c, 0, 50, 65
1, 757977, Note_off_c, 0, 53, 62
1, 757999, Note_off_c, 0, 81, 65
1, 758002, Note_on_c, 0, 76, 82
1, 758057, Note_on_c, 0, 81, 63
1, 758058, Note_off_c, 0, 76, 64
1, 758059, Note_on_c, 0, 52, 68
1, 758059, Note_on_c, 0, 55, 74
1, 758064, Note_on_c, 0, 77, 77
1, 758091, Note_off_c, 0, 77, 65
1, 758093, Note_off_c, 0, 81, 64
1, 758107, Note_off_c, 0, 52, 61
1, 758112, Note_off_c, 0, 55, 61
1, 758140, Note_on_c, 0, 74, 87
1, 758141, Note_on_c, 0, 81, 80
1, 758151, Note_on_c, 0, 77, 81
1, 758154, Note_on_c, 0, 53, 81
1, 758154, Note_on_c, 0, 57, 85
1, 758166, Note_off_c, 0, 74, 64
1, 758172, Note_off_c, 0, 77, 69
1, 758175, Control_c, 0, 64, 30
1, 758185, Note_off_c, 0, 81, 66
1, 758189, Control_c, 0, 64, 47
1, 758204, Control_c, 0, 64, 61
1, 758207, Note_off_c, 0, 53, 63
1, 758219, Control_c, 0, 64, 74
1, 758230, Note_off_c, 0, 57, 62
1, 758234, Control_c, 0, 64, 115
1, 758249, Control_c, 0, 64, 127
1, 758289, Note_on_c, 0, 50, 74
1, 758363, Note_off_c, 0, 50, 62
1, 758402, Note_on_c, 0, 59, 87
1, 758403, Note_on_c, 0, 89, 94
1, 758404, Note_on_c, 0, 93, 92
1, 758404, Control_c, 0, 64, 92
1, 758407, Note_on_c, 0, 55, 82
1, 758419, Control_c, 0, 64, 66
1, 758434, Control_c, 0, 64, 0
1, 758447, Note_off_c, 0, 55, 62
1, 758453, Note_off_c, 0, 89, 59
1, 758454, Note_off_c, 0, 59, 63
1, 758465, Note_off_c, 0, 93, 63
1, 758478, Note_on_c, 0, 88, 84
1, 758532, Note_on_c, 0, 48, 76
1, 758543, Note_off_c, 0, 88, 65
1, 758553, Note_on_c, 0, 89, 73
1, 758554, Note_on_c, 0, 93, 63
1, 758574, Note_off_c, 0, 93, 67
1, 758580, Note_off_c, 0, 89, 67
1, 758590, Note_off_c, 0, 48, 61
1, 758624, Note_on_c, 0, 89, 93
1, 758625, Note_on_c, 0, 86, 94
1, 758626, Note_on_c, 0, 93, 93
1, 758635, Note_on_c, 0, 57, 89
1, 758636, Note_on_c, 0, 60, 86
1, 758642, Control_c, 0, 64, 39
1, 758657, Control_c, 0, 64, 59
1, 758660, Note_off_c, 0, 93, 63
1, 758661, Note_off_c, 0, 89, 65
1, 758672, Control_c, 0, 64, 70
1, 758672, Note_off_c, 0, 86, 65
1, 758681, Note_off_c, 0, 60, 65
1, 758685, Note_off_c, 0, 57, 67
1, 758686, Control_c, 0, 64, 127
1, 758771, Note_on_c, 0, 47, 82
1, 758824, Note_off_c, 0, 47, 63
1, 758884, Note_on_c, 0, 69, 96
1, 758884, Note_on_c, 0, 78, 95
1, 758888, Note_on_c, 0, 73, 88
1, 758896, Note_on_c, 0, 61, 98
1, 758912, Note_off_c, 0, 78, 65
1, 758921, Note_off_c, 0, 69, 66
1, 758929, Note_off_c, 0, 73, 62
1, 758953, Note_off_c, 0, 61, 61
1, 759024, Note_on_c, 0, 57, 84
1, 759063, Note_off_c, 0, 57, 64
1, 759108, Control_c, 0, 64, 68
1, 759123, Control_c, 0, 64, 0
1, 759142, Note_on_c, 0, 57, 100
1, 759142, Note_on_c, 0, 61, 93
1, 759147, Note_on_c, 0, 64, 81
1, 759149, Note_on_c, 0, 52, 90
1, 759174, Note_off_c, 0, 57, 68
1, 759176, Note_on_c, 0, 63, 45
1, 759177, Note_off_c, 0, 63, 127
1, 759192, Note_off_c, 0, 61, 66
1, 759197, Control_c, 0, 64, 54
1, 759198, Note_off_c, 0, 64, 67
1, 759212, Control_c, 0, 64, 74
1, 759217, Note_off_c, 0, 52, 64
1, 759226, Control_c, 0, 64, 127
1, 759265, Note_on_c, 0, 49, 82
1, 759319, Note_off_c, 0, 49, 64
1, 759391, Note_on_c, 0, 45, 88
1, 759393, Note_on_c, 0, 81, 87
1, 759405, Control_c, 0, 64, 95
1, 759420, Control_c, 0, 64, 62
1, 759435, Control_c, 0, 64, 0
1, 759442, Note_off_c, 0, 45, 63
1, 759443, Note_on_c, 0, 83, 85
1, 759444, Note_off_c, 0, 81, 64
1, 759468, Note_on_c, 0, 85, 81
1, 759506, Note_on_c, 0, 43, 78
1, 759507, Note_off_c, 0, 83, 63
1, 759531, Note_off_c, 0, 85, 65
1, 759534, Note_on_c, 0, 81, 74
1, 759555, Note_off_c, 0, 43, 61
1, 759583, Note_on_c, 0, 88, 85
1, 759591, Note_on_c, 0, 80, 79
1, 759591, Note_on_c, 0, 84, 83
1, 759595, Note_on_c, 0, 41, 82
1, 759598, Note_off_c, 0, 81, 67
1, 759612, Control_c, 0, 64, 42
1, 759617, Note_off_c, 0, 88, 66
1, 759621, Note_off_c, 0, 41, 67
1, 759622, Note_off_c, 0, 84, 63
1, 759627, Control_c, 0, 64, 56
1, 759641, Control_c, 0, 64, 64
1, 759643, Note_off_c, 0, 80, 64
1, 759656, Control_c, 0, 64, 86
1, 759671, Control_c, 0, 64, 127
1, 759734, Note_on_c, 0, 56, 73
1, 759736, Note_on_c, 0, 76, 95
1, 759740, Note_on_c, 0, 72, 83
1, 759746, Control_c, 0, 64, 107
1, 759767, Control_c, 0, 64, 84
1, 759772, Note_off_c, 0, 72, 66
1, 759773, Note_off_c, 0, 76, 63
1, 759782, Control_c, 0, 64, 71
1, 759797, Control_c, 0, 64, 60
1, 759812, Control_c, 0, 64, 20
1, 759817, Note_off_c, 0, 56, 63
1, 759827, Control_c, 0, 64, 0
1, 759853, Note_on_c, 0, 77, 86
1, 759862, Note_on_c, 0, 76, 69
1, 759863, Note_on_c, 0, 74, 73
1, 759870, Note_on_c, 0, 68, 82
1, 759887, Note_off_c, 0, 74, 69
1, 759889, Note_off_c, 0, 76, 67
1, 759896, Note_off_c, 0, 77, 63
1, 759907, Note_off_c, 0, 68, 62
1, 759968, Note_on_c, 0, 79, 82
1, 759969, Note_on_c, 0, 76, 74
1, 759970, Note_on_c, 0, 58, 67
1, 759993, Note_off_c, 0, 58, 67
1, 759999, Note_off_c, 0, 76, 72
1, 760017, Note_off_c, 0, 79, 64
1, 760082, Note_on_c, 0, 39, 83
1, 760082, Note_on_c, 0, 81, 89
1, 760084, Note_on_c, 0, 69, 96
1, 760087, Note_on_c, 0, 78, 67
1, 760088, Note_on_c, 0, 73, 88
1, 760095, Note_on_c, 0, 79, 81
1, 760099, Note_on_c, 0, 42, 56
1, 760106, Note_off_c, 0, 39, 63
1, 760109, Note_off_c, 0, 69, 67
1, 760109, Control_c, 0, 64, 55
1, 760112, Note_off_c, 0, 73, 66
1, 760118, Note_off_c, 0, 78, 55
1, 760122, Note_off_c, 0, 79, 65
1, 760124, Control_c, 0, 64, 76
1, 760129, Note_off_c, 0, 42, 64
1, 760134, Note_off_c, 0, 81, 67
1, 760139, Control_c, 0, 64, 127
1, 760211, Note_on_c, 0, 61, 85
1, 760253, Note_on_c, 0, 63, 22
1, 760290, Note_off_c, 0, 63, 45
1, 760327, Note_on_c, 0, 85, 97
1, 760328, Note_on_c, 0, 93, 101
1, 760330, Note_on_c, 0, 69, 96
1, 760330, Note_on_c, 0, 81, 95
1, 760332, Note_on_c, 0, 79, 98
1, 760347, Note_off_c, 0, 93, 70
1, 760359, Note_on_c, 0, 90, 43
1, 760369, Note_off_c, 0, 79, 69
1, 760370, Note_off_c, 0, 85, 68
1, 760381, Note_off_c, 0, 69, 68
1, 760382, Note_off_c, 0, 61, 61
1, 760382, Note_off_c, 0, 90, 40
1, 760386, Note_off_c, 0, 81, 67
1, 760452, Note_on_c, 0, 57, 83
1, 760481, Poly_aftertouch_c, 0, 62, 127
1, 760492, Note_off_c, 0, 57, 66
1, 760519, Poly_aftertouch_c, 0, 62, 0
1, 760531, Control_c, 0, 64, 88
1, 760546, Control_c, 0, 64, 56
1, 760561, Control_c, 0, 64, 0
1, 760583, Note_on_c, 0, 62, 95
1, 760586, Note_on_c, 0, 38, 103
1, 760590, Control_c, 0, 64, 50
1, 760605, Control_c, 0, 64, 65
1, 760620, Control_c, 0, 64, 97
1, 760628, Note_off_c, 0, 38, 64
1, 760635, Control_c, 0, 64, 127
1, 760640, Note_off_c, 0, 62, 67
1, 760714, Note_on_c, 0, 57, 91
1, 760752, Note_off_c, 0, 57, 67
1, 760822, Note_on_c, 0, 34, 97
1, 760828, Control_c, 0, 64, 88
1, 760843, Control_c, 0, 64, 48
1, 760858, Control_c, 0, 64, 0
1, 760901, Note_off_c, 0, 34, 63
1, 760917, Note_on_c, 0, 50, 102
1, 760951, Note_off_c, 0, 50, 68
1, 761042, Note_on_c, 0, 38, 80
1, 761097, Note_off_c, 0, 38, 61
1, 761173, Note_on_c, 0, 45, 68
1, 761234, Note_off_c, 0, 45, 60
1, 761297, Note_on_c, 0, 34, 61
1, 761337, Note_off_c, 0, 34, 63
1, 761409, Note_on_c, 0, 44, 61
1, 761441, Note_off_c, 0, 44, 64
1, 761473, Note_on_c, 0, 75, 7
1, 761519, Note_off_c, 0, 75, 46
1, 761531, Control_c, 0, 64, 31
1, 761538, Note_on_c, 0, 82, 63
1, 761542, Note_on_c, 0, 80, 59
1, 761546, Control_c, 0, 64, 43
1, 761552, Note_on_c, 0, 46, 53
1, 761561, Control_c, 0, 64, 51
1, 761576, Control_c, 0, 64, 56
1, 761579, Note_off_c, 0, 80, 65
1, 761591, Control_c, 0, 64, 61
1, 761597, Note_off_c, 0, 82, 61
1, 761606, Control_c, 0, 64, 67
1, 761609, Note_on_c, 0, 75, 67
1, 761621, Control_c, 0, 64, 78
1, 761627, Note_off_c, 0, 46, 54
1, 761635, Control_c, 0, 64, 108
1, 761642, Note_on_c, 0, 73, 41
1, 761650, Control_c, 0, 64, 127
1, 761651, Note_on_c, 0, 58, 62
1, 761674, Note_off_c, 0, 73, 48
1, 761680, Note_off_c, 0, 75, 60
1, 761680, Note_on_c, 0, 80, 72
1, 761683, Note_off_c, 0, 58, 65
1, 761696, Note_on_c, 0, 82, 60
1, 761713, Note_off_c, 0, 80, 62
1, 761714, Note_off_c, 0, 82, 64
1, 761726, Control_c, 0, 64, 86
1, 761741, Control_c, 0, 64, 66
1, 761755, Control_c, 0, 64, 34
1, 761770, Note_on_c, 0, 73, 81
1, 761770, Control_c, 0, 64, 0
1, 761771, Note_on_c, 0, 82, 82
1, 761791, Note_on_c, 0, 34, 64
1, 761793, Note_on_c, 0, 80, 55
1, 761800, Control_c, 0, 64, 32
1, 761804, Note_off_c, 0, 82, 60
1, 761805, Note_off_c, 0, 73, 64
1, 761813, Note_off_c, 0, 80, 61
1, 761815, Control_c, 0, 64, 47
1, 761829, Control_c, 0, 64, 57
1, 761844, Control_c, 0, 64, 62
1, 761859, Control_c, 0, 64, 67
1, 761874, Control_c, 0, 64, 79
1, 761877, Note_off_c, 0, 34, 43
1, 761889, Control_c, 0, 64, 127
1, 761912, Note_on_c, 0, 46, 59
1, 761939, Note_on_c, 0, 75, 74
1, 761940, Note_on_c, 0, 80, 69
1, 761945, Note_on_c, 0, 70, 76
1, 761954, Note_on_c, 0, 73, 46
1, 761954, Note_off_c, 0, 46, 60
1, 761963, Note_off_c, 0, 75, 69
1, 761963, Control_c, 0, 64, 102
1, 761966, Note_off_c, 0, 80, 69
1, 761968, Note_off_c, 0, 70, 70
1, 761978, Note_off_c, 0, 73, 58
1, 761978, Control_c, 0, 64, 71
1, 761993, Control_c, 0, 64, 52
1, 762015, Control_c, 0, 64, 11
1, 762026, Note_on_c, 0, 80, 87
1, 762030, Control_c, 0, 64, 30
1, 762044, Control_c, 0, 64, 43
1, 762046, Note_on_c, 0, 75, 68
1, 762047, Note_on_c, 0, 70, 63
1, 762057, Note_on_c, 0, 39, 55
1, 762059, Control_c, 0, 64, 51
1, 762062, Note_on_c, 0, 73, 57
1, 762074, Control_c, 0, 64, 59
1, 762075, Note_off_c, 0, 75, 65
1, 762083, Note_off_c, 0, 70, 62
1, 762086, Note_off_c, 0, 80, 63
1, 762089, Control_c, 0, 64, 63
1, 762098, Note_off_c, 0, 73, 64
1, 762103, Control_c, 0, 64, 67
1, 762118, Control_c, 0, 64, 73
1, 762130, Note_off_c, 0, 39, 52
1, 762133, Control_c, 0, 64, 89
1, 762148, Control_c, 0, 64, 127
1, 762162, Note_on_c, 0, 51, 66
1, 762186, Note_on_c, 0, 79, 84
1, 762192, Note_on_c, 0, 68, 81
1, 762192, Note_off_c, 0, 51, 66
1, 762208, Control_c, 0, 64, 108
1, 762216, Note_off_c, 0, 68, 67
1, 762217, Note_off_c, 0, 79, 62
1, 762223, Control_c, 0, 64, 77
1, 762237, Control_c, 0, 64, 61
1, 762252, Control_c, 0, 64, 28
1, 762267, Control_c, 0, 64, 21
1, 762272, Note_on_c, 0, 79, 81
1, 762279, Note_on_c, 0, 68, 76
1, 762281, Control_c, 0, 64, 38
1, 762288, Note_on_c, 0, 34, 62
1, 762296, Control_c, 0, 64, 50
1, 762310, Note_off_c, 0, 79, 65
1, 762311, Control_c, 0, 64, 58
1, 762318, Note_off_c, 0, 68, 55
1, 762326, Control_c, 0, 64, 64
1, 762341, Control_c, 0, 64, 69
1, 762356, Control_c, 0, 64, 81
1, 762370, Control_c, 0, 64, 127
1, 762386, Note_off_c, 0, 34, 51
1, 762406, Note_on_c, 0, 46, 61
1, 762430, Note_on_c, 0, 77, 81
1, 762438, Note_on_c, 0, 68, 71
1, 762444, Control_c, 0, 64, 104
1, 762448, Note_off_c, 0, 46, 62
1, 762458, Note_off_c, 0, 77, 62
1, 762459, Control_c, 0, 64, 75
1, 762467, Note_off_c, 0, 68, 63
1, 762474, Control_c, 0, 64, 60
1, 762489, Control_c, 0, 64, 27
1, 762504, Control_c, 0, 64, 0
1, 762517, Note_on_c, 0, 77, 83
1, 762519, Control_c, 0, 64, 24
1, 762524, Poly_aftertouch_c, 0, 73, 0
1, 762525, Note_on_c, 0, 68, 81
1, 762530, Note_on_c, 0, 39, 56
1, 762533, Control_c, 0, 64, 38
1, 762548, Control_c, 0, 64, 52
1, 762563, Control_c, 0, 64, 59
1, 762564, Note_off_c, 0, 68, 56
1, 762576, Note_off_c, 0, 77, 63
1, 762578, Control_c, 0, 64, 63
1, 762580, Poly_aftertouch_c, 0, 73, 0
1, 762592, Control_c, 0, 64, 67
1, 762607, Control_c, 0, 64, 73
1, 762619, Note_off_c, 0, 39, 52
1, 762622, Control_c, 0, 64, 85
1, 762634, Note_on_c, 0, 51, 69
1, 762637, Control_c, 0, 64, 127
1, 762668, Note_off_c, 0, 51, 64
1, 762673, Note_on_c, 0, 75, 73
1, 762676, Note_on_c, 0, 73, 67
1, 762685, Note_on_c, 0, 67, 64
1, 762692, Note_on_c, 0, 70, 47
1, 762703, Note_off_c, 0, 73, 67
1, 762708, Note_off_c, 0, 75, 59
1, 762712, Control_c, 0, 64, 81
1, 762714, Note_off_c, 0, 67, 66
1, 762720, Note_off_c, 0, 70, 56
1, 762726, Control_c, 0, 64, 62
1, 762741, Control_c, 0, 64, 36
1, 762763, Control_c, 0, 64, 27
1, 762771, Note_on_c, 0, 75, 78
1, 762775, Note_on_c, 0, 73, 75
1, 762778, Control_c, 0, 64, 37
1, 762779, Note_on_c, 0, 67, 77
1, 762780, Note_on_c, 0, 34, 65
1, 762792, Control_c, 0, 64, 47
1, 762803, Note_on_c, 0, 70, 52
1, 762807, Control_c, 0, 64, 55
1, 762816, Note_off_c, 0, 67, 58
1, 762822, Control_c, 0, 64, 62
1, 762825, Note_off_c, 0, 70, 62
1, 762834, Note_off_c, 0, 73, 63
1, 762837, Control_c, 0, 64, 66
1, 762845, Note_off_c, 0, 75, 61
1, 762852, Control_c, 0, 64, 70
1, 762867, Control_c, 0, 64, 78
1, 762879, Note_off_c, 0, 34, 52
1, 762881, Control_c, 0, 64, 97
1, 762896, Note_on_c, 0, 46, 67
1, 762896, Control_c, 0, 64, 127
1, 762927, Note_on_c, 0, 70, 68
1, 762929, Note_on_c, 0, 65, 80
1, 762929, Note_on_c, 0, 77, 79
1, 762930, Note_on_c, 0, 73, 77
1, 762943, Note_off_c, 0, 46, 57
1, 762952, Note_off_c, 0, 73, 71
1, 762956, Note_off_c, 0, 70, 68
1, 762958, Note_off_c, 0, 77, 66
1, 762965, Note_off_c, 0, 65, 57
1, 762971, Control_c, 0, 64, 87
1, 762985, Control_c, 0, 64, 66
1, 763000, Control_c, 0, 64, 44
1, 763011, Note_on_c, 0, 77, 83
1, 763015, Control_c, 0, 64, 39
1, 763020, Note_on_c, 0, 73, 80
1, 763022, Note_on_c, 0, 65, 65
1, 763027, Note_on_c, 0, 70, 70
1, 763030, Control_c, 0, 64, 49
1, 763042, Note_on_c, 0, 39, 59
1, 763045, Control_c, 0, 64, 55
1, 763056, Note_off_c, 0, 70, 62
1, 763058, Note_off_c, 0, 65, 61
1, 763059, Control_c, 0, 64, 61
1, 763069, Note_off_c, 0, 77, 63
1, 763072, Note_off_c, 0, 73, 63
1, 763074, Control_c, 0, 64, 66
1, 763089, Control_c, 0, 64, 73
1, 763104, Control_c, 0, 64, 89
1, 763118, Control_c, 0, 64, 127
1, 763142, Note_on_c, 0, 51, 72
1, 763172, Note_off_c, 0, 51, 65
1, 763174, Note_on_c, 0, 73, 82
1, 763174, Note_on_c, 0, 79, 81
1, 763178, Control_c, 0, 64, 105
1, 763181, Note_on_c, 0, 70, 66
1, 763184, Note_off_c, 0, 39, 31
1, 763192, Control_c, 0, 64, 70
1, 763196, Note_off_c, 0, 73, 70
1, 763200, Note_off_c, 0, 79, 65
1, 763202, Note_off_c, 0, 70, 60
1, 763207, Control_c, 0, 64, 51
1, 763222, Control_c, 0, 64, 0
1, 763237, Control_c, 0, 64, 28
1, 763248, Note_on_c, 0, 73, 82
1, 763253, Control_c, 0, 64, 44
1, 763268, Control_c, 0, 64, 54
1, 763269, Note_on_c, 0, 34, 64
1, 763275, Note_on_c, 0, 70, 58
1, 763282, Control_c, 0, 64, 63
1, 763297, Control_c, 0, 64, 68
1, 763299, Note_off_c, 0, 70, 58
1, 763299, Note_off_c, 0, 73, 64
1, 763312, Control_c, 0, 64, 76
1, 763320, Note_on_c, 0, 64, 79
1, 763326, Control_c, 0, 64, 104
1, 763341, Control_c, 0, 64, 127
1, 763357, Poly_aftertouch_c, 0, 33, 127
1, 763370, Note_off_c, 0, 34, 57
1, 763373, Note_on_c, 0, 46, 72
1, 763376, Note_off_c, 0, 64, 62
1, 763382, Note_on_c, 0, 70, 70
1, 763385, Note_on_c, 0, 73, 74
1, 763385, Poly_aftertouch_c, 0, 33, 0
1, 763400, Control_c, 0, 64, 87
1, 763409, Note_off_c, 0, 70, 67
1, 763410, Note_off_c, 0, 73, 67
1, 763414, Note_off_c, 0, 46, 60
1, 763415, Control_c, 0, 64, 64
1, 763430, Control_c, 0, 64, 0
1, 763464, Note_on_c, 0, 80, 85
1, 763475, Control_c, 0, 64, 33
1, 763475, Note_on_c, 0, 77, 75
1, 763490, Control_c, 0, 64, 51
1, 763493, Note_on_c, 0, 37, 66
1, 763512, Control_c, 0, 64, 61
1, 763519, Note_off_c, 0, 77, 62
1, 763527, Control_c, 0, 64, 64
1, 763541, Control_c, 0, 64, 64
1, 763544, Note_on_c, 0, 73, 75
1, 763552, Note_off_c, 0, 80, 64
1, 763556, Control_c, 0, 64, 63
1, 763571, Control_c, 0, 64, 55
1, 763586, Note_off_c, 0, 37, 58
1, 763586, Control_c, 0, 64, 36
1, 763601, Control_c, 0, 64, 0
1, 763602, Note_on_c, 0, 77, 86
1, 763604, Note_on_c, 0, 49, 63
1, 763609, Note_off_c, 0, 73, 63
1, 763633, Note_off_c, 0, 77, 63
1, 763636, Note_off_c, 0, 49, 65
1, 763682, Note_on_c, 0, 80, 81
1, 763685, Note_on_c, 0, 73, 82
1, 763692, Note_on_c, 0, 77, 71
1, 763704, Note_off_c, 0, 80, 68
1, 763704, Control_c, 0, 64, 48
1, 763711, Note_on_c, 0, 32, 68
1, 763719, Note_off_c, 0, 77, 68
1, 763719, Control_c, 0, 64, 62
1, 763720, Note_off_c, 0, 73, 64
1, 763734, Control_c, 0, 64, 70
1, 763749, Control_c, 0, 64, 111
1, 763754, Note_on_c, 0, 72, 3
1, 763764, Control_c, 0, 64, 127
1, 763771, Note_off_c, 0, 32, 60
1, 763792, Note_off_c, 0, 72, 50
1, 763835, Note_on_c, 0, 44, 61
1, 763869, Note_on_c, 0, 61, 75
1, 763877, Note_off_c, 0, 44, 62
1, 763912, Control_c, 0, 64, 77
1, 763914, Note_off_c, 0, 61, 62
1, 763926, Note_on_c, 0, 59, 79
1, 763927, Control_c, 0, 64, 43
1, 763931, Note_on_c, 0, 37, 53
1, 763941, Control_c, 0, 64, 0
1, 763962, Note_off_c, 0, 59, 63
1, 763965, Note_off_c, 0, 37, 55
1, 764009, Note_on_c, 0, 66, 65
1, 764058, Note_off_c, 0, 66, 63
1, 764098, Note_on_c, 0, 62, 58
1, 764120, Note_on_c, 0, 50, 76
1, 764153, Note_off_c, 0, 50, 67
1, 764157, Note_off_c, 0, 62, 61
1, 764163, Note_on_c, 0, 61, 77
1, 764173, Note_on_c, 0, 55, 79
1, 764201, Note_off_c, 0, 55, 68
1, 764213, Note_off_c, 0, 61, 59
1, 764279, Note_on_c, 0, 64, 59
1, 764319, Note_off_c, 0, 64, 62
1, 764360, Note_on_c, 0, 61, 59
1, 764400, Note_off_c, 0, 61, 64
1, 764425, Note_on_c, 0, 59, 71
1, 764429, Note_on_c, 0, 37, 45
1, 764459, Note_off_c, 0, 59, 65
1, 764467, Note_off_c, 0, 37, 36
1, 764516, Note_on_c, 0, 66, 60
1, 764575, Note_off_c, 0, 66, 60
1, 764595, Note_on_c, 0, 62, 59
1, 764611, Note_on_c, 0, 44, 66
1, 764640, Note_off_c, 0, 44, 63
1, 764647, Note_on_c, 0, 49, 87
1, 764650, Note_on_c, 0, 61, 77
1, 764650, Note_off_c, 0, 62, 62
1, 764677, Note_off_c, 0, 49, 67
1, 764709, Note_off_c, 0, 61, 59
1, 764720, Note_on_c, 0, 64, 69
1, 764768, Note_off_c, 0, 64, 65
1, 764797, Note_on_c, 0, 61, 72
1, 764842, Note_off_c, 0, 61, 64
1, 764866, Note_on_c, 0, 59, 80
1, 764871, Note_on_c, 0, 37, 80
1, 764889, Note_off_c, 0, 59, 70
1, 764944, Note_off_c, 0, 37, 59
1, 764995, Note_on_c, 0, 49, 70
1, 765037, Note_off_c, 0, 49, 66
1, 765059, Note_on_c, 0, 78, 83
1, 765098, Note_off_c, 0, 78, 67
1, 765104, Note_on_c, 0, 83, 87
1, 765109, Note_on_c, 0, 74, 92
1, 765120, Note_on_c, 0, 32, 80
1, 765128, Control_c, 0, 64, 33
1, 765143, Control_c, 0, 64, 56
1, 765146, Note_off_c, 0, 83, 63
1, 765149, Note_off_c, 0, 74, 65
1, 765158, Control_c, 0, 64, 73
1, 765173, Control_c, 0, 64, 106
1, 765187, Control_c, 0, 64, 127
1, 765221, Note_off_c, 0, 32, 58
1, 765248, Note_on_c, 0, 44, 68
1, 765276, Control_c, 0, 64, 107
1, 765291, Control_c, 0, 64, 75
1, 765297, Note_off_c, 0, 44, 59
1, 765305, Control_c, 0, 64, 54
1, 765320, Control_c, 0, 64, 0
1, 765337, Note_on_c, 0, 77, 76
1, 765343, Note_on_c, 0, 79, 62
1, 765363, Note_on_c, 0, 36, 65
1, 765379, Control_c, 0, 64, 39
1, 765382, Note_off_c, 0, 79, 63
1, 765388, Note_off_c, 0, 77, 63
1, 765394, Control_c, 0, 64, 57
1, 765409, Control_c, 0, 64, 67
1, 765411, Note_on_c, 0, 70, 76
1, 765424, Control_c, 0, 64, 83
1, 765427, Note_off_c, 0, 36, 57
1, 765439, Control_c, 0, 64, 127
1, 765444, Note_off_c, 0, 70, 62
1, 765457, Note_on_c, 0, 79, 78
1, 765466, Note_on_c, 0, 48, 66
1, 765481, Note_off_c, 0, 79, 71
1, 765505, Note_off_c, 0, 48, 62
1, 765514, Control_c, 0, 64, 116
1, 765528, Control_c, 0, 64, 82
1, 765543, Control_c, 0, 64, 64
1, 765558, Control_c, 0, 64, 38
1, 765563, Note_on_c, 0, 91, 95
1, 765564, Note_on_c, 0, 82, 92
1, 765573, Control_c, 0, 64, 22
1, 765579, Note_off_c, 0, 91, 72
1, 765585, Note_on_c, 0, 31, 76
1, 765588, Control_c, 0, 64, 39
1, 765597, Note_off_c, 0, 82, 66
1, 765603, Control_c, 0, 64, 48
1, 765618, Control_c, 0, 64, 56
1, 765633, Control_c, 0, 64, 62
1, 765648, Control_c, 0, 64, 70
1, 765663, Control_c, 0, 64, 91
1, 765678, Control_c, 0, 64, 127
1, 765686, Note_off_c, 0, 31, 50
1, 765707, Note_on_c, 0, 43, 71
1, 765755, Note_on_c, 0, 72, 73
1, 765758, Note_on_c, 0, 67, 81
1, 765759, Control_c, 0, 64, 87
1, 765763, Note_on_c, 0, 77, 73
1, 765764, Note_off_c, 0, 43, 61
1, 765771, Note_off_c, 0, 72, 68
1, 765774, Control_c, 0, 64, 67
1, 765784, Note_on_c, 0, 70, 35
1, 765784, Note_off_c, 0, 67, 65
1, 765788, Note_off_c, 0, 77, 64
1, 765789, Control_c, 0, 64, 42
1, 765804, Control_c, 0, 64, 0
1, 765824, Note_on_c, 0, 67, 79
1, 765824, Note_on_c, 0, 72, 88
1, 765831, Note_off_c, 0, 70, 0
1, 765831, Note_on_c, 0, 70, 53
1, 765833, Note_on_c, 0, 77, 86
1, 765839, Note_on_c, 0, 36, 76
1, 765848, Control_c, 0, 64, 27
1, 765852, Note_off_c, 0, 67, 68
1, 765863, Control_c, 0, 64, 46
1, 765864, Note_off_c, 0, 72, 66
1, 765868, Note_off_c, 0, 70, 66
1, 765877, Control_c, 0, 64, 56
1, 765880, Note_off_c, 0, 77, 61
1, 765892, Control_c, 0, 64, 64
1, 765907, Control_c, 0, 64, 73
1, 765922, Control_c, 0, 64, 93
1, 765937, Control_c, 0, 64, 127
1, 765956, Note_off_c, 0, 36, 50
1, 765961, Note_on_c, 0, 48, 71
1, 765997, Note_off_c, 0, 48, 60
1, 766008, Note_on_c, 0, 77, 68
1, 766009, Note_on_c, 0, 79, 68
1, 766011, Control_c, 0, 64, 86
1, 766011, Note_on_c, 0, 88, 61
1, 766014, Note_on_c, 0, 81, 60
1, 766026, Control_c, 0, 64, 68
1, 766028, Note_off_c, 0, 79, 66
1, 766029, Note_on_c, 0, 89, 48
1, 766031, Note_on_c, 0, 83, 28
1, 766031, Note_off_c, 0, 88, 62
1, 766032, Note_off_c, 0, 81, 62
1, 766035, Note_off_c, 0, 77, 64
1, 766041, Control_c, 0, 64, 46
1, 766056, Control_c, 0, 64, 0
1, 766057, Note_off_c, 0, 89, 39
1, 766065, Note_on_c, 0, 80, 46
1, 766077, Note_on_c, 0, 77, 96
1, 766077, Note_on_c, 0, 88, 84
1, 766085, Note_on_c, 0, 31, 73
1, 766085, Control_c, 0, 64, 21
1, 766097, Note_off_c, 0, 88, 70
1, 766100, Control_c, 0, 64, 39
1, 766115, Control_c, 0, 64, 52
1, 766117, Note_on_c, 0, 79, 21
1, 766118, Note_off_c, 0, 80, 65
1, 766120, Note_off_c, 0, 83, 26
1, 766129, Control_c, 0, 64, 60
1, 766131, Note_off_c, 0, 77, 65
1, 766144, Control_c, 0, 64, 65
1, 766147, Note_off_c, 0, 79, 51
1, 766159, Control_c, 0, 64, 73
1, 766174, Control_c, 0, 64, 101
1, 766189, Control_c, 0, 64, 127
1, 766191, Note_off_c, 0, 31, 55
1, 766206, Note_on_c, 0, 43, 63
1, 766247, Control_c, 0, 64, 99
1, 766251, Note_on_c, 0, 74, 72
1, 766252, Note_on_c, 0, 65, 79
1, 766257, Note_on_c, 0, 67, 61
1, 766258, Note_off_c, 0, 43, 61
1, 766259, Note_on_c, 0, 70, 54
1, 766262, Control_c, 0, 64, 72
1, 766275, Note_off_c, 0, 65, 69
1, 766276, Note_off_c, 0, 67, 62
1, 766276, Control_c, 0, 64, 54
1, 766277, Note_off_c, 0, 74, 65
1, 766280, Note_off_c, 0, 70, 59
1, 766291, Control_c, 0, 64, 0
1, 766319, Note_on_c, 0, 65, 81
1, 766322, Note_on_c, 0, 74, 78
1, 766327, Note_on_c, 0, 36, 65
1, 766333, Note_on_c, 0, 70, 83
1, 766335, Control_c, 0, 64, 27
1, 766342, Note_off_c, 0, 65, 68
1, 766343, Note_on_c, 0, 67, 65
1, 766350, Control_c, 0, 64, 49
1, 766361, Note_on_c, 0, 72, 38
1, 766362, Note_off_c, 0, 72, 127
1, 766365, Control_c, 0, 64, 59
1, 766372, Note_off_c, 0, 67, 64
1, 766373, Note_off_c, 0, 70, 62
1, 766375, Note_off_c, 0, 74, 62
1, 766380, Control_c, 0, 64, 64
1, 766394, Control_c, 0, 64, 71
1, 766409, Control_c, 0, 64, 91
1, 766424, Control_c, 0, 64, 127
1, 766442, Note_off_c, 0, 36, 35
1, 766444, Note_on_c, 0, 48, 80
1, 766485, Note_off_c, 0, 48, 62
1, 766486, Note_on_c, 0, 79, 68
1, 766487, Note_on_c, 0, 82, 68
1, 766488, Note_on_c, 0, 76, 72
1, 766491, Note_on_c, 0, 84, 68
1, 766509, Note_off_c, 0, 82, 67
1, 766514, Note_off_c, 0, 84, 65
1, 766520, Note_off_c, 0, 79, 67
1, 766521, Control_c, 0, 64, 119
1, 766523, Note_off_c, 0, 76, 67
1, 766536, Control_c, 0, 64, 78
1, 766551, Control_c, 0, 64, 57
1, 766563, Note_on_c, 0, 76, 89
1, 766563, Note_on_c, 0, 82, 88
1, 766566, Control_c, 0, 64, 23
1, 766567, Note_on_c, 0, 84, 90
1, 766569, Note_on_c, 0, 79, 77
1, 766581, Control_c, 0, 64, 40
1, 766584, Note_on_c, 0, 31, 77
1, 766585, Note_off_c, 0, 84, 72
1, 766593, Note_off_c, 0, 79, 66
1, 766596, Note_off_c, 0, 82, 66
1, 766596, Control_c, 0, 64, 55
1, 766611, Control_c, 0, 64, 61
1, 766614, Note_off_c, 0, 76, 63
1, 766625, Control_c, 0, 64, 66
1, 766640, Control_c, 0, 64, 79
1, 766655, Control_c, 0, 64, 127
1, 766671, Note_off_c, 0, 31, 47
1, 766692, Note_on_c, 0, 43, 72
1, 766725, Note_on_c, 0, 62, 84
1, 766729, Note_on_c, 0, 70, 69
1, 766733, Note_on_c, 0, 74, 68
1, 766742, Note_off_c, 0, 43, 61
1, 766744, Control_c, 0, 64, 78
1, 766749, Note_off_c, 0, 62, 67
1, 766749, Note_off_c, 0, 70, 65
1, 766752, Note_off_c, 0, 74, 64
1, 766758, Note_on_c, 0, 67, 23
1, 766758, Control_c, 0, 64, 57
1, 766773, Control_c, 0, 64, 0
1, 766795, Note_on_c, 0, 62, 75
1, 766797, Note_on_c, 0, 70, 86
1, 766798, Note_off_c, 0, 67, 0
1, 766798, Note_on_c, 0, 67, 29
1, 766801, Note_on_c, 0, 74, 83
1, 766811, Note_on_c, 0, 36, 78
1, 766818, Control_c, 0, 64, 39
1, 766820, Note_off_c, 0, 62, 69
1, 766832, Control_c, 0, 64, 58
1, 766846, Note_off_c, 0, 67, 65
1, 766847, Control_c, 0, 64, 67
1, 766851, Note_off_c, 0, 70, 64
1, 766852, Note_off_c, 0, 74, 65
1, 766862, Control_c, 0, 64, 86
1, 766877, Control_c, 0, 64, 127
1, 766918, Note_off_c, 0, 36, 49
1, 766927, Note_on_c, 0, 48, 75
1, 766950, Control_c, 0, 64, 86
1, 766957, Note_off_c, 0, 48, 66
1, 766964, Note_on_c, 0, 88, 76
1, 766965, Control_c, 0, 64, 63
1, 766968, Note_on_c, 0, 82, 66
1, 766969, Note_on_c, 0, 79, 66
1, 766977, Note_off_c, 0, 88, 70
1, 766980, Control_c, 0, 64, 0
1, 766985, Note_off_c, 0, 82, 41
1, 766986, Note_off_c, 0, 79, 65
1, 767010, Control_c, 0, 64, 21
1, 767025, Control_c, 0, 64, 48
1, 767032, Note_on_c, 0, 88, 69
1, 767033, Note_on_c, 0, 79, 82
1, 767033, Note_on_c, 0, 82, 83
1, 767040, Control_c, 0, 64, 60
1, 767043, Note_on_c, 0, 31, 82
1, 767047, Note_off_c, 0, 88, 67
1, 767055, Control_c, 0, 64, 67
1, 767070, Control_c, 0, 64, 81
1, 767070, Note_off_c, 0, 79, 59
1, 767085, Control_c, 0, 64, 127
1, 767095, Note_off_c, 0, 82, 60
1, 767098, Note_on_c, 0, 73, 88
1, 767123, Note_off_c, 0, 31, 60
1, 767141, Note_off_c, 0, 73, 67
1, 767150, Note_on_c, 0, 43, 74
1, 767163, Note_on_c, 0, 74, 60
1, 767172, Note_on_c, 0, 76, 63
1, 767186, Note_off_c, 0, 74, 63
1, 767188, Control_c, 0, 64, 82
1, 767191, Note_off_c, 0, 76, 64
1, 767196, Note_off_c, 0, 43, 61
1, 767203, Control_c, 0, 64, 59
1, 767217, Control_c, 0, 64, 0
1, 767251, Note_on_c, 0, 76, 85
1, 767255, Note_on_c, 0, 72, 72
1, 767257, Note_on_c, 0, 34, 79
1, 767263, Note_on_c, 0, 74, 55
1, 767270, Control_c, 0, 64, 44
1, 767285, Note_off_c, 0, 76, 65
1, 767285, Control_c, 0, 64, 59
1, 767286, Note_off_c, 0, 72, 60
1, 767293, Note_off_c, 0, 74, 50
1, 767300, Control_c, 0, 64, 68
1, 767315, Control_c, 0, 64, 83
1, 767329, Control_c, 0, 64, 127
1, 767337, Note_on_c, 0, 77, 73
1, 767340, Note_on_c, 0, 70, 73
1, 767354, Note_on_c, 0, 71, 50
1, 767359, Note_on_c, 0, 46, 76
1, 767375, Note_off_c, 0, 34, 61
1, 767375, Note_off_c, 0, 71, 60
1, 767383, Note_off_c, 0, 70, 62
1, 767390, Note_off_c, 0, 46, 65
1, 767395, Note_off_c, 0, 77, 66
1, 767403, Control_c, 0, 64, 79
1, 767418, Control_c, 0, 64, 56
1, 767433, Control_c, 0, 64, 0
1, 767469, Note_on_c, 0, 88, 93
1, 767475, Note_on_c, 0, 28, 81
1, 767475, Note_on_c, 0, 82, 89
1, 767478, Control_c, 0, 64, 40
1, 767487, Note_off_c, 0, 88, 71
1, 767493, Control_c, 0, 64, 63
1, 767493, Note_on_c, 0, 89, 57
1, 767494, Note_off_c, 0, 89, 127
1, 767494, Note_off_c, 0, 82, 73
1, 767508, Control_c, 0, 64, 82
1, 767510, Note_on_c, 0, 29, 32
1, 767523, Control_c, 0, 64, 127
1, 767538, Note_off_c, 0, 28, 59
1, 767570, Note_off_c, 0, 29, 43
1, 767574, Note_on_c, 0, 41, 75
1, 767618, Note_off_c, 0, 41, 64
1, 767654, Note_on_c, 0, 58, 83
1, 767700, Control_c, 0, 64, 85
1, 767704, Note_off_c, 0, 58, 62
1, 767705, Note_on_c, 0, 34, 75
1, 767715, Control_c, 0, 64, 58
1, 767719, Note_on_c, 0, 56, 75
1, 767729, Control_c, 0, 64, 0
1, 767740, Note_off_c, 0, 34, 65
1, 767755, Note_off_c, 0, 56, 66
1, 767803, Note_on_c, 0, 63, 64
1, 767822, Note_off_c, 0, 63, 61
1, 767879, Note_on_c, 0, 47, 61
1, 767887, Note_on_c, 0, 59, 62
1, 767919, Note_off_c, 0, 47, 65
1, 767938, Note_on_c, 0, 52, 78
1, 767940, Note_off_c, 0, 59, 60
1, 767949, Note_on_c, 0, 58, 62
1, 767967, Note_off_c, 0, 52, 69
1, 768013, Note_off_c, 0, 58, 62
1, 768051, Note_on_c, 0, 61, 63
1, 768097, Note_off_c, 0, 61, 62
1, 768136, Note_on_c, 0, 58, 66
1, 768173, Note_off_c, 0, 58, 64
1, 768176, Note_on_c, 0, 34, 66
1, 768195, Note_on_c, 0, 56, 78
1, 768206, Note_off_c, 0, 34, 62
1, 768233, Note_off_c, 0, 56, 62
1, 768277, Note_on_c, 0, 63, 65
1, 768317, Note_off_c, 0, 63, 65
1, 768363, Note_on_c, 0, 59, 55
1, 768378, Note_on_c, 0, 41, 44
1, 768409, Note_off_c, 0, 41, 54
1, 768415, Note_on_c, 0, 46, 70
1, 768421, Note_off_c, 0, 59, 63
1, 768423, Note_on_c, 0, 58, 75
1, 768447, Note_off_c, 0, 46, 64
1, 768464, Note_off_c, 0, 58, 59
1, 768509, Note_on_c, 0, 61, 68
1, 768556, Note_off_c, 0, 61, 60
1, 768581, Note_on_c, 0, 58, 69
1, 768623, Note_off_c, 0, 58, 64
1, 768644, Note_on_c, 0, 56, 80
1, 768649, Note_on_c, 0, 34, 65
1, 768667, Note_off_c, 0, 56, 69
1, 768670, Control_c, 0, 64, 52
1, 768679, Note_off_c, 0, 34, 63
1, 768685, Control_c, 0, 64, 67
1, 768700, Control_c, 0, 64, 85
1, 768715, Control_c, 0, 64, 127
1, 768851, Note_on_c, 0, 54, 43
1, 768892, Note_on_c, 0, 63, 78
1, 768893, Note_on_c, 0, 44, 104
1, 768893, Note_on_c, 0, 60, 65
1, 768939, Note_on_c, 0, 43, 32
1, 768942, Note_off_c, 0, 54, 57
1, 768979, Note_off_c, 0, 43, 46
1, 769007, Note_off_c, 0, 60, 60
1, 769021, Note_off_c, 0, 63, 61
1, 769049, Note_on_c, 0, 55, 62
1, 769076, Note_off_c, 0, 44, 62
1, 769079, Control_c, 0, 64, 84
1, 769085, Note_on_c, 0, 43, 76
1, 769094, Control_c, 0, 64, 39
1, 769109, Control_c, 0, 64, 0
1, 769116, Note_off_c, 0, 43, 69
1, 769121, Note_on_c, 0, 58, 79
1, 769122, Note_on_c, 0, 61, 85
1, 769126, Note_on_c, 0, 64, 96
1, 769129, Note_on_c, 0, 50, 80
1, 769156, Note_off_c, 0, 50, 70
1, 769168, Control_c, 0, 64, 32
1, 769183, Control_c, 0, 64, 74
1, 769185, Note_off_c, 0, 55, 62
1, 769198, Control_c, 0, 64, 127
1, 769201, Note_off_c, 0, 61, 61
1, 769202, Note_off_c, 0, 64, 56
1, 769339, Note_off_c, 0, 58, 33
1, 769358, Note_on_c, 0, 67, 86
1, 769376, Note_on_c, 0, 58, 57
1, 769386, Note_on_c, 0, 64, 70
1, 769389, Note_off_c, 0, 67, 66
1, 769391, Note_on_c, 0, 61, 63
1, 769393, Note_on_c, 0, 74, 87
1, 769405, Note_on_c, 0, 55, 28
1, 769409, Note_off_c, 0, 64, 69
1, 769416, Note_off_c, 0, 74, 67
1, 769418, Note_off_c, 0, 61, 65
1, 769421, Note_off_c, 0, 58, 62
1, 769436, Note_off_c, 0, 55, 54
1, 769489, Note_on_c, 0, 64, 72
1, 769496, Note_on_c, 0, 58, 63
1, 769499, Note_on_c, 0, 61, 60
1, 769520, Note_on_c, 0, 55, 41
1, 769530, Note_off_c, 0, 58, 62
1, 769530, Note_off_c, 0, 61, 66
1, 769537, Note_off_c, 0, 64, 55
1, 769547, Note_off_c, 0, 55, 55
1, 769594, Note_on_c, 0, 79, 89
1, 769613, Note_on_c, 0, 61, 75
1, 769617, Note_on_c, 0, 64, 79
1, 769619, Note_on_c, 0, 58, 76
1, 769622, Note_on_c, 0, 55, 61
1, 769622, Note_on_c, 0, 86, 88
1, 769628, Note_off_c, 0, 79, 63
1, 769642, Note_off_c, 0, 64, 65
1, 769651, Note_off_c, 0, 58, 59
1, 769654, Note_off_c, 0, 55, 64
1, 769654, Note_off_c, 0, 86, 63
1, 769667, Note_off_c, 0, 61, 60
1, 769727, Note_on_c, 0, 55, 80
1, 769730, Note_on_c, 0, 64, 93
1, 769735, Note_on_c, 0, 61, 77
1, 769738, Note_on_c, 0, 58, 85
1, 769837, Note_off_c, 0, 64, 55
1, 769839, Poly_aftertouch_c, 0, 57, 127
1, 769854, Note_on_c, 0, 48, 101
1, 769866, Note_off_c, 0, 61, 57
1, 769870, Note_off_c, 0, 58, 57
1, 769887, Note_off_c, 0, 55, 53
1, 769890, Note_on_c, 0, 47, 31
1, 769891, Note_off_c, 0, 47, 127
1, 769894, Poly_aftertouch_c, 0, 57, 0
1, 769976, Control_c, 0, 64, 79
1, 769979, Note_on_c, 0, 55, 56
1, 769983, Note_on_c, 0, 58, 75
1, 769983, Note_on_c, 0, 65, 79
1, 769988, Note_on_c, 0, 61, 72
1, 769991, Control_c, 0, 64, 24
1, 770006, Control_c, 0, 64, 0
1, 770021, Note_off_c, 0, 65, 63
1, 770033, Note_off_c, 0, 48, 62
1, 770036, Note_on_c, 0, 43, 72
1, 770036, Note_off_c, 0, 55, 56
1, 770042, Note_off_c, 0, 61, 61
1, 770042, Note_off_c, 0, 58, 64
1, 770071, Note_on_c, 0, 50, 92
1, 770075, Note_off_c, 0, 43, 65
1, 770077, Note_on_c, 0, 55, 70
1, 770077, Poly_aftertouch_c, 0, 58, 0
1, 770079, Note_on_c, 0, 64, 95
1, 770080, Note_on_c, 0, 61, 74
1, 770084, Note_on_c, 0, 58, 74
1, 770099, Note_off_c, 0, 50, 67
1, 770110, Control_c, 0, 64, 35
1, 770124, Control_c, 0, 64, 76
1, 770139, Control_c, 0, 64, 127
1, 770172, Note_off_c, 0, 64, 57
1, 770176, Poly_aftertouch_c, 0, 57, 127
1, 770210, Note_off_c, 0, 55, 57
1, 770214, Poly_aftertouch_c, 0, 57, 0
1, 770225, Note_off_c, 0, 58, 56
1, 770226, Note_off_c, 0, 61, 60
1, 770317, Note_on_c, 0, 67, 68
1, 770328, Note_on_c, 0, 64, 70
1, 770339, Note_on_c, 0, 61, 65
1, 770343, Note_off_c, 0, 67, 65
1, 770345, Note_on_c, 0, 58, 61
1, 770345, Note_on_c, 0, 74, 81
1, 770346, Note_on_c, 0, 55, 45
1, 770353, Note_off_c, 0, 64, 67
1, 770364, Note_off_c, 0, 61, 68
1, 770371, Note_off_c, 0, 55, 60
1, 770374, Note_off_c, 0, 58, 64
1, 770387, Note_off_c, 0, 74, 62
1, 770436, Note_on_c, 0, 64, 73
1, 770440, Note_on_c, 0, 58, 73
1, 770446, Note_on_c, 0, 55, 60
1, 770446, Note_on_c, 0, 61, 63
1, 770474, Note_off_c, 0, 58, 62
1, 770477, Note_off_c, 0, 61, 64
1, 770484, Note_off_c, 0, 64, 58
1, 770485, Note_off_c, 0, 55, 61
1, 770536, Note_on_c, 0, 79, 73
1, 770560, Note_on_c, 0, 64, 73
1, 770563, Note_on_c, 0, 55, 61
1, 770563, Note_on_c, 0, 61, 67
1, 770564, Note_on_c, 0, 86, 84
1, 770564, Note_off_c, 0, 79, 67
1, 770568, Note_on_c, 0, 58, 71
1, 770590, Note_off_c, 0, 86, 66
1, 770596, Note_off_c, 0, 64, 62
1, 770600, Note_off_c, 0, 55, 60
1, 770607, Note_off_c, 0, 58, 64
1, 770608, Note_off_c, 0, 61, 62
1, 770675, Note_on_c, 0, 55, 78
1, 770676, Note_on_c, 0, 64, 91
1, 770679, Note_on_c, 0, 61, 80
1, 770680, Note_on_c, 0, 58, 86
1, 770781, Note_off_c, 0, 64, 54
1, 770786, Note_on_c, 0, 48, 102
1, 770811, Note_off_c, 0, 61, 55
1, 770811, Note_off_c, 0, 58, 55
1, 770814, Control_c, 0, 64, 100
1, 770829, Control_c, 0, 64, 62
1, 770836, Note_off_c, 0, 55, 56
1, 770843, Control_c, 0, 64, 0
1, 770921, Note_on_c, 0, 65, 74
1, 770926, Note_on_c, 0, 61, 66
1, 770927, Note_on_c, 0, 58, 66
1, 770933, Note_on_c, 0, 55, 49
1, 770973, Note_off_c, 0, 48, 59
1, 770992, Note_on_c, 0, 43, 67
1, 771007, Note_off_c, 0, 65, 56
1, 771031, Note_off_c, 0, 43, 66
1, 771033, Note_on_c, 0, 50, 76
1, 771036, Note_off_c, 0, 58, 57
1, 771037, Note_off_c, 0, 61, 55
1, 771058, Control_c, 0, 64, 35
1, 771062, Note_off_c, 0, 50, 68
1, 771073, Control_c, 0, 64, 57
1, 771088, Control_c, 0, 64, 70
1, 771103, Control_c, 0, 64, 91
1, 771118, Control_c, 0, 64, 127
1, 771142, Note_off_c, 0, 55, 0
1, 771158, Note_on_c, 0, 55, 34
1, 771170, Note_on_c, 0, 58, 61
1, 771171, Note_on_c, 0, 61, 61
1, 771180, Note_on_c, 0, 64, 63
1, 771234, Note_on_c, 0, 67, 74
1, 771236, Note_off_c, 0, 64, 57
1, 771248, Note_off_c, 0, 61, 50
1, 771258, Note_off_c, 0, 58, 53
1, 771274, Note_off_c, 0, 67, 63
1, 771277, Note_on_c, 0, 74, 79
1, 771291, Note_off_c, 0, 55, 51
1, 771329, Note_off_c, 0, 74, 64
1, 771383, Note_on_c, 0, 65, 73
1, 771386, Note_on_c, 0, 61, 64
1, 771393, Note_on_c, 0, 55, 54
1, 771393, Note_on_c, 0, 58, 66
1, 771445, Note_off_c, 0, 65, 60
1, 771467, Note_on_c, 0, 79, 74
1, 771479, Note_off_c, 0, 61, 54
1, 771487, Note_off_c, 0, 58, 58
1, 771505, Note_on_c, 0, 86, 88
1, 771518, Note_off_c, 0, 55, 50
1, 771518, Note_off_c, 0, 79, 66
1, 771565, Note_off_c, 0, 86, 64
1, 771614, Note_on_c, 0, 58, 76
1, 771614, Note_on_c, 0, 64, 82
1, 771616, Note_on_c, 0, 61, 73
1, 771618, Note_on_c, 0, 55, 58
1, 771692, Note_on_c, 0, 91, 85
1, 771732, Note_on_c, 0, 98, 91
1, 771734, Note_off_c, 0, 58, 54
1, 771737, Note_off_c, 0, 64, 56
1, 771754, Note_off_c, 0, 61, 55
1, 771772, Note_off_c, 0, 91, 63
1, 771790, Note_off_c, 0, 55, 55
1, 771821, Note_off_c, 0, 98, 67
1, 771848, Note_on_c, 0, 65, 85
1, 771858, Note_on_c, 0, 58, 78
1, 771860, Note_on_c, 0, 61, 78
1, 771864, Note_on_c, 0, 55, 53
1, 771919, Note_on_c, 0, 93, 91
1, 771940, Note_off_c, 0, 65, 57
1, 771972, Note_on_c, 0, 100, 100
1, 771990, Note_off_c, 0, 61, 53
1, 771999, Note_off_c, 0, 93, 65
1, 771999, Note_off_c, 0, 55, 57
1, 772006, Note_off_c, 0, 58, 55
1, 772045, Note_off_c, 0, 100, 66
1, 772085, Note_on_c, 0, 64, 92
1, 772090, Note_on_c, 0, 58, 76
1, 772094, Note_on_c, 0, 55, 71
1, 772094, Note_on_c, 0, 61, 81
1, 772149, Note_on_c, 0, 91, 76
1, 772182, Note_off_c, 0, 64, 58
1, 772190, Note_on_c, 0, 98, 95
1, 772206, Note_off_c, 0, 91, 65
1, 772216, Note_off_c, 0, 55, 58
1, 772230, Note_off_c, 0, 58, 58
1, 772233, Note_off_c, 0, 61, 56
1, 772233, Note_off_c, 0, 98, 66
1, 772313, Note_on_c, 0, 65, 94
1, 772320, Note_on_c, 0, 55, 75
1, 772323, Note_on_c, 0, 61, 84
1, 772328, Note_on_c, 0, 58, 81
1, 772366, Note_off_c, 0, 65, 58
1, 772373, Note_on_c, 0, 79, 60
1, 772421, Poly_aftertouch_c, 0, 85, 0
1, 772422, Note_on_c, 0, 86, 92
1, 772434, Poly_aftertouch_c, 0, 85, 0
1, 772439, Note_off_c, 0, 79, 65
1, 772441, Note_off_c, 0, 55, 52
1, 772445, Note_off_c, 0, 61, 56
1, 772456, Note_off_c, 0, 58, 54
1, 772457, Poly_aftertouch_c, 0, 57, 0
1, 772464, Note_off_c, 0, 86, 66
1, 772531, Note_on_c, 0, 55, 71
1, 772539, Note_on_c, 0, 64, 76
1, 772552, Note_on_c, 0, 58, 74
1, 772556, Note_on_c, 0, 61, 62
1, 772564, Note_off_c, 0, 64, 68
1, 772566, Note_off_c, 0, 55, 65
1, 772575, Note_off_c, 0, 61, 61
1, 772575, Note_off_c, 0, 58, 66
1, 772704, Control_c, 0, 64, 64
1, 772718, Control_c, 0, 64, 0
1, 772719, Note_on_c, 0, 51, 97
1, 772724, Note_on_c, 0, 52, 99
1, 772724, Note_on_c, 0, 63, 87
1, 772726, Note_on_c, 0, 39, 88
1, 772726, Note_on_c, 0, 58, 82
1, 772728, Note_on_c, 0, 55, 67
1, 772757, Note_off_c, 0, 51, 67
1, 772763, Control_c, 0, 64, 26
1, 772778, Control_c, 0, 64, 64
1, 772788, Note_off_c, 0, 39, 63
1, 772791, Note_off_c, 0, 52, 64
1, 772793, Control_c, 0, 64, 127
1, 772796, Note_off_c, 0, 63, 66
1, 772806, Note_off_c, 0, 55, 57
1, 772842, Note_off_c, 0, 58, 61
1, 772979, Poly_aftertouch_c, 0, 34, 127
1, 772981, Poly_aftertouch_c, 0, 37, 127
1, 773028, Poly_aftertouch_c, 0, 34, 0
1, 773105, Control_c, 0, 64, 66
1, 773120, Control_c, 0, 64, 0
1, 773130, Note_on_c, 0, 45, 95
1, 773133, Note_on_c, 0, 33, 79
1, 773134, Poly_aftertouch_c, 0, 37, 0
1, 773144, Note_on_c, 0, 106, 105
1, 773162, Note_off_c, 0, 33, 65
1, 773164, Control_c, 0, 64, 58
1, 773177, Note_off_c, 0, 45, 67
1, 773179, Control_c, 0, 64, 82
1, 773193, Control_c, 0, 64, 127
1, 773222, Note_on_c, 0, 104, 90
1, 773264, Note_off_c, 0, 106, 60
1, 773269, Note_on_c, 0, 103, 73
1, 773275, Note_off_c, 0, 104, 62
1, 773320, Note_off_c, 0, 103, 66
1, 773325, Note_on_c, 0, 100, 86
1, 773369, Note_off_c, 0, 100, 66
1, 773393, Note_on_c, 0, 85, 96
1, 773427, Note_on_c, 0, 98, 58
1, 773427, Note_on_c, 0, 99, 58
1, 773440, Note_on_c, 0, 97, 27
1, 773440, Note_off_c, 0, 85, 64
1, 773453, Note_off_c, 0, 98, 63
1, 773455, Note_off_c, 0, 99, 50
1, 773468, Note_on_c, 0, 81, 88
1, 773480, Note_off_c, 0, 97, 31
1, 773482, Note_on_c, 0, 95, 81
1, 773520, Note_off_c, 0, 81, 67
1, 773540, Note_off_c, 0, 95, 65
1, 773551, Note_on_c, 0, 77, 83
1, 773556, Note_on_c, 0, 89, 81
1, 773573, Note_on_c, 0, 91, 37
1, 773587, Note_off_c, 0, 89, 65
1, 773603, Note_off_c, 0, 91, 35
1, 773611, Note_on_c, 0, 74, 82
1, 773624, Note_off_c, 0, 77, 47
1, 773626, Note_on_c, 0, 86, 90
1, 773691, Note_on_c, 0, 82, 93
1, 773693, Note_off_c, 0, 86, 64
1, 773694, Note_off_c, 0, 74, 64
1, 773702, Note_on_c, 0, 71, 62
1, 773732, Note_off_c, 0, 71, 66
1, 773749, Note_off_c, 0, 82, 69
1, 773764, Note_on_c, 0, 79, 85
1, 773765, Note_on_c, 0, 67, 79
1, 773810, Note_off_c, 0, 67, 66
1, 773812, Note_off_c, 0, 79, 66
1, 773823, Note_on_c, 0, 64, 80
1, 773825, Note_on_c, 0, 76, 86
1, 773866, Note_off_c, 0, 76, 63
1, 773887, Note_on_c, 0, 61, 82
1, 773892, Note_on_c, 0, 73, 88
1, 773903, Note_off_c, 0, 64, 63
1, 773931, Note_on_c, 0, 74, 27
1, 773934, Note_off_c, 0, 61, 64
1, 773934, Note_off_c, 0, 73, 69
1, 773963, Note_on_c, 0, 69, 86
1, 773963, Note_off_c, 0, 74, 43
1, 773974, Note_on_c, 0, 57, 88
1, 774020, Note_off_c, 0, 69, 67
1, 774030, Note_off_c, 0, 57, 66
1, 774036, Note_on_c, 0, 65, 82
1, 774042, Note_on_c, 0, 53, 86
1, 774074, Note_off_c, 0, 65, 61
1, 774103, Note_on_c, 0, 62, 83
1, 774104, Note_on_c, 0, 50, 77
1, 774125, Note_on_c, 0, 64, 32
1, 774127, Note_off_c, 0, 53, 59
1, 774151, Note_off_c, 0, 64, 57
1, 774158, Note_on_c, 0, 46, 81
1, 774172, Note_on_c, 0, 59, 81
1, 774175, Note_off_c, 0, 50, 62
1, 774175, Note_off_c, 0, 62, 63
1, 774183, Note_off_c, 0, 46, 70
1, 774218, Note_on_c, 0, 55, 75
1, 774218, Note_off_c, 0, 59, 65
1, 774245, Note_on_c, 0, 43, 78
1, 774263, Note_off_c, 0, 55, 65
1, 774285, Note_on_c, 0, 52, 80
1, 774295, Note_on_c, 0, 40, 71
1, 774306, Note_off_c, 0, 43, 60
1, 774355, Note_on_c, 0, 49, 81
1, 774364, Note_on_c, 0, 37, 71
1, 774364, Control_c, 0, 64, 76
1, 774365, Note_off_c, 0, 52, 65
1, 774379, Control_c, 0, 64, 0
1, 774391, Note_off_c, 0, 40, 63
1, 774408, Note_on_c, 0, 33, 84
1, 774421, Note_off_c, 0, 49, 59
1, 774429, Note_on_c, 0, 45, 86
1, 774437, Note_off_c, 0, 37, 61
1, 774439, Control_c, 0, 64, 48
1, 774454, Control_c, 0, 64, 68
1, 774456, Note_off_c, 0, 45, 69
1, 774469, Control_c, 0, 64, 127
1, 774553, Note_off_c, 0, 33, 59
1, 774661, Note_on_c, 0, 45, 92
1, 774664, Note_on_c, 0, 33, 85
1, 774665, Note_on_c, 0, 86, 91
1, 774667, Note_on_c, 0, 74, 98
1, 774671, Note_on_c, 0, 82, 86
1, 774672, Note_on_c, 0, 85, 81
1, 774683, Note_on_c, 0, 76, 69
1, 774684, Note_off_c, 0, 76, 127
1, 774692, Note_off_c, 0, 82, 66
1, 774698, Note_off_c, 0, 45, 64
1, 774702, Note_off_c, 0, 85, 65
1, 774706, Note_off_c, 0, 74, 63
1, 774708, Note_off_c, 0, 86, 61
1, 774722, Note_off_c, 0, 33, 63
1, 774796, Poly_aftertouch_c, 0, 35, 0
1, 774847, Control_c, 0, 64, 104
1, 774862, Control_c, 0, 64, 62
1, 774877, Control_c, 0, 64, 0
1, 774904, Note_on_c, 0, 74, 101
1, 774907, Note_on_c, 0, 38, 97
1, 774909, Note_on_c, 0, 86, 85
1, 774910, Note_on_c, 0, 26, 84
1, 774912, Note_on_c, 0, 81, 89
1, 774921, Control_c, 0, 64, 43
1, 774922, Note_on_c, 0, 84, 65
1, 774931, Note_off_c, 0, 86, 71
1, 774933, Note_off_c, 0, 26, 64
1, 774935, Note_on_c, 0, 80, 27
1, 774936, Control_c, 0, 64, 71
1, 774938, Note_off_c, 0, 81, 67
1, 774939, Note_off_c, 0, 84, 65
1, 774946, Note_off_c, 0, 74, 69
1, 774951, Control_c, 0, 64, 127
1, 774957, Note_off_c, 0, 38, 67
1, 774969, Note_off_c, 0, 80, 32
1, 775004, Poly_aftertouch_c, 0, 28, 127
1, 775042, Poly_aftertouch_c, 0, 28, 0
1, 775146, Note_on_c, 0, 38, 84
1, 775148, Note_on_c, 0, 50, 102
1, 775184, Note_off_c, 0, 50, 67
1, 775187, Note_off_c, 0, 38, 63
1, 775366, Control_c, 0, 64, 76
1, 775381, Control_c, 0, 64, 0
1, 775387, Note_on_c, 0, 62, 97
1, 775388, Note_on_c, 0, 48, 73
1, 775388, Note_on_c, 0, 52, 96
1, 775388, Note_on_c, 0, 74, 90
1, 775389, Note_on_c, 0, 55, 95
1, 775389, Note_on_c, 0, 70, 89
1, 775390, Note_on_c, 0, 64, 85
1, 775414, Note_off_c, 0, 74, 59
1, 775425, Control_c, 0, 64, 50
1, 775431, Note_off_c, 0, 55, 66
1, 775431, Note_off_c, 0, 70, 67
1, 775433, Note_off_c, 0, 64, 63
1, 775435, Note_off_c, 0, 62, 68
1, 775440, Control_c, 0, 64, 71
1, 775441, Note_off_c, 0, 52, 70
1, 775455, Control_c, 0, 64, 127
1, 775462, Note_off_c, 0, 48, 65
1, 775640, Poly_aftertouch_c, 0, 42, 0
1, 775643, Note_on_c, 0, 50, 94
1, 775645, Note_on_c, 0, 40, 91
1, 775649, Note_on_c, 0, 38, 76
1, 775664, Note_off_c, 0, 50, 71
1, 775678, Note_off_c, 0, 38, 63
1, 775723, Note_off_c, 0, 40, 57
1, 775818, Control_c, 0, 64, 116
1, 775833, Control_c, 0, 64, 64
1, 775847, Note_on_c, 0, 44, 3
1, 775848, Control_c, 0, 64, 0
1, 775852, Note_off_c, 0, 44, 48
1, 775860, Note_on_c, 0, 62, 98
1, 775860, Note_on_c, 0, 50, 100
1, 775860, Note_on_c, 0, 74, 91
1, 775862, Note_on_c, 0, 38, 84
1, 775865, Note_on_c, 0, 69, 82
1, 775877, Control_c, 0, 64, 32
1, 775892, Control_c, 0, 64, 64
1, 775893, Note_off_c, 0, 74, 65
1, 775893, Note_on_c, 0, 41, 50
1, 775903, Note_off_c, 0, 50, 65
1, 775903, Note_off_c, 0, 69, 63
1, 775907, Control_c, 0, 64, 103
1, 775922, Control_c, 0, 64, 127
1, 775925, Note_off_c, 0, 62, 64
1, 775929, Note_off_c, 0, 41, 53
1, 775930, Note_off_c, 0, 38, 63
1, 776108, Note_on_c, 0, 45, 94
1, 776110, Note_on_c, 0, 33, 85
1, 776136, Note_off_c, 0, 45, 67
1, 776165, Note_off_c, 0, 33, 64
1, 776345, Control_c, 0, 64, 64
1, 776359, Control_c, 0, 64, 0
1, 776368, Note_on_c, 0, 38, 102
1, 776370, Note_on_c, 0, 33, 94
1, 776373, Note_on_c, 0, 26, 89
1, 776404, Control_c, 0, 64, 35
1, 776418, Control_c, 0, 64, 87
1, 776424, Note_on_c, 0, 31, 35
1, 776427, Note_off_c, 0, 38, 67
1, 776433, Control_c, 0, 64, 127
1, 776435, Note_on_c, 0, 29, 17
1, 776436, Note_off_c, 0, 26, 66
1, 776443, Note_off_c, 0, 33, 69
1, 776468, Note_off_c, 0, 31, 53
1, 776485, Note_off_c, 0, 29, 51
1, 776611, Control_c, 0, 64, 118
1, 776626, Control_c, 0, 64, 66
1, 776641, Control_c, 0, 64, 0
1, 776716, End_track
0, 0, End_of_file
