0, 0, Header, 0, 1, 384
1, 0, Start_track
1, 0, Title_t, "RavelJeuxDeau--Wang             "
1, 0, Text_t, "2011 ePiano Junior Competition"
1, 0, Text_t, "captured in spring and summer 2011"
1, 0, Text_t, "http://www.piano-e-competition.com/"
1, 0, Text_t, "standard-resolution version"
1, 0, Text_t, "File processed for distribution with software designed and coded by Dr. John Q. Walker, founder of Zenph Sound Innovations"
1, 0, Instrument_name_t, "Yamaha Disklavier Pro Mark IV concert grand piano, model DCFIIISM4PRO"
1, 0, Sequencer_specific, 39, 67, 113, 0, 1, 0, 1, 0, 82, 97, 118, 101, 108, 32, 74, 101, 117, 120, 32, 68, 101, 97, 117, 32, 90, 105, 116, 111, 110, 103, 32, 87, 97, 110, 103, 32, 32, 32, 32, 32
1, 0, Sequencer_specific, 6, 67, 113, 0, 0, 0, 69
1, 0, System_exclusive, 21, 67, 113, 126, 21, 0, 2, 2, 2, 5, 12, 8, 4, 14, 1, 4, 10, 8, 14, 14, 2, 247
1, 0, Sequencer_specific, 5, 67, 123, 12, 2, 1
1, 0, Tempo, 512820
1, 0, Time_signature, 4, 2, 24, 8
1, 0, System_exclusive, 5, 126, 127, 9, 1, 247
1, 1, System_exclusive, 8, 67, 16, 76, 0, 0, 126, 0, 247
1, 2, System_exclusive, 8, 67, 16, 76, 8, 9, 7, 1, 247
1, 3, Control_c, 0, 0, 108
1, 3, Control_c, 1, 0, 108
1, 3, Control_c, 2, 0, 0
1, 3, Control_c, 3, 0, 0
1, 3, Control_c, 4, 0, 0
1, 3, Control_c, 5, 0, 0
1, 3, Control_c, 6, 0, 0
1, 3, Control_c, 7, 0, 0
1, 3, Control_c, 8, 0, 0
1, 3, Control_c, 9, 0, 127
1, 3, Control_c, 10, 0, 0
1, 3, Control_c, 11, 0, 0
1, 3, Control_c, 12, 0, 0
1, 3, Control_c, 13, 0, 0
1, 3, Control_c, 14, 0, 0
1, 3, Control_c, 15, 0, 0
1, 4, Control_c, 0, 32, 0
1, 4, Control_c, 1, 32, 0
1, 4, Control_c, 2, 32, 0
1, 4, Control_c, 3, 32, 0
1, 4, Control_c, 4, 32, 0
1, 4, Control_c, 5, 32, 0
1, 4, Control_c, 6, 32, 0
1, 4, Control_c, 7, 32, 0
1, 4, Control_c, 8, 32, 0
1, 4, Control_c, 9, 32, 0
1, 4, Control_c, 10, 32, 0
1, 4, Control_c, 11, 32, 0
1, 4, Control_c, 12, 32, 0
1, 4, Control_c, 13, 32, 0
1, 4, Control_c, 14, 32, 0
1, 4, Control_c, 15, 32, 0
1, 5, Program_c, 0, 0
1, 5, Program_c, 1, 0
1, 5, Program_c, 2, 0
1, 5, Program_c, 3, 0
1, 5, Program_c, 4, 0
1, 5, Program_c, 5, 0
1, 5, Program_c, 6, 0
1, 5, Program_c, 7, 0
1, 5, Program_c, 8, 0
1, 5, Program_c, 9, 0
1, 5, Program_c, 10, 0
1, 5, Program_c, 11, 0
1, 5, Program_c, 12, 0
1, 5, Program_c, 13, 0
1, 5, Program_c, 14, 0
1, 5, Program_c, 15, 0
1, 6, Control_c, 0, 7, 100
1, 6, Control_c, 1, 7, 100
1, 6, Control_c, 2, 7, 100
1, 6, Control_c, 3, 7, 100
1, 6, Control_c, 4, 7, 100
1, 6, Control_c, 5, 7, 100
1, 6, Control_c, 6, 7, 100
1, 6, Control_c, 7, 7, 100
1, 6, Control_c, 8, 7, 100
1, 6, Control_c, 9, 7, 100
1, 6, Control_c, 10, 7, 100
1, 6, Control_c, 11, 7, 100
1, 6, Control_c, 12, 7, 100
1, 6, Control_c, 13, 7, 100
1, 6, Control_c, 14, 7, 100
1, 6, Control_c, 15, 7, 100
1, 42, Control_c, 0, 64, 15
1, 42, Control_c, 0, 67, 15
1, 79, Control_c, 0, 64, 31
1, 79, Control_c, 0, 67, 31
1, 116, Control_c, 0, 64, 46
1, 116, Control_c, 0, 67, 46
1, 153, Control_c, 0, 64, 63
1, 153, Control_c, 0, 67, 63
1, 190, Control_c, 0, 64, 77
1, 190, Control_c, 0, 67, 77
1, 226, Control_c, 0, 64, 94
1, 226, Control_c, 0, 67, 94
1, 263, Control_c, 0, 64, 108
1, 263, Control_c, 0, 67, 108
1, 300, Control_c, 0, 64, 127
1, 300, Control_c, 0, 67, 127
1, 386, Note_on_c, 0, 64, 31
1, 392, Note_on_c, 0, 75, 28
1, 397, Note_on_c, 0, 71, 25
1, 558, Note_off_c, 0, 64, 31
1, 591, Note_off_c, 0, 75, 33
1, 609, Note_on_c, 0, 80, 44
1, 631, Note_off_c, 0, 71, 33
1, 695, Note_off_c, 0, 80, 60
1, 770, Note_on_c, 0, 68, 33
1, 785, Note_on_c, 0, 87, 46
1, 788, Note_on_c, 0, 76, 15
1, 814, Note_off_c, 0, 68, 52
1, 832, Note_off_c, 0, 76, 40
1, 881, Note_off_c, 0, 87, 54
1, 932, Note_on_c, 0, 90, 52
1, 1052, Note_off_c, 0, 90, 48
1, 1074, Note_on_c, 0, 83, 38
1, 1074, Note_on_c, 0, 76, 36
1, 1083, Note_on_c, 0, 87, 54
1, 1117, Note_off_c, 0, 83, 57
1, 1128, Note_off_c, 0, 76, 58
1, 1169, Note_off_c, 0, 87, 57
1, 1203, Note_on_c, 0, 80, 52
1, 1248, Note_off_c, 0, 80, 62
1, 1342, Note_on_c, 0, 69, 43
1, 1349, Note_on_c, 0, 73, 51
1, 1381, Note_on_c, 0, 76, 26
1, 1381, Note_off_c, 0, 73, 66
1, 1390, Note_off_c, 0, 69, 59
1, 1396, Note_on_c, 0, 80, 50
1, 1422, Note_off_c, 0, 76, 49
1, 1438, Note_off_c, 0, 80, 63
1, 1472, Note_on_c, 0, 85, 55
1, 1502, Note_off_c, 0, 85, 67
1, 1513, Note_on_c, 0, 88, 65
1, 1581, Note_off_c, 0, 88, 55
1, 1608, Control_c, 0, 64, 103
1, 1623, Note_on_c, 0, 75, 57
1, 1623, Control_c, 0, 64, 85
1, 1635, Note_on_c, 0, 71, 36
1, 1638, Control_c, 0, 64, 74
1, 1639, Note_on_c, 0, 64, 41
1, 1653, Control_c, 0, 64, 68
1, 1667, Control_c, 0, 64, 68
1, 1682, Control_c, 0, 64, 69
1, 1697, Control_c, 0, 64, 72
1, 1712, Control_c, 0, 64, 74
1, 1718, Note_off_c, 0, 64, 45
1, 1720, Note_off_c, 0, 75, 57
1, 1727, Control_c, 0, 64, 78
1, 1741, Control_c, 0, 64, 84
1, 1756, Control_c, 0, 64, 92
1, 1771, Control_c, 0, 64, 109
1, 1786, Control_c, 0, 64, 127
1, 1806, Note_on_c, 0, 80, 47
1, 1864, Note_off_c, 0, 71, 40
1, 1892, Note_off_c, 0, 80, 61
1, 1948, Note_on_c, 0, 76, 36
1, 1954, Note_on_c, 0, 68, 33
1, 1963, Note_on_c, 0, 87, 47
1, 1995, Note_off_c, 0, 76, 57
1, 2003, Note_off_c, 0, 68, 46
1, 2067, Note_off_c, 0, 87, 54
1, 2112, Note_on_c, 0, 90, 50
1, 2261, Note_off_c, 0, 90, 33
1, 2267, Note_on_c, 0, 83, 50
1, 2277, Note_on_c, 0, 87, 53
1, 2285, Note_on_c, 0, 76, 30
1, 2311, Note_off_c, 0, 83, 62
1, 2329, Note_off_c, 0, 76, 51
1, 2356, Note_off_c, 0, 87, 61
1, 2417, Note_on_c, 0, 80, 53
1, 2464, Note_off_c, 0, 80, 58
1, 2552, Note_on_c, 0, 69, 47
1, 2573, Note_on_c, 0, 73, 44
1, 2576, Note_on_c, 0, 76, 41
1, 2609, Note_off_c, 0, 69, 57
1, 2615, Note_off_c, 0, 73, 64
1, 2634, Note_on_c, 0, 80, 49
1, 2643, Note_off_c, 0, 76, 53
1, 2666, Note_off_c, 0, 80, 63
1, 2694, Note_on_c, 0, 85, 55
1, 2729, Note_off_c, 0, 85, 64
1, 2746, Note_on_c, 0, 88, 57
1, 2802, Note_off_c, 0, 88, 55
1, 2853, Note_on_c, 0, 64, 46
1, 2857, Note_on_c, 0, 75, 53
1, 2860, Note_on_c, 0, 71, 47
1, 2911, Note_off_c, 0, 64, 53
1, 2934, Note_off_c, 0, 75, 59
1, 3015, Note_on_c, 0, 80, 65
1, 3023, Note_off_c, 0, 71, 33
1, 3077, Note_off_c, 0, 80, 62
1, 3161, Note_on_c, 0, 76, 48
1, 3164, Note_on_c, 0, 87, 63
1, 3179, Note_on_c, 0, 68, 19
1, 3209, Note_off_c, 0, 87, 60
1, 3212, Note_off_c, 0, 76, 58
1, 3222, Note_off_c, 0, 68, 39
1, 3304, Note_on_c, 0, 90, 68
1, 3358, Note_off_c, 0, 90, 60
1, 3471, Note_on_c, 0, 80, 55
1, 3519, Poly_aftertouch_c, 0, 76, 127
1, 3525, Note_on_c, 0, 71, 18
1, 3526, Note_off_c, 0, 80, 51
1, 3563, Poly_aftertouch_c, 0, 76, 0
1, 3623, Note_on_c, 0, 87, 51
1, 3640, Note_off_c, 0, 71, 43
1, 3692, Note_off_c, 0, 87, 55
1, 3775, Note_on_c, 0, 76, 29
1, 3783, Note_on_c, 0, 92, 54
1, 3790, Note_on_c, 0, 83, 34
1, 3849, Note_off_c, 0, 76, 57
1, 3856, Note_off_c, 0, 83, 43
1, 3860, Note_off_c, 0, 92, 59
1, 3957, Note_on_c, 0, 95, 54
1, 3997, Note_off_c, 0, 95, 63
1, 4139, Note_on_c, 0, 76, 34
1, 4150, Note_on_c, 0, 69, 44
1, 4151, Control_c, 0, 64, 96
1, 4161, Note_on_c, 0, 80, 46
1, 4166, Control_c, 0, 64, 80
1, 4181, Control_c, 0, 64, 69
1, 4196, Control_c, 0, 64, 63
1, 4211, Control_c, 0, 64, 61
1, 4227, Control_c, 0, 64, 63
1, 4241, Control_c, 0, 64, 64
1, 4255, Note_off_c, 0, 80, 54
1, 4256, Control_c, 0, 64, 65
1, 4271, Control_c, 0, 64, 67
1, 4285, Control_c, 0, 64, 70
1, 4300, Control_c, 0, 64, 76
1, 4315, Control_c, 0, 64, 85
1, 4329, Control_c, 0, 64, 99
1, 4332, Note_on_c, 0, 85, 48
1, 4344, Control_c, 0, 64, 125
1, 4359, Control_c, 0, 64, 127
1, 4359, Note_off_c, 0, 69, 32
1, 4416, Note_off_c, 0, 76, 52
1, 4425, Note_off_c, 0, 85, 59
1, 4451, Note_on_c, 0, 73, 46
1, 4480, Note_on_c, 0, 81, 37
1, 4490, Note_on_c, 0, 92, 56
1, 4503, Note_off_c, 0, 73, 62
1, 4537, Note_off_c, 0, 81, 57
1, 4550, Note_off_c, 0, 92, 58
1, 4633, Note_on_c, 0, 97, 63
1, 4714, Note_off_c, 0, 97, 63
1, 4747, Note_on_c, 0, 88, 56
1, 4759, Note_on_c, 0, 81, 45
1, 4774, Note_off_c, 0, 88, 68
1, 4788, Note_off_c, 0, 81, 66
1, 4791, Note_on_c, 0, 92, 56
1, 4864, Note_off_c, 0, 92, 62
1, 4905, Note_on_c, 0, 85, 61
1, 4974, Note_off_c, 0, 85, 58
1, 5012, Note_on_c, 0, 62, 39
1, 5031, Note_on_c, 0, 66, 46
1, 5065, Note_on_c, 0, 72, 51
1, 5072, Note_on_c, 0, 78, 54
1, 5081, Note_off_c, 0, 66, 60
1, 5083, Note_off_c, 0, 62, 58
1, 5110, Note_off_c, 0, 72, 61
1, 5118, Note_on_c, 0, 84, 54
1, 5122, Note_off_c, 0, 78, 61
1, 5155, Note_off_c, 0, 84, 63
1, 5187, Note_on_c, 0, 88, 50
1, 5226, Note_on_c, 0, 92, 61
1, 5226, Note_off_c, 0, 88, 66
1, 5278, Note_off_c, 0, 92, 60
1, 5343, Note_on_c, 0, 80, 55
1, 5343, Note_on_c, 0, 76, 46
1, 5352, Note_on_c, 0, 69, 48
1, 5406, Note_off_c, 0, 69, 57
1, 5417, Note_off_c, 0, 80, 54
1, 5489, Note_on_c, 0, 85, 60
1, 5546, Note_off_c, 0, 85, 62
1, 5554, Note_off_c, 0, 76, 36
1, 5629, Note_on_c, 0, 73, 41
1, 5635, Note_on_c, 0, 92, 60
1, 5643, Note_on_c, 0, 81, 46
1, 5663, Note_off_c, 0, 73, 57
1, 5695, Note_off_c, 0, 92, 63
1, 5704, Note_off_c, 0, 81, 53
1, 5785, Note_on_c, 0, 97, 61
1, 5859, Note_off_c, 0, 97, 63
1, 5936, Note_on_c, 0, 88, 46
1, 5944, Note_on_c, 0, 81, 46
1, 5962, Note_on_c, 0, 92, 57
1, 5969, Note_off_c, 0, 88, 65
1, 5982, Note_off_c, 0, 81, 66
1, 6034, Note_off_c, 0, 92, 60
1, 6097, Note_on_c, 0, 85, 54
1, 6160, Note_off_c, 0, 85, 56
1, 6231, Note_on_c, 0, 66, 50
1, 6242, Note_on_c, 0, 62, 47
1, 6247, Note_on_c, 0, 78, 48
1, 6267, Note_on_c, 0, 72, 47
1, 6291, Note_off_c, 0, 66, 53
1, 6293, Note_off_c, 0, 78, 61
1, 6304, Note_on_c, 0, 84, 60
1, 6311, Note_off_c, 0, 62, 61
1, 6318, Note_off_c, 0, 72, 60
1, 6346, Note_off_c, 0, 84, 59
1, 6372, Note_on_c, 0, 88, 59
1, 6405, Note_off_c, 0, 88, 66
1, 6413, Note_on_c, 0, 92, 66
1, 6468, Note_off_c, 0, 92, 57
1, 6520, Note_on_c, 0, 76, 50
1, 6523, Note_on_c, 0, 80, 62
1, 6527, Note_on_c, 0, 69, 47
1, 6574, Note_off_c, 0, 69, 59
1, 6613, Note_off_c, 0, 80, 62
1, 6672, Note_on_c, 0, 85, 62
1, 6770, Note_off_c, 0, 85, 62
1, 6776, Note_off_c, 0, 76, 41
1, 6807, Note_on_c, 0, 81, 42
1, 6823, Note_on_c, 0, 92, 62
1, 6824, Note_on_c, 0, 73, 43
1, 6854, Note_off_c, 0, 81, 57
1, 6881, Note_off_c, 0, 92, 54
1, 6884, Note_off_c, 0, 73, 57
1, 6966, Note_on_c, 0, 97, 60
1, 6997, Note_off_c, 0, 97, 65
1, 7128, Note_on_c, 0, 78, 61
1, 7137, Note_on_c, 0, 72, 41
1, 7154, Note_on_c, 0, 66, 31
1, 7172, Note_off_c, 0, 78, 63
1, 7278, Note_on_c, 0, 84, 55
1, 7361, Note_off_c, 0, 72, 34
1, 7386, Note_off_c, 0, 84, 61
1, 7410, Note_on_c, 0, 69, 40
1, 7439, Note_on_c, 0, 88, 50
1, 7440, Note_on_c, 0, 62, 32
1, 7456, Note_off_c, 0, 66, 32
1, 7478, Note_off_c, 0, 69, 57
1, 7496, Note_off_c, 0, 62, 60
1, 7547, Note_off_c, 0, 88, 55
1, 7572, Note_on_c, 0, 92, 56
1, 7606, Note_off_c, 0, 92, 66
1, 7737, Note_on_c, 0, 68, 39
1, 7745, Note_on_c, 0, 58, 37
1, 7761, Control_c, 0, 64, 95
1, 7776, Control_c, 0, 64, 82
1, 7783, Note_on_c, 0, 74, 51
1, 7790, Control_c, 0, 64, 76
1, 7805, Control_c, 0, 64, 76
1, 7820, Control_c, 0, 64, 78
1, 7835, Control_c, 0, 64, 82
1, 7847, Note_on_c, 0, 80, 54
1, 7850, Control_c, 0, 64, 88
1, 7864, Note_off_c, 0, 74, 49
1, 7865, Control_c, 0, 64, 102
1, 7880, Control_c, 0, 64, 127
1, 7910, Note_off_c, 0, 68, 33
1, 7918, Note_on_c, 0, 84, 48
1, 7926, Note_off_c, 0, 80, 62
1, 7949, Note_off_c, 0, 84, 65
1, 7961, Note_on_c, 0, 88, 57
1, 7998, Control_c, 0, 64, 113
1, 8013, Control_c, 0, 64, 88
1, 8018, Note_on_c, 0, 65, 57
1, 8020, Note_off_c, 0, 88, 64
1, 8028, Control_c, 0, 64, 76
1, 8033, Note_on_c, 0, 55, 47
1, 8035, Note_on_c, 0, 85, 67
1, 8043, Control_c, 0, 64, 74
1, 8057, Note_off_c, 0, 65, 62
1, 8057, Control_c, 0, 64, 76
1, 8070, Note_off_c, 0, 58, 43
1, 8072, Note_off_c, 0, 85, 61
1, 8072, Control_c, 0, 64, 80
1, 8079, Note_on_c, 0, 81, 37
1, 8082, Note_off_c, 0, 55, 62
1, 8087, Control_c, 0, 64, 86
1, 8102, Control_c, 0, 64, 99
1, 8104, Note_off_c, 0, 81, 54
1, 8116, Control_c, 0, 64, 127
1, 8117, Note_on_c, 0, 77, 63
1, 8145, Note_off_c, 0, 77, 67
1, 8212, Note_on_c, 0, 71, 70
1, 8258, Control_c, 0, 64, 106
1, 8259, Note_off_c, 0, 71, 61
1, 8273, Control_c, 0, 64, 85
1, 8288, Control_c, 0, 64, 72
1, 8290, Note_on_c, 0, 68, 60
1, 8303, Control_c, 0, 64, 65
1, 8306, Note_on_c, 0, 62, 43
1, 8312, Note_on_c, 0, 52, 47
1, 8318, Control_c, 0, 64, 65
1, 8330, Note_off_c, 0, 68, 64
1, 8333, Control_c, 0, 64, 66
1, 8348, Control_c, 0, 64, 69
1, 8358, Note_off_c, 0, 62, 58
1, 8363, Control_c, 0, 64, 72
1, 8372, Note_on_c, 0, 74, 56
1, 8377, Control_c, 0, 64, 77
1, 8382, Note_off_c, 0, 52, 59
1, 8392, Control_c, 0, 64, 85
1, 8406, Control_c, 0, 64, 97
1, 8421, Control_c, 0, 64, 127
1, 8437, Note_on_c, 0, 78, 56
1, 8438, Note_off_c, 0, 74, 59
1, 8484, Note_off_c, 0, 78, 61
1, 8506, Note_on_c, 0, 82, 51
1, 8554, Control_c, 0, 64, 93
1, 8569, Control_c, 0, 64, 79
1, 8574, Note_on_c, 0, 59, 47
1, 8575, Note_on_c, 0, 49, 44
1, 8577, Note_off_c, 0, 82, 63
1, 8578, Note_on_c, 0, 79, 55
1, 8584, Control_c, 0, 64, 70
1, 8599, Control_c, 0, 64, 66
1, 8613, Control_c, 0, 64, 67
1, 8628, Control_c, 0, 64, 69
1, 8637, Note_off_c, 0, 79, 56
1, 8643, Control_c, 0, 64, 71
1, 8655, Note_off_c, 0, 59, 58
1, 8658, Note_on_c, 0, 74, 41
1, 8658, Control_c, 0, 64, 74
1, 8673, Control_c, 0, 64, 80
1, 8680, Note_off_c, 0, 74, 56
1, 8688, Control_c, 0, 64, 87
1, 8702, Control_c, 0, 64, 105
1, 8707, Note_on_c, 0, 71, 43
1, 8717, Control_c, 0, 64, 127
1, 8733, Note_off_c, 0, 71, 53
1, 8777, Control_c, 0, 64, 125
1, 8777, Note_on_c, 0, 65, 62
1, 8792, Control_c, 0, 64, 89
1, 8806, Control_c, 0, 64, 74
1, 8812, Note_off_c, 0, 49, 41
1, 8821, Control_c, 0, 64, 63
1, 8836, Control_c, 0, 64, 50
1, 8851, Control_c, 0, 64, 46
1, 8859, Note_off_c, 0, 65, 59
1, 8866, Control_c, 0, 64, 50
1, 8869, Note_on_c, 0, 46, 41
1, 8875, Note_on_c, 0, 56, 42
1, 8880, Control_c, 0, 64, 54
1, 8895, Control_c, 0, 64, 58
1, 8910, Control_c, 0, 64, 62
1, 8914, Note_on_c, 0, 62, 49
1, 8925, Control_c, 0, 64, 65
1, 8939, Control_c, 0, 64, 72
1, 8943, Note_off_c, 0, 46, 57
1, 8960, Note_off_c, 0, 56, 58
1, 8962, Control_c, 0, 64, 89
1, 8977, Control_c, 0, 64, 127
1, 9000, Note_off_c, 0, 62, 52
1, 9072, Note_on_c, 0, 68, 56
1, 9140, Note_off_c, 0, 68, 60
1, 9224, Note_on_c, 0, 68, 75
1, 9238, Note_on_c, 0, 58, 53
1, 9251, Note_on_c, 0, 72, 48
1, 9311, Note_off_c, 0, 58, 54
1, 9316, Note_off_c, 0, 72, 48
1, 9320, Note_off_c, 0, 68, 58
1, 9403, Note_on_c, 0, 76, 53
1, 9495, Note_off_c, 0, 76, 61
1, 9577, Note_on_c, 0, 72, 49
1, 9660, Note_off_c, 0, 72, 54
1, 9728, Note_on_c, 0, 68, 46
1, 9811, Note_off_c, 0, 68, 53
1, 9850, Note_on_c, 0, 59, 46
1, 9868, Note_on_c, 0, 49, 31
1, 9872, Note_on_c, 0, 65, 42
1, 9882, Note_on_c, 0, 67, 33
1, 9913, Note_off_c, 0, 65, 65
1, 9913, Note_off_c, 0, 67, 49
1, 9921, Note_off_c, 0, 59, 52
1, 9939, Note_on_c, 0, 71, 64
1, 9975, Note_off_c, 0, 71, 63
1, 9985, Note_on_c, 0, 74, 63
1, 10013, Note_off_c, 0, 74, 66
1, 10031, Note_on_c, 0, 79, 67
1, 10058, Note_off_c, 0, 79, 67
1, 10083, Control_c, 0, 64, 82
1, 10097, Control_c, 0, 64, 66
1, 10112, Control_c, 0, 64, 55
1, 10126, Note_on_c, 0, 46, 47
1, 10127, Note_off_c, 0, 49, 38
1, 10127, Control_c, 0, 64, 55
1, 10141, Note_on_c, 0, 56, 40
1, 10142, Control_c, 0, 64, 58
1, 10151, Note_on_c, 0, 62, 57
1, 10157, Control_c, 0, 64, 61
1, 10172, Control_c, 0, 64, 63
1, 10186, Control_c, 0, 64, 66
1, 10201, Control_c, 0, 64, 72
1, 10216, Control_c, 0, 64, 84
1, 10220, Note_off_c, 0, 56, 62
1, 10221, Note_off_c, 0, 46, 61
1, 10231, Control_c, 0, 64, 105
1, 10246, Control_c, 0, 64, 127
1, 10273, Note_off_c, 0, 62, 59
1, 10288, Note_on_c, 0, 68, 65
1, 10351, Note_off_c, 0, 68, 60
1, 10439, Note_on_c, 0, 68, 79
1, 10458, Note_on_c, 0, 72, 61
1, 10464, Note_on_c, 0, 58, 60
1, 10561, Note_off_c, 0, 68, 57
1, 10571, Note_off_c, 0, 72, 56
1, 10620, Note_on_c, 0, 76, 62
1, 10628, Note_off_c, 0, 58, 37
1, 10725, Note_off_c, 0, 76, 61
1, 10777, Note_on_c, 0, 72, 51
1, 10873, Note_off_c, 0, 72, 55
1, 10911, Note_on_c, 0, 68, 49
1, 11016, Note_off_c, 0, 68, 55
1, 11054, Note_on_c, 0, 49, 41
1, 11057, Note_on_c, 0, 59, 51
1, 11068, Note_on_c, 0, 65, 46
1, 11072, Note_on_c, 0, 67, 36
1, 11102, Note_off_c, 0, 67, 54
1, 11114, Note_off_c, 0, 65, 64
1, 11140, Note_on_c, 0, 71, 62
1, 11142, Note_off_c, 0, 59, 57
1, 11173, Note_off_c, 0, 71, 65
1, 11178, Note_on_c, 0, 74, 66
1, 11215, Note_off_c, 0, 74, 65
1, 11238, Note_on_c, 0, 79, 67
1, 11267, Note_off_c, 0, 79, 69
1, 11268, Control_c, 0, 64, 105
1, 11282, Control_c, 0, 64, 82
1, 11297, Control_c, 0, 64, 64
1, 11312, Control_c, 0, 64, 49
1, 11326, Control_c, 0, 64, 46
1, 11335, Note_on_c, 0, 46, 51
1, 11341, Note_on_c, 0, 56, 55
1, 11341, Control_c, 0, 64, 52
1, 11352, Note_on_c, 0, 62, 62
1, 11356, Control_c, 0, 64, 57
1, 11371, Control_c, 0, 64, 60
1, 11386, Control_c, 0, 64, 64
1, 11394, Note_off_c, 0, 49, 26
1, 11402, Control_c, 0, 64, 70
1, 11417, Control_c, 0, 64, 80
1, 11427, Note_off_c, 0, 56, 61
1, 11431, Control_c, 0, 64, 97
1, 11433, Note_off_c, 0, 46, 59
1, 11446, Control_c, 0, 64, 127
1, 11496, Note_on_c, 0, 68, 68
1, 11528, Note_off_c, 0, 62, 22
1, 11573, Note_off_c, 0, 68, 62
1, 11644, Note_on_c, 0, 68, 72
1, 11662, Note_on_c, 0, 72, 64
1, 11664, Note_on_c, 0, 58, 57
1, 11754, Note_off_c, 0, 72, 58
1, 11772, Note_off_c, 0, 68, 56
1, 11810, Note_on_c, 0, 76, 63
1, 11869, Note_off_c, 0, 58, 37
1, 11910, Note_off_c, 0, 76, 55
1, 11978, Note_on_c, 0, 72, 53
1, 12067, Note_off_c, 0, 72, 56
1, 12106, Note_on_c, 0, 68, 58
1, 12181, Note_off_c, 0, 68, 59
1, 12275, Note_on_c, 0, 58, 50
1, 12282, Note_on_c, 0, 62, 51
1, 12288, Note_on_c, 0, 68, 44
1, 12333, Note_off_c, 0, 62, 53
1, 12359, Note_off_c, 0, 68, 49
1, 12420, Note_on_c, 0, 64, 51
1, 12494, Note_off_c, 0, 64, 49
1, 12595, Note_on_c, 0, 62, 55
1, 12631, Note_off_c, 0, 62, 65
1, 12678, Note_on_c, 0, 60, 53
1, 12727, Note_off_c, 0, 60, 63
1, 12747, Note_on_c, 0, 62, 51
1, 12783, Note_off_c, 0, 62, 64
1, 12810, Note_on_c, 0, 64, 43
1, 12837, Note_off_c, 0, 64, 58
1, 12864, Note_on_c, 0, 56, 53
1, 12870, Note_on_c, 0, 66, 58
1, 12880, Note_on_c, 0, 60, 48
1, 12916, Note_off_c, 0, 66, 57
1, 12920, Note_off_c, 0, 60, 64
1, 12935, Note_off_c, 0, 58, 37
1, 12940, Note_off_c, 0, 56, 61
1, 12948, Note_on_c, 0, 68, 63
1, 13009, Note_on_c, 0, 70, 73
1, 13022, Note_off_c, 0, 68, 59
1, 13045, Note_off_c, 0, 70, 64
1, 13082, Note_on_c, 0, 72, 78
1, 13122, Control_c, 0, 64, 100
1, 13137, Control_c, 0, 64, 80
1, 13144, Note_off_c, 0, 72, 64
1, 13148, Note_on_c, 0, 74, 68
1, 13151, Control_c, 0, 64, 67
1, 13164, Note_on_c, 0, 58, 46
1, 13165, Note_on_c, 0, 54, 46
1, 13165, Note_on_c, 0, 64, 44
1, 13166, Control_c, 0, 64, 64
1, 13181, Control_c, 0, 64, 65
1, 13184, Note_off_c, 0, 74, 64
1, 13195, Control_c, 0, 64, 66
1, 13198, Note_on_c, 0, 76, 65
1, 13210, Control_c, 0, 64, 68
1, 13218, Note_off_c, 0, 76, 65
1, 13225, Control_c, 0, 64, 72
1, 13240, Control_c, 0, 64, 79
1, 13254, Note_off_c, 0, 64, 56
1, 13255, Control_c, 0, 64, 87
1, 13270, Control_c, 0, 64, 103
1, 13281, Note_on_c, 0, 78, 77
1, 13285, Control_c, 0, 64, 127
1, 13330, Note_off_c, 0, 78, 57
1, 13361, Note_on_c, 0, 80, 63
1, 13380, Note_off_c, 0, 58, 35
1, 13400, Note_off_c, 0, 54, 32
1, 13465, Note_off_c, 0, 80, 64
1, 13501, Note_on_c, 0, 81, 48
1, 13508, Note_on_c, 0, 83, 60
1, 13543, Note_off_c, 0, 81, 61
1, 13545, Control_c, 0, 64, 99
1, 13559, Control_c, 0, 64, 84
1, 13574, Control_c, 0, 64, 72
1, 13584, Note_off_c, 0, 83, 48
1, 13589, Control_c, 0, 64, 62
1, 13599, Note_on_c, 0, 53, 35
1, 13600, Note_on_c, 0, 57, 32
1, 13603, Control_c, 0, 64, 52
1, 13609, Note_on_c, 0, 63, 28
1, 13618, Control_c, 0, 64, 53
1, 13633, Control_c, 0, 64, 55
1, 13648, Control_c, 0, 64, 57
1, 13663, Control_c, 0, 64, 60
1, 13669, Note_on_c, 0, 71, 48
1, 13678, Control_c, 0, 64, 62
1, 13692, Control_c, 0, 64, 64
1, 13707, Control_c, 0, 64, 67
1, 13722, Control_c, 0, 64, 75
1, 13737, Control_c, 0, 64, 90
1, 13749, Note_off_c, 0, 71, 46
1, 13752, Control_c, 0, 64, 127
1, 13774, Note_off_c, 0, 63, 31
1, 13796, Note_on_c, 0, 73, 50
1, 13833, Note_off_c, 0, 57, 43
1, 13847, Note_off_c, 0, 73, 60
1, 13865, Note_on_c, 0, 75, 60
1, 13887, Note_off_c, 0, 53, 40
1, 13889, Note_off_c, 0, 75, 62
1, 13933, Note_on_c, 0, 77, 66
1, 13972, Note_off_c, 0, 77, 60
1, 13991, Note_on_c, 0, 79, 56
1, 14029, Note_off_c, 0, 79, 65
1, 14045, Note_on_c, 0, 81, 61
1, 14073, Note_off_c, 0, 81, 66
1, 14134, Note_on_c, 0, 83, 69
1, 14217, Note_off_c, 0, 83, 56
1, 14249, Note_on_c, 0, 85, 50
1, 14309, Note_on_c, 0, 40, 49
1, 14359, Note_off_c, 0, 40, 59
1, 14380, Note_on_c, 0, 47, 41
1, 14398, Note_off_c, 0, 85, 34
1, 14462, Note_on_c, 0, 87, 37
1, 14470, Note_on_c, 0, 80, 43
1, 14492, Note_off_c, 0, 47, 51
1, 14505, Note_on_c, 0, 56, 47
1, 14527, Note_off_c, 0, 87, 40
1, 14533, Note_off_c, 0, 80, 53
1, 14569, Note_on_c, 0, 75, 47
1, 14592, Note_off_c, 0, 56, 59
1, 14659, Note_off_c, 0, 75, 50
1, 14876, Note_on_c, 0, 80, 45
1, 14974, Note_off_c, 0, 80, 59
1, 15070, Note_on_c, 0, 64, 31
1, 15073, Note_on_c, 0, 87, 51
1, 15079, Note_on_c, 0, 71, 42
1, 15106, Note_off_c, 0, 64, 52
1, 15142, Note_off_c, 0, 87, 57
1, 15237, Note_on_c, 0, 90, 60
1, 15238, Note_off_c, 0, 71, 34
1, 15329, Note_off_c, 0, 90, 57
1, 15386, Note_on_c, 0, 75, 49
1, 15406, Note_on_c, 0, 63, 41
1, 15409, Note_on_c, 0, 68, 42
1, 15411, Note_on_c, 0, 87, 50
1, 15417, Note_off_c, 0, 75, 62
1, 15442, Note_off_c, 0, 68, 59
1, 15451, Note_off_c, 0, 63, 57
1, 15477, Note_off_c, 0, 87, 52
1, 15549, Note_on_c, 0, 80, 56
1, 15603, Note_off_c, 0, 80, 52
1, 15684, Note_on_c, 0, 64, 43
1, 15685, Note_on_c, 0, 57, 44
1, 15714, Note_on_c, 0, 73, 62
1, 15721, Note_off_c, 0, 64, 62
1, 15729, Note_off_c, 0, 57, 65
1, 15767, Note_on_c, 0, 80, 54
1, 15773, Note_off_c, 0, 73, 63
1, 15831, Note_off_c, 0, 80, 60
1, 15840, Note_on_c, 0, 85, 55
1, 15863, Note_on_c, 0, 52, 56
1, 15883, Note_off_c, 0, 85, 58
1, 15891, Note_on_c, 0, 88, 61
1, 15909, Control_c, 0, 64, 113
1, 15913, Note_off_c, 0, 52, 58
1, 15924, Control_c, 0, 64, 90
1, 15939, Control_c, 0, 64, 73
1, 15940, Note_on_c, 0, 59, 47
1, 15953, Control_c, 0, 64, 66
1, 15958, Note_off_c, 0, 88, 59
1, 15968, Control_c, 0, 64, 65
1, 15983, Control_c, 0, 64, 67
1, 15995, Note_on_c, 0, 75, 59
1, 15997, Control_c, 0, 64, 68
1, 16012, Control_c, 0, 64, 71
1, 16018, Note_on_c, 0, 68, 57
1, 16027, Control_c, 0, 64, 75
1, 16042, Control_c, 0, 64, 81
1, 16050, Note_off_c, 0, 59, 54
1, 16057, Control_c, 0, 64, 87
1, 16071, Control_c, 0, 64, 95
1, 16086, Control_c, 0, 64, 110
1, 16093, Note_off_c, 0, 68, 59
1, 16101, Control_c, 0, 64, 127
1, 16119, Note_off_c, 0, 75, 55
1, 16169, Note_on_c, 0, 80, 59
1, 16262, Note_off_c, 0, 80, 62
1, 16306, Note_on_c, 0, 64, 45
1, 16309, Note_on_c, 0, 71, 51
1, 16334, Note_on_c, 0, 87, 54
1, 16356, Note_off_c, 0, 64, 58
1, 16471, Note_off_c, 0, 87, 36
1, 16482, Note_on_c, 0, 90, 62
1, 16536, Note_off_c, 0, 71, 29
1, 16601, Note_off_c, 0, 90, 35
1, 16611, Note_on_c, 0, 75, 50
1, 16632, Note_on_c, 0, 68, 36
1, 16638, Note_on_c, 0, 63, 37
1, 16646, Note_on_c, 0, 87, 50
1, 16658, Note_off_c, 0, 75, 54
1, 16664, Note_off_c, 0, 68, 57
1, 16674, Note_off_c, 0, 63, 60
1, 16719, Note_off_c, 0, 87, 60
1, 16775, Note_on_c, 0, 80, 56
1, 16835, Note_off_c, 0, 80, 54
1, 16906, Note_on_c, 0, 64, 40
1, 16910, Note_on_c, 0, 57, 44
1, 16933, Note_on_c, 0, 73, 50
1, 16933, Note_off_c, 0, 64, 57
1, 16941, Note_off_c, 0, 57, 62
1, 16971, Note_off_c, 0, 73, 64
1, 16983, Note_on_c, 0, 80, 52
1, 17028, Note_off_c, 0, 80, 62
1, 17060, Note_on_c, 0, 52, 54
1, 17064, Note_on_c, 0, 85, 50
1, 17098, Note_off_c, 0, 85, 61
1, 17099, Note_off_c, 0, 52, 62
1, 17110, Note_on_c, 0, 88, 59
1, 17136, Note_on_c, 0, 59, 52
1, 17214, Note_on_c, 0, 75, 69
1, 17216, Note_on_c, 0, 68, 61
1, 17216, Note_off_c, 0, 59, 61
1, 17249, Note_off_c, 0, 88, 35
1, 17251, Note_off_c, 0, 68, 62
1, 17282, Note_off_c, 0, 75, 60
1, 17365, Note_on_c, 0, 80, 71
1, 17419, Note_off_c, 0, 80, 64
1, 17484, Note_on_c, 0, 64, 39
1, 17485, Note_on_c, 0, 71, 47
1, 17520, Note_on_c, 0, 87, 58
1, 17525, Note_off_c, 0, 64, 60
1, 17554, Control_c, 0, 64, 125
1, 17562, Note_off_c, 0, 87, 58
1, 17569, Control_c, 0, 64, 122
1, 17584, Control_c, 0, 64, 119
1, 17598, Control_c, 0, 64, 116
1, 17613, Control_c, 0, 64, 115
1, 17628, Control_c, 0, 64, 115
1, 17655, Note_off_c, 0, 71, 28
1, 17657, Control_c, 0, 64, 114
1, 17663, Note_on_c, 0, 90, 62
1, 17702, Control_c, 0, 64, 112
1, 17705, Note_off_c, 0, 90, 58
1, 17717, Control_c, 0, 64, 112
1, 17746, Control_c, 0, 64, 111
1, 17810, Note_on_c, 0, 68, 39
1, 17812, Note_on_c, 0, 63, 40
1, 17827, Note_on_c, 0, 75, 42
1, 17839, Note_on_c, 0, 80, 55
1, 17850, Note_off_c, 0, 68, 59
1, 17854, Note_off_c, 0, 63, 55
1, 17875, Note_off_c, 0, 75, 57
1, 17910, Note_off_c, 0, 80, 56
1, 18001, Note_on_c, 0, 87, 59
1, 18036, Control_c, 0, 64, 112
1, 18075, Note_off_c, 0, 87, 58
1, 18191, Note_on_c, 0, 92, 55
1, 18208, Note_on_c, 0, 83, 35
1, 18222, Note_on_c, 0, 76, 5
1, 18229, Control_c, 0, 64, 112
1, 18243, Poly_aftertouch_c, 0, 71, 127
1, 18258, Note_off_c, 0, 92, 65
1, 18280, Poly_aftertouch_c, 0, 71, 0
1, 18285, Note_off_c, 0, 76, 49
1, 18318, Control_c, 0, 64, 113
1, 18331, Note_off_c, 0, 83, 36
1, 18347, Control_c, 0, 64, 114
1, 18377, Control_c, 0, 64, 115
1, 18399, Note_on_c, 0, 95, 59
1, 18436, Control_c, 0, 64, 115
1, 18446, Note_off_c, 0, 95, 60
1, 18480, Control_c, 0, 64, 116
1, 18510, Control_c, 0, 64, 117
1, 18585, Control_c, 0, 64, 115
1, 18600, Control_c, 0, 64, 112
1, 18615, Control_c, 0, 64, 105
1, 18630, Control_c, 0, 64, 91
1, 18644, Control_c, 0, 64, 80
1, 18650, Note_on_c, 0, 73, 36
1, 18659, Control_c, 0, 64, 69
1, 18668, Note_on_c, 0, 80, 34
1, 18674, Control_c, 0, 64, 61
1, 18696, Control_c, 0, 64, 54
1, 18697, Note_on_c, 0, 88, 51
1, 18711, Control_c, 0, 64, 56
1, 18726, Control_c, 0, 64, 58
1, 18741, Control_c, 0, 64, 60
1, 18756, Control_c, 0, 64, 62
1, 18770, Control_c, 0, 64, 64
1, 18785, Control_c, 0, 64, 65
1, 18800, Control_c, 0, 64, 68
1, 18815, Note_off_c, 0, 88, 36
1, 18815, Control_c, 0, 64, 73
1, 18830, Control_c, 0, 64, 84
1, 18844, Control_c, 0, 64, 96
1, 18859, Control_c, 0, 64, 110
1, 18864, Note_off_c, 0, 80, 50
1, 18874, Control_c, 0, 64, 122
1, 18889, Control_c, 0, 64, 127
1, 18895, Note_on_c, 0, 83, 47
1, 18947, Note_off_c, 0, 73, 36
1, 18964, Note_off_c, 0, 83, 55
1, 19025, Note_on_c, 0, 85, 39
1, 19041, Note_on_c, 0, 80, 41
1, 19058, Note_off_c, 0, 85, 55
1, 19059, Note_on_c, 0, 76, 49
1, 19105, Note_off_c, 0, 80, 57
1, 19120, Note_off_c, 0, 76, 57
1, 19204, Note_on_c, 0, 71, 52
1, 19248, Note_off_c, 0, 71, 52
1, 19344, Note_on_c, 0, 66, 37
1, 19354, Note_on_c, 0, 81, 52
1, 19419, Note_off_c, 0, 81, 60
1, 19529, Note_on_c, 0, 76, 56
1, 19556, Note_off_c, 0, 66, 39
1, 19571, Note_off_c, 0, 76, 62
1, 19608, Control_c, 0, 64, 122
1, 19623, Control_c, 0, 64, 120
1, 19637, Control_c, 0, 64, 119
1, 19652, Control_c, 0, 64, 117
1, 19656, Note_on_c, 0, 78, 53
1, 19664, Note_on_c, 0, 73, 46
1, 19665, Note_on_c, 0, 69, 48
1, 19667, Control_c, 0, 64, 115
1, 19682, Control_c, 0, 64, 113
1, 19689, Note_off_c, 0, 69, 56
1, 19690, Note_off_c, 0, 78, 52
1, 19695, Note_off_c, 0, 73, 63
1, 19697, Control_c, 0, 64, 112
1, 19729, Note_on_c, 0, 64, 61
1, 19757, Note_off_c, 0, 64, 65
1, 19780, Note_on_c, 0, 69, 54
1, 19803, Note_off_c, 0, 69, 62
1, 19820, Note_on_c, 0, 76, 59
1, 19848, Note_off_c, 0, 76, 65
1, 19875, Control_c, 0, 64, 112
1, 19890, Control_c, 0, 64, 113
1, 19905, Control_c, 0, 64, 114
1, 19919, Control_c, 0, 64, 116
1, 19934, Control_c, 0, 64, 120
1, 19936, Note_on_c, 0, 88, 65
1, 19949, Control_c, 0, 64, 127
1, 19964, Note_on_c, 0, 73, 41
1, 20048, Note_off_c, 0, 88, 33
1, 20056, Poly_aftertouch_c, 0, 80, 127
1, 20092, Note_on_c, 0, 83, 61
1, 20127, Poly_aftertouch_c, 0, 80, 0
1, 20169, Note_off_c, 0, 73, 54
1, 20176, Note_off_c, 0, 83, 59
1, 20238, Note_on_c, 0, 85, 52
1, 20244, Note_on_c, 0, 76, 55
1, 20255, Note_on_c, 0, 80, 53
1, 20260, Note_off_c, 0, 85, 64
1, 20295, Note_off_c, 0, 80, 64
1, 20319, Note_off_c, 0, 76, 61
1, 20387, Note_on_c, 0, 71, 66
1, 20421, Note_off_c, 0, 71, 61
1, 20537, Note_on_c, 0, 66, 53
1, 20539, Note_on_c, 0, 73, 54
1, 20546, Note_on_c, 0, 81, 60
1, 20628, Note_off_c, 0, 81, 56
1, 20649, Note_off_c, 0, 73, 57
1, 20689, Note_on_c, 0, 76, 66
1, 20733, Note_off_c, 0, 66, 49
1, 20757, Note_off_c, 0, 76, 62
1, 20825, Note_on_c, 0, 78, 67
1, 20834, Note_on_c, 0, 73, 59
1, 20859, Note_off_c, 0, 78, 64
1, 20863, Note_off_c, 0, 73, 67
1, 20904, Note_on_c, 0, 64, 66
1, 20944, Note_off_c, 0, 64, 67
1, 20965, Note_on_c, 0, 69, 53
1, 20996, Note_off_c, 0, 69, 65
1, 21018, Note_on_c, 0, 76, 57
1, 21049, Note_off_c, 0, 76, 65
1, 21091, Control_c, 0, 64, 108
1, 21106, Control_c, 0, 64, 97
1, 21106, Note_on_c, 0, 73, 52
1, 21111, Note_on_c, 0, 80, 61
1, 21121, Control_c, 0, 64, 92
1, 21136, Control_c, 0, 64, 91
1, 21140, Note_on_c, 0, 88, 68
1, 21151, Control_c, 0, 64, 91
1, 21165, Control_c, 0, 64, 92
1, 21180, Control_c, 0, 64, 94
1, 21195, Control_c, 0, 64, 96
1, 21210, Control_c, 0, 64, 98
1, 21225, Control_c, 0, 64, 100
1, 21228, Note_off_c, 0, 80, 58
1, 21239, Control_c, 0, 64, 101
1, 21246, Note_off_c, 0, 88, 60
1, 21254, Control_c, 0, 64, 106
1, 21269, Control_c, 0, 64, 112
1, 21279, Note_on_c, 0, 83, 68
1, 21283, Control_c, 0, 64, 116
1, 21298, Control_c, 0, 64, 117
1, 21313, Control_c, 0, 64, 119
1, 21328, Control_c, 0, 64, 125
1, 21333, Note_off_c, 0, 73, 52
1, 21343, Control_c, 0, 64, 127
1, 21357, Note_off_c, 0, 83, 57
1, 21413, Note_on_c, 0, 80, 50
1, 21413, Note_on_c, 0, 85, 44
1, 21427, Note_on_c, 0, 76, 56
1, 21435, Note_off_c, 0, 85, 57
1, 21476, Note_off_c, 0, 80, 62
1, 21508, Note_off_c, 0, 76, 62
1, 21573, Note_on_c, 0, 71, 61
1, 21613, Note_off_c, 0, 71, 59
1, 21708, Note_on_c, 0, 66, 46
1, 21735, Note_on_c, 0, 81, 57
1, 21772, Poly_aftertouch_c, 0, 73, 127
1, 21809, Poly_aftertouch_c, 0, 73, 0
1, 21811, Note_off_c, 0, 81, 56
1, 21869, Note_on_c, 0, 76, 65
1, 21947, Note_off_c, 0, 66, 37
1, 21960, Note_off_c, 0, 76, 55
1, 21992, Note_on_c, 0, 78, 65
1, 22006, Note_on_c, 0, 69, 65
1, 22020, Note_on_c, 0, 73, 54
1, 22021, Note_off_c, 0, 78, 65
1, 22046, Note_off_c, 0, 73, 65
1, 22082, Note_off_c, 0, 69, 61
1, 22147, Note_on_c, 0, 64, 68
1, 22180, Note_off_c, 0, 64, 67
1, 22282, Note_on_c, 0, 57, 62
1, 22284, Control_c, 0, 64, 104
1, 22295, Note_on_c, 0, 63, 61
1, 22299, Control_c, 0, 64, 84
1, 22307, Note_on_c, 0, 66, 70
1, 22313, Control_c, 0, 64, 71
1, 22328, Control_c, 0, 64, 63
1, 22343, Control_c, 0, 64, 59
1, 22358, Control_c, 0, 64, 61
1, 22373, Control_c, 0, 64, 62
1, 22388, Control_c, 0, 64, 63
1, 22403, Control_c, 0, 64, 65
1, 22418, Control_c, 0, 64, 67
1, 22439, Control_c, 0, 64, 70
1, 22451, Note_on_c, 0, 68, 81
1, 22453, Note_off_c, 0, 63, 62
1, 22454, Control_c, 0, 64, 75
1, 22469, Control_c, 0, 64, 85
1, 22484, Control_c, 0, 64, 102
1, 22495, Note_off_c, 0, 66, 36
1, 22499, Control_c, 0, 64, 127
1, 22557, Note_off_c, 0, 68, 62
1, 22589, Control_c, 0, 64, 102
1, 22596, Note_off_c, 0, 57, 62
1, 22602, Note_on_c, 0, 63, 67
1, 22604, Control_c, 0, 64, 84
1, 22608, Note_on_c, 0, 69, 73
1, 22608, Note_on_c, 0, 73, 73
1, 22618, Control_c, 0, 64, 73
1, 22633, Control_c, 0, 64, 66
1, 22648, Control_c, 0, 64, 61
1, 22663, Control_c, 0, 64, 62
1, 22678, Control_c, 0, 64, 63
1, 22692, Control_c, 0, 64, 64
1, 22707, Control_c, 0, 64, 66
1, 22722, Control_c, 0, 64, 67
1, 22734, Note_off_c, 0, 73, 64
1, 22737, Control_c, 0, 64, 70
1, 22751, Control_c, 0, 64, 74
1, 22754, Note_on_c, 0, 78, 63
1, 22760, Note_off_c, 0, 69, 60
1, 22766, Control_c, 0, 64, 78
1, 22781, Control_c, 0, 64, 82
1, 22796, Control_c, 0, 64, 87
1, 22811, Control_c, 0, 64, 95
1, 22826, Control_c, 0, 64, 115
1, 22841, Control_c, 0, 64, 127
1, 22849, Note_off_c, 0, 78, 61
1, 22913, Note_on_c, 0, 68, 54
1, 23061, Note_on_c, 0, 73, 59
1, 23065, Note_off_c, 0, 63, 40
1, 23202, Note_off_c, 0, 73, 63
1, 23249, Note_on_c, 0, 78, 58
1, 23261, Note_on_c, 0, 66, 38
1, 23362, Note_off_c, 0, 68, 6
1, 23422, Note_off_c, 0, 66, 57
1, 23459, Note_on_c, 0, 85, 57
1, 23460, Note_off_c, 0, 78, 53
1, 23551, Note_off_c, 0, 85, 61
1, 23649, Note_on_c, 0, 49, 50
1, 23662, Note_on_c, 0, 56, 52
1, 23693, Control_c, 0, 64, 106
1, 23708, Control_c, 0, 64, 85
1, 23723, Control_c, 0, 64, 72
1, 23738, Control_c, 0, 64, 64
1, 23753, Control_c, 0, 64, 61
1, 23767, Control_c, 0, 64, 62
1, 23780, Note_off_c, 0, 49, 53
1, 23782, Control_c, 0, 64, 64
1, 23797, Control_c, 0, 64, 67
1, 23812, Control_c, 0, 64, 70
1, 23820, Note_on_c, 0, 73, 52
1, 23825, Note_on_c, 0, 80, 60
1, 23827, Control_c, 0, 64, 77
1, 23841, Control_c, 0, 64, 87
1, 23851, Note_off_c, 0, 73, 66
1, 23856, Control_c, 0, 64, 115
1, 23871, Control_c, 0, 64, 127
1, 23910, Note_off_c, 0, 56, 63
1, 23912, Note_off_c, 0, 80, 63
1, 23984, Note_on_c, 0, 61, 44
1, 23993, Note_on_c, 0, 68, 54
1, 23994, Note_on_c, 0, 92, 67
1, 24000, Note_on_c, 0, 85, 67
1, 24019, Note_off_c, 0, 61, 62
1, 24024, Note_off_c, 0, 92, 68
1, 24033, Note_off_c, 0, 68, 61
1, 24071, Note_off_c, 0, 85, 60
1, 24122, Note_on_c, 0, 73, 84
1, 24126, Note_on_c, 0, 80, 71
1, 24147, Note_off_c, 0, 73, 63
1, 24180, Note_off_c, 0, 80, 61
1, 24259, Note_on_c, 0, 61, 41
1, 24267, Note_on_c, 0, 68, 52
1, 24292, Note_off_c, 0, 61, 56
1, 24328, Note_off_c, 0, 68, 50
1, 24333, Note_on_c, 0, 85, 50
1, 24359, Note_off_c, 0, 85, 65
1, 24382, Note_on_c, 0, 92, 67
1, 24412, Note_off_c, 0, 92, 67
1, 24433, Note_on_c, 0, 97, 68
1, 24491, Note_off_c, 0, 97, 60
1, 24510, Note_on_c, 0, 104, 72
1, 24537, Note_on_c, 0, 73, 40
1, 24540, Note_off_c, 0, 104, 66
1, 24558, Note_on_c, 0, 80, 50
1, 24588, Note_off_c, 0, 73, 49
1, 24590, Note_on_c, 0, 97, 59
1, 24610, Note_off_c, 0, 80, 57
1, 24641, Note_off_c, 0, 97, 63
1, 24653, Note_on_c, 0, 92, 54
1, 24707, Note_off_c, 0, 92, 61
1, 24725, Note_on_c, 0, 85, 54
1, 24745, Note_off_c, 0, 85, 61
1, 24790, Control_c, 0, 64, 109
1, 24805, Control_c, 0, 64, 84
1, 24820, Note_on_c, 0, 74, 48
1, 24820, Control_c, 0, 64, 70
1, 24835, Control_c, 0, 64, 62
1, 24848, Note_on_c, 0, 69, 43
1, 24850, Control_c, 0, 64, 60
1, 24865, Control_c, 0, 64, 62
1, 24880, Control_c, 0, 64, 63
1, 24895, Control_c, 0, 64, 65
1, 24909, Control_c, 0, 64, 67
1, 24924, Control_c, 0, 64, 70
1, 24932, Note_off_c, 0, 74, 57
1, 24939, Control_c, 0, 64, 73
1, 24948, Note_on_c, 0, 78, 54
1, 24954, Control_c, 0, 64, 79
1, 24969, Control_c, 0, 64, 92
1, 24984, Control_c, 0, 64, 114
1, 24999, Control_c, 0, 64, 127
1, 25026, Note_off_c, 0, 78, 55
1, 25051, Note_on_c, 0, 80, 61
1, 25100, Note_off_c, 0, 80, 58
1, 25139, Note_on_c, 0, 74, 42
1, 25149, Note_off_c, 0, 69, 37
1, 25156, Note_on_c, 0, 85, 53
1, 25166, Note_on_c, 0, 81, 52
1, 25175, Note_off_c, 0, 74, 63
1, 25208, Note_off_c, 0, 85, 56
1, 25239, Note_on_c, 0, 90, 63
1, 25246, Note_off_c, 0, 81, 61
1, 25303, Note_off_c, 0, 90, 60
1, 25327, Note_on_c, 0, 85, 69
1, 25393, Note_off_c, 0, 85, 62
1, 25413, Note_on_c, 0, 81, 49
1, 25416, Note_on_c, 0, 74, 50
1, 25431, Note_on_c, 0, 80, 68
1, 25464, Note_off_c, 0, 81, 60
1, 25491, Note_off_c, 0, 80, 55
1, 25505, Note_on_c, 0, 85, 71
1, 25547, Note_off_c, 0, 85, 62
1, 25552, Note_on_c, 0, 80, 71
1, 25610, Note_off_c, 0, 80, 64
1, 25622, Note_on_c, 0, 85, 70
1, 25661, Note_off_c, 0, 74, 48
1, 25663, Note_off_c, 0, 85, 63
1, 25687, Note_on_c, 0, 86, 64
1, 25689, Note_on_c, 0, 90, 73
1, 25693, Note_on_c, 0, 78, 59
1, 25719, Note_off_c, 0, 86, 67
1, 25756, Note_off_c, 0, 90, 62
1, 25763, Note_off_c, 0, 78, 63
1, 25780, Note_on_c, 0, 97, 61
1, 25832, Note_off_c, 0, 97, 52
1, 25849, Note_on_c, 0, 90, 57
1, 25884, Note_off_c, 0, 90, 66
1, 25884, Note_on_c, 0, 97, 54
1, 25923, Note_off_c, 0, 97, 63
1, 25987, Note_on_c, 0, 61, 56
1, 26004, Note_on_c, 0, 68, 53
1, 26055, Note_off_c, 0, 68, 57
1, 26078, Note_off_c, 0, 61, 51
1, 26138, Note_on_c, 0, 73, 65
1, 26150, Note_on_c, 0, 80, 66
1, 26168, Note_off_c, 0, 73, 65
1, 26235, Note_off_c, 0, 80, 63
1, 26283, Note_on_c, 0, 73, 60
1, 26305, Note_on_c, 0, 92, 69
1, 26305, Note_on_c, 0, 68, 39
1, 26306, Note_on_c, 0, 85, 67
1, 26322, Note_off_c, 0, 73, 59
1, 26334, Note_off_c, 0, 92, 67
1, 26344, Note_off_c, 0, 68, 49
1, 26413, Note_off_c, 0, 85, 64
1, 26436, Note_on_c, 0, 73, 66
1, 26441, Note_on_c, 0, 80, 58
1, 26462, Note_off_c, 0, 80, 59
1, 26463, Note_off_c, 0, 73, 69
1, 26561, Note_on_c, 0, 73, 63
1, 26570, Note_on_c, 0, 80, 69
1, 26639, Note_on_c, 0, 74, 69
1, 26658, Note_off_c, 0, 80, 55
1, 26667, Note_off_c, 0, 74, 67
1, 26695, Note_on_c, 0, 81, 77
1, 26747, Note_off_c, 0, 81, 63
1, 26760, Note_on_c, 0, 86, 74
1, 26805, Note_off_c, 0, 86, 63
1, 26823, Note_on_c, 0, 93, 89
1, 26830, Note_on_c, 0, 78, 63
1, 26831, Note_on_c, 0, 71, 62
1, 26847, Note_off_c, 0, 73, 48
1, 26858, Note_off_c, 0, 78, 65
1, 26868, Note_off_c, 0, 71, 65
1, 26877, Note_off_c, 0, 93, 67
1, 26921, Note_on_c, 0, 86, 45
1, 26951, Note_off_c, 0, 86, 59
1, 26969, Note_on_c, 0, 81, 49
1, 27020, Note_on_c, 0, 74, 69
1, 27026, Note_off_c, 0, 81, 54
1, 27041, Note_off_c, 0, 74, 64
1, 27065, Control_c, 0, 64, 92
1, 27080, Control_c, 0, 64, 76
1, 27095, Control_c, 0, 64, 67
1, 27104, Note_on_c, 0, 61, 58
1, 27109, Control_c, 0, 64, 63
1, 27121, Note_on_c, 0, 68, 60
1, 27124, Control_c, 0, 64, 64
1, 27139, Control_c, 0, 64, 66
1, 27154, Control_c, 0, 64, 69
1, 27169, Control_c, 0, 64, 73
1, 27184, Control_c, 0, 64, 80
1, 27199, Control_c, 0, 64, 93
1, 27214, Control_c, 0, 64, 127
1, 27232, Note_off_c, 0, 61, 57
1, 27242, Note_off_c, 0, 68, 61
1, 27253, Note_on_c, 0, 80, 69
1, 27254, Note_on_c, 0, 85, 80
1, 27258, Control_c, 0, 67, 127
1, 27273, Control_c, 0, 67, 125
1, 27279, Note_off_c, 0, 80, 69
1, 27288, Control_c, 0, 67, 123
1, 27302, Control_c, 0, 67, 121
1, 27317, Control_c, 0, 67, 109
1, 27327, Note_off_c, 0, 85, 63
1, 27332, Control_c, 0, 67, 83
1, 27347, Control_c, 0, 67, 49
1, 27362, Control_c, 0, 67, 23
1, 27378, Control_c, 0, 67, 0
1, 27395, Note_on_c, 0, 68, 58
1, 27410, Note_on_c, 0, 97, 73
1, 27411, Note_on_c, 0, 73, 19
1, 27415, Note_on_c, 0, 92, 81
1, 27439, Note_on_c, 0, 74, 26
1, 27440, Note_off_c, 0, 68, 54
1, 27452, Note_off_c, 0, 73, 40
1, 27453, Note_off_c, 0, 97, 63
1, 27473, Note_off_c, 0, 74, 39
1, 27518, Note_off_c, 0, 92, 62
1, 27530, Note_on_c, 0, 85, 76
1, 27536, Note_on_c, 0, 80, 79
1, 27565, Note_off_c, 0, 85, 56
1, 27594, Note_off_c, 0, 80, 63
1, 27665, Note_on_c, 0, 80, 65
1, 27667, Note_on_c, 0, 85, 82
1, 27718, Poly_aftertouch_c, 0, 78, 127
1, 27731, Note_on_c, 0, 81, 78
1, 27759, Poly_aftertouch_c, 0, 78, 0
1, 27790, Note_on_c, 0, 86, 82
1, 27792, Note_off_c, 0, 81, 68
1, 27795, Note_off_c, 0, 85, 58
1, 27853, Note_off_c, 0, 86, 62
1, 27856, Note_on_c, 0, 93, 83
1, 27883, Note_on_c, 0, 89, 29
1, 27905, Note_off_c, 0, 93, 67
1, 27915, Note_on_c, 0, 98, 89
1, 27917, Note_off_c, 0, 89, 48
1, 27931, Note_on_c, 0, 78, 77
1, 27932, Note_on_c, 0, 83, 82
1, 27954, Note_off_c, 0, 80, 54
1, 27967, Note_off_c, 0, 98, 67
1, 27977, Note_off_c, 0, 83, 62
1, 27982, Note_off_c, 0, 78, 65
1, 27996, Note_on_c, 0, 93, 78
1, 28053, Note_on_c, 0, 86, 69
1, 28056, Note_on_c, 0, 88, 67
1, 28057, Note_off_c, 0, 93, 64
1, 28087, Note_off_c, 0, 88, 67
1, 28102, Note_on_c, 0, 83, 77
1, 28103, Note_off_c, 0, 86, 62
1, 28129, Note_off_c, 0, 83, 66
1, 28169, Note_on_c, 0, 80, 91
1, 28174, Note_on_c, 0, 73, 77
1, 28264, Note_off_c, 0, 73, 60
1, 28290, Note_off_c, 0, 80, 61
1, 28315, Note_on_c, 0, 92, 94
1, 28322, Note_on_c, 0, 85, 81
1, 28347, Note_off_c, 0, 85, 67
1, 28391, Note_off_c, 0, 92, 65
1, 28457, Note_on_c, 0, 80, 84
1, 28461, Note_on_c, 0, 85, 88
1, 28468, Note_on_c, 0, 104, 90
1, 28471, Note_on_c, 0, 97, 88
1, 28499, Note_on_c, 0, 102, 43
1, 28499, Note_off_c, 0, 104, 64
1, 28529, Note_off_c, 0, 102, 35
1, 28533, Note_off_c, 0, 85, 63
1, 28548, Note_off_c, 0, 80, 63
1, 28552, Note_off_c, 0, 97, 62
1, 28603, Note_on_c, 0, 85, 88
1, 28609, Note_on_c, 0, 92, 82
1, 28648, Note_on_c, 0, 84, 32
1, 28648, Note_on_c, 0, 94, 37
1, 28665, Note_off_c, 0, 85, 63
1, 28676, Note_off_c, 0, 84, 55
1, 28693, Note_off_c, 0, 92, 64
1, 28699, Note_off_c, 0, 94, 58
1, 28747, Note_on_c, 0, 85, 86
1, 28768, Note_on_c, 0, 92, 95
1, 28845, Note_on_c, 0, 86, 86
1, 28887, Note_off_c, 0, 92, 56
1, 28912, Note_off_c, 0, 86, 66
1, 28915, Note_on_c, 0, 93, 91
1, 28984, Note_on_c, 0, 98, 92
1, 28997, Note_off_c, 0, 93, 64
1, 29057, Note_on_c, 0, 105, 95
1, 29058, Note_on_c, 0, 83, 84
1, 29060, Note_on_c, 0, 90, 83
1, 29064, Note_off_c, 0, 98, 57
1, 29071, Note_off_c, 0, 85, 50
1, 29105, Note_off_c, 0, 90, 65
1, 29110, Note_off_c, 0, 105, 66
1, 29125, Note_off_c, 0, 83, 63
1, 29142, Note_on_c, 0, 98, 61
1, 29157, Note_on_c, 0, 97, 50
1, 29164, Note_on_c, 0, 93, 84
1, 29178, Note_off_c, 0, 98, 67
1, 29186, Note_off_c, 0, 97, 52
1, 29228, Note_off_c, 0, 93, 66
1, 29229, Note_on_c, 0, 86, 80
1, 29264, Note_off_c, 0, 86, 62
1, 29306, Note_on_c, 0, 80, 93
1, 29312, Note_on_c, 0, 85, 88
1, 29366, Note_on_c, 0, 81, 77
1, 29422, Note_on_c, 0, 86, 83
1, 29426, Note_off_c, 0, 85, 55
1, 29429, Note_off_c, 0, 81, 66
1, 29494, Note_on_c, 0, 93, 85
1, 29494, Note_off_c, 0, 86, 62
1, 29515, Note_on_c, 0, 89, 42
1, 29542, Note_off_c, 0, 89, 53
1, 29554, Note_off_c, 0, 93, 66
1, 29554, Note_on_c, 0, 98, 85
1, 29557, Note_on_c, 0, 83, 84
1, 29560, Note_on_c, 0, 78, 86
1, 29573, Note_off_c, 0, 83, 74
1, 29593, Note_off_c, 0, 80, 63
1, 29607, Note_off_c, 0, 98, 67
1, 29617, Note_off_c, 0, 78, 63
1, 29630, Note_on_c, 0, 93, 77
1, 29668, Note_off_c, 0, 93, 63
1, 29673, Note_on_c, 0, 86, 79
1, 29715, Note_on_c, 0, 81, 80
1, 29727, Note_off_c, 0, 86, 63
1, 29755, Note_off_c, 0, 81, 67
1, 29795, Note_on_c, 0, 73, 91
1, 29803, Note_on_c, 0, 80, 88
1, 29852, Note_on_c, 0, 74, 80
1, 29903, Note_on_c, 0, 81, 75
1, 29903, Note_off_c, 0, 80, 62
1, 29906, Note_off_c, 0, 74, 66
1, 29974, Note_off_c, 0, 81, 64
1, 29986, Note_on_c, 0, 86, 75
1, 30025, Note_on_c, 0, 78, 85
1, 30031, Note_on_c, 0, 71, 79
1, 30037, Note_on_c, 0, 91, 85
1, 30037, Note_off_c, 0, 86, 64
1, 30051, Note_off_c, 0, 73, 54
1, 30071, Note_off_c, 0, 78, 64
1, 30081, Note_off_c, 0, 71, 64
1, 30091, Note_on_c, 0, 86, 69
1, 30093, Note_off_c, 0, 91, 65
1, 30134, Note_on_c, 0, 81, 71
1, 30144, Note_off_c, 0, 86, 65
1, 30171, Note_on_c, 0, 74, 86
1, 30192, Note_off_c, 0, 81, 63
1, 30214, Note_off_c, 0, 74, 65
1, 30257, Note_on_c, 0, 73, 104
1, 30265, Note_on_c, 0, 68, 75
1, 30273, Note_on_c, 0, 70, 65
1, 30317, Note_on_c, 0, 69, 73
1, 30324, Note_on_c, 0, 71, 53
1, 30350, Note_off_c, 0, 71, 56
1, 30358, Note_off_c, 0, 73, 56
1, 30376, Note_off_c, 0, 68, 48
1, 30377, Note_on_c, 0, 74, 87
1, 30423, Note_off_c, 0, 69, 52
1, 30454, Note_on_c, 0, 81, 83
1, 30459, Note_off_c, 0, 74, 59
1, 30472, Note_off_c, 0, 70, 41
1, 30474, Note_on_c, 0, 77, 55
1, 30493, Note_off_c, 0, 77, 60
1, 30499, Note_on_c, 0, 71, 75
1, 30506, Note_on_c, 0, 66, 77
1, 30519, Note_on_c, 0, 69, 52
1, 30529, Note_off_c, 0, 81, 65
1, 30532, Note_off_c, 0, 71, 65
1, 30533, Note_on_c, 0, 86, 91
1, 30540, Note_off_c, 0, 69, 62
1, 30556, Note_off_c, 0, 66, 63
1, 30594, Note_off_c, 0, 86, 60
1, 30610, Note_on_c, 0, 81, 75
1, 30679, Note_off_c, 0, 81, 62
1, 30684, Note_on_c, 0, 74, 69
1, 30742, Note_on_c, 0, 69, 82
1, 30751, Note_off_c, 0, 74, 60
1, 30808, Note_off_c, 0, 69, 57
1, 30810, Control_c, 0, 64, 97
1, 30824, Note_on_c, 0, 37, 82
1, 30824, Control_c, 0, 64, 73
1, 30827, Note_on_c, 0, 44, 74
1, 30839, Control_c, 0, 64, 56
1, 30854, Control_c, 0, 64, 34
1, 30884, Control_c, 0, 64, 39
1, 30898, Control_c, 0, 64, 46
1, 30913, Control_c, 0, 64, 55
1, 30928, Control_c, 0, 64, 63
1, 30935, Note_off_c, 0, 44, 56
1, 30943, Control_c, 0, 64, 67
1, 30958, Control_c, 0, 64, 73
1, 30973, Control_c, 0, 64, 86
1, 30988, Control_c, 0, 64, 127
1, 31003, Note_off_c, 0, 37, 60
1, 31029, Note_on_c, 0, 68, 63
1, 31038, Note_on_c, 0, 73, 66
1, 31091, Note_off_c, 0, 68, 58
1, 31128, Note_off_c, 0, 73, 64
1, 31137, Note_on_c, 0, 80, 65
1, 31229, Note_off_c, 0, 80, 56
1, 31280, Note_on_c, 0, 71, 82
1, 31342, Note_off_c, 0, 71, 57
1, 31408, Note_on_c, 0, 68, 57
1, 31427, Note_on_c, 0, 73, 64
1, 31449, Note_off_c, 0, 68, 64
1, 31501, Note_off_c, 0, 73, 63
1, 31509, Note_on_c, 0, 80, 68
1, 31605, Note_off_c, 0, 80, 53
1, 31605, Note_on_c, 0, 68, 87
1, 31649, Note_off_c, 0, 68, 62
1, 31700, Note_on_c, 0, 73, 64
1, 31795, Note_off_c, 0, 73, 63
1, 31801, Note_on_c, 0, 80, 58
1, 31877, Note_on_c, 0, 66, 84
1, 31890, Note_off_c, 0, 80, 55
1, 31910, Note_off_c, 0, 66, 59
1, 31966, Note_on_c, 0, 68, 49
1, 31973, Note_on_c, 0, 73, 58
1, 31993, Note_off_c, 0, 68, 62
1, 32044, Note_off_c, 0, 73, 63
1, 32061, Note_on_c, 0, 80, 59
1, 32126, Note_on_c, 0, 68, 85
1, 32139, Note_off_c, 0, 80, 54
1, 32159, Note_off_c, 0, 68, 61
1, 32237, Note_on_c, 0, 73, 60
1, 32243, Note_on_c, 0, 68, 37
1, 32275, Note_off_c, 0, 68, 52
1, 32305, Note_off_c, 0, 73, 64
1, 32317, Note_on_c, 0, 80, 60
1, 32387, Note_on_c, 0, 71, 81
1, 32397, Note_off_c, 0, 80, 54
1, 32423, Note_off_c, 0, 71, 61
1, 32488, Note_on_c, 0, 73, 62
1, 32502, Note_on_c, 0, 68, 33
1, 32529, Note_off_c, 0, 68, 52
1, 32556, Note_off_c, 0, 73, 63
1, 32561, Note_on_c, 0, 80, 59
1, 32639, Note_on_c, 0, 68, 78
1, 32644, Note_off_c, 0, 80, 51
1, 32686, Note_off_c, 0, 68, 60
1, 32747, Note_on_c, 0, 73, 59
1, 32752, Poly_aftertouch_c, 0, 69, 0
1, 32824, Note_off_c, 0, 73, 60
1, 32832, Note_on_c, 0, 80, 54
1, 32910, Note_on_c, 0, 66, 74
1, 32931, Note_off_c, 0, 80, 53
1, 32943, Note_off_c, 0, 66, 68
1, 33003, Note_on_c, 0, 68, 48
1, 33022, Note_on_c, 0, 73, 56
1, 33039, Note_off_c, 0, 68, 59
1, 33094, Note_on_c, 0, 80, 57
1, 33104, Note_off_c, 0, 73, 61
1, 33140, Note_off_c, 0, 80, 55
1, 33226, Note_on_c, 0, 61, 77
1, 33253, Note_off_c, 0, 61, 66
1, 33365, Note_on_c, 0, 61, 56
1, 33393, Note_off_c, 0, 61, 67
1, 33422, Note_on_c, 0, 68, 53
1, 33459, Note_off_c, 0, 68, 64
1, 33493, Note_on_c, 0, 73, 62
1, 33539, Note_off_c, 0, 73, 54
1, 33563, Note_on_c, 0, 59, 68
1, 33569, Note_on_c, 0, 64, 60
1, 33595, Note_off_c, 0, 64, 63
1, 33598, Note_off_c, 0, 59, 66
1, 33685, Note_on_c, 0, 73, 38
1, 33710, Note_off_c, 0, 73, 54
1, 33729, Note_on_c, 0, 68, 43
1, 33773, Note_on_c, 0, 61, 52
1, 33779, Note_off_c, 0, 68, 55
1, 33810, Note_off_c, 0, 61, 62
1, 33845, Note_on_c, 0, 56, 79
1, 33854, Note_on_c, 0, 64, 67
1, 33871, Note_off_c, 0, 64, 67
1, 33888, Note_off_c, 0, 56, 62
1, 33905, Note_on_c, 0, 61, 54
1, 33933, Note_off_c, 0, 61, 63
1, 33939, Note_on_c, 0, 68, 61
1, 33982, Note_off_c, 0, 68, 62
1, 34010, Note_on_c, 0, 73, 68
1, 34040, Note_off_c, 0, 73, 68
1, 34076, Note_on_c, 0, 80, 67
1, 34082, Note_on_c, 0, 54, 87
1, 34091, Note_on_c, 0, 64, 76
1, 34116, Note_off_c, 0, 64, 69
1, 34127, Note_off_c, 0, 54, 64
1, 34139, Note_off_c, 0, 80, 64
1, 34159, Note_on_c, 0, 73, 66
1, 34235, Note_off_c, 0, 73, 65
1, 34323, Note_on_c, 0, 64, 69
1, 34323, Note_on_c, 0, 56, 73
1, 34349, Note_off_c, 0, 64, 68
1, 34368, Note_off_c, 0, 56, 62
1, 34405, Note_on_c, 0, 61, 52
1, 34443, Note_off_c, 0, 61, 64
1, 34449, Note_on_c, 0, 68, 63
1, 34500, Note_off_c, 0, 68, 58
1, 34522, Note_on_c, 0, 73, 67
1, 34556, Note_off_c, 0, 73, 65
1, 34579, Note_on_c, 0, 59, 73
1, 34595, Note_on_c, 0, 64, 51
1, 34598, Note_on_c, 0, 80, 67
1, 34617, Note_off_c, 0, 59, 63
1, 34618, Note_off_c, 0, 64, 62
1, 34655, Note_off_c, 0, 80, 64
1, 34681, Note_on_c, 0, 73, 53
1, 34749, Note_off_c, 0, 73, 64
1, 34751, Note_on_c, 0, 68, 43
1, 34761, Control_c, 0, 67, 22
1, 34776, Control_c, 0, 67, 36
1, 34791, Control_c, 0, 67, 50
1, 34801, Note_on_c, 0, 61, 54
1, 34806, Control_c, 0, 67, 65
1, 34821, Control_c, 0, 67, 81
1, 34826, Note_off_c, 0, 68, 48
1, 34834, Note_off_c, 0, 61, 62
1, 34836, Control_c, 0, 67, 96
1, 34845, Note_on_c, 0, 64, 65
1, 34849, Note_on_c, 0, 56, 65
1, 34851, Control_c, 0, 67, 111
1, 34865, Control_c, 0, 67, 127
1, 34879, Note_off_c, 0, 64, 64
1, 34896, Note_off_c, 0, 56, 55
1, 34944, Note_on_c, 0, 61, 47
1, 34986, Note_off_c, 0, 61, 63
1, 34997, Note_on_c, 0, 68, 59
1, 35057, Note_off_c, 0, 68, 57
1, 35098, Note_on_c, 0, 73, 52
1, 35119, Note_on_c, 0, 54, 64
1, 35140, Note_on_c, 0, 64, 31
1, 35141, Note_off_c, 0, 73, 62
1, 35173, Note_off_c, 0, 64, 55
1, 35179, Note_off_c, 0, 54, 64
1, 35193, Note_on_c, 0, 80, 56
1, 35235, Note_off_c, 0, 80, 61
1, 35277, Note_on_c, 0, 73, 54
1, 35339, Note_off_c, 0, 73, 63
1, 35349, Note_on_c, 0, 68, 43
1, 35385, Note_off_c, 0, 68, 54
1, 35411, Note_on_c, 0, 61, 41
1, 35437, Note_off_c, 0, 61, 55
1, 35466, Control_c, 0, 64, 103
1, 35481, Control_c, 0, 64, 79
1, 35487, Note_on_c, 0, 49, 64
1, 35495, Control_c, 0, 64, 69
1, 35510, Control_c, 0, 64, 70
1, 35525, Control_c, 0, 64, 75
1, 35532, Note_off_c, 0, 49, 62
1, 35540, Control_c, 0, 64, 83
1, 35555, Control_c, 0, 64, 98
1, 35569, Control_c, 0, 64, 127
1, 35623, Note_on_c, 0, 49, 52
1, 35649, Note_off_c, 0, 49, 61
1, 35689, Note_on_c, 0, 56, 54
1, 35727, Note_off_c, 0, 56, 63
1, 35740, Note_on_c, 0, 61, 53
1, 35773, Note_off_c, 0, 61, 65
1, 35791, Note_on_c, 0, 56, 71
1, 35817, Note_off_c, 0, 56, 64
1, 35853, Poly_aftertouch_c, 0, 56, 0
1, 35875, Poly_aftertouch_c, 0, 56, 0
1, 35930, Note_on_c, 0, 61, 59
1, 35963, Note_on_c, 0, 68, 60
1, 35966, Note_off_c, 0, 61, 62
1, 35996, Note_off_c, 0, 68, 65
1, 36022, Note_on_c, 0, 61, 75
1, 36062, Note_off_c, 0, 61, 0
1, 36116, Poly_aftertouch_c, 0, 61, 0
1, 36153, Note_on_c, 0, 68, 65
1, 36201, Note_off_c, 0, 68, 55
1, 36204, Note_on_c, 0, 73, 53
1, 36231, Note_off_c, 0, 73, 64
1, 36240, Note_on_c, 0, 68, 79
1, 36274, Note_off_c, 0, 68, 60
1, 36327, Note_on_c, 0, 68, 46
1, 36353, Note_off_c, 0, 68, 62
1, 36383, Note_on_c, 0, 73, 62
1, 36413, Note_on_c, 0, 80, 59
1, 36415, Note_off_c, 0, 73, 65
1, 36442, Note_off_c, 0, 80, 62
1, 36495, Note_on_c, 0, 73, 65
1, 36529, Note_off_c, 0, 73, 0
1, 36544, Note_on_c, 0, 73, 49
1, 36585, Note_off_c, 0, 73, 62
1, 36605, Note_on_c, 0, 80, 69
1, 36648, Note_off_c, 0, 80, 56
1, 36672, Note_on_c, 0, 85, 58
1, 36705, Note_off_c, 0, 85, 67
1, 36733, Note_on_c, 0, 73, 77
1, 36755, Note_off_c, 0, 73, 71
1, 36810, Note_on_c, 0, 73, 71
1, 36845, Note_off_c, 0, 73, 59
1, 36876, Note_on_c, 0, 80, 63
1, 36910, Note_off_c, 0, 80, 65
1, 36921, Note_on_c, 0, 85, 58
1, 36953, Note_off_c, 0, 85, 66
1, 36972, Note_on_c, 0, 73, 82
1, 36991, Note_off_c, 0, 73, 71
1, 37064, Note_on_c, 0, 73, 67
1, 37095, Note_off_c, 0, 73, 64
1, 37130, Note_on_c, 0, 80, 61
1, 37160, Note_off_c, 0, 80, 67
1, 37182, Note_on_c, 0, 85, 42
1, 37207, Note_off_c, 0, 85, 56
1, 37245, Note_on_c, 0, 73, 64
1, 37261, Note_off_c, 0, 73, 63
1, 37322, Note_on_c, 0, 73, 61
1, 37345, Note_off_c, 0, 73, 64
1, 37385, Note_on_c, 0, 80, 58
1, 37426, Note_off_c, 0, 80, 66
1, 37444, Note_on_c, 0, 85, 57
1, 37482, Note_off_c, 0, 85, 62
1, 37528, Note_on_c, 0, 73, 60
1, 37546, Note_off_c, 0, 73, 61
1, 37624, Note_on_c, 0, 73, 58
1, 37650, Note_off_c, 0, 73, 65
1, 37690, Note_on_c, 0, 80, 47
1, 37713, Note_off_c, 0, 80, 58
1, 37732, Note_on_c, 0, 85, 46
1, 37764, Note_off_c, 0, 85, 53
1, 37832, Note_on_c, 0, 73, 60
1, 37853, Note_off_c, 0, 73, 64
1, 37939, Note_on_c, 0, 73, 44
1, 37962, Note_off_c, 0, 73, 59
1, 38005, Note_on_c, 0, 80, 48
1, 38039, Note_off_c, 0, 80, 60
1, 38050, Note_on_c, 0, 85, 47
1, 38086, Note_off_c, 0, 85, 57
1, 38170, Note_on_c, 0, 73, 26
1, 38225, Note_off_c, 0, 73, 0
1, 38245, Note_on_c, 0, 73, 26
1, 38304, Note_off_c, 0, 73, 54
1, 38336, Note_on_c, 0, 80, 46
1, 38389, Note_off_c, 0, 80, 56
1, 38418, Note_on_c, 0, 85, 30
1, 38451, Note_off_c, 0, 85, 52
1, 38510, Note_on_c, 0, 73, 42
1, 38536, Note_off_c, 0, 73, 55
1, 38634, Note_on_c, 0, 73, 45
1, 38696, Note_off_c, 0, 73, 53
1, 38772, Note_on_c, 0, 80, 24
1, 38935, Note_off_c, 0, 80, 22
1, 38959, Note_on_c, 0, 85, 23
1, 38993, Note_off_c, 0, 85, 52
1, 39081, Note_on_c, 0, 59, 42
1, 39147, Note_on_c, 0, 61, 36
1, 39190, Note_off_c, 0, 59, 59
1, 39191, Note_on_c, 0, 64, 36
1, 39210, Note_on_c, 0, 66, 45
1, 39219, Note_off_c, 0, 61, 57
1, 39221, Note_off_c, 0, 64, 60
1, 39237, Note_off_c, 0, 66, 61
1, 39298, Note_on_c, 0, 69, 40
1, 39302, Note_on_c, 0, 71, 31
1, 39352, Note_off_c, 0, 71, 61
1, 39367, Note_on_c, 0, 76, 43
1, 39377, Note_off_c, 0, 69, 38
1, 39400, Note_on_c, 0, 78, 41
1, 39478, Note_off_c, 0, 76, 51
1, 39561, Note_on_c, 0, 73, 50
1, 39576, Note_on_c, 0, 85, 52
1, 39585, Note_off_c, 0, 78, 24
1, 39613, Note_on_c, 0, 83, 30
1, 39629, Note_off_c, 0, 73, 54
1, 39629, Note_off_c, 0, 85, 58
1, 39668, Poly_aftertouch_c, 0, 81, 127
1, 39714, Poly_aftertouch_c, 0, 81, 0
1, 39764, Note_off_c, 0, 83, 38
1, 39772, Note_on_c, 0, 78, 23
1, 39805, Note_on_c, 0, 76, 8
1, 39836, Note_off_c, 0, 78, 39
1, 39860, Note_off_c, 0, 76, 46
1, 39881, Note_on_c, 0, 69, 41
1, 39904, Note_on_c, 0, 71, 29
1, 39918, Note_off_c, 0, 69, 49
1, 39938, Note_off_c, 0, 71, 46
1, 39992, Note_on_c, 0, 87, 64
1, 39993, Note_on_c, 0, 75, 53
1, 40014, Note_on_c, 0, 69, 18
1, 40023, Note_on_c, 0, 71, 15
1, 40044, Note_off_c, 0, 75, 57
1, 40048, Note_off_c, 0, 87, 60
1, 40062, Note_off_c, 0, 69, 62
1, 40064, Note_off_c, 0, 71, 50
1, 40137, Note_on_c, 0, 76, 21
1, 40149, Note_on_c, 0, 78, 31
1, 40187, Note_off_c, 0, 76, 44
1, 40205, Note_on_c, 0, 81, 50
1, 40210, Note_on_c, 0, 83, 45
1, 40216, Note_off_c, 0, 78, 62
1, 40237, Note_off_c, 0, 83, 58
1, 40243, Note_off_c, 0, 81, 64
1, 40297, Note_on_c, 0, 85, 66
1, 40303, Note_on_c, 0, 73, 54
1, 40338, Note_on_c, 0, 83, 42
1, 40340, Note_off_c, 0, 73, 67
1, 40361, Note_off_c, 0, 85, 60
1, 40419, Note_off_c, 0, 83, 58
1, 40438, Note_on_c, 0, 78, 44
1, 40443, Note_on_c, 0, 76, 45
1, 40485, Note_off_c, 0, 76, 48
1, 40535, Note_on_c, 0, 69, 45
1, 40547, Note_on_c, 0, 71, 31
1, 40575, Note_off_c, 0, 78, 0
1, 40589, Note_on_c, 0, 78, 36
1, 40598, Note_off_c, 0, 69, 0
1, 40604, Note_off_c, 0, 71, 0
1, 40604, Note_on_c, 0, 90, 66
1, 40613, Note_on_c, 0, 71, 48
1, 40614, Note_on_c, 0, 69, 26
1, 40644, Note_off_c, 0, 90, 56
1, 40660, Note_off_c, 0, 78, 63
1, 40668, Note_off_c, 0, 71, 59
1, 40679, Note_off_c, 0, 69, 61
1, 40731, Note_on_c, 0, 78, 37
1, 40735, Note_on_c, 0, 76, 38
1, 40768, Note_on_c, 0, 87, 71
1, 40770, Note_on_c, 0, 75, 71
1, 40784, Note_off_c, 0, 76, 50
1, 40796, Note_off_c, 0, 87, 67
1, 40802, Note_off_c, 0, 75, 61
1, 40830, Note_on_c, 0, 83, 39
1, 40831, Note_on_c, 0, 81, 49
1, 40841, Note_off_c, 0, 78, 57
1, 40863, Note_off_c, 0, 83, 52
1, 40867, Note_off_c, 0, 81, 62
1, 40920, Note_on_c, 0, 73, 66
1, 40922, Note_on_c, 0, 85, 60
1, 40947, Note_off_c, 0, 85, 66
1, 40952, Note_on_c, 0, 83, 43
1, 40959, Note_on_c, 0, 81, 40
1, 40959, Note_off_c, 0, 73, 58
1, 40992, Note_off_c, 0, 81, 56
1, 41006, Note_off_c, 0, 83, 60
1, 41030, Note_on_c, 0, 78, 59
1, 41054, Note_on_c, 0, 76, 34
1, 41105, Note_off_c, 0, 78, 58
1, 41115, Note_off_c, 0, 76, 38
1, 41127, Note_on_c, 0, 69, 61
1, 41164, Note_on_c, 0, 71, 39
1, 41170, Note_off_c, 0, 69, 61
1, 41194, Note_off_c, 0, 71, 54
1, 41221, Note_on_c, 0, 80, 70
1, 41229, Note_on_c, 0, 68, 53
1, 41240, Note_on_c, 0, 69, 37
1, 41251, Note_on_c, 0, 71, 56
1, 41263, Note_off_c, 0, 80, 56
1, 41273, Note_off_c, 0, 68, 63
1, 41287, Note_off_c, 0, 71, 59
1, 41305, Note_off_c, 0, 69, 63
1, 41328, Note_on_c, 0, 76, 51
1, 41331, Note_on_c, 0, 78, 62
1, 41405, Note_off_c, 0, 76, 38
1, 41410, Note_on_c, 0, 81, 56
1, 41414, Note_on_c, 0, 83, 52
1, 41420, Note_off_c, 0, 78, 64
1, 41443, Note_off_c, 0, 83, 65
1, 41446, Note_off_c, 0, 81, 65
1, 41488, Note_on_c, 0, 80, 68
1, 41492, Note_on_c, 0, 68, 61
1, 41528, Note_on_c, 0, 83, 53
1, 41528, Note_on_c, 0, 81, 57
1, 41549, Note_off_c, 0, 80, 63
1, 41576, Note_off_c, 0, 81, 56
1, 41578, Note_off_c, 0, 83, 53
1, 41614, Note_on_c, 0, 78, 59
1, 41618, Note_on_c, 0, 76, 54
1, 41659, Note_off_c, 0, 76, 61
1, 41692, Note_off_c, 0, 78, 56
1, 41719, Note_on_c, 0, 69, 47
1, 41728, Note_on_c, 0, 71, 38
1, 41746, Note_off_c, 0, 69, 55
1, 41758, Note_off_c, 0, 71, 51
1, 41784, Note_on_c, 0, 66, 52
1, 41820, Note_on_c, 0, 78, 26
1, 41829, Note_on_c, 0, 71, 38
1, 41833, Note_on_c, 0, 69, 52
1, 41849, Note_off_c, 0, 68, 40
1, 41850, Note_off_c, 0, 66, 60
1, 41856, Note_off_c, 0, 78, 40
1, 41867, Note_off_c, 0, 71, 60
1, 41871, Note_off_c, 0, 69, 65
1, 41895, Note_on_c, 0, 76, 59
1, 41937, Note_on_c, 0, 78, 56
1, 41976, Note_off_c, 0, 76, 52
1, 42026, Note_off_c, 0, 78, 60
1, 42031, Note_on_c, 0, 59, 56
1, 42035, Note_on_c, 0, 83, 46
1, 42035, Note_on_c, 0, 81, 51
1, 42060, Note_off_c, 0, 83, 59
1, 42074, Note_off_c, 0, 81, 63
1, 42112, Note_off_c, 0, 59, 50
1, 42115, Control_c, 0, 64, 92
1, 42129, Control_c, 0, 64, 76
1, 42144, Control_c, 0, 64, 69
1, 42159, Control_c, 0, 64, 68
1, 42161, Note_on_c, 0, 61, 58
1, 42173, Note_on_c, 0, 83, 31
1, 42174, Note_on_c, 0, 73, 66
1, 42174, Control_c, 0, 64, 69
1, 42188, Control_c, 0, 64, 72
1, 42194, Note_on_c, 0, 81, 38
1, 42203, Control_c, 0, 64, 77
1, 42218, Control_c, 0, 64, 83
1, 42233, Control_c, 0, 64, 91
1, 42248, Control_c, 0, 64, 100
1, 42250, Note_off_c, 0, 73, 64
1, 42252, Note_off_c, 0, 61, 63
1, 42258, Note_off_c, 0, 81, 46
1, 42262, Control_c, 0, 64, 109
1, 42277, Control_c, 0, 64, 127
1, 42301, Note_on_c, 0, 76, 49
1, 42301, Note_off_c, 0, 83, 35
1, 42312, Note_on_c, 0, 78, 48
1, 42343, Note_off_c, 0, 76, 60
1, 42358, Note_off_c, 0, 78, 57
1, 42383, Note_on_c, 0, 69, 61
1, 42402, Note_on_c, 0, 71, 50
1, 42416, Note_off_c, 0, 69, 65
1, 42425, Note_off_c, 0, 71, 57
1, 42479, Note_on_c, 0, 75, 68
1, 42490, Note_on_c, 0, 63, 58
1, 42515, Note_on_c, 0, 71, 36
1, 42522, Note_on_c, 0, 69, 51
1, 42546, Note_off_c, 0, 75, 61
1, 42549, Note_off_c, 0, 63, 60
1, 42554, Note_off_c, 0, 71, 49
1, 42555, Note_off_c, 0, 69, 62
1, 42574, Note_on_c, 0, 76, 57
1, 42587, Note_on_c, 0, 78, 59
1, 42621, Note_off_c, 0, 76, 56
1, 42625, Note_off_c, 0, 78, 61
1, 42690, Note_on_c, 0, 83, 54
1, 42700, Note_on_c, 0, 81, 39
1, 42718, Note_off_c, 0, 83, 65
1, 42723, Note_off_c, 0, 81, 59
1, 42807, Note_on_c, 0, 61, 59
1, 42808, Note_on_c, 0, 73, 65
1, 42817, Note_on_c, 0, 81, 52
1, 42817, Note_on_c, 0, 83, 41
1, 42851, Note_off_c, 0, 61, 57
1, 42852, Note_off_c, 0, 81, 64
1, 42869, Note_off_c, 0, 73, 63
1, 42904, Note_off_c, 0, 83, 40
1, 42921, Note_on_c, 0, 76, 46
1, 42939, Note_on_c, 0, 78, 42
1, 42968, Note_off_c, 0, 76, 60
1, 43012, Note_off_c, 0, 78, 35
1, 43020, Note_on_c, 0, 69, 54
1, 43031, Note_on_c, 0, 71, 51
1, 43046, Note_off_c, 0, 69, 60
1, 43054, Note_off_c, 0, 71, 57
1, 43134, Note_on_c, 0, 78, 70
1, 43139, Note_on_c, 0, 66, 58
1, 43147, Note_on_c, 0, 71, 44
1, 43156, Note_on_c, 0, 69, 50
1, 43162, Note_off_c, 0, 78, 68
1, 43174, Note_off_c, 0, 66, 62
1, 43197, Note_off_c, 0, 69, 54
1, 43201, Note_off_c, 0, 71, 56
1, 43230, Note_on_c, 0, 76, 50
1, 43251, Note_on_c, 0, 78, 54
1, 43278, Note_on_c, 0, 75, 74
1, 43284, Note_off_c, 0, 76, 57
1, 43294, Note_on_c, 0, 63, 55
1, 43332, Note_off_c, 0, 63, 64
1, 43332, Note_off_c, 0, 75, 59
1, 43349, Note_off_c, 0, 78, 58
1, 43353, Note_on_c, 0, 83, 49
1, 43355, Note_on_c, 0, 81, 49
1, 43390, Note_off_c, 0, 83, 63
1, 43395, Note_off_c, 0, 81, 64
1, 43461, Note_on_c, 0, 73, 73
1, 43475, Note_on_c, 0, 61, 55
1, 43507, Note_on_c, 0, 81, 40
1, 43509, Note_off_c, 0, 73, 56
1, 43510, Note_off_c, 0, 61, 61
1, 43516, Note_on_c, 0, 83, 23
1, 43537, Note_off_c, 0, 81, 56
1, 43572, Note_off_c, 0, 83, 52
1, 43594, Note_on_c, 0, 76, 51
1, 43603, Note_on_c, 0, 78, 52
1, 43654, Note_off_c, 0, 78, 57
1, 43661, Note_off_c, 0, 76, 42
1, 43686, Note_on_c, 0, 69, 55
1, 43696, Note_on_c, 0, 71, 55
1, 43719, Note_off_c, 0, 71, 58
1, 43724, Note_off_c, 0, 69, 63
1, 43785, Note_on_c, 0, 68, 67
1, 43794, Note_on_c, 0, 56, 58
1, 43809, Note_on_c, 0, 69, 57
1, 43810, Note_on_c, 0, 71, 42
1, 43820, Note_off_c, 0, 68, 60
1, 43835, Note_off_c, 0, 56, 62
1, 43872, Note_off_c, 0, 71, 52
1, 43887, Note_off_c, 0, 69, 57
1, 43894, Note_on_c, 0, 76, 50
1, 43916, Note_on_c, 0, 78, 41
1, 43981, Note_off_c, 0, 76, 50
1, 43988, Note_on_c, 0, 83, 59
1, 43991, Note_on_c, 0, 81, 56
1, 44008, Note_off_c, 0, 78, 51
1, 44022, Note_off_c, 0, 83, 66
1, 44026, Note_off_c, 0, 81, 65
1, 44096, Note_on_c, 0, 68, 58
1, 44107, Note_on_c, 0, 56, 45
1, 44113, Note_on_c, 0, 81, 57
1, 44129, Note_on_c, 0, 83, 44
1, 44174, Note_off_c, 0, 68, 48
1, 44178, Note_off_c, 0, 81, 48
1, 44198, Note_off_c, 0, 83, 48
1, 44229, Note_on_c, 0, 76, 50
1, 44237, Note_on_c, 0, 78, 50
1, 44282, Note_off_c, 0, 76, 56
1, 44296, Note_off_c, 0, 78, 54
1, 44327, Note_on_c, 0, 69, 46
1, 44353, Note_on_c, 0, 71, 26
1, 44353, Note_off_c, 0, 69, 56
1, 44388, Note_off_c, 0, 71, 46
1, 44417, Note_on_c, 0, 66, 45
1, 44429, Note_on_c, 0, 71, 54
1, 44430, Note_on_c, 0, 69, 34
1, 44431, Note_on_c, 0, 54, 39
1, 44443, Note_off_c, 0, 66, 59
1, 44444, Note_off_c, 0, 56, 30
1, 44466, Note_off_c, 0, 54, 57
1, 44501, Note_off_c, 0, 71, 52
1, 44503, Note_off_c, 0, 69, 56
1, 44524, Note_on_c, 0, 76, 40
1, 44541, Note_on_c, 0, 78, 45
1, 44577, Note_off_c, 0, 76, 41
1, 44612, Note_on_c, 0, 83, 58
1, 44614, Note_off_c, 0, 78, 60
1, 44643, Note_off_c, 0, 83, 65
1, 44762, Control_c, 0, 64, 94
1, 44768, Note_on_c, 0, 47, 43
1, 44776, Control_c, 0, 64, 79
1, 44791, Control_c, 0, 64, 68
1, 44800, Note_on_c, 0, 73, 51
1, 44802, Note_on_c, 0, 85, 56
1, 44806, Control_c, 0, 64, 65
1, 44807, Note_on_c, 0, 78, 38
1, 44821, Control_c, 0, 64, 65
1, 44836, Control_c, 0, 64, 67
1, 44849, Note_off_c, 0, 47, 58
1, 44850, Control_c, 0, 64, 71
1, 44865, Control_c, 0, 64, 75
1, 44867, Note_on_c, 0, 49, 43
1, 44880, Control_c, 0, 64, 81
1, 44903, Control_c, 0, 64, 90
1, 44917, Control_c, 0, 64, 100
1, 44926, Note_off_c, 0, 49, 60
1, 44932, Control_c, 0, 64, 119
1, 44942, Note_on_c, 0, 52, 43
1, 44947, Control_c, 0, 64, 127
1, 44950, Note_off_c, 0, 73, 59
1, 44964, Note_off_c, 0, 78, 49
1, 44969, Note_off_c, 0, 52, 58
1, 45005, Note_on_c, 0, 57, 49
1, 45041, Note_off_c, 0, 57, 63
1, 45099, Note_off_c, 0, 85, 63
1, 45111, Note_on_c, 0, 87, 63
1, 45118, Note_on_c, 0, 59, 60
1, 45129, Note_on_c, 0, 75, 47
1, 45137, Note_on_c, 0, 80, 41
1, 45187, Note_off_c, 0, 59, 59
1, 45238, Note_off_c, 0, 87, 63
1, 45261, Note_on_c, 0, 64, 47
1, 45269, Note_off_c, 0, 75, 57
1, 45275, Note_off_c, 0, 80, 58
1, 45299, Note_off_c, 0, 64, 64
1, 45325, Note_on_c, 0, 69, 50
1, 45370, Note_off_c, 0, 69, 61
1, 45397, Note_on_c, 0, 59, 53
1, 45397, Note_on_c, 0, 85, 71
1, 45406, Note_on_c, 0, 73, 58
1, 45411, Note_on_c, 0, 78, 50
1, 45439, Note_off_c, 0, 59, 59
1, 45446, Note_on_c, 0, 61, 50
1, 45454, Note_off_c, 0, 78, 63
1, 45467, Note_off_c, 0, 73, 63
1, 45497, Note_off_c, 0, 61, 55
1, 45516, Note_on_c, 0, 63, 43
1, 45542, Note_off_c, 0, 63, 54
1, 45596, Note_on_c, 0, 69, 57
1, 45651, Note_off_c, 0, 69, 57
1, 45654, Note_off_c, 0, 85, 64
1, 45697, Note_on_c, 0, 76, 45
1, 45716, Note_on_c, 0, 90, 65
1, 45722, Note_off_c, 0, 76, 53
1, 45722, Note_on_c, 0, 78, 67
1, 45725, Control_c, 0, 67, 125
1, 45740, Control_c, 0, 67, 123
1, 45755, Note_off_c, 0, 90, 61
1, 45756, Control_c, 0, 67, 122
1, 45767, Note_off_c, 0, 78, 61
1, 45771, Control_c, 0, 67, 121
1, 45773, Note_on_c, 0, 69, 62
1, 45800, Control_c, 0, 67, 120
1, 45814, Note_off_c, 0, 69, 55
1, 45815, Control_c, 0, 67, 120
1, 45830, Control_c, 0, 67, 119
1, 45844, Control_c, 0, 67, 117
1, 45859, Control_c, 0, 67, 112
1, 45860, Note_on_c, 0, 87, 67
1, 45867, Note_on_c, 0, 75, 68
1, 45874, Control_c, 0, 67, 107
1, 45889, Control_c, 0, 67, 104
1, 45894, Note_on_c, 0, 64, 54
1, 45904, Control_c, 0, 67, 99
1, 45912, Note_off_c, 0, 87, 62
1, 45916, Note_off_c, 0, 75, 57
1, 45919, Control_c, 0, 67, 96
1, 45934, Note_off_c, 0, 64, 64
1, 45934, Control_c, 0, 67, 92
1, 45949, Control_c, 0, 67, 89
1, 45964, Note_on_c, 0, 61, 48
1, 45964, Control_c, 0, 67, 83
1, 45978, Control_c, 0, 67, 77
1, 45993, Control_c, 0, 67, 72
1, 45997, Note_off_c, 0, 61, 63
1, 46008, Control_c, 0, 67, 69
1, 46010, Note_on_c, 0, 59, 57
1, 46015, Note_on_c, 0, 85, 72
1, 46022, Control_c, 0, 67, 66
1, 46029, Note_on_c, 0, 73, 62
1, 46037, Control_c, 0, 67, 62
1, 46050, Note_on_c, 0, 78, 49
1, 46052, Control_c, 0, 67, 59
1, 46067, Control_c, 0, 67, 55
1, 46080, Note_off_c, 0, 85, 65
1, 46082, Control_c, 0, 67, 51
1, 46089, Note_off_c, 0, 78, 65
1, 46092, Note_on_c, 0, 61, 62
1, 46096, Note_off_c, 0, 59, 53
1, 46096, Control_c, 0, 67, 46
1, 46111, Control_c, 0, 67, 41
1, 46122, Note_off_c, 0, 73, 61
1, 46126, Control_c, 0, 67, 35
1, 46141, Control_c, 0, 67, 29
1, 46153, Note_on_c, 0, 64, 57
1, 46156, Note_off_c, 0, 61, 52
1, 46156, Control_c, 0, 67, 23
1, 46170, Control_c, 0, 67, 17
1, 46185, Control_c, 0, 67, 11
1, 46200, Control_c, 0, 67, 0
1, 46220, Note_on_c, 0, 69, 68
1, 46241, Note_off_c, 0, 64, 54
1, 46311, Note_off_c, 0, 69, 59
1, 46313, Note_on_c, 0, 80, 78
1, 46314, Note_on_c, 0, 59, 61
1, 46319, Note_on_c, 0, 68, 67
1, 46321, Note_on_c, 0, 73, 69
1, 46363, Note_on_c, 0, 61, 53
1, 46415, Note_off_c, 0, 59, 60
1, 46446, Note_on_c, 0, 64, 57
1, 46451, Note_off_c, 0, 61, 60
1, 46460, Note_off_c, 0, 68, 60
1, 46464, Note_off_c, 0, 80, 62
1, 46485, Note_off_c, 0, 73, 62
1, 46497, Note_on_c, 0, 69, 71
1, 46567, Note_off_c, 0, 64, 0
1, 46593, Note_on_c, 0, 59, 63
1, 46593, Control_c, 0, 64, 88
1, 46595, Note_off_c, 0, 69, 60
1, 46602, Poly_aftertouch_c, 0, 64, 0
1, 46608, Control_c, 0, 64, 72
1, 46614, Note_on_c, 0, 73, 63
1, 46615, Note_on_c, 0, 80, 79
1, 46622, Control_c, 0, 64, 63
1, 46625, Note_on_c, 0, 68, 69
1, 46637, Control_c, 0, 64, 60
1, 46652, Control_c, 0, 64, 62
1, 46667, Control_c, 0, 64, 64
1, 46667, Note_on_c, 0, 61, 55
1, 46682, Control_c, 0, 64, 65
1, 46697, Control_c, 0, 64, 69
1, 46711, Note_off_c, 0, 59, 59
1, 46712, Control_c, 0, 64, 74
1, 46726, Control_c, 0, 64, 82
1, 46730, Note_on_c, 0, 64, 56
1, 46741, Control_c, 0, 64, 91
1, 46754, Note_off_c, 0, 80, 64
1, 46756, Control_c, 0, 64, 105
1, 46771, Control_c, 0, 64, 127
1, 46772, Note_off_c, 0, 61, 61
1, 46790, Note_off_c, 0, 73, 64
1, 46792, Note_off_c, 0, 68, 55
1, 46795, Note_on_c, 0, 69, 69
1, 46852, Note_off_c, 0, 64, 51
1, 46878, Note_on_c, 0, 59, 62
1, 46882, Note_off_c, 0, 69, 60
1, 46891, Note_on_c, 0, 78, 78
1, 46898, Note_on_c, 0, 66, 67
1, 46900, Note_on_c, 0, 71, 67
1, 46963, Note_on_c, 0, 61, 60
1, 46981, Note_off_c, 0, 78, 64
1, 46992, Note_off_c, 0, 66, 61
1, 46997, Note_off_c, 0, 71, 62
1, 46998, Note_off_c, 0, 59, 59
1, 47032, Note_on_c, 0, 63, 49
1, 47060, Note_off_c, 0, 61, 60
1, 47070, Note_off_c, 0, 63, 64
1, 47087, Note_on_c, 0, 69, 66
1, 47118, Note_off_c, 0, 69, 59
1, 47228, Note_on_c, 0, 56, 63
1, 47239, Control_c, 0, 64, 125
1, 47253, Control_c, 0, 64, 89
1, 47268, Note_on_c, 0, 69, 50
1, 47268, Control_c, 0, 64, 73
1, 47270, Note_on_c, 0, 76, 64
1, 47278, Note_on_c, 0, 64, 59
1, 47283, Control_c, 0, 64, 65
1, 47298, Control_c, 0, 64, 59
1, 47313, Control_c, 0, 64, 59
1, 47327, Control_c, 0, 64, 61
1, 47342, Control_c, 0, 64, 63
1, 47358, Control_c, 0, 64, 64
1, 47373, Control_c, 0, 64, 67
1, 47388, Control_c, 0, 64, 70
1, 47398, Note_on_c, 0, 57, 38
1, 47403, Control_c, 0, 64, 74
1, 47409, Note_off_c, 0, 64, 60
1, 47417, Control_c, 0, 64, 80
1, 47432, Control_c, 0, 64, 87
1, 47436, Note_off_c, 0, 76, 62
1, 47447, Control_c, 0, 64, 95
1, 47462, Control_c, 0, 64, 104
1, 47465, Note_on_c, 0, 61, 45
1, 47476, Control_c, 0, 64, 127
1, 47503, Note_off_c, 0, 56, 54
1, 47516, Note_off_c, 0, 61, 58
1, 47543, Note_off_c, 0, 69, 37
1, 47544, Note_on_c, 0, 64, 38
1, 47553, Note_off_c, 0, 57, 62
1, 47556, Note_on_c, 0, 66, 63
1, 47556, Note_on_c, 0, 78, 63
1, 47565, Note_on_c, 0, 54, 66
1, 47565, Control_c, 0, 64, 109
1, 47569, Note_on_c, 0, 73, 54
1, 47576, Note_off_c, 0, 64, 56
1, 47580, Control_c, 0, 64, 85
1, 47595, Control_c, 0, 64, 71
1, 47605, Note_off_c, 0, 78, 61
1, 47610, Control_c, 0, 64, 66
1, 47624, Note_off_c, 0, 66, 59
1, 47624, Control_c, 0, 64, 66
1, 47639, Control_c, 0, 64, 68
1, 47654, Control_c, 0, 64, 71
1, 47666, Note_off_c, 0, 73, 58
1, 47669, Control_c, 0, 64, 76
1, 47684, Control_c, 0, 64, 84
1, 47690, Note_on_c, 0, 57, 44
1, 47699, Control_c, 0, 64, 96
1, 47711, Note_on_c, 0, 76, 70
1, 47711, Note_on_c, 0, 64, 67
1, 47712, Note_on_c, 0, 61, 43
1, 47712, Note_on_c, 0, 69, 62
1, 47713, Control_c, 0, 64, 127
1, 47726, Note_off_c, 0, 54, 60
1, 47737, Note_off_c, 0, 61, 60
1, 47746, Note_off_c, 0, 76, 61
1, 47748, Note_off_c, 0, 69, 63
1, 47793, Note_off_c, 0, 64, 63
1, 47849, Note_on_c, 0, 52, 63
1, 47861, Note_off_c, 0, 57, 34
1, 47875, Note_on_c, 0, 73, 68
1, 47876, Control_c, 0, 64, 84
1, 47883, Note_on_c, 0, 61, 58
1, 47898, Control_c, 0, 64, 70
1, 47913, Control_c, 0, 64, 64
1, 47928, Control_c, 0, 64, 62
1, 47943, Control_c, 0, 64, 63
1, 47958, Control_c, 0, 64, 65
1, 47973, Control_c, 0, 64, 68
1, 47975, Note_on_c, 0, 54, 49
1, 47988, Control_c, 0, 64, 71
1, 48002, Control_c, 0, 64, 77
1, 48017, Control_c, 0, 64, 83
1, 48021, Note_off_c, 0, 61, 55
1, 48032, Control_c, 0, 64, 92
1, 48035, Note_on_c, 0, 57, 43
1, 48047, Control_c, 0, 64, 109
1, 48062, Control_c, 0, 64, 127
1, 48098, Note_off_c, 0, 54, 53
1, 48113, Note_on_c, 0, 61, 53
1, 48160, Note_off_c, 0, 57, 62
1, 48166, Note_off_c, 0, 61, 60
1, 48191, Note_on_c, 0, 64, 66
1, 48251, Note_off_c, 0, 52, 53
1, 48265, Note_off_c, 0, 64, 57
1, 48266, Note_on_c, 0, 61, 67
1, 48306, Note_on_c, 0, 57, 57
1, 48330, Note_off_c, 0, 61, 61
1, 48348, Note_on_c, 0, 54, 60
1, 48354, Note_off_c, 0, 57, 64
1, 48425, Note_off_c, 0, 54, 62
1, 48437, Note_on_c, 0, 49, 68
1, 48447, Control_c, 0, 64, 103
1, 48458, Note_on_c, 0, 76, 73
1, 48461, Control_c, 0, 64, 79
1, 48467, Note_on_c, 0, 64, 63
1, 48476, Control_c, 0, 64, 67
1, 48483, Note_on_c, 0, 69, 49
1, 48490, Control_c, 0, 64, 62
1, 48492, Note_off_c, 0, 73, 28
1, 48520, Control_c, 0, 64, 64
1, 48535, Control_c, 0, 64, 65
1, 48550, Control_c, 0, 64, 68
1, 48557, Note_on_c, 0, 52, 58
1, 48564, Control_c, 0, 64, 73
1, 48579, Control_c, 0, 64, 80
1, 48594, Control_c, 0, 64, 90
1, 48609, Control_c, 0, 64, 109
1, 48615, Note_on_c, 0, 54, 60
1, 48621, Note_off_c, 0, 64, 56
1, 48623, Control_c, 0, 64, 127
1, 48630, Note_off_c, 0, 76, 61
1, 48675, Note_off_c, 0, 52, 60
1, 48694, Note_on_c, 0, 57, 58
1, 48718, Note_off_c, 0, 69, 61
1, 48721, Note_off_c, 0, 54, 59
1, 48741, Note_off_c, 0, 57, 61
1, 48754, Note_on_c, 0, 66, 69
1, 48754, Note_on_c, 0, 78, 70
1, 48757, Note_on_c, 0, 61, 69
1, 48760, Note_on_c, 0, 73, 62
1, 48807, Note_off_c, 0, 78, 64
1, 48820, Note_off_c, 0, 66, 61
1, 48821, Note_off_c, 0, 61, 61
1, 48837, Note_on_c, 0, 57, 55
1, 48851, Note_off_c, 0, 49, 59
1, 48852, Note_off_c, 0, 73, 64
1, 48884, Note_on_c, 0, 54, 55
1, 48901, Note_on_c, 0, 76, 77
1, 48902, Note_on_c, 0, 69, 70
1, 48903, Note_on_c, 0, 64, 80
1, 48925, Note_off_c, 0, 57, 61
1, 48933, Note_on_c, 0, 52, 66
1, 48939, Note_off_c, 0, 69, 63
1, 48939, Note_off_c, 0, 76, 59
1, 48953, Note_off_c, 0, 64, 64
1, 48962, Note_off_c, 0, 54, 65
1, 48997, Note_off_c, 0, 52, 61
1, 49042, Note_on_c, 0, 47, 68
1, 49047, Control_c, 0, 64, 89
1, 49062, Control_c, 0, 64, 70
1, 49064, Note_on_c, 0, 61, 71
1, 49065, Note_on_c, 0, 73, 73
1, 49076, Control_c, 0, 64, 61
1, 49078, Note_on_c, 0, 66, 55
1, 49091, Control_c, 0, 64, 56
1, 49106, Control_c, 0, 64, 58
1, 49120, Control_c, 0, 64, 61
1, 49129, Note_off_c, 0, 73, 64
1, 49135, Control_c, 0, 64, 64
1, 49150, Control_c, 0, 64, 67
1, 49153, Note_off_c, 0, 61, 61
1, 49153, Note_off_c, 0, 66, 62
1, 49163, Note_on_c, 0, 49, 62
1, 49165, Control_c, 0, 64, 74
1, 49180, Control_c, 0, 64, 86
1, 49195, Control_c, 0, 64, 103
1, 49210, Control_c, 0, 64, 127
1, 49222, Note_on_c, 0, 59, 77
1, 49225, Note_on_c, 0, 71, 75
1, 49228, Note_on_c, 0, 64, 70
1, 49259, Note_on_c, 0, 52, 64
1, 49271, Note_off_c, 0, 59, 63
1, 49283, Note_off_c, 0, 71, 58
1, 49286, Note_off_c, 0, 64, 63
1, 49310, Note_on_c, 0, 54, 58
1, 49319, Note_off_c, 0, 49, 61
1, 49344, Note_off_c, 0, 52, 64
1, 49357, Note_off_c, 0, 54, 61
1, 49371, Note_on_c, 0, 57, 73
1, 49375, Note_on_c, 0, 61, 73
1, 49378, Note_on_c, 0, 73, 79
1, 49380, Note_on_c, 0, 66, 67
1, 49458, Note_on_c, 0, 54, 70
1, 49476, Note_off_c, 0, 57, 61
1, 49481, Note_off_c, 0, 66, 61
1, 49484, Note_off_c, 0, 61, 60
1, 49490, Note_off_c, 0, 47, 41
1, 49507, Note_on_c, 0, 52, 64
1, 49551, Note_on_c, 0, 49, 69
1, 49553, Note_off_c, 0, 54, 63
1, 49610, Note_off_c, 0, 52, 62
1, 49620, Note_off_c, 0, 73, 63
1, 49645, Note_on_c, 0, 45, 79
1, 49647, Control_c, 0, 64, 98
1, 49661, Control_c, 0, 64, 75
1, 49663, Note_off_c, 0, 49, 56
1, 49665, Note_on_c, 0, 76, 87
1, 49676, Control_c, 0, 64, 63
1, 49677, Note_on_c, 0, 64, 72
1, 49686, Note_on_c, 0, 69, 58
1, 49691, Control_c, 0, 64, 52
1, 49706, Control_c, 0, 64, 50
1, 49720, Control_c, 0, 64, 52
1, 49735, Control_c, 0, 64, 56
1, 49751, Control_c, 0, 64, 60
1, 49766, Control_c, 0, 64, 63
1, 49776, Note_on_c, 0, 49, 68
1, 49781, Control_c, 0, 64, 67
1, 49796, Control_c, 0, 64, 72
1, 49811, Control_c, 0, 64, 79
1, 49818, Note_off_c, 0, 64, 60
1, 49825, Control_c, 0, 64, 90
1, 49840, Control_c, 0, 64, 100
1, 49844, Note_off_c, 0, 76, 61
1, 49845, Note_on_c, 0, 52, 56
1, 49855, Control_c, 0, 64, 115
1, 49869, Control_c, 0, 64, 127
1, 49890, Note_on_c, 0, 54, 58
1, 49916, Note_off_c, 0, 69, 63
1, 49931, Note_off_c, 0, 52, 64
1, 49937, Note_off_c, 0, 54, 61
1, 49951, Note_on_c, 0, 57, 74
1, 49952, Note_on_c, 0, 78, 83
1, 49955, Note_off_c, 0, 49, 61
1, 49956, Note_on_c, 0, 66, 78
1, 49956, Note_on_c, 0, 73, 71
1, 50024, Note_on_c, 0, 54, 69
1, 50036, Note_off_c, 0, 45, 41
1, 50054, Note_off_c, 0, 57, 61
1, 50080, Note_on_c, 0, 52, 59
1, 50095, Note_off_c, 0, 78, 63
1, 50114, Note_on_c, 0, 49, 66
1, 50117, Note_off_c, 0, 66, 59
1, 50119, Note_off_c, 0, 54, 62
1, 50179, Note_off_c, 0, 52, 59
1, 50202, Note_off_c, 0, 73, 63
1, 50227, Note_off_c, 0, 49, 61
1, 50232, Control_c, 0, 64, 99
1, 50234, Note_on_c, 0, 44, 80
1, 50247, Control_c, 0, 64, 74
1, 50262, Control_c, 0, 64, 61
1, 50268, Note_on_c, 0, 76, 78
1, 50277, Control_c, 0, 64, 51
1, 50278, Note_on_c, 0, 64, 76
1, 50281, Note_on_c, 0, 69, 65
1, 50292, Control_c, 0, 64, 51
1, 50307, Control_c, 0, 64, 53
1, 50322, Control_c, 0, 64, 57
1, 50337, Control_c, 0, 64, 61
1, 50346, Note_on_c, 0, 49, 66
1, 50351, Control_c, 0, 64, 65
1, 50365, Note_off_c, 0, 76, 62
1, 50366, Control_c, 0, 64, 70
1, 50368, Note_off_c, 0, 69, 63
1, 50381, Control_c, 0, 64, 79
1, 50396, Control_c, 0, 64, 97
1, 50409, Note_off_c, 0, 44, 59
1, 50409, Note_off_c, 0, 64, 50
1, 50411, Control_c, 0, 64, 127
1, 50435, Note_on_c, 0, 52, 69
1, 50478, Note_on_c, 0, 54, 66
1, 50495, Note_off_c, 0, 49, 63
1, 50541, Note_off_c, 0, 52, 63
1, 50547, Note_on_c, 0, 57, 74
1, 50548, Note_on_c, 0, 73, 84
1, 50554, Note_on_c, 0, 66, 67
1, 50555, Note_on_c, 0, 61, 76
1, 50557, Note_off_c, 0, 54, 58
1, 50611, Note_on_c, 0, 54, 52
1, 50623, Note_off_c, 0, 57, 65
1, 50657, Note_on_c, 0, 52, 69
1, 50694, Note_off_c, 0, 66, 56
1, 50712, Note_on_c, 0, 49, 75
1, 50712, Note_off_c, 0, 54, 62
1, 50724, Note_off_c, 0, 61, 61
1, 50728, Note_off_c, 0, 73, 63
1, 50744, Note_off_c, 0, 52, 64
1, 50792, Note_off_c, 0, 49, 62
1, 50833, Note_on_c, 0, 42, 89
1, 50856, Control_c, 0, 64, 83
1, 50858, Note_on_c, 0, 71, 86
1, 50860, Note_on_c, 0, 59, 82
1, 50869, Note_on_c, 0, 64, 62
1, 50871, Control_c, 0, 64, 65
1, 50893, Control_c, 0, 64, 51
1, 50908, Control_c, 0, 64, 43
1, 50923, Control_c, 0, 64, 44
1, 50938, Control_c, 0, 64, 47
1, 50953, Control_c, 0, 64, 55
1, 50967, Control_c, 0, 64, 61
1, 50982, Control_c, 0, 64, 65
1, 50987, Note_on_c, 0, 47, 57
1, 50997, Control_c, 0, 64, 70
1, 51012, Control_c, 0, 64, 78
1, 51027, Control_c, 0, 64, 91
1, 51038, Note_off_c, 0, 42, 61
1, 51041, Control_c, 0, 64, 115
1, 51056, Control_c, 0, 64, 127
1, 51070, Note_off_c, 0, 47, 57
1, 51121, Note_on_c, 0, 52, 44
1, 51156, Note_off_c, 0, 59, 51
1, 51157, Note_off_c, 0, 52, 64
1, 51166, Note_on_c, 0, 54, 75
1, 51207, Note_off_c, 0, 71, 59
1, 51225, Note_off_c, 0, 54, 64
1, 51226, Note_on_c, 0, 52, 67
1, 51288, Note_on_c, 0, 49, 65
1, 51320, Note_off_c, 0, 52, 61
1, 51355, Note_on_c, 0, 45, 67
1, 51409, Note_off_c, 0, 49, 62
1, 51439, Note_on_c, 0, 40, 75
1, 51443, Control_c, 0, 64, 89
1, 51446, Note_off_c, 0, 64, 53
1, 51458, Control_c, 0, 64, 68
1, 51472, Note_on_c, 0, 73, 83
1, 51472, Control_c, 0, 64, 55
1, 51473, Note_on_c, 0, 66, 70
1, 51479, Note_on_c, 0, 61, 76
1, 51487, Control_c, 0, 64, 40
1, 51502, Control_c, 0, 64, 35
1, 51516, Control_c, 0, 64, 32
1, 51531, Control_c, 0, 64, 31
1, 51546, Control_c, 0, 64, 31
1, 51561, Control_c, 0, 64, 39
1, 51576, Control_c, 0, 64, 50
1, 51590, Control_c, 0, 64, 59
1, 51592, Note_off_c, 0, 40, 40
1, 51605, Control_c, 0, 64, 63
1, 51620, Control_c, 0, 64, 66
1, 51626, Note_on_c, 0, 49, 64
1, 51642, Control_c, 0, 64, 70
1, 51657, Control_c, 0, 64, 77
1, 51672, Control_c, 0, 64, 87
1, 51677, Note_off_c, 0, 45, 53
1, 51687, Control_c, 0, 64, 108
1, 51702, Control_c, 0, 64, 127
1, 51733, Note_off_c, 0, 49, 62
1, 51738, Note_on_c, 0, 52, 64
1, 51782, Note_off_c, 0, 52, 59
1, 51815, Note_on_c, 0, 54, 65
1, 51830, Note_off_c, 0, 61, 49
1, 51880, Note_off_c, 0, 73, 51
1, 51888, Note_off_c, 0, 54, 61
1, 51900, Note_off_c, 0, 66, 60
1, 51906, Note_on_c, 0, 52, 51
1, 51965, Note_off_c, 0, 52, 54
1, 51997, Note_on_c, 0, 49, 46
1, 52107, Note_off_c, 0, 49, 59
1, 52119, Note_on_c, 0, 45, 46
1, 52174, Note_off_c, 0, 45, 61
1, 52465, Note_on_c, 0, 39, 33
1, 52480, Note_on_c, 0, 46, 34
1, 52509, Control_c, 0, 64, 98
1, 52524, Control_c, 0, 64, 73
1, 52538, Control_c, 0, 64, 58
1, 52545, Note_on_c, 0, 73, 39
1, 52553, Control_c, 0, 64, 46
1, 52568, Control_c, 0, 64, 45
1, 52571, Note_on_c, 0, 61, 21
1, 52575, Note_on_c, 0, 67, 24
1, 52598, Control_c, 0, 64, 46
1, 52612, Control_c, 0, 64, 51
1, 52627, Control_c, 0, 64, 59
1, 52642, Control_c, 0, 64, 64
1, 52657, Control_c, 0, 64, 67
1, 52657, Control_c, 0, 67, 24
1, 52671, Control_c, 0, 64, 73
1, 52671, Control_c, 0, 67, 51
1, 52686, Control_c, 0, 64, 80
1, 52686, Control_c, 0, 67, 77
1, 52695, Note_off_c, 0, 46, 55
1, 52701, Control_c, 0, 64, 89
1, 52701, Control_c, 0, 67, 109
1, 52707, Note_off_c, 0, 39, 39
1, 52716, Control_c, 0, 64, 109
1, 52716, Control_c, 0, 67, 127
1, 52727, Note_on_c, 0, 51, 44
1, 52731, Control_c, 0, 64, 127
1, 52757, Note_off_c, 0, 51, 59
1, 52817, Note_on_c, 0, 53, 36
1, 52847, Note_off_c, 0, 61, 41
1, 52853, Note_off_c, 0, 53, 51
1, 52879, Note_off_c, 0, 73, 55
1, 52887, Note_on_c, 0, 55, 53
1, 52942, Note_off_c, 0, 55, 61
1, 52954, Note_off_c, 0, 67, 52
1, 52990, Note_on_c, 0, 61, 53
1, 53016, Note_on_c, 0, 75, 55
1, 53017, Note_on_c, 0, 63, 47
1, 53027, Note_on_c, 0, 70, 43
1, 53034, Note_off_c, 0, 61, 61
1, 53087, Note_off_c, 0, 70, 59
1, 53088, Note_on_c, 0, 55, 40
1, 53126, Note_on_c, 0, 53, 52
1, 53127, Note_off_c, 0, 55, 50
1, 53159, Note_off_c, 0, 53, 59
1, 53176, Note_off_c, 0, 63, 51
1, 53228, Control_c, 0, 64, 103
1, 53243, Control_c, 0, 64, 78
1, 53258, Control_c, 0, 64, 64
1, 53273, Control_c, 0, 64, 55
1, 53288, Control_c, 0, 64, 58
1, 53292, Note_on_c, 0, 43, 49
1, 53298, Note_on_c, 0, 50, 40
1, 53302, Control_c, 0, 64, 62
1, 53305, Note_on_c, 0, 76, 69
1, 53312, Note_off_c, 0, 75, 55
1, 53316, Note_on_c, 0, 71, 55
1, 53317, Control_c, 0, 64, 64
1, 53319, Note_on_c, 0, 64, 47
1, 53332, Control_c, 0, 64, 68
1, 53339, Note_off_c, 0, 50, 64
1, 53347, Control_c, 0, 64, 73
1, 53352, Note_off_c, 0, 43, 62
1, 53361, Control_c, 0, 64, 80
1, 53374, Note_on_c, 0, 53, 55
1, 53376, Control_c, 0, 64, 87
1, 53380, Note_off_c, 0, 64, 56
1, 53391, Control_c, 0, 64, 92
1, 53398, Note_off_c, 0, 71, 56
1, 53406, Control_c, 0, 64, 99
1, 53407, Note_off_c, 0, 53, 63
1, 53421, Control_c, 0, 64, 109
1, 53435, Control_c, 0, 64, 127
1, 53462, Note_on_c, 0, 57, 56
1, 53494, Note_off_c, 0, 57, 65
1, 53496, Note_off_c, 0, 76, 61
1, 53509, Note_on_c, 0, 59, 59
1, 53545, Note_off_c, 0, 59, 63
1, 53604, Note_on_c, 0, 65, 58
1, 53650, Note_on_c, 0, 81, 67
1, 53653, Note_on_c, 0, 59, 45
1, 53665, Note_on_c, 0, 69, 49
1, 53675, Note_on_c, 0, 74, 40
1, 53677, Note_off_c, 0, 65, 58
1, 53717, Note_off_c, 0, 81, 63
1, 53725, Note_off_c, 0, 74, 61
1, 53742, Note_on_c, 0, 57, 49
1, 53750, Note_off_c, 0, 69, 54
1, 53759, Note_off_c, 0, 59, 55
1, 53792, Note_off_c, 0, 57, 62
1, 53804, Note_on_c, 0, 55, 46
1, 53831, Note_off_c, 0, 55, 59
1, 53932, Control_c, 0, 64, 93
1, 53947, Control_c, 0, 64, 74
1, 53962, Control_c, 0, 64, 63
1, 53973, Note_on_c, 0, 39, 46
1, 53977, Control_c, 0, 64, 55
1, 53989, Note_on_c, 0, 73, 61
1, 53991, Control_c, 0, 64, 56
1, 54006, Note_on_c, 0, 61, 44
1, 54006, Control_c, 0, 64, 58
1, 54009, Note_on_c, 0, 67, 45
1, 54020, Note_on_c, 0, 46, 33
1, 54021, Control_c, 0, 64, 61
1, 54027, Note_off_c, 0, 39, 59
1, 54036, Control_c, 0, 64, 64
1, 54051, Control_c, 0, 64, 67
1, 54059, Note_off_c, 0, 61, 60
1, 54063, Note_off_c, 0, 46, 57
1, 54066, Control_c, 0, 64, 71
1, 54077, Note_off_c, 0, 73, 63
1, 54081, Control_c, 0, 64, 78
1, 54096, Control_c, 0, 64, 87
1, 54108, Note_on_c, 0, 51, 26
1, 54111, Control_c, 0, 64, 100
1, 54125, Control_c, 0, 64, 116
1, 54140, Control_c, 0, 64, 127
1, 54147, Note_off_c, 0, 51, 43
1, 54149, Note_on_c, 0, 53, 41
1, 54159, Note_off_c, 0, 67, 51
1, 54173, Note_on_c, 0, 75, 62
1, 54175, Note_on_c, 0, 63, 56
1, 54183, Note_off_c, 0, 53, 51
1, 54187, Note_on_c, 0, 70, 48
1, 54209, Note_off_c, 0, 63, 61
1, 54218, Note_on_c, 0, 55, 58
1, 54225, Note_off_c, 0, 70, 65
1, 54245, Note_off_c, 0, 75, 57
1, 54270, Note_off_c, 0, 55, 60
1, 54306, Note_on_c, 0, 61, 67
1, 54314, Note_on_c, 0, 73, 75
1, 54318, Note_on_c, 0, 67, 60
1, 54347, Note_off_c, 0, 61, 60
1, 54352, Note_off_c, 0, 67, 66
1, 54387, Note_off_c, 0, 73, 57
1, 54408, Note_on_c, 0, 55, 34
1, 54424, Note_on_c, 0, 53, 50
1, 54435, Note_off_c, 0, 55, 55
1, 54449, Note_off_c, 0, 53, 58
1, 54458, Note_on_c, 0, 75, 74
1, 54460, Note_on_c, 0, 70, 63
1, 54468, Note_on_c, 0, 63, 67
1, 54482, Control_c, 0, 64, 94
1, 54497, Control_c, 0, 64, 70
1, 54501, Note_on_c, 0, 51, 58
1, 54511, Control_c, 0, 64, 52
1, 54526, Control_c, 0, 64, 0
1, 54529, Note_off_c, 0, 51, 52
1, 54546, Note_off_c, 0, 70, 59
1, 54590, Note_on_c, 0, 50, 54
1, 54596, Note_off_c, 0, 63, 62
1, 54603, Note_on_c, 0, 43, 44
1, 54639, Note_on_c, 0, 64, 52
1, 54652, Note_on_c, 0, 71, 39
1, 54652, Note_off_c, 0, 50, 63
1, 54653, Control_c, 0, 64, 30
1, 54667, Note_off_c, 0, 43, 62
1, 54668, Control_c, 0, 64, 53
1, 54680, Note_on_c, 0, 76, 62
1, 54683, Control_c, 0, 64, 66
1, 54689, Note_on_c, 0, 53, 49
1, 54698, Control_c, 0, 64, 76
1, 54713, Control_c, 0, 64, 99
1, 54728, Control_c, 0, 64, 127
1, 54728, Note_off_c, 0, 75, 55
1, 54731, Note_off_c, 0, 53, 60
1, 54745, Note_off_c, 0, 64, 54
1, 54776, Note_off_c, 0, 71, 59
1, 54781, Note_on_c, 0, 57, 55
1, 54811, Note_off_c, 0, 57, 65
1, 54831, Note_on_c, 0, 59, 63
1, 54868, Note_off_c, 0, 59, 61
1, 54892, Note_off_c, 0, 76, 64
1, 54926, Note_on_c, 0, 65, 59
1, 54960, Note_on_c, 0, 81, 68
1, 54966, Note_on_c, 0, 59, 54
1, 54969, Note_on_c, 0, 69, 57
1, 54971, Note_on_c, 0, 74, 54
1, 54981, Note_off_c, 0, 65, 53
1, 55011, Note_off_c, 0, 69, 58
1, 55029, Note_on_c, 0, 57, 55
1, 55032, Note_off_c, 0, 81, 64
1, 55042, Note_off_c, 0, 74, 63
1, 55057, Note_off_c, 0, 59, 61
1, 55125, Note_off_c, 0, 57, 62
1, 55135, Note_on_c, 0, 55, 41
1, 55157, Control_c, 0, 64, 116
1, 55170, Note_off_c, 0, 55, 53
1, 55172, Control_c, 0, 64, 80
1, 55172, Note_on_c, 0, 51, 58
1, 55187, Control_c, 0, 64, 64
1, 55202, Control_c, 0, 64, 47
1, 55231, Control_c, 0, 64, 53
1, 55232, Note_on_c, 0, 85, 71
1, 55235, Note_on_c, 0, 58, 53
1, 55246, Note_on_c, 0, 73, 59
1, 55246, Control_c, 0, 64, 57
1, 55247, Note_on_c, 0, 79, 50
1, 55252, Note_off_c, 0, 51, 62
1, 55260, Control_c, 0, 64, 61
1, 55275, Control_c, 0, 64, 64
1, 55282, Note_off_c, 0, 58, 64
1, 55290, Control_c, 0, 64, 67
1, 55305, Control_c, 0, 64, 73
1, 55320, Control_c, 0, 64, 93
1, 55336, Control_c, 0, 64, 127
1, 55343, Note_off_c, 0, 73, 55
1, 55362, Note_on_c, 0, 65, 41
1, 55388, Note_off_c, 0, 85, 63
1, 55392, Note_on_c, 0, 82, 52
1, 55403, Poly_aftertouch_c, 0, 63, 0
1, 55407, Note_off_c, 0, 65, 46
1, 55422, Note_on_c, 0, 67, 67
1, 55455, Note_off_c, 0, 82, 51
1, 55465, Note_off_c, 0, 79, 65
1, 55485, Note_off_c, 0, 67, 63
1, 55503, Note_on_c, 0, 82, 49
1, 55514, Note_on_c, 0, 87, 82
1, 55515, Note_on_c, 0, 73, 69
1, 55515, Note_on_c, 0, 75, 81
1, 55550, Note_off_c, 0, 82, 63
1, 55550, Note_off_c, 0, 73, 58
1, 55599, Note_on_c, 0, 67, 58
1, 55625, Note_on_c, 0, 65, 61
1, 55631, Note_off_c, 0, 67, 64
1, 55636, Note_off_c, 0, 75, 61
1, 55656, Note_off_c, 0, 65, 65
1, 55691, Note_on_c, 0, 63, 76
1, 55706, Note_on_c, 0, 85, 25
1, 55713, Control_c, 0, 67, 115
1, 55715, Note_off_c, 0, 63, 70
1, 55728, Control_c, 0, 67, 88
1, 55742, Note_off_c, 0, 87, 63
1, 55743, Control_c, 0, 64, 108
1, 55743, Control_c, 0, 67, 56
1, 55744, Note_off_c, 0, 85, 40
1, 55754, Note_on_c, 0, 62, 57
1, 55757, Control_c, 0, 64, 78
1, 55757, Control_c, 0, 67, 25
1, 55772, Control_c, 0, 64, 63
1, 55772, Control_c, 0, 67, 0
1, 55777, Note_on_c, 0, 55, 64
1, 55778, Note_on_c, 0, 88, 88
1, 55786, Note_on_c, 0, 76, 79
1, 55787, Note_on_c, 0, 83, 69
1, 55787, Control_c, 0, 64, 48
1, 55802, Control_c, 0, 64, 53
1, 55817, Control_c, 0, 64, 57
1, 55831, Control_c, 0, 64, 61
1, 55833, Note_off_c, 0, 62, 64
1, 55845, Note_off_c, 0, 55, 63
1, 55846, Control_c, 0, 64, 64
1, 55852, Note_on_c, 0, 65, 70
1, 55861, Control_c, 0, 64, 68
1, 55876, Note_off_c, 0, 76, 60
1, 55876, Control_c, 0, 64, 76
1, 55885, Note_off_c, 0, 83, 60
1, 55890, Note_off_c, 0, 65, 60
1, 55890, Control_c, 0, 64, 87
1, 55905, Control_c, 0, 64, 115
1, 55920, Control_c, 0, 64, 127
1, 55935, Note_on_c, 0, 69, 75
1, 55971, Note_on_c, 0, 67, 12
1, 55980, Note_off_c, 0, 88, 64
1, 55983, Note_on_c, 0, 71, 80
1, 55987, Note_off_c, 0, 69, 62
1, 56018, Note_off_c, 0, 67, 39
1, 56041, Note_off_c, 0, 71, 57
1, 56046, Note_on_c, 0, 93, 95
1, 56051, Note_on_c, 0, 86, 79
1, 56053, Note_on_c, 0, 81, 77
1, 56072, Note_on_c, 0, 77, 82
1, 56102, Note_on_c, 0, 71, 33
1, 56107, Note_off_c, 0, 81, 58
1, 56141, Note_off_c, 0, 77, 58
1, 56154, Note_off_c, 0, 93, 66
1, 56158, Note_off_c, 0, 86, 63
1, 56173, Note_on_c, 0, 69, 71
1, 56230, Note_off_c, 0, 71, 63
1, 56278, Note_on_c, 0, 67, 38
1, 56287, Note_off_c, 0, 69, 62
1, 56316, Note_on_c, 0, 63, 67
1, 56319, Note_off_c, 0, 67, 61
1, 56334, Note_on_c, 0, 97, 85
1, 56339, Note_on_c, 0, 85, 78
1, 56354, Note_on_c, 0, 91, 69
1, 56377, Note_on_c, 0, 70, 63
1, 56385, Note_off_c, 0, 63, 62
1, 56406, Note_off_c, 0, 85, 64
1, 56415, Note_off_c, 0, 97, 64
1, 56424, Note_off_c, 0, 70, 62
1, 56426, Note_on_c, 0, 75, 60
1, 56454, Note_off_c, 0, 75, 63
1, 56477, Note_on_c, 0, 77, 68
1, 56495, Note_on_c, 0, 87, 86
1, 56495, Note_on_c, 0, 99, 91
1, 56504, Note_on_c, 0, 94, 72
1, 56517, Note_off_c, 0, 77, 61
1, 56527, Note_off_c, 0, 91, 51
1, 56531, Note_on_c, 0, 80, 75
1, 56544, Note_off_c, 0, 87, 64
1, 56561, Note_off_c, 0, 94, 63
1, 56572, Note_off_c, 0, 99, 65
1, 56606, Note_off_c, 0, 80, 63
1, 56606, Note_on_c, 0, 79, 36
1, 56629, Note_on_c, 0, 91, 92
1, 56630, Note_on_c, 0, 97, 95
1, 56632, Note_on_c, 0, 85, 81
1, 56634, Note_off_c, 0, 79, 56
1, 56666, Note_on_c, 0, 80, 49
1, 56678, Note_off_c, 0, 85, 65
1, 56678, Note_off_c, 0, 91, 64
1, 56689, Note_off_c, 0, 97, 64
1, 56706, Note_off_c, 0, 80, 51
1, 56708, Note_on_c, 0, 79, 70
1, 56735, Note_on_c, 0, 77, 77
1, 56738, Note_off_c, 0, 79, 66
1, 56750, Note_on_c, 0, 99, 95
1, 56754, Note_on_c, 0, 87, 90
1, 56755, Note_on_c, 0, 94, 85
1, 56782, Note_off_c, 0, 77, 59
1, 56802, Note_off_c, 0, 99, 65
1, 56802, Note_on_c, 0, 75, 63
1, 56811, Note_off_c, 0, 87, 62
1, 56819, Note_off_c, 0, 94, 61
1, 56831, Note_off_c, 0, 75, 64
1, 56859, Note_on_c, 0, 76, 29
1, 56864, Note_on_c, 0, 100, 93
1, 56867, Note_on_c, 0, 88, 90
1, 56867, Note_on_c, 0, 95, 91
1, 56869, Note_on_c, 0, 68, 78
1, 56890, Poly_aftertouch_c, 0, 75, 127
1, 56900, Note_off_c, 0, 68, 64
1, 56903, Note_off_c, 0, 76, 42
1, 56912, Note_on_c, 0, 67, 60
1, 56927, Note_off_c, 0, 88, 65
1, 56942, Note_off_c, 0, 67, 64
1, 56949, Note_off_c, 0, 95, 65
1, 56952, Poly_aftertouch_c, 0, 75, 0
1, 56955, Note_off_c, 0, 100, 65
1, 56957, Note_on_c, 0, 77, 78
1, 56984, Note_off_c, 0, 77, 67
1, 57051, Note_on_c, 0, 81, 58
1, 57051, Note_on_c, 0, 83, 58
1, 57072, Note_off_c, 0, 83, 0
1, 57072, Note_on_c, 0, 83, 31
1, 57079, Note_on_c, 0, 84, 48
1, 57080, Note_off_c, 0, 81, 67
1, 57101, Note_off_c, 0, 84, 61
1, 57116, Note_off_c, 0, 83, 62
1, 57148, Note_on_c, 0, 89, 89
1, 57151, Note_on_c, 0, 83, 61
1, 57161, Note_on_c, 0, 93, 91
1, 57161, Note_on_c, 0, 98, 94
1, 57162, Note_on_c, 0, 105, 103
1, 57204, Note_off_c, 0, 89, 65
1, 57205, Note_off_c, 0, 105, 65
1, 57217, Note_on_c, 0, 102, 39
1, 57223, Note_on_c, 0, 81, 72
1, 57233, Note_off_c, 0, 93, 66
1, 57235, Note_off_c, 0, 98, 66
1, 57248, Note_off_c, 0, 102, 45
1, 57252, Poly_aftertouch_c, 0, 88, 0
1, 57266, Note_off_c, 0, 83, 65
1, 57267, Note_on_c, 0, 79, 72
1, 57275, Note_off_c, 0, 81, 66
1, 57294, Note_off_c, 0, 79, 69
1, 57358, Control_c, 0, 64, 87
1, 57373, Control_c, 0, 64, 54
1, 57388, Control_c, 0, 64, 0
1, 57395, Note_on_c, 0, 75, 107
1, 57400, Note_on_c, 0, 63, 88
1, 57400, Note_on_c, 0, 79, 92
1, 57401, Note_on_c, 0, 86, 86
1, 57417, Control_c, 0, 64, 46
1, 57420, Note_on_c, 0, 85, 59
1, 57421, Note_off_c, 0, 85, 127
1, 57432, Control_c, 0, 64, 59
1, 57434, Note_off_c, 0, 63, 61
1, 57441, Note_off_c, 0, 75, 63
1, 57447, Control_c, 0, 64, 68
1, 57462, Control_c, 0, 64, 109
1, 57472, Note_off_c, 0, 79, 60
1, 57475, Note_on_c, 0, 91, 85
1, 57476, Control_c, 0, 64, 127
1, 57477, Note_on_c, 0, 87, 81
1, 57485, Note_off_c, 0, 86, 62
1, 57533, Note_off_c, 0, 91, 64
1, 57541, Note_off_c, 0, 87, 55
1, 57550, Note_on_c, 0, 86, 69
1, 57557, Note_on_c, 0, 79, 79
1, 57579, Note_on_c, 0, 85, 21
1, 57604, Note_on_c, 0, 91, 80
1, 57609, Note_off_c, 0, 79, 61
1, 57611, Note_on_c, 0, 87, 72
1, 57613, Note_off_c, 0, 86, 65
1, 57615, Note_off_c, 0, 85, 31
1, 57666, Note_off_c, 0, 91, 64
1, 57679, Note_on_c, 0, 86, 71
1, 57681, Note_on_c, 0, 79, 79
1, 57681, Note_off_c, 0, 87, 55
1, 57693, Note_on_c, 0, 94, 116
1, 57709, Note_on_c, 0, 92, 74
1, 57725, Note_off_c, 0, 92, 67
1, 57736, Note_on_c, 0, 87, 69
1, 57737, Note_on_c, 0, 91, 76
1, 57742, Note_off_c, 0, 79, 65
1, 57748, Note_off_c, 0, 86, 61
1, 57765, Note_off_c, 0, 94, 60
1, 57786, Note_off_c, 0, 91, 64
1, 57798, Note_on_c, 0, 86, 66
1, 57799, Note_on_c, 0, 79, 71
1, 57799, Note_off_c, 0, 87, 63
1, 57854, Note_on_c, 0, 87, 71
1, 57858, Note_off_c, 0, 79, 63
1, 57864, Note_on_c, 0, 91, 78
1, 57869, Note_off_c, 0, 86, 63
1, 57903, Note_off_c, 0, 91, 61
1, 57920, Note_on_c, 0, 79, 72
1, 57924, Note_on_c, 0, 86, 61
1, 57924, Note_off_c, 0, 87, 63
1, 57977, Note_on_c, 0, 87, 67
1, 57981, Note_on_c, 0, 91, 72
1, 57981, Note_off_c, 0, 79, 65
1, 57986, Note_off_c, 0, 86, 64
1, 58025, Note_off_c, 0, 91, 61
1, 58035, Note_on_c, 0, 79, 70
1, 58040, Note_off_c, 0, 87, 64
1, 58048, Note_on_c, 0, 86, 55
1, 58096, Note_on_c, 0, 87, 67
1, 58097, Note_off_c, 0, 79, 64
1, 58099, Note_on_c, 0, 91, 71
1, 58103, Note_off_c, 0, 86, 58
1, 58136, Note_off_c, 0, 91, 62
1, 58150, Note_on_c, 0, 79, 67
1, 58153, Note_off_c, 0, 87, 63
1, 58163, Note_on_c, 0, 86, 49
1, 58209, Note_on_c, 0, 87, 69
1, 58209, Note_off_c, 0, 79, 64
1, 58211, Note_off_c, 0, 86, 62
1, 58218, Note_on_c, 0, 91, 71
1, 58245, Note_off_c, 0, 91, 67
1, 58268, Note_on_c, 0, 79, 66
1, 58268, Note_off_c, 0, 87, 63
1, 58314, Note_off_c, 0, 79, 58
1, 58317, Note_on_c, 0, 87, 60
1, 58317, Note_on_c, 0, 91, 68
1, 58318, Note_on_c, 0, 86, 21
1, 58358, Note_off_c, 0, 91, 58
1, 58362, Note_on_c, 0, 79, 65
1, 58381, Note_off_c, 0, 87, 61
1, 58412, Note_on_c, 0, 87, 60
1, 58413, Note_on_c, 0, 82, 107
1, 58416, Note_on_c, 0, 75, 89
1, 58420, Note_off_c, 0, 79, 62
1, 58425, Note_on_c, 0, 91, 62
1, 58456, Note_off_c, 0, 82, 66
1, 58457, Note_off_c, 0, 91, 65
1, 58465, Note_on_c, 0, 79, 64
1, 58469, Note_off_c, 0, 75, 62
1, 58478, Note_off_c, 0, 87, 62
1, 58501, Note_off_c, 0, 86, 0
1, 58515, Note_on_c, 0, 86, 36
1, 58516, Note_on_c, 0, 87, 63
1, 58519, Note_off_c, 0, 79, 65
1, 58522, Note_on_c, 0, 91, 74
1, 58555, Note_off_c, 0, 91, 62
1, 58578, Note_on_c, 0, 79, 73
1, 58590, Note_off_c, 0, 87, 63
1, 58628, Note_on_c, 0, 87, 48
1, 58634, Note_off_c, 0, 79, 65
1, 58636, Note_on_c, 0, 91, 75
1, 58683, Note_off_c, 0, 91, 59
1, 58686, Note_on_c, 0, 79, 76
1, 58703, Note_off_c, 0, 87, 63
1, 58707, Note_on_c, 0, 94, 117
1, 58728, Note_on_c, 0, 95, 72
1, 58740, Note_off_c, 0, 86, 0
1, 58743, Poly_aftertouch_c, 0, 87, 0
1, 58744, Note_off_c, 0, 95, 66
1, 58750, Note_on_c, 0, 87, 59
1, 58756, Note_off_c, 0, 79, 65
1, 58765, Note_on_c, 0, 91, 67
1, 58777, Poly_aftertouch_c, 0, 86, 127
1, 58785, Note_off_c, 0, 94, 62
1, 58796, Note_off_c, 0, 91, 66
1, 58814, Note_on_c, 0, 79, 74
1, 58822, Note_off_c, 0, 87, 64
1, 58879, Note_on_c, 0, 87, 68
1, 58881, Note_on_c, 0, 91, 75
1, 58885, Note_off_c, 0, 79, 64
1, 58910, Poly_aftertouch_c, 0, 86, 0
1, 58921, Note_off_c, 0, 91, 61
1, 58929, Note_on_c, 0, 86, 19
1, 58937, Note_on_c, 0, 79, 71
1, 58942, Note_off_c, 0, 87, 62
1, 58994, Note_on_c, 0, 87, 72
1, 59004, Note_off_c, 0, 79, 65
1, 59005, Note_on_c, 0, 91, 75
1, 59038, Note_off_c, 0, 91, 63
1, 59039, Note_off_c, 0, 86, 0
1, 59058, Note_on_c, 0, 86, 27
1, 59061, Note_off_c, 0, 87, 61
1, 59062, Note_on_c, 0, 79, 74
1, 59092, Note_off_c, 0, 86, 50
1, 59127, Note_on_c, 0, 87, 60
1, 59127, Note_off_c, 0, 79, 65
1, 59131, Note_on_c, 0, 91, 72
1, 59160, Note_off_c, 0, 91, 67
1, 59161, Note_off_c, 0, 87, 63
1, 59176, Note_on_c, 0, 86, 41
1, 59184, Note_on_c, 0, 79, 74
1, 59205, Note_off_c, 0, 86, 53
1, 59243, Note_on_c, 0, 87, 66
1, 59243, Note_off_c, 0, 79, 66
1, 59244, Note_on_c, 0, 91, 73
1, 59278, Note_on_c, 0, 86, 12
1, 59288, Note_on_c, 0, 79, 80
1, 59306, Note_off_c, 0, 87, 0
1, 59321, Note_off_c, 0, 86, 52
1, 59336, Note_on_c, 0, 87, 29
1, 59356, Note_off_c, 0, 79, 64
1, 59365, Note_on_c, 0, 82, 100
1, 59370, Note_on_c, 0, 75, 87
1, 59390, Note_off_c, 0, 87, 55
1, 59397, Note_on_c, 0, 79, 67
1, 59397, Note_off_c, 0, 75, 61
1, 59399, Note_off_c, 0, 82, 67
1, 59409, Note_off_c, 0, 91, 44
1, 59468, Note_off_c, 0, 79, 67
1, 59472, Note_on_c, 0, 86, 85
1, 59512, Note_on_c, 0, 91, 81
1, 59544, Note_off_c, 0, 86, 65
1, 59563, Note_off_c, 0, 91, 66
1, 59594, Note_on_c, 0, 94, 89
1, 59601, Note_on_c, 0, 92, 69
1, 59602, Note_off_c, 0, 92, 127
1, 59603, Note_on_c, 0, 86, 64
1, 59609, Note_on_c, 0, 87, 53
1, 59610, Note_off_c, 0, 87, 127
1, 59615, Note_off_c, 0, 94, 68
1, 59632, Note_off_c, 0, 86, 66
1, 59643, Note_on_c, 0, 91, 87
1, 59702, Note_on_c, 0, 86, 81
1, 59712, Note_off_c, 0, 91, 62
1, 59750, Note_on_c, 0, 79, 84
1, 59768, Note_off_c, 0, 86, 64
1, 59802, Note_off_c, 0, 79, 67
1, 59838, Note_on_c, 0, 82, 94
1, 59843, Note_on_c, 0, 75, 80
1, 59856, Note_off_c, 0, 82, 69
1, 59857, Note_off_c, 0, 75, 67
1, 59864, Note_on_c, 0, 74, 59
1, 59887, Note_on_c, 0, 79, 88
1, 59890, Note_off_c, 0, 74, 63
1, 59956, Note_on_c, 0, 74, 80
1, 59961, Note_off_c, 0, 79, 63
1, 60022, Note_on_c, 0, 67, 79
1, 60022, Note_off_c, 0, 74, 58
1, 60069, Note_off_c, 0, 67, 65
1, 60101, Note_on_c, 0, 63, 89
1, 60105, Note_on_c, 0, 70, 81
1, 60124, Note_off_c, 0, 70, 72
1, 60131, Note_off_c, 0, 63, 59
1, 60144, Note_on_c, 0, 67, 81
1, 60211, Note_on_c, 0, 62, 75
1, 60272, Note_on_c, 0, 55, 82
1, 60296, Note_off_c, 0, 62, 55
1, 60308, Note_off_c, 0, 67, 0
1, 60323, Note_off_c, 0, 55, 63
1, 60345, Poly_aftertouch_c, 0, 67, 0
1, 60357, Note_on_c, 0, 51, 88
1, 60364, Note_on_c, 0, 58, 75
1, 60388, Note_on_c, 0, 55, 75
1, 60388, Note_off_c, 0, 51, 62
1, 60391, Note_off_c, 0, 58, 64
1, 60418, Note_off_c, 0, 55, 66
1, 60435, Note_on_c, 0, 62, 74
1, 60498, Note_on_c, 0, 67, 86
1, 60502, Note_off_c, 0, 62, 66
1, 60511, Note_on_c, 0, 64, 49
1, 60536, Note_off_c, 0, 64, 58
1, 60543, Note_off_c, 0, 67, 65
1, 60569, Note_on_c, 0, 63, 94
1, 60573, Note_on_c, 0, 70, 89
1, 60593, Note_off_c, 0, 70, 71
1, 60601, Note_on_c, 0, 71, 61
1, 60615, Note_off_c, 0, 63, 63
1, 60619, Note_off_c, 0, 71, 64
1, 60629, Note_on_c, 0, 67, 87
1, 60652, Note_off_c, 0, 67, 71
1, 60683, Note_on_c, 0, 74, 87
1, 60737, Note_on_c, 0, 79, 89
1, 60745, Note_on_c, 0, 76, 25
1, 60746, Note_off_c, 0, 74, 65
1, 60776, Note_off_c, 0, 76, 43
1, 60782, Note_off_c, 0, 79, 68
1, 60801, Note_on_c, 0, 75, 98
1, 60810, Note_on_c, 0, 82, 88
1, 60829, Note_off_c, 0, 82, 71
1, 60844, Note_on_c, 0, 79, 87
1, 60850, Note_off_c, 0, 75, 62
1, 60903, Note_off_c, 0, 79, 67
1, 60906, Note_on_c, 0, 86, 80
1, 60916, Poly_aftertouch_c, 0, 83, 0
1, 60927, Note_on_c, 0, 84, 59
1, 60948, Note_off_c, 0, 84, 62
1, 60955, Note_on_c, 0, 91, 89
1, 60959, Note_on_c, 0, 89, 76
1, 60971, Note_on_c, 0, 88, 43
1, 60976, Note_off_c, 0, 86, 64
1, 60996, Note_off_c, 0, 88, 54
1, 61002, Note_off_c, 0, 89, 64
1, 61004, Note_off_c, 0, 91, 65
1, 61022, Note_on_c, 0, 94, 101
1, 61025, Note_on_c, 0, 87, 91
1, 61063, Note_off_c, 0, 94, 65
1, 61071, Note_on_c, 0, 91, 96
1, 61081, Note_off_c, 0, 87, 63
1, 61134, Note_on_c, 0, 86, 91
1, 61145, Note_off_c, 0, 91, 64
1, 61187, Note_on_c, 0, 79, 90
1, 61220, Note_off_c, 0, 86, 62
1, 61235, Note_off_c, 0, 79, 67
1, 61255, Note_on_c, 0, 75, 94
1, 61258, Note_on_c, 0, 82, 94
1, 61288, Note_off_c, 0, 82, 61
1, 61302, Note_on_c, 0, 79, 86
1, 61305, Note_off_c, 0, 75, 57
1, 61354, Note_off_c, 0, 79, 68
1, 61357, Note_on_c, 0, 86, 85
1, 61423, Note_on_c, 0, 91, 89
1, 61438, Note_off_c, 0, 86, 68
1, 61465, Note_off_c, 0, 91, 65
1, 61478, Note_on_c, 0, 94, 96
1, 61481, Note_on_c, 0, 87, 83
1, 61491, Note_on_c, 0, 86, 64
1, 61495, Note_off_c, 0, 87, 67
1, 61498, Note_off_c, 0, 94, 66
1, 61520, Note_off_c, 0, 86, 67
1, 61533, Note_on_c, 0, 91, 91
1, 61592, Note_on_c, 0, 86, 89
1, 61611, Note_off_c, 0, 91, 62
1, 61645, Note_on_c, 0, 79, 88
1, 61673, Note_off_c, 0, 86, 62
1, 61691, Note_off_c, 0, 79, 66
1, 61705, Note_on_c, 0, 75, 94
1, 61711, Note_on_c, 0, 82, 80
1, 61726, Note_off_c, 0, 82, 70
1, 61748, Note_on_c, 0, 83, 36
1, 61755, Note_on_c, 0, 79, 85
1, 61756, Note_off_c, 0, 75, 60
1, 61775, Note_off_c, 0, 83, 54
1, 61804, Note_off_c, 0, 79, 69
1, 61809, Note_on_c, 0, 86, 82
1, 61870, Note_on_c, 0, 91, 89
1, 61882, Note_off_c, 0, 86, 67
1, 61910, Note_off_c, 0, 91, 66
1, 61922, Note_on_c, 0, 87, 94
1, 61923, Note_on_c, 0, 94, 101
1, 61958, Note_off_c, 0, 94, 61
1, 61960, Note_off_c, 0, 87, 57
1, 61975, Note_on_c, 0, 91, 93
1, 62027, Note_on_c, 0, 86, 69
1, 62049, Note_off_c, 0, 91, 63
1, 62088, Note_on_c, 0, 79, 86
1, 62123, Note_off_c, 0, 86, 64
1, 62140, Note_off_c, 0, 79, 66
1, 62165, Note_on_c, 0, 75, 96
1, 62169, Note_on_c, 0, 82, 92
1, 62192, Note_off_c, 0, 82, 63
1, 62207, Note_on_c, 0, 79, 82
1, 62213, Note_off_c, 0, 75, 49
1, 62269, Note_off_c, 0, 79, 68
1, 62274, Note_on_c, 0, 86, 81
1, 62343, Note_on_c, 0, 91, 85
1, 62352, Note_off_c, 0, 86, 62
1, 62367, Note_on_c, 0, 88, 38
1, 62395, Note_off_c, 0, 88, 49
1, 62401, Note_off_c, 0, 91, 64
1, 62427, Note_on_c, 0, 87, 86
1, 62432, Note_on_c, 0, 94, 85
1, 62458, Note_off_c, 0, 94, 66
1, 62487, Note_off_c, 0, 87, 62
1, 62615, Note_on_c, 0, 86, 69
1, 62656, Note_off_c, 0, 86, 56
1, 62794, Note_on_c, 0, 75, 51
1, 62794, Note_on_c, 0, 82, 58
1, 62833, Note_off_c, 0, 82, 61
1, 62850, Note_off_c, 0, 75, 53
1, 63061, Note_on_c, 0, 86, 52
1, 63066, Note_on_c, 0, 79, 47
1, 63121, Note_off_c, 0, 86, 53
1, 63143, Note_off_c, 0, 79, 54
1, 63434, Note_on_c, 0, 87, 42
1, 63435, Note_on_c, 0, 94, 45
1, 63437, Note_on_c, 0, 91, 48
1, 63510, Note_off_c, 0, 87, 51
1, 63541, Note_off_c, 0, 94, 46
1, 63588, Note_off_c, 0, 91, 32
1, 64033, Note_on_c, 0, 79, 33
1, 64088, Poly_aftertouch_c, 0, 86, 127
1, 64132, Poly_aftertouch_c, 0, 86, 0
1, 64188, Note_off_c, 0, 79, 42
1, 64386, Control_c, 0, 67, 11
1, 64401, Control_c, 0, 67, 16
1, 64415, Control_c, 0, 67, 21
1, 64430, Control_c, 0, 67, 26
1, 64445, Control_c, 0, 67, 30
1, 64460, Control_c, 0, 67, 32
1, 64475, Control_c, 0, 67, 34
1, 64490, Control_c, 0, 67, 36
1, 64505, Control_c, 0, 67, 38
1, 64520, Control_c, 0, 67, 42
1, 64535, Control_c, 0, 67, 47
1, 64549, Control_c, 0, 64, 117
1, 64549, Control_c, 0, 67, 52
1, 64564, Control_c, 0, 64, 109
1, 64564, Control_c, 0, 67, 57
1, 64579, Control_c, 0, 64, 103
1, 64579, Control_c, 0, 67, 62
1, 64593, Control_c, 0, 64, 100
1, 64593, Control_c, 0, 67, 66
1, 64608, Control_c, 0, 64, 96
1, 64608, Control_c, 0, 67, 70
1, 64623, Control_c, 0, 64, 93
1, 64623, Control_c, 0, 67, 76
1, 64638, Control_c, 0, 64, 90
1, 64638, Control_c, 0, 67, 81
1, 64653, Control_c, 0, 64, 88
1, 64653, Control_c, 0, 67, 84
1, 64668, Control_c, 0, 64, 86
1, 64668, Control_c, 0, 67, 86
1, 64682, Control_c, 0, 64, 84
1, 64682, Control_c, 0, 67, 87
1, 64697, Control_c, 0, 64, 82
1, 64697, Control_c, 0, 67, 89
1, 64712, Control_c, 0, 64, 81
1, 64712, Control_c, 0, 67, 92
1, 64726, Control_c, 0, 64, 79
1, 64726, Control_c, 0, 67, 95
1, 64741, Control_c, 0, 64, 78
1, 64741, Control_c, 0, 67, 96
1, 64756, Control_c, 0, 64, 77
1, 64756, Control_c, 0, 67, 97
1, 64771, Control_c, 0, 64, 75
1, 64786, Control_c, 0, 64, 74
1, 64800, Control_c, 0, 64, 73
1, 64800, Control_c, 0, 67, 97
1, 64815, Control_c, 0, 64, 71
1, 64830, Control_c, 0, 64, 70
1, 64845, Control_c, 0, 64, 69
1, 64860, Control_c, 0, 64, 69
1, 64875, Control_c, 0, 64, 68
1, 64889, Control_c, 0, 64, 67
1, 64889, Control_c, 0, 67, 98
1, 64904, Control_c, 0, 64, 66
1, 64920, Control_c, 0, 64, 66
1, 64935, Control_c, 0, 64, 65
1, 64950, Control_c, 0, 64, 65
1, 64964, Control_c, 0, 64, 64
1, 64979, Control_c, 0, 64, 64
1, 64994, Control_c, 0, 64, 63
1, 65024, Control_c, 0, 64, 63
1, 65039, Control_c, 0, 64, 62
1, 65053, Control_c, 0, 64, 62
1, 65083, Control_c, 0, 64, 61
1, 65120, Control_c, 0, 64, 61
1, 65135, Control_c, 0, 64, 60
1, 65165, Control_c, 0, 64, 60
1, 65194, Control_c, 0, 64, 59
1, 65223, Control_c, 0, 64, 59
1, 65253, Control_c, 0, 64, 59
1, 65283, Control_c, 0, 64, 60
1, 65313, Control_c, 0, 64, 60
1, 65328, Control_c, 0, 64, 61
1, 65342, Control_c, 0, 64, 62
1, 65357, Control_c, 0, 64, 63
1, 65372, Control_c, 0, 64, 64
1, 65387, Control_c, 0, 64, 65
1, 65402, Control_c, 0, 64, 66
1, 65417, Control_c, 0, 64, 68
1, 65431, Control_c, 0, 64, 70
1, 65446, Control_c, 0, 64, 74
1, 65461, Control_c, 0, 64, 78
1, 65476, Control_c, 0, 64, 84
1, 65476, Control_c, 0, 67, 97
1, 65491, Control_c, 0, 64, 89
1, 65505, Control_c, 0, 64, 93
1, 65520, Control_c, 0, 64, 98
1, 65535, Control_c, 0, 64, 101
1, 65549, Control_c, 0, 64, 106
1, 65564, Control_c, 0, 64, 115
1, 65564, Control_c, 0, 67, 96
1, 65579, Control_c, 0, 64, 127
1, 65608, Note_on_c, 0, 87, 45
1, 65613, Note_on_c, 0, 73, 27
1, 65617, Note_on_c, 0, 80, 36
1, 65635, Note_on_c, 0, 83, 38
1, 65814, Note_off_c, 0, 73, 34
1, 65822, Note_off_c, 0, 83, 39
1, 65952, Note_off_c, 0, 80, 29
1, 65956, Note_on_c, 0, 77, 24
1, 66034, Poly_aftertouch_c, 0, 82, 127
1, 66046, Control_c, 0, 67, 95
1, 66062, Poly_aftertouch_c, 0, 82, 0
1, 66127, Note_off_c, 0, 87, 43
1, 66154, Note_on_c, 0, 89, 54
1, 66173, Note_on_c, 0, 85, 38
1, 66174, Note_off_c, 0, 77, 0
1, 66210, Note_on_c, 0, 82, 30
1, 66212, Poly_aftertouch_c, 0, 77, 127
1, 66241, Note_off_c, 0, 85, 48
1, 66356, Poly_aftertouch_c, 0, 77, 0
1, 66370, Note_off_c, 0, 82, 38
1, 66394, Note_on_c, 0, 73, 36
1, 66402, Note_on_c, 0, 80, 26
1, 66436, Note_off_c, 0, 80, 53
1, 66437, Note_off_c, 0, 73, 61
1, 66597, Note_off_c, 0, 89, 38
1, 66604, Note_on_c, 0, 85, 49
1, 66628, Note_on_c, 0, 71, 29
1, 66633, Note_on_c, 0, 81, 30
1, 66649, Note_on_c, 0, 78, 33
1, 66757, Note_off_c, 0, 81, 42
1, 66785, Note_off_c, 0, 71, 33
1, 66812, Note_off_c, 0, 78, 41
1, 66828, Note_on_c, 0, 75, 36
1, 66842, Note_on_c, 0, 80, 36
1, 66889, Note_off_c, 0, 80, 46
1, 66895, Note_off_c, 0, 75, 45
1, 66904, Note_off_c, 0, 85, 33
1, 67005, Note_on_c, 0, 92, 62
1, 67012, Note_on_c, 0, 75, 9
1, 67016, Note_on_c, 0, 87, 46
1, 67041, Note_on_c, 0, 80, 34
1, 67068, Note_off_c, 0, 92, 62
1, 67110, Note_off_c, 0, 87, 56
1, 67159, Note_off_c, 0, 75, 41
1, 67202, Note_on_c, 0, 85, 54
1, 67205, Note_on_c, 0, 81, 41
1, 67206, Note_off_c, 0, 80, 34
1, 67216, Note_on_c, 0, 71, 31
1, 67218, Note_on_c, 0, 78, 42
1, 67235, Note_off_c, 0, 81, 59
1, 67251, Note_off_c, 0, 71, 46
1, 67256, Note_off_c, 0, 78, 58
1, 67271, Note_off_c, 0, 85, 54
1, 67412, Note_on_c, 0, 83, 42
1, 67415, Note_on_c, 0, 73, 43
1, 67415, Note_on_c, 0, 87, 49
1, 67426, Note_on_c, 0, 80, 38
1, 67469, Note_off_c, 0, 83, 59
1, 67519, Note_off_c, 0, 73, 49
1, 67608, Note_on_c, 0, 77, 41
1, 67614, Note_on_c, 0, 82, 38
1, 67616, Note_off_c, 0, 80, 34
1, 67650, Note_off_c, 0, 77, 54
1, 67653, Note_off_c, 0, 82, 50
1, 67693, Note_off_c, 0, 87, 39
1, 67772, Note_on_c, 0, 89, 52
1, 67776, Note_on_c, 0, 82, 36
1, 67786, Note_on_c, 0, 85, 36
1, 67796, Note_on_c, 0, 77, 37
1, 67814, Note_off_c, 0, 89, 0
1, 67814, Note_on_c, 0, 89, 16
1, 67828, Note_off_c, 0, 85, 55
1, 67900, Note_off_c, 0, 82, 35
1, 67929, Note_off_c, 0, 77, 39
1, 67952, Note_on_c, 0, 80, 42
1, 67961, Note_on_c, 0, 73, 43
1, 67991, Note_off_c, 0, 80, 60
1, 68002, Note_off_c, 0, 73, 62
1, 68078, Control_c, 0, 67, 95
1, 68088, Note_off_c, 0, 89, 36
1, 68135, Note_on_c, 0, 81, 42
1, 68136, Note_on_c, 0, 85, 49
1, 68151, Note_on_c, 0, 78, 46
1, 68153, Note_on_c, 0, 71, 27
1, 68203, Note_off_c, 0, 81, 53
1, 68234, Control_c, 0, 67, 94
1, 68262, Note_off_c, 0, 71, 27
1, 68303, Note_on_c, 0, 75, 48
1, 68316, Note_off_c, 0, 78, 39
1, 68318, Note_on_c, 0, 80, 44
1, 68347, Note_off_c, 0, 75, 59
1, 68350, Note_off_c, 0, 85, 30
1, 68359, Note_off_c, 0, 80, 56
1, 68441, Control_c, 0, 67, 94
1, 68458, Note_on_c, 0, 92, 59
1, 68461, Note_on_c, 0, 87, 51
1, 68477, Note_on_c, 0, 80, 45
1, 68478, Note_on_c, 0, 75, 39
1, 68528, Note_off_c, 0, 92, 62
1, 68554, Note_off_c, 0, 75, 58
1, 68556, Note_off_c, 0, 87, 53
1, 68557, Note_off_c, 0, 80, 51
1, 68634, Note_on_c, 0, 85, 56
1, 68645, Note_on_c, 0, 81, 41
1, 68648, Note_on_c, 0, 78, 47
1, 68651, Note_on_c, 0, 71, 28
1, 68672, Note_off_c, 0, 81, 59
1, 68678, Note_off_c, 0, 78, 61
1, 68687, Note_off_c, 0, 71, 44
1, 68698, Note_off_c, 0, 85, 54
1, 68797, Note_on_c, 0, 83, 41
1, 68803, Note_on_c, 0, 73, 50
1, 68809, Note_on_c, 0, 80, 42
1, 68815, Note_on_c, 0, 87, 42
1, 68888, Note_off_c, 0, 83, 54
1, 68890, Note_off_c, 0, 73, 50
1, 68979, Note_on_c, 0, 77, 47
1, 68985, Note_on_c, 0, 82, 46
1, 69019, Note_off_c, 0, 80, 36
1, 69021, Note_off_c, 0, 77, 60
1, 69029, Note_off_c, 0, 82, 60
1, 69086, Note_off_c, 0, 87, 58
1, 69132, Note_on_c, 0, 89, 63
1, 69145, Note_on_c, 0, 82, 45
1, 69148, Note_on_c, 0, 85, 43
1, 69150, Note_on_c, 0, 77, 38
1, 69197, Note_off_c, 0, 85, 59
1, 69231, Note_off_c, 0, 82, 47
1, 69273, Note_off_c, 0, 77, 53
1, 69301, Note_on_c, 0, 80, 48
1, 69311, Note_on_c, 0, 73, 45
1, 69318, Note_off_c, 0, 89, 31
1, 69339, Note_off_c, 0, 80, 62
1, 69345, Note_off_c, 0, 73, 61
1, 69463, Note_on_c, 0, 85, 53
1, 69465, Note_on_c, 0, 81, 41
1, 69483, Note_on_c, 0, 78, 52
1, 69485, Note_on_c, 0, 71, 43
1, 69515, Note_off_c, 0, 81, 57
1, 69543, Note_off_c, 0, 71, 48
1, 69655, Note_on_c, 0, 75, 45
1, 69656, Note_off_c, 0, 78, 39
1, 69660, Note_on_c, 0, 80, 42
1, 69695, Note_off_c, 0, 80, 55
1, 69701, Note_off_c, 0, 75, 58
1, 69731, Note_off_c, 0, 85, 35
1, 69818, Note_on_c, 0, 87, 53
1, 69819, Note_on_c, 0, 80, 41
1, 69826, Note_on_c, 0, 75, 42
1, 69826, Note_on_c, 0, 83, 46
1, 69874, Note_off_c, 0, 83, 61
1, 69974, Note_off_c, 0, 75, 35
1, 69981, Note_off_c, 0, 80, 31
1, 69982, Note_off_c, 0, 87, 50
1, 69999, Note_on_c, 0, 78, 52
1, 70010, Note_on_c, 0, 71, 38
1, 70043, Note_off_c, 0, 71, 53
1, 70043, Note_off_c, 0, 78, 61
1, 70180, Note_on_c, 0, 83, 52
1, 70189, Note_on_c, 0, 79, 38
1, 70207, Note_on_c, 0, 69, 16
1, 70212, Note_on_c, 0, 76, 42
1, 70251, Note_off_c, 0, 79, 50
1, 70322, Note_off_c, 0, 69, 27
1, 70336, Note_off_c, 0, 76, 60
1, 70364, Note_off_c, 0, 83, 56
1, 70369, Note_on_c, 0, 73, 50
1, 70377, Note_on_c, 0, 78, 47
1, 70425, Note_off_c, 0, 73, 54
1, 70428, Note_off_c, 0, 78, 55
1, 70547, Note_on_c, 0, 73, 42
1, 70551, Note_on_c, 0, 85, 55
1, 70555, Note_on_c, 0, 78, 49
1, 70557, Note_on_c, 0, 81, 44
1, 70601, Note_off_c, 0, 81, 62
1, 70680, Note_off_c, 0, 78, 53
1, 70687, Note_off_c, 0, 73, 51
1, 70690, Note_off_c, 0, 85, 50
1, 70755, Note_on_c, 0, 76, 48
1, 70783, Note_on_c, 0, 69, 6
1, 70791, Control_c, 0, 67, 93
1, 70801, Note_off_c, 0, 76, 61
1, 70827, Note_off_c, 0, 69, 37
1, 70956, Note_on_c, 0, 78, 43
1, 70968, Note_on_c, 0, 82, 44
1, 70980, Note_on_c, 0, 75, 46
1, 70994, Note_on_c, 0, 68, 36
1, 71039, Note_off_c, 0, 78, 53
1, 71101, Note_off_c, 0, 82, 50
1, 71114, Note_off_c, 0, 68, 31
1, 71204, Note_on_c, 0, 72, 39
1, 71208, Note_off_c, 0, 75, 33
1, 71215, Note_on_c, 0, 77, 37
1, 71258, Note_off_c, 0, 77, 54
1, 71270, Note_off_c, 0, 72, 55
1, 71332, Control_c, 0, 67, 92
1, 71428, Note_on_c, 0, 84, 54
1, 71456, Note_on_c, 0, 80, 39
1, 71464, Note_on_c, 0, 72, 21
1, 71474, Note_on_c, 0, 77, 35
1, 71519, Note_off_c, 0, 80, 53
1, 71530, Note_off_c, 0, 84, 56
1, 71644, Note_off_c, 0, 77, 38
1, 71781, Note_off_c, 0, 72, 40
1, 71788, Note_on_c, 0, 68, 31
1, 71844, Poly_aftertouch_c, 0, 75, 127
1, 71966, Poly_aftertouch_c, 0, 75, 0
1, 72066, Note_off_c, 0, 68, 37
1, 72259, Control_c, 0, 64, 97
1, 72274, Control_c, 0, 64, 77
1, 72288, Note_on_c, 0, 56, 33
1, 72288, Control_c, 0, 64, 65
1, 72298, Note_on_c, 0, 63, 25
1, 72298, Note_on_c, 0, 66, 28
1, 72303, Control_c, 0, 64, 59
1, 72318, Control_c, 0, 64, 59
1, 72324, Note_on_c, 0, 82, 48
1, 72333, Control_c, 0, 64, 61
1, 72336, Note_on_c, 0, 78, 31
1, 72339, Note_on_c, 0, 72, 18
1, 72348, Control_c, 0, 64, 63
1, 72363, Control_c, 0, 64, 64
1, 72377, Control_c, 0, 64, 67
1, 72392, Control_c, 0, 64, 69
1, 72406, Note_off_c, 0, 63, 52
1, 72407, Control_c, 0, 64, 73
1, 72407, Control_c, 0, 67, 92
1, 72422, Control_c, 0, 64, 78
1, 72430, Note_off_c, 0, 56, 49
1, 72434, Note_off_c, 0, 66, 49
1, 72437, Control_c, 0, 64, 88
1, 72437, Control_c, 0, 67, 91
1, 72437, Note_off_c, 0, 82, 56
1, 72452, Control_c, 0, 64, 110
1, 72467, Control_c, 0, 64, 127
1, 72467, Control_c, 0, 67, 90
1, 72530, Note_off_c, 0, 78, 32
1, 72550, Note_off_c, 0, 72, 43
1, 72559, Note_on_c, 0, 70, 56
1, 72617, Note_off_c, 0, 70, 55
1, 72747, Note_on_c, 0, 84, 60
1, 72760, Note_on_c, 0, 78, 55
1, 72771, Note_on_c, 0, 80, 44
1, 72771, Note_on_c, 0, 70, 35
1, 72791, Note_on_c, 0, 72, 33
1, 72799, Note_off_c, 0, 84, 62
1, 72813, Note_off_c, 0, 80, 63
1, 72859, Control_c, 0, 67, 91
1, 72870, Note_off_c, 0, 78, 53
1, 72875, Note_off_c, 0, 72, 35
1, 72888, Control_c, 0, 67, 92
1, 72911, Note_off_c, 0, 70, 35
1, 72968, Note_on_c, 0, 68, 51
1, 73024, Note_off_c, 0, 68, 51
1, 73147, Note_on_c, 0, 54, 51
1, 73147, Note_on_c, 0, 80, 60
1, 73150, Note_on_c, 0, 70, 41
1, 73156, Note_on_c, 0, 61, 38
1, 73162, Note_on_c, 0, 64, 49
1, 73173, Note_on_c, 0, 76, 51
1, 73188, Note_off_c, 0, 61, 61
1, 73200, Note_off_c, 0, 54, 59
1, 73203, Note_off_c, 0, 64, 62
1, 73223, Note_off_c, 0, 70, 60
1, 73229, Control_c, 0, 67, 91
1, 73241, Note_off_c, 0, 80, 61
1, 73259, Control_c, 0, 67, 90
1, 73285, Note_off_c, 0, 76, 53
1, 73343, Note_on_c, 0, 68, 54
1, 73386, Note_off_c, 0, 68, 63
1, 73444, Control_c, 0, 67, 91
1, 73508, Note_on_c, 0, 87, 63
1, 73524, Note_on_c, 0, 76, 50
1, 73534, Note_on_c, 0, 68, 29
1, 73542, Note_on_c, 0, 82, 37
1, 73571, Note_off_c, 0, 87, 64
1, 73583, Note_off_c, 0, 82, 53
1, 73595, Poly_aftertouch_c, 0, 70, 127
1, 73601, Note_off_c, 0, 68, 58
1, 73604, Note_off_c, 0, 76, 61
1, 73638, Poly_aftertouch_c, 0, 70, 0
1, 73686, Note_on_c, 0, 66, 57
1, 73718, Note_off_c, 0, 66, 65
1, 73845, Control_c, 0, 64, 86
1, 73859, Control_c, 0, 64, 72
1, 73859, Control_c, 0, 67, 90
1, 73866, Note_on_c, 0, 82, 65
1, 73874, Control_c, 0, 64, 64
1, 73879, Note_on_c, 0, 56, 39
1, 73881, Note_on_c, 0, 66, 35
1, 73889, Note_on_c, 0, 72, 20
1, 73889, Note_on_c, 0, 78, 43
1, 73889, Control_c, 0, 64, 62
1, 73889, Control_c, 0, 67, 90
1, 73904, Control_c, 0, 64, 63
1, 73920, Control_c, 0, 64, 65
1, 73920, Control_c, 0, 67, 89
1, 73931, Poly_aftertouch_c, 0, 63, 127
1, 73934, Note_off_c, 0, 56, 57
1, 73934, Control_c, 0, 64, 67
1, 73949, Control_c, 0, 64, 71
1, 73951, Note_off_c, 0, 66, 61
1, 73964, Control_c, 0, 64, 76
1, 73964, Control_c, 0, 67, 89
1, 73969, Poly_aftertouch_c, 0, 63, 0
1, 73972, Note_off_c, 0, 82, 63
1, 73979, Control_c, 0, 64, 82
1, 73994, Control_c, 0, 64, 89
1, 73994, Control_c, 0, 67, 88
1, 74008, Control_c, 0, 64, 102
1, 74023, Control_c, 0, 64, 127
1, 74023, Control_c, 0, 67, 87
1, 74048, Note_off_c, 0, 78, 34
1, 74061, Note_off_c, 0, 72, 43
1, 74065, Note_on_c, 0, 70, 55
1, 74114, Note_off_c, 0, 70, 59
1, 74233, Note_on_c, 0, 84, 57
1, 74235, Note_on_c, 0, 78, 61
1, 74250, Note_on_c, 0, 70, 41
1, 74262, Note_off_c, 0, 84, 67
1, 74264, Note_on_c, 0, 80, 43
1, 74284, Note_on_c, 0, 72, 30
1, 74305, Note_off_c, 0, 80, 65
1, 74348, Note_off_c, 0, 78, 54
1, 74382, Note_off_c, 0, 72, 48
1, 74417, Note_off_c, 0, 70, 37
1, 74434, Note_on_c, 0, 68, 56
1, 74490, Control_c, 0, 67, 87
1, 74510, Note_off_c, 0, 68, 55
1, 74521, Control_c, 0, 67, 86
1, 74592, Note_on_c, 0, 54, 50
1, 74595, Control_c, 0, 67, 86
1, 74596, Note_on_c, 0, 80, 61
1, 74599, Note_on_c, 0, 70, 37
1, 74616, Note_on_c, 0, 61, 38
1, 74616, Note_on_c, 0, 76, 50
1, 74623, Note_on_c, 0, 64, 41
1, 74625, Control_c, 0, 67, 85
1, 74645, Note_off_c, 0, 54, 60
1, 74646, Note_off_c, 0, 61, 57
1, 74654, Control_c, 0, 67, 84
1, 74655, Note_off_c, 0, 64, 63
1, 74677, Note_off_c, 0, 70, 61
1, 74705, Note_off_c, 0, 80, 60
1, 74736, Note_off_c, 0, 76, 47
1, 74792, Note_on_c, 0, 68, 50
1, 74828, Note_off_c, 0, 68, 63
1, 74883, Control_c, 0, 67, 85
1, 74944, Note_on_c, 0, 87, 67
1, 74958, Note_on_c, 0, 82, 53
1, 74959, Note_on_c, 0, 76, 62
1, 74980, Note_off_c, 0, 87, 64
1, 74988, Note_on_c, 0, 68, 29
1, 74998, Note_off_c, 0, 82, 64
1, 75016, Control_c, 0, 67, 86
1, 75034, Poly_aftertouch_c, 0, 70, 127
1, 75046, Control_c, 0, 67, 86
1, 75057, Note_off_c, 0, 68, 57
1, 75057, Note_off_c, 0, 76, 58
1, 75081, Poly_aftertouch_c, 0, 70, 0
1, 75141, Note_on_c, 0, 66, 58
1, 75177, Note_off_c, 0, 66, 63
1, 75239, Control_c, 0, 64, 125
1, 75254, Control_c, 0, 64, 85
1, 75269, Control_c, 0, 64, 70
1, 75283, Control_c, 0, 64, 62
1, 75299, Control_c, 0, 64, 58
1, 75311, Note_on_c, 0, 56, 44
1, 75314, Control_c, 0, 64, 60
1, 75314, Control_c, 0, 67, 87
1, 75314, Note_on_c, 0, 66, 44
1, 75320, Note_on_c, 0, 63, 44
1, 75320, Note_on_c, 0, 82, 65
1, 75329, Control_c, 0, 64, 62
1, 75334, Note_on_c, 0, 72, 45
1, 75343, Note_on_c, 0, 78, 52
1, 75343, Control_c, 0, 64, 65
1, 75343, Control_c, 0, 67, 87
1, 75358, Control_c, 0, 64, 69
1, 75367, Note_off_c, 0, 63, 61
1, 75370, Note_off_c, 0, 56, 60
1, 75373, Control_c, 0, 64, 75
1, 75373, Control_c, 0, 67, 88
1, 75379, Note_off_c, 0, 66, 62
1, 75388, Control_c, 0, 64, 83
1, 75388, Control_c, 0, 67, 89
1, 75403, Control_c, 0, 64, 94
1, 75418, Control_c, 0, 64, 109
1, 75421, Note_off_c, 0, 82, 64
1, 75433, Control_c, 0, 64, 127
1, 75456, Note_off_c, 0, 78, 58
1, 75473, Note_off_c, 0, 72, 49
1, 75505, Note_on_c, 0, 70, 57
1, 75543, Note_off_c, 0, 70, 62
1, 75670, Note_on_c, 0, 84, 66
1, 75681, Note_on_c, 0, 78, 60
1, 75692, Control_c, 0, 67, 88
1, 75697, Note_on_c, 0, 70, 41
1, 75699, Note_on_c, 0, 80, 41
1, 75720, Note_off_c, 0, 84, 64
1, 75731, Note_on_c, 0, 72, 27
1, 75741, Note_off_c, 0, 80, 63
1, 75800, Note_off_c, 0, 78, 59
1, 75815, Note_off_c, 0, 72, 38
1, 75820, Note_off_c, 0, 70, 50
1, 75864, Note_on_c, 0, 68, 64
1, 75943, Control_c, 0, 67, 87
1, 75947, Note_off_c, 0, 68, 56
1, 76028, Note_on_c, 0, 54, 51
1, 76031, Note_on_c, 0, 80, 63
1, 76039, Note_on_c, 0, 70, 44
1, 76047, Note_on_c, 0, 76, 56
1, 76053, Note_on_c, 0, 64, 45
1, 76059, Note_on_c, 0, 61, 28
1, 76077, Note_off_c, 0, 54, 61
1, 76090, Note_off_c, 0, 64, 64
1, 76095, Note_off_c, 0, 61, 51
1, 76100, Note_off_c, 0, 70, 60
1, 76124, Note_off_c, 0, 80, 63
1, 76151, Control_c, 0, 67, 87
1, 76156, Note_off_c, 0, 76, 59
1, 76211, Note_on_c, 0, 68, 50
1, 76248, Note_off_c, 0, 68, 63
1, 76315, Control_c, 0, 67, 87
1, 76365, Note_on_c, 0, 82, 63
1, 76373, Note_on_c, 0, 76, 62
1, 76387, Note_on_c, 0, 78, 46
1, 76393, Note_on_c, 0, 68, 39
1, 76396, Note_off_c, 0, 82, 68
1, 76414, Note_on_c, 0, 70, 25
1, 76422, Note_off_c, 0, 78, 62
1, 76470, Note_off_c, 0, 76, 61
1, 76492, Note_off_c, 0, 68, 54
1, 76523, Note_off_c, 0, 70, 37
1, 76529, Control_c, 0, 67, 87
1, 76551, Note_on_c, 0, 66, 61
1, 76603, Control_c, 0, 67, 86
1, 76625, Note_off_c, 0, 66, 58
1, 76633, Control_c, 0, 64, 104
1, 76648, Control_c, 0, 64, 80
1, 76662, Control_c, 0, 64, 68
1, 76677, Control_c, 0, 64, 62
1, 76692, Control_c, 0, 64, 60
1, 76705, Note_on_c, 0, 52, 45
1, 76707, Control_c, 0, 64, 62
1, 76709, Note_on_c, 0, 59, 40
1, 76709, Note_on_c, 0, 78, 63
1, 76720, Note_on_c, 0, 68, 38
1, 76721, Note_on_c, 0, 62, 44
1, 76722, Control_c, 0, 64, 64
1, 76723, Note_on_c, 0, 74, 50
1, 76736, Control_c, 0, 64, 67
1, 76748, Note_off_c, 0, 52, 61
1, 76751, Note_off_c, 0, 59, 63
1, 76751, Control_c, 0, 64, 71
1, 76766, Control_c, 0, 64, 77
1, 76770, Note_off_c, 0, 62, 61
1, 76781, Control_c, 0, 64, 84
1, 76781, Control_c, 0, 67, 86
1, 76791, Note_off_c, 0, 68, 60
1, 76796, Control_c, 0, 64, 92
1, 76799, Note_off_c, 0, 78, 64
1, 76810, Control_c, 0, 64, 102
1, 76825, Control_c, 0, 64, 127
1, 76843, Note_off_c, 0, 74, 57
1, 76885, Note_on_c, 0, 66, 53
1, 76923, Note_off_c, 0, 66, 61
1, 76959, Control_c, 0, 67, 86
1, 77038, Note_on_c, 0, 74, 63
1, 77049, Control_c, 0, 67, 87
1, 77050, Note_on_c, 0, 80, 56
1, 77058, Note_on_c, 0, 66, 36
1, 77062, Note_on_c, 0, 76, 54
1, 77066, Note_on_c, 0, 68, 49
1, 77084, Note_off_c, 0, 80, 66
1, 77108, Note_off_c, 0, 76, 65
1, 77162, Note_off_c, 0, 66, 58
1, 77171, Note_off_c, 0, 74, 56
1, 77177, Note_off_c, 0, 68, 55
1, 77221, Note_on_c, 0, 64, 64
1, 77233, Control_c, 0, 67, 86
1, 77311, Note_off_c, 0, 64, 54
1, 77338, Control_c, 0, 64, 97
1, 77352, Control_c, 0, 64, 78
1, 77367, Control_c, 0, 64, 67
1, 77382, Control_c, 0, 64, 60
1, 77391, Note_on_c, 0, 46, 40
1, 77394, Note_on_c, 0, 77, 54
1, 77397, Control_c, 0, 64, 57
1, 77403, Note_on_c, 0, 53, 36
1, 77406, Note_on_c, 0, 70, 43
1, 77410, Note_on_c, 0, 58, 42
1, 77411, Note_on_c, 0, 74, 46
1, 77412, Control_c, 0, 64, 60
1, 77426, Control_c, 0, 64, 62
1, 77426, Control_c, 0, 67, 86
1, 77441, Control_c, 0, 64, 64
1, 77456, Control_c, 0, 64, 68
1, 77467, Note_off_c, 0, 53, 58
1, 77471, Control_c, 0, 64, 72
1, 77472, Note_off_c, 0, 77, 55
1, 77478, Note_off_c, 0, 46, 59
1, 77485, Control_c, 0, 64, 78
1, 77490, Note_off_c, 0, 74, 53
1, 77500, Control_c, 0, 64, 83
1, 77515, Note_off_c, 0, 58, 59
1, 77515, Control_c, 0, 64, 88
1, 77517, Note_off_c, 0, 70, 39
1, 77530, Control_c, 0, 64, 95
1, 77545, Control_c, 0, 64, 105
1, 77559, Control_c, 0, 64, 127
1, 77568, Note_on_c, 0, 65, 48
1, 77617, Note_off_c, 0, 65, 63
1, 77744, Note_on_c, 0, 62, 49
1, 77747, Note_on_c, 0, 70, 62
1, 77779, Note_off_c, 0, 70, 66
1, 77820, Note_off_c, 0, 62, 62
1, 77894, Control_c, 0, 67, 85
1, 77895, Note_on_c, 0, 65, 56
1, 77925, Note_off_c, 0, 65, 64
1, 77968, Control_c, 0, 67, 84
1, 78027, Control_c, 0, 64, 92
1, 78042, Control_c, 0, 64, 72
1, 78056, Control_c, 0, 64, 63
1, 78071, Control_c, 0, 64, 60
1, 78086, Control_c, 0, 64, 61
1, 78088, Note_on_c, 0, 52, 45
1, 78090, Note_on_c, 0, 59, 38
1, 78092, Note_on_c, 0, 78, 66
1, 78099, Note_on_c, 0, 62, 43
1, 78101, Control_c, 0, 64, 63
1, 78113, Note_on_c, 0, 68, 55
1, 78116, Note_on_c, 0, 74, 61
1, 78116, Control_c, 0, 64, 64
1, 78131, Control_c, 0, 64, 68
1, 78134, Note_off_c, 0, 59, 62
1, 78135, Note_off_c, 0, 52, 60
1, 78146, Control_c, 0, 64, 73
1, 78159, Note_off_c, 0, 62, 63
1, 78160, Control_c, 0, 64, 79
1, 78175, Control_c, 0, 64, 87
1, 78190, Control_c, 0, 64, 96
1, 78202, Note_off_c, 0, 78, 63
1, 78205, Note_off_c, 0, 68, 49
1, 78205, Control_c, 0, 64, 109
1, 78219, Control_c, 0, 64, 127
1, 78232, Note_off_c, 0, 74, 62
1, 78268, Note_on_c, 0, 66, 64
1, 78293, Control_c, 0, 67, 85
1, 78301, Note_off_c, 0, 66, 61
1, 78368, Control_c, 0, 67, 86
1, 78429, Note_on_c, 0, 74, 64
1, 78430, Note_on_c, 0, 80, 68
1, 78444, Note_on_c, 0, 68, 53
1, 78446, Note_on_c, 0, 66, 44
1, 78476, Note_on_c, 0, 76, 28
1, 78482, Note_off_c, 0, 80, 64
1, 78512, Note_off_c, 0, 76, 38
1, 78536, Note_off_c, 0, 66, 55
1, 78544, Note_off_c, 0, 74, 57
1, 78554, Note_off_c, 0, 68, 60
1, 78603, Note_on_c, 0, 64, 63
1, 78658, Note_off_c, 0, 64, 42
1, 78717, Control_c, 0, 64, 100
1, 78731, Control_c, 0, 64, 82
1, 78746, Control_c, 0, 64, 70
1, 78761, Control_c, 0, 64, 62
1, 78776, Control_c, 0, 64, 57
1, 78777, Note_on_c, 0, 46, 43
1, 78783, Note_on_c, 0, 77, 56
1, 78787, Note_on_c, 0, 53, 41
1, 78787, Note_on_c, 0, 58, 42
1, 78791, Control_c, 0, 64, 58
1, 78793, Note_on_c, 0, 70, 44
1, 78798, Note_on_c, 0, 74, 45
1, 78805, Control_c, 0, 64, 59
1, 78820, Control_c, 0, 64, 61
1, 78835, Control_c, 0, 64, 64
1, 78849, Control_c, 0, 64, 67
1, 78854, Note_off_c, 0, 53, 60
1, 78864, Control_c, 0, 64, 72
1, 78873, Note_off_c, 0, 46, 60
1, 78877, Note_off_c, 0, 77, 56
1, 78879, Control_c, 0, 64, 80
1, 78894, Control_c, 0, 64, 89
1, 78903, Note_off_c, 0, 74, 56
1, 78908, Note_off_c, 0, 58, 60
1, 78909, Control_c, 0, 64, 99
1, 78922, Note_off_c, 0, 70, 37
1, 78924, Control_c, 0, 64, 115
1, 78938, Control_c, 0, 64, 127
1, 78953, Note_on_c, 0, 65, 55
1, 79007, Note_off_c, 0, 65, 59
1, 79057, Control_c, 0, 67, 85
1, 79117, Note_on_c, 0, 62, 52
1, 79129, Note_on_c, 0, 70, 65
1, 79157, Note_off_c, 0, 70, 66
1, 79249, Control_c, 0, 67, 84
1, 79256, Note_off_c, 0, 62, 52
1, 79279, Control_c, 0, 67, 84
1, 79284, Note_on_c, 0, 65, 58
1, 79310, Control_c, 0, 67, 83
1, 79359, Note_off_c, 0, 65, 61
1, 79362, Control_c, 0, 67, 82
1, 79436, Control_c, 0, 64, 104
1, 79451, Control_c, 0, 64, 85
1, 79466, Control_c, 0, 64, 72
1, 79472, Note_on_c, 0, 62, 23
1, 79480, Control_c, 0, 64, 64
1, 79494, Note_on_c, 0, 56, 55
1, 79495, Control_c, 0, 64, 58
1, 79495, Control_c, 0, 67, 82
1, 79502, Note_on_c, 0, 47, 27
1, 79503, Note_on_c, 0, 66, 50
1, 79505, Note_on_c, 0, 52, 39
1, 79510, Control_c, 0, 64, 58
1, 79515, Note_on_c, 0, 59, 40
1, 79525, Control_c, 0, 64, 59
1, 79525, Control_c, 0, 67, 81
1, 79540, Control_c, 0, 64, 62
1, 79554, Control_c, 0, 64, 64
1, 79569, Control_c, 0, 64, 68
1, 79569, Control_c, 0, 67, 81
1, 79570, Note_off_c, 0, 62, 36
1, 79584, Control_c, 0, 64, 73
1, 79584, Control_c, 0, 67, 80
1, 79594, Note_off_c, 0, 52, 55
1, 79599, Note_off_c, 0, 56, 62
1, 79599, Control_c, 0, 64, 80
1, 79599, Control_c, 0, 67, 79
1, 79602, Note_off_c, 0, 47, 30
1, 79614, Control_c, 0, 64, 87
1, 79628, Control_c, 0, 64, 98
1, 79628, Control_c, 0, 67, 79
1, 79643, Control_c, 0, 64, 112
1, 79655, Note_on_c, 0, 64, 53
1, 79658, Control_c, 0, 64, 127
1, 79658, Control_c, 0, 67, 78
1, 79681, Note_on_c, 0, 68, 56
1, 79687, Control_c, 0, 67, 77
1, 79693, Note_off_c, 0, 64, 63
1, 79702, Control_c, 0, 67, 77
1, 79717, Control_c, 0, 67, 76
1, 79725, Note_off_c, 0, 68, 59
1, 79732, Note_off_c, 0, 66, 19
1, 79732, Control_c, 0, 67, 74
1, 79746, Control_c, 0, 67, 72
1, 79761, Control_c, 0, 67, 71
1, 79776, Control_c, 0, 67, 69
1, 79791, Control_c, 0, 67, 68
1, 79806, Control_c, 0, 67, 67
1, 79821, Control_c, 0, 67, 66
1, 79821, Note_off_c, 0, 59, 60
1, 79826, Note_on_c, 0, 61, 51
1, 79836, Note_on_c, 0, 71, 54
1, 79836, Control_c, 0, 67, 64
1, 79848, Note_on_c, 0, 66, 50
1, 79851, Control_c, 0, 67, 56
1, 79865, Control_c, 0, 67, 44
1, 79877, Note_off_c, 0, 66, 63
1, 79880, Control_c, 0, 67, 32
1, 79892, Note_off_c, 0, 71, 62
1, 79895, Control_c, 0, 67, 21
1, 79900, Note_on_c, 0, 62, 58
1, 79908, Control_c, 0, 67, 12
1, 79923, Control_c, 0, 67, 0
1, 79934, Note_off_c, 0, 62, 64
1, 79968, Note_on_c, 0, 74, 73
1, 79979, Note_on_c, 0, 68, 53
1, 80000, Note_off_c, 0, 68, 60
1, 80003, Note_off_c, 0, 74, 63
1, 80050, Note_off_c, 0, 61, 50
1, 80121, Note_on_c, 0, 64, 51
1, 80132, Note_on_c, 0, 59, 49
1, 80142, Note_on_c, 0, 78, 72
1, 80146, Note_on_c, 0, 68, 54
1, 80150, Note_on_c, 0, 74, 56
1, 80155, Note_on_c, 0, 71, 61
1, 80183, Note_off_c, 0, 68, 61
1, 80191, Note_off_c, 0, 59, 58
1, 80196, Note_off_c, 0, 64, 58
1, 80245, Note_off_c, 0, 74, 61
1, 80287, Note_on_c, 0, 76, 73
1, 80293, Note_on_c, 0, 80, 79
1, 80350, Note_off_c, 0, 76, 64
1, 80363, Note_off_c, 0, 80, 64
1, 80366, Note_off_c, 0, 78, 33
1, 80436, Note_on_c, 0, 73, 78
1, 80453, Note_off_c, 0, 71, 54
1, 80462, Note_on_c, 0, 83, 64
1, 80471, Note_on_c, 0, 77, 43
1, 80476, Note_on_c, 0, 82, 38
1, 80497, Note_off_c, 0, 77, 51
1, 80497, Note_on_c, 0, 74, 75
1, 80502, Note_off_c, 0, 82, 53
1, 80512, Note_off_c, 0, 83, 65
1, 80552, Note_off_c, 0, 74, 53
1, 80577, Note_on_c, 0, 86, 88
1, 80578, Note_on_c, 0, 80, 81
1, 80619, Note_off_c, 0, 80, 60
1, 80621, Note_off_c, 0, 86, 66
1, 80654, Note_off_c, 0, 73, 63
1, 80718, Note_on_c, 0, 71, 49
1, 80734, Note_on_c, 0, 76, 52
1, 80735, Note_on_c, 0, 80, 74
1, 80741, Note_on_c, 0, 90, 77
1, 80742, Note_on_c, 0, 86, 70
1, 80751, Note_on_c, 0, 83, 78
1, 80776, Note_off_c, 0, 71, 56
1, 80790, Note_off_c, 0, 76, 58
1, 80793, Note_off_c, 0, 80, 64
1, 80831, Note_off_c, 0, 86, 60
1, 80870, Note_on_c, 0, 88, 77
1, 80876, Note_on_c, 0, 92, 82
1, 80935, Note_off_c, 0, 88, 64
1, 80953, Note_off_c, 0, 90, 40
1, 80958, Note_off_c, 0, 92, 65
1, 80980, Note_off_c, 0, 83, 54
1, 81030, Note_on_c, 0, 85, 77
1, 81032, Note_on_c, 0, 95, 82
1, 81033, Note_on_c, 0, 90, 74
1, 81079, Note_off_c, 0, 90, 61
1, 81084, Note_off_c, 0, 95, 64
1, 81099, Note_on_c, 0, 88, 71
1, 81103, Note_off_c, 0, 85, 64
1, 81162, Note_on_c, 0, 83, 70
1, 81162, Note_on_c, 0, 94, 79
1, 81164, Note_on_c, 0, 97, 67
1, 81169, Note_off_c, 0, 88, 63
1, 81196, Note_off_c, 0, 97, 65
1, 81198, Control_c, 0, 64, 86
1, 81201, Note_off_c, 0, 83, 61
1, 81213, Control_c, 0, 64, 67
1, 81228, Control_c, 0, 64, 57
1, 81243, Note_off_c, 0, 94, 63
1, 81243, Control_c, 0, 64, 53
1, 81258, Control_c, 0, 64, 54
1, 81273, Control_c, 0, 64, 57
1, 81287, Control_c, 0, 64, 60
1, 81296, Note_on_c, 0, 70, 56
1, 81302, Note_on_c, 0, 101, 78
1, 81302, Control_c, 0, 64, 65
1, 81317, Control_c, 0, 64, 70
1, 81330, Note_off_c, 0, 70, 67
1, 81332, Control_c, 0, 64, 80
1, 81347, Control_c, 0, 64, 99
1, 81362, Control_c, 0, 64, 127
1, 81365, Note_on_c, 0, 98, 74
1, 81372, Note_off_c, 0, 101, 64
1, 81411, Note_on_c, 0, 94, 72
1, 81420, Note_off_c, 0, 98, 64
1, 81442, Note_on_c, 0, 86, 68
1, 81445, Note_off_c, 0, 94, 62
1, 81446, Note_on_c, 0, 77, 65
1, 81449, Note_on_c, 0, 89, 71
1, 81454, Note_on_c, 0, 82, 56
1, 81469, Note_off_c, 0, 86, 66
1, 81475, Note_off_c, 0, 89, 68
1, 81478, Note_off_c, 0, 82, 65
1, 81485, Note_off_c, 0, 77, 61
1, 81520, Note_on_c, 0, 86, 79
1, 81547, Note_on_c, 0, 82, 77
1, 81567, Note_on_c, 0, 84, 24
1, 81578, Note_off_c, 0, 86, 63
1, 81600, Note_off_c, 0, 82, 63
1, 81606, Note_off_c, 0, 84, 42
1, 81607, Note_on_c, 0, 77, 76
1, 81650, Note_on_c, 0, 82, 66
1, 81674, Note_on_c, 0, 86, 69
1, 81681, Note_off_c, 0, 82, 68
1, 81703, Note_off_c, 0, 86, 67
1, 81731, Note_off_c, 0, 77, 64
1, 81765, Note_on_c, 0, 88, 44
1, 81789, Note_off_c, 0, 88, 58
1, 81791, Note_on_c, 0, 89, 40
1, 81806, Note_on_c, 0, 94, 77
1, 81820, Note_off_c, 0, 89, 50
1, 81827, Note_on_c, 0, 68, 73
1, 81832, Note_on_c, 0, 97, 68
1, 81846, Note_off_c, 0, 94, 52
1, 81864, Note_on_c, 0, 102, 99
1, 81897, Note_off_c, 0, 97, 62
1, 81932, Note_off_c, 0, 68, 61
1, 81960, Note_on_c, 0, 98, 62
1, 81983, Note_off_c, 0, 102, 64
1, 82003, Note_on_c, 0, 95, 64
1, 82018, Note_on_c, 0, 78, 60
1, 82020, Note_on_c, 0, 83, 65
1, 82022, Note_on_c, 0, 74, 46
1, 82076, Note_on_c, 0, 90, 68
1, 82088, Note_off_c, 0, 83, 61
1, 82104, Note_off_c, 0, 98, 65
1, 82109, Note_off_c, 0, 95, 62
1, 82110, Note_off_c, 0, 78, 62
1, 82122, Note_off_c, 0, 74, 63
1, 82125, Note_off_c, 0, 90, 63
1, 82149, Note_on_c, 0, 104, 101
1, 82232, Note_on_c, 0, 98, 69
1, 82232, Note_off_c, 0, 104, 63
1, 82291, Note_on_c, 0, 95, 60
1, 82303, Note_on_c, 0, 74, 67
1, 82303, Note_on_c, 0, 83, 61
1, 82310, Note_on_c, 0, 78, 64
1, 82321, Note_off_c, 0, 83, 64
1, 82346, Note_off_c, 0, 78, 67
1, 82349, Note_off_c, 0, 74, 63
1, 82351, Note_off_c, 0, 98, 58
1, 82373, Note_on_c, 0, 92, 68
1, 82397, Note_off_c, 0, 95, 63
1, 82408, Note_off_c, 0, 92, 65
1, 82458, Note_on_c, 0, 101, 89
1, 82463, Note_on_c, 0, 58, 80
1, 82501, Note_on_c, 0, 93, 24
1, 82513, Note_on_c, 0, 98, 72
1, 82514, Note_off_c, 0, 58, 63
1, 82536, Note_off_c, 0, 101, 57
1, 82539, Note_off_c, 0, 93, 32
1, 82551, Note_on_c, 0, 94, 78
1, 82568, Note_off_c, 0, 98, 66
1, 82599, Note_on_c, 0, 89, 70
1, 82603, Note_off_c, 0, 94, 63
1, 82614, Note_on_c, 0, 74, 66
1, 82625, Note_off_c, 0, 89, 67
1, 82626, Note_on_c, 0, 65, 60
1, 82628, Note_on_c, 0, 70, 56
1, 82640, Note_off_c, 0, 74, 67
1, 82662, Note_off_c, 0, 70, 66
1, 82667, Note_on_c, 0, 86, 76
1, 82668, Note_off_c, 0, 65, 61
1, 82719, Note_off_c, 0, 86, 63
1, 82733, Note_on_c, 0, 83, 42
1, 82750, Note_on_c, 0, 79, 68
1, 82757, Note_off_c, 0, 83, 56
1, 82776, Note_off_c, 0, 79, 66
1, 82838, Note_on_c, 0, 76, 52
1, 82848, Note_on_c, 0, 73, 53
1, 82864, Note_on_c, 0, 71, 56
1, 82870, Note_on_c, 0, 58, 64
1, 82874, Note_off_c, 0, 73, 64
1, 82881, Note_off_c, 0, 76, 51
1, 82884, Note_off_c, 0, 71, 61
1, 82915, Note_on_c, 0, 65, 63
1, 82934, Poly_aftertouch_c, 0, 75, 0
1, 82939, Note_on_c, 0, 67, 41
1, 82960, Note_off_c, 0, 65, 61
1, 82966, Note_off_c, 0, 67, 55
1, 82981, Note_on_c, 0, 71, 31
1, 82993, Control_c, 0, 64, 114
1, 83008, Control_c, 0, 64, 81
1, 83010, Note_on_c, 0, 78, 91
1, 83014, Note_on_c, 0, 56, 66
1, 83017, Note_off_c, 0, 71, 50
1, 83023, Control_c, 0, 64, 66
1, 83037, Control_c, 0, 64, 57
1, 83052, Control_c, 0, 64, 56
1, 83056, Note_off_c, 0, 58, 36
1, 83067, Control_c, 0, 64, 60
1, 83082, Control_c, 0, 64, 63
1, 83104, Control_c, 0, 64, 66
1, 83114, Note_on_c, 0, 74, 62
1, 83119, Control_c, 0, 64, 72
1, 83134, Control_c, 0, 64, 81
1, 83142, Note_off_c, 0, 78, 60
1, 83149, Control_c, 0, 64, 94
1, 83163, Note_on_c, 0, 71, 50
1, 83164, Control_c, 0, 64, 119
1, 83178, Control_c, 0, 64, 127
1, 83207, Note_on_c, 0, 61, 48
1, 83219, Note_on_c, 0, 62, 51
1, 83240, Note_on_c, 0, 66, 58
1, 83265, Note_off_c, 0, 71, 58
1, 83269, Note_off_c, 0, 66, 64
1, 83284, Note_off_c, 0, 74, 51
1, 83294, Note_off_c, 0, 62, 53
1, 83315, Note_on_c, 0, 80, 82
1, 83407, Note_off_c, 0, 80, 62
1, 83407, Note_on_c, 0, 74, 60
1, 83416, Note_off_c, 0, 61, 34
1, 83444, Note_off_c, 0, 74, 60
1, 83454, Note_on_c, 0, 62, 44
1, 83457, Note_on_c, 0, 59, 57
1, 83462, Note_off_c, 0, 56, 38
1, 83466, Note_on_c, 0, 71, 51
1, 83477, Note_off_c, 0, 62, 61
1, 83488, Note_off_c, 0, 59, 65
1, 83540, Note_on_c, 0, 68, 61
1, 83565, Control_c, 0, 64, 96
1, 83568, Note_off_c, 0, 71, 58
1, 83576, Note_off_c, 0, 68, 63
1, 83580, Control_c, 0, 64, 73
1, 83594, Control_c, 0, 64, 61
1, 83609, Control_c, 0, 64, 53
1, 83618, Note_on_c, 0, 46, 51
1, 83624, Control_c, 0, 64, 56
1, 83634, Note_on_c, 0, 77, 60
1, 83639, Control_c, 0, 64, 59
1, 83653, Control_c, 0, 64, 63
1, 83657, Note_off_c, 0, 46, 65
1, 83667, Control_c, 0, 64, 67
1, 83682, Control_c, 0, 64, 74
1, 83693, Note_on_c, 0, 74, 65
1, 83697, Note_off_c, 0, 77, 59
1, 83697, Control_c, 0, 64, 85
1, 83711, Control_c, 0, 64, 105
1, 83726, Control_c, 0, 64, 127
1, 83749, Note_off_c, 0, 74, 53
1, 83763, Note_on_c, 0, 70, 53
1, 83788, Note_on_c, 0, 62, 47
1, 83797, Note_on_c, 0, 58, 48
1, 83800, Note_off_c, 0, 70, 65
1, 83816, Note_on_c, 0, 53, 41
1, 83818, Note_on_c, 0, 65, 60
1, 83822, Note_off_c, 0, 62, 63
1, 83845, Note_off_c, 0, 58, 63
1, 83856, Note_off_c, 0, 65, 64
1, 83864, Note_off_c, 0, 53, 63
1, 83914, Note_on_c, 0, 62, 56
1, 83982, Note_off_c, 0, 62, 55
1, 83997, Note_on_c, 0, 58, 56
1, 84045, Note_off_c, 0, 58, 56
1, 84098, Note_on_c, 0, 53, 54
1, 84180, Note_off_c, 0, 53, 54
1, 84209, Control_c, 0, 64, 117
1, 84224, Control_c, 0, 64, 110
1, 84239, Control_c, 0, 64, 105
1, 84247, Note_on_c, 0, 46, 48
1, 84253, Control_c, 0, 64, 100
1, 84268, Control_c, 0, 64, 96
1, 84283, Control_c, 0, 64, 91
1, 84298, Control_c, 0, 64, 88
1, 84313, Control_c, 0, 64, 85
1, 84328, Control_c, 0, 64, 82
1, 84342, Control_c, 0, 64, 80
1, 84357, Control_c, 0, 64, 77
1, 84372, Control_c, 0, 64, 73
1, 84387, Control_c, 0, 64, 67
1, 84402, Control_c, 0, 64, 62
1, 84407, Note_off_c, 0, 46, 35
1, 84416, Control_c, 0, 64, 53
1, 84424, Note_on_c, 0, 59, 54
1, 84431, Control_c, 0, 64, 29
1, 84442, Note_on_c, 0, 54, 30
1, 84444, Note_on_c, 0, 50, 44
1, 84445, Note_on_c, 0, 44, 34
1, 84446, Control_c, 0, 64, 0
1, 84479, Note_off_c, 0, 54, 61
1, 84554, Note_off_c, 0, 50, 57
1, 84587, Control_c, 0, 64, 13
1, 84602, Control_c, 0, 64, 48
1, 84616, Control_c, 0, 64, 62
1, 84631, Control_c, 0, 64, 67
1, 84635, Note_off_c, 0, 59, 59
1, 84646, Control_c, 0, 64, 72
1, 84650, Note_on_c, 0, 61, 62
1, 84660, Control_c, 0, 64, 82
1, 84675, Control_c, 0, 64, 99
1, 84690, Control_c, 0, 64, 127
1, 84725, Note_off_c, 0, 44, 41
1, 84739, Note_off_c, 0, 61, 61
1, 84808, Note_on_c, 0, 61, 32
1, 84808, Note_on_c, 0, 58, 51
1, 84835, Note_on_c, 0, 62, 43
1, 84850, Note_on_c, 0, 59, 44
1, 84851, Note_off_c, 0, 61, 59
1, 84863, Note_off_c, 0, 62, 59
1, 84879, Note_off_c, 0, 59, 63
1, 84908, Note_on_c, 0, 54, 63
1, 84941, Note_off_c, 0, 54, 64
1, 84989, Note_on_c, 0, 66, 74
1, 85039, Note_off_c, 0, 58, 54
1, 85088, Note_off_c, 0, 66, 60
1, 85124, Note_on_c, 0, 56, 53
1, 85162, Note_on_c, 0, 71, 77
1, 85176, Note_on_c, 0, 62, 59
1, 85177, Note_on_c, 0, 66, 31
1, 85204, Note_off_c, 0, 66, 56
1, 85222, Note_off_c, 0, 56, 58
1, 85225, Note_off_c, 0, 62, 54
1, 85257, Note_off_c, 0, 71, 61
1, 85315, Note_on_c, 0, 73, 83
1, 85423, Note_off_c, 0, 73, 62
1, 85472, Note_on_c, 0, 74, 66
1, 85473, Note_on_c, 0, 71, 72
1, 85483, Note_on_c, 0, 70, 67
1, 85525, Note_off_c, 0, 71, 60
1, 85528, Note_off_c, 0, 74, 58
1, 85555, Note_on_c, 0, 66, 66
1, 85598, Note_off_c, 0, 66, 57
1, 85626, Note_on_c, 0, 78, 86
1, 85716, Note_off_c, 0, 78, 66
1, 85723, Note_off_c, 0, 70, 61
1, 85771, Note_on_c, 0, 68, 58
1, 85791, Note_on_c, 0, 83, 82
1, 85795, Note_on_c, 0, 78, 67
1, 85803, Note_on_c, 0, 74, 60
1, 85821, Note_off_c, 0, 78, 63
1, 85839, Note_off_c, 0, 68, 60
1, 85842, Note_off_c, 0, 74, 54
1, 85883, Note_off_c, 0, 83, 62
1, 85941, Note_on_c, 0, 85, 86
1, 86031, Note_off_c, 0, 85, 64
1, 86095, Note_on_c, 0, 82, 60
1, 86104, Note_on_c, 0, 86, 67
1, 86108, Note_on_c, 0, 83, 61
1, 86125, Note_on_c, 0, 70, 51
1, 86130, Note_off_c, 0, 82, 62
1, 86146, Note_off_c, 0, 83, 60
1, 86161, Note_off_c, 0, 86, 61
1, 86198, Note_on_c, 0, 78, 67
1, 86247, Note_off_c, 0, 78, 59
1, 86276, Note_on_c, 0, 90, 72
1, 86298, Note_on_c, 0, 80, 50
1, 86314, Note_on_c, 0, 68, 54
1, 86343, Note_off_c, 0, 90, 63
1, 86396, Note_off_c, 0, 80, 59
1, 86396, Note_off_c, 0, 68, 55
1, 86411, Control_c, 0, 64, 113
1, 86426, Control_c, 0, 64, 81
1, 86441, Control_c, 0, 64, 67
1, 86455, Control_c, 0, 64, 61
1, 86470, Control_c, 0, 64, 62
1, 86480, Note_off_c, 0, 70, 18
1, 86486, Control_c, 0, 64, 64
1, 86487, Note_on_c, 0, 98, 62
1, 86498, Note_on_c, 0, 67, 53
1, 86501, Control_c, 0, 64, 66
1, 86516, Control_c, 0, 64, 70
1, 86530, Control_c, 0, 64, 77
1, 86537, Note_off_c, 0, 67, 65
1, 86540, Note_on_c, 0, 95, 66
1, 86543, Note_off_c, 0, 98, 61
1, 86545, Control_c, 0, 64, 92
1, 86560, Control_c, 0, 64, 127
1, 86591, Note_off_c, 0, 95, 60
1, 86598, Note_on_c, 0, 91, 55
1, 86626, Note_off_c, 0, 91, 63
1, 86630, Note_on_c, 0, 86, 71
1, 86656, Note_off_c, 0, 86, 69
1, 86671, Note_on_c, 0, 83, 16
1, 86674, Note_on_c, 0, 74, 46
1, 86695, Note_off_c, 0, 74, 57
1, 86710, Note_on_c, 0, 79, 53
1, 86779, Note_off_c, 0, 79, 62
1, 86787, Note_on_c, 0, 74, 64
1, 86804, Note_off_c, 0, 83, 43
1, 86847, Note_on_c, 0, 79, 53
1, 86852, Note_off_c, 0, 74, 64
1, 86897, Note_off_c, 0, 79, 66
1, 86904, Note_on_c, 0, 83, 57
1, 86924, Note_off_c, 0, 83, 61
1, 86955, Note_on_c, 0, 74, 56
1, 86960, Note_on_c, 0, 79, 28
1, 86972, Note_on_c, 0, 86, 72
1, 86986, Note_off_c, 0, 74, 67
1, 86993, Note_off_c, 0, 79, 53
1, 87016, Note_on_c, 0, 91, 72
1, 87027, Note_off_c, 0, 86, 55
1, 87065, Note_on_c, 0, 95, 61
1, 87101, Note_off_c, 0, 91, 61
1, 87117, Note_on_c, 0, 60, 59
1, 87126, Note_on_c, 0, 99, 85
1, 87150, Note_off_c, 0, 95, 60
1, 87154, Note_off_c, 0, 60, 66
1, 87217, Note_on_c, 0, 94, 67
1, 87220, Note_off_c, 0, 99, 64
1, 87270, Note_on_c, 0, 90, 61
1, 87286, Note_on_c, 0, 75, 60
1, 87297, Note_off_c, 0, 94, 60
1, 87304, Note_on_c, 0, 66, 26
1, 87330, Note_off_c, 0, 90, 63
1, 87337, Note_on_c, 0, 87, 64
1, 87364, Note_off_c, 0, 75, 59
1, 87376, Note_off_c, 0, 87, 64
1, 87410, Note_off_c, 0, 66, 38
1, 87413, Note_on_c, 0, 101, 94
1, 87466, Note_off_c, 0, 101, 63
1, 87509, Note_on_c, 0, 94, 78
1, 87553, Note_on_c, 0, 90, 60
1, 87572, Note_on_c, 0, 66, 66
1, 87573, Note_on_c, 0, 75, 67
1, 87586, Note_on_c, 0, 70, 60
1, 87604, Note_off_c, 0, 75, 62
1, 87611, Note_off_c, 0, 94, 63
1, 87614, Note_off_c, 0, 70, 67
1, 87628, Note_on_c, 0, 89, 81
1, 87631, Note_off_c, 0, 90, 63
1, 87634, Note_off_c, 0, 66, 61
1, 87687, Note_off_c, 0, 89, 59
1, 87702, Control_c, 0, 64, 84
1, 87716, Control_c, 0, 64, 67
1, 87720, Note_on_c, 0, 98, 89
1, 87731, Control_c, 0, 64, 61
1, 87746, Control_c, 0, 64, 64
1, 87749, Note_on_c, 0, 55, 55
1, 87760, Control_c, 0, 64, 66
1, 87774, Note_off_c, 0, 55, 61
1, 87775, Control_c, 0, 64, 70
1, 87783, Note_on_c, 0, 95, 76
1, 87790, Control_c, 0, 64, 76
1, 87801, Note_off_c, 0, 98, 62
1, 87805, Control_c, 0, 64, 88
1, 87820, Control_c, 0, 64, 127
1, 87824, Note_on_c, 0, 91, 75
1, 87848, Note_off_c, 0, 95, 63
1, 87874, Note_off_c, 0, 91, 63
1, 87875, Note_on_c, 0, 71, 71
1, 87876, Note_on_c, 0, 86, 70
1, 87882, Note_on_c, 0, 62, 61
1, 87883, Note_on_c, 0, 67, 59
1, 87902, Note_off_c, 0, 71, 68
1, 87903, Note_off_c, 0, 86, 68
1, 87914, Note_off_c, 0, 67, 65
1, 87920, Note_off_c, 0, 62, 61
1, 87950, Note_on_c, 0, 83, 81
1, 87983, Note_on_c, 0, 79, 75
1, 87998, Note_off_c, 0, 83, 62
1, 88021, Note_off_c, 0, 79, 64
1, 88042, Note_on_c, 0, 74, 59
1, 88060, Note_off_c, 0, 74, 63
1, 88107, Note_on_c, 0, 71, 68
1, 88132, Note_on_c, 0, 67, 64
1, 88149, Note_off_c, 0, 71, 59
1, 88163, Note_on_c, 0, 55, 72
1, 88188, Note_off_c, 0, 67, 56
1, 88198, Note_on_c, 0, 62, 68
1, 88220, Note_off_c, 0, 55, 62
1, 88242, Note_on_c, 0, 67, 21
1, 88255, Note_off_c, 0, 62, 60
1, 88264, Control_c, 0, 64, 89
1, 88279, Control_c, 0, 64, 68
1, 88294, Control_c, 0, 64, 54
1, 88298, Note_on_c, 0, 75, 81
1, 88309, Control_c, 0, 64, 41
1, 88310, Note_on_c, 0, 48, 62
1, 88313, Note_off_c, 0, 67, 59
1, 88331, Control_c, 0, 64, 47
1, 88346, Control_c, 0, 64, 54
1, 88361, Control_c, 0, 64, 58
1, 88376, Control_c, 0, 64, 62
1, 88390, Control_c, 0, 64, 65
1, 88391, Note_on_c, 0, 70, 65
1, 88393, Note_off_c, 0, 75, 62
1, 88405, Control_c, 0, 64, 69
1, 88420, Control_c, 0, 64, 76
1, 88435, Control_c, 0, 64, 90
1, 88450, Control_c, 0, 64, 115
1, 88454, Note_on_c, 0, 66, 55
1, 88459, Note_off_c, 0, 70, 63
1, 88462, Note_off_c, 0, 48, 56
1, 88464, Control_c, 0, 64, 127
1, 88474, Note_on_c, 0, 54, 53
1, 88477, Note_on_c, 0, 58, 57
1, 88496, Note_off_c, 0, 66, 59
1, 88500, Note_on_c, 0, 63, 61
1, 88530, Note_off_c, 0, 63, 65
1, 88582, Note_on_c, 0, 77, 80
1, 88632, Note_off_c, 0, 77, 61
1, 88676, Note_on_c, 0, 70, 66
1, 88710, Note_on_c, 0, 66, 59
1, 88726, Note_off_c, 0, 58, 55
1, 88728, Note_off_c, 0, 54, 32
1, 88739, Note_on_c, 0, 53, 47
1, 88772, Note_off_c, 0, 53, 64
1, 88775, Note_off_c, 0, 70, 61
1, 88787, Note_on_c, 0, 65, 67
1, 88787, Note_off_c, 0, 66, 60
1, 88850, Control_c, 0, 64, 99
1, 88864, Control_c, 0, 64, 77
1, 88880, Control_c, 0, 64, 63
1, 88886, Note_on_c, 0, 74, 68
1, 88895, Control_c, 0, 64, 45
1, 88898, Note_off_c, 0, 65, 34
1, 88909, Note_on_c, 0, 43, 45
1, 88910, Control_c, 0, 64, 37
1, 88925, Control_c, 0, 64, 45
1, 88940, Control_c, 0, 64, 54
1, 88954, Control_c, 0, 64, 59
1, 88958, Note_off_c, 0, 74, 60
1, 88963, Note_on_c, 0, 71, 59
1, 88969, Control_c, 0, 64, 63
1, 88984, Control_c, 0, 64, 67
1, 88999, Control_c, 0, 64, 74
1, 89010, Note_off_c, 0, 71, 57
1, 89013, Note_on_c, 0, 67, 54
1, 89014, Control_c, 0, 64, 88
1, 89029, Control_c, 0, 64, 127
1, 89051, Note_off_c, 0, 67, 64
1, 89067, Note_off_c, 0, 43, 54
1, 89068, Note_on_c, 0, 62, 65
1, 89104, Note_off_c, 0, 62, 66
1, 89161, Note_on_c, 0, 59, 62
1, 89217, Note_off_c, 0, 59, 59
1, 89228, Note_on_c, 0, 55, 59
1, 89265, Note_off_c, 0, 55, 63
1, 89297, Note_on_c, 0, 50, 58
1, 89345, Note_off_c, 0, 50, 63
1, 89358, Note_on_c, 0, 55, 56
1, 89400, Note_off_c, 0, 55, 60
1, 89426, Note_on_c, 0, 59, 51
1, 89463, Note_off_c, 0, 59, 62
1, 89506, Note_on_c, 0, 62, 26
1, 89538, Note_off_c, 0, 62, 54
1, 89583, Note_on_c, 0, 58, 49
1, 89630, Note_off_c, 0, 58, 64
1, 89654, Note_on_c, 0, 59, 55
1, 89683, Note_off_c, 0, 59, 64
1, 89713, Note_on_c, 0, 61, 50
1, 89738, Note_off_c, 0, 61, 57
1, 89780, Note_on_c, 0, 62, 48
1, 89806, Note_off_c, 0, 62, 57
1, 89845, Note_on_c, 0, 66, 66
1, 89886, Note_off_c, 0, 66, 63
1, 89903, Control_c, 0, 67, 21
1, 89914, Note_on_c, 0, 67, 46
1, 89918, Control_c, 0, 67, 46
1, 89933, Control_c, 0, 67, 66
1, 89938, Note_off_c, 0, 67, 57
1, 89941, Note_on_c, 0, 70, 61
1, 89948, Control_c, 0, 67, 84
1, 89962, Control_c, 0, 67, 102
1, 89977, Control_c, 0, 67, 117
1, 89989, Note_off_c, 0, 70, 62
1, 89992, Control_c, 0, 67, 127
1, 90002, Note_on_c, 0, 71, 67
1, 90027, Note_off_c, 0, 71, 65
1, 90063, Note_on_c, 0, 73, 73
1, 90116, Note_on_c, 0, 74, 57
1, 90116, Note_off_c, 0, 73, 59
1, 90149, Note_off_c, 0, 74, 64
1, 90232, Note_on_c, 0, 79, 49
1, 90252, Note_off_c, 0, 79, 61
1, 90324, Note_on_c, 0, 82, 53
1, 90405, Note_on_c, 0, 83, 38
1, 90414, Note_off_c, 0, 82, 60
1, 90439, Note_off_c, 0, 83, 52
1, 90466, Note_on_c, 0, 85, 43
1, 90546, Note_off_c, 0, 85, 54
1, 90585, Note_on_c, 0, 86, 33
1, 90659, Note_off_c, 0, 86, 48
1, 90919, Control_c, 0, 64, 114
1, 90925, Note_on_c, 0, 61, 40
1, 90934, Control_c, 0, 64, 97
1, 90949, Control_c, 0, 64, 86
1, 90963, Control_c, 0, 64, 76
1, 90978, Control_c, 0, 64, 65
1, 90993, Control_c, 0, 64, 56
1, 91008, Control_c, 0, 64, 51
1, 91023, Control_c, 0, 64, 53
1, 91025, Note_on_c, 0, 86, 66
1, 91038, Control_c, 0, 64, 55
1, 91052, Control_c, 0, 64, 57
1, 91067, Control_c, 0, 64, 60
1, 91082, Control_c, 0, 64, 63
1, 91096, Note_off_c, 0, 86, 62
1, 91097, Control_c, 0, 64, 66
1, 91111, Control_c, 0, 64, 69
1, 91126, Control_c, 0, 64, 77
1, 91141, Control_c, 0, 64, 92
1, 91154, Control_c, 0, 64, 127
1, 91250, Note_on_c, 0, 77, 42
1, 91267, Poly_aftertouch_c, 0, 79, 0
1, 91312, Note_off_c, 0, 77, 55
1, 91373, Note_off_c, 0, 61, 26
1, 91379, Note_on_c, 0, 74, 33
1, 91381, Note_on_c, 0, 65, 23
1, 91417, Note_off_c, 0, 74, 48
1, 91451, Note_on_c, 0, 85, 63
1, 91512, Note_off_c, 0, 85, 57
1, 91557, Note_on_c, 0, 79, 41
1, 91588, Note_off_c, 0, 65, 40
1, 91594, Note_off_c, 0, 79, 63
1, 91647, Note_on_c, 0, 71, 37
1, 91655, Note_on_c, 0, 77, 33
1, 91688, Note_off_c, 0, 77, 50
1, 91697, Note_off_c, 0, 71, 56
1, 91730, Note_on_c, 0, 73, 29
1, 91794, Note_off_c, 0, 73, 0
1, 91808, Note_on_c, 0, 79, 66
1, 91809, Note_on_c, 0, 73, 36
1, 91858, Note_off_c, 0, 73, 60
1, 91884, Note_off_c, 0, 79, 61
1, 91923, Note_on_c, 0, 77, 49
1, 92084, Note_off_c, 0, 77, 58
1, 92143, Poly_aftertouch_c, 0, 67, 0
1, 92153, Note_on_c, 0, 80, 70
1, 92162, Note_on_c, 0, 65, 36
1, 92209, Note_off_c, 0, 65, 56
1, 92219, Note_off_c, 0, 80, 61
1, 92223, Note_on_c, 0, 77, 45
1, 92284, Note_off_c, 0, 77, 54
1, 92324, Note_on_c, 0, 71, 49
1, 92364, Note_off_c, 0, 71, 64
1, 92400, Note_on_c, 0, 68, 54
1, 92427, Note_off_c, 0, 68, 63
1, 92475, Control_c, 0, 64, 116
1, 92479, Note_on_c, 0, 61, 41
1, 92490, Control_c, 0, 64, 88
1, 92495, Note_on_c, 0, 83, 70
1, 92504, Control_c, 0, 64, 74
1, 92519, Control_c, 0, 64, 64
1, 92534, Control_c, 0, 64, 59
1, 92548, Control_c, 0, 64, 61
1, 92563, Control_c, 0, 64, 63
1, 92578, Control_c, 0, 64, 65
1, 92593, Control_c, 0, 64, 68
1, 92597, Note_off_c, 0, 83, 55
1, 92608, Control_c, 0, 64, 73
1, 92618, Note_on_c, 0, 79, 43
1, 92622, Control_c, 0, 64, 79
1, 92638, Control_c, 0, 64, 90
1, 92653, Control_c, 0, 64, 127
1, 92672, Note_off_c, 0, 79, 57
1, 92675, Note_on_c, 0, 64, 45
1, 92688, Note_on_c, 0, 76, 26
1, 92704, Note_off_c, 0, 61, 32
1, 92713, Note_off_c, 0, 76, 48
1, 92745, Note_on_c, 0, 71, 43
1, 92773, Note_off_c, 0, 71, 53
1, 92795, Note_off_c, 0, 64, 53
1, 92847, Note_on_c, 0, 75, 39
1, 92850, Note_on_c, 0, 67, 34
1, 92872, Note_off_c, 0, 75, 56
1, 92937, Note_on_c, 0, 76, 41
1, 92963, Note_on_c, 0, 71, 39
1, 92969, Note_off_c, 0, 76, 56
1, 92987, Note_on_c, 0, 77, 54
1, 93023, Note_off_c, 0, 67, 28
1, 93033, Note_off_c, 0, 77, 60
1, 93056, Note_on_c, 0, 78, 53
1, 93101, Note_off_c, 0, 78, 65
1, 93104, Note_off_c, 0, 71, 0
1, 93133, Note_on_c, 0, 79, 61
1, 93145, Note_on_c, 0, 76, 39
1, 93152, Poly_aftertouch_c, 0, 71, 0
1, 93169, Note_off_c, 0, 79, 62
1, 93212, Note_on_c, 0, 80, 51
1, 93253, Note_off_c, 0, 80, 64
1, 93294, Note_on_c, 0, 81, 55
1, 93321, Note_off_c, 0, 76, 33
1, 93329, Note_off_c, 0, 81, 62
1, 93366, Note_on_c, 0, 82, 52
1, 93399, Note_off_c, 0, 82, 66
1, 93443, Note_on_c, 0, 71, 40
1, 93448, Note_on_c, 0, 83, 48
1, 93483, Note_off_c, 0, 83, 59
1, 93533, Note_on_c, 0, 88, 47
1, 93583, Note_off_c, 0, 71, 50
1, 93605, Note_off_c, 0, 88, 49
1, 93609, Note_on_c, 0, 87, 46
1, 93642, Note_off_c, 0, 87, 64
1, 93687, Note_on_c, 0, 86, 54
1, 93715, Note_off_c, 0, 86, 64
1, 93788, Note_on_c, 0, 61, 42
1, 93795, Control_c, 0, 64, 105
1, 93810, Control_c, 0, 64, 84
1, 93811, Note_on_c, 0, 86, 66
1, 93825, Control_c, 0, 64, 72
1, 93840, Control_c, 0, 64, 66
1, 93869, Control_c, 0, 64, 68
1, 93884, Control_c, 0, 64, 72
1, 93894, Note_off_c, 0, 86, 62
1, 93899, Control_c, 0, 64, 76
1, 93914, Control_c, 0, 64, 83
1, 93929, Control_c, 0, 64, 90
1, 93942, Note_on_c, 0, 79, 51
1, 93944, Control_c, 0, 64, 99
1, 93958, Control_c, 0, 64, 116
1, 93973, Control_c, 0, 64, 127
1, 93986, Note_off_c, 0, 79, 60
1, 94011, Note_on_c, 0, 77, 49
1, 94052, Note_off_c, 0, 77, 61
1, 94078, Note_off_c, 0, 61, 34
1, 94081, Note_on_c, 0, 74, 44
1, 94096, Note_on_c, 0, 65, 39
1, 94105, Note_off_c, 0, 74, 55
1, 94141, Note_on_c, 0, 85, 72
1, 94207, Note_off_c, 0, 85, 63
1, 94236, Note_on_c, 0, 79, 45
1, 94264, Note_off_c, 0, 79, 63
1, 94274, Note_off_c, 0, 65, 38
1, 94299, Note_on_c, 0, 71, 40
1, 94302, Note_on_c, 0, 77, 51
1, 94343, Note_off_c, 0, 77, 63
1, 94353, Note_off_c, 0, 71, 59
1, 94369, Note_on_c, 0, 73, 46
1, 94391, Note_off_c, 0, 73, 61
1, 94442, Note_on_c, 0, 79, 69
1, 94475, Note_on_c, 0, 73, 48
1, 94496, Note_off_c, 0, 73, 59
1, 94508, Note_off_c, 0, 79, 63
1, 94535, Note_on_c, 0, 77, 55
1, 94609, Note_on_c, 0, 71, 56
1, 94655, Note_off_c, 0, 71, 59
1, 94660, Note_on_c, 0, 67, 56
1, 94696, Note_off_c, 0, 67, 62
1, 94696, Note_off_c, 0, 77, 59
1, 94749, Note_on_c, 0, 80, 72
1, 94757, Note_on_c, 0, 65, 40
1, 94819, Note_off_c, 0, 65, 51
1, 94822, Note_off_c, 0, 80, 61
1, 94824, Note_on_c, 0, 77, 56
1, 94879, Note_off_c, 0, 77, 56
1, 94899, Note_on_c, 0, 71, 63
1, 94954, Note_off_c, 0, 71, 61
1, 94982, Note_on_c, 0, 68, 61
1, 95016, Note_off_c, 0, 68, 65
1, 95032, Control_c, 0, 64, 105
1, 95047, Control_c, 0, 64, 81
1, 95047, Note_on_c, 0, 61, 46
1, 95062, Control_c, 0, 64, 68
1, 95084, Control_c, 0, 64, 57
1, 95085, Note_on_c, 0, 83, 68
1, 95098, Control_c, 0, 64, 56
1, 95113, Control_c, 0, 64, 58
1, 95128, Control_c, 0, 64, 61
1, 95143, Control_c, 0, 64, 63
1, 95158, Note_off_c, 0, 83, 60
1, 95158, Control_c, 0, 64, 66
1, 95172, Control_c, 0, 64, 70
1, 95173, Note_on_c, 0, 79, 60
1, 95187, Control_c, 0, 64, 74
1, 95202, Control_c, 0, 64, 80
1, 95217, Control_c, 0, 64, 89
1, 95218, Note_off_c, 0, 61, 50
1, 95223, Note_off_c, 0, 79, 52
1, 95232, Control_c, 0, 64, 104
1, 95247, Control_c, 0, 64, 127
1, 95249, Note_on_c, 0, 64, 45
1, 95250, Note_on_c, 0, 76, 58
1, 95286, Note_off_c, 0, 76, 66
1, 95331, Note_on_c, 0, 71, 50
1, 95360, Note_off_c, 0, 71, 58
1, 95398, Note_off_c, 0, 64, 34
1, 95405, Note_on_c, 0, 75, 56
1, 95411, Note_on_c, 0, 67, 42
1, 95439, Note_off_c, 0, 75, 64
1, 95502, Note_on_c, 0, 76, 48
1, 95536, Note_off_c, 0, 76, 56
1, 95557, Note_on_c, 0, 71, 38
1, 95571, Note_on_c, 0, 77, 43
1, 95601, Note_off_c, 0, 77, 59
1, 95628, Note_on_c, 0, 78, 54
1, 95666, Note_off_c, 0, 67, 32
1, 95670, Note_off_c, 0, 78, 64
1, 95718, Note_on_c, 0, 79, 52
1, 95751, Note_off_c, 0, 79, 63
1, 95759, Note_on_c, 0, 76, 44
1, 95760, Note_off_c, 0, 71, 39
1, 95787, Note_on_c, 0, 80, 53
1, 95836, Note_off_c, 0, 80, 64
1, 95880, Note_on_c, 0, 81, 53
1, 95900, Note_off_c, 0, 76, 34
1, 95909, Note_off_c, 0, 81, 63
1, 95953, Note_on_c, 0, 82, 50
1, 95994, Note_off_c, 0, 82, 62
1, 96043, Note_on_c, 0, 83, 45
1, 96056, Note_on_c, 0, 71, 24
1, 96076, Note_off_c, 0, 83, 56
1, 96112, Note_off_c, 0, 71, 50
1, 96123, Note_on_c, 0, 88, 54
1, 96182, Note_off_c, 0, 88, 50
1, 96205, Note_on_c, 0, 87, 46
1, 96247, Note_off_c, 0, 87, 66
1, 96295, Note_on_c, 0, 86, 53
1, 96327, Note_off_c, 0, 86, 65
1, 96404, Note_on_c, 0, 49, 41
1, 96460, Note_on_c, 0, 86, 62
1, 96518, Note_off_c, 0, 86, 54
1, 96556, Note_off_c, 0, 49, 37
1, 96568, Note_on_c, 0, 83, 50
1, 96631, Note_off_c, 0, 83, 56
1, 96642, Note_on_c, 0, 77, 57
1, 96680, Note_off_c, 0, 77, 64
1, 96706, Note_on_c, 0, 74, 59
1, 96748, Note_off_c, 0, 74, 56
1, 96773, Note_on_c, 0, 85, 76
1, 96841, Note_on_c, 0, 83, 64
1, 96842, Note_off_c, 0, 85, 62
1, 96899, Note_on_c, 0, 71, 39
1, 96903, Note_on_c, 0, 61, 36
1, 96906, Note_off_c, 0, 83, 55
1, 96907, Note_on_c, 0, 77, 64
1, 96908, Note_on_c, 0, 65, 38
1, 96937, Note_off_c, 0, 71, 55
1, 96946, Note_off_c, 0, 77, 63
1, 96950, Note_off_c, 0, 61, 50
1, 96958, Note_off_c, 0, 65, 59
1, 96962, Note_on_c, 0, 73, 63
1, 96988, Note_off_c, 0, 73, 67
1, 97027, Control_c, 0, 64, 88
1, 97042, Control_c, 0, 64, 73
1, 97047, Note_on_c, 0, 88, 76
1, 97057, Control_c, 0, 64, 67
1, 97059, Note_on_c, 0, 71, 43
1, 97072, Control_c, 0, 64, 66
1, 97086, Note_on_c, 0, 65, 27
1, 97087, Control_c, 0, 64, 68
1, 97090, Note_on_c, 0, 64, 30
1, 97101, Control_c, 0, 64, 70
1, 97111, Note_off_c, 0, 88, 60
1, 97116, Control_c, 0, 64, 73
1, 97131, Control_c, 0, 64, 80
1, 97146, Control_c, 0, 64, 87
1, 97154, Note_on_c, 0, 83, 44
1, 97161, Control_c, 0, 64, 95
1, 97176, Control_c, 0, 64, 107
1, 97185, Note_off_c, 0, 71, 37
1, 97191, Control_c, 0, 64, 127
1, 97202, Note_off_c, 0, 65, 32
1, 97211, Note_on_c, 0, 77, 58
1, 97211, Note_off_c, 0, 83, 46
1, 97266, Note_off_c, 0, 77, 58
1, 97292, Note_on_c, 0, 76, 59
1, 97363, Note_off_c, 0, 64, 37
1, 97372, Note_off_c, 0, 76, 58
1, 97402, Note_on_c, 0, 62, 39
1, 97402, Note_on_c, 0, 65, 29
1, 97403, Note_on_c, 0, 86, 68
1, 97412, Note_on_c, 0, 71, 30
1, 97451, Note_off_c, 0, 71, 50
1, 97471, Note_off_c, 0, 65, 57
1, 97474, Note_off_c, 0, 86, 61
1, 97482, Note_on_c, 0, 83, 61
1, 97492, Note_off_c, 0, 62, 61
1, 97552, Note_on_c, 0, 77, 53
1, 97554, Note_off_c, 0, 83, 57
1, 97596, Note_off_c, 0, 77, 63
1, 97614, Note_on_c, 0, 74, 61
1, 97673, Control_c, 0, 64, 96
1, 97678, Note_off_c, 0, 74, 55
1, 97688, Control_c, 0, 64, 75
1, 97696, Note_on_c, 0, 49, 55
1, 97703, Control_c, 0, 64, 67
1, 97706, Note_on_c, 0, 86, 78
1, 97717, Control_c, 0, 64, 65
1, 97732, Control_c, 0, 64, 67
1, 97747, Control_c, 0, 64, 70
1, 97762, Control_c, 0, 64, 74
1, 97777, Control_c, 0, 64, 81
1, 97784, Note_off_c, 0, 86, 60
1, 97787, Note_off_c, 0, 49, 59
1, 97790, Note_on_c, 0, 83, 65
1, 97792, Control_c, 0, 64, 88
1, 97807, Control_c, 0, 64, 96
1, 97822, Control_c, 0, 64, 105
1, 97837, Control_c, 0, 64, 116
1, 97845, Note_off_c, 0, 83, 62
1, 97851, Note_on_c, 0, 77, 64
1, 97851, Control_c, 0, 64, 127
1, 97885, Note_off_c, 0, 77, 63
1, 97903, Note_on_c, 0, 74, 59
1, 97942, Note_off_c, 0, 74, 59
1, 97983, Note_on_c, 0, 85, 84
1, 97997, Note_on_c, 0, 71, 57
1, 98010, Note_on_c, 0, 61, 46
1, 98026, Note_on_c, 0, 65, 31
1, 98078, Note_on_c, 0, 83, 52
1, 98084, Note_off_c, 0, 71, 56
1, 98086, Note_off_c, 0, 85, 65
1, 98095, Note_off_c, 0, 61, 50
1, 98118, Note_on_c, 0, 77, 62
1, 98119, Note_off_c, 0, 83, 65
1, 98143, Note_off_c, 0, 65, 36
1, 98171, Note_off_c, 0, 77, 60
1, 98177, Note_on_c, 0, 73, 64
1, 98216, Note_off_c, 0, 73, 63
1, 98258, Note_on_c, 0, 65, 35
1, 98261, Note_on_c, 0, 71, 45
1, 98277, Note_on_c, 0, 86, 86
1, 98284, Note_on_c, 0, 62, 41
1, 98329, Note_off_c, 0, 71, 55
1, 98334, Note_off_c, 0, 65, 55
1, 98359, Note_off_c, 0, 86, 62
1, 98363, Note_on_c, 0, 83, 71
1, 98422, Note_on_c, 0, 77, 63
1, 98433, Note_off_c, 0, 83, 63
1, 98474, Note_off_c, 0, 62, 33
1, 98474, Note_off_c, 0, 77, 61
1, 98481, Note_on_c, 0, 74, 70
1, 98527, Note_off_c, 0, 74, 58
1, 98556, Note_on_c, 0, 71, 61
1, 98568, Note_on_c, 0, 64, 51
1, 98568, Note_on_c, 0, 88, 87
1, 98583, Note_on_c, 0, 65, 36
1, 98590, Note_off_c, 0, 71, 64
1, 98615, Note_off_c, 0, 64, 61
1, 98630, Note_off_c, 0, 65, 53
1, 98632, Note_off_c, 0, 88, 60
1, 98643, Note_on_c, 0, 83, 69
1, 98707, Note_off_c, 0, 83, 63
1, 98712, Note_on_c, 0, 77, 56
1, 98745, Note_off_c, 0, 77, 65
1, 98751, Note_on_c, 0, 76, 72
1, 98783, Note_off_c, 0, 76, 65
1, 98806, Control_c, 0, 64, 93
1, 98829, Control_c, 0, 64, 74
1, 98830, Note_on_c, 0, 54, 60
1, 98844, Control_c, 0, 64, 64
1, 98848, Note_on_c, 0, 91, 83
1, 98859, Control_c, 0, 64, 58
1, 98873, Control_c, 0, 64, 60
1, 98888, Control_c, 0, 64, 63
1, 98903, Control_c, 0, 64, 66
1, 98914, Note_off_c, 0, 91, 57
1, 98918, Control_c, 0, 64, 69
1, 98933, Control_c, 0, 64, 75
1, 98934, Note_on_c, 0, 84, 66
1, 98947, Control_c, 0, 64, 84
1, 98962, Control_c, 0, 64, 94
1, 98977, Control_c, 0, 64, 107
1, 98984, Note_off_c, 0, 54, 54
1, 98988, Note_on_c, 0, 61, 55
1, 98991, Control_c, 0, 64, 127
1, 98996, Note_on_c, 0, 82, 69
1, 99003, Note_off_c, 0, 84, 62
1, 99036, Note_off_c, 0, 82, 58
1, 99051, Note_on_c, 0, 79, 61
1, 99102, Note_on_c, 0, 90, 84
1, 99108, Note_off_c, 0, 79, 40
1, 99117, Note_off_c, 0, 61, 51
1, 99125, Note_on_c, 0, 64, 53
1, 99170, Note_on_c, 0, 84, 58
1, 99195, Note_off_c, 0, 90, 62
1, 99209, Note_off_c, 0, 64, 59
1, 99228, Note_on_c, 0, 82, 66
1, 99233, Note_off_c, 0, 84, 64
1, 99259, Note_on_c, 0, 70, 50
1, 99288, Note_off_c, 0, 70, 65
1, 99289, Note_on_c, 0, 78, 58
1, 99294, Note_off_c, 0, 82, 59
1, 99344, Note_off_c, 0, 78, 59
1, 99376, Note_on_c, 0, 84, 74
1, 99390, Note_on_c, 0, 76, 63
1, 99419, Note_off_c, 0, 76, 64
1, 99439, Note_off_c, 0, 84, 61
1, 99443, Note_on_c, 0, 82, 68
1, 99524, Note_on_c, 0, 76, 61
1, 99528, Note_off_c, 0, 82, 63
1, 99594, Note_off_c, 0, 76, 64
1, 99609, Note_on_c, 0, 72, 34
1, 99641, Note_off_c, 0, 72, 53
1, 99662, Note_on_c, 0, 70, 55
1, 99665, Note_on_c, 0, 85, 81
1, 99692, Note_off_c, 0, 70, 67
1, 99724, Note_on_c, 0, 82, 59
1, 99752, Note_off_c, 0, 85, 64
1, 99793, Note_on_c, 0, 76, 67
1, 99799, Note_off_c, 0, 82, 63
1, 99851, Note_off_c, 0, 76, 65
1, 99862, Note_on_c, 0, 73, 69
1, 99914, Note_off_c, 0, 73, 65
1, 99963, Control_c, 0, 64, 91
1, 99964, Note_on_c, 0, 54, 52
1, 99978, Control_c, 0, 64, 74
1, 99989, Note_on_c, 0, 88, 70
1, 99993, Control_c, 0, 64, 64
1, 100008, Control_c, 0, 64, 61
1, 100022, Control_c, 0, 64, 63
1, 100037, Control_c, 0, 64, 66
1, 100052, Control_c, 0, 64, 70
1, 100065, Note_off_c, 0, 54, 64
1, 100068, Control_c, 0, 64, 77
1, 100072, Note_off_c, 0, 88, 63
1, 100083, Control_c, 0, 64, 89
1, 100088, Note_on_c, 0, 84, 55
1, 100094, Note_on_c, 0, 60, 52
1, 100098, Control_c, 0, 64, 107
1, 100112, Control_c, 0, 64, 127
1, 100136, Note_off_c, 0, 84, 56
1, 100145, Note_on_c, 0, 81, 56
1, 100180, Note_off_c, 0, 81, 67
1, 100182, Note_off_c, 0, 60, 60
1, 100189, Note_on_c, 0, 64, 54
1, 100223, Note_on_c, 0, 76, 52
1, 100240, Note_off_c, 0, 64, 59
1, 100260, Note_off_c, 0, 76, 60
1, 100279, Note_on_c, 0, 69, 56
1, 100288, Note_on_c, 0, 80, 69
1, 100331, Note_off_c, 0, 80, 60
1, 100341, Note_off_c, 0, 69, 51
1, 100378, Note_on_c, 0, 81, 68
1, 100410, Note_on_c, 0, 72, 49
1, 100425, Note_off_c, 0, 81, 61
1, 100436, Note_on_c, 0, 82, 75
1, 100441, Note_off_c, 0, 72, 63
1, 100470, Note_on_c, 0, 76, 64
1, 100472, Note_off_c, 0, 82, 59
1, 100511, Note_on_c, 0, 83, 64
1, 100522, Note_off_c, 0, 76, 57
1, 100562, Note_off_c, 0, 83, 62
1, 100564, Note_on_c, 0, 84, 70
1, 100580, Note_on_c, 0, 81, 61
1, 100626, Note_off_c, 0, 84, 62
1, 100636, Note_on_c, 0, 85, 67
1, 100636, Note_off_c, 0, 81, 64
1, 100666, Note_on_c, 0, 76, 49
1, 100688, Note_off_c, 0, 85, 62
1, 100715, Note_on_c, 0, 86, 69
1, 100732, Note_off_c, 0, 76, 56
1, 100752, Note_off_c, 0, 86, 58
1, 100760, Note_on_c, 0, 72, 53
1, 100782, Note_on_c, 0, 87, 65
1, 100788, Note_off_c, 0, 72, 65
1, 100839, Note_off_c, 0, 87, 62
1, 100862, Note_on_c, 0, 69, 63
1, 100863, Note_on_c, 0, 88, 63
1, 100911, Note_off_c, 0, 69, 58
1, 100924, Note_off_c, 0, 88, 51
1, 100933, Note_on_c, 0, 93, 62
1, 100988, Note_on_c, 0, 64, 34
1, 101009, Note_on_c, 0, 92, 65
1, 101020, Note_off_c, 0, 64, 55
1, 101032, Note_on_c, 0, 60, 63
1, 101039, Note_off_c, 0, 93, 56
1, 101069, Note_off_c, 0, 60, 66
1, 101080, Note_off_c, 0, 92, 65
1, 101107, Note_on_c, 0, 91, 68
1, 101161, Note_off_c, 0, 91, 63
1, 101210, Control_c, 0, 64, 93
1, 101225, Control_c, 0, 64, 70
1, 101236, Note_on_c, 0, 42, 63
1, 101240, Control_c, 0, 64, 59
1, 101255, Control_c, 0, 64, 54
1, 101269, Control_c, 0, 64, 58
1, 101282, Note_on_c, 0, 91, 65
1, 101284, Control_c, 0, 64, 61
1, 101299, Control_c, 0, 64, 63
1, 101314, Control_c, 0, 64, 67
1, 101329, Control_c, 0, 64, 73
1, 101343, Note_off_c, 0, 42, 58
1, 101343, Control_c, 0, 64, 81
1, 101345, Note_off_c, 0, 91, 59
1, 101358, Control_c, 0, 64, 90
1, 101370, Note_on_c, 0, 88, 57
1, 101373, Control_c, 0, 64, 102
1, 101388, Control_c, 0, 64, 127
1, 101419, Note_off_c, 0, 88, 59
1, 101447, Note_on_c, 0, 82, 57
1, 101478, Note_on_c, 0, 79, 63
1, 101485, Note_off_c, 0, 82, 65
1, 101519, Note_off_c, 0, 79, 63
1, 101543, Note_on_c, 0, 90, 82
1, 101617, Note_on_c, 0, 88, 70
1, 101630, Note_off_c, 0, 90, 63
1, 101674, Note_on_c, 0, 76, 71
1, 101680, Note_on_c, 0, 70, 63
1, 101680, Note_on_c, 0, 82, 63
1, 101683, Note_on_c, 0, 66, 52
1, 101685, Note_off_c, 0, 88, 64
1, 101705, Note_on_c, 0, 78, 69
1, 101707, Note_off_c, 0, 76, 61
1, 101721, Note_off_c, 0, 66, 60
1, 101727, Note_off_c, 0, 82, 54
1, 101743, Note_off_c, 0, 78, 64
1, 101748, Note_off_c, 0, 70, 45
1, 101813, Note_on_c, 0, 93, 84
1, 101818, Note_on_c, 0, 70, 41
1, 101824, Note_on_c, 0, 76, 63
1, 101832, Note_on_c, 0, 69, 58
1, 101835, Note_on_c, 0, 91, 61
1, 101870, Note_off_c, 0, 76, 55
1, 101879, Note_off_c, 0, 93, 52
1, 101898, Note_off_c, 0, 70, 54
1, 101899, Note_on_c, 0, 88, 69
1, 101917, Note_off_c, 0, 91, 28
1, 101941, Note_on_c, 0, 82, 60
1, 101966, Note_off_c, 0, 88, 65
1, 102006, Note_on_c, 0, 81, 70
1, 102009, Note_off_c, 0, 82, 61
1, 102073, Note_off_c, 0, 81, 59
1, 102111, Note_on_c, 0, 91, 77
1, 102117, Note_on_c, 0, 76, 54
1, 102131, Note_on_c, 0, 70, 44
1, 102132, Note_on_c, 0, 67, 54
1, 102144, Note_off_c, 0, 69, 22
1, 102148, Note_off_c, 0, 76, 68
1, 102174, Note_off_c, 0, 70, 63
1, 102192, Note_on_c, 0, 88, 66
1, 102192, Note_off_c, 0, 67, 60
1, 102207, Note_off_c, 0, 91, 58
1, 102252, Note_on_c, 0, 82, 60
1, 102303, Note_on_c, 0, 79, 73
1, 102309, Note_off_c, 0, 82, 62
1, 102328, Control_c, 0, 64, 108
1, 102338, Note_off_c, 0, 88, 27
1, 102343, Control_c, 0, 64, 75
1, 102357, Control_c, 0, 64, 63
1, 102368, Note_off_c, 0, 79, 63
1, 102372, Control_c, 0, 64, 53
1, 102387, Control_c, 0, 64, 57
1, 102392, Note_on_c, 0, 91, 88
1, 102400, Note_on_c, 0, 54, 69
1, 102402, Control_c, 0, 64, 61
1, 102416, Control_c, 0, 64, 64
1, 102431, Control_c, 0, 64, 69
1, 102446, Control_c, 0, 64, 77
1, 102452, Note_off_c, 0, 54, 60
1, 102462, Control_c, 0, 64, 88
1, 102473, Note_on_c, 0, 88, 70
1, 102477, Control_c, 0, 64, 104
1, 102490, Note_off_c, 0, 91, 64
1, 102492, Control_c, 0, 64, 127
1, 102508, Note_on_c, 0, 82, 66
1, 102547, Note_on_c, 0, 86, 26
1, 102570, Note_on_c, 0, 79, 65
1, 102573, Note_off_c, 0, 82, 65
1, 102589, Note_off_c, 0, 88, 65
1, 102604, Note_off_c, 0, 86, 55
1, 102625, Note_off_c, 0, 79, 63
1, 102646, Note_on_c, 0, 90, 88
1, 102660, Note_on_c, 0, 76, 74
1, 102665, Note_on_c, 0, 66, 57
1, 102672, Note_on_c, 0, 70, 66
1, 102725, Note_on_c, 0, 88, 52
1, 102747, Note_on_c, 0, 89, 47
1, 102753, Note_off_c, 0, 76, 56
1, 102756, Note_off_c, 0, 90, 63
1, 102766, Note_on_c, 0, 82, 64
1, 102771, Note_off_c, 0, 89, 36
1, 102794, Note_off_c, 0, 66, 37
1, 102810, Note_off_c, 0, 70, 54
1, 102813, Note_off_c, 0, 88, 60
1, 102815, Note_on_c, 0, 78, 68
1, 102854, Note_off_c, 0, 82, 63
1, 102860, Note_off_c, 0, 78, 63
1, 102905, Note_on_c, 0, 91, 91
1, 102910, Note_on_c, 0, 76, 73
1, 102920, Note_on_c, 0, 70, 69
1, 102923, Note_on_c, 0, 67, 62
1, 102959, Control_c, 0, 67, 125
1, 102973, Control_c, 0, 67, 120
1, 102985, Note_off_c, 0, 76, 55
1, 102988, Control_c, 0, 67, 115
1, 102991, Note_on_c, 0, 88, 75
1, 103003, Control_c, 0, 67, 109
1, 103017, Note_off_c, 0, 91, 62
1, 103018, Control_c, 0, 67, 102
1, 103026, Note_off_c, 0, 70, 52
1, 103029, Note_on_c, 0, 86, 53
1, 103032, Control_c, 0, 67, 94
1, 103041, Note_on_c, 0, 82, 66
1, 103047, Control_c, 0, 67, 84
1, 103062, Control_c, 0, 67, 77
1, 103072, Note_off_c, 0, 88, 67
1, 103077, Control_c, 0, 67, 71
1, 103092, Control_c, 0, 67, 66
1, 103093, Note_on_c, 0, 79, 79
1, 103106, Control_c, 0, 67, 61
1, 103121, Note_off_c, 0, 82, 64
1, 103121, Control_c, 0, 67, 56
1, 103127, Note_off_c, 0, 86, 50
1, 103136, Control_c, 0, 67, 51
1, 103151, Note_on_c, 0, 76, 66
1, 103151, Control_c, 0, 67, 46
1, 103156, Note_off_c, 0, 79, 64
1, 103159, Note_on_c, 0, 70, 67
1, 103161, Note_on_c, 0, 69, 64
1, 103166, Control_c, 0, 67, 40
1, 103180, Note_off_c, 0, 76, 66
1, 103181, Control_c, 0, 67, 34
1, 103182, Note_on_c, 0, 93, 86
1, 103184, Note_off_c, 0, 67, 55
1, 103188, Note_off_c, 0, 70, 67
1, 103189, Note_off_c, 0, 69, 68
1, 103196, Control_c, 0, 67, 27
1, 103211, Control_c, 0, 67, 22
1, 103226, Control_c, 0, 67, 17
1, 103240, Control_c, 0, 67, 11
1, 103256, Control_c, 0, 67, 9
1, 103259, Note_on_c, 0, 88, 80
1, 103262, Note_off_c, 0, 93, 46
1, 103271, Control_c, 0, 67, 9
1, 103286, Control_c, 0, 67, 8
1, 103301, Control_c, 0, 67, 0
1, 103323, Note_on_c, 0, 82, 64
1, 103331, Note_off_c, 0, 88, 63
1, 103352, Note_off_c, 0, 82, 68
1, 103385, Note_on_c, 0, 81, 45
1, 103413, Note_off_c, 0, 81, 53
1, 103427, Control_c, 0, 64, 94
1, 103441, Control_c, 0, 64, 75
1, 103447, Note_on_c, 0, 55, 58
1, 103456, Control_c, 0, 64, 64
1, 103471, Control_c, 0, 64, 58
1, 103474, Note_on_c, 0, 96, 80
1, 103486, Control_c, 0, 64, 59
1, 103501, Control_c, 0, 64, 60
1, 103516, Control_c, 0, 64, 62
1, 103531, Control_c, 0, 64, 64
1, 103539, Note_off_c, 0, 96, 57
1, 103545, Control_c, 0, 64, 68
1, 103560, Control_c, 0, 64, 72
1, 103567, Note_on_c, 0, 89, 61
1, 103575, Control_c, 0, 64, 78
1, 103576, Note_off_c, 0, 55, 59
1, 103590, Control_c, 0, 64, 84
1, 103600, Note_on_c, 0, 61, 57
1, 103605, Control_c, 0, 64, 94
1, 103619, Control_c, 0, 64, 111
1, 103629, Note_on_c, 0, 85, 61
1, 103634, Control_c, 0, 64, 127
1, 103649, Note_off_c, 0, 89, 63
1, 103671, Note_off_c, 0, 85, 61
1, 103674, Note_on_c, 0, 84, 64
1, 103695, Note_off_c, 0, 61, 61
1, 103716, Note_on_c, 0, 65, 57
1, 103731, Note_on_c, 0, 94, 87
1, 103742, Note_off_c, 0, 84, 55
1, 103791, Note_on_c, 0, 89, 68
1, 103826, Note_off_c, 0, 65, 54
1, 103838, Note_off_c, 0, 94, 62
1, 103845, Note_on_c, 0, 70, 68
1, 103850, Note_on_c, 0, 85, 67
1, 103872, Note_off_c, 0, 89, 64
1, 103891, Note_on_c, 0, 82, 69
1, 103892, Note_off_c, 0, 85, 56
1, 103928, Note_off_c, 0, 70, 59
1, 103942, Note_off_c, 0, 82, 50
1, 103948, Note_on_c, 0, 58, 70
1, 103967, Note_on_c, 0, 87, 88
1, 104037, Note_on_c, 0, 85, 68
1, 104046, Note_off_c, 0, 58, 62
1, 104097, Note_on_c, 0, 80, 66
1, 104112, Note_off_c, 0, 87, 55
1, 104136, Note_on_c, 0, 75, 67
1, 104163, Note_off_c, 0, 85, 61
1, 104193, Note_off_c, 0, 75, 63
1, 104198, Note_off_c, 0, 80, 56
1, 104228, Note_on_c, 0, 88, 82
1, 104237, Note_on_c, 0, 73, 65
1, 104240, Note_on_c, 0, 64, 50
1, 104250, Note_on_c, 0, 68, 50
1, 104294, Note_on_c, 0, 85, 70
1, 104313, Note_off_c, 0, 68, 52
1, 104318, Note_off_c, 0, 64, 61
1, 104336, Note_on_c, 0, 80, 63
1, 104341, Note_off_c, 0, 88, 56
1, 104362, Note_off_c, 0, 73, 53
1, 104401, Note_on_c, 0, 76, 71
1, 104401, Note_off_c, 0, 85, 65
1, 104428, Note_off_c, 0, 80, 63
1, 104452, Note_off_c, 0, 76, 66
1, 104473, Control_c, 0, 64, 108
1, 104487, Control_c, 0, 64, 78
1, 104502, Control_c, 0, 64, 65
1, 104503, Note_on_c, 0, 61, 54
1, 104508, Note_on_c, 0, 91, 74
1, 104517, Control_c, 0, 64, 59
1, 104532, Control_c, 0, 64, 61
1, 104547, Control_c, 0, 64, 64
1, 104561, Control_c, 0, 64, 66
1, 104571, Note_off_c, 0, 91, 62
1, 104576, Control_c, 0, 64, 70
1, 104591, Control_c, 0, 64, 76
1, 104593, Note_on_c, 0, 88, 41
1, 104605, Control_c, 0, 64, 85
1, 104618, Note_off_c, 0, 61, 58
1, 104620, Control_c, 0, 64, 95
1, 104631, Note_on_c, 0, 83, 60
1, 104633, Note_off_c, 0, 88, 45
1, 104634, Note_on_c, 0, 67, 54
1, 104634, Control_c, 0, 64, 106
1, 104649, Control_c, 0, 64, 127
1, 104667, Note_off_c, 0, 83, 65
1, 104691, Note_on_c, 0, 79, 62
1, 104726, Note_off_c, 0, 79, 63
1, 104750, Note_on_c, 0, 71, 57
1, 104773, Note_on_c, 0, 80, 61
1, 104813, Note_off_c, 0, 80, 68
1, 104822, Note_off_c, 0, 67, 34
1, 104842, Note_on_c, 0, 81, 70
1, 104850, Note_on_c, 0, 76, 63
1, 104875, Note_off_c, 0, 76, 64
1, 104880, Note_off_c, 0, 81, 58
1, 104889, Note_off_c, 0, 71, 60
1, 104905, Note_on_c, 0, 82, 68
1, 104937, Note_off_c, 0, 82, 66
1, 104957, Note_on_c, 0, 83, 79
1, 104968, Note_on_c, 0, 67, 53
1, 104995, Note_on_c, 0, 61, 60
1, 105013, Note_on_c, 0, 71, 42
1, 105018, Note_on_c, 0, 84, 81
1, 105018, Note_off_c, 0, 83, 64
1, 105028, Note_off_c, 0, 67, 60
1, 105039, Note_off_c, 0, 71, 54
1, 105071, Note_off_c, 0, 61, 61
1, 105075, Note_on_c, 0, 85, 78
1, 105078, Note_off_c, 0, 84, 65
1, 105123, Note_off_c, 0, 85, 62
1, 105131, Note_on_c, 0, 86, 85
1, 105189, Note_on_c, 0, 87, 84
1, 105201, Note_off_c, 0, 86, 56
1, 105239, Note_off_c, 0, 87, 64
1, 105251, Note_on_c, 0, 68, 77
1, 105251, Note_on_c, 0, 88, 73
1, 105260, Note_on_c, 0, 64, 63
1, 105266, Note_on_c, 0, 58, 59
1, 105296, Note_on_c, 0, 89, 79
1, 105313, Note_off_c, 0, 88, 64
1, 105322, Note_off_c, 0, 58, 56
1, 105334, Note_off_c, 0, 68, 60
1, 105356, Note_on_c, 0, 90, 81
1, 105370, Note_off_c, 0, 64, 0
1, 105396, Note_off_c, 0, 89, 60
1, 105403, Note_on_c, 0, 64, 7
1, 105429, Note_on_c, 0, 91, 80
1, 105437, Note_off_c, 0, 90, 65
1, 105471, Note_off_c, 0, 64, 42
1, 105501, Control_c, 0, 64, 102
1, 105516, Note_on_c, 0, 55, 64
1, 105516, Control_c, 0, 64, 79
1, 105525, Note_on_c, 0, 96, 80
1, 105531, Control_c, 0, 64, 67
1, 105536, Note_off_c, 0, 91, 60
1, 105546, Control_c, 0, 64, 61
1, 105569, Control_c, 0, 64, 62
1, 105583, Control_c, 0, 64, 64
1, 105598, Control_c, 0, 64, 68
1, 105603, Note_off_c, 0, 96, 61
1, 105613, Note_on_c, 0, 89, 69
1, 105613, Control_c, 0, 64, 71
1, 105628, Control_c, 0, 64, 77
1, 105632, Note_on_c, 0, 61, 60
1, 105638, Note_off_c, 0, 55, 56
1, 105642, Control_c, 0, 64, 85
1, 105658, Control_c, 0, 64, 94
1, 105673, Control_c, 0, 64, 107
1, 105678, Note_on_c, 0, 85, 68
1, 105688, Control_c, 0, 64, 127
1, 105701, Note_on_c, 0, 65, 58
1, 105705, Note_off_c, 0, 89, 63
1, 105709, Note_off_c, 0, 61, 62
1, 105724, Note_on_c, 0, 84, 67
1, 105725, Note_off_c, 0, 85, 62
1, 105737, Note_off_c, 0, 65, 64
1, 105760, Note_on_c, 0, 67, 72
1, 105776, Note_on_c, 0, 94, 86
1, 105793, Note_off_c, 0, 67, 63
1, 105796, Note_off_c, 0, 84, 58
1, 105826, Note_on_c, 0, 89, 75
1, 105850, Note_on_c, 0, 73, 80
1, 105870, Note_off_c, 0, 94, 57
1, 105873, Note_on_c, 0, 74, 73
1, 105879, Note_off_c, 0, 73, 61
1, 105889, Note_on_c, 0, 85, 76
1, 105907, Note_off_c, 0, 74, 64
1, 105923, Note_off_c, 0, 89, 62
1, 105931, Note_on_c, 0, 77, 76
1, 105934, Note_on_c, 0, 82, 76
1, 105943, Note_off_c, 0, 85, 65
1, 105960, Note_off_c, 0, 77, 66
1, 105961, Note_off_c, 0, 82, 65
1, 106016, Note_on_c, 0, 70, 84
1, 106023, Note_on_c, 0, 97, 83
1, 106077, Note_on_c, 0, 75, 25
1, 106080, Note_on_c, 0, 92, 75
1, 106105, Note_on_c, 0, 71, 40
1, 106107, Note_on_c, 0, 88, 44
1, 106124, Note_off_c, 0, 75, 38
1, 106136, Note_off_c, 0, 97, 63
1, 106140, Note_off_c, 0, 70, 57
1, 106144, Note_off_c, 0, 71, 63
1, 106163, Note_on_c, 0, 76, 70
1, 106170, Note_off_c, 0, 92, 65
1, 106171, Note_on_c, 0, 85, 75
1, 106202, Note_off_c, 0, 88, 66
1, 106222, Note_off_c, 0, 85, 65
1, 106251, Note_on_c, 0, 96, 88
1, 106269, Note_on_c, 0, 80, 72
1, 106322, Note_on_c, 0, 92, 76
1, 106371, Note_on_c, 0, 88, 74
1, 106373, Note_off_c, 0, 80, 60
1, 106374, Note_off_c, 0, 96, 57
1, 106397, Note_off_c, 0, 92, 66
1, 106418, Note_on_c, 0, 84, 76
1, 106440, Note_off_c, 0, 76, 56
1, 106443, Note_off_c, 0, 88, 65
1, 106482, Note_off_c, 0, 84, 62
1, 106496, Control_c, 0, 64, 88
1, 106511, Note_on_c, 0, 96, 80
1, 106511, Control_c, 0, 64, 70
1, 106515, Note_on_c, 0, 67, 74
1, 106517, Poly_aftertouch_c, 0, 83, 0
1, 106526, Control_c, 0, 64, 61
1, 106541, Control_c, 0, 64, 61
1, 106555, Control_c, 0, 64, 64
1, 106570, Control_c, 0, 64, 66
1, 106576, Note_on_c, 0, 70, 32
1, 106582, Note_off_c, 0, 96, 60
1, 106585, Control_c, 0, 64, 70
1, 106589, Note_on_c, 0, 89, 69
1, 106600, Control_c, 0, 64, 76
1, 106615, Control_c, 0, 64, 86
1, 106629, Note_on_c, 0, 85, 72
1, 106629, Control_c, 0, 64, 101
1, 106644, Control_c, 0, 64, 127
1, 106649, Note_off_c, 0, 70, 37
1, 106675, Note_off_c, 0, 89, 63
1, 106684, Note_on_c, 0, 84, 72
1, 106698, Note_off_c, 0, 85, 63
1, 106715, Note_on_c, 0, 73, 74
1, 106718, Note_off_c, 0, 67, 61
1, 106730, Note_on_c, 0, 94, 84
1, 106753, Note_off_c, 0, 84, 63
1, 106778, Note_on_c, 0, 89, 73
1, 106819, Note_off_c, 0, 73, 64
1, 106831, Note_on_c, 0, 85, 71
1, 106841, Note_off_c, 0, 94, 63
1, 106846, Note_on_c, 0, 77, 86
1, 106867, Note_on_c, 0, 82, 78
1, 106879, Note_off_c, 0, 89, 64
1, 106898, Note_off_c, 0, 85, 64
1, 106912, Note_off_c, 0, 82, 65
1, 106916, Note_off_c, 0, 77, 60
1, 106953, Note_on_c, 0, 96, 92
1, 106956, Note_on_c, 0, 70, 85
1, 107001, Note_off_c, 0, 96, 62
1, 107031, Note_on_c, 0, 88, 76
1, 107076, Note_on_c, 0, 85, 70
1, 107093, Note_on_c, 0, 76, 83
1, 107098, Note_off_c, 0, 70, 61
1, 107112, Note_off_c, 0, 88, 64
1, 107122, Note_on_c, 0, 84, 79
1, 107124, Note_off_c, 0, 85, 64
1, 107157, Note_off_c, 0, 84, 59
1, 107193, Note_on_c, 0, 97, 86
1, 107199, Note_on_c, 0, 80, 80
1, 107242, Note_on_c, 0, 92, 75
1, 107267, Poly_aftertouch_c, 0, 74, 0
1, 107288, Note_on_c, 0, 88, 73
1, 107305, Note_off_c, 0, 97, 64
1, 107311, Note_off_c, 0, 80, 64
1, 107317, Note_off_c, 0, 92, 66
1, 107323, Note_on_c, 0, 82, 82
1, 107339, Note_on_c, 0, 85, 68
1, 107364, Note_off_c, 0, 82, 66
1, 107370, Note_off_c, 0, 88, 59
1, 107372, Note_off_c, 0, 76, 42
1, 107372, Note_off_c, 0, 85, 66
1, 107423, Control_c, 0, 64, 119
1, 107428, Note_on_c, 0, 98, 83
1, 107435, Note_on_c, 0, 69, 75
1, 107438, Control_c, 0, 64, 81
1, 107452, Control_c, 0, 64, 66
1, 107467, Control_c, 0, 64, 56
1, 107482, Control_c, 0, 64, 57
1, 107497, Control_c, 0, 64, 61
1, 107511, Control_c, 0, 64, 64
1, 107515, Note_on_c, 0, 91, 70
1, 107518, Note_off_c, 0, 98, 58
1, 107526, Control_c, 0, 64, 68
1, 107541, Control_c, 0, 64, 75
1, 107556, Control_c, 0, 64, 88
1, 107565, Note_on_c, 0, 87, 66
1, 107570, Control_c, 0, 64, 107
1, 107585, Control_c, 0, 64, 127
1, 107615, Note_on_c, 0, 86, 68
1, 107625, Note_off_c, 0, 91, 64
1, 107635, Note_off_c, 0, 87, 62
1, 107654, Note_on_c, 0, 75, 67
1, 107668, Note_on_c, 0, 96, 85
1, 107682, Note_off_c, 0, 86, 63
1, 107683, Note_off_c, 0, 69, 50
1, 107734, Note_on_c, 0, 91, 77
1, 107765, Note_on_c, 0, 87, 75
1, 107765, Note_off_c, 0, 96, 63
1, 107779, Note_off_c, 0, 75, 58
1, 107784, Note_on_c, 0, 79, 81
1, 107814, Note_on_c, 0, 84, 71
1, 107814, Note_off_c, 0, 91, 65
1, 107827, Note_off_c, 0, 87, 65
1, 107843, Note_off_c, 0, 84, 65
1, 107901, Note_on_c, 0, 99, 90
1, 107905, Note_on_c, 0, 72, 78
1, 107905, Note_off_c, 0, 79, 61
1, 107955, Note_on_c, 0, 94, 74
1, 108005, Note_off_c, 0, 72, 64
1, 108008, Note_on_c, 0, 90, 74
1, 108012, Note_off_c, 0, 99, 65
1, 108014, Note_on_c, 0, 78, 75
1, 108037, Note_on_c, 0, 87, 74
1, 108044, Note_off_c, 0, 94, 63
1, 108079, Note_off_c, 0, 90, 63
1, 108092, Note_off_c, 0, 87, 65
1, 108098, Note_on_c, 0, 82, 80
1, 108113, Note_off_c, 0, 78, 63
1, 108130, Note_on_c, 0, 98, 84
1, 108154, Note_on_c, 0, 100, 32
1, 108155, Note_off_c, 0, 100, 127
1, 108157, Note_off_c, 0, 82, 67
1, 108165, Note_on_c, 0, 94, 69
1, 108200, Note_on_c, 0, 87, 90
1, 108217, Note_on_c, 0, 90, 79
1, 108232, Note_off_c, 0, 98, 62
1, 108241, Note_off_c, 0, 87, 67
1, 108254, Note_on_c, 0, 86, 66
1, 108259, Note_off_c, 0, 94, 64
1, 108293, Note_off_c, 0, 90, 63
1, 108314, Note_off_c, 0, 86, 64
1, 108323, Note_on_c, 0, 69, 92
1, 108332, Note_on_c, 0, 98, 93
1, 108406, Note_on_c, 0, 91, 82
1, 108414, Note_off_c, 0, 98, 59
1, 108432, Note_on_c, 0, 87, 76
1, 108491, Note_on_c, 0, 86, 76
1, 108502, Note_off_c, 0, 91, 63
1, 108506, Note_off_c, 0, 87, 61
1, 108515, Note_on_c, 0, 75, 77
1, 108541, Note_off_c, 0, 69, 61
1, 108564, Note_on_c, 0, 96, 85
1, 108574, Note_off_c, 0, 86, 63
1, 108609, Note_on_c, 0, 91, 73
1, 108652, Note_on_c, 0, 87, 76
1, 108656, Note_off_c, 0, 75, 64
1, 108662, Note_off_c, 0, 96, 58
1, 108673, Note_on_c, 0, 79, 86
1, 108701, Note_off_c, 0, 91, 65
1, 108702, Note_on_c, 0, 84, 82
1, 108721, Note_off_c, 0, 87, 65
1, 108754, Note_off_c, 0, 84, 63
1, 108783, Note_on_c, 0, 98, 93
1, 108790, Note_on_c, 0, 72, 84
1, 108804, Note_off_c, 0, 79, 64
1, 108839, Note_on_c, 0, 94, 81
1, 108879, Note_off_c, 0, 98, 63
1, 108891, Note_on_c, 0, 90, 77
1, 108909, Note_on_c, 0, 78, 85
1, 108921, Note_off_c, 0, 72, 60
1, 108941, Note_off_c, 0, 94, 64
1, 108944, Note_on_c, 0, 86, 64
1, 108959, Note_off_c, 0, 90, 63
1, 108970, Note_on_c, 0, 88, 54
1, 108992, Note_off_c, 0, 88, 59
1, 108998, Note_off_c, 0, 86, 62
1, 109013, Note_on_c, 0, 82, 81
1, 109024, Note_on_c, 0, 99, 87
1, 109054, Note_off_c, 0, 78, 63
1, 109079, Note_on_c, 0, 94, 72
1, 109129, Note_on_c, 0, 84, 76
1, 109132, Note_on_c, 0, 90, 65
1, 109134, Note_off_c, 0, 99, 62
1, 109138, Note_on_c, 0, 77, 34
1, 109140, Note_off_c, 0, 82, 57
1, 109161, Note_on_c, 0, 87, 63
1, 109170, Note_off_c, 0, 94, 62
1, 109174, Note_off_c, 0, 77, 49
1, 109195, Note_off_c, 0, 90, 62
1, 109197, Note_off_c, 0, 87, 65
1, 109203, Note_off_c, 0, 84, 59
1, 109247, Note_on_c, 0, 72, 68
1, 109254, Note_on_c, 0, 101, 79
1, 109303, Note_off_c, 0, 101, 49
1, 109329, Note_off_c, 0, 72, 64
1, 109341, Note_on_c, 0, 78, 61
1, 109353, Note_on_c, 0, 94, 69
1, 109381, Note_on_c, 0, 90, 61
1, 109409, Note_on_c, 0, 89, 72
1, 109414, Note_off_c, 0, 94, 63
1, 109417, Note_off_c, 0, 78, 62
1, 109418, Note_on_c, 0, 82, 55
1, 109436, Note_off_c, 0, 90, 60
1, 109465, Note_off_c, 0, 89, 63
1, 109467, Note_off_c, 0, 82, 59
1, 109475, Note_on_c, 0, 73, 70
1, 109481, Note_on_c, 0, 99, 81
1, 109517, Note_on_c, 0, 95, 63
1, 109558, Note_on_c, 0, 79, 59
1, 109565, Note_on_c, 0, 91, 67
1, 109569, Note_off_c, 0, 99, 64
1, 109588, Note_off_c, 0, 73, 61
1, 109593, Note_off_c, 0, 95, 65
1, 109594, Note_on_c, 0, 87, 70
1, 109626, Note_off_c, 0, 91, 64
1, 109633, Note_on_c, 0, 83, 61
1, 109640, Note_off_c, 0, 79, 62
1, 109642, Note_off_c, 0, 87, 64
1, 109680, Note_on_c, 0, 102, 90
1, 109692, Note_on_c, 0, 74, 76
1, 109704, Note_off_c, 0, 83, 64
1, 109744, Note_on_c, 0, 96, 70
1, 109770, Note_on_c, 0, 80, 74
1, 109774, Note_off_c, 0, 74, 62
1, 109785, Note_on_c, 0, 92, 77
1, 109785, Note_off_c, 0, 102, 65
1, 109815, Note_off_c, 0, 96, 65
1, 109817, Note_on_c, 0, 90, 67
1, 109843, Note_on_c, 0, 84, 66
1, 109843, Note_off_c, 0, 92, 64
1, 109847, Note_off_c, 0, 80, 63
1, 109855, Note_off_c, 0, 90, 64
1, 109891, Note_on_c, 0, 75, 84
1, 109892, Note_on_c, 0, 101, 89
1, 109907, Note_off_c, 0, 84, 63
1, 109935, Note_on_c, 0, 81, 68
1, 109938, Note_on_c, 0, 97, 72
1, 109979, Note_on_c, 0, 93, 77
1, 109982, Note_off_c, 0, 101, 61
1, 109983, Note_off_c, 0, 75, 60
1, 110003, Note_on_c, 0, 85, 74
1, 110008, Note_on_c, 0, 89, 74
1, 110016, Note_off_c, 0, 81, 65
1, 110020, Note_off_c, 0, 97, 64
1, 110025, Note_off_c, 0, 85, 71
1, 110034, Note_off_c, 0, 93, 66
1, 110075, Note_off_c, 0, 89, 63
1, 110094, Note_on_c, 0, 72, 82
1, 110104, Note_on_c, 0, 101, 83
1, 110164, Note_on_c, 0, 94, 73
1, 110169, Note_off_c, 0, 101, 62
1, 110170, Note_on_c, 0, 78, 76
1, 110172, Note_off_c, 0, 72, 61
1, 110229, Note_on_c, 0, 91, 39
1, 110234, Note_on_c, 0, 89, 76
1, 110237, Note_off_c, 0, 94, 63
1, 110245, Note_on_c, 0, 82, 72
1, 110250, Note_off_c, 0, 78, 64
1, 110257, Note_off_c, 0, 91, 47
1, 110295, Note_on_c, 0, 73, 84
1, 110297, Note_on_c, 0, 99, 86
1, 110298, Note_off_c, 0, 89, 60
1, 110310, Note_off_c, 0, 82, 63
1, 110327, Note_on_c, 0, 95, 70
1, 110365, Note_on_c, 0, 94, 52
1, 110366, Note_on_c, 0, 79, 68
1, 110370, Note_on_c, 0, 91, 64
1, 110385, Note_off_c, 0, 99, 65
1, 110388, Note_off_c, 0, 94, 54
1, 110391, Note_off_c, 0, 73, 62
1, 110399, Note_off_c, 0, 95, 64
1, 110409, Note_on_c, 0, 87, 67
1, 110425, Note_on_c, 0, 83, 69
1, 110430, Note_off_c, 0, 91, 64
1, 110435, Note_off_c, 0, 87, 68
1, 110438, Note_off_c, 0, 79, 65
1, 110482, Note_on_c, 0, 74, 78
1, 110483, Note_on_c, 0, 102, 91
1, 110494, Note_off_c, 0, 83, 63
1, 110536, Note_on_c, 0, 96, 58
1, 110548, Note_on_c, 0, 80, 77
1, 110561, Note_off_c, 0, 74, 61
1, 110578, Note_on_c, 0, 92, 77
1, 110584, Note_off_c, 0, 102, 65
1, 110614, Note_on_c, 0, 90, 70
1, 110614, Note_off_c, 0, 96, 66
1, 110617, Note_on_c, 0, 84, 72
1, 110624, Note_off_c, 0, 80, 64
1, 110640, Note_off_c, 0, 90, 67
1, 110641, Note_off_c, 0, 92, 64
1, 110672, Note_on_c, 0, 75, 81
1, 110679, Note_off_c, 0, 84, 63
1, 110687, Note_on_c, 0, 101, 89
1, 110710, Note_on_c, 0, 97, 67
1, 110724, Note_on_c, 0, 81, 69
1, 110737, Note_on_c, 0, 99, 31
1, 110744, Note_on_c, 0, 78, 27
1, 110759, Note_off_c, 0, 75, 62
1, 110764, Note_on_c, 0, 93, 83
1, 110769, Note_off_c, 0, 99, 54
1, 110774, Note_on_c, 0, 85, 81
1, 110780, Note_off_c, 0, 78, 31
1, 110780, Note_off_c, 0, 101, 64
1, 110801, Note_on_c, 0, 89, 76
1, 110804, Note_off_c, 0, 81, 64
1, 110807, Note_off_c, 0, 97, 64
1, 110813, Note_off_c, 0, 85, 65
1, 110826, Note_off_c, 0, 93, 67
1, 110855, Note_off_c, 0, 89, 64
1, 110870, Note_on_c, 0, 72, 89
1, 110879, Note_on_c, 0, 101, 95
1, 110924, Note_on_c, 0, 75, 31
1, 110937, Note_on_c, 0, 78, 79
1, 110943, Note_on_c, 0, 94, 67
1, 110946, Note_off_c, 0, 72, 62
1, 110951, Note_off_c, 0, 75, 33
1, 110953, Note_off_c, 0, 101, 62
1, 110989, Note_on_c, 0, 91, 53
1, 110993, Note_on_c, 0, 89, 75
1, 110996, Note_off_c, 0, 94, 63
1, 111002, Note_on_c, 0, 82, 81
1, 111016, Note_off_c, 0, 91, 64
1, 111016, Note_off_c, 0, 78, 64
1, 111053, Note_on_c, 0, 99, 93
1, 111058, Note_on_c, 0, 73, 91
1, 111070, Note_off_c, 0, 89, 62
1, 111076, Note_on_c, 0, 100, 67
1, 111085, Note_off_c, 0, 82, 63
1, 111092, Note_off_c, 0, 100, 65
1, 111110, Note_on_c, 0, 95, 45
1, 111110, Note_on_c, 0, 96, 44
1, 111116, Note_on_c, 0, 79, 63
1, 111123, Note_on_c, 0, 92, 79
1, 111136, Note_on_c, 0, 94, 60
1, 111140, Note_on_c, 0, 78, 28
1, 111145, Note_off_c, 0, 96, 66
1, 111148, Note_off_c, 0, 73, 62
1, 111148, Note_off_c, 0, 95, 65
1, 111149, Note_on_c, 0, 91, 75
1, 111149, Note_off_c, 0, 92, 65
1, 111150, Note_off_c, 0, 99, 64
1, 111168, Note_off_c, 0, 94, 65
1, 111169, Note_on_c, 0, 87, 72
1, 111175, Note_off_c, 0, 78, 39
1, 111176, Note_on_c, 0, 83, 80
1, 111177, Note_off_c, 0, 91, 65
1, 111192, Note_off_c, 0, 87, 69
1, 111195, Note_off_c, 0, 79, 65
1, 111234, Note_on_c, 0, 74, 83
1, 111235, Note_on_c, 0, 102, 93
1, 111250, Note_off_c, 0, 83, 63
1, 111279, Note_on_c, 0, 96, 60
1, 111291, Note_on_c, 0, 80, 77
1, 111310, Note_off_c, 0, 74, 63
1, 111328, Note_on_c, 0, 92, 71
1, 111333, Note_off_c, 0, 102, 64
1, 111350, Note_on_c, 0, 90, 71
1, 111354, Note_off_c, 0, 96, 65
1, 111356, Note_on_c, 0, 84, 78
1, 111368, Note_off_c, 0, 80, 64
1, 111376, Note_off_c, 0, 92, 62
1, 111387, Note_off_c, 0, 90, 63
1, 111405, Note_on_c, 0, 75, 84
1, 111411, Note_off_c, 0, 84, 64
1, 111412, Note_on_c, 0, 101, 92
1, 111441, Note_on_c, 0, 81, 63
1, 111441, Note_on_c, 0, 91, 14
1, 111448, Note_on_c, 0, 78, 54
1, 111457, Note_on_c, 0, 97, 60
1, 111481, Note_off_c, 0, 78, 65
1, 111481, Note_off_c, 0, 101, 65
1, 111481, Note_off_c, 0, 91, 30
1, 111488, Note_off_c, 0, 75, 61
1, 111493, Note_on_c, 0, 93, 76
1, 111496, Note_on_c, 0, 85, 85
1, 111508, Note_on_c, 0, 89, 75
1, 111526, Note_off_c, 0, 97, 64
1, 111526, Note_off_c, 0, 81, 66
1, 111535, Note_off_c, 0, 85, 68
1, 111538, Note_off_c, 0, 93, 66
1, 111573, Note_off_c, 0, 89, 59
1, 111594, Note_on_c, 0, 72, 93
1, 111594, Note_on_c, 0, 101, 96
1, 111630, Note_on_c, 0, 75, 51
1, 111653, Note_on_c, 0, 94, 82
1, 111656, Note_on_c, 0, 78, 80
1, 111656, Note_off_c, 0, 101, 64
1, 111660, Note_off_c, 0, 75, 64
1, 111694, Note_on_c, 0, 89, 73
1, 111709, Note_off_c, 0, 94, 63
1, 111715, Note_on_c, 0, 91, 41
1, 111717, Note_on_c, 0, 82, 85
1, 111740, Note_off_c, 0, 78, 64
1, 111741, Note_off_c, 0, 91, 48
1, 111761, Note_on_c, 0, 99, 90
1, 111773, Note_off_c, 0, 89, 64
1, 111773, Note_off_c, 0, 72, 0
1, 111787, Note_on_c, 0, 95, 65
1, 111802, Note_on_c, 0, 72, 33
1, 111809, Note_on_c, 0, 79, 66
1, 111828, Note_on_c, 0, 94, 48
1, 111833, Note_on_c, 0, 91, 78
1, 111841, Note_on_c, 0, 77, 46
1, 111847, Note_off_c, 0, 99, 65
1, 111851, Note_off_c, 0, 94, 58
1, 111860, Note_off_c, 0, 95, 64
1, 111866, Note_on_c, 0, 87, 84
1, 111868, Note_off_c, 0, 72, 62
1, 111892, Note_off_c, 0, 91, 64
1, 111892, Note_off_c, 0, 77, 60
1, 111915, Note_off_c, 0, 79, 64
1, 111916, Note_on_c, 0, 83, 69
1, 111919, Note_off_c, 0, 87, 66
1, 111921, Note_off_c, 0, 82, 26
1, 111942, Note_off_c, 0, 83, 70
1, 111947, Note_on_c, 0, 101, 88
1, 111953, Note_on_c, 0, 74, 83
1, 111977, Note_on_c, 0, 97, 65
1, 111996, Note_on_c, 0, 99, 56
1, 112003, Note_on_c, 0, 80, 82
1, 112013, Note_off_c, 0, 97, 55
1, 112014, Note_on_c, 0, 96, 67
1, 112024, Note_on_c, 0, 77, 40
1, 112027, Note_off_c, 0, 74, 63
1, 112041, Note_off_c, 0, 101, 66
1, 112048, Note_on_c, 0, 89, 87
1, 112050, Note_off_c, 0, 99, 61
1, 112052, Note_off_c, 0, 77, 51
1, 112069, Note_off_c, 0, 96, 63
1, 112079, Note_off_c, 0, 80, 64
1, 112080, Note_on_c, 0, 93, 41
1, 112094, Note_on_c, 0, 84, 75
1, 112099, Note_off_c, 0, 89, 65
1, 112113, Note_off_c, 0, 93, 66
1, 112120, Note_on_c, 0, 96, 55
1, 112122, Note_on_c, 0, 102, 83
1, 112140, Note_on_c, 0, 75, 90
1, 112153, Note_on_c, 0, 82, 77
1, 112153, Note_off_c, 0, 96, 67
1, 112179, Note_on_c, 0, 85, 83
1, 112182, Note_off_c, 0, 84, 64
1, 112183, Note_on_c, 0, 90, 91
1, 112199, Note_off_c, 0, 102, 44
1, 112219, Note_off_c, 0, 85, 66
1, 112222, Note_off_c, 0, 75, 63
1, 112225, Note_off_c, 0, 82, 66
1, 112249, Note_off_c, 0, 90, 64
1, 112344, Note_on_c, 0, 94, 96
1, 112344, Note_on_c, 0, 106, 90
1, 112353, Control_c, 0, 64, 79
1, 112363, Note_on_c, 0, 104, 67
1, 112364, Note_off_c, 0, 104, 127
1, 112364, Note_on_c, 0, 58, 100
1, 112369, Control_c, 0, 64, 54
1, 112384, Control_c, 0, 64, 0
1, 112388, Note_off_c, 0, 106, 65
1, 112396, Note_on_c, 0, 57, 71
1, 112399, Control_c, 0, 64, 9
1, 112406, Note_off_c, 0, 94, 61
1, 112414, Control_c, 0, 64, 46
1, 112429, Control_c, 0, 64, 59
1, 112443, Control_c, 0, 64, 67
1, 112458, Control_c, 0, 64, 81
1, 112469, Note_off_c, 0, 57, 58
1, 112473, Control_c, 0, 64, 127
1, 112540, Note_on_c, 0, 61, 76
1, 112542, Note_on_c, 0, 59, 59
1, 112571, Note_off_c, 0, 58, 59
1, 112585, Note_on_c, 0, 63, 69
1, 112591, Note_off_c, 0, 59, 53
1, 112619, Note_off_c, 0, 61, 62
1, 112640, Note_on_c, 0, 66, 83
1, 112645, Note_off_c, 0, 63, 62
1, 112676, Note_on_c, 0, 68, 78
1, 112678, Note_off_c, 0, 66, 62
1, 112713, Note_on_c, 0, 70, 71
1, 112726, Note_off_c, 0, 68, 63
1, 112752, Note_on_c, 0, 73, 65
1, 112755, Note_on_c, 0, 78, 69
1, 112788, Note_off_c, 0, 70, 66
1, 112797, Note_on_c, 0, 75, 46
1, 112803, Note_off_c, 0, 73, 66
1, 112826, Note_off_c, 0, 78, 63
1, 112830, Note_off_c, 0, 75, 63
1, 112831, Note_on_c, 0, 68, 92
1, 112869, Note_on_c, 0, 70, 77
1, 112900, Note_on_c, 0, 73, 77
1, 112925, Note_on_c, 0, 75, 67
1, 112937, Note_off_c, 0, 70, 67
1, 112955, Note_off_c, 0, 68, 60
1, 112963, Note_off_c, 0, 73, 66
1, 112984, Note_on_c, 0, 78, 87
1, 112985, Note_on_c, 0, 80, 76
1, 113011, Note_off_c, 0, 75, 61
1, 113029, Note_on_c, 0, 82, 77
1, 113033, Note_off_c, 0, 78, 64
1, 113059, Note_on_c, 0, 85, 77
1, 113060, Note_off_c, 0, 80, 64
1, 113095, Note_on_c, 0, 87, 60
1, 113097, Note_on_c, 0, 90, 80
1, 113104, Note_off_c, 0, 82, 67
1, 113122, Note_off_c, 0, 85, 63
1, 113148, Note_off_c, 0, 87, 62
1, 113150, Note_off_c, 0, 90, 64
1, 113161, Note_on_c, 0, 85, 87
1, 113175, Note_on_c, 0, 82, 75
1, 113178, Note_on_c, 0, 80, 45
1, 113179, Note_off_c, 0, 80, 127
1, 113181, Note_on_c, 0, 79, 64
1, 113204, Poly_aftertouch_c, 0, 80, 0
1, 113207, Note_on_c, 0, 84, 27
1, 113208, Note_off_c, 0, 84, 127
1, 113211, Note_off_c, 0, 79, 66
1, 113222, Note_off_c, 0, 85, 64
1, 113228, Note_off_c, 0, 82, 63
1, 113241, Note_on_c, 0, 87, 84
1, 113242, Note_on_c, 0, 94, 82
1, 113252, Note_on_c, 0, 90, 67
1, 113252, Note_on_c, 0, 92, 66
1, 113271, Note_off_c, 0, 87, 59
1, 113275, Note_off_c, 0, 94, 62
1, 113278, Note_off_c, 0, 90, 67
1, 113278, Note_off_c, 0, 92, 65
1, 113294, Note_on_c, 0, 80, 74
1, 113295, Note_on_c, 0, 85, 88
1, 113308, Note_on_c, 0, 82, 69
1, 113334, Note_off_c, 0, 82, 68
1, 113342, Note_off_c, 0, 85, 64
1, 113350, Note_on_c, 0, 94, 88
1, 113350, Note_off_c, 0, 80, 64
1, 113351, Note_on_c, 0, 87, 85
1, 113351, Note_on_c, 0, 92, 71
1, 113354, Note_on_c, 0, 90, 72
1, 113379, Note_off_c, 0, 92, 68
1, 113380, Note_off_c, 0, 90, 66
1, 113390, Note_off_c, 0, 87, 60
1, 113396, Note_off_c, 0, 94, 63
1, 113411, Note_on_c, 0, 85, 89
1, 113417, Note_on_c, 0, 80, 74
1, 113419, Note_on_c, 0, 82, 78
1, 113449, Note_off_c, 0, 82, 64
1, 113455, Note_on_c, 0, 94, 80
1, 113459, Note_off_c, 0, 85, 66
1, 113460, Note_on_c, 0, 92, 76
1, 113461, Note_on_c, 0, 87, 81
1, 113461, Note_on_c, 0, 90, 82
1, 113469, Note_off_c, 0, 80, 62
1, 113484, Note_off_c, 0, 92, 69
1, 113485, Note_off_c, 0, 90, 66
1, 113494, Note_off_c, 0, 87, 59
1, 113500, Note_off_c, 0, 94, 62
1, 113514, Note_on_c, 0, 85, 86
1, 113517, Note_on_c, 0, 80, 70
1, 113526, Note_on_c, 0, 82, 79
1, 113548, Note_off_c, 0, 82, 69
1, 113557, Note_on_c, 0, 94, 75
1, 113557, Note_on_c, 0, 92, 87
1, 113560, Note_on_c, 0, 90, 84
1, 113560, Note_off_c, 0, 85, 66
1, 113563, Note_on_c, 0, 87, 82
1, 113567, Note_off_c, 0, 80, 63
1, 113589, Note_off_c, 0, 87, 61
1, 113591, Note_off_c, 0, 92, 64
1, 113595, Note_off_c, 0, 90, 61
1, 113599, Note_off_c, 0, 94, 62
1, 113621, Note_on_c, 0, 85, 94
1, 113624, Note_on_c, 0, 80, 84
1, 113626, Note_on_c, 0, 82, 86
1, 113655, Note_on_c, 0, 94, 81
1, 113661, Note_on_c, 0, 87, 82
1, 113661, Note_on_c, 0, 90, 73
1, 113666, Note_on_c, 0, 92, 81
1, 113666, Note_off_c, 0, 85, 66
1, 113667, Note_off_c, 0, 82, 61
1, 113672, Note_off_c, 0, 80, 63
1, 113686, Note_off_c, 0, 90, 66
1, 113689, Note_off_c, 0, 92, 70
1, 113692, Note_off_c, 0, 87, 59
1, 113701, Note_off_c, 0, 94, 64
1, 113723, Note_on_c, 0, 85, 94
1, 113730, Note_on_c, 0, 80, 81
1, 113733, Note_on_c, 0, 82, 82
1, 113756, Note_on_c, 0, 94, 86
1, 113760, Note_on_c, 0, 87, 89
1, 113760, Note_off_c, 0, 82, 66
1, 113762, Note_on_c, 0, 92, 81
1, 113763, Note_on_c, 0, 90, 83
1, 113769, Note_off_c, 0, 85, 65
1, 113777, Note_off_c, 0, 80, 63
1, 113801, Note_off_c, 0, 92, 64
1, 113801, Note_off_c, 0, 90, 61
1, 113808, Note_off_c, 0, 87, 61
1, 113813, Note_off_c, 0, 94, 64
1, 113834, Note_on_c, 0, 85, 93
1, 113840, Note_on_c, 0, 80, 78
1, 113843, Note_on_c, 0, 82, 86
1, 113866, Note_on_c, 0, 94, 92
1, 113873, Note_on_c, 0, 87, 89
1, 113873, Note_off_c, 0, 82, 61
1, 113876, Note_on_c, 0, 90, 84
1, 113876, Note_on_c, 0, 92, 84
1, 113881, Note_off_c, 0, 85, 66
1, 113888, Note_off_c, 0, 80, 62
1, 113902, Note_off_c, 0, 92, 66
1, 113905, Note_off_c, 0, 90, 60
1, 113909, Note_off_c, 0, 87, 60
1, 113919, Note_off_c, 0, 94, 64
1, 113935, Note_on_c, 0, 80, 78
1, 113936, Note_on_c, 0, 85, 94
1, 113940, Note_on_c, 0, 82, 88
1, 113958, Note_on_c, 0, 94, 90
1, 113962, Note_on_c, 0, 87, 94
1, 113967, Note_on_c, 0, 90, 79
1, 113971, Note_on_c, 0, 92, 83
1, 113983, Note_off_c, 0, 82, 61
1, 113986, Note_off_c, 0, 85, 66
1, 113992, Note_off_c, 0, 90, 64
1, 113993, Note_off_c, 0, 80, 65
1, 113993, Note_off_c, 0, 92, 70
1, 114052, Note_on_c, 0, 90, 60
1, 114054, Note_on_c, 0, 92, 78
1, 114054, Note_off_c, 0, 87, 63
1, 114072, Note_on_c, 0, 88, 38
1, 114094, Note_on_c, 0, 93, 42
1, 114096, Note_off_c, 0, 88, 56
1, 114114, Note_on_c, 0, 87, 91
1, 114131, Note_off_c, 0, 90, 58
1, 114133, Note_off_c, 0, 94, 61
1, 114160, Note_off_c, 0, 87, 61
1, 114171, Note_on_c, 0, 90, 44
1, 114172, Note_off_c, 0, 93, 62
1, 114183, Note_off_c, 0, 92, 67
1, 114187, Note_on_c, 0, 85, 63
1, 114188, Note_off_c, 0, 85, 127
1, 114213, Note_off_c, 0, 90, 66
1, 114215, Note_on_c, 0, 87, 77
1, 114252, Note_on_c, 0, 85, 92
1, 114254, Note_off_c, 0, 87, 66
1, 114267, Note_off_c, 0, 85, 75
1, 114273, Note_on_c, 0, 82, 23
1, 114300, Note_on_c, 0, 80, 87
1, 114303, Note_on_c, 0, 84, 29
1, 114304, Note_off_c, 0, 84, 127
1, 114314, Note_off_c, 0, 82, 67
1, 114326, Note_on_c, 0, 78, 91
1, 114335, Note_off_c, 0, 80, 65
1, 114343, Note_on_c, 0, 75, 16
1, 114347, Note_off_c, 0, 78, 71
1, 114371, Note_on_c, 0, 77, 48
1, 114372, Note_off_c, 0, 77, 127
1, 114376, Note_on_c, 0, 73, 91
1, 114387, Note_off_c, 0, 75, 63
1, 114400, Note_off_c, 0, 73, 69
1, 114405, Note_on_c, 0, 70, 87
1, 114428, Note_on_c, 0, 68, 92
1, 114428, Note_off_c, 0, 70, 69
1, 114434, Note_on_c, 0, 72, 27
1, 114435, Note_off_c, 0, 72, 127
1, 114448, Note_off_c, 0, 68, 71
1, 114448, Poly_aftertouch_c, 0, 76, 0
1, 114451, Note_on_c, 0, 66, 91
1, 114467, Note_off_c, 0, 66, 74
1, 114472, Poly_aftertouch_c, 0, 72, 0
1, 114479, Note_on_c, 0, 63, 93
1, 114498, Note_off_c, 0, 63, 73
1, 114502, Note_on_c, 0, 61, 97
1, 114506, Note_on_c, 0, 65, 20
1, 114507, Note_off_c, 0, 65, 127
1, 114517, Note_off_c, 0, 61, 73
1, 114527, Note_on_c, 0, 58, 97
1, 114552, Note_off_c, 0, 58, 73
1, 114555, Note_on_c, 0, 56, 94
1, 114555, Poly_aftertouch_c, 0, 65, 0
1, 114561, Note_on_c, 0, 60, 25
1, 114562, Note_off_c, 0, 60, 127
1, 114572, Note_on_c, 0, 54, 95
1, 114572, Note_off_c, 0, 56, 74
1, 114585, Note_on_c, 0, 61, 30
1, 114589, Note_off_c, 0, 54, 70
1, 114598, Note_on_c, 0, 51, 97
1, 114600, Poly_aftertouch_c, 0, 60, 0
1, 114611, Note_off_c, 0, 61, 56
1, 114618, Note_off_c, 0, 51, 73
1, 114621, Note_on_c, 0, 53, 32
1, 114622, Note_off_c, 0, 53, 127
1, 114624, Note_on_c, 0, 49, 90
1, 114639, Note_on_c, 0, 54, 45
1, 114642, Note_off_c, 0, 49, 69
1, 114654, Note_off_c, 0, 54, 74
1, 114658, Poly_aftertouch_c, 0, 53, 0
1, 114674, Poly_aftertouch_c, 0, 56, 127
1, 114683, Poly_aftertouch_c, 0, 58, 0
1, 114719, Note_on_c, 0, 49, 9
1, 114724, Poly_aftertouch_c, 0, 56, 0
1, 114725, Note_on_c, 0, 42, 95
1, 114729, Note_on_c, 0, 44, 86
1, 114743, Note_on_c, 0, 43, 82
1, 114743, Note_on_c, 0, 54, 48
1, 114757, Poly_aftertouch_c, 0, 46, 0
1, 114764, Note_on_c, 0, 41, 50
1, 114765, Note_off_c, 0, 49, 0
1, 114767, Note_off_c, 0, 43, 0
1, 114767, Note_on_c, 0, 43, 36
1, 114774, Note_on_c, 0, 49, 61
1, 114774, Note_off_c, 0, 44, 58
1, 114774, Note_off_c, 0, 54, 60
1, 114776, Note_on_c, 0, 39, 15
1, 114795, Note_off_c, 0, 41, 54
1, 114797, Note_off_c, 0, 42, 62
1, 114801, Poly_aftertouch_c, 0, 56, 127
1, 114820, Note_off_c, 0, 43, 63
1, 114830, Note_off_c, 0, 39, 41
1, 114833, Note_on_c, 0, 48, 57
1, 114856, Note_off_c, 0, 49, 53
1, 114865, Note_off_c, 0, 48, 60
1, 114865, Poly_aftertouch_c, 0, 56, 0
1, 114868, Note_on_c, 0, 50, 56
1, 114876, Poly_aftertouch_c, 0, 37, 127
1, 114880, Note_on_c, 0, 51, 17
1, 114905, Note_off_c, 0, 50, 62
1, 114909, Note_on_c, 0, 53, 66
1, 114927, Note_off_c, 0, 51, 49
1, 114940, Poly_aftertouch_c, 0, 37, 0
1, 114964, Note_on_c, 0, 58, 77
1, 114969, Note_off_c, 0, 53, 63
1, 114983, Note_on_c, 0, 32, 96
1, 114998, Note_on_c, 0, 30, 72
1, 115021, Note_off_c, 0, 32, 58
1, 115032, Note_off_c, 0, 30, 66
1, 115053, Note_on_c, 0, 53, 60
1, 115067, Note_off_c, 0, 58, 63
1, 115085, Note_on_c, 0, 51, 69
1, 115126, Note_off_c, 0, 53, 57
1, 115146, Note_on_c, 0, 49, 78
1, 115211, Note_off_c, 0, 49, 58
1, 115235, Note_off_c, 0, 51, 32
1, 115238, Note_on_c, 0, 22, 98
1, 115339, Note_on_c, 0, 49, 58
1, 115385, Note_off_c, 0, 22, 38
1, 115418, Note_on_c, 0, 51, 69
1, 115428, Note_off_c, 0, 49, 58
1, 115489, Note_on_c, 0, 54, 65
1, 115502, Note_off_c, 0, 51, 63
1, 115563, Note_off_c, 0, 54, 65
1, 115569, Note_on_c, 0, 58, 66
1, 115645, Note_off_c, 0, 58, 61
1, 115650, Note_on_c, 0, 54, 60
1, 115706, Note_on_c, 0, 51, 55
1, 115709, Note_off_c, 0, 54, 62
1, 115746, Note_off_c, 0, 51, 62
1, 115762, Note_on_c, 0, 49, 65
1, 115793, Note_off_c, 0, 49, 66
1, 115859, Note_on_c, 0, 44, 82
1, 115967, Poly_aftertouch_c, 0, 46, 127
1, 115980, Note_on_c, 0, 49, 65
1, 115996, Poly_aftertouch_c, 0, 46, 0
1, 116014, Note_off_c, 0, 44, 60
1, 116055, Note_on_c, 0, 51, 61
1, 116093, Note_off_c, 0, 49, 61
1, 116109, Note_on_c, 0, 54, 60
1, 116109, Note_off_c, 0, 51, 63
1, 116152, Note_off_c, 0, 54, 64
1, 116168, Note_on_c, 0, 58, 71
1, 116226, Note_off_c, 0, 58, 62
1, 116234, Note_on_c, 0, 54, 56
1, 116272, Note_off_c, 0, 54, 52
1, 116278, Note_on_c, 0, 51, 72
1, 116340, Note_on_c, 0, 49, 54
1, 116362, Note_off_c, 0, 51, 64
1, 116366, Note_on_c, 0, 44, 77
1, 116374, Note_off_c, 0, 49, 64
1, 116445, Note_on_c, 0, 49, 70
1, 116480, Note_off_c, 0, 44, 60
1, 116496, Note_on_c, 0, 51, 68
1, 116536, Note_off_c, 0, 49, 62
1, 116551, Note_on_c, 0, 54, 74
1, 116558, Note_off_c, 0, 51, 64
1, 116615, Note_off_c, 0, 54, 56
1, 116625, Note_on_c, 0, 58, 76
1, 116678, Note_on_c, 0, 54, 46
1, 116700, Note_off_c, 0, 58, 62
1, 116741, Note_on_c, 0, 51, 68
1, 116766, Note_off_c, 0, 54, 62
1, 116816, Note_on_c, 0, 49, 49
1, 116833, Note_off_c, 0, 51, 62
1, 116866, Note_off_c, 0, 49, 61
1, 116884, Note_on_c, 0, 44, 55
1, 116961, Note_on_c, 0, 49, 49
1, 116966, Note_off_c, 0, 44, 60
1, 117021, Note_off_c, 0, 49, 61
1, 117029, Note_on_c, 0, 51, 51
1, 117065, Note_off_c, 0, 51, 65
1, 117081, Note_on_c, 0, 54, 58
1, 117118, Note_off_c, 0, 54, 64
1, 117158, Note_on_c, 0, 58, 59
1, 117220, Note_off_c, 0, 58, 59
1, 117234, Note_on_c, 0, 54, 53
1, 117294, Note_off_c, 0, 54, 56
1, 117298, Note_on_c, 0, 51, 56
1, 117354, Note_off_c, 0, 51, 56
1, 117380, Note_on_c, 0, 49, 41
1, 117429, Note_off_c, 0, 49, 61
1, 117469, Note_on_c, 0, 44, 43
1, 117543, Note_off_c, 0, 44, 53
1, 117562, Note_on_c, 0, 49, 39
1, 117620, Note_off_c, 0, 49, 56
1, 117663, Note_on_c, 0, 51, 30
1, 117706, Note_off_c, 0, 51, 53
1, 117751, Note_on_c, 0, 54, 38
1, 117794, Note_off_c, 0, 54, 60
1, 117845, Note_on_c, 0, 58, 41
1, 117897, Note_off_c, 0, 58, 57
1, 117923, Note_on_c, 0, 54, 39
1, 118008, Note_off_c, 0, 54, 54
1, 118043, Note_on_c, 0, 51, 32
1, 118115, Note_off_c, 0, 51, 56
1, 118198, Note_on_c, 0, 49, 15
1, 118362, Note_off_c, 0, 49, 29
1, 118398, Note_on_c, 0, 44, 10
1, 118511, Note_on_c, 0, 63, 43
1, 118515, Note_on_c, 0, 58, 35
1, 118669, Note_off_c, 0, 44, 38
1, 118700, Note_on_c, 0, 49, 24
1, 118776, Note_off_c, 0, 58, 29
1, 118830, Note_off_c, 0, 49, 36
1, 118836, Note_on_c, 0, 54, 33
1, 118886, Note_off_c, 0, 54, 58
1, 118890, Note_off_c, 0, 63, 32
1, 118918, Note_on_c, 0, 58, 44
1, 118986, Note_off_c, 0, 58, 46
1, 119012, Note_on_c, 0, 60, 45
1, 119024, Note_on_c, 0, 65, 46
1, 119060, Note_on_c, 0, 58, 18
1, 119104, Note_off_c, 0, 58, 37
1, 119122, Note_off_c, 0, 60, 51
1, 119132, Note_on_c, 0, 57, 38
1, 119173, Note_off_c, 0, 57, 58
1, 119206, Note_on_c, 0, 54, 37
1, 119241, Note_off_c, 0, 54, 52
1, 119254, Note_on_c, 0, 50, 46
1, 119307, Note_off_c, 0, 50, 60
1, 119329, Note_off_c, 0, 65, 31
1, 119346, Note_on_c, 0, 44, 43
1, 119350, Note_on_c, 0, 62, 41
1, 119357, Note_on_c, 0, 57, 27
1, 119398, Note_off_c, 0, 44, 57
1, 119449, Note_off_c, 0, 57, 56
1, 119478, Poly_aftertouch_c, 0, 50, 127
1, 119505, Note_on_c, 0, 54, 11
1, 119506, Note_off_c, 0, 62, 59
1, 119518, Poly_aftertouch_c, 0, 50, 0
1, 119548, Note_off_c, 0, 54, 53
1, 119557, Note_on_c, 0, 57, 40
1, 119599, Note_off_c, 0, 57, 58
1, 119648, Note_on_c, 0, 69, 58
1, 119661, Note_on_c, 0, 66, 42
1, 119707, Note_on_c, 0, 57, 39
1, 119709, Poly_aftertouch_c, 0, 60, 0
1, 119715, Note_off_c, 0, 66, 54
1, 119734, Note_off_c, 0, 57, 56
1, 119734, Note_off_c, 0, 69, 56
1, 119810, Note_on_c, 0, 62, 51
1, 119839, Note_on_c, 0, 49, 53
1, 119904, Note_off_c, 0, 62, 60
1, 119925, Note_off_c, 0, 49, 62
1, 119963, Note_on_c, 0, 63, 49
1, 119966, Note_on_c, 0, 58, 43
1, 119974, Note_on_c, 0, 44, 44
1, 120030, Note_off_c, 0, 44, 54
1, 120147, Poly_aftertouch_c, 0, 49, 0
1, 120150, Note_off_c, 0, 58, 0
1, 120171, Note_on_c, 0, 58, 29
1, 120255, Note_on_c, 0, 60, 45
1, 120265, Note_off_c, 0, 58, 62
1, 120269, Note_on_c, 0, 65, 48
1, 120271, Note_off_c, 0, 63, 59
1, 120326, Note_off_c, 0, 60, 58
1, 120350, Note_on_c, 0, 57, 33
1, 120392, Note_off_c, 0, 57, 50
1, 120406, Note_on_c, 0, 54, 33
1, 120437, Note_off_c, 0, 54, 55
1, 120461, Note_on_c, 0, 50, 40
1, 120519, Note_off_c, 0, 50, 58
1, 120572, Note_on_c, 0, 44, 36
1, 120583, Note_on_c, 0, 57, 33
1, 120604, Note_on_c, 0, 62, 37
1, 120625, Note_off_c, 0, 44, 56
1, 120631, Note_off_c, 0, 65, 35
1, 120660, Note_off_c, 0, 57, 54
1, 120702, Note_off_c, 0, 62, 51
1, 120711, Poly_aftertouch_c, 0, 50, 127
1, 120729, Note_on_c, 0, 54, 31
1, 120747, Poly_aftertouch_c, 0, 50, 0
1, 120764, Note_off_c, 0, 54, 52
1, 120800, Note_on_c, 0, 57, 39
1, 120845, Note_off_c, 0, 57, 57
1, 120899, Note_on_c, 0, 60, 15
1, 120942, Note_on_c, 0, 57, 47
1, 120955, Note_off_c, 0, 60, 35
1, 120981, Note_off_c, 0, 57, 61
1, 121110, Note_on_c, 0, 50, 52
1, 121172, Note_off_c, 0, 50, 62
1, 121241, Note_on_c, 0, 44, 36
1, 121271, Note_on_c, 0, 75, 58
1, 121289, Note_on_c, 0, 63, 47
1, 121302, Note_on_c, 0, 70, 39
1, 121337, Note_off_c, 0, 44, 45
1, 121347, Note_on_c, 0, 49, 23
1, 121371, Note_off_c, 0, 70, 56
1, 121388, Note_off_c, 0, 63, 55
1, 121390, Note_off_c, 0, 49, 51
1, 121497, Note_on_c, 0, 58, 46
1, 121531, Note_off_c, 0, 58, 65
1, 121571, Note_off_c, 0, 75, 54
1, 121581, Note_on_c, 0, 77, 69
1, 121606, Note_on_c, 0, 65, 45
1, 121610, Note_on_c, 0, 60, 24
1, 121619, Note_on_c, 0, 72, 21
1, 121644, Note_off_c, 0, 77, 60
1, 121654, Note_off_c, 0, 60, 41
1, 121660, Note_off_c, 0, 72, 46
1, 121661, Note_on_c, 0, 57, 49
1, 121671, Note_off_c, 0, 65, 59
1, 121698, Note_off_c, 0, 57, 64
1, 121826, Note_on_c, 0, 50, 37
1, 121863, Note_off_c, 0, 50, 57
1, 121888, Note_on_c, 0, 74, 51
1, 121894, Note_on_c, 0, 69, 49
1, 121905, Note_on_c, 0, 44, 41
1, 121915, Note_on_c, 0, 62, 21
1, 121957, Note_off_c, 0, 69, 61
1, 121958, Note_off_c, 0, 62, 44
1, 121977, Note_off_c, 0, 44, 53
1, 121983, Note_on_c, 0, 50, 34
1, 121990, Note_off_c, 0, 74, 57
1, 122016, Note_off_c, 0, 50, 56
1, 122089, Poly_aftertouch_c, 0, 54, 127
1, 122104, Note_on_c, 0, 57, 45
1, 122125, Poly_aftertouch_c, 0, 54, 0
1, 122148, Note_off_c, 0, 57, 52
1, 122208, Note_on_c, 0, 78, 55
1, 122213, Note_on_c, 0, 81, 51
1, 122259, Note_off_c, 0, 81, 56
1, 122261, Note_on_c, 0, 57, 43
1, 122269, Poly_aftertouch_c, 0, 60, 0
1, 122270, Note_off_c, 0, 78, 52
1, 122294, Note_off_c, 0, 57, 62
1, 122358, Note_on_c, 0, 69, 50
1, 122359, Note_on_c, 0, 74, 43
1, 122383, Note_off_c, 0, 69, 63
1, 122383, Note_off_c, 0, 74, 55
1, 122414, Note_on_c, 0, 50, 45
1, 122459, Note_off_c, 0, 50, 62
1, 122513, Note_on_c, 0, 44, 41
1, 122520, Note_on_c, 0, 75, 64
1, 122530, Note_on_c, 0, 63, 56
1, 122545, Note_on_c, 0, 70, 47
1, 122570, Note_off_c, 0, 44, 54
1, 122586, Note_on_c, 0, 49, 32
1, 122604, Note_off_c, 0, 70, 57
1, 122609, Note_off_c, 0, 63, 56
1, 122622, Note_off_c, 0, 49, 50
1, 122657, Note_on_c, 0, 54, 22
1, 122704, Note_off_c, 0, 54, 53
1, 122709, Note_on_c, 0, 58, 49
1, 122735, Note_off_c, 0, 58, 59
1, 122771, Note_off_c, 0, 75, 60
1, 122803, Note_on_c, 0, 60, 41
1, 122833, Note_on_c, 0, 77, 60
1, 122833, Note_off_c, 0, 60, 50
1, 122842, Note_on_c, 0, 72, 47
1, 122848, Note_on_c, 0, 65, 49
1, 122861, Note_on_c, 0, 57, 51
1, 122883, Note_off_c, 0, 72, 64
1, 122899, Note_off_c, 0, 57, 63
1, 122901, Note_off_c, 0, 77, 59
1, 122928, Note_off_c, 0, 65, 61
1, 123024, Poly_aftertouch_c, 0, 54, 127
1, 123029, Note_on_c, 0, 50, 39
1, 123048, Poly_aftertouch_c, 0, 54, 0
1, 123074, Note_off_c, 0, 50, 60
1, 123113, Note_on_c, 0, 44, 42
1, 123171, Note_on_c, 0, 74, 47
1, 123179, Note_on_c, 0, 62, 45
1, 123183, Note_off_c, 0, 44, 55
1, 123192, Note_on_c, 0, 69, 38
1, 123209, Note_on_c, 0, 50, 30
1, 123247, Note_off_c, 0, 50, 53
1, 123263, Note_on_c, 0, 54, 38
1, 123295, Note_off_c, 0, 54, 53
1, 123322, Note_on_c, 0, 57, 51
1, 123322, Note_off_c, 0, 62, 34
1, 123367, Note_off_c, 0, 57, 54
1, 123421, Note_off_c, 0, 69, 41
1, 123448, Note_off_c, 0, 74, 25
1, 123486, Note_on_c, 0, 57, 42
1, 123488, Poly_aftertouch_c, 0, 60, 0
1, 123508, Note_on_c, 0, 62, 45
1, 123523, Note_off_c, 0, 57, 61
1, 123546, Note_on_c, 0, 69, 47
1, 123590, Note_off_c, 0, 69, 59
1, 123619, Note_off_c, 0, 62, 43
1, 123689, Note_on_c, 0, 50, 36
1, 123733, Note_off_c, 0, 50, 63
1, 123774, Note_on_c, 0, 44, 42
1, 123825, Note_off_c, 0, 44, 56
1, 123896, Note_on_c, 0, 54, 39
1, 123933, Note_off_c, 0, 54, 51
1, 123954, Note_on_c, 0, 57, 48
1, 124000, Note_off_c, 0, 57, 53
1, 124055, Note_on_c, 0, 60, 38
1, 124091, Note_off_c, 0, 60, 46
1, 124117, Note_on_c, 0, 57, 49
1, 124147, Note_off_c, 0, 57, 63
1, 124251, Poly_aftertouch_c, 0, 54, 127
1, 124272, Note_on_c, 0, 50, 42
1, 124302, Poly_aftertouch_c, 0, 54, 0
1, 124348, Note_on_c, 0, 48, 46
1, 124351, Note_on_c, 0, 44, 39
1, 124383, Note_off_c, 0, 48, 51
1, 124401, Note_off_c, 0, 44, 62
1, 124425, Note_on_c, 0, 54, 41
1, 124480, Note_off_c, 0, 54, 61
1, 124505, Note_on_c, 0, 57, 42
1, 124601, Note_off_c, 0, 57, 37
1, 124607, Note_on_c, 0, 45, 43
1, 124628, Note_off_c, 0, 50, 38
1, 124640, Note_off_c, 0, 45, 53
1, 124681, Note_on_c, 0, 66, 30
1, 124711, Poly_aftertouch_c, 0, 60, 0
1, 124719, Note_off_c, 0, 66, 50
1, 124722, Note_on_c, 0, 69, 60
1, 124752, Note_off_c, 0, 69, 66
1, 124753, Note_on_c, 0, 74, 62
1, 124774, Note_off_c, 0, 74, 64
1, 124850, Note_on_c, 0, 60, 70
1, 124854, Note_on_c, 0, 72, 81
1, 124890, Note_on_c, 0, 68, 58
1, 124935, Note_off_c, 0, 68, 61
1, 124938, Note_on_c, 0, 74, 68
1, 124980, Note_off_c, 0, 72, 59
1, 124996, Note_on_c, 0, 78, 62
1, 125012, Note_off_c, 0, 60, 64
1, 125015, Note_off_c, 0, 74, 60
1, 125016, Note_on_c, 0, 76, 37
1, 125036, Note_on_c, 0, 80, 75
1, 125051, Note_off_c, 0, 76, 46
1, 125067, Note_off_c, 0, 78, 64
1, 125096, Note_on_c, 0, 69, 83
1, 125097, Note_on_c, 0, 57, 75
1, 125099, Note_off_c, 0, 80, 64
1, 125123, Note_on_c, 0, 74, 68
1, 125125, Note_off_c, 0, 57, 68
1, 125128, Note_off_c, 0, 69, 62
1, 125182, Note_off_c, 0, 74, 60
1, 125194, Note_on_c, 0, 78, 28
1, 125198, Note_on_c, 0, 81, 72
1, 125203, Note_on_c, 0, 79, 52
1, 125223, Note_off_c, 0, 79, 63
1, 125228, Note_off_c, 0, 78, 35
1, 125240, Note_on_c, 0, 86, 81
1, 125240, Note_off_c, 0, 81, 67
1, 125260, Note_off_c, 0, 86, 72
1, 125312, Note_on_c, 0, 72, 76
1, 125321, Note_on_c, 0, 84, 95
1, 125334, Note_on_c, 0, 82, 70
1, 125340, Note_on_c, 0, 80, 73
1, 125365, Note_off_c, 0, 80, 69
1, 125368, Note_on_c, 0, 75, 26
1, 125369, Note_off_c, 0, 82, 56
1, 125376, Note_on_c, 0, 87, 80
1, 125400, Note_off_c, 0, 84, 56
1, 125402, Note_off_c, 0, 75, 51
1, 125426, Note_off_c, 0, 72, 63
1, 125439, Note_on_c, 0, 90, 77
1, 125468, Note_on_c, 0, 92, 79
1, 125477, Note_off_c, 0, 87, 63
1, 125486, Note_off_c, 0, 90, 65
1, 125497, Note_on_c, 0, 93, 60
1, 125513, Note_off_c, 0, 92, 66
1, 125528, Note_off_c, 0, 93, 50
1, 125529, Note_on_c, 0, 86, 83
1, 125531, Note_on_c, 0, 81, 88
1, 125561, Note_on_c, 0, 69, 37
1, 125563, Note_on_c, 0, 71, 44
1, 125564, Note_off_c, 0, 81, 63
1, 125589, Note_off_c, 0, 71, 55
1, 125590, Note_on_c, 0, 90, 77
1, 125590, Note_off_c, 0, 69, 53
1, 125606, Note_off_c, 0, 86, 62
1, 125611, Note_on_c, 0, 92, 61
1, 125612, Note_off_c, 0, 92, 127
1, 125626, Note_off_c, 0, 90, 66
1, 125626, Note_on_c, 0, 93, 74
1, 125644, Note_on_c, 0, 98, 93
1, 125653, Note_on_c, 0, 91, 57
1, 125667, Note_off_c, 0, 93, 59
1, 125671, Note_off_c, 0, 91, 64
1, 125696, Note_off_c, 0, 98, 67
1, 125733, Note_on_c, 0, 85, 94
1, 125736, Note_on_c, 0, 78, 87
1, 125749, Note_off_c, 0, 85, 72
1, 125757, Note_off_c, 0, 78, 71
1, 125769, Note_on_c, 0, 77, 46
1, 125797, Note_on_c, 0, 86, 82
1, 125799, Note_on_c, 0, 84, 88
1, 125800, Note_off_c, 0, 77, 55
1, 125809, Note_on_c, 0, 93, 66
1, 125827, Note_off_c, 0, 93, 61
1, 125840, Note_off_c, 0, 84, 59
1, 125841, Note_off_c, 0, 86, 64
1, 125871, Note_on_c, 0, 81, 74
1, 125895, Note_off_c, 0, 81, 71
1, 125910, Note_on_c, 0, 93, 78
1, 125915, Note_on_c, 0, 86, 81
1, 125919, Note_on_c, 0, 84, 71
1, 125935, Note_off_c, 0, 86, 72
1, 125941, Note_off_c, 0, 84, 70
1, 125947, Note_off_c, 0, 93, 63
1, 125967, Note_on_c, 0, 73, 90
1, 125968, Note_on_c, 0, 66, 89
1, 125986, Note_off_c, 0, 73, 73
1, 125990, Note_off_c, 0, 66, 69
1, 126048, Note_on_c, 0, 74, 77
1, 126054, Note_on_c, 0, 72, 71
1, 126074, Note_on_c, 0, 81, 42
1, 126079, Note_off_c, 0, 72, 67
1, 126082, Note_off_c, 0, 74, 61
1, 126098, Note_off_c, 0, 81, 57
1, 126122, Note_on_c, 0, 69, 69
1, 126153, Note_on_c, 0, 71, 34
1, 126160, Note_off_c, 0, 69, 64
1, 126188, Note_off_c, 0, 71, 47
1, 126220, Note_on_c, 0, 56, 76
1, 126288, Note_on_c, 0, 67, 67
1, 126290, Note_on_c, 0, 62, 68
1, 126294, Note_off_c, 0, 56, 60
1, 126333, Note_off_c, 0, 62, 53
1, 126375, Note_on_c, 0, 61, 59
1, 126379, Note_off_c, 0, 67, 58
1, 126409, Note_off_c, 0, 61, 66
1, 126446, Note_on_c, 0, 59, 50
1, 126473, Note_on_c, 0, 44, 53
1, 126474, Note_off_c, 0, 59, 56
1, 126488, Note_on_c, 0, 58, 69
1, 126508, Note_off_c, 0, 44, 62
1, 126527, Note_off_c, 0, 58, 67
1, 126572, Note_on_c, 0, 57, 34
1, 126604, Note_off_c, 0, 57, 55
1, 126619, Note_on_c, 0, 56, 61
1, 126652, Note_off_c, 0, 56, 66
1, 126735, Note_on_c, 0, 44, 47
1, 126790, Note_on_c, 0, 50, 26
1, 126802, Note_on_c, 0, 57, 12
1, 126812, Note_off_c, 0, 44, 48
1, 126830, Note_off_c, 0, 50, 53
1, 126843, Note_off_c, 0, 57, 53
1, 126850, Note_on_c, 0, 49, 47
1, 126897, Note_off_c, 0, 49, 64
1, 126982, Poly_aftertouch_c, 0, 48, 127
1, 127048, Note_on_c, 0, 32, 37
1, 127057, Note_on_c, 0, 47, 30
1, 127061, Poly_aftertouch_c, 0, 48, 0
1, 127108, Note_off_c, 0, 32, 50
1, 127153, Note_off_c, 0, 47, 35
1, 127650, Note_on_c, 0, 44, 39
1, 127716, Control_c, 0, 64, 97
1, 127719, Note_on_c, 0, 65, 51
1, 127723, Note_on_c, 0, 60, 47
1, 127731, Control_c, 0, 64, 79
1, 127746, Control_c, 0, 64, 69
1, 127761, Control_c, 0, 64, 64
1, 127775, Control_c, 0, 64, 64
1, 127790, Control_c, 0, 64, 65
1, 127805, Control_c, 0, 64, 67
1, 127820, Control_c, 0, 64, 70
1, 127835, Control_c, 0, 64, 76
1, 127849, Control_c, 0, 64, 88
1, 127864, Control_c, 0, 64, 103
1, 127877, Note_off_c, 0, 44, 38
1, 127879, Control_c, 0, 64, 127
1, 127896, Note_on_c, 0, 53, 44
1, 127952, Note_off_c, 0, 60, 28
1, 127974, Note_off_c, 0, 53, 54
1, 127998, Note_on_c, 0, 56, 42
1, 128086, Note_off_c, 0, 56, 52
1, 128117, Note_on_c, 0, 67, 60
1, 128133, Note_on_c, 0, 62, 36
1, 128168, Note_off_c, 0, 65, 33
1, 128196, Note_off_c, 0, 62, 54
1, 128199, Note_on_c, 0, 59, 44
1, 128234, Note_off_c, 0, 59, 49
1, 128245, Note_on_c, 0, 56, 41
1, 128305, Note_off_c, 0, 56, 61
1, 128307, Note_on_c, 0, 52, 42
1, 128366, Note_off_c, 0, 52, 53
1, 128396, Note_on_c, 0, 44, 51
1, 128409, Note_on_c, 0, 64, 57
1, 128412, Note_on_c, 0, 59, 48
1, 128420, Note_off_c, 0, 67, 53
1, 128458, Note_off_c, 0, 44, 60
1, 128497, Note_on_c, 0, 52, 34
1, 128517, Note_off_c, 0, 59, 56
1, 128527, Note_off_c, 0, 52, 55
1, 128553, Note_on_c, 0, 56, 28
1, 128580, Note_on_c, 0, 59, 47
1, 128584, Note_off_c, 0, 64, 61
1, 128589, Note_off_c, 0, 56, 52
1, 128636, Note_off_c, 0, 59, 55
1, 128681, Note_on_c, 0, 71, 64
1, 128684, Note_on_c, 0, 68, 62
1, 128744, Note_on_c, 0, 59, 41
1, 128757, Note_off_c, 0, 68, 59
1, 128774, Note_off_c, 0, 59, 59
1, 128792, Note_off_c, 0, 71, 58
1, 128830, Note_on_c, 0, 64, 64
1, 128859, Note_on_c, 0, 51, 63
1, 128859, Note_off_c, 0, 64, 66
1, 128888, Note_off_c, 0, 51, 64
1, 128918, Note_on_c, 0, 52, 44
1, 128933, Poly_aftertouch_c, 0, 59, 0
1, 128972, Note_off_c, 0, 52, 47
1, 128995, Note_on_c, 0, 44, 59
1, 129007, Control_c, 0, 64, 87
1, 129012, Note_on_c, 0, 77, 79
1, 129021, Control_c, 0, 64, 72
1, 129029, Note_on_c, 0, 65, 53
1, 129029, Note_on_c, 0, 72, 57
1, 129036, Control_c, 0, 64, 65
1, 129051, Control_c, 0, 64, 64
1, 129066, Control_c, 0, 64, 66
1, 129081, Control_c, 0, 64, 70
1, 129084, Note_off_c, 0, 44, 63
1, 129095, Control_c, 0, 64, 75
1, 129110, Control_c, 0, 64, 84
1, 129117, Note_on_c, 0, 53, 56
1, 129125, Control_c, 0, 64, 101
1, 129140, Control_c, 0, 64, 127
1, 129171, Note_off_c, 0, 53, 57
1, 129178, Note_off_c, 0, 65, 57
1, 129179, Note_on_c, 0, 56, 57
1, 129217, Note_off_c, 0, 77, 62
1, 129218, Note_off_c, 0, 56, 62
1, 129240, Note_on_c, 0, 60, 61
1, 129293, Note_off_c, 0, 72, 39
1, 129294, Note_off_c, 0, 60, 52
1, 129295, Note_on_c, 0, 79, 80
1, 129305, Note_on_c, 0, 74, 68
1, 129311, Note_on_c, 0, 67, 63
1, 129337, Note_on_c, 0, 64, 51
1, 129359, Note_off_c, 0, 64, 61
1, 129388, Note_off_c, 0, 67, 59
1, 129391, Note_off_c, 0, 79, 61
1, 129473, Poly_aftertouch_c, 0, 60, 127
1, 129495, Note_off_c, 0, 74, 58
1, 129499, Poly_aftertouch_c, 0, 60, 0
1, 129504, Note_on_c, 0, 56, 49
1, 129540, Note_off_c, 0, 56, 62
1, 129551, Note_on_c, 0, 52, 51
1, 129561, Note_on_c, 0, 76, 68
1, 129576, Control_c, 0, 64, 94
1, 129579, Note_on_c, 0, 64, 38
1, 129582, Note_on_c, 0, 72, 43
1, 129583, Note_on_c, 0, 71, 45
1, 129591, Control_c, 0, 64, 76
1, 129606, Note_off_c, 0, 72, 59
1, 129606, Control_c, 0, 64, 68
1, 129622, Control_c, 0, 64, 65
1, 129631, Note_off_c, 0, 52, 64
1, 129637, Control_c, 0, 64, 67
1, 129644, Note_on_c, 0, 44, 53
1, 129651, Control_c, 0, 64, 70
1, 129655, Note_off_c, 0, 64, 0
1, 129655, Note_on_c, 0, 64, 3
1, 129666, Control_c, 0, 64, 76
1, 129681, Control_c, 0, 64, 85
1, 129690, Note_off_c, 0, 44, 63
1, 129696, Control_c, 0, 64, 97
1, 129711, Control_c, 0, 64, 122
1, 129722, Note_off_c, 0, 71, 55
1, 129725, Control_c, 0, 64, 127
1, 129738, Note_on_c, 0, 52, 36
1, 129763, Note_off_c, 0, 52, 57
1, 129766, Note_on_c, 0, 56, 52
1, 129796, Note_off_c, 0, 64, 43
1, 129797, Note_off_c, 0, 56, 63
1, 129822, Note_on_c, 0, 59, 53
1, 129868, Note_on_c, 0, 71, 64
1, 129874, Note_off_c, 0, 59, 54
1, 129881, Note_off_c, 0, 76, 61
1, 129906, Note_on_c, 0, 64, 45
1, 129917, Note_on_c, 0, 62, 38
1, 129949, Note_off_c, 0, 62, 50
1, 129955, Note_off_c, 0, 64, 55
1, 129971, Note_on_c, 0, 59, 60
1, 130002, Note_off_c, 0, 59, 64
1, 130030, Note_off_c, 0, 71, 49
1, 130065, Note_on_c, 0, 56, 46
1, 130096, Note_off_c, 0, 56, 53
1, 130118, Note_on_c, 0, 52, 48
1, 130193, Note_off_c, 0, 52, 62
1, 130200, Note_on_c, 0, 44, 52
1, 130240, Note_off_c, 0, 44, 62
1, 130277, Note_on_c, 0, 52, 40
1, 130324, Note_off_c, 0, 52, 62
1, 130325, Note_on_c, 0, 56, 61
1, 130339, Poly_aftertouch_c, 0, 49, 0
1, 130362, Note_off_c, 0, 56, 64
1, 130410, Note_on_c, 0, 59, 51
1, 130453, Note_off_c, 0, 59, 57
1, 130503, Note_on_c, 0, 62, 39
1, 130532, Note_off_c, 0, 62, 53
1, 130546, Note_on_c, 0, 59, 64
1, 130600, Note_off_c, 0, 59, 52
1, 130710, Note_on_c, 0, 52, 36
1, 130716, Note_on_c, 0, 53, 39
1, 130798, Note_off_c, 0, 53, 47
1, 130803, Note_on_c, 0, 44, 47
1, 130810, Note_on_c, 0, 50, 49
1, 130848, Note_off_c, 0, 50, 63
1, 130850, Note_off_c, 0, 44, 60
1, 130920, Note_off_c, 0, 52, 39
1, 130977, Note_on_c, 0, 59, 42
1, 131049, Note_off_c, 0, 59, 55
1, 131093, Note_on_c, 0, 47, 39
1, 131129, Note_off_c, 0, 47, 51
1, 131132, Note_on_c, 0, 62, 50
1, 131162, Note_off_c, 0, 62, 53
1, 131189, Note_on_c, 0, 68, 57
1, 131239, Note_off_c, 0, 68, 61
1, 131251, Note_on_c, 0, 71, 60
1, 131283, Note_off_c, 0, 71, 67
1, 131299, Note_on_c, 0, 76, 71
1, 131331, Note_off_c, 0, 76, 65
1, 131357, Control_c, 0, 64, 98
1, 131371, Control_c, 0, 64, 73
1, 131386, Control_c, 0, 64, 59
1, 131397, Note_on_c, 0, 72, 65
1, 131401, Control_c, 0, 64, 45
1, 131411, Note_on_c, 0, 68, 57
1, 131412, Note_on_c, 0, 60, 45
1, 131416, Note_on_c, 0, 62, 44
1, 131416, Control_c, 0, 64, 40
1, 131431, Control_c, 0, 64, 41
1, 131445, Control_c, 0, 64, 43
1, 131452, Note_off_c, 0, 68, 61
1, 131460, Control_c, 0, 64, 51
1, 131468, Note_on_c, 0, 74, 63
1, 131475, Control_c, 0, 64, 60
1, 131490, Control_c, 0, 64, 68
1, 131505, Control_c, 0, 64, 81
1, 131517, Note_off_c, 0, 72, 61
1, 131520, Control_c, 0, 64, 127
1, 131523, Note_off_c, 0, 62, 57
1, 131524, Note_on_c, 0, 80, 70
1, 131527, Note_off_c, 0, 60, 59
1, 131541, Note_off_c, 0, 74, 57
1, 131579, Note_on_c, 0, 83, 66
1, 131588, Note_off_c, 0, 80, 64
1, 131604, Note_on_c, 0, 81, 41
1, 131628, Note_off_c, 0, 81, 60
1, 131631, Note_on_c, 0, 59, 70
1, 131631, Note_on_c, 0, 71, 80
1, 131647, Note_on_c, 0, 74, 72
1, 131651, Note_on_c, 0, 76, 74
1, 131654, Note_off_c, 0, 83, 60
1, 131658, Note_off_c, 0, 59, 66
1, 131684, Note_off_c, 0, 71, 62
1, 131698, Note_on_c, 0, 80, 84
1, 131707, Note_off_c, 0, 74, 61
1, 131725, Note_off_c, 0, 76, 61
1, 131745, Note_off_c, 0, 80, 64
1, 131761, Note_on_c, 0, 83, 66
1, 131763, Note_on_c, 0, 84, 75
1, 131791, Note_off_c, 0, 84, 70
1, 131792, Note_on_c, 0, 88, 88
1, 131797, Note_off_c, 0, 83, 68
1, 131799, Poly_aftertouch_c, 0, 81, 127
1, 131824, Note_off_c, 0, 88, 64
1, 131830, Poly_aftertouch_c, 0, 81, 0
1, 131877, Note_on_c, 0, 72, 42
1, 131878, Note_on_c, 0, 86, 86
1, 131884, Note_on_c, 0, 80, 78
1, 131886, Note_on_c, 0, 74, 74
1, 131887, Note_on_c, 0, 84, 78
1, 131904, Note_on_c, 0, 82, 55
1, 131904, Note_on_c, 0, 73, 26
1, 131923, Note_off_c, 0, 82, 61
1, 131926, Note_off_c, 0, 84, 0
1, 131926, Note_on_c, 0, 84, 40
1, 131928, Note_off_c, 0, 80, 66
1, 131942, Note_off_c, 0, 73, 36
1, 131943, Note_off_c, 0, 72, 63
1, 131944, Note_on_c, 0, 81, 33
1, 131947, Note_off_c, 0, 84, 61
1, 131959, Note_off_c, 0, 74, 59
1, 131970, Note_off_c, 0, 81, 54
1, 131981, Note_on_c, 0, 92, 79
1, 131991, Note_on_c, 0, 89, 60
1, 132002, Note_off_c, 0, 86, 60
1, 132015, Note_off_c, 0, 89, 64
1, 132021, Note_on_c, 0, 95, 73
1, 132050, Note_off_c, 0, 92, 67
1, 132098, Note_on_c, 0, 88, 71
1, 132103, Note_off_c, 0, 95, 62
1, 132106, Note_on_c, 0, 81, 84
1, 132110, Note_on_c, 0, 86, 65
1, 132111, Note_off_c, 0, 86, 127
1, 132128, Note_on_c, 0, 71, 52
1, 132129, Note_on_c, 0, 69, 43
1, 132143, Note_off_c, 0, 81, 64
1, 132149, Note_off_c, 0, 71, 61
1, 132154, Note_off_c, 0, 69, 56
1, 132160, Note_on_c, 0, 92, 82
1, 132184, Note_off_c, 0, 88, 61
1, 132193, Note_on_c, 0, 95, 68
1, 132195, Note_on_c, 0, 93, 60
1, 132205, Note_off_c, 0, 92, 56
1, 132222, Note_on_c, 0, 100, 87
1, 132235, Note_off_c, 0, 93, 64
1, 132250, Note_off_c, 0, 95, 65
1, 132272, Note_off_c, 0, 100, 66
1, 132317, Note_on_c, 0, 87, 95
1, 132321, Note_on_c, 0, 80, 91
1, 132348, Note_off_c, 0, 87, 60
1, 132357, Note_off_c, 0, 80, 60
1, 132384, Note_on_c, 0, 88, 78
1, 132391, Note_on_c, 0, 95, 56
1, 132401, Note_on_c, 0, 86, 58
1, 132414, Note_on_c, 0, 93, 50
1, 132422, Note_off_c, 0, 95, 55
1, 132425, Note_off_c, 0, 88, 60
1, 132430, Note_off_c, 0, 86, 59
1, 132438, Note_off_c, 0, 93, 37
1, 132448, Note_on_c, 0, 83, 80
1, 132498, Note_on_c, 0, 86, 74
1, 132506, Note_on_c, 0, 88, 76
1, 132509, Note_off_c, 0, 83, 64
1, 132510, Note_on_c, 0, 95, 72
1, 132521, Note_on_c, 0, 93, 65
1, 132533, Note_off_c, 0, 86, 66
1, 132536, Note_off_c, 0, 88, 71
1, 132545, Note_off_c, 0, 95, 66
1, 132551, Note_off_c, 0, 93, 68
1, 132570, Note_on_c, 0, 75, 88
1, 132577, Note_on_c, 0, 68, 79
1, 132590, Note_off_c, 0, 75, 71
1, 132599, Note_off_c, 0, 68, 69
1, 132643, Note_on_c, 0, 76, 79
1, 132646, Note_on_c, 0, 77, 74
1, 132664, Note_on_c, 0, 83, 51
1, 132675, Note_off_c, 0, 77, 65
1, 132677, Note_off_c, 0, 76, 63
1, 132687, Note_off_c, 0, 83, 61
1, 132709, Note_on_c, 0, 71, 74
1, 132754, Note_on_c, 0, 74, 59
1, 132763, Note_on_c, 0, 76, 54
1, 132763, Note_off_c, 0, 71, 62
1, 132781, Note_off_c, 0, 76, 62
1, 132785, Note_off_c, 0, 74, 65
1, 132829, Note_on_c, 0, 58, 68
1, 132846, Note_on_c, 0, 56, 59
1, 132875, Note_on_c, 0, 71, 79
1, 132883, Note_on_c, 0, 64, 69
1, 132897, Note_off_c, 0, 58, 59
1, 132898, Note_off_c, 0, 56, 46
1, 132919, Note_off_c, 0, 64, 55
1, 132958, Note_on_c, 0, 63, 73
1, 132963, Note_off_c, 0, 71, 62
1, 133005, Note_off_c, 0, 63, 61
1, 133040, Note_on_c, 0, 62, 30
1, 133070, Note_on_c, 0, 44, 65
1, 133070, Note_on_c, 0, 61, 63
1, 133076, Note_off_c, 0, 62, 45
1, 133111, Note_off_c, 0, 61, 61
1, 133111, Note_off_c, 0, 44, 63
1, 133196, Note_on_c, 0, 58, 68
1, 133226, Poly_aftertouch_c, 0, 59, 0
1, 133289, Note_off_c, 0, 58, 61
1, 133344, Note_on_c, 0, 44, 51
1, 133395, Note_on_c, 0, 57, 50
1, 133418, Note_on_c, 0, 52, 8
1, 133434, Note_off_c, 0, 44, 53
1, 133463, Note_off_c, 0, 57, 62
1, 133465, Note_off_c, 0, 52, 47
1, 133484, Note_on_c, 0, 51, 41
1, 133540, Note_off_c, 0, 51, 59
1, 133576, Note_on_c, 0, 48, 47
1, 133602, Control_c, 0, 67, 14
1, 133607, Note_off_c, 0, 48, 53
1, 133618, Control_c, 0, 67, 29
1, 133633, Control_c, 0, 67, 42
1, 133648, Control_c, 0, 67, 56
1, 133663, Control_c, 0, 67, 70
1, 133675, Note_on_c, 0, 32, 32
1, 133678, Control_c, 0, 67, 84
1, 133692, Control_c, 0, 67, 94
1, 133707, Control_c, 0, 67, 99
1, 133722, Control_c, 0, 67, 100
1, 133732, Note_off_c, 0, 32, 46
1, 133830, Note_on_c, 0, 46, 51
1, 133854, Control_c, 0, 67, 100
1, 133869, Control_c, 0, 67, 99
1, 133883, Control_c, 0, 67, 99
1, 133900, Note_off_c, 0, 46, 62
1, 133913, Control_c, 0, 67, 98
1, 133928, Control_c, 0, 67, 97
1, 133943, Control_c, 0, 67, 96
1, 133958, Control_c, 0, 67, 95
1, 133973, Control_c, 0, 67, 94
1, 133988, Control_c, 0, 67, 94
1, 134003, Control_c, 0, 67, 93
1, 134025, Control_c, 0, 67, 92
1, 134054, Control_c, 0, 67, 91
1, 134084, Control_c, 0, 67, 90
1, 134098, Control_c, 0, 67, 90
1, 134154, Note_on_c, 0, 44, 42
1, 134217, Control_c, 0, 67, 89
1, 134235, Note_on_c, 0, 66, 48
1, 134238, Note_on_c, 0, 61, 44
1, 134247, Control_c, 0, 64, 113
1, 134262, Control_c, 0, 64, 97
1, 134277, Control_c, 0, 64, 91
1, 134277, Control_c, 0, 67, 89
1, 134291, Control_c, 0, 64, 88
1, 134306, Control_c, 0, 64, 88
1, 134306, Control_c, 0, 67, 88
1, 134336, Note_off_c, 0, 44, 37
1, 134336, Control_c, 0, 64, 89
1, 134339, Note_on_c, 0, 49, 38
1, 134351, Control_c, 0, 64, 92
1, 134365, Control_c, 0, 64, 97
1, 134365, Control_c, 0, 67, 87
1, 134380, Control_c, 0, 64, 112
1, 134395, Control_c, 0, 64, 127
1, 134411, Control_c, 0, 67, 87
1, 134444, Note_off_c, 0, 61, 38
1, 134470, Control_c, 0, 67, 86
1, 134501, Note_off_c, 0, 49, 31
1, 134501, Poly_aftertouch_c, 0, 54, 127
1, 134529, Control_c, 0, 67, 86
1, 134538, Poly_aftertouch_c, 0, 54, 0
1, 134543, Note_off_c, 0, 66, 61
1, 134557, Note_on_c, 0, 68, 62
1, 134560, Note_on_c, 0, 63, 47
1, 134600, Note_on_c, 0, 60, 59
1, 134622, Note_off_c, 0, 63, 59
1, 134651, Note_off_c, 0, 60, 61
1, 134674, Note_on_c, 0, 56, 46
1, 134710, Note_off_c, 0, 56, 64
1, 134716, Note_on_c, 0, 51, 58
1, 134721, Control_c, 0, 67, 85
1, 134751, Control_c, 0, 64, 119
1, 134774, Control_c, 0, 64, 94
1, 134788, Control_c, 0, 64, 83
1, 134803, Control_c, 0, 64, 77
1, 134807, Note_off_c, 0, 51, 63
1, 134816, Note_on_c, 0, 44, 53
1, 134818, Control_c, 0, 64, 77
1, 134832, Note_on_c, 0, 60, 57
1, 134833, Control_c, 0, 64, 79
1, 134847, Control_c, 0, 64, 83
1, 134850, Note_off_c, 0, 44, 64
1, 134855, Note_on_c, 0, 65, 55
1, 134862, Control_c, 0, 64, 90
1, 134877, Control_c, 0, 64, 103
1, 134892, Control_c, 0, 64, 127
1, 134895, Note_off_c, 0, 68, 57
1, 134921, Control_c, 0, 67, 84
1, 134951, Control_c, 0, 67, 84
1, 134954, Poly_aftertouch_c, 0, 53, 127
1, 134960, Note_on_c, 0, 58, 51
1, 134966, Control_c, 0, 67, 83
1, 134981, Control_c, 0, 67, 82
1, 134986, Note_off_c, 0, 58, 59
1, 134988, Note_off_c, 0, 60, 58
1, 134992, Poly_aftertouch_c, 0, 53, 0
1, 134995, Control_c, 0, 67, 81
1, 135007, Note_on_c, 0, 62, 60
1, 135010, Control_c, 0, 67, 81
1, 135025, Control_c, 0, 67, 80
1, 135040, Control_c, 0, 67, 79
1, 135043, Note_off_c, 0, 62, 59
1, 135055, Control_c, 0, 67, 77
1, 135056, Note_off_c, 0, 65, 62
1, 135066, Note_on_c, 0, 51, 60
1, 135070, Control_c, 0, 67, 77
1, 135085, Control_c, 0, 67, 76
1, 135098, Note_on_c, 0, 72, 67
1, 135100, Control_c, 0, 67, 74
1, 135103, Note_on_c, 0, 68, 69
1, 135114, Control_c, 0, 67, 73
1, 135118, Note_on_c, 0, 56, 50
1, 135129, Control_c, 0, 67, 72
1, 135137, Note_off_c, 0, 51, 60
1, 135144, Control_c, 0, 67, 72
1, 135159, Control_c, 0, 67, 71
1, 135162, Note_off_c, 0, 56, 59
1, 135174, Control_c, 0, 67, 70
1, 135180, Note_on_c, 0, 60, 56
1, 135186, Note_off_c, 0, 68, 55
1, 135188, Control_c, 0, 67, 69
1, 135204, Note_off_c, 0, 72, 58
1, 135219, Control_c, 0, 67, 69
1, 135239, Note_on_c, 0, 65, 67
1, 135250, Note_off_c, 0, 60, 63
1, 135264, Control_c, 0, 67, 68
1, 135267, Note_off_c, 0, 65, 67
1, 135352, Control_c, 0, 67, 67
1, 135359, Poly_aftertouch_c, 0, 54, 0
1, 135397, Control_c, 0, 64, 113
1, 135411, Control_c, 0, 64, 82
1, 135416, Note_on_c, 0, 64, 59
1, 135419, Note_on_c, 0, 60, 48
1, 135426, Control_c, 0, 64, 68
1, 135434, Note_on_c, 0, 55, 51
1, 135441, Control_c, 0, 64, 63
1, 135455, Control_c, 0, 64, 64
1, 135455, Control_c, 0, 67, 67
1, 135457, Note_off_c, 0, 64, 62
1, 135470, Control_c, 0, 64, 67
1, 135475, Note_off_c, 0, 60, 63
1, 135485, Control_c, 0, 64, 73
1, 135495, Note_on_c, 0, 84, 80
1, 135500, Control_c, 0, 64, 82
1, 135500, Control_c, 0, 67, 67
1, 135505, Note_off_c, 0, 55, 62
1, 135523, Control_c, 0, 64, 100
1, 135537, Control_c, 0, 64, 127
1, 135537, Control_c, 0, 67, 68
1, 135600, Note_off_c, 0, 84, 59
1, 135626, Control_c, 0, 67, 69
1, 135656, Note_on_c, 0, 79, 41
1, 135656, Control_c, 0, 67, 69
1, 135697, Note_off_c, 0, 79, 58
1, 135725, Note_on_c, 0, 32, 40
1, 135727, Note_on_c, 0, 44, 51
1, 135730, Note_on_c, 0, 76, 44
1, 135758, Note_off_c, 0, 44, 60
1, 135759, Note_off_c, 0, 76, 59
1, 135764, Note_off_c, 0, 32, 50
1, 135774, Control_c, 0, 67, 70
1, 135810, Note_on_c, 0, 72, 43
1, 135842, Note_off_c, 0, 72, 57
1, 135848, Control_c, 0, 67, 69
1, 135868, Note_on_c, 0, 86, 81
1, 135946, Note_off_c, 0, 86, 62
1, 136012, Note_on_c, 0, 56, 41
1, 136012, Control_c, 0, 67, 70
1, 136024, Note_on_c, 0, 66, 40
1, 136045, Note_off_c, 0, 56, 55
1, 136047, Note_on_c, 0, 78, 45
1, 136053, Poly_aftertouch_c, 0, 81, 0
1, 136057, Control_c, 0, 67, 71
1, 136084, Note_off_c, 0, 78, 61
1, 136101, Note_on_c, 0, 74, 43
1, 136107, Note_on_c, 0, 57, 7
1, 136140, Note_off_c, 0, 74, 43
1, 136156, Note_off_c, 0, 66, 35
1, 136157, Note_on_c, 0, 83, 82
1, 136224, Note_off_c, 0, 83, 61
1, 136271, Control_c, 0, 67, 71
1, 136305, Note_off_c, 0, 57, 32
1, 136318, Note_on_c, 0, 68, 44
1, 136328, Note_on_c, 0, 74, 56
1, 136331, Note_on_c, 0, 64, 45
1, 136346, Control_c, 0, 67, 72
1, 136354, Note_off_c, 0, 68, 58
1, 136354, Poly_aftertouch_c, 0, 78, 0
1, 136374, Note_off_c, 0, 74, 61
1, 136390, Control_c, 0, 67, 72
1, 136391, Note_off_c, 0, 64, 53
1, 136428, Note_on_c, 0, 71, 7
1, 136467, Note_on_c, 0, 78, 69
1, 136478, Note_off_c, 0, 71, 48
1, 136479, Note_on_c, 0, 66, 42
1, 136481, Note_on_c, 0, 57, 31
1, 136485, Note_on_c, 0, 62, 43
1, 136517, Note_off_c, 0, 57, 54
1, 136520, Note_off_c, 0, 66, 51
1, 136550, Note_off_c, 0, 78, 61
1, 136552, Note_off_c, 0, 62, 54
1, 136554, Note_on_c, 0, 74, 56
1, 136616, Note_off_c, 0, 74, 57
1, 136638, Note_on_c, 0, 60, 47
1, 136639, Note_on_c, 0, 73, 53
1, 136647, Note_on_c, 0, 68, 48
1, 136655, Note_on_c, 0, 64, 33
1, 136656, Control_c, 0, 67, 73
1, 136679, Note_off_c, 0, 73, 61
1, 136703, Note_on_c, 0, 71, 46
1, 136728, Note_off_c, 0, 71, 57
1, 136745, Control_c, 0, 67, 74
1, 136761, Note_off_c, 0, 68, 37
1, 136763, Note_off_c, 0, 60, 57
1, 136808, Note_on_c, 0, 56, 51
1, 136835, Control_c, 0, 64, 108
1, 136850, Control_c, 0, 64, 85
1, 136864, Control_c, 0, 64, 72
1, 136877, Note_on_c, 0, 85, 59
1, 136879, Control_c, 0, 64, 63
1, 136884, Note_on_c, 0, 78, 51
1, 136891, Note_off_c, 0, 64, 41
1, 136894, Control_c, 0, 64, 60
1, 136909, Control_c, 0, 64, 62
1, 136924, Control_c, 0, 64, 64
1, 136939, Control_c, 0, 64, 66
1, 136954, Control_c, 0, 64, 70
1, 136960, Note_off_c, 0, 56, 37
1, 136969, Control_c, 0, 64, 77
1, 136972, Note_on_c, 0, 61, 50
1, 136983, Control_c, 0, 64, 87
1, 136998, Control_c, 0, 64, 100
1, 137020, Control_c, 0, 64, 127
1, 137066, Note_on_c, 0, 66, 40
1, 137088, Note_off_c, 0, 61, 52
1, 137089, Note_off_c, 0, 78, 35
1, 137093, Note_on_c, 0, 70, 44
1, 137096, Note_off_c, 0, 66, 54
1, 137122, Note_off_c, 0, 70, 58
1, 137124, Control_c, 0, 67, 74
1, 137151, Note_off_c, 0, 85, 61
1, 137151, Note_on_c, 0, 80, 59
1, 137154, Note_on_c, 0, 87, 72
1, 137207, Note_on_c, 0, 72, 69
1, 137246, Note_off_c, 0, 72, 61
1, 137252, Note_on_c, 0, 68, 57
1, 137256, Note_off_c, 0, 80, 55
1, 137308, Note_off_c, 0, 68, 62
1, 137309, Note_on_c, 0, 63, 61
1, 137358, Note_off_c, 0, 87, 59
1, 137377, Note_off_c, 0, 63, 62
1, 137382, Note_on_c, 0, 56, 64
1, 137412, Note_off_c, 0, 56, 66
1, 137434, Note_on_c, 0, 80, 58
1, 137435, Note_on_c, 0, 84, 66
1, 137439, Note_on_c, 0, 79, 56
1, 137472, Note_on_c, 0, 65, 40
1, 137488, Note_off_c, 0, 80, 55
1, 137493, Note_off_c, 0, 79, 60
1, 137505, Note_on_c, 0, 70, 60
1, 137535, Note_off_c, 0, 70, 68
1, 137563, Note_on_c, 0, 74, 69
1, 137585, Note_off_c, 0, 65, 26
1, 137599, Control_c, 0, 67, 74
1, 137601, Note_off_c, 0, 74, 57
1, 137641, Note_off_c, 0, 84, 48
1, 137642, Note_on_c, 0, 63, 56
1, 137678, Note_on_c, 0, 68, 57
1, 137696, Note_on_c, 0, 77, 68
1, 137704, Note_off_c, 0, 63, 59
1, 137764, Note_off_c, 0, 68, 55
1, 137774, Note_on_c, 0, 72, 35
1, 137774, Note_off_c, 0, 77, 60
1, 137805, Note_off_c, 0, 72, 54
1, 137847, Note_on_c, 0, 65, 56
1, 137860, Control_c, 0, 67, 73
1, 137861, Note_on_c, 0, 72, 53
1, 137890, Note_off_c, 0, 72, 63
1, 137933, Control_c, 0, 67, 72
1, 137991, Note_off_c, 0, 65, 57
1, 138022, Control_c, 0, 64, 101
1, 138037, Control_c, 0, 64, 78
1, 138045, Note_on_c, 0, 66, 46
1, 138045, Note_on_c, 0, 61, 53
1, 138048, Note_on_c, 0, 70, 59
1, 138052, Control_c, 0, 64, 67
1, 138066, Control_c, 0, 64, 64
1, 138066, Control_c, 0, 67, 72
1, 138081, Note_off_c, 0, 70, 65
1, 138081, Control_c, 0, 64, 66
1, 138096, Control_c, 0, 64, 71
1, 138106, Note_off_c, 0, 66, 62
1, 138111, Control_c, 0, 64, 77
1, 138125, Note_on_c, 0, 90, 65
1, 138126, Control_c, 0, 64, 88
1, 138131, Note_off_c, 0, 61, 61
1, 138140, Control_c, 0, 64, 113
1, 138155, Control_c, 0, 64, 127
1, 138256, Note_off_c, 0, 90, 55
1, 138286, Note_on_c, 0, 85, 46
1, 138363, Control_c, 0, 67, 72
1, 138372, Note_on_c, 0, 32, 43
1, 138372, Note_off_c, 0, 85, 49
1, 138378, Control_c, 0, 67, 73
1, 138385, Note_on_c, 0, 44, 42
1, 138385, Note_on_c, 0, 82, 27
1, 138412, Note_off_c, 0, 32, 60
1, 138417, Note_off_c, 0, 82, 53
1, 138424, Note_off_c, 0, 44, 60
1, 138456, Note_on_c, 0, 78, 50
1, 138487, Note_off_c, 0, 78, 60
1, 138538, Note_on_c, 0, 92, 77
1, 138593, Control_c, 0, 67, 72
1, 138632, Note_off_c, 0, 92, 62
1, 138641, Note_on_c, 0, 87, 57
1, 138730, Note_on_c, 0, 84, 53
1, 138731, Note_off_c, 0, 87, 51
1, 138745, Note_on_c, 0, 72, 43
1, 138745, Note_on_c, 0, 63, 41
1, 138753, Note_on_c, 0, 68, 42
1, 138793, Note_off_c, 0, 84, 62
1, 138826, Note_off_c, 0, 63, 50
1, 138838, Note_on_c, 0, 80, 53
1, 138840, Note_off_c, 0, 72, 57
1, 138845, Note_off_c, 0, 68, 47
1, 138901, Note_off_c, 0, 80, 61
1, 138942, Note_on_c, 0, 93, 70
1, 139036, Note_off_c, 0, 93, 62
1, 139067, Note_on_c, 0, 88, 52
1, 139160, Note_off_c, 0, 88, 60
1, 139203, Note_on_c, 0, 64, 38
1, 139203, Note_on_c, 0, 73, 33
1, 139207, Note_on_c, 0, 85, 45
1, 139213, Note_on_c, 0, 69, 40
1, 139294, Note_off_c, 0, 64, 52
1, 139302, Note_off_c, 0, 69, 50
1, 139359, Note_off_c, 0, 85, 34
1, 139369, Note_on_c, 0, 81, 57
1, 139422, Note_off_c, 0, 73, 34
1, 139490, Note_off_c, 0, 81, 34
1, 139589, Note_on_c, 0, 95, 51
1, 139596, Note_on_c, 0, 90, 45
1, 139690, Note_off_c, 0, 95, 57
1, 139694, Note_off_c, 0, 90, 51
1, 139965, Control_c, 0, 67, 73
1, 139979, Control_c, 0, 67, 74
1, 140009, Note_on_c, 0, 75, 34
1, 140017, Control_c, 0, 67, 74
1, 140018, Note_on_c, 0, 65, 33
1, 140021, Note_on_c, 0, 71, 36
1, 140032, Control_c, 0, 67, 75
1, 140047, Control_c, 0, 67, 76
1, 140054, Note_on_c, 0, 81, 29
1, 140061, Note_on_c, 0, 83, 20
1, 140062, Control_c, 0, 67, 77
1, 140077, Control_c, 0, 67, 79
1, 140091, Control_c, 0, 67, 81
1, 140094, Note_off_c, 0, 75, 52
1, 140105, Note_off_c, 0, 71, 53
1, 140105, Note_off_c, 0, 65, 47
1, 140106, Control_c, 0, 67, 82
1, 140121, Control_c, 0, 67, 84
1, 140123, Note_off_c, 0, 83, 40
1, 140135, Control_c, 0, 67, 86
1, 140150, Control_c, 0, 67, 87
1, 140165, Control_c, 0, 67, 90
1, 140173, Note_off_c, 0, 81, 40
1, 140180, Control_c, 0, 67, 94
1, 140195, Control_c, 0, 67, 96
1, 140209, Control_c, 0, 67, 99
1, 140224, Control_c, 0, 67, 104
1, 140239, Control_c, 0, 67, 119
1, 140254, Control_c, 0, 67, 127
1, 140730, Note_on_c, 0, 44, 33
1, 140799, Note_off_c, 0, 44, 55
1, 140819, Note_on_c, 0, 75, 28
1, 140999, Note_off_c, 0, 75, 41
1, 141102, Note_on_c, 0, 80, 44
1, 141154, Note_off_c, 0, 80, 55
1, 141284, Note_on_c, 0, 64, 31
1, 141289, Note_on_c, 0, 87, 46
1, 141299, Note_on_c, 0, 71, 26
1, 141337, Note_off_c, 0, 71, 52
1, 141345, Note_off_c, 0, 64, 55
1, 141392, Note_off_c, 0, 87, 46
1, 141471, Note_on_c, 0, 90, 52
1, 141559, Note_off_c, 0, 90, 50
1, 141641, Note_on_c, 0, 76, 36
1, 141643, Note_on_c, 0, 83, 44
1, 141673, Note_on_c, 0, 87, 39
1, 141707, Note_off_c, 0, 83, 54
1, 141745, Note_off_c, 0, 76, 48
1, 141745, Note_off_c, 0, 87, 56
1, 141813, Note_on_c, 0, 80, 50
1, 141862, Note_off_c, 0, 80, 58
1, 141956, Note_on_c, 0, 69, 43
1, 141981, Note_on_c, 0, 73, 45
1, 142003, Note_off_c, 0, 69, 63
1, 142028, Note_off_c, 0, 73, 61
1, 142039, Note_on_c, 0, 80, 48
1, 142087, Note_off_c, 0, 80, 60
1, 142120, Note_on_c, 0, 85, 41
1, 142152, Note_off_c, 0, 85, 60
1, 142176, Note_on_c, 0, 88, 46
1, 142232, Note_off_c, 0, 88, 44
1, 142261, Note_on_c, 0, 44, 39
1, 142269, Note_on_c, 0, 75, 47
1, 142303, Note_off_c, 0, 44, 55
1, 142394, Note_off_c, 0, 75, 36
1, 142432, Note_on_c, 0, 80, 48
1, 142478, Note_off_c, 0, 80, 62
1, 142587, Note_on_c, 0, 71, 46
1, 142593, Note_on_c, 0, 87, 47
1, 142596, Note_on_c, 0, 64, 25
1, 142621, Note_off_c, 0, 71, 62
1, 142632, Note_off_c, 0, 64, 51
1, 142648, Note_off_c, 0, 87, 57
1, 142736, Note_on_c, 0, 90, 55
1, 142855, Note_off_c, 0, 90, 46
1, 142881, Note_on_c, 0, 83, 47
1, 142897, Note_on_c, 0, 76, 38
1, 142900, Note_on_c, 0, 87, 45
1, 142925, Note_off_c, 0, 83, 65
1, 142947, Note_off_c, 0, 87, 48
1, 142987, Note_off_c, 0, 76, 43
1, 143011, Note_on_c, 0, 80, 57
1, 143057, Note_off_c, 0, 80, 57
1, 143166, Note_on_c, 0, 76, 37
1, 143170, Note_on_c, 0, 69, 35
1, 143175, Note_on_c, 0, 73, 45
1, 143211, Note_off_c, 0, 76, 62
1, 143227, Note_off_c, 0, 73, 62
1, 143229, Note_on_c, 0, 80, 49
1, 143236, Note_off_c, 0, 69, 60
1, 143273, Note_off_c, 0, 80, 62
1, 143312, Note_on_c, 0, 85, 33
1, 143342, Note_off_c, 0, 85, 48
1, 143348, Note_on_c, 0, 88, 56
1, 143404, Note_off_c, 0, 88, 60
1, 143456, Note_on_c, 0, 75, 57
1, 143473, Note_on_c, 0, 44, 43
1, 143512, Note_off_c, 0, 44, 61
1, 143527, Note_off_c, 0, 75, 57
1, 143617, Note_on_c, 0, 80, 58
1, 143688, Note_off_c, 0, 80, 62
1, 143778, Note_on_c, 0, 87, 61
1, 143786, Note_on_c, 0, 71, 51
1, 143797, Note_on_c, 0, 64, 40
1, 143834, Note_off_c, 0, 87, 57
1, 143855, Note_off_c, 0, 64, 57
1, 143928, Note_on_c, 0, 90, 62
1, 143979, Note_off_c, 0, 90, 57
1, 143993, Note_off_c, 0, 71, 39
1, 144078, Note_on_c, 0, 68, 38
1, 144091, Note_on_c, 0, 76, 35
1, 144102, Note_on_c, 0, 80, 55
1, 144120, Note_off_c, 0, 68, 51
1, 144141, Note_off_c, 0, 76, 59
1, 144189, Note_off_c, 0, 80, 49
1, 144273, Note_on_c, 0, 87, 51
1, 144364, Note_off_c, 0, 87, 53
1, 144408, Note_on_c, 0, 76, 38
1, 144415, Note_on_c, 0, 83, 51
1, 144448, Note_on_c, 0, 71, 46
1, 144452, Note_on_c, 0, 92, 51
1, 144454, Note_off_c, 0, 83, 65
1, 144506, Note_off_c, 0, 76, 64
1, 144526, Note_off_c, 0, 71, 63
1, 144652, Note_on_c, 0, 95, 58
1, 144668, Note_off_c, 0, 92, 32
1, 144708, Note_off_c, 0, 95, 62
1, 144875, Note_on_c, 0, 32, 40
1, 144896, Note_on_c, 0, 44, 32
1, 144904, Note_on_c, 0, 80, 50
1, 144938, Note_off_c, 0, 32, 59
1, 144952, Note_off_c, 0, 44, 56
1, 145017, Note_off_c, 0, 80, 54
1, 145140, Note_on_c, 0, 85, 47
1, 145266, Note_off_c, 0, 85, 48
1, 145333, Note_on_c, 0, 76, 41
1, 145343, Note_on_c, 0, 92, 51
1, 145349, Note_on_c, 0, 69, 25
1, 145366, Note_off_c, 0, 76, 59
1, 145390, Note_off_c, 0, 69, 50
1, 145424, Note_off_c, 0, 92, 52
1, 145506, Note_on_c, 0, 97, 54
1, 145548, Note_off_c, 0, 97, 64
1, 145632, Note_on_c, 0, 88, 56
1, 145642, Note_on_c, 0, 81, 50
1, 145659, Note_off_c, 0, 88, 66
1, 145673, Note_on_c, 0, 92, 55
1, 145686, Note_off_c, 0, 81, 65
1, 145741, Note_off_c, 0, 92, 54
1, 145802, Note_on_c, 0, 85, 56
1, 145869, Note_off_c, 0, 85, 62
1, 145939, Note_on_c, 0, 66, 46
1, 145944, Note_on_c, 0, 62, 47
1, 145944, Note_on_c, 0, 78, 50
1, 145951, Note_on_c, 0, 72, 30
1, 145979, Note_off_c, 0, 66, 64
1, 145980, Note_off_c, 0, 62, 65
1, 145984, Note_off_c, 0, 72, 53
1, 146010, Note_on_c, 0, 84, 60
1, 146013, Note_off_c, 0, 78, 58
1, 146051, Note_off_c, 0, 84, 62
1, 146084, Note_on_c, 0, 88, 54
1, 146122, Note_off_c, 0, 88, 65
1, 146144, Note_on_c, 0, 92, 53
1, 146204, Note_off_c, 0, 92, 56
1, 146221, Note_on_c, 0, 32, 50
1, 146231, Note_on_c, 0, 44, 55
1, 146237, Note_on_c, 0, 80, 60
1, 146257, Note_off_c, 0, 32, 57
1, 146259, Note_off_c, 0, 44, 61
1, 146373, Note_off_c, 0, 80, 43
1, 146398, Note_on_c, 0, 85, 67
1, 146510, Note_off_c, 0, 85, 63
1, 146531, Note_on_c, 0, 76, 60
1, 146543, Note_on_c, 0, 69, 52
1, 146552, Note_on_c, 0, 92, 66
1, 146567, Note_off_c, 0, 76, 64
1, 146582, Note_off_c, 0, 69, 59
1, 146623, Note_off_c, 0, 92, 60
1, 146684, Note_on_c, 0, 97, 64
1, 146764, Note_off_c, 0, 97, 61
1, 146809, Note_on_c, 0, 88, 65
1, 146824, Note_on_c, 0, 81, 50
1, 146838, Note_off_c, 0, 88, 69
1, 146843, Note_on_c, 0, 92, 57
1, 146868, Note_off_c, 0, 81, 64
1, 146913, Note_off_c, 0, 92, 58
1, 146988, Note_on_c, 0, 85, 56
1, 147050, Note_off_c, 0, 85, 60
1, 147122, Note_on_c, 0, 72, 45
1, 147122, Note_on_c, 0, 62, 50
1, 147125, Note_on_c, 0, 66, 49
1, 147134, Note_on_c, 0, 78, 42
1, 147151, Note_off_c, 0, 72, 65
1, 147169, Note_off_c, 0, 62, 62
1, 147170, Note_off_c, 0, 66, 62
1, 147194, Note_on_c, 0, 84, 58
1, 147218, Note_off_c, 0, 78, 60
1, 147247, Note_off_c, 0, 84, 60
1, 147277, Note_on_c, 0, 88, 52
1, 147347, Note_off_c, 0, 88, 62
1, 147356, Note_on_c, 0, 92, 58
1, 147413, Note_off_c, 0, 92, 57
1, 147451, Note_on_c, 0, 32, 48
1, 147463, Note_on_c, 0, 44, 52
1, 147497, Note_off_c, 0, 32, 58
1, 147506, Note_off_c, 0, 44, 64
1, 147586, Note_on_c, 0, 80, 56
1, 147656, Note_off_c, 0, 80, 61
1, 147672, Note_on_c, 0, 85, 51
1, 147692, Note_off_c, 0, 85, 62
1, 147733, Note_on_c, 0, 92, 58
1, 147768, Note_off_c, 0, 92, 63
1, 147809, Note_on_c, 0, 97, 70
1, 147812, Note_on_c, 0, 88, 72
1, 147825, Note_on_c, 0, 81, 36
1, 147852, Note_off_c, 0, 88, 61
1, 147859, Note_off_c, 0, 97, 64
1, 147866, Note_off_c, 0, 81, 66
1, 147882, Note_on_c, 0, 92, 57
1, 147921, Note_off_c, 0, 92, 65
1, 147938, Note_on_c, 0, 85, 70
1, 147977, Note_off_c, 0, 85, 59
1, 147981, Note_on_c, 0, 80, 65
1, 147998, Note_off_c, 0, 80, 67
1, 148049, Note_on_c, 0, 76, 71
1, 148070, Note_on_c, 0, 69, 58
1, 148093, Note_off_c, 0, 76, 60
1, 148106, Note_on_c, 0, 73, 72
1, 148168, Note_off_c, 0, 73, 62
1, 148180, Note_on_c, 0, 80, 68
1, 148206, Note_off_c, 0, 80, 69
1, 148245, Note_on_c, 0, 85, 75
1, 148275, Note_off_c, 0, 85, 61
1, 148280, Note_off_c, 0, 69, 50
1, 148304, Note_on_c, 0, 76, 66
1, 148311, Note_on_c, 0, 92, 66
1, 148340, Note_off_c, 0, 92, 67
1, 148347, Note_on_c, 0, 81, 20
1, 148353, Note_off_c, 0, 76, 60
1, 148383, Note_off_c, 0, 81, 46
1, 148411, Note_on_c, 0, 85, 28
1, 148442, Note_off_c, 0, 85, 33
1, 148464, Note_on_c, 0, 79, 27
1, 148483, Note_on_c, 0, 73, 64
1, 148496, Note_off_c, 0, 79, 49
1, 148531, Note_off_c, 0, 73, 65
1, 148574, Note_on_c, 0, 69, 58
1, 148588, Note_on_c, 0, 64, 49
1, 148615, Note_off_c, 0, 69, 58
1, 148704, Poly_aftertouch_c, 0, 68, 127
1, 148739, Poly_aftertouch_c, 0, 68, 0
1, 148776, Poly_aftertouch_c, 0, 73, 0
1, 148780, Note_on_c, 0, 80, 28
1, 148785, Note_off_c, 0, 64, 59
1, 148816, Note_off_c, 0, 80, 33
1, 148825, Note_on_c, 0, 69, 55
1, 148833, Note_on_c, 0, 76, 49
1, 148845, Note_on_c, 0, 85, 56
1, 148854, Note_off_c, 0, 76, 59
1, 148868, Note_off_c, 0, 69, 64
1, 148893, Note_off_c, 0, 85, 64
1, 148907, Note_on_c, 0, 80, 52
1, 148949, Note_off_c, 0, 80, 63
1, 148967, Note_on_c, 0, 73, 59
1, 149005, Note_off_c, 0, 73, 67
1, 149099, Note_on_c, 0, 64, 56
1, 149111, Poly_aftertouch_c, 0, 68, 0
1, 149128, Note_on_c, 0, 57, 32
1, 149138, Note_off_c, 0, 64, 60
1, 149181, Note_on_c, 0, 61, 55
1, 149217, Poly_aftertouch_c, 0, 70, 127
1, 149218, Note_off_c, 0, 61, 63
1, 149232, Note_on_c, 0, 68, 61
1, 149255, Poly_aftertouch_c, 0, 70, 0
1, 149286, Note_off_c, 0, 68, 55
1, 149311, Note_on_c, 0, 73, 64
1, 149354, Note_off_c, 0, 73, 53
1, 149360, Note_off_c, 0, 57, 41
1, 149390, Note_on_c, 0, 64, 49
1, 149393, Note_on_c, 0, 80, 64
1, 149428, Note_off_c, 0, 64, 64
1, 149429, Note_off_c, 0, 80, 63
1, 149471, Note_on_c, 0, 73, 53
1, 149540, Note_on_c, 0, 68, 56
1, 149545, Note_off_c, 0, 73, 64
1, 149602, Note_off_c, 0, 68, 49
1, 149615, Note_on_c, 0, 61, 55
1, 149650, Note_off_c, 0, 61, 59
1, 149731, Note_on_c, 0, 52, 37
1, 149744, Note_on_c, 0, 57, 43
1, 149807, Note_off_c, 0, 57, 57
1, 149855, Control_c, 0, 67, 124
1, 149869, Control_c, 0, 67, 116
1, 149884, Control_c, 0, 67, 106
1, 149885, Note_off_c, 0, 52, 34
1, 149899, Control_c, 0, 67, 94
1, 149912, Poly_aftertouch_c, 0, 56, 127
1, 149914, Control_c, 0, 67, 79
1, 149920, Note_on_c, 0, 61, 48
1, 149929, Control_c, 0, 67, 61
1, 149943, Control_c, 0, 67, 45
1, 149949, Poly_aftertouch_c, 0, 56, 0
1, 149958, Control_c, 0, 67, 31
1, 149959, Note_off_c, 0, 61, 62
1, 149973, Control_c, 0, 67, 19
1, 149988, Control_c, 0, 67, 9
1, 150002, Control_c, 0, 67, 0
1, 150009, Note_on_c, 0, 68, 35
1, 150042, Note_off_c, 0, 68, 56
1, 150048, Note_on_c, 0, 52, 38
1, 150061, Note_on_c, 0, 57, 36
1, 150068, Note_on_c, 0, 73, 55
1, 150088, Note_off_c, 0, 73, 61
1, 150110, Note_off_c, 0, 57, 56
1, 150123, Note_off_c, 0, 52, 49
1, 150147, Note_on_c, 0, 68, 47
1, 150189, Note_off_c, 0, 68, 58
1, 150225, Note_on_c, 0, 61, 38
1, 150257, Note_on_c, 0, 56, 55
1, 150270, Note_off_c, 0, 61, 55
1, 150290, Note_off_c, 0, 56, 64
1, 150304, Note_on_c, 0, 57, 56
1, 150311, Note_on_c, 0, 52, 44
1, 150369, Note_off_c, 0, 57, 59
1, 150372, Note_off_c, 0, 52, 55
1, 150383, Note_on_c, 0, 56, 58
1, 150416, Note_off_c, 0, 56, 65
1, 150422, Note_on_c, 0, 61, 63
1, 150492, Note_off_c, 0, 61, 62
1, 150519, Note_on_c, 0, 68, 48
1, 150558, Note_off_c, 0, 68, 64
1, 150568, Note_on_c, 0, 57, 60
1, 150568, Note_on_c, 0, 73, 67
1, 150573, Note_on_c, 0, 52, 54
1, 150592, Note_off_c, 0, 73, 67
1, 150635, Note_on_c, 0, 68, 62
1, 150671, Note_off_c, 0, 57, 55
1, 150681, Note_off_c, 0, 52, 55
1, 150693, Note_on_c, 0, 61, 58
1, 150696, Note_off_c, 0, 68, 59
1, 150736, Note_on_c, 0, 56, 69
1, 150773, Note_off_c, 0, 61, 52
1, 150777, Note_off_c, 0, 56, 62
1, 150811, Note_on_c, 0, 57, 72
1, 150812, Note_on_c, 0, 52, 64
1, 150878, Note_on_c, 0, 56, 63
1, 150910, Note_on_c, 0, 61, 67
1, 150915, Note_off_c, 0, 56, 66
1, 150919, Note_off_c, 0, 57, 61
1, 150931, Note_off_c, 0, 52, 61
1, 150974, Note_off_c, 0, 61, 62
1, 150988, Note_on_c, 0, 68, 65
1, 151045, Note_off_c, 0, 68, 64
1, 151051, Note_on_c, 0, 73, 73
1, 151067, Note_on_c, 0, 52, 68
1, 151067, Note_on_c, 0, 57, 73
1, 151078, Note_off_c, 0, 73, 68
1, 151125, Note_on_c, 0, 68, 68
1, 151158, Note_off_c, 0, 57, 53
1, 151188, Note_off_c, 0, 68, 62
1, 151191, Note_off_c, 0, 52, 53
1, 151194, Note_on_c, 0, 61, 62
1, 151229, Note_on_c, 0, 56, 78
1, 151281, Note_off_c, 0, 61, 56
1, 151289, Note_off_c, 0, 56, 63
1, 151343, Note_on_c, 0, 52, 62
1, 151345, Note_on_c, 0, 57, 67
1, 151384, Note_off_c, 0, 57, 57
1, 151409, Note_on_c, 0, 56, 61
1, 151416, Note_off_c, 0, 52, 57
1, 151437, Note_off_c, 0, 56, 66
1, 151440, Note_on_c, 0, 61, 64
1, 151490, Note_off_c, 0, 61, 60
1, 151527, Note_on_c, 0, 68, 51
1, 151563, Note_off_c, 0, 68, 58
1, 151579, Note_on_c, 0, 73, 67
1, 151609, Note_on_c, 0, 52, 54
1, 151611, Note_on_c, 0, 57, 53
1, 151631, Note_off_c, 0, 73, 65
1, 151633, Note_off_c, 0, 57, 65
1, 151645, Note_off_c, 0, 52, 65
1, 151668, Note_on_c, 0, 68, 54
1, 151709, Note_off_c, 0, 68, 62
1, 151727, Note_on_c, 0, 61, 50
1, 151772, Note_off_c, 0, 61, 62
1, 151780, Note_on_c, 0, 56, 66
1, 151826, Control_c, 0, 64, 111
1, 151831, Note_off_c, 0, 56, 60
1, 151840, Control_c, 0, 64, 78
1, 151855, Control_c, 0, 64, 65
1, 151870, Control_c, 0, 64, 59
1, 151885, Control_c, 0, 64, 61
1, 151900, Note_on_c, 0, 42, 58
1, 151900, Control_c, 0, 64, 64
1, 151905, Note_on_c, 0, 51, 62
1, 151912, Note_on_c, 0, 56, 55
1, 151914, Control_c, 0, 64, 66
1, 151929, Control_c, 0, 64, 72
1, 151934, Note_off_c, 0, 42, 64
1, 151944, Note_off_c, 0, 51, 63
1, 151944, Control_c, 0, 64, 86
1, 151952, Note_off_c, 0, 56, 58
1, 151958, Control_c, 0, 64, 127
1, 152001, Note_on_c, 0, 52, 53
1, 152030, Note_on_c, 0, 57, 61
1, 152048, Note_off_c, 0, 52, 65
1, 152088, Note_on_c, 0, 60, 58
1, 152100, Note_off_c, 0, 57, 61
1, 152130, Note_off_c, 0, 60, 65
1, 152133, Note_on_c, 0, 64, 54
1, 152162, Note_off_c, 0, 64, 65
1, 152201, Note_on_c, 0, 54, 59
1, 152206, Note_on_c, 0, 68, 73
1, 152225, Note_on_c, 0, 66, 31
1, 152231, Note_off_c, 0, 54, 66
1, 152244, Note_on_c, 0, 64, 67
1, 152260, Note_off_c, 0, 68, 54
1, 152261, Note_off_c, 0, 66, 50
1, 152287, Note_on_c, 0, 69, 75
1, 152300, Note_off_c, 0, 64, 64
1, 152344, Note_on_c, 0, 72, 69
1, 152365, Note_off_c, 0, 69, 62
1, 152372, Note_on_c, 0, 76, 78
1, 152374, Note_on_c, 0, 71, 9
1, 152386, Note_off_c, 0, 72, 64
1, 152419, Note_off_c, 0, 76, 64
1, 152422, Note_off_c, 0, 71, 37
1, 152443, Note_on_c, 0, 80, 85
1, 152449, Note_on_c, 0, 68, 49
1, 152489, Note_on_c, 0, 76, 73
1, 152489, Note_off_c, 0, 68, 64
1, 152495, Note_off_c, 0, 80, 62
1, 152525, Note_on_c, 0, 81, 80
1, 152529, Note_off_c, 0, 76, 67
1, 152568, Note_on_c, 0, 83, 63
1, 152568, Note_on_c, 0, 84, 79
1, 152592, Note_on_c, 0, 88, 86
1, 152594, Note_off_c, 0, 81, 64
1, 152595, Note_off_c, 0, 83, 67
1, 152614, Note_off_c, 0, 84, 66
1, 152633, Note_off_c, 0, 88, 68
1, 152660, Note_on_c, 0, 78, 62
1, 152660, Note_on_c, 0, 90, 95
1, 152690, Note_off_c, 0, 78, 67
1, 152696, Note_on_c, 0, 86, 82
1, 152699, Note_on_c, 0, 80, 38
1, 152709, Note_off_c, 0, 90, 62
1, 152724, Note_off_c, 0, 80, 57
1, 152749, Note_on_c, 0, 89, 74
1, 152754, Note_on_c, 0, 91, 62
1, 152755, Note_off_c, 0, 86, 66
1, 152782, Note_on_c, 0, 93, 72
1, 152788, Note_on_c, 0, 95, 84
1, 152791, Note_off_c, 0, 89, 65
1, 152808, Note_off_c, 0, 93, 71
1, 152809, Note_off_c, 0, 91, 62
1, 152810, Note_on_c, 0, 98, 87
1, 152830, Note_off_c, 0, 95, 67
1, 152844, Note_off_c, 0, 98, 65
1, 152861, Note_on_c, 0, 90, 73
1, 152865, Control_c, 0, 64, 80
1, 152880, Control_c, 0, 64, 64
1, 152894, Control_c, 0, 64, 57
1, 152909, Note_on_c, 0, 92, 69
1, 152909, Control_c, 0, 64, 58
1, 152924, Control_c, 0, 64, 59
1, 152931, Note_off_c, 0, 90, 65
1, 152937, Note_on_c, 0, 93, 74
1, 152939, Control_c, 0, 64, 62
1, 152949, Note_on_c, 0, 97, 88
1, 152954, Control_c, 0, 64, 65
1, 152968, Control_c, 0, 64, 71
1, 152973, Note_on_c, 0, 98, 71
1, 152983, Control_c, 0, 64, 82
1, 152998, Control_c, 0, 64, 108
1, 153001, Note_off_c, 0, 93, 66
1, 153006, Note_off_c, 0, 97, 62
1, 153012, Control_c, 0, 64, 127
1, 153022, Note_on_c, 0, 100, 78
1, 153054, Note_off_c, 0, 98, 67
1, 153063, Note_off_c, 0, 92, 62
1, 153065, Note_on_c, 0, 105, 80
1, 153072, Note_off_c, 0, 100, 66
1, 153090, Note_off_c, 0, 105, 68
1, 153101, Note_on_c, 0, 90, 76
1, 153132, Note_on_c, 0, 94, 65
1, 153137, Note_off_c, 0, 90, 65
1, 153179, Note_on_c, 0, 93, 68
1, 153187, Note_on_c, 0, 98, 59
1, 153203, Note_off_c, 0, 94, 54
1, 153227, Note_off_c, 0, 93, 67
1, 153229, Note_on_c, 0, 99, 51
1, 153256, Note_off_c, 0, 99, 51
1, 153259, Note_on_c, 0, 101, 71
1, 153269, Note_on_c, 0, 107, 82
1, 153270, Note_off_c, 0, 98, 63
1, 153287, Note_off_c, 0, 101, 67
1, 153295, Note_off_c, 0, 107, 65
1, 153327, Note_on_c, 0, 88, 76
1, 153381, Note_on_c, 0, 90, 63
1, 153399, Note_off_c, 0, 88, 64
1, 153407, Note_on_c, 0, 96, 50
1, 153408, Note_on_c, 0, 91, 56
1, 153423, Note_on_c, 0, 95, 44
1, 153453, Note_on_c, 0, 94, 78
1, 153457, Note_off_c, 0, 95, 49
1, 153465, Note_off_c, 0, 96, 60
1, 153487, Note_off_c, 0, 91, 64
1, 153495, Note_on_c, 0, 98, 78
1, 153496, Note_off_c, 0, 90, 58
1, 153512, Note_on_c, 0, 103, 84
1, 153517, Note_off_c, 0, 94, 63
1, 153520, Note_off_c, 0, 98, 70
1, 153547, Note_on_c, 0, 88, 74
1, 153557, Note_off_c, 0, 103, 64
1, 153595, Note_on_c, 0, 92, 73
1, 153605, Note_off_c, 0, 88, 62
1, 153631, Note_on_c, 0, 93, 73
1, 153634, Note_on_c, 0, 96, 67
1, 153655, Note_off_c, 0, 92, 61
1, 153663, Note_off_c, 0, 96, 66
1, 153680, Note_on_c, 0, 97, 75
1, 153698, Note_off_c, 0, 93, 65
1, 153709, Note_on_c, 0, 100, 82
1, 153727, Note_on_c, 0, 105, 91
1, 153736, Note_off_c, 0, 100, 67
1, 153741, Note_off_c, 0, 97, 64
1, 153762, Note_off_c, 0, 105, 63
1, 153774, Note_on_c, 0, 86, 67
1, 153806, Note_on_c, 0, 88, 57
1, 153847, Note_off_c, 0, 86, 62
1, 153850, Note_on_c, 0, 95, 58
1, 153869, Note_off_c, 0, 95, 62
1, 153897, Note_on_c, 0, 89, 53
1, 153909, Note_on_c, 0, 92, 76
1, 153929, Note_off_c, 0, 89, 65
1, 153939, Note_off_c, 0, 92, 66
1, 153948, Note_on_c, 0, 96, 76
1, 153967, Note_on_c, 0, 101, 83
1, 153985, Note_off_c, 0, 88, 34
1, 153987, Note_on_c, 0, 86, 61
1, 153987, Note_off_c, 0, 96, 63
1, 154011, Note_off_c, 0, 101, 63
1, 154024, Note_on_c, 0, 90, 68
1, 154033, Note_off_c, 0, 86, 56
1, 154073, Note_off_c, 0, 90, 59
1, 154078, Note_on_c, 0, 91, 75
1, 154088, Note_on_c, 0, 95, 44
1, 154121, Note_off_c, 0, 95, 0
1, 154121, Note_on_c, 0, 95, 22
1, 154128, Note_off_c, 0, 91, 66
1, 154150, Note_on_c, 0, 98, 82
1, 154168, Note_on_c, 0, 103, 85
1, 154173, Note_off_c, 0, 95, 64
1, 154175, Note_off_c, 0, 98, 69
1, 154177, Control_c, 0, 64, 101
1, 154192, Control_c, 0, 64, 78
1, 154192, Note_off_c, 0, 103, 67
1, 154207, Control_c, 0, 64, 66
1, 154216, Note_on_c, 0, 84, 61
1, 154222, Control_c, 0, 64, 65
1, 154235, Note_on_c, 0, 86, 61
1, 154243, Note_on_c, 0, 93, 77
1, 154243, Control_c, 0, 64, 67
1, 154258, Control_c, 0, 64, 70
1, 154266, Note_off_c, 0, 93, 69
1, 154273, Control_c, 0, 64, 73
1, 154288, Control_c, 0, 64, 80
1, 154300, Note_off_c, 0, 84, 59
1, 154303, Control_c, 0, 64, 92
1, 154318, Control_c, 0, 64, 115
1, 154332, Control_c, 0, 64, 127
1, 154350, Note_on_c, 0, 87, 26
1, 154354, Note_on_c, 0, 88, 61
1, 154368, Note_on_c, 0, 90, 35
1, 154369, Note_off_c, 0, 90, 127
1, 154371, Note_off_c, 0, 88, 65
1, 154381, Note_off_c, 0, 87, 51
1, 154395, Note_off_c, 0, 86, 57
1, 154400, Note_on_c, 0, 99, 82
1, 154411, Note_on_c, 0, 84, 63
1, 154418, Note_on_c, 0, 95, 48
1, 154440, Note_off_c, 0, 95, 58
1, 154455, Note_off_c, 0, 99, 63
1, 154462, Note_on_c, 0, 88, 64
1, 154476, Note_off_c, 0, 84, 63
1, 154501, Note_on_c, 0, 92, 71
1, 154522, Note_off_c, 0, 88, 66
1, 154532, Note_off_c, 0, 92, 62
1, 154535, Note_on_c, 0, 89, 72
1, 154569, Note_on_c, 0, 93, 65
1, 154585, Note_off_c, 0, 89, 61
1, 154603, Note_on_c, 0, 96, 76
1, 154605, Note_off_c, 0, 93, 61
1, 154627, Note_on_c, 0, 101, 64
1, 154628, Note_off_c, 0, 96, 70
1, 154630, Control_c, 0, 64, 111
1, 154645, Control_c, 0, 64, 78
1, 154646, Note_off_c, 0, 101, 62
1, 154659, Control_c, 0, 64, 65
1, 154669, Note_on_c, 0, 82, 53
1, 154674, Control_c, 0, 64, 62
1, 154681, Note_on_c, 0, 84, 66
1, 154689, Control_c, 0, 64, 64
1, 154699, Note_on_c, 0, 90, 69
1, 154703, Note_off_c, 0, 82, 59
1, 154704, Control_c, 0, 64, 66
1, 154719, Control_c, 0, 64, 69
1, 154725, Note_off_c, 0, 90, 64
1, 154732, Note_off_c, 0, 84, 64
1, 154733, Control_c, 0, 64, 76
1, 154748, Control_c, 0, 64, 87
1, 154755, Note_on_c, 0, 86, 55
1, 154763, Control_c, 0, 64, 108
1, 154766, Note_on_c, 0, 84, 50
1, 154774, Note_off_c, 0, 86, 61
1, 154777, Control_c, 0, 64, 127
1, 154780, Note_on_c, 0, 88, 64
1, 154793, Note_off_c, 0, 84, 65
1, 154817, Note_on_c, 0, 91, 77
1, 154827, Note_off_c, 0, 88, 53
1, 154833, Note_on_c, 0, 96, 77
1, 154848, Note_off_c, 0, 91, 64
1, 154863, Note_off_c, 0, 96, 63
1, 154882, Note_on_c, 0, 78, 73
1, 154898, Note_on_c, 0, 80, 68
1, 154936, Note_on_c, 0, 87, 49
1, 154938, Note_off_c, 0, 78, 63
1, 154952, Note_off_c, 0, 80, 63
1, 154959, Note_off_c, 0, 87, 57
1, 154971, Note_on_c, 0, 81, 68
1, 155005, Note_on_c, 0, 84, 59
1, 155018, Note_off_c, 0, 81, 63
1, 155048, Note_on_c, 0, 86, 60
1, 155050, Note_off_c, 0, 84, 63
1, 155051, Note_on_c, 0, 93, 81
1, 155066, Note_off_c, 0, 86, 63
1, 155069, Note_on_c, 0, 88, 43
1, 155078, Note_off_c, 0, 93, 66
1, 155095, Note_off_c, 0, 88, 36
1, 155105, Note_on_c, 0, 75, 74
1, 155146, Note_on_c, 0, 77, 63
1, 155164, Note_on_c, 0, 84, 74
1, 155180, Note_off_c, 0, 75, 62
1, 155188, Note_off_c, 0, 84, 70
1, 155204, Note_off_c, 0, 77, 64
1, 155229, Note_on_c, 0, 78, 63
1, 155244, Note_on_c, 0, 82, 79
1, 155254, Note_off_c, 0, 78, 64
1, 155264, Note_on_c, 0, 90, 79
1, 155269, Note_on_c, 0, 85, 60
1, 155274, Note_off_c, 0, 82, 63
1, 155293, Note_off_c, 0, 85, 65
1, 155310, Note_off_c, 0, 90, 62
1, 155331, Note_on_c, 0, 72, 66
1, 155349, Note_on_c, 0, 74, 71
1, 155390, Note_on_c, 0, 79, 53
1, 155390, Note_off_c, 0, 72, 63
1, 155403, Note_off_c, 0, 74, 62
1, 155409, Note_off_c, 0, 79, 62
1, 155419, Note_on_c, 0, 75, 75
1, 155444, Note_off_c, 0, 75, 68
1, 155455, Note_on_c, 0, 78, 70
1, 155476, Note_on_c, 0, 82, 68
1, 155485, Note_on_c, 0, 87, 71
1, 155491, Note_off_c, 0, 78, 63
1, 155503, Note_off_c, 0, 82, 67
1, 155512, Note_off_c, 0, 87, 69
1, 155569, Note_on_c, 0, 68, 48
1, 155579, Note_on_c, 0, 67, 57
1, 155608, Note_on_c, 0, 69, 40
1, 155619, Note_off_c, 0, 68, 38
1, 155629, Note_on_c, 0, 72, 70
1, 155632, Note_off_c, 0, 67, 59
1, 155656, Note_off_c, 0, 72, 69
1, 155657, Note_on_c, 0, 75, 20
1, 155658, Note_off_c, 0, 75, 127
1, 155658, Note_off_c, 0, 69, 56
1, 155662, Note_on_c, 0, 76, 58
1, 155695, Note_on_c, 0, 79, 74
1, 155711, Note_on_c, 0, 84, 72
1, 155733, Note_off_c, 0, 76, 64
1, 155736, Note_off_c, 0, 79, 64
1, 155745, Note_off_c, 0, 84, 67
1, 155799, Note_on_c, 0, 63, 72
1, 155823, Note_on_c, 0, 66, 56
1, 155843, Note_on_c, 0, 73, 77
1, 155844, Note_on_c, 0, 69, 69
1, 155868, Note_off_c, 0, 63, 60
1, 155869, Note_off_c, 0, 73, 67
1, 155886, Note_off_c, 0, 69, 62
1, 155889, Note_off_c, 0, 66, 63
1, 155891, Note_on_c, 0, 72, 68
1, 155907, Note_on_c, 0, 76, 82
1, 155921, Note_on_c, 0, 81, 79
1, 155945, Note_off_c, 0, 72, 64
1, 155947, Note_off_c, 0, 76, 62
1, 155952, Note_off_c, 0, 81, 62
1, 156010, Note_on_c, 0, 63, 59
1, 156027, Note_on_c, 0, 65, 66
1, 156030, Note_off_c, 0, 63, 62
1, 156042, Note_on_c, 0, 71, 75
1, 156056, Note_on_c, 0, 62, 30
1, 156070, Note_off_c, 0, 71, 65
1, 156076, Note_off_c, 0, 65, 58
1, 156091, Note_off_c, 0, 62, 46
1, 156103, Note_on_c, 0, 70, 78
1, 156126, Note_on_c, 0, 73, 71
1, 156127, Note_on_c, 0, 78, 72
1, 156162, Note_off_c, 0, 70, 64
1, 156166, Note_off_c, 0, 73, 62
1, 156169, Note_off_c, 0, 78, 58
1, 156199, Note_on_c, 0, 60, 61
1, 156205, Note_on_c, 0, 62, 61
1, 156258, Note_off_c, 0, 60, 63
1, 156264, Note_off_c, 0, 62, 61
1, 156297, Note_on_c, 0, 63, 71
1, 156317, Note_on_c, 0, 75, 71
1, 156321, Note_on_c, 0, 66, 61
1, 156326, Note_on_c, 0, 73, 57
1, 156337, Note_off_c, 0, 63, 49
1, 156347, Note_off_c, 0, 73, 62
1, 156381, Note_off_c, 0, 66, 63
1, 156387, Note_off_c, 0, 75, 62
1, 156407, Control_c, 0, 64, 105
1, 156422, Control_c, 0, 64, 72
1, 156424, Note_on_c, 0, 54, 81
1, 156437, Control_c, 0, 64, 58
1, 156452, Control_c, 0, 64, 56
1, 156458, Note_on_c, 0, 53, 49
1, 156467, Control_c, 0, 64, 58
1, 156489, Control_c, 0, 64, 60
1, 156502, Note_off_c, 0, 53, 48
1, 156504, Control_c, 0, 64, 64
1, 156505, Note_on_c, 0, 67, 66
1, 156513, Note_on_c, 0, 72, 70
1, 156518, Control_c, 0, 64, 71
1, 156533, Control_c, 0, 64, 89
1, 156537, Note_off_c, 0, 67, 63
1, 156541, Note_on_c, 0, 64, 60
1, 156547, Note_on_c, 0, 70, 67
1, 156548, Control_c, 0, 64, 127
1, 156553, Note_off_c, 0, 54, 52
1, 156572, Note_off_c, 0, 72, 60
1, 156586, Note_on_c, 0, 68, 23
1, 156599, Note_off_c, 0, 70, 64
1, 156604, Note_off_c, 0, 64, 64
1, 156626, Note_off_c, 0, 68, 41
1, 156636, Note_on_c, 0, 66, 82
1, 156684, Note_off_c, 0, 66, 59
1, 156701, Note_on_c, 0, 67, 65
1, 156703, Note_on_c, 0, 60, 72
1, 156719, Note_on_c, 0, 64, 65
1, 156753, Note_on_c, 0, 63, 25
1, 156756, Note_off_c, 0, 64, 55
1, 156758, Note_off_c, 0, 60, 66
1, 156792, Note_on_c, 0, 58, 81
1, 156803, Note_off_c, 0, 67, 62
1, 156820, Note_off_c, 0, 63, 37
1, 156822, Note_on_c, 0, 54, 85
1, 156839, Note_off_c, 0, 58, 59
1, 156891, Note_on_c, 0, 60, 69
1, 156898, Note_on_c, 0, 67, 78
1, 156914, Note_on_c, 0, 64, 63
1, 156929, Note_off_c, 0, 54, 64
1, 156956, Note_on_c, 0, 58, 88
1, 156965, Note_off_c, 0, 67, 63
1, 156978, Note_off_c, 0, 64, 64
1, 156983, Note_off_c, 0, 60, 57
1, 157016, Note_on_c, 0, 66, 86
1, 157036, Note_off_c, 0, 66, 71
1, 157078, Note_off_c, 0, 58, 58
1, 157087, Note_on_c, 0, 60, 72
1, 157088, Note_on_c, 0, 55, 74
1, 157105, Note_on_c, 0, 52, 73
1, 157144, Note_on_c, 0, 58, 62
1, 157153, Note_off_c, 0, 55, 61
1, 157156, Note_off_c, 0, 60, 64
1, 157165, Note_off_c, 0, 52, 65
1, 157170, Note_on_c, 0, 56, 43
1, 157176, Note_off_c, 0, 58, 57
1, 157186, Control_c, 0, 64, 87
1, 157197, Note_off_c, 0, 56, 55
1, 157200, Control_c, 0, 64, 65
1, 157208, Note_on_c, 0, 44, 85
1, 157215, Control_c, 0, 64, 52
1, 157237, Note_on_c, 0, 43, 58
1, 157238, Control_c, 0, 64, 51
1, 157253, Control_c, 0, 64, 53
1, 157266, Note_on_c, 0, 55, 73
1, 157267, Control_c, 0, 64, 57
1, 157273, Note_on_c, 0, 60, 72
1, 157282, Control_c, 0, 64, 63
1, 157297, Control_c, 0, 64, 70
1, 157305, Note_on_c, 0, 58, 68
1, 157312, Control_c, 0, 64, 83
1, 157314, Note_off_c, 0, 43, 51
1, 157327, Control_c, 0, 64, 127
1, 157329, Note_on_c, 0, 52, 74
1, 157334, Note_off_c, 0, 60, 63
1, 157337, Note_off_c, 0, 44, 57
1, 157337, Note_off_c, 0, 55, 51
1, 157370, Note_off_c, 0, 58, 62
1, 157382, Note_off_c, 0, 52, 65
1, 157409, Note_on_c, 0, 54, 89
1, 157457, Note_on_c, 0, 55, 68
1, 157462, Note_on_c, 0, 48, 74
1, 157465, Note_off_c, 0, 54, 62
1, 157479, Note_on_c, 0, 52, 70
1, 157548, Note_off_c, 0, 48, 58
1, 157550, Note_on_c, 0, 46, 81
1, 157568, Note_off_c, 0, 55, 63
1, 157592, Note_off_c, 0, 52, 58
1, 157604, Note_on_c, 0, 42, 92
1, 157648, Note_off_c, 0, 46, 52
1, 157652, Note_on_c, 0, 52, 40
1, 157659, Note_on_c, 0, 55, 76
1, 157670, Note_off_c, 0, 42, 66
1, 157671, Note_on_c, 0, 48, 52
1, 157697, Note_off_c, 0, 52, 64
1, 157704, Note_off_c, 0, 55, 61
1, 157711, Note_on_c, 0, 46, 58
1, 157720, Note_off_c, 0, 48, 57
1, 157766, Poly_aftertouch_c, 0, 51, 127
1, 157793, Note_off_c, 0, 46, 0
1, 157793, Poly_aftertouch_c, 0, 51, 0
1, 157795, Note_on_c, 0, 54, 90
1, 157823, Note_off_c, 0, 54, 65
1, 157830, Poly_aftertouch_c, 0, 46, 127
1, 157846, Note_on_c, 0, 48, 68
1, 157853, Note_on_c, 0, 43, 64
1, 157856, Poly_aftertouch_c, 0, 46, 0
1, 157881, Note_on_c, 0, 40, 57
1, 157916, Note_on_c, 0, 46, 46
1, 157917, Note_off_c, 0, 48, 63
1, 157945, Note_off_c, 0, 43, 61
1, 157950, Note_off_c, 0, 40, 58
1, 157987, Control_c, 0, 64, 79
1, 158002, Control_c, 0, 64, 60
1, 158002, Note_on_c, 0, 30, 81
1, 158015, Note_off_c, 0, 46, 53
1, 158016, Control_c, 0, 64, 39
1, 158030, Note_on_c, 0, 43, 40
1, 158031, Control_c, 0, 64, 41
1, 158038, Note_on_c, 0, 32, 34
1, 158046, Control_c, 0, 64, 50
1, 158061, Control_c, 0, 64, 58
1, 158062, Note_off_c, 0, 43, 56
1, 158067, Note_on_c, 0, 40, 53
1, 158076, Control_c, 0, 64, 65
1, 158090, Control_c, 0, 64, 73
1, 158097, Note_off_c, 0, 40, 63
1, 158105, Control_c, 0, 64, 91
1, 158120, Control_c, 0, 64, 127
1, 158134, Note_off_c, 0, 32, 0
1, 158146, Note_off_c, 0, 30, 57
1, 158171, Poly_aftertouch_c, 0, 32, 127
1, 158181, Note_on_c, 0, 43, 31
1, 158193, Note_on_c, 0, 42, 76
1, 158194, Control_c, 0, 67, 12
1, 158195, Note_on_c, 0, 36, 58
1, 158203, Note_on_c, 0, 40, 49
1, 158208, Control_c, 0, 67, 27
1, 158221, Note_off_c, 0, 43, 57
1, 158223, Control_c, 0, 67, 41
1, 158238, Control_c, 0, 67, 56
1, 158247, Note_off_c, 0, 42, 52
1, 158253, Control_c, 0, 67, 72
1, 158268, Control_c, 0, 67, 83
1, 158280, Note_on_c, 0, 34, 56
1, 158282, Control_c, 0, 67, 95
1, 158286, Note_off_c, 0, 36, 59
1, 158291, Note_off_c, 0, 40, 57
1, 158297, Poly_aftertouch_c, 0, 32, 0
1, 158297, Control_c, 0, 67, 102
1, 158314, Note_off_c, 0, 34, 61
1, 158342, Control_c, 0, 67, 103
1, 158372, Control_c, 0, 67, 104
1, 158385, Note_on_c, 0, 43, 56
1, 158387, Control_c, 0, 67, 103
1, 158389, Note_on_c, 0, 30, 72
1, 158398, Note_on_c, 0, 36, 43
1, 158402, Control_c, 0, 67, 100
1, 158403, Note_on_c, 0, 40, 47
1, 158417, Control_c, 0, 67, 98
1, 158432, Control_c, 0, 67, 97
1, 158442, Note_off_c, 0, 30, 62
1, 158461, Note_on_c, 0, 34, 60
1, 158461, Control_c, 0, 67, 97
1, 158466, Note_off_c, 0, 36, 54
1, 158476, Control_c, 0, 67, 95
1, 158484, Note_off_c, 0, 40, 41
1, 158487, Note_off_c, 0, 43, 56
1, 158491, Control_c, 0, 67, 93
1, 158506, Control_c, 0, 67, 90
1, 158506, Note_off_c, 0, 34, 63
1, 158521, Control_c, 0, 67, 89
1, 158536, Control_c, 0, 67, 88
1, 158550, Control_c, 0, 67, 87
1, 158565, Control_c, 0, 67, 87
1, 158583, Note_on_c, 0, 42, 67
1, 158586, Note_on_c, 0, 36, 58
1, 158595, Control_c, 0, 67, 86
1, 158596, Note_on_c, 0, 43, 55
1, 158597, Note_on_c, 0, 40, 58
1, 158610, Control_c, 0, 67, 85
1, 158624, Control_c, 0, 67, 84
1, 158634, Note_off_c, 0, 42, 55
1, 158654, Control_c, 0, 67, 84
1, 158669, Control_c, 0, 67, 83
1, 158676, Note_off_c, 0, 36, 54
1, 158679, Note_off_c, 0, 40, 39
1, 158681, Note_on_c, 0, 34, 57
1, 158684, Control_c, 0, 67, 82
1, 158685, Note_off_c, 0, 43, 56
1, 158698, Control_c, 0, 67, 82
1, 158711, Note_off_c, 0, 34, 61
1, 158735, Control_c, 0, 67, 81
1, 158765, Control_c, 0, 67, 81
1, 158780, Control_c, 0, 67, 80
1, 158793, Note_on_c, 0, 40, 45
1, 158795, Control_c, 0, 67, 79
1, 158795, Note_on_c, 0, 43, 46
1, 158798, Note_on_c, 0, 36, 42
1, 158807, Note_on_c, 0, 30, 49
1, 158810, Control_c, 0, 67, 79
1, 158824, Control_c, 0, 67, 77
1, 158839, Control_c, 0, 67, 76
1, 158854, Control_c, 0, 67, 74
1, 158869, Control_c, 0, 67, 67
1, 158883, Note_on_c, 0, 34, 59
1, 158884, Control_c, 0, 67, 59
1, 158887, Note_off_c, 0, 30, 56
1, 158899, Control_c, 0, 67, 49
1, 158911, Note_off_c, 0, 43, 52
1, 158913, Control_c, 0, 67, 34
1, 158923, Note_off_c, 0, 36, 28
1, 158928, Control_c, 0, 67, 17
1, 158943, Control_c, 0, 67, 0
1, 158948, Note_off_c, 0, 34, 54
1, 159009, Note_on_c, 0, 42, 52
1, 159023, Note_off_c, 0, 40, 0
1, 159032, Note_on_c, 0, 36, 30
1, 159045, Note_on_c, 0, 40, 24
1, 159051, Note_on_c, 0, 43, 50
1, 159055, Note_off_c, 0, 42, 57
1, 159138, Note_on_c, 0, 34, 54
1, 159159, Note_off_c, 0, 36, 36
1, 159172, Note_off_c, 0, 34, 58
1, 159183, Note_off_c, 0, 43, 36
1, 159206, Note_off_c, 0, 40, 32
1, 159242, Note_on_c, 0, 30, 41
1, 159281, Note_on_c, 0, 36, 29
1, 159281, Note_on_c, 0, 43, 37
1, 159282, Note_on_c, 0, 40, 27
1, 159298, Note_off_c, 0, 30, 59
1, 159341, Note_off_c, 0, 36, 53
1, 159379, Note_on_c, 0, 34, 52
1, 159382, Note_off_c, 0, 40, 34
1, 159384, Note_off_c, 0, 43, 48
1, 159422, Note_on_c, 0, 42, 54
1, 159434, Note_off_c, 0, 34, 50
1, 159467, Note_off_c, 0, 42, 62
1, 159511, Note_on_c, 0, 36, 37
1, 159546, Note_on_c, 0, 43, 20
1, 159576, Note_off_c, 0, 36, 57
1, 159586, Poly_aftertouch_c, 0, 40, 127
1, 159588, Note_off_c, 0, 43, 50
1, 159594, Note_on_c, 0, 34, 51
1, 159630, Note_on_c, 0, 30, 48
1, 159636, Note_off_c, 0, 34, 59
1, 159643, Poly_aftertouch_c, 0, 40, 0
1, 159728, Note_off_c, 0, 30, 58
1, 159738, Note_on_c, 0, 34, 48
1, 159772, Note_off_c, 0, 34, 62
1, 159779, Note_on_c, 0, 37, 49
1, 159811, Note_on_c, 0, 36, 56
1, 159816, Note_off_c, 0, 37, 52
1, 159851, Note_off_c, 0, 36, 63
1, 159874, Note_on_c, 0, 40, 58
1, 159911, Note_on_c, 0, 43, 63
1, 159941, Note_off_c, 0, 40, 60
1, 159965, Note_on_c, 0, 48, 66
1, 159981, Note_off_c, 0, 43, 64
1, 159999, Note_on_c, 0, 42, 69
1, 160010, Note_off_c, 0, 48, 63
1, 160033, Poly_aftertouch_c, 0, 45, 127
1, 160034, Note_on_c, 0, 46, 70
1, 160061, Poly_aftertouch_c, 0, 45, 0
1, 160096, Note_on_c, 0, 49, 75
1, 160101, Note_off_c, 0, 42, 59
1, 160106, Note_on_c, 0, 48, 75
1, 160114, Note_off_c, 0, 46, 57
1, 160135, Note_off_c, 0, 49, 64
1, 160149, Note_off_c, 0, 48, 63
1, 160173, Note_on_c, 0, 51, 27
1, 160175, Note_on_c, 0, 52, 73
1, 160204, Note_on_c, 0, 55, 73
1, 160214, Note_off_c, 0, 51, 53
1, 160238, Note_off_c, 0, 52, 65
1, 160255, Note_on_c, 0, 60, 80
1, 160261, Note_off_c, 0, 55, 65
1, 160272, Note_on_c, 0, 57, 34
1, 160279, Note_on_c, 0, 54, 82
1, 160300, Note_off_c, 0, 60, 63
1, 160305, Note_on_c, 0, 58, 78
1, 160306, Note_off_c, 0, 57, 54
1, 160348, Note_on_c, 0, 61, 94
1, 160360, Note_off_c, 0, 58, 66
1, 160363, Note_on_c, 0, 62, 84
1, 160374, Note_off_c, 0, 54, 62
1, 160390, Note_off_c, 0, 61, 65
1, 160412, Note_off_c, 0, 62, 66
1, 160416, Note_on_c, 0, 64, 74
1, 160440, Note_on_c, 0, 67, 82
1, 160473, Note_on_c, 0, 72, 84
1, 160476, Note_off_c, 0, 64, 64
1, 160495, Note_on_c, 0, 69, 53
1, 160500, Note_off_c, 0, 67, 63
1, 160517, Note_off_c, 0, 69, 58
1, 160526, Note_on_c, 0, 66, 78
1, 160526, Note_off_c, 0, 72, 65
1, 160543, Note_on_c, 0, 73, 101
1, 160550, Note_on_c, 0, 65, 57
1, 160572, Note_off_c, 0, 65, 62
1, 160588, Note_on_c, 0, 74, 85
1, 160588, Note_off_c, 0, 73, 68
1, 160592, Note_off_c, 0, 66, 61
1, 160625, Note_off_c, 0, 74, 67
1, 160631, Note_on_c, 0, 77, 79
1, 160660, Note_on_c, 0, 81, 75
1, 160666, Note_on_c, 0, 79, 76
1, 160685, Note_on_c, 0, 86, 89
1, 160691, Note_off_c, 0, 79, 69
1, 160693, Note_off_c, 0, 77, 65
1, 160695, Note_on_c, 0, 83, 61
1, 160714, Note_off_c, 0, 81, 66
1, 160721, Note_off_c, 0, 83, 65
1, 160731, Note_off_c, 0, 86, 67
1, 160747, Note_on_c, 0, 85, 103
1, 160753, Note_on_c, 0, 87, 98
1, 160754, Note_on_c, 0, 80, 76
1, 160769, Note_off_c, 0, 85, 68
1, 160791, Note_off_c, 0, 80, 43
1, 160791, Note_off_c, 0, 87, 65
1, 160796, Note_on_c, 0, 86, 79
1, 160827, Note_on_c, 0, 88, 76
1, 160840, Note_off_c, 0, 86, 66
1, 160841, Note_on_c, 0, 91, 85
1, 160855, Note_on_c, 0, 96, 88
1, 160878, Note_off_c, 0, 88, 64
1, 160891, Note_off_c, 0, 91, 65
1, 160896, Note_off_c, 0, 96, 66
1, 160935, Note_on_c, 0, 90, 97
1, 160937, Note_on_c, 0, 97, 100
1, 160938, Poly_aftertouch_c, 0, 96, 0
1, 160941, Note_on_c, 0, 96, 74
1, 160952, Note_on_c, 0, 94, 63
1, 160980, Note_on_c, 0, 98, 43
1, 160983, Note_off_c, 0, 97, 64
1, 160992, Note_off_c, 0, 94, 65
1, 160998, Note_off_c, 0, 90, 63
1, 161010, Note_off_c, 0, 98, 38
1, 161022, Note_on_c, 0, 91, 84
1, 161048, Note_off_c, 0, 96, 65
1, 161050, Note_on_c, 0, 88, 81
1, 161100, Note_off_c, 0, 91, 62
1, 161102, Note_on_c, 0, 84, 82
1, 161114, Note_off_c, 0, 88, 62
1, 161145, Note_off_c, 0, 84, 66
1, 161156, Note_on_c, 0, 85, 89
1, 161158, Note_on_c, 0, 82, 87
1, 161162, Note_on_c, 0, 78, 83
1, 161176, Note_off_c, 0, 85, 68
1, 161189, Note_off_c, 0, 78, 67
1, 161190, Note_off_c, 0, 82, 60
1, 161195, Note_on_c, 0, 84, 85
1, 161244, Note_on_c, 0, 79, 74
1, 161270, Note_on_c, 0, 76, 79
1, 161275, Note_off_c, 0, 84, 62
1, 161307, Note_off_c, 0, 79, 61
1, 161323, Note_on_c, 0, 72, 81
1, 161336, Note_off_c, 0, 76, 62
1, 161347, Note_off_c, 0, 72, 67
1, 161370, Note_on_c, 0, 73, 93
1, 161373, Note_on_c, 0, 66, 86
1, 161373, Note_on_c, 0, 70, 83
1, 161397, Note_off_c, 0, 73, 60
1, 161397, Note_off_c, 0, 70, 70
1, 161398, Note_off_c, 0, 66, 67
1, 161415, Note_on_c, 0, 72, 81
1, 161432, Note_off_c, 0, 72, 74
1, 161443, Note_on_c, 0, 75, 50
1, 161444, Note_off_c, 0, 75, 127
1, 161448, Note_on_c, 0, 76, 83
1, 161487, Note_on_c, 0, 79, 84
1, 161513, Note_off_c, 0, 76, 64
1, 161524, Note_on_c, 0, 84, 84
1, 161535, Note_off_c, 0, 79, 68
1, 161561, Note_off_c, 0, 84, 65
1, 161567, Note_on_c, 0, 78, 99
1, 161572, Note_on_c, 0, 85, 94
1, 161584, Note_on_c, 0, 82, 58
1, 161592, Note_off_c, 0, 78, 58
1, 161602, Note_off_c, 0, 82, 64
1, 161612, Note_off_c, 0, 85, 63
1, 161621, Note_on_c, 0, 84, 79
1, 161641, Note_off_c, 0, 84, 72
1, 161655, Note_on_c, 0, 88, 81
1, 161682, Note_on_c, 0, 91, 87
1, 161725, Note_on_c, 0, 96, 84
1, 161733, Note_off_c, 0, 88, 64
1, 161756, Note_off_c, 0, 91, 66
1, 161764, Note_on_c, 0, 93, 7
1, 161767, Note_off_c, 0, 96, 66
1, 161780, Note_on_c, 0, 97, 97
1, 161783, Note_on_c, 0, 90, 89
1, 161783, Note_on_c, 0, 94, 89
1, 161814, Note_off_c, 0, 93, 27
1, 161818, Note_off_c, 0, 97, 62
1, 161819, Note_on_c, 0, 96, 78
1, 161823, Note_off_c, 0, 94, 46
1, 161829, Note_off_c, 0, 90, 60
1, 161855, Note_on_c, 0, 91, 57
1, 161873, Note_on_c, 0, 93, 48
1, 161889, Note_off_c, 0, 93, 40
1, 161892, Note_on_c, 0, 88, 87
1, 161900, Poly_aftertouch_c, 0, 95, 0
1, 161901, Note_off_c, 0, 96, 61
1, 161916, Note_off_c, 0, 91, 64
1, 161938, Note_on_c, 0, 84, 79
1, 161943, Note_off_c, 0, 88, 65
1, 161967, Note_off_c, 0, 84, 65
1, 161980, Note_on_c, 0, 78, 93
1, 161984, Note_on_c, 0, 85, 79
1, 161993, Note_on_c, 0, 82, 57
1, 162004, Note_off_c, 0, 85, 72
1, 162010, Note_on_c, 0, 83, 29
1, 162012, Note_off_c, 0, 82, 65
1, 162024, Note_on_c, 0, 84, 76
1, 162027, Note_off_c, 0, 78, 60
1, 162043, Note_off_c, 0, 83, 51
1, 162066, Note_on_c, 0, 79, 75
1, 162083, Note_on_c, 0, 81, 35
1, 162091, Note_on_c, 0, 76, 79
1, 162109, Note_off_c, 0, 84, 53
1, 162111, Note_off_c, 0, 81, 57
1, 162139, Note_off_c, 0, 79, 61
1, 162143, Note_on_c, 0, 72, 81
1, 162165, Note_off_c, 0, 76, 63
1, 162173, Note_off_c, 0, 72, 63
1, 162179, Note_on_c, 0, 66, 87
1, 162184, Note_on_c, 0, 73, 89
1, 162202, Note_on_c, 0, 70, 42
1, 162202, Note_off_c, 0, 73, 73
1, 162204, Note_off_c, 0, 66, 62
1, 162229, Note_off_c, 0, 70, 61
1, 162230, Note_on_c, 0, 72, 80
1, 162259, Note_off_c, 0, 72, 68
1, 162259, Note_on_c, 0, 76, 83
1, 162303, Note_on_c, 0, 79, 85
1, 162339, Note_on_c, 0, 84, 79
1, 162339, Note_off_c, 0, 76, 63
1, 162354, Note_off_c, 0, 79, 67
1, 162363, Note_off_c, 0, 84, 70
1, 162378, Note_on_c, 0, 85, 72
1, 162379, Note_off_c, 0, 85, 127
1, 162380, Note_on_c, 0, 83, 76
1, 162382, Note_on_c, 0, 78, 60
1, 162383, Note_off_c, 0, 78, 127
1, 162403, Note_off_c, 0, 83, 70
1, 162422, Note_on_c, 0, 84, 71
1, 162448, Note_on_c, 0, 79, 63
1, 162499, Note_on_c, 0, 76, 85
1, 162505, Note_off_c, 0, 79, 66
1, 162517, Note_off_c, 0, 84, 62
1, 162550, Note_on_c, 0, 72, 79
1, 162552, Note_off_c, 0, 76, 62
1, 162590, Note_on_c, 0, 70, 93
1, 162625, Note_on_c, 0, 66, 27
1, 162639, Note_off_c, 0, 70, 59
1, 162660, Note_off_c, 0, 66, 53
1, 162665, Note_off_c, 0, 72, 69
1, 162668, Note_on_c, 0, 76, 82
1, 162721, Note_on_c, 0, 79, 76
1, 162754, Note_off_c, 0, 76, 57
1, 162756, Note_on_c, 0, 84, 81
1, 162766, Note_off_c, 0, 79, 65
1, 162781, Note_off_c, 0, 84, 67
1, 162783, Note_on_c, 0, 85, 89
1, 162786, Note_on_c, 0, 82, 79
1, 162799, Note_off_c, 0, 85, 75
1, 162815, Note_on_c, 0, 78, 26
1, 162816, Note_off_c, 0, 78, 127
1, 162821, Note_on_c, 0, 77, 34
1, 162831, Note_off_c, 0, 82, 61
1, 162839, Note_on_c, 0, 84, 76
1, 162852, Note_off_c, 0, 77, 45
1, 162861, Note_on_c, 0, 79, 82
1, 162897, Note_on_c, 0, 76, 90
1, 162906, Note_off_c, 0, 79, 63
1, 162912, Note_off_c, 0, 84, 64
1, 162931, Note_off_c, 0, 76, 69
1, 162958, Note_on_c, 0, 72, 73
1, 162983, Note_on_c, 0, 66, 84
1, 162983, Note_on_c, 0, 73, 95
1, 162986, Note_off_c, 0, 72, 67
1, 163006, Note_on_c, 0, 70, 42
1, 163012, Note_off_c, 0, 73, 60
1, 163013, Note_off_c, 0, 66, 60
1, 163031, Note_off_c, 0, 70, 58
1, 163032, Note_on_c, 0, 72, 79
1, 163071, Note_on_c, 0, 76, 75
1, 163074, Note_off_c, 0, 72, 66
1, 163114, Note_on_c, 0, 79, 80
1, 163140, Note_off_c, 0, 76, 61
1, 163161, Note_on_c, 0, 84, 73
1, 163166, Note_off_c, 0, 79, 65
1, 163180, Note_on_c, 0, 85, 92
1, 163181, Note_on_c, 0, 78, 89
1, 163184, Note_off_c, 0, 84, 71
1, 163197, Note_off_c, 0, 85, 75
1, 163201, Note_on_c, 0, 82, 45
1, 163233, Note_off_c, 0, 78, 46
1, 163233, Note_off_c, 0, 82, 58
1, 163247, Note_on_c, 0, 84, 84
1, 163272, Note_on_c, 0, 79, 75
1, 163291, Poly_aftertouch_c, 0, 83, 0
1, 163305, Note_on_c, 0, 76, 86
1, 163308, Note_off_c, 0, 79, 60
1, 163321, Note_off_c, 0, 84, 63
1, 163355, Note_on_c, 0, 72, 77
1, 163356, Note_off_c, 0, 76, 63
1, 163383, Note_off_c, 0, 72, 67
1, 163394, Note_on_c, 0, 66, 80
1, 163397, Note_on_c, 0, 73, 88
1, 163402, Note_on_c, 0, 70, 72
1, 163425, Note_off_c, 0, 66, 59
1, 163426, Note_off_c, 0, 70, 70
1, 163433, Note_off_c, 0, 73, 60
1, 163442, Note_on_c, 0, 72, 87
1, 163484, Note_off_c, 0, 72, 66
1, 163490, Note_on_c, 0, 76, 82
1, 163537, Note_on_c, 0, 79, 81
1, 163581, Note_off_c, 0, 76, 57
1, 163582, Note_on_c, 0, 84, 81
1, 163592, Note_off_c, 0, 79, 66
1, 163601, Note_on_c, 0, 78, 89
1, 163601, Note_on_c, 0, 85, 89
1, 163606, Note_off_c, 0, 84, 66
1, 163618, Note_off_c, 0, 85, 73
1, 163651, Note_off_c, 0, 78, 63
1, 163669, Note_on_c, 0, 84, 82
1, 163688, Note_on_c, 0, 79, 85
1, 163705, Poly_aftertouch_c, 0, 83, 0
1, 163718, Note_on_c, 0, 76, 83
1, 163731, Note_off_c, 0, 79, 60
1, 163738, Note_off_c, 0, 84, 62
1, 163778, Note_off_c, 0, 76, 63
1, 163813, Note_on_c, 0, 66, 83
1, 163820, Note_on_c, 0, 73, 79
1, 163826, Note_on_c, 0, 70, 54
1, 163841, Note_off_c, 0, 66, 61
1, 163842, Note_off_c, 0, 73, 71
1, 163845, Note_off_c, 0, 70, 65
1, 163898, Note_on_c, 0, 67, 67
1, 163903, Note_on_c, 0, 72, 71
1, 163928, Note_off_c, 0, 67, 68
1, 163980, Note_on_c, 0, 76, 74
1, 163981, Note_off_c, 0, 72, 65
1, 163986, Note_on_c, 0, 74, 53
1, 164005, Note_off_c, 0, 74, 62
1, 164020, Note_on_c, 0, 78, 95
1, 164022, Note_on_c, 0, 82, 85
1, 164025, Note_off_c, 0, 76, 65
1, 164043, Note_off_c, 0, 82, 71
1, 164047, Note_on_c, 0, 79, 38
1, 164071, Note_off_c, 0, 78, 63
1, 164113, Note_on_c, 0, 76, 71
1, 164141, Note_on_c, 0, 72, 73
1, 164141, Note_off_c, 0, 76, 66
1, 164156, Note_off_c, 0, 79, 64
1, 164194, Note_on_c, 0, 67, 74
1, 164214, Note_on_c, 0, 66, 91
1, 164221, Note_off_c, 0, 67, 66
1, 164229, Note_off_c, 0, 72, 37
1, 164256, Note_on_c, 0, 73, 29
1, 164264, Note_off_c, 0, 66, 58
1, 164277, Note_on_c, 0, 67, 76
1, 164293, Note_off_c, 0, 73, 53
1, 164295, Note_off_c, 0, 67, 72
1, 164296, Note_on_c, 0, 72, 65
1, 164357, Note_on_c, 0, 76, 81
1, 164365, Note_off_c, 0, 72, 62
1, 164368, Note_on_c, 0, 74, 40
1, 164391, Note_on_c, 0, 79, 66
1, 164394, Note_off_c, 0, 74, 49
1, 164397, Note_off_c, 0, 76, 66
1, 164408, Note_on_c, 0, 78, 90
1, 164411, Note_on_c, 0, 82, 86
1, 164419, Note_off_c, 0, 79, 67
1, 164431, Note_off_c, 0, 82, 71
1, 164454, Note_off_c, 0, 78, 64
1, 164474, Note_on_c, 0, 79, 72
1, 164489, Note_on_c, 0, 76, 76
1, 164515, Note_on_c, 0, 72, 73
1, 164518, Note_off_c, 0, 76, 61
1, 164545, Note_off_c, 0, 79, 59
1, 164569, Note_on_c, 0, 67, 75
1, 164578, Note_off_c, 0, 72, 61
1, 164593, Note_off_c, 0, 67, 68
1, 164616, Note_on_c, 0, 70, 79
1, 164617, Note_on_c, 0, 66, 71
1, 164631, Note_on_c, 0, 73, 60
1, 164643, Note_off_c, 0, 66, 66
1, 164654, Note_on_c, 0, 67, 72
1, 164658, Note_off_c, 0, 73, 65
1, 164661, Note_off_c, 0, 70, 49
1, 164677, Note_off_c, 0, 67, 69
1, 164683, Note_on_c, 0, 72, 71
1, 164747, Note_on_c, 0, 76, 77
1, 164753, Note_off_c, 0, 72, 62
1, 164764, Note_on_c, 0, 74, 19
1, 164784, Note_on_c, 0, 79, 71
1, 164792, Note_off_c, 0, 76, 61
1, 164806, Note_off_c, 0, 74, 30
1, 164808, Note_on_c, 0, 82, 92
1, 164812, Note_off_c, 0, 79, 64
1, 164816, Note_on_c, 0, 78, 71
1, 164829, Note_off_c, 0, 82, 66
1, 164851, Note_off_c, 0, 78, 63
1, 164873, Note_on_c, 0, 79, 46
1, 164882, Note_on_c, 0, 76, 74
1, 164899, Note_on_c, 0, 72, 72
1, 164916, Note_off_c, 0, 76, 58
1, 164924, Note_off_c, 0, 79, 53
1, 164962, Note_on_c, 0, 67, 69
1, 164970, Note_off_c, 0, 72, 61
1, 164989, Note_off_c, 0, 67, 68
1, 165026, Note_on_c, 0, 69, 62
1, 165028, Note_on_c, 0, 73, 61
1, 165051, Note_on_c, 0, 67, 73
1, 165059, Note_off_c, 0, 69, 65
1, 165070, Note_on_c, 0, 72, 74
1, 165071, Note_off_c, 0, 73, 57
1, 165075, Note_off_c, 0, 67, 67
1, 165117, Note_on_c, 0, 76, 75
1, 165129, Note_on_c, 0, 74, 23
1, 165129, Note_off_c, 0, 72, 63
1, 165163, Note_off_c, 0, 74, 31
1, 165164, Note_on_c, 0, 79, 70
1, 165174, Note_off_c, 0, 76, 63
1, 165197, Note_off_c, 0, 79, 57
1, 165207, Note_on_c, 0, 80, 74
1, 165211, Note_on_c, 0, 78, 73
1, 165222, Note_off_c, 0, 80, 65
1, 165246, Poly_aftertouch_c, 0, 79, 127
1, 165247, Note_on_c, 0, 76, 53
1, 165249, Note_off_c, 0, 78, 60
1, 165285, Note_on_c, 0, 74, 32
1, 165303, Note_on_c, 0, 72, 65
1, 165316, Note_off_c, 0, 74, 45
1, 165316, Note_off_c, 0, 76, 64
1, 165320, Poly_aftertouch_c, 0, 79, 0
1, 165358, Note_on_c, 0, 67, 72
1, 165368, Note_off_c, 0, 72, 60
1, 165398, Note_off_c, 0, 67, 60
1, 165406, Note_on_c, 0, 70, 69
1, 165443, Note_on_c, 0, 66, 35
1, 165478, Note_off_c, 0, 66, 55
1, 165483, Note_on_c, 0, 67, 40
1, 165497, Note_on_c, 0, 72, 63
1, 165511, Note_off_c, 0, 67, 55
1, 165540, Note_off_c, 0, 70, 61
1, 165541, Note_off_c, 0, 72, 61
1, 165547, Note_on_c, 0, 76, 64
1, 165579, Note_off_c, 0, 76, 66
1, 165612, Note_on_c, 0, 73, 68
1, 165618, Note_on_c, 0, 78, 72
1, 165662, Note_on_c, 0, 76, 61
1, 165667, Note_off_c, 0, 78, 61
1, 165677, Note_off_c, 0, 73, 65
1, 165699, Note_off_c, 0, 76, 63
1, 165718, Note_on_c, 0, 72, 61
1, 165749, Note_off_c, 0, 72, 63
1, 165774, Note_on_c, 0, 67, 66
1, 165800, Note_off_c, 0, 67, 68
1, 165806, Note_on_c, 0, 66, 69
1, 165833, Note_on_c, 0, 70, 55
1, 165881, Note_off_c, 0, 66, 56
1, 165887, Note_on_c, 0, 67, 61
1, 165909, Note_on_c, 0, 72, 64
1, 165915, Note_off_c, 0, 67, 64
1, 165937, Note_off_c, 0, 70, 49
1, 165955, Note_off_c, 0, 72, 55
1, 165960, Note_on_c, 0, 76, 68
1, 166000, Note_off_c, 0, 76, 62
1, 166014, Note_on_c, 0, 78, 68
1, 166018, Note_on_c, 0, 73, 65
1, 166059, Note_off_c, 0, 78, 62
1, 166076, Note_on_c, 0, 76, 60
1, 166107, Note_off_c, 0, 73, 61
1, 166120, Note_off_c, 0, 76, 64
1, 166127, Note_on_c, 0, 72, 64
1, 166169, Note_off_c, 0, 72, 57
1, 166179, Note_on_c, 0, 67, 65
1, 166215, Note_off_c, 0, 67, 65
1, 166232, Note_on_c, 0, 66, 58
1, 166248, Note_on_c, 0, 70, 55
1, 166310, Note_off_c, 0, 66, 48
1, 166313, Note_on_c, 0, 67, 57
1, 166344, Note_on_c, 0, 72, 57
1, 166346, Note_off_c, 0, 67, 65
1, 166390, Note_off_c, 0, 72, 59
1, 166396, Note_off_c, 0, 70, 50
1, 166403, Note_on_c, 0, 76, 60
1, 166440, Note_off_c, 0, 76, 62
1, 166477, Note_on_c, 0, 78, 53
1, 166480, Note_on_c, 0, 73, 49
1, 166528, Note_off_c, 0, 78, 58
1, 166550, Note_on_c, 0, 76, 37
1, 166580, Note_off_c, 0, 76, 50
1, 166590, Note_on_c, 0, 72, 50
1, 166596, Note_off_c, 0, 73, 48
1, 166634, Note_off_c, 0, 72, 62
1, 166658, Note_on_c, 0, 67, 52
1, 166683, Note_off_c, 0, 67, 59
1, 166717, Note_on_c, 0, 66, 35
1, 166734, Note_on_c, 0, 70, 42
1, 166778, Note_on_c, 0, 67, 45
1, 166811, Note_on_c, 0, 72, 52
1, 166817, Note_off_c, 0, 66, 34
1, 166831, Note_off_c, 0, 67, 53
1, 166853, Note_off_c, 0, 72, 61
1, 166891, Note_on_c, 0, 76, 50
1, 166926, Note_off_c, 0, 70, 44
1, 166934, Note_off_c, 0, 76, 59
1, 166954, Note_on_c, 0, 78, 46
1, 166956, Note_on_c, 0, 73, 48
1, 167008, Note_off_c, 0, 78, 55
1, 167013, Note_on_c, 0, 76, 53
1, 167066, Note_off_c, 0, 76, 59
1, 167097, Note_on_c, 0, 72, 35
1, 167134, Note_on_c, 0, 67, 52
1, 167134, Note_off_c, 0, 72, 55
1, 167164, Note_off_c, 0, 67, 58
1, 167173, Note_off_c, 0, 73, 44
1, 167218, Note_on_c, 0, 66, 45
1, 167243, Note_on_c, 0, 70, 38
1, 167268, Note_on_c, 0, 67, 46
1, 167307, Note_off_c, 0, 67, 61
1, 167314, Note_on_c, 0, 72, 44
1, 167350, Note_off_c, 0, 72, 62
1, 167372, Note_on_c, 0, 76, 54
1, 167374, Note_off_c, 0, 66, 29
1, 167426, Note_off_c, 0, 76, 56
1, 167454, Note_on_c, 0, 79, 25
1, 167458, Note_off_c, 0, 70, 41
1, 167502, Note_on_c, 0, 73, 48
1, 167506, Note_on_c, 0, 78, 50
1, 167507, Note_off_c, 0, 79, 42
1, 167564, Note_off_c, 0, 78, 53
1, 167633, Note_on_c, 0, 72, 33
1, 167675, Note_off_c, 0, 72, 47
1, 167685, Note_on_c, 0, 67, 52
1, 167735, Note_off_c, 0, 67, 52
1, 167750, Note_off_c, 0, 73, 38
1, 167841, Note_on_c, 0, 66, 37
1, 167851, Note_on_c, 0, 67, 37
1, 167887, Note_on_c, 0, 70, 24
1, 167898, Note_off_c, 0, 67, 52
1, 167912, Note_on_c, 0, 72, 38
1, 168002, Note_off_c, 0, 72, 54
1, 168008, Note_off_c, 0, 70, 0
1, 168024, Note_on_c, 0, 76, 45
1, 168026, Note_off_c, 0, 66, 37
1, 168045, Poly_aftertouch_c, 0, 70, 127
1, 168083, Note_off_c, 0, 76, 58
1, 168125, Poly_aftertouch_c, 0, 70, 0
1, 168146, Note_on_c, 0, 78, 48
1, 168168, Note_on_c, 0, 73, 41
1, 168223, Note_off_c, 0, 78, 56
1, 168238, Note_on_c, 0, 76, 35
1, 168304, Note_off_c, 0, 76, 58
1, 168342, Note_on_c, 0, 72, 42
1, 168395, Note_off_c, 0, 73, 30
1, 168408, Note_off_c, 0, 72, 59
1, 168441, Note_on_c, 0, 67, 48
1, 168486, Note_off_c, 0, 67, 58
1, 168510, Note_on_c, 0, 66, 32
1, 168556, Note_on_c, 0, 70, 30
1, 168615, Note_on_c, 0, 67, 28
1, 168686, Note_off_c, 0, 67, 49
1, 168693, Note_off_c, 0, 66, 37
1, 168729, Note_on_c, 0, 72, 33
1, 168781, Note_off_c, 0, 72, 59
1, 168820, Note_off_c, 0, 70, 41
1, 168823, Note_on_c, 0, 76, 37
1, 168870, Note_off_c, 0, 76, 56
1, 168894, Note_on_c, 0, 73, 36
1, 168896, Note_on_c, 0, 78, 25
1, 169005, Note_off_c, 0, 78, 33
1, 169012, Note_on_c, 0, 76, 35
1, 169068, Note_off_c, 0, 76, 56
1, 169124, Note_on_c, 0, 72, 33
1, 169141, Note_off_c, 0, 73, 36
1, 169189, Note_off_c, 0, 72, 52
1, 169247, Note_on_c, 0, 67, 29
1, 169300, Note_off_c, 0, 67, 44
1, 169308, Note_on_c, 0, 66, 31
1, 169349, Note_on_c, 0, 70, 25
1, 169459, Note_on_c, 0, 67, 28
1, 169484, Control_c, 0, 67, 12
1, 169499, Control_c, 0, 67, 19
1, 169514, Control_c, 0, 67, 24
1, 169523, Note_off_c, 0, 66, 37
1, 169529, Control_c, 0, 67, 29
1, 169544, Control_c, 0, 67, 34
1, 169544, Note_off_c, 0, 67, 39
1, 169559, Control_c, 0, 67, 39
1, 169574, Control_c, 0, 67, 41
1, 169593, Note_on_c, 0, 72, 33
1, 169737, Control_c, 0, 67, 41
1, 169750, Note_off_c, 0, 72, 31
1, 169754, Note_on_c, 0, 76, 23
1, 169793, Note_off_c, 0, 70, 39
1, 169802, Note_off_c, 0, 76, 49
1, 169811, Control_c, 0, 67, 40
1, 169841, Control_c, 0, 67, 39
1, 169854, Note_on_c, 0, 73, 29
1, 169869, Note_on_c, 0, 78, 28
1, 169967, Control_c, 0, 67, 39
1, 170028, Note_on_c, 0, 76, 28
1, 170056, Control_c, 0, 67, 38
1, 170063, Note_off_c, 0, 73, 36
1, 170084, Note_off_c, 0, 78, 37
1, 170159, Control_c, 0, 67, 37
1, 170187, Note_off_c, 0, 76, 37
1, 170230, Note_on_c, 0, 72, 31
1, 170322, Control_c, 0, 64, 122
1, 170337, Control_c, 0, 64, 120
1, 170352, Control_c, 0, 64, 117
1, 170367, Control_c, 0, 64, 115
1, 170382, Control_c, 0, 64, 112
1, 170382, Control_c, 0, 67, 37
1, 170397, Control_c, 0, 64, 110
1, 170412, Control_c, 0, 64, 108
1, 170427, Control_c, 0, 64, 106
1, 170441, Control_c, 0, 64, 105
1, 170456, Control_c, 0, 64, 104
1, 170471, Control_c, 0, 64, 102
1, 170486, Control_c, 0, 64, 101
1, 170501, Control_c, 0, 64, 100
1, 170516, Control_c, 0, 64, 98
1, 170517, Note_off_c, 0, 72, 36
1, 170531, Control_c, 0, 64, 97
1, 170546, Control_c, 0, 64, 95
1, 170546, Note_on_c, 0, 67, 14
1, 170560, Control_c, 0, 64, 95
1, 170575, Control_c, 0, 64, 94
1, 170590, Control_c, 0, 64, 93
1, 170605, Control_c, 0, 64, 92
1, 170620, Control_c, 0, 64, 91
1, 170634, Control_c, 0, 64, 90
1, 170649, Control_c, 0, 64, 89
1, 170664, Control_c, 0, 64, 89
1, 170679, Control_c, 0, 64, 88
1, 170694, Control_c, 0, 64, 87
1, 170716, Control_c, 0, 64, 87
1, 170716, Control_c, 0, 67, 36
1, 170745, Control_c, 0, 64, 86
1, 170760, Control_c, 0, 64, 86
1, 170775, Control_c, 0, 64, 85
1, 170790, Control_c, 0, 64, 85
1, 170805, Control_c, 0, 64, 84
1, 170834, Control_c, 0, 64, 83
1, 170849, Control_c, 0, 64, 83
1, 170864, Control_c, 0, 64, 82
1, 170878, Control_c, 0, 64, 82
1, 170893, Control_c, 0, 64, 81
1, 170908, Control_c, 0, 64, 81
1, 170938, Control_c, 0, 64, 80
1, 170953, Control_c, 0, 64, 80
1, 170967, Control_c, 0, 64, 79
1, 170982, Control_c, 0, 64, 79
1, 170997, Control_c, 0, 64, 78
1, 171012, Control_c, 0, 64, 78
1, 171027, Control_c, 0, 64, 77
1, 171041, Control_c, 0, 64, 77
1, 171056, Control_c, 0, 64, 76
1, 171064, Note_off_c, 0, 67, 32
1, 171071, Control_c, 0, 64, 76
1, 171085, Control_c, 0, 64, 75
1, 171100, Control_c, 0, 64, 75
1, 171115, Control_c, 0, 64, 74
1, 171145, Control_c, 0, 64, 74
1, 171161, Control_c, 0, 64, 73
1, 171176, Control_c, 0, 64, 73
1, 171190, Control_c, 0, 64, 72
1, 171205, Control_c, 0, 64, 71
1, 171205, Control_c, 0, 67, 36
1, 171220, Control_c, 0, 64, 71
1, 171250, Control_c, 0, 64, 70
1, 171264, Control_c, 0, 64, 70
1, 171279, Control_c, 0, 64, 69
1, 171294, Control_c, 0, 64, 69
1, 171309, Control_c, 0, 64, 68
1, 171324, Control_c, 0, 64, 68
1, 171339, Control_c, 0, 64, 67
1, 171368, Control_c, 0, 64, 67
1, 171383, Control_c, 0, 64, 66
1, 171398, Control_c, 0, 64, 66
1, 171413, Control_c, 0, 64, 65
1, 171428, Control_c, 0, 64, 64
1, 171443, Control_c, 0, 64, 62
1, 171464, Control_c, 0, 64, 61
1, 171479, Control_c, 0, 64, 60
1, 171532, Note_on_c, 0, 65, 30
1, 171542, Note_on_c, 0, 72, 37
1, 171542, Note_on_c, 0, 79, 49
1, 171554, Note_on_c, 0, 75, 41
1, 171568, Control_c, 0, 64, 61
1, 171598, Control_c, 0, 64, 61
1, 171598, Control_c, 0, 67, 35
1, 171613, Control_c, 0, 64, 62
1, 171628, Control_c, 0, 64, 62
1, 171628, Control_c, 0, 67, 34
1, 171643, Control_c, 0, 64, 63
1, 171657, Control_c, 0, 64, 64
1, 171672, Control_c, 0, 64, 65
1, 171672, Control_c, 0, 67, 34
1, 171687, Control_c, 0, 64, 66
1, 171701, Control_c, 0, 64, 68
1, 171716, Control_c, 0, 64, 71
1, 171731, Control_c, 0, 64, 74
1, 171746, Control_c, 0, 64, 77
1, 171759, Note_off_c, 0, 65, 37
1, 171761, Control_c, 0, 64, 82
1, 171761, Control_c, 0, 67, 33
1, 171776, Control_c, 0, 64, 89
1, 171790, Control_c, 0, 64, 99
1, 171805, Control_c, 0, 64, 127
1, 171815, Note_on_c, 0, 69, 43
1, 171826, Note_on_c, 0, 74, 43
1, 171835, Control_c, 0, 67, 32
1, 171837, Note_off_c, 0, 72, 27
1, 171839, Note_off_c, 0, 75, 32
1, 171899, Note_off_c, 0, 69, 50
1, 171906, Note_off_c, 0, 74, 54
1, 172060, Note_off_c, 0, 79, 58
1, 172060, Note_on_c, 0, 74, 43
1, 172073, Note_on_c, 0, 81, 56
1, 172074, Note_on_c, 0, 69, 42
1, 172088, Note_on_c, 0, 77, 46
1, 172141, Note_off_c, 0, 74, 50
1, 172164, Note_off_c, 0, 77, 49
1, 172173, Note_off_c, 0, 69, 50
1, 172191, Control_c, 0, 67, 32
1, 172286, Note_on_c, 0, 72, 24
1, 172324, Note_off_c, 0, 72, 50
1, 172334, Poly_aftertouch_c, 0, 65, 127
1, 172371, Poly_aftertouch_c, 0, 65, 0
1, 172376, Control_c, 0, 67, 32
1, 172450, Control_c, 0, 67, 33
1, 172474, Note_off_c, 0, 81, 57
1, 172489, Note_on_c, 0, 73, 42
1, 172494, Note_on_c, 0, 70, 48
1, 172497, Note_on_c, 0, 63, 42
1, 172506, Note_on_c, 0, 77, 48
1, 172525, Control_c, 0, 67, 34
1, 172566, Note_off_c, 0, 63, 41
1, 172677, Note_off_c, 0, 77, 50
1, 172686, Note_on_c, 0, 67, 50
1, 172710, Note_on_c, 0, 72, 40
1, 172743, Note_off_c, 0, 73, 37
1, 172748, Note_off_c, 0, 67, 50
1, 172757, Note_off_c, 0, 72, 59
1, 172784, Note_off_c, 0, 70, 24
1, 172866, Control_c, 0, 67, 33
1, 172880, Note_on_c, 0, 84, 54
1, 172882, Note_on_c, 0, 79, 54
1, 172890, Note_on_c, 0, 72, 43
1, 172904, Note_on_c, 0, 67, 34
1, 172966, Note_off_c, 0, 84, 59
1, 172981, Note_off_c, 0, 72, 49
1, 173002, Note_off_c, 0, 79, 43
1, 173066, Note_on_c, 0, 77, 60
1, 173075, Note_on_c, 0, 73, 46
1, 173081, Note_off_c, 0, 67, 38
1, 173083, Note_on_c, 0, 63, 46
1, 173104, Note_off_c, 0, 73, 60
1, 173135, Note_off_c, 0, 63, 52
1, 173159, Poly_aftertouch_c, 0, 70, 0
1, 173177, Note_off_c, 0, 77, 56
1, 173243, Control_c, 0, 64, 101
1, 173258, Note_on_c, 0, 79, 61
1, 173258, Control_c, 0, 64, 87
1, 173270, Note_on_c, 0, 75, 51
1, 173273, Control_c, 0, 64, 77
1, 173283, Note_on_c, 0, 72, 40
1, 173285, Note_on_c, 0, 65, 41
1, 173288, Control_c, 0, 64, 68
1, 173288, Control_c, 0, 67, 32
1, 173303, Control_c, 0, 64, 64
1, 173318, Control_c, 0, 64, 64
1, 173333, Control_c, 0, 64, 65
1, 173348, Control_c, 0, 64, 65
1, 173362, Control_c, 0, 64, 67
1, 173377, Control_c, 0, 64, 69
1, 173392, Control_c, 0, 64, 74
1, 173407, Control_c, 0, 64, 81
1, 173422, Control_c, 0, 64, 90
1, 173436, Control_c, 0, 64, 103
1, 173451, Control_c, 0, 64, 127
1, 173453, Note_on_c, 0, 74, 51
1, 173455, Note_on_c, 0, 69, 43
1, 173479, Note_off_c, 0, 75, 36
1, 173495, Control_c, 0, 67, 32
1, 173503, Note_off_c, 0, 69, 58
1, 173504, Note_off_c, 0, 72, 28
1, 173516, Note_off_c, 0, 65, 18
1, 173526, Note_off_c, 0, 74, 57
1, 173629, Note_off_c, 0, 79, 62
1, 173643, Note_on_c, 0, 81, 61
1, 173646, Note_on_c, 0, 69, 40
1, 173648, Note_on_c, 0, 74, 49
1, 173658, Note_on_c, 0, 77, 51
1, 173724, Note_off_c, 0, 74, 50
1, 173735, Note_off_c, 0, 77, 48
1, 173745, Note_off_c, 0, 69, 51
1, 173830, Note_on_c, 0, 72, 33
1, 173839, Note_on_c, 0, 65, 32
1, 173859, Note_off_c, 0, 72, 56
1, 173874, Note_off_c, 0, 65, 47
1, 173964, Control_c, 0, 67, 32
1, 173978, Control_c, 0, 64, 101
1, 173993, Control_c, 0, 64, 86
1, 174008, Control_c, 0, 64, 75
1, 174015, Note_on_c, 0, 70, 47
1, 174015, Note_on_c, 0, 77, 61
1, 174016, Note_on_c, 0, 73, 51
1, 174017, Note_off_c, 0, 81, 35
1, 174020, Note_on_c, 0, 63, 47
1, 174023, Control_c, 0, 64, 67
1, 174038, Control_c, 0, 64, 63
1, 174067, Control_c, 0, 64, 64
1, 174082, Control_c, 0, 64, 66
1, 174091, Note_off_c, 0, 63, 48
1, 174097, Control_c, 0, 64, 68
1, 174111, Control_c, 0, 64, 71
1, 174126, Control_c, 0, 64, 77
1, 174141, Control_c, 0, 64, 84
1, 174156, Control_c, 0, 64, 94
1, 174171, Control_c, 0, 64, 109
1, 174185, Control_c, 0, 64, 127
1, 174185, Control_c, 0, 67, 32
1, 174206, Note_on_c, 0, 67, 45
1, 174229, Note_on_c, 0, 72, 39
1, 174250, Note_off_c, 0, 77, 53
1, 174255, Note_off_c, 0, 73, 42
1, 174263, Note_off_c, 0, 67, 55
1, 174267, Note_off_c, 0, 72, 57
1, 174368, Note_off_c, 0, 70, 16
1, 174374, Note_on_c, 0, 84, 65
1, 174383, Note_on_c, 0, 79, 59
1, 174391, Note_on_c, 0, 72, 42
1, 174407, Note_on_c, 0, 67, 42
1, 174439, Note_off_c, 0, 84, 59
1, 174461, Control_c, 0, 67, 31
1, 174485, Note_off_c, 0, 79, 61
1, 174531, Note_off_c, 0, 72, 35
1, 174555, Note_off_c, 0, 67, 47
1, 174557, Note_on_c, 0, 77, 64
1, 174564, Note_on_c, 0, 73, 51
1, 174574, Note_on_c, 0, 70, 55
1, 174582, Note_on_c, 0, 63, 49
1, 174598, Note_off_c, 0, 73, 63
1, 174609, Control_c, 0, 67, 32
1, 174622, Note_off_c, 0, 63, 58
1, 174623, Note_off_c, 0, 70, 59
1, 174651, Note_off_c, 0, 77, 57
1, 174727, Control_c, 0, 64, 100
1, 174737, Note_on_c, 0, 79, 69
1, 174742, Control_c, 0, 64, 84
1, 174745, Note_on_c, 0, 75, 56
1, 174757, Control_c, 0, 64, 72
1, 174766, Note_on_c, 0, 72, 43
1, 174770, Note_on_c, 0, 65, 42
1, 174772, Control_c, 0, 64, 66
1, 174787, Control_c, 0, 64, 63
1, 174816, Control_c, 0, 64, 64
1, 174831, Control_c, 0, 64, 65
1, 174846, Control_c, 0, 64, 66
1, 174861, Control_c, 0, 64, 69
1, 174866, Note_off_c, 0, 75, 49
1, 174875, Control_c, 0, 64, 73
1, 174890, Control_c, 0, 64, 79
1, 174905, Control_c, 0, 64, 86
1, 174919, Note_on_c, 0, 69, 52
1, 174920, Control_c, 0, 64, 94
1, 174931, Note_on_c, 0, 74, 49
1, 174934, Control_c, 0, 64, 103
1, 174944, Note_off_c, 0, 72, 32
1, 174949, Control_c, 0, 64, 116
1, 174964, Note_off_c, 0, 69, 58
1, 174964, Control_c, 0, 64, 127
1, 174977, Note_off_c, 0, 74, 60
1, 174983, Note_off_c, 0, 65, 20
1, 175084, Note_off_c, 0, 79, 61
1, 175106, Note_on_c, 0, 81, 60
1, 175115, Note_on_c, 0, 77, 51
1, 175118, Note_on_c, 0, 69, 41
1, 175119, Note_on_c, 0, 74, 43
1, 175180, Note_off_c, 0, 77, 51
1, 175184, Note_off_c, 0, 74, 53
1, 175214, Note_off_c, 0, 69, 56
1, 175282, Note_on_c, 0, 72, 54
1, 175298, Control_c, 0, 67, 32
1, 175303, Note_on_c, 0, 65, 34
1, 175324, Note_off_c, 0, 72, 64
1, 175328, Control_c, 0, 67, 33
1, 175336, Note_off_c, 0, 65, 50
1, 175357, Control_c, 0, 67, 34
1, 175372, Control_c, 0, 67, 34
1, 175402, Note_off_c, 0, 81, 28
1, 175402, Control_c, 0, 64, 114
1, 175402, Control_c, 0, 67, 35
1, 175417, Control_c, 0, 64, 96
1, 175417, Control_c, 0, 67, 36
1, 175431, Control_c, 0, 64, 82
1, 175431, Control_c, 0, 67, 36
1, 175446, Control_c, 0, 64, 72
1, 175446, Control_c, 0, 67, 37
1, 175461, Control_c, 0, 64, 65
1, 175461, Control_c, 0, 67, 38
1, 175463, Note_on_c, 0, 77, 53
1, 175464, Note_on_c, 0, 73, 44
1, 175470, Note_on_c, 0, 70, 47
1, 175475, Note_on_c, 0, 63, 44
1, 175476, Control_c, 0, 64, 63
1, 175476, Control_c, 0, 67, 39
1, 175491, Control_c, 0, 64, 64
1, 175491, Control_c, 0, 67, 41
1, 175506, Control_c, 0, 64, 64
1, 175506, Control_c, 0, 67, 42
1, 175521, Control_c, 0, 64, 66
1, 175521, Control_c, 0, 67, 43
1, 175536, Control_c, 0, 64, 68
1, 175536, Control_c, 0, 67, 44
1, 175544, Note_off_c, 0, 63, 49
1, 175550, Control_c, 0, 64, 72
1, 175550, Control_c, 0, 67, 46
1, 175553, Note_off_c, 0, 73, 50
1, 175565, Control_c, 0, 64, 77
1, 175565, Control_c, 0, 67, 49
1, 175580, Control_c, 0, 64, 82
1, 175580, Control_c, 0, 67, 61
1, 175595, Control_c, 0, 64, 89
1, 175595, Control_c, 0, 67, 70
1, 175610, Control_c, 0, 64, 95
1, 175610, Control_c, 0, 67, 74
1, 175624, Control_c, 0, 64, 104
1, 175624, Control_c, 0, 67, 76
1, 175639, Control_c, 0, 64, 114
1, 175649, Note_on_c, 0, 67, 44
1, 175654, Control_c, 0, 64, 127
1, 175659, Note_on_c, 0, 72, 38
1, 175699, Note_off_c, 0, 70, 27
1, 175705, Note_off_c, 0, 67, 56
1, 175714, Note_off_c, 0, 72, 48
1, 175757, Control_c, 0, 67, 75
1, 175787, Control_c, 0, 67, 74
1, 175805, Note_off_c, 0, 77, 32
1, 175828, Note_on_c, 0, 79, 65
1, 175843, Note_on_c, 0, 75, 51
1, 175843, Note_on_c, 0, 67, 39
1, 175859, Note_on_c, 0, 72, 14
1, 175861, Control_c, 0, 67, 74
1, 175902, Note_off_c, 0, 79, 59
1, 175904, Note_off_c, 0, 75, 51
1, 175920, Note_off_c, 0, 72, 43
1, 175920, Control_c, 0, 67, 73
1, 175959, Note_off_c, 0, 67, 59
1, 176018, Control_c, 0, 67, 72
1, 176022, Note_on_c, 0, 70, 49
1, 176027, Note_on_c, 0, 63, 44
1, 176064, Note_off_c, 0, 70, 63
1, 176078, Note_off_c, 0, 63, 59
1, 176136, Control_c, 0, 64, 119
1, 176151, Control_c, 0, 64, 107
1, 176166, Control_c, 0, 64, 98
1, 176180, Control_c, 0, 64, 87
1, 176195, Control_c, 0, 64, 78
1, 176206, Note_on_c, 0, 71, 48
1, 176210, Control_c, 0, 64, 70
1, 176214, Note_on_c, 0, 75, 46
1, 176225, Control_c, 0, 64, 65
1, 176230, Note_on_c, 0, 61, 36
1, 176240, Control_c, 0, 64, 63
1, 176241, Note_on_c, 0, 68, 38
1, 176269, Control_c, 0, 64, 64
1, 176284, Control_c, 0, 64, 65
1, 176299, Control_c, 0, 64, 66
1, 176314, Control_c, 0, 64, 69
1, 176329, Control_c, 0, 64, 73
1, 176343, Control_c, 0, 64, 79
1, 176357, Note_off_c, 0, 61, 31
1, 176358, Control_c, 0, 64, 87
1, 176370, Note_off_c, 0, 71, 37
1, 176373, Control_c, 0, 64, 95
1, 176373, Control_c, 0, 67, 72
1, 176388, Control_c, 0, 64, 104
1, 176403, Control_c, 0, 64, 114
1, 176413, Note_on_c, 0, 65, 46
1, 176418, Control_c, 0, 64, 127
1, 176436, Note_on_c, 0, 70, 32
1, 176472, Note_off_c, 0, 65, 55
1, 176481, Note_off_c, 0, 70, 48
1, 176507, Control_c, 0, 67, 71
1, 176614, Note_on_c, 0, 70, 40
1, 176619, Note_on_c, 0, 73, 40
1, 176621, Note_on_c, 0, 77, 45
1, 176621, Note_off_c, 0, 75, 33
1, 176621, Note_off_c, 0, 68, 13
1, 176633, Note_on_c, 0, 65, 30
1, 176704, Note_off_c, 0, 73, 51
1, 176719, Note_off_c, 0, 77, 47
1, 176735, Control_c, 0, 64, 122
1, 176751, Control_c, 0, 64, 115
1, 176766, Control_c, 0, 64, 112
1, 176781, Control_c, 0, 64, 111
1, 176796, Control_c, 0, 64, 110
1, 176810, Control_c, 0, 64, 108
1, 176825, Control_c, 0, 64, 106
1, 176832, Note_off_c, 0, 65, 40
1, 176839, Note_off_c, 0, 70, 35
1, 176840, Control_c, 0, 64, 103
1, 176855, Note_on_c, 0, 68, 41
1, 176855, Control_c, 0, 64, 101
1, 176870, Control_c, 0, 64, 100
1, 176871, Note_on_c, 0, 61, 39
1, 176884, Control_c, 0, 64, 99
1, 176899, Control_c, 0, 64, 98
1, 176914, Control_c, 0, 64, 96
1, 176929, Control_c, 0, 64, 95
1, 176930, Note_off_c, 0, 68, 53
1, 176943, Note_off_c, 0, 61, 57
1, 176944, Control_c, 0, 64, 93
1, 176958, Control_c, 0, 64, 91
1, 176973, Control_c, 0, 64, 90
1, 176988, Control_c, 0, 64, 88
1, 177002, Control_c, 0, 64, 86
1, 177017, Control_c, 0, 64, 83
1, 177017, Control_c, 0, 67, 71
1, 177032, Control_c, 0, 64, 80
1, 177047, Control_c, 0, 64, 77
1, 177062, Control_c, 0, 64, 73
1, 177077, Control_c, 0, 64, 70
1, 177092, Control_c, 0, 64, 67
1, 177092, Control_c, 0, 67, 70
1, 177107, Control_c, 0, 64, 65
1, 177121, Note_on_c, 0, 69, 31
1, 177121, Control_c, 0, 64, 63
1, 177127, Note_on_c, 0, 73, 39
1, 177136, Control_c, 0, 64, 61
1, 177141, Note_on_c, 0, 59, 32
1, 177145, Note_on_c, 0, 66, 35
1, 177151, Control_c, 0, 64, 59
1, 177166, Control_c, 0, 64, 57
1, 177181, Control_c, 0, 64, 54
1, 177195, Control_c, 0, 64, 48
1, 177210, Control_c, 0, 64, 38
1, 177210, Control_c, 0, 67, 71
1, 177225, Control_c, 0, 64, 22
1, 177240, Control_c, 0, 64, 0
1, 177240, Control_c, 0, 67, 71
1, 177255, Control_c, 0, 67, 72
1, 177269, Control_c, 0, 67, 72
1, 177284, Control_c, 0, 67, 73
1, 177299, Control_c, 0, 67, 74
1, 177353, Note_off_c, 0, 59, 40
1, 177402, Note_on_c, 0, 63, 27
1, 177414, Note_off_c, 0, 66, 37
1, 177417, Control_c, 0, 67, 73
1, 177432, Control_c, 0, 67, 72
1, 177434, Note_on_c, 0, 68, 29
1, 177455, Control_c, 0, 67, 71
1, 177470, Control_c, 0, 64, 18
1, 177470, Control_c, 0, 67, 71
1, 177484, Control_c, 0, 64, 46
1, 177484, Control_c, 0, 67, 70
1, 177499, Control_c, 0, 64, 59
1, 177499, Control_c, 0, 67, 69
1, 177514, Control_c, 0, 64, 63
1, 177528, Control_c, 0, 64, 65
1, 177543, Control_c, 0, 64, 69
1, 177551, Note_off_c, 0, 63, 47
1, 177557, Note_off_c, 0, 68, 37
1, 177560, Control_c, 0, 64, 75
1, 177574, Control_c, 0, 64, 89
1, 177574, Control_c, 0, 67, 69
1, 177589, Control_c, 0, 64, 109
1, 177604, Control_c, 0, 64, 127
1, 177607, Note_off_c, 0, 69, 40
1, 177697, Note_on_c, 0, 68, 42
1, 177705, Note_on_c, 0, 63, 40
1, 177722, Note_on_c, 0, 71, 37
1, 177736, Note_on_c, 0, 75, 42
1, 177744, Note_off_c, 0, 73, 32
1, 177840, Control_c, 0, 67, 68
1, 177855, Control_c, 0, 67, 67
1, 177895, Note_off_c, 0, 71, 31
1, 177946, Note_off_c, 0, 75, 37
1, 177959, Control_c, 0, 67, 67
1, 178017, Control_c, 0, 67, 66
1, 178047, Control_c, 0, 67, 66
1, 178069, Note_off_c, 0, 63, 32
1, 178077, Control_c, 0, 67, 65
1, 178180, Note_off_c, 0, 68, 32
1, 178180, Control_c, 0, 67, 64
1, 178188, Note_on_c, 0, 66, 28
1, 178208, Note_on_c, 0, 59, 19
1, 178396, Note_off_c, 0, 59, 40
1, 178451, Note_off_c, 0, 66, 35
1, 178781, Control_c, 0, 67, 64
1, 178929, Control_c, 0, 67, 63
1, 178981, Control_c, 0, 64, 104
1, 178996, Control_c, 0, 64, 91
1, 179011, Control_c, 0, 64, 80
1, 179026, Control_c, 0, 64, 70
1, 179029, Note_on_c, 0, 73, 53
1, 179041, Note_on_c, 0, 47, 19
1, 179041, Control_c, 0, 64, 63
1, 179041, Control_c, 0, 67, 62
1, 179043, Note_on_c, 0, 57, 27
1, 179047, Note_on_c, 0, 61, 34
1, 179050, Note_on_c, 0, 54, 26
1, 179055, Control_c, 0, 64, 57
1, 179065, Note_on_c, 0, 66, 33
1, 179070, Control_c, 0, 64, 57
1, 179085, Control_c, 0, 64, 57
1, 179100, Control_c, 0, 64, 58
1, 179115, Control_c, 0, 64, 59
1, 179129, Control_c, 0, 64, 60
1, 179133, Note_off_c, 0, 61, 56
1, 179145, Control_c, 0, 64, 61
1, 179145, Control_c, 0, 67, 62
1, 179160, Control_c, 0, 64, 63
1, 179175, Control_c, 0, 64, 64
1, 179190, Control_c, 0, 64, 66
1, 179204, Control_c, 0, 64, 68
1, 179212, Note_off_c, 0, 54, 45
1, 179215, Note_off_c, 0, 47, 39
1, 179219, Control_c, 0, 64, 70
1, 179234, Control_c, 0, 64, 73
1, 179235, Note_off_c, 0, 57, 39
1, 179249, Control_c, 0, 64, 78
1, 179264, Control_c, 0, 64, 84
1, 179264, Control_c, 0, 67, 61
1, 179278, Control_c, 0, 64, 94
1, 179293, Control_c, 0, 64, 110
1, 179308, Control_c, 0, 64, 127
1, 179346, Note_on_c, 0, 68, 42
1, 179363, Note_on_c, 0, 63, 31
1, 179364, Note_off_c, 0, 73, 33
1, 179373, Note_off_c, 0, 66, 34
1, 179467, Note_off_c, 0, 68, 55
1, 179482, Note_off_c, 0, 63, 50
1, 179563, Note_on_c, 0, 63, 21
1, 179586, Note_on_c, 0, 75, 65
1, 179587, Note_on_c, 0, 52, 39
1, 179593, Note_on_c, 0, 59, 35
1, 179609, Note_on_c, 0, 68, 51
1, 179620, Control_c, 0, 67, 61
1, 179637, Note_off_c, 0, 63, 55
1, 179637, Note_off_c, 0, 59, 62
1, 179659, Note_off_c, 0, 52, 54
1, 179664, Control_c, 0, 67, 60
1, 179734, Note_off_c, 0, 75, 51
1, 179776, Control_c, 0, 67, 59
1, 179827, Note_on_c, 0, 61, 53
1, 179828, Note_on_c, 0, 66, 43
1, 179873, Note_off_c, 0, 66, 57
1, 179875, Note_off_c, 0, 61, 55
1, 179879, Control_c, 0, 67, 59
1, 179997, Note_off_c, 0, 68, 52
1, 179999, Control_c, 0, 64, 100
1, 180013, Control_c, 0, 64, 81
1, 180028, Control_c, 0, 64, 71
1, 180037, Note_on_c, 0, 71, 67
1, 180043, Control_c, 0, 64, 64
1, 180045, Note_on_c, 0, 64, 45
1, 180046, Note_on_c, 0, 55, 29
1, 180049, Note_on_c, 0, 45, 32
1, 180049, Note_on_c, 0, 59, 44
1, 180055, Note_on_c, 0, 52, 29
1, 180058, Control_c, 0, 64, 60
1, 180073, Control_c, 0, 64, 61
1, 180073, Control_c, 0, 67, 58
1, 180086, Note_off_c, 0, 59, 49
1, 180088, Control_c, 0, 64, 62
1, 180097, Note_off_c, 0, 64, 51
1, 180102, Control_c, 0, 64, 63
1, 180117, Control_c, 0, 64, 65
1, 180132, Control_c, 0, 64, 67
1, 180147, Control_c, 0, 64, 71
1, 180162, Control_c, 0, 64, 75
1, 180173, Note_off_c, 0, 52, 37
1, 180177, Control_c, 0, 64, 80
1, 180192, Control_c, 0, 64, 86
1, 180192, Note_off_c, 0, 45, 36
1, 180207, Poly_aftertouch_c, 0, 64, 127
1, 180207, Control_c, 0, 64, 95
1, 180213, Note_off_c, 0, 71, 55
1, 180221, Control_c, 0, 64, 112
1, 180236, Control_c, 0, 64, 127
1, 180250, Note_off_c, 0, 55, 42
1, 180276, Poly_aftertouch_c, 0, 64, 0
1, 180284, Note_on_c, 0, 66, 55
1, 180288, Note_on_c, 0, 61, 52
1, 180331, Note_off_c, 0, 61, 62
1, 180337, Note_off_c, 0, 66, 60
1, 180428, Control_c, 0, 67, 57
1, 180526, Note_on_c, 0, 57, 33
1, 180529, Note_on_c, 0, 78, 68
1, 180535, Note_on_c, 0, 61, 39
1, 180542, Note_on_c, 0, 66, 46
1, 180550, Note_on_c, 0, 50, 27
1, 180612, Note_off_c, 0, 78, 62
1, 180625, Note_off_c, 0, 61, 53
1, 180636, Note_off_c, 0, 57, 53
1, 180644, Note_off_c, 0, 66, 33
1, 180672, Note_off_c, 0, 50, 31
1, 180673, Control_c, 0, 67, 57
1, 180754, Note_on_c, 0, 74, 73
1, 180767, Note_on_c, 0, 69, 59
1, 180778, Control_c, 0, 67, 56
1, 180800, Note_off_c, 0, 69, 66
1, 180810, Note_off_c, 0, 74, 63
1, 180940, Control_c, 0, 64, 94
1, 180940, Control_c, 0, 67, 57
1, 180955, Control_c, 0, 64, 78
1, 180970, Control_c, 0, 64, 68
1, 180976, Note_on_c, 0, 73, 66
1, 180981, Note_on_c, 0, 47, 29
1, 180983, Note_on_c, 0, 54, 38
1, 180985, Control_c, 0, 64, 63
1, 180989, Note_on_c, 0, 57, 25
1, 180994, Note_on_c, 0, 61, 47
1, 181000, Control_c, 0, 64, 59
1, 181001, Note_on_c, 0, 66, 44
1, 181015, Control_c, 0, 64, 60
1, 181029, Control_c, 0, 64, 61
1, 181044, Control_c, 0, 64, 62
1, 181044, Control_c, 0, 67, 57
1, 181052, Note_off_c, 0, 61, 54
1, 181059, Control_c, 0, 64, 64
1, 181074, Control_c, 0, 64, 66
1, 181074, Control_c, 0, 67, 58
1, 181089, Control_c, 0, 64, 69
1, 181092, Note_off_c, 0, 47, 33
1, 181104, Control_c, 0, 64, 74
1, 181107, Note_off_c, 0, 54, 49
1, 181118, Control_c, 0, 64, 80
1, 181133, Control_c, 0, 64, 85
1, 181148, Control_c, 0, 64, 90
1, 181158, Note_off_c, 0, 57, 46
1, 181162, Control_c, 0, 64, 97
1, 181177, Control_c, 0, 64, 110
1, 181199, Control_c, 0, 64, 127
1, 181213, Note_off_c, 0, 73, 55
1, 181221, Note_on_c, 0, 63, 49
1, 181226, Note_on_c, 0, 68, 55
1, 181244, Control_c, 0, 67, 57
1, 181273, Note_off_c, 0, 66, 38
1, 181292, Note_off_c, 0, 63, 48
1, 181303, Note_off_c, 0, 68, 57
1, 181435, Note_on_c, 0, 52, 42
1, 181437, Note_on_c, 0, 59, 38
1, 181437, Note_on_c, 0, 63, 40
1, 181439, Note_on_c, 0, 75, 66
1, 181453, Note_on_c, 0, 68, 49
1, 181466, Note_off_c, 0, 63, 58
1, 181489, Note_off_c, 0, 59, 59
1, 181516, Note_off_c, 0, 52, 55
1, 181544, Note_off_c, 0, 75, 56
1, 181657, Note_on_c, 0, 66, 50
1, 181660, Note_on_c, 0, 61, 55
1, 181733, Note_off_c, 0, 66, 43
1, 181739, Note_off_c, 0, 61, 60
1, 181823, Note_off_c, 0, 68, 53
1, 181837, Control_c, 0, 64, 122
1, 181852, Control_c, 0, 64, 92
1, 181865, Note_on_c, 0, 55, 39
1, 181867, Control_c, 0, 64, 77
1, 181869, Note_on_c, 0, 45, 37
1, 181877, Note_on_c, 0, 59, 55
1, 181879, Note_on_c, 0, 71, 62
1, 181882, Control_c, 0, 64, 66
1, 181887, Note_on_c, 0, 64, 44
1, 181889, Note_on_c, 0, 52, 21
1, 181897, Control_c, 0, 64, 60
1, 181912, Control_c, 0, 64, 59
1, 181927, Control_c, 0, 64, 61
1, 181948, Note_off_c, 0, 59, 57
1, 181948, Control_c, 0, 64, 63
1, 181963, Control_c, 0, 64, 65
1, 181978, Control_c, 0, 64, 69
1, 181992, Control_c, 0, 64, 74
1, 182006, Note_off_c, 0, 45, 54
1, 182007, Control_c, 0, 64, 81
1, 182008, Note_off_c, 0, 52, 38
1, 182022, Control_c, 0, 64, 90
1, 182037, Control_c, 0, 64, 111
1, 182052, Control_c, 0, 64, 127
1, 182069, Note_off_c, 0, 71, 57
1, 182092, Note_off_c, 0, 55, 35
1, 182117, Note_off_c, 0, 64, 50
1, 182127, Note_on_c, 0, 61, 51
1, 182130, Note_on_c, 0, 66, 55
1, 182171, Note_off_c, 0, 61, 60
1, 182189, Note_off_c, 0, 66, 59
1, 182359, Note_on_c, 0, 57, 35
1, 182362, Note_on_c, 0, 50, 30
1, 182364, Note_on_c, 0, 61, 38
1, 182365, Note_on_c, 0, 78, 64
1, 182379, Note_on_c, 0, 73, 53
1, 182394, Note_on_c, 0, 66, 10
1, 182407, Note_off_c, 0, 73, 64
1, 182438, Note_off_c, 0, 78, 62
1, 182442, Note_off_c, 0, 66, 47
1, 182451, Note_off_c, 0, 61, 48
1, 182469, Note_off_c, 0, 57, 56
1, 182511, Note_off_c, 0, 50, 36
1, 182580, Note_on_c, 0, 74, 71
1, 182591, Note_on_c, 0, 69, 58
1, 182626, Note_off_c, 0, 69, 65
1, 182630, Control_c, 0, 67, 57
1, 182636, Note_off_c, 0, 74, 63
1, 182726, Control_c, 0, 64, 125
1, 182726, Control_c, 0, 67, 57
1, 182741, Control_c, 0, 64, 91
1, 182756, Control_c, 0, 64, 76
1, 182770, Control_c, 0, 64, 66
1, 182782, Note_on_c, 0, 47, 41
1, 182785, Control_c, 0, 64, 58
1, 182793, Note_on_c, 0, 73, 67
1, 182795, Note_on_c, 0, 54, 41
1, 182795, Note_on_c, 0, 57, 33
1, 182800, Control_c, 0, 64, 55
1, 182806, Note_on_c, 0, 61, 50
1, 182813, Note_on_c, 0, 66, 45
1, 182815, Control_c, 0, 64, 57
1, 182830, Control_c, 0, 64, 59
1, 182845, Control_c, 0, 64, 62
1, 182845, Control_c, 0, 67, 58
1, 182860, Control_c, 0, 64, 64
1, 182875, Control_c, 0, 64, 67
1, 182875, Control_c, 0, 67, 59
1, 182876, Note_off_c, 0, 61, 53
1, 182884, Note_off_c, 0, 47, 55
1, 182889, Control_c, 0, 64, 71
1, 182904, Control_c, 0, 64, 76
1, 182904, Note_off_c, 0, 54, 54
1, 182919, Control_c, 0, 64, 82
1, 182934, Control_c, 0, 64, 89
1, 182949, Control_c, 0, 64, 99
1, 182963, Control_c, 0, 64, 127
1, 182965, Note_off_c, 0, 57, 44
1, 183030, Note_off_c, 0, 73, 55
1, 183033, Note_on_c, 0, 68, 55
1, 183034, Note_on_c, 0, 63, 48
1, 183063, Note_off_c, 0, 66, 37
1, 183089, Note_off_c, 0, 63, 54
1, 183119, Note_off_c, 0, 68, 58
1, 183218, Note_on_c, 0, 63, 41
1, 183230, Note_on_c, 0, 52, 41
1, 183232, Note_on_c, 0, 59, 39
1, 183235, Note_on_c, 0, 75, 63
1, 183247, Note_on_c, 0, 68, 60
1, 183249, Note_off_c, 0, 63, 58
1, 183277, Note_off_c, 0, 59, 61
1, 183313, Note_off_c, 0, 52, 58
1, 183318, Note_off_c, 0, 75, 61
1, 183453, Note_on_c, 0, 61, 53
1, 183453, Note_on_c, 0, 66, 48
1, 183539, Note_off_c, 0, 66, 54
1, 183540, Note_off_c, 0, 61, 60
1, 183609, Control_c, 0, 64, 116
1, 183624, Control_c, 0, 64, 94
1, 183632, Note_off_c, 0, 68, 60
1, 183638, Control_c, 0, 64, 80
1, 183653, Control_c, 0, 64, 69
1, 183668, Control_c, 0, 64, 62
1, 183672, Note_on_c, 0, 45, 35
1, 183678, Note_on_c, 0, 59, 54
1, 183680, Note_on_c, 0, 55, 29
1, 183680, Note_on_c, 0, 71, 59
1, 183683, Control_c, 0, 64, 56
1, 183695, Note_on_c, 0, 52, 20
1, 183696, Note_on_c, 0, 64, 44
1, 183698, Control_c, 0, 64, 57
1, 183712, Control_c, 0, 64, 60
1, 183727, Control_c, 0, 64, 62
1, 183742, Control_c, 0, 64, 64
1, 183745, Note_off_c, 0, 59, 61
1, 183757, Control_c, 0, 64, 67
1, 183772, Control_c, 0, 64, 70
1, 183787, Control_c, 0, 64, 74
1, 183792, Note_off_c, 0, 52, 40
1, 183802, Control_c, 0, 64, 80
1, 183817, Note_off_c, 0, 45, 34
1, 183817, Control_c, 0, 64, 91
1, 183822, Note_off_c, 0, 71, 59
1, 183831, Control_c, 0, 64, 107
1, 183846, Control_c, 0, 64, 127
1, 183864, Note_off_c, 0, 55, 44
1, 183899, Note_off_c, 0, 64, 47
1, 183905, Note_on_c, 0, 61, 48
1, 183913, Note_on_c, 0, 66, 53
1, 183966, Note_off_c, 0, 61, 54
1, 183981, Control_c, 0, 67, 59
1, 184001, Note_off_c, 0, 66, 56
1, 184125, Note_on_c, 0, 73, 52
1, 184135, Note_on_c, 0, 60, 36
1, 184139, Note_on_c, 0, 66, 55
1, 184147, Note_on_c, 0, 50, 32
1, 184156, Note_on_c, 0, 57, 33
1, 184193, Note_off_c, 0, 60, 58
1, 184210, Note_off_c, 0, 57, 61
1, 184243, Note_off_c, 0, 73, 62
1, 184245, Note_off_c, 0, 50, 54
1, 184373, Note_off_c, 0, 66, 33
1, 184383, Note_on_c, 0, 64, 54
1, 184404, Note_on_c, 0, 59, 52
1, 184451, Note_off_c, 0, 64, 61
1, 184484, Note_off_c, 0, 59, 49
1, 184580, Control_c, 0, 64, 104
1, 184595, Control_c, 0, 64, 86
1, 184610, Control_c, 0, 64, 73
1, 184624, Control_c, 0, 64, 64
1, 184629, Note_on_c, 0, 43, 28
1, 184639, Note_on_c, 0, 57, 47
1, 184639, Control_c, 0, 64, 56
1, 184645, Note_on_c, 0, 69, 53
1, 184647, Note_on_c, 0, 53, 23
1, 184652, Note_on_c, 0, 62, 39
1, 184654, Control_c, 0, 64, 53
1, 184660, Note_on_c, 0, 50, 10
1, 184669, Control_c, 0, 64, 56
1, 184684, Control_c, 0, 64, 59
1, 184699, Control_c, 0, 64, 62
1, 184712, Note_off_c, 0, 57, 48
1, 184714, Control_c, 0, 64, 64
1, 184729, Control_c, 0, 64, 67
1, 184744, Control_c, 0, 64, 72
1, 184759, Control_c, 0, 64, 77
1, 184772, Note_off_c, 0, 50, 32
1, 184773, Control_c, 0, 64, 84
1, 184788, Control_c, 0, 64, 96
1, 184803, Control_c, 0, 64, 127
1, 184809, Note_off_c, 0, 43, 40
1, 184865, Note_off_c, 0, 53, 41
1, 184912, Note_off_c, 0, 69, 35
1, 184917, Note_on_c, 0, 59, 41
1, 184923, Note_on_c, 0, 64, 50
1, 184928, Note_off_c, 0, 62, 40
1, 184983, Note_off_c, 0, 59, 56
1, 185009, Note_off_c, 0, 64, 60
1, 185166, Control_c, 0, 64, 104
1, 185181, Control_c, 0, 64, 87
1, 185196, Control_c, 0, 64, 75
1, 185210, Control_c, 0, 64, 67
1, 185212, Note_on_c, 0, 59, 33
1, 185215, Note_on_c, 0, 48, 37
1, 185220, Note_on_c, 0, 71, 57
1, 185225, Control_c, 0, 64, 62
1, 185230, Note_on_c, 0, 55, 32
1, 185237, Note_on_c, 0, 64, 48
1, 185240, Control_c, 0, 64, 59
1, 185255, Control_c, 0, 64, 60
1, 185270, Control_c, 0, 64, 61
1, 185284, Control_c, 0, 64, 63
1, 185299, Control_c, 0, 64, 64
1, 185314, Control_c, 0, 64, 66
1, 185329, Control_c, 0, 64, 68
1, 185344, Control_c, 0, 64, 71
1, 185358, Control_c, 0, 64, 75
1, 185373, Control_c, 0, 64, 79
1, 185383, Note_off_c, 0, 59, 30
1, 185388, Control_c, 0, 64, 83
1, 185396, Note_off_c, 0, 71, 36
1, 185403, Control_c, 0, 64, 87
1, 185417, Control_c, 0, 64, 92
1, 185432, Control_c, 0, 64, 97
1, 185447, Control_c, 0, 64, 101
1, 185454, Note_off_c, 0, 55, 43
1, 185462, Control_c, 0, 64, 104
1, 185471, Note_off_c, 0, 48, 30
1, 185477, Control_c, 0, 64, 105
1, 185492, Control_c, 0, 64, 106
1, 185507, Control_c, 0, 64, 110
1, 185507, Control_c, 0, 67, 59
1, 185522, Control_c, 0, 64, 115
1, 185537, Control_c, 0, 64, 120
1, 185552, Control_c, 0, 64, 122
1, 185569, Note_on_c, 0, 60, 44
1, 185581, Control_c, 0, 64, 125
1, 185671, Control_c, 0, 64, 122
1, 185693, Control_c, 0, 64, 120
1, 185708, Control_c, 0, 64, 119
1, 185722, Control_c, 0, 64, 117
1, 185737, Control_c, 0, 64, 115
1, 185752, Control_c, 0, 64, 114
1, 185767, Control_c, 0, 64, 113
1, 185782, Control_c, 0, 64, 112
1, 185796, Control_c, 0, 64, 112
1, 185796, Control_c, 0, 67, 59
1, 185811, Control_c, 0, 64, 111
1, 185826, Control_c, 0, 64, 109
1, 185841, Control_c, 0, 64, 109
1, 185856, Control_c, 0, 64, 108
1, 185870, Control_c, 0, 64, 108
1, 185885, Control_c, 0, 64, 107
1, 185900, Control_c, 0, 64, 106
1, 185915, Control_c, 0, 64, 105
1, 185930, Control_c, 0, 64, 105
1, 185960, Control_c, 0, 64, 103
1, 185975, Control_c, 0, 64, 101
1, 185989, Control_c, 0, 64, 99
1, 186004, Control_c, 0, 64, 98
1, 186019, Control_c, 0, 64, 96
1, 186033, Control_c, 0, 64, 94
1, 186048, Control_c, 0, 64, 91
1, 186048, Control_c, 0, 67, 60
1, 186063, Control_c, 0, 64, 88
1, 186076, Note_on_c, 0, 42, 36
1, 186078, Control_c, 0, 64, 85
1, 186088, Note_on_c, 0, 58, 42
1, 186093, Control_c, 0, 64, 82
1, 186097, Note_on_c, 0, 49, 31
1, 186106, Note_on_c, 0, 68, 42
1, 186107, Control_c, 0, 64, 78
1, 186122, Control_c, 0, 64, 75
1, 186137, Control_c, 0, 64, 70
1, 186152, Control_c, 0, 64, 67
1, 186167, Control_c, 0, 64, 64
1, 186181, Control_c, 0, 64, 61
1, 186196, Control_c, 0, 64, 58
1, 186211, Control_c, 0, 64, 55
1, 186226, Control_c, 0, 64, 53
1, 186240, Control_c, 0, 64, 52
1, 186255, Control_c, 0, 64, 51
1, 186270, Control_c, 0, 67, 61
1, 186359, Control_c, 0, 64, 51
1, 186374, Control_c, 0, 64, 52
1, 186389, Control_c, 0, 64, 53
1, 186404, Control_c, 0, 64, 54
1, 186419, Control_c, 0, 64, 55
1, 186441, Control_c, 0, 64, 56
1, 186456, Control_c, 0, 64, 57
1, 186470, Control_c, 0, 64, 59
1, 186485, Control_c, 0, 64, 60
1, 186500, Control_c, 0, 64, 62
1, 186515, Control_c, 0, 64, 63
1, 186530, Control_c, 0, 64, 65
1, 186544, Control_c, 0, 64, 67
1, 186559, Control_c, 0, 64, 69
1, 186574, Control_c, 0, 64, 73
1, 186589, Control_c, 0, 64, 76
1, 186604, Control_c, 0, 64, 80
1, 186619, Control_c, 0, 64, 85
1, 186634, Control_c, 0, 64, 94
1, 186648, Control_c, 0, 64, 110
1, 186663, Control_c, 0, 64, 127
1, 187063, Control_c, 0, 64, 115
1, 187078, Control_c, 0, 64, 108
1, 187093, Control_c, 0, 64, 103
1, 187108, Control_c, 0, 64, 100
1, 187122, Control_c, 0, 64, 98
1, 187138, Control_c, 0, 64, 96
1, 187152, Control_c, 0, 64, 94
1, 187167, Control_c, 0, 64, 92
1, 187190, Control_c, 0, 64, 90
1, 187205, Control_c, 0, 64, 88
1, 187220, Control_c, 0, 64, 87
1, 187234, Control_c, 0, 64, 86
1, 187249, Control_c, 0, 64, 85
1, 187264, Control_c, 0, 64, 85
1, 187279, Control_c, 0, 64, 84
1, 187293, Control_c, 0, 64, 83
1, 187293, Control_c, 0, 67, 61
1, 187308, Control_c, 0, 64, 81
1, 187323, Control_c, 0, 64, 80
1, 187338, Control_c, 0, 64, 78
1, 187353, Control_c, 0, 64, 77
1, 187367, Control_c, 0, 64, 75
1, 187382, Control_c, 0, 64, 74
1, 187397, Control_c, 0, 64, 72
1, 187412, Control_c, 0, 64, 71
1, 187427, Control_c, 0, 64, 71
1, 187441, Control_c, 0, 64, 70
1, 187444, Note_off_c, 0, 49, 28
1, 187456, Control_c, 0, 64, 69
1, 187471, Control_c, 0, 64, 69
1, 187486, Control_c, 0, 64, 68
1, 187501, Control_c, 0, 64, 68
1, 187516, Control_c, 0, 64, 67
1, 187528, Note_off_c, 0, 42, 21
1, 187546, Control_c, 0, 64, 67
1, 187560, Control_c, 0, 64, 66
1, 187590, Note_off_c, 0, 64, 27
1, 187590, Control_c, 0, 64, 66
1, 187590, Control_c, 0, 67, 62
1, 187597, Note_off_c, 0, 58, 23
1, 187619, Control_c, 0, 64, 65
1, 187634, Control_c, 0, 64, 65
1, 187649, Control_c, 0, 64, 64
1, 187664, Control_c, 0, 64, 64
1, 187678, Control_c, 0, 64, 63
1, 187693, Control_c, 0, 64, 62
1, 187708, Control_c, 0, 64, 61
1, 187723, Control_c, 0, 64, 60
1, 187731, Note_off_c, 0, 68, 29
1, 187738, Control_c, 0, 64, 59
1, 187752, Control_c, 0, 64, 58
1, 187767, Control_c, 0, 64, 57
1, 187782, Control_c, 0, 64, 56
1, 187797, Control_c, 0, 64, 55
1, 187811, Control_c, 0, 64, 54
1, 187826, Control_c, 0, 64, 53
1, 187841, Control_c, 0, 64, 52
1, 187841, Control_c, 0, 67, 62
1, 187856, Control_c, 0, 64, 51
1, 187871, Control_c, 0, 64, 50
1, 187886, Control_c, 0, 64, 48
1, 187900, Control_c, 0, 64, 47
1, 187915, Control_c, 0, 64, 45
1, 187939, Control_c, 0, 64, 43
1, 187954, Control_c, 0, 64, 42
1, 187969, Control_c, 0, 64, 40
1, 187983, Control_c, 0, 64, 39
1, 187998, Control_c, 0, 64, 38
1, 188013, Control_c, 0, 64, 36
1, 188028, Control_c, 0, 64, 34
1, 188043, Control_c, 0, 64, 32
1, 188057, Control_c, 0, 64, 30
1, 188072, Control_c, 0, 64, 28
1, 188087, Control_c, 0, 64, 26
1, 188102, Control_c, 0, 64, 23
1, 188116, Control_c, 0, 64, 20
1, 188131, Control_c, 0, 64, 16
1, 188146, Control_c, 0, 64, 12
1, 188161, Control_c, 0, 64, 0
1, 188339, Control_c, 0, 67, 63
1, 188604, Control_c, 0, 67, 62
1, 188634, Control_c, 0, 67, 62
1, 188664, Control_c, 0, 67, 61
1, 188686, Control_c, 0, 64, 12
1, 188686, Control_c, 0, 67, 61
1, 188701, Control_c, 0, 64, 31
1, 188715, Control_c, 0, 64, 45
1, 188715, Control_c, 0, 67, 60
1, 188723, Note_off_c, 0, 60, 48
1, 188731, Control_c, 0, 64, 56
1, 188746, Control_c, 0, 64, 62
1, 188746, Control_c, 0, 67, 59
1, 188761, Control_c, 0, 64, 63
1, 188776, Control_c, 0, 64, 66
1, 188791, Control_c, 0, 64, 70
1, 188791, Control_c, 0, 67, 59
1, 188805, Control_c, 0, 64, 78
1, 188805, Control_c, 0, 67, 58
1, 188820, Control_c, 0, 64, 89
1, 188820, Control_c, 0, 67, 57
1, 188835, Control_c, 0, 64, 104
1, 188835, Control_c, 0, 67, 56
1, 188850, Control_c, 0, 64, 127
1, 188850, Control_c, 0, 67, 54
1, 188862, Note_on_c, 0, 35, 34
1, 188864, Control_c, 0, 67, 53
1, 188879, Control_c, 0, 67, 51
1, 188888, Note_on_c, 0, 47, 23
1, 188894, Control_c, 0, 67, 46
1, 188905, Note_off_c, 0, 35, 47
1, 188909, Control_c, 0, 67, 38
1, 188924, Control_c, 0, 67, 23
1, 188929, Note_off_c, 0, 47, 41
1, 188938, Control_c, 0, 67, 0
1, 188991, Poly_aftertouch_c, 0, 57, 127
1, 189000, Note_on_c, 0, 64, 49
1, 189030, Poly_aftertouch_c, 0, 57, 0
1, 189034, Poly_aftertouch_c, 0, 59, 0
1, 189046, Note_off_c, 0, 64, 62
1, 189082, Note_on_c, 0, 71, 41
1, 189099, Note_on_c, 0, 69, 18
1, 189110, Note_on_c, 0, 61, 63
1, 189111, Poly_aftertouch_c, 0, 66, 0
1, 189111, Note_off_c, 0, 71, 54
1, 189130, Note_off_c, 0, 61, 63
1, 189140, Note_off_c, 0, 69, 0
1, 189140, Note_on_c, 0, 69, 37
1, 189195, Note_on_c, 0, 75, 67
1, 189197, Note_off_c, 0, 69, 64
1, 189212, Note_off_c, 0, 75, 60
1, 189230, Note_on_c, 0, 76, 60
1, 189258, Note_off_c, 0, 76, 65
1, 189259, Note_on_c, 0, 77, 35
1, 189260, Note_on_c, 0, 81, 61
1, 189277, Note_on_c, 0, 73, 87
1, 189289, Note_off_c, 0, 77, 44
1, 189289, Note_off_c, 0, 81, 68
1, 189295, Note_off_c, 0, 73, 73
1, 189334, Note_on_c, 0, 81, 73
1, 189336, Poly_aftertouch_c, 0, 79, 127
1, 189350, Poly_aftertouch_c, 0, 79, 0
1, 189382, Note_off_c, 0, 81, 62
1, 189385, Note_on_c, 0, 88, 71
1, 189395, Note_on_c, 0, 90, 69
1, 189415, Note_off_c, 0, 88, 64
1, 189439, Note_off_c, 0, 90, 59
1, 189439, Note_on_c, 0, 93, 67
1, 189450, Note_on_c, 0, 95, 77
1, 189488, Note_on_c, 0, 85, 75
1, 189502, Note_on_c, 0, 73, 45
1, 189510, Note_off_c, 0, 85, 72
1, 189516, Note_off_c, 0, 95, 63
1, 189523, Note_on_c, 0, 90, 72
1, 189530, Note_off_c, 0, 73, 36
1, 189537, Note_off_c, 0, 93, 63
1, 189540, Note_on_c, 0, 88, 63
1, 189572, Note_off_c, 0, 88, 66
1, 189572, Note_off_c, 0, 90, 60
1, 189597, Note_on_c, 0, 83, 34
1, 189614, Note_on_c, 0, 81, 35
1, 189627, Note_off_c, 0, 83, 53
1, 189647, Note_off_c, 0, 81, 49
1, 189678, Note_on_c, 0, 83, 40
1, 189698, Note_on_c, 0, 81, 53
1, 189716, Note_on_c, 0, 78, 61
1, 189725, Note_off_c, 0, 83, 45
1, 189762, Note_on_c, 0, 76, 37
1, 189805, Note_off_c, 0, 76, 46
1, 189809, Note_off_c, 0, 78, 59
1, 189820, Note_on_c, 0, 69, 66
1, 189856, Note_off_c, 0, 81, 59
1, 189892, Note_off_c, 0, 69, 62
1, 189899, Note_on_c, 0, 76, 43
1, 189923, Note_on_c, 0, 87, 73
1, 189926, Note_on_c, 0, 75, 72
1, 189939, Note_on_c, 0, 78, 63
1, 189956, Note_off_c, 0, 87, 61
1, 189960, Note_off_c, 0, 76, 61
1, 189973, Note_off_c, 0, 75, 58
1, 189973, Note_off_c, 0, 78, 67
1, 190006, Note_on_c, 0, 83, 10
1, 190061, Note_off_c, 0, 83, 0
1, 190066, Poly_aftertouch_c, 0, 81, 127
1, 190079, Note_on_c, 0, 83, 25
1, 190145, Note_on_c, 0, 88, 67
1, 190154, Poly_aftertouch_c, 0, 81, 0
1, 190166, Note_on_c, 0, 90, 66
1, 190184, Note_off_c, 0, 83, 42
1, 190201, Note_off_c, 0, 88, 60
1, 190227, Note_off_c, 0, 90, 62
1, 190235, Note_on_c, 0, 93, 58
1, 190237, Note_on_c, 0, 95, 68
1, 190300, Note_on_c, 0, 85, 78
1, 190305, Note_on_c, 0, 73, 72
1, 190306, Note_off_c, 0, 95, 61
1, 190313, Note_on_c, 0, 90, 68
1, 190321, Note_off_c, 0, 93, 63
1, 190328, Note_off_c, 0, 85, 67
1, 190333, Note_off_c, 0, 73, 68
1, 190349, Note_on_c, 0, 88, 50
1, 190381, Note_off_c, 0, 90, 63
1, 190392, Note_off_c, 0, 88, 65
1, 190404, Note_on_c, 0, 83, 46
1, 190408, Note_on_c, 0, 81, 60
1, 190426, Note_off_c, 0, 81, 67
1, 190428, Note_off_c, 0, 83, 56
1, 190489, Note_on_c, 0, 83, 47
1, 190507, Note_on_c, 0, 81, 63
1, 190530, Note_on_c, 0, 78, 66
1, 190542, Note_off_c, 0, 83, 51
1, 190548, Note_off_c, 0, 81, 54
1, 190598, Note_on_c, 0, 76, 34
1, 190632, Note_off_c, 0, 76, 52
1, 190643, Note_off_c, 0, 78, 45
1, 190662, Note_on_c, 0, 69, 49
1, 190669, Note_on_c, 0, 71, 49
1, 190707, Note_off_c, 0, 71, 62
1, 190713, Note_off_c, 0, 69, 64
1, 190731, Note_on_c, 0, 76, 58
1, 190736, Note_on_c, 0, 90, 74
1, 190743, Note_on_c, 0, 78, 74
1, 190771, Note_off_c, 0, 90, 60
1, 190798, Note_off_c, 0, 76, 56
1, 190812, Note_off_c, 0, 78, 64
1, 190836, Note_on_c, 0, 83, 24
1, 190873, Note_off_c, 0, 83, 42
1, 190917, Poly_aftertouch_c, 0, 81, 0
1, 190938, Note_on_c, 0, 87, 83
1, 190944, Note_on_c, 0, 81, 27
1, 190946, Note_on_c, 0, 75, 77
1, 190971, Note_off_c, 0, 87, 63
1, 190981, Note_off_c, 0, 75, 55
1, 190983, Note_off_c, 0, 81, 65
1, 191009, Note_on_c, 0, 88, 65
1, 191042, Note_on_c, 0, 90, 58
1, 191063, Note_off_c, 0, 88, 54
1, 191105, Note_off_c, 0, 90, 61
1, 191127, Note_on_c, 0, 93, 50
1, 191132, Note_on_c, 0, 95, 56
1, 191148, Note_on_c, 0, 85, 78
1, 191156, Note_on_c, 0, 73, 72
1, 191176, Note_off_c, 0, 85, 64
1, 191183, Note_off_c, 0, 73, 67
1, 191185, Note_off_c, 0, 95, 56
1, 191207, Note_on_c, 0, 90, 63
1, 191216, Note_off_c, 0, 93, 60
1, 191246, Note_on_c, 0, 88, 55
1, 191271, Note_off_c, 0, 90, 63
1, 191284, Note_off_c, 0, 88, 66
1, 191307, Note_on_c, 0, 81, 53
1, 191317, Note_on_c, 0, 83, 18
1, 191325, Note_off_c, 0, 81, 63
1, 191339, Note_off_c, 0, 83, 0
1, 191369, Note_on_c, 0, 83, 6
1, 191409, Note_on_c, 0, 81, 61
1, 191431, Note_on_c, 0, 78, 60
1, 191475, Note_on_c, 0, 76, 53
1, 191492, Note_off_c, 0, 83, 35
1, 191519, Note_off_c, 0, 76, 62
1, 191528, Note_off_c, 0, 78, 58
1, 191549, Note_on_c, 0, 69, 48
1, 191559, Note_on_c, 0, 71, 47
1, 191571, Note_on_c, 0, 68, 65
1, 191572, Note_on_c, 0, 80, 66
1, 191588, Note_off_c, 0, 81, 17
1, 191589, Note_off_c, 0, 71, 63
1, 191592, Note_off_c, 0, 69, 66
1, 191600, Note_off_c, 0, 80, 68
1, 191601, Note_off_c, 0, 68, 66
1, 191621, Note_on_c, 0, 76, 55
1, 191668, Note_on_c, 0, 78, 59
1, 191697, Note_off_c, 0, 76, 57
1, 191713, Note_off_c, 0, 78, 67
1, 191725, Note_on_c, 0, 81, 44
1, 191728, Note_on_c, 0, 83, 37
1, 191758, Note_off_c, 0, 81, 65
1, 191758, Note_off_c, 0, 83, 56
1, 191824, Note_on_c, 0, 81, 50
1, 191826, Note_on_c, 0, 83, 53
1, 191859, Note_off_c, 0, 83, 64
1, 191860, Note_off_c, 0, 81, 66
1, 191874, Note_on_c, 0, 88, 69
1, 191898, Note_on_c, 0, 90, 61
1, 191936, Note_off_c, 0, 88, 63
1, 191953, Note_off_c, 0, 90, 57
1, 191968, Note_on_c, 0, 68, 67
1, 191969, Note_on_c, 0, 80, 68
1, 191970, Note_on_c, 0, 93, 57
1, 191976, Note_on_c, 0, 95, 64
1, 192038, Note_off_c, 0, 80, 55
1, 192043, Note_off_c, 0, 95, 52
1, 192049, Note_on_c, 0, 90, 64
1, 192057, Note_off_c, 0, 93, 62
1, 192084, Note_on_c, 0, 88, 47
1, 192101, Note_off_c, 0, 90, 58
1, 192120, Note_off_c, 0, 88, 66
1, 192148, Note_on_c, 0, 81, 50
1, 192157, Note_on_c, 0, 83, 19
1, 192167, Note_off_c, 0, 81, 62
1, 192172, Note_off_c, 0, 83, 0
1, 192210, Poly_aftertouch_c, 0, 83, 127
1, 192243, Note_on_c, 0, 81, 47
1, 192270, Note_on_c, 0, 78, 54
1, 192296, Poly_aftertouch_c, 0, 83, 0
1, 192312, Note_on_c, 0, 76, 50
1, 192339, Note_off_c, 0, 81, 0
1, 192354, Note_off_c, 0, 76, 61
1, 192372, Note_on_c, 0, 66, 43
1, 192376, Note_on_c, 0, 69, 61
1, 192376, Poly_aftertouch_c, 0, 81, 127
1, 192384, Note_off_c, 0, 78, 63
1, 192417, Note_off_c, 0, 69, 63
1, 192435, Note_off_c, 0, 66, 57
1, 192437, Note_off_c, 0, 68, 37
1, 192444, Poly_aftertouch_c, 0, 81, 0
1, 192456, Note_on_c, 0, 76, 58
1, 192497, Note_on_c, 0, 78, 54
1, 192499, Note_off_c, 0, 76, 58
1, 192535, Note_off_c, 0, 78, 66
1, 192542, Note_on_c, 0, 83, 54
1, 192562, Note_on_c, 0, 81, 29
1, 192580, Note_off_c, 0, 83, 63
1, 192593, Note_off_c, 0, 81, 48
1, 192640, Note_on_c, 0, 59, 59
1, 192647, Note_on_c, 0, 81, 43
1, 192699, Note_on_c, 0, 87, 67
1, 192709, Note_off_c, 0, 81, 58
1, 192724, Note_off_c, 0, 59, 52
1, 192753, Note_off_c, 0, 87, 64
1, 192768, Note_on_c, 0, 90, 33
1, 192794, Note_on_c, 0, 61, 59
1, 192804, Note_on_c, 0, 73, 66
1, 192809, Note_off_c, 0, 90, 50
1, 192831, Note_on_c, 0, 93, 53
1, 192831, Note_on_c, 0, 95, 56
1, 192866, Note_off_c, 0, 73, 63
1, 192873, Note_off_c, 0, 61, 62
1, 192901, Note_on_c, 0, 90, 67
1, 192917, Note_off_c, 0, 95, 61
1, 192917, Note_off_c, 0, 93, 59
1, 192935, Note_on_c, 0, 88, 52
1, 192960, Note_off_c, 0, 90, 60
1, 192971, Note_off_c, 0, 88, 66
1, 192988, Note_on_c, 0, 81, 52
1, 192997, Note_on_c, 0, 83, 29
1, 193007, Note_off_c, 0, 81, 62
1, 193044, Note_off_c, 0, 83, 0
1, 193063, Note_on_c, 0, 83, 24
1, 193087, Note_on_c, 0, 81, 57
1, 193105, Note_on_c, 0, 78, 67
1, 193133, Note_off_c, 0, 83, 55
1, 193140, Note_off_c, 0, 81, 51
1, 193150, Note_on_c, 0, 76, 54
1, 193199, Note_off_c, 0, 76, 62
1, 193203, Note_off_c, 0, 78, 60
1, 193215, Note_on_c, 0, 75, 66
1, 193216, Note_on_c, 0, 69, 60
1, 193229, Note_on_c, 0, 63, 49
1, 193269, Note_off_c, 0, 69, 61
1, 193272, Note_off_c, 0, 63, 64
1, 193290, Note_off_c, 0, 75, 61
1, 193294, Note_on_c, 0, 76, 59
1, 193332, Note_on_c, 0, 78, 62
1, 193343, Note_off_c, 0, 76, 59
1, 193363, Note_off_c, 0, 78, 67
1, 193365, Note_on_c, 0, 81, 40
1, 193378, Note_on_c, 0, 83, 37
1, 193396, Note_off_c, 0, 81, 61
1, 193407, Note_off_c, 0, 83, 54
1, 193455, Note_on_c, 0, 81, 46
1, 193507, Note_off_c, 0, 81, 55
1, 193513, Note_on_c, 0, 88, 61
1, 193539, Note_on_c, 0, 90, 58
1, 193558, Note_off_c, 0, 88, 62
1, 193576, Note_off_c, 0, 90, 62
1, 193600, Note_on_c, 0, 93, 52
1, 193613, Note_on_c, 0, 95, 60
1, 193627, Note_on_c, 0, 73, 64
1, 193629, Note_on_c, 0, 61, 60
1, 193661, Note_off_c, 0, 61, 65
1, 193667, Note_off_c, 0, 73, 59
1, 193680, Note_on_c, 0, 90, 65
1, 193681, Note_off_c, 0, 95, 55
1, 193683, Note_off_c, 0, 93, 60
1, 193713, Note_on_c, 0, 88, 43
1, 193728, Note_off_c, 0, 90, 60
1, 193740, Note_off_c, 0, 88, 64
1, 193762, Note_on_c, 0, 81, 49
1, 193782, Note_off_c, 0, 81, 62
1, 193834, Note_on_c, 0, 83, 29
1, 193867, Note_on_c, 0, 81, 57
1, 193879, Note_on_c, 0, 78, 69
1, 193899, Note_off_c, 0, 81, 49
1, 193930, Note_on_c, 0, 76, 54
1, 193942, Note_off_c, 0, 83, 35
1, 193976, Note_off_c, 0, 78, 60
1, 193977, Note_off_c, 0, 76, 60
1, 194002, Note_on_c, 0, 69, 49
1, 194008, Note_on_c, 0, 71, 50
1, 194035, Note_on_c, 0, 78, 62
1, 194037, Note_off_c, 0, 71, 64
1, 194040, Note_on_c, 0, 66, 62
1, 194044, Note_off_c, 0, 69, 65
1, 194072, Note_off_c, 0, 66, 67
1, 194074, Note_on_c, 0, 76, 59
1, 194116, Note_off_c, 0, 76, 62
1, 194122, Note_off_c, 0, 78, 65
1, 194140, Note_on_c, 0, 83, 48
1, 194141, Note_on_c, 0, 81, 46
1, 194169, Note_off_c, 0, 81, 65
1, 194169, Note_off_c, 0, 83, 61
1, 194241, Note_on_c, 0, 75, 76
1, 194251, Note_on_c, 0, 63, 64
1, 194256, Note_on_c, 0, 81, 46
1, 194278, Note_off_c, 0, 75, 54
1, 194278, Note_off_c, 0, 81, 61
1, 194289, Note_off_c, 0, 63, 59
1, 194294, Note_on_c, 0, 88, 65
1, 194309, Poly_aftertouch_c, 0, 83, 127
1, 194322, Note_on_c, 0, 90, 61
1, 194330, Poly_aftertouch_c, 0, 83, 0
1, 194351, Note_off_c, 0, 88, 61
1, 194365, Note_off_c, 0, 90, 59
1, 194394, Note_on_c, 0, 95, 60
1, 194395, Note_on_c, 0, 93, 50
1, 194458, Note_on_c, 0, 73, 76
1, 194464, Note_on_c, 0, 61, 68
1, 194464, Note_off_c, 0, 95, 55
1, 194472, Note_off_c, 0, 93, 64
1, 194474, Note_on_c, 0, 90, 62
1, 194492, Note_on_c, 0, 88, 50
1, 194495, Note_off_c, 0, 61, 66
1, 194497, Note_off_c, 0, 73, 58
1, 194512, Note_off_c, 0, 90, 64
1, 194529, Note_off_c, 0, 88, 66
1, 194541, Note_on_c, 0, 83, 45
1, 194554, Note_on_c, 0, 81, 51
1, 194563, Note_off_c, 0, 83, 58
1, 194573, Note_off_c, 0, 81, 62
1, 194645, Note_on_c, 0, 83, 41
1, 194661, Note_on_c, 0, 81, 57
1, 194681, Note_on_c, 0, 78, 60
1, 194686, Note_off_c, 0, 83, 49
1, 194709, Note_off_c, 0, 81, 59
1, 194735, Note_on_c, 0, 77, 29
1, 194758, Note_off_c, 0, 78, 53
1, 194760, Note_off_c, 0, 77, 48
1, 194785, Note_on_c, 0, 69, 58
1, 194797, Note_on_c, 0, 71, 51
1, 194836, Note_off_c, 0, 69, 50
1, 194838, Note_off_c, 0, 71, 46
1, 194852, Note_on_c, 0, 76, 47
1, 194861, Note_on_c, 0, 56, 65
1, 194861, Note_on_c, 0, 68, 68
1, 194889, Note_off_c, 0, 68, 68
1, 194897, Note_off_c, 0, 56, 66
1, 194898, Note_on_c, 0, 78, 55
1, 194923, Note_off_c, 0, 76, 62
1, 194935, Note_off_c, 0, 78, 66
1, 194943, Note_on_c, 0, 81, 46
1, 194954, Note_on_c, 0, 83, 25
1, 194968, Note_off_c, 0, 81, 65
1, 194990, Note_off_c, 0, 83, 52
1, 195018, Note_on_c, 0, 81, 65
1, 195076, Note_off_c, 0, 81, 61
1, 195078, Note_on_c, 0, 88, 70
1, 195114, Note_on_c, 0, 90, 61
1, 195147, Note_off_c, 0, 88, 64
1, 195174, Note_off_c, 0, 90, 62
1, 195184, Note_on_c, 0, 93, 54
1, 195192, Note_on_c, 0, 95, 64
1, 195246, Note_on_c, 0, 68, 71
1, 195249, Note_on_c, 0, 56, 65
1, 195260, Note_on_c, 0, 90, 67
1, 195266, Note_off_c, 0, 95, 59
1, 195278, Note_off_c, 0, 93, 64
1, 195288, Note_on_c, 0, 88, 53
1, 195320, Note_off_c, 0, 90, 62
1, 195326, Note_off_c, 0, 88, 65
1, 195343, Note_on_c, 0, 83, 46
1, 195348, Note_off_c, 0, 68, 51
1, 195352, Note_on_c, 0, 81, 54
1, 195366, Note_off_c, 0, 83, 58
1, 195370, Note_off_c, 0, 81, 63
1, 195462, Note_on_c, 0, 78, 69
1, 195466, Note_on_c, 0, 81, 51
1, 195481, Poly_aftertouch_c, 0, 83, 127
1, 195508, Note_off_c, 0, 81, 52
1, 195509, Note_on_c, 0, 76, 47
1, 195519, Poly_aftertouch_c, 0, 83, 0
1, 195552, Note_off_c, 0, 76, 59
1, 195560, Note_off_c, 0, 78, 58
1, 195582, Note_on_c, 0, 69, 54
1, 195592, Note_on_c, 0, 71, 49
1, 195628, Note_off_c, 0, 71, 52
1, 195635, Note_off_c, 0, 69, 57
1, 195642, Note_on_c, 0, 66, 47
1, 195649, Note_on_c, 0, 54, 53
1, 195649, Note_on_c, 0, 76, 60
1, 195660, Note_off_c, 0, 56, 32
1, 195667, Note_off_c, 0, 66, 57
1, 195696, Note_off_c, 0, 54, 63
1, 195701, Note_on_c, 0, 78, 57
1, 195707, Control_c, 0, 67, 36
1, 195721, Note_off_c, 0, 76, 63
1, 195722, Control_c, 0, 67, 70
1, 195735, Note_off_c, 0, 78, 67
1, 195737, Control_c, 0, 67, 100
1, 195738, Note_on_c, 0, 81, 53
1, 195752, Control_c, 0, 67, 127
1, 195767, Note_off_c, 0, 81, 67
1, 195825, Note_on_c, 0, 81, 47
1, 195858, Note_off_c, 0, 81, 55
1, 195879, Note_on_c, 0, 88, 64
1, 195915, Note_on_c, 0, 45, 51
1, 195922, Note_on_c, 0, 52, 55
1, 195961, Note_off_c, 0, 52, 65
1, 195961, Note_off_c, 0, 45, 61
1, 195964, Note_off_c, 0, 88, 59
1, 195991, Note_on_c, 0, 90, 58
1, 196175, Note_off_c, 0, 90, 61
1, 196190, Control_c, 0, 64, 103
1, 196205, Control_c, 0, 64, 79
1, 196205, Note_on_c, 0, 64, 70
1, 196205, Note_on_c, 0, 93, 47
1, 196208, Note_on_c, 0, 61, 49
1, 196220, Note_on_c, 0, 57, 38
1, 196220, Control_c, 0, 64, 67
1, 196235, Control_c, 0, 64, 62
1, 196239, Note_on_c, 0, 56, 37
1, 196250, Control_c, 0, 64, 63
1, 196265, Control_c, 0, 64, 64
1, 196279, Control_c, 0, 64, 65
1, 196283, Note_on_c, 0, 90, 56
1, 196283, Note_off_c, 0, 93, 39
1, 196294, Control_c, 0, 64, 68
1, 196309, Control_c, 0, 64, 71
1, 196323, Control_c, 0, 64, 75
1, 196338, Control_c, 0, 64, 80
1, 196346, Note_on_c, 0, 88, 48
1, 196353, Note_off_c, 0, 90, 57
1, 196353, Control_c, 0, 64, 87
1, 196360, Note_off_c, 0, 57, 36
1, 196362, Note_off_c, 0, 61, 53
1, 196368, Control_c, 0, 64, 101
1, 196383, Note_off_c, 0, 88, 64
1, 196383, Control_c, 0, 64, 127
1, 196396, Note_on_c, 0, 85, 56
1, 196407, Note_off_c, 0, 56, 37
1, 196418, Note_off_c, 0, 85, 64
1, 196430, Note_on_c, 0, 81, 58
1, 196458, Note_off_c, 0, 81, 66
1, 196508, Note_on_c, 0, 78, 63
1, 196555, Note_on_c, 0, 76, 52
1, 196566, Note_off_c, 0, 78, 53
1, 196596, Note_on_c, 0, 73, 52
1, 196615, Note_off_c, 0, 64, 61
1, 196617, Note_off_c, 0, 76, 51
1, 196625, Note_off_c, 0, 73, 63
1, 196647, Note_on_c, 0, 69, 60
1, 196655, Note_on_c, 0, 66, 73
1, 196693, Note_off_c, 0, 69, 57
1, 196712, Note_on_c, 0, 73, 62
1, 196754, Note_off_c, 0, 73, 62
1, 196758, Note_on_c, 0, 76, 50
1, 196790, Note_off_c, 0, 76, 66
1, 196793, Note_on_c, 0, 78, 62
1, 196798, Note_off_c, 0, 66, 61
1, 196820, Note_off_c, 0, 78, 65
1, 196847, Note_on_c, 0, 64, 75
1, 196865, Note_on_c, 0, 81, 70
1, 196931, Note_off_c, 0, 81, 61
1, 196938, Note_on_c, 0, 85, 63
1, 196974, Note_on_c, 0, 88, 60
1, 196974, Note_off_c, 0, 85, 62
1, 197014, Note_off_c, 0, 88, 63
1, 197025, Note_on_c, 0, 90, 52
1, 197033, Note_off_c, 0, 64, 58
1, 197049, Note_on_c, 0, 93, 59
1, 197073, Note_on_c, 0, 61, 75
1, 197091, Note_on_c, 0, 57, 54
1, 197092, Note_on_c, 0, 54, 59
1, 197097, Note_off_c, 0, 93, 59
1, 197120, Note_off_c, 0, 61, 63
1, 197121, Note_on_c, 0, 88, 62
1, 197126, Note_off_c, 0, 57, 64
1, 197126, Note_off_c, 0, 90, 58
1, 197143, Note_off_c, 0, 54, 59
1, 197148, Note_off_c, 0, 88, 67
1, 197162, Note_on_c, 0, 85, 51
1, 197183, Note_off_c, 0, 85, 62
1, 197189, Note_on_c, 0, 81, 67
1, 197214, Note_off_c, 0, 81, 70
1, 197274, Note_on_c, 0, 78, 66
1, 197329, Note_on_c, 0, 76, 44
1, 197338, Note_off_c, 0, 78, 56
1, 197370, Note_on_c, 0, 73, 48
1, 197371, Note_off_c, 0, 76, 42
1, 197398, Note_off_c, 0, 73, 65
1, 197421, Note_on_c, 0, 69, 58
1, 197476, Note_off_c, 0, 69, 55
1, 197483, Note_on_c, 0, 45, 54
1, 197487, Note_on_c, 0, 73, 59
1, 197502, Note_on_c, 0, 52, 57
1, 197529, Note_off_c, 0, 45, 59
1, 197543, Note_off_c, 0, 52, 64
1, 197543, Note_off_c, 0, 73, 62
1, 197558, Note_on_c, 0, 76, 47
1, 197582, Note_off_c, 0, 76, 63
1, 197584, Note_on_c, 0, 78, 58
1, 197612, Note_off_c, 0, 78, 65
1, 197665, Note_on_c, 0, 81, 68
1, 197712, Note_off_c, 0, 81, 55
1, 197731, Note_on_c, 0, 85, 56
1, 197770, Note_off_c, 0, 85, 63
1, 197780, Note_on_c, 0, 88, 60
1, 197837, Note_off_c, 0, 88, 62
1, 197845, Note_on_c, 0, 90, 41
1, 197872, Note_on_c, 0, 93, 57
1, 197882, Note_off_c, 0, 90, 46
1, 197913, Note_on_c, 0, 64, 76
1, 197924, Note_on_c, 0, 57, 54
1, 197924, Note_on_c, 0, 61, 54
1, 197940, Note_on_c, 0, 56, 47
1, 197946, Note_off_c, 0, 93, 62
1, 197968, Note_on_c, 0, 88, 50
1, 198009, Poly_aftertouch_c, 0, 90, 0
1, 198012, Note_off_c, 0, 88, 62
1, 198021, Note_on_c, 0, 85, 57
1, 198026, Note_off_c, 0, 57, 56
1, 198047, Note_off_c, 0, 85, 64
1, 198050, Note_off_c, 0, 61, 52
1, 198053, Note_on_c, 0, 81, 64
1, 198058, Note_off_c, 0, 56, 54
1, 198082, Note_off_c, 0, 81, 68
1, 198146, Note_on_c, 0, 78, 61
1, 198207, Note_on_c, 0, 76, 38
1, 198209, Note_off_c, 0, 78, 57
1, 198239, Note_on_c, 0, 73, 51
1, 198270, Note_off_c, 0, 73, 64
1, 198274, Note_off_c, 0, 76, 34
1, 198291, Note_on_c, 0, 69, 59
1, 198338, Note_off_c, 0, 69, 53
1, 198349, Note_on_c, 0, 66, 78
1, 198359, Note_on_c, 0, 73, 59
1, 198367, Note_off_c, 0, 64, 0
1, 198420, Note_on_c, 0, 76, 51
1, 198423, Note_off_c, 0, 73, 61
1, 198434, Poly_aftertouch_c, 0, 64, 0
1, 198453, Note_on_c, 0, 78, 62
1, 198455, Note_off_c, 0, 76, 66
1, 198481, Note_off_c, 0, 78, 66
1, 198527, Note_off_c, 0, 66, 61
1, 198530, Note_on_c, 0, 81, 70
1, 198557, Note_on_c, 0, 64, 76
1, 198595, Note_off_c, 0, 81, 58
1, 198607, Note_on_c, 0, 85, 61
1, 198656, Note_on_c, 0, 88, 68
1, 198659, Note_off_c, 0, 85, 59
1, 198722, Note_off_c, 0, 88, 64
1, 198724, Note_on_c, 0, 90, 46
1, 198751, Note_on_c, 0, 93, 61
1, 198753, Note_off_c, 0, 64, 52
1, 198770, Note_on_c, 0, 61, 73
1, 198775, Note_on_c, 0, 57, 62
1, 198778, Note_on_c, 0, 54, 65
1, 198785, Note_off_c, 0, 90, 0
1, 198820, Note_off_c, 0, 93, 64
1, 198822, Poly_aftertouch_c, 0, 90, 127
1, 198837, Note_on_c, 0, 88, 60
1, 198863, Poly_aftertouch_c, 0, 90, 0
1, 198871, Note_off_c, 0, 88, 63
1, 198876, Note_on_c, 0, 85, 59
1, 198909, Note_off_c, 0, 85, 66
1, 198917, Note_on_c, 0, 81, 63
1, 198943, Note_off_c, 0, 57, 62
1, 198946, Note_off_c, 0, 81, 67
1, 198960, Note_off_c, 0, 61, 59
1, 198973, Note_on_c, 0, 59, 81
1, 198998, Note_on_c, 0, 78, 64
1, 199040, Note_on_c, 0, 76, 60
1, 199067, Note_off_c, 0, 78, 55
1, 199087, Note_on_c, 0, 73, 57
1, 199123, Note_off_c, 0, 73, 66
1, 199135, Note_off_c, 0, 76, 61
1, 199147, Note_on_c, 0, 69, 60
1, 199180, Note_off_c, 0, 54, 57
1, 199181, Note_on_c, 0, 61, 74
1, 199183, Note_off_c, 0, 59, 61
1, 199207, Note_off_c, 0, 61, 67
1, 199209, Note_off_c, 0, 69, 50
1, 199225, Note_on_c, 0, 73, 59
1, 199279, Note_on_c, 0, 76, 58
1, 199282, Note_off_c, 0, 73, 63
1, 199311, Note_on_c, 0, 78, 64
1, 199313, Note_off_c, 0, 76, 67
1, 199338, Note_off_c, 0, 78, 67
1, 199378, Note_on_c, 0, 45, 61
1, 199396, Note_on_c, 0, 81, 65
1, 199404, Note_on_c, 0, 52, 64
1, 199412, Note_off_c, 0, 45, 64
1, 199437, Note_off_c, 0, 52, 65
1, 199437, Note_off_c, 0, 81, 54
1, 199471, Note_on_c, 0, 85, 54
1, 199509, Note_off_c, 0, 85, 64
1, 199510, Note_on_c, 0, 88, 59
1, 199573, Note_off_c, 0, 88, 64
1, 199580, Note_on_c, 0, 90, 39
1, 199597, Note_on_c, 0, 93, 60
1, 199606, Note_on_c, 0, 58, 19
1, 199634, Note_on_c, 0, 64, 77
1, 199642, Note_on_c, 0, 61, 63
1, 199644, Note_off_c, 0, 90, 0
1, 199654, Note_on_c, 0, 56, 49
1, 199658, Control_c, 0, 64, 91
1, 199661, Note_on_c, 0, 57, 58
1, 199672, Note_off_c, 0, 93, 62
1, 199673, Control_c, 0, 64, 77
1, 199681, Poly_aftertouch_c, 0, 90, 127
1, 199687, Control_c, 0, 64, 70
1, 199691, Note_on_c, 0, 88, 58
1, 199702, Control_c, 0, 64, 69
1, 199717, Control_c, 0, 64, 71
1, 199720, Poly_aftertouch_c, 0, 90, 0
1, 199729, Note_off_c, 0, 88, 63
1, 199732, Control_c, 0, 64, 74
1, 199735, Note_on_c, 0, 85, 56
1, 199747, Control_c, 0, 64, 79
1, 199761, Control_c, 0, 64, 86
1, 199767, Note_off_c, 0, 85, 66
1, 199769, Note_on_c, 0, 81, 64
1, 199776, Control_c, 0, 64, 97
1, 199791, Control_c, 0, 64, 127
1, 199797, Note_off_c, 0, 81, 69
1, 199813, Note_off_c, 0, 58, 17
1, 199817, Note_off_c, 0, 57, 58
1, 199839, Note_off_c, 0, 61, 59
1, 199848, Note_off_c, 0, 56, 57
1, 199854, Note_on_c, 0, 78, 64
1, 199914, Note_on_c, 0, 76, 53
1, 199930, Note_off_c, 0, 78, 52
1, 199953, Note_on_c, 0, 73, 56
1, 199987, Note_off_c, 0, 73, 66
1, 199987, Note_off_c, 0, 76, 58
1, 200009, Note_on_c, 0, 69, 62
1, 200051, Note_on_c, 0, 66, 72
1, 200053, Note_off_c, 0, 69, 55
1, 200057, Note_off_c, 0, 64, 57
1, 200075, Note_on_c, 0, 73, 57
1, 200125, Note_off_c, 0, 73, 62
1, 200140, Note_on_c, 0, 76, 52
1, 200142, Note_off_c, 0, 66, 61
1, 200159, Note_off_c, 0, 76, 62
1, 200161, Note_on_c, 0, 78, 60
1, 200184, Note_off_c, 0, 78, 64
1, 200238, Note_on_c, 0, 81, 55
1, 200265, Note_off_c, 0, 81, 57
1, 200303, Note_on_c, 0, 85, 49
1, 200325, Note_off_c, 0, 85, 58
1, 200362, Note_on_c, 0, 88, 48
1, 200399, Note_off_c, 0, 88, 67
1, 200404, Note_on_c, 0, 90, 78
1, 200423, Note_on_c, 0, 64, 50
1, 200425, Note_on_c, 0, 57, 46
1, 200427, Note_on_c, 0, 54, 45
1, 200480, Note_off_c, 0, 90, 64
1, 200486, Note_on_c, 0, 88, 63
1, 200518, Note_off_c, 0, 88, 67
1, 200551, Note_on_c, 0, 85, 43
1, 200573, Note_off_c, 0, 85, 57
1, 200586, Note_on_c, 0, 81, 56
1, 200606, Note_off_c, 0, 81, 65
1, 200674, Note_on_c, 0, 78, 54
1, 200716, Note_on_c, 0, 76, 55
1, 200717, Note_off_c, 0, 78, 56
1, 200755, Note_off_c, 0, 76, 58
1, 200769, Note_on_c, 0, 73, 52
1, 200790, Note_off_c, 0, 73, 61
1, 200812, Note_on_c, 0, 69, 62
1, 200828, Note_off_c, 0, 64, 31
1, 200840, Note_on_c, 0, 61, 53
1, 200845, Note_off_c, 0, 69, 63
1, 200879, Note_off_c, 0, 61, 61
1, 200882, Note_off_c, 0, 57, 41
1, 200887, Note_on_c, 0, 66, 55
1, 200913, Note_off_c, 0, 54, 42
1, 200919, Note_off_c, 0, 66, 63
1, 200951, Note_on_c, 0, 69, 61
1, 200981, Note_off_c, 0, 69, 65
1, 201028, Note_on_c, 0, 73, 51
1, 201049, Note_off_c, 0, 73, 60
1, 201077, Note_on_c, 0, 44, 47
1, 201088, Note_on_c, 0, 76, 55
1, 201116, Note_off_c, 0, 76, 65
1, 201120, Note_on_c, 0, 78, 60
1, 201145, Note_off_c, 0, 78, 64
1, 201171, Note_on_c, 0, 52, 48
1, 201187, Note_on_c, 0, 81, 69
1, 201193, Note_off_c, 0, 44, 60
1, 201222, Note_off_c, 0, 81, 58
1, 201287, Note_on_c, 0, 59, 36
1, 201311, Note_on_c, 0, 57, 47
1, 201331, Note_on_c, 0, 88, 75
1, 201351, Poly_aftertouch_c, 0, 85, 0
1, 201400, Note_off_c, 0, 88, 64
1, 201425, Note_on_c, 0, 85, 42
1, 201451, Note_off_c, 0, 85, 55
1, 201469, Note_on_c, 0, 81, 52
1, 201489, Note_off_c, 0, 81, 61
1, 201531, Note_off_c, 0, 57, 38
1, 201546, Note_off_c, 0, 59, 36
1, 201554, Note_on_c, 0, 78, 45
1, 201584, Note_off_c, 0, 78, 56
1, 201601, Note_on_c, 0, 76, 52
1, 201618, Note_off_c, 0, 52, 13
1, 201636, Note_off_c, 0, 76, 49
1, 201693, Note_on_c, 0, 69, 61
1, 201722, Poly_aftertouch_c, 0, 73, 0
1, 201728, Note_off_c, 0, 69, 65
1, 201788, Note_on_c, 0, 66, 50
1, 201820, Note_off_c, 0, 66, 63
1, 201852, Note_on_c, 0, 64, 40
1, 201857, Note_on_c, 0, 42, 47
1, 201885, Note_off_c, 0, 64, 52
1, 201907, Note_on_c, 0, 66, 58
1, 201922, Note_off_c, 0, 42, 60
1, 201938, Note_off_c, 0, 66, 66
1, 201946, Note_on_c, 0, 52, 45
1, 201985, Note_off_c, 0, 52, 64
1, 202004, Note_on_c, 0, 69, 35
1, 202028, Note_on_c, 0, 57, 52
1, 202034, Note_off_c, 0, 69, 51
1, 202071, Note_on_c, 0, 73, 42
1, 202095, Note_off_c, 0, 73, 56
1, 202110, Note_on_c, 0, 75, 43
1, 202135, Note_off_c, 0, 75, 50
1, 202273, Note_on_c, 0, 81, 52
1, 202276, Note_on_c, 0, 61, 47
1, 202290, Note_off_c, 0, 57, 39
1, 202300, Note_off_c, 0, 81, 62
1, 202327, Note_on_c, 0, 83, 72
1, 202370, Note_off_c, 0, 83, 61
1, 202406, Note_on_c, 0, 81, 56
1, 202437, Note_off_c, 0, 81, 67
1, 202504, Note_on_c, 0, 78, 59
1, 202543, Note_off_c, 0, 61, 31
1, 202553, Note_off_c, 0, 78, 62
1, 202587, Note_on_c, 0, 76, 31
1, 202621, Note_off_c, 0, 76, 42
1, 202626, Note_on_c, 0, 73, 45
1, 202650, Note_off_c, 0, 73, 54
1, 202727, Poly_aftertouch_c, 0, 69, 127
1, 202757, Poly_aftertouch_c, 0, 69, 0
1, 202809, Note_on_c, 0, 65, 34
1, 202843, Note_off_c, 0, 65, 61
1, 202924, Note_on_c, 0, 61, 31
1, 202954, Note_off_c, 0, 61, 53
1, 202986, Note_on_c, 0, 64, 34
1, 203017, Note_off_c, 0, 64, 53
1, 203039, Note_on_c, 0, 66, 49
1, 203063, Note_off_c, 0, 66, 58
1, 203151, Note_on_c, 0, 69, 23
1, 203160, Note_on_c, 0, 40, 43
1, 203172, Note_on_c, 0, 47, 40
1, 203188, Note_off_c, 0, 69, 44
1, 203239, Note_off_c, 0, 47, 58
1, 203241, Note_off_c, 0, 40, 55
1, 203266, Note_on_c, 0, 75, 36
1, 203349, Note_off_c, 0, 75, 60
1, 203351, Note_on_c, 0, 80, 58
1, 203413, Note_off_c, 0, 80, 51
1, 203458, Note_on_c, 0, 79, 53
1, 203576, Note_off_c, 0, 79, 59
1, 203635, Note_on_c, 0, 61, 56
1, 203636, Note_on_c, 0, 73, 59
1, 203662, Note_on_c, 0, 83, 62
1, 203712, Note_off_c, 0, 73, 61
1, 203722, Note_off_c, 0, 61, 59
1, 203780, Note_off_c, 0, 83, 60
1, 203801, Note_on_c, 0, 80, 49
1, 203878, Note_off_c, 0, 80, 61
1, 203902, Note_on_c, 0, 76, 21
1, 203941, Note_off_c, 0, 76, 52
1, 203957, Note_on_c, 0, 73, 31
1, 203982, Note_on_c, 0, 71, 56
1, 203987, Note_off_c, 0, 73, 49
1, 204013, Note_off_c, 0, 71, 66
1, 204091, Note_on_c, 0, 68, 55
1, 204156, Note_off_c, 0, 68, 57
1, 204166, Note_on_c, 0, 64, 46
1, 204169, Note_on_c, 0, 75, 73
1, 204177, Note_on_c, 0, 63, 53
1, 204210, Note_on_c, 0, 61, 42
1, 204213, Note_off_c, 0, 64, 60
1, 204221, Note_off_c, 0, 75, 62
1, 204227, Note_off_c, 0, 63, 57
1, 204237, Note_off_c, 0, 61, 57
1, 204275, Note_on_c, 0, 59, 40
1, 204305, Note_off_c, 0, 59, 62
1, 204334, Note_on_c, 0, 61, 43
1, 204360, Note_off_c, 0, 61, 56
1, 204406, Note_on_c, 0, 68, 51
1, 204433, Note_off_c, 0, 68, 56
1, 204478, Note_on_c, 0, 71, 61
1, 204519, Note_off_c, 0, 71, 59
1, 204552, Note_on_c, 0, 73, 54
1, 204581, Note_off_c, 0, 73, 64
1, 204589, Note_on_c, 0, 68, 68
1, 204596, Note_on_c, 0, 56, 59
1, 204601, Note_on_c, 0, 76, 26
1, 204631, Note_off_c, 0, 68, 57
1, 204635, Note_on_c, 0, 83, 56
1, 204639, Note_off_c, 0, 56, 64
1, 204639, Note_off_c, 0, 76, 39
1, 204649, Note_on_c, 0, 80, 38
1, 204687, Note_off_c, 0, 83, 58
1, 204715, Note_on_c, 0, 76, 52
1, 204725, Note_off_c, 0, 80, 63
1, 204735, Note_on_c, 0, 73, 54
1, 204735, Note_off_c, 0, 76, 61
1, 204763, Note_off_c, 0, 73, 66
1, 204771, Note_on_c, 0, 71, 59
1, 204791, Note_off_c, 0, 71, 65
1, 204862, Note_on_c, 0, 68, 54
1, 204890, Note_on_c, 0, 64, 65
1, 204910, Note_off_c, 0, 68, 62
1, 204934, Note_on_c, 0, 61, 54
1, 204975, Note_off_c, 0, 61, 63
1, 204995, Note_on_c, 0, 59, 62
1, 204998, Note_off_c, 0, 64, 57
1, 205013, Note_on_c, 0, 71, 78
1, 205045, Note_off_c, 0, 59, 63
1, 205054, Note_off_c, 0, 71, 62
1, 205065, Note_on_c, 0, 61, 63
1, 205095, Note_off_c, 0, 61, 65
1, 205163, Note_on_c, 0, 68, 49
1, 205185, Note_off_c, 0, 68, 58
1, 205231, Note_on_c, 0, 71, 57
1, 205271, Note_off_c, 0, 71, 56
1, 205306, Note_on_c, 0, 73, 39
1, 205333, Note_off_c, 0, 73, 58
1, 205334, Note_on_c, 0, 76, 59
1, 205382, Note_off_c, 0, 76, 61
1, 205411, Note_on_c, 0, 83, 56
1, 205413, Note_on_c, 0, 73, 73
1, 205421, Note_on_c, 0, 61, 67
1, 205423, Note_on_c, 0, 80, 30
1, 205463, Note_off_c, 0, 61, 58
1, 205464, Note_off_c, 0, 73, 62
1, 205470, Note_off_c, 0, 83, 53
1, 205499, Note_on_c, 0, 76, 61
1, 205511, Note_off_c, 0, 80, 63
1, 205529, Note_off_c, 0, 76, 65
1, 205541, Note_on_c, 0, 73, 35
1, 205568, Note_off_c, 0, 73, 51
1, 205580, Note_on_c, 0, 71, 42
1, 205605, Note_off_c, 0, 71, 55
1, 205652, Note_on_c, 0, 68, 59
1, 205713, Note_off_c, 0, 68, 60
1, 205734, Note_on_c, 0, 64, 41
1, 205738, Note_on_c, 0, 61, 54
1, 205771, Poly_aftertouch_c, 0, 63, 0
1, 205778, Note_off_c, 0, 61, 61
1, 205780, Note_off_c, 0, 64, 45
1, 205801, Note_on_c, 0, 59, 57
1, 205854, Note_off_c, 0, 59, 62
1, 205857, Note_on_c, 0, 75, 73
1, 205871, Note_on_c, 0, 63, 56
1, 205874, Note_on_c, 0, 61, 60
1, 205890, Note_off_c, 0, 75, 61
1, 205911, Note_off_c, 0, 61, 65
1, 205925, Note_off_c, 0, 63, 60
1, 205959, Note_on_c, 0, 68, 48
1, 205986, Note_off_c, 0, 68, 57
1, 206000, Poly_aftertouch_c, 0, 64, 0
1, 206038, Note_on_c, 0, 71, 57
1, 206089, Note_off_c, 0, 71, 57
1, 206105, Note_on_c, 0, 73, 54
1, 206133, Note_on_c, 0, 76, 56
1, 206145, Note_off_c, 0, 73, 63
1, 206199, Note_off_c, 0, 76, 63
1, 206212, Note_on_c, 0, 83, 57
1, 206221, Note_on_c, 0, 80, 37
1, 206251, Note_on_c, 0, 68, 74
1, 206262, Note_on_c, 0, 56, 57
1, 206269, Note_off_c, 0, 83, 55
1, 206288, Note_off_c, 0, 68, 58
1, 206290, Note_on_c, 0, 76, 56
1, 206293, Note_off_c, 0, 56, 66
1, 206310, Note_off_c, 0, 80, 62
1, 206324, Note_off_c, 0, 76, 65
1, 206334, Note_on_c, 0, 73, 46
1, 206355, Note_off_c, 0, 73, 59
1, 206364, Note_on_c, 0, 71, 53
1, 206385, Note_off_c, 0, 71, 62
1, 206449, Note_on_c, 0, 68, 57
1, 206495, Note_on_c, 0, 64, 53
1, 206522, Note_off_c, 0, 68, 59
1, 206538, Note_on_c, 0, 61, 51
1, 206582, Note_off_c, 0, 61, 60
1, 206599, Note_on_c, 0, 59, 62
1, 206600, Note_off_c, 0, 64, 47
1, 206669, Note_off_c, 0, 59, 62
1, 206688, Note_on_c, 0, 71, 81
1, 206695, Note_on_c, 0, 61, 50
1, 206725, Note_off_c, 0, 71, 63
1, 206728, Note_off_c, 0, 61, 65
1, 206781, Note_on_c, 0, 68, 53
1, 206811, Note_off_c, 0, 68, 63
1, 206856, Note_on_c, 0, 71, 66
1, 206923, Note_off_c, 0, 71, 58
1, 206933, Note_on_c, 0, 73, 63
1, 206966, Note_off_c, 0, 73, 62
1, 206981, Note_on_c, 0, 76, 57
1, 207023, Note_off_c, 0, 76, 61
1, 207050, Note_on_c, 0, 83, 56
1, 207056, Note_on_c, 0, 80, 40
1, 207089, Note_on_c, 0, 73, 73
1, 207093, Note_on_c, 0, 61, 64
1, 207114, Note_off_c, 0, 73, 69
1, 207114, Note_off_c, 0, 83, 57
1, 207123, Note_off_c, 0, 61, 65
1, 207135, Note_on_c, 0, 76, 61
1, 207163, Note_off_c, 0, 80, 62
1, 207175, Note_off_c, 0, 76, 61
1, 207184, Note_on_c, 0, 73, 53
1, 207214, Note_off_c, 0, 73, 66
1, 207218, Note_on_c, 0, 71, 62
1, 207246, Note_off_c, 0, 71, 66
1, 207302, Note_on_c, 0, 68, 64
1, 207350, Note_on_c, 0, 64, 49
1, 207376, Note_off_c, 0, 68, 59
1, 207406, Note_on_c, 0, 61, 59
1, 207449, Note_off_c, 0, 61, 57
1, 207463, Note_on_c, 0, 59, 60
1, 207473, Note_off_c, 0, 64, 55
1, 207492, Note_off_c, 0, 59, 65
1, 207524, Note_on_c, 0, 61, 61
1, 207530, Note_on_c, 0, 75, 75
1, 207550, Note_on_c, 0, 63, 51
1, 207551, Note_off_c, 0, 61, 65
1, 207554, Note_off_c, 0, 75, 67
1, 207582, Note_off_c, 0, 63, 51
1, 207640, Note_on_c, 0, 68, 26
1, 207682, Note_off_c, 0, 68, 41
1, 207694, Note_on_c, 0, 71, 68
1, 207761, Note_off_c, 0, 71, 62
1, 207768, Note_on_c, 0, 73, 67
1, 207804, Note_off_c, 0, 73, 63
1, 207813, Note_on_c, 0, 76, 62
1, 207875, Note_off_c, 0, 76, 63
1, 207897, Note_on_c, 0, 83, 58
1, 207898, Note_on_c, 0, 80, 38
1, 207920, Note_on_c, 0, 68, 71
1, 207935, Note_on_c, 0, 56, 55
1, 207950, Note_off_c, 0, 68, 64
1, 207962, Note_off_c, 0, 83, 62
1, 207963, Note_off_c, 0, 56, 62
1, 207974, Note_on_c, 0, 76, 64
1, 207995, Note_off_c, 0, 80, 61
1, 208007, Note_off_c, 0, 76, 64
1, 208020, Note_on_c, 0, 73, 49
1, 208041, Note_off_c, 0, 73, 61
1, 208045, Note_on_c, 0, 71, 61
1, 208073, Note_off_c, 0, 71, 65
1, 208135, Note_on_c, 0, 68, 59
1, 208188, Note_on_c, 0, 64, 51
1, 208207, Note_off_c, 0, 68, 61
1, 208245, Note_on_c, 0, 61, 50
1, 208285, Note_off_c, 0, 61, 60
1, 208295, Note_on_c, 0, 59, 63
1, 208342, Note_on_c, 0, 71, 76
1, 208352, Note_off_c, 0, 64, 38
1, 208355, Note_off_c, 0, 59, 63
1, 208364, Note_on_c, 0, 61, 58
1, 208375, Note_off_c, 0, 71, 63
1, 208396, Note_off_c, 0, 61, 65
1, 208463, Note_on_c, 0, 68, 48
1, 208492, Note_off_c, 0, 68, 54
1, 208542, Note_on_c, 0, 71, 54
1, 208591, Note_off_c, 0, 71, 57
1, 208609, Note_on_c, 0, 73, 60
1, 208643, Note_off_c, 0, 73, 61
1, 208652, Note_on_c, 0, 76, 59
1, 208698, Note_off_c, 0, 76, 58
1, 208723, Note_on_c, 0, 83, 59
1, 208726, Note_on_c, 0, 73, 65
1, 208727, Note_on_c, 0, 80, 40
1, 208743, Note_on_c, 0, 61, 48
1, 208755, Note_off_c, 0, 73, 68
1, 208768, Note_off_c, 0, 61, 58
1, 208780, Note_off_c, 0, 83, 57
1, 208802, Note_on_c, 0, 76, 61
1, 208815, Note_off_c, 0, 80, 63
1, 208835, Note_off_c, 0, 76, 60
1, 208835, Note_on_c, 0, 73, 58
1, 208867, Note_off_c, 0, 73, 66
1, 208869, Note_on_c, 0, 71, 66
1, 208907, Note_off_c, 0, 71, 67
1, 208967, Note_on_c, 0, 68, 62
1, 209016, Note_on_c, 0, 64, 58
1, 209024, Note_off_c, 0, 68, 60
1, 209065, Note_on_c, 0, 61, 55
1, 209087, Note_off_c, 0, 64, 62
1, 209107, Note_off_c, 0, 61, 56
1, 209121, Note_on_c, 0, 59, 54
1, 209163, Note_off_c, 0, 59, 64
1, 209164, Note_on_c, 0, 75, 73
1, 209169, Note_on_c, 0, 61, 50
1, 209184, Note_on_c, 0, 63, 56
1, 209195, Note_off_c, 0, 75, 63
1, 209202, Note_off_c, 0, 61, 64
1, 209217, Note_off_c, 0, 63, 64
1, 209256, Note_on_c, 0, 68, 57
1, 209256, Note_on_c, 0, 64, 4
1, 209286, Note_off_c, 0, 68, 66
1, 209300, Note_off_c, 0, 64, 53
1, 209341, Note_on_c, 0, 71, 60
1, 209404, Note_off_c, 0, 71, 57
1, 209407, Note_on_c, 0, 73, 62
1, 209446, Note_on_c, 0, 76, 58
1, 209459, Note_off_c, 0, 73, 52
1, 209515, Note_off_c, 0, 76, 63
1, 209532, Note_on_c, 0, 83, 57
1, 209552, Note_on_c, 0, 80, 18
1, 209560, Note_on_c, 0, 68, 64
1, 209566, Note_on_c, 0, 56, 56
1, 209591, Note_off_c, 0, 68, 64
1, 209598, Note_off_c, 0, 56, 65
1, 209601, Note_off_c, 0, 83, 63
1, 209628, Note_on_c, 0, 76, 46
1, 209632, Note_off_c, 0, 80, 59
1, 209660, Note_off_c, 0, 76, 61
1, 209670, Note_on_c, 0, 73, 55
1, 209694, Note_off_c, 0, 73, 64
1, 209700, Note_on_c, 0, 71, 60
1, 209727, Note_off_c, 0, 71, 64
1, 209792, Note_on_c, 0, 68, 54
1, 209835, Note_on_c, 0, 63, 55
1, 209868, Note_off_c, 0, 68, 58
1, 209897, Note_on_c, 0, 61, 47
1, 209947, Note_off_c, 0, 61, 58
1, 209962, Note_off_c, 0, 63, 35
1, 209968, Note_on_c, 0, 59, 50
1, 209994, Note_on_c, 0, 71, 56
1, 210025, Note_off_c, 0, 71, 66
1, 210094, Note_on_c, 0, 61, 48
1, 210097, Note_off_c, 0, 59, 57
1, 210162, Note_off_c, 0, 61, 62
1, 210180, Note_on_c, 0, 64, 42
1, 210215, Note_off_c, 0, 64, 64
1, 210222, Note_on_c, 0, 68, 57
1, 210254, Note_off_c, 0, 68, 64
1, 210303, Note_on_c, 0, 71, 60
1, 210362, Note_off_c, 0, 71, 57
1, 210376, Note_on_c, 0, 73, 56
1, 210429, Note_off_c, 0, 73, 57
1, 210444, Note_on_c, 0, 76, 62
1, 210527, Note_off_c, 0, 76, 62
1, 210552, Note_on_c, 0, 80, 53
1, 210569, Note_on_c, 0, 40, 41
1, 210580, Note_on_c, 0, 47, 36
1, 210634, Note_off_c, 0, 80, 62
1, 210659, Note_off_c, 0, 47, 58
1, 210666, Note_on_c, 0, 83, 53
1, 210703, Note_off_c, 0, 40, 36
1, 210749, Note_off_c, 0, 83, 61
1, 210755, Note_on_c, 0, 80, 58
1, 210804, Note_off_c, 0, 80, 54
1, 210811, Note_on_c, 0, 76, 56
1, 210856, Note_off_c, 0, 76, 61
1, 210862, Note_on_c, 0, 73, 59
1, 210892, Note_off_c, 0, 73, 66
1, 210907, Note_on_c, 0, 71, 61
1, 210936, Note_off_c, 0, 71, 66
1, 210999, Note_on_c, 0, 47, 46
1, 211024, Note_on_c, 0, 68, 29
1, 211032, Note_on_c, 0, 63, 57
1, 211037, Note_on_c, 0, 49, 42
1, 211059, Note_off_c, 0, 68, 46
1, 211080, Note_off_c, 0, 47, 55
1, 211088, Note_on_c, 0, 52, 52
1, 211104, Note_on_c, 0, 61, 45
1, 211131, Note_off_c, 0, 52, 62
1, 211136, Note_off_c, 0, 49, 61
1, 211138, Note_off_c, 0, 63, 57
1, 211140, Note_on_c, 0, 56, 58
1, 211149, Note_off_c, 0, 61, 64
1, 211181, Note_off_c, 0, 56, 65
1, 211193, Note_on_c, 0, 59, 59
1, 211243, Note_on_c, 0, 61, 60
1, 211265, Note_off_c, 0, 59, 50
1, 211286, Note_on_c, 0, 64, 61
1, 211304, Note_off_c, 0, 61, 63
1, 211329, Note_on_c, 0, 68, 60
1, 211339, Note_off_c, 0, 64, 62
1, 211357, Note_off_c, 0, 68, 66
1, 211365, Note_on_c, 0, 59, 52
1, 211414, Note_on_c, 0, 61, 52
1, 211414, Note_off_c, 0, 59, 64
1, 211421, Note_on_c, 0, 64, 52
1, 211450, Note_off_c, 0, 61, 63
1, 211458, Note_off_c, 0, 64, 62
1, 211473, Note_on_c, 0, 68, 61
1, 211507, Note_off_c, 0, 68, 65
1, 211510, Note_on_c, 0, 71, 57
1, 211562, Note_off_c, 0, 71, 55
1, 211578, Note_on_c, 0, 75, 65
1, 211667, Note_off_c, 0, 75, 61
1, 211678, Note_on_c, 0, 80, 56
1, 211690, Note_on_c, 0, 76, 12
1, 211736, Note_off_c, 0, 76, 33
1, 211738, Note_off_c, 0, 80, 62
1, 211747, Note_on_c, 0, 71, 54
1, 211804, Note_on_c, 0, 73, 45
1, 211810, Note_off_c, 0, 71, 60
1, 211849, Note_on_c, 0, 76, 48
1, 211870, Note_off_c, 0, 73, 61
1, 211910, Note_on_c, 0, 80, 57
1, 211956, Note_off_c, 0, 80, 57
1, 211965, Note_off_c, 0, 76, 58
1, 211998, Note_on_c, 0, 88, 50
1, 212047, Note_off_c, 0, 88, 57
1, 212059, Note_on_c, 0, 92, 61
1, 212125, Note_off_c, 0, 92, 60
1, 212129, Note_on_c, 0, 95, 55
1, 212212, Note_off_c, 0, 95, 62
1, 212239, Note_on_c, 0, 97, 56
1, 212329, Note_off_c, 0, 97, 59
1, 212363, Note_on_c, 0, 40, 35
1, 212383, Note_on_c, 0, 47, 33
1, 212392, Note_on_c, 0, 87, 37
1, 212405, Note_on_c, 0, 92, 39
1, 212408, Note_on_c, 0, 99, 45
1, 212472, Note_off_c, 0, 92, 55
1, 212475, Note_off_c, 0, 87, 52
1, 212489, Note_off_c, 0, 99, 53
1, 212516, Note_off_c, 0, 47, 34
1, 212628, Note_off_c, 0, 40, 43
1, 214457, Control_c, 0, 64, 122
1, 214472, Control_c, 0, 64, 115
1, 214486, Control_c, 0, 64, 112
1, 214501, Control_c, 0, 64, 108
1, 214516, Control_c, 0, 64, 104
1, 214531, Control_c, 0, 64, 100
1, 214546, Control_c, 0, 64, 97
1, 214561, Control_c, 0, 64, 95
1, 214575, Control_c, 0, 64, 93
1, 214590, Control_c, 0, 64, 91
1, 214605, Control_c, 0, 64, 89
1, 214619, Control_c, 0, 64, 87
1, 214634, Control_c, 0, 64, 85
1, 214649, Control_c, 0, 64, 84
1, 214664, Control_c, 0, 64, 82
1, 214679, Control_c, 0, 64, 81
1, 214693, Control_c, 0, 64, 80
1, 214708, Control_c, 0, 64, 79
1, 214723, Control_c, 0, 64, 77
1, 214738, Control_c, 0, 64, 76
1, 214753, Control_c, 0, 64, 75
1, 214767, Control_c, 0, 64, 74
1, 214782, Control_c, 0, 64, 73
1, 214797, Control_c, 0, 64, 72
1, 214812, Control_c, 0, 64, 71
1, 214812, Control_c, 0, 67, 127
1, 214827, Control_c, 0, 64, 70
1, 214842, Control_c, 0, 64, 69
1, 214857, Control_c, 0, 64, 68
1, 214872, Control_c, 0, 64, 67
1, 214893, Control_c, 0, 64, 66
1, 214908, Control_c, 0, 64, 66
1, 214938, Control_c, 0, 64, 65
1, 214953, Control_c, 0, 64, 65
1, 214982, Control_c, 0, 64, 64
1, 214997, Control_c, 0, 64, 64
1, 214997, Control_c, 0, 67, 126
1, 215027, Control_c, 0, 64, 63
1, 215042, Control_c, 0, 64, 63
1, 215056, Control_c, 0, 64, 62
1, 215087, Control_c, 0, 64, 61
1, 215102, Control_c, 0, 64, 61
1, 215116, Control_c, 0, 64, 60
1, 215146, Control_c, 0, 64, 60
1, 215146, Control_c, 0, 67, 125
1, 215161, Control_c, 0, 64, 59
1, 215191, Control_c, 0, 64, 59
1, 215220, Control_c, 0, 64, 58
1, 215250, Control_c, 0, 64, 58
1, 215250, Control_c, 0, 67, 125
1, 215280, Control_c, 0, 64, 57
1, 215309, Control_c, 0, 64, 57
1, 215309, Control_c, 0, 67, 124
1, 215339, Control_c, 0, 64, 56
1, 215369, Control_c, 0, 64, 56
1, 215369, Control_c, 0, 67, 122
1, 215384, Control_c, 0, 67, 110
1, 215398, Control_c, 0, 64, 55
1, 215398, Control_c, 0, 67, 102
1, 215413, Control_c, 0, 67, 98
1, 215428, Control_c, 0, 67, 96
1, 215442, Control_c, 0, 64, 55
1, 215442, Control_c, 0, 67, 95
1, 215457, Control_c, 0, 64, 54
1, 215457, Control_c, 0, 67, 94
1, 215472, Control_c, 0, 67, 93
1, 215487, Control_c, 0, 64, 54
1, 215502, Control_c, 0, 67, 92
1, 215516, Control_c, 0, 64, 53
1, 215531, Control_c, 0, 67, 92
1, 215546, Control_c, 0, 64, 53
1, 215576, Control_c, 0, 64, 52
1, 215590, Control_c, 0, 67, 91
1, 215605, Control_c, 0, 64, 52
1, 215642, Control_c, 0, 64, 51
1, 215642, Control_c, 0, 67, 90
1, 215657, Control_c, 0, 64, 51
1, 215672, Control_c, 0, 67, 90
1, 215687, Control_c, 0, 64, 50
1, 215702, Control_c, 0, 64, 50
1, 215702, Control_c, 0, 67, 89
1, 215716, Control_c, 0, 64, 49
1, 215731, Control_c, 0, 64, 49
1, 215746, Control_c, 0, 64, 48
1, 215746, Control_c, 0, 67, 89
1, 215761, Control_c, 0, 64, 48
1, 215761, Control_c, 0, 67, 88
1, 215776, Control_c, 0, 64, 47
1, 215776, Control_c, 0, 67, 87
1, 215790, Control_c, 0, 64, 47
1, 215790, Control_c, 0, 67, 74
1, 215805, Control_c, 0, 64, 46
1, 215805, Control_c, 0, 67, 57
1, 215820, Control_c, 0, 64, 46
1, 215820, Control_c, 0, 67, 43
1, 215835, Control_c, 0, 64, 45
1, 215835, Control_c, 0, 67, 33
1, 215849, Control_c, 0, 64, 44
1, 215849, Control_c, 0, 67, 26
1, 215864, Control_c, 0, 67, 22
1, 215879, Control_c, 0, 64, 43
1, 215879, Control_c, 0, 67, 19
1, 215895, Control_c, 0, 64, 43
1, 215895, Control_c, 0, 67, 16
1, 215910, Control_c, 0, 64, 42
1, 215910, Control_c, 0, 67, 12
1, 215925, Control_c, 0, 64, 41
1, 215925, Control_c, 0, 67, 0
1, 215939, Control_c, 0, 64, 41
1, 215954, Control_c, 0, 64, 40
1, 215969, Control_c, 0, 64, 39
1, 215984, Control_c, 0, 64, 38
1, 215999, Control_c, 0, 64, 37
1, 216013, Control_c, 0, 64, 36
1, 216028, Control_c, 0, 64, 35
1, 216043, Control_c, 0, 64, 34
1, 216058, Control_c, 0, 64, 32
1, 216073, Control_c, 0, 64, 31
1, 216088, Control_c, 0, 64, 30
1, 216103, Control_c, 0, 64, 28
1, 216118, Control_c, 0, 64, 26
1, 216132, Control_c, 0, 64, 24
1, 216147, Control_c, 0, 64, 21
1, 216162, Control_c, 0, 64, 17
1, 216177, Control_c, 0, 64, 12
1, 216192, Control_c, 0, 64, 0
1, 216267, End_track
0, 0, End_of_file
