0, 0, Header, 0, 1, 384
1, 0, Start_track
1, 0, Title_t, "BachPF_BWV889--Wang             "
1, 0, Text_t, "2011 ePiano Junior Competition"
1, 0, Text_t, "captured in spring and summer 2011"
1, 0, Text_t, "http://www.piano-e-competition.com/"
1, 0, Text_t, "standard-resolution version"
1, 0, Text_t, "File processed for distribution with software designed and coded by Dr. John Q. Walker, founder of Zenph Sound Innovations"
1, 0, Instrument_name_t, "Yamaha Disklavier Pro Mark IV concert grand piano, model DCFIIISM4PRO"
1, 0, Sequencer_specific, 39, 67, 113, 0, 1, 0, 1, 0, 66, 97, 99, 104, 32, 80, 70, 95, 66, 87, 86, 56, 56, 57, 32, 32, 90, 105, 116, 111, 110, 103, 32, 87, 97, 110, 103, 32, 32, 32, 32, 32
1, 0, Sequencer_specific, 6, 67, 113, 0, 0, 0, 69
1, 0, System_exclusive, 21, 67, 113, 126, 21, 0, 2, 2, 2, 5, 12, 8, 4, 14, 0, 15, 7, 7, 3, 12, 3, 247
1, 0, Sequencer_specific, 5, 67, 123, 12, 2, 1
1, 0, Tempo, 512820
1, 0, Time_signature, 4, 2, 24, 8
1, 0, System_exclusive, 5, 126, 127, 9, 1, 247
1, 1, System_exclusive, 8, 67, 16, 76, 0, 0, 126, 0, 247
1, 2, System_exclusive, 8, 67, 16, 76, 8, 9, 7, 1, 247
1, 3, Control_c, 0, 0, 108
1, 3, Control_c, 1, 0, 108
1, 3, Control_c, 2, 0, 0
1, 3, Control_c, 3, 0, 0
1, 3, Control_c, 4, 0, 0
1, 3, Control_c, 5, 0, 0
1, 3, Control_c, 6, 0, 0
1, 3, Control_c, 7, 0, 0
1, 3, Control_c, 8, 0, 0
1, 3, Control_c, 9, 0, 127
1, 3, Control_c, 10, 0, 0
1, 3, Control_c, 11, 0, 0
1, 3, Control_c, 12, 0, 0
1, 3, Control_c, 13, 0, 0
1, 3, Control_c, 14, 0, 0
1, 3, Control_c, 15, 0, 0
1, 4, Control_c, 0, 32, 0
1, 4, Control_c, 1, 32, 0
1, 4, Control_c, 2, 32, 0
1, 4, Control_c, 3, 32, 0
1, 4, Control_c, 4, 32, 0
1, 4, Control_c, 5, 32, 0
1, 4, Control_c, 6, 32, 0
1, 4, Control_c, 7, 32, 0
1, 4, Control_c, 8, 32, 0
1, 4, Control_c, 9, 32, 0
1, 4, Control_c, 10, 32, 0
1, 4, Control_c, 11, 32, 0
1, 4, Control_c, 12, 32, 0
1, 4, Control_c, 13, 32, 0
1, 4, Control_c, 14, 32, 0
1, 4, Control_c, 15, 32, 0
1, 5, Program_c, 0, 0
1, 5, Program_c, 1, 0
1, 5, Program_c, 2, 0
1, 5, Program_c, 3, 0
1, 5, Program_c, 4, 0
1, 5, Program_c, 5, 0
1, 5, Program_c, 6, 0
1, 5, Program_c, 7, 0
1, 5, Program_c, 8, 0
1, 5, Program_c, 9, 0
1, 5, Program_c, 10, 0
1, 5, Program_c, 11, 0
1, 5, Program_c, 12, 0
1, 5, Program_c, 13, 0
1, 5, Program_c, 14, 0
1, 5, Program_c, 15, 0
1, 6, Control_c, 0, 7, 100
1, 6, Control_c, 1, 7, 100
1, 6, Control_c, 2, 7, 100
1, 6, Control_c, 3, 7, 100
1, 6, Control_c, 4, 7, 100
1, 6, Control_c, 5, 7, 100
1, 6, Control_c, 6, 7, 100
1, 6, Control_c, 7, 7, 100
1, 6, Control_c, 8, 7, 100
1, 6, Control_c, 9, 7, 100
1, 6, Control_c, 10, 7, 100
1, 6, Control_c, 11, 7, 100
1, 6, Control_c, 12, 7, 100
1, 6, Control_c, 13, 7, 100
1, 6, Control_c, 14, 7, 100
1, 6, Control_c, 15, 7, 100
1, 378, Control_c, 0, 64, 49
1, 388, Note_on_c, 0, 45, 32
1, 393, Control_c, 0, 64, 54
1, 408, Control_c, 0, 64, 59
1, 423, Control_c, 0, 64, 62
1, 438, Control_c, 0, 64, 64
1, 452, Control_c, 0, 64, 66
1, 467, Control_c, 0, 64, 67
1, 482, Control_c, 0, 64, 68
1, 492, Note_on_c, 0, 72, 58
1, 497, Control_c, 0, 64, 70
1, 512, Control_c, 0, 64, 70
1, 541, Control_c, 0, 64, 70
1, 570, Control_c, 0, 64, 69
1, 585, Control_c, 0, 64, 69
1, 600, Control_c, 0, 64, 68
1, 615, Control_c, 0, 64, 66
1, 618, Note_on_c, 0, 74, 69
1, 630, Control_c, 0, 64, 65
1, 635, Note_off_c, 0, 72, 61
1, 644, Control_c, 0, 64, 64
1, 659, Control_c, 0, 64, 63
1, 674, Control_c, 0, 64, 60
1, 689, Control_c, 0, 64, 53
1, 701, Note_off_c, 0, 74, 65
1, 705, Control_c, 0, 64, 46
1, 713, Note_on_c, 0, 76, 71
1, 720, Control_c, 0, 64, 39
1, 735, Control_c, 0, 64, 35
1, 749, Control_c, 0, 64, 34
1, 764, Control_c, 0, 64, 33
1, 779, Control_c, 0, 64, 32
1, 793, Control_c, 0, 64, 31
1, 808, Note_off_c, 0, 76, 65
1, 808, Control_c, 0, 64, 29
1, 823, Control_c, 0, 64, 28
1, 827, Note_on_c, 0, 77, 75
1, 838, Control_c, 0, 64, 26
1, 841, Note_on_c, 0, 57, 51
1, 853, Control_c, 0, 64, 25
1, 868, Control_c, 0, 64, 24
1, 882, Note_off_c, 0, 45, 38
1, 882, Control_c, 0, 64, 23
1, 897, Control_c, 0, 64, 21
1, 912, Control_c, 0, 64, 19
1, 927, Control_c, 0, 64, 17
1, 942, Control_c, 0, 64, 15
1, 957, Control_c, 0, 64, 14
1, 972, Control_c, 0, 64, 10
1, 987, Control_c, 0, 64, 8
1, 1001, Control_c, 0, 64, 0
1, 1049, Note_off_c, 0, 77, 54
1, 1055, Note_on_c, 0, 72, 76
1, 1261, Note_off_c, 0, 72, 61
1, 1279, Note_on_c, 0, 56, 50
1, 1281, Note_on_c, 0, 71, 70
1, 1285, Note_off_c, 0, 57, 53
1, 1478, Note_off_c, 0, 71, 60
1, 1479, Note_on_c, 0, 75, 74
1, 1679, Note_on_c, 0, 76, 67
1, 1679, Note_off_c, 0, 75, 62
1, 1688, Note_off_c, 0, 56, 51
1, 1694, Note_on_c, 0, 55, 34
1, 1878, Note_off_c, 0, 76, 64
1, 1896, Note_on_c, 0, 70, 72
1, 2085, Note_off_c, 0, 70, 62
1, 2093, Note_off_c, 0, 55, 57
1, 2097, Note_on_c, 0, 69, 70
1, 2106, Note_on_c, 0, 54, 48
1, 2295, Note_off_c, 0, 69, 57
1, 2298, Note_on_c, 0, 73, 75
1, 2482, Note_off_c, 0, 54, 61
1, 2508, Note_off_c, 0, 73, 61
1, 2509, Note_on_c, 0, 53, 43
1, 2510, Note_on_c, 0, 74, 66
1, 2719, Note_off_c, 0, 74, 63
1, 2730, Note_on_c, 0, 68, 71
1, 2923, Note_on_c, 0, 52, 52
1, 2927, Note_off_c, 0, 53, 59
1, 3130, Note_on_c, 0, 69, 69
1, 3163, Note_off_c, 0, 68, 56
1, 3339, Note_on_c, 0, 50, 52
1, 3345, Note_off_c, 0, 52, 54
1, 3524, Note_off_c, 0, 69, 57
1, 3542, Note_on_c, 0, 71, 62
1, 3735, Note_off_c, 0, 71, 52
1, 3739, Note_on_c, 0, 64, 59
1, 3837, Note_off_c, 0, 50, 59
1, 3845, Note_on_c, 0, 48, 63
1, 3947, Note_on_c, 0, 50, 74
1, 3962, Note_off_c, 0, 48, 64
1, 4015, Note_off_c, 0, 64, 45
1, 4048, Note_on_c, 0, 52, 72
1, 4051, Note_off_c, 0, 50, 63
1, 4147, Note_on_c, 0, 69, 69
1, 4156, Note_off_c, 0, 52, 66
1, 4167, Note_on_c, 0, 53, 73
1, 4378, Note_on_c, 0, 48, 70
1, 4418, Note_off_c, 0, 53, 59
1, 4569, Note_on_c, 0, 47, 66
1, 4570, Note_off_c, 0, 48, 61
1, 4585, Note_on_c, 0, 68, 64
1, 4609, Note_off_c, 0, 69, 54
1, 4788, Note_off_c, 0, 47, 61
1, 4790, Note_on_c, 0, 51, 80
1, 4982, Note_off_c, 0, 51, 65
1, 4991, Note_on_c, 0, 52, 70
1, 5001, Note_on_c, 0, 67, 66
1, 5006, Note_off_c, 0, 68, 59
1, 5184, Note_on_c, 0, 46, 69
1, 5191, Note_off_c, 0, 52, 61
1, 5380, Note_off_c, 0, 67, 60
1, 5390, Note_on_c, 0, 45, 61
1, 5400, Note_on_c, 0, 66, 59
1, 5405, Note_off_c, 0, 46, 61
1, 5616, Note_on_c, 0, 49, 67
1, 5618, Note_off_c, 0, 45, 64
1, 5769, Note_off_c, 0, 66, 56
1, 5803, Note_off_c, 0, 49, 64
1, 5815, Note_on_c, 0, 50, 65
1, 5819, Note_on_c, 0, 65, 58
1, 6016, Note_on_c, 0, 44, 67
1, 6018, Note_off_c, 0, 50, 60
1, 6227, Note_on_c, 0, 64, 62
1, 6235, Note_off_c, 0, 65, 49
1, 6445, Note_on_c, 0, 45, 59
1, 6460, Note_off_c, 0, 44, 61
1, 6635, Note_off_c, 0, 64, 59
1, 6653, Note_on_c, 0, 62, 60
1, 6839, Note_on_c, 0, 47, 66
1, 6846, Note_off_c, 0, 45, 58
1, 7066, Note_off_c, 0, 47, 59
1, 7069, Note_on_c, 0, 40, 55
1, 7285, Note_off_c, 0, 62, 62
1, 7298, Note_on_c, 0, 60, 62
1, 7362, Note_off_c, 0, 60, 64
1, 7386, Note_on_c, 0, 59, 66
1, 7490, Note_on_c, 0, 45, 56
1, 7492, Note_on_c, 0, 60, 68
1, 7495, Note_off_c, 0, 59, 59
1, 7533, Note_off_c, 0, 40, 34
1, 7601, Note_off_c, 0, 60, 65
1, 7703, Note_on_c, 0, 69, 74
1, 7908, Note_on_c, 0, 47, 59
1, 7926, Note_off_c, 0, 45, 51
1, 8110, Note_off_c, 0, 69, 60
1, 8111, Note_on_c, 0, 68, 72
1, 8213, Note_off_c, 0, 68, 62
1, 8313, Note_on_c, 0, 76, 71
1, 8329, Note_on_c, 0, 49, 49
1, 8333, Note_off_c, 0, 47, 56
1, 8514, Note_off_c, 0, 76, 61
1, 8536, Note_on_c, 0, 67, 67
1, 8733, Note_on_c, 0, 50, 57
1, 8734, Note_off_c, 0, 49, 60
1, 8883, Note_off_c, 0, 67, 54
1, 8936, Note_on_c, 0, 65, 72
1, 9000, Note_off_c, 0, 65, 64
1, 9025, Note_on_c, 0, 64, 72
1, 9108, Note_off_c, 0, 64, 62
1, 9123, Note_on_c, 0, 63, 71
1, 9140, Note_on_c, 0, 47, 59
1, 9152, Note_off_c, 0, 50, 54
1, 9220, Note_off_c, 0, 63, 58
1, 9346, Note_on_c, 0, 71, 82
1, 9551, Note_off_c, 0, 47, 55
1, 9554, Note_on_c, 0, 49, 60
1, 9763, Note_on_c, 0, 70, 75
1, 9766, Note_off_c, 0, 71, 63
1, 9861, Note_off_c, 0, 70, 65
1, 9967, Note_on_c, 0, 78, 79
1, 9986, Note_on_c, 0, 51, 59
1, 10019, Note_off_c, 0, 49, 55
1, 10183, Note_off_c, 0, 78, 52
1, 10190, Note_on_c, 0, 69, 75
1, 10388, Note_on_c, 0, 52, 60
1, 10430, Note_off_c, 0, 51, 37
1, 10501, Note_on_c, 0, 67, 75
1, 10518, Note_off_c, 0, 69, 55
1, 10606, Note_on_c, 0, 69, 83
1, 10629, Note_off_c, 0, 67, 60
1, 10687, Note_off_c, 0, 69, 65
1, 10690, Note_on_c, 0, 71, 80
1, 10814, Note_off_c, 0, 71, 64
1, 10825, Note_on_c, 0, 72, 74
1, 10834, Note_on_c, 0, 64, 49
1, 10914, Note_off_c, 0, 52, 46
1, 11072, Note_off_c, 0, 72, 60
1, 11073, Note_on_c, 0, 67, 75
1, 11274, Note_on_c, 0, 63, 51
1, 11278, Note_on_c, 0, 66, 76
1, 11280, Note_off_c, 0, 64, 53
1, 11281, Note_off_c, 0, 67, 62
1, 11476, Note_on_c, 0, 70, 77
1, 11480, Note_off_c, 0, 66, 54
1, 11682, Note_off_c, 0, 70, 61
1, 11685, Note_on_c, 0, 62, 49
1, 11692, Note_off_c, 0, 63, 53
1, 11694, Note_on_c, 0, 71, 74
1, 11891, Note_off_c, 0, 71, 57
1, 11891, Note_on_c, 0, 65, 70
1, 12085, Note_off_c, 0, 62, 57
1, 12091, Note_off_c, 0, 65, 61
1, 12106, Note_on_c, 0, 61, 47
1, 12109, Note_on_c, 0, 64, 69
1, 12280, Note_off_c, 0, 64, 58
1, 12299, Note_on_c, 0, 68, 74
1, 12471, Note_off_c, 0, 61, 61
1, 12491, Note_off_c, 0, 68, 59
1, 12502, Note_on_c, 0, 60, 52
1, 12504, Note_on_c, 0, 69, 68
1, 12678, Note_off_c, 0, 69, 45
1, 12713, Note_on_c, 0, 63, 64
1, 12908, Note_off_c, 0, 60, 60
1, 12917, Note_on_c, 0, 59, 55
1, 13128, Note_on_c, 0, 64, 67
1, 13183, Note_off_c, 0, 63, 34
1, 13318, Note_off_c, 0, 59, 57
1, 13319, Note_on_c, 0, 57, 58
1, 13509, Note_off_c, 0, 64, 60
1, 13520, Note_on_c, 0, 66, 61
1, 13697, Note_off_c, 0, 66, 54
1, 13709, Note_on_c, 0, 59, 62
1, 13813, Note_off_c, 0, 57, 59
1, 13821, Note_on_c, 0, 55, 71
1, 13839, Note_off_c, 0, 59, 63
1, 13917, Note_on_c, 0, 57, 78
1, 13939, Note_off_c, 0, 55, 64
1, 14007, Note_off_c, 0, 57, 65
1, 14010, Note_on_c, 0, 59, 79
1, 14111, Note_on_c, 0, 76, 72
1, 14111, Note_off_c, 0, 59, 64
1, 14128, Note_on_c, 0, 60, 72
1, 14332, Note_on_c, 0, 55, 73
1, 14350, Note_off_c, 0, 60, 58
1, 14539, Note_off_c, 0, 55, 64
1, 14543, Note_on_c, 0, 75, 69
1, 14544, Note_on_c, 0, 54, 69
1, 14568, Note_off_c, 0, 76, 57
1, 14751, Note_off_c, 0, 54, 64
1, 14754, Note_on_c, 0, 58, 78
1, 14943, Note_off_c, 0, 58, 62
1, 14958, Note_on_c, 0, 59, 70
1, 14964, Note_on_c, 0, 74, 67
1, 14970, Note_off_c, 0, 75, 55
1, 15162, Note_on_c, 0, 53, 73
1, 15177, Note_off_c, 0, 59, 60
1, 15376, Note_off_c, 0, 74, 62
1, 15379, Note_on_c, 0, 52, 64
1, 15394, Note_on_c, 0, 73, 66
1, 15394, Note_off_c, 0, 53, 61
1, 15595, Note_off_c, 0, 52, 65
1, 15596, Note_on_c, 0, 56, 73
1, 15717, Note_off_c, 0, 73, 59
1, 15786, Note_on_c, 0, 72, 61
1, 15787, Note_off_c, 0, 56, 64
1, 15796, Note_on_c, 0, 57, 67
1, 15998, Note_on_c, 0, 51, 71
1, 16008, Note_off_c, 0, 57, 59
1, 16217, Note_on_c, 0, 71, 70
1, 16228, Note_off_c, 0, 72, 60
1, 16419, Note_on_c, 0, 52, 67
1, 16437, Note_off_c, 0, 51, 55
1, 16617, Note_on_c, 0, 69, 71
1, 16635, Note_off_c, 0, 71, 54
1, 16838, Note_off_c, 0, 52, 60
1, 16845, Note_on_c, 0, 54, 67
1, 17065, Note_on_c, 0, 47, 57
1, 17065, Note_off_c, 0, 54, 56
1, 17242, Note_off_c, 0, 69, 63
1, 17274, Note_on_c, 0, 67, 64
1, 17360, Note_off_c, 0, 67, 63
1, 17361, Note_on_c, 0, 66, 68
1, 17434, Note_off_c, 0, 66, 63
1, 17462, Note_on_c, 0, 67, 74
1, 17464, Note_on_c, 0, 52, 62
1, 17508, Note_off_c, 0, 47, 34
1, 17554, Note_off_c, 0, 67, 61
1, 17669, Note_on_c, 0, 76, 83
1, 17900, Note_on_c, 0, 54, 64
1, 17903, Note_off_c, 0, 52, 57
1, 18082, Note_on_c, 0, 75, 72
1, 18087, Note_off_c, 0, 76, 62
1, 18152, Note_off_c, 0, 75, 63
1, 18294, Note_on_c, 0, 56, 46
1, 18294, Note_on_c, 0, 83, 73
1, 18324, Note_off_c, 0, 54, 54
1, 18491, Note_off_c, 0, 83, 59
1, 18503, Note_on_c, 0, 74, 66
1, 18680, Note_off_c, 0, 56, 64
1, 18696, Note_on_c, 0, 57, 73
1, 18848, Note_off_c, 0, 74, 49
1, 18890, Note_off_c, 0, 57, 52
1, 18896, Note_on_c, 0, 72, 69
1, 18899, Note_on_c, 0, 45, 66
1, 18995, Note_off_c, 0, 72, 64
1, 18996, Note_on_c, 0, 71, 74
1, 19088, Note_off_c, 0, 71, 52
1, 19109, Note_on_c, 0, 72, 78
1, 19114, Note_on_c, 0, 57, 67
1, 19118, Note_off_c, 0, 45, 62
1, 19287, Note_off_c, 0, 72, 63
1, 19311, Note_on_c, 0, 69, 73
1, 19497, Note_off_c, 0, 69, 55
1, 19514, Note_on_c, 0, 71, 74
1, 19688, Note_off_c, 0, 57, 49
1, 19707, Note_on_c, 0, 56, 62
1, 19919, Note_off_c, 0, 56, 57
1, 19930, Note_on_c, 0, 73, 66
1, 19937, Note_off_c, 0, 71, 52
1, 19939, Note_on_c, 0, 64, 54
1, 20119, Note_off_c, 0, 64, 62
1, 20136, Note_on_c, 0, 55, 62
1, 20226, Poly_aftertouch_c, 0, 57, 127
1, 20327, Note_on_c, 0, 74, 79
1, 20329, Poly_aftertouch_c, 0, 57, 0
1, 20341, Note_off_c, 0, 73, 54
1, 20506, Note_off_c, 0, 55, 61
1, 20521, Note_off_c, 0, 74, 55
1, 20549, Note_on_c, 0, 54, 55
1, 20551, Note_on_c, 0, 62, 79
1, 20628, Note_off_c, 0, 54, 65
1, 20638, Note_on_c, 0, 52, 58
1, 20720, Note_off_c, 0, 62, 46
1, 20732, Note_off_c, 0, 52, 60
1, 20744, Note_on_c, 0, 74, 83
1, 20756, Note_on_c, 0, 54, 53
1, 20951, Note_off_c, 0, 54, 51
1, 20956, Note_on_c, 0, 50, 59
1, 21158, Note_off_c, 0, 50, 61
1, 21159, Note_on_c, 0, 52, 65
1, 21362, Note_off_c, 0, 74, 63
1, 21370, Note_on_c, 0, 73, 74
1, 21550, Note_off_c, 0, 52, 58
1, 21559, Note_off_c, 0, 73, 64
1, 21564, Note_on_c, 0, 54, 56
1, 21581, Note_on_c, 0, 81, 68
1, 21738, Note_off_c, 0, 81, 57
1, 21783, Note_on_c, 0, 72, 67
1, 21967, Note_off_c, 0, 54, 64
1, 21990, Note_on_c, 0, 55, 71
1, 22189, Note_off_c, 0, 72, 60
1, 22192, Note_on_c, 0, 43, 67
1, 22193, Note_on_c, 0, 71, 70
1, 22206, Note_off_c, 0, 55, 38
1, 22291, Note_on_c, 0, 69, 77
1, 22291, Note_off_c, 0, 71, 64
1, 22378, Note_off_c, 0, 69, 57
1, 22387, Note_off_c, 0, 43, 56
1, 22401, Note_on_c, 0, 55, 66
1, 22402, Note_on_c, 0, 71, 73
1, 22585, Note_off_c, 0, 71, 61
1, 22610, Note_on_c, 0, 67, 71
1, 22827, Note_on_c, 0, 69, 69
1, 22846, Note_off_c, 0, 67, 36
1, 23004, Note_off_c, 0, 55, 58
1, 23031, Note_on_c, 0, 54, 65
1, 23242, Note_off_c, 0, 54, 59
1, 23248, Note_on_c, 0, 71, 68
1, 23260, Note_on_c, 0, 62, 60
1, 23269, Note_off_c, 0, 69, 56
1, 23450, Note_off_c, 0, 62, 50
1, 23451, Note_on_c, 0, 53, 59
1, 23648, Note_off_c, 0, 71, 56
1, 23691, Note_on_c, 0, 72, 61
1, 23797, Note_off_c, 0, 53, 62
1, 23800, Note_on_c, 0, 52, 71
1, 23907, Note_on_c, 0, 53, 78
1, 23911, Note_off_c, 0, 72, 33
1, 23922, Note_off_c, 0, 52, 63
1, 23996, Note_off_c, 0, 53, 64
1, 23998, Note_on_c, 0, 55, 79
1, 24108, Note_off_c, 0, 55, 64
1, 24113, Note_on_c, 0, 84, 72
1, 24121, Note_on_c, 0, 57, 74
1, 24330, Note_on_c, 0, 52, 73
1, 24354, Note_off_c, 0, 57, 57
1, 24537, Note_on_c, 0, 83, 68
1, 24538, Note_on_c, 0, 51, 73
1, 24543, Note_off_c, 0, 52, 64
1, 24548, Note_off_c, 0, 84, 53
1, 24755, Note_on_c, 0, 54, 82
1, 24758, Note_off_c, 0, 51, 64
1, 24954, Note_off_c, 0, 54, 61
1, 24956, Note_on_c, 0, 55, 73
1, 24960, Note_off_c, 0, 83, 61
1, 24963, Note_on_c, 0, 82, 67
1, 25165, Note_on_c, 0, 50, 71
1, 25187, Note_off_c, 0, 55, 58
1, 25382, Note_on_c, 0, 49, 66
1, 25384, Note_off_c, 0, 50, 61
1, 25386, Note_on_c, 0, 81, 60
1, 25387, Note_off_c, 0, 82, 62
1, 25603, Note_on_c, 0, 52, 73
1, 25605, Note_off_c, 0, 49, 64
1, 25800, Note_off_c, 0, 52, 63
1, 25809, Note_on_c, 0, 80, 68
1, 25815, Note_on_c, 0, 53, 65
1, 25815, Note_off_c, 0, 81, 34
1, 26011, Note_on_c, 0, 48, 67
1, 26026, Note_off_c, 0, 53, 59
1, 26220, Note_on_c, 0, 79, 67
1, 26253, Note_off_c, 0, 80, 53
1, 26390, Note_off_c, 0, 48, 59
1, 26411, Note_on_c, 0, 47, 65
1, 26638, Note_off_c, 0, 79, 63
1, 26652, Note_on_c, 0, 77, 69
1, 26828, Note_on_c, 0, 48, 57
1, 26836, Note_off_c, 0, 47, 52
1, 26903, Note_off_c, 0, 48, 63
1, 26927, Note_on_c, 0, 50, 63
1, 27041, Note_off_c, 0, 50, 62
1, 27049, Note_on_c, 0, 43, 61
1, 27138, Note_off_c, 0, 77, 33
1, 27165, Note_on_c, 0, 71, 71
1, 27278, Note_on_c, 0, 72, 79
1, 27287, Note_off_c, 0, 71, 64
1, 27374, Note_on_c, 0, 74, 79
1, 27383, Note_off_c, 0, 72, 63
1, 27471, Note_off_c, 0, 74, 64
1, 27483, Note_on_c, 0, 76, 77
1, 27488, Note_on_c, 0, 55, 59
1, 27490, Note_off_c, 0, 43, 43
1, 27704, Note_on_c, 0, 71, 78
1, 27705, Note_off_c, 0, 76, 61
1, 27919, Note_off_c, 0, 55, 55
1, 27923, Note_on_c, 0, 54, 53
1, 27925, Note_on_c, 0, 70, 75
1, 27925, Note_off_c, 0, 71, 60
1, 28134, Note_off_c, 0, 70, 61
1, 28141, Note_on_c, 0, 73, 75
1, 28346, Note_off_c, 0, 73, 61
1, 28346, Note_on_c, 0, 53, 46
1, 28349, Note_off_c, 0, 54, 53
1, 28352, Note_on_c, 0, 74, 69
1, 28560, Note_on_c, 0, 69, 72
1, 28562, Note_off_c, 0, 74, 59
1, 28778, Note_on_c, 0, 52, 45
1, 28781, Note_off_c, 0, 69, 62
1, 28787, Note_off_c, 0, 53, 53
1, 28796, Note_on_c, 0, 68, 69
1, 28976, Note_off_c, 0, 68, 61
1, 28992, Note_on_c, 0, 71, 73
1, 29152, Note_off_c, 0, 52, 58
1, 29186, Note_off_c, 0, 71, 65
1, 29199, Note_on_c, 0, 72, 72
1, 29213, Note_on_c, 0, 51, 53
1, 29401, Note_off_c, 0, 72, 61
1, 29410, Note_on_c, 0, 67, 58
1, 29446, Note_on_c, 0, 65, 28
1, 29447, Note_off_c, 0, 65, 127
1, 29623, Note_on_c, 0, 50, 53
1, 29623, Note_off_c, 0, 51, 54
1, 29812, Note_off_c, 0, 67, 58
1, 29823, Note_on_c, 0, 66, 65
1, 30037, Note_on_c, 0, 48, 55
1, 30042, Note_off_c, 0, 50, 58
1, 30238, Note_on_c, 0, 67, 61
1, 30265, Note_off_c, 0, 66, 61
1, 30331, Note_off_c, 0, 67, 59
1, 30345, Note_on_c, 0, 69, 67
1, 30415, Note_off_c, 0, 69, 62
1, 30455, Note_on_c, 0, 62, 66
1, 30662, Note_off_c, 0, 48, 57
1, 30670, Note_on_c, 0, 47, 58
1, 30751, Note_off_c, 0, 47, 63
1, 30764, Note_on_c, 0, 45, 59
1, 30864, Note_off_c, 0, 45, 61
1, 30866, Note_on_c, 0, 47, 59
1, 30867, Note_off_c, 0, 62, 37
1, 30876, Note_on_c, 0, 67, 69
1, 31046, Note_off_c, 0, 47, 62
1, 31090, Note_on_c, 0, 55, 68
1, 31281, Note_on_c, 0, 69, 78
1, 31283, Note_off_c, 0, 67, 58
1, 31460, Note_off_c, 0, 55, 55
1, 31477, Note_on_c, 0, 54, 69
1, 31688, Note_on_c, 0, 71, 73
1, 31690, Note_off_c, 0, 54, 58
1, 31699, Note_on_c, 0, 62, 56
1, 31720, Note_off_c, 0, 69, 55
1, 31890, Note_off_c, 0, 62, 59
1, 31917, Note_on_c, 0, 53, 58
1, 32129, Note_on_c, 0, 72, 65
1, 32141, Note_off_c, 0, 71, 53
1, 32308, Note_off_c, 0, 53, 59
1, 32331, Note_on_c, 0, 52, 58
1, 32422, Note_off_c, 0, 52, 65
1, 32426, Note_on_c, 0, 50, 67
1, 32525, Note_off_c, 0, 50, 64
1, 32528, Note_on_c, 0, 49, 65
1, 32531, Note_off_c, 0, 72, 61
1, 32538, Note_on_c, 0, 69, 68
1, 32713, Note_off_c, 0, 49, 64
1, 32757, Note_on_c, 0, 57, 72
1, 32939, Note_on_c, 0, 71, 76
1, 32978, Note_off_c, 0, 69, 60
1, 33124, Note_off_c, 0, 57, 56
1, 33140, Note_on_c, 0, 56, 67
1, 33356, Note_on_c, 0, 73, 68
1, 33368, Note_on_c, 0, 64, 66
1, 33376, Note_off_c, 0, 56, 59
1, 33376, Note_off_c, 0, 71, 52
1, 33565, Note_on_c, 0, 55, 71
1, 33577, Note_off_c, 0, 64, 54
1, 33759, Note_on_c, 0, 74, 64
1, 33782, Note_off_c, 0, 73, 61
1, 33878, Note_off_c, 0, 55, 64
1, 33882, Note_on_c, 0, 54, 72
1, 33982, Note_on_c, 0, 55, 79
1, 34004, Note_off_c, 0, 54, 62
1, 34077, Note_off_c, 0, 55, 64
1, 34081, Note_on_c, 0, 57, 81
1, 34129, Note_off_c, 0, 74, 48
1, 34189, Note_on_c, 0, 62, 65
1, 34197, Note_off_c, 0, 57, 64
1, 34201, Note_on_c, 0, 58, 78
1, 34421, Note_on_c, 0, 53, 77
1, 34421, Note_off_c, 0, 58, 63
1, 34611, Note_on_c, 0, 52, 69
1, 34626, Note_off_c, 0, 53, 63
1, 34626, Note_on_c, 0, 61, 64
1, 34656, Note_off_c, 0, 62, 41
1, 34841, Note_off_c, 0, 52, 65
1, 34846, Note_on_c, 0, 56, 76
1, 35036, Note_off_c, 0, 56, 65
1, 35049, Note_on_c, 0, 57, 69
1, 35053, Note_on_c, 0, 60, 62
1, 35079, Note_off_c, 0, 61, 52
1, 35252, Note_on_c, 0, 51, 73
1, 35258, Note_off_c, 0, 57, 55
1, 35436, Note_off_c, 0, 60, 63
1, 35454, Note_on_c, 0, 59, 63
1, 35463, Note_on_c, 0, 50, 62
1, 35471, Note_off_c, 0, 51, 63
1, 35665, Note_off_c, 0, 50, 63
1, 35676, Note_on_c, 0, 54, 71
1, 35859, Note_off_c, 0, 54, 64
1, 35865, Note_off_c, 0, 59, 46
1, 35870, Note_on_c, 0, 58, 62
1, 35873, Note_on_c, 0, 55, 63
1, 36081, Note_off_c, 0, 55, 55
1, 36087, Note_on_c, 0, 49, 59
1, 36299, Note_on_c, 0, 57, 60
1, 36328, Note_off_c, 0, 58, 38
1, 36514, Note_on_c, 0, 50, 50
1, 36542, Note_off_c, 0, 49, 40
1, 36710, Note_off_c, 0, 57, 58
1, 36722, Note_on_c, 0, 55, 51
1, 36923, Note_off_c, 0, 50, 55
1, 36928, Note_on_c, 0, 52, 49
1, 37141, Note_off_c, 0, 52, 57
1, 37157, Note_on_c, 0, 45, 42
1, 37356, Note_off_c, 0, 55, 61
1, 37379, Note_on_c, 0, 53, 52
1, 37440, Note_off_c, 0, 53, 63
1, 37467, Note_on_c, 0, 52, 55
1, 37562, Note_off_c, 0, 52, 56
1, 37571, Note_on_c, 0, 50, 50
1, 37581, Note_off_c, 0, 45, 46
1, 37583, Note_on_c, 0, 53, 55
1, 37700, Note_off_c, 0, 53, 63
1, 37813, Note_on_c, 0, 62, 67
1, 38004, Note_on_c, 0, 52, 52
1, 38007, Note_off_c, 0, 50, 52
1, 38217, Note_off_c, 0, 62, 62
1, 38219, Note_on_c, 0, 61, 66
1, 38312, Note_off_c, 0, 61, 61
1, 38416, Note_off_c, 0, 52, 57
1, 38427, Note_on_c, 0, 69, 70
1, 38429, Note_on_c, 0, 54, 47
1, 38622, Note_off_c, 0, 69, 57
1, 38646, Note_on_c, 0, 60, 66
1, 38831, Note_off_c, 0, 54, 59
1, 38854, Note_on_c, 0, 55, 55
1, 38989, Note_off_c, 0, 60, 57
1, 39049, Note_on_c, 0, 59, 67
1, 39134, Note_off_c, 0, 59, 64
1, 39142, Note_on_c, 0, 57, 69
1, 39238, Note_off_c, 0, 57, 63
1, 39256, Note_on_c, 0, 56, 68
1, 39259, Note_on_c, 0, 52, 51
1, 39273, Note_off_c, 0, 55, 48
1, 39360, Note_off_c, 0, 56, 59
1, 39477, Note_on_c, 0, 64, 77
1, 39685, Note_on_c, 0, 54, 61
1, 39689, Note_off_c, 0, 52, 56
1, 39889, Note_off_c, 0, 64, 61
1, 39891, Note_on_c, 0, 63, 69
1, 39986, Note_off_c, 0, 63, 63
1, 40086, Note_on_c, 0, 56, 50
1, 40099, Note_off_c, 0, 54, 53
1, 40105, Note_on_c, 0, 71, 73
1, 40283, Note_off_c, 0, 71, 58
1, 40309, Note_on_c, 0, 62, 69
1, 40474, Note_off_c, 0, 56, 64
1, 40497, Note_on_c, 0, 57, 64
1, 40600, Note_on_c, 0, 60, 72
1, 40621, Note_off_c, 0, 62, 40
1, 40679, Note_on_c, 0, 45, 52
1, 40687, Note_off_c, 0, 57, 55
1, 40707, Note_on_c, 0, 62, 77
1, 40738, Note_off_c, 0, 60, 62
1, 40792, Note_off_c, 0, 62, 67
1, 40802, Note_on_c, 0, 64, 81
1, 40898, Note_on_c, 0, 57, 54
1, 40903, Note_off_c, 0, 45, 56
1, 40919, Note_off_c, 0, 64, 65
1, 40924, Note_on_c, 0, 65, 77
1, 41131, Note_on_c, 0, 60, 79
1, 41138, Note_off_c, 0, 65, 59
1, 41330, Note_off_c, 0, 57, 54
1, 41338, Note_off_c, 0, 60, 62
1, 41340, Note_on_c, 0, 56, 50
1, 41348, Note_on_c, 0, 59, 74
1, 41564, Note_on_c, 0, 63, 77
1, 41592, Note_off_c, 0, 59, 55
1, 41777, Note_off_c, 0, 63, 59
1, 41778, Note_off_c, 0, 56, 57
1, 41779, Note_on_c, 0, 55, 48
1, 41780, Note_on_c, 0, 64, 72
1, 41986, Note_off_c, 0, 64, 61
1, 41991, Note_on_c, 0, 58, 73
1, 42186, Note_off_c, 0, 55, 58
1, 42198, Note_off_c, 0, 58, 61
1, 42210, Note_on_c, 0, 57, 66
1, 42214, Note_on_c, 0, 54, 40
1, 42418, Note_on_c, 0, 61, 69
1, 42424, Note_off_c, 0, 57, 51
1, 42593, Note_off_c, 0, 54, 64
1, 42636, Note_off_c, 0, 61, 58
1, 42638, Note_on_c, 0, 53, 41
1, 42642, Note_on_c, 0, 62, 64
1, 42833, Note_off_c, 0, 62, 61
1, 42848, Note_on_c, 0, 56, 67
1, 43077, Note_off_c, 0, 53, 57
1, 43081, Note_on_c, 0, 52, 49
1, 43253, Note_on_c, 0, 57, 63
1, 43257, Note_off_c, 0, 56, 57
1, 43468, Note_on_c, 0, 50, 52
1, 43468, Note_off_c, 0, 52, 56
1, 43666, Note_off_c, 0, 57, 61
1, 43680, Note_on_c, 0, 59, 53
1, 43900, Note_on_c, 0, 52, 53
1, 43904, Note_off_c, 0, 59, 40
1, 44058, Control_c, 0, 64, 15
1, 44073, Control_c, 0, 64, 25
1, 44088, Control_c, 0, 64, 32
1, 44092, Note_off_c, 0, 52, 42
1, 44093, Note_off_c, 0, 50, 61
1, 44102, Control_c, 0, 64, 37
1, 44112, Note_on_c, 0, 48, 60
1, 44117, Control_c, 0, 64, 40
1, 44132, Control_c, 0, 64, 42
1, 44147, Control_c, 0, 64, 44
1, 44162, Control_c, 0, 64, 44
1, 44194, Note_off_c, 0, 48, 64
1, 44201, Note_on_c, 0, 47, 61
1, 44206, Control_c, 0, 64, 44
1, 44221, Control_c, 0, 64, 40
1, 44236, Control_c, 0, 64, 38
1, 44250, Control_c, 0, 64, 34
1, 44265, Control_c, 0, 64, 30
1, 44280, Control_c, 0, 64, 27
1, 44294, Note_on_c, 0, 64, 62
1, 44295, Control_c, 0, 64, 24
1, 44296, Note_off_c, 0, 47, 59
1, 44303, Note_on_c, 0, 48, 52
1, 44309, Control_c, 0, 64, 22
1, 44324, Control_c, 0, 64, 20
1, 44339, Control_c, 0, 64, 18
1, 44369, Control_c, 0, 64, 17
1, 44383, Control_c, 0, 64, 16
1, 44442, Note_off_c, 0, 48, 63
1, 44524, Note_on_c, 0, 52, 60
1, 44723, Note_off_c, 0, 64, 58
1, 44724, Note_on_c, 0, 66, 73
1, 44918, Note_off_c, 0, 52, 55
1, 44934, Note_on_c, 0, 51, 63
1, 45141, Note_off_c, 0, 51, 54
1, 45143, Note_on_c, 0, 68, 69
1, 45151, Note_on_c, 0, 59, 59
1, 45167, Note_off_c, 0, 66, 45
1, 45357, Note_on_c, 0, 50, 54
1, 45360, Note_off_c, 0, 59, 38
1, 45568, Note_on_c, 0, 69, 76
1, 45581, Note_off_c, 0, 68, 54
1, 45752, Note_off_c, 0, 50, 59
1, 45752, Note_off_c, 0, 69, 60
1, 45778, Note_on_c, 0, 49, 50
1, 45779, Note_on_c, 0, 57, 73
1, 45871, Note_off_c, 0, 49, 63
1, 45873, Note_on_c, 0, 47, 47
1, 45933, Note_off_c, 0, 57, 50
1, 45973, Note_off_c, 0, 47, 59
1, 45984, Note_on_c, 0, 69, 78
1, 45991, Note_on_c, 0, 49, 54
1, 46181, Note_off_c, 0, 49, 55
1, 46185, Note_on_c, 0, 45, 63
1, 46388, Note_on_c, 0, 47, 63
1, 46427, Note_off_c, 0, 45, 56
1, 46591, Note_off_c, 0, 69, 63
1, 46605, Note_on_c, 0, 68, 69
1, 46803, Note_off_c, 0, 47, 57
1, 46817, Note_on_c, 0, 49, 48
1, 46826, Note_on_c, 0, 76, 66
1, 46833, Note_off_c, 0, 68, 60
1, 47011, Note_off_c, 0, 76, 59
1, 47033, Note_on_c, 0, 67, 70
1, 47218, Note_off_c, 0, 49, 63
1, 47235, Note_on_c, 0, 50, 73
1, 47381, Note_off_c, 0, 67, 41
1, 47423, Note_on_c, 0, 66, 67
1, 47431, Note_on_c, 0, 38, 68
1, 47431, Note_off_c, 0, 50, 56
1, 47539, Note_on_c, 0, 64, 68
1, 47539, Note_off_c, 0, 66, 62
1, 47616, Note_off_c, 0, 64, 59
1, 47653, Note_on_c, 0, 50, 73
1, 47658, Note_on_c, 0, 66, 60
1, 47665, Note_off_c, 0, 38, 56
1, 47839, Note_off_c, 0, 66, 55
1, 47861, Note_on_c, 0, 62, 64
1, 48025, Note_off_c, 0, 62, 51
1, 48058, Note_on_c, 0, 64, 62
1, 48239, Note_off_c, 0, 50, 60
1, 48256, Note_on_c, 0, 49, 60
1, 48459, Note_off_c, 0, 49, 58
1, 48473, Note_on_c, 0, 66, 61
1, 48474, Note_on_c, 0, 57, 60
1, 48499, Note_off_c, 0, 64, 37
1, 48680, Note_off_c, 0, 57, 56
1, 48688, Note_on_c, 0, 48, 60
1, 48884, Note_on_c, 0, 67, 82
1, 48895, Note_off_c, 0, 66, 57
1, 49077, Note_off_c, 0, 67, 57
1, 49086, Note_off_c, 0, 48, 63
1, 49098, Note_on_c, 0, 55, 69
1, 49113, Note_on_c, 0, 47, 53
1, 49179, Control_c, 0, 64, 15
1, 49192, Note_off_c, 0, 47, 62
1, 49203, Note_on_c, 0, 45, 51
1, 49289, Note_off_c, 0, 45, 62
1, 49300, Note_on_c, 0, 67, 73
1, 49301, Note_off_c, 0, 55, 37
1, 49310, Note_on_c, 0, 47, 51
1, 49387, Control_c, 0, 64, 14
1, 49432, Control_c, 0, 64, 12
1, 49492, Control_c, 0, 64, 10
1, 49510, Note_on_c, 0, 43, 63
1, 49513, Note_off_c, 0, 47, 57
1, 49580, Control_c, 0, 64, 8
1, 49741, Note_off_c, 0, 43, 57
1, 49746, Note_on_c, 0, 45, 63
1, 49809, Control_c, 0, 64, 0
1, 49920, Note_off_c, 0, 67, 62
1, 49935, Note_on_c, 0, 66, 73
1, 50154, Note_off_c, 0, 66, 63
1, 50158, Note_off_c, 0, 45, 60
1, 50161, Note_on_c, 0, 74, 74
1, 50169, Note_on_c, 0, 47, 61
1, 50347, Note_off_c, 0, 74, 57
1, 50356, Note_on_c, 0, 65, 78
1, 50571, Note_off_c, 0, 47, 61
1, 50586, Note_on_c, 0, 48, 71
1, 50662, Control_c, 0, 64, 20
1, 50677, Control_c, 0, 64, 30
1, 50691, Control_c, 0, 64, 36
1, 50706, Control_c, 0, 64, 40
1, 50721, Control_c, 0, 64, 42
1, 50736, Control_c, 0, 64, 45
1, 50741, Note_off_c, 0, 65, 56
1, 50750, Control_c, 0, 64, 46
1, 50765, Control_c, 0, 64, 47
1, 50802, Note_on_c, 0, 64, 78
1, 50839, Control_c, 0, 64, 45
1, 50854, Control_c, 0, 64, 41
1, 50869, Control_c, 0, 64, 36
1, 50884, Control_c, 0, 64, 24
1, 50887, Note_off_c, 0, 64, 63
1, 50899, Control_c, 0, 64, 0
1, 50901, Note_on_c, 0, 62, 72
1, 50968, Note_off_c, 0, 62, 62
1, 50994, Note_on_c, 0, 64, 80
1, 51063, Control_c, 0, 64, 30
1, 51072, Note_off_c, 0, 64, 63
1, 51078, Control_c, 0, 64, 41
1, 51093, Control_c, 0, 64, 47
1, 51108, Control_c, 0, 64, 53
1, 51123, Control_c, 0, 64, 57
1, 51138, Control_c, 0, 64, 61
1, 51152, Control_c, 0, 64, 63
1, 51167, Control_c, 0, 64, 64
1, 51182, Control_c, 0, 64, 66
1, 51197, Control_c, 0, 64, 66
1, 51204, Note_off_c, 0, 48, 61
1, 51219, Control_c, 0, 64, 67
1, 51224, Note_on_c, 0, 47, 57
1, 51224, Note_on_c, 0, 76, 83
1, 51248, Control_c, 0, 64, 66
1, 51263, Control_c, 0, 64, 66
1, 51278, Control_c, 0, 64, 65
1, 51293, Control_c, 0, 64, 64
1, 51306, Note_off_c, 0, 47, 63
1, 51308, Control_c, 0, 64, 63
1, 51316, Note_on_c, 0, 45, 67
1, 51322, Control_c, 0, 64, 62
1, 51337, Control_c, 0, 64, 61
1, 51352, Control_c, 0, 64, 60
1, 51367, Control_c, 0, 64, 57
1, 51382, Control_c, 0, 64, 54
1, 51397, Control_c, 0, 64, 51
1, 51412, Control_c, 0, 64, 45
1, 51420, Note_on_c, 0, 52, 75
1, 51427, Control_c, 0, 64, 38
1, 51430, Note_off_c, 0, 45, 60
1, 51441, Control_c, 0, 64, 29
1, 51456, Control_c, 0, 64, 10
1, 51471, Control_c, 0, 64, 0
1, 51527, Note_off_c, 0, 52, 65
1, 51528, Note_on_c, 0, 53, 74
1, 51604, Control_c, 0, 64, 17
1, 51612, Note_off_c, 0, 53, 63
1, 51619, Control_c, 0, 64, 29
1, 51626, Note_on_c, 0, 55, 71
1, 51634, Control_c, 0, 64, 36
1, 51648, Control_c, 0, 64, 40
1, 51658, Note_on_c, 0, 77, 77
1, 51662, Note_off_c, 0, 76, 62
1, 51663, Control_c, 0, 64, 44
1, 51678, Control_c, 0, 64, 48
1, 51693, Control_c, 0, 64, 52
1, 51708, Control_c, 0, 64, 55
1, 51715, Note_off_c, 0, 55, 63
1, 51722, Control_c, 0, 64, 57
1, 51728, Note_on_c, 0, 53, 70
1, 51737, Control_c, 0, 64, 60
1, 51752, Control_c, 0, 64, 61
1, 51767, Control_c, 0, 64, 62
1, 51769, Note_on_c, 0, 76, 84
1, 51781, Control_c, 0, 64, 63
1, 51783, Note_off_c, 0, 77, 55
1, 51796, Note_off_c, 0, 53, 63
1, 51796, Control_c, 0, 64, 63
1, 51816, Note_on_c, 0, 55, 70
1, 51827, Control_c, 0, 64, 64
1, 51865, Note_off_c, 0, 55, 61
1, 51874, Note_off_c, 0, 76, 64
1, 51879, Note_on_c, 0, 74, 80
1, 51882, Note_on_c, 0, 53, 59
1, 51924, Note_off_c, 0, 53, 64
1, 51934, Note_on_c, 0, 55, 66
1, 51965, Note_off_c, 0, 74, 65
1, 51968, Control_c, 0, 64, 63
1, 51981, Note_on_c, 0, 72, 83
1, 51997, Control_c, 0, 64, 63
1, 52004, Note_on_c, 0, 53, 68
1, 52004, Note_off_c, 0, 55, 63
1, 52012, Control_c, 0, 64, 61
1, 52027, Control_c, 0, 64, 60
1, 52042, Control_c, 0, 64, 57
1, 52053, Note_off_c, 0, 72, 63
1, 52057, Control_c, 0, 64, 55
1, 52068, Note_off_c, 0, 53, 64
1, 52071, Control_c, 0, 64, 53
1, 52074, Note_on_c, 0, 52, 67
1, 52083, Note_on_c, 0, 71, 82
1, 52086, Control_c, 0, 64, 51
1, 52101, Control_c, 0, 64, 49
1, 52115, Control_c, 0, 64, 48
1, 52130, Control_c, 0, 64, 47
1, 52158, Note_off_c, 0, 71, 64
1, 52172, Note_on_c, 0, 53, 72
1, 52172, Note_off_c, 0, 52, 63
1, 52197, Note_on_c, 0, 69, 77
1, 52261, Note_off_c, 0, 53, 61
1, 52280, Note_on_c, 0, 52, 70
1, 52283, Note_off_c, 0, 69, 53
1, 52314, Note_on_c, 0, 68, 77
1, 52373, Note_on_c, 0, 66, 34
1, 52443, Note_on_c, 0, 64, 73
1, 52497, Note_off_c, 0, 66, 23
1, 52541, Note_off_c, 0, 64, 63
1, 52546, Note_on_c, 0, 62, 76
1, 52604, Control_c, 0, 64, 45
1, 52620, Control_c, 0, 64, 42
1, 52635, Control_c, 0, 64, 31
1, 52643, Note_off_c, 0, 62, 61
1, 52646, Note_on_c, 0, 60, 78
1, 52650, Control_c, 0, 64, 0
1, 52737, Note_on_c, 0, 59, 74
1, 52810, Note_off_c, 0, 60, 48
1, 52835, Control_c, 0, 64, 17
1, 52843, Note_on_c, 0, 57, 76
1, 52849, Note_off_c, 0, 59, 63
1, 52850, Control_c, 0, 64, 27
1, 52865, Control_c, 0, 64, 31
1, 52880, Control_c, 0, 64, 34
1, 52894, Control_c, 0, 64, 36
1, 52938, Control_c, 0, 64, 31
1, 52953, Control_c, 0, 64, 0
1, 52955, Note_on_c, 0, 56, 78
1, 52979, Note_off_c, 0, 52, 62
1, 52997, Note_off_c, 0, 57, 58
1, 53053, Note_off_c, 0, 56, 66
1, 53057, Note_on_c, 0, 54, 76
1, 53072, Control_c, 0, 64, 24
1, 53087, Control_c, 0, 64, 40
1, 53102, Control_c, 0, 64, 46
1, 53117, Control_c, 0, 64, 50
1, 53131, Control_c, 0, 64, 53
1, 53146, Control_c, 0, 64, 55
1, 53161, Control_c, 0, 64, 56
1, 53164, Note_off_c, 0, 54, 65
1, 53176, Control_c, 0, 64, 58
1, 53191, Control_c, 0, 64, 59
1, 53194, Note_on_c, 0, 52, 73
1, 53205, Control_c, 0, 64, 59
1, 53220, Control_c, 0, 64, 60
1, 53280, Control_c, 0, 64, 59
1, 53294, Control_c, 0, 64, 58
1, 53309, Control_c, 0, 64, 57
1, 53324, Control_c, 0, 64, 56
1, 53338, Control_c, 0, 64, 55
1, 53353, Control_c, 0, 64, 53
1, 53368, Control_c, 0, 64, 52
1, 53383, Control_c, 0, 64, 50
1, 53398, Control_c, 0, 64, 48
1, 53414, Control_c, 0, 64, 46
1, 53429, Control_c, 0, 64, 43
1, 53443, Control_c, 0, 64, 40
1, 53466, Control_c, 0, 64, 36
1, 53481, Control_c, 0, 64, 29
1, 53495, Control_c, 0, 64, 12
1, 53510, Control_c, 0, 64, 0
1, 53686, Note_on_c, 0, 40, 64
1, 53716, Note_off_c, 0, 52, 49
1, 53791, Control_c, 0, 64, 29
1, 53806, Control_c, 0, 64, 40
1, 53821, Control_c, 0, 64, 48
1, 53826, Note_off_c, 0, 68, 55
1, 53835, Control_c, 0, 64, 54
1, 53850, Control_c, 0, 64, 58
1, 53865, Control_c, 0, 64, 61
1, 53880, Control_c, 0, 64, 65
1, 53895, Control_c, 0, 64, 69
1, 53910, Control_c, 0, 64, 74
1, 53925, Control_c, 0, 64, 80
1, 53940, Control_c, 0, 64, 85
1, 53954, Control_c, 0, 64, 90
1, 53969, Control_c, 0, 64, 95
1, 53984, Control_c, 0, 64, 96
1, 54013, Control_c, 0, 64, 95
1, 54042, Control_c, 0, 64, 95
1, 54057, Control_c, 0, 64, 94
1, 54072, Control_c, 0, 64, 94
1, 54087, Control_c, 0, 64, 93
1, 54101, Control_c, 0, 64, 92
1, 54116, Control_c, 0, 64, 91
1, 54131, Control_c, 0, 64, 90
1, 54146, Control_c, 0, 64, 89
1, 54159, Note_off_c, 0, 40, 63
1, 54160, Control_c, 0, 64, 88
1, 54175, Control_c, 0, 64, 86
1, 54190, Control_c, 0, 64, 85
1, 54214, Control_c, 0, 64, 84
1, 54229, Control_c, 0, 64, 84
1, 54244, Control_c, 0, 64, 83
1, 54259, Control_c, 0, 64, 82
1, 54273, Control_c, 0, 64, 81
1, 54288, Control_c, 0, 64, 80
1, 54301, Note_on_c, 0, 76, 54
1, 54303, Control_c, 0, 64, 79
1, 54318, Control_c, 0, 64, 79
1, 54332, Control_c, 0, 64, 78
1, 54347, Control_c, 0, 64, 77
1, 54362, Control_c, 0, 64, 77
1, 54377, Control_c, 0, 64, 76
1, 54391, Control_c, 0, 64, 75
1, 54406, Control_c, 0, 64, 74
1, 54421, Control_c, 0, 64, 72
1, 54436, Control_c, 0, 64, 70
1, 54441, Note_on_c, 0, 60, 61
1, 54451, Control_c, 0, 64, 68
1, 54465, Control_c, 0, 64, 65
1, 54480, Control_c, 0, 64, 62
1, 54495, Control_c, 0, 64, 59
1, 54510, Control_c, 0, 64, 56
1, 54525, Control_c, 0, 64, 54
1, 54539, Control_c, 0, 64, 52
1, 54542, Note_off_c, 0, 60, 63
1, 54548, Note_on_c, 0, 59, 70
1, 54554, Control_c, 0, 64, 49
1, 54569, Control_c, 0, 64, 47
1, 54583, Control_c, 0, 64, 45
1, 54598, Control_c, 0, 64, 44
1, 54613, Control_c, 0, 64, 43
1, 54628, Control_c, 0, 64, 43
1, 54637, Note_on_c, 0, 57, 72
1, 54643, Control_c, 0, 64, 42
1, 54646, Note_off_c, 0, 59, 61
1, 54658, Control_c, 0, 64, 41
1, 54673, Control_c, 0, 64, 41
1, 54703, Control_c, 0, 64, 40
1, 54731, Note_off_c, 0, 57, 64
1, 54748, Note_off_c, 0, 76, 40
1, 54755, Note_on_c, 0, 56, 63
1, 54759, Note_on_c, 0, 64, 62
1, 54881, Control_c, 0, 64, 40
1, 54974, Note_off_c, 0, 56, 65
1, 54980, Note_on_c, 0, 61, 74
1, 55172, Note_off_c, 0, 64, 60
1, 55180, Note_off_c, 0, 61, 61
1, 55185, Note_on_c, 0, 65, 63
1, 55192, Note_on_c, 0, 62, 64
1, 55393, Control_c, 0, 64, 40
1, 55402, Note_on_c, 0, 58, 74
1, 55406, Note_off_c, 0, 62, 59
1, 55407, Control_c, 0, 64, 40
1, 55467, Control_c, 0, 64, 40
1, 55594, Note_off_c, 0, 58, 64
1, 55603, Note_on_c, 0, 57, 64
1, 55606, Note_on_c, 0, 66, 65
1, 55621, Note_off_c, 0, 65, 56
1, 55820, Note_off_c, 0, 57, 63
1, 55826, Note_on_c, 0, 63, 75
1, 56024, Note_off_c, 0, 63, 58
1, 56028, Note_on_c, 0, 64, 70
1, 56041, Note_on_c, 0, 67, 66
1, 56071, Note_off_c, 0, 66, 56
1, 56241, Note_on_c, 0, 60, 75
1, 56252, Note_off_c, 0, 64, 59
1, 56438, Note_off_c, 0, 67, 59
1, 56441, Note_on_c, 0, 59, 67
1, 56447, Note_off_c, 0, 60, 63
1, 56462, Note_on_c, 0, 68, 59
1, 56519, Control_c, 0, 64, 40
1, 56663, Note_off_c, 0, 59, 59
1, 56665, Note_on_c, 0, 65, 78
1, 56727, Control_c, 0, 64, 39
1, 56875, Note_off_c, 0, 68, 59
1, 56878, Note_on_c, 0, 69, 69
1, 57087, Note_off_c, 0, 65, 58
1, 57091, Note_on_c, 0, 64, 70
1, 57321, Note_on_c, 0, 71, 66
1, 57329, Note_off_c, 0, 69, 57
1, 57538, Note_on_c, 0, 62, 59
1, 57539, Note_off_c, 0, 64, 56
1, 57742, Note_off_c, 0, 71, 50
1, 57750, Note_off_c, 0, 62, 55
1, 57759, Note_on_c, 0, 69, 47
1, 57781, Note_on_c, 0, 72, 62
1, 57885, Note_on_c, 0, 77, 73
1, 57891, Note_off_c, 0, 72, 63
1, 57983, Note_on_c, 0, 76, 75
1, 58006, Note_off_c, 0, 77, 61
1, 58074, Note_on_c, 0, 74, 80
1, 58074, Note_off_c, 0, 76, 64
1, 58189, Note_off_c, 0, 74, 62
1, 58190, Note_on_c, 0, 73, 78
1, 58194, Note_on_c, 0, 57, 53
1, 58223, Note_off_c, 0, 69, 37
1, 58389, Note_on_c, 0, 78, 81
1, 58399, Note_off_c, 0, 73, 59
1, 58603, Note_on_c, 0, 79, 76
1, 58607, Note_off_c, 0, 78, 58
1, 58611, Note_off_c, 0, 57, 59
1, 58616, Note_on_c, 0, 58, 53
1, 58819, Note_on_c, 0, 75, 82
1, 58831, Note_off_c, 0, 79, 62
1, 59017, Note_off_c, 0, 75, 59
1, 59027, Note_on_c, 0, 74, 77
1, 59033, Note_on_c, 0, 59, 54
1, 59042, Note_off_c, 0, 58, 56
1, 59229, Note_on_c, 0, 80, 78
1, 59247, Note_off_c, 0, 74, 61
1, 59416, Note_off_c, 0, 59, 56
1, 59442, Note_on_c, 0, 81, 71
1, 59445, Note_on_c, 0, 60, 54
1, 59472, Note_off_c, 0, 80, 64
1, 59654, Note_on_c, 0, 77, 82
1, 59675, Note_off_c, 0, 81, 63
1, 59863, Note_on_c, 0, 61, 56
1, 59865, Note_off_c, 0, 60, 57
1, 59866, Note_off_c, 0, 77, 62
1, 59872, Note_on_c, 0, 76, 76
1, 60033, Control_c, 0, 64, 39
1, 60071, Note_off_c, 0, 76, 58
1, 60080, Note_on_c, 0, 82, 77
1, 60305, Note_on_c, 0, 62, 57
1, 60337, Note_off_c, 0, 61, 45
1, 60504, Note_on_c, 0, 81, 69
1, 60527, Note_off_c, 0, 82, 62
1, 60734, Note_on_c, 0, 64, 59
1, 60742, Note_off_c, 0, 62, 57
1, 60921, Note_on_c, 0, 79, 69
1, 60948, Note_off_c, 0, 81, 61
1, 61127, Note_off_c, 0, 64, 55
1, 61151, Note_on_c, 0, 81, 60
1, 61151, Note_off_c, 0, 79, 63
1, 61153, Note_on_c, 0, 65, 39
1, 61262, Note_on_c, 0, 79, 76
1, 61274, Note_off_c, 0, 81, 53
1, 61360, Note_on_c, 0, 77, 81
1, 61378, Note_off_c, 0, 79, 58
1, 61450, Note_on_c, 0, 76, 81
1, 61451, Note_off_c, 0, 77, 64
1, 61547, Note_off_c, 0, 76, 64
1, 61558, Note_on_c, 0, 77, 77
1, 61560, Note_off_c, 0, 65, 63
1, 61565, Note_on_c, 0, 62, 54
1, 61771, Note_on_c, 0, 70, 74
1, 61775, Note_off_c, 0, 77, 62
1, 61955, Note_off_c, 0, 70, 62
1, 61978, Note_on_c, 0, 69, 69
1, 61982, Note_on_c, 0, 60, 50
1, 61990, Note_off_c, 0, 62, 52
1, 62184, Note_on_c, 0, 76, 68
1, 62194, Note_off_c, 0, 69, 51
1, 62396, Note_off_c, 0, 60, 54
1, 62398, Note_on_c, 0, 59, 46
1, 62402, Note_off_c, 0, 76, 58
1, 62404, Note_on_c, 0, 74, 65
1, 62593, Note_off_c, 0, 74, 64
1, 62608, Note_on_c, 0, 68, 67
1, 62816, Note_on_c, 0, 57, 52
1, 62832, Note_off_c, 0, 59, 38
1, 62914, Note_on_c, 0, 74, 61
1, 62924, Note_off_c, 0, 68, 57
1, 63012, Note_on_c, 0, 72, 72
1, 63038, Note_off_c, 0, 74, 63
1, 63104, Note_on_c, 0, 71, 73
1, 63134, Note_off_c, 0, 72, 61
1, 63219, Note_off_c, 0, 71, 63
1, 63228, Note_on_c, 0, 69, 70
1, 63235, Note_on_c, 0, 60, 47
1, 63238, Note_off_c, 0, 57, 56
1, 63434, Note_on_c, 0, 76, 70
1, 63434, Note_off_c, 0, 69, 56
1, 63632, Note_off_c, 0, 60, 57
1, 63637, Note_off_c, 0, 76, 63
1, 63639, Note_on_c, 0, 74, 70
1, 63647, Note_on_c, 0, 59, 46
1, 63836, Note_off_c, 0, 74, 63
1, 63850, Note_on_c, 0, 67, 63
1, 64057, Note_off_c, 0, 67, 63
1, 64069, Note_off_c, 0, 59, 56
1, 64069, Note_on_c, 0, 66, 63
1, 64076, Note_on_c, 0, 57, 49
1, 64270, Note_off_c, 0, 66, 62
1, 64279, Note_on_c, 0, 72, 66
1, 64318, Control_c, 0, 64, 36
1, 64333, Control_c, 0, 64, 33
1, 64348, Control_c, 0, 64, 26
1, 64363, Control_c, 0, 64, 16
1, 64378, Control_c, 0, 64, 10
1, 64466, Control_c, 0, 64, 16
1, 64470, Note_off_c, 0, 57, 63
1, 64477, Note_off_c, 0, 72, 62
1, 64481, Control_c, 0, 64, 25
1, 64487, Note_on_c, 0, 71, 59
1, 64489, Note_on_c, 0, 55, 58
1, 64496, Control_c, 0, 64, 32
1, 64510, Control_c, 0, 64, 37
1, 64525, Control_c, 0, 64, 41
1, 64540, Control_c, 0, 64, 44
1, 64555, Control_c, 0, 64, 46
1, 64569, Control_c, 0, 64, 49
1, 64581, Note_off_c, 0, 55, 63
1, 64584, Control_c, 0, 64, 51
1, 64590, Note_on_c, 0, 59, 67
1, 64600, Control_c, 0, 64, 52
1, 64614, Control_c, 0, 64, 54
1, 64629, Control_c, 0, 64, 55
1, 64677, Note_on_c, 0, 60, 76
1, 64695, Note_off_c, 0, 59, 62
1, 64711, Control_c, 0, 64, 54
1, 64726, Control_c, 0, 64, 53
1, 64741, Control_c, 0, 64, 51
1, 64755, Control_c, 0, 64, 49
1, 64770, Control_c, 0, 64, 47
1, 64777, Note_off_c, 0, 60, 65
1, 64781, Note_on_c, 0, 62, 78
1, 64785, Control_c, 0, 64, 45
1, 64800, Control_c, 0, 64, 43
1, 64815, Control_c, 0, 64, 41
1, 64829, Control_c, 0, 64, 40
1, 64844, Control_c, 0, 64, 39
1, 64859, Control_c, 0, 64, 39
1, 64885, Note_off_c, 0, 62, 63
1, 64888, Control_c, 0, 64, 38
1, 64889, Note_on_c, 0, 79, 71
1, 64900, Note_on_c, 0, 64, 73
1, 64900, Note_off_c, 0, 71, 37
1, 64918, Control_c, 0, 64, 38
1, 65066, Control_c, 0, 64, 37
1, 65098, Note_on_c, 0, 58, 76
1, 65120, Note_off_c, 0, 64, 56
1, 65294, Note_on_c, 0, 77, 67
1, 65295, Note_on_c, 0, 57, 70
1, 65298, Note_off_c, 0, 79, 58
1, 65304, Note_off_c, 0, 58, 62
1, 65519, Note_off_c, 0, 57, 54
1, 65523, Note_on_c, 0, 62, 75
1, 65720, Note_on_c, 0, 61, 67
1, 65729, Note_off_c, 0, 62, 55
1, 65729, Note_off_c, 0, 77, 60
1, 65732, Note_on_c, 0, 76, 66
1, 65939, Note_off_c, 0, 61, 60
1, 65943, Note_on_c, 0, 55, 70
1, 66150, Note_on_c, 0, 74, 62
1, 66150, Note_off_c, 0, 76, 60
1, 66238, Note_off_c, 0, 55, 53
1, 66269, Note_on_c, 0, 67, 68
1, 66367, Note_on_c, 0, 65, 76
1, 66373, Note_off_c, 0, 67, 64
1, 66464, Note_on_c, 0, 64, 71
1, 66487, Note_off_c, 0, 65, 59
1, 66558, Note_off_c, 0, 64, 62
1, 66558, Note_on_c, 0, 77, 69
1, 66571, Note_on_c, 0, 62, 66
1, 66576, Note_off_c, 0, 74, 58
1, 66770, Note_off_c, 0, 62, 64
1, 66774, Note_on_c, 0, 68, 79
1, 66974, Note_off_c, 0, 68, 60
1, 66985, Note_on_c, 0, 76, 69
1, 66989, Note_off_c, 0, 77, 59
1, 66990, Note_on_c, 0, 69, 72
1, 67190, Note_off_c, 0, 69, 56
1, 67202, Note_on_c, 0, 60, 72
1, 67398, Note_off_c, 0, 60, 60
1, 67403, Note_on_c, 0, 59, 64
1, 67415, Note_off_c, 0, 76, 61
1, 67418, Note_on_c, 0, 74, 68
1, 67592, Note_off_c, 0, 59, 59
1, 67623, Note_on_c, 0, 65, 58
1, 67823, Note_off_c, 0, 65, 58
1, 67831, Note_on_c, 0, 64, 53
1, 67916, Note_off_c, 0, 64, 58
1, 67932, Note_on_c, 0, 62, 65
1, 68008, Note_off_c, 0, 62, 62
1, 68021, Note_on_c, 0, 60, 72
1, 68104, Note_off_c, 0, 60, 63
1, 68108, Note_on_c, 0, 59, 78
1, 68219, Note_on_c, 0, 57, 71
1, 68227, Note_off_c, 0, 74, 61
1, 68227, Note_off_c, 0, 59, 60
1, 68239, Note_on_c, 0, 72, 69
1, 68411, Note_off_c, 0, 57, 63
1, 68413, Note_off_c, 0, 72, 64
1, 68423, Note_on_c, 0, 71, 71
1, 68427, Note_on_c, 0, 56, 72
1, 68635, Note_off_c, 0, 71, 53
1, 68638, Note_off_c, 0, 56, 63
1, 68641, Note_on_c, 0, 57, 67
1, 68641, Note_on_c, 0, 72, 71
1, 68766, Control_c, 0, 64, 37
1, 68853, Note_on_c, 0, 53, 68
1, 68857, Note_off_c, 0, 57, 61
1, 69052, Note_on_c, 0, 73, 68
1, 69053, Note_off_c, 0, 53, 63
1, 69057, Note_on_c, 0, 52, 67
1, 69070, Note_off_c, 0, 72, 54
1, 69267, Note_off_c, 0, 52, 63
1, 69276, Note_on_c, 0, 58, 73
1, 69477, Note_off_c, 0, 58, 58
1, 69481, Note_on_c, 0, 59, 70
1, 69484, Note_on_c, 0, 74, 66
1, 69496, Note_off_c, 0, 73, 65
1, 69679, Note_on_c, 0, 55, 75
1, 69687, Note_off_c, 0, 59, 62
1, 69871, Note_off_c, 0, 74, 60
1, 69893, Note_on_c, 0, 75, 71
1, 69893, Note_off_c, 0, 55, 64
1, 69899, Note_on_c, 0, 54, 70
1, 70115, Control_c, 0, 64, 37
1, 70118, Note_on_c, 0, 60, 76
1, 70147, Note_off_c, 0, 54, 47
1, 70281, Note_off_c, 0, 75, 61
1, 70305, Note_on_c, 0, 76, 75
1, 70397, Control_c, 0, 64, 38
1, 70532, Note_on_c, 0, 59, 68
1, 70538, Note_off_c, 0, 60, 58
1, 70740, Note_on_c, 0, 78, 77
1, 70752, Note_off_c, 0, 76, 57
1, 70957, Note_on_c, 0, 57, 57
1, 70960, Note_off_c, 0, 59, 55
1, 71149, Note_on_c, 0, 79, 59
1, 71151, Note_off_c, 0, 78, 58
1, 71152, Note_on_c, 0, 64, 49
1, 71160, Note_off_c, 0, 57, 54
1, 71259, Note_on_c, 0, 77, 76
1, 71270, Note_off_c, 0, 79, 58
1, 71354, Note_on_c, 0, 76, 77
1, 71385, Note_off_c, 0, 77, 51
1, 71452, Note_off_c, 0, 76, 65
1, 71457, Note_on_c, 0, 74, 75
1, 71554, Note_off_c, 0, 74, 61
1, 71565, Note_on_c, 0, 73, 78
1, 71568, Note_on_c, 0, 52, 56
1, 71610, Note_off_c, 0, 64, 34
1, 71765, Note_on_c, 0, 80, 80
1, 71801, Note_off_c, 0, 73, 60
1, 71924, Control_c, 0, 64, 37
1, 71985, Note_on_c, 0, 81, 70
1, 71986, Note_on_c, 0, 53, 52
1, 72028, Note_off_c, 0, 52, 37
1, 72029, Note_off_c, 0, 80, 50
1, 72146, Control_c, 0, 64, 37
1, 72198, Control_c, 0, 64, 36
1, 72207, Note_on_c, 0, 75, 83
1, 72213, Control_c, 0, 64, 36
1, 72227, Control_c, 0, 64, 35
1, 72230, Note_off_c, 0, 81, 61
1, 72272, Control_c, 0, 64, 35
1, 72331, Control_c, 0, 64, 34
1, 72404, Note_off_c, 0, 75, 62
1, 72414, Note_on_c, 0, 74, 77
1, 72418, Note_on_c, 0, 54, 55
1, 72435, Control_c, 0, 64, 34
1, 72439, Note_off_c, 0, 53, 55
1, 72479, Control_c, 0, 64, 33
1, 72553, Control_c, 0, 64, 33
1, 72584, Control_c, 0, 64, 32
1, 72619, Note_on_c, 0, 82, 82
1, 72654, Note_off_c, 0, 74, 58
1, 72658, Control_c, 0, 64, 32
1, 72810, Note_off_c, 0, 54, 61
1, 72832, Note_on_c, 0, 55, 55
1, 72832, Note_on_c, 0, 83, 78
1, 72832, Note_off_c, 0, 82, 61
1, 73035, Control_c, 0, 64, 31
1, 73057, Note_on_c, 0, 77, 83
1, 73062, Note_off_c, 0, 83, 62
1, 73199, Control_c, 0, 64, 31
1, 73271, Note_on_c, 0, 56, 57
1, 73278, Note_off_c, 0, 77, 64
1, 73279, Note_on_c, 0, 76, 78
1, 73294, Note_off_c, 0, 55, 44
1, 73377, Control_c, 0, 64, 30
1, 73489, Note_off_c, 0, 76, 62
1, 73502, Note_on_c, 0, 74, 78
1, 73706, Note_on_c, 0, 57, 62
1, 73735, Note_off_c, 0, 56, 52
1, 73927, Note_on_c, 0, 72, 65
1, 73927, Note_off_c, 0, 74, 61
1, 74125, Note_on_c, 0, 59, 60
1, 74127, Note_off_c, 0, 57, 56
1, 74349, Control_c, 0, 64, 29
1, 74364, Control_c, 0, 64, 24
1, 74368, Note_on_c, 0, 71, 62
1, 74369, Note_off_c, 0, 72, 55
1, 74379, Control_c, 0, 64, 16
1, 74394, Control_c, 0, 64, 14
1, 74408, Control_c, 0, 64, 12
1, 74548, Note_off_c, 0, 59, 59
1, 74555, Note_on_c, 0, 60, 57
1, 74761, Note_off_c, 0, 71, 63
1, 74784, Note_on_c, 0, 69, 64
1, 74860, Note_off_c, 0, 69, 52
1, 74872, Note_on_c, 0, 71, 71
1, 74957, Note_off_c, 0, 71, 59
1, 74976, Note_on_c, 0, 57, 58
1, 74979, Note_on_c, 0, 72, 70
1, 74982, Note_off_c, 0, 60, 60
1, 75158, Note_off_c, 0, 72, 64
1, 75184, Note_on_c, 0, 63, 74
1, 75389, Note_off_c, 0, 63, 62
1, 75393, Note_on_c, 0, 55, 52
1, 75402, Note_off_c, 0, 57, 57
1, 75408, Note_on_c, 0, 64, 69
1, 75616, Note_on_c, 0, 73, 69
1, 75629, Note_off_c, 0, 64, 45
1, 75802, Note_off_c, 0, 55, 60
1, 75808, Note_off_c, 0, 73, 60
1, 75819, Note_on_c, 0, 53, 52
1, 75819, Note_on_c, 0, 74, 63
1, 75994, Note_off_c, 0, 74, 61
1, 76022, Note_on_c, 0, 65, 60
1, 76046, Control_c, 0, 64, 10
1, 76198, Note_off_c, 0, 53, 60
1, 76202, Note_off_c, 0, 65, 58
1, 76214, Note_on_c, 0, 52, 52
1, 76217, Note_on_c, 0, 67, 57
1, 76312, Note_on_c, 0, 53, 73
1, 76317, Note_off_c, 0, 52, 62
1, 76409, Note_on_c, 0, 55, 73
1, 76426, Note_off_c, 0, 53, 61
1, 76503, Note_off_c, 0, 55, 65
1, 76507, Note_on_c, 0, 57, 79
1, 76631, Note_on_c, 0, 58, 78
1, 76633, Note_off_c, 0, 57, 63
1, 76635, Note_on_c, 0, 74, 65
1, 76648, Note_off_c, 0, 67, 54
1, 76858, Note_on_c, 0, 53, 73
1, 76875, Note_off_c, 0, 58, 59
1, 77053, Note_off_c, 0, 74, 64
1, 77061, Note_on_c, 0, 73, 65
1, 77070, Note_on_c, 0, 52, 69
1, 77091, Note_off_c, 0, 53, 60
1, 77268, Note_off_c, 0, 52, 63
1, 77279, Note_on_c, 0, 57, 74
1, 77485, Note_on_c, 0, 70, 57
1, 77485, Note_off_c, 0, 73, 60
1, 77495, Note_on_c, 0, 55, 63
1, 77501, Note_off_c, 0, 57, 57
1, 77692, Note_off_c, 0, 55, 61
1, 77696, Note_on_c, 0, 50, 70
1, 77913, Note_on_c, 0, 49, 62
1, 77914, Note_off_c, 0, 50, 57
1, 78010, Note_on_c, 0, 69, 63
1, 78052, Note_off_c, 0, 70, 39
1, 78080, Note_off_c, 0, 69, 64
1, 78100, Note_on_c, 0, 67, 68
1, 78182, Note_off_c, 0, 67, 51
1, 78201, Note_on_c, 0, 69, 80
1, 78318, Note_off_c, 0, 69, 61
1, 78323, Note_off_c, 0, 49, 37
1, 78327, Note_on_c, 0, 70, 73
1, 78338, Note_on_c, 0, 55, 55
1, 78529, Note_on_c, 0, 61, 69
1, 78529, Note_off_c, 0, 70, 57
1, 78713, Note_off_c, 0, 61, 61
1, 78743, Note_off_c, 0, 55, 60
1, 78745, Note_on_c, 0, 62, 67
1, 78759, Note_on_c, 0, 53, 51
1, 78954, Note_on_c, 0, 71, 71
1, 78954, Note_off_c, 0, 62, 49
1, 79150, Note_off_c, 0, 53, 61
1, 79153, Note_off_c, 0, 71, 61
1, 79163, Note_on_c, 0, 72, 72
1, 79165, Note_on_c, 0, 52, 48
1, 79352, Note_off_c, 0, 72, 59
1, 79362, Note_on_c, 0, 64, 63
1, 79561, Note_off_c, 0, 52, 63
1, 79575, Note_off_c, 0, 64, 58
1, 79578, Note_on_c, 0, 66, 58
1, 79583, Note_on_c, 0, 50, 55
1, 79683, Note_on_c, 0, 52, 69
1, 79685, Note_off_c, 0, 50, 61
1, 79776, Note_on_c, 0, 54, 76
1, 79782, Note_off_c, 0, 52, 65
1, 79877, Note_off_c, 0, 54, 65
1, 79878, Note_on_c, 0, 55, 77
1, 79973, Note_off_c, 0, 55, 63
1, 79984, Note_on_c, 0, 57, 72
1, 79999, Note_on_c, 0, 72, 64
1, 80003, Note_off_c, 0, 66, 56
1, 80192, Note_on_c, 0, 51, 73
1, 80214, Note_off_c, 0, 57, 42
1, 80404, Note_on_c, 0, 50, 60
1, 80409, Note_off_c, 0, 51, 62
1, 80423, Note_on_c, 0, 71, 69
1, 80433, Note_off_c, 0, 72, 56
1, 80613, Note_off_c, 0, 50, 63
1, 80622, Note_on_c, 0, 55, 63
1, 80817, Note_off_c, 0, 55, 56
1, 80818, Note_on_c, 0, 54, 60
1, 80831, Note_on_c, 0, 69, 62
1, 80842, Note_off_c, 0, 71, 55
1, 81003, Note_off_c, 0, 54, 64
1, 81012, Note_on_c, 0, 48, 62
1, 81236, Note_on_c, 0, 47, 60
1, 81272, Note_off_c, 0, 48, 47
1, 81352, Note_off_c, 0, 69, 59
1, 81361, Note_on_c, 0, 67, 72
1, 81476, Note_on_c, 0, 69, 79
1, 81515, Note_off_c, 0, 67, 63
1, 81560, Note_off_c, 0, 69, 67
1, 81573, Note_on_c, 0, 71, 81
1, 81692, Note_off_c, 0, 71, 64
1, 81698, Note_on_c, 0, 72, 80
1, 81708, Note_on_c, 0, 52, 57
1, 81744, Note_off_c, 0, 47, 53
1, 81945, Note_on_c, 0, 67, 77
1, 81945, Note_off_c, 0, 72, 61
1, 82152, Note_on_c, 0, 66, 75
1, 82153, Note_off_c, 0, 67, 63
1, 82155, Note_on_c, 0, 51, 57
1, 82188, Note_off_c, 0, 52, 40
1, 82360, Note_on_c, 0, 70, 78
1, 82361, Note_off_c, 0, 66, 61
1, 82559, Note_off_c, 0, 70, 59
1, 82566, Note_on_c, 0, 71, 72
1, 82570, Note_on_c, 0, 50, 49
1, 82577, Note_off_c, 0, 51, 53
1, 82786, Note_on_c, 0, 65, 73
1, 82794, Note_off_c, 0, 71, 57
1, 82994, Note_off_c, 0, 50, 53
1, 82997, Note_on_c, 0, 49, 46
1, 83006, Note_off_c, 0, 65, 59
1, 83007, Note_on_c, 0, 64, 69
1, 83196, Note_off_c, 0, 64, 56
1, 83203, Note_on_c, 0, 68, 71
1, 83388, Note_off_c, 0, 49, 64
1, 83403, Note_off_c, 0, 68, 61
1, 83421, Note_on_c, 0, 69, 67
1, 83430, Note_on_c, 0, 48, 43
1, 83624, Note_off_c, 0, 69, 59
1, 83635, Note_on_c, 0, 63, 73
1, 83859, Note_on_c, 0, 47, 58
1, 83874, Note_off_c, 0, 48, 57
1, 84061, Note_on_c, 0, 64, 68
1, 84082, Note_off_c, 0, 63, 56
1, 84303, Note_on_c, 0, 45, 63
1, 84310, Note_off_c, 0, 47, 58
1, 84482, Note_on_c, 0, 66, 60
1, 84483, Note_off_c, 0, 64, 58
1, 84679, Note_off_c, 0, 66, 53
1, 84697, Control_c, 0, 64, 12
1, 84698, Note_on_c, 0, 59, 60
1, 84712, Control_c, 0, 64, 15
1, 84727, Control_c, 0, 64, 19
1, 84742, Control_c, 0, 64, 24
1, 84756, Control_c, 0, 64, 27
1, 84771, Control_c, 0, 64, 31
1, 84786, Control_c, 0, 64, 35
1, 84801, Control_c, 0, 64, 39
1, 84807, Note_on_c, 0, 48, 68
1, 84807, Note_off_c, 0, 45, 61
1, 84816, Control_c, 0, 64, 42
1, 84831, Control_c, 0, 64, 44
1, 84846, Control_c, 0, 64, 46
1, 84861, Control_c, 0, 64, 48
1, 84872, Note_off_c, 0, 59, 63
1, 84875, Control_c, 0, 64, 50
1, 84890, Control_c, 0, 64, 52
1, 84905, Control_c, 0, 64, 52
1, 84919, Note_on_c, 0, 47, 70
1, 84927, Control_c, 0, 64, 53
1, 84932, Note_off_c, 0, 48, 62
1, 85001, Control_c, 0, 64, 52
1, 85002, Note_on_c, 0, 45, 71
1, 85008, Note_off_c, 0, 47, 64
1, 85016, Control_c, 0, 64, 50
1, 85030, Control_c, 0, 64, 49
1, 85045, Control_c, 0, 64, 47
1, 85060, Control_c, 0, 64, 45
1, 85075, Control_c, 0, 64, 43
1, 85090, Control_c, 0, 64, 41
1, 85105, Note_off_c, 0, 45, 63
1, 85105, Control_c, 0, 64, 39
1, 85109, Note_on_c, 0, 76, 69
1, 85117, Note_on_c, 0, 44, 67
1, 85120, Control_c, 0, 64, 38
1, 85134, Control_c, 0, 64, 37
1, 85149, Control_c, 0, 64, 36
1, 85164, Control_c, 0, 64, 35
1, 85179, Control_c, 0, 64, 34
1, 85194, Control_c, 0, 64, 33
1, 85208, Control_c, 0, 64, 33
1, 85238, Control_c, 0, 64, 32
1, 85331, Note_on_c, 0, 49, 66
1, 85331, Note_off_c, 0, 44, 65
1, 85511, Note_off_c, 0, 76, 57
1, 85531, Note_on_c, 0, 77, 67
1, 85534, Note_off_c, 0, 49, 63
1, 85543, Note_on_c, 0, 50, 68
1, 85758, Note_on_c, 0, 46, 73
1, 85773, Note_off_c, 0, 50, 54
1, 85952, Note_off_c, 0, 46, 63
1, 85953, Note_on_c, 0, 45, 62
1, 85956, Note_on_c, 0, 78, 69
1, 85991, Note_off_c, 0, 77, 47
1, 86105, Control_c, 0, 64, 32
1, 86169, Note_on_c, 0, 51, 75
1, 86170, Note_off_c, 0, 45, 65
1, 86180, Control_c, 0, 64, 31
1, 86210, Control_c, 0, 64, 31
1, 86254, Control_c, 0, 64, 30
1, 86328, Control_c, 0, 64, 30
1, 86378, Note_on_c, 0, 79, 70
1, 86385, Note_off_c, 0, 51, 63
1, 86388, Note_on_c, 0, 52, 69
1, 86417, Note_off_c, 0, 78, 63
1, 86455, Control_c, 0, 64, 29
1, 86586, Note_on_c, 0, 48, 75
1, 86592, Note_off_c, 0, 52, 64
1, 86778, Note_off_c, 0, 79, 63
1, 86780, Control_c, 0, 64, 29
1, 86789, Note_on_c, 0, 80, 78
1, 86806, Note_on_c, 0, 47, 67
1, 86810, Control_c, 0, 64, 28
1, 86811, Note_off_c, 0, 48, 61
1, 86825, Control_c, 0, 64, 27
1, 86855, Control_c, 0, 64, 26
1, 86884, Control_c, 0, 64, 26
1, 86914, Control_c, 0, 64, 25
1, 86943, Control_c, 0, 64, 24
1, 86974, Control_c, 0, 64, 24
1, 86989, Control_c, 0, 64, 23
1, 87009, Note_off_c, 0, 47, 62
1, 87015, Note_on_c, 0, 53, 77
1, 87018, Control_c, 0, 64, 22
1, 87048, Control_c, 0, 64, 21
1, 87077, Control_c, 0, 64, 20
1, 87207, Note_off_c, 0, 80, 60
1, 87209, Note_on_c, 0, 81, 73
1, 87418, Note_on_c, 0, 52, 71
1, 87430, Note_off_c, 0, 53, 62
1, 87628, Note_on_c, 0, 83, 75
1, 87666, Note_off_c, 0, 81, 60
1, 87828, Note_on_c, 0, 50, 71
1, 87829, Note_off_c, 0, 52, 64
1, 88044, Note_off_c, 0, 50, 63
1, 88062, Note_on_c, 0, 48, 66
1, 88263, Control_c, 0, 64, 19
1, 88274, Note_off_c, 0, 83, 60
1, 88280, Note_on_c, 0, 81, 68
1, 88366, Note_off_c, 0, 81, 65
1, 88371, Note_on_c, 0, 83, 80
1, 88445, Note_off_c, 0, 83, 62
1, 88462, Note_on_c, 0, 84, 76
1, 88470, Note_on_c, 0, 52, 54
1, 88530, Note_off_c, 0, 48, 37
1, 88564, Note_off_c, 0, 84, 65
1, 88685, Note_on_c, 0, 76, 74
1, 88904, Note_on_c, 0, 54, 64
1, 88920, Note_off_c, 0, 52, 55
1, 89103, Note_on_c, 0, 75, 75
1, 89140, Note_off_c, 0, 76, 55
1, 89230, Note_off_c, 0, 75, 64
1, 89311, Note_on_c, 0, 83, 78
1, 89317, Note_on_c, 0, 56, 53
1, 89348, Note_off_c, 0, 54, 59
1, 89515, Note_off_c, 0, 83, 54
1, 89524, Note_on_c, 0, 74, 68
1, 89704, Note_off_c, 0, 56, 64
1, 89722, Note_on_c, 0, 57, 62
1, 89771, Note_off_c, 0, 74, 58
1, 89821, Note_on_c, 0, 72, 74
1, 89910, Note_on_c, 0, 74, 74
1, 89925, Note_off_c, 0, 72, 63
1, 89986, Note_off_c, 0, 74, 63
1, 89992, Note_on_c, 0, 76, 75
1, 90092, Note_off_c, 0, 76, 64
1, 90098, Note_on_c, 0, 77, 80
1, 90119, Note_on_c, 0, 45, 52
1, 90120, Note_off_c, 0, 57, 55
1, 90190, Note_off_c, 0, 77, 64
1, 90341, Note_on_c, 0, 69, 73
1, 90550, Note_off_c, 0, 45, 59
1, 90560, Note_on_c, 0, 47, 59
1, 90765, Note_off_c, 0, 69, 57
1, 90769, Note_on_c, 0, 68, 70
1, 90987, Note_off_c, 0, 47, 57
1, 90989, Note_off_c, 0, 68, 63
1, 90990, Note_on_c, 0, 49, 51
1, 90993, Note_on_c, 0, 76, 68
1, 91152, Note_off_c, 0, 76, 59
1, 91189, Note_on_c, 0, 67, 66
1, 91389, Note_off_c, 0, 49, 60
1, 91407, Note_on_c, 0, 50, 61
1, 91460, Note_off_c, 0, 67, 56
1, 91499, Note_on_c, 0, 65, 67
1, 91594, Note_on_c, 0, 67, 75
1, 91606, Note_off_c, 0, 65, 60
1, 91680, Note_off_c, 0, 67, 62
1, 91688, Note_on_c, 0, 69, 76
1, 91799, Note_on_c, 0, 70, 75
1, 91799, Note_off_c, 0, 69, 61
1, 91813, Note_on_c, 0, 38, 48
1, 91849, Note_off_c, 0, 50, 39
1, 92015, Note_on_c, 0, 62, 74
1, 92029, Note_off_c, 0, 70, 59
1, 92233, Note_off_c, 0, 38, 58
1, 92236, Note_on_c, 0, 40, 59
1, 92421, Note_off_c, 0, 62, 60
1, 92432, Note_on_c, 0, 61, 71
1, 92642, Note_off_c, 0, 61, 54
1, 92658, Note_on_c, 0, 69, 67
1, 92666, Note_on_c, 0, 52, 51
1, 92739, Note_off_c, 0, 40, 37
1, 92828, Note_off_c, 0, 69, 39
1, 92882, Note_on_c, 0, 60, 73
1, 93091, Note_on_c, 0, 51, 64
1, 93100, Note_off_c, 0, 52, 55
1, 93255, Note_off_c, 0, 60, 50
1, 93301, Note_on_c, 0, 59, 70
1, 93515, Note_on_c, 0, 50, 44
1, 93515, Note_on_c, 0, 68, 69
1, 93526, Note_off_c, 0, 51, 50
1, 93533, Note_off_c, 0, 59, 39
1, 93714, Note_off_c, 0, 68, 37
1, 93718, Note_on_c, 0, 59, 71
1, 93947, Note_on_c, 0, 49, 52
1, 93960, Note_off_c, 0, 50, 55
1, 94140, Note_on_c, 0, 57, 63
1, 94146, Note_off_c, 0, 59, 37
1, 94305, Note_off_c, 0, 57, 59
1, 94340, Note_off_c, 0, 49, 62
1, 94358, Note_on_c, 0, 65, 64
1, 94364, Note_on_c, 0, 48, 45
1, 94509, Note_off_c, 0, 65, 56
1, 94567, Note_on_c, 0, 57, 64
1, 94799, Note_off_c, 0, 48, 57
1, 94804, Note_on_c, 0, 47, 43
1, 95021, Note_off_c, 0, 57, 57
1, 95037, Note_on_c, 0, 56, 60
1, 95124, Note_off_c, 0, 56, 64
1, 95133, Note_on_c, 0, 54, 62
1, 95184, Note_off_c, 0, 47, 57
1, 95234, Note_off_c, 0, 54, 62
1, 95237, Note_on_c, 0, 47, 37
1, 95252, Note_on_c, 0, 56, 63
1, 95414, Note_off_c, 0, 56, 56
1, 95471, Note_on_c, 0, 62, 70
1, 95498, Control_c, 0, 64, 20
1, 95684, Note_on_c, 0, 45, 58
1, 95710, Note_off_c, 0, 47, 41
1, 95772, Note_off_c, 0, 62, 39
1, 95773, Note_on_c, 0, 60, 73
1, 95864, Note_off_c, 0, 60, 65
1, 95875, Note_on_c, 0, 59, 75
1, 95946, Note_off_c, 0, 59, 63
1, 95962, Note_on_c, 0, 57, 72
1, 96017, Note_off_c, 0, 45, 60
1, 96049, Note_off_c, 0, 57, 64
1, 96066, Note_on_c, 0, 59, 74
1, 96081, Note_on_c, 0, 45, 60
1, 96173, Note_off_c, 0, 59, 64
1, 96279, Note_on_c, 0, 65, 84
1, 96320, Control_c, 0, 64, 19
1, 96350, Control_c, 0, 64, 20
1, 96394, Control_c, 0, 64, 19
1, 96424, Control_c, 0, 64, 20
1, 96471, Note_on_c, 0, 44, 67
1, 96483, Control_c, 0, 64, 19
1, 96494, Note_off_c, 0, 45, 44
1, 96498, Control_c, 0, 64, 20
1, 96573, Control_c, 0, 64, 19
1, 96594, Note_on_c, 0, 64, 76
1, 96603, Control_c, 0, 64, 20
1, 96612, Note_off_c, 0, 65, 47
1, 96677, Note_off_c, 0, 64, 64
1, 96681, Note_on_c, 0, 62, 78
1, 96767, Note_off_c, 0, 62, 64
1, 96773, Note_on_c, 0, 61, 76
1, 96811, Note_off_c, 0, 44, 62
1, 96838, Note_off_c, 0, 61, 54
1, 96870, Note_on_c, 0, 62, 78
1, 96879, Note_on_c, 0, 44, 67
1, 96987, Note_off_c, 0, 62, 64
1, 97083, Note_on_c, 0, 71, 86
1, 97294, Note_on_c, 0, 40, 65
1, 97372, Note_off_c, 0, 44, 36
1, 97401, Note_on_c, 0, 69, 79
1, 97405, Note_off_c, 0, 71, 54
1, 97495, Note_off_c, 0, 69, 64
1, 97499, Note_on_c, 0, 68, 85
1, 97577, Note_off_c, 0, 68, 62
1, 97592, Note_on_c, 0, 66, 78
1, 97619, Note_off_c, 0, 40, 62
1, 97693, Note_off_c, 0, 66, 61
1, 97699, Note_on_c, 0, 68, 80
1, 97707, Note_on_c, 0, 40, 60
1, 97892, Note_off_c, 0, 68, 58
1, 97945, Note_on_c, 0, 74, 83
1, 98185, Note_off_c, 0, 40, 53
1, 98187, Note_on_c, 0, 45, 63
1, 98458, Note_on_c, 0, 72, 71
1, 98461, Note_off_c, 0, 74, 51
1, 98543, Note_on_c, 0, 71, 75
1, 98553, Control_c, 0, 64, 21
1, 98559, Note_off_c, 0, 72, 60
1, 98625, Note_off_c, 0, 71, 60
1, 98641, Note_on_c, 0, 72, 82
1, 98743, Note_on_c, 0, 50, 73
1, 98744, Note_off_c, 0, 45, 61
1, 98818, Note_off_c, 0, 72, 58
1, 98823, Note_on_c, 0, 52, 69
1, 98835, Note_on_c, 0, 69, 73
1, 98847, Note_off_c, 0, 50, 63
1, 98919, Note_on_c, 0, 54, 80
1, 98924, Note_off_c, 0, 52, 66
1, 99009, Note_off_c, 0, 54, 63
1, 99018, Note_on_c, 0, 55, 72
1, 99039, Note_off_c, 0, 69, 61
1, 99044, Note_on_c, 0, 70, 75
1, 99250, Note_on_c, 0, 51, 76
1, 99267, Note_off_c, 0, 55, 61
1, 99474, Note_off_c, 0, 51, 56
1, 99476, Note_on_c, 0, 50, 62
1, 99476, Note_on_c, 0, 71, 73
1, 99500, Note_off_c, 0, 70, 53
1, 99684, Note_off_c, 0, 50, 62
1, 99686, Note_on_c, 0, 56, 73
1, 99887, Note_on_c, 0, 57, 71
1, 99898, Note_off_c, 0, 56, 57
1, 99907, Note_on_c, 0, 72, 72
1, 99925, Note_off_c, 0, 71, 61
1, 100105, Note_on_c, 0, 53, 78
1, 100108, Note_off_c, 0, 57, 63
1, 100311, Note_off_c, 0, 72, 58
1, 100316, Note_on_c, 0, 73, 78
1, 100318, Note_off_c, 0, 53, 61
1, 100320, Note_on_c, 0, 52, 72
1, 100509, Note_off_c, 0, 52, 64
1, 100520, Note_on_c, 0, 58, 83
1, 100720, Note_off_c, 0, 73, 64
1, 100740, Note_on_c, 0, 74, 78
1, 100949, Note_on_c, 0, 57, 76
1, 100954, Note_off_c, 0, 58, 63
1, 101166, Note_on_c, 0, 76, 77
1, 101188, Note_off_c, 0, 74, 59
1, 101388, Note_on_c, 0, 55, 71
1, 101405, Note_off_c, 0, 57, 55
1, 101613, Note_on_c, 0, 53, 68
1, 101613, Note_off_c, 0, 55, 59
1, 101752, Note_on_c, 0, 52, 62
1, 101754, Note_off_c, 0, 76, 58
1, 101757, Note_on_c, 0, 73, 70
1, 101758, Note_off_c, 0, 53, 63
1, 101849, Note_off_c, 0, 73, 64
1, 101861, Note_off_c, 0, 52, 65
1, 101861, Note_on_c, 0, 74, 77
1, 101863, Note_on_c, 0, 53, 65
1, 101938, Note_off_c, 0, 53, 63
1, 101944, Note_on_c, 0, 55, 69
1, 101946, Note_on_c, 0, 76, 80
1, 101959, Note_off_c, 0, 74, 64
1, 102040, Note_off_c, 0, 55, 64
1, 102041, Note_off_c, 0, 76, 64
1, 102049, Note_on_c, 0, 77, 81
1, 102058, Note_on_c, 0, 57, 68
1, 102272, Note_on_c, 0, 72, 86
1, 102282, Note_off_c, 0, 77, 56
1, 102479, Note_on_c, 0, 56, 64
1, 102481, Note_on_c, 0, 71, 81
1, 102481, Note_off_c, 0, 72, 61
1, 102481, Note_off_c, 0, 57, 58
1, 102683, Note_on_c, 0, 75, 85
1, 102708, Note_off_c, 0, 71, 58
1, 102900, Note_on_c, 0, 76, 77
1, 102900, Note_off_c, 0, 75, 58
1, 102910, Note_on_c, 0, 55, 59
1, 102933, Note_off_c, 0, 56, 56
1, 103113, Note_on_c, 0, 70, 76
1, 103115, Note_off_c, 0, 76, 57
1, 103320, Note_off_c, 0, 55, 60
1, 103325, Note_off_c, 0, 70, 65
1, 103333, Note_on_c, 0, 54, 58
1, 103336, Note_on_c, 0, 69, 75
1, 103544, Note_on_c, 0, 73, 71
1, 103554, Note_off_c, 0, 69, 53
1, 103748, Note_off_c, 0, 54, 63
1, 103757, Note_off_c, 0, 73, 62
1, 103760, Note_on_c, 0, 74, 65
1, 103777, Note_on_c, 0, 53, 52
1, 103975, Note_on_c, 0, 68, 75
1, 103980, Note_off_c, 0, 74, 55
1, 104193, Note_on_c, 0, 52, 63
1, 104199, Note_off_c, 0, 53, 60
1, 104406, Note_on_c, 0, 69, 73
1, 104455, Note_off_c, 0, 68, 53
1, 104620, Note_on_c, 0, 50, 68
1, 104635, Note_off_c, 0, 52, 57
1, 104827, Note_on_c, 0, 71, 73
1, 104839, Control_c, 0, 64, 22
1, 104843, Note_off_c, 0, 69, 52
1, 105007, Note_off_c, 0, 71, 61
1, 105035, Note_on_c, 0, 64, 70
1, 105278, Note_off_c, 0, 64, 35
1, 105283, Note_off_c, 0, 50, 62
1, 105295, Note_on_c, 0, 48, 54
1, 105295, Note_on_c, 0, 76, 73
1, 105411, Note_on_c, 0, 47, 64
1, 105415, Note_off_c, 0, 48, 62
1, 105525, Note_off_c, 0, 47, 61
1, 105533, Note_on_c, 0, 48, 64
1, 105634, Note_off_c, 0, 76, 58
1, 105639, Note_on_c, 0, 74, 71
1, 105777, Note_off_c, 0, 48, 60
1, 105779, Note_on_c, 0, 45, 56
1, 105784, Note_off_c, 0, 74, 60
1, 105792, Note_on_c, 0, 72, 74
1, 105918, Note_off_c, 0, 72, 59
1, 105944, Note_on_c, 0, 71, 72
1, 106093, Note_off_c, 0, 45, 58
1, 106097, Note_on_c, 0, 52, 48
1, 106112, Note_off_c, 0, 71, 62
1, 106115, Note_on_c, 0, 74, 71
1, 106295, Note_off_c, 0, 74, 59
1, 106307, Note_on_c, 0, 72, 72
1, 106432, Note_off_c, 0, 72, 55
1, 106433, Note_on_c, 0, 71, 75
1, 106511, Note_off_c, 0, 71, 62
1, 106546, Note_on_c, 0, 69, 77
1, 106673, Note_off_c, 0, 69, 60
1, 106674, Note_on_c, 0, 72, 74
1, 106674, Note_off_c, 0, 52, 45
1, 106678, Note_on_c, 0, 40, 49
1, 106795, Note_off_c, 0, 72, 52
1, 106798, Note_on_c, 0, 71, 73
1, 106925, Note_off_c, 0, 71, 56
1, 106931, Note_on_c, 0, 69, 77
1, 107058, Note_off_c, 0, 69, 61
1, 107081, Note_on_c, 0, 68, 70
1, 107224, Poly_aftertouch_c, 0, 43, 127
1, 107230, Note_off_c, 0, 68, 59
1, 107259, Note_on_c, 0, 69, 66
1, 107265, Note_on_c, 0, 45, 47
1, 107289, Note_off_c, 0, 40, 42
1, 107324, Poly_aftertouch_c, 0, 43, 0
1, 107326, Note_off_c, 0, 69, 64
1, 107338, Note_on_c, 0, 68, 70
1, 107407, Note_off_c, 0, 68, 60
1, 107423, Note_on_c, 0, 69, 69
1, 107605, Note_on_c, 0, 47, 68
1, 107646, Note_off_c, 0, 45, 58
1, 107731, Note_on_c, 0, 48, 74
1, 107735, Note_off_c, 0, 47, 63
1, 107847, Note_off_c, 0, 48, 63
1, 107853, Note_on_c, 0, 50, 72
1, 107967, Note_off_c, 0, 50, 63
1, 107984, Note_on_c, 0, 52, 72
1, 108126, Note_on_c, 0, 54, 70
1, 108130, Note_off_c, 0, 52, 64
1, 108305, Note_on_c, 0, 56, 65
1, 108305, Note_off_c, 0, 54, 59
1, 108472, Note_off_c, 0, 56, 65
1, 108506, Note_on_c, 0, 57, 58
1, 108571, Note_off_c, 0, 57, 62
1, 108574, Note_on_c, 0, 56, 63
1, 108584, Control_c, 0, 64, 21
1, 108628, Note_off_c, 0, 56, 63
1, 108651, Note_on_c, 0, 57, 58
1, 108976, Control_c, 0, 64, 20
1, 109006, Control_c, 0, 64, 19
1, 109036, Control_c, 0, 64, 18
1, 109080, Control_c, 0, 64, 17
1, 109560, Note_on_c, 0, 45, 45
1, 109596, Note_off_c, 0, 57, 37
1, 111533, Note_off_c, 0, 45, 63
1, 111546, Note_off_c, 0, 69, 64
1, 112598, Note_on_c, 0, 64, 87
1, 112660, Note_on_c, 0, 65, 14
1, 112661, Note_off_c, 0, 65, 127
1, 113388, Note_off_c, 0, 64, 52
1, 113426, Note_on_c, 0, 60, 90
1, 114188, Note_off_c, 0, 60, 61
1, 114209, Note_on_c, 0, 65, 93
1, 114908, Note_off_c, 0, 65, 52
1, 114952, Note_on_c, 0, 56, 93
1, 116107, Note_off_c, 0, 56, 65
1, 116428, Note_on_c, 0, 62, 84
1, 116465, Note_off_c, 0, 62, 63
1, 116738, Note_on_c, 0, 59, 88
1, 116785, Note_off_c, 0, 59, 64
1, 117030, Note_on_c, 0, 64, 85
1, 117086, Note_off_c, 0, 64, 65
1, 117326, Note_on_c, 0, 60, 84
1, 117374, Note_off_c, 0, 60, 64
1, 117616, Note_on_c, 0, 57, 79
1, 117665, Note_off_c, 0, 57, 64
1, 117907, Note_on_c, 0, 69, 96
1, 117910, Note_on_c, 0, 54, 84
1, 117968, Note_off_c, 0, 54, 63
1, 118209, Note_on_c, 0, 63, 84
1, 118265, Note_off_c, 0, 63, 64
1, 118448, Note_off_c, 0, 69, 20
1, 118477, Note_on_c, 0, 52, 81
1, 118491, Note_on_c, 0, 67, 97
1, 118531, Note_off_c, 0, 52, 66
1, 118788, Note_on_c, 0, 64, 80
1, 118841, Note_off_c, 0, 64, 66
1, 118852, Note_on_c, 0, 62, 79
1, 118927, Note_on_c, 0, 60, 71
1, 118966, Note_off_c, 0, 62, 63
1, 118989, Note_on_c, 0, 59, 80
1, 118997, Note_off_c, 0, 67, 0
1, 119011, Note_off_c, 0, 60, 63
1, 119031, Note_on_c, 0, 67, 22
1, 119046, Note_off_c, 0, 59, 66
1, 119075, Note_off_c, 0, 67, 56
1, 119090, Note_on_c, 0, 57, 62
1, 119097, Note_on_c, 0, 72, 97
1, 119157, Note_off_c, 0, 57, 65
1, 119392, Note_on_c, 0, 60, 81
1, 119444, Note_off_c, 0, 60, 66
1, 119454, Note_on_c, 0, 59, 82
1, 119530, Note_on_c, 0, 57, 74
1, 119572, Note_off_c, 0, 59, 62
1, 119594, Note_on_c, 0, 55, 79
1, 119604, Note_off_c, 0, 57, 64
1, 119651, Note_off_c, 0, 55, 64
1, 119666, Control_c, 0, 64, 8
1, 119674, Note_off_c, 0, 72, 63
1, 119680, Note_on_c, 0, 63, 97
1, 119680, Control_c, 0, 64, 0
1, 119682, Note_on_c, 0, 54, 83
1, 119740, Note_off_c, 0, 54, 67
1, 119752, Note_on_c, 0, 55, 81
1, 119815, Note_off_c, 0, 55, 63
1, 119823, Note_on_c, 0, 57, 84
1, 120011, Note_off_c, 0, 57, 53
1, 120044, Note_on_c, 0, 55, 66
1, 120119, Note_on_c, 0, 54, 70
1, 120155, Note_off_c, 0, 55, 64
1, 120178, Note_on_c, 0, 52, 74
1, 120181, Note_off_c, 0, 54, 64
1, 120239, Note_off_c, 0, 52, 58
1, 120250, Note_on_c, 0, 51, 90
1, 120308, Note_off_c, 0, 51, 64
1, 120315, Note_on_c, 0, 52, 83
1, 120389, Note_off_c, 0, 52, 64
1, 120399, Note_on_c, 0, 54, 83
1, 120643, Note_off_c, 0, 54, 62
1, 120649, Note_on_c, 0, 52, 68
1, 120716, Note_on_c, 0, 51, 73
1, 120731, Note_off_c, 0, 63, 54
1, 120755, Note_off_c, 0, 52, 65
1, 120772, Note_off_c, 0, 51, 66
1, 120777, Note_on_c, 0, 49, 73
1, 120843, Note_on_c, 0, 47, 85
1, 120858, Note_off_c, 0, 49, 66
1, 121143, Note_on_c, 0, 69, 94
1, 121184, Note_off_c, 0, 69, 65
1, 121326, Note_off_c, 0, 47, 62
1, 121330, Note_on_c, 0, 49, 63
1, 121393, Note_on_c, 0, 51, 69
1, 121409, Note_off_c, 0, 49, 63
1, 121451, Note_off_c, 0, 51, 64
1, 121453, Note_on_c, 0, 52, 77
1, 121455, Note_on_c, 0, 66, 90
1, 121502, Note_off_c, 0, 66, 67
1, 121533, Note_off_c, 0, 52, 65
1, 121538, Note_on_c, 0, 51, 79
1, 121616, Note_off_c, 0, 51, 64
1, 121624, Note_on_c, 0, 52, 78
1, 121693, Note_off_c, 0, 52, 64
1, 121704, Note_on_c, 0, 51, 72
1, 121755, Note_on_c, 0, 71, 95
1, 121766, Note_off_c, 0, 51, 63
1, 121775, Note_on_c, 0, 52, 77
1, 121792, Note_off_c, 0, 71, 65
1, 121837, Note_on_c, 0, 51, 73
1, 121839, Note_off_c, 0, 52, 63
1, 121896, Note_off_c, 0, 51, 64
1, 121898, Note_on_c, 0, 49, 71
1, 121980, Note_on_c, 0, 51, 71
1, 121985, Note_off_c, 0, 49, 64
1, 122032, Note_off_c, 0, 51, 65
1, 122050, Note_on_c, 0, 52, 83
1, 122055, Note_on_c, 0, 67, 97
1, 122100, Note_off_c, 0, 67, 68
1, 122280, Note_off_c, 0, 52, 57
1, 122388, Note_on_c, 0, 64, 90
1, 122431, Note_off_c, 0, 64, 65
1, 122449, Note_on_c, 0, 52, 80
1, 122489, Note_off_c, 0, 52, 68
1, 122506, Note_on_c, 0, 53, 85
1, 122579, Note_off_c, 0, 53, 67
1, 122583, Note_on_c, 0, 55, 84
1, 122645, Note_off_c, 0, 55, 64
1, 122667, Note_on_c, 0, 57, 90
1, 122689, Note_on_c, 0, 61, 89
1, 122739, Note_off_c, 0, 61, 63
1, 122948, Note_off_c, 0, 57, 60
1, 123000, Note_on_c, 0, 69, 90
1, 123033, Note_off_c, 0, 69, 67
1, 123067, Note_on_c, 0, 55, 86
1, 123138, Note_off_c, 0, 55, 62
1, 123149, Note_on_c, 0, 53, 81
1, 123219, Note_on_c, 0, 52, 76
1, 123253, Note_off_c, 0, 53, 62
1, 123294, Note_on_c, 0, 50, 89
1, 123295, Note_off_c, 0, 52, 66
1, 123299, Note_on_c, 0, 65, 90
1, 123336, Note_off_c, 0, 65, 66
1, 123570, Note_off_c, 0, 50, 56
1, 123624, Note_on_c, 0, 62, 82
1, 123660, Note_off_c, 0, 62, 66
1, 123693, Note_on_c, 0, 50, 77
1, 123762, Note_on_c, 0, 52, 75
1, 123767, Note_off_c, 0, 50, 65
1, 123836, Note_off_c, 0, 52, 66
1, 123838, Note_on_c, 0, 53, 81
1, 123924, Note_off_c, 0, 53, 64
1, 123925, Note_on_c, 0, 59, 84
1, 123937, Note_on_c, 0, 55, 81
1, 123960, Note_off_c, 0, 59, 63
1, 124208, Note_off_c, 0, 55, 61
1, 124232, Note_on_c, 0, 67, 74
1, 124259, Note_off_c, 0, 67, 69
1, 124310, Note_on_c, 0, 53, 70
1, 124380, Note_off_c, 0, 53, 63
1, 124384, Note_on_c, 0, 52, 73
1, 124439, Note_on_c, 0, 50, 71
1, 124444, Note_off_c, 0, 52, 66
1, 124524, Note_on_c, 0, 64, 86
1, 124525, Note_off_c, 0, 50, 63
1, 124539, Note_on_c, 0, 48, 79
1, 124562, Note_off_c, 0, 64, 65
1, 124834, Note_on_c, 0, 69, 91
1, 124885, Note_off_c, 0, 69, 66
1, 125011, Note_on_c, 0, 50, 73
1, 125039, Note_off_c, 0, 48, 62
1, 125141, Note_on_c, 0, 76, 101
1, 125157, Note_on_c, 0, 52, 77
1, 125174, Note_off_c, 0, 50, 64
1, 125297, Note_off_c, 0, 52, 65
1, 125320, Note_on_c, 0, 53, 74
1, 125389, Note_off_c, 0, 53, 65
1, 125401, Note_on_c, 0, 52, 73
1, 125463, Note_on_c, 0, 68, 79
1, 125480, Note_on_c, 0, 50, 75
1, 125501, Note_off_c, 0, 52, 55
1, 125517, Note_off_c, 0, 68, 63
1, 125623, Note_on_c, 0, 52, 78
1, 125639, Note_off_c, 0, 76, 65
1, 125669, Note_off_c, 0, 50, 62
1, 125764, Note_on_c, 0, 72, 105
1, 125767, Note_off_c, 0, 52, 62
1, 125770, Note_on_c, 0, 53, 80
1, 125778, Note_on_c, 0, 57, 78
1, 125833, Control_c, 0, 64, 32
1, 125848, Control_c, 0, 64, 45
1, 125863, Control_c, 0, 64, 52
1, 125878, Control_c, 0, 64, 57
1, 125887, Note_off_c, 0, 57, 54
1, 125893, Control_c, 0, 64, 61
1, 125908, Control_c, 0, 64, 63
1, 125922, Control_c, 0, 64, 64
1, 125937, Control_c, 0, 64, 64
1, 126011, Control_c, 0, 64, 64
1, 126026, Control_c, 0, 64, 63
1, 126040, Note_on_c, 0, 69, 74
1, 126040, Control_c, 0, 64, 62
1, 126055, Control_c, 0, 64, 60
1, 126070, Control_c, 0, 64, 54
1, 126085, Control_c, 0, 64, 44
1, 126098, Note_off_c, 0, 69, 67
1, 126108, Control_c, 0, 64, 24
1, 126122, Note_on_c, 0, 67, 84
1, 126123, Control_c, 0, 64, 0
1, 126135, Note_off_c, 0, 72, 61
1, 126144, Note_off_c, 0, 67, 69
1, 126179, Note_on_c, 0, 65, 83
1, 126238, Note_off_c, 0, 65, 66
1, 126253, Note_on_c, 0, 64, 83
1, 126336, Note_on_c, 0, 62, 82
1, 126346, Note_on_c, 0, 77, 99
1, 126358, Note_off_c, 0, 53, 43
1, 126368, Note_off_c, 0, 64, 62
1, 126559, Note_off_c, 0, 62, 51
1, 126653, Note_on_c, 0, 65, 74
1, 126685, Note_off_c, 0, 77, 65
1, 126706, Note_off_c, 0, 65, 65
1, 126725, Note_on_c, 0, 64, 81
1, 126799, Note_on_c, 0, 62, 75
1, 126822, Note_off_c, 0, 64, 59
1, 126876, Note_off_c, 0, 62, 66
1, 126894, Note_on_c, 0, 60, 80
1, 126939, Note_off_c, 0, 60, 67
1, 126957, Note_on_c, 0, 68, 87
1, 126958, Note_on_c, 0, 59, 81
1, 127026, Note_on_c, 0, 60, 70
1, 127034, Note_off_c, 0, 59, 57
1, 127103, Note_off_c, 0, 60, 65
1, 127107, Note_on_c, 0, 62, 79
1, 127255, Note_on_c, 0, 53, 85
1, 127307, Note_off_c, 0, 53, 64
1, 127331, Note_off_c, 0, 68, 60
1, 127338, Note_on_c, 0, 60, 75
1, 127351, Note_off_c, 0, 62, 58
1, 127387, Note_off_c, 0, 60, 66
1, 127416, Note_on_c, 0, 59, 69
1, 127445, Note_off_c, 0, 59, 67
1, 127480, Note_on_c, 0, 57, 78
1, 127544, Note_off_c, 0, 57, 55
1, 127552, Note_on_c, 0, 47, 87
1, 127554, Note_on_c, 0, 56, 81
1, 127601, Note_off_c, 0, 47, 61
1, 127603, Note_off_c, 0, 56, 52
1, 127636, Note_on_c, 0, 57, 78
1, 127693, Note_off_c, 0, 57, 64
1, 127714, Note_on_c, 0, 59, 76
1, 127857, Note_on_c, 0, 50, 90
1, 127889, Note_off_c, 0, 50, 66
1, 127898, Note_off_c, 0, 59, 60
1, 127926, Note_on_c, 0, 57, 78
1, 128003, Note_on_c, 0, 56, 75
1, 128009, Note_off_c, 0, 57, 64
1, 128072, Note_off_c, 0, 56, 64
1, 128075, Note_on_c, 0, 54, 85
1, 128131, Note_off_c, 0, 54, 65
1, 128153, Note_on_c, 0, 52, 88
1, 128158, Note_on_c, 0, 44, 76
1, 128187, Note_off_c, 0, 44, 67
1, 128450, Note_on_c, 0, 74, 100
1, 128458, Note_on_c, 0, 47, 65
1, 128487, Note_off_c, 0, 74, 68
1, 128504, Note_off_c, 0, 47, 59
1, 128593, Note_off_c, 0, 52, 56
1, 128620, Note_on_c, 0, 54, 68
1, 128688, Note_on_c, 0, 56, 66
1, 128710, Note_off_c, 0, 54, 64
1, 128741, Note_off_c, 0, 56, 63
1, 128751, Note_on_c, 0, 52, 56
1, 128751, Note_on_c, 0, 57, 74
1, 128751, Note_on_c, 0, 71, 96
1, 128801, Note_off_c, 0, 71, 69
1, 128819, Note_off_c, 0, 57, 64
1, 128826, Note_on_c, 0, 56, 73
1, 128900, Note_off_c, 0, 56, 65
1, 128908, Note_on_c, 0, 57, 80
1, 128977, Note_off_c, 0, 57, 62
1, 128981, Note_on_c, 0, 56, 72
1, 129055, Note_off_c, 0, 56, 64
1, 129067, Note_on_c, 0, 76, 98
1, 129073, Note_on_c, 0, 57, 76
1, 129105, Note_off_c, 0, 76, 69
1, 129145, Note_off_c, 0, 57, 63
1, 129152, Note_on_c, 0, 56, 72
1, 129211, Note_off_c, 0, 56, 62
1, 129230, Note_on_c, 0, 54, 64
1, 129269, Note_off_c, 0, 52, 22
1, 129297, Note_on_c, 0, 56, 76
1, 129305, Note_off_c, 0, 54, 63
1, 129345, Note_off_c, 0, 56, 63
1, 129380, Note_on_c, 0, 57, 95
1, 129380, Note_on_c, 0, 72, 92
1, 129389, Note_on_c, 0, 45, 82
1, 129427, Note_off_c, 0, 72, 68
1, 129550, Note_off_c, 0, 45, 61
1, 129695, Note_on_c, 0, 69, 93
1, 129696, Note_off_c, 0, 57, 61
1, 129736, Note_off_c, 0, 69, 67
1, 129771, Note_on_c, 0, 57, 86
1, 129844, Note_on_c, 0, 59, 82
1, 129845, Note_off_c, 0, 57, 68
1, 129912, Note_on_c, 0, 60, 89
1, 129923, Note_off_c, 0, 59, 66
1, 129981, Note_off_c, 0, 60, 65
1, 129998, Note_on_c, 0, 66, 97
1, 130000, Note_on_c, 0, 62, 89
1, 130056, Note_off_c, 0, 66, 62
1, 130256, Note_off_c, 0, 62, 46
1, 130317, Note_on_c, 0, 54, 73
1, 130318, Note_on_c, 0, 74, 97
1, 130355, Note_off_c, 0, 74, 68
1, 130382, Note_off_c, 0, 54, 66
1, 130400, Note_on_c, 0, 60, 79
1, 130458, Note_off_c, 0, 60, 64
1, 130471, Note_on_c, 0, 59, 83
1, 130548, Note_on_c, 0, 57, 78
1, 130590, Note_off_c, 0, 59, 62
1, 130626, Note_on_c, 0, 71, 93
1, 130628, Note_on_c, 0, 55, 90
1, 130637, Note_off_c, 0, 57, 65
1, 130657, Poly_aftertouch_c, 0, 67, 0
1, 130671, Note_off_c, 0, 71, 67
1, 130840, Note_off_c, 0, 55, 52
1, 130934, Note_on_c, 0, 67, 80
1, 130976, Note_off_c, 0, 67, 66
1, 131001, Note_on_c, 0, 55, 66
1, 131066, Note_on_c, 0, 57, 71
1, 131070, Note_off_c, 0, 55, 64
1, 131140, Note_off_c, 0, 57, 65
1, 131143, Note_on_c, 0, 59, 75
1, 131211, Note_on_c, 0, 64, 86
1, 131213, Note_off_c, 0, 59, 64
1, 131222, Note_on_c, 0, 60, 86
1, 131253, Note_off_c, 0, 64, 65
1, 131500, Note_off_c, 0, 60, 53
1, 131527, Note_on_c, 0, 72, 83
1, 131545, Note_on_c, 0, 52, 53
1, 131562, Note_off_c, 0, 72, 66
1, 131607, Note_on_c, 0, 58, 65
1, 131620, Note_off_c, 0, 52, 55
1, 131667, Note_off_c, 0, 58, 62
1, 131688, Note_on_c, 0, 57, 69
1, 131744, Note_off_c, 0, 57, 61
1, 131757, Note_on_c, 0, 55, 61
1, 131817, Note_on_c, 0, 69, 81
1, 131844, Note_off_c, 0, 55, 63
1, 131852, Note_on_c, 0, 53, 59
1, 131962, Note_on_c, 0, 65, 73
1, 132120, Note_off_c, 0, 53, 56
1, 132129, Note_on_c, 0, 55, 59
1, 132132, Note_on_c, 0, 71, 77
1, 132158, Note_off_c, 0, 65, 47
1, 132162, Note_off_c, 0, 69, 54
1, 132269, Note_on_c, 0, 65, 72
1, 132373, Note_off_c, 0, 65, 61
1, 132412, Note_off_c, 0, 71, 59
1, 132414, Note_on_c, 0, 72, 73
1, 132421, Note_on_c, 0, 57, 59
1, 132424, Note_off_c, 0, 55, 61
1, 132496, Note_on_c, 0, 64, 71
1, 132561, Note_off_c, 0, 64, 60
1, 132567, Note_on_c, 0, 65, 68
1, 132632, Note_off_c, 0, 65, 60
1, 132636, Note_on_c, 0, 67, 71
1, 132696, Note_off_c, 0, 67, 63
1, 132714, Note_off_c, 0, 57, 64
1, 132715, Note_on_c, 0, 69, 65
1, 132722, Note_on_c, 0, 55, 67
1, 132789, Note_on_c, 0, 67, 71
1, 132800, Note_off_c, 0, 69, 59
1, 132842, Note_off_c, 0, 67, 60
1, 132866, Note_on_c, 0, 65, 72
1, 132889, Note_off_c, 0, 55, 61
1, 132897, Note_off_c, 0, 65, 66
1, 132937, Note_on_c, 0, 64, 75
1, 132963, Note_off_c, 0, 64, 68
1, 132966, Note_off_c, 0, 72, 60
1, 133009, Note_on_c, 0, 62, 75
1, 133014, Note_on_c, 0, 53, 73
1, 133024, Control_c, 0, 64, 26
1, 133039, Control_c, 0, 64, 37
1, 133054, Control_c, 0, 64, 47
1, 133068, Control_c, 0, 64, 55
1, 133082, Note_on_c, 0, 72, 72
1, 133083, Control_c, 0, 64, 60
1, 133098, Control_c, 0, 64, 61
1, 133157, Control_c, 0, 64, 60
1, 133158, Note_on_c, 0, 74, 74
1, 133165, Note_off_c, 0, 72, 65
1, 133172, Control_c, 0, 64, 59
1, 133187, Control_c, 0, 64, 58
1, 133202, Control_c, 0, 64, 56
1, 133208, Note_off_c, 0, 74, 64
1, 133217, Control_c, 0, 64, 54
1, 133221, Note_on_c, 0, 76, 77
1, 133232, Control_c, 0, 64, 51
1, 133247, Control_c, 0, 64, 47
1, 133261, Control_c, 0, 64, 44
1, 133274, Note_off_c, 0, 53, 63
1, 133276, Control_c, 0, 64, 39
1, 133291, Control_c, 0, 64, 33
1, 133293, Note_off_c, 0, 76, 65
1, 133295, Note_on_c, 0, 50, 68
1, 133303, Note_on_c, 0, 77, 80
1, 133306, Control_c, 0, 64, 28
1, 133321, Control_c, 0, 64, 26
1, 133336, Control_c, 0, 64, 24
1, 133351, Control_c, 0, 64, 24
1, 133380, Note_on_c, 0, 76, 75
1, 133381, Control_c, 0, 64, 23
1, 133382, Note_off_c, 0, 77, 60
1, 133440, Note_off_c, 0, 76, 64
1, 133444, Note_on_c, 0, 74, 65
1, 133454, Control_c, 0, 64, 22
1, 133497, Note_off_c, 0, 74, 63
1, 133512, Note_on_c, 0, 72, 62
1, 133536, Note_off_c, 0, 62, 57
1, 133539, Note_off_c, 0, 72, 67
1, 133596, Note_on_c, 0, 71, 80
1, 133604, Note_on_c, 0, 55, 65
1, 133674, Note_on_c, 0, 62, 71
1, 133715, Note_off_c, 0, 50, 0
1, 133748, Note_off_c, 0, 62, 62
1, 133749, Note_on_c, 0, 64, 72
1, 133751, Poly_aftertouch_c, 0, 50, 127
1, 133795, Note_off_c, 0, 55, 61
1, 133810, Note_on_c, 0, 65, 73
1, 133810, Note_off_c, 0, 64, 63
1, 133815, Poly_aftertouch_c, 0, 50, 0
1, 133856, Note_off_c, 0, 71, 0
1, 133873, Note_off_c, 0, 65, 65
1, 133875, Note_on_c, 0, 53, 95
1, 133887, Note_on_c, 0, 67, 68
1, 133887, Note_on_c, 0, 71, 24
1, 133940, Note_off_c, 0, 53, 62
1, 133949, Note_on_c, 0, 65, 75
1, 133987, Note_off_c, 0, 67, 61
1, 134019, Note_off_c, 0, 65, 62
1, 134032, Note_on_c, 0, 64, 72
1, 134039, Control_c, 0, 64, 21
1, 134053, Control_c, 0, 64, 22
1, 134066, Note_off_c, 0, 64, 66
1, 134102, Note_on_c, 0, 62, 77
1, 134138, Note_off_c, 0, 62, 63
1, 134142, Note_off_c, 0, 71, 58
1, 134175, Note_on_c, 0, 52, 94
1, 134179, Note_on_c, 0, 60, 94
1, 134203, Control_c, 0, 64, 21
1, 134293, Control_c, 0, 64, 20
1, 134492, Note_on_c, 0, 55, 78
1, 134498, Note_on_c, 0, 84, 83
1, 134533, Note_off_c, 0, 55, 62
1, 134533, Note_off_c, 0, 60, 57
1, 134576, Note_on_c, 0, 83, 79
1, 134587, Note_off_c, 0, 84, 61
1, 134611, Control_c, 0, 64, 21
1, 134633, Note_on_c, 0, 60, 43
1, 134642, Note_on_c, 0, 81, 72
1, 134653, Note_off_c, 0, 83, 63
1, 134707, Note_off_c, 0, 81, 64
1, 134713, Note_off_c, 0, 60, 61
1, 134722, Note_on_c, 0, 79, 72
1, 134736, Note_off_c, 0, 52, 64
1, 134762, Note_off_c, 0, 79, 67
1, 134783, Note_on_c, 0, 77, 87
1, 134788, Note_on_c, 0, 57, 94
1, 134807, Note_on_c, 0, 60, 80
1, 134824, Note_off_c, 0, 77, 65
1, 134832, Note_off_c, 0, 60, 67
1, 135093, Control_c, 0, 64, 22
1, 135107, Note_on_c, 0, 65, 79
1, 135110, Note_on_c, 0, 81, 73
1, 135137, Control_c, 0, 64, 21
1, 135154, Note_off_c, 0, 65, 65
1, 135171, Note_off_c, 0, 57, 63
1, 135190, Note_on_c, 0, 79, 75
1, 135196, Control_c, 0, 64, 22
1, 135215, Note_off_c, 0, 81, 62
1, 135257, Note_on_c, 0, 77, 79
1, 135278, Note_off_c, 0, 79, 64
1, 135324, Note_off_c, 0, 77, 63
1, 135330, Note_on_c, 0, 76, 63
1, 135330, Control_c, 0, 64, 21
1, 135345, Control_c, 0, 64, 0
1, 135381, Note_off_c, 0, 76, 63
1, 135388, Note_on_c, 0, 74, 90
1, 135391, Note_on_c, 0, 47, 96
1, 135462, Note_on_c, 0, 76, 85
1, 135464, Note_off_c, 0, 74, 39
1, 135478, Control_c, 0, 64, 40
1, 135493, Control_c, 0, 64, 47
1, 135507, Control_c, 0, 64, 51
1, 135522, Control_c, 0, 64, 53
1, 135525, Note_off_c, 0, 76, 64
1, 135548, Note_on_c, 0, 77, 23
1, 135581, Control_c, 0, 64, 52
1, 135596, Control_c, 0, 64, 50
1, 135611, Control_c, 0, 64, 46
1, 135626, Control_c, 0, 64, 41
1, 135641, Control_c, 0, 64, 34
1, 135655, Control_c, 0, 64, 25
1, 135671, Control_c, 0, 64, 8
1, 135686, Control_c, 0, 64, 0
1, 135699, Note_on_c, 0, 69, 93
1, 135775, Note_on_c, 0, 76, 79
1, 135783, Note_off_c, 0, 69, 63
1, 135789, Note_off_c, 0, 47, 63
1, 135803, Note_off_c, 0, 77, 28
1, 135849, Note_on_c, 0, 74, 76
1, 135879, Note_off_c, 0, 76, 63
1, 135914, Note_off_c, 0, 74, 63
1, 135920, Note_on_c, 0, 72, 80
1, 135976, Note_off_c, 0, 72, 65
1, 135993, Note_on_c, 0, 62, 88
1, 135997, Note_on_c, 0, 71, 81
1, 136028, Note_off_c, 0, 62, 62
1, 136033, Note_off_c, 0, 71, 64
1, 136066, Note_on_c, 0, 72, 84
1, 136123, Note_off_c, 0, 72, 65
1, 136151, Note_on_c, 0, 74, 83
1, 136290, Note_on_c, 0, 65, 84
1, 136340, Note_off_c, 0, 65, 64
1, 136376, Note_on_c, 0, 72, 80
1, 136377, Note_off_c, 0, 74, 61
1, 136438, Note_on_c, 0, 71, 76
1, 136461, Note_off_c, 0, 72, 60
1, 136514, Note_off_c, 0, 71, 64
1, 136519, Note_on_c, 0, 69, 79
1, 136575, Note_off_c, 0, 69, 67
1, 136588, Note_on_c, 0, 59, 97
1, 136591, Note_on_c, 0, 67, 84
1, 136633, Note_off_c, 0, 59, 65
1, 136891, Note_on_c, 0, 62, 87
1, 136895, Note_on_c, 0, 53, 92
1, 136935, Note_off_c, 0, 53, 63
1, 136947, Note_off_c, 0, 67, 60
1, 137012, Note_off_c, 0, 62, 59
1, 137071, Note_on_c, 0, 69, 76
1, 137121, Note_off_c, 0, 69, 59
1, 137137, Note_on_c, 0, 71, 74
1, 137199, Note_on_c, 0, 50, 90
1, 137201, Note_off_c, 0, 71, 64
1, 137209, Note_on_c, 0, 72, 83
1, 137219, Note_on_c, 0, 65, 76
1, 137243, Note_off_c, 0, 50, 63
1, 137268, Note_off_c, 0, 65, 48
1, 137269, Note_off_c, 0, 72, 64
1, 137277, Note_on_c, 0, 71, 73
1, 137343, Note_off_c, 0, 71, 63
1, 137360, Note_on_c, 0, 72, 79
1, 137422, Note_off_c, 0, 72, 64
1, 137435, Note_on_c, 0, 71, 67
1, 137496, Note_off_c, 0, 71, 66
1, 137509, Note_on_c, 0, 55, 89
1, 137510, Note_on_c, 0, 72, 79
1, 137522, Note_on_c, 0, 62, 65
1, 137544, Note_off_c, 0, 55, 64
1, 137554, Note_off_c, 0, 62, 62
1, 137590, Note_on_c, 0, 71, 74
1, 137593, Note_off_c, 0, 72, 62
1, 137631, Note_off_c, 0, 71, 57
1, 137661, Note_on_c, 0, 69, 79
1, 137721, Note_off_c, 0, 69, 65
1, 137750, Note_on_c, 0, 71, 70
1, 137794, Note_off_c, 0, 71, 66
1, 137812, Note_on_c, 0, 52, 78
1, 137812, Note_on_c, 0, 72, 96
1, 137819, Note_on_c, 0, 67, 81
1, 137911, Note_off_c, 0, 67, 57
1, 138121, Note_on_c, 0, 60, 96
1, 138151, Note_off_c, 0, 72, 62
1, 138175, Note_off_c, 0, 60, 65
1, 138222, Note_off_c, 0, 52, 63
1, 138305, Note_on_c, 0, 52, 76
1, 138370, Note_on_c, 0, 54, 79
1, 138391, Note_off_c, 0, 52, 63
1, 138424, Note_on_c, 0, 57, 93
1, 138442, Note_off_c, 0, 54, 66
1, 138446, Note_on_c, 0, 55, 82
1, 138472, Note_off_c, 0, 57, 64
1, 138509, Note_off_c, 0, 55, 56
1, 138528, Note_on_c, 0, 54, 73
1, 138584, Note_off_c, 0, 54, 65
1, 138586, Note_on_c, 0, 55, 81
1, 138662, Note_off_c, 0, 55, 58
1, 138672, Note_on_c, 0, 54, 71
1, 138724, Note_on_c, 0, 62, 92
1, 138729, Note_off_c, 0, 54, 64
1, 138731, Note_on_c, 0, 55, 78
1, 138770, Note_off_c, 0, 62, 64
1, 138798, Note_on_c, 0, 54, 72
1, 138804, Note_off_c, 0, 55, 55
1, 138877, Note_off_c, 0, 54, 64
1, 138886, Note_on_c, 0, 52, 69
1, 138951, Note_on_c, 0, 54, 58
1, 138958, Note_off_c, 0, 52, 65
1, 139013, Note_on_c, 0, 59, 93
1, 139030, Note_off_c, 0, 54, 66
1, 139033, Note_on_c, 0, 55, 74
1, 139290, Note_off_c, 0, 59, 0
1, 139300, Note_off_c, 0, 55, 60
1, 139305, Note_on_c, 0, 52, 69
1, 139317, Note_on_c, 0, 67, 92
1, 139327, Poly_aftertouch_c, 0, 59, 127
1, 139349, Note_off_c, 0, 52, 63
1, 139367, Poly_aftertouch_c, 0, 59, 0
1, 139370, Note_off_c, 0, 67, 68
1, 139474, Note_on_c, 0, 59, 74
1, 139554, Note_off_c, 0, 59, 62
1, 139555, Note_on_c, 0, 61, 70
1, 139602, Note_on_c, 0, 57, 49
1, 139618, Note_on_c, 0, 64, 90
1, 139622, Note_off_c, 0, 61, 63
1, 139635, Note_on_c, 0, 62, 73
1, 139661, Note_off_c, 0, 64, 67
1, 139709, Note_off_c, 0, 62, 62
1, 139713, Note_on_c, 0, 61, 72
1, 139785, Note_off_c, 0, 61, 62
1, 139793, Note_on_c, 0, 62, 76
1, 139865, Note_on_c, 0, 61, 71
1, 139865, Note_off_c, 0, 62, 61
1, 139919, Note_on_c, 0, 69, 94
1, 139939, Note_off_c, 0, 61, 62
1, 139950, Note_on_c, 0, 62, 76
1, 139951, Note_off_c, 0, 69, 67
1, 139957, Control_c, 0, 64, 8
1, 140007, Note_on_c, 0, 61, 68
1, 140012, Note_off_c, 0, 62, 58
1, 140071, Note_off_c, 0, 61, 63
1, 140079, Note_on_c, 0, 59, 69
1, 140142, Note_off_c, 0, 57, 62
1, 140153, Note_on_c, 0, 61, 65
1, 140173, Note_off_c, 0, 59, 62
1, 140178, Control_c, 0, 64, 10
1, 140207, Note_off_c, 0, 61, 63
1, 140212, Note_on_c, 0, 66, 93
1, 140215, Note_on_c, 0, 62, 83
1, 140492, Note_off_c, 0, 62, 0
1, 140511, Note_on_c, 0, 50, 81
1, 140530, Poly_aftertouch_c, 0, 62, 127
1, 140552, Note_off_c, 0, 66, 61
1, 140580, Note_off_c, 0, 50, 62
1, 140669, Note_on_c, 0, 66, 71
1, 140726, Note_off_c, 0, 66, 57
1, 140731, Note_on_c, 0, 68, 75
1, 140748, Poly_aftertouch_c, 0, 62, 0
1, 140786, Note_off_c, 0, 68, 65
1, 140804, Note_on_c, 0, 69, 74
1, 140806, Note_on_c, 0, 47, 80
1, 140860, Note_off_c, 0, 69, 62
1, 140867, Note_off_c, 0, 47, 63
1, 140884, Note_on_c, 0, 68, 75
1, 140935, Note_off_c, 0, 68, 54
1, 140952, Note_on_c, 0, 69, 75
1, 141014, Note_off_c, 0, 69, 63
1, 141031, Note_on_c, 0, 68, 65
1, 141075, Note_off_c, 0, 68, 60
1, 141094, Note_on_c, 0, 69, 65
1, 141095, Note_on_c, 0, 52, 83
1, 141152, Note_off_c, 0, 69, 63
1, 141156, Note_off_c, 0, 52, 62
1, 141159, Note_on_c, 0, 68, 75
1, 141214, Note_off_c, 0, 68, 63
1, 141235, Note_on_c, 0, 66, 72
1, 141272, Note_off_c, 0, 66, 56
1, 141299, Note_on_c, 0, 68, 73
1, 141357, Note_off_c, 0, 68, 61
1, 141371, Note_on_c, 0, 69, 86
1, 141375, Note_on_c, 0, 48, 84
1, 141427, Note_off_c, 0, 48, 63
1, 141530, Note_off_c, 0, 69, 55
1, 141532, Note_on_c, 0, 71, 72
1, 141596, Note_off_c, 0, 71, 63
1, 141597, Note_on_c, 0, 72, 79
1, 141634, Note_off_c, 0, 72, 62
1, 141677, Note_on_c, 0, 74, 79
1, 141686, Note_on_c, 0, 45, 78
1, 141724, Note_off_c, 0, 45, 65
1, 141739, Note_on_c, 0, 76, 82
1, 141739, Note_off_c, 0, 74, 62
1, 141804, Note_on_c, 0, 78, 81
1, 141808, Note_off_c, 0, 76, 65
1, 141874, Note_on_c, 0, 80, 81
1, 141878, Note_off_c, 0, 78, 66
1, 141957, Note_on_c, 0, 81, 92
1, 141968, Note_on_c, 0, 42, 88
1, 141972, Note_off_c, 0, 80, 62
1, 142037, Note_off_c, 0, 42, 64
1, 142138, Note_on_c, 0, 72, 73
1, 142228, Note_off_c, 0, 72, 61
1, 142283, Note_on_c, 0, 71, 66
1, 142289, Note_on_c, 0, 51, 79
1, 142344, Note_off_c, 0, 51, 63
1, 142351, Note_off_c, 0, 71, 61
1, 142423, Note_on_c, 0, 78, 82
1, 142429, Note_off_c, 0, 81, 65
1, 142484, Control_c, 0, 64, 0
1, 142517, Note_off_c, 0, 78, 63
1, 142574, Note_on_c, 0, 79, 91
1, 142577, Note_on_c, 0, 40, 83
1, 142639, Control_c, 0, 64, 37
1, 142654, Control_c, 0, 64, 53
1, 142669, Control_c, 0, 64, 60
1, 142671, Note_off_c, 0, 40, 63
1, 142684, Control_c, 0, 64, 65
1, 142699, Control_c, 0, 64, 69
1, 142714, Control_c, 0, 64, 76
1, 142728, Control_c, 0, 64, 85
1, 142743, Control_c, 0, 64, 101
1, 142752, Note_on_c, 0, 71, 76
1, 142758, Control_c, 0, 64, 119
1, 142772, Control_c, 0, 64, 127
1, 142787, Control_c, 0, 64, 119
1, 142802, Control_c, 0, 64, 111
1, 142817, Control_c, 0, 64, 106
1, 142832, Control_c, 0, 64, 104
1, 142836, Note_off_c, 0, 71, 62
1, 142846, Control_c, 0, 64, 99
1, 142861, Control_c, 0, 64, 91
1, 142877, Control_c, 0, 64, 82
1, 142892, Control_c, 0, 64, 72
1, 142902, Note_on_c, 0, 76, 82
1, 142907, Control_c, 0, 64, 62
1, 142921, Note_off_c, 0, 79, 55
1, 142922, Control_c, 0, 64, 33
1, 142937, Control_c, 0, 64, 0
1, 142970, Note_on_c, 0, 74, 86
1, 142970, Note_off_c, 0, 76, 64
1, 143003, Note_off_c, 0, 74, 65
1, 143040, Note_on_c, 0, 72, 87
1, 143081, Note_off_c, 0, 72, 66
1, 143105, Note_on_c, 0, 71, 81
1, 143180, Note_on_c, 0, 84, 99
1, 143188, Note_on_c, 0, 69, 90
1, 143202, Note_off_c, 0, 71, 64
1, 143328, Note_off_c, 0, 69, 62
1, 143511, Note_on_c, 0, 72, 76
1, 143557, Note_off_c, 0, 72, 65
1, 143569, Note_off_c, 0, 84, 63
1, 143575, Note_on_c, 0, 71, 76
1, 143647, Note_on_c, 0, 69, 75
1, 143683, Note_off_c, 0, 71, 64
1, 143720, Note_off_c, 0, 69, 66
1, 143733, Note_on_c, 0, 67, 74
1, 143790, Note_on_c, 0, 66, 89
1, 143791, Note_on_c, 0, 75, 87
1, 143796, Note_off_c, 0, 67, 66
1, 143822, Note_on_c, 0, 73, 49
1, 143840, Note_off_c, 0, 66, 59
1, 143850, Note_off_c, 0, 73, 37
1, 143873, Note_on_c, 0, 67, 80
1, 143951, Note_on_c, 0, 69, 84
1, 143951, Note_off_c, 0, 67, 65
1, 144103, Note_on_c, 0, 60, 86
1, 144158, Note_off_c, 0, 60, 64
1, 144177, Note_off_c, 0, 69, 62
1, 144178, Note_on_c, 0, 67, 78
1, 144178, Note_off_c, 0, 75, 57
1, 144240, Note_off_c, 0, 67, 65
1, 144252, Note_on_c, 0, 66, 78
1, 144275, Note_off_c, 0, 66, 69
1, 144325, Note_on_c, 0, 64, 75
1, 144388, Note_on_c, 0, 63, 80
1, 144390, Note_on_c, 0, 54, 84
1, 144392, Note_off_c, 0, 64, 65
1, 144438, Note_off_c, 0, 54, 66
1, 144460, Note_off_c, 0, 63, 63
1, 144461, Note_on_c, 0, 64, 81
1, 144543, Note_on_c, 0, 66, 83
1, 144546, Note_off_c, 0, 64, 66
1, 144683, Note_on_c, 0, 57, 86
1, 144731, Note_off_c, 0, 66, 57
1, 144732, Note_off_c, 0, 57, 66
1, 144754, Note_on_c, 0, 64, 76
1, 144831, Note_on_c, 0, 63, 78
1, 144842, Note_off_c, 0, 64, 60
1, 144904, Note_off_c, 0, 63, 62
1, 144910, Note_on_c, 0, 61, 80
1, 144983, Note_on_c, 0, 59, 90
1, 144986, Note_off_c, 0, 61, 60
1, 144989, Note_on_c, 0, 51, 76
1, 145024, Note_off_c, 0, 51, 65
1, 145295, Note_on_c, 0, 54, 63
1, 145298, Note_on_c, 0, 79, 84
1, 145298, Note_on_c, 0, 81, 81
1, 145337, Note_off_c, 0, 54, 61
1, 145343, Note_off_c, 0, 79, 65
1, 145343, Note_off_c, 0, 81, 65
1, 145433, Note_off_c, 0, 59, 50
1, 145454, Note_on_c, 0, 61, 62
1, 145528, Note_on_c, 0, 63, 67
1, 145549, Note_off_c, 0, 61, 59
1, 145593, Note_on_c, 0, 59, 59
1, 145593, Note_off_c, 0, 63, 62
1, 145606, Note_on_c, 0, 78, 94
1, 145609, Note_on_c, 0, 64, 75
1, 145651, Note_off_c, 0, 78, 68
1, 145680, Note_off_c, 0, 64, 64
1, 145689, Note_on_c, 0, 63, 71
1, 145757, Note_off_c, 0, 63, 63
1, 145768, Note_on_c, 0, 64, 78
1, 145835, Note_off_c, 0, 64, 60
1, 145838, Note_on_c, 0, 63, 66
1, 145900, Note_off_c, 0, 63, 63
1, 145912, Note_on_c, 0, 83, 98
1, 145921, Note_on_c, 0, 64, 73
1, 145954, Note_off_c, 0, 83, 68
1, 145981, Note_off_c, 0, 64, 61
1, 145983, Note_on_c, 0, 63, 72
1, 145997, Note_off_c, 0, 59, 57
1, 146043, Note_off_c, 0, 63, 63
1, 146050, Note_on_c, 0, 61, 67
1, 146103, Poly_aftertouch_c, 0, 59, 0
1, 146125, Note_on_c, 0, 63, 76
1, 146130, Note_off_c, 0, 61, 62
1, 146172, Note_off_c, 0, 63, 62
1, 146214, Note_on_c, 0, 79, 95
1, 146219, Note_on_c, 0, 52, 87
1, 146219, Note_on_c, 0, 64, 90
1, 146273, Control_c, 0, 64, 24
1, 146273, Note_off_c, 0, 79, 66
1, 146287, Control_c, 0, 64, 49
1, 146290, Note_off_c, 0, 64, 64
1, 146302, Control_c, 0, 64, 57
1, 146324, Control_c, 0, 64, 61
1, 146327, Note_off_c, 0, 52, 65
1, 146339, Control_c, 0, 64, 63
1, 146354, Control_c, 0, 64, 65
1, 146368, Control_c, 0, 64, 66
1, 146383, Control_c, 0, 64, 67
1, 146428, Control_c, 0, 64, 67
1, 146473, Control_c, 0, 64, 66
1, 146487, Control_c, 0, 64, 64
1, 146502, Control_c, 0, 64, 62
1, 146517, Control_c, 0, 64, 56
1, 146526, Note_on_c, 0, 76, 92
1, 146532, Control_c, 0, 64, 36
1, 146547, Control_c, 0, 64, 0
1, 146574, Note_off_c, 0, 76, 67
1, 146600, Note_on_c, 0, 40, 77
1, 146626, Note_on_c, 0, 41, 36
1, 146655, Note_off_c, 0, 40, 65
1, 146658, Note_off_c, 0, 41, 0
1, 146658, Note_on_c, 0, 41, 24
1, 146739, Note_on_c, 0, 43, 82
1, 146740, Note_off_c, 0, 41, 64
1, 146783, Poly_aftertouch_c, 0, 78, 0
1, 146801, Note_off_c, 0, 43, 64
1, 146813, Note_on_c, 0, 45, 88
1, 146829, Note_on_c, 0, 73, 93
1, 146882, Note_off_c, 0, 73, 65
1, 147081, Note_off_c, 0, 45, 57
1, 147129, Note_on_c, 0, 81, 88
1, 147172, Note_off_c, 0, 81, 67
1, 147203, Note_on_c, 0, 43, 78
1, 147268, Note_off_c, 0, 43, 63
1, 147270, Note_on_c, 0, 41, 80
1, 147341, Note_on_c, 0, 40, 76
1, 147373, Note_off_c, 0, 41, 63
1, 147427, Note_on_c, 0, 38, 86
1, 147429, Note_off_c, 0, 40, 65
1, 147433, Note_on_c, 0, 77, 95
1, 147499, Note_off_c, 0, 77, 64
1, 147516, Note_off_c, 0, 38, 63
1, 147749, Note_on_c, 0, 62, 92
1, 147790, Note_off_c, 0, 62, 66
1, 147821, Note_on_c, 0, 74, 77
1, 147895, Note_on_c, 0, 76, 79
1, 147897, Note_off_c, 0, 74, 61
1, 147960, Note_off_c, 0, 76, 67
1, 147968, Note_on_c, 0, 77, 80
1, 148048, Note_off_c, 0, 77, 64
1, 148059, Note_on_c, 0, 59, 87
1, 148061, Note_on_c, 0, 79, 87
1, 148118, Note_off_c, 0, 79, 66
1, 148124, Note_off_c, 0, 59, 64
1, 148370, Note_on_c, 0, 67, 81
1, 148426, Note_on_c, 0, 77, 79
1, 148437, Note_off_c, 0, 67, 59
1, 148496, Note_off_c, 0, 77, 63
1, 148506, Note_on_c, 0, 76, 78
1, 148568, Note_off_c, 0, 76, 66
1, 148590, Note_on_c, 0, 74, 83
1, 148643, Note_off_c, 0, 74, 63
1, 148670, Note_on_c, 0, 72, 85
1, 148675, Note_on_c, 0, 64, 88
1, 148717, Note_off_c, 0, 72, 64
1, 148718, Note_off_c, 0, 64, 66
1, 148971, Note_on_c, 0, 57, 89
1, 149033, Note_off_c, 0, 57, 63
1, 149045, Note_on_c, 0, 76, 75
1, 149109, Note_on_c, 0, 77, 79
1, 149115, Note_off_c, 0, 76, 63
1, 149180, Note_on_c, 0, 79, 79
1, 149183, Note_off_c, 0, 77, 63
1, 149261, Note_on_c, 0, 81, 76
1, 149269, Note_on_c, 0, 53, 95
1, 149270, Note_off_c, 0, 79, 52
1, 149336, Note_off_c, 0, 53, 63
1, 149345, Note_off_c, 0, 81, 66
1, 149356, Note_on_c, 0, 82, 78
1, 149406, Note_off_c, 0, 82, 66
1, 149428, Note_on_c, 0, 81, 75
1, 149501, Note_on_c, 0, 79, 75
1, 149504, Note_off_c, 0, 81, 61
1, 149576, Note_on_c, 0, 77, 84
1, 149577, Note_off_c, 0, 79, 65
1, 149588, Note_on_c, 0, 62, 77
1, 149634, Note_off_c, 0, 77, 65
1, 149647, Note_on_c, 0, 76, 82
1, 149653, Note_off_c, 0, 62, 56
1, 149692, Note_off_c, 0, 76, 65
1, 149720, Note_on_c, 0, 74, 80
1, 149796, Note_off_c, 0, 74, 60
1, 149799, Note_on_c, 0, 72, 85
1, 149853, Note_off_c, 0, 72, 65
1, 149865, Note_on_c, 0, 71, 82
1, 149876, Note_on_c, 0, 56, 76
1, 149908, Note_off_c, 0, 71, 65
1, 149943, Note_off_c, 0, 56, 63
1, 149945, Note_on_c, 0, 72, 80
1, 150011, Note_on_c, 0, 71, 75
1, 150041, Note_off_c, 0, 72, 63
1, 150090, Note_on_c, 0, 69, 78
1, 150105, Note_off_c, 0, 71, 53
1, 150152, Note_on_c, 0, 52, 71
1, 150162, Note_off_c, 0, 69, 63
1, 150168, Note_on_c, 0, 68, 80
1, 150194, Note_off_c, 0, 52, 64
1, 150218, Note_off_c, 0, 68, 63
1, 150241, Note_on_c, 0, 66, 72
1, 150272, Note_off_c, 0, 66, 66
1, 150311, Note_on_c, 0, 64, 72
1, 150378, Note_off_c, 0, 64, 62
1, 150389, Note_on_c, 0, 62, 70
1, 150439, Note_off_c, 0, 62, 63
1, 150444, Note_on_c, 0, 57, 74
1, 150453, Note_on_c, 0, 60, 83
1, 150482, Note_off_c, 0, 60, 66
1, 150498, Control_c, 0, 64, 31
1, 150509, Note_on_c, 0, 64, 66
1, 150513, Control_c, 0, 64, 44
1, 150527, Control_c, 0, 64, 50
1, 150542, Control_c, 0, 64, 53
1, 150557, Control_c, 0, 64, 55
1, 150569, Note_off_c, 0, 64, 64
1, 150578, Note_on_c, 0, 65, 58
1, 150582, Note_on_c, 0, 67, 59
1, 150613, Note_off_c, 0, 67, 0
1, 150616, Control_c, 0, 64, 53
1, 150625, Note_off_c, 0, 65, 61
1, 150631, Control_c, 0, 64, 52
1, 150646, Control_c, 0, 64, 51
1, 150650, Poly_aftertouch_c, 0, 67, 127
1, 150661, Control_c, 0, 64, 49
1, 150676, Control_c, 0, 64, 48
1, 150685, Poly_aftertouch_c, 0, 67, 0
1, 150691, Control_c, 0, 64, 47
1, 150706, Control_c, 0, 64, 46
1, 150721, Control_c, 0, 64, 45
1, 150721, Note_on_c, 0, 72, 90
1, 150727, Note_on_c, 0, 69, 77
1, 150735, Control_c, 0, 64, 44
1, 150744, Note_off_c, 0, 72, 66
1, 150750, Control_c, 0, 64, 43
1, 150765, Control_c, 0, 64, 42
1, 150772, Note_off_c, 0, 69, 59
1, 150820, Note_on_c, 0, 67, 64
1, 150831, Control_c, 0, 64, 42
1, 150868, Note_off_c, 0, 67, 63
1, 150879, Poly_aftertouch_c, 0, 59, 0
1, 150889, Note_on_c, 0, 65, 72
1, 150953, Note_off_c, 0, 65, 63
1, 150957, Note_on_c, 0, 64, 59
1, 150995, Note_off_c, 0, 64, 48
1, 150995, Control_c, 0, 64, 41
1, 151010, Note_off_c, 0, 57, 54
1, 151023, Note_on_c, 0, 71, 82
1, 151026, Note_on_c, 0, 62, 72
1, 151054, Note_off_c, 0, 62, 68
1, 151054, Control_c, 0, 64, 41
1, 151069, Control_c, 0, 64, 40
1, 151099, Note_on_c, 0, 57, 76
1, 151150, Note_off_c, 0, 57, 66
1, 151175, Note_on_c, 0, 59, 68
1, 151230, Note_off_c, 0, 59, 64
1, 151248, Note_on_c, 0, 60, 65
1, 151287, Note_off_c, 0, 60, 66
1, 151313, Note_on_c, 0, 65, 87
1, 151314, Note_on_c, 0, 62, 71
1, 151350, Control_c, 0, 64, 40
1, 151356, Note_off_c, 0, 65, 63
1, 151367, Note_off_c, 0, 62, 53
1, 151395, Note_on_c, 0, 60, 72
1, 151427, Note_off_c, 0, 60, 57
1, 151465, Note_on_c, 0, 59, 74
1, 151522, Note_off_c, 0, 59, 62
1, 151531, Note_on_c, 0, 57, 69
1, 151609, Note_off_c, 0, 57, 64
1, 151613, Note_on_c, 0, 59, 82
1, 151614, Note_on_c, 0, 56, 66
1, 151642, Note_off_c, 0, 59, 65
1, 151667, Note_off_c, 0, 56, 61
1, 151692, Note_on_c, 0, 57, 80
1, 151714, Control_c, 0, 64, 39
1, 151729, Control_c, 0, 64, 38
1, 151744, Control_c, 0, 64, 38
1, 151757, Note_on_c, 0, 56, 84
1, 151762, Note_off_c, 0, 57, 66
1, 151788, Control_c, 0, 64, 37
1, 151821, Note_on_c, 0, 54, 81
1, 151844, Note_off_c, 0, 56, 65
1, 151847, Control_c, 0, 64, 37
1, 151886, Note_off_c, 0, 54, 64
1, 151892, Note_on_c, 0, 62, 78
1, 151895, Note_on_c, 0, 52, 78
1, 151934, Note_off_c, 0, 62, 62
1, 151958, Note_off_c, 0, 52, 63
1, 151967, Note_on_c, 0, 50, 80
1, 152021, Note_on_c, 0, 48, 71
1, 152049, Note_off_c, 0, 50, 63
1, 152085, Control_c, 0, 64, 36
1, 152089, Note_off_c, 0, 48, 64
1, 152095, Note_on_c, 0, 47, 69
1, 152182, Note_off_c, 0, 47, 63
1, 152186, Note_on_c, 0, 60, 84
1, 152189, Note_on_c, 0, 45, 66
1, 152217, Note_off_c, 0, 71, 39
1, 152247, Control_c, 0, 64, 37
1, 152262, Control_c, 0, 64, 41
1, 152277, Control_c, 0, 64, 44
1, 152292, Control_c, 0, 64, 47
1, 152313, Control_c, 0, 64, 50
1, 152328, Control_c, 0, 64, 54
1, 152343, Control_c, 0, 64, 57
1, 152358, Control_c, 0, 64, 60
1, 152359, Note_off_c, 0, 45, 63
1, 152373, Control_c, 0, 64, 62
1, 152378, Note_on_c, 0, 64, 65
1, 152387, Control_c, 0, 64, 64
1, 152402, Control_c, 0, 64, 65
1, 152417, Control_c, 0, 64, 66
1, 152447, Control_c, 0, 64, 66
1, 152462, Control_c, 0, 64, 64
1, 152477, Control_c, 0, 64, 62
1, 152492, Control_c, 0, 64, 56
1, 152505, Note_on_c, 0, 57, 70
1, 152507, Control_c, 0, 64, 39
1, 152515, Note_off_c, 0, 64, 61
1, 152522, Control_c, 0, 64, 0
1, 152530, Note_on_c, 0, 69, 62
1, 152554, Note_off_c, 0, 57, 60
1, 152576, Note_off_c, 0, 69, 63
1, 152577, Note_on_c, 0, 55, 67
1, 152653, Note_on_c, 0, 53, 57
1, 152661, Note_off_c, 0, 55, 63
1, 152702, Note_off_c, 0, 53, 63
1, 152711, Note_on_c, 0, 52, 65
1, 152798, Note_on_c, 0, 50, 74
1, 152802, Note_off_c, 0, 52, 64
1, 152803, Note_on_c, 0, 65, 92
1, 152833, Control_c, 0, 64, 20
1, 152842, Note_off_c, 0, 60, 63
1, 152847, Control_c, 0, 64, 40
1, 152863, Control_c, 0, 64, 48
1, 152878, Control_c, 0, 64, 54
1, 152893, Control_c, 0, 64, 58
1, 152908, Control_c, 0, 64, 60
1, 152920, Note_off_c, 0, 50, 60
1, 152922, Control_c, 0, 64, 61
1, 152952, Control_c, 0, 64, 61
1, 152978, Note_on_c, 0, 57, 69
1, 153044, Note_off_c, 0, 57, 62
1, 153078, Control_c, 0, 64, 60
1, 153093, Control_c, 0, 64, 58
1, 153108, Control_c, 0, 64, 54
1, 153123, Control_c, 0, 64, 46
1, 153125, Note_on_c, 0, 53, 65
1, 153132, Note_on_c, 0, 62, 70
1, 153137, Control_c, 0, 64, 8
1, 153152, Control_c, 0, 64, 0
1, 153164, Note_off_c, 0, 53, 59
1, 153202, Note_on_c, 0, 52, 63
1, 153260, Note_on_c, 0, 50, 70
1, 153281, Note_off_c, 0, 52, 63
1, 153329, Note_on_c, 0, 48, 66
1, 153341, Note_off_c, 0, 50, 61
1, 153376, Note_on_c, 0, 47, 72
1, 153380, Note_off_c, 0, 48, 61
1, 153394, Note_on_c, 0, 56, 90
1, 153434, Control_c, 0, 64, 35
1, 153437, Note_off_c, 0, 47, 64
1, 153449, Control_c, 0, 64, 51
1, 153464, Control_c, 0, 64, 58
1, 153478, Control_c, 0, 64, 61
1, 153484, Note_on_c, 0, 48, 64
1, 153493, Control_c, 0, 64, 63
1, 153508, Control_c, 0, 64, 64
1, 153517, Note_off_c, 0, 62, 54
1, 153546, Note_off_c, 0, 65, 59
1, 153552, Control_c, 0, 64, 63
1, 153567, Note_off_c, 0, 48, 64
1, 153567, Control_c, 0, 64, 63
1, 153570, Note_on_c, 0, 50, 69
1, 153582, Control_c, 0, 64, 62
1, 153597, Control_c, 0, 64, 61
1, 153612, Control_c, 0, 64, 59
1, 153626, Control_c, 0, 64, 56
1, 153641, Control_c, 0, 64, 51
1, 153656, Control_c, 0, 64, 44
1, 153670, Control_c, 0, 64, 33
1, 153685, Control_c, 0, 64, 23
1, 153700, Control_c, 0, 64, 19
1, 153720, Note_on_c, 0, 77, 90
1, 153746, Note_off_c, 0, 77, 67
1, 153807, Note_on_c, 0, 48, 61
1, 153812, Note_off_c, 0, 50, 58
1, 153825, Note_off_c, 0, 56, 63
1, 153826, Control_c, 0, 64, 18
1, 153878, Note_on_c, 0, 47, 65
1, 153884, Note_off_c, 0, 48, 63
1, 153937, Note_off_c, 0, 47, 63
1, 153943, Note_on_c, 0, 45, 64
1, 153994, Note_off_c, 0, 45, 63
1, 154002, Note_on_c, 0, 44, 80
1, 154008, Note_on_c, 0, 71, 89
1, 154047, Note_off_c, 0, 71, 67
1, 154070, Note_off_c, 0, 44, 65
1, 154084, Note_on_c, 0, 45, 74
1, 154093, Control_c, 0, 64, 19
1, 154153, Note_off_c, 0, 45, 63
1, 154158, Note_on_c, 0, 47, 79
1, 154324, Note_on_c, 0, 74, 72
1, 154348, Note_off_c, 0, 74, 69
1, 154364, Note_off_c, 0, 47, 62
1, 154384, Note_on_c, 0, 45, 69
1, 154453, Note_on_c, 0, 44, 76
1, 154492, Control_c, 0, 64, 20
1, 154493, Note_off_c, 0, 45, 63
1, 154507, Control_c, 0, 64, 21
1, 154515, Note_on_c, 0, 42, 75
1, 154518, Note_off_c, 0, 44, 66
1, 154560, Control_c, 0, 64, 22
1, 154599, Note_off_c, 0, 42, 62
1, 154608, Note_on_c, 0, 40, 84
1, 154617, Note_on_c, 0, 68, 89
1, 154637, Note_on_c, 0, 41, 8
1, 154686, Note_off_c, 0, 41, 34
1, 154811, Control_c, 0, 64, 23
1, 154924, Note_on_c, 0, 62, 86
1, 154989, Note_off_c, 0, 62, 63
1, 155090, Note_on_c, 0, 42, 74
1, 155096, Note_off_c, 0, 40, 65
1, 155108, Control_c, 0, 64, 24
1, 155162, Note_on_c, 0, 44, 72
1, 155166, Note_off_c, 0, 42, 64
1, 155219, Note_off_c, 0, 68, 55
1, 155225, Note_on_c, 0, 59, 89
1, 155226, Note_on_c, 0, 71, 83
1, 155231, Note_off_c, 0, 44, 64
1, 155232, Note_on_c, 0, 45, 78
1, 155281, Note_off_c, 0, 59, 64
1, 155323, Note_off_c, 0, 45, 64
1, 155327, Note_on_c, 0, 44, 75
1, 155402, Note_off_c, 0, 44, 63
1, 155405, Note_on_c, 0, 45, 76
1, 155478, Note_off_c, 0, 45, 63
1, 155486, Note_on_c, 0, 44, 67
1, 155535, Note_on_c, 0, 64, 86
1, 155559, Note_off_c, 0, 44, 63
1, 155564, Note_on_c, 0, 45, 74
1, 155584, Note_off_c, 0, 64, 65
1, 155632, Note_off_c, 0, 45, 62
1, 155634, Note_on_c, 0, 44, 67
1, 155679, Control_c, 0, 64, 19
1, 155694, Control_c, 0, 64, 0
1, 155698, Note_on_c, 0, 42, 73
1, 155699, Note_off_c, 0, 44, 62
1, 155783, Note_off_c, 0, 42, 64
1, 155787, Note_on_c, 0, 44, 64
1, 155833, Note_on_c, 0, 60, 81
1, 155847, Note_off_c, 0, 44, 64
1, 155850, Note_on_c, 0, 45, 86
1, 155884, Note_off_c, 0, 71, 61
1, 155886, Control_c, 0, 64, 30
1, 155901, Control_c, 0, 64, 47
1, 155904, Note_off_c, 0, 60, 65
1, 155916, Control_c, 0, 64, 56
1, 155931, Control_c, 0, 64, 63
1, 155946, Control_c, 0, 64, 68
1, 155961, Control_c, 0, 64, 73
1, 155976, Control_c, 0, 64, 82
1, 155991, Control_c, 0, 64, 89
1, 156006, Control_c, 0, 64, 94
1, 156020, Control_c, 0, 64, 97
1, 156057, Control_c, 0, 64, 96
1, 156071, Control_c, 0, 64, 96
1, 156086, Control_c, 0, 64, 94
1, 156101, Control_c, 0, 64, 92
1, 156116, Control_c, 0, 64, 90
1, 156128, Note_on_c, 0, 76, 84
1, 156131, Control_c, 0, 64, 85
1, 156146, Control_c, 0, 64, 79
1, 156161, Control_c, 0, 64, 72
1, 156176, Control_c, 0, 64, 64
1, 156191, Control_c, 0, 64, 50
1, 156203, Note_on_c, 0, 74, 82
1, 156205, Control_c, 0, 64, 22
1, 156220, Control_c, 0, 64, 0
1, 156238, Note_off_c, 0, 76, 63
1, 156244, Note_off_c, 0, 45, 57
1, 156270, Note_on_c, 0, 72, 84
1, 156274, Note_on_c, 0, 47, 60
1, 156332, Note_off_c, 0, 74, 57
1, 156343, Note_on_c, 0, 71, 90
1, 156346, Note_on_c, 0, 48, 66
1, 156346, Note_off_c, 0, 47, 63
1, 156348, Note_off_c, 0, 72, 64
1, 156399, Note_off_c, 0, 71, 62
1, 156401, Note_off_c, 0, 48, 62
1, 156416, Note_on_c, 0, 50, 76
1, 156420, Note_on_c, 0, 69, 89
1, 156495, Note_off_c, 0, 50, 60
1, 156506, Note_on_c, 0, 49, 74
1, 156560, Note_off_c, 0, 69, 49
1, 156564, Note_on_c, 0, 73, 85
1, 156569, Note_off_c, 0, 49, 64
1, 156578, Note_on_c, 0, 50, 75
1, 156607, Note_off_c, 0, 73, 65
1, 156631, Note_on_c, 0, 74, 49
1, 156635, Note_on_c, 0, 76, 88
1, 156649, Note_off_c, 0, 50, 61
1, 156653, Note_off_c, 0, 74, 60
1, 156654, Note_on_c, 0, 49, 71
1, 156702, Note_off_c, 0, 76, 68
1, 156710, Note_off_c, 0, 49, 62
1, 156712, Note_on_c, 0, 79, 93
1, 156714, Note_on_c, 0, 50, 71
1, 156781, Note_on_c, 0, 49, 65
1, 156784, Note_off_c, 0, 50, 59
1, 156851, Control_c, 0, 64, 8
1, 156855, Note_off_c, 0, 49, 64
1, 156861, Note_on_c, 0, 47, 69
1, 156891, Note_off_c, 0, 79, 66
1, 156910, Control_c, 0, 64, 0
1, 156935, Note_on_c, 0, 49, 73
1, 156936, Note_off_c, 0, 47, 63
1, 157002, Note_on_c, 0, 50, 75
1, 157004, Note_off_c, 0, 49, 65
1, 157006, Note_on_c, 0, 77, 93
1, 157043, Control_c, 0, 64, 12
1, 157058, Control_c, 0, 64, 41
1, 157073, Control_c, 0, 64, 53
1, 157076, Note_off_c, 0, 77, 65
1, 157088, Control_c, 0, 64, 61
1, 157103, Control_c, 0, 64, 65
1, 157118, Control_c, 0, 64, 69
1, 157133, Control_c, 0, 64, 75
1, 157147, Control_c, 0, 64, 84
1, 157162, Control_c, 0, 64, 96
1, 157177, Control_c, 0, 64, 112
1, 157192, Control_c, 0, 64, 127
1, 157267, Control_c, 0, 64, 115
1, 157282, Control_c, 0, 64, 99
1, 157296, Control_c, 0, 64, 87
1, 157310, Note_on_c, 0, 69, 81
1, 157311, Control_c, 0, 64, 75
1, 157326, Control_c, 0, 64, 64
1, 157341, Control_c, 0, 64, 38
1, 157356, Control_c, 0, 64, 0
1, 157379, Note_on_c, 0, 67, 73
1, 157393, Note_off_c, 0, 69, 63
1, 157431, Note_off_c, 0, 50, 63
1, 157439, Note_on_c, 0, 52, 60
1, 157442, Note_on_c, 0, 65, 79
1, 157446, Note_off_c, 0, 67, 66
1, 157511, Note_on_c, 0, 53, 71
1, 157514, Note_off_c, 0, 52, 64
1, 157517, Note_off_c, 0, 65, 64
1, 157519, Note_on_c, 0, 64, 82
1, 157583, Note_off_c, 0, 53, 63
1, 157583, Note_off_c, 0, 64, 65
1, 157601, Note_on_c, 0, 55, 70
1, 157603, Note_on_c, 0, 62, 81
1, 157679, Note_off_c, 0, 55, 62
1, 157687, Note_on_c, 0, 54, 66
1, 157720, Note_off_c, 0, 62, 36
1, 157732, Note_on_c, 0, 66, 75
1, 157740, Note_off_c, 0, 54, 63
1, 157756, Note_on_c, 0, 55, 68
1, 157781, Note_off_c, 0, 66, 64
1, 157799, Note_on_c, 0, 69, 81
1, 157822, Note_off_c, 0, 55, 62
1, 157836, Note_on_c, 0, 54, 63
1, 157867, Note_off_c, 0, 69, 65
1, 157872, Note_off_c, 0, 54, 67
1, 157882, Note_on_c, 0, 72, 86
1, 157885, Note_on_c, 0, 55, 71
1, 157946, Note_off_c, 0, 55, 61
1, 157949, Note_on_c, 0, 54, 70
1, 158012, Note_off_c, 0, 54, 63
1, 158029, Note_on_c, 0, 52, 61
1, 158101, Note_off_c, 0, 52, 62
1, 158107, Note_on_c, 0, 54, 57
1, 158131, Note_off_c, 0, 72, 64
1, 158156, Note_on_c, 0, 71, 83
1, 158164, Note_off_c, 0, 54, 66
1, 158170, Note_on_c, 0, 55, 63
1, 158209, Control_c, 0, 64, 26
1, 158212, Note_off_c, 0, 71, 62
1, 158223, Control_c, 0, 64, 43
1, 158238, Control_c, 0, 64, 52
1, 158253, Control_c, 0, 64, 58
1, 158267, Control_c, 0, 64, 61
1, 158282, Control_c, 0, 64, 64
1, 158304, Control_c, 0, 64, 65
1, 158325, Note_on_c, 0, 74, 71
1, 158334, Control_c, 0, 64, 64
1, 158349, Control_c, 0, 64, 63
1, 158360, Note_off_c, 0, 74, 66
1, 158364, Control_c, 0, 64, 61
1, 158379, Control_c, 0, 64, 57
1, 158381, Note_on_c, 0, 72, 86
1, 158393, Control_c, 0, 64, 52
1, 158408, Control_c, 0, 64, 43
1, 158423, Control_c, 0, 64, 28
1, 158438, Control_c, 0, 64, 10
1, 158446, Note_off_c, 0, 72, 65
1, 158453, Control_c, 0, 64, 0
1, 158456, Note_on_c, 0, 71, 89
1, 158505, Note_off_c, 0, 71, 63
1, 158611, Note_on_c, 0, 72, 83
1, 158613, Note_off_c, 0, 55, 63
1, 158620, Note_on_c, 0, 57, 62
1, 158668, Note_off_c, 0, 72, 65
1, 158678, Note_on_c, 0, 74, 79
1, 158683, Note_off_c, 0, 57, 65
1, 158686, Note_on_c, 0, 59, 66
1, 158733, Note_off_c, 0, 74, 64
1, 158740, Note_off_c, 0, 59, 63
1, 158751, Note_on_c, 0, 67, 86
1, 158756, Note_on_c, 0, 60, 75
1, 158820, Note_off_c, 0, 60, 59
1, 158851, Note_on_c, 0, 59, 70
1, 158896, Note_off_c, 0, 59, 61
1, 158918, Note_on_c, 0, 60, 75
1, 158973, Note_off_c, 0, 60, 61
1, 158996, Note_on_c, 0, 59, 63
1, 159005, Note_off_c, 0, 67, 60
1, 159041, Note_off_c, 0, 59, 65
1, 159060, Note_on_c, 0, 77, 92
1, 159068, Note_on_c, 0, 60, 71
1, 159106, Note_off_c, 0, 60, 59
1, 159130, Note_on_c, 0, 59, 69
1, 159187, Note_off_c, 0, 59, 62
1, 159210, Note_on_c, 0, 57, 58
1, 159249, Note_off_c, 0, 77, 62
1, 159268, Note_off_c, 0, 57, 62
1, 159285, Note_on_c, 0, 59, 65
1, 159326, Note_off_c, 0, 59, 66
1, 159326, Note_on_c, 0, 76, 84
1, 159334, Control_c, 0, 64, 33
1, 159336, Note_on_c, 0, 60, 62
1, 159349, Control_c, 0, 64, 49
1, 159358, Note_off_c, 0, 76, 65
1, 159363, Control_c, 0, 64, 57
1, 159378, Control_c, 0, 64, 63
1, 159393, Control_c, 0, 64, 67
1, 159408, Control_c, 0, 64, 74
1, 159423, Control_c, 0, 64, 88
1, 159437, Control_c, 0, 64, 107
1, 159452, Control_c, 0, 64, 127
1, 159491, Note_on_c, 0, 67, 75
1, 159496, Control_c, 0, 64, 113
1, 159511, Control_c, 0, 64, 90
1, 159526, Control_c, 0, 64, 77
1, 159539, Note_off_c, 0, 67, 64
1, 159541, Control_c, 0, 64, 66
1, 159547, Note_on_c, 0, 65, 77
1, 159556, Control_c, 0, 64, 53
1, 159571, Control_c, 0, 64, 28
1, 159586, Control_c, 0, 64, 20
1, 159603, Note_off_c, 0, 65, 64
1, 159618, Note_on_c, 0, 64, 80
1, 159693, Note_off_c, 0, 64, 60
1, 159705, Control_c, 0, 64, 19
1, 159728, Note_off_c, 0, 60, 61
1, 159754, Note_on_c, 0, 65, 78
1, 159761, Note_on_c, 0, 62, 57
1, 159765, Control_c, 0, 64, 18
1, 159780, Control_c, 0, 64, 15
1, 159801, Control_c, 0, 64, 0
1, 159819, Note_off_c, 0, 62, 61
1, 159824, Note_on_c, 0, 64, 60
1, 159824, Note_off_c, 0, 65, 66
1, 159833, Note_on_c, 0, 67, 74
1, 159863, Note_off_c, 0, 64, 62
1, 159881, Note_off_c, 0, 67, 59
1, 159900, Note_on_c, 0, 60, 84
1, 159905, Note_on_c, 0, 65, 60
1, 159950, Note_off_c, 0, 65, 62
1, 159964, Control_c, 0, 64, 36
1, 159978, Note_on_c, 0, 64, 62
1, 159979, Control_c, 0, 64, 50
1, 159994, Control_c, 0, 64, 57
1, 160009, Control_c, 0, 64, 60
1, 160013, Note_off_c, 0, 60, 49
1, 160016, Note_off_c, 0, 64, 61
1, 160024, Control_c, 0, 64, 62
1, 160039, Control_c, 0, 64, 63
1, 160052, Note_on_c, 0, 65, 62
1, 160054, Control_c, 0, 64, 64
1, 160068, Control_c, 0, 64, 65
1, 160083, Control_c, 0, 64, 66
1, 160090, Note_off_c, 0, 65, 62
1, 160124, Note_on_c, 0, 64, 59
1, 160142, Control_c, 0, 64, 66
1, 160157, Control_c, 0, 64, 65
1, 160160, Note_off_c, 0, 64, 63
1, 160172, Control_c, 0, 64, 63
1, 160176, Note_on_c, 0, 70, 81
1, 160186, Control_c, 0, 64, 60
1, 160190, Note_on_c, 0, 65, 68
1, 160201, Control_c, 0, 64, 55
1, 160216, Control_c, 0, 64, 46
1, 160231, Control_c, 0, 64, 25
1, 160233, Note_off_c, 0, 65, 59
1, 160246, Control_c, 0, 64, 0
1, 160254, Note_on_c, 0, 64, 61
1, 160294, Note_off_c, 0, 64, 63
1, 160316, Note_on_c, 0, 62, 58
1, 160379, Note_off_c, 0, 62, 61
1, 160404, Note_on_c, 0, 64, 58
1, 160441, Note_off_c, 0, 70, 64
1, 160448, Note_off_c, 0, 64, 60
1, 160461, Note_on_c, 0, 69, 79
1, 160483, Note_on_c, 0, 65, 64
1, 160499, Control_c, 0, 64, 18
1, 160514, Control_c, 0, 64, 35
1, 160529, Control_c, 0, 64, 43
1, 160551, Control_c, 0, 64, 50
1, 160566, Control_c, 0, 64, 56
1, 160581, Control_c, 0, 64, 59
1, 160596, Control_c, 0, 64, 61
1, 160611, Control_c, 0, 64, 63
1, 160625, Control_c, 0, 64, 64
1, 160633, Note_off_c, 0, 69, 41
1, 160639, Note_on_c, 0, 71, 75
1, 160640, Control_c, 0, 64, 65
1, 160670, Control_c, 0, 64, 66
1, 160704, Note_on_c, 0, 73, 85
1, 160704, Note_off_c, 0, 71, 55
1, 160714, Control_c, 0, 64, 65
1, 160764, Note_off_c, 0, 73, 67
1, 160778, Note_on_c, 0, 74, 88
1, 160788, Control_c, 0, 64, 65
1, 160803, Control_c, 0, 64, 64
1, 160817, Control_c, 0, 64, 63
1, 160832, Control_c, 0, 64, 61
1, 160847, Control_c, 0, 64, 57
1, 160862, Control_c, 0, 64, 52
1, 160877, Control_c, 0, 64, 39
1, 160891, Control_c, 0, 64, 0
1, 160923, Note_off_c, 0, 65, 49
1, 160945, Note_on_c, 0, 67, 66
1, 161004, Note_off_c, 0, 67, 64
1, 161010, Note_on_c, 0, 69, 70
1, 161058, Note_on_c, 0, 81, 93
1, 161076, Note_off_c, 0, 69, 63
1, 161079, Note_on_c, 0, 70, 78
1, 161114, Control_c, 0, 64, 30
1, 161129, Control_c, 0, 64, 46
1, 161143, Control_c, 0, 64, 56
1, 161145, Note_off_c, 0, 70, 62
1, 161158, Control_c, 0, 64, 63
1, 161162, Note_on_c, 0, 69, 66
1, 161173, Control_c, 0, 64, 66
1, 161188, Control_c, 0, 64, 69
1, 161203, Control_c, 0, 64, 72
1, 161217, Note_off_c, 0, 69, 63
1, 161217, Control_c, 0, 64, 74
1, 161227, Note_on_c, 0, 70, 73
1, 161233, Control_c, 0, 64, 75
1, 161278, Control_c, 0, 64, 76
1, 161295, Note_off_c, 0, 70, 63
1, 161308, Note_on_c, 0, 69, 64
1, 161315, Control_c, 0, 64, 76
1, 161330, Control_c, 0, 64, 76
1, 161340, Note_off_c, 0, 74, 54
1, 161345, Control_c, 0, 64, 75
1, 161358, Note_on_c, 0, 73, 82
1, 161359, Control_c, 0, 64, 74
1, 161362, Note_off_c, 0, 69, 61
1, 161374, Control_c, 0, 64, 70
1, 161381, Note_on_c, 0, 70, 71
1, 161389, Control_c, 0, 64, 66
1, 161404, Control_c, 0, 64, 59
1, 161419, Control_c, 0, 64, 31
1, 161434, Control_c, 0, 64, 0
1, 161441, Note_off_c, 0, 70, 64
1, 161458, Note_on_c, 0, 69, 58
1, 161493, Note_off_c, 0, 73, 61
1, 161497, Note_off_c, 0, 69, 64
1, 161515, Note_on_c, 0, 67, 68
1, 161588, Note_off_c, 0, 67, 63
1, 161589, Note_on_c, 0, 69, 73
1, 161626, Note_off_c, 0, 81, 61
1, 161658, Note_on_c, 0, 77, 96
1, 161661, Note_on_c, 0, 74, 88
1, 161663, Note_off_c, 0, 69, 62
1, 161669, Note_on_c, 0, 70, 73
1, 161670, Control_c, 0, 64, 28
1, 161684, Control_c, 0, 64, 49
1, 161691, Note_off_c, 0, 70, 70
1, 161699, Control_c, 0, 64, 61
1, 161714, Control_c, 0, 64, 66
1, 161729, Control_c, 0, 64, 73
1, 161744, Control_c, 0, 64, 89
1, 161759, Control_c, 0, 64, 127
1, 161817, Note_on_c, 0, 58, 78
1, 161887, Note_off_c, 0, 58, 65
1, 161891, Note_on_c, 0, 60, 77
1, 161907, Control_c, 0, 64, 109
1, 161922, Control_c, 0, 64, 83
1, 161937, Control_c, 0, 64, 65
1, 161952, Control_c, 0, 64, 28
1, 161958, Note_off_c, 0, 60, 62
1, 161962, Note_on_c, 0, 62, 79
1, 161966, Control_c, 0, 64, 0
1, 162016, Note_on_c, 0, 60, 59
1, 162024, Note_off_c, 0, 62, 59
1, 162096, Note_on_c, 0, 58, 77
1, 162114, Note_off_c, 0, 60, 62
1, 162158, Note_off_c, 0, 58, 63
1, 162164, Note_on_c, 0, 57, 79
1, 162230, Note_off_c, 0, 57, 61
1, 162233, Note_on_c, 0, 55, 84
1, 162244, Note_on_c, 0, 82, 95
1, 162271, Control_c, 0, 64, 39
1, 162274, Note_off_c, 0, 77, 56
1, 162281, Note_off_c, 0, 74, 59
1, 162282, Note_on_c, 0, 81, 83
1, 162286, Control_c, 0, 64, 55
1, 162301, Control_c, 0, 64, 63
1, 162307, Note_on_c, 0, 53, 63
1, 162312, Note_off_c, 0, 55, 64
1, 162315, Control_c, 0, 64, 66
1, 162330, Control_c, 0, 64, 70
1, 162345, Control_c, 0, 64, 76
1, 162360, Control_c, 0, 64, 85
1, 162373, Note_off_c, 0, 53, 63
1, 162375, Control_c, 0, 64, 95
1, 162377, Note_off_c, 0, 81, 60
1, 162380, Note_off_c, 0, 82, 56
1, 162386, Note_on_c, 0, 55, 80
1, 162389, Control_c, 0, 64, 104
1, 162404, Control_c, 0, 64, 107
1, 162419, Control_c, 0, 64, 105
1, 162434, Control_c, 0, 64, 104
1, 162449, Control_c, 0, 64, 103
1, 162455, Note_off_c, 0, 55, 63
1, 162457, Note_on_c, 0, 57, 86
1, 162463, Control_c, 0, 64, 100
1, 162478, Control_c, 0, 64, 98
1, 162493, Control_c, 0, 64, 93
1, 162507, Control_c, 0, 64, 87
1, 162519, Note_off_c, 0, 57, 58
1, 162522, Control_c, 0, 64, 79
1, 162534, Note_on_c, 0, 58, 81
1, 162537, Control_c, 0, 64, 69
1, 162552, Control_c, 0, 64, 56
1, 162555, Note_on_c, 0, 82, 28
1, 162567, Control_c, 0, 64, 0
1, 162598, Note_off_c, 0, 58, 64
1, 162600, Note_on_c, 0, 57, 72
1, 162664, Note_on_c, 0, 55, 77
1, 162679, Note_off_c, 0, 57, 64
1, 162719, Note_off_c, 0, 55, 64
1, 162743, Note_on_c, 0, 53, 59
1, 162822, Note_off_c, 0, 53, 62
1, 162829, Note_on_c, 0, 73, 95
1, 162830, Note_on_c, 0, 52, 79
1, 162871, Control_c, 0, 64, 26
1, 162875, Note_off_c, 0, 82, 55
1, 162886, Control_c, 0, 64, 47
1, 162901, Control_c, 0, 64, 56
1, 162902, Note_off_c, 0, 52, 65
1, 162912, Note_on_c, 0, 53, 81
1, 162915, Control_c, 0, 64, 61
1, 162930, Control_c, 0, 64, 63
1, 162945, Control_c, 0, 64, 64
1, 162960, Control_c, 0, 64, 66
1, 162971, Note_off_c, 0, 53, 62
1, 162975, Control_c, 0, 64, 67
1, 162978, Note_on_c, 0, 55, 84
1, 162990, Control_c, 0, 64, 67
1, 163079, Control_c, 0, 64, 67
1, 163093, Control_c, 0, 64, 66
1, 163108, Control_c, 0, 64, 65
1, 163123, Control_c, 0, 64, 62
1, 163127, Note_on_c, 0, 70, 91
1, 163137, Control_c, 0, 64, 57
1, 163152, Control_c, 0, 64, 49
1, 163167, Control_c, 0, 64, 34
1, 163175, Note_off_c, 0, 70, 67
1, 163182, Control_c, 0, 64, 0
1, 163203, Note_off_c, 0, 55, 61
1, 163209, Note_on_c, 0, 53, 74
1, 163276, Note_on_c, 0, 52, 73
1, 163324, Note_off_c, 0, 53, 62
1, 163344, Note_on_c, 0, 50, 73
1, 163357, Note_off_c, 0, 52, 65
1, 163398, Note_off_c, 0, 50, 63
1, 163424, Note_on_c, 0, 64, 91
1, 163437, Note_on_c, 0, 49, 78
1, 163444, Note_off_c, 0, 73, 60
1, 163471, Note_off_c, 0, 64, 68
1, 163496, Note_off_c, 0, 49, 66
1, 163512, Note_on_c, 0, 50, 82
1, 163590, Note_off_c, 0, 50, 64
1, 163592, Note_on_c, 0, 52, 81
1, 163749, Note_on_c, 0, 67, 92
1, 163783, Note_off_c, 0, 67, 65
1, 163789, Note_off_c, 0, 52, 56
1, 163819, Note_on_c, 0, 50, 77
1, 163878, Note_on_c, 0, 49, 75
1, 163929, Note_off_c, 0, 50, 63
1, 163950, Note_on_c, 0, 47, 74
1, 163952, Note_off_c, 0, 49, 66
1, 164030, Note_on_c, 0, 45, 85
1, 164039, Note_on_c, 0, 61, 92
1, 164054, Note_off_c, 0, 47, 47
1, 164078, Control_c, 0, 64, 10
1, 164089, Note_off_c, 0, 61, 63
1, 164093, Control_c, 0, 64, 42
1, 164108, Control_c, 0, 64, 51
1, 164123, Control_c, 0, 64, 56
1, 164138, Control_c, 0, 64, 59
1, 164153, Control_c, 0, 64, 61
1, 164167, Control_c, 0, 64, 62
1, 164182, Control_c, 0, 64, 63
1, 164338, Control_c, 0, 64, 62
1, 164346, Note_on_c, 0, 79, 94
1, 164348, Note_on_c, 0, 76, 90
1, 164353, Control_c, 0, 64, 58
1, 164367, Control_c, 0, 64, 52
1, 164382, Control_c, 0, 64, 40
1, 164397, Note_off_c, 0, 76, 63
1, 164397, Control_c, 0, 64, 0
1, 164404, Note_off_c, 0, 79, 67
1, 164501, Note_off_c, 0, 45, 63
1, 164505, Note_on_c, 0, 47, 70
1, 164576, Note_on_c, 0, 49, 71
1, 164594, Note_off_c, 0, 47, 63
1, 164649, Note_off_c, 0, 49, 63
1, 164653, Note_on_c, 0, 76, 95
1, 164656, Note_on_c, 0, 69, 84
1, 164656, Note_on_c, 0, 50, 75
1, 164707, Note_on_c, 0, 77, 6
1, 164719, Note_off_c, 0, 76, 65
1, 164721, Note_off_c, 0, 77, 39
1, 164741, Note_off_c, 0, 50, 62
1, 164748, Note_on_c, 0, 49, 72
1, 164808, Note_off_c, 0, 49, 63
1, 164814, Note_on_c, 0, 50, 71
1, 164892, Note_off_c, 0, 50, 61
1, 164898, Note_on_c, 0, 49, 69
1, 164942, Note_off_c, 0, 49, 62
1, 164948, Note_on_c, 0, 81, 88
1, 164951, Note_on_c, 0, 50, 67
1, 164990, Control_c, 0, 64, 38
1, 165005, Control_c, 0, 64, 49
1, 165011, Note_off_c, 0, 81, 65
1, 165016, Note_off_c, 0, 50, 61
1, 165020, Control_c, 0, 64, 54
1, 165023, Note_on_c, 0, 49, 67
1, 165042, Control_c, 0, 64, 58
1, 165056, Control_c, 0, 64, 61
1, 165071, Control_c, 0, 64, 63
1, 165086, Control_c, 0, 64, 65
1, 165096, Note_off_c, 0, 49, 64
1, 165101, Control_c, 0, 64, 67
1, 165102, Note_on_c, 0, 47, 71
1, 165115, Control_c, 0, 64, 69
1, 165130, Control_c, 0, 64, 72
1, 165145, Control_c, 0, 64, 74
1, 165157, Note_on_c, 0, 49, 64
1, 165160, Control_c, 0, 64, 75
1, 165184, Note_off_c, 0, 47, 64
1, 165190, Control_c, 0, 64, 73
1, 165202, Note_off_c, 0, 49, 63
1, 165205, Control_c, 0, 64, 68
1, 165220, Control_c, 0, 64, 62
1, 165235, Control_c, 0, 64, 48
1, 165244, Note_on_c, 0, 50, 89
1, 165248, Note_on_c, 0, 77, 96
1, 165250, Control_c, 0, 64, 0
1, 165309, Note_off_c, 0, 50, 67
1, 165312, Note_off_c, 0, 77, 65
1, 165312, Note_off_c, 0, 69, 21
1, 165327, Note_on_c, 0, 52, 86
1, 165397, Note_off_c, 0, 52, 65
1, 165401, Note_on_c, 0, 53, 84
1, 165551, Note_on_c, 0, 74, 84
1, 165553, Note_on_c, 0, 69, 78
1, 165577, Note_off_c, 0, 69, 68
1, 165585, Note_off_c, 0, 74, 64
1, 165593, Note_off_c, 0, 53, 54
1, 165621, Note_on_c, 0, 52, 74
1, 165685, Note_on_c, 0, 50, 70
1, 165726, Note_off_c, 0, 52, 64
1, 165755, Note_on_c, 0, 48, 73
1, 165761, Note_off_c, 0, 50, 65
1, 165813, Note_off_c, 0, 48, 63
1, 165836, Note_on_c, 0, 62, 87
1, 165847, Note_on_c, 0, 47, 91
1, 165880, Note_off_c, 0, 62, 67
1, 165912, Note_off_c, 0, 47, 66
1, 165918, Note_on_c, 0, 48, 89
1, 165984, Note_off_c, 0, 48, 62
1, 165992, Note_on_c, 0, 50, 82
1, 166150, Note_on_c, 0, 65, 94
1, 166178, Note_off_c, 0, 65, 65
1, 166216, Note_off_c, 0, 50, 52
1, 166230, Note_on_c, 0, 48, 75
1, 166299, Note_on_c, 0, 47, 73
1, 166345, Note_off_c, 0, 48, 63
1, 166346, Note_off_c, 0, 47, 65
1, 166361, Note_on_c, 0, 45, 78
1, 166442, Note_on_c, 0, 59, 91
1, 166443, Note_on_c, 0, 43, 87
1, 166443, Note_off_c, 0, 45, 65
1, 166478, Note_off_c, 0, 59, 67
1, 166502, Control_c, 0, 64, 41
1, 166517, Control_c, 0, 64, 51
1, 166540, Control_c, 0, 64, 56
1, 166555, Control_c, 0, 64, 58
1, 166569, Control_c, 0, 64, 60
1, 166584, Control_c, 0, 64, 60
1, 166747, Control_c, 0, 64, 60
1, 166761, Control_c, 0, 64, 59
1, 166767, Note_on_c, 0, 77, 97
1, 166773, Note_on_c, 0, 74, 79
1, 166776, Control_c, 0, 64, 57
1, 166791, Control_c, 0, 64, 53
1, 166797, Note_off_c, 0, 74, 65
1, 166806, Control_c, 0, 64, 46
1, 166820, Note_off_c, 0, 77, 65
1, 166821, Control_c, 0, 64, 38
1, 166837, Control_c, 0, 64, 29
1, 166851, Control_c, 0, 64, 17
1, 166866, Control_c, 0, 64, 0
1, 166948, Note_on_c, 0, 45, 69
1, 166950, Note_off_c, 0, 43, 65
1, 167014, Note_on_c, 0, 47, 71
1, 167033, Note_off_c, 0, 45, 63
1, 167073, Note_off_c, 0, 47, 64
1, 167082, Note_on_c, 0, 67, 82
1, 167083, Note_on_c, 0, 74, 87
1, 167086, Note_on_c, 0, 48, 80
1, 167140, Note_off_c, 0, 74, 65
1, 167157, Note_off_c, 0, 48, 58
1, 167175, Note_on_c, 0, 47, 76
1, 167238, Note_off_c, 0, 47, 63
1, 167253, Note_on_c, 0, 48, 78
1, 167327, Note_off_c, 0, 48, 63
1, 167338, Note_on_c, 0, 47, 71
1, 167390, Note_on_c, 0, 79, 89
1, 167393, Note_off_c, 0, 47, 59
1, 167409, Note_on_c, 0, 48, 74
1, 167419, Note_off_c, 0, 67, 59
1, 167437, Note_off_c, 0, 79, 65
1, 167469, Note_off_c, 0, 48, 60
1, 167483, Note_on_c, 0, 47, 71
1, 167551, Note_on_c, 0, 45, 69
1, 167552, Note_off_c, 0, 47, 63
1, 167619, Note_off_c, 0, 45, 63
1, 167627, Note_on_c, 0, 72, 33
1, 167632, Note_on_c, 0, 47, 67
1, 167659, Note_off_c, 0, 72, 55
1, 167694, Note_on_c, 0, 76, 92
1, 167703, Note_on_c, 0, 48, 88
1, 167711, Note_off_c, 0, 47, 63
1, 167745, Note_off_c, 0, 76, 66
1, 167748, Control_c, 0, 64, 31
1, 167763, Control_c, 0, 64, 48
1, 167778, Control_c, 0, 64, 55
1, 167793, Control_c, 0, 64, 59
1, 167798, Note_off_c, 0, 48, 64
1, 167807, Control_c, 0, 64, 64
1, 167822, Control_c, 0, 64, 67
1, 167838, Control_c, 0, 64, 71
1, 167853, Control_c, 0, 64, 75
1, 167868, Control_c, 0, 64, 77
1, 167956, Control_c, 0, 64, 75
1, 167971, Control_c, 0, 64, 72
1, 167986, Control_c, 0, 64, 65
1, 168001, Control_c, 0, 64, 59
1, 168003, Note_on_c, 0, 72, 88
1, 168016, Control_c, 0, 64, 41
1, 168038, Control_c, 0, 64, 0
1, 168065, Note_off_c, 0, 72, 67
1, 168095, Note_on_c, 0, 60, 79
1, 168168, Note_on_c, 0, 62, 73
1, 168174, Note_off_c, 0, 60, 66
1, 168234, Note_on_c, 0, 64, 89
1, 168243, Note_off_c, 0, 62, 63
1, 168305, Note_off_c, 0, 64, 62
1, 168309, Note_on_c, 0, 69, 91
1, 168317, Note_on_c, 0, 65, 93
1, 168385, Note_off_c, 0, 69, 59
1, 168423, Control_c, 0, 64, 10
1, 168439, Control_c, 0, 64, 14
1, 168454, Control_c, 0, 64, 17
1, 168469, Control_c, 0, 64, 19
1, 168499, Control_c, 0, 64, 20
1, 168565, Note_off_c, 0, 65, 51
1, 168633, Note_on_c, 0, 77, 97
1, 168666, Note_off_c, 0, 77, 68
1, 168712, Note_on_c, 0, 64, 77
1, 168767, Note_off_c, 0, 64, 64
1, 168782, Note_on_c, 0, 62, 79
1, 168850, Note_on_c, 0, 60, 72
1, 168890, Note_off_c, 0, 62, 61
1, 168926, Note_on_c, 0, 59, 87
1, 168928, Note_off_c, 0, 60, 67
1, 168931, Note_on_c, 0, 74, 83
1, 168976, Note_off_c, 0, 74, 64
1, 169072, Note_off_c, 0, 59, 63
1, 169223, Note_on_c, 0, 71, 80
1, 169229, Note_on_c, 0, 62, 77
1, 169256, Note_off_c, 0, 62, 68
1, 169259, Note_off_c, 0, 71, 64
1, 169300, Note_on_c, 0, 47, 80
1, 169321, Control_c, 0, 64, 19
1, 169363, Note_off_c, 0, 47, 65
1, 169370, Note_on_c, 0, 48, 78
1, 169394, Control_c, 0, 64, 12
1, 169409, Control_c, 0, 64, 0
1, 169446, Note_on_c, 0, 50, 81
1, 169454, Note_off_c, 0, 48, 63
1, 169524, Note_on_c, 0, 68, 88
1, 169526, Note_on_c, 0, 59, 80
1, 169526, Note_off_c, 0, 50, 65
1, 169534, Note_on_c, 0, 52, 85
1, 169552, Note_off_c, 0, 59, 69
1, 169575, Note_off_c, 0, 68, 63
1, 169594, Control_c, 0, 64, 35
1, 169609, Control_c, 0, 64, 42
1, 169624, Control_c, 0, 64, 46
1, 169639, Control_c, 0, 64, 49
1, 169653, Control_c, 0, 64, 50
1, 169795, Note_off_c, 0, 52, 59
1, 169817, Note_on_c, 0, 76, 82
1, 169819, Note_on_c, 0, 68, 84
1, 169846, Control_c, 0, 64, 49
1, 169858, Note_off_c, 0, 76, 63
1, 169861, Control_c, 0, 64, 47
1, 169862, Note_off_c, 0, 68, 62
1, 169876, Control_c, 0, 64, 44
1, 169891, Control_c, 0, 64, 41
1, 169906, Control_c, 0, 64, 38
1, 169906, Note_on_c, 0, 50, 76
1, 169920, Control_c, 0, 64, 33
1, 169935, Control_c, 0, 64, 27
1, 169950, Control_c, 0, 64, 17
1, 169965, Control_c, 0, 64, 0
1, 169967, Note_off_c, 0, 50, 64
1, 169969, Note_on_c, 0, 48, 70
1, 170024, Note_on_c, 0, 47, 68
1, 170049, Note_off_c, 0, 48, 62
1, 170097, Note_on_c, 0, 72, 75
1, 170100, Note_on_c, 0, 69, 81
1, 170102, Note_on_c, 0, 45, 75
1, 170103, Note_off_c, 0, 47, 63
1, 170202, Control_c, 0, 64, 37
1, 170217, Control_c, 0, 64, 46
1, 170232, Control_c, 0, 64, 52
1, 170247, Control_c, 0, 64, 59
1, 170262, Control_c, 0, 64, 63
1, 170264, Note_off_c, 0, 45, 64
1, 170281, Note_on_c, 0, 47, 69
1, 170284, Control_c, 0, 64, 65
1, 170299, Control_c, 0, 64, 66
1, 170314, Control_c, 0, 64, 66
1, 170329, Control_c, 0, 64, 66
1, 170339, Note_on_c, 0, 48, 71
1, 170344, Control_c, 0, 64, 65
1, 170350, Note_off_c, 0, 47, 64
1, 170358, Control_c, 0, 64, 64
1, 170373, Control_c, 0, 64, 62
1, 170388, Control_c, 0, 64, 59
1, 170402, Control_c, 0, 64, 53
1, 170406, Note_on_c, 0, 50, 79
1, 170417, Control_c, 0, 64, 40
1, 170419, Note_off_c, 0, 48, 64
1, 170432, Control_c, 0, 64, 19
1, 170447, Control_c, 0, 64, 0
1, 170472, Note_off_c, 0, 50, 63
1, 170483, Note_on_c, 0, 52, 74
1, 170562, Note_on_c, 0, 54, 80
1, 170576, Note_off_c, 0, 52, 64
1, 170627, Note_on_c, 0, 56, 80
1, 170648, Note_off_c, 0, 54, 65
1, 170669, Note_off_c, 0, 69, 56
1, 170702, Note_on_c, 0, 57, 82
1, 170702, Note_off_c, 0, 56, 64
1, 170750, Note_off_c, 0, 72, 55
1, 170781, Note_on_c, 0, 71, 78
1, 170802, Control_c, 0, 64, 15
1, 170818, Control_c, 0, 64, 33
1, 170833, Control_c, 0, 64, 42
1, 170848, Control_c, 0, 64, 47
1, 170860, Note_on_c, 0, 69, 79
1, 170863, Control_c, 0, 64, 51
1, 170864, Note_off_c, 0, 71, 64
1, 170877, Control_c, 0, 64, 54
1, 170892, Control_c, 0, 64, 57
1, 170907, Control_c, 0, 64, 59
1, 170913, Note_off_c, 0, 69, 66
1, 170922, Control_c, 0, 64, 62
1, 170928, Note_on_c, 0, 67, 79
1, 170937, Control_c, 0, 64, 63
1, 170952, Control_c, 0, 64, 64
1, 170966, Control_c, 0, 64, 65
1, 170981, Control_c, 0, 64, 64
1, 170996, Control_c, 0, 64, 64
1, 170998, Note_on_c, 0, 65, 82
1, 171000, Note_off_c, 0, 67, 56
1, 171011, Control_c, 0, 64, 63
1, 171032, Control_c, 0, 64, 61
1, 171047, Control_c, 0, 64, 57
1, 171062, Control_c, 0, 64, 51
1, 171072, Note_on_c, 0, 64, 85
1, 171072, Note_off_c, 0, 65, 65
1, 171077, Control_c, 0, 64, 46
1, 171092, Control_c, 0, 64, 40
1, 171107, Control_c, 0, 64, 33
1, 171122, Control_c, 0, 64, 25
1, 171127, Note_on_c, 0, 62, 79
1, 171128, Note_off_c, 0, 64, 64
1, 171137, Control_c, 0, 64, 19
1, 171151, Control_c, 0, 64, 0
1, 171202, Note_on_c, 0, 60, 80
1, 171202, Note_off_c, 0, 62, 64
1, 171269, Note_off_c, 0, 60, 65
1, 171274, Note_on_c, 0, 62, 84
1, 171351, Note_on_c, 0, 71, 75
1, 171358, Control_c, 0, 64, 30
1, 171373, Control_c, 0, 64, 44
1, 171388, Control_c, 0, 64, 50
1, 171403, Control_c, 0, 64, 55
1, 171408, Note_off_c, 0, 62, 58
1, 171417, Control_c, 0, 64, 58
1, 171418, Note_off_c, 0, 71, 64
1, 171419, Note_on_c, 0, 72, 77
1, 171432, Control_c, 0, 64, 60
1, 171447, Control_c, 0, 64, 62
1, 171462, Control_c, 0, 64, 64
1, 171477, Control_c, 0, 64, 65
1, 171483, Note_off_c, 0, 72, 65
1, 171484, Note_on_c, 0, 74, 81
1, 171492, Control_c, 0, 64, 67
1, 171506, Control_c, 0, 64, 69
1, 171529, Note_off_c, 0, 74, 62
1, 171530, Note_off_c, 0, 57, 63
1, 171536, Control_c, 0, 64, 67
1, 171551, Control_c, 0, 64, 62
1, 171559, Note_on_c, 0, 56, 73
1, 171561, Note_on_c, 0, 59, 83
1, 171563, Note_on_c, 0, 76, 78
1, 171566, Control_c, 0, 64, 52
1, 171581, Control_c, 0, 64, 21
1, 171596, Control_c, 0, 64, 0
1, 171620, Note_off_c, 0, 76, 61
1, 171629, Note_on_c, 0, 78, 79
1, 171634, Note_off_c, 0, 59, 56
1, 171666, Note_off_c, 0, 56, 59
1, 171693, Note_off_c, 0, 78, 64
1, 171696, Note_on_c, 0, 80, 74
1, 171706, Note_on_c, 0, 57, 77
1, 171714, Note_on_c, 0, 54, 69
1, 171735, Note_off_c, 0, 80, 66
1, 171760, Note_on_c, 0, 81, 77
1, 171791, Note_off_c, 0, 57, 62
1, 171809, Note_off_c, 0, 54, 64
1, 171847, Note_off_c, 0, 81, 63
1, 171853, Note_on_c, 0, 83, 91
1, 171860, Note_on_c, 0, 52, 85
1, 171865, Note_on_c, 0, 56, 86
1, 171901, Control_c, 0, 64, 35
1, 171916, Control_c, 0, 64, 51
1, 171930, Control_c, 0, 64, 59
1, 171939, Note_on_c, 0, 81, 78
1, 171945, Control_c, 0, 64, 63
1, 171951, Note_off_c, 0, 83, 64
1, 171960, Control_c, 0, 64, 65
1, 171974, Control_c, 0, 64, 69
1, 171989, Control_c, 0, 64, 75
1, 172004, Control_c, 0, 64, 86
1, 172010, Note_on_c, 0, 80, 78
1, 172018, Note_off_c, 0, 81, 63
1, 172019, Control_c, 0, 64, 101
1, 172034, Control_c, 0, 64, 127
1, 172071, Note_off_c, 0, 52, 61
1, 172091, Note_on_c, 0, 78, 79
1, 172100, Note_off_c, 0, 80, 64
1, 172123, Control_c, 0, 64, 112
1, 172138, Control_c, 0, 64, 86
1, 172151, Note_off_c, 0, 78, 65
1, 172153, Control_c, 0, 64, 70
1, 172163, Note_on_c, 0, 76, 71
1, 172168, Control_c, 0, 64, 56
1, 172170, Note_on_c, 0, 50, 69
1, 172182, Control_c, 0, 64, 0
1, 172193, Note_off_c, 0, 76, 66
1, 172232, Note_on_c, 0, 74, 78
1, 172296, Note_off_c, 0, 74, 61
1, 172314, Note_on_c, 0, 72, 77
1, 172363, Note_off_c, 0, 50, 63
1, 172366, Note_off_c, 0, 72, 64
1, 172384, Note_on_c, 0, 71, 71
1, 172392, Note_off_c, 0, 56, 64
1, 172427, Note_off_c, 0, 71, 57
1, 172442, Note_on_c, 0, 48, 90
1, 172442, Note_on_c, 0, 57, 88
1, 172446, Note_on_c, 0, 76, 86
1, 172533, Note_on_c, 0, 74, 72
1, 172548, Note_off_c, 0, 76, 58
1, 172609, Note_on_c, 0, 72, 74
1, 172618, Note_off_c, 0, 74, 60
1, 172688, Note_off_c, 0, 72, 61
1, 172690, Note_on_c, 0, 71, 71
1, 172724, Control_c, 0, 64, 10
1, 172739, Control_c, 0, 64, 34
1, 172742, Note_off_c, 0, 71, 64
1, 172753, Control_c, 0, 64, 44
1, 172767, Note_on_c, 0, 69, 68
1, 172768, Control_c, 0, 64, 50
1, 172783, Control_c, 0, 64, 53
1, 172797, Control_c, 0, 64, 56
1, 172804, Note_off_c, 0, 69, 64
1, 172812, Control_c, 0, 64, 59
1, 172827, Control_c, 0, 64, 60
1, 172836, Note_on_c, 0, 68, 75
1, 172842, Control_c, 0, 64, 62
1, 172857, Control_c, 0, 64, 63
1, 172872, Control_c, 0, 64, 64
1, 172887, Control_c, 0, 64, 66
1, 172890, Note_off_c, 0, 68, 63
1, 172901, Control_c, 0, 64, 68
1, 172907, Note_on_c, 0, 66, 71
1, 172916, Control_c, 0, 64, 72
1, 172931, Control_c, 0, 64, 77
1, 172946, Control_c, 0, 64, 82
1, 172961, Control_c, 0, 64, 85
1, 172963, Note_off_c, 0, 66, 63
1, 172975, Note_on_c, 0, 64, 72
1, 172991, Control_c, 0, 64, 84
1, 172994, Note_off_c, 0, 57, 53
1, 173005, Control_c, 0, 64, 83
1, 173020, Control_c, 0, 64, 81
1, 173035, Control_c, 0, 64, 76
1, 173044, Note_on_c, 0, 69, 82
1, 173046, Note_on_c, 0, 53, 97
1, 173050, Control_c, 0, 64, 69
1, 173052, Note_off_c, 0, 64, 34
1, 173065, Control_c, 0, 64, 63
1, 173066, Note_off_c, 0, 48, 47
1, 173078, Control_c, 0, 64, 43
1, 173093, Control_c, 0, 64, 0
1, 173126, Note_on_c, 0, 67, 65
1, 173142, Note_off_c, 0, 69, 62
1, 173186, Note_on_c, 0, 65, 74
1, 173220, Note_off_c, 0, 67, 63
1, 173272, Note_on_c, 0, 64, 73
1, 173276, Note_off_c, 0, 65, 60
1, 173331, Note_off_c, 0, 64, 65
1, 173349, Note_on_c, 0, 62, 74
1, 173396, Note_off_c, 0, 62, 61
1, 173424, Note_on_c, 0, 60, 72
1, 173427, Control_c, 0, 64, 15
1, 173442, Control_c, 0, 64, 30
1, 173457, Control_c, 0, 64, 40
1, 173472, Control_c, 0, 64, 50
1, 173487, Control_c, 0, 64, 58
1, 173495, Note_off_c, 0, 60, 64
1, 173496, Note_on_c, 0, 59, 73
1, 173501, Control_c, 0, 64, 61
1, 173516, Control_c, 0, 64, 62
1, 173531, Control_c, 0, 64, 64
1, 173546, Control_c, 0, 64, 66
1, 173551, Note_off_c, 0, 59, 64
1, 173561, Control_c, 0, 64, 69
1, 173567, Note_on_c, 0, 57, 78
1, 173575, Control_c, 0, 64, 73
1, 173590, Control_c, 0, 64, 77
1, 173605, Control_c, 0, 64, 81
1, 173614, Note_off_c, 0, 53, 58
1, 173620, Control_c, 0, 64, 82
1, 173635, Control_c, 0, 64, 81
1, 173640, Note_off_c, 0, 57, 60
1, 173644, Note_on_c, 0, 65, 83
1, 173645, Note_on_c, 0, 44, 91
1, 173650, Control_c, 0, 64, 76
1, 173665, Control_c, 0, 64, 69
1, 173680, Control_c, 0, 64, 49
1, 173694, Control_c, 0, 64, 0
1, 173719, Note_on_c, 0, 64, 71
1, 173748, Note_off_c, 0, 65, 61
1, 173782, Note_on_c, 0, 62, 73
1, 173804, Note_off_c, 0, 64, 58
1, 173864, Note_off_c, 0, 62, 63
1, 173865, Note_on_c, 0, 60, 75
1, 173914, Note_off_c, 0, 60, 65
1, 173935, Note_on_c, 0, 59, 71
1, 173978, Note_off_c, 0, 59, 61
1, 174016, Note_on_c, 0, 57, 79
1, 174087, Note_off_c, 0, 57, 62
1, 174099, Note_on_c, 0, 56, 68
1, 174139, Note_off_c, 0, 56, 62
1, 174147, Control_c, 0, 64, 29
1, 174158, Note_on_c, 0, 54, 80
1, 174162, Control_c, 0, 64, 42
1, 174177, Control_c, 0, 64, 50
1, 174191, Control_c, 0, 64, 57
1, 174206, Control_c, 0, 64, 62
1, 174207, Note_off_c, 0, 54, 65
1, 174221, Control_c, 0, 64, 65
1, 174236, Control_c, 0, 64, 68
1, 174239, Note_on_c, 0, 62, 75
1, 174250, Control_c, 0, 64, 69
1, 174265, Control_c, 0, 64, 70
1, 174295, Control_c, 0, 64, 69
1, 174310, Note_on_c, 0, 60, 71
1, 174324, Control_c, 0, 64, 69
1, 174335, Note_off_c, 0, 62, 59
1, 174339, Control_c, 0, 64, 68
1, 174354, Control_c, 0, 64, 67
1, 174365, Note_on_c, 0, 59, 74
1, 174368, Control_c, 0, 64, 67
1, 174383, Control_c, 0, 64, 66
1, 174387, Note_off_c, 0, 60, 63
1, 174413, Control_c, 0, 64, 65
1, 174425, Note_off_c, 0, 59, 64
1, 174428, Control_c, 0, 64, 64
1, 174437, Note_on_c, 0, 57, 78
1, 174443, Control_c, 0, 64, 63
1, 174458, Control_c, 0, 64, 59
1, 174472, Control_c, 0, 64, 53
1, 174487, Control_c, 0, 64, 47
1, 174502, Control_c, 0, 64, 44
1, 174503, Note_off_c, 0, 57, 58
1, 174513, Note_on_c, 0, 56, 81
1, 174517, Control_c, 0, 64, 43
1, 174532, Control_c, 0, 64, 42
1, 174536, Note_off_c, 0, 44, 35
1, 174547, Control_c, 0, 64, 41
1, 174561, Control_c, 0, 64, 40
1, 174575, Control_c, 0, 64, 39
1, 174583, Note_off_c, 0, 56, 66
1, 174584, Note_on_c, 0, 54, 85
1, 174605, Control_c, 0, 64, 38
1, 174620, Control_c, 0, 64, 37
1, 174634, Control_c, 0, 64, 36
1, 174649, Note_on_c, 0, 52, 72
1, 174658, Note_off_c, 0, 54, 63
1, 174714, Note_on_c, 0, 51, 82
1, 174717, Note_off_c, 0, 52, 65
1, 174723, Control_c, 0, 64, 36
1, 174738, Control_c, 0, 64, 35
1, 174753, Control_c, 0, 64, 34
1, 174778, Note_off_c, 0, 51, 65
1, 174794, Note_on_c, 0, 52, 88
1, 174836, Control_c, 0, 64, 34
1, 174866, Control_c, 0, 64, 33
1, 174880, Control_c, 0, 64, 33
1, 174895, Control_c, 0, 64, 32
1, 174910, Control_c, 0, 64, 32
1, 174925, Control_c, 0, 64, 31
1, 175098, Note_on_c, 0, 50, 83
1, 175151, Note_off_c, 0, 50, 62
1, 175194, Note_on_c, 0, 64, 68
1, 175260, Note_on_c, 0, 66, 74
1, 175262, Note_off_c, 0, 64, 57
1, 175328, Note_on_c, 0, 68, 76
1, 175332, Note_off_c, 0, 66, 62
1, 175386, Note_on_c, 0, 47, 83
1, 175397, Note_off_c, 0, 52, 64
1, 175399, Note_off_c, 0, 68, 65
1, 175403, Note_on_c, 0, 69, 78
1, 175467, Note_off_c, 0, 69, 62
1, 175476, Note_on_c, 0, 68, 80
1, 175554, Note_off_c, 0, 68, 62
1, 175559, Note_on_c, 0, 69, 81
1, 175625, Note_off_c, 0, 69, 64
1, 175626, Note_on_c, 0, 68, 74
1, 175644, Note_off_c, 0, 47, 56
1, 175695, Note_off_c, 0, 68, 62
1, 175696, Note_on_c, 0, 69, 74
1, 175699, Note_on_c, 0, 52, 85
1, 175763, Note_off_c, 0, 69, 62
1, 175766, Note_on_c, 0, 68, 80
1, 175819, Note_off_c, 0, 68, 64
1, 175843, Note_on_c, 0, 66, 78
1, 175906, Note_off_c, 0, 66, 59
1, 175908, Note_on_c, 0, 68, 81
1, 175928, Note_off_c, 0, 52, 62
1, 175940, Control_c, 0, 64, 25
1, 175955, Control_c, 0, 64, 0
1, 175963, Note_off_c, 0, 68, 64
1, 175983, Note_on_c, 0, 48, 85
1, 175987, Note_on_c, 0, 69, 90
1, 176103, Control_c, 0, 64, 16
1, 176118, Control_c, 0, 64, 31
1, 176133, Control_c, 0, 64, 37
1, 176148, Control_c, 0, 64, 41
1, 176162, Control_c, 0, 64, 45
1, 176177, Control_c, 0, 64, 48
1, 176192, Control_c, 0, 64, 50
1, 176206, Control_c, 0, 64, 52
1, 176221, Control_c, 0, 64, 53
1, 176236, Control_c, 0, 64, 54
1, 176248, Note_off_c, 0, 48, 61
1, 176288, Control_c, 0, 64, 49
1, 176302, Note_on_c, 0, 45, 83
1, 176303, Control_c, 0, 64, 37
1, 176318, Control_c, 0, 64, 0
1, 176362, Note_on_c, 0, 59, 75
1, 176434, Note_on_c, 0, 60, 73
1, 176437, Note_off_c, 0, 59, 63
1, 176467, Control_c, 0, 64, 29
1, 176482, Control_c, 0, 64, 38
1, 176496, Control_c, 0, 64, 44
1, 176497, Note_off_c, 0, 60, 62
1, 176504, Note_on_c, 0, 62, 73
1, 176511, Control_c, 0, 64, 49
1, 176526, Control_c, 0, 64, 55
1, 176528, Note_off_c, 0, 45, 63
1, 176541, Control_c, 0, 64, 61
1, 176556, Control_c, 0, 64, 64
1, 176571, Control_c, 0, 64, 66
1, 176574, Note_off_c, 0, 62, 63
1, 176577, Note_on_c, 0, 40, 85
1, 176584, Note_on_c, 0, 61, 75
1, 176586, Control_c, 0, 64, 67
1, 176600, Control_c, 0, 64, 68
1, 176615, Control_c, 0, 64, 69
1, 176643, Note_off_c, 0, 61, 60
1, 176644, Control_c, 0, 64, 68
1, 176645, Note_on_c, 0, 62, 72
1, 176659, Control_c, 0, 64, 68
1, 176674, Control_c, 0, 64, 67
1, 176689, Control_c, 0, 64, 67
1, 176703, Note_off_c, 0, 69, 0
1, 176704, Control_c, 0, 64, 66
1, 176711, Note_off_c, 0, 62, 62
1, 176715, Note_on_c, 0, 61, 72
1, 176718, Control_c, 0, 64, 65
1, 176733, Control_c, 0, 64, 64
1, 176740, Poly_aftertouch_c, 0, 69, 127
1, 176748, Control_c, 0, 64, 64
1, 176772, Note_off_c, 0, 61, 61
1, 176774, Note_on_c, 0, 62, 59
1, 176792, Control_c, 0, 64, 63
1, 176807, Control_c, 0, 64, 63
1, 176822, Control_c, 0, 64, 62
1, 176834, Note_off_c, 0, 62, 63
1, 176836, Note_on_c, 0, 61, 64
1, 176836, Control_c, 0, 64, 60
1, 176846, Note_off_c, 0, 40, 63
1, 176851, Control_c, 0, 64, 56
1, 176866, Control_c, 0, 64, 46
1, 176878, Note_on_c, 0, 43, 92
1, 176881, Control_c, 0, 64, 24
1, 176887, Note_on_c, 0, 62, 59
1, 176893, Note_off_c, 0, 61, 62
1, 176896, Control_c, 0, 64, 0
1, 176912, Poly_aftertouch_c, 0, 69, 0
1, 176954, Note_on_c, 0, 61, 66
1, 176970, Note_off_c, 0, 62, 63
1, 176985, Note_on_c, 0, 69, 19
1, 177028, Note_off_c, 0, 61, 62
1, 177033, Note_on_c, 0, 59, 77
1, 177082, Note_off_c, 0, 59, 50
1, 177089, Note_on_c, 0, 61, 71
1, 177137, Note_off_c, 0, 61, 64
1, 177152, Note_off_c, 0, 43, 0
1, 177161, Note_off_c, 0, 69, 0
1, 177161, Note_on_c, 0, 69, 32
1, 177164, Note_on_c, 0, 41, 81
1, 177164, Note_on_c, 0, 62, 84
1, 177172, Note_on_c, 0, 43, 30
1, 177203, Note_off_c, 0, 43, 56
1, 177243, Note_on_c, 0, 40, 68
1, 177255, Note_off_c, 0, 41, 65
1, 177316, Note_on_c, 0, 38, 84
1, 177326, Note_off_c, 0, 40, 62
1, 177460, Note_off_c, 0, 62, 60
1, 177493, Note_on_c, 0, 71, 86
1, 177495, Note_on_c, 0, 65, 78
1, 177534, Note_off_c, 0, 69, 27
1, 177556, Control_c, 0, 64, 31
1, 177571, Control_c, 0, 64, 48
1, 177585, Control_c, 0, 64, 56
1, 177600, Control_c, 0, 64, 62
1, 177615, Control_c, 0, 64, 67
1, 177630, Control_c, 0, 64, 75
1, 177645, Control_c, 0, 64, 86
1, 177647, Note_off_c, 0, 71, 61
1, 177659, Control_c, 0, 64, 99
1, 177666, Note_on_c, 0, 40, 88
1, 177674, Control_c, 0, 64, 127
1, 177683, Note_off_c, 0, 65, 62
1, 177692, Note_off_c, 0, 38, 38
1, 177766, Note_on_c, 0, 41, 85
1, 177769, Note_off_c, 0, 40, 64
1, 177830, Control_c, 0, 64, 123
1, 177845, Control_c, 0, 64, 86
1, 177860, Control_c, 0, 64, 66
1, 177874, Control_c, 0, 64, 0
1, 177880, Note_off_c, 0, 41, 61
1, 177884, Note_on_c, 0, 38, 75
1, 177889, Note_on_c, 0, 56, 81
1, 177896, Note_on_c, 0, 64, 78
1, 177978, Note_on_c, 0, 40, 81
1, 177982, Note_off_c, 0, 38, 63
1, 178064, Note_off_c, 0, 40, 62
1, 178068, Control_c, 0, 64, 22
1, 178069, Note_on_c, 0, 41, 82
1, 178082, Control_c, 0, 64, 36
1, 178097, Control_c, 0, 64, 45
1, 178112, Control_c, 0, 64, 52
1, 178127, Control_c, 0, 64, 56
1, 178142, Note_off_c, 0, 41, 51
1, 178142, Control_c, 0, 64, 61
1, 178155, Note_on_c, 0, 40, 80
1, 178157, Control_c, 0, 64, 64
1, 178172, Control_c, 0, 64, 67
1, 178187, Control_c, 0, 64, 69
1, 178202, Control_c, 0, 64, 72
1, 178216, Control_c, 0, 64, 75
1, 178222, Note_off_c, 0, 40, 62
1, 178228, Note_off_c, 0, 56, 63
1, 178231, Control_c, 0, 64, 77
1, 178235, Note_on_c, 0, 41, 86
1, 178246, Control_c, 0, 64, 77
1, 178261, Control_c, 0, 64, 75
1, 178276, Control_c, 0, 64, 73
1, 178290, Control_c, 0, 64, 70
1, 178305, Note_off_c, 0, 41, 58
1, 178305, Control_c, 0, 64, 64
1, 178315, Note_on_c, 0, 40, 83
1, 178320, Control_c, 0, 64, 45
1, 178335, Control_c, 0, 64, 0
1, 178399, Note_on_c, 0, 41, 87
1, 178405, Note_off_c, 0, 40, 63
1, 178408, Note_on_c, 0, 59, 82
1, 178408, Note_off_c, 0, 64, 46
1, 178411, Note_on_c, 0, 68, 77
1, 178497, Control_c, 0, 64, 17
1, 178502, Note_on_c, 0, 40, 84
1, 178517, Note_off_c, 0, 41, 63
1, 178520, Control_c, 0, 64, 39
1, 178535, Control_c, 0, 64, 47
1, 178550, Control_c, 0, 64, 53
1, 178564, Control_c, 0, 64, 57
1, 178579, Control_c, 0, 64, 60
1, 178594, Control_c, 0, 64, 61
1, 178609, Control_c, 0, 64, 63
1, 178619, Note_on_c, 0, 41, 87
1, 178623, Control_c, 0, 64, 64
1, 178626, Note_off_c, 0, 40, 61
1, 178638, Control_c, 0, 64, 65
1, 178668, Control_c, 0, 64, 65
1, 178683, Control_c, 0, 64, 65
1, 178697, Control_c, 0, 64, 63
1, 178712, Control_c, 0, 64, 59
1, 178727, Control_c, 0, 64, 51
1, 178739, Note_on_c, 0, 40, 85
1, 178742, Control_c, 0, 64, 28
1, 178756, Note_off_c, 0, 41, 61
1, 178757, Control_c, 0, 64, 0
1, 178863, Note_off_c, 0, 40, 63
1, 178902, Note_on_c, 0, 38, 86
1, 179053, Note_off_c, 0, 38, 57
1, 179075, Note_on_c, 0, 40, 85
1, 179236, Note_off_c, 0, 59, 19
1, 179278, Note_off_c, 0, 68, 43
1, 179291, Note_on_c, 0, 69, 81
1, 179294, Note_on_c, 0, 33, 83
1, 179294, Note_on_c, 0, 61, 75
1, 179333, Note_off_c, 0, 40, 62
1, 180689, Note_off_c, 0, 33, 63
1, 180693, Note_off_c, 0, 69, 65
1, 180717, Note_off_c, 0, 61, 57
1, 180792, End_track
0, 0, End_of_file
