0, 0, Header, 0, 1, 384
1, 0, Start_track
1, 0, Title_t, "Sonata K. 533--James Willshire  "
1, 0, Text_t, "2009 Piano-e-Competition audition round"
1, 0, Text_t, "captured January 2009"
1, 0, Text_t, "http://www.piano-e-competition.com/"
1, 0, Text_t, "File processed for distribution by software from Zenph Studios, Inc., http://www.zenph.com"
1, 0, Instrument_name_t, "Yamaha Disklavier Pro Mark IV concert grand piano, model DCFIIISM4PRO"
1, 0, Sequencer_specific, 39, 67, 113, 0, 1, 0, 1, 0, 83, 111, 110, 97, 116, 97, 32, 75, 46, 53, 51, 51, 32, 32, 32, 32, 74, 97, 109, 101, 115, 32, 87, 105, 108, 108, 115, 104, 105, 114, 101, 32
1, 0, Sequencer_specific, 6, 67, 113, 0, 0, 0, 69
1, 0, System_exclusive, 21, 67, 113, 126, 21, 0, 2, 2, 0, 3, 14, 1, 4, 1, 13, 13, 10, 11, 9, 2, 7, 247
1, 0, Sequencer_specific, 5, 67, 123, 12, 2, 1
1, 0, Tempo, 512820
1, 0, Time_signature, 4, 2, 24, 8
1, 0, System_exclusive, 5, 126, 127, 9, 1, 247
1, 1, System_exclusive, 8, 67, 16, 76, 0, 0, 126, 0, 247
1, 2, System_exclusive, 8, 67, 16, 76, 8, 9, 7, 1, 247
1, 3, Control_c, 0, 0, 0
1, 3, Control_c, 1, 0, 0
1, 3, Control_c, 2, 0, 0
1, 3, Control_c, 3, 0, 0
1, 3, Control_c, 4, 0, 0
1, 3, Control_c, 5, 0, 0
1, 3, Control_c, 6, 0, 0
1, 3, Control_c, 7, 0, 0
1, 3, Control_c, 8, 0, 0
1, 3, Control_c, 9, 0, 127
1, 3, Control_c, 10, 0, 0
1, 3, Control_c, 11, 0, 0
1, 3, Control_c, 12, 0, 0
1, 3, Control_c, 13, 0, 0
1, 3, Control_c, 14, 0, 0
1, 3, Control_c, 15, 0, 0
1, 4, Control_c, 0, 32, 0
1, 4, Control_c, 1, 32, 0
1, 4, Control_c, 2, 32, 0
1, 4, Control_c, 3, 32, 0
1, 4, Control_c, 4, 32, 0
1, 4, Control_c, 5, 32, 0
1, 4, Control_c, 6, 32, 0
1, 4, Control_c, 7, 32, 0
1, 4, Control_c, 8, 32, 0
1, 4, Control_c, 9, 32, 0
1, 4, Control_c, 10, 32, 0
1, 4, Control_c, 11, 32, 0
1, 4, Control_c, 12, 32, 0
1, 4, Control_c, 13, 32, 0
1, 4, Control_c, 14, 32, 0
1, 4, Control_c, 15, 32, 0
1, 5, Program_c, 0, 0
1, 5, Program_c, 1, 0
1, 5, Program_c, 2, 0
1, 5, Program_c, 3, 0
1, 5, Program_c, 4, 0
1, 5, Program_c, 5, 0
1, 5, Program_c, 6, 0
1, 5, Program_c, 7, 0
1, 5, Program_c, 8, 0
1, 5, Program_c, 9, 0
1, 5, Program_c, 10, 0
1, 5, Program_c, 11, 0
1, 5, Program_c, 12, 0
1, 5, Program_c, 13, 0
1, 5, Program_c, 14, 0
1, 5, Program_c, 15, 0
1, 6, Control_c, 0, 7, 100
1, 6, Control_c, 1, 7, 100
1, 6, Control_c, 2, 7, 100
1, 6, Control_c, 3, 7, 100
1, 6, Control_c, 4, 7, 100
1, 6, Control_c, 5, 7, 100
1, 6, Control_c, 6, 7, 100
1, 6, Control_c, 7, 7, 100
1, 6, Control_c, 8, 7, 100
1, 6, Control_c, 9, 7, 100
1, 6, Control_c, 10, 7, 100
1, 6, Control_c, 11, 7, 100
1, 6, Control_c, 12, 7, 100
1, 6, Control_c, 13, 7, 100
1, 6, Control_c, 14, 7, 100
1, 6, Control_c, 15, 7, 100
1, 1129, Note_on_c, 0, 72, 57
1, 1171, Note_off_c, 0, 72, 59
1, 1396, Note_on_c, 0, 70, 50
1, 1516, Note_on_c, 0, 69, 61
1, 1591, Note_off_c, 0, 70, 41
1, 1620, Note_on_c, 0, 67, 65
1, 1687, Note_off_c, 0, 69, 32
1, 1725, Note_off_c, 0, 67, 57
1, 1732, Note_on_c, 0, 65, 66
1, 1865, Note_on_c, 0, 69, 66
1, 1893, Note_off_c, 0, 65, 54
1, 1984, Note_on_c, 0, 67, 71
1, 2011, Note_off_c, 0, 69, 60
1, 2105, Note_off_c, 0, 67, 62
1, 2110, Note_on_c, 0, 70, 67
1, 2189, Note_off_c, 0, 70, 63
1, 2220, Note_on_c, 0, 64, 66
1, 2362, Note_on_c, 0, 65, 74
1, 2369, Note_off_c, 0, 64, 44
1, 2403, Note_off_c, 0, 65, 59
1, 2655, Note_on_c, 0, 60, 70
1, 2713, Note_off_c, 0, 60, 62
1, 3009, Note_on_c, 0, 72, 66
1, 3077, Control_c, 0, 64, 27
1, 3092, Control_c, 0, 64, 42
1, 3107, Control_c, 0, 64, 49
1, 3121, Control_c, 0, 64, 52
1, 3136, Control_c, 0, 64, 54
1, 3151, Control_c, 0, 64, 56
1, 3166, Control_c, 0, 64, 57
1, 3180, Control_c, 0, 64, 58
1, 3195, Control_c, 0, 64, 59
1, 3210, Control_c, 0, 64, 59
1, 3225, Control_c, 0, 64, 60
1, 3262, Control_c, 0, 64, 60
1, 3380, Control_c, 0, 64, 60
1, 3410, Control_c, 0, 64, 59
1, 3440, Control_c, 0, 64, 59
1, 3454, Control_c, 0, 64, 58
1, 3469, Control_c, 0, 64, 57
1, 3485, Control_c, 0, 64, 56
1, 3500, Control_c, 0, 64, 56
1, 3530, Control_c, 0, 64, 55
1, 3545, Control_c, 0, 64, 54
1, 3559, Control_c, 0, 64, 53
1, 3574, Control_c, 0, 64, 53
1, 3589, Control_c, 0, 64, 52
1, 3600, Note_on_c, 0, 70, 59
1, 3603, Control_c, 0, 64, 52
1, 3618, Control_c, 0, 64, 50
1, 3633, Control_c, 0, 64, 49
1, 3647, Note_off_c, 0, 72, 33
1, 3648, Control_c, 0, 64, 47
1, 3663, Control_c, 0, 64, 46
1, 3677, Control_c, 0, 64, 44
1, 3692, Control_c, 0, 64, 42
1, 3707, Control_c, 0, 64, 39
1, 3716, Note_on_c, 0, 69, 64
1, 3722, Control_c, 0, 64, 36
1, 3737, Control_c, 0, 64, 32
1, 3752, Control_c, 0, 64, 26
1, 3767, Control_c, 0, 64, 17
1, 3782, Control_c, 0, 64, 0
1, 3830, Note_on_c, 0, 67, 68
1, 3831, Note_off_c, 0, 70, 30
1, 3843, Note_off_c, 0, 69, 55
1, 3936, Note_off_c, 0, 67, 62
1, 3949, Note_on_c, 0, 65, 67
1, 4089, Note_on_c, 0, 69, 64
1, 4098, Note_off_c, 0, 65, 56
1, 4207, Note_on_c, 0, 67, 69
1, 4232, Note_off_c, 0, 69, 55
1, 4333, Note_off_c, 0, 67, 58
1, 4342, Note_on_c, 0, 70, 63
1, 4446, Note_off_c, 0, 70, 61
1, 4468, Note_on_c, 0, 64, 60
1, 4621, Note_off_c, 0, 64, 61
1, 4627, Note_on_c, 0, 65, 61
1, 4640, Note_on_c, 0, 57, 39
1, 4647, Note_on_c, 0, 53, 37
1, 4774, Note_off_c, 0, 57, 55
1, 4784, Note_on_c, 0, 60, 54
1, 4893, Note_off_c, 0, 60, 54
1, 4915, Note_on_c, 0, 57, 56
1, 5018, Note_off_c, 0, 57, 60
1, 5040, Note_on_c, 0, 60, 48
1, 5171, Note_off_c, 0, 60, 54
1, 5175, Note_on_c, 0, 57, 46
1, 5290, Note_off_c, 0, 57, 60
1, 5304, Note_on_c, 0, 60, 54
1, 5323, Control_c, 0, 64, 12
1, 5338, Control_c, 0, 64, 19
1, 5397, Control_c, 0, 64, 21
1, 5412, Control_c, 0, 64, 26
1, 5421, Note_off_c, 0, 60, 55
1, 5427, Control_c, 0, 64, 33
1, 5440, Note_on_c, 0, 57, 44
1, 5442, Control_c, 0, 64, 39
1, 5456, Control_c, 0, 64, 44
1, 5471, Control_c, 0, 64, 48
1, 5486, Control_c, 0, 64, 49
1, 5508, Control_c, 0, 64, 51
1, 5523, Control_c, 0, 64, 52
1, 5534, Note_off_c, 0, 53, 45
1, 5537, Control_c, 0, 64, 52
1, 5552, Control_c, 0, 64, 53
1, 5558, Note_off_c, 0, 57, 63
1, 5573, Note_on_c, 0, 60, 47
1, 5671, Control_c, 0, 64, 52
1, 5686, Control_c, 0, 64, 50
1, 5686, Note_off_c, 0, 65, 49
1, 5701, Control_c, 0, 64, 49
1, 5702, Note_on_c, 0, 66, 58
1, 5703, Note_off_c, 0, 60, 54
1, 5714, Note_on_c, 0, 53, 24
1, 5716, Control_c, 0, 64, 48
1, 5727, Note_on_c, 0, 58, 44
1, 5730, Control_c, 0, 64, 46
1, 5745, Control_c, 0, 64, 44
1, 5760, Control_c, 0, 64, 43
1, 5774, Control_c, 0, 64, 42
1, 5789, Control_c, 0, 64, 42
1, 5800, Note_off_c, 0, 66, 62
1, 5804, Control_c, 0, 64, 39
1, 5819, Control_c, 0, 64, 36
1, 5834, Note_on_c, 0, 67, 67
1, 5834, Control_c, 0, 64, 34
1, 5838, Note_off_c, 0, 58, 59
1, 5844, Note_on_c, 0, 60, 50
1, 5863, Control_c, 0, 64, 33
1, 5879, Control_c, 0, 64, 32
1, 5894, Control_c, 0, 64, 31
1, 5924, Control_c, 0, 64, 31
1, 5939, Control_c, 0, 64, 32
1, 5961, Note_on_c, 0, 69, 72
1, 5962, Note_off_c, 0, 67, 58
1, 5964, Note_off_c, 0, 60, 40
1, 5968, Control_c, 0, 64, 32
1, 5974, Note_on_c, 0, 58, 52
1, 5997, Control_c, 0, 64, 33
1, 6012, Control_c, 0, 64, 34
1, 6042, Control_c, 0, 64, 34
1, 6066, Note_off_c, 0, 69, 63
1, 6071, Control_c, 0, 64, 36
1, 6080, Note_on_c, 0, 70, 71
1, 6086, Control_c, 0, 64, 37
1, 6088, Note_on_c, 0, 60, 57
1, 6125, Note_off_c, 0, 58, 35
1, 6131, Control_c, 0, 64, 37
1, 6145, Control_c, 0, 64, 38
1, 6160, Control_c, 0, 64, 40
1, 6175, Control_c, 0, 64, 40
1, 6181, Note_off_c, 0, 70, 63
1, 6190, Control_c, 0, 64, 41
1, 6204, Note_off_c, 0, 60, 58
1, 6205, Note_on_c, 0, 72, 70
1, 6205, Control_c, 0, 64, 42
1, 6220, Control_c, 0, 64, 43
1, 6225, Note_on_c, 0, 58, 57
1, 6235, Control_c, 0, 64, 44
1, 6301, Control_c, 0, 64, 45
1, 6318, Note_off_c, 0, 72, 59
1, 6330, Note_on_c, 0, 73, 71
1, 6335, Note_off_c, 0, 58, 58
1, 6344, Note_on_c, 0, 60, 56
1, 6375, Control_c, 0, 64, 46
1, 6447, Note_off_c, 0, 73, 65
1, 6447, Note_off_c, 0, 60, 56
1, 6449, Control_c, 0, 64, 46
1, 6460, Note_on_c, 0, 74, 69
1, 6464, Control_c, 0, 64, 47
1, 6470, Note_on_c, 0, 58, 53
1, 6509, Control_c, 0, 64, 47
1, 6523, Control_c, 0, 64, 48
1, 6567, Note_off_c, 0, 53, 40
1, 6570, Note_off_c, 0, 58, 61
1, 6584, Note_on_c, 0, 76, 71
1, 6587, Note_off_c, 0, 74, 59
1, 6588, Note_on_c, 0, 60, 48
1, 6597, Control_c, 0, 64, 48
1, 6612, Control_c, 0, 64, 48
1, 6642, Control_c, 0, 64, 47
1, 6657, Control_c, 0, 64, 45
1, 6673, Control_c, 0, 64, 41
1, 6688, Control_c, 0, 64, 37
1, 6702, Control_c, 0, 64, 33
1, 6717, Control_c, 0, 64, 31
1, 6721, Note_on_c, 0, 79, 69
1, 6730, Note_off_c, 0, 60, 52
1, 6732, Control_c, 0, 64, 29
1, 6736, Note_on_c, 0, 53, 37
1, 6738, Note_off_c, 0, 76, 59
1, 6739, Note_on_c, 0, 57, 43
1, 6747, Control_c, 0, 64, 27
1, 6762, Control_c, 0, 64, 25
1, 6776, Control_c, 0, 64, 21
1, 6791, Control_c, 0, 64, 13
1, 6806, Control_c, 0, 64, 0
1, 6846, Note_off_c, 0, 57, 60
1, 6850, Control_c, 0, 64, 14
1, 6857, Note_on_c, 0, 77, 68
1, 6865, Control_c, 0, 64, 18
1, 6870, Note_on_c, 0, 60, 53
1, 6880, Control_c, 0, 64, 23
1, 6894, Control_c, 0, 64, 30
1, 6909, Control_c, 0, 64, 38
1, 6924, Control_c, 0, 64, 46
1, 6939, Control_c, 0, 64, 51
1, 6954, Control_c, 0, 64, 53
1, 6968, Control_c, 0, 64, 55
1, 6983, Control_c, 0, 64, 56
1, 6985, Note_off_c, 0, 79, 33
1, 6987, Note_off_c, 0, 77, 58
1, 6990, Note_on_c, 0, 76, 69
1, 7006, Control_c, 0, 64, 57
1, 7009, Note_on_c, 0, 57, 44
1, 7019, Note_off_c, 0, 60, 41
1, 7021, Control_c, 0, 64, 57
1, 7035, Control_c, 0, 64, 58
1, 7065, Control_c, 0, 64, 58
1, 7080, Control_c, 0, 64, 59
1, 7083, Note_off_c, 0, 76, 64
1, 7102, Note_off_c, 0, 57, 61
1, 7120, Note_on_c, 0, 74, 69
1, 7143, Note_on_c, 0, 60, 52
1, 7176, Note_off_c, 0, 74, 65
1, 7227, Control_c, 0, 64, 58
1, 7242, Control_c, 0, 64, 55
1, 7245, Note_off_c, 0, 60, 52
1, 7257, Control_c, 0, 64, 52
1, 7258, Note_on_c, 0, 57, 42
1, 7260, Note_on_c, 0, 74, 61
1, 7272, Control_c, 0, 64, 48
1, 7287, Control_c, 0, 64, 45
1, 7301, Control_c, 0, 64, 43
1, 7331, Control_c, 0, 64, 45
1, 7341, Note_off_c, 0, 74, 64
1, 7345, Control_c, 0, 64, 48
1, 7360, Control_c, 0, 64, 52
1, 7375, Control_c, 0, 64, 53
1, 7377, Note_on_c, 0, 72, 59
1, 7378, Note_off_c, 0, 57, 56
1, 7388, Note_on_c, 0, 60, 50
1, 7449, Control_c, 0, 64, 53
1, 7465, Control_c, 0, 64, 51
1, 7480, Control_c, 0, 64, 50
1, 7510, Control_c, 0, 64, 49
1, 7511, Note_on_c, 0, 70, 64
1, 7514, Note_off_c, 0, 60, 55
1, 7523, Note_off_c, 0, 72, 34
1, 7524, Control_c, 0, 64, 47
1, 7526, Note_on_c, 0, 57, 49
1, 7539, Control_c, 0, 64, 44
1, 7554, Control_c, 0, 64, 42
1, 7568, Control_c, 0, 64, 41
1, 7583, Control_c, 0, 64, 37
1, 7598, Control_c, 0, 64, 31
1, 7613, Control_c, 0, 64, 23
1, 7621, Note_off_c, 0, 57, 62
1, 7624, Note_off_c, 0, 53, 41
1, 7628, Control_c, 0, 64, 16
1, 7639, Note_on_c, 0, 69, 66
1, 7642, Control_c, 0, 64, 8
1, 7648, Note_on_c, 0, 60, 51
1, 7657, Control_c, 0, 64, 0
1, 7698, Note_off_c, 0, 70, 31
1, 7750, Note_off_c, 0, 69, 55
1, 7776, Note_off_c, 0, 60, 53
1, 7781, Note_on_c, 0, 67, 67
1, 7782, Note_on_c, 0, 64, 58
1, 7796, Note_on_c, 0, 58, 51
1, 7797, Note_on_c, 0, 53, 36
1, 7818, Note_off_c, 0, 67, 66
1, 7919, Note_off_c, 0, 58, 59
1, 7924, Note_on_c, 0, 60, 49
1, 8000, Note_on_c, 0, 69, 65
1, 8038, Note_off_c, 0, 60, 55
1, 8054, Note_on_c, 0, 67, 69
1, 8059, Note_on_c, 0, 58, 48
1, 8079, Note_off_c, 0, 69, 59
1, 8137, Note_off_c, 0, 67, 60
1, 8143, Note_on_c, 0, 66, 68
1, 8174, Note_off_c, 0, 58, 57
1, 8177, Note_on_c, 0, 60, 47
1, 8283, Note_on_c, 0, 67, 67
1, 8299, Note_off_c, 0, 60, 47
1, 8304, Note_off_c, 0, 66, 38
1, 8312, Note_on_c, 0, 58, 50
1, 8320, Note_off_c, 0, 67, 65
1, 8396, Note_off_c, 0, 58, 49
1, 8433, Note_on_c, 0, 60, 52
1, 8521, Note_off_c, 0, 60, 46
1, 8563, Note_on_c, 0, 72, 64
1, 8564, Note_on_c, 0, 58, 44
1, 8602, Note_off_c, 0, 72, 60
1, 8652, Note_off_c, 0, 53, 40
1, 8673, Note_off_c, 0, 58, 62
1, 8695, Note_on_c, 0, 60, 40
1, 8897, Note_on_c, 0, 65, 48
1, 8906, Note_on_c, 0, 57, 35
1, 8920, Note_on_c, 0, 53, 21
1, 8934, Note_off_c, 0, 64, 43
1, 8985, Note_off_c, 0, 60, 40
1, 9037, Control_c, 0, 64, 25
1, 9052, Control_c, 0, 64, 38
1, 9067, Control_c, 0, 64, 48
1, 9082, Control_c, 0, 64, 56
1, 9097, Control_c, 0, 64, 59
1, 9111, Control_c, 0, 64, 60
1, 9126, Control_c, 0, 64, 61
1, 9141, Control_c, 0, 64, 62
1, 9156, Control_c, 0, 64, 63
1, 9171, Control_c, 0, 64, 64
1, 9171, Note_off_c, 0, 65, 62
1, 9186, Control_c, 0, 64, 66
1, 9201, Control_c, 0, 64, 67
1, 9215, Control_c, 0, 64, 70
1, 9230, Control_c, 0, 64, 72
1, 9252, Control_c, 0, 64, 74
1, 9267, Control_c, 0, 64, 76
1, 9282, Control_c, 0, 64, 79
1, 9296, Control_c, 0, 64, 82
1, 9311, Control_c, 0, 64, 86
1, 9312, Note_off_c, 0, 53, 41
1, 9326, Control_c, 0, 64, 90
1, 9341, Control_c, 0, 64, 96
1, 9356, Control_c, 0, 64, 103
1, 9365, Note_off_c, 0, 57, 41
1, 9371, Control_c, 0, 64, 112
1, 9386, Control_c, 0, 64, 127
1, 9445, Control_c, 0, 64, 109
1, 9460, Control_c, 0, 64, 80
1, 9475, Control_c, 0, 64, 59
1, 9490, Control_c, 0, 64, 0
1, 9688, Note_on_c, 0, 60, 80
1, 9735, Note_off_c, 0, 60, 61
1, 9961, Note_on_c, 0, 58, 66
1, 10089, Note_off_c, 0, 58, 65
1, 10095, Note_on_c, 0, 57, 70
1, 10214, Note_off_c, 0, 57, 63
1, 10217, Note_on_c, 0, 55, 70
1, 10325, Note_off_c, 0, 55, 62
1, 10333, Note_on_c, 0, 53, 70
1, 10459, Note_off_c, 0, 53, 59
1, 10465, Note_on_c, 0, 57, 74
1, 10578, Note_off_c, 0, 57, 60
1, 10581, Note_on_c, 0, 55, 72
1, 10695, Note_off_c, 0, 55, 55
1, 10717, Note_on_c, 0, 58, 75
1, 10815, Note_off_c, 0, 58, 57
1, 10844, Note_on_c, 0, 52, 76
1, 10969, Note_off_c, 0, 52, 58
1, 10985, Note_on_c, 0, 53, 79
1, 11031, Note_off_c, 0, 53, 63
1, 11260, Note_on_c, 0, 48, 83
1, 11310, Note_off_c, 0, 48, 64
1, 11630, Note_on_c, 0, 60, 74
1, 11764, Control_c, 0, 64, 31
1, 11779, Control_c, 0, 64, 49
1, 11794, Control_c, 0, 64, 54
1, 11809, Control_c, 0, 64, 57
1, 11824, Control_c, 0, 64, 59
1, 11839, Control_c, 0, 64, 60
1, 11854, Control_c, 0, 64, 61
1, 11869, Control_c, 0, 64, 61
1, 11987, Control_c, 0, 64, 61
1, 12002, Control_c, 0, 64, 60
1, 12016, Control_c, 0, 64, 59
1, 12031, Control_c, 0, 64, 59
1, 12046, Control_c, 0, 64, 57
1, 12061, Control_c, 0, 64, 55
1, 12076, Control_c, 0, 64, 53
1, 12090, Control_c, 0, 64, 53
1, 12105, Control_c, 0, 64, 52
1, 12120, Control_c, 0, 64, 50
1, 12134, Control_c, 0, 64, 45
1, 12149, Control_c, 0, 64, 40
1, 12164, Control_c, 0, 64, 38
1, 12194, Control_c, 0, 64, 35
1, 12209, Control_c, 0, 64, 29
1, 12217, Note_on_c, 0, 58, 60
1, 12221, Note_off_c, 0, 60, 51
1, 12223, Control_c, 0, 64, 19
1, 12246, Control_c, 0, 64, 12
1, 12262, Control_c, 0, 64, 12
1, 12277, Control_c, 0, 64, 0
1, 12357, Note_off_c, 0, 58, 65
1, 12361, Note_on_c, 0, 57, 66
1, 12498, Note_on_c, 0, 55, 68
1, 12501, Note_off_c, 0, 57, 63
1, 12605, Poly_aftertouch_c, 0, 60, 0
1, 12611, Note_off_c, 0, 55, 62
1, 12614, Note_on_c, 0, 53, 67
1, 12754, Note_on_c, 0, 57, 71
1, 12759, Note_off_c, 0, 53, 61
1, 12873, Note_on_c, 0, 55, 67
1, 12882, Note_off_c, 0, 57, 59
1, 13002, Note_off_c, 0, 55, 58
1, 13023, Note_on_c, 0, 58, 65
1, 13145, Note_off_c, 0, 58, 61
1, 13152, Note_on_c, 0, 52, 61
1, 13300, Note_off_c, 0, 52, 61
1, 13303, Note_on_c, 0, 53, 61
1, 13317, Note_on_c, 0, 72, 56
1, 13395, Note_off_c, 0, 72, 44
1, 13446, Note_on_c, 0, 84, 53
1, 13534, Note_off_c, 0, 84, 29
1, 13574, Note_on_c, 0, 81, 54
1, 13670, Note_off_c, 0, 81, 51
1, 13699, Note_on_c, 0, 84, 52
1, 13785, Note_off_c, 0, 84, 50
1, 13845, Note_on_c, 0, 72, 57
1, 13905, Note_off_c, 0, 72, 52
1, 13970, Note_on_c, 0, 84, 47
1, 14025, Note_off_c, 0, 84, 40
1, 14105, Note_on_c, 0, 81, 50
1, 14236, Note_on_c, 0, 84, 49
1, 14239, Note_off_c, 0, 81, 45
1, 14346, Note_off_c, 0, 84, 51
1, 14385, Note_on_c, 0, 54, 55
1, 14385, Note_on_c, 0, 72, 51
1, 14466, Note_off_c, 0, 72, 38
1, 14488, Note_off_c, 0, 53, 30
1, 14507, Note_on_c, 0, 55, 66
1, 14507, Note_on_c, 0, 84, 55
1, 14510, Note_off_c, 0, 54, 63
1, 14614, Note_off_c, 0, 84, 58
1, 14632, Note_off_c, 0, 55, 63
1, 14638, Note_on_c, 0, 57, 73
1, 14647, Note_on_c, 0, 82, 57
1, 14745, Note_off_c, 0, 57, 59
1, 14754, Note_on_c, 0, 58, 67
1, 14769, Note_on_c, 0, 84, 59
1, 14847, Note_off_c, 0, 84, 60
1, 14851, Note_off_c, 0, 82, 22
1, 14879, Note_off_c, 0, 58, 65
1, 14888, Note_on_c, 0, 60, 72
1, 14896, Note_on_c, 0, 72, 57
1, 14963, Note_off_c, 0, 72, 52
1, 15005, Note_on_c, 0, 61, 73
1, 15014, Note_off_c, 0, 60, 59
1, 15017, Note_on_c, 0, 84, 56
1, 15121, Note_off_c, 0, 84, 64
1, 15138, Note_on_c, 0, 62, 74
1, 15151, Note_off_c, 0, 61, 58
1, 15154, Note_on_c, 0, 82, 52
1, 15263, Note_off_c, 0, 62, 62
1, 15264, Note_on_c, 0, 64, 76
1, 15288, Note_off_c, 0, 82, 31
1, 15289, Note_on_c, 0, 84, 59
1, 15375, Note_off_c, 0, 84, 53
1, 15390, Note_off_c, 0, 64, 62
1, 15400, Note_on_c, 0, 67, 78
1, 15419, Note_on_c, 0, 72, 64
1, 15476, Note_off_c, 0, 72, 48
1, 15529, Note_on_c, 0, 65, 76
1, 15535, Note_on_c, 0, 84, 62
1, 15535, Note_off_c, 0, 67, 63
1, 15652, Note_off_c, 0, 84, 64
1, 15662, Note_on_c, 0, 64, 68
1, 15665, Note_on_c, 0, 81, 65
1, 15666, Note_off_c, 0, 65, 63
1, 15702, Control_c, 0, 64, 29
1, 15717, Control_c, 0, 64, 47
1, 15731, Control_c, 0, 64, 52
1, 15746, Control_c, 0, 64, 56
1, 15761, Control_c, 0, 64, 60
1, 15762, Note_off_c, 0, 81, 58
1, 15776, Control_c, 0, 64, 62
1, 15780, Note_off_c, 0, 64, 63
1, 15780, Note_on_c, 0, 62, 74
1, 15790, Control_c, 0, 64, 63
1, 15792, Note_on_c, 0, 84, 63
1, 15805, Control_c, 0, 64, 64
1, 15813, Note_off_c, 0, 62, 66
1, 15820, Control_c, 0, 64, 64
1, 15879, Note_off_c, 0, 84, 49
1, 15879, Control_c, 0, 64, 64
1, 15894, Control_c, 0, 64, 62
1, 15909, Control_c, 0, 64, 59
1, 15912, Note_on_c, 0, 62, 68
1, 15920, Note_on_c, 0, 72, 67
1, 15924, Control_c, 0, 64, 55
1, 15938, Control_c, 0, 64, 51
1, 15953, Control_c, 0, 64, 47
1, 15968, Control_c, 0, 64, 44
1, 15990, Control_c, 0, 64, 41
1, 16005, Control_c, 0, 64, 38
1, 16011, Note_off_c, 0, 72, 57
1, 16020, Control_c, 0, 64, 35
1, 16035, Control_c, 0, 64, 34
1, 16050, Note_on_c, 0, 84, 64
1, 16050, Control_c, 0, 64, 33
1, 16051, Note_off_c, 0, 62, 63
1, 16054, Note_on_c, 0, 60, 66
1, 16064, Control_c, 0, 64, 29
1, 16079, Control_c, 0, 64, 23
1, 16094, Control_c, 0, 64, 19
1, 16109, Control_c, 0, 64, 18
1, 16124, Control_c, 0, 64, 11
1, 16138, Control_c, 0, 64, 0
1, 16164, Note_off_c, 0, 84, 65
1, 16172, Note_off_c, 0, 60, 61
1, 16181, Note_on_c, 0, 58, 61
1, 16188, Note_on_c, 0, 81, 67
1, 16281, Note_off_c, 0, 81, 63
1, 16298, Note_off_c, 0, 58, 64
1, 16305, Note_on_c, 0, 84, 69
1, 16307, Note_on_c, 0, 57, 65
1, 16408, Note_off_c, 0, 84, 48
1, 16439, Note_off_c, 0, 57, 60
1, 16443, Note_on_c, 0, 58, 58
1, 16444, Note_on_c, 0, 78, 68
1, 16543, Note_off_c, 0, 78, 63
1, 16552, Note_off_c, 0, 58, 59
1, 16566, Note_on_c, 0, 79, 75
1, 16568, Note_on_c, 0, 64, 65
1, 16614, Control_c, 0, 64, 8
1, 16629, Control_c, 0, 64, 9
1, 16659, Control_c, 0, 64, 11
1, 16670, Note_off_c, 0, 64, 62
1, 16674, Control_c, 0, 64, 17
1, 16688, Control_c, 0, 64, 25
1, 16692, Note_on_c, 0, 60, 57
1, 16697, Note_on_c, 0, 81, 75
1, 16697, Note_off_c, 0, 79, 55
1, 16703, Control_c, 0, 64, 25
1, 16740, Control_c, 0, 64, 26
1, 16755, Control_c, 0, 64, 26
1, 16769, Control_c, 0, 64, 26
1, 16784, Control_c, 0, 64, 25
1, 16799, Control_c, 0, 64, 24
1, 16803, Note_off_c, 0, 60, 62
1, 16819, Note_off_c, 0, 81, 63
1, 16825, Note_on_c, 0, 64, 55
1, 16828, Note_on_c, 0, 82, 75
1, 16874, Control_c, 0, 64, 25
1, 16888, Control_c, 0, 64, 26
1, 16903, Control_c, 0, 64, 29
1, 16936, Note_off_c, 0, 82, 64
1, 16945, Note_off_c, 0, 64, 64
1, 16948, Note_on_c, 0, 58, 57
1, 16959, Note_on_c, 0, 84, 80
1, 16961, Control_c, 0, 64, 30
1, 16976, Control_c, 0, 64, 32
1, 17020, Control_c, 0, 64, 33
1, 17035, Control_c, 0, 64, 37
1, 17051, Control_c, 0, 64, 37
1, 17081, Control_c, 0, 64, 38
1, 17086, Note_on_c, 0, 85, 78
1, 17088, Note_on_c, 0, 67, 68
1, 17091, Note_off_c, 0, 84, 53
1, 17096, Control_c, 0, 64, 39
1, 17110, Control_c, 0, 64, 40
1, 17155, Control_c, 0, 64, 39
1, 17184, Control_c, 0, 64, 38
1, 17196, Note_off_c, 0, 67, 62
1, 17196, Note_off_c, 0, 85, 63
1, 17199, Control_c, 0, 64, 36
1, 17214, Note_on_c, 0, 86, 77
1, 17214, Control_c, 0, 64, 33
1, 17217, Note_on_c, 0, 60, 65
1, 17228, Control_c, 0, 64, 28
1, 17243, Control_c, 0, 64, 21
1, 17258, Control_c, 0, 64, 0
1, 17291, Note_off_c, 0, 58, 38
1, 17295, Note_off_c, 0, 60, 61
1, 17320, Note_off_c, 0, 86, 64
1, 17331, Note_on_c, 0, 88, 80
1, 17333, Note_on_c, 0, 67, 58
1, 17436, Control_c, 0, 64, 16
1, 17451, Control_c, 0, 64, 45
1, 17461, Note_on_c, 0, 57, 73
1, 17466, Note_off_c, 0, 88, 58
1, 17466, Control_c, 0, 64, 56
1, 17468, Note_on_c, 0, 89, 81
1, 17482, Note_off_c, 0, 67, 35
1, 17488, Control_c, 0, 64, 59
1, 17497, Note_off_c, 0, 57, 66
1, 17503, Control_c, 0, 64, 61
1, 17518, Control_c, 0, 64, 62
1, 17532, Control_c, 0, 64, 63
1, 17547, Note_off_c, 0, 89, 59
1, 17599, Note_on_c, 0, 77, 72
1, 17607, Control_c, 0, 64, 62
1, 17622, Control_c, 0, 64, 61
1, 17636, Control_c, 0, 64, 59
1, 17651, Control_c, 0, 64, 57
1, 17665, Control_c, 0, 64, 52
1, 17680, Control_c, 0, 64, 44
1, 17688, Note_off_c, 0, 77, 63
1, 17695, Control_c, 0, 64, 30
1, 17709, Control_c, 0, 64, 0
1, 17713, Note_on_c, 0, 69, 74
1, 17719, Note_on_c, 0, 72, 71
1, 17720, Note_on_c, 0, 89, 83
1, 17753, Note_off_c, 0, 72, 62
1, 17756, Note_off_c, 0, 69, 59
1, 17837, Note_on_c, 0, 70, 73
1, 17838, Note_on_c, 0, 88, 79
1, 17840, Note_on_c, 0, 67, 66
1, 17860, Note_off_c, 0, 89, 63
1, 17871, Note_off_c, 0, 67, 66
1, 17875, Note_off_c, 0, 70, 61
1, 17968, Note_on_c, 0, 69, 79
1, 17970, Note_on_c, 0, 86, 82
1, 17974, Note_on_c, 0, 65, 72
1, 17976, Note_off_c, 0, 88, 66
1, 17995, Note_off_c, 0, 69, 69
1, 17995, Note_off_c, 0, 86, 68
1, 17998, Note_off_c, 0, 65, 67
1, 18091, Note_on_c, 0, 74, 77
1, 18144, Note_off_c, 0, 74, 63
1, 18221, Note_on_c, 0, 86, 77
1, 18232, Note_on_c, 0, 65, 61
1, 18232, Note_on_c, 0, 69, 65
1, 18263, Note_off_c, 0, 69, 65
1, 18268, Note_off_c, 0, 65, 64
1, 18345, Note_on_c, 0, 84, 79
1, 18346, Note_on_c, 0, 67, 76
1, 18355, Note_on_c, 0, 64, 64
1, 18359, Note_off_c, 0, 86, 63
1, 18385, Note_off_c, 0, 64, 66
1, 18388, Note_off_c, 0, 67, 62
1, 18472, Note_on_c, 0, 65, 73
1, 18476, Note_off_c, 0, 84, 65
1, 18477, Note_on_c, 0, 62, 74
1, 18479, Note_on_c, 0, 82, 80
1, 18501, Note_off_c, 0, 65, 68
1, 18501, Note_off_c, 0, 82, 69
1, 18510, Note_off_c, 0, 62, 68
1, 18557, Poly_aftertouch_c, 0, 64, 0
1, 18598, Note_on_c, 0, 70, 73
1, 18635, Note_off_c, 0, 70, 57
1, 18717, Poly_aftertouch_c, 0, 80, 0
1, 18721, Note_on_c, 0, 62, 73
1, 18722, Note_on_c, 0, 82, 78
1, 18730, Note_on_c, 0, 65, 68
1, 18764, Note_off_c, 0, 62, 61
1, 18764, Note_off_c, 0, 65, 63
1, 18834, Note_on_c, 0, 81, 78
1, 18840, Note_on_c, 0, 64, 75
1, 18847, Note_on_c, 0, 60, 67
1, 18873, Note_off_c, 0, 82, 57
1, 18879, Note_off_c, 0, 64, 61
1, 18881, Note_off_c, 0, 60, 65
1, 18966, Note_on_c, 0, 58, 73
1, 18967, Note_on_c, 0, 62, 72
1, 18968, Note_on_c, 0, 79, 83
1, 18983, Note_off_c, 0, 81, 54
1, 18999, Note_off_c, 0, 62, 68
1, 19005, Note_off_c, 0, 79, 65
1, 19017, Note_off_c, 0, 58, 64
1, 19103, Note_on_c, 0, 67, 72
1, 19135, Note_on_c, 0, 69, 47
1, 19164, Note_off_c, 0, 69, 35
1, 19168, Note_off_c, 0, 67, 62
1, 19222, Note_on_c, 0, 79, 73
1, 19228, Note_on_c, 0, 58, 73
1, 19235, Note_on_c, 0, 62, 74
1, 19258, Note_off_c, 0, 58, 67
1, 19268, Note_off_c, 0, 62, 67
1, 19349, Note_on_c, 0, 77, 72
1, 19354, Note_on_c, 0, 60, 74
1, 19358, Note_off_c, 0, 79, 34
1, 19363, Note_on_c, 0, 57, 63
1, 19378, Note_off_c, 0, 77, 67
1, 19391, Note_off_c, 0, 57, 65
1, 19392, Note_off_c, 0, 60, 62
1, 19554, Note_on_c, 0, 58, 55
1, 19554, Note_on_c, 0, 77, 71
1, 19567, Note_on_c, 0, 55, 55
1, 19735, Control_c, 0, 64, 36
1, 19750, Control_c, 0, 64, 48
1, 19764, Control_c, 0, 64, 54
1, 19779, Control_c, 0, 64, 58
1, 19794, Control_c, 0, 64, 62
1, 19809, Control_c, 0, 64, 64
1, 19823, Control_c, 0, 64, 66
1, 19838, Control_c, 0, 64, 67
1, 19853, Control_c, 0, 64, 69
1, 19868, Control_c, 0, 64, 70
1, 19883, Control_c, 0, 64, 70
1, 19897, Control_c, 0, 64, 71
1, 20001, Control_c, 0, 64, 70
1, 20016, Control_c, 0, 64, 70
1, 20045, Control_c, 0, 64, 68
1, 20060, Control_c, 0, 64, 67
1, 20075, Control_c, 0, 64, 65
1, 20090, Control_c, 0, 64, 64
1, 20105, Control_c, 0, 64, 63
1, 20120, Control_c, 0, 64, 60
1, 20135, Control_c, 0, 64, 55
1, 20149, Control_c, 0, 64, 51
1, 20164, Control_c, 0, 64, 47
1, 20179, Control_c, 0, 64, 35
1, 20194, Control_c, 0, 64, 0
1, 20229, Note_on_c, 0, 76, 53
1, 20278, Note_off_c, 0, 77, 38
1, 20314, Control_c, 0, 64, 30
1, 20328, Control_c, 0, 64, 49
1, 20343, Control_c, 0, 64, 59
1, 20358, Control_c, 0, 64, 61
1, 20372, Control_c, 0, 64, 62
1, 20387, Control_c, 0, 64, 64
1, 20394, Note_off_c, 0, 55, 59
1, 20402, Control_c, 0, 64, 66
1, 20417, Control_c, 0, 64, 68
1, 20432, Control_c, 0, 64, 70
1, 20439, Note_off_c, 0, 58, 63
1, 20446, Control_c, 0, 64, 72
1, 20451, Poly_aftertouch_c, 0, 77, 127
1, 20461, Control_c, 0, 64, 74
1, 20484, Control_c, 0, 64, 75
1, 20498, Control_c, 0, 64, 76
1, 20501, Poly_aftertouch_c, 0, 77, 0
1, 20513, Control_c, 0, 64, 77
1, 20526, Note_off_c, 0, 76, 51
1, 20632, Control_c, 0, 64, 76
1, 20647, Control_c, 0, 64, 75
1, 20661, Control_c, 0, 64, 73
1, 20676, Control_c, 0, 64, 70
1, 20691, Control_c, 0, 64, 65
1, 20706, Control_c, 0, 64, 60
1, 20721, Control_c, 0, 64, 57
1, 20735, Control_c, 0, 64, 55
1, 20750, Control_c, 0, 64, 51
1, 20765, Control_c, 0, 64, 44
1, 20779, Control_c, 0, 64, 36
1, 20794, Control_c, 0, 64, 29
1, 20809, Control_c, 0, 64, 22
1, 20815, Note_on_c, 0, 58, 53
1, 20816, Note_on_c, 0, 52, 51
1, 20824, Control_c, 0, 64, 0
1, 20972, Control_c, 0, 64, 13
1, 20987, Control_c, 0, 64, 17
1, 21002, Control_c, 0, 64, 20
1, 21017, Control_c, 0, 64, 23
1, 21032, Control_c, 0, 64, 25
1, 21062, Control_c, 0, 64, 24
1, 21077, Control_c, 0, 64, 23
1, 21092, Control_c, 0, 64, 22
1, 21107, Control_c, 0, 64, 21
1, 21114, Note_on_c, 0, 81, 61
1, 21121, Control_c, 0, 64, 14
1, 21136, Control_c, 0, 64, 0
1, 21242, Note_on_c, 0, 79, 70
1, 21368, Note_on_c, 0, 77, 69
1, 21371, Note_off_c, 0, 81, 30
1, 21377, Note_off_c, 0, 79, 52
1, 21381, Control_c, 0, 64, 22
1, 21396, Control_c, 0, 64, 35
1, 21409, Control_c, 0, 64, 41
1, 21424, Control_c, 0, 64, 40
1, 21454, Control_c, 0, 64, 42
1, 21469, Control_c, 0, 64, 47
1, 21470, Note_off_c, 0, 77, 65
1, 21483, Control_c, 0, 64, 53
1, 21485, Note_on_c, 0, 76, 71
1, 21498, Control_c, 0, 64, 55
1, 21528, Control_c, 0, 64, 56
1, 21543, Control_c, 0, 64, 58
1, 21557, Control_c, 0, 64, 60
1, 21572, Control_c, 0, 64, 61
1, 21601, Control_c, 0, 64, 62
1, 21613, Note_on_c, 0, 74, 66
1, 21616, Control_c, 0, 64, 63
1, 21631, Control_c, 0, 64, 63
1, 21646, Note_off_c, 0, 76, 57
1, 21646, Control_c, 0, 64, 64
1, 21661, Control_c, 0, 64, 66
1, 21673, Note_off_c, 0, 58, 34
1, 21676, Control_c, 0, 64, 67
1, 21691, Control_c, 0, 64, 68
1, 21702, Note_off_c, 0, 74, 56
1, 21706, Control_c, 0, 64, 68
1, 21720, Control_c, 0, 64, 69
1, 21736, Note_on_c, 0, 72, 70
1, 21773, Note_off_c, 0, 72, 64
1, 21840, Control_c, 0, 64, 68
1, 21855, Control_c, 0, 64, 67
1, 21870, Control_c, 0, 64, 66
1, 21873, Note_on_c, 0, 57, 53
1, 21882, Note_on_c, 0, 53, 49
1, 21883, Note_on_c, 0, 72, 67
1, 21885, Control_c, 0, 64, 64
1, 21892, Note_off_c, 0, 52, 32
1, 21899, Control_c, 0, 64, 60
1, 21914, Control_c, 0, 64, 55
1, 21929, Control_c, 0, 64, 50
1, 21944, Control_c, 0, 64, 44
1, 21959, Control_c, 0, 64, 33
1, 21980, Control_c, 0, 64, 25
1, 21989, Note_off_c, 0, 72, 58
1, 21995, Control_c, 0, 64, 23
1, 22010, Control_c, 0, 64, 24
1, 22015, Note_on_c, 0, 77, 68
1, 22025, Control_c, 0, 64, 26
1, 22040, Control_c, 0, 64, 30
1, 22055, Control_c, 0, 64, 36
1, 22069, Control_c, 0, 64, 40
1, 22084, Control_c, 0, 64, 45
1, 22099, Control_c, 0, 64, 46
1, 22114, Control_c, 0, 64, 48
1, 22129, Control_c, 0, 64, 49
1, 22138, Note_on_c, 0, 76, 71
1, 22144, Control_c, 0, 64, 51
1, 22158, Control_c, 0, 64, 53
1, 22162, Note_off_c, 0, 77, 59
1, 22261, Note_on_c, 0, 75, 73
1, 22262, Control_c, 0, 64, 52
1, 22288, Note_off_c, 0, 76, 56
1, 22321, Control_c, 0, 64, 51
1, 22336, Control_c, 0, 64, 48
1, 22350, Control_c, 0, 64, 46
1, 22385, Note_off_c, 0, 75, 65
1, 22387, Note_on_c, 0, 55, 52
1, 22391, Note_on_c, 0, 73, 64
1, 22395, Control_c, 0, 64, 45
1, 22405, Note_off_c, 0, 53, 49
1, 22406, Note_on_c, 0, 46, 38
1, 22410, Control_c, 0, 64, 41
1, 22424, Control_c, 0, 64, 38
1, 22439, Control_c, 0, 64, 37
1, 22454, Note_off_c, 0, 57, 29
1, 22454, Control_c, 0, 64, 37
1, 22469, Control_c, 0, 64, 35
1, 22484, Control_c, 0, 64, 31
1, 22499, Control_c, 0, 64, 30
1, 22507, Note_off_c, 0, 73, 64
1, 22508, Note_on_c, 0, 74, 68
1, 22558, Control_c, 0, 64, 27
1, 22573, Control_c, 0, 64, 25
1, 22603, Control_c, 0, 64, 26
1, 22617, Control_c, 0, 64, 26
1, 22632, Control_c, 0, 64, 28
1, 22645, Note_on_c, 0, 70, 68
1, 22648, Control_c, 0, 64, 31
1, 22663, Control_c, 0, 64, 37
1, 22670, Note_off_c, 0, 74, 57
1, 22678, Control_c, 0, 64, 43
1, 22692, Control_c, 0, 64, 47
1, 22707, Control_c, 0, 64, 49
1, 22729, Control_c, 0, 64, 52
1, 22744, Control_c, 0, 64, 54
1, 22759, Control_c, 0, 64, 56
1, 22767, Note_off_c, 0, 70, 63
1, 22773, Control_c, 0, 64, 57
1, 22779, Note_on_c, 0, 67, 70
1, 22788, Control_c, 0, 64, 57
1, 22803, Control_c, 0, 64, 58
1, 22818, Control_c, 0, 64, 58
1, 22847, Control_c, 0, 64, 59
1, 22859, Note_off_c, 0, 46, 41
1, 22875, Note_off_c, 0, 55, 56
1, 22922, Control_c, 0, 64, 58
1, 22937, Control_c, 0, 64, 58
1, 22944, Note_on_c, 0, 65, 69
1, 22952, Note_off_c, 0, 67, 56
1, 22952, Control_c, 0, 64, 57
1, 22967, Control_c, 0, 64, 56
1, 22982, Control_c, 0, 64, 53
1, 22996, Control_c, 0, 64, 50
1, 23011, Control_c, 0, 64, 49
1, 23026, Control_c, 0, 64, 47
1, 23041, Control_c, 0, 64, 43
1, 23056, Control_c, 0, 64, 36
1, 23071, Control_c, 0, 64, 28
1, 23086, Control_c, 0, 64, 27
1, 23101, Control_c, 0, 64, 27
1, 23116, Control_c, 0, 64, 31
1, 23130, Control_c, 0, 64, 36
1, 23145, Control_c, 0, 64, 41
1, 23160, Control_c, 0, 64, 45
1, 23174, Control_c, 0, 64, 48
1, 23189, Control_c, 0, 64, 50
1, 23204, Control_c, 0, 64, 49
1, 23219, Control_c, 0, 64, 49
1, 23228, Note_on_c, 0, 57, 57
1, 23229, Note_on_c, 0, 48, 51
1, 23234, Control_c, 0, 64, 48
1, 23278, Control_c, 0, 64, 49
1, 23293, Control_c, 0, 64, 49
1, 23308, Control_c, 0, 64, 51
1, 23322, Control_c, 0, 64, 52
1, 23337, Control_c, 0, 64, 54
1, 23352, Control_c, 0, 64, 54
1, 23381, Control_c, 0, 64, 55
1, 23442, Control_c, 0, 64, 54
1, 23457, Control_c, 0, 64, 53
1, 23463, Note_off_c, 0, 57, 62
1, 23479, Control_c, 0, 64, 52
1, 23487, Note_on_c, 0, 58, 62
1, 23494, Control_c, 0, 64, 51
1, 23509, Control_c, 0, 64, 50
1, 23524, Control_c, 0, 64, 49
1, 23528, Note_off_c, 0, 65, 41
1, 23529, Note_on_c, 0, 67, 64
1, 23539, Control_c, 0, 64, 47
1, 23553, Control_c, 0, 64, 45
1, 23568, Control_c, 0, 64, 42
1, 23583, Note_off_c, 0, 67, 58
1, 23583, Control_c, 0, 64, 40
1, 23597, Control_c, 0, 64, 38
1, 23609, Note_on_c, 0, 65, 58
1, 23612, Control_c, 0, 64, 36
1, 23627, Control_c, 0, 64, 33
1, 23635, Note_off_c, 0, 65, 64
1, 23640, Note_on_c, 0, 64, 64
1, 23642, Control_c, 0, 64, 30
1, 23657, Control_c, 0, 64, 30
1, 23671, Control_c, 0, 64, 28
1, 23677, Note_off_c, 0, 64, 61
1, 23686, Control_c, 0, 64, 24
1, 23701, Control_c, 0, 64, 21
1, 23709, Note_on_c, 0, 65, 62
1, 23731, Control_c, 0, 64, 24
1, 23745, Control_c, 0, 64, 32
1, 23748, Note_off_c, 0, 65, 62
1, 23760, Control_c, 0, 64, 40
1, 23764, Note_on_c, 0, 69, 63
1, 23775, Control_c, 0, 64, 47
1, 23790, Control_c, 0, 64, 52
1, 23804, Control_c, 0, 64, 57
1, 23819, Control_c, 0, 64, 60
1, 23834, Control_c, 0, 64, 63
1, 23836, Note_off_c, 0, 48, 61
1, 23849, Control_c, 0, 64, 64
1, 23851, Note_off_c, 0, 58, 63
1, 23864, Control_c, 0, 64, 64
1, 23879, Control_c, 0, 64, 65
1, 23894, Control_c, 0, 64, 66
1, 23897, Note_on_c, 0, 67, 61
1, 23909, Control_c, 0, 64, 67
1, 23916, Note_off_c, 0, 69, 53
1, 23924, Control_c, 0, 64, 68
1, 23953, Control_c, 0, 64, 68
1, 23983, Control_c, 0, 64, 68
1, 23997, Control_c, 0, 64, 67
1, 24012, Control_c, 0, 64, 65
1, 24017, Note_off_c, 0, 67, 56
1, 24027, Control_c, 0, 64, 62
1, 24042, Control_c, 0, 64, 56
1, 24057, Control_c, 0, 64, 51
1, 24071, Control_c, 0, 64, 50
1, 24075, Note_on_c, 0, 65, 55
1, 24086, Control_c, 0, 64, 50
1, 24093, Note_on_c, 0, 53, 42
1, 24093, Note_on_c, 0, 59, 42
1, 24101, Control_c, 0, 64, 53
1, 24108, Note_on_c, 0, 50, 40
1, 24115, Control_c, 0, 64, 57
1, 24115, Control_c, 0, 67, 8
1, 24130, Control_c, 0, 64, 60
1, 24130, Control_c, 0, 67, 11
1, 24144, Note_off_c, 0, 65, 62
1, 24145, Control_c, 0, 64, 61
1, 24145, Control_c, 0, 67, 15
1, 24160, Control_c, 0, 64, 61
1, 24160, Control_c, 0, 67, 19
1, 24175, Control_c, 0, 67, 28
1, 24189, Control_c, 0, 67, 37
1, 24204, Control_c, 0, 67, 44
1, 24227, Control_c, 0, 64, 60
1, 24227, Control_c, 0, 67, 48
1, 24242, Control_c, 0, 64, 59
1, 24242, Control_c, 0, 67, 49
1, 24257, Control_c, 0, 64, 57
1, 24257, Control_c, 0, 67, 50
1, 24272, Control_c, 0, 64, 56
1, 24272, Control_c, 0, 67, 54
1, 24287, Control_c, 0, 64, 55
1, 24287, Control_c, 0, 67, 59
1, 24302, Control_c, 0, 64, 54
1, 24302, Control_c, 0, 67, 63
1, 24317, Control_c, 0, 64, 52
1, 24317, Control_c, 0, 67, 65
1, 24332, Control_c, 0, 64, 50
1, 24332, Control_c, 0, 67, 68
1, 24347, Control_c, 0, 64, 49
1, 24347, Control_c, 0, 67, 71
1, 24360, Note_on_c, 0, 81, 13
1, 24362, Control_c, 0, 67, 72
1, 24371, Note_on_c, 0, 79, 8
1, 24376, Control_c, 0, 64, 48
1, 24376, Control_c, 0, 67, 73
1, 24391, Control_c, 0, 64, 46
1, 24391, Control_c, 0, 67, 75
1, 24406, Control_c, 0, 64, 46
1, 24406, Control_c, 0, 67, 78
1, 24420, Control_c, 0, 64, 47
1, 24420, Control_c, 0, 67, 81
1, 24435, Control_c, 0, 64, 48
1, 24435, Control_c, 0, 67, 83
1, 24439, Note_off_c, 0, 81, 38
1, 24450, Control_c, 0, 64, 49
1, 24465, Control_c, 0, 67, 83
1, 24480, Control_c, 0, 67, 84
1, 24494, Control_c, 0, 64, 50
1, 24494, Control_c, 0, 67, 84
1, 24509, Control_c, 0, 64, 51
1, 24509, Control_c, 0, 67, 86
1, 24524, Control_c, 0, 67, 88
1, 24538, Control_c, 0, 64, 51
1, 24538, Control_c, 0, 67, 90
1, 24553, Control_c, 0, 67, 90
1, 24568, Control_c, 0, 64, 51
1, 24568, Control_c, 0, 67, 91
1, 24570, Note_on_c, 0, 77, 63
1, 24583, Control_c, 0, 64, 52
1, 24598, Control_c, 0, 64, 52
1, 24612, Control_c, 0, 67, 91
1, 24627, Control_c, 0, 64, 53
1, 24642, Control_c, 0, 64, 54
1, 24657, Control_c, 0, 64, 56
1, 24672, Control_c, 0, 64, 56
1, 24672, Control_c, 0, 67, 91
1, 24690, Note_off_c, 0, 77, 58
1, 24691, Note_off_c, 0, 79, 32
1, 24702, Note_on_c, 0, 76, 63
1, 24702, Control_c, 0, 67, 90
1, 24716, Control_c, 0, 64, 57
1, 24716, Control_c, 0, 67, 90
1, 24731, Control_c, 0, 64, 58
1, 24746, Control_c, 0, 64, 57
1, 24786, Note_off_c, 0, 76, 64
1, 24806, Control_c, 0, 64, 58
1, 24820, Control_c, 0, 64, 58
1, 24821, Note_on_c, 0, 74, 62
1, 24835, Control_c, 0, 64, 59
1, 24835, Control_c, 0, 67, 89
1, 24850, Control_c, 0, 64, 59
1, 24865, Control_c, 0, 64, 60
1, 24868, Note_off_c, 0, 53, 38
1, 24880, Control_c, 0, 64, 61
1, 24894, Control_c, 0, 64, 62
1, 24909, Control_c, 0, 64, 62
1, 24953, Control_c, 0, 67, 89
1, 24955, Note_off_c, 0, 74, 60
1, 24973, Note_on_c, 0, 72, 54
1, 24976, Control_c, 0, 67, 88
1, 24991, Control_c, 0, 67, 88
1, 25006, Control_c, 0, 67, 87
1, 25050, Control_c, 0, 67, 87
1, 25066, Note_off_c, 0, 72, 52
1, 25080, Control_c, 0, 64, 62
1, 25095, Control_c, 0, 64, 61
1, 25095, Control_c, 0, 67, 86
1, 25096, Note_on_c, 0, 71, 58
1, 25140, Control_c, 0, 64, 61
1, 25140, Control_c, 0, 67, 86
1, 25155, Control_c, 0, 64, 60
1, 25155, Control_c, 0, 67, 85
1, 25169, Control_c, 0, 64, 58
1, 25178, Note_off_c, 0, 71, 50
1, 25184, Control_c, 0, 64, 58
1, 25212, Note_off_c, 0, 50, 51
1, 25214, Control_c, 0, 64, 56
1, 25221, Note_off_c, 0, 59, 42
1, 25223, Note_on_c, 0, 54, 56
1, 25227, Note_on_c, 0, 70, 63
1, 25229, Control_c, 0, 64, 52
1, 25229, Control_c, 0, 67, 84
1, 25243, Control_c, 0, 64, 49
1, 25258, Control_c, 0, 64, 48
1, 25273, Control_c, 0, 64, 48
1, 25273, Control_c, 0, 67, 84
1, 25288, Control_c, 0, 64, 46
1, 25303, Control_c, 0, 64, 44
1, 25303, Control_c, 0, 67, 83
1, 25312, Note_off_c, 0, 70, 56
1, 25317, Control_c, 0, 64, 43
1, 25341, Note_off_c, 0, 54, 62
1, 25347, Control_c, 0, 64, 44
1, 25360, Note_on_c, 0, 55, 65
1, 25363, Note_on_c, 0, 76, 59
1, 25376, Control_c, 0, 64, 43
1, 25391, Control_c, 0, 64, 43
1, 25391, Control_c, 0, 67, 82
1, 25406, Control_c, 0, 64, 42
1, 25421, Control_c, 0, 67, 82
1, 25450, Control_c, 0, 67, 81
1, 25462, Note_off_c, 0, 76, 54
1, 25465, Control_c, 0, 67, 81
1, 25473, Note_off_c, 0, 55, 63
1, 25478, Note_on_c, 0, 72, 60
1, 25480, Control_c, 0, 67, 80
1, 25487, Note_on_c, 0, 57, 68
1, 25495, Control_c, 0, 64, 43
1, 25495, Control_c, 0, 67, 80
1, 25539, Control_c, 0, 67, 79
1, 25569, Control_c, 0, 67, 79
1, 25584, Note_off_c, 0, 57, 57
1, 25596, Note_on_c, 0, 58, 66
1, 25597, Note_on_c, 0, 76, 64
1, 25614, Control_c, 0, 64, 42
1, 25629, Control_c, 0, 67, 78
1, 25643, Note_off_c, 0, 72, 28
1, 25658, Control_c, 0, 67, 78
1, 25718, Note_off_c, 0, 76, 62
1, 25722, Note_off_c, 0, 58, 65
1, 25737, Note_on_c, 0, 60, 73
1, 25741, Note_on_c, 0, 70, 60
1, 25784, Control_c, 0, 67, 77
1, 25787, Note_off_c, 0, 70, 61
1, 25828, Control_c, 0, 64, 42
1, 25844, Control_c, 0, 64, 41
1, 25858, Note_on_c, 0, 61, 70
1, 25859, Control_c, 0, 64, 41
1, 25863, Note_off_c, 0, 60, 58
1, 25864, Note_on_c, 0, 79, 64
1, 25873, Control_c, 0, 64, 40
1, 25888, Control_c, 0, 64, 40
1, 25903, Control_c, 0, 64, 38
1, 25903, Control_c, 0, 67, 77
1, 25918, Control_c, 0, 64, 37
1, 25933, Control_c, 0, 64, 36
1, 25947, Control_c, 0, 64, 34
1, 25947, Control_c, 0, 67, 76
1, 25962, Control_c, 0, 64, 33
1, 25968, Note_off_c, 0, 79, 61
1, 25977, Control_c, 0, 64, 32
1, 25977, Control_c, 0, 67, 76
1, 25985, Note_on_c, 0, 62, 79
1, 25991, Control_c, 0, 64, 31
1, 25991, Control_c, 0, 67, 75
1, 25998, Note_on_c, 0, 72, 62
1, 26006, Control_c, 0, 67, 74
1, 26019, Note_off_c, 0, 61, 54
1, 26021, Control_c, 0, 64, 30
1, 26021, Control_c, 0, 67, 73
1, 26036, Control_c, 0, 64, 28
1, 26036, Control_c, 0, 67, 72
1, 26051, Control_c, 0, 64, 26
1, 26051, Control_c, 0, 67, 70
1, 26065, Control_c, 0, 67, 68
1, 26080, Control_c, 0, 64, 26
1, 26080, Control_c, 0, 67, 65
1, 26081, Note_off_c, 0, 72, 59
1, 26095, Control_c, 0, 64, 25
1, 26095, Control_c, 0, 67, 61
1, 26110, Control_c, 0, 67, 55
1, 26112, Note_off_c, 0, 62, 62
1, 26113, Note_on_c, 0, 79, 63
1, 26114, Note_on_c, 0, 64, 77
1, 26125, Control_c, 0, 64, 24
1, 26125, Control_c, 0, 67, 47
1, 26139, Control_c, 0, 64, 21
1, 26139, Control_c, 0, 67, 38
1, 26154, Control_c, 0, 64, 20
1, 26154, Control_c, 0, 67, 28
1, 26169, Control_c, 0, 67, 19
1, 26170, Note_off_c, 0, 79, 55
1, 26184, Control_c, 0, 67, 0
1, 26198, Control_c, 0, 64, 19
1, 26204, Note_off_c, 0, 64, 64
1, 26213, Control_c, 0, 64, 17
1, 26228, Control_c, 0, 64, 15
1, 26240, Note_on_c, 0, 65, 76
1, 26243, Note_on_c, 0, 69, 65
1, 26243, Control_c, 0, 64, 14
1, 26272, Control_c, 0, 64, 8
1, 26276, Note_off_c, 0, 65, 57
1, 26279, Note_off_c, 0, 69, 65
1, 26287, Control_c, 0, 64, 0
1, 26352, Note_on_c, 0, 53, 73
1, 26390, Note_off_c, 0, 53, 62
1, 26494, Note_on_c, 0, 72, 75
1, 26497, Note_on_c, 0, 65, 76
1, 26503, Note_on_c, 0, 69, 64
1, 26517, Control_c, 0, 64, 21
1, 26532, Control_c, 0, 64, 44
1, 26547, Control_c, 0, 64, 54
1, 26562, Control_c, 0, 64, 54
1, 26591, Control_c, 0, 64, 54
1, 26603, Note_off_c, 0, 65, 61
1, 26621, Control_c, 0, 64, 53
1, 26622, Note_on_c, 0, 64, 80
1, 26636, Control_c, 0, 64, 51
1, 26652, Control_c, 0, 64, 48
1, 26667, Control_c, 0, 64, 44
1, 26668, Note_off_c, 0, 69, 62
1, 26682, Control_c, 0, 64, 40
1, 26696, Control_c, 0, 64, 34
1, 26702, Note_off_c, 0, 72, 54
1, 26711, Control_c, 0, 64, 23
1, 26721, Note_off_c, 0, 64, 64
1, 26726, Control_c, 0, 64, 0
1, 26758, Note_on_c, 0, 62, 79
1, 26809, Note_off_c, 0, 62, 61
1, 26882, Note_on_c, 0, 50, 74
1, 26916, Note_off_c, 0, 50, 67
1, 26919, Note_on_c, 0, 51, 18
1, 26961, Note_off_c, 0, 51, 29
1, 27018, Note_on_c, 0, 77, 79
1, 27021, Note_on_c, 0, 62, 70
1, 27026, Note_on_c, 0, 69, 71
1, 27037, Control_c, 0, 64, 37
1, 27052, Control_c, 0, 64, 55
1, 27067, Control_c, 0, 64, 59
1, 27082, Control_c, 0, 64, 61
1, 27096, Control_c, 0, 64, 63
1, 27109, Note_off_c, 0, 62, 62
1, 27111, Control_c, 0, 64, 65
1, 27126, Control_c, 0, 64, 67
1, 27140, Note_on_c, 0, 60, 76
1, 27140, Control_c, 0, 64, 68
1, 27155, Control_c, 0, 64, 69
1, 27170, Control_c, 0, 64, 69
1, 27185, Control_c, 0, 64, 70
1, 27199, Note_off_c, 0, 69, 53
1, 27224, Note_off_c, 0, 77, 51
1, 27242, Note_off_c, 0, 60, 59
1, 27252, Control_c, 0, 64, 69
1, 27267, Control_c, 0, 64, 67
1, 27282, Control_c, 0, 64, 60
1, 27292, Note_on_c, 0, 58, 79
1, 27296, Control_c, 0, 64, 37
1, 27311, Control_c, 0, 64, 0
1, 27330, Note_off_c, 0, 58, 62
1, 27413, Note_on_c, 0, 46, 88
1, 27459, Note_off_c, 0, 46, 62
1, 27549, Control_c, 0, 64, 20
1, 27552, Note_on_c, 0, 77, 78
1, 27562, Note_on_c, 0, 58, 72
1, 27562, Note_on_c, 0, 74, 65
1, 27563, Control_c, 0, 64, 57
1, 27578, Control_c, 0, 64, 62
1, 27593, Control_c, 0, 64, 63
1, 27608, Control_c, 0, 64, 67
1, 27623, Control_c, 0, 64, 72
1, 27638, Control_c, 0, 64, 78
1, 27653, Control_c, 0, 64, 80
1, 27668, Control_c, 0, 64, 82
1, 27675, Note_on_c, 0, 57, 83
1, 27682, Control_c, 0, 64, 84
1, 27688, Note_off_c, 0, 74, 57
1, 27697, Control_c, 0, 64, 85
1, 27704, Note_off_c, 0, 58, 0
1, 27712, Control_c, 0, 64, 86
1, 27719, Note_off_c, 0, 77, 62
1, 27749, Poly_aftertouch_c, 0, 58, 0
1, 27762, Note_off_c, 0, 57, 63
1, 27771, Control_c, 0, 64, 85
1, 27786, Control_c, 0, 64, 79
1, 27801, Control_c, 0, 64, 65
1, 27804, Note_on_c, 0, 55, 83
1, 27816, Control_c, 0, 64, 45
1, 27831, Control_c, 0, 64, 0
1, 27863, Note_off_c, 0, 55, 63
1, 27931, Note_on_c, 0, 43, 78
1, 27945, Note_on_c, 0, 44, 51
1, 27976, Note_off_c, 0, 43, 63
1, 27984, Note_off_c, 0, 44, 50
1, 28074, Note_on_c, 0, 55, 70
1, 28078, Note_on_c, 0, 82, 78
1, 28083, Note_on_c, 0, 74, 69
1, 28141, Note_off_c, 0, 55, 60
1, 28157, Note_off_c, 0, 74, 63
1, 28167, Note_off_c, 0, 82, 62
1, 28206, Note_on_c, 0, 53, 80
1, 28252, Note_off_c, 0, 53, 61
1, 28408, Note_on_c, 0, 82, 76
1, 28411, Note_on_c, 0, 73, 60
1, 28421, Note_on_c, 0, 53, 65
1, 28594, Control_c, 0, 64, 38
1, 28609, Control_c, 0, 64, 53
1, 28624, Control_c, 0, 64, 58
1, 28639, Control_c, 0, 64, 59
1, 28654, Control_c, 0, 64, 60
1, 28668, Control_c, 0, 64, 62
1, 28683, Control_c, 0, 64, 63
1, 28698, Control_c, 0, 64, 64
1, 28720, Control_c, 0, 64, 65
1, 28735, Control_c, 0, 64, 65
1, 28750, Control_c, 0, 64, 66
1, 28765, Control_c, 0, 64, 66
1, 28779, Control_c, 0, 64, 67
1, 28985, Control_c, 0, 64, 66
1, 29015, Control_c, 0, 64, 66
1, 29030, Control_c, 0, 64, 65
1, 29045, Control_c, 0, 64, 65
1, 29060, Control_c, 0, 64, 64
1, 29075, Control_c, 0, 64, 62
1, 29089, Control_c, 0, 64, 60
1, 29104, Control_c, 0, 64, 57
1, 29119, Control_c, 0, 64, 53
1, 29130, Note_on_c, 0, 52, 7
1, 29132, Note_on_c, 0, 72, 41
1, 29134, Control_c, 0, 64, 41
1, 29143, Note_off_c, 0, 73, 58
1, 29149, Control_c, 0, 64, 0
1, 29160, Note_off_c, 0, 53, 51
1, 29253, Control_c, 0, 64, 8
1, 29268, Control_c, 0, 64, 36
1, 29282, Control_c, 0, 64, 50
1, 29297, Control_c, 0, 64, 57
1, 29312, Control_c, 0, 64, 59
1, 29326, Control_c, 0, 64, 60
1, 29341, Control_c, 0, 64, 62
1, 29356, Control_c, 0, 64, 65
1, 29371, Control_c, 0, 64, 67
1, 29379, Note_off_c, 0, 82, 52
1, 29386, Control_c, 0, 64, 69
1, 29401, Control_c, 0, 64, 70
1, 29415, Control_c, 0, 64, 71
1, 29420, Note_off_c, 0, 72, 56
1, 29430, Control_c, 0, 64, 71
1, 29445, Control_c, 0, 64, 72
1, 29467, Note_off_c, 0, 52, 49
1, 29497, Control_c, 0, 64, 71
1, 29541, Control_c, 0, 64, 70
1, 29556, Control_c, 0, 64, 67
1, 29571, Control_c, 0, 64, 64
1, 29586, Control_c, 0, 64, 61
1, 29601, Control_c, 0, 64, 59
1, 29615, Control_c, 0, 64, 57
1, 29630, Control_c, 0, 64, 53
1, 29645, Control_c, 0, 64, 50
1, 29660, Control_c, 0, 64, 49
1, 29675, Control_c, 0, 64, 49
1, 29689, Control_c, 0, 64, 46
1, 29704, Control_c, 0, 64, 40
1, 29719, Control_c, 0, 64, 37
1, 29733, Control_c, 0, 64, 37
1, 29778, Control_c, 0, 64, 36
1, 29792, Note_on_c, 0, 76, 68
1, 29808, Control_c, 0, 64, 37
1, 29808, Note_on_c, 0, 70, 52
1, 29823, Control_c, 0, 64, 41
1, 29838, Control_c, 0, 64, 42
1, 29853, Control_c, 0, 64, 43
1, 29868, Control_c, 0, 64, 45
1, 29883, Control_c, 0, 64, 47
1, 29898, Control_c, 0, 64, 52
1, 29912, Control_c, 0, 64, 55
1, 30017, Control_c, 0, 64, 54
1, 30046, Control_c, 0, 64, 53
1, 30061, Control_c, 0, 64, 54
1, 30098, Note_on_c, 0, 69, 66
1, 30216, Control_c, 0, 64, 54
1, 30231, Note_off_c, 0, 69, 63
1, 30235, Note_on_c, 0, 67, 74
1, 30364, Note_on_c, 0, 65, 75
1, 30367, Note_off_c, 0, 67, 64
1, 30464, Note_off_c, 0, 65, 62
1, 30491, Note_on_c, 0, 64, 71
1, 30557, Control_c, 0, 64, 55
1, 30572, Control_c, 0, 64, 56
1, 30587, Control_c, 0, 64, 57
1, 30602, Control_c, 0, 64, 58
1, 30617, Control_c, 0, 64, 58
1, 30632, Note_on_c, 0, 62, 69
1, 30633, Note_off_c, 0, 64, 63
1, 30633, Control_c, 0, 64, 59
1, 30648, Control_c, 0, 64, 60
1, 30662, Control_c, 0, 64, 61
1, 30673, Note_off_c, 0, 76, 19
1, 30677, Control_c, 0, 64, 61
1, 30685, Note_off_c, 0, 70, 43
1, 30692, Control_c, 0, 64, 62
1, 30707, Control_c, 0, 64, 63
1, 30722, Control_c, 0, 64, 63
1, 30736, Control_c, 0, 64, 64
1, 30763, Note_on_c, 0, 60, 64
1, 30775, Note_off_c, 0, 62, 63
1, 30795, Control_c, 0, 64, 64
1, 30797, Note_off_c, 0, 60, 59
1, 30869, Control_c, 0, 64, 64
1, 30884, Control_c, 0, 64, 61
1, 30899, Control_c, 0, 64, 55
1, 30914, Control_c, 0, 64, 50
1, 30929, Control_c, 0, 64, 49
1, 30941, Note_on_c, 0, 77, 68
1, 30944, Control_c, 0, 64, 49
1, 30944, Note_on_c, 0, 60, 42
1, 30966, Note_on_c, 0, 69, 52
1, 30966, Control_c, 0, 64, 51
1, 30981, Control_c, 0, 64, 55
1, 30995, Control_c, 0, 64, 58
1, 31010, Control_c, 0, 64, 61
1, 31025, Control_c, 0, 64, 62
1, 31040, Control_c, 0, 64, 63
1, 31054, Control_c, 0, 64, 64
1, 31059, Note_off_c, 0, 77, 64
1, 31069, Control_c, 0, 64, 65
1, 31082, Note_off_c, 0, 69, 53
1, 31084, Control_c, 0, 64, 66
1, 31099, Control_c, 0, 64, 67
1, 31114, Control_c, 0, 64, 68
1, 31233, Control_c, 0, 64, 68
1, 31248, Control_c, 0, 64, 67
1, 31262, Control_c, 0, 64, 66
1, 31277, Control_c, 0, 64, 66
1, 31292, Control_c, 0, 64, 64
1, 31297, Note_on_c, 0, 81, 63
1, 31304, Note_on_c, 0, 70, 55
1, 31306, Control_c, 0, 64, 62
1, 31321, Control_c, 0, 64, 59
1, 31336, Control_c, 0, 64, 54
1, 31351, Control_c, 0, 64, 51
1, 31366, Control_c, 0, 64, 48
1, 31380, Control_c, 0, 64, 44
1, 31395, Control_c, 0, 64, 39
1, 31410, Control_c, 0, 64, 34
1, 31423, Note_on_c, 0, 79, 71
1, 31425, Control_c, 0, 64, 32
1, 31445, Note_off_c, 0, 81, 56
1, 31471, Control_c, 0, 64, 32
1, 31500, Control_c, 0, 64, 32
1, 31515, Control_c, 0, 64, 35
1, 31530, Control_c, 0, 64, 36
1, 31559, Control_c, 0, 64, 37
1, 31565, Note_on_c, 0, 77, 66
1, 31574, Control_c, 0, 64, 39
1, 31589, Control_c, 0, 64, 43
1, 31603, Control_c, 0, 64, 48
1, 31663, Control_c, 0, 64, 49
1, 31677, Control_c, 0, 64, 50
1, 31694, Note_on_c, 0, 76, 70
1, 31710, Note_off_c, 0, 77, 53
1, 31711, Note_off_c, 0, 79, 28
1, 31715, Control_c, 0, 64, 49
1, 31774, Control_c, 0, 64, 49
1, 31789, Control_c, 0, 64, 48
1, 31809, Note_off_c, 0, 76, 62
1, 31818, Control_c, 0, 64, 49
1, 31833, Control_c, 0, 64, 50
1, 31836, Note_on_c, 0, 74, 67
1, 31840, Note_off_c, 0, 60, 46
1, 31843, Note_on_c, 0, 62, 57
1, 31848, Control_c, 0, 64, 53
1, 31863, Control_c, 0, 64, 55
1, 31878, Control_c, 0, 64, 56
1, 31892, Control_c, 0, 64, 57
1, 31903, Note_off_c, 0, 70, 35
1, 31906, Control_c, 0, 64, 58
1, 31921, Control_c, 0, 64, 59
1, 31936, Control_c, 0, 64, 60
1, 31966, Control_c, 0, 64, 61
1, 31971, Note_on_c, 0, 64, 63
1, 31973, Note_on_c, 0, 72, 63
1, 31981, Control_c, 0, 64, 61
1, 31982, Note_off_c, 0, 74, 57
1, 31985, Note_off_c, 0, 62, 60
1, 32010, Note_off_c, 0, 72, 57
1, 32040, Control_c, 0, 64, 61
1, 32055, Control_c, 0, 64, 60
1, 32070, Control_c, 0, 64, 59
1, 32084, Control_c, 0, 64, 56
1, 32099, Control_c, 0, 64, 53
1, 32108, Note_off_c, 0, 64, 62
1, 32114, Control_c, 0, 64, 50
1, 32116, Note_on_c, 0, 72, 64
1, 32125, Note_on_c, 0, 65, 59
1, 32128, Note_on_c, 0, 69, 57
1, 32158, Control_c, 0, 64, 51
1, 32202, Control_c, 0, 64, 52
1, 32217, Control_c, 0, 64, 52
1, 32240, Note_off_c, 0, 65, 49
1, 32248, Note_on_c, 0, 66, 64
1, 32300, Note_off_c, 0, 69, 37
1, 32383, Note_off_c, 0, 66, 62
1, 32400, Note_on_c, 0, 69, 65
1, 32401, Note_on_c, 0, 70, 63
1, 32440, Control_c, 0, 64, 53
1, 32463, Control_c, 0, 64, 53
1, 32493, Control_c, 0, 64, 54
1, 32505, Note_off_c, 0, 69, 62
1, 32507, Control_c, 0, 64, 55
1, 32522, Control_c, 0, 64, 55
1, 32529, Note_on_c, 0, 67, 69
1, 32667, Note_off_c, 0, 67, 63
1, 32670, Note_on_c, 0, 65, 67
1, 32744, Control_c, 0, 64, 56
1, 32772, Note_off_c, 0, 65, 62
1, 32774, Control_c, 0, 64, 57
1, 32789, Control_c, 0, 64, 57
1, 32804, Note_on_c, 0, 64, 65
1, 32848, Control_c, 0, 64, 57
1, 32863, Control_c, 0, 64, 55
1, 32878, Control_c, 0, 64, 52
1, 32893, Control_c, 0, 64, 50
1, 32907, Control_c, 0, 64, 50
1, 32937, Control_c, 0, 64, 50
1, 32950, Note_on_c, 0, 62, 61
1, 32950, Note_off_c, 0, 64, 59
1, 32951, Control_c, 0, 64, 51
1, 32953, Note_on_c, 0, 74, 69
1, 32954, Note_off_c, 0, 72, 30
1, 32966, Control_c, 0, 64, 52
1, 32981, Control_c, 0, 64, 55
1, 32996, Control_c, 0, 64, 57
1, 33011, Control_c, 0, 64, 59
1, 33027, Control_c, 0, 64, 60
1, 33042, Control_c, 0, 64, 62
1, 33056, Control_c, 0, 64, 64
1, 33058, Note_off_c, 0, 74, 55
1, 33069, Note_on_c, 0, 60, 66
1, 33071, Control_c, 0, 64, 65
1, 33078, Note_off_c, 0, 62, 63
1, 33079, Note_on_c, 0, 76, 69
1, 33085, Note_off_c, 0, 70, 37
1, 33086, Control_c, 0, 64, 66
1, 33098, Note_off_c, 0, 60, 63
1, 33101, Control_c, 0, 64, 67
1, 33116, Control_c, 0, 64, 68
1, 33174, Control_c, 0, 64, 67
1, 33186, Note_off_c, 0, 76, 62
1, 33189, Control_c, 0, 64, 64
1, 33212, Control_c, 0, 64, 59
1, 33212, Note_on_c, 0, 60, 46
1, 33227, Control_c, 0, 64, 53
1, 33233, Note_on_c, 0, 77, 72
1, 33242, Control_c, 0, 64, 52
1, 33247, Note_on_c, 0, 69, 58
1, 33256, Control_c, 0, 64, 52
1, 33271, Control_c, 0, 64, 53
1, 33286, Control_c, 0, 64, 55
1, 33301, Control_c, 0, 64, 57
1, 33316, Control_c, 0, 64, 59
1, 33330, Control_c, 0, 64, 61
1, 33345, Control_c, 0, 64, 62
1, 33360, Control_c, 0, 64, 63
1, 33361, Note_off_c, 0, 77, 64
1, 33368, Note_on_c, 0, 78, 67
1, 33375, Control_c, 0, 64, 63
1, 33424, Note_off_c, 0, 69, 36
1, 33464, Control_c, 0, 64, 63
1, 33479, Control_c, 0, 64, 61
1, 33488, Note_off_c, 0, 78, 60
1, 33494, Control_c, 0, 64, 56
1, 33507, Note_on_c, 0, 81, 76
1, 33509, Control_c, 0, 64, 50
1, 33518, Note_on_c, 0, 70, 64
1, 33524, Control_c, 0, 64, 46
1, 33538, Control_c, 0, 64, 44
1, 33553, Control_c, 0, 64, 42
1, 33568, Control_c, 0, 64, 40
1, 33582, Control_c, 0, 64, 39
1, 33627, Control_c, 0, 64, 38
1, 33640, Note_on_c, 0, 79, 72
1, 33642, Control_c, 0, 64, 36
1, 33647, Note_off_c, 0, 81, 57
1, 33656, Control_c, 0, 64, 36
1, 33671, Control_c, 0, 64, 36
1, 33686, Control_c, 0, 64, 37
1, 33701, Control_c, 0, 64, 36
1, 33746, Control_c, 0, 64, 38
1, 33761, Control_c, 0, 64, 40
1, 33776, Note_on_c, 0, 77, 70
1, 33790, Control_c, 0, 64, 40
1, 33805, Control_c, 0, 64, 42
1, 33820, Control_c, 0, 64, 46
1, 33835, Control_c, 0, 64, 48
1, 33850, Control_c, 0, 64, 48
1, 33880, Control_c, 0, 64, 48
1, 33895, Control_c, 0, 64, 49
1, 33904, Note_on_c, 0, 76, 67
1, 33904, Note_off_c, 0, 79, 29
1, 33907, Note_off_c, 0, 77, 59
1, 33910, Control_c, 0, 64, 50
1, 33924, Control_c, 0, 64, 50
1, 33939, Control_c, 0, 64, 49
1, 33991, Control_c, 0, 64, 49
1, 34012, Note_off_c, 0, 76, 64
1, 34020, Control_c, 0, 64, 49
1, 34035, Control_c, 0, 64, 50
1, 34044, Note_on_c, 0, 74, 66
1, 34047, Note_on_c, 0, 62, 61
1, 34050, Control_c, 0, 64, 53
1, 34057, Note_off_c, 0, 60, 46
1, 34065, Note_off_c, 0, 70, 57
1, 34065, Control_c, 0, 64, 58
1, 34079, Control_c, 0, 64, 61
1, 34094, Control_c, 0, 64, 62
1, 34124, Control_c, 0, 64, 63
1, 34169, Note_on_c, 0, 72, 71
1, 34178, Note_on_c, 0, 64, 63
1, 34187, Note_off_c, 0, 62, 61
1, 34192, Note_off_c, 0, 74, 62
1, 34203, Note_off_c, 0, 72, 61
1, 34243, Control_c, 0, 64, 62
1, 34258, Control_c, 0, 64, 61
1, 34273, Control_c, 0, 64, 60
1, 34287, Control_c, 0, 64, 59
1, 34290, Note_off_c, 0, 64, 62
1, 34302, Control_c, 0, 64, 57
1, 34317, Control_c, 0, 64, 54
1, 34319, Note_on_c, 0, 69, 65
1, 34319, Note_on_c, 0, 72, 65
1, 34321, Note_on_c, 0, 65, 67
1, 34331, Control_c, 0, 64, 51
1, 34346, Control_c, 0, 64, 49
1, 34361, Control_c, 0, 64, 48
1, 34376, Control_c, 0, 64, 46
1, 34391, Control_c, 0, 64, 44
1, 34405, Control_c, 0, 64, 42
1, 34416, Note_off_c, 0, 69, 60
1, 34420, Control_c, 0, 64, 41
1, 34435, Control_c, 0, 64, 40
1, 34446, Note_on_c, 0, 77, 71
1, 34450, Control_c, 0, 64, 38
1, 34465, Control_c, 0, 64, 34
1, 34472, Note_off_c, 0, 72, 31
1, 34479, Control_c, 0, 64, 29
1, 34494, Control_c, 0, 64, 27
1, 34509, Control_c, 0, 64, 26
1, 34524, Control_c, 0, 64, 21
1, 34539, Control_c, 0, 64, 10
1, 34540, Note_off_c, 0, 77, 61
1, 34553, Control_c, 0, 64, 0
1, 34583, Note_on_c, 0, 69, 63
1, 34674, Note_off_c, 0, 65, 58
1, 34703, Note_off_c, 0, 69, 63
1, 34714, Note_on_c, 0, 72, 67
1, 34811, Note_off_c, 0, 72, 53
1, 34847, Note_on_c, 0, 65, 67
1, 34961, Note_off_c, 0, 65, 56
1, 34973, Note_on_c, 0, 69, 70
1, 35061, Note_off_c, 0, 69, 64
1, 35105, Note_on_c, 0, 60, 66
1, 35226, Note_off_c, 0, 60, 56
1, 35236, Note_on_c, 0, 64, 61
1, 35370, Note_on_c, 0, 53, 72
1, 35373, Note_on_c, 0, 65, 68
1, 35382, Note_off_c, 0, 64, 58
1, 35501, Note_off_c, 0, 53, 61
1, 35505, Note_on_c, 0, 57, 74
1, 35612, Note_off_c, 0, 57, 61
1, 35624, Note_off_c, 0, 65, 63
1, 35636, Note_on_c, 0, 50, 75
1, 35739, Note_off_c, 0, 50, 66
1, 35762, Note_on_c, 0, 53, 71
1, 35879, Note_off_c, 0, 53, 61
1, 35895, Note_on_c, 0, 49, 74
1, 36003, Note_off_c, 0, 49, 63
1, 36023, Note_on_c, 0, 52, 75
1, 36139, Note_off_c, 0, 52, 59
1, 36153, Note_on_c, 0, 45, 66
1, 36153, Note_on_c, 0, 81, 77
1, 36210, Note_off_c, 0, 81, 61
1, 36279, Note_off_c, 0, 45, 62
1, 36285, Note_on_c, 0, 49, 69
1, 36419, Note_off_c, 0, 49, 61
1, 36428, Note_on_c, 0, 50, 72
1, 36428, Note_on_c, 0, 79, 78
1, 36560, Note_on_c, 0, 77, 75
1, 36677, Note_off_c, 0, 79, 33
1, 36681, Note_off_c, 0, 77, 59
1, 36691, Note_on_c, 0, 76, 71
1, 36794, Note_off_c, 0, 76, 64
1, 36804, Note_off_c, 0, 50, 65
1, 36823, Note_on_c, 0, 74, 71
1, 36962, Note_off_c, 0, 74, 62
1, 36967, Note_on_c, 0, 77, 73
1, 37078, Note_on_c, 0, 76, 75
1, 37078, Note_off_c, 0, 77, 63
1, 37191, Note_off_c, 0, 76, 61
1, 37215, Note_on_c, 0, 69, 82
1, 37219, Note_on_c, 0, 79, 68
1, 37247, Note_off_c, 0, 69, 67
1, 37302, Note_off_c, 0, 79, 62
1, 37338, Note_on_c, 0, 73, 68
1, 37445, Note_off_c, 0, 73, 63
1, 37471, Note_on_c, 0, 74, 77
1, 37473, Note_on_c, 0, 67, 78
1, 37527, Note_off_c, 0, 74, 62
1, 37597, Note_on_c, 0, 65, 77
1, 37606, Note_off_c, 0, 67, 59
1, 37733, Note_on_c, 0, 69, 82
1, 37746, Note_on_c, 0, 64, 64
1, 37766, Note_off_c, 0, 65, 59
1, 37821, Note_off_c, 0, 69, 62
1, 37869, Note_on_c, 0, 62, 76
1, 37877, Note_off_c, 0, 64, 64
1, 37987, Note_on_c, 0, 79, 78
1, 37994, Note_off_c, 0, 62, 64
1, 38000, Note_on_c, 0, 64, 70
1, 38118, Note_on_c, 0, 62, 76
1, 38123, Note_off_c, 0, 64, 65
1, 38214, Note_off_c, 0, 62, 65
1, 38247, Note_on_c, 0, 65, 74
1, 38369, Note_on_c, 0, 59, 75
1, 38371, Note_off_c, 0, 65, 57
1, 38517, Note_on_c, 0, 77, 75
1, 38518, Note_on_c, 0, 60, 75
1, 38533, Note_off_c, 0, 59, 64
1, 38544, Note_off_c, 0, 79, 48
1, 38563, Note_off_c, 0, 60, 61
1, 38640, Note_on_c, 0, 76, 75
1, 38673, Note_off_c, 0, 77, 49
1, 38762, Note_off_c, 0, 76, 56
1, 38777, Note_on_c, 0, 55, 77
1, 38778, Note_on_c, 0, 74, 73
1, 38846, Note_off_c, 0, 55, 62
1, 38882, Note_off_c, 0, 74, 63
1, 38902, Note_on_c, 0, 72, 74
1, 39031, Note_on_c, 0, 67, 77
1, 39035, Note_off_c, 0, 72, 59
1, 39046, Note_on_c, 0, 76, 65
1, 39144, Note_off_c, 0, 76, 58
1, 39168, Note_on_c, 0, 74, 71
1, 39293, Note_off_c, 0, 74, 63
1, 39309, Note_on_c, 0, 77, 71
1, 39397, Note_off_c, 0, 77, 60
1, 39424, Note_on_c, 0, 71, 66
1, 39540, Note_off_c, 0, 71, 62
1, 39561, Note_off_c, 0, 67, 63
1, 39570, Note_on_c, 0, 72, 73
1, 39575, Note_on_c, 0, 65, 73
1, 39612, Note_off_c, 0, 72, 56
1, 39686, Note_on_c, 0, 63, 77
1, 39690, Note_off_c, 0, 65, 61
1, 39826, Note_on_c, 0, 67, 79
1, 39832, Note_on_c, 0, 62, 66
1, 39833, Note_off_c, 0, 63, 60
1, 39889, Note_off_c, 0, 67, 63
1, 39949, Note_off_c, 0, 62, 67
1, 39957, Note_on_c, 0, 60, 71
1, 40089, Note_on_c, 0, 79, 77
1, 40102, Note_on_c, 0, 63, 77
1, 40114, Note_off_c, 0, 60, 62
1, 40216, Note_on_c, 0, 62, 72
1, 40221, Note_off_c, 0, 63, 63
1, 40327, Note_off_c, 0, 62, 65
1, 40353, Note_on_c, 0, 65, 74
1, 40379, Note_off_c, 0, 79, 0
1, 40379, Note_on_c, 0, 79, 5
1, 40483, Note_on_c, 0, 59, 72
1, 40490, Note_off_c, 0, 65, 60
1, 40652, Note_on_c, 0, 60, 68
1, 40663, Note_on_c, 0, 77, 69
1, 40664, Note_off_c, 0, 59, 58
1, 40693, Note_off_c, 0, 79, 50
1, 40802, Control_c, 0, 64, 8
1, 40809, Note_on_c, 0, 75, 72
1, 40817, Control_c, 0, 64, 36
1, 40832, Control_c, 0, 64, 46
1, 40837, Note_off_c, 0, 77, 54
1, 40846, Control_c, 0, 64, 49
1, 40861, Control_c, 0, 64, 52
1, 40877, Control_c, 0, 64, 55
1, 40892, Control_c, 0, 64, 57
1, 40907, Control_c, 0, 64, 57
1, 40921, Control_c, 0, 64, 59
1, 40936, Control_c, 0, 64, 61
1, 40941, Note_on_c, 0, 63, 60
1, 40943, Note_on_c, 0, 74, 61
1, 40945, Note_on_c, 0, 67, 60
1, 40951, Control_c, 0, 64, 63
1, 40965, Control_c, 0, 64, 66
1, 40980, Control_c, 0, 64, 67
1, 40995, Control_c, 0, 64, 69
1, 41010, Control_c, 0, 64, 70
1, 41026, Control_c, 0, 64, 73
1, 41040, Note_off_c, 0, 74, 61
1, 41041, Control_c, 0, 64, 74
1, 41048, Note_off_c, 0, 75, 21
1, 41056, Control_c, 0, 64, 76
1, 41062, Note_on_c, 0, 72, 66
1, 41070, Control_c, 0, 64, 78
1, 41085, Control_c, 0, 64, 80
1, 41100, Control_c, 0, 64, 82
1, 41115, Control_c, 0, 64, 82
1, 41174, Control_c, 0, 64, 81
1, 41178, Note_off_c, 0, 67, 61
1, 41182, Note_off_c, 0, 72, 56
1, 41189, Control_c, 0, 64, 77
1, 41200, Note_on_c, 0, 58, 76
1, 41201, Note_on_c, 0, 77, 71
1, 41202, Note_off_c, 0, 60, 62
1, 41204, Note_off_c, 0, 63, 65
1, 41204, Control_c, 0, 64, 71
1, 41219, Control_c, 0, 64, 64
1, 41234, Control_c, 0, 64, 55
1, 41249, Control_c, 0, 64, 47
1, 41263, Control_c, 0, 64, 39
1, 41278, Control_c, 0, 64, 28
1, 41293, Control_c, 0, 64, 12
1, 41308, Control_c, 0, 64, 0
1, 41324, Note_on_c, 0, 75, 71
1, 41336, Note_off_c, 0, 77, 57
1, 41426, Control_c, 0, 64, 32
1, 41448, Note_off_c, 0, 75, 61
1, 41448, Control_c, 0, 64, 47
1, 41454, Note_on_c, 0, 63, 72
1, 41457, Note_on_c, 0, 60, 64
1, 41462, Note_on_c, 0, 74, 69
1, 41463, Control_c, 0, 64, 56
1, 41478, Control_c, 0, 64, 60
1, 41493, Control_c, 0, 64, 63
1, 41508, Control_c, 0, 64, 65
1, 41523, Control_c, 0, 64, 68
1, 41538, Control_c, 0, 64, 70
1, 41547, Note_off_c, 0, 74, 64
1, 41550, Note_off_c, 0, 58, 64
1, 41552, Control_c, 0, 64, 73
1, 41567, Control_c, 0, 64, 77
1, 41582, Control_c, 0, 64, 80
1, 41584, Note_on_c, 0, 72, 69
1, 41596, Control_c, 0, 64, 82
1, 41611, Control_c, 0, 64, 84
1, 41626, Control_c, 0, 64, 85
1, 41641, Control_c, 0, 64, 86
1, 41700, Control_c, 0, 64, 82
1, 41702, Note_off_c, 0, 72, 59
1, 41714, Control_c, 0, 64, 74
1, 41718, Note_on_c, 0, 56, 81
1, 41728, Note_off_c, 0, 60, 61
1, 41729, Control_c, 0, 64, 65
1, 41730, Note_off_c, 0, 63, 57
1, 41731, Note_on_c, 0, 77, 72
1, 41744, Control_c, 0, 64, 48
1, 41759, Control_c, 0, 64, 0
1, 41856, Note_on_c, 0, 75, 72
1, 41879, Note_off_c, 0, 77, 58
1, 41982, Control_c, 0, 64, 38
1, 41985, Note_off_c, 0, 75, 65
1, 41986, Note_on_c, 0, 74, 73
1, 41987, Note_on_c, 0, 63, 74
1, 41991, Note_on_c, 0, 60, 64
1, 41997, Control_c, 0, 64, 44
1, 42012, Control_c, 0, 64, 46
1, 42027, Control_c, 0, 64, 53
1, 42041, Control_c, 0, 64, 59
1, 42056, Control_c, 0, 64, 63
1, 42068, Note_off_c, 0, 74, 64
1, 42071, Control_c, 0, 64, 65
1, 42086, Control_c, 0, 64, 67
1, 42101, Control_c, 0, 64, 69
1, 42101, Note_on_c, 0, 72, 70
1, 42116, Control_c, 0, 64, 70
1, 42131, Control_c, 0, 64, 72
1, 42145, Control_c, 0, 64, 73
1, 42160, Control_c, 0, 64, 73
1, 42212, Control_c, 0, 64, 71
1, 42222, Note_off_c, 0, 72, 60
1, 42226, Note_off_c, 0, 56, 0
1, 42226, Control_c, 0, 64, 64
1, 42237, Note_off_c, 0, 63, 62
1, 42238, Note_on_c, 0, 55, 84
1, 42241, Control_c, 0, 64, 46
1, 42245, Note_off_c, 0, 60, 50
1, 42246, Note_on_c, 0, 77, 76
1, 42256, Control_c, 0, 64, 0
1, 42296, Poly_aftertouch_c, 0, 56, 0
1, 42369, Note_on_c, 0, 75, 74
1, 42392, Note_off_c, 0, 77, 55
1, 42490, Note_off_c, 0, 75, 64
1, 42492, Control_c, 0, 64, 37
1, 42498, Note_on_c, 0, 74, 77
1, 42502, Note_on_c, 0, 63, 73
1, 42507, Note_on_c, 0, 60, 60
1, 42507, Control_c, 0, 64, 57
1, 42522, Control_c, 0, 64, 61
1, 42536, Control_c, 0, 64, 64
1, 42550, Note_off_c, 0, 55, 63
1, 42551, Control_c, 0, 64, 68
1, 42566, Control_c, 0, 64, 74
1, 42580, Note_off_c, 0, 74, 63
1, 42581, Control_c, 0, 64, 78
1, 42596, Control_c, 0, 64, 81
1, 42602, Note_off_c, 0, 63, 60
1, 42612, Control_c, 0, 64, 83
1, 42615, Note_on_c, 0, 72, 85
1, 42616, Note_off_c, 0, 60, 62
1, 42627, Control_c, 0, 64, 85
1, 42641, Control_c, 0, 64, 86
1, 42686, Control_c, 0, 64, 85
1, 42701, Control_c, 0, 64, 78
1, 42715, Control_c, 0, 64, 64
1, 42730, Control_c, 0, 64, 38
1, 42745, Control_c, 0, 64, 0
1, 42762, Note_off_c, 0, 72, 52
1, 42777, Note_on_c, 0, 84, 88
1, 42781, Note_on_c, 0, 54, 69
1, 42784, Note_on_c, 0, 60, 71
1, 42784, Note_on_c, 0, 63, 78
1, 42790, Control_c, 0, 64, 35
1, 42805, Control_c, 0, 64, 60
1, 42818, Note_off_c, 0, 60, 65
1, 42819, Control_c, 0, 64, 75
1, 42820, Note_off_c, 0, 54, 64
1, 42820, Note_off_c, 0, 84, 67
1, 42834, Control_c, 0, 64, 95
1, 42837, Note_off_c, 0, 63, 65
1, 42849, Control_c, 0, 64, 127
1, 43094, Control_c, 0, 64, 119
1, 43109, Control_c, 0, 64, 72
1, 43123, Control_c, 0, 64, 41
1, 43138, Control_c, 0, 64, 0
1, 43339, Note_on_c, 0, 77, 77
1, 43450, Note_on_c, 0, 75, 75
1, 43475, Note_off_c, 0, 77, 59
1, 43568, Note_off_c, 0, 75, 62
1, 43575, Note_on_c, 0, 74, 76
1, 43576, Note_on_c, 0, 55, 62
1, 43579, Note_on_c, 0, 60, 67
1, 43582, Note_on_c, 0, 63, 66
1, 43598, Control_c, 0, 64, 50
1, 43612, Control_c, 0, 64, 64
1, 43627, Control_c, 0, 64, 68
1, 43629, Note_off_c, 0, 55, 57
1, 43637, Note_off_c, 0, 60, 60
1, 43639, Note_off_c, 0, 74, 64
1, 43642, Note_off_c, 0, 63, 63
1, 43642, Control_c, 0, 64, 73
1, 43657, Control_c, 0, 64, 78
1, 43672, Control_c, 0, 64, 82
1, 43694, Control_c, 0, 64, 83
1, 43704, Note_on_c, 0, 72, 80
1, 43728, Note_off_c, 0, 72, 67
1, 43753, Control_c, 0, 64, 83
1, 43768, Control_c, 0, 64, 78
1, 43783, Control_c, 0, 64, 67
1, 43797, Control_c, 0, 64, 55
1, 43812, Control_c, 0, 64, 33
1, 43827, Control_c, 0, 64, 15
1, 43842, Control_c, 0, 64, 13
1, 43857, Control_c, 0, 64, 13
1, 43872, Control_c, 0, 64, 34
1, 43875, Note_on_c, 0, 87, 90
1, 43878, Note_on_c, 0, 60, 75
1, 43878, Note_on_c, 0, 63, 82
1, 43881, Note_on_c, 0, 56, 76
1, 43887, Control_c, 0, 64, 57
1, 43902, Control_c, 0, 64, 71
1, 43907, Note_off_c, 0, 60, 68
1, 43910, Note_off_c, 0, 63, 65
1, 43913, Note_off_c, 0, 56, 66
1, 43916, Control_c, 0, 64, 82
1, 43925, Note_off_c, 0, 87, 66
1, 43931, Control_c, 0, 64, 97
1, 43946, Control_c, 0, 64, 112
1, 43961, Control_c, 0, 64, 127
1, 44197, Control_c, 0, 64, 109
1, 44213, Control_c, 0, 64, 81
1, 44228, Control_c, 0, 64, 63
1, 44243, Control_c, 0, 64, 35
1, 44258, Control_c, 0, 64, 0
1, 44429, Note_on_c, 0, 78, 82
1, 44440, Note_on_c, 0, 44, 78
1, 44442, Note_on_c, 0, 56, 80
1, 44444, Note_on_c, 0, 72, 73
1, 44458, Control_c, 0, 64, 36
1, 44473, Control_c, 0, 64, 61
1, 44487, Control_c, 0, 64, 66
1, 44502, Control_c, 0, 64, 71
1, 44517, Control_c, 0, 64, 80
1, 44525, Note_off_c, 0, 72, 50
1, 44532, Control_c, 0, 64, 88
1, 44546, Control_c, 0, 64, 95
1, 44561, Control_c, 0, 64, 99
1, 44562, Note_off_c, 0, 78, 53
1, 44576, Control_c, 0, 64, 105
1, 44591, Control_c, 0, 64, 109
1, 44606, Control_c, 0, 64, 111
1, 44613, Note_off_c, 0, 44, 51
1, 44621, Control_c, 0, 64, 113
1, 44632, Note_off_c, 0, 56, 58
1, 44695, Control_c, 0, 64, 112
1, 44710, Control_c, 0, 64, 111
1, 44725, Control_c, 0, 64, 108
1, 44739, Control_c, 0, 64, 102
1, 44754, Control_c, 0, 64, 94
1, 44769, Control_c, 0, 64, 85
1, 44784, Control_c, 0, 64, 73
1, 44799, Control_c, 0, 64, 63
1, 44814, Control_c, 0, 64, 48
1, 44829, Control_c, 0, 64, 15
1, 44844, Control_c, 0, 64, 0
1, 45050, Note_on_c, 0, 79, 85
1, 45052, Control_c, 0, 64, 10
1, 45055, Note_on_c, 0, 71, 74
1, 45058, Note_on_c, 0, 43, 70
1, 45059, Note_on_c, 0, 55, 82
1, 45067, Control_c, 0, 64, 56
1, 45082, Control_c, 0, 64, 66
1, 45087, Note_off_c, 0, 71, 66
1, 45092, Note_off_c, 0, 43, 63
1, 45095, Note_off_c, 0, 55, 63
1, 45096, Note_off_c, 0, 79, 66
1, 45097, Control_c, 0, 64, 69
1, 45111, Control_c, 0, 64, 74
1, 45126, Control_c, 0, 64, 80
1, 45141, Control_c, 0, 64, 86
1, 45155, Control_c, 0, 64, 93
1, 45170, Control_c, 0, 64, 101
1, 45192, Control_c, 0, 64, 109
1, 45207, Control_c, 0, 64, 119
1, 45222, Control_c, 0, 64, 127
1, 45444, Control_c, 0, 64, 110
1, 45459, Control_c, 0, 64, 96
1, 45474, Control_c, 0, 64, 82
1, 45489, Control_c, 0, 64, 67
1, 45504, Control_c, 0, 64, 55
1, 45518, Control_c, 0, 64, 38
1, 45533, Control_c, 0, 64, 15
1, 45548, Control_c, 0, 64, 0
1, 45852, Note_on_c, 0, 79, 76
1, 45941, Control_c, 0, 64, 10
1, 45956, Control_c, 0, 64, 17
1, 45971, Control_c, 0, 64, 25
1, 45985, Control_c, 0, 64, 30
1, 46000, Control_c, 0, 64, 28
1, 46015, Control_c, 0, 64, 26
1, 46030, Control_c, 0, 64, 25
1, 46045, Control_c, 0, 64, 26
1, 46060, Control_c, 0, 64, 29
1, 46075, Control_c, 0, 64, 35
1, 46090, Control_c, 0, 64, 39
1, 46104, Control_c, 0, 64, 42
1, 46119, Control_c, 0, 64, 45
1, 46134, Control_c, 0, 64, 47
1, 46149, Control_c, 0, 64, 48
1, 46164, Control_c, 0, 64, 48
1, 46179, Control_c, 0, 64, 49
1, 46208, Control_c, 0, 64, 48
1, 46238, Control_c, 0, 64, 48
1, 46253, Control_c, 0, 64, 47
1, 46327, Control_c, 0, 64, 47
1, 46341, Control_c, 0, 64, 46
1, 46385, Control_c, 0, 64, 46
1, 46400, Control_c, 0, 64, 45
1, 46518, Note_off_c, 0, 79, 58
1, 46535, Note_on_c, 0, 81, 56
1, 46549, Control_c, 0, 64, 44
1, 46564, Control_c, 0, 64, 43
1, 46608, Control_c, 0, 64, 41
1, 46614, Note_on_c, 0, 79, 68
1, 46619, Note_off_c, 0, 81, 60
1, 46623, Control_c, 0, 64, 37
1, 46638, Control_c, 0, 64, 36
1, 46650, Note_off_c, 0, 79, 65
1, 46671, Note_on_c, 0, 77, 62
1, 46690, Control_c, 0, 64, 36
1, 46705, Control_c, 0, 64, 35
1, 46720, Control_c, 0, 64, 34
1, 46724, Note_off_c, 0, 77, 63
1, 46735, Control_c, 0, 64, 35
1, 46748, Note_on_c, 0, 79, 70
1, 46805, Note_off_c, 0, 79, 61
1, 46821, Note_on_c, 0, 77, 65
1, 46823, Control_c, 0, 64, 35
1, 46853, Control_c, 0, 64, 35
1, 46854, Note_off_c, 0, 77, 65
1, 46868, Control_c, 0, 64, 34
1, 46877, Note_on_c, 0, 76, 70
1, 46910, Note_off_c, 0, 76, 61
1, 46938, Note_on_c, 0, 77, 62
1, 46956, Control_c, 0, 64, 35
1, 46971, Control_c, 0, 64, 35
1, 47001, Control_c, 0, 64, 35
1, 47008, Note_on_c, 0, 76, 69
1, 47024, Note_off_c, 0, 77, 63
1, 47030, Control_c, 0, 64, 35
1, 47069, Note_off_c, 0, 76, 64
1, 47075, Control_c, 0, 64, 35
1, 47082, Note_on_c, 0, 74, 66
1, 47127, Note_off_c, 0, 74, 57
1, 47148, Control_c, 0, 64, 34
1, 47164, Note_on_c, 0, 76, 65
1, 47207, Control_c, 0, 64, 33
1, 47216, Note_off_c, 0, 76, 59
1, 47222, Control_c, 0, 64, 32
1, 47224, Note_on_c, 0, 74, 67
1, 47285, Note_off_c, 0, 74, 63
1, 47300, Note_on_c, 0, 72, 66
1, 47305, Note_on_c, 0, 64, 56
1, 47325, Note_off_c, 0, 64, 62
1, 47330, Note_off_c, 0, 72, 63
1, 47356, Control_c, 0, 64, 32
1, 47438, Control_c, 0, 64, 31
1, 47444, Note_on_c, 0, 67, 59
1, 47453, Control_c, 0, 64, 30
1, 47464, Note_off_c, 0, 67, 63
1, 47468, Control_c, 0, 64, 31
1, 47498, Control_c, 0, 64, 30
1, 47512, Control_c, 0, 64, 28
1, 47527, Control_c, 0, 64, 28
1, 47559, Note_on_c, 0, 72, 68
1, 47571, Control_c, 0, 64, 27
1, 47577, Note_on_c, 0, 65, 71
1, 47601, Control_c, 0, 64, 27
1, 47604, Note_off_c, 0, 65, 66
1, 47617, Control_c, 0, 64, 27
1, 47622, Note_off_c, 0, 72, 60
1, 47631, Control_c, 0, 64, 28
1, 47632, Note_on_c, 0, 71, 64
1, 47669, Note_off_c, 0, 71, 63
1, 47684, Note_on_c, 0, 69, 61
1, 47687, Note_on_c, 0, 67, 62
1, 47705, Control_c, 0, 64, 27
1, 47706, Note_off_c, 0, 67, 65
1, 47720, Control_c, 0, 64, 25
1, 47732, Note_off_c, 0, 69, 62
1, 47735, Control_c, 0, 64, 23
1, 47743, Note_on_c, 0, 71, 67
1, 47781, Note_off_c, 0, 71, 59
1, 47795, Note_on_c, 0, 72, 74
1, 47795, Control_c, 0, 64, 22
1, 47810, Control_c, 0, 64, 21
1, 47811, Note_on_c, 0, 64, 64
1, 47824, Control_c, 0, 64, 22
1, 47827, Note_off_c, 0, 72, 63
1, 47839, Control_c, 0, 64, 23
1, 47839, Note_off_c, 0, 64, 67
1, 47854, Control_c, 0, 64, 22
1, 47869, Control_c, 0, 64, 22
1, 47884, Control_c, 0, 64, 21
1, 47898, Control_c, 0, 64, 22
1, 47913, Control_c, 0, 64, 23
1, 47927, Note_on_c, 0, 67, 70
1, 47957, Control_c, 0, 64, 22
1, 47959, Note_off_c, 0, 67, 61
1, 47987, Control_c, 0, 64, 23
1, 48046, Control_c, 0, 64, 23
1, 48060, Note_on_c, 0, 76, 71
1, 48061, Control_c, 0, 64, 24
1, 48066, Note_on_c, 0, 59, 62
1, 48096, Note_off_c, 0, 59, 66
1, 48102, Note_off_c, 0, 76, 53
1, 48105, Control_c, 0, 64, 24
1, 48137, Note_on_c, 0, 74, 66
1, 48164, Control_c, 0, 64, 24
1, 48169, Note_off_c, 0, 74, 64
1, 48191, Note_on_c, 0, 72, 57
1, 48194, Note_on_c, 0, 67, 66
1, 48202, Control_c, 0, 64, 24
1, 48218, Control_c, 0, 64, 25
1, 48234, Note_off_c, 0, 67, 65
1, 48236, Note_on_c, 0, 74, 75
1, 48239, Note_off_c, 0, 72, 60
1, 48248, Control_c, 0, 64, 24
1, 48277, Control_c, 0, 64, 25
1, 48299, Note_off_c, 0, 74, 64
1, 48304, Note_on_c, 0, 76, 69
1, 48332, Note_on_c, 0, 60, 62
1, 48336, Control_c, 0, 64, 25
1, 48338, Note_off_c, 0, 76, 64
1, 48351, Control_c, 0, 64, 27
1, 48364, Note_off_c, 0, 60, 63
1, 48366, Control_c, 0, 64, 27
1, 48410, Control_c, 0, 64, 28
1, 48425, Control_c, 0, 64, 30
1, 48452, Note_on_c, 0, 67, 64
1, 48499, Note_off_c, 0, 67, 62
1, 48567, Note_on_c, 0, 79, 71
1, 48579, Note_on_c, 0, 57, 58
1, 48607, Note_off_c, 0, 57, 66
1, 48629, Note_off_c, 0, 79, 64
1, 48632, Control_c, 0, 64, 30
1, 48638, Note_on_c, 0, 77, 69
1, 48647, Control_c, 0, 64, 31
1, 48677, Note_off_c, 0, 77, 64
1, 48692, Note_on_c, 0, 60, 63
1, 48693, Note_on_c, 0, 76, 61
1, 48730, Note_off_c, 0, 60, 61
1, 48737, Note_off_c, 0, 76, 57
1, 48746, Note_on_c, 0, 77, 72
1, 48780, Control_c, 0, 64, 30
1, 48803, Note_off_c, 0, 77, 64
1, 48808, Note_on_c, 0, 79, 77
1, 48836, Note_on_c, 0, 52, 47
1, 48850, Note_off_c, 0, 79, 63
1, 48865, Note_off_c, 0, 52, 56
1, 48869, Control_c, 0, 64, 30
1, 48963, Note_on_c, 0, 60, 62
1, 48983, Note_off_c, 0, 60, 60
1, 49085, Control_c, 0, 64, 31
1, 49088, Note_on_c, 0, 81, 74
1, 49092, Note_on_c, 0, 53, 66
1, 49112, Note_off_c, 0, 81, 67
1, 49128, Note_off_c, 0, 53, 64
1, 49159, Control_c, 0, 64, 32
1, 49174, Control_c, 0, 64, 32
1, 49218, Control_c, 0, 64, 33
1, 49228, Note_on_c, 0, 65, 67
1, 49233, Control_c, 0, 64, 34
1, 49248, Control_c, 0, 64, 34
1, 49255, Note_off_c, 0, 65, 66
1, 49307, Control_c, 0, 64, 35
1, 49392, Note_on_c, 0, 64, 53
1, 49392, Note_on_c, 0, 72, 65
1, 49406, Note_on_c, 0, 55, 32
1, 49410, Control_c, 0, 64, 35
1, 49440, Control_c, 0, 64, 36
1, 49455, Control_c, 0, 64, 36
1, 49540, Note_off_c, 0, 64, 0
1, 49540, Note_on_c, 0, 64, 5
1, 49589, Control_c, 0, 64, 35
1, 49603, Control_c, 0, 64, 34
1, 49618, Control_c, 0, 64, 34
1, 49633, Control_c, 0, 64, 31
1, 49648, Control_c, 0, 64, 25
1, 49663, Control_c, 0, 64, 12
1, 49685, Control_c, 0, 64, 0
1, 49728, Note_on_c, 0, 71, 57
1, 49729, Note_off_c, 0, 72, 0
1, 49741, Note_on_c, 0, 62, 50
1, 49759, Control_c, 0, 64, 32
1, 49764, Note_off_c, 0, 64, 48
1, 49774, Control_c, 0, 64, 50
1, 49789, Control_c, 0, 64, 59
1, 49798, Note_off_c, 0, 71, 61
1, 49805, Control_c, 0, 64, 64
1, 49814, Poly_aftertouch_c, 0, 72, 0
1, 49820, Control_c, 0, 64, 66
1, 49834, Control_c, 0, 64, 68
1, 49849, Control_c, 0, 64, 70
1, 49864, Control_c, 0, 64, 70
1, 49891, Note_off_c, 0, 62, 63
1, 49894, Control_c, 0, 64, 68
1, 49899, Note_off_c, 0, 55, 40
1, 49908, Control_c, 0, 64, 60
1, 49923, Control_c, 0, 64, 48
1, 49938, Control_c, 0, 64, 35
1, 49953, Control_c, 0, 64, 26
1, 49968, Control_c, 0, 64, 15
1, 49983, Control_c, 0, 64, 0
1, 50009, Note_on_c, 0, 81, 83
1, 50288, Note_on_c, 0, 60, 81
1, 50293, Note_on_c, 0, 57, 76
1, 50550, Note_off_c, 0, 60, 55
1, 50561, Note_off_c, 0, 57, 51
1, 50578, Note_on_c, 0, 59, 72
1, 50583, Note_on_c, 0, 62, 76
1, 50606, Note_off_c, 0, 59, 67
1, 50613, Note_off_c, 0, 62, 68
1, 50653, Note_off_c, 0, 81, 37
1, 50674, Note_on_c, 0, 82, 62
1, 50752, Note_on_c, 0, 81, 72
1, 50766, Note_off_c, 0, 82, 51
1, 50806, Note_on_c, 0, 64, 68
1, 50809, Note_on_c, 0, 61, 63
1, 50810, Note_off_c, 0, 81, 64
1, 50824, Note_on_c, 0, 79, 72
1, 50835, Note_off_c, 0, 64, 66
1, 50841, Note_off_c, 0, 61, 64
1, 50895, Note_off_c, 0, 79, 46
1, 50904, Note_on_c, 0, 81, 75
1, 50979, Note_off_c, 0, 81, 58
1, 50983, Note_on_c, 0, 79, 75
1, 51036, Note_off_c, 0, 79, 65
1, 51056, Note_on_c, 0, 62, 70
1, 51062, Note_on_c, 0, 65, 66
1, 51062, Note_on_c, 0, 77, 67
1, 51082, Note_off_c, 0, 62, 68
1, 51098, Note_off_c, 0, 65, 65
1, 51102, Note_off_c, 0, 77, 56
1, 51132, Note_on_c, 0, 79, 78
1, 51232, Note_on_c, 0, 77, 70
1, 51252, Note_off_c, 0, 79, 61
1, 51294, Note_off_c, 0, 77, 64
1, 51303, Note_on_c, 0, 76, 69
1, 51308, Note_on_c, 0, 64, 60
1, 51310, Note_on_c, 0, 67, 61
1, 51342, Note_off_c, 0, 64, 64
1, 51342, Note_off_c, 0, 67, 65
1, 51381, Note_off_c, 0, 76, 60
1, 51402, Note_on_c, 0, 77, 72
1, 51473, Note_off_c, 0, 77, 61
1, 51479, Note_on_c, 0, 76, 66
1, 51544, Note_off_c, 0, 76, 64
1, 51570, Note_on_c, 0, 69, 59
1, 51571, Note_on_c, 0, 65, 57
1, 51576, Note_on_c, 0, 74, 70
1, 51598, Control_c, 0, 64, 16
1, 51613, Control_c, 0, 64, 36
1, 51628, Control_c, 0, 64, 38
1, 51646, Note_off_c, 0, 74, 61
1, 51658, Control_c, 0, 64, 39
1, 51673, Control_c, 0, 64, 41
1, 51688, Control_c, 0, 64, 41
1, 51703, Control_c, 0, 64, 41
1, 51717, Control_c, 0, 64, 39
1, 51732, Control_c, 0, 64, 39
1, 51756, Note_off_c, 0, 65, 55
1, 51758, Note_off_c, 0, 69, 64
1, 51762, Control_c, 0, 64, 38
1, 51777, Control_c, 0, 64, 36
1, 51792, Control_c, 0, 64, 36
1, 51806, Control_c, 0, 64, 36
1, 51836, Control_c, 0, 64, 36
1, 51849, Note_on_c, 0, 86, 75
1, 51851, Control_c, 0, 64, 35
1, 51880, Control_c, 0, 64, 36
1, 51895, Control_c, 0, 64, 39
1, 51902, Note_off_c, 0, 86, 65
1, 51910, Control_c, 0, 64, 43
1, 51932, Control_c, 0, 64, 46
1, 51947, Control_c, 0, 64, 48
1, 51962, Control_c, 0, 64, 49
1, 52021, Control_c, 0, 64, 48
1, 52036, Control_c, 0, 64, 45
1, 52051, Control_c, 0, 64, 41
1, 52066, Control_c, 0, 64, 38
1, 52080, Control_c, 0, 64, 36
1, 52095, Control_c, 0, 64, 34
1, 52109, Control_c, 0, 64, 31
1, 52132, Note_on_c, 0, 81, 70
1, 52138, Control_c, 0, 64, 35
1, 52153, Control_c, 0, 64, 45
1, 52168, Control_c, 0, 64, 52
1, 52183, Control_c, 0, 64, 55
1, 52199, Control_c, 0, 64, 56
1, 52213, Note_off_c, 0, 81, 61
1, 52214, Control_c, 0, 64, 57
1, 52228, Control_c, 0, 64, 58
1, 52243, Control_c, 0, 64, 59
1, 52258, Control_c, 0, 64, 60
1, 52273, Control_c, 0, 64, 61
1, 52288, Control_c, 0, 64, 62
1, 52302, Control_c, 0, 64, 62
1, 52317, Control_c, 0, 64, 63
1, 52397, Note_on_c, 0, 84, 65
1, 52406, Control_c, 0, 64, 62
1, 52411, Note_on_c, 0, 53, 57
1, 52421, Control_c, 0, 64, 62
1, 52421, Note_on_c, 0, 55, 54
1, 52436, Control_c, 0, 64, 61
1, 52451, Control_c, 0, 64, 60
1, 52462, Note_off_c, 0, 84, 64
1, 52465, Note_on_c, 0, 83, 72
1, 52466, Control_c, 0, 64, 59
1, 52495, Control_c, 0, 64, 58
1, 52498, Note_off_c, 0, 55, 54
1, 52510, Control_c, 0, 64, 57
1, 52511, Note_off_c, 0, 83, 63
1, 52523, Note_on_c, 0, 81, 59
1, 52525, Control_c, 0, 64, 55
1, 52540, Control_c, 0, 64, 52
1, 52554, Control_c, 0, 64, 48
1, 52561, Note_off_c, 0, 81, 61
1, 52569, Control_c, 0, 64, 40
1, 52584, Control_c, 0, 64, 30
1, 52587, Note_on_c, 0, 83, 67
1, 52599, Control_c, 0, 64, 21
1, 52614, Control_c, 0, 64, 0
1, 52664, Note_off_c, 0, 83, 52
1, 52675, Note_on_c, 0, 84, 72
1, 52678, Note_on_c, 0, 55, 48
1, 52689, Note_on_c, 0, 52, 59
1, 52703, Note_off_c, 0, 53, 54
1, 52725, Control_c, 0, 64, 15
1, 52740, Control_c, 0, 64, 33
1, 52744, Note_off_c, 0, 84, 62
1, 52752, Note_off_c, 0, 52, 62
1, 52754, Control_c, 0, 64, 49
1, 52759, Note_off_c, 0, 55, 63
1, 52769, Control_c, 0, 64, 58
1, 52784, Control_c, 0, 64, 61
1, 52799, Control_c, 0, 64, 61
1, 52814, Control_c, 0, 64, 62
1, 52828, Control_c, 0, 64, 63
1, 52843, Control_c, 0, 64, 63
1, 52872, Control_c, 0, 64, 64
1, 52961, Control_c, 0, 64, 63
1, 52968, Note_on_c, 0, 74, 56
1, 52971, Note_on_c, 0, 57, 53
1, 52978, Note_on_c, 0, 54, 47
1, 52990, Control_c, 0, 64, 63
1, 53006, Control_c, 0, 64, 62
1, 53018, Note_off_c, 0, 74, 60
1, 53036, Control_c, 0, 64, 62
1, 53044, Note_on_c, 0, 72, 65
1, 53050, Control_c, 0, 64, 61
1, 53065, Control_c, 0, 64, 60
1, 53080, Note_off_c, 0, 72, 64
1, 53080, Control_c, 0, 64, 59
1, 53095, Note_on_c, 0, 71, 58
1, 53095, Control_c, 0, 64, 59
1, 53110, Control_c, 0, 64, 57
1, 53124, Control_c, 0, 64, 55
1, 53139, Control_c, 0, 64, 53
1, 53142, Note_off_c, 0, 71, 58
1, 53154, Control_c, 0, 64, 52
1, 53159, Note_on_c, 0, 72, 69
1, 53169, Control_c, 0, 64, 51
1, 53184, Control_c, 0, 64, 47
1, 53199, Control_c, 0, 64, 41
1, 53214, Control_c, 0, 64, 34
1, 53229, Control_c, 0, 64, 29
1, 53241, Note_on_c, 0, 76, 69
1, 53243, Control_c, 0, 64, 18
1, 53249, Note_on_c, 0, 60, 48
1, 53258, Control_c, 0, 64, 0
1, 53259, Note_on_c, 0, 55, 43
1, 53268, Note_off_c, 0, 72, 52
1, 53271, Note_off_c, 0, 54, 34
1, 53310, Note_off_c, 0, 57, 33
1, 53318, Control_c, 0, 64, 25
1, 53332, Control_c, 0, 64, 40
1, 53347, Control_c, 0, 64, 49
1, 53362, Control_c, 0, 64, 53
1, 53376, Control_c, 0, 64, 56
1, 53391, Control_c, 0, 64, 58
1, 53406, Control_c, 0, 64, 59
1, 53429, Control_c, 0, 64, 60
1, 53473, Control_c, 0, 64, 59
1, 53488, Control_c, 0, 64, 54
1, 53503, Control_c, 0, 64, 42
1, 53518, Control_c, 0, 64, 22
1, 53532, Control_c, 0, 64, 0
1, 53538, Note_on_c, 0, 74, 66
1, 53542, Note_on_c, 0, 59, 53
1, 53554, Note_off_c, 0, 60, 49
1, 53554, Note_off_c, 0, 76, 51
1, 53621, Control_c, 0, 64, 31
1, 53636, Control_c, 0, 64, 48
1, 53650, Control_c, 0, 64, 56
1, 53665, Control_c, 0, 64, 58
1, 53680, Control_c, 0, 64, 59
1, 53695, Control_c, 0, 64, 60
1, 53709, Control_c, 0, 64, 61
1, 53739, Control_c, 0, 64, 60
1, 53754, Control_c, 0, 64, 56
1, 53768, Control_c, 0, 64, 43
1, 53783, Control_c, 0, 64, 19
1, 53799, Control_c, 0, 64, 0
1, 53840, Note_off_c, 0, 59, 61
1, 53841, Note_off_c, 0, 74, 57
1, 53844, Control_c, 0, 64, 11
1, 53848, Note_on_c, 0, 72, 58
1, 53853, Note_on_c, 0, 60, 47
1, 53859, Control_c, 0, 64, 30
1, 53873, Control_c, 0, 64, 45
1, 53888, Control_c, 0, 64, 57
1, 53892, Note_off_c, 0, 55, 57
1, 53903, Control_c, 0, 64, 62
1, 53918, Control_c, 0, 64, 64
1, 53933, Control_c, 0, 64, 67
1, 53947, Control_c, 0, 64, 71
1, 53956, Note_off_c, 0, 72, 62
1, 53962, Control_c, 0, 64, 73
1, 53977, Control_c, 0, 64, 75
1, 53992, Control_c, 0, 64, 76
1, 54007, Control_c, 0, 64, 77
1, 54052, Control_c, 0, 64, 73
1, 54066, Control_c, 0, 64, 63
1, 54081, Control_c, 0, 64, 51
1, 54096, Control_c, 0, 64, 41
1, 54111, Control_c, 0, 64, 44
1, 54126, Control_c, 0, 64, 55
1, 54134, Note_off_c, 0, 60, 51
1, 54140, Control_c, 0, 64, 63
1, 54148, Note_on_c, 0, 48, 83
1, 54155, Control_c, 0, 64, 68
1, 54177, Control_c, 0, 64, 73
1, 54192, Note_off_c, 0, 48, 64
1, 54192, Control_c, 0, 64, 78
1, 54207, Control_c, 0, 64, 79
1, 54221, Control_c, 0, 64, 80
1, 54236, Control_c, 0, 64, 79
1, 54251, Control_c, 0, 64, 78
1, 54266, Control_c, 0, 64, 71
1, 54281, Control_c, 0, 64, 61
1, 54296, Control_c, 0, 64, 48
1, 54311, Control_c, 0, 64, 32
1, 54325, Control_c, 0, 64, 17
1, 54340, Control_c, 0, 64, 9
1, 54355, Control_c, 0, 64, 0
1, 54444, Control_c, 0, 64, 11
1, 54459, Control_c, 0, 64, 19
1, 54463, Note_on_c, 0, 55, 88
1, 54473, Control_c, 0, 64, 25
1, 54532, Control_c, 0, 64, 29
1, 54547, Control_c, 0, 64, 34
1, 54577, Control_c, 0, 64, 33
1, 54608, Control_c, 0, 64, 34
1, 54622, Control_c, 0, 64, 36
1, 54637, Control_c, 0, 64, 35
1, 54652, Control_c, 0, 64, 32
1, 54667, Control_c, 0, 64, 30
1, 54696, Control_c, 0, 64, 31
1, 54726, Control_c, 0, 64, 30
1, 54756, Control_c, 0, 64, 30
1, 54758, Note_on_c, 0, 67, 79
1, 54770, Control_c, 0, 64, 33
1, 54785, Control_c, 0, 64, 33
1, 54800, Control_c, 0, 64, 31
1, 54810, Note_off_c, 0, 67, 64
1, 54815, Control_c, 0, 64, 31
1, 54830, Control_c, 0, 64, 32
1, 54844, Control_c, 0, 64, 34
1, 54859, Control_c, 0, 64, 34
1, 54874, Control_c, 0, 64, 34
1, 54926, Control_c, 0, 64, 35
1, 54941, Control_c, 0, 64, 35
1, 54955, Control_c, 0, 64, 35
1, 54970, Control_c, 0, 64, 34
1, 55000, Control_c, 0, 64, 35
1, 55015, Control_c, 0, 64, 36
1, 55029, Control_c, 0, 64, 35
1, 55056, Note_on_c, 0, 79, 80
1, 55104, Control_c, 0, 64, 35
1, 55119, Control_c, 0, 64, 34
1, 55132, Note_off_c, 0, 55, 63
1, 55137, Note_on_c, 0, 57, 71
1, 55193, Control_c, 0, 64, 34
1, 55196, Note_off_c, 0, 57, 51
1, 55220, Note_on_c, 0, 55, 77
1, 55297, Control_c, 0, 64, 34
1, 55308, Note_off_c, 0, 55, 63
1, 55311, Note_on_c, 0, 53, 70
1, 55367, Note_off_c, 0, 53, 61
1, 55396, Note_on_c, 0, 55, 70
1, 55456, Note_off_c, 0, 55, 56
1, 55471, Note_on_c, 0, 53, 75
1, 55476, Control_c, 0, 64, 34
1, 55520, Control_c, 0, 64, 34
1, 55535, Control_c, 0, 64, 35
1, 55552, Note_off_c, 0, 53, 61
1, 55559, Note_on_c, 0, 52, 72
1, 55564, Control_c, 0, 64, 34
1, 55620, Note_off_c, 0, 79, 64
1, 55631, Note_on_c, 0, 81, 68
1, 55634, Note_off_c, 0, 52, 63
1, 55638, Control_c, 0, 64, 33
1, 55647, Note_on_c, 0, 53, 78
1, 55676, Control_c, 0, 64, 34
1, 55721, Note_off_c, 0, 53, 62
1, 55732, Note_on_c, 0, 52, 76
1, 55735, Note_on_c, 0, 79, 72
1, 55760, Note_off_c, 0, 81, 61
1, 55792, Note_off_c, 0, 79, 65
1, 55807, Note_off_c, 0, 52, 63
1, 55808, Note_on_c, 0, 77, 64
1, 55811, Note_on_c, 0, 50, 74
1, 55875, Note_off_c, 0, 50, 64
1, 55876, Note_off_c, 0, 77, 65
1, 55886, Note_on_c, 0, 79, 73
1, 55903, Note_on_c, 0, 52, 72
1, 55946, Note_off_c, 0, 52, 55
1, 55967, Note_on_c, 0, 77, 67
1, 55969, Note_on_c, 0, 50, 67
1, 55969, Note_off_c, 0, 79, 59
1, 56025, Note_off_c, 0, 77, 64
1, 56034, Note_on_c, 0, 76, 70
1, 56038, Note_on_c, 0, 48, 78
1, 56043, Note_off_c, 0, 50, 64
1, 56063, Note_off_c, 0, 48, 66
1, 56109, Note_off_c, 0, 76, 40
1, 56114, Note_on_c, 0, 77, 71
1, 56195, Control_c, 0, 64, 34
1, 56210, Note_on_c, 0, 76, 72
1, 56240, Note_on_c, 0, 52, 70
1, 56248, Note_off_c, 0, 77, 60
1, 56269, Note_off_c, 0, 52, 63
1, 56269, Control_c, 0, 64, 34
1, 56278, Note_off_c, 0, 76, 62
1, 56282, Note_on_c, 0, 74, 75
1, 56284, Control_c, 0, 64, 33
1, 56299, Control_c, 0, 64, 32
1, 56307, Note_on_c, 0, 50, 77
1, 56314, Control_c, 0, 64, 32
1, 56342, Note_off_c, 0, 74, 65
1, 56354, Note_off_c, 0, 50, 59
1, 56359, Control_c, 0, 64, 31
1, 56372, Note_on_c, 0, 72, 65
1, 56373, Note_on_c, 0, 48, 76
1, 56374, Control_c, 0, 64, 30
1, 56389, Control_c, 0, 64, 29
1, 56442, Note_on_c, 0, 50, 79
1, 56445, Note_off_c, 0, 48, 58
1, 56449, Note_off_c, 0, 72, 58
1, 56454, Note_on_c, 0, 71, 68
1, 56470, Control_c, 0, 64, 29
1, 56476, Note_off_c, 0, 50, 66
1, 56513, Note_on_c, 0, 52, 78
1, 56517, Note_off_c, 0, 71, 49
1, 56529, Control_c, 0, 64, 28
1, 56538, Note_on_c, 0, 72, 67
1, 56544, Control_c, 0, 64, 28
1, 56552, Note_off_c, 0, 52, 60
1, 56558, Control_c, 0, 64, 27
1, 56573, Control_c, 0, 64, 27
1, 56612, Note_off_c, 0, 72, 61
1, 56620, Note_on_c, 0, 74, 70
1, 56693, Note_on_c, 0, 72, 69
1, 56724, Note_off_c, 0, 74, 51
1, 56761, Note_on_c, 0, 40, 68
1, 56766, Note_off_c, 0, 72, 62
1, 56781, Note_on_c, 0, 70, 72
1, 56795, Control_c, 0, 64, 28
1, 56802, Note_off_c, 0, 40, 64
1, 56839, Note_off_c, 0, 70, 64
1, 56854, Note_on_c, 0, 69, 72
1, 56869, Control_c, 0, 64, 29
1, 56884, Control_c, 0, 64, 29
1, 56913, Note_off_c, 0, 69, 58
1, 56934, Note_on_c, 0, 68, 71
1, 56943, Control_c, 0, 64, 30
1, 56989, Control_c, 0, 64, 31
1, 56996, Note_off_c, 0, 68, 63
1, 57004, Control_c, 0, 64, 31
1, 57005, Note_on_c, 0, 41, 74
1, 57018, Control_c, 0, 64, 33
1, 57019, Note_on_c, 0, 69, 74
1, 57033, Control_c, 0, 64, 33
1, 57048, Control_c, 0, 64, 34
1, 57063, Control_c, 0, 64, 36
1, 57078, Control_c, 0, 64, 38
1, 57089, Note_off_c, 0, 69, 57
1, 57092, Control_c, 0, 64, 42
1, 57100, Note_on_c, 0, 74, 72
1, 57107, Control_c, 0, 64, 47
1, 57122, Control_c, 0, 64, 49
1, 57137, Control_c, 0, 64, 48
1, 57169, Note_off_c, 0, 74, 64
1, 57185, Note_on_c, 0, 73, 72
1, 57189, Control_c, 0, 64, 48
1, 57204, Control_c, 0, 64, 49
1, 57218, Control_c, 0, 64, 48
1, 57247, Note_off_c, 0, 73, 64
1, 57263, Control_c, 0, 64, 49
1, 57270, Note_on_c, 0, 74, 77
1, 57322, Control_c, 0, 64, 49
1, 57341, Note_on_c, 0, 77, 74
1, 57342, Note_off_c, 0, 74, 63
1, 57366, Control_c, 0, 64, 49
1, 57381, Control_c, 0, 64, 48
1, 57412, Note_off_c, 0, 77, 65
1, 57422, Note_on_c, 0, 76, 80
1, 57440, Control_c, 0, 64, 46
1, 57453, Note_off_c, 0, 41, 53
1, 57455, Control_c, 0, 64, 45
1, 57470, Control_c, 0, 64, 44
1, 57485, Control_c, 0, 64, 44
1, 57494, Note_off_c, 0, 76, 63
1, 57499, Control_c, 0, 64, 39
1, 57506, Note_on_c, 0, 77, 80
1, 57514, Control_c, 0, 64, 30
1, 57529, Control_c, 0, 64, 21
1, 57543, Control_c, 0, 64, 17
1, 57558, Control_c, 0, 64, 15
1, 57562, Note_off_c, 0, 77, 65
1, 57573, Control_c, 0, 64, 0
1, 57581, Note_on_c, 0, 81, 77
1, 57649, Note_off_c, 0, 81, 62
1, 57660, Note_on_c, 0, 80, 76
1, 57723, Note_off_c, 0, 80, 62
1, 57746, Note_on_c, 0, 81, 80
1, 57751, Note_on_c, 0, 53, 75
1, 57808, Note_off_c, 0, 81, 63
1, 57826, Note_on_c, 0, 77, 79
1, 57885, Note_off_c, 0, 77, 63
1, 57918, Note_on_c, 0, 74, 73
1, 58000, Note_off_c, 0, 53, 61
1, 58012, Note_on_c, 0, 72, 77
1, 58014, Note_on_c, 0, 55, 76
1, 58037, Note_off_c, 0, 74, 60
1, 58271, Note_off_c, 0, 55, 52
1, 58293, Note_on_c, 0, 71, 72
1, 58297, Note_off_c, 0, 72, 56
1, 58299, Note_on_c, 0, 43, 86
1, 58338, Control_c, 0, 64, 13
1, 58339, Note_off_c, 0, 71, 60
1, 58340, Note_off_c, 0, 43, 64
1, 58353, Control_c, 0, 64, 56
1, 58367, Control_c, 0, 64, 61
1, 58382, Control_c, 0, 64, 62
1, 58397, Control_c, 0, 64, 63
1, 58412, Control_c, 0, 64, 64
1, 58427, Control_c, 0, 64, 65
1, 58441, Control_c, 0, 64, 66
1, 58530, Control_c, 0, 64, 64
1, 58545, Control_c, 0, 64, 60
1, 58559, Control_c, 0, 64, 55
1, 58574, Control_c, 0, 64, 53
1, 58594, Note_on_c, 0, 57, 88
1, 58605, Control_c, 0, 64, 50
1, 58620, Control_c, 0, 64, 46
1, 58635, Control_c, 0, 64, 44
1, 58650, Control_c, 0, 64, 45
1, 58672, Control_c, 0, 64, 45
1, 58687, Control_c, 0, 64, 38
1, 58702, Control_c, 0, 64, 25
1, 58717, Control_c, 0, 64, 16
1, 58732, Control_c, 0, 64, 16
1, 58761, Control_c, 0, 64, 15
1, 58776, Control_c, 0, 64, 13
1, 58790, Control_c, 0, 64, 14
1, 58805, Control_c, 0, 64, 24
1, 58820, Control_c, 0, 64, 36
1, 58835, Control_c, 0, 64, 40
1, 58850, Control_c, 0, 64, 39
1, 58864, Control_c, 0, 64, 39
1, 58878, Note_on_c, 0, 60, 76
1, 58879, Control_c, 0, 64, 46
1, 58894, Control_c, 0, 64, 56
1, 58909, Control_c, 0, 64, 60
1, 58924, Control_c, 0, 64, 61
1, 58938, Control_c, 0, 64, 62
1, 58953, Control_c, 0, 64, 62
1, 58997, Control_c, 0, 64, 62
1, 59012, Control_c, 0, 64, 61
1, 59027, Control_c, 0, 64, 59
1, 59028, Poly_aftertouch_c, 0, 52, 127
1, 59042, Poly_aftertouch_c, 0, 50, 127
1, 59042, Control_c, 0, 64, 55
1, 59044, Note_off_c, 0, 60, 34
1, 59057, Control_c, 0, 64, 49
1, 59071, Control_c, 0, 64, 46
1, 59077, Poly_aftertouch_c, 0, 50, 0
1, 59086, Control_c, 0, 64, 45
1, 59092, Poly_aftertouch_c, 0, 52, 0
1, 59101, Control_c, 0, 64, 46
1, 59116, Control_c, 0, 64, 48
1, 59131, Control_c, 0, 64, 51
1, 59146, Control_c, 0, 64, 54
1, 59161, Control_c, 0, 64, 59
1, 59166, Note_on_c, 0, 72, 76
1, 59176, Control_c, 0, 64, 61
1, 59190, Control_c, 0, 64, 62
1, 59196, Note_off_c, 0, 72, 66
1, 59205, Control_c, 0, 64, 62
1, 59220, Control_c, 0, 64, 63
1, 59235, Control_c, 0, 64, 64
1, 59246, Note_on_c, 0, 58, 67
1, 59247, Note_off_c, 0, 57, 62
1, 59250, Control_c, 0, 64, 64
1, 59312, Note_off_c, 0, 58, 64
1, 59323, Control_c, 0, 64, 64
1, 59338, Control_c, 0, 64, 60
1, 59342, Note_on_c, 0, 57, 73
1, 59353, Control_c, 0, 64, 50
1, 59368, Control_c, 0, 64, 43
1, 59384, Control_c, 0, 64, 42
1, 59399, Control_c, 0, 64, 42
1, 59420, Control_c, 0, 64, 44
1, 59429, Note_on_c, 0, 73, 76
1, 59429, Note_off_c, 0, 57, 49
1, 59435, Control_c, 0, 64, 49
1, 59436, Note_on_c, 0, 70, 60
1, 59444, Note_on_c, 0, 55, 66
1, 59450, Control_c, 0, 64, 54
1, 59465, Note_off_c, 0, 70, 65
1, 59465, Control_c, 0, 64, 60
1, 59478, Note_off_c, 0, 73, 65
1, 59480, Control_c, 0, 64, 62
1, 59495, Control_c, 0, 64, 63
1, 59500, Note_off_c, 0, 55, 60
1, 59510, Control_c, 0, 64, 63
1, 59516, Note_on_c, 0, 57, 71
1, 59524, Control_c, 0, 64, 64
1, 59539, Control_c, 0, 64, 64
1, 59557, Note_off_c, 0, 57, 57
1, 59584, Note_on_c, 0, 55, 69
1, 59643, Control_c, 0, 64, 62
1, 59658, Control_c, 0, 64, 54
1, 59672, Note_off_c, 0, 55, 62
1, 59673, Control_c, 0, 64, 46
1, 59675, Note_on_c, 0, 53, 69
1, 59678, Note_on_c, 0, 74, 79
1, 59687, Note_on_c, 0, 69, 59
1, 59687, Control_c, 0, 64, 42
1, 59702, Control_c, 0, 64, 43
1, 59717, Control_c, 0, 64, 46
1, 59732, Control_c, 0, 64, 52
1, 59740, Note_off_c, 0, 69, 51
1, 59746, Control_c, 0, 64, 57
1, 59755, Note_off_c, 0, 53, 62
1, 59761, Control_c, 0, 64, 61
1, 59773, Note_on_c, 0, 55, 78
1, 59776, Control_c, 0, 64, 63
1, 59791, Control_c, 0, 64, 65
1, 59806, Control_c, 0, 64, 65
1, 59820, Control_c, 0, 64, 66
1, 59858, Note_on_c, 0, 53, 71
1, 59868, Note_off_c, 0, 55, 61
1, 59880, Control_c, 0, 64, 63
1, 59894, Control_c, 0, 64, 56
1, 59909, Control_c, 0, 64, 46
1, 59924, Control_c, 0, 64, 40
1, 59936, Note_on_c, 0, 76, 79
1, 59940, Note_off_c, 0, 74, 57
1, 59942, Note_off_c, 0, 53, 64
1, 59945, Note_on_c, 0, 52, 72
1, 59945, Note_on_c, 0, 73, 69
1, 59954, Control_c, 0, 64, 43
1, 59969, Control_c, 0, 64, 53
1, 59977, Note_off_c, 0, 73, 65
1, 59984, Control_c, 0, 64, 59
1, 59995, Note_off_c, 0, 76, 65
1, 59998, Control_c, 0, 64, 62
1, 60013, Control_c, 0, 64, 64
1, 60016, Note_off_c, 0, 52, 63
1, 60028, Control_c, 0, 64, 66
1, 60038, Note_on_c, 0, 53, 76
1, 60043, Control_c, 0, 64, 68
1, 60058, Control_c, 0, 64, 69
1, 60073, Control_c, 0, 64, 69
1, 60098, Note_off_c, 0, 53, 44
1, 60115, Note_on_c, 0, 52, 75
1, 60131, Control_c, 0, 64, 69
1, 60146, Control_c, 0, 64, 64
1, 60168, Control_c, 0, 64, 56
1, 60183, Control_c, 0, 64, 49
1, 60199, Control_c, 0, 64, 49
1, 60204, Note_on_c, 0, 50, 80
1, 60207, Note_off_c, 0, 52, 64
1, 60209, Note_on_c, 0, 77, 72
1, 60214, Control_c, 0, 64, 51
1, 60216, Note_on_c, 0, 74, 58
1, 60229, Control_c, 0, 64, 56
1, 60243, Control_c, 0, 64, 61
1, 60251, Note_off_c, 0, 50, 64
1, 60258, Control_c, 0, 64, 62
1, 60273, Control_c, 0, 64, 63
1, 60282, Note_off_c, 0, 77, 64
1, 60288, Note_on_c, 0, 76, 76
1, 60288, Control_c, 0, 64, 64
1, 60291, Note_off_c, 0, 74, 41
1, 60303, Control_c, 0, 64, 65
1, 60317, Control_c, 0, 64, 66
1, 60332, Control_c, 0, 64, 67
1, 60347, Control_c, 0, 64, 67
1, 60364, Note_off_c, 0, 76, 62
1, 60374, Note_on_c, 0, 77, 73
1, 60422, Control_c, 0, 64, 67
1, 60436, Control_c, 0, 64, 65
1, 60440, Note_off_c, 0, 77, 65
1, 60440, Note_on_c, 0, 50, 76
1, 60446, Note_on_c, 0, 78, 77
1, 60451, Control_c, 0, 64, 59
1, 60466, Control_c, 0, 64, 46
1, 60474, Note_off_c, 0, 50, 64
1, 60481, Control_c, 0, 64, 35
1, 60487, Note_off_c, 0, 78, 61
1, 60496, Control_c, 0, 64, 19
1, 60503, Note_on_c, 0, 48, 75
1, 60510, Control_c, 0, 64, 0
1, 60514, Note_on_c, 0, 76, 67
1, 60574, Note_on_c, 0, 47, 77
1, 60574, Note_off_c, 0, 48, 64
1, 60595, Note_off_c, 0, 76, 62
1, 60598, Note_on_c, 0, 78, 75
1, 60609, Note_on_c, 0, 48, 63
1, 60610, Note_off_c, 0, 47, 66
1, 60673, Note_off_c, 0, 78, 59
1, 60674, Note_on_c, 0, 47, 89
1, 60674, Note_on_c, 0, 79, 81
1, 60683, Note_off_c, 0, 48, 59
1, 60731, Note_off_c, 0, 47, 67
1, 60732, Control_c, 0, 64, 51
1, 60741, Note_off_c, 0, 79, 64
1, 60747, Control_c, 0, 64, 58
1, 60750, Note_on_c, 0, 78, 72
1, 60762, Control_c, 0, 64, 56
1, 60776, Control_c, 0, 64, 54
1, 60791, Control_c, 0, 64, 50
1, 60806, Control_c, 0, 64, 39
1, 60819, Note_off_c, 0, 78, 63
1, 60821, Control_c, 0, 64, 17
1, 60836, Control_c, 0, 64, 0
1, 60842, Note_on_c, 0, 79, 74
1, 60923, Note_on_c, 0, 83, 79
1, 60923, Note_off_c, 0, 79, 58
1, 60935, Note_on_c, 0, 55, 77
1, 60989, Note_off_c, 0, 55, 47
1, 60991, Note_off_c, 0, 83, 65
1, 61003, Note_on_c, 0, 53, 70
1, 61003, Note_on_c, 0, 81, 75
1, 61081, Note_on_c, 0, 52, 80
1, 61082, Note_off_c, 0, 53, 62
1, 61082, Note_off_c, 0, 81, 62
1, 61083, Note_on_c, 0, 83, 83
1, 61128, Note_off_c, 0, 52, 64
1, 61132, Note_on_c, 0, 53, 54
1, 61160, Note_off_c, 0, 83, 65
1, 61175, Note_on_c, 0, 52, 84
1, 61176, Note_on_c, 0, 84, 81
1, 61193, Note_off_c, 0, 53, 64
1, 61199, Control_c, 0, 64, 53
1, 61214, Control_c, 0, 64, 60
1, 61218, Note_off_c, 0, 52, 66
1, 61229, Control_c, 0, 64, 55
1, 61244, Control_c, 0, 64, 41
1, 61258, Control_c, 0, 64, 0
1, 61273, Note_off_c, 0, 84, 65
1, 61275, Note_on_c, 0, 79, 77
1, 61312, Note_off_c, 0, 79, 65
1, 61358, Note_on_c, 0, 76, 65
1, 61436, Note_on_c, 0, 81, 79
1, 61441, Note_off_c, 0, 76, 56
1, 61444, Note_on_c, 0, 53, 79
1, 61474, Note_off_c, 0, 53, 65
1, 61525, Note_off_c, 0, 81, 63
1, 61526, Note_on_c, 0, 77, 74
1, 61570, Note_off_c, 0, 77, 59
1, 61599, Note_on_c, 0, 74, 71
1, 61680, Note_off_c, 0, 74, 59
1, 61690, Note_on_c, 0, 79, 79
1, 61703, Note_on_c, 0, 55, 69
1, 61730, Note_off_c, 0, 55, 63
1, 61767, Note_off_c, 0, 79, 66
1, 61773, Note_on_c, 0, 76, 74
1, 61833, Note_off_c, 0, 76, 62
1, 61857, Note_on_c, 0, 72, 70
1, 61939, Note_off_c, 0, 72, 58
1, 61942, Note_on_c, 0, 43, 67
1, 61944, Note_on_c, 0, 77, 76
1, 61975, Note_off_c, 0, 43, 63
1, 62009, Note_off_c, 0, 77, 62
1, 62035, Note_on_c, 0, 74, 69
1, 62079, Note_off_c, 0, 74, 63
1, 62111, Note_on_c, 0, 71, 70
1, 62209, Note_off_c, 0, 71, 57
1, 62222, Note_on_c, 0, 72, 72
1, 62230, Note_on_c, 0, 48, 60
1, 62260, Control_c, 0, 64, 28
1, 62275, Control_c, 0, 64, 59
1, 62289, Control_c, 0, 64, 62
1, 62291, Note_off_c, 0, 72, 62
1, 62304, Control_c, 0, 64, 65
1, 62319, Control_c, 0, 64, 69
1, 62333, Control_c, 0, 64, 74
1, 62348, Control_c, 0, 64, 78
1, 62352, Note_off_c, 0, 48, 63
1, 62363, Control_c, 0, 64, 81
1, 62378, Control_c, 0, 64, 85
1, 62393, Control_c, 0, 64, 88
1, 62415, Control_c, 0, 64, 90
1, 62430, Control_c, 0, 64, 91
1, 62489, Control_c, 0, 64, 90
1, 62504, Control_c, 0, 64, 88
1, 62511, Note_on_c, 0, 88, 71
1, 62519, Control_c, 0, 64, 84
1, 62533, Control_c, 0, 64, 80
1, 62548, Control_c, 0, 64, 75
1, 62563, Control_c, 0, 64, 71
1, 62578, Control_c, 0, 64, 67
1, 62594, Note_on_c, 0, 86, 82
1, 62594, Control_c, 0, 64, 65
1, 62609, Control_c, 0, 64, 64
1, 62624, Note_off_c, 0, 88, 57
1, 62624, Control_c, 0, 64, 63
1, 62653, Control_c, 0, 64, 63
1, 62668, Control_c, 0, 64, 62
1, 62677, Note_on_c, 0, 84, 80
1, 62683, Control_c, 0, 64, 62
1, 62707, Note_off_c, 0, 86, 64
1, 62742, Control_c, 0, 64, 61
1, 62744, Note_on_c, 0, 83, 78
1, 62750, Note_off_c, 0, 84, 66
1, 62756, Control_c, 0, 64, 60
1, 62795, Note_off_c, 0, 83, 66
1, 62814, Note_on_c, 0, 81, 74
1, 62816, Control_c, 0, 64, 59
1, 62830, Control_c, 0, 64, 58
1, 62873, Note_off_c, 0, 81, 51
1, 62875, Control_c, 0, 64, 57
1, 62883, Note_on_c, 0, 79, 78
1, 62890, Control_c, 0, 64, 56
1, 62905, Control_c, 0, 64, 54
1, 62920, Control_c, 0, 64, 51
1, 62935, Control_c, 0, 64, 45
1, 62950, Control_c, 0, 64, 40
1, 62955, Note_off_c, 0, 79, 63
1, 62964, Control_c, 0, 64, 38
1, 62971, Note_on_c, 0, 72, 67
1, 62974, Note_on_c, 0, 75, 69
1, 62979, Control_c, 0, 64, 35
1, 62979, Note_on_c, 0, 78, 74
1, 62994, Control_c, 0, 64, 23
1, 63005, Note_off_c, 0, 72, 64
1, 63009, Control_c, 0, 64, 0
1, 63015, Note_off_c, 0, 75, 58
1, 63051, Note_off_c, 0, 78, 63
1, 63058, Note_on_c, 0, 81, 73
1, 63127, Note_off_c, 0, 81, 61
1, 63146, Note_on_c, 0, 78, 73
1, 63203, Note_off_c, 0, 78, 53
1, 63232, Note_on_c, 0, 71, 72
1, 63232, Note_on_c, 0, 81, 76
1, 63233, Note_on_c, 0, 74, 67
1, 63263, Note_off_c, 0, 71, 62
1, 63269, Note_off_c, 0, 74, 62
1, 63304, Note_on_c, 0, 79, 74
1, 63327, Note_off_c, 0, 81, 57
1, 63364, Note_off_c, 0, 79, 65
1, 63395, Note_on_c, 0, 76, 72
1, 63462, Note_off_c, 0, 76, 58
1, 63473, Note_on_c, 0, 72, 69
1, 63474, Note_on_c, 0, 79, 76
1, 63483, Note_on_c, 0, 69, 60
1, 63506, Note_off_c, 0, 72, 64
1, 63518, Note_off_c, 0, 69, 66
1, 63558, Note_off_c, 0, 79, 62
1, 63563, Note_on_c, 0, 77, 73
1, 63565, Control_c, 0, 64, 11
1, 63617, Note_off_c, 0, 77, 63
1, 63624, Control_c, 0, 64, 14
1, 63639, Control_c, 0, 64, 18
1, 63643, Note_on_c, 0, 74, 68
1, 63653, Control_c, 0, 64, 19
1, 63668, Control_c, 0, 64, 18
1, 63683, Control_c, 0, 64, 17
1, 63713, Control_c, 0, 64, 19
1, 63728, Note_off_c, 0, 74, 60
1, 63728, Control_c, 0, 64, 20
1, 63729, Note_on_c, 0, 67, 64
1, 63731, Note_on_c, 0, 71, 62
1, 63736, Note_on_c, 0, 77, 66
1, 63766, Note_off_c, 0, 67, 61
1, 63771, Note_off_c, 0, 71, 62
1, 63802, Control_c, 0, 64, 20
1, 63810, Note_off_c, 0, 77, 61
1, 63816, Note_on_c, 0, 76, 74
1, 63861, Control_c, 0, 64, 21
1, 63873, Note_off_c, 0, 76, 64
1, 63913, Note_on_c, 0, 72, 66
1, 63957, Control_c, 0, 64, 21
1, 63994, Note_on_c, 0, 65, 54
1, 63996, Note_on_c, 0, 69, 58
1, 63998, Note_on_c, 0, 76, 69
1, 63998, Note_off_c, 0, 72, 59
1, 64032, Control_c, 0, 64, 22
1, 64038, Note_off_c, 0, 69, 64
1, 64040, Note_off_c, 0, 65, 62
1, 64047, Control_c, 0, 64, 23
1, 64076, Control_c, 0, 64, 24
1, 64085, Note_off_c, 0, 76, 53
1, 64088, Note_on_c, 0, 74, 63
1, 64089, Control_c, 0, 64, 24
1, 64143, Note_off_c, 0, 74, 65
1, 64148, Control_c, 0, 64, 22
1, 64163, Control_c, 0, 64, 17
1, 64166, Note_on_c, 0, 71, 63
1, 64179, Control_c, 0, 64, 9
1, 64194, Control_c, 0, 64, 0
1, 64258, Note_off_c, 0, 71, 53
1, 64275, Note_on_c, 0, 67, 62
1, 64279, Note_on_c, 0, 72, 64
1, 64297, Note_on_c, 0, 64, 50
1, 64297, Control_c, 0, 64, 24
1, 64312, Control_c, 0, 64, 42
1, 64327, Control_c, 0, 64, 52
1, 64342, Control_c, 0, 64, 56
1, 64353, Note_off_c, 0, 67, 61
1, 64357, Control_c, 0, 64, 58
1, 64360, Note_off_c, 0, 64, 59
1, 64371, Control_c, 0, 64, 60
1, 64386, Control_c, 0, 64, 61
1, 64401, Control_c, 0, 64, 62
1, 64416, Control_c, 0, 64, 63
1, 64431, Control_c, 0, 64, 63
1, 64457, Note_off_c, 0, 72, 52
1, 64461, Control_c, 0, 64, 64
1, 64564, Control_c, 0, 64, 63
1, 64565, Note_on_c, 0, 63, 66
1, 64579, Control_c, 0, 64, 63
1, 64594, Control_c, 0, 64, 62
1, 64608, Control_c, 0, 64, 61
1, 64623, Control_c, 0, 64, 60
1, 64628, Note_off_c, 0, 63, 62
1, 64638, Control_c, 0, 64, 58
1, 64656, Note_on_c, 0, 62, 72
1, 64661, Control_c, 0, 64, 57
1, 64720, Control_c, 0, 64, 57
1, 64727, Note_off_c, 0, 62, 60
1, 64734, Control_c, 0, 64, 56
1, 64737, Note_on_c, 0, 60, 69
1, 64803, Note_off_c, 0, 60, 62
1, 64815, Note_on_c, 0, 58, 66
1, 64882, Control_c, 0, 64, 55
1, 64885, Note_off_c, 0, 58, 65
1, 64895, Note_on_c, 0, 56, 69
1, 64897, Control_c, 0, 64, 54
1, 64927, Control_c, 0, 64, 54
1, 64941, Control_c, 0, 64, 53
1, 64944, Note_off_c, 0, 56, 63
1, 64956, Control_c, 0, 64, 52
1, 64965, Note_on_c, 0, 55, 70
1, 64971, Control_c, 0, 64, 51
1, 64987, Control_c, 0, 64, 51
1, 65002, Control_c, 0, 64, 50
1, 65017, Control_c, 0, 64, 47
1, 65031, Control_c, 0, 64, 45
1, 65046, Control_c, 0, 64, 44
1, 65055, Note_on_c, 0, 54, 69
1, 65057, Note_off_c, 0, 55, 59
1, 65057, Note_on_c, 0, 84, 80
1, 65069, Note_on_c, 0, 75, 65
1, 65105, Control_c, 0, 64, 46
1, 65120, Control_c, 0, 64, 49
1, 65131, Note_off_c, 0, 54, 64
1, 65135, Control_c, 0, 64, 50
1, 65149, Control_c, 0, 64, 49
1, 65153, Note_on_c, 0, 57, 73
1, 65194, Control_c, 0, 64, 50
1, 65212, Poly_aftertouch_c, 0, 81, 127
1, 65222, Note_off_c, 0, 57, 62
1, 65224, Control_c, 0, 64, 48
1, 65233, Note_on_c, 0, 54, 66
1, 65239, Control_c, 0, 64, 46
1, 65254, Control_c, 0, 64, 46
1, 65284, Control_c, 0, 64, 45
1, 65290, Poly_aftertouch_c, 0, 81, 0
1, 65297, Note_off_c, 0, 75, 65
1, 65298, Control_c, 0, 64, 43
1, 65310, Note_off_c, 0, 54, 63
1, 65313, Control_c, 0, 64, 43
1, 65323, Note_on_c, 0, 57, 70
1, 65328, Control_c, 0, 64, 43
1, 65331, Note_on_c, 0, 74, 70
1, 65343, Control_c, 0, 64, 48
1, 65357, Control_c, 0, 64, 56
1, 65372, Control_c, 0, 64, 61
1, 65387, Control_c, 0, 64, 63
1, 65411, Note_off_c, 0, 57, 59
1, 65412, Note_on_c, 0, 55, 73
1, 65468, Control_c, 0, 64, 61
1, 65483, Control_c, 0, 64, 56
1, 65495, Note_off_c, 0, 55, 63
1, 65498, Control_c, 0, 64, 49
1, 65511, Note_on_c, 0, 52, 68
1, 65513, Control_c, 0, 64, 43
1, 65528, Control_c, 0, 64, 34
1, 65543, Control_c, 0, 64, 16
1, 65557, Control_c, 0, 64, 0
1, 65577, Note_off_c, 0, 52, 64
1, 65588, Control_c, 0, 64, 17
1, 65589, Note_on_c, 0, 83, 84
1, 65602, Note_on_c, 0, 55, 76
1, 65603, Control_c, 0, 64, 38
1, 65617, Control_c, 0, 64, 52
1, 65632, Control_c, 0, 64, 59
1, 65632, Note_off_c, 0, 84, 53
1, 65647, Control_c, 0, 64, 60
1, 65655, Note_off_c, 0, 83, 64
1, 65662, Control_c, 0, 64, 61
1, 65677, Control_c, 0, 64, 63
1, 65679, Note_on_c, 0, 53, 74
1, 65679, Note_off_c, 0, 55, 61
1, 65692, Control_c, 0, 64, 64
1, 65706, Control_c, 0, 64, 65
1, 65721, Control_c, 0, 64, 65
1, 65757, Note_off_c, 0, 53, 61
1, 65762, Note_on_c, 0, 50, 72
1, 65796, Control_c, 0, 64, 61
1, 65811, Control_c, 0, 64, 51
1, 65826, Control_c, 0, 64, 36
1, 65839, Note_off_c, 0, 50, 65
1, 65841, Control_c, 0, 64, 17
1, 65851, Note_on_c, 0, 84, 82
1, 65853, Note_off_c, 0, 74, 35
1, 65855, Note_on_c, 0, 53, 72
1, 65855, Control_c, 0, 64, 10
1, 65865, Note_on_c, 0, 79, 74
1, 65870, Control_c, 0, 64, 13
1, 65885, Control_c, 0, 64, 28
1, 65900, Control_c, 0, 64, 46
1, 65915, Control_c, 0, 64, 56
1, 65927, Note_off_c, 0, 84, 66
1, 65929, Control_c, 0, 64, 61
1, 65930, Note_on_c, 0, 52, 75
1, 65933, Note_off_c, 0, 53, 61
1, 65944, Control_c, 0, 64, 63
1, 65959, Control_c, 0, 64, 64
1, 65973, Control_c, 0, 64, 65
1, 65988, Control_c, 0, 64, 66
1, 66003, Control_c, 0, 64, 66
1, 66016, Note_off_c, 0, 52, 63
1, 66022, Note_on_c, 0, 48, 73
1, 66047, Control_c, 0, 64, 66
1, 66062, Control_c, 0, 64, 64
1, 66077, Control_c, 0, 64, 55
1, 66092, Control_c, 0, 64, 34
1, 66107, Control_c, 0, 64, 16
1, 66108, Note_off_c, 0, 48, 63
1, 66120, Note_on_c, 0, 86, 83
1, 66124, Note_on_c, 0, 52, 78
1, 66125, Note_on_c, 0, 77, 74
1, 66137, Control_c, 0, 64, 25
1, 66160, Control_c, 0, 64, 40
1, 66175, Control_c, 0, 64, 53
1, 66189, Control_c, 0, 64, 61
1, 66204, Control_c, 0, 64, 64
1, 66211, Note_off_c, 0, 52, 62
1, 66212, Note_on_c, 0, 50, 76
1, 66219, Note_off_c, 0, 79, 59
1, 66219, Control_c, 0, 64, 65
1, 66234, Control_c, 0, 64, 67
1, 66249, Control_c, 0, 64, 68
1, 66252, Note_off_c, 0, 77, 63
1, 66264, Note_off_c, 0, 86, 57
1, 66294, Note_off_c, 0, 50, 64
1, 66303, Note_on_c, 0, 47, 73
1, 66323, Control_c, 0, 64, 66
1, 66337, Control_c, 0, 64, 59
1, 66352, Control_c, 0, 64, 38
1, 66367, Control_c, 0, 64, 0
1, 66430, Note_on_c, 0, 88, 81
1, 66433, Note_on_c, 0, 48, 73
1, 66436, Note_off_c, 0, 47, 65
1, 66440, Note_on_c, 0, 79, 71
1, 66443, Note_on_c, 0, 76, 74
1, 66470, Control_c, 0, 64, 39
1, 66485, Control_c, 0, 64, 55
1, 66496, Note_off_c, 0, 88, 67
1, 66500, Control_c, 0, 64, 62
1, 66512, Note_off_c, 0, 79, 65
1, 66515, Control_c, 0, 64, 65
1, 66530, Control_c, 0, 64, 69
1, 66545, Control_c, 0, 64, 73
1, 66555, Note_off_c, 0, 76, 62
1, 66559, Control_c, 0, 64, 77
1, 66572, Note_off_c, 0, 48, 63
1, 66574, Control_c, 0, 64, 78
1, 66590, Control_c, 0, 64, 79
1, 66664, Control_c, 0, 64, 78
1, 66679, Control_c, 0, 64, 74
1, 66694, Control_c, 0, 64, 67
1, 66708, Control_c, 0, 64, 60
1, 66717, Note_on_c, 0, 79, 76
1, 66723, Control_c, 0, 64, 50
1, 66738, Control_c, 0, 64, 41
1, 66753, Control_c, 0, 64, 26
1, 66768, Control_c, 0, 64, 0
1, 66795, Note_on_c, 0, 77, 75
1, 66834, Note_off_c, 0, 79, 57
1, 66870, Note_on_c, 0, 76, 80
1, 66913, Note_off_c, 0, 77, 62
1, 66963, Note_on_c, 0, 74, 74
1, 66966, Note_off_c, 0, 76, 64
1, 67019, Note_off_c, 0, 74, 65
1, 67033, Note_on_c, 0, 72, 73
1, 67099, Note_off_c, 0, 72, 55
1, 67108, Note_on_c, 0, 71, 74
1, 67170, Note_off_c, 0, 71, 63
1, 67194, Note_on_c, 0, 52, 66
1, 67194, Note_on_c, 0, 72, 74
1, 67195, Note_on_c, 0, 60, 65
1, 67230, Note_off_c, 0, 52, 62
1, 67257, Note_off_c, 0, 72, 62
1, 67281, Note_on_c, 0, 70, 67
1, 67352, Note_off_c, 0, 70, 63
1, 67355, Note_on_c, 0, 68, 68
1, 67427, Control_c, 0, 64, 26
1, 67428, Note_off_c, 0, 68, 64
1, 67442, Control_c, 0, 64, 39
1, 67444, Note_on_c, 0, 53, 59
1, 67446, Note_on_c, 0, 69, 73
1, 67457, Control_c, 0, 64, 53
1, 67472, Control_c, 0, 64, 61
1, 67486, Note_off_c, 0, 60, 58
1, 67487, Control_c, 0, 64, 64
1, 67501, Control_c, 0, 64, 65
1, 67503, Note_off_c, 0, 53, 60
1, 67516, Control_c, 0, 64, 65
1, 67527, Note_off_c, 0, 69, 61
1, 67621, Control_c, 0, 64, 64
1, 67635, Control_c, 0, 64, 63
1, 67657, Control_c, 0, 64, 61
1, 67672, Control_c, 0, 64, 59
1, 67687, Control_c, 0, 64, 59
1, 67701, Control_c, 0, 64, 57
1, 67716, Control_c, 0, 64, 51
1, 67728, Note_on_c, 0, 69, 72
1, 67731, Control_c, 0, 64, 47
1, 67776, Control_c, 0, 64, 45
1, 67790, Note_off_c, 0, 69, 46
1, 67791, Control_c, 0, 64, 42
1, 67798, Note_on_c, 0, 67, 80
1, 67805, Control_c, 0, 64, 40
1, 67820, Control_c, 0, 64, 41
1, 67834, Control_c, 0, 64, 42
1, 67849, Control_c, 0, 64, 41
1, 67864, Control_c, 0, 64, 39
1, 67884, Note_on_c, 0, 65, 76
1, 67890, Note_off_c, 0, 67, 60
1, 67894, Control_c, 0, 64, 41
1, 67908, Control_c, 0, 64, 43
1, 67923, Control_c, 0, 64, 42
1, 67938, Control_c, 0, 64, 40
1, 67945, Note_off_c, 0, 65, 62
1, 67952, Control_c, 0, 64, 40
1, 67967, Control_c, 0, 64, 40
1, 67975, Note_on_c, 0, 64, 62
1, 67982, Control_c, 0, 64, 41
1, 68012, Control_c, 0, 64, 40
1, 68026, Control_c, 0, 64, 40
1, 68041, Control_c, 0, 64, 41
1, 68056, Note_on_c, 0, 62, 67
1, 68086, Control_c, 0, 64, 41
1, 68101, Control_c, 0, 64, 42
1, 68105, Note_off_c, 0, 64, 30
1, 68115, Control_c, 0, 64, 43
1, 68130, Control_c, 0, 64, 43
1, 68134, Note_off_c, 0, 62, 65
1, 68139, Note_on_c, 0, 61, 66
1, 68145, Control_c, 0, 64, 42
1, 68160, Control_c, 0, 64, 41
1, 68175, Control_c, 0, 64, 42
1, 68190, Control_c, 0, 64, 43
1, 68205, Control_c, 0, 64, 43
1, 68207, Note_off_c, 0, 61, 65
1, 68213, Note_on_c, 0, 78, 72
1, 68220, Control_c, 0, 64, 42
1, 68227, Note_on_c, 0, 62, 74
1, 68229, Note_on_c, 0, 74, 56
1, 68235, Control_c, 0, 64, 41
1, 68250, Control_c, 0, 64, 42
1, 68264, Control_c, 0, 64, 43
1, 68267, Note_off_c, 0, 74, 63
1, 68279, Note_off_c, 0, 78, 63
1, 68279, Control_c, 0, 64, 42
1, 68294, Control_c, 0, 64, 41
1, 68297, Note_off_c, 0, 62, 58
1, 68300, Note_on_c, 0, 60, 80
1, 68309, Control_c, 0, 64, 40
1, 68339, Control_c, 0, 64, 38
1, 68354, Control_c, 0, 64, 28
1, 68368, Control_c, 0, 64, 0
1, 68382, Note_off_c, 0, 60, 59
1, 68402, Note_on_c, 0, 58, 61
1, 68485, Note_off_c, 0, 58, 66
1, 68503, Note_on_c, 0, 79, 71
1, 68506, Note_on_c, 0, 59, 66
1, 68515, Note_on_c, 0, 74, 68
1, 68539, Control_c, 0, 64, 28
1, 68549, Note_off_c, 0, 79, 64
1, 68554, Control_c, 0, 64, 53
1, 68561, Note_off_c, 0, 74, 64
1, 68569, Control_c, 0, 64, 61
1, 68583, Control_c, 0, 64, 62
1, 68598, Control_c, 0, 64, 63
1, 68613, Control_c, 0, 64, 64
1, 68657, Control_c, 0, 64, 63
1, 68672, Control_c, 0, 64, 62
1, 68687, Control_c, 0, 64, 59
1, 68702, Control_c, 0, 64, 56
1, 68717, Control_c, 0, 64, 50
1, 68731, Control_c, 0, 64, 47
1, 68746, Control_c, 0, 64, 47
1, 68761, Control_c, 0, 64, 50
1, 68775, Control_c, 0, 64, 52
1, 68780, Note_on_c, 0, 67, 69
1, 68790, Control_c, 0, 64, 50
1, 68805, Control_c, 0, 64, 46
1, 68820, Control_c, 0, 64, 45
1, 68835, Control_c, 0, 64, 46
1, 68841, Note_off_c, 0, 67, 63
1, 68847, Note_on_c, 0, 71, 75
1, 68849, Control_c, 0, 64, 47
1, 68857, Note_off_c, 0, 59, 33
1, 68864, Control_c, 0, 64, 46
1, 68879, Control_c, 0, 64, 45
1, 68887, Note_off_c, 0, 71, 61
1, 68908, Control_c, 0, 64, 46
1, 68923, Control_c, 0, 64, 47
1, 68935, Note_on_c, 0, 74, 74
1, 68938, Control_c, 0, 64, 45
1, 68953, Control_c, 0, 64, 43
1, 68969, Control_c, 0, 64, 43
1, 68984, Control_c, 0, 64, 44
1, 68998, Control_c, 0, 64, 46
1, 69013, Control_c, 0, 64, 46
1, 69019, Note_off_c, 0, 74, 60
1, 69025, Note_on_c, 0, 79, 79
1, 69028, Control_c, 0, 64, 46
1, 69043, Control_c, 0, 64, 46
1, 69058, Control_c, 0, 64, 48
1, 69072, Control_c, 0, 64, 49
1, 69087, Control_c, 0, 64, 48
1, 69102, Control_c, 0, 64, 48
1, 69108, Note_off_c, 0, 79, 59
1, 69109, Note_on_c, 0, 83, 68
1, 69117, Control_c, 0, 64, 47
1, 69132, Control_c, 0, 64, 48
1, 69169, Control_c, 0, 64, 47
1, 69184, Control_c, 0, 64, 45
1, 69186, Note_off_c, 0, 83, 65
1, 69191, Note_on_c, 0, 86, 72
1, 69213, Control_c, 0, 64, 46
1, 69228, Control_c, 0, 64, 45
1, 69243, Control_c, 0, 64, 45
1, 69258, Control_c, 0, 64, 44
1, 69270, Note_on_c, 0, 60, 70
1, 69273, Control_c, 0, 64, 44
1, 69278, Note_on_c, 0, 62, 61
1, 69286, Note_off_c, 0, 86, 59
1, 69287, Note_on_c, 0, 84, 74
1, 69287, Control_c, 0, 64, 45
1, 69299, Note_off_c, 0, 60, 62
1, 69302, Control_c, 0, 64, 45
1, 69313, Note_off_c, 0, 62, 65
1, 69317, Control_c, 0, 64, 44
1, 69340, Note_off_c, 0, 84, 65
1, 69362, Control_c, 0, 64, 45
1, 69367, Note_on_c, 0, 81, 68
1, 69377, Control_c, 0, 64, 43
1, 69392, Control_c, 0, 64, 39
1, 69406, Control_c, 0, 64, 33
1, 69421, Control_c, 0, 64, 28
1, 69436, Control_c, 0, 64, 18
1, 69445, Note_off_c, 0, 81, 62
1, 69450, Note_on_c, 0, 78, 63
1, 69451, Control_c, 0, 64, 0
1, 69537, Note_off_c, 0, 78, 56
1, 69540, Control_c, 0, 64, 34
1, 69551, Note_on_c, 0, 62, 56
1, 69555, Control_c, 0, 64, 55
1, 69557, Note_on_c, 0, 59, 53
1, 69560, Note_on_c, 0, 79, 68
1, 69570, Control_c, 0, 64, 63
1, 69585, Control_c, 0, 64, 65
1, 69597, Note_off_c, 0, 79, 65
1, 69599, Control_c, 0, 64, 66
1, 69614, Control_c, 0, 64, 68
1, 69629, Control_c, 0, 64, 69
1, 69644, Control_c, 0, 64, 70
1, 69659, Control_c, 0, 64, 70
1, 69673, Control_c, 0, 64, 71
1, 69737, Note_off_c, 0, 62, 52
1, 69753, Note_off_c, 0, 59, 40
1, 69762, Control_c, 0, 64, 70
1, 69778, Control_c, 0, 64, 69
1, 69793, Control_c, 0, 64, 67
1, 69808, Control_c, 0, 64, 65
1, 69822, Control_c, 0, 64, 64
1, 69837, Control_c, 0, 64, 62
1, 69838, Note_on_c, 0, 67, 62
1, 69852, Control_c, 0, 64, 59
1, 69867, Control_c, 0, 64, 56
1, 69882, Control_c, 0, 64, 54
1, 69882, Control_c, 0, 67, 11
1, 69904, Control_c, 0, 64, 53
1, 69904, Control_c, 0, 67, 13
1, 69911, Note_off_c, 0, 67, 64
1, 69919, Control_c, 0, 64, 51
1, 69919, Control_c, 0, 67, 15
1, 69931, Note_on_c, 0, 71, 61
1, 69934, Control_c, 0, 64, 48
1, 69934, Control_c, 0, 67, 22
1, 69948, Control_c, 0, 64, 45
1, 69948, Control_c, 0, 67, 34
1, 69963, Control_c, 0, 64, 44
1, 69963, Control_c, 0, 67, 48
1, 69970, Note_off_c, 0, 71, 63
1, 69978, Control_c, 0, 67, 60
1, 69993, Control_c, 0, 64, 43
1, 69993, Control_c, 0, 67, 62
1, 70008, Control_c, 0, 64, 42
1, 70008, Control_c, 0, 67, 63
1, 70022, Control_c, 0, 64, 38
1, 70022, Control_c, 0, 67, 68
1, 70030, Note_on_c, 0, 74, 40
1, 70037, Control_c, 0, 67, 76
1, 70050, Note_on_c, 0, 72, 16
1, 70052, Control_c, 0, 64, 40
1, 70052, Control_c, 0, 67, 85
1, 70067, Control_c, 0, 64, 40
1, 70067, Control_c, 0, 67, 90
1, 70082, Control_c, 0, 64, 38
1, 70082, Control_c, 0, 67, 90
1, 70091, Note_off_c, 0, 72, 30
1, 70096, Control_c, 0, 64, 35
1, 70098, Note_off_c, 0, 74, 41
1, 70103, Note_on_c, 0, 79, 71
1, 70111, Control_c, 0, 64, 35
1, 70126, Control_c, 0, 67, 91
1, 70141, Control_c, 0, 67, 93
1, 70155, Control_c, 0, 64, 34
1, 70155, Control_c, 0, 67, 96
1, 70170, Control_c, 0, 64, 32
1, 70170, Control_c, 0, 67, 98
1, 70181, Note_off_c, 0, 79, 63
1, 70185, Control_c, 0, 64, 31
1, 70186, Note_on_c, 0, 83, 71
1, 70200, Control_c, 0, 64, 29
1, 70215, Control_c, 0, 64, 26
1, 70229, Control_c, 0, 64, 21
1, 70244, Control_c, 0, 64, 14
1, 70259, Control_c, 0, 64, 0
1, 70259, Control_c, 0, 67, 97
1, 70263, Note_off_c, 0, 83, 65
1, 70266, Note_on_c, 0, 86, 60
1, 70303, Control_c, 0, 67, 99
1, 70318, Control_c, 0, 67, 100
1, 70333, Control_c, 0, 67, 103
1, 70347, Note_on_c, 0, 60, 64
1, 70348, Control_c, 0, 67, 103
1, 70354, Note_on_c, 0, 62, 60
1, 70355, Note_on_c, 0, 57, 58
1, 70355, Note_on_c, 0, 84, 68
1, 70373, Note_off_c, 0, 86, 52
1, 70388, Note_off_c, 0, 57, 61
1, 70388, Note_off_c, 0, 60, 64
1, 70393, Note_off_c, 0, 62, 64
1, 70410, Note_off_c, 0, 84, 64
1, 70437, Note_on_c, 0, 81, 60
1, 70482, Control_c, 0, 67, 104
1, 70496, Control_c, 0, 67, 105
1, 70500, Note_off_c, 0, 81, 53
1, 70511, Control_c, 0, 67, 106
1, 70516, Note_on_c, 0, 78, 55
1, 70526, Control_c, 0, 67, 106
1, 70587, Note_off_c, 0, 78, 64
1, 70615, Note_on_c, 0, 59, 47
1, 70618, Note_on_c, 0, 62, 54
1, 70620, Note_on_c, 0, 55, 44
1, 70620, Note_on_c, 0, 79, 71
1, 70667, Control_c, 0, 67, 107
1, 70682, Control_c, 0, 67, 108
1, 70697, Control_c, 0, 67, 110
1, 70704, Note_off_c, 0, 79, 54
1, 70712, Control_c, 0, 67, 111
1, 70715, Note_on_c, 0, 83, 73
1, 70727, Control_c, 0, 67, 111
1, 70774, Note_off_c, 0, 83, 62
1, 70794, Note_on_c, 0, 86, 70
1, 70801, Control_c, 0, 67, 112
1, 70816, Control_c, 0, 67, 112
1, 70866, Note_off_c, 0, 55, 59
1, 70890, Control_c, 0, 67, 113
1, 70891, Note_on_c, 0, 84, 64
1, 70897, Note_on_c, 0, 57, 52
1, 70897, Note_on_c, 0, 60, 56
1, 70897, Note_off_c, 0, 59, 54
1, 70905, Control_c, 0, 67, 115
1, 70909, Note_off_c, 0, 86, 47
1, 70919, Control_c, 0, 67, 116
1, 70941, Note_off_c, 0, 62, 59
1, 70948, Note_off_c, 0, 84, 64
1, 70977, Note_on_c, 0, 81, 69
1, 70993, Control_c, 0, 67, 116
1, 71025, Note_off_c, 0, 81, 57
1, 71038, Control_c, 0, 67, 116
1, 71064, Note_on_c, 0, 78, 65
1, 71097, Control_c, 0, 67, 115
1, 71112, Control_c, 0, 67, 115
1, 71135, Note_off_c, 0, 78, 63
1, 71141, Note_off_c, 0, 57, 36
1, 71165, Note_on_c, 0, 79, 71
1, 71165, Note_on_c, 0, 55, 43
1, 71168, Note_on_c, 0, 62, 49
1, 71168, Note_off_c, 0, 60, 54
1, 71170, Note_on_c, 0, 59, 52
1, 71216, Control_c, 0, 67, 115
1, 71251, Note_on_c, 0, 83, 72
1, 71254, Note_off_c, 0, 79, 62
1, 71304, Control_c, 0, 67, 116
1, 71311, Note_off_c, 0, 83, 65
1, 71338, Note_on_c, 0, 86, 68
1, 71401, Control_c, 0, 67, 116
1, 71446, Note_on_c, 0, 84, 65
1, 71446, Note_off_c, 0, 86, 57
1, 71450, Note_off_c, 0, 55, 47
1, 71450, Note_off_c, 0, 59, 49
1, 71457, Note_on_c, 0, 60, 51
1, 71458, Note_on_c, 0, 57, 45
1, 71484, Note_off_c, 0, 62, 61
1, 71501, Note_off_c, 0, 84, 63
1, 71533, Note_on_c, 0, 81, 68
1, 71535, Control_c, 0, 67, 118
1, 71549, Control_c, 0, 67, 119
1, 71564, Control_c, 0, 67, 120
1, 71616, Note_off_c, 0, 81, 40
1, 71622, Note_on_c, 0, 78, 66
1, 71623, Control_c, 0, 67, 121
1, 71633, Note_off_c, 0, 57, 54
1, 71638, Control_c, 0, 67, 121
1, 71708, Note_off_c, 0, 78, 60
1, 71721, Note_on_c, 0, 55, 38
1, 71726, Note_on_c, 0, 59, 57
1, 71727, Control_c, 0, 67, 121
1, 71731, Note_on_c, 0, 62, 45
1, 71735, Note_on_c, 0, 79, 62
1, 71741, Control_c, 0, 67, 120
1, 71746, Note_off_c, 0, 60, 32
1, 71756, Control_c, 0, 64, 42
1, 71756, Control_c, 0, 67, 118
1, 71758, Note_off_c, 0, 59, 65
1, 71761, Note_off_c, 0, 62, 60
1, 71771, Control_c, 0, 64, 56
1, 71771, Control_c, 0, 67, 115
1, 71776, Note_off_c, 0, 55, 57
1, 71786, Control_c, 0, 64, 61
1, 71786, Control_c, 0, 67, 112
1, 71800, Control_c, 0, 64, 64
1, 71800, Control_c, 0, 67, 108
1, 71815, Control_c, 0, 64, 66
1, 71815, Control_c, 0, 67, 105
1, 71830, Control_c, 0, 64, 70
1, 71830, Control_c, 0, 67, 100
1, 71845, Control_c, 0, 64, 73
1, 71845, Control_c, 0, 67, 94
1, 71860, Control_c, 0, 64, 75
1, 71860, Control_c, 0, 67, 88
1, 71874, Control_c, 0, 64, 76
1, 71874, Control_c, 0, 67, 78
1, 71889, Control_c, 0, 64, 77
1, 71889, Control_c, 0, 67, 60
1, 71904, Control_c, 0, 64, 79
1, 71904, Control_c, 0, 67, 36
1, 71919, Control_c, 0, 64, 80
1, 71919, Control_c, 0, 67, 0
1, 71928, Note_off_c, 0, 79, 54
1, 71934, Control_c, 0, 64, 80
1, 71979, Control_c, 0, 64, 78
1, 71993, Control_c, 0, 64, 67
1, 71996, Note_on_c, 0, 43, 80
1, 72008, Control_c, 0, 64, 50
1, 72023, Control_c, 0, 64, 0
1, 72045, Note_off_c, 0, 43, 61
1, 72285, Note_on_c, 0, 45, 83
1, 72298, Control_c, 0, 64, 20
1, 72313, Control_c, 0, 64, 47
1, 72328, Control_c, 0, 64, 58
1, 72330, Note_off_c, 0, 45, 65
1, 72342, Control_c, 0, 64, 61
1, 72372, Control_c, 0, 64, 60
1, 72387, Control_c, 0, 64, 51
1, 72402, Control_c, 0, 64, 33
1, 72417, Control_c, 0, 64, 0
1, 72565, Control_c, 0, 64, 36
1, 72576, Note_on_c, 0, 47, 83
1, 72580, Control_c, 0, 64, 58
1, 72595, Control_c, 0, 64, 65
1, 72610, Control_c, 0, 64, 67
1, 72615, Note_off_c, 0, 47, 64
1, 72624, Control_c, 0, 64, 70
1, 72639, Control_c, 0, 64, 73
1, 72654, Control_c, 0, 64, 74
1, 72684, Control_c, 0, 64, 69
1, 72698, Control_c, 0, 64, 59
1, 72713, Control_c, 0, 64, 32
1, 72728, Control_c, 0, 64, 0
1, 72831, Control_c, 0, 64, 36
1, 72846, Control_c, 0, 64, 58
1, 72851, Note_on_c, 0, 48, 77
1, 72861, Control_c, 0, 64, 65
1, 72876, Control_c, 0, 64, 69
1, 72893, Note_off_c, 0, 48, 65
1, 72898, Control_c, 0, 64, 73
1, 72913, Control_c, 0, 64, 76
1, 72928, Control_c, 0, 64, 75
1, 72942, Control_c, 0, 64, 72
1, 72957, Control_c, 0, 64, 59
1, 72973, Control_c, 0, 64, 0
1, 73121, Control_c, 0, 64, 46
1, 73136, Control_c, 0, 64, 60
1, 73137, Note_on_c, 0, 52, 80
1, 73151, Control_c, 0, 64, 65
1, 73166, Control_c, 0, 64, 69
1, 73180, Control_c, 0, 64, 73
1, 73183, Note_off_c, 0, 52, 63
1, 73195, Control_c, 0, 64, 74
1, 73240, Control_c, 0, 64, 70
1, 73255, Control_c, 0, 64, 60
1, 73269, Control_c, 0, 64, 33
1, 73284, Control_c, 0, 64, 0
1, 73418, Control_c, 0, 64, 31
1, 73420, Note_on_c, 0, 53, 73
1, 73433, Control_c, 0, 64, 54
1, 73447, Control_c, 0, 64, 60
1, 73462, Control_c, 0, 64, 62
1, 73464, Note_off_c, 0, 53, 62
1, 73477, Control_c, 0, 64, 65
1, 73492, Control_c, 0, 64, 68
1, 73507, Control_c, 0, 64, 69
1, 73536, Control_c, 0, 64, 66
1, 73551, Control_c, 0, 64, 57
1, 73565, Control_c, 0, 64, 31
1, 73580, Control_c, 0, 64, 0
1, 73677, Control_c, 0, 64, 18
1, 73691, Control_c, 0, 64, 43
1, 73706, Control_c, 0, 64, 54
1, 73719, Note_on_c, 0, 56, 76
1, 73721, Control_c, 0, 64, 57
1, 73736, Control_c, 0, 64, 57
1, 73751, Control_c, 0, 64, 61
1, 73752, Note_off_c, 0, 56, 65
1, 73767, Control_c, 0, 64, 64
1, 73782, Control_c, 0, 64, 66
1, 73796, Control_c, 0, 64, 67
1, 73856, Control_c, 0, 64, 66
1, 73870, Control_c, 0, 64, 62
1, 73885, Control_c, 0, 64, 55
1, 73900, Control_c, 0, 64, 48
1, 73915, Control_c, 0, 64, 45
1, 73930, Control_c, 0, 64, 42
1, 73944, Control_c, 0, 64, 40
1, 73974, Control_c, 0, 64, 40
1, 73989, Control_c, 0, 64, 37
1, 74003, Control_c, 0, 64, 34
1, 74018, Control_c, 0, 64, 30
1, 74030, Note_on_c, 0, 57, 67
1, 74033, Control_c, 0, 64, 25
1, 74048, Control_c, 0, 64, 22
1, 74063, Control_c, 0, 64, 20
1, 74077, Control_c, 0, 64, 16
1, 74092, Control_c, 0, 64, 0
1, 74160, Note_off_c, 0, 57, 63
1, 74169, Note_on_c, 0, 60, 71
1, 74297, Note_on_c, 0, 59, 72
1, 74312, Note_off_c, 0, 60, 59
1, 74424, Note_on_c, 0, 57, 72
1, 74434, Note_off_c, 0, 59, 64
1, 74545, Note_off_c, 0, 57, 62
1, 74555, Note_on_c, 0, 59, 73
1, 74676, Note_off_c, 0, 59, 64
1, 74681, Note_on_c, 0, 60, 77
1, 74808, Note_on_c, 0, 57, 76
1, 74812, Note_off_c, 0, 60, 56
1, 74918, Note_off_c, 0, 57, 62
1, 74925, Note_on_c, 0, 59, 79
1, 75046, Note_off_c, 0, 59, 64
1, 75049, Control_c, 0, 64, 38
1, 75064, Control_c, 0, 64, 55
1, 75066, Note_on_c, 0, 60, 82
1, 75079, Control_c, 0, 64, 60
1, 75093, Control_c, 0, 64, 62
1, 75108, Control_c, 0, 64, 63
1, 75115, Note_off_c, 0, 60, 62
1, 75159, Control_c, 0, 64, 60
1, 75174, Control_c, 0, 64, 52
1, 75189, Control_c, 0, 64, 42
1, 75204, Control_c, 0, 64, 28
1, 75219, Control_c, 0, 64, 0
1, 75293, Control_c, 0, 64, 19
1, 75308, Control_c, 0, 64, 20
1, 75323, Control_c, 0, 64, 26
1, 75338, Control_c, 0, 64, 39
1, 75352, Control_c, 0, 64, 56
1, 75360, Note_on_c, 0, 57, 79
1, 75368, Control_c, 0, 64, 63
1, 75383, Control_c, 0, 64, 64
1, 75398, Control_c, 0, 64, 65
1, 75404, Note_off_c, 0, 57, 62
1, 75413, Control_c, 0, 64, 66
1, 75428, Control_c, 0, 64, 67
1, 75442, Control_c, 0, 64, 66
1, 75457, Control_c, 0, 64, 65
1, 75472, Control_c, 0, 64, 58
1, 75487, Control_c, 0, 64, 44
1, 75502, Control_c, 0, 64, 14
1, 75516, Control_c, 0, 64, 0
1, 75590, Control_c, 0, 64, 14
1, 75605, Control_c, 0, 64, 39
1, 75620, Control_c, 0, 64, 53
1, 75634, Control_c, 0, 64, 60
1, 75649, Control_c, 0, 64, 63
1, 75657, Note_on_c, 0, 52, 74
1, 75664, Control_c, 0, 64, 66
1, 75679, Control_c, 0, 64, 70
1, 75694, Control_c, 0, 64, 74
1, 75705, Note_off_c, 0, 52, 61
1, 75709, Control_c, 0, 64, 75
1, 75723, Control_c, 0, 64, 76
1, 75767, Control_c, 0, 64, 75
1, 75782, Control_c, 0, 64, 74
1, 75797, Control_c, 0, 64, 69
1, 75812, Control_c, 0, 64, 63
1, 75827, Control_c, 0, 64, 54
1, 75842, Control_c, 0, 64, 43
1, 75857, Control_c, 0, 64, 36
1, 75872, Control_c, 0, 64, 25
1, 75894, Control_c, 0, 64, 0
1, 75935, Note_on_c, 0, 55, 69
1, 75985, Note_off_c, 0, 55, 50
1, 75996, Note_on_c, 0, 54, 70
1, 76042, Note_off_c, 0, 54, 63
1, 76043, Note_on_c, 0, 51, 79
1, 76110, Note_on_c, 0, 54, 73
1, 76121, Note_off_c, 0, 51, 62
1, 76197, Note_off_c, 0, 54, 64
1, 76208, Note_on_c, 0, 55, 81
1, 76427, Control_c, 0, 64, 24
1, 76442, Control_c, 0, 64, 32
1, 76456, Control_c, 0, 64, 26
1, 76471, Control_c, 0, 64, 25
1, 76486, Control_c, 0, 64, 27
1, 76501, Control_c, 0, 64, 32
1, 76505, Note_on_c, 0, 67, 72
1, 76516, Control_c, 0, 64, 32
1, 76522, Note_on_c, 0, 64, 79
1, 76531, Control_c, 0, 64, 25
1, 76545, Control_c, 0, 64, 20
1, 76560, Control_c, 0, 64, 22
1, 76575, Control_c, 0, 64, 25
1, 76590, Note_off_c, 0, 67, 56
1, 76590, Control_c, 0, 64, 23
1, 76605, Control_c, 0, 64, 9
1, 76620, Control_c, 0, 64, 0
1, 76626, Note_off_c, 0, 64, 65
1, 76799, Note_on_c, 0, 69, 76
1, 76805, Control_c, 0, 64, 24
1, 76811, Note_on_c, 0, 65, 79
1, 76820, Control_c, 0, 64, 45
1, 76835, Control_c, 0, 64, 55
1, 76849, Control_c, 0, 64, 58
1, 76861, Note_off_c, 0, 65, 61
1, 76864, Control_c, 0, 64, 60
1, 76876, Note_off_c, 0, 69, 61
1, 76879, Control_c, 0, 64, 61
1, 76909, Control_c, 0, 64, 61
1, 76923, Control_c, 0, 64, 57
1, 76938, Control_c, 0, 64, 48
1, 76953, Control_c, 0, 64, 37
1, 76969, Control_c, 0, 64, 14
1, 76984, Control_c, 0, 64, 0
1, 77084, Note_on_c, 0, 71, 72
1, 77084, Note_on_c, 0, 62, 74
1, 77102, Control_c, 0, 64, 32
1, 77117, Control_c, 0, 64, 53
1, 77131, Note_off_c, 0, 62, 63
1, 77132, Control_c, 0, 64, 61
1, 77147, Control_c, 0, 64, 62
1, 77153, Note_off_c, 0, 71, 64
1, 77161, Control_c, 0, 64, 64
1, 77176, Control_c, 0, 64, 65
1, 77191, Control_c, 0, 64, 66
1, 77220, Control_c, 0, 64, 64
1, 77235, Control_c, 0, 64, 58
1, 77250, Control_c, 0, 64, 46
1, 77265, Control_c, 0, 64, 33
1, 77279, Control_c, 0, 64, 13
1, 77294, Control_c, 0, 64, 0
1, 77353, Control_c, 0, 64, 8
1, 77368, Control_c, 0, 64, 30
1, 77373, Note_on_c, 0, 72, 74
1, 77389, Note_on_c, 0, 64, 68
1, 77391, Control_c, 0, 64, 44
1, 77406, Control_c, 0, 64, 54
1, 77420, Control_c, 0, 64, 59
1, 77435, Control_c, 0, 64, 62
1, 77440, Note_off_c, 0, 64, 63
1, 77450, Control_c, 0, 64, 63
1, 77465, Control_c, 0, 64, 64
1, 77472, Note_off_c, 0, 72, 59
1, 77480, Control_c, 0, 64, 65
1, 77509, Control_c, 0, 64, 63
1, 77524, Control_c, 0, 64, 56
1, 77538, Control_c, 0, 64, 42
1, 77553, Control_c, 0, 64, 19
1, 77568, Control_c, 0, 64, 0
1, 77657, Control_c, 0, 64, 25
1, 77670, Note_on_c, 0, 76, 70
1, 77672, Control_c, 0, 64, 42
1, 77680, Note_on_c, 0, 61, 61
1, 77687, Control_c, 0, 64, 54
1, 77702, Control_c, 0, 64, 60
1, 77712, Note_off_c, 0, 61, 62
1, 77717, Control_c, 0, 64, 62
1, 77731, Control_c, 0, 64, 63
1, 77742, Note_off_c, 0, 76, 59
1, 77746, Control_c, 0, 64, 64
1, 77762, Control_c, 0, 64, 65
1, 77806, Control_c, 0, 64, 62
1, 77821, Control_c, 0, 64, 54
1, 77836, Control_c, 0, 64, 41
1, 77851, Control_c, 0, 64, 25
1, 77866, Control_c, 0, 64, 0
1, 77925, Control_c, 0, 64, 8
1, 77940, Control_c, 0, 64, 32
1, 77952, Note_on_c, 0, 62, 63
1, 77954, Control_c, 0, 64, 50
1, 77959, Note_on_c, 0, 77, 69
1, 77969, Control_c, 0, 64, 57
1, 77984, Control_c, 0, 64, 59
1, 77997, Note_off_c, 0, 62, 60
1, 77999, Control_c, 0, 64, 61
1, 78013, Note_off_c, 0, 77, 63
1, 78014, Control_c, 0, 64, 64
1, 78029, Control_c, 0, 64, 66
1, 78043, Control_c, 0, 64, 67
1, 78088, Control_c, 0, 64, 66
1, 78103, Control_c, 0, 64, 63
1, 78117, Control_c, 0, 64, 55
1, 78140, Control_c, 0, 64, 39
1, 78155, Control_c, 0, 64, 14
1, 78169, Control_c, 0, 64, 0
1, 78199, Control_c, 0, 64, 12
1, 78214, Control_c, 0, 64, 35
1, 78229, Control_c, 0, 64, 49
1, 78243, Control_c, 0, 64, 57
1, 78252, Note_on_c, 0, 64, 61
1, 78256, Note_on_c, 0, 80, 68
1, 78258, Control_c, 0, 64, 61
1, 78273, Control_c, 0, 64, 62
1, 78288, Control_c, 0, 64, 63
1, 78298, Note_off_c, 0, 64, 62
1, 78303, Control_c, 0, 64, 64
1, 78316, Control_c, 0, 64, 65
1, 78327, Note_off_c, 0, 55, 59
1, 78346, Control_c, 0, 64, 65
1, 78358, Note_off_c, 0, 80, 59
1, 78391, Control_c, 0, 64, 65
1, 78420, Control_c, 0, 64, 64
1, 78435, Control_c, 0, 64, 63
1, 78450, Control_c, 0, 64, 61
1, 78465, Control_c, 0, 64, 58
1, 78480, Control_c, 0, 64, 55
1, 78495, Control_c, 0, 64, 52
1, 78509, Control_c, 0, 64, 49
1, 78524, Control_c, 0, 64, 48
1, 78539, Control_c, 0, 64, 45
1, 78554, Control_c, 0, 64, 42
1, 78556, Note_on_c, 0, 81, 65
1, 78561, Note_on_c, 0, 65, 56
1, 78567, Note_on_c, 0, 55, 45
1, 78569, Control_c, 0, 64, 38
1, 78584, Control_c, 0, 64, 35
1, 78599, Control_c, 0, 64, 34
1, 78644, Control_c, 0, 64, 33
1, 78658, Control_c, 0, 64, 32
1, 78673, Control_c, 0, 64, 33
1, 78688, Control_c, 0, 64, 36
1, 78703, Control_c, 0, 64, 37
1, 78707, Note_on_c, 0, 84, 67
1, 78713, Note_off_c, 0, 81, 51
1, 78732, Control_c, 0, 64, 37
1, 78762, Control_c, 0, 64, 39
1, 78777, Control_c, 0, 64, 41
1, 78806, Control_c, 0, 64, 41
1, 78836, Control_c, 0, 64, 43
1, 78839, Note_on_c, 0, 83, 69
1, 78851, Control_c, 0, 64, 45
1, 78863, Note_off_c, 0, 84, 50
1, 78865, Control_c, 0, 64, 44
1, 78918, Control_c, 0, 64, 45
1, 78932, Control_c, 0, 64, 46
1, 78947, Control_c, 0, 64, 48
1, 78961, Note_off_c, 0, 83, 65
1, 78962, Control_c, 0, 64, 49
1, 78972, Note_on_c, 0, 81, 70
1, 78977, Control_c, 0, 64, 49
1, 78991, Control_c, 0, 64, 51
1, 79006, Control_c, 0, 64, 53
1, 79036, Control_c, 0, 64, 52
1, 79095, Control_c, 0, 64, 50
1, 79109, Control_c, 0, 64, 47
1, 79111, Note_on_c, 0, 83, 69
1, 79124, Control_c, 0, 64, 47
1, 79139, Control_c, 0, 64, 47
1, 79163, Note_off_c, 0, 81, 34
1, 79169, Control_c, 0, 64, 46
1, 79184, Control_c, 0, 64, 45
1, 79213, Control_c, 0, 64, 46
1, 79228, Control_c, 0, 64, 47
1, 79240, Note_on_c, 0, 84, 71
1, 79243, Control_c, 0, 64, 46
1, 79246, Note_off_c, 0, 83, 58
1, 79317, Control_c, 0, 64, 46
1, 79347, Control_c, 0, 64, 46
1, 79376, Note_on_c, 0, 81, 68
1, 79412, Note_off_c, 0, 84, 58
1, 79422, Control_c, 0, 64, 47
1, 79437, Control_c, 0, 64, 47
1, 79481, Control_c, 0, 64, 48
1, 79496, Control_c, 0, 64, 48
1, 79501, Note_on_c, 0, 83, 74
1, 79540, Control_c, 0, 64, 48
1, 79570, Control_c, 0, 64, 49
1, 79585, Control_c, 0, 64, 49
1, 79600, Control_c, 0, 64, 49
1, 79637, Control_c, 0, 64, 49
1, 79652, Control_c, 0, 64, 50
1, 79658, Note_on_c, 0, 84, 77
1, 79666, Control_c, 0, 64, 51
1, 79680, Note_off_c, 0, 81, 43
1, 79702, Note_off_c, 0, 83, 60
1, 79711, Control_c, 0, 64, 51
1, 79740, Control_c, 0, 64, 51
1, 79785, Control_c, 0, 64, 51
1, 79793, Note_on_c, 0, 62, 73
1, 79812, Note_off_c, 0, 65, 61
1, 79860, Control_c, 0, 64, 50
1, 79875, Control_c, 0, 64, 50
1, 79889, Control_c, 0, 64, 49
1, 79904, Control_c, 0, 64, 47
1, 79919, Control_c, 0, 64, 46
1, 79933, Control_c, 0, 64, 44
1, 79936, Note_off_c, 0, 62, 65
1, 79938, Note_on_c, 0, 64, 71
1, 79948, Control_c, 0, 64, 42
1, 79963, Control_c, 0, 64, 38
1, 79978, Control_c, 0, 64, 28
1, 79993, Control_c, 0, 64, 19
1, 80007, Control_c, 0, 64, 15
1, 80022, Control_c, 0, 64, 13
1, 80037, Control_c, 0, 64, 0
1, 80059, Note_on_c, 0, 65, 72
1, 80063, Note_off_c, 0, 64, 64
1, 80171, Control_c, 0, 64, 22
1, 80186, Control_c, 0, 64, 35
1, 80197, Note_on_c, 0, 64, 71
1, 80200, Note_off_c, 0, 65, 61
1, 80201, Control_c, 0, 64, 42
1, 80216, Control_c, 0, 64, 45
1, 80230, Control_c, 0, 64, 48
1, 80245, Control_c, 0, 64, 51
1, 80260, Control_c, 0, 64, 52
1, 80290, Control_c, 0, 64, 53
1, 80304, Control_c, 0, 64, 53
1, 80308, Note_off_c, 0, 64, 64
1, 80319, Note_on_c, 0, 60, 64
1, 80319, Control_c, 0, 64, 54
1, 80334, Control_c, 0, 64, 55
1, 80349, Control_c, 0, 64, 56
1, 80364, Control_c, 0, 64, 57
1, 80386, Control_c, 0, 64, 58
1, 80401, Control_c, 0, 64, 60
1, 80416, Control_c, 0, 64, 61
1, 80430, Control_c, 0, 64, 61
1, 80453, Note_off_c, 0, 60, 60
1, 80466, Note_on_c, 0, 66, 72
1, 80505, Control_c, 0, 64, 61
1, 80519, Control_c, 0, 64, 60
1, 80591, Note_off_c, 0, 66, 56
1, 80594, Control_c, 0, 64, 60
1, 80599, Note_on_c, 0, 62, 64
1, 80625, Note_off_c, 0, 55, 60
1, 80638, Control_c, 0, 64, 59
1, 80653, Control_c, 0, 64, 59
1, 80668, Control_c, 0, 64, 58
1, 80683, Control_c, 0, 64, 57
1, 80727, Control_c, 0, 64, 57
1, 80742, Control_c, 0, 64, 55
1, 80756, Control_c, 0, 64, 53
1, 80768, Note_on_c, 0, 67, 67
1, 80771, Control_c, 0, 64, 52
1, 80778, Note_on_c, 0, 55, 46
1, 80800, Note_off_c, 0, 62, 63
1, 80816, Control_c, 0, 64, 51
1, 80830, Control_c, 0, 64, 49
1, 80845, Control_c, 0, 64, 49
1, 80875, Control_c, 0, 64, 49
1, 80904, Control_c, 0, 64, 49
1, 80918, Note_on_c, 0, 82, 69
1, 80951, Note_off_c, 0, 82, 64
1, 80951, Note_off_c, 0, 84, 35
1, 80965, Control_c, 0, 64, 48
1, 80979, Control_c, 0, 64, 47
1, 81039, Control_c, 0, 64, 46
1, 81053, Control_c, 0, 64, 46
1, 81055, Note_on_c, 0, 83, 70
1, 81170, Note_off_c, 0, 67, 53
1, 81179, Control_c, 0, 64, 46
1, 81186, Note_on_c, 0, 64, 61
1, 81209, Control_c, 0, 64, 46
1, 81224, Control_c, 0, 64, 45
1, 81298, Control_c, 0, 64, 45
1, 81313, Control_c, 0, 64, 44
1, 81324, Note_off_c, 0, 64, 63
1, 81330, Note_on_c, 0, 65, 65
1, 81386, Control_c, 0, 64, 43
1, 81459, Note_off_c, 0, 83, 54
1, 81470, Note_on_c, 0, 80, 69
1, 81503, Note_off_c, 0, 80, 62
1, 81505, Control_c, 0, 64, 44
1, 81579, Control_c, 0, 64, 44
1, 81594, Control_c, 0, 64, 45
1, 81610, Note_on_c, 0, 81, 68
1, 81668, Control_c, 0, 64, 46
1, 81683, Control_c, 0, 64, 47
1, 81727, Control_c, 0, 64, 47
1, 81728, Note_off_c, 0, 65, 50
1, 81742, Control_c, 0, 64, 48
1, 81748, Note_on_c, 0, 63, 51
1, 81758, Control_c, 0, 64, 49
1, 81817, Control_c, 0, 64, 49
1, 81832, Control_c, 0, 64, 50
1, 81899, Control_c, 0, 64, 50
1, 81905, Note_off_c, 0, 63, 56
1, 81906, Note_on_c, 0, 64, 53
1, 81914, Control_c, 0, 64, 51
1, 81929, Control_c, 0, 64, 51
1, 81944, Control_c, 0, 64, 51
1, 81958, Control_c, 0, 64, 50
1, 82002, Control_c, 0, 64, 51
1, 82016, Note_off_c, 0, 81, 56
1, 82032, Control_c, 0, 64, 50
1, 82043, Note_on_c, 0, 78, 61
1, 82047, Control_c, 0, 64, 50
1, 82073, Note_off_c, 0, 78, 64
1, 82075, Control_c, 0, 64, 50
1, 82090, Control_c, 0, 64, 50
1, 82105, Control_c, 0, 64, 49
1, 82120, Control_c, 0, 64, 49
1, 82150, Control_c, 0, 64, 49
1, 82186, Note_on_c, 0, 79, 65
1, 82224, Control_c, 0, 64, 50
1, 82239, Control_c, 0, 64, 51
1, 82269, Control_c, 0, 64, 51
1, 82298, Control_c, 0, 64, 50
1, 82299, Note_off_c, 0, 64, 61
1, 82313, Control_c, 0, 64, 50
1, 82321, Note_on_c, 0, 61, 56
1, 82327, Control_c, 0, 64, 49
1, 82342, Control_c, 0, 64, 46
1, 82357, Control_c, 0, 64, 45
1, 82401, Control_c, 0, 64, 44
1, 82416, Control_c, 0, 64, 42
1, 82431, Control_c, 0, 64, 40
1, 82446, Control_c, 0, 67, 11
1, 82461, Control_c, 0, 67, 14
1, 82475, Control_c, 0, 64, 39
1, 82475, Control_c, 0, 67, 15
1, 82479, Note_on_c, 0, 62, 54
1, 82482, Note_off_c, 0, 61, 53
1, 82490, Control_c, 0, 64, 37
1, 82490, Control_c, 0, 67, 17
1, 82505, Control_c, 0, 64, 34
1, 82505, Control_c, 0, 67, 20
1, 82520, Control_c, 0, 64, 34
1, 82520, Control_c, 0, 67, 25
1, 82534, Control_c, 0, 67, 30
1, 82550, Control_c, 0, 64, 35
1, 82550, Control_c, 0, 67, 33
1, 82565, Control_c, 0, 64, 35
1, 82565, Control_c, 0, 67, 37
1, 82580, Control_c, 0, 67, 40
1, 82592, Note_off_c, 0, 79, 40
1, 82595, Control_c, 0, 67, 44
1, 82606, Note_on_c, 0, 76, 62
1, 82610, Control_c, 0, 64, 36
1, 82610, Control_c, 0, 67, 46
1, 82632, Control_c, 0, 64, 38
1, 82632, Control_c, 0, 67, 47
1, 82647, Control_c, 0, 64, 41
1, 82647, Control_c, 0, 67, 48
1, 82655, Note_off_c, 0, 76, 59
1, 82662, Control_c, 0, 64, 42
1, 82662, Control_c, 0, 67, 50
1, 82677, Control_c, 0, 64, 43
1, 82677, Control_c, 0, 67, 53
1, 82692, Control_c, 0, 64, 44
1, 82692, Control_c, 0, 67, 56
1, 82706, Control_c, 0, 64, 46
1, 82706, Control_c, 0, 67, 59
1, 82721, Control_c, 0, 64, 47
1, 82721, Control_c, 0, 67, 61
1, 82736, Control_c, 0, 64, 49
1, 82736, Control_c, 0, 67, 64
1, 82750, Control_c, 0, 64, 51
1, 82750, Control_c, 0, 67, 65
1, 82761, Note_on_c, 0, 77, 60
1, 82765, Control_c, 0, 64, 53
1, 82780, Control_c, 0, 64, 55
1, 82780, Control_c, 0, 67, 66
1, 82795, Control_c, 0, 64, 56
1, 82795, Control_c, 0, 67, 68
1, 82797, Note_off_c, 0, 77, 63
1, 82810, Control_c, 0, 64, 57
1, 82810, Control_c, 0, 67, 72
1, 82824, Control_c, 0, 64, 58
1, 82824, Control_c, 0, 67, 76
1, 82839, Control_c, 0, 67, 77
1, 82869, Control_c, 0, 67, 78
1, 82884, Control_c, 0, 67, 79
1, 82898, Control_c, 0, 67, 80
1, 82899, Note_on_c, 0, 77, 65
1, 82910, Note_off_c, 0, 55, 32
1, 82913, Control_c, 0, 67, 83
1, 82920, Note_on_c, 0, 56, 47
1, 82928, Control_c, 0, 67, 84
1, 82936, Note_off_c, 0, 77, 64
1, 83002, Control_c, 0, 64, 57
1, 83002, Control_c, 0, 67, 84
1, 83017, Control_c, 0, 64, 56
1, 83032, Control_c, 0, 64, 55
1, 83047, Control_c, 0, 64, 54
1, 83062, Control_c, 0, 64, 52
1, 83071, Note_on_c, 0, 77, 62
1, 83077, Control_c, 0, 64, 51
1, 83092, Control_c, 0, 64, 51
1, 83095, Note_on_c, 0, 57, 53
1, 83106, Control_c, 0, 64, 50
1, 83121, Control_c, 0, 64, 49
1, 83127, Note_off_c, 0, 56, 35
1, 83136, Control_c, 0, 64, 46
1, 83136, Control_c, 0, 67, 84
1, 83150, Control_c, 0, 64, 44
1, 83165, Control_c, 0, 64, 43
1, 83170, Note_off_c, 0, 77, 60
1, 83195, Note_on_c, 0, 79, 59
1, 83210, Control_c, 0, 64, 41
1, 83224, Control_c, 0, 64, 39
1, 83239, Control_c, 0, 64, 38
1, 83243, Note_off_c, 0, 79, 60
1, 83267, Note_on_c, 0, 77, 51
1, 83284, Control_c, 0, 64, 34
1, 83298, Control_c, 0, 64, 30
1, 83298, Control_c, 0, 67, 83
1, 83300, Note_off_c, 0, 77, 66
1, 83313, Control_c, 0, 64, 26
1, 83314, Note_on_c, 0, 76, 63
1, 83378, Note_off_c, 0, 76, 49
1, 83381, Control_c, 0, 64, 25
1, 83394, Note_on_c, 0, 77, 64
1, 83396, Control_c, 0, 64, 24
1, 83410, Control_c, 0, 67, 82
1, 83425, Control_c, 0, 67, 82
1, 83440, Control_c, 0, 67, 81
1, 83470, Control_c, 0, 67, 82
1, 83500, Control_c, 0, 64, 25
1, 83525, Note_on_c, 0, 79, 69
1, 83530, Note_off_c, 0, 77, 61
1, 83560, Control_c, 0, 64, 25
1, 83619, Control_c, 0, 67, 81
1, 83694, Note_off_c, 0, 79, 59
1, 83700, Note_on_c, 0, 81, 63
1, 83722, Control_c, 0, 67, 81
1, 83737, Control_c, 0, 67, 80
1, 83781, Control_c, 0, 64, 26
1, 83781, Control_c, 0, 67, 80
1, 83796, Control_c, 0, 64, 27
1, 83826, Control_c, 0, 67, 79
1, 83855, Control_c, 0, 64, 27
1, 83870, Control_c, 0, 64, 28
1, 83870, Control_c, 0, 67, 79
1, 83885, Control_c, 0, 64, 29
1, 83989, Control_c, 0, 64, 28
1, 84010, Note_on_c, 0, 79, 57
1, 84032, Note_off_c, 0, 81, 51
1, 84157, Note_on_c, 0, 77, 59
1, 84202, Note_off_c, 0, 79, 44
1, 84264, Control_c, 0, 64, 29
1, 84278, Control_c, 0, 64, 29
1, 84302, Note_off_c, 0, 77, 57
1, 84308, Control_c, 0, 64, 30
1, 84312, Note_on_c, 0, 76, 54
1, 84323, Control_c, 0, 64, 32
1, 84338, Control_c, 0, 64, 38
1, 84352, Control_c, 0, 64, 44
1, 84367, Control_c, 0, 64, 49
1, 84382, Control_c, 0, 64, 51
1, 84397, Control_c, 0, 64, 53
1, 84412, Control_c, 0, 64, 56
1, 84427, Control_c, 0, 64, 57
1, 84442, Control_c, 0, 64, 59
1, 84457, Control_c, 0, 64, 60
1, 84472, Control_c, 0, 64, 60
1, 84494, Note_off_c, 0, 76, 34
1, 84545, Control_c, 0, 67, 79
1, 84590, Control_c, 0, 64, 60
1, 84604, Control_c, 0, 64, 59
1, 84619, Control_c, 0, 64, 58
1, 84634, Control_c, 0, 64, 57
1, 84646, Note_on_c, 0, 82, 57
1, 84649, Control_c, 0, 64, 57
1, 84664, Control_c, 0, 64, 55
1, 84664, Control_c, 0, 67, 80
1, 84678, Control_c, 0, 64, 53
1, 84693, Control_c, 0, 64, 51
1, 84708, Control_c, 0, 64, 51
1, 84708, Control_c, 0, 67, 80
1, 84722, Control_c, 0, 67, 81
1, 84737, Control_c, 0, 64, 49
1, 84737, Control_c, 0, 67, 82
1, 84752, Control_c, 0, 64, 47
1, 84752, Control_c, 0, 67, 82
1, 84767, Control_c, 0, 64, 46
1, 84767, Control_c, 0, 67, 83
1, 84782, Control_c, 0, 64, 45
1, 84782, Control_c, 0, 67, 83
1, 84797, Control_c, 0, 67, 84
1, 84811, Control_c, 0, 67, 85
1, 84826, Control_c, 0, 64, 44
1, 84826, Control_c, 0, 67, 85
1, 84841, Control_c, 0, 64, 43
1, 84856, Control_c, 0, 64, 42
1, 84856, Control_c, 0, 67, 86
1, 84878, Control_c, 0, 67, 87
1, 84893, Control_c, 0, 64, 43
1, 84893, Control_c, 0, 67, 91
1, 84908, Control_c, 0, 67, 92
1, 84922, Control_c, 0, 67, 93
1, 84983, Control_c, 0, 67, 92
1, 84984, Note_on_c, 0, 61, 46
1, 85013, Control_c, 0, 67, 92
1, 85042, Control_c, 0, 67, 91
1, 85052, Note_off_c, 0, 62, 45
1, 85057, Control_c, 0, 64, 43
1, 85057, Control_c, 0, 67, 90
1, 85072, Control_c, 0, 67, 90
1, 85087, Control_c, 0, 67, 90
1, 85116, Control_c, 0, 67, 91
1, 85131, Control_c, 0, 64, 44
1, 85146, Control_c, 0, 64, 45
1, 85146, Control_c, 0, 67, 90
1, 85160, Control_c, 0, 64, 46
1, 85160, Control_c, 0, 67, 90
1, 85175, Control_c, 0, 67, 89
1, 85220, Control_c, 0, 67, 89
1, 85250, Control_c, 0, 64, 46
1, 85250, Control_c, 0, 67, 88
1, 85282, Note_on_c, 0, 81, 51
1, 85294, Control_c, 0, 67, 88
1, 85324, Control_c, 0, 64, 47
1, 85339, Control_c, 0, 64, 47
1, 85368, Control_c, 0, 64, 48
1, 85368, Control_c, 0, 67, 87
1, 85398, Control_c, 0, 67, 87
1, 85402, Note_off_c, 0, 82, 28
1, 85411, Note_on_c, 0, 79, 55
1, 85457, Control_c, 0, 64, 47
1, 85457, Control_c, 0, 67, 86
1, 85464, Note_off_c, 0, 81, 36
1, 85527, Note_off_c, 0, 79, 54
1, 85545, Control_c, 0, 64, 47
1, 85554, Note_on_c, 0, 77, 55
1, 85560, Control_c, 0, 64, 46
1, 85575, Note_on_c, 0, 62, 46
1, 85600, Note_off_c, 0, 61, 50
1, 85655, Note_off_c, 0, 57, 33
1, 85698, Note_off_c, 0, 77, 56
1, 85711, Note_on_c, 0, 82, 57
1, 85776, Control_c, 0, 64, 46
1, 85776, Control_c, 0, 67, 86
1, 85791, Control_c, 0, 64, 45
1, 85821, Control_c, 0, 67, 85
1, 85857, Note_on_c, 0, 81, 60
1, 85865, Control_c, 0, 64, 46
1, 85880, Control_c, 0, 64, 46
1, 85895, Control_c, 0, 64, 48
1, 85910, Control_c, 0, 64, 49
1, 85914, Note_off_c, 0, 82, 0
1, 85924, Control_c, 0, 64, 50
1, 85939, Control_c, 0, 64, 52
1, 85939, Control_c, 0, 67, 85
1, 85954, Control_c, 0, 64, 55
1, 85967, Note_off_c, 0, 81, 59
1, 85969, Control_c, 0, 64, 57
1, 85974, Poly_aftertouch_c, 0, 82, 0
1, 85983, Control_c, 0, 64, 58
1, 85990, Note_on_c, 0, 80, 58
1, 85998, Control_c, 0, 64, 59
1, 86013, Control_c, 0, 64, 60
1, 86028, Control_c, 0, 64, 61
1, 86028, Control_c, 0, 67, 84
1, 86043, Control_c, 0, 64, 61
1, 86058, Control_c, 0, 64, 62
1, 86087, Note_off_c, 0, 62, 59
1, 86132, Control_c, 0, 64, 62
1, 86132, Control_c, 0, 67, 84
1, 86132, Note_on_c, 0, 81, 63
1, 86143, Note_off_c, 0, 80, 53
1, 86207, Note_off_c, 0, 81, 61
1, 86250, Control_c, 0, 64, 62
1, 86263, Note_on_c, 0, 76, 59
1, 86265, Control_c, 0, 67, 84
1, 86280, Control_c, 0, 64, 61
1, 86294, Control_c, 0, 64, 60
1, 86309, Control_c, 0, 64, 60
1, 86324, Control_c, 0, 64, 59
1, 86324, Control_c, 0, 67, 85
1, 86339, Control_c, 0, 64, 57
1, 86354, Control_c, 0, 64, 54
1, 86369, Control_c, 0, 64, 50
1, 86391, Control_c, 0, 64, 46
1, 86406, Control_c, 0, 64, 43
1, 86406, Control_c, 0, 67, 84
1, 86413, Note_on_c, 0, 69, 55
1, 86419, Note_on_c, 0, 61, 46
1, 86420, Note_on_c, 0, 81, 58
1, 86421, Control_c, 0, 64, 41
1, 86427, Note_off_c, 0, 76, 35
1, 86465, Control_c, 0, 64, 42
1, 86480, Control_c, 0, 64, 45
1, 86495, Control_c, 0, 64, 48
1, 86509, Control_c, 0, 64, 51
1, 86524, Control_c, 0, 64, 52
1, 86550, Note_on_c, 0, 79, 64
1, 86555, Control_c, 0, 67, 84
1, 86585, Control_c, 0, 64, 52
1, 86599, Control_c, 0, 64, 50
1, 86614, Control_c, 0, 64, 46
1, 86629, Control_c, 0, 64, 42
1, 86629, Control_c, 0, 67, 84
1, 86644, Control_c, 0, 64, 39
1, 86659, Control_c, 0, 64, 35
1, 86660, Note_off_c, 0, 81, 24
1, 86673, Note_off_c, 0, 79, 60
1, 86673, Control_c, 0, 64, 33
1, 86673, Control_c, 0, 67, 84
1, 86688, Control_c, 0, 64, 32
1, 86697, Note_on_c, 0, 77, 63
1, 86698, Note_off_c, 0, 61, 60
1, 86707, Note_on_c, 0, 62, 40
1, 86718, Control_c, 0, 64, 35
1, 86718, Control_c, 0, 67, 83
1, 86733, Control_c, 0, 64, 39
1, 86733, Control_c, 0, 67, 83
1, 86747, Control_c, 0, 64, 43
1, 86747, Control_c, 0, 67, 82
1, 86762, Control_c, 0, 64, 45
1, 86762, Control_c, 0, 67, 82
1, 86777, Control_c, 0, 64, 45
1, 86777, Control_c, 0, 67, 81
1, 86791, Control_c, 0, 64, 46
1, 86806, Control_c, 0, 64, 47
1, 86821, Control_c, 0, 64, 49
1, 86821, Control_c, 0, 67, 80
1, 86830, Note_off_c, 0, 77, 61
1, 86834, Note_on_c, 0, 81, 65
1, 86836, Control_c, 0, 64, 51
1, 86851, Control_c, 0, 64, 52
1, 86851, Control_c, 0, 67, 80
1, 86880, Control_c, 0, 64, 52
1, 86925, Control_c, 0, 64, 53
1, 86940, Control_c, 0, 67, 80
1, 86968, Note_on_c, 0, 79, 69
1, 87014, Control_c, 0, 64, 53
1, 87014, Control_c, 0, 67, 81
1, 87024, Note_off_c, 0, 69, 44
1, 87029, Control_c, 0, 67, 81
1, 87086, Note_off_c, 0, 81, 31
1, 87086, Note_off_c, 0, 79, 60
1, 87088, Control_c, 0, 64, 54
1, 87101, Note_on_c, 0, 78, 65
1, 87103, Control_c, 0, 64, 55
1, 87118, Control_c, 0, 64, 55
1, 87140, Control_c, 0, 64, 56
1, 87166, Note_off_c, 0, 62, 43
1, 87169, Control_c, 0, 64, 57
1, 87199, Control_c, 0, 67, 82
1, 87214, Control_c, 0, 64, 55
1, 87229, Control_c, 0, 64, 51
1, 87229, Control_c, 0, 67, 82
1, 87244, Control_c, 0, 64, 47
1, 87244, Note_on_c, 0, 79, 63
1, 87259, Control_c, 0, 64, 46
1, 87273, Control_c, 0, 64, 48
1, 87288, Control_c, 0, 64, 50
1, 87302, Note_off_c, 0, 78, 33
1, 87302, Control_c, 0, 64, 53
1, 87317, Control_c, 0, 64, 55
1, 87331, Control_c, 0, 64, 55
1, 87333, Note_off_c, 0, 79, 63
1, 87347, Control_c, 0, 64, 56
1, 87362, Control_c, 0, 64, 56
1, 87392, Note_on_c, 0, 74, 57
1, 87392, Control_c, 0, 67, 83
1, 87421, Control_c, 0, 67, 83
1, 87436, Control_c, 0, 64, 56
1, 87451, Control_c, 0, 64, 54
1, 87466, Control_c, 0, 64, 49
1, 87481, Control_c, 0, 64, 45
1, 87495, Control_c, 0, 64, 42
1, 87513, Note_off_c, 0, 74, 54
1, 87525, Control_c, 0, 64, 43
1, 87533, Note_on_c, 0, 79, 63
1, 87539, Control_c, 0, 64, 45
1, 87543, Note_on_c, 0, 67, 48
1, 87544, Note_on_c, 0, 59, 46
1, 87554, Control_c, 0, 64, 47
1, 87554, Control_c, 0, 67, 83
1, 87569, Control_c, 0, 64, 49
1, 87584, Control_c, 0, 64, 51
1, 87599, Control_c, 0, 64, 53
1, 87614, Control_c, 0, 64, 55
1, 87628, Control_c, 0, 64, 55
1, 87643, Control_c, 0, 64, 56
1, 87673, Control_c, 0, 64, 56
1, 87679, Note_off_c, 0, 79, 63
1, 87682, Note_on_c, 0, 77, 57
1, 87688, Control_c, 0, 67, 83
1, 87718, Control_c, 0, 67, 84
1, 87747, Control_c, 0, 64, 55
1, 87762, Control_c, 0, 64, 51
1, 87777, Control_c, 0, 64, 41
1, 87792, Control_c, 0, 64, 33
1, 87807, Control_c, 0, 64, 28
1, 87815, Note_off_c, 0, 59, 60
1, 87825, Note_on_c, 0, 60, 51
1, 87836, Control_c, 0, 64, 32
1, 87851, Control_c, 0, 64, 39
1, 87873, Control_c, 0, 64, 46
1, 87888, Control_c, 0, 64, 50
1, 87903, Control_c, 0, 64, 53
1, 87918, Control_c, 0, 64, 55
1, 87918, Control_c, 0, 67, 83
1, 87932, Control_c, 0, 64, 56
1, 87947, Control_c, 0, 64, 57
1, 87962, Control_c, 0, 64, 58
1, 87966, Note_off_c, 0, 77, 60
1, 87972, Note_on_c, 0, 75, 60
1, 87977, Control_c, 0, 64, 59
1, 87992, Control_c, 0, 64, 60
1, 88007, Control_c, 0, 64, 61
1, 88021, Control_c, 0, 64, 62
1, 88036, Control_c, 0, 64, 63
1, 88066, Control_c, 0, 64, 63
1, 88111, Note_off_c, 0, 75, 61
1, 88112, Note_on_c, 0, 77, 61
1, 88120, Note_off_c, 0, 67, 41
1, 88140, Control_c, 0, 67, 83
1, 88151, Note_off_c, 0, 60, 57
1, 88156, Control_c, 0, 67, 83
1, 88254, Note_on_c, 0, 76, 58
1, 88257, Note_off_c, 0, 77, 60
1, 88259, Control_c, 0, 67, 84
1, 88289, Control_c, 0, 64, 63
1, 88318, Control_c, 0, 64, 62
1, 88318, Control_c, 0, 67, 84
1, 88333, Control_c, 0, 64, 62
1, 88333, Control_c, 0, 67, 85
1, 88348, Control_c, 0, 64, 61
1, 88348, Control_c, 0, 67, 85
1, 88362, Control_c, 0, 64, 59
1, 88377, Control_c, 0, 64, 55
1, 88392, Control_c, 0, 64, 50
1, 88407, Note_on_c, 0, 65, 55
1, 88407, Control_c, 0, 64, 46
1, 88407, Control_c, 0, 67, 86
1, 88420, Note_on_c, 0, 53, 43
1, 88422, Control_c, 0, 64, 45
1, 88436, Control_c, 0, 67, 86
1, 88451, Control_c, 0, 64, 46
1, 88466, Control_c, 0, 64, 50
1, 88481, Control_c, 0, 64, 53
1, 88496, Control_c, 0, 64, 56
1, 88502, Note_off_c, 0, 76, 47
1, 88511, Control_c, 0, 64, 57
1, 88526, Control_c, 0, 64, 58
1, 88526, Control_c, 0, 67, 87
1, 88540, Note_on_c, 0, 69, 55
1, 88541, Control_c, 0, 64, 59
1, 88555, Control_c, 0, 64, 60
1, 88570, Control_c, 0, 64, 61
1, 88585, Control_c, 0, 64, 61
1, 88600, Control_c, 0, 64, 62
1, 88622, Control_c, 0, 64, 62
1, 88637, Control_c, 0, 67, 87
1, 88651, Control_c, 0, 64, 63
1, 88672, Note_off_c, 0, 69, 53
1, 88675, Note_off_c, 0, 53, 56
1, 88681, Control_c, 0, 67, 88
1, 88693, Note_on_c, 0, 76, 56
1, 88725, Control_c, 0, 67, 88
1, 88740, Control_c, 0, 67, 89
1, 88755, Control_c, 0, 67, 89
1, 88799, Control_c, 0, 67, 90
1, 88814, Control_c, 0, 67, 90
1, 88823, Note_on_c, 0, 74, 58
1, 88824, Note_off_c, 0, 76, 57
1, 88902, Control_c, 0, 64, 62
1, 88902, Control_c, 0, 67, 91
1, 88917, Control_c, 0, 64, 62
1, 88932, Control_c, 0, 64, 61
1, 88948, Control_c, 0, 64, 61
1, 88963, Control_c, 0, 64, 59
1, 88974, Note_on_c, 0, 64, 54
1, 88978, Control_c, 0, 64, 55
1, 88978, Control_c, 0, 67, 92
1, 88992, Control_c, 0, 64, 51
1, 88997, Note_on_c, 0, 55, 43
1, 89005, Note_off_c, 0, 65, 35
1, 89007, Control_c, 0, 64, 46
1, 89022, Control_c, 0, 64, 44
1, 89037, Control_c, 0, 64, 45
1, 89037, Control_c, 0, 67, 91
1, 89052, Control_c, 0, 64, 46
1, 89063, Note_off_c, 0, 74, 45
1, 89066, Control_c, 0, 64, 49
1, 89081, Control_c, 0, 64, 52
1, 89081, Control_c, 0, 67, 91
1, 89096, Control_c, 0, 64, 55
1, 89111, Control_c, 0, 64, 57
1, 89111, Control_c, 0, 67, 90
1, 89122, Note_on_c, 0, 67, 53
1, 89126, Control_c, 0, 64, 58
1, 89126, Control_c, 0, 67, 90
1, 89140, Control_c, 0, 64, 58
1, 89155, Control_c, 0, 64, 59
1, 89170, Control_c, 0, 64, 59
1, 89184, Control_c, 0, 64, 60
1, 89184, Control_c, 0, 67, 89
1, 89199, Control_c, 0, 64, 60
1, 89199, Control_c, 0, 67, 88
1, 89214, Control_c, 0, 64, 61
1, 89259, Control_c, 0, 64, 61
1, 89269, Note_on_c, 0, 74, 52
1, 89282, Note_off_c, 0, 67, 32
1, 89333, Control_c, 0, 67, 89
1, 89411, Note_on_c, 0, 72, 55
1, 89423, Note_off_c, 0, 74, 59
1, 89444, Control_c, 0, 67, 89
1, 89474, Control_c, 0, 64, 61
1, 89489, Control_c, 0, 64, 60
1, 89503, Control_c, 0, 64, 60
1, 89518, Control_c, 0, 64, 58
1, 89533, Control_c, 0, 64, 53
1, 89548, Control_c, 0, 64, 46
1, 89548, Control_c, 0, 67, 90
1, 89550, Note_on_c, 0, 62, 56
1, 89563, Control_c, 0, 64, 39
1, 89578, Control_c, 0, 64, 36
1, 89593, Note_off_c, 0, 64, 33
1, 89607, Control_c, 0, 64, 39
1, 89622, Control_c, 0, 64, 44
1, 89637, Control_c, 0, 64, 49
1, 89652, Control_c, 0, 64, 54
1, 89659, Note_off_c, 0, 72, 35
1, 89666, Control_c, 0, 64, 56
1, 89666, Control_c, 0, 67, 89
1, 89681, Control_c, 0, 64, 57
1, 89690, Note_on_c, 0, 65, 56
1, 89696, Control_c, 0, 64, 58
1, 89710, Control_c, 0, 64, 59
1, 89725, Control_c, 0, 64, 60
1, 89741, Control_c, 0, 64, 60
1, 89741, Control_c, 0, 67, 90
1, 89756, Control_c, 0, 64, 61
1, 89756, Control_c, 0, 67, 90
1, 89771, Control_c, 0, 64, 61
1, 89771, Control_c, 0, 67, 91
1, 89786, Control_c, 0, 67, 91
1, 89815, Control_c, 0, 64, 62
1, 89828, Note_off_c, 0, 65, 35
1, 89837, Note_off_c, 0, 55, 41
1, 89838, Note_on_c, 0, 72, 47
1, 89845, Control_c, 0, 64, 62
1, 89860, Control_c, 0, 64, 63
1, 89860, Control_c, 0, 67, 92
1, 89875, Control_c, 0, 67, 93
1, 89889, Control_c, 0, 64, 63
1, 89889, Control_c, 0, 67, 93
1, 89904, Control_c, 0, 67, 94
1, 89906, Note_off_c, 0, 62, 47
1, 89912, Note_off_c, 0, 72, 46
1, 89919, Control_c, 0, 64, 64
1, 89919, Control_c, 0, 67, 94
1, 89948, Control_c, 0, 64, 64
1, 89948, Control_c, 0, 67, 95
1, 89963, Control_c, 0, 67, 96
1, 89978, Control_c, 0, 67, 97
1, 89982, Note_on_c, 0, 71, 42
1, 90044, Note_off_c, 0, 71, 62
1, 90052, Control_c, 0, 67, 97
1, 90067, Control_c, 0, 67, 98
1, 90082, Control_c, 0, 67, 99
1, 90097, Control_c, 0, 67, 100
1, 90119, Control_c, 0, 64, 64
1, 90134, Control_c, 0, 64, 62
1, 90134, Control_c, 0, 67, 99
1, 90148, Control_c, 0, 64, 60
1, 90148, Control_c, 0, 67, 98
1, 90163, Control_c, 0, 64, 56
1, 90163, Control_c, 0, 67, 99
1, 90165, Note_on_c, 0, 66, 57
1, 90169, Note_on_c, 0, 60, 45
1, 90178, Control_c, 0, 64, 49
1, 90178, Control_c, 0, 67, 99
1, 90180, Note_on_c, 0, 57, 36
1, 90193, Control_c, 0, 64, 41
1, 90208, Control_c, 0, 64, 31
1, 90222, Control_c, 0, 64, 12
1, 90222, Control_c, 0, 67, 99
1, 90237, Control_c, 0, 64, 0
1, 90237, Control_c, 0, 67, 98
1, 90245, Note_on_c, 0, 72, 58
1, 90252, Control_c, 0, 67, 97
1, 90319, Note_off_c, 0, 72, 62
1, 90329, Note_on_c, 0, 74, 60
1, 90371, Control_c, 0, 64, 17
1, 90371, Control_c, 0, 67, 96
1, 90386, Control_c, 0, 64, 21
1, 90401, Note_off_c, 0, 74, 65
1, 90401, Control_c, 0, 67, 97
1, 90407, Note_on_c, 0, 76, 62
1, 90416, Control_c, 0, 64, 22
1, 90430, Control_c, 0, 64, 26
1, 90445, Control_c, 0, 64, 32
1, 90460, Control_c, 0, 64, 34
1, 90460, Control_c, 0, 67, 96
1, 90467, Note_off_c, 0, 76, 64
1, 90475, Control_c, 0, 64, 33
1, 90475, Control_c, 0, 67, 95
1, 90487, Note_on_c, 0, 78, 69
1, 90490, Control_c, 0, 67, 95
1, 90505, Control_c, 0, 64, 33
1, 90520, Control_c, 0, 64, 36
1, 90521, Note_off_c, 0, 78, 63
1, 90535, Control_c, 0, 64, 40
1, 90535, Control_c, 0, 67, 94
1, 90565, Control_c, 0, 64, 40
1, 90570, Note_on_c, 0, 79, 69
1, 90580, Control_c, 0, 64, 42
1, 90580, Control_c, 0, 67, 95
1, 90594, Control_c, 0, 64, 45
1, 90609, Control_c, 0, 64, 47
1, 90644, Note_off_c, 0, 79, 64
1, 90654, Control_c, 0, 64, 47
1, 90658, Note_on_c, 0, 81, 65
1, 90669, Control_c, 0, 64, 49
1, 90682, Note_off_c, 0, 66, 62
1, 90684, Control_c, 0, 64, 50
1, 90685, Note_off_c, 0, 57, 52
1, 90686, Note_off_c, 0, 60, 58
1, 90713, Control_c, 0, 67, 94
1, 90723, Note_off_c, 0, 81, 62
1, 90728, Control_c, 0, 64, 50
1, 90736, Note_on_c, 0, 83, 68
1, 90743, Control_c, 0, 64, 52
1, 90758, Control_c, 0, 64, 52
1, 90758, Control_c, 0, 67, 95
1, 90777, Note_off_c, 0, 83, 63
1, 90787, Control_c, 0, 64, 51
1, 90802, Control_c, 0, 64, 50
1, 90817, Control_c, 0, 64, 48
1, 90817, Control_c, 0, 67, 95
1, 90824, Note_on_c, 0, 84, 60
1, 90832, Control_c, 0, 64, 40
1, 90846, Control_c, 0, 64, 32
1, 90869, Control_c, 0, 64, 27
1, 90884, Control_c, 0, 64, 26
1, 90896, Note_on_c, 0, 66, 62
1, 90898, Control_c, 0, 64, 29
1, 90899, Note_off_c, 0, 84, 53
1, 90908, Note_on_c, 0, 57, 39
1, 90908, Note_on_c, 0, 60, 51
1, 90913, Control_c, 0, 64, 37
1, 90922, Note_on_c, 0, 86, 65
1, 90928, Control_c, 0, 64, 43
1, 90943, Control_c, 0, 64, 45
1, 90958, Control_c, 0, 64, 47
1, 90961, Note_off_c, 0, 57, 49
1, 90972, Control_c, 0, 64, 51
1, 90972, Control_c, 0, 67, 95
1, 90979, Note_off_c, 0, 60, 45
1, 90987, Control_c, 0, 64, 53
1, 90994, Note_off_c, 0, 66, 57
1, 91000, Note_on_c, 0, 88, 70
1, 91005, Note_off_c, 0, 86, 59
1, 91017, Control_c, 0, 64, 52
1, 91032, Control_c, 0, 64, 51
1, 91032, Control_c, 0, 67, 94
1, 91059, Note_off_c, 0, 88, 65
1, 91061, Control_c, 0, 67, 94
1, 91076, Control_c, 0, 64, 50
1, 91091, Control_c, 0, 64, 48
1, 91091, Control_c, 0, 67, 93
1, 91092, Note_on_c, 0, 84, 62
1, 91106, Control_c, 0, 64, 46
1, 91106, Control_c, 0, 67, 93
1, 91120, Control_c, 0, 67, 92
1, 91135, Control_c, 0, 64, 47
1, 91135, Control_c, 0, 67, 91
1, 91137, Note_off_c, 0, 84, 61
1, 91150, Control_c, 0, 64, 46
1, 91164, Control_c, 0, 64, 45
1, 91179, Note_on_c, 0, 67, 70
1, 91190, Note_on_c, 0, 60, 61
1, 91194, Control_c, 0, 64, 46
1, 91198, Note_on_c, 0, 55, 49
1, 91209, Control_c, 0, 64, 48
1, 91209, Control_c, 0, 67, 91
1, 91224, Control_c, 0, 64, 47
1, 91224, Control_c, 0, 67, 90
1, 91253, Control_c, 0, 67, 90
1, 91268, Control_c, 0, 64, 48
1, 91271, Note_on_c, 0, 88, 64
1, 91283, Control_c, 0, 64, 49
1, 91283, Control_c, 0, 67, 89
1, 91313, Control_c, 0, 64, 48
1, 91313, Control_c, 0, 67, 89
1, 91328, Control_c, 0, 64, 49
1, 91328, Control_c, 0, 67, 88
1, 91343, Control_c, 0, 64, 49
1, 91349, Note_on_c, 0, 86, 71
1, 91358, Control_c, 0, 64, 50
1, 91361, Note_off_c, 0, 88, 63
1, 91387, Control_c, 0, 64, 49
1, 91417, Control_c, 0, 64, 49
1, 91432, Note_on_c, 0, 84, 74
1, 91432, Control_c, 0, 64, 50
1, 91432, Control_c, 0, 67, 88
1, 91461, Note_off_c, 0, 86, 59
1, 91492, Control_c, 0, 64, 51
1, 91507, Control_c, 0, 64, 54
1, 91515, Note_on_c, 0, 83, 74
1, 91516, Note_off_c, 0, 84, 64
1, 91521, Control_c, 0, 64, 55
1, 91536, Control_c, 0, 67, 87
1, 91551, Control_c, 0, 64, 55
1, 91551, Control_c, 0, 67, 87
1, 91566, Control_c, 0, 64, 56
1, 91572, Note_off_c, 0, 83, 65
1, 91581, Control_c, 0, 64, 57
1, 91581, Control_c, 0, 67, 86
1, 91592, Note_on_c, 0, 81, 70
1, 91662, Control_c, 0, 64, 58
1, 91680, Note_off_c, 0, 60, 61
1, 91685, Note_on_c, 0, 79, 75
1, 91689, Note_off_c, 0, 67, 49
1, 91706, Control_c, 0, 67, 86
1, 91726, Note_off_c, 0, 81, 29
1, 91727, Note_off_c, 0, 55, 50
1, 91736, Control_c, 0, 64, 58
1, 91751, Control_c, 0, 64, 59
1, 91751, Control_c, 0, 67, 85
1, 91757, Note_off_c, 0, 79, 61
1, 91771, Note_on_c, 0, 77, 70
1, 91781, Control_c, 0, 67, 85
1, 91795, Control_c, 0, 67, 84
1, 91810, Control_c, 0, 67, 83
1, 91826, Note_off_c, 0, 77, 66
1, 91848, Note_on_c, 0, 76, 69
1, 91855, Control_c, 0, 64, 57
1, 91869, Control_c, 0, 64, 53
1, 91869, Control_c, 0, 67, 82
1, 91884, Control_c, 0, 64, 50
1, 91899, Control_c, 0, 64, 48
1, 91899, Control_c, 0, 67, 82
1, 91913, Control_c, 0, 64, 48
1, 91928, Control_c, 0, 64, 49
1, 91937, Note_on_c, 0, 60, 63
1, 91940, Note_on_c, 0, 64, 62
1, 91940, Note_on_c, 0, 74, 67
1, 91941, Note_off_c, 0, 76, 63
1, 91943, Control_c, 0, 64, 51
1, 91944, Note_on_c, 0, 55, 53
1, 91958, Control_c, 0, 64, 53
1, 91973, Control_c, 0, 64, 56
1, 91975, Note_off_c, 0, 55, 65
1, 91987, Control_c, 0, 64, 58
1, 91987, Control_c, 0, 67, 81
1, 91989, Note_off_c, 0, 64, 63
1, 91991, Note_off_c, 0, 60, 61
1, 92002, Control_c, 0, 64, 59
1, 92002, Control_c, 0, 67, 80
1, 92017, Control_c, 0, 64, 59
1, 92024, Note_off_c, 0, 74, 58
1, 92031, Note_on_c, 0, 76, 74
1, 92032, Control_c, 0, 67, 80
1, 92061, Control_c, 0, 67, 79
1, 92076, Control_c, 0, 67, 79
1, 92091, Control_c, 0, 67, 78
1, 92101, Note_off_c, 0, 76, 61
1, 92106, Control_c, 0, 64, 59
1, 92106, Control_c, 0, 67, 78
1, 92121, Control_c, 0, 64, 58
1, 92131, Note_on_c, 0, 72, 63
1, 92137, Control_c, 0, 64, 56
1, 92137, Control_c, 0, 67, 77
1, 92152, Control_c, 0, 64, 52
1, 92166, Control_c, 0, 64, 47
1, 92166, Control_c, 0, 67, 77
1, 92170, Note_off_c, 0, 72, 60
1, 92181, Control_c, 0, 64, 44
1, 92196, Control_c, 0, 64, 43
1, 92204, Note_on_c, 0, 64, 70
1, 92207, Note_on_c, 0, 60, 69
1, 92210, Control_c, 0, 64, 43
1, 92210, Control_c, 0, 67, 76
1, 92212, Note_on_c, 0, 57, 52
1, 92219, Note_on_c, 0, 54, 49
1, 92225, Control_c, 0, 64, 42
1, 92225, Control_c, 0, 67, 75
1, 92255, Control_c, 0, 64, 43
1, 92255, Control_c, 0, 67, 75
1, 92270, Control_c, 0, 64, 46
1, 92270, Control_c, 0, 67, 74
1, 92285, Control_c, 0, 64, 47
1, 92285, Control_c, 0, 67, 74
1, 92300, Control_c, 0, 64, 46
1, 92300, Control_c, 0, 67, 73
1, 92305, Note_on_c, 0, 72, 68
1, 92314, Control_c, 0, 67, 72
1, 92329, Control_c, 0, 64, 47
1, 92329, Control_c, 0, 67, 71
1, 92344, Control_c, 0, 64, 50
1, 92344, Control_c, 0, 67, 69
1, 92366, Control_c, 0, 64, 50
1, 92366, Control_c, 0, 67, 67
1, 92381, Control_c, 0, 67, 67
1, 92393, Note_on_c, 0, 74, 68
1, 92395, Note_off_c, 0, 72, 61
1, 92410, Control_c, 0, 64, 51
1, 92425, Control_c, 0, 64, 52
1, 92425, Control_c, 0, 67, 66
1, 92440, Control_c, 0, 64, 53
1, 92475, Note_off_c, 0, 74, 64
1, 92484, Note_on_c, 0, 76, 72
1, 92485, Control_c, 0, 64, 54
1, 92499, Control_c, 0, 64, 56
1, 92499, Control_c, 0, 67, 66
1, 92514, Control_c, 0, 67, 65
1, 92529, Control_c, 0, 67, 64
1, 92543, Control_c, 0, 67, 63
1, 92556, Note_off_c, 0, 76, 64
1, 92558, Control_c, 0, 67, 62
1, 92567, Note_on_c, 0, 78, 75
1, 92573, Control_c, 0, 67, 61
1, 92588, Control_c, 0, 67, 59
1, 92603, Control_c, 0, 67, 55
1, 92607, Note_off_c, 0, 78, 59
1, 92617, Control_c, 0, 67, 49
1, 92632, Control_c, 0, 67, 43
1, 92641, Note_on_c, 0, 79, 79
1, 92647, Control_c, 0, 64, 57
1, 92647, Control_c, 0, 67, 39
1, 92662, Control_c, 0, 64, 59
1, 92662, Control_c, 0, 67, 38
1, 92677, Control_c, 0, 67, 35
1, 92691, Control_c, 0, 67, 29
1, 92706, Control_c, 0, 64, 59
1, 92706, Control_c, 0, 67, 24
1, 92721, Control_c, 0, 64, 60
1, 92721, Control_c, 0, 67, 20
1, 92725, Note_off_c, 0, 79, 62
1, 92735, Control_c, 0, 64, 60
1, 92736, Note_on_c, 0, 81, 74
1, 92750, Control_c, 0, 67, 19
1, 92753, Note_off_c, 0, 64, 60
1, 92765, Note_off_c, 0, 57, 58
1, 92765, Note_off_c, 0, 60, 60
1, 92765, Control_c, 0, 67, 19
1, 92771, Note_off_c, 0, 54, 55
1, 92780, Control_c, 0, 67, 17
1, 92795, Control_c, 0, 64, 61
1, 92795, Control_c, 0, 67, 14
1, 92809, Note_off_c, 0, 81, 62
1, 92814, Note_on_c, 0, 83, 80
1, 92839, Control_c, 0, 67, 14
1, 92854, Control_c, 0, 67, 13
1, 92866, Note_off_c, 0, 83, 65
1, 92869, Control_c, 0, 64, 59
1, 92884, Control_c, 0, 64, 55
1, 92892, Note_on_c, 0, 84, 77
1, 92899, Control_c, 0, 64, 48
1, 92899, Control_c, 0, 67, 13
1, 92914, Control_c, 0, 64, 42
1, 92914, Control_c, 0, 67, 12
1, 92928, Control_c, 0, 64, 40
1, 92928, Control_c, 0, 67, 9
1, 92944, Control_c, 0, 64, 41
1, 92944, Control_c, 0, 67, 0
1, 92958, Control_c, 0, 64, 44
1, 92970, Note_on_c, 0, 60, 61
1, 92971, Note_on_c, 0, 57, 56
1, 92973, Control_c, 0, 64, 50
1, 92976, Note_on_c, 0, 64, 58
1, 92982, Note_on_c, 0, 54, 47
1, 92983, Note_off_c, 0, 84, 63
1, 92985, Note_on_c, 0, 86, 78
1, 92988, Control_c, 0, 64, 51
1, 93018, Control_c, 0, 64, 52
1, 93033, Control_c, 0, 64, 54
1, 93042, Note_off_c, 0, 57, 54
1, 93048, Control_c, 0, 64, 56
1, 93057, Note_off_c, 0, 64, 62
1, 93059, Note_off_c, 0, 60, 59
1, 93060, Note_off_c, 0, 54, 56
1, 93063, Note_off_c, 0, 86, 62
1, 93068, Note_on_c, 0, 88, 79
1, 93078, Control_c, 0, 64, 55
1, 93134, Note_off_c, 0, 88, 66
1, 93162, Note_on_c, 0, 84, 78
1, 93173, Control_c, 0, 64, 54
1, 93188, Control_c, 0, 64, 51
1, 93203, Control_c, 0, 64, 48
1, 93209, Note_off_c, 0, 84, 63
1, 93218, Control_c, 0, 64, 44
1, 93233, Control_c, 0, 64, 40
1, 93247, Control_c, 0, 64, 40
1, 93256, Note_on_c, 0, 55, 63
1, 93257, Note_on_c, 0, 60, 72
1, 93259, Note_on_c, 0, 64, 75
1, 93262, Control_c, 0, 64, 40
1, 93277, Control_c, 0, 64, 41
1, 93307, Control_c, 0, 64, 42
1, 93322, Control_c, 0, 64, 45
1, 93337, Note_on_c, 0, 88, 75
1, 93337, Control_c, 0, 64, 47
1, 93366, Control_c, 0, 64, 46
1, 93396, Control_c, 0, 64, 48
1, 93411, Control_c, 0, 64, 49
1, 93416, Note_on_c, 0, 86, 78
1, 93426, Control_c, 0, 64, 48
1, 93438, Note_off_c, 0, 88, 58
1, 93440, Control_c, 0, 64, 48
1, 93455, Control_c, 0, 64, 47
1, 93470, Control_c, 0, 64, 48
1, 93485, Control_c, 0, 64, 50
1, 93496, Note_on_c, 0, 84, 77
1, 93536, Note_off_c, 0, 86, 62
1, 93544, Control_c, 0, 64, 53
1, 93558, Control_c, 0, 64, 59
1, 93573, Control_c, 0, 64, 60
1, 93578, Note_on_c, 0, 83, 77
1, 93583, Note_off_c, 0, 84, 65
1, 93641, Note_off_c, 0, 83, 66
1, 93647, Control_c, 0, 64, 61
1, 93652, Note_on_c, 0, 81, 76
1, 93706, Control_c, 0, 64, 62
1, 93721, Control_c, 0, 64, 64
1, 93735, Note_on_c, 0, 79, 80
1, 93737, Control_c, 0, 64, 64
1, 93741, Note_off_c, 0, 81, 38
1, 93752, Control_c, 0, 64, 65
1, 93771, Note_off_c, 0, 64, 59
1, 93778, Note_off_c, 0, 60, 62
1, 93809, Note_off_c, 0, 79, 63
1, 93817, Note_on_c, 0, 77, 77
1, 93827, Note_off_c, 0, 55, 33
1, 93841, Control_c, 0, 64, 65
1, 93878, Control_c, 0, 64, 65
1, 93880, Note_off_c, 0, 77, 66
1, 93893, Control_c, 0, 64, 61
1, 93897, Note_on_c, 0, 76, 76
1, 93908, Control_c, 0, 64, 55
1, 93923, Control_c, 0, 64, 49
1, 93937, Control_c, 0, 64, 48
1, 93952, Control_c, 0, 64, 50
1, 93967, Control_c, 0, 64, 56
1, 93981, Note_on_c, 0, 60, 85
1, 93981, Control_c, 0, 64, 60
1, 93983, Note_on_c, 0, 64, 81
1, 93985, Note_on_c, 0, 55, 70
1, 93989, Note_on_c, 0, 74, 75
1, 93996, Note_off_c, 0, 76, 64
1, 93996, Control_c, 0, 64, 63
1, 94008, Note_off_c, 0, 55, 67
1, 94011, Control_c, 0, 64, 65
1, 94017, Note_off_c, 0, 60, 63
1, 94026, Control_c, 0, 64, 69
1, 94033, Note_off_c, 0, 64, 63
1, 94042, Control_c, 0, 64, 72
1, 94056, Control_c, 0, 64, 74
1, 94069, Note_off_c, 0, 74, 60
1, 94071, Control_c, 0, 64, 75
1, 94083, Note_on_c, 0, 76, 83
1, 94101, Control_c, 0, 64, 75
1, 94130, Control_c, 0, 64, 75
1, 94138, Note_off_c, 0, 76, 63
1, 94145, Control_c, 0, 64, 72
1, 94160, Control_c, 0, 64, 66
1, 94166, Note_on_c, 0, 72, 76
1, 94175, Control_c, 0, 64, 54
1, 94189, Control_c, 0, 64, 23
1, 94204, Control_c, 0, 64, 0
1, 94221, Note_off_c, 0, 72, 62
1, 94264, Note_on_c, 0, 66, 87
1, 94264, Note_on_c, 0, 63, 85
1, 94270, Note_on_c, 0, 56, 72
1, 94273, Note_on_c, 0, 60, 74
1, 94353, Control_c, 0, 64, 56
1, 94368, Note_on_c, 0, 72, 73
1, 94368, Control_c, 0, 64, 64
1, 94449, Note_on_c, 0, 74, 77
1, 94449, Note_off_c, 0, 72, 62
1, 94520, Note_off_c, 0, 74, 65
1, 94526, Note_on_c, 0, 75, 79
1, 94591, Control_c, 0, 64, 64
1, 94598, Note_off_c, 0, 75, 66
1, 94613, Control_c, 0, 64, 65
1, 94618, Note_on_c, 0, 78, 73
1, 94628, Control_c, 0, 64, 65
1, 94643, Control_c, 0, 64, 66
1, 94651, Note_off_c, 0, 78, 64
1, 94657, Control_c, 0, 64, 66
1, 94672, Control_c, 0, 64, 67
1, 94685, Note_on_c, 0, 79, 85
1, 94687, Control_c, 0, 64, 67
1, 94732, Control_c, 0, 64, 68
1, 94746, Control_c, 0, 64, 69
1, 94761, Control_c, 0, 64, 69
1, 94776, Control_c, 0, 64, 70
1, 94779, Note_on_c, 0, 80, 80
1, 94784, Note_off_c, 0, 79, 64
1, 94791, Control_c, 0, 64, 70
1, 94803, Note_off_c, 0, 66, 63
1, 94818, Note_off_c, 0, 63, 60
1, 94836, Note_off_c, 0, 56, 52
1, 94848, Note_off_c, 0, 60, 41
1, 94849, Note_off_c, 0, 80, 63
1, 94853, Note_on_c, 0, 83, 78
1, 94865, Control_c, 0, 64, 72
1, 94880, Control_c, 0, 64, 72
1, 94909, Control_c, 0, 64, 72
1, 94913, Note_off_c, 0, 83, 65
1, 94924, Control_c, 0, 64, 68
1, 94938, Control_c, 0, 64, 62
1, 94940, Note_on_c, 0, 84, 66
1, 94953, Control_c, 0, 64, 46
1, 94968, Control_c, 0, 64, 28
1, 94983, Control_c, 0, 64, 19
1, 94998, Control_c, 0, 64, 21
1, 95012, Control_c, 0, 64, 35
1, 95015, Note_on_c, 0, 66, 79
1, 95024, Note_on_c, 0, 63, 70
1, 95027, Control_c, 0, 64, 53
1, 95028, Note_on_c, 0, 56, 61
1, 95028, Note_on_c, 0, 60, 62
1, 95029, Note_off_c, 0, 84, 65
1, 95034, Note_on_c, 0, 86, 82
1, 95042, Control_c, 0, 64, 63
1, 95055, Note_off_c, 0, 63, 67
1, 95057, Control_c, 0, 64, 66
1, 95070, Note_off_c, 0, 60, 62
1, 95072, Control_c, 0, 64, 68
1, 95076, Note_off_c, 0, 56, 59
1, 95080, Note_off_c, 0, 66, 62
1, 95087, Control_c, 0, 64, 70
1, 95102, Control_c, 0, 64, 71
1, 95106, Note_off_c, 0, 86, 64
1, 95116, Note_on_c, 0, 87, 81
1, 95116, Control_c, 0, 64, 71
1, 95131, Control_c, 0, 64, 72
1, 95182, Note_off_c, 0, 87, 66
1, 95200, Note_on_c, 0, 84, 75
1, 95206, Note_on_c, 0, 55, 77
1, 95241, Note_on_c, 0, 60, 58
1, 95250, Control_c, 0, 64, 70
1, 95251, Note_off_c, 0, 84, 64
1, 95265, Control_c, 0, 64, 68
1, 95279, Control_c, 0, 64, 63
1, 95285, Note_on_c, 0, 64, 76
1, 95294, Control_c, 0, 64, 52
1, 95309, Control_c, 0, 64, 29
1, 95325, Control_c, 0, 64, 0
1, 95340, Note_on_c, 0, 88, 70
1, 95348, Note_on_c, 0, 67, 86
1, 95376, Control_c, 0, 64, 17
1, 95391, Control_c, 0, 64, 33
1, 95406, Control_c, 0, 64, 38
1, 95414, Note_on_c, 0, 86, 80
1, 95421, Control_c, 0, 64, 37
1, 95435, Note_off_c, 0, 88, 66
1, 95435, Control_c, 0, 64, 35
1, 95465, Control_c, 0, 64, 39
1, 95466, Note_on_c, 0, 84, 78
1, 95480, Control_c, 0, 64, 44
1, 95495, Control_c, 0, 64, 45
1, 95497, Note_off_c, 0, 86, 64
1, 95510, Control_c, 0, 64, 46
1, 95525, Control_c, 0, 64, 49
1, 95535, Note_on_c, 0, 83, 73
1, 95540, Note_off_c, 0, 84, 66
1, 95540, Control_c, 0, 64, 53
1, 95569, Control_c, 0, 64, 48
1, 95581, Note_off_c, 0, 83, 65
1, 95584, Control_c, 0, 64, 44
1, 95584, Note_on_c, 0, 81, 80
1, 95599, Control_c, 0, 64, 43
1, 95614, Control_c, 0, 64, 43
1, 95634, Note_off_c, 0, 81, 62
1, 95643, Control_c, 0, 64, 43
1, 95650, Note_on_c, 0, 79, 80
1, 95658, Control_c, 0, 64, 43
1, 95673, Control_c, 0, 64, 47
1, 95688, Control_c, 0, 64, 53
1, 95703, Control_c, 0, 64, 54
1, 95717, Control_c, 0, 64, 53
1, 95719, Note_off_c, 0, 79, 66
1, 95725, Note_on_c, 0, 77, 79
1, 95754, Note_off_c, 0, 77, 67
1, 95776, Control_c, 0, 64, 52
1, 95780, Note_on_c, 0, 76, 73
1, 95791, Control_c, 0, 64, 51
1, 95821, Control_c, 0, 64, 52
1, 95835, Control_c, 0, 64, 55
1, 95844, Note_off_c, 0, 76, 56
1, 95850, Control_c, 0, 64, 56
1, 95853, Note_on_c, 0, 84, 81
1, 95880, Control_c, 0, 64, 57
1, 95895, Control_c, 0, 64, 58
1, 95901, Note_off_c, 0, 67, 56
1, 95909, Control_c, 0, 64, 59
1, 95918, Note_on_c, 0, 83, 79
1, 95924, Control_c, 0, 64, 58
1, 95925, Note_off_c, 0, 84, 66
1, 95939, Control_c, 0, 64, 55
1, 95954, Control_c, 0, 64, 54
1, 95966, Note_on_c, 0, 81, 78
1, 95969, Control_c, 0, 64, 55
1, 95978, Note_off_c, 0, 64, 57
1, 95984, Control_c, 0, 64, 57
1, 95994, Note_off_c, 0, 83, 65
1, 95999, Control_c, 0, 64, 58
1, 96014, Note_off_c, 0, 55, 52
1, 96016, Note_off_c, 0, 60, 57
1, 96028, Control_c, 0, 64, 58
1, 96029, Note_on_c, 0, 79, 74
1, 96030, Note_off_c, 0, 81, 65
1, 96058, Control_c, 0, 64, 58
1, 96059, Note_off_c, 0, 79, 67
1, 96076, Note_on_c, 0, 77, 65
1, 96087, Control_c, 0, 64, 57
1, 96109, Control_c, 0, 64, 54
1, 96115, Note_off_c, 0, 77, 65
1, 96124, Control_c, 0, 64, 54
1, 96147, Note_on_c, 0, 76, 79
1, 96155, Control_c, 0, 64, 53
1, 96170, Control_c, 0, 64, 47
1, 96184, Control_c, 0, 64, 43
1, 96199, Control_c, 0, 64, 40
1, 96210, Note_off_c, 0, 76, 62
1, 96214, Control_c, 0, 64, 35
1, 96216, Note_on_c, 0, 74, 74
1, 96229, Control_c, 0, 64, 23
1, 96244, Control_c, 0, 64, 0
1, 96255, Note_off_c, 0, 74, 64
1, 96275, Note_on_c, 0, 72, 66
1, 96327, Note_on_c, 0, 55, 79
1, 96329, Note_on_c, 0, 60, 70
1, 96340, Note_off_c, 0, 72, 60
1, 96343, Note_on_c, 0, 76, 69
1, 96377, Control_c, 0, 64, 17
1, 96392, Control_c, 0, 64, 33
1, 96394, Note_off_c, 0, 76, 63
1, 96407, Control_c, 0, 64, 42
1, 96407, Note_on_c, 0, 74, 72
1, 96437, Control_c, 0, 64, 41
1, 96452, Control_c, 0, 64, 42
1, 96466, Note_off_c, 0, 74, 65
1, 96466, Control_c, 0, 64, 46
1, 96477, Note_on_c, 0, 76, 72
1, 96481, Control_c, 0, 64, 52
1, 96496, Control_c, 0, 64, 51
1, 96511, Control_c, 0, 64, 49
1, 96517, Note_off_c, 0, 76, 62
1, 96526, Control_c, 0, 64, 49
1, 96536, Note_on_c, 0, 74, 65
1, 96540, Control_c, 0, 64, 50
1, 96555, Control_c, 0, 64, 54
1, 96570, Control_c, 0, 64, 55
1, 96588, Note_off_c, 0, 74, 65
1, 96601, Note_on_c, 0, 76, 64
1, 96629, Control_c, 0, 64, 56
1, 96644, Control_c, 0, 64, 57
1, 96645, Note_off_c, 0, 76, 65
1, 96655, Note_on_c, 0, 74, 60
1, 96658, Control_c, 0, 64, 58
1, 96708, Note_off_c, 0, 74, 62
1, 96717, Note_on_c, 0, 76, 70
1, 96732, Control_c, 0, 64, 59
1, 96771, Note_off_c, 0, 76, 62
1, 96795, Note_on_c, 0, 74, 64
1, 96836, Control_c, 0, 64, 58
1, 96839, Note_off_c, 0, 74, 65
1, 96845, Note_on_c, 0, 76, 64
1, 96858, Control_c, 0, 64, 56
1, 96873, Control_c, 0, 64, 55
1, 96884, Note_on_c, 0, 59, 73
1, 96888, Control_c, 0, 64, 54
1, 96902, Control_c, 0, 64, 53
1, 96911, Note_off_c, 0, 76, 64
1, 96915, Note_on_c, 0, 74, 60
1, 96917, Control_c, 0, 64, 46
1, 96921, Note_off_c, 0, 60, 60
1, 96934, Control_c, 0, 64, 36
1, 96949, Control_c, 0, 64, 26
1, 96963, Control_c, 0, 64, 20
1, 96968, Note_on_c, 0, 76, 61
1, 96968, Note_off_c, 0, 74, 64
1, 96978, Control_c, 0, 64, 20
1, 96993, Control_c, 0, 64, 23
1, 97007, Control_c, 0, 64, 31
1, 97020, Note_off_c, 0, 76, 63
1, 97022, Control_c, 0, 64, 42
1, 97036, Control_c, 0, 64, 51
1, 97037, Note_on_c, 0, 74, 55
1, 97051, Control_c, 0, 64, 56
1, 97066, Control_c, 0, 64, 58
1, 97076, Note_on_c, 0, 76, 72
1, 97081, Control_c, 0, 64, 59
1, 97082, Note_off_c, 0, 74, 66
1, 97096, Control_c, 0, 64, 59
1, 97111, Control_c, 0, 64, 60
1, 97122, Note_on_c, 0, 77, 16
1, 97140, Note_on_c, 0, 74, 72
1, 97145, Note_off_c, 0, 76, 64
1, 97155, Control_c, 0, 64, 60
1, 97164, Note_off_c, 0, 77, 37
1, 97170, Control_c, 0, 64, 62
1, 97185, Control_c, 0, 64, 63
1, 97200, Control_c, 0, 64, 64
1, 97200, Note_off_c, 0, 74, 66
1, 97213, Note_off_c, 0, 59, 62
1, 97214, Control_c, 0, 64, 64
1, 97229, Control_c, 0, 64, 65
1, 97230, Note_on_c, 0, 72, 72
1, 97244, Control_c, 0, 64, 66
1, 97251, Note_off_c, 0, 55, 63
1, 97259, Control_c, 0, 64, 67
1, 97274, Control_c, 0, 64, 68
1, 97288, Control_c, 0, 64, 69
1, 97303, Control_c, 0, 64, 70
1, 97311, Note_on_c, 0, 74, 74
1, 97318, Control_c, 0, 64, 71
1, 97327, Note_off_c, 0, 72, 38
1, 97332, Control_c, 0, 64, 71
1, 97347, Control_c, 0, 64, 72
1, 97361, Note_off_c, 0, 74, 64
1, 97362, Control_c, 0, 64, 73
1, 97377, Control_c, 0, 64, 73
1, 97392, Control_c, 0, 64, 74
1, 97406, Control_c, 0, 64, 74
1, 97466, Control_c, 0, 64, 71
1, 97480, Control_c, 0, 64, 62
1, 97489, Note_on_c, 0, 60, 82
1, 97493, Note_on_c, 0, 48, 87
1, 97495, Note_on_c, 0, 36, 75
1, 97495, Control_c, 0, 64, 41
1, 97510, Control_c, 0, 64, 0
1, 97555, Control_c, 0, 64, 30
1, 97570, Control_c, 0, 64, 49
1, 97576, Note_off_c, 0, 60, 54
1, 97581, Note_on_c, 0, 64, 76
1, 97585, Control_c, 0, 64, 56
1, 97606, Control_c, 0, 64, 57
1, 97621, Control_c, 0, 64, 57
1, 97636, Control_c, 0, 64, 58
1, 97651, Control_c, 0, 64, 59
1, 97653, Note_off_c, 0, 64, 65
1, 97659, Note_on_c, 0, 67, 73
1, 97666, Control_c, 0, 64, 59
1, 97695, Control_c, 0, 64, 60
1, 97710, Note_off_c, 0, 67, 61
1, 97759, Note_on_c, 0, 72, 77
1, 97838, Note_off_c, 0, 72, 60
1, 97840, Note_on_c, 0, 76, 80
1, 97860, Control_c, 0, 64, 60
1, 97904, Control_c, 0, 64, 58
1, 97919, Control_c, 0, 64, 48
1, 97926, Note_on_c, 0, 79, 78
1, 97932, Note_off_c, 0, 76, 64
1, 97934, Control_c, 0, 64, 34
1, 97948, Control_c, 0, 64, 25
1, 97963, Control_c, 0, 64, 25
1, 97978, Control_c, 0, 64, 30
1, 97984, Note_off_c, 0, 79, 64
1, 97993, Control_c, 0, 64, 43
1, 98004, Note_on_c, 0, 84, 76
1, 98008, Control_c, 0, 64, 55
1, 98023, Control_c, 0, 64, 59
1, 98038, Control_c, 0, 64, 60
1, 98053, Control_c, 0, 64, 61
1, 98081, Note_off_c, 0, 84, 65
1, 98091, Note_on_c, 0, 79, 77
1, 98097, Control_c, 0, 64, 60
1, 98112, Control_c, 0, 64, 55
1, 98127, Control_c, 0, 64, 42
1, 98142, Control_c, 0, 64, 33
1, 98144, Note_off_c, 0, 79, 65
1, 98156, Control_c, 0, 64, 30
1, 98171, Control_c, 0, 64, 25
1, 98172, Note_on_c, 0, 76, 76
1, 98186, Control_c, 0, 64, 15
1, 98201, Control_c, 0, 64, 0
1, 98230, Control_c, 0, 64, 26
1, 98245, Control_c, 0, 64, 44
1, 98255, Note_off_c, 0, 76, 57
1, 98256, Note_on_c, 0, 83, 82
1, 98260, Control_c, 0, 64, 56
1, 98275, Control_c, 0, 64, 59
1, 98304, Control_c, 0, 64, 59
1, 98319, Control_c, 0, 64, 56
1, 98320, Note_off_c, 0, 83, 66
1, 98333, Note_on_c, 0, 77, 78
1, 98334, Control_c, 0, 64, 52
1, 98356, Control_c, 0, 64, 48
1, 98371, Control_c, 0, 64, 40
1, 98386, Control_c, 0, 64, 32
1, 98397, Note_off_c, 0, 77, 65
1, 98401, Control_c, 0, 64, 28
1, 98416, Control_c, 0, 64, 30
1, 98427, Note_on_c, 0, 74, 74
1, 98430, Control_c, 0, 64, 34
1, 98445, Control_c, 0, 64, 36
1, 98460, Control_c, 0, 64, 35
1, 98489, Control_c, 0, 64, 37
1, 98501, Note_off_c, 0, 74, 59
1, 98504, Control_c, 0, 64, 41
1, 98510, Note_on_c, 0, 81, 78
1, 98535, Control_c, 0, 64, 38
1, 98542, Note_off_c, 0, 36, 64
1, 98542, Note_off_c, 0, 48, 62
1, 98550, Control_c, 0, 64, 36
1, 98553, Note_on_c, 0, 79, 22
1, 98554, Note_off_c, 0, 79, 127
1, 98565, Control_c, 0, 64, 36
1, 98579, Control_c, 0, 64, 39
1, 98580, Note_off_c, 0, 81, 64
1, 98594, Note_on_c, 0, 76, 75
1, 98594, Control_c, 0, 64, 39
1, 98609, Control_c, 0, 64, 38
1, 98624, Control_c, 0, 64, 37
1, 98644, Note_off_c, 0, 76, 65
1, 98653, Control_c, 0, 64, 39
1, 98679, Note_on_c, 0, 72, 76
1, 98683, Control_c, 0, 64, 36
1, 98698, Control_c, 0, 64, 34
1, 98727, Control_c, 0, 64, 36
1, 98742, Control_c, 0, 64, 38
1, 98757, Control_c, 0, 64, 37
1, 98761, Note_on_c, 0, 79, 78
1, 98766, Note_off_c, 0, 72, 60
1, 98771, Control_c, 0, 64, 35
1, 98786, Control_c, 0, 64, 34
1, 98829, Note_off_c, 0, 79, 65
1, 98831, Control_c, 0, 64, 34
1, 98842, Note_on_c, 0, 74, 70
1, 98846, Control_c, 0, 64, 33
1, 98860, Control_c, 0, 64, 32
1, 98890, Control_c, 0, 64, 32
1, 98891, Note_off_c, 0, 74, 63
1, 98905, Control_c, 0, 64, 33
1, 98923, Note_on_c, 0, 71, 73
1, 98965, Control_c, 0, 64, 34
1, 98979, Control_c, 0, 64, 37
1, 98994, Control_c, 0, 64, 39
1, 99004, Note_off_c, 0, 71, 59
1, 99009, Control_c, 0, 64, 39
1, 99011, Note_on_c, 0, 77, 78
1, 99024, Control_c, 0, 64, 39
1, 99076, Note_off_c, 0, 77, 65
1, 99083, Control_c, 0, 64, 38
1, 99090, Note_on_c, 0, 72, 74
1, 99105, Control_c, 0, 64, 37
1, 99135, Control_c, 0, 64, 38
1, 99150, Note_off_c, 0, 72, 64
1, 99180, Note_on_c, 0, 69, 72
1, 99194, Control_c, 0, 64, 37
1, 99246, Note_off_c, 0, 69, 61
1, 99256, Note_on_c, 0, 76, 72
1, 99281, Control_c, 0, 64, 38
1, 99328, Note_off_c, 0, 76, 63
1, 99354, Note_on_c, 0, 71, 58
1, 99356, Control_c, 0, 64, 38
1, 99371, Control_c, 0, 64, 37
1, 99386, Control_c, 0, 64, 36
1, 99400, Control_c, 0, 64, 36
1, 99406, Note_off_c, 0, 71, 61
1, 99415, Control_c, 0, 64, 36
1, 99425, Note_on_c, 0, 67, 74
1, 99430, Control_c, 0, 64, 39
1, 99445, Control_c, 0, 64, 40
1, 99460, Control_c, 0, 64, 39
1, 99478, Note_off_c, 0, 67, 58
1, 99504, Control_c, 0, 64, 40
1, 99509, Note_on_c, 0, 64, 72
1, 99519, Control_c, 0, 64, 42
1, 99534, Control_c, 0, 64, 43
1, 99596, Note_on_c, 0, 70, 63
1, 99622, Note_off_c, 0, 64, 59
1, 99623, Control_c, 0, 64, 42
1, 99638, Control_c, 0, 64, 40
1, 99653, Control_c, 0, 64, 40
1, 99660, Note_off_c, 0, 70, 64
1, 99671, Note_on_c, 0, 73, 70
1, 99682, Control_c, 0, 64, 41
1, 99712, Control_c, 0, 64, 40
1, 99726, Note_off_c, 0, 73, 58
1, 99726, Control_c, 0, 64, 40
1, 99753, Note_on_c, 0, 65, 77
1, 99756, Control_c, 0, 64, 40
1, 99758, Note_on_c, 0, 53, 84
1, 99771, Control_c, 0, 64, 41
1, 99790, Note_off_c, 0, 53, 64
1, 99853, Note_on_c, 0, 69, 69
1, 99880, Note_off_c, 0, 65, 59
1, 99914, Note_off_c, 0, 69, 67
1, 99928, Note_on_c, 0, 74, 70
1, 99981, Note_off_c, 0, 74, 63
1, 100009, Note_on_c, 0, 64, 77
1, 100014, Note_on_c, 0, 55, 83
1, 100015, Control_c, 0, 64, 41
1, 100045, Control_c, 0, 64, 41
1, 100062, Note_off_c, 0, 55, 61
1, 100094, Note_on_c, 0, 67, 75
1, 100104, Note_off_c, 0, 64, 63
1, 100169, Note_off_c, 0, 67, 64
1, 100184, Note_on_c, 0, 72, 69
1, 100238, Control_c, 0, 64, 40
1, 100247, Note_off_c, 0, 72, 64
1, 100253, Control_c, 0, 64, 39
1, 100268, Control_c, 0, 64, 34
1, 100270, Note_on_c, 0, 62, 76
1, 100276, Note_on_c, 0, 43, 75
1, 100283, Control_c, 0, 64, 17
1, 100297, Control_c, 0, 64, 0
1, 100315, Note_off_c, 0, 43, 65
1, 100352, Note_on_c, 0, 65, 72
1, 100356, Note_off_c, 0, 62, 62
1, 100430, Note_off_c, 0, 65, 62
1, 100437, Note_on_c, 0, 71, 65
1, 100512, Note_off_c, 0, 71, 61
1, 100535, Note_on_c, 0, 48, 88
1, 100539, Note_on_c, 0, 60, 76
1, 100542, Note_on_c, 0, 36, 78
1, 100579, Control_c, 0, 64, 13
1, 100601, Control_c, 0, 64, 33
1, 100610, Note_off_c, 0, 60, 59
1, 100616, Control_c, 0, 64, 39
1, 100628, Note_on_c, 0, 64, 73
1, 100631, Control_c, 0, 64, 39
1, 100646, Control_c, 0, 64, 41
1, 100661, Control_c, 0, 64, 45
1, 100676, Control_c, 0, 64, 48
1, 100689, Note_off_c, 0, 64, 64
1, 100704, Note_on_c, 0, 67, 70
1, 100720, Control_c, 0, 64, 48
1, 100735, Control_c, 0, 64, 49
1, 100747, Note_off_c, 0, 67, 62
1, 100749, Control_c, 0, 64, 51
1, 100805, Note_on_c, 0, 72, 75
1, 100810, Control_c, 0, 64, 51
1, 100824, Control_c, 0, 64, 52
1, 100854, Control_c, 0, 64, 51
1, 100869, Control_c, 0, 64, 50
1, 100881, Note_off_c, 0, 72, 61
1, 100885, Note_on_c, 0, 76, 79
1, 100929, Control_c, 0, 64, 49
1, 100944, Control_c, 0, 64, 48
1, 100971, Note_off_c, 0, 76, 64
1, 100972, Note_on_c, 0, 79, 77
1, 100973, Control_c, 0, 64, 48
1, 101003, Control_c, 0, 64, 48
1, 101018, Control_c, 0, 64, 47
1, 101028, Note_off_c, 0, 79, 66
1, 101047, Control_c, 0, 64, 47
1, 101048, Note_on_c, 0, 84, 78
1, 101107, Control_c, 0, 64, 48
1, 101121, Control_c, 0, 64, 48
1, 101125, Note_off_c, 0, 84, 65
1, 101136, Control_c, 0, 64, 48
1, 101138, Note_on_c, 0, 79, 77
1, 101151, Control_c, 0, 64, 47
1, 101166, Control_c, 0, 64, 46
1, 101180, Control_c, 0, 64, 47
1, 101193, Note_off_c, 0, 79, 67
1, 101210, Control_c, 0, 64, 46
1, 101224, Note_on_c, 0, 76, 73
1, 101225, Control_c, 0, 64, 44
1, 101240, Control_c, 0, 64, 43
1, 101269, Control_c, 0, 64, 42
1, 101284, Control_c, 0, 64, 40
1, 101296, Note_off_c, 0, 76, 52
1, 101299, Control_c, 0, 64, 39
1, 101305, Note_on_c, 0, 83, 80
1, 101366, Control_c, 0, 64, 37
1, 101378, Note_off_c, 0, 83, 66
1, 101380, Control_c, 0, 64, 37
1, 101391, Note_on_c, 0, 77, 74
1, 101395, Control_c, 0, 64, 37
1, 101451, Note_off_c, 0, 77, 66
1, 101469, Control_c, 0, 64, 38
1, 101476, Note_on_c, 0, 74, 69
1, 101484, Control_c, 0, 64, 39
1, 101499, Control_c, 0, 64, 39
1, 101547, Note_off_c, 0, 74, 60
1, 101552, Note_on_c, 0, 81, 74
1, 101588, Control_c, 0, 64, 39
1, 101602, Note_off_c, 0, 36, 64
1, 101605, Note_off_c, 0, 48, 63
1, 101624, Note_off_c, 0, 81, 64
1, 101637, Note_on_c, 0, 76, 72
1, 101692, Note_off_c, 0, 76, 65
1, 101722, Note_on_c, 0, 72, 73
1, 101737, Control_c, 0, 64, 38
1, 101782, Control_c, 0, 64, 39
1, 101797, Note_off_c, 0, 72, 58
1, 101800, Note_on_c, 0, 79, 71
1, 101811, Control_c, 0, 64, 38
1, 101826, Control_c, 0, 64, 38
1, 101856, Control_c, 0, 64, 39
1, 101870, Control_c, 0, 64, 39
1, 101874, Note_off_c, 0, 79, 65
1, 101885, Note_on_c, 0, 74, 67
1, 101885, Control_c, 0, 64, 39
1, 101925, Note_off_c, 0, 74, 66
1, 101964, Note_on_c, 0, 71, 72
1, 102018, Control_c, 0, 64, 38
1, 102032, Note_off_c, 0, 71, 57
1, 102033, Control_c, 0, 64, 38
1, 102050, Note_on_c, 0, 77, 73
1, 102100, Control_c, 0, 64, 37
1, 102115, Control_c, 0, 64, 36
1, 102122, Note_off_c, 0, 77, 65
1, 102136, Note_on_c, 0, 72, 71
1, 102159, Control_c, 0, 64, 37
1, 102189, Control_c, 0, 64, 36
1, 102191, Note_off_c, 0, 72, 63
1, 102219, Note_on_c, 0, 69, 71
1, 102233, Control_c, 0, 64, 37
1, 102248, Control_c, 0, 64, 38
1, 102263, Control_c, 0, 64, 37
1, 102290, Note_off_c, 0, 69, 58
1, 102301, Note_on_c, 0, 76, 72
1, 102307, Control_c, 0, 64, 38
1, 102321, Control_c, 0, 64, 38
1, 102336, Control_c, 0, 64, 38
1, 102368, Note_off_c, 0, 76, 62
1, 102389, Note_on_c, 0, 71, 64
1, 102426, Control_c, 0, 64, 38
1, 102452, Note_off_c, 0, 71, 62
1, 102455, Control_c, 0, 64, 39
1, 102469, Note_on_c, 0, 67, 68
1, 102470, Control_c, 0, 64, 39
1, 102518, Note_off_c, 0, 67, 61
1, 102545, Control_c, 0, 64, 40
1, 102549, Note_on_c, 0, 64, 72
1, 102575, Control_c, 0, 64, 39
1, 102619, Control_c, 0, 64, 40
1, 102633, Note_on_c, 0, 70, 61
1, 102649, Control_c, 0, 64, 39
1, 102653, Note_off_c, 0, 64, 56
1, 102693, Control_c, 0, 64, 40
1, 102702, Note_off_c, 0, 70, 62
1, 102711, Note_on_c, 0, 73, 68
1, 102763, Note_off_c, 0, 73, 55
1, 102793, Note_on_c, 0, 65, 74
1, 102806, Note_on_c, 0, 53, 74
1, 102843, Note_off_c, 0, 53, 66
1, 102849, Control_c, 0, 64, 40
1, 102879, Note_on_c, 0, 69, 65
1, 102893, Control_c, 0, 64, 40
1, 102906, Note_off_c, 0, 65, 55
1, 102943, Note_off_c, 0, 69, 66
1, 102954, Note_on_c, 0, 74, 66
1, 103014, Note_off_c, 0, 74, 64
1, 103047, Note_on_c, 0, 64, 71
1, 103052, Note_on_c, 0, 55, 69
1, 103096, Note_off_c, 0, 55, 58
1, 103125, Note_on_c, 0, 67, 71
1, 103132, Note_off_c, 0, 64, 63
1, 103195, Note_off_c, 0, 67, 64
1, 103217, Note_on_c, 0, 72, 66
1, 103218, Control_c, 0, 64, 40
1, 103270, Note_off_c, 0, 72, 57
1, 103309, Note_on_c, 0, 62, 69
1, 103313, Note_on_c, 0, 43, 65
1, 103353, Note_off_c, 0, 43, 63
1, 103380, Note_off_c, 0, 62, 64
1, 103385, Note_on_c, 0, 65, 62
1, 103397, Control_c, 0, 64, 41
1, 103442, Note_off_c, 0, 65, 61
1, 103464, Note_on_c, 0, 71, 65
1, 103525, Note_off_c, 0, 71, 59
1, 103545, Control_c, 0, 64, 41
1, 103560, Control_c, 0, 64, 42
1, 103563, Note_on_c, 0, 64, 69
1, 103567, Note_on_c, 0, 48, 60
1, 103574, Control_c, 0, 64, 44
1, 103597, Control_c, 0, 64, 47
1, 103612, Control_c, 0, 64, 51
1, 103627, Control_c, 0, 64, 53
1, 103642, Control_c, 0, 64, 54
1, 103655, Note_on_c, 0, 67, 65
1, 103656, Note_off_c, 0, 64, 64
1, 103671, Control_c, 0, 64, 55
1, 103686, Control_c, 0, 64, 57
1, 103701, Control_c, 0, 64, 58
1, 103713, Note_off_c, 0, 67, 64
1, 103716, Control_c, 0, 64, 59
1, 103726, Note_on_c, 0, 72, 70
1, 103730, Control_c, 0, 64, 59
1, 103760, Control_c, 0, 64, 60
1, 103772, Note_off_c, 0, 72, 53
1, 103789, Control_c, 0, 64, 59
1, 103804, Control_c, 0, 64, 56
1, 103819, Control_c, 0, 64, 48
1, 103822, Note_on_c, 0, 63, 73
1, 103834, Control_c, 0, 64, 40
1, 103848, Control_c, 0, 64, 39
1, 103863, Control_c, 0, 64, 41
1, 103878, Control_c, 0, 64, 47
1, 103892, Control_c, 0, 64, 52
1, 103895, Note_on_c, 0, 66, 70
1, 103902, Note_off_c, 0, 63, 62
1, 103907, Control_c, 0, 64, 56
1, 103922, Control_c, 0, 64, 57
1, 103937, Control_c, 0, 64, 58
1, 103952, Control_c, 0, 64, 59
1, 103967, Control_c, 0, 64, 60
1, 103977, Note_off_c, 0, 66, 60
1, 103982, Control_c, 0, 64, 60
1, 103984, Note_on_c, 0, 72, 63
1, 104011, Control_c, 0, 64, 60
1, 104026, Control_c, 0, 64, 56
1, 104041, Control_c, 0, 64, 47
1, 104056, Control_c, 0, 64, 40
1, 104069, Note_off_c, 0, 72, 57
1, 104071, Control_c, 0, 64, 38
1, 104074, Note_on_c, 0, 64, 71
1, 104086, Control_c, 0, 64, 40
1, 104100, Control_c, 0, 64, 46
1, 104116, Control_c, 0, 64, 51
1, 104131, Control_c, 0, 64, 54
1, 104146, Control_c, 0, 64, 55
1, 104158, Note_on_c, 0, 67, 68
1, 104158, Note_off_c, 0, 64, 64
1, 104161, Control_c, 0, 64, 57
1, 104175, Control_c, 0, 64, 59
1, 104190, Control_c, 0, 64, 60
1, 104205, Control_c, 0, 64, 60
1, 104209, Note_off_c, 0, 67, 63
1, 104228, Note_on_c, 0, 72, 64
1, 104250, Control_c, 0, 64, 60
1, 104264, Control_c, 0, 64, 57
1, 104279, Control_c, 0, 64, 49
1, 104280, Note_off_c, 0, 72, 53
1, 104294, Control_c, 0, 64, 41
1, 104309, Control_c, 0, 64, 40
1, 104321, Note_on_c, 0, 63, 73
1, 104324, Control_c, 0, 64, 42
1, 104345, Control_c, 0, 64, 47
1, 104360, Control_c, 0, 64, 51
1, 104375, Control_c, 0, 64, 53
1, 104390, Control_c, 0, 64, 53
1, 104405, Control_c, 0, 64, 55
1, 104413, Note_off_c, 0, 63, 61
1, 104418, Note_on_c, 0, 66, 70
1, 104420, Control_c, 0, 64, 57
1, 104435, Control_c, 0, 64, 57
1, 104506, Note_off_c, 0, 66, 60
1, 104509, Control_c, 0, 64, 56
1, 104512, Note_on_c, 0, 72, 62
1, 104524, Control_c, 0, 64, 54
1, 104539, Control_c, 0, 64, 52
1, 104554, Control_c, 0, 64, 50
1, 104569, Control_c, 0, 64, 45
1, 104573, Note_off_c, 0, 72, 63
1, 104584, Control_c, 0, 64, 39
1, 104598, Control_c, 0, 64, 32
1, 104599, Note_on_c, 0, 64, 67
1, 104613, Control_c, 0, 64, 27
1, 104628, Control_c, 0, 64, 23
1, 104643, Control_c, 0, 64, 8
1, 104658, Control_c, 0, 64, 0
1, 104673, Note_on_c, 0, 67, 72
1, 104675, Note_off_c, 0, 64, 63
1, 104739, Note_off_c, 0, 67, 64
1, 104752, Note_on_c, 0, 72, 69
1, 104834, Note_off_c, 0, 72, 57
1, 104853, Note_on_c, 0, 69, 73
1, 104865, Note_on_c, 0, 53, 72
1, 104870, Note_off_c, 0, 48, 50
1, 104892, Note_off_c, 0, 53, 64
1, 104925, Note_off_c, 0, 69, 64
1, 104937, Note_on_c, 0, 65, 74
1, 104989, Note_off_c, 0, 65, 63
1, 105011, Note_on_c, 0, 62, 75
1, 105053, Note_off_c, 0, 62, 62
1, 105105, Note_on_c, 0, 67, 74
1, 105111, Note_on_c, 0, 55, 73
1, 105160, Note_off_c, 0, 55, 61
1, 105184, Note_off_c, 0, 67, 64
1, 105192, Note_on_c, 0, 64, 66
1, 105199, Control_c, 0, 64, 13
1, 105213, Control_c, 0, 64, 15
1, 105243, Note_off_c, 0, 64, 63
1, 105243, Control_c, 0, 64, 16
1, 105258, Control_c, 0, 64, 19
1, 105273, Note_on_c, 0, 60, 67
1, 105273, Control_c, 0, 64, 23
1, 105287, Control_c, 0, 64, 22
1, 105302, Control_c, 0, 64, 21
1, 105332, Control_c, 0, 64, 23
1, 105338, Note_off_c, 0, 60, 40
1, 105347, Control_c, 0, 64, 24
1, 105359, Note_on_c, 0, 43, 63
1, 105362, Control_c, 0, 64, 23
1, 105367, Note_on_c, 0, 65, 53
1, 105377, Control_c, 0, 64, 23
1, 105389, Note_on_c, 0, 64, 39
1, 105389, Note_off_c, 0, 43, 65
1, 105407, Control_c, 0, 64, 25
1, 105418, Note_off_c, 0, 64, 55
1, 105421, Control_c, 0, 64, 27
1, 105427, Note_off_c, 0, 65, 62
1, 105436, Control_c, 0, 64, 26
1, 105443, Note_on_c, 0, 62, 57
1, 105451, Control_c, 0, 64, 24
1, 105481, Control_c, 0, 64, 25
1, 105495, Control_c, 0, 64, 29
1, 105510, Control_c, 0, 64, 30
1, 105516, Note_on_c, 0, 59, 70
1, 105525, Control_c, 0, 64, 28
1, 105539, Control_c, 0, 64, 27
1, 105555, Note_off_c, 0, 62, 34
1, 105569, Control_c, 0, 64, 28
1, 105571, Note_off_c, 0, 59, 61
1, 105584, Control_c, 0, 64, 25
1, 105596, Note_on_c, 0, 36, 73
1, 105599, Control_c, 0, 64, 17
1, 105600, Note_on_c, 0, 48, 74
1, 105601, Note_on_c, 0, 55, 66
1, 105613, Control_c, 0, 64, 13
1, 105628, Control_c, 0, 64, 10
1, 105643, Control_c, 0, 64, 0
1, 105681, Note_on_c, 0, 60, 65
1, 105682, Note_off_c, 0, 55, 63
1, 105746, Note_off_c, 0, 60, 62
1, 105756, Note_on_c, 0, 64, 73
1, 105807, Control_c, 0, 64, 23
1, 105808, Note_off_c, 0, 64, 64
1, 105822, Control_c, 0, 64, 22
1, 105844, Control_c, 0, 64, 15
1, 105859, Control_c, 0, 64, 13
1, 105874, Control_c, 0, 64, 16
1, 105875, Note_on_c, 0, 54, 72
1, 105889, Control_c, 0, 64, 22
1, 105904, Control_c, 0, 64, 23
1, 105918, Control_c, 0, 64, 19
1, 105933, Control_c, 0, 64, 18
1, 105948, Control_c, 0, 64, 19
1, 105952, Note_off_c, 0, 54, 59
1, 105958, Note_on_c, 0, 60, 74
1, 105963, Control_c, 0, 64, 22
1, 105977, Control_c, 0, 64, 24
1, 105992, Control_c, 0, 64, 22
1, 105997, Note_off_c, 0, 60, 59
1, 106007, Control_c, 0, 64, 21
1, 106024, Note_on_c, 0, 63, 78
1, 106036, Control_c, 0, 64, 22
1, 106051, Control_c, 0, 64, 23
1, 106066, Control_c, 0, 64, 22
1, 106081, Control_c, 0, 64, 21
1, 106095, Note_off_c, 0, 63, 61
1, 106123, Note_on_c, 0, 55, 75
1, 106140, Control_c, 0, 64, 20
1, 106155, Control_c, 0, 64, 15
1, 106170, Control_c, 0, 64, 12
1, 106199, Control_c, 0, 64, 12
1, 106206, Note_on_c, 0, 60, 71
1, 106214, Control_c, 0, 64, 13
1, 106229, Note_off_c, 0, 55, 62
1, 106229, Control_c, 0, 64, 11
1, 106244, Control_c, 0, 64, 0
1, 106269, Note_off_c, 0, 60, 62
1, 106276, Note_on_c, 0, 64, 72
1, 106331, Note_off_c, 0, 64, 65
1, 106378, Note_on_c, 0, 54, 69
1, 106449, Note_on_c, 0, 60, 68
1, 106459, Note_off_c, 0, 54, 59
1, 106533, Note_on_c, 0, 63, 69
1, 106536, Note_off_c, 0, 60, 57
1, 106608, Note_off_c, 0, 63, 63
1, 106631, Note_on_c, 0, 55, 71
1, 106704, Note_on_c, 0, 60, 67
1, 106711, Note_off_c, 0, 55, 60
1, 106767, Note_off_c, 0, 48, 58
1, 106777, Note_off_c, 0, 60, 60
1, 106787, Note_on_c, 0, 64, 72
1, 106874, Note_off_c, 0, 64, 58
1, 106886, Note_on_c, 0, 62, 72
1, 106899, Note_on_c, 0, 41, 71
1, 106908, Note_off_c, 0, 36, 63
1, 106922, Note_off_c, 0, 41, 66
1, 106950, Note_off_c, 0, 62, 64
1, 106965, Note_on_c, 0, 57, 66
1, 107014, Note_off_c, 0, 57, 63
1, 107046, Note_on_c, 0, 53, 67
1, 107089, Note_off_c, 0, 53, 58
1, 107124, Note_on_c, 0, 60, 69
1, 107129, Note_on_c, 0, 43, 74
1, 107168, Note_off_c, 0, 43, 64
1, 107191, Note_off_c, 0, 60, 60
1, 107210, Note_on_c, 0, 55, 65
1, 107247, Note_off_c, 0, 55, 65
1, 107283, Note_on_c, 0, 52, 69
1, 107340, Note_off_c, 0, 52, 60
1, 107380, Note_on_c, 0, 59, 63
1, 107382, Note_on_c, 0, 31, 67
1, 107413, Note_off_c, 0, 31, 66
1, 107434, Note_off_c, 0, 59, 58
1, 107465, Note_on_c, 0, 53, 56
1, 107512, Note_off_c, 0, 53, 62
1, 107537, Note_on_c, 0, 50, 66
1, 107589, Note_off_c, 0, 50, 63
1, 107617, Note_on_c, 0, 36, 66
1, 107620, Note_on_c, 0, 48, 74
1, 107684, Note_off_c, 0, 48, 61
1, 107696, Note_off_c, 0, 36, 63
1, 107702, Note_on_c, 0, 52, 70
1, 107705, Note_on_c, 0, 40, 67
1, 107742, Note_off_c, 0, 52, 62
1, 107754, Note_off_c, 0, 40, 59
1, 107785, Note_on_c, 0, 55, 63
1, 107785, Note_on_c, 0, 43, 66
1, 107853, Note_off_c, 0, 55, 63
1, 107854, Note_off_c, 0, 43, 61
1, 107862, Note_on_c, 0, 60, 71
1, 107878, Note_on_c, 0, 48, 68
1, 107925, Note_off_c, 0, 60, 60
1, 107927, Note_off_c, 0, 48, 56
1, 107964, Note_on_c, 0, 43, 56
1, 107964, Note_on_c, 0, 55, 64
1, 108000, Note_off_c, 0, 43, 61
1, 108001, Note_off_c, 0, 55, 66
1, 108018, Note_on_c, 0, 40, 64
1, 108033, Note_on_c, 0, 52, 56
1, 108089, Note_off_c, 0, 52, 63
1, 108107, Note_off_c, 0, 40, 61
1, 108115, Note_on_c, 0, 48, 67
1, 108131, Note_on_c, 0, 36, 63
1, 108175, Note_off_c, 0, 48, 63
1, 108192, Note_off_c, 0, 36, 58
1, 108195, Note_on_c, 0, 52, 61
1, 108216, Note_on_c, 0, 40, 66
1, 108237, Note_off_c, 0, 52, 61
1, 108253, Note_off_c, 0, 40, 62
1, 108268, Control_c, 0, 64, 16
1, 108273, Note_on_c, 0, 55, 52
1, 108283, Control_c, 0, 64, 18
1, 108298, Control_c, 0, 64, 17
1, 108301, Note_on_c, 0, 43, 57
1, 108313, Control_c, 0, 64, 15
1, 108328, Control_c, 0, 64, 13
1, 108343, Control_c, 0, 64, 14
1, 108358, Control_c, 0, 64, 20
1, 108364, Note_off_c, 0, 43, 56
1, 108372, Control_c, 0, 64, 23
1, 108384, Note_off_c, 0, 55, 37
1, 108387, Control_c, 0, 64, 21
1, 108391, Note_on_c, 0, 60, 18
1, 108392, Note_on_c, 0, 48, 63
1, 108402, Control_c, 0, 64, 16
1, 108417, Control_c, 0, 64, 0
1, 108432, Note_off_c, 0, 60, 50
1, 108452, Note_off_c, 0, 48, 63
1, 108472, Note_on_c, 0, 43, 61
1, 108472, Note_on_c, 0, 55, 56
1, 108503, Note_off_c, 0, 43, 62
1, 108511, Note_off_c, 0, 55, 53
1, 108529, Note_on_c, 0, 40, 64
1, 108552, Note_on_c, 0, 52, 54
1, 108602, Note_off_c, 0, 52, 52
1, 108612, Note_off_c, 0, 40, 61
1, 108620, Note_on_c, 0, 48, 75
1, 108624, Note_on_c, 0, 36, 61
1, 108653, Control_c, 0, 67, 12
1, 108668, Control_c, 0, 67, 17
1, 108683, Control_c, 0, 67, 20
1, 108684, Note_on_c, 0, 54, 18
1, 108686, Note_off_c, 0, 48, 62
1, 108692, Note_off_c, 0, 36, 62
1, 108698, Control_c, 0, 67, 23
1, 108709, Note_on_c, 0, 40, 62
1, 108709, Note_on_c, 0, 52, 65
1, 108712, Control_c, 0, 67, 25
1, 108727, Note_off_c, 0, 54, 39
1, 108727, Control_c, 0, 67, 28
1, 108742, Control_c, 0, 67, 30
1, 108754, Note_off_c, 0, 52, 64
1, 108757, Control_c, 0, 67, 33
1, 108757, Note_off_c, 0, 40, 61
1, 108772, Control_c, 0, 67, 36
1, 108775, Note_on_c, 0, 55, 62
1, 108781, Note_on_c, 0, 43, 70
1, 108787, Control_c, 0, 67, 43
1, 108802, Control_c, 0, 67, 51
1, 108817, Control_c, 0, 67, 56
1, 108827, Note_off_c, 0, 55, 63
1, 108846, Note_off_c, 0, 43, 62
1, 108873, Note_on_c, 0, 48, 67
1, 108882, Note_on_c, 0, 60, 72
1, 108897, Control_c, 0, 67, 56
1, 108906, Note_off_c, 0, 48, 63
1, 108929, Control_c, 0, 67, 56
1, 108942, Note_off_c, 0, 60, 55
1, 108943, Control_c, 0, 67, 55
1, 108958, Control_c, 0, 67, 54
1, 108959, Note_on_c, 0, 52, 60
1, 108964, Note_on_c, 0, 64, 69
1, 108973, Control_c, 0, 67, 54
1, 108987, Control_c, 0, 67, 55
1, 109013, Note_off_c, 0, 52, 63
1, 109017, Control_c, 0, 67, 56
1, 109022, Note_off_c, 0, 64, 64
1, 109037, Note_on_c, 0, 67, 67
1, 109039, Note_on_c, 0, 55, 64
1, 109047, Control_c, 0, 67, 56
1, 109101, Note_off_c, 0, 55, 62
1, 109106, Control_c, 0, 67, 57
1, 109108, Note_off_c, 0, 67, 59
1, 109111, Note_on_c, 0, 72, 74
1, 109121, Control_c, 0, 67, 58
1, 109124, Note_on_c, 0, 60, 67
1, 109136, Control_c, 0, 67, 59
1, 109151, Control_c, 0, 67, 60
1, 109152, Note_off_c, 0, 60, 63
1, 109158, Note_off_c, 0, 72, 50
1, 109180, Control_c, 0, 67, 60
1, 109195, Control_c, 0, 67, 60
1, 109195, Note_on_c, 0, 55, 66
1, 109207, Note_on_c, 0, 67, 62
1, 109210, Control_c, 0, 67, 62
1, 109225, Control_c, 0, 67, 65
1, 109232, Note_off_c, 0, 55, 60
1, 109239, Note_off_c, 0, 67, 60
1, 109240, Control_c, 0, 67, 69
1, 109255, Control_c, 0, 67, 70
1, 109256, Note_on_c, 0, 52, 64
1, 109273, Note_on_c, 0, 64, 67
1, 109313, Control_c, 0, 67, 71
1, 109328, Control_c, 0, 67, 72
1, 109335, Note_off_c, 0, 52, 62
1, 109336, Note_off_c, 0, 64, 64
1, 109343, Control_c, 0, 67, 75
1, 109349, Note_on_c, 0, 48, 67
1, 109357, Note_on_c, 0, 60, 75
1, 109358, Control_c, 0, 67, 77
1, 109387, Control_c, 0, 67, 79
1, 109399, Note_off_c, 0, 60, 54
1, 109402, Control_c, 0, 67, 84
1, 109417, Control_c, 0, 67, 90
1, 109423, Note_off_c, 0, 48, 62
1, 109432, Control_c, 0, 67, 93
1, 109443, Note_on_c, 0, 52, 66
1, 109443, Note_on_c, 0, 64, 68
1, 109461, Control_c, 0, 67, 94
1, 109483, Note_off_c, 0, 52, 65
1, 109483, Note_off_c, 0, 64, 60
1, 109491, Control_c, 0, 67, 93
1, 109496, Note_on_c, 0, 67, 67
1, 109512, Note_on_c, 0, 55, 62
1, 109535, Control_c, 0, 67, 95
1, 109550, Control_c, 0, 67, 98
1, 109559, Note_off_c, 0, 67, 62
1, 109565, Note_off_c, 0, 55, 55
1, 109565, Control_c, 0, 67, 101
1, 109587, Control_c, 0, 67, 102
1, 109598, Note_on_c, 0, 60, 73
1, 109602, Note_on_c, 0, 48, 68
1, 109632, Control_c, 0, 67, 102
1, 109657, Note_off_c, 0, 60, 62
1, 109660, Note_off_c, 0, 48, 61
1, 109661, Control_c, 0, 67, 101
1, 109667, Note_on_c, 0, 64, 60
1, 109676, Control_c, 0, 67, 100
1, 109678, Note_on_c, 0, 52, 72
1, 109691, Control_c, 0, 67, 99
1, 109706, Control_c, 0, 67, 100
1, 109719, Note_off_c, 0, 64, 65
1, 109722, Control_c, 0, 67, 101
1, 109736, Note_off_c, 0, 52, 62
1, 109737, Control_c, 0, 67, 101
1, 109741, Note_on_c, 0, 67, 68
1, 109753, Note_on_c, 0, 55, 63
1, 109766, Control_c, 0, 67, 101
1, 109771, Note_off_c, 0, 67, 65
1, 109781, Control_c, 0, 67, 100
1, 109784, Note_off_c, 0, 55, 60
1, 109796, Control_c, 0, 67, 101
1, 109824, Note_on_c, 0, 60, 65
1, 109836, Note_on_c, 0, 72, 70
1, 109855, Control_c, 0, 67, 100
1, 109857, Note_off_c, 0, 60, 63
1, 109870, Control_c, 0, 67, 100
1, 109878, Note_off_c, 0, 72, 58
1, 109884, Control_c, 0, 67, 101
1, 109899, Control_c, 0, 67, 103
1, 109911, Note_on_c, 0, 76, 73
1, 109914, Control_c, 0, 67, 104
1, 109915, Note_on_c, 0, 64, 54
1, 109929, Control_c, 0, 67, 107
1, 109943, Control_c, 0, 67, 108
1, 109958, Note_off_c, 0, 64, 66
1, 109958, Control_c, 0, 67, 107
1, 109968, Note_off_c, 0, 76, 59
1, 109973, Control_c, 0, 67, 106
1, 109981, Note_on_c, 0, 67, 73
1, 109986, Note_on_c, 0, 79, 72
1, 110046, Note_off_c, 0, 79, 64
1, 110048, Note_off_c, 0, 67, 63
1, 110048, Control_c, 0, 67, 105
1, 110059, Note_on_c, 0, 84, 75
1, 110063, Control_c, 0, 67, 103
1, 110075, Note_on_c, 0, 72, 73
1, 110078, Control_c, 0, 67, 101
1, 110092, Control_c, 0, 67, 102
1, 110101, Note_off_c, 0, 84, 54
1, 110106, Note_off_c, 0, 72, 62
1, 110107, Control_c, 0, 67, 103
1, 110122, Control_c, 0, 67, 104
1, 110148, Poly_aftertouch_c, 0, 62, 0
1, 110149, Note_on_c, 0, 79, 67
1, 110155, Note_on_c, 0, 67, 64
1, 110166, Control_c, 0, 67, 103
1, 110185, Note_off_c, 0, 67, 64
1, 110202, Note_off_c, 0, 79, 61
1, 110214, Note_on_c, 0, 64, 58
1, 110217, Note_on_c, 0, 76, 68
1, 110240, Control_c, 0, 67, 104
1, 110255, Control_c, 0, 67, 103
1, 110270, Control_c, 0, 67, 103
1, 110276, Note_off_c, 0, 64, 61
1, 110278, Note_off_c, 0, 76, 64
1, 110284, Control_c, 0, 67, 102
1, 110300, Note_on_c, 0, 72, 74
1, 110308, Note_on_c, 0, 60, 53
1, 110314, Control_c, 0, 67, 102
1, 110376, Note_off_c, 0, 72, 59
1, 110377, Note_off_c, 0, 60, 62
1, 110381, Control_c, 0, 67, 102
1, 110388, Note_on_c, 0, 76, 73
1, 110396, Control_c, 0, 67, 101
1, 110401, Note_on_c, 0, 64, 63
1, 110410, Control_c, 0, 67, 100
1, 110425, Control_c, 0, 67, 100
1, 110431, Note_off_c, 0, 64, 66
1, 110438, Note_off_c, 0, 76, 61
1, 110440, Control_c, 0, 67, 99
1, 110460, Note_on_c, 0, 79, 67
1, 110465, Note_on_c, 0, 67, 68
1, 110470, Control_c, 0, 67, 99
1, 110484, Control_c, 0, 67, 98
1, 110515, Control_c, 0, 67, 98
1, 110530, Control_c, 0, 64, 23
1, 110545, Control_c, 0, 64, 41
1, 110549, Note_off_c, 0, 79, 51
1, 110555, Note_on_c, 0, 84, 81
1, 110558, Note_on_c, 0, 72, 70
1, 110559, Control_c, 0, 64, 51
1, 110572, Note_off_c, 0, 67, 60
1, 110574, Control_c, 0, 64, 54
1, 110579, Note_off_c, 0, 84, 70
1, 110586, Note_off_c, 0, 72, 66
1, 110589, Control_c, 0, 64, 53
1, 110604, Control_c, 0, 64, 53
1, 110619, Control_c, 0, 64, 50
1, 110633, Control_c, 0, 64, 42
1, 110648, Control_c, 0, 64, 34
1, 110663, Control_c, 0, 64, 25
1, 110678, Control_c, 0, 64, 18
1, 110693, Control_c, 0, 64, 10
1, 110707, Control_c, 0, 64, 0
1, 110752, Control_c, 0, 67, 98
1, 110796, Control_c, 0, 64, 18
1, 110811, Control_c, 0, 64, 28
1, 110826, Control_c, 0, 64, 37
1, 110841, Control_c, 0, 64, 48
1, 110856, Control_c, 0, 64, 54
1, 110859, Note_on_c, 0, 72, 60
1, 110871, Control_c, 0, 64, 58
1, 110871, Control_c, 0, 67, 98
1, 110871, Note_on_c, 0, 60, 56
1, 110873, Note_on_c, 0, 48, 44
1, 110885, Control_c, 0, 64, 62
1, 110900, Control_c, 0, 64, 65
1, 110902, Note_off_c, 0, 72, 64
1, 110903, Note_off_c, 0, 48, 61
1, 110915, Control_c, 0, 64, 67
1, 110915, Note_off_c, 0, 60, 63
1, 110930, Control_c, 0, 64, 69
1, 110930, Control_c, 0, 67, 97
1, 110945, Control_c, 0, 64, 70
1, 110945, Control_c, 0, 67, 95
1, 110959, Control_c, 0, 64, 71
1, 110959, Control_c, 0, 67, 93
1, 110974, Control_c, 0, 67, 91
1, 110989, Control_c, 0, 67, 87
1, 111004, Control_c, 0, 67, 83
1, 111019, Control_c, 0, 64, 70
1, 111019, Control_c, 0, 67, 79
1, 111033, Control_c, 0, 64, 67
1, 111033, Control_c, 0, 67, 72
1, 111048, Control_c, 0, 64, 63
1, 111048, Control_c, 0, 67, 62
1, 111063, Control_c, 0, 64, 55
1, 111063, Control_c, 0, 67, 47
1, 111085, Control_c, 0, 64, 42
1, 111085, Control_c, 0, 67, 24
1, 111100, Control_c, 0, 64, 33
1, 111100, Control_c, 0, 67, 0
1, 111115, Control_c, 0, 64, 30
1, 111189, Control_c, 0, 64, 31
1, 111204, Control_c, 0, 64, 36
1, 111219, Control_c, 0, 64, 41
1, 111248, Control_c, 0, 64, 41
1, 111261, Control_c, 0, 64, 41
1, 111276, Control_c, 0, 64, 43
1, 111291, Control_c, 0, 64, 44
1, 111307, Control_c, 0, 64, 43
1, 111322, Control_c, 0, 64, 42
1, 111351, Control_c, 0, 64, 44
1, 111366, Control_c, 0, 64, 46
1, 111380, Control_c, 0, 64, 45
1, 111425, Control_c, 0, 64, 47
1, 111440, Control_c, 0, 64, 52
1, 111455, Control_c, 0, 64, 56
1, 111470, Control_c, 0, 64, 58
1, 111485, Control_c, 0, 64, 59
1, 111500, Control_c, 0, 64, 60
1, 111514, Control_c, 0, 64, 61
1, 111517, Note_on_c, 0, 79, 69
1, 111529, Control_c, 0, 64, 62
1, 111544, Control_c, 0, 64, 63
1, 111559, Control_c, 0, 64, 64
1, 111574, Control_c, 0, 64, 66
1, 111588, Control_c, 0, 64, 67
1, 111593, Note_off_c, 0, 79, 62
1, 111603, Control_c, 0, 64, 68
1, 111618, Control_c, 0, 64, 70
1, 111633, Control_c, 0, 64, 71
1, 111648, Control_c, 0, 64, 72
1, 111662, Control_c, 0, 64, 72
1, 111677, Control_c, 0, 64, 73
1, 111766, Control_c, 0, 64, 72
1, 111780, Control_c, 0, 64, 72
1, 111789, Note_on_c, 0, 77, 71
1, 111810, Control_c, 0, 64, 71
1, 111833, Control_c, 0, 64, 69
1, 111848, Control_c, 0, 64, 67
1, 111862, Control_c, 0, 64, 66
1, 111877, Control_c, 0, 64, 65
1, 111892, Control_c, 0, 64, 64
1, 111906, Control_c, 0, 64, 62
1, 111917, Note_on_c, 0, 75, 73
1, 111921, Control_c, 0, 64, 60
1, 111936, Control_c, 0, 64, 60
1, 111951, Note_off_c, 0, 77, 62
1, 111951, Control_c, 0, 64, 59
1, 111966, Control_c, 0, 64, 59
1, 111980, Control_c, 0, 64, 58
1, 111995, Control_c, 0, 64, 57
1, 112011, Control_c, 0, 64, 56
1, 112041, Note_on_c, 0, 74, 70
1, 112041, Control_c, 0, 64, 55
1, 112049, Note_off_c, 0, 75, 63
1, 112055, Control_c, 0, 64, 52
1, 112070, Control_c, 0, 64, 51
1, 112100, Control_c, 0, 64, 51
1, 112116, Control_c, 0, 64, 51
1, 112130, Control_c, 0, 64, 49
1, 112143, Note_off_c, 0, 74, 65
1, 112145, Control_c, 0, 64, 47
1, 112157, Note_on_c, 0, 72, 76
1, 112160, Control_c, 0, 64, 48
1, 112204, Control_c, 0, 64, 47
1, 112219, Control_c, 0, 64, 46
1, 112249, Control_c, 0, 64, 47
1, 112285, Note_off_c, 0, 72, 61
1, 112291, Note_on_c, 0, 75, 70
1, 112308, Control_c, 0, 64, 47
1, 112323, Control_c, 0, 64, 48
1, 112337, Control_c, 0, 64, 49
1, 112397, Control_c, 0, 64, 51
1, 112401, Note_on_c, 0, 74, 72
1, 112412, Control_c, 0, 64, 53
1, 112471, Control_c, 0, 64, 54
1, 112486, Control_c, 0, 64, 54
1, 112516, Note_off_c, 0, 74, 64
1, 112516, Control_c, 0, 64, 54
1, 112519, Note_off_c, 0, 75, 24
1, 112530, Note_on_c, 0, 77, 71
1, 112560, Control_c, 0, 64, 55
1, 112582, Control_c, 0, 64, 55
1, 112638, Note_off_c, 0, 77, 63
1, 112663, Note_on_c, 0, 71, 69
1, 112671, Control_c, 0, 64, 55
1, 112686, Control_c, 0, 64, 54
1, 112701, Control_c, 0, 64, 53
1, 112745, Control_c, 0, 64, 53
1, 112760, Control_c, 0, 64, 52
1, 112790, Control_c, 0, 64, 53
1, 112802, Note_on_c, 0, 36, 60
1, 112804, Control_c, 0, 64, 54
1, 112806, Note_on_c, 0, 72, 73
1, 112812, Note_off_c, 0, 71, 58
1, 112819, Control_c, 0, 64, 55
1, 112834, Control_c, 0, 64, 56
1, 112849, Control_c, 0, 64, 54
1, 112852, Note_off_c, 0, 72, 59
1, 112864, Control_c, 0, 64, 52
1, 112878, Control_c, 0, 64, 50
1, 112882, Note_off_c, 0, 36, 62
1, 112885, Note_on_c, 0, 39, 70
1, 112909, Control_c, 0, 64, 48
1, 112924, Control_c, 0, 64, 41
1, 112939, Control_c, 0, 64, 27
1, 112951, Note_off_c, 0, 39, 63
1, 112953, Control_c, 0, 64, 17
1, 112972, Note_on_c, 0, 43, 69
1, 112983, Control_c, 0, 64, 21
1, 112998, Control_c, 0, 64, 22
1, 113047, Note_off_c, 0, 43, 61
1, 113057, Control_c, 0, 64, 25
1, 113060, Note_on_c, 0, 67, 71
1, 113064, Note_on_c, 0, 48, 71
1, 113072, Control_c, 0, 64, 29
1, 113101, Control_c, 0, 64, 28
1, 113119, Note_off_c, 0, 67, 61
1, 113131, Control_c, 0, 64, 29
1, 113144, Note_off_c, 0, 48, 56
1, 113146, Control_c, 0, 64, 32
1, 113151, Note_on_c, 0, 43, 72
1, 113160, Control_c, 0, 64, 33
1, 113190, Control_c, 0, 64, 33
1, 113205, Control_c, 0, 64, 34
1, 113220, Control_c, 0, 64, 35
1, 113226, Note_off_c, 0, 43, 60
1, 113229, Note_on_c, 0, 39, 72
1, 113279, Control_c, 0, 64, 35
1, 113308, Note_off_c, 0, 39, 64
1, 113312, Note_on_c, 0, 36, 73
1, 113346, Control_c, 0, 64, 36
1, 113360, Control_c, 0, 64, 37
1, 113390, Control_c, 0, 64, 36
1, 113404, Note_off_c, 0, 36, 59
1, 113405, Note_on_c, 0, 39, 69
1, 113405, Control_c, 0, 64, 35
1, 113420, Control_c, 0, 64, 36
1, 113434, Control_c, 0, 64, 37
1, 113449, Control_c, 0, 64, 36
1, 113464, Control_c, 0, 64, 35
1, 113468, Note_off_c, 0, 39, 63
1, 113479, Control_c, 0, 64, 34
1, 113480, Note_on_c, 0, 43, 73
1, 113494, Control_c, 0, 64, 35
1, 113508, Control_c, 0, 64, 36
1, 113567, Note_off_c, 0, 43, 64
1, 113573, Note_on_c, 0, 75, 74
1, 113579, Note_on_c, 0, 67, 66
1, 113582, Control_c, 0, 64, 37
1, 113589, Note_on_c, 0, 48, 70
1, 113637, Note_off_c, 0, 75, 65
1, 113641, Control_c, 0, 64, 37
1, 113647, Note_off_c, 0, 67, 63
1, 113656, Control_c, 0, 64, 39
1, 113666, Note_off_c, 0, 48, 58
1, 113674, Note_on_c, 0, 43, 70
1, 113702, Control_c, 0, 64, 38
1, 113717, Control_c, 0, 64, 37
1, 113731, Control_c, 0, 64, 35
1, 113746, Control_c, 0, 64, 29
1, 113747, Note_off_c, 0, 43, 64
1, 113752, Note_on_c, 0, 39, 70
1, 113761, Control_c, 0, 64, 25
1, 113775, Control_c, 0, 64, 23
1, 113820, Control_c, 0, 64, 25
1, 113828, Note_on_c, 0, 74, 75
1, 113835, Note_off_c, 0, 39, 64
1, 113835, Control_c, 0, 64, 31
1, 113836, Note_on_c, 0, 65, 70
1, 113845, Note_on_c, 0, 36, 66
1, 113849, Control_c, 0, 64, 44
1, 113864, Control_c, 0, 64, 54
1, 113879, Control_c, 0, 64, 60
1, 113891, Note_off_c, 0, 65, 60
1, 113894, Control_c, 0, 64, 62
1, 113909, Control_c, 0, 64, 62
1, 113923, Control_c, 0, 64, 63
1, 113928, Note_on_c, 0, 39, 76
1, 113935, Note_off_c, 0, 36, 62
1, 113983, Control_c, 0, 64, 62
1, 113995, Note_off_c, 0, 39, 64
1, 113998, Control_c, 0, 64, 57
1, 114001, Note_on_c, 0, 43, 71
1, 114012, Control_c, 0, 64, 47
1, 114027, Control_c, 0, 64, 35
1, 114042, Control_c, 0, 64, 23
1, 114057, Control_c, 0, 64, 23
1, 114065, Note_off_c, 0, 43, 62
1, 114079, Control_c, 0, 64, 31
1, 114084, Note_on_c, 0, 72, 74
1, 114085, Note_off_c, 0, 74, 64
1, 114091, Note_on_c, 0, 63, 64
1, 114094, Control_c, 0, 64, 42
1, 114098, Note_on_c, 0, 48, 75
1, 114108, Control_c, 0, 64, 51
1, 114123, Control_c, 0, 64, 55
1, 114138, Note_off_c, 0, 48, 64
1, 114138, Control_c, 0, 64, 57
1, 114153, Control_c, 0, 64, 59
1, 114168, Control_c, 0, 64, 61
1, 114173, Note_on_c, 0, 51, 72
1, 114181, Note_off_c, 0, 63, 64
1, 114182, Control_c, 0, 64, 62
1, 114197, Control_c, 0, 64, 63
1, 114212, Control_c, 0, 64, 63
1, 114227, Control_c, 0, 64, 64
1, 114231, Note_off_c, 0, 72, 57
1, 114240, Note_off_c, 0, 51, 62
1, 114265, Note_on_c, 0, 55, 67
1, 114272, Control_c, 0, 64, 62
1, 114287, Control_c, 0, 64, 59
1, 114301, Control_c, 0, 64, 58
1, 114316, Control_c, 0, 64, 55
1, 114326, Note_off_c, 0, 55, 62
1, 114331, Control_c, 0, 64, 51
1, 114343, Note_on_c, 0, 60, 64
1, 114346, Control_c, 0, 64, 48
1, 114361, Control_c, 0, 64, 47
1, 114379, Note_on_c, 0, 59, 31
1, 114390, Control_c, 0, 64, 46
1, 114405, Control_c, 0, 64, 43
1, 114414, Note_off_c, 0, 59, 57
1, 114415, Note_on_c, 0, 55, 76
1, 114418, Note_off_c, 0, 60, 62
1, 114420, Control_c, 0, 64, 41
1, 114435, Control_c, 0, 64, 40
1, 114463, Note_off_c, 0, 55, 54
1, 114479, Control_c, 0, 64, 38
1, 114481, Note_on_c, 0, 51, 74
1, 114495, Control_c, 0, 64, 37
1, 114525, Control_c, 0, 64, 40
1, 114540, Control_c, 0, 64, 41
1, 114554, Control_c, 0, 64, 42
1, 114561, Note_on_c, 0, 79, 80
1, 114569, Control_c, 0, 64, 44
1, 114570, Note_on_c, 0, 75, 79
1, 114574, Note_off_c, 0, 51, 65
1, 114575, Note_on_c, 0, 48, 72
1, 114584, Control_c, 0, 64, 48
1, 114598, Control_c, 0, 64, 54
1, 114613, Control_c, 0, 64, 55
1, 114621, Note_off_c, 0, 79, 63
1, 114626, Note_off_c, 0, 75, 63
1, 114628, Control_c, 0, 64, 55
1, 114643, Control_c, 0, 64, 54
1, 114661, Note_on_c, 0, 51, 75
1, 114668, Note_off_c, 0, 48, 59
1, 114672, Control_c, 0, 64, 53
1, 114687, Control_c, 0, 64, 51
1, 114702, Control_c, 0, 64, 47
1, 114717, Control_c, 0, 64, 45
1, 114720, Note_off_c, 0, 51, 67
1, 114728, Note_on_c, 0, 55, 78
1, 114761, Control_c, 0, 64, 41
1, 114776, Control_c, 0, 64, 32
1, 114791, Control_c, 0, 64, 22
1, 114805, Control_c, 0, 64, 17
1, 114826, Note_on_c, 0, 77, 83
1, 114835, Note_on_c, 0, 48, 69
1, 114838, Note_off_c, 0, 55, 63
1, 114846, Note_on_c, 0, 74, 62
1, 114858, Control_c, 0, 64, 24
1, 114873, Control_c, 0, 64, 38
1, 114887, Control_c, 0, 64, 53
1, 114902, Control_c, 0, 64, 61
1, 114911, Note_off_c, 0, 48, 63
1, 114912, Note_on_c, 0, 51, 76
1, 114917, Control_c, 0, 64, 62
1, 114978, Note_on_c, 0, 55, 74
1, 114987, Note_off_c, 0, 51, 62
1, 114991, Control_c, 0, 64, 59
1, 115006, Control_c, 0, 64, 53
1, 115021, Control_c, 0, 64, 46
1, 115036, Control_c, 0, 64, 42
1, 115041, Note_off_c, 0, 55, 63
1, 115045, Note_off_c, 0, 74, 45
1, 115051, Control_c, 0, 64, 43
1, 115053, Note_off_c, 0, 77, 60
1, 115066, Note_on_c, 0, 75, 74
1, 115066, Control_c, 0, 64, 49
1, 115072, Note_on_c, 0, 60, 71
1, 115079, Note_on_c, 0, 72, 66
1, 115080, Control_c, 0, 64, 55
1, 115095, Control_c, 0, 64, 59
1, 115110, Control_c, 0, 64, 61
1, 115115, Note_off_c, 0, 60, 57
1, 115124, Control_c, 0, 64, 63
1, 115139, Control_c, 0, 64, 64
1, 115151, Note_on_c, 0, 63, 76
1, 115154, Control_c, 0, 64, 65
1, 115163, Note_off_c, 0, 72, 60
1, 115169, Control_c, 0, 64, 66
1, 115184, Control_c, 0, 64, 66
1, 115224, Note_off_c, 0, 63, 64
1, 115224, Note_off_c, 0, 75, 59
1, 115240, Note_on_c, 0, 67, 76
1, 115244, Control_c, 0, 64, 65
1, 115258, Control_c, 0, 64, 62
1, 115273, Control_c, 0, 64, 59
1, 115288, Control_c, 0, 64, 57
1, 115303, Note_off_c, 0, 67, 62
1, 115303, Control_c, 0, 64, 56
1, 115318, Control_c, 0, 64, 55
1, 115326, Note_on_c, 0, 72, 70
1, 115333, Control_c, 0, 64, 52
1, 115348, Control_c, 0, 64, 50
1, 115363, Control_c, 0, 64, 50
1, 115390, Note_off_c, 0, 72, 43
1, 115393, Control_c, 0, 64, 46
1, 115406, Note_on_c, 0, 67, 81
1, 115407, Control_c, 0, 64, 38
1, 115422, Control_c, 0, 64, 21
1, 115437, Control_c, 0, 64, 0
1, 115462, Note_off_c, 0, 67, 64
1, 115470, Note_on_c, 0, 63, 73
1, 115546, Note_off_c, 0, 63, 64
1, 115549, Note_on_c, 0, 60, 74
1, 115550, Note_on_c, 0, 79, 88
1, 115599, Note_off_c, 0, 79, 67
1, 115646, Note_on_c, 0, 63, 78
1, 115655, Note_off_c, 0, 60, 51
1, 115709, Note_off_c, 0, 63, 64
1, 115715, Note_on_c, 0, 67, 82
1, 115788, Note_off_c, 0, 67, 64
1, 115801, Note_on_c, 0, 87, 81
1, 115813, Note_on_c, 0, 72, 79
1, 115815, Control_c, 0, 64, 12
1, 115859, Control_c, 0, 64, 15
1, 115871, Note_off_c, 0, 87, 67
1, 115874, Control_c, 0, 64, 28
1, 115884, Note_on_c, 0, 89, 77
1, 115889, Control_c, 0, 64, 30
1, 115903, Control_c, 0, 64, 27
1, 115912, Note_on_c, 0, 83, 44
1, 115918, Control_c, 0, 64, 25
1, 115940, Note_off_c, 0, 83, 35
1, 115947, Control_c, 0, 64, 28
1, 115962, Note_on_c, 0, 87, 84
1, 115977, Control_c, 0, 64, 26
1, 115992, Control_c, 0, 64, 26
1, 115998, Note_off_c, 0, 89, 56
1, 116022, Control_c, 0, 64, 28
1, 116041, Note_on_c, 0, 86, 81
1, 116051, Control_c, 0, 64, 28
1, 116073, Note_off_c, 0, 87, 64
1, 116081, Control_c, 0, 64, 29
1, 116097, Control_c, 0, 64, 31
1, 116112, Control_c, 0, 64, 32
1, 116115, Note_off_c, 0, 86, 64
1, 116125, Note_on_c, 0, 84, 77
1, 116126, Control_c, 0, 64, 31
1, 116141, Control_c, 0, 64, 31
1, 116156, Control_c, 0, 64, 31
1, 116171, Control_c, 0, 64, 32
1, 116179, Note_off_c, 0, 84, 65
1, 116185, Control_c, 0, 64, 33
1, 116200, Note_on_c, 0, 83, 76
1, 116200, Control_c, 0, 64, 32
1, 116215, Control_c, 0, 64, 31
1, 116220, Note_off_c, 0, 72, 63
1, 116230, Control_c, 0, 64, 30
1, 116245, Control_c, 0, 64, 31
1, 116256, Note_off_c, 0, 83, 59
1, 116260, Control_c, 0, 64, 31
1, 116284, Note_on_c, 0, 84, 70
1, 116290, Control_c, 0, 64, 30
1, 116305, Control_c, 0, 64, 28
1, 116326, Control_c, 0, 64, 25
1, 116341, Control_c, 0, 64, 22
1, 116349, Note_off_c, 0, 84, 64
1, 116356, Control_c, 0, 64, 20
1, 116361, Note_on_c, 0, 86, 58
1, 116370, Control_c, 0, 64, 13
1, 116385, Control_c, 0, 64, 0
1, 116451, Note_on_c, 0, 84, 77
1, 116451, Note_off_c, 0, 86, 65
1, 116527, Note_on_c, 0, 60, 84
1, 116534, Note_on_c, 0, 82, 73
1, 116558, Note_off_c, 0, 84, 63
1, 116574, Note_off_c, 0, 60, 62
1, 116602, Note_off_c, 0, 82, 64
1, 116604, Note_on_c, 0, 81, 77
1, 116659, Note_off_c, 0, 81, 65
1, 116687, Note_on_c, 0, 79, 77
1, 116763, Note_off_c, 0, 79, 61
1, 116769, Note_on_c, 0, 62, 87
1, 116771, Control_c, 0, 64, 8
1, 116773, Note_on_c, 0, 78, 69
1, 116800, Control_c, 0, 64, 0
1, 116833, Note_off_c, 0, 78, 62
1, 116848, Note_on_c, 0, 79, 70
1, 116907, Note_off_c, 0, 79, 64
1, 116922, Note_on_c, 0, 81, 70
1, 117003, Note_on_c, 0, 79, 77
1, 117075, Control_c, 0, 64, 12
1, 117084, Note_off_c, 0, 81, 57
1, 117088, Note_on_c, 0, 78, 72
1, 117090, Control_c, 0, 64, 14
1, 117098, Note_off_c, 0, 79, 62
1, 117120, Control_c, 0, 64, 15
1, 117134, Control_c, 0, 64, 21
1, 117143, Note_off_c, 0, 78, 65
1, 117149, Control_c, 0, 64, 27
1, 117153, Note_on_c, 0, 75, 76
1, 117164, Control_c, 0, 64, 30
1, 117208, Control_c, 0, 64, 30
1, 117222, Note_off_c, 0, 75, 65
1, 117223, Control_c, 0, 64, 32
1, 117238, Control_c, 0, 64, 32
1, 117241, Note_on_c, 0, 74, 77
1, 117253, Note_off_c, 0, 62, 64
1, 117253, Control_c, 0, 64, 30
1, 117268, Control_c, 0, 64, 29
1, 117273, Note_off_c, 0, 74, 65
1, 117297, Control_c, 0, 64, 29
1, 117312, Control_c, 0, 64, 29
1, 117318, Note_on_c, 0, 72, 74
1, 117327, Control_c, 0, 64, 28
1, 117342, Control_c, 0, 64, 26
1, 117357, Control_c, 0, 64, 25
1, 117372, Control_c, 0, 64, 24
1, 117387, Control_c, 0, 64, 24
1, 117401, Control_c, 0, 64, 23
1, 117406, Note_on_c, 0, 70, 71
1, 117408, Note_off_c, 0, 72, 62
1, 117416, Control_c, 0, 64, 21
1, 117431, Control_c, 0, 64, 17
1, 117446, Control_c, 0, 64, 11
1, 117461, Control_c, 0, 64, 9
1, 117463, Note_off_c, 0, 70, 64
1, 117475, Control_c, 0, 64, 8
1, 117478, Note_on_c, 0, 69, 73
1, 117482, Note_on_c, 0, 50, 88
1, 117490, Control_c, 0, 64, 0
1, 117527, Note_off_c, 0, 50, 67
1, 117541, Note_off_c, 0, 69, 66
1, 117569, Note_on_c, 0, 67, 76
1, 117643, Note_on_c, 0, 66, 73
1, 117654, Note_off_c, 0, 67, 61
1, 117730, Note_off_c, 0, 66, 60
1, 117737, Note_on_c, 0, 48, 81
1, 117742, Control_c, 0, 64, 9
1, 117747, Note_on_c, 0, 67, 73
1, 117757, Control_c, 0, 64, 11
1, 117802, Control_c, 0, 64, 13
1, 117824, Control_c, 0, 64, 18
1, 117839, Control_c, 0, 64, 20
1, 117854, Control_c, 0, 64, 19
1, 117869, Control_c, 0, 64, 16
1, 117884, Note_on_c, 0, 46, 82
1, 117884, Control_c, 0, 64, 15
1, 117898, Control_c, 0, 64, 15
1, 117901, Note_off_c, 0, 48, 58
1, 117913, Control_c, 0, 64, 15
1, 117928, Control_c, 0, 64, 9
1, 117943, Control_c, 0, 64, 0
1, 118012, Note_on_c, 0, 45, 74
1, 118016, Note_off_c, 0, 46, 64
1, 118121, Note_off_c, 0, 67, 43
1, 118126, Note_on_c, 0, 43, 76
1, 118132, Note_off_c, 0, 45, 65
1, 118258, Note_on_c, 0, 46, 77
1, 118272, Note_off_c, 0, 43, 63
1, 118365, Note_off_c, 0, 46, 64
1, 118370, Note_on_c, 0, 45, 78
1, 118482, Note_off_c, 0, 45, 64
1, 118506, Note_on_c, 0, 48, 73
1, 118626, Note_on_c, 0, 42, 75
1, 118627, Note_off_c, 0, 48, 60
1, 118767, Note_on_c, 0, 43, 88
1, 118769, Note_on_c, 0, 55, 71
1, 118788, Note_off_c, 0, 42, 55
1, 118817, Note_off_c, 0, 43, 65
1, 118835, Note_off_c, 0, 55, 42
1, 118841, Note_on_c, 0, 58, 66
1, 118893, Note_off_c, 0, 58, 62
1, 118915, Note_on_c, 0, 62, 71
1, 119020, Note_off_c, 0, 62, 62
1, 119023, Note_on_c, 0, 67, 65
1, 119033, Note_on_c, 0, 38, 76
1, 119081, Note_off_c, 0, 38, 63
1, 119102, Note_off_c, 0, 67, 64
1, 119128, Note_on_c, 0, 62, 64
1, 119131, Poly_aftertouch_c, 0, 36, 0
1, 119183, Note_off_c, 0, 62, 62
1, 119200, Note_on_c, 0, 58, 68
1, 119278, Note_off_c, 0, 58, 65
1, 119298, Note_on_c, 0, 55, 73
1, 119382, Note_off_c, 0, 55, 53
1, 119393, Note_on_c, 0, 58, 66
1, 119443, Note_off_c, 0, 58, 64
1, 119464, Note_on_c, 0, 62, 63
1, 119542, Note_off_c, 0, 62, 64
1, 119557, Note_on_c, 0, 46, 82
1, 119559, Note_on_c, 0, 50, 83
1, 119559, Note_on_c, 0, 67, 67
1, 119609, Note_off_c, 0, 50, 65
1, 119610, Note_off_c, 0, 46, 63
1, 119617, Note_off_c, 0, 67, 51
1, 119657, Note_on_c, 0, 62, 67
1, 119728, Note_off_c, 0, 62, 65
1, 119744, Note_on_c, 0, 58, 58
1, 119801, Note_off_c, 0, 58, 59
1, 119806, Note_on_c, 0, 48, 87
1, 119811, Note_on_c, 0, 45, 75
1, 119827, Note_on_c, 0, 55, 68
1, 119870, Control_c, 0, 64, 31
1, 119885, Control_c, 0, 64, 0
1, 119891, Note_off_c, 0, 55, 59
1, 119906, Note_on_c, 0, 58, 68
1, 119929, Control_c, 0, 64, 17
1, 119944, Control_c, 0, 64, 28
1, 119959, Control_c, 0, 64, 23
1, 119964, Note_off_c, 0, 58, 65
1, 119974, Control_c, 0, 64, 15
1, 119977, Note_on_c, 0, 62, 66
1, 119988, Control_c, 0, 64, 20
1, 120003, Control_c, 0, 64, 30
1, 120018, Control_c, 0, 64, 31
1, 120029, Note_off_c, 0, 62, 64
1, 120033, Control_c, 0, 64, 20
1, 120048, Control_c, 0, 64, 0
1, 120085, Control_c, 0, 64, 21
1, 120087, Note_off_c, 0, 45, 48
1, 120095, Note_on_c, 0, 43, 74
1, 120098, Note_on_c, 0, 46, 79
1, 120099, Note_on_c, 0, 67, 69
1, 120100, Control_c, 0, 64, 17
1, 120115, Control_c, 0, 64, 0
1, 120117, Note_off_c, 0, 48, 54
1, 120159, Control_c, 0, 64, 23
1, 120160, Note_off_c, 0, 67, 43
1, 120174, Control_c, 0, 64, 24
1, 120189, Control_c, 0, 64, 0
1, 120195, Note_on_c, 0, 70, 65
1, 120219, Control_c, 0, 64, 15
1, 120231, Note_off_c, 0, 70, 65
1, 120234, Control_c, 0, 64, 26
1, 120254, Note_on_c, 0, 74, 69
1, 120263, Control_c, 0, 64, 21
1, 120278, Control_c, 0, 64, 15
1, 120281, Note_off_c, 0, 43, 63
1, 120293, Control_c, 0, 64, 17
1, 120308, Control_c, 0, 64, 23
1, 120323, Control_c, 0, 64, 25
1, 120323, Note_off_c, 0, 46, 63
1, 120328, Note_off_c, 0, 74, 65
1, 120338, Control_c, 0, 64, 23
1, 120338, Note_on_c, 0, 79, 66
1, 120352, Control_c, 0, 64, 22
1, 120382, Control_c, 0, 64, 26
1, 120397, Control_c, 0, 64, 29
1, 120400, Note_off_c, 0, 79, 61
1, 120430, Note_on_c, 0, 74, 68
1, 120441, Control_c, 0, 64, 30
1, 120456, Control_c, 0, 64, 33
1, 120471, Control_c, 0, 64, 33
1, 120486, Control_c, 0, 64, 31
1, 120489, Note_off_c, 0, 74, 62
1, 120500, Control_c, 0, 64, 29
1, 120509, Note_on_c, 0, 70, 63
1, 120515, Control_c, 0, 64, 28
1, 120544, Control_c, 0, 64, 25
1, 120557, Note_off_c, 0, 70, 58
1, 120559, Control_c, 0, 64, 10
1, 120571, Note_on_c, 0, 58, 86
1, 120574, Control_c, 0, 64, 0
1, 120575, Note_on_c, 0, 50, 75
1, 120586, Note_on_c, 0, 67, 73
1, 120624, Note_off_c, 0, 50, 63
1, 120631, Note_off_c, 0, 58, 62
1, 120657, Note_off_c, 0, 67, 45
1, 120666, Note_on_c, 0, 70, 67
1, 120729, Note_off_c, 0, 70, 63
1, 120735, Note_on_c, 0, 74, 67
1, 120800, Note_off_c, 0, 74, 63
1, 120824, Note_on_c, 0, 57, 88
1, 120833, Note_on_c, 0, 48, 79
1, 120835, Note_on_c, 0, 67, 77
1, 120877, Control_c, 0, 64, 21
1, 120894, Control_c, 0, 64, 54
1, 120908, Note_off_c, 0, 67, 59
1, 120909, Control_c, 0, 64, 56
1, 120917, Note_on_c, 0, 70, 70
1, 120928, Note_off_c, 0, 57, 61
1, 120938, Control_c, 0, 64, 58
1, 120953, Control_c, 0, 64, 61
1, 120967, Control_c, 0, 64, 62
1, 120970, Note_off_c, 0, 70, 62
1, 120991, Note_on_c, 0, 74, 69
1, 121012, Poly_aftertouch_c, 0, 51, 127
1, 121012, Control_c, 0, 64, 62
1, 121027, Control_c, 0, 64, 59
1, 121041, Control_c, 0, 64, 53
1, 121047, Note_off_c, 0, 74, 64
1, 121056, Control_c, 0, 64, 47
1, 121057, Note_off_c, 0, 48, 51
1, 121071, Control_c, 0, 64, 44
1, 121079, Poly_aftertouch_c, 0, 51, 0
1, 121086, Note_on_c, 0, 46, 75
1, 121086, Control_c, 0, 64, 46
1, 121089, Note_on_c, 0, 55, 83
1, 121101, Control_c, 0, 64, 53
1, 121111, Note_on_c, 0, 79, 65
1, 121116, Control_c, 0, 64, 59
1, 121131, Control_c, 0, 64, 62
1, 121166, Note_off_c, 0, 79, 48
1, 121175, Control_c, 0, 64, 61
1, 121182, Note_on_c, 0, 82, 70
1, 121205, Control_c, 0, 64, 59
1, 121220, Control_c, 0, 64, 57
1, 121222, Note_off_c, 0, 46, 64
1, 121235, Note_off_c, 0, 55, 55
1, 121235, Control_c, 0, 64, 55
1, 121247, Note_off_c, 0, 82, 60
1, 121259, Note_on_c, 0, 84, 76
1, 121264, Control_c, 0, 64, 56
1, 121279, Control_c, 0, 64, 56
1, 121294, Control_c, 0, 64, 56
1, 121309, Control_c, 0, 64, 55
1, 121332, Note_on_c, 0, 86, 83
1, 121332, Note_off_c, 0, 84, 65
1, 121338, Control_c, 0, 64, 56
1, 121367, Control_c, 0, 64, 54
1, 121382, Control_c, 0, 64, 53
1, 121397, Control_c, 0, 64, 54
1, 121412, Control_c, 0, 64, 55
1, 121417, Note_on_c, 0, 84, 78
1, 121427, Control_c, 0, 64, 54
1, 121441, Note_off_c, 0, 86, 58
1, 121441, Control_c, 0, 64, 52
1, 121456, Control_c, 0, 64, 52
1, 121471, Control_c, 0, 64, 52
1, 121486, Note_on_c, 0, 82, 74
1, 121486, Control_c, 0, 64, 53
1, 121500, Control_c, 0, 64, 50
1, 121505, Note_off_c, 0, 84, 64
1, 121515, Control_c, 0, 64, 46
1, 121530, Control_c, 0, 64, 43
1, 121545, Control_c, 0, 64, 46
1, 121550, Note_off_c, 0, 82, 64
1, 121567, Control_c, 0, 64, 53
1, 121569, Note_on_c, 0, 81, 78
1, 121572, Note_on_c, 0, 62, 74
1, 121582, Control_c, 0, 64, 58
1, 121597, Control_c, 0, 64, 59
1, 121612, Control_c, 0, 64, 58
1, 121614, Note_off_c, 0, 62, 62
1, 121626, Note_off_c, 0, 81, 63
1, 121627, Control_c, 0, 64, 56
1, 121641, Control_c, 0, 64, 56
1, 121644, Note_on_c, 0, 79, 79
1, 121656, Control_c, 0, 64, 55
1, 121671, Control_c, 0, 64, 51
1, 121686, Control_c, 0, 64, 40
1, 121701, Note_off_c, 0, 79, 65
1, 121702, Control_c, 0, 64, 27
1, 121717, Control_c, 0, 64, 25
1, 121732, Control_c, 0, 64, 26
1, 121736, Note_on_c, 0, 78, 71
1, 121745, Control_c, 0, 64, 24
1, 121760, Control_c, 0, 64, 18
1, 121775, Control_c, 0, 64, 15
1, 121790, Control_c, 0, 64, 26
1, 121791, Note_on_c, 0, 70, 80
1, 121794, Note_off_c, 0, 78, 63
1, 121804, Control_c, 0, 64, 49
1, 121805, Note_on_c, 0, 79, 89
1, 121819, Control_c, 0, 64, 61
1, 121834, Control_c, 0, 64, 61
1, 121855, Note_off_c, 0, 79, 66
1, 121864, Control_c, 0, 64, 62
1, 121864, Note_off_c, 0, 70, 61
1, 121879, Control_c, 0, 64, 62
1, 121882, Note_on_c, 0, 72, 76
1, 121923, Control_c, 0, 64, 62
1, 121931, Note_off_c, 0, 72, 44
1, 121938, Control_c, 0, 64, 61
1, 121942, Note_on_c, 0, 70, 80
1, 121983, Control_c, 0, 64, 59
1, 121997, Control_c, 0, 64, 56
1, 121999, Note_off_c, 0, 70, 63
1, 122012, Control_c, 0, 64, 55
1, 122027, Control_c, 0, 64, 56
1, 122028, Note_on_c, 0, 82, 73
1, 122034, Note_on_c, 0, 69, 74
1, 122042, Control_c, 0, 64, 56
1, 122086, Note_off_c, 0, 82, 66
1, 122089, Note_on_c, 0, 81, 73
1, 122100, Note_on_c, 0, 67, 77
1, 122101, Control_c, 0, 64, 57
1, 122103, Note_off_c, 0, 69, 65
1, 122115, Control_c, 0, 64, 56
1, 122130, Control_c, 0, 64, 53
1, 122141, Note_on_c, 0, 79, 69
1, 122145, Control_c, 0, 64, 49
1, 122150, Note_off_c, 0, 81, 63
1, 122160, Control_c, 0, 64, 48
1, 122172, Note_on_c, 0, 66, 81
1, 122175, Control_c, 0, 64, 48
1, 122178, Note_off_c, 0, 67, 64
1, 122189, Control_c, 0, 64, 44
1, 122191, Note_off_c, 0, 79, 64
1, 122204, Control_c, 0, 64, 39
1, 122218, Note_on_c, 0, 81, 69
1, 122219, Control_c, 0, 64, 37
1, 122234, Control_c, 0, 64, 41
1, 122249, Control_c, 0, 64, 45
1, 122253, Note_off_c, 0, 66, 64
1, 122260, Note_on_c, 0, 67, 81
1, 122264, Control_c, 0, 64, 42
1, 122267, Note_off_c, 0, 81, 65
1, 122278, Note_on_c, 0, 82, 80
1, 122278, Control_c, 0, 64, 40
1, 122293, Control_c, 0, 64, 42
1, 122295, Poly_aftertouch_c, 0, 85, 0
1, 122315, Control_c, 0, 64, 52
1, 122330, Control_c, 0, 64, 59
1, 122341, Note_off_c, 0, 67, 64
1, 122345, Control_c, 0, 64, 58
1, 122347, Note_on_c, 0, 69, 81
1, 122360, Control_c, 0, 64, 58
1, 122419, Control_c, 0, 64, 55
1, 122428, Note_off_c, 0, 69, 58
1, 122434, Control_c, 0, 64, 52
1, 122435, Note_on_c, 0, 67, 81
1, 122449, Control_c, 0, 64, 51
1, 122463, Control_c, 0, 64, 53
1, 122478, Control_c, 0, 64, 53
1, 122495, Control_c, 0, 64, 51
1, 122510, Control_c, 0, 64, 48
1, 122520, Note_on_c, 0, 65, 73
1, 122523, Note_on_c, 0, 74, 79
1, 122523, Note_off_c, 0, 67, 64
1, 122525, Control_c, 0, 64, 47
1, 122539, Control_c, 0, 64, 48
1, 122554, Control_c, 0, 64, 50
1, 122569, Control_c, 0, 64, 49
1, 122584, Control_c, 0, 64, 48
1, 122588, Note_off_c, 0, 65, 64
1, 122599, Control_c, 0, 64, 46
1, 122611, Note_on_c, 0, 64, 75
1, 122628, Control_c, 0, 64, 47
1, 122643, Control_c, 0, 64, 48
1, 122658, Control_c, 0, 64, 47
1, 122673, Control_c, 0, 64, 47
1, 122687, Control_c, 0, 64, 46
1, 122693, Note_off_c, 0, 64, 59
1, 122696, Note_on_c, 0, 62, 81
1, 122702, Control_c, 0, 64, 45
1, 122717, Control_c, 0, 64, 44
1, 122732, Control_c, 0, 64, 42
1, 122746, Control_c, 0, 64, 39
1, 122761, Control_c, 0, 64, 36
1, 122772, Note_on_c, 0, 76, 81
1, 122775, Note_off_c, 0, 62, 65
1, 122776, Control_c, 0, 64, 37
1, 122779, Note_on_c, 0, 61, 73
1, 122781, Note_off_c, 0, 74, 41
1, 122791, Control_c, 0, 64, 42
1, 122806, Control_c, 0, 64, 43
1, 122821, Control_c, 0, 64, 44
1, 122836, Control_c, 0, 64, 46
1, 122848, Note_off_c, 0, 61, 60
1, 122851, Control_c, 0, 64, 47
1, 122862, Note_on_c, 0, 62, 79
1, 122866, Control_c, 0, 64, 48
1, 122881, Control_c, 0, 64, 47
1, 122895, Control_c, 0, 64, 44
1, 122910, Control_c, 0, 64, 37
1, 122925, Control_c, 0, 64, 31
1, 122938, Note_off_c, 0, 62, 65
1, 122939, Control_c, 0, 64, 29
1, 122946, Note_on_c, 0, 64, 75
1, 122954, Control_c, 0, 64, 28
1, 122969, Control_c, 0, 64, 23
1, 122984, Control_c, 0, 64, 15
1, 122999, Control_c, 0, 64, 15
1, 123013, Control_c, 0, 64, 28
1, 123018, Note_on_c, 0, 80, 81
1, 123021, Note_off_c, 0, 64, 60
1, 123028, Control_c, 0, 64, 44
1, 123029, Note_off_c, 0, 82, 60
1, 123030, Note_on_c, 0, 62, 73
1, 123043, Control_c, 0, 64, 51
1, 123065, Control_c, 0, 64, 51
1, 123080, Control_c, 0, 64, 53
1, 123095, Control_c, 0, 64, 58
1, 123110, Control_c, 0, 64, 63
1, 123116, Note_off_c, 0, 76, 51
1, 123116, Note_off_c, 0, 62, 64
1, 123118, Note_on_c, 0, 61, 73
1, 123125, Control_c, 0, 64, 62
1, 123139, Control_c, 0, 64, 58
1, 123151, Note_on_c, 0, 74, 80
1, 123154, Control_c, 0, 64, 54
1, 123169, Control_c, 0, 64, 52
1, 123184, Control_c, 0, 64, 53
1, 123199, Control_c, 0, 64, 57
1, 123210, Note_on_c, 0, 58, 78
1, 123211, Note_off_c, 0, 61, 63
1, 123214, Control_c, 0, 64, 59
1, 123220, Note_off_c, 0, 80, 56
1, 123228, Control_c, 0, 64, 61
1, 123257, Control_c, 0, 64, 55
1, 123267, Note_off_c, 0, 58, 65
1, 123268, Note_off_c, 0, 74, 61
1, 123271, Control_c, 0, 64, 41
1, 123285, Note_on_c, 0, 81, 81
1, 123288, Control_c, 0, 64, 17
1, 123290, Note_on_c, 0, 73, 61
1, 123294, Note_on_c, 0, 57, 82
1, 123303, Control_c, 0, 64, 0
1, 123317, Control_c, 0, 64, 23
1, 123332, Control_c, 0, 64, 46
1, 123347, Control_c, 0, 64, 61
1, 123361, Control_c, 0, 64, 64
1, 123365, Note_off_c, 0, 57, 57
1, 123369, Note_on_c, 0, 55, 85
1, 123378, Note_off_c, 0, 81, 62
1, 123421, Control_c, 0, 64, 65
1, 123435, Control_c, 0, 64, 66
1, 123456, Note_off_c, 0, 73, 61
1, 123457, Note_on_c, 0, 53, 75
1, 123461, Note_off_c, 0, 55, 63
1, 123480, Control_c, 0, 64, 65
1, 123495, Control_c, 0, 64, 61
1, 123510, Control_c, 0, 64, 45
1, 123515, Note_off_c, 0, 53, 63
1, 123524, Control_c, 0, 64, 0
1, 123531, Note_on_c, 0, 79, 85
1, 123536, Note_on_c, 0, 52, 82
1, 123538, Note_on_c, 0, 69, 80
1, 123546, Note_on_c, 0, 76, 53
1, 123569, Control_c, 0, 64, 20
1, 123584, Control_c, 0, 64, 48
1, 123599, Control_c, 0, 64, 62
1, 123614, Control_c, 0, 64, 66
1, 123615, Note_off_c, 0, 76, 63
1, 123624, Note_off_c, 0, 52, 36
1, 123628, Note_on_c, 0, 50, 78
1, 123629, Control_c, 0, 64, 68
1, 123637, Note_off_c, 0, 69, 61
1, 123643, Control_c, 0, 64, 71
1, 123658, Control_c, 0, 64, 74
1, 123673, Control_c, 0, 64, 75
1, 123688, Control_c, 0, 64, 75
1, 123703, Control_c, 0, 64, 70
1, 123704, Note_on_c, 0, 49, 83
1, 123707, Note_off_c, 0, 50, 66
1, 123717, Control_c, 0, 64, 57
1, 123732, Control_c, 0, 64, 14
1, 123747, Control_c, 0, 64, 0
1, 123816, Note_on_c, 0, 50, 85
1, 123816, Note_on_c, 0, 77, 88
1, 123817, Note_on_c, 0, 69, 77
1, 123824, Note_off_c, 0, 79, 58
1, 123829, Note_off_c, 0, 49, 59
1, 123873, Control_c, 0, 64, 57
1, 123887, Control_c, 0, 64, 64
1, 123906, Note_on_c, 0, 53, 77
1, 123911, Note_off_c, 0, 50, 66
1, 123917, Control_c, 0, 64, 66
1, 123932, Control_c, 0, 64, 67
1, 123947, Control_c, 0, 64, 68
1, 123955, Note_off_c, 0, 53, 56
1, 123981, Note_on_c, 0, 57, 79
1, 123990, Control_c, 0, 64, 65
1, 124005, Control_c, 0, 64, 44
1, 124020, Control_c, 0, 64, 0
1, 124071, Note_off_c, 0, 57, 56
1, 124072, Note_on_c, 0, 48, 73
1, 124077, Note_on_c, 0, 76, 84
1, 124085, Note_off_c, 0, 69, 0
1, 124085, Note_on_c, 0, 69, 9
1, 124095, Control_c, 0, 64, 46
1, 124110, Control_c, 0, 64, 66
1, 124124, Note_off_c, 0, 77, 64
1, 124125, Control_c, 0, 64, 68
1, 124139, Control_c, 0, 64, 70
1, 124142, Note_off_c, 0, 76, 64
1, 124154, Control_c, 0, 64, 72
1, 124169, Control_c, 0, 64, 76
1, 124170, Note_off_c, 0, 48, 63
1, 124177, Note_on_c, 0, 52, 70
1, 124183, Control_c, 0, 64, 80
1, 124184, Note_on_c, 0, 53, 71
1, 124195, Note_off_c, 0, 69, 55
1, 124198, Control_c, 0, 64, 83
1, 124207, Note_off_c, 0, 53, 59
1, 124213, Control_c, 0, 64, 85
1, 124220, Note_off_c, 0, 52, 54
1, 124228, Control_c, 0, 64, 88
1, 124243, Control_c, 0, 64, 94
1, 124245, Note_on_c, 0, 57, 75
1, 124258, Control_c, 0, 64, 98
1, 124273, Control_c, 0, 64, 101
1, 124302, Control_c, 0, 64, 100
1, 124317, Control_c, 0, 64, 79
1, 124332, Control_c, 0, 64, 59
1, 124332, Note_on_c, 0, 74, 84
1, 124341, Note_on_c, 0, 47, 76
1, 124347, Control_c, 0, 64, 21
1, 124352, Note_on_c, 0, 65, 75
1, 124354, Note_off_c, 0, 57, 53
1, 124362, Control_c, 0, 64, 0
1, 124377, Control_c, 0, 64, 27
1, 124391, Control_c, 0, 64, 54
1, 124406, Control_c, 0, 64, 70
1, 124417, Note_on_c, 0, 68, 27
1, 124421, Control_c, 0, 64, 76
1, 124434, Note_on_c, 0, 50, 75
1, 124436, Control_c, 0, 64, 83
1, 124437, Note_off_c, 0, 47, 65
1, 124451, Control_c, 0, 64, 90
1, 124465, Control_c, 0, 64, 98
1, 124468, Note_off_c, 0, 50, 66
1, 124480, Control_c, 0, 64, 108
1, 124495, Control_c, 0, 64, 119
1, 124504, Note_on_c, 0, 57, 73
1, 124509, Control_c, 0, 64, 127
1, 124518, Note_off_c, 0, 68, 0
1, 124562, Control_c, 0, 64, 101
1, 124563, Poly_aftertouch_c, 0, 68, 127
1, 124574, Note_off_c, 0, 65, 65
1, 124577, Control_c, 0, 64, 72
1, 124591, Control_c, 0, 64, 45
1, 124598, Poly_aftertouch_c, 0, 68, 0
1, 124598, Note_off_c, 0, 57, 57
1, 124606, Note_on_c, 0, 62, 88
1, 124606, Control_c, 0, 64, 0
1, 124609, Note_on_c, 0, 46, 78
1, 124636, Control_c, 0, 64, 11
1, 124642, Note_off_c, 0, 74, 0
1, 124642, Note_on_c, 0, 74, 3
1, 124651, Control_c, 0, 64, 50
1, 124665, Control_c, 0, 64, 69
1, 124680, Control_c, 0, 64, 81
1, 124688, Note_off_c, 0, 46, 64
1, 124695, Control_c, 0, 64, 106
1, 124700, Note_on_c, 0, 50, 80
1, 124709, Control_c, 0, 64, 127
1, 124718, Note_off_c, 0, 62, 59
1, 124773, Note_off_c, 0, 50, 66
1, 124787, Note_on_c, 0, 56, 69
1, 124828, Control_c, 0, 64, 75
1, 124833, Note_off_c, 0, 56, 60
1, 124843, Control_c, 0, 64, 50
1, 124857, Control_c, 0, 64, 0
1, 124900, Note_on_c, 0, 45, 91
1, 124905, Note_on_c, 0, 73, 78
1, 124918, Control_c, 0, 64, 31
1, 124921, Note_off_c, 0, 74, 29
1, 124932, Control_c, 0, 64, 52
1, 124947, Control_c, 0, 64, 53
1, 124962, Control_c, 0, 64, 49
1, 124977, Control_c, 0, 64, 47
1, 124984, Note_off_c, 0, 73, 65
1, 124989, Note_on_c, 0, 69, 76
1, 124992, Control_c, 0, 64, 48
1, 125006, Control_c, 0, 64, 52
1, 125021, Control_c, 0, 64, 51
1, 125036, Control_c, 0, 64, 47
1, 125051, Control_c, 0, 64, 42
1, 125055, Note_off_c, 0, 69, 66
1, 125066, Control_c, 0, 64, 44
1, 125073, Note_on_c, 0, 73, 77
1, 125081, Control_c, 0, 64, 49
1, 125095, Control_c, 0, 64, 51
1, 125110, Control_c, 0, 64, 50
1, 125125, Control_c, 0, 64, 50
1, 125126, Note_off_c, 0, 73, 64
1, 125155, Control_c, 0, 64, 52
1, 125157, Note_on_c, 0, 76, 82
1, 125170, Control_c, 0, 64, 53
1, 125229, Control_c, 0, 64, 55
1, 125230, Note_off_c, 0, 76, 59
1, 125240, Note_on_c, 0, 81, 70
1, 125244, Control_c, 0, 64, 55
1, 125259, Control_c, 0, 64, 54
1, 125274, Control_c, 0, 64, 53
1, 125292, Note_off_c, 0, 81, 62
1, 125316, Note_on_c, 0, 85, 76
1, 125325, Control_c, 0, 64, 50
1, 125340, Control_c, 0, 64, 44
1, 125355, Control_c, 0, 64, 38
1, 125370, Control_c, 0, 64, 36
1, 125385, Control_c, 0, 64, 37
1, 125399, Note_off_c, 0, 85, 64
1, 125399, Control_c, 0, 64, 41
1, 125401, Note_on_c, 0, 88, 80
1, 125429, Control_c, 0, 64, 36
1, 125444, Control_c, 0, 64, 34
1, 125458, Note_off_c, 0, 45, 63
1, 125474, Control_c, 0, 64, 36
1, 125489, Control_c, 0, 64, 38
1, 125489, Note_on_c, 0, 86, 76
1, 125499, Note_off_c, 0, 88, 67
1, 125504, Control_c, 0, 64, 36
1, 125519, Control_c, 0, 64, 35
1, 125533, Control_c, 0, 64, 37
1, 125548, Control_c, 0, 64, 43
1, 125554, Note_on_c, 0, 85, 74
1, 125563, Note_off_c, 0, 86, 63
1, 125563, Control_c, 0, 64, 45
1, 125578, Control_c, 0, 64, 41
1, 125593, Control_c, 0, 64, 37
1, 125607, Control_c, 0, 64, 36
1, 125622, Control_c, 0, 64, 39
1, 125628, Note_off_c, 0, 85, 63
1, 125637, Note_on_c, 0, 82, 67
1, 125652, Control_c, 0, 64, 36
1, 125667, Control_c, 0, 64, 32
1, 125683, Control_c, 0, 64, 29
1, 125690, Note_off_c, 0, 82, 63
1, 125698, Control_c, 0, 64, 29
1, 125707, Note_on_c, 0, 81, 71
1, 125712, Control_c, 0, 64, 30
1, 125727, Control_c, 0, 64, 28
1, 125742, Control_c, 0, 64, 25
1, 125771, Control_c, 0, 64, 28
1, 125782, Note_off_c, 0, 81, 37
1, 125786, Control_c, 0, 64, 31
1, 125789, Note_on_c, 0, 79, 71
1, 125801, Control_c, 0, 64, 29
1, 125816, Control_c, 0, 64, 29
1, 125830, Control_c, 0, 64, 30
1, 125845, Control_c, 0, 64, 33
1, 125860, Control_c, 0, 64, 34
1, 125872, Note_off_c, 0, 79, 64
1, 125875, Control_c, 0, 64, 31
1, 125879, Note_on_c, 0, 77, 73
1, 125890, Control_c, 0, 64, 30
1, 125904, Control_c, 0, 64, 31
1, 125919, Control_c, 0, 64, 35
1, 125934, Control_c, 0, 64, 36
1, 125949, Control_c, 0, 64, 33
1, 125963, Control_c, 0, 64, 32
1, 125968, Note_on_c, 0, 50, 76
1, 125978, Control_c, 0, 64, 33
1, 125993, Control_c, 0, 64, 35
1, 126008, Control_c, 0, 64, 37
1, 126023, Control_c, 0, 64, 35
1, 126037, Control_c, 0, 64, 33
1, 126046, Note_on_c, 0, 53, 70
1, 126062, Note_off_c, 0, 50, 62
1, 126075, Control_c, 0, 64, 35
1, 126090, Control_c, 0, 64, 36
1, 126119, Control_c, 0, 64, 34
1, 126125, Note_on_c, 0, 57, 79
1, 126131, Note_off_c, 0, 53, 63
1, 126149, Control_c, 0, 64, 36
1, 126158, Note_off_c, 0, 57, 63
1, 126163, Control_c, 0, 64, 38
1, 126178, Control_c, 0, 64, 39
1, 126193, Control_c, 0, 64, 38
1, 126206, Note_on_c, 0, 62, 70
1, 126223, Control_c, 0, 64, 39
1, 126231, Note_off_c, 0, 62, 70
1, 126237, Control_c, 0, 64, 42
1, 126267, Control_c, 0, 64, 41
1, 126277, Note_on_c, 0, 65, 82
1, 126306, Note_off_c, 0, 77, 63
1, 126312, Control_c, 0, 64, 42
1, 126341, Control_c, 0, 64, 42
1, 126342, Note_off_c, 0, 65, 63
1, 126356, Control_c, 0, 64, 41
1, 126366, Note_on_c, 0, 69, 85
1, 126371, Control_c, 0, 64, 42
1, 126386, Control_c, 0, 64, 43
1, 126401, Control_c, 0, 64, 42
1, 126416, Control_c, 0, 64, 40
1, 126421, Note_off_c, 0, 69, 57
1, 126430, Control_c, 0, 64, 38
1, 126444, Note_on_c, 0, 67, 81
1, 126445, Control_c, 0, 64, 39
1, 126460, Control_c, 0, 64, 41
1, 126490, Control_c, 0, 64, 40
1, 126505, Control_c, 0, 64, 39
1, 126520, Control_c, 0, 64, 40
1, 126526, Note_on_c, 0, 65, 75
1, 126526, Note_off_c, 0, 67, 62
1, 126535, Control_c, 0, 64, 41
1, 126565, Control_c, 0, 64, 40
1, 126579, Control_c, 0, 64, 39
1, 126594, Control_c, 0, 64, 40
1, 126598, Note_on_c, 0, 77, 80
1, 126601, Note_on_c, 0, 86, 80
1, 126609, Control_c, 0, 64, 41
1, 126610, Note_on_c, 0, 64, 77
1, 126613, Note_off_c, 0, 65, 63
1, 126624, Control_c, 0, 64, 40
1, 126639, Control_c, 0, 64, 37
1, 126653, Control_c, 0, 64, 35
1, 126654, Note_off_c, 0, 77, 65
1, 126663, Note_off_c, 0, 86, 64
1, 126668, Control_c, 0, 64, 35
1, 126672, Note_off_c, 0, 64, 64
1, 126683, Control_c, 0, 64, 34
1, 126698, Note_on_c, 0, 65, 83
1, 126698, Control_c, 0, 64, 29
1, 126713, Control_c, 0, 64, 18
1, 126727, Control_c, 0, 64, 0
1, 126763, Note_on_c, 0, 62, 81
1, 126771, Note_off_c, 0, 65, 62
1, 126854, Control_c, 0, 64, 33
1, 126854, Note_off_c, 0, 62, 64
1, 126856, Note_on_c, 0, 85, 75
1, 126858, Note_on_c, 0, 76, 81
1, 126863, Note_on_c, 0, 57, 88
1, 126868, Control_c, 0, 64, 53
1, 126880, Note_off_c, 0, 85, 68
1, 126883, Control_c, 0, 64, 58
1, 126896, Note_off_c, 0, 76, 61
1, 126927, Control_c, 0, 64, 57
1, 126942, Control_c, 0, 64, 55
1, 126957, Control_c, 0, 64, 53
1, 126972, Control_c, 0, 64, 51
1, 126984, Note_on_c, 0, 69, 74
1, 126986, Control_c, 0, 64, 49
1, 127001, Control_c, 0, 64, 47
1, 127016, Control_c, 0, 64, 48
1, 127031, Control_c, 0, 64, 52
1, 127045, Note_off_c, 0, 69, 65
1, 127046, Control_c, 0, 64, 56
1, 127048, Note_on_c, 0, 73, 72
1, 127060, Control_c, 0, 64, 56
1, 127101, Note_off_c, 0, 73, 64
1, 127134, Note_on_c, 0, 76, 81
1, 127134, Control_c, 0, 64, 55
1, 127149, Control_c, 0, 64, 52
1, 127164, Control_c, 0, 64, 51
1, 127179, Control_c, 0, 64, 52
1, 127194, Control_c, 0, 64, 52
1, 127207, Note_off_c, 0, 76, 55
1, 127209, Control_c, 0, 64, 52
1, 127215, Note_on_c, 0, 81, 75
1, 127224, Control_c, 0, 64, 50
1, 127253, Control_c, 0, 64, 51
1, 127268, Control_c, 0, 64, 52
1, 127268, Note_off_c, 0, 81, 66
1, 127295, Note_on_c, 0, 85, 67
1, 127298, Control_c, 0, 64, 51
1, 127371, Note_on_c, 0, 88, 83
1, 127373, Control_c, 0, 64, 50
1, 127376, Note_off_c, 0, 85, 64
1, 127388, Control_c, 0, 64, 49
1, 127393, Note_off_c, 0, 57, 64
1, 127402, Control_c, 0, 64, 47
1, 127417, Control_c, 0, 64, 45
1, 127432, Control_c, 0, 64, 45
1, 127447, Control_c, 0, 64, 45
1, 127457, Note_on_c, 0, 86, 77
1, 127474, Note_off_c, 0, 88, 67
1, 127476, Control_c, 0, 64, 45
1, 127491, Control_c, 0, 64, 44
1, 127506, Control_c, 0, 64, 43
1, 127521, Control_c, 0, 64, 45
1, 127522, Note_on_c, 0, 85, 79
1, 127544, Note_off_c, 0, 86, 61
1, 127558, Control_c, 0, 64, 44
1, 127573, Control_c, 0, 64, 43
1, 127587, Control_c, 0, 64, 43
1, 127602, Note_off_c, 0, 85, 65
1, 127602, Control_c, 0, 64, 45
1, 127608, Note_on_c, 0, 82, 66
1, 127632, Control_c, 0, 64, 44
1, 127647, Control_c, 0, 64, 43
1, 127671, Note_off_c, 0, 82, 64
1, 127677, Control_c, 0, 64, 44
1, 127686, Note_on_c, 0, 81, 66
1, 127706, Control_c, 0, 64, 43
1, 127750, Control_c, 0, 64, 44
1, 127762, Note_on_c, 0, 79, 74
1, 127764, Note_off_c, 0, 81, 46
1, 127780, Control_c, 0, 64, 44
1, 127795, Control_c, 0, 64, 43
1, 127809, Control_c, 0, 64, 44
1, 127824, Control_c, 0, 64, 44
1, 127854, Note_on_c, 0, 77, 82
1, 127854, Control_c, 0, 64, 44
1, 127855, Note_off_c, 0, 79, 64
1, 127883, Control_c, 0, 64, 44
1, 127898, Control_c, 0, 64, 46
1, 127935, Note_on_c, 0, 50, 70
1, 127942, Control_c, 0, 64, 45
1, 127957, Control_c, 0, 64, 46
1, 127972, Control_c, 0, 64, 47
1, 127987, Control_c, 0, 64, 47
1, 128007, Note_on_c, 0, 53, 74
1, 128009, Note_off_c, 0, 50, 61
1, 128047, Control_c, 0, 64, 48
1, 128077, Control_c, 0, 64, 48
1, 128089, Note_off_c, 0, 53, 62
1, 128091, Note_on_c, 0, 57, 77
1, 128106, Control_c, 0, 64, 48
1, 128121, Control_c, 0, 64, 49
1, 128136, Note_off_c, 0, 57, 55
1, 128157, Note_on_c, 0, 62, 75
1, 128193, Note_off_c, 0, 62, 65
1, 128196, Control_c, 0, 64, 50
1, 128238, Note_on_c, 0, 65, 87
1, 128281, Note_off_c, 0, 77, 62
1, 128285, Control_c, 0, 64, 50
1, 128311, Note_off_c, 0, 65, 63
1, 128329, Note_on_c, 0, 69, 86
1, 128336, Control_c, 0, 64, 50
1, 128395, Control_c, 0, 64, 49
1, 128397, Note_off_c, 0, 69, 47
1, 128410, Note_on_c, 0, 67, 82
1, 128410, Control_c, 0, 64, 49
1, 128470, Control_c, 0, 64, 48
1, 128484, Control_c, 0, 64, 47
1, 128495, Note_on_c, 0, 65, 74
1, 128495, Note_off_c, 0, 67, 64
1, 128499, Control_c, 0, 64, 46
1, 128528, Control_c, 0, 64, 49
1, 128543, Control_c, 0, 64, 53
1, 128557, Control_c, 0, 64, 57
1, 128563, Note_on_c, 0, 86, 85
1, 128568, Note_on_c, 0, 77, 77
1, 128572, Control_c, 0, 64, 58
1, 128574, Note_on_c, 0, 64, 78
1, 128586, Note_off_c, 0, 65, 62
1, 128602, Control_c, 0, 64, 56
1, 128617, Control_c, 0, 64, 51
1, 128619, Note_off_c, 0, 77, 63
1, 128624, Note_off_c, 0, 86, 65
1, 128631, Control_c, 0, 64, 43
1, 128642, Note_off_c, 0, 64, 66
1, 128646, Control_c, 0, 64, 35
1, 128661, Control_c, 0, 64, 17
1, 128671, Note_on_c, 0, 65, 74
1, 128675, Control_c, 0, 64, 0
1, 128731, Note_on_c, 0, 62, 77
1, 128736, Note_off_c, 0, 65, 63
1, 128805, Note_on_c, 0, 76, 75
1, 128808, Note_on_c, 0, 85, 78
1, 128816, Note_off_c, 0, 62, 64
1, 128821, Note_on_c, 0, 57, 83
1, 128825, Control_c, 0, 64, 20
1, 128839, Control_c, 0, 64, 47
1, 128854, Control_c, 0, 64, 46
1, 128869, Control_c, 0, 64, 44
1, 128876, Note_off_c, 0, 76, 57
1, 128884, Control_c, 0, 64, 46
1, 128893, Note_off_c, 0, 85, 65
1, 128895, Note_on_c, 0, 81, 74
1, 128899, Control_c, 0, 64, 51
1, 128914, Control_c, 0, 64, 52
1, 128929, Control_c, 0, 64, 51
1, 128944, Note_off_c, 0, 81, 65
1, 128959, Control_c, 0, 64, 54
1, 128973, Control_c, 0, 64, 60
1, 128974, Note_on_c, 0, 76, 71
1, 128988, Control_c, 0, 64, 61
1, 129003, Control_c, 0, 64, 60
1, 129005, Note_off_c, 0, 76, 63
1, 129018, Control_c, 0, 64, 60
1, 129060, Note_on_c, 0, 73, 72
1, 129084, Control_c, 0, 64, 59
1, 129099, Control_c, 0, 64, 58
1, 129114, Control_c, 0, 64, 57
1, 129125, Note_off_c, 0, 73, 65
1, 129140, Note_on_c, 0, 76, 62
1, 129143, Control_c, 0, 64, 55
1, 129158, Control_c, 0, 64, 50
1, 129173, Control_c, 0, 64, 47
1, 129188, Control_c, 0, 64, 45
1, 129203, Control_c, 0, 64, 46
1, 129209, Note_off_c, 0, 76, 63
1, 129218, Control_c, 0, 64, 44
1, 129225, Note_on_c, 0, 73, 68
1, 129233, Control_c, 0, 64, 38
1, 129248, Control_c, 0, 64, 34
1, 129263, Control_c, 0, 64, 37
1, 129278, Control_c, 0, 64, 41
1, 129279, Note_off_c, 0, 73, 65
1, 129293, Control_c, 0, 64, 39
1, 129298, Note_on_c, 0, 69, 77
1, 129307, Control_c, 0, 64, 38
1, 129322, Control_c, 0, 64, 38
1, 129337, Control_c, 0, 64, 42
1, 129352, Control_c, 0, 64, 46
1, 129359, Note_off_c, 0, 57, 61
1, 129364, Note_off_c, 0, 69, 59
1, 129367, Control_c, 0, 64, 45
1, 129381, Control_c, 0, 64, 45
1, 129384, Note_on_c, 0, 73, 68
1, 129396, Control_c, 0, 64, 45
1, 129411, Control_c, 0, 64, 48
1, 129426, Control_c, 0, 64, 51
1, 129441, Control_c, 0, 64, 51
1, 129451, Note_off_c, 0, 73, 65
1, 129471, Note_on_c, 0, 69, 61
1, 129499, Control_c, 0, 64, 51
1, 129504, Note_off_c, 0, 69, 59
1, 129543, Note_on_c, 0, 64, 75
1, 129559, Control_c, 0, 64, 52
1, 129573, Control_c, 0, 64, 52
1, 129588, Control_c, 0, 64, 52
1, 129603, Control_c, 0, 64, 51
1, 129606, Note_off_c, 0, 64, 63
1, 129617, Note_on_c, 0, 69, 52
1, 129651, Note_on_c, 0, 67, 42
1, 129662, Control_c, 0, 64, 50
1, 129678, Control_c, 0, 64, 49
1, 129682, Note_off_c, 0, 67, 56
1, 129682, Note_off_c, 0, 69, 64
1, 129693, Control_c, 0, 64, 47
1, 129707, Note_on_c, 0, 64, 67
1, 129708, Control_c, 0, 64, 45
1, 129737, Control_c, 0, 64, 46
1, 129752, Control_c, 0, 64, 44
1, 129753, Note_off_c, 0, 64, 62
1, 129767, Control_c, 0, 64, 41
1, 129779, Note_on_c, 0, 61, 69
1, 129782, Control_c, 0, 64, 38
1, 129804, Control_c, 0, 64, 37
1, 129819, Control_c, 0, 64, 35
1, 129834, Control_c, 0, 64, 32
1, 129849, Control_c, 0, 64, 28
1, 129853, Note_off_c, 0, 61, 64
1, 129864, Control_c, 0, 64, 25
1, 129865, Note_on_c, 0, 64, 76
1, 129878, Control_c, 0, 64, 23
1, 129893, Control_c, 0, 64, 22
1, 129908, Control_c, 0, 64, 20
1, 129923, Control_c, 0, 64, 19
1, 129935, Note_off_c, 0, 64, 64
1, 129937, Control_c, 0, 64, 19
1, 129951, Note_on_c, 0, 61, 65
1, 129952, Control_c, 0, 64, 18
1, 129967, Control_c, 0, 64, 17
1, 129982, Control_c, 0, 64, 15
1, 130003, Note_off_c, 0, 61, 64
1, 130023, Note_on_c, 0, 57, 68
1, 130056, Control_c, 0, 64, 14
1, 130071, Control_c, 0, 64, 12
1, 130085, Control_c, 0, 64, 9
1, 130098, Note_off_c, 0, 57, 38
1, 130100, Note_on_c, 0, 61, 75
1, 130100, Control_c, 0, 64, 0
1, 130166, Note_off_c, 0, 61, 64
1, 130177, Note_on_c, 0, 57, 63
1, 130220, Note_off_c, 0, 57, 64
1, 130260, Note_on_c, 0, 52, 70
1, 130306, Note_off_c, 0, 52, 62
1, 130324, Note_on_c, 0, 57, 72
1, 130382, Control_c, 0, 67, 9
1, 130396, Control_c, 0, 67, 11
1, 130403, Note_off_c, 0, 57, 63
1, 130408, Note_on_c, 0, 52, 73
1, 130411, Control_c, 0, 67, 12
1, 130426, Control_c, 0, 67, 12
1, 130456, Control_c, 0, 67, 13
1, 130468, Note_off_c, 0, 52, 63
1, 130471, Control_c, 0, 67, 15
1, 130487, Control_c, 0, 67, 20
1, 130491, Note_on_c, 0, 49, 65
1, 130501, Control_c, 0, 67, 29
1, 130516, Control_c, 0, 67, 37
1, 130531, Control_c, 0, 67, 42
1, 130553, Control_c, 0, 67, 45
1, 130563, Note_off_c, 0, 49, 64
1, 130568, Control_c, 0, 67, 49
1, 130583, Control_c, 0, 67, 50
1, 130583, Note_on_c, 0, 52, 69
1, 130598, Control_c, 0, 67, 50
1, 130627, Control_c, 0, 67, 51
1, 130642, Control_c, 0, 67, 54
1, 130645, Note_off_c, 0, 52, 64
1, 130657, Control_c, 0, 67, 59
1, 130666, Note_on_c, 0, 49, 59
1, 130672, Control_c, 0, 67, 60
1, 130687, Control_c, 0, 67, 61
1, 130702, Note_off_c, 0, 49, 67
1, 130716, Control_c, 0, 67, 61
1, 130724, Note_on_c, 0, 45, 69
1, 130728, Note_on_c, 0, 33, 60
1, 130731, Control_c, 0, 67, 63
1, 130746, Control_c, 0, 67, 66
1, 130760, Control_c, 0, 67, 70
1, 130774, Note_off_c, 0, 33, 55
1, 130775, Control_c, 0, 67, 71
1, 130788, Note_off_c, 0, 45, 63
1, 130803, Note_on_c, 0, 49, 63
1, 130809, Note_on_c, 0, 37, 56
1, 130820, Control_c, 0, 67, 73
1, 130834, Control_c, 0, 67, 78
1, 130849, Note_off_c, 0, 49, 62
1, 130849, Control_c, 0, 67, 86
1, 130855, Note_off_c, 0, 37, 63
1, 130864, Control_c, 0, 67, 92
1, 130879, Note_on_c, 0, 52, 61
1, 130879, Control_c, 0, 67, 93
1, 130886, Note_on_c, 0, 40, 58
1, 130938, Control_c, 0, 67, 92
1, 130940, Note_off_c, 0, 40, 61
1, 130947, Note_off_c, 0, 52, 59
1, 130953, Control_c, 0, 67, 91
1, 130965, Note_on_c, 0, 57, 66
1, 130971, Note_on_c, 0, 45, 63
1, 130983, Control_c, 0, 67, 91
1, 130998, Control_c, 0, 67, 90
1, 131003, Note_off_c, 0, 45, 62
1, 131013, Control_c, 0, 67, 89
1, 131026, Note_off_c, 0, 57, 61
1, 131027, Control_c, 0, 67, 88
1, 131049, Note_on_c, 0, 40, 65
1, 131054, Note_on_c, 0, 52, 67
1, 131081, Note_off_c, 0, 40, 63
1, 131099, Note_off_c, 0, 52, 64
1, 131101, Control_c, 0, 67, 88
1, 131114, Note_on_c, 0, 37, 59
1, 131125, Note_on_c, 0, 49, 59
1, 131160, Control_c, 0, 67, 88
1, 131173, Note_off_c, 0, 37, 60
1, 131188, Note_off_c, 0, 49, 63
1, 131203, Note_on_c, 0, 45, 70
1, 131205, Note_on_c, 0, 33, 65
1, 131249, Control_c, 0, 67, 89
1, 131260, Note_off_c, 0, 45, 60
1, 131264, Control_c, 0, 67, 89
1, 131268, Note_off_c, 0, 33, 59
1, 131293, Note_on_c, 0, 49, 60
1, 131305, Note_on_c, 0, 37, 54
1, 131335, Note_off_c, 0, 49, 63
1, 131340, Note_off_c, 0, 37, 64
1, 131357, Note_on_c, 0, 52, 62
1, 131374, Note_on_c, 0, 40, 53
1, 131432, Note_off_c, 0, 52, 62
1, 131442, Note_off_c, 0, 40, 61
1, 131445, Note_on_c, 0, 57, 70
1, 131463, Note_on_c, 0, 45, 67
1, 131497, Note_off_c, 0, 45, 62
1, 131516, Note_off_c, 0, 57, 64
1, 131524, Control_c, 0, 67, 89
1, 131538, Note_on_c, 0, 52, 61
1, 131539, Control_c, 0, 67, 88
1, 131547, Note_on_c, 0, 40, 61
1, 131554, Control_c, 0, 67, 88
1, 131576, Note_off_c, 0, 40, 62
1, 131591, Note_off_c, 0, 52, 63
1, 131598, Control_c, 0, 67, 88
1, 131605, Note_on_c, 0, 37, 67
1, 131610, Note_on_c, 0, 49, 66
1, 131643, Control_c, 0, 67, 88
1, 131669, Note_off_c, 0, 37, 59
1, 131674, Note_off_c, 0, 49, 63
1, 131696, Note_on_c, 0, 33, 68
1, 131697, Note_on_c, 0, 45, 69
1, 131731, Control_c, 0, 67, 87
1, 131746, Control_c, 0, 67, 87
1, 131756, Note_off_c, 0, 45, 61
1, 131770, Note_on_c, 0, 49, 68
1, 131771, Note_off_c, 0, 33, 54
1, 131783, Note_on_c, 0, 37, 63
1, 131791, Control_c, 0, 67, 86
1, 131805, Control_c, 0, 67, 86
1, 131820, Note_off_c, 0, 49, 63
1, 131840, Note_on_c, 0, 52, 70
1, 131841, Note_on_c, 0, 40, 59
1, 131845, Note_off_c, 0, 37, 63
1, 131865, Control_c, 0, 67, 85
1, 131879, Note_off_c, 0, 52, 64
1, 131880, Control_c, 0, 67, 85
1, 131894, Control_c, 0, 67, 84
1, 131907, Note_off_c, 0, 40, 62
1, 131909, Control_c, 0, 67, 84
1, 131927, Note_on_c, 0, 45, 68
1, 131932, Note_on_c, 0, 57, 76
1, 131939, Control_c, 0, 67, 83
1, 131954, Control_c, 0, 67, 83
1, 131959, Note_off_c, 0, 45, 67
1, 131968, Control_c, 0, 67, 82
1, 131983, Control_c, 0, 67, 82
1, 131999, Note_off_c, 0, 57, 52
1, 132017, Note_on_c, 0, 49, 54
1, 132021, Note_on_c, 0, 61, 73
1, 132028, Control_c, 0, 67, 81
1, 132050, Control_c, 0, 67, 81
1, 132060, Note_off_c, 0, 49, 64
1, 132065, Control_c, 0, 67, 80
1, 132080, Control_c, 0, 67, 80
1, 132086, Note_off_c, 0, 61, 55
1, 132090, Note_on_c, 0, 52, 62
1, 132095, Note_on_c, 0, 64, 65
1, 132110, Control_c, 0, 67, 79
1, 132140, Control_c, 0, 67, 78
1, 132154, Control_c, 0, 67, 78
1, 132160, Note_off_c, 0, 64, 64
1, 132166, Note_off_c, 0, 52, 64
1, 132168, Note_on_c, 0, 69, 77
1, 132169, Control_c, 0, 67, 76
1, 132181, Note_on_c, 0, 57, 68
1, 132184, Control_c, 0, 67, 76
1, 132214, Control_c, 0, 67, 75
1, 132228, Control_c, 0, 67, 72
1, 132240, Note_off_c, 0, 69, 66
1, 132243, Control_c, 0, 64, 11
1, 132243, Control_c, 0, 67, 69
1, 132244, Note_off_c, 0, 57, 61
1, 132252, Note_on_c, 0, 52, 74
1, 132258, Control_c, 0, 64, 17
1, 132258, Control_c, 0, 67, 67
1, 132261, Note_on_c, 0, 64, 63
1, 132272, Control_c, 0, 64, 18
1, 132272, Control_c, 0, 67, 66
1, 132287, Control_c, 0, 64, 17
1, 132287, Control_c, 0, 67, 65
1, 132300, Note_on_c, 0, 63, 21
1, 132301, Note_off_c, 0, 63, 127
1, 132301, Note_off_c, 0, 52, 64
1, 132303, Control_c, 0, 64, 16
1, 132303, Control_c, 0, 67, 61
1, 132315, Note_off_c, 0, 64, 63
1, 132317, Note_on_c, 0, 49, 65
1, 132318, Control_c, 0, 67, 56
1, 132323, Note_on_c, 0, 61, 77
1, 132332, Control_c, 0, 64, 17
1, 132332, Control_c, 0, 67, 50
1, 132347, Control_c, 0, 64, 22
1, 132347, Control_c, 0, 67, 40
1, 132362, Control_c, 0, 64, 23
1, 132362, Control_c, 0, 67, 18
1, 132377, Control_c, 0, 67, 0
1, 132391, Note_off_c, 0, 61, 61
1, 132392, Control_c, 0, 64, 22
1, 132394, Note_off_c, 0, 49, 62
1, 132405, Note_on_c, 0, 45, 72
1, 132406, Control_c, 0, 64, 21
1, 132409, Note_on_c, 0, 57, 80
1, 132436, Control_c, 0, 64, 22
1, 132451, Control_c, 0, 64, 20
1, 132466, Control_c, 0, 64, 0
1, 132487, Note_on_c, 0, 61, 73
1, 132491, Note_off_c, 0, 45, 62
1, 132492, Note_off_c, 0, 57, 56
1, 132495, Note_on_c, 0, 49, 65
1, 132549, Note_off_c, 0, 61, 62
1, 132556, Note_on_c, 0, 64, 69
1, 132557, Note_off_c, 0, 49, 63
1, 132561, Note_on_c, 0, 52, 76
1, 132617, Note_off_c, 0, 64, 64
1, 132640, Note_on_c, 0, 57, 78
1, 132644, Note_off_c, 0, 52, 61
1, 132650, Note_on_c, 0, 45, 73
1, 132688, Control_c, 0, 64, 30
1, 132703, Control_c, 0, 64, 42
1, 132714, Note_off_c, 0, 57, 56
1, 132717, Control_c, 0, 64, 49
1, 132719, Note_on_c, 0, 61, 77
1, 132728, Note_on_c, 0, 49, 71
1, 132732, Control_c, 0, 64, 56
1, 132738, Note_off_c, 0, 45, 61
1, 132747, Control_c, 0, 64, 59
1, 132762, Control_c, 0, 64, 60
1, 132777, Control_c, 0, 64, 60
1, 132780, Note_off_c, 0, 61, 64
1, 132799, Control_c, 0, 64, 61
1, 132804, Note_on_c, 0, 52, 74
1, 132804, Note_on_c, 0, 64, 73
1, 132814, Control_c, 0, 64, 61
1, 132829, Control_c, 0, 64, 62
1, 132843, Note_off_c, 0, 49, 56
1, 132847, Note_off_c, 0, 64, 62
1, 132854, Note_off_c, 0, 52, 62
1, 132889, Note_on_c, 0, 57, 69
1, 132894, Note_on_c, 0, 69, 78
1, 132929, Note_off_c, 0, 57, 61
1, 132933, Control_c, 0, 64, 61
1, 132948, Control_c, 0, 64, 60
1, 132960, Note_off_c, 0, 69, 49
1, 132963, Control_c, 0, 64, 59
1, 132970, Note_on_c, 0, 61, 66
1, 132978, Note_on_c, 0, 73, 76
1, 132978, Control_c, 0, 64, 58
1, 133031, Note_off_c, 0, 73, 65
1, 133038, Note_off_c, 0, 61, 64
1, 133038, Control_c, 0, 64, 57
1, 133041, Note_on_c, 0, 76, 72
1, 133044, Note_on_c, 0, 64, 59
1, 133052, Control_c, 0, 64, 56
1, 133067, Control_c, 0, 64, 56
1, 133082, Control_c, 0, 64, 55
1, 133097, Control_c, 0, 64, 50
1, 133112, Control_c, 0, 64, 37
1, 133118, Note_off_c, 0, 76, 63
1, 133124, Note_off_c, 0, 64, 63
1, 133127, Note_on_c, 0, 81, 83
1, 133127, Control_c, 0, 64, 0
1, 133139, Note_on_c, 0, 69, 75
1, 133173, Note_off_c, 0, 69, 66
1, 133209, Note_off_c, 0, 81, 64
1, 133214, Note_on_c, 0, 76, 76
1, 133219, Note_on_c, 0, 64, 70
1, 133262, Note_on_c, 0, 78, 6
1, 133273, Note_off_c, 0, 64, 65
1, 133281, Note_off_c, 0, 76, 63
1, 133282, Note_on_c, 0, 61, 66
1, 133289, Note_on_c, 0, 73, 75
1, 133319, Note_off_c, 0, 78, 25
1, 133348, Note_off_c, 0, 61, 63
1, 133358, Note_off_c, 0, 73, 63
1, 133363, Note_on_c, 0, 57, 68
1, 133368, Note_on_c, 0, 69, 80
1, 133449, Note_on_c, 0, 73, 76
1, 133449, Note_off_c, 0, 69, 59
1, 133451, Note_off_c, 0, 57, 63
1, 133455, Note_on_c, 0, 61, 66
1, 133508, Note_off_c, 0, 73, 66
1, 133512, Note_on_c, 0, 76, 78
1, 133512, Note_off_c, 0, 61, 60
1, 133520, Note_on_c, 0, 64, 70
1, 133578, Control_c, 0, 64, 12
1, 133593, Control_c, 0, 64, 32
1, 133601, Note_off_c, 0, 76, 63
1, 133608, Control_c, 0, 64, 48
1, 133612, Note_on_c, 0, 81, 84
1, 133621, Note_on_c, 0, 69, 83
1, 133622, Control_c, 0, 64, 58
1, 133637, Control_c, 0, 64, 63
1, 133640, Note_off_c, 0, 64, 54
1, 133646, Note_off_c, 0, 69, 70
1, 133652, Control_c, 0, 64, 64
1, 133669, Note_off_c, 0, 81, 64
1, 133683, Control_c, 0, 64, 63
1, 133698, Control_c, 0, 64, 57
1, 133713, Control_c, 0, 64, 38
1, 133727, Control_c, 0, 64, 0
1, 133731, Poly_aftertouch_c, 0, 78, 0
1, 133875, Control_c, 0, 64, 46
1, 133876, Note_on_c, 0, 69, 89
1, 133881, Note_on_c, 0, 45, 72
1, 133881, Note_on_c, 0, 57, 84
1, 133890, Control_c, 0, 64, 59
1, 133905, Control_c, 0, 64, 66
1, 133913, Note_off_c, 0, 45, 65
1, 133914, Note_off_c, 0, 69, 65
1, 133920, Control_c, 0, 64, 74
1, 133922, Note_off_c, 0, 57, 63
1, 133935, Control_c, 0, 64, 89
1, 133950, Control_c, 0, 64, 127
1, 134039, Control_c, 0, 64, 85
1, 134053, Control_c, 0, 64, 66
1, 134068, Control_c, 0, 64, 46
1, 134083, Control_c, 0, 64, 23
1, 134097, Control_c, 0, 64, 0
1, 134191, Note_on_c, 0, 81, 86
1, 134456, Note_on_c, 0, 64, 82
1, 134460, Control_c, 0, 64, 25
1, 134464, Note_on_c, 0, 61, 80
1, 134474, Control_c, 0, 64, 46
1, 134489, Control_c, 0, 64, 48
1, 134519, Control_c, 0, 64, 51
1, 134534, Control_c, 0, 64, 58
1, 134549, Control_c, 0, 64, 62
1, 134579, Control_c, 0, 64, 62
1, 134593, Control_c, 0, 64, 61
1, 134638, Control_c, 0, 64, 60
1, 134653, Control_c, 0, 64, 58
1, 134667, Control_c, 0, 64, 57
1, 134697, Control_c, 0, 64, 55
1, 134712, Control_c, 0, 64, 51
1, 134713, Note_off_c, 0, 61, 49
1, 134716, Note_on_c, 0, 62, 76
1, 134718, Note_off_c, 0, 64, 61
1, 134721, Note_on_c, 0, 65, 82
1, 134726, Control_c, 0, 64, 48
1, 134741, Control_c, 0, 64, 47
1, 134742, Note_off_c, 0, 62, 67
1, 134756, Control_c, 0, 64, 46
1, 134763, Note_off_c, 0, 65, 62
1, 134771, Control_c, 0, 64, 43
1, 134786, Control_c, 0, 64, 39
1, 134808, Note_on_c, 0, 82, 68
1, 134815, Control_c, 0, 64, 41
1, 134820, Note_off_c, 0, 81, 34
1, 134830, Control_c, 0, 64, 42
1, 134845, Control_c, 0, 64, 40
1, 134860, Control_c, 0, 64, 38
1, 134874, Control_c, 0, 64, 38
1, 134878, Note_off_c, 0, 82, 65
1, 134889, Control_c, 0, 64, 39
1, 134895, Note_on_c, 0, 81, 65
1, 134918, Control_c, 0, 64, 38
1, 134933, Control_c, 0, 64, 36
1, 134936, Note_off_c, 0, 81, 64
1, 134943, Note_on_c, 0, 67, 75
1, 134948, Note_on_c, 0, 64, 68
1, 134948, Control_c, 0, 64, 35
1, 134960, Note_on_c, 0, 79, 69
1, 134963, Control_c, 0, 64, 36
1, 134976, Note_off_c, 0, 67, 65
1, 134978, Control_c, 0, 64, 37
1, 134981, Note_off_c, 0, 64, 66
1, 134993, Control_c, 0, 64, 36
1, 135008, Control_c, 0, 64, 34
1, 135023, Control_c, 0, 64, 33
1, 135029, Note_off_c, 0, 79, 61
1, 135034, Note_on_c, 0, 81, 75
1, 135045, Control_c, 0, 64, 33
1, 135060, Control_c, 0, 64, 35
1, 135074, Control_c, 0, 64, 35
1, 135089, Control_c, 0, 64, 33
1, 135104, Control_c, 0, 64, 32
1, 135111, Note_off_c, 0, 81, 63
1, 135119, Note_on_c, 0, 79, 66
1, 135133, Control_c, 0, 64, 34
1, 135148, Control_c, 0, 64, 35
1, 135163, Control_c, 0, 64, 34
1, 135175, Note_off_c, 0, 79, 66
1, 135178, Control_c, 0, 64, 34
1, 135193, Note_on_c, 0, 77, 69
1, 135195, Note_on_c, 0, 65, 70
1, 135196, Note_on_c, 0, 69, 68
1, 135208, Control_c, 0, 64, 36
1, 135223, Note_off_c, 0, 65, 66
1, 135224, Note_off_c, 0, 69, 67
1, 135231, Note_off_c, 0, 77, 60
1, 135237, Control_c, 0, 64, 35
1, 135252, Control_c, 0, 64, 35
1, 135268, Control_c, 0, 64, 35
1, 135272, Note_on_c, 0, 79, 73
1, 135283, Control_c, 0, 64, 37
1, 135312, Control_c, 0, 64, 36
1, 135327, Control_c, 0, 64, 35
1, 135357, Control_c, 0, 64, 36
1, 135360, Note_on_c, 0, 77, 69
1, 135382, Note_off_c, 0, 79, 62
1, 135386, Control_c, 0, 64, 35
1, 135401, Control_c, 0, 64, 33
1, 135418, Note_off_c, 0, 77, 64
1, 135425, Note_on_c, 0, 76, 70
1, 135431, Control_c, 0, 64, 34
1, 135433, Note_on_c, 0, 67, 65
1, 135435, Note_on_c, 0, 70, 62
1, 135465, Note_off_c, 0, 67, 65
1, 135476, Note_off_c, 0, 70, 60
1, 135490, Control_c, 0, 64, 35
1, 135494, Note_off_c, 0, 76, 60
1, 135505, Control_c, 0, 64, 36
1, 135520, Control_c, 0, 64, 37
1, 135526, Note_on_c, 0, 77, 68
1, 135535, Control_c, 0, 64, 36
1, 135579, Control_c, 0, 64, 37
1, 135590, Note_off_c, 0, 77, 60
1, 135594, Control_c, 0, 64, 36
1, 135598, Note_on_c, 0, 76, 68
1, 135609, Control_c, 0, 64, 35
1, 135638, Control_c, 0, 64, 35
1, 135653, Control_c, 0, 64, 38
1, 135667, Note_off_c, 0, 76, 64
1, 135668, Control_c, 0, 64, 44
1, 135683, Control_c, 0, 64, 49
1, 135696, Note_on_c, 0, 69, 63
1, 135697, Control_c, 0, 64, 51
1, 135698, Note_on_c, 0, 65, 67
1, 135699, Note_on_c, 0, 74, 69
1, 135712, Control_c, 0, 64, 55
1, 135726, Note_off_c, 0, 69, 66
1, 135727, Control_c, 0, 64, 60
1, 135729, Note_off_c, 0, 65, 65
1, 135741, Control_c, 0, 64, 63
1, 135756, Control_c, 0, 64, 64
1, 135765, Note_off_c, 0, 74, 64
1, 135868, Control_c, 0, 64, 63
1, 135883, Control_c, 0, 64, 62
1, 135897, Control_c, 0, 64, 61
1, 135912, Control_c, 0, 64, 59
1, 135927, Control_c, 0, 64, 56
1, 135941, Control_c, 0, 64, 51
1, 135956, Control_c, 0, 64, 48
1, 135971, Note_on_c, 0, 50, 87
1, 135971, Note_on_c, 0, 74, 76
1, 135971, Control_c, 0, 64, 48
1, 135986, Control_c, 0, 64, 47
1, 136001, Control_c, 0, 64, 43
1, 136015, Control_c, 0, 64, 40
1, 136018, Note_off_c, 0, 50, 66
1, 136045, Control_c, 0, 64, 43
1, 136076, Control_c, 0, 64, 40
1, 136091, Control_c, 0, 64, 38
1, 136120, Control_c, 0, 64, 41
1, 136135, Control_c, 0, 64, 41
1, 136150, Control_c, 0, 64, 38
1, 136165, Control_c, 0, 64, 32
1, 136179, Control_c, 0, 64, 23
1, 136194, Control_c, 0, 64, 22
1, 136221, Note_off_c, 0, 74, 57
1, 136243, Note_on_c, 0, 62, 89
1, 136250, Note_on_c, 0, 76, 74
1, 136251, Note_on_c, 0, 73, 58
1, 136254, Control_c, 0, 64, 23
1, 136269, Control_c, 0, 64, 31
1, 136284, Control_c, 0, 64, 45
1, 136299, Control_c, 0, 64, 52
1, 136328, Control_c, 0, 64, 50
1, 136343, Control_c, 0, 64, 49
1, 136358, Control_c, 0, 64, 48
1, 136372, Control_c, 0, 64, 47
1, 136387, Control_c, 0, 64, 44
1, 136402, Control_c, 0, 64, 41
1, 136417, Control_c, 0, 64, 41
1, 136432, Control_c, 0, 64, 43
1, 136446, Control_c, 0, 64, 47
1, 136461, Control_c, 0, 64, 51
1, 136476, Control_c, 0, 64, 49
1, 136480, Note_off_c, 0, 73, 59
1, 136505, Control_c, 0, 64, 50
1, 136519, Note_on_c, 0, 72, 67
1, 136519, Note_on_c, 0, 78, 74
1, 136520, Control_c, 0, 64, 51
1, 136540, Note_off_c, 0, 76, 39
1, 136543, Control_c, 0, 64, 52
1, 136558, Control_c, 0, 64, 51
1, 136572, Control_c, 0, 64, 50
1, 136582, Note_off_c, 0, 72, 63
1, 136602, Control_c, 0, 64, 51
1, 136617, Control_c, 0, 64, 53
1, 136632, Control_c, 0, 64, 56
1, 136646, Control_c, 0, 64, 57
1, 136661, Control_c, 0, 64, 60
1, 136676, Control_c, 0, 64, 62
1, 136690, Control_c, 0, 64, 63
1, 136705, Control_c, 0, 64, 64
1, 136721, Control_c, 0, 64, 65
1, 136736, Control_c, 0, 64, 65
1, 136780, Note_on_c, 0, 79, 77
1, 136790, Note_on_c, 0, 70, 61
1, 136795, Control_c, 0, 64, 65
1, 136810, Control_c, 0, 64, 63
1, 136816, Note_off_c, 0, 70, 66
1, 136820, Note_off_c, 0, 79, 64
1, 136825, Control_c, 0, 64, 59
1, 136832, Note_off_c, 0, 62, 57
1, 136839, Control_c, 0, 64, 52
1, 136844, Note_off_c, 0, 78, 37
1, 136854, Control_c, 0, 64, 45
1, 136870, Control_c, 0, 64, 39
1, 136871, Note_on_c, 0, 63, 69
1, 136885, Control_c, 0, 64, 29
1, 136900, Control_c, 0, 64, 0
1, 136930, Note_off_c, 0, 63, 63
1, 136954, Note_on_c, 0, 62, 75
1, 137003, Control_c, 0, 64, 34
1, 137018, Note_off_c, 0, 62, 49
1, 137018, Control_c, 0, 64, 54
1, 137033, Note_on_c, 0, 81, 75
1, 137033, Control_c, 0, 64, 63
1, 137042, Note_on_c, 0, 60, 74
1, 137048, Control_c, 0, 64, 65
1, 137062, Note_off_c, 0, 81, 66
1, 137064, Note_on_c, 0, 78, 50
1, 137077, Control_c, 0, 64, 64
1, 137088, Note_off_c, 0, 78, 51
1, 137089, Note_off_c, 0, 60, 59
1, 137092, Control_c, 0, 64, 59
1, 137107, Control_c, 0, 64, 50
1, 137121, Control_c, 0, 64, 37
1, 137124, Note_on_c, 0, 62, 72
1, 137136, Control_c, 0, 64, 15
1, 137151, Control_c, 0, 64, 0
1, 137167, Note_off_c, 0, 62, 60
1, 137188, Note_on_c, 0, 60, 69
1, 137241, Control_c, 0, 64, 27
1, 137256, Control_c, 0, 64, 46
1, 137264, Note_off_c, 0, 60, 62
1, 137270, Control_c, 0, 64, 60
1, 137279, Note_on_c, 0, 79, 60
1, 137279, Note_on_c, 0, 82, 71
1, 137292, Note_on_c, 0, 58, 60
1, 137292, Control_c, 0, 64, 64
1, 137307, Note_off_c, 0, 79, 63
1, 137307, Control_c, 0, 64, 65
1, 137324, Note_off_c, 0, 82, 60
1, 137336, Control_c, 0, 64, 64
1, 137340, Note_off_c, 0, 58, 63
1, 137351, Control_c, 0, 64, 57
1, 137366, Control_c, 0, 64, 40
1, 137374, Note_on_c, 0, 60, 71
1, 137381, Control_c, 0, 64, 0
1, 137428, Note_off_c, 0, 60, 58
1, 137452, Note_on_c, 0, 58, 62
1, 137485, Control_c, 0, 64, 8
1, 137500, Control_c, 0, 64, 29
1, 137515, Control_c, 0, 64, 40
1, 137525, Note_on_c, 0, 84, 71
1, 137529, Control_c, 0, 64, 50
1, 137537, Note_on_c, 0, 78, 66
1, 137540, Note_off_c, 0, 58, 64
1, 137544, Control_c, 0, 64, 59
1, 137548, Note_on_c, 0, 57, 63
1, 137559, Control_c, 0, 64, 63
1, 137562, Note_off_c, 0, 84, 64
1, 137566, Note_off_c, 0, 78, 65
1, 137574, Control_c, 0, 64, 63
1, 137590, Note_off_c, 0, 57, 62
1, 137603, Control_c, 0, 64, 57
1, 137618, Control_c, 0, 64, 44
1, 137633, Control_c, 0, 64, 23
1, 137637, Note_on_c, 0, 58, 58
1, 137648, Control_c, 0, 64, 0
1, 137682, Note_off_c, 0, 58, 64
1, 137708, Note_on_c, 0, 57, 59
1, 137797, Note_on_c, 0, 82, 63
1, 137797, Control_c, 0, 64, 31
1, 137807, Note_on_c, 0, 79, 54
1, 137812, Control_c, 0, 64, 52
1, 137813, Note_off_c, 0, 57, 62
1, 137826, Control_c, 0, 64, 60
1, 137832, Note_on_c, 0, 55, 52
1, 137840, Note_off_c, 0, 82, 60
1, 137841, Control_c, 0, 64, 62
1, 137845, Note_off_c, 0, 79, 65
1, 137856, Control_c, 0, 64, 64
1, 137871, Control_c, 0, 64, 67
1, 137885, Control_c, 0, 64, 68
1, 137915, Control_c, 0, 64, 67
1, 137930, Control_c, 0, 64, 62
1, 137944, Control_c, 0, 64, 54
1, 137959, Control_c, 0, 64, 40
1, 137974, Control_c, 0, 64, 0
1, 138078, Note_off_c, 0, 55, 63
1, 138080, Note_on_c, 0, 67, 88
1, 138127, Note_off_c, 0, 67, 65
1, 138352, Control_c, 0, 64, 25
1, 138367, Control_c, 0, 64, 0
1, 138388, Note_on_c, 0, 79, 85
1, 138411, Control_c, 0, 64, 17
1, 138426, Control_c, 0, 64, 24
1, 138441, Control_c, 0, 64, 22
1, 138456, Control_c, 0, 64, 21
1, 138472, Control_c, 0, 64, 23
1, 138487, Control_c, 0, 64, 30
1, 138502, Control_c, 0, 64, 32
1, 138516, Control_c, 0, 64, 30
1, 138531, Control_c, 0, 64, 29
1, 138546, Control_c, 0, 64, 30
1, 138560, Control_c, 0, 64, 34
1, 138575, Control_c, 0, 64, 36
1, 138590, Control_c, 0, 64, 34
1, 138605, Control_c, 0, 64, 33
1, 138620, Control_c, 0, 64, 33
1, 138634, Control_c, 0, 64, 36
1, 138649, Control_c, 0, 64, 37
1, 138657, Note_on_c, 0, 62, 81
1, 138664, Control_c, 0, 64, 33
1, 138665, Note_on_c, 0, 59, 70
1, 138679, Control_c, 0, 64, 26
1, 138694, Control_c, 0, 64, 23
1, 138708, Control_c, 0, 64, 27
1, 138723, Control_c, 0, 64, 32
1, 138738, Control_c, 0, 64, 32
1, 138753, Control_c, 0, 64, 32
1, 138767, Control_c, 0, 64, 32
1, 138790, Control_c, 0, 64, 37
1, 138805, Control_c, 0, 64, 45
1, 138820, Control_c, 0, 64, 51
1, 138835, Control_c, 0, 64, 55
1, 138849, Control_c, 0, 64, 56
1, 138893, Control_c, 0, 64, 52
1, 138895, Note_off_c, 0, 62, 55
1, 138908, Control_c, 0, 64, 45
1, 138909, Note_off_c, 0, 59, 48
1, 138922, Note_on_c, 0, 60, 74
1, 138923, Control_c, 0, 64, 38
1, 138925, Note_on_c, 0, 64, 74
1, 138938, Control_c, 0, 64, 37
1, 138954, Note_off_c, 0, 60, 66
1, 138960, Note_off_c, 0, 64, 65
1, 138981, Control_c, 0, 64, 35
1, 138993, Note_off_c, 0, 79, 45
1, 138996, Control_c, 0, 64, 34
1, 139017, Note_on_c, 0, 81, 67
1, 139026, Control_c, 0, 64, 37
1, 139041, Control_c, 0, 64, 37
1, 139056, Control_c, 0, 64, 36
1, 139071, Control_c, 0, 64, 35
1, 139086, Control_c, 0, 64, 36
1, 139095, Note_on_c, 0, 79, 75
1, 139100, Control_c, 0, 64, 39
1, 139114, Note_off_c, 0, 81, 61
1, 139115, Control_c, 0, 64, 41
1, 139130, Control_c, 0, 64, 40
1, 139151, Note_off_c, 0, 79, 65
1, 139156, Note_on_c, 0, 65, 77
1, 139160, Control_c, 0, 64, 41
1, 139162, Note_on_c, 0, 62, 69
1, 139166, Note_on_c, 0, 77, 69
1, 139174, Control_c, 0, 64, 44
1, 139189, Control_c, 0, 64, 47
1, 139191, Note_off_c, 0, 65, 65
1, 139199, Note_off_c, 0, 62, 67
1, 139204, Control_c, 0, 64, 45
1, 139219, Control_c, 0, 64, 40
1, 139229, Note_off_c, 0, 77, 65
1, 139233, Control_c, 0, 64, 36
1, 139241, Note_on_c, 0, 79, 77
1, 139248, Control_c, 0, 64, 36
1, 139264, Control_c, 0, 64, 35
1, 139279, Control_c, 0, 64, 29
1, 139294, Control_c, 0, 64, 0
1, 139312, Note_off_c, 0, 79, 64
1, 139321, Note_on_c, 0, 77, 74
1, 139338, Control_c, 0, 64, 15
1, 139353, Control_c, 0, 64, 28
1, 139368, Control_c, 0, 64, 38
1, 139379, Note_off_c, 0, 77, 64
1, 139382, Control_c, 0, 64, 47
1, 139397, Control_c, 0, 64, 56
1, 139399, Note_on_c, 0, 76, 72
1, 139404, Note_on_c, 0, 67, 73
1, 139412, Note_on_c, 0, 64, 64
1, 139412, Control_c, 0, 64, 59
1, 139435, Note_off_c, 0, 67, 66
1, 139440, Note_off_c, 0, 64, 67
1, 139442, Control_c, 0, 64, 58
1, 139456, Control_c, 0, 64, 53
1, 139461, Note_off_c, 0, 76, 62
1, 139464, Note_on_c, 0, 77, 71
1, 139471, Control_c, 0, 64, 45
1, 139486, Control_c, 0, 64, 30
1, 139501, Control_c, 0, 64, 0
1, 139568, Note_on_c, 0, 76, 70
1, 139568, Control_c, 0, 64, 9
1, 139580, Note_off_c, 0, 77, 60
1, 139583, Control_c, 0, 64, 15
1, 139597, Control_c, 0, 64, 23
1, 139612, Control_c, 0, 64, 35
1, 139627, Note_off_c, 0, 76, 64
1, 139627, Control_c, 0, 64, 47
1, 139642, Control_c, 0, 64, 55
1, 139644, Note_on_c, 0, 65, 63
1, 139644, Note_on_c, 0, 74, 61
1, 139647, Note_on_c, 0, 69, 62
1, 139657, Control_c, 0, 64, 59
1, 139676, Note_off_c, 0, 65, 61
1, 139685, Note_off_c, 0, 69, 64
1, 139701, Control_c, 0, 64, 57
1, 139712, Note_off_c, 0, 74, 62
1, 139716, Control_c, 0, 64, 51
1, 139730, Note_on_c, 0, 76, 67
1, 139731, Control_c, 0, 64, 37
1, 139746, Control_c, 0, 64, 13
1, 139761, Control_c, 0, 64, 0
1, 139791, Note_off_c, 0, 76, 62
1, 139817, Note_on_c, 0, 74, 53
1, 139850, Control_c, 0, 64, 12
1, 139864, Control_c, 0, 64, 23
1, 139879, Control_c, 0, 64, 36
1, 139881, Note_off_c, 0, 74, 65
1, 139892, Note_on_c, 0, 67, 47
1, 139894, Control_c, 0, 64, 51
1, 139902, Note_on_c, 0, 72, 68
1, 139903, Note_on_c, 0, 64, 45
1, 139909, Control_c, 0, 64, 58
1, 139917, Note_off_c, 0, 67, 57
1, 139923, Control_c, 0, 64, 60
1, 139938, Note_off_c, 0, 72, 60
1, 139938, Control_c, 0, 64, 60
1, 139939, Note_off_c, 0, 64, 66
1, 139953, Control_c, 0, 64, 61
1, 139968, Control_c, 0, 64, 63
1, 139983, Control_c, 0, 64, 63
1, 140028, Control_c, 0, 64, 63
1, 140043, Control_c, 0, 64, 61
1, 140058, Control_c, 0, 64, 58
1, 140073, Control_c, 0, 64, 51
1, 140087, Control_c, 0, 64, 42
1, 140102, Control_c, 0, 64, 33
1, 140117, Control_c, 0, 64, 28
1, 140132, Control_c, 0, 64, 26
1, 140147, Control_c, 0, 64, 25
1, 140162, Control_c, 0, 64, 26
1, 140173, Note_on_c, 0, 72, 66
1, 140177, Control_c, 0, 64, 32
1, 140180, Note_on_c, 0, 48, 62
1, 140192, Control_c, 0, 64, 44
1, 140206, Control_c, 0, 64, 53
1, 140219, Note_off_c, 0, 48, 63
1, 140221, Control_c, 0, 64, 56
1, 140377, Control_c, 0, 64, 55
1, 140391, Control_c, 0, 64, 52
1, 140406, Control_c, 0, 64, 49
1, 140418, Note_off_c, 0, 72, 57
1, 140421, Control_c, 0, 64, 48
1, 140436, Control_c, 0, 64, 47
1, 140451, Control_c, 0, 64, 44
1, 140454, Note_on_c, 0, 60, 71
1, 140457, Note_on_c, 0, 74, 67
1, 140466, Control_c, 0, 64, 39
1, 140469, Note_on_c, 0, 71, 61
1, 140481, Control_c, 0, 64, 36
1, 140495, Control_c, 0, 64, 37
1, 140510, Control_c, 0, 64, 40
1, 140525, Control_c, 0, 64, 43
1, 140539, Control_c, 0, 64, 45
1, 140554, Control_c, 0, 64, 49
1, 140569, Control_c, 0, 64, 53
1, 140584, Control_c, 0, 64, 56
1, 140599, Control_c, 0, 64, 57
1, 140613, Control_c, 0, 64, 58
1, 140673, Control_c, 0, 64, 56
1, 140687, Control_c, 0, 64, 52
1, 140700, Note_off_c, 0, 71, 60
1, 140702, Control_c, 0, 64, 46
1, 140717, Control_c, 0, 64, 43
1, 140732, Control_c, 0, 64, 43
1, 140733, Note_on_c, 0, 70, 51
1, 140733, Note_on_c, 0, 76, 64
1, 140734, Note_off_c, 0, 74, 33
1, 140776, Control_c, 0, 64, 45
1, 140791, Control_c, 0, 64, 49
1, 140806, Control_c, 0, 64, 54
1, 140821, Control_c, 0, 64, 57
1, 140836, Control_c, 0, 64, 59
1, 140850, Control_c, 0, 64, 59
1, 140866, Control_c, 0, 64, 60
1, 140881, Control_c, 0, 64, 60
1, 140910, Control_c, 0, 64, 59
1, 140925, Control_c, 0, 64, 54
1, 140940, Control_c, 0, 64, 48
1, 140949, Note_off_c, 0, 70, 54
1, 140955, Control_c, 0, 64, 45
1, 140970, Control_c, 0, 64, 46
1, 140985, Control_c, 0, 64, 50
1, 140992, Note_on_c, 0, 77, 66
1, 140996, Note_on_c, 0, 69, 57
1, 140996, Note_off_c, 0, 76, 25
1, 141000, Control_c, 0, 64, 55
1, 141014, Control_c, 0, 64, 57
1, 141020, Note_off_c, 0, 69, 66
1, 141020, Note_off_c, 0, 77, 68
1, 141051, Control_c, 0, 64, 57
1, 141053, Note_off_c, 0, 60, 62
1, 141074, Note_on_c, 0, 62, 67
1, 141081, Control_c, 0, 64, 56
1, 141096, Control_c, 0, 64, 56
1, 141110, Control_c, 0, 64, 54
1, 141111, Note_off_c, 0, 62, 62
1, 141125, Control_c, 0, 64, 50
1, 141140, Control_c, 0, 64, 49
1, 141158, Note_on_c, 0, 60, 62
1, 141169, Control_c, 0, 64, 48
1, 141184, Control_c, 0, 64, 43
1, 141199, Control_c, 0, 64, 35
1, 141214, Control_c, 0, 64, 28
1, 141223, Note_off_c, 0, 60, 62
1, 141229, Control_c, 0, 64, 27
1, 141235, Note_on_c, 0, 58, 61
1, 141239, Note_on_c, 0, 79, 70
1, 141244, Note_on_c, 0, 76, 71
1, 141259, Control_c, 0, 64, 26
1, 141273, Note_off_c, 0, 76, 67
1, 141277, Note_off_c, 0, 79, 61
1, 141288, Control_c, 0, 64, 28
1, 141292, Note_off_c, 0, 58, 64
1, 141303, Control_c, 0, 64, 31
1, 141318, Control_c, 0, 64, 30
1, 141321, Note_on_c, 0, 60, 69
1, 141333, Control_c, 0, 64, 29
1, 141362, Control_c, 0, 64, 30
1, 141373, Note_off_c, 0, 60, 45
1, 141377, Control_c, 0, 64, 31
1, 141402, Note_on_c, 0, 58, 72
1, 141407, Control_c, 0, 64, 30
1, 141436, Control_c, 0, 64, 30
1, 141451, Control_c, 0, 64, 31
1, 141466, Control_c, 0, 64, 32
1, 141479, Note_on_c, 0, 81, 72
1, 141480, Note_off_c, 0, 58, 65
1, 141488, Note_on_c, 0, 77, 62
1, 141492, Note_on_c, 0, 57, 67
1, 141515, Note_off_c, 0, 81, 62
1, 141516, Note_off_c, 0, 77, 68
1, 141554, Control_c, 0, 64, 33
1, 141564, Note_on_c, 0, 58, 67
1, 141626, Note_off_c, 0, 58, 64
1, 141687, Note_on_c, 0, 55, 56
1, 141694, Note_off_c, 0, 57, 60
1, 141703, Control_c, 0, 64, 35
1, 141724, Note_on_c, 0, 82, 69
1, 141730, Note_on_c, 0, 76, 66
1, 141757, Note_off_c, 0, 82, 66
1, 141760, Note_off_c, 0, 76, 63
1, 141763, Control_c, 0, 64, 36
1, 141778, Control_c, 0, 64, 39
1, 141790, Note_off_c, 0, 55, 64
1, 141800, Control_c, 0, 64, 41
1, 141815, Control_c, 0, 64, 40
1, 141819, Note_on_c, 0, 57, 64
1, 141860, Control_c, 0, 64, 41
1, 141874, Control_c, 0, 64, 40
1, 141889, Control_c, 0, 64, 38
1, 141899, Note_off_c, 0, 57, 64
1, 141902, Note_on_c, 0, 55, 68
1, 141904, Control_c, 0, 64, 35
1, 141918, Control_c, 0, 64, 34
1, 141933, Control_c, 0, 64, 35
1, 141963, Control_c, 0, 64, 34
1, 141978, Control_c, 0, 64, 35
1, 141992, Control_c, 0, 64, 37
1, 142007, Note_on_c, 0, 81, 67
1, 142007, Control_c, 0, 64, 45
1, 142008, Note_off_c, 0, 55, 62
1, 142017, Note_on_c, 0, 53, 58
1, 142020, Note_on_c, 0, 77, 64
1, 142022, Control_c, 0, 64, 53
1, 142037, Control_c, 0, 64, 59
1, 142052, Control_c, 0, 64, 62
1, 142056, Note_off_c, 0, 81, 63
1, 142060, Note_off_c, 0, 77, 59
1, 142067, Control_c, 0, 64, 64
1, 142082, Control_c, 0, 64, 66
1, 142097, Control_c, 0, 64, 67
1, 142111, Control_c, 0, 64, 67
1, 142171, Control_c, 0, 64, 66
1, 142185, Control_c, 0, 64, 64
1, 142200, Control_c, 0, 64, 61
1, 142215, Control_c, 0, 64, 53
1, 142230, Control_c, 0, 64, 46
1, 142245, Control_c, 0, 64, 40
1, 142259, Control_c, 0, 64, 37
1, 142274, Control_c, 0, 64, 38
1, 142289, Control_c, 0, 64, 40
1, 142299, Note_on_c, 0, 65, 75
1, 142303, Control_c, 0, 64, 41
1, 142318, Control_c, 0, 64, 41
1, 142333, Control_c, 0, 64, 43
1, 142348, Control_c, 0, 64, 46
1, 142353, Note_off_c, 0, 65, 63
1, 142363, Control_c, 0, 64, 47
1, 142365, Note_off_c, 0, 53, 60
1, 142392, Control_c, 0, 64, 47
1, 142422, Control_c, 0, 64, 48
1, 142437, Control_c, 0, 64, 49
1, 142453, Control_c, 0, 64, 48
1, 142468, Control_c, 0, 64, 47
1, 142534, Control_c, 0, 64, 46
1, 142549, Control_c, 0, 64, 44
1, 142564, Control_c, 0, 64, 43
1, 142597, Note_on_c, 0, 77, 78
1, 142623, Control_c, 0, 64, 43
1, 142653, Control_c, 0, 64, 44
1, 142668, Control_c, 0, 64, 48
1, 142682, Control_c, 0, 64, 51
1, 142726, Control_c, 0, 64, 51
1, 142740, Control_c, 0, 64, 52
1, 142785, Control_c, 0, 64, 51
1, 142815, Control_c, 0, 64, 52
1, 142864, Note_on_c, 0, 46, 74
1, 142889, Control_c, 0, 64, 52
1, 142901, Note_off_c, 0, 46, 65
1, 142919, Control_c, 0, 64, 52
1, 142962, Note_off_c, 0, 77, 0
1, 142963, Control_c, 0, 64, 52
1, 142978, Control_c, 0, 64, 51
1, 142993, Control_c, 0, 64, 50
1, 143000, Poly_aftertouch_c, 0, 77, 127
1, 143022, Control_c, 0, 64, 51
1, 143037, Control_c, 0, 64, 51
1, 143052, Control_c, 0, 64, 51
1, 143067, Control_c, 0, 64, 50
1, 143081, Control_c, 0, 64, 50
1, 143096, Control_c, 0, 64, 50
1, 143111, Control_c, 0, 64, 51
1, 143140, Control_c, 0, 64, 52
1, 143152, Note_on_c, 0, 58, 53
1, 143185, Control_c, 0, 64, 53
1, 143214, Control_c, 0, 64, 54
1, 143235, Poly_aftertouch_c, 0, 77, 0
1, 143236, Note_on_c, 0, 79, 69
1, 143260, Control_c, 0, 64, 54
1, 143283, Control_c, 0, 64, 55
1, 143298, Control_c, 0, 64, 55
1, 143327, Control_c, 0, 64, 56
1, 143334, Note_on_c, 0, 77, 68
1, 143352, Note_off_c, 0, 79, 61
1, 143399, Note_off_c, 0, 77, 65
1, 143412, Note_on_c, 0, 75, 60
1, 143476, Control_c, 0, 64, 55
1, 143483, Note_off_c, 0, 75, 65
1, 143491, Control_c, 0, 64, 55
1, 143495, Note_on_c, 0, 77, 68
1, 143550, Control_c, 0, 64, 53
1, 143564, Control_c, 0, 64, 50
1, 143578, Note_off_c, 0, 77, 63
1, 143579, Control_c, 0, 64, 49
1, 143580, Note_on_c, 0, 75, 64
1, 143624, Control_c, 0, 64, 46
1, 143638, Control_c, 0, 64, 41
1, 143644, Note_off_c, 0, 75, 64
1, 143652, Note_on_c, 0, 74, 68
1, 143653, Control_c, 0, 64, 38
1, 143668, Control_c, 0, 64, 39
1, 143697, Control_c, 0, 64, 38
1, 143712, Control_c, 0, 64, 35
1, 143727, Note_off_c, 0, 58, 65
1, 143727, Control_c, 0, 64, 33
1, 143730, Note_off_c, 0, 74, 63
1, 143730, Note_on_c, 0, 75, 67
1, 143734, Note_on_c, 0, 60, 72
1, 143769, Note_off_c, 0, 60, 63
1, 143772, Control_c, 0, 64, 32
1, 143787, Control_c, 0, 64, 29
1, 143802, Control_c, 0, 64, 28
1, 143808, Note_off_c, 0, 75, 62
1, 143811, Note_on_c, 0, 74, 69
1, 143816, Control_c, 0, 64, 29
1, 143831, Note_on_c, 0, 58, 67
1, 143831, Control_c, 0, 64, 30
1, 143861, Control_c, 0, 64, 29
1, 143870, Note_off_c, 0, 74, 64
1, 143875, Control_c, 0, 64, 28
1, 143883, Note_on_c, 0, 72, 70
1, 143890, Control_c, 0, 64, 30
1, 143905, Control_c, 0, 64, 33
1, 143908, Note_off_c, 0, 58, 66
1, 143916, Note_on_c, 0, 57, 67
1, 143935, Control_c, 0, 64, 33
1, 143949, Control_c, 0, 64, 32
1, 143955, Note_off_c, 0, 72, 37
1, 143961, Note_on_c, 0, 74, 76
1, 143964, Control_c, 0, 64, 33
1, 143979, Control_c, 0, 64, 34
1, 143994, Note_off_c, 0, 57, 57
1, 143994, Control_c, 0, 64, 33
1, 143995, Note_on_c, 0, 58, 71
1, 144009, Control_c, 0, 64, 32
1, 144046, Control_c, 0, 64, 34
1, 144051, Note_off_c, 0, 58, 64
1, 144053, Note_on_c, 0, 72, 73
1, 144055, Note_on_c, 0, 57, 39
1, 144061, Control_c, 0, 64, 36
1, 144086, Note_off_c, 0, 74, 57
1, 144114, Note_off_c, 0, 57, 64
1, 144115, Note_on_c, 0, 55, 68
1, 144121, Control_c, 0, 64, 40
1, 144128, Note_off_c, 0, 72, 63
1, 144129, Note_on_c, 0, 70, 75
1, 144135, Control_c, 0, 64, 45
1, 144150, Control_c, 0, 64, 46
1, 144178, Note_off_c, 0, 70, 63
1, 144180, Control_c, 0, 64, 47
1, 144195, Control_c, 0, 64, 49
1, 144196, Note_off_c, 0, 55, 64
1, 144210, Control_c, 0, 64, 52
1, 144225, Note_on_c, 0, 57, 74
1, 144240, Control_c, 0, 64, 50
1, 144254, Control_c, 0, 64, 48
1, 144284, Control_c, 0, 64, 48
1, 144299, Control_c, 0, 64, 49
1, 144301, Note_on_c, 0, 55, 75
1, 144301, Note_off_c, 0, 57, 61
1, 144343, Control_c, 0, 64, 50
1, 144358, Control_c, 0, 64, 51
1, 144370, Note_on_c, 0, 70, 73
1, 144373, Control_c, 0, 64, 52
1, 144381, Note_on_c, 0, 53, 77
1, 144387, Note_off_c, 0, 55, 63
1, 144387, Control_c, 0, 64, 51
1, 144406, Note_off_c, 0, 70, 60
1, 144417, Control_c, 0, 64, 51
1, 144432, Control_c, 0, 64, 51
1, 144438, Note_off_c, 0, 53, 60
1, 144457, Note_on_c, 0, 55, 70
1, 144461, Control_c, 0, 64, 51
1, 144476, Control_c, 0, 64, 50
1, 144525, Note_off_c, 0, 55, 58
1, 144544, Note_on_c, 0, 53, 69
1, 144550, Control_c, 0, 64, 49
1, 144565, Control_c, 0, 64, 48
1, 144609, Control_c, 0, 64, 47
1, 144624, Control_c, 0, 64, 41
1, 144637, Note_on_c, 0, 52, 78
1, 144637, Note_on_c, 0, 82, 75
1, 144639, Control_c, 0, 64, 25
1, 144652, Note_off_c, 0, 53, 62
1, 144654, Control_c, 0, 64, 0
1, 144689, Note_off_c, 0, 52, 63
1, 144713, Control_c, 0, 64, 23
1, 144728, Control_c, 0, 64, 24
1, 144758, Control_c, 0, 64, 27
1, 144779, Control_c, 0, 64, 34
1, 144794, Control_c, 0, 64, 38
1, 144809, Control_c, 0, 64, 36
1, 144824, Control_c, 0, 64, 35
1, 144839, Control_c, 0, 64, 35
1, 144855, Control_c, 0, 64, 38
1, 144870, Control_c, 0, 64, 39
1, 144884, Control_c, 0, 64, 37
1, 144899, Control_c, 0, 64, 36
1, 144914, Control_c, 0, 64, 36
1, 144928, Control_c, 0, 64, 39
1, 144943, Control_c, 0, 64, 37
1, 144944, Note_on_c, 0, 48, 65
1, 144958, Control_c, 0, 64, 35
1, 144973, Control_c, 0, 64, 34
1, 144979, Note_off_c, 0, 48, 65
1, 144988, Control_c, 0, 64, 34
1, 145003, Control_c, 0, 64, 35
1, 145018, Control_c, 0, 64, 34
1, 145033, Control_c, 0, 64, 34
1, 145048, Control_c, 0, 64, 33
1, 145063, Control_c, 0, 64, 34
1, 145092, Control_c, 0, 64, 32
1, 145107, Control_c, 0, 64, 30
1, 145122, Control_c, 0, 64, 29
1, 145136, Control_c, 0, 64, 29
1, 145166, Control_c, 0, 64, 29
1, 145181, Control_c, 0, 64, 26
1, 145181, Control_c, 0, 67, 8
1, 145196, Control_c, 0, 64, 23
1, 145196, Control_c, 0, 67, 14
1, 145210, Control_c, 0, 67, 18
1, 145225, Control_c, 0, 64, 23
1, 145225, Control_c, 0, 67, 24
1, 145240, Control_c, 0, 64, 20
1, 145240, Control_c, 0, 67, 30
1, 145255, Control_c, 0, 64, 15
1, 145255, Control_c, 0, 67, 34
1, 145265, Note_on_c, 0, 70, 68
1, 145270, Control_c, 0, 64, 12
1, 145270, Control_c, 0, 67, 38
1, 145284, Control_c, 0, 67, 46
1, 145299, Control_c, 0, 64, 12
1, 145299, Control_c, 0, 67, 57
1, 145314, Control_c, 0, 64, 8
1, 145314, Control_c, 0, 67, 70
1, 145328, Note_off_c, 0, 82, 53
1, 145328, Control_c, 0, 64, 0
1, 145328, Control_c, 0, 67, 80
1, 145343, Control_c, 0, 67, 86
1, 145350, Note_on_c, 0, 84, 68
1, 145358, Control_c, 0, 67, 90
1, 145373, Control_c, 0, 67, 95
1, 145388, Control_c, 0, 67, 100
1, 145402, Control_c, 0, 67, 102
1, 145417, Control_c, 0, 67, 103
1, 145432, Control_c, 0, 67, 103
1, 145440, Note_off_c, 0, 84, 65
1, 145444, Note_on_c, 0, 82, 71
1, 145447, Control_c, 0, 64, 10
1, 145447, Control_c, 0, 67, 104
1, 145462, Control_c, 0, 67, 105
1, 145477, Control_c, 0, 67, 107
1, 145492, Control_c, 0, 67, 107
1, 145492, Note_off_c, 0, 82, 63
1, 145503, Note_on_c, 0, 81, 65
1, 145543, Control_c, 0, 67, 108
1, 145558, Control_c, 0, 67, 108
1, 145575, Note_off_c, 0, 81, 63
1, 145594, Note_on_c, 0, 82, 71
1, 145603, Control_c, 0, 67, 108
1, 145632, Control_c, 0, 64, 0
1, 145661, Note_off_c, 0, 82, 64
1, 145670, Note_on_c, 0, 81, 72
1, 145693, Control_c, 0, 67, 107
1, 145707, Control_c, 0, 67, 108
1, 145722, Control_c, 0, 67, 109
1, 145728, Note_off_c, 0, 81, 65
1, 145737, Control_c, 0, 67, 109
1, 145751, Control_c, 0, 67, 110
1, 145760, Note_on_c, 0, 79, 70
1, 145791, Note_off_c, 0, 79, 65
1, 145826, Control_c, 0, 67, 110
1, 145829, Note_off_c, 0, 70, 62
1, 145838, Note_on_c, 0, 81, 69
1, 145841, Control_c, 0, 67, 111
1, 145842, Note_on_c, 0, 72, 75
1, 145870, Note_off_c, 0, 72, 65
1, 145900, Control_c, 0, 67, 111
1, 145915, Control_c, 0, 67, 112
1, 145921, Note_on_c, 0, 79, 75
1, 145930, Control_c, 0, 67, 113
1, 145931, Note_on_c, 0, 70, 72
1, 145932, Note_off_c, 0, 81, 62
1, 145974, Control_c, 0, 67, 113
1, 145989, Control_c, 0, 67, 114
1, 145998, Note_off_c, 0, 79, 64
1, 146004, Note_off_c, 0, 70, 62
1, 146004, Control_c, 0, 67, 115
1, 146005, Note_on_c, 0, 77, 75
1, 146010, Note_on_c, 0, 69, 64
1, 146048, Control_c, 0, 67, 116
1, 146063, Control_c, 0, 67, 117
1, 146078, Control_c, 0, 67, 119
1, 146079, Note_off_c, 0, 69, 64
1, 146082, Note_off_c, 0, 77, 64
1, 146091, Note_on_c, 0, 70, 75
1, 146093, Control_c, 0, 67, 119
1, 146097, Note_on_c, 0, 79, 79
1, 146150, Note_off_c, 0, 70, 63
1, 146166, Control_c, 0, 67, 120
1, 146168, Note_off_c, 0, 79, 59
1, 146171, Note_on_c, 0, 77, 71
1, 146177, Note_on_c, 0, 69, 69
1, 146225, Note_off_c, 0, 77, 65
1, 146240, Control_c, 0, 67, 121
1, 146245, Note_on_c, 0, 76, 76
1, 146245, Note_off_c, 0, 69, 64
1, 146255, Note_on_c, 0, 67, 72
1, 146292, Control_c, 0, 67, 120
1, 146309, Note_off_c, 0, 76, 0
1, 146323, Note_off_c, 0, 67, 63
1, 146332, Note_on_c, 0, 74, 72
1, 146337, Poly_aftertouch_c, 0, 76, 0
1, 146337, Control_c, 0, 67, 121
1, 146348, Note_on_c, 0, 69, 76
1, 146366, Control_c, 0, 67, 120
1, 146381, Control_c, 0, 67, 119
1, 146389, Note_off_c, 0, 69, 55
1, 146408, Note_on_c, 0, 76, 63
1, 146408, Note_off_c, 0, 74, 62
1, 146411, Control_c, 0, 67, 120
1, 146425, Note_on_c, 0, 67, 74
1, 146469, Control_c, 0, 67, 119
1, 146484, Control_c, 0, 67, 120
1, 146486, Note_on_c, 0, 77, 77
1, 146487, Note_off_c, 0, 76, 62
1, 146489, Note_off_c, 0, 67, 63
1, 146493, Note_on_c, 0, 65, 69
1, 146499, Control_c, 0, 67, 121
1, 146524, Note_off_c, 0, 77, 58
1, 146527, Note_off_c, 0, 65, 64
1, 146529, Control_c, 0, 67, 121
1, 146544, Control_c, 0, 67, 121
1, 146560, Note_on_c, 0, 67, 74
1, 146567, Note_on_c, 0, 76, 67
1, 146588, Note_off_c, 0, 67, 64
1, 146588, Control_c, 0, 67, 121
1, 146610, Note_off_c, 0, 76, 52
1, 146631, Note_on_c, 0, 65, 69
1, 146645, Note_on_c, 0, 77, 72
1, 146647, Control_c, 0, 67, 121
1, 146705, Note_off_c, 0, 65, 64
1, 146717, Note_on_c, 0, 64, 62
1, 146721, Control_c, 0, 67, 120
1, 146723, Note_off_c, 0, 77, 63
1, 146726, Note_on_c, 0, 79, 77
1, 146751, Control_c, 0, 67, 122
1, 146766, Control_c, 0, 67, 123
1, 146777, Note_off_c, 0, 64, 65
1, 146780, Control_c, 0, 67, 124
1, 146787, Note_off_c, 0, 79, 63
1, 146800, Note_on_c, 0, 77, 71
1, 146803, Note_on_c, 0, 65, 72
1, 146840, Control_c, 0, 67, 124
1, 146854, Control_c, 0, 67, 126
1, 146866, Note_off_c, 0, 77, 63
1, 146869, Control_c, 0, 67, 127
1, 146880, Note_off_c, 0, 65, 62
1, 146884, Note_on_c, 0, 79, 81
1, 146887, Note_on_c, 0, 64, 74
1, 146942, Note_off_c, 0, 79, 64
1, 146961, Note_on_c, 0, 81, 69
1, 146971, Note_off_c, 0, 64, 64
1, 146973, Note_on_c, 0, 62, 71
1, 147004, Note_off_c, 0, 81, 61
1, 147025, Control_c, 0, 67, 127
1, 147040, Control_c, 0, 67, 127
1, 147043, Note_off_c, 0, 62, 64
1, 147049, Note_on_c, 0, 79, 77
1, 147057, Note_on_c, 0, 64, 73
1, 147122, Note_off_c, 0, 79, 52
1, 147138, Note_on_c, 0, 81, 82
1, 147140, Note_on_c, 0, 62, 78
1, 147141, Note_off_c, 0, 64, 56
1, 147256, Note_on_c, 0, 60, 56
1, 147256, Note_off_c, 0, 62, 61
1, 147272, Note_on_c, 0, 82, 76
1, 147277, Note_off_c, 0, 81, 60
1, 147281, Note_on_c, 0, 64, 57
1, 147367, Control_c, 0, 67, 127
1, 147370, Note_off_c, 0, 82, 64
1, 147381, Note_on_c, 0, 84, 78
1, 147397, Control_c, 0, 64, 33
1, 147397, Control_c, 0, 67, 126
1, 147411, Control_c, 0, 64, 45
1, 147411, Control_c, 0, 67, 126
1, 147426, Control_c, 0, 64, 47
1, 147426, Control_c, 0, 67, 125
1, 147441, Control_c, 0, 64, 48
1, 147456, Control_c, 0, 64, 51
1, 147471, Control_c, 0, 64, 52
1, 147473, Note_on_c, 0, 82, 78
1, 147501, Control_c, 0, 64, 48
1, 147504, Note_off_c, 0, 84, 62
1, 147516, Control_c, 0, 64, 38
1, 147530, Control_c, 0, 64, 30
1, 147545, Control_c, 0, 64, 35
1, 147545, Control_c, 0, 67, 125
1, 147546, Note_off_c, 0, 82, 64
1, 147552, Note_on_c, 0, 81, 78
1, 147555, Note_off_c, 0, 64, 64
1, 147560, Control_c, 0, 64, 43
1, 147564, Note_on_c, 0, 65, 77
1, 147575, Control_c, 0, 64, 49
1, 147575, Control_c, 0, 67, 125
1, 147590, Control_c, 0, 64, 52
1, 147590, Control_c, 0, 67, 124
1, 147604, Control_c, 0, 64, 55
1, 147604, Control_c, 0, 67, 124
1, 147619, Control_c, 0, 64, 58
1, 147619, Control_c, 0, 67, 123
1, 147626, Note_off_c, 0, 81, 61
1, 147634, Control_c, 0, 64, 60
1, 147642, Note_on_c, 0, 82, 81
1, 147649, Control_c, 0, 64, 61
1, 147649, Control_c, 0, 67, 123
1, 147664, Control_c, 0, 64, 62
1, 147708, Control_c, 0, 64, 61
1, 147708, Control_c, 0, 67, 122
1, 147717, Note_off_c, 0, 82, 63
1, 147719, Note_on_c, 0, 81, 70
1, 147722, Control_c, 0, 64, 53
1, 147722, Control_c, 0, 67, 123
1, 147737, Control_c, 0, 64, 35
1, 147737, Control_c, 0, 67, 123
1, 147752, Control_c, 0, 64, 12
1, 147775, Control_c, 0, 64, 0
1, 147783, Note_off_c, 0, 81, 65
1, 147790, Control_c, 0, 64, 16
1, 147790, Control_c, 0, 67, 123
1, 147804, Control_c, 0, 64, 32
1, 147804, Control_c, 0, 67, 122
1, 147807, Note_on_c, 0, 79, 76
1, 147809, Note_on_c, 0, 67, 75
1, 147819, Control_c, 0, 64, 41
1, 147834, Note_off_c, 0, 65, 51
1, 147834, Control_c, 0, 64, 46
1, 147834, Control_c, 0, 67, 122
1, 147849, Control_c, 0, 64, 52
1, 147864, Control_c, 0, 64, 57
1, 147864, Control_c, 0, 67, 121
1, 147878, Control_c, 0, 64, 61
1, 147878, Control_c, 0, 67, 121
1, 147889, Note_on_c, 0, 81, 75
1, 147891, Note_off_c, 0, 79, 58
1, 147893, Control_c, 0, 64, 63
1, 147908, Control_c, 0, 64, 64
1, 147922, Control_c, 0, 64, 65
1, 147922, Control_c, 0, 67, 121
1, 147937, Control_c, 0, 64, 66
1, 147982, Control_c, 0, 64, 64
1, 147982, Control_c, 0, 67, 122
1, 147987, Note_on_c, 0, 79, 68
1, 147996, Control_c, 0, 64, 58
1, 148008, Note_off_c, 0, 81, 56
1, 148011, Control_c, 0, 64, 48
1, 148026, Control_c, 0, 64, 40
1, 148026, Control_c, 0, 67, 121
1, 148033, Note_on_c, 0, 69, 80
1, 148038, Note_off_c, 0, 67, 63
1, 148041, Control_c, 0, 64, 38
1, 148051, Note_off_c, 0, 79, 64
1, 148057, Control_c, 0, 64, 42
1, 148070, Note_on_c, 0, 77, 62
1, 148072, Control_c, 0, 64, 49
1, 148072, Control_c, 0, 67, 122
1, 148087, Control_c, 0, 64, 55
1, 148101, Control_c, 0, 64, 57
1, 148101, Control_c, 0, 67, 121
1, 148114, Note_off_c, 0, 60, 55
1, 148116, Control_c, 0, 64, 59
1, 148116, Control_c, 0, 67, 121
1, 148131, Control_c, 0, 64, 61
1, 148133, Note_off_c, 0, 77, 59
1, 148145, Control_c, 0, 64, 64
1, 148145, Control_c, 0, 67, 121
1, 148154, Note_on_c, 0, 79, 74
1, 148160, Control_c, 0, 64, 65
1, 148160, Control_c, 0, 67, 122
1, 148175, Control_c, 0, 64, 65
1, 148175, Control_c, 0, 67, 123
1, 148190, Control_c, 0, 64, 66
1, 148205, Control_c, 0, 64, 66
1, 148219, Note_off_c, 0, 79, 62
1, 148232, Note_on_c, 0, 77, 67
1, 148234, Control_c, 0, 67, 122
1, 148249, Control_c, 0, 64, 65
1, 148249, Control_c, 0, 67, 123
1, 148264, Control_c, 0, 64, 61
1, 148264, Control_c, 0, 67, 123
1, 148279, Control_c, 0, 64, 51
1, 148279, Control_c, 0, 67, 124
1, 148285, Note_off_c, 0, 77, 65
1, 148292, Note_on_c, 0, 70, 67
1, 148294, Control_c, 0, 64, 39
1, 148294, Control_c, 0, 67, 125
1, 148300, Note_on_c, 0, 60, 51
1, 148309, Control_c, 0, 64, 31
1, 148311, Note_on_c, 0, 76, 70
1, 148320, Note_off_c, 0, 69, 64
1, 148324, Control_c, 0, 64, 30
1, 148324, Control_c, 0, 67, 124
1, 148339, Control_c, 0, 64, 36
1, 148339, Control_c, 0, 67, 123
1, 148353, Control_c, 0, 64, 43
1, 148353, Control_c, 0, 67, 121
1, 148368, Control_c, 0, 64, 50
1, 148368, Control_c, 0, 67, 122
1, 148383, Control_c, 0, 64, 55
1, 148383, Control_c, 0, 67, 122
1, 148386, Note_off_c, 0, 76, 36
1, 148389, Note_on_c, 0, 74, 67
1, 148398, Control_c, 0, 64, 59
1, 148398, Control_c, 0, 67, 123
1, 148413, Control_c, 0, 64, 62
1, 148413, Control_c, 0, 67, 122
1, 148427, Control_c, 0, 64, 63
1, 148427, Control_c, 0, 67, 122
1, 148442, Control_c, 0, 64, 64
1, 148442, Control_c, 0, 67, 120
1, 148457, Control_c, 0, 64, 64
1, 148457, Control_c, 0, 67, 120
1, 148464, Note_off_c, 0, 74, 49
1, 148472, Control_c, 0, 64, 65
1, 148472, Control_c, 0, 67, 120
1, 148489, Note_on_c, 0, 76, 66
1, 148501, Control_c, 0, 67, 121
1, 148523, Control_c, 0, 64, 62
1, 148538, Control_c, 0, 64, 55
1, 148552, Note_off_c, 0, 76, 56
1, 148553, Control_c, 0, 64, 42
1, 148553, Control_c, 0, 67, 120
1, 148566, Note_on_c, 0, 77, 69
1, 148568, Control_c, 0, 64, 36
1, 148572, Note_on_c, 0, 69, 63
1, 148583, Control_c, 0, 64, 36
1, 148586, Note_off_c, 0, 70, 64
1, 148598, Control_c, 0, 64, 42
1, 148598, Control_c, 0, 67, 121
1, 148603, Note_off_c, 0, 77, 60
1, 148613, Control_c, 0, 64, 50
1, 148613, Control_c, 0, 67, 120
1, 148627, Control_c, 0, 64, 55
1, 148642, Control_c, 0, 64, 58
1, 148657, Control_c, 0, 64, 61
1, 148657, Note_on_c, 0, 76, 69
1, 148671, Control_c, 0, 64, 63
1, 148671, Control_c, 0, 67, 121
1, 148686, Control_c, 0, 64, 64
1, 148686, Control_c, 0, 67, 121
1, 148701, Control_c, 0, 64, 65
1, 148715, Note_off_c, 0, 76, 57
1, 148716, Control_c, 0, 64, 66
1, 148716, Control_c, 0, 67, 121
1, 148741, Note_on_c, 0, 77, 60
1, 148746, Control_c, 0, 67, 123
1, 148760, Control_c, 0, 67, 124
1, 148775, Control_c, 0, 64, 63
1, 148775, Control_c, 0, 67, 125
1, 148790, Control_c, 0, 64, 55
1, 148790, Control_c, 0, 67, 125
1, 148805, Control_c, 0, 64, 46
1, 148819, Control_c, 0, 64, 39
1, 148821, Note_on_c, 0, 79, 73
1, 148822, Note_off_c, 0, 77, 54
1, 148834, Note_on_c, 0, 67, 61
1, 148834, Control_c, 0, 64, 38
1, 148836, Note_off_c, 0, 69, 61
1, 148850, Control_c, 0, 64, 42
1, 148850, Control_c, 0, 67, 125
1, 148865, Control_c, 0, 64, 46
1, 148880, Control_c, 0, 64, 50
1, 148894, Note_off_c, 0, 79, 63
1, 148895, Control_c, 0, 64, 53
1, 148895, Control_c, 0, 67, 124
1, 148910, Control_c, 0, 64, 58
1, 148910, Control_c, 0, 67, 123
1, 148914, Note_on_c, 0, 77, 66
1, 148924, Control_c, 0, 64, 61
1, 148924, Control_c, 0, 67, 123
1, 148939, Control_c, 0, 64, 63
1, 148939, Control_c, 0, 67, 123
1, 148954, Control_c, 0, 64, 64
1, 148968, Control_c, 0, 64, 64
1, 148968, Control_c, 0, 67, 124
1, 148983, Control_c, 0, 64, 65
1, 148988, Note_off_c, 0, 77, 64
1, 148993, Note_on_c, 0, 79, 74
1, 148998, Control_c, 0, 67, 123
1, 149013, Control_c, 0, 64, 64
1, 149028, Control_c, 0, 64, 60
1, 149028, Control_c, 0, 67, 124
1, 149042, Control_c, 0, 64, 51
1, 149042, Control_c, 0, 67, 124
1, 149057, Control_c, 0, 64, 45
1, 149065, Note_on_c, 0, 65, 62
1, 149072, Control_c, 0, 64, 44
1, 149074, Note_off_c, 0, 79, 64
1, 149087, Control_c, 0, 64, 48
1, 149087, Control_c, 0, 67, 124
1, 149089, Note_on_c, 0, 81, 65
1, 149089, Note_off_c, 0, 67, 59
1, 149097, Note_off_c, 0, 60, 46
1, 149102, Control_c, 0, 64, 54
1, 149117, Control_c, 0, 64, 58
1, 149117, Control_c, 0, 67, 124
1, 149131, Control_c, 0, 64, 61
1, 149140, Note_off_c, 0, 81, 63
1, 149146, Control_c, 0, 64, 63
1, 149146, Control_c, 0, 67, 125
1, 149161, Control_c, 0, 64, 64
1, 149176, Control_c, 0, 64, 66
1, 149176, Control_c, 0, 67, 124
1, 149178, Note_on_c, 0, 79, 76
1, 149191, Control_c, 0, 64, 67
1, 149191, Control_c, 0, 67, 123
1, 149206, Control_c, 0, 64, 67
1, 149221, Control_c, 0, 64, 68
1, 149221, Control_c, 0, 67, 124
1, 149236, Control_c, 0, 64, 68
1, 149236, Control_c, 0, 67, 124
1, 149242, Note_off_c, 0, 79, 49
1, 149259, Note_on_c, 0, 81, 69
1, 149287, Control_c, 0, 64, 67
1, 149301, Control_c, 0, 64, 63
1, 149301, Control_c, 0, 67, 124
1, 149316, Control_c, 0, 64, 57
1, 149331, Control_c, 0, 64, 53
1, 149331, Control_c, 0, 67, 124
1, 149339, Note_off_c, 0, 81, 64
1, 149346, Control_c, 0, 67, 125
1, 149361, Control_c, 0, 64, 54
1, 149372, Note_on_c, 0, 82, 69
1, 149374, Note_on_c, 0, 64, 55
1, 149376, Control_c, 0, 64, 56
1, 149377, Note_on_c, 0, 60, 42
1, 149386, Note_off_c, 0, 65, 60
1, 149391, Control_c, 0, 67, 124
1, 149403, Note_off_c, 0, 82, 64
1, 149406, Control_c, 0, 67, 123
1, 149421, Control_c, 0, 64, 57
1, 149421, Control_c, 0, 67, 121
1, 149435, Control_c, 0, 64, 58
1, 149435, Control_c, 0, 67, 121
1, 149449, Control_c, 0, 64, 56
1, 149464, Control_c, 0, 64, 52
1, 149464, Control_c, 0, 67, 120
1, 149479, Control_c, 0, 64, 49
1, 149487, Note_on_c, 0, 82, 60
1, 149493, Control_c, 0, 64, 49
1, 149493, Control_c, 0, 67, 119
1, 149508, Control_c, 0, 64, 51
1, 149508, Control_c, 0, 67, 118
1, 149523, Control_c, 0, 64, 55
1, 149538, Control_c, 0, 67, 118
1, 149552, Note_off_c, 0, 82, 60
1, 149553, Control_c, 0, 64, 54
1, 149567, Control_c, 0, 67, 117
1, 149569, Note_on_c, 0, 79, 74
1, 149582, Control_c, 0, 64, 55
1, 149597, Control_c, 0, 64, 57
1, 149597, Control_c, 0, 67, 117
1, 149612, Control_c, 0, 64, 58
1, 149627, Control_c, 0, 67, 117
1, 149628, Note_off_c, 0, 79, 64
1, 149665, Note_on_c, 0, 76, 65
1, 149672, Control_c, 0, 67, 118
1, 149687, Control_c, 0, 64, 57
1, 149687, Control_c, 0, 67, 118
1, 149702, Control_c, 0, 64, 56
1, 149702, Control_c, 0, 67, 119
1, 149703, Note_off_c, 0, 76, 59
1, 149716, Control_c, 0, 64, 55
1, 149716, Control_c, 0, 67, 119
1, 149732, Note_on_c, 0, 79, 68
1, 149761, Control_c, 0, 64, 55
1, 149776, Control_c, 0, 67, 120
1, 149790, Control_c, 0, 67, 121
1, 149809, Note_off_c, 0, 79, 64
1, 149820, Control_c, 0, 67, 122
1, 149835, Note_on_c, 0, 76, 47
1, 149835, Control_c, 0, 64, 54
1, 149850, Control_c, 0, 64, 53
1, 149859, Note_off_c, 0, 76, 60
1, 149865, Control_c, 0, 64, 53
1, 149865, Control_c, 0, 67, 122
1, 149895, Control_c, 0, 64, 52
1, 149895, Control_c, 0, 67, 123
1, 149895, Note_on_c, 0, 70, 69
1, 149909, Control_c, 0, 64, 50
1, 149924, Control_c, 0, 64, 47
1, 149939, Control_c, 0, 64, 46
1, 149947, Note_off_c, 0, 70, 57
1, 149954, Control_c, 0, 67, 123
1, 149963, Note_on_c, 0, 76, 61
1, 149969, Control_c, 0, 64, 45
1, 149984, Control_c, 0, 64, 42
1, 149998, Control_c, 0, 64, 38
1, 150020, Control_c, 0, 64, 28
1, 150029, Note_off_c, 0, 64, 59
1, 150031, Note_off_c, 0, 60, 54
1, 150035, Control_c, 0, 64, 17
1, 150044, Note_off_c, 0, 76, 64
1, 150050, Control_c, 0, 64, 0
1, 150064, Note_on_c, 0, 70, 65
1, 150065, Control_c, 0, 67, 123
1, 150106, Note_off_c, 0, 70, 64
1, 150109, Control_c, 0, 67, 123
1, 150136, Note_on_c, 0, 67, 68
1, 150139, Control_c, 0, 67, 123
1, 150184, Control_c, 0, 67, 123
1, 150187, Note_off_c, 0, 67, 48
1, 150198, Control_c, 0, 67, 125
1, 150213, Control_c, 0, 67, 125
1, 150214, Note_on_c, 0, 70, 71
1, 150272, Control_c, 0, 67, 126
1, 150278, Note_on_c, 0, 67, 70
1, 150281, Note_off_c, 0, 70, 63
1, 150287, Control_c, 0, 67, 127
1, 150302, Control_c, 0, 67, 127
1, 150335, Note_off_c, 0, 67, 63
1, 150365, Note_on_c, 0, 64, 67
1, 150407, Note_off_c, 0, 64, 58
1, 150427, Note_on_c, 0, 67, 70
1, 150451, Control_c, 0, 67, 127
1, 150506, Note_off_c, 0, 67, 64
1, 150514, Note_on_c, 0, 64, 64
1, 150555, Note_off_c, 0, 64, 62
1, 150581, Note_on_c, 0, 58, 71
1, 150636, Note_off_c, 0, 58, 60
1, 150658, Control_c, 0, 67, 126
1, 150664, Note_on_c, 0, 64, 66
1, 150717, Note_off_c, 0, 64, 64
1, 150717, Control_c, 0, 67, 127
1, 150739, Note_on_c, 0, 58, 64
1, 150789, Note_off_c, 0, 58, 65
1, 150824, Note_on_c, 0, 55, 61
1, 150869, Note_off_c, 0, 55, 55
1, 150893, Note_on_c, 0, 58, 67
1, 150932, Control_c, 0, 67, 126
1, 150951, Note_off_c, 0, 58, 62
1, 150962, Control_c, 0, 67, 126
1, 150974, Note_on_c, 0, 55, 59
1, 151015, Note_off_c, 0, 55, 65
1, 151041, Note_on_c, 0, 52, 66
1, 151094, Note_off_c, 0, 52, 56
1, 151105, Note_on_c, 0, 55, 64
1, 151111, Control_c, 0, 67, 126
1, 151126, Control_c, 0, 67, 127
1, 151163, Note_off_c, 0, 55, 63
1, 151191, Note_on_c, 0, 52, 71
1, 151215, Control_c, 0, 67, 127
1, 151245, Note_off_c, 0, 52, 58
1, 151257, Note_on_c, 0, 36, 61
1, 151260, Control_c, 0, 67, 127
1, 151264, Note_on_c, 0, 48, 71
1, 151308, Note_off_c, 0, 36, 63
1, 151321, Note_off_c, 0, 48, 56
1, 151329, Note_on_c, 0, 40, 54
1, 151334, Control_c, 0, 67, 126
1, 151342, Note_on_c, 0, 52, 66
1, 151378, Note_off_c, 0, 40, 64
1, 151384, Note_off_c, 0, 52, 56
1, 151395, Note_on_c, 0, 43, 60
1, 151419, Note_on_c, 0, 55, 48
1, 151423, Control_c, 0, 67, 127
1, 151452, Control_c, 0, 67, 127
1, 151465, Note_off_c, 0, 43, 64
1, 151481, Note_off_c, 0, 55, 63
1, 151484, Note_on_c, 0, 46, 65
1, 151494, Note_on_c, 0, 58, 61
1, 151542, Note_off_c, 0, 58, 64
1, 151543, Note_off_c, 0, 46, 62
1, 151570, Note_on_c, 0, 43, 47
1, 151576, Note_on_c, 0, 55, 59
1, 151619, Note_off_c, 0, 43, 63
1, 151629, Note_off_c, 0, 55, 63
1, 151647, Note_on_c, 0, 40, 52
1, 151650, Note_on_c, 0, 52, 55
1, 151710, Note_off_c, 0, 40, 61
1, 151719, Note_off_c, 0, 52, 61
1, 151731, Note_on_c, 0, 48, 73
1, 151734, Note_on_c, 0, 36, 63
1, 151763, Note_off_c, 0, 48, 65
1, 151801, Note_off_c, 0, 36, 63
1, 151817, Note_on_c, 0, 52, 62
1, 151823, Note_on_c, 0, 40, 54
1, 151849, Note_off_c, 0, 52, 64
1, 151868, Note_off_c, 0, 40, 63
1, 151882, Note_on_c, 0, 55, 49
1, 151886, Note_on_c, 0, 43, 54
1, 151939, Note_off_c, 0, 43, 63
1, 151957, Note_off_c, 0, 55, 63
1, 151966, Note_on_c, 0, 58, 66
1, 151982, Note_on_c, 0, 46, 49
1, 152014, Note_off_c, 0, 46, 55
1, 152031, Note_off_c, 0, 58, 64
1, 152048, Note_on_c, 0, 43, 55
1, 152048, Note_on_c, 0, 55, 59
1, 152091, Note_off_c, 0, 43, 63
1, 152126, Note_on_c, 0, 40, 53
1, 152127, Note_off_c, 0, 55, 63
1, 152135, Note_on_c, 0, 52, 62
1, 152190, Note_off_c, 0, 40, 61
1, 152193, Note_off_c, 0, 52, 56
1, 152210, Note_on_c, 0, 48, 72
1, 152218, Note_on_c, 0, 36, 64
1, 152244, Note_off_c, 0, 48, 63
1, 152288, Note_off_c, 0, 36, 56
1, 152308, Note_on_c, 0, 40, 61
1, 152312, Note_on_c, 0, 52, 49
1, 152339, Note_off_c, 0, 52, 55
1, 152345, Note_on_c, 0, 55, 64
1, 152366, Note_off_c, 0, 40, 46
1, 152385, Note_on_c, 0, 43, 62
1, 152390, Note_off_c, 0, 55, 61
1, 152411, Note_off_c, 0, 43, 65
1, 152452, Note_on_c, 0, 60, 70
1, 152454, Note_on_c, 0, 48, 65
1, 152482, Note_off_c, 0, 48, 65
1, 152500, Note_off_c, 0, 60, 54
1, 152534, Note_on_c, 0, 64, 61
1, 152539, Note_on_c, 0, 52, 66
1, 152564, Note_off_c, 0, 64, 64
1, 152571, Note_on_c, 0, 66, 53
1, 152599, Note_off_c, 0, 52, 63
1, 152607, Note_on_c, 0, 55, 54
1, 152634, Note_off_c, 0, 66, 60
1, 152661, Note_off_c, 0, 55, 62
1, 152667, Note_on_c, 0, 67, 11
1, 152682, Note_on_c, 0, 70, 74
1, 152687, Note_on_c, 0, 58, 72
1, 152702, Note_off_c, 0, 67, 39
1, 152744, Note_off_c, 0, 58, 58
1, 152744, Note_off_c, 0, 70, 64
1, 152753, Note_on_c, 0, 55, 66
1, 152763, Note_on_c, 0, 67, 57
1, 152813, Note_off_c, 0, 55, 62
1, 152820, Note_on_c, 0, 64, 61
1, 152822, Note_off_c, 0, 67, 62
1, 152826, Note_on_c, 0, 52, 63
1, 152895, Note_off_c, 0, 52, 62
1, 152896, Note_off_c, 0, 64, 63
1, 152911, Note_on_c, 0, 60, 73
1, 152916, Note_on_c, 0, 48, 68
1, 152950, Note_off_c, 0, 60, 58
1, 152959, Note_on_c, 0, 68, 32
1, 152989, Note_off_c, 0, 48, 64
1, 152993, Note_off_c, 0, 68, 45
1, 152999, Note_on_c, 0, 64, 66
1, 153004, Note_on_c, 0, 52, 63
1, 153038, Note_off_c, 0, 64, 52
1, 153072, Note_on_c, 0, 67, 60
1, 153079, Note_off_c, 0, 52, 63
1, 153118, Note_on_c, 0, 48, 65
1, 153135, Note_off_c, 0, 67, 62
1, 153151, Note_on_c, 0, 60, 73
1, 153209, Note_on_c, 0, 52, 65
1, 153209, Note_off_c, 0, 48, 63
1, 153223, Note_on_c, 0, 64, 73
1, 153224, Note_off_c, 0, 60, 59
1, 153278, Note_off_c, 0, 64, 65
1, 153294, Note_off_c, 0, 52, 63
1, 153296, Note_on_c, 0, 67, 58
1, 153300, Note_on_c, 0, 55, 66
1, 153329, Note_on_c, 0, 68, 39
1, 153329, Note_off_c, 0, 67, 52
1, 153345, Note_off_c, 0, 68, 39
1, 153358, Note_off_c, 0, 55, 63
1, 153388, Note_on_c, 0, 60, 61
1, 153394, Note_on_c, 0, 72, 70
1, 153427, Note_off_c, 0, 60, 57
1, 153454, Note_off_c, 0, 72, 50
1, 153475, Note_on_c, 0, 76, 76
1, 153478, Note_on_c, 0, 64, 67
1, 153521, Note_off_c, 0, 76, 61
1, 153532, Note_off_c, 0, 64, 61
1, 153544, Note_on_c, 0, 79, 63
1, 153566, Note_on_c, 0, 67, 63
1, 153611, Note_off_c, 0, 67, 61
1, 153615, Note_off_c, 0, 79, 65
1, 153623, Note_on_c, 0, 82, 71
1, 153635, Note_on_c, 0, 70, 72
1, 153662, Note_off_c, 0, 70, 63
1, 153680, Note_off_c, 0, 82, 64
1, 153699, Note_on_c, 0, 67, 74
1, 153706, Note_on_c, 0, 79, 67
1, 153746, Note_off_c, 0, 67, 62
1, 153768, Note_off_c, 0, 79, 64
1, 153778, Note_on_c, 0, 64, 62
1, 153788, Note_on_c, 0, 76, 53
1, 153837, Note_off_c, 0, 64, 59
1, 153853, Note_on_c, 0, 60, 65
1, 153856, Note_off_c, 0, 76, 60
1, 153865, Note_on_c, 0, 72, 72
1, 153896, Note_off_c, 0, 72, 64
1, 153904, Note_off_c, 0, 60, 50
1, 153946, Note_on_c, 0, 76, 68
1, 153949, Note_on_c, 0, 64, 55
1, 153971, Note_off_c, 0, 64, 60
1, 153990, Note_off_c, 0, 76, 62
1, 153998, Note_on_c, 0, 67, 63
1, 154010, Note_on_c, 0, 79, 67
1, 154055, Note_off_c, 0, 67, 55
1, 154062, Control_c, 0, 64, 15
1, 154062, Control_c, 0, 67, 127
1, 154077, Control_c, 0, 64, 39
1, 154077, Control_c, 0, 67, 126
1, 154087, Note_off_c, 0, 79, 64
1, 154091, Control_c, 0, 64, 51
1, 154091, Control_c, 0, 67, 125
1, 154098, Note_on_c, 0, 82, 73
1, 154104, Note_on_c, 0, 70, 63
1, 154106, Control_c, 0, 64, 59
1, 154106, Control_c, 0, 67, 125
1, 154121, Control_c, 0, 64, 63
1, 154121, Control_c, 0, 67, 124
1, 154127, Note_off_c, 0, 82, 66
1, 154130, Note_off_c, 0, 70, 67
1, 154136, Control_c, 0, 64, 64
1, 154180, Control_c, 0, 64, 63
1, 154195, Control_c, 0, 64, 59
1, 154195, Control_c, 0, 67, 124
1, 154210, Control_c, 0, 64, 53
1, 154225, Control_c, 0, 64, 48
1, 154239, Control_c, 0, 64, 44
1, 154254, Control_c, 0, 64, 40
1, 154254, Control_c, 0, 67, 123
1, 154269, Control_c, 0, 64, 35
1, 154283, Control_c, 0, 64, 32
1, 154298, Control_c, 0, 64, 31
1, 154313, Control_c, 0, 64, 32
1, 154343, Control_c, 0, 67, 123
1, 154357, Control_c, 0, 64, 34
1, 154372, Control_c, 0, 64, 41
1, 154387, Control_c, 0, 64, 48
1, 154387, Control_c, 0, 67, 122
1, 154402, Control_c, 0, 64, 52
1, 154417, Control_c, 0, 64, 53
1, 154433, Control_c, 0, 64, 54
1, 154448, Control_c, 0, 64, 56
1, 154455, Note_on_c, 0, 64, 54
1, 154458, Note_on_c, 0, 70, 53
1, 154461, Note_on_c, 0, 67, 52
1, 154462, Control_c, 0, 64, 61
1, 154463, Note_on_c, 0, 48, 40
1, 154477, Control_c, 0, 64, 66
1, 154477, Control_c, 0, 67, 121
1, 154492, Control_c, 0, 64, 68
1, 154492, Control_c, 0, 67, 119
1, 154514, Control_c, 0, 64, 71
1, 154514, Control_c, 0, 67, 118
1, 154517, Note_off_c, 0, 48, 58
1, 154521, Note_off_c, 0, 67, 60
1, 154527, Note_off_c, 0, 70, 58
1, 154527, Note_off_c, 0, 64, 56
1, 154529, Control_c, 0, 64, 73
1, 154544, Control_c, 0, 64, 74
1, 154544, Control_c, 0, 67, 117
1, 154559, Control_c, 0, 64, 76
1, 154559, Control_c, 0, 67, 116
1, 154574, Control_c, 0, 64, 77
1, 154574, Control_c, 0, 67, 115
1, 154588, Control_c, 0, 64, 77
1, 154588, Control_c, 0, 67, 112
1, 154603, Control_c, 0, 67, 110
1, 154618, Control_c, 0, 67, 108
1, 154633, Control_c, 0, 67, 106
1, 154648, Control_c, 0, 67, 103
1, 154662, Control_c, 0, 67, 100
1, 154677, Control_c, 0, 67, 95
1, 154692, Control_c, 0, 64, 77
1, 154692, Control_c, 0, 67, 89
1, 154707, Control_c, 0, 64, 76
1, 154707, Control_c, 0, 67, 82
1, 154721, Control_c, 0, 64, 75
1, 154721, Control_c, 0, 67, 75
1, 154736, Control_c, 0, 64, 74
1, 154736, Control_c, 0, 67, 70
1, 154751, Control_c, 0, 64, 72
1, 154751, Control_c, 0, 67, 66
1, 154766, Control_c, 0, 64, 69
1, 154766, Control_c, 0, 67, 61
1, 154781, Control_c, 0, 64, 64
1, 154781, Control_c, 0, 67, 52
1, 154795, Control_c, 0, 64, 60
1, 154795, Control_c, 0, 67, 42
1, 154810, Control_c, 0, 64, 56
1, 154810, Control_c, 0, 67, 33
1, 154825, Control_c, 0, 64, 54
1, 154825, Control_c, 0, 67, 25
1, 154840, Control_c, 0, 64, 51
1, 154840, Control_c, 0, 67, 16
1, 154855, Control_c, 0, 64, 47
1, 154855, Control_c, 0, 67, 0
1, 154870, Control_c, 0, 64, 42
1, 154885, Control_c, 0, 64, 34
1, 154899, Control_c, 0, 64, 26
1, 154914, Control_c, 0, 64, 18
1, 154929, Control_c, 0, 64, 0
1, 155180, Control_c, 0, 64, 21
1, 155195, Control_c, 0, 64, 27
1, 155210, Control_c, 0, 64, 30
1, 155225, Control_c, 0, 64, 32
1, 155241, Control_c, 0, 64, 35
1, 155263, Control_c, 0, 64, 39
1, 155278, Control_c, 0, 64, 42
1, 155293, Control_c, 0, 64, 44
1, 155308, Control_c, 0, 64, 46
1, 155323, Control_c, 0, 64, 48
1, 155337, Control_c, 0, 64, 50
1, 155352, Control_c, 0, 64, 51
1, 155367, Control_c, 0, 64, 53
1, 155382, Control_c, 0, 64, 54
1, 155397, Control_c, 0, 64, 55
1, 155411, Control_c, 0, 64, 55
1, 155426, Control_c, 0, 64, 56
1, 155441, Control_c, 0, 64, 57
1, 155456, Control_c, 0, 64, 57
1, 155485, Control_c, 0, 64, 58
1, 155500, Control_c, 0, 64, 58
1, 155544, Control_c, 0, 64, 59
1, 155619, Note_on_c, 0, 72, 63
1, 155663, Control_c, 0, 64, 59
1, 155678, Control_c, 0, 64, 60
1, 155692, Control_c, 0, 64, 61
1, 155707, Note_off_c, 0, 72, 62
1, 155707, Control_c, 0, 64, 62
1, 155722, Control_c, 0, 64, 62
1, 155737, Control_c, 0, 64, 63
1, 155767, Control_c, 0, 64, 63
1, 155871, Control_c, 0, 64, 63
1, 155900, Control_c, 0, 64, 62
1, 155915, Control_c, 0, 64, 62
1, 155930, Control_c, 0, 64, 61
1, 155958, Note_on_c, 0, 70, 60
1, 155959, Control_c, 0, 64, 60
1, 155974, Control_c, 0, 64, 60
1, 155989, Control_c, 0, 64, 59
1, 156011, Control_c, 0, 64, 58
1, 156041, Control_c, 0, 64, 57
1, 156056, Control_c, 0, 64, 57
1, 156071, Control_c, 0, 64, 55
1, 156086, Control_c, 0, 64, 52
1, 156101, Control_c, 0, 64, 50
1, 156106, Note_on_c, 0, 69, 71
1, 156116, Control_c, 0, 64, 48
1, 156131, Control_c, 0, 64, 46
1, 156146, Control_c, 0, 64, 41
1, 156160, Control_c, 0, 64, 26
1, 156172, Note_off_c, 0, 70, 33
1, 156175, Control_c, 0, 64, 0
1, 156223, Note_off_c, 0, 69, 58
1, 156228, Note_on_c, 0, 67, 71
1, 156331, Note_off_c, 0, 67, 62
1, 156345, Note_on_c, 0, 65, 75
1, 156478, Note_on_c, 0, 69, 76
1, 156479, Note_off_c, 0, 65, 58
1, 156592, Note_on_c, 0, 67, 77
1, 156611, Note_off_c, 0, 69, 55
1, 156727, Note_on_c, 0, 70, 73
1, 156734, Note_off_c, 0, 67, 62
1, 156820, Note_off_c, 0, 70, 63
1, 156847, Note_on_c, 0, 64, 74
1, 156938, Note_off_c, 0, 64, 57
1, 156983, Note_on_c, 0, 65, 76
1, 157042, Note_off_c, 0, 65, 63
1, 157266, Note_on_c, 0, 60, 72
1, 157323, Note_off_c, 0, 60, 62
1, 157655, Note_on_c, 0, 72, 69
1, 157761, Control_c, 0, 64, 19
1, 157776, Control_c, 0, 64, 28
1, 157791, Control_c, 0, 64, 37
1, 157806, Control_c, 0, 64, 47
1, 157821, Control_c, 0, 64, 53
1, 157836, Control_c, 0, 64, 56
1, 157851, Control_c, 0, 64, 57
1, 157865, Control_c, 0, 64, 58
1, 157880, Control_c, 0, 64, 59
1, 157895, Control_c, 0, 64, 60
1, 157910, Control_c, 0, 64, 61
1, 157925, Control_c, 0, 64, 62
1, 157939, Control_c, 0, 64, 63
1, 157954, Control_c, 0, 64, 63
1, 157969, Control_c, 0, 64, 64
1, 158043, Control_c, 0, 64, 63
1, 158073, Control_c, 0, 64, 63
1, 158087, Control_c, 0, 64, 62
1, 158102, Control_c, 0, 64, 61
1, 158117, Control_c, 0, 64, 60
1, 158131, Control_c, 0, 64, 59
1, 158146, Control_c, 0, 64, 58
1, 158161, Control_c, 0, 64, 58
1, 158176, Control_c, 0, 64, 57
1, 158191, Control_c, 0, 64, 56
1, 158205, Control_c, 0, 64, 56
1, 158220, Control_c, 0, 64, 55
1, 158235, Control_c, 0, 64, 54
1, 158257, Control_c, 0, 64, 53
1, 158272, Control_c, 0, 64, 52
1, 158287, Control_c, 0, 64, 50
1, 158289, Note_on_c, 0, 70, 60
1, 158302, Control_c, 0, 64, 46
1, 158317, Control_c, 0, 64, 43
1, 158331, Control_c, 0, 64, 41
1, 158346, Control_c, 0, 64, 40
1, 158361, Control_c, 0, 64, 34
1, 158375, Note_off_c, 0, 72, 24
1, 158376, Control_c, 0, 64, 15
1, 158391, Control_c, 0, 64, 0
1, 158408, Note_on_c, 0, 69, 66
1, 158518, Note_off_c, 0, 69, 63
1, 158519, Note_on_c, 0, 67, 71
1, 158524, Note_off_c, 0, 70, 27
1, 158625, Note_off_c, 0, 67, 63
1, 158646, Note_on_c, 0, 65, 69
1, 158771, Note_on_c, 0, 69, 63
1, 158772, Note_off_c, 0, 65, 58
1, 158888, Note_off_c, 0, 69, 55
1, 158890, Note_on_c, 0, 67, 64
1, 159035, Note_off_c, 0, 67, 55
1, 159040, Note_on_c, 0, 70, 60
1, 159139, Note_off_c, 0, 70, 61
1, 159165, Note_on_c, 0, 64, 56
1, 159299, Note_off_c, 0, 64, 62
1, 159306, Note_on_c, 0, 53, 42
1, 159311, Note_on_c, 0, 65, 56
1, 159312, Note_on_c, 0, 57, 48
1, 159417, Note_off_c, 0, 57, 61
1, 159451, Note_on_c, 0, 60, 53
1, 159551, Note_off_c, 0, 60, 51
1, 159574, Note_on_c, 0, 57, 47
1, 159644, Control_c, 0, 64, 10
1, 159658, Control_c, 0, 64, 11
1, 159672, Note_off_c, 0, 57, 61
1, 159688, Control_c, 0, 64, 14
1, 159702, Note_on_c, 0, 60, 48
1, 159702, Control_c, 0, 64, 23
1, 159717, Control_c, 0, 64, 32
1, 159732, Control_c, 0, 64, 36
1, 159747, Control_c, 0, 64, 37
1, 159784, Control_c, 0, 64, 38
1, 159799, Control_c, 0, 64, 39
1, 159814, Control_c, 0, 64, 41
1, 159825, Note_off_c, 0, 60, 58
1, 159839, Note_on_c, 0, 57, 48
1, 159873, Control_c, 0, 64, 42
1, 159888, Control_c, 0, 64, 43
1, 159902, Control_c, 0, 64, 44
1, 159917, Control_c, 0, 64, 46
1, 159931, Control_c, 0, 64, 47
1, 159933, Note_off_c, 0, 57, 62
1, 159946, Control_c, 0, 64, 48
1, 159958, Note_on_c, 0, 60, 52
1, 159961, Control_c, 0, 64, 49
1, 159991, Control_c, 0, 64, 49
1, 160006, Control_c, 0, 64, 50
1, 160021, Control_c, 0, 64, 50
1, 160036, Control_c, 0, 64, 52
1, 160051, Control_c, 0, 64, 53
1, 160066, Control_c, 0, 64, 54
1, 160072, Note_off_c, 0, 60, 54
1, 160080, Control_c, 0, 64, 55
1, 160091, Note_on_c, 0, 57, 46
1, 160095, Control_c, 0, 64, 55
1, 160110, Control_c, 0, 64, 56
1, 160125, Control_c, 0, 64, 58
1, 160140, Control_c, 0, 64, 60
1, 160155, Control_c, 0, 64, 61
1, 160170, Control_c, 0, 64, 62
1, 160182, Note_off_c, 0, 57, 62
1, 160185, Control_c, 0, 64, 63
1, 160200, Note_off_c, 0, 53, 38
1, 160200, Control_c, 0, 64, 64
1, 160203, Note_on_c, 0, 60, 56
1, 160229, Control_c, 0, 64, 64
1, 160312, Note_off_c, 0, 65, 41
1, 160318, Control_c, 0, 64, 63
1, 160332, Control_c, 0, 64, 62
1, 160334, Note_on_c, 0, 66, 61
1, 160346, Note_off_c, 0, 60, 56
1, 160347, Control_c, 0, 64, 61
1, 160351, Note_on_c, 0, 53, 31
1, 160355, Note_on_c, 0, 58, 52
1, 160362, Control_c, 0, 64, 59
1, 160377, Control_c, 0, 64, 56
1, 160392, Control_c, 0, 64, 52
1, 160406, Control_c, 0, 64, 49
1, 160423, Note_off_c, 0, 66, 64
1, 160452, Note_on_c, 0, 67, 72
1, 160461, Note_off_c, 0, 58, 54
1, 160466, Control_c, 0, 64, 48
1, 160477, Note_on_c, 0, 60, 51
1, 160480, Control_c, 0, 64, 47
1, 160495, Control_c, 0, 64, 46
1, 160532, Control_c, 0, 64, 47
1, 160547, Control_c, 0, 64, 46
1, 160569, Note_off_c, 0, 60, 48
1, 160577, Note_off_c, 0, 67, 61
1, 160583, Note_on_c, 0, 69, 73
1, 160592, Control_c, 0, 64, 47
1, 160606, Control_c, 0, 64, 49
1, 160612, Note_on_c, 0, 58, 47
1, 160621, Control_c, 0, 64, 50
1, 160636, Control_c, 0, 64, 51
1, 160651, Control_c, 0, 64, 51
1, 160666, Control_c, 0, 64, 52
1, 160680, Control_c, 0, 64, 53
1, 160689, Note_off_c, 0, 69, 64
1, 160695, Control_c, 0, 64, 54
1, 160698, Note_off_c, 0, 58, 56
1, 160700, Note_on_c, 0, 70, 75
1, 160710, Control_c, 0, 64, 53
1, 160711, Note_on_c, 0, 60, 54
1, 160725, Control_c, 0, 64, 53
1, 160754, Control_c, 0, 64, 53
1, 160784, Control_c, 0, 64, 52
1, 160799, Control_c, 0, 64, 51
1, 160802, Note_off_c, 0, 70, 64
1, 160824, Note_on_c, 0, 72, 77
1, 160836, Note_off_c, 0, 60, 47
1, 160840, Note_on_c, 0, 58, 53
1, 160844, Control_c, 0, 64, 52
1, 160859, Control_c, 0, 64, 51
1, 160874, Control_c, 0, 64, 50
1, 160889, Control_c, 0, 64, 50
1, 160903, Control_c, 0, 64, 50
1, 160918, Control_c, 0, 64, 51
1, 160933, Control_c, 0, 64, 52
1, 160936, Note_off_c, 0, 72, 60
1, 160940, Note_off_c, 0, 58, 62
1, 160945, Note_on_c, 0, 73, 74
1, 160966, Note_on_c, 0, 60, 52
1, 160978, Control_c, 0, 64, 53
1, 160992, Control_c, 0, 64, 54
1, 161007, Control_c, 0, 64, 55
1, 161039, Note_off_c, 0, 60, 50
1, 161057, Note_off_c, 0, 73, 65
1, 161067, Control_c, 0, 64, 57
1, 161073, Note_on_c, 0, 74, 71
1, 161076, Note_on_c, 0, 58, 53
1, 161082, Control_c, 0, 64, 57
1, 161140, Note_off_c, 0, 53, 41
1, 161167, Note_off_c, 0, 58, 63
1, 161190, Note_off_c, 0, 74, 58
1, 161194, Note_on_c, 0, 76, 74
1, 161195, Note_on_c, 0, 60, 45
1, 161267, Control_c, 0, 64, 56
1, 161281, Control_c, 0, 64, 55
1, 161296, Control_c, 0, 64, 55
1, 161311, Control_c, 0, 64, 54
1, 161326, Control_c, 0, 64, 54
1, 161339, Note_on_c, 0, 79, 69
1, 161341, Control_c, 0, 64, 53
1, 161342, Note_off_c, 0, 76, 60
1, 161352, Note_off_c, 0, 60, 36
1, 161355, Control_c, 0, 64, 52
1, 161362, Note_on_c, 0, 53, 45
1, 161362, Note_on_c, 0, 57, 45
1, 161370, Control_c, 0, 64, 51
1, 161400, Control_c, 0, 64, 50
1, 161415, Control_c, 0, 64, 48
1, 161430, Control_c, 0, 64, 46
1, 161445, Control_c, 0, 64, 47
1, 161451, Note_off_c, 0, 57, 61
1, 161460, Control_c, 0, 64, 50
1, 161469, Note_on_c, 0, 77, 72
1, 161475, Control_c, 0, 64, 52
1, 161475, Note_on_c, 0, 60, 52
1, 161519, Control_c, 0, 64, 53
1, 161534, Control_c, 0, 64, 55
1, 161542, Note_off_c, 0, 79, 37
1, 161549, Control_c, 0, 64, 57
1, 161563, Control_c, 0, 64, 57
1, 161580, Note_off_c, 0, 77, 61
1, 161589, Note_off_c, 0, 60, 50
1, 161592, Note_on_c, 0, 76, 69
1, 161608, Control_c, 0, 64, 57
1, 161612, Note_on_c, 0, 57, 44
1, 161624, Control_c, 0, 64, 59
1, 161639, Control_c, 0, 64, 62
1, 161653, Control_c, 0, 64, 63
1, 161668, Control_c, 0, 64, 63
1, 161683, Note_off_c, 0, 76, 65
1, 161697, Note_off_c, 0, 57, 59
1, 161698, Control_c, 0, 64, 64
1, 161719, Note_on_c, 0, 74, 70
1, 161725, Note_on_c, 0, 60, 52
1, 161742, Control_c, 0, 64, 63
1, 161757, Note_off_c, 0, 74, 58
1, 161757, Control_c, 0, 64, 61
1, 161771, Control_c, 0, 64, 59
1, 161786, Control_c, 0, 64, 54
1, 161801, Control_c, 0, 64, 49
1, 161816, Control_c, 0, 64, 44
1, 161831, Control_c, 0, 64, 44
1, 161845, Control_c, 0, 64, 47
1, 161847, Note_on_c, 0, 74, 73
1, 161848, Note_on_c, 0, 57, 46
1, 161851, Note_off_c, 0, 60, 42
1, 161860, Control_c, 0, 64, 53
1, 161875, Control_c, 0, 64, 57
1, 161890, Control_c, 0, 64, 58
1, 161913, Note_off_c, 0, 74, 64
1, 161920, Control_c, 0, 64, 59
1, 161942, Note_off_c, 0, 57, 61
1, 161956, Note_on_c, 0, 72, 63
1, 161979, Note_on_c, 0, 60, 53
1, 162001, Control_c, 0, 64, 58
1, 162060, Control_c, 0, 64, 58
1, 162075, Control_c, 0, 64, 57
1, 162090, Control_c, 0, 64, 56
1, 162094, Note_off_c, 0, 60, 50
1, 162101, Note_on_c, 0, 70, 61
1, 162102, Note_on_c, 0, 57, 50
1, 162114, Note_off_c, 0, 72, 32
1, 162119, Control_c, 0, 64, 56
1, 162134, Control_c, 0, 64, 54
1, 162149, Control_c, 0, 64, 51
1, 162164, Control_c, 0, 64, 50
1, 162192, Note_off_c, 0, 57, 61
1, 162194, Control_c, 0, 64, 50
1, 162195, Note_off_c, 0, 53, 33
1, 162209, Control_c, 0, 64, 47
1, 162217, Note_on_c, 0, 69, 66
1, 162224, Control_c, 0, 64, 43
1, 162231, Note_on_c, 0, 60, 54
1, 162238, Control_c, 0, 64, 42
1, 162253, Control_c, 0, 64, 43
1, 162276, Note_off_c, 0, 70, 28
1, 162283, Control_c, 0, 64, 41
1, 162298, Control_c, 0, 64, 39
1, 162312, Control_c, 0, 64, 38
1, 162326, Note_off_c, 0, 69, 56
1, 162327, Control_c, 0, 64, 38
1, 162337, Note_off_c, 0, 60, 54
1, 162342, Control_c, 0, 64, 38
1, 162351, Note_on_c, 0, 67, 60
1, 162357, Control_c, 0, 64, 36
1, 162358, Note_on_c, 0, 64, 58
1, 162371, Note_on_c, 0, 53, 41
1, 162372, Control_c, 0, 64, 32
1, 162374, Note_on_c, 0, 58, 52
1, 162386, Control_c, 0, 64, 31
1, 162401, Control_c, 0, 64, 32
1, 162410, Note_off_c, 0, 67, 64
1, 162432, Control_c, 0, 64, 30
1, 162447, Control_c, 0, 64, 27
1, 162462, Control_c, 0, 64, 26
1, 162476, Control_c, 0, 64, 27
1, 162485, Note_off_c, 0, 58, 60
1, 162491, Control_c, 0, 64, 27
1, 162501, Note_on_c, 0, 60, 38
1, 162506, Control_c, 0, 64, 26
1, 162520, Control_c, 0, 64, 23
1, 162535, Control_c, 0, 64, 22
1, 162583, Note_on_c, 0, 69, 67
1, 162594, Control_c, 0, 64, 22
1, 162620, Note_off_c, 0, 64, 0
1, 162629, Note_on_c, 0, 58, 45
1, 162644, Note_on_c, 0, 67, 66
1, 162646, Note_off_c, 0, 60, 41
1, 162653, Note_off_c, 0, 69, 61
1, 162657, Poly_aftertouch_c, 0, 64, 127
1, 162668, Control_c, 0, 64, 19
1, 162683, Control_c, 0, 64, 17
1, 162753, Note_off_c, 0, 67, 61
1, 162757, Note_on_c, 0, 66, 68
1, 162769, Note_on_c, 0, 60, 57
1, 162776, Note_off_c, 0, 58, 50
1, 162809, Control_c, 0, 64, 17
1, 162876, Note_off_c, 0, 66, 59
1, 162882, Note_on_c, 0, 67, 70
1, 162883, Note_off_c, 0, 60, 48
1, 162914, Note_on_c, 0, 58, 50
1, 162920, Note_off_c, 0, 67, 65
1, 162999, Note_off_c, 0, 58, 53
1, 163028, Note_on_c, 0, 60, 52
1, 163106, Control_c, 0, 64, 18
1, 163121, Control_c, 0, 64, 19
1, 163144, Note_on_c, 0, 72, 61
1, 163148, Note_on_c, 0, 58, 48
1, 163157, Note_off_c, 0, 60, 34
1, 163165, Control_c, 0, 64, 19
1, 163180, Control_c, 0, 64, 20
1, 163188, Note_off_c, 0, 72, 63
1, 163210, Note_off_c, 0, 53, 52
1, 163261, Note_off_c, 0, 58, 60
1, 163270, Control_c, 0, 64, 20
1, 163279, Note_on_c, 0, 60, 47
1, 163344, Control_c, 0, 64, 21
1, 163403, Control_c, 0, 64, 22
1, 163417, Control_c, 0, 64, 23
1, 163470, Note_on_c, 0, 65, 49
1, 163504, Note_on_c, 0, 53, 28
1, 163505, Note_on_c, 0, 57, 39
1, 163515, Poly_aftertouch_c, 0, 64, 0
1, 163529, Control_c, 0, 64, 23
1, 163544, Control_c, 0, 64, 22
1, 163551, Note_off_c, 0, 60, 33
1, 163573, Control_c, 0, 64, 22
1, 163588, Control_c, 0, 64, 19
1, 163603, Control_c, 0, 64, 15
1, 163618, Control_c, 0, 64, 15
1, 163632, Control_c, 0, 64, 19
1, 163647, Control_c, 0, 64, 32
1, 163662, Control_c, 0, 64, 45
1, 163675, Control_c, 0, 64, 53
1, 163690, Control_c, 0, 64, 58
1, 163705, Control_c, 0, 64, 61
1, 163720, Control_c, 0, 64, 64
1, 163726, Note_off_c, 0, 65, 60
1, 163735, Control_c, 0, 64, 66
1, 163750, Control_c, 0, 64, 69
1, 163765, Control_c, 0, 64, 71
1, 163780, Control_c, 0, 64, 73
1, 163795, Control_c, 0, 64, 75
1, 163809, Control_c, 0, 64, 77
1, 163824, Control_c, 0, 64, 81
1, 163839, Control_c, 0, 64, 83
1, 163854, Control_c, 0, 64, 87
1, 163868, Control_c, 0, 64, 92
1, 163883, Control_c, 0, 64, 96
1, 163898, Control_c, 0, 64, 99
1, 163913, Control_c, 0, 64, 101
1, 163926, Note_off_c, 0, 53, 35
1, 163928, Control_c, 0, 64, 103
1, 163943, Control_c, 0, 64, 105
1, 163947, Note_off_c, 0, 57, 39
1, 163957, Control_c, 0, 64, 106
1, 163972, Control_c, 0, 64, 106
1, 163987, Control_c, 0, 64, 107
1, 164002, Control_c, 0, 64, 109
1, 164017, Control_c, 0, 64, 111
1, 164033, Control_c, 0, 64, 113
1, 164047, Control_c, 0, 64, 113
1, 164136, Control_c, 0, 64, 113
1, 164151, Control_c, 0, 64, 103
1, 164166, Control_c, 0, 64, 86
1, 164180, Control_c, 0, 64, 69
1, 164195, Control_c, 0, 64, 50
1, 164210, Control_c, 0, 64, 0
1, 164386, Note_on_c, 0, 60, 83
1, 164442, Note_off_c, 0, 60, 61
1, 164671, Note_on_c, 0, 58, 71
1, 164793, Note_on_c, 0, 56, 76
1, 164794, Note_off_c, 0, 58, 64
1, 164915, Note_on_c, 0, 55, 74
1, 164936, Note_off_c, 0, 56, 56
1, 165037, Note_on_c, 0, 53, 74
1, 165038, Note_off_c, 0, 55, 63
1, 165160, Note_off_c, 0, 53, 62
1, 165162, Note_on_c, 0, 56, 70
1, 165274, Note_off_c, 0, 56, 62
1, 165285, Note_on_c, 0, 55, 74
1, 165407, Note_on_c, 0, 58, 76
1, 165417, Note_off_c, 0, 55, 57
1, 165526, Note_on_c, 0, 52, 80
1, 165527, Note_off_c, 0, 58, 64
1, 165646, Note_off_c, 0, 52, 63
1, 165665, Note_on_c, 0, 53, 79
1, 165717, Note_off_c, 0, 53, 63
1, 165949, Note_on_c, 0, 48, 83
1, 165992, Note_off_c, 0, 48, 66
1, 166272, Note_on_c, 0, 80, 77
1, 166282, Note_on_c, 0, 68, 61
1, 166380, Note_off_c, 0, 68, 0
1, 166380, Note_on_c, 0, 68, 21
1, 166495, Control_c, 0, 64, 35
1, 166510, Control_c, 0, 64, 50
1, 166524, Control_c, 0, 64, 56
1, 166539, Control_c, 0, 64, 58
1, 166554, Control_c, 0, 64, 59
1, 166583, Control_c, 0, 64, 57
1, 166591, Note_on_c, 0, 63, 73
1, 166594, Note_off_c, 0, 68, 46
1, 166598, Control_c, 0, 64, 53
1, 166603, Note_on_c, 0, 60, 64
1, 166613, Control_c, 0, 64, 47
1, 166628, Control_c, 0, 64, 46
1, 166642, Control_c, 0, 64, 52
1, 166657, Control_c, 0, 64, 59
1, 166672, Control_c, 0, 64, 62
1, 166687, Control_c, 0, 64, 63
1, 166701, Control_c, 0, 64, 64
1, 166716, Control_c, 0, 64, 65
1, 166731, Control_c, 0, 64, 67
1, 166746, Control_c, 0, 64, 68
1, 166761, Control_c, 0, 64, 68
1, 166835, Control_c, 0, 64, 66
1, 166850, Control_c, 0, 64, 63
1, 166865, Control_c, 0, 64, 57
1, 166880, Control_c, 0, 64, 49
1, 166890, Note_on_c, 0, 65, 59
1, 166890, Note_off_c, 0, 60, 60
1, 166892, Note_on_c, 0, 78, 68
1, 166894, Control_c, 0, 64, 41
1, 166902, Note_on_c, 0, 61, 55
1, 166907, Note_off_c, 0, 63, 59
1, 166909, Control_c, 0, 64, 34
1, 166924, Note_off_c, 0, 80, 56
1, 166924, Control_c, 0, 64, 30
1, 166939, Control_c, 0, 64, 33
1, 166954, Control_c, 0, 64, 43
1, 166968, Control_c, 0, 64, 53
1, 166983, Control_c, 0, 64, 59
1, 166998, Control_c, 0, 64, 61
1, 167017, Note_on_c, 0, 77, 71
1, 167028, Control_c, 0, 64, 60
1, 167042, Control_c, 0, 64, 59
1, 167057, Control_c, 0, 64, 58
1, 167072, Control_c, 0, 64, 56
1, 167087, Control_c, 0, 64, 52
1, 167101, Control_c, 0, 64, 50
1, 167131, Control_c, 0, 64, 49
1, 167136, Note_on_c, 0, 75, 72
1, 167136, Note_off_c, 0, 77, 63
1, 167146, Control_c, 0, 64, 46
1, 167151, Note_off_c, 0, 78, 23
1, 167161, Control_c, 0, 64, 39
1, 167175, Control_c, 0, 64, 29
1, 167190, Control_c, 0, 64, 24
1, 167205, Control_c, 0, 64, 25
1, 167243, Control_c, 0, 64, 21
1, 167258, Note_off_c, 0, 75, 63
1, 167258, Control_c, 0, 64, 0
1, 167261, Note_on_c, 0, 73, 71
1, 167267, Note_off_c, 0, 65, 60
1, 167319, Note_off_c, 0, 61, 60
1, 167390, Note_off_c, 0, 73, 49
1, 167392, Note_on_c, 0, 77, 72
1, 167506, Note_on_c, 0, 75, 78
1, 167511, Note_off_c, 0, 77, 65
1, 167628, Note_on_c, 0, 66, 71
1, 167630, Note_on_c, 0, 68, 71
1, 167637, Note_on_c, 0, 78, 74
1, 167643, Control_c, 0, 64, 13
1, 167658, Control_c, 0, 64, 45
1, 167673, Control_c, 0, 64, 58
1, 167688, Control_c, 0, 64, 62
1, 167692, Note_off_c, 0, 66, 63
1, 167695, Note_off_c, 0, 68, 64
1, 167703, Note_off_c, 0, 75, 52
1, 167728, Note_off_c, 0, 78, 62
1, 167745, Note_on_c, 0, 72, 74
1, 167747, Control_c, 0, 64, 58
1, 167762, Control_c, 0, 64, 46
1, 167777, Control_c, 0, 64, 14
1, 167791, Control_c, 0, 64, 0
1, 167865, Control_c, 0, 64, 22
1, 167869, Note_off_c, 0, 72, 61
1, 167880, Control_c, 0, 64, 45
1, 167885, Note_on_c, 0, 73, 78
1, 167886, Note_on_c, 0, 68, 72
1, 167887, Note_on_c, 0, 65, 72
1, 167895, Control_c, 0, 64, 59
1, 167910, Control_c, 0, 64, 62
1, 167917, Note_off_c, 0, 68, 65
1, 167921, Note_off_c, 0, 65, 65
1, 167924, Control_c, 0, 64, 61
1, 167937, Note_off_c, 0, 73, 64
1, 167939, Control_c, 0, 64, 57
1, 167954, Control_c, 0, 64, 41
1, 167969, Control_c, 0, 64, 9
1, 167984, Control_c, 0, 64, 0
1, 168170, Note_on_c, 0, 68, 82
1, 168221, Note_off_c, 0, 68, 65
1, 168274, Control_c, 0, 64, 8
1, 168288, Control_c, 0, 64, 13
1, 168303, Control_c, 0, 64, 16
1, 168333, Control_c, 0, 64, 16
1, 168347, Control_c, 0, 64, 21
1, 168362, Control_c, 0, 64, 25
1, 168377, Control_c, 0, 64, 26
1, 168407, Control_c, 0, 64, 27
1, 168421, Note_on_c, 0, 53, 85
1, 168421, Control_c, 0, 64, 31
1, 168436, Control_c, 0, 64, 38
1, 168451, Control_c, 0, 64, 41
1, 168495, Control_c, 0, 64, 43
1, 168510, Control_c, 0, 64, 48
1, 168525, Control_c, 0, 64, 53
1, 168555, Control_c, 0, 64, 53
1, 168585, Control_c, 0, 64, 55
1, 168600, Control_c, 0, 64, 57
1, 168614, Control_c, 0, 64, 59
1, 168629, Control_c, 0, 64, 60
1, 168644, Control_c, 0, 64, 61
1, 168659, Control_c, 0, 64, 62
1, 168673, Control_c, 0, 64, 63
1, 168688, Control_c, 0, 64, 64
1, 168703, Control_c, 0, 64, 65
1, 168707, Note_on_c, 0, 81, 78
1, 168716, Note_on_c, 0, 72, 68
1, 168718, Control_c, 0, 64, 67
1, 168733, Control_c, 0, 64, 70
1, 168755, Control_c, 0, 64, 71
1, 168770, Control_c, 0, 64, 72
1, 168785, Control_c, 0, 64, 74
1, 168799, Control_c, 0, 64, 76
1, 168811, Note_off_c, 0, 72, 53
1, 168814, Control_c, 0, 64, 78
1, 168830, Control_c, 0, 64, 79
1, 168844, Control_c, 0, 64, 80
1, 168859, Control_c, 0, 64, 81
1, 168874, Control_c, 0, 64, 83
1, 168889, Control_c, 0, 64, 84
1, 168904, Control_c, 0, 64, 84
1, 168993, Control_c, 0, 64, 83
1, 169008, Control_c, 0, 64, 78
1, 169017, Note_off_c, 0, 53, 57
1, 169019, Note_on_c, 0, 82, 76
1, 169019, Note_off_c, 0, 81, 61
1, 169020, Note_on_c, 0, 51, 74
1, 169023, Control_c, 0, 64, 69
1, 169028, Note_on_c, 0, 73, 59
1, 169037, Control_c, 0, 64, 61
1, 169052, Control_c, 0, 64, 49
1, 169067, Control_c, 0, 64, 44
1, 169096, Control_c, 0, 64, 48
1, 169111, Control_c, 0, 64, 51
1, 169126, Control_c, 0, 64, 51
1, 169141, Control_c, 0, 64, 49
1, 169145, Note_on_c, 0, 49, 70
1, 169154, Note_off_c, 0, 51, 63
1, 169156, Control_c, 0, 64, 47
1, 169185, Control_c, 0, 64, 47
1, 169200, Control_c, 0, 64, 45
1, 169215, Control_c, 0, 64, 41
1, 169230, Control_c, 0, 64, 38
1, 169244, Control_c, 0, 64, 37
1, 169260, Note_off_c, 0, 49, 65
1, 169273, Note_on_c, 0, 48, 79
1, 169274, Control_c, 0, 64, 37
1, 169288, Control_c, 0, 64, 35
1, 169303, Control_c, 0, 64, 35
1, 169312, Note_off_c, 0, 73, 59
1, 169318, Control_c, 0, 64, 36
1, 169333, Control_c, 0, 64, 39
1, 169348, Control_c, 0, 64, 38
1, 169363, Control_c, 0, 64, 37
1, 169378, Control_c, 0, 64, 37
1, 169387, Note_off_c, 0, 48, 59
1, 169388, Note_on_c, 0, 46, 74
1, 169393, Control_c, 0, 64, 40
1, 169408, Note_off_c, 0, 82, 53
1, 169408, Control_c, 0, 64, 42
1, 169422, Control_c, 0, 64, 41
1, 169437, Control_c, 0, 64, 41
1, 169452, Control_c, 0, 64, 41
1, 169467, Control_c, 0, 64, 45
1, 169488, Control_c, 0, 64, 45
1, 169503, Control_c, 0, 64, 44
1, 169518, Control_c, 0, 64, 43
1, 169530, Note_on_c, 0, 49, 75
1, 169533, Control_c, 0, 64, 44
1, 169537, Note_off_c, 0, 46, 62
1, 169548, Control_c, 0, 64, 45
1, 169607, Control_c, 0, 64, 47
1, 169623, Control_c, 0, 64, 50
1, 169646, Note_on_c, 0, 48, 71
1, 169655, Note_off_c, 0, 49, 64
1, 169667, Control_c, 0, 64, 51
1, 169682, Control_c, 0, 64, 53
1, 169712, Control_c, 0, 64, 52
1, 169727, Control_c, 0, 64, 51
1, 169741, Control_c, 0, 64, 50
1, 169756, Control_c, 0, 64, 47
1, 169771, Note_off_c, 0, 48, 64
1, 169771, Control_c, 0, 64, 41
1, 169783, Note_on_c, 0, 84, 81
1, 169786, Control_c, 0, 64, 33
1, 169789, Note_on_c, 0, 51, 72
1, 169793, Note_on_c, 0, 77, 69
1, 169801, Control_c, 0, 64, 30
1, 169816, Control_c, 0, 64, 31
1, 169831, Control_c, 0, 64, 38
1, 169846, Control_c, 0, 64, 45
1, 169861, Control_c, 0, 64, 50
1, 169875, Control_c, 0, 64, 55
1, 169890, Control_c, 0, 64, 61
1, 169900, Note_on_c, 0, 45, 69
1, 169905, Control_c, 0, 64, 64
1, 169915, Note_off_c, 0, 51, 60
1, 169919, Control_c, 0, 64, 64
1, 169993, Control_c, 0, 64, 63
1, 170008, Control_c, 0, 64, 63
1, 170038, Control_c, 0, 64, 62
1, 170053, Control_c, 0, 64, 61
1, 170066, Note_on_c, 0, 85, 81
1, 170066, Note_off_c, 0, 45, 63
1, 170067, Control_c, 0, 64, 58
1, 170069, Note_on_c, 0, 48, 79
1, 170073, Note_off_c, 0, 84, 62
1, 170082, Control_c, 0, 64, 56
1, 170097, Control_c, 0, 64, 55
1, 170111, Control_c, 0, 64, 53
1, 170126, Control_c, 0, 64, 50
1, 170141, Control_c, 0, 64, 45
1, 170156, Control_c, 0, 64, 42
1, 170171, Control_c, 0, 64, 43
1, 170186, Control_c, 0, 64, 45
1, 170200, Note_off_c, 0, 48, 64
1, 170200, Control_c, 0, 64, 46
1, 170212, Note_on_c, 0, 46, 68
1, 170253, Control_c, 0, 64, 47
1, 170267, Control_c, 0, 64, 48
1, 170282, Control_c, 0, 64, 48
1, 170297, Control_c, 0, 64, 46
1, 170311, Control_c, 0, 64, 44
1, 170326, Control_c, 0, 64, 44
1, 170329, Note_off_c, 0, 46, 63
1, 170338, Note_on_c, 0, 82, 74
1, 170340, Note_on_c, 0, 49, 76
1, 170341, Control_c, 0, 64, 43
1, 170356, Control_c, 0, 64, 43
1, 170357, Note_off_c, 0, 77, 59
1, 170386, Control_c, 0, 64, 45
1, 170400, Control_c, 0, 64, 50
1, 170415, Control_c, 0, 64, 57
1, 170430, Control_c, 0, 64, 60
1, 170470, Note_on_c, 0, 43, 69
1, 170480, Note_off_c, 0, 49, 53
1, 170489, Control_c, 0, 64, 61
1, 170504, Control_c, 0, 64, 60
1, 170519, Control_c, 0, 64, 60
1, 170534, Control_c, 0, 64, 59
1, 170563, Control_c, 0, 64, 56
1, 170571, Note_off_c, 0, 85, 54
1, 170578, Control_c, 0, 64, 50
1, 170588, Note_on_c, 0, 84, 76
1, 170593, Note_off_c, 0, 43, 65
1, 170593, Control_c, 0, 64, 44
1, 170597, Note_on_c, 0, 46, 72
1, 170608, Control_c, 0, 64, 41
1, 170622, Control_c, 0, 64, 42
1, 170637, Control_c, 0, 64, 47
1, 170652, Control_c, 0, 64, 54
1, 170667, Control_c, 0, 64, 59
1, 170682, Control_c, 0, 64, 60
1, 170696, Control_c, 0, 64, 62
1, 170711, Control_c, 0, 64, 64
1, 170716, Note_on_c, 0, 44, 73
1, 170718, Note_off_c, 0, 46, 63
1, 170726, Control_c, 0, 64, 65
1, 170740, Control_c, 0, 64, 64
1, 170755, Control_c, 0, 64, 62
1, 170770, Control_c, 0, 64, 57
1, 170785, Control_c, 0, 64, 54
1, 170800, Control_c, 0, 64, 50
1, 170815, Control_c, 0, 64, 45
1, 170829, Control_c, 0, 64, 40
1, 170832, Note_off_c, 0, 44, 62
1, 170844, Note_on_c, 0, 80, 75
1, 170844, Control_c, 0, 64, 39
1, 170847, Note_on_c, 0, 48, 72
1, 170856, Note_off_c, 0, 82, 54
1, 170859, Control_c, 0, 64, 44
1, 170874, Control_c, 0, 64, 53
1, 170889, Control_c, 0, 64, 56
1, 170933, Control_c, 0, 64, 57
1, 170948, Control_c, 0, 64, 61
1, 170963, Control_c, 0, 64, 63
1, 170968, Note_on_c, 0, 41, 74
1, 170983, Note_off_c, 0, 48, 58
1, 170985, Control_c, 0, 64, 62
1, 171000, Control_c, 0, 64, 60
1, 171014, Control_c, 0, 64, 58
1, 171029, Control_c, 0, 64, 54
1, 171044, Control_c, 0, 64, 46
1, 171059, Control_c, 0, 64, 30
1, 171074, Control_c, 0, 64, 0
1, 171103, Note_on_c, 0, 44, 74
1, 171104, Control_c, 0, 64, 12
1, 171109, Note_on_c, 0, 82, 70
1, 171119, Control_c, 0, 64, 34
1, 171133, Control_c, 0, 64, 49
1, 171137, Note_off_c, 0, 41, 49
1, 171147, Note_off_c, 0, 84, 53
1, 171148, Control_c, 0, 64, 58
1, 171163, Control_c, 0, 64, 63
1, 171178, Control_c, 0, 64, 64
1, 171193, Control_c, 0, 64, 64
1, 171208, Control_c, 0, 64, 65
1, 171235, Note_on_c, 0, 43, 63
1, 171238, Control_c, 0, 64, 64
1, 171246, Note_off_c, 0, 44, 62
1, 171253, Control_c, 0, 64, 62
1, 171268, Control_c, 0, 64, 52
1, 171283, Control_c, 0, 64, 42
1, 171297, Control_c, 0, 64, 35
1, 171312, Control_c, 0, 64, 33
1, 171327, Control_c, 0, 64, 35
1, 171342, Control_c, 0, 64, 41
1, 171351, Note_off_c, 0, 80, 25
1, 171357, Note_off_c, 0, 43, 63
1, 171357, Control_c, 0, 64, 45
1, 171358, Note_on_c, 0, 79, 69
1, 171363, Note_on_c, 0, 46, 69
1, 171371, Control_c, 0, 64, 52
1, 171386, Control_c, 0, 64, 60
1, 171401, Control_c, 0, 64, 65
1, 171416, Control_c, 0, 64, 67
1, 171431, Control_c, 0, 64, 69
1, 171445, Control_c, 0, 64, 70
1, 171460, Control_c, 0, 64, 71
1, 171470, Note_off_c, 0, 46, 64
1, 171475, Control_c, 0, 64, 72
1, 171493, Note_on_c, 0, 40, 72
1, 171504, Control_c, 0, 64, 70
1, 171519, Control_c, 0, 64, 63
1, 171534, Control_c, 0, 64, 50
1, 171547, Note_off_c, 0, 79, 62
1, 171549, Control_c, 0, 64, 23
1, 171563, Control_c, 0, 64, 0
1, 171608, Control_c, 0, 64, 36
1, 171623, Control_c, 0, 64, 54
1, 171637, Control_c, 0, 64, 62
1, 171642, Note_on_c, 0, 41, 76
1, 171646, Note_off_c, 0, 40, 58
1, 171652, Control_c, 0, 64, 62
1, 171667, Control_c, 0, 64, 63
1, 171682, Control_c, 0, 64, 65
1, 171696, Note_off_c, 0, 41, 62
1, 171697, Control_c, 0, 64, 67
1, 171712, Control_c, 0, 64, 69
1, 171775, Note_off_c, 0, 82, 62
1, 171783, Note_on_c, 0, 80, 74
1, 171793, Control_c, 0, 64, 68
1, 171808, Control_c, 0, 64, 65
1, 171823, Control_c, 0, 64, 61
1, 171837, Control_c, 0, 64, 58
1, 171852, Control_c, 0, 64, 56
1, 171867, Control_c, 0, 64, 51
1, 171882, Control_c, 0, 64, 44
1, 171897, Control_c, 0, 64, 35
1, 171912, Control_c, 0, 64, 18
1, 171925, Note_on_c, 0, 56, 70
1, 171926, Note_on_c, 0, 84, 70
1, 171927, Control_c, 0, 64, 0
1, 171971, Control_c, 0, 64, 17
1, 171986, Control_c, 0, 64, 25
1, 172001, Control_c, 0, 64, 30
1, 172012, Note_off_c, 0, 84, 62
1, 172017, Control_c, 0, 64, 36
1, 172023, Note_off_c, 0, 80, 23
1, 172032, Control_c, 0, 64, 40
1, 172038, Note_on_c, 0, 77, 76
1, 172047, Control_c, 0, 64, 42
1, 172061, Control_c, 0, 64, 42
1, 172076, Control_c, 0, 64, 41
1, 172091, Control_c, 0, 64, 39
1, 172105, Control_c, 0, 64, 37
1, 172120, Control_c, 0, 64, 32
1, 172135, Control_c, 0, 64, 29
1, 172150, Control_c, 0, 64, 28
1, 172170, Note_on_c, 0, 58, 73
1, 172170, Note_off_c, 0, 77, 60
1, 172173, Note_on_c, 0, 80, 65
1, 172193, Note_off_c, 0, 56, 60
1, 172195, Control_c, 0, 64, 28
1, 172239, Control_c, 0, 64, 29
1, 172254, Control_c, 0, 64, 32
1, 172269, Control_c, 0, 64, 34
1, 172296, Note_on_c, 0, 78, 74
1, 172303, Note_off_c, 0, 80, 59
1, 172358, Control_c, 0, 64, 34
1, 172387, Control_c, 0, 64, 35
1, 172402, Control_c, 0, 64, 39
1, 172409, Note_off_c, 0, 78, 61
1, 172417, Control_c, 0, 64, 44
1, 172419, Note_off_c, 0, 58, 64
1, 172424, Note_on_c, 0, 60, 78
1, 172427, Note_on_c, 0, 82, 72
1, 172432, Control_c, 0, 64, 45
1, 172476, Control_c, 0, 64, 47
1, 172499, Control_c, 0, 64, 48
1, 172513, Control_c, 0, 64, 47
1, 172528, Control_c, 0, 64, 47
1, 172533, Note_off_c, 0, 82, 63
1, 172555, Note_on_c, 0, 75, 74
1, 172573, Control_c, 0, 64, 46
1, 172587, Control_c, 0, 64, 44
1, 172602, Control_c, 0, 64, 42
1, 172617, Control_c, 0, 64, 42
1, 172647, Control_c, 0, 64, 41
1, 172661, Control_c, 0, 64, 39
1, 172676, Note_off_c, 0, 75, 60
1, 172676, Control_c, 0, 64, 37
1, 172679, Note_on_c, 0, 61, 80
1, 172679, Note_off_c, 0, 60, 59
1, 172687, Note_on_c, 0, 78, 72
1, 172691, Control_c, 0, 64, 36
1, 172720, Control_c, 0, 64, 34
1, 172735, Control_c, 0, 64, 32
1, 172750, Control_c, 0, 64, 32
1, 172765, Control_c, 0, 64, 34
1, 172780, Control_c, 0, 64, 40
1, 172792, Note_off_c, 0, 78, 62
1, 172794, Note_on_c, 0, 77, 69
1, 172794, Control_c, 0, 64, 41
1, 172795, Note_off_c, 0, 61, 55
1, 172810, Control_c, 0, 64, 41
1, 172825, Control_c, 0, 64, 42
1, 172840, Control_c, 0, 64, 44
1, 172855, Control_c, 0, 64, 46
1, 172870, Control_c, 0, 64, 45
1, 172884, Control_c, 0, 64, 44
1, 172899, Control_c, 0, 64, 43
1, 172914, Control_c, 0, 64, 44
1, 172928, Control_c, 0, 64, 45
1, 172938, Note_on_c, 0, 53, 76
1, 172938, Note_off_c, 0, 77, 65
1, 172943, Control_c, 0, 64, 45
1, 172948, Note_on_c, 0, 80, 78
1, 172958, Control_c, 0, 64, 43
1, 172988, Control_c, 0, 64, 46
1, 173003, Control_c, 0, 64, 51
1, 173017, Control_c, 0, 64, 56
1, 173032, Control_c, 0, 64, 57
1, 173062, Control_c, 0, 64, 59
1, 173071, Note_on_c, 0, 73, 69
1, 173077, Control_c, 0, 64, 61
1, 173107, Control_c, 0, 64, 60
1, 173122, Control_c, 0, 64, 58
1, 173136, Control_c, 0, 64, 56
1, 173151, Control_c, 0, 64, 52
1, 173166, Control_c, 0, 64, 42
1, 173181, Control_c, 0, 64, 24
1, 173184, Note_off_c, 0, 73, 52
1, 173188, Note_off_c, 0, 80, 59
1, 173193, Note_on_c, 0, 77, 73
1, 173193, Note_on_c, 0, 55, 72
1, 173196, Control_c, 0, 64, 0
1, 173214, Note_off_c, 0, 53, 62
1, 173247, Control_c, 0, 64, 26
1, 173262, Control_c, 0, 64, 34
1, 173277, Control_c, 0, 64, 37
1, 173292, Control_c, 0, 64, 42
1, 173307, Control_c, 0, 64, 51
1, 173319, Note_on_c, 0, 75, 71
1, 173321, Control_c, 0, 64, 58
1, 173330, Note_off_c, 0, 77, 62
1, 173351, Control_c, 0, 64, 57
1, 173381, Control_c, 0, 64, 56
1, 173396, Control_c, 0, 64, 48
1, 173410, Control_c, 0, 64, 29
1, 173425, Control_c, 0, 64, 0
1, 173444, Note_on_c, 0, 57, 77
1, 173453, Note_off_c, 0, 55, 63
1, 173454, Note_on_c, 0, 78, 69
1, 173469, Control_c, 0, 64, 14
1, 173484, Control_c, 0, 64, 38
1, 173495, Note_off_c, 0, 75, 49
1, 173499, Control_c, 0, 64, 48
1, 173514, Control_c, 0, 64, 54
1, 173529, Control_c, 0, 64, 58
1, 173543, Control_c, 0, 64, 60
1, 173553, Note_off_c, 0, 78, 62
1, 173558, Control_c, 0, 64, 61
1, 173576, Note_on_c, 0, 72, 75
1, 173588, Control_c, 0, 64, 60
1, 173604, Control_c, 0, 64, 55
1, 173619, Control_c, 0, 64, 44
1, 173633, Control_c, 0, 64, 32
1, 173648, Control_c, 0, 64, 25
1, 173663, Control_c, 0, 64, 29
1, 173678, Control_c, 0, 64, 41
1, 173693, Control_c, 0, 64, 46
1, 173696, Note_off_c, 0, 57, 63
1, 173705, Note_on_c, 0, 58, 76
1, 173706, Note_off_c, 0, 72, 56
1, 173707, Control_c, 0, 64, 48
1, 173714, Note_on_c, 0, 75, 74
1, 173722, Control_c, 0, 64, 51
1, 173737, Control_c, 0, 64, 56
1, 173751, Control_c, 0, 64, 60
1, 173758, Note_off_c, 0, 58, 64
1, 173811, Control_c, 0, 64, 59
1, 173814, Note_off_c, 0, 75, 59
1, 173825, Control_c, 0, 64, 57
1, 173830, Note_on_c, 0, 73, 69
1, 173840, Control_c, 0, 64, 51
1, 173855, Control_c, 0, 64, 45
1, 173870, Control_c, 0, 64, 42
1, 173885, Control_c, 0, 64, 31
1, 173900, Control_c, 0, 64, 0
1, 173945, Note_off_c, 0, 73, 63
1, 173964, Note_on_c, 0, 77, 76
1, 173965, Note_on_c, 0, 63, 85
1, 173969, Note_on_c, 0, 55, 68
1, 173974, Control_c, 0, 64, 33
1, 173996, Control_c, 0, 64, 45
1, 174011, Control_c, 0, 64, 49
1, 174026, Control_c, 0, 64, 52
1, 174040, Control_c, 0, 64, 54
1, 174055, Control_c, 0, 64, 55
1, 174070, Control_c, 0, 64, 55
1, 174074, Note_off_c, 0, 77, 65
1, 174085, Control_c, 0, 64, 56
1, 174099, Control_c, 0, 64, 57
1, 174105, Note_on_c, 0, 70, 71
1, 174114, Control_c, 0, 64, 58
1, 174158, Control_c, 0, 64, 57
1, 174173, Control_c, 0, 64, 51
1, 174188, Control_c, 0, 64, 38
1, 174203, Control_c, 0, 64, 27
1, 174218, Control_c, 0, 64, 24
1, 174225, Note_off_c, 0, 70, 60
1, 174232, Control_c, 0, 64, 31
1, 174237, Note_on_c, 0, 73, 65
1, 174237, Note_on_c, 0, 56, 68
1, 174238, Note_off_c, 0, 55, 63
1, 174247, Control_c, 0, 64, 44
1, 174262, Control_c, 0, 64, 51
1, 174277, Control_c, 0, 64, 51
1, 174291, Control_c, 0, 64, 53
1, 174306, Control_c, 0, 64, 56
1, 174321, Control_c, 0, 64, 60
1, 174335, Note_off_c, 0, 73, 62
1, 174336, Control_c, 0, 64, 62
1, 174341, Note_on_c, 0, 72, 73
1, 174352, Note_off_c, 0, 63, 63
1, 174374, Note_off_c, 0, 56, 57
1, 174411, Control_c, 0, 64, 60
1, 174426, Control_c, 0, 64, 55
1, 174441, Control_c, 0, 64, 48
1, 174455, Control_c, 0, 64, 36
1, 174470, Control_c, 0, 64, 0
1, 174471, Note_off_c, 0, 72, 62
1, 174480, Note_on_c, 0, 61, 81
1, 174485, Note_on_c, 0, 75, 77
1, 174487, Note_on_c, 0, 53, 50
1, 174497, Note_on_c, 0, 52, 57
1, 174525, Note_off_c, 0, 52, 54
1, 174529, Control_c, 0, 64, 33
1, 174544, Control_c, 0, 64, 46
1, 174559, Control_c, 0, 64, 52
1, 174573, Control_c, 0, 64, 55
1, 174588, Control_c, 0, 64, 55
1, 174603, Control_c, 0, 64, 56
1, 174611, Note_on_c, 0, 68, 75
1, 174618, Control_c, 0, 64, 56
1, 174648, Control_c, 0, 64, 54
1, 174663, Control_c, 0, 64, 47
1, 174678, Control_c, 0, 64, 32
1, 174693, Control_c, 0, 64, 10
1, 174707, Control_c, 0, 64, 0
1, 174734, Note_off_c, 0, 53, 58
1, 174740, Note_off_c, 0, 75, 60
1, 174741, Note_on_c, 0, 72, 65
1, 174742, Note_off_c, 0, 68, 37
1, 174743, Note_on_c, 0, 55, 70
1, 174744, Control_c, 0, 64, 15
1, 174759, Control_c, 0, 64, 29
1, 174774, Control_c, 0, 64, 41
1, 174788, Control_c, 0, 64, 54
1, 174803, Control_c, 0, 64, 59
1, 174848, Control_c, 0, 64, 59
1, 174850, Note_off_c, 0, 72, 61
1, 174857, Note_on_c, 0, 70, 71
1, 174863, Control_c, 0, 64, 60
1, 174878, Control_c, 0, 64, 62
1, 174934, Note_off_c, 0, 61, 63
1, 174952, Control_c, 0, 64, 59
1, 174967, Control_c, 0, 64, 51
1, 174977, Note_off_c, 0, 55, 33
1, 174981, Control_c, 0, 64, 39
1, 174986, Note_on_c, 0, 60, 75
1, 174988, Note_on_c, 0, 73, 75
1, 174990, Note_on_c, 0, 52, 72
1, 174996, Control_c, 0, 64, 32
1, 175011, Control_c, 0, 64, 34
1, 175014, Note_off_c, 0, 70, 54
1, 175026, Control_c, 0, 64, 43
1, 175041, Control_c, 0, 64, 54
1, 175055, Control_c, 0, 64, 59
1, 175070, Control_c, 0, 64, 61
1, 175091, Note_off_c, 0, 73, 64
1, 175100, Control_c, 0, 64, 61
1, 175110, Note_on_c, 0, 67, 77
1, 175114, Control_c, 0, 64, 62
1, 175129, Control_c, 0, 64, 63
1, 175249, Control_c, 0, 64, 62
1, 175256, Note_off_c, 0, 67, 59
1, 175259, Note_off_c, 0, 52, 50
1, 175264, Control_c, 0, 64, 61
1, 175273, Note_on_c, 0, 53, 82
1, 175273, Note_off_c, 0, 60, 60
1, 175278, Note_on_c, 0, 70, 70
1, 175278, Control_c, 0, 64, 56
1, 175293, Control_c, 0, 64, 44
1, 175308, Control_c, 0, 64, 19
1, 175323, Control_c, 0, 64, 0
1, 175411, Control_c, 0, 64, 28
1, 175426, Control_c, 0, 64, 44
1, 175441, Note_on_c, 0, 68, 64
1, 175441, Control_c, 0, 64, 52
1, 175456, Control_c, 0, 64, 55
1, 175471, Control_c, 0, 64, 56
1, 175493, Control_c, 0, 64, 58
1, 175508, Control_c, 0, 64, 59
1, 175523, Control_c, 0, 64, 60
1, 175537, Control_c, 0, 64, 61
1, 175552, Control_c, 0, 64, 61
1, 175567, Control_c, 0, 64, 62
1, 175572, Note_off_c, 0, 70, 22
1, 175575, Note_off_c, 0, 68, 55
1, 175582, Control_c, 0, 64, 63
1, 175592, Note_on_c, 0, 60, 56
1, 175593, Note_on_c, 0, 67, 50
1, 175594, Note_on_c, 0, 56, 50
1, 175597, Control_c, 0, 64, 64
1, 175611, Control_c, 0, 64, 65
1, 175626, Control_c, 0, 64, 66
1, 175641, Control_c, 0, 64, 67
1, 175655, Note_off_c, 0, 67, 63
1, 175657, Control_c, 0, 64, 68
1, 175672, Control_c, 0, 64, 69
1, 175686, Control_c, 0, 64, 70
1, 175692, Note_on_c, 0, 65, 65
1, 175701, Control_c, 0, 64, 72
1, 175716, Control_c, 0, 64, 74
1, 175730, Control_c, 0, 64, 75
1, 175745, Control_c, 0, 64, 76
1, 175760, Control_c, 0, 64, 77
1, 175775, Control_c, 0, 64, 77
1, 175790, Control_c, 0, 64, 77
1, 175796, Note_off_c, 0, 60, 50
1, 175796, Note_off_c, 0, 65, 60
1, 175805, Control_c, 0, 64, 75
1, 175817, Note_on_c, 0, 51, 82
1, 175819, Note_off_c, 0, 56, 61
1, 175819, Control_c, 0, 64, 66
1, 175825, Note_on_c, 0, 70, 73
1, 175825, Note_off_c, 0, 53, 61
1, 175834, Control_c, 0, 64, 53
1, 175849, Control_c, 0, 64, 34
1, 175864, Control_c, 0, 64, 29
1, 175879, Control_c, 0, 64, 31
1, 175894, Control_c, 0, 64, 42
1, 175909, Control_c, 0, 64, 48
1, 175923, Control_c, 0, 64, 46
1, 175938, Control_c, 0, 64, 43
1, 175942, Note_on_c, 0, 68, 69
1, 175953, Control_c, 0, 64, 41
1, 175983, Control_c, 0, 64, 40
1, 175998, Control_c, 0, 64, 34
1, 176013, Control_c, 0, 64, 30
1, 176028, Control_c, 0, 64, 30
1, 176043, Control_c, 0, 64, 34
1, 176058, Control_c, 0, 64, 43
1, 176064, Note_on_c, 0, 53, 66
1, 176064, Note_on_c, 0, 56, 72
1, 176067, Note_on_c, 0, 67, 67
1, 176073, Control_c, 0, 64, 49
1, 176080, Note_off_c, 0, 70, 25
1, 176088, Control_c, 0, 64, 52
1, 176102, Control_c, 0, 64, 55
1, 176117, Control_c, 0, 64, 59
1, 176132, Control_c, 0, 64, 63
1, 176142, Note_off_c, 0, 68, 28
1, 176144, Note_off_c, 0, 67, 64
1, 176147, Control_c, 0, 64, 66
1, 176155, Note_off_c, 0, 51, 63
1, 176161, Control_c, 0, 64, 69
1, 176172, Note_on_c, 0, 65, 72
1, 176176, Control_c, 0, 64, 71
1, 176191, Control_c, 0, 64, 73
1, 176206, Control_c, 0, 64, 74
1, 176221, Control_c, 0, 64, 76
1, 176243, Control_c, 0, 64, 77
1, 176273, Control_c, 0, 64, 76
1, 176287, Control_c, 0, 64, 73
1, 176288, Note_off_c, 0, 65, 61
1, 176302, Control_c, 0, 64, 60
1, 176311, Note_on_c, 0, 49, 90
1, 176311, Note_off_c, 0, 56, 59
1, 176317, Control_c, 0, 64, 37
1, 176318, Note_on_c, 0, 70, 71
1, 176325, Note_off_c, 0, 53, 63
1, 176332, Control_c, 0, 64, 0
1, 176431, Note_on_c, 0, 68, 76
1, 176541, Note_off_c, 0, 70, 32
1, 176550, Note_on_c, 0, 67, 73
1, 176550, Note_off_c, 0, 68, 63
1, 176553, Control_c, 0, 64, 25
1, 176555, Note_on_c, 0, 53, 67
1, 176557, Note_on_c, 0, 56, 76
1, 176568, Control_c, 0, 64, 46
1, 176583, Control_c, 0, 64, 60
1, 176598, Control_c, 0, 64, 66
1, 176613, Control_c, 0, 64, 68
1, 176627, Control_c, 0, 64, 70
1, 176633, Note_off_c, 0, 67, 65
1, 176642, Control_c, 0, 64, 72
1, 176657, Control_c, 0, 64, 75
1, 176658, Note_on_c, 0, 65, 79
1, 176672, Control_c, 0, 64, 77
1, 176687, Control_c, 0, 64, 79
1, 176702, Control_c, 0, 64, 80
1, 176732, Control_c, 0, 64, 79
1, 176746, Control_c, 0, 64, 69
1, 176760, Note_off_c, 0, 56, 59
1, 176761, Control_c, 0, 64, 49
1, 176772, Note_off_c, 0, 65, 63
1, 176776, Control_c, 0, 64, 0
1, 176781, Note_on_c, 0, 48, 85
1, 176783, Note_off_c, 0, 53, 60
1, 176791, Note_on_c, 0, 70, 78
1, 176912, Note_on_c, 0, 68, 78
1, 177034, Note_off_c, 0, 68, 65
1, 177036, Control_c, 0, 64, 11
1, 177040, Note_on_c, 0, 67, 77
1, 177045, Note_on_c, 0, 53, 71
1, 177048, Note_on_c, 0, 56, 78
1, 177051, Control_c, 0, 64, 56
1, 177065, Control_c, 0, 64, 61
1, 177066, Note_off_c, 0, 70, 37
1, 177072, Note_off_c, 0, 48, 57
1, 177074, Note_off_c, 0, 49, 9
1, 177095, Control_c, 0, 64, 63
1, 177110, Control_c, 0, 64, 65
1, 177125, Control_c, 0, 64, 66
1, 177125, Note_off_c, 0, 53, 62
1, 177125, Note_off_c, 0, 67, 63
1, 177130, Note_off_c, 0, 56, 60
1, 177157, Note_on_c, 0, 65, 80
1, 177170, Control_c, 0, 64, 65
1, 177184, Control_c, 0, 64, 61
1, 177199, Control_c, 0, 64, 44
1, 177214, Control_c, 0, 64, 0
1, 177273, Control_c, 0, 64, 12
1, 177283, Note_off_c, 0, 65, 51
1, 177288, Control_c, 0, 64, 41
1, 177302, Note_on_c, 0, 47, 75
1, 177302, Control_c, 0, 64, 59
1, 177306, Note_on_c, 0, 77, 88
1, 177307, Note_on_c, 0, 56, 82
1, 177308, Note_on_c, 0, 53, 74
1, 177317, Control_c, 0, 64, 67
1, 177332, Control_c, 0, 64, 74
1, 177334, Note_off_c, 0, 47, 69
1, 177336, Note_off_c, 0, 77, 65
1, 177337, Note_off_c, 0, 53, 67
1, 177345, Note_off_c, 0, 56, 61
1, 177347, Control_c, 0, 64, 90
1, 177362, Control_c, 0, 64, 118
1, 177376, Control_c, 0, 64, 127
1, 177629, Control_c, 0, 64, 85
1, 177644, Control_c, 0, 64, 65
1, 177659, Control_c, 0, 64, 36
1, 177674, Control_c, 0, 64, 0
1, 177865, Note_on_c, 0, 70, 80
1, 177971, Note_on_c, 0, 68, 76
1, 178090, Note_on_c, 0, 56, 77
1, 178091, Note_off_c, 0, 68, 62
1, 178094, Note_on_c, 0, 67, 76
1, 178100, Note_on_c, 0, 53, 67
1, 178103, Note_on_c, 0, 48, 62
1, 178103, Note_off_c, 0, 70, 34
1, 178111, Control_c, 0, 64, 46
1, 178125, Control_c, 0, 64, 66
1, 178140, Control_c, 0, 64, 68
1, 178155, Control_c, 0, 64, 70
1, 178158, Note_off_c, 0, 53, 63
1, 178162, Note_off_c, 0, 56, 60
1, 178168, Note_off_c, 0, 48, 60
1, 178168, Note_off_c, 0, 67, 65
1, 178170, Control_c, 0, 64, 74
1, 178185, Control_c, 0, 64, 77
1, 178206, Note_on_c, 0, 65, 80
1, 178229, Control_c, 0, 64, 74
1, 178231, Note_off_c, 0, 65, 67
1, 178244, Control_c, 0, 64, 66
1, 178258, Control_c, 0, 64, 54
1, 178273, Control_c, 0, 64, 30
1, 178288, Control_c, 0, 64, 0
1, 178347, Control_c, 0, 64, 16
1, 178362, Control_c, 0, 64, 50
1, 178372, Note_on_c, 0, 80, 86
1, 178374, Note_on_c, 0, 59, 84
1, 178377, Control_c, 0, 64, 66
1, 178378, Note_on_c, 0, 49, 77
1, 178379, Note_on_c, 0, 53, 78
1, 178393, Control_c, 0, 64, 78
1, 178405, Note_off_c, 0, 59, 69
1, 178408, Control_c, 0, 64, 96
1, 178409, Note_off_c, 0, 49, 68
1, 178410, Note_off_c, 0, 53, 67
1, 178422, Control_c, 0, 64, 120
1, 178423, Note_off_c, 0, 80, 64
1, 178437, Control_c, 0, 64, 127
1, 178652, Control_c, 0, 64, 98
1, 178667, Control_c, 0, 64, 75
1, 178681, Control_c, 0, 64, 59
1, 178696, Control_c, 0, 64, 33
1, 178711, Control_c, 0, 64, 0
1, 178940, Note_on_c, 0, 71, 84
1, 178943, Note_on_c, 0, 65, 74
1, 178950, Note_on_c, 0, 37, 75
1, 178951, Note_on_c, 0, 49, 78
1, 179008, Control_c, 0, 64, 45
1, 179022, Control_c, 0, 64, 55
1, 179037, Control_c, 0, 64, 64
1, 179052, Control_c, 0, 64, 73
1, 179067, Control_c, 0, 64, 87
1, 179081, Control_c, 0, 64, 127
1, 179090, Note_off_c, 0, 65, 60
1, 179093, Note_off_c, 0, 71, 63
1, 179144, Note_off_c, 0, 49, 63
1, 179150, Note_off_c, 0, 37, 59
1, 179298, Control_c, 0, 64, 83
1, 179312, Control_c, 0, 64, 60
1, 179327, Control_c, 0, 64, 0
1, 179558, Note_on_c, 0, 72, 81
1, 179559, Note_on_c, 0, 64, 79
1, 179563, Note_on_c, 0, 48, 87
1, 179564, Note_on_c, 0, 36, 76
1, 179564, Control_c, 0, 64, 44
1, 179578, Control_c, 0, 64, 62
1, 179593, Control_c, 0, 64, 65
1, 179597, Note_off_c, 0, 36, 65
1, 179598, Note_off_c, 0, 48, 64
1, 179604, Note_off_c, 0, 64, 64
1, 179606, Note_off_c, 0, 72, 63
1, 179608, Control_c, 0, 64, 70
1, 179623, Control_c, 0, 64, 77
1, 179638, Control_c, 0, 64, 90
1, 179653, Control_c, 0, 64, 115
1, 179668, Control_c, 0, 64, 127
1, 180002, Control_c, 0, 64, 95
1, 180017, Control_c, 0, 64, 78
1, 180031, Control_c, 0, 64, 66
1, 180046, Control_c, 0, 64, 55
1, 180061, Control_c, 0, 64, 44
1, 180076, Control_c, 0, 64, 36
1, 180091, Control_c, 0, 64, 29
1, 180106, Control_c, 0, 64, 12
1, 180121, Control_c, 0, 64, 0
1, 180239, Control_c, 0, 64, 24
1, 180254, Control_c, 0, 64, 27
1, 180269, Control_c, 0, 64, 25
1, 180298, Control_c, 0, 64, 29
1, 180313, Control_c, 0, 64, 38
1, 180327, Control_c, 0, 64, 40
1, 180333, Note_on_c, 0, 72, 78
1, 180342, Control_c, 0, 64, 38
1, 180357, Control_c, 0, 64, 37
1, 180372, Control_c, 0, 64, 37
1, 180387, Control_c, 0, 64, 39
1, 180401, Control_c, 0, 64, 41
1, 180461, Control_c, 0, 64, 44
1, 180476, Control_c, 0, 64, 45
1, 180491, Control_c, 0, 64, 45
1, 180505, Control_c, 0, 64, 44
1, 180550, Control_c, 0, 64, 45
1, 180580, Control_c, 0, 64, 44
1, 180594, Control_c, 0, 64, 44
1, 180624, Control_c, 0, 64, 44
1, 180654, Control_c, 0, 64, 44
1, 180668, Control_c, 0, 64, 43
1, 180683, Control_c, 0, 64, 42
1, 180713, Control_c, 0, 64, 43
1, 180824, Control_c, 0, 64, 43
1, 180929, Control_c, 0, 64, 43
1, 180944, Control_c, 0, 64, 41
1, 180958, Control_c, 0, 64, 41
1, 180971, Note_off_c, 0, 72, 58
1, 180973, Control_c, 0, 64, 40
1, 180987, Note_on_c, 0, 74, 59
1, 180988, Control_c, 0, 64, 39
1, 181003, Control_c, 0, 64, 37
1, 181018, Control_c, 0, 64, 34
1, 181032, Control_c, 0, 64, 32
1, 181060, Note_on_c, 0, 72, 64
1, 181062, Control_c, 0, 64, 32
1, 181077, Control_c, 0, 64, 29
1, 181081, Note_off_c, 0, 74, 61
1, 181092, Control_c, 0, 64, 23
1, 181106, Control_c, 0, 64, 19
1, 181111, Note_off_c, 0, 72, 61
1, 181121, Control_c, 0, 64, 18
1, 181130, Note_on_c, 0, 70, 63
1, 181136, Control_c, 0, 64, 17
1, 181150, Control_c, 0, 64, 8
1, 181165, Control_c, 0, 64, 0
1, 181185, Note_off_c, 0, 70, 63
1, 181188, Note_on_c, 0, 72, 68
1, 181254, Control_c, 0, 64, 12
1, 181261, Note_off_c, 0, 72, 61
1, 181269, Control_c, 0, 64, 18
1, 181276, Note_on_c, 0, 70, 58
1, 181283, Control_c, 0, 64, 20
1, 181298, Control_c, 0, 64, 19
1, 181313, Note_off_c, 0, 70, 65
1, 181313, Control_c, 0, 64, 17
1, 181340, Note_on_c, 0, 69, 66
1, 181358, Control_c, 0, 64, 19
1, 181391, Note_off_c, 0, 69, 57
1, 181403, Control_c, 0, 64, 20
1, 181415, Note_on_c, 0, 70, 68
1, 181417, Control_c, 0, 64, 23
1, 181432, Control_c, 0, 64, 26
1, 181447, Control_c, 0, 64, 27
1, 181468, Control_c, 0, 64, 28
1, 181482, Note_off_c, 0, 70, 61
1, 181495, Note_on_c, 0, 69, 69
1, 181528, Control_c, 0, 64, 28
1, 181537, Note_off_c, 0, 69, 66
1, 181566, Note_on_c, 0, 67, 69
1, 181629, Note_off_c, 0, 67, 64
1, 181631, Note_on_c, 0, 69, 59
1, 181633, Control_c, 0, 64, 29
1, 181646, Control_c, 0, 64, 29
1, 181661, Control_c, 0, 64, 30
1, 181695, Note_off_c, 0, 69, 64
1, 181697, Note_on_c, 0, 67, 59
1, 181768, Note_off_c, 0, 67, 63
1, 181780, Note_on_c, 0, 57, 59
1, 181784, Note_on_c, 0, 65, 66
1, 181816, Note_off_c, 0, 65, 61
1, 181818, Note_off_c, 0, 57, 63
1, 181868, Control_c, 0, 64, 30
1, 181883, Control_c, 0, 64, 31
1, 181904, Note_on_c, 0, 60, 63
1, 181930, Note_off_c, 0, 60, 65
1, 181942, Control_c, 0, 64, 31
1, 181957, Control_c, 0, 64, 32
1, 181972, Control_c, 0, 64, 33
1, 182002, Control_c, 0, 64, 32
1, 182005, Note_on_c, 0, 65, 65
1, 182017, Control_c, 0, 64, 32
1, 182029, Note_on_c, 0, 58, 65
1, 182059, Note_off_c, 0, 65, 60
1, 182067, Note_on_c, 0, 64, 70
1, 182073, Note_off_c, 0, 58, 61
1, 182090, Control_c, 0, 64, 30
1, 182105, Control_c, 0, 64, 30
1, 182110, Note_off_c, 0, 64, 63
1, 182127, Note_on_c, 0, 62, 62
1, 182135, Control_c, 0, 64, 30
1, 182142, Note_on_c, 0, 60, 51
1, 182164, Control_c, 0, 64, 31
1, 182167, Note_off_c, 0, 60, 56
1, 182176, Note_off_c, 0, 62, 63
1, 182179, Control_c, 0, 64, 31
1, 182181, Note_on_c, 0, 64, 63
1, 182234, Note_off_c, 0, 64, 62
1, 182248, Note_on_c, 0, 65, 73
1, 182262, Note_on_c, 0, 57, 66
1, 182288, Note_off_c, 0, 57, 66
1, 182289, Note_off_c, 0, 65, 63
1, 182290, Control_c, 0, 64, 31
1, 182320, Control_c, 0, 64, 31
1, 182335, Control_c, 0, 64, 32
1, 182350, Control_c, 0, 64, 33
1, 182385, Note_on_c, 0, 60, 58
1, 182408, Note_off_c, 0, 60, 60
1, 182410, Control_c, 0, 64, 33
1, 182500, Note_on_c, 0, 69, 74
1, 182518, Note_on_c, 0, 52, 54
1, 182544, Note_off_c, 0, 52, 59
1, 182554, Note_off_c, 0, 69, 62
1, 182570, Note_on_c, 0, 67, 74
1, 182613, Note_off_c, 0, 67, 61
1, 182614, Note_on_c, 0, 65, 60
1, 182631, Note_on_c, 0, 60, 72
1, 182661, Note_off_c, 0, 65, 59
1, 182667, Note_on_c, 0, 67, 72
1, 182670, Note_off_c, 0, 60, 58
1, 182728, Note_off_c, 0, 67, 64
1, 182732, Note_on_c, 0, 69, 79
1, 182751, Control_c, 0, 64, 34
1, 182753, Note_on_c, 0, 53, 67
1, 182764, Note_off_c, 0, 69, 68
1, 182792, Note_off_c, 0, 53, 60
1, 182810, Control_c, 0, 64, 34
1, 182825, Control_c, 0, 64, 35
1, 182869, Note_on_c, 0, 60, 71
1, 182899, Control_c, 0, 64, 36
1, 182908, Note_off_c, 0, 60, 61
1, 182989, Note_on_c, 0, 72, 71
1, 182993, Note_on_c, 0, 50, 79
1, 183010, Control_c, 0, 64, 36
1, 183025, Control_c, 0, 64, 35
1, 183029, Note_off_c, 0, 50, 65
1, 183040, Control_c, 0, 64, 34
1, 183048, Note_off_c, 0, 72, 63
1, 183054, Control_c, 0, 64, 32
1, 183057, Note_on_c, 0, 70, 70
1, 183069, Control_c, 0, 64, 29
1, 183084, Control_c, 0, 64, 28
1, 183099, Note_off_c, 0, 70, 61
1, 183111, Note_on_c, 0, 69, 62
1, 183114, Control_c, 0, 64, 23
1, 183114, Note_on_c, 0, 53, 77
1, 183129, Control_c, 0, 64, 0
1, 183165, Note_off_c, 0, 53, 62
1, 183167, Note_on_c, 0, 70, 73
1, 183172, Note_off_c, 0, 69, 63
1, 183228, Note_on_c, 0, 72, 83
1, 183235, Note_off_c, 0, 70, 63
1, 183239, Note_on_c, 0, 45, 78
1, 183278, Note_off_c, 0, 72, 62
1, 183300, Note_off_c, 0, 45, 60
1, 183367, Note_on_c, 0, 53, 80
1, 183409, Note_off_c, 0, 53, 62
1, 183488, Note_on_c, 0, 74, 78
1, 183490, Note_on_c, 0, 46, 76
1, 183516, Note_off_c, 0, 74, 66
1, 183547, Note_off_c, 0, 46, 64
1, 183615, Note_on_c, 0, 58, 78
1, 183673, Note_off_c, 0, 58, 63
1, 183787, Note_on_c, 0, 65, 79
1, 183799, Note_on_c, 0, 57, 72
1, 183800, Note_on_c, 0, 48, 66
1, 184064, Note_off_c, 0, 65, 59
1, 184100, Note_on_c, 0, 64, 69
1, 184107, Note_on_c, 0, 55, 61
1, 184113, Note_off_c, 0, 57, 58
1, 184145, Control_c, 0, 64, 42
1, 184160, Control_c, 0, 64, 59
1, 184169, Note_off_c, 0, 64, 63
1, 184175, Control_c, 0, 64, 66
1, 184190, Control_c, 0, 64, 70
1, 184205, Control_c, 0, 64, 75
1, 184220, Control_c, 0, 64, 81
1, 184234, Control_c, 0, 64, 84
1, 184265, Note_off_c, 0, 55, 62
1, 184269, Note_off_c, 0, 48, 28
1, 184279, Control_c, 0, 64, 82
1, 184293, Control_c, 0, 64, 76
1, 184308, Control_c, 0, 64, 67
1, 184323, Control_c, 0, 64, 55
1, 184338, Control_c, 0, 64, 23
1, 184353, Control_c, 0, 64, 0
1, 184367, Note_on_c, 0, 74, 85
1, 184638, Note_on_c, 0, 53, 80
1, 184640, Note_on_c, 0, 50, 76
1, 184864, Note_off_c, 0, 50, 52
1, 184884, Note_off_c, 0, 53, 52
1, 184904, Note_on_c, 0, 55, 79
1, 184906, Note_on_c, 0, 52, 71
1, 184921, Note_off_c, 0, 74, 51
1, 184935, Note_off_c, 0, 52, 68
1, 184936, Note_off_c, 0, 55, 65
1, 184973, Note_on_c, 0, 75, 62
1, 185043, Note_off_c, 0, 75, 64
1, 185047, Note_on_c, 0, 74, 73
1, 185101, Note_off_c, 0, 74, 66
1, 185125, Note_on_c, 0, 72, 74
1, 185130, Note_on_c, 0, 54, 76
1, 185131, Note_on_c, 0, 57, 73
1, 185154, Note_off_c, 0, 54, 67
1, 185167, Note_off_c, 0, 57, 65
1, 185168, Note_off_c, 0, 72, 54
1, 185203, Note_on_c, 0, 74, 73
1, 185301, Note_on_c, 0, 72, 78
1, 185326, Note_off_c, 0, 74, 62
1, 185376, Note_on_c, 0, 58, 77
1, 185378, Note_off_c, 0, 72, 61
1, 185379, Note_on_c, 0, 70, 70
1, 185382, Note_on_c, 0, 55, 63
1, 185406, Note_off_c, 0, 58, 67
1, 185415, Note_off_c, 0, 55, 63
1, 185459, Note_off_c, 0, 70, 63
1, 185463, Note_on_c, 0, 72, 76
1, 185544, Note_off_c, 0, 72, 62
1, 185555, Note_on_c, 0, 70, 74
1, 185613, Note_off_c, 0, 70, 63
1, 185622, Note_on_c, 0, 60, 74
1, 185630, Note_on_c, 0, 69, 73
1, 185634, Note_on_c, 0, 57, 61
1, 185652, Note_off_c, 0, 60, 64
1, 185664, Note_off_c, 0, 57, 64
1, 185696, Note_off_c, 0, 69, 62
1, 185705, Note_on_c, 0, 70, 71
1, 185781, Note_on_c, 0, 69, 78
1, 185789, Note_off_c, 0, 70, 56
1, 185846, Note_off_c, 0, 69, 66
1, 185865, Note_on_c, 0, 62, 71
1, 185868, Note_on_c, 0, 58, 58
1, 185869, Note_on_c, 0, 67, 83
1, 185879, Control_c, 0, 64, 10
1, 185894, Control_c, 0, 64, 15
1, 185909, Control_c, 0, 64, 15
1, 185924, Control_c, 0, 64, 15
1, 185925, Note_off_c, 0, 67, 64
1, 185961, Control_c, 0, 64, 16
1, 185975, Control_c, 0, 64, 18
1, 185990, Control_c, 0, 64, 19
1, 186050, Control_c, 0, 64, 20
1, 186124, Control_c, 0, 64, 21
1, 186124, Note_off_c, 0, 62, 63
1, 186139, Control_c, 0, 64, 22
1, 186146, Note_on_c, 0, 79, 80
1, 186172, Note_off_c, 0, 58, 64
1, 186199, Control_c, 0, 64, 22
1, 186199, Note_off_c, 0, 79, 65
1, 186213, Control_c, 0, 64, 23
1, 186228, Control_c, 0, 64, 24
1, 186287, Control_c, 0, 64, 24
1, 186317, Control_c, 0, 64, 26
1, 186332, Control_c, 0, 64, 28
1, 186346, Control_c, 0, 64, 33
1, 186361, Control_c, 0, 64, 39
1, 186376, Control_c, 0, 64, 47
1, 186392, Control_c, 0, 64, 52
1, 186407, Control_c, 0, 64, 55
1, 186411, Note_on_c, 0, 74, 74
1, 186422, Control_c, 0, 64, 56
1, 186436, Control_c, 0, 64, 57
1, 186451, Control_c, 0, 64, 59
1, 186466, Control_c, 0, 64, 59
1, 186481, Control_c, 0, 64, 60
1, 186485, Note_off_c, 0, 74, 64
1, 186584, Control_c, 0, 64, 59
1, 186599, Control_c, 0, 64, 58
1, 186614, Control_c, 0, 64, 57
1, 186629, Control_c, 0, 64, 55
1, 186643, Control_c, 0, 64, 52
1, 186658, Control_c, 0, 64, 49
1, 186662, Note_on_c, 0, 77, 69
1, 186673, Control_c, 0, 64, 46
1, 186675, Note_on_c, 0, 48, 66
1, 186676, Note_on_c, 0, 46, 56
1, 186688, Control_c, 0, 64, 44
1, 186724, Note_off_c, 0, 77, 65
1, 186727, Note_on_c, 0, 76, 70
1, 186740, Control_c, 0, 64, 42
1, 186755, Control_c, 0, 64, 36
1, 186760, Note_off_c, 0, 48, 58
1, 186768, Note_off_c, 0, 76, 64
1, 186769, Control_c, 0, 64, 33
1, 186783, Note_on_c, 0, 74, 62
1, 186799, Control_c, 0, 64, 32
1, 186814, Control_c, 0, 64, 28
1, 186826, Note_off_c, 0, 74, 57
1, 186829, Control_c, 0, 64, 0
1, 186847, Note_on_c, 0, 76, 72
1, 186919, Note_off_c, 0, 76, 56
1, 186922, Note_on_c, 0, 77, 73
1, 186932, Note_on_c, 0, 48, 60
1, 186939, Note_on_c, 0, 45, 60
1, 186949, Note_off_c, 0, 46, 58
1, 186977, Control_c, 0, 64, 31
1, 186992, Note_off_c, 0, 77, 60
1, 186992, Control_c, 0, 64, 48
1, 187001, Note_off_c, 0, 45, 61
1, 187007, Control_c, 0, 64, 56
1, 187009, Note_off_c, 0, 48, 62
1, 187022, Control_c, 0, 64, 58
1, 187036, Control_c, 0, 64, 59
1, 187051, Control_c, 0, 64, 61
1, 187066, Control_c, 0, 64, 62
1, 187080, Control_c, 0, 64, 63
1, 187095, Control_c, 0, 64, 63
1, 187155, Control_c, 0, 64, 63
1, 187185, Control_c, 0, 64, 62
1, 187199, Note_on_c, 0, 67, 63
1, 187200, Control_c, 0, 64, 61
1, 187215, Control_c, 0, 64, 59
1, 187217, Note_on_c, 0, 50, 63
1, 187229, Note_on_c, 0, 47, 56
1, 187230, Control_c, 0, 64, 58
1, 187245, Control_c, 0, 64, 56
1, 187252, Note_off_c, 0, 67, 57
1, 187259, Control_c, 0, 64, 56
1, 187268, Note_on_c, 0, 65, 63
1, 187304, Control_c, 0, 64, 55
1, 187311, Note_off_c, 0, 65, 61
1, 187318, Control_c, 0, 64, 53
1, 187329, Note_off_c, 0, 50, 0
1, 187329, Note_on_c, 0, 50, 6
1, 187333, Note_on_c, 0, 64, 58
1, 187333, Control_c, 0, 64, 51
1, 187348, Control_c, 0, 64, 50
1, 187363, Control_c, 0, 64, 50
1, 187374, Note_off_c, 0, 64, 60
1, 187378, Control_c, 0, 64, 49
1, 187391, Note_on_c, 0, 65, 68
1, 187392, Control_c, 0, 64, 47
1, 187407, Control_c, 0, 64, 44
1, 187422, Control_c, 0, 64, 43
1, 187466, Note_off_c, 0, 47, 53
1, 187473, Note_off_c, 0, 65, 58
1, 187474, Control_c, 0, 64, 42
1, 187477, Note_on_c, 0, 69, 70
1, 187489, Control_c, 0, 64, 41
1, 187492, Note_on_c, 0, 53, 61
1, 187497, Note_on_c, 0, 48, 60
1, 187504, Control_c, 0, 64, 41
1, 187508, Note_off_c, 0, 50, 58
1, 187533, Control_c, 0, 64, 41
1, 187548, Control_c, 0, 64, 42
1, 187607, Control_c, 0, 64, 42
1, 187652, Control_c, 0, 64, 42
1, 187710, Control_c, 0, 64, 41
1, 187725, Control_c, 0, 64, 40
1, 187740, Control_c, 0, 64, 38
1, 187755, Control_c, 0, 64, 37
1, 187761, Note_on_c, 0, 67, 67
1, 187762, Note_on_c, 0, 52, 57
1, 187764, Note_off_c, 0, 53, 61
1, 187770, Note_off_c, 0, 69, 54
1, 187770, Control_c, 0, 64, 34
1, 187785, Control_c, 0, 64, 25
1, 187800, Control_c, 0, 64, 0
1, 187918, Control_c, 0, 64, 23
1, 187933, Control_c, 0, 64, 38
1, 187948, Control_c, 0, 64, 45
1, 187963, Control_c, 0, 64, 47
1, 187978, Control_c, 0, 64, 41
1, 187993, Control_c, 0, 64, 0
1, 188049, Note_on_c, 0, 65, 56
1, 188049, Note_off_c, 0, 67, 57
1, 188054, Note_off_c, 0, 52, 61
1, 188062, Note_on_c, 0, 53, 58
1, 188068, Control_c, 0, 64, 14
1, 188082, Control_c, 0, 64, 43
1, 188087, Note_off_c, 0, 48, 57
1, 188097, Control_c, 0, 64, 56
1, 188112, Control_c, 0, 64, 62
1, 188127, Control_c, 0, 64, 64
1, 188138, Note_off_c, 0, 65, 63
1, 188141, Control_c, 0, 64, 66
1, 188156, Control_c, 0, 64, 69
1, 188171, Control_c, 0, 64, 71
1, 188186, Control_c, 0, 64, 72
1, 188253, Control_c, 0, 64, 68
1, 188268, Control_c, 0, 64, 55
1, 188283, Control_c, 0, 64, 22
1, 188297, Control_c, 0, 64, 0
1, 188321, Note_off_c, 0, 53, 44
1, 188327, Control_c, 0, 64, 24
1, 188339, Note_on_c, 0, 41, 85
1, 188341, Control_c, 0, 64, 47
1, 188356, Control_c, 0, 64, 60
1, 188371, Control_c, 0, 64, 66
1, 188383, Note_off_c, 0, 41, 63
1, 188386, Control_c, 0, 64, 69
1, 188401, Control_c, 0, 64, 73
1, 188415, Control_c, 0, 64, 77
1, 188430, Control_c, 0, 64, 79
1, 188445, Control_c, 0, 64, 79
1, 188489, Control_c, 0, 64, 77
1, 188504, Control_c, 0, 64, 69
1, 188519, Control_c, 0, 64, 61
1, 188533, Control_c, 0, 64, 48
1, 188548, Control_c, 0, 64, 34
1, 188563, Control_c, 0, 64, 25
1, 188593, Control_c, 0, 64, 26
1, 188608, Control_c, 0, 64, 27
1, 188637, Control_c, 0, 64, 27
1, 188656, Note_on_c, 0, 60, 90
1, 188712, Control_c, 0, 64, 29
1, 188727, Control_c, 0, 64, 30
1, 188756, Control_c, 0, 64, 29
1, 188786, Control_c, 0, 64, 31
1, 188801, Control_c, 0, 64, 35
1, 188816, Control_c, 0, 64, 37
1, 188905, Control_c, 0, 64, 36
1, 188920, Control_c, 0, 64, 35
1, 188945, Note_on_c, 0, 72, 85
1, 188950, Control_c, 0, 64, 36
1, 188971, Control_c, 0, 64, 37
1, 189009, Note_off_c, 0, 72, 64
1, 189031, Control_c, 0, 64, 38
1, 189046, Control_c, 0, 64, 40
1, 189090, Control_c, 0, 64, 39
1, 189105, Control_c, 0, 64, 40
1, 189120, Control_c, 0, 64, 42
1, 189134, Control_c, 0, 64, 44
1, 189163, Control_c, 0, 64, 43
1, 189193, Control_c, 0, 64, 43
1, 189208, Control_c, 0, 64, 44
1, 189223, Control_c, 0, 64, 44
1, 189244, Note_on_c, 0, 84, 86
1, 189316, Note_off_c, 0, 60, 61
1, 189330, Note_on_c, 0, 62, 79
1, 189378, Note_off_c, 0, 62, 52
1, 189409, Note_on_c, 0, 60, 79
1, 189430, Control_c, 0, 64, 44
1, 189477, Note_off_c, 0, 60, 61
1, 189489, Control_c, 0, 64, 43
1, 189491, Note_on_c, 0, 58, 72
1, 189549, Control_c, 0, 64, 44
1, 189556, Note_off_c, 0, 58, 64
1, 189570, Note_on_c, 0, 60, 79
1, 189639, Note_off_c, 0, 60, 57
1, 189652, Note_on_c, 0, 58, 75
1, 189653, Control_c, 0, 64, 43
1, 189683, Control_c, 0, 64, 44
1, 189719, Control_c, 0, 64, 43
1, 189734, Control_c, 0, 64, 43
1, 189742, Note_off_c, 0, 58, 66
1, 189749, Control_c, 0, 64, 42
1, 189756, Note_on_c, 0, 57, 68
1, 189812, Note_off_c, 0, 57, 62
1, 189814, Note_on_c, 0, 86, 78
1, 189814, Note_off_c, 0, 84, 57
1, 189824, Control_c, 0, 64, 41
1, 189830, Note_on_c, 0, 58, 76
1, 189853, Control_c, 0, 64, 42
1, 189895, Note_off_c, 0, 58, 64
1, 189900, Note_on_c, 0, 84, 81
1, 189905, Note_on_c, 0, 57, 77
1, 189928, Note_off_c, 0, 86, 63
1, 189964, Note_off_c, 0, 84, 63
1, 189979, Note_on_c, 0, 82, 71
1, 189987, Note_on_c, 0, 55, 72
1, 189988, Note_off_c, 0, 57, 63
1, 190017, Control_c, 0, 64, 41
1, 190038, Note_off_c, 0, 82, 65
1, 190044, Note_on_c, 0, 84, 74
1, 190047, Note_off_c, 0, 55, 62
1, 190057, Note_on_c, 0, 57, 69
1, 190061, Control_c, 0, 64, 42
1, 190086, Note_off_c, 0, 57, 59
1, 190105, Control_c, 0, 64, 41
1, 190129, Note_on_c, 0, 55, 72
1, 190129, Note_off_c, 0, 84, 65
1, 190143, Note_on_c, 0, 82, 69
1, 190185, Note_off_c, 0, 82, 61
1, 190204, Note_on_c, 0, 53, 78
1, 190207, Note_on_c, 0, 81, 65
1, 190212, Note_off_c, 0, 55, 63
1, 190232, Note_off_c, 0, 53, 67
1, 190253, Control_c, 0, 64, 42
1, 190261, Note_off_c, 0, 81, 42
1, 190268, Control_c, 0, 64, 41
1, 190274, Note_on_c, 0, 82, 73
1, 190298, Control_c, 0, 64, 42
1, 190313, Control_c, 0, 64, 42
1, 190353, Note_on_c, 0, 81, 70
1, 190375, Note_off_c, 0, 82, 52
1, 190413, Note_off_c, 0, 81, 63
1, 190416, Note_on_c, 0, 79, 74
1, 190437, Note_on_c, 0, 57, 78
1, 190477, Note_off_c, 0, 57, 67
1, 190480, Note_off_c, 0, 79, 66
1, 190500, Note_on_c, 0, 77, 71
1, 190508, Note_on_c, 0, 50, 6
1, 190521, Note_on_c, 0, 55, 77
1, 190537, Note_off_c, 0, 50, 55
1, 190558, Control_c, 0, 64, 42
1, 190571, Note_off_c, 0, 77, 47
1, 190573, Control_c, 0, 64, 41
1, 190582, Note_on_c, 0, 76, 75
1, 190590, Note_off_c, 0, 55, 62
1, 190593, Note_on_c, 0, 53, 76
1, 190626, Note_off_c, 0, 76, 59
1, 190641, Note_on_c, 0, 55, 68
1, 190651, Note_off_c, 0, 53, 64
1, 190671, Note_on_c, 0, 77, 72
1, 190682, Note_off_c, 0, 55, 63
1, 190702, Note_on_c, 0, 57, 77
1, 190721, Control_c, 0, 64, 41
1, 190736, Control_c, 0, 64, 40
1, 190738, Note_off_c, 0, 77, 63
1, 190748, Note_off_c, 0, 57, 59
1, 190757, Note_on_c, 0, 79, 72
1, 190839, Note_on_c, 0, 77, 69
1, 190858, Note_off_c, 0, 79, 55
1, 190905, Note_off_c, 0, 77, 64
1, 190912, Note_on_c, 0, 45, 75
1, 190913, Note_on_c, 0, 75, 69
1, 190928, Control_c, 0, 64, 40
1, 190943, Control_c, 0, 64, 41
1, 190952, Note_off_c, 0, 45, 63
1, 190969, Note_off_c, 0, 75, 66
1, 190973, Control_c, 0, 64, 40
1, 190989, Note_on_c, 0, 74, 68
1, 191017, Control_c, 0, 64, 41
1, 191032, Control_c, 0, 64, 41
1, 191066, Note_off_c, 0, 74, 61
1, 191067, Note_on_c, 0, 73, 69
1, 191133, Note_off_c, 0, 73, 64
1, 191148, Note_on_c, 0, 46, 78
1, 191165, Note_on_c, 0, 74, 71
1, 191248, Note_off_c, 0, 74, 62
1, 191248, Control_c, 0, 64, 41
1, 191249, Note_on_c, 0, 79, 77
1, 191293, Control_c, 0, 64, 40
1, 191311, Note_off_c, 0, 79, 64
1, 191330, Note_on_c, 0, 78, 75
1, 191352, Control_c, 0, 64, 40
1, 191381, Control_c, 0, 64, 40
1, 191389, Note_off_c, 0, 78, 64
1, 191396, Control_c, 0, 64, 41
1, 191411, Control_c, 0, 64, 41
1, 191413, Note_on_c, 0, 79, 75
1, 191481, Note_on_c, 0, 82, 79
1, 191490, Note_off_c, 0, 79, 63
1, 191499, Control_c, 0, 64, 41
1, 191514, Control_c, 0, 64, 40
1, 191529, Control_c, 0, 64, 39
1, 191544, Control_c, 0, 64, 39
1, 191559, Note_off_c, 0, 82, 65
1, 191568, Note_on_c, 0, 81, 79
1, 191588, Control_c, 0, 64, 38
1, 191597, Note_off_c, 0, 46, 63
1, 191603, Control_c, 0, 64, 38
1, 191634, Note_off_c, 0, 81, 58
1, 191651, Note_on_c, 0, 82, 83
1, 191677, Control_c, 0, 64, 37
1, 191692, Control_c, 0, 64, 37
1, 191710, Note_off_c, 0, 82, 64
1, 191722, Control_c, 0, 64, 37
1, 191733, Note_on_c, 0, 86, 75
1, 191737, Control_c, 0, 64, 38
1, 191751, Control_c, 0, 64, 38
1, 191803, Poly_aftertouch_c, 0, 79, 127
1, 191804, Note_off_c, 0, 86, 62
1, 191815, Note_on_c, 0, 85, 75
1, 191825, Control_c, 0, 64, 39
1, 191840, Control_c, 0, 64, 39
1, 191849, Poly_aftertouch_c, 0, 79, 0
1, 191884, Note_off_c, 0, 85, 64
1, 191884, Control_c, 0, 64, 40
1, 191895, Note_on_c, 0, 58, 76
1, 191899, Note_on_c, 0, 86, 77
1, 191899, Control_c, 0, 64, 40
1, 191981, Note_off_c, 0, 86, 61
1, 191982, Control_c, 0, 64, 41
1, 191991, Note_on_c, 0, 82, 73
1, 192042, Control_c, 0, 64, 40
1, 192050, Note_off_c, 0, 82, 63
1, 192065, Note_on_c, 0, 79, 74
1, 192071, Control_c, 0, 64, 41
1, 192086, Control_c, 0, 64, 40
1, 192101, Control_c, 0, 64, 40
1, 192113, Note_off_c, 0, 79, 54
1, 192115, Control_c, 0, 64, 38
1, 192130, Control_c, 0, 64, 37
1, 192152, Note_on_c, 0, 77, 79
1, 192162, Note_off_c, 0, 58, 65
1, 192167, Note_on_c, 0, 60, 78
1, 192175, Control_c, 0, 64, 38
1, 192189, Control_c, 0, 64, 41
1, 192204, Control_c, 0, 64, 46
1, 192219, Control_c, 0, 64, 51
1, 192234, Control_c, 0, 64, 51
1, 192249, Control_c, 0, 64, 50
1, 192263, Control_c, 0, 64, 47
1, 192278, Control_c, 0, 64, 38
1, 192293, Control_c, 0, 64, 25
1, 192307, Control_c, 0, 64, 0
1, 192313, Note_off_c, 0, 60, 47
1, 192316, Poly_aftertouch_c, 0, 79, 127
1, 192411, Poly_aftertouch_c, 0, 79, 0
1, 192415, Note_off_c, 0, 77, 64
1, 192433, Note_on_c, 0, 48, 91
1, 192435, Note_on_c, 0, 76, 75
1, 192471, Control_c, 0, 64, 40
1, 192477, Note_off_c, 0, 48, 64
1, 192486, Control_c, 0, 64, 61
1, 192500, Control_c, 0, 64, 65
1, 192515, Control_c, 0, 64, 67
1, 192529, Note_off_c, 0, 76, 61
1, 192530, Control_c, 0, 64, 69
1, 192545, Control_c, 0, 64, 72
1, 192560, Control_c, 0, 64, 73
1, 192589, Control_c, 0, 64, 70
1, 192604, Control_c, 0, 64, 64
1, 192619, Control_c, 0, 64, 55
1, 192634, Control_c, 0, 64, 37
1, 192648, Control_c, 0, 64, 0
1, 192743, Note_on_c, 0, 62, 86
1, 192760, Control_c, 0, 64, 28
1, 192775, Control_c, 0, 64, 51
1, 192790, Control_c, 0, 64, 61
1, 192805, Control_c, 0, 64, 61
1, 192879, Control_c, 0, 64, 60
1, 192894, Control_c, 0, 64, 59
1, 192909, Control_c, 0, 64, 59
1, 192938, Control_c, 0, 64, 58
1, 192998, Control_c, 0, 64, 59
1, 193012, Control_c, 0, 64, 61
1, 193013, Note_on_c, 0, 65, 79
1, 193027, Control_c, 0, 64, 62
1, 193042, Control_c, 0, 64, 63
1, 193057, Control_c, 0, 64, 63
1, 193072, Control_c, 0, 64, 64
1, 193086, Control_c, 0, 64, 66
1, 193101, Control_c, 0, 64, 69
1, 193113, Note_off_c, 0, 65, 59
1, 193116, Control_c, 0, 64, 70
1, 193130, Control_c, 0, 64, 71
1, 193190, Control_c, 0, 64, 68
1, 193204, Control_c, 0, 64, 63
1, 193219, Control_c, 0, 64, 56
1, 193234, Control_c, 0, 64, 49
1, 193249, Control_c, 0, 64, 47
1, 193264, Control_c, 0, 64, 49
1, 193279, Control_c, 0, 64, 54
1, 193290, Note_on_c, 0, 77, 76
1, 193294, Control_c, 0, 64, 58
1, 193308, Control_c, 0, 64, 61
1, 193323, Control_c, 0, 64, 64
1, 193326, Note_off_c, 0, 77, 62
1, 193338, Control_c, 0, 64, 66
1, 193349, Note_off_c, 0, 62, 54
1, 193353, Control_c, 0, 64, 67
1, 193368, Control_c, 0, 64, 69
1, 193370, Note_on_c, 0, 63, 65
1, 193383, Control_c, 0, 64, 70
1, 193397, Control_c, 0, 64, 71
1, 193425, Note_off_c, 0, 63, 56
1, 193427, Control_c, 0, 64, 72
1, 193463, Control_c, 0, 64, 72
1, 193466, Note_on_c, 0, 62, 77
1, 193478, Control_c, 0, 64, 72
1, 193493, Control_c, 0, 64, 71
1, 193508, Control_c, 0, 64, 65
1, 193523, Control_c, 0, 64, 55
1, 193538, Control_c, 0, 64, 42
1, 193545, Note_off_c, 0, 62, 47
1, 193553, Control_c, 0, 64, 36
1, 193553, Note_on_c, 0, 78, 78
1, 193556, Note_on_c, 0, 75, 70
1, 193559, Note_on_c, 0, 60, 68
1, 193568, Control_c, 0, 64, 39
1, 193583, Control_c, 0, 64, 47
1, 193588, Note_off_c, 0, 75, 66
1, 193598, Control_c, 0, 64, 56
1, 193605, Note_off_c, 0, 60, 59
1, 193608, Note_off_c, 0, 78, 63
1, 193613, Control_c, 0, 64, 60
1, 193627, Control_c, 0, 64, 62
1, 193633, Note_on_c, 0, 62, 70
1, 193642, Control_c, 0, 64, 64
1, 193657, Control_c, 0, 64, 66
1, 193672, Control_c, 0, 64, 69
1, 193679, Note_off_c, 0, 62, 57
1, 193687, Control_c, 0, 64, 71
1, 193695, Note_on_c, 0, 60, 76
1, 193701, Control_c, 0, 64, 71
1, 193775, Control_c, 0, 64, 69
1, 193788, Note_off_c, 0, 60, 60
1, 193790, Control_c, 0, 64, 61
1, 193796, Note_on_c, 0, 79, 79
1, 193797, Note_on_c, 0, 74, 72
1, 193798, Note_on_c, 0, 58, 68
1, 193805, Control_c, 0, 64, 49
1, 193820, Control_c, 0, 64, 41
1, 193834, Control_c, 0, 64, 41
1, 193835, Note_off_c, 0, 74, 60
1, 193849, Control_c, 0, 64, 46
1, 193856, Note_off_c, 0, 58, 65
1, 193864, Control_c, 0, 64, 53
1, 193878, Control_c, 0, 64, 58
1, 193884, Note_on_c, 0, 60, 73
1, 193893, Control_c, 0, 64, 61
1, 193908, Control_c, 0, 64, 64
1, 193923, Control_c, 0, 64, 67
1, 193928, Note_off_c, 0, 60, 56
1, 193938, Control_c, 0, 64, 70
1, 193952, Note_on_c, 0, 58, 70
1, 193952, Control_c, 0, 64, 72
1, 193967, Control_c, 0, 64, 73
1, 194027, Control_c, 0, 64, 70
1, 194042, Control_c, 0, 64, 62
1, 194049, Note_on_c, 0, 81, 75
1, 194055, Note_on_c, 0, 57, 65
1, 194057, Control_c, 0, 64, 52
1, 194063, Note_off_c, 0, 58, 58
1, 194066, Note_on_c, 0, 78, 60
1, 194071, Control_c, 0, 64, 43
1, 194074, Note_off_c, 0, 79, 33
1, 194086, Control_c, 0, 64, 43
1, 194101, Control_c, 0, 64, 49
1, 194116, Control_c, 0, 64, 58
1, 194121, Note_off_c, 0, 81, 65
1, 194123, Note_off_c, 0, 57, 63
1, 194131, Control_c, 0, 64, 63
1, 194134, Note_off_c, 0, 78, 64
1, 194138, Note_on_c, 0, 58, 57
1, 194145, Control_c, 0, 64, 64
1, 194160, Control_c, 0, 64, 66
1, 194175, Control_c, 0, 64, 70
1, 194190, Control_c, 0, 64, 74
1, 194211, Note_off_c, 0, 58, 65
1, 194212, Control_c, 0, 64, 76
1, 194224, Note_on_c, 0, 57, 76
1, 194227, Control_c, 0, 64, 77
1, 194241, Control_c, 0, 64, 77
1, 194286, Control_c, 0, 64, 76
1, 194301, Control_c, 0, 64, 67
1, 194316, Control_c, 0, 64, 57
1, 194319, Note_on_c, 0, 82, 79
1, 194329, Note_on_c, 0, 55, 69
1, 194329, Note_on_c, 0, 79, 63
1, 194331, Control_c, 0, 64, 45
1, 194338, Note_off_c, 0, 57, 51
1, 194345, Control_c, 0, 64, 42
1, 194360, Control_c, 0, 64, 46
1, 194376, Control_c, 0, 64, 53
1, 194390, Control_c, 0, 64, 59
1, 194400, Note_off_c, 0, 55, 64
1, 194404, Note_off_c, 0, 82, 64
1, 194405, Control_c, 0, 64, 61
1, 194413, Note_on_c, 0, 81, 71
1, 194420, Control_c, 0, 64, 63
1, 194435, Control_c, 0, 64, 65
1, 194437, Note_off_c, 0, 79, 46
1, 194450, Control_c, 0, 64, 68
1, 194465, Control_c, 0, 64, 69
1, 194480, Control_c, 0, 64, 69
1, 194485, Note_off_c, 0, 81, 65
1, 194488, Note_on_c, 0, 82, 77
1, 194524, Control_c, 0, 64, 68
1, 194539, Control_c, 0, 64, 63
1, 194549, Note_off_c, 0, 82, 63
1, 194554, Control_c, 0, 64, 55
1, 194558, Note_on_c, 0, 55, 76
1, 194565, Note_on_c, 0, 83, 75
1, 194569, Control_c, 0, 64, 47
1, 194583, Control_c, 0, 64, 45
1, 194590, Note_off_c, 0, 55, 63
1, 194598, Control_c, 0, 64, 49
1, 194610, Note_off_c, 0, 83, 64
1, 194613, Control_c, 0, 64, 55
1, 194619, Note_on_c, 0, 53, 70
1, 194628, Control_c, 0, 64, 60
1, 194643, Control_c, 0, 64, 61
1, 194644, Note_on_c, 0, 81, 71
1, 194657, Control_c, 0, 64, 62
1, 194672, Control_c, 0, 64, 63
1, 194687, Control_c, 0, 64, 63
1, 194698, Note_off_c, 0, 53, 61
1, 194700, Note_on_c, 0, 52, 79
1, 194701, Control_c, 0, 64, 63
1, 194716, Control_c, 0, 64, 58
1, 194721, Note_on_c, 0, 83, 77
1, 194723, Note_off_c, 0, 81, 52
1, 194731, Control_c, 0, 64, 48
1, 194746, Control_c, 0, 64, 38
1, 194761, Control_c, 0, 64, 34
1, 194775, Control_c, 0, 64, 36
1, 194780, Note_off_c, 0, 83, 62
1, 194790, Control_c, 0, 64, 46
1, 194802, Note_on_c, 0, 84, 82
1, 194805, Control_c, 0, 64, 54
1, 194820, Control_c, 0, 64, 60
1, 194829, Note_off_c, 0, 52, 65
1, 194835, Control_c, 0, 64, 64
1, 194850, Control_c, 0, 64, 67
1, 194862, Note_off_c, 0, 84, 65
1, 194864, Control_c, 0, 64, 69
1, 194879, Control_c, 0, 64, 69
1, 194892, Note_on_c, 0, 83, 80
1, 194894, Control_c, 0, 64, 70
1, 194961, Control_c, 0, 64, 69
1, 194975, Control_c, 0, 64, 65
1, 194979, Note_on_c, 0, 84, 83
1, 194985, Note_off_c, 0, 83, 62
1, 194990, Control_c, 0, 64, 60
1, 195005, Control_c, 0, 64, 52
1, 195020, Control_c, 0, 64, 49
1, 195035, Control_c, 0, 64, 51
1, 195049, Control_c, 0, 64, 55
1, 195056, Note_on_c, 0, 58, 65
1, 195056, Note_off_c, 0, 84, 65
1, 195064, Control_c, 0, 64, 60
1, 195072, Note_on_c, 0, 88, 79
1, 195079, Note_on_c, 0, 54, 23
1, 195079, Control_c, 0, 64, 63
1, 195094, Control_c, 0, 64, 65
1, 195108, Note_off_c, 0, 58, 63
1, 195109, Control_c, 0, 64, 66
1, 195121, Note_off_c, 0, 54, 39
1, 195123, Note_off_c, 0, 88, 64
1, 195123, Control_c, 0, 64, 67
1, 195130, Note_on_c, 0, 60, 76
1, 195145, Note_on_c, 0, 86, 81
1, 195153, Control_c, 0, 64, 63
1, 195168, Control_c, 0, 64, 56
1, 195182, Note_on_c, 0, 53, 29
1, 195183, Control_c, 0, 64, 51
1, 195192, Note_off_c, 0, 86, 52
1, 195198, Control_c, 0, 64, 54
1, 195201, Note_off_c, 0, 60, 59
1, 195209, Note_on_c, 0, 58, 75
1, 195213, Control_c, 0, 64, 60
1, 195219, Note_off_c, 0, 53, 58
1, 195222, Note_on_c, 0, 88, 84
1, 195228, Control_c, 0, 64, 65
1, 195243, Control_c, 0, 64, 68
1, 195258, Control_c, 0, 64, 69
1, 195271, Note_off_c, 0, 58, 66
1, 195272, Control_c, 0, 64, 69
1, 195279, Note_on_c, 0, 57, 75
1, 195287, Control_c, 0, 64, 63
1, 195302, Control_c, 0, 64, 55
1, 195316, Control_c, 0, 64, 50
1, 195318, Note_off_c, 0, 88, 66
1, 195320, Note_on_c, 0, 56, 42
1, 195327, Note_on_c, 0, 89, 84
1, 195331, Control_c, 0, 64, 51
1, 195346, Control_c, 0, 64, 53
1, 195353, Note_off_c, 0, 56, 59
1, 195353, Note_off_c, 0, 57, 65
1, 195361, Control_c, 0, 64, 56
1, 195364, Note_on_c, 0, 58, 70
1, 195376, Control_c, 0, 64, 60
1, 195390, Control_c, 0, 64, 62
1, 195405, Control_c, 0, 64, 63
1, 195420, Control_c, 0, 64, 60
1, 195424, Note_off_c, 0, 89, 66
1, 195435, Control_c, 0, 64, 53
1, 195440, Note_on_c, 0, 84, 78
1, 195450, Control_c, 0, 64, 48
1, 195465, Control_c, 0, 64, 48
1, 195473, Note_off_c, 0, 84, 65
1, 195474, Note_off_c, 0, 58, 65
1, 195479, Control_c, 0, 64, 50
1, 195494, Control_c, 0, 64, 51
1, 195509, Control_c, 0, 64, 50
1, 195520, Note_on_c, 0, 81, 79
1, 195523, Control_c, 0, 64, 47
1, 195538, Control_c, 0, 64, 42
1, 195553, Control_c, 0, 64, 38
1, 195561, Note_off_c, 0, 81, 61
1, 195568, Control_c, 0, 64, 39
1, 195583, Control_c, 0, 64, 46
1, 195589, Note_on_c, 0, 58, 76
1, 195592, Note_on_c, 0, 86, 80
1, 195598, Control_c, 0, 64, 56
1, 195613, Control_c, 0, 64, 61
1, 195628, Control_c, 0, 64, 63
1, 195656, Note_off_c, 0, 58, 65
1, 195672, Control_c, 0, 64, 60
1, 195681, Note_on_c, 0, 82, 74
1, 195687, Control_c, 0, 64, 55
1, 195709, Control_c, 0, 64, 48
1, 195713, Note_off_c, 0, 86, 63
1, 195723, Control_c, 0, 64, 44
1, 195738, Control_c, 0, 64, 42
1, 195744, Note_off_c, 0, 82, 63
1, 195753, Control_c, 0, 64, 41
1, 195762, Note_on_c, 0, 79, 81
1, 195768, Control_c, 0, 64, 39
1, 195783, Control_c, 0, 64, 37
1, 195797, Control_c, 0, 64, 38
1, 195812, Control_c, 0, 64, 46
1, 195824, Note_off_c, 0, 79, 65
1, 195827, Control_c, 0, 64, 57
1, 195842, Control_c, 0, 64, 64
1, 195852, Note_on_c, 0, 60, 78
1, 195852, Note_on_c, 0, 84, 81
1, 195857, Control_c, 0, 64, 66
1, 195872, Control_c, 0, 64, 68
1, 195887, Control_c, 0, 64, 69
1, 195898, Note_off_c, 0, 60, 60
1, 195931, Control_c, 0, 64, 65
1, 195932, Note_on_c, 0, 81, 77
1, 195937, Note_off_c, 0, 84, 65
1, 195946, Control_c, 0, 64, 58
1, 195961, Control_c, 0, 64, 49
1, 195976, Control_c, 0, 64, 42
1, 195984, Note_off_c, 0, 81, 64
1, 195991, Control_c, 0, 64, 39
1, 196012, Note_on_c, 0, 77, 76
1, 196036, Control_c, 0, 64, 40
1, 196051, Control_c, 0, 64, 44
1, 196066, Control_c, 0, 64, 52
1, 196081, Control_c, 0, 64, 60
1, 196083, Note_off_c, 0, 77, 56
1, 196095, Control_c, 0, 64, 64
1, 196105, Note_on_c, 0, 48, 68
1, 196110, Note_on_c, 0, 82, 73
1, 196110, Control_c, 0, 64, 66
1, 196125, Control_c, 0, 64, 68
1, 196140, Control_c, 0, 64, 70
1, 196145, Note_off_c, 0, 48, 64
1, 196169, Control_c, 0, 64, 68
1, 196184, Control_c, 0, 64, 62
1, 196199, Control_c, 0, 64, 49
1, 196200, Note_off_c, 0, 82, 64
1, 196200, Note_on_c, 0, 79, 70
1, 196213, Control_c, 0, 64, 34
1, 196228, Control_c, 0, 64, 0
1, 196257, Note_off_c, 0, 79, 66
1, 196280, Note_on_c, 0, 76, 70
1, 196382, Note_off_c, 0, 76, 62
1, 196396, Note_on_c, 0, 77, 68
1, 196409, Note_on_c, 0, 53, 52
1, 196420, Control_c, 0, 64, 33
1, 196435, Control_c, 0, 64, 47
1, 196458, Control_c, 0, 64, 57
1, 196472, Control_c, 0, 64, 63
1, 196487, Control_c, 0, 64, 67
1, 196502, Control_c, 0, 64, 72
1, 196517, Control_c, 0, 64, 76
1, 196532, Control_c, 0, 64, 77
1, 196534, Note_off_c, 0, 77, 60
1, 196591, Control_c, 0, 64, 77
1, 196606, Control_c, 0, 64, 76
1, 196621, Control_c, 0, 64, 75
1, 196636, Control_c, 0, 64, 74
1, 196651, Control_c, 0, 64, 72
1, 196666, Control_c, 0, 64, 69
1, 196680, Control_c, 0, 64, 67
1, 196695, Control_c, 0, 64, 65
1, 196710, Control_c, 0, 64, 64
1, 196713, Note_on_c, 0, 81, 71
1, 196725, Control_c, 0, 64, 64
1, 196740, Control_c, 0, 64, 63
1, 196754, Note_off_c, 0, 53, 37
1, 196754, Control_c, 0, 64, 61
1, 196770, Control_c, 0, 64, 60
1, 196785, Control_c, 0, 64, 60
1, 196796, Note_on_c, 0, 79, 72
1, 196814, Note_off_c, 0, 81, 56
1, 196815, Control_c, 0, 64, 59
1, 196830, Control_c, 0, 64, 57
1, 196844, Control_c, 0, 64, 56
1, 196874, Control_c, 0, 64, 57
1, 196877, Note_on_c, 0, 77, 76
1, 196903, Control_c, 0, 64, 56
1, 196915, Note_off_c, 0, 79, 55
1, 196948, Control_c, 0, 64, 56
1, 196957, Note_on_c, 0, 76, 81
1, 196961, Note_off_c, 0, 77, 64
1, 196963, Control_c, 0, 64, 57
1, 196978, Control_c, 0, 64, 56
1, 196993, Control_c, 0, 64, 56
1, 197017, Note_off_c, 0, 76, 65
1, 197038, Control_c, 0, 64, 56
1, 197039, Note_on_c, 0, 74, 74
1, 197067, Control_c, 0, 64, 56
1, 197113, Note_on_c, 0, 72, 75
1, 197126, Control_c, 0, 64, 55
1, 197129, Note_off_c, 0, 74, 64
1, 197141, Control_c, 0, 64, 54
1, 197193, Control_c, 0, 64, 56
1, 197202, Note_off_c, 0, 72, 62
1, 197207, Control_c, 0, 64, 58
1, 197209, Note_on_c, 0, 65, 67
1, 197211, Note_on_c, 0, 68, 72
1, 197211, Note_on_c, 0, 71, 77
1, 197222, Control_c, 0, 64, 60
1, 197237, Control_c, 0, 64, 61
1, 197255, Note_off_c, 0, 65, 61
1, 197267, Control_c, 0, 64, 60
1, 197273, Note_off_c, 0, 68, 62
1, 197282, Control_c, 0, 64, 55
1, 197291, Note_off_c, 0, 71, 63
1, 197296, Control_c, 0, 64, 51
1, 197301, Note_on_c, 0, 74, 77
1, 197311, Control_c, 0, 64, 48
1, 197326, Control_c, 0, 64, 47
1, 197341, Control_c, 0, 64, 44
1, 197356, Control_c, 0, 64, 37
1, 197371, Control_c, 0, 64, 28
1, 197383, Note_off_c, 0, 74, 64
1, 197385, Control_c, 0, 64, 24
1, 197386, Note_on_c, 0, 71, 77
1, 197400, Control_c, 0, 64, 21
1, 197415, Control_c, 0, 64, 0
1, 197443, Note_off_c, 0, 71, 63
1, 197459, Note_on_c, 0, 64, 72
1, 197461, Note_on_c, 0, 67, 73
1, 197465, Note_on_c, 0, 74, 75
1, 197495, Note_off_c, 0, 64, 66
1, 197508, Note_off_c, 0, 67, 59
1, 197547, Note_on_c, 0, 72, 74
1, 197574, Note_off_c, 0, 74, 63
1, 197612, Note_off_c, 0, 72, 63
1, 197626, Note_on_c, 0, 69, 71
1, 197705, Note_on_c, 0, 65, 71
1, 197706, Note_on_c, 0, 72, 75
1, 197711, Note_off_c, 0, 69, 65
1, 197714, Note_on_c, 0, 62, 66
1, 197735, Note_off_c, 0, 65, 65
1, 197747, Note_off_c, 0, 62, 67
1, 197782, Note_off_c, 0, 72, 61
1, 197800, Note_on_c, 0, 70, 68
1, 197850, Note_off_c, 0, 70, 61
1, 197866, Note_on_c, 0, 67, 72
1, 197959, Note_on_c, 0, 64, 63
1, 197960, Note_on_c, 0, 60, 61
1, 197960, Note_on_c, 0, 70, 70
1, 197964, Note_off_c, 0, 67, 62
1, 197994, Note_off_c, 0, 64, 65
1, 197997, Note_off_c, 0, 60, 63
1, 198035, Note_off_c, 0, 70, 62
1, 198037, Note_on_c, 0, 69, 76
1, 198096, Note_off_c, 0, 69, 66
1, 198124, Note_on_c, 0, 65, 72
1, 198203, Note_off_c, 0, 65, 61
1, 198205, Note_on_c, 0, 62, 68
1, 198205, Note_on_c, 0, 69, 72
1, 198208, Note_on_c, 0, 58, 59
1, 198237, Note_off_c, 0, 62, 66
1, 198241, Note_off_c, 0, 58, 65
1, 198290, Note_off_c, 0, 69, 61
1, 198298, Note_on_c, 0, 67, 68
1, 198356, Note_off_c, 0, 67, 63
1, 198376, Note_on_c, 0, 64, 67
1, 198483, Note_off_c, 0, 64, 57
1, 198488, Note_on_c, 0, 65, 70
1, 198510, Note_on_c, 0, 60, 55
1, 198519, Note_on_c, 0, 57, 42
1, 198520, Control_c, 0, 64, 21
1, 198535, Control_c, 0, 64, 45
1, 198549, Control_c, 0, 64, 56
1, 198556, Note_off_c, 0, 65, 62
1, 198564, Control_c, 0, 64, 59
1, 198565, Note_off_c, 0, 57, 58
1, 198579, Control_c, 0, 64, 61
1, 198594, Note_off_c, 0, 60, 59
1, 198594, Control_c, 0, 64, 63
1, 198609, Control_c, 0, 64, 65
1, 198623, Control_c, 0, 64, 66
1, 198638, Control_c, 0, 64, 68
1, 198653, Control_c, 0, 64, 69
1, 198668, Control_c, 0, 64, 70
1, 198749, Control_c, 0, 64, 69
1, 198764, Control_c, 0, 64, 68
1, 198779, Control_c, 0, 64, 67
1, 198794, Control_c, 0, 64, 66
1, 198796, Note_on_c, 0, 68, 70
1, 198809, Control_c, 0, 64, 66
1, 198823, Control_c, 0, 64, 65
1, 198853, Note_off_c, 0, 68, 62
1, 198868, Control_c, 0, 64, 65
1, 198881, Note_on_c, 0, 67, 76
1, 198883, Control_c, 0, 64, 64
1, 198898, Control_c, 0, 64, 64
1, 198913, Control_c, 0, 64, 63
1, 198919, Note_off_c, 0, 67, 55
1, 198951, Note_on_c, 0, 65, 74
1, 198957, Control_c, 0, 64, 62
1, 198972, Control_c, 0, 64, 61
1, 199026, Note_off_c, 0, 65, 62
1, 199031, Control_c, 0, 64, 61
1, 199042, Note_on_c, 0, 63, 67
1, 199046, Control_c, 0, 64, 60
1, 199061, Control_c, 0, 64, 59
1, 199090, Control_c, 0, 64, 58
1, 199105, Control_c, 0, 64, 56
1, 199108, Note_off_c, 0, 63, 64
1, 199116, Note_on_c, 0, 61, 64
1, 199120, Control_c, 0, 64, 52
1, 199135, Control_c, 0, 64, 48
1, 199149, Control_c, 0, 64, 45
1, 199163, Note_off_c, 0, 61, 63
1, 199165, Control_c, 0, 64, 41
1, 199180, Control_c, 0, 64, 33
1, 199188, Note_on_c, 0, 60, 66
1, 199195, Control_c, 0, 64, 25
1, 199210, Control_c, 0, 64, 23
1, 199225, Control_c, 0, 64, 24
1, 199239, Control_c, 0, 64, 25
1, 199254, Control_c, 0, 64, 25
1, 199265, Note_off_c, 0, 60, 54
1, 199269, Control_c, 0, 64, 27
1, 199278, Note_on_c, 0, 59, 67
1, 199279, Note_on_c, 0, 77, 73
1, 199284, Control_c, 0, 64, 32
1, 199285, Note_on_c, 0, 68, 65
1, 199298, Control_c, 0, 64, 41
1, 199313, Control_c, 0, 64, 48
1, 199328, Control_c, 0, 64, 47
1, 199340, Note_off_c, 0, 59, 65
1, 199343, Control_c, 0, 64, 46
1, 199358, Control_c, 0, 64, 46
1, 199375, Note_on_c, 0, 62, 73
1, 199402, Control_c, 0, 64, 44
1, 199417, Control_c, 0, 64, 41
1, 199432, Control_c, 0, 64, 40
1, 199451, Note_off_c, 0, 62, 62
1, 199461, Note_on_c, 0, 59, 71
1, 199469, Control_c, 0, 64, 39
1, 199484, Control_c, 0, 64, 36
1, 199498, Control_c, 0, 64, 35
1, 199513, Control_c, 0, 64, 36
1, 199514, Note_off_c, 0, 68, 65
1, 199517, Note_off_c, 0, 59, 66
1, 199528, Control_c, 0, 64, 41
1, 199538, Note_on_c, 0, 67, 78
1, 199543, Control_c, 0, 64, 49
1, 199553, Note_on_c, 0, 62, 73
1, 199558, Control_c, 0, 64, 54
1, 199572, Control_c, 0, 64, 55
1, 199619, Note_off_c, 0, 62, 54
1, 199623, Note_on_c, 0, 60, 70
1, 199631, Control_c, 0, 64, 54
1, 199646, Control_c, 0, 64, 52
1, 199661, Control_c, 0, 64, 49
1, 199676, Control_c, 0, 64, 47
1, 199690, Control_c, 0, 64, 44
1, 199698, Note_off_c, 0, 60, 55
1, 199705, Control_c, 0, 64, 35
1, 199717, Note_on_c, 0, 57, 71
1, 199720, Control_c, 0, 64, 20
1, 199735, Control_c, 0, 64, 12
1, 199750, Control_c, 0, 64, 12
1, 199764, Control_c, 0, 64, 19
1, 199777, Note_off_c, 0, 57, 63
1, 199779, Control_c, 0, 64, 25
1, 199783, Note_on_c, 0, 76, 80
1, 199794, Control_c, 0, 64, 31
1, 199805, Note_off_c, 0, 77, 40
1, 199806, Note_on_c, 0, 60, 75
1, 199809, Control_c, 0, 64, 39
1, 199824, Control_c, 0, 64, 51
1, 199838, Control_c, 0, 64, 59
1, 199852, Note_off_c, 0, 76, 64
1, 199853, Control_c, 0, 64, 63
1, 199866, Note_off_c, 0, 60, 54
1, 199868, Control_c, 0, 64, 64
1, 199871, Note_on_c, 0, 58, 75
1, 199883, Control_c, 0, 64, 64
1, 199897, Control_c, 0, 64, 65
1, 199912, Control_c, 0, 64, 65
1, 199927, Control_c, 0, 64, 66
1, 199942, Note_off_c, 0, 58, 65
1, 199968, Note_on_c, 0, 55, 67
1, 199987, Control_c, 0, 64, 63
1, 200002, Control_c, 0, 64, 53
1, 200017, Note_off_c, 0, 55, 61
1, 200017, Control_c, 0, 64, 35
1, 200032, Control_c, 0, 64, 27
1, 200042, Note_on_c, 0, 58, 76
1, 200044, Note_on_c, 0, 77, 79
1, 200047, Control_c, 0, 64, 28
1, 200060, Note_on_c, 0, 72, 67
1, 200062, Control_c, 0, 64, 37
1, 200063, Note_off_c, 0, 67, 35
1, 200076, Control_c, 0, 64, 49
1, 200091, Control_c, 0, 64, 58
1, 200099, Note_off_c, 0, 77, 64
1, 200106, Control_c, 0, 64, 62
1, 200110, Note_off_c, 0, 58, 62
1, 200120, Control_c, 0, 64, 64
1, 200123, Note_off_c, 0, 72, 60
1, 200130, Note_on_c, 0, 57, 70
1, 200135, Control_c, 0, 64, 65
1, 200150, Control_c, 0, 64, 66
1, 200165, Control_c, 0, 64, 67
1, 200180, Control_c, 0, 64, 68
1, 200201, Note_off_c, 0, 57, 55
1, 200207, Note_on_c, 0, 72, 5
1, 200227, Note_on_c, 0, 53, 69
1, 200247, Control_c, 0, 64, 67
1, 200262, Control_c, 0, 64, 61
1, 200268, Note_on_c, 0, 54, 5
1, 200276, Control_c, 0, 64, 50
1, 200291, Control_c, 0, 64, 36
1, 200306, Control_c, 0, 64, 25
1, 200311, Note_off_c, 0, 53, 60
1, 200314, Note_off_c, 0, 72, 0
1, 200315, Note_on_c, 0, 79, 79
1, 200317, Note_off_c, 0, 54, 26
1, 200318, Note_on_c, 0, 57, 74
1, 200325, Note_on_c, 0, 70, 70
1, 200335, Control_c, 0, 64, 35
1, 200350, Control_c, 0, 64, 46
1, 200366, Control_c, 0, 64, 54
1, 200379, Poly_aftertouch_c, 0, 72, 0
1, 200381, Control_c, 0, 64, 59
1, 200391, Note_off_c, 0, 70, 59
1, 200392, Note_off_c, 0, 57, 62
1, 200395, Control_c, 0, 64, 62
1, 200401, Note_on_c, 0, 55, 64
1, 200410, Control_c, 0, 64, 65
1, 200422, Note_off_c, 0, 79, 62
1, 200425, Control_c, 0, 64, 67
1, 200440, Control_c, 0, 64, 68
1, 200455, Control_c, 0, 64, 69
1, 200464, Note_off_c, 0, 55, 59
1, 200478, Note_on_c, 0, 52, 70
1, 200528, Control_c, 0, 64, 65
1, 200543, Control_c, 0, 64, 54
1, 200558, Control_c, 0, 64, 25
1, 200573, Control_c, 0, 64, 0
1, 200606, Note_on_c, 0, 81, 76
1, 200615, Note_on_c, 0, 72, 61
1, 200618, Note_off_c, 0, 52, 63
1, 200622, Note_on_c, 0, 53, 60
1, 200626, Note_on_c, 0, 69, 63
1, 200633, Control_c, 0, 64, 23
1, 200647, Control_c, 0, 64, 44
1, 200662, Control_c, 0, 64, 56
1, 200662, Note_off_c, 0, 69, 62
1, 200673, Note_off_c, 0, 72, 63
1, 200677, Control_c, 0, 64, 61
1, 200692, Control_c, 0, 64, 63
1, 200707, Control_c, 0, 64, 64
1, 200709, Note_off_c, 0, 81, 59
1, 200721, Control_c, 0, 64, 66
1, 200736, Control_c, 0, 64, 67
1, 200751, Control_c, 0, 64, 68
1, 200812, Note_off_c, 0, 53, 60
1, 200856, Control_c, 0, 64, 67
1, 200871, Control_c, 0, 64, 66
1, 200885, Control_c, 0, 64, 65
1, 200893, Note_on_c, 0, 84, 74
1, 200900, Control_c, 0, 64, 64
1, 200915, Control_c, 0, 64, 62
1, 200937, Control_c, 0, 64, 56
1, 200951, Control_c, 0, 64, 52
1, 200966, Control_c, 0, 64, 50
1, 200981, Note_on_c, 0, 82, 76
1, 200999, Note_off_c, 0, 84, 57
1, 201011, Control_c, 0, 64, 50
1, 201026, Control_c, 0, 64, 49
1, 201041, Control_c, 0, 64, 48
1, 201052, Note_on_c, 0, 81, 78
1, 201096, Note_off_c, 0, 82, 63
1, 201100, Control_c, 0, 64, 48
1, 201115, Control_c, 0, 64, 49
1, 201133, Note_on_c, 0, 79, 77
1, 201134, Note_off_c, 0, 81, 64
1, 201144, Control_c, 0, 64, 48
1, 201186, Note_off_c, 0, 79, 65
1, 201189, Control_c, 0, 64, 49
1, 201203, Note_on_c, 0, 77, 74
1, 201248, Control_c, 0, 64, 49
1, 201262, Control_c, 0, 64, 50
1, 201273, Note_on_c, 0, 76, 81
1, 201277, Control_c, 0, 64, 50
1, 201280, Note_off_c, 0, 77, 61
1, 201292, Control_c, 0, 64, 49
1, 201307, Control_c, 0, 64, 49
1, 201336, Note_off_c, 0, 76, 64
1, 201351, Note_on_c, 0, 77, 59
1, 201354, Note_on_c, 0, 57, 68
1, 201354, Note_on_c, 0, 65, 65
1, 201366, Control_c, 0, 64, 48
1, 201381, Control_c, 0, 64, 48
1, 201397, Note_off_c, 0, 65, 63
1, 201399, Note_off_c, 0, 57, 61
1, 201419, Note_off_c, 0, 77, 63
1, 201425, Control_c, 0, 64, 46
1, 201440, Control_c, 0, 64, 41
1, 201441, Note_on_c, 0, 75, 67
1, 201455, Control_c, 0, 64, 33
1, 201470, Control_c, 0, 64, 25
1, 201485, Control_c, 0, 64, 11
1, 201500, Control_c, 0, 64, 0
1, 201509, Note_off_c, 0, 75, 65
1, 201515, Note_on_c, 0, 73, 71
1, 201582, Note_off_c, 0, 73, 63
1, 201608, Note_on_c, 0, 74, 66
1, 201617, Note_on_c, 0, 65, 61
1, 201619, Control_c, 0, 64, 32
1, 201625, Note_on_c, 0, 58, 59
1, 201634, Control_c, 0, 64, 49
1, 201649, Control_c, 0, 64, 60
1, 201659, Note_off_c, 0, 58, 67
1, 201664, Control_c, 0, 64, 64
1, 201679, Control_c, 0, 64, 65
1, 201694, Note_off_c, 0, 65, 63
1, 201700, Control_c, 0, 64, 66
1, 201715, Note_off_c, 0, 74, 61
1, 201715, Control_c, 0, 64, 69
1, 201730, Control_c, 0, 64, 75
1, 201745, Control_c, 0, 64, 77
1, 201789, Control_c, 0, 64, 76
1, 201804, Control_c, 0, 64, 75
1, 201819, Control_c, 0, 64, 71
1, 201834, Control_c, 0, 64, 66
1, 201849, Control_c, 0, 64, 63
1, 201864, Control_c, 0, 64, 60
1, 201879, Control_c, 0, 64, 60
1, 201893, Control_c, 0, 64, 59
1, 201908, Control_c, 0, 64, 59
1, 201910, Note_on_c, 0, 74, 71
1, 201923, Control_c, 0, 64, 58
1, 201938, Control_c, 0, 64, 58
1, 201967, Control_c, 0, 64, 57
1, 201972, Note_off_c, 0, 74, 55
1, 201980, Note_on_c, 0, 72, 75
1, 201982, Control_c, 0, 64, 54
1, 201997, Control_c, 0, 64, 53
1, 202027, Control_c, 0, 64, 54
1, 202038, Note_off_c, 0, 72, 55
1, 202041, Control_c, 0, 64, 53
1, 202056, Control_c, 0, 64, 51
1, 202065, Note_on_c, 0, 70, 69
1, 202071, Control_c, 0, 64, 51
1, 202100, Control_c, 0, 64, 51
1, 202115, Control_c, 0, 64, 51
1, 202120, Note_off_c, 0, 70, 64
1, 202130, Control_c, 0, 64, 49
1, 202144, Note_on_c, 0, 69, 75
1, 202145, Control_c, 0, 64, 49
1, 202174, Control_c, 0, 64, 48
1, 202189, Control_c, 0, 64, 45
1, 202204, Control_c, 0, 64, 41
1, 202214, Note_off_c, 0, 69, 64
1, 202215, Note_on_c, 0, 67, 71
1, 202219, Control_c, 0, 64, 40
1, 202248, Control_c, 0, 64, 37
1, 202263, Control_c, 0, 64, 28
1, 202278, Control_c, 0, 64, 17
1, 202293, Note_on_c, 0, 66, 73
1, 202293, Control_c, 0, 64, 12
1, 202293, Note_off_c, 0, 67, 61
1, 202308, Control_c, 0, 64, 12
1, 202323, Control_c, 0, 64, 11
1, 202352, Control_c, 0, 64, 13
1, 202365, Note_off_c, 0, 66, 63
1, 202368, Control_c, 0, 64, 30
1, 202382, Note_on_c, 0, 67, 66
1, 202382, Note_on_c, 0, 83, 77
1, 202382, Control_c, 0, 64, 49
1, 202392, Note_on_c, 0, 79, 70
1, 202397, Control_c, 0, 64, 60
1, 202412, Control_c, 0, 64, 62
1, 202450, Control_c, 0, 64, 62
1, 202456, Note_off_c, 0, 67, 59
1, 202464, Control_c, 0, 64, 63
1, 202466, Note_on_c, 0, 65, 66
1, 202467, Note_off_c, 0, 79, 64
1, 202509, Control_c, 0, 64, 62
1, 202523, Control_c, 0, 64, 59
1, 202538, Control_c, 0, 64, 50
1, 202543, Note_off_c, 0, 65, 62
1, 202553, Note_on_c, 0, 63, 64
1, 202553, Control_c, 0, 64, 32
1, 202568, Control_c, 0, 64, 0
1, 202648, Note_off_c, 0, 63, 64
1, 202657, Note_off_c, 0, 83, 57
1, 202661, Note_on_c, 0, 84, 81
1, 202671, Control_c, 0, 64, 32
1, 202674, Note_on_c, 0, 79, 68
1, 202675, Note_on_c, 0, 64, 69
1, 202686, Control_c, 0, 64, 48
1, 202701, Note_off_c, 0, 84, 62
1, 202701, Control_c, 0, 64, 57
1, 202712, Note_off_c, 0, 79, 61
1, 202716, Control_c, 0, 64, 62
1, 202731, Control_c, 0, 64, 65
1, 202746, Control_c, 0, 64, 66
1, 202761, Control_c, 0, 64, 68
1, 202776, Control_c, 0, 64, 69
1, 202790, Control_c, 0, 64, 70
1, 202809, Note_off_c, 0, 64, 46
1, 202850, Control_c, 0, 67, 10
1, 202864, Control_c, 0, 67, 14
1, 202879, Control_c, 0, 67, 15
1, 202923, Control_c, 0, 64, 69
1, 202923, Control_c, 0, 67, 16
1, 202938, Control_c, 0, 64, 66
1, 202938, Control_c, 0, 67, 19
1, 202946, Note_on_c, 0, 60, 76
1, 202953, Control_c, 0, 64, 63
1, 202953, Control_c, 0, 67, 24
1, 202968, Control_c, 0, 64, 58
1, 202968, Control_c, 0, 67, 29
1, 202982, Control_c, 0, 64, 54
1, 202982, Control_c, 0, 67, 32
1, 202997, Control_c, 0, 64, 52
1, 203007, Note_off_c, 0, 60, 62
1, 203012, Control_c, 0, 64, 50
1, 203025, Note_on_c, 0, 64, 71
1, 203027, Control_c, 0, 64, 45
1, 203027, Control_c, 0, 67, 33
1, 203042, Control_c, 0, 64, 37
1, 203042, Control_c, 0, 67, 33
1, 203056, Control_c, 0, 64, 30
1, 203056, Control_c, 0, 67, 35
1, 203060, Note_off_c, 0, 64, 65
1, 203071, Control_c, 0, 64, 25
1, 203071, Control_c, 0, 67, 36
1, 203086, Control_c, 0, 64, 0
1, 203098, Note_on_c, 0, 67, 81
1, 203101, Control_c, 0, 67, 36
1, 203116, Control_c, 0, 67, 37
1, 203195, Note_off_c, 0, 67, 60
1, 203196, Note_on_c, 0, 72, 79
1, 203213, Control_c, 0, 67, 37
1, 203258, Control_c, 0, 67, 38
1, 203277, Note_on_c, 0, 76, 69
1, 203286, Note_off_c, 0, 72, 61
1, 203346, Control_c, 0, 67, 38
1, 203350, Note_off_c, 0, 76, 62
1, 203354, Note_on_c, 0, 79, 73
1, 203390, Control_c, 0, 67, 39
1, 203405, Control_c, 0, 67, 43
1, 203420, Control_c, 0, 67, 48
1, 203435, Control_c, 0, 67, 50
1, 203441, Note_on_c, 0, 53, 67
1, 203447, Note_on_c, 0, 55, 60
1, 203448, Note_off_c, 0, 79, 61
1, 203449, Note_on_c, 0, 77, 68
1, 203449, Control_c, 0, 67, 51
1, 203470, Note_off_c, 0, 53, 63
1, 203479, Control_c, 0, 67, 51
1, 203481, Note_off_c, 0, 55, 63
1, 203494, Control_c, 0, 67, 52
1, 203503, Note_off_c, 0, 77, 64
1, 203509, Control_c, 0, 67, 53
1, 203515, Note_on_c, 0, 74, 68
1, 203524, Control_c, 0, 67, 55
1, 203568, Control_c, 0, 67, 56
1, 203570, Note_off_c, 0, 74, 65
1, 203583, Control_c, 0, 67, 56
1, 203599, Note_on_c, 0, 71, 65
1, 203671, Control_c, 0, 67, 57
1, 203684, Note_off_c, 0, 71, 61
1, 203709, Note_on_c, 0, 55, 52
1, 203711, Note_on_c, 0, 72, 70
1, 203713, Note_on_c, 0, 52, 51
1, 203730, Control_c, 0, 67, 56
1, 203745, Control_c, 0, 64, 44
1, 203759, Note_off_c, 0, 72, 57
1, 203760, Control_c, 0, 64, 57
1, 203760, Control_c, 0, 67, 57
1, 203775, Control_c, 0, 64, 61
1, 203775, Control_c, 0, 67, 57
1, 203790, Control_c, 0, 64, 62
1, 203790, Control_c, 0, 67, 60
1, 203804, Control_c, 0, 64, 64
1, 203804, Control_c, 0, 67, 62
1, 203819, Control_c, 0, 64, 66
1, 203819, Control_c, 0, 67, 64
1, 203834, Control_c, 0, 64, 68
1, 203849, Control_c, 0, 64, 68
1, 203849, Control_c, 0, 67, 64
1, 203864, Control_c, 0, 67, 65
1, 203870, Note_off_c, 0, 55, 60
1, 203879, Control_c, 0, 64, 69
1, 203879, Note_off_c, 0, 52, 57
1, 203894, Control_c, 0, 67, 67
1, 203909, Control_c, 0, 67, 68
1, 203923, Control_c, 0, 64, 68
1, 203923, Control_c, 0, 67, 69
1, 203945, Control_c, 0, 64, 68
1, 203945, Control_c, 0, 67, 69
1, 203961, Control_c, 0, 64, 66
1, 203961, Control_c, 0, 67, 72
1, 203976, Control_c, 0, 64, 62
1, 203976, Control_c, 0, 67, 75
1, 203980, Note_on_c, 0, 60, 67
1, 203991, Control_c, 0, 64, 53
1, 203991, Control_c, 0, 67, 77
1, 204006, Control_c, 0, 64, 31
1, 204006, Control_c, 0, 67, 79
1, 204021, Control_c, 0, 64, 0
1, 204021, Control_c, 0, 67, 79
1, 204031, Note_off_c, 0, 60, 56
1, 204035, Control_c, 0, 67, 80
1, 204050, Control_c, 0, 67, 80
1, 204058, Note_on_c, 0, 64, 70
1, 204065, Control_c, 0, 67, 83
1, 204080, Control_c, 0, 67, 88
1, 204084, Note_off_c, 0, 64, 67
1, 204094, Control_c, 0, 67, 93
1, 204110, Control_c, 0, 67, 95
1, 204142, Note_on_c, 0, 67, 71
1, 204169, Control_c, 0, 67, 96
1, 204184, Control_c, 0, 67, 96
1, 204199, Control_c, 0, 67, 97
1, 204211, Note_off_c, 0, 67, 58
1, 204214, Control_c, 0, 67, 97
1, 204224, Note_on_c, 0, 72, 72
1, 204229, Control_c, 0, 67, 97
1, 204291, Note_off_c, 0, 72, 61
1, 204308, Note_on_c, 0, 76, 63
1, 204371, Note_off_c, 0, 76, 62
1, 204378, Note_on_c, 0, 79, 69
1, 204406, Control_c, 0, 67, 97
1, 204421, Control_c, 0, 67, 99
1, 204436, Control_c, 0, 67, 100
1, 204451, Control_c, 0, 67, 102
1, 204463, Note_off_c, 0, 79, 62
1, 204474, Note_on_c, 0, 53, 60
1, 204478, Note_on_c, 0, 55, 58
1, 204478, Note_on_c, 0, 77, 64
1, 204481, Note_on_c, 0, 50, 55
1, 204509, Note_off_c, 0, 53, 62
1, 204512, Note_off_c, 0, 50, 65
1, 204517, Note_off_c, 0, 55, 63
1, 204525, Control_c, 0, 67, 103
1, 204526, Note_off_c, 0, 77, 61
1, 204540, Control_c, 0, 67, 103
1, 204552, Note_on_c, 0, 74, 54
1, 204584, Control_c, 0, 67, 103
1, 204613, Note_off_c, 0, 74, 65
1, 204614, Control_c, 0, 67, 104
1, 204628, Control_c, 0, 67, 106
1, 204634, Note_on_c, 0, 71, 60
1, 204643, Control_c, 0, 67, 109
1, 204658, Control_c, 0, 67, 110
1, 204713, Note_off_c, 0, 71, 58
1, 204739, Note_on_c, 0, 72, 61
1, 204743, Note_on_c, 0, 55, 47
1, 204749, Note_on_c, 0, 52, 49
1, 204751, Note_on_c, 0, 48, 45
1, 204770, Control_c, 0, 67, 109
1, 204785, Control_c, 0, 67, 109
1, 204811, Note_off_c, 0, 72, 58
1, 204825, Note_on_c, 0, 76, 67
1, 204859, Control_c, 0, 67, 108
1, 204874, Control_c, 0, 67, 107
1, 204897, Note_off_c, 0, 76, 62
1, 204904, Control_c, 0, 67, 108
1, 204916, Note_on_c, 0, 79, 66
1, 204948, Control_c, 0, 67, 107
1, 204963, Control_c, 0, 67, 107
1, 204978, Control_c, 0, 67, 107
1, 204992, Control_c, 0, 67, 108
1, 204994, Note_off_c, 0, 52, 61
1, 204998, Note_off_c, 0, 48, 46
1, 205000, Note_off_c, 0, 79, 62
1, 205001, Note_on_c, 0, 50, 56
1, 205006, Note_on_c, 0, 53, 55
1, 205011, Note_on_c, 0, 77, 63
1, 205066, Control_c, 0, 67, 107
1, 205077, Note_off_c, 0, 77, 64
1, 205096, Note_on_c, 0, 74, 58
1, 205096, Note_off_c, 0, 55, 62
1, 205096, Control_c, 0, 67, 108
1, 205155, Control_c, 0, 67, 107
1, 205156, Note_off_c, 0, 74, 63
1, 205170, Control_c, 0, 67, 108
1, 205184, Note_on_c, 0, 71, 56
1, 205184, Control_c, 0, 67, 110
1, 205199, Control_c, 0, 67, 110
1, 205214, Control_c, 0, 67, 111
1, 205234, Note_off_c, 0, 50, 34
1, 205257, Note_off_c, 0, 71, 62
1, 205259, Control_c, 0, 67, 110
1, 205274, Control_c, 0, 67, 110
1, 205274, Note_on_c, 0, 48, 38
1, 205275, Note_on_c, 0, 72, 52
1, 205277, Note_on_c, 0, 52, 43
1, 205279, Note_off_c, 0, 53, 55
1, 205281, Note_on_c, 0, 55, 47
1, 205303, Control_c, 0, 67, 109
1, 205318, Control_c, 0, 67, 108
1, 205333, Control_c, 0, 67, 107
1, 205333, Note_off_c, 0, 72, 59
1, 205355, Note_on_c, 0, 76, 59
1, 205363, Control_c, 0, 67, 108
1, 205407, Control_c, 0, 67, 107
1, 205422, Control_c, 0, 67, 107
1, 205427, Note_off_c, 0, 76, 63
1, 205444, Control_c, 0, 67, 107
1, 205458, Note_on_c, 0, 79, 62
1, 205459, Control_c, 0, 67, 108
1, 205473, Control_c, 0, 67, 109
1, 205518, Control_c, 0, 67, 108
1, 205533, Note_off_c, 0, 79, 59
1, 205533, Control_c, 0, 67, 108
1, 205546, Note_off_c, 0, 48, 56
1, 205548, Control_c, 0, 67, 108
1, 205555, Note_on_c, 0, 50, 53
1, 205557, Note_off_c, 0, 52, 51
1, 205557, Note_on_c, 0, 77, 50
1, 205563, Control_c, 0, 67, 109
1, 205566, Note_on_c, 0, 53, 45
1, 205578, Control_c, 0, 67, 109
1, 205583, Note_off_c, 0, 55, 55
1, 205608, Control_c, 0, 67, 109
1, 205620, Note_off_c, 0, 77, 64
1, 205621, Control_c, 0, 67, 108
1, 205636, Control_c, 0, 67, 109
1, 205640, Note_on_c, 0, 74, 47
1, 205651, Control_c, 0, 67, 110
1, 205666, Control_c, 0, 67, 110
1, 205687, Note_off_c, 0, 74, 59
1, 205710, Control_c, 0, 67, 110
1, 205725, Control_c, 0, 67, 109
1, 205726, Note_on_c, 0, 71, 53
1, 205754, Control_c, 0, 67, 110
1, 205786, Note_off_c, 0, 50, 33
1, 205799, Control_c, 0, 67, 108
1, 205813, Control_c, 0, 67, 106
1, 205819, Note_off_c, 0, 71, 53
1, 205828, Control_c, 0, 67, 104
1, 205841, Note_on_c, 0, 48, 40
1, 205843, Control_c, 0, 67, 101
1, 205845, Note_on_c, 0, 72, 51
1, 205846, Note_on_c, 0, 55, 47
1, 205847, Note_on_c, 0, 52, 47
1, 205847, Note_off_c, 0, 53, 30
1, 205858, Control_c, 0, 64, 37
1, 205858, Control_c, 0, 67, 97
1, 205873, Control_c, 0, 64, 57
1, 205873, Control_c, 0, 67, 91
1, 205888, Control_c, 0, 64, 64
1, 205888, Control_c, 0, 67, 80
1, 205894, Note_off_c, 0, 55, 60
1, 205900, Note_off_c, 0, 52, 57
1, 205903, Control_c, 0, 64, 67
1, 205903, Control_c, 0, 67, 63
1, 205918, Control_c, 0, 64, 74
1, 205918, Control_c, 0, 67, 37
1, 205932, Note_off_c, 0, 48, 48
1, 205932, Control_c, 0, 64, 87
1, 205932, Control_c, 0, 67, 0
1, 205939, Note_off_c, 0, 72, 61
1, 205947, Control_c, 0, 64, 124
1, 205962, Control_c, 0, 64, 127
1, 206095, Control_c, 0, 64, 89
1, 206110, Control_c, 0, 64, 62
1, 206124, Control_c, 0, 64, 0
1, 206126, Note_on_c, 0, 36, 85
1, 206180, Note_off_c, 0, 36, 65
1, 206421, Note_on_c, 0, 38, 79
1, 206475, Note_off_c, 0, 38, 62
1, 206696, Control_c, 0, 64, 31
1, 206705, Note_on_c, 0, 40, 78
1, 206711, Control_c, 0, 64, 36
1, 206725, Control_c, 0, 64, 40
1, 206740, Control_c, 0, 64, 44
1, 206755, Control_c, 0, 64, 45
1, 206755, Note_off_c, 0, 40, 59
1, 206770, Control_c, 0, 64, 43
1, 206785, Control_c, 0, 64, 38
1, 206800, Control_c, 0, 64, 32
1, 206815, Control_c, 0, 64, 30
1, 206829, Control_c, 0, 64, 28
1, 206844, Control_c, 0, 64, 19
1, 206859, Control_c, 0, 64, 0
1, 206888, Control_c, 0, 64, 10
1, 206903, Control_c, 0, 64, 14
1, 206918, Control_c, 0, 64, 13
1, 206940, Control_c, 0, 64, 12
1, 206955, Control_c, 0, 64, 18
1, 206970, Control_c, 0, 64, 37
1, 206985, Control_c, 0, 64, 51
1, 206989, Note_on_c, 0, 41, 79
1, 207000, Control_c, 0, 64, 57
1, 207015, Control_c, 0, 64, 60
1, 207022, Note_off_c, 0, 41, 66
1, 207029, Control_c, 0, 64, 61
1, 207044, Control_c, 0, 64, 62
1, 207059, Control_c, 0, 64, 63
1, 207074, Control_c, 0, 64, 62
1, 207088, Control_c, 0, 64, 55
1, 207104, Control_c, 0, 64, 39
1, 207119, Control_c, 0, 64, 0
1, 207208, Control_c, 0, 64, 11
1, 207223, Control_c, 0, 64, 31
1, 207238, Control_c, 0, 64, 48
1, 207253, Control_c, 0, 64, 58
1, 207268, Control_c, 0, 64, 62
1, 207277, Note_on_c, 0, 45, 75
1, 207283, Control_c, 0, 64, 64
1, 207298, Control_c, 0, 64, 67
1, 207312, Control_c, 0, 64, 70
1, 207324, Note_off_c, 0, 45, 66
1, 207327, Control_c, 0, 64, 70
1, 207342, Control_c, 0, 64, 70
1, 207357, Control_c, 0, 64, 64
1, 207372, Control_c, 0, 64, 52
1, 207386, Control_c, 0, 64, 31
1, 207401, Control_c, 0, 64, 0
1, 207490, Control_c, 0, 64, 12
1, 207504, Control_c, 0, 64, 27
1, 207519, Control_c, 0, 64, 35
1, 207534, Control_c, 0, 64, 41
1, 207549, Control_c, 0, 64, 50
1, 207552, Note_on_c, 0, 46, 73
1, 207564, Control_c, 0, 64, 60
1, 207578, Control_c, 0, 64, 65
1, 207593, Control_c, 0, 64, 68
1, 207604, Note_off_c, 0, 46, 64
1, 207608, Control_c, 0, 64, 70
1, 207623, Control_c, 0, 64, 70
1, 207638, Control_c, 0, 64, 69
1, 207653, Control_c, 0, 64, 63
1, 207667, Control_c, 0, 64, 45
1, 207690, Control_c, 0, 64, 0
1, 207749, Control_c, 0, 64, 9
1, 207764, Control_c, 0, 64, 12
1, 207778, Control_c, 0, 64, 21
1, 207793, Control_c, 0, 64, 36
1, 207808, Control_c, 0, 64, 50
1, 207823, Control_c, 0, 64, 60
1, 207838, Control_c, 0, 64, 64
1, 207852, Control_c, 0, 64, 66
1, 207855, Note_on_c, 0, 49, 76
1, 207867, Control_c, 0, 64, 68
1, 207882, Control_c, 0, 64, 70
1, 207890, Note_off_c, 0, 49, 64
1, 207897, Control_c, 0, 64, 71
1, 207942, Control_c, 0, 64, 71
1, 207957, Control_c, 0, 64, 66
1, 207972, Control_c, 0, 64, 59
1, 207987, Control_c, 0, 64, 51
1, 208001, Control_c, 0, 64, 49
1, 208016, Control_c, 0, 64, 50
1, 208031, Control_c, 0, 64, 51
1, 208061, Control_c, 0, 64, 50
1, 208076, Control_c, 0, 64, 49
1, 208106, Control_c, 0, 64, 50
1, 208135, Control_c, 0, 64, 49
1, 208155, Note_on_c, 0, 50, 66
1, 208165, Control_c, 0, 64, 50
1, 208180, Control_c, 0, 64, 52
1, 208209, Control_c, 0, 64, 52
1, 208269, Control_c, 0, 64, 51
1, 208275, Note_off_c, 0, 50, 65
1, 208283, Control_c, 0, 64, 50
1, 208287, Note_on_c, 0, 53, 72
1, 208298, Control_c, 0, 64, 50
1, 208327, Control_c, 0, 64, 50
1, 208342, Control_c, 0, 64, 51
1, 208357, Control_c, 0, 64, 50
1, 208372, Control_c, 0, 64, 49
1, 208407, Note_on_c, 0, 52, 75
1, 208410, Note_off_c, 0, 53, 61
1, 208439, Control_c, 0, 64, 49
1, 208453, Control_c, 0, 64, 47
1, 208468, Control_c, 0, 64, 46
1, 208483, Control_c, 0, 64, 46
1, 208498, Control_c, 0, 64, 45
1, 208513, Control_c, 0, 64, 44
1, 208527, Control_c, 0, 64, 40
1, 208536, Note_on_c, 0, 50, 75
1, 208542, Control_c, 0, 64, 34
1, 208546, Note_off_c, 0, 52, 62
1, 208557, Control_c, 0, 64, 28
1, 208572, Control_c, 0, 64, 23
1, 208587, Control_c, 0, 64, 21
1, 208602, Control_c, 0, 64, 19
1, 208616, Control_c, 0, 64, 16
1, 208631, Control_c, 0, 64, 11
1, 208646, Control_c, 0, 64, 0
1, 208657, Note_off_c, 0, 50, 64
1, 208666, Note_on_c, 0, 52, 74
1, 208779, Note_off_c, 0, 52, 63
1, 208792, Note_on_c, 0, 53, 74
1, 208905, Note_off_c, 0, 53, 57
1, 208910, Note_on_c, 0, 50, 82
1, 209021, Note_off_c, 0, 50, 65
1, 209026, Note_on_c, 0, 52, 80
1, 209136, Note_off_c, 0, 52, 64
1, 209160, Note_on_c, 0, 53, 86
1, 209165, Control_c, 0, 64, 36
1, 209188, Control_c, 0, 64, 56
1, 209203, Control_c, 0, 64, 63
1, 209218, Control_c, 0, 64, 64
1, 209226, Note_off_c, 0, 53, 62
1, 209232, Control_c, 0, 64, 65
1, 209276, Control_c, 0, 64, 61
1, 209291, Control_c, 0, 64, 48
1, 209306, Control_c, 0, 64, 11
1, 209321, Control_c, 0, 64, 0
1, 209424, Control_c, 0, 64, 23
1, 209439, Control_c, 0, 64, 44
1, 209454, Control_c, 0, 64, 55
1, 209455, Note_on_c, 0, 50, 80
1, 209469, Control_c, 0, 64, 59
1, 209483, Control_c, 0, 64, 60
1, 209492, Note_off_c, 0, 50, 64
1, 209498, Control_c, 0, 64, 62
1, 209513, Control_c, 0, 64, 63
1, 209559, Control_c, 0, 64, 62
1, 209573, Control_c, 0, 64, 54
1, 209588, Control_c, 0, 64, 34
1, 209603, Control_c, 0, 64, 0
1, 209706, Control_c, 0, 64, 12
1, 209721, Control_c, 0, 64, 40
1, 209733, Note_on_c, 0, 45, 78
1, 209736, Control_c, 0, 64, 54
1, 209751, Control_c, 0, 64, 59
1, 209766, Control_c, 0, 64, 61
1, 209781, Control_c, 0, 64, 63
1, 209784, Note_off_c, 0, 45, 65
1, 209796, Control_c, 0, 64, 64
1, 209811, Control_c, 0, 64, 65
1, 209841, Control_c, 0, 64, 64
1, 209855, Control_c, 0, 64, 63
1, 209870, Control_c, 0, 64, 59
1, 209885, Control_c, 0, 64, 55
1, 209899, Control_c, 0, 64, 52
1, 209914, Control_c, 0, 64, 49
1, 209936, Control_c, 0, 64, 45
1, 209951, Control_c, 0, 64, 41
1, 209966, Control_c, 0, 64, 39
1, 209981, Control_c, 0, 64, 39
1, 209996, Control_c, 0, 64, 36
1, 210010, Control_c, 0, 64, 28
1, 210019, Note_on_c, 0, 48, 71
1, 210025, Control_c, 0, 64, 0
1, 210055, Note_off_c, 0, 48, 59
1, 210078, Note_on_c, 0, 47, 74
1, 210083, Note_on_c, 0, 41, 14
1, 210115, Note_off_c, 0, 41, 42
1, 210126, Note_off_c, 0, 47, 61
1, 210145, Note_on_c, 0, 45, 78
1, 210209, Note_on_c, 0, 47, 77
1, 210258, Note_off_c, 0, 45, 62
1, 210284, Note_off_c, 0, 47, 65
1, 210290, Note_on_c, 0, 48, 83
1, 210440, Control_c, 0, 64, 15
1, 210455, Control_c, 0, 64, 24
1, 210469, Control_c, 0, 64, 24
1, 210484, Control_c, 0, 64, 22
1, 210514, Control_c, 0, 64, 24
1, 210529, Control_c, 0, 64, 28
1, 210544, Control_c, 0, 64, 28
1, 210574, Control_c, 0, 64, 32
1, 210589, Control_c, 0, 64, 43
1, 210596, Note_on_c, 0, 57, 60
1, 210601, Note_on_c, 0, 60, 64
1, 210603, Control_c, 0, 64, 54
1, 210618, Control_c, 0, 64, 60
1, 210633, Control_c, 0, 64, 61
1, 210644, Note_off_c, 0, 57, 63
1, 210648, Control_c, 0, 64, 62
1, 210663, Control_c, 0, 64, 63
1, 210665, Note_off_c, 0, 60, 61
1, 210699, Control_c, 0, 64, 60
1, 210714, Control_c, 0, 64, 50
1, 210729, Control_c, 0, 64, 32
1, 210744, Control_c, 0, 64, 0
1, 210863, Control_c, 0, 64, 17
1, 210878, Control_c, 0, 64, 31
1, 210890, Note_on_c, 0, 62, 67
1, 210892, Note_on_c, 0, 58, 63
1, 210893, Control_c, 0, 64, 44
1, 210908, Control_c, 0, 64, 55
1, 210922, Control_c, 0, 64, 61
1, 210935, Note_off_c, 0, 62, 62
1, 210937, Control_c, 0, 64, 62
1, 210952, Control_c, 0, 64, 62
1, 210954, Note_off_c, 0, 58, 58
1, 210982, Control_c, 0, 64, 61
1, 210996, Control_c, 0, 64, 52
1, 211011, Control_c, 0, 64, 29
1, 211026, Control_c, 0, 64, 0
1, 211129, Control_c, 0, 64, 19
1, 211145, Control_c, 0, 64, 39
1, 211160, Control_c, 0, 64, 50
1, 211164, Note_on_c, 0, 55, 57
1, 211167, Note_on_c, 0, 64, 67
1, 211175, Control_c, 0, 64, 55
1, 211190, Control_c, 0, 64, 59
1, 211205, Control_c, 0, 64, 63
1, 211208, Note_off_c, 0, 64, 63
1, 211212, Note_off_c, 0, 55, 61
1, 211219, Control_c, 0, 64, 65
1, 211234, Control_c, 0, 64, 66
1, 211264, Control_c, 0, 64, 65
1, 211279, Control_c, 0, 64, 59
1, 211293, Control_c, 0, 64, 50
1, 211308, Control_c, 0, 64, 38
1, 211323, Control_c, 0, 64, 25
1, 211338, Control_c, 0, 64, 13
1, 211352, Control_c, 0, 64, 12
1, 211367, Control_c, 0, 64, 11
1, 211412, Control_c, 0, 64, 19
1, 211434, Control_c, 0, 64, 31
1, 211449, Control_c, 0, 64, 44
1, 211455, Note_on_c, 0, 65, 69
1, 211457, Note_on_c, 0, 57, 56
1, 211464, Control_c, 0, 64, 53
1, 211478, Control_c, 0, 64, 59
1, 211493, Control_c, 0, 64, 62
1, 211508, Control_c, 0, 64, 63
1, 211509, Note_off_c, 0, 57, 62
1, 211523, Control_c, 0, 64, 64
1, 211529, Note_off_c, 0, 65, 60
1, 211567, Control_c, 0, 64, 61
1, 211582, Control_c, 0, 64, 51
1, 211597, Control_c, 0, 64, 31
1, 211612, Control_c, 0, 64, 13
1, 211626, Control_c, 0, 64, 8
1, 211686, Control_c, 0, 64, 11
1, 211701, Control_c, 0, 64, 23
1, 211716, Control_c, 0, 64, 35
1, 211730, Control_c, 0, 64, 42
1, 211742, Note_on_c, 0, 69, 67
1, 211744, Note_on_c, 0, 54, 55
1, 211745, Control_c, 0, 64, 46
1, 211760, Control_c, 0, 64, 51
1, 211775, Control_c, 0, 64, 57
1, 211790, Control_c, 0, 64, 63
1, 211793, Note_off_c, 0, 54, 59
1, 211805, Control_c, 0, 64, 65
1, 211805, Note_off_c, 0, 69, 66
1, 211819, Control_c, 0, 64, 66
1, 211834, Control_c, 0, 64, 66
1, 211849, Control_c, 0, 64, 67
1, 211878, Control_c, 0, 64, 66
1, 211908, Control_c, 0, 64, 63
1, 211923, Control_c, 0, 64, 54
1, 211938, Control_c, 0, 64, 36
1, 211954, Control_c, 0, 64, 0
1, 212022, Note_on_c, 0, 55, 61
1, 212026, Note_on_c, 0, 70, 70
1, 212028, Control_c, 0, 64, 14
1, 212042, Control_c, 0, 64, 34
1, 212056, Note_off_c, 0, 55, 62
1, 212057, Control_c, 0, 64, 49
1, 212072, Control_c, 0, 64, 58
1, 212087, Control_c, 0, 64, 61
1, 212088, Note_off_c, 0, 70, 63
1, 212101, Control_c, 0, 64, 62
1, 212116, Control_c, 0, 64, 64
1, 212131, Control_c, 0, 64, 65
1, 212146, Control_c, 0, 64, 66
1, 212198, Control_c, 0, 64, 65
1, 212213, Control_c, 0, 64, 57
1, 212228, Control_c, 0, 64, 35
1, 212243, Control_c, 0, 64, 0
1, 212287, Control_c, 0, 64, 16
1, 212301, Control_c, 0, 64, 41
1, 212312, Note_on_c, 0, 73, 70
1, 212316, Control_c, 0, 64, 53
1, 212323, Note_on_c, 0, 57, 57
1, 212331, Control_c, 0, 64, 59
1, 212346, Control_c, 0, 64, 62
1, 212361, Control_c, 0, 64, 64
1, 212371, Note_off_c, 0, 73, 64
1, 212375, Control_c, 0, 64, 65
1, 212378, Note_off_c, 0, 48, 58
1, 212380, Note_off_c, 0, 57, 62
1, 212390, Control_c, 0, 64, 66
1, 212405, Control_c, 0, 64, 66
1, 212494, Control_c, 0, 64, 65
1, 212523, Control_c, 0, 64, 64
1, 212538, Control_c, 0, 64, 63
1, 212553, Control_c, 0, 64, 61
1, 212568, Control_c, 0, 64, 58
1, 212583, Control_c, 0, 64, 57
1, 212598, Control_c, 0, 64, 57
1, 212613, Control_c, 0, 64, 55
1, 212618, Note_on_c, 0, 74, 65
1, 212624, Note_on_c, 0, 58, 57
1, 212628, Control_c, 0, 64, 51
1, 212629, Note_on_c, 0, 48, 47
1, 212642, Control_c, 0, 64, 49
1, 212657, Control_c, 0, 64, 48
1, 212687, Control_c, 0, 64, 48
1, 212701, Control_c, 0, 64, 47
1, 212716, Control_c, 0, 64, 46
1, 212731, Control_c, 0, 64, 47
1, 212739, Note_off_c, 0, 74, 53
1, 212747, Control_c, 0, 64, 47
1, 212757, Note_on_c, 0, 77, 71
1, 212762, Control_c, 0, 64, 48
1, 212777, Control_c, 0, 64, 47
1, 212791, Control_c, 0, 64, 46
1, 212821, Control_c, 0, 64, 47
1, 212851, Control_c, 0, 64, 46
1, 212865, Control_c, 0, 64, 46
1, 212880, Note_on_c, 0, 76, 71
1, 212895, Note_off_c, 0, 77, 53
1, 212895, Control_c, 0, 64, 46
1, 212932, Control_c, 0, 64, 46
1, 212976, Control_c, 0, 64, 46
1, 213005, Note_off_c, 0, 76, 64
1, 213009, Note_on_c, 0, 74, 68
1, 213051, Control_c, 0, 64, 47
1, 213066, Control_c, 0, 64, 48
1, 213080, Control_c, 0, 64, 48
1, 213124, Control_c, 0, 64, 48
1, 213137, Note_on_c, 0, 76, 67
1, 213139, Control_c, 0, 64, 49
1, 213154, Control_c, 0, 64, 49
1, 213179, Note_off_c, 0, 74, 36
1, 213243, Control_c, 0, 64, 49
1, 213266, Note_on_c, 0, 77, 76
1, 213272, Note_off_c, 0, 76, 53
1, 213287, Control_c, 0, 64, 49
1, 213376, Control_c, 0, 64, 49
1, 213391, Control_c, 0, 64, 48
1, 213398, Note_on_c, 0, 74, 75
1, 213421, Control_c, 0, 64, 48
1, 213424, Note_off_c, 0, 77, 57
1, 213510, Control_c, 0, 64, 48
1, 213511, Note_on_c, 0, 76, 77
1, 213524, Control_c, 0, 64, 49
1, 213540, Control_c, 0, 64, 49
1, 213555, Control_c, 0, 64, 50
1, 213562, Note_off_c, 0, 74, 54
1, 213570, Control_c, 0, 64, 50
1, 213599, Control_c, 0, 64, 51
1, 213614, Control_c, 0, 64, 51
1, 213644, Note_off_c, 0, 76, 63
1, 213644, Control_c, 0, 64, 52
1, 213647, Note_off_c, 0, 58, 66
1, 213650, Note_on_c, 0, 77, 67
1, 213656, Note_on_c, 0, 57, 66
1, 213695, Control_c, 0, 64, 51
1, 213707, Note_off_c, 0, 77, 59
1, 213710, Control_c, 0, 64, 52
1, 213740, Control_c, 0, 64, 51
1, 213754, Control_c, 0, 64, 51
1, 213769, Control_c, 0, 64, 50
1, 213776, Note_off_c, 0, 57, 62
1, 213787, Note_on_c, 0, 55, 70
1, 213799, Control_c, 0, 64, 51
1, 213829, Control_c, 0, 64, 50
1, 213843, Control_c, 0, 64, 49
1, 213858, Control_c, 0, 64, 48
1, 213902, Control_c, 0, 64, 49
1, 213916, Note_on_c, 0, 53, 61
1, 213916, Note_on_c, 0, 74, 64
1, 213916, Note_off_c, 0, 55, 63
1, 213954, Note_off_c, 0, 74, 63
1, 213976, Control_c, 0, 64, 49
1, 214017, Note_off_c, 0, 53, 62
1, 214020, Control_c, 0, 64, 49
1, 214041, Note_on_c, 0, 52, 64
1, 214050, Control_c, 0, 64, 49
1, 214154, Control_c, 0, 64, 50
1, 214163, Note_off_c, 0, 52, 62
1, 214168, Note_on_c, 0, 53, 60
1, 214169, Note_on_c, 0, 69, 69
1, 214215, Note_off_c, 0, 69, 61
1, 214243, Control_c, 0, 64, 50
1, 214288, Note_off_c, 0, 53, 61
1, 214300, Note_on_c, 0, 50, 61
1, 214348, Control_c, 0, 64, 51
1, 214392, Control_c, 0, 64, 51
1, 214431, Note_off_c, 0, 50, 63
1, 214434, Note_on_c, 0, 72, 60
1, 214449, Note_on_c, 0, 55, 60
1, 214473, Control_c, 0, 64, 51
1, 214488, Note_off_c, 0, 72, 59
1, 214496, Note_off_c, 0, 55, 57
1, 214503, Note_on_c, 0, 71, 63
1, 214503, Control_c, 0, 64, 50
1, 214518, Control_c, 0, 64, 48
1, 214526, Note_off_c, 0, 48, 41
1, 214532, Control_c, 0, 64, 45
1, 214539, Note_off_c, 0, 71, 64
1, 214545, Note_on_c, 0, 53, 61
1, 214547, Control_c, 0, 64, 44
1, 214562, Control_c, 0, 64, 43
1, 214563, Note_on_c, 0, 69, 59
1, 214577, Control_c, 0, 64, 40
1, 214592, Control_c, 0, 64, 34
1, 214607, Control_c, 0, 64, 24
1, 214613, Note_off_c, 0, 69, 62
1, 214622, Control_c, 0, 64, 17
1, 214635, Note_on_c, 0, 71, 60
1, 214637, Control_c, 0, 64, 13
1, 214652, Control_c, 0, 64, 0
1, 214709, Note_off_c, 0, 53, 53
1, 214723, Note_off_c, 0, 71, 52
1, 214729, Note_on_c, 0, 52, 47
1, 214735, Note_on_c, 0, 72, 67
1, 214756, Control_c, 0, 64, 13
1, 214759, Note_on_c, 0, 48, 18
1, 214770, Control_c, 0, 64, 31
1, 214785, Control_c, 0, 64, 43
1, 214800, Control_c, 0, 64, 53
1, 214815, Control_c, 0, 64, 57
1, 214820, Note_off_c, 0, 52, 64
1, 214830, Control_c, 0, 64, 59
1, 214844, Control_c, 0, 64, 60
1, 214845, Note_off_c, 0, 48, 44
1, 214859, Control_c, 0, 64, 60
1, 214933, Control_c, 0, 64, 60
1, 214948, Control_c, 0, 64, 58
1, 214962, Control_c, 0, 64, 55
1, 214977, Control_c, 0, 64, 53
1, 214979, Note_off_c, 0, 72, 60
1, 214992, Control_c, 0, 64, 50
1, 215007, Control_c, 0, 64, 44
1, 215022, Control_c, 0, 64, 35
1, 215037, Control_c, 0, 64, 24
1, 215039, Note_on_c, 0, 36, 62
1, 215051, Control_c, 0, 64, 15
1, 215066, Control_c, 0, 64, 14
1, 215090, Note_off_c, 0, 36, 62
1, 215096, Control_c, 0, 64, 10
1, 215111, Control_c, 0, 64, 0
1, 215156, Control_c, 0, 64, 11
1, 215179, Control_c, 0, 64, 13
1, 215223, Control_c, 0, 64, 15
1, 215238, Control_c, 0, 64, 21
1, 215253, Control_c, 0, 64, 22
1, 215267, Control_c, 0, 64, 22
1, 215282, Control_c, 0, 64, 21
1, 215325, Note_on_c, 0, 72, 64
1, 215343, Note_on_c, 0, 38, 46
1, 215356, Control_c, 0, 64, 20
1, 215371, Control_c, 0, 64, 20
1, 215400, Note_off_c, 0, 38, 63
1, 215400, Control_c, 0, 64, 20
1, 215430, Control_c, 0, 64, 20
1, 215623, Control_c, 0, 64, 21
1, 215629, Note_on_c, 0, 40, 64
1, 215637, Control_c, 0, 64, 22
1, 215665, Note_off_c, 0, 40, 58
1, 215682, Control_c, 0, 64, 23
1, 215697, Control_c, 0, 64, 25
1, 215711, Control_c, 0, 64, 28
1, 215726, Control_c, 0, 64, 29
1, 215756, Control_c, 0, 64, 30
1, 215771, Control_c, 0, 64, 31
1, 215785, Control_c, 0, 64, 32
1, 215800, Control_c, 0, 64, 34
1, 215815, Control_c, 0, 64, 35
1, 215904, Control_c, 0, 64, 35
1, 215908, Note_on_c, 0, 70, 63
1, 215910, Note_on_c, 0, 41, 57
1, 215928, Note_off_c, 0, 72, 44
1, 215950, Note_off_c, 0, 41, 63
1, 215987, Control_c, 0, 64, 35
1, 216002, Control_c, 0, 64, 34
1, 216016, Control_c, 0, 64, 33
1, 216042, Note_on_c, 0, 69, 69
1, 216091, Control_c, 0, 64, 33
1, 216135, Control_c, 0, 64, 33
1, 216155, Note_off_c, 0, 70, 32
1, 216158, Note_on_c, 0, 67, 69
1, 216163, Note_off_c, 0, 69, 55
1, 216171, Note_on_c, 0, 45, 62
1, 216179, Control_c, 0, 64, 33
1, 216194, Control_c, 0, 64, 32
1, 216209, Control_c, 0, 64, 33
1, 216220, Note_off_c, 0, 45, 62
1, 216253, Note_off_c, 0, 67, 63
1, 216277, Note_on_c, 0, 65, 68
1, 216312, Control_c, 0, 64, 33
1, 216398, Note_off_c, 0, 65, 59
1, 216401, Control_c, 0, 64, 34
1, 216411, Note_on_c, 0, 69, 68
1, 216414, Note_on_c, 0, 46, 67
1, 216431, Control_c, 0, 64, 34
1, 216446, Note_off_c, 0, 46, 65
1, 216475, Control_c, 0, 64, 35
1, 216490, Control_c, 0, 64, 35
1, 216522, Note_off_c, 0, 69, 60
1, 216528, Note_on_c, 0, 67, 69
1, 216564, Control_c, 0, 64, 36
1, 216579, Control_c, 0, 64, 36
1, 216594, Control_c, 0, 64, 37
1, 216623, Control_c, 0, 64, 37
1, 216645, Note_off_c, 0, 67, 62
1, 216660, Control_c, 0, 64, 38
1, 216672, Note_on_c, 0, 70, 63
1, 216675, Control_c, 0, 64, 39
1, 216678, Note_on_c, 0, 49, 65
1, 216690, Control_c, 0, 64, 39
1, 216724, Note_off_c, 0, 49, 60
1, 216750, Control_c, 0, 64, 40
1, 216759, Note_off_c, 0, 70, 62
1, 216788, Note_on_c, 0, 64, 66
1, 216825, Control_c, 0, 64, 39
1, 216916, Note_off_c, 0, 64, 62
1, 216929, Note_on_c, 0, 50, 65
1, 216929, Note_on_c, 0, 65, 68
1, 216962, Note_off_c, 0, 65, 64
1, 217017, Control_c, 0, 64, 40
1, 217027, Note_off_c, 0, 50, 65
1, 217032, Control_c, 0, 64, 40
1, 217046, Note_on_c, 0, 53, 67
1, 217061, Control_c, 0, 64, 40
1, 217090, Control_c, 0, 64, 40
1, 217105, Control_c, 0, 64, 41
1, 217135, Control_c, 0, 64, 40
1, 217150, Control_c, 0, 64, 40
1, 217164, Note_on_c, 0, 60, 69
1, 217165, Note_off_c, 0, 53, 60
1, 217172, Note_on_c, 0, 52, 65
1, 217194, Control_c, 0, 64, 41
1, 217197, Note_off_c, 0, 60, 64
1, 217224, Control_c, 0, 64, 40
1, 217239, Control_c, 0, 64, 40
1, 217254, Control_c, 0, 64, 40
1, 217269, Control_c, 0, 64, 41
1, 217283, Control_c, 0, 64, 42
1, 217288, Note_on_c, 0, 50, 72
1, 217297, Note_off_c, 0, 52, 62
1, 217343, Control_c, 0, 64, 43
1, 217357, Control_c, 0, 64, 44
1, 217402, Control_c, 0, 64, 44
1, 217422, Note_off_c, 0, 50, 61
1, 217436, Note_on_c, 0, 52, 71
1, 217437, Note_on_c, 0, 84, 84
1, 217528, Control_c, 0, 64, 43
1, 217543, Note_off_c, 0, 52, 63
1, 217556, Note_on_c, 0, 53, 72
1, 217588, Control_c, 0, 64, 43
1, 217601, Control_c, 0, 64, 42
1, 217616, Control_c, 0, 64, 41
1, 217660, Control_c, 0, 64, 40
1, 217675, Note_off_c, 0, 53, 57
1, 217675, Control_c, 0, 64, 37
1, 217686, Note_on_c, 0, 50, 74
1, 217690, Control_c, 0, 64, 34
1, 217705, Control_c, 0, 64, 34
1, 217734, Control_c, 0, 64, 31
1, 217749, Control_c, 0, 64, 26
1, 217764, Control_c, 0, 64, 19
1, 217779, Control_c, 0, 64, 0
1, 217794, Note_off_c, 0, 50, 65
1, 217800, Note_on_c, 0, 52, 75
1, 217898, Control_c, 0, 64, 23
1, 217912, Control_c, 0, 64, 31
1, 217927, Control_c, 0, 64, 39
1, 217931, Note_off_c, 0, 52, 64
1, 217942, Control_c, 0, 64, 50
1, 217946, Note_on_c, 0, 53, 73
1, 217947, Note_on_c, 0, 82, 74
1, 217957, Control_c, 0, 64, 61
1, 217972, Control_c, 0, 64, 65
1, 217986, Control_c, 0, 64, 66
1, 217996, Note_off_c, 0, 53, 62
1, 218031, Control_c, 0, 64, 65
1, 218045, Control_c, 0, 64, 61
1, 218060, Control_c, 0, 64, 51
1, 218065, Note_off_c, 0, 84, 25
1, 218070, Note_on_c, 0, 81, 75
1, 218075, Control_c, 0, 64, 36
1, 218090, Control_c, 0, 64, 0
1, 218186, Control_c, 0, 64, 17
1, 218196, Note_on_c, 0, 79, 72
1, 218201, Control_c, 0, 64, 41
1, 218206, Note_off_c, 0, 81, 51
1, 218208, Note_on_c, 0, 57, 66
1, 218216, Control_c, 0, 64, 58
1, 218226, Note_off_c, 0, 82, 38
1, 218231, Control_c, 0, 64, 63
1, 218245, Control_c, 0, 64, 63
1, 218250, Note_off_c, 0, 57, 63
1, 218260, Control_c, 0, 64, 64
1, 218298, Note_off_c, 0, 79, 65
1, 218305, Control_c, 0, 64, 60
1, 218318, Note_on_c, 0, 77, 71
1, 218319, Control_c, 0, 64, 46
1, 218335, Control_c, 0, 64, 26
1, 218351, Control_c, 0, 64, 0
1, 218440, Control_c, 0, 64, 38
1, 218441, Note_off_c, 0, 77, 61
1, 218455, Note_on_c, 0, 58, 63
1, 218455, Control_c, 0, 64, 54
1, 218458, Note_on_c, 0, 81, 72
1, 218470, Control_c, 0, 64, 59
1, 218484, Control_c, 0, 64, 59
1, 218499, Control_c, 0, 64, 61
1, 218505, Note_off_c, 0, 58, 62
1, 218514, Control_c, 0, 64, 64
1, 218529, Control_c, 0, 64, 66
1, 218573, Note_on_c, 0, 79, 77
1, 218573, Control_c, 0, 64, 63
1, 218577, Note_off_c, 0, 81, 56
1, 218588, Control_c, 0, 64, 54
1, 218603, Control_c, 0, 64, 38
1, 218617, Control_c, 0, 64, 13
1, 218632, Control_c, 0, 64, 0
1, 218677, Control_c, 0, 64, 19
1, 218691, Control_c, 0, 64, 38
1, 218697, Note_off_c, 0, 79, 64
1, 218706, Control_c, 0, 64, 53
1, 218710, Note_on_c, 0, 82, 76
1, 218711, Note_on_c, 0, 61, 70
1, 218721, Control_c, 0, 64, 62
1, 218736, Control_c, 0, 64, 64
1, 218750, Control_c, 0, 64, 64
1, 218757, Note_off_c, 0, 61, 61
1, 218765, Control_c, 0, 64, 65
1, 218802, Note_off_c, 0, 82, 64
1, 218810, Control_c, 0, 64, 65
1, 218822, Note_on_c, 0, 76, 78
1, 218825, Control_c, 0, 64, 60
1, 218840, Control_c, 0, 64, 51
1, 218855, Control_c, 0, 64, 38
1, 218869, Control_c, 0, 64, 19
1, 218884, Control_c, 0, 64, 0
1, 218946, Note_off_c, 0, 76, 54
1, 218950, Control_c, 0, 64, 23
1, 218962, Note_on_c, 0, 77, 75
1, 218965, Note_on_c, 0, 62, 71
1, 218965, Control_c, 0, 64, 43
1, 218980, Control_c, 0, 64, 55
1, 218995, Control_c, 0, 64, 60
1, 219010, Control_c, 0, 64, 60
1, 219016, Note_off_c, 0, 77, 65
1, 219054, Control_c, 0, 64, 59
1, 219060, Note_off_c, 0, 62, 62
1, 219069, Control_c, 0, 64, 55
1, 219084, Control_c, 0, 64, 48
1, 219087, Note_on_c, 0, 65, 76
1, 219099, Control_c, 0, 64, 42
1, 219114, Control_c, 0, 64, 39
1, 219129, Control_c, 0, 64, 36
1, 219144, Control_c, 0, 64, 31
1, 219159, Control_c, 0, 64, 25
1, 219174, Control_c, 0, 64, 24
1, 219189, Control_c, 0, 64, 27
1, 219204, Control_c, 0, 64, 27
1, 219214, Note_off_c, 0, 65, 58
1, 219217, Note_on_c, 0, 72, 75
1, 219225, Note_on_c, 0, 64, 66
1, 219233, Control_c, 0, 64, 27
1, 219248, Control_c, 0, 64, 28
1, 219263, Control_c, 0, 64, 32
1, 219278, Control_c, 0, 64, 35
1, 219307, Control_c, 0, 64, 34
1, 219309, Note_off_c, 0, 72, 60
1, 219322, Control_c, 0, 64, 35
1, 219337, Control_c, 0, 64, 38
1, 219344, Note_on_c, 0, 62, 74
1, 219348, Note_off_c, 0, 64, 65
1, 219352, Control_c, 0, 64, 39
1, 219366, Control_c, 0, 64, 38
1, 219411, Control_c, 0, 64, 39
1, 219455, Control_c, 0, 64, 38
1, 219475, Note_off_c, 0, 62, 64
1, 219477, Note_on_c, 0, 64, 69
1, 219479, Note_on_c, 0, 84, 79
1, 219484, Control_c, 0, 64, 39
1, 219544, Control_c, 0, 64, 41
1, 219558, Control_c, 0, 64, 43
1, 219583, Note_off_c, 0, 64, 64
1, 219597, Note_on_c, 0, 65, 74
1, 219618, Control_c, 0, 64, 42
1, 219633, Control_c, 0, 64, 40
1, 219648, Control_c, 0, 64, 37
1, 219670, Control_c, 0, 64, 33
1, 219684, Control_c, 0, 64, 31
1, 219699, Control_c, 0, 64, 29
1, 219714, Control_c, 0, 64, 23
1, 219729, Note_off_c, 0, 65, 57
1, 219729, Control_c, 0, 64, 15
1, 219738, Note_on_c, 0, 62, 73
1, 219744, Control_c, 0, 64, 10
1, 219759, Control_c, 0, 64, 12
1, 219773, Control_c, 0, 64, 24
1, 219788, Control_c, 0, 64, 40
1, 219803, Control_c, 0, 64, 51
1, 219818, Control_c, 0, 64, 57
1, 219833, Control_c, 0, 64, 59
1, 219846, Note_off_c, 0, 62, 65
1, 219853, Note_on_c, 0, 64, 76
1, 219877, Control_c, 0, 64, 58
1, 219892, Control_c, 0, 64, 55
1, 219907, Control_c, 0, 64, 48
1, 219922, Control_c, 0, 64, 42
1, 219937, Control_c, 0, 64, 34
1, 219952, Control_c, 0, 64, 23
1, 219967, Control_c, 0, 64, 0
1, 219971, Note_off_c, 0, 64, 64
1, 219988, Note_on_c, 0, 82, 72
1, 219990, Note_on_c, 0, 65, 76
1, 220011, Control_c, 0, 64, 21
1, 220026, Control_c, 0, 64, 38
1, 220028, Note_off_c, 0, 84, 58
1, 220041, Control_c, 0, 64, 47
1, 220053, Note_off_c, 0, 65, 55
1, 220056, Control_c, 0, 64, 53
1, 220071, Control_c, 0, 64, 58
1, 220086, Control_c, 0, 64, 61
1, 220101, Control_c, 0, 64, 63
1, 220106, Note_on_c, 0, 81, 78
1, 220115, Control_c, 0, 64, 63
1, 220145, Control_c, 0, 64, 62
1, 220160, Control_c, 0, 64, 55
1, 220175, Control_c, 0, 64, 37
1, 220189, Control_c, 0, 64, 0
1, 220234, Note_off_c, 0, 81, 63
1, 220235, Note_on_c, 0, 62, 76
1, 220237, Note_on_c, 0, 79, 81
1, 220249, Control_c, 0, 64, 27
1, 220263, Control_c, 0, 64, 44
1, 220278, Control_c, 0, 64, 55
1, 220293, Note_off_c, 0, 62, 64
1, 220293, Control_c, 0, 64, 61
1, 220307, Control_c, 0, 64, 64
1, 220322, Control_c, 0, 64, 65
1, 220328, Note_off_c, 0, 79, 65
1, 220334, Note_off_c, 0, 82, 42
1, 220337, Control_c, 0, 64, 66
1, 220352, Control_c, 0, 64, 67
1, 220360, Note_on_c, 0, 77, 76
1, 220381, Control_c, 0, 64, 66
1, 220396, Control_c, 0, 64, 63
1, 220419, Control_c, 0, 64, 56
1, 220434, Control_c, 0, 64, 42
1, 220449, Control_c, 0, 64, 28
1, 220463, Control_c, 0, 64, 11
1, 220478, Control_c, 0, 64, 0
1, 220523, Note_on_c, 0, 89, 86
1, 220528, Note_on_c, 0, 57, 78
1, 220529, Note_off_c, 0, 77, 52
1, 220581, Control_c, 0, 64, 29
1, 220596, Control_c, 0, 64, 53
1, 220611, Control_c, 0, 64, 63
1, 220625, Control_c, 0, 64, 66
1, 220629, Note_off_c, 0, 57, 60
1, 220640, Control_c, 0, 64, 70
1, 220655, Control_c, 0, 64, 76
1, 220670, Control_c, 0, 64, 79
1, 220685, Control_c, 0, 64, 79
1, 220714, Control_c, 0, 64, 73
1, 220730, Control_c, 0, 64, 60
1, 220745, Control_c, 0, 64, 0
1, 220831, Note_on_c, 0, 59, 83
1, 220849, Control_c, 0, 64, 45
1, 220864, Control_c, 0, 64, 62
1, 220878, Control_c, 0, 64, 67
1, 220893, Control_c, 0, 64, 72
1, 220906, Note_off_c, 0, 59, 65
1, 220908, Control_c, 0, 64, 81
1, 220923, Control_c, 0, 64, 92
1, 220937, Control_c, 0, 64, 103
1, 220952, Control_c, 0, 64, 109
1, 220967, Control_c, 0, 64, 113
1, 220982, Control_c, 0, 64, 113
1, 221011, Control_c, 0, 64, 112
1, 221026, Control_c, 0, 64, 104
1, 221041, Control_c, 0, 64, 92
1, 221056, Control_c, 0, 64, 82
1, 221071, Control_c, 0, 64, 69
1, 221085, Control_c, 0, 64, 57
1, 221100, Control_c, 0, 64, 45
1, 221115, Control_c, 0, 64, 41
1, 221129, Control_c, 0, 64, 43
1, 221131, Note_on_c, 0, 60, 79
1, 221144, Control_c, 0, 64, 47
1, 221167, Control_c, 0, 64, 46
1, 221182, Control_c, 0, 64, 44
1, 221197, Control_c, 0, 64, 44
1, 221211, Control_c, 0, 64, 45
1, 221226, Control_c, 0, 64, 50
1, 221241, Control_c, 0, 64, 52
1, 221284, Note_on_c, 0, 87, 82
1, 221285, Control_c, 0, 64, 53
1, 221300, Control_c, 0, 64, 56
1, 221315, Control_c, 0, 64, 58
1, 221316, Note_off_c, 0, 89, 46
1, 221329, Control_c, 0, 64, 58
1, 221345, Control_c, 0, 64, 57
1, 221356, Note_off_c, 0, 87, 66
1, 221375, Control_c, 0, 64, 58
1, 221390, Control_c, 0, 64, 57
1, 221404, Control_c, 0, 64, 55
1, 221419, Control_c, 0, 64, 54
1, 221433, Note_on_c, 0, 88, 82
1, 221434, Control_c, 0, 64, 55
1, 221449, Control_c, 0, 64, 58
1, 221463, Control_c, 0, 64, 61
1, 221478, Control_c, 0, 64, 63
1, 221493, Control_c, 0, 64, 63
1, 221523, Control_c, 0, 64, 62
1, 221539, Control_c, 0, 64, 57
1, 221554, Control_c, 0, 64, 48
1, 221555, Note_on_c, 0, 69, 80
1, 221568, Control_c, 0, 64, 44
1, 221598, Control_c, 0, 64, 45
1, 221657, Control_c, 0, 64, 46
1, 221672, Control_c, 0, 64, 47
1, 221687, Control_c, 0, 64, 47
1, 221691, Note_on_c, 0, 70, 81
1, 221698, Note_off_c, 0, 69, 64
1, 221716, Control_c, 0, 64, 47
1, 221731, Control_c, 0, 64, 49
1, 221746, Control_c, 0, 64, 51
1, 221791, Control_c, 0, 64, 51
1, 221806, Control_c, 0, 64, 52
1, 221821, Control_c, 0, 64, 54
1, 221824, Note_off_c, 0, 88, 65
1, 221824, Note_on_c, 0, 85, 81
1, 221850, Control_c, 0, 64, 53
1, 221875, Note_off_c, 0, 85, 65
1, 221894, Control_c, 0, 64, 54
1, 221931, Control_c, 0, 64, 53
1, 221967, Note_on_c, 0, 86, 82
1, 221976, Control_c, 0, 64, 54
1, 222092, Note_on_c, 0, 68, 74
1, 222094, Control_c, 0, 64, 53
1, 222099, Note_off_c, 0, 70, 60
1, 222109, Control_c, 0, 64, 53
1, 222139, Control_c, 0, 64, 52
1, 222153, Control_c, 0, 64, 50
1, 222168, Control_c, 0, 64, 48
1, 222183, Control_c, 0, 64, 46
1, 222198, Control_c, 0, 64, 44
1, 222212, Note_off_c, 0, 68, 64
1, 222213, Control_c, 0, 64, 42
1, 222220, Note_on_c, 0, 69, 77
1, 222227, Control_c, 0, 64, 40
1, 222242, Control_c, 0, 64, 37
1, 222272, Control_c, 0, 64, 38
1, 222332, Control_c, 0, 64, 39
1, 222344, Note_off_c, 0, 86, 52
1, 222347, Control_c, 0, 64, 41
1, 222351, Note_on_c, 0, 83, 79
1, 222362, Control_c, 0, 64, 43
1, 222390, Note_off_c, 0, 83, 63
1, 222391, Control_c, 0, 64, 43
1, 222406, Control_c, 0, 64, 44
1, 222421, Control_c, 0, 64, 46
1, 222436, Control_c, 0, 64, 46
1, 222450, Control_c, 0, 64, 47
1, 222465, Control_c, 0, 64, 47
1, 222480, Control_c, 0, 64, 48
1, 222495, Note_on_c, 0, 84, 77
1, 222495, Control_c, 0, 64, 50
1, 222554, Control_c, 0, 64, 51
1, 222569, Control_c, 0, 64, 52
1, 222604, Note_off_c, 0, 69, 64
1, 222627, Note_on_c, 0, 66, 62
1, 222629, Control_c, 0, 64, 53
1, 222665, Control_c, 0, 64, 52
1, 222680, Control_c, 0, 64, 52
1, 222754, Control_c, 0, 64, 51
1, 222760, Note_off_c, 0, 66, 62
1, 222772, Note_on_c, 0, 67, 69
1, 222813, Control_c, 0, 64, 50
1, 222828, Control_c, 0, 64, 50
1, 222854, Note_off_c, 0, 84, 49
1, 222858, Control_c, 0, 64, 50
1, 222902, Control_c, 0, 64, 51
1, 222904, Note_on_c, 0, 81, 66
1, 222917, Control_c, 0, 64, 53
1, 222932, Control_c, 0, 64, 57
1, 222937, Note_off_c, 0, 81, 65
1, 222947, Control_c, 0, 64, 61
1, 222962, Control_c, 0, 64, 62
1, 223006, Control_c, 0, 64, 62
1, 223049, Note_on_c, 0, 82, 69
1, 223080, Control_c, 0, 64, 63
1, 223090, Note_off_c, 0, 82, 61
1, 223095, Control_c, 0, 64, 64
1, 223109, Control_c, 0, 64, 66
1, 223125, Control_c, 0, 64, 67
1, 223140, Control_c, 0, 64, 67
1, 223155, Control_c, 0, 64, 68
1, 223192, Note_on_c, 0, 61, 57
1, 223200, Control_c, 0, 64, 68
1, 223202, Note_on_c, 0, 82, 66
1, 223209, Note_off_c, 0, 67, 60
1, 223214, Control_c, 0, 64, 69
1, 223215, Note_off_c, 0, 60, 25
1, 223229, Control_c, 0, 64, 69
1, 223244, Control_c, 0, 64, 70
1, 223255, Note_off_c, 0, 82, 60
1, 223332, Control_c, 0, 64, 69
1, 223347, Control_c, 0, 64, 68
1, 223362, Control_c, 0, 64, 67
1, 223371, Note_on_c, 0, 82, 69
1, 223372, Note_off_c, 0, 61, 63
1, 223374, Note_on_c, 0, 67, 56
1, 223377, Control_c, 0, 64, 66
1, 223379, Note_on_c, 0, 62, 55
1, 223392, Control_c, 0, 64, 66
1, 223414, Control_c, 0, 64, 65
1, 223429, Control_c, 0, 64, 63
1, 223444, Control_c, 0, 64, 61
1, 223459, Control_c, 0, 64, 59
1, 223474, Control_c, 0, 64, 58
1, 223483, Note_off_c, 0, 82, 62
1, 223488, Control_c, 0, 64, 56
1, 223503, Control_c, 0, 64, 51
1, 223508, Note_on_c, 0, 84, 62
1, 223518, Control_c, 0, 64, 43
1, 223532, Control_c, 0, 64, 36
1, 223547, Control_c, 0, 64, 30
1, 223562, Control_c, 0, 64, 21
1, 223565, Note_off_c, 0, 84, 64
1, 223573, Note_on_c, 0, 82, 62
1, 223577, Control_c, 0, 64, 12
1, 223592, Control_c, 0, 64, 8
1, 223606, Note_off_c, 0, 82, 65
1, 223617, Note_on_c, 0, 81, 69
1, 223636, Control_c, 0, 64, 9
1, 223681, Control_c, 0, 64, 13
1, 223683, Note_off_c, 0, 81, 62
1, 223686, Note_on_c, 0, 82, 72
1, 223696, Control_c, 0, 64, 20
1, 223711, Control_c, 0, 64, 23
1, 223770, Control_c, 0, 64, 24
1, 223785, Control_c, 0, 64, 26
1, 223814, Control_c, 0, 64, 25
1, 223820, Note_on_c, 0, 84, 79
1, 223831, Note_off_c, 0, 82, 56
1, 223858, Control_c, 0, 64, 27
1, 223873, Control_c, 0, 64, 28
1, 223948, Control_c, 0, 64, 29
1, 223977, Note_off_c, 0, 84, 65
1, 223983, Note_on_c, 0, 86, 75
1, 224008, Control_c, 0, 64, 30
1, 224022, Control_c, 0, 64, 31
1, 224037, Control_c, 0, 64, 33
1, 224067, Control_c, 0, 64, 33
1, 224081, Control_c, 0, 64, 35
1, 224081, Control_c, 0, 67, 8
1, 224096, Control_c, 0, 64, 39
1, 224096, Control_c, 0, 67, 9
1, 224111, Control_c, 0, 64, 42
1, 224126, Control_c, 0, 64, 43
1, 224126, Control_c, 0, 67, 10
1, 224163, Control_c, 0, 67, 11
1, 224178, Control_c, 0, 64, 43
1, 224178, Control_c, 0, 67, 12
1, 224193, Control_c, 0, 67, 14
1, 224208, Control_c, 0, 67, 15
1, 224223, Control_c, 0, 64, 42
1, 224223, Control_c, 0, 67, 16
1, 224237, Control_c, 0, 64, 41
1, 224252, Control_c, 0, 67, 16
1, 224267, Control_c, 0, 67, 17
1, 224271, Note_on_c, 0, 84, 65
1, 224282, Note_off_c, 0, 86, 47
1, 224311, Control_c, 0, 64, 41
1, 224311, Control_c, 0, 67, 18
1, 224326, Control_c, 0, 64, 40
1, 224326, Control_c, 0, 67, 19
1, 224340, Control_c, 0, 67, 24
1, 224355, Control_c, 0, 67, 27
1, 224369, Control_c, 0, 67, 29
1, 224398, Note_off_c, 0, 84, 63
1, 224410, Note_on_c, 0, 82, 53
1, 224414, Control_c, 0, 67, 30
1, 224429, Control_c, 0, 67, 32
1, 224444, Control_c, 0, 67, 35
1, 224459, Control_c, 0, 67, 37
1, 224474, Control_c, 0, 67, 38
1, 224503, Control_c, 0, 67, 38
1, 224518, Control_c, 0, 64, 41
1, 224536, Note_off_c, 0, 82, 57
1, 224562, Control_c, 0, 64, 40
1, 224567, Note_on_c, 0, 81, 57
1, 224577, Control_c, 0, 64, 40
1, 224607, Control_c, 0, 67, 39
1, 224621, Control_c, 0, 67, 42
1, 224636, Control_c, 0, 64, 40
1, 224636, Control_c, 0, 67, 45
1, 224651, Control_c, 0, 67, 47
1, 224659, Note_off_c, 0, 81, 61
1, 224666, Control_c, 0, 67, 47
1, 224695, Control_c, 0, 67, 48
1, 224726, Control_c, 0, 64, 41
1, 224770, Control_c, 0, 67, 49
1, 224785, Control_c, 0, 67, 51
1, 224800, Control_c, 0, 67, 55
1, 224815, Control_c, 0, 67, 56
1, 224844, Control_c, 0, 67, 56
1, 224874, Control_c, 0, 67, 56
1, 224882, Note_on_c, 0, 87, 61
1, 224889, Control_c, 0, 67, 56
1, 224911, Control_c, 0, 64, 41
1, 224956, Control_c, 0, 64, 42
1, 224956, Control_c, 0, 67, 56
1, 224985, Control_c, 0, 64, 42
1, 225000, Control_c, 0, 64, 43
1, 225030, Control_c, 0, 67, 57
1, 225119, Control_c, 0, 67, 58
1, 225134, Control_c, 0, 67, 59
1, 225149, Control_c, 0, 67, 61
1, 225164, Control_c, 0, 67, 64
1, 225178, Control_c, 0, 67, 64
1, 225193, Control_c, 0, 67, 65
1, 225199, Note_on_c, 0, 66, 50
1, 225223, Control_c, 0, 67, 65
1, 225240, Note_off_c, 0, 67, 45
1, 225267, Control_c, 0, 64, 44
1, 225282, Control_c, 0, 64, 45
1, 225297, Control_c, 0, 64, 46
1, 225297, Control_c, 0, 67, 66
1, 225311, Control_c, 0, 64, 48
1, 225311, Control_c, 0, 67, 66
1, 225326, Control_c, 0, 64, 49
1, 225326, Control_c, 0, 67, 69
1, 225341, Control_c, 0, 64, 51
1, 225341, Control_c, 0, 67, 72
1, 225356, Control_c, 0, 64, 52
1, 225356, Control_c, 0, 67, 74
1, 225371, Control_c, 0, 64, 53
1, 225371, Control_c, 0, 67, 74
1, 225386, Control_c, 0, 64, 54
1, 225401, Control_c, 0, 67, 75
1, 225416, Control_c, 0, 67, 76
1, 225430, Control_c, 0, 67, 77
1, 225445, Control_c, 0, 64, 53
1, 225445, Control_c, 0, 67, 78
1, 225475, Control_c, 0, 67, 79
1, 225490, Control_c, 0, 67, 79
1, 225504, Control_c, 0, 67, 80
1, 225513, Note_off_c, 0, 87, 50
1, 225514, Note_on_c, 0, 86, 58
1, 225520, Control_c, 0, 67, 80
1, 225535, Control_c, 0, 67, 82
1, 225550, Control_c, 0, 64, 54
1, 225580, Control_c, 0, 67, 82
1, 225594, Control_c, 0, 67, 83
1, 225636, Note_off_c, 0, 86, 59
1, 225639, Control_c, 0, 67, 83
1, 225654, Note_on_c, 0, 84, 54
1, 225661, Control_c, 0, 67, 84
1, 225675, Control_c, 0, 67, 85
1, 225690, Control_c, 0, 67, 88
1, 225705, Control_c, 0, 64, 53
1, 225705, Control_c, 0, 67, 90
1, 225720, Control_c, 0, 64, 52
1, 225720, Control_c, 0, 67, 91
1, 225735, Control_c, 0, 64, 50
1, 225750, Control_c, 0, 64, 47
1, 225765, Control_c, 0, 64, 43
1, 225779, Control_c, 0, 64, 41
1, 225779, Control_c, 0, 67, 91
1, 225788, Note_off_c, 0, 84, 64
1, 225809, Control_c, 0, 64, 42
1, 225817, Note_on_c, 0, 67, 48
1, 225818, Note_on_c, 0, 82, 58
1, 225824, Control_c, 0, 64, 44
1, 225824, Control_c, 0, 67, 90
1, 225839, Control_c, 0, 64, 46
1, 225841, Note_off_c, 0, 62, 55
1, 225854, Control_c, 0, 64, 48
1, 225854, Control_c, 0, 67, 91
1, 225862, Note_off_c, 0, 66, 34
1, 225868, Control_c, 0, 64, 50
1, 225868, Control_c, 0, 67, 92
1, 225883, Control_c, 0, 64, 51
1, 225883, Control_c, 0, 67, 94
1, 225898, Control_c, 0, 64, 50
1, 225898, Control_c, 0, 67, 95
1, 225913, Control_c, 0, 64, 47
1, 225927, Control_c, 0, 64, 45
1, 225927, Control_c, 0, 67, 95
1, 225945, Note_off_c, 0, 82, 54
1, 225957, Control_c, 0, 64, 46
1, 225957, Control_c, 0, 67, 95
1, 225961, Note_on_c, 0, 87, 65
1, 225972, Control_c, 0, 64, 47
1, 225972, Control_c, 0, 67, 96
1, 225987, Control_c, 0, 64, 48
1, 225987, Control_c, 0, 67, 96
1, 226016, Control_c, 0, 67, 95
1, 226031, Control_c, 0, 67, 94
1, 226060, Control_c, 0, 67, 95
1, 226075, Control_c, 0, 64, 48
1, 226090, Control_c, 0, 64, 49
1, 226094, Note_on_c, 0, 86, 71
1, 226105, Control_c, 0, 64, 51
1, 226105, Control_c, 0, 67, 94
1, 226120, Control_c, 0, 64, 52
1, 226134, Control_c, 0, 64, 54
1, 226134, Control_c, 0, 67, 93
1, 226149, Control_c, 0, 64, 55
1, 226164, Control_c, 0, 64, 57
1, 226179, Control_c, 0, 64, 58
1, 226179, Control_c, 0, 67, 92
1, 226191, Note_off_c, 0, 87, 48
1, 226194, Control_c, 0, 64, 59
1, 226197, Note_off_c, 0, 86, 60
1, 226206, Note_on_c, 0, 85, 70
1, 226209, Control_c, 0, 64, 60
1, 226209, Control_c, 0, 67, 92
1, 226224, Control_c, 0, 64, 60
1, 226224, Control_c, 0, 67, 91
1, 226238, Control_c, 0, 64, 61
1, 226238, Control_c, 0, 67, 91
1, 226253, Control_c, 0, 67, 90
1, 226268, Control_c, 0, 67, 90
1, 226277, Note_off_c, 0, 67, 61
1, 226298, Control_c, 0, 64, 59
1, 226313, Control_c, 0, 64, 56
1, 226328, Control_c, 0, 64, 53
1, 226343, Control_c, 0, 64, 53
1, 226343, Control_c, 0, 67, 89
1, 226350, Note_on_c, 0, 86, 71
1, 226358, Control_c, 0, 64, 53
1, 226358, Control_c, 0, 67, 89
1, 226373, Control_c, 0, 64, 55
1, 226377, Note_off_c, 0, 85, 51
1, 226388, Control_c, 0, 64, 56
1, 226410, Control_c, 0, 64, 57
1, 226424, Control_c, 0, 64, 59
1, 226439, Control_c, 0, 64, 60
1, 226453, Note_off_c, 0, 86, 58
1, 226454, Control_c, 0, 64, 60
1, 226454, Control_c, 0, 67, 88
1, 226469, Control_c, 0, 67, 89
1, 226484, Control_c, 0, 64, 61
1, 226488, Note_on_c, 0, 81, 66
1, 226498, Control_c, 0, 67, 89
1, 226557, Control_c, 0, 64, 60
1, 226572, Control_c, 0, 64, 58
1, 226572, Control_c, 0, 67, 90
1, 226587, Control_c, 0, 64, 52
1, 226587, Control_c, 0, 67, 91
1, 226597, Note_off_c, 0, 81, 56
1, 226602, Control_c, 0, 64, 48
1, 226617, Control_c, 0, 64, 46
1, 226617, Control_c, 0, 67, 90
1, 226623, Note_on_c, 0, 86, 63
1, 226632, Control_c, 0, 64, 45
1, 226637, Note_on_c, 0, 66, 46
1, 226637, Note_on_c, 0, 74, 53
1, 226647, Control_c, 0, 64, 46
1, 226662, Control_c, 0, 64, 49
1, 226676, Control_c, 0, 64, 53
1, 226691, Control_c, 0, 64, 56
1, 226706, Control_c, 0, 64, 58
1, 226721, Control_c, 0, 64, 59
1, 226726, Note_off_c, 0, 74, 60
1, 226736, Control_c, 0, 64, 60
1, 226750, Control_c, 0, 64, 61
1, 226750, Control_c, 0, 67, 91
1, 226765, Control_c, 0, 64, 61
1, 226768, Note_on_c, 0, 84, 67
1, 226780, Control_c, 0, 64, 62
1, 226791, Note_off_c, 0, 86, 51
1, 226795, Control_c, 0, 64, 62
1, 226795, Control_c, 0, 67, 91
1, 226824, Control_c, 0, 67, 92
1, 226839, Control_c, 0, 64, 61
1, 226854, Control_c, 0, 64, 58
1, 226854, Control_c, 0, 67, 93
1, 226868, Control_c, 0, 64, 53
1, 226883, Control_c, 0, 64, 49
1, 226896, Note_off_c, 0, 84, 57
1, 226901, Note_off_c, 0, 66, 62
1, 226905, Note_on_c, 0, 82, 62
1, 226907, Note_on_c, 0, 67, 49
1, 226908, Note_on_c, 0, 74, 43
1, 226913, Control_c, 0, 64, 50
1, 226928, Control_c, 0, 64, 52
1, 226928, Control_c, 0, 67, 93
1, 226942, Control_c, 0, 64, 53
1, 226942, Control_c, 0, 67, 93
1, 226957, Control_c, 0, 64, 55
1, 226972, Control_c, 0, 64, 56
1, 226987, Control_c, 0, 64, 58
1, 227002, Control_c, 0, 64, 60
1, 227016, Control_c, 0, 64, 61
1, 227016, Control_c, 0, 67, 92
1, 227031, Control_c, 0, 67, 92
1, 227041, Note_on_c, 0, 86, 66
1, 227051, Note_off_c, 0, 82, 30
1, 227061, Control_c, 0, 67, 93
1, 227076, Control_c, 0, 64, 59
1, 227076, Control_c, 0, 67, 94
1, 227091, Control_c, 0, 64, 52
1, 227091, Control_c, 0, 67, 94
1, 227106, Control_c, 0, 64, 45
1, 227121, Control_c, 0, 64, 42
1, 227136, Control_c, 0, 64, 43
1, 227159, Control_c, 0, 64, 46
1, 227173, Control_c, 0, 64, 50
1, 227188, Control_c, 0, 64, 52
1, 227194, Note_on_c, 0, 84, 63
1, 227207, Note_off_c, 0, 74, 43
1, 227218, Control_c, 0, 67, 94
1, 227233, Control_c, 0, 67, 93
1, 227255, Note_off_c, 0, 67, 51
1, 227282, Note_off_c, 0, 86, 33
1, 227318, Note_off_c, 0, 84, 59
1, 227321, Control_c, 0, 67, 92
1, 227324, Note_on_c, 0, 83, 60
1, 227336, Control_c, 0, 64, 53
1, 227336, Control_c, 0, 67, 92
1, 227351, Control_c, 0, 64, 55
1, 227366, Control_c, 0, 64, 56
1, 227380, Control_c, 0, 64, 57
1, 227410, Control_c, 0, 67, 91
1, 227425, Control_c, 0, 64, 54
1, 227425, Control_c, 0, 67, 91
1, 227440, Control_c, 0, 64, 49
1, 227440, Control_c, 0, 67, 91
1, 227455, Control_c, 0, 64, 47
1, 227455, Control_c, 0, 67, 92
1, 227462, Note_on_c, 0, 84, 60
1, 227470, Control_c, 0, 64, 48
1, 227473, Note_off_c, 0, 83, 55
1, 227484, Control_c, 0, 64, 52
1, 227499, Control_c, 0, 64, 55
1, 227514, Control_c, 0, 64, 57
1, 227529, Control_c, 0, 64, 58
1, 227544, Control_c, 0, 64, 58
1, 227559, Control_c, 0, 64, 60
1, 227562, Note_off_c, 0, 84, 62
1, 227573, Control_c, 0, 64, 60
1, 227588, Control_c, 0, 64, 61
1, 227588, Control_c, 0, 67, 91
1, 227601, Note_on_c, 0, 79, 57
1, 227603, Control_c, 0, 67, 91
1, 227618, Control_c, 0, 67, 90
1, 227647, Control_c, 0, 67, 91
1, 227677, Control_c, 0, 64, 61
1, 227691, Control_c, 0, 64, 59
1, 227706, Control_c, 0, 64, 56
1, 227706, Control_c, 0, 67, 90
1, 227721, Control_c, 0, 64, 52
1, 227727, Note_off_c, 0, 79, 58
1, 227732, Note_on_c, 0, 84, 62
1, 227736, Control_c, 0, 64, 49
1, 227743, Note_on_c, 0, 72, 49
1, 227744, Note_on_c, 0, 64, 47
1, 227751, Control_c, 0, 67, 90
1, 227765, Control_c, 0, 64, 51
1, 227780, Control_c, 0, 64, 54
1, 227780, Control_c, 0, 67, 89
1, 227795, Control_c, 0, 64, 56
1, 227810, Control_c, 0, 64, 58
1, 227825, Control_c, 0, 64, 60
1, 227839, Control_c, 0, 64, 61
1, 227851, Note_off_c, 0, 72, 54
1, 227854, Control_c, 0, 64, 62
1, 227854, Control_c, 0, 67, 89
1, 227869, Control_c, 0, 64, 62
1, 227869, Control_c, 0, 67, 88
1, 227884, Note_off_c, 0, 84, 64
1, 227884, Control_c, 0, 64, 63
1, 227884, Control_c, 0, 67, 89
1, 227885, Note_on_c, 0, 82, 59
1, 227906, Control_c, 0, 64, 64
1, 227906, Control_c, 0, 67, 89
1, 227922, Control_c, 0, 64, 64
1, 227937, Control_c, 0, 64, 65
1, 227997, Control_c, 0, 64, 64
1, 228011, Control_c, 0, 64, 61
1, 228026, Control_c, 0, 64, 55
1, 228041, Control_c, 0, 64, 51
1, 228041, Control_c, 0, 67, 89
1, 228055, Note_on_c, 0, 65, 51
1, 228056, Control_c, 0, 64, 50
1, 228057, Note_on_c, 0, 72, 50
1, 228071, Control_c, 0, 64, 51
1, 228071, Control_c, 0, 67, 88
1, 228084, Control_c, 0, 64, 55
1, 228084, Control_c, 0, 67, 88
1, 228091, Note_off_c, 0, 64, 34
1, 228099, Control_c, 0, 64, 58
1, 228099, Control_c, 0, 67, 87
1, 228114, Control_c, 0, 64, 59
1, 228128, Control_c, 0, 64, 60
1, 228143, Control_c, 0, 64, 61
1, 228158, Control_c, 0, 64, 62
1, 228173, Control_c, 0, 64, 63
1, 228173, Control_c, 0, 67, 87
1, 228183, Note_off_c, 0, 82, 63
1, 228188, Control_c, 0, 64, 63
1, 228188, Control_c, 0, 67, 86
1, 228202, Note_on_c, 0, 80, 58
1, 228203, Control_c, 0, 64, 64
1, 228218, Control_c, 0, 64, 65
1, 228233, Control_c, 0, 64, 65
1, 228248, Control_c, 0, 64, 66
1, 228263, Control_c, 0, 64, 66
1, 228292, Control_c, 0, 64, 67
1, 228321, Note_off_c, 0, 72, 32
1, 228321, Control_c, 0, 64, 67
1, 228336, Control_c, 0, 64, 68
1, 228336, Control_c, 0, 67, 86
1, 228344, Note_on_c, 0, 82, 57
1, 228349, Note_off_c, 0, 80, 55
1, 228351, Control_c, 0, 67, 86
1, 228366, Control_c, 0, 64, 68
1, 228382, Note_off_c, 0, 65, 62
1, 228425, Control_c, 0, 64, 69
1, 228465, Note_off_c, 0, 82, 58
1, 228478, Note_on_c, 0, 81, 58
1, 228528, Control_c, 0, 64, 68
1, 228528, Control_c, 0, 67, 87
1, 228573, Control_c, 0, 64, 67
1, 228587, Control_c, 0, 64, 63
1, 228602, Control_c, 0, 64, 59
1, 228602, Control_c, 0, 67, 86
1, 228617, Control_c, 0, 64, 55
1, 228630, Note_on_c, 0, 70, 55
1, 228632, Control_c, 0, 64, 54
1, 228650, Note_on_c, 0, 58, 33
1, 228654, Control_c, 0, 64, 54
1, 228669, Control_c, 0, 64, 56
1, 228684, Control_c, 0, 64, 58
1, 228699, Control_c, 0, 64, 60
1, 228714, Control_c, 0, 64, 62
1, 228730, Control_c, 0, 64, 63
1, 228743, Note_off_c, 0, 81, 42
1, 228744, Control_c, 0, 64, 64
1, 228759, Control_c, 0, 64, 65
1, 228769, Note_on_c, 0, 74, 58
1, 228774, Control_c, 0, 64, 65
1, 228789, Control_c, 0, 64, 66
1, 228804, Control_c, 0, 64, 67
1, 228818, Control_c, 0, 64, 67
1, 228833, Control_c, 0, 64, 68
1, 228848, Control_c, 0, 64, 68
1, 228877, Control_c, 0, 64, 69
1, 228892, Control_c, 0, 64, 69
1, 228907, Control_c, 0, 67, 87
1, 228922, Control_c, 0, 64, 70
1, 228925, Note_on_c, 0, 81, 57
1, 228932, Note_off_c, 0, 74, 41
1, 228979, Note_off_c, 0, 58, 41
1, 229017, Note_off_c, 0, 70, 35
1, 229061, Note_off_c, 0, 81, 58
1, 229061, Note_on_c, 0, 79, 63
1, 229130, Control_c, 0, 67, 87
1, 229144, Control_c, 0, 64, 69
1, 229144, Control_c, 0, 67, 88
1, 229159, Control_c, 0, 64, 69
1, 229174, Control_c, 0, 64, 67
1, 229189, Control_c, 0, 64, 63
1, 229204, Control_c, 0, 64, 59
1, 229214, Note_on_c, 0, 69, 57
1, 229218, Control_c, 0, 64, 56
1, 229224, Note_on_c, 0, 60, 40
1, 229262, Control_c, 0, 64, 57
1, 229277, Control_c, 0, 64, 58
1, 229292, Control_c, 0, 64, 59
1, 229307, Control_c, 0, 64, 61
1, 229322, Control_c, 0, 64, 62
1, 229333, Note_off_c, 0, 79, 41
1, 229336, Control_c, 0, 64, 63
1, 229348, Note_on_c, 0, 72, 54
1, 229351, Control_c, 0, 67, 87
1, 229366, Control_c, 0, 64, 63
1, 229404, Control_c, 0, 64, 64
1, 229433, Control_c, 0, 64, 64
1, 229492, Control_c, 0, 64, 65
1, 229492, Control_c, 0, 67, 88
1, 229500, Note_on_c, 0, 79, 53
1, 229505, Note_off_c, 0, 72, 35
1, 229627, Control_c, 0, 67, 88
1, 229631, Note_off_c, 0, 79, 62
1, 229646, Note_on_c, 0, 77, 46
1, 229700, Control_c, 0, 67, 89
1, 229730, Control_c, 0, 67, 89
1, 229745, Control_c, 0, 64, 64
1, 229760, Control_c, 0, 64, 63
1, 229768, Note_on_c, 0, 67, 56
1, 229774, Control_c, 0, 64, 60
1, 229786, Note_off_c, 0, 69, 43
1, 229789, Control_c, 0, 64, 55
1, 229804, Control_c, 0, 64, 51
1, 229819, Control_c, 0, 64, 50
1, 229834, Control_c, 0, 64, 51
1, 229848, Control_c, 0, 64, 53
1, 229863, Control_c, 0, 64, 56
1, 229869, Note_off_c, 0, 77, 63
1, 229878, Control_c, 0, 64, 58
1, 229893, Control_c, 0, 64, 60
1, 229900, Note_on_c, 0, 70, 54
1, 229908, Control_c, 0, 64, 61
1, 229923, Control_c, 0, 64, 62
1, 229938, Control_c, 0, 64, 63
1, 229953, Control_c, 0, 64, 63
1, 229967, Control_c, 0, 64, 64
1, 229997, Control_c, 0, 64, 64
1, 229997, Control_c, 0, 67, 90
1, 230012, Control_c, 0, 64, 65
1, 230027, Control_c, 0, 64, 65
1, 230041, Control_c, 0, 67, 90
1, 230056, Control_c, 0, 64, 66
1, 230056, Control_c, 0, 67, 91
1, 230063, Note_on_c, 0, 77, 40
1, 230071, Control_c, 0, 67, 91
1, 230085, Control_c, 0, 67, 92
1, 230093, Note_off_c, 0, 60, 40
1, 230100, Control_c, 0, 67, 92
1, 230115, Control_c, 0, 67, 93
1, 230130, Control_c, 0, 67, 94
1, 230152, Control_c, 0, 67, 95
1, 230167, Control_c, 0, 67, 95
1, 230182, Control_c, 0, 67, 96
1, 230206, Note_off_c, 0, 77, 61
1, 230209, Note_on_c, 0, 76, 50
1, 230212, Control_c, 0, 67, 97
1, 230241, Control_c, 0, 67, 98
1, 230256, Control_c, 0, 67, 99
1, 230265, Note_off_c, 0, 70, 12
1, 230271, Control_c, 0, 67, 101
1, 230286, Control_c, 0, 64, 65
1, 230286, Control_c, 0, 67, 103
1, 230300, Control_c, 0, 67, 104
1, 230316, Control_c, 0, 64, 65
1, 230316, Control_c, 0, 67, 104
1, 230331, Control_c, 0, 64, 64
1, 230331, Control_c, 0, 67, 105
1, 230346, Control_c, 0, 64, 64
1, 230346, Control_c, 0, 67, 107
1, 230361, Control_c, 0, 64, 63
1, 230361, Control_c, 0, 67, 108
1, 230371, Note_on_c, 0, 66, 54
1, 230375, Note_on_c, 0, 60, 34
1, 230376, Control_c, 0, 64, 61
1, 230376, Control_c, 0, 67, 109
1, 230390, Control_c, 0, 64, 59
1, 230390, Control_c, 0, 67, 109
1, 230405, Control_c, 0, 64, 57
1, 230405, Control_c, 0, 67, 110
1, 230420, Control_c, 0, 64, 55
1, 230420, Control_c, 0, 67, 111
1, 230435, Control_c, 0, 64, 51
1, 230435, Control_c, 0, 67, 112
1, 230450, Control_c, 0, 64, 47
1, 230450, Control_c, 0, 67, 113
1, 230464, Control_c, 0, 64, 44
1, 230468, Note_off_c, 0, 67, 35
1, 230479, Control_c, 0, 64, 44
1, 230509, Control_c, 0, 64, 46
1, 230509, Control_c, 0, 67, 113
1, 230523, Control_c, 0, 64, 49
1, 230523, Control_c, 0, 67, 114
1, 230529, Note_off_c, 0, 76, 23
1, 230536, Note_on_c, 0, 69, 50
1, 230538, Control_c, 0, 64, 52
1, 230538, Control_c, 0, 67, 114
1, 230553, Control_c, 0, 64, 55
1, 230553, Control_c, 0, 67, 115
1, 230568, Control_c, 0, 64, 58
1, 230583, Control_c, 0, 64, 60
1, 230597, Control_c, 0, 64, 61
1, 230612, Control_c, 0, 67, 116
1, 230627, Control_c, 0, 64, 61
1, 230627, Control_c, 0, 67, 117
1, 230642, Control_c, 0, 64, 62
1, 230642, Control_c, 0, 67, 118
1, 230657, Control_c, 0, 64, 63
1, 230669, Note_on_c, 0, 77, 50
1, 230671, Control_c, 0, 67, 118
1, 230686, Control_c, 0, 64, 63
1, 230701, Control_c, 0, 67, 120
1, 230716, Control_c, 0, 67, 122
1, 230731, Control_c, 0, 67, 123
1, 230738, Note_off_c, 0, 77, 52
1, 230814, Note_on_c, 0, 75, 46
1, 230819, Note_off_c, 0, 69, 42
1, 230834, Note_off_c, 0, 60, 32
1, 230864, Control_c, 0, 67, 122
1, 230879, Control_c, 0, 67, 122
1, 230901, Control_c, 0, 64, 63
1, 230916, Control_c, 0, 64, 62
1, 230930, Control_c, 0, 64, 61
1, 230945, Control_c, 0, 64, 58
1, 230950, Note_on_c, 0, 65, 52
1, 230959, Note_on_c, 0, 59, 41
1, 230960, Control_c, 0, 64, 56
1, 230975, Control_c, 0, 64, 53
1, 230975, Control_c, 0, 67, 122
1, 230990, Control_c, 0, 64, 51
1, 230990, Control_c, 0, 67, 123
1, 231005, Control_c, 0, 64, 50
1, 231032, Note_off_c, 0, 66, 43
1, 231035, Control_c, 0, 64, 51
1, 231049, Control_c, 0, 64, 53
1, 231064, Control_c, 0, 64, 55
1, 231078, Control_c, 0, 64, 58
1, 231081, Note_off_c, 0, 75, 61
1, 231082, Note_on_c, 0, 68, 51
1, 231093, Control_c, 0, 64, 59
1, 231108, Control_c, 0, 64, 60
1, 231108, Control_c, 0, 67, 122
1, 231124, Control_c, 0, 64, 60
1, 231124, Control_c, 0, 67, 121
1, 231138, Control_c, 0, 64, 61
1, 231138, Control_c, 0, 67, 121
1, 231153, Control_c, 0, 64, 61
1, 231168, Control_c, 0, 64, 62
1, 231183, Control_c, 0, 64, 62
1, 231183, Control_c, 0, 67, 120
1, 231198, Control_c, 0, 67, 119
1, 231212, Control_c, 0, 67, 119
1, 231240, Note_on_c, 0, 75, 45
1, 231242, Control_c, 0, 67, 118
1, 231255, Note_off_c, 0, 68, 46
1, 231272, Control_c, 0, 64, 63
1, 231286, Control_c, 0, 67, 118
1, 231301, Control_c, 0, 67, 117
1, 231363, Note_off_c, 0, 75, 47
1, 231381, Note_on_c, 0, 74, 48
1, 231449, Control_c, 0, 64, 62
1, 231464, Control_c, 0, 64, 62
1, 231471, Note_off_c, 0, 59, 35
1, 231479, Control_c, 0, 64, 60
1, 231494, Note_off_c, 0, 65, 50
1, 231494, Control_c, 0, 64, 55
1, 231509, Note_on_c, 0, 64, 48
1, 231509, Control_c, 0, 64, 48
1, 231520, Note_on_c, 0, 58, 43
1, 231524, Control_c, 0, 64, 45
1, 231538, Control_c, 0, 67, 117
1, 231553, Control_c, 0, 64, 46
1, 231568, Control_c, 0, 64, 49
1, 231568, Control_c, 0, 67, 116
1, 231583, Control_c, 0, 64, 52
1, 231598, Control_c, 0, 64, 55
1, 231612, Control_c, 0, 64, 57
1, 231627, Control_c, 0, 64, 59
1, 231627, Control_c, 0, 67, 115
1, 231649, Control_c, 0, 64, 60
1, 231664, Control_c, 0, 64, 61
1, 231668, Note_on_c, 0, 67, 53
1, 231679, Control_c, 0, 64, 61
1, 231679, Control_c, 0, 67, 115
1, 231690, Note_off_c, 0, 74, 37
1, 231708, Control_c, 0, 64, 62
1, 231723, Control_c, 0, 67, 114
1, 231738, Control_c, 0, 64, 62
1, 231768, Control_c, 0, 67, 115
1, 231807, Note_on_c, 0, 75, 50
1, 231932, Control_c, 0, 67, 115
1, 231938, Note_off_c, 0, 67, 33
1, 231947, Note_off_c, 0, 75, 62
1, 231957, Note_on_c, 0, 73, 49
1, 232006, Control_c, 0, 64, 62
1, 232021, Control_c, 0, 64, 61
1, 232035, Control_c, 0, 64, 61
1, 232050, Control_c, 0, 64, 59
1, 232065, Control_c, 0, 64, 55
1, 232065, Control_c, 0, 67, 116
1, 232075, Note_on_c, 0, 63, 54
1, 232080, Control_c, 0, 64, 50
1, 232087, Note_off_c, 0, 58, 42
1, 232090, Note_on_c, 0, 57, 42
1, 232094, Control_c, 0, 64, 46
1, 232109, Control_c, 0, 64, 46
1, 232109, Control_c, 0, 67, 115
1, 232124, Control_c, 0, 64, 46
1, 232139, Control_c, 0, 64, 48
1, 232154, Control_c, 0, 64, 51
1, 232167, Note_off_c, 0, 64, 41
1, 232168, Control_c, 0, 64, 54
1, 232183, Control_c, 0, 64, 57
1, 232187, Note_off_c, 0, 73, 64
1, 232198, Control_c, 0, 64, 59
1, 232198, Control_c, 0, 67, 115
1, 232208, Note_on_c, 0, 66, 54
1, 232213, Control_c, 0, 64, 60
1, 232213, Control_c, 0, 67, 114
1, 232228, Control_c, 0, 64, 61
1, 232242, Control_c, 0, 64, 61
1, 232272, Control_c, 0, 64, 62
1, 232287, Control_c, 0, 64, 62
1, 232302, Control_c, 0, 64, 63
1, 232358, Note_on_c, 0, 73, 46
1, 232372, Note_off_c, 0, 66, 0
1, 232417, Poly_aftertouch_c, 0, 66, 127
1, 232493, Poly_aftertouch_c, 0, 66, 0
1, 232499, Note_off_c, 0, 73, 50
1, 232501, Note_on_c, 0, 72, 54
1, 232516, Control_c, 0, 67, 115
1, 232561, Control_c, 0, 64, 62
1, 232576, Control_c, 0, 64, 61
1, 232591, Control_c, 0, 64, 60
1, 232606, Control_c, 0, 64, 55
1, 232621, Control_c, 0, 64, 46
1, 232625, Note_off_c, 0, 57, 28
1, 232635, Note_on_c, 0, 62, 57
1, 232636, Control_c, 0, 64, 36
1, 232643, Note_on_c, 0, 58, 46
1, 232650, Control_c, 0, 64, 28
1, 232650, Control_c, 0, 67, 114
1, 232665, Note_off_c, 0, 63, 59
1, 232665, Control_c, 0, 64, 28
1, 232665, Control_c, 0, 67, 114
1, 232680, Control_c, 0, 64, 31
1, 232680, Control_c, 0, 67, 113
1, 232695, Control_c, 0, 64, 39
1, 232695, Control_c, 0, 67, 112
1, 232704, Note_off_c, 0, 72, 35
1, 232710, Control_c, 0, 64, 49
1, 232710, Control_c, 0, 67, 112
1, 232725, Control_c, 0, 64, 54
1, 232725, Control_c, 0, 67, 111
1, 232740, Control_c, 0, 64, 57
1, 232755, Control_c, 0, 64, 59
1, 232755, Control_c, 0, 67, 111
1, 232770, Control_c, 0, 64, 60
1, 232770, Control_c, 0, 67, 110
1, 232785, Control_c, 0, 64, 61
1, 232785, Control_c, 0, 67, 109
1, 232785, Note_on_c, 0, 67, 53
1, 232799, Control_c, 0, 64, 62
1, 232799, Control_c, 0, 67, 109
1, 232814, Control_c, 0, 64, 63
1, 232814, Control_c, 0, 67, 108
1, 232818, Note_off_c, 0, 62, 62
1, 232829, Control_c, 0, 64, 63
1, 232829, Control_c, 0, 67, 108
1, 232844, Control_c, 0, 64, 64
1, 232859, Control_c, 0, 64, 64
1, 232874, Control_c, 0, 64, 65
1, 232886, Note_off_c, 0, 67, 56
1, 232888, Note_off_c, 0, 58, 56
1, 232889, Control_c, 0, 64, 66
1, 232904, Control_c, 0, 64, 66
1, 232919, Note_on_c, 0, 72, 52
1, 233022, Control_c, 0, 67, 108
1, 233024, Note_off_c, 0, 72, 59
1, 233052, Control_c, 0, 67, 108
1, 233057, Note_on_c, 0, 70, 52
1, 233096, Control_c, 0, 67, 108
1, 233110, Control_c, 0, 64, 66
1, 233125, Control_c, 0, 64, 65
1, 233148, Control_c, 0, 64, 64
1, 233163, Control_c, 0, 64, 60
1, 233178, Control_c, 0, 64, 53
1, 233191, Note_on_c, 0, 58, 52
1, 233192, Control_c, 0, 64, 45
1, 233192, Control_c, 0, 67, 109
1, 233207, Control_c, 0, 64, 42
1, 233220, Note_on_c, 0, 46, 33
1, 233222, Control_c, 0, 64, 43
1, 233222, Control_c, 0, 67, 108
1, 233236, Control_c, 0, 64, 47
1, 233251, Control_c, 0, 64, 51
1, 233259, Note_off_c, 0, 70, 61
1, 233266, Control_c, 0, 64, 54
1, 233281, Control_c, 0, 64, 57
1, 233296, Control_c, 0, 64, 59
1, 233310, Control_c, 0, 64, 60
1, 233317, Note_on_c, 0, 62, 53
1, 233325, Control_c, 0, 64, 61
1, 233340, Control_c, 0, 64, 62
1, 233340, Control_c, 0, 67, 108
1, 233355, Control_c, 0, 64, 62
1, 233370, Control_c, 0, 64, 63
1, 233384, Control_c, 0, 64, 63
1, 233384, Control_c, 0, 67, 108
1, 233399, Control_c, 0, 64, 64
1, 233414, Control_c, 0, 64, 65
1, 233416, Note_off_c, 0, 62, 50
1, 233429, Control_c, 0, 64, 65
1, 233452, Note_on_c, 0, 69, 56
1, 233458, Control_c, 0, 64, 66
1, 233482, Note_off_c, 0, 46, 41
1, 233500, Note_off_c, 0, 58, 36
1, 233503, Control_c, 0, 64, 66
1, 233578, Note_off_c, 0, 69, 58
1, 233592, Note_on_c, 0, 67, 56
1, 233667, Control_c, 0, 64, 66
1, 233697, Control_c, 0, 64, 65
1, 233712, Control_c, 0, 64, 64
1, 233727, Control_c, 0, 64, 60
1, 233727, Note_on_c, 0, 57, 56
1, 233741, Control_c, 0, 64, 53
1, 233744, Note_on_c, 0, 48, 39
1, 233756, Control_c, 0, 64, 45
1, 233771, Control_c, 0, 64, 39
1, 233801, Control_c, 0, 64, 42
1, 233815, Control_c, 0, 64, 48
1, 233828, Note_off_c, 0, 67, 44
1, 233830, Control_c, 0, 64, 52
1, 233845, Control_c, 0, 64, 55
1, 233845, Control_c, 0, 67, 108
1, 233858, Note_on_c, 0, 60, 52
1, 233859, Control_c, 0, 64, 56
1, 233874, Control_c, 0, 64, 58
1, 233896, Control_c, 0, 64, 59
1, 233911, Control_c, 0, 64, 60
1, 233926, Control_c, 0, 64, 61
1, 233926, Control_c, 0, 67, 107
1, 233941, Control_c, 0, 64, 62
1, 233956, Control_c, 0, 64, 62
1, 233971, Control_c, 0, 64, 63
1, 234001, Control_c, 0, 64, 63
1, 234007, Note_off_c, 0, 60, 51
1, 234016, Note_on_c, 0, 67, 34
1, 234030, Control_c, 0, 64, 64
1, 234045, Control_c, 0, 67, 107
1, 234119, Control_c, 0, 67, 106
1, 234133, Control_c, 0, 64, 64
1, 234134, Note_off_c, 0, 67, 51
1, 234142, Note_on_c, 0, 65, 52
1, 234163, Control_c, 0, 67, 106
1, 234252, Control_c, 0, 64, 64
1, 234266, Control_c, 0, 64, 62
1, 234266, Control_c, 0, 67, 105
1, 234281, Note_on_c, 0, 55, 55
1, 234281, Control_c, 0, 64, 58
1, 234296, Control_c, 0, 64, 51
1, 234296, Control_c, 0, 67, 105
1, 234301, Note_off_c, 0, 57, 41
1, 234312, Control_c, 0, 64, 43
1, 234327, Control_c, 0, 64, 39
1, 234327, Control_c, 0, 67, 104
1, 234342, Control_c, 0, 64, 40
1, 234342, Control_c, 0, 67, 104
1, 234356, Control_c, 0, 64, 43
1, 234371, Note_off_c, 0, 65, 54
1, 234371, Control_c, 0, 64, 48
1, 234386, Control_c, 0, 64, 52
1, 234401, Control_c, 0, 64, 55
1, 234401, Control_c, 0, 67, 103
1, 234407, Note_on_c, 0, 58, 56
1, 234416, Control_c, 0, 64, 58
1, 234416, Control_c, 0, 67, 103
1, 234431, Control_c, 0, 64, 59
1, 234431, Control_c, 0, 67, 102
1, 234445, Control_c, 0, 64, 61
1, 234445, Control_c, 0, 67, 101
1, 234460, Control_c, 0, 64, 62
1, 234475, Control_c, 0, 64, 63
1, 234475, Control_c, 0, 67, 101
1, 234490, Control_c, 0, 64, 63
1, 234490, Control_c, 0, 67, 100
1, 234505, Control_c, 0, 64, 64
1, 234505, Control_c, 0, 67, 99
1, 234519, Control_c, 0, 64, 65
1, 234522, Note_on_c, 0, 65, 55
1, 234534, Control_c, 0, 64, 65
1, 234549, Control_c, 0, 64, 66
1, 234564, Control_c, 0, 64, 67
1, 234568, Note_off_c, 0, 48, 41
1, 234579, Control_c, 0, 64, 67
1, 234579, Control_c, 0, 67, 99
1, 234594, Control_c, 0, 64, 68
1, 234594, Control_c, 0, 67, 98
1, 234597, Note_off_c, 0, 55, 57
1, 234609, Control_c, 0, 64, 68
1, 234609, Control_c, 0, 67, 97
1, 234624, Control_c, 0, 64, 69
1, 234624, Control_c, 0, 67, 96
1, 234643, Note_off_c, 0, 58, 20
1, 234645, Control_c, 0, 64, 69
1, 234646, Note_off_c, 0, 65, 58
1, 234660, Control_c, 0, 64, 70
1, 234675, Control_c, 0, 64, 70
1, 234677, Note_on_c, 0, 64, 57
1, 234689, Control_c, 0, 64, 71
1, 234704, Control_c, 0, 64, 71
1, 234704, Control_c, 0, 67, 96
1, 234719, Control_c, 0, 64, 72
1, 234724, Note_off_c, 0, 64, 59
1, 234734, Control_c, 0, 64, 72
1, 234749, Control_c, 0, 64, 73
1, 234749, Control_c, 0, 67, 95
1, 234764, Control_c, 0, 67, 94
1, 234779, Control_c, 0, 67, 94
1, 234794, Control_c, 0, 67, 93
1, 234809, Control_c, 0, 67, 93
1, 234823, Control_c, 0, 64, 71
1, 234834, Note_on_c, 0, 59, 64
1, 234837, Control_c, 0, 64, 68
1, 234837, Control_c, 0, 67, 92
1, 234844, Note_on_c, 0, 53, 53
1, 234850, Note_on_c, 0, 50, 57
1, 234852, Control_c, 0, 64, 63
1, 234867, Control_c, 0, 64, 57
1, 234867, Control_c, 0, 67, 92
1, 234881, Control_c, 0, 64, 50
1, 234881, Control_c, 0, 67, 91
1, 234896, Control_c, 0, 64, 46
1, 234896, Control_c, 0, 67, 89
1, 234911, Control_c, 0, 64, 43
1, 234911, Control_c, 0, 67, 88
1, 234926, Control_c, 0, 64, 41
1, 234926, Control_c, 0, 67, 87
1, 234927, Note_on_c, 0, 65, 49
1, 234941, Control_c, 0, 64, 41
1, 234970, Control_c, 0, 64, 42
1, 234985, Control_c, 0, 64, 44
1, 234986, Note_on_c, 0, 67, 67
1, 234990, Note_off_c, 0, 65, 62
1, 235000, Control_c, 0, 64, 45
1, 235059, Note_off_c, 0, 67, 61
1, 235059, Control_c, 0, 64, 46
1, 235074, Control_c, 0, 64, 48
1, 235076, Note_on_c, 0, 69, 64
1, 235089, Control_c, 0, 64, 49
1, 235128, Note_off_c, 0, 69, 64
1, 235134, Control_c, 0, 64, 50
1, 235142, Note_on_c, 0, 71, 67
1, 235149, Control_c, 0, 64, 51
1, 235164, Control_c, 0, 64, 51
1, 235173, Note_off_c, 0, 71, 61
1, 235178, Control_c, 0, 64, 50
1, 235220, Note_on_c, 0, 72, 71
1, 235223, Control_c, 0, 64, 51
1, 235238, Control_c, 0, 64, 53
1, 235253, Control_c, 0, 64, 54
1, 235268, Control_c, 0, 64, 55
1, 235283, Control_c, 0, 64, 56
1, 235291, Note_off_c, 0, 72, 58
1, 235297, Control_c, 0, 64, 57
1, 235310, Note_on_c, 0, 74, 63
1, 235312, Control_c, 0, 64, 57
1, 235355, Note_off_c, 0, 59, 61
1, 235363, Note_off_c, 0, 50, 58
1, 235369, Note_off_c, 0, 74, 58
1, 235371, Note_off_c, 0, 53, 61
1, 235389, Note_on_c, 0, 76, 71
1, 235408, Control_c, 0, 64, 58
1, 235423, Control_c, 0, 64, 57
1, 235426, Note_off_c, 0, 76, 65
1, 235438, Control_c, 0, 64, 57
1, 235453, Control_c, 0, 64, 56
1, 235467, Control_c, 0, 64, 55
1, 235469, Note_on_c, 0, 77, 68
1, 235482, Control_c, 0, 64, 53
1, 235497, Control_c, 0, 64, 50
1, 235512, Control_c, 0, 64, 46
1, 235527, Control_c, 0, 64, 45
1, 235542, Control_c, 0, 64, 45
1, 235542, Note_off_c, 0, 77, 56
1, 235557, Control_c, 0, 64, 48
1, 235559, Note_on_c, 0, 59, 66
1, 235567, Note_on_c, 0, 53, 56
1, 235567, Note_on_c, 0, 79, 63
1, 235572, Control_c, 0, 64, 53
1, 235574, Note_on_c, 0, 50, 47
1, 235587, Control_c, 0, 64, 56
1, 235601, Control_c, 0, 64, 57
1, 235616, Note_off_c, 0, 50, 62
1, 235616, Control_c, 0, 64, 58
1, 235631, Control_c, 0, 64, 59
1, 235631, Control_c, 0, 67, 86
1, 235644, Note_off_c, 0, 79, 61
1, 235646, Control_c, 0, 64, 60
1, 235646, Control_c, 0, 67, 86
1, 235649, Note_off_c, 0, 59, 62
1, 235650, Note_on_c, 0, 81, 67
1, 235661, Control_c, 0, 64, 61
1, 235664, Note_off_c, 0, 53, 58
1, 235691, Control_c, 0, 67, 85
1, 235700, Note_off_c, 0, 81, 62
1, 235705, Control_c, 0, 64, 60
1, 235705, Control_c, 0, 67, 85
1, 235720, Control_c, 0, 64, 59
1, 235734, Note_on_c, 0, 77, 65
1, 235735, Control_c, 0, 64, 57
1, 235735, Control_c, 0, 67, 84
1, 235750, Control_c, 0, 64, 54
1, 235765, Control_c, 0, 64, 51
1, 235770, Note_off_c, 0, 77, 62
1, 235779, Control_c, 0, 64, 49
1, 235779, Control_c, 0, 67, 84
1, 235794, Control_c, 0, 64, 47
1, 235809, Control_c, 0, 67, 82
1, 235824, Control_c, 0, 67, 82
1, 235830, Note_on_c, 0, 60, 72
1, 235837, Note_on_c, 0, 53, 57
1, 235843, Note_on_c, 0, 48, 49
1, 235898, Control_c, 0, 67, 81
1, 235900, Note_on_c, 0, 81, 63
1, 235914, Control_c, 0, 67, 80
1, 235928, Control_c, 0, 67, 79
1, 235943, Control_c, 0, 67, 77
1, 235958, Control_c, 0, 64, 48
1, 235958, Control_c, 0, 67, 75
1, 235973, Control_c, 0, 64, 49
1, 235973, Control_c, 0, 67, 71
1, 235977, Note_on_c, 0, 79, 68
1, 235983, Note_off_c, 0, 81, 56
1, 235988, Control_c, 0, 67, 66
1, 236002, Control_c, 0, 67, 60
1, 236017, Control_c, 0, 67, 55
1, 236032, Control_c, 0, 64, 51
1, 236032, Control_c, 0, 67, 51
1, 236047, Control_c, 0, 64, 54
1, 236047, Control_c, 0, 67, 46
1, 236053, Note_on_c, 0, 77, 70
1, 236062, Control_c, 0, 64, 56
1, 236062, Control_c, 0, 67, 40
1, 236076, Control_c, 0, 64, 57
1, 236076, Control_c, 0, 67, 33
1, 236081, Note_off_c, 0, 79, 58
1, 236091, Control_c, 0, 64, 56
1, 236091, Control_c, 0, 67, 24
1, 236106, Control_c, 0, 67, 15
1, 236121, Control_c, 0, 64, 57
1, 236121, Control_c, 0, 67, 0
1, 236143, Control_c, 0, 64, 58
1, 236144, Note_on_c, 0, 76, 71
1, 236147, Note_off_c, 0, 77, 63
1, 236158, Control_c, 0, 64, 60
1, 236188, Control_c, 0, 64, 61
1, 236196, Note_off_c, 0, 76, 64
1, 236203, Control_c, 0, 64, 61
1, 236215, Note_on_c, 0, 74, 68
1, 236217, Control_c, 0, 64, 62
1, 236232, Control_c, 0, 64, 63
1, 236306, Control_c, 0, 64, 65
1, 236315, Note_on_c, 0, 72, 63
1, 236321, Control_c, 0, 64, 66
1, 236325, Note_off_c, 0, 60, 59
1, 236335, Control_c, 0, 64, 67
1, 236343, Note_off_c, 0, 74, 28
1, 236347, Note_off_c, 0, 53, 62
1, 236359, Note_off_c, 0, 72, 62
1, 236370, Note_off_c, 0, 48, 58
1, 236383, Note_on_c, 0, 70, 58
1, 236439, Note_off_c, 0, 70, 64
1, 236457, Note_on_c, 0, 69, 63
1, 236484, Control_c, 0, 64, 65
1, 236499, Control_c, 0, 64, 62
1, 236514, Control_c, 0, 64, 57
1, 236515, Note_off_c, 0, 69, 45
1, 236529, Control_c, 0, 64, 51
1, 236542, Note_on_c, 0, 48, 58
1, 236543, Note_on_c, 0, 53, 69
1, 236543, Control_c, 0, 64, 49
1, 236543, Note_on_c, 0, 57, 70
1, 236552, Note_on_c, 0, 67, 54
1, 236558, Control_c, 0, 64, 49
1, 236573, Control_c, 0, 64, 52
1, 236588, Control_c, 0, 64, 57
1, 236594, Note_off_c, 0, 48, 62
1, 236603, Control_c, 0, 64, 61
1, 236610, Note_off_c, 0, 57, 61
1, 236612, Note_off_c, 0, 53, 62
1, 236615, Note_off_c, 0, 67, 62
1, 236617, Control_c, 0, 64, 62
1, 236631, Note_on_c, 0, 69, 64
1, 236632, Control_c, 0, 64, 62
1, 236647, Control_c, 0, 64, 63
1, 236661, Control_c, 0, 64, 63
1, 236691, Note_off_c, 0, 69, 64
1, 236722, Note_on_c, 0, 65, 70
1, 236737, Control_c, 0, 64, 61
1, 236751, Control_c, 0, 64, 58
1, 236766, Control_c, 0, 64, 54
1, 236772, Note_off_c, 0, 65, 61
1, 236781, Control_c, 0, 64, 50
1, 236796, Control_c, 0, 64, 44
1, 236811, Control_c, 0, 64, 35
1, 236815, Note_on_c, 0, 57, 76
1, 236817, Note_on_c, 0, 53, 70
1, 236818, Note_on_c, 0, 50, 63
1, 236822, Note_on_c, 0, 47, 57
1, 236825, Control_c, 0, 64, 20
1, 236840, Control_c, 0, 64, 13
1, 236895, Note_on_c, 0, 65, 70
1, 236922, Control_c, 0, 64, 15
1, 236937, Control_c, 0, 64, 24
1, 236952, Control_c, 0, 64, 32
1, 236966, Control_c, 0, 64, 35
1, 236976, Note_on_c, 0, 67, 77
1, 236977, Note_off_c, 0, 65, 63
1, 237011, Control_c, 0, 64, 35
1, 237026, Control_c, 0, 64, 37
1, 237040, Control_c, 0, 64, 39
1, 237053, Note_off_c, 0, 67, 64
1, 237060, Note_on_c, 0, 69, 68
1, 237070, Control_c, 0, 64, 39
1, 237084, Control_c, 0, 64, 41
1, 237099, Control_c, 0, 64, 43
1, 237114, Control_c, 0, 64, 43
1, 237116, Note_off_c, 0, 69, 65
1, 237124, Note_on_c, 0, 71, 75
1, 237129, Control_c, 0, 64, 44
1, 237144, Control_c, 0, 64, 46
1, 237158, Control_c, 0, 64, 50
1, 237166, Note_off_c, 0, 71, 63
1, 237173, Control_c, 0, 64, 55
1, 237188, Control_c, 0, 64, 59
1, 237203, Note_on_c, 0, 72, 79
1, 237203, Control_c, 0, 64, 60
1, 237218, Control_c, 0, 64, 61
1, 237232, Control_c, 0, 64, 61
1, 237262, Control_c, 0, 64, 62
1, 237277, Control_c, 0, 64, 62
1, 237284, Note_off_c, 0, 72, 61
1, 237289, Note_on_c, 0, 74, 78
1, 237292, Control_c, 0, 64, 63
1, 237321, Control_c, 0, 64, 63
1, 237336, Control_c, 0, 64, 64
1, 237369, Note_off_c, 0, 57, 61
1, 237371, Note_on_c, 0, 76, 80
1, 237371, Note_off_c, 0, 47, 62
1, 237371, Note_off_c, 0, 50, 63
1, 237372, Note_off_c, 0, 74, 62
1, 237380, Note_off_c, 0, 53, 57
1, 237420, Note_off_c, 0, 76, 62
1, 237426, Control_c, 0, 64, 61
1, 237440, Control_c, 0, 64, 54
1, 237443, Note_on_c, 0, 77, 77
1, 237455, Control_c, 0, 64, 47
1, 237470, Control_c, 0, 64, 43
1, 237484, Control_c, 0, 64, 43
1, 237500, Control_c, 0, 64, 45
1, 237515, Control_c, 0, 64, 51
1, 237521, Note_off_c, 0, 77, 62
1, 237530, Note_on_c, 0, 50, 69
1, 237530, Control_c, 0, 64, 58
1, 237530, Note_on_c, 0, 79, 80
1, 237531, Note_on_c, 0, 53, 69
1, 237533, Note_on_c, 0, 57, 75
1, 237539, Note_on_c, 0, 47, 61
1, 237545, Control_c, 0, 64, 60
1, 237560, Control_c, 0, 64, 62
1, 237574, Control_c, 0, 64, 63
1, 237589, Note_off_c, 0, 47, 60
1, 237589, Control_c, 0, 64, 64
1, 237593, Note_off_c, 0, 50, 56
1, 237603, Note_off_c, 0, 57, 63
1, 237604, Note_off_c, 0, 79, 59
1, 237604, Control_c, 0, 64, 65
1, 237609, Note_off_c, 0, 53, 61
1, 237617, Note_on_c, 0, 81, 77
1, 237683, Note_off_c, 0, 81, 64
1, 237706, Note_on_c, 0, 77, 79
1, 237715, Control_c, 0, 64, 63
1, 237730, Control_c, 0, 64, 59
1, 237745, Control_c, 0, 64, 53
1, 237759, Note_off_c, 0, 77, 65
1, 237760, Control_c, 0, 64, 48
1, 237775, Control_c, 0, 64, 42
1, 237789, Control_c, 0, 64, 34
1, 237804, Control_c, 0, 64, 23
1, 237816, Note_on_c, 0, 57, 82
1, 237819, Note_on_c, 0, 53, 79
1, 237819, Control_c, 0, 64, 19
1, 237825, Note_on_c, 0, 48, 66
1, 237834, Control_c, 0, 64, 21
1, 237849, Control_c, 0, 64, 26
1, 237863, Control_c, 0, 64, 30
1, 237878, Control_c, 0, 64, 33
1, 237893, Control_c, 0, 64, 36
1, 237900, Note_on_c, 0, 81, 76
1, 237907, Control_c, 0, 64, 39
1, 237922, Control_c, 0, 64, 42
1, 237937, Control_c, 0, 64, 44
1, 237974, Note_on_c, 0, 79, 76
1, 237981, Control_c, 0, 64, 45
1, 237996, Control_c, 0, 64, 48
1, 238011, Control_c, 0, 64, 51
1, 238022, Note_off_c, 0, 81, 62
1, 238026, Control_c, 0, 64, 50
1, 238041, Control_c, 0, 64, 50
1, 238049, Note_on_c, 0, 77, 77
1, 238070, Control_c, 0, 64, 51
1, 238085, Control_c, 0, 64, 53
1, 238098, Note_off_c, 0, 79, 64
1, 238100, Control_c, 0, 64, 53
1, 238130, Note_on_c, 0, 76, 81
1, 238135, Note_off_c, 0, 77, 65
1, 238144, Control_c, 0, 64, 55
1, 238159, Control_c, 0, 64, 58
1, 238174, Control_c, 0, 64, 60
1, 238193, Note_off_c, 0, 76, 64
1, 238212, Note_on_c, 0, 74, 76
1, 238219, Control_c, 0, 64, 61
1, 238233, Control_c, 0, 64, 62
1, 238248, Control_c, 0, 64, 64
1, 238263, Control_c, 0, 64, 65
1, 238278, Control_c, 0, 64, 66
1, 238287, Note_off_c, 0, 74, 41
1, 238290, Note_on_c, 0, 72, 76
1, 238293, Control_c, 0, 64, 66
1, 238308, Control_c, 0, 64, 67
1, 238323, Control_c, 0, 64, 68
1, 238331, Note_off_c, 0, 57, 60
1, 238338, Control_c, 0, 64, 68
1, 238353, Control_c, 0, 64, 69
1, 238358, Note_off_c, 0, 53, 60
1, 238359, Note_off_c, 0, 72, 61
1, 238379, Note_on_c, 0, 70, 79
1, 238405, Control_c, 0, 64, 69
1, 238418, Note_off_c, 0, 48, 25
1, 238434, Control_c, 0, 64, 69
1, 238438, Note_off_c, 0, 70, 64
1, 238449, Control_c, 0, 64, 65
1, 238455, Note_on_c, 0, 69, 78
1, 238464, Control_c, 0, 64, 59
1, 238478, Control_c, 0, 64, 50
1, 238493, Control_c, 0, 64, 45
1, 238508, Control_c, 0, 64, 44
1, 238523, Control_c, 0, 64, 46
1, 238538, Note_on_c, 0, 53, 79
1, 238538, Control_c, 0, 64, 54
1, 238540, Note_on_c, 0, 57, 77
1, 238541, Note_on_c, 0, 48, 69
1, 238542, Note_on_c, 0, 67, 72
1, 238550, Note_off_c, 0, 69, 62
1, 238553, Control_c, 0, 64, 61
1, 238567, Control_c, 0, 64, 64
1, 238569, Note_off_c, 0, 53, 65
1, 238570, Note_off_c, 0, 48, 64
1, 238582, Control_c, 0, 64, 66
1, 238591, Note_off_c, 0, 57, 62
1, 238597, Control_c, 0, 64, 68
1, 238607, Note_off_c, 0, 67, 63
1, 238612, Control_c, 0, 64, 70
1, 238615, Note_on_c, 0, 69, 73
1, 238627, Control_c, 0, 64, 72
1, 238642, Control_c, 0, 64, 73
1, 238680, Note_off_c, 0, 69, 66
1, 238701, Control_c, 0, 64, 70
1, 238711, Note_on_c, 0, 65, 78
1, 238716, Control_c, 0, 64, 63
1, 238730, Control_c, 0, 64, 48
1, 238745, Control_c, 0, 64, 0
1, 238761, Note_off_c, 0, 65, 63
1, 238804, Note_on_c, 0, 56, 80
1, 238805, Note_on_c, 0, 59, 81
1, 238809, Note_on_c, 0, 49, 73
1, 238809, Note_on_c, 0, 53, 74
1, 238878, Note_on_c, 0, 65, 77
1, 238908, Control_c, 0, 64, 27
1, 238922, Control_c, 0, 64, 40
1, 238937, Control_c, 0, 64, 41
1, 238952, Control_c, 0, 64, 40
1, 238956, Note_on_c, 0, 67, 78
1, 238960, Note_off_c, 0, 65, 62
1, 238967, Control_c, 0, 64, 41
1, 238982, Control_c, 0, 64, 47
1, 238997, Control_c, 0, 64, 51
1, 239030, Note_on_c, 0, 68, 82
1, 239030, Note_off_c, 0, 67, 60
1, 239056, Control_c, 0, 64, 52
1, 239071, Control_c, 0, 64, 54
1, 239086, Control_c, 0, 64, 55
1, 239092, Note_off_c, 0, 68, 65
1, 239112, Note_on_c, 0, 71, 80
1, 239139, Control_c, 0, 64, 55
1, 239154, Control_c, 0, 64, 58
1, 239168, Control_c, 0, 64, 59
1, 239183, Control_c, 0, 64, 60
1, 239205, Note_on_c, 0, 72, 81
1, 239205, Note_off_c, 0, 71, 63
1, 239242, Control_c, 0, 64, 59
1, 239257, Control_c, 0, 64, 57
1, 239272, Control_c, 0, 64, 52
1, 239285, Note_on_c, 0, 73, 83
1, 239286, Control_c, 0, 64, 49
1, 239288, Note_off_c, 0, 72, 63
1, 239316, Control_c, 0, 64, 51
1, 239331, Control_c, 0, 64, 56
1, 239341, Note_off_c, 0, 73, 65
1, 239346, Control_c, 0, 64, 61
1, 239351, Note_off_c, 0, 59, 65
1, 239360, Control_c, 0, 64, 62
1, 239365, Note_on_c, 0, 76, 79
1, 239372, Note_off_c, 0, 56, 62
1, 239374, Note_off_c, 0, 53, 61
1, 239375, Control_c, 0, 64, 62
1, 239376, Note_off_c, 0, 49, 52
1, 239420, Control_c, 0, 64, 63
1, 239435, Control_c, 0, 64, 62
1, 239443, Note_off_c, 0, 76, 63
1, 239446, Note_on_c, 0, 77, 81
1, 239450, Control_c, 0, 64, 60
1, 239465, Control_c, 0, 64, 54
1, 239479, Control_c, 0, 64, 49
1, 239494, Control_c, 0, 64, 49
1, 239509, Control_c, 0, 64, 52
1, 239524, Control_c, 0, 64, 58
1, 239526, Note_on_c, 0, 59, 78
1, 239528, Note_on_c, 0, 49, 56
1, 239528, Note_on_c, 0, 56, 67
1, 239533, Note_off_c, 0, 77, 64
1, 239537, Note_on_c, 0, 53, 59
1, 239539, Control_c, 0, 64, 62
1, 239543, Note_on_c, 0, 79, 79
1, 239553, Control_c, 0, 64, 64
1, 239568, Control_c, 0, 64, 65
1, 239583, Control_c, 0, 64, 67
1, 239587, Note_off_c, 0, 59, 63
1, 239588, Note_off_c, 0, 56, 61
1, 239593, Note_off_c, 0, 49, 62
1, 239598, Control_c, 0, 64, 68
1, 239600, Note_off_c, 0, 53, 58
1, 239613, Control_c, 0, 64, 69
1, 239620, Note_off_c, 0, 79, 65
1, 239627, Control_c, 0, 64, 69
1, 239628, Note_on_c, 0, 80, 79
1, 239642, Control_c, 0, 64, 70
1, 239679, Note_off_c, 0, 80, 63
1, 239697, Note_on_c, 0, 48, 72
1, 239701, Note_on_c, 0, 77, 77
1, 239701, Control_c, 0, 64, 69
1, 239716, Control_c, 0, 64, 68
1, 239726, Note_on_c, 0, 53, 71
1, 239731, Note_off_c, 0, 77, 65
1, 239731, Control_c, 0, 64, 65
1, 239745, Control_c, 0, 64, 59
1, 239760, Control_c, 0, 64, 50
1, 239762, Note_on_c, 0, 57, 74
1, 239775, Control_c, 0, 64, 44
1, 239790, Control_c, 0, 64, 42
1, 239805, Control_c, 0, 64, 43
1, 239819, Control_c, 0, 64, 47
1, 239834, Note_on_c, 0, 81, 80
1, 239834, Control_c, 0, 64, 47
1, 239836, Note_on_c, 0, 60, 88
1, 239849, Control_c, 0, 64, 46
1, 239886, Control_c, 0, 64, 48
1, 239902, Control_c, 0, 64, 52
1, 239906, Note_on_c, 0, 79, 85
1, 239917, Control_c, 0, 64, 54
1, 239933, Note_off_c, 0, 81, 65
1, 239947, Control_c, 0, 64, 55
1, 239962, Control_c, 0, 64, 57
1, 239971, Note_on_c, 0, 77, 69
1, 239975, Note_off_c, 0, 79, 65
1, 239977, Control_c, 0, 64, 60
1, 239991, Control_c, 0, 64, 60
1, 240006, Control_c, 0, 64, 56
1, 240016, Note_off_c, 0, 77, 65
1, 240021, Control_c, 0, 64, 50
1, 240025, Note_on_c, 0, 76, 66
1, 240036, Control_c, 0, 64, 45
1, 240051, Control_c, 0, 64, 43
1, 240065, Control_c, 0, 64, 46
1, 240069, Note_off_c, 0, 76, 62
1, 240080, Control_c, 0, 64, 50
1, 240092, Note_on_c, 0, 74, 66
1, 240095, Control_c, 0, 64, 52
1, 240109, Control_c, 0, 64, 52
1, 240139, Control_c, 0, 64, 53
1, 240150, Note_on_c, 0, 72, 72
1, 240154, Control_c, 0, 64, 56
1, 240169, Control_c, 0, 64, 57
1, 240180, Note_off_c, 0, 74, 64
1, 240183, Control_c, 0, 64, 57
1, 240198, Control_c, 0, 64, 56
1, 240204, Note_off_c, 0, 72, 64
1, 240213, Note_on_c, 0, 70, 66
1, 240228, Control_c, 0, 64, 54
1, 240236, Note_off_c, 0, 70, 57
1, 240243, Control_c, 0, 64, 50
1, 240258, Control_c, 0, 64, 46
1, 240258, Note_on_c, 0, 71, 24
1, 240268, Note_on_c, 0, 69, 75
1, 240287, Control_c, 0, 64, 48
1, 240296, Note_off_c, 0, 71, 32
1, 240302, Control_c, 0, 64, 53
1, 240317, Control_c, 0, 64, 56
1, 240330, Note_off_c, 0, 69, 59
1, 240332, Control_c, 0, 64, 59
1, 240340, Note_on_c, 0, 77, 77
1, 240347, Control_c, 0, 64, 61
1, 240362, Control_c, 0, 64, 62
1, 240376, Control_c, 0, 64, 63
1, 240391, Control_c, 0, 64, 63
1, 240399, Note_on_c, 0, 76, 74
1, 240406, Note_off_c, 0, 60, 55
1, 240406, Control_c, 0, 64, 64
1, 240422, Note_off_c, 0, 77, 57
1, 240451, Note_off_c, 0, 76, 65
1, 240465, Note_on_c, 0, 74, 68
1, 240465, Control_c, 0, 64, 66
1, 240480, Control_c, 0, 64, 66
1, 240484, Note_off_c, 0, 57, 56
1, 240490, Note_off_c, 0, 74, 68
1, 240509, Control_c, 0, 64, 66
1, 240511, Note_on_c, 0, 72, 71
1, 240511, Note_off_c, 0, 48, 53
1, 240520, Note_off_c, 0, 53, 59
1, 240524, Control_c, 0, 64, 64
1, 240539, Control_c, 0, 64, 58
1, 240544, Note_off_c, 0, 72, 57
1, 240554, Control_c, 0, 64, 40
1, 240568, Control_c, 0, 64, 0
1, 240580, Note_on_c, 0, 70, 66
1, 240637, Note_on_c, 0, 69, 80
1, 240672, Note_off_c, 0, 70, 62
1, 240702, Note_on_c, 0, 67, 77
1, 240703, Note_off_c, 0, 69, 65
1, 240748, Note_off_c, 0, 67, 66
1, 240767, Note_on_c, 0, 65, 76
1, 240825, Note_on_c, 0, 53, 85
1, 240827, Note_on_c, 0, 48, 85
1, 240830, Note_on_c, 0, 69, 73
1, 240837, Note_off_c, 0, 65, 62
1, 240893, Note_off_c, 0, 69, 65
1, 240907, Note_on_c, 0, 67, 70
1, 240962, Note_off_c, 0, 67, 62
1, 240974, Note_on_c, 0, 69, 69
1, 241024, Note_off_c, 0, 69, 66
1, 241025, Note_on_c, 0, 67, 69
1, 241080, Note_off_c, 0, 67, 58
1, 241092, Note_on_c, 0, 69, 70
1, 241144, Note_off_c, 0, 69, 65
1, 241147, Note_on_c, 0, 67, 61
1, 241212, Note_off_c, 0, 67, 64
1, 241214, Note_on_c, 0, 69, 70
1, 241261, Note_off_c, 0, 69, 64
1, 241282, Note_on_c, 0, 67, 61
1, 241334, Note_off_c, 0, 67, 64
1, 241342, Note_on_c, 0, 69, 69
1, 241362, Note_on_c, 0, 52, 73
1, 241390, Note_off_c, 0, 53, 58
1, 241405, Note_off_c, 0, 69, 65
1, 241419, Note_on_c, 0, 67, 62
1, 241462, Note_on_c, 0, 69, 62
1, 241462, Note_off_c, 0, 67, 64
1, 241523, Note_off_c, 0, 69, 66
1, 241533, Note_on_c, 0, 67, 59
1, 241576, Control_c, 0, 64, 8
1, 241580, Note_on_c, 0, 69, 74
1, 241585, Note_off_c, 0, 67, 65
1, 241591, Control_c, 0, 64, 42
1, 241606, Control_c, 0, 64, 55
1, 241620, Control_c, 0, 64, 58
1, 241632, Note_on_c, 0, 67, 61
1, 241659, Note_off_c, 0, 69, 57
1, 241695, Note_off_c, 0, 67, 65
1, 241706, Note_on_c, 0, 65, 78
1, 241724, Control_c, 0, 64, 59
1, 241739, Control_c, 0, 64, 61
1, 241754, Control_c, 0, 64, 63
1, 241763, Note_off_c, 0, 65, 60
1, 241769, Control_c, 0, 64, 65
1, 241784, Control_c, 0, 64, 67
1, 241789, Note_on_c, 0, 67, 83
1, 241799, Control_c, 0, 64, 69
1, 241814, Control_c, 0, 64, 70
1, 241821, Note_off_c, 0, 67, 62
1, 241828, Control_c, 0, 64, 72
1, 241843, Control_c, 0, 64, 74
1, 241858, Control_c, 0, 64, 75
1, 241872, Control_c, 0, 64, 76
1, 241902, Control_c, 0, 64, 75
1, 241917, Control_c, 0, 64, 74
1, 241932, Control_c, 0, 64, 66
1, 241937, Note_off_c, 0, 52, 52
1, 241944, Note_on_c, 0, 53, 82
1, 241946, Control_c, 0, 64, 53
1, 241950, Note_on_c, 0, 41, 80
1, 241955, Note_off_c, 0, 48, 62
1, 241961, Control_c, 0, 64, 0
1, 242006, Control_c, 0, 64, 17
1, 242020, Control_c, 0, 64, 35
1, 242028, Note_on_c, 0, 57, 77
1, 242030, Note_off_c, 0, 53, 62
1, 242035, Control_c, 0, 64, 44
1, 242050, Control_c, 0, 64, 49
1, 242065, Control_c, 0, 64, 49
1, 242094, Control_c, 0, 64, 50
1, 242098, Note_off_c, 0, 57, 62
1, 242109, Note_on_c, 0, 60, 78
1, 242109, Control_c, 0, 64, 52
1, 242132, Control_c, 0, 64, 55
1, 242147, Control_c, 0, 64, 57
1, 242159, Note_off_c, 0, 60, 59
1, 242161, Control_c, 0, 64, 57
1, 242191, Control_c, 0, 64, 58
1, 242209, Note_on_c, 0, 65, 77
1, 242235, Control_c, 0, 64, 58
1, 242250, Control_c, 0, 64, 59
1, 242265, Control_c, 0, 64, 58
1, 242283, Note_off_c, 0, 65, 62
1, 242286, Note_on_c, 0, 69, 80
1, 242295, Control_c, 0, 64, 57
1, 242310, Control_c, 0, 64, 56
1, 242325, Control_c, 0, 64, 52
1, 242340, Control_c, 0, 64, 47
1, 242355, Control_c, 0, 64, 45
1, 242369, Control_c, 0, 64, 46
1, 242373, Note_off_c, 0, 69, 62
1, 242374, Note_on_c, 0, 72, 82
1, 242384, Control_c, 0, 64, 49
1, 242399, Control_c, 0, 64, 51
1, 242437, Note_off_c, 0, 72, 62
1, 242447, Note_on_c, 0, 77, 78
1, 242473, Control_c, 0, 64, 51
1, 242488, Control_c, 0, 64, 52
1, 242527, Note_off_c, 0, 77, 66
1, 242542, Note_on_c, 0, 72, 68
1, 242597, Note_off_c, 0, 72, 64
1, 242619, Note_on_c, 0, 69, 76
1, 242666, Control_c, 0, 64, 52
1, 242695, Note_off_c, 0, 69, 56
1, 242698, Note_on_c, 0, 76, 78
1, 242755, Control_c, 0, 64, 51
1, 242759, Note_off_c, 0, 76, 64
1, 242787, Note_on_c, 0, 70, 72
1, 242814, Control_c, 0, 64, 51
1, 242829, Control_c, 0, 64, 50
1, 242843, Control_c, 0, 64, 49
1, 242853, Note_off_c, 0, 70, 63
1, 242880, Note_on_c, 0, 67, 77
1, 242951, Note_off_c, 0, 67, 62
1, 242958, Note_on_c, 0, 74, 77
1, 242967, Note_off_c, 0, 41, 62
1, 243018, Note_off_c, 0, 74, 65
1, 243036, Note_on_c, 0, 69, 73
1, 243090, Note_off_c, 0, 69, 66
1, 243119, Note_on_c, 0, 65, 73
1, 243119, Control_c, 0, 64, 49
1, 243197, Note_off_c, 0, 65, 62
1, 243200, Note_on_c, 0, 72, 73
1, 243261, Note_off_c, 0, 72, 63
1, 243267, Control_c, 0, 64, 48
1, 243277, Note_on_c, 0, 67, 68
1, 243312, Control_c, 0, 64, 49
1, 243336, Note_off_c, 0, 67, 65
1, 243361, Note_on_c, 0, 64, 65
1, 243444, Note_off_c, 0, 64, 61
1, 243449, Note_on_c, 0, 70, 73
1, 243533, Note_off_c, 0, 70, 63
1, 243540, Note_on_c, 0, 65, 70
1, 243591, Note_off_c, 0, 65, 63
1, 243593, Control_c, 0, 64, 48
1, 243607, Note_on_c, 0, 62, 72
1, 243675, Note_off_c, 0, 62, 57
1, 243696, Note_on_c, 0, 69, 76
1, 243767, Note_off_c, 0, 69, 58
1, 243790, Note_on_c, 0, 64, 67
1, 243845, Note_off_c, 0, 64, 59
1, 243862, Note_on_c, 0, 60, 69
1, 243905, Note_off_c, 0, 60, 59
1, 243927, Control_c, 0, 64, 48
1, 243946, Note_on_c, 0, 57, 76
1, 244017, Control_c, 0, 64, 47
1, 244020, Note_on_c, 0, 63, 74
1, 244043, Note_off_c, 0, 57, 63
1, 244089, Note_off_c, 0, 63, 64
1, 244090, Control_c, 0, 64, 47
1, 244106, Note_on_c, 0, 66, 69
1, 244149, Control_c, 0, 64, 46
1, 244170, Note_off_c, 0, 66, 62
1, 244185, Note_on_c, 0, 46, 87
1, 244193, Note_on_c, 0, 58, 74
1, 244209, Control_c, 0, 64, 47
1, 244223, Control_c, 0, 64, 47
1, 244232, Note_off_c, 0, 46, 65
1, 244267, Control_c, 0, 64, 46
1, 244280, Note_on_c, 0, 62, 69
1, 244282, Control_c, 0, 64, 45
1, 244286, Note_off_c, 0, 58, 60
1, 244297, Control_c, 0, 64, 45
1, 244312, Control_c, 0, 64, 44
1, 244327, Control_c, 0, 64, 44
1, 244342, Control_c, 0, 64, 43
1, 244352, Note_off_c, 0, 62, 64
1, 244356, Control_c, 0, 64, 42
1, 244369, Note_on_c, 0, 67, 73
1, 244379, Control_c, 0, 64, 37
1, 244394, Control_c, 0, 64, 29
1, 244409, Note_off_c, 0, 67, 60
1, 244409, Control_c, 0, 64, 17
1, 244423, Control_c, 0, 64, 0
1, 244447, Note_on_c, 0, 48, 87
1, 244449, Note_on_c, 0, 57, 80
1, 244503, Note_off_c, 0, 48, 63
1, 244523, Note_on_c, 0, 60, 76
1, 244526, Note_off_c, 0, 57, 62
1, 244598, Note_off_c, 0, 60, 62
1, 244610, Note_on_c, 0, 65, 70
1, 244693, Note_on_c, 0, 36, 83
1, 244694, Note_off_c, 0, 65, 55
1, 244697, Note_on_c, 0, 55, 75
1, 244741, Note_off_c, 0, 36, 65
1, 244766, Note_off_c, 0, 55, 63
1, 244783, Note_on_c, 0, 58, 56
1, 244836, Note_on_c, 0, 64, 65
1, 244842, Note_off_c, 0, 58, 65
1, 244913, Control_c, 0, 64, 26
1, 244915, Note_off_c, 0, 64, 64
1, 244928, Control_c, 0, 64, 35
1, 244943, Control_c, 0, 64, 39
1, 244955, Note_on_c, 0, 53, 88
1, 244958, Note_on_c, 0, 41, 81
1, 244958, Control_c, 0, 64, 43
1, 244961, Note_on_c, 0, 65, 72
1, 244972, Control_c, 0, 64, 48
1, 244987, Control_c, 0, 64, 51
1, 245002, Control_c, 0, 64, 52
1, 245017, Control_c, 0, 64, 52
1, 245032, Control_c, 0, 64, 53
1, 245039, Note_off_c, 0, 65, 62
1, 245046, Control_c, 0, 64, 54
1, 245047, Note_on_c, 0, 69, 77
1, 245061, Control_c, 0, 64, 56
1, 245076, Control_c, 0, 64, 58
1, 245090, Control_c, 0, 64, 59
1, 245102, Note_off_c, 0, 69, 63
1, 245105, Control_c, 0, 64, 61
1, 245128, Control_c, 0, 64, 62
1, 245143, Control_c, 0, 64, 63
1, 245143, Note_on_c, 0, 72, 70
1, 245158, Control_c, 0, 64, 63
1, 245179, Note_off_c, 0, 72, 63
1, 245187, Control_c, 0, 64, 64
1, 245231, Note_on_c, 0, 77, 78
1, 245232, Control_c, 0, 64, 64
1, 245246, Control_c, 0, 64, 65
1, 245261, Control_c, 0, 64, 65
1, 245276, Control_c, 0, 64, 66
1, 245290, Control_c, 0, 64, 66
1, 245304, Note_off_c, 0, 77, 62
1, 245310, Note_on_c, 0, 81, 79
1, 245379, Control_c, 0, 64, 66
1, 245394, Control_c, 0, 64, 63
1, 245394, Note_on_c, 0, 84, 84
1, 245400, Note_off_c, 0, 81, 61
1, 245409, Control_c, 0, 64, 57
1, 245423, Control_c, 0, 64, 49
1, 245438, Control_c, 0, 64, 45
1, 245453, Note_off_c, 0, 84, 66
1, 245453, Control_c, 0, 64, 46
1, 245468, Control_c, 0, 64, 52
1, 245473, Note_on_c, 0, 89, 78
1, 245483, Control_c, 0, 64, 59
1, 245498, Control_c, 0, 64, 62
1, 245513, Control_c, 0, 64, 63
1, 245528, Control_c, 0, 64, 64
1, 245543, Control_c, 0, 64, 65
1, 245548, Note_off_c, 0, 89, 65
1, 245558, Control_c, 0, 64, 65
1, 245562, Note_on_c, 0, 84, 81
1, 245602, Control_c, 0, 64, 64
1, 245617, Control_c, 0, 64, 59
1, 245624, Note_off_c, 0, 84, 66
1, 245632, Control_c, 0, 64, 48
1, 245647, Control_c, 0, 64, 34
1, 245650, Note_on_c, 0, 81, 74
1, 245662, Control_c, 0, 64, 25
1, 245676, Control_c, 0, 64, 25
1, 245691, Control_c, 0, 64, 36
1, 245706, Control_c, 0, 64, 49
1, 245720, Note_on_c, 0, 88, 80
1, 245720, Control_c, 0, 64, 58
1, 245735, Note_off_c, 0, 81, 61
1, 245735, Control_c, 0, 64, 61
1, 245750, Control_c, 0, 64, 61
1, 245765, Control_c, 0, 64, 62
1, 245780, Control_c, 0, 64, 63
1, 245789, Note_off_c, 0, 88, 67
1, 245808, Note_on_c, 0, 82, 75
1, 245824, Control_c, 0, 64, 62
1, 245838, Control_c, 0, 64, 58
1, 245853, Control_c, 0, 64, 47
1, 245876, Control_c, 0, 64, 34
1, 245887, Note_off_c, 0, 82, 64
1, 245891, Control_c, 0, 64, 24
1, 245906, Control_c, 0, 64, 24
1, 245906, Note_on_c, 0, 79, 74
1, 245920, Control_c, 0, 64, 33
1, 245935, Control_c, 0, 64, 41
1, 245950, Control_c, 0, 64, 45
1, 245965, Control_c, 0, 64, 48
1, 245976, Note_off_c, 0, 79, 59
1, 245980, Control_c, 0, 64, 52
1, 245982, Note_on_c, 0, 86, 81
1, 245994, Control_c, 0, 64, 55
1, 246015, Note_off_c, 0, 53, 60
1, 246024, Note_off_c, 0, 41, 62
1, 246024, Control_c, 0, 64, 52
1, 246039, Control_c, 0, 64, 50
1, 246048, Note_off_c, 0, 86, 65
1, 246054, Control_c, 0, 64, 49
1, 246065, Note_on_c, 0, 81, 73
1, 246069, Control_c, 0, 64, 50
1, 246084, Control_c, 0, 64, 51
1, 246099, Control_c, 0, 64, 52
1, 246115, Note_off_c, 0, 81, 66
1, 246128, Control_c, 0, 64, 53
1, 246149, Note_on_c, 0, 77, 74
1, 246158, Control_c, 0, 64, 52
1, 246202, Control_c, 0, 64, 53
1, 246217, Control_c, 0, 64, 55
1, 246227, Note_off_c, 0, 77, 64
1, 246228, Note_on_c, 0, 84, 75
1, 246232, Control_c, 0, 64, 56
1, 246246, Control_c, 0, 64, 58
1, 246261, Control_c, 0, 64, 59
1, 246276, Control_c, 0, 64, 59
1, 246300, Note_off_c, 0, 84, 66
1, 246307, Control_c, 0, 64, 58
1, 246315, Note_on_c, 0, 79, 74
1, 246322, Control_c, 0, 64, 55
1, 246336, Control_c, 0, 64, 50
1, 246351, Control_c, 0, 64, 46
1, 246366, Note_off_c, 0, 79, 66
1, 246366, Control_c, 0, 64, 45
1, 246381, Control_c, 0, 64, 45
1, 246396, Control_c, 0, 64, 48
1, 246398, Note_on_c, 0, 76, 74
1, 246410, Control_c, 0, 64, 52
1, 246425, Control_c, 0, 64, 56
1, 246440, Control_c, 0, 64, 59
1, 246455, Control_c, 0, 64, 61
1, 246470, Control_c, 0, 64, 61
1, 246472, Note_off_c, 0, 76, 60
1, 246485, Control_c, 0, 64, 62
1, 246487, Note_on_c, 0, 82, 79
1, 246529, Control_c, 0, 64, 61
1, 246544, Control_c, 0, 64, 57
1, 246559, Control_c, 0, 64, 52
1, 246565, Note_off_c, 0, 82, 64
1, 246574, Control_c, 0, 64, 47
1, 246577, Note_on_c, 0, 77, 71
1, 246604, Control_c, 0, 64, 50
1, 246625, Control_c, 0, 64, 55
1, 246631, Note_off_c, 0, 77, 64
1, 246640, Control_c, 0, 64, 59
1, 246655, Control_c, 0, 64, 61
1, 246660, Note_on_c, 0, 74, 73
1, 246699, Control_c, 0, 64, 60
1, 246714, Control_c, 0, 64, 57
1, 246722, Note_off_c, 0, 74, 53
1, 246729, Control_c, 0, 64, 51
1, 246732, Note_on_c, 0, 81, 78
1, 246744, Control_c, 0, 64, 48
1, 246759, Control_c, 0, 64, 49
1, 246774, Control_c, 0, 64, 53
1, 246789, Control_c, 0, 64, 57
1, 246804, Control_c, 0, 64, 59
1, 246812, Note_off_c, 0, 81, 62
1, 246818, Control_c, 0, 64, 60
1, 246827, Note_on_c, 0, 76, 65
1, 246863, Control_c, 0, 64, 58
1, 246875, Note_off_c, 0, 76, 62
1, 246877, Control_c, 0, 64, 56
1, 246892, Control_c, 0, 64, 53
1, 246908, Note_on_c, 0, 72, 71
1, 246922, Control_c, 0, 64, 53
1, 246937, Control_c, 0, 64, 51
1, 246946, Note_off_c, 0, 72, 58
1, 246951, Control_c, 0, 64, 50
1, 246981, Control_c, 0, 64, 52
1, 246987, Note_on_c, 0, 69, 77
1, 247011, Control_c, 0, 64, 51
1, 247025, Control_c, 0, 64, 49
1, 247055, Control_c, 0, 64, 50
1, 247068, Note_on_c, 0, 75, 69
1, 247069, Control_c, 0, 64, 51
1, 247085, Control_c, 0, 64, 50
1, 247086, Note_off_c, 0, 69, 64
1, 247115, Control_c, 0, 64, 51
1, 247130, Control_c, 0, 64, 51
1, 247144, Note_off_c, 0, 75, 65
1, 247145, Control_c, 0, 64, 53
1, 247152, Note_on_c, 0, 78, 74
1, 247159, Control_c, 0, 64, 54
1, 247211, Note_off_c, 0, 78, 62
1, 247231, Note_on_c, 0, 70, 76
1, 247233, Note_on_c, 0, 58, 74
1, 247233, Control_c, 0, 64, 55
1, 247263, Control_c, 0, 64, 54
1, 247268, Note_off_c, 0, 58, 64
1, 247293, Control_c, 0, 64, 55
1, 247306, Note_on_c, 0, 74, 71
1, 247316, Note_off_c, 0, 70, 60
1, 247389, Control_c, 0, 64, 55
1, 247391, Note_off_c, 0, 74, 65
1, 247404, Control_c, 0, 64, 56
1, 247405, Note_on_c, 0, 79, 71
1, 247442, Note_off_c, 0, 79, 61
1, 247488, Note_on_c, 0, 69, 76
1, 247490, Note_on_c, 0, 60, 76
1, 247492, Control_c, 0, 64, 56
1, 247532, Note_off_c, 0, 60, 58
1, 247560, Note_on_c, 0, 72, 74
1, 247561, Note_off_c, 0, 69, 64
1, 247612, Control_c, 0, 64, 55
1, 247620, Note_off_c, 0, 72, 63
1, 247635, Note_on_c, 0, 77, 74
1, 247671, Control_c, 0, 64, 56
1, 247686, Control_c, 0, 64, 56
1, 247704, Note_off_c, 0, 77, 65
1, 247715, Control_c, 0, 64, 57
1, 247731, Note_on_c, 0, 67, 71
1, 247741, Note_on_c, 0, 48, 70
1, 247781, Note_off_c, 0, 48, 63
1, 247793, Note_off_c, 0, 67, 59
1, 247799, Note_on_c, 0, 70, 58
1, 247861, Note_off_c, 0, 70, 63
1, 247863, Control_c, 0, 64, 56
1, 247875, Note_on_c, 0, 76, 68
1, 247878, Control_c, 0, 64, 56
1, 247894, Control_c, 0, 64, 55
1, 247908, Control_c, 0, 64, 54
1, 247923, Control_c, 0, 64, 52
1, 247938, Control_c, 0, 64, 51
1, 247942, Note_off_c, 0, 76, 61
1, 247953, Control_c, 0, 64, 50
1, 247968, Control_c, 0, 64, 51
1, 247975, Note_on_c, 0, 69, 71
1, 247982, Control_c, 0, 64, 53
1, 247987, Note_on_c, 0, 53, 69
1, 247997, Control_c, 0, 64, 56
1, 248012, Control_c, 0, 64, 59
1, 248027, Control_c, 0, 64, 61
1, 248042, Control_c, 0, 64, 61
1, 248056, Control_c, 0, 64, 62
1, 248062, Note_off_c, 0, 69, 65
1, 248069, Note_on_c, 0, 72, 68
1, 248071, Control_c, 0, 64, 63
1, 248086, Control_c, 0, 64, 64
1, 248101, Control_c, 0, 64, 65
1, 248123, Control_c, 0, 64, 66
1, 248130, Note_off_c, 0, 72, 61
1, 248138, Control_c, 0, 64, 66
1, 248149, Note_on_c, 0, 77, 63
1, 248197, Control_c, 0, 64, 63
1, 248212, Control_c, 0, 64, 59
1, 248216, Note_off_c, 0, 77, 61
1, 248227, Control_c, 0, 64, 56
1, 248241, Note_on_c, 0, 68, 74
1, 248242, Control_c, 0, 64, 55
1, 248257, Control_c, 0, 64, 57
1, 248271, Control_c, 0, 64, 60
1, 248286, Control_c, 0, 64, 62
1, 248301, Control_c, 0, 64, 63
1, 248315, Control_c, 0, 64, 64
1, 248330, Control_c, 0, 64, 66
1, 248334, Note_on_c, 0, 71, 64
1, 248337, Note_off_c, 0, 68, 61
1, 248345, Control_c, 0, 64, 67
1, 248360, Control_c, 0, 64, 69
1, 248375, Control_c, 0, 64, 70
1, 248389, Note_off_c, 0, 71, 63
1, 248390, Control_c, 0, 64, 70
1, 248413, Note_on_c, 0, 77, 67
1, 248449, Control_c, 0, 64, 69
1, 248464, Control_c, 0, 64, 66
1, 248479, Control_c, 0, 64, 60
1, 248494, Control_c, 0, 64, 54
1, 248503, Note_off_c, 0, 77, 58
1, 248503, Note_on_c, 0, 69, 75
1, 248509, Control_c, 0, 64, 53
1, 248523, Control_c, 0, 64, 56
1, 248538, Control_c, 0, 64, 58
1, 248553, Control_c, 0, 64, 61
1, 248568, Control_c, 0, 64, 62
1, 248575, Note_off_c, 0, 69, 62
1, 248583, Note_on_c, 0, 72, 70
1, 248583, Control_c, 0, 64, 64
1, 248597, Control_c, 0, 64, 66
1, 248612, Control_c, 0, 64, 68
1, 248627, Control_c, 0, 64, 70
1, 248645, Note_off_c, 0, 72, 63
1, 248665, Note_on_c, 0, 77, 67
1, 248702, Control_c, 0, 64, 67
1, 248717, Control_c, 0, 64, 60
1, 248731, Control_c, 0, 64, 51
1, 248733, Note_off_c, 0, 77, 57
1, 248746, Control_c, 0, 64, 44
1, 248756, Note_on_c, 0, 68, 73
1, 248761, Control_c, 0, 64, 45
1, 248776, Control_c, 0, 64, 51
1, 248791, Control_c, 0, 64, 58
1, 248805, Control_c, 0, 64, 62
1, 248820, Control_c, 0, 64, 65
1, 248835, Control_c, 0, 64, 68
1, 248847, Note_off_c, 0, 68, 62
1, 248850, Control_c, 0, 64, 71
1, 248852, Note_on_c, 0, 71, 67
1, 248872, Control_c, 0, 64, 73
1, 248932, Control_c, 0, 64, 70
1, 248936, Note_off_c, 0, 71, 55
1, 248946, Control_c, 0, 64, 63
1, 248949, Note_on_c, 0, 77, 66
1, 248961, Control_c, 0, 64, 53
1, 248976, Control_c, 0, 64, 46
1, 248991, Control_c, 0, 64, 47
1, 249006, Control_c, 0, 64, 54
1, 249013, Note_off_c, 0, 77, 65
1, 249020, Control_c, 0, 64, 60
1, 249033, Note_on_c, 0, 69, 71
1, 249035, Control_c, 0, 64, 62
1, 249050, Control_c, 0, 64, 64
1, 249064, Control_c, 0, 64, 65
1, 249079, Control_c, 0, 64, 67
1, 249094, Control_c, 0, 64, 69
1, 249101, Note_off_c, 0, 53, 61
1, 249108, Note_off_c, 0, 69, 61
1, 249109, Control_c, 0, 64, 70
1, 249122, Note_on_c, 0, 72, 71
1, 249124, Control_c, 0, 64, 71
1, 249138, Control_c, 0, 64, 72
1, 249171, Note_off_c, 0, 72, 59
1, 249186, Note_on_c, 0, 77, 72
1, 249212, Control_c, 0, 64, 72
1, 249227, Control_c, 0, 64, 71
1, 249242, Control_c, 0, 64, 69
1, 249257, Control_c, 0, 64, 65
1, 249272, Control_c, 0, 64, 58
1, 249284, Note_off_c, 0, 77, 64
1, 249287, Control_c, 0, 64, 47
1, 249290, Note_on_c, 0, 74, 74
1, 249297, Note_on_c, 0, 58, 72
1, 249302, Control_c, 0, 64, 34
1, 249317, Control_c, 0, 64, 22
1, 249329, Note_off_c, 0, 58, 68
1, 249332, Control_c, 0, 64, 0
1, 249368, Note_off_c, 0, 74, 60
1, 249382, Note_on_c, 0, 70, 69
1, 249451, Note_on_c, 0, 67, 77
1, 249452, Note_off_c, 0, 70, 58
1, 249492, Note_off_c, 0, 67, 59
1, 249534, Note_on_c, 0, 72, 76
1, 249534, Note_on_c, 0, 60, 67
1, 249574, Note_off_c, 0, 60, 60
1, 249613, Note_off_c, 0, 72, 62
1, 249619, Note_on_c, 0, 69, 74
1, 249659, Note_off_c, 0, 69, 67
1, 249680, Control_c, 0, 64, 12
1, 249695, Control_c, 0, 64, 22
1, 249701, Note_on_c, 0, 65, 67
1, 249710, Control_c, 0, 64, 26
1, 249755, Control_c, 0, 64, 27
1, 249769, Control_c, 0, 64, 31
1, 249779, Note_on_c, 0, 48, 64
1, 249780, Note_on_c, 0, 70, 73
1, 249784, Note_off_c, 0, 65, 60
1, 249784, Control_c, 0, 64, 33
1, 249822, Note_off_c, 0, 48, 63
1, 249829, Control_c, 0, 64, 34
1, 249843, Control_c, 0, 64, 36
1, 249851, Note_off_c, 0, 70, 65
1, 249858, Control_c, 0, 64, 38
1, 249880, Note_on_c, 0, 67, 61
1, 249917, Control_c, 0, 64, 39
1, 249943, Note_off_c, 0, 67, 64
1, 249947, Control_c, 0, 64, 38
1, 249950, Note_on_c, 0, 64, 60
1, 249961, Control_c, 0, 64, 38
1, 249976, Control_c, 0, 64, 38
1, 250006, Control_c, 0, 64, 39
1, 250014, Note_off_c, 0, 64, 63
1, 250019, Note_on_c, 0, 53, 80
1, 250028, Note_on_c, 0, 41, 71
1, 250033, Note_on_c, 0, 60, 73
1, 250050, Control_c, 0, 64, 40
1, 250065, Control_c, 0, 64, 41
1, 250080, Control_c, 0, 64, 44
1, 250095, Control_c, 0, 64, 46
1, 250110, Control_c, 0, 64, 49
1, 250116, Note_off_c, 0, 60, 62
1, 250120, Note_on_c, 0, 65, 67
1, 250124, Control_c, 0, 64, 50
1, 250139, Control_c, 0, 64, 52
1, 250154, Control_c, 0, 64, 53
1, 250187, Note_off_c, 0, 65, 63
1, 250193, Note_on_c, 0, 69, 70
1, 250228, Control_c, 0, 64, 52
1, 250256, Note_off_c, 0, 69, 65
1, 250273, Control_c, 0, 64, 54
1, 250282, Note_on_c, 0, 59, 69
1, 250288, Control_c, 0, 64, 57
1, 250303, Control_c, 0, 64, 58
1, 250318, Control_c, 0, 64, 59
1, 250369, Note_on_c, 0, 65, 63
1, 250372, Note_off_c, 0, 59, 62
1, 250385, Control_c, 0, 64, 57
1, 250399, Control_c, 0, 64, 55
1, 250414, Control_c, 0, 64, 54
1, 250444, Note_on_c, 0, 68, 69
1, 250444, Control_c, 0, 64, 55
1, 250449, Note_off_c, 0, 65, 59
1, 250459, Control_c, 0, 64, 56
1, 250512, Note_off_c, 0, 68, 63
1, 250518, Control_c, 0, 64, 55
1, 250533, Control_c, 0, 64, 55
1, 250538, Note_on_c, 0, 60, 67
1, 250578, Control_c, 0, 64, 55
1, 250592, Control_c, 0, 64, 56
1, 250615, Note_on_c, 0, 65, 60
1, 250618, Note_off_c, 0, 60, 58
1, 250622, Control_c, 0, 64, 56
1, 250637, Control_c, 0, 64, 57
1, 250652, Control_c, 0, 64, 58
1, 250666, Control_c, 0, 64, 58
1, 250681, Note_off_c, 0, 65, 63
1, 250694, Note_on_c, 0, 69, 67
1, 250710, Control_c, 0, 64, 58
1, 250725, Control_c, 0, 64, 55
1, 250740, Note_off_c, 0, 69, 65
1, 250740, Control_c, 0, 64, 52
1, 250755, Control_c, 0, 64, 50
1, 250780, Note_on_c, 0, 59, 66
1, 250784, Control_c, 0, 64, 52
1, 250799, Control_c, 0, 64, 53
1, 250814, Control_c, 0, 64, 54
1, 250828, Control_c, 0, 64, 55
1, 250843, Control_c, 0, 64, 57
1, 250852, Note_off_c, 0, 59, 64
1, 250858, Control_c, 0, 64, 59
1, 250867, Note_on_c, 0, 65, 65
1, 250873, Control_c, 0, 64, 60
1, 250888, Control_c, 0, 64, 60
1, 250932, Control_c, 0, 64, 60
1, 250939, Note_off_c, 0, 65, 59
1, 250947, Control_c, 0, 64, 55
1, 250950, Note_on_c, 0, 68, 69
1, 250962, Control_c, 0, 64, 48
1, 250977, Control_c, 0, 64, 42
1, 251002, Note_off_c, 0, 68, 62
1, 251007, Control_c, 0, 64, 47
1, 251022, Control_c, 0, 64, 51
1, 251031, Note_on_c, 0, 60, 65
1, 251036, Control_c, 0, 64, 55
1, 251051, Control_c, 0, 64, 57
1, 251066, Control_c, 0, 64, 58
1, 251081, Control_c, 0, 64, 59
1, 251088, Note_off_c, 0, 60, 50
1, 251101, Note_off_c, 0, 53, 58
1, 251117, Note_on_c, 0, 65, 63
1, 251163, Control_c, 0, 64, 58
1, 251167, Note_off_c, 0, 65, 63
1, 251178, Control_c, 0, 64, 56
1, 251188, Note_on_c, 0, 69, 60
1, 251193, Control_c, 0, 64, 54
1, 251208, Control_c, 0, 64, 51
1, 251222, Control_c, 0, 64, 49
1, 251237, Control_c, 0, 64, 48
1, 251252, Control_c, 0, 64, 47
1, 251257, Note_off_c, 0, 69, 64
1, 251267, Control_c, 0, 64, 46
1, 251268, Note_off_c, 0, 41, 54
1, 251272, Note_on_c, 0, 46, 71
1, 251277, Note_on_c, 0, 67, 65
1, 251282, Control_c, 0, 64, 43
1, 251296, Control_c, 0, 64, 43
1, 251302, Note_off_c, 0, 46, 64
1, 251311, Control_c, 0, 64, 43
1, 251321, Note_off_c, 0, 67, 61
1, 251326, Control_c, 0, 64, 44
1, 251356, Control_c, 0, 64, 43
1, 251360, Note_on_c, 0, 62, 65
1, 251370, Control_c, 0, 64, 43
1, 251394, Note_off_c, 0, 62, 66
1, 251400, Control_c, 0, 64, 43
1, 251430, Control_c, 0, 64, 42
1, 251434, Note_on_c, 0, 58, 64
1, 251445, Control_c, 0, 64, 39
1, 251458, Note_off_c, 0, 58, 68
1, 251459, Control_c, 0, 64, 37
1, 251474, Control_c, 0, 64, 36
1, 251512, Note_on_c, 0, 65, 73
1, 251519, Control_c, 0, 64, 32
1, 251521, Note_on_c, 0, 48, 79
1, 251533, Control_c, 0, 64, 26
1, 251548, Control_c, 0, 64, 22
1, 251549, Note_off_c, 0, 65, 61
1, 251552, Note_off_c, 0, 48, 66
1, 251578, Control_c, 0, 64, 25
1, 251593, Control_c, 0, 64, 31
1, 251607, Control_c, 0, 64, 34
1, 251612, Note_on_c, 0, 60, 56
1, 251622, Control_c, 0, 64, 35
1, 251636, Note_off_c, 0, 60, 60
1, 251637, Control_c, 0, 64, 36
1, 251679, Note_on_c, 0, 57, 68
1, 251696, Control_c, 0, 64, 37
1, 251711, Control_c, 0, 64, 37
1, 251725, Control_c, 0, 64, 38
1, 251740, Control_c, 0, 64, 40
1, 251749, Note_off_c, 0, 57, 47
1, 251755, Note_on_c, 0, 64, 63
1, 251755, Control_c, 0, 64, 41
1, 251761, Note_on_c, 0, 36, 71
1, 251770, Control_c, 0, 64, 40
1, 251785, Control_c, 0, 64, 39
1, 251792, Note_off_c, 0, 36, 63
1, 251800, Control_c, 0, 64, 35
1, 251806, Note_off_c, 0, 64, 55
1, 251815, Control_c, 0, 64, 13
1, 251830, Control_c, 0, 64, 0
1, 251835, Note_on_c, 0, 58, 65
1, 251903, Note_off_c, 0, 58, 64
1, 251928, Note_on_c, 0, 55, 62
1, 251967, Note_off_c, 0, 55, 64
1, 251999, Note_on_c, 0, 53, 72
1, 252029, Note_on_c, 0, 41, 39
1, 252054, Note_off_c, 0, 53, 55
1, 252065, Note_off_c, 0, 41, 62
1, 252077, Note_on_c, 0, 45, 57
1, 252082, Note_on_c, 0, 57, 70
1, 252120, Note_off_c, 0, 57, 64
1, 252126, Note_off_c, 0, 45, 64
1, 252157, Note_on_c, 0, 48, 58
1, 252163, Note_on_c, 0, 60, 66
1, 252215, Note_off_c, 0, 48, 61
1, 252222, Note_off_c, 0, 60, 61
1, 252223, Control_c, 0, 64, 15
1, 252234, Note_on_c, 0, 65, 74
1, 252238, Control_c, 0, 64, 19
1, 252244, Note_on_c, 0, 53, 65
1, 252253, Control_c, 0, 64, 20
1, 252280, Note_off_c, 0, 53, 62
1, 252282, Control_c, 0, 64, 19
1, 252296, Note_off_c, 0, 65, 60
1, 252297, Control_c, 0, 64, 18
1, 252312, Control_c, 0, 64, 17
1, 252329, Note_on_c, 0, 48, 59
1, 252330, Note_on_c, 0, 60, 57
1, 252356, Control_c, 0, 64, 19
1, 252358, Note_off_c, 0, 48, 65
1, 252371, Control_c, 0, 64, 22
1, 252373, Note_off_c, 0, 60, 63
1, 252382, Note_on_c, 0, 45, 46
1, 252386, Control_c, 0, 64, 23
1, 252401, Control_c, 0, 64, 23
1, 252402, Note_on_c, 0, 57, 39
1, 252416, Control_c, 0, 64, 24
1, 252430, Control_c, 0, 64, 23
1, 252447, Note_off_c, 0, 45, 61
1, 252449, Note_off_c, 0, 57, 52
1, 252460, Control_c, 0, 64, 22
1, 252471, Note_on_c, 0, 53, 70
1, 252475, Control_c, 0, 64, 19
1, 252481, Note_on_c, 0, 41, 56
1, 252489, Control_c, 0, 64, 18
1, 252519, Control_c, 0, 64, 16
1, 252524, Note_off_c, 0, 53, 61
1, 252533, Note_off_c, 0, 41, 60
1, 252534, Control_c, 0, 64, 0
1, 252558, Note_on_c, 0, 57, 57
1, 252561, Note_on_c, 0, 45, 55
1, 252563, Control_c, 0, 67, 8
1, 252578, Control_c, 0, 67, 10
1, 252593, Control_c, 0, 67, 12
1, 252594, Note_off_c, 0, 45, 63
1, 252594, Note_off_c, 0, 57, 65
1, 252615, Control_c, 0, 67, 12
1, 252630, Control_c, 0, 67, 14
1, 252633, Note_on_c, 0, 60, 55
1, 252645, Note_on_c, 0, 48, 48
1, 252645, Control_c, 0, 67, 20
1, 252660, Control_c, 0, 67, 28
1, 252675, Control_c, 0, 67, 35
1, 252691, Control_c, 0, 67, 39
1, 252698, Note_off_c, 0, 48, 63
1, 252703, Note_off_c, 0, 60, 61
1, 252705, Control_c, 0, 67, 40
1, 252718, Note_on_c, 0, 65, 67
1, 252720, Control_c, 0, 67, 43
1, 252733, Note_on_c, 0, 53, 64
1, 252735, Control_c, 0, 67, 48
1, 252750, Control_c, 0, 67, 51
1, 252765, Control_c, 0, 67, 53
1, 252771, Note_off_c, 0, 53, 58
1, 252771, Note_off_c, 0, 65, 55
1, 252779, Control_c, 0, 67, 52
1, 252807, Note_on_c, 0, 48, 56
1, 252813, Note_on_c, 0, 60, 59
1, 252836, Note_off_c, 0, 48, 57
1, 252852, Control_c, 0, 67, 52
1, 252855, Note_off_c, 0, 60, 58
1, 252867, Control_c, 0, 67, 52
1, 252867, Note_on_c, 0, 45, 58
1, 252876, Note_on_c, 0, 57, 56
1, 252882, Control_c, 0, 67, 53
1, 252897, Control_c, 0, 67, 57
1, 252911, Control_c, 0, 67, 62
1, 252926, Control_c, 0, 67, 67
1, 252932, Note_off_c, 0, 57, 60
1, 252939, Note_off_c, 0, 45, 60
1, 252941, Control_c, 0, 67, 69
1, 252954, Note_on_c, 0, 53, 73
1, 252956, Control_c, 0, 67, 71
1, 252964, Note_on_c, 0, 41, 64
1, 252971, Control_c, 0, 67, 74
1, 252985, Control_c, 0, 67, 76
1, 252998, Note_off_c, 0, 53, 57
1, 253000, Control_c, 0, 67, 77
1, 253015, Control_c, 0, 67, 78
1, 253025, Note_off_c, 0, 41, 61
1, 253030, Control_c, 0, 67, 79
1, 253037, Note_on_c, 0, 57, 64
1, 253043, Note_on_c, 0, 45, 53
1, 253045, Control_c, 0, 67, 82
1, 253059, Control_c, 0, 67, 84
1, 253074, Note_off_c, 0, 57, 61
1, 253074, Control_c, 0, 67, 85
1, 253082, Note_off_c, 0, 45, 65
1, 253097, Note_on_c, 0, 48, 65
1, 253098, Note_on_c, 0, 60, 67
1, 253118, Control_c, 0, 67, 86
1, 253133, Control_c, 0, 67, 87
1, 253136, Note_off_c, 0, 60, 63
1, 253141, Note_off_c, 0, 48, 57
1, 253148, Control_c, 0, 67, 89
1, 253163, Control_c, 0, 64, 12
1, 253163, Control_c, 0, 67, 91
1, 253177, Control_c, 0, 64, 23
1, 253178, Note_on_c, 0, 53, 67
1, 253192, Control_c, 0, 64, 28
1, 253192, Control_c, 0, 67, 91
1, 253196, Note_on_c, 0, 65, 69
1, 253207, Control_c, 0, 64, 28
1, 253208, Note_off_c, 0, 53, 64
1, 253222, Control_c, 0, 64, 27
1, 253222, Control_c, 0, 67, 92
1, 253237, Control_c, 0, 67, 92
1, 253248, Note_off_c, 0, 65, 56
1, 253251, Control_c, 0, 67, 93
1, 253261, Note_on_c, 0, 57, 61
1, 253266, Control_c, 0, 64, 28
1, 253266, Control_c, 0, 67, 94
1, 253269, Note_on_c, 0, 69, 75
1, 253296, Control_c, 0, 67, 93
1, 253306, Note_off_c, 0, 57, 62
1, 253326, Control_c, 0, 64, 27
1, 253326, Control_c, 0, 67, 94
1, 253328, Note_off_c, 0, 69, 65
1, 253341, Control_c, 0, 64, 26
1, 253341, Note_on_c, 0, 60, 58
1, 253362, Note_on_c, 0, 72, 68
1, 253378, Control_c, 0, 64, 27
1, 253392, Control_c, 0, 64, 28
1, 253407, Control_c, 0, 67, 94
1, 253409, Note_off_c, 0, 60, 60
1, 253409, Note_off_c, 0, 72, 61
1, 253422, Control_c, 0, 67, 95
1, 253427, Note_on_c, 0, 77, 77
1, 253430, Note_on_c, 0, 65, 69
1, 253451, Control_c, 0, 64, 28
1, 253451, Control_c, 0, 67, 96
1, 253460, Note_off_c, 0, 65, 65
1, 253466, Control_c, 0, 64, 29
1, 253466, Control_c, 0, 67, 97
1, 253482, Control_c, 0, 64, 29
1, 253482, Control_c, 0, 67, 96
1, 253487, Note_off_c, 0, 77, 59
1, 253509, Note_on_c, 0, 60, 64
1, 253512, Control_c, 0, 64, 30
1, 253515, Note_on_c, 0, 72, 73
1, 253526, Control_c, 0, 64, 30
1, 253526, Control_c, 0, 67, 97
1, 253542, Control_c, 0, 67, 98
1, 253544, Note_off_c, 0, 60, 64
1, 253557, Control_c, 0, 64, 30
1, 253562, Note_on_c, 0, 57, 54
1, 253578, Note_off_c, 0, 72, 61
1, 253591, Note_on_c, 0, 69, 66
1, 253616, Control_c, 0, 67, 98
1, 253631, Control_c, 0, 64, 29
1, 253631, Control_c, 0, 67, 99
1, 253634, Note_off_c, 0, 69, 62
1, 253646, Note_off_c, 0, 57, 62
1, 253646, Control_c, 0, 64, 27
1, 253646, Control_c, 0, 67, 100
1, 253660, Note_on_c, 0, 65, 78
1, 253661, Note_on_c, 0, 53, 61
1, 253661, Control_c, 0, 64, 27
1, 253675, Control_c, 0, 64, 26
1, 253675, Control_c, 0, 67, 100
1, 253690, Control_c, 0, 67, 101
1, 253695, Note_off_c, 0, 65, 59
1, 253705, Control_c, 0, 64, 25
1, 253705, Control_c, 0, 67, 103
1, 253720, Control_c, 0, 64, 22
1, 253720, Control_c, 0, 67, 104
1, 253732, Note_off_c, 0, 53, 61
1, 253734, Control_c, 0, 64, 16
1, 253734, Control_c, 0, 67, 104
1, 253737, Note_on_c, 0, 69, 66
1, 253743, Note_on_c, 0, 57, 66
1, 253749, Control_c, 0, 64, 13
1, 253749, Control_c, 0, 67, 105
1, 253764, Control_c, 0, 67, 107
1, 253779, Control_c, 0, 64, 15
1, 253779, Control_c, 0, 67, 111
1, 253785, Note_off_c, 0, 57, 64
1, 253788, Note_off_c, 0, 69, 57
1, 253794, Control_c, 0, 64, 18
1, 253794, Control_c, 0, 67, 113
1, 253800, Note_on_c, 0, 72, 68
1, 253809, Control_c, 0, 64, 19
1, 253809, Control_c, 0, 67, 114
1, 253818, Note_on_c, 0, 60, 69
1, 253824, Control_c, 0, 67, 113
1, 253839, Control_c, 0, 64, 18
1, 253839, Control_c, 0, 67, 112
1, 253851, Note_off_c, 0, 72, 61
1, 253853, Control_c, 0, 64, 15
1, 253853, Control_c, 0, 67, 110
1, 253859, Note_off_c, 0, 60, 57
1, 253868, Control_c, 0, 64, 0
1, 253883, Control_c, 0, 67, 112
1, 253890, Note_on_c, 0, 65, 72
1, 253896, Note_on_c, 0, 53, 68
1, 253898, Control_c, 0, 67, 113
1, 253935, Note_off_c, 0, 65, 56
1, 253942, Control_c, 0, 67, 111
1, 253956, Note_off_c, 0, 53, 59
1, 253963, Note_on_c, 0, 69, 69
1, 253970, Note_on_c, 0, 57, 65
1, 253972, Control_c, 0, 67, 112
1, 253987, Control_c, 0, 67, 113
1, 254006, Note_off_c, 0, 69, 63
1, 254012, Note_off_c, 0, 57, 64
1, 254030, Note_on_c, 0, 72, 70
1, 254031, Control_c, 0, 64, 12
1, 254031, Control_c, 0, 67, 112
1, 254035, Note_on_c, 0, 60, 62
1, 254046, Control_c, 0, 64, 15
1, 254046, Control_c, 0, 67, 111
1, 254061, Note_off_c, 0, 72, 64
1, 254066, Note_off_c, 0, 60, 62
1, 254075, Control_c, 0, 64, 17
1, 254075, Control_c, 0, 67, 112
1, 254090, Control_c, 0, 64, 21
1, 254090, Control_c, 0, 67, 112
1, 254107, Note_on_c, 0, 65, 70
1, 254113, Control_c, 0, 64, 23
1, 254122, Note_on_c, 0, 77, 73
1, 254128, Control_c, 0, 64, 24
1, 254137, Note_off_c, 0, 65, 65
1, 254142, Control_c, 0, 64, 25
1, 254142, Control_c, 0, 67, 111
1, 254157, Control_c, 0, 64, 27
1, 254157, Control_c, 0, 67, 110
1, 254172, Control_c, 0, 64, 27
1, 254173, Note_off_c, 0, 77, 54
1, 254187, Control_c, 0, 67, 112
1, 254191, Note_on_c, 0, 69, 68
1, 254193, Note_on_c, 0, 81, 80
1, 254201, Control_c, 0, 67, 113
1, 254216, Control_c, 0, 67, 113
1, 254231, Control_c, 0, 64, 28
1, 254233, Note_off_c, 0, 69, 59
1, 254245, Note_off_c, 0, 81, 62
1, 254246, Control_c, 0, 64, 27
1, 254246, Control_c, 0, 67, 113
1, 254260, Control_c, 0, 64, 25
1, 254275, Note_on_c, 0, 84, 76
1, 254276, Control_c, 0, 64, 24
1, 254276, Control_c, 0, 67, 114
1, 254277, Note_on_c, 0, 72, 63
1, 254291, Control_c, 0, 67, 115
1, 254306, Control_c, 0, 67, 116
1, 254321, Control_c, 0, 67, 116
1, 254332, Note_off_c, 0, 84, 65
1, 254336, Control_c, 0, 64, 23
1, 254336, Control_c, 0, 67, 117
1, 254336, Note_off_c, 0, 72, 49
1, 254345, Note_on_c, 0, 89, 77
1, 254350, Control_c, 0, 67, 116
1, 254365, Control_c, 0, 64, 23
1, 254369, Note_on_c, 0, 77, 66
1, 254380, Control_c, 0, 64, 25
1, 254380, Control_c, 0, 67, 116
1, 254395, Control_c, 0, 64, 26
1, 254395, Control_c, 0, 67, 117
1, 254398, Note_off_c, 0, 77, 67
1, 254405, Note_off_c, 0, 89, 63
1, 254424, Control_c, 0, 64, 25
1, 254435, Note_on_c, 0, 84, 62
1, 254439, Note_on_c, 0, 72, 73
1, 254439, Control_c, 0, 67, 116
1, 254454, Control_c, 0, 64, 26
1, 254454, Control_c, 0, 67, 114
1, 254468, Note_off_c, 0, 72, 66
1, 254469, Control_c, 0, 64, 26
1, 254473, Note_off_c, 0, 84, 67
1, 254483, Control_c, 0, 64, 27
1, 254483, Control_c, 0, 67, 115
1, 254498, Control_c, 0, 64, 28
1, 254498, Control_c, 0, 67, 116
1, 254500, Note_on_c, 0, 81, 66
1, 254513, Control_c, 0, 67, 116
1, 254521, Note_on_c, 0, 69, 58
1, 254543, Control_c, 0, 64, 29
1, 254543, Control_c, 0, 67, 116
1, 254552, Note_off_c, 0, 81, 58
1, 254557, Control_c, 0, 64, 30
1, 254557, Control_c, 0, 67, 115
1, 254569, Note_off_c, 0, 69, 65
1, 254572, Control_c, 0, 64, 31
1, 254587, Note_on_c, 0, 77, 71
1, 254587, Control_c, 0, 64, 31
1, 254587, Control_c, 0, 67, 116
1, 254598, Note_on_c, 0, 65, 45
1, 254617, Control_c, 0, 67, 116
1, 254623, Note_off_c, 0, 77, 59
1, 254646, Note_off_c, 0, 65, 51
1, 254666, Note_on_c, 0, 81, 65
1, 254672, Note_on_c, 0, 69, 54
1, 254676, Control_c, 0, 64, 30
1, 254691, Control_c, 0, 64, 29
1, 254700, Note_off_c, 0, 69, 66
1, 254703, Note_off_c, 0, 81, 59
1, 254706, Control_c, 0, 64, 27
1, 254721, Control_c, 0, 64, 26
1, 254721, Control_c, 0, 67, 116
1, 254736, Control_c, 0, 64, 26
1, 254736, Control_c, 0, 67, 115
1, 254742, Note_on_c, 0, 84, 67
1, 254750, Control_c, 0, 64, 27
1, 254750, Control_c, 0, 67, 114
1, 254754, Note_on_c, 0, 72, 36
1, 254765, Control_c, 0, 64, 30
1, 254765, Control_c, 0, 67, 113
1, 254780, Control_c, 0, 64, 37
1, 254780, Control_c, 0, 67, 113
1, 254795, Control_c, 0, 64, 46
1, 254795, Control_c, 0, 67, 114
1, 254796, Note_off_c, 0, 72, 61
1, 254810, Control_c, 0, 64, 55
1, 254810, Control_c, 0, 67, 114
1, 254812, Note_off_c, 0, 84, 58
1, 254822, Note_on_c, 0, 89, 73
1, 254824, Control_c, 0, 64, 59
1, 254824, Control_c, 0, 67, 116
1, 254834, Note_on_c, 0, 77, 72
1, 254839, Control_c, 0, 64, 60
1, 254839, Control_c, 0, 67, 117
1, 254855, Note_off_c, 0, 89, 68
1, 254861, Control_c, 0, 64, 62
1, 254867, Note_off_c, 0, 77, 69
1, 254876, Control_c, 0, 64, 62
1, 254906, Control_c, 0, 67, 118
1, 254921, Control_c, 0, 64, 61
1, 254921, Control_c, 0, 67, 120
1, 254936, Control_c, 0, 64, 59
1, 254936, Control_c, 0, 67, 121
1, 254951, Control_c, 0, 64, 56
1, 254965, Control_c, 0, 64, 52
1, 254980, Control_c, 0, 64, 47
1, 254995, Control_c, 0, 64, 43
1, 254995, Control_c, 0, 67, 123
1, 255010, Control_c, 0, 64, 42
1, 255010, Control_c, 0, 67, 126
1, 255025, Control_c, 0, 67, 127
1, 255069, Control_c, 0, 64, 41
1, 255100, Control_c, 0, 64, 42
1, 255114, Control_c, 0, 64, 46
1, 255129, Control_c, 0, 64, 51
1, 255129, Control_c, 0, 67, 126
1, 255144, Control_c, 0, 64, 53
1, 255144, Control_c, 0, 67, 126
1, 255159, Control_c, 0, 64, 54
1, 255159, Control_c, 0, 67, 125
1, 255174, Control_c, 0, 64, 55
1, 255174, Control_c, 0, 67, 125
1, 255188, Control_c, 0, 64, 55
1, 255188, Control_c, 0, 67, 124
1, 255203, Control_c, 0, 64, 56
1, 255218, Control_c, 0, 64, 56
1, 255233, Control_c, 0, 64, 57
1, 255247, Control_c, 0, 64, 58
1, 255262, Control_c, 0, 64, 59
1, 255262, Control_c, 0, 67, 123
1, 255272, Note_on_c, 0, 65, 51
1, 255277, Control_c, 0, 64, 59
1, 255277, Control_c, 0, 67, 122
1, 255292, Control_c, 0, 64, 60
1, 255292, Control_c, 0, 67, 122
1, 255293, Note_on_c, 0, 53, 40
1, 255304, Note_on_c, 0, 41, 44
1, 255306, Control_c, 0, 64, 61
1, 255321, Control_c, 0, 64, 61
1, 255336, Control_c, 0, 64, 62
1, 255351, Control_c, 0, 64, 63
1, 255351, Control_c, 0, 67, 121
1, 255366, Control_c, 0, 64, 64
1, 255366, Control_c, 0, 67, 120
1, 255380, Control_c, 0, 64, 65
1, 255380, Control_c, 0, 67, 120
1, 255395, Control_c, 0, 64, 65
1, 255405, Note_off_c, 0, 41, 57
1, 255406, Note_off_c, 0, 65, 56
1, 255407, Note_off_c, 0, 53, 62
1, 255410, Control_c, 0, 64, 66
1, 255410, Control_c, 0, 67, 119
1, 255425, Control_c, 0, 64, 66
1, 255425, Control_c, 0, 67, 118
1, 255440, Control_c, 0, 64, 68
1, 255440, Control_c, 0, 67, 117
1, 255454, Control_c, 0, 64, 68
1, 255454, Control_c, 0, 67, 116
1, 255469, Control_c, 0, 64, 69
1, 255469, Control_c, 0, 67, 114
1, 255484, Control_c, 0, 64, 69
1, 255484, Control_c, 0, 67, 113
1, 255499, Control_c, 0, 67, 111
1, 255514, Control_c, 0, 67, 110
1, 255529, Control_c, 0, 67, 108
1, 255544, Control_c, 0, 67, 108
1, 255559, Control_c, 0, 67, 107
1, 255573, Control_c, 0, 64, 69
1, 255573, Control_c, 0, 67, 106
1, 255588, Control_c, 0, 64, 68
1, 255588, Control_c, 0, 67, 103
1, 255610, Control_c, 0, 64, 67
1, 255610, Control_c, 0, 67, 99
1, 255624, Control_c, 0, 64, 66
1, 255624, Control_c, 0, 67, 98
1, 255639, Control_c, 0, 64, 65
1, 255654, Control_c, 0, 64, 64
1, 255669, Control_c, 0, 64, 64
1, 255684, Control_c, 0, 64, 63
1, 255699, Control_c, 0, 64, 61
1, 255714, Control_c, 0, 64, 59
1, 255729, Control_c, 0, 64, 56
1, 255743, Control_c, 0, 64, 53
1, 255743, Control_c, 0, 67, 99
1, 255758, Control_c, 0, 64, 51
1, 255773, Control_c, 0, 64, 48
1, 255787, Control_c, 0, 64, 46
1, 255802, Control_c, 0, 64, 43
1, 255817, Control_c, 0, 64, 41
1, 255831, Control_c, 0, 64, 37
1, 255846, Control_c, 0, 64, 35
1, 255861, Control_c, 0, 64, 34
1, 255877, Control_c, 0, 64, 32
1, 255892, Control_c, 0, 64, 31
1, 255892, Control_c, 0, 67, 99
1, 255907, Control_c, 0, 64, 31
1, 255966, Control_c, 0, 64, 30
1, 255981, Control_c, 0, 64, 29
1, 256010, Control_c, 0, 64, 29
1, 256025, Control_c, 0, 64, 30
1, 256084, Control_c, 0, 64, 31
1, 256099, Control_c, 0, 64, 32
1, 256114, Control_c, 0, 64, 32
1, 256143, Control_c, 0, 64, 33
1, 256232, Control_c, 0, 64, 34
1, 256262, Control_c, 0, 67, 100
1, 256307, Control_c, 0, 64, 34
1, 256432, Control_c, 0, 64, 34
1, 256432, Control_c, 0, 67, 99
1, 256477, Control_c, 0, 67, 99
1, 256507, Control_c, 0, 67, 98
1, 256536, Control_c, 0, 67, 98
1, 256551, Control_c, 0, 67, 97
1, 256566, Control_c, 0, 67, 96
1, 256581, Control_c, 0, 67, 95
1, 256595, Control_c, 0, 67, 93
1, 256610, Control_c, 0, 67, 92
1, 256625, Control_c, 0, 67, 92
1, 256640, Control_c, 0, 67, 91
1, 256654, Control_c, 0, 67, 89
1, 256669, Control_c, 0, 67, 87
1, 256685, Control_c, 0, 67, 85
1, 256730, Control_c, 0, 67, 85
1, 256745, Control_c, 0, 67, 84
1, 256759, Control_c, 0, 64, 34
1, 256759, Control_c, 0, 67, 81
1, 256774, Control_c, 0, 67, 79
1, 256789, Control_c, 0, 67, 78
1, 256819, Control_c, 0, 67, 78
1, 256833, Control_c, 0, 67, 77
1, 256863, Control_c, 0, 67, 77
1, 256877, Control_c, 0, 67, 75
1, 256892, Control_c, 0, 67, 74
1, 256907, Control_c, 0, 67, 73
1, 256922, Control_c, 0, 67, 72
1, 256937, Control_c, 0, 67, 72
1, 256951, Control_c, 0, 67, 71
1, 256966, Control_c, 0, 67, 68
1, 256981, Control_c, 0, 67, 63
1, 256996, Control_c, 0, 67, 59
1, 257011, Control_c, 0, 67, 55
1, 257025, Control_c, 0, 67, 55
1, 257040, Control_c, 0, 67, 54
1, 257055, Control_c, 0, 67, 53
1, 257070, Control_c, 0, 67, 51
1, 257085, Control_c, 0, 67, 48
1, 257107, Control_c, 0, 64, 34
1, 257107, Control_c, 0, 67, 47
1, 257137, Control_c, 0, 67, 47
1, 257151, Control_c, 0, 67, 46
1, 257166, Control_c, 0, 67, 46
1, 257181, Control_c, 0, 64, 33
1, 257181, Control_c, 0, 67, 44
1, 257196, Control_c, 0, 67, 44
1, 257225, Control_c, 0, 67, 43
1, 257240, Control_c, 0, 67, 41
1, 257255, Control_c, 0, 67, 38
1, 257270, Control_c, 0, 64, 33
1, 257270, Control_c, 0, 67, 35
1, 257285, Control_c, 0, 67, 34
1, 257300, Control_c, 0, 67, 34
1, 257315, Control_c, 0, 67, 33
1, 257344, Control_c, 0, 64, 32
1, 257374, Control_c, 0, 67, 33
1, 257404, Control_c, 0, 64, 32
1, 257404, Control_c, 0, 67, 32
1, 257419, Control_c, 0, 67, 30
1, 257434, Control_c, 0, 64, 31
1, 257434, Control_c, 0, 67, 28
1, 257449, Control_c, 0, 67, 27
1, 257463, Control_c, 0, 67, 26
1, 257479, Control_c, 0, 64, 30
1, 257479, Control_c, 0, 67, 25
1, 257493, Control_c, 0, 67, 25
1, 257523, Control_c, 0, 67, 24
1, 257553, Control_c, 0, 64, 29
1, 257568, Control_c, 0, 64, 29
1, 257627, Control_c, 0, 67, 24
1, 257701, Control_c, 0, 64, 28
1, 257701, Control_c, 0, 67, 22
1, 257716, Control_c, 0, 64, 28
1, 257716, Control_c, 0, 67, 18
1, 257731, Control_c, 0, 67, 15
1, 257746, Control_c, 0, 67, 14
1, 257761, Control_c, 0, 67, 14
1, 257775, Control_c, 0, 64, 27
1, 257790, Control_c, 0, 64, 27
1, 257790, Control_c, 0, 67, 13
1, 257835, Control_c, 0, 67, 13
1, 257857, Control_c, 0, 64, 26
1, 257857, Control_c, 0, 67, 12
1, 257872, Control_c, 0, 64, 26
1, 257872, Control_c, 0, 67, 10
1, 257887, Control_c, 0, 67, 8
1, 257916, Control_c, 0, 64, 25
1, 257931, Control_c, 0, 64, 25
1, 257931, Control_c, 0, 67, 8
1, 257946, Control_c, 0, 64, 24
1, 258005, Control_c, 0, 64, 24
1, 258005, Control_c, 0, 67, 0
1, 258020, Control_c, 0, 64, 23
1, 258079, Control_c, 0, 64, 23
1, 258094, Control_c, 0, 64, 22
1, 258361, Control_c, 0, 64, 22
1, 258420, Control_c, 0, 64, 21
1, 258435, Control_c, 0, 64, 20
1, 258450, Control_c, 0, 64, 19
1, 258480, Control_c, 0, 64, 19
1, 258495, Control_c, 0, 64, 16
1, 258510, Control_c, 0, 64, 12
1, 258524, Control_c, 0, 64, 9
1, 258539, Control_c, 0, 64, 0
1, 258614, End_track
0, 0, End_of_file
