0, 0, Header, 0, 1, 384
1, 0, Start_track
1, 0, Title_t, "Premiere Communion--H. Wong Doe "
1, 0, Text_t, "2006 International Piano-e-Competition Recital Round"
1, 0, Text_t, "St. Paul, Minnesota, July 2006"
1, 0, Text_t, "http://www.piano-e-competition.com/"
1, 0, Instrument_name_t, "Yamaha Disklavier Pro Mark IV concert grand piano"
1, 0, Sequencer_specific, 39, 67, 113, 0, 1, 0, 1, 0, 80, 114, 101, 109, 105, 101, 114, 101, 32, 67, 111, 109, 109, 117, 110, 46, 72, 101, 110, 114, 121, 32, 87, 111, 110, 103, 32, 68, 111, 101, 32, 32
1, 0, Sequencer_specific, 6, 67, 113, 0, 0, 0, 69
1, 0, System_exclusive, 21, 67, 113, 126, 21, 0, 2, 2, 0, 14, 5, 1, 4, 4, 10, 13, 4, 7, 8, 13, 2, 247
1, 0, Sequencer_specific, 5, 67, 123, 12, 2, 1
1, 0, Tempo, 512820
1, 0, Time_signature, 4, 2, 24, 8
1, 0, System_exclusive, 5, 126, 127, 9, 1, 247
1, 1, System_exclusive, 8, 67, 16, 76, 0, 0, 126, 0, 247
1, 2, System_exclusive, 8, 67, 16, 76, 8, 9, 7, 1, 247
1, 3, Control_c, 0, 0, 0
1, 4, Control_c, 0, 32, 0
1, 5, Program_c, 0, 0
1, 6, Control_c, 0, 7, 100
1, 95, Control_c, 0, 64, 14
1, 95, Control_c, 0, 67, 15
1, 184, Control_c, 0, 64, 28
1, 184, Control_c, 0, 67, 31
1, 273, Control_c, 0, 64, 42
1, 273, Control_c, 0, 67, 46
1, 362, Control_c, 0, 64, 57
1, 362, Control_c, 0, 67, 63
1, 452, Control_c, 0, 64, 70
1, 452, Control_c, 0, 67, 77
1, 541, Control_c, 0, 64, 85
1, 541, Control_c, 0, 67, 94
1, 630, Control_c, 0, 64, 98
1, 630, Control_c, 0, 67, 108
1, 719, Control_c, 0, 64, 114
1, 719, Control_c, 0, 67, 127
1, 913, Note_on_c, 0, 62, 38
1, 915, Note_on_c, 0, 58, 36
1, 916, Control_c, 0, 64, 110
1, 930, Note_on_c, 0, 53, 35
1, 931, Control_c, 0, 64, 100
1, 946, Control_c, 0, 64, 89
1, 960, Control_c, 0, 64, 80
1, 975, Control_c, 0, 64, 73
1, 990, Control_c, 0, 64, 68
1, 1004, Control_c, 0, 64, 64
1, 1034, Control_c, 0, 64, 66
1, 1049, Control_c, 0, 64, 69
1, 1064, Control_c, 0, 64, 75
1, 1079, Control_c, 0, 64, 82
1, 1093, Control_c, 0, 64, 91
1, 1108, Control_c, 0, 64, 100
1, 1123, Control_c, 0, 64, 110
1, 1138, Control_c, 0, 64, 127
1, 1220, Note_off_c, 0, 53, 37
1, 1258, Note_off_c, 0, 62, 33
1, 1268, Note_off_c, 0, 58, 42
1, 2825, Note_on_c, 0, 56, 41
1, 2829, Control_c, 0, 64, 112
1, 2830, Note_on_c, 0, 62, 42
1, 2832, Note_on_c, 0, 61, 36
1, 2837, Note_on_c, 0, 52, 42
1, 2844, Control_c, 0, 64, 82
1, 2859, Control_c, 0, 64, 66
1, 2873, Control_c, 0, 64, 54
1, 2888, Control_c, 0, 64, 46
1, 2903, Control_c, 0, 64, 45
1, 2918, Control_c, 0, 64, 47
1, 2933, Control_c, 0, 64, 53
1, 2948, Control_c, 0, 64, 61
1, 2962, Control_c, 0, 64, 68
1, 2977, Control_c, 0, 64, 78
1, 2992, Control_c, 0, 64, 92
1, 3007, Control_c, 0, 64, 104
1, 3015, Note_on_c, 0, 104, 53
1, 3022, Control_c, 0, 64, 117
1, 3043, Control_c, 0, 64, 127
1, 3072, Note_off_c, 0, 104, 57
1, 3080, Note_on_c, 0, 97, 55
1, 3114, Note_off_c, 0, 97, 63
1, 3139, Note_on_c, 0, 91, 53
1, 3164, Note_off_c, 0, 91, 61
1, 3192, Note_on_c, 0, 102, 56
1, 3226, Note_off_c, 0, 102, 66
1, 3228, Note_on_c, 0, 99, 71
1, 3258, Note_off_c, 0, 99, 64
1, 3297, Note_on_c, 0, 86, 69
1, 3343, Note_off_c, 0, 86, 61
1, 3351, Note_on_c, 0, 97, 52
1, 3397, Note_off_c, 0, 97, 63
1, 3416, Note_on_c, 0, 92, 62
1, 3445, Note_on_c, 0, 99, 63
1, 3455, Note_off_c, 0, 92, 58
1, 3473, Note_off_c, 0, 99, 65
1, 3520, Note_on_c, 0, 84, 62
1, 3566, Note_off_c, 0, 84, 48
1, 3621, Note_on_c, 0, 91, 48
1, 3662, Note_off_c, 0, 91, 65
1, 3682, Note_off_c, 0, 61, 38
1, 3816, Note_off_c, 0, 52, 20
1, 3824, Note_off_c, 0, 56, 28
1, 3956, Note_off_c, 0, 62, 40
1, 4474, Control_c, 0, 64, 103
1, 4489, Control_c, 0, 64, 80
1, 4501, Note_on_c, 0, 50, 44
1, 4504, Control_c, 0, 64, 64
1, 4504, Note_on_c, 0, 59, 37
1, 4507, Note_on_c, 0, 62, 38
1, 4519, Control_c, 0, 64, 51
1, 4524, Note_on_c, 0, 55, 21
1, 4540, Control_c, 0, 64, 41
1, 4555, Control_c, 0, 64, 36
1, 4570, Control_c, 0, 64, 36
1, 4585, Control_c, 0, 64, 37
1, 4600, Control_c, 0, 64, 42
1, 4614, Control_c, 0, 64, 51
1, 4629, Control_c, 0, 64, 60
1, 4644, Control_c, 0, 64, 68
1, 4659, Control_c, 0, 64, 77
1, 4674, Control_c, 0, 64, 86
1, 4689, Control_c, 0, 64, 92
1, 4704, Control_c, 0, 64, 97
1, 4719, Control_c, 0, 64, 102
1, 4734, Control_c, 0, 64, 117
1, 4737, Note_off_c, 0, 55, 40
1, 4748, Control_c, 0, 64, 127
1, 4778, Note_off_c, 0, 59, 44
1, 4795, Note_off_c, 0, 50, 36
1, 4877, Note_off_c, 0, 62, 36
1, 6439, Control_c, 0, 64, 116
1, 6451, Note_on_c, 0, 58, 51
1, 6451, Note_on_c, 0, 65, 54
1, 6454, Control_c, 0, 64, 87
1, 6454, Note_on_c, 0, 62, 47
1, 6465, Note_on_c, 0, 53, 47
1, 6468, Control_c, 0, 64, 70
1, 6483, Control_c, 0, 64, 56
1, 6498, Control_c, 0, 64, 41
1, 6513, Control_c, 0, 64, 0
1, 6602, Control_c, 0, 64, 36
1, 6617, Control_c, 0, 64, 49
1, 6631, Control_c, 0, 64, 62
1, 6646, Control_c, 0, 64, 67
1, 6661, Control_c, 0, 64, 71
1, 6676, Control_c, 0, 64, 75
1, 6691, Control_c, 0, 64, 78
1, 6705, Control_c, 0, 64, 82
1, 6720, Control_c, 0, 64, 89
1, 6735, Control_c, 0, 64, 99
1, 6750, Control_c, 0, 64, 125
1, 6766, Control_c, 0, 64, 127
1, 7277, Note_on_c, 0, 86, 63
1, 7286, Note_on_c, 0, 82, 53
1, 7771, Note_off_c, 0, 86, 32
1, 7819, Note_off_c, 0, 82, 33
1, 8066, Note_on_c, 0, 89, 64
1, 8070, Note_on_c, 0, 85, 58
1, 8355, Note_off_c, 0, 85, 63
1, 8782, Note_on_c, 0, 82, 58
1, 8799, Note_on_c, 0, 79, 46
1, 8814, Note_off_c, 0, 89, 34
1, 9343, Note_off_c, 0, 82, 34
1, 9454, Note_off_c, 0, 79, 39
1, 9529, Note_on_c, 0, 83, 59
1, 9530, Note_on_c, 0, 88, 57
1, 9812, Note_off_c, 0, 88, 33
1, 10081, Note_off_c, 0, 83, 41
1, 10269, Note_on_c, 0, 80, 57
1, 10282, Note_on_c, 0, 77, 50
1, 10654, Note_off_c, 0, 77, 36
1, 10793, Note_off_c, 0, 80, 40
1, 11080, Note_on_c, 0, 85, 58
1, 11087, Note_on_c, 0, 79, 50
1, 11422, Note_off_c, 0, 85, 50
1, 11530, Note_off_c, 0, 79, 27
1, 11858, Control_c, 0, 64, 97
1, 11870, Note_on_c, 0, 83, 52
1, 11873, Control_c, 0, 64, 84
1, 11881, Note_on_c, 0, 76, 44
1, 11888, Control_c, 0, 64, 76
1, 11903, Control_c, 0, 64, 72
1, 11917, Control_c, 0, 64, 71
1, 11947, Control_c, 0, 64, 72
1, 11962, Control_c, 0, 64, 74
1, 11977, Control_c, 0, 64, 76
1, 11992, Control_c, 0, 64, 78
1, 12006, Control_c, 0, 64, 81
1, 12028, Control_c, 0, 64, 83
1, 12043, Control_c, 0, 64, 87
1, 12058, Control_c, 0, 64, 90
1, 12073, Control_c, 0, 64, 94
1, 12083, Note_off_c, 0, 83, 34
1, 12087, Control_c, 0, 64, 98
1, 12102, Control_c, 0, 64, 104
1, 12117, Control_c, 0, 64, 112
1, 12132, Control_c, 0, 64, 127
1, 12189, Note_off_c, 0, 76, 41
1, 12652, Control_c, 0, 64, 110
1, 12667, Control_c, 0, 64, 89
1, 12668, Note_on_c, 0, 77, 49
1, 12678, Note_on_c, 0, 73, 40
1, 12681, Control_c, 0, 64, 74
1, 12696, Control_c, 0, 64, 64
1, 12711, Control_c, 0, 64, 57
1, 12726, Control_c, 0, 64, 55
1, 12741, Control_c, 0, 64, 57
1, 12755, Control_c, 0, 64, 59
1, 12778, Control_c, 0, 64, 62
1, 12793, Control_c, 0, 64, 65
1, 12807, Control_c, 0, 64, 70
1, 12822, Control_c, 0, 64, 78
1, 12837, Control_c, 0, 64, 85
1, 12852, Control_c, 0, 64, 93
1, 12867, Control_c, 0, 64, 98
1, 12880, Note_off_c, 0, 77, 47
1, 12881, Control_c, 0, 64, 102
1, 12896, Control_c, 0, 64, 108
1, 12898, Note_off_c, 0, 73, 33
1, 12911, Control_c, 0, 64, 119
1, 12926, Control_c, 0, 64, 127
1, 13569, Note_on_c, 0, 74, 42
1, 13572, Control_c, 0, 64, 111
1, 13575, Note_on_c, 0, 70, 40
1, 13586, Control_c, 0, 64, 92
1, 13601, Control_c, 0, 64, 78
1, 13616, Control_c, 0, 64, 68
1, 13630, Control_c, 0, 64, 60
1, 13645, Control_c, 0, 64, 55
1, 13660, Control_c, 0, 64, 54
1, 13675, Control_c, 0, 64, 54
1, 13690, Control_c, 0, 64, 55
1, 13704, Control_c, 0, 64, 58
1, 13719, Control_c, 0, 64, 61
1, 13734, Control_c, 0, 64, 64
1, 13749, Control_c, 0, 64, 69
1, 13764, Control_c, 0, 64, 77
1, 13778, Control_c, 0, 64, 87
1, 13793, Control_c, 0, 64, 95
1, 13808, Control_c, 0, 64, 99
1, 13822, Control_c, 0, 64, 103
1, 13837, Control_c, 0, 64, 109
1, 13852, Control_c, 0, 64, 121
1, 13867, Control_c, 0, 64, 127
1, 15621, Note_off_c, 0, 62, 38
1, 15631, Note_off_c, 0, 70, 35
1, 15641, Note_off_c, 0, 65, 39
1, 15652, Note_off_c, 0, 58, 32
1, 15662, Note_off_c, 0, 74, 37
1, 15713, Note_off_c, 0, 53, 29
1, 16246, Control_c, 0, 64, 107
1, 16261, Control_c, 0, 64, 97
1, 16276, Control_c, 0, 64, 88
1, 16290, Control_c, 0, 64, 78
1, 16305, Control_c, 0, 64, 69
1, 16320, Control_c, 0, 64, 60
1, 16335, Control_c, 0, 64, 55
1, 16351, Control_c, 0, 64, 51
1, 16366, Control_c, 0, 64, 50
1, 16381, Control_c, 0, 64, 48
1, 16395, Control_c, 0, 64, 47
1, 16410, Control_c, 0, 64, 45
1, 16425, Control_c, 0, 64, 43
1, 16440, Control_c, 0, 64, 43
1, 16469, Control_c, 0, 64, 43
1, 16484, Control_c, 0, 64, 44
1, 16499, Control_c, 0, 64, 47
1, 16521, Control_c, 0, 64, 50
1, 16536, Control_c, 0, 64, 54
1, 16551, Control_c, 0, 64, 57
1, 16566, Control_c, 0, 64, 59
1, 16581, Control_c, 0, 64, 61
1, 16595, Control_c, 0, 64, 62
1, 16610, Control_c, 0, 64, 64
1, 16625, Control_c, 0, 64, 65
1, 16640, Control_c, 0, 64, 67
1, 16641, Note_on_c, 0, 62, 33
1, 16652, Note_on_c, 0, 53, 29
1, 16654, Control_c, 0, 64, 69
1, 16669, Control_c, 0, 64, 72
1, 16683, Poly_aftertouch_c, 0, 58, 127
1, 16684, Note_on_c, 0, 58, 3
1, 16684, Control_c, 0, 64, 74
1, 16699, Control_c, 0, 64, 77
1, 16714, Control_c, 0, 64, 79
1, 16729, Control_c, 0, 64, 83
1, 16744, Control_c, 0, 64, 89
1, 16759, Control_c, 0, 64, 96
1, 16773, Control_c, 0, 64, 106
1, 16788, Control_c, 0, 64, 127
1, 16842, Note_off_c, 0, 58, 20
1, 16894, Note_off_c, 0, 53, 38
1, 16914, Note_off_c, 0, 62, 43
1, 18552, Control_c, 0, 64, 98
1, 18567, Control_c, 0, 64, 76
1, 18568, Note_on_c, 0, 62, 36
1, 18568, Note_on_c, 0, 52, 39
1, 18568, Note_on_c, 0, 61, 20
1, 18571, Note_on_c, 0, 56, 34
1, 18582, Control_c, 0, 64, 65
1, 18597, Control_c, 0, 64, 59
1, 18611, Control_c, 0, 64, 57
1, 18626, Control_c, 0, 64, 57
1, 18641, Control_c, 0, 64, 59
1, 18656, Control_c, 0, 64, 62
1, 18671, Control_c, 0, 64, 69
1, 18686, Control_c, 0, 64, 83
1, 18700, Control_c, 0, 64, 113
1, 18715, Control_c, 0, 64, 127
1, 18753, Note_on_c, 0, 104, 50
1, 18811, Note_off_c, 0, 104, 59
1, 18824, Note_on_c, 0, 97, 51
1, 18855, Note_off_c, 0, 97, 60
1, 18892, Note_on_c, 0, 91, 42
1, 18917, Note_off_c, 0, 91, 48
1, 18943, Note_on_c, 0, 102, 61
1, 18982, Note_off_c, 0, 102, 63
1, 18987, Note_on_c, 0, 99, 65
1, 19018, Note_off_c, 0, 99, 63
1, 19062, Note_on_c, 0, 86, 55
1, 19081, Note_off_c, 0, 86, 61
1, 19112, Note_on_c, 0, 97, 51
1, 19149, Note_off_c, 0, 97, 63
1, 19167, Note_on_c, 0, 92, 62
1, 19215, Note_off_c, 0, 92, 58
1, 19219, Note_on_c, 0, 99, 28
1, 19257, Note_off_c, 0, 99, 40
1, 19283, Note_on_c, 0, 84, 44
1, 19314, Note_off_c, 0, 84, 51
1, 19374, Note_on_c, 0, 91, 48
1, 19435, Note_off_c, 0, 61, 35
1, 19650, Note_off_c, 0, 56, 37
1, 19661, Note_off_c, 0, 52, 38
1, 19698, Note_off_c, 0, 62, 35
1, 19833, Note_off_c, 0, 91, 58
1, 20335, Note_on_c, 0, 62, 37
1, 20336, Note_on_c, 0, 59, 41
1, 20340, Control_c, 0, 64, 90
1, 20343, Note_on_c, 0, 50, 45
1, 20350, Note_on_c, 0, 55, 33
1, 20355, Control_c, 0, 64, 71
1, 20369, Control_c, 0, 64, 59
1, 20384, Control_c, 0, 64, 49
1, 20399, Control_c, 0, 64, 47
1, 20413, Control_c, 0, 64, 47
1, 20428, Control_c, 0, 64, 49
1, 20443, Control_c, 0, 64, 53
1, 20458, Control_c, 0, 64, 59
1, 20473, Control_c, 0, 64, 64
1, 20488, Control_c, 0, 64, 70
1, 20503, Control_c, 0, 64, 79
1, 20517, Control_c, 0, 64, 90
1, 20532, Control_c, 0, 64, 97
1, 20547, Control_c, 0, 64, 104
1, 20555, Note_off_c, 0, 55, 42
1, 20562, Control_c, 0, 64, 112
1, 20577, Control_c, 0, 64, 127
1, 20607, Note_off_c, 0, 50, 52
1, 20661, Note_off_c, 0, 59, 45
1, 20753, Note_off_c, 0, 62, 36
1, 22458, Note_on_c, 0, 58, 54
1, 22459, Control_c, 0, 64, 99
1, 22461, Note_on_c, 0, 65, 61
1, 22472, Note_on_c, 0, 53, 55
1, 22473, Note_on_c, 0, 62, 51
1, 22474, Control_c, 0, 64, 80
1, 22489, Control_c, 0, 64, 65
1, 22511, Control_c, 0, 64, 50
1, 22526, Control_c, 0, 64, 35
1, 22541, Control_c, 0, 64, 0
1, 22600, Control_c, 0, 64, 29
1, 22615, Control_c, 0, 64, 39
1, 22630, Control_c, 0, 64, 52
1, 22645, Control_c, 0, 64, 62
1, 22659, Control_c, 0, 64, 69
1, 22674, Control_c, 0, 64, 74
1, 22689, Control_c, 0, 64, 77
1, 22704, Control_c, 0, 64, 80
1, 22718, Control_c, 0, 64, 84
1, 22735, Control_c, 0, 64, 92
1, 22750, Control_c, 0, 64, 112
1, 22764, Control_c, 0, 64, 127
1, 23340, Note_on_c, 0, 89, 66
1, 23354, Note_on_c, 0, 85, 50
1, 23715, Note_off_c, 0, 85, 50
1, 24018, Note_off_c, 0, 89, 38
1, 24044, Note_on_c, 0, 92, 66
1, 24060, Note_on_c, 0, 86, 53
1, 24506, Note_off_c, 0, 92, 33
1, 24703, Note_off_c, 0, 86, 48
1, 24746, Note_on_c, 0, 88, 60
1, 24771, Note_on_c, 0, 83, 52
1, 25364, Note_off_c, 0, 88, 34
1, 25421, Note_off_c, 0, 83, 34
1, 25486, Note_on_c, 0, 91, 60
1, 25507, Note_on_c, 0, 85, 49
1, 25692, Note_off_c, 0, 91, 64
1, 26210, Note_off_c, 0, 85, 56
1, 26228, Note_on_c, 0, 82, 51
1, 26234, Note_on_c, 0, 79, 39
1, 26727, Note_off_c, 0, 79, 42
1, 26772, Note_off_c, 0, 82, 54
1, 26979, Note_on_c, 0, 88, 52
1, 26986, Note_on_c, 0, 83, 49
1, 27215, Note_off_c, 0, 88, 37
1, 27436, Note_off_c, 0, 83, 53
1, 27692, Note_on_c, 0, 80, 52
1, 27713, Note_on_c, 0, 77, 42
1, 28017, Note_off_c, 0, 77, 27
1, 28205, Note_off_c, 0, 80, 40
1, 28435, Control_c, 0, 64, 109
1, 28442, Note_on_c, 0, 85, 54
1, 28450, Control_c, 0, 64, 95
1, 28456, Note_on_c, 0, 79, 37
1, 28465, Control_c, 0, 64, 87
1, 28480, Control_c, 0, 64, 84
1, 28502, Control_c, 0, 64, 84
1, 28561, Control_c, 0, 64, 85
1, 28576, Control_c, 0, 64, 87
1, 28591, Control_c, 0, 64, 89
1, 28606, Control_c, 0, 64, 91
1, 28621, Control_c, 0, 64, 94
1, 28635, Control_c, 0, 64, 97
1, 28650, Control_c, 0, 64, 100
1, 28664, Control_c, 0, 64, 104
1, 28679, Control_c, 0, 64, 109
1, 28694, Control_c, 0, 64, 114
1, 28709, Control_c, 0, 64, 127
1, 28878, Note_off_c, 0, 85, 37
1, 28896, Note_off_c, 0, 79, 36
1, 29216, Note_on_c, 0, 83, 48
1, 29228, Note_on_c, 0, 76, 42
1, 29403, Note_off_c, 0, 83, 49
1, 29427, Note_off_c, 0, 76, 36
1, 29977, Control_c, 0, 64, 110
1, 29999, Control_c, 0, 64, 98
1, 30014, Control_c, 0, 64, 85
1, 30029, Control_c, 0, 64, 74
1, 30035, Note_on_c, 0, 77, 43
1, 30044, Control_c, 0, 64, 64
1, 30044, Note_on_c, 0, 73, 36
1, 30059, Control_c, 0, 64, 57
1, 30073, Control_c, 0, 64, 55
1, 30088, Control_c, 0, 64, 55
1, 30103, Control_c, 0, 64, 57
1, 30118, Control_c, 0, 64, 59
1, 30132, Control_c, 0, 64, 62
1, 30147, Control_c, 0, 64, 65
1, 30162, Control_c, 0, 64, 69
1, 30177, Control_c, 0, 64, 76
1, 30192, Control_c, 0, 64, 83
1, 30206, Control_c, 0, 64, 89
1, 30221, Control_c, 0, 64, 94
1, 30236, Control_c, 0, 64, 98
1, 30251, Control_c, 0, 64, 103
1, 30266, Control_c, 0, 64, 109
1, 30280, Control_c, 0, 64, 118
1, 30295, Control_c, 0, 64, 127
1, 30310, Note_off_c, 0, 77, 33
1, 30335, Note_off_c, 0, 73, 35
1, 30896, Control_c, 0, 64, 106
1, 30911, Control_c, 0, 64, 91
1, 30915, Note_on_c, 0, 74, 39
1, 30926, Control_c, 0, 64, 78
1, 30927, Note_on_c, 0, 70, 33
1, 30941, Control_c, 0, 64, 68
1, 30955, Control_c, 0, 64, 60
1, 30970, Control_c, 0, 64, 55
1, 30985, Control_c, 0, 64, 53
1, 31015, Control_c, 0, 64, 54
1, 31029, Control_c, 0, 64, 56
1, 31044, Control_c, 0, 64, 59
1, 31059, Control_c, 0, 64, 62
1, 31074, Control_c, 0, 64, 65
1, 31089, Control_c, 0, 64, 70
1, 31103, Control_c, 0, 64, 77
1, 31118, Control_c, 0, 64, 85
1, 31133, Control_c, 0, 64, 91
1, 31147, Control_c, 0, 64, 94
1, 31162, Control_c, 0, 64, 98
1, 31177, Control_c, 0, 64, 101
1, 31192, Control_c, 0, 64, 107
1, 31207, Control_c, 0, 64, 116
1, 31222, Control_c, 0, 64, 127
1, 31911, Note_off_c, 0, 65, 22
1, 32000, Note_off_c, 0, 62, 33
1, 32179, Note_off_c, 0, 58, 28
1, 32372, Note_off_c, 0, 70, 26
1, 32462, Note_off_c, 0, 74, 20
1, 32506, Note_off_c, 0, 53, 29
1, 33528, Control_c, 0, 64, 119
1, 33542, Control_c, 0, 64, 103
1, 33557, Control_c, 0, 64, 94
1, 33572, Control_c, 0, 64, 84
1, 33587, Control_c, 0, 64, 76
1, 33602, Control_c, 0, 64, 68
1, 33616, Control_c, 0, 64, 61
1, 33631, Control_c, 0, 64, 57
1, 33646, Control_c, 0, 64, 54
1, 33660, Control_c, 0, 64, 54
1, 33675, Control_c, 0, 64, 53
1, 33690, Control_c, 0, 64, 52
1, 33705, Control_c, 0, 64, 52
1, 33720, Control_c, 0, 64, 51
1, 33846, Control_c, 0, 64, 52
1, 33861, Control_c, 0, 64, 53
1, 33875, Control_c, 0, 64, 54
1, 33890, Control_c, 0, 64, 55
1, 33905, Control_c, 0, 64, 57
1, 33921, Control_c, 0, 64, 59
1, 33936, Control_c, 0, 64, 61
1, 33951, Control_c, 0, 64, 63
1, 33965, Control_c, 0, 64, 65
1, 33968, Note_on_c, 0, 62, 37
1, 33974, Note_on_c, 0, 58, 37
1, 33980, Note_on_c, 0, 53, 33
1, 33980, Control_c, 0, 64, 68
1, 33995, Control_c, 0, 64, 72
1, 34010, Control_c, 0, 64, 76
1, 34025, Control_c, 0, 64, 80
1, 34039, Control_c, 0, 64, 83
1, 34054, Control_c, 0, 64, 87
1, 34069, Control_c, 0, 64, 92
1, 34084, Control_c, 0, 64, 100
1, 34098, Control_c, 0, 64, 117
1, 34113, Control_c, 0, 64, 127
1, 34247, Note_off_c, 0, 53, 31
1, 34277, Note_off_c, 0, 58, 38
1, 34326, Note_off_c, 0, 62, 32
1, 35908, Control_c, 0, 64, 111
1, 35923, Control_c, 0, 64, 100
1, 35938, Control_c, 0, 64, 92
1, 35953, Control_c, 0, 64, 84
1, 35967, Control_c, 0, 64, 76
1, 35990, Control_c, 0, 64, 67
1, 36004, Note_on_c, 0, 62, 44
1, 36005, Control_c, 0, 64, 60
1, 36016, Note_on_c, 0, 52, 41
1, 36019, Control_c, 0, 64, 54
1, 36020, Note_on_c, 0, 56, 38
1, 36025, Note_on_c, 0, 61, 38
1, 36034, Control_c, 0, 64, 49
1, 36049, Control_c, 0, 64, 47
1, 36063, Control_c, 0, 64, 46
1, 36093, Control_c, 0, 64, 49
1, 36108, Control_c, 0, 64, 55
1, 36123, Control_c, 0, 64, 64
1, 36137, Control_c, 0, 64, 75
1, 36152, Control_c, 0, 64, 95
1, 36167, Control_c, 0, 64, 127
1, 36290, Note_on_c, 0, 104, 53
1, 36354, Note_off_c, 0, 104, 53
1, 36362, Note_on_c, 0, 97, 55
1, 36412, Note_off_c, 0, 97, 62
1, 36427, Note_on_c, 0, 91, 58
1, 36468, Note_off_c, 0, 91, 62
1, 36489, Note_on_c, 0, 102, 59
1, 36543, Note_on_c, 0, 99, 72
1, 36549, Note_off_c, 0, 102, 56
1, 36580, Note_off_c, 0, 99, 59
1, 36624, Note_on_c, 0, 86, 57
1, 36654, Note_off_c, 0, 86, 67
1, 36672, Note_on_c, 0, 97, 62
1, 36724, Note_on_c, 0, 92, 60
1, 36727, Note_off_c, 0, 97, 59
1, 36765, Note_on_c, 0, 99, 63
1, 36794, Note_off_c, 0, 92, 65
1, 36796, Note_off_c, 0, 99, 65
1, 36847, Note_on_c, 0, 84, 53
1, 36893, Note_off_c, 0, 84, 55
1, 36924, Note_on_c, 0, 91, 49
1, 37064, Note_off_c, 0, 61, 30
1, 37081, Note_off_c, 0, 56, 36
1, 37143, Note_off_c, 0, 52, 40
1, 37260, Note_off_c, 0, 62, 57
1, 37510, Note_off_c, 0, 91, 62
1, 37739, Control_c, 0, 64, 100
1, 37744, Note_on_c, 0, 62, 49
1, 37754, Control_c, 0, 64, 73
1, 37757, Note_on_c, 0, 59, 44
1, 37766, Note_on_c, 0, 55, 39
1, 37769, Control_c, 0, 64, 58
1, 37770, Note_on_c, 0, 50, 41
1, 37783, Control_c, 0, 64, 44
1, 37798, Control_c, 0, 64, 36
1, 37828, Control_c, 0, 64, 38
1, 37842, Control_c, 0, 64, 43
1, 37857, Control_c, 0, 64, 54
1, 37872, Control_c, 0, 64, 63
1, 37887, Control_c, 0, 64, 71
1, 37902, Control_c, 0, 64, 82
1, 37918, Control_c, 0, 64, 93
1, 37932, Control_c, 0, 64, 103
1, 37947, Control_c, 0, 64, 113
1, 37953, Note_off_c, 0, 55, 52
1, 37962, Control_c, 0, 64, 127
1, 38024, Note_off_c, 0, 50, 55
1, 38078, Note_off_c, 0, 59, 36
1, 38138, Note_off_c, 0, 62, 51
1, 39884, Note_on_c, 0, 65, 59
1, 39884, Note_on_c, 0, 58, 55
1, 39888, Note_on_c, 0, 62, 53
1, 39901, Note_on_c, 0, 53, 46
1, 39940, Control_c, 0, 64, 95
1, 39955, Control_c, 0, 64, 77
1, 39970, Control_c, 0, 64, 64
1, 39984, Control_c, 0, 64, 52
1, 39999, Control_c, 0, 64, 42
1, 40014, Control_c, 0, 64, 38
1, 40028, Control_c, 0, 64, 37
1, 40043, Control_c, 0, 64, 36
1, 40058, Control_c, 0, 64, 37
1, 40073, Control_c, 0, 64, 40
1, 40088, Control_c, 0, 64, 47
1, 40103, Control_c, 0, 64, 57
1, 40117, Control_c, 0, 64, 62
1, 40132, Control_c, 0, 64, 66
1, 40147, Control_c, 0, 64, 71
1, 40162, Control_c, 0, 64, 77
1, 40177, Control_c, 0, 64, 85
1, 40191, Control_c, 0, 64, 96
1, 40206, Control_c, 0, 64, 121
1, 40221, Control_c, 0, 64, 127
1, 40591, Note_on_c, 0, 97, 39
1, 40719, Note_on_c, 0, 99, 45
1, 40737, Note_off_c, 0, 97, 38
1, 40805, Note_on_c, 0, 102, 47
1, 40852, Note_off_c, 0, 99, 53
1, 40873, Note_on_c, 0, 104, 62
1, 40885, Note_off_c, 0, 102, 58
1, 40916, Note_off_c, 0, 104, 61
1, 40963, Note_on_c, 0, 91, 48
1, 40992, Note_off_c, 0, 91, 56
1, 41025, Note_on_c, 0, 104, 65
1, 41061, Note_off_c, 0, 104, 61
1, 41091, Note_on_c, 0, 91, 58
1, 41132, Note_off_c, 0, 91, 63
1, 41190, Note_on_c, 0, 92, 55
1, 41250, Note_off_c, 0, 92, 58
1, 41277, Note_on_c, 0, 94, 48
1, 41332, Note_off_c, 0, 94, 53
1, 41336, Note_on_c, 0, 97, 53
1, 41411, Note_on_c, 0, 99, 64
1, 41430, Note_off_c, 0, 97, 58
1, 41458, Note_off_c, 0, 99, 54
1, 41481, Note_on_c, 0, 86, 57
1, 41522, Note_off_c, 0, 86, 59
1, 41548, Note_on_c, 0, 99, 62
1, 41583, Note_off_c, 0, 99, 63
1, 41617, Note_on_c, 0, 86, 54
1, 41639, Note_off_c, 0, 86, 62
1, 41697, Note_on_c, 0, 85, 53
1, 41747, Note_off_c, 0, 85, 59
1, 41768, Note_on_c, 0, 87, 52
1, 41830, Note_on_c, 0, 90, 53
1, 41850, Note_off_c, 0, 87, 53
1, 41900, Note_on_c, 0, 92, 67
1, 41918, Note_off_c, 0, 90, 56
1, 41950, Note_off_c, 0, 92, 57
1, 41981, Note_on_c, 0, 79, 58
1, 42024, Note_off_c, 0, 79, 57
1, 42057, Note_on_c, 0, 92, 53
1, 42081, Note_off_c, 0, 92, 57
1, 42115, Note_on_c, 0, 79, 53
1, 42147, Note_off_c, 0, 79, 65
1, 42189, Note_on_c, 0, 80, 56
1, 42234, Note_off_c, 0, 80, 54
1, 42257, Note_on_c, 0, 82, 52
1, 42326, Note_on_c, 0, 85, 53
1, 42367, Note_off_c, 0, 82, 54
1, 42389, Note_on_c, 0, 87, 57
1, 42410, Note_off_c, 0, 85, 57
1, 42448, Note_off_c, 0, 87, 62
1, 42458, Note_on_c, 0, 74, 60
1, 42503, Note_off_c, 0, 74, 57
1, 42525, Note_on_c, 0, 87, 54
1, 42557, Note_off_c, 0, 87, 67
1, 42590, Note_on_c, 0, 74, 57
1, 42619, Note_off_c, 0, 74, 64
1, 42681, Note_on_c, 0, 73, 50
1, 42742, Note_off_c, 0, 73, 53
1, 42755, Note_on_c, 0, 75, 53
1, 42833, Note_on_c, 0, 78, 48
1, 42887, Note_off_c, 0, 65, 56
1, 42889, Note_off_c, 0, 75, 35
1, 42906, Note_on_c, 0, 80, 54
1, 42922, Note_off_c, 0, 78, 51
1, 42946, Note_off_c, 0, 80, 56
1, 42970, Note_on_c, 0, 67, 54
1, 43017, Note_off_c, 0, 67, 53
1, 43047, Note_on_c, 0, 80, 59
1, 43074, Note_off_c, 0, 80, 67
1, 43131, Note_on_c, 0, 67, 40
1, 43144, Note_off_c, 0, 62, 60
1, 43165, Note_off_c, 0, 67, 52
1, 43196, Note_on_c, 0, 68, 50
1, 43289, Note_on_c, 0, 70, 44
1, 43297, Note_off_c, 0, 68, 37
1, 43339, Note_off_c, 0, 70, 56
1, 43374, Note_on_c, 0, 73, 46
1, 43452, Note_on_c, 0, 75, 61
1, 43464, Note_off_c, 0, 73, 56
1, 43491, Control_c, 0, 64, 125
1, 43506, Control_c, 0, 64, 111
1, 43521, Control_c, 0, 64, 105
1, 43522, Note_off_c, 0, 75, 58
1, 43536, Control_c, 0, 64, 98
1, 43539, Note_on_c, 0, 62, 52
1, 43551, Control_c, 0, 64, 92
1, 43566, Control_c, 0, 64, 88
1, 43581, Control_c, 0, 64, 85
1, 43595, Note_off_c, 0, 62, 52
1, 43596, Control_c, 0, 64, 84
1, 43610, Control_c, 0, 64, 83
1, 43638, Note_on_c, 0, 75, 53
1, 43640, Control_c, 0, 64, 83
1, 43655, Control_c, 0, 64, 82
1, 43670, Control_c, 0, 64, 80
1, 43674, Note_off_c, 0, 75, 59
1, 43684, Control_c, 0, 64, 78
1, 43699, Control_c, 0, 64, 77
1, 43714, Control_c, 0, 64, 75
1, 43722, Note_on_c, 0, 62, 48
1, 43729, Control_c, 0, 64, 73
1, 43744, Control_c, 0, 64, 71
1, 43758, Control_c, 0, 64, 70
1, 43773, Control_c, 0, 64, 69
1, 43788, Control_c, 0, 64, 68
1, 43891, Control_c, 0, 64, 68
1, 43906, Control_c, 0, 64, 67
1, 43921, Control_c, 0, 64, 66
1, 43936, Control_c, 0, 64, 65
1, 43950, Control_c, 0, 64, 62
1, 43965, Control_c, 0, 64, 60
1, 43980, Control_c, 0, 64, 57
1, 43995, Control_c, 0, 64, 54
1, 44010, Control_c, 0, 64, 52
1, 44025, Control_c, 0, 64, 49
1, 44040, Control_c, 0, 64, 44
1, 44055, Control_c, 0, 64, 39
1, 44069, Control_c, 0, 64, 33
1, 44084, Control_c, 0, 64, 28
1, 44086, Poly_aftertouch_c, 0, 65, 127
1, 44099, Control_c, 0, 64, 0
1, 44202, Control_c, 0, 64, 29
1, 44225, Control_c, 0, 64, 35
1, 44239, Control_c, 0, 64, 42
1, 44254, Control_c, 0, 64, 50
1, 44269, Control_c, 0, 64, 58
1, 44284, Control_c, 0, 64, 62
1, 44299, Control_c, 0, 64, 64
1, 44314, Control_c, 0, 64, 65
1, 44329, Control_c, 0, 64, 66
1, 44344, Control_c, 0, 64, 68
1, 44359, Control_c, 0, 64, 70
1, 44374, Control_c, 0, 64, 73
1, 44389, Control_c, 0, 64, 76
1, 44404, Control_c, 0, 64, 81
1, 44419, Control_c, 0, 64, 86
1, 44433, Control_c, 0, 64, 92
1, 44448, Control_c, 0, 64, 99
1, 44463, Control_c, 0, 64, 110
1, 44478, Control_c, 0, 64, 127
1, 46501, Poly_aftertouch_c, 0, 65, 0
1, 46587, Note_off_c, 0, 62, 40
1, 46657, Note_off_c, 0, 58, 31
1, 46725, Note_off_c, 0, 53, 38
1, 47095, Control_c, 0, 64, 114
1, 47110, Control_c, 0, 64, 106
1, 47125, Control_c, 0, 64, 100
1, 47140, Control_c, 0, 64, 94
1, 47155, Control_c, 0, 64, 87
1, 47169, Control_c, 0, 64, 82
1, 47184, Control_c, 0, 64, 76
1, 47199, Control_c, 0, 64, 69
1, 47220, Control_c, 0, 64, 63
1, 47235, Control_c, 0, 64, 58
1, 47250, Control_c, 0, 64, 54
1, 47265, Control_c, 0, 64, 53
1, 47280, Control_c, 0, 64, 52
1, 47295, Control_c, 0, 64, 51
1, 47310, Control_c, 0, 64, 50
1, 47325, Control_c, 0, 64, 48
1, 47340, Control_c, 0, 64, 46
1, 47354, Control_c, 0, 64, 44
1, 47399, Control_c, 0, 64, 45
1, 47414, Control_c, 0, 64, 47
1, 47428, Control_c, 0, 64, 49
1, 47443, Control_c, 0, 64, 52
1, 47458, Control_c, 0, 64, 55
1, 47473, Control_c, 0, 64, 57
1, 47488, Control_c, 0, 64, 59
1, 47504, Control_c, 0, 64, 61
1, 47518, Control_c, 0, 64, 64
1, 47533, Control_c, 0, 64, 66
1, 47548, Control_c, 0, 64, 69
1, 47563, Control_c, 0, 64, 72
1, 47578, Control_c, 0, 64, 75
1, 47589, Note_on_c, 0, 58, 39
1, 47590, Note_on_c, 0, 62, 34
1, 47592, Control_c, 0, 64, 78
1, 47607, Control_c, 0, 64, 81
1, 47617, Note_on_c, 0, 53, 35
1, 47622, Control_c, 0, 64, 85
1, 47637, Control_c, 0, 64, 91
1, 47651, Control_c, 0, 64, 100
1, 47666, Control_c, 0, 64, 114
1, 47681, Control_c, 0, 64, 127
1, 48095, Note_on_c, 0, 86, 18
1, 48162, Note_off_c, 0, 86, 42
1, 48192, Note_on_c, 0, 83, 39
1, 48241, Note_off_c, 0, 83, 62
1, 48276, Note_on_c, 0, 82, 53
1, 48313, Note_off_c, 0, 82, 61
1, 48359, Note_on_c, 0, 81, 50
1, 48402, Note_off_c, 0, 81, 57
1, 48438, Note_on_c, 0, 92, 41
1, 48495, Note_off_c, 0, 92, 43
1, 48544, Note_on_c, 0, 86, 49
1, 48599, Note_off_c, 0, 86, 53
1, 48625, Note_on_c, 0, 83, 35
1, 48655, Note_off_c, 0, 83, 49
1, 48675, Note_on_c, 0, 82, 56
1, 48719, Note_off_c, 0, 82, 59
1, 48760, Note_on_c, 0, 81, 46
1, 48795, Note_off_c, 0, 81, 60
1, 48827, Note_on_c, 0, 92, 46
1, 48863, Note_off_c, 0, 92, 50
1, 48911, Note_on_c, 0, 86, 46
1, 48957, Note_off_c, 0, 86, 52
1, 48973, Note_on_c, 0, 83, 55
1, 49012, Note_off_c, 0, 83, 57
1, 49028, Note_off_c, 0, 58, 58
1, 49041, Note_off_c, 0, 53, 58
1, 49051, Note_on_c, 0, 82, 53
1, 49070, Note_off_c, 0, 62, 44
1, 49090, Note_off_c, 0, 82, 60
1, 49140, Note_on_c, 0, 81, 50
1, 49183, Note_off_c, 0, 81, 59
1, 49211, Note_on_c, 0, 92, 54
1, 49274, Note_off_c, 0, 92, 47
1, 49342, Control_c, 0, 64, 87
1, 49346, Note_on_c, 0, 61, 38
1, 49346, Note_on_c, 0, 62, 44
1, 49347, Note_on_c, 0, 86, 48
1, 49357, Note_on_c, 0, 52, 34
1, 49357, Control_c, 0, 64, 71
1, 49358, Note_on_c, 0, 56, 38
1, 49371, Control_c, 0, 64, 60
1, 49386, Control_c, 0, 64, 52
1, 49398, Note_off_c, 0, 86, 47
1, 49401, Control_c, 0, 64, 49
1, 49424, Note_on_c, 0, 83, 48
1, 49430, Control_c, 0, 64, 51
1, 49445, Control_c, 0, 64, 55
1, 49460, Control_c, 0, 64, 61
1, 49473, Note_off_c, 0, 83, 62
1, 49483, Control_c, 0, 64, 67
1, 49497, Control_c, 0, 64, 79
1, 49498, Note_on_c, 0, 82, 55
1, 49512, Control_c, 0, 64, 92
1, 49527, Control_c, 0, 64, 105
1, 49542, Control_c, 0, 64, 127
1, 49544, Note_off_c, 0, 82, 55
1, 49591, Note_on_c, 0, 81, 47
1, 49621, Note_off_c, 0, 81, 54
1, 49636, Note_on_c, 0, 92, 59
1, 49680, Note_off_c, 0, 92, 60
1, 49681, Note_off_c, 0, 61, 31
1, 49718, Note_off_c, 0, 52, 39
1, 49724, Note_on_c, 0, 86, 51
1, 49766, Note_off_c, 0, 86, 57
1, 49767, Note_off_c, 0, 62, 40
1, 49785, Note_off_c, 0, 56, 40
1, 49793, Note_on_c, 0, 83, 44
1, 49823, Note_off_c, 0, 83, 54
1, 49850, Note_on_c, 0, 82, 56
1, 49886, Note_off_c, 0, 82, 59
1, 49936, Note_on_c, 0, 81, 50
1, 49975, Note_off_c, 0, 81, 62
1, 50004, Note_on_c, 0, 92, 48
1, 50038, Note_off_c, 0, 92, 50
1, 50081, Note_on_c, 0, 86, 50
1, 50121, Note_off_c, 0, 86, 60
1, 50144, Note_on_c, 0, 83, 55
1, 50204, Note_off_c, 0, 83, 61
1, 50239, Note_on_c, 0, 82, 43
1, 50291, Note_off_c, 0, 82, 54
1, 50320, Note_on_c, 0, 81, 58
1, 50384, Note_off_c, 0, 81, 55
1, 50405, Note_on_c, 0, 92, 55
1, 50464, Note_off_c, 0, 92, 52
1, 50513, Control_c, 0, 64, 90
1, 50516, Note_on_c, 0, 50, 47
1, 50517, Note_on_c, 0, 62, 48
1, 50519, Note_on_c, 0, 55, 45
1, 50521, Note_on_c, 0, 59, 41
1, 50527, Control_c, 0, 64, 67
1, 50528, Note_on_c, 0, 86, 54
1, 50542, Control_c, 0, 64, 53
1, 50557, Control_c, 0, 64, 43
1, 50571, Control_c, 0, 64, 40
1, 50575, Note_off_c, 0, 86, 56
1, 50586, Control_c, 0, 64, 41
1, 50596, Note_on_c, 0, 83, 52
1, 50601, Control_c, 0, 64, 45
1, 50616, Control_c, 0, 64, 54
1, 50631, Control_c, 0, 64, 62
1, 50638, Note_off_c, 0, 83, 62
1, 50645, Control_c, 0, 64, 70
1, 50659, Note_on_c, 0, 82, 58
1, 50660, Control_c, 0, 64, 82
1, 50675, Control_c, 0, 64, 98
1, 50691, Control_c, 0, 64, 112
1, 50706, Control_c, 0, 64, 127
1, 50720, Note_off_c, 0, 82, 54
1, 50751, Note_on_c, 0, 81, 50
1, 50798, Note_off_c, 0, 81, 58
1, 50814, Note_on_c, 0, 92, 61
1, 50851, Note_off_c, 0, 50, 53
1, 50858, Note_off_c, 0, 92, 58
1, 50899, Note_on_c, 0, 86, 58
1, 50916, Note_off_c, 0, 62, 32
1, 50968, Note_off_c, 0, 86, 55
1, 50994, Note_on_c, 0, 83, 37
1, 51002, Note_off_c, 0, 59, 31
1, 51023, Note_off_c, 0, 83, 53
1, 51044, Note_on_c, 0, 82, 57
1, 51055, Note_off_c, 0, 55, 39
1, 51088, Note_off_c, 0, 82, 55
1, 51131, Note_on_c, 0, 81, 47
1, 51182, Note_off_c, 0, 81, 54
1, 51200, Note_on_c, 0, 92, 50
1, 51256, Note_off_c, 0, 92, 54
1, 51314, Note_on_c, 0, 86, 37
1, 51354, Note_off_c, 0, 86, 49
1, 51382, Note_on_c, 0, 83, 43
1, 51426, Note_off_c, 0, 83, 59
1, 51477, Note_on_c, 0, 82, 41
1, 51540, Note_off_c, 0, 82, 50
1, 51570, Note_on_c, 0, 81, 40
1, 51614, Note_off_c, 0, 81, 62
1, 51646, Note_on_c, 0, 92, 53
1, 51702, Note_off_c, 0, 92, 57
1, 51788, Control_c, 0, 64, 91
1, 51796, Note_on_c, 0, 58, 47
1, 51800, Note_on_c, 0, 65, 43
1, 51802, Note_on_c, 0, 62, 43
1, 51803, Control_c, 0, 64, 73
1, 51808, Note_on_c, 0, 53, 41
1, 51814, Note_on_c, 0, 86, 38
1, 51817, Control_c, 0, 64, 62
1, 51832, Control_c, 0, 64, 54
1, 51847, Control_c, 0, 64, 53
1, 51859, Note_off_c, 0, 86, 45
1, 51862, Control_c, 0, 64, 54
1, 51877, Control_c, 0, 64, 58
1, 51889, Note_on_c, 0, 83, 44
1, 51891, Control_c, 0, 64, 63
1, 51906, Control_c, 0, 64, 70
1, 51921, Note_off_c, 0, 83, 54
1, 51921, Control_c, 0, 64, 85
1, 51936, Control_c, 0, 64, 116
1, 51951, Control_c, 0, 64, 127
1, 51960, Note_on_c, 0, 82, 55
1, 52010, Note_off_c, 0, 82, 55
1, 52048, Note_on_c, 0, 81, 42
1, 52073, Note_off_c, 0, 81, 56
1, 52078, Note_on_c, 0, 92, 61
1, 52129, Note_off_c, 0, 92, 62
1, 52180, Note_on_c, 0, 86, 50
1, 52209, Note_off_c, 0, 86, 66
1, 52220, Note_on_c, 0, 83, 69
1, 52273, Note_off_c, 0, 83, 60
1, 52309, Note_on_c, 0, 92, 61
1, 52355, Note_on_c, 0, 94, 67
1, 52359, Note_off_c, 0, 92, 65
1, 52384, Note_off_c, 0, 94, 66
1, 52430, Note_on_c, 0, 83, 62
1, 52461, Note_off_c, 0, 83, 64
1, 52508, Control_c, 0, 64, 98
1, 52522, Control_c, 0, 64, 74
1, 52527, Note_on_c, 0, 83, 60
1, 52537, Control_c, 0, 64, 59
1, 52552, Control_c, 0, 64, 43
1, 52566, Control_c, 0, 64, 30
1, 52611, Control_c, 0, 64, 37
1, 52626, Control_c, 0, 64, 48
1, 52640, Control_c, 0, 64, 58
1, 52655, Control_c, 0, 64, 66
1, 52670, Control_c, 0, 64, 74
1, 52685, Control_c, 0, 64, 80
1, 52700, Control_c, 0, 64, 83
1, 52714, Control_c, 0, 64, 86
1, 52729, Control_c, 0, 64, 90
1, 52744, Control_c, 0, 64, 97
1, 52759, Control_c, 0, 64, 108
1, 52774, Control_c, 0, 64, 127
1, 53015, Note_off_c, 0, 83, 42
1, 54459, Note_on_c, 0, 94, 34
1, 54468, Note_on_c, 0, 97, 64
1, 54495, Note_off_c, 0, 94, 41
1, 54521, Note_on_c, 0, 92, 58
1, 54535, Note_off_c, 0, 97, 59
1, 54556, Note_off_c, 0, 92, 66
1, 54574, Note_on_c, 0, 86, 63
1, 54582, Control_c, 0, 64, 105
1, 54597, Control_c, 0, 64, 79
1, 54598, Note_off_c, 0, 86, 65
1, 54611, Control_c, 0, 64, 65
1, 54626, Control_c, 0, 64, 56
1, 54641, Control_c, 0, 64, 50
1, 54656, Control_c, 0, 64, 48
1, 54671, Control_c, 0, 64, 47
1, 54687, Control_c, 0, 64, 45
1, 54708, Control_c, 0, 64, 43
1, 54723, Control_c, 0, 64, 42
1, 54738, Control_c, 0, 64, 41
1, 54753, Control_c, 0, 64, 40
1, 54768, Control_c, 0, 64, 38
1, 54783, Control_c, 0, 64, 38
1, 54902, Control_c, 0, 64, 38
1, 54946, Control_c, 0, 64, 39
1, 54975, Control_c, 0, 64, 39
1, 54990, Control_c, 0, 64, 40
1, 55020, Control_c, 0, 64, 40
1, 55049, Control_c, 0, 64, 41
1, 55064, Control_c, 0, 64, 41
1, 55094, Control_c, 0, 64, 42
1, 55108, Control_c, 0, 64, 43
1, 55123, Control_c, 0, 64, 43
1, 55138, Control_c, 0, 64, 44
1, 55153, Control_c, 0, 64, 44
1, 55167, Control_c, 0, 64, 45
1, 55182, Control_c, 0, 64, 45
1, 55197, Control_c, 0, 64, 46
1, 55212, Control_c, 0, 64, 46
1, 55227, Control_c, 0, 64, 47
1, 55257, Control_c, 0, 64, 47
1, 55272, Control_c, 0, 64, 48
1, 55301, Control_c, 0, 64, 48
1, 55316, Control_c, 0, 64, 49
1, 55346, Control_c, 0, 64, 49
1, 55375, Control_c, 0, 64, 50
1, 55420, Control_c, 0, 64, 50
1, 55471, Control_c, 0, 64, 51
1, 55502, Control_c, 0, 64, 51
1, 55546, Control_c, 0, 64, 52
1, 55606, Control_c, 0, 64, 52
1, 55650, Control_c, 0, 64, 53
1, 55680, Control_c, 0, 64, 53
1, 55725, Control_c, 0, 64, 54
1, 55783, Control_c, 0, 64, 54
1, 55798, Control_c, 0, 64, 55
1, 55813, Control_c, 0, 64, 55
1, 55828, Control_c, 0, 64, 56
1, 55843, Control_c, 0, 64, 57
1, 55857, Control_c, 0, 64, 58
1, 55872, Control_c, 0, 64, 58
1, 55887, Control_c, 0, 64, 59
1, 55902, Control_c, 0, 64, 59
1, 55917, Control_c, 0, 64, 60
1, 55931, Control_c, 0, 64, 61
1, 55946, Control_c, 0, 64, 61
1, 55961, Control_c, 0, 64, 62
1, 55976, Control_c, 0, 64, 63
1, 55990, Control_c, 0, 64, 63
1, 56005, Control_c, 0, 64, 64
1, 56020, Control_c, 0, 64, 66
1, 56035, Control_c, 0, 64, 68
1, 56050, Control_c, 0, 64, 71
1, 56065, Control_c, 0, 64, 73
1, 56080, Control_c, 0, 64, 75
1, 56095, Control_c, 0, 64, 77
1, 56109, Control_c, 0, 64, 79
1, 56124, Control_c, 0, 64, 83
1, 56139, Control_c, 0, 64, 86
1, 56154, Control_c, 0, 64, 90
1, 56169, Control_c, 0, 64, 93
1, 56183, Control_c, 0, 64, 97
1, 56205, Control_c, 0, 64, 102
1, 56220, Control_c, 0, 64, 108
1, 56235, Control_c, 0, 64, 118
1, 56250, Control_c, 0, 64, 127
1, 56360, Note_off_c, 0, 65, 41
1, 56413, Note_off_c, 0, 62, 39
1, 56434, Note_off_c, 0, 53, 33
1, 56458, Note_off_c, 0, 58, 28
1, 56710, Control_c, 0, 64, 121
1, 56724, Control_c, 0, 64, 109
1, 56739, Control_c, 0, 64, 102
1, 56754, Control_c, 0, 64, 99
1, 56769, Control_c, 0, 64, 95
1, 56784, Control_c, 0, 64, 92
1, 56799, Control_c, 0, 64, 89
1, 56813, Control_c, 0, 64, 84
1, 56828, Control_c, 0, 64, 80
1, 56843, Control_c, 0, 64, 74
1, 56858, Control_c, 0, 64, 68
1, 56873, Control_c, 0, 64, 63
1, 56887, Control_c, 0, 64, 59
1, 56902, Control_c, 0, 64, 56
1, 56917, Control_c, 0, 64, 54
1, 56932, Control_c, 0, 64, 53
1, 56947, Control_c, 0, 64, 52
1, 56969, Control_c, 0, 64, 51
1, 56984, Control_c, 0, 64, 50
1, 56999, Control_c, 0, 64, 49
1, 57028, Control_c, 0, 64, 50
1, 57043, Control_c, 0, 64, 51
1, 57058, Control_c, 0, 64, 54
1, 57073, Control_c, 0, 64, 57
1, 57086, Note_on_c, 0, 62, 39
1, 57089, Control_c, 0, 64, 59
1, 57093, Note_on_c, 0, 58, 33
1, 57103, Control_c, 0, 64, 62
1, 57108, Note_on_c, 0, 53, 25
1, 57119, Control_c, 0, 64, 64
1, 57134, Control_c, 0, 64, 66
1, 57149, Control_c, 0, 64, 70
1, 57163, Control_c, 0, 64, 74
1, 57178, Control_c, 0, 64, 78
1, 57193, Control_c, 0, 64, 82
1, 57208, Control_c, 0, 64, 86
1, 57223, Control_c, 0, 64, 92
1, 57237, Control_c, 0, 64, 102
1, 57252, Control_c, 0, 64, 127
1, 57320, Note_off_c, 0, 53, 39
1, 57355, Note_off_c, 0, 58, 40
1, 57367, Note_off_c, 0, 62, 35
1, 58780, Note_on_c, 0, 56, 43
1, 58792, Note_on_c, 0, 62, 44
1, 58794, Note_on_c, 0, 61, 44
1, 58794, Control_c, 0, 64, 89
1, 58796, Note_on_c, 0, 52, 44
1, 58808, Control_c, 0, 64, 70
1, 58823, Control_c, 0, 64, 58
1, 58838, Control_c, 0, 64, 49
1, 58853, Control_c, 0, 64, 49
1, 58868, Control_c, 0, 64, 52
1, 58882, Control_c, 0, 64, 59
1, 58897, Control_c, 0, 64, 68
1, 58912, Control_c, 0, 64, 85
1, 58926, Control_c, 0, 64, 127
1, 59039, Note_on_c, 0, 104, 51
1, 59090, Note_off_c, 0, 104, 56
1, 59108, Note_on_c, 0, 97, 48
1, 59142, Note_off_c, 0, 97, 60
1, 59159, Note_on_c, 0, 91, 61
1, 59198, Note_off_c, 0, 91, 66
1, 59236, Note_on_c, 0, 102, 56
1, 59274, Note_off_c, 0, 102, 58
1, 59284, Note_on_c, 0, 99, 57
1, 59311, Note_off_c, 0, 99, 63
1, 59362, Note_on_c, 0, 86, 49
1, 59365, Note_on_c, 0, 97, 58
1, 59385, Note_off_c, 0, 86, 57
1, 59445, Note_off_c, 0, 97, 59
1, 59453, Note_on_c, 0, 92, 61
1, 59487, Note_on_c, 0, 99, 61
1, 59499, Note_off_c, 0, 92, 59
1, 59514, Note_off_c, 0, 99, 65
1, 59555, Note_on_c, 0, 84, 60
1, 59620, Note_off_c, 0, 84, 54
1, 59645, Note_on_c, 0, 91, 50
1, 59716, Note_off_c, 0, 91, 57
1, 59782, Note_off_c, 0, 61, 29
1, 59847, Note_off_c, 0, 56, 22
1, 59887, Note_off_c, 0, 52, 39
1, 59898, Note_off_c, 0, 62, 56
1, 60277, Control_c, 0, 64, 96
1, 60289, Note_on_c, 0, 62, 55
1, 60292, Control_c, 0, 64, 74
1, 60304, Note_on_c, 0, 55, 44
1, 60307, Control_c, 0, 64, 59
1, 60308, Note_on_c, 0, 59, 45
1, 60315, Note_on_c, 0, 50, 38
1, 60321, Control_c, 0, 64, 43
1, 60336, Control_c, 0, 64, 37
1, 60351, Control_c, 0, 64, 38
1, 60366, Control_c, 0, 64, 42
1, 60380, Control_c, 0, 64, 50
1, 60395, Control_c, 0, 64, 59
1, 60410, Control_c, 0, 64, 67
1, 60425, Control_c, 0, 64, 77
1, 60440, Control_c, 0, 64, 89
1, 60454, Control_c, 0, 64, 101
1, 60469, Control_c, 0, 64, 127
1, 60540, Note_off_c, 0, 50, 36
1, 60542, Note_off_c, 0, 62, 57
1, 60567, Note_off_c, 0, 59, 37
1, 60614, Note_off_c, 0, 55, 38
1, 60892, Control_c, 0, 67, 97
1, 60906, Control_c, 0, 67, 53
1, 60921, Control_c, 0, 67, 0
1, 61019, Note_on_c, 0, 74, 71
1, 61033, Note_on_c, 0, 70, 58
1, 62021, Note_off_c, 0, 70, 62
1, 62024, Note_off_c, 0, 74, 64
1, 62028, Note_on_c, 0, 58, 55
1, 62028, Note_on_c, 0, 65, 61
1, 62035, Note_on_c, 0, 53, 52
1, 62038, Note_on_c, 0, 62, 50
1, 62056, Control_c, 0, 64, 76
1, 62071, Control_c, 0, 64, 57
1, 62086, Control_c, 0, 64, 34
1, 62100, Control_c, 0, 64, 0
1, 62159, Control_c, 0, 64, 40
1, 62174, Control_c, 0, 64, 54
1, 62196, Control_c, 0, 64, 64
1, 62211, Control_c, 0, 64, 69
1, 62226, Control_c, 0, 64, 74
1, 62241, Control_c, 0, 64, 79
1, 62256, Control_c, 0, 64, 91
1, 62271, Control_c, 0, 64, 115
1, 62286, Control_c, 0, 64, 127
1, 62955, Note_on_c, 0, 74, 70
1, 62968, Note_on_c, 0, 70, 53
1, 63215, Note_off_c, 0, 70, 58
1, 63246, Note_off_c, 0, 65, 27
1, 63255, Note_off_c, 0, 74, 38
1, 63329, Note_off_c, 0, 62, 37
1, 63939, Note_off_c, 0, 53, 39
1, 63952, Note_off_c, 0, 58, 40
1, 64562, Control_c, 0, 64, 125
1, 64569, Note_on_c, 0, 86, 69
1, 64577, Control_c, 0, 64, 81
1, 64581, Note_on_c, 0, 82, 57
1, 64583, Note_on_c, 0, 70, 59
1, 64587, Note_on_c, 0, 74, 64
1, 64592, Control_c, 0, 64, 62
1, 64607, Control_c, 0, 64, 41
1, 64621, Control_c, 0, 64, 28
1, 64636, Control_c, 0, 64, 31
1, 64651, Control_c, 0, 64, 39
1, 64665, Control_c, 0, 64, 53
1, 64680, Control_c, 0, 64, 64
1, 64695, Control_c, 0, 64, 75
1, 64710, Control_c, 0, 64, 96
1, 64725, Control_c, 0, 64, 127
1, 64832, Note_off_c, 0, 86, 55
1, 64866, Note_off_c, 0, 70, 62
1, 64916, Note_off_c, 0, 82, 35
1, 64938, Note_off_c, 0, 74, 58
1, 64951, Note_on_c, 0, 71, 64
1, 64953, Note_on_c, 0, 83, 65
1, 64959, Note_on_c, 0, 79, 60
1, 64962, Control_c, 0, 64, 84
1, 64963, Note_on_c, 0, 67, 57
1, 64977, Control_c, 0, 64, 65
1, 64992, Control_c, 0, 64, 51
1, 65007, Control_c, 0, 64, 40
1, 65021, Control_c, 0, 64, 41
1, 65036, Control_c, 0, 64, 47
1, 65051, Control_c, 0, 64, 58
1, 65067, Control_c, 0, 64, 68
1, 65082, Control_c, 0, 64, 81
1, 65097, Control_c, 0, 64, 100
1, 65111, Control_c, 0, 64, 118
1, 65114, Note_off_c, 0, 79, 60
1, 65126, Control_c, 0, 64, 127
1, 65130, Note_off_c, 0, 71, 52
1, 65153, Note_off_c, 0, 83, 58
1, 65184, Note_off_c, 0, 67, 34
1, 65326, Control_c, 0, 64, 122
1, 65331, Note_on_c, 0, 85, 66
1, 65335, Note_on_c, 0, 73, 51
1, 65341, Control_c, 0, 64, 85
1, 65341, Note_on_c, 0, 68, 54
1, 65342, Note_on_c, 0, 80, 56
1, 65356, Control_c, 0, 64, 67
1, 65370, Control_c, 0, 64, 53
1, 65385, Control_c, 0, 64, 41
1, 65400, Control_c, 0, 64, 38
1, 65415, Control_c, 0, 64, 40
1, 65430, Control_c, 0, 64, 50
1, 65444, Control_c, 0, 64, 60
1, 65459, Control_c, 0, 64, 69
1, 65474, Control_c, 0, 64, 79
1, 65488, Control_c, 0, 64, 91
1, 65503, Control_c, 0, 64, 97
1, 65518, Control_c, 0, 64, 99
1, 65530, Note_off_c, 0, 85, 42
1, 65533, Control_c, 0, 64, 102
1, 65539, Note_off_c, 0, 73, 49
1, 65544, Note_off_c, 0, 80, 41
1, 65548, Control_c, 0, 64, 104
1, 65559, Note_off_c, 0, 68, 38
1, 65562, Control_c, 0, 64, 106
1, 65592, Control_c, 0, 64, 108
1, 65681, Control_c, 0, 67, 41
1, 65696, Control_c, 0, 67, 56
1, 65711, Control_c, 0, 67, 73
1, 65726, Control_c, 0, 67, 90
1, 65741, Control_c, 0, 67, 105
1, 65756, Control_c, 0, 67, 118
1, 65770, Control_c, 0, 67, 127
1, 65785, Control_c, 0, 64, 101
1, 65800, Control_c, 0, 64, 89
1, 65801, Note_on_c, 0, 82, 46
1, 65805, Note_on_c, 0, 86, 46
1, 65807, Note_on_c, 0, 70, 40
1, 65813, Note_on_c, 0, 74, 31
1, 65815, Control_c, 0, 64, 76
1, 65830, Control_c, 0, 64, 62
1, 65844, Control_c, 0, 64, 48
1, 65860, Control_c, 0, 64, 35
1, 65875, Control_c, 0, 64, 29
1, 65905, Control_c, 0, 64, 31
1, 65919, Control_c, 0, 64, 36
1, 65941, Control_c, 0, 64, 46
1, 65956, Control_c, 0, 64, 55
1, 65971, Control_c, 0, 64, 62
1, 65986, Control_c, 0, 64, 67
1, 66000, Control_c, 0, 64, 71
1, 66015, Control_c, 0, 64, 74
1, 66030, Control_c, 0, 64, 75
1, 66045, Control_c, 0, 64, 76
1, 66060, Control_c, 0, 64, 77
1, 66075, Control_c, 0, 64, 78
1, 66089, Control_c, 0, 64, 80
1, 66103, Control_c, 0, 64, 82
1, 66117, Control_c, 0, 64, 84
1, 66132, Control_c, 0, 64, 86
1, 66147, Control_c, 0, 64, 88
1, 66162, Control_c, 0, 64, 91
1, 66177, Control_c, 0, 64, 93
1, 66187, Note_off_c, 0, 74, 41
1, 66191, Control_c, 0, 64, 96
1, 66196, Note_off_c, 0, 82, 36
1, 66206, Control_c, 0, 64, 99
1, 66210, Note_off_c, 0, 70, 43
1, 66221, Control_c, 0, 64, 101
1, 66228, Note_off_c, 0, 86, 42
1, 66236, Control_c, 0, 64, 103
1, 66265, Control_c, 0, 64, 105
1, 66718, Control_c, 0, 64, 94
1, 66733, Control_c, 0, 64, 79
1, 66740, Note_on_c, 0, 62, 46
1, 66744, Note_on_c, 0, 58, 44
1, 66748, Control_c, 0, 64, 62
1, 66760, Note_on_c, 0, 53, 32
1, 66763, Control_c, 0, 64, 43
1, 66778, Control_c, 0, 64, 0
1, 66822, Control_c, 0, 64, 28
1, 66837, Control_c, 0, 64, 41
1, 66853, Control_c, 0, 64, 58
1, 66867, Control_c, 0, 64, 67
1, 66882, Control_c, 0, 64, 75
1, 66897, Control_c, 0, 64, 81
1, 66912, Control_c, 0, 64, 85
1, 66927, Control_c, 0, 64, 90
1, 66941, Control_c, 0, 64, 95
1, 66956, Control_c, 0, 64, 109
1, 66971, Control_c, 0, 64, 127
1, 66971, Control_c, 0, 67, 111
1, 66972, Note_off_c, 0, 58, 37
1, 66984, Note_off_c, 0, 53, 36
1, 66986, Control_c, 0, 67, 89
1, 66999, Note_off_c, 0, 62, 33
1, 67001, Control_c, 0, 67, 62
1, 67015, Control_c, 0, 67, 0
1, 67422, Note_on_c, 0, 74, 65
1, 67436, Note_on_c, 0, 70, 54
1, 67529, Note_off_c, 0, 70, 61
1, 67562, Note_off_c, 0, 74, 56
1, 68179, Control_c, 0, 64, 88
1, 68201, Control_c, 0, 64, 69
1, 68207, Note_on_c, 0, 61, 57
1, 68209, Note_on_c, 0, 62, 57
1, 68212, Note_on_c, 0, 56, 54
1, 68213, Note_on_c, 0, 52, 52
1, 68215, Control_c, 0, 64, 56
1, 68230, Control_c, 0, 64, 46
1, 68245, Control_c, 0, 64, 43
1, 68261, Control_c, 0, 64, 45
1, 68276, Control_c, 0, 64, 49
1, 68291, Control_c, 0, 64, 58
1, 68306, Control_c, 0, 64, 65
1, 68320, Control_c, 0, 64, 75
1, 68335, Control_c, 0, 64, 88
1, 68349, Control_c, 0, 64, 102
1, 68364, Control_c, 0, 64, 116
1, 68379, Control_c, 0, 64, 127
1, 68429, Note_off_c, 0, 62, 51
1, 68477, Note_off_c, 0, 61, 50
1, 68503, Note_off_c, 0, 52, 53
1, 68538, Note_off_c, 0, 56, 60
1, 68910, Note_on_c, 0, 74, 77
1, 68921, Note_on_c, 0, 70, 62
1, 69050, Note_off_c, 0, 70, 53
1, 69067, Note_off_c, 0, 74, 58
1, 69631, Control_c, 0, 64, 95
1, 69642, Note_on_c, 0, 55, 62
1, 69642, Note_on_c, 0, 62, 69
1, 69643, Note_on_c, 0, 59, 62
1, 69646, Control_c, 0, 64, 73
1, 69650, Note_on_c, 0, 50, 59
1, 69661, Control_c, 0, 64, 58
1, 69683, Control_c, 0, 64, 40
1, 69698, Control_c, 0, 64, 0
1, 69728, Control_c, 0, 64, 28
1, 69742, Control_c, 0, 64, 38
1, 69757, Control_c, 0, 64, 50
1, 69772, Control_c, 0, 64, 61
1, 69787, Control_c, 0, 64, 68
1, 69802, Control_c, 0, 64, 75
1, 69816, Control_c, 0, 64, 81
1, 69831, Control_c, 0, 64, 88
1, 69846, Control_c, 0, 64, 99
1, 69862, Control_c, 0, 64, 127
1, 69903, Note_off_c, 0, 62, 53
1, 69936, Note_off_c, 0, 50, 49
1, 69955, Note_off_c, 0, 59, 28
1, 69968, Note_off_c, 0, 55, 37
1, 70518, Note_on_c, 0, 74, 78
1, 70531, Note_on_c, 0, 70, 62
1, 71125, Note_off_c, 0, 70, 33
1, 71166, Note_off_c, 0, 74, 36
1, 71637, Note_on_c, 0, 62, 61
1, 71638, Note_on_c, 0, 65, 74
1, 71640, Note_on_c, 0, 58, 65
1, 71656, Control_c, 0, 64, 109
1, 71658, Note_on_c, 0, 53, 58
1, 71671, Control_c, 0, 64, 82
1, 71686, Control_c, 0, 64, 64
1, 71701, Control_c, 0, 64, 47
1, 71716, Control_c, 0, 64, 0
1, 71804, Control_c, 0, 64, 30
1, 71819, Control_c, 0, 64, 43
1, 71834, Control_c, 0, 64, 56
1, 71849, Control_c, 0, 64, 66
1, 71863, Control_c, 0, 64, 72
1, 71878, Control_c, 0, 64, 76
1, 71893, Control_c, 0, 64, 79
1, 71908, Control_c, 0, 64, 82
1, 71923, Control_c, 0, 64, 87
1, 71945, Control_c, 0, 64, 95
1, 71960, Control_c, 0, 64, 114
1, 71975, Control_c, 0, 64, 127
1, 72802, Note_on_c, 0, 74, 74
1, 72816, Note_on_c, 0, 70, 54
1, 73417, Note_off_c, 0, 65, 29
1, 73481, Note_off_c, 0, 70, 41
1, 73595, Note_off_c, 0, 53, 32
1, 73697, Note_off_c, 0, 74, 22
1, 73755, Note_off_c, 0, 62, 32
1, 73823, Note_off_c, 0, 58, 51
1, 74428, Note_on_c, 0, 86, 79
1, 74429, Control_c, 0, 64, 107
1, 74433, Note_on_c, 0, 74, 70
1, 74433, Note_on_c, 0, 82, 69
1, 74433, Note_on_c, 0, 70, 66
1, 74444, Control_c, 0, 64, 84
1, 74458, Control_c, 0, 64, 74
1, 74473, Control_c, 0, 64, 69
1, 74488, Control_c, 0, 64, 69
1, 74503, Control_c, 0, 64, 73
1, 74518, Control_c, 0, 64, 82
1, 74532, Control_c, 0, 64, 94
1, 74547, Control_c, 0, 64, 104
1, 74562, Control_c, 0, 64, 109
1, 74576, Control_c, 0, 64, 112
1, 74591, Control_c, 0, 64, 119
1, 74606, Control_c, 0, 64, 127
1, 74732, Note_off_c, 0, 82, 60
1, 74752, Note_off_c, 0, 74, 62
1, 74770, Control_c, 0, 64, 85
1, 74775, Note_on_c, 0, 76, 72
1, 74775, Note_on_c, 0, 92, 87
1, 74778, Note_on_c, 0, 80, 74
1, 74779, Note_off_c, 0, 86, 65
1, 74781, Note_on_c, 0, 88, 71
1, 74785, Control_c, 0, 64, 63
1, 74794, Note_off_c, 0, 70, 54
1, 74800, Control_c, 0, 64, 41
1, 74815, Control_c, 0, 64, 0
1, 74844, Control_c, 0, 64, 38
1, 74859, Control_c, 0, 64, 56
1, 74874, Control_c, 0, 64, 70
1, 74889, Control_c, 0, 64, 87
1, 74904, Control_c, 0, 64, 127
1, 74979, Note_off_c, 0, 88, 58
1, 75002, Note_off_c, 0, 80, 61
1, 75041, Note_off_c, 0, 76, 49
1, 75067, Note_off_c, 0, 92, 59
1, 75157, Note_on_c, 0, 89, 74
1, 75165, Note_on_c, 0, 73, 57
1, 75165, Note_on_c, 0, 85, 70
1, 75172, Note_on_c, 0, 77, 63
1, 75178, Control_c, 0, 64, 89
1, 75193, Control_c, 0, 64, 67
1, 75207, Control_c, 0, 64, 54
1, 75222, Control_c, 0, 64, 47
1, 75237, Control_c, 0, 64, 51
1, 75252, Control_c, 0, 64, 58
1, 75267, Control_c, 0, 64, 69
1, 75281, Control_c, 0, 64, 89
1, 75296, Control_c, 0, 64, 127
1, 75318, Note_off_c, 0, 89, 59
1, 75321, Note_off_c, 0, 77, 50
1, 75348, Note_off_c, 0, 73, 54
1, 75394, Note_off_c, 0, 85, 53
1, 75590, Note_on_c, 0, 86, 55
1, 75592, Note_on_c, 0, 74, 49
1, 75593, Control_c, 0, 64, 119
1, 75604, Note_on_c, 0, 82, 46
1, 75608, Control_c, 0, 64, 83
1, 75609, Note_on_c, 0, 70, 43
1, 75622, Control_c, 0, 64, 63
1, 75637, Control_c, 0, 64, 49
1, 75652, Control_c, 0, 64, 39
1, 75675, Control_c, 0, 64, 35
1, 75690, Control_c, 0, 64, 36
1, 75704, Control_c, 0, 64, 38
1, 75719, Control_c, 0, 64, 41
1, 75734, Control_c, 0, 64, 45
1, 75749, Control_c, 0, 64, 50
1, 75764, Control_c, 0, 64, 55
1, 75778, Control_c, 0, 64, 60
1, 75793, Control_c, 0, 64, 63
1, 75808, Control_c, 0, 64, 66
1, 75822, Control_c, 0, 64, 69
1, 75837, Control_c, 0, 64, 72
1, 75852, Control_c, 0, 64, 75
1, 75867, Control_c, 0, 64, 78
1, 75882, Control_c, 0, 64, 81
1, 75897, Control_c, 0, 64, 86
1, 75912, Control_c, 0, 64, 91
1, 75926, Control_c, 0, 64, 98
1, 75941, Control_c, 0, 64, 112
1, 75956, Control_c, 0, 64, 127
1, 75986, Note_off_c, 0, 82, 50
1, 76012, Note_off_c, 0, 86, 52
1, 76084, Note_off_c, 0, 70, 37
1, 76103, Note_off_c, 0, 74, 31
1, 76513, Control_c, 0, 64, 99
1, 76527, Control_c, 0, 64, 83
1, 76542, Control_c, 0, 64, 70
1, 76557, Control_c, 0, 64, 58
1, 76572, Control_c, 0, 64, 49
1, 76587, Control_c, 0, 64, 44
1, 76601, Control_c, 0, 64, 42
1, 76631, Control_c, 0, 67, 44
1, 76645, Control_c, 0, 67, 57
1, 76660, Control_c, 0, 64, 41
1, 76660, Control_c, 0, 67, 63
1, 76675, Control_c, 0, 67, 66
1, 76690, Control_c, 0, 64, 42
1, 76690, Control_c, 0, 67, 66
1, 76705, Control_c, 0, 64, 42
1, 76705, Control_c, 0, 67, 67
1, 76720, Control_c, 0, 64, 44
1, 76720, Control_c, 0, 67, 67
1, 76734, Control_c, 0, 64, 46
1, 76749, Control_c, 0, 64, 51
1, 76764, Control_c, 0, 64, 57
1, 76767, Note_on_c, 0, 71, 67
1, 76778, Note_on_c, 0, 67, 50
1, 76779, Control_c, 0, 64, 62
1, 76791, Note_on_c, 0, 62, 52
1, 76794, Control_c, 0, 64, 66
1, 76809, Control_c, 0, 64, 72
1, 76824, Control_c, 0, 64, 78
1, 76839, Control_c, 0, 64, 84
1, 76839, Control_c, 0, 67, 67
1, 76853, Control_c, 0, 64, 94
1, 76853, Control_c, 0, 67, 66
1, 76868, Control_c, 0, 64, 108
1, 76883, Control_c, 0, 64, 127
1, 76913, Control_c, 0, 67, 67
1, 76937, Note_off_c, 0, 67, 62
1, 76942, Control_c, 0, 67, 68
1, 76957, Control_c, 0, 67, 70
1, 76971, Control_c, 0, 67, 73
1, 76986, Control_c, 0, 67, 84
1, 77001, Control_c, 0, 67, 102
1, 77016, Control_c, 0, 67, 116
1, 77031, Control_c, 0, 67, 124
1, 77076, Control_c, 0, 67, 122
1, 77080, Note_off_c, 0, 62, 36
1, 77091, Control_c, 0, 67, 115
1, 77099, Note_off_c, 0, 71, 54
1, 77106, Control_c, 0, 67, 109
1, 77113, Note_on_c, 0, 68, 77
1, 77121, Control_c, 0, 67, 101
1, 77134, Note_on_c, 0, 64, 57
1, 77136, Control_c, 0, 67, 90
1, 77150, Control_c, 0, 67, 67
1, 77172, Control_c, 0, 67, 0
1, 77253, Note_off_c, 0, 68, 61
1, 77262, Note_off_c, 0, 64, 0
1, 77298, Poly_aftertouch_c, 0, 64, 127
1, 77399, Poly_aftertouch_c, 0, 64, 0
1, 77454, Control_c, 0, 64, 95
1, 77460, Note_on_c, 0, 65, 75
1, 77467, Note_on_c, 0, 61, 61
1, 77469, Control_c, 0, 64, 69
1, 77472, Note_on_c, 0, 59, 51
1, 77483, Control_c, 0, 64, 54
1, 77498, Control_c, 0, 64, 39
1, 77513, Control_c, 0, 64, 33
1, 77528, Control_c, 0, 64, 36
1, 77543, Control_c, 0, 64, 43
1, 77557, Control_c, 0, 64, 54
1, 77572, Control_c, 0, 64, 65
1, 77587, Control_c, 0, 64, 74
1, 77602, Control_c, 0, 64, 90
1, 77617, Control_c, 0, 64, 112
1, 77629, Note_off_c, 0, 61, 56
1, 77632, Control_c, 0, 64, 127
1, 77691, Note_off_c, 0, 65, 39
1, 77792, Note_off_c, 0, 59, 37
1, 77803, Note_on_c, 0, 68, 78
1, 77817, Note_on_c, 0, 64, 62
1, 77852, Note_off_c, 0, 64, 65
1, 77898, Note_off_c, 0, 68, 64
1, 78159, Control_c, 0, 64, 101
1, 78162, Note_on_c, 0, 71, 77
1, 78173, Control_c, 0, 64, 76
1, 78178, Note_on_c, 0, 56, 43
1, 78180, Note_on_c, 0, 67, 59
1, 78188, Control_c, 0, 64, 58
1, 78203, Control_c, 0, 64, 45
1, 78218, Control_c, 0, 64, 42
1, 78232, Control_c, 0, 64, 46
1, 78247, Control_c, 0, 64, 54
1, 78262, Control_c, 0, 64, 63
1, 78277, Control_c, 0, 64, 72
1, 78292, Control_c, 0, 64, 91
1, 78306, Control_c, 0, 64, 117
1, 78321, Control_c, 0, 64, 127
1, 78359, Note_off_c, 0, 67, 36
1, 78389, Note_off_c, 0, 71, 53
1, 78543, Control_c, 0, 64, 100
1, 78553, Note_on_c, 0, 77, 77
1, 78555, Note_on_c, 0, 73, 70
1, 78558, Control_c, 0, 64, 78
1, 78573, Control_c, 0, 64, 64
1, 78588, Control_c, 0, 64, 54
1, 78603, Control_c, 0, 64, 53
1, 78617, Control_c, 0, 64, 58
1, 78632, Control_c, 0, 64, 64
1, 78648, Control_c, 0, 64, 76
1, 78670, Control_c, 0, 64, 104
1, 78685, Control_c, 0, 64, 127
1, 78693, Note_off_c, 0, 73, 59
1, 78749, Note_off_c, 0, 77, 56
1, 78757, Note_off_c, 0, 56, 37
1, 78803, Control_c, 0, 67, 34
1, 78818, Control_c, 0, 67, 42
1, 78832, Control_c, 0, 67, 51
1, 78846, Control_c, 0, 67, 61
1, 78861, Control_c, 0, 67, 69
1, 78876, Control_c, 0, 67, 78
1, 78891, Control_c, 0, 67, 85
1, 78906, Control_c, 0, 67, 91
1, 78920, Control_c, 0, 67, 96
1, 78935, Control_c, 0, 67, 99
1, 78950, Control_c, 0, 67, 101
1, 78965, Control_c, 0, 67, 104
1, 78980, Control_c, 0, 64, 91
1, 78987, Note_on_c, 0, 74, 61
1, 78991, Note_on_c, 0, 70, 56
1, 78994, Control_c, 0, 64, 68
1, 78994, Control_c, 0, 67, 107
1, 79000, Note_on_c, 0, 53, 39
1, 79009, Control_c, 0, 64, 53
1, 79024, Control_c, 0, 64, 37
1, 79024, Control_c, 0, 67, 111
1, 79039, Control_c, 0, 64, 28
1, 79039, Control_c, 0, 67, 115
1, 79053, Control_c, 0, 67, 119
1, 79068, Control_c, 0, 64, 33
1, 79068, Control_c, 0, 67, 122
1, 79083, Control_c, 0, 64, 41
1, 79083, Control_c, 0, 67, 124
1, 79098, Control_c, 0, 64, 53
1, 79113, Control_c, 0, 64, 62
1, 79128, Control_c, 0, 64, 68
1, 79143, Control_c, 0, 64, 73
1, 79158, Control_c, 0, 64, 76
1, 79172, Control_c, 0, 64, 78
1, 79187, Control_c, 0, 64, 79
1, 79202, Control_c, 0, 64, 82
1, 79217, Control_c, 0, 64, 85
1, 79232, Control_c, 0, 64, 89
1, 79246, Control_c, 0, 64, 92
1, 79247, Note_off_c, 0, 53, 34
1, 79261, Control_c, 0, 64, 96
1, 79276, Control_c, 0, 64, 99
1, 79291, Control_c, 0, 64, 102
1, 79306, Control_c, 0, 64, 107
1, 79320, Control_c, 0, 64, 112
1, 79335, Control_c, 0, 64, 122
1, 79350, Control_c, 0, 64, 127
1, 79452, Note_off_c, 0, 74, 60
1, 79471, Note_off_c, 0, 70, 62
1, 79714, Control_c, 0, 64, 96
1, 79714, Control_c, 0, 67, 122
1, 79729, Control_c, 0, 64, 84
1, 79743, Control_c, 0, 64, 75
1, 79758, Control_c, 0, 64, 67
1, 79773, Control_c, 0, 64, 60
1, 79787, Control_c, 0, 64, 53
1, 79787, Control_c, 0, 67, 120
1, 79802, Control_c, 0, 64, 45
1, 79817, Control_c, 0, 64, 34
1, 79832, Control_c, 0, 64, 0
1, 79832, Control_c, 0, 67, 116
1, 79847, Control_c, 0, 67, 114
1, 79861, Control_c, 0, 64, 32
1, 79861, Control_c, 0, 67, 112
1, 79863, Note_on_c, 0, 71, 73
1, 79864, Note_on_c, 0, 74, 82
1, 79868, Note_on_c, 0, 62, 69
1, 79876, Control_c, 0, 64, 45
1, 79876, Control_c, 0, 67, 110
1, 79877, Note_on_c, 0, 67, 56
1, 79879, Note_on_c, 0, 59, 57
1, 79891, Control_c, 0, 64, 61
1, 79891, Control_c, 0, 67, 108
1, 79897, Note_off_c, 0, 62, 66
1, 79906, Control_c, 0, 64, 75
1, 79906, Control_c, 0, 67, 104
1, 79910, Note_off_c, 0, 74, 61
1, 79921, Control_c, 0, 64, 127
1, 79921, Control_c, 0, 67, 101
1, 79936, Control_c, 0, 67, 99
1, 79951, Control_c, 0, 67, 96
1, 79966, Control_c, 0, 67, 91
1, 79980, Control_c, 0, 67, 81
1, 79989, Note_off_c, 0, 59, 61
1, 79995, Control_c, 0, 67, 67
1, 80010, Control_c, 0, 67, 44
1, 80025, Note_off_c, 0, 71, 58
1, 80025, Control_c, 0, 67, 0
1, 80029, Note_off_c, 0, 67, 48
1, 80235, Note_on_c, 0, 68, 74
1, 80243, Note_on_c, 0, 56, 73
1, 80293, Note_off_c, 0, 68, 63
1, 80293, Note_off_c, 0, 56, 61
1, 80538, Note_on_c, 0, 59, 80
1, 80538, Note_on_c, 0, 71, 83
1, 80538, Control_c, 0, 64, 94
1, 80553, Note_on_c, 0, 65, 72
1, 80553, Control_c, 0, 64, 78
1, 80563, Note_on_c, 0, 53, 59
1, 80565, Note_off_c, 0, 59, 69
1, 80567, Control_c, 0, 64, 72
1, 80574, Note_on_c, 0, 61, 43
1, 80574, Note_off_c, 0, 71, 61
1, 80582, Control_c, 0, 64, 73
1, 80597, Control_c, 0, 64, 78
1, 80611, Control_c, 0, 64, 95
1, 80626, Control_c, 0, 64, 127
1, 80637, Note_off_c, 0, 53, 60
1, 80659, Note_off_c, 0, 61, 63
1, 80669, Note_off_c, 0, 65, 61
1, 80818, Note_on_c, 0, 63, 3
1, 80869, Note_off_c, 0, 63, 0
1, 80869, Note_on_c, 0, 63, 9
1, 80877, Note_on_c, 0, 56, 73
1, 80878, Note_on_c, 0, 68, 68
1, 80903, Note_off_c, 0, 56, 66
1, 80919, Note_off_c, 0, 63, 60
1, 80976, Poly_aftertouch_c, 0, 66, 127
1, 80982, Note_off_c, 0, 68, 57
1, 81023, Poly_aftertouch_c, 0, 66, 0
1, 81212, Control_c, 0, 64, 83
1, 81224, Note_on_c, 0, 71, 80
1, 81227, Control_c, 0, 64, 62
1, 81232, Note_on_c, 0, 67, 70
1, 81232, Note_on_c, 0, 59, 66
1, 81232, Note_on_c, 0, 70, 73
1, 81240, Note_on_c, 0, 58, 68
1, 81241, Control_c, 0, 64, 44
1, 81271, Control_c, 0, 64, 52
1, 81277, Note_off_c, 0, 59, 64
1, 81286, Control_c, 0, 64, 63
1, 81301, Control_c, 0, 64, 84
1, 81316, Control_c, 0, 64, 127
1, 81328, Note_off_c, 0, 67, 63
1, 81339, Note_off_c, 0, 70, 63
1, 81339, Note_off_c, 0, 71, 62
1, 81361, Note_off_c, 0, 58, 54
1, 81574, Note_on_c, 0, 77, 83
1, 81578, Note_on_c, 0, 65, 73
1, 81582, Note_on_c, 0, 73, 68
1, 81601, Note_off_c, 0, 65, 70
1, 81608, Note_off_c, 0, 73, 68
1, 81616, Note_off_c, 0, 77, 60
1, 81954, Note_on_c, 0, 74, 81
1, 81961, Control_c, 0, 64, 81
1, 81967, Note_on_c, 0, 62, 66
1, 81967, Note_on_c, 0, 70, 64
1, 81969, Note_on_c, 0, 68, 63
1, 81976, Control_c, 0, 64, 60
1, 81986, Note_on_c, 0, 56, 45
1, 81990, Control_c, 0, 64, 38
1, 82005, Control_c, 0, 64, 28
1, 82020, Control_c, 0, 64, 35
1, 82035, Control_c, 0, 64, 50
1, 82050, Control_c, 0, 64, 65
1, 82064, Control_c, 0, 64, 91
1, 82070, Note_off_c, 0, 68, 60
1, 82079, Control_c, 0, 64, 127
1, 82113, Note_off_c, 0, 70, 64
1, 82135, Note_off_c, 0, 74, 61
1, 82155, Note_off_c, 0, 62, 59
1, 82399, Note_on_c, 0, 71, 80
1, 82401, Note_on_c, 0, 67, 68
1, 82415, Note_on_c, 0, 59, 71
1, 82468, Note_off_c, 0, 59, 62
1, 82502, Note_off_c, 0, 71, 61
1, 82502, Note_off_c, 0, 67, 62
1, 82559, Note_off_c, 0, 56, 38
1, 82748, Note_on_c, 0, 73, 79
1, 82752, Note_on_c, 0, 61, 72
1, 82754, Note_on_c, 0, 67, 62
1, 82754, Control_c, 0, 64, 89
1, 82755, Note_on_c, 0, 55, 56
1, 82758, Note_on_c, 0, 68, 65
1, 82768, Control_c, 0, 64, 65
1, 82783, Control_c, 0, 64, 55
1, 82798, Control_c, 0, 64, 56
1, 82812, Control_c, 0, 64, 63
1, 82827, Control_c, 0, 64, 77
1, 82842, Control_c, 0, 64, 127
1, 82851, Note_off_c, 0, 55, 57
1, 82863, Note_off_c, 0, 68, 59
1, 82867, Note_off_c, 0, 61, 61
1, 82887, Note_off_c, 0, 67, 39
1, 82938, Note_off_c, 0, 73, 58
1, 83220, Control_c, 0, 64, 85
1, 83231, Note_on_c, 0, 74, 77
1, 83235, Control_c, 0, 64, 64
1, 83239, Note_on_c, 0, 70, 65
1, 83242, Note_on_c, 0, 65, 44
1, 83244, Note_on_c, 0, 62, 53
1, 83248, Note_on_c, 0, 53, 40
1, 83250, Control_c, 0, 64, 44
1, 83265, Control_c, 0, 64, 0
1, 83309, Control_c, 0, 64, 32
1, 83325, Control_c, 0, 64, 48
1, 83339, Control_c, 0, 64, 62
1, 83354, Control_c, 0, 64, 70
1, 83369, Control_c, 0, 64, 79
1, 83384, Control_c, 0, 64, 88
1, 83399, Control_c, 0, 64, 98
1, 83406, Note_off_c, 0, 65, 34
1, 83413, Control_c, 0, 64, 121
1, 83428, Control_c, 0, 64, 127
1, 83454, Note_off_c, 0, 62, 38
1, 83479, Note_off_c, 0, 53, 46
1, 83492, Note_off_c, 0, 70, 63
1, 83504, Note_off_c, 0, 74, 47
1, 84058, Control_c, 0, 64, 90
1, 84073, Control_c, 0, 64, 69
1, 84088, Control_c, 0, 64, 52
1, 84103, Control_c, 0, 64, 0
1, 84222, Note_on_c, 0, 65, 84
1, 84232, Note_on_c, 0, 61, 77
1, 84236, Note_on_c, 0, 56, 74
1, 84282, Control_c, 0, 64, 50
1, 84297, Control_c, 0, 64, 67
1, 84312, Control_c, 0, 64, 82
1, 84327, Control_c, 0, 64, 127
1, 84390, Note_off_c, 0, 61, 59
1, 84411, Note_off_c, 0, 65, 58
1, 84554, Note_off_c, 0, 56, 60
1, 84564, Note_on_c, 0, 68, 84
1, 84568, Note_on_c, 0, 59, 77
1, 84571, Note_on_c, 0, 64, 81
1, 84577, Control_c, 0, 64, 90
1, 84592, Control_c, 0, 64, 82
1, 84622, Control_c, 0, 64, 87
1, 84637, Control_c, 0, 64, 111
1, 84652, Control_c, 0, 64, 127
1, 84735, Note_off_c, 0, 64, 56
1, 84824, Note_off_c, 0, 68, 24
1, 84881, Control_c, 0, 64, 104
1, 84882, Note_on_c, 0, 62, 84
1, 84887, Note_on_c, 0, 71, 82
1, 84887, Note_off_c, 0, 59, 64
1, 84892, Note_on_c, 0, 67, 76
1, 84896, Control_c, 0, 64, 72
1, 84911, Control_c, 0, 64, 54
1, 84926, Control_c, 0, 64, 35
1, 84941, Control_c, 0, 64, 38
1, 84956, Control_c, 0, 64, 51
1, 84966, Note_off_c, 0, 67, 62
1, 84971, Control_c, 0, 64, 66
1, 84985, Control_c, 0, 64, 94
1, 84988, Note_off_c, 0, 71, 64
1, 85000, Control_c, 0, 64, 127
1, 85194, Control_c, 0, 64, 108
1, 85194, Note_on_c, 0, 77, 92
1, 85198, Note_on_c, 0, 68, 88
1, 85206, Note_on_c, 0, 73, 81
1, 85208, Control_c, 0, 64, 74
1, 85221, Note_off_c, 0, 62, 61
1, 85223, Control_c, 0, 64, 55
1, 85238, Control_c, 0, 64, 45
1, 85253, Control_c, 0, 64, 48
1, 85268, Control_c, 0, 64, 57
1, 85282, Control_c, 0, 64, 71
1, 85297, Control_c, 0, 64, 125
1, 85312, Control_c, 0, 64, 127
1, 85314, Note_off_c, 0, 68, 64
1, 85347, Note_off_c, 0, 73, 58
1, 85376, Note_off_c, 0, 77, 58
1, 85535, Note_on_c, 0, 80, 89
1, 85538, Note_on_c, 0, 71, 90
1, 85540, Note_on_c, 0, 76, 86
1, 85541, Control_c, 0, 64, 77
1, 85556, Control_c, 0, 64, 57
1, 85571, Control_c, 0, 64, 37
1, 85586, Control_c, 0, 64, 32
1, 85601, Control_c, 0, 64, 41
1, 85615, Control_c, 0, 64, 57
1, 85630, Control_c, 0, 64, 77
1, 85644, Note_off_c, 0, 76, 62
1, 85645, Control_c, 0, 64, 127
1, 85656, Note_off_c, 0, 80, 60
1, 85683, Note_off_c, 0, 71, 59
1, 85895, Note_on_c, 0, 74, 97
1, 85900, Note_on_c, 0, 70, 88
1, 85901, Note_on_c, 0, 65, 83
1, 85912, Control_c, 0, 64, 96
1, 85927, Control_c, 0, 64, 67
1, 85942, Control_c, 0, 64, 38
1, 85957, Control_c, 0, 64, 0
1, 86002, Control_c, 0, 64, 41
1, 86017, Control_c, 0, 64, 60
1, 86031, Control_c, 0, 64, 73
1, 86046, Control_c, 0, 64, 95
1, 86061, Control_c, 0, 64, 127
1, 86079, Note_off_c, 0, 65, 58
1, 86359, Note_off_c, 0, 74, 53
1, 86378, Note_off_c, 0, 70, 28
1, 86630, Note_on_c, 0, 71, 88
1, 86633, Control_c, 0, 64, 105
1, 86634, Note_on_c, 0, 67, 84
1, 86646, Note_on_c, 0, 62, 70
1, 86648, Control_c, 0, 64, 77
1, 86662, Control_c, 0, 64, 59
1, 86677, Control_c, 0, 64, 50
1, 86692, Control_c, 0, 64, 52
1, 86707, Control_c, 0, 64, 60
1, 86722, Control_c, 0, 64, 71
1, 86736, Control_c, 0, 64, 98
1, 86751, Control_c, 0, 64, 127
1, 86876, Note_off_c, 0, 62, 55
1, 87151, Note_on_c, 0, 68, 91
1, 87159, Note_on_c, 0, 64, 81
1, 87160, Note_on_c, 0, 59, 61
1, 87161, Note_off_c, 0, 71, 55
1, 87173, Note_off_c, 0, 67, 56
1, 87173, Control_c, 0, 64, 90
1, 87187, Control_c, 0, 64, 68
1, 87202, Control_c, 0, 64, 50
1, 87217, Control_c, 0, 64, 0
1, 87320, Control_c, 0, 64, 29
1, 87335, Control_c, 0, 64, 43
1, 87350, Control_c, 0, 64, 56
1, 87365, Control_c, 0, 64, 64
1, 87379, Control_c, 0, 64, 67
1, 87394, Control_c, 0, 64, 69
1, 87409, Control_c, 0, 64, 70
1, 87425, Control_c, 0, 64, 72
1, 87440, Control_c, 0, 64, 74
1, 87455, Control_c, 0, 64, 77
1, 87470, Control_c, 0, 64, 83
1, 87484, Control_c, 0, 64, 89
1, 87499, Control_c, 0, 64, 98
1, 87514, Control_c, 0, 64, 111
1, 87529, Control_c, 0, 64, 127
1, 88082, Note_off_c, 0, 68, 58
1, 88147, Note_off_c, 0, 59, 35
1, 88267, Note_off_c, 0, 64, 60
1, 88530, Note_on_c, 0, 65, 67
1, 88537, Control_c, 0, 64, 115
1, 88545, Note_on_c, 0, 56, 49
1, 88551, Note_on_c, 0, 61, 55
1, 88552, Control_c, 0, 64, 84
1, 88566, Control_c, 0, 64, 66
1, 88581, Control_c, 0, 64, 51
1, 88596, Control_c, 0, 64, 31
1, 88611, Control_c, 0, 64, 0
1, 88626, Control_c, 0, 64, 28
1, 88640, Control_c, 0, 64, 35
1, 88655, Control_c, 0, 64, 45
1, 88670, Control_c, 0, 64, 56
1, 88685, Control_c, 0, 64, 64
1, 88700, Control_c, 0, 64, 71
1, 88715, Control_c, 0, 64, 75
1, 88729, Control_c, 0, 64, 78
1, 88744, Control_c, 0, 64, 80
1, 88759, Control_c, 0, 64, 83
1, 88774, Control_c, 0, 64, 86
1, 88789, Control_c, 0, 64, 91
1, 88804, Control_c, 0, 64, 99
1, 88819, Control_c, 0, 64, 110
1, 88833, Control_c, 0, 64, 127
1, 88984, Note_off_c, 0, 56, 39
1, 89852, Note_off_c, 0, 61, 52
1, 89858, Note_off_c, 0, 65, 37
1, 90095, Control_c, 0, 67, 38
1, 90110, Control_c, 0, 67, 52
1, 90124, Control_c, 0, 67, 72
1, 90139, Control_c, 0, 67, 95
1, 90154, Control_c, 0, 67, 117
1, 90169, Control_c, 0, 67, 127
1, 90828, Control_c, 0, 64, 111
1, 90843, Control_c, 0, 64, 87
1, 90858, Note_on_c, 0, 41, 38
1, 90858, Control_c, 0, 64, 72
1, 90873, Note_on_c, 0, 46, 31
1, 90873, Control_c, 0, 64, 59
1, 90874, Note_on_c, 0, 50, 18
1, 90874, Note_on_c, 0, 62, 34
1, 90881, Note_on_c, 0, 58, 21
1, 90885, Note_on_c, 0, 53, 20
1, 90888, Control_c, 0, 64, 43
1, 90902, Control_c, 0, 64, 29
1, 90932, Control_c, 0, 64, 33
1, 90946, Control_c, 0, 64, 43
1, 90961, Control_c, 0, 64, 53
1, 90976, Control_c, 0, 64, 61
1, 90991, Control_c, 0, 64, 67
1, 91006, Control_c, 0, 64, 73
1, 91020, Control_c, 0, 64, 78
1, 91035, Control_c, 0, 64, 81
1, 91050, Control_c, 0, 64, 86
1, 91065, Control_c, 0, 64, 92
1, 91080, Control_c, 0, 64, 100
1, 91094, Control_c, 0, 64, 118
1, 91109, Control_c, 0, 64, 127
1, 91122, Note_off_c, 0, 46, 15
1, 91147, Note_off_c, 0, 50, 40
1, 91735, Note_off_c, 0, 41, 0
1, 91772, Poly_aftertouch_c, 0, 41, 127
1, 93009, Note_off_c, 0, 53, 38
1, 93017, Poly_aftertouch_c, 0, 41, 0
1, 93032, Note_off_c, 0, 58, 42
1, 93033, Note_off_c, 0, 62, 40
1, 93549, Note_on_c, 0, 46, 39
1, 93583, Note_off_c, 0, 46, 56
1, 93601, Note_on_c, 0, 37, 35
1, 93630, Note_on_c, 0, 32, 50
1, 93649, Note_on_c, 0, 35, 36
1, 93650, Note_off_c, 0, 37, 49
1, 93659, Control_c, 0, 64, 91
1, 93673, Control_c, 0, 64, 75
1, 93687, Note_off_c, 0, 35, 44
1, 93688, Control_c, 0, 64, 64
1, 93691, Note_off_c, 0, 32, 59
1, 93703, Control_c, 0, 64, 53
1, 93707, Note_on_c, 0, 21, 42
1, 93718, Control_c, 0, 64, 47
1, 93733, Control_c, 0, 64, 46
1, 93762, Control_c, 0, 64, 47
1, 93777, Control_c, 0, 64, 48
1, 93792, Control_c, 0, 64, 49
1, 93807, Control_c, 0, 64, 50
1, 93823, Control_c, 0, 64, 52
1, 93827, Note_off_c, 0, 21, 0
1, 93838, Control_c, 0, 64, 53
1, 93852, Control_c, 0, 64, 54
1, 93864, Poly_aftertouch_c, 0, 21, 127
1, 93867, Control_c, 0, 64, 55
1, 93882, Control_c, 0, 64, 56
1, 93897, Control_c, 0, 64, 58
1, 93912, Control_c, 0, 64, 59
1, 93926, Control_c, 0, 64, 60
1, 93941, Control_c, 0, 64, 61
1, 93956, Control_c, 0, 64, 62
1, 93970, Control_c, 0, 64, 63
1, 93985, Control_c, 0, 64, 64
1, 94000, Control_c, 0, 64, 66
1, 94015, Control_c, 0, 64, 67
1, 94030, Control_c, 0, 64, 69
1, 94044, Control_c, 0, 64, 70
1, 94059, Control_c, 0, 64, 71
1, 94074, Control_c, 0, 64, 71
1, 94089, Control_c, 0, 64, 72
1, 94095, Poly_aftertouch_c, 0, 21, 0
1, 94496, Control_c, 0, 64, 72
1, 94600, Control_c, 0, 64, 73
1, 94690, Control_c, 0, 64, 73
1, 94734, Control_c, 0, 64, 74
1, 94793, Control_c, 0, 64, 74
1, 94823, Control_c, 0, 64, 75
1, 94838, Control_c, 0, 64, 75
1, 94882, Control_c, 0, 64, 76
1, 95119, Control_c, 0, 64, 75
1, 95156, Control_c, 0, 64, 75
1, 95171, Control_c, 0, 64, 74
1, 95186, Control_c, 0, 64, 74
1, 95216, Control_c, 0, 64, 73
1, 95246, Control_c, 0, 64, 73
1, 95261, Control_c, 0, 64, 72
1, 95275, Control_c, 0, 64, 72
1, 95305, Control_c, 0, 64, 71
1, 95334, Control_c, 0, 64, 71
1, 95364, Control_c, 0, 64, 70
1, 95393, Control_c, 0, 64, 70
1, 95424, Control_c, 0, 64, 69
1, 95469, Control_c, 0, 64, 69
1, 95542, Control_c, 0, 64, 68
1, 95587, Control_c, 0, 64, 68
1, 95646, Control_c, 0, 64, 67
1, 95690, Control_c, 0, 64, 67
1, 95720, Control_c, 0, 64, 66
1, 95749, Control_c, 0, 64, 66
1, 95764, Control_c, 0, 64, 65
1, 95794, Control_c, 0, 64, 65
1, 95824, Control_c, 0, 64, 64
1, 95868, Control_c, 0, 64, 64
1, 95920, Control_c, 0, 64, 63
1, 95979, Control_c, 0, 64, 63
1, 95994, Control_c, 0, 64, 62
1, 96024, Control_c, 0, 64, 62
1, 96068, Control_c, 0, 64, 61
1, 96098, Control_c, 0, 64, 61
1, 96143, Control_c, 0, 64, 60
1, 96188, Control_c, 0, 64, 60
1, 96218, Control_c, 0, 64, 59
1, 96247, Control_c, 0, 64, 59
1, 96262, Control_c, 0, 64, 58
1, 96277, Control_c, 0, 64, 58
1, 96292, Control_c, 0, 64, 57
1, 96307, Control_c, 0, 64, 57
1, 96322, Control_c, 0, 64, 56
1, 96396, Control_c, 0, 64, 57
1, 96426, Control_c, 0, 64, 57
1, 96455, Control_c, 0, 64, 58
1, 96470, Control_c, 0, 64, 58
1, 96484, Control_c, 0, 64, 59
1, 96499, Control_c, 0, 64, 59
1, 96514, Control_c, 0, 64, 60
1, 96529, Control_c, 0, 64, 60
1, 96544, Control_c, 0, 64, 61
1, 96558, Control_c, 0, 64, 63
1, 96573, Control_c, 0, 64, 64
1, 96588, Control_c, 0, 64, 66
1, 96603, Control_c, 0, 64, 68
1, 96618, Control_c, 0, 64, 70
1, 96640, Control_c, 0, 64, 73
1, 96655, Control_c, 0, 64, 75
1, 96670, Control_c, 0, 64, 77
1, 96685, Control_c, 0, 64, 78
1, 96699, Control_c, 0, 64, 79
1, 96714, Control_c, 0, 64, 80
1, 96729, Control_c, 0, 64, 81
1, 96744, Control_c, 0, 64, 82
1, 96759, Control_c, 0, 64, 83
1, 96773, Control_c, 0, 64, 83
1, 96803, Control_c, 0, 64, 84
1, 96915, Note_on_c, 0, 104, 62
1, 96930, Note_on_c, 0, 74, 33
1, 96931, Note_on_c, 0, 98, 45
1, 96946, Note_on_c, 0, 93, 22
1, 96948, Note_on_c, 0, 63, 29
1, 96948, Note_off_c, 0, 104, 65
1, 96951, Control_c, 0, 64, 87
1, 96954, Note_on_c, 0, 65, 24
1, 96954, Note_on_c, 0, 102, 17
1, 96954, Note_off_c, 0, 98, 59
1, 96963, Note_on_c, 0, 69, 15
1, 96966, Control_c, 0, 64, 96
1, 96981, Control_c, 0, 64, 127
1, 96981, Note_off_c, 0, 102, 42
1, 96984, Note_off_c, 0, 93, 47
1, 97003, Note_off_c, 0, 74, 0
1, 97003, Note_on_c, 0, 74, 12
1, 97524, Note_on_c, 0, 102, 52
1, 97529, Note_on_c, 0, 96, 47
1, 97529, Note_on_c, 0, 92, 42
1, 97544, Note_on_c, 0, 101, 33
1, 97553, Note_off_c, 0, 96, 61
1, 97556, Note_off_c, 0, 102, 66
1, 97558, Note_off_c, 0, 92, 55
1, 97568, Note_off_c, 0, 101, 51
1, 97602, Note_off_c, 0, 63, 41
1, 97657, Note_off_c, 0, 65, 41
1, 97675, Note_off_c, 0, 69, 43
1, 97790, Note_off_c, 0, 74, 51
1, 98130, Note_on_c, 0, 101, 57
1, 98146, Note_on_c, 0, 78, 49
1, 98154, Note_on_c, 0, 90, 37
1, 98160, Note_on_c, 0, 95, 26
1, 98169, Note_on_c, 0, 99, 36
1, 98184, Note_off_c, 0, 78, 62
1, 98231, Note_off_c, 0, 95, 35
1, 98253, Note_off_c, 0, 90, 0
1, 98254, Note_off_c, 0, 99, 32
1, 98267, Note_off_c, 0, 101, 37
1, 98289, Poly_aftertouch_c, 0, 90, 127
1, 98342, Poly_aftertouch_c, 0, 90, 0
1, 98728, Note_on_c, 0, 99, 51
1, 98739, Note_on_c, 0, 89, 40
1, 98753, Note_on_c, 0, 97, 36
1, 98790, Poly_aftertouch_c, 0, 93, 127
1, 98796, Note_off_c, 0, 97, 56
1, 98798, Note_off_c, 0, 89, 54
1, 98809, Note_off_c, 0, 99, 59
1, 98826, Poly_aftertouch_c, 0, 93, 0
1, 99296, Note_on_c, 0, 77, 56
1, 99299, Note_on_c, 0, 71, 51
1, 99300, Note_on_c, 0, 98, 53
1, 99300, Control_c, 0, 64, 98
1, 99306, Note_on_c, 0, 66, 47
1, 99308, Note_on_c, 0, 92, 45
1, 99310, Note_on_c, 0, 87, 40
1, 99314, Note_on_c, 0, 63, 41
1, 99315, Control_c, 0, 64, 74
1, 99325, Note_on_c, 0, 96, 36
1, 99330, Control_c, 0, 64, 60
1, 99345, Control_c, 0, 64, 49
1, 99359, Control_c, 0, 64, 46
1, 99374, Control_c, 0, 64, 47
1, 99389, Control_c, 0, 64, 50
1, 99405, Control_c, 0, 64, 56
1, 99420, Control_c, 0, 64, 62
1, 99435, Control_c, 0, 64, 67
1, 99450, Control_c, 0, 64, 73
1, 99464, Control_c, 0, 64, 80
1, 99479, Control_c, 0, 64, 85
1, 99494, Note_off_c, 0, 96, 41
1, 99494, Control_c, 0, 64, 90
1, 99503, Note_off_c, 0, 63, 37
1, 99508, Control_c, 0, 64, 97
1, 99517, Note_off_c, 0, 98, 37
1, 99523, Control_c, 0, 64, 104
1, 99528, Note_off_c, 0, 92, 39
1, 99538, Control_c, 0, 64, 113
1, 99553, Control_c, 0, 64, 127
1, 99555, Note_off_c, 0, 87, 47
1, 99577, Note_off_c, 0, 66, 34
1, 99770, Note_off_c, 0, 71, 38
1, 99944, Note_off_c, 0, 77, 63
1, 99950, Note_on_c, 0, 96, 48
1, 99953, Note_on_c, 0, 86, 39
1, 99963, Note_on_c, 0, 95, 40
1, 99967, Note_on_c, 0, 90, 27
1, 100123, Note_off_c, 0, 95, 35
1, 100124, Note_off_c, 0, 96, 34
1, 100140, Note_off_c, 0, 90, 37
1, 100226, Note_off_c, 0, 86, 56
1, 100564, Note_on_c, 0, 80, 64
1, 100567, Note_on_c, 0, 95, 43
1, 100585, Note_on_c, 0, 84, 22
1, 100608, Note_on_c, 0, 93, 12
1, 100620, Note_off_c, 0, 80, 64
1, 100623, Poly_aftertouch_c, 0, 89, 127
1, 100717, Note_off_c, 0, 93, 28
1, 100742, Poly_aftertouch_c, 0, 89, 0
1, 100748, Note_off_c, 0, 95, 34
1, 100874, Note_off_c, 0, 84, 42
1, 101148, Control_c, 0, 64, 104
1, 101163, Control_c, 0, 64, 75
1, 101175, Note_on_c, 0, 74, 51
1, 101178, Control_c, 0, 64, 60
1, 101178, Note_on_c, 0, 93, 50
1, 101179, Note_on_c, 0, 63, 44
1, 101179, Note_on_c, 0, 72, 43
1, 101181, Note_on_c, 0, 87, 41
1, 101182, Note_on_c, 0, 92, 44
1, 101184, Note_on_c, 0, 68, 41
1, 101185, Note_on_c, 0, 83, 34
1, 101193, Control_c, 0, 64, 48
1, 101207, Control_c, 0, 64, 42
1, 101222, Control_c, 0, 64, 41
1, 101237, Control_c, 0, 64, 43
1, 101252, Control_c, 0, 64, 47
1, 101267, Control_c, 0, 64, 55
1, 101281, Control_c, 0, 64, 63
1, 101295, Control_c, 0, 64, 73
1, 101310, Control_c, 0, 64, 91
1, 101318, Note_off_c, 0, 63, 59
1, 101325, Control_c, 0, 64, 127
1, 101332, Note_off_c, 0, 68, 52
1, 101339, Note_off_c, 0, 72, 37
1, 101351, Note_off_c, 0, 74, 61
1, 101355, Note_off_c, 0, 93, 50
1, 101365, Note_off_c, 0, 87, 53
1, 101383, Note_off_c, 0, 92, 43
1, 101485, Note_off_c, 0, 83, 41
1, 101819, Note_on_c, 0, 92, 52
1, 101828, Note_on_c, 0, 81, 42
1, 101828, Note_on_c, 0, 86, 43
1, 101837, Note_on_c, 0, 90, 44
1, 101965, Note_off_c, 0, 92, 0
1, 101974, Note_off_c, 0, 86, 38
1, 101986, Note_off_c, 0, 81, 37
1, 102002, Poly_aftertouch_c, 0, 92, 127
1, 102015, Note_off_c, 0, 90, 29
1, 102067, Poly_aftertouch_c, 0, 92, 0
1, 102448, Note_on_c, 0, 78, 57
1, 102458, Note_on_c, 0, 93, 43
1, 102477, Note_on_c, 0, 83, 14
1, 102481, Note_on_c, 0, 92, 26
1, 102489, Note_off_c, 0, 78, 56
1, 102510, Poly_aftertouch_c, 0, 87, 127
1, 102561, Poly_aftertouch_c, 0, 87, 0
1, 102623, Note_off_c, 0, 83, 38
1, 102676, Note_off_c, 0, 93, 37
1, 102751, Note_off_c, 0, 92, 38
1, 103053, Note_on_c, 0, 95, 54
1, 103069, Note_on_c, 0, 93, 49
1, 103071, Note_on_c, 0, 89, 44
1, 103072, Note_on_c, 0, 84, 39
1, 103110, Note_off_c, 0, 84, 66
1, 103113, Note_off_c, 0, 89, 63
1, 103114, Note_off_c, 0, 93, 62
1, 103115, Note_off_c, 0, 95, 66
1, 103689, Note_on_c, 0, 77, 58
1, 103696, Note_on_c, 0, 66, 51
1, 103700, Note_on_c, 0, 71, 49
1, 103700, Note_on_c, 0, 96, 51
1, 103703, Note_on_c, 0, 86, 43
1, 103705, Control_c, 0, 64, 82
1, 103708, Note_on_c, 0, 94, 45
1, 103709, Note_on_c, 0, 90, 39
1, 103720, Control_c, 0, 64, 64
1, 103726, Note_on_c, 0, 63, 39
1, 103735, Control_c, 0, 64, 50
1, 103750, Control_c, 0, 64, 41
1, 103765, Control_c, 0, 64, 40
1, 103780, Control_c, 0, 64, 41
1, 103795, Control_c, 0, 64, 47
1, 103810, Control_c, 0, 64, 58
1, 103825, Control_c, 0, 64, 67
1, 103825, Note_off_c, 0, 86, 50
1, 103839, Control_c, 0, 64, 77
1, 103842, Note_off_c, 0, 90, 23
1, 103854, Control_c, 0, 64, 90
1, 103858, Note_off_c, 0, 96, 56
1, 103869, Control_c, 0, 64, 98
1, 103870, Note_off_c, 0, 94, 26
1, 103883, Control_c, 0, 64, 107
1, 103898, Control_c, 0, 64, 127
1, 103968, Note_off_c, 0, 63, 33
1, 104021, Note_off_c, 0, 66, 37
1, 104053, Note_off_c, 0, 71, 53
1, 104150, Note_off_c, 0, 77, 58
1, 104349, Note_on_c, 0, 92, 46
1, 104349, Note_on_c, 0, 98, 51
1, 104355, Note_on_c, 0, 87, 39
1, 104372, Note_on_c, 0, 96, 34
1, 104419, Note_off_c, 0, 92, 57
1, 104433, Note_off_c, 0, 87, 52
1, 104433, Note_off_c, 0, 98, 55
1, 104434, Note_off_c, 0, 96, 43
1, 104997, Note_on_c, 0, 80, 60
1, 105008, Note_on_c, 0, 99, 50
1, 105018, Note_on_c, 0, 89, 32
1, 105022, Note_on_c, 0, 98, 44
1, 105069, Poly_aftertouch_c, 0, 93, 127
1, 105073, Note_off_c, 0, 80, 61
1, 105271, Note_off_c, 0, 89, 37
1, 105273, Poly_aftertouch_c, 0, 93, 0
1, 105294, Note_off_c, 0, 98, 33
1, 105357, Note_off_c, 0, 99, 41
1, 105659, Note_on_c, 0, 101, 58
1, 105681, Note_on_c, 0, 90, 36
1, 105682, Note_on_c, 0, 99, 43
1, 105682, Note_on_c, 0, 94, 43
1, 105788, Note_off_c, 0, 94, 35
1, 105822, Note_off_c, 0, 90, 34
1, 105828, Note_off_c, 0, 101, 36
1, 105908, Note_off_c, 0, 99, 40
1, 106287, Note_on_c, 0, 102, 51
1, 106289, Note_on_c, 0, 92, 47
1, 106294, Note_on_c, 0, 101, 51
1, 106303, Note_on_c, 0, 96, 37
1, 106466, Note_off_c, 0, 96, 42
1, 106525, Note_off_c, 0, 92, 42
1, 106539, Note_off_c, 0, 101, 46
1, 106571, Note_off_c, 0, 102, 44
1, 107011, Note_on_c, 0, 104, 59
1, 107020, Note_on_c, 0, 74, 55
1, 107025, Note_on_c, 0, 98, 49
1, 107026, Note_on_c, 0, 102, 52
1, 107026, Control_c, 0, 64, 102
1, 107029, Note_on_c, 0, 93, 51
1, 107036, Note_on_c, 0, 69, 42
1, 107039, Note_on_c, 0, 63, 41
1, 107041, Control_c, 0, 64, 79
1, 107053, Note_on_c, 0, 65, 33
1, 107056, Control_c, 0, 64, 65
1, 107071, Control_c, 0, 64, 53
1, 107086, Control_c, 0, 64, 46
1, 107100, Control_c, 0, 64, 44
1, 107137, Control_c, 0, 64, 45
1, 107152, Control_c, 0, 64, 48
1, 107167, Control_c, 0, 64, 53
1, 107181, Control_c, 0, 64, 62
1, 107196, Control_c, 0, 64, 70
1, 107211, Control_c, 0, 64, 85
1, 107226, Control_c, 0, 64, 127
1, 107294, Note_off_c, 0, 93, 33
1, 107344, Note_off_c, 0, 102, 41
1, 107351, Note_off_c, 0, 104, 36
1, 107388, Note_off_c, 0, 98, 43
1, 107404, Note_off_c, 0, 74, 39
1, 107515, Note_off_c, 0, 63, 35
1, 107516, Note_off_c, 0, 69, 40
1, 107679, Note_off_c, 0, 65, 38
1, 107767, Note_on_c, 0, 102, 39
1, 107768, Note_on_c, 0, 92, 39
1, 107768, Note_on_c, 0, 101, 47
1, 107782, Note_on_c, 0, 96, 37
1, 107918, Note_off_c, 0, 102, 44
1, 107937, Note_off_c, 0, 101, 37
1, 107976, Note_off_c, 0, 96, 42
1, 108037, Note_off_c, 0, 92, 44
1, 108397, Note_on_c, 0, 101, 49
1, 108401, Note_on_c, 0, 99, 48
1, 108403, Note_on_c, 0, 95, 43
1, 108427, Note_on_c, 0, 90, 28
1, 108546, Note_off_c, 0, 101, 44
1, 108582, Note_off_c, 0, 99, 35
1, 108594, Note_off_c, 0, 95, 42
1, 108656, Note_off_c, 0, 90, 36
1, 109038, Note_on_c, 0, 99, 50
1, 109041, Note_on_c, 0, 97, 49
1, 109046, Note_on_c, 0, 89, 36
1, 109104, Poly_aftertouch_c, 0, 93, 127
1, 109136, Note_off_c, 0, 99, 52
1, 109137, Note_off_c, 0, 97, 54
1, 109164, Poly_aftertouch_c, 0, 93, 0
1, 109198, Note_off_c, 0, 89, 36
1, 109718, Note_on_c, 0, 77, 55
1, 109722, Note_on_c, 0, 98, 48
1, 109724, Note_on_c, 0, 92, 45
1, 109728, Note_on_c, 0, 87, 40
1, 109737, Note_on_c, 0, 96, 44
1, 109755, Note_off_c, 0, 77, 61
1, 109941, Note_off_c, 0, 92, 32
1, 110016, Note_off_c, 0, 96, 35
1, 110019, Note_off_c, 0, 87, 42
1, 110049, Note_off_c, 0, 98, 44
1, 110380, Note_on_c, 0, 95, 46
1, 110383, Note_on_c, 0, 86, 42
1, 110383, Note_on_c, 0, 96, 44
1, 110386, Note_on_c, 0, 90, 39
1, 110574, Note_off_c, 0, 96, 34
1, 110593, Note_off_c, 0, 95, 35
1, 110629, Note_off_c, 0, 86, 0
1, 110666, Poly_aftertouch_c, 0, 86, 127
1, 110731, Note_off_c, 0, 90, 16
1, 110845, Poly_aftertouch_c, 0, 86, 0
1, 111036, Note_on_c, 0, 95, 47
1, 111045, Note_on_c, 0, 84, 40
1, 111047, Note_on_c, 0, 89, 31
1, 111049, Note_on_c, 0, 93, 38
1, 111211, Note_off_c, 0, 95, 31
1, 111247, Note_off_c, 0, 93, 41
1, 111270, Note_off_c, 0, 89, 36
1, 111371, Note_off_c, 0, 84, 45
1, 111690, Note_on_c, 0, 92, 43
1, 111691, Note_on_c, 0, 87, 40
1, 111696, Note_on_c, 0, 83, 33
1, 111700, Note_on_c, 0, 93, 41
1, 111867, Note_off_c, 0, 92, 40
1, 111876, Note_off_c, 0, 93, 42
1, 111891, Note_off_c, 0, 83, 35
1, 111962, Note_off_c, 0, 87, 31
1, 112364, Note_on_c, 0, 92, 38
1, 112368, Note_on_c, 0, 81, 41
1, 112369, Note_on_c, 0, 86, 41
1, 112384, Note_on_c, 0, 90, 34
1, 112519, Note_off_c, 0, 90, 32
1, 112531, Note_off_c, 0, 92, 44
1, 112549, Note_off_c, 0, 81, 30
1, 112568, Note_off_c, 0, 86, 35
1, 113042, Note_on_c, 0, 84, 39
1, 113045, Note_on_c, 0, 80, 36
1, 113052, Note_on_c, 0, 89, 38
1, 113054, Note_on_c, 0, 90, 28
1, 113229, Note_off_c, 0, 89, 40
1, 113229, Note_off_c, 0, 90, 38
1, 113316, Note_off_c, 0, 84, 36
1, 113496, Note_off_c, 0, 80, 42
1, 113731, Note_on_c, 0, 89, 38
1, 113740, Note_on_c, 0, 83, 34
1, 113745, Note_on_c, 0, 78, 30
1, 113745, Note_on_c, 0, 87, 31
1, 113941, Note_off_c, 0, 89, 37
1, 113957, Note_off_c, 0, 87, 30
1, 113975, Note_off_c, 0, 83, 41
1, 114136, Note_off_c, 0, 78, 39
1, 114401, Note_on_c, 0, 77, 34
1, 114405, Note_on_c, 0, 87, 35
1, 114415, Note_on_c, 0, 85, 41
1, 114429, Note_on_c, 0, 81, 21
1, 114563, Note_off_c, 0, 87, 49
1, 114568, Note_off_c, 0, 85, 33
1, 114642, Note_off_c, 0, 81, 42
1, 114660, Note_off_c, 0, 77, 30
1, 115086, Note_on_c, 0, 86, 42
1, 115101, Note_on_c, 0, 75, 33
1, 115102, Note_on_c, 0, 80, 36
1, 115118, Note_on_c, 0, 84, 27
1, 115177, Note_off_c, 0, 80, 46
1, 115249, Note_off_c, 0, 84, 31
1, 115268, Note_off_c, 0, 86, 35
1, 115304, Note_off_c, 0, 75, 21
1, 115820, Note_on_c, 0, 84, 44
1, 115820, Note_on_c, 0, 74, 40
1, 115826, Note_on_c, 0, 83, 40
1, 115841, Note_on_c, 0, 78, 28
1, 116038, Note_off_c, 0, 84, 29
1, 116116, Note_off_c, 0, 83, 26
1, 116124, Note_off_c, 0, 74, 26
1, 116192, Note_off_c, 0, 78, 23
1, 116648, Note_on_c, 0, 81, 34
1, 116655, Note_on_c, 0, 83, 37
1, 116664, Note_on_c, 0, 72, 24
1, 116666, Note_on_c, 0, 77, 32
1, 116979, Note_off_c, 0, 72, 39
1, 117131, Note_off_c, 0, 77, 34
1, 117166, Note_off_c, 0, 81, 31
1, 117270, Note_off_c, 0, 83, 34
1, 117828, Control_c, 0, 64, 94
1, 117832, Note_on_c, 0, 74, 45
1, 117843, Control_c, 0, 64, 76
1, 117844, Note_on_c, 0, 70, 38
1, 117852, Note_on_c, 0, 65, 28
1, 117857, Control_c, 0, 64, 63
1, 117866, Note_on_c, 0, 62, 19
1, 117872, Control_c, 0, 64, 51
1, 117887, Control_c, 0, 64, 39
1, 117902, Control_c, 0, 64, 35
1, 117946, Control_c, 0, 64, 37
1, 117961, Control_c, 0, 64, 41
1, 117975, Control_c, 0, 64, 48
1, 117990, Control_c, 0, 64, 56
1, 118005, Control_c, 0, 64, 62
1, 118020, Control_c, 0, 64, 65
1, 118035, Control_c, 0, 64, 68
1, 118050, Control_c, 0, 64, 71
1, 118065, Control_c, 0, 64, 73
1, 118079, Control_c, 0, 64, 75
1, 118094, Control_c, 0, 64, 78
1, 118109, Control_c, 0, 64, 81
1, 118124, Control_c, 0, 64, 87
1, 118139, Control_c, 0, 64, 94
1, 118154, Control_c, 0, 64, 104
1, 118169, Control_c, 0, 64, 127
1, 118197, Note_off_c, 0, 70, 37
1, 118202, Note_off_c, 0, 74, 33
1, 118228, Note_off_c, 0, 62, 43
1, 118240, Note_off_c, 0, 65, 38
1, 120241, Note_on_c, 0, 84, 24
1, 120303, Note_on_c, 0, 86, 43
1, 120350, Note_on_c, 0, 88, 41
1, 120407, Note_off_c, 0, 88, 56
1, 120409, Note_on_c, 0, 89, 36
1, 120410, Note_on_c, 0, 90, 50
1, 120425, Note_off_c, 0, 84, 33
1, 120428, Note_off_c, 0, 86, 50
1, 120434, Note_off_c, 0, 89, 50
1, 120438, Note_off_c, 0, 90, 66
1, 120440, Note_on_c, 0, 97, 52
1, 120491, Note_on_c, 0, 99, 47
1, 120511, Note_on_c, 0, 102, 51
1, 120526, Note_on_c, 0, 104, 69
1, 120553, Note_off_c, 0, 97, 60
1, 120570, Note_off_c, 0, 99, 62
1, 120574, Note_off_c, 0, 102, 53
1, 120583, Note_off_c, 0, 104, 64
1, 121280, Note_on_c, 0, 22, 24
1, 121286, Note_on_c, 0, 23, 21
1, 121302, Poly_aftertouch_c, 0, 21, 127
1, 121519, Note_off_c, 0, 22, 37
1, 121526, Note_off_c, 0, 23, 38
1, 121550, Poly_aftertouch_c, 0, 21, 0
1, 123172, Control_c, 0, 67, 123
1, 123187, Control_c, 0, 67, 108
1, 123202, Control_c, 0, 67, 87
1, 123217, Control_c, 0, 67, 58
1, 123232, Control_c, 0, 67, 0
1, 123320, Control_c, 0, 64, 109
1, 123335, Control_c, 0, 64, 69
1, 123350, Control_c, 0, 64, 39
1, 123365, Control_c, 0, 64, 0
1, 123529, Note_on_c, 0, 58, 81
1, 123531, Note_on_c, 0, 53, 77
1, 123531, Note_on_c, 0, 62, 86
1, 123687, Note_on_c, 0, 74, 96
1, 123698, Note_off_c, 0, 62, 56
1, 123773, Note_off_c, 0, 58, 51
1, 123776, Note_off_c, 0, 53, 38
1, 123818, Note_on_c, 0, 56, 73
1, 123825, Note_on_c, 0, 61, 68
1, 123828, Note_on_c, 0, 62, 66
1, 123858, Note_off_c, 0, 62, 64
1, 123859, Note_off_c, 0, 61, 64
1, 123870, Note_off_c, 0, 56, 61
1, 123901, Poly_aftertouch_c, 0, 58, 0
1, 123938, Note_off_c, 0, 74, 63
1, 123953, Note_on_c, 0, 62, 57
1, 123957, Note_on_c, 0, 55, 67
1, 123959, Note_on_c, 0, 50, 67
1, 123959, Note_on_c, 0, 59, 72
1, 124053, Note_off_c, 0, 50, 58
1, 124072, Note_off_c, 0, 55, 61
1, 124072, Note_off_c, 0, 59, 57
1, 124087, Note_on_c, 0, 74, 84
1, 124090, Note_off_c, 0, 62, 62
1, 124124, Note_off_c, 0, 74, 61
1, 124233, Note_on_c, 0, 62, 88
1, 124238, Note_on_c, 0, 58, 82
1, 124239, Note_on_c, 0, 53, 77
1, 124374, Note_on_c, 0, 74, 102
1, 124450, Note_off_c, 0, 62, 59
1, 124463, Control_c, 0, 64, 27
1, 124488, Note_off_c, 0, 53, 49
1, 124492, Note_off_c, 0, 58, 50
1, 124507, Control_c, 0, 64, 0
1, 124520, Note_on_c, 0, 56, 76
1, 124521, Note_on_c, 0, 61, 70
1, 124522, Control_c, 0, 64, 27
1, 124529, Note_on_c, 0, 62, 73
1, 124537, Control_c, 0, 64, 29
1, 124551, Control_c, 0, 64, 31
1, 124563, Note_off_c, 0, 62, 62
1, 124566, Control_c, 0, 64, 32
1, 124572, Note_off_c, 0, 61, 63
1, 124575, Note_off_c, 0, 56, 63
1, 124611, Control_c, 0, 64, 30
1, 124625, Control_c, 0, 64, 28
1, 124640, Control_c, 0, 64, 0
1, 124650, Note_on_c, 0, 62, 88
1, 124655, Note_on_c, 0, 55, 72
1, 124657, Note_on_c, 0, 59, 76
1, 124663, Note_on_c, 0, 50, 68
1, 124683, Note_off_c, 0, 74, 55
1, 124700, Control_c, 0, 64, 27
1, 124718, Note_off_c, 0, 50, 60
1, 124730, Control_c, 0, 64, 29
1, 124736, Note_off_c, 0, 59, 64
1, 124739, Note_off_c, 0, 55, 63
1, 124739, Note_off_c, 0, 62, 64
1, 124759, Control_c, 0, 64, 31
1, 124774, Control_c, 0, 64, 32
1, 124779, Note_on_c, 0, 74, 90
1, 124789, Control_c, 0, 64, 34
1, 124804, Control_c, 0, 64, 36
1, 124818, Control_c, 0, 64, 40
1, 124833, Control_c, 0, 64, 42
1, 124839, Note_off_c, 0, 74, 63
1, 124848, Control_c, 0, 64, 43
1, 124877, Control_c, 0, 64, 42
1, 124892, Control_c, 0, 64, 41
1, 124907, Control_c, 0, 64, 38
1, 124915, Note_on_c, 0, 65, 81
1, 124915, Note_on_c, 0, 62, 64
1, 124917, Note_on_c, 0, 58, 71
1, 124922, Control_c, 0, 64, 35
1, 124924, Note_on_c, 0, 53, 62
1, 124937, Control_c, 0, 64, 29
1, 124951, Control_c, 0, 64, 0
1, 125041, Note_on_c, 0, 74, 78
1, 125132, Note_off_c, 0, 74, 53
1, 125201, Note_on_c, 0, 76, 96
1, 125212, Control_c, 0, 64, 34
1, 125227, Control_c, 0, 64, 54
1, 125242, Control_c, 0, 64, 71
1, 125257, Control_c, 0, 64, 97
1, 125272, Control_c, 0, 64, 127
1, 125299, Note_off_c, 0, 65, 55
1, 125347, Note_off_c, 0, 62, 58
1, 125348, Note_off_c, 0, 58, 50
1, 125363, Note_off_c, 0, 53, 59
1, 126217, Note_off_c, 0, 76, 53
1, 126223, Note_on_c, 0, 74, 72
1, 126420, Control_c, 0, 64, 77
1, 126435, Control_c, 0, 64, 27
1, 126438, Note_off_c, 0, 74, 66
1, 126449, Note_on_c, 0, 62, 88
1, 126450, Control_c, 0, 64, 0
1, 126450, Note_on_c, 0, 58, 84
1, 126453, Note_on_c, 0, 53, 81
1, 126522, Note_on_c, 0, 56, 18
1, 126522, Note_off_c, 0, 56, 127
1, 126614, Note_on_c, 0, 74, 98
1, 126617, Note_off_c, 0, 62, 54
1, 126715, Note_off_c, 0, 58, 0
1, 126722, Note_on_c, 0, 56, 68
1, 126728, Note_on_c, 0, 62, 52
1, 126733, Note_on_c, 0, 61, 67
1, 126751, Note_off_c, 0, 53, 58
1, 126751, Poly_aftertouch_c, 0, 58, 127
1, 126761, Note_off_c, 0, 62, 63
1, 126762, Poly_aftertouch_c, 0, 58, 0
1, 126764, Note_off_c, 0, 61, 65
1, 126781, Note_off_c, 0, 56, 63
1, 126849, Note_off_c, 0, 74, 65
1, 126864, Note_on_c, 0, 62, 69
1, 126865, Note_on_c, 0, 59, 74
1, 126871, Note_on_c, 0, 50, 70
1, 126874, Note_on_c, 0, 55, 61
1, 126973, Note_off_c, 0, 50, 61
1, 126981, Note_off_c, 0, 59, 62
1, 126985, Note_off_c, 0, 55, 62
1, 126986, Note_off_c, 0, 62, 62
1, 127008, Note_on_c, 0, 74, 81
1, 127097, Note_off_c, 0, 74, 62
1, 127148, Note_on_c, 0, 62, 95
1, 127152, Note_on_c, 0, 58, 79
1, 127153, Control_c, 0, 64, 51
1, 127154, Note_on_c, 0, 53, 76
1, 127168, Control_c, 0, 64, 52
1, 127183, Control_c, 0, 64, 48
1, 127198, Control_c, 0, 64, 45
1, 127213, Control_c, 0, 64, 44
1, 127228, Control_c, 0, 64, 43
1, 127243, Control_c, 0, 64, 39
1, 127258, Control_c, 0, 64, 35
1, 127272, Control_c, 0, 64, 36
1, 127286, Note_on_c, 0, 74, 105
1, 127287, Control_c, 0, 64, 40
1, 127302, Control_c, 0, 64, 42
1, 127345, Note_off_c, 0, 62, 60
1, 127391, Note_off_c, 0, 58, 59
1, 127414, Control_c, 0, 64, 41
1, 127429, Control_c, 0, 64, 42
1, 127431, Note_on_c, 0, 56, 80
1, 127438, Note_on_c, 0, 62, 82
1, 127439, Note_on_c, 0, 61, 73
1, 127443, Control_c, 0, 64, 44
1, 127458, Control_c, 0, 64, 46
1, 127464, Note_off_c, 0, 53, 56
1, 127472, Note_off_c, 0, 62, 62
1, 127473, Control_c, 0, 64, 48
1, 127478, Note_off_c, 0, 61, 61
1, 127488, Control_c, 0, 64, 49
1, 127489, Note_off_c, 0, 56, 63
1, 127502, Control_c, 0, 64, 50
1, 127517, Control_c, 0, 64, 49
1, 127532, Control_c, 0, 64, 48
1, 127547, Control_c, 0, 64, 47
1, 127566, Note_on_c, 0, 62, 91
1, 127573, Note_on_c, 0, 59, 75
1, 127574, Note_on_c, 0, 55, 69
1, 127579, Note_on_c, 0, 50, 69
1, 127606, Note_off_c, 0, 74, 56
1, 127621, Control_c, 0, 64, 47
1, 127626, Note_off_c, 0, 50, 58
1, 127636, Control_c, 0, 64, 48
1, 127642, Note_off_c, 0, 59, 63
1, 127643, Note_off_c, 0, 55, 63
1, 127648, Note_off_c, 0, 62, 64
1, 127651, Control_c, 0, 64, 49
1, 127681, Control_c, 0, 64, 49
1, 127695, Control_c, 0, 64, 50
1, 127700, Note_on_c, 0, 74, 92
1, 127710, Control_c, 0, 64, 51
1, 127725, Control_c, 0, 64, 52
1, 127768, Note_off_c, 0, 74, 63
1, 127799, Control_c, 0, 64, 52
1, 127814, Control_c, 0, 64, 51
1, 127839, Note_on_c, 0, 65, 82
1, 127840, Note_on_c, 0, 62, 68
1, 127841, Note_on_c, 0, 58, 73
1, 127843, Control_c, 0, 64, 51
1, 127847, Note_on_c, 0, 53, 67
1, 127873, Control_c, 0, 64, 50
1, 127976, Control_c, 0, 64, 50
1, 127979, Note_on_c, 0, 74, 80
1, 127991, Control_c, 0, 64, 49
1, 128006, Control_c, 0, 64, 49
1, 128065, Control_c, 0, 64, 48
1, 128070, Note_off_c, 0, 74, 54
1, 128102, Control_c, 0, 64, 47
1, 128117, Control_c, 0, 64, 47
1, 128192, Control_c, 0, 64, 48
1, 128203, Note_on_c, 0, 80, 99
1, 128207, Control_c, 0, 64, 50
1, 128222, Control_c, 0, 64, 54
1, 128237, Control_c, 0, 64, 58
1, 128252, Control_c, 0, 64, 63
1, 128266, Control_c, 0, 64, 66
1, 128281, Control_c, 0, 64, 71
1, 128296, Control_c, 0, 64, 76
1, 128301, Note_off_c, 0, 65, 46
1, 128311, Control_c, 0, 64, 83
1, 128325, Control_c, 0, 64, 92
1, 128340, Control_c, 0, 64, 112
1, 128355, Control_c, 0, 64, 127
1, 128372, Note_off_c, 0, 62, 37
1, 128429, Note_off_c, 0, 58, 47
1, 128584, Note_off_c, 0, 53, 35
1, 128902, Note_off_c, 0, 80, 59
1, 129239, Note_on_c, 0, 74, 80
1, 129386, Control_c, 0, 64, 106
1, 129400, Note_off_c, 0, 74, 66
1, 129401, Control_c, 0, 64, 71
1, 129416, Control_c, 0, 64, 49
1, 129416, Note_on_c, 0, 62, 97
1, 129419, Note_on_c, 0, 58, 93
1, 129426, Note_on_c, 0, 53, 79
1, 129431, Control_c, 0, 64, 0
1, 129557, Note_on_c, 0, 74, 110
1, 129562, Note_off_c, 0, 62, 51
1, 129700, Note_on_c, 0, 56, 70
1, 129702, Note_on_c, 0, 62, 70
1, 129705, Note_on_c, 0, 61, 70
1, 129729, Note_off_c, 0, 53, 46
1, 129735, Control_c, 0, 64, 31
1, 129735, Note_off_c, 0, 62, 63
1, 129738, Note_off_c, 0, 58, 61
1, 129740, Note_off_c, 0, 61, 61
1, 129747, Control_c, 0, 64, 0
1, 129752, Note_off_c, 0, 56, 62
1, 129815, Note_off_c, 0, 74, 64
1, 129833, Note_on_c, 0, 59, 80
1, 129833, Note_on_c, 0, 62, 85
1, 129839, Note_on_c, 0, 55, 77
1, 129848, Note_on_c, 0, 50, 58
1, 129928, Note_off_c, 0, 50, 61
1, 129936, Note_off_c, 0, 59, 61
1, 129938, Note_off_c, 0, 62, 60
1, 129943, Note_off_c, 0, 55, 60
1, 129982, Note_on_c, 0, 74, 77
1, 130018, Note_off_c, 0, 74, 62
1, 130104, Control_c, 0, 64, 30
1, 130116, Note_on_c, 0, 62, 97
1, 130119, Control_c, 0, 64, 57
1, 130119, Note_on_c, 0, 58, 88
1, 130121, Note_on_c, 0, 53, 89
1, 130134, Control_c, 0, 64, 52
1, 130149, Control_c, 0, 64, 40
1, 130163, Control_c, 0, 64, 31
1, 130193, Control_c, 0, 64, 33
1, 130208, Control_c, 0, 64, 35
1, 130215, Note_on_c, 0, 56, 12
1, 130223, Control_c, 0, 64, 39
1, 130237, Note_on_c, 0, 74, 103
1, 130237, Control_c, 0, 64, 44
1, 130252, Control_c, 0, 64, 47
1, 130253, Note_off_c, 0, 53, 62
1, 130254, Note_off_c, 0, 58, 61
1, 130266, Note_off_c, 0, 62, 59
1, 130267, Control_c, 0, 64, 48
1, 130326, Control_c, 0, 64, 47
1, 130349, Control_c, 0, 64, 45
1, 130363, Control_c, 0, 64, 44
1, 130371, Note_off_c, 0, 56, 0
1, 130371, Note_on_c, 0, 56, 37
1, 130388, Note_on_c, 0, 62, 75
1, 130393, Control_c, 0, 64, 44
1, 130400, Note_on_c, 0, 59, 52
1, 130408, Control_c, 0, 64, 43
1, 130414, Note_off_c, 0, 62, 68
1, 130423, Control_c, 0, 64, 42
1, 130424, Note_off_c, 0, 59, 59
1, 130427, Note_off_c, 0, 56, 65
1, 130437, Control_c, 0, 64, 36
1, 130452, Control_c, 0, 64, 0
1, 130504, Note_off_c, 0, 74, 65
1, 130534, Note_on_c, 0, 62, 90
1, 130534, Note_on_c, 0, 58, 90
1, 130542, Note_on_c, 0, 53, 79
1, 130626, Poly_aftertouch_c, 0, 56, 127
1, 130644, Note_off_c, 0, 58, 62
1, 130655, Note_off_c, 0, 53, 61
1, 130659, Poly_aftertouch_c, 0, 56, 0
1, 130662, Note_off_c, 0, 62, 58
1, 130674, Note_on_c, 0, 74, 96
1, 130675, Control_c, 0, 64, 30
1, 130690, Control_c, 0, 64, 34
1, 130719, Control_c, 0, 64, 32
1, 130734, Control_c, 0, 64, 29
1, 130779, Control_c, 0, 64, 34
1, 130793, Note_on_c, 0, 62, 71
1, 130793, Control_c, 0, 64, 39
1, 130795, Note_on_c, 0, 55, 71
1, 130795, Note_on_c, 0, 59, 67
1, 130808, Control_c, 0, 64, 37
1, 130820, Note_off_c, 0, 62, 67
1, 130823, Control_c, 0, 64, 0
1, 130827, Note_off_c, 0, 59, 64
1, 130831, Note_off_c, 0, 55, 63
1, 130885, Note_off_c, 0, 74, 64
1, 130897, Control_c, 0, 64, 46
1, 130904, Note_on_c, 0, 59, 79
1, 130909, Note_on_c, 0, 62, 85
1, 130912, Control_c, 0, 64, 67
1, 130916, Note_on_c, 0, 55, 71
1, 130920, Note_on_c, 0, 50, 71
1, 130927, Control_c, 0, 64, 68
1, 130942, Control_c, 0, 64, 67
1, 130957, Control_c, 0, 64, 62
1, 130963, Note_off_c, 0, 50, 60
1, 130971, Note_off_c, 0, 62, 61
1, 130972, Control_c, 0, 64, 57
1, 130978, Note_off_c, 0, 55, 63
1, 130980, Note_off_c, 0, 59, 63
1, 130986, Control_c, 0, 64, 39
1, 131001, Control_c, 0, 64, 0
1, 131049, Note_on_c, 0, 74, 81
1, 131060, Control_c, 0, 64, 27
1, 131075, Control_c, 0, 64, 54
1, 131097, Note_off_c, 0, 74, 54
1, 131097, Control_c, 0, 64, 58
1, 131112, Control_c, 0, 64, 49
1, 131127, Control_c, 0, 64, 0
1, 131183, Note_on_c, 0, 62, 91
1, 131186, Note_on_c, 0, 58, 89
1, 131190, Note_on_c, 0, 53, 81
1, 131201, Control_c, 0, 64, 33
1, 131216, Control_c, 0, 64, 51
1, 131245, Control_c, 0, 64, 44
1, 131260, Control_c, 0, 64, 0
1, 131286, Note_off_c, 0, 62, 62
1, 131296, Note_on_c, 0, 61, 14
1, 131298, Note_off_c, 0, 58, 62
1, 131300, Note_off_c, 0, 53, 62
1, 131310, Note_on_c, 0, 74, 103
1, 131338, Note_off_c, 0, 61, 47
1, 131419, Note_off_c, 0, 74, 65
1, 131424, Control_c, 0, 64, 44
1, 131439, Control_c, 0, 64, 46
1, 131453, Note_on_c, 0, 62, 97
1, 131454, Note_on_c, 0, 61, 88
1, 131454, Control_c, 0, 64, 44
1, 131457, Note_on_c, 0, 56, 90
1, 131461, Note_on_c, 0, 52, 83
1, 131468, Control_c, 0, 64, 41
1, 131483, Control_c, 0, 64, 39
1, 131498, Control_c, 0, 64, 39
1, 131513, Control_c, 0, 64, 38
1, 131528, Control_c, 0, 64, 37
1, 131542, Control_c, 0, 64, 37
1, 131557, Control_c, 0, 64, 37
1, 131572, Control_c, 0, 64, 39
1, 131587, Control_c, 0, 64, 42
1, 131594, Note_on_c, 0, 74, 90
1, 131602, Control_c, 0, 64, 44
1, 131616, Note_off_c, 0, 74, 67
1, 131616, Control_c, 0, 64, 46
1, 131631, Control_c, 0, 64, 49
1, 131646, Control_c, 0, 64, 52
1, 131660, Control_c, 0, 64, 55
1, 131667, Note_off_c, 0, 56, 62
1, 131668, Note_off_c, 0, 52, 60
1, 131672, Note_off_c, 0, 61, 63
1, 131675, Control_c, 0, 64, 56
1, 131689, Note_off_c, 0, 62, 54
1, 131729, Note_on_c, 0, 74, 95
1, 131735, Control_c, 0, 64, 56
1, 131750, Control_c, 0, 64, 57
1, 131765, Control_c, 0, 64, 58
1, 131795, Control_c, 0, 64, 54
1, 131809, Control_c, 0, 64, 38
1, 131824, Control_c, 0, 64, 0
1, 131829, Note_off_c, 0, 74, 66
1, 131871, Note_on_c, 0, 62, 98
1, 131872, Note_on_c, 0, 55, 87
1, 131872, Note_on_c, 0, 59, 90
1, 131874, Note_on_c, 0, 50, 83
1, 131890, Control_c, 0, 64, 32
1, 131905, Control_c, 0, 64, 47
1, 131920, Control_c, 0, 64, 57
1, 131935, Control_c, 0, 64, 59
1, 131979, Control_c, 0, 64, 60
1, 131995, Control_c, 0, 64, 61
1, 132009, Control_c, 0, 64, 62
1, 132015, Note_on_c, 0, 74, 104
1, 132024, Control_c, 0, 64, 63
1, 132037, Note_off_c, 0, 50, 50
1, 132054, Note_off_c, 0, 74, 66
1, 132054, Control_c, 0, 64, 64
1, 132069, Control_c, 0, 64, 64
1, 132076, Note_off_c, 0, 55, 60
1, 132084, Control_c, 0, 64, 65
1, 132093, Note_off_c, 0, 59, 61
1, 132099, Control_c, 0, 64, 66
1, 132155, Note_off_c, 0, 62, 60
1, 132182, Note_on_c, 0, 74, 101
1, 132248, Control_c, 0, 64, 66
1, 132277, Control_c, 0, 64, 67
1, 132286, Note_off_c, 0, 74, 67
1, 132337, Control_c, 0, 64, 66
1, 132352, Control_c, 0, 64, 59
1, 132366, Control_c, 0, 64, 31
1, 132381, Control_c, 0, 64, 0
1, 132391, Note_on_c, 0, 53, 84
1, 132391, Note_on_c, 0, 62, 89
1, 132391, Note_on_c, 0, 65, 97
1, 132394, Note_on_c, 0, 58, 90
1, 132729, Control_c, 0, 64, 29
1, 132743, Control_c, 0, 64, 33
1, 132757, Control_c, 0, 64, 36
1, 132772, Control_c, 0, 64, 40
1, 132787, Control_c, 0, 64, 44
1, 132802, Control_c, 0, 64, 47
1, 132817, Control_c, 0, 64, 48
1, 132832, Control_c, 0, 64, 48
1, 132862, Control_c, 0, 64, 49
1, 132877, Control_c, 0, 64, 50
1, 132891, Control_c, 0, 64, 51
1, 132904, Note_on_c, 0, 74, 92
1, 132906, Control_c, 0, 64, 52
1, 132921, Control_c, 0, 64, 53
1, 132936, Control_c, 0, 64, 54
1, 132951, Note_off_c, 0, 74, 65
1, 132951, Control_c, 0, 64, 55
1, 132966, Control_c, 0, 64, 56
1, 132981, Control_c, 0, 64, 56
1, 133144, Control_c, 0, 64, 55
1, 133159, Control_c, 0, 64, 53
1, 133174, Control_c, 0, 64, 47
1, 133188, Control_c, 0, 64, 28
1, 133203, Control_c, 0, 64, 0
1, 133207, Note_on_c, 0, 88, 94
1, 133245, Note_on_c, 0, 86, 101
1, 133274, Note_off_c, 0, 88, 68
1, 133306, Control_c, 0, 64, 31
1, 133321, Control_c, 0, 64, 45
1, 133344, Control_c, 0, 64, 58
1, 133359, Control_c, 0, 64, 65
1, 133374, Control_c, 0, 64, 70
1, 133388, Control_c, 0, 64, 76
1, 133403, Control_c, 0, 64, 86
1, 133418, Control_c, 0, 64, 114
1, 133432, Control_c, 0, 64, 127
1, 133507, Note_off_c, 0, 65, 52
1, 133522, Note_off_c, 0, 53, 57
1, 133522, Note_off_c, 0, 62, 50
1, 133523, Note_off_c, 0, 58, 50
1, 133690, Note_off_c, 0, 86, 63
1, 134329, Control_c, 0, 67, 45
1, 134344, Control_c, 0, 67, 77
1, 134359, Control_c, 0, 67, 109
1, 134374, Control_c, 0, 67, 127
1, 134555, Note_on_c, 0, 85, 82
1, 134674, Note_off_c, 0, 85, 58
1, 134699, Note_on_c, 0, 83, 80
1, 134779, Note_on_c, 0, 82, 76
1, 134828, Note_off_c, 0, 83, 56
1, 134854, Note_on_c, 0, 80, 86
1, 134883, Note_off_c, 0, 82, 62
1, 134927, Note_off_c, 0, 80, 61
1, 134944, Note_on_c, 0, 74, 83
1, 135015, Note_off_c, 0, 74, 63
1, 135026, Note_on_c, 0, 80, 45
1, 135056, Note_on_c, 0, 79, 72
1, 135065, Note_off_c, 0, 80, 61
1, 135103, Note_on_c, 0, 77, 73
1, 135114, Note_off_c, 0, 79, 58
1, 135151, Note_on_c, 0, 76, 72
1, 135151, Note_off_c, 0, 77, 65
1, 135177, Note_off_c, 0, 76, 66
1, 135189, Note_on_c, 0, 74, 81
1, 135249, Note_off_c, 0, 74, 62
1, 135266, Note_on_c, 0, 73, 66
1, 135272, Control_c, 0, 67, 124
1, 135286, Control_c, 0, 67, 44
1, 135291, Note_off_c, 0, 73, 68
1, 135293, Note_on_c, 0, 71, 77
1, 135301, Control_c, 0, 67, 0
1, 135329, Note_off_c, 0, 71, 62
1, 135332, Note_on_c, 0, 74, 85
1, 135387, Note_off_c, 0, 74, 63
1, 135398, Note_on_c, 0, 79, 65
1, 135404, Note_on_c, 0, 82, 72
1, 135447, Note_on_c, 0, 80, 83
1, 135468, Note_on_c, 0, 77, 76
1, 135470, Note_off_c, 0, 79, 62
1, 135478, Note_off_c, 0, 82, 63
1, 135507, Note_off_c, 0, 77, 67
1, 135514, Note_on_c, 0, 73, 84
1, 135521, Note_off_c, 0, 80, 60
1, 135532, Note_off_c, 0, 73, 73
1, 135556, Note_on_c, 0, 68, 27
1, 135557, Note_on_c, 0, 67, 80
1, 135557, Note_on_c, 0, 69, 52
1, 135587, Note_off_c, 0, 69, 61
1, 135598, Note_off_c, 0, 68, 53
1, 135606, Control_c, 0, 64, 72
1, 135616, Note_on_c, 0, 65, 79
1, 135621, Control_c, 0, 64, 46
1, 135635, Control_c, 0, 64, 0
1, 135639, Note_off_c, 0, 67, 65
1, 135643, Note_on_c, 0, 64, 85
1, 135650, Control_c, 0, 64, 29
1, 135663, Note_off_c, 0, 65, 66
1, 135664, Note_off_c, 0, 64, 72
1, 135665, Control_c, 0, 64, 45
1, 135680, Control_c, 0, 64, 62
1, 135680, Control_c, 0, 67, 35
1, 135681, Note_on_c, 0, 67, 62
1, 135695, Control_c, 0, 64, 78
1, 135709, Control_c, 0, 64, 127
1, 135709, Control_c, 0, 67, 34
1, 135721, Note_on_c, 0, 68, 72
1, 135724, Control_c, 0, 67, 34
1, 135739, Control_c, 0, 67, 0
1, 135747, Note_on_c, 0, 70, 82
1, 135751, Note_off_c, 0, 67, 63
1, 135797, Note_off_c, 0, 68, 63
1, 135813, Note_on_c, 0, 72, 53
1, 135813, Note_off_c, 0, 70, 66
1, 135836, Note_off_c, 0, 72, 0
1, 135836, Note_on_c, 0, 72, 47
1, 135859, Poly_aftertouch_c, 0, 71, 127
1, 135886, Note_on_c, 0, 73, 77
1, 135900, Note_on_c, 0, 74, 89
1, 135900, Note_off_c, 0, 73, 43
1, 135902, Poly_aftertouch_c, 0, 71, 0
1, 135921, Note_on_c, 0, 82, 71
1, 135923, Note_off_c, 0, 74, 70
1, 135938, Note_off_c, 0, 72, 35
1, 135959, Note_on_c, 0, 80, 76
1, 135980, Note_off_c, 0, 80, 67
1, 135982, Note_off_c, 0, 82, 52
1, 136004, Note_on_c, 0, 79, 57
1, 136008, Note_on_c, 0, 76, 75
1, 136032, Note_off_c, 0, 79, 67
1, 136036, Note_off_c, 0, 76, 66
1, 136066, Note_on_c, 0, 71, 77
1, 136117, Note_on_c, 0, 73, 62
1, 136117, Note_off_c, 0, 73, 127
1, 136126, Note_off_c, 0, 71, 66
1, 136129, Note_on_c, 0, 72, 64
1, 136147, Note_off_c, 0, 72, 65
1, 136155, Control_c, 0, 64, 90
1, 136170, Control_c, 0, 64, 36
1, 136183, Note_on_c, 0, 74, 106
1, 136185, Control_c, 0, 64, 0
1, 136192, Note_on_c, 0, 73, 66
1, 136217, Note_off_c, 0, 73, 65
1, 136229, Control_c, 0, 64, 28
1, 136244, Control_c, 0, 64, 55
1, 136258, Control_c, 0, 64, 71
1, 136273, Control_c, 0, 64, 84
1, 136288, Control_c, 0, 64, 91
1, 136297, Poly_aftertouch_c, 0, 69, 0
1, 136303, Control_c, 0, 64, 90
1, 136318, Control_c, 0, 64, 79
1, 136340, Control_c, 0, 64, 59
1, 136343, Note_on_c, 0, 55, 78
1, 136346, Note_on_c, 0, 62, 89
1, 136348, Note_on_c, 0, 59, 83
1, 136355, Note_on_c, 0, 50, 61
1, 136355, Control_c, 0, 64, 0
1, 136370, Note_off_c, 0, 59, 70
1, 136371, Note_off_c, 0, 55, 65
1, 136379, Note_off_c, 0, 50, 60
1, 136379, Note_off_c, 0, 62, 62
1, 136510, Note_off_c, 0, 74, 71
1, 136537, Note_on_c, 0, 62, 95
1, 136537, Note_on_c, 0, 65, 100
1, 136538, Note_on_c, 0, 58, 94
1, 136539, Note_on_c, 0, 53, 89
1, 136547, Control_c, 0, 64, 35
1, 136562, Control_c, 0, 64, 62
1, 136577, Control_c, 0, 64, 57
1, 136592, Control_c, 0, 64, 39
1, 136606, Control_c, 0, 64, 0
1, 136767, Note_on_c, 0, 73, 58
1, 136797, Note_off_c, 0, 73, 66
1, 136802, Note_on_c, 0, 74, 68
1, 136856, Note_on_c, 0, 73, 79
1, 136867, Note_off_c, 0, 74, 62
1, 136898, Note_off_c, 0, 73, 65
1, 136901, Note_on_c, 0, 71, 80
1, 136963, Note_on_c, 0, 70, 101
1, 136985, Note_off_c, 0, 71, 66
1, 137163, Control_c, 0, 64, 27
1, 137178, Control_c, 0, 64, 44
1, 137193, Control_c, 0, 64, 62
1, 137208, Control_c, 0, 64, 70
1, 137223, Control_c, 0, 64, 79
1, 137236, Control_c, 0, 64, 86
1, 137251, Control_c, 0, 64, 90
1, 137266, Control_c, 0, 64, 95
1, 137280, Control_c, 0, 64, 102
1, 137295, Control_c, 0, 64, 121
1, 137310, Control_c, 0, 64, 127
1, 137420, Note_off_c, 0, 65, 34
1, 137591, Note_off_c, 0, 62, 49
1, 137657, Note_off_c, 0, 58, 52
1, 137715, Note_off_c, 0, 53, 52
1, 137941, Note_on_c, 0, 68, 97
1, 137953, Note_off_c, 0, 70, 61
1, 137956, Control_c, 0, 64, 78
1, 137971, Control_c, 0, 64, 51
1, 137971, Note_off_c, 0, 68, 64
1, 137985, Control_c, 0, 64, 0
1, 138166, Note_on_c, 0, 62, 102
1, 138177, Control_c, 0, 64, 42
1, 138192, Control_c, 0, 64, 66
1, 138198, Note_off_c, 0, 62, 69
1, 138207, Control_c, 0, 64, 101
1, 138221, Control_c, 0, 64, 127
1, 139208, Control_c, 0, 64, 88
1, 139223, Control_c, 0, 64, 60
1, 139238, Control_c, 0, 64, 0
1, 139357, Note_on_c, 0, 79, 65
1, 139384, Note_on_c, 0, 80, 77
1, 139408, Note_on_c, 0, 82, 61
1, 139408, Note_on_c, 0, 85, 76
1, 139420, Note_off_c, 0, 79, 63
1, 139427, Note_on_c, 0, 86, 81
1, 139431, Note_off_c, 0, 80, 67
1, 139432, Note_off_c, 0, 82, 66
1, 139438, Note_off_c, 0, 85, 64
1, 139439, Control_c, 0, 64, 91
1, 139441, Note_on_c, 0, 62, 91
1, 139444, Note_off_c, 0, 86, 74
1, 139446, Note_on_c, 0, 53, 90
1, 139447, Note_on_c, 0, 58, 86
1, 139454, Control_c, 0, 64, 127
1, 139465, Note_off_c, 0, 62, 63
1, 139469, Control_c, 0, 64, 92
1, 139474, Note_off_c, 0, 58, 61
1, 139483, Control_c, 0, 64, 69
1, 139498, Control_c, 0, 64, 59
1, 139513, Control_c, 0, 64, 48
1, 139528, Control_c, 0, 64, 34
1, 139543, Control_c, 0, 64, 0
1, 139558, Note_on_c, 0, 86, 82
1, 139573, Note_off_c, 0, 86, 71
1, 139584, Note_off_c, 0, 53, 22
1, 139670, Note_on_c, 0, 56, 71
1, 139683, Note_on_c, 0, 62, 70
1, 139683, Note_on_c, 0, 86, 87
1, 139688, Note_on_c, 0, 61, 62
1, 139691, Control_c, 0, 64, 56
1, 139706, Note_off_c, 0, 86, 67
1, 139706, Control_c, 0, 64, 50
1, 139709, Note_off_c, 0, 62, 66
1, 139717, Note_off_c, 0, 61, 65
1, 139721, Control_c, 0, 64, 0
1, 139724, Note_off_c, 0, 56, 62
1, 139805, Note_on_c, 0, 62, 65
1, 139807, Note_on_c, 0, 59, 82
1, 139810, Note_on_c, 0, 55, 78
1, 139818, Note_on_c, 0, 50, 63
1, 139819, Note_on_c, 0, 86, 96
1, 139838, Note_off_c, 0, 86, 68
1, 139839, Control_c, 0, 64, 62
1, 139854, Control_c, 0, 64, 53
1, 139868, Control_c, 0, 64, 0
1, 139915, Note_off_c, 0, 50, 61
1, 139929, Note_off_c, 0, 59, 62
1, 139937, Note_off_c, 0, 55, 61
1, 139938, Note_off_c, 0, 62, 63
1, 139956, Note_on_c, 0, 86, 86
1, 139969, Note_off_c, 0, 86, 74
1, 140083, Control_c, 0, 64, 55
1, 140090, Note_on_c, 0, 62, 89
1, 140093, Note_on_c, 0, 58, 86
1, 140096, Note_on_c, 0, 53, 79
1, 140098, Control_c, 0, 64, 60
1, 140103, Note_on_c, 0, 86, 84
1, 140113, Control_c, 0, 64, 41
1, 140122, Note_off_c, 0, 86, 71
1, 140128, Control_c, 0, 64, 0
1, 140228, Note_off_c, 0, 62, 59
1, 140236, Note_on_c, 0, 86, 92
1, 140237, Note_off_c, 0, 53, 54
1, 140245, Note_off_c, 0, 58, 60
1, 140254, Note_off_c, 0, 86, 72
1, 140368, Note_on_c, 0, 62, 93
1, 140370, Note_on_c, 0, 61, 88
1, 140371, Note_on_c, 0, 56, 85
1, 140374, Note_on_c, 0, 52, 81
1, 140380, Control_c, 0, 64, 61
1, 140386, Note_on_c, 0, 86, 104
1, 140395, Control_c, 0, 64, 91
1, 140412, Note_off_c, 0, 86, 71
1, 140424, Control_c, 0, 64, 85
1, 140439, Control_c, 0, 64, 81
1, 140454, Control_c, 0, 64, 82
1, 140484, Control_c, 0, 64, 82
1, 140524, Note_on_c, 0, 86, 91
1, 140548, Note_off_c, 0, 86, 66
1, 140576, Note_off_c, 0, 52, 60
1, 140579, Note_off_c, 0, 56, 62
1, 140591, Note_off_c, 0, 61, 62
1, 140614, Note_off_c, 0, 62, 58
1, 140654, Note_on_c, 0, 86, 84
1, 140677, Note_off_c, 0, 86, 68
1, 140691, Control_c, 0, 64, 81
1, 140706, Control_c, 0, 64, 70
1, 140721, Control_c, 0, 64, 43
1, 140736, Control_c, 0, 64, 0
1, 140773, Note_on_c, 0, 55, 79
1, 140773, Note_on_c, 0, 59, 76
1, 140774, Note_on_c, 0, 62, 87
1, 140778, Note_on_c, 0, 50, 72
1, 140785, Note_on_c, 0, 86, 101
1, 140810, Control_c, 0, 64, 55
1, 140827, Note_off_c, 0, 86, 65
1, 140832, Control_c, 0, 64, 57
1, 140847, Control_c, 0, 64, 45
1, 140862, Control_c, 0, 64, 0
1, 140880, Note_off_c, 0, 50, 61
1, 140897, Note_off_c, 0, 59, 62
1, 140901, Note_off_c, 0, 55, 61
1, 140905, Note_off_c, 0, 62, 62
1, 140920, Note_on_c, 0, 86, 97
1, 140952, Note_off_c, 0, 86, 68
1, 141049, Note_on_c, 0, 62, 94
1, 141053, Note_on_c, 0, 53, 85
1, 141053, Note_on_c, 0, 58, 82
1, 141054, Control_c, 0, 64, 61
1, 141057, Note_on_c, 0, 86, 95
1, 141069, Control_c, 0, 64, 65
1, 141084, Control_c, 0, 64, 63
1, 141098, Note_off_c, 0, 86, 67
1, 141099, Control_c, 0, 64, 56
1, 141114, Control_c, 0, 64, 47
1, 141128, Control_c, 0, 64, 37
1, 141143, Control_c, 0, 64, 0
1, 141185, Note_off_c, 0, 62, 59
1, 141189, Note_on_c, 0, 86, 93
1, 141194, Note_off_c, 0, 58, 60
1, 141204, Note_off_c, 0, 53, 61
1, 141232, Note_off_c, 0, 86, 65
1, 141298, Note_on_c, 0, 62, 92
1, 141304, Note_on_c, 0, 56, 82
1, 141304, Note_on_c, 0, 61, 82
1, 141307, Control_c, 0, 64, 44
1, 141313, Note_on_c, 0, 52, 67
1, 141316, Note_on_c, 0, 86, 87
1, 141321, Control_c, 0, 64, 78
1, 141336, Control_c, 0, 64, 83
1, 141351, Control_c, 0, 64, 82
1, 141356, Note_off_c, 0, 86, 65
1, 141363, Note_off_c, 0, 52, 57
1, 141363, Note_off_c, 0, 56, 62
1, 141366, Control_c, 0, 64, 77
1, 141367, Note_off_c, 0, 62, 59
1, 141368, Note_off_c, 0, 61, 63
1, 141380, Control_c, 0, 64, 76
1, 141395, Control_c, 0, 64, 75
1, 141410, Control_c, 0, 64, 73
1, 141425, Control_c, 0, 64, 69
1, 141440, Control_c, 0, 64, 63
1, 141440, Note_on_c, 0, 86, 79
1, 141454, Control_c, 0, 64, 50
1, 141469, Control_c, 0, 64, 0
1, 141540, Note_on_c, 0, 55, 81
1, 141540, Note_on_c, 0, 62, 86
1, 141542, Note_on_c, 0, 59, 76
1, 141543, Control_c, 0, 64, 50
1, 141545, Note_on_c, 0, 50, 78
1, 141553, Note_off_c, 0, 86, 61
1, 141558, Control_c, 0, 64, 73
1, 141559, Note_on_c, 0, 98, 109
1, 141580, Control_c, 0, 64, 127
1, 141583, Note_off_c, 0, 50, 66
1, 141599, Note_off_c, 0, 59, 62
1, 141602, Note_off_c, 0, 55, 62
1, 141605, Note_off_c, 0, 62, 66
1, 141659, Note_off_c, 0, 98, 51
1, 141677, Note_on_c, 0, 86, 80
1, 141720, Note_off_c, 0, 86, 67
1, 141819, Control_c, 0, 64, 78
1, 141825, Note_on_c, 0, 62, 84
1, 141826, Note_on_c, 0, 65, 95
1, 141830, Note_on_c, 0, 53, 79
1, 141831, Note_on_c, 0, 58, 83
1, 141834, Control_c, 0, 64, 53
1, 141849, Control_c, 0, 64, 0
1, 141893, Control_c, 0, 64, 27
1, 141908, Control_c, 0, 64, 39
1, 141923, Control_c, 0, 64, 42
1, 141967, Control_c, 0, 64, 43
1, 141974, Note_on_c, 0, 74, 84
1, 141982, Control_c, 0, 64, 45
1, 141996, Control_c, 0, 64, 45
1, 142026, Control_c, 0, 64, 46
1, 142041, Control_c, 0, 64, 46
1, 142100, Control_c, 0, 64, 47
1, 142174, Control_c, 0, 64, 46
1, 142189, Control_c, 0, 64, 45
1, 142199, Note_off_c, 0, 74, 63
1, 142204, Control_c, 0, 64, 43
1, 142219, Control_c, 0, 64, 38
1, 142226, Note_on_c, 0, 76, 98
1, 142234, Control_c, 0, 64, 30
1, 142249, Control_c, 0, 64, 0
1, 142330, Control_c, 0, 64, 34
1, 142344, Control_c, 0, 64, 45
1, 142359, Control_c, 0, 64, 56
1, 142374, Control_c, 0, 64, 64
1, 142389, Control_c, 0, 64, 69
1, 142404, Control_c, 0, 64, 75
1, 142418, Control_c, 0, 64, 85
1, 142433, Control_c, 0, 64, 104
1, 142448, Control_c, 0, 64, 127
1, 142518, Note_off_c, 0, 65, 39
1, 142582, Note_off_c, 0, 62, 55
1, 142627, Note_off_c, 0, 58, 51
1, 142773, Note_off_c, 0, 53, 61
1, 143043, Note_off_c, 0, 76, 48
1, 143110, Note_on_c, 0, 74, 80
1, 143163, Note_off_c, 0, 74, 65
1, 143346, Note_on_c, 0, 79, 72
1, 143366, Note_on_c, 0, 80, 80
1, 143387, Note_on_c, 0, 85, 81
1, 143389, Control_c, 0, 64, 65
1, 143396, Note_on_c, 0, 62, 101
1, 143399, Note_on_c, 0, 58, 94
1, 143400, Note_on_c, 0, 86, 96
1, 143404, Control_c, 0, 64, 0
1, 143406, Note_on_c, 0, 53, 79
1, 143407, Note_off_c, 0, 79, 66
1, 143411, Note_off_c, 0, 80, 62
1, 143420, Note_on_c, 0, 56, 49
1, 143420, Note_off_c, 0, 56, 127
1, 143421, Note_off_c, 0, 85, 64
1, 143424, Note_off_c, 0, 58, 63
1, 143427, Note_on_c, 0, 61, 40
1, 143427, Note_off_c, 0, 61, 127
1, 143430, Note_off_c, 0, 53, 68
1, 143431, Note_off_c, 0, 86, 67
1, 143436, Note_off_c, 0, 62, 64
1, 143448, Poly_aftertouch_c, 0, 56, 0
1, 143528, Note_on_c, 0, 86, 75
1, 143543, Note_off_c, 0, 86, 69
1, 143630, Note_on_c, 0, 56, 81
1, 143636, Note_on_c, 0, 62, 73
1, 143644, Note_on_c, 0, 61, 66
1, 143647, Note_on_c, 0, 86, 91
1, 143662, Note_off_c, 0, 62, 68
1, 143670, Control_c, 0, 64, 75
1, 143673, Note_off_c, 0, 61, 64
1, 143679, Note_off_c, 0, 86, 65
1, 143685, Control_c, 0, 64, 76
1, 143687, Note_off_c, 0, 56, 62
1, 143700, Control_c, 0, 64, 61
1, 143715, Control_c, 0, 64, 0
1, 143769, Note_on_c, 0, 55, 74
1, 143771, Note_on_c, 0, 62, 75
1, 143772, Note_on_c, 0, 86, 104
1, 143773, Note_on_c, 0, 59, 82
1, 143777, Note_on_c, 0, 50, 78
1, 143789, Control_c, 0, 64, 61
1, 143791, Note_on_c, 0, 58, 39
1, 143804, Control_c, 0, 64, 80
1, 143820, Note_off_c, 0, 86, 66
1, 143826, Control_c, 0, 64, 77
1, 143840, Control_c, 0, 64, 62
1, 143855, Control_c, 0, 64, 32
1, 143870, Control_c, 0, 64, 0
1, 143876, Note_off_c, 0, 58, 33
1, 143877, Note_off_c, 0, 50, 62
1, 143883, Note_off_c, 0, 55, 61
1, 143883, Note_off_c, 0, 59, 60
1, 143886, Note_off_c, 0, 62, 63
1, 143906, Note_on_c, 0, 86, 92
1, 143947, Note_off_c, 0, 86, 63
1, 144019, Control_c, 0, 64, 46
1, 144034, Control_c, 0, 64, 64
1, 144035, Note_on_c, 0, 86, 93
1, 144037, Note_on_c, 0, 62, 93
1, 144040, Note_on_c, 0, 58, 78
1, 144041, Note_on_c, 0, 53, 79
1, 144048, Control_c, 0, 64, 59
1, 144063, Control_c, 0, 64, 28
1, 144074, Note_off_c, 0, 86, 64
1, 144078, Control_c, 0, 64, 0
1, 144114, Note_off_c, 0, 62, 62
1, 144115, Note_off_c, 0, 53, 60
1, 144120, Note_off_c, 0, 58, 62
1, 144165, Note_on_c, 0, 86, 66
1, 144182, Note_off_c, 0, 86, 65
1, 144282, Note_on_c, 0, 86, 98
1, 144284, Note_on_c, 0, 62, 102
1, 144286, Control_c, 0, 64, 56
1, 144288, Note_on_c, 0, 61, 88
1, 144289, Note_on_c, 0, 56, 91
1, 144290, Note_on_c, 0, 52, 90
1, 144301, Control_c, 0, 64, 127
1, 144331, Note_off_c, 0, 86, 67
1, 144360, Note_on_c, 0, 57, 71
1, 144392, Note_off_c, 0, 57, 65
1, 144393, Note_off_c, 0, 62, 60
1, 144405, Note_off_c, 0, 52, 61
1, 144407, Note_off_c, 0, 61, 64
1, 144408, Note_off_c, 0, 56, 59
1, 144416, Note_on_c, 0, 86, 93
1, 144456, Note_off_c, 0, 86, 66
1, 144529, Note_on_c, 0, 86, 88
1, 144581, Note_off_c, 0, 86, 66
1, 144604, Control_c, 0, 64, 82
1, 144619, Control_c, 0, 64, 58
1, 144634, Control_c, 0, 64, 0
1, 144648, Note_on_c, 0, 55, 78
1, 144653, Note_on_c, 0, 59, 78
1, 144653, Note_on_c, 0, 62, 87
1, 144655, Note_on_c, 0, 50, 75
1, 144661, Note_on_c, 0, 86, 98
1, 144663, Control_c, 0, 64, 36
1, 144678, Control_c, 0, 64, 56
1, 144693, Control_c, 0, 64, 73
1, 144708, Control_c, 0, 64, 116
1, 144712, Note_off_c, 0, 86, 67
1, 144716, Note_off_c, 0, 50, 62
1, 144724, Control_c, 0, 64, 127
1, 144729, Note_off_c, 0, 62, 62
1, 144732, Note_off_c, 0, 55, 61
1, 144732, Note_off_c, 0, 59, 62
1, 144782, Note_on_c, 0, 86, 94
1, 144812, Control_c, 0, 64, 103
1, 144827, Control_c, 0, 64, 63
1, 144842, Control_c, 0, 64, 0
1, 144905, Note_on_c, 0, 62, 106
1, 144909, Note_on_c, 0, 53, 93
1, 144911, Note_on_c, 0, 58, 91
1, 144912, Note_on_c, 0, 98, 112
1, 144916, Control_c, 0, 64, 58
1, 144932, Control_c, 0, 64, 127
1, 144942, Note_on_c, 0, 61, 42
1, 144942, Note_off_c, 0, 61, 127
1, 144946, Note_on_c, 0, 56, 55
1, 144947, Note_on_c, 0, 88, 50
1, 144949, Note_off_c, 0, 86, 64
1, 144974, Note_off_c, 0, 88, 57
1, 144979, Poly_aftertouch_c, 0, 61, 0
1, 144982, Note_off_c, 0, 56, 54
1, 145026, Note_off_c, 0, 98, 62
1, 145030, Note_on_c, 0, 86, 81
1, 145036, Note_off_c, 0, 62, 57
1, 145055, Note_off_c, 0, 58, 60
1, 145060, Note_off_c, 0, 53, 58
1, 145077, Note_off_c, 0, 86, 66
1, 145146, Note_on_c, 0, 62, 89
1, 145149, Note_on_c, 0, 61, 91
1, 145155, Note_on_c, 0, 56, 81
1, 145164, Note_on_c, 0, 86, 94
1, 145168, Note_off_c, 0, 62, 64
1, 145170, Note_on_c, 0, 52, 51
1, 145173, Note_off_c, 0, 61, 68
1, 145181, Note_off_c, 0, 56, 68
1, 145198, Note_off_c, 0, 52, 56
1, 145259, Note_off_c, 0, 86, 63
1, 145276, Note_on_c, 0, 74, 91
1, 145322, Note_off_c, 0, 74, 68
1, 145411, Note_on_c, 0, 50, 80
1, 145411, Note_on_c, 0, 59, 85
1, 145411, Note_on_c, 0, 62, 97
1, 145413, Control_c, 0, 64, 76
1, 145415, Note_on_c, 0, 55, 82
1, 145428, Control_c, 0, 64, 56
1, 145440, Note_on_c, 0, 74, 96
1, 145443, Control_c, 0, 64, 47
1, 145458, Control_c, 0, 64, 58
1, 145473, Control_c, 0, 64, 71
1, 145487, Control_c, 0, 64, 116
1, 145492, Note_off_c, 0, 50, 62
1, 145497, Note_off_c, 0, 62, 60
1, 145502, Control_c, 0, 64, 127
1, 145512, Note_off_c, 0, 59, 63
1, 145517, Note_off_c, 0, 55, 62
1, 145537, Note_off_c, 0, 74, 59
1, 145581, Note_on_c, 0, 62, 102
1, 145632, Note_off_c, 0, 62, 67
1, 145806, Note_on_c, 0, 53, 86
1, 145806, Note_on_c, 0, 62, 100
1, 145810, Note_on_c, 0, 65, 108
1, 145811, Note_on_c, 0, 58, 93
1, 145829, Control_c, 0, 64, 86
1, 145844, Control_c, 0, 64, 47
1, 145858, Control_c, 0, 64, 0
1, 145962, Control_c, 0, 64, 37
1, 145977, Control_c, 0, 64, 31
1, 145992, Control_c, 0, 64, 0
1, 146036, Control_c, 0, 64, 28
1, 146118, Control_c, 0, 64, 30
1, 146148, Control_c, 0, 64, 32
1, 146158, Note_on_c, 0, 74, 97
1, 146162, Control_c, 0, 64, 33
1, 146177, Control_c, 0, 64, 33
1, 146192, Control_c, 0, 64, 34
1, 146207, Control_c, 0, 64, 35
1, 146222, Control_c, 0, 64, 36
1, 146236, Control_c, 0, 64, 36
1, 146251, Control_c, 0, 64, 37
1, 146296, Control_c, 0, 64, 38
1, 146310, Control_c, 0, 64, 40
1, 146325, Control_c, 0, 64, 43
1, 146340, Control_c, 0, 64, 44
1, 146355, Control_c, 0, 64, 39
1, 146361, Note_off_c, 0, 74, 61
1, 146369, Control_c, 0, 64, 0
1, 146377, Note_on_c, 0, 80, 95
1, 146517, Control_c, 0, 64, 43
1, 146533, Control_c, 0, 64, 66
1, 146548, Control_c, 0, 64, 92
1, 146563, Control_c, 0, 64, 127
1, 146644, Note_off_c, 0, 65, 46
1, 146759, Note_off_c, 0, 62, 55
1, 146783, Note_off_c, 0, 58, 58
1, 146900, Note_off_c, 0, 53, 60
1, 147301, Note_off_c, 0, 80, 59
1, 147465, Note_on_c, 0, 74, 94
1, 147602, Note_off_c, 0, 74, 64
1, 147817, Note_on_c, 0, 79, 68
1, 147859, Note_on_c, 0, 80, 79
1, 147880, Note_on_c, 0, 82, 67
1, 147882, Control_c, 0, 64, 94
1, 147884, Note_on_c, 0, 85, 76
1, 147896, Control_c, 0, 64, 54
1, 147901, Note_on_c, 0, 62, 102
1, 147901, Note_on_c, 0, 86, 95
1, 147903, Note_off_c, 0, 82, 69
1, 147906, Note_on_c, 0, 58, 89
1, 147907, Note_off_c, 0, 79, 64
1, 147910, Note_off_c, 0, 80, 65
1, 147911, Control_c, 0, 64, 0
1, 147912, Note_on_c, 0, 53, 80
1, 147926, Note_on_c, 0, 56, 54
1, 147926, Note_off_c, 0, 56, 127
1, 147933, Note_off_c, 0, 85, 63
1, 147933, Note_off_c, 0, 58, 61
1, 147944, Note_off_c, 0, 86, 68
1, 147950, Poly_aftertouch_c, 0, 56, 0
1, 147953, Note_on_c, 0, 61, 9
1, 147970, Control_c, 0, 64, 28
1, 147984, Note_off_c, 0, 62, 34
1, 147985, Control_c, 0, 64, 0
1, 147993, Note_off_c, 0, 61, 47
1, 148038, Note_on_c, 0, 86, 83
1, 148059, Note_off_c, 0, 53, 50
1, 148137, Note_off_c, 0, 86, 57
1, 148142, Note_on_c, 0, 56, 79
1, 148145, Note_on_c, 0, 62, 79
1, 148147, Note_on_c, 0, 61, 71
1, 148148, Note_on_c, 0, 98, 99
1, 148172, Note_off_c, 0, 62, 65
1, 148178, Note_off_c, 0, 61, 68
1, 148192, Note_off_c, 0, 56, 65
1, 148238, Note_off_c, 0, 98, 65
1, 148267, Note_on_c, 0, 55, 84
1, 148268, Note_on_c, 0, 59, 83
1, 148268, Note_on_c, 0, 62, 92
1, 148272, Note_on_c, 0, 50, 81
1, 148274, Note_on_c, 0, 86, 79
1, 148282, Control_c, 0, 64, 52
1, 148297, Control_c, 0, 64, 61
1, 148315, Note_off_c, 0, 86, 66
1, 148319, Control_c, 0, 64, 56
1, 148334, Control_c, 0, 64, 51
1, 148349, Control_c, 0, 64, 53
1, 148363, Control_c, 0, 64, 59
1, 148372, Note_off_c, 0, 50, 60
1, 148378, Control_c, 0, 64, 63
1, 148380, Note_off_c, 0, 59, 62
1, 148382, Note_off_c, 0, 55, 61
1, 148382, Note_off_c, 0, 62, 63
1, 148393, Control_c, 0, 64, 62
1, 148401, Note_on_c, 0, 86, 88
1, 148408, Control_c, 0, 64, 58
1, 148423, Control_c, 0, 64, 49
1, 148437, Control_c, 0, 64, 30
1, 148452, Control_c, 0, 64, 0
1, 148476, Note_off_c, 0, 86, 63
1, 148514, Note_on_c, 0, 62, 100
1, 148514, Note_on_c, 0, 74, 90
1, 148517, Note_on_c, 0, 53, 93
1, 148517, Note_on_c, 0, 58, 88
1, 148542, Control_c, 0, 64, 68
1, 148547, Note_off_c, 0, 74, 64
1, 148553, Note_off_c, 0, 62, 66
1, 148556, Note_off_c, 0, 53, 62
1, 148556, Control_c, 0, 64, 77
1, 148571, Control_c, 0, 64, 70
1, 148572, Note_off_c, 0, 58, 52
1, 148586, Control_c, 0, 64, 41
1, 148601, Control_c, 0, 64, 0
1, 148650, Note_on_c, 0, 74, 89
1, 148661, Control_c, 0, 64, 60
1, 148661, Note_on_c, 0, 62, 93
1, 148663, Note_on_c, 0, 61, 99
1, 148669, Note_on_c, 0, 56, 84
1, 148675, Note_on_c, 0, 52, 57
1, 148675, Control_c, 0, 64, 69
1, 148678, Note_off_c, 0, 62, 73
1, 148688, Note_off_c, 0, 61, 66
1, 148690, Control_c, 0, 64, 68
1, 148693, Note_off_c, 0, 56, 71
1, 148705, Control_c, 0, 64, 68
1, 148706, Note_off_c, 0, 52, 65
1, 148708, Note_on_c, 0, 58, 38
1, 148751, Note_off_c, 0, 74, 52
1, 148765, Note_on_c, 0, 62, 91
1, 148765, Note_off_c, 0, 58, 35
1, 148809, Control_c, 0, 64, 63
1, 148824, Note_off_c, 0, 62, 61
1, 148824, Control_c, 0, 64, 0
1, 148868, Note_on_c, 0, 59, 70
1, 148874, Note_on_c, 0, 55, 80
1, 148874, Note_on_c, 0, 62, 84
1, 148875, Note_on_c, 0, 74, 92
1, 148883, Note_on_c, 0, 50, 59
1, 148883, Control_c, 0, 64, 40
1, 148896, Note_off_c, 0, 62, 70
1, 148898, Control_c, 0, 64, 63
1, 148899, Note_off_c, 0, 59, 66
1, 148903, Note_off_c, 0, 55, 63
1, 148904, Note_off_c, 0, 50, 62
1, 148911, Note_off_c, 0, 74, 67
1, 148912, Control_c, 0, 64, 71
1, 148928, Control_c, 0, 64, 65
1, 148943, Control_c, 0, 64, 0
1, 149015, Note_on_c, 0, 74, 99
1, 149016, Note_on_c, 0, 62, 97
1, 149019, Note_on_c, 0, 58, 92
1, 149021, Note_on_c, 0, 53, 89
1, 149032, Control_c, 0, 64, 54
1, 149042, Note_on_c, 0, 61, 46
1, 149042, Note_off_c, 0, 61, 127
1, 149047, Control_c, 0, 64, 68
1, 149069, Control_c, 0, 64, 70
1, 149099, Control_c, 0, 64, 69
1, 149124, Note_off_c, 0, 74, 63
1, 149129, Control_c, 0, 64, 66
1, 149131, Poly_aftertouch_c, 0, 56, 0
1, 149133, Note_off_c, 0, 62, 61
1, 149139, Note_off_c, 0, 53, 61
1, 149143, Control_c, 0, 64, 58
1, 149145, Note_on_c, 0, 86, 78
1, 149149, Note_off_c, 0, 58, 61
1, 149158, Control_c, 0, 64, 31
1, 149170, Note_off_c, 0, 86, 67
1, 149173, Control_c, 0, 64, 0
1, 149253, Note_on_c, 0, 62, 99
1, 149256, Note_on_c, 0, 61, 92
1, 149258, Note_on_c, 0, 56, 84
1, 149261, Control_c, 0, 64, 55
1, 149269, Note_on_c, 0, 52, 68
1, 149270, Note_on_c, 0, 86, 95
1, 149276, Control_c, 0, 64, 91
1, 149291, Control_c, 0, 64, 112
1, 149306, Control_c, 0, 64, 101
1, 149307, Note_off_c, 0, 62, 57
1, 149314, Note_off_c, 0, 61, 62
1, 149317, Note_off_c, 0, 56, 60
1, 149321, Control_c, 0, 64, 87
1, 149323, Note_on_c, 0, 58, 27
1, 149328, Note_off_c, 0, 52, 60
1, 149335, Control_c, 0, 64, 77
1, 149350, Control_c, 0, 64, 66
1, 149365, Control_c, 0, 64, 52
1, 149370, Note_off_c, 0, 58, 48
1, 149379, Control_c, 0, 64, 0
1, 149381, Note_on_c, 0, 98, 95
1, 149409, Note_off_c, 0, 86, 60
1, 149483, Note_off_c, 0, 98, 66
1, 149488, Note_on_c, 0, 59, 78
1, 149489, Note_on_c, 0, 55, 81
1, 149490, Note_on_c, 0, 62, 89
1, 149493, Note_on_c, 0, 50, 78
1, 149498, Control_c, 0, 64, 59
1, 149499, Note_on_c, 0, 86, 89
1, 149513, Control_c, 0, 64, 81
1, 149528, Control_c, 0, 64, 82
1, 149534, Note_off_c, 0, 86, 64
1, 149543, Control_c, 0, 64, 77
1, 149558, Control_c, 0, 64, 68
1, 149565, Note_off_c, 0, 50, 61
1, 149569, Note_off_c, 0, 55, 62
1, 149570, Note_off_c, 0, 59, 64
1, 149573, Control_c, 0, 64, 60
1, 149573, Note_off_c, 0, 62, 63
1, 149587, Control_c, 0, 64, 40
1, 149602, Control_c, 0, 64, 0
1, 149618, Note_on_c, 0, 86, 82
1, 149717, Note_off_c, 0, 86, 65
1, 149727, Note_on_c, 0, 74, 89
1, 149734, Note_on_c, 0, 62, 108
1, 149743, Note_on_c, 0, 53, 88
1, 149743, Note_on_c, 0, 58, 72
1, 149750, Note_off_c, 0, 74, 69
1, 149752, Control_c, 0, 64, 92
1, 149755, Note_on_c, 0, 61, 56
1, 149755, Note_off_c, 0, 61, 127
1, 149756, Note_on_c, 0, 59, 66
1, 149763, Note_off_c, 0, 58, 42
1, 149766, Control_c, 0, 64, 127
1, 149775, Note_off_c, 0, 59, 64
1, 149872, Note_on_c, 0, 59, 43
1, 149879, Note_off_c, 0, 62, 63
1, 149881, Note_on_c, 0, 74, 78
1, 149895, Note_off_c, 0, 53, 64
1, 149896, Note_off_c, 0, 59, 58
1, 149904, Note_off_c, 0, 74, 66
1, 149996, Note_on_c, 0, 62, 91
1, 149997, Note_on_c, 0, 51, 21
1, 150043, Note_off_c, 0, 51, 54
1, 150046, Note_off_c, 0, 62, 64
1, 150070, Control_c, 0, 64, 90
1, 150084, Control_c, 0, 64, 51
1, 150099, Control_c, 0, 64, 0
1, 150112, Note_on_c, 0, 62, 98
1, 150112, Note_on_c, 0, 61, 95
1, 150114, Note_on_c, 0, 52, 86
1, 150116, Note_on_c, 0, 56, 89
1, 150158, Control_c, 0, 64, 63
1, 150173, Control_c, 0, 64, 94
1, 150188, Control_c, 0, 64, 127
1, 150257, Note_on_c, 0, 74, 98
1, 150267, Note_off_c, 0, 52, 59
1, 150273, Note_off_c, 0, 62, 58
1, 150274, Note_off_c, 0, 56, 61
1, 150276, Note_off_c, 0, 61, 61
1, 150295, Note_off_c, 0, 74, 66
1, 150376, Note_on_c, 0, 74, 101
1, 150499, Control_c, 0, 64, 91
1, 150514, Control_c, 0, 64, 54
1, 150529, Note_on_c, 0, 62, 103
1, 150530, Note_on_c, 0, 59, 98
1, 150530, Control_c, 0, 64, 0
1, 150530, Note_on_c, 0, 50, 91
1, 150531, Note_on_c, 0, 55, 89
1, 150566, Control_c, 0, 64, 54
1, 150581, Control_c, 0, 64, 76
1, 150596, Control_c, 0, 64, 127
1, 150641, Note_off_c, 0, 74, 41
1, 150677, Note_off_c, 0, 62, 51
1, 150696, Note_off_c, 0, 50, 51
1, 150697, Note_off_c, 0, 59, 53
1, 150699, Note_off_c, 0, 55, 55
1, 150755, Note_on_c, 0, 74, 106
1, 150756, Note_on_c, 0, 86, 100
1, 150839, Note_off_c, 0, 74, 55
1, 150860, Note_off_c, 0, 86, 64
1, 150929, Note_on_c, 0, 74, 111
1, 150930, Note_on_c, 0, 86, 109
1, 150994, Note_off_c, 0, 74, 60
1, 151006, Note_off_c, 0, 86, 64
1, 151095, Note_on_c, 0, 74, 111
1, 151096, Note_on_c, 0, 86, 102
1, 151147, Note_off_c, 0, 74, 66
1, 151158, Note_off_c, 0, 86, 65
1, 151258, Note_on_c, 0, 74, 103
1, 151260, Note_on_c, 0, 86, 97
1, 151326, Note_off_c, 0, 74, 61
1, 151340, Note_off_c, 0, 86, 61
1, 151445, Note_on_c, 0, 86, 91
1, 151448, Note_on_c, 0, 74, 94
1, 151542, Note_off_c, 0, 74, 52
1, 151610, Note_off_c, 0, 86, 53
1, 151700, Control_c, 0, 64, 91
1, 151715, Control_c, 0, 64, 53
1, 151730, Control_c, 0, 64, 0
1, 151736, Note_on_c, 0, 62, 99
1, 151737, Note_on_c, 0, 65, 108
1, 151738, Note_on_c, 0, 53, 96
1, 151738, Note_on_c, 0, 58, 101
1, 151775, Control_c, 0, 64, 38
1, 151789, Control_c, 0, 64, 64
1, 151804, Control_c, 0, 64, 127
1, 151990, Note_off_c, 0, 65, 58
1, 151996, Note_off_c, 0, 53, 54
1, 151997, Note_off_c, 0, 62, 52
1, 152012, Note_off_c, 0, 58, 60
1, 152602, Note_on_c, 0, 88, 85
1, 152603, Note_on_c, 0, 95, 82
1, 152605, Note_on_c, 0, 100, 83
1, 152633, Note_off_c, 0, 95, 65
1, 152636, Note_off_c, 0, 100, 65
1, 152640, Note_off_c, 0, 88, 65
1, 152678, Note_on_c, 0, 82, 86
1, 152679, Note_on_c, 0, 98, 108
1, 152681, Note_on_c, 0, 86, 109
1, 152682, Note_on_c, 0, 94, 113
1, 152683, Note_on_c, 0, 77, 83
1, 152700, Note_off_c, 0, 82, 66
1, 152701, Note_off_c, 0, 77, 74
1, 153596, Note_off_c, 0, 98, 60
1, 153618, Note_off_c, 0, 94, 61
1, 153795, Note_off_c, 0, 86, 32
1, 153947, Poly_aftertouch_c, 0, 95, 0
1, 153954, Note_on_c, 0, 94, 68
1, 154024, Note_on_c, 0, 92, 73
1, 154067, Note_on_c, 0, 91, 64
1, 154068, Note_off_c, 0, 94, 56
1, 154092, Note_off_c, 0, 92, 66
1, 154097, Note_off_c, 0, 91, 68
1, 154101, Note_on_c, 0, 89, 76
1, 154130, Note_off_c, 0, 89, 62
1, 154152, Note_on_c, 0, 88, 79
1, 154184, Note_on_c, 0, 86, 69
1, 154225, Note_on_c, 0, 85, 69
1, 154225, Note_off_c, 0, 88, 62
1, 154252, Note_off_c, 0, 86, 53
1, 154271, Note_on_c, 0, 83, 81
1, 154290, Note_off_c, 0, 85, 59
1, 154310, Note_off_c, 0, 83, 57
1, 154345, Note_on_c, 0, 89, 67
1, 154394, Note_on_c, 0, 88, 66
1, 154408, Note_off_c, 0, 89, 60
1, 154417, Note_on_c, 0, 86, 68
1, 154479, Note_on_c, 0, 85, 72
1, 154482, Note_off_c, 0, 88, 58
1, 154499, Note_off_c, 0, 86, 58
1, 154522, Note_off_c, 0, 85, 63
1, 154523, Note_on_c, 0, 83, 66
1, 154594, Note_off_c, 0, 83, 63
1, 154601, Note_on_c, 0, 82, 64
1, 154617, Note_on_c, 0, 80, 73
1, 154628, Note_off_c, 0, 82, 67
1, 154650, Note_off_c, 0, 80, 61
1, 154667, Note_on_c, 0, 91, 77
1, 154688, Note_on_c, 0, 89, 64
1, 154704, Note_on_c, 0, 88, 67
1, 154727, Note_on_c, 0, 86, 71
1, 154727, Note_off_c, 0, 91, 63
1, 154756, Note_off_c, 0, 88, 65
1, 154762, Note_off_c, 0, 89, 64
1, 154773, Note_off_c, 0, 86, 66
1, 154786, Note_on_c, 0, 83, 58
1, 154789, Note_on_c, 0, 84, 51
1, 154811, Note_off_c, 0, 84, 63
1, 154815, Note_off_c, 0, 83, 59
1, 154824, Note_on_c, 0, 79, 67
1, 154851, Note_on_c, 0, 77, 72
1, 154851, Note_off_c, 0, 79, 64
1, 154885, Note_on_c, 0, 76, 66
1, 154917, Note_on_c, 0, 74, 84
1, 154921, Note_off_c, 0, 77, 64
1, 154937, Note_off_c, 0, 76, 64
1, 154956, Note_off_c, 0, 74, 65
1, 154996, Note_on_c, 0, 88, 67
1, 155011, Note_on_c, 0, 85, 69
1, 155012, Note_on_c, 0, 86, 65
1, 155076, Note_off_c, 0, 85, 62
1, 155081, Note_on_c, 0, 81, 55
1, 155085, Note_off_c, 0, 86, 65
1, 155089, Note_off_c, 0, 88, 66
1, 155093, Note_on_c, 0, 77, 79
1, 155111, Note_on_c, 0, 76, 71
1, 155113, Note_off_c, 0, 81, 68
1, 155127, Note_on_c, 0, 74, 63
1, 155131, Note_off_c, 0, 77, 61
1, 155135, Poly_aftertouch_c, 0, 83, 127
1, 155147, Note_on_c, 0, 73, 68
1, 155159, Note_off_c, 0, 74, 66
1, 155161, Note_off_c, 0, 76, 64
1, 155166, Poly_aftertouch_c, 0, 83, 0
1, 155179, Note_off_c, 0, 73, 65
1, 155191, Note_on_c, 0, 86, 73
1, 155206, Note_on_c, 0, 84, 36
1, 155214, Note_on_c, 0, 79, 65
1, 155282, Note_off_c, 0, 86, 64
1, 155292, Note_off_c, 0, 79, 64
1, 155294, Note_on_c, 0, 71, 72
1, 155299, Note_on_c, 0, 74, 75
1, 155305, Note_on_c, 0, 68, 65
1, 155308, Note_off_c, 0, 84, 48
1, 155322, Note_off_c, 0, 74, 70
1, 155333, Note_off_c, 0, 68, 67
1, 155349, Note_on_c, 0, 67, 75
1, 155372, Note_on_c, 0, 64, 71
1, 155400, Note_off_c, 0, 64, 70
1, 155400, Note_off_c, 0, 71, 65
1, 155426, Note_off_c, 0, 67, 66
1, 155435, Note_on_c, 0, 63, 68
1, 155441, Note_on_c, 0, 65, 17
1, 155454, Note_off_c, 0, 63, 66
1, 155481, Note_off_c, 0, 65, 0
1, 155481, Note_on_c, 0, 64, 74
1, 155509, Note_off_c, 0, 64, 56
1, 155514, Note_on_c, 0, 65, 12
1, 155524, Note_on_c, 0, 66, 75
1, 155543, Note_off_c, 0, 66, 61
1, 155546, Note_on_c, 0, 69, 72
1, 155555, Note_on_c, 0, 70, 52
1, 155563, Note_on_c, 0, 67, 41
1, 155570, Note_off_c, 0, 65, 57
1, 155582, Note_off_c, 0, 69, 63
1, 155585, Note_off_c, 0, 67, 60
1, 155588, Note_on_c, 0, 64, 95
1, 155594, Note_off_c, 0, 70, 63
1, 155613, Note_off_c, 0, 64, 70
1, 155660, Note_on_c, 0, 72, 45
1, 155663, Note_on_c, 0, 74, 50
1, 155685, Note_off_c, 0, 74, 60
1, 155689, Note_off_c, 0, 72, 54
1, 155722, Note_on_c, 0, 70, 84
1, 155736, Note_off_c, 0, 70, 71
1, 155750, Note_on_c, 0, 83, 82
1, 155789, Note_on_c, 0, 82, 73
1, 155817, Note_off_c, 0, 83, 63
1, 155833, Note_on_c, 0, 80, 78
1, 155846, Note_off_c, 0, 82, 63
1, 155856, Note_on_c, 0, 76, 73
1, 155879, Note_off_c, 0, 80, 61
1, 155894, Note_on_c, 0, 86, 90
1, 155894, Note_off_c, 0, 76, 46
1, 155939, Note_on_c, 0, 83, 80
1, 155973, Note_off_c, 0, 86, 64
1, 155994, Poly_aftertouch_c, 0, 82, 127
1, 156013, Note_off_c, 0, 83, 64
1, 156019, Note_on_c, 0, 79, 81
1, 156045, Poly_aftertouch_c, 0, 82, 0
1, 156068, Note_on_c, 0, 77, 45
1, 156074, Note_off_c, 0, 79, 66
1, 156095, Note_off_c, 0, 77, 66
1, 156116, Note_on_c, 0, 76, 82
1, 156164, Note_off_c, 0, 76, 64
1, 156179, Note_on_c, 0, 74, 52
1, 156193, Note_on_c, 0, 72, 86
1, 156202, Note_off_c, 0, 74, 59
1, 156277, Note_off_c, 0, 72, 0
1, 156279, Note_on_c, 0, 70, 72
1, 156314, Poly_aftertouch_c, 0, 72, 0
1, 156318, Note_on_c, 0, 68, 76
1, 156325, Note_on_c, 0, 71, 14
1, 156330, Note_off_c, 0, 70, 65
1, 156342, Note_off_c, 0, 68, 68
1, 156352, Note_on_c, 0, 67, 90
1, 156379, Note_off_c, 0, 71, 50
1, 156393, Note_off_c, 0, 67, 63
1, 156417, Note_on_c, 0, 65, 51
1, 156431, Note_on_c, 0, 64, 61
1, 156431, Note_off_c, 0, 64, 127
1, 156479, Note_on_c, 0, 64, 92
1, 156494, Note_off_c, 0, 65, 63
1, 156521, Note_off_c, 0, 64, 68
1, 156563, Note_on_c, 0, 61, 105
1, 156605, Note_off_c, 0, 61, 59
1, 156648, Note_on_c, 0, 62, 95
1, 156730, Note_on_c, 0, 64, 88
1, 156750, Note_off_c, 0, 62, 58
1, 156782, Note_off_c, 0, 64, 69
1, 156795, Note_on_c, 0, 65, 80
1, 156879, Note_on_c, 0, 67, 92
1, 156900, Note_off_c, 0, 65, 63
1, 156955, Note_on_c, 0, 69, 92
1, 156962, Note_off_c, 0, 67, 65
1, 157030, Note_off_c, 0, 69, 63
1, 157033, Note_on_c, 0, 71, 76
1, 157055, Note_off_c, 0, 71, 69
1, 157102, Note_on_c, 0, 71, 89
1, 157124, Note_off_c, 0, 71, 66
1, 157174, Note_on_c, 0, 73, 101
1, 157209, Note_off_c, 0, 73, 69
1, 157268, Note_on_c, 0, 74, 110
1, 157320, Control_c, 0, 64, 109
1, 157334, Control_c, 0, 64, 61
1, 157349, Control_c, 0, 64, 0
1, 157432, Note_on_c, 0, 55, 82
1, 157434, Note_on_c, 0, 59, 90
1, 157435, Note_on_c, 0, 62, 112
1, 157446, Note_on_c, 0, 50, 73
1, 157462, Note_off_c, 0, 59, 67
1, 157468, Control_c, 0, 64, 65
1, 157469, Note_off_c, 0, 55, 65
1, 157473, Note_off_c, 0, 50, 64
1, 157478, Note_off_c, 0, 62, 68
1, 157482, Control_c, 0, 64, 79
1, 157497, Control_c, 0, 64, 81
1, 157526, Control_c, 0, 64, 83
1, 157541, Control_c, 0, 64, 94
1, 157556, Control_c, 0, 64, 127
1, 157582, Note_on_c, 0, 63, 42
1, 157600, Control_c, 0, 64, 95
1, 157606, Note_off_c, 0, 63, 60
1, 157615, Control_c, 0, 64, 55
1, 157630, Control_c, 0, 64, 0
1, 157634, Note_off_c, 0, 74, 73
1, 157651, Note_on_c, 0, 65, 104
1, 157654, Note_on_c, 0, 58, 98
1, 157655, Note_on_c, 0, 53, 89
1, 157655, Note_on_c, 0, 62, 96
1, 157800, Note_on_c, 0, 73, 22
1, 157839, Note_off_c, 0, 73, 42
1, 157925, Note_on_c, 0, 73, 69
1, 157973, Note_off_c, 0, 73, 61
1, 157988, Note_on_c, 0, 74, 67
1, 158051, Note_on_c, 0, 73, 75
1, 158070, Note_off_c, 0, 74, 62
1, 158099, Note_off_c, 0, 73, 64
1, 158104, Note_on_c, 0, 71, 83
1, 158155, Note_on_c, 0, 70, 100
1, 158176, Note_off_c, 0, 71, 67
1, 158483, Control_c, 0, 64, 37
1, 158497, Control_c, 0, 64, 49
1, 158513, Control_c, 0, 64, 58
1, 158528, Control_c, 0, 64, 61
1, 158543, Control_c, 0, 64, 61
1, 158558, Control_c, 0, 64, 62
1, 158572, Control_c, 0, 64, 63
1, 158587, Control_c, 0, 64, 64
1, 158602, Control_c, 0, 64, 65
1, 158617, Control_c, 0, 64, 68
1, 158632, Control_c, 0, 64, 71
1, 158647, Control_c, 0, 64, 74
1, 158661, Control_c, 0, 64, 79
1, 158676, Control_c, 0, 64, 84
1, 158691, Control_c, 0, 64, 89
1, 158706, Control_c, 0, 64, 96
1, 158721, Control_c, 0, 64, 107
1, 158736, Control_c, 0, 64, 127
1, 159239, Note_off_c, 0, 65, 10
1, 159250, Note_off_c, 0, 62, 62
1, 159261, Note_off_c, 0, 58, 64
1, 159267, Note_on_c, 0, 68, 99
1, 159270, Note_off_c, 0, 53, 63
1, 159276, Control_c, 0, 64, 82
1, 159281, Note_off_c, 0, 70, 65
1, 159290, Control_c, 0, 64, 43
1, 159299, Note_off_c, 0, 68, 70
1, 159305, Control_c, 0, 64, 0
1, 159484, Note_on_c, 0, 62, 106
1, 159581, Control_c, 0, 64, 46
1, 159595, Control_c, 0, 64, 62
1, 159610, Control_c, 0, 64, 68
1, 159625, Control_c, 0, 64, 73
1, 159640, Control_c, 0, 64, 82
1, 159655, Control_c, 0, 64, 96
1, 159669, Control_c, 0, 64, 127
1, 160397, Note_off_c, 0, 62, 57
1, 160551, Control_c, 0, 64, 115
1, 160566, Control_c, 0, 64, 63
1, 160581, Control_c, 0, 64, 0
1, 160744, Control_c, 0, 64, 60
1, 160756, Note_on_c, 0, 62, 100
1, 160759, Control_c, 0, 64, 127
1, 160760, Note_on_c, 0, 58, 89
1, 160762, Note_on_c, 0, 53, 78
1, 160865, Poly_aftertouch_c, 0, 56, 0
1, 160894, Note_off_c, 0, 62, 57
1, 160902, Note_on_c, 0, 86, 92
1, 160903, Note_on_c, 0, 74, 92
1, 160905, Note_on_c, 0, 82, 79
1, 160987, Note_off_c, 0, 58, 45
1, 161010, Note_on_c, 0, 56, 67
1, 161022, Note_on_c, 0, 62, 70
1, 161024, Note_on_c, 0, 61, 76
1, 161046, Note_off_c, 0, 53, 60
1, 161049, Control_c, 0, 64, 80
1, 161059, Note_off_c, 0, 61, 67
1, 161060, Note_off_c, 0, 62, 63
1, 161064, Control_c, 0, 64, 58
1, 161070, Note_off_c, 0, 56, 64
1, 161079, Control_c, 0, 64, 0
1, 161091, Poly_aftertouch_c, 0, 58, 0
1, 161118, Note_off_c, 0, 74, 58
1, 161124, Note_off_c, 0, 86, 64
1, 161128, Note_off_c, 0, 82, 60
1, 161158, Note_on_c, 0, 59, 84
1, 161158, Note_on_c, 0, 62, 79
1, 161161, Note_on_c, 0, 55, 78
1, 161168, Note_on_c, 0, 50, 75
1, 161198, Control_c, 0, 64, 59
1, 161213, Control_c, 0, 64, 78
1, 161228, Control_c, 0, 64, 72
1, 161242, Control_c, 0, 64, 50
1, 161243, Note_off_c, 0, 59, 63
1, 161243, Note_off_c, 0, 62, 63
1, 161244, Note_off_c, 0, 50, 61
1, 161250, Note_off_c, 0, 55, 62
1, 161257, Control_c, 0, 64, 0
1, 161288, Note_on_c, 0, 74, 77
1, 161289, Note_on_c, 0, 86, 75
1, 161299, Note_on_c, 0, 82, 55
1, 161309, Note_off_c, 0, 74, 69
1, 161312, Note_off_c, 0, 86, 68
1, 161320, Note_off_c, 0, 82, 60
1, 161426, Note_on_c, 0, 62, 98
1, 161428, Note_on_c, 0, 58, 93
1, 161429, Note_on_c, 0, 53, 92
1, 161449, Control_c, 0, 64, 27
1, 161464, Control_c, 0, 64, 122
1, 161466, Note_on_c, 0, 56, 32
1, 161479, Control_c, 0, 64, 127
1, 161500, Note_off_c, 0, 56, 53
1, 161561, Note_on_c, 0, 74, 103
1, 161561, Note_on_c, 0, 82, 100
1, 161563, Note_on_c, 0, 86, 100
1, 161608, Note_off_c, 0, 62, 59
1, 161639, Note_off_c, 0, 58, 58
1, 161647, Note_off_c, 0, 53, 54
1, 161687, Note_on_c, 0, 56, 81
1, 161693, Note_on_c, 0, 61, 86
1, 161699, Note_on_c, 0, 62, 79
1, 161729, Note_off_c, 0, 62, 68
1, 161742, Note_off_c, 0, 61, 63
1, 161747, Note_off_c, 0, 56, 64
1, 161798, Control_c, 0, 64, 76
1, 161813, Control_c, 0, 64, 57
1, 161828, Control_c, 0, 64, 42
1, 161830, Note_on_c, 0, 62, 92
1, 161831, Note_on_c, 0, 55, 81
1, 161831, Note_on_c, 0, 59, 86
1, 161833, Note_off_c, 0, 74, 49
1, 161836, Note_on_c, 0, 50, 84
1, 161843, Control_c, 0, 64, 42
1, 161852, Note_off_c, 0, 82, 53
1, 161853, Note_off_c, 0, 86, 59
1, 161858, Control_c, 0, 64, 49
1, 161872, Control_c, 0, 64, 58
1, 161875, Note_off_c, 0, 50, 61
1, 161887, Control_c, 0, 64, 68
1, 161890, Note_off_c, 0, 59, 62
1, 161890, Note_off_c, 0, 55, 62
1, 161902, Note_off_c, 0, 62, 59
1, 161902, Control_c, 0, 64, 70
1, 161917, Control_c, 0, 64, 68
1, 161931, Control_c, 0, 64, 61
1, 161946, Control_c, 0, 64, 46
1, 161955, Note_on_c, 0, 86, 90
1, 161956, Note_on_c, 0, 74, 90
1, 161958, Note_on_c, 0, 82, 81
1, 161961, Control_c, 0, 64, 0
1, 161984, Note_off_c, 0, 82, 60
1, 162007, Note_off_c, 0, 74, 61
1, 162067, Note_on_c, 0, 53, 81
1, 162072, Note_on_c, 0, 58, 88
1, 162075, Note_on_c, 0, 62, 84
1, 162094, Control_c, 0, 64, 67
1, 162095, Note_off_c, 0, 86, 53
1, 162101, Note_off_c, 0, 53, 66
1, 162107, Note_off_c, 0, 62, 65
1, 162108, Control_c, 0, 64, 127
1, 162120, Note_off_c, 0, 58, 65
1, 162197, Note_on_c, 0, 86, 85
1, 162204, Note_on_c, 0, 82, 76
1, 162205, Note_on_c, 0, 74, 79
1, 162219, Note_off_c, 0, 86, 66
1, 162225, Note_off_c, 0, 82, 71
1, 162227, Note_off_c, 0, 74, 71
1, 162301, Control_c, 0, 64, 65
1, 162316, Control_c, 0, 64, 0
1, 162340, Note_on_c, 0, 73, 87
1, 162340, Note_on_c, 0, 83, 95
1, 162340, Note_on_c, 0, 88, 100
1, 162340, Note_on_c, 0, 76, 100
1, 162342, Note_on_c, 0, 67, 85
1, 162343, Note_on_c, 0, 68, 81
1, 162356, Note_off_c, 0, 73, 73
1, 162359, Note_off_c, 0, 67, 73
1, 162361, Control_c, 0, 64, 63
1, 162364, Note_off_c, 0, 68, 70
1, 162368, Note_on_c, 0, 85, 47
1, 162368, Note_off_c, 0, 85, 127
1, 162376, Control_c, 0, 64, 127
1, 162859, Note_off_c, 0, 88, 53
1, 162933, Note_off_c, 0, 83, 37
1, 163024, Note_off_c, 0, 76, 57
1, 163213, Control_c, 0, 64, 76
1, 163221, Note_on_c, 0, 82, 83
1, 163222, Note_on_c, 0, 86, 83
1, 163225, Note_on_c, 0, 70, 74
1, 163226, Note_on_c, 0, 74, 84
1, 163228, Control_c, 0, 64, 45
1, 163243, Control_c, 0, 64, 0
1, 163244, Note_on_c, 0, 65, 56
1, 163272, Control_c, 0, 64, 28
1, 163294, Control_c, 0, 64, 46
1, 163310, Control_c, 0, 64, 64
1, 163325, Control_c, 0, 64, 91
1, 163340, Control_c, 0, 64, 127
1, 163362, Note_off_c, 0, 70, 59
1, 163401, Note_off_c, 0, 65, 56
1, 163419, Note_off_c, 0, 74, 63
1, 163419, Note_off_c, 0, 82, 61
1, 163441, Note_off_c, 0, 86, 63
1, 163784, Control_c, 0, 64, 79
1, 163799, Control_c, 0, 64, 58
1, 163809, Note_on_c, 0, 41, 56
1, 163813, Control_c, 0, 64, 44
1, 163815, Note_on_c, 0, 29, 56
1, 163828, Control_c, 0, 64, 49
1, 163843, Control_c, 0, 64, 60
1, 163858, Control_c, 0, 64, 72
1, 163873, Control_c, 0, 64, 127
1, 164036, Note_on_c, 0, 53, 56
1, 164037, Note_on_c, 0, 62, 53
1, 164045, Note_on_c, 0, 58, 42
1, 164070, Note_off_c, 0, 53, 63
1, 164107, Note_off_c, 0, 41, 62
1, 164113, Note_off_c, 0, 58, 53
1, 164158, Note_off_c, 0, 29, 35
1, 164184, Note_off_c, 0, 62, 36
1, 164195, Note_on_c, 0, 64, 68
1, 164201, Note_on_c, 0, 56, 52
1, 164205, Note_on_c, 0, 61, 50
1, 164248, Note_off_c, 0, 56, 43
1, 164271, Note_off_c, 0, 61, 48
1, 164322, Note_off_c, 0, 64, 56
1, 164323, Note_on_c, 0, 44, 71
1, 164331, Note_on_c, 0, 32, 66
1, 164353, Note_off_c, 0, 44, 64
1, 164362, Note_off_c, 0, 32, 59
1, 164459, Control_c, 0, 64, 112
1, 164474, Note_on_c, 0, 46, 80
1, 164474, Control_c, 0, 64, 71
1, 164485, Note_on_c, 0, 34, 69
1, 164489, Control_c, 0, 64, 48
1, 164504, Control_c, 0, 64, 34
1, 164519, Control_c, 0, 64, 42
1, 164534, Control_c, 0, 64, 58
1, 164549, Control_c, 0, 64, 76
1, 164564, Control_c, 0, 64, 127
1, 164601, Note_on_c, 0, 62, 69
1, 164608, Note_off_c, 0, 34, 60
1, 164610, Note_on_c, 0, 53, 47
1, 164625, Note_on_c, 0, 58, 31
1, 164638, Note_off_c, 0, 53, 54
1, 164642, Note_off_c, 0, 62, 63
1, 164647, Note_off_c, 0, 46, 59
1, 164660, Note_off_c, 0, 58, 48
1, 164738, Note_on_c, 0, 68, 86
1, 164746, Note_on_c, 0, 59, 72
1, 164756, Note_off_c, 0, 68, 74
1, 164763, Note_off_c, 0, 59, 67
1, 164871, Note_on_c, 0, 50, 82
1, 164882, Note_on_c, 0, 38, 58
1, 164898, Note_off_c, 0, 50, 67
1, 164911, Note_off_c, 0, 38, 56
1, 164972, Control_c, 0, 64, 104
1, 164987, Control_c, 0, 64, 69
1, 164998, Note_on_c, 0, 53, 92
1, 165002, Control_c, 0, 64, 51
1, 165010, Note_on_c, 0, 41, 77
1, 165016, Control_c, 0, 64, 44
1, 165031, Control_c, 0, 64, 52
1, 165046, Control_c, 0, 64, 63
1, 165060, Control_c, 0, 64, 87
1, 165075, Control_c, 0, 64, 127
1, 165107, Note_on_c, 0, 62, 73
1, 165126, Note_on_c, 0, 58, 61
1, 165127, Note_off_c, 0, 53, 37
1, 165141, Note_on_c, 0, 55, 30
1, 165151, Note_off_c, 0, 58, 63
1, 165155, Poly_aftertouch_c, 0, 44, 127
1, 165157, Note_off_c, 0, 62, 64
1, 165165, Note_off_c, 0, 41, 65
1, 165185, Note_off_c, 0, 55, 53
1, 165191, Poly_aftertouch_c, 0, 63, 0
1, 165193, Poly_aftertouch_c, 0, 44, 0
1, 165218, Poly_aftertouch_c, 0, 63, 0
1, 165243, Note_on_c, 0, 65, 91
1, 165243, Note_on_c, 0, 73, 95
1, 165259, Note_off_c, 0, 65, 74
1, 165260, Note_off_c, 0, 73, 74
1, 165361, Note_on_c, 0, 41, 83
1, 165384, Note_off_c, 0, 41, 68
1, 165385, Note_on_c, 0, 29, 48
1, 165430, Note_off_c, 0, 29, 46
1, 165475, Control_c, 0, 64, 94
1, 165482, Note_on_c, 0, 44, 100
1, 165490, Note_on_c, 0, 32, 91
1, 165490, Control_c, 0, 64, 62
1, 165505, Control_c, 0, 64, 31
1, 165520, Control_c, 0, 64, 0
1, 165541, Control_c, 0, 64, 39
1, 165556, Control_c, 0, 64, 60
1, 165571, Control_c, 0, 64, 88
1, 165586, Control_c, 0, 64, 127
1, 165587, Note_on_c, 0, 62, 76
1, 165601, Note_on_c, 0, 58, 61
1, 165603, Note_on_c, 0, 53, 47
1, 165610, Note_off_c, 0, 32, 55
1, 165628, Note_off_c, 0, 62, 63
1, 165631, Note_off_c, 0, 58, 65
1, 165632, Note_off_c, 0, 53, 54
1, 165664, Note_off_c, 0, 44, 60
1, 165720, Note_on_c, 0, 68, 105
1, 165730, Note_on_c, 0, 76, 79
1, 165734, Note_off_c, 0, 68, 79
1, 165744, Note_off_c, 0, 76, 70
1, 165820, Note_on_c, 0, 34, 73
1, 165822, Note_on_c, 0, 46, 83
1, 165844, Note_off_c, 0, 34, 65
1, 165847, Note_off_c, 0, 46, 68
1, 165928, Control_c, 0, 64, 100
1, 165942, Note_on_c, 0, 50, 102
1, 165943, Control_c, 0, 64, 59
1, 165952, Note_on_c, 0, 38, 86
1, 165957, Control_c, 0, 64, 0
1, 165987, Control_c, 0, 64, 30
1, 165997, Poly_aftertouch_c, 0, 61, 0
1, 166001, Note_on_c, 0, 40, 22
1, 166002, Control_c, 0, 64, 62
1, 166017, Control_c, 0, 64, 117
1, 166029, Note_on_c, 0, 62, 86
1, 166031, Control_c, 0, 64, 127
1, 166042, Note_off_c, 0, 38, 55
1, 166042, Note_on_c, 0, 53, 67
1, 166042, Note_on_c, 0, 58, 75
1, 166056, Note_off_c, 0, 40, 47
1, 166070, Note_off_c, 0, 53, 63
1, 166072, Note_off_c, 0, 58, 64
1, 166075, Note_off_c, 0, 50, 57
1, 166084, Note_off_c, 0, 62, 64
1, 166173, Note_on_c, 0, 71, 94
1, 166176, Note_on_c, 0, 80, 87
1, 166189, Note_off_c, 0, 71, 75
1, 166194, Note_off_c, 0, 80, 73
1, 166261, Note_on_c, 0, 41, 83
1, 166270, Note_on_c, 0, 53, 68
1, 166304, Note_off_c, 0, 41, 66
1, 166307, Note_off_c, 0, 53, 63
1, 166307, Note_on_c, 0, 52, 25
1, 166349, Note_off_c, 0, 52, 45
1, 166364, Control_c, 0, 64, 98
1, 166379, Control_c, 0, 64, 61
1, 166388, Note_on_c, 0, 41, 114
1, 166394, Note_on_c, 0, 29, 95
1, 166394, Control_c, 0, 64, 49
1, 166409, Control_c, 0, 64, 55
1, 166416, Note_on_c, 0, 37, 52
1, 166424, Control_c, 0, 64, 64
1, 166424, Note_off_c, 0, 29, 59
1, 166438, Control_c, 0, 64, 82
1, 166439, Poly_aftertouch_c, 0, 61, 127
1, 166453, Note_on_c, 0, 29, 61
1, 166453, Note_off_c, 0, 37, 55
1, 166453, Control_c, 0, 64, 127
1, 166485, Note_on_c, 0, 61, 4
1, 166486, Note_on_c, 0, 53, 73
1, 166492, Note_on_c, 0, 58, 74
1, 166495, Note_on_c, 0, 62, 72
1, 166513, Note_off_c, 0, 53, 67
1, 166516, Note_on_c, 0, 31, 8
1, 166522, Note_off_c, 0, 58, 68
1, 166525, Poly_aftertouch_c, 0, 34, 0
1, 166531, Note_off_c, 0, 62, 64
1, 166542, Note_off_c, 0, 61, 60
1, 166545, Note_off_c, 0, 29, 61
1, 166567, Note_off_c, 0, 31, 51
1, 166591, Note_off_c, 0, 41, 63
1, 166620, Note_on_c, 0, 77, 105
1, 166620, Note_on_c, 0, 85, 105
1, 166634, Note_off_c, 0, 77, 74
1, 166635, Note_off_c, 0, 85, 71
1, 166638, Note_on_c, 0, 38, 46
1, 166674, Note_off_c, 0, 38, 49
1, 166674, Poly_aftertouch_c, 0, 34, 127
1, 166689, Poly_aftertouch_c, 0, 36, 127
1, 166724, Poly_aftertouch_c, 0, 34, 0
1, 166727, Note_on_c, 0, 44, 100
1, 166731, Note_on_c, 0, 32, 88
1, 166734, Poly_aftertouch_c, 0, 36, 0
1, 166751, Note_off_c, 0, 44, 70
1, 166760, Note_off_c, 0, 32, 63
1, 166809, Control_c, 0, 64, 91
1, 166823, Control_c, 0, 64, 53
1, 166835, Note_on_c, 0, 46, 109
1, 166838, Control_c, 0, 64, 0
1, 166840, Note_on_c, 0, 34, 97
1, 166865, Note_on_c, 0, 33, 63
1, 166883, Control_c, 0, 64, 61
1, 166894, Note_off_c, 0, 33, 58
1, 166898, Control_c, 0, 64, 93
1, 166907, Note_on_c, 0, 44, 3
1, 166913, Control_c, 0, 64, 127
1, 166927, Note_on_c, 0, 62, 78
1, 166936, Note_on_c, 0, 53, 66
1, 166945, Note_on_c, 0, 58, 62
1, 166948, Note_off_c, 0, 44, 47
1, 166956, Note_off_c, 0, 34, 60
1, 166959, Note_off_c, 0, 53, 61
1, 166966, Note_off_c, 0, 58, 64
1, 166966, Note_off_c, 0, 62, 64
1, 166983, Note_off_c, 0, 46, 60
1, 167065, Note_on_c, 0, 80, 109
1, 167068, Note_on_c, 0, 88, 100
1, 167075, Note_off_c, 0, 80, 84
1, 167080, Note_off_c, 0, 88, 79
1, 167175, Note_on_c, 0, 50, 93
1, 167190, Note_on_c, 0, 36, 58
1, 167191, Note_on_c, 0, 38, 61
1, 167193, Note_on_c, 0, 48, 65
1, 167199, Note_off_c, 0, 50, 68
1, 167218, Note_off_c, 0, 48, 59
1, 167219, Note_off_c, 0, 36, 56
1, 167221, Note_off_c, 0, 38, 53
1, 167291, Control_c, 0, 64, 65
1, 167306, Control_c, 0, 64, 0
1, 167309, Note_on_c, 0, 53, 108
1, 167314, Note_on_c, 0, 41, 99
1, 167329, Note_on_c, 0, 44, 72
1, 167329, Note_off_c, 0, 44, 127
1, 167347, Note_on_c, 0, 49, 37
1, 167347, Note_off_c, 0, 49, 127
1, 167351, Control_c, 0, 64, 44
1, 167366, Control_c, 0, 64, 76
1, 167381, Control_c, 0, 64, 127
1, 167394, Poly_aftertouch_c, 0, 49, 0
1, 167403, Poly_aftertouch_c, 0, 46, 127
1, 167405, Note_on_c, 0, 62, 85
1, 167413, Note_on_c, 0, 58, 77
1, 167416, Note_on_c, 0, 55, 70
1, 167427, Note_on_c, 0, 63, 45
1, 167429, Note_off_c, 0, 53, 61
1, 167434, Poly_aftertouch_c, 0, 46, 0
1, 167437, Note_off_c, 0, 55, 64
1, 167440, Note_off_c, 0, 58, 68
1, 167453, Note_off_c, 0, 63, 35
1, 167455, Note_on_c, 0, 42, 48
1, 167457, Note_off_c, 0, 62, 65
1, 167471, Note_off_c, 0, 41, 66
1, 167486, Note_off_c, 0, 42, 54
1, 167550, Note_on_c, 0, 83, 102
1, 167551, Note_on_c, 0, 92, 103
1, 167561, Note_off_c, 0, 83, 80
1, 167565, Note_off_c, 0, 92, 77
1, 167571, Note_on_c, 0, 30, 51
1, 167579, Note_on_c, 0, 35, 41
1, 167582, Note_on_c, 0, 32, 38
1, 167610, Note_off_c, 0, 30, 49
1, 167616, Note_off_c, 0, 35, 44
1, 167640, Note_off_c, 0, 32, 45
1, 167669, Note_on_c, 0, 41, 105
1, 167670, Note_on_c, 0, 29, 87
1, 167700, Note_off_c, 0, 41, 70
1, 167701, Note_on_c, 0, 30, 44
1, 167703, Note_off_c, 0, 29, 66
1, 167739, Note_off_c, 0, 30, 53
1, 167801, Note_on_c, 0, 61, 37
1, 167837, Note_off_c, 0, 61, 49
1, 167847, Control_c, 0, 64, 93
1, 167861, Control_c, 0, 64, 53
1, 167876, Control_c, 0, 64, 0
1, 167896, Note_on_c, 0, 44, 114
1, 167901, Note_on_c, 0, 32, 112
1, 167928, Note_on_c, 0, 41, 52
1, 167928, Note_off_c, 0, 41, 127
1, 167929, Note_off_c, 0, 32, 0
1, 167941, Note_on_c, 0, 34, 37
1, 167941, Note_off_c, 0, 34, 127
1, 167944, Note_on_c, 0, 36, 31
1, 167944, Note_off_c, 0, 36, 127
1, 167966, Poly_aftertouch_c, 0, 32, 127
1, 167966, Control_c, 0, 64, 69
1, 167980, Control_c, 0, 64, 127
1, 168000, Poly_aftertouch_c, 0, 36, 0
1, 168041, Note_on_c, 0, 62, 81
1, 168051, Note_on_c, 0, 58, 73
1, 168053, Note_on_c, 0, 53, 64
1, 168076, Note_off_c, 0, 53, 62
1, 168084, Note_off_c, 0, 58, 64
1, 168105, Note_off_c, 0, 62, 67
1, 168140, Poly_aftertouch_c, 0, 32, 0
1, 168261, Note_on_c, 0, 36, 48
1, 168275, Note_on_c, 0, 89, 110
1, 168275, Note_off_c, 0, 44, 61
1, 168275, Note_on_c, 0, 97, 100
1, 168288, Note_on_c, 0, 98, 88
1, 168289, Note_off_c, 0, 89, 75
1, 168290, Note_off_c, 0, 97, 76
1, 168303, Note_off_c, 0, 98, 70
1, 168322, Note_off_c, 0, 36, 62
1, 168382, Note_on_c, 0, 46, 110
1, 168389, Note_on_c, 0, 34, 102
1, 168415, Note_on_c, 0, 33, 60
1, 168420, Note_off_c, 0, 46, 66
1, 168424, Note_off_c, 0, 34, 64
1, 168433, Note_on_c, 0, 37, 22
1, 168445, Note_off_c, 0, 33, 57
1, 168474, Note_off_c, 0, 37, 54
1, 168582, Control_c, 0, 64, 74
1, 168597, Control_c, 0, 64, 0
1, 168907, Note_on_c, 0, 26, 108
1, 168935, Note_on_c, 0, 27, 67
1, 168935, Note_off_c, 0, 27, 127
1, 168956, Note_on_c, 0, 28, 50
1, 168994, Note_off_c, 0, 28, 47
1, 169019, Note_on_c, 0, 33, 77
1, 169055, Control_c, 0, 64, 46
1, 169070, Control_c, 0, 64, 64
1, 169085, Control_c, 0, 64, 72
1, 169092, Note_on_c, 0, 40, 85
1, 169092, Note_off_c, 0, 26, 63
1, 169095, Note_on_c, 0, 31, 20
1, 169095, Poly_aftertouch_c, 0, 29, 127
1, 169099, Control_c, 0, 64, 87
1, 169110, Note_on_c, 0, 38, 39
1, 169111, Note_off_c, 0, 33, 63
1, 169114, Control_c, 0, 64, 127
1, 169121, Note_off_c, 0, 40, 67
1, 169123, Note_on_c, 0, 46, 82
1, 169124, Poly_aftertouch_c, 0, 28, 127
1, 169145, Note_off_c, 0, 31, 49
1, 169146, Poly_aftertouch_c, 0, 29, 0
1, 169148, Note_off_c, 0, 38, 49
1, 169162, Poly_aftertouch_c, 0, 28, 0
1, 169170, Note_off_c, 0, 46, 63
1, 169176, Note_on_c, 0, 51, 76
1, 169207, Note_on_c, 0, 52, 65
1, 169232, Note_on_c, 0, 55, 67
1, 169233, Note_off_c, 0, 52, 63
1, 169235, Note_off_c, 0, 51, 59
1, 169256, Note_on_c, 0, 57, 63
1, 169256, Note_off_c, 0, 57, 127
1, 169260, Note_off_c, 0, 55, 64
1, 169294, Note_on_c, 0, 57, 55
1, 169294, Note_on_c, 0, 63, 92
1, 169297, Poly_aftertouch_c, 0, 48, 0
1, 169315, Note_on_c, 0, 65, 82
1, 169333, Note_off_c, 0, 57, 65
1, 169342, Note_off_c, 0, 63, 61
1, 169367, Note_on_c, 0, 71, 89
1, 169369, Note_off_c, 0, 65, 64
1, 169375, Note_on_c, 0, 64, 16
1, 169385, Note_off_c, 0, 71, 71
1, 169398, Note_on_c, 0, 77, 88
1, 169414, Note_off_c, 0, 64, 50
1, 169422, Note_on_c, 0, 80, 86
1, 169446, Note_on_c, 0, 84, 74
1, 169476, Note_on_c, 0, 85, 96
1, 169477, Control_c, 0, 64, 77
1, 169485, Note_off_c, 0, 77, 61
1, 169485, Note_off_c, 0, 80, 62
1, 169492, Control_c, 0, 64, 0
1, 169510, Note_off_c, 0, 84, 68
1, 169521, Note_on_c, 0, 86, 61
1, 169521, Note_off_c, 0, 85, 68
1, 169542, Note_off_c, 0, 86, 39
1, 169737, Note_on_c, 0, 78, 74
1, 169740, Note_on_c, 0, 100, 92
1, 169741, Note_on_c, 0, 88, 95
1, 169741, Note_on_c, 0, 95, 81
1, 169744, Note_on_c, 0, 80, 73
1, 169761, Note_off_c, 0, 95, 72
1, 169765, Note_off_c, 0, 80, 72
1, 169767, Note_off_c, 0, 88, 69
1, 169768, Note_off_c, 0, 100, 64
1, 169769, Note_off_c, 0, 78, 61
1, 169804, Note_on_c, 0, 76, 48
1, 169804, Note_on_c, 0, 81, 102
1, 169804, Note_on_c, 0, 98, 88
1, 169806, Note_on_c, 0, 94, 59
1, 169807, Note_on_c, 0, 71, 88
1, 169807, Note_on_c, 0, 86, 112
1, 169819, Note_on_c, 0, 78, 59
1, 169824, Note_on_c, 0, 92, 75
1, 169827, Note_on_c, 0, 80, 56
1, 169834, Control_c, 0, 64, 68
1, 169837, Note_off_c, 0, 78, 64
1, 169838, Note_off_c, 0, 92, 67
1, 169844, Note_on_c, 0, 97, 42
1, 169847, Note_off_c, 0, 80, 61
1, 169848, Control_c, 0, 64, 127
1, 169881, Note_off_c, 0, 97, 43
1, 170125, Note_off_c, 0, 98, 64
1, 170151, Note_off_c, 0, 86, 61
1, 170198, Note_off_c, 0, 81, 61
1, 170235, Note_off_c, 0, 71, 56
1, 170236, Note_off_c, 0, 94, 25
1, 170297, Note_on_c, 0, 78, 83
1, 170303, Note_on_c, 0, 80, 77
1, 170305, Note_on_c, 0, 100, 92
1, 170305, Note_on_c, 0, 88, 98
1, 170309, Note_on_c, 0, 95, 83
1, 170316, Note_on_c, 0, 83, 64
1, 170328, Note_off_c, 0, 95, 71
1, 170332, Note_off_c, 0, 83, 64
1, 170333, Note_on_c, 0, 97, 46
1, 170333, Note_off_c, 0, 76, 0
1, 170334, Note_off_c, 0, 100, 64
1, 170336, Note_on_c, 0, 94, 10
1, 170336, Note_off_c, 0, 94, 127
1, 170336, Note_off_c, 0, 88, 65
1, 170341, Note_on_c, 0, 84, 16
1, 170344, Note_off_c, 0, 80, 61
1, 170344, Control_c, 0, 64, 63
1, 170351, Note_off_c, 0, 78, 60
1, 170355, Note_off_c, 0, 84, 50
1, 170359, Control_c, 0, 64, 0
1, 170360, Note_off_c, 0, 97, 50
1, 170361, Poly_aftertouch_c, 0, 76, 0
1, 170373, Note_on_c, 0, 76, 59
1, 170373, Note_on_c, 0, 81, 106
1, 170373, Note_on_c, 0, 98, 108
1, 170374, Note_on_c, 0, 86, 110
1, 170375, Note_on_c, 0, 71, 92
1, 170388, Note_on_c, 0, 78, 48
1, 170396, Note_on_c, 0, 80, 44
1, 170400, Poly_aftertouch_c, 0, 94, 127
1, 170403, Control_c, 0, 64, 63
1, 170409, Note_on_c, 0, 92, 44
1, 170409, Note_off_c, 0, 92, 127
1, 170411, Note_off_c, 0, 78, 56
1, 170418, Control_c, 0, 64, 127
1, 170424, Note_off_c, 0, 80, 32
1, 170622, Note_off_c, 0, 98, 63
1, 170664, Note_off_c, 0, 86, 58
1, 170715, Note_off_c, 0, 71, 39
1, 170723, Poly_aftertouch_c, 0, 94, 0
1, 170750, Note_off_c, 0, 81, 56
1, 170794, Note_off_c, 0, 76, 31
1, 170853, Note_on_c, 0, 78, 83
1, 170859, Note_on_c, 0, 80, 80
1, 170861, Note_on_c, 0, 88, 95
1, 170862, Note_on_c, 0, 95, 89
1, 170862, Note_on_c, 0, 100, 86
1, 170863, Note_on_c, 0, 83, 77
1, 170881, Note_off_c, 0, 83, 72
1, 170884, Note_off_c, 0, 100, 69
1, 170889, Note_off_c, 0, 80, 62
1, 170889, Note_off_c, 0, 95, 65
1, 170891, Note_off_c, 0, 88, 68
1, 170895, Note_on_c, 0, 97, 40
1, 170900, Note_off_c, 0, 78, 60
1, 170901, Control_c, 0, 64, 74
1, 170916, Control_c, 0, 64, 0
1, 170928, Note_on_c, 0, 76, 71
1, 170928, Note_off_c, 0, 97, 33
1, 170929, Note_on_c, 0, 81, 103
1, 170932, Note_on_c, 0, 71, 89
1, 170932, Note_on_c, 0, 98, 107
1, 170933, Note_on_c, 0, 86, 110
1, 170934, Note_on_c, 0, 94, 92
1, 170940, Note_on_c, 0, 78, 70
1, 170952, Note_on_c, 0, 92, 72
1, 170964, Note_off_c, 0, 78, 65
1, 170968, Note_off_c, 0, 92, 43
1, 170973, Note_on_c, 0, 80, 14
1, 170976, Control_c, 0, 64, 80
1, 170990, Control_c, 0, 64, 127
1, 171014, Note_off_c, 0, 80, 30
1, 171164, Note_off_c, 0, 98, 62
1, 171199, Note_off_c, 0, 71, 47
1, 171207, Note_off_c, 0, 86, 54
1, 171219, Note_off_c, 0, 94, 59
1, 171295, Note_off_c, 0, 81, 59
1, 171342, Note_off_c, 0, 76, 28
1, 171385, Note_on_c, 0, 78, 82
1, 171387, Note_on_c, 0, 88, 96
1, 171388, Note_on_c, 0, 80, 81
1, 171393, Note_on_c, 0, 95, 81
1, 171394, Note_on_c, 0, 100, 87
1, 171407, Note_on_c, 0, 83, 53
1, 171407, Note_on_c, 0, 84, 50
1, 171413, Note_off_c, 0, 95, 72
1, 171416, Note_off_c, 0, 100, 70
1, 171417, Note_off_c, 0, 80, 63
1, 171420, Note_off_c, 0, 88, 68
1, 171425, Note_on_c, 0, 97, 37
1, 171427, Note_off_c, 0, 78, 62
1, 171428, Note_off_c, 0, 83, 59
1, 171429, Note_off_c, 0, 84, 62
1, 171435, Control_c, 0, 64, 77
1, 171450, Control_c, 0, 64, 0
1, 171454, Note_on_c, 0, 98, 105
1, 171455, Note_on_c, 0, 94, 98
1, 171456, Note_on_c, 0, 86, 107
1, 171461, Note_on_c, 0, 71, 92
1, 171461, Note_on_c, 0, 81, 102
1, 171461, Note_on_c, 0, 76, 81
1, 171468, Note_on_c, 0, 78, 68
1, 171470, Note_off_c, 0, 97, 30
1, 171489, Note_on_c, 0, 88, 40
1, 171494, Note_off_c, 0, 78, 62
1, 171494, Control_c, 0, 64, 54
1, 171503, Note_off_c, 0, 81, 61
1, 171509, Control_c, 0, 64, 127
1, 171535, Note_off_c, 0, 88, 31
1, 171612, Note_off_c, 0, 98, 62
1, 171649, Note_off_c, 0, 94, 63
1, 171677, Note_off_c, 0, 76, 60
1, 171678, Note_off_c, 0, 86, 62
1, 171688, Poly_aftertouch_c, 0, 78, 0
1, 171690, Note_off_c, 0, 71, 53
1, 171861, Note_on_c, 0, 83, 91
1, 171864, Note_on_c, 0, 76, 93
1, 171865, Note_on_c, 0, 63, 81
1, 171872, Note_on_c, 0, 88, 74
1, 171886, Note_off_c, 0, 76, 68
1, 171891, Note_off_c, 0, 88, 73
1, 171899, Note_off_c, 0, 83, 67
1, 171900, Note_on_c, 0, 67, 40
1, 171917, Control_c, 0, 64, 89
1, 171925, Note_off_c, 0, 67, 0
1, 171925, Note_on_c, 0, 67, 18
1, 171932, Control_c, 0, 64, 49
1, 171935, Note_on_c, 0, 73, 94
1, 171935, Note_on_c, 0, 82, 88
1, 171935, Note_on_c, 0, 86, 99
1, 171935, Note_on_c, 0, 74, 101
1, 171947, Control_c, 0, 64, 0
1, 171947, Note_on_c, 0, 68, 62
1, 171962, Control_c, 0, 64, 28
1, 171967, Note_off_c, 0, 68, 40
1, 171976, Control_c, 0, 64, 59
1, 171991, Control_c, 0, 64, 127
1, 172027, Note_off_c, 0, 63, 61
1, 172040, Note_off_c, 0, 67, 0
1, 172040, Note_on_c, 0, 67, 27
1, 172066, Note_off_c, 0, 74, 60
1, 172101, Poly_aftertouch_c, 0, 68, 127
1, 172114, Note_off_c, 0, 82, 66
1, 172120, Note_off_c, 0, 86, 63
1, 172130, Note_off_c, 0, 73, 55
1, 172148, Note_off_c, 0, 67, 39
1, 172166, Poly_aftertouch_c, 0, 68, 0
1, 172299, Note_on_c, 0, 95, 93
1, 172299, Note_on_c, 0, 88, 91
1, 172305, Note_on_c, 0, 100, 87
1, 172320, Note_off_c, 0, 88, 69
1, 172324, Note_off_c, 0, 100, 71
1, 172325, Note_on_c, 0, 97, 47
1, 172334, Note_off_c, 0, 95, 65
1, 172341, Note_on_c, 0, 80, 40
1, 172350, Note_off_c, 0, 97, 53
1, 172368, Note_on_c, 0, 72, 91
1, 172368, Note_on_c, 0, 86, 107
1, 172368, Note_on_c, 0, 98, 106
1, 172369, Note_on_c, 0, 94, 49
1, 172370, Control_c, 0, 64, 70
1, 172371, Note_on_c, 0, 78, 90
1, 172382, Note_off_c, 0, 80, 53
1, 172385, Control_c, 0, 64, 56
1, 172394, Note_off_c, 0, 78, 68
1, 172396, Note_off_c, 0, 72, 66
1, 172399, Control_c, 0, 64, 66
1, 172414, Control_c, 0, 64, 94
1, 172415, Note_on_c, 0, 92, 27
1, 172428, Control_c, 0, 64, 127
1, 172455, Note_off_c, 0, 92, 52
1, 172469, Note_off_c, 0, 98, 67
1, 172494, Note_off_c, 0, 94, 65
1, 172505, Note_off_c, 0, 86, 65
1, 172655, Note_on_c, 0, 83, 84
1, 172669, Note_on_c, 0, 69, 60
1, 172669, Note_on_c, 0, 76, 67
1, 172669, Note_on_c, 0, 88, 62
1, 172678, Note_off_c, 0, 83, 65
1, 172681, Note_on_c, 0, 70, 42
1, 172687, Note_off_c, 0, 76, 67
1, 172687, Note_off_c, 0, 88, 66
1, 172695, Control_c, 0, 64, 94
1, 172710, Control_c, 0, 64, 43
1, 172710, Note_off_c, 0, 70, 53
1, 172720, Note_on_c, 0, 68, 90
1, 172724, Control_c, 0, 64, 0
1, 172725, Note_on_c, 0, 86, 97
1, 172725, Note_on_c, 0, 74, 108
1, 172737, Note_off_c, 0, 69, 64
1, 172739, Control_c, 0, 64, 44
1, 172740, Note_on_c, 0, 80, 83
1, 172740, Note_off_c, 0, 68, 70
1, 172743, Note_on_c, 0, 82, 26
1, 172746, Note_on_c, 0, 81, 82
1, 172749, Note_on_c, 0, 84, 52
1, 172754, Control_c, 0, 64, 80
1, 172768, Control_c, 0, 64, 127
1, 172775, Note_off_c, 0, 84, 38
1, 172863, Note_off_c, 0, 74, 64
1, 172871, Note_off_c, 0, 81, 61
1, 172871, Note_off_c, 0, 82, 36
1, 172880, Note_off_c, 0, 86, 65
1, 172887, Note_off_c, 0, 80, 61
1, 173035, Note_on_c, 0, 66, 95
1, 173038, Note_on_c, 0, 73, 98
1, 173040, Note_on_c, 0, 79, 99
1, 173041, Note_on_c, 0, 88, 101
1, 173042, Note_on_c, 0, 80, 99
1, 173067, Note_off_c, 0, 73, 62
1, 173068, Note_on_c, 0, 68, 42
1, 173091, Note_off_c, 0, 68, 61
1, 173101, Note_off_c, 0, 66, 0
1, 173139, Poly_aftertouch_c, 0, 66, 127
1, 173149, Note_off_c, 0, 88, 59
1, 173159, Note_off_c, 0, 80, 55
1, 173167, Note_off_c, 0, 79, 53
1, 173236, Control_c, 0, 64, 108
1, 173251, Control_c, 0, 64, 60
1, 173255, Poly_aftertouch_c, 0, 66, 0
1, 173265, Control_c, 0, 64, 0
1, 173292, Note_on_c, 0, 81, 95
1, 173294, Note_on_c, 0, 74, 106
1, 173295, Note_on_c, 0, 86, 104
1, 173297, Note_on_c, 0, 58, 88
1, 173298, Note_on_c, 0, 68, 102
1, 173310, Control_c, 0, 64, 67
1, 173325, Control_c, 0, 64, 127
1, 173328, Note_on_c, 0, 82, 41
1, 173345, Note_on_c, 0, 63, 29
1, 173357, Note_off_c, 0, 82, 35
1, 173382, Note_off_c, 0, 63, 44
1, 173426, Note_off_c, 0, 86, 63
1, 173434, Note_off_c, 0, 58, 31
1, 173434, Note_off_c, 0, 74, 57
1, 173441, Note_off_c, 0, 81, 61
1, 173546, Note_on_c, 0, 87, 31
1, 173584, Note_off_c, 0, 87, 52
1, 173596, Note_off_c, 0, 68, 50
1, 173606, Control_c, 0, 64, 72
1, 173621, Control_c, 0, 64, 0
1, 173657, Note_on_c, 0, 64, 95
1, 173659, Note_on_c, 0, 90, 104
1, 173661, Note_on_c, 0, 69, 98
1, 173665, Note_on_c, 0, 85, 68
1, 173665, Control_c, 0, 64, 46
1, 173666, Note_on_c, 0, 81, 83
1, 173669, Note_on_c, 0, 86, 88
1, 173673, Note_on_c, 0, 76, 74
1, 173678, Note_on_c, 0, 77, 77
1, 173680, Note_on_c, 0, 75, 53
1, 173680, Note_off_c, 0, 75, 127
1, 173680, Control_c, 0, 64, 127
1, 173681, Note_on_c, 0, 80, 40
1, 173681, Note_on_c, 0, 87, 52
1, 173692, Note_on_c, 0, 78, 37
1, 173708, Note_off_c, 0, 87, 52
1, 173724, Note_off_c, 0, 80, 44
1, 173730, Note_off_c, 0, 78, 32
1, 173760, Note_off_c, 0, 86, 59
1, 173771, Note_off_c, 0, 81, 52
1, 173788, Note_off_c, 0, 85, 55
1, 173802, Note_off_c, 0, 76, 58
1, 173802, Note_off_c, 0, 90, 61
1, 173804, Note_off_c, 0, 77, 53
1, 173806, Note_off_c, 0, 69, 55
1, 173911, Control_c, 0, 64, 98
1, 173927, Note_off_c, 0, 64, 62
1, 173927, Control_c, 0, 64, 57
1, 173942, Control_c, 0, 64, 0
1, 173956, Control_c, 0, 64, 29
1, 173959, Note_on_c, 0, 83, 95
1, 173959, Note_on_c, 0, 63, 94
1, 173960, Note_on_c, 0, 76, 107
1, 173961, Note_on_c, 0, 81, 91
1, 173964, Note_on_c, 0, 86, 97
1, 173965, Note_on_c, 0, 68, 93
1, 173965, Note_on_c, 0, 70, 88
1, 173971, Control_c, 0, 64, 65
1, 173985, Note_off_c, 0, 70, 68
1, 173986, Control_c, 0, 64, 127
1, 173992, Note_on_c, 0, 82, 38
1, 173992, Note_off_c, 0, 82, 127
1, 173992, Note_on_c, 0, 71, 47
1, 173999, Note_off_c, 0, 68, 59
1, 174001, Note_off_c, 0, 63, 63
1, 174006, Note_on_c, 0, 72, 17
1, 174006, Note_off_c, 0, 72, 127
1, 174016, Note_off_c, 0, 71, 58
1, 174043, Poly_aftertouch_c, 0, 72, 0
1, 174043, Note_off_c, 0, 76, 58
1, 174058, Note_off_c, 0, 81, 57
1, 174078, Note_off_c, 0, 83, 59
1, 174085, Note_off_c, 0, 86, 65
1, 174252, Control_c, 0, 64, 64
1, 174267, Control_c, 0, 64, 0
1, 174293, Note_on_c, 0, 88, 96
1, 174294, Note_on_c, 0, 83, 112
1, 174296, Note_on_c, 0, 93, 102
1, 174299, Note_on_c, 0, 66, 82
1, 174299, Note_on_c, 0, 72, 93
1, 174299, Note_on_c, 0, 80, 100
1, 174311, Control_c, 0, 64, 73
1, 174313, Note_off_c, 0, 80, 77
1, 174320, Note_off_c, 0, 72, 65
1, 174322, Note_on_c, 0, 78, 54
1, 174322, Note_off_c, 0, 78, 127
1, 174323, Note_on_c, 0, 90, 64
1, 174323, Note_off_c, 0, 66, 70
1, 174326, Control_c, 0, 64, 127
1, 174334, Note_on_c, 0, 74, 40
1, 174350, Note_off_c, 0, 90, 60
1, 174364, Note_off_c, 0, 74, 58
1, 174396, Note_off_c, 0, 93, 63
1, 174432, Note_off_c, 0, 88, 60
1, 174466, Note_off_c, 0, 83, 64
1, 174712, Note_on_c, 0, 79, 98
1, 174714, Note_on_c, 0, 82, 100
1, 174715, Note_on_c, 0, 86, 104
1, 174724, Note_on_c, 0, 77, 101
1, 174729, Note_on_c, 0, 70, 97
1, 174734, Note_on_c, 0, 75, 80
1, 174738, Note_off_c, 0, 77, 78
1, 174742, Note_off_c, 0, 70, 74
1, 174743, Note_off_c, 0, 79, 69
1, 174749, Note_on_c, 0, 69, 73
1, 174752, Note_off_c, 0, 82, 62
1, 174756, Note_off_c, 0, 75, 72
1, 174767, Note_off_c, 0, 86, 70
1, 174767, Note_off_c, 0, 69, 68
1, 174806, Note_on_c, 0, 70, 33
1, 174836, Note_off_c, 0, 70, 59
1, 175031, Control_c, 0, 64, 78
1, 175045, Control_c, 0, 64, 0
1, 175085, Note_on_c, 0, 84, 107
1, 175086, Note_on_c, 0, 97, 105
1, 175092, Note_on_c, 0, 67, 120
1, 175098, Note_on_c, 0, 61, 102
1, 175105, Control_c, 0, 64, 38
1, 175116, Note_off_c, 0, 61, 69
1, 175119, Note_on_c, 0, 92, 41
1, 175119, Note_off_c, 0, 92, 127
1, 175119, Control_c, 0, 64, 127
1, 175127, Note_on_c, 0, 63, 49
1, 175127, Note_off_c, 0, 63, 127
1, 175128, Note_on_c, 0, 94, 28
1, 175131, Note_off_c, 0, 67, 67
1, 175171, Note_off_c, 0, 94, 39
1, 175172, Note_on_c, 0, 67, 76
1, 175185, Note_on_c, 0, 61, 71
1, 175218, Note_off_c, 0, 61, 64
1, 175223, Note_off_c, 0, 97, 60
1, 175253, Note_off_c, 0, 67, 57
1, 175317, Note_off_c, 0, 84, 60
1, 175647, Control_c, 0, 64, 87
1, 175653, Note_on_c, 0, 69, 92
1, 175655, Note_on_c, 0, 76, 96
1, 175661, Control_c, 0, 64, 80
1, 175666, Note_on_c, 0, 79, 96
1, 175666, Note_on_c, 0, 81, 102
1, 175669, Note_on_c, 0, 88, 96
1, 175673, Note_on_c, 0, 83, 86
1, 175673, Note_off_c, 0, 83, 127
1, 175676, Control_c, 0, 64, 127
1, 175677, Note_on_c, 0, 85, 72
1, 175677, Note_off_c, 0, 85, 127
1, 175688, Poly_aftertouch_c, 0, 83, 0
1, 175694, Note_off_c, 0, 81, 55
1, 175698, Note_off_c, 0, 79, 61
1, 175705, Note_off_c, 0, 76, 71
1, 175718, Note_off_c, 0, 88, 65
1, 175732, Note_off_c, 0, 69, 67
1, 175996, Poly_aftertouch_c, 0, 66, 0
1, 176068, Control_c, 0, 64, 80
1, 176083, Control_c, 0, 64, 0
1, 176114, Note_on_c, 0, 71, 112
1, 176118, Note_on_c, 0, 94, 113
1, 176119, Note_on_c, 0, 105, 106
1, 176121, Note_on_c, 0, 63, 101
1, 176138, Note_on_c, 0, 95, 72
1, 176138, Note_off_c, 0, 95, 127
1, 176144, Note_on_c, 0, 96, 60
1, 176144, Note_off_c, 0, 96, 127
1, 176155, Note_off_c, 0, 94, 0
1, 176159, Control_c, 0, 64, 52
1, 176173, Control_c, 0, 64, 127
1, 176192, Poly_aftertouch_c, 0, 94, 127
1, 176347, Note_off_c, 0, 63, 58
1, 176364, Note_off_c, 0, 71, 53
1, 176479, Poly_aftertouch_c, 0, 94, 0
1, 177235, Note_off_c, 0, 105, 61
1, 177421, Note_on_c, 0, 76, 97
1, 177421, Note_on_c, 0, 80, 93
1, 177421, Note_on_c, 0, 86, 101
1, 177435, Note_on_c, 0, 77, 99
1, 177435, Note_off_c, 0, 80, 76
1, 177448, Note_off_c, 0, 77, 77
1, 177452, Note_on_c, 0, 75, 56
1, 177452, Note_off_c, 0, 75, 127
1, 177453, Note_off_c, 0, 86, 68
1, 177456, Note_off_c, 0, 76, 67
1, 177982, Control_c, 0, 64, 88
1, 177996, Control_c, 0, 64, 60
1, 178000, Note_on_c, 0, 99, 70
1, 178011, Control_c, 0, 64, 28
1, 178013, Note_on_c, 0, 60, 48
1, 178019, Note_on_c, 0, 85, 58
1, 178019, Note_on_c, 0, 97, 62
1, 178026, Control_c, 0, 64, 36
1, 178037, Note_on_c, 0, 67, 54
1, 178041, Control_c, 0, 64, 57
1, 178055, Control_c, 0, 64, 74
1, 178061, Note_on_c, 0, 87, 28
1, 178070, Control_c, 0, 64, 127
1, 178098, Note_off_c, 0, 87, 54
1, 178101, Note_off_c, 0, 99, 64
1, 178103, Note_off_c, 0, 97, 65
1, 178106, Note_off_c, 0, 60, 63
1, 178120, Note_off_c, 0, 67, 62
1, 178139, Note_off_c, 0, 85, 65
1, 178286, Note_on_c, 0, 86, 79
1, 178288, Note_on_c, 0, 72, 73
1, 178289, Note_on_c, 0, 82, 76
1, 178295, Note_on_c, 0, 87, 63
1, 178306, Note_on_c, 0, 85, 72
1, 178329, Note_off_c, 0, 72, 62
1, 178330, Note_off_c, 0, 85, 69
1, 178337, Note_off_c, 0, 86, 64
1, 178340, Note_off_c, 0, 82, 62
1, 178393, Poly_aftertouch_c, 0, 73, 0
1, 178441, Note_off_c, 0, 87, 28
1, 178498, Note_on_c, 0, 61, 61
1, 178511, Note_on_c, 0, 69, 86
1, 178511, Note_on_c, 0, 85, 102
1, 178512, Note_on_c, 0, 92, 104
1, 178521, Note_on_c, 0, 81, 87
1, 178524, Note_on_c, 0, 83, 82
1, 178538, Note_off_c, 0, 69, 64
1, 178559, Note_off_c, 0, 85, 58
1, 178560, Note_off_c, 0, 61, 64
1, 178562, Note_off_c, 0, 83, 56
1, 178568, Note_off_c, 0, 81, 62
1, 178575, Note_off_c, 0, 92, 67
1, 178592, Poly_aftertouch_c, 0, 60, 127
1, 178619, Poly_aftertouch_c, 0, 60, 0
1, 178716, Note_on_c, 0, 63, 92
1, 178720, Note_on_c, 0, 84, 76
1, 178728, Note_on_c, 0, 79, 91
1, 178729, Note_on_c, 0, 81, 92
1, 178732, Note_on_c, 0, 89, 87
1, 178732, Note_on_c, 0, 90, 57
1, 178733, Note_off_c, 0, 63, 73
1, 178735, Note_on_c, 0, 87, 70
1, 178745, Note_on_c, 0, 85, 46
1, 178745, Note_off_c, 0, 85, 127
1, 178750, Note_off_c, 0, 90, 65
1, 178752, Note_on_c, 0, 66, 39
1, 178758, Note_off_c, 0, 84, 66
1, 178761, Note_off_c, 0, 87, 66
1, 178768, Note_off_c, 0, 89, 56
1, 178772, Note_off_c, 0, 81, 58
1, 178777, Note_off_c, 0, 79, 67
1, 178779, Note_off_c, 0, 66, 61
1, 178914, Note_on_c, 0, 76, 84
1, 178914, Note_on_c, 0, 71, 83
1, 178915, Note_on_c, 0, 78, 99
1, 178915, Note_on_c, 0, 87, 94
1, 178919, Note_on_c, 0, 84, 80
1, 178931, Note_off_c, 0, 87, 74
1, 178937, Note_on_c, 0, 86, 81
1, 178938, Note_off_c, 0, 76, 68
1, 178938, Note_on_c, 0, 85, 53
1, 178938, Note_off_c, 0, 85, 127
1, 178940, Note_on_c, 0, 81, 43
1, 178944, Note_off_c, 0, 84, 65
1, 178954, Note_off_c, 0, 78, 60
1, 178955, Note_off_c, 0, 71, 66
1, 178955, Note_off_c, 0, 86, 73
1, 178965, Note_off_c, 0, 81, 56
1, 179030, Poly_aftertouch_c, 0, 73, 0
1, 179079, Control_c, 0, 64, 71
1, 179093, Control_c, 0, 64, 0
1, 179106, Note_on_c, 0, 92, 97
1, 179108, Note_on_c, 0, 75, 94
1, 179110, Note_on_c, 0, 72, 85
1, 179110, Note_on_c, 0, 86, 88
1, 179115, Note_on_c, 0, 81, 92
1, 179117, Note_on_c, 0, 90, 92
1, 179121, Note_on_c, 0, 83, 88
1, 179123, Control_c, 0, 64, 50
1, 179125, Note_on_c, 0, 79, 62
1, 179137, Control_c, 0, 64, 92
1, 179140, Note_off_c, 0, 79, 68
1, 179149, Note_off_c, 0, 75, 66
1, 179152, Control_c, 0, 64, 127
1, 179155, Note_off_c, 0, 72, 60
1, 179176, Note_off_c, 0, 83, 48
1, 179181, Note_off_c, 0, 81, 61
1, 179190, Note_off_c, 0, 92, 65
1, 179197, Note_off_c, 0, 86, 51
1, 179209, Note_off_c, 0, 90, 63
1, 179227, Control_c, 0, 64, 106
1, 179242, Control_c, 0, 64, 75
1, 179245, Note_on_c, 0, 70, 92
1, 179246, Note_on_c, 0, 65, 85
1, 179248, Note_on_c, 0, 92, 95
1, 179251, Note_on_c, 0, 75, 77
1, 179254, Note_on_c, 0, 81, 112
1, 179254, Note_on_c, 0, 86, 88
1, 179254, Note_on_c, 0, 90, 79
1, 179256, Control_c, 0, 64, 84
1, 179257, Note_on_c, 0, 72, 71
1, 179262, Note_on_c, 0, 83, 95
1, 179265, Note_on_c, 0, 79, 74
1, 179266, Note_off_c, 0, 75, 68
1, 179268, Note_off_c, 0, 70, 70
1, 179271, Control_c, 0, 64, 127
1, 179277, Note_off_c, 0, 65, 67
1, 179277, Note_off_c, 0, 72, 62
1, 179331, Note_off_c, 0, 79, 61
1, 179346, Note_off_c, 0, 83, 37
1, 179369, Note_off_c, 0, 81, 55
1, 179400, Note_off_c, 0, 86, 55
1, 179412, Note_off_c, 0, 90, 57
1, 179459, Note_off_c, 0, 92, 29
1, 179480, Control_c, 0, 64, 77
1, 179482, Note_on_c, 0, 75, 85
1, 179489, Note_on_c, 0, 92, 78
1, 179495, Control_c, 0, 64, 58
1, 179495, Note_on_c, 0, 72, 64
1, 179504, Note_on_c, 0, 83, 99
1, 179505, Note_on_c, 0, 86, 90
1, 179506, Note_on_c, 0, 81, 97
1, 179507, Note_on_c, 0, 90, 92
1, 179509, Control_c, 0, 64, 63
1, 179513, Note_on_c, 0, 65, 78
1, 179513, Note_off_c, 0, 75, 63
1, 179515, Note_on_c, 0, 70, 73
1, 179518, Note_off_c, 0, 72, 67
1, 179519, Note_on_c, 0, 93, 75
1, 179524, Control_c, 0, 64, 83
1, 179528, Note_on_c, 0, 84, 63
1, 179528, Note_off_c, 0, 70, 71
1, 179531, Note_off_c, 0, 65, 72
1, 179539, Control_c, 0, 64, 127
1, 179548, Note_off_c, 0, 84, 44
1, 179572, Note_off_c, 0, 93, 59
1, 179611, Note_off_c, 0, 92, 65
1, 179638, Note_off_c, 0, 81, 46
1, 179641, Note_off_c, 0, 83, 38
1, 179691, Note_off_c, 0, 90, 59
1, 179702, Control_c, 0, 64, 121
1, 179711, Note_off_c, 0, 86, 51
1, 179715, Note_on_c, 0, 75, 80
1, 179716, Control_c, 0, 64, 63
1, 179725, Note_on_c, 0, 72, 66
1, 179730, Note_on_c, 0, 92, 100
1, 179731, Note_on_c, 0, 86, 67
1, 179731, Control_c, 0, 64, 40
1, 179736, Note_on_c, 0, 70, 97
1, 179737, Note_on_c, 0, 81, 109
1, 179737, Note_on_c, 0, 90, 89
1, 179738, Note_off_c, 0, 75, 70
1, 179739, Note_on_c, 0, 83, 104
1, 179740, Note_on_c, 0, 65, 77
1, 179746, Control_c, 0, 64, 60
1, 179749, Note_off_c, 0, 72, 66
1, 179759, Note_off_c, 0, 70, 75
1, 179767, Note_off_c, 0, 65, 74
1, 179768, Control_c, 0, 64, 98
1, 179774, Note_on_c, 0, 64, 49
1, 179774, Note_off_c, 0, 64, 127
1, 179783, Control_c, 0, 64, 127
1, 179967, Note_off_c, 0, 90, 52
1, 179981, Note_off_c, 0, 81, 44
1, 179981, Note_off_c, 0, 86, 33
1, 180006, Note_off_c, 0, 83, 34
1, 180013, Note_off_c, 0, 92, 19
1, 180020, Control_c, 0, 64, 104
1, 180035, Control_c, 0, 64, 56
1, 180046, Note_on_c, 0, 75, 71
1, 180049, Control_c, 0, 64, 0
1, 180059, Note_on_c, 0, 92, 91
1, 180061, Note_on_c, 0, 72, 57
1, 180064, Control_c, 0, 64, 36
1, 180065, Note_on_c, 0, 70, 79
1, 180068, Note_off_c, 0, 75, 69
1, 180070, Note_on_c, 0, 86, 84
1, 180070, Note_on_c, 0, 65, 88
1, 180073, Note_on_c, 0, 83, 103
1, 180073, Note_on_c, 0, 90, 87
1, 180075, Note_on_c, 0, 81, 103
1, 180080, Control_c, 0, 64, 71
1, 180083, Note_off_c, 0, 72, 62
1, 180086, Note_off_c, 0, 70, 72
1, 180088, Note_off_c, 0, 65, 74
1, 180095, Control_c, 0, 64, 127
1, 180106, Note_on_c, 0, 93, 54
1, 180118, Note_on_c, 0, 84, 29
1, 180118, Note_off_c, 0, 84, 127
1, 180134, Note_off_c, 0, 93, 52
1, 180184, Note_off_c, 0, 92, 61
1, 180272, Note_off_c, 0, 86, 47
1, 180345, Note_off_c, 0, 81, 49
1, 180350, Note_off_c, 0, 83, 50
1, 180360, Note_off_c, 0, 90, 37
1, 180376, Control_c, 0, 64, 71
1, 180383, Note_on_c, 0, 75, 73
1, 180391, Control_c, 0, 64, 51
1, 180392, Note_on_c, 0, 72, 59
1, 180398, Note_on_c, 0, 92, 95
1, 180401, Note_on_c, 0, 70, 67
1, 180403, Note_on_c, 0, 90, 87
1, 180404, Note_on_c, 0, 81, 96
1, 180404, Note_on_c, 0, 86, 86
1, 180405, Note_on_c, 0, 83, 96
1, 180406, Control_c, 0, 64, 63
1, 180408, Note_off_c, 0, 75, 71
1, 180410, Note_on_c, 0, 64, 77
1, 180410, Note_on_c, 0, 65, 70
1, 180415, Note_off_c, 0, 72, 64
1, 180420, Note_off_c, 0, 70, 42
1, 180421, Control_c, 0, 64, 127
1, 180425, Note_off_c, 0, 64, 70
1, 180426, Note_on_c, 0, 69, 49
1, 180431, Note_off_c, 0, 65, 63
1, 180452, Note_off_c, 0, 69, 62
1, 180519, Note_off_c, 0, 92, 61
1, 180679, Note_off_c, 0, 86, 35
1, 180694, Note_off_c, 0, 81, 34
1, 180711, Note_off_c, 0, 83, 26
1, 180714, Note_off_c, 0, 90, 30
1, 180725, Control_c, 0, 64, 69
1, 180739, Control_c, 0, 64, 0
1, 180743, Note_on_c, 0, 75, 72
1, 180759, Note_on_c, 0, 86, 77
1, 180759, Note_on_c, 0, 92, 104
1, 180760, Note_on_c, 0, 72, 54
1, 180761, Note_on_c, 0, 65, 83
1, 180761, Note_on_c, 0, 90, 87
1, 180764, Note_on_c, 0, 83, 100
1, 180765, Note_on_c, 0, 81, 99
1, 180768, Note_off_c, 0, 75, 67
1, 180769, Control_c, 0, 64, 68
1, 180779, Note_off_c, 0, 65, 72
1, 180782, Note_off_c, 0, 72, 58
1, 180783, Control_c, 0, 64, 127
1, 180784, Note_on_c, 0, 71, 42
1, 180815, Note_off_c, 0, 71, 54
1, 180869, Note_off_c, 0, 92, 61
1, 180956, Note_off_c, 0, 86, 52
1, 181078, Note_off_c, 0, 81, 46
1, 181096, Control_c, 0, 64, 76
1, 181100, Note_off_c, 0, 90, 30
1, 181104, Note_off_c, 0, 83, 39
1, 181111, Control_c, 0, 64, 29
1, 181117, Note_on_c, 0, 75, 74
1, 181125, Control_c, 0, 64, 0
1, 181129, Note_on_c, 0, 92, 93
1, 181135, Note_on_c, 0, 90, 86
1, 181136, Note_on_c, 0, 72, 57
1, 181137, Note_on_c, 0, 86, 97
1, 181138, Note_off_c, 0, 75, 71
1, 181139, Note_on_c, 0, 81, 97
1, 181139, Note_on_c, 0, 83, 97
1, 181140, Control_c, 0, 64, 56
1, 181140, Note_on_c, 0, 65, 74
1, 181154, Note_on_c, 0, 67, 49
1, 181155, Control_c, 0, 64, 127
1, 181157, Note_off_c, 0, 72, 60
1, 181163, Note_off_c, 0, 65, 69
1, 181178, Note_off_c, 0, 67, 59
1, 181233, Note_off_c, 0, 92, 65
1, 181453, Note_off_c, 0, 86, 56
1, 181552, Note_off_c, 0, 83, 32
1, 181565, Note_off_c, 0, 81, 47
1, 181633, Note_off_c, 0, 90, 62
1, 181650, Control_c, 0, 64, 81
1, 181665, Control_c, 0, 64, 34
1, 181681, Control_c, 0, 64, 0
1, 181682, Note_on_c, 0, 87, 95
1, 181683, Note_on_c, 0, 85, 100
1, 181685, Note_on_c, 0, 92, 98
1, 181687, Note_on_c, 0, 79, 95
1, 181687, Note_on_c, 0, 81, 94
1, 181694, Note_on_c, 0, 71, 101
1, 181701, Note_on_c, 0, 61, 94
1, 181708, Note_on_c, 0, 63, 78
1, 181708, Note_off_c, 0, 63, 127
1, 181716, Note_on_c, 0, 69, 55
1, 181716, Note_off_c, 0, 69, 127
1, 181725, Control_c, 0, 64, 71
1, 181740, Control_c, 0, 64, 127
1, 181773, Poly_aftertouch_c, 0, 90, 127
1, 181829, Poly_aftertouch_c, 0, 90, 0
1, 181855, Note_off_c, 0, 92, 51
1, 181880, Note_off_c, 0, 85, 59
1, 181922, Note_off_c, 0, 81, 50
1, 181936, Note_off_c, 0, 79, 61
1, 181945, Note_off_c, 0, 61, 58
1, 181989, Note_off_c, 0, 71, 58
1, 182042, Note_off_c, 0, 87, 61
1, 182059, Control_c, 0, 64, 80
1, 182067, Note_on_c, 0, 84, 97
1, 182069, Note_on_c, 0, 90, 103
1, 182070, Note_on_c, 0, 77, 106
1, 182070, Note_on_c, 0, 74, 111
1, 182072, Note_on_c, 0, 79, 93
1, 182073, Control_c, 0, 64, 40
1, 182074, Note_on_c, 0, 63, 96
1, 182088, Control_c, 0, 64, 0
1, 182096, Note_on_c, 0, 66, 60
1, 182115, Note_off_c, 0, 66, 62
1, 182119, Note_on_c, 0, 65, 30
1, 182154, Note_off_c, 0, 65, 38
1, 182207, Control_c, 0, 64, 80
1, 182222, Control_c, 0, 64, 127
1, 182320, Note_off_c, 0, 90, 33
1, 182348, Note_off_c, 0, 84, 56
1, 182479, Note_off_c, 0, 79, 26
1, 182493, Note_off_c, 0, 63, 61
1, 182538, Note_off_c, 0, 77, 59
1, 182548, Note_off_c, 0, 74, 40
1, 182712, Note_on_c, 0, 83, 86
1, 182716, Note_on_c, 0, 68, 77
1, 182716, Note_on_c, 0, 75, 93
1, 182717, Note_on_c, 0, 70, 81
1, 182717, Note_on_c, 0, 88, 82
1, 182720, Note_on_c, 0, 65, 67
1, 182735, Note_off_c, 0, 75, 69
1, 182735, Note_off_c, 0, 70, 72
1, 182735, Note_off_c, 0, 88, 73
1, 182741, Note_off_c, 0, 68, 66
1, 182744, Note_off_c, 0, 65, 67
1, 182756, Note_off_c, 0, 83, 66
1, 182763, Control_c, 0, 64, 81
1, 182777, Note_on_c, 0, 68, 79
1, 182777, Control_c, 0, 64, 39
1, 182778, Note_on_c, 0, 65, 81
1, 182778, Note_on_c, 0, 81, 28
1, 182782, Note_on_c, 0, 73, 100
1, 182783, Note_on_c, 0, 70, 91
1, 182784, Note_on_c, 0, 75, 107
1, 182784, Note_on_c, 0, 86, 99
1, 182792, Control_c, 0, 64, 0
1, 182828, Note_on_c, 0, 85, 37
1, 182851, Control_c, 0, 64, 65
1, 182858, Note_off_c, 0, 85, 44
1, 182866, Control_c, 0, 64, 127
1, 183042, Note_off_c, 0, 86, 57
1, 183183, Note_off_c, 0, 73, 57
1, 183189, Note_off_c, 0, 65, 28
1, 183189, Note_off_c, 0, 70, 36
1, 183212, Note_off_c, 0, 68, 30
1, 183254, Note_off_c, 0, 75, 41
1, 183322, Note_off_c, 0, 81, 43
1, 183378, Note_on_c, 0, 75, 99
1, 183382, Note_on_c, 0, 88, 80
1, 183382, Note_on_c, 0, 70, 82
1, 183383, Note_on_c, 0, 72, 79
1, 183384, Note_on_c, 0, 65, 71
1, 183386, Note_on_c, 0, 68, 75
1, 183387, Note_on_c, 0, 83, 71
1, 183398, Note_off_c, 0, 72, 70
1, 183400, Note_off_c, 0, 88, 72
1, 183402, Note_off_c, 0, 70, 72
1, 183407, Note_off_c, 0, 65, 64
1, 183408, Note_off_c, 0, 83, 70
1, 183409, Note_off_c, 0, 68, 69
1, 183411, Note_off_c, 0, 75, 63
1, 183413, Note_on_c, 0, 81, 48
1, 183415, Control_c, 0, 64, 89
1, 183430, Control_c, 0, 64, 37
1, 183439, Note_on_c, 0, 86, 80
1, 183440, Note_on_c, 0, 75, 101
1, 183441, Note_on_c, 0, 65, 99
1, 183442, Note_on_c, 0, 68, 93
1, 183445, Control_c, 0, 64, 0
1, 183446, Note_on_c, 0, 73, 100
1, 183457, Note_on_c, 0, 70, 74
1, 183467, Note_on_c, 0, 69, 71
1, 183477, Note_off_c, 0, 73, 0
1, 183482, Note_on_c, 0, 72, 38
1, 183489, Control_c, 0, 64, 40
1, 183501, Poly_aftertouch_c, 0, 85, 0
1, 183511, Control_c, 0, 64, 71
1, 183522, Poly_aftertouch_c, 0, 73, 127
1, 183525, Control_c, 0, 64, 127
1, 183531, Note_off_c, 0, 72, 0
1, 183531, Note_on_c, 0, 72, 12
1, 183559, Note_off_c, 0, 69, 29
1, 183567, Poly_aftertouch_c, 0, 73, 0
1, 183597, Note_off_c, 0, 72, 37
1, 183790, Note_off_c, 0, 65, 34
1, 183838, Note_off_c, 0, 70, 42
1, 183860, Note_off_c, 0, 75, 59
1, 183883, Note_off_c, 0, 68, 48
1, 183916, Note_off_c, 0, 86, 54
1, 184164, Control_c, 0, 64, 63
1, 184175, Note_off_c, 0, 81, 47
1, 184179, Control_c, 0, 64, 0
1, 184194, Note_on_c, 0, 88, 95
1, 184195, Note_on_c, 0, 61, 86
1, 184195, Note_on_c, 0, 71, 98
1, 184196, Note_on_c, 0, 68, 92
1, 184196, Note_on_c, 0, 79, 96
1, 184196, Note_on_c, 0, 84, 100
1, 184199, Note_on_c, 0, 63, 84
1, 184205, Note_on_c, 0, 66, 86
1, 184223, Control_c, 0, 64, 34
1, 184238, Control_c, 0, 64, 106
1, 184261, Control_c, 0, 64, 127
1, 184513, Note_off_c, 0, 63, 38
1, 184580, Note_off_c, 0, 68, 55
1, 184814, Note_off_c, 0, 71, 54
1, 184838, Note_off_c, 0, 66, 46
1, 184844, Note_off_c, 0, 61, 48
1, 184876, Note_off_c, 0, 79, 60
1, 184878, Note_off_c, 0, 88, 52
1, 184884, Control_c, 0, 64, 102
1, 184893, Note_off_c, 0, 84, 56
1, 184899, Control_c, 0, 64, 58
1, 184914, Control_c, 0, 64, 0
1, 184925, Note_on_c, 0, 61, 81
1, 184926, Note_on_c, 0, 66, 86
1, 184928, Note_on_c, 0, 82, 99
1, 184929, Note_on_c, 0, 64, 97
1, 184929, Note_on_c, 0, 77, 102
1, 184929, Note_on_c, 0, 86, 93
1, 184929, Note_on_c, 0, 71, 100
1, 184931, Note_on_c, 0, 69, 92
1, 184943, Control_c, 0, 64, 62
1, 184946, Note_on_c, 0, 85, 65
1, 184946, Note_off_c, 0, 85, 127
1, 184953, Note_on_c, 0, 68, 58
1, 184953, Note_off_c, 0, 68, 127
1, 184958, Control_c, 0, 64, 127
1, 184966, Note_on_c, 0, 60, 47
1, 184971, Note_off_c, 0, 71, 66
1, 184992, Note_off_c, 0, 69, 68
1, 185001, Note_off_c, 0, 60, 57
1, 185004, Note_off_c, 0, 61, 64
1, 185007, Note_off_c, 0, 64, 69
1, 185019, Note_off_c, 0, 66, 67
1, 185302, Note_off_c, 0, 77, 49
1, 185368, Note_off_c, 0, 82, 55
1, 185481, Note_off_c, 0, 86, 52
1, 185936, Control_c, 0, 64, 97
1, 185947, Note_on_c, 0, 57, 88
1, 185949, Note_on_c, 0, 64, 93
1, 185950, Note_on_c, 0, 59, 87
1, 185951, Control_c, 0, 64, 58
1, 185952, Note_on_c, 0, 62, 93
1, 185953, Note_on_c, 0, 67, 95
1, 185958, Note_on_c, 0, 75, 109
1, 185961, Note_on_c, 0, 88, 99
1, 185964, Note_on_c, 0, 80, 85
1, 185966, Note_off_c, 0, 67, 78
1, 185966, Control_c, 0, 64, 0
1, 185975, Note_on_c, 0, 79, 70
1, 185981, Control_c, 0, 64, 37
1, 185990, Note_on_c, 0, 85, 40
1, 185990, Note_off_c, 0, 85, 127
1, 185995, Control_c, 0, 64, 72
1, 186010, Control_c, 0, 64, 127
1, 186019, Note_on_c, 0, 86, 8
1, 186029, Note_off_c, 0, 80, 0
1, 186029, Note_on_c, 0, 80, 12
1, 186071, Poly_aftertouch_c, 0, 74, 0
1, 186074, Poly_aftertouch_c, 0, 76, 0
1, 186074, Note_off_c, 0, 86, 53
1, 186184, Note_off_c, 0, 64, 51
1, 186187, Note_off_c, 0, 59, 57
1, 186196, Note_off_c, 0, 57, 53
1, 186196, Note_off_c, 0, 62, 50
1, 186238, Note_off_c, 0, 79, 33
1, 186254, Note_off_c, 0, 75, 58
1, 186392, Note_off_c, 0, 80, 2
1, 186923, Note_off_c, 0, 88, 42
1, 187266, Note_on_c, 0, 57, 85
1, 187266, Note_on_c, 0, 65, 99
1, 187272, Note_on_c, 0, 67, 103
1, 187273, Note_on_c, 0, 62, 88
1, 187274, Note_on_c, 0, 60, 80
1, 187275, Note_on_c, 0, 73, 112
1, 187278, Note_on_c, 0, 78, 95
1, 187278, Note_on_c, 0, 86, 97
1, 187286, Control_c, 0, 64, 76
1, 187298, Note_on_c, 0, 77, 67
1, 187301, Control_c, 0, 64, 54
1, 187307, Note_on_c, 0, 74, 52
1, 187307, Note_off_c, 0, 74, 127
1, 187308, Note_on_c, 0, 76, 46
1, 187308, Note_off_c, 0, 76, 127
1, 187316, Control_c, 0, 64, 34
1, 187317, Note_on_c, 0, 82, 29
1, 187317, Note_off_c, 0, 82, 127
1, 187330, Control_c, 0, 64, 27
1, 187332, Note_off_c, 0, 77, 0
1, 187332, Note_on_c, 0, 77, 39
1, 187345, Control_c, 0, 64, 42
1, 187360, Control_c, 0, 64, 61
1, 187370, Note_off_c, 0, 77, 58
1, 187374, Control_c, 0, 64, 83
1, 187389, Control_c, 0, 64, 127
1, 187600, Note_off_c, 0, 67, 55
1, 187707, Note_off_c, 0, 73, 54
1, 188613, Note_off_c, 0, 65, 54
1, 188615, Note_off_c, 0, 86, 61
1, 188625, Note_off_c, 0, 57, 57
1, 188631, Note_on_c, 0, 77, 35
1, 188634, Note_off_c, 0, 78, 51
1, 188635, Note_off_c, 0, 62, 57
1, 188649, Note_off_c, 0, 60, 60
1, 188663, Note_off_c, 0, 77, 49
1, 188787, Note_on_c, 0, 53, 80
1, 188827, Note_on_c, 0, 58, 74
1, 188866, Note_on_c, 0, 60, 75
1, 188889, Note_on_c, 0, 63, 82
1, 188894, Note_off_c, 0, 53, 62
1, 188894, Note_on_c, 0, 69, 72
1, 188902, Control_c, 0, 64, 81
1, 188903, Note_on_c, 0, 71, 83
1, 188904, Note_on_c, 0, 74, 89
1, 188914, Note_on_c, 0, 67, 100
1, 188917, Control_c, 0, 64, 47
1, 188920, Note_on_c, 0, 78, 95
1, 188924, Note_on_c, 0, 62, 75
1, 188932, Control_c, 0, 64, 0
1, 188936, Note_on_c, 0, 80, 93
1, 188936, Note_off_c, 0, 58, 64
1, 188941, Note_off_c, 0, 67, 69
1, 188943, Note_off_c, 0, 63, 66
1, 188946, Control_c, 0, 64, 48
1, 188947, Note_off_c, 0, 60, 64
1, 188950, Note_off_c, 0, 62, 69
1, 188961, Control_c, 0, 64, 63
1, 188976, Control_c, 0, 64, 73
1, 188991, Control_c, 0, 64, 96
1, 189006, Control_c, 0, 64, 127
1, 189320, Note_on_c, 0, 29, 79
1, 189347, Note_off_c, 0, 29, 65
1, 189520, Note_on_c, 0, 28, 38
1, 189562, Note_off_c, 0, 28, 46
1, 189625, Note_on_c, 0, 29, 62
1, 189659, Note_off_c, 0, 29, 53
1, 189741, Note_on_c, 0, 29, 72
1, 189769, Note_off_c, 0, 29, 65
1, 189784, Control_c, 0, 64, 100
1, 189799, Control_c, 0, 64, 95
1, 189862, Note_on_c, 0, 29, 75
1, 189888, Control_c, 0, 64, 97
1, 189891, Note_off_c, 0, 29, 67
1, 189991, Control_c, 0, 64, 99
1, 189997, Note_on_c, 0, 29, 86
1, 190021, Control_c, 0, 64, 102
1, 190028, Note_off_c, 0, 29, 63
1, 190036, Control_c, 0, 64, 104
1, 190050, Control_c, 0, 64, 109
1, 190065, Control_c, 0, 64, 127
1, 190125, Note_on_c, 0, 29, 94
1, 190154, Note_off_c, 0, 29, 68
1, 190262, Note_on_c, 0, 29, 94
1, 190283, Note_off_c, 0, 29, 67
1, 190358, Note_on_c, 0, 29, 22
1, 190386, Note_off_c, 0, 29, 0
1, 190386, Note_on_c, 0, 29, 69
1, 190414, Note_off_c, 0, 29, 59
1, 190512, Note_on_c, 0, 29, 88
1, 190539, Note_off_c, 0, 29, 68
1, 190650, Note_on_c, 0, 29, 75
1, 190675, Note_off_c, 0, 29, 66
1, 190751, Note_on_c, 0, 29, 74
1, 190779, Note_off_c, 0, 29, 62
1, 190903, Note_off_c, 0, 71, 37
1, 190912, Note_off_c, 0, 69, 38
1, 190915, Note_off_c, 0, 74, 44
1, 190960, Note_on_c, 0, 53, 73
1, 190966, Note_on_c, 0, 58, 28
1, 190997, Note_off_c, 0, 78, 26
1, 191008, Note_off_c, 0, 80, 33
1, 191043, Note_on_c, 0, 60, 80
1, 191045, Control_c, 0, 64, 75
1, 191057, Note_off_c, 0, 53, 64
1, 191060, Control_c, 0, 64, 0
1, 191064, Note_on_c, 0, 69, 76
1, 191068, Note_on_c, 0, 71, 83
1, 191069, Note_on_c, 0, 62, 86
1, 191072, Note_on_c, 0, 74, 101
1, 191075, Note_on_c, 0, 67, 103
1, 191084, Note_off_c, 0, 58, 57
1, 191088, Note_on_c, 0, 78, 88
1, 191089, Note_on_c, 0, 63, 57
1, 191092, Note_off_c, 0, 67, 61
1, 191094, Note_on_c, 0, 80, 105
1, 191099, Note_off_c, 0, 62, 67
1, 191099, Note_off_c, 0, 60, 66
1, 191104, Control_c, 0, 64, 65
1, 191111, Note_off_c, 0, 63, 38
1, 191118, Control_c, 0, 64, 127
1, 191496, Note_on_c, 0, 29, 8
1, 191541, Note_off_c, 0, 29, 52
1, 191593, Note_on_c, 0, 29, 51
1, 191617, Note_off_c, 0, 29, 60
1, 191711, Note_on_c, 0, 29, 66
1, 191746, Note_off_c, 0, 29, 62
1, 191841, Note_on_c, 0, 29, 79
1, 191872, Note_off_c, 0, 29, 64
1, 191960, Note_on_c, 0, 29, 80
1, 191995, Note_off_c, 0, 29, 65
1, 192086, Note_on_c, 0, 29, 88
1, 192116, Note_off_c, 0, 29, 64
1, 192206, Note_on_c, 0, 29, 88
1, 192240, Note_off_c, 0, 29, 64
1, 192331, Note_on_c, 0, 29, 88
1, 192352, Note_off_c, 0, 29, 72
1, 192454, Note_on_c, 0, 29, 91
1, 192476, Note_off_c, 0, 29, 72
1, 192585, Note_on_c, 0, 29, 82
1, 192611, Note_off_c, 0, 29, 62
1, 192697, Note_on_c, 0, 29, 79
1, 192727, Note_off_c, 0, 29, 66
1, 192815, Note_on_c, 0, 29, 85
1, 192849, Note_off_c, 0, 29, 64
1, 192931, Note_on_c, 0, 29, 79
1, 192950, Note_off_c, 0, 29, 73
1, 193035, Note_off_c, 0, 71, 46
1, 193049, Note_off_c, 0, 78, 47
1, 193058, Note_off_c, 0, 74, 50
1, 193063, Note_off_c, 0, 69, 38
1, 193070, Note_off_c, 0, 80, 39
1, 193142, Note_on_c, 0, 53, 69
1, 193156, Note_on_c, 0, 58, 70
1, 193209, Control_c, 0, 64, 73
1, 193210, Note_on_c, 0, 60, 74
1, 193224, Note_on_c, 0, 63, 84
1, 193224, Control_c, 0, 64, 0
1, 193227, Note_off_c, 0, 53, 64
1, 193241, Note_on_c, 0, 69, 79
1, 193244, Note_on_c, 0, 71, 77
1, 193246, Note_on_c, 0, 74, 87
1, 193249, Note_off_c, 0, 58, 65
1, 193252, Note_on_c, 0, 67, 105
1, 193261, Note_on_c, 0, 62, 74
1, 193264, Note_on_c, 0, 78, 88
1, 193270, Note_on_c, 0, 80, 98
1, 193274, Note_off_c, 0, 67, 70
1, 193276, Control_c, 0, 64, 58
1, 193276, Note_off_c, 0, 60, 66
1, 193277, Note_off_c, 0, 62, 69
1, 193279, Note_off_c, 0, 63, 66
1, 193291, Control_c, 0, 64, 127
1, 193336, Poly_aftertouch_c, 0, 59, 127
1, 193371, Poly_aftertouch_c, 0, 59, 0
1, 193687, Poly_aftertouch_c, 0, 29, 127
1, 193727, Note_on_c, 0, 29, 12
1, 193766, Note_off_c, 0, 29, 63
1, 193847, Note_on_c, 0, 29, 78
1, 193880, Note_off_c, 0, 29, 61
1, 193970, Note_on_c, 0, 29, 72
1, 194006, Note_off_c, 0, 29, 64
1, 194097, Note_on_c, 0, 29, 71
1, 194134, Note_off_c, 0, 29, 63
1, 194218, Note_on_c, 0, 29, 81
1, 194247, Note_off_c, 0, 29, 64
1, 194337, Note_on_c, 0, 29, 76
1, 194373, Note_off_c, 0, 29, 62
1, 194458, Note_on_c, 0, 29, 82
1, 194494, Note_off_c, 0, 29, 66
1, 194575, Note_on_c, 0, 29, 83
1, 194621, Note_off_c, 0, 29, 60
1, 194696, Note_on_c, 0, 29, 72
1, 194733, Note_off_c, 0, 29, 63
1, 194818, Note_off_c, 0, 69, 50
1, 194821, Note_off_c, 0, 71, 44
1, 194829, Note_off_c, 0, 74, 48
1, 194857, Note_on_c, 0, 53, 67
1, 194861, Note_on_c, 0, 58, 73
1, 194896, Note_off_c, 0, 78, 34
1, 194896, Note_off_c, 0, 80, 54
1, 194915, Note_on_c, 0, 60, 71
1, 194921, Control_c, 0, 64, 70
1, 194923, Note_on_c, 0, 63, 92
1, 194923, Note_off_c, 0, 53, 63
1, 194936, Control_c, 0, 64, 0
1, 194941, Note_on_c, 0, 67, 103
1, 194941, Note_on_c, 0, 69, 85
1, 194943, Note_on_c, 0, 71, 83
1, 194948, Note_on_c, 0, 74, 89
1, 194950, Note_off_c, 0, 58, 60
1, 194954, Note_on_c, 0, 62, 63
1, 194961, Note_off_c, 0, 67, 71
1, 194965, Control_c, 0, 64, 49
1, 194966, Note_off_c, 0, 60, 64
1, 194969, Note_on_c, 0, 80, 94
1, 194969, Note_on_c, 0, 78, 86
1, 194969, Note_off_c, 0, 63, 64
1, 194975, Note_off_c, 0, 62, 63
1, 194980, Control_c, 0, 64, 85
1, 194995, Control_c, 0, 64, 127
1, 195314, Note_on_c, 0, 31, 30
1, 195319, Note_on_c, 0, 29, 24
1, 195350, Note_off_c, 0, 29, 55
1, 195359, Note_off_c, 0, 31, 51
1, 195422, Note_on_c, 0, 29, 66
1, 195453, Note_off_c, 0, 29, 61
1, 195526, Note_on_c, 0, 29, 82
1, 195574, Note_off_c, 0, 29, 60
1, 195657, Note_on_c, 0, 29, 81
1, 195678, Note_off_c, 0, 29, 70
1, 195775, Note_on_c, 0, 29, 79
1, 195809, Note_off_c, 0, 29, 66
1, 195907, Note_on_c, 0, 29, 78
1, 195929, Note_off_c, 0, 29, 70
1, 196020, Note_on_c, 0, 29, 73
1, 196058, Note_off_c, 0, 29, 63
1, 196151, Note_on_c, 0, 29, 76
1, 196175, Note_off_c, 0, 29, 67
1, 196269, Note_on_c, 0, 29, 57
1, 196307, Note_off_c, 0, 29, 63
1, 196404, Note_on_c, 0, 29, 86
1, 196440, Note_off_c, 0, 29, 63
1, 196530, Note_on_c, 0, 29, 78
1, 196569, Note_off_c, 0, 29, 58
1, 196647, Note_on_c, 0, 29, 83
1, 196685, Note_off_c, 0, 29, 62
1, 196770, Note_on_c, 0, 29, 56
1, 196793, Note_off_c, 0, 29, 64
1, 196893, Note_off_c, 0, 74, 50
1, 196897, Note_off_c, 0, 69, 39
1, 196900, Note_off_c, 0, 71, 37
1, 196957, Poly_aftertouch_c, 0, 63, 127
1, 196960, Note_on_c, 0, 53, 74
1, 196963, Note_on_c, 0, 58, 78
1, 196991, Poly_aftertouch_c, 0, 63, 0
1, 197005, Note_on_c, 0, 59, 76
1, 197008, Note_off_c, 0, 80, 59
1, 197016, Note_off_c, 0, 78, 37
1, 197020, Control_c, 0, 64, 72
1, 197034, Control_c, 0, 64, 0
1, 197038, Note_on_c, 0, 60, 77
1, 197051, Note_off_c, 0, 53, 65
1, 197053, Note_on_c, 0, 69, 80
1, 197055, Note_on_c, 0, 63, 86
1, 197055, Note_off_c, 0, 63, 127
1, 197055, Note_off_c, 0, 58, 64
1, 197058, Note_on_c, 0, 71, 77
1, 197063, Note_on_c, 0, 74, 88
1, 197067, Note_on_c, 0, 67, 99
1, 197068, Note_on_c, 0, 62, 85
1, 197076, Note_off_c, 0, 59, 54
1, 197079, Control_c, 0, 64, 60
1, 197079, Note_on_c, 0, 65, 59
1, 197082, Note_on_c, 0, 78, 90
1, 197082, Note_off_c, 0, 67, 75
1, 197084, Note_on_c, 0, 80, 95
1, 197086, Note_off_c, 0, 60, 65
1, 197088, Note_off_c, 0, 62, 70
1, 197093, Control_c, 0, 64, 127
1, 197098, Note_off_c, 0, 65, 64
1, 197111, Note_on_c, 0, 75, 34
1, 197143, Note_off_c, 0, 75, 50
1, 197406, Note_on_c, 0, 29, 82
1, 197443, Note_off_c, 0, 29, 63
1, 197537, Note_on_c, 0, 29, 61
1, 197564, Note_off_c, 0, 29, 68
1, 197585, Note_on_c, 0, 28, 7
1, 197609, Note_off_c, 0, 28, 0
1, 197640, Poly_aftertouch_c, 0, 28, 0
1, 197662, Note_on_c, 0, 29, 68
1, 197692, Note_off_c, 0, 29, 64
1, 197778, Note_on_c, 0, 29, 69
1, 197814, Note_off_c, 0, 29, 64
1, 197909, Note_on_c, 0, 29, 67
1, 197938, Note_off_c, 0, 29, 65
1, 198023, Note_on_c, 0, 29, 67
1, 198059, Note_off_c, 0, 29, 58
1, 198157, Note_on_c, 0, 29, 68
1, 198186, Note_off_c, 0, 29, 64
1, 198266, Note_on_c, 0, 29, 72
1, 198313, Note_off_c, 0, 29, 62
1, 198401, Note_on_c, 0, 29, 61
1, 198436, Note_off_c, 0, 29, 63
1, 198522, Note_on_c, 0, 29, 60
1, 198549, Note_off_c, 0, 29, 69
1, 198678, Note_on_c, 0, 29, 22
1, 198713, Note_off_c, 0, 29, 52
1, 198782, Poly_aftertouch_c, 0, 31, 127
1, 198824, Poly_aftertouch_c, 0, 31, 0
1, 198861, Note_off_c, 0, 74, 55
1, 198885, Note_off_c, 0, 69, 37
1, 198893, Note_off_c, 0, 71, 37
1, 198923, Note_on_c, 0, 53, 79
1, 198933, Note_on_c, 0, 58, 84
1, 198936, Note_off_c, 0, 78, 31
1, 198936, Note_off_c, 0, 80, 40
1, 198987, Note_on_c, 0, 60, 76
1, 198991, Control_c, 0, 64, 93
1, 198993, Note_on_c, 0, 63, 96
1, 198999, Note_on_c, 0, 69, 69
1, 199001, Note_off_c, 0, 53, 63
1, 199005, Note_on_c, 0, 71, 73
1, 199005, Control_c, 0, 64, 57
1, 199014, Note_on_c, 0, 74, 81
1, 199014, Note_off_c, 0, 58, 64
1, 199015, Note_on_c, 0, 67, 100
1, 199020, Control_c, 0, 64, 28
1, 199026, Note_on_c, 0, 78, 87
1, 199033, Note_on_c, 0, 80, 100
1, 199035, Control_c, 0, 64, 52
1, 199038, Note_off_c, 0, 63, 68
1, 199038, Note_off_c, 0, 67, 69
1, 199040, Note_off_c, 0, 60, 66
1, 199050, Control_c, 0, 64, 72
1, 199065, Control_c, 0, 64, 127
1, 199384, Control_c, 0, 67, 44
1, 199386, Note_on_c, 0, 29, 67
1, 199399, Control_c, 0, 67, 72
1, 199414, Control_c, 0, 67, 100
1, 199424, Note_off_c, 0, 29, 60
1, 199428, Control_c, 0, 67, 127
1, 199503, Note_on_c, 0, 29, 66
1, 199551, Note_off_c, 0, 29, 60
1, 199657, Note_on_c, 0, 29, 53
1, 199688, Note_off_c, 0, 29, 62
1, 199771, Note_on_c, 0, 29, 62
1, 199812, Note_off_c, 0, 29, 60
1, 199929, Note_on_c, 0, 29, 33
1, 199964, Note_off_c, 0, 29, 55
1, 200057, Note_on_c, 0, 29, 42
1, 200090, Note_off_c, 0, 29, 52
1, 200179, Note_on_c, 0, 29, 57
1, 200216, Note_off_c, 0, 29, 61
1, 200310, Note_on_c, 0, 29, 55
1, 200346, Note_off_c, 0, 29, 62
1, 200429, Note_on_c, 0, 29, 68
1, 200471, Note_off_c, 0, 29, 61
1, 200576, Note_on_c, 0, 29, 57
1, 200609, Note_off_c, 0, 29, 64
1, 200686, Note_on_c, 0, 29, 62
1, 200746, Note_off_c, 0, 29, 59
1, 200853, Note_on_c, 0, 29, 44
1, 200883, Note_off_c, 0, 29, 54
1, 200963, Note_on_c, 0, 29, 50
1, 200998, Note_off_c, 0, 29, 53
1, 201148, Poly_aftertouch_c, 0, 29, 127
1, 201150, Note_off_c, 0, 69, 57
1, 201172, Note_off_c, 0, 71, 37
1, 201182, Poly_aftertouch_c, 0, 29, 0
1, 201199, Note_off_c, 0, 74, 58
1, 201241, Note_off_c, 0, 80, 38
1, 201319, Note_off_c, 0, 78, 51
1, 201385, Note_on_c, 0, 53, 69
1, 201445, Control_c, 0, 64, 108
1, 201455, Note_on_c, 0, 58, 65
1, 201460, Control_c, 0, 64, 88
1, 201482, Control_c, 0, 64, 78
1, 201497, Control_c, 0, 64, 71
1, 201510, Note_off_c, 0, 53, 61
1, 201512, Control_c, 0, 64, 68
1, 201523, Note_on_c, 0, 64, 58
1, 201527, Control_c, 0, 64, 67
1, 201534, Note_on_c, 0, 61, 61
1, 201542, Control_c, 0, 64, 67
1, 201557, Control_c, 0, 64, 69
1, 201571, Control_c, 0, 64, 71
1, 201580, Note_on_c, 0, 66, 73
1, 201586, Control_c, 0, 64, 74
1, 201601, Control_c, 0, 64, 79
1, 201616, Control_c, 0, 64, 86
1, 201622, Note_on_c, 0, 68, 76
1, 201630, Note_off_c, 0, 66, 60
1, 201630, Control_c, 0, 64, 98
1, 201630, Control_c, 0, 67, 123
1, 201646, Control_c, 0, 64, 127
1, 201646, Control_c, 0, 67, 72
1, 201661, Control_c, 0, 67, 0
1, 201664, Note_off_c, 0, 64, 63
1, 201676, Note_on_c, 0, 73, 72
1, 201695, Note_off_c, 0, 61, 57
1, 201696, Note_on_c, 0, 76, 79
1, 201707, Note_off_c, 0, 58, 61
1, 201715, Note_off_c, 0, 68, 62
1, 201759, Note_on_c, 0, 81, 89
1, 201765, Note_off_c, 0, 73, 63
1, 201782, Note_off_c, 0, 76, 64
1, 201809, Control_c, 0, 67, 39
1, 201823, Control_c, 0, 67, 45
1, 201838, Control_c, 0, 67, 58
1, 201853, Control_c, 0, 67, 90
1, 201867, Control_c, 0, 67, 127
1, 201956, Note_on_c, 0, 29, 68
1, 202011, Note_off_c, 0, 29, 60
1, 202103, Note_on_c, 0, 29, 58
1, 202138, Note_off_c, 0, 29, 62
1, 202233, Note_on_c, 0, 29, 56
1, 202274, Note_off_c, 0, 29, 55
1, 202378, Note_on_c, 0, 29, 32
1, 202406, Note_off_c, 0, 29, 57
1, 202496, Note_on_c, 0, 29, 44
1, 202524, Note_off_c, 0, 29, 56
1, 202600, Note_on_c, 0, 29, 63
1, 202660, Note_off_c, 0, 29, 58
1, 202757, Note_on_c, 0, 29, 52
1, 202794, Note_off_c, 0, 29, 61
1, 202883, Note_on_c, 0, 29, 59
1, 202922, Note_off_c, 0, 29, 61
1, 203023, Note_on_c, 0, 29, 52
1, 203072, Note_off_c, 0, 29, 58
1, 203186, Note_on_c, 0, 29, 45
1, 203221, Note_off_c, 0, 29, 55
1, 203330, Note_on_c, 0, 29, 37
1, 203375, Note_off_c, 0, 29, 45
1, 203450, Note_on_c, 0, 29, 38
1, 203495, Note_off_c, 0, 29, 48
1, 203572, Note_on_c, 0, 29, 46
1, 203617, Note_off_c, 0, 29, 55
1, 203711, Note_on_c, 0, 29, 42
1, 203745, Note_off_c, 0, 29, 57
1, 203907, Note_off_c, 0, 81, 37
1, 204046, Note_on_c, 0, 53, 63
1, 204108, Note_on_c, 0, 58, 61
1, 204139, Note_off_c, 0, 53, 47
1, 204174, Note_on_c, 0, 64, 52
1, 204186, Note_on_c, 0, 61, 58
1, 204237, Note_on_c, 0, 66, 72
1, 204288, Note_off_c, 0, 66, 57
1, 204295, Note_on_c, 0, 68, 64
1, 204305, Note_off_c, 0, 64, 59
1, 204332, Note_off_c, 0, 61, 56
1, 204333, Note_on_c, 0, 73, 66
1, 204347, Note_off_c, 0, 58, 47
1, 204361, Note_off_c, 0, 68, 61
1, 204371, Note_on_c, 0, 76, 74
1, 204425, Note_off_c, 0, 73, 55
1, 204439, Note_on_c, 0, 81, 81
1, 204458, Note_off_c, 0, 76, 64
1, 204654, Note_on_c, 0, 29, 54
1, 204701, Note_off_c, 0, 29, 59
1, 204804, Note_on_c, 0, 29, 50
1, 204851, Note_off_c, 0, 29, 55
1, 204945, Note_on_c, 0, 29, 44
1, 204977, Note_off_c, 0, 29, 60
1, 205077, Note_on_c, 0, 29, 45
1, 205111, Note_off_c, 0, 29, 55
1, 205207, Note_on_c, 0, 29, 37
1, 205245, Note_off_c, 0, 29, 55
1, 205332, Note_on_c, 0, 29, 57
1, 205370, Note_off_c, 0, 29, 60
1, 205465, Note_on_c, 0, 29, 55
1, 205506, Note_off_c, 0, 29, 57
1, 205626, Note_on_c, 0, 29, 44
1, 205664, Note_off_c, 0, 29, 55
1, 205773, Note_on_c, 0, 29, 37
1, 205811, Note_off_c, 0, 29, 49
1, 205907, Note_on_c, 0, 29, 39
1, 205945, Note_off_c, 0, 29, 50
1, 206052, Note_on_c, 0, 29, 43
1, 206094, Note_off_c, 0, 29, 49
1, 206214, Note_on_c, 0, 29, 17
1, 206245, Note_off_c, 0, 29, 58
1, 206344, Note_on_c, 0, 29, 30
1, 206380, Note_off_c, 0, 29, 54
1, 206534, Poly_aftertouch_c, 0, 29, 127
1, 206573, Poly_aftertouch_c, 0, 29, 0
1, 206897, Note_off_c, 0, 81, 52
1, 206976, Control_c, 0, 64, 114
1, 206990, Control_c, 0, 64, 98
1, 206994, Note_on_c, 0, 53, 56
1, 207005, Control_c, 0, 64, 87
1, 207020, Control_c, 0, 64, 82
1, 207035, Control_c, 0, 64, 78
1, 207050, Control_c, 0, 64, 77
1, 207064, Control_c, 0, 64, 76
1, 207080, Note_on_c, 0, 58, 56
1, 207094, Control_c, 0, 64, 77
1, 207109, Control_c, 0, 64, 78
1, 207123, Note_off_c, 0, 53, 56
1, 207124, Control_c, 0, 64, 79
1, 207137, Note_on_c, 0, 60, 60
1, 207138, Control_c, 0, 64, 80
1, 207153, Control_c, 0, 64, 82
1, 207168, Control_c, 0, 64, 83
1, 207182, Control_c, 0, 64, 84
1, 207185, Note_on_c, 0, 64, 56
1, 207189, Note_off_c, 0, 58, 47
1, 207212, Control_c, 0, 64, 84
1, 207224, Note_off_c, 0, 60, 56
1, 207227, Control_c, 0, 64, 85
1, 207241, Note_on_c, 0, 67, 55
1, 207243, Control_c, 0, 64, 85
1, 207244, Note_off_c, 0, 64, 57
1, 207265, Note_off_c, 0, 67, 63
1, 207287, Control_c, 0, 64, 86
1, 207294, Note_on_c, 0, 72, 53
1, 207332, Control_c, 0, 64, 85
1, 207352, Note_off_c, 0, 72, 58
1, 207364, Note_on_c, 0, 79, 59
1, 207450, Control_c, 0, 64, 88
1, 207457, Note_on_c, 0, 86, 73
1, 207470, Note_off_c, 0, 79, 60
1, 207473, Control_c, 0, 64, 92
1, 207488, Control_c, 0, 64, 99
1, 207502, Control_c, 0, 64, 105
1, 207517, Control_c, 0, 64, 116
1, 207532, Control_c, 0, 64, 127
1, 207784, Note_on_c, 0, 29, 54
1, 207838, Note_off_c, 0, 29, 56
1, 207975, Note_on_c, 0, 29, 29
1, 208026, Note_off_c, 0, 29, 46
1, 208087, Note_on_c, 0, 29, 36
1, 208125, Note_off_c, 0, 29, 59
1, 208237, Note_on_c, 0, 29, 51
1, 208286, Note_off_c, 0, 29, 57
1, 208411, Note_on_c, 0, 29, 24
1, 208454, Note_off_c, 0, 29, 53
1, 208529, Note_on_c, 0, 29, 37
1, 208568, Note_off_c, 0, 29, 55
1, 208679, Note_on_c, 0, 29, 43
1, 208712, Note_off_c, 0, 29, 56
1, 208823, Note_on_c, 0, 29, 44
1, 208866, Note_off_c, 0, 29, 52
1, 208991, Note_on_c, 0, 29, 31
1, 209036, Note_off_c, 0, 29, 49
1, 209137, Note_on_c, 0, 29, 31
1, 209183, Note_off_c, 0, 29, 49
1, 209276, Note_on_c, 0, 29, 33
1, 209320, Note_off_c, 0, 29, 49
1, 209423, Note_on_c, 0, 29, 31
1, 209460, Note_off_c, 0, 29, 52
1, 209571, Note_on_c, 0, 29, 34
1, 209620, Note_off_c, 0, 29, 51
1, 209714, Note_on_c, 0, 29, 29
1, 209763, Note_off_c, 0, 29, 52
1, 209852, Note_on_c, 0, 29, 34
1, 209899, Note_off_c, 0, 29, 49
1, 210013, Note_on_c, 0, 29, 42
1, 210056, Note_off_c, 0, 29, 50
1, 210264, Note_off_c, 0, 86, 38
1, 210389, Note_on_c, 0, 53, 52
1, 210469, Note_on_c, 0, 58, 53
1, 210523, Note_off_c, 0, 53, 55
1, 210541, Note_on_c, 0, 60, 46
1, 210583, Note_on_c, 0, 64, 49
1, 210599, Note_off_c, 0, 58, 56
1, 210657, Note_on_c, 0, 67, 47
1, 210688, Note_off_c, 0, 64, 53
1, 210703, Note_off_c, 0, 67, 59
1, 210737, Note_on_c, 0, 72, 40
1, 210808, Note_on_c, 0, 79, 46
1, 210808, Note_off_c, 0, 72, 53
1, 210814, Note_off_c, 0, 60, 36
1, 210976, Note_on_c, 0, 86, 67
1, 211000, Note_off_c, 0, 79, 38
1, 211274, Note_on_c, 0, 29, 47
1, 211334, Note_off_c, 0, 29, 54
1, 211452, Note_on_c, 0, 29, 42
1, 211499, Note_off_c, 0, 29, 57
1, 211617, Note_on_c, 0, 29, 35
1, 211652, Note_off_c, 0, 29, 53
1, 211748, Note_on_c, 0, 29, 45
1, 211798, Note_off_c, 0, 29, 56
1, 211924, Note_on_c, 0, 29, 37
1, 211974, Note_off_c, 0, 29, 49
1, 212090, Note_on_c, 0, 29, 37
1, 212135, Note_off_c, 0, 29, 48
1, 212234, Note_on_c, 0, 29, 37
1, 212282, Note_off_c, 0, 29, 47
1, 212378, Note_on_c, 0, 29, 39
1, 212431, Note_off_c, 0, 29, 49
1, 212525, Note_on_c, 0, 29, 41
1, 212589, Note_off_c, 0, 29, 47
1, 212676, Note_on_c, 0, 29, 38
1, 212753, Note_off_c, 0, 29, 42
1, 212843, Note_on_c, 0, 29, 33
1, 212899, Note_off_c, 0, 29, 44
1, 212982, Note_on_c, 0, 29, 20
1, 213042, Note_off_c, 0, 29, 44
1, 213116, Note_on_c, 0, 29, 33
1, 213182, Note_off_c, 0, 29, 43
1, 213261, Note_on_c, 0, 29, 27
1, 213310, Note_off_c, 0, 29, 52
1, 213417, Note_on_c, 0, 29, 26
1, 213469, Note_off_c, 0, 29, 51
1, 213535, Note_off_c, 0, 86, 60
1, 213701, Control_c, 0, 64, 87
1, 213716, Control_c, 0, 64, 69
1, 213730, Control_c, 0, 64, 57
1, 213745, Control_c, 0, 64, 42
1, 213760, Control_c, 0, 64, 32
1, 213774, Control_c, 0, 64, 29
1, 213908, Control_c, 0, 64, 27
1, 213922, Control_c, 0, 64, 0
1, 214189, Control_c, 0, 64, 27
1, 214241, Control_c, 0, 64, 30
1, 214255, Control_c, 0, 64, 33
1, 214270, Control_c, 0, 64, 35
1, 214285, Control_c, 0, 64, 37
1, 214300, Control_c, 0, 64, 39
1, 214315, Control_c, 0, 64, 41
1, 214330, Control_c, 0, 64, 44
1, 214345, Control_c, 0, 64, 47
1, 214360, Control_c, 0, 64, 50
1, 214375, Control_c, 0, 64, 52
1, 214389, Control_c, 0, 64, 53
1, 214404, Control_c, 0, 64, 54
1, 214419, Control_c, 0, 64, 54
1, 214449, Control_c, 0, 64, 55
1, 214494, Control_c, 0, 64, 55
1, 214538, Control_c, 0, 64, 56
1, 214568, Control_c, 0, 64, 56
1, 214583, Control_c, 0, 64, 57
1, 214597, Control_c, 0, 64, 57
1, 214612, Control_c, 0, 64, 58
1, 214642, Control_c, 0, 64, 59
1, 214686, Control_c, 0, 64, 59
1, 214701, Control_c, 0, 64, 60
1, 214716, Control_c, 0, 64, 60
1, 214730, Control_c, 0, 64, 61
1, 214745, Control_c, 0, 64, 61
1, 214760, Control_c, 0, 64, 62
1, 214775, Control_c, 0, 64, 63
1, 214790, Control_c, 0, 64, 64
1, 214804, Control_c, 0, 64, 64
1, 214819, Control_c, 0, 64, 65
1, 214834, Control_c, 0, 64, 65
1, 214849, Control_c, 0, 64, 66
1, 214864, Control_c, 0, 64, 67
1, 214878, Control_c, 0, 64, 68
1, 214893, Control_c, 0, 64, 69
1, 214908, Control_c, 0, 64, 69
1, 214923, Control_c, 0, 64, 70
1, 214938, Control_c, 0, 64, 71
1, 214960, Control_c, 0, 64, 71
1, 214975, Control_c, 0, 64, 72
1, 214990, Control_c, 0, 64, 73
1, 215004, Control_c, 0, 64, 74
1, 215019, Control_c, 0, 64, 75
1, 215034, Control_c, 0, 64, 76
1, 215049, Control_c, 0, 64, 77
1, 215060, Note_on_c, 0, 90, 49
1, 215063, Note_on_c, 0, 57, 39
1, 215064, Control_c, 0, 64, 79
1, 215076, Note_on_c, 0, 78, 40
1, 215077, Note_on_c, 0, 86, 42
1, 215078, Control_c, 0, 64, 83
1, 215087, Note_on_c, 0, 81, 36
1, 215089, Note_on_c, 0, 63, 36
1, 215092, Note_on_c, 0, 66, 44
1, 215093, Note_on_c, 0, 53, 26
1, 215093, Control_c, 0, 64, 88
1, 215108, Control_c, 0, 64, 97
1, 215123, Control_c, 0, 64, 119
1, 215138, Control_c, 0, 64, 127
1, 215161, Note_off_c, 0, 63, 49
1, 215190, Note_off_c, 0, 78, 47
1, 215208, Note_off_c, 0, 66, 55
1, 215209, Note_off_c, 0, 81, 42
1, 215216, Note_off_c, 0, 90, 61
1, 215223, Note_off_c, 0, 53, 41
1, 215224, Note_off_c, 0, 57, 35
1, 215227, Note_off_c, 0, 86, 38
1, 217682, Control_c, 0, 64, 100
1, 217696, Control_c, 0, 64, 83
1, 217711, Control_c, 0, 64, 69
1, 217722, Note_on_c, 0, 29, 39
1, 217726, Control_c, 0, 64, 56
1, 217727, Note_on_c, 0, 104, 53
1, 217741, Control_c, 0, 64, 47
1, 217755, Control_c, 0, 64, 44
1, 217770, Control_c, 0, 64, 45
1, 217785, Control_c, 0, 64, 47
1, 217800, Control_c, 0, 64, 51
1, 217815, Control_c, 0, 64, 59
1, 217829, Control_c, 0, 64, 66
1, 217844, Control_c, 0, 64, 76
1, 217852, Note_on_c, 0, 97, 51
1, 217852, Note_off_c, 0, 104, 55
1, 217859, Control_c, 0, 64, 91
1, 217874, Control_c, 0, 64, 127
1, 217891, Note_off_c, 0, 97, 59
1, 217934, Note_on_c, 0, 91, 51
1, 217985, Note_off_c, 0, 91, 63
1, 217996, Note_on_c, 0, 102, 55
1, 218048, Note_off_c, 0, 102, 51
1, 218076, Note_on_c, 0, 99, 56
1, 218096, Note_off_c, 0, 99, 61
1, 218153, Note_on_c, 0, 86, 41
1, 218181, Note_off_c, 0, 86, 53
1, 218184, Note_on_c, 0, 97, 66
1, 218241, Note_off_c, 0, 29, 42
1, 218252, Note_off_c, 0, 97, 57
1, 218276, Note_on_c, 0, 92, 50
1, 218292, Note_on_c, 0, 99, 72
1, 218325, Note_off_c, 0, 92, 64
1, 218340, Note_off_c, 0, 99, 63
1, 218378, Note_on_c, 0, 84, 63
1, 218405, Note_off_c, 0, 84, 63
1, 218444, Note_on_c, 0, 91, 64
1, 218473, Note_off_c, 0, 91, 68
1, 218547, Note_on_c, 0, 91, 57
1, 218603, Note_off_c, 0, 91, 55
1, 218656, Note_on_c, 0, 104, 62
1, 218657, Note_on_c, 0, 36, 42
1, 218718, Note_off_c, 0, 36, 56
1, 218733, Note_off_c, 0, 104, 56
1, 218745, Note_on_c, 0, 97, 55
1, 218776, Note_off_c, 0, 97, 58
1, 218813, Note_on_c, 0, 91, 51
1, 218846, Note_off_c, 0, 91, 65
1, 218879, Note_on_c, 0, 102, 56
1, 218908, Note_off_c, 0, 102, 50
1, 218939, Note_on_c, 0, 99, 71
1, 218970, Note_off_c, 0, 99, 63
1, 219008, Note_on_c, 0, 86, 68
1, 219053, Note_off_c, 0, 86, 63
1, 219071, Note_on_c, 0, 97, 58
1, 219122, Note_off_c, 0, 97, 58
1, 219129, Note_on_c, 0, 92, 61
1, 219182, Note_on_c, 0, 99, 72
1, 219214, Note_off_c, 0, 92, 57
1, 219232, Note_off_c, 0, 99, 60
1, 219263, Note_on_c, 0, 84, 63
1, 219305, Note_off_c, 0, 84, 59
1, 219334, Note_on_c, 0, 91, 60
1, 219362, Note_off_c, 0, 91, 68
1, 219434, Note_on_c, 0, 91, 50
1, 219472, Note_off_c, 0, 91, 52
1, 219514, Note_on_c, 0, 41, 44
1, 219522, Note_on_c, 0, 104, 59
1, 219543, Note_off_c, 0, 41, 55
1, 219576, Note_off_c, 0, 104, 57
1, 219594, Note_on_c, 0, 97, 57
1, 219631, Note_off_c, 0, 97, 63
1, 219650, Note_on_c, 0, 91, 56
1, 219687, Note_off_c, 0, 91, 66
1, 219713, Note_on_c, 0, 102, 70
1, 219749, Note_off_c, 0, 102, 61
1, 219789, Note_on_c, 0, 99, 67
1, 219818, Note_off_c, 0, 99, 64
1, 219854, Note_on_c, 0, 86, 61
1, 219886, Note_off_c, 0, 86, 60
1, 219913, Note_on_c, 0, 97, 62
1, 219971, Note_off_c, 0, 97, 62
1, 219982, Note_on_c, 0, 92, 61
1, 220032, Note_on_c, 0, 99, 70
1, 220065, Note_off_c, 0, 92, 59
1, 220067, Note_off_c, 0, 99, 61
1, 220109, Note_on_c, 0, 84, 64
1, 220147, Note_off_c, 0, 84, 57
1, 220174, Note_on_c, 0, 91, 62
1, 220211, Note_off_c, 0, 91, 68
1, 220298, Note_on_c, 0, 91, 14
1, 220350, Note_off_c, 0, 91, 34
1, 220388, Note_on_c, 0, 104, 47
1, 220389, Note_on_c, 0, 48, 49
1, 220420, Note_off_c, 0, 48, 61
1, 220438, Note_off_c, 0, 104, 55
1, 220453, Note_on_c, 0, 97, 59
1, 220486, Note_off_c, 0, 97, 63
1, 220587, Note_on_c, 0, 102, 64
1, 220611, Poly_aftertouch_c, 0, 91, 0
1, 220634, Note_off_c, 0, 102, 57
1, 220666, Note_on_c, 0, 99, 59
1, 220696, Note_off_c, 0, 99, 61
1, 220735, Note_on_c, 0, 86, 59
1, 220768, Note_off_c, 0, 86, 62
1, 220794, Note_on_c, 0, 97, 53
1, 220857, Note_off_c, 0, 97, 56
1, 220865, Note_on_c, 0, 92, 57
1, 220918, Note_on_c, 0, 99, 66
1, 220961, Note_off_c, 0, 92, 58
1, 220962, Note_off_c, 0, 99, 64
1, 221001, Note_on_c, 0, 84, 67
1, 221041, Note_off_c, 0, 84, 63
1, 221071, Note_on_c, 0, 91, 64
1, 221104, Note_off_c, 0, 91, 66
1, 221163, Note_on_c, 0, 91, 51
1, 221211, Note_off_c, 0, 91, 59
1, 221248, Note_on_c, 0, 53, 45
1, 221257, Note_on_c, 0, 104, 61
1, 221288, Note_off_c, 0, 53, 60
1, 221306, Note_off_c, 0, 104, 54
1, 221350, Note_on_c, 0, 97, 47
1, 221373, Note_off_c, 0, 97, 57
1, 221405, Note_on_c, 0, 91, 57
1, 221443, Note_off_c, 0, 91, 65
1, 221470, Note_on_c, 0, 102, 63
1, 221544, Note_off_c, 0, 102, 40
1, 221557, Note_on_c, 0, 99, 62
1, 221588, Note_off_c, 0, 99, 64
1, 221654, Note_on_c, 0, 86, 29
1, 221695, Note_off_c, 0, 86, 46
1, 221704, Note_on_c, 0, 97, 59
1, 221761, Note_off_c, 0, 97, 56
1, 221779, Note_on_c, 0, 92, 50
1, 221824, Note_on_c, 0, 99, 68
1, 221848, Note_off_c, 0, 92, 58
1, 221867, Note_off_c, 0, 99, 61
1, 221904, Note_on_c, 0, 84, 65
1, 221940, Note_off_c, 0, 84, 57
1, 221970, Note_on_c, 0, 91, 62
1, 222000, Note_off_c, 0, 91, 68
1, 222062, Note_on_c, 0, 91, 52
1, 222100, Note_off_c, 0, 91, 48
1, 222148, Note_on_c, 0, 104, 67
1, 222170, Note_on_c, 0, 60, 51
1, 222200, Note_off_c, 0, 60, 66
1, 222226, Note_off_c, 0, 104, 55
1, 222240, Note_on_c, 0, 97, 45
1, 222268, Note_off_c, 0, 97, 54
1, 222292, Note_on_c, 0, 91, 50
1, 222330, Note_off_c, 0, 91, 67
1, 222354, Note_on_c, 0, 102, 64
1, 222395, Note_off_c, 0, 102, 61
1, 222441, Note_on_c, 0, 99, 65
1, 222474, Note_off_c, 0, 99, 64
1, 222515, Note_on_c, 0, 86, 61
1, 222543, Note_off_c, 0, 86, 67
1, 222579, Note_on_c, 0, 97, 57
1, 222623, Note_off_c, 0, 97, 57
1, 222646, Note_on_c, 0, 92, 49
1, 222688, Note_on_c, 0, 99, 68
1, 222709, Note_off_c, 0, 92, 59
1, 222719, Note_off_c, 0, 99, 66
1, 222765, Note_on_c, 0, 84, 68
1, 222802, Note_off_c, 0, 84, 59
1, 222830, Note_on_c, 0, 91, 60
1, 222862, Note_off_c, 0, 91, 67
1, 222938, Note_on_c, 0, 91, 49
1, 222994, Note_off_c, 0, 91, 53
1, 223029, Note_on_c, 0, 104, 69
1, 223077, Note_on_c, 0, 65, 38
1, 223109, Note_off_c, 0, 65, 52
1, 224067, Note_off_c, 0, 104, 35
1, 224150, Note_on_c, 0, 72, 43
1, 224196, Note_off_c, 0, 72, 55
1, 224322, Note_on_c, 0, 97, 47
1, 224347, Note_off_c, 0, 97, 59
1, 224373, Note_on_c, 0, 91, 61
1, 224410, Note_off_c, 0, 91, 63
1, 224423, Note_on_c, 0, 102, 66
1, 224469, Note_off_c, 0, 102, 56
1, 224504, Note_on_c, 0, 97, 57
1, 224530, Note_off_c, 0, 97, 51
1, 224532, Note_on_c, 0, 86, 67
1, 224573, Note_off_c, 0, 86, 56
1, 224605, Note_on_c, 0, 97, 32
1, 224632, Note_on_c, 0, 92, 52
1, 224690, Note_off_c, 0, 92, 62
1, 224721, Note_off_c, 0, 97, 26
1, 225163, Note_on_c, 0, 77, 45
1, 225208, Note_off_c, 0, 77, 58
1, 226427, Note_on_c, 0, 84, 14
1, 226477, Note_off_c, 0, 84, 47
1, 227592, Note_on_c, 0, 97, 45
1, 227641, Note_off_c, 0, 97, 56
1, 227654, Note_on_c, 0, 92, 42
1, 227687, Note_on_c, 0, 99, 57
1, 227728, Note_off_c, 0, 99, 63
1, 227758, Note_off_c, 0, 92, 55
1, 227788, Note_on_c, 0, 84, 45
1, 227819, Note_off_c, 0, 84, 60
1, 227850, Note_on_c, 0, 91, 51
1, 227856, Note_on_c, 0, 89, 45
1, 227882, Note_off_c, 0, 91, 68
1, 227904, Note_off_c, 0, 89, 50
1, 234168, Control_c, 0, 64, 118
1, 234183, Control_c, 0, 64, 114
1, 234198, Control_c, 0, 64, 111
1, 234212, Control_c, 0, 64, 108
1, 234227, Control_c, 0, 64, 106
1, 234257, Control_c, 0, 64, 103
1, 234286, Control_c, 0, 64, 100
1, 234316, Control_c, 0, 64, 98
1, 234346, Control_c, 0, 64, 96
1, 234360, Control_c, 0, 64, 94
1, 234375, Control_c, 0, 64, 94
1, 234391, Control_c, 0, 64, 93
1, 234406, Control_c, 0, 64, 92
1, 234428, Control_c, 0, 64, 92
1, 234443, Control_c, 0, 64, 91
1, 234457, Control_c, 0, 64, 91
1, 234472, Control_c, 0, 64, 90
1, 234487, Control_c, 0, 64, 90
1, 234502, Control_c, 0, 64, 89
1, 234517, Control_c, 0, 64, 88
1, 234531, Control_c, 0, 64, 88
1, 234546, Control_c, 0, 64, 87
1, 234561, Control_c, 0, 64, 87
1, 234576, Control_c, 0, 64, 86
1, 234591, Control_c, 0, 64, 86
1, 234606, Control_c, 0, 64, 85
1, 234636, Control_c, 0, 64, 85
1, 234650, Control_c, 0, 64, 84
1, 234665, Control_c, 0, 64, 84
1, 234695, Control_c, 0, 64, 83
1, 234710, Control_c, 0, 64, 83
1, 234739, Control_c, 0, 64, 82
1, 234769, Control_c, 0, 64, 82
1, 234784, Control_c, 0, 64, 81
1, 234813, Control_c, 0, 64, 81
1, 234842, Control_c, 0, 64, 80
1, 234872, Control_c, 0, 64, 80
1, 234902, Control_c, 0, 64, 79
1, 234916, Control_c, 0, 64, 79
1, 234946, Control_c, 0, 64, 78
1, 234990, Control_c, 0, 64, 78
1, 235020, Control_c, 0, 64, 77
1, 235050, Control_c, 0, 64, 77
1, 235065, Control_c, 0, 64, 76
1, 235080, Control_c, 0, 64, 76
1, 235095, Control_c, 0, 64, 75
1, 235110, Control_c, 0, 64, 75
1, 235124, Control_c, 0, 64, 74
1, 235139, Control_c, 0, 64, 74
1, 235175, Control_c, 0, 64, 73
1, 235221, Control_c, 0, 64, 73
1, 235310, Control_c, 0, 64, 72
1, 235384, Control_c, 0, 64, 72
1, 235414, Control_c, 0, 64, 71
1, 235444, Control_c, 0, 64, 71
1, 235473, Control_c, 0, 64, 70
1, 235488, Control_c, 0, 64, 70
1, 235518, Control_c, 0, 64, 69
1, 235547, Control_c, 0, 64, 69
1, 235562, Control_c, 0, 64, 68
1, 235591, Control_c, 0, 64, 68
1, 235606, Control_c, 0, 64, 67
1, 235636, Control_c, 0, 64, 67
1, 235695, Control_c, 0, 64, 66
1, 235739, Control_c, 0, 64, 66
1, 235798, Control_c, 0, 64, 65
1, 235954, Control_c, 0, 64, 65
1, 236075, Control_c, 0, 64, 64
1, 236163, Control_c, 0, 64, 64
1, 236222, Control_c, 0, 64, 63
1, 236326, Control_c, 0, 64, 63
1, 236371, Control_c, 0, 64, 62
1, 236652, Control_c, 0, 64, 63
1, 236690, Control_c, 0, 64, 63
1, 236719, Control_c, 0, 64, 64
1, 236734, Control_c, 0, 64, 64
1, 236778, Control_c, 0, 64, 65
1, 236839, Control_c, 0, 64, 65
1, 236898, Control_c, 0, 64, 66
1, 236957, Control_c, 0, 64, 66
1, 237031, Control_c, 0, 64, 67
1, 237105, Control_c, 0, 64, 67
1, 237193, Control_c, 0, 64, 68
1, 237253, Control_c, 0, 64, 68
1, 237298, Control_c, 0, 64, 69
1, 237357, Control_c, 0, 64, 69
1, 237453, Control_c, 0, 64, 70
1, 237512, Control_c, 0, 64, 70
1, 237557, Control_c, 0, 64, 71
1, 237602, Control_c, 0, 64, 71
1, 237646, Control_c, 0, 64, 72
1, 237762, Note_on_c, 0, 58, 40
1, 237772, Note_on_c, 0, 62, 37
1, 237776, Note_on_c, 0, 53, 37
1, 237853, Control_c, 0, 64, 72
1, 237897, Control_c, 0, 64, 73
1, 237912, Control_c, 0, 64, 73
1, 237927, Control_c, 0, 64, 74
1, 237942, Control_c, 0, 64, 76
1, 237956, Control_c, 0, 64, 78
1, 237971, Control_c, 0, 64, 81
1, 237986, Control_c, 0, 64, 85
1, 238001, Control_c, 0, 64, 88
1, 238016, Control_c, 0, 64, 92
1, 238031, Control_c, 0, 64, 96
1, 238046, Control_c, 0, 64, 100
1, 238060, Control_c, 0, 64, 105
1, 238075, Control_c, 0, 64, 112
1, 238090, Control_c, 0, 64, 127
1, 239038, Note_off_c, 0, 53, 27
1, 239097, Note_off_c, 0, 62, 31
1, 239134, Note_off_c, 0, 58, 33
1, 239632, Control_c, 0, 64, 108
1, 239637, Note_on_c, 0, 56, 43
1, 239641, Note_on_c, 0, 61, 45
1, 239643, Note_on_c, 0, 52, 44
1, 239644, Note_on_c, 0, 62, 42
1, 239647, Control_c, 0, 64, 93
1, 239670, Control_c, 0, 64, 80
1, 239685, Control_c, 0, 64, 70
1, 239700, Control_c, 0, 64, 62
1, 239714, Control_c, 0, 64, 57
1, 239729, Control_c, 0, 64, 53
1, 239744, Control_c, 0, 64, 52
1, 239803, Control_c, 0, 64, 53
1, 239818, Control_c, 0, 64, 55
1, 239832, Control_c, 0, 64, 58
1, 239847, Control_c, 0, 64, 61
1, 239862, Control_c, 0, 64, 64
1, 239877, Control_c, 0, 64, 69
1, 239892, Control_c, 0, 64, 76
1, 239907, Control_c, 0, 64, 86
1, 239921, Control_c, 0, 64, 97
1, 239936, Control_c, 0, 64, 108
1, 239951, Control_c, 0, 64, 127
1, 240198, Note_off_c, 0, 61, 36
1, 240261, Note_off_c, 0, 62, 32
1, 240290, Note_off_c, 0, 56, 38
1, 240309, Note_off_c, 0, 52, 26
1, 241990, Control_c, 0, 64, 110
1, 242005, Control_c, 0, 64, 96
1, 242019, Control_c, 0, 64, 83
1, 242025, Note_on_c, 0, 62, 44
1, 242029, Note_on_c, 0, 59, 41
1, 242032, Note_on_c, 0, 50, 39
1, 242034, Control_c, 0, 64, 72
1, 242034, Note_on_c, 0, 55, 39
1, 242049, Control_c, 0, 64, 63
1, 242064, Control_c, 0, 64, 56
1, 242079, Control_c, 0, 64, 51
1, 242094, Control_c, 0, 64, 49
1, 242109, Control_c, 0, 64, 48
1, 242154, Control_c, 0, 64, 49
1, 242168, Control_c, 0, 64, 51
1, 242183, Control_c, 0, 64, 54
1, 242198, Control_c, 0, 64, 57
1, 242213, Control_c, 0, 64, 61
1, 242228, Control_c, 0, 64, 65
1, 242242, Control_c, 0, 64, 70
1, 242257, Control_c, 0, 64, 78
1, 242272, Control_c, 0, 64, 86
1, 242287, Control_c, 0, 64, 93
1, 242302, Control_c, 0, 64, 100
1, 242316, Control_c, 0, 64, 110
1, 242331, Control_c, 0, 64, 127
1, 242473, Note_off_c, 0, 62, 36
1, 242517, Note_off_c, 0, 59, 40
1, 242642, Note_off_c, 0, 55, 27
1, 242657, Note_off_c, 0, 50, 38
1, 245151, Note_on_c, 0, 65, 55
1, 245155, Note_on_c, 0, 58, 49
1, 245158, Note_on_c, 0, 53, 49
1, 245158, Note_on_c, 0, 62, 46
1, 245176, Control_c, 0, 64, 102
1, 245191, Control_c, 0, 64, 82
1, 245206, Control_c, 0, 64, 69
1, 245221, Control_c, 0, 64, 59
1, 245236, Control_c, 0, 64, 49
1, 245251, Control_c, 0, 64, 42
1, 245266, Control_c, 0, 64, 39
1, 245310, Control_c, 0, 64, 40
1, 245325, Control_c, 0, 64, 44
1, 245340, Control_c, 0, 64, 49
1, 245355, Control_c, 0, 64, 55
1, 245370, Control_c, 0, 64, 60
1, 245384, Control_c, 0, 64, 65
1, 245399, Control_c, 0, 64, 69
1, 245414, Control_c, 0, 64, 73
1, 245429, Control_c, 0, 64, 77
1, 245443, Control_c, 0, 64, 80
1, 245458, Control_c, 0, 64, 84
1, 245473, Control_c, 0, 64, 90
1, 245488, Control_c, 0, 64, 100
1, 245502, Control_c, 0, 64, 127
1, 246275, Note_on_c, 0, 89, 55
1, 246276, Note_on_c, 0, 95, 62
1, 246884, Note_off_c, 0, 89, 53
1, 247015, Note_on_c, 0, 97, 69
1, 247026, Note_on_c, 0, 91, 52
1, 247042, Note_off_c, 0, 95, 59
1, 247742, Note_off_c, 0, 91, 34
1, 247755, Note_on_c, 0, 94, 62
1, 247773, Note_on_c, 0, 88, 46
1, 247837, Note_off_c, 0, 97, 35
1, 248113, Note_off_c, 0, 94, 47
1, 248299, Note_off_c, 0, 88, 47
1, 248470, Note_on_c, 0, 92, 61
1, 248482, Note_on_c, 0, 85, 54
1, 248763, Note_off_c, 0, 92, 33
1, 249098, Note_off_c, 0, 85, 49
1, 249210, Note_on_c, 0, 91, 54
1, 249211, Note_on_c, 0, 86, 49
1, 249624, Note_off_c, 0, 86, 38
1, 249913, Note_off_c, 0, 91, 54
1, 249953, Note_on_c, 0, 83, 44
1, 249953, Note_on_c, 0, 89, 47
1, 250676, Note_on_c, 0, 88, 50
1, 250682, Note_on_c, 0, 85, 43
1, 250697, Note_off_c, 0, 89, 36
1, 250713, Note_off_c, 0, 83, 37
1, 250931, Note_off_c, 0, 88, 47
1, 251151, Poly_aftertouch_c, 0, 56, 127
1, 251356, Note_off_c, 0, 85, 59
1, 251393, Note_on_c, 0, 86, 44
1, 251394, Note_on_c, 0, 79, 37
1, 252089, Note_off_c, 0, 86, 35
1, 252108, Note_on_c, 0, 80, 44
1, 252109, Note_on_c, 0, 85, 48
1, 252163, Note_off_c, 0, 79, 32
1, 252318, Note_off_c, 0, 85, 48
1, 252797, Note_on_c, 0, 83, 47
1, 252807, Note_on_c, 0, 76, 40
1, 252807, Note_off_c, 0, 80, 38
1, 253401, Note_off_c, 0, 83, 37
1, 253494, Note_off_c, 0, 76, 35
1, 253540, Note_on_c, 0, 82, 49
1, 253556, Note_on_c, 0, 77, 40
1, 253873, Note_off_c, 0, 77, 36
1, 254296, Note_off_c, 0, 82, 37
1, 254300, Note_on_c, 0, 79, 40
1, 254300, Note_on_c, 0, 80, 49
1, 254811, Note_off_c, 0, 79, 40
1, 254903, Note_off_c, 0, 80, 39
1, 255023, Note_on_c, 0, 76, 41
1, 255026, Note_on_c, 0, 83, 46
1, 255311, Note_off_c, 0, 76, 35
1, 255499, Note_off_c, 0, 83, 36
1, 255783, Note_on_c, 0, 74, 48
1, 255786, Note_on_c, 0, 85, 47
1, 255970, Note_off_c, 0, 85, 49
1, 256414, Note_off_c, 0, 74, 34
1, 256543, Note_on_c, 0, 79, 45
1, 256553, Note_on_c, 0, 73, 44
1, 256980, Note_off_c, 0, 79, 27
1, 257152, Note_off_c, 0, 73, 38
1, 257335, Note_on_c, 0, 76, 48
1, 257353, Note_on_c, 0, 71, 33
1, 257579, Note_off_c, 0, 76, 53
1, 258119, Note_on_c, 0, 83, 54
1, 258132, Note_on_c, 0, 80, 46
1, 258165, Note_off_c, 0, 71, 37
1, 258365, Note_off_c, 0, 83, 32
1, 258519, Note_off_c, 0, 80, 48
1, 258966, Control_c, 0, 64, 111
1, 258981, Control_c, 0, 64, 97
1, 258995, Note_on_c, 0, 77, 46
1, 258996, Control_c, 0, 64, 87
1, 258998, Note_on_c, 0, 73, 38
1, 259011, Control_c, 0, 64, 79
1, 259025, Control_c, 0, 64, 72
1, 259040, Control_c, 0, 64, 66
1, 259055, Control_c, 0, 64, 62
1, 259070, Control_c, 0, 64, 60
1, 259100, Control_c, 0, 64, 61
1, 259115, Control_c, 0, 64, 62
1, 259136, Control_c, 0, 64, 63
1, 259151, Control_c, 0, 64, 65
1, 259167, Control_c, 0, 64, 69
1, 259182, Control_c, 0, 64, 73
1, 259197, Control_c, 0, 64, 78
1, 259212, Control_c, 0, 64, 83
1, 259227, Control_c, 0, 64, 87
1, 259241, Control_c, 0, 64, 90
1, 259256, Control_c, 0, 64, 92
1, 259271, Control_c, 0, 64, 96
1, 259285, Control_c, 0, 64, 100
1, 259300, Control_c, 0, 64, 105
1, 259315, Control_c, 0, 64, 113
1, 259330, Control_c, 0, 64, 127
1, 259374, Note_off_c, 0, 73, 30
1, 259616, Note_off_c, 0, 77, 42
1, 260153, Control_c, 0, 64, 112
1, 260168, Control_c, 0, 64, 94
1, 260172, Note_on_c, 0, 74, 30
1, 260182, Control_c, 0, 64, 82
1, 260184, Note_on_c, 0, 70, 22
1, 260197, Control_c, 0, 64, 71
1, 260212, Control_c, 0, 64, 63
1, 260227, Control_c, 0, 64, 57
1, 260242, Control_c, 0, 64, 55
1, 260286, Control_c, 0, 64, 56
1, 260301, Control_c, 0, 64, 58
1, 260316, Control_c, 0, 64, 60
1, 260331, Control_c, 0, 64, 62
1, 260346, Control_c, 0, 64, 65
1, 260361, Control_c, 0, 64, 69
1, 260375, Control_c, 0, 64, 75
1, 260390, Control_c, 0, 64, 84
1, 260405, Control_c, 0, 64, 91
1, 260420, Control_c, 0, 64, 95
1, 260434, Control_c, 0, 64, 99
1, 260449, Control_c, 0, 64, 105
1, 260464, Control_c, 0, 64, 112
1, 260479, Control_c, 0, 64, 127
1, 262963, Note_off_c, 0, 70, 32
1, 263010, Note_off_c, 0, 74, 33
1, 263065, Poly_aftertouch_c, 0, 56, 0
1, 263085, Note_off_c, 0, 62, 29
1, 263119, Note_off_c, 0, 65, 30
1, 263178, Note_off_c, 0, 58, 30
1, 263221, Note_off_c, 0, 53, 33
1, 263371, Control_c, 0, 64, 122
1, 263386, Control_c, 0, 64, 110
1, 263400, Control_c, 0, 64, 103
1, 263415, Control_c, 0, 64, 96
1, 263430, Control_c, 0, 64, 90
1, 263444, Control_c, 0, 64, 84
1, 263459, Control_c, 0, 64, 76
1, 263474, Control_c, 0, 64, 69
1, 263489, Control_c, 0, 64, 63
1, 263504, Control_c, 0, 64, 59
1, 263518, Control_c, 0, 64, 57
1, 263533, Control_c, 0, 64, 56
1, 263548, Control_c, 0, 64, 56
1, 263578, Control_c, 0, 64, 55
1, 263630, Control_c, 0, 64, 56
1, 263645, Control_c, 0, 64, 57
1, 263659, Control_c, 0, 64, 59
1, 263674, Control_c, 0, 64, 60
1, 263689, Control_c, 0, 64, 62
1, 263704, Control_c, 0, 64, 63
1, 263719, Control_c, 0, 64, 65
1, 263733, Control_c, 0, 64, 67
1, 263748, Control_c, 0, 64, 70
1, 263763, Control_c, 0, 64, 73
1, 263778, Control_c, 0, 64, 77
1, 263793, Control_c, 0, 64, 81
1, 263807, Control_c, 0, 64, 83
1, 263822, Control_c, 0, 64, 86
1, 263837, Control_c, 0, 64, 88
1, 263852, Control_c, 0, 64, 90
1, 263866, Control_c, 0, 64, 93
1, 263879, Note_on_c, 0, 62, 34
1, 263881, Note_on_c, 0, 58, 33
1, 263881, Control_c, 0, 64, 95
1, 263887, Note_on_c, 0, 53, 34
1, 263896, Control_c, 0, 64, 99
1, 263911, Control_c, 0, 64, 103
1, 263926, Control_c, 0, 64, 108
1, 263941, Control_c, 0, 64, 114
1, 263956, Control_c, 0, 64, 127
1, 264311, Note_off_c, 0, 62, 36
1, 264397, Note_off_c, 0, 58, 30
1, 264472, Note_off_c, 0, 53, 34
1, 266129, Control_c, 0, 64, 114
1, 266144, Note_on_c, 0, 61, 38
1, 266144, Control_c, 0, 64, 99
1, 266144, Note_on_c, 0, 62, 37
1, 266145, Note_on_c, 0, 56, 42
1, 266151, Note_on_c, 0, 52, 39
1, 266159, Control_c, 0, 64, 88
1, 266173, Control_c, 0, 64, 79
1, 266188, Control_c, 0, 64, 69
1, 266203, Control_c, 0, 64, 62
1, 266218, Control_c, 0, 64, 54
1, 266233, Control_c, 0, 64, 51
1, 266247, Control_c, 0, 64, 50
1, 266292, Control_c, 0, 64, 51
1, 266307, Control_c, 0, 64, 54
1, 266321, Control_c, 0, 64, 57
1, 266336, Control_c, 0, 64, 60
1, 266352, Control_c, 0, 64, 63
1, 266367, Control_c, 0, 64, 66
1, 266382, Control_c, 0, 64, 70
1, 266397, Control_c, 0, 64, 76
1, 266412, Control_c, 0, 64, 82
1, 266426, Control_c, 0, 64, 87
1, 266441, Control_c, 0, 64, 91
1, 266456, Control_c, 0, 64, 96
1, 266470, Control_c, 0, 64, 100
1, 266485, Control_c, 0, 64, 106
1, 266500, Control_c, 0, 64, 117
1, 266515, Control_c, 0, 64, 127
1, 266763, Note_off_c, 0, 61, 34
1, 266822, Note_off_c, 0, 62, 29
1, 266829, Note_off_c, 0, 52, 27
1, 267172, Note_off_c, 0, 56, 33
1, 268606, Note_on_c, 0, 62, 39
1, 268612, Note_on_c, 0, 59, 35
1, 268612, Control_c, 0, 64, 117
1, 268615, Note_on_c, 0, 50, 39
1, 268624, Note_on_c, 0, 55, 25
1, 268627, Control_c, 0, 64, 97
1, 268642, Control_c, 0, 64, 84
1, 268657, Control_c, 0, 64, 72
1, 268672, Control_c, 0, 64, 63
1, 268687, Control_c, 0, 64, 56
1, 268701, Control_c, 0, 64, 51
1, 268716, Control_c, 0, 64, 51
1, 268746, Control_c, 0, 64, 52
1, 268761, Control_c, 0, 64, 54
1, 268776, Control_c, 0, 64, 57
1, 268791, Control_c, 0, 64, 60
1, 268806, Control_c, 0, 64, 63
1, 268821, Control_c, 0, 64, 66
1, 268836, Control_c, 0, 64, 71
1, 268851, Control_c, 0, 64, 77
1, 268872, Control_c, 0, 64, 85
1, 268887, Control_c, 0, 64, 90
1, 268902, Control_c, 0, 64, 95
1, 268917, Control_c, 0, 64, 100
1, 268932, Control_c, 0, 64, 108
1, 268946, Control_c, 0, 64, 127
1, 269402, Note_off_c, 0, 62, 16
1, 269671, Note_off_c, 0, 50, 42
1, 270046, Note_off_c, 0, 59, 32
1, 270087, Note_off_c, 0, 55, 31
1, 272282, Control_c, 0, 64, 111
1, 272296, Control_c, 0, 64, 100
1, 272311, Control_c, 0, 64, 91
1, 272317, Note_on_c, 0, 58, 52
1, 272318, Note_on_c, 0, 65, 53
1, 272326, Control_c, 0, 64, 82
1, 272329, Note_on_c, 0, 53, 47
1, 272332, Note_on_c, 0, 62, 48
1, 272341, Control_c, 0, 64, 72
1, 272356, Control_c, 0, 64, 63
1, 272371, Control_c, 0, 64, 56
1, 272386, Control_c, 0, 64, 52
1, 272401, Control_c, 0, 64, 50
1, 272415, Control_c, 0, 64, 49
1, 272460, Control_c, 0, 64, 50
1, 272475, Control_c, 0, 64, 53
1, 272489, Control_c, 0, 64, 56
1, 272504, Control_c, 0, 64, 59
1, 272519, Control_c, 0, 64, 62
1, 272533, Control_c, 0, 64, 66
1, 272548, Control_c, 0, 64, 70
1, 272563, Control_c, 0, 64, 77
1, 272578, Control_c, 0, 64, 84
1, 272593, Control_c, 0, 64, 91
1, 272615, Control_c, 0, 64, 99
1, 272630, Control_c, 0, 64, 109
1, 272645, Control_c, 0, 64, 127
1, 273414, Note_on_c, 0, 85, 69
1, 273440, Note_on_c, 0, 79, 42
1, 274035, Note_off_c, 0, 85, 48
1, 274183, Note_off_c, 0, 79, 36
1, 274294, Note_on_c, 0, 83, 53
1, 274310, Note_on_c, 0, 76, 44
1, 274380, Control_c, 0, 64, 108
1, 274395, Control_c, 0, 64, 105
1, 274528, Control_c, 0, 64, 109
1, 274543, Control_c, 0, 64, 114
1, 274557, Control_c, 0, 64, 125
1, 274562, Note_off_c, 0, 83, 34
1, 274572, Control_c, 0, 64, 127
1, 274702, Note_off_c, 0, 76, 52
1, 275084, Control_c, 0, 64, 111
1, 275099, Control_c, 0, 64, 93
1, 275113, Control_c, 0, 64, 82
1, 275122, Note_on_c, 0, 77, 52
1, 275129, Control_c, 0, 64, 73
1, 275139, Note_on_c, 0, 73, 41
1, 275144, Control_c, 0, 64, 65
1, 275158, Control_c, 0, 64, 61
1, 275173, Control_c, 0, 64, 60
1, 275188, Control_c, 0, 64, 61
1, 275203, Control_c, 0, 64, 63
1, 275218, Control_c, 0, 64, 65
1, 275233, Control_c, 0, 64, 68
1, 275248, Control_c, 0, 64, 73
1, 275262, Control_c, 0, 64, 81
1, 275277, Control_c, 0, 64, 89
1, 275292, Control_c, 0, 64, 96
1, 275307, Control_c, 0, 64, 103
1, 275322, Control_c, 0, 64, 111
1, 275337, Control_c, 0, 64, 127
1, 275677, Note_off_c, 0, 73, 32
1, 275963, Note_off_c, 0, 77, 38
1, 276219, Control_c, 0, 64, 110
1, 276234, Control_c, 0, 64, 94
1, 276238, Note_on_c, 0, 74, 39
1, 276248, Control_c, 0, 64, 82
1, 276256, Note_on_c, 0, 70, 35
1, 276263, Control_c, 0, 64, 72
1, 276278, Control_c, 0, 64, 63
1, 276293, Control_c, 0, 64, 57
1, 276308, Control_c, 0, 64, 55
1, 276337, Control_c, 0, 64, 55
1, 276359, Control_c, 0, 64, 57
1, 276374, Control_c, 0, 64, 59
1, 276389, Control_c, 0, 64, 61
1, 276404, Control_c, 0, 64, 64
1, 276419, Control_c, 0, 64, 67
1, 276434, Control_c, 0, 64, 72
1, 276449, Control_c, 0, 64, 78
1, 276463, Control_c, 0, 64, 85
1, 276478, Control_c, 0, 64, 90
1, 276493, Control_c, 0, 64, 94
1, 276507, Control_c, 0, 64, 97
1, 276522, Control_c, 0, 64, 101
1, 276537, Control_c, 0, 64, 106
1, 276552, Control_c, 0, 64, 114
1, 276567, Control_c, 0, 64, 127
1, 278553, Note_off_c, 0, 65, 26
1, 278654, Note_off_c, 0, 62, 35
1, 278714, Note_off_c, 0, 70, 35
1, 278729, Note_off_c, 0, 74, 29
1, 278769, Note_off_c, 0, 58, 24
1, 278843, Note_off_c, 0, 53, 29
1, 279065, Control_c, 0, 64, 125
1, 279080, Control_c, 0, 64, 113
1, 279095, Control_c, 0, 64, 108
1, 279109, Control_c, 0, 64, 103
1, 279125, Control_c, 0, 64, 99
1, 279140, Control_c, 0, 64, 96
1, 279155, Control_c, 0, 64, 93
1, 279170, Control_c, 0, 64, 89
1, 279185, Control_c, 0, 64, 86
1, 279199, Control_c, 0, 64, 83
1, 279214, Control_c, 0, 64, 79
1, 279229, Control_c, 0, 64, 75
1, 279244, Control_c, 0, 64, 70
1, 279259, Control_c, 0, 64, 67
1, 279273, Control_c, 0, 64, 64
1, 279288, Control_c, 0, 64, 62
1, 279303, Control_c, 0, 64, 62
1, 279332, Control_c, 0, 64, 61
1, 279577, Control_c, 0, 64, 62
1, 279755, Control_c, 0, 64, 62
1, 279859, Control_c, 0, 64, 63
1, 279963, Control_c, 0, 64, 63
1, 280267, Control_c, 0, 64, 64
1, 280296, Control_c, 0, 64, 64
1, 280326, Control_c, 0, 64, 65
1, 280341, Control_c, 0, 64, 66
1, 280355, Control_c, 0, 64, 66
1, 280370, Control_c, 0, 64, 67
1, 280385, Control_c, 0, 64, 68
1, 280400, Control_c, 0, 64, 70
1, 280415, Control_c, 0, 64, 71
1, 280429, Control_c, 0, 64, 72
1, 280444, Control_c, 0, 64, 73
1, 280459, Control_c, 0, 64, 74
1, 280473, Control_c, 0, 64, 75
1, 280488, Control_c, 0, 64, 76
1, 280503, Control_c, 0, 64, 76
1, 280533, Control_c, 0, 64, 77
1, 280548, Control_c, 0, 64, 77
1, 280563, Control_c, 0, 64, 78
1, 280592, Control_c, 0, 64, 78
1, 280607, Control_c, 0, 64, 79
1, 280622, Control_c, 0, 64, 79
1, 280637, Control_c, 0, 64, 80
1, 280652, Control_c, 0, 64, 80
1, 280666, Control_c, 0, 64, 81
1, 280681, Control_c, 0, 64, 81
1, 280696, Control_c, 0, 64, 82
1, 280711, Control_c, 0, 64, 82
1, 280726, Control_c, 0, 64, 83
1, 280741, Control_c, 0, 64, 84
1, 280756, Note_on_c, 0, 62, 27
1, 280756, Control_c, 0, 64, 85
1, 280763, Note_on_c, 0, 61, 30
1, 280768, Note_on_c, 0, 52, 10
1, 280771, Control_c, 0, 64, 87
1, 280773, Note_on_c, 0, 56, 33
1, 280786, Control_c, 0, 64, 89
1, 280801, Control_c, 0, 64, 90
1, 280816, Control_c, 0, 64, 93
1, 280831, Control_c, 0, 64, 95
1, 280852, Control_c, 0, 64, 98
1, 280867, Control_c, 0, 64, 101
1, 280882, Control_c, 0, 64, 106
1, 280897, Control_c, 0, 64, 112
1, 280912, Control_c, 0, 64, 127
1, 281304, Note_off_c, 0, 61, 30
1, 281348, Note_off_c, 0, 62, 35
1, 281368, Note_off_c, 0, 56, 30
1, 281390, Note_off_c, 0, 52, 35
1, 282238, Control_c, 0, 64, 122
1, 282253, Control_c, 0, 64, 114
1, 282268, Control_c, 0, 64, 110
1, 282282, Control_c, 0, 64, 106
1, 282297, Control_c, 0, 64, 102
1, 282313, Control_c, 0, 64, 98
1, 282328, Control_c, 0, 64, 95
1, 282350, Control_c, 0, 64, 93
1, 282365, Control_c, 0, 64, 92
1, 282380, Control_c, 0, 64, 90
1, 282395, Control_c, 0, 64, 88
1, 282410, Control_c, 0, 64, 86
1, 282424, Control_c, 0, 64, 83
1, 282439, Control_c, 0, 64, 81
1, 282454, Control_c, 0, 64, 77
1, 282469, Control_c, 0, 64, 73
1, 282484, Control_c, 0, 64, 70
1, 282498, Control_c, 0, 64, 66
1, 282513, Control_c, 0, 64, 64
1, 282528, Control_c, 0, 64, 63
1, 282542, Control_c, 0, 64, 62
1, 282602, Control_c, 0, 64, 62
1, 282775, Note_on_c, 0, 62, 30
1, 282780, Note_on_c, 0, 55, 31
1, 282786, Note_on_c, 0, 59, 28
1, 282788, Note_on_c, 0, 50, 21
1, 282913, Control_c, 0, 64, 62
1, 282942, Control_c, 0, 64, 63
1, 282957, Control_c, 0, 64, 64
1, 282972, Control_c, 0, 64, 65
1, 282987, Control_c, 0, 64, 67
1, 283002, Control_c, 0, 64, 69
1, 283016, Control_c, 0, 64, 72
1, 283031, Control_c, 0, 64, 75
1, 283046, Control_c, 0, 64, 81
1, 283061, Control_c, 0, 64, 85
1, 283075, Control_c, 0, 64, 89
1, 283098, Control_c, 0, 64, 92
1, 283113, Control_c, 0, 64, 95
1, 283129, Control_c, 0, 64, 98
1, 283144, Control_c, 0, 64, 101
1, 283158, Note_off_c, 0, 59, 33
1, 283159, Control_c, 0, 64, 105
1, 283173, Control_c, 0, 64, 112
1, 283188, Control_c, 0, 64, 127
1, 283244, Note_off_c, 0, 55, 35
1, 283330, Note_off_c, 0, 50, 36
1, 283781, Note_off_c, 0, 62, 34
1, 284668, Control_c, 0, 64, 119
1, 284683, Control_c, 0, 64, 112
1, 284698, Control_c, 0, 64, 108
1, 284713, Control_c, 0, 64, 104
1, 284729, Control_c, 0, 64, 101
1, 284744, Control_c, 0, 64, 99
1, 284759, Control_c, 0, 64, 97
1, 284774, Control_c, 0, 64, 95
1, 284789, Control_c, 0, 64, 93
1, 284804, Control_c, 0, 64, 90
1, 284818, Control_c, 0, 64, 89
1, 284833, Control_c, 0, 64, 87
1, 284848, Control_c, 0, 64, 84
1, 284863, Control_c, 0, 64, 82
1, 284878, Control_c, 0, 64, 80
1, 284892, Control_c, 0, 64, 78
1, 284907, Control_c, 0, 64, 75
1, 284922, Control_c, 0, 64, 73
1, 284936, Control_c, 0, 64, 70
1, 284951, Control_c, 0, 64, 68
1, 284966, Control_c, 0, 64, 67
1, 284981, Control_c, 0, 64, 66
1, 284996, Control_c, 0, 64, 66
1, 285010, Control_c, 0, 64, 65
1, 285040, Control_c, 0, 64, 65
1, 285099, Control_c, 0, 64, 64
1, 285159, Control_c, 0, 64, 64
1, 285218, Control_c, 0, 64, 63
1, 285359, Control_c, 0, 64, 63
1, 285418, Control_c, 0, 64, 62
1, 285462, Control_c, 0, 64, 62
1, 285507, Control_c, 0, 64, 61
1, 285538, Control_c, 0, 64, 61
1, 285567, Control_c, 0, 64, 60
1, 285612, Control_c, 0, 64, 60
1, 285671, Control_c, 0, 64, 59
1, 285730, Control_c, 0, 64, 59
1, 286122, Control_c, 0, 64, 59
1, 286137, Control_c, 0, 64, 60
1, 286167, Control_c, 0, 64, 60
1, 286182, Control_c, 0, 64, 61
1, 286241, Control_c, 0, 64, 61
1, 286568, Control_c, 0, 64, 62
1, 286857, Control_c, 0, 64, 62
1, 286960, Control_c, 0, 64, 63
1, 287055, Note_on_c, 0, 58, 34
1, 287066, Note_on_c, 0, 65, 37
1, 287069, Note_on_c, 0, 53, 33
1, 287079, Control_c, 0, 64, 63
1, 287082, Note_on_c, 0, 62, 28
1, 287138, Control_c, 0, 64, 64
1, 287168, Control_c, 0, 64, 64
1, 287198, Control_c, 0, 64, 65
1, 287213, Control_c, 0, 64, 66
1, 287228, Control_c, 0, 64, 67
1, 287243, Control_c, 0, 64, 69
1, 287258, Control_c, 0, 64, 71
1, 287273, Control_c, 0, 64, 75
1, 287287, Control_c, 0, 64, 78
1, 287302, Control_c, 0, 64, 81
1, 287317, Control_c, 0, 64, 84
1, 287331, Control_c, 0, 64, 86
1, 287346, Control_c, 0, 64, 89
1, 287361, Control_c, 0, 64, 92
1, 287376, Control_c, 0, 64, 94
1, 287391, Control_c, 0, 64, 97
1, 287405, Control_c, 0, 64, 99
1, 287420, Control_c, 0, 64, 102
1, 287435, Control_c, 0, 64, 105
1, 287450, Control_c, 0, 64, 110
1, 287464, Control_c, 0, 64, 115
1, 287479, Control_c, 0, 64, 127
1, 290804, Note_on_c, 0, 74, 41
1, 290805, Note_on_c, 0, 70, 32
1, 291672, Note_off_c, 0, 74, 22
1, 291845, Note_off_c, 0, 70, 21
1, 296185, Note_off_c, 0, 65, 28
1, 296272, Control_c, 0, 64, 125
1, 296287, Control_c, 0, 64, 121
1, 296302, Control_c, 0, 64, 117
1, 296331, Control_c, 0, 64, 113
1, 296361, Control_c, 0, 64, 110
1, 296391, Control_c, 0, 64, 107
1, 296420, Control_c, 0, 64, 104
1, 296465, Control_c, 0, 64, 102
1, 296524, Control_c, 0, 64, 99
1, 296591, Control_c, 0, 64, 97
1, 296620, Control_c, 0, 64, 95
1, 296635, Control_c, 0, 64, 95
1, 296650, Control_c, 0, 64, 94
1, 296680, Control_c, 0, 64, 93
1, 296695, Control_c, 0, 64, 93
1, 296710, Control_c, 0, 64, 92
1, 296724, Control_c, 0, 64, 92
1, 296739, Control_c, 0, 64, 91
1, 296754, Control_c, 0, 64, 91
1, 296769, Control_c, 0, 64, 90
1, 296798, Control_c, 0, 64, 90
1, 296813, Control_c, 0, 64, 89
1, 296828, Control_c, 0, 64, 89
1, 296843, Control_c, 0, 64, 88
1, 296856, Note_off_c, 0, 62, 27
1, 296857, Control_c, 0, 64, 88
1, 296872, Control_c, 0, 64, 87
1, 296902, Control_c, 0, 64, 87
1, 296917, Control_c, 0, 64, 86
1, 296931, Control_c, 0, 64, 86
1, 296946, Control_c, 0, 64, 85
1, 296976, Control_c, 0, 64, 85
1, 296990, Control_c, 0, 64, 84
1, 297005, Control_c, 0, 64, 84
1, 297020, Control_c, 0, 64, 83
1, 297035, Control_c, 0, 64, 83
1, 297050, Control_c, 0, 64, 82
1, 297080, Control_c, 0, 64, 82
1, 297095, Control_c, 0, 64, 81
1, 297124, Control_c, 0, 64, 81
1, 297139, Control_c, 0, 64, 80
1, 297169, Control_c, 0, 64, 80
1, 297184, Control_c, 0, 64, 79
1, 297198, Control_c, 0, 64, 79
1, 297213, Control_c, 0, 64, 78
1, 297242, Control_c, 0, 64, 78
1, 297257, Control_c, 0, 64, 77
1, 297272, Control_c, 0, 64, 77
1, 297302, Control_c, 0, 64, 76
1, 297324, Control_c, 0, 64, 76
1, 297354, Control_c, 0, 64, 75
1, 297383, Control_c, 0, 64, 75
1, 297413, Control_c, 0, 64, 74
1, 297442, Control_c, 0, 64, 74
1, 297473, Control_c, 0, 64, 73
1, 297503, Control_c, 0, 64, 73
1, 297548, Control_c, 0, 64, 72
1, 297578, Control_c, 0, 64, 72
1, 297622, Control_c, 0, 64, 71
1, 297652, Control_c, 0, 64, 71
1, 297696, Control_c, 0, 64, 70
1, 297740, Control_c, 0, 64, 70
1, 297785, Control_c, 0, 64, 69
1, 297829, Control_c, 0, 64, 69
1, 297888, Control_c, 0, 64, 68
1, 297947, Control_c, 0, 64, 68
1, 298051, Control_c, 0, 64, 67
1, 298133, Control_c, 0, 64, 67
1, 298221, Control_c, 0, 64, 66
1, 298296, Control_c, 0, 64, 66
1, 298400, Control_c, 0, 64, 65
1, 298533, Control_c, 0, 64, 65
1, 298621, Control_c, 0, 64, 64
1, 298681, Control_c, 0, 64, 64
1, 298770, Control_c, 0, 64, 63
1, 298910, Control_c, 0, 64, 63
1, 299074, Control_c, 0, 64, 62
1, 299252, Control_c, 0, 64, 62
1, 299533, Control_c, 0, 64, 61
1, 299822, Control_c, 0, 64, 61
1, 300868, Control_c, 0, 64, 60
1, 301217, Control_c, 0, 64, 60
1, 301513, Note_off_c, 0, 58, 1
1, 301529, Control_c, 0, 64, 59
1, 301781, Control_c, 0, 64, 59
1, 302084, Control_c, 0, 64, 58
1, 302217, Control_c, 0, 64, 58
1, 302395, Control_c, 0, 64, 57
1, 302581, Control_c, 0, 64, 57
1, 302655, Control_c, 0, 64, 56
1, 302729, Control_c, 0, 64, 56
1, 302773, Control_c, 0, 64, 55
1, 302833, Control_c, 0, 64, 55
1, 302877, Control_c, 0, 64, 54
1, 302936, Control_c, 0, 64, 54
1, 302966, Control_c, 0, 64, 53
1, 302995, Control_c, 0, 64, 53
1, 303040, Control_c, 0, 64, 52
1, 303085, Control_c, 0, 64, 52
1, 303145, Control_c, 0, 64, 51
1, 303189, Control_c, 0, 64, 51
1, 303233, Control_c, 0, 64, 50
1, 303292, Control_c, 0, 64, 50
1, 303345, Control_c, 0, 64, 49
1, 303389, Control_c, 0, 64, 49
1, 303418, Control_c, 0, 64, 48
1, 303448, Control_c, 0, 64, 48
1, 303463, Control_c, 0, 64, 47
1, 303478, Control_c, 0, 64, 47
1, 303492, Control_c, 0, 64, 46
1, 303507, Control_c, 0, 64, 46
1, 303522, Control_c, 0, 64, 45
1, 303536, Control_c, 0, 64, 44
1, 303551, Control_c, 0, 64, 43
1, 303566, Note_off_c, 0, 53, 1
1, 303566, Control_c, 0, 64, 42
1, 303581, Control_c, 0, 64, 41
1, 303596, Control_c, 0, 64, 40
1, 303611, Control_c, 0, 64, 40
1, 303626, Control_c, 0, 64, 39
1, 303641, Control_c, 0, 64, 38
1, 303656, Control_c, 0, 64, 37
1, 303670, Control_c, 0, 64, 35
1, 303685, Control_c, 0, 64, 34
1, 303700, Control_c, 0, 64, 33
1, 303715, Control_c, 0, 64, 32
1, 303759, Control_c, 0, 64, 30
1, 303789, Control_c, 0, 64, 27
1, 303818, Control_c, 0, 64, 0
1, 304242, Control_c, 0, 67, 123
1, 304257, Control_c, 0, 67, 104
1, 304272, Control_c, 0, 67, 85
1, 304287, Control_c, 0, 67, 66
1, 304302, Control_c, 0, 67, 43
1, 304316, Control_c, 0, 67, 0
1, 304316, End_track
0, 0, End_of_file
