0, 0, Header, 0, 1, 384
1, 0, Start_track
1, 0, Title_t, "Etude No. 4 in E--Tracy Wong       "
1, 0, Text_t, "2008 e-Piano Junior Competition virtual audition round"
1, 0, Text_t, "recorded January and February 2008"
1, 0, Text_t, "http://www.piano-e-competition.com/"
1, 0, Text_t, "File processed for distribution by software from Zenph Studios, Inc., http://www.zenph.com"
1, 0, Instrument_name_t, "Yamaha Disklavier Pro Mark IV concert grand piano, model DCFIIISM4PRO"
1, 0, Sequencer_specific, 39, 67, 113, 0, 1, 0, 1, 0, 69, 116, 117, 100, 101, 32, 78, 111, 46, 32, 52, 32, 105, 110, 32, 69, 84, 114, 97, 99, 121, 32, 87, 111, 110, 103, 32, 32, 32, 32, 32, 32
1, 0, Sequencer_specific, 6, 67, 113, 0, 0, 0, 69
1, 0, System_exclusive, 21, 67, 113, 126, 21, 0, 2, 2, 0, 3, 3, 13, 4, 7, 8, 1, 2, 6, 0, 5, 3, 247
1, 0, Sequencer_specific, 5, 67, 123, 12, 2, 1
1, 0, Tempo, 512820
1, 0, Time_signature, 4, 2, 24, 8
1, 0, System_exclusive, 5, 126, 127, 9, 1, 247
1, 1, System_exclusive, 8, 67, 16, 76, 0, 0, 126, 0, 247
1, 2, System_exclusive, 8, 67, 16, 76, 8, 9, 7, 1, 247
1, 3, Control_c, 0, 0, 0
1, 3, Control_c, 1, 0, 0
1, 3, Control_c, 2, 0, 0
1, 3, Control_c, 3, 0, 0
1, 3, Control_c, 4, 0, 0
1, 3, Control_c, 5, 0, 0
1, 3, Control_c, 6, 0, 0
1, 3, Control_c, 7, 0, 0
1, 3, Control_c, 8, 0, 0
1, 3, Control_c, 9, 0, 127
1, 3, Control_c, 10, 0, 0
1, 3, Control_c, 11, 0, 0
1, 3, Control_c, 12, 0, 0
1, 3, Control_c, 13, 0, 0
1, 3, Control_c, 14, 0, 0
1, 3, Control_c, 15, 0, 0
1, 4, Control_c, 0, 32, 0
1, 4, Control_c, 1, 32, 0
1, 4, Control_c, 2, 32, 0
1, 4, Control_c, 3, 32, 0
1, 4, Control_c, 4, 32, 0
1, 4, Control_c, 5, 32, 0
1, 4, Control_c, 6, 32, 0
1, 4, Control_c, 7, 32, 0
1, 4, Control_c, 8, 32, 0
1, 4, Control_c, 9, 32, 0
1, 4, Control_c, 10, 32, 0
1, 4, Control_c, 11, 32, 0
1, 4, Control_c, 12, 32, 0
1, 4, Control_c, 13, 32, 0
1, 4, Control_c, 14, 32, 0
1, 4, Control_c, 15, 32, 0
1, 5, Program_c, 0, 0
1, 5, Program_c, 1, 0
1, 5, Program_c, 2, 0
1, 5, Program_c, 3, 0
1, 5, Program_c, 4, 0
1, 5, Program_c, 5, 0
1, 5, Program_c, 6, 0
1, 5, Program_c, 7, 0
1, 5, Program_c, 8, 0
1, 5, Program_c, 9, 0
1, 5, Program_c, 10, 0
1, 5, Program_c, 11, 0
1, 5, Program_c, 12, 0
1, 5, Program_c, 13, 0
1, 5, Program_c, 14, 0
1, 5, Program_c, 15, 0
1, 6, Control_c, 0, 7, 100
1, 6, Control_c, 1, 7, 100
1, 6, Control_c, 2, 7, 100
1, 6, Control_c, 3, 7, 100
1, 6, Control_c, 4, 7, 100
1, 6, Control_c, 5, 7, 100
1, 6, Control_c, 6, 7, 100
1, 6, Control_c, 7, 7, 100
1, 6, Control_c, 8, 7, 100
1, 6, Control_c, 9, 7, 100
1, 6, Control_c, 10, 7, 100
1, 6, Control_c, 11, 7, 100
1, 6, Control_c, 12, 7, 100
1, 6, Control_c, 13, 7, 100
1, 6, Control_c, 14, 7, 100
1, 6, Control_c, 15, 7, 100
1, 1129, Note_on_c, 0, 64, 63
1, 1162, Note_off_c, 0, 64, 64
1, 1191, Note_on_c, 0, 68, 58
1, 1262, Note_on_c, 0, 71, 56
1, 1278, Note_off_c, 0, 68, 56
1, 1313, Note_off_c, 0, 71, 60
1, 1315, Note_on_c, 0, 76, 63
1, 1354, Note_off_c, 0, 76, 58
1, 1380, Note_on_c, 0, 76, 82
1, 1395, Note_off_c, 0, 76, 62
1, 1464, Note_on_c, 0, 71, 54
1, 1467, Note_on_c, 0, 76, 16
1, 1504, Note_on_c, 0, 68, 66
1, 1509, Note_off_c, 0, 76, 34
1, 1530, Note_off_c, 0, 71, 60
1, 1566, Note_off_c, 0, 68, 62
1, 1575, Note_on_c, 0, 64, 58
1, 1609, Note_off_c, 0, 64, 62
1, 1627, Note_on_c, 0, 63, 71
1, 1651, Note_off_c, 0, 63, 66
1, 1710, Note_on_c, 0, 66, 62
1, 1771, Note_on_c, 0, 71, 56
1, 1780, Note_off_c, 0, 66, 58
1, 1832, Note_on_c, 0, 78, 69
1, 1835, Note_off_c, 0, 71, 59
1, 1859, Note_off_c, 0, 78, 65
1, 1906, Note_on_c, 0, 78, 75
1, 1921, Note_off_c, 0, 78, 40
1, 1966, Note_on_c, 0, 71, 68
1, 2024, Note_on_c, 0, 66, 66
1, 2032, Note_off_c, 0, 71, 59
1, 2077, Note_on_c, 0, 63, 68
1, 2085, Note_off_c, 0, 66, 61
1, 2107, Note_off_c, 0, 63, 65
1, 2172, Note_on_c, 0, 64, 59
1, 2193, Note_off_c, 0, 64, 40
1, 2215, Note_on_c, 0, 68, 64
1, 2292, Note_off_c, 0, 68, 56
1, 2294, Note_on_c, 0, 71, 53
1, 2356, Note_on_c, 0, 76, 77
1, 2360, Note_off_c, 0, 71, 62
1, 2393, Note_off_c, 0, 76, 53
1, 2432, Note_on_c, 0, 76, 71
1, 2441, Note_off_c, 0, 76, 43
1, 2500, Note_on_c, 0, 71, 61
1, 2575, Note_on_c, 0, 68, 74
1, 2596, Note_off_c, 0, 71, 62
1, 2627, Note_off_c, 0, 68, 61
1, 2639, Note_on_c, 0, 64, 64
1, 2664, Note_off_c, 0, 64, 61
1, 2706, Note_on_c, 0, 59, 71
1, 2723, Note_off_c, 0, 59, 65
1, 2774, Note_on_c, 0, 66, 75
1, 2819, Note_off_c, 0, 66, 59
1, 2843, Note_on_c, 0, 75, 66
1, 2900, Note_on_c, 0, 83, 81
1, 2912, Note_off_c, 0, 75, 61
1, 2924, Note_off_c, 0, 83, 63
1, 2956, Note_on_c, 0, 83, 89
1, 2967, Note_off_c, 0, 83, 68
1, 3016, Note_on_c, 0, 83, 52
1, 3017, Note_off_c, 0, 83, 127
1, 3036, Note_on_c, 0, 75, 71
1, 3047, Note_on_c, 0, 76, 58
1, 3078, Note_off_c, 0, 76, 61
1, 3105, Note_off_c, 0, 75, 60
1, 3111, Note_on_c, 0, 66, 66
1, 3144, Note_off_c, 0, 66, 62
1, 3168, Note_on_c, 0, 59, 63
1, 3230, Note_on_c, 0, 64, 72
1, 3247, Note_off_c, 0, 59, 59
1, 3264, Note_off_c, 0, 64, 64
1, 3294, Note_on_c, 0, 68, 62
1, 3367, Note_on_c, 0, 71, 57
1, 3371, Note_off_c, 0, 68, 60
1, 3430, Note_on_c, 0, 76, 69
1, 3431, Note_off_c, 0, 71, 63
1, 3470, Note_off_c, 0, 76, 54
1, 3492, Note_on_c, 0, 76, 77
1, 3513, Note_off_c, 0, 76, 67
1, 3566, Note_on_c, 0, 71, 63
1, 3625, Note_on_c, 0, 68, 68
1, 3654, Note_off_c, 0, 71, 60
1, 3696, Note_off_c, 0, 68, 61
1, 3702, Note_on_c, 0, 64, 60
1, 3737, Note_off_c, 0, 64, 63
1, 3758, Note_on_c, 0, 63, 77
1, 3783, Note_off_c, 0, 63, 67
1, 3842, Note_on_c, 0, 66, 70
1, 3890, Note_on_c, 0, 71, 65
1, 3925, Note_off_c, 0, 66, 56
1, 3972, Note_on_c, 0, 78, 73
1, 3979, Note_off_c, 0, 71, 61
1, 4020, Note_off_c, 0, 78, 0
1, 4027, Note_on_c, 0, 78, 74
1, 4054, Note_off_c, 0, 78, 70
1, 4120, Note_on_c, 0, 71, 71
1, 4176, Note_on_c, 0, 66, 74
1, 4194, Note_off_c, 0, 71, 60
1, 4241, Note_on_c, 0, 63, 66
1, 4245, Note_off_c, 0, 66, 61
1, 4271, Note_off_c, 0, 63, 65
1, 4322, Note_on_c, 0, 64, 80
1, 4346, Note_off_c, 0, 64, 68
1, 4371, Note_on_c, 0, 68, 74
1, 4434, Note_on_c, 0, 71, 66
1, 4492, Note_off_c, 0, 68, 56
1, 4515, Note_on_c, 0, 76, 77
1, 4519, Note_off_c, 0, 71, 62
1, 4569, Note_off_c, 0, 76, 58
1, 4588, Note_on_c, 0, 76, 80
1, 4608, Note_off_c, 0, 76, 66
1, 4651, Note_on_c, 0, 71, 68
1, 4713, Note_on_c, 0, 68, 73
1, 4748, Note_off_c, 0, 71, 61
1, 4790, Note_on_c, 0, 64, 67
1, 4796, Note_off_c, 0, 68, 62
1, 4820, Note_off_c, 0, 64, 66
1, 4864, Note_on_c, 0, 59, 89
1, 4882, Note_off_c, 0, 59, 68
1, 4933, Note_on_c, 0, 66, 83
1, 4988, Note_off_c, 0, 66, 61
1, 5005, Note_on_c, 0, 75, 70
1, 5071, Note_on_c, 0, 83, 79
1, 5084, Note_off_c, 0, 75, 61
1, 5097, Note_off_c, 0, 83, 64
1, 5133, Note_on_c, 0, 83, 110
1, 5147, Note_off_c, 0, 83, 76
1, 5208, Note_on_c, 0, 75, 80
1, 5282, Note_on_c, 0, 66, 79
1, 5307, Note_off_c, 0, 75, 48
1, 5338, Note_off_c, 0, 66, 60
1, 5350, Note_on_c, 0, 59, 74
1, 5419, Note_on_c, 0, 56, 87
1, 5435, Note_off_c, 0, 59, 62
1, 5455, Note_off_c, 0, 56, 63
1, 5481, Note_on_c, 0, 64, 77
1, 5509, Note_off_c, 0, 64, 62
1, 5548, Note_on_c, 0, 71, 68
1, 5627, Note_on_c, 0, 80, 75
1, 5648, Note_off_c, 0, 71, 59
1, 5649, Note_off_c, 0, 80, 70
1, 5699, Note_on_c, 0, 80, 91
1, 5714, Note_off_c, 0, 80, 74
1, 5770, Note_on_c, 0, 71, 72
1, 5843, Note_on_c, 0, 64, 69
1, 5847, Note_off_c, 0, 71, 61
1, 5889, Note_off_c, 0, 64, 55
1, 5917, Note_on_c, 0, 56, 66
1, 5977, Note_on_c, 0, 57, 82
1, 6001, Note_off_c, 0, 56, 62
1, 6014, Note_off_c, 0, 57, 65
1, 6053, Note_on_c, 0, 64, 73
1, 6080, Note_off_c, 0, 64, 66
1, 6118, Note_on_c, 0, 73, 68
1, 6196, Note_on_c, 0, 81, 74
1, 6206, Note_off_c, 0, 73, 59
1, 6224, Note_off_c, 0, 81, 59
1, 6278, Note_on_c, 0, 85, 76
1, 6300, Note_off_c, 0, 85, 67
1, 6326, Note_on_c, 0, 86, 13
1, 6327, Note_off_c, 0, 86, 127
1, 6432, Note_on_c, 0, 88, 91
1, 6449, Note_off_c, 0, 88, 74
1, 6643, Note_on_c, 0, 58, 88
1, 6668, Note_off_c, 0, 58, 66
1, 6715, Note_on_c, 0, 66, 73
1, 6742, Note_off_c, 0, 66, 63
1, 6769, Note_on_c, 0, 73, 73
1, 6849, Note_on_c, 0, 82, 65
1, 6853, Note_off_c, 0, 73, 62
1, 6875, Note_off_c, 0, 82, 68
1, 6901, Note_on_c, 0, 82, 93
1, 6920, Note_off_c, 0, 82, 67
1, 6978, Note_on_c, 0, 73, 80
1, 6986, Note_on_c, 0, 82, 20
1, 6987, Note_off_c, 0, 82, 127
1, 7045, Note_off_c, 0, 73, 62
1, 7060, Note_on_c, 0, 66, 69
1, 7113, Note_off_c, 0, 66, 59
1, 7120, Note_on_c, 0, 58, 78
1, 7155, Note_off_c, 0, 58, 57
1, 7195, Note_on_c, 0, 59, 87
1, 7223, Note_off_c, 0, 59, 66
1, 7255, Note_on_c, 0, 66, 73
1, 7294, Note_off_c, 0, 66, 61
1, 7320, Note_on_c, 0, 75, 68
1, 7398, Note_on_c, 0, 83, 77
1, 7404, Note_off_c, 0, 75, 61
1, 7458, Note_off_c, 0, 83, 59
1, 7487, Note_on_c, 0, 87, 89
1, 7503, Note_off_c, 0, 87, 73
1, 7648, Note_on_c, 0, 90, 97
1, 7660, Note_off_c, 0, 90, 74
1, 7931, Note_on_c, 0, 63, 67
1, 7962, Note_off_c, 0, 63, 63
1, 7994, Note_on_c, 0, 71, 53
1, 8015, Note_off_c, 0, 71, 55
1, 8039, Note_on_c, 0, 78, 69
1, 8102, Note_off_c, 0, 78, 52
1, 8133, Note_on_c, 0, 87, 66
1, 8151, Note_off_c, 0, 87, 65
1, 8211, Note_on_c, 0, 87, 78
1, 8237, Note_off_c, 0, 87, 67
1, 8268, Note_on_c, 0, 78, 64
1, 8307, Note_off_c, 0, 78, 58
1, 8320, Note_on_c, 0, 71, 61
1, 8374, Note_off_c, 0, 71, 52
1, 8403, Note_on_c, 0, 63, 58
1, 8459, Note_on_c, 0, 64, 69
1, 8467, Note_off_c, 0, 63, 60
1, 8487, Note_off_c, 0, 64, 65
1, 8515, Note_on_c, 0, 71, 57
1, 8542, Note_off_c, 0, 71, 61
1, 8592, Note_on_c, 0, 80, 58
1, 8655, Note_on_c, 0, 88, 73
1, 8659, Note_off_c, 0, 80, 61
1, 8681, Note_off_c, 0, 88, 66
1, 8730, Note_on_c, 0, 88, 75
1, 8787, Note_off_c, 0, 88, 61
1, 8794, Note_on_c, 0, 80, 75
1, 8838, Note_off_c, 0, 80, 62
1, 8844, Note_on_c, 0, 71, 61
1, 8910, Note_off_c, 0, 71, 60
1, 8913, Note_on_c, 0, 64, 69
1, 8973, Note_on_c, 0, 66, 81
1, 8988, Note_off_c, 0, 64, 60
1, 9018, Note_off_c, 0, 66, 61
1, 9038, Note_on_c, 0, 75, 68
1, 9087, Note_off_c, 0, 75, 63
1, 9094, Note_on_c, 0, 83, 70
1, 9172, Note_off_c, 0, 83, 63
1, 9173, Note_on_c, 0, 90, 64
1, 9195, Note_off_c, 0, 90, 62
1, 9239, Note_on_c, 0, 90, 93
1, 9330, Note_on_c, 0, 83, 65
1, 9346, Note_off_c, 0, 90, 60
1, 9370, Note_on_c, 0, 75, 76
1, 9371, Note_off_c, 0, 83, 55
1, 9422, Note_off_c, 0, 75, 62
1, 9449, Note_on_c, 0, 66, 72
1, 9509, Note_on_c, 0, 68, 84
1, 9538, Note_off_c, 0, 66, 62
1, 9555, Note_off_c, 0, 68, 65
1, 9580, Note_on_c, 0, 76, 74
1, 9607, Note_off_c, 0, 76, 64
1, 9631, Note_on_c, 0, 83, 69
1, 9706, Note_on_c, 0, 92, 77
1, 9723, Note_off_c, 0, 83, 62
1, 9729, Note_off_c, 0, 92, 65
1, 9783, Note_on_c, 0, 92, 88
1, 9841, Note_off_c, 0, 92, 64
1, 9845, Note_on_c, 0, 83, 80
1, 9897, Note_off_c, 0, 83, 63
1, 9906, Note_on_c, 0, 76, 71
1, 9965, Note_off_c, 0, 76, 58
1, 9983, Note_on_c, 0, 68, 81
1, 10045, Note_on_c, 0, 69, 84
1, 10073, Note_off_c, 0, 68, 62
1, 10087, Note_off_c, 0, 69, 64
1, 10120, Note_on_c, 0, 76, 80
1, 10140, Note_off_c, 0, 76, 66
1, 10185, Note_on_c, 0, 85, 69
1, 10245, Note_on_c, 0, 93, 83
1, 10258, Note_off_c, 0, 85, 61
1, 10275, Note_off_c, 0, 93, 62
1, 10319, Note_on_c, 0, 93, 80
1, 10378, Note_on_c, 0, 85, 82
1, 10380, Note_off_c, 0, 93, 63
1, 10425, Note_off_c, 0, 85, 63
1, 10441, Note_on_c, 0, 76, 73
1, 10500, Note_off_c, 0, 76, 60
1, 10516, Note_on_c, 0, 69, 80
1, 10588, Note_on_c, 0, 70, 91
1, 10629, Note_off_c, 0, 69, 60
1, 10640, Control_c, 0, 64, 16
1, 10649, Note_on_c, 0, 79, 82
1, 10655, Control_c, 0, 64, 63
1, 10668, Note_off_c, 0, 79, 68
1, 10670, Control_c, 0, 64, 75
1, 10685, Control_c, 0, 64, 105
1, 10699, Control_c, 0, 64, 127
1, 10707, Note_on_c, 0, 88, 78
1, 10755, Note_off_c, 0, 70, 62
1, 10790, Note_on_c, 0, 97, 77
1, 10805, Note_off_c, 0, 88, 62
1, 10814, Note_off_c, 0, 97, 65
1, 10866, Note_on_c, 0, 97, 92
1, 10919, Note_off_c, 0, 97, 65
1, 10925, Note_on_c, 0, 88, 79
1, 10975, Note_off_c, 0, 88, 64
1, 11001, Note_on_c, 0, 79, 77
1, 11049, Note_off_c, 0, 79, 62
1, 11063, Control_c, 0, 64, 119
1, 11071, Note_on_c, 0, 70, 78
1, 11078, Control_c, 0, 64, 109
1, 11093, Control_c, 0, 64, 104
1, 11108, Control_c, 0, 64, 101
1, 11123, Control_c, 0, 64, 99
1, 11137, Control_c, 0, 64, 98
1, 11141, Note_on_c, 0, 73, 96
1, 11152, Control_c, 0, 64, 98
1, 11169, Note_off_c, 0, 70, 66
1, 11191, Note_off_c, 0, 73, 67
1, 11209, Note_on_c, 0, 82, 75
1, 11229, Note_off_c, 0, 82, 70
1, 11250, Note_on_c, 0, 91, 76
1, 11318, Note_on_c, 0, 100, 90
1, 11339, Note_off_c, 0, 91, 63
1, 11360, Note_off_c, 0, 100, 65
1, 11395, Note_on_c, 0, 100, 83
1, 11461, Note_on_c, 0, 91, 91
1, 11473, Note_off_c, 0, 100, 64
1, 11507, Poly_aftertouch_c, 0, 96, 127
1, 11518, Note_off_c, 0, 91, 65
1, 11536, Poly_aftertouch_c, 0, 96, 0
1, 11540, Note_on_c, 0, 82, 83
1, 11559, Control_c, 0, 64, 97
1, 11574, Control_c, 0, 64, 97
1, 11586, Note_off_c, 0, 82, 66
1, 11589, Note_on_c, 0, 73, 74
1, 11604, Control_c, 0, 64, 96
1, 11619, Control_c, 0, 64, 96
1, 11634, Control_c, 0, 64, 95
1, 11649, Control_c, 0, 64, 93
1, 11664, Control_c, 0, 64, 91
1, 11670, Note_on_c, 0, 70, 92
1, 11679, Control_c, 0, 64, 89
1, 11693, Control_c, 0, 64, 88
1, 11696, Note_off_c, 0, 73, 61
1, 11708, Control_c, 0, 64, 87
1, 11723, Control_c, 0, 64, 86
1, 11729, Note_on_c, 0, 79, 76
1, 11738, Control_c, 0, 64, 85
1, 11739, Note_off_c, 0, 70, 63
1, 11744, Note_off_c, 0, 79, 67
1, 11753, Control_c, 0, 64, 85
1, 11768, Control_c, 0, 64, 84
1, 11786, Note_on_c, 0, 88, 76
1, 11798, Control_c, 0, 64, 83
1, 11813, Control_c, 0, 64, 83
1, 11871, Note_on_c, 0, 97, 69
1, 11886, Note_off_c, 0, 97, 66
1, 11887, Note_off_c, 0, 88, 61
1, 11938, Note_on_c, 0, 97, 89
1, 11992, Note_off_c, 0, 97, 66
1, 12004, Note_on_c, 0, 88, 79
1, 12053, Note_off_c, 0, 88, 62
1, 12069, Note_on_c, 0, 79, 78
1, 12078, Control_c, 0, 64, 82
1, 12108, Control_c, 0, 64, 81
1, 12115, Note_off_c, 0, 79, 63
1, 12123, Control_c, 0, 64, 81
1, 12133, Note_on_c, 0, 70, 71
1, 12138, Control_c, 0, 64, 80
1, 12153, Control_c, 0, 64, 79
1, 12167, Control_c, 0, 64, 78
1, 12182, Control_c, 0, 64, 77
1, 12199, Note_on_c, 0, 67, 86
1, 12212, Control_c, 0, 64, 76
1, 12218, Note_off_c, 0, 70, 64
1, 12238, Note_off_c, 0, 67, 66
1, 12278, Note_on_c, 0, 76, 75
1, 12278, Control_c, 0, 64, 76
1, 12302, Note_off_c, 0, 76, 66
1, 12345, Note_on_c, 0, 85, 70
1, 12414, Note_on_c, 0, 94, 77
1, 12423, Note_off_c, 0, 85, 59
1, 12436, Note_off_c, 0, 94, 68
1, 12493, Note_on_c, 0, 94, 92
1, 12547, Note_off_c, 0, 94, 65
1, 12563, Note_on_c, 0, 85, 76
1, 12607, Note_off_c, 0, 85, 61
1, 12618, Note_on_c, 0, 76, 75
1, 12668, Note_off_c, 0, 76, 62
1, 12683, Note_on_c, 0, 67, 70
1, 12723, Control_c, 0, 64, 75
1, 12738, Control_c, 0, 64, 75
1, 12753, Control_c, 0, 64, 74
1, 12758, Note_on_c, 0, 64, 88
1, 12767, Note_off_c, 0, 67, 62
1, 12768, Control_c, 0, 64, 73
1, 12782, Control_c, 0, 64, 73
1, 12797, Control_c, 0, 64, 72
1, 12802, Note_off_c, 0, 64, 62
1, 12808, Note_on_c, 0, 73, 75
1, 12812, Control_c, 0, 64, 71
1, 12826, Control_c, 0, 64, 70
1, 12841, Control_c, 0, 64, 69
1, 12852, Note_off_c, 0, 73, 65
1, 12856, Control_c, 0, 64, 69
1, 12881, Note_on_c, 0, 82, 67
1, 12901, Control_c, 0, 64, 68
1, 12938, Note_on_c, 0, 91, 84
1, 12954, Note_off_c, 0, 82, 62
1, 12960, Control_c, 0, 64, 69
1, 12978, Note_off_c, 0, 91, 61
1, 13019, Note_on_c, 0, 91, 78
1, 13087, Note_on_c, 0, 82, 75
1, 13089, Note_off_c, 0, 91, 63
1, 13133, Note_off_c, 0, 82, 64
1, 13166, Note_on_c, 0, 73, 72
1, 13225, Note_on_c, 0, 64, 62
1, 13226, Note_off_c, 0, 73, 63
1, 13300, Note_on_c, 0, 61, 79
1, 13316, Note_off_c, 0, 64, 62
1, 13329, Note_off_c, 0, 61, 66
1, 13351, Note_on_c, 0, 70, 68
1, 13381, Note_off_c, 0, 70, 68
1, 13418, Note_on_c, 0, 79, 66
1, 13472, Control_c, 0, 64, 68
1, 13479, Note_on_c, 0, 88, 82
1, 13487, Note_off_c, 0, 79, 59
1, 13507, Note_off_c, 0, 88, 62
1, 13566, Note_on_c, 0, 88, 88
1, 13628, Note_on_c, 0, 79, 78
1, 13633, Note_off_c, 0, 88, 60
1, 13675, Note_off_c, 0, 79, 61
1, 13712, Note_on_c, 0, 70, 58
1, 13756, Note_off_c, 0, 70, 62
1, 13776, Note_on_c, 0, 61, 64
1, 13805, Control_c, 0, 64, 68
1, 13820, Control_c, 0, 64, 64
1, 13835, Control_c, 0, 64, 41
1, 13848, Note_on_c, 0, 59, 87
1, 13849, Control_c, 0, 64, 0
1, 13860, Note_off_c, 0, 61, 64
1, 13875, Note_off_c, 0, 59, 66
1, 13918, Note_on_c, 0, 66, 71
1, 13947, Note_off_c, 0, 66, 65
1, 13984, Note_on_c, 0, 75, 66
1, 14051, Note_on_c, 0, 83, 77
1, 14060, Note_off_c, 0, 75, 61
1, 14100, Note_off_c, 0, 83, 60
1, 14129, Note_on_c, 0, 87, 92
1, 14158, Note_off_c, 0, 87, 64
1, 14269, Note_on_c, 0, 90, 99
1, 14292, Note_off_c, 0, 90, 66
1, 14530, Note_on_c, 0, 57, 49
1, 14555, Note_off_c, 0, 57, 57
1, 14573, Note_on_c, 0, 63, 56
1, 14603, Note_off_c, 0, 63, 64
1, 14636, Note_on_c, 0, 71, 56
1, 14700, Note_on_c, 0, 78, 65
1, 14708, Note_off_c, 0, 71, 59
1, 14733, Note_off_c, 0, 78, 63
1, 14774, Note_on_c, 0, 78, 82
1, 14788, Note_off_c, 0, 78, 66
1, 14832, Note_on_c, 0, 71, 72
1, 14892, Note_on_c, 0, 63, 66
1, 14896, Note_off_c, 0, 71, 59
1, 14953, Note_off_c, 0, 63, 61
1, 14991, Note_on_c, 0, 57, 55
1, 15080, Note_on_c, 0, 56, 49
1, 15092, Note_off_c, 0, 57, 62
1, 15104, Note_off_c, 0, 56, 60
1, 15120, Note_on_c, 0, 64, 48
1, 15145, Note_off_c, 0, 64, 54
1, 15169, Note_on_c, 0, 71, 67
1, 15259, Note_on_c, 0, 80, 60
1, 15282, Note_off_c, 0, 71, 60
1, 15293, Note_off_c, 0, 80, 67
1, 15361, Note_on_c, 0, 83, 64
1, 15378, Note_off_c, 0, 83, 65
1, 15502, Note_on_c, 0, 88, 76
1, 15526, Note_off_c, 0, 88, 64
1, 15718, Note_on_c, 0, 57, 67
1, 15737, Note_off_c, 0, 57, 65
1, 15775, Note_on_c, 0, 63, 65
1, 15804, Note_off_c, 0, 63, 65
1, 15839, Note_on_c, 0, 71, 48
1, 15896, Note_on_c, 0, 78, 70
1, 15911, Note_off_c, 0, 71, 60
1, 15934, Note_off_c, 0, 78, 61
1, 15968, Note_on_c, 0, 78, 71
1, 15980, Note_off_c, 0, 78, 51
1, 16038, Note_on_c, 0, 71, 75
1, 16105, Note_on_c, 0, 63, 68
1, 16107, Note_off_c, 0, 71, 60
1, 16165, Note_off_c, 0, 63, 61
1, 16178, Note_on_c, 0, 57, 63
1, 16262, Note_off_c, 0, 57, 62
1, 16263, Note_on_c, 0, 56, 75
1, 16288, Note_off_c, 0, 56, 66
1, 16320, Note_on_c, 0, 64, 55
1, 16341, Note_off_c, 0, 64, 59
1, 16371, Note_on_c, 0, 71, 61
1, 16453, Note_on_c, 0, 80, 70
1, 16454, Note_off_c, 0, 71, 56
1, 16486, Note_off_c, 0, 80, 63
1, 16549, Note_on_c, 0, 83, 69
1, 16563, Note_off_c, 0, 83, 67
1, 16699, Note_on_c, 0, 88, 72
1, 16715, Note_off_c, 0, 88, 69
1, 16900, Note_on_c, 0, 57, 86
1, 16919, Note_off_c, 0, 57, 71
1, 17047, Note_on_c, 0, 61, 87
1, 17047, Note_on_c, 0, 64, 82
1, 17051, Note_on_c, 0, 81, 90
1, 17053, Note_on_c, 0, 69, 91
1, 17054, Note_on_c, 0, 73, 91
1, 17056, Note_on_c, 0, 76, 84
1, 17075, Note_off_c, 0, 69, 66
1, 17076, Note_on_c, 0, 77, 65
1, 17083, Note_off_c, 0, 64, 61
1, 17091, Note_off_c, 0, 61, 61
1, 17092, Note_off_c, 0, 81, 64
1, 17092, Note_off_c, 0, 77, 66
1, 17098, Note_off_c, 0, 73, 66
1, 17098, Note_off_c, 0, 76, 61
1, 17203, Note_on_c, 0, 59, 92
1, 17257, Note_off_c, 0, 59, 62
1, 17356, Note_on_c, 0, 71, 95
1, 17357, Note_on_c, 0, 68, 100
1, 17358, Note_on_c, 0, 76, 87
1, 17358, Note_on_c, 0, 83, 93
1, 17361, Note_on_c, 0, 80, 86
1, 17369, Note_on_c, 0, 64, 79
1, 17396, Note_off_c, 0, 71, 63
1, 17399, Note_on_c, 0, 78, 47
1, 17402, Note_off_c, 0, 83, 64
1, 17405, Note_off_c, 0, 76, 62
1, 17405, Note_off_c, 0, 64, 60
1, 17408, Note_off_c, 0, 68, 61
1, 17417, Note_off_c, 0, 80, 65
1, 17423, Note_off_c, 0, 78, 54
1, 17521, Note_on_c, 0, 61, 82
1, 17569, Note_off_c, 0, 61, 64
1, 17664, Note_on_c, 0, 85, 93
1, 17665, Note_on_c, 0, 73, 92
1, 17669, Note_on_c, 0, 69, 94
1, 17672, Note_on_c, 0, 64, 91
1, 17673, Note_on_c, 0, 76, 80
1, 17700, Note_off_c, 0, 76, 62
1, 17705, Note_on_c, 0, 81, 38
1, 17706, Note_off_c, 0, 85, 67
1, 17706, Note_off_c, 0, 69, 64
1, 17709, Note_off_c, 0, 73, 65
1, 17715, Note_off_c, 0, 64, 62
1, 17733, Note_off_c, 0, 81, 35
1, 17823, Note_on_c, 0, 60, 84
1, 17874, Note_off_c, 0, 60, 60
1, 17959, Note_on_c, 0, 72, 98
1, 17961, Note_on_c, 0, 70, 98
1, 17961, Note_on_c, 0, 84, 92
1, 17966, Note_on_c, 0, 76, 88
1, 17967, Note_on_c, 0, 79, 81
1, 17971, Note_on_c, 0, 67, 79
1, 17973, Note_on_c, 0, 64, 77
1, 17983, Note_on_c, 0, 81, 66
1, 17998, Note_off_c, 0, 72, 66
1, 18000, Note_off_c, 0, 67, 65
1, 18001, Note_off_c, 0, 70, 67
1, 18004, Note_off_c, 0, 64, 66
1, 18005, Note_off_c, 0, 84, 62
1, 18010, Note_off_c, 0, 81, 67
1, 18018, Note_off_c, 0, 79, 60
1, 18028, Note_off_c, 0, 76, 59
1, 18123, Note_on_c, 0, 59, 88
1, 18176, Note_off_c, 0, 59, 61
1, 18259, Note_on_c, 0, 68, 105
1, 18259, Note_on_c, 0, 71, 95
1, 18268, Note_on_c, 0, 76, 88
1, 18269, Note_on_c, 0, 83, 88
1, 18270, Note_on_c, 0, 64, 87
1, 18270, Note_on_c, 0, 80, 89
1, 18305, Note_off_c, 0, 71, 64
1, 18309, Note_off_c, 0, 68, 65
1, 18310, Note_off_c, 0, 83, 63
1, 18314, Note_off_c, 0, 64, 64
1, 18319, Note_off_c, 0, 76, 61
1, 18324, Note_off_c, 0, 80, 67
1, 18421, Note_on_c, 0, 59, 80
1, 18474, Note_off_c, 0, 59, 60
1, 18571, Note_on_c, 0, 71, 90
1, 18571, Note_on_c, 0, 83, 93
1, 18573, Note_on_c, 0, 69, 92
1, 18573, Note_on_c, 0, 66, 100
1, 18576, Note_on_c, 0, 75, 91
1, 18580, Note_on_c, 0, 78, 87
1, 18592, Note_on_c, 0, 80, 67
1, 18603, Note_off_c, 0, 69, 62
1, 18609, Note_off_c, 0, 66, 66
1, 18609, Note_off_c, 0, 71, 59
1, 18615, Note_off_c, 0, 80, 70
1, 18615, Note_off_c, 0, 83, 64
1, 18618, Note_off_c, 0, 75, 65
1, 18622, Note_off_c, 0, 78, 65
1, 18749, Note_on_c, 0, 64, 102
1, 19083, Note_on_c, 0, 71, 104
1, 19088, Note_on_c, 0, 68, 97
1, 19088, Note_on_c, 0, 88, 93
1, 19089, Note_on_c, 0, 76, 99
1, 19092, Note_on_c, 0, 80, 95
1, 19095, Note_on_c, 0, 83, 92
1, 19104, Note_on_c, 0, 85, 80
1, 19122, Note_off_c, 0, 71, 65
1, 19123, Note_off_c, 0, 88, 65
1, 19124, Note_off_c, 0, 85, 69
1, 19125, Note_off_c, 0, 76, 65
1, 19130, Note_off_c, 0, 64, 64
1, 19130, Note_off_c, 0, 68, 67
1, 19136, Note_off_c, 0, 83, 65
1, 19142, Note_off_c, 0, 80, 68
1, 19450, Note_on_c, 0, 64, 48
1, 19476, Note_off_c, 0, 64, 55
1, 19507, Note_on_c, 0, 67, 56
1, 19572, Note_off_c, 0, 67, 52
1, 19580, Note_on_c, 0, 71, 56
1, 19643, Note_off_c, 0, 71, 60
1, 19647, Note_on_c, 0, 76, 63
1, 19676, Note_off_c, 0, 76, 65
1, 19714, Note_on_c, 0, 76, 77
1, 19730, Note_off_c, 0, 76, 41
1, 19787, Note_on_c, 0, 71, 62
1, 19849, Note_on_c, 0, 67, 62
1, 19881, Note_off_c, 0, 71, 59
1, 19892, Note_off_c, 0, 67, 58
1, 19936, Note_on_c, 0, 64, 42
1, 19966, Note_off_c, 0, 64, 50
1, 19979, Note_on_c, 0, 63, 67
1, 20008, Note_off_c, 0, 63, 65
1, 20068, Note_on_c, 0, 66, 56
1, 20126, Note_on_c, 0, 71, 63
1, 20141, Note_off_c, 0, 66, 60
1, 20195, Note_on_c, 0, 78, 66
1, 20207, Note_off_c, 0, 71, 62
1, 20219, Note_off_c, 0, 78, 68
1, 20251, Note_on_c, 0, 78, 97
1, 20267, Note_off_c, 0, 78, 73
1, 20312, Note_on_c, 0, 71, 73
1, 20390, Note_on_c, 0, 66, 70
1, 20403, Note_off_c, 0, 71, 56
1, 20443, Note_on_c, 0, 63, 65
1, 20455, Note_off_c, 0, 66, 61
1, 20472, Note_off_c, 0, 63, 65
1, 20519, Note_on_c, 0, 64, 75
1, 20545, Note_off_c, 0, 64, 66
1, 20587, Note_on_c, 0, 67, 63
1, 20648, Note_on_c, 0, 71, 63
1, 20723, Note_on_c, 0, 76, 70
1, 20723, Note_off_c, 0, 67, 37
1, 20727, Note_off_c, 0, 71, 63
1, 20776, Note_off_c, 0, 76, 58
1, 20795, Note_on_c, 0, 76, 70
1, 20809, Note_off_c, 0, 76, 62
1, 20854, Note_on_c, 0, 71, 71
1, 20928, Note_on_c, 0, 67, 71
1, 20947, Note_off_c, 0, 71, 58
1, 20986, Note_off_c, 0, 67, 59
1, 20992, Note_on_c, 0, 64, 64
1, 21025, Note_off_c, 0, 64, 64
1, 21073, Note_on_c, 0, 59, 76
1, 21096, Note_off_c, 0, 59, 66
1, 21135, Note_on_c, 0, 66, 78
1, 21176, Note_off_c, 0, 66, 60
1, 21203, Note_on_c, 0, 75, 70
1, 21271, Note_on_c, 0, 83, 71
1, 21287, Note_off_c, 0, 75, 61
1, 21297, Note_off_c, 0, 83, 67
1, 21335, Note_on_c, 0, 81, 78
1, 21336, Note_off_c, 0, 81, 127
1, 21338, Note_on_c, 0, 83, 57
1, 21339, Note_off_c, 0, 83, 127
1, 21393, Note_on_c, 0, 75, 83
1, 21457, Note_off_c, 0, 75, 65
1, 21480, Note_on_c, 0, 66, 60
1, 21511, Note_off_c, 0, 66, 64
1, 21556, Note_on_c, 0, 59, 51
1, 21561, Note_on_c, 0, 57, 41
1, 21589, Note_off_c, 0, 57, 58
1, 21605, Note_off_c, 0, 59, 58
1, 21614, Note_on_c, 0, 64, 73
1, 21642, Note_off_c, 0, 64, 66
1, 21673, Note_on_c, 0, 67, 59
1, 21732, Note_on_c, 0, 71, 66
1, 21757, Note_off_c, 0, 67, 53
1, 21797, Note_on_c, 0, 76, 70
1, 21797, Note_off_c, 0, 71, 63
1, 21848, Note_off_c, 0, 76, 58
1, 21873, Note_on_c, 0, 76, 68
1, 21886, Note_off_c, 0, 76, 59
1, 21927, Note_on_c, 0, 71, 69
1, 21998, Note_on_c, 0, 67, 67
1, 22039, Note_off_c, 0, 71, 57
1, 22071, Note_off_c, 0, 67, 60
1, 22085, Note_on_c, 0, 64, 60
1, 22117, Note_off_c, 0, 64, 64
1, 22155, Note_on_c, 0, 63, 67
1, 22183, Note_off_c, 0, 63, 64
1, 22226, Note_on_c, 0, 66, 74
1, 22285, Note_on_c, 0, 71, 60
1, 22291, Note_off_c, 0, 66, 59
1, 22362, Note_on_c, 0, 78, 73
1, 22367, Note_off_c, 0, 71, 62
1, 22404, Note_off_c, 0, 78, 0
1, 22412, Note_on_c, 0, 78, 78
1, 22431, Note_off_c, 0, 78, 70
1, 22486, Note_on_c, 0, 71, 74
1, 22552, Note_on_c, 0, 66, 73
1, 22574, Note_off_c, 0, 71, 60
1, 22625, Note_on_c, 0, 63, 59
1, 22629, Note_off_c, 0, 66, 61
1, 22656, Note_off_c, 0, 63, 62
1, 22690, Note_on_c, 0, 64, 84
1, 22713, Note_off_c, 0, 64, 69
1, 22770, Note_on_c, 0, 67, 67
1, 22830, Note_on_c, 0, 71, 72
1, 22884, Note_off_c, 0, 67, 59
1, 22908, Note_on_c, 0, 76, 80
1, 22913, Note_off_c, 0, 71, 63
1, 22958, Note_off_c, 0, 76, 61
1, 22970, Note_on_c, 0, 76, 85
1, 22988, Note_off_c, 0, 76, 71
1, 23033, Note_on_c, 0, 71, 72
1, 23106, Note_on_c, 0, 67, 74
1, 23146, Note_off_c, 0, 71, 60
1, 23178, Note_off_c, 0, 67, 61
1, 23179, Note_on_c, 0, 64, 73
1, 23215, Note_off_c, 0, 64, 63
1, 23245, Note_on_c, 0, 59, 90
1, 23265, Note_off_c, 0, 59, 68
1, 23324, Note_on_c, 0, 66, 82
1, 23370, Note_off_c, 0, 66, 63
1, 23400, Note_on_c, 0, 75, 69
1, 23457, Note_on_c, 0, 83, 77
1, 23477, Note_off_c, 0, 75, 60
1, 23482, Note_off_c, 0, 83, 62
1, 23525, Note_on_c, 0, 83, 98
1, 23540, Note_off_c, 0, 83, 75
1, 23599, Note_on_c, 0, 75, 80
1, 23629, Note_on_c, 0, 76, 51
1, 23654, Note_off_c, 0, 76, 58
1, 23679, Note_off_c, 0, 75, 54
1, 23689, Note_on_c, 0, 66, 76
1, 23745, Note_on_c, 0, 59, 66
1, 23751, Note_off_c, 0, 66, 60
1, 23771, Note_off_c, 0, 59, 65
1, 23814, Note_on_c, 0, 59, 85
1, 23832, Note_off_c, 0, 59, 68
1, 23879, Note_on_c, 0, 66, 68
1, 23909, Note_off_c, 0, 66, 66
1, 23945, Note_on_c, 0, 74, 69
1, 24019, Note_on_c, 0, 83, 77
1, 24044, Note_off_c, 0, 74, 53
1, 24057, Note_off_c, 0, 83, 58
1, 24090, Note_on_c, 0, 83, 91
1, 24106, Note_off_c, 0, 83, 71
1, 24157, Note_on_c, 0, 74, 79
1, 24219, Note_on_c, 0, 66, 71
1, 24227, Note_off_c, 0, 74, 62
1, 24291, Note_off_c, 0, 66, 60
1, 24305, Note_on_c, 0, 59, 73
1, 24377, Note_on_c, 0, 57, 80
1, 24389, Note_off_c, 0, 59, 62
1, 24398, Note_off_c, 0, 57, 70
1, 24445, Note_on_c, 0, 66, 68
1, 24472, Note_off_c, 0, 66, 66
1, 24505, Note_on_c, 0, 74, 68
1, 24580, Note_on_c, 0, 84, 69
1, 24597, Note_off_c, 0, 84, 64
1, 24613, Note_off_c, 0, 74, 30
1, 24653, Note_on_c, 0, 84, 108
1, 24668, Note_off_c, 0, 84, 73
1, 24725, Note_on_c, 0, 74, 80
1, 24781, Note_on_c, 0, 66, 71
1, 24795, Note_off_c, 0, 74, 59
1, 24842, Note_off_c, 0, 66, 60
1, 24862, Note_on_c, 0, 57, 73
1, 24887, Note_off_c, 0, 57, 67
1, 24938, Note_on_c, 0, 57, 90
1, 24964, Note_off_c, 0, 57, 70
1, 25030, Note_on_c, 0, 66, 65
1, 25057, Note_off_c, 0, 66, 65
1, 25072, Note_on_c, 0, 74, 67
1, 25157, Note_on_c, 0, 81, 73
1, 25166, Note_off_c, 0, 74, 59
1, 25183, Note_off_c, 0, 81, 61
1, 25219, Note_on_c, 0, 81, 97
1, 25236, Note_off_c, 0, 81, 72
1, 25281, Note_on_c, 0, 74, 85
1, 25312, Note_on_c, 0, 76, 28
1, 25346, Note_on_c, 0, 66, 70
1, 25346, Note_off_c, 0, 76, 32
1, 25364, Note_off_c, 0, 74, 61
1, 25402, Note_off_c, 0, 66, 60
1, 25432, Note_on_c, 0, 57, 63
1, 25471, Note_off_c, 0, 57, 58
1, 25500, Note_on_c, 0, 55, 62
1, 25541, Note_off_c, 0, 55, 60
1, 25543, Control_c, 0, 64, 46
1, 25558, Control_c, 0, 64, 63
1, 25573, Control_c, 0, 64, 71
1, 25587, Control_c, 0, 64, 91
1, 25592, Note_on_c, 0, 62, 64
1, 25602, Control_c, 0, 64, 107
1, 25617, Control_c, 0, 64, 112
1, 25625, Note_on_c, 0, 71, 60
1, 25628, Note_off_c, 0, 62, 60
1, 25632, Control_c, 0, 64, 115
1, 25643, Note_off_c, 0, 71, 64
1, 25720, Note_on_c, 0, 86, 65
1, 25737, Note_off_c, 0, 86, 64
1, 25802, Note_on_c, 0, 86, 65
1, 25818, Note_off_c, 0, 86, 65
1, 25846, Note_on_c, 0, 84, 11
1, 25853, Note_on_c, 0, 71, 82
1, 25892, Note_off_c, 0, 84, 39
1, 25900, Note_off_c, 0, 71, 57
1, 25906, Control_c, 0, 64, 113
1, 25906, Note_on_c, 0, 62, 72
1, 25921, Control_c, 0, 64, 111
1, 25936, Control_c, 0, 64, 109
1, 25951, Control_c, 0, 64, 105
1, 25965, Control_c, 0, 64, 103
1, 25970, Note_off_c, 0, 62, 50
1, 25980, Note_on_c, 0, 55, 72
1, 25980, Control_c, 0, 64, 100
1, 25995, Control_c, 0, 64, 96
1, 26009, Control_c, 0, 64, 94
1, 26017, Note_off_c, 0, 55, 61
1, 26024, Control_c, 0, 64, 92
1, 26040, Control_c, 0, 64, 91
1, 26055, Control_c, 0, 64, 90
1, 26070, Note_on_c, 0, 55, 83
1, 26102, Note_off_c, 0, 55, 66
1, 26114, Control_c, 0, 64, 89
1, 26131, Note_on_c, 0, 62, 59
1, 26142, Note_on_c, 0, 71, 90
1, 26196, Note_on_c, 0, 74, 72
1, 26218, Control_c, 0, 64, 89
1, 26221, Note_off_c, 0, 74, 61
1, 26224, Note_off_c, 0, 71, 60
1, 26232, Control_c, 0, 64, 88
1, 26247, Control_c, 0, 64, 87
1, 26262, Control_c, 0, 64, 86
1, 26273, Note_on_c, 0, 91, 85
1, 26277, Control_c, 0, 64, 86
1, 26282, Note_off_c, 0, 62, 46
1, 26293, Note_off_c, 0, 91, 69
1, 26345, Note_on_c, 0, 91, 82
1, 26365, Note_off_c, 0, 91, 72
1, 26389, Note_on_c, 0, 89, 44
1, 26395, Control_c, 0, 64, 85
1, 26410, Control_c, 0, 64, 84
1, 26415, Note_off_c, 0, 89, 39
1, 26420, Note_on_c, 0, 76, 77
1, 26425, Control_c, 0, 64, 83
1, 26440, Control_c, 0, 64, 82
1, 26455, Control_c, 0, 64, 82
1, 26470, Control_c, 0, 64, 81
1, 26473, Note_off_c, 0, 76, 60
1, 26478, Note_on_c, 0, 71, 80
1, 26485, Note_on_c, 0, 62, 62
1, 26506, Control_c, 0, 64, 81
1, 26511, Note_off_c, 0, 71, 68
1, 26521, Control_c, 0, 64, 80
1, 26550, Control_c, 0, 64, 80
1, 26565, Control_c, 0, 64, 78
1, 26576, Note_on_c, 0, 55, 75
1, 26580, Control_c, 0, 64, 78
1, 26589, Note_off_c, 0, 62, 56
1, 26595, Control_c, 0, 64, 76
1, 26610, Control_c, 0, 64, 75
1, 26616, Note_off_c, 0, 55, 61
1, 26625, Control_c, 0, 64, 75
1, 26639, Control_c, 0, 64, 74
1, 26654, Control_c, 0, 64, 74
1, 26687, Note_on_c, 0, 55, 74
1, 26702, Note_off_c, 0, 55, 69
1, 26713, Control_c, 0, 64, 73
1, 26716, Note_on_c, 0, 62, 36
1, 26741, Note_on_c, 0, 69, 46
1, 26741, Note_on_c, 0, 71, 81
1, 26766, Note_off_c, 0, 69, 59
1, 26787, Note_on_c, 0, 79, 75
1, 26797, Note_off_c, 0, 71, 65
1, 26810, Note_off_c, 0, 79, 68
1, 26860, Note_on_c, 0, 95, 87
1, 26881, Note_off_c, 0, 62, 55
1, 26881, Note_off_c, 0, 95, 65
1, 26934, Note_on_c, 0, 95, 86
1, 26954, Note_off_c, 0, 95, 65
1, 26955, Note_on_c, 0, 92, 63
1, 26986, Note_off_c, 0, 92, 63
1, 27012, Note_on_c, 0, 77, 76
1, 27015, Note_on_c, 0, 79, 67
1, 27037, Note_off_c, 0, 77, 68
1, 27062, Note_on_c, 0, 71, 84
1, 27063, Note_off_c, 0, 79, 62
1, 27069, Note_on_c, 0, 62, 63
1, 27081, Note_off_c, 0, 71, 70
1, 27144, Control_c, 0, 64, 73
1, 27154, Note_on_c, 0, 55, 75
1, 27168, Note_off_c, 0, 62, 58
1, 27173, Control_c, 0, 64, 72
1, 27187, Note_off_c, 0, 55, 65
1, 27188, Control_c, 0, 64, 72
1, 27203, Control_c, 0, 64, 71
1, 27218, Control_c, 0, 64, 71
1, 27263, Note_on_c, 0, 55, 82
1, 27290, Note_off_c, 0, 55, 66
1, 27303, Note_on_c, 0, 62, 37
1, 27331, Note_on_c, 0, 71, 89
1, 27369, Note_on_c, 0, 83, 77
1, 27388, Note_off_c, 0, 83, 70
1, 27404, Note_off_c, 0, 71, 61
1, 27442, Note_on_c, 0, 98, 89
1, 27462, Note_off_c, 0, 62, 56
1, 27474, Note_off_c, 0, 98, 63
1, 27491, Control_c, 0, 64, 71
1, 27519, Note_on_c, 0, 98, 83
1, 27521, Control_c, 0, 64, 72
1, 27542, Note_off_c, 0, 98, 70
1, 27565, Control_c, 0, 64, 72
1, 27571, Note_on_c, 0, 96, 42
1, 27582, Note_on_c, 0, 83, 83
1, 27603, Note_off_c, 0, 96, 33
1, 27640, Control_c, 0, 64, 72
1, 27641, Note_off_c, 0, 83, 63
1, 27647, Note_on_c, 0, 71, 81
1, 27647, Note_on_c, 0, 62, 65
1, 27666, Note_off_c, 0, 71, 70
1, 27714, Control_c, 0, 64, 71
1, 27729, Control_c, 0, 64, 69
1, 27730, Note_on_c, 0, 55, 77
1, 27737, Note_off_c, 0, 62, 58
1, 27743, Control_c, 0, 64, 63
1, 27758, Control_c, 0, 64, 39
1, 27773, Control_c, 0, 64, 0
1, 27790, Note_off_c, 0, 55, 61
1, 27799, Note_on_c, 0, 60, 72
1, 27857, Note_off_c, 0, 60, 59
1, 27863, Note_on_c, 0, 67, 61
1, 27901, Note_off_c, 0, 67, 59
1, 27929, Note_on_c, 0, 72, 63
1, 27934, Note_on_c, 0, 76, 61
1, 27963, Note_off_c, 0, 72, 64
1, 27972, Note_off_c, 0, 76, 58
1, 28001, Note_on_c, 0, 84, 76
1, 28025, Note_off_c, 0, 84, 67
1, 28050, Note_on_c, 0, 61, 63
1, 28082, Note_off_c, 0, 61, 65
1, 28181, Control_c, 0, 64, 55
1, 28196, Control_c, 0, 64, 78
1, 28207, Note_on_c, 0, 61, 70
1, 28210, Control_c, 0, 64, 127
1, 28211, Note_on_c, 0, 69, 94
1, 28214, Note_on_c, 0, 76, 99
1, 28214, Note_on_c, 0, 88, 102
1, 28220, Note_on_c, 0, 79, 96
1, 28229, Note_on_c, 0, 80, 66
1, 28246, Note_off_c, 0, 69, 64
1, 28246, Note_off_c, 0, 80, 65
1, 28248, Note_on_c, 0, 85, 46
1, 28252, Note_off_c, 0, 88, 64
1, 28252, Note_off_c, 0, 76, 62
1, 28259, Note_off_c, 0, 61, 64
1, 28270, Note_off_c, 0, 85, 57
1, 28271, Note_off_c, 0, 79, 62
1, 28299, Control_c, 0, 64, 103
1, 28314, Control_c, 0, 64, 85
1, 28329, Control_c, 0, 64, 80
1, 28344, Control_c, 0, 64, 78
1, 28358, Control_c, 0, 64, 76
1, 28373, Control_c, 0, 64, 72
1, 28388, Control_c, 0, 64, 67
1, 28396, Note_on_c, 0, 62, 58
1, 28402, Control_c, 0, 64, 56
1, 28417, Control_c, 0, 64, 0
1, 28452, Note_off_c, 0, 62, 55
1, 28458, Note_on_c, 0, 69, 69
1, 28491, Note_off_c, 0, 69, 62
1, 28522, Note_on_c, 0, 74, 69
1, 28525, Note_on_c, 0, 78, 65
1, 28548, Note_off_c, 0, 74, 67
1, 28564, Note_off_c, 0, 78, 57
1, 28579, Note_on_c, 0, 86, 75
1, 28602, Note_off_c, 0, 86, 67
1, 28638, Note_on_c, 0, 63, 72
1, 28670, Note_off_c, 0, 63, 65
1, 28781, Control_c, 0, 64, 62
1, 28796, Control_c, 0, 64, 84
1, 28811, Control_c, 0, 64, 127
1, 28813, Note_on_c, 0, 63, 82
1, 28813, Note_on_c, 0, 90, 95
1, 28814, Note_on_c, 0, 71, 95
1, 28814, Note_on_c, 0, 78, 98
1, 28822, Note_on_c, 0, 81, 78
1, 28843, Note_on_c, 0, 82, 46
1, 28846, Note_off_c, 0, 81, 65
1, 28846, Note_off_c, 0, 90, 65
1, 28850, Note_off_c, 0, 71, 67
1, 28857, Note_off_c, 0, 78, 63
1, 28858, Note_off_c, 0, 63, 64
1, 28861, Note_on_c, 0, 85, 10
1, 28862, Note_off_c, 0, 85, 127
1, 28866, Note_off_c, 0, 82, 51
1, 28974, Control_c, 0, 64, 109
1, 28989, Control_c, 0, 64, 96
1, 29004, Control_c, 0, 64, 81
1, 29016, Note_on_c, 0, 64, 67
1, 29019, Control_c, 0, 64, 66
1, 29033, Control_c, 0, 64, 24
1, 29048, Control_c, 0, 64, 0
1, 29071, Note_off_c, 0, 64, 60
1, 29083, Note_on_c, 0, 71, 70
1, 29116, Note_off_c, 0, 71, 62
1, 29120, Note_on_c, 0, 76, 69
1, 29178, Note_off_c, 0, 76, 54
1, 29199, Note_on_c, 0, 79, 69
1, 29200, Note_on_c, 0, 88, 73
1, 29227, Note_off_c, 0, 79, 65
1, 29228, Note_off_c, 0, 88, 66
1, 29268, Note_on_c, 0, 66, 79
1, 29292, Note_off_c, 0, 66, 68
1, 29389, Control_c, 0, 64, 58
1, 29404, Control_c, 0, 64, 74
1, 29419, Control_c, 0, 64, 108
1, 29427, Note_on_c, 0, 74, 95
1, 29427, Note_on_c, 0, 90, 101
1, 29430, Note_on_c, 0, 69, 87
1, 29431, Note_on_c, 0, 78, 90
1, 29434, Control_c, 0, 64, 127
1, 29440, Note_on_c, 0, 81, 75
1, 29455, Note_on_c, 0, 82, 41
1, 29462, Note_off_c, 0, 81, 69
1, 29465, Note_off_c, 0, 74, 63
1, 29469, Note_off_c, 0, 69, 58
1, 29469, Note_off_c, 0, 90, 65
1, 29473, Note_off_c, 0, 78, 58
1, 29479, Note_off_c, 0, 82, 37
1, 29538, Poly_aftertouch_c, 0, 85, 0
1, 29545, Control_c, 0, 64, 115
1, 29560, Control_c, 0, 64, 90
1, 29574, Control_c, 0, 64, 71
1, 29589, Control_c, 0, 64, 54
1, 29604, Control_c, 0, 64, 0
1, 29618, Note_on_c, 0, 67, 59
1, 29639, Note_off_c, 0, 67, 61
1, 29722, Control_c, 0, 64, 53
1, 29737, Control_c, 0, 64, 74
1, 29752, Control_c, 0, 64, 105
1, 29755, Note_on_c, 0, 74, 99
1, 29758, Note_on_c, 0, 79, 89
1, 29759, Note_on_c, 0, 91, 94
1, 29760, Note_on_c, 0, 83, 93
1, 29761, Note_on_c, 0, 71, 91
1, 29767, Control_c, 0, 64, 127
1, 29785, Note_off_c, 0, 79, 57
1, 29800, Note_off_c, 0, 91, 65
1, 29803, Note_off_c, 0, 71, 62
1, 29804, Note_off_c, 0, 74, 63
1, 29808, Note_off_c, 0, 83, 63
1, 29886, Control_c, 0, 64, 107
1, 29901, Control_c, 0, 64, 79
1, 29916, Control_c, 0, 64, 53
1, 29930, Control_c, 0, 64, 0
1, 29952, Note_on_c, 0, 69, 49
1, 29974, Note_on_c, 0, 71, 27
1, 29978, Note_off_c, 0, 69, 57
1, 30003, Note_off_c, 0, 71, 33
1, 30035, Control_c, 0, 64, 55
1, 30050, Control_c, 0, 64, 72
1, 30065, Control_c, 0, 64, 97
1, 30072, Note_on_c, 0, 78, 96
1, 30079, Control_c, 0, 64, 127
1, 30080, Note_on_c, 0, 81, 93
1, 30080, Note_on_c, 0, 93, 94
1, 30080, Note_on_c, 0, 74, 74
1, 30082, Note_on_c, 0, 86, 93
1, 30112, Note_off_c, 0, 81, 59
1, 30121, Note_off_c, 0, 93, 67
1, 30128, Note_off_c, 0, 78, 62
1, 30130, Note_off_c, 0, 74, 60
1, 30132, Note_off_c, 0, 86, 62
1, 30197, Control_c, 0, 64, 122
1, 30212, Control_c, 0, 64, 80
1, 30227, Control_c, 0, 64, 61
1, 30238, Note_on_c, 0, 71, 67
1, 30250, Control_c, 0, 64, 0
1, 30300, Note_off_c, 0, 71, 63
1, 30353, Control_c, 0, 64, 46
1, 30368, Control_c, 0, 64, 66
1, 30383, Control_c, 0, 64, 78
1, 30398, Control_c, 0, 64, 106
1, 30399, Note_on_c, 0, 74, 90
1, 30399, Note_on_c, 0, 79, 102
1, 30399, Note_on_c, 0, 95, 100
1, 30399, Note_on_c, 0, 83, 96
1, 30402, Note_on_c, 0, 86, 90
1, 30413, Control_c, 0, 64, 127
1, 30425, Note_on_c, 0, 92, 55
1, 30429, Note_off_c, 0, 83, 61
1, 30443, Control_c, 0, 64, 107
1, 30444, Note_off_c, 0, 79, 61
1, 30445, Note_off_c, 0, 92, 61
1, 30447, Note_off_c, 0, 95, 60
1, 30449, Note_off_c, 0, 74, 62
1, 30449, Note_off_c, 0, 86, 61
1, 30458, Control_c, 0, 64, 94
1, 30472, Control_c, 0, 64, 90
1, 30487, Control_c, 0, 64, 89
1, 30502, Control_c, 0, 64, 88
1, 30517, Control_c, 0, 64, 85
1, 30531, Control_c, 0, 64, 78
1, 30546, Control_c, 0, 64, 69
1, 30561, Control_c, 0, 64, 57
1, 30576, Control_c, 0, 64, 0
1, 30578, Note_on_c, 0, 72, 77
1, 30615, Note_off_c, 0, 72, 57
1, 30665, Control_c, 0, 64, 47
1, 30679, Control_c, 0, 64, 62
1, 30694, Control_c, 0, 64, 73
1, 30709, Control_c, 0, 64, 92
1, 30715, Note_on_c, 0, 84, 94
1, 30717, Note_on_c, 0, 96, 95
1, 30718, Note_on_c, 0, 79, 93
1, 30718, Note_on_c, 0, 88, 91
1, 30719, Note_on_c, 0, 76, 85
1, 30724, Control_c, 0, 64, 119
1, 30738, Control_c, 0, 64, 127
1, 30741, Note_off_c, 0, 84, 59
1, 30746, Note_off_c, 0, 76, 64
1, 30754, Note_off_c, 0, 96, 63
1, 30759, Note_off_c, 0, 88, 58
1, 30764, Note_off_c, 0, 79, 65
1, 30798, Control_c, 0, 64, 113
1, 30813, Control_c, 0, 64, 109
1, 30828, Control_c, 0, 64, 104
1, 30843, Control_c, 0, 64, 99
1, 30858, Control_c, 0, 64, 93
1, 30873, Control_c, 0, 64, 80
1, 30888, Control_c, 0, 64, 65
1, 30896, Note_on_c, 0, 73, 70
1, 30902, Control_c, 0, 64, 29
1, 30917, Control_c, 0, 64, 0
1, 30932, Control_c, 0, 64, 27
1, 30941, Note_on_c, 0, 79, 77
1, 30947, Control_c, 0, 64, 52
1, 30962, Control_c, 0, 64, 66
1, 30968, Note_off_c, 0, 73, 62
1, 30977, Control_c, 0, 64, 77
1, 30999, Control_c, 0, 64, 96
1, 31001, Note_on_c, 0, 82, 69
1, 31014, Control_c, 0, 64, 104
1, 31043, Note_on_c, 0, 88, 76
1, 31043, Control_c, 0, 64, 104
1, 31055, Note_off_c, 0, 79, 58
1, 31092, Note_off_c, 0, 88, 66
1, 31101, Note_on_c, 0, 94, 77
1, 31121, Note_off_c, 0, 82, 57
1, 31132, Control_c, 0, 64, 105
1, 31142, Note_on_c, 0, 100, 75
1, 31143, Note_off_c, 0, 94, 60
1, 31147, Control_c, 0, 64, 107
1, 31162, Control_c, 0, 64, 110
1, 31177, Control_c, 0, 64, 112
1, 31192, Control_c, 0, 64, 127
1, 31224, Note_on_c, 0, 103, 97
1, 31236, Note_off_c, 0, 100, 65
1, 31260, Note_off_c, 0, 103, 65
1, 31399, Control_c, 0, 64, 86
1, 31406, Note_on_c, 0, 61, 78
1, 31413, Control_c, 0, 64, 62
1, 31427, Note_off_c, 0, 61, 68
1, 31428, Control_c, 0, 64, 0
1, 31569, Note_on_c, 0, 62, 95
1, 31590, Note_off_c, 0, 62, 70
1, 31663, Note_on_c, 0, 83, 73
1, 31666, Note_on_c, 0, 86, 65
1, 31685, Note_off_c, 0, 83, 69
1, 31695, Note_off_c, 0, 86, 65
1, 31756, Note_on_c, 0, 81, 80
1, 31759, Note_on_c, 0, 84, 73
1, 31798, Note_off_c, 0, 84, 57
1, 31803, Note_off_c, 0, 81, 60
1, 31850, Note_on_c, 0, 83, 78
1, 31855, Note_on_c, 0, 79, 79
1, 31871, Note_on_c, 0, 59, 65
1, 31873, Note_off_c, 0, 83, 67
1, 31887, Note_off_c, 0, 79, 57
1, 31949, Note_on_c, 0, 81, 87
1, 31962, Note_on_c, 0, 78, 76
1, 31966, Note_on_c, 0, 60, 74
1, 31969, Note_off_c, 0, 59, 54
1, 31985, Note_off_c, 0, 78, 66
1, 32030, Note_off_c, 0, 81, 0
1, 32044, Note_on_c, 0, 76, 83
1, 32049, Note_on_c, 0, 61, 80
1, 32051, Note_on_c, 0, 79, 78
1, 32072, Note_off_c, 0, 60, 54
1, 32095, Note_off_c, 0, 76, 61
1, 32101, Note_off_c, 0, 79, 58
1, 32105, Poly_aftertouch_c, 0, 81, 0
1, 32134, Note_off_c, 0, 61, 62
1, 32148, Note_on_c, 0, 78, 89
1, 32151, Note_on_c, 0, 74, 81
1, 32152, Note_on_c, 0, 62, 87
1, 32174, Note_off_c, 0, 74, 67
1, 32174, Note_off_c, 0, 78, 64
1, 32176, Note_off_c, 0, 62, 67
1, 32253, Note_on_c, 0, 72, 85
1, 32254, Note_on_c, 0, 76, 76
1, 32280, Note_off_c, 0, 72, 64
1, 32283, Note_off_c, 0, 76, 60
1, 32345, Note_on_c, 0, 71, 71
1, 32348, Note_on_c, 0, 74, 64
1, 32376, Note_off_c, 0, 71, 60
1, 32379, Note_off_c, 0, 74, 64
1, 32441, Note_on_c, 0, 72, 76
1, 32448, Note_on_c, 0, 69, 67
1, 32454, Note_on_c, 0, 74, 73
1, 32463, Note_off_c, 0, 72, 68
1, 32476, Note_off_c, 0, 69, 64
1, 32479, Note_off_c, 0, 74, 62
1, 32569, Note_on_c, 0, 72, 30
1, 32570, Note_on_c, 0, 67, 55
1, 32586, Note_on_c, 0, 71, 37
1, 32592, Note_off_c, 0, 67, 59
1, 32600, Note_off_c, 0, 72, 54
1, 32615, Note_off_c, 0, 71, 34
1, 32655, Note_on_c, 0, 69, 35
1, 32657, Note_on_c, 0, 66, 64
1, 32684, Note_off_c, 0, 69, 56
1, 32685, Note_off_c, 0, 66, 65
1, 32769, Note_on_c, 0, 55, 58
1, 32790, Note_off_c, 0, 55, 59
1, 32844, Note_on_c, 0, 62, 56
1, 32872, Note_off_c, 0, 62, 53
1, 32914, Note_on_c, 0, 71, 61
1, 32951, Note_off_c, 0, 71, 61
1, 32974, Note_on_c, 0, 79, 65
1, 32994, Note_off_c, 0, 79, 58
1, 33055, Note_on_c, 0, 79, 76
1, 33069, Note_off_c, 0, 79, 69
1, 33120, Note_on_c, 0, 71, 64
1, 33191, Note_off_c, 0, 71, 54
1, 33196, Note_on_c, 0, 62, 55
1, 33246, Note_off_c, 0, 62, 60
1, 33285, Note_on_c, 0, 55, 57
1, 33312, Note_off_c, 0, 55, 61
1, 33353, Note_on_c, 0, 55, 70
1, 33382, Note_off_c, 0, 55, 63
1, 33432, Note_on_c, 0, 63, 58
1, 33462, Note_off_c, 0, 63, 64
1, 33482, Note_on_c, 0, 72, 59
1, 33565, Note_off_c, 0, 72, 59
1, 33570, Note_on_c, 0, 78, 32
1, 33571, Note_off_c, 0, 78, 127
1, 33589, Note_on_c, 0, 77, 37
1, 33618, Note_off_c, 0, 77, 45
1, 33626, Note_on_c, 0, 78, 87
1, 33636, Note_off_c, 0, 78, 67
1, 33680, Note_on_c, 0, 72, 79
1, 33691, Note_on_c, 0, 78, 42
1, 33717, Note_on_c, 0, 74, 43
1, 33719, Note_off_c, 0, 78, 41
1, 33742, Note_off_c, 0, 74, 52
1, 33755, Note_on_c, 0, 63, 80
1, 33764, Note_off_c, 0, 72, 60
1, 33803, Note_off_c, 0, 63, 59
1, 33839, Note_on_c, 0, 55, 66
1, 33871, Note_off_c, 0, 55, 64
1, 33926, Note_on_c, 0, 55, 93
1, 33966, Note_off_c, 0, 55, 63
1, 34036, Note_on_c, 0, 83, 87
1, 34039, Note_on_c, 0, 86, 84
1, 34077, Note_off_c, 0, 83, 64
1, 34091, Note_off_c, 0, 86, 59
1, 34119, Note_on_c, 0, 84, 65
1, 34128, Note_on_c, 0, 81, 85
1, 34190, Note_off_c, 0, 84, 60
1, 34217, Note_on_c, 0, 79, 84
1, 34220, Note_on_c, 0, 83, 80
1, 34227, Note_on_c, 0, 59, 79
1, 34234, Note_off_c, 0, 81, 64
1, 34258, Note_off_c, 0, 83, 62
1, 34271, Note_off_c, 0, 79, 63
1, 34312, Note_on_c, 0, 60, 80
1, 34325, Note_on_c, 0, 81, 87
1, 34333, Note_on_c, 0, 78, 81
1, 34348, Note_off_c, 0, 59, 56
1, 34375, Note_off_c, 0, 78, 55
1, 34405, Note_on_c, 0, 61, 85
1, 34417, Note_on_c, 0, 76, 81
1, 34417, Note_on_c, 0, 79, 72
1, 34419, Poly_aftertouch_c, 0, 78, 0
1, 34443, Note_off_c, 0, 60, 56
1, 34444, Note_off_c, 0, 81, 59
1, 34506, Note_on_c, 0, 62, 89
1, 34509, Note_on_c, 0, 78, 82
1, 34511, Note_on_c, 0, 74, 81
1, 34519, Note_off_c, 0, 76, 60
1, 34522, Note_off_c, 0, 79, 35
1, 34529, Note_off_c, 0, 61, 61
1, 34537, Note_off_c, 0, 74, 66
1, 34539, Note_off_c, 0, 78, 63
1, 34554, Note_off_c, 0, 62, 58
1, 34614, Note_on_c, 0, 72, 85
1, 34620, Note_on_c, 0, 76, 77
1, 34640, Note_off_c, 0, 76, 67
1, 34643, Note_off_c, 0, 72, 60
1, 34705, Note_on_c, 0, 71, 77
1, 34709, Note_on_c, 0, 74, 65
1, 34754, Note_off_c, 0, 74, 59
1, 34771, Note_off_c, 0, 71, 59
1, 34807, Note_on_c, 0, 72, 77
1, 34814, Note_on_c, 0, 74, 78
1, 34819, Note_on_c, 0, 69, 66
1, 34833, Note_off_c, 0, 72, 68
1, 34840, Note_off_c, 0, 74, 66
1, 34847, Note_off_c, 0, 69, 65
1, 34908, Note_on_c, 0, 71, 72
1, 34924, Note_on_c, 0, 67, 67
1, 34953, Note_off_c, 0, 67, 65
1, 34976, Note_off_c, 0, 71, 55
1, 35019, Note_on_c, 0, 69, 52
1, 35028, Note_on_c, 0, 66, 58
1, 35042, Note_off_c, 0, 69, 58
1, 35050, Note_off_c, 0, 66, 62
1, 35123, Note_on_c, 0, 55, 58
1, 35144, Note_off_c, 0, 55, 59
1, 35189, Note_on_c, 0, 62, 56
1, 35216, Note_off_c, 0, 62, 53
1, 35263, Note_on_c, 0, 71, 62
1, 35304, Note_off_c, 0, 71, 59
1, 35328, Note_on_c, 0, 79, 66
1, 35348, Note_off_c, 0, 79, 63
1, 35404, Note_on_c, 0, 79, 77
1, 35418, Note_off_c, 0, 79, 69
1, 35467, Note_on_c, 0, 71, 64
1, 35543, Note_on_c, 0, 62, 65
1, 35552, Note_off_c, 0, 71, 61
1, 35581, Note_off_c, 0, 62, 61
1, 35627, Note_on_c, 0, 55, 64
1, 35655, Note_off_c, 0, 55, 64
1, 35700, Note_on_c, 0, 55, 79
1, 35721, Note_off_c, 0, 55, 66
1, 35779, Note_on_c, 0, 63, 61
1, 35809, Note_off_c, 0, 63, 64
1, 35827, Note_on_c, 0, 72, 64
1, 35900, Note_on_c, 0, 78, 75
1, 35910, Note_off_c, 0, 72, 61
1, 35946, Note_off_c, 0, 78, 60
1, 35962, Note_on_c, 0, 78, 84
1, 35984, Note_off_c, 0, 78, 68
1, 36016, Note_on_c, 0, 73, 79
1, 36040, Note_on_c, 0, 72, 79
1, 36097, Note_on_c, 0, 63, 75
1, 36111, Note_off_c, 0, 72, 61
1, 36123, Note_off_c, 0, 73, 25
1, 36139, Note_off_c, 0, 63, 61
1, 36162, Note_on_c, 0, 55, 81
1, 36188, Note_off_c, 0, 55, 65
1, 36268, Note_on_c, 0, 55, 92
1, 36301, Note_off_c, 0, 55, 67
1, 36380, Note_on_c, 0, 86, 66
1, 36383, Note_on_c, 0, 81, 66
1, 36383, Note_on_c, 0, 83, 68
1, 36393, Note_on_c, 0, 84, 65
1, 36400, Note_off_c, 0, 83, 66
1, 36410, Note_off_c, 0, 81, 63
1, 36410, Note_off_c, 0, 84, 63
1, 36411, Note_off_c, 0, 86, 50
1, 36462, Note_on_c, 0, 81, 81
1, 36470, Note_on_c, 0, 84, 82
1, 36502, Note_on_c, 0, 83, 32
1, 36503, Note_off_c, 0, 83, 127
1, 36524, Note_off_c, 0, 84, 59
1, 36551, Note_on_c, 0, 83, 65
1, 36560, Note_on_c, 0, 79, 76
1, 36560, Note_on_c, 0, 59, 82
1, 36593, Note_off_c, 0, 81, 26
1, 36594, Note_off_c, 0, 83, 63
1, 36609, Note_off_c, 0, 79, 62
1, 36651, Note_on_c, 0, 60, 78
1, 36663, Note_on_c, 0, 81, 81
1, 36668, Note_on_c, 0, 78, 76
1, 36687, Note_off_c, 0, 59, 57
1, 36726, Note_off_c, 0, 78, 53
1, 36745, Note_on_c, 0, 61, 81
1, 36752, Note_on_c, 0, 79, 72
1, 36754, Note_on_c, 0, 76, 81
1, 36783, Note_off_c, 0, 81, 60
1, 36787, Note_off_c, 0, 60, 56
1, 36845, Note_on_c, 0, 78, 83
1, 36849, Note_on_c, 0, 62, 88
1, 36851, Note_on_c, 0, 74, 76
1, 36863, Note_off_c, 0, 76, 59
1, 36864, Note_off_c, 0, 79, 38
1, 36870, Note_off_c, 0, 61, 62
1, 36878, Note_off_c, 0, 74, 66
1, 36886, Note_off_c, 0, 78, 60
1, 36887, Note_off_c, 0, 62, 58
1, 36954, Note_on_c, 0, 72, 83
1, 36962, Note_on_c, 0, 76, 69
1, 36990, Note_off_c, 0, 72, 60
1, 36996, Note_off_c, 0, 76, 67
1, 37048, Note_on_c, 0, 71, 76
1, 37049, Note_on_c, 0, 74, 63
1, 37127, Note_off_c, 0, 74, 0
1, 37135, Note_off_c, 0, 71, 38
1, 37138, Note_on_c, 0, 74, 70
1, 37139, Note_on_c, 0, 72, 76
1, 37150, Note_on_c, 0, 69, 65
1, 37162, Note_off_c, 0, 72, 69
1, 37176, Note_off_c, 0, 74, 62
1, 37178, Note_off_c, 0, 69, 65
1, 37257, Note_on_c, 0, 71, 67
1, 37259, Note_on_c, 0, 67, 60
1, 37292, Note_off_c, 0, 67, 62
1, 37308, Note_off_c, 0, 71, 51
1, 37345, Note_on_c, 0, 69, 56
1, 37356, Note_on_c, 0, 66, 55
1, 37368, Note_off_c, 0, 69, 62
1, 37380, Note_off_c, 0, 66, 61
1, 37451, Note_on_c, 0, 55, 56
1, 37475, Note_off_c, 0, 55, 58
1, 37523, Note_on_c, 0, 62, 56
1, 37553, Note_off_c, 0, 62, 53
1, 37590, Note_on_c, 0, 71, 60
1, 37653, Note_off_c, 0, 71, 54
1, 37660, Note_on_c, 0, 79, 73
1, 37694, Note_off_c, 0, 79, 59
1, 37747, Note_on_c, 0, 79, 59
1, 37766, Note_off_c, 0, 79, 37
1, 37803, Note_on_c, 0, 71, 67
1, 37890, Note_off_c, 0, 71, 62
1, 37891, Note_on_c, 0, 62, 58
1, 37936, Note_off_c, 0, 62, 59
1, 37962, Note_on_c, 0, 55, 63
1, 37994, Note_off_c, 0, 55, 63
1, 38039, Note_on_c, 0, 55, 77
1, 38062, Note_off_c, 0, 55, 65
1, 38104, Note_on_c, 0, 62, 56
1, 38128, Note_off_c, 0, 62, 58
1, 38147, Note_on_c, 0, 70, 68
1, 38228, Note_on_c, 0, 79, 78
1, 38235, Note_off_c, 0, 70, 63
1, 38252, Note_off_c, 0, 79, 63
1, 38307, Note_on_c, 0, 79, 99
1, 38319, Note_off_c, 0, 79, 76
1, 38370, Note_on_c, 0, 70, 75
1, 38441, Note_on_c, 0, 62, 86
1, 38456, Poly_aftertouch_c, 0, 79, 0
1, 38468, Note_off_c, 0, 62, 65
1, 38483, Note_off_c, 0, 70, 57
1, 38516, Note_on_c, 0, 55, 85
1, 38650, Note_on_c, 0, 63, 103
1, 38709, Note_off_c, 0, 55, 58
1, 38722, Note_off_c, 0, 63, 62
1, 38757, Note_on_c, 0, 85, 80
1, 38759, Note_on_c, 0, 82, 82
1, 38793, Note_on_c, 0, 84, 52
1, 38808, Note_off_c, 0, 82, 64
1, 38811, Note_off_c, 0, 85, 63
1, 38815, Note_off_c, 0, 84, 60
1, 38856, Note_on_c, 0, 80, 82
1, 38859, Note_on_c, 0, 84, 77
1, 38929, Note_off_c, 0, 84, 0
1, 38936, Note_on_c, 0, 58, 85
1, 38940, Note_on_c, 0, 82, 91
1, 38949, Note_on_c, 0, 79, 80
1, 38966, Poly_aftertouch_c, 0, 84, 127
1, 38968, Note_off_c, 0, 80, 64
1, 38976, Poly_aftertouch_c, 0, 84, 0
1, 38990, Note_off_c, 0, 82, 65
1, 38993, Note_off_c, 0, 79, 62
1, 39037, Note_on_c, 0, 82, 77
1, 39038, Note_on_c, 0, 61, 79
1, 39038, Note_on_c, 0, 79, 76
1, 39132, Note_on_c, 0, 80, 85
1, 39142, Note_on_c, 0, 62, 83
1, 39142, Note_off_c, 0, 58, 32
1, 39151, Note_off_c, 0, 79, 61
1, 39151, Note_on_c, 0, 77, 68
1, 39165, Note_off_c, 0, 82, 60
1, 39178, Note_off_c, 0, 77, 66
1, 39179, Note_off_c, 0, 80, 66
1, 39196, Note_off_c, 0, 61, 56
1, 39246, Note_on_c, 0, 63, 94
1, 39259, Note_on_c, 0, 79, 88
1, 39267, Note_on_c, 0, 75, 82
1, 39267, Note_off_c, 0, 62, 55
1, 39287, Note_off_c, 0, 63, 63
1, 39296, Note_off_c, 0, 75, 57
1, 39351, Note_on_c, 0, 73, 84
1, 39359, Note_on_c, 0, 77, 69
1, 39365, Note_off_c, 0, 79, 60
1, 39387, Note_off_c, 0, 77, 62
1, 39446, Note_on_c, 0, 75, 80
1, 39449, Note_off_c, 0, 73, 35
1, 39467, Note_on_c, 0, 72, 59
1, 39469, Note_off_c, 0, 75, 67
1, 39484, Note_off_c, 0, 72, 64
1, 39532, Note_on_c, 0, 75, 81
1, 39545, Note_off_c, 0, 75, 72
1, 39572, Note_on_c, 0, 70, 55
1, 39575, Note_on_c, 0, 72, 52
1, 39595, Note_off_c, 0, 70, 39
1, 39598, Note_off_c, 0, 72, 59
1, 39654, Note_on_c, 0, 68, 82
1, 39675, Note_on_c, 0, 71, 57
1, 39699, Note_on_c, 0, 72, 22
1, 39711, Note_off_c, 0, 71, 63
1, 39735, Note_off_c, 0, 72, 39
1, 39764, Note_on_c, 0, 70, 71
1, 39771, Note_off_c, 0, 68, 57
1, 39778, Note_on_c, 0, 67, 53
1, 39794, Note_off_c, 0, 70, 65
1, 39799, Note_off_c, 0, 67, 60
1, 39863, Note_on_c, 0, 56, 72
1, 39889, Note_off_c, 0, 56, 66
1, 39952, Note_on_c, 0, 63, 64
1, 39987, Note_off_c, 0, 63, 64
1, 40018, Note_on_c, 0, 72, 59
1, 40084, Note_on_c, 0, 80, 67
1, 40096, Note_off_c, 0, 72, 58
1, 40113, Note_off_c, 0, 80, 66
1, 40154, Note_on_c, 0, 80, 82
1, 40167, Note_off_c, 0, 80, 72
1, 40217, Note_on_c, 0, 72, 72
1, 40286, Note_on_c, 0, 63, 68
1, 40288, Note_off_c, 0, 72, 61
1, 40349, Note_off_c, 0, 63, 56
1, 40351, Note_on_c, 0, 56, 68
1, 40379, Note_off_c, 0, 56, 66
1, 40438, Note_on_c, 0, 56, 78
1, 40462, Note_off_c, 0, 56, 66
1, 40486, Note_on_c, 0, 63, 64
1, 40523, Note_off_c, 0, 63, 64
1, 40545, Note_on_c, 0, 71, 64
1, 40620, Note_on_c, 0, 80, 77
1, 40651, Note_off_c, 0, 71, 59
1, 40656, Note_off_c, 0, 80, 62
1, 40701, Note_on_c, 0, 80, 94
1, 40716, Note_off_c, 0, 80, 76
1, 40770, Note_on_c, 0, 71, 79
1, 40829, Note_on_c, 0, 74, 41
1, 40832, Note_on_c, 0, 63, 77
1, 40860, Note_off_c, 0, 63, 64
1, 40866, Note_off_c, 0, 71, 60
1, 40893, Note_off_c, 0, 74, 39
1, 40905, Note_on_c, 0, 56, 85
1, 41033, Note_on_c, 0, 64, 104
1, 41084, Note_off_c, 0, 64, 63
1, 41105, Note_off_c, 0, 56, 63
1, 41153, Note_on_c, 0, 83, 86
1, 41155, Note_on_c, 0, 86, 90
1, 41198, Note_off_c, 0, 83, 64
1, 41213, Note_off_c, 0, 86, 62
1, 41252, Note_on_c, 0, 81, 82
1, 41255, Note_on_c, 0, 85, 56
1, 41256, Note_off_c, 0, 85, 127
1, 41264, Note_on_c, 0, 84, 73
1, 41289, Note_off_c, 0, 84, 66
1, 41299, Note_off_c, 0, 81, 63
1, 41345, Note_on_c, 0, 59, 86
1, 41356, Note_on_c, 0, 80, 83
1, 41357, Note_on_c, 0, 83, 83
1, 41398, Note_off_c, 0, 83, 58
1, 41401, Note_off_c, 0, 80, 64
1, 41440, Note_on_c, 0, 62, 77
1, 41443, Note_on_c, 0, 83, 76
1, 41459, Note_on_c, 0, 80, 77
1, 41501, Note_off_c, 0, 83, 63
1, 41502, Note_off_c, 0, 59, 55
1, 41512, Note_off_c, 0, 80, 61
1, 41556, Note_on_c, 0, 78, 83
1, 41556, Note_on_c, 0, 63, 87
1, 41562, Note_on_c, 0, 81, 75
1, 41597, Note_off_c, 0, 81, 55
1, 41610, Note_off_c, 0, 62, 56
1, 41631, Note_off_c, 0, 78, 0
1, 41646, Note_on_c, 0, 80, 81
1, 41657, Note_on_c, 0, 64, 94
1, 41657, Note_on_c, 0, 76, 76
1, 41659, Poly_aftertouch_c, 0, 78, 0
1, 41678, Note_off_c, 0, 63, 62
1, 41681, Note_off_c, 0, 76, 65
1, 41688, Note_off_c, 0, 80, 63
1, 41700, Note_off_c, 0, 64, 66
1, 41765, Note_on_c, 0, 78, 85
1, 41771, Note_on_c, 0, 74, 83
1, 41801, Note_off_c, 0, 74, 57
1, 41848, Note_on_c, 0, 76, 59
1, 41857, Note_on_c, 0, 73, 78
1, 41869, Note_off_c, 0, 78, 60
1, 41890, Note_off_c, 0, 76, 59
1, 41902, Note_off_c, 0, 73, 64
1, 41955, Note_on_c, 0, 76, 88
1, 41972, Note_on_c, 0, 74, 84
1, 41976, Note_on_c, 0, 71, 75
1, 41978, Note_off_c, 0, 76, 65
1, 42000, Note_off_c, 0, 71, 69
1, 42021, Note_off_c, 0, 74, 59
1, 42066, Note_on_c, 0, 69, 73
1, 42073, Note_on_c, 0, 73, 76
1, 42115, Note_off_c, 0, 69, 54
1, 42161, Note_off_c, 0, 73, 62
1, 42168, Note_on_c, 0, 71, 67
1, 42170, Note_on_c, 0, 68, 64
1, 42198, Note_off_c, 0, 71, 63
1, 42209, Note_off_c, 0, 68, 61
1, 42269, Note_on_c, 0, 57, 70
1, 42294, Note_off_c, 0, 57, 68
1, 42362, Note_on_c, 0, 64, 46
1, 42386, Note_off_c, 0, 64, 58
1, 42420, Note_on_c, 0, 73, 64
1, 42501, Note_on_c, 0, 81, 51
1, 42503, Note_off_c, 0, 73, 60
1, 42521, Note_off_c, 0, 81, 57
1, 42563, Note_on_c, 0, 81, 76
1, 42578, Note_off_c, 0, 81, 48
1, 42623, Note_on_c, 0, 73, 79
1, 42705, Note_off_c, 0, 73, 63
1, 42712, Note_on_c, 0, 64, 70
1, 42756, Note_off_c, 0, 64, 59
1, 42780, Note_on_c, 0, 57, 67
1, 42807, Note_off_c, 0, 57, 66
1, 42857, Note_on_c, 0, 57, 83
1, 42890, Note_off_c, 0, 57, 67
1, 42924, Note_on_c, 0, 64, 71
1, 42960, Note_off_c, 0, 64, 64
1, 42990, Note_on_c, 0, 72, 71
1, 43068, Note_on_c, 0, 81, 83
1, 43100, Note_off_c, 0, 72, 58
1, 43116, Note_off_c, 0, 81, 60
1, 43136, Note_on_c, 0, 81, 87
1, 43157, Note_off_c, 0, 81, 65
1, 43206, Note_on_c, 0, 72, 89
1, 43268, Note_on_c, 0, 64, 84
1, 43318, Note_off_c, 0, 72, 60
1, 43319, Note_off_c, 0, 64, 60
1, 43344, Note_on_c, 0, 57, 86
1, 43360, Note_on_c, 0, 59, 68
1, 43454, Note_off_c, 0, 59, 24
1, 43487, Note_on_c, 0, 67, 102
1, 43490, Note_on_c, 0, 59, 61
1, 43490, Note_on_c, 0, 65, 78
1, 43500, Note_off_c, 0, 57, 61
1, 43545, Note_off_c, 0, 67, 59
1, 43547, Note_off_c, 0, 59, 58
1, 43559, Note_off_c, 0, 65, 56
1, 43590, Note_on_c, 0, 87, 83
1, 43591, Note_on_c, 0, 84, 82
1, 43626, Note_on_c, 0, 86, 58
1, 43637, Note_off_c, 0, 84, 62
1, 43656, Note_off_c, 0, 87, 62
1, 43658, Note_off_c, 0, 86, 59
1, 43696, Note_on_c, 0, 82, 86
1, 43696, Note_on_c, 0, 86, 82
1, 43757, Note_off_c, 0, 82, 64
1, 43757, Note_off_c, 0, 86, 62
1, 43797, Note_on_c, 0, 60, 85
1, 43798, Note_on_c, 0, 84, 91
1, 43803, Note_on_c, 0, 81, 80
1, 43842, Note_off_c, 0, 84, 62
1, 43847, Note_off_c, 0, 81, 59
1, 43902, Note_on_c, 0, 63, 81
1, 43905, Note_on_c, 0, 84, 82
1, 43908, Note_on_c, 0, 81, 75
1, 43952, Note_off_c, 0, 81, 54
1, 43998, Note_on_c, 0, 82, 72
1, 44001, Note_on_c, 0, 79, 85
1, 44003, Note_on_c, 0, 64, 86
1, 44013, Note_off_c, 0, 84, 55
1, 44019, Note_off_c, 0, 60, 47
1, 44071, Note_off_c, 0, 63, 56
1, 44096, Note_off_c, 0, 82, 63
1, 44105, Note_on_c, 0, 65, 94
1, 44108, Note_on_c, 0, 81, 75
1, 44110, Note_on_c, 0, 77, 75
1, 44110, Note_off_c, 0, 79, 53
1, 44123, Note_off_c, 0, 64, 62
1, 44127, Note_off_c, 0, 81, 69
1, 44141, Note_off_c, 0, 77, 60
1, 44147, Note_off_c, 0, 65, 64
1, 44218, Note_on_c, 0, 79, 85
1, 44229, Note_on_c, 0, 75, 76
1, 44252, Note_off_c, 0, 75, 65
1, 44308, Note_on_c, 0, 74, 79
1, 44311, Note_on_c, 0, 77, 73
1, 44337, Note_off_c, 0, 79, 58
1, 44392, Note_off_c, 0, 77, 0
1, 44400, Note_off_c, 0, 74, 38
1, 44408, Note_on_c, 0, 72, 74
1, 44408, Note_on_c, 0, 75, 77
1, 44430, Poly_aftertouch_c, 0, 77, 127
1, 44431, Note_off_c, 0, 75, 66
1, 44436, Note_off_c, 0, 72, 66
1, 44438, Poly_aftertouch_c, 0, 77, 0
1, 44525, Note_on_c, 0, 74, 78
1, 44530, Note_on_c, 0, 70, 75
1, 44564, Note_off_c, 0, 70, 56
1, 44612, Note_off_c, 0, 74, 58
1, 44617, Note_on_c, 0, 69, 56
1, 44629, Note_on_c, 0, 72, 49
1, 44638, Note_off_c, 0, 69, 62
1, 44650, Note_off_c, 0, 72, 59
1, 44746, Note_on_c, 0, 58, 60
1, 44775, Note_off_c, 0, 58, 64
1, 44826, Note_on_c, 0, 65, 52
1, 44847, Note_off_c, 0, 65, 58
1, 44878, Note_on_c, 0, 74, 63
1, 44952, Note_off_c, 0, 74, 51
1, 44970, Note_on_c, 0, 82, 47
1, 44990, Note_off_c, 0, 82, 57
1, 45039, Note_on_c, 0, 82, 56
1, 45040, Note_off_c, 0, 82, 127
1, 45080, Note_on_c, 0, 74, 66
1, 45138, Note_off_c, 0, 74, 60
1, 45160, Note_on_c, 0, 65, 59
1, 45202, Note_off_c, 0, 65, 61
1, 45244, Note_on_c, 0, 58, 47
1, 45267, Note_off_c, 0, 58, 56
1, 45343, Note_on_c, 0, 58, 32
1, 45377, Note_off_c, 0, 58, 43
1, 45398, Note_on_c, 0, 65, 39
1, 45426, Note_off_c, 0, 65, 35
1, 45438, Note_on_c, 0, 73, 63
1, 45509, Note_off_c, 0, 73, 56
1, 45539, Note_on_c, 0, 82, 50
1, 45559, Note_off_c, 0, 82, 60
1, 45613, Note_on_c, 0, 82, 49
1, 45614, Note_off_c, 0, 82, 127
1, 45673, Note_on_c, 0, 73, 64
1, 45751, Note_on_c, 0, 65, 57
1, 45753, Note_off_c, 0, 73, 61
1, 45787, Note_off_c, 0, 65, 61
1, 45908, Poly_aftertouch_c, 0, 58, 127
1, 45930, Poly_aftertouch_c, 0, 58, 0
1, 45986, Note_on_c, 0, 66, 51
1, 46014, Note_off_c, 0, 66, 59
1, 46028, Note_on_c, 0, 73, 62
1, 46110, Note_off_c, 0, 73, 51
1, 46111, Note_on_c, 0, 82, 71
1, 46133, Note_off_c, 0, 82, 69
1, 46191, Note_on_c, 0, 82, 73
1, 46206, Note_off_c, 0, 82, 48
1, 46256, Note_on_c, 0, 73, 67
1, 46327, Note_on_c, 0, 66, 66
1, 46329, Note_off_c, 0, 73, 60
1, 46377, Note_off_c, 0, 66, 57
1, 46396, Note_on_c, 0, 58, 62
1, 46426, Note_off_c, 0, 58, 64
1, 46484, Note_on_c, 0, 58, 68
1, 46507, Note_off_c, 0, 58, 66
1, 46520, Note_on_c, 0, 66, 60
1, 46553, Note_off_c, 0, 66, 63
1, 46592, Note_on_c, 0, 76, 67
1, 46661, Note_on_c, 0, 85, 76
1, 46687, Note_off_c, 0, 85, 65
1, 46689, Note_off_c, 0, 76, 59
1, 46761, Note_on_c, 0, 84, 72
1, 46762, Note_off_c, 0, 84, 127
1, 46813, Note_on_c, 0, 76, 72
1, 46851, Note_off_c, 0, 76, 54
1, 46861, Note_on_c, 0, 77, 33
1, 46880, Note_on_c, 0, 66, 78
1, 46892, Note_off_c, 0, 77, 33
1, 46938, Note_off_c, 0, 66, 60
1, 46949, Poly_aftertouch_c, 0, 76, 127
1, 46952, Note_on_c, 0, 58, 62
1, 46982, Poly_aftertouch_c, 0, 76, 0
1, 47026, Note_on_c, 0, 59, 73
1, 47040, Note_off_c, 0, 58, 29
1, 47050, Note_off_c, 0, 59, 66
1, 47102, Note_on_c, 0, 66, 65
1, 47130, Note_off_c, 0, 66, 65
1, 47159, Note_on_c, 0, 75, 68
1, 47224, Note_on_c, 0, 83, 72
1, 47244, Note_off_c, 0, 75, 59
1, 47251, Note_off_c, 0, 83, 65
1, 47291, Note_on_c, 0, 83, 92
1, 47309, Note_off_c, 0, 83, 71
1, 47360, Note_on_c, 0, 75, 74
1, 47405, Note_on_c, 0, 76, 40
1, 47434, Note_off_c, 0, 76, 44
1, 47440, Note_on_c, 0, 66, 72
1, 47461, Note_off_c, 0, 75, 45
1, 47511, Note_off_c, 0, 66, 60
1, 47524, Note_on_c, 0, 59, 65
1, 47550, Note_off_c, 0, 59, 66
1, 47602, Note_on_c, 0, 59, 87
1, 47628, Note_off_c, 0, 59, 67
1, 47686, Note_on_c, 0, 66, 62
1, 47716, Note_off_c, 0, 66, 64
1, 47733, Note_on_c, 0, 74, 68
1, 47809, Note_on_c, 0, 83, 76
1, 47834, Note_off_c, 0, 74, 58
1, 47851, Note_off_c, 0, 83, 57
1, 47878, Note_on_c, 0, 83, 85
1, 47896, Note_off_c, 0, 83, 71
1, 47952, Note_on_c, 0, 74, 72
1, 48013, Note_on_c, 0, 66, 75
1, 48029, Note_off_c, 0, 74, 61
1, 48081, Note_off_c, 0, 66, 60
1, 48096, Note_on_c, 0, 59, 72
1, 48117, Note_off_c, 0, 59, 68
1, 48171, Note_on_c, 0, 59, 87
1, 48199, Note_off_c, 0, 59, 67
1, 48257, Note_on_c, 0, 67, 73
1, 48314, Note_off_c, 0, 67, 58
1, 48315, Note_on_c, 0, 74, 71
1, 48392, Note_on_c, 0, 83, 82
1, 48420, Note_off_c, 0, 74, 59
1, 48441, Note_off_c, 0, 83, 61
1, 48455, Note_on_c, 0, 83, 82
1, 48472, Note_off_c, 0, 83, 72
1, 48527, Note_on_c, 0, 74, 84
1, 48585, Note_on_c, 0, 67, 62
1, 48621, Note_off_c, 0, 74, 61
1, 48657, Note_off_c, 0, 67, 55
1, 48663, Note_on_c, 0, 59, 75
1, 48683, Note_off_c, 0, 59, 68
1, 48746, Note_on_c, 0, 59, 92
1, 48771, Note_off_c, 0, 59, 68
1, 48806, Note_on_c, 0, 67, 60
1, 48839, Note_off_c, 0, 67, 65
1, 48867, Note_on_c, 0, 77, 76
1, 48944, Note_on_c, 0, 86, 85
1, 48985, Note_off_c, 0, 77, 60
1, 48998, Note_off_c, 0, 86, 60
1, 49022, Note_on_c, 0, 86, 92
1, 49038, Note_off_c, 0, 86, 70
1, 49083, Note_on_c, 0, 77, 80
1, 49140, Note_on_c, 0, 79, 32
1, 49149, Note_on_c, 0, 67, 79
1, 49178, Note_off_c, 0, 79, 47
1, 49186, Note_off_c, 0, 77, 32
1, 49207, Note_off_c, 0, 67, 62
1, 49222, Note_on_c, 0, 59, 86
1, 49305, Note_on_c, 0, 60, 90
1, 49307, Note_off_c, 0, 59, 37
1, 49345, Note_off_c, 0, 60, 59
1, 49362, Note_on_c, 0, 67, 77
1, 49420, Note_off_c, 0, 67, 59
1, 49432, Note_on_c, 0, 76, 70
1, 49501, Note_on_c, 0, 84, 80
1, 49527, Note_off_c, 0, 76, 56
1, 49533, Note_off_c, 0, 84, 54
1, 49577, Note_on_c, 0, 84, 108
1, 49596, Note_off_c, 0, 84, 67
1, 49636, Note_on_c, 0, 76, 80
1, 49701, Note_on_c, 0, 67, 71
1, 49733, Note_off_c, 0, 76, 58
1, 49767, Note_off_c, 0, 67, 59
1, 49793, Note_on_c, 0, 60, 79
1, 49820, Note_off_c, 0, 60, 64
1, 49874, Note_on_c, 0, 60, 100
1, 49892, Note_off_c, 0, 60, 70
1, 49925, Note_on_c, 0, 67, 74
1, 49952, Note_off_c, 0, 67, 59
1, 49980, Note_on_c, 0, 75, 73
1, 50041, Poly_aftertouch_c, 0, 76, 0
1, 50065, Note_on_c, 0, 84, 75
1, 50070, Note_off_c, 0, 75, 63
1, 50091, Note_off_c, 0, 84, 62
1, 50144, Note_on_c, 0, 84, 110
1, 50170, Note_off_c, 0, 84, 63
1, 50234, Note_on_c, 0, 75, 72
1, 50284, Note_on_c, 0, 67, 74
1, 50321, Note_off_c, 0, 75, 61
1, 50339, Note_off_c, 0, 67, 61
1, 50371, Note_on_c, 0, 60, 83
1, 50399, Note_off_c, 0, 60, 66
1, 50456, Note_on_c, 0, 60, 94
1, 50483, Note_off_c, 0, 60, 70
1, 50516, Note_on_c, 0, 68, 77
1, 50570, Note_off_c, 0, 68, 63
1, 50573, Note_on_c, 0, 75, 76
1, 50661, Note_on_c, 0, 84, 74
1, 50689, Note_off_c, 0, 84, 60
1, 50708, Note_off_c, 0, 75, 58
1, 50732, Note_on_c, 0, 84, 107
1, 50755, Note_off_c, 0, 84, 61
1, 50808, Note_on_c, 0, 75, 76
1, 50871, Note_on_c, 0, 68, 83
1, 50882, Note_off_c, 0, 75, 61
1, 50930, Note_off_c, 0, 68, 61
1, 50952, Note_on_c, 0, 60, 79
1, 50979, Note_off_c, 0, 60, 64
1, 51041, Note_on_c, 0, 60, 93
1, 51069, Note_off_c, 0, 60, 66
1, 51110, Note_on_c, 0, 68, 60
1, 51129, Note_off_c, 0, 68, 63
1, 51152, Note_on_c, 0, 70, 32
1, 51173, Note_on_c, 0, 78, 72
1, 51183, Note_off_c, 0, 70, 45
1, 51259, Note_on_c, 0, 87, 69
1, 51286, Note_off_c, 0, 87, 67
1, 51325, Note_on_c, 0, 87, 108
1, 51342, Note_off_c, 0, 87, 70
1, 51348, Note_off_c, 0, 78, 35
1, 51402, Note_on_c, 0, 78, 81
1, 51466, Note_on_c, 0, 68, 81
1, 51530, Note_off_c, 0, 78, 58
1, 51542, Note_off_c, 0, 68, 63
1, 51552, Note_on_c, 0, 60, 87
1, 51552, Note_on_c, 0, 62, 89
1, 51575, Note_off_c, 0, 60, 65
1, 51575, Note_off_c, 0, 62, 66
1, 52276, Control_c, 0, 64, 47
1, 52281, Note_on_c, 0, 61, 49
1, 52290, Control_c, 0, 64, 61
1, 52305, Control_c, 0, 64, 67
1, 52320, Control_c, 0, 64, 73
1, 52327, Note_off_c, 0, 61, 64
1, 52335, Control_c, 0, 64, 76
1, 52350, Control_c, 0, 64, 77
1, 52355, Note_on_c, 0, 65, 45
1, 52382, Note_off_c, 0, 65, 54
1, 52411, Note_on_c, 0, 68, 64
1, 52469, Control_c, 0, 64, 76
1, 52478, Note_on_c, 0, 73, 67
1, 52489, Note_off_c, 0, 68, 61
1, 52501, Note_on_c, 0, 77, 39
1, 52505, Note_off_c, 0, 73, 66
1, 52514, Control_c, 0, 64, 76
1, 52529, Note_off_c, 0, 77, 45
1, 52529, Control_c, 0, 64, 74
1, 52544, Control_c, 0, 64, 67
1, 52558, Control_c, 0, 64, 56
1, 52573, Control_c, 0, 64, 0
1, 52574, Note_on_c, 0, 77, 66
1, 52577, Note_on_c, 0, 73, 76
1, 52621, Note_off_c, 0, 73, 48
1, 52633, Note_on_c, 0, 68, 75
1, 52640, Note_off_c, 0, 77, 58
1, 52669, Note_off_c, 0, 68, 62
1, 52683, Note_on_c, 0, 65, 42
1, 52771, Note_off_c, 0, 65, 59
1, 52773, Note_on_c, 0, 61, 65
1, 52805, Note_off_c, 0, 61, 67
1, 52860, Note_on_c, 0, 60, 64
1, 52862, Control_c, 0, 64, 50
1, 52877, Control_c, 0, 64, 67
1, 52891, Control_c, 0, 64, 81
1, 52906, Control_c, 0, 64, 104
1, 52921, Note_off_c, 0, 60, 59
1, 52921, Control_c, 0, 64, 111
1, 52923, Note_on_c, 0, 63, 61
1, 52936, Control_c, 0, 64, 111
1, 52955, Note_off_c, 0, 63, 65
1, 52983, Note_on_c, 0, 68, 60
1, 53024, Control_c, 0, 64, 110
1, 53039, Control_c, 0, 64, 107
1, 53048, Note_on_c, 0, 75, 64
1, 53049, Note_on_c, 0, 78, 61
1, 53049, Note_off_c, 0, 68, 57
1, 53054, Control_c, 0, 64, 105
1, 53069, Note_off_c, 0, 78, 60
1, 53069, Control_c, 0, 64, 104
1, 53075, Note_off_c, 0, 75, 66
1, 53084, Control_c, 0, 64, 103
1, 53098, Control_c, 0, 64, 102
1, 53113, Control_c, 0, 64, 94
1, 53128, Control_c, 0, 64, 76
1, 53132, Note_on_c, 0, 78, 78
1, 53133, Note_on_c, 0, 75, 72
1, 53143, Control_c, 0, 64, 53
1, 53158, Control_c, 0, 64, 0
1, 53163, Note_off_c, 0, 75, 62
1, 53184, Note_off_c, 0, 78, 57
1, 53188, Note_on_c, 0, 68, 80
1, 53241, Note_off_c, 0, 68, 61
1, 53272, Note_on_c, 0, 63, 68
1, 53304, Note_off_c, 0, 63, 64
1, 53361, Note_on_c, 0, 60, 57
1, 53396, Note_off_c, 0, 60, 60
1, 53411, Control_c, 0, 64, 44
1, 53426, Control_c, 0, 64, 65
1, 53426, Note_on_c, 0, 61, 71
1, 53440, Control_c, 0, 64, 74
1, 53462, Control_c, 0, 64, 91
1, 53471, Note_off_c, 0, 61, 63
1, 53477, Control_c, 0, 64, 100
1, 53492, Control_c, 0, 64, 100
1, 53527, Note_on_c, 0, 65, 57
1, 53555, Note_off_c, 0, 65, 59
1, 53578, Note_on_c, 0, 68, 61
1, 53581, Control_c, 0, 64, 99
1, 53596, Control_c, 0, 64, 97
1, 53611, Control_c, 0, 64, 94
1, 53626, Control_c, 0, 64, 92
1, 53640, Note_on_c, 0, 73, 70
1, 53640, Control_c, 0, 64, 91
1, 53641, Note_on_c, 0, 77, 68
1, 53650, Note_off_c, 0, 68, 60
1, 53655, Control_c, 0, 64, 90
1, 53665, Note_off_c, 0, 73, 66
1, 53670, Control_c, 0, 64, 90
1, 53674, Note_off_c, 0, 77, 62
1, 53714, Control_c, 0, 64, 89
1, 53720, Note_on_c, 0, 77, 70
1, 53728, Note_on_c, 0, 73, 84
1, 53729, Control_c, 0, 64, 81
1, 53744, Control_c, 0, 64, 66
1, 53759, Control_c, 0, 64, 28
1, 53774, Control_c, 0, 64, 0
1, 53781, Note_off_c, 0, 73, 60
1, 53793, Note_on_c, 0, 68, 78
1, 53799, Note_off_c, 0, 77, 54
1, 53829, Note_off_c, 0, 68, 60
1, 53840, Note_on_c, 0, 65, 64
1, 53906, Note_on_c, 0, 61, 70
1, 53906, Note_off_c, 0, 65, 57
1, 53966, Control_c, 0, 64, 47
1, 53978, Note_off_c, 0, 61, 61
1, 53982, Control_c, 0, 64, 64
1, 53983, Note_on_c, 0, 56, 70
1, 53997, Control_c, 0, 64, 72
1, 54011, Control_c, 0, 64, 86
1, 54026, Control_c, 0, 64, 97
1, 54041, Control_c, 0, 64, 100
1, 54050, Note_on_c, 0, 63, 72
1, 54055, Control_c, 0, 64, 101
1, 54069, Note_off_c, 0, 56, 56
1, 54070, Control_c, 0, 64, 101
1, 54102, Note_on_c, 0, 68, 71
1, 54106, Note_off_c, 0, 63, 57
1, 54162, Note_on_c, 0, 72, 76
1, 54177, Note_on_c, 0, 80, 69
1, 54183, Note_off_c, 0, 68, 62
1, 54196, Note_off_c, 0, 72, 62
1, 54200, Note_off_c, 0, 80, 65
1, 54242, Control_c, 0, 64, 101
1, 54257, Note_on_c, 0, 72, 78
1, 54257, Note_on_c, 0, 80, 91
1, 54257, Control_c, 0, 64, 92
1, 54271, Control_c, 0, 64, 74
1, 54286, Control_c, 0, 64, 60
1, 54301, Control_c, 0, 64, 0
1, 54303, Note_off_c, 0, 80, 67
1, 54312, Note_on_c, 0, 68, 85
1, 54344, Note_off_c, 0, 72, 61
1, 54368, Note_off_c, 0, 68, 62
1, 54394, Note_on_c, 0, 63, 64
1, 54443, Note_off_c, 0, 63, 57
1, 54478, Note_on_c, 0, 56, 52
1, 54538, Control_c, 0, 64, 50
1, 54538, Note_off_c, 0, 56, 55
1, 54541, Note_on_c, 0, 61, 58
1, 54553, Control_c, 0, 64, 65
1, 54568, Control_c, 0, 64, 72
1, 54582, Control_c, 0, 64, 79
1, 54611, Note_on_c, 0, 64, 58
1, 54616, Note_off_c, 0, 61, 60
1, 54652, Note_off_c, 0, 64, 60
1, 54678, Note_on_c, 0, 68, 63
1, 54716, Control_c, 0, 64, 78
1, 54730, Control_c, 0, 64, 78
1, 54739, Note_on_c, 0, 76, 63
1, 54744, Note_off_c, 0, 68, 61
1, 54746, Note_on_c, 0, 73, 61
1, 54771, Note_off_c, 0, 73, 62
1, 54774, Note_off_c, 0, 76, 62
1, 54775, Control_c, 0, 64, 77
1, 54791, Control_c, 0, 64, 77
1, 54805, Control_c, 0, 64, 75
1, 54820, Control_c, 0, 64, 71
1, 54824, Note_on_c, 0, 76, 59
1, 54830, Note_on_c, 0, 73, 82
1, 54835, Control_c, 0, 64, 64
1, 54850, Control_c, 0, 64, 44
1, 54862, Note_off_c, 0, 73, 57
1, 54865, Control_c, 0, 64, 0
1, 54894, Note_on_c, 0, 68, 74
1, 54894, Note_off_c, 0, 76, 37
1, 54924, Note_off_c, 0, 68, 62
1, 54978, Note_on_c, 0, 64, 64
1, 55029, Note_off_c, 0, 64, 50
1, 55057, Note_on_c, 0, 61, 68
1, 55083, Note_off_c, 0, 61, 67
1, 55094, Control_c, 0, 64, 27
1, 55109, Control_c, 0, 64, 60
1, 55124, Control_c, 0, 64, 70
1, 55137, Note_on_c, 0, 60, 69
1, 55139, Control_c, 0, 64, 80
1, 55154, Control_c, 0, 64, 91
1, 55168, Control_c, 0, 64, 92
1, 55195, Note_off_c, 0, 60, 59
1, 55202, Note_on_c, 0, 63, 64
1, 55237, Note_off_c, 0, 63, 62
1, 55243, Note_on_c, 0, 68, 65
1, 55257, Control_c, 0, 64, 91
1, 55272, Control_c, 0, 64, 90
1, 55286, Control_c, 0, 64, 88
1, 55301, Control_c, 0, 64, 86
1, 55308, Note_on_c, 0, 78, 63
1, 55311, Note_on_c, 0, 75, 62
1, 55316, Control_c, 0, 64, 85
1, 55319, Note_off_c, 0, 68, 58
1, 55331, Control_c, 0, 64, 84
1, 55333, Note_off_c, 0, 78, 57
1, 55341, Note_off_c, 0, 75, 65
1, 55346, Control_c, 0, 64, 84
1, 55361, Control_c, 0, 64, 83
1, 55376, Control_c, 0, 64, 83
1, 55393, Note_on_c, 0, 78, 77
1, 55396, Note_on_c, 0, 75, 71
1, 55405, Control_c, 0, 64, 81
1, 55420, Control_c, 0, 64, 74
1, 55435, Control_c, 0, 64, 63
1, 55437, Note_off_c, 0, 78, 59
1, 55450, Note_off_c, 0, 75, 59
1, 55450, Control_c, 0, 64, 0
1, 55455, Note_on_c, 0, 68, 77
1, 55507, Note_off_c, 0, 68, 61
1, 55526, Note_on_c, 0, 63, 68
1, 55559, Note_off_c, 0, 63, 64
1, 55619, Note_on_c, 0, 60, 62
1, 55653, Note_off_c, 0, 60, 61
1, 55688, Control_c, 0, 64, 52
1, 55694, Note_on_c, 0, 61, 68
1, 55703, Control_c, 0, 64, 66
1, 55724, Control_c, 0, 64, 73
1, 55725, Note_off_c, 0, 61, 67
1, 55738, Control_c, 0, 64, 81
1, 55753, Control_c, 0, 64, 83
1, 55766, Note_on_c, 0, 64, 54
1, 55783, Control_c, 0, 64, 83
1, 55793, Note_off_c, 0, 64, 55
1, 55842, Note_on_c, 0, 68, 64
1, 55895, Note_on_c, 0, 76, 62
1, 55899, Note_on_c, 0, 73, 63
1, 55903, Note_off_c, 0, 68, 62
1, 55915, Control_c, 0, 64, 83
1, 55928, Note_off_c, 0, 73, 67
1, 55929, Note_off_c, 0, 76, 61
1, 55980, Note_on_c, 0, 76, 67
1, 55987, Note_on_c, 0, 73, 79
1, 55990, Control_c, 0, 64, 82
1, 56005, Control_c, 0, 64, 76
1, 56020, Control_c, 0, 64, 66
1, 56034, Control_c, 0, 64, 49
1, 56037, Note_off_c, 0, 73, 60
1, 56049, Control_c, 0, 64, 0
1, 56056, Note_on_c, 0, 68, 78
1, 56070, Note_off_c, 0, 76, 54
1, 56091, Note_off_c, 0, 68, 59
1, 56120, Note_on_c, 0, 64, 75
1, 56185, Note_off_c, 0, 64, 52
1, 56200, Note_on_c, 0, 61, 75
1, 56256, Control_c, 0, 64, 43
1, 56268, Note_on_c, 0, 56, 73
1, 56269, Note_off_c, 0, 61, 62
1, 56271, Control_c, 0, 64, 62
1, 56286, Control_c, 0, 64, 68
1, 56300, Control_c, 0, 64, 75
1, 56315, Control_c, 0, 64, 80
1, 56330, Control_c, 0, 64, 81
1, 56335, Note_on_c, 0, 63, 81
1, 56345, Control_c, 0, 64, 81
1, 56359, Control_c, 0, 64, 82
1, 56377, Note_on_c, 0, 68, 73
1, 56378, Note_off_c, 0, 56, 55
1, 56391, Control_c, 0, 64, 83
1, 56404, Note_off_c, 0, 63, 56
1, 56443, Note_on_c, 0, 72, 78
1, 56472, Control_c, 0, 64, 83
1, 56473, Note_on_c, 0, 80, 65
1, 56473, Note_off_c, 0, 68, 62
1, 56487, Control_c, 0, 64, 84
1, 56489, Note_off_c, 0, 80, 69
1, 56491, Note_off_c, 0, 72, 56
1, 56531, Control_c, 0, 64, 82
1, 56533, Note_on_c, 0, 80, 87
1, 56534, Note_on_c, 0, 72, 70
1, 56546, Control_c, 0, 64, 72
1, 56561, Control_c, 0, 64, 61
1, 56576, Control_c, 0, 64, 0
1, 56577, Note_off_c, 0, 80, 67
1, 56598, Note_on_c, 0, 68, 81
1, 56635, Note_off_c, 0, 72, 61
1, 56660, Note_off_c, 0, 68, 62
1, 56677, Note_on_c, 0, 63, 68
1, 56740, Note_off_c, 0, 63, 61
1, 56759, Note_on_c, 0, 56, 61
1, 56812, Control_c, 0, 64, 29
1, 56825, Note_on_c, 0, 61, 58
1, 56827, Control_c, 0, 64, 61
1, 56842, Control_c, 0, 64, 71
1, 56848, Note_off_c, 0, 56, 55
1, 56857, Control_c, 0, 64, 81
1, 56872, Control_c, 0, 64, 84
1, 56900, Note_on_c, 0, 64, 62
1, 56902, Note_off_c, 0, 61, 61
1, 56943, Note_off_c, 0, 64, 59
1, 56957, Note_on_c, 0, 68, 62
1, 56975, Control_c, 0, 64, 83
1, 57005, Control_c, 0, 64, 83
1, 57016, Note_on_c, 0, 76, 69
1, 57021, Note_on_c, 0, 73, 67
1, 57026, Note_off_c, 0, 68, 61
1, 57035, Control_c, 0, 64, 82
1, 57046, Note_off_c, 0, 73, 67
1, 57054, Note_off_c, 0, 76, 58
1, 57064, Control_c, 0, 64, 82
1, 57079, Control_c, 0, 64, 81
1, 57094, Control_c, 0, 64, 80
1, 57104, Note_on_c, 0, 76, 66
1, 57109, Control_c, 0, 64, 73
1, 57110, Note_on_c, 0, 73, 84
1, 57123, Control_c, 0, 64, 63
1, 57138, Control_c, 0, 64, 31
1, 57153, Control_c, 0, 64, 0
1, 57158, Note_off_c, 0, 73, 62
1, 57185, Note_on_c, 0, 68, 73
1, 57187, Note_off_c, 0, 76, 40
1, 57224, Note_off_c, 0, 68, 62
1, 57245, Note_on_c, 0, 64, 67
1, 57313, Note_off_c, 0, 64, 59
1, 57322, Note_on_c, 0, 61, 71
1, 57367, Note_off_c, 0, 61, 61
1, 57399, Control_c, 0, 64, 47
1, 57411, Note_on_c, 0, 59, 79
1, 57413, Control_c, 0, 64, 65
1, 57428, Control_c, 0, 64, 73
1, 57443, Control_c, 0, 64, 85
1, 57458, Control_c, 0, 64, 87
1, 57467, Note_off_c, 0, 59, 61
1, 57473, Note_on_c, 0, 64, 64
1, 57542, Note_off_c, 0, 64, 61
1, 57550, Note_on_c, 0, 68, 70
1, 57561, Control_c, 0, 64, 86
1, 57576, Control_c, 0, 64, 86
1, 57599, Note_on_c, 0, 74, 77
1, 57605, Control_c, 0, 64, 85
1, 57607, Note_on_c, 0, 76, 66
1, 57629, Note_off_c, 0, 68, 62
1, 57639, Note_off_c, 0, 76, 62
1, 57650, Note_off_c, 0, 74, 58
1, 57680, Control_c, 0, 64, 84
1, 57694, Note_on_c, 0, 74, 70
1, 57695, Control_c, 0, 64, 79
1, 57698, Note_on_c, 0, 76, 82
1, 57710, Control_c, 0, 64, 68
1, 57725, Control_c, 0, 64, 50
1, 57739, Control_c, 0, 64, 0
1, 57763, Note_on_c, 0, 68, 77
1, 57778, Note_off_c, 0, 76, 58
1, 57784, Note_off_c, 0, 74, 61
1, 57824, Note_on_c, 0, 64, 72
1, 57825, Note_off_c, 0, 68, 62
1, 57902, Note_off_c, 0, 64, 59
1, 57917, Note_on_c, 0, 59, 61
1, 57989, Note_on_c, 0, 57, 80
1, 58005, Note_off_c, 0, 59, 59
1, 58029, Control_c, 0, 64, 48
1, 58044, Control_c, 0, 64, 66
1, 58058, Control_c, 0, 64, 73
1, 58069, Note_on_c, 0, 64, 80
1, 58073, Control_c, 0, 64, 85
1, 58088, Control_c, 0, 64, 86
1, 58118, Note_on_c, 0, 69, 71
1, 58140, Note_off_c, 0, 57, 56
1, 58158, Note_off_c, 0, 69, 55
1, 58162, Control_c, 0, 64, 86
1, 58177, Note_off_c, 0, 64, 53
1, 58177, Control_c, 0, 64, 85
1, 58192, Control_c, 0, 64, 84
1, 58194, Note_on_c, 0, 73, 78
1, 58194, Note_on_c, 0, 81, 76
1, 58207, Control_c, 0, 64, 82
1, 58218, Note_off_c, 0, 73, 66
1, 58222, Control_c, 0, 64, 80
1, 58230, Note_off_c, 0, 81, 59
1, 58236, Control_c, 0, 64, 79
1, 58251, Control_c, 0, 64, 79
1, 58266, Control_c, 0, 64, 78
1, 58281, Control_c, 0, 64, 78
1, 58285, Note_on_c, 0, 81, 83
1, 58287, Note_on_c, 0, 73, 88
1, 58295, Control_c, 0, 64, 75
1, 58310, Control_c, 0, 64, 69
1, 58325, Control_c, 0, 64, 59
1, 58329, Note_on_c, 0, 76, 45
1, 58336, Note_off_c, 0, 81, 58
1, 58340, Control_c, 0, 64, 0
1, 58350, Note_on_c, 0, 69, 80
1, 58355, Note_off_c, 0, 76, 52
1, 58378, Note_off_c, 0, 73, 61
1, 58397, Note_off_c, 0, 69, 63
1, 58422, Note_on_c, 0, 64, 67
1, 58500, Note_on_c, 0, 57, 71
1, 58504, Note_off_c, 0, 64, 61
1, 58539, Note_on_c, 0, 58, 72
1, 58592, Control_c, 0, 64, 29
1, 58607, Control_c, 0, 64, 62
1, 58622, Control_c, 0, 64, 71
1, 58628, Note_off_c, 0, 57, 38
1, 58629, Note_on_c, 0, 67, 73
1, 58636, Control_c, 0, 64, 84
1, 58651, Control_c, 0, 64, 93
1, 58666, Control_c, 0, 64, 94
1, 58678, Note_on_c, 0, 73, 81
1, 58681, Control_c, 0, 64, 95
1, 58752, Note_off_c, 0, 73, 60
1, 58759, Note_on_c, 0, 76, 75
1, 58783, Note_off_c, 0, 67, 57
1, 58785, Note_off_c, 0, 58, 56
1, 58809, Note_off_c, 0, 76, 57
1, 58837, Control_c, 0, 64, 89
1, 58842, Note_on_c, 0, 76, 73
1, 58842, Note_on_c, 0, 85, 84
1, 58851, Control_c, 0, 64, 73
1, 58863, Note_on_c, 0, 80, 69
1, 58866, Control_c, 0, 64, 60
1, 58881, Control_c, 0, 64, 0
1, 58887, Note_off_c, 0, 80, 69
1, 58906, Note_off_c, 0, 85, 65
1, 58922, Note_on_c, 0, 73, 81
1, 58929, Note_off_c, 0, 76, 61
1, 58974, Note_off_c, 0, 73, 62
1, 59013, Note_on_c, 0, 67, 71
1, 59059, Note_on_c, 0, 58, 69
1, 59067, Note_off_c, 0, 67, 61
1, 59130, Note_on_c, 0, 59, 73
1, 59162, Note_off_c, 0, 59, 64
1, 59165, Note_off_c, 0, 58, 62
1, 59272, Note_on_c, 0, 83, 89
1, 59273, Note_on_c, 0, 71, 89
1, 59275, Note_on_c, 0, 75, 89
1, 59284, Note_on_c, 0, 66, 73
1, 59286, Note_on_c, 0, 63, 75
1, 59296, Note_off_c, 0, 71, 64
1, 59309, Note_off_c, 0, 63, 66
1, 59312, Note_off_c, 0, 66, 64
1, 59312, Note_off_c, 0, 83, 61
1, 59322, Note_off_c, 0, 75, 55
1, 59436, Note_on_c, 0, 57, 75
1, 59509, Note_off_c, 0, 57, 59
1, 59565, Note_on_c, 0, 63, 64
1, 59566, Note_on_c, 0, 83, 92
1, 59568, Note_on_c, 0, 71, 86
1, 59570, Note_on_c, 0, 66, 93
1, 59573, Note_on_c, 0, 75, 86
1, 59573, Note_on_c, 0, 78, 85
1, 59591, Note_on_c, 0, 80, 63
1, 59594, Note_off_c, 0, 71, 62
1, 59606, Note_off_c, 0, 83, 64
1, 59606, Note_off_c, 0, 80, 66
1, 59613, Note_on_c, 0, 72, 26
1, 59614, Note_off_c, 0, 72, 127
1, 59614, Note_off_c, 0, 66, 60
1, 59615, Note_off_c, 0, 63, 63
1, 59615, Note_off_c, 0, 78, 64
1, 59617, Note_off_c, 0, 75, 64
1, 59729, Note_on_c, 0, 56, 84
1, 59781, Note_off_c, 0, 56, 63
1, 59860, Note_on_c, 0, 80, 95
1, 59861, Note_on_c, 0, 68, 88
1, 59862, Note_on_c, 0, 71, 88
1, 59866, Note_on_c, 0, 64, 95
1, 59867, Note_on_c, 0, 59, 84
1, 59893, Note_off_c, 0, 80, 68
1, 59905, Note_off_c, 0, 64, 63
1, 59907, Note_off_c, 0, 59, 61
1, 59910, Note_off_c, 0, 71, 59
1, 59912, Note_off_c, 0, 68, 61
1, 60014, Note_on_c, 0, 57, 82
1, 60065, Note_off_c, 0, 57, 61
1, 60153, Note_on_c, 0, 69, 90
1, 60154, Note_on_c, 0, 61, 88
1, 60155, Note_on_c, 0, 64, 86
1, 60155, Note_on_c, 0, 81, 83
1, 60158, Note_on_c, 0, 73, 85
1, 60159, Note_on_c, 0, 76, 78
1, 60178, Note_off_c, 0, 69, 65
1, 60179, Note_on_c, 0, 78, 72
1, 60191, Note_on_c, 0, 79, 43
1, 60192, Note_off_c, 0, 79, 127
1, 60203, Note_off_c, 0, 64, 62
1, 60204, Note_off_c, 0, 76, 58
1, 60205, Note_off_c, 0, 81, 61
1, 60209, Note_off_c, 0, 61, 62
1, 60211, Note_off_c, 0, 78, 67
1, 60212, Note_off_c, 0, 73, 60
1, 60309, Note_on_c, 0, 59, 88
1, 60375, Note_off_c, 0, 59, 61
1, 60446, Note_on_c, 0, 68, 98
1, 60450, Note_on_c, 0, 71, 88
1, 60452, Note_on_c, 0, 76, 86
1, 60452, Note_on_c, 0, 83, 93
1, 60454, Note_on_c, 0, 80, 81
1, 60458, Note_on_c, 0, 64, 79
1, 60493, Note_off_c, 0, 71, 62
1, 60495, Note_off_c, 0, 83, 64
1, 60500, Note_off_c, 0, 68, 62
1, 60501, Note_off_c, 0, 76, 60
1, 60506, Note_off_c, 0, 64, 60
1, 60521, Note_off_c, 0, 80, 65
1, 60597, Note_on_c, 0, 59, 78
1, 60667, Note_off_c, 0, 59, 50
1, 60732, Note_on_c, 0, 83, 85
1, 60732, Note_on_c, 0, 71, 89
1, 60735, Note_on_c, 0, 69, 92
1, 60737, Note_on_c, 0, 75, 85
1, 60737, Note_on_c, 0, 78, 79
1, 60743, Note_on_c, 0, 66, 77
1, 60753, Note_off_c, 0, 71, 65
1, 60756, Note_on_c, 0, 67, 76
1, 60773, Note_off_c, 0, 69, 64
1, 60778, Note_off_c, 0, 83, 64
1, 60780, Note_off_c, 0, 78, 64
1, 60782, Note_off_c, 0, 67, 67
1, 60782, Note_off_c, 0, 75, 62
1, 60783, Note_off_c, 0, 66, 60
1, 60902, Note_on_c, 0, 64, 100
1, 61220, Note_on_c, 0, 88, 90
1, 61222, Note_on_c, 0, 71, 102
1, 61223, Note_on_c, 0, 76, 94
1, 61224, Note_on_c, 0, 80, 98
1, 61224, Note_on_c, 0, 68, 96
1, 61228, Note_on_c, 0, 83, 84
1, 61250, Note_on_c, 0, 84, 61
1, 61254, Note_off_c, 0, 88, 63
1, 61257, Note_off_c, 0, 76, 58
1, 61260, Note_off_c, 0, 64, 60
1, 61263, Note_off_c, 0, 71, 66
1, 61265, Note_off_c, 0, 83, 62
1, 61267, Note_off_c, 0, 68, 66
1, 61268, Note_off_c, 0, 84, 64
1, 61270, Note_off_c, 0, 80, 67
1, 61512, Note_on_c, 0, 64, 74
1, 61542, Note_off_c, 0, 64, 64
1, 61581, Note_on_c, 0, 68, 66
1, 61669, Note_on_c, 0, 71, 54
1, 61686, Note_off_c, 0, 68, 56
1, 61731, Note_on_c, 0, 76, 70
1, 61740, Note_off_c, 0, 71, 60
1, 61762, Note_off_c, 0, 76, 63
1, 61807, Note_on_c, 0, 76, 59
1, 61853, Note_off_c, 0, 76, 59
1, 61872, Note_on_c, 0, 71, 65
1, 61943, Note_on_c, 0, 68, 69
1, 61959, Note_off_c, 0, 71, 56
1, 62000, Note_on_c, 0, 64, 66
1, 62002, Note_off_c, 0, 68, 62
1, 62032, Note_off_c, 0, 64, 64
1, 62087, Note_on_c, 0, 64, 63
1, 62107, Note_off_c, 0, 64, 63
1, 62137, Note_on_c, 0, 69, 70
1, 62210, Note_on_c, 0, 72, 67
1, 62216, Note_off_c, 0, 69, 59
1, 62277, Note_on_c, 0, 76, 78
1, 62279, Note_off_c, 0, 72, 60
1, 62332, Note_off_c, 0, 76, 0
1, 62342, Note_on_c, 0, 76, 66
1, 62384, Note_off_c, 0, 76, 61
1, 62423, Note_on_c, 0, 72, 71
1, 62496, Note_off_c, 0, 72, 59
1, 62511, Note_on_c, 0, 69, 63
1, 62563, Note_off_c, 0, 69, 62
1, 62571, Note_on_c, 0, 64, 56
1, 62604, Note_off_c, 0, 64, 63
1, 62649, Poly_aftertouch_c, 0, 64, 0
1, 62717, Note_on_c, 0, 67, 65
1, 62794, Note_on_c, 0, 70, 69
1, 62814, Note_off_c, 0, 67, 60
1, 62867, Note_on_c, 0, 76, 76
1, 62873, Note_off_c, 0, 70, 62
1, 62892, Note_off_c, 0, 76, 66
1, 62926, Note_on_c, 0, 76, 73
1, 62953, Note_off_c, 0, 76, 63
1, 63006, Note_on_c, 0, 70, 67
1, 63078, Note_on_c, 0, 67, 67
1, 63080, Note_off_c, 0, 70, 62
1, 63128, Note_off_c, 0, 67, 60
1, 63132, Note_on_c, 0, 64, 61
1, 63160, Note_off_c, 0, 64, 61
1, 63218, Note_on_c, 0, 64, 67
1, 63235, Note_off_c, 0, 64, 66
1, 63322, Note_on_c, 0, 67, 44
1, 63365, Note_off_c, 0, 67, 47
1, 63380, Note_on_c, 0, 71, 73
1, 63436, Note_off_c, 0, 71, 64
1, 63471, Note_on_c, 0, 76, 64
1, 63474, Note_on_c, 0, 74, 60
1, 63501, Note_off_c, 0, 76, 64
1, 63502, Note_off_c, 0, 74, 61
1, 63555, Note_on_c, 0, 80, 72
1, 63560, Note_on_c, 0, 83, 73
1, 63573, Note_on_c, 0, 64, 68
1, 63592, Note_off_c, 0, 83, 60
1, 63602, Note_off_c, 0, 80, 63
1, 63615, Note_off_c, 0, 64, 59
1, 63672, Note_on_c, 0, 78, 78
1, 63678, Note_on_c, 0, 66, 75
1, 63678, Note_on_c, 0, 81, 67
1, 63704, Note_off_c, 0, 81, 65
1, 63730, Note_off_c, 0, 78, 61
1, 63740, Note_off_c, 0, 66, 60
1, 63780, Note_on_c, 0, 76, 73
1, 63782, Note_on_c, 0, 68, 86
1, 63788, Note_on_c, 0, 80, 83
1, 63817, Note_off_c, 0, 76, 57
1, 63827, Note_off_c, 0, 68, 64
1, 63835, Note_off_c, 0, 80, 64
1, 63882, Note_on_c, 0, 69, 90
1, 63887, Note_on_c, 0, 81, 84
1, 63889, Note_on_c, 0, 85, 78
1, 63919, Note_off_c, 0, 69, 66
1, 63932, Note_off_c, 0, 81, 63
1, 63995, Note_on_c, 0, 80, 84
1, 63996, Note_on_c, 0, 83, 73
1, 64017, Note_off_c, 0, 85, 61
1, 64052, Note_off_c, 0, 83, 63
1, 64083, Note_off_c, 0, 80, 39
1, 64089, Note_on_c, 0, 78, 81
1, 64092, Note_on_c, 0, 81, 77
1, 64121, Note_off_c, 0, 81, 61
1, 64141, Note_off_c, 0, 78, 62
1, 64195, Note_on_c, 0, 57, 76
1, 64196, Note_on_c, 0, 80, 84
1, 64208, Note_on_c, 0, 76, 84
1, 64255, Note_off_c, 0, 57, 52
1, 64295, Note_on_c, 0, 75, 77
1, 64296, Note_on_c, 0, 78, 75
1, 64310, Note_off_c, 0, 80, 61
1, 64327, Note_off_c, 0, 76, 59
1, 64358, Note_off_c, 0, 75, 62
1, 64366, Note_off_c, 0, 78, 62
1, 64369, Note_on_c, 0, 58, 80
1, 64418, Note_off_c, 0, 58, 63
1, 64444, Note_on_c, 0, 73, 85
1, 64448, Note_on_c, 0, 76, 83
1, 64491, Note_off_c, 0, 73, 58
1, 64494, Note_off_c, 0, 76, 50
1, 64546, Note_on_c, 0, 59, 98
1, 64563, Note_off_c, 0, 59, 71
1, 64630, Note_on_c, 0, 68, 80
1, 64667, Note_off_c, 0, 68, 60
1, 64707, Note_on_c, 0, 76, 62
1, 64763, Note_on_c, 0, 83, 65
1, 64779, Note_off_c, 0, 76, 57
1, 64793, Note_off_c, 0, 83, 65
1, 64833, Note_on_c, 0, 83, 88
1, 64851, Note_off_c, 0, 83, 65
1, 64894, Note_on_c, 0, 76, 74
1, 64909, Note_on_c, 0, 83, 28
1, 64910, Note_off_c, 0, 83, 127
1, 64954, Note_on_c, 0, 68, 71
1, 64954, Note_off_c, 0, 76, 53
1, 65018, Note_off_c, 0, 68, 61
1, 65051, Note_on_c, 0, 59, 66
1, 65076, Note_off_c, 0, 59, 67
1, 65119, Note_on_c, 0, 59, 78
1, 65140, Note_off_c, 0, 59, 68
1, 65206, Note_on_c, 0, 66, 64
1, 65234, Note_off_c, 0, 66, 64
1, 65258, Note_on_c, 0, 75, 65
1, 65337, Note_on_c, 0, 83, 74
1, 65363, Note_off_c, 0, 83, 66
1, 65386, Note_off_c, 0, 75, 39
1, 65401, Note_on_c, 0, 83, 84
1, 65413, Note_off_c, 0, 83, 42
1, 65486, Note_on_c, 0, 75, 78
1, 65552, Note_on_c, 0, 66, 68
1, 65575, Note_off_c, 0, 75, 48
1, 65613, Note_off_c, 0, 66, 60
1, 65627, Note_on_c, 0, 59, 61
1, 65700, Note_on_c, 0, 64, 83
1, 65710, Note_off_c, 0, 59, 61
1, 65726, Note_off_c, 0, 64, 68
1, 65779, Note_on_c, 0, 68, 71
1, 65830, Note_off_c, 0, 68, 60
1, 65851, Note_on_c, 0, 76, 63
1, 65928, Note_off_c, 0, 76, 59
1, 65934, Note_on_c, 0, 83, 70
1, 65980, Note_off_c, 0, 83, 61
1, 66046, Note_on_c, 0, 92, 74
1, 66072, Note_off_c, 0, 92, 65
1, 66259, Note_on_c, 0, 88, 85
1, 66277, Note_off_c, 0, 88, 72
1, 66541, Note_on_c, 0, 64, 62
1, 66547, Control_c, 0, 64, 57
1, 66561, Control_c, 0, 64, 67
1, 66576, Control_c, 0, 64, 75
1, 66591, Control_c, 0, 64, 82
1, 66605, Note_on_c, 0, 71, 60
1, 66606, Control_c, 0, 64, 82
1, 66615, Note_on_c, 0, 68, 52
1, 66620, Control_c, 0, 64, 83
1, 66637, Note_off_c, 0, 64, 54
1, 66653, Note_off_c, 0, 68, 64
1, 66662, Note_on_c, 0, 76, 66
1, 66681, Note_off_c, 0, 71, 54
1, 66692, Note_off_c, 0, 76, 61
1, 66750, Note_on_c, 0, 88, 71
1, 66753, Note_on_c, 0, 80, 66
1, 66770, Note_off_c, 0, 80, 68
1, 66771, Note_off_c, 0, 88, 62
1, 66829, Note_on_c, 0, 80, 83
1, 66829, Note_on_c, 0, 88, 85
1, 66858, Control_c, 0, 64, 82
1, 66873, Control_c, 0, 64, 82
1, 66885, Note_off_c, 0, 88, 59
1, 66888, Control_c, 0, 64, 81
1, 66902, Note_on_c, 0, 76, 77
1, 66903, Control_c, 0, 64, 80
1, 66913, Note_off_c, 0, 80, 63
1, 66918, Control_c, 0, 64, 79
1, 66933, Control_c, 0, 64, 78
1, 66955, Control_c, 0, 64, 78
1, 66958, Note_on_c, 0, 71, 63
1, 66962, Note_off_c, 0, 76, 61
1, 66968, Note_on_c, 0, 68, 67
1, 66970, Control_c, 0, 64, 77
1, 66985, Control_c, 0, 64, 77
1, 66999, Control_c, 0, 64, 76
1, 67014, Control_c, 0, 64, 73
1, 67029, Control_c, 0, 64, 64
1, 67043, Control_c, 0, 64, 48
1, 67046, Note_off_c, 0, 71, 62
1, 67048, Note_off_c, 0, 68, 61
1, 67058, Control_c, 0, 64, 0
1, 67060, Note_on_c, 0, 64, 60
1, 67088, Control_c, 0, 64, 17
1, 67095, Note_off_c, 0, 64, 63
1, 67103, Control_c, 0, 64, 52
1, 67117, Control_c, 0, 64, 66
1, 67132, Control_c, 0, 64, 76
1, 67139, Note_on_c, 0, 64, 93
1, 67147, Control_c, 0, 64, 92
1, 67162, Control_c, 0, 64, 94
1, 67195, Note_on_c, 0, 69, 55
1, 67208, Note_on_c, 0, 72, 81
1, 67236, Control_c, 0, 64, 94
1, 67251, Control_c, 0, 64, 92
1, 67260, Note_off_c, 0, 64, 52
1, 67266, Control_c, 0, 64, 91
1, 67272, Note_off_c, 0, 72, 58
1, 67276, Note_on_c, 0, 76, 77
1, 67278, Note_off_c, 0, 69, 60
1, 67281, Control_c, 0, 64, 89
1, 67296, Control_c, 0, 64, 88
1, 67311, Control_c, 0, 64, 87
1, 67325, Control_c, 0, 64, 86
1, 67329, Note_off_c, 0, 76, 48
1, 67340, Control_c, 0, 64, 86
1, 67353, Note_on_c, 0, 88, 76
1, 67356, Note_on_c, 0, 81, 71
1, 67380, Note_off_c, 0, 81, 68
1, 67389, Note_off_c, 0, 88, 60
1, 67436, Note_on_c, 0, 88, 86
1, 67443, Note_on_c, 0, 81, 87
1, 67488, Control_c, 0, 64, 85
1, 67502, Note_off_c, 0, 88, 58
1, 67513, Note_on_c, 0, 76, 79
1, 67517, Control_c, 0, 64, 85
1, 67528, Note_off_c, 0, 81, 57
1, 67547, Control_c, 0, 64, 84
1, 67563, Control_c, 0, 64, 84
1, 67567, Note_off_c, 0, 76, 61
1, 67571, Note_on_c, 0, 69, 63
1, 67573, Note_on_c, 0, 72, 67
1, 67578, Control_c, 0, 64, 83
1, 67593, Control_c, 0, 64, 83
1, 67607, Control_c, 0, 64, 82
1, 67622, Control_c, 0, 64, 77
1, 67637, Control_c, 0, 64, 65
1, 67648, Note_off_c, 0, 72, 62
1, 67652, Control_c, 0, 64, 0
1, 67660, Note_on_c, 0, 64, 66
1, 67663, Note_off_c, 0, 69, 61
1, 67701, Note_off_c, 0, 64, 58
1, 67704, Control_c, 0, 64, 26
1, 67720, Control_c, 0, 64, 57
1, 67734, Control_c, 0, 64, 67
1, 67749, Control_c, 0, 64, 78
1, 67761, Poly_aftertouch_c, 0, 64, 127
1, 67764, Control_c, 0, 64, 92
1, 67779, Control_c, 0, 64, 94
1, 67821, Note_on_c, 0, 70, 83
1, 67831, Poly_aftertouch_c, 0, 64, 0
1, 67832, Note_on_c, 0, 67, 62
1, 67865, Note_off_c, 0, 67, 62
1, 67874, Note_on_c, 0, 76, 75
1, 67880, Note_off_c, 0, 70, 62
1, 67912, Control_c, 0, 64, 93
1, 67914, Note_off_c, 0, 76, 57
1, 67941, Control_c, 0, 64, 93
1, 67970, Note_on_c, 0, 88, 81
1, 67971, Note_on_c, 0, 79, 73
1, 67994, Note_off_c, 0, 79, 68
1, 68009, Note_off_c, 0, 88, 59
1, 68045, Control_c, 0, 64, 92
1, 68051, Note_on_c, 0, 88, 81
1, 68057, Note_on_c, 0, 79, 87
1, 68074, Control_c, 0, 64, 92
1, 68089, Control_c, 0, 64, 91
1, 68092, Note_on_c, 0, 82, 54
1, 68104, Control_c, 0, 64, 90
1, 68116, Note_off_c, 0, 82, 57
1, 68119, Control_c, 0, 64, 89
1, 68123, Note_off_c, 0, 88, 58
1, 68134, Control_c, 0, 64, 87
1, 68140, Note_on_c, 0, 76, 77
1, 68147, Note_off_c, 0, 79, 59
1, 68149, Control_c, 0, 64, 86
1, 68164, Control_c, 0, 64, 85
1, 68179, Control_c, 0, 64, 83
1, 68182, Note_on_c, 0, 70, 68
1, 68188, Note_on_c, 0, 67, 60
1, 68191, Note_off_c, 0, 76, 60
1, 68193, Control_c, 0, 64, 83
1, 68208, Control_c, 0, 64, 82
1, 68223, Control_c, 0, 64, 81
1, 68238, Control_c, 0, 64, 80
1, 68253, Control_c, 0, 64, 74
1, 68261, Note_on_c, 0, 64, 75
1, 68266, Note_off_c, 0, 70, 63
1, 68267, Control_c, 0, 64, 61
1, 68268, Note_off_c, 0, 67, 61
1, 68282, Control_c, 0, 64, 0
1, 68294, Note_off_c, 0, 64, 64
1, 68327, Control_c, 0, 64, 38
1, 68341, Control_c, 0, 64, 60
1, 68355, Note_on_c, 0, 64, 80
1, 68357, Control_c, 0, 64, 69
1, 68372, Control_c, 0, 64, 79
1, 68387, Control_c, 0, 64, 88
1, 68402, Note_on_c, 0, 68, 67
1, 68402, Note_on_c, 0, 71, 78
1, 68426, Note_off_c, 0, 64, 58
1, 68464, Note_off_c, 0, 71, 63
1, 68473, Note_off_c, 0, 68, 60
1, 68480, Note_on_c, 0, 76, 72
1, 68513, Control_c, 0, 64, 88
1, 68543, Note_off_c, 0, 76, 56
1, 68546, Note_on_c, 0, 80, 86
1, 68554, Note_on_c, 0, 88, 74
1, 68567, Note_off_c, 0, 88, 70
1, 68575, Note_off_c, 0, 80, 61
1, 68602, Control_c, 0, 64, 87
1, 68646, Control_c, 0, 64, 84
1, 68659, Note_on_c, 0, 68, 72
1, 68661, Note_on_c, 0, 64, 69
1, 68661, Control_c, 0, 64, 73
1, 68676, Control_c, 0, 64, 61
1, 68688, Note_off_c, 0, 68, 64
1, 68690, Control_c, 0, 64, 0
1, 68701, Note_off_c, 0, 64, 60
1, 68762, Note_on_c, 0, 69, 66
1, 68772, Note_on_c, 0, 66, 41
1, 68774, Note_on_c, 0, 63, 66
1, 68799, Note_off_c, 0, 69, 62
1, 68800, Note_off_c, 0, 66, 53
1, 68803, Note_off_c, 0, 63, 65
1, 68864, Note_on_c, 0, 68, 71
1, 68877, Note_on_c, 0, 71, 59
1, 68885, Note_on_c, 0, 62, 48
1, 68899, Note_off_c, 0, 68, 57
1, 68900, Note_off_c, 0, 71, 62
1, 68911, Note_off_c, 0, 62, 54
1, 68962, Note_on_c, 0, 73, 75
1, 68967, Note_on_c, 0, 61, 79
1, 68976, Note_on_c, 0, 69, 54
1, 68997, Note_off_c, 0, 69, 62
1, 69006, Note_off_c, 0, 61, 62
1, 69009, Note_off_c, 0, 73, 60
1, 69073, Note_on_c, 0, 75, 80
1, 69075, Note_on_c, 0, 71, 73
1, 69097, Note_off_c, 0, 71, 68
1, 69125, Note_off_c, 0, 75, 54
1, 69159, Note_on_c, 0, 73, 82
1, 69168, Note_on_c, 0, 76, 73
1, 69210, Note_off_c, 0, 76, 58
1, 69220, Note_off_c, 0, 73, 63
1, 69273, Note_on_c, 0, 57, 98
1, 69276, Note_on_c, 0, 75, 82
1, 69281, Note_on_c, 0, 78, 78
1, 69296, Note_off_c, 0, 75, 67
1, 69311, Note_off_c, 0, 57, 64
1, 69329, Note_off_c, 0, 78, 62
1, 69384, Note_on_c, 0, 76, 63
1, 69399, Note_on_c, 0, 80, 80
1, 69431, Note_off_c, 0, 76, 58
1, 69449, Note_off_c, 0, 80, 60
1, 69494, Note_on_c, 0, 81, 79
1, 69501, Note_on_c, 0, 78, 82
1, 69538, Note_off_c, 0, 81, 64
1, 69545, Note_off_c, 0, 78, 60
1, 69573, Control_c, 0, 64, 59
1, 69578, Note_on_c, 0, 59, 85
1, 69587, Control_c, 0, 64, 73
1, 69602, Control_c, 0, 64, 98
1, 69617, Control_c, 0, 64, 127
1, 69631, Note_off_c, 0, 59, 59
1, 69659, Note_on_c, 0, 71, 80
1, 69662, Note_on_c, 0, 68, 75
1, 69676, Control_c, 0, 64, 111
1, 69691, Control_c, 0, 64, 101
1, 69706, Control_c, 0, 64, 96
1, 69714, Note_off_c, 0, 71, 60
1, 69720, Control_c, 0, 64, 94
1, 69723, Note_off_c, 0, 68, 59
1, 69734, Note_on_c, 0, 76, 78
1, 69735, Control_c, 0, 64, 91
1, 69750, Control_c, 0, 64, 90
1, 69764, Control_c, 0, 64, 87
1, 69774, Note_off_c, 0, 76, 50
1, 69779, Control_c, 0, 64, 85
1, 69794, Control_c, 0, 64, 84
1, 69809, Control_c, 0, 64, 84
1, 69818, Note_on_c, 0, 80, 80
1, 69823, Note_on_c, 0, 88, 75
1, 69824, Control_c, 0, 64, 83
1, 69839, Note_off_c, 0, 80, 69
1, 69839, Control_c, 0, 64, 83
1, 69848, Note_off_c, 0, 88, 67
1, 69854, Control_c, 0, 64, 82
1, 69869, Control_c, 0, 64, 82
1, 69884, Control_c, 0, 64, 81
1, 69899, Note_on_c, 0, 88, 85
1, 69899, Control_c, 0, 64, 80
1, 69905, Note_on_c, 0, 80, 90
1, 69913, Control_c, 0, 64, 80
1, 69950, Control_c, 0, 64, 79
1, 69966, Control_c, 0, 64, 79
1, 69970, Note_off_c, 0, 88, 59
1, 69973, Note_on_c, 0, 76, 83
1, 69982, Note_off_c, 0, 80, 64
1, 69996, Control_c, 0, 64, 78
1, 70010, Control_c, 0, 64, 78
1, 70012, Note_off_c, 0, 76, 63
1, 70025, Control_c, 0, 64, 77
1, 70030, Note_on_c, 0, 68, 71
1, 70030, Note_on_c, 0, 71, 80
1, 70040, Control_c, 0, 64, 72
1, 70055, Control_c, 0, 64, 60
1, 70069, Control_c, 0, 64, 0
1, 70078, Note_off_c, 0, 71, 62
1, 70083, Note_off_c, 0, 68, 61
1, 70114, Control_c, 0, 64, 38
1, 70128, Note_on_c, 0, 59, 77
1, 70129, Control_c, 0, 64, 61
1, 70143, Control_c, 0, 64, 72
1, 70158, Control_c, 0, 64, 85
1, 70164, Note_off_c, 0, 59, 61
1, 70173, Control_c, 0, 64, 91
1, 70221, Note_on_c, 0, 59, 85
1, 70232, Control_c, 0, 64, 90
1, 70262, Control_c, 0, 64, 89
1, 70277, Control_c, 0, 64, 89
1, 70279, Note_on_c, 0, 71, 84
1, 70283, Note_on_c, 0, 66, 69
1, 70287, Note_off_c, 0, 59, 54
1, 70292, Control_c, 0, 64, 88
1, 70307, Control_c, 0, 64, 87
1, 70322, Control_c, 0, 64, 86
1, 70334, Note_on_c, 0, 75, 69
1, 70335, Note_off_c, 0, 71, 63
1, 70336, Control_c, 0, 64, 86
1, 70351, Note_off_c, 0, 66, 59
1, 70351, Control_c, 0, 64, 85
1, 70366, Control_c, 0, 64, 84
1, 70411, Note_on_c, 0, 78, 77
1, 70414, Note_off_c, 0, 75, 59
1, 70425, Control_c, 0, 64, 84
1, 70429, Note_on_c, 0, 87, 63
1, 70435, Note_off_c, 0, 78, 64
1, 70445, Note_off_c, 0, 87, 65
1, 70484, Control_c, 0, 64, 83
1, 70496, Note_on_c, 0, 87, 94
1, 70500, Note_on_c, 0, 78, 88
1, 70524, Note_on_c, 0, 82, 62
1, 70528, Control_c, 0, 64, 83
1, 70540, Note_off_c, 0, 82, 62
1, 70543, Control_c, 0, 64, 82
1, 70548, Note_off_c, 0, 87, 67
1, 70558, Control_c, 0, 64, 81
1, 70564, Note_on_c, 0, 75, 76
1, 70573, Control_c, 0, 64, 80
1, 70587, Control_c, 0, 64, 79
1, 70589, Note_off_c, 0, 78, 57
1, 70602, Control_c, 0, 64, 77
1, 70617, Control_c, 0, 64, 77
1, 70620, Note_on_c, 0, 71, 76
1, 70621, Note_on_c, 0, 66, 67
1, 70621, Note_off_c, 0, 75, 62
1, 70632, Control_c, 0, 64, 76
1, 70643, Note_off_c, 0, 71, 69
1, 70647, Control_c, 0, 64, 76
1, 70650, Note_off_c, 0, 66, 65
1, 70677, Control_c, 0, 64, 75
1, 70699, Control_c, 0, 64, 71
1, 70705, Note_on_c, 0, 59, 66
1, 70713, Control_c, 0, 64, 54
1, 70726, Note_off_c, 0, 59, 60
1, 70728, Control_c, 0, 64, 0
1, 70788, Control_c, 0, 64, 44
1, 70801, Note_on_c, 0, 64, 75
1, 70803, Control_c, 0, 64, 63
1, 70817, Control_c, 0, 64, 69
1, 70832, Control_c, 0, 64, 75
1, 70847, Control_c, 0, 64, 77
1, 70886, Note_off_c, 0, 64, 60
1, 70897, Note_on_c, 0, 76, 64
1, 70912, Note_on_c, 0, 71, 55
1, 70924, Note_on_c, 0, 68, 37
1, 70937, Note_on_c, 0, 80, 73
1, 70956, Note_off_c, 0, 68, 53
1, 70969, Note_off_c, 0, 76, 59
1, 70979, Note_off_c, 0, 71, 53
1, 71004, Note_on_c, 0, 88, 68
1, 71012, Note_on_c, 0, 83, 63
1, 71040, Note_off_c, 0, 80, 61
1, 71060, Note_on_c, 0, 92, 88
1, 71090, Note_off_c, 0, 88, 60
1, 71108, Note_off_c, 0, 92, 64
1, 71117, Note_on_c, 0, 80, 82
1, 71121, Note_off_c, 0, 83, 62
1, 71144, Control_c, 0, 64, 76
1, 71158, Control_c, 0, 64, 76
1, 71166, Note_off_c, 0, 80, 62
1, 71173, Control_c, 0, 64, 75
1, 71183, Note_on_c, 0, 76, 80
1, 71188, Control_c, 0, 64, 75
1, 71189, Note_on_c, 0, 68, 64
1, 71195, Note_on_c, 0, 71, 62
1, 71202, Control_c, 0, 64, 74
1, 71217, Control_c, 0, 64, 74
1, 71219, Note_off_c, 0, 76, 57
1, 71222, Note_off_c, 0, 71, 67
1, 71232, Control_c, 0, 64, 73
1, 71247, Control_c, 0, 64, 72
1, 71262, Control_c, 0, 64, 64
1, 71264, Note_off_c, 0, 68, 58
1, 71267, Note_on_c, 0, 64, 80
1, 71276, Control_c, 0, 64, 0
1, 71318, Note_off_c, 0, 64, 58
1, 71321, Control_c, 0, 64, 30
1, 71336, Control_c, 0, 64, 57
1, 71350, Control_c, 0, 64, 65
1, 71358, Note_on_c, 0, 64, 78
1, 71365, Control_c, 0, 64, 71
1, 71380, Control_c, 0, 64, 76
1, 71417, Note_off_c, 0, 64, 63
1, 71420, Note_on_c, 0, 72, 81
1, 71422, Note_on_c, 0, 76, 92
1, 71433, Note_on_c, 0, 69, 67
1, 71456, Note_on_c, 0, 67, 19
1, 71484, Note_off_c, 0, 76, 60
1, 71485, Note_on_c, 0, 81, 81
1, 71496, Note_off_c, 0, 72, 62
1, 71497, Note_off_c, 0, 67, 38
1, 71498, Note_off_c, 0, 69, 59
1, 71555, Note_on_c, 0, 84, 74
1, 71558, Note_on_c, 0, 88, 77
1, 71565, Note_off_c, 0, 81, 63
1, 71627, Note_on_c, 0, 93, 86
1, 71631, Note_off_c, 0, 88, 65
1, 71642, Note_off_c, 0, 84, 61
1, 71655, Control_c, 0, 64, 75
1, 71663, Note_off_c, 0, 93, 64
1, 71680, Note_on_c, 0, 81, 76
1, 71685, Control_c, 0, 64, 75
1, 71702, Note_off_c, 0, 81, 67
1, 71714, Control_c, 0, 64, 74
1, 71729, Control_c, 0, 64, 74
1, 71731, Note_on_c, 0, 76, 76
1, 71746, Note_on_c, 0, 69, 59
1, 71747, Note_on_c, 0, 72, 54
1, 71755, Note_off_c, 0, 76, 62
1, 71759, Control_c, 0, 64, 73
1, 71774, Control_c, 0, 64, 69
1, 71776, Note_off_c, 0, 72, 61
1, 71778, Note_off_c, 0, 69, 64
1, 71789, Control_c, 0, 64, 57
1, 71803, Control_c, 0, 64, 0
1, 71821, Note_on_c, 0, 64, 79
1, 71833, Control_c, 0, 64, 22
1, 71848, Control_c, 0, 64, 53
1, 71863, Control_c, 0, 64, 64
1, 71877, Note_off_c, 0, 64, 60
1, 71878, Control_c, 0, 64, 70
1, 71893, Control_c, 0, 64, 75
1, 71907, Control_c, 0, 64, 76
1, 71916, Note_on_c, 0, 64, 67
1, 71984, Note_off_c, 0, 64, 62
1, 71988, Note_on_c, 0, 68, 73
1, 71988, Note_on_c, 0, 76, 91
1, 71989, Note_on_c, 0, 71, 79
1, 71996, Control_c, 0, 64, 76
1, 72033, Note_off_c, 0, 76, 59
1, 72034, Note_on_c, 0, 80, 80
1, 72041, Note_off_c, 0, 68, 60
1, 72042, Note_off_c, 0, 71, 64
1, 72055, Control_c, 0, 64, 75
1, 72092, Note_on_c, 0, 88, 70
1, 72098, Note_on_c, 0, 83, 73
1, 72126, Note_off_c, 0, 80, 63
1, 72144, Control_c, 0, 64, 76
1, 72151, Note_on_c, 0, 92, 88
1, 72189, Note_off_c, 0, 88, 60
1, 72211, Note_off_c, 0, 92, 64
1, 72218, Note_on_c, 0, 80, 92
1, 72226, Note_off_c, 0, 83, 62
1, 72255, Control_c, 0, 64, 75
1, 72270, Control_c, 0, 64, 75
1, 72273, Note_off_c, 0, 80, 64
1, 72285, Control_c, 0, 64, 74
1, 72293, Note_on_c, 0, 76, 89
1, 72298, Note_on_c, 0, 68, 74
1, 72300, Control_c, 0, 64, 74
1, 72302, Note_on_c, 0, 71, 73
1, 72314, Control_c, 0, 64, 72
1, 72325, Note_off_c, 0, 76, 54
1, 72326, Note_off_c, 0, 71, 65
1, 72329, Control_c, 0, 64, 65
1, 72344, Control_c, 0, 64, 0
1, 72352, Note_off_c, 0, 68, 61
1, 72390, Note_on_c, 0, 64, 83
1, 72404, Control_c, 0, 64, 50
1, 72419, Control_c, 0, 64, 63
1, 72434, Control_c, 0, 64, 68
1, 72435, Note_off_c, 0, 64, 57
1, 72449, Control_c, 0, 64, 72
1, 72463, Control_c, 0, 64, 73
1, 72480, Note_on_c, 0, 64, 80
1, 72546, Note_off_c, 0, 64, 60
1, 72551, Note_on_c, 0, 67, 36
1, 72552, Note_on_c, 0, 69, 66
1, 72553, Note_on_c, 0, 72, 80
1, 72555, Note_on_c, 0, 76, 95
1, 72567, Control_c, 0, 64, 72
1, 72589, Note_off_c, 0, 67, 50
1, 72593, Note_on_c, 0, 81, 81
1, 72601, Note_off_c, 0, 76, 62
1, 72616, Note_off_c, 0, 69, 62
1, 72617, Note_off_c, 0, 72, 62
1, 72661, Note_on_c, 0, 84, 74
1, 72661, Note_on_c, 0, 88, 77
1, 72674, Note_off_c, 0, 81, 62
1, 72725, Note_on_c, 0, 93, 90
1, 72736, Note_off_c, 0, 84, 60
1, 72738, Note_off_c, 0, 88, 61
1, 72760, Note_off_c, 0, 93, 66
1, 72778, Note_on_c, 0, 81, 90
1, 72789, Control_c, 0, 64, 72
1, 72825, Note_off_c, 0, 81, 61
1, 72834, Control_c, 0, 64, 71
1, 72859, Note_on_c, 0, 76, 82
1, 72863, Control_c, 0, 64, 71
1, 72865, Note_on_c, 0, 72, 68
1, 72871, Note_on_c, 0, 69, 64
1, 72878, Control_c, 0, 64, 67
1, 72890, Note_off_c, 0, 76, 61
1, 72893, Control_c, 0, 64, 57
1, 72896, Note_off_c, 0, 72, 64
1, 72899, Note_off_c, 0, 69, 63
1, 72908, Control_c, 0, 64, 0
1, 72956, Note_on_c, 0, 64, 82
1, 72959, Control_c, 0, 64, 49
1, 72974, Control_c, 0, 64, 63
1, 72988, Control_c, 0, 64, 70
1, 73003, Control_c, 0, 64, 79
1, 73009, Note_off_c, 0, 64, 62
1, 73018, Control_c, 0, 64, 82
1, 73047, Note_on_c, 0, 64, 72
1, 73085, Note_on_c, 0, 68, 66
1, 73107, Note_on_c, 0, 71, 84
1, 73107, Note_off_c, 0, 64, 63
1, 73109, Note_on_c, 0, 76, 99
1, 73136, Control_c, 0, 64, 81
1, 73148, Note_off_c, 0, 76, 64
1, 73166, Note_on_c, 0, 80, 84
1, 73167, Control_c, 0, 64, 81
1, 73168, Note_off_c, 0, 71, 63
1, 73176, Note_off_c, 0, 68, 54
1, 73182, Control_c, 0, 64, 80
1, 73197, Control_c, 0, 64, 80
1, 73211, Control_c, 0, 64, 79
1, 73225, Note_on_c, 0, 88, 74
1, 73228, Note_on_c, 0, 83, 72
1, 73256, Control_c, 0, 64, 79
1, 73262, Note_off_c, 0, 80, 63
1, 73285, Note_on_c, 0, 92, 89
1, 73300, Control_c, 0, 64, 78
1, 73303, Note_off_c, 0, 88, 58
1, 73330, Control_c, 0, 64, 78
1, 73336, Note_off_c, 0, 92, 64
1, 73341, Note_on_c, 0, 80, 87
1, 73349, Note_off_c, 0, 83, 62
1, 73359, Control_c, 0, 64, 77
1, 73374, Control_c, 0, 64, 76
1, 73389, Control_c, 0, 64, 76
1, 73392, Note_off_c, 0, 80, 63
1, 73404, Control_c, 0, 64, 75
1, 73409, Note_on_c, 0, 71, 87
1, 73434, Control_c, 0, 64, 73
1, 73449, Control_c, 0, 64, 64
1, 73464, Control_c, 0, 64, 30
1, 73478, Control_c, 0, 64, 0
1, 73492, Note_on_c, 0, 64, 75
1, 73503, Note_on_c, 0, 68, 79
1, 73508, Control_c, 0, 64, 30
1, 73511, Note_off_c, 0, 71, 62
1, 73523, Control_c, 0, 64, 54
1, 73537, Control_c, 0, 64, 64
1, 73552, Control_c, 0, 64, 69
1, 73565, Note_on_c, 0, 61, 69
1, 73567, Control_c, 0, 64, 74
1, 73575, Note_off_c, 0, 68, 60
1, 73582, Control_c, 0, 64, 75
1, 73604, Note_off_c, 0, 64, 59
1, 73621, Note_on_c, 0, 62, 18
1, 73623, Note_on_c, 0, 67, 82
1, 73631, Note_on_c, 0, 70, 93
1, 73664, Note_off_c, 0, 62, 29
1, 73690, Note_off_c, 0, 67, 61
1, 73690, Note_off_c, 0, 70, 64
1, 73720, Note_off_c, 0, 61, 62
1, 73721, Note_on_c, 0, 76, 80
1, 73723, Control_c, 0, 64, 74
1, 73753, Control_c, 0, 64, 73
1, 73783, Note_on_c, 0, 79, 88
1, 73791, Note_on_c, 0, 88, 84
1, 73796, Note_off_c, 0, 76, 57
1, 73819, Note_off_c, 0, 88, 63
1, 73826, Note_off_c, 0, 79, 62
1, 73857, Control_c, 0, 64, 72
1, 73872, Control_c, 0, 64, 64
1, 73886, Control_c, 0, 64, 43
1, 73901, Control_c, 0, 64, 0
1, 73904, Note_on_c, 0, 61, 65
1, 73928, Note_off_c, 0, 61, 55
1, 74069, Note_on_c, 0, 58, 86
1, 74113, Note_off_c, 0, 58, 63
1, 74260, Note_on_c, 0, 59, 108
1, 74287, Note_off_c, 0, 59, 65
1, 74366, Note_on_c, 0, 80, 79
1, 74371, Note_on_c, 0, 83, 75
1, 74409, Note_off_c, 0, 83, 55
1, 74411, Note_off_c, 0, 80, 64
1, 74478, Note_on_c, 0, 78, 80
1, 74480, Note_on_c, 0, 81, 71
1, 74530, Note_off_c, 0, 81, 59
1, 74561, Note_on_c, 0, 68, 79
1, 74570, Note_on_c, 0, 80, 74
1, 74573, Note_on_c, 0, 76, 72
1, 74577, Note_off_c, 0, 78, 60
1, 74590, Note_off_c, 0, 80, 71
1, 74601, Note_off_c, 0, 76, 61
1, 74622, Note_off_c, 0, 68, 59
1, 74668, Note_on_c, 0, 69, 74
1, 74688, Note_on_c, 0, 78, 78
1, 74696, Note_on_c, 0, 75, 69
1, 74713, Note_off_c, 0, 69, 54
1, 74721, Note_off_c, 0, 75, 67
1, 74768, Note_on_c, 0, 70, 75
1, 74772, Note_on_c, 0, 76, 52
1, 74777, Note_on_c, 0, 73, 78
1, 74784, Note_off_c, 0, 78, 59
1, 74808, Note_off_c, 0, 70, 60
1, 74813, Note_off_c, 0, 76, 60
1, 74826, Note_off_c, 0, 73, 61
1, 74884, Note_on_c, 0, 71, 75
1, 74885, Note_on_c, 0, 75, 73
1, 74907, Note_off_c, 0, 71, 69
1, 74910, Note_off_c, 0, 75, 67
1, 74969, Note_on_c, 0, 73, 60
1, 74973, Note_on_c, 0, 69, 64
1, 75019, Note_off_c, 0, 69, 58
1, 75026, Note_off_c, 0, 73, 55
1, 75068, Note_on_c, 0, 68, 77
1, 75121, Note_off_c, 0, 68, 61
1, 75200, Note_on_c, 0, 59, 58
1, 75203, Note_on_c, 0, 69, 67
1, 75207, Note_on_c, 0, 66, 64
1, 75221, Note_off_c, 0, 59, 59
1, 75233, Note_off_c, 0, 69, 64
1, 75234, Note_off_c, 0, 66, 65
1, 75310, Note_on_c, 0, 64, 66
1, 75313, Note_on_c, 0, 68, 74
1, 75342, Note_off_c, 0, 64, 64
1, 75363, Note_off_c, 0, 68, 59
1, 75426, Note_on_c, 0, 66, 62
1, 75429, Note_on_c, 0, 63, 55
1, 75447, Note_off_c, 0, 66, 63
1, 75451, Note_off_c, 0, 63, 62
1, 75518, Note_on_c, 0, 64, 69
1, 75543, Note_off_c, 0, 64, 62
1, 75619, Note_on_c, 0, 68, 61
1, 75686, Note_on_c, 0, 71, 63
1, 75716, Note_off_c, 0, 68, 60
1, 75776, Note_off_c, 0, 71, 63
1, 75778, Note_on_c, 0, 76, 65
1, 75812, Note_on_c, 0, 80, 70
1, 75813, Note_off_c, 0, 76, 56
1, 75837, Note_off_c, 0, 80, 69
1, 75896, Note_on_c, 0, 71, 65
1, 75968, Note_on_c, 0, 68, 67
1, 75998, Note_off_c, 0, 71, 58
1, 76030, Note_off_c, 0, 68, 62
1, 76038, Note_on_c, 0, 64, 59
1, 76063, Note_off_c, 0, 64, 62
1, 76120, Note_on_c, 0, 64, 51
1, 76144, Note_off_c, 0, 64, 39
1, 76178, Note_on_c, 0, 69, 64
1, 76230, Note_on_c, 0, 72, 64
1, 76270, Note_off_c, 0, 69, 47
1, 76306, Note_on_c, 0, 76, 71
1, 76312, Note_off_c, 0, 72, 60
1, 76349, Note_off_c, 0, 76, 51
1, 76385, Note_on_c, 0, 81, 73
1, 76399, Note_off_c, 0, 81, 69
1, 76445, Note_on_c, 0, 72, 64
1, 76510, Note_on_c, 0, 69, 70
1, 76529, Note_off_c, 0, 72, 60
1, 76568, Note_on_c, 0, 64, 65
1, 76586, Note_off_c, 0, 69, 61
1, 76612, Note_off_c, 0, 64, 60
1, 76662, Note_on_c, 0, 64, 73
1, 76698, Note_off_c, 0, 64, 65
1, 76740, Note_on_c, 0, 68, 73
1, 76814, Note_on_c, 0, 71, 64
1, 76871, Note_off_c, 0, 68, 55
1, 76889, Note_on_c, 0, 76, 75
1, 76907, Note_off_c, 0, 71, 61
1, 76947, Note_off_c, 0, 76, 58
1, 76969, Note_on_c, 0, 80, 77
1, 76989, Note_off_c, 0, 80, 71
1, 77029, Note_on_c, 0, 71, 72
1, 77106, Note_on_c, 0, 68, 74
1, 77140, Note_off_c, 0, 71, 60
1, 77170, Note_on_c, 0, 64, 69
1, 77184, Note_off_c, 0, 68, 61
1, 77203, Note_off_c, 0, 64, 63
1, 77250, Note_on_c, 0, 64, 84
1, 77271, Note_off_c, 0, 64, 68
1, 77315, Note_on_c, 0, 69, 77
1, 77381, Note_on_c, 0, 72, 74
1, 77412, Note_off_c, 0, 69, 56
1, 77463, Note_on_c, 0, 76, 80
1, 77479, Note_off_c, 0, 72, 61
1, 77520, Note_off_c, 0, 76, 59
1, 77530, Note_on_c, 0, 81, 89
1, 77554, Note_off_c, 0, 81, 65
1, 77596, Note_on_c, 0, 72, 75
1, 77659, Note_on_c, 0, 69, 74
1, 77683, Note_off_c, 0, 72, 60
1, 77732, Note_on_c, 0, 64, 73
1, 77748, Note_off_c, 0, 69, 62
1, 77774, Note_off_c, 0, 64, 59
1, 77810, Note_on_c, 0, 64, 83
1, 77836, Note_off_c, 0, 64, 67
1, 77872, Note_on_c, 0, 68, 80
1, 77908, Poly_aftertouch_c, 0, 74, 0
1, 77940, Note_on_c, 0, 71, 74
1, 78000, Note_off_c, 0, 68, 55
1, 78013, Note_on_c, 0, 76, 84
1, 78024, Note_off_c, 0, 71, 63
1, 78080, Note_off_c, 0, 76, 56
1, 78094, Note_on_c, 0, 80, 93
1, 78115, Note_off_c, 0, 80, 68
1, 78143, Note_on_c, 0, 71, 71
1, 78221, Note_on_c, 0, 68, 73
1, 78257, Note_off_c, 0, 71, 61
1, 78277, Note_on_c, 0, 64, 70
1, 78305, Note_off_c, 0, 68, 61
1, 78313, Note_off_c, 0, 64, 64
1, 78349, Control_c, 0, 64, 47
1, 78364, Control_c, 0, 64, 77
1, 78379, Note_on_c, 0, 60, 106
1, 78379, Control_c, 0, 64, 127
1, 78415, Note_off_c, 0, 60, 60
1, 78427, Note_on_c, 0, 59, 25
1, 78462, Note_off_c, 0, 59, 45
1, 78483, Control_c, 0, 64, 122
1, 78484, Note_on_c, 0, 67, 82
1, 78513, Control_c, 0, 64, 119
1, 78527, Control_c, 0, 64, 116
1, 78537, Note_on_c, 0, 74, 26
1, 78542, Control_c, 0, 64, 111
1, 78546, Note_on_c, 0, 70, 82
1, 78557, Control_c, 0, 64, 108
1, 78563, Note_off_c, 0, 67, 53
1, 78572, Control_c, 0, 64, 105
1, 78573, Note_off_c, 0, 74, 41
1, 78587, Control_c, 0, 64, 104
1, 78612, Note_on_c, 0, 76, 77
1, 78631, Note_off_c, 0, 70, 63
1, 78669, Note_off_c, 0, 76, 64
1, 78675, Control_c, 0, 64, 91
1, 78690, Control_c, 0, 64, 69
1, 78701, Note_on_c, 0, 79, 91
1, 78705, Control_c, 0, 64, 49
1, 78719, Control_c, 0, 64, 0
1, 78739, Note_off_c, 0, 79, 66
1, 78866, Note_on_c, 0, 76, 88
1, 78901, Note_off_c, 0, 76, 61
1, 79039, Control_c, 0, 64, 59
1, 79054, Control_c, 0, 64, 83
1, 79069, Control_c, 0, 64, 127
1, 79087, Note_on_c, 0, 60, 105
1, 79129, Note_off_c, 0, 60, 64
1, 79225, Note_on_c, 0, 71, 81
1, 79226, Note_on_c, 0, 76, 76
1, 79277, Note_off_c, 0, 71, 62
1, 79306, Control_c, 0, 64, 117
1, 79321, Control_c, 0, 64, 116
1, 79324, Note_on_c, 0, 68, 82
1, 79328, Note_on_c, 0, 71, 57
1, 79355, Note_off_c, 0, 76, 55
1, 79365, Note_off_c, 0, 71, 64
1, 79387, Note_off_c, 0, 68, 61
1, 79395, Control_c, 0, 64, 99
1, 79410, Control_c, 0, 64, 73
1, 79414, Note_on_c, 0, 83, 104
1, 79424, Control_c, 0, 64, 54
1, 79439, Control_c, 0, 64, 0
1, 79446, Note_off_c, 0, 83, 65
1, 79539, Note_on_c, 0, 59, 59
1, 79546, Note_on_c, 0, 63, 59
1, 79580, Note_off_c, 0, 59, 62
1, 79610, Note_off_c, 0, 63, 62
1, 79675, Note_on_c, 0, 61, 57
1, 79692, Note_on_c, 0, 64, 44
1, 79692, Note_on_c, 0, 65, 26
1, 79694, Note_off_c, 0, 61, 61
1, 79718, Note_off_c, 0, 64, 54
1, 79727, Note_off_c, 0, 65, 43
1, 79780, Note_on_c, 0, 63, 58
1, 79782, Note_on_c, 0, 66, 69
1, 79813, Note_off_c, 0, 63, 64
1, 79827, Note_off_c, 0, 66, 57
1, 79882, Note_on_c, 0, 59, 31
1, 79908, Note_on_c, 0, 68, 66
1, 79910, Note_on_c, 0, 64, 59
1, 79917, Note_off_c, 0, 59, 53
1, 79932, Note_off_c, 0, 64, 62
1, 79936, Note_off_c, 0, 68, 66
1, 79992, Note_on_c, 0, 61, 73
1, 80013, Note_on_c, 0, 69, 71
1, 80016, Note_on_c, 0, 66, 71
1, 80047, Note_off_c, 0, 69, 62
1, 80059, Note_off_c, 0, 66, 53
1, 80064, Note_off_c, 0, 61, 57
1, 80114, Note_on_c, 0, 63, 70
1, 80126, Note_on_c, 0, 59, 69
1, 80127, Note_on_c, 0, 68, 70
1, 80128, Note_on_c, 0, 71, 72
1, 80158, Note_off_c, 0, 68, 65
1, 80160, Note_off_c, 0, 71, 65
1, 80185, Note_off_c, 0, 63, 59
1, 80190, Note_off_c, 0, 59, 59
1, 80209, Note_on_c, 0, 64, 76
1, 80242, Note_on_c, 0, 69, 70
1, 80242, Note_off_c, 0, 64, 61
1, 80254, Note_on_c, 0, 73, 74
1, 80271, Note_off_c, 0, 69, 63
1, 80278, Note_off_c, 0, 73, 62
1, 80326, Note_on_c, 0, 66, 75
1, 80346, Note_on_c, 0, 71, 62
1, 80353, Note_on_c, 0, 75, 71
1, 80369, Note_off_c, 0, 71, 62
1, 80391, Note_off_c, 0, 66, 59
1, 80397, Note_off_c, 0, 75, 60
1, 80470, Note_on_c, 0, 64, 72
1, 80474, Note_on_c, 0, 68, 76
1, 80476, Note_on_c, 0, 76, 77
1, 80501, Note_off_c, 0, 64, 65
1, 80510, Note_off_c, 0, 68, 58
1, 80537, Note_off_c, 0, 76, 57
1, 80543, Note_on_c, 0, 80, 74
1, 80615, Note_on_c, 0, 83, 76
1, 80623, Note_off_c, 0, 80, 64
1, 80649, Note_off_c, 0, 83, 60
1, 80684, Note_on_c, 0, 76, 61
1, 80734, Note_off_c, 0, 76, 0
1, 80746, Note_on_c, 0, 76, 54
1, 80789, Note_off_c, 0, 76, 60
1, 80832, Note_on_c, 0, 83, 71
1, 80886, Note_on_c, 0, 80, 75
1, 80892, Note_off_c, 0, 83, 61
1, 80953, Note_off_c, 0, 80, 64
1, 80970, Note_on_c, 0, 76, 62
1, 80987, Note_off_c, 0, 76, 64
1, 81043, Note_on_c, 0, 64, 73
1, 81047, Note_on_c, 0, 76, 80
1, 81068, Note_off_c, 0, 64, 66
1, 81112, Note_on_c, 0, 81, 74
1, 81125, Note_off_c, 0, 76, 56
1, 81193, Note_on_c, 0, 84, 77
1, 81194, Note_off_c, 0, 81, 62
1, 81226, Note_off_c, 0, 84, 56
1, 81268, Note_on_c, 0, 76, 69
1, 81311, Note_off_c, 0, 76, 63
1, 81345, Note_on_c, 0, 76, 61
1, 81387, Note_off_c, 0, 76, 63
1, 81417, Note_on_c, 0, 84, 78
1, 81494, Note_on_c, 0, 81, 72
1, 81514, Note_off_c, 0, 84, 55
1, 81545, Note_off_c, 0, 81, 63
1, 81560, Note_on_c, 0, 76, 66
1, 81587, Note_off_c, 0, 76, 66
1, 81637, Note_on_c, 0, 64, 74
1, 81647, Note_on_c, 0, 76, 73
1, 81664, Note_off_c, 0, 64, 66
1, 81718, Note_on_c, 0, 80, 79
1, 81726, Note_off_c, 0, 76, 60
1, 81807, Note_off_c, 0, 80, 63
1, 81827, Note_on_c, 0, 83, 38
1, 81852, Note_off_c, 0, 83, 49
1, 81856, Note_on_c, 0, 76, 67
1, 81902, Note_off_c, 0, 76, 62
1, 81951, Note_on_c, 0, 76, 56
1, 81978, Note_off_c, 0, 76, 65
1, 82031, Note_on_c, 0, 83, 74
1, 82102, Note_on_c, 0, 80, 72
1, 82124, Note_off_c, 0, 83, 57
1, 82171, Note_off_c, 0, 80, 64
1, 82175, Note_on_c, 0, 76, 69
1, 82245, Note_on_c, 0, 64, 67
1, 82254, Note_on_c, 0, 75, 77
1, 82259, Note_off_c, 0, 76, 58
1, 82275, Note_off_c, 0, 64, 64
1, 82310, Note_on_c, 0, 78, 71
1, 82359, Note_off_c, 0, 75, 60
1, 82391, Note_on_c, 0, 83, 78
1, 82408, Note_off_c, 0, 78, 60
1, 82448, Note_off_c, 0, 83, 62
1, 82453, Note_on_c, 0, 76, 70
1, 82477, Note_off_c, 0, 76, 67
1, 82522, Note_on_c, 0, 76, 75
1, 82560, Note_off_c, 0, 76, 65
1, 82594, Note_on_c, 0, 83, 75
1, 82678, Note_on_c, 0, 78, 71
1, 82688, Note_off_c, 0, 83, 61
1, 82746, Note_on_c, 0, 75, 70
1, 82810, Note_off_c, 0, 78, 48
1, 82814, Note_on_c, 0, 73, 71
1, 82826, Note_on_c, 0, 64, 71
1, 82833, Note_off_c, 0, 75, 61
1, 82852, Note_off_c, 0, 64, 65
1, 82891, Note_off_c, 0, 73, 63
1, 82900, Note_on_c, 0, 76, 70
1, 82968, Note_on_c, 0, 81, 66
1, 82979, Note_off_c, 0, 76, 60
1, 83002, Note_off_c, 0, 81, 58
1, 83036, Note_on_c, 0, 76, 63
1, 83065, Note_off_c, 0, 76, 65
1, 83103, Note_on_c, 0, 76, 59
1, 83146, Note_off_c, 0, 76, 61
1, 83181, Note_on_c, 0, 81, 75
1, 83256, Note_on_c, 0, 76, 69
1, 83280, Note_off_c, 0, 81, 59
1, 83334, Note_on_c, 0, 73, 68
1, 83393, Note_off_c, 0, 73, 62
1, 83395, Note_on_c, 0, 71, 71
1, 83417, Note_on_c, 0, 64, 69
1, 83437, Note_off_c, 0, 76, 29
1, 83445, Note_off_c, 0, 64, 65
1, 83458, Note_off_c, 0, 71, 48
1, 83486, Note_on_c, 0, 75, 70
1, 83548, Note_on_c, 0, 80, 71
1, 83554, Note_off_c, 0, 75, 60
1, 83585, Note_off_c, 0, 80, 59
1, 83620, Note_on_c, 0, 76, 65
1, 83670, Note_off_c, 0, 76, 0
1, 83683, Note_on_c, 0, 76, 52
1, 83726, Note_off_c, 0, 76, 61
1, 83760, Note_on_c, 0, 80, 73
1, 83841, Note_on_c, 0, 75, 68
1, 83848, Note_off_c, 0, 80, 64
1, 83914, Note_on_c, 0, 71, 62
1, 83964, Note_off_c, 0, 75, 59
1, 83982, Note_on_c, 0, 64, 72
1, 83986, Note_off_c, 0, 71, 62
1, 83988, Note_on_c, 0, 69, 72
1, 84010, Note_off_c, 0, 64, 63
1, 84052, Note_off_c, 0, 69, 53
1, 84073, Note_on_c, 0, 73, 65
1, 84137, Note_on_c, 0, 78, 69
1, 84138, Note_off_c, 0, 73, 62
1, 84177, Note_off_c, 0, 78, 62
1, 84208, Note_on_c, 0, 76, 71
1, 84240, Note_off_c, 0, 76, 63
1, 84275, Note_on_c, 0, 76, 66
1, 84316, Note_off_c, 0, 76, 64
1, 84342, Note_on_c, 0, 78, 70
1, 84421, Note_on_c, 0, 73, 73
1, 84428, Note_off_c, 0, 78, 62
1, 84490, Note_on_c, 0, 69, 65
1, 84502, Note_off_c, 0, 73, 62
1, 84571, Note_off_c, 0, 69, 61
1, 84571, Note_on_c, 0, 66, 69
1, 84641, Note_on_c, 0, 69, 56
1, 84667, Note_off_c, 0, 66, 56
1, 84720, Note_off_c, 0, 69, 61
1, 84727, Note_on_c, 0, 75, 65
1, 84758, Note_on_c, 0, 76, 68
1, 84775, Note_off_c, 0, 75, 52
1, 84800, Note_off_c, 0, 76, 61
1, 84832, Note_on_c, 0, 76, 58
1, 84872, Note_off_c, 0, 76, 62
1, 84928, Note_on_c, 0, 75, 69
1, 85000, Note_on_c, 0, 69, 64
1, 85002, Note_off_c, 0, 75, 62
1, 85086, Note_on_c, 0, 66, 67
1, 85117, Note_off_c, 0, 69, 55
1, 85119, Note_off_c, 0, 66, 63
1, 85152, Note_on_c, 0, 64, 74
1, 85180, Note_off_c, 0, 64, 67
1, 85242, Note_on_c, 0, 68, 29
1, 85243, Note_off_c, 0, 68, 127
1, 85292, Note_on_c, 0, 77, 67
1, 85316, Note_off_c, 0, 77, 62
1, 85383, Note_on_c, 0, 76, 71
1, 85405, Note_off_c, 0, 76, 66
1, 85451, Note_on_c, 0, 76, 82
1, 85456, Note_on_c, 0, 74, 58
1, 85485, Note_off_c, 0, 74, 64
1, 85486, Note_off_c, 0, 76, 61
1, 85532, Note_on_c, 0, 76, 69
1, 85609, Note_on_c, 0, 68, 74
1, 85624, Note_off_c, 0, 76, 57
1, 85683, Note_off_c, 0, 68, 60
1, 85699, Note_on_c, 0, 64, 80
1, 85746, Note_off_c, 0, 64, 65
1, 85778, Note_on_c, 0, 67, 74
1, 85779, Note_on_c, 0, 65, 74
1, 85807, Note_off_c, 0, 65, 67
1, 85816, Note_off_c, 0, 67, 66
1, 85839, Note_on_c, 0, 69, 68
1, 85915, Note_on_c, 0, 75, 75
1, 85921, Note_off_c, 0, 69, 59
1, 85998, Note_off_c, 0, 75, 59
1, 86001, Note_on_c, 0, 76, 73
1, 86064, Note_off_c, 0, 76, 0
1, 86073, Note_on_c, 0, 76, 50
1, 86106, Note_off_c, 0, 76, 64
1, 86133, Note_on_c, 0, 75, 74
1, 86210, Note_on_c, 0, 69, 67
1, 86229, Note_off_c, 0, 75, 60
1, 86280, Note_off_c, 0, 69, 57
1, 86289, Note_on_c, 0, 65, 62
1, 86371, Note_on_c, 0, 64, 69
1, 86371, Note_off_c, 0, 65, 58
1, 86394, Note_off_c, 0, 64, 66
1, 86445, Note_on_c, 0, 68, 60
1, 86514, Note_off_c, 0, 68, 56
1, 86526, Note_on_c, 0, 76, 71
1, 86551, Note_off_c, 0, 76, 65
1, 86621, Note_on_c, 0, 76, 55
1, 86623, Note_on_c, 0, 74, 50
1, 86641, Note_off_c, 0, 76, 39
1, 86646, Note_off_c, 0, 74, 51
1, 86687, Note_on_c, 0, 76, 68
1, 86820, Note_off_c, 0, 76, 56
1, 86821, Note_on_c, 0, 68, 74
1, 86884, Note_off_c, 0, 68, 60
1, 86899, Note_on_c, 0, 64, 66
1, 86932, Note_off_c, 0, 64, 66
1, 86959, Note_on_c, 0, 65, 81
1, 86998, Note_off_c, 0, 65, 64
1, 87047, Note_on_c, 0, 69, 65
1, 87119, Note_on_c, 0, 75, 73
1, 87122, Note_off_c, 0, 69, 61
1, 87191, Note_on_c, 0, 76, 69
1, 87200, Note_off_c, 0, 75, 59
1, 87243, Note_off_c, 0, 76, 0
1, 87280, Poly_aftertouch_c, 0, 76, 127
1, 87299, Poly_aftertouch_c, 0, 76, 0
1, 87335, Note_on_c, 0, 75, 77
1, 87414, Note_on_c, 0, 69, 66
1, 87426, Note_off_c, 0, 75, 60
1, 87456, Note_off_c, 0, 69, 59
1, 87484, Note_on_c, 0, 65, 61
1, 87559, Note_off_c, 0, 65, 59
1, 87564, Note_on_c, 0, 64, 66
1, 87595, Note_off_c, 0, 64, 65
1, 87727, Note_on_c, 0, 76, 73
1, 87732, Note_on_c, 0, 68, 72
1, 87753, Note_off_c, 0, 76, 64
1, 87757, Note_off_c, 0, 68, 68
1, 88241, Note_on_c, 0, 64, 64
1, 88269, Note_off_c, 0, 64, 65
1, 88432, Note_on_c, 0, 68, 74
1, 88432, Note_on_c, 0, 80, 73
1, 88442, Note_on_c, 0, 76, 64
1, 88461, Note_off_c, 0, 68, 63
1, 88461, Note_off_c, 0, 80, 65
1, 88471, Note_off_c, 0, 76, 64
1, 88900, Note_on_c, 0, 64, 60
1, 88932, Note_off_c, 0, 64, 63
1, 88980, Note_on_c, 0, 68, 60
1, 89031, Note_off_c, 0, 68, 59
1, 89045, Note_on_c, 0, 76, 55
1, 89065, Note_off_c, 0, 76, 58
1, 89131, Note_on_c, 0, 76, 76
1, 89151, Note_off_c, 0, 76, 68
1, 89210, Note_on_c, 0, 76, 74
1, 89234, Note_off_c, 0, 76, 66
1, 89274, Note_on_c, 0, 80, 60
1, 89349, Note_off_c, 0, 80, 61
1, 89363, Note_on_c, 0, 71, 70
1, 89407, Note_off_c, 0, 71, 61
1, 89446, Note_on_c, 0, 68, 57
1, 89484, Note_off_c, 0, 68, 62
1, 89534, Note_on_c, 0, 64, 60
1, 89566, Note_off_c, 0, 64, 64
1, 89609, Note_on_c, 0, 68, 65
1, 89674, Note_off_c, 0, 68, 61
1, 89716, Note_on_c, 0, 76, 55
1, 89735, Note_off_c, 0, 76, 59
1, 89813, Note_on_c, 0, 76, 56
1, 89833, Note_off_c, 0, 76, 63
1, 89910, Note_on_c, 0, 76, 73
1, 89946, Note_off_c, 0, 76, 58
1, 90040, Note_on_c, 0, 80, 72
1, 90072, Note_off_c, 0, 80, 63
1, 90195, Note_on_c, 0, 71, 67
1, 90224, Note_off_c, 0, 71, 67
1, 90363, Note_on_c, 0, 68, 75
1, 90388, Note_off_c, 0, 68, 68
1, 90717, Note_on_c, 0, 68, 54
1, 90719, Note_on_c, 0, 76, 60
1, 90720, Note_on_c, 0, 64, 52
1, 92182, Note_off_c, 0, 76, 50
1, 92222, Note_off_c, 0, 64, 34
1, 92254, Note_off_c, 0, 68, 54
1, 92547, Control_c, 0, 64, 16
1, 92562, Control_c, 0, 64, 18
1, 92577, Control_c, 0, 64, 20
1, 92592, Control_c, 0, 64, 21
1, 92799, Control_c, 0, 64, 20
1, 92814, Control_c, 0, 64, 19
1, 92828, Control_c, 0, 64, 18
1, 93110, Control_c, 0, 64, 17
1, 93281, Control_c, 0, 64, 0
1, 93281, End_track
0, 0, End_of_file
