0, 0, Header, 0, 1, 384
1, 0, Start_track
1, 0, Title_t, "Ricordanza--Henry Wong Doe      "
1, 0, Text_t, "2009 Piano-e-Competition audition round"
1, 0, Text_t, "captured January 2009"
1, 0, Text_t, "http://www.piano-e-competition.com/"
1, 0, Text_t, "File processed for distribution by software from Zenph Studios, Inc., http://www.zenph.com"
1, 0, Instrument_name_t, "Yamaha Disklavier Pro Mark IV concert grand piano, model DCFIIISM4PRO"
1, 0, Sequencer_specific, 39, 67, 113, 0, 1, 0, 1, 0, 82, 105, 99, 111, 114, 100, 97, 110, 122, 97, 32, 32, 32, 32, 32, 32, 72, 101, 110, 114, 121, 32, 87, 111, 110, 103, 32, 68, 111, 101, 32, 32
1, 0, Sequencer_specific, 6, 67, 113, 0, 0, 0, 69
1, 0, System_exclusive, 21, 67, 113, 126, 21, 0, 2, 2, 0, 3, 14, 1, 4, 1, 13, 13, 10, 11, 9, 2, 7, 247
1, 0, Sequencer_specific, 5, 67, 123, 12, 2, 1
1, 0, Tempo, 512820
1, 0, Time_signature, 4, 2, 24, 8
1, 0, System_exclusive, 5, 126, 127, 9, 1, 247
1, 1, System_exclusive, 8, 67, 16, 76, 0, 0, 126, 0, 247
1, 2, System_exclusive, 8, 67, 16, 76, 8, 9, 7, 1, 247
1, 3, Control_c, 0, 0, 0
1, 3, Control_c, 1, 0, 0
1, 3, Control_c, 2, 0, 0
1, 3, Control_c, 3, 0, 0
1, 3, Control_c, 4, 0, 0
1, 3, Control_c, 5, 0, 0
1, 3, Control_c, 6, 0, 0
1, 3, Control_c, 7, 0, 0
1, 3, Control_c, 8, 0, 0
1, 3, Control_c, 9, 0, 127
1, 3, Control_c, 10, 0, 0
1, 3, Control_c, 11, 0, 0
1, 3, Control_c, 12, 0, 0
1, 3, Control_c, 13, 0, 0
1, 3, Control_c, 14, 0, 0
1, 3, Control_c, 15, 0, 0
1, 4, Control_c, 0, 32, 0
1, 4, Control_c, 1, 32, 0
1, 4, Control_c, 2, 32, 0
1, 4, Control_c, 3, 32, 0
1, 4, Control_c, 4, 32, 0
1, 4, Control_c, 5, 32, 0
1, 4, Control_c, 6, 32, 0
1, 4, Control_c, 7, 32, 0
1, 4, Control_c, 8, 32, 0
1, 4, Control_c, 9, 32, 0
1, 4, Control_c, 10, 32, 0
1, 4, Control_c, 11, 32, 0
1, 4, Control_c, 12, 32, 0
1, 4, Control_c, 13, 32, 0
1, 4, Control_c, 14, 32, 0
1, 4, Control_c, 15, 32, 0
1, 5, Program_c, 0, 0
1, 5, Program_c, 1, 0
1, 5, Program_c, 2, 0
1, 5, Program_c, 3, 0
1, 5, Program_c, 4, 0
1, 5, Program_c, 5, 0
1, 5, Program_c, 6, 0
1, 5, Program_c, 7, 0
1, 5, Program_c, 8, 0
1, 5, Program_c, 9, 0
1, 5, Program_c, 10, 0
1, 5, Program_c, 11, 0
1, 5, Program_c, 12, 0
1, 5, Program_c, 13, 0
1, 5, Program_c, 14, 0
1, 5, Program_c, 15, 0
1, 6, Control_c, 0, 7, 100
1, 6, Control_c, 1, 7, 100
1, 6, Control_c, 2, 7, 100
1, 6, Control_c, 3, 7, 100
1, 6, Control_c, 4, 7, 100
1, 6, Control_c, 5, 7, 100
1, 6, Control_c, 6, 7, 100
1, 6, Control_c, 7, 7, 100
1, 6, Control_c, 8, 7, 100
1, 6, Control_c, 9, 7, 100
1, 6, Control_c, 10, 7, 100
1, 6, Control_c, 11, 7, 100
1, 6, Control_c, 12, 7, 100
1, 6, Control_c, 13, 7, 100
1, 6, Control_c, 14, 7, 100
1, 6, Control_c, 15, 7, 100
1, 117, Control_c, 0, 64, 3
1, 229, Control_c, 0, 64, 6
1, 341, Control_c, 0, 64, 9
1, 452, Control_c, 0, 64, 13
1, 564, Control_c, 0, 64, 15
1, 676, Control_c, 0, 64, 19
1, 787, Control_c, 0, 64, 21
1, 899, Control_c, 0, 64, 26
1, 1132, Note_on_c, 0, 51, 50
1, 1133, Control_c, 0, 64, 30
1, 1147, Control_c, 0, 64, 34
1, 1162, Control_c, 0, 64, 38
1, 1177, Control_c, 0, 64, 44
1, 1192, Control_c, 0, 64, 49
1, 1207, Control_c, 0, 64, 54
1, 1209, Note_off_c, 0, 51, 54
1, 1221, Control_c, 0, 64, 57
1, 1236, Control_c, 0, 64, 59
1, 1251, Control_c, 0, 64, 60
1, 1310, Control_c, 0, 64, 59
1, 1341, Control_c, 0, 64, 59
1, 1370, Control_c, 0, 64, 58
1, 1385, Control_c, 0, 64, 58
1, 1400, Control_c, 0, 64, 57
1, 1403, Note_on_c, 0, 51, 51
1, 1415, Control_c, 0, 64, 56
1, 1430, Control_c, 0, 64, 55
1, 1445, Control_c, 0, 64, 53
1, 1459, Control_c, 0, 64, 47
1, 1474, Control_c, 0, 64, 36
1, 1489, Control_c, 0, 64, 18
1, 1504, Control_c, 0, 64, 0
1, 1635, Note_on_c, 0, 53, 66
1, 1659, Note_off_c, 0, 51, 59
1, 1791, Note_on_c, 0, 51, 68
1, 1825, Note_off_c, 0, 53, 63
1, 1952, Note_on_c, 0, 50, 75
1, 1985, Note_off_c, 0, 51, 62
1, 2172, Note_on_c, 0, 51, 75
1, 2180, Note_off_c, 0, 50, 61
1, 2419, Note_on_c, 0, 55, 76
1, 2421, Note_off_c, 0, 51, 63
1, 2604, Note_on_c, 0, 58, 72
1, 2606, Note_off_c, 0, 55, 64
1, 2762, Note_off_c, 0, 58, 64
1, 2765, Note_on_c, 0, 61, 73
1, 3088, Note_on_c, 0, 65, 69
1, 3126, Note_off_c, 0, 61, 63
1, 3261, Control_c, 0, 64, 12
1, 3275, Control_c, 0, 64, 25
1, 3290, Control_c, 0, 64, 33
1, 3305, Control_c, 0, 64, 42
1, 3320, Control_c, 0, 64, 51
1, 3335, Control_c, 0, 64, 58
1, 3349, Control_c, 0, 64, 63
1, 3364, Control_c, 0, 64, 65
1, 3379, Control_c, 0, 64, 65
1, 3424, Control_c, 0, 64, 66
1, 3439, Control_c, 0, 64, 66
1, 3454, Control_c, 0, 64, 67
1, 3468, Control_c, 0, 64, 69
1, 3483, Control_c, 0, 64, 70
1, 3498, Control_c, 0, 64, 72
1, 3513, Control_c, 0, 64, 75
1, 3528, Control_c, 0, 64, 80
1, 3542, Control_c, 0, 64, 86
1, 3557, Control_c, 0, 64, 94
1, 3572, Control_c, 0, 64, 103
1, 3586, Control_c, 0, 64, 119
1, 3601, Control_c, 0, 64, 127
1, 3631, Control_c, 0, 67, 10
1, 3646, Control_c, 0, 67, 15
1, 3660, Control_c, 0, 67, 23
1, 3675, Control_c, 0, 67, 29
1, 3690, Control_c, 0, 67, 38
1, 3705, Control_c, 0, 67, 47
1, 3721, Control_c, 0, 67, 58
1, 3736, Control_c, 0, 67, 70
1, 3751, Control_c, 0, 67, 85
1, 3765, Control_c, 0, 67, 105
1, 3780, Control_c, 0, 67, 122
1, 3802, Control_c, 0, 67, 127
1, 3892, Control_c, 0, 64, 117
1, 3906, Control_c, 0, 64, 106
1, 3921, Control_c, 0, 64, 101
1, 3922, Note_on_c, 0, 51, 44
1, 3936, Control_c, 0, 64, 98
1, 3951, Control_c, 0, 64, 95
1, 3965, Control_c, 0, 64, 93
1, 3980, Control_c, 0, 64, 91
1, 3995, Control_c, 0, 64, 86
1, 3996, Note_on_c, 0, 55, 50
1, 4010, Control_c, 0, 64, 76
1, 4025, Control_c, 0, 64, 66
1, 4039, Control_c, 0, 64, 57
1, 4054, Control_c, 0, 64, 42
1, 4069, Control_c, 0, 64, 0
1, 4076, Note_on_c, 0, 61, 51
1, 4094, Note_off_c, 0, 55, 60
1, 4115, Note_off_c, 0, 51, 36
1, 4121, Note_off_c, 0, 61, 60
1, 4483, Control_c, 0, 67, 125
1, 4498, Control_c, 0, 67, 121
1, 4514, Control_c, 0, 67, 115
1, 4529, Control_c, 0, 67, 107
1, 4551, Control_c, 0, 67, 97
1, 4559, Note_on_c, 0, 63, 60
1, 4566, Control_c, 0, 67, 85
1, 4580, Note_off_c, 0, 65, 58
1, 4581, Control_c, 0, 67, 75
1, 4595, Control_c, 0, 67, 66
1, 4610, Control_c, 0, 67, 57
1, 4625, Control_c, 0, 67, 49
1, 4640, Control_c, 0, 67, 41
1, 4655, Control_c, 0, 67, 34
1, 4670, Control_c, 0, 67, 25
1, 4685, Control_c, 0, 67, 15
1, 4700, Control_c, 0, 67, 0
1, 4828, Note_on_c, 0, 57, 66
1, 4844, Note_off_c, 0, 63, 62
1, 5061, Note_on_c, 0, 58, 78
1, 5087, Note_off_c, 0, 57, 63
1, 5376, Note_on_c, 0, 61, 65
1, 5394, Note_off_c, 0, 58, 64
1, 5656, Control_c, 0, 67, 10
1, 5670, Control_c, 0, 67, 15
1, 5685, Control_c, 0, 67, 21
1, 5700, Control_c, 0, 67, 28
1, 5715, Control_c, 0, 67, 36
1, 5730, Control_c, 0, 67, 45
1, 5744, Control_c, 0, 67, 54
1, 5759, Control_c, 0, 67, 64
1, 5760, Note_on_c, 0, 51, 55
1, 5774, Control_c, 0, 67, 75
1, 5789, Control_c, 0, 67, 82
1, 5804, Control_c, 0, 67, 89
1, 5818, Control_c, 0, 67, 94
1, 5833, Control_c, 0, 67, 99
1, 5844, Note_on_c, 0, 57, 50
1, 5848, Control_c, 0, 67, 104
1, 5862, Control_c, 0, 67, 109
1, 5877, Control_c, 0, 67, 114
1, 5886, Note_off_c, 0, 51, 37
1, 5892, Control_c, 0, 67, 119
1, 5907, Control_c, 0, 67, 121
1, 5912, Note_off_c, 0, 57, 58
1, 5922, Control_c, 0, 67, 122
1, 6003, Note_off_c, 0, 61, 65
1, 6011, Control_c, 0, 67, 121
1, 6026, Control_c, 0, 67, 121
1, 6029, Note_on_c, 0, 60, 58
1, 6048, Control_c, 0, 67, 120
1, 6062, Control_c, 0, 67, 119
1, 6077, Control_c, 0, 67, 118
1, 6092, Control_c, 0, 67, 117
1, 6107, Control_c, 0, 67, 116
1, 6123, Control_c, 0, 67, 112
1, 6138, Control_c, 0, 67, 106
1, 6153, Control_c, 0, 67, 95
1, 6167, Control_c, 0, 67, 79
1, 6182, Control_c, 0, 67, 47
1, 6197, Control_c, 0, 67, 12
1, 6212, Control_c, 0, 67, 0
1, 6301, Note_off_c, 0, 60, 59
1, 6303, Note_on_c, 0, 52, 65
1, 6609, Note_on_c, 0, 53, 61
1, 6623, Note_off_c, 0, 52, 63
1, 7017, Note_on_c, 0, 56, 55
1, 7037, Note_off_c, 0, 53, 62
1, 7270, Control_c, 0, 64, 11
1, 7285, Control_c, 0, 64, 18
1, 7300, Control_c, 0, 64, 22
1, 7314, Control_c, 0, 64, 25
1, 7329, Control_c, 0, 64, 28
1, 7344, Control_c, 0, 64, 30
1, 7359, Control_c, 0, 64, 30
1, 7388, Control_c, 0, 64, 31
1, 7403, Control_c, 0, 64, 31
1, 7418, Control_c, 0, 64, 32
1, 7418, Control_c, 0, 67, 8
1, 7433, Control_c, 0, 64, 33
1, 7433, Control_c, 0, 67, 11
1, 7448, Control_c, 0, 64, 34
1, 7448, Control_c, 0, 67, 15
1, 7463, Control_c, 0, 64, 35
1, 7463, Control_c, 0, 67, 19
1, 7478, Control_c, 0, 64, 37
1, 7478, Control_c, 0, 67, 25
1, 7493, Control_c, 0, 64, 39
1, 7493, Control_c, 0, 67, 29
1, 7507, Control_c, 0, 64, 41
1, 7507, Control_c, 0, 67, 33
1, 7522, Control_c, 0, 64, 43
1, 7522, Control_c, 0, 67, 37
1, 7544, Control_c, 0, 64, 45
1, 7544, Control_c, 0, 67, 42
1, 7559, Control_c, 0, 64, 47
1, 7559, Control_c, 0, 67, 46
1, 7570, Note_on_c, 0, 47, 43
1, 7574, Control_c, 0, 64, 46
1, 7574, Control_c, 0, 67, 49
1, 7588, Control_c, 0, 64, 43
1, 7588, Control_c, 0, 67, 52
1, 7603, Control_c, 0, 64, 38
1, 7603, Control_c, 0, 67, 53
1, 7616, Note_on_c, 0, 50, 42
1, 7618, Control_c, 0, 64, 28
1, 7633, Control_c, 0, 64, 0
1, 7659, Note_off_c, 0, 47, 62
1, 7663, Note_on_c, 0, 53, 51
1, 7663, Control_c, 0, 67, 51
1, 7678, Control_c, 0, 67, 51
1, 7679, Note_off_c, 0, 50, 60
1, 7709, Control_c, 0, 67, 50
1, 7712, Note_off_c, 0, 53, 65
1, 7753, Control_c, 0, 67, 51
1, 7768, Control_c, 0, 67, 52
1, 7783, Control_c, 0, 67, 53
1, 7798, Control_c, 0, 67, 54
1, 7842, Control_c, 0, 67, 53
1, 7856, Control_c, 0, 67, 52
1, 7871, Control_c, 0, 67, 51
1, 7886, Control_c, 0, 67, 50
1, 7916, Control_c, 0, 67, 49
1, 7961, Control_c, 0, 67, 49
1, 8035, Control_c, 0, 67, 49
1, 8050, Control_c, 0, 67, 50
1, 8064, Control_c, 0, 67, 50
1, 8079, Control_c, 0, 67, 51
1, 8094, Control_c, 0, 67, 51
1, 8124, Control_c, 0, 67, 52
1, 8183, Note_on_c, 0, 46, 36
1, 8183, Control_c, 0, 67, 52
1, 8211, Note_on_c, 0, 49, 43
1, 8212, Control_c, 0, 67, 53
1, 8256, Control_c, 0, 67, 53
1, 8257, Note_on_c, 0, 52, 45
1, 8268, Note_off_c, 0, 49, 58
1, 8271, Note_off_c, 0, 46, 55
1, 8320, Note_off_c, 0, 52, 64
1, 8353, Control_c, 0, 67, 53
1, 8471, Control_c, 0, 64, 15
1, 8486, Control_c, 0, 64, 21
1, 8501, Control_c, 0, 64, 26
1, 8517, Control_c, 0, 64, 30
1, 8532, Control_c, 0, 64, 34
1, 8547, Control_c, 0, 64, 38
1, 8547, Control_c, 0, 67, 53
1, 8561, Control_c, 0, 64, 44
1, 8561, Control_c, 0, 67, 54
1, 8576, Control_c, 0, 64, 50
1, 8591, Control_c, 0, 64, 56
1, 8591, Control_c, 0, 67, 54
1, 8605, Control_c, 0, 64, 61
1, 8620, Control_c, 0, 64, 64
1, 8635, Control_c, 0, 64, 65
1, 8665, Control_c, 0, 64, 65
1, 8694, Control_c, 0, 64, 66
1, 8724, Control_c, 0, 64, 66
1, 8754, Control_c, 0, 64, 67
1, 8769, Control_c, 0, 64, 68
1, 8784, Control_c, 0, 64, 69
1, 8798, Control_c, 0, 64, 71
1, 8813, Control_c, 0, 64, 73
1, 8828, Control_c, 0, 64, 75
1, 8843, Control_c, 0, 64, 77
1, 8858, Control_c, 0, 64, 78
1, 8873, Control_c, 0, 64, 79
1, 8887, Control_c, 0, 64, 81
1, 8902, Control_c, 0, 64, 81
1, 8902, Control_c, 0, 67, 54
1, 8932, Control_c, 0, 64, 82
1, 8991, Note_off_c, 0, 56, 29
1, 9102, Control_c, 0, 64, 81
1, 9161, Control_c, 0, 64, 81
1, 9176, Control_c, 0, 64, 80
1, 9191, Control_c, 0, 64, 80
1, 9205, Control_c, 0, 64, 78
1, 9220, Control_c, 0, 64, 74
1, 9235, Control_c, 0, 64, 68
1, 9249, Note_on_c, 0, 55, 44
1, 9250, Control_c, 0, 64, 63
1, 9265, Control_c, 0, 64, 58
1, 9279, Control_c, 0, 64, 49
1, 9294, Control_c, 0, 64, 35
1, 9310, Control_c, 0, 64, 23
1, 9325, Control_c, 0, 64, 19
1, 9370, Control_c, 0, 64, 20
1, 9384, Control_c, 0, 64, 22
1, 9399, Control_c, 0, 64, 27
1, 9414, Control_c, 0, 64, 31
1, 9429, Control_c, 0, 64, 35
1, 9443, Control_c, 0, 64, 40
1, 9458, Control_c, 0, 64, 46
1, 9458, Control_c, 0, 67, 53
1, 9473, Control_c, 0, 64, 54
1, 9488, Control_c, 0, 64, 61
1, 9502, Control_c, 0, 64, 65
1, 9517, Control_c, 0, 64, 66
1, 9697, Note_off_c, 0, 55, 45
1, 9725, Control_c, 0, 67, 53
1, 9851, Control_c, 0, 67, 52
1, 9880, Control_c, 0, 67, 52
1, 9954, Control_c, 0, 64, 65
1, 9969, Control_c, 0, 67, 51
1, 9985, Note_on_c, 0, 43, 34
1, 9999, Control_c, 0, 67, 51
1, 10014, Control_c, 0, 67, 50
1, 10028, Control_c, 0, 67, 49
1, 10043, Control_c, 0, 67, 48
1, 10058, Control_c, 0, 67, 47
1, 10073, Control_c, 0, 67, 45
1, 10088, Control_c, 0, 67, 44
1, 10104, Control_c, 0, 67, 42
1, 10119, Control_c, 0, 67, 40
1, 10133, Control_c, 0, 67, 37
1, 10148, Control_c, 0, 67, 30
1, 10161, Note_on_c, 0, 49, 48
1, 10163, Control_c, 0, 67, 20
1, 10178, Control_c, 0, 67, 0
1, 10217, Note_off_c, 0, 43, 37
1, 10322, Note_on_c, 0, 52, 53
1, 10328, Note_off_c, 0, 49, 35
1, 10540, Control_c, 0, 64, 65
1, 10555, Control_c, 0, 64, 64
1, 10570, Control_c, 0, 64, 64
1, 10584, Control_c, 0, 64, 62
1, 10599, Control_c, 0, 64, 60
1, 10614, Control_c, 0, 64, 57
1, 10629, Control_c, 0, 64, 50
1, 10644, Control_c, 0, 64, 41
1, 10659, Control_c, 0, 64, 28
1, 10673, Control_c, 0, 64, 12
1, 10685, Note_on_c, 0, 58, 56
1, 10688, Control_c, 0, 64, 0
1, 10723, Note_off_c, 0, 52, 39
1, 10881, Control_c, 0, 64, 16
1, 10896, Control_c, 0, 64, 23
1, 10912, Control_c, 0, 64, 28
1, 10927, Control_c, 0, 64, 35
1, 10942, Control_c, 0, 64, 41
1, 10956, Control_c, 0, 64, 49
1, 10971, Control_c, 0, 64, 56
1, 10986, Control_c, 0, 64, 62
1, 11000, Control_c, 0, 64, 64
1, 11015, Control_c, 0, 64, 65
1, 11030, Control_c, 0, 64, 66
1, 11045, Control_c, 0, 64, 66
1, 11060, Control_c, 0, 64, 67
1, 11074, Control_c, 0, 64, 70
1, 11089, Control_c, 0, 64, 74
1, 11104, Control_c, 0, 64, 84
1, 11119, Control_c, 0, 64, 98
1, 11125, Note_off_c, 0, 58, 40
1, 11134, Control_c, 0, 64, 127
1, 13083, Control_c, 0, 64, 117
1, 13098, Control_c, 0, 64, 90
1, 13113, Control_c, 0, 64, 78
1, 13127, Control_c, 0, 64, 68
1, 13142, Control_c, 0, 64, 60
1, 13157, Control_c, 0, 64, 49
1, 13159, Note_on_c, 0, 58, 73
1, 13172, Control_c, 0, 64, 30
1, 13186, Control_c, 0, 64, 0
1, 13276, Control_c, 0, 64, 11
1, 13291, Control_c, 0, 64, 23
1, 13306, Control_c, 0, 64, 34
1, 13321, Control_c, 0, 64, 44
1, 13336, Control_c, 0, 64, 54
1, 13350, Control_c, 0, 64, 64
1, 13365, Note_off_c, 0, 58, 59
1, 13365, Control_c, 0, 64, 75
1, 13380, Control_c, 0, 64, 87
1, 13395, Control_c, 0, 64, 98
1, 13410, Control_c, 0, 64, 127
1, 13565, Control_c, 0, 67, 11
1, 13580, Control_c, 0, 67, 18
1, 13595, Control_c, 0, 67, 30
1, 13610, Control_c, 0, 67, 46
1, 13625, Control_c, 0, 67, 65
1, 13639, Control_c, 0, 67, 86
1, 13654, Control_c, 0, 67, 103
1, 13669, Control_c, 0, 67, 117
1, 13684, Control_c, 0, 67, 127
1, 13917, Note_on_c, 0, 42, 44
1, 13977, Note_on_c, 0, 49, 49
1, 13982, Note_off_c, 0, 42, 52
1, 14057, Note_off_c, 0, 49, 55
1, 14069, Note_on_c, 0, 52, 47
1, 14096, Note_off_c, 0, 52, 60
1, 14461, Note_on_c, 0, 42, 48
1, 14548, Note_off_c, 0, 42, 57
1, 14569, Note_on_c, 0, 49, 48
1, 14623, Note_off_c, 0, 49, 58
1, 14675, Note_on_c, 0, 52, 43
1, 14748, Note_off_c, 0, 52, 56
1, 14893, Control_c, 0, 67, 123
1, 14908, Control_c, 0, 67, 117
1, 14922, Control_c, 0, 67, 109
1, 14937, Control_c, 0, 67, 100
1, 14952, Control_c, 0, 67, 85
1, 14967, Control_c, 0, 67, 71
1, 14981, Control_c, 0, 67, 58
1, 14996, Control_c, 0, 67, 45
1, 15011, Control_c, 0, 67, 35
1, 15034, Control_c, 0, 67, 26
1, 15049, Control_c, 0, 67, 17
1, 15063, Control_c, 0, 67, 10
1, 15078, Control_c, 0, 67, 0
1, 15369, Note_on_c, 0, 58, 65
1, 15463, Note_off_c, 0, 58, 57
1, 15587, Note_on_c, 0, 58, 67
1, 15730, Note_on_c, 0, 59, 66
1, 15734, Note_off_c, 0, 58, 61
1, 15848, Note_off_c, 0, 59, 62
1, 15853, Note_on_c, 0, 58, 77
1, 15950, Note_off_c, 0, 58, 63
1, 15950, Note_on_c, 0, 57, 74
1, 15975, Control_c, 0, 64, 122
1, 15990, Control_c, 0, 64, 114
1, 16004, Control_c, 0, 64, 108
1, 16019, Control_c, 0, 64, 102
1, 16034, Control_c, 0, 64, 96
1, 16039, Note_on_c, 0, 58, 83
1, 16042, Note_off_c, 0, 57, 63
1, 16049, Control_c, 0, 64, 92
1, 16064, Control_c, 0, 64, 89
1, 16078, Control_c, 0, 64, 87
1, 16093, Note_off_c, 0, 58, 60
1, 16093, Control_c, 0, 64, 85
1, 16108, Control_c, 0, 64, 84
1, 16138, Control_c, 0, 64, 84
1, 16212, Control_c, 0, 64, 83
1, 16227, Control_c, 0, 64, 77
1, 16242, Control_c, 0, 64, 65
1, 16247, Note_on_c, 0, 68, 85
1, 16257, Control_c, 0, 64, 52
1, 16271, Control_c, 0, 64, 0
1, 16272, Note_on_c, 0, 52, 62
1, 16283, Note_on_c, 0, 42, 45
1, 16284, Note_on_c, 0, 46, 48
1, 16389, Control_c, 0, 64, 8
1, 16390, Note_off_c, 0, 42, 60
1, 16397, Note_off_c, 0, 52, 61
1, 16404, Control_c, 0, 64, 25
1, 16415, Note_off_c, 0, 46, 58
1, 16419, Control_c, 0, 64, 37
1, 16434, Control_c, 0, 64, 49
1, 16449, Control_c, 0, 64, 60
1, 16463, Control_c, 0, 64, 70
1, 16478, Control_c, 0, 64, 76
1, 16494, Control_c, 0, 64, 77
1, 16509, Control_c, 0, 64, 78
1, 16531, Control_c, 0, 64, 80
1, 16546, Control_c, 0, 64, 84
1, 16561, Control_c, 0, 64, 90
1, 16576, Control_c, 0, 64, 95
1, 16587, Note_off_c, 0, 68, 38
1, 16591, Control_c, 0, 64, 98
1, 16605, Control_c, 0, 64, 98
1, 16728, Note_on_c, 0, 52, 39
1, 16737, Note_on_c, 0, 42, 30
1, 16742, Note_on_c, 0, 46, 37
1, 16776, Note_off_c, 0, 52, 59
1, 16793, Note_off_c, 0, 42, 44
1, 16821, Note_off_c, 0, 46, 59
1, 17100, Note_on_c, 0, 66, 76
1, 17139, Control_c, 0, 64, 97
1, 17153, Control_c, 0, 64, 95
1, 17168, Control_c, 0, 64, 95
1, 17172, Note_off_c, 0, 66, 61
1, 17183, Control_c, 0, 64, 94
1, 17242, Control_c, 0, 64, 93
1, 17257, Control_c, 0, 64, 82
1, 17279, Control_c, 0, 64, 67
1, 17280, Note_on_c, 0, 66, 82
1, 17295, Control_c, 0, 64, 55
1, 17310, Control_c, 0, 64, 26
1, 17324, Control_c, 0, 64, 0
1, 17428, Control_c, 0, 67, 11
1, 17443, Control_c, 0, 64, 17
1, 17443, Control_c, 0, 67, 16
1, 17458, Control_c, 0, 64, 26
1, 17458, Control_c, 0, 67, 21
1, 17473, Control_c, 0, 64, 34
1, 17473, Control_c, 0, 67, 26
1, 17488, Control_c, 0, 64, 41
1, 17488, Control_c, 0, 67, 30
1, 17503, Control_c, 0, 64, 51
1, 17503, Control_c, 0, 67, 34
1, 17517, Control_c, 0, 64, 60
1, 17517, Control_c, 0, 67, 38
1, 17532, Control_c, 0, 64, 65
1, 17532, Control_c, 0, 67, 41
1, 17547, Control_c, 0, 64, 66
1, 17547, Control_c, 0, 67, 44
1, 17562, Control_c, 0, 67, 47
1, 17576, Control_c, 0, 67, 50
1, 17591, Control_c, 0, 67, 53
1, 17606, Control_c, 0, 64, 67
1, 17606, Control_c, 0, 67, 56
1, 17621, Control_c, 0, 64, 68
1, 17621, Control_c, 0, 67, 59
1, 17636, Control_c, 0, 64, 68
1, 17636, Control_c, 0, 67, 62
1, 17650, Control_c, 0, 64, 69
1, 17650, Control_c, 0, 67, 65
1, 17665, Control_c, 0, 64, 70
1, 17665, Control_c, 0, 67, 67
1, 17680, Control_c, 0, 64, 70
1, 17680, Control_c, 0, 67, 69
1, 17695, Control_c, 0, 64, 71
1, 17695, Control_c, 0, 67, 70
1, 17710, Control_c, 0, 64, 72
1, 17710, Control_c, 0, 67, 71
1, 17722, Note_off_c, 0, 66, 28
1, 17724, Control_c, 0, 64, 73
1, 17724, Control_c, 0, 67, 72
1, 17739, Control_c, 0, 64, 74
1, 17739, Control_c, 0, 67, 74
1, 17754, Control_c, 0, 64, 75
1, 17754, Control_c, 0, 67, 77
1, 17768, Control_c, 0, 64, 76
1, 17768, Control_c, 0, 67, 81
1, 17783, Control_c, 0, 64, 77
1, 17783, Control_c, 0, 67, 84
1, 17798, Control_c, 0, 64, 78
1, 17798, Control_c, 0, 67, 86
1, 17813, Control_c, 0, 64, 80
1, 17813, Control_c, 0, 67, 88
1, 17828, Control_c, 0, 64, 81
1, 17828, Control_c, 0, 67, 89
1, 17842, Note_on_c, 0, 51, 33
1, 17842, Control_c, 0, 64, 83
1, 17842, Control_c, 0, 67, 91
1, 17855, Note_on_c, 0, 42, 25
1, 17857, Control_c, 0, 64, 84
1, 17857, Control_c, 0, 67, 92
1, 17861, Note_on_c, 0, 47, 30
1, 17872, Control_c, 0, 64, 86
1, 17872, Control_c, 0, 67, 94
1, 17887, Control_c, 0, 64, 88
1, 17887, Control_c, 0, 67, 97
1, 17902, Control_c, 0, 64, 90
1, 17902, Control_c, 0, 67, 100
1, 17917, Control_c, 0, 64, 91
1, 17917, Control_c, 0, 67, 102
1, 17932, Control_c, 0, 64, 93
1, 17932, Control_c, 0, 67, 104
1, 17947, Control_c, 0, 64, 94
1, 17947, Control_c, 0, 67, 105
1, 17962, Control_c, 0, 64, 95
1, 17962, Control_c, 0, 67, 106
1, 17976, Control_c, 0, 64, 96
1, 17976, Control_c, 0, 67, 107
1, 17991, Control_c, 0, 67, 108
1, 18006, Control_c, 0, 67, 109
1, 18028, Control_c, 0, 67, 110
1, 18036, Note_off_c, 0, 51, 38
1, 18042, Control_c, 0, 67, 112
1, 18057, Control_c, 0, 67, 113
1, 18072, Note_off_c, 0, 42, 38
1, 18072, Control_c, 0, 67, 114
1, 18087, Control_c, 0, 67, 115
1, 18093, Note_off_c, 0, 47, 42
1, 18103, Control_c, 0, 67, 117
1, 18118, Control_c, 0, 67, 118
1, 18133, Control_c, 0, 67, 119
1, 18148, Control_c, 0, 67, 120
1, 18252, Control_c, 0, 64, 96
1, 18266, Control_c, 0, 64, 97
1, 18281, Control_c, 0, 64, 99
1, 18296, Control_c, 0, 64, 100
1, 18311, Control_c, 0, 64, 101
1, 18326, Control_c, 0, 64, 102
1, 18383, Note_on_c, 0, 51, 35
1, 18386, Note_on_c, 0, 42, 35
1, 18414, Note_on_c, 0, 47, 41
1, 18639, Note_off_c, 0, 42, 45
1, 18681, Control_c, 0, 67, 121
1, 18696, Control_c, 0, 67, 122
1, 18711, Control_c, 0, 67, 124
1, 18725, Control_c, 0, 67, 127
1, 18770, Note_off_c, 0, 47, 44
1, 18822, Control_c, 0, 64, 101
1, 18837, Control_c, 0, 64, 100
1, 18846, Note_off_c, 0, 51, 54
1, 18852, Control_c, 0, 64, 100
1, 18867, Control_c, 0, 64, 99
1, 18881, Control_c, 0, 64, 98
1, 18897, Control_c, 0, 64, 97
1, 18912, Control_c, 0, 64, 96
1, 18927, Control_c, 0, 64, 95
1, 18971, Control_c, 0, 64, 95
1, 19001, Control_c, 0, 64, 94
1, 19030, Control_c, 0, 64, 94
1, 19045, Control_c, 0, 64, 93
1, 19061, Note_on_c, 0, 63, 54
1, 19075, Control_c, 0, 64, 92
1, 19089, Control_c, 0, 64, 91
1, 19104, Control_c, 0, 64, 90
1, 19110, Note_off_c, 0, 63, 62
1, 19282, Control_c, 0, 64, 90
1, 19297, Control_c, 0, 64, 91
1, 19371, Control_c, 0, 64, 91
1, 19430, Control_c, 0, 67, 127
1, 19445, Control_c, 0, 64, 91
1, 19445, Control_c, 0, 67, 126
1, 19460, Control_c, 0, 67, 125
1, 19571, Control_c, 0, 67, 126
1, 19586, Control_c, 0, 67, 126
1, 19601, Control_c, 0, 67, 127
1, 19644, Control_c, 0, 67, 127
1, 19659, Control_c, 0, 64, 89
1, 19674, Control_c, 0, 64, 86
1, 19679, Note_on_c, 0, 51, 42
1, 19682, Note_on_c, 0, 42, 32
1, 19683, Note_on_c, 0, 47, 35
1, 19689, Control_c, 0, 64, 81
1, 19705, Control_c, 0, 64, 78
1, 19719, Control_c, 0, 64, 76
1, 19725, Note_off_c, 0, 51, 62
1, 19732, Note_off_c, 0, 42, 47
1, 19735, Note_off_c, 0, 47, 61
1, 19749, Control_c, 0, 67, 127
1, 19763, Control_c, 0, 67, 126
1, 19793, Control_c, 0, 67, 125
1, 19808, Control_c, 0, 67, 124
1, 19823, Control_c, 0, 67, 123
1, 19837, Control_c, 0, 67, 121
1, 19852, Control_c, 0, 67, 117
1, 19867, Control_c, 0, 67, 112
1, 19882, Control_c, 0, 67, 107
1, 19897, Control_c, 0, 67, 98
1, 19911, Control_c, 0, 67, 88
1, 19926, Control_c, 0, 67, 75
1, 19941, Control_c, 0, 64, 77
1, 19941, Control_c, 0, 67, 61
1, 19956, Control_c, 0, 67, 47
1, 19971, Control_c, 0, 64, 77
1, 19971, Control_c, 0, 67, 35
1, 19986, Control_c, 0, 67, 27
1, 20001, Control_c, 0, 64, 78
1, 20001, Control_c, 0, 67, 20
1, 20016, Control_c, 0, 67, 18
1, 20030, Control_c, 0, 67, 16
1, 20045, Control_c, 0, 64, 78
1, 20060, Control_c, 0, 67, 16
1, 20105, Control_c, 0, 67, 15
1, 20119, Control_c, 0, 67, 14
1, 20134, Control_c, 0, 67, 11
1, 20149, Control_c, 0, 67, 0
1, 20210, Note_on_c, 0, 51, 37
1, 20211, Note_on_c, 0, 42, 34
1, 20232, Note_on_c, 0, 47, 18
1, 20352, Note_off_c, 0, 47, 29
1, 20400, Note_off_c, 0, 42, 28
1, 20454, Note_off_c, 0, 51, 36
1, 20987, Note_on_c, 0, 59, 12
1, 21020, Note_off_c, 0, 59, 0
1, 21020, Poly_aftertouch_c, 0, 60, 127
1, 21042, Poly_aftertouch_c, 0, 59, 0
1, 21047, Poly_aftertouch_c, 0, 60, 0
1, 21125, Note_on_c, 0, 58, 65
1, 21160, Note_off_c, 0, 58, 63
1, 21408, Control_c, 0, 64, 78
1, 21423, Control_c, 0, 64, 77
1, 21438, Control_c, 0, 64, 76
1, 21483, Control_c, 0, 64, 77
1, 21497, Control_c, 0, 64, 77
1, 21512, Control_c, 0, 64, 78
1, 21527, Control_c, 0, 64, 79
1, 21542, Control_c, 0, 64, 80
1, 21557, Control_c, 0, 64, 80
1, 21601, Control_c, 0, 64, 80
1, 21616, Control_c, 0, 64, 74
1, 21631, Control_c, 0, 64, 64
1, 21646, Control_c, 0, 64, 54
1, 21657, Note_on_c, 0, 43, 47
1, 21661, Control_c, 0, 64, 37
1, 21663, Note_on_c, 0, 49, 43
1, 21672, Note_on_c, 0, 52, 43
1, 21676, Control_c, 0, 64, 0
1, 21720, Control_c, 0, 64, 19
1, 21734, Control_c, 0, 64, 33
1, 21749, Control_c, 0, 64, 46
1, 21771, Control_c, 0, 64, 60
1, 21786, Control_c, 0, 64, 74
1, 21801, Control_c, 0, 64, 105
1, 21816, Control_c, 0, 64, 127
1, 21849, Note_off_c, 0, 52, 55
1, 21850, Note_off_c, 0, 43, 57
1, 21894, Note_off_c, 0, 49, 35
1, 22120, Note_on_c, 0, 49, 57
1, 22129, Note_on_c, 0, 52, 52
1, 22141, Note_on_c, 0, 43, 16
1, 22173, Note_off_c, 0, 52, 63
1, 22192, Note_off_c, 0, 43, 46
1, 22198, Note_off_c, 0, 49, 63
1, 22445, Note_on_c, 0, 58, 66
1, 22490, Note_off_c, 0, 58, 56
1, 22693, Note_on_c, 0, 58, 68
1, 22834, Note_on_c, 0, 59, 66
1, 22839, Note_off_c, 0, 58, 62
1, 22941, Note_on_c, 0, 58, 79
1, 22967, Note_off_c, 0, 59, 62
1, 23028, Note_on_c, 0, 57, 78
1, 23028, Note_off_c, 0, 58, 63
1, 23109, Note_on_c, 0, 58, 84
1, 23116, Note_off_c, 0, 57, 62
1, 23230, Note_off_c, 0, 58, 63
1, 23231, Note_on_c, 0, 64, 80
1, 23232, Control_c, 0, 64, 83
1, 23241, Note_on_c, 0, 52, 65
1, 23247, Control_c, 0, 64, 57
1, 23259, Note_on_c, 0, 46, 60
1, 23262, Note_on_c, 0, 43, 52
1, 23269, Control_c, 0, 64, 20
1, 23284, Control_c, 0, 64, 0
1, 23402, Control_c, 0, 64, 12
1, 23417, Control_c, 0, 64, 23
1, 23432, Control_c, 0, 64, 32
1, 23439, Note_off_c, 0, 43, 60
1, 23447, Control_c, 0, 64, 40
1, 23461, Control_c, 0, 64, 50
1, 23476, Control_c, 0, 64, 58
1, 23483, Note_off_c, 0, 46, 61
1, 23491, Control_c, 0, 64, 63
1, 23506, Control_c, 0, 64, 65
1, 23518, Note_off_c, 0, 52, 57
1, 23566, Control_c, 0, 64, 65
1, 23596, Note_on_c, 0, 63, 83
1, 23610, Control_c, 0, 64, 64
1, 23619, Note_off_c, 0, 64, 59
1, 23625, Control_c, 0, 64, 64
1, 23640, Control_c, 0, 64, 63
1, 23654, Control_c, 0, 64, 62
1, 23669, Control_c, 0, 64, 62
1, 23685, Control_c, 0, 64, 61
1, 23700, Control_c, 0, 64, 60
1, 23715, Control_c, 0, 64, 59
1, 23729, Control_c, 0, 64, 58
1, 23744, Control_c, 0, 64, 58
1, 23759, Control_c, 0, 64, 57
1, 23774, Control_c, 0, 64, 57
1, 23803, Control_c, 0, 64, 56
1, 23818, Control_c, 0, 64, 52
1, 23833, Control_c, 0, 64, 41
1, 23848, Control_c, 0, 64, 14
1, 23852, Note_on_c, 0, 52, 60
1, 23863, Control_c, 0, 64, 0
1, 23870, Note_on_c, 0, 43, 44
1, 23870, Note_on_c, 0, 46, 48
1, 24048, Control_c, 0, 64, 13
1, 24063, Control_c, 0, 64, 23
1, 24078, Control_c, 0, 64, 31
1, 24089, Note_off_c, 0, 43, 36
1, 24092, Control_c, 0, 64, 39
1, 24107, Control_c, 0, 64, 50
1, 24122, Control_c, 0, 64, 59
1, 24136, Control_c, 0, 64, 65
1, 24151, Control_c, 0, 64, 68
1, 24166, Control_c, 0, 64, 68
1, 24171, Note_off_c, 0, 46, 43
1, 24194, Note_off_c, 0, 52, 62
1, 24418, Control_c, 0, 64, 68
1, 24469, Note_on_c, 0, 61, 71
1, 24527, Note_off_c, 0, 63, 35
1, 24576, Note_off_c, 0, 61, 60
1, 24671, Control_c, 0, 64, 66
1, 24686, Note_on_c, 0, 61, 78
1, 24686, Control_c, 0, 64, 59
1, 24700, Control_c, 0, 64, 45
1, 24715, Control_c, 0, 64, 12
1, 24730, Control_c, 0, 64, 0
1, 24841, Control_c, 0, 64, 8
1, 24856, Note_off_c, 0, 61, 62
1, 24856, Control_c, 0, 64, 23
1, 24871, Control_c, 0, 64, 34
1, 24886, Control_c, 0, 64, 43
1, 24901, Control_c, 0, 64, 54
1, 24916, Control_c, 0, 64, 65
1, 24931, Control_c, 0, 64, 82
1, 24946, Control_c, 0, 64, 127
1, 25409, Note_on_c, 0, 51, 39
1, 25410, Note_on_c, 0, 44, 37
1, 25454, Note_off_c, 0, 51, 63
1, 25458, Note_off_c, 0, 44, 60
1, 25940, Note_on_c, 0, 44, 28
1, 25942, Note_on_c, 0, 51, 27
1, 26007, Note_off_c, 0, 44, 52
1, 26013, Note_off_c, 0, 51, 50
1, 26351, Note_on_c, 0, 60, 50
1, 26396, Note_off_c, 0, 60, 62
1, 26487, Control_c, 0, 64, 78
1, 26502, Control_c, 0, 64, 57
1, 26506, Note_on_c, 0, 59, 52
1, 26517, Control_c, 0, 64, 31
1, 26531, Control_c, 0, 64, 0
1, 26591, Control_c, 0, 64, 8
1, 26605, Control_c, 0, 64, 27
1, 26620, Control_c, 0, 64, 38
1, 26635, Control_c, 0, 64, 50
1, 26649, Control_c, 0, 64, 61
1, 26664, Control_c, 0, 64, 72
1, 26672, Note_off_c, 0, 59, 51
1, 26679, Control_c, 0, 64, 90
1, 26694, Control_c, 0, 64, 127
1, 27081, Note_on_c, 0, 51, 35
1, 27087, Note_on_c, 0, 44, 36
1, 27164, Note_off_c, 0, 44, 49
1, 27197, Note_off_c, 0, 51, 37
1, 27694, Note_on_c, 0, 59, 55
1, 27798, Note_off_c, 0, 59, 61
1, 28010, Note_on_c, 0, 51, 49
1, 28012, Note_on_c, 0, 44, 50
1, 28060, Note_off_c, 0, 44, 60
1, 28073, Note_off_c, 0, 51, 60
1, 28362, Note_on_c, 0, 59, 73
1, 28469, Note_off_c, 0, 59, 60
1, 28852, Control_c, 0, 64, 73
1, 28867, Control_c, 0, 64, 56
1, 28882, Control_c, 0, 64, 21
1, 28889, Note_on_c, 0, 37, 55
1, 28897, Control_c, 0, 64, 0
1, 28956, Control_c, 0, 64, 14
1, 28971, Control_c, 0, 64, 33
1, 28986, Control_c, 0, 64, 50
1, 29000, Control_c, 0, 64, 64
1, 29015, Control_c, 0, 64, 95
1, 29030, Control_c, 0, 64, 127
1, 29048, Note_off_c, 0, 37, 56
1, 29119, Note_on_c, 0, 52, 71
1, 29167, Note_off_c, 0, 52, 65
1, 29569, Note_on_c, 0, 59, 73
1, 29719, Note_off_c, 0, 59, 59
1, 31228, Note_on_c, 0, 57, 65
1, 31276, Control_c, 0, 64, 97
1, 31291, Control_c, 0, 64, 84
1, 31306, Control_c, 0, 64, 78
1, 31320, Control_c, 0, 64, 75
1, 31335, Control_c, 0, 64, 72
1, 31350, Control_c, 0, 64, 70
1, 31365, Control_c, 0, 64, 69
1, 31380, Control_c, 0, 64, 68
1, 31394, Control_c, 0, 64, 67
1, 31409, Control_c, 0, 64, 64
1, 31424, Control_c, 0, 64, 62
1, 31438, Control_c, 0, 64, 60
1, 31453, Control_c, 0, 64, 57
1, 31468, Control_c, 0, 64, 55
1, 31483, Control_c, 0, 64, 53
1, 31506, Control_c, 0, 64, 51
1, 31520, Control_c, 0, 64, 49
1, 31535, Control_c, 0, 64, 47
1, 31550, Control_c, 0, 64, 44
1, 31565, Control_c, 0, 64, 39
1, 31580, Control_c, 0, 64, 35
1, 31592, Note_on_c, 0, 56, 75
1, 31595, Control_c, 0, 64, 29
1, 31607, Note_off_c, 0, 57, 61
1, 31609, Control_c, 0, 64, 19
1, 31625, Control_c, 0, 64, 0
1, 31843, Note_off_c, 0, 56, 64
1, 31858, Note_on_c, 0, 57, 71
1, 32023, Note_off_c, 0, 57, 55
1, 32033, Note_on_c, 0, 51, 75
1, 32164, Note_off_c, 0, 51, 61
1, 32166, Note_on_c, 0, 52, 71
1, 32302, Note_on_c, 0, 48, 69
1, 32316, Note_off_c, 0, 52, 59
1, 32443, Note_off_c, 0, 48, 63
1, 32443, Note_on_c, 0, 49, 66
1, 32538, Note_off_c, 0, 49, 61
1, 32547, Note_on_c, 0, 52, 61
1, 32553, Control_c, 0, 64, 16
1, 32567, Control_c, 0, 64, 29
1, 32582, Control_c, 0, 64, 38
1, 32597, Control_c, 0, 64, 48
1, 32612, Control_c, 0, 64, 61
1, 32616, Note_off_c, 0, 52, 65
1, 32627, Control_c, 0, 64, 69
1, 32642, Control_c, 0, 64, 79
1, 32647, Note_on_c, 0, 57, 56
1, 32656, Control_c, 0, 64, 84
1, 32671, Control_c, 0, 64, 84
1, 32684, Note_off_c, 0, 57, 61
1, 32686, Control_c, 0, 64, 85
1, 32700, Control_c, 0, 64, 85
1, 32715, Control_c, 0, 64, 86
1, 32730, Control_c, 0, 64, 88
1, 32745, Control_c, 0, 64, 90
1, 32748, Note_on_c, 0, 61, 61
1, 32760, Control_c, 0, 64, 92
1, 32774, Control_c, 0, 64, 99
1, 32789, Control_c, 0, 64, 127
1, 32845, Note_on_c, 0, 64, 43
1, 32860, Note_off_c, 0, 61, 51
1, 32896, Note_off_c, 0, 64, 60
1, 32932, Note_on_c, 0, 69, 60
1, 32967, Note_off_c, 0, 69, 60
1, 33051, Note_on_c, 0, 73, 66
1, 33158, Note_off_c, 0, 73, 62
1, 33179, Note_on_c, 0, 76, 51
1, 33240, Note_off_c, 0, 76, 51
1, 33477, Note_on_c, 0, 85, 65
1, 33502, Note_off_c, 0, 85, 68
1, 34082, Note_on_c, 0, 80, 79
1, 34129, Note_off_c, 0, 80, 64
1, 34666, Note_on_c, 0, 83, 70
1, 34678, Control_c, 0, 64, 82
1, 34693, Control_c, 0, 64, 65
1, 34708, Control_c, 0, 64, 52
1, 34723, Control_c, 0, 64, 17
1, 34738, Control_c, 0, 64, 0
1, 35278, Note_on_c, 0, 81, 72
1, 35299, Note_off_c, 0, 83, 62
1, 35454, Note_on_c, 0, 74, 74
1, 35483, Note_off_c, 0, 81, 63
1, 35628, Note_on_c, 0, 75, 79
1, 35653, Note_off_c, 0, 74, 64
1, 35910, Note_on_c, 0, 78, 71
1, 35943, Note_off_c, 0, 75, 57
1, 36368, Control_c, 0, 64, 9
1, 36383, Control_c, 0, 64, 10
1, 36398, Control_c, 0, 64, 10
1, 36413, Control_c, 0, 64, 11
1, 36428, Control_c, 0, 64, 11
1, 36442, Control_c, 0, 64, 12
1, 36547, Control_c, 0, 64, 11
1, 36562, Control_c, 0, 64, 11
1, 36577, Control_c, 0, 64, 10
1, 36592, Control_c, 0, 64, 9
1, 36606, Control_c, 0, 64, 8
1, 36621, Control_c, 0, 64, 0
1, 36631, Note_on_c, 0, 76, 53
1, 36666, Note_off_c, 0, 78, 60
1, 36680, Control_c, 0, 67, 8
1, 36792, Control_c, 0, 67, 8
1, 36954, Control_c, 0, 67, 9
1, 37025, Note_off_c, 0, 76, 52
1, 37028, Note_on_c, 0, 75, 45
1, 37385, Control_c, 0, 67, 9
1, 37444, Control_c, 0, 67, 10
1, 37510, Control_c, 0, 67, 10
1, 37555, Control_c, 0, 67, 11
1, 37561, Note_on_c, 0, 73, 38
1, 37581, Note_off_c, 0, 75, 35
1, 37585, Control_c, 0, 67, 11
1, 37600, Control_c, 0, 67, 12
1, 37614, Control_c, 0, 67, 13
1, 37644, Control_c, 0, 67, 13
1, 37659, Control_c, 0, 67, 14
1, 37688, Control_c, 0, 67, 14
1, 37703, Control_c, 0, 67, 15
1, 37733, Control_c, 0, 67, 15
1, 37748, Control_c, 0, 67, 16
1, 37762, Control_c, 0, 64, 10
1, 37762, Control_c, 0, 67, 17
1, 37777, Control_c, 0, 64, 16
1, 37777, Control_c, 0, 67, 18
1, 37792, Control_c, 0, 64, 20
1, 37792, Control_c, 0, 67, 19
1, 37806, Control_c, 0, 64, 25
1, 37821, Control_c, 0, 64, 30
1, 37821, Control_c, 0, 67, 20
1, 37836, Control_c, 0, 64, 36
1, 37851, Control_c, 0, 64, 44
1, 37866, Control_c, 0, 64, 53
1, 37866, Control_c, 0, 67, 20
1, 37880, Control_c, 0, 64, 60
1, 37895, Control_c, 0, 64, 64
1, 37910, Control_c, 0, 64, 65
1, 37940, Control_c, 0, 64, 65
1, 37940, Control_c, 0, 67, 21
1, 37955, Control_c, 0, 64, 66
1, 37955, Control_c, 0, 67, 21
1, 37955, Note_off_c, 0, 73, 44
1, 37970, Control_c, 0, 64, 66
1, 37984, Control_c, 0, 64, 68
1, 37984, Control_c, 0, 67, 23
1, 37999, Control_c, 0, 64, 70
1, 37999, Control_c, 0, 67, 25
1, 38014, Control_c, 0, 64, 73
1, 38014, Control_c, 0, 67, 26
1, 38029, Control_c, 0, 64, 77
1, 38029, Control_c, 0, 67, 27
1, 38044, Control_c, 0, 64, 83
1, 38044, Control_c, 0, 67, 28
1, 38059, Control_c, 0, 64, 92
1, 38059, Control_c, 0, 67, 29
1, 38074, Control_c, 0, 64, 106
1, 38074, Control_c, 0, 67, 31
1, 38089, Control_c, 0, 64, 127
1, 38089, Control_c, 0, 67, 34
1, 38104, Control_c, 0, 67, 37
1, 38119, Control_c, 0, 67, 41
1, 38133, Control_c, 0, 67, 46
1, 38148, Control_c, 0, 67, 49
1, 38163, Control_c, 0, 67, 53
1, 38178, Control_c, 0, 67, 55
1, 38193, Control_c, 0, 67, 57
1, 38208, Control_c, 0, 67, 58
1, 38223, Control_c, 0, 67, 59
1, 38244, Control_c, 0, 67, 59
1, 38259, Control_c, 0, 67, 60
1, 38274, Control_c, 0, 67, 60
1, 38401, Note_on_c, 0, 50, 42
1, 38475, Note_off_c, 0, 50, 56
1, 38616, Control_c, 0, 67, 59
1, 38645, Control_c, 0, 67, 58
1, 38660, Control_c, 0, 67, 58
1, 38674, Note_on_c, 0, 65, 45
1, 38675, Control_c, 0, 67, 57
1, 38690, Control_c, 0, 67, 56
1, 38704, Control_c, 0, 67, 55
1, 38719, Control_c, 0, 67, 54
1, 38732, Note_off_c, 0, 65, 62
1, 38734, Control_c, 0, 67, 53
1, 38749, Control_c, 0, 67, 52
1, 38763, Control_c, 0, 67, 50
1, 38778, Control_c, 0, 67, 49
1, 38793, Control_c, 0, 67, 49
1, 38801, Note_on_c, 0, 68, 47
1, 38808, Control_c, 0, 67, 47
1, 38823, Control_c, 0, 67, 46
1, 38837, Control_c, 0, 67, 45
1, 38853, Control_c, 0, 67, 43
1, 38868, Control_c, 0, 67, 40
1, 38883, Control_c, 0, 67, 38
1, 38898, Control_c, 0, 67, 34
1, 38913, Control_c, 0, 67, 30
1, 38927, Control_c, 0, 67, 25
1, 38941, Note_on_c, 0, 73, 51
1, 38942, Control_c, 0, 67, 18
1, 38957, Control_c, 0, 67, 12
1, 38969, Note_off_c, 0, 68, 35
1, 38972, Control_c, 0, 67, 0
1, 39008, Note_off_c, 0, 73, 57
1, 40431, Note_on_c, 0, 71, 52
1, 40890, Note_on_c, 0, 67, 68
1, 40898, Note_off_c, 0, 71, 57
1, 41192, Note_on_c, 0, 68, 87
1, 41209, Note_off_c, 0, 67, 63
1, 41359, Control_c, 0, 64, 119
1, 41374, Control_c, 0, 64, 111
1, 41388, Control_c, 0, 64, 105
1, 41392, Note_on_c, 0, 64, 82
1, 41403, Control_c, 0, 64, 101
1, 41409, Note_off_c, 0, 68, 58
1, 41418, Control_c, 0, 64, 96
1, 41433, Control_c, 0, 64, 92
1, 41448, Control_c, 0, 64, 89
1, 41462, Control_c, 0, 64, 87
1, 41477, Control_c, 0, 64, 85
1, 41492, Control_c, 0, 64, 84
1, 41507, Control_c, 0, 64, 82
1, 41522, Control_c, 0, 64, 81
1, 41536, Control_c, 0, 64, 80
1, 41544, Note_on_c, 0, 65, 86
1, 41551, Control_c, 0, 64, 80
1, 41566, Control_c, 0, 64, 79
1, 41579, Note_off_c, 0, 64, 61
1, 41640, Control_c, 0, 64, 76
1, 41654, Control_c, 0, 64, 65
1, 41669, Control_c, 0, 64, 49
1, 41684, Control_c, 0, 64, 0
1, 41690, Note_on_c, 0, 61, 84
1, 41690, Note_off_c, 0, 65, 63
1, 41798, Note_off_c, 0, 61, 61
1, 41803, Control_c, 0, 64, 19
1, 41810, Note_on_c, 0, 62, 81
1, 41818, Control_c, 0, 64, 27
1, 41833, Control_c, 0, 64, 35
1, 41848, Control_c, 0, 64, 44
1, 41862, Control_c, 0, 64, 56
1, 41877, Control_c, 0, 64, 67
1, 41889, Note_off_c, 0, 62, 57
1, 41892, Control_c, 0, 64, 80
1, 41894, Note_on_c, 0, 65, 81
1, 41907, Control_c, 0, 64, 91
1, 41922, Control_c, 0, 64, 98
1, 41936, Control_c, 0, 64, 109
1, 41948, Note_on_c, 0, 68, 73
1, 41951, Control_c, 0, 64, 127
1, 41967, Note_off_c, 0, 65, 61
1, 41994, Note_on_c, 0, 71, 73
1, 42012, Note_off_c, 0, 68, 62
1, 42015, Note_off_c, 0, 71, 71
1, 42073, Note_on_c, 0, 74, 74
1, 42130, Note_on_c, 0, 77, 83
1, 42130, Note_off_c, 0, 74, 60
1, 42159, Note_on_c, 0, 80, 80
1, 42184, Note_off_c, 0, 77, 61
1, 42197, Note_on_c, 0, 83, 71
1, 42205, Note_off_c, 0, 80, 64
1, 42212, Note_off_c, 0, 83, 71
1, 42275, Note_on_c, 0, 86, 70
1, 42325, Note_off_c, 0, 86, 47
1, 42330, Note_on_c, 0, 89, 81
1, 42371, Note_on_c, 0, 92, 78
1, 42399, Note_off_c, 0, 89, 62
1, 42408, Note_on_c, 0, 95, 101
1, 42428, Note_off_c, 0, 92, 67
1, 42430, Note_off_c, 0, 95, 69
1, 42742, Note_on_c, 0, 91, 101
1, 42978, Note_off_c, 0, 91, 55
1, 43007, Note_on_c, 0, 94, 102
1, 43595, Note_on_c, 0, 92, 90
1, 43648, Note_off_c, 0, 94, 55
1, 43755, Note_on_c, 0, 86, 83
1, 43767, Note_off_c, 0, 92, 63
1, 43809, Note_off_c, 0, 86, 63
1, 43849, Note_on_c, 0, 87, 83
1, 43915, Note_on_c, 0, 88, 92
1, 43917, Note_off_c, 0, 87, 61
1, 43956, Note_off_c, 0, 88, 68
1, 44002, Note_on_c, 0, 91, 104
1, 44021, Control_c, 0, 64, 77
1, 44036, Control_c, 0, 64, 57
1, 44050, Control_c, 0, 64, 40
1, 44065, Control_c, 0, 64, 21
1, 44080, Control_c, 0, 64, 0
1, 44280, Control_c, 0, 64, 22
1, 44295, Control_c, 0, 64, 33
1, 44310, Control_c, 0, 64, 44
1, 44324, Control_c, 0, 64, 54
1, 44339, Control_c, 0, 64, 63
1, 44353, Control_c, 0, 64, 67
1, 44382, Control_c, 0, 64, 65
1, 44397, Note_on_c, 0, 89, 92
1, 44397, Control_c, 0, 64, 61
1, 44412, Control_c, 0, 64, 55
1, 44424, Note_off_c, 0, 91, 58
1, 44427, Control_c, 0, 64, 46
1, 44442, Control_c, 0, 64, 38
1, 44458, Control_c, 0, 64, 32
1, 44472, Control_c, 0, 64, 32
1, 44487, Control_c, 0, 64, 31
1, 44548, Note_on_c, 0, 83, 88
1, 44576, Control_c, 0, 64, 31
1, 44584, Note_off_c, 0, 89, 63
1, 44591, Control_c, 0, 64, 30
1, 44663, Note_on_c, 0, 84, 90
1, 44676, Note_off_c, 0, 83, 62
1, 44694, Control_c, 0, 67, 9
1, 44709, Control_c, 0, 67, 10
1, 44724, Control_c, 0, 64, 29
1, 44724, Control_c, 0, 67, 11
1, 44739, Control_c, 0, 64, 27
1, 44739, Control_c, 0, 67, 12
1, 44754, Control_c, 0, 64, 12
1, 44754, Control_c, 0, 67, 16
1, 44769, Note_on_c, 0, 85, 89
1, 44769, Control_c, 0, 64, 0
1, 44769, Control_c, 0, 67, 23
1, 44774, Note_off_c, 0, 84, 65
1, 44784, Control_c, 0, 67, 34
1, 44798, Control_c, 0, 67, 49
1, 44813, Control_c, 0, 67, 63
1, 44828, Control_c, 0, 67, 75
1, 44843, Control_c, 0, 67, 85
1, 44858, Control_c, 0, 67, 92
1, 44872, Control_c, 0, 64, 11
1, 44872, Control_c, 0, 67, 96
1, 44877, Note_on_c, 0, 87, 77
1, 44887, Control_c, 0, 64, 18
1, 44887, Control_c, 0, 67, 98
1, 44890, Note_off_c, 0, 85, 63
1, 44902, Control_c, 0, 64, 19
1, 44917, Control_c, 0, 64, 20
1, 44936, Note_off_c, 0, 87, 60
1, 44963, Note_on_c, 0, 86, 68
1, 44984, Control_c, 0, 64, 19
1, 44999, Control_c, 0, 64, 19
1, 45013, Control_c, 0, 64, 18
1, 45028, Control_c, 0, 64, 17
1, 45043, Control_c, 0, 64, 17
1, 45046, Note_off_c, 0, 86, 61
1, 45055, Note_on_c, 0, 80, 77
1, 45058, Control_c, 0, 64, 16
1, 45073, Control_c, 0, 64, 16
1, 45087, Control_c, 0, 64, 15
1, 45115, Note_off_c, 0, 80, 61
1, 45124, Note_on_c, 0, 81, 70
1, 45174, Note_off_c, 0, 81, 63
1, 45177, Note_on_c, 0, 82, 71
1, 45235, Note_off_c, 0, 82, 59
1, 45237, Note_on_c, 0, 85, 69
1, 45252, Control_c, 0, 67, 97
1, 45267, Control_c, 0, 67, 97
1, 45283, Note_off_c, 0, 85, 64
1, 45284, Note_on_c, 0, 83, 76
1, 45329, Note_off_c, 0, 83, 63
1, 45341, Control_c, 0, 64, 14
1, 45347, Note_on_c, 0, 74, 70
1, 45356, Control_c, 0, 67, 96
1, 45370, Control_c, 0, 64, 14
1, 45385, Control_c, 0, 64, 13
1, 45385, Control_c, 0, 67, 96
1, 45395, Note_off_c, 0, 74, 67
1, 45399, Note_on_c, 0, 75, 66
1, 45400, Control_c, 0, 64, 11
1, 45415, Control_c, 0, 64, 9
1, 45415, Control_c, 0, 67, 95
1, 45429, Control_c, 0, 64, 0
1, 45437, Note_on_c, 0, 76, 73
1, 45450, Note_off_c, 0, 75, 54
1, 45459, Control_c, 0, 67, 95
1, 45474, Control_c, 0, 67, 94
1, 45482, Note_off_c, 0, 76, 68
1, 45490, Note_on_c, 0, 79, 75
1, 45503, Control_c, 0, 67, 94
1, 45518, Control_c, 0, 67, 93
1, 45530, Note_on_c, 0, 77, 77
1, 45533, Control_c, 0, 67, 93
1, 45541, Note_off_c, 0, 79, 58
1, 45547, Control_c, 0, 67, 92
1, 45562, Control_c, 0, 67, 91
1, 45577, Control_c, 0, 67, 91
1, 45582, Note_on_c, 0, 71, 64
1, 45582, Note_off_c, 0, 77, 65
1, 45592, Control_c, 0, 67, 89
1, 45619, Note_off_c, 0, 71, 62
1, 45620, Note_on_c, 0, 72, 74
1, 45622, Control_c, 0, 67, 89
1, 45636, Control_c, 0, 67, 87
1, 45651, Note_on_c, 0, 73, 80
1, 45651, Control_c, 0, 67, 86
1, 45666, Control_c, 0, 67, 86
1, 45672, Note_off_c, 0, 72, 62
1, 45681, Control_c, 0, 67, 85
1, 45696, Control_c, 0, 67, 81
1, 45697, Note_off_c, 0, 73, 66
1, 45703, Note_on_c, 0, 75, 73
1, 45711, Control_c, 0, 67, 70
1, 45733, Control_c, 0, 67, 49
1, 45748, Control_c, 0, 67, 20
1, 45750, Note_on_c, 0, 74, 71
1, 45753, Note_off_c, 0, 75, 54
1, 45762, Control_c, 0, 67, 0
1, 45803, Note_on_c, 0, 68, 72
1, 45810, Note_off_c, 0, 74, 64
1, 45849, Note_off_c, 0, 68, 64
1, 45854, Note_on_c, 0, 69, 76
1, 45901, Note_on_c, 0, 70, 74
1, 45902, Note_off_c, 0, 69, 67
1, 45949, Note_on_c, 0, 73, 70
1, 45951, Note_off_c, 0, 70, 63
1, 45973, Note_off_c, 0, 73, 57
1, 45983, Note_on_c, 0, 71, 78
1, 46043, Note_off_c, 0, 71, 65
1, 46055, Note_on_c, 0, 62, 78
1, 46103, Note_on_c, 0, 63, 69
1, 46117, Note_off_c, 0, 62, 50
1, 46140, Note_on_c, 0, 64, 75
1, 46153, Note_off_c, 0, 63, 66
1, 46189, Note_off_c, 0, 64, 66
1, 46190, Note_on_c, 0, 67, 81
1, 46235, Note_on_c, 0, 65, 72
1, 46247, Note_off_c, 0, 67, 59
1, 46287, Note_on_c, 0, 59, 71
1, 46287, Note_off_c, 0, 65, 65
1, 46322, Note_on_c, 0, 60, 69
1, 46329, Note_off_c, 0, 59, 61
1, 46355, Note_on_c, 0, 61, 82
1, 46376, Note_off_c, 0, 60, 67
1, 46403, Note_off_c, 0, 61, 68
1, 46412, Note_on_c, 0, 63, 74
1, 46459, Note_on_c, 0, 62, 72
1, 46465, Note_off_c, 0, 63, 64
1, 46519, Note_on_c, 0, 56, 70
1, 46542, Note_off_c, 0, 62, 63
1, 46569, Note_off_c, 0, 56, 66
1, 46578, Note_on_c, 0, 57, 72
1, 46623, Note_on_c, 0, 58, 76
1, 46626, Note_off_c, 0, 57, 65
1, 46690, Note_off_c, 0, 58, 61
1, 46691, Note_on_c, 0, 61, 73
1, 46746, Note_on_c, 0, 59, 66
1, 46763, Note_off_c, 0, 61, 56
1, 46808, Note_off_c, 0, 59, 45
1, 46816, Note_on_c, 0, 50, 71
1, 46850, Note_off_c, 0, 50, 63
1, 46884, Note_on_c, 0, 53, 62
1, 46930, Note_off_c, 0, 53, 58
1, 46952, Note_on_c, 0, 56, 67
1, 47011, Note_off_c, 0, 56, 60
1, 47014, Note_on_c, 0, 59, 63
1, 47043, Note_off_c, 0, 59, 64
1, 47100, Note_on_c, 0, 62, 72
1, 47127, Note_off_c, 0, 62, 63
1, 47166, Note_on_c, 0, 65, 74
1, 47192, Note_off_c, 0, 65, 67
1, 47259, Note_on_c, 0, 65, 69
1, 47467, Control_c, 0, 64, 12
1, 47481, Control_c, 0, 64, 20
1, 47496, Control_c, 0, 64, 25
1, 47511, Control_c, 0, 64, 27
1, 47525, Control_c, 0, 64, 28
1, 47540, Control_c, 0, 64, 29
1, 47570, Control_c, 0, 64, 28
1, 47575, Note_on_c, 0, 39, 49
1, 47585, Control_c, 0, 64, 25
1, 47599, Control_c, 0, 64, 22
1, 47614, Control_c, 0, 64, 18
1, 47623, Note_off_c, 0, 39, 63
1, 47629, Control_c, 0, 64, 10
1, 47636, Note_on_c, 0, 48, 55
1, 47645, Control_c, 0, 64, 0
1, 47692, Note_off_c, 0, 48, 64
1, 47708, Note_on_c, 0, 56, 61
1, 47735, Note_off_c, 0, 56, 65
1, 48185, Note_on_c, 0, 63, 48
1, 48227, Note_off_c, 0, 65, 34
1, 48468, Note_off_c, 0, 63, 62
1, 48473, Note_on_c, 0, 60, 49
1, 48672, Note_on_c, 0, 56, 60
1, 48680, Note_off_c, 0, 60, 63
1, 48890, Note_on_c, 0, 54, 62
1, 48895, Note_off_c, 0, 56, 59
1, 49146, Note_on_c, 0, 39, 51
1, 49194, Note_on_c, 0, 48, 55
1, 49196, Note_off_c, 0, 39, 65
1, 49234, Note_off_c, 0, 48, 65
1, 49269, Note_on_c, 0, 57, 58
1, 49289, Note_off_c, 0, 57, 61
1, 49452, Note_on_c, 0, 53, 65
1, 49453, Note_off_c, 0, 54, 62
1, 49617, Note_on_c, 0, 61, 71
1, 49631, Note_off_c, 0, 53, 60
1, 49746, Note_on_c, 0, 57, 77
1, 49758, Note_off_c, 0, 61, 54
1, 49875, Note_on_c, 0, 67, 86
1, 49880, Note_off_c, 0, 57, 61
1, 50032, Note_on_c, 0, 39, 62
1, 50103, Note_off_c, 0, 39, 62
1, 50111, Note_on_c, 0, 49, 70
1, 50177, Note_on_c, 0, 58, 79
1, 50186, Note_off_c, 0, 49, 65
1, 50203, Note_off_c, 0, 58, 68
1, 50311, Note_on_c, 0, 65, 73
1, 50358, Note_off_c, 0, 67, 52
1, 50435, Note_on_c, 0, 61, 82
1, 50472, Note_off_c, 0, 65, 63
1, 50559, Note_on_c, 0, 58, 81
1, 50597, Note_off_c, 0, 61, 61
1, 50667, Note_on_c, 0, 56, 85
1, 50674, Note_off_c, 0, 58, 64
1, 50792, Note_on_c, 0, 39, 73
1, 50823, Note_on_c, 0, 50, 80
1, 50834, Note_off_c, 0, 39, 63
1, 50871, Note_off_c, 0, 50, 64
1, 50883, Note_on_c, 0, 59, 86
1, 50900, Note_off_c, 0, 59, 70
1, 50969, Note_on_c, 0, 59, 27
1, 50987, Note_off_c, 0, 59, 44
1, 51020, Note_on_c, 0, 55, 91
1, 51039, Note_off_c, 0, 56, 63
1, 51134, Note_off_c, 0, 55, 59
1, 51149, Note_on_c, 0, 63, 87
1, 51250, Note_on_c, 0, 59, 83
1, 51272, Note_off_c, 0, 63, 56
1, 51356, Note_on_c, 0, 68, 94
1, 51363, Note_off_c, 0, 59, 65
1, 51409, Note_on_c, 0, 39, 60
1, 51451, Note_on_c, 0, 51, 80
1, 51460, Note_off_c, 0, 39, 65
1, 51462, Control_c, 0, 64, 21
1, 51477, Control_c, 0, 64, 37
1, 51491, Control_c, 0, 64, 51
1, 51506, Note_off_c, 0, 51, 61
1, 51506, Control_c, 0, 64, 64
1, 51512, Note_on_c, 0, 55, 76
1, 51521, Control_c, 0, 64, 80
1, 51536, Control_c, 0, 64, 99
1, 51551, Control_c, 0, 64, 95
1, 51557, Note_off_c, 0, 55, 63
1, 51565, Control_c, 0, 64, 72
1, 51577, Note_on_c, 0, 60, 97
1, 51580, Control_c, 0, 64, 54
1, 51594, Note_off_c, 0, 60, 76
1, 51595, Control_c, 0, 64, 0
1, 51696, Note_on_c, 0, 67, 84
1, 51735, Note_off_c, 0, 68, 59
1, 51843, Note_on_c, 0, 63, 90
1, 51861, Note_off_c, 0, 67, 63
1, 51956, Note_off_c, 0, 63, 59
1, 51974, Note_on_c, 0, 60, 91
1, 52079, Note_off_c, 0, 60, 65
1, 52129, Note_on_c, 0, 69, 99
1, 52168, Control_c, 0, 64, 11
1, 52182, Control_c, 0, 64, 29
1, 52197, Control_c, 0, 64, 41
1, 52212, Control_c, 0, 64, 54
1, 52227, Control_c, 0, 64, 63
1, 52242, Control_c, 0, 64, 72
1, 52257, Control_c, 0, 64, 85
1, 52271, Control_c, 0, 64, 101
1, 52286, Control_c, 0, 64, 127
1, 52296, Note_on_c, 0, 39, 22
1, 52305, Note_on_c, 0, 51, 76
1, 52332, Note_off_c, 0, 51, 67
1, 52338, Note_off_c, 0, 39, 37
1, 52408, Note_on_c, 0, 53, 58
1, 52461, Note_off_c, 0, 53, 66
1, 52475, Note_on_c, 0, 60, 97
1, 52498, Note_off_c, 0, 60, 71
1, 52501, Control_c, 0, 64, 83
1, 52516, Control_c, 0, 64, 68
1, 52531, Control_c, 0, 64, 60
1, 52546, Control_c, 0, 64, 49
1, 52561, Control_c, 0, 64, 33
1, 52576, Control_c, 0, 64, 15
1, 52591, Control_c, 0, 64, 0
1, 52645, Note_on_c, 0, 68, 96
1, 52648, Note_off_c, 0, 69, 61
1, 52827, Note_on_c, 0, 66, 101
1, 52857, Note_off_c, 0, 68, 61
1, 52857, Control_c, 0, 64, 18
1, 52872, Control_c, 0, 64, 30
1, 52886, Control_c, 0, 64, 40
1, 52901, Control_c, 0, 64, 51
1, 52916, Control_c, 0, 64, 61
1, 52931, Control_c, 0, 64, 70
1, 52946, Control_c, 0, 64, 76
1, 53008, Note_off_c, 0, 66, 60
1, 53025, Note_on_c, 0, 63, 102
1, 53035, Control_c, 0, 64, 75
1, 53050, Control_c, 0, 64, 74
1, 53064, Control_c, 0, 64, 73
1, 53092, Note_off_c, 0, 63, 61
1, 53339, Control_c, 0, 64, 71
1, 53354, Note_on_c, 0, 69, 101
1, 53354, Control_c, 0, 64, 62
1, 53369, Control_c, 0, 64, 45
1, 53384, Control_c, 0, 64, 0
1, 53527, Note_on_c, 0, 39, 86
1, 53558, Note_on_c, 0, 42, 37
1, 53559, Note_off_c, 0, 42, 127
1, 53591, Control_c, 0, 64, 9
1, 53606, Control_c, 0, 64, 32
1, 53621, Control_c, 0, 64, 48
1, 53635, Control_c, 0, 64, 63
1, 53642, Note_off_c, 0, 39, 63
1, 53650, Control_c, 0, 64, 81
1, 53653, Note_on_c, 0, 52, 91
1, 53665, Control_c, 0, 64, 102
1, 53679, Control_c, 0, 64, 103
1, 53695, Note_off_c, 0, 52, 67
1, 53774, Note_on_c, 0, 56, 90
1, 53795, Note_off_c, 0, 56, 72
1, 53873, Control_c, 0, 64, 103
1, 53885, Note_on_c, 0, 61, 108
1, 53887, Control_c, 0, 64, 127
1, 53911, Note_off_c, 0, 61, 68
1, 54659, Note_on_c, 0, 68, 103
1, 54671, Note_off_c, 0, 69, 65
1, 54716, Note_off_c, 0, 68, 65
1, 55034, Note_on_c, 0, 64, 101
1, 55098, Note_off_c, 0, 64, 57
1, 55291, Note_on_c, 0, 61, 101
1, 55427, Note_off_c, 0, 61, 61
1, 55472, Note_on_c, 0, 75, 82
1, 55509, Note_on_c, 0, 73, 17
1, 55554, Note_off_c, 0, 73, 55
1, 55560, Note_off_c, 0, 75, 60
1, 55596, Note_on_c, 0, 73, 65
1, 55663, Note_on_c, 0, 68, 73
1, 55667, Note_off_c, 0, 73, 64
1, 55699, Note_on_c, 0, 64, 71
1, 55715, Note_off_c, 0, 68, 60
1, 55724, Note_off_c, 0, 64, 66
1, 55779, Note_on_c, 0, 78, 75
1, 55831, Note_on_c, 0, 76, 74
1, 55833, Note_off_c, 0, 78, 59
1, 55882, Note_on_c, 0, 73, 70
1, 55888, Note_off_c, 0, 76, 64
1, 55915, Note_on_c, 0, 68, 87
1, 55917, Note_off_c, 0, 73, 66
1, 55956, Note_off_c, 0, 68, 61
1, 55992, Note_on_c, 0, 81, 78
1, 56014, Note_on_c, 0, 80, 82
1, 56019, Note_off_c, 0, 81, 66
1, 56075, Note_on_c, 0, 76, 72
1, 56076, Note_off_c, 0, 80, 64
1, 56097, Note_off_c, 0, 76, 71
1, 56100, Note_on_c, 0, 73, 80
1, 56126, Note_off_c, 0, 73, 64
1, 56166, Note_on_c, 0, 87, 83
1, 56223, Note_on_c, 0, 85, 81
1, 56246, Note_on_c, 0, 80, 77
1, 56248, Note_off_c, 0, 87, 63
1, 56273, Note_off_c, 0, 80, 64
1, 56278, Note_off_c, 0, 85, 65
1, 56299, Note_on_c, 0, 76, 76
1, 56314, Note_off_c, 0, 76, 70
1, 56333, Note_on_c, 0, 77, 44
1, 56354, Note_on_c, 0, 90, 83
1, 56359, Note_off_c, 0, 77, 58
1, 56406, Note_on_c, 0, 88, 82
1, 56419, Note_off_c, 0, 90, 50
1, 56445, Note_on_c, 0, 85, 67
1, 56456, Note_off_c, 0, 88, 65
1, 56472, Note_off_c, 0, 85, 64
1, 56478, Note_on_c, 0, 80, 96
1, 56516, Note_off_c, 0, 80, 65
1, 56554, Note_on_c, 0, 93, 79
1, 56576, Note_off_c, 0, 93, 69
1, 56593, Note_on_c, 0, 92, 75
1, 56624, Note_off_c, 0, 92, 64
1, 56633, Note_on_c, 0, 88, 71
1, 56652, Note_on_c, 0, 85, 80
1, 56654, Note_off_c, 0, 88, 71
1, 56680, Note_off_c, 0, 85, 63
1, 56716, Note_on_c, 0, 99, 84
1, 56780, Note_on_c, 0, 97, 72
1, 56791, Note_off_c, 0, 99, 64
1, 56794, Note_on_c, 0, 92, 72
1, 56805, Note_off_c, 0, 97, 67
1, 56848, Note_on_c, 0, 88, 73
1, 56848, Note_off_c, 0, 92, 66
1, 56884, Note_off_c, 0, 88, 64
1, 56918, Note_on_c, 0, 100, 78
1, 56958, Note_on_c, 0, 99, 79
1, 56961, Note_off_c, 0, 100, 52
1, 57014, Note_on_c, 0, 97, 73
1, 57041, Note_on_c, 0, 91, 79
1, 57041, Note_off_c, 0, 99, 65
1, 57071, Note_off_c, 0, 97, 63
1, 57083, Note_on_c, 0, 92, 82
1, 57101, Note_off_c, 0, 91, 61
1, 57123, Note_on_c, 0, 100, 94
1, 57144, Note_off_c, 0, 92, 66
1, 57166, Note_on_c, 0, 99, 78
1, 57194, Note_off_c, 0, 100, 68
1, 57199, Note_on_c, 0, 97, 81
1, 57233, Note_on_c, 0, 91, 85
1, 57249, Note_off_c, 0, 99, 65
1, 57262, Note_off_c, 0, 97, 67
1, 57271, Note_on_c, 0, 92, 82
1, 57301, Note_off_c, 0, 91, 59
1, 57310, Note_on_c, 0, 100, 94
1, 57334, Note_off_c, 0, 92, 66
1, 57353, Note_on_c, 0, 99, 87
1, 57384, Note_off_c, 0, 100, 68
1, 57391, Note_on_c, 0, 97, 81
1, 57418, Note_on_c, 0, 91, 87
1, 57435, Note_off_c, 0, 99, 65
1, 57453, Note_on_c, 0, 92, 80
1, 57454, Note_off_c, 0, 97, 66
1, 57482, Note_off_c, 0, 91, 62
1, 57494, Note_on_c, 0, 100, 92
1, 57520, Note_off_c, 0, 92, 65
1, 57536, Note_on_c, 0, 99, 86
1, 57572, Note_on_c, 0, 97, 82
1, 57576, Note_off_c, 0, 100, 69
1, 57607, Note_on_c, 0, 91, 85
1, 57620, Note_off_c, 0, 99, 66
1, 57635, Note_off_c, 0, 97, 67
1, 57641, Note_on_c, 0, 92, 83
1, 57670, Note_off_c, 0, 91, 59
1, 57676, Note_on_c, 0, 100, 91
1, 57717, Note_off_c, 0, 92, 63
1, 57734, Note_on_c, 0, 99, 86
1, 57772, Note_on_c, 0, 97, 82
1, 57773, Note_off_c, 0, 100, 68
1, 57798, Note_on_c, 0, 91, 84
1, 57816, Note_off_c, 0, 99, 65
1, 57838, Note_on_c, 0, 92, 82
1, 57840, Note_off_c, 0, 97, 66
1, 57870, Note_off_c, 0, 91, 57
1, 57873, Note_on_c, 0, 100, 97
1, 57906, Note_off_c, 0, 92, 65
1, 57923, Note_on_c, 0, 99, 83
1, 57959, Note_on_c, 0, 97, 90
1, 57965, Note_off_c, 0, 100, 69
1, 57993, Note_on_c, 0, 91, 84
1, 58009, Control_c, 0, 64, 96
1, 58015, Note_off_c, 0, 99, 64
1, 58024, Control_c, 0, 64, 64
1, 58033, Note_off_c, 0, 97, 67
1, 58034, Note_on_c, 0, 92, 83
1, 58040, Control_c, 0, 64, 61
1, 58055, Control_c, 0, 64, 67
1, 58062, Note_on_c, 0, 100, 92
1, 58067, Note_off_c, 0, 91, 59
1, 58070, Control_c, 0, 64, 71
1, 58084, Control_c, 0, 64, 66
1, 58097, Note_off_c, 0, 92, 66
1, 58099, Control_c, 0, 64, 56
1, 58114, Note_on_c, 0, 99, 83
1, 58114, Control_c, 0, 64, 28
1, 58129, Control_c, 0, 64, 0
1, 58152, Note_on_c, 0, 97, 85
1, 58159, Note_off_c, 0, 100, 67
1, 58181, Note_on_c, 0, 91, 83
1, 58201, Note_off_c, 0, 99, 65
1, 58218, Note_on_c, 0, 92, 82
1, 58220, Note_off_c, 0, 97, 66
1, 58232, Control_c, 0, 64, 14
1, 58247, Control_c, 0, 64, 47
1, 58251, Note_off_c, 0, 91, 58
1, 58254, Note_on_c, 0, 100, 93
1, 58262, Control_c, 0, 64, 61
1, 58276, Control_c, 0, 64, 74
1, 58289, Note_off_c, 0, 92, 65
1, 58291, Control_c, 0, 64, 88
1, 58306, Control_c, 0, 64, 109
1, 58309, Note_on_c, 0, 99, 87
1, 58321, Control_c, 0, 64, 127
1, 58345, Note_on_c, 0, 97, 84
1, 58348, Note_off_c, 0, 100, 68
1, 58389, Note_on_c, 0, 91, 84
1, 58404, Note_off_c, 0, 99, 65
1, 58416, Note_on_c, 0, 92, 83
1, 58417, Note_off_c, 0, 97, 67
1, 58457, Note_off_c, 0, 91, 59
1, 58463, Note_on_c, 0, 100, 96
1, 58495, Note_off_c, 0, 92, 62
1, 58517, Note_on_c, 0, 99, 77
1, 58551, Note_on_c, 0, 97, 84
1, 58566, Note_off_c, 0, 100, 68
1, 58580, Note_on_c, 0, 92, 87
1, 58593, Note_on_c, 0, 91, 82
1, 58601, Note_off_c, 0, 99, 65
1, 58613, Note_off_c, 0, 97, 65
1, 58636, Note_on_c, 0, 39, 90
1, 58638, Control_c, 0, 64, 68
1, 58646, Note_on_c, 0, 100, 96
1, 58653, Control_c, 0, 64, 0
1, 58654, Note_off_c, 0, 91, 61
1, 58656, Note_off_c, 0, 92, 65
1, 58721, Note_on_c, 0, 99, 74
1, 58756, Control_c, 0, 64, 24
1, 58760, Note_off_c, 0, 100, 66
1, 58764, Note_on_c, 0, 97, 82
1, 58771, Control_c, 0, 64, 44
1, 58786, Control_c, 0, 64, 62
1, 58788, Note_off_c, 0, 39, 63
1, 58790, Note_on_c, 0, 46, 75
1, 58800, Control_c, 0, 64, 127
1, 58803, Note_on_c, 0, 93, 85
1, 58823, Note_off_c, 0, 99, 64
1, 58842, Note_on_c, 0, 94, 81
1, 58856, Note_off_c, 0, 97, 65
1, 58866, Note_on_c, 0, 49, 72
1, 58869, Note_off_c, 0, 46, 63
1, 58870, Note_off_c, 0, 93, 65
1, 58894, Note_on_c, 0, 100, 91
1, 58921, Note_off_c, 0, 94, 66
1, 58929, Note_on_c, 0, 55, 72
1, 58935, Note_on_c, 0, 99, 80
1, 58939, Note_off_c, 0, 49, 65
1, 58976, Note_on_c, 0, 97, 82
1, 58979, Note_off_c, 0, 100, 68
1, 58992, Note_off_c, 0, 55, 64
1, 59016, Note_on_c, 0, 93, 87
1, 59036, Note_on_c, 0, 94, 86
1, 59037, Note_off_c, 0, 99, 65
1, 59041, Note_on_c, 0, 58, 71
1, 59066, Note_off_c, 0, 97, 65
1, 59080, Note_off_c, 0, 93, 60
1, 59089, Note_on_c, 0, 100, 92
1, 59120, Note_off_c, 0, 94, 65
1, 59122, Note_off_c, 0, 58, 60
1, 59132, Note_on_c, 0, 61, 69
1, 59142, Note_on_c, 0, 99, 79
1, 59175, Note_on_c, 0, 97, 85
1, 59178, Note_off_c, 0, 100, 67
1, 59209, Note_on_c, 0, 93, 81
1, 59229, Note_off_c, 0, 61, 63
1, 59236, Note_off_c, 0, 99, 65
1, 59237, Note_on_c, 0, 94, 84
1, 59246, Note_on_c, 0, 67, 70
1, 59260, Note_off_c, 0, 97, 67
1, 59277, Note_off_c, 0, 93, 61
1, 59283, Note_on_c, 0, 101, 93
1, 59298, Note_off_c, 0, 67, 61
1, 59308, Note_off_c, 0, 94, 64
1, 59332, Note_on_c, 0, 99, 84
1, 59353, Note_on_c, 0, 70, 61
1, 59362, Note_on_c, 0, 97, 90
1, 59374, Note_off_c, 0, 101, 66
1, 59402, Note_on_c, 0, 93, 83
1, 59421, Note_off_c, 0, 70, 57
1, 59424, Note_off_c, 0, 99, 64
1, 59427, Note_on_c, 0, 94, 81
1, 59441, Note_on_c, 0, 73, 59
1, 59444, Note_off_c, 0, 97, 65
1, 59470, Note_off_c, 0, 93, 59
1, 59475, Note_on_c, 0, 101, 94
1, 59501, Note_off_c, 0, 94, 67
1, 59508, Note_off_c, 0, 73, 64
1, 59518, Note_on_c, 0, 99, 72
1, 59547, Note_on_c, 0, 79, 67
1, 59552, Note_on_c, 0, 97, 86
1, 59563, Note_off_c, 0, 101, 63
1, 59581, Note_off_c, 0, 79, 57
1, 59587, Note_on_c, 0, 93, 75
1, 59600, Note_off_c, 0, 99, 65
1, 59631, Note_on_c, 0, 94, 82
1, 59632, Note_off_c, 0, 97, 65
1, 59650, Note_on_c, 0, 82, 59
1, 59658, Note_off_c, 0, 93, 63
1, 59671, Note_on_c, 0, 101, 83
1, 59685, Note_off_c, 0, 82, 59
1, 59696, Note_off_c, 0, 94, 66
1, 59714, Note_on_c, 0, 99, 79
1, 59734, Note_on_c, 0, 85, 55
1, 59746, Note_on_c, 0, 97, 80
1, 59753, Note_off_c, 0, 101, 67
1, 59759, Note_off_c, 0, 85, 59
1, 59781, Note_on_c, 0, 93, 74
1, 59799, Note_off_c, 0, 99, 61
1, 59819, Note_on_c, 0, 94, 80
1, 59834, Note_off_c, 0, 97, 64
1, 59848, Note_off_c, 0, 93, 61
1, 59866, Note_on_c, 0, 91, 64
1, 59869, Note_on_c, 0, 101, 83
1, 59884, Note_off_c, 0, 91, 61
1, 59891, Note_off_c, 0, 94, 64
1, 59921, Note_on_c, 0, 99, 72
1, 59963, Note_on_c, 0, 97, 73
1, 59967, Note_off_c, 0, 101, 64
1, 60015, Note_on_c, 0, 93, 69
1, 60035, Note_off_c, 0, 99, 62
1, 60057, Note_off_c, 0, 97, 59
1, 60066, Note_on_c, 0, 94, 64
1, 60082, Note_off_c, 0, 93, 55
1, 60115, Note_on_c, 0, 101, 75
1, 60133, Note_off_c, 0, 94, 62
1, 60168, Note_on_c, 0, 99, 58
1, 60199, Note_off_c, 0, 101, 64
1, 60206, Note_on_c, 0, 97, 68
1, 60255, Note_off_c, 0, 99, 54
1, 60260, Note_on_c, 0, 93, 68
1, 60279, Note_off_c, 0, 97, 58
1, 60318, Note_on_c, 0, 94, 64
1, 60333, Note_off_c, 0, 93, 60
1, 60384, Note_on_c, 0, 101, 77
1, 60398, Note_off_c, 0, 94, 63
1, 60449, Note_on_c, 0, 99, 69
1, 60471, Note_off_c, 0, 101, 62
1, 60506, Note_on_c, 0, 97, 63
1, 60551, Note_off_c, 0, 99, 53
1, 60571, Note_on_c, 0, 93, 64
1, 60586, Note_off_c, 0, 97, 55
1, 60626, Control_c, 0, 67, 9
1, 60637, Note_on_c, 0, 94, 64
1, 60641, Control_c, 0, 67, 10
1, 60656, Control_c, 0, 67, 12
1, 60663, Note_off_c, 0, 93, 59
1, 60670, Control_c, 0, 67, 15
1, 60685, Control_c, 0, 67, 18
1, 60708, Control_c, 0, 67, 23
1, 60723, Control_c, 0, 67, 28
1, 60725, Note_on_c, 0, 101, 75
1, 60732, Note_off_c, 0, 94, 65
1, 60738, Control_c, 0, 67, 32
1, 60752, Control_c, 0, 67, 35
1, 60767, Control_c, 0, 67, 38
1, 60777, Note_on_c, 0, 99, 54
1, 60782, Control_c, 0, 67, 40
1, 60794, Note_on_c, 0, 97, 69
1, 60797, Note_off_c, 0, 101, 62
1, 60797, Control_c, 0, 67, 41
1, 60812, Control_c, 0, 67, 42
1, 60826, Control_c, 0, 67, 42
1, 60838, Note_off_c, 0, 99, 61
1, 60844, Note_on_c, 0, 93, 63
1, 60853, Note_off_c, 0, 97, 64
1, 60874, Note_on_c, 0, 94, 61
1, 60902, Note_off_c, 0, 93, 59
1, 60915, Control_c, 0, 67, 43
1, 60916, Note_off_c, 0, 94, 66
1, 60924, Note_on_c, 0, 97, 68
1, 60930, Control_c, 0, 67, 43
1, 60945, Control_c, 0, 67, 44
1, 60959, Control_c, 0, 67, 45
1, 60966, Note_off_c, 0, 97, 67
1, 60974, Note_on_c, 0, 96, 69
1, 60974, Control_c, 0, 67, 46
1, 60989, Control_c, 0, 67, 49
1, 61004, Control_c, 0, 67, 55
1, 61019, Note_on_c, 0, 94, 68
1, 61019, Control_c, 0, 67, 61
1, 61026, Note_off_c, 0, 96, 63
1, 61033, Control_c, 0, 67, 63
1, 61051, Note_off_c, 0, 94, 66
1, 61064, Note_on_c, 0, 91, 57
1, 61078, Control_c, 0, 67, 64
1, 61092, Control_c, 0, 67, 66
1, 61107, Control_c, 0, 67, 71
1, 61122, Control_c, 0, 67, 77
1, 61136, Note_off_c, 0, 91, 60
1, 61137, Control_c, 0, 67, 81
1, 61152, Control_c, 0, 67, 86
1, 61167, Note_on_c, 0, 95, 35
1, 61167, Control_c, 0, 67, 91
1, 61180, Note_on_c, 0, 93, 65
1, 61182, Control_c, 0, 67, 98
1, 61196, Control_c, 0, 67, 107
1, 61203, Note_on_c, 0, 91, 67
1, 61203, Note_off_c, 0, 95, 52
1, 61209, Note_off_c, 0, 93, 62
1, 61211, Control_c, 0, 67, 116
1, 61227, Control_c, 0, 67, 125
1, 61241, Control_c, 0, 67, 127
1, 61244, Note_off_c, 0, 91, 58
1, 61256, Note_on_c, 0, 86, 75
1, 61301, Note_on_c, 0, 87, 75
1, 61306, Note_off_c, 0, 86, 60
1, 61344, Note_on_c, 0, 91, 74
1, 61347, Note_off_c, 0, 87, 62
1, 61397, Note_off_c, 0, 91, 59
1, 61400, Note_on_c, 0, 89, 76
1, 61441, Note_on_c, 0, 87, 73
1, 61471, Note_off_c, 0, 89, 62
1, 61474, Note_on_c, 0, 84, 69
1, 61516, Control_c, 0, 67, 126
1, 61518, Note_off_c, 0, 87, 66
1, 61526, Note_on_c, 0, 85, 75
1, 61531, Control_c, 0, 67, 125
1, 61531, Note_off_c, 0, 84, 61
1, 61546, Control_c, 0, 67, 125
1, 61557, Note_on_c, 0, 89, 62
1, 61560, Control_c, 0, 67, 124
1, 61567, Note_off_c, 0, 85, 60
1, 61574, Control_c, 0, 67, 123
1, 61585, Note_off_c, 0, 89, 67
1, 61586, Note_on_c, 0, 87, 73
1, 61589, Control_c, 0, 67, 121
1, 61604, Control_c, 0, 67, 118
1, 61617, Note_on_c, 0, 85, 52
1, 61619, Control_c, 0, 67, 114
1, 61633, Control_c, 0, 67, 106
1, 61637, Note_off_c, 0, 87, 65
1, 61647, Note_off_c, 0, 85, 67
1, 61648, Control_c, 0, 67, 87
1, 61650, Note_on_c, 0, 82, 84
1, 61663, Control_c, 0, 67, 54
1, 61678, Control_c, 0, 67, 16
1, 61682, Note_on_c, 0, 81, 67
1, 61693, Control_c, 0, 67, 0
1, 61696, Note_off_c, 0, 82, 61
1, 61725, Note_on_c, 0, 85, 74
1, 61736, Note_off_c, 0, 81, 63
1, 61759, Note_off_c, 0, 85, 61
1, 61779, Note_on_c, 0, 84, 57
1, 61817, Note_on_c, 0, 78, 87
1, 61820, Note_off_c, 0, 84, 57
1, 61836, Note_on_c, 0, 81, 36
1, 61861, Note_off_c, 0, 78, 68
1, 61869, Note_on_c, 0, 79, 77
1, 61870, Note_off_c, 0, 81, 55
1, 61894, Note_off_c, 0, 79, 64
1, 61915, Control_c, 0, 67, 12
1, 61924, Note_on_c, 0, 82, 54
1, 61930, Control_c, 0, 67, 18
1, 61939, Note_on_c, 0, 80, 68
1, 61945, Control_c, 0, 67, 25
1, 61948, Note_off_c, 0, 82, 61
1, 61956, Note_off_c, 0, 80, 65
1, 61960, Control_c, 0, 67, 33
1, 61974, Control_c, 0, 67, 42
1, 61976, Note_on_c, 0, 79, 56
1, 61989, Control_c, 0, 67, 51
1, 62004, Control_c, 0, 67, 59
1, 62019, Control_c, 0, 67, 64
1, 62027, Note_off_c, 0, 79, 61
1, 62034, Control_c, 0, 64, 79
1, 62034, Control_c, 0, 67, 69
1, 62037, Note_on_c, 0, 74, 72
1, 62049, Control_c, 0, 64, 59
1, 62049, Control_c, 0, 67, 75
1, 62064, Control_c, 0, 64, 49
1, 62064, Control_c, 0, 67, 83
1, 62079, Control_c, 0, 64, 50
1, 62079, Control_c, 0, 67, 91
1, 62083, Note_on_c, 0, 75, 75
1, 62083, Note_off_c, 0, 74, 63
1, 62094, Control_c, 0, 64, 59
1, 62094, Control_c, 0, 67, 100
1, 62109, Control_c, 0, 64, 71
1, 62109, Control_c, 0, 67, 109
1, 62123, Control_c, 0, 64, 127
1, 62123, Control_c, 0, 67, 121
1, 62131, Note_on_c, 0, 79, 76
1, 62135, Note_off_c, 0, 75, 62
1, 62138, Control_c, 0, 67, 127
1, 62179, Note_on_c, 0, 77, 67
1, 62183, Note_off_c, 0, 79, 58
1, 62204, Control_c, 0, 64, 79
1, 62219, Control_c, 0, 64, 65
1, 62231, Note_on_c, 0, 75, 78
1, 62234, Control_c, 0, 64, 61
1, 62249, Control_c, 0, 64, 63
1, 62253, Note_off_c, 0, 77, 59
1, 62255, Note_on_c, 0, 72, 66
1, 62264, Control_c, 0, 64, 66
1, 62279, Control_c, 0, 64, 74
1, 62294, Control_c, 0, 64, 85
1, 62294, Note_off_c, 0, 75, 62
1, 62309, Control_c, 0, 64, 99
1, 62312, Note_on_c, 0, 73, 71
1, 62317, Note_off_c, 0, 72, 61
1, 62324, Control_c, 0, 64, 103
1, 62332, Note_on_c, 0, 77, 61
1, 62338, Control_c, 0, 64, 102
1, 62345, Note_off_c, 0, 73, 57
1, 62365, Note_off_c, 0, 77, 63
1, 62368, Control_c, 0, 64, 100
1, 62383, Control_c, 0, 64, 99
1, 62392, Note_on_c, 0, 73, 61
1, 62398, Control_c, 0, 64, 97
1, 62413, Control_c, 0, 64, 95
1, 62428, Control_c, 0, 64, 94
1, 62434, Note_off_c, 0, 73, 63
1, 62443, Control_c, 0, 64, 93
1, 62451, Poly_aftertouch_c, 0, 76, 127
1, 62455, Note_on_c, 0, 69, 69
1, 62482, Poly_aftertouch_c, 0, 76, 0
1, 62527, Note_off_c, 0, 69, 64
1, 62550, Note_on_c, 0, 72, 62
1, 62576, Control_c, 0, 64, 93
1, 62598, Note_on_c, 0, 70, 66
1, 62607, Note_off_c, 0, 72, 60
1, 62614, Note_on_c, 0, 66, 77
1, 62620, Control_c, 0, 64, 92
1, 62624, Note_off_c, 0, 70, 67
1, 62667, Note_off_c, 0, 66, 61
1, 62669, Note_on_c, 0, 67, 67
1, 62702, Note_on_c, 0, 70, 76
1, 62709, Note_off_c, 0, 67, 60
1, 62723, Control_c, 0, 64, 92
1, 62738, Control_c, 0, 64, 91
1, 62743, Note_on_c, 0, 68, 66
1, 62749, Note_off_c, 0, 70, 62
1, 62753, Control_c, 0, 64, 91
1, 62768, Note_off_c, 0, 68, 65
1, 62768, Control_c, 0, 64, 90
1, 62783, Control_c, 0, 64, 89
1, 62795, Note_on_c, 0, 67, 80
1, 62797, Control_c, 0, 64, 89
1, 62827, Note_off_c, 0, 67, 66
1, 62842, Note_on_c, 0, 62, 73
1, 62872, Control_c, 0, 64, 88
1, 62881, Note_on_c, 0, 63, 70
1, 62886, Note_off_c, 0, 62, 61
1, 62887, Control_c, 0, 64, 84
1, 62902, Control_c, 0, 64, 69
1, 62903, Note_off_c, 0, 63, 69
1, 62917, Control_c, 0, 64, 57
1, 62922, Note_on_c, 0, 67, 82
1, 62932, Control_c, 0, 64, 31
1, 62954, Control_c, 0, 64, 0
1, 62966, Note_off_c, 0, 67, 70
1, 62970, Note_on_c, 0, 65, 71
1, 62999, Control_c, 0, 67, 104
1, 63014, Control_c, 0, 67, 54
1, 63015, Note_on_c, 0, 64, 77
1, 63021, Note_off_c, 0, 65, 62
1, 63028, Control_c, 0, 67, 0
1, 63037, Note_on_c, 0, 62, 66
1, 63062, Note_off_c, 0, 64, 61
1, 63102, Note_on_c, 0, 63, 73
1, 63107, Note_off_c, 0, 62, 63
1, 63146, Note_off_c, 0, 63, 62
1, 63149, Note_on_c, 0, 67, 58
1, 63180, Note_off_c, 0, 67, 67
1, 63193, Note_on_c, 0, 65, 60
1, 63226, Note_off_c, 0, 65, 65
1, 63237, Note_on_c, 0, 64, 61
1, 63283, Note_on_c, 0, 62, 55
1, 63283, Note_off_c, 0, 64, 61
1, 63342, Note_off_c, 0, 62, 59
1, 63346, Note_on_c, 0, 63, 58
1, 63369, Control_c, 0, 67, 10
1, 63384, Control_c, 0, 67, 16
1, 63394, Note_off_c, 0, 63, 62
1, 63398, Control_c, 0, 67, 22
1, 63400, Note_on_c, 0, 67, 59
1, 63413, Control_c, 0, 67, 31
1, 63428, Control_c, 0, 67, 41
1, 63439, Note_off_c, 0, 67, 63
1, 63443, Control_c, 0, 67, 55
1, 63458, Control_c, 0, 67, 67
1, 63472, Control_c, 0, 67, 80
1, 63473, Note_on_c, 0, 65, 47
1, 63487, Control_c, 0, 67, 93
1, 63500, Note_off_c, 0, 65, 59
1, 63502, Control_c, 0, 67, 105
1, 63517, Control_c, 0, 67, 117
1, 63519, Note_on_c, 0, 64, 56
1, 63532, Control_c, 0, 67, 127
1, 63562, Note_off_c, 0, 64, 62
1, 63579, Note_on_c, 0, 62, 53
1, 63632, Note_off_c, 0, 62, 59
1, 63639, Note_on_c, 0, 63, 55
1, 63715, Note_off_c, 0, 63, 61
1, 63724, Note_on_c, 0, 67, 62
1, 63765, Note_off_c, 0, 67, 62
1, 63799, Note_on_c, 0, 65, 49
1, 63836, Note_off_c, 0, 65, 59
1, 63847, Note_on_c, 0, 64, 60
1, 63903, Note_off_c, 0, 64, 58
1, 63908, Note_on_c, 0, 62, 56
1, 63969, Note_off_c, 0, 62, 60
1, 63981, Note_on_c, 0, 63, 62
1, 64058, Note_off_c, 0, 63, 61
1, 64088, Control_c, 0, 64, 19
1, 64103, Control_c, 0, 64, 29
1, 64118, Control_c, 0, 64, 39
1, 64123, Note_on_c, 0, 67, 48
1, 64133, Control_c, 0, 64, 52
1, 64148, Control_c, 0, 64, 65
1, 64163, Control_c, 0, 64, 85
1, 64177, Control_c, 0, 64, 127
1, 64215, Note_off_c, 0, 67, 38
1, 64222, Note_on_c, 0, 70, 55
1, 64288, Note_on_c, 0, 73, 56
1, 64295, Control_c, 0, 67, 127
1, 64297, Note_off_c, 0, 70, 62
1, 64310, Control_c, 0, 67, 121
1, 64318, Note_off_c, 0, 73, 66
1, 64325, Control_c, 0, 67, 112
1, 64340, Control_c, 0, 67, 98
1, 64341, Note_on_c, 0, 75, 25
1, 64355, Control_c, 0, 67, 84
1, 64369, Control_c, 0, 67, 68
1, 64383, Note_off_c, 0, 75, 49
1, 64384, Control_c, 0, 67, 51
1, 64394, Note_on_c, 0, 79, 57
1, 64399, Control_c, 0, 67, 32
1, 64415, Control_c, 0, 67, 15
1, 64426, Note_off_c, 0, 79, 50
1, 64430, Control_c, 0, 67, 0
1, 64459, Note_on_c, 0, 82, 68
1, 64523, Note_on_c, 0, 85, 54
1, 64538, Note_off_c, 0, 82, 57
1, 64551, Note_off_c, 0, 85, 63
1, 64568, Note_on_c, 0, 89, 74
1, 64589, Note_off_c, 0, 89, 71
1, 64914, Note_on_c, 0, 63, 50
1, 64954, Note_off_c, 0, 63, 63
1, 64963, Note_on_c, 0, 70, 62
1, 64999, Note_off_c, 0, 70, 57
1, 65006, Note_on_c, 0, 73, 58
1, 65038, Note_off_c, 0, 73, 65
1, 65063, Note_on_c, 0, 79, 67
1, 65081, Note_off_c, 0, 79, 66
1, 65306, Note_on_c, 0, 87, 68
1, 65536, Note_off_c, 0, 87, 35
1, 65643, Note_on_c, 0, 81, 65
1, 66286, Note_off_c, 0, 81, 50
1, 66333, Note_on_c, 0, 82, 53
1, 66394, Note_off_c, 0, 82, 61
1, 67128, Control_c, 0, 64, 91
1, 67143, Control_c, 0, 64, 72
1, 67158, Control_c, 0, 64, 62
1, 67173, Control_c, 0, 64, 52
1, 67187, Control_c, 0, 64, 36
1, 67202, Control_c, 0, 64, 0
1, 67291, Control_c, 0, 67, 9
1, 67306, Control_c, 0, 67, 14
1, 67320, Control_c, 0, 67, 19
1, 67335, Control_c, 0, 67, 27
1, 67350, Control_c, 0, 67, 38
1, 67365, Control_c, 0, 67, 54
1, 67380, Control_c, 0, 67, 65
1, 67394, Control_c, 0, 67, 75
1, 67409, Control_c, 0, 67, 82
1, 67424, Control_c, 0, 67, 86
1, 67446, Control_c, 0, 67, 88
1, 67506, Control_c, 0, 67, 87
1, 67520, Control_c, 0, 67, 86
1, 67535, Control_c, 0, 67, 85
1, 67550, Control_c, 0, 67, 84
1, 67551, Note_on_c, 0, 62, 56
1, 67564, Control_c, 0, 67, 83
1, 67579, Control_c, 0, 67, 81
1, 67594, Control_c, 0, 67, 80
1, 67609, Control_c, 0, 67, 79
1, 67625, Control_c, 0, 67, 78
1, 67640, Control_c, 0, 67, 78
1, 67655, Control_c, 0, 67, 77
1, 67669, Control_c, 0, 67, 75
1, 67684, Control_c, 0, 64, 22
1, 67684, Control_c, 0, 67, 74
1, 67692, Note_off_c, 0, 62, 61
1, 67699, Control_c, 0, 64, 32
1, 67699, Control_c, 0, 67, 71
1, 67702, Note_on_c, 0, 63, 62
1, 67714, Control_c, 0, 64, 41
1, 67714, Control_c, 0, 67, 67
1, 67729, Control_c, 0, 64, 51
1, 67729, Control_c, 0, 67, 60
1, 67743, Control_c, 0, 64, 61
1, 67743, Control_c, 0, 67, 51
1, 67753, Note_off_c, 0, 63, 65
1, 67758, Control_c, 0, 64, 69
1, 67758, Control_c, 0, 67, 39
1, 67773, Control_c, 0, 64, 75
1, 67773, Control_c, 0, 67, 25
1, 67788, Control_c, 0, 64, 76
1, 67788, Control_c, 0, 67, 11
1, 67794, Note_on_c, 0, 67, 69
1, 67802, Control_c, 0, 67, 0
1, 67817, Control_c, 0, 64, 77
1, 67847, Control_c, 0, 64, 77
1, 67862, Control_c, 0, 64, 78
1, 67870, Note_off_c, 0, 67, 64
1, 67872, Note_on_c, 0, 71, 72
1, 67877, Control_c, 0, 64, 78
1, 67892, Control_c, 0, 64, 79
1, 67907, Control_c, 0, 64, 79
1, 67925, Note_on_c, 0, 73, 68
1, 67934, Note_off_c, 0, 71, 64
1, 67936, Control_c, 0, 64, 80
1, 67951, Control_c, 0, 64, 80
1, 67966, Control_c, 0, 64, 81
1, 67971, Note_on_c, 0, 75, 72
1, 67981, Control_c, 0, 64, 83
1, 67984, Note_off_c, 0, 73, 64
1, 67995, Control_c, 0, 64, 86
1, 67996, Note_off_c, 0, 75, 67
1, 68010, Control_c, 0, 64, 93
1, 68025, Control_c, 0, 64, 127
1, 68047, Note_on_c, 0, 79, 71
1, 68103, Note_on_c, 0, 83, 72
1, 68109, Note_off_c, 0, 79, 60
1, 68156, Note_on_c, 0, 85, 70
1, 68175, Note_off_c, 0, 83, 58
1, 68218, Note_on_c, 0, 89, 88
1, 68222, Note_off_c, 0, 85, 65
1, 68254, Note_off_c, 0, 89, 64
1, 68989, Control_c, 0, 67, 8
1, 68995, Note_on_c, 0, 63, 54
1, 69048, Control_c, 0, 67, 0
1, 69057, Note_off_c, 0, 63, 49
1, 69067, Note_on_c, 0, 71, 53
1, 69117, Note_on_c, 0, 73, 59
1, 69124, Note_off_c, 0, 71, 63
1, 69153, Note_off_c, 0, 73, 64
1, 69176, Note_on_c, 0, 79, 77
1, 69203, Note_off_c, 0, 79, 66
1, 69692, Note_on_c, 0, 87, 68
1, 70329, Note_on_c, 0, 82, 58
1, 70359, Note_off_c, 0, 87, 58
1, 72010, Note_off_c, 0, 82, 45
1, 72208, Note_on_c, 0, 83, 37
1, 72280, Note_off_c, 0, 83, 51
1, 73147, Control_c, 0, 64, 122
1, 73162, Control_c, 0, 64, 119
1, 73176, Control_c, 0, 64, 117
1, 73207, Control_c, 0, 64, 115
1, 73252, Control_c, 0, 64, 114
1, 73281, Control_c, 0, 64, 113
1, 73296, Control_c, 0, 64, 111
1, 73311, Control_c, 0, 64, 110
1, 73326, Control_c, 0, 64, 109
1, 73341, Control_c, 0, 64, 108
1, 73355, Control_c, 0, 64, 106
1, 73370, Control_c, 0, 64, 105
1, 73385, Control_c, 0, 64, 103
1, 73399, Control_c, 0, 64, 101
1, 73414, Control_c, 0, 64, 100
1, 73436, Control_c, 0, 64, 98
1, 73451, Control_c, 0, 64, 94
1, 73466, Control_c, 0, 64, 90
1, 73481, Control_c, 0, 64, 86
1, 73496, Control_c, 0, 64, 83
1, 73511, Control_c, 0, 64, 80
1, 73526, Control_c, 0, 64, 78
1, 73541, Control_c, 0, 64, 76
1, 73555, Control_c, 0, 64, 74
1, 73570, Control_c, 0, 64, 74
1, 73585, Control_c, 0, 64, 73
1, 73600, Control_c, 0, 64, 72
1, 73614, Control_c, 0, 64, 71
1, 73629, Control_c, 0, 64, 70
1, 73644, Control_c, 0, 64, 68
1, 73659, Control_c, 0, 64, 67
1, 73674, Control_c, 0, 64, 66
1, 73688, Control_c, 0, 64, 66
1, 73703, Control_c, 0, 64, 65
1, 73718, Control_c, 0, 64, 64
1, 73732, Control_c, 0, 64, 63
1, 73747, Control_c, 0, 64, 63
1, 73762, Control_c, 0, 64, 62
1, 73777, Control_c, 0, 64, 61
1, 73792, Control_c, 0, 64, 60
1, 73806, Control_c, 0, 64, 59
1, 73821, Control_c, 0, 64, 57
1, 73836, Control_c, 0, 64, 55
1, 73851, Control_c, 0, 64, 53
1, 73866, Control_c, 0, 64, 51
1, 73880, Control_c, 0, 64, 49
1, 73895, Control_c, 0, 64, 47
1, 73910, Control_c, 0, 64, 46
1, 73925, Control_c, 0, 64, 46
1, 73940, Control_c, 0, 64, 45
1, 73955, Control_c, 0, 64, 45
1, 73985, Control_c, 0, 64, 44
1, 74000, Control_c, 0, 64, 43
1, 74015, Control_c, 0, 64, 42
1, 74030, Control_c, 0, 64, 42
1, 74044, Control_c, 0, 64, 41
1, 74059, Control_c, 0, 64, 40
1, 74074, Control_c, 0, 64, 38
1, 74089, Control_c, 0, 64, 37
1, 74104, Control_c, 0, 64, 36
1, 74119, Control_c, 0, 64, 35
1, 74134, Control_c, 0, 64, 34
1, 74148, Control_c, 0, 64, 32
1, 74163, Control_c, 0, 64, 31
1, 74185, Control_c, 0, 64, 29
1, 74200, Control_c, 0, 64, 28
1, 74215, Control_c, 0, 64, 27
1, 74229, Control_c, 0, 64, 26
1, 74244, Control_c, 0, 64, 25
1, 74259, Control_c, 0, 64, 24
1, 74274, Control_c, 0, 64, 23
1, 74289, Control_c, 0, 64, 22
1, 74304, Control_c, 0, 64, 20
1, 74319, Control_c, 0, 64, 18
1, 74334, Control_c, 0, 64, 16
1, 74348, Control_c, 0, 64, 12
1, 74363, Control_c, 0, 64, 0
1, 74823, Control_c, 0, 64, 8
1, 74838, Control_c, 0, 64, 10
1, 74852, Control_c, 0, 64, 11
1, 74867, Control_c, 0, 64, 12
1, 74882, Control_c, 0, 64, 13
1, 74897, Control_c, 0, 64, 14
1, 74912, Control_c, 0, 64, 14
1, 74949, Control_c, 0, 64, 15
1, 74978, Control_c, 0, 64, 16
1, 75023, Control_c, 0, 64, 16
1, 75097, Control_c, 0, 64, 17
1, 75305, Control_c, 0, 64, 17
1, 75349, Control_c, 0, 64, 18
1, 76290, Control_c, 0, 64, 18
1, 76305, Control_c, 0, 64, 20
1, 76319, Control_c, 0, 64, 22
1, 76334, Control_c, 0, 64, 25
1, 76349, Control_c, 0, 64, 28
1, 76364, Control_c, 0, 64, 31
1, 76379, Control_c, 0, 64, 34
1, 76395, Control_c, 0, 64, 38
1, 76410, Control_c, 0, 64, 42
1, 76432, Control_c, 0, 64, 46
1, 76447, Control_c, 0, 64, 51
1, 76462, Control_c, 0, 64, 55
1, 76477, Control_c, 0, 64, 57
1, 76492, Control_c, 0, 64, 59
1, 76506, Control_c, 0, 64, 59
1, 76624, Control_c, 0, 64, 59
1, 76669, Control_c, 0, 64, 59
1, 76698, Control_c, 0, 64, 60
1, 76704, Note_on_c, 0, 75, 36
1, 76713, Control_c, 0, 64, 61
1, 76728, Control_c, 0, 64, 63
1, 76743, Control_c, 0, 64, 65
1, 76744, Note_off_c, 0, 75, 51
1, 76757, Control_c, 0, 64, 67
1, 76772, Control_c, 0, 64, 69
1, 76787, Control_c, 0, 64, 73
1, 76802, Control_c, 0, 64, 79
1, 76817, Control_c, 0, 64, 88
1, 76832, Control_c, 0, 64, 103
1, 76846, Control_c, 0, 64, 127
1, 77039, Control_c, 0, 64, 117
1, 77054, Control_c, 0, 64, 98
1, 77069, Control_c, 0, 64, 83
1, 77084, Control_c, 0, 64, 73
1, 77085, Note_on_c, 0, 75, 44
1, 77098, Control_c, 0, 64, 65
1, 77113, Control_c, 0, 64, 59
1, 77128, Control_c, 0, 64, 49
1, 77142, Control_c, 0, 64, 36
1, 77157, Control_c, 0, 64, 24
1, 77180, Control_c, 0, 64, 15
1, 77195, Control_c, 0, 64, 0
1, 77238, Note_off_c, 0, 75, 55
1, 77251, Note_on_c, 0, 77, 54
1, 77349, Note_off_c, 0, 77, 61
1, 77351, Note_on_c, 0, 75, 60
1, 77443, Note_off_c, 0, 75, 60
1, 77452, Note_on_c, 0, 74, 52
1, 77542, Note_off_c, 0, 74, 59
1, 77556, Note_on_c, 0, 75, 33
1, 77740, Note_on_c, 0, 84, 50
1, 77794, Note_off_c, 0, 75, 39
1, 78253, Note_on_c, 0, 79, 30
1, 78271, Note_off_c, 0, 84, 42
1, 78389, Control_c, 0, 67, 10
1, 78403, Control_c, 0, 67, 14
1, 78418, Control_c, 0, 67, 19
1, 78433, Control_c, 0, 67, 23
1, 78448, Control_c, 0, 67, 27
1, 78463, Control_c, 0, 67, 32
1, 78477, Control_c, 0, 67, 38
1, 78492, Control_c, 0, 67, 46
1, 78507, Control_c, 0, 67, 54
1, 78522, Control_c, 0, 67, 62
1, 78537, Control_c, 0, 67, 69
1, 78552, Control_c, 0, 67, 76
1, 78566, Control_c, 0, 67, 81
1, 78581, Control_c, 0, 67, 84
1, 78596, Control_c, 0, 67, 85
1, 78611, Control_c, 0, 67, 86
1, 78641, Control_c, 0, 64, 9
1, 78655, Note_off_c, 0, 79, 57
1, 78656, Control_c, 0, 64, 18
1, 78677, Control_c, 0, 64, 25
1, 78692, Control_c, 0, 64, 29
1, 78693, Note_on_c, 0, 44, 40
1, 78707, Control_c, 0, 64, 34
1, 78707, Control_c, 0, 67, 85
1, 78721, Control_c, 0, 64, 39
1, 78721, Control_c, 0, 67, 84
1, 78736, Control_c, 0, 64, 45
1, 78736, Control_c, 0, 67, 84
1, 78751, Control_c, 0, 64, 53
1, 78751, Control_c, 0, 67, 83
1, 78766, Control_c, 0, 64, 60
1, 78766, Control_c, 0, 67, 82
1, 78781, Control_c, 0, 64, 67
1, 78781, Control_c, 0, 67, 80
1, 78797, Control_c, 0, 64, 71
1, 78797, Control_c, 0, 67, 79
1, 78812, Control_c, 0, 64, 73
1, 78812, Control_c, 0, 67, 79
1, 78826, Control_c, 0, 64, 74
1, 78826, Control_c, 0, 67, 77
1, 78841, Control_c, 0, 64, 76
1, 78841, Control_c, 0, 67, 76
1, 78856, Control_c, 0, 64, 80
1, 78856, Control_c, 0, 67, 74
1, 78871, Control_c, 0, 64, 93
1, 78871, Control_c, 0, 67, 73
1, 78886, Control_c, 0, 64, 127
1, 78886, Control_c, 0, 67, 72
1, 78900, Control_c, 0, 67, 68
1, 78915, Control_c, 0, 67, 64
1, 78917, Note_off_c, 0, 44, 54
1, 78926, Note_on_c, 0, 51, 49
1, 78930, Control_c, 0, 67, 59
1, 78945, Control_c, 0, 67, 54
1, 78960, Control_c, 0, 67, 45
1, 78975, Control_c, 0, 67, 34
1, 78990, Control_c, 0, 67, 19
1, 79005, Control_c, 0, 67, 0
1, 79044, Note_off_c, 0, 51, 33
1, 79175, Note_on_c, 0, 60, 32
1, 79240, Note_on_c, 0, 82, 66
1, 79314, Note_off_c, 0, 60, 53
1, 79551, Note_on_c, 0, 56, 50
1, 79565, Note_on_c, 0, 63, 47
1, 79601, Note_off_c, 0, 56, 57
1, 79616, Note_off_c, 0, 63, 59
1, 79866, Note_on_c, 0, 80, 55
1, 79869, Note_on_c, 0, 60, 38
1, 79875, Note_on_c, 0, 68, 38
1, 79912, Note_off_c, 0, 60, 62
1, 79917, Control_c, 0, 67, 11
1, 79923, Note_off_c, 0, 68, 52
1, 79932, Control_c, 0, 67, 16
1, 79947, Note_off_c, 0, 82, 34
1, 79947, Control_c, 0, 67, 23
1, 79962, Control_c, 0, 67, 34
1, 79976, Control_c, 0, 67, 45
1, 79991, Control_c, 0, 67, 54
1, 80006, Control_c, 0, 67, 57
1, 80022, Note_off_c, 0, 80, 35
1, 80050, Control_c, 0, 67, 56
1, 80065, Control_c, 0, 67, 54
1, 80080, Control_c, 0, 67, 54
1, 80084, Note_on_c, 0, 72, 56
1, 80094, Control_c, 0, 67, 53
1, 80124, Control_c, 0, 67, 53
1, 80139, Control_c, 0, 67, 52
1, 80176, Control_c, 0, 67, 53
1, 80191, Control_c, 0, 67, 54
1, 80206, Control_c, 0, 67, 55
1, 80221, Control_c, 0, 67, 56
1, 80236, Control_c, 0, 67, 57
1, 80249, Note_off_c, 0, 72, 39
1, 80250, Control_c, 0, 67, 58
1, 80265, Control_c, 0, 67, 58
1, 80280, Control_c, 0, 67, 59
1, 80293, Control_c, 0, 67, 61
1, 80308, Control_c, 0, 67, 62
1, 80331, Note_on_c, 0, 73, 56
1, 80376, Note_off_c, 0, 73, 62
1, 80398, Control_c, 0, 67, 62
1, 80413, Control_c, 0, 67, 63
1, 80502, Control_c, 0, 67, 63
1, 80516, Control_c, 0, 64, 86
1, 80519, Note_on_c, 0, 44, 52
1, 80531, Control_c, 0, 64, 61
1, 80531, Control_c, 0, 67, 64
1, 80546, Control_c, 0, 64, 38
1, 80546, Control_c, 0, 67, 64
1, 80561, Control_c, 0, 64, 0
1, 80605, Control_c, 0, 67, 64
1, 80620, Note_off_c, 0, 44, 59
1, 80620, Control_c, 0, 67, 63
1, 80632, Note_on_c, 0, 51, 51
1, 80635, Control_c, 0, 64, 24
1, 80635, Control_c, 0, 67, 62
1, 80650, Control_c, 0, 64, 38
1, 80650, Control_c, 0, 67, 61
1, 80665, Control_c, 0, 64, 50
1, 80665, Control_c, 0, 67, 60
1, 80680, Control_c, 0, 64, 65
1, 80680, Control_c, 0, 67, 59
1, 80695, Control_c, 0, 64, 89
1, 80695, Control_c, 0, 67, 57
1, 80710, Control_c, 0, 64, 127
1, 80710, Control_c, 0, 67, 55
1, 80724, Control_c, 0, 67, 54
1, 80739, Control_c, 0, 67, 52
1, 80754, Control_c, 0, 67, 50
1, 80760, Note_off_c, 0, 51, 36
1, 80762, Note_on_c, 0, 60, 49
1, 80769, Control_c, 0, 67, 46
1, 80782, Note_on_c, 0, 77, 72
1, 80784, Control_c, 0, 67, 40
1, 80798, Control_c, 0, 67, 34
1, 80813, Control_c, 0, 67, 28
1, 80828, Control_c, 0, 67, 25
1, 80843, Control_c, 0, 67, 25
1, 80844, Note_off_c, 0, 60, 63
1, 80872, Control_c, 0, 67, 24
1, 80939, Control_c, 0, 67, 24
1, 80954, Control_c, 0, 67, 23
1, 80969, Control_c, 0, 67, 22
1, 80984, Control_c, 0, 67, 16
1, 80998, Control_c, 0, 67, 0
1, 81031, Note_on_c, 0, 63, 42
1, 81033, Note_on_c, 0, 56, 28
1, 81070, Note_off_c, 0, 56, 51
1, 81078, Note_off_c, 0, 63, 44
1, 81268, Note_on_c, 0, 60, 40
1, 81274, Note_on_c, 0, 68, 37
1, 81281, Note_on_c, 0, 75, 50
1, 81336, Note_off_c, 0, 60, 41
1, 81337, Note_off_c, 0, 68, 41
1, 81392, Note_off_c, 0, 77, 26
1, 81527, Note_on_c, 0, 73, 57
1, 81604, Note_off_c, 0, 75, 33
1, 81717, Control_c, 0, 67, 10
1, 81732, Note_off_c, 0, 73, 58
1, 81732, Control_c, 0, 67, 14
1, 81747, Control_c, 0, 67, 17
1, 81762, Control_c, 0, 67, 21
1, 81764, Note_on_c, 0, 72, 64
1, 81777, Control_c, 0, 67, 24
1, 81792, Control_c, 0, 67, 27
1, 81807, Control_c, 0, 67, 30
1, 81821, Control_c, 0, 67, 32
1, 81836, Control_c, 0, 67, 34
1, 81851, Control_c, 0, 67, 35
1, 81866, Control_c, 0, 67, 36
1, 81880, Control_c, 0, 67, 37
1, 81895, Control_c, 0, 67, 38
1, 81910, Control_c, 0, 67, 38
1, 81954, Control_c, 0, 64, 85
1, 81969, Control_c, 0, 64, 62
1, 81984, Control_c, 0, 64, 40
1, 81986, Note_on_c, 0, 44, 52
1, 82000, Control_c, 0, 64, 0
1, 82030, Control_c, 0, 67, 38
1, 82032, Note_off_c, 0, 72, 57
1, 82044, Control_c, 0, 64, 16
1, 82059, Control_c, 0, 64, 35
1, 82059, Control_c, 0, 67, 37
1, 82074, Control_c, 0, 64, 51
1, 82074, Control_c, 0, 67, 37
1, 82088, Control_c, 0, 64, 68
1, 82088, Control_c, 0, 67, 36
1, 82093, Note_off_c, 0, 44, 61
1, 82103, Control_c, 0, 64, 127
1, 82103, Control_c, 0, 67, 35
1, 82118, Control_c, 0, 67, 35
1, 82133, Control_c, 0, 67, 34
1, 82148, Control_c, 0, 67, 33
1, 82162, Control_c, 0, 67, 32
1, 82177, Control_c, 0, 67, 32
1, 82192, Control_c, 0, 67, 31
1, 82325, Control_c, 0, 67, 30
1, 82336, Note_on_c, 0, 72, 67
1, 82340, Note_on_c, 0, 62, 42
1, 82340, Control_c, 0, 67, 30
1, 82342, Note_on_c, 0, 53, 41
1, 82355, Control_c, 0, 67, 29
1, 82370, Control_c, 0, 67, 28
1, 82385, Control_c, 0, 67, 25
1, 82386, Note_off_c, 0, 72, 62
1, 82392, Note_off_c, 0, 53, 61
1, 82400, Control_c, 0, 67, 23
1, 82422, Control_c, 0, 67, 17
1, 82437, Control_c, 0, 67, 0
1, 82474, Note_off_c, 0, 62, 36
1, 82740, Note_on_c, 0, 56, 38
1, 82744, Note_on_c, 0, 65, 29
1, 82782, Note_off_c, 0, 65, 53
1, 82799, Note_off_c, 0, 56, 59
1, 82808, Control_c, 0, 67, 9
1, 82823, Control_c, 0, 67, 12
1, 82838, Control_c, 0, 67, 16
1, 82853, Control_c, 0, 67, 20
1, 82868, Control_c, 0, 67, 25
1, 82883, Control_c, 0, 67, 30
1, 82898, Control_c, 0, 67, 35
1, 82912, Control_c, 0, 67, 39
1, 82927, Control_c, 0, 67, 41
1, 82942, Control_c, 0, 67, 43
1, 82957, Control_c, 0, 67, 44
1, 82972, Control_c, 0, 67, 45
1, 83090, Control_c, 0, 67, 44
1, 83103, Note_on_c, 0, 70, 51
1, 83105, Control_c, 0, 67, 44
1, 83112, Note_on_c, 0, 62, 39
1, 83149, Control_c, 0, 67, 43
1, 83187, Control_c, 0, 67, 43
1, 83231, Control_c, 0, 67, 42
1, 83246, Control_c, 0, 67, 41
1, 83261, Control_c, 0, 67, 41
1, 83273, Note_off_c, 0, 62, 43
1, 83275, Control_c, 0, 67, 40
1, 83290, Control_c, 0, 67, 40
1, 83305, Control_c, 0, 67, 39
1, 83319, Control_c, 0, 67, 38
1, 83334, Control_c, 0, 67, 37
1, 83349, Control_c, 0, 67, 37
1, 83364, Control_c, 0, 67, 36
1, 83371, Note_on_c, 0, 69, 55
1, 83376, Note_off_c, 0, 70, 33
1, 83379, Control_c, 0, 67, 35
1, 83393, Control_c, 0, 67, 35
1, 83408, Control_c, 0, 67, 34
1, 83453, Control_c, 0, 67, 33
1, 83542, Control_c, 0, 67, 34
1, 83561, Note_on_c, 0, 70, 61
1, 83575, Note_off_c, 0, 69, 56
1, 83602, Control_c, 0, 67, 34
1, 83616, Control_c, 0, 67, 35
1, 83655, Note_off_c, 0, 70, 54
1, 83694, Note_on_c, 0, 69, 58
1, 83801, Note_off_c, 0, 69, 60
1, 83827, Note_on_c, 0, 70, 55
1, 83854, Control_c, 0, 67, 35
1, 83865, Note_off_c, 0, 70, 64
1, 83896, Note_on_c, 0, 72, 56
1, 83898, Control_c, 0, 67, 36
1, 83920, Control_c, 0, 67, 36
1, 83939, Note_off_c, 0, 72, 64
1, 83957, Note_on_c, 0, 70, 68
1, 83990, Note_off_c, 0, 70, 65
1, 83995, Control_c, 0, 67, 33
1, 84010, Control_c, 0, 67, 24
1, 84024, Control_c, 0, 67, 8
1, 84027, Note_on_c, 0, 72, 55
1, 84038, Control_c, 0, 67, 0
1, 84051, Note_off_c, 0, 72, 60
1, 84080, Note_on_c, 0, 70, 59
1, 84096, Note_off_c, 0, 70, 67
1, 84120, Note_on_c, 0, 72, 68
1, 84148, Note_off_c, 0, 72, 65
1, 84169, Note_on_c, 0, 70, 64
1, 84206, Note_off_c, 0, 70, 62
1, 84243, Note_on_c, 0, 72, 55
1, 84270, Note_off_c, 0, 72, 58
1, 84296, Note_on_c, 0, 70, 60
1, 84317, Note_off_c, 0, 70, 64
1, 84343, Note_on_c, 0, 72, 70
1, 84370, Note_off_c, 0, 72, 62
1, 84401, Note_on_c, 0, 70, 64
1, 84409, Control_c, 0, 67, 8
1, 84424, Control_c, 0, 67, 9
1, 84429, Note_off_c, 0, 70, 65
1, 84439, Control_c, 0, 67, 10
1, 84454, Control_c, 0, 67, 10
1, 84468, Note_on_c, 0, 72, 63
1, 84469, Control_c, 0, 67, 11
1, 84483, Control_c, 0, 67, 11
1, 84495, Note_off_c, 0, 72, 62
1, 84498, Control_c, 0, 67, 12
1, 84522, Note_on_c, 0, 70, 65
1, 84528, Control_c, 0, 67, 12
1, 84559, Note_off_c, 0, 70, 64
1, 84586, Note_on_c, 0, 72, 51
1, 84625, Note_off_c, 0, 72, 63
1, 84636, Note_on_c, 0, 70, 66
1, 84664, Note_off_c, 0, 70, 70
1, 84695, Note_on_c, 0, 72, 62
1, 84713, Control_c, 0, 67, 12
1, 84724, Note_off_c, 0, 72, 64
1, 84728, Control_c, 0, 67, 11
1, 84743, Note_on_c, 0, 70, 69
1, 84743, Control_c, 0, 67, 11
1, 84758, Control_c, 0, 67, 10
1, 84767, Note_off_c, 0, 70, 68
1, 84772, Control_c, 0, 67, 10
1, 84786, Control_c, 0, 67, 9
1, 84792, Note_on_c, 0, 69, 68
1, 84801, Control_c, 0, 67, 9
1, 84816, Control_c, 0, 67, 8
1, 84831, Control_c, 0, 67, 8
1, 84839, Note_off_c, 0, 69, 63
1, 84845, Note_on_c, 0, 70, 73
1, 84860, Control_c, 0, 67, 0
1, 84871, Note_on_c, 0, 73, 71
1, 84876, Note_off_c, 0, 70, 58
1, 84921, Note_on_c, 0, 74, 70
1, 84929, Note_off_c, 0, 73, 65
1, 84942, Note_off_c, 0, 74, 73
1, 84978, Note_on_c, 0, 76, 80
1, 85020, Note_off_c, 0, 76, 65
1, 85024, Note_on_c, 0, 77, 73
1, 85052, Note_on_c, 0, 79, 63
1, 85063, Note_off_c, 0, 77, 62
1, 85071, Note_off_c, 0, 79, 65
1, 85081, Note_on_c, 0, 80, 57
1, 85104, Note_off_c, 0, 80, 40
1, 85121, Note_on_c, 0, 81, 80
1, 85147, Note_off_c, 0, 81, 62
1, 85172, Note_on_c, 0, 82, 78
1, 85226, Note_on_c, 0, 84, 62
1, 85247, Note_off_c, 0, 82, 60
1, 85256, Note_on_c, 0, 86, 77
1, 85285, Note_off_c, 0, 84, 60
1, 85288, Note_off_c, 0, 86, 62
1, 85335, Control_c, 0, 64, 65
1, 85350, Control_c, 0, 64, 44
1, 85365, Control_c, 0, 64, 0
1, 85373, Note_on_c, 0, 44, 46
1, 85431, Control_c, 0, 64, 8
1, 85446, Control_c, 0, 64, 31
1, 85461, Control_c, 0, 64, 46
1, 85476, Control_c, 0, 64, 60
1, 85491, Control_c, 0, 64, 79
1, 85506, Control_c, 0, 64, 127
1, 85542, Note_off_c, 0, 44, 35
1, 85545, Note_on_c, 0, 51, 57
1, 85632, Note_off_c, 0, 51, 36
1, 85679, Note_on_c, 0, 61, 57
1, 85685, Note_on_c, 0, 89, 86
1, 85728, Note_off_c, 0, 61, 61
1, 85887, Note_on_c, 0, 55, 54
1, 85907, Note_on_c, 0, 63, 46
1, 85937, Note_off_c, 0, 55, 56
1, 85946, Note_off_c, 0, 63, 47
1, 86085, Note_on_c, 0, 87, 61
1, 86086, Note_on_c, 0, 61, 44
1, 86090, Note_on_c, 0, 67, 44
1, 86117, Note_off_c, 0, 67, 63
1, 86143, Note_off_c, 0, 61, 64
1, 86296, Note_on_c, 0, 85, 57
1, 86320, Note_off_c, 0, 89, 48
1, 86368, Note_off_c, 0, 87, 33
1, 86496, Note_on_c, 0, 82, 54
1, 86549, Note_off_c, 0, 85, 31
1, 86561, Note_off_c, 0, 82, 64
1, 86639, Note_on_c, 0, 44, 50
1, 86639, Control_c, 0, 64, 70
1, 86654, Control_c, 0, 64, 52
1, 86669, Control_c, 0, 64, 21
1, 86683, Control_c, 0, 64, 0
1, 86728, Control_c, 0, 64, 22
1, 86741, Note_off_c, 0, 44, 57
1, 86743, Control_c, 0, 64, 38
1, 86757, Note_on_c, 0, 51, 44
1, 86758, Control_c, 0, 64, 53
1, 86773, Control_c, 0, 64, 67
1, 86788, Control_c, 0, 64, 114
1, 86803, Control_c, 0, 64, 127
1, 86944, Note_off_c, 0, 51, 29
1, 86955, Note_on_c, 0, 77, 68
1, 86962, Note_on_c, 0, 61, 44
1, 87017, Note_off_c, 0, 61, 61
1, 87223, Note_on_c, 0, 63, 44
1, 87226, Note_on_c, 0, 55, 32
1, 87264, Note_off_c, 0, 55, 52
1, 87274, Note_off_c, 0, 63, 58
1, 87473, Note_on_c, 0, 67, 43
1, 87479, Note_on_c, 0, 75, 49
1, 87480, Note_on_c, 0, 61, 30
1, 87519, Note_off_c, 0, 67, 64
1, 87527, Note_off_c, 0, 61, 47
1, 87559, Note_off_c, 0, 77, 34
1, 87733, Note_on_c, 0, 73, 55
1, 87774, Note_off_c, 0, 75, 51
1, 87855, Control_c, 0, 67, 8
1, 87932, Note_on_c, 0, 70, 63
1, 87962, Note_off_c, 0, 73, 59
1, 87974, Control_c, 0, 67, 8
1, 87989, Control_c, 0, 67, 9
1, 88019, Control_c, 0, 67, 9
1, 88033, Control_c, 0, 67, 10
1, 88196, Control_c, 0, 64, 89
1, 88201, Note_on_c, 0, 44, 40
1, 88211, Control_c, 0, 64, 64
1, 88225, Control_c, 0, 64, 50
1, 88240, Control_c, 0, 64, 0
1, 88240, Control_c, 0, 67, 9
1, 88255, Control_c, 0, 67, 9
1, 88262, Note_on_c, 0, 67, 52
1, 88268, Note_off_c, 0, 70, 55
1, 88285, Control_c, 0, 67, 8
1, 88314, Control_c, 0, 67, 8
1, 88357, Note_off_c, 0, 44, 60
1, 88359, Control_c, 0, 64, 28
1, 88375, Control_c, 0, 64, 40
1, 88390, Control_c, 0, 64, 53
1, 88390, Control_c, 0, 67, 8
1, 88412, Control_c, 0, 64, 65
1, 88427, Control_c, 0, 64, 83
1, 88427, Control_c, 0, 67, 9
1, 88442, Control_c, 0, 64, 127
1, 88516, Control_c, 0, 67, 9
1, 88553, Note_off_c, 0, 67, 37
1, 88563, Note_on_c, 0, 51, 53
1, 88565, Note_on_c, 0, 60, 56
1, 88566, Note_on_c, 0, 68, 69
1, 88575, Control_c, 0, 64, 122
1, 88575, Control_c, 0, 67, 8
1, 88590, Control_c, 0, 64, 83
1, 88590, Control_c, 0, 67, 8
1, 88598, Note_off_c, 0, 51, 66
1, 88604, Control_c, 0, 64, 79
1, 88604, Control_c, 0, 67, 0
1, 88615, Note_off_c, 0, 60, 62
1, 88619, Control_c, 0, 64, 79
1, 88634, Control_c, 0, 64, 87
1, 88649, Control_c, 0, 64, 127
1, 88660, Note_off_c, 0, 68, 58
1, 88796, Note_on_c, 0, 56, 53
1, 88797, Note_on_c, 0, 72, 73
1, 88797, Control_c, 0, 64, 98
1, 88801, Note_on_c, 0, 63, 51
1, 88812, Control_c, 0, 64, 70
1, 88827, Control_c, 0, 64, 65
1, 88833, Note_off_c, 0, 56, 63
1, 88842, Control_c, 0, 64, 66
1, 88843, Note_off_c, 0, 63, 57
1, 88856, Control_c, 0, 64, 73
1, 88871, Control_c, 0, 64, 117
1, 88879, Note_off_c, 0, 72, 53
1, 88886, Control_c, 0, 64, 127
1, 88985, Note_on_c, 0, 75, 75
1, 89002, Note_on_c, 0, 68, 41
1, 89005, Note_on_c, 0, 60, 42
1, 89021, Note_off_c, 0, 75, 61
1, 89033, Note_off_c, 0, 68, 52
1, 89035, Note_off_c, 0, 60, 54
1, 89182, Note_on_c, 0, 79, 67
1, 89286, Note_on_c, 0, 80, 69
1, 89289, Note_off_c, 0, 79, 62
1, 89313, Note_off_c, 0, 80, 66
1, 89399, Note_on_c, 0, 84, 67
1, 89444, Note_off_c, 0, 84, 60
1, 89479, Note_on_c, 0, 87, 66
1, 89524, Note_off_c, 0, 87, 59
1, 89564, Note_on_c, 0, 96, 72
1, 89659, Note_on_c, 0, 92, 74
1, 89663, Note_off_c, 0, 96, 58
1, 89684, Note_off_c, 0, 92, 67
1, 89871, Note_on_c, 0, 60, 48
1, 89879, Note_on_c, 0, 68, 51
1, 89933, Note_off_c, 0, 60, 56
1, 90022, Note_off_c, 0, 68, 27
1, 90119, Note_on_c, 0, 63, 51
1, 90128, Note_on_c, 0, 72, 49
1, 90168, Note_off_c, 0, 72, 64
1, 90172, Note_off_c, 0, 63, 57
1, 90448, Note_on_c, 0, 68, 46
1, 90449, Note_on_c, 0, 75, 44
1, 90502, Note_off_c, 0, 68, 57
1, 90506, Note_off_c, 0, 75, 57
1, 90684, Note_on_c, 0, 75, 45
1, 90727, Note_off_c, 0, 75, 53
1, 90758, Note_on_c, 0, 77, 57
1, 90809, Note_off_c, 0, 77, 58
1, 90827, Note_on_c, 0, 75, 66
1, 90881, Note_off_c, 0, 75, 60
1, 90881, Control_c, 0, 64, 88
1, 90895, Note_on_c, 0, 74, 59
1, 90895, Control_c, 0, 64, 69
1, 90910, Control_c, 0, 64, 59
1, 90925, Control_c, 0, 64, 42
1, 90940, Control_c, 0, 64, 12
1, 90955, Control_c, 0, 64, 0
1, 90966, Note_off_c, 0, 74, 64
1, 90967, Note_on_c, 0, 75, 58
1, 91126, Note_on_c, 0, 84, 51
1, 91132, Note_off_c, 0, 75, 58
1, 91183, Note_off_c, 0, 84, 0
1, 91183, Note_on_c, 0, 84, 11
1, 91517, Note_on_c, 0, 79, 38
1, 91536, Note_off_c, 0, 84, 41
1, 91569, Control_c, 0, 67, 10
1, 91585, Control_c, 0, 67, 14
1, 91600, Control_c, 0, 67, 19
1, 91615, Control_c, 0, 67, 24
1, 91629, Control_c, 0, 67, 28
1, 91644, Control_c, 0, 67, 30
1, 91659, Control_c, 0, 67, 32
1, 91674, Control_c, 0, 67, 33
1, 91703, Control_c, 0, 67, 33
1, 91723, Note_off_c, 0, 79, 57
1, 91733, Control_c, 0, 64, 20
1, 91748, Control_c, 0, 64, 29
1, 91763, Control_c, 0, 64, 38
1, 91772, Note_on_c, 0, 44, 38
1, 91778, Control_c, 0, 64, 50
1, 91778, Control_c, 0, 67, 33
1, 91793, Control_c, 0, 64, 61
1, 91793, Control_c, 0, 67, 32
1, 91808, Control_c, 0, 64, 74
1, 91808, Control_c, 0, 67, 31
1, 91822, Control_c, 0, 64, 102
1, 91822, Control_c, 0, 67, 30
1, 91837, Control_c, 0, 64, 127
1, 91837, Control_c, 0, 67, 30
1, 91852, Control_c, 0, 67, 29
1, 91867, Control_c, 0, 67, 28
1, 91881, Control_c, 0, 67, 27
1, 91896, Control_c, 0, 67, 25
1, 91911, Control_c, 0, 67, 24
1, 91926, Control_c, 0, 67, 22
1, 91941, Control_c, 0, 67, 20
1, 91948, Note_on_c, 0, 51, 43
1, 91949, Note_off_c, 0, 44, 40
1, 91955, Control_c, 0, 67, 16
1, 91970, Control_c, 0, 67, 9
1, 91985, Control_c, 0, 67, 0
1, 92013, Note_off_c, 0, 51, 53
1, 92137, Note_on_c, 0, 60, 47
1, 92200, Note_on_c, 0, 82, 75
1, 92239, Note_off_c, 0, 60, 61
1, 92464, Note_on_c, 0, 56, 43
1, 92469, Note_on_c, 0, 63, 48
1, 92505, Note_off_c, 0, 56, 52
1, 92521, Note_off_c, 0, 63, 58
1, 92729, Note_on_c, 0, 60, 38
1, 92732, Note_on_c, 0, 68, 38
1, 92760, Note_off_c, 0, 82, 62
1, 92808, Note_on_c, 0, 80, 49
1, 92824, Note_off_c, 0, 68, 36
1, 92859, Note_off_c, 0, 60, 30
1, 93060, Note_off_c, 0, 80, 41
1, 93089, Note_on_c, 0, 72, 58
1, 93217, Control_c, 0, 67, 8
1, 93232, Control_c, 0, 67, 10
1, 93246, Control_c, 0, 67, 13
1, 93261, Control_c, 0, 67, 15
1, 93276, Control_c, 0, 67, 19
1, 93291, Control_c, 0, 67, 22
1, 93306, Control_c, 0, 67, 25
1, 93320, Control_c, 0, 67, 29
1, 93322, Note_on_c, 0, 73, 63
1, 93335, Control_c, 0, 67, 33
1, 93350, Control_c, 0, 67, 38
1, 93363, Note_off_c, 0, 72, 61
1, 93365, Control_c, 0, 67, 42
1, 93380, Control_c, 0, 67, 46
1, 93394, Control_c, 0, 67, 50
1, 93409, Control_c, 0, 67, 51
1, 93424, Control_c, 0, 67, 52
1, 93439, Control_c, 0, 67, 52
1, 93443, Note_off_c, 0, 73, 61
1, 93453, Control_c, 0, 67, 53
1, 93468, Control_c, 0, 67, 53
1, 93482, Note_on_c, 0, 44, 53
1, 93483, Control_c, 0, 64, 89
1, 93498, Control_c, 0, 64, 61
1, 93513, Control_c, 0, 64, 41
1, 93528, Control_c, 0, 64, 0
1, 93587, Control_c, 0, 64, 22
1, 93602, Control_c, 0, 64, 37
1, 93605, Note_on_c, 0, 51, 52
1, 93617, Control_c, 0, 64, 50
1, 93621, Note_off_c, 0, 44, 54
1, 93632, Control_c, 0, 64, 64
1, 93653, Control_c, 0, 64, 94
1, 93653, Control_c, 0, 67, 53
1, 93668, Control_c, 0, 64, 127
1, 93683, Control_c, 0, 67, 52
1, 93698, Control_c, 0, 67, 52
1, 93713, Control_c, 0, 67, 51
1, 93727, Control_c, 0, 67, 51
1, 93742, Control_c, 0, 67, 50
1, 93757, Control_c, 0, 67, 50
1, 93772, Control_c, 0, 67, 49
1, 93775, Note_on_c, 0, 60, 43
1, 93778, Note_off_c, 0, 51, 40
1, 93781, Note_on_c, 0, 77, 75
1, 93802, Control_c, 0, 67, 49
1, 93817, Control_c, 0, 67, 48
1, 93832, Control_c, 0, 67, 47
1, 93833, Note_off_c, 0, 60, 58
1, 93846, Control_c, 0, 67, 45
1, 93861, Control_c, 0, 67, 44
1, 93876, Control_c, 0, 67, 42
1, 93891, Control_c, 0, 67, 40
1, 93906, Control_c, 0, 67, 38
1, 93920, Control_c, 0, 67, 35
1, 93935, Control_c, 0, 67, 32
1, 93950, Control_c, 0, 67, 29
1, 93965, Control_c, 0, 67, 25
1, 93981, Control_c, 0, 67, 18
1, 93996, Control_c, 0, 67, 8
1, 94011, Control_c, 0, 67, 0
1, 94031, Note_on_c, 0, 56, 50
1, 94041, Note_on_c, 0, 63, 48
1, 94069, Note_off_c, 0, 56, 62
1, 94082, Note_off_c, 0, 63, 60
1, 94313, Note_on_c, 0, 75, 56
1, 94319, Note_on_c, 0, 68, 36
1, 94321, Note_on_c, 0, 60, 39
1, 94358, Note_off_c, 0, 77, 49
1, 94365, Note_off_c, 0, 68, 45
1, 94379, Note_off_c, 0, 60, 54
1, 94600, Note_on_c, 0, 73, 58
1, 94699, Note_off_c, 0, 75, 31
1, 94847, Control_c, 0, 67, 8
1, 94851, Note_off_c, 0, 73, 54
1, 94856, Note_on_c, 0, 72, 59
1, 94862, Control_c, 0, 67, 15
1, 94877, Control_c, 0, 67, 23
1, 94891, Control_c, 0, 67, 30
1, 94906, Control_c, 0, 67, 36
1, 94921, Control_c, 0, 67, 42
1, 94936, Control_c, 0, 67, 50
1, 94951, Control_c, 0, 67, 60
1, 94965, Control_c, 0, 67, 71
1, 94980, Control_c, 0, 67, 79
1, 94995, Control_c, 0, 67, 82
1, 95010, Control_c, 0, 67, 85
1, 95024, Control_c, 0, 67, 88
1, 95113, Control_c, 0, 64, 84
1, 95122, Note_on_c, 0, 38, 55
1, 95128, Control_c, 0, 64, 57
1, 95128, Control_c, 0, 67, 87
1, 95151, Control_c, 0, 64, 31
1, 95151, Control_c, 0, 67, 86
1, 95166, Control_c, 0, 64, 0
1, 95166, Control_c, 0, 67, 85
1, 95180, Control_c, 0, 67, 84
1, 95195, Control_c, 0, 64, 17
1, 95195, Control_c, 0, 67, 84
1, 95210, Control_c, 0, 64, 32
1, 95224, Control_c, 0, 64, 51
1, 95236, Note_off_c, 0, 72, 55
1, 95239, Control_c, 0, 64, 68
1, 95246, Note_off_c, 0, 38, 62
1, 95254, Control_c, 0, 64, 127
1, 95284, Control_c, 0, 67, 83
1, 95298, Control_c, 0, 67, 83
1, 95313, Control_c, 0, 67, 82
1, 95328, Control_c, 0, 67, 82
1, 95432, Control_c, 0, 67, 81
1, 95567, Note_on_c, 0, 50, 42
1, 95568, Note_on_c, 0, 72, 71
1, 95573, Note_on_c, 0, 56, 35
1, 95678, Note_off_c, 0, 56, 34
1, 95734, Note_off_c, 0, 50, 32
1, 95847, Control_c, 0, 67, 82
1, 95862, Control_c, 0, 67, 82
1, 95877, Control_c, 0, 67, 83
1, 95900, Control_c, 0, 67, 83
1, 95915, Control_c, 0, 67, 84
1, 95929, Control_c, 0, 67, 85
1, 95944, Control_c, 0, 67, 86
1, 95959, Control_c, 0, 67, 87
1, 95974, Control_c, 0, 67, 88
1, 95989, Control_c, 0, 67, 89
1, 96003, Control_c, 0, 67, 92
1, 96014, Note_on_c, 0, 53, 40
1, 96018, Control_c, 0, 67, 98
1, 96019, Note_on_c, 0, 62, 46
1, 96033, Control_c, 0, 67, 103
1, 96047, Control_c, 0, 67, 107
1, 96062, Control_c, 0, 67, 113
1, 96077, Control_c, 0, 67, 119
1, 96092, Control_c, 0, 67, 123
1, 96095, Note_off_c, 0, 53, 65
1, 96107, Control_c, 0, 67, 124
1, 96123, Note_off_c, 0, 62, 60
1, 96240, Control_c, 0, 67, 123
1, 96255, Control_c, 0, 67, 123
1, 96270, Control_c, 0, 67, 122
1, 96285, Control_c, 0, 67, 121
1, 96300, Control_c, 0, 67, 120
1, 96314, Control_c, 0, 67, 120
1, 96329, Control_c, 0, 67, 119
1, 96359, Control_c, 0, 67, 118
1, 96371, Note_on_c, 0, 70, 60
1, 96374, Control_c, 0, 67, 118
1, 96389, Control_c, 0, 67, 117
1, 96394, Note_on_c, 0, 56, 44
1, 96403, Note_on_c, 0, 65, 39
1, 96404, Control_c, 0, 67, 115
1, 96410, Note_on_c, 0, 62, 33
1, 96419, Control_c, 0, 67, 113
1, 96434, Control_c, 0, 67, 112
1, 96449, Control_c, 0, 67, 109
1, 96452, Note_off_c, 0, 65, 45
1, 96463, Control_c, 0, 67, 103
1, 96467, Note_off_c, 0, 62, 44
1, 96478, Control_c, 0, 67, 94
1, 96491, Note_off_c, 0, 56, 33
1, 96493, Control_c, 0, 67, 80
1, 96508, Control_c, 0, 67, 63
1, 96523, Control_c, 0, 67, 42
1, 96537, Control_c, 0, 67, 17
1, 96552, Control_c, 0, 67, 0
1, 96604, Note_on_c, 0, 69, 65
1, 96645, Note_off_c, 0, 70, 35
1, 96675, Note_off_c, 0, 72, 38
1, 96772, Note_on_c, 0, 70, 72
1, 96809, Note_off_c, 0, 69, 60
1, 96906, Note_off_c, 0, 70, 63
1, 96916, Note_on_c, 0, 69, 69
1, 97042, Note_off_c, 0, 69, 63
1, 97043, Note_on_c, 0, 70, 64
1, 97103, Note_off_c, 0, 70, 62
1, 97123, Note_on_c, 0, 72, 61
1, 97170, Note_off_c, 0, 72, 57
1, 97193, Note_on_c, 0, 70, 64
1, 97217, Note_off_c, 0, 70, 66
1, 97253, Note_on_c, 0, 72, 60
1, 97281, Note_off_c, 0, 72, 63
1, 97304, Note_on_c, 0, 70, 69
1, 97316, Control_c, 0, 67, 8
1, 97331, Note_off_c, 0, 70, 67
1, 97331, Control_c, 0, 67, 13
1, 97345, Note_on_c, 0, 72, 75
1, 97346, Control_c, 0, 67, 17
1, 97361, Control_c, 0, 67, 23
1, 97376, Control_c, 0, 67, 31
1, 97398, Control_c, 0, 67, 40
1, 97400, Note_off_c, 0, 72, 59
1, 97413, Control_c, 0, 67, 53
1, 97419, Note_on_c, 0, 70, 68
1, 97427, Control_c, 0, 67, 64
1, 97442, Control_c, 0, 67, 76
1, 97449, Note_off_c, 0, 70, 63
1, 97457, Control_c, 0, 67, 86
1, 97469, Note_on_c, 0, 72, 63
1, 97472, Control_c, 0, 67, 95
1, 97487, Control_c, 0, 67, 105
1, 97501, Control_c, 0, 67, 113
1, 97513, Note_off_c, 0, 72, 59
1, 97515, Control_c, 0, 67, 120
1, 97530, Control_c, 0, 67, 124
1, 97533, Note_on_c, 0, 70, 74
1, 97545, Control_c, 0, 67, 126
1, 97559, Note_off_c, 0, 70, 64
1, 97560, Control_c, 0, 67, 127
1, 97574, Control_c, 0, 67, 127
1, 97581, Note_on_c, 0, 72, 65
1, 97620, Note_off_c, 0, 72, 58
1, 97650, Note_on_c, 0, 70, 70
1, 97674, Note_off_c, 0, 70, 64
1, 97719, Note_on_c, 0, 72, 52
1, 97743, Note_off_c, 0, 72, 59
1, 97763, Note_on_c, 0, 62, 56
1, 97766, Note_on_c, 0, 68, 62
1, 97774, Note_on_c, 0, 53, 51
1, 97776, Note_on_c, 0, 70, 64
1, 97781, Control_c, 0, 64, 114
1, 97796, Control_c, 0, 64, 68
1, 97802, Note_off_c, 0, 70, 65
1, 97811, Control_c, 0, 64, 51
1, 97825, Note_on_c, 0, 72, 58
1, 97826, Control_c, 0, 64, 17
1, 97841, Control_c, 0, 64, 0
1, 97867, Note_off_c, 0, 72, 62
1, 97905, Note_on_c, 0, 70, 52
1, 97915, Control_c, 0, 64, 19
1, 97915, Control_c, 0, 67, 127
1, 97930, Control_c, 0, 64, 31
1, 97932, Note_off_c, 0, 70, 60
1, 97944, Control_c, 0, 64, 39
1, 97960, Control_c, 0, 64, 49
1, 97960, Control_c, 0, 67, 126
1, 97975, Control_c, 0, 64, 60
1, 97986, Note_off_c, 0, 68, 54
1, 97990, Control_c, 0, 64, 72
1, 97990, Note_on_c, 0, 72, 41
1, 98005, Control_c, 0, 64, 88
1, 98005, Control_c, 0, 67, 125
1, 98013, Note_off_c, 0, 62, 54
1, 98019, Note_off_c, 0, 72, 54
1, 98020, Control_c, 0, 64, 96
1, 98020, Control_c, 0, 67, 125
1, 98029, Note_off_c, 0, 53, 30
1, 98031, Note_on_c, 0, 70, 53
1, 98034, Control_c, 0, 64, 97
1, 98034, Control_c, 0, 67, 124
1, 98049, Control_c, 0, 64, 97
1, 98049, Control_c, 0, 67, 124
1, 98059, Note_off_c, 0, 70, 63
1, 98064, Control_c, 0, 64, 98
1, 98064, Control_c, 0, 67, 123
1, 98079, Control_c, 0, 64, 101
1, 98079, Control_c, 0, 67, 123
1, 98094, Note_on_c, 0, 72, 59
1, 98094, Control_c, 0, 64, 119
1, 98108, Control_c, 0, 64, 127
1, 98108, Control_c, 0, 67, 122
1, 98123, Control_c, 0, 67, 122
1, 98128, Note_off_c, 0, 72, 63
1, 98170, Note_on_c, 0, 70, 52
1, 98175, Control_c, 0, 67, 121
1, 98190, Control_c, 0, 67, 121
1, 98199, Note_off_c, 0, 70, 63
1, 98205, Control_c, 0, 67, 119
1, 98220, Control_c, 0, 67, 117
1, 98227, Note_on_c, 0, 72, 57
1, 98234, Control_c, 0, 67, 116
1, 98249, Control_c, 0, 67, 115
1, 98263, Note_off_c, 0, 72, 62
1, 98264, Control_c, 0, 67, 110
1, 98279, Control_c, 0, 67, 100
1, 98294, Control_c, 0, 67, 87
1, 98298, Note_on_c, 0, 70, 57
1, 98309, Control_c, 0, 67, 70
1, 98323, Control_c, 0, 67, 59
1, 98324, Note_off_c, 0, 70, 63
1, 98338, Control_c, 0, 67, 51
1, 98353, Control_c, 0, 67, 47
1, 98367, Control_c, 0, 67, 47
1, 98376, Note_on_c, 0, 72, 50
1, 98382, Control_c, 0, 67, 47
1, 98397, Control_c, 0, 67, 48
1, 98402, Note_off_c, 0, 72, 59
1, 98412, Control_c, 0, 67, 49
1, 98427, Control_c, 0, 67, 50
1, 98433, Note_on_c, 0, 70, 53
1, 98441, Control_c, 0, 67, 51
1, 98456, Control_c, 0, 67, 52
1, 98463, Note_off_c, 0, 70, 63
1, 98471, Control_c, 0, 67, 53
1, 98486, Control_c, 0, 67, 54
1, 98494, Note_on_c, 0, 72, 55
1, 98501, Control_c, 0, 67, 55
1, 98515, Control_c, 0, 67, 56
1, 98530, Control_c, 0, 67, 57
1, 98534, Note_off_c, 0, 72, 63
1, 98545, Control_c, 0, 67, 59
1, 98560, Control_c, 0, 67, 61
1, 98568, Note_on_c, 0, 70, 56
1, 98574, Control_c, 0, 67, 64
1, 98589, Control_c, 0, 67, 69
1, 98604, Note_off_c, 0, 70, 63
1, 98604, Control_c, 0, 67, 74
1, 98619, Control_c, 0, 67, 80
1, 98634, Control_c, 0, 67, 87
1, 98649, Control_c, 0, 67, 94
1, 98653, Note_on_c, 0, 72, 45
1, 98664, Control_c, 0, 67, 100
1, 98679, Control_c, 0, 67, 106
1, 98679, Note_off_c, 0, 72, 57
1, 98694, Control_c, 0, 67, 110
1, 98708, Note_on_c, 0, 70, 56
1, 98708, Control_c, 0, 67, 112
1, 98723, Control_c, 0, 67, 112
1, 98741, Note_off_c, 0, 70, 63
1, 98778, Note_on_c, 0, 72, 49
1, 98835, Note_off_c, 0, 72, 57
1, 98859, Note_on_c, 0, 70, 56
1, 98903, Note_off_c, 0, 70, 64
1, 98942, Note_on_c, 0, 72, 49
1, 98980, Note_off_c, 0, 72, 49
1, 98980, Note_on_c, 0, 70, 63
1, 99015, Note_off_c, 0, 70, 64
1, 99059, Note_on_c, 0, 72, 55
1, 99084, Note_off_c, 0, 72, 62
1, 99104, Note_on_c, 0, 70, 59
1, 99129, Note_off_c, 0, 70, 65
1, 99160, Note_on_c, 0, 69, 69
1, 99190, Control_c, 0, 67, 112
1, 99212, Note_off_c, 0, 69, 62
1, 99216, Note_on_c, 0, 70, 62
1, 99235, Control_c, 0, 67, 111
1, 99250, Control_c, 0, 67, 111
1, 99260, Note_on_c, 0, 73, 66
1, 99264, Note_off_c, 0, 70, 61
1, 99279, Control_c, 0, 67, 110
1, 99294, Control_c, 0, 67, 110
1, 99307, Note_off_c, 0, 73, 65
1, 99309, Control_c, 0, 67, 108
1, 99314, Note_on_c, 0, 74, 53
1, 99324, Control_c, 0, 67, 107
1, 99334, Note_off_c, 0, 74, 63
1, 99338, Control_c, 0, 67, 105
1, 99353, Control_c, 0, 67, 103
1, 99358, Note_on_c, 0, 76, 62
1, 99368, Control_c, 0, 67, 101
1, 99382, Control_c, 0, 67, 97
1, 99397, Note_off_c, 0, 76, 60
1, 99397, Control_c, 0, 67, 91
1, 99412, Control_c, 0, 67, 79
1, 99415, Note_on_c, 0, 77, 69
1, 99427, Control_c, 0, 67, 61
1, 99439, Note_on_c, 0, 79, 68
1, 99442, Control_c, 0, 67, 36
1, 99457, Control_c, 0, 67, 8
1, 99458, Note_off_c, 0, 79, 66
1, 99461, Note_off_c, 0, 77, 58
1, 99466, Note_on_c, 0, 80, 71
1, 99472, Control_c, 0, 67, 0
1, 99486, Note_off_c, 0, 80, 68
1, 99528, Note_on_c, 0, 81, 75
1, 99553, Note_off_c, 0, 81, 64
1, 99596, Note_on_c, 0, 82, 70
1, 99665, Note_off_c, 0, 82, 63
1, 99677, Note_on_c, 0, 85, 58
1, 99722, Note_off_c, 0, 85, 64
1, 99731, Note_on_c, 0, 86, 60
1, 99750, Note_off_c, 0, 86, 63
1, 99866, Control_c, 0, 64, 80
1, 99881, Control_c, 0, 64, 57
1, 99895, Control_c, 0, 64, 24
1, 99903, Note_on_c, 0, 39, 45
1, 99910, Control_c, 0, 64, 0
1, 99984, Control_c, 0, 64, 19
1, 99999, Control_c, 0, 64, 35
1, 100014, Control_c, 0, 64, 48
1, 100029, Control_c, 0, 64, 62
1, 100044, Control_c, 0, 64, 86
1, 100046, Note_off_c, 0, 39, 52
1, 100059, Control_c, 0, 64, 127
1, 100414, Note_on_c, 0, 89, 71
1, 100425, Note_on_c, 0, 68, 50
1, 100426, Note_on_c, 0, 60, 46
1, 100661, Note_off_c, 0, 60, 31
1, 100706, Note_off_c, 0, 68, 34
1, 100712, Note_on_c, 0, 72, 52
1, 100722, Note_on_c, 0, 63, 40
1, 100741, Note_off_c, 0, 72, 64
1, 100783, Note_off_c, 0, 63, 42
1, 100944, Note_on_c, 0, 87, 59
1, 100950, Note_on_c, 0, 75, 44
1, 100953, Note_on_c, 0, 68, 40
1, 100998, Note_off_c, 0, 89, 49
1, 101001, Note_off_c, 0, 75, 55
1, 101013, Note_off_c, 0, 68, 44
1, 101171, Note_off_c, 0, 87, 50
1, 101186, Note_on_c, 0, 84, 50
1, 101245, Control_c, 0, 67, 12
1, 101260, Control_c, 0, 67, 19
1, 101274, Control_c, 0, 67, 29
1, 101289, Control_c, 0, 67, 43
1, 101304, Control_c, 0, 67, 61
1, 101319, Control_c, 0, 67, 82
1, 101333, Control_c, 0, 67, 106
1, 101348, Control_c, 0, 67, 121
1, 101363, Control_c, 0, 67, 127
1, 101380, Note_off_c, 0, 84, 52
1, 101392, Note_on_c, 0, 80, 53
1, 101531, Note_off_c, 0, 80, 62
1, 101555, Control_c, 0, 64, 67
1, 101570, Control_c, 0, 64, 50
1, 101585, Control_c, 0, 64, 25
1, 101598, Note_on_c, 0, 39, 42
1, 101600, Control_c, 0, 64, 14
1, 101615, Control_c, 0, 64, 21
1, 101630, Control_c, 0, 64, 32
1, 101645, Control_c, 0, 64, 45
1, 101658, Note_off_c, 0, 39, 61
1, 101659, Control_c, 0, 64, 60
1, 101674, Control_c, 0, 64, 88
1, 101689, Control_c, 0, 64, 127
1, 101889, Note_on_c, 0, 77, 66
1, 101892, Note_on_c, 0, 51, 52
1, 101901, Note_on_c, 0, 61, 51
1, 101946, Note_off_c, 0, 61, 58
1, 101959, Note_off_c, 0, 51, 46
1, 102038, Control_c, 0, 67, 127
1, 102053, Control_c, 0, 67, 123
1, 102068, Control_c, 0, 67, 120
1, 102082, Control_c, 0, 67, 117
1, 102097, Control_c, 0, 67, 113
1, 102112, Note_on_c, 0, 55, 40
1, 102112, Control_c, 0, 67, 109
1, 102113, Note_on_c, 0, 63, 44
1, 102127, Control_c, 0, 67, 103
1, 102140, Note_off_c, 0, 63, 58
1, 102142, Control_c, 0, 67, 95
1, 102142, Note_off_c, 0, 55, 55
1, 102156, Control_c, 0, 67, 86
1, 102171, Control_c, 0, 67, 77
1, 102186, Control_c, 0, 67, 66
1, 102201, Control_c, 0, 67, 53
1, 102215, Control_c, 0, 67, 39
1, 102230, Control_c, 0, 67, 26
1, 102245, Control_c, 0, 67, 13
1, 102260, Control_c, 0, 67, 0
1, 102289, Note_on_c, 0, 75, 54
1, 102299, Note_on_c, 0, 67, 47
1, 102314, Note_on_c, 0, 61, 37
1, 102335, Note_off_c, 0, 67, 66
1, 102348, Note_off_c, 0, 61, 54
1, 102392, Note_off_c, 0, 77, 28
1, 102500, Note_on_c, 0, 73, 62
1, 102521, Note_off_c, 0, 75, 48
1, 102586, Control_c, 0, 67, 8
1, 102600, Control_c, 0, 67, 14
1, 102615, Control_c, 0, 67, 23
1, 102637, Control_c, 0, 67, 35
1, 102652, Control_c, 0, 67, 53
1, 102667, Control_c, 0, 67, 71
1, 102682, Control_c, 0, 67, 90
1, 102697, Control_c, 0, 67, 109
1, 102712, Control_c, 0, 67, 126
1, 102727, Control_c, 0, 67, 127
1, 102727, Note_on_c, 0, 70, 65
1, 102750, Note_off_c, 0, 73, 53
1, 102994, Control_c, 0, 64, 108
1, 103009, Control_c, 0, 64, 70
1, 103010, Note_on_c, 0, 44, 47
1, 103024, Control_c, 0, 64, 55
1, 103038, Control_c, 0, 64, 28
1, 103053, Control_c, 0, 64, 0
1, 103068, Note_on_c, 0, 67, 54
1, 103071, Note_off_c, 0, 70, 52
1, 103112, Control_c, 0, 64, 10
1, 103127, Control_c, 0, 64, 33
1, 103142, Control_c, 0, 64, 50
1, 103156, Control_c, 0, 64, 69
1, 103167, Note_off_c, 0, 44, 61
1, 103171, Control_c, 0, 64, 127
1, 103314, Note_off_c, 0, 67, 56
1, 103335, Control_c, 0, 64, 78
1, 103350, Control_c, 0, 64, 65
1, 103358, Note_on_c, 0, 51, 51
1, 103361, Note_on_c, 0, 68, 59
1, 103364, Control_c, 0, 64, 64
1, 103370, Note_on_c, 0, 60, 36
1, 103386, Control_c, 0, 64, 67
1, 103401, Control_c, 0, 64, 76
1, 103412, Note_off_c, 0, 51, 59
1, 103416, Control_c, 0, 64, 127
1, 103421, Note_off_c, 0, 60, 46
1, 103437, Note_off_c, 0, 68, 56
1, 103566, Control_c, 0, 64, 106
1, 103580, Control_c, 0, 64, 72
1, 103595, Note_on_c, 0, 56, 54
1, 103595, Control_c, 0, 64, 64
1, 103598, Note_on_c, 0, 63, 50
1, 103606, Note_on_c, 0, 72, 56
1, 103610, Control_c, 0, 64, 63
1, 103618, Note_off_c, 0, 56, 63
1, 103625, Control_c, 0, 64, 65
1, 103630, Note_off_c, 0, 63, 61
1, 103640, Control_c, 0, 64, 78
1, 103643, Note_off_c, 0, 72, 60
1, 103655, Control_c, 0, 64, 127
1, 103823, Note_on_c, 0, 75, 58
1, 103833, Note_on_c, 0, 60, 44
1, 103836, Note_on_c, 0, 68, 45
1, 103846, Note_off_c, 0, 75, 65
1, 103880, Note_off_c, 0, 60, 42
1, 103958, Note_off_c, 0, 68, 30
1, 104036, Note_on_c, 0, 63, 43
1, 104040, Control_c, 0, 67, 125
1, 104047, Note_on_c, 0, 72, 39
1, 104054, Control_c, 0, 67, 121
1, 104059, Note_on_c, 0, 79, 51
1, 104065, Note_off_c, 0, 63, 54
1, 104069, Control_c, 0, 67, 118
1, 104072, Note_off_c, 0, 72, 57
1, 104084, Control_c, 0, 67, 115
1, 104098, Control_c, 0, 67, 112
1, 104113, Control_c, 0, 67, 110
1, 104116, Note_off_c, 0, 79, 0
1, 104116, Note_on_c, 0, 79, 12
1, 104136, Control_c, 0, 67, 109
1, 104184, Note_on_c, 0, 80, 58
1, 104199, Note_off_c, 0, 79, 48
1, 104217, Note_off_c, 0, 80, 65
1, 104284, Control_c, 0, 67, 109
1, 104299, Control_c, 0, 67, 108
1, 104318, Note_on_c, 0, 68, 40
1, 104331, Note_on_c, 0, 75, 29
1, 104342, Note_on_c, 0, 84, 49
1, 104343, Control_c, 0, 67, 108
1, 104352, Note_off_c, 0, 68, 50
1, 104359, Control_c, 0, 67, 106
1, 104369, Note_off_c, 0, 75, 49
1, 104374, Control_c, 0, 67, 99
1, 104389, Control_c, 0, 67, 93
1, 104403, Control_c, 0, 67, 86
1, 104405, Note_off_c, 0, 84, 51
1, 104418, Control_c, 0, 67, 78
1, 104433, Control_c, 0, 67, 70
1, 104435, Note_on_c, 0, 87, 52
1, 104448, Control_c, 0, 67, 63
1, 104463, Control_c, 0, 67, 54
1, 104477, Control_c, 0, 67, 46
1, 104492, Control_c, 0, 67, 39
1, 104507, Control_c, 0, 67, 33
1, 104522, Note_off_c, 0, 87, 60
1, 104522, Control_c, 0, 67, 30
1, 104537, Control_c, 0, 67, 28
1, 104542, Note_on_c, 0, 96, 59
1, 104551, Control_c, 0, 67, 27
1, 104566, Control_c, 0, 67, 27
1, 104581, Control_c, 0, 67, 26
1, 104596, Control_c, 0, 67, 25
1, 104611, Control_c, 0, 67, 23
1, 104626, Control_c, 0, 67, 20
1, 104640, Control_c, 0, 67, 17
1, 104655, Control_c, 0, 67, 13
1, 104670, Control_c, 0, 67, 10
1, 104685, Control_c, 0, 67, 8
1, 104698, Note_off_c, 0, 96, 36
1, 104700, Control_c, 0, 67, 0
1, 104790, Note_on_c, 0, 72, 24
1, 104794, Note_on_c, 0, 80, 34
1, 104853, Note_on_c, 0, 92, 59
1, 104920, Note_off_c, 0, 92, 65
1, 105049, Note_off_c, 0, 72, 33
1, 105222, Note_off_c, 0, 80, 44
1, 106123, Control_c, 0, 64, 77
1, 106137, Control_c, 0, 64, 62
1, 106152, Control_c, 0, 64, 49
1, 106167, Control_c, 0, 64, 26
1, 106182, Control_c, 0, 64, 0
1, 106539, Note_on_c, 0, 72, 82
1, 106578, Note_off_c, 0, 72, 61
1, 106644, Note_on_c, 0, 72, 70
1, 106695, Note_on_c, 0, 75, 86
1, 106700, Note_off_c, 0, 72, 63
1, 106751, Note_on_c, 0, 73, 88
1, 106780, Note_off_c, 0, 75, 63
1, 106798, Control_c, 0, 64, 12
1, 106813, Control_c, 0, 64, 19
1, 106828, Control_c, 0, 64, 23
1, 106843, Control_c, 0, 64, 26
1, 106858, Control_c, 0, 64, 28
1, 106872, Control_c, 0, 64, 29
1, 106903, Note_on_c, 0, 72, 87
1, 106916, Note_off_c, 0, 73, 60
1, 106950, Note_off_c, 0, 72, 66
1, 106961, Control_c, 0, 64, 28
1, 106976, Control_c, 0, 64, 28
1, 106997, Note_on_c, 0, 72, 88
1, 107050, Control_c, 0, 64, 27
1, 107065, Control_c, 0, 64, 27
1, 107079, Control_c, 0, 64, 23
1, 107094, Control_c, 0, 64, 18
1, 107109, Control_c, 0, 64, 8
1, 107131, Control_c, 0, 64, 0
1, 107182, Note_on_c, 0, 40, 66
1, 107235, Control_c, 0, 64, 27
1, 107250, Control_c, 0, 64, 41
1, 107261, Note_on_c, 0, 84, 97
1, 107265, Control_c, 0, 64, 57
1, 107279, Control_c, 0, 64, 75
1, 107294, Control_c, 0, 64, 127
1, 107319, Note_off_c, 0, 40, 62
1, 107619, Note_on_c, 0, 60, 62
1, 107626, Note_on_c, 0, 58, 55
1, 107693, Note_off_c, 0, 58, 62
1, 107713, Note_on_c, 0, 52, 70
1, 107717, Note_off_c, 0, 60, 62
1, 107792, Note_on_c, 0, 58, 78
1, 107821, Note_on_c, 0, 63, 77
1, 107843, Control_c, 0, 64, 73
1, 107858, Control_c, 0, 64, 52
1, 107881, Control_c, 0, 64, 0
1, 107887, Note_off_c, 0, 63, 62
1, 107896, Note_on_c, 0, 61, 83
1, 107969, Control_c, 0, 64, 29
1, 107984, Control_c, 0, 64, 43
1, 107999, Control_c, 0, 64, 57
1, 108014, Control_c, 0, 64, 73
1, 108028, Control_c, 0, 64, 127
1, 108029, Note_off_c, 0, 84, 58
1, 108063, Note_off_c, 0, 52, 65
1, 108069, Note_off_c, 0, 61, 62
1, 108070, Note_on_c, 0, 60, 76
1, 108071, Note_off_c, 0, 72, 58
1, 108093, Note_off_c, 0, 58, 22
1, 108093, Note_off_c, 0, 60, 71
1, 108190, Note_on_c, 0, 63, 39
1, 108226, Note_off_c, 0, 63, 50
1, 108264, Note_on_c, 0, 70, 66
1, 108266, Note_on_c, 0, 79, 94
1, 108280, Note_on_c, 0, 67, 72
1, 108283, Note_on_c, 0, 64, 43
1, 108340, Note_off_c, 0, 64, 52
1, 108356, Note_off_c, 0, 70, 62
1, 108393, Note_off_c, 0, 79, 51
1, 108432, Note_on_c, 0, 60, 72
1, 108449, Note_off_c, 0, 67, 28
1, 108453, Note_off_c, 0, 60, 72
1, 108687, Note_on_c, 0, 36, 64
1, 108689, Control_c, 0, 64, 93
1, 108703, Control_c, 0, 64, 58
1, 108718, Control_c, 0, 64, 31
1, 108733, Control_c, 0, 64, 0
1, 108757, Note_on_c, 0, 79, 88
1, 108763, Control_c, 0, 64, 9
1, 108766, Note_on_c, 0, 67, 73
1, 108769, Note_off_c, 0, 36, 62
1, 108777, Control_c, 0, 64, 33
1, 108792, Control_c, 0, 64, 55
1, 108807, Control_c, 0, 64, 89
1, 108822, Control_c, 0, 64, 127
1, 108868, Note_off_c, 0, 67, 60
1, 108883, Note_off_c, 0, 79, 58
1, 108938, Note_on_c, 0, 60, 64
1, 109037, Note_off_c, 0, 60, 59
1, 109040, Note_on_c, 0, 52, 61
1, 109069, Note_on_c, 0, 82, 87
1, 109072, Note_on_c, 0, 58, 64
1, 109076, Note_on_c, 0, 70, 80
1, 109096, Note_off_c, 0, 70, 71
1, 109100, Note_off_c, 0, 82, 63
1, 109148, Control_c, 0, 64, 77
1, 109159, Note_on_c, 0, 80, 93
1, 109159, Note_on_c, 0, 68, 92
1, 109163, Control_c, 0, 64, 54
1, 109178, Control_c, 0, 64, 20
1, 109181, Note_on_c, 0, 61, 52
1, 109189, Poly_aftertouch_c, 0, 63, 0
1, 109192, Control_c, 0, 64, 0
1, 109207, Control_c, 0, 64, 14
1, 109222, Control_c, 0, 64, 29
1, 109237, Control_c, 0, 64, 43
1, 109252, Control_c, 0, 64, 57
1, 109267, Control_c, 0, 64, 77
1, 109280, Note_off_c, 0, 52, 57
1, 109282, Control_c, 0, 64, 127
1, 109296, Note_on_c, 0, 60, 73
1, 109298, Note_off_c, 0, 61, 61
1, 109312, Note_off_c, 0, 68, 58
1, 109314, Note_off_c, 0, 80, 56
1, 109320, Note_off_c, 0, 60, 70
1, 109333, Note_off_c, 0, 58, 35
1, 109469, Note_on_c, 0, 70, 69
1, 109474, Note_on_c, 0, 64, 50
1, 109478, Poly_aftertouch_c, 0, 63, 127
1, 109507, Poly_aftertouch_c, 0, 63, 0
1, 109541, Poly_aftertouch_c, 0, 72, 127
1, 109550, Note_off_c, 0, 70, 56
1, 109569, Poly_aftertouch_c, 0, 72, 0
1, 109628, Note_on_c, 0, 60, 67
1, 109636, Note_on_c, 0, 79, 98
1, 109650, Note_off_c, 0, 60, 69
1, 109651, Note_on_c, 0, 67, 75
1, 109674, Note_off_c, 0, 64, 21
1, 109718, Note_off_c, 0, 67, 49
1, 109764, Note_off_c, 0, 79, 57
1, 109920, Note_on_c, 0, 41, 58
1, 109955, Control_c, 0, 64, 68
1, 109962, Note_on_c, 0, 79, 85
1, 109970, Control_c, 0, 64, 45
1, 109972, Note_on_c, 0, 67, 73
1, 109985, Control_c, 0, 64, 0
1, 110056, Note_off_c, 0, 41, 45
1, 110060, Control_c, 0, 64, 33
1, 110075, Control_c, 0, 64, 56
1, 110089, Control_c, 0, 64, 127
1, 110379, Note_on_c, 0, 60, 66
1, 110386, Note_on_c, 0, 56, 66
1, 110415, Note_off_c, 0, 60, 59
1, 110476, Note_off_c, 0, 56, 64
1, 110496, Note_on_c, 0, 53, 64
1, 110563, Note_on_c, 0, 56, 63
1, 110606, Note_on_c, 0, 63, 74
1, 110630, Control_c, 0, 64, 63
1, 110644, Note_off_c, 0, 63, 52
1, 110645, Control_c, 0, 64, 33
1, 110660, Control_c, 0, 64, 0
1, 110665, Note_on_c, 0, 61, 76
1, 110765, Control_c, 0, 64, 19
1, 110779, Control_c, 0, 64, 32
1, 110794, Control_c, 0, 64, 45
1, 110809, Control_c, 0, 64, 57
1, 110815, Note_off_c, 0, 56, 35
1, 110824, Control_c, 0, 64, 69
1, 110838, Control_c, 0, 64, 93
1, 110851, Note_off_c, 0, 61, 41
1, 110853, Control_c, 0, 64, 127
1, 110859, Note_on_c, 0, 60, 68
1, 110889, Note_off_c, 0, 53, 37
1, 110890, Note_off_c, 0, 67, 63
1, 110894, Note_off_c, 0, 60, 68
1, 110979, Control_c, 0, 64, 110
1, 110993, Control_c, 0, 64, 103
1, 111008, Control_c, 0, 64, 97
1, 111023, Control_c, 0, 64, 90
1, 111029, Note_off_c, 0, 79, 58
1, 111038, Control_c, 0, 64, 84
1, 111052, Control_c, 0, 64, 80
1, 111067, Control_c, 0, 64, 79
1, 111070, Note_on_c, 0, 65, 47
1, 111073, Note_on_c, 0, 68, 54
1, 111082, Control_c, 0, 64, 78
1, 111091, Note_on_c, 0, 72, 30
1, 111097, Control_c, 0, 64, 78
1, 111112, Control_c, 0, 64, 77
1, 111116, Note_off_c, 0, 68, 44
1, 111117, Note_off_c, 0, 65, 45
1, 111126, Note_off_c, 0, 72, 52
1, 111127, Control_c, 0, 64, 77
1, 111142, Control_c, 0, 64, 75
1, 111157, Control_c, 0, 64, 74
1, 111171, Control_c, 0, 64, 73
1, 111186, Control_c, 0, 64, 72
1, 111245, Control_c, 0, 64, 73
1, 111260, Control_c, 0, 64, 73
1, 111275, Control_c, 0, 64, 75
1, 111289, Control_c, 0, 64, 76
1, 111301, Note_on_c, 0, 60, 48
1, 111304, Control_c, 0, 64, 78
1, 111319, Control_c, 0, 64, 78
1, 111346, Note_off_c, 0, 60, 63
1, 111349, Control_c, 0, 64, 79
1, 111437, Note_on_c, 0, 80, 67
1, 111449, Note_on_c, 0, 68, 53
1, 111485, Note_off_c, 0, 68, 52
1, 111499, Note_off_c, 0, 80, 61
1, 111601, Control_c, 0, 64, 76
1, 111624, Control_c, 0, 64, 68
1, 111639, Control_c, 0, 64, 56
1, 111641, Note_on_c, 0, 77, 66
1, 111643, Note_on_c, 0, 41, 54
1, 111654, Control_c, 0, 64, 26
1, 111666, Note_on_c, 0, 65, 47
1, 111669, Control_c, 0, 64, 0
1, 111741, Control_c, 0, 64, 27
1, 111756, Control_c, 0, 64, 44
1, 111771, Control_c, 0, 64, 59
1, 111772, Note_off_c, 0, 41, 52
1, 111783, Note_off_c, 0, 77, 36
1, 111786, Control_c, 0, 64, 78
1, 111801, Control_c, 0, 64, 127
1, 111841, Note_off_c, 0, 65, 36
1, 112084, Note_on_c, 0, 60, 51
1, 112096, Note_on_c, 0, 56, 54
1, 112132, Note_off_c, 0, 60, 57
1, 112182, Note_off_c, 0, 56, 62
1, 112185, Note_on_c, 0, 53, 70
1, 112254, Note_on_c, 0, 56, 67
1, 112283, Note_on_c, 0, 63, 68
1, 112314, Note_off_c, 0, 63, 63
1, 112355, Note_on_c, 0, 61, 73
1, 112387, Control_c, 0, 64, 75
1, 112402, Control_c, 0, 64, 62
1, 112417, Control_c, 0, 64, 56
1, 112431, Control_c, 0, 64, 59
1, 112441, Note_on_c, 0, 79, 85
1, 112446, Control_c, 0, 64, 64
1, 112448, Note_on_c, 0, 67, 72
1, 112461, Control_c, 0, 64, 75
1, 112472, Note_off_c, 0, 67, 71
1, 112476, Control_c, 0, 64, 127
1, 112483, Note_off_c, 0, 79, 61
1, 112505, Note_off_c, 0, 53, 63
1, 112513, Note_on_c, 0, 60, 72
1, 112519, Note_off_c, 0, 61, 62
1, 112539, Note_off_c, 0, 60, 69
1, 112540, Note_off_c, 0, 56, 34
1, 112562, Note_on_c, 0, 80, 90
1, 112566, Note_on_c, 0, 68, 81
1, 112588, Note_off_c, 0, 68, 67
1, 112605, Note_off_c, 0, 80, 60
1, 112654, Note_on_c, 0, 69, 97
1, 112656, Note_on_c, 0, 81, 100
1, 112662, Note_on_c, 0, 65, 72
1, 112685, Note_off_c, 0, 69, 68
1, 112686, Note_off_c, 0, 81, 67
1, 112698, Note_on_c, 0, 68, 59
1, 112735, Note_off_c, 0, 68, 64
1, 112749, Note_on_c, 0, 70, 97
1, 112753, Note_on_c, 0, 82, 97
1, 112783, Note_off_c, 0, 70, 67
1, 112788, Note_on_c, 0, 60, 71
1, 112792, Note_off_c, 0, 65, 61
1, 112796, Note_off_c, 0, 82, 63
1, 112808, Note_on_c, 0, 83, 16
1, 112816, Note_off_c, 0, 60, 68
1, 112842, Note_off_c, 0, 83, 0
1, 112842, Note_on_c, 0, 83, 41
1, 112845, Note_on_c, 0, 71, 97
1, 112876, Note_on_c, 0, 82, 40
1, 112882, Note_off_c, 0, 71, 68
1, 112904, Note_off_c, 0, 82, 58
1, 112909, Note_off_c, 0, 83, 65
1, 112985, Note_on_c, 0, 40, 91
1, 112993, Note_on_c, 0, 72, 103
1, 112993, Note_on_c, 0, 84, 107
1, 112994, Control_c, 0, 64, 52
1, 113008, Control_c, 0, 64, 0
1, 113067, Control_c, 0, 64, 34
1, 113073, Note_off_c, 0, 40, 65
1, 113082, Control_c, 0, 64, 57
1, 113097, Control_c, 0, 64, 127
1, 113190, Note_off_c, 0, 72, 58
1, 113193, Note_off_c, 0, 84, 61
1, 113203, Note_on_c, 0, 60, 82
1, 113285, Note_on_c, 0, 52, 74
1, 113297, Note_off_c, 0, 60, 60
1, 113308, Note_on_c, 0, 58, 74
1, 113389, Note_on_c, 0, 63, 78
1, 113421, Note_off_c, 0, 63, 60
1, 113432, Note_on_c, 0, 61, 80
1, 113447, Control_c, 0, 64, 63
1, 113462, Note_on_c, 0, 73, 98
1, 113462, Control_c, 0, 64, 31
1, 113464, Note_on_c, 0, 85, 94
1, 113477, Control_c, 0, 64, 0
1, 113506, Control_c, 0, 64, 39
1, 113521, Control_c, 0, 64, 61
1, 113536, Control_c, 0, 64, 127
1, 113576, Note_off_c, 0, 52, 64
1, 113577, Note_off_c, 0, 61, 67
1, 113592, Note_off_c, 0, 58, 53
1, 113594, Note_on_c, 0, 60, 73
1, 113619, Note_off_c, 0, 60, 69
1, 113619, Note_off_c, 0, 73, 61
1, 113620, Note_off_c, 0, 85, 61
1, 113750, Note_on_c, 0, 64, 69
1, 113759, Note_on_c, 0, 70, 73
1, 113759, Note_on_c, 0, 73, 77
1, 113831, Note_off_c, 0, 73, 63
1, 113879, Note_off_c, 0, 70, 51
1, 113929, Note_on_c, 0, 72, 87
1, 113934, Note_on_c, 0, 84, 91
1, 113972, Note_off_c, 0, 84, 66
1, 113974, Note_off_c, 0, 72, 66
1, 113978, Note_off_c, 0, 64, 62
1, 114156, Note_on_c, 0, 36, 81
1, 114167, Control_c, 0, 64, 65
1, 114169, Note_on_c, 0, 79, 99
1, 114173, Note_on_c, 0, 67, 92
1, 114182, Control_c, 0, 64, 25
1, 114196, Control_c, 0, 64, 0
1, 114218, Note_off_c, 0, 36, 64
1, 114226, Control_c, 0, 64, 15
1, 114241, Control_c, 0, 64, 45
1, 114256, Control_c, 0, 64, 67
1, 114270, Control_c, 0, 64, 127
1, 114282, Note_off_c, 0, 67, 66
1, 114289, Note_off_c, 0, 79, 65
1, 114329, Note_on_c, 0, 60, 77
1, 114426, Note_off_c, 0, 60, 61
1, 114441, Note_on_c, 0, 52, 56
1, 114445, Note_on_c, 0, 58, 55
1, 114471, Note_on_c, 0, 70, 77
1, 114475, Note_on_c, 0, 82, 65
1, 114489, Note_on_c, 0, 63, 68
1, 114492, Note_off_c, 0, 70, 70
1, 114493, Note_off_c, 0, 82, 67
1, 114513, Note_off_c, 0, 63, 66
1, 114546, Note_on_c, 0, 68, 94
1, 114547, Note_on_c, 0, 80, 98
1, 114552, Control_c, 0, 64, 82
1, 114561, Note_on_c, 0, 61, 68
1, 114567, Control_c, 0, 64, 52
1, 114582, Control_c, 0, 64, 0
1, 114633, Control_c, 0, 64, 31
1, 114647, Control_c, 0, 64, 52
1, 114662, Control_c, 0, 64, 77
1, 114669, Note_off_c, 0, 58, 0
1, 114676, Note_off_c, 0, 52, 62
1, 114677, Control_c, 0, 64, 127
1, 114680, Note_off_c, 0, 61, 67
1, 114699, Note_on_c, 0, 60, 67
1, 114701, Note_off_c, 0, 68, 56
1, 114710, Note_off_c, 0, 80, 56
1, 114716, Note_off_c, 0, 60, 66
1, 114734, Poly_aftertouch_c, 0, 58, 0
1, 114869, Note_on_c, 0, 64, 66
1, 114874, Note_on_c, 0, 70, 69
1, 114877, Note_on_c, 0, 73, 73
1, 114962, Note_off_c, 0, 73, 62
1, 115021, Note_off_c, 0, 70, 34
1, 115062, Note_off_c, 0, 64, 34
1, 115120, Note_on_c, 0, 72, 57
1, 115141, Note_off_c, 0, 72, 61
1, 115228, Note_on_c, 0, 79, 92
1, 115240, Note_on_c, 0, 67, 66
1, 115363, Note_on_c, 0, 49, 14
1, 115407, Note_off_c, 0, 49, 50
1, 115407, Poly_aftertouch_c, 0, 46, 127
1, 115410, Poly_aftertouch_c, 0, 44, 127
1, 115416, Note_off_c, 0, 67, 35
1, 115422, Note_off_c, 0, 79, 30
1, 115466, Poly_aftertouch_c, 0, 46, 0
1, 115487, Poly_aftertouch_c, 0, 44, 0
1, 115504, Note_on_c, 0, 41, 62
1, 115530, Control_c, 0, 64, 68
1, 115545, Control_c, 0, 64, 41
1, 115551, Note_on_c, 0, 79, 83
1, 115559, Control_c, 0, 64, 0
1, 115560, Note_on_c, 0, 67, 69
1, 115664, Control_c, 0, 64, 25
1, 115676, Note_off_c, 0, 41, 60
1, 115679, Control_c, 0, 64, 45
1, 115693, Control_c, 0, 64, 64
1, 115708, Control_c, 0, 64, 127
1, 115971, Note_on_c, 0, 60, 64
1, 115980, Note_on_c, 0, 56, 59
1, 116004, Note_off_c, 0, 60, 56
1, 116038, Note_off_c, 0, 56, 63
1, 116057, Note_on_c, 0, 53, 63
1, 116136, Note_on_c, 0, 56, 71
1, 116162, Note_on_c, 0, 63, 76
1, 116189, Control_c, 0, 64, 68
1, 116204, Control_c, 0, 64, 41
1, 116219, Control_c, 0, 64, 0
1, 116230, Note_on_c, 0, 61, 77
1, 116230, Note_off_c, 0, 63, 63
1, 116233, Note_off_c, 0, 67, 65
1, 116323, Control_c, 0, 64, 14
1, 116338, Control_c, 0, 64, 32
1, 116353, Control_c, 0, 64, 49
1, 116368, Control_c, 0, 64, 63
1, 116373, Note_off_c, 0, 53, 53
1, 116382, Note_off_c, 0, 79, 58
1, 116382, Control_c, 0, 64, 89
1, 116385, Note_off_c, 0, 61, 52
1, 116397, Control_c, 0, 64, 127
1, 116406, Note_off_c, 0, 56, 25
1, 116427, Note_on_c, 0, 80, 88
1, 116433, Note_on_c, 0, 68, 81
1, 116466, Note_off_c, 0, 68, 58
1, 116478, Note_off_c, 0, 80, 64
1, 116504, Poly_aftertouch_c, 0, 59, 127
1, 116533, Poly_aftertouch_c, 0, 59, 0
1, 116720, Note_on_c, 0, 76, 83
1, 116723, Control_c, 0, 64, 66
1, 116728, Note_on_c, 0, 73, 65
1, 116730, Note_on_c, 0, 68, 56
1, 116734, Note_on_c, 0, 64, 59
1, 116738, Control_c, 0, 64, 48
1, 116753, Control_c, 0, 64, 0
1, 116784, Note_off_c, 0, 64, 0
1, 116784, Note_on_c, 0, 64, 29
1, 116797, Control_c, 0, 64, 8
1, 116812, Control_c, 0, 64, 32
1, 116826, Control_c, 0, 64, 46
1, 116841, Control_c, 0, 64, 59
1, 116859, Note_off_c, 0, 73, 47
1, 116864, Control_c, 0, 64, 70
1, 116879, Control_c, 0, 64, 86
1, 116889, Note_off_c, 0, 76, 58
1, 116894, Control_c, 0, 64, 94
1, 116914, Note_off_c, 0, 64, 43
1, 116981, Note_on_c, 0, 72, 52
1, 116984, Control_c, 0, 64, 93
1, 116998, Control_c, 0, 64, 92
1, 117005, Note_off_c, 0, 72, 58
1, 117013, Control_c, 0, 64, 92
1, 117029, Note_off_c, 0, 68, 38
1, 117071, Note_on_c, 0, 65, 69
1, 117071, Note_on_c, 0, 77, 73
1, 117087, Control_c, 0, 64, 91
1, 117097, Note_off_c, 0, 77, 65
1, 117098, Note_off_c, 0, 65, 69
1, 117102, Control_c, 0, 64, 85
1, 117116, Control_c, 0, 64, 67
1, 117131, Control_c, 0, 64, 51
1, 117147, Control_c, 0, 64, 0
1, 117157, Note_on_c, 0, 77, 81
1, 117162, Control_c, 0, 67, 10
1, 117169, Note_on_c, 0, 65, 72
1, 117177, Control_c, 0, 67, 11
1, 117192, Control_c, 0, 67, 13
1, 117207, Control_c, 0, 67, 14
1, 117221, Control_c, 0, 64, 16
1, 117236, Control_c, 0, 64, 32
1, 117236, Control_c, 0, 67, 14
1, 117251, Control_c, 0, 64, 43
1, 117265, Control_c, 0, 64, 54
1, 117265, Control_c, 0, 67, 15
1, 117280, Control_c, 0, 64, 62
1, 117280, Control_c, 0, 67, 15
1, 117295, Control_c, 0, 64, 66
1, 117295, Control_c, 0, 67, 16
1, 117310, Control_c, 0, 64, 65
1, 117310, Control_c, 0, 67, 17
1, 117325, Note_on_c, 0, 60, 62
1, 117325, Control_c, 0, 64, 61
1, 117325, Control_c, 0, 67, 19
1, 117339, Control_c, 0, 64, 52
1, 117339, Control_c, 0, 67, 20
1, 117351, Note_on_c, 0, 56, 54
1, 117354, Control_c, 0, 64, 34
1, 117354, Control_c, 0, 67, 21
1, 117369, Control_c, 0, 64, 17
1, 117369, Control_c, 0, 67, 21
1, 117384, Control_c, 0, 64, 27
1, 117399, Control_c, 0, 64, 47
1, 117406, Note_off_c, 0, 56, 64
1, 117412, Note_on_c, 0, 53, 75
1, 117414, Control_c, 0, 64, 64
1, 117414, Note_off_c, 0, 60, 62
1, 117429, Control_c, 0, 64, 127
1, 117458, Control_c, 0, 64, 85
1, 117473, Control_c, 0, 64, 63
1, 117488, Control_c, 0, 64, 43
1, 117488, Control_c, 0, 67, 20
1, 117491, Note_on_c, 0, 56, 67
1, 117503, Control_c, 0, 64, 15
1, 117503, Control_c, 0, 67, 19
1, 117515, Note_on_c, 0, 63, 74
1, 117518, Control_c, 0, 64, 0
1, 117518, Control_c, 0, 67, 17
1, 117527, Note_off_c, 0, 65, 64
1, 117532, Control_c, 0, 64, 14
1, 117532, Control_c, 0, 67, 15
1, 117540, Note_off_c, 0, 77, 63
1, 117547, Control_c, 0, 64, 29
1, 117547, Control_c, 0, 67, 14
1, 117562, Control_c, 0, 64, 41
1, 117562, Control_c, 0, 67, 11
1, 117577, Control_c, 0, 64, 55
1, 117577, Control_c, 0, 67, 10
1, 117582, Note_on_c, 0, 61, 82
1, 117585, Note_off_c, 0, 63, 63
1, 117592, Control_c, 0, 64, 67
1, 117592, Control_c, 0, 67, 9
1, 117613, Control_c, 0, 64, 90
1, 117613, Control_c, 0, 67, 8
1, 117628, Control_c, 0, 64, 127
1, 117628, Control_c, 0, 67, 0
1, 117688, Control_c, 0, 64, 85
1, 117703, Control_c, 0, 64, 63
1, 117718, Control_c, 0, 64, 49
1, 117732, Control_c, 0, 64, 35
1, 117736, Note_off_c, 0, 56, 0
1, 117747, Control_c, 0, 64, 35
1, 117762, Control_c, 0, 64, 40
1, 117773, Poly_aftertouch_c, 0, 56, 127
1, 117776, Note_on_c, 0, 60, 65
1, 117777, Control_c, 0, 64, 50
1, 117782, Note_on_c, 0, 79, 89
1, 117783, Note_off_c, 0, 61, 32
1, 117789, Note_on_c, 0, 67, 75
1, 117792, Control_c, 0, 64, 60
1, 117793, Note_off_c, 0, 53, 62
1, 117805, Note_off_c, 0, 60, 68
1, 117806, Control_c, 0, 64, 72
1, 117811, Note_off_c, 0, 67, 70
1, 117821, Control_c, 0, 64, 109
1, 117824, Poly_aftertouch_c, 0, 56, 0
1, 117824, Note_off_c, 0, 79, 65
1, 117836, Control_c, 0, 64, 127
1, 118044, Control_c, 0, 64, 89
1, 118049, Note_on_c, 0, 51, 60
1, 118052, Note_on_c, 0, 56, 58
1, 118053, Note_on_c, 0, 61, 60
1, 118056, Note_on_c, 0, 53, 53
1, 118059, Note_on_c, 0, 80, 88
1, 118059, Control_c, 0, 64, 58
1, 118066, Note_on_c, 0, 68, 81
1, 118074, Control_c, 0, 64, 41
1, 118088, Control_c, 0, 64, 40
1, 118103, Control_c, 0, 64, 50
1, 118118, Control_c, 0, 64, 63
1, 118123, Note_off_c, 0, 61, 63
1, 118133, Control_c, 0, 64, 117
1, 118148, Control_c, 0, 64, 127
1, 118162, Note_off_c, 0, 68, 58
1, 118174, Note_off_c, 0, 80, 62
1, 118281, Control_c, 0, 64, 71
1, 118296, Control_c, 0, 64, 53
1, 118311, Control_c, 0, 64, 30
1, 118324, Note_on_c, 0, 81, 91
1, 118326, Control_c, 0, 64, 25
1, 118334, Note_on_c, 0, 69, 71
1, 118341, Control_c, 0, 64, 35
1, 118344, Note_on_c, 0, 59, 47
1, 118362, Control_c, 0, 64, 51
1, 118377, Control_c, 0, 64, 67
1, 118381, Note_off_c, 0, 69, 55
1, 118392, Control_c, 0, 64, 127
1, 118415, Note_off_c, 0, 81, 62
1, 118441, Note_off_c, 0, 51, 34
1, 118481, Control_c, 0, 67, 11
1, 118482, Note_off_c, 0, 59, 52
1, 118486, Note_off_c, 0, 53, 36
1, 118496, Control_c, 0, 67, 17
1, 118505, Note_off_c, 0, 56, 38
1, 118511, Control_c, 0, 67, 25
1, 118525, Control_c, 0, 67, 35
1, 118540, Control_c, 0, 67, 47
1, 118555, Control_c, 0, 67, 60
1, 118570, Control_c, 0, 67, 72
1, 118585, Control_c, 0, 67, 81
1, 118600, Control_c, 0, 67, 88
1, 118614, Control_c, 0, 67, 94
1, 118629, Control_c, 0, 67, 98
1, 118644, Control_c, 0, 67, 101
1, 118659, Control_c, 0, 67, 103
1, 118674, Control_c, 0, 67, 104
1, 118718, Control_c, 0, 67, 104
1, 118725, Note_on_c, 0, 50, 51
1, 118749, Control_c, 0, 64, 105
1, 118764, Control_c, 0, 64, 66
1, 118769, Note_on_c, 0, 82, 87
1, 118778, Control_c, 0, 64, 47
1, 118779, Note_on_c, 0, 70, 71
1, 118793, Control_c, 0, 64, 0
1, 118808, Control_c, 0, 67, 105
1, 118911, Control_c, 0, 67, 106
1, 118926, Control_c, 0, 64, 24
1, 118926, Control_c, 0, 67, 108
1, 118941, Control_c, 0, 64, 44
1, 118941, Control_c, 0, 67, 111
1, 118956, Control_c, 0, 64, 63
1, 118956, Control_c, 0, 67, 113
1, 118965, Note_off_c, 0, 50, 38
1, 118971, Control_c, 0, 64, 127
1, 119015, Control_c, 0, 67, 112
1, 119029, Control_c, 0, 67, 111
1, 119044, Control_c, 0, 67, 110
1, 119156, Control_c, 0, 67, 110
1, 119171, Control_c, 0, 67, 109
1, 119185, Control_c, 0, 67, 108
1, 119200, Control_c, 0, 67, 108
1, 119230, Control_c, 0, 67, 107
1, 119251, Note_on_c, 0, 65, 56
1, 119256, Note_on_c, 0, 58, 55
1, 119270, Note_on_c, 0, 68, 46
1, 119306, Note_off_c, 0, 68, 49
1, 119352, Note_off_c, 0, 58, 57
1, 119356, Note_on_c, 0, 62, 60
1, 119415, Note_off_c, 0, 65, 0
1, 119423, Control_c, 0, 67, 108
1, 119433, Note_on_c, 0, 65, 36
1, 119437, Control_c, 0, 64, 103
1, 119447, Note_off_c, 0, 82, 37
1, 119452, Control_c, 0, 64, 63
1, 119452, Control_c, 0, 67, 108
1, 119457, Note_on_c, 0, 68, 53
1, 119459, Note_off_c, 0, 70, 57
1, 119460, Note_off_c, 0, 62, 54
1, 119462, Note_on_c, 0, 60, 57
1, 119467, Control_c, 0, 64, 45
1, 119482, Control_c, 0, 64, 22
1, 119488, Note_off_c, 0, 68, 53
1, 119497, Control_c, 0, 64, 19
1, 119511, Control_c, 0, 64, 28
1, 119513, Note_off_c, 0, 65, 56
1, 119517, Note_off_c, 0, 60, 44
1, 119527, Control_c, 0, 64, 39
1, 119542, Control_c, 0, 64, 55
1, 119557, Control_c, 0, 64, 76
1, 119572, Control_c, 0, 64, 127
1, 119572, Control_c, 0, 67, 109
1, 119587, Control_c, 0, 67, 110
1, 119589, Note_on_c, 0, 70, 66
1, 119593, Note_on_c, 0, 82, 65
1, 119631, Note_off_c, 0, 70, 54
1, 119638, Note_off_c, 0, 82, 59
1, 119713, Note_on_c, 0, 58, 53
1, 119724, Note_on_c, 0, 74, 69
1, 119727, Note_on_c, 0, 65, 42
1, 119734, Control_c, 0, 67, 109
1, 119736, Note_on_c, 0, 82, 65
1, 119739, Note_off_c, 0, 58, 64
1, 119749, Control_c, 0, 67, 106
1, 119754, Note_off_c, 0, 65, 58
1, 119760, Note_off_c, 0, 74, 58
1, 119764, Control_c, 0, 67, 103
1, 119772, Note_off_c, 0, 82, 56
1, 119779, Control_c, 0, 67, 98
1, 119794, Control_c, 0, 67, 89
1, 119808, Control_c, 0, 67, 73
1, 119809, Note_on_c, 0, 77, 79
1, 119823, Control_c, 0, 67, 49
1, 119831, Note_off_c, 0, 77, 70
1, 119838, Control_c, 0, 67, 20
1, 119860, Control_c, 0, 67, 0
1, 119921, Note_on_c, 0, 82, 59
1, 119925, Poly_aftertouch_c, 0, 78, 0
1, 119953, Note_off_c, 0, 82, 66
1, 119992, Note_on_c, 0, 86, 73
1, 120065, Note_off_c, 0, 86, 59
1, 120080, Note_on_c, 0, 89, 50
1, 120105, Note_off_c, 0, 89, 59
1, 120141, Note_on_c, 0, 96, 86
1, 120158, Note_off_c, 0, 96, 72
1, 120257, Note_on_c, 0, 51, 51
1, 120281, Note_on_c, 0, 94, 81
1, 120296, Note_on_c, 0, 82, 57
1, 120305, Control_c, 0, 64, 67
1, 120320, Control_c, 0, 64, 46
1, 120320, Control_c, 0, 67, 10
1, 120335, Control_c, 0, 64, 0
1, 120335, Control_c, 0, 67, 14
1, 120350, Control_c, 0, 67, 21
1, 120365, Control_c, 0, 64, 11
1, 120365, Control_c, 0, 67, 32
1, 120380, Control_c, 0, 64, 30
1, 120380, Control_c, 0, 67, 51
1, 120395, Control_c, 0, 64, 47
1, 120395, Control_c, 0, 67, 70
1, 120409, Control_c, 0, 64, 63
1, 120409, Control_c, 0, 67, 85
1, 120422, Note_off_c, 0, 51, 65
1, 120424, Control_c, 0, 64, 127
1, 120424, Control_c, 0, 67, 97
1, 120439, Control_c, 0, 67, 107
1, 120454, Control_c, 0, 67, 115
1, 120469, Control_c, 0, 67, 123
1, 120483, Control_c, 0, 67, 127
1, 120591, Note_on_c, 0, 67, 48
1, 120591, Note_on_c, 0, 63, 48
1, 120612, Note_on_c, 0, 58, 31
1, 120623, Note_off_c, 0, 67, 60
1, 120667, Note_off_c, 0, 63, 62
1, 120684, Note_off_c, 0, 58, 35
1, 120707, Note_on_c, 0, 62, 57
1, 120757, Control_c, 0, 64, 75
1, 120770, Note_on_c, 0, 67, 52
1, 120772, Control_c, 0, 64, 55
1, 120785, Note_off_c, 0, 62, 61
1, 120787, Note_on_c, 0, 63, 59
1, 120787, Control_c, 0, 64, 25
1, 120797, Note_on_c, 0, 60, 49
1, 120802, Control_c, 0, 64, 0
1, 120809, Note_off_c, 0, 94, 36
1, 120830, Note_off_c, 0, 67, 49
1, 120836, Note_off_c, 0, 82, 60
1, 120845, Note_off_c, 0, 63, 54
1, 120846, Control_c, 0, 64, 21
1, 120861, Control_c, 0, 64, 40
1, 120876, Control_c, 0, 64, 58
1, 120890, Control_c, 0, 64, 92
1, 120897, Note_on_c, 0, 94, 73
1, 120905, Note_on_c, 0, 91, 52
1, 120905, Control_c, 0, 64, 127
1, 120924, Note_off_c, 0, 60, 32
1, 120934, Note_off_c, 0, 91, 54
1, 120935, Note_off_c, 0, 94, 61
1, 121033, Note_on_c, 0, 58, 62
1, 121041, Note_on_c, 0, 63, 58
1, 121051, Note_on_c, 0, 94, 78
1, 121053, Note_on_c, 0, 67, 31
1, 121065, Note_off_c, 0, 58, 65
1, 121070, Note_off_c, 0, 63, 69
1, 121073, Note_on_c, 0, 87, 47
1, 121081, Note_off_c, 0, 94, 61
1, 121086, Note_off_c, 0, 67, 55
1, 121098, Note_off_c, 0, 87, 55
1, 121187, Note_on_c, 0, 84, 73
1, 121189, Note_on_c, 0, 94, 77
1, 121214, Note_off_c, 0, 84, 66
1, 121214, Note_off_c, 0, 94, 66
1, 121299, Note_on_c, 0, 94, 77
1, 121301, Note_on_c, 0, 82, 82
1, 121320, Note_off_c, 0, 94, 72
1, 121334, Note_off_c, 0, 82, 64
1, 121431, Note_on_c, 0, 82, 73
1, 121441, Note_on_c, 0, 79, 66
1, 121456, Note_off_c, 0, 82, 67
1, 121459, Note_off_c, 0, 79, 67
1, 121530, Note_on_c, 0, 82, 77
1, 121542, Note_on_c, 0, 75, 62
1, 121551, Note_off_c, 0, 82, 69
1, 121561, Note_off_c, 0, 75, 66
1, 121655, Note_on_c, 0, 82, 72
1, 121659, Note_on_c, 0, 72, 65
1, 121678, Note_off_c, 0, 82, 70
1, 121685, Note_off_c, 0, 72, 68
1, 121837, Note_on_c, 0, 50, 41
1, 121876, Control_c, 0, 64, 76
1, 121891, Control_c, 0, 64, 55
1, 121897, Note_on_c, 0, 82, 77
1, 121906, Control_c, 0, 64, 22
1, 121909, Note_on_c, 0, 70, 54
1, 121921, Control_c, 0, 64, 0
1, 121996, Control_c, 0, 64, 8
1, 122010, Control_c, 0, 64, 35
1, 122022, Note_off_c, 0, 50, 62
1, 122025, Control_c, 0, 64, 54
1, 122040, Control_c, 0, 64, 77
1, 122055, Control_c, 0, 64, 127
1, 122225, Note_on_c, 0, 68, 50
1, 122238, Note_on_c, 0, 58, 40
1, 122252, Note_on_c, 0, 65, 38
1, 122261, Note_off_c, 0, 68, 48
1, 122317, Note_on_c, 0, 61, 64
1, 122323, Note_off_c, 0, 65, 41
1, 122343, Note_off_c, 0, 58, 61
1, 122394, Note_off_c, 0, 82, 33
1, 122409, Note_on_c, 0, 65, 51
1, 122416, Note_on_c, 0, 68, 60
1, 122418, Control_c, 0, 64, 92
1, 122420, Note_off_c, 0, 61, 58
1, 122420, Note_off_c, 0, 70, 51
1, 122428, Note_on_c, 0, 59, 56
1, 122433, Control_c, 0, 64, 61
1, 122447, Control_c, 0, 64, 37
1, 122462, Control_c, 0, 64, 0
1, 122491, Note_off_c, 0, 68, 56
1, 122499, Note_off_c, 0, 65, 54
1, 122521, Control_c, 0, 64, 20
1, 122536, Control_c, 0, 64, 39
1, 122550, Note_on_c, 0, 70, 68
1, 122551, Control_c, 0, 64, 58
1, 122554, Note_off_c, 0, 59, 35
1, 122565, Note_on_c, 0, 82, 63
1, 122566, Control_c, 0, 64, 88
1, 122580, Control_c, 0, 64, 127
1, 122597, Note_off_c, 0, 82, 61
1, 122606, Note_off_c, 0, 70, 59
1, 122674, Note_on_c, 0, 58, 63
1, 122684, Note_on_c, 0, 74, 68
1, 122691, Note_on_c, 0, 82, 66
1, 122698, Note_on_c, 0, 65, 27
1, 122702, Note_off_c, 0, 58, 64
1, 122714, Control_c, 0, 67, 121
1, 122724, Note_off_c, 0, 74, 53
1, 122730, Control_c, 0, 67, 95
1, 122739, Note_off_c, 0, 65, 53
1, 122745, Control_c, 0, 67, 61
1, 122759, Control_c, 0, 67, 28
1, 122773, Note_on_c, 0, 77, 68
1, 122774, Control_c, 0, 67, 0
1, 122791, Note_off_c, 0, 77, 67
1, 122794, Note_off_c, 0, 82, 50
1, 122870, Note_on_c, 0, 82, 59
1, 122895, Note_off_c, 0, 82, 58
1, 122955, Note_on_c, 0, 86, 57
1, 122988, Note_on_c, 0, 87, 25
1, 122989, Note_off_c, 0, 87, 127
1, 123025, Note_on_c, 0, 89, 70
1, 123025, Note_off_c, 0, 86, 62
1, 123049, Note_off_c, 0, 89, 67
1, 123110, Note_on_c, 0, 95, 70
1, 123135, Note_off_c, 0, 95, 66
1, 123201, Note_on_c, 0, 51, 54
1, 123203, Note_on_c, 0, 94, 76
1, 123211, Control_c, 0, 64, 68
1, 123219, Note_on_c, 0, 82, 57
1, 123226, Control_c, 0, 64, 40
1, 123241, Control_c, 0, 64, 0
1, 123289, Note_off_c, 0, 82, 0
1, 123289, Note_on_c, 0, 82, 33
1, 123300, Control_c, 0, 64, 28
1, 123314, Note_off_c, 0, 51, 63
1, 123315, Control_c, 0, 64, 50
1, 123330, Control_c, 0, 64, 66
1, 123344, Control_c, 0, 64, 127
1, 123344, Control_c, 0, 67, 10
1, 123359, Control_c, 0, 67, 13
1, 123374, Control_c, 0, 67, 16
1, 123389, Control_c, 0, 67, 18
1, 123403, Control_c, 0, 67, 19
1, 123418, Control_c, 0, 67, 20
1, 123433, Control_c, 0, 67, 22
1, 123448, Control_c, 0, 67, 23
1, 123463, Control_c, 0, 67, 25
1, 123477, Control_c, 0, 67, 26
1, 123485, Note_on_c, 0, 66, 61
1, 123489, Note_on_c, 0, 63, 55
1, 123492, Control_c, 0, 67, 27
1, 123495, Note_on_c, 0, 58, 47
1, 123507, Control_c, 0, 67, 28
1, 123519, Note_off_c, 0, 66, 54
1, 123538, Note_off_c, 0, 63, 56
1, 123560, Note_on_c, 0, 61, 61
1, 123604, Note_off_c, 0, 58, 56
1, 123659, Note_on_c, 0, 63, 66
1, 123663, Note_on_c, 0, 66, 59
1, 123664, Control_c, 0, 64, 107
1, 123670, Note_on_c, 0, 59, 62
1, 123675, Note_off_c, 0, 61, 60
1, 123679, Control_c, 0, 64, 63
1, 123694, Control_c, 0, 64, 41
1, 123708, Control_c, 0, 64, 0
1, 123712, Note_off_c, 0, 66, 53
1, 123722, Control_c, 0, 67, 27
1, 123736, Note_off_c, 0, 94, 43
1, 123752, Note_off_c, 0, 63, 52
1, 123764, Note_off_c, 0, 82, 55
1, 123767, Control_c, 0, 64, 26
1, 123781, Control_c, 0, 64, 45
1, 123796, Control_c, 0, 64, 66
1, 123805, Note_on_c, 0, 90, 66
1, 123811, Control_c, 0, 64, 127
1, 123813, Note_on_c, 0, 94, 64
1, 123836, Note_off_c, 0, 90, 65
1, 123843, Note_off_c, 0, 94, 67
1, 123852, Note_off_c, 0, 59, 32
1, 123885, Control_c, 0, 67, 27
1, 123900, Control_c, 0, 67, 26
1, 123903, Note_on_c, 0, 58, 68
1, 123915, Control_c, 0, 67, 25
1, 123918, Note_on_c, 0, 63, 55
1, 123922, Note_on_c, 0, 66, 44
1, 123930, Note_on_c, 0, 94, 82
1, 123935, Note_off_c, 0, 58, 64
1, 123937, Note_on_c, 0, 87, 74
1, 123944, Note_off_c, 0, 63, 65
1, 123954, Note_off_c, 0, 66, 53
1, 123962, Note_off_c, 0, 87, 68
1, 123974, Note_off_c, 0, 94, 66
1, 124019, Control_c, 0, 67, 25
1, 124048, Control_c, 0, 67, 24
1, 124052, Note_on_c, 0, 94, 83
1, 124052, Note_on_c, 0, 83, 76
1, 124063, Control_c, 0, 67, 23
1, 124076, Note_off_c, 0, 94, 69
1, 124078, Control_c, 0, 67, 23
1, 124079, Note_off_c, 0, 83, 68
1, 124107, Control_c, 0, 67, 22
1, 124157, Note_on_c, 0, 82, 93
1, 124159, Note_on_c, 0, 94, 85
1, 124166, Control_c, 0, 67, 22
1, 124180, Note_off_c, 0, 94, 71
1, 124181, Control_c, 0, 67, 21
1, 124189, Note_off_c, 0, 82, 62
1, 124196, Control_c, 0, 67, 21
1, 124211, Control_c, 0, 67, 20
1, 124225, Control_c, 0, 67, 19
1, 124240, Control_c, 0, 67, 17
1, 124255, Control_c, 0, 67, 14
1, 124270, Control_c, 0, 67, 10
1, 124273, Note_on_c, 0, 78, 85
1, 124275, Note_on_c, 0, 82, 84
1, 124285, Control_c, 0, 67, 0
1, 124292, Note_off_c, 0, 78, 72
1, 124294, Note_off_c, 0, 82, 69
1, 124376, Note_on_c, 0, 82, 78
1, 124378, Note_on_c, 0, 75, 70
1, 124395, Note_off_c, 0, 82, 72
1, 124396, Note_off_c, 0, 75, 64
1, 124448, Note_on_c, 0, 70, 91
1, 124484, Note_off_c, 0, 70, 66
1, 124546, Note_on_c, 0, 71, 94
1, 124577, Note_off_c, 0, 71, 63
1, 124753, Control_c, 0, 64, 70
1, 124765, Note_on_c, 0, 45, 102
1, 124767, Control_c, 0, 64, 0
1, 124771, Note_on_c, 0, 33, 88
1, 124781, Note_on_c, 0, 99, 100
1, 124793, Note_off_c, 0, 33, 68
1, 124795, Note_off_c, 0, 45, 70
1, 124871, Control_c, 0, 64, 41
1, 124886, Control_c, 0, 64, 64
1, 124901, Control_c, 0, 64, 127
1, 125178, Note_on_c, 0, 66, 60
1, 125185, Note_on_c, 0, 63, 39
1, 125218, Note_off_c, 0, 63, 32
1, 125238, Poly_aftertouch_c, 0, 71, 127
1, 125250, Note_off_c, 0, 66, 52
1, 125259, Note_on_c, 0, 57, 83
1, 125277, Poly_aftertouch_c, 0, 71, 0
1, 125316, Note_on_c, 0, 63, 80
1, 125325, Note_off_c, 0, 57, 61
1, 125381, Note_off_c, 0, 63, 61
1, 125385, Note_on_c, 0, 66, 37
1, 125411, Note_off_c, 0, 66, 56
1, 125432, Note_on_c, 0, 75, 97
1, 125462, Note_off_c, 0, 75, 67
1, 125560, Note_off_c, 0, 99, 29
1, 125608, Note_on_c, 0, 73, 108
1, 125625, Note_off_c, 0, 73, 69
1, 125864, Note_on_c, 0, 97, 96
1, 125865, Note_on_c, 0, 99, 94
1, 125901, Note_off_c, 0, 97, 66
1, 125908, Note_off_c, 0, 99, 66
1, 126087, Note_on_c, 0, 71, 93
1, 126091, Note_on_c, 0, 57, 75
1, 126091, Note_on_c, 0, 66, 94
1, 126097, Note_on_c, 0, 63, 81
1, 126106, Note_on_c, 0, 99, 105
1, 126110, Note_off_c, 0, 66, 72
1, 126110, Note_off_c, 0, 71, 67
1, 126115, Note_on_c, 0, 95, 84
1, 126115, Note_off_c, 0, 57, 66
1, 126118, Note_off_c, 0, 63, 71
1, 126133, Note_off_c, 0, 99, 63
1, 126136, Note_off_c, 0, 95, 71
1, 126310, Note_on_c, 0, 92, 103
1, 126312, Note_on_c, 0, 99, 104
1, 126332, Note_off_c, 0, 99, 64
1, 126333, Note_off_c, 0, 92, 66
1, 126488, Note_on_c, 0, 90, 114
1, 126491, Note_on_c, 0, 99, 107
1, 126510, Note_off_c, 0, 99, 68
1, 126517, Note_off_c, 0, 90, 71
1, 126655, Note_on_c, 0, 99, 93
1, 126660, Note_on_c, 0, 87, 87
1, 126678, Note_off_c, 0, 99, 66
1, 126678, Note_off_c, 0, 87, 74
1, 126786, Note_on_c, 0, 87, 100
1, 126790, Note_on_c, 0, 97, 97
1, 126807, Note_off_c, 0, 97, 72
1, 126809, Note_off_c, 0, 87, 64
1, 126820, Note_on_c, 0, 94, 44
1, 126821, Note_off_c, 0, 94, 127
1, 126894, Note_on_c, 0, 87, 97
1, 126900, Note_on_c, 0, 95, 85
1, 126914, Note_off_c, 0, 87, 67
1, 126918, Note_off_c, 0, 95, 73
1, 126983, Note_on_c, 0, 92, 97
1, 126985, Note_on_c, 0, 87, 86
1, 127004, Note_off_c, 0, 87, 71
1, 127006, Note_off_c, 0, 92, 60
1, 127060, Note_on_c, 0, 90, 99
1, 127099, Note_off_c, 0, 90, 67
1, 127131, Note_on_c, 0, 87, 93
1, 127152, Note_off_c, 0, 87, 68
1, 127178, Note_on_c, 0, 86, 33
1, 127213, Note_off_c, 0, 86, 37
1, 127226, Note_on_c, 0, 87, 86
1, 127227, Note_on_c, 0, 85, 84
1, 127239, Note_off_c, 0, 85, 73
1, 127245, Note_off_c, 0, 87, 72
1, 127254, Note_on_c, 0, 82, 42
1, 127255, Note_off_c, 0, 82, 127
1, 127307, Note_on_c, 0, 87, 88
1, 127312, Note_on_c, 0, 83, 79
1, 127323, Note_off_c, 0, 87, 74
1, 127332, Note_off_c, 0, 83, 73
1, 127400, Note_on_c, 0, 87, 92
1, 127402, Note_on_c, 0, 80, 91
1, 127421, Note_off_c, 0, 80, 72
1, 127432, Note_off_c, 0, 87, 60
1, 127497, Note_on_c, 0, 78, 76
1, 127499, Note_on_c, 0, 87, 91
1, 127528, Note_off_c, 0, 78, 67
1, 127528, Note_off_c, 0, 87, 57
1, 127609, Note_on_c, 0, 87, 86
1, 127615, Note_on_c, 0, 75, 84
1, 127639, Note_off_c, 0, 75, 66
1, 127652, Note_on_c, 0, 85, 32
1, 127656, Note_off_c, 0, 87, 63
1, 127688, Note_off_c, 0, 85, 34
1, 127733, Note_on_c, 0, 75, 80
1, 127738, Note_on_c, 0, 85, 76
1, 127752, Note_off_c, 0, 75, 70
1, 127757, Note_off_c, 0, 85, 70
1, 127838, Note_on_c, 0, 83, 79
1, 127845, Note_on_c, 0, 75, 59
1, 127857, Note_off_c, 0, 83, 71
1, 127863, Note_off_c, 0, 75, 63
1, 127945, Note_on_c, 0, 80, 84
1, 127951, Note_on_c, 0, 71, 69
1, 127957, Note_on_c, 0, 75, 41
1, 128007, Note_off_c, 0, 75, 0
1, 128028, Note_on_c, 0, 75, 25
1, 128076, Note_off_c, 0, 80, 59
1, 128079, Note_off_c, 0, 71, 60
1, 128128, Note_on_c, 0, 78, 81
1, 128160, Note_off_c, 0, 75, 54
1, 128188, Note_off_c, 0, 78, 62
1, 128199, Note_on_c, 0, 71, 75
1, 128256, Note_off_c, 0, 71, 65
1, 128270, Note_on_c, 0, 76, 82
1, 128421, Note_on_c, 0, 44, 52
1, 128422, Control_c, 0, 64, 84
1, 128426, Note_on_c, 0, 32, 50
1, 128437, Control_c, 0, 64, 55
1, 128452, Control_c, 0, 64, 0
1, 128490, Note_on_c, 0, 85, 68
1, 128517, Note_off_c, 0, 76, 66
1, 128552, Note_off_c, 0, 32, 60
1, 128571, Control_c, 0, 64, 33
1, 128583, Note_off_c, 0, 44, 63
1, 128586, Control_c, 0, 64, 53
1, 128601, Control_c, 0, 64, 78
1, 128615, Control_c, 0, 64, 127
1, 128819, Note_on_c, 0, 56, 55
1, 128825, Note_on_c, 0, 71, 67
1, 128862, Note_off_c, 0, 56, 56
1, 128878, Note_off_c, 0, 71, 57
1, 128896, Poly_aftertouch_c, 0, 64, 127
1, 128899, Note_on_c, 0, 64, 1
1, 128938, Note_on_c, 0, 75, 65
1, 128953, Note_off_c, 0, 64, 43
1, 128968, Note_off_c, 0, 75, 64
1, 128976, Note_off_c, 0, 85, 63
1, 128994, Note_on_c, 0, 56, 59
1, 129054, Note_off_c, 0, 56, 63
1, 129068, Note_on_c, 0, 64, 55
1, 129167, Note_on_c, 0, 73, 64
1, 129229, Note_on_c, 0, 83, 69
1, 129240, Note_off_c, 0, 64, 52
1, 129245, Note_off_c, 0, 73, 53
1, 129252, Note_off_c, 0, 83, 70
1, 129307, Note_on_c, 0, 83, 83
1, 129364, Note_off_c, 0, 83, 64
1, 129367, Note_on_c, 0, 85, 85
1, 129424, Note_on_c, 0, 83, 80
1, 129434, Note_off_c, 0, 85, 62
1, 129501, Note_on_c, 0, 82, 85
1, 129502, Note_off_c, 0, 83, 66
1, 129569, Note_on_c, 0, 83, 83
1, 129725, Note_on_c, 0, 71, 66
1, 129726, Note_on_c, 0, 56, 49
1, 129729, Note_on_c, 0, 64, 57
1, 129752, Note_off_c, 0, 56, 62
1, 129765, Note_off_c, 0, 64, 64
1, 129784, Note_off_c, 0, 71, 62
1, 129828, Note_off_c, 0, 82, 61
1, 129833, Note_on_c, 0, 92, 96
1, 129842, Note_off_c, 0, 83, 65
1, 130140, Note_on_c, 0, 87, 88
1, 130149, Note_off_c, 0, 92, 58
1, 130354, Note_on_c, 0, 90, 85
1, 130373, Note_off_c, 0, 87, 58
1, 130462, Note_off_c, 0, 90, 54
1, 130480, Note_on_c, 0, 88, 74
1, 130566, Note_off_c, 0, 88, 64
1, 130603, Note_on_c, 0, 80, 70
1, 130705, Note_on_c, 0, 81, 72
1, 130705, Note_off_c, 0, 80, 0
1, 130743, Poly_aftertouch_c, 0, 80, 127
1, 130787, Note_on_c, 0, 85, 70
1, 130795, Note_off_c, 0, 81, 64
1, 130810, Poly_aftertouch_c, 0, 80, 0
1, 130843, Note_off_c, 0, 85, 61
1, 130947, Note_on_c, 0, 83, 62
1, 131027, Note_on_c, 0, 75, 67
1, 131105, Note_off_c, 0, 83, 35
1, 131130, Note_on_c, 0, 76, 77
1, 131167, Note_off_c, 0, 75, 35
1, 131328, Control_c, 0, 67, 8
1, 131343, Control_c, 0, 67, 10
1, 131358, Control_c, 0, 64, 82
1, 131358, Control_c, 0, 67, 11
1, 131370, Note_on_c, 0, 81, 66
1, 131373, Control_c, 0, 64, 59
1, 131373, Control_c, 0, 67, 12
1, 131374, Note_off_c, 0, 76, 63
1, 131388, Control_c, 0, 64, 29
1, 131388, Control_c, 0, 67, 12
1, 131403, Control_c, 0, 64, 0
1, 131477, Control_c, 0, 67, 11
1, 131491, Control_c, 0, 67, 10
1, 131537, Control_c, 0, 67, 10
1, 131714, Control_c, 0, 67, 10
1, 131744, Control_c, 0, 67, 11
1, 131758, Control_c, 0, 67, 12
1, 131773, Control_c, 0, 67, 13
1, 131788, Control_c, 0, 67, 14
1, 131797, Note_off_c, 0, 81, 63
1, 131803, Control_c, 0, 67, 17
1, 131818, Note_on_c, 0, 80, 59
1, 131818, Control_c, 0, 67, 23
1, 131840, Control_c, 0, 67, 30
1, 131855, Control_c, 0, 67, 40
1, 131870, Control_c, 0, 67, 49
1, 131877, Note_off_c, 0, 80, 61
1, 131885, Control_c, 0, 67, 57
1, 131888, Note_on_c, 0, 81, 66
1, 131900, Control_c, 0, 67, 63
1, 131914, Control_c, 0, 67, 68
1, 131929, Control_c, 0, 67, 74
1, 131944, Control_c, 0, 67, 80
1, 131949, Note_on_c, 0, 80, 65
1, 131959, Control_c, 0, 67, 85
1, 131968, Note_off_c, 0, 81, 56
1, 131973, Control_c, 0, 67, 91
1, 131988, Control_c, 0, 67, 97
1, 132003, Control_c, 0, 67, 104
1, 132018, Control_c, 0, 67, 110
1, 132023, Note_on_c, 0, 78, 70
1, 132033, Control_c, 0, 67, 117
1, 132047, Control_c, 0, 67, 123
1, 132051, Note_off_c, 0, 80, 57
1, 132062, Control_c, 0, 67, 127
1, 132092, Control_c, 0, 64, 14
1, 132107, Control_c, 0, 64, 22
1, 132121, Control_c, 0, 64, 28
1, 132136, Control_c, 0, 64, 34
1, 132151, Control_c, 0, 64, 40
1, 132166, Control_c, 0, 64, 47
1, 132181, Control_c, 0, 64, 55
1, 132196, Control_c, 0, 64, 61
1, 132211, Control_c, 0, 64, 67
1, 132226, Control_c, 0, 64, 72
1, 132240, Note_off_c, 0, 78, 64
1, 132240, Control_c, 0, 64, 74
1, 132243, Note_on_c, 0, 76, 59
1, 132265, Note_off_c, 0, 76, 67
1, 132416, Note_on_c, 0, 71, 62
1, 132453, Note_off_c, 0, 71, 66
1, 132702, Note_on_c, 0, 45, 42
1, 132708, Control_c, 0, 64, 72
1, 132710, Note_on_c, 0, 33, 37
1, 132723, Control_c, 0, 64, 66
1, 132737, Control_c, 0, 64, 60
1, 132752, Control_c, 0, 64, 47
1, 132767, Control_c, 0, 64, 19
1, 132782, Control_c, 0, 64, 0
1, 132783, Note_on_c, 0, 87, 64
1, 132855, Control_c, 0, 64, 25
1, 132870, Control_c, 0, 64, 40
1, 132871, Note_off_c, 0, 33, 28
1, 132885, Control_c, 0, 64, 57
1, 132898, Note_off_c, 0, 45, 43
1, 132900, Control_c, 0, 64, 75
1, 132914, Control_c, 0, 64, 127
1, 133242, Note_on_c, 0, 71, 55
1, 133245, Note_on_c, 0, 63, 52
1, 133254, Note_on_c, 0, 66, 46
1, 133280, Note_off_c, 0, 71, 54
1, 133296, Note_off_c, 0, 63, 54
1, 133306, Note_off_c, 0, 66, 41
1, 133385, Note_on_c, 0, 57, 60
1, 133450, Note_on_c, 0, 63, 57
1, 133450, Note_off_c, 0, 57, 56
1, 133513, Note_on_c, 0, 66, 47
1, 133516, Note_off_c, 0, 63, 62
1, 133543, Note_off_c, 0, 66, 53
1, 133582, Note_on_c, 0, 74, 61
1, 133612, Note_off_c, 0, 74, 65
1, 133708, Control_c, 0, 67, 126
1, 133723, Control_c, 0, 67, 126
1, 133731, Note_on_c, 0, 72, 66
1, 133737, Control_c, 0, 67, 124
1, 133749, Note_off_c, 0, 72, 66
1, 133752, Control_c, 0, 67, 117
1, 133755, Note_off_c, 0, 87, 43
1, 133767, Control_c, 0, 67, 102
1, 133782, Control_c, 0, 67, 71
1, 133797, Control_c, 0, 67, 36
1, 133812, Control_c, 0, 67, 0
1, 134019, Note_on_c, 0, 84, 57
1, 134021, Note_on_c, 0, 87, 67
1, 134056, Note_off_c, 0, 84, 64
1, 134073, Note_off_c, 0, 87, 64
1, 134116, Control_c, 0, 67, 8
1, 134131, Control_c, 0, 67, 11
1, 134146, Control_c, 0, 67, 14
1, 134160, Control_c, 0, 67, 16
1, 134175, Control_c, 0, 67, 19
1, 134190, Control_c, 0, 67, 22
1, 134205, Control_c, 0, 67, 25
1, 134220, Control_c, 0, 67, 28
1, 134235, Control_c, 0, 67, 32
1, 134250, Control_c, 0, 67, 37
1, 134265, Control_c, 0, 67, 42
1, 134280, Control_c, 0, 67, 48
1, 134294, Control_c, 0, 67, 53
1, 134309, Control_c, 0, 67, 58
1, 134324, Control_c, 0, 67, 63
1, 134339, Control_c, 0, 67, 68
1, 134353, Control_c, 0, 67, 73
1, 134357, Note_on_c, 0, 66, 54
1, 134358, Note_on_c, 0, 71, 49
1, 134367, Note_on_c, 0, 63, 47
1, 134368, Control_c, 0, 64, 93
1, 134368, Control_c, 0, 67, 77
1, 134369, Note_on_c, 0, 57, 44
1, 134383, Control_c, 0, 64, 68
1, 134383, Control_c, 0, 67, 79
1, 134398, Control_c, 0, 64, 61
1, 134410, Note_on_c, 0, 87, 77
1, 134413, Control_c, 0, 64, 59
1, 134415, Note_on_c, 0, 83, 71
1, 134427, Control_c, 0, 64, 60
1, 134442, Control_c, 0, 64, 62
1, 134457, Control_c, 0, 64, 68
1, 134470, Note_off_c, 0, 83, 62
1, 134471, Note_off_c, 0, 71, 57
1, 134472, Control_c, 0, 64, 122
1, 134477, Note_off_c, 0, 87, 63
1, 134483, Note_off_c, 0, 66, 56
1, 134487, Control_c, 0, 64, 127
1, 134492, Note_off_c, 0, 63, 50
1, 134501, Control_c, 0, 67, 78
1, 134516, Control_c, 0, 67, 78
1, 134531, Control_c, 0, 67, 77
1, 134546, Control_c, 0, 67, 75
1, 134560, Control_c, 0, 67, 74
1, 134563, Note_off_c, 0, 57, 32
1, 134575, Control_c, 0, 67, 74
1, 134605, Control_c, 0, 67, 73
1, 134700, Note_on_c, 0, 87, 79
1, 134700, Note_on_c, 0, 80, 74
1, 134725, Note_off_c, 0, 87, 67
1, 134726, Note_off_c, 0, 80, 66
1, 134754, Control_c, 0, 67, 73
1, 134935, Note_on_c, 0, 78, 83
1, 134938, Note_on_c, 0, 87, 81
1, 134962, Note_off_c, 0, 87, 66
1, 134964, Note_off_c, 0, 78, 61
1, 135118, Note_on_c, 0, 87, 82
1, 135124, Note_on_c, 0, 75, 80
1, 135148, Note_off_c, 0, 75, 66
1, 135157, Note_off_c, 0, 87, 59
1, 135162, Control_c, 0, 67, 72
1, 135177, Control_c, 0, 67, 72
1, 135191, Control_c, 0, 67, 71
1, 135206, Control_c, 0, 67, 71
1, 135221, Control_c, 0, 67, 70
1, 135251, Control_c, 0, 67, 70
1, 135265, Control_c, 0, 67, 69
1, 135284, Note_on_c, 0, 84, 83
1, 135290, Note_on_c, 0, 75, 75
1, 135295, Control_c, 0, 67, 67
1, 135309, Control_c, 0, 67, 65
1, 135314, Note_off_c, 0, 75, 66
1, 135323, Note_off_c, 0, 84, 60
1, 135324, Control_c, 0, 67, 63
1, 135339, Control_c, 0, 67, 58
1, 135354, Control_c, 0, 67, 53
1, 135369, Control_c, 0, 67, 48
1, 135383, Control_c, 0, 67, 43
1, 135398, Control_c, 0, 67, 37
1, 135413, Control_c, 0, 67, 30
1, 135428, Control_c, 0, 67, 23
1, 135430, Note_on_c, 0, 83, 88
1, 135433, Note_on_c, 0, 75, 86
1, 135443, Control_c, 0, 67, 17
1, 135457, Control_c, 0, 67, 12
1, 135458, Note_off_c, 0, 75, 64
1, 135472, Control_c, 0, 67, 9
1, 135475, Note_off_c, 0, 83, 63
1, 135487, Control_c, 0, 67, 8
1, 135503, Control_c, 0, 67, 0
1, 135570, Note_on_c, 0, 75, 87
1, 135579, Note_on_c, 0, 80, 90
1, 135620, Note_off_c, 0, 75, 57
1, 135624, Note_off_c, 0, 80, 62
1, 135629, Control_c, 0, 67, 8
1, 135674, Control_c, 0, 67, 0
1, 135698, Note_on_c, 0, 78, 87
1, 135747, Control_c, 0, 67, 8
1, 135764, Note_off_c, 0, 78, 60
1, 135779, Note_on_c, 0, 75, 91
1, 135815, Note_off_c, 0, 75, 67
1, 135821, Control_c, 0, 67, 0
1, 135890, Note_on_c, 0, 72, 94
1, 135908, Note_off_c, 0, 72, 72
1, 135976, Note_on_c, 0, 75, 88
1, 135978, Note_on_c, 0, 71, 80
1, 135999, Note_off_c, 0, 71, 73
1, 136000, Note_off_c, 0, 75, 65
1, 136057, Note_on_c, 0, 68, 95
1, 136063, Note_on_c, 0, 75, 85
1, 136080, Note_off_c, 0, 75, 70
1, 136084, Note_off_c, 0, 68, 62
1, 136146, Note_on_c, 0, 66, 92
1, 136151, Note_on_c, 0, 75, 83
1, 136167, Note_off_c, 0, 66, 68
1, 136172, Note_off_c, 0, 75, 64
1, 136237, Note_on_c, 0, 75, 86
1, 136245, Note_on_c, 0, 63, 77
1, 136256, Note_off_c, 0, 75, 68
1, 136263, Note_off_c, 0, 63, 69
1, 136323, Note_on_c, 0, 62, 89
1, 136336, Note_on_c, 0, 74, 83
1, 136349, Note_off_c, 0, 62, 73
1, 136352, Note_off_c, 0, 74, 76
1, 136411, Note_on_c, 0, 61, 95
1, 136420, Note_on_c, 0, 73, 78
1, 136430, Note_off_c, 0, 61, 72
1, 136438, Note_off_c, 0, 73, 72
1, 136491, Note_on_c, 0, 60, 105
1, 136493, Note_on_c, 0, 72, 100
1, 136520, Note_on_c, 0, 73, 25
1, 136523, Note_off_c, 0, 60, 70
1, 136524, Note_off_c, 0, 72, 69
1, 136554, Control_c, 0, 64, 56
1, 136557, Note_off_c, 0, 73, 37
1, 136569, Control_c, 0, 64, 0
1, 136999, Note_on_c, 0, 59, 92
1, 137007, Note_on_c, 0, 71, 88
1, 137028, Note_off_c, 0, 71, 71
1, 137032, Note_off_c, 0, 59, 70
1, 137087, Note_on_c, 0, 46, 106
1, 137088, Note_on_c, 0, 59, 100
1, 137088, Note_on_c, 0, 34, 87
1, 137089, Note_on_c, 0, 71, 98
1, 137115, Note_off_c, 0, 46, 71
1, 137118, Note_off_c, 0, 34, 70
1, 137125, Control_c, 0, 64, 34
1, 137140, Control_c, 0, 64, 53
1, 137155, Control_c, 0, 64, 65
1, 137170, Control_c, 0, 64, 88
1, 137184, Control_c, 0, 64, 127
1, 137308, Note_off_c, 0, 59, 52
1, 137479, Note_off_c, 0, 71, 60
1, 137704, Note_on_c, 0, 63, 94
1, 137704, Note_on_c, 0, 67, 92
1, 137708, Note_on_c, 0, 55, 76
1, 137720, Note_off_c, 0, 67, 76
1, 137731, Note_off_c, 0, 55, 69
1, 137731, Note_off_c, 0, 63, 64
1, 137978, Note_on_c, 0, 51, 25
1, 137988, Note_on_c, 0, 55, 89
1, 137988, Note_on_c, 0, 46, 84
1, 138007, Note_off_c, 0, 55, 73
1, 138010, Note_off_c, 0, 46, 69
1, 138024, Note_off_c, 0, 51, 65
1, 138104, Note_on_c, 0, 70, 97
1, 138105, Note_on_c, 0, 58, 95
1, 138131, Note_off_c, 0, 58, 65
1, 138153, Note_off_c, 0, 70, 62
1, 138289, Note_on_c, 0, 67, 105
1, 138291, Note_on_c, 0, 79, 102
1, 138317, Note_off_c, 0, 67, 73
1, 138319, Note_off_c, 0, 79, 68
1, 138428, Note_on_c, 0, 62, 100
1, 138432, Note_on_c, 0, 74, 99
1, 138461, Note_off_c, 0, 74, 74
1, 138462, Note_off_c, 0, 62, 68
1, 138550, Note_on_c, 0, 65, 102
1, 138551, Note_on_c, 0, 77, 100
1, 138588, Note_off_c, 0, 77, 70
1, 138589, Note_off_c, 0, 65, 71
1, 138667, Note_on_c, 0, 63, 99
1, 138670, Note_on_c, 0, 75, 91
1, 138691, Note_off_c, 0, 75, 66
1, 138697, Note_off_c, 0, 63, 63
1, 138791, Note_on_c, 0, 55, 98
1, 138794, Note_on_c, 0, 67, 105
1, 138810, Note_off_c, 0, 55, 73
1, 138811, Note_off_c, 0, 67, 76
1, 139091, Note_on_c, 0, 60, 101
1, 139098, Note_on_c, 0, 72, 97
1, 139124, Note_off_c, 0, 72, 65
1, 139126, Note_off_c, 0, 60, 67
1, 139156, Control_c, 0, 64, 58
1, 139163, Note_on_c, 0, 46, 111
1, 139165, Note_on_c, 0, 34, 88
1, 139166, Note_on_c, 0, 60, 101
1, 139166, Note_on_c, 0, 72, 89
1, 139171, Control_c, 0, 64, 0
1, 139195, Note_off_c, 0, 34, 68
1, 139197, Note_off_c, 0, 46, 66
1, 139246, Control_c, 0, 64, 25
1, 139261, Control_c, 0, 64, 52
1, 139275, Control_c, 0, 64, 77
1, 139290, Control_c, 0, 64, 127
1, 139304, Note_off_c, 0, 60, 58
1, 139613, Note_on_c, 0, 68, 75
1, 139620, Note_on_c, 0, 65, 61
1, 139624, Poly_aftertouch_c, 0, 61, 127
1, 139637, Note_off_c, 0, 68, 68
1, 139640, Note_off_c, 0, 65, 67
1, 139667, Poly_aftertouch_c, 0, 61, 0
1, 139753, Note_off_c, 0, 72, 61
1, 139767, Note_on_c, 0, 46, 63
1, 139803, Note_on_c, 0, 53, 61
1, 139848, Note_on_c, 0, 58, 94
1, 139854, Note_off_c, 0, 46, 63
1, 139881, Note_off_c, 0, 53, 66
1, 139882, Note_on_c, 0, 62, 91
1, 139890, Control_c, 0, 64, 66
1, 139902, Note_off_c, 0, 58, 66
1, 139905, Control_c, 0, 64, 61
1, 139911, Note_off_c, 0, 62, 69
1, 139913, Note_on_c, 0, 60, 42
1, 139920, Control_c, 0, 64, 66
1, 139935, Control_c, 0, 64, 85
1, 139937, Note_off_c, 0, 60, 63
1, 139950, Control_c, 0, 64, 127
1, 139999, Note_on_c, 0, 58, 99
1, 139999, Note_on_c, 0, 70, 98
1, 140014, Note_off_c, 0, 58, 74
1, 140039, Note_off_c, 0, 70, 62
1, 140210, Note_on_c, 0, 86, 102
1, 140211, Note_on_c, 0, 74, 100
1, 140238, Note_off_c, 0, 86, 71
1, 140239, Note_off_c, 0, 74, 73
1, 140371, Note_on_c, 0, 72, 103
1, 140373, Note_on_c, 0, 84, 102
1, 140399, Note_off_c, 0, 72, 69
1, 140399, Note_off_c, 0, 84, 72
1, 140516, Note_on_c, 0, 70, 103
1, 140516, Note_on_c, 0, 82, 98
1, 140542, Note_off_c, 0, 70, 59
1, 140551, Note_off_c, 0, 82, 63
1, 140628, Note_on_c, 0, 68, 96
1, 140630, Note_on_c, 0, 80, 95
1, 140641, Note_on_c, 0, 70, 72
1, 140648, Note_off_c, 0, 80, 70
1, 140653, Note_off_c, 0, 70, 74
1, 140659, Note_off_c, 0, 68, 62
1, 140762, Poly_aftertouch_c, 0, 70, 127
1, 140767, Note_on_c, 0, 59, 97
1, 140774, Note_on_c, 0, 72, 80
1, 140781, Note_on_c, 0, 60, 65
1, 140784, Note_on_c, 0, 71, 75
1, 140787, Poly_aftertouch_c, 0, 70, 0
1, 140799, Note_off_c, 0, 71, 70
1, 140800, Note_off_c, 0, 60, 63
1, 140802, Note_off_c, 0, 59, 66
1, 140811, Note_off_c, 0, 72, 63
1, 140904, Note_on_c, 0, 60, 88
1, 140912, Note_on_c, 0, 72, 101
1, 140945, Note_off_c, 0, 60, 67
1, 140947, Note_off_c, 0, 72, 68
1, 141025, Note_on_c, 0, 61, 89
1, 141049, Note_on_c, 0, 74, 52
1, 141050, Note_on_c, 0, 72, 51
1, 141050, Note_off_c, 0, 61, 65
1, 141067, Note_off_c, 0, 72, 65
1, 141070, Note_off_c, 0, 74, 64
1, 141134, Note_on_c, 0, 62, 84
1, 141146, Note_on_c, 0, 74, 56
1, 141154, Note_on_c, 0, 73, 32
1, 141157, Note_off_c, 0, 62, 67
1, 141165, Note_on_c, 0, 39, 71
1, 141165, Note_off_c, 0, 74, 67
1, 141188, Note_off_c, 0, 73, 57
1, 141240, Note_on_c, 0, 46, 77
1, 141254, Note_off_c, 0, 39, 64
1, 141276, Note_on_c, 0, 75, 96
1, 141278, Note_on_c, 0, 63, 95
1, 141281, Note_on_c, 0, 55, 98
1, 141300, Control_c, 0, 64, 57
1, 141314, Control_c, 0, 64, 0
1, 141463, Control_c, 0, 64, 16
1, 141477, Control_c, 0, 64, 42
1, 141492, Control_c, 0, 64, 62
1, 141507, Control_c, 0, 64, 127
1, 141577, Note_off_c, 0, 63, 64
1, 141589, Note_off_c, 0, 55, 59
1, 141623, Note_off_c, 0, 75, 53
1, 141630, Note_off_c, 0, 46, 59
1, 141960, Control_c, 0, 64, 89
1, 141974, Control_c, 0, 64, 62
1, 141989, Control_c, 0, 64, 38
1, 142004, Control_c, 0, 64, 0
1, 142322, Control_c, 0, 64, 9
1, 142337, Control_c, 0, 64, 11
1, 142352, Control_c, 0, 64, 14
1, 142367, Control_c, 0, 64, 17
1, 142378, Note_on_c, 0, 51, 83
1, 142382, Control_c, 0, 64, 19
1, 142397, Control_c, 0, 64, 22
1, 142411, Control_c, 0, 64, 23
1, 142417, Note_off_c, 0, 51, 63
1, 142426, Control_c, 0, 64, 23
1, 142441, Control_c, 0, 64, 20
1, 142455, Note_on_c, 0, 51, 89
1, 142456, Control_c, 0, 64, 0
1, 142618, Control_c, 0, 64, 16
1, 142633, Control_c, 0, 64, 27
1, 142648, Control_c, 0, 64, 34
1, 142663, Control_c, 0, 64, 41
1, 142678, Control_c, 0, 64, 49
1, 142694, Control_c, 0, 64, 55
1, 142709, Control_c, 0, 64, 59
1, 142723, Control_c, 0, 64, 61
1, 142753, Control_c, 0, 64, 61
1, 142768, Control_c, 0, 64, 62
1, 142783, Control_c, 0, 64, 63
1, 142810, Note_off_c, 0, 51, 64
1, 142813, Note_on_c, 0, 53, 82
1, 142901, Control_c, 0, 64, 62
1, 142915, Control_c, 0, 64, 62
1, 142967, Note_on_c, 0, 51, 88
1, 142984, Note_off_c, 0, 53, 64
1, 143020, Control_c, 0, 64, 61
1, 143082, Note_off_c, 0, 51, 63
1, 143084, Note_on_c, 0, 53, 88
1, 143116, Control_c, 0, 64, 62
1, 143179, Note_off_c, 0, 53, 65
1, 143184, Note_on_c, 0, 51, 88
1, 143249, Note_on_c, 0, 53, 77
1, 143251, Note_off_c, 0, 51, 62
1, 143294, Control_c, 0, 64, 62
1, 143312, Note_off_c, 0, 53, 66
1, 143319, Note_on_c, 0, 51, 86
1, 143374, Note_off_c, 0, 51, 65
1, 143377, Note_on_c, 0, 53, 79
1, 143441, Note_on_c, 0, 51, 87
1, 143442, Note_off_c, 0, 53, 66
1, 143496, Note_on_c, 0, 53, 76
1, 143497, Note_off_c, 0, 51, 65
1, 143568, Note_on_c, 0, 51, 92
1, 143568, Note_off_c, 0, 53, 66
1, 143576, Control_c, 0, 64, 63
1, 143606, Control_c, 0, 64, 63
1, 143615, Note_on_c, 0, 53, 74
1, 143623, Note_off_c, 0, 51, 65
1, 143693, Note_on_c, 0, 51, 92
1, 143696, Note_off_c, 0, 53, 65
1, 143724, Control_c, 0, 64, 63
1, 143744, Note_on_c, 0, 53, 75
1, 143747, Note_off_c, 0, 51, 67
1, 143753, Control_c, 0, 64, 62
1, 143783, Control_c, 0, 64, 62
1, 143825, Note_off_c, 0, 53, 67
1, 143832, Note_on_c, 0, 51, 93
1, 143835, Control_c, 0, 64, 61
1, 143887, Note_on_c, 0, 53, 88
1, 143890, Note_off_c, 0, 51, 65
1, 143954, Control_c, 0, 64, 62
1, 143969, Control_c, 0, 64, 62
1, 143972, Note_on_c, 0, 51, 89
1, 143974, Note_off_c, 0, 53, 66
1, 143984, Control_c, 0, 64, 63
1, 143999, Control_c, 0, 64, 63
1, 144028, Control_c, 0, 64, 64
1, 144038, Note_on_c, 0, 53, 73
1, 144042, Note_off_c, 0, 51, 63
1, 144125, Note_off_c, 0, 53, 65
1, 144127, Note_on_c, 0, 51, 79
1, 144191, Note_off_c, 0, 51, 63
1, 144203, Note_on_c, 0, 53, 65
1, 144279, Note_off_c, 0, 53, 64
1, 144286, Note_on_c, 0, 51, 76
1, 144346, Note_off_c, 0, 51, 61
1, 144362, Note_on_c, 0, 53, 63
1, 144433, Note_off_c, 0, 53, 63
1, 144444, Note_on_c, 0, 51, 66
1, 144471, Note_off_c, 0, 51, 65
1, 144528, Note_on_c, 0, 53, 27
1, 144544, Note_on_c, 0, 51, 72
1, 144588, Note_off_c, 0, 51, 66
1, 144593, Note_off_c, 0, 53, 0
1, 144593, Note_on_c, 0, 53, 33
1, 144637, Poly_aftertouch_c, 0, 54, 127
1, 144653, Note_on_c, 0, 51, 78
1, 144658, Note_off_c, 0, 53, 65
1, 144678, Poly_aftertouch_c, 0, 54, 0
1, 144701, Note_off_c, 0, 51, 64
1, 144702, Note_on_c, 0, 50, 87
1, 144702, Control_c, 0, 64, 62
1, 144717, Control_c, 0, 64, 54
1, 144732, Control_c, 0, 64, 14
1, 144747, Control_c, 0, 64, 0
1, 144871, Note_on_c, 0, 51, 77
1, 144871, Note_off_c, 0, 50, 60
1, 144880, Control_c, 0, 64, 15
1, 144895, Control_c, 0, 64, 20
1, 144909, Control_c, 0, 64, 23
1, 144924, Control_c, 0, 64, 25
1, 144927, Note_off_c, 0, 51, 63
1, 144939, Control_c, 0, 64, 25
1, 144954, Control_c, 0, 64, 26
1, 144969, Control_c, 0, 64, 26
1, 144977, Note_on_c, 0, 55, 72
1, 144984, Control_c, 0, 64, 27
1, 144999, Control_c, 0, 64, 27
1, 145013, Control_c, 0, 64, 29
1, 145028, Control_c, 0, 64, 31
1, 145043, Control_c, 0, 64, 33
1, 145058, Control_c, 0, 64, 36
1, 145060, Note_on_c, 0, 58, 77
1, 145066, Note_off_c, 0, 55, 65
1, 145073, Control_c, 0, 64, 39
1, 145088, Control_c, 0, 64, 42
1, 145103, Control_c, 0, 64, 47
1, 145118, Control_c, 0, 64, 50
1, 145121, Note_on_c, 0, 61, 73
1, 145133, Control_c, 0, 64, 51
1, 145134, Note_off_c, 0, 58, 63
1, 145148, Control_c, 0, 64, 52
1, 145161, Note_on_c, 0, 63, 67
1, 145169, Note_off_c, 0, 61, 66
1, 145181, Note_off_c, 0, 63, 63
1, 145207, Control_c, 0, 64, 51
1, 145228, Note_on_c, 0, 67, 70
1, 145248, Note_on_c, 0, 69, 52
1, 145275, Note_off_c, 0, 69, 55
1, 145279, Note_off_c, 0, 67, 64
1, 145294, Note_on_c, 0, 70, 50
1, 145296, Control_c, 0, 64, 52
1, 145318, Note_on_c, 0, 71, 64
1, 145333, Control_c, 0, 64, 52
1, 145348, Control_c, 0, 64, 52
1, 145363, Control_c, 0, 64, 49
1, 145369, Note_off_c, 0, 71, 65
1, 145377, Control_c, 0, 64, 42
1, 145383, Note_on_c, 0, 73, 50
1, 145384, Note_on_c, 0, 74, 57
1, 145392, Note_off_c, 0, 70, 40
1, 145392, Control_c, 0, 64, 0
1, 145417, Note_off_c, 0, 74, 66
1, 145420, Note_off_c, 0, 73, 64
1, 145423, Note_on_c, 0, 77, 88
1, 145599, Control_c, 0, 64, 17
1, 145614, Control_c, 0, 64, 30
1, 145629, Control_c, 0, 64, 40
1, 145643, Control_c, 0, 64, 52
1, 145658, Control_c, 0, 64, 63
1, 145673, Control_c, 0, 64, 79
1, 145688, Control_c, 0, 64, 127
1, 146026, Note_off_c, 0, 77, 64
1, 146126, Control_c, 0, 67, 15
1, 146141, Control_c, 0, 67, 29
1, 146155, Control_c, 0, 67, 49
1, 146170, Control_c, 0, 67, 76
1, 146185, Control_c, 0, 67, 114
1, 146200, Control_c, 0, 67, 127
1, 146206, Note_on_c, 0, 51, 42
1, 146261, Note_off_c, 0, 51, 56
1, 146424, Note_on_c, 0, 65, 62
1, 146448, Note_on_c, 0, 67, 33
1, 146485, Note_off_c, 0, 67, 51
1, 146507, Note_off_c, 0, 65, 56
1, 146570, Note_on_c, 0, 63, 6
1, 146616, Note_off_c, 0, 63, 51
1, 146647, Note_on_c, 0, 60, 68
1, 146668, Note_on_c, 0, 67, 49
1, 146687, Note_off_c, 0, 60, 53
1, 146743, Note_off_c, 0, 67, 0
1, 146743, Note_on_c, 0, 67, 10
1, 146748, Note_on_c, 0, 58, 68
1, 146778, Control_c, 0, 67, 124
1, 146793, Control_c, 0, 67, 101
1, 146816, Control_c, 0, 67, 76
1, 146831, Control_c, 0, 67, 49
1, 146845, Control_c, 0, 67, 22
1, 146860, Control_c, 0, 67, 0
1, 146861, Note_on_c, 0, 75, 72
1, 146883, Note_off_c, 0, 58, 53
1, 146886, Note_on_c, 0, 53, 54
1, 146919, Note_on_c, 0, 51, 66
1, 146947, Note_off_c, 0, 53, 63
1, 146978, Note_off_c, 0, 51, 61
1, 147064, Note_off_c, 0, 75, 56
1, 147068, Note_on_c, 0, 48, 54
1, 147072, Note_on_c, 0, 69, 75
1, 147083, Control_c, 0, 64, 105
1, 147083, Control_c, 0, 67, 8
1, 147097, Control_c, 0, 64, 60
1, 147097, Control_c, 0, 67, 11
1, 147112, Control_c, 0, 64, 0
1, 147112, Control_c, 0, 67, 14
1, 147124, Note_on_c, 0, 61, 7
1, 147127, Control_c, 0, 67, 18
1, 147142, Control_c, 0, 67, 23
1, 147157, Control_c, 0, 67, 30
1, 147171, Control_c, 0, 67, 37
1, 147175, Note_off_c, 0, 61, 33
1, 147186, Control_c, 0, 67, 45
1, 147199, Note_on_c, 0, 46, 60
1, 147201, Note_off_c, 0, 48, 33
1, 147201, Control_c, 0, 64, 27
1, 147201, Control_c, 0, 67, 54
1, 147215, Control_c, 0, 64, 40
1, 147215, Control_c, 0, 67, 60
1, 147230, Control_c, 0, 64, 50
1, 147230, Control_c, 0, 67, 66
1, 147245, Control_c, 0, 64, 58
1, 147245, Control_c, 0, 67, 72
1, 147260, Control_c, 0, 64, 62
1, 147260, Control_c, 0, 67, 80
1, 147275, Control_c, 0, 64, 63
1, 147275, Control_c, 0, 67, 89
1, 147289, Control_c, 0, 64, 62
1, 147289, Control_c, 0, 67, 99
1, 147304, Control_c, 0, 64, 58
1, 147304, Control_c, 0, 67, 108
1, 147310, Note_off_c, 0, 46, 60
1, 147319, Control_c, 0, 64, 46
1, 147319, Control_c, 0, 67, 118
1, 147334, Control_c, 0, 64, 0
1, 147334, Control_c, 0, 67, 127
1, 147350, Note_on_c, 0, 41, 45
1, 147364, Note_off_c, 0, 69, 57
1, 147367, Note_on_c, 0, 70, 53
1, 147375, Note_off_c, 0, 67, 52
1, 147388, Note_on_c, 0, 61, 31
1, 147498, Control_c, 0, 64, 11
1, 147503, Note_off_c, 0, 61, 44
1, 147512, Control_c, 0, 64, 15
1, 147527, Control_c, 0, 64, 18
1, 147533, Note_off_c, 0, 41, 41
1, 147542, Control_c, 0, 64, 20
1, 147565, Control_c, 0, 64, 22
1, 147576, Note_on_c, 0, 39, 35
1, 147594, Control_c, 0, 64, 14
1, 147609, Control_c, 0, 64, 0
1, 147684, Control_c, 0, 64, 12
1, 147699, Control_c, 0, 64, 35
1, 147713, Control_c, 0, 64, 50
1, 147728, Control_c, 0, 64, 64
1, 147735, Note_off_c, 0, 70, 59
1, 147743, Control_c, 0, 64, 115
1, 147758, Control_c, 0, 64, 127
1, 147789, Note_off_c, 0, 39, 53
1, 148084, Control_c, 0, 64, 81
1, 148088, Note_on_c, 0, 78, 82
1, 148099, Control_c, 0, 64, 63
1, 148113, Control_c, 0, 64, 51
1, 148128, Control_c, 0, 64, 32
1, 148143, Control_c, 0, 64, 21
1, 148158, Control_c, 0, 64, 27
1, 148173, Control_c, 0, 64, 38
1, 148187, Control_c, 0, 64, 50
1, 148202, Control_c, 0, 64, 64
1, 148217, Control_c, 0, 64, 127
1, 148276, Note_on_c, 0, 51, 54
1, 148290, Note_off_c, 0, 78, 58
1, 148363, Note_off_c, 0, 51, 58
1, 148476, Note_on_c, 0, 69, 57
1, 148483, Note_on_c, 0, 66, 69
1, 148490, Note_on_c, 0, 63, 42
1, 148555, Note_off_c, 0, 66, 0
1, 148560, Note_off_c, 0, 69, 61
1, 148566, Control_c, 0, 67, 126
1, 148567, Note_on_c, 0, 65, 64
1, 148569, Note_off_c, 0, 63, 39
1, 148581, Control_c, 0, 67, 112
1, 148588, Poly_aftertouch_c, 0, 66, 0
1, 148596, Control_c, 0, 67, 94
1, 148610, Control_c, 0, 67, 72
1, 148611, Note_off_c, 0, 65, 63
1, 148625, Control_c, 0, 67, 49
1, 148637, Note_on_c, 0, 61, 65
1, 148640, Control_c, 0, 67, 25
1, 148645, Note_on_c, 0, 69, 69
1, 148654, Control_c, 0, 67, 0
1, 148662, Note_off_c, 0, 61, 69
1, 148740, Note_on_c, 0, 60, 49
1, 148744, Note_on_c, 0, 62, 39
1, 148776, Note_off_c, 0, 62, 54
1, 148788, Note_off_c, 0, 60, 57
1, 148790, Note_on_c, 0, 54, 74
1, 148796, Note_on_c, 0, 77, 90
1, 148855, Note_off_c, 0, 77, 60
1, 148891, Note_on_c, 0, 53, 62
1, 148942, Note_off_c, 0, 54, 60
1, 148945, Note_on_c, 0, 51, 68
1, 148948, Note_on_c, 0, 71, 88
1, 148961, Note_off_c, 0, 53, 66
1, 148982, Note_off_c, 0, 51, 64
1, 148991, Note_on_c, 0, 63, 48
1, 149024, Note_off_c, 0, 63, 51
1, 149044, Note_on_c, 0, 48, 67
1, 149110, Note_off_c, 0, 48, 60
1, 149127, Note_on_c, 0, 72, 88
1, 149141, Note_on_c, 0, 42, 74
1, 149148, Note_off_c, 0, 69, 64
1, 149152, Note_off_c, 0, 71, 67
1, 149169, Note_off_c, 0, 72, 68
1, 149227, Note_off_c, 0, 42, 61
1, 149232, Note_on_c, 0, 39, 61
1, 149267, Note_on_c, 0, 38, 39
1, 149281, Note_off_c, 0, 39, 39
1, 149307, Note_off_c, 0, 38, 48
1, 149343, Control_c, 0, 64, 100
1, 149357, Control_c, 0, 64, 62
1, 149372, Control_c, 0, 64, 30
1, 149387, Control_c, 0, 64, 0
1, 149436, Note_on_c, 0, 80, 97
1, 149461, Control_c, 0, 64, 19
1, 149476, Control_c, 0, 64, 45
1, 149491, Control_c, 0, 64, 68
1, 149506, Control_c, 0, 64, 127
1, 149532, Note_off_c, 0, 80, 61
1, 149566, Note_on_c, 0, 51, 70
1, 149595, Note_off_c, 0, 51, 66
1, 149677, Note_on_c, 0, 68, 68
1, 149682, Note_on_c, 0, 65, 59
1, 149692, Note_on_c, 0, 71, 44
1, 149727, Note_on_c, 0, 67, 73
1, 149741, Note_off_c, 0, 65, 60
1, 149742, Note_off_c, 0, 71, 52
1, 149777, Note_off_c, 0, 67, 67
1, 149783, Note_off_c, 0, 68, 52
1, 149804, Note_on_c, 0, 63, 56
1, 149833, Note_off_c, 0, 63, 67
1, 149842, Note_on_c, 0, 65, 64
1, 149855, Note_on_c, 0, 71, 53
1, 149879, Note_on_c, 0, 62, 74
1, 149905, Note_off_c, 0, 65, 56
1, 149905, Note_off_c, 0, 71, 47
1, 149939, Note_on_c, 0, 56, 80
1, 149939, Note_off_c, 0, 62, 57
1, 149989, Note_on_c, 0, 65, 62
1, 149998, Note_on_c, 0, 71, 54
1, 150022, Note_on_c, 0, 55, 78
1, 150028, Note_on_c, 0, 70, 31
1, 150039, Note_off_c, 0, 65, 60
1, 150054, Note_on_c, 0, 51, 73
1, 150059, Note_off_c, 0, 70, 32
1, 150064, Note_off_c, 0, 56, 56
1, 150072, Note_off_c, 0, 55, 64
1, 150081, Note_off_c, 0, 71, 0
1, 150088, Note_off_c, 0, 51, 65
1, 150100, Note_on_c, 0, 71, 44
1, 150100, Note_on_c, 0, 79, 94
1, 150109, Note_on_c, 0, 65, 76
1, 150149, Note_on_c, 0, 50, 70
1, 150196, Note_off_c, 0, 50, 59
1, 150208, Note_on_c, 0, 44, 82
1, 150264, Note_off_c, 0, 65, 37
1, 150267, Note_on_c, 0, 43, 79
1, 150275, Note_off_c, 0, 44, 62
1, 150296, Note_off_c, 0, 43, 65
1, 150341, Note_off_c, 0, 79, 60
1, 150376, Note_on_c, 0, 67, 80
1, 150406, Note_off_c, 0, 71, 40
1, 150435, Note_on_c, 0, 73, 83
1, 150436, Note_off_c, 0, 67, 67
1, 150497, Note_off_c, 0, 73, 64
1, 150521, Control_c, 0, 64, 59
1, 150522, Note_on_c, 0, 82, 97
1, 150536, Control_c, 0, 64, 0
1, 150723, Control_c, 0, 64, 22
1, 150737, Control_c, 0, 64, 33
1, 150752, Control_c, 0, 64, 43
1, 150767, Control_c, 0, 64, 53
1, 150782, Control_c, 0, 64, 61
1, 150797, Control_c, 0, 64, 67
1, 150812, Control_c, 0, 64, 72
1, 150827, Control_c, 0, 64, 72
1, 150871, Control_c, 0, 64, 73
1, 150886, Control_c, 0, 64, 76
1, 150901, Control_c, 0, 64, 80
1, 150916, Control_c, 0, 64, 86
1, 150930, Control_c, 0, 64, 93
1, 150945, Control_c, 0, 64, 101
1, 150960, Control_c, 0, 64, 115
1, 150975, Control_c, 0, 64, 127
1, 151365, Note_on_c, 0, 39, 81
1, 151391, Note_off_c, 0, 39, 65
1, 151396, Note_off_c, 0, 82, 59
1, 151441, Control_c, 0, 64, 105
1, 151447, Note_on_c, 0, 39, 96
1, 151455, Control_c, 0, 64, 59
1, 151470, Control_c, 0, 64, 0
1, 151693, Control_c, 0, 64, 11
1, 151708, Control_c, 0, 64, 18
1, 151723, Control_c, 0, 64, 23
1, 151738, Control_c, 0, 64, 27
1, 151752, Control_c, 0, 64, 30
1, 151767, Control_c, 0, 64, 33
1, 151782, Control_c, 0, 64, 37
1, 151797, Control_c, 0, 64, 41
1, 151804, Note_off_c, 0, 39, 63
1, 151806, Note_on_c, 0, 41, 68
1, 151811, Control_c, 0, 64, 46
1, 151826, Control_c, 0, 64, 51
1, 151841, Control_c, 0, 64, 56
1, 151856, Control_c, 0, 64, 58
1, 151871, Control_c, 0, 64, 60
1, 151885, Control_c, 0, 64, 60
1, 151898, Note_off_c, 0, 41, 60
1, 151900, Note_on_c, 0, 39, 74
1, 151930, Control_c, 0, 64, 61
1, 151945, Control_c, 0, 64, 63
1, 151950, Note_off_c, 0, 39, 64
1, 151959, Control_c, 0, 64, 65
1, 151974, Control_c, 0, 64, 68
1, 151989, Control_c, 0, 64, 71
1, 151991, Note_on_c, 0, 41, 70
1, 152004, Control_c, 0, 64, 75
1, 152019, Control_c, 0, 64, 79
1, 152034, Control_c, 0, 64, 84
1, 152056, Control_c, 0, 64, 89
1, 152059, Note_off_c, 0, 41, 61
1, 152063, Note_on_c, 0, 39, 73
1, 152071, Control_c, 0, 64, 97
1, 152085, Control_c, 0, 64, 107
1, 152100, Control_c, 0, 64, 115
1, 152115, Control_c, 0, 64, 122
1, 152121, Note_off_c, 0, 39, 60
1, 152130, Control_c, 0, 64, 127
1, 152151, Note_on_c, 0, 41, 63
1, 152214, Note_off_c, 0, 41, 60
1, 152215, Note_on_c, 0, 39, 70
1, 152271, Note_off_c, 0, 39, 62
1, 152293, Note_on_c, 0, 41, 73
1, 152347, Note_off_c, 0, 41, 59
1, 152348, Note_on_c, 0, 39, 77
1, 152420, Note_on_c, 0, 38, 90
1, 152427, Control_c, 0, 64, 103
1, 152442, Control_c, 0, 64, 71
1, 152442, Note_off_c, 0, 39, 63
1, 152457, Control_c, 0, 64, 50
1, 152472, Control_c, 0, 64, 0
1, 152585, Note_on_c, 0, 39, 77
1, 152585, Note_off_c, 0, 38, 64
1, 152605, Control_c, 0, 64, 11
1, 152620, Control_c, 0, 64, 20
1, 152634, Control_c, 0, 64, 26
1, 152648, Note_off_c, 0, 39, 63
1, 152649, Note_on_c, 0, 43, 67
1, 152649, Control_c, 0, 64, 32
1, 152664, Control_c, 0, 64, 36
1, 152679, Control_c, 0, 64, 42
1, 152694, Control_c, 0, 64, 48
1, 152708, Control_c, 0, 64, 53
1, 152723, Control_c, 0, 64, 56
1, 152726, Note_on_c, 0, 46, 80
1, 152738, Note_off_c, 0, 43, 53
1, 152738, Control_c, 0, 64, 58
1, 152782, Control_c, 0, 64, 57
1, 152818, Note_off_c, 0, 46, 63
1, 152824, Note_on_c, 0, 49, 74
1, 152834, Control_c, 0, 64, 57
1, 152864, Control_c, 0, 64, 56
1, 152880, Note_on_c, 0, 51, 72
1, 152904, Note_off_c, 0, 49, 50
1, 152931, Note_off_c, 0, 51, 66
1, 152945, Note_on_c, 0, 55, 73
1, 152998, Note_off_c, 0, 55, 61
1, 153016, Note_on_c, 0, 58, 80
1, 153056, Control_c, 0, 64, 57
1, 153087, Control_c, 0, 64, 57
1, 153088, Note_off_c, 0, 58, 56
1, 153095, Note_on_c, 0, 61, 82
1, 153102, Control_c, 0, 64, 58
1, 153117, Control_c, 0, 64, 58
1, 153131, Control_c, 0, 64, 58
1, 153146, Control_c, 0, 64, 54
1, 153161, Control_c, 0, 64, 45
1, 153176, Control_c, 0, 64, 16
1, 153190, Note_off_c, 0, 61, 63
1, 153191, Control_c, 0, 64, 0
1, 153199, Note_on_c, 0, 65, 96
1, 153295, Control_c, 0, 64, 14
1, 153310, Control_c, 0, 64, 25
1, 153324, Control_c, 0, 64, 34
1, 153339, Control_c, 0, 64, 42
1, 153354, Control_c, 0, 64, 52
1, 153365, Note_off_c, 0, 65, 60
1, 153369, Control_c, 0, 64, 61
1, 153384, Control_c, 0, 64, 70
1, 153389, Note_on_c, 0, 67, 63
1, 153398, Control_c, 0, 64, 83
1, 153413, Control_c, 0, 64, 93
1, 153428, Note_off_c, 0, 67, 57
1, 153428, Control_c, 0, 64, 94
1, 153443, Control_c, 0, 64, 95
1, 153457, Control_c, 0, 64, 96
1, 153462, Note_on_c, 0, 51, 63
1, 153468, Note_on_c, 0, 61, 60
1, 153472, Control_c, 0, 64, 99
1, 153477, Note_on_c, 0, 70, 61
1, 153487, Control_c, 0, 64, 106
1, 153502, Note_off_c, 0, 51, 58
1, 153502, Control_c, 0, 64, 127
1, 153508, Note_off_c, 0, 61, 59
1, 153517, Note_off_c, 0, 70, 62
1, 153539, Note_on_c, 0, 73, 55
1, 153574, Note_off_c, 0, 73, 66
1, 153638, Note_on_c, 0, 51, 57
1, 153641, Note_on_c, 0, 61, 64
1, 153659, Poly_aftertouch_c, 0, 75, 0
1, 153697, Note_on_c, 0, 82, 65
1, 153703, Poly_aftertouch_c, 0, 79, 127
1, 153730, Poly_aftertouch_c, 0, 79, 0
1, 153733, Note_off_c, 0, 82, 58
1, 153736, Note_on_c, 0, 85, 58
1, 153773, Note_off_c, 0, 85, 63
1, 153784, Note_on_c, 0, 89, 68
1, 153841, Note_off_c, 0, 89, 46
1, 153848, Note_on_c, 0, 63, 87
1, 153864, Note_on_c, 0, 87, 60
1, 153879, Note_off_c, 0, 61, 35
1, 153921, Note_on_c, 0, 85, 51
1, 153925, Note_off_c, 0, 51, 26
1, 153927, Note_off_c, 0, 87, 50
1, 153980, Note_off_c, 0, 85, 50
1, 153988, Note_on_c, 0, 82, 45
1, 154026, Note_off_c, 0, 82, 52
1, 154064, Note_on_c, 0, 79, 43
1, 154093, Note_off_c, 0, 79, 52
1, 154102, Note_on_c, 0, 57, 81
1, 154131, Note_off_c, 0, 63, 61
1, 154163, Note_on_c, 0, 75, 56
1, 154213, Note_off_c, 0, 75, 57
1, 154228, Note_on_c, 0, 73, 54
1, 154275, Note_off_c, 0, 73, 60
1, 154286, Note_on_c, 0, 70, 56
1, 154326, Note_on_c, 0, 58, 84
1, 154329, Note_off_c, 0, 70, 65
1, 154335, Note_off_c, 0, 57, 54
1, 154356, Note_on_c, 0, 67, 70
1, 154383, Note_off_c, 0, 67, 69
1, 154426, Note_on_c, 0, 63, 73
1, 154454, Note_off_c, 0, 63, 68
1, 154614, Control_c, 0, 64, 97
1, 154629, Control_c, 0, 64, 71
1, 154644, Control_c, 0, 64, 57
1, 154659, Control_c, 0, 64, 29
1, 154675, Note_on_c, 0, 66, 98
1, 154675, Control_c, 0, 64, 0
1, 154681, Note_off_c, 0, 58, 53
1, 154793, Control_c, 0, 64, 19
1, 154808, Control_c, 0, 64, 30
1, 154822, Control_c, 0, 64, 41
1, 154837, Control_c, 0, 64, 53
1, 154840, Note_on_c, 0, 69, 57
1, 154852, Control_c, 0, 64, 69
1, 154867, Control_c, 0, 64, 127
1, 154891, Note_off_c, 0, 66, 59
1, 154898, Note_off_c, 0, 69, 55
1, 154929, Note_on_c, 0, 72, 57
1, 154932, Note_on_c, 0, 51, 67
1, 154946, Note_on_c, 0, 57, 63
1, 154952, Note_on_c, 0, 60, 58
1, 154979, Note_on_c, 0, 75, 64
1, 154986, Note_off_c, 0, 72, 60
1, 154989, Note_off_c, 0, 60, 61
1, 155014, Note_off_c, 0, 57, 50
1, 155017, Note_on_c, 0, 78, 61
1, 155023, Note_off_c, 0, 75, 60
1, 155036, Note_off_c, 0, 78, 66
1, 155099, Note_on_c, 0, 57, 53
1, 155101, Note_on_c, 0, 60, 67
1, 155108, Note_on_c, 0, 79, 35
1, 155121, Note_on_c, 0, 81, 46
1, 155132, Note_off_c, 0, 51, 23
1, 155136, Note_on_c, 0, 84, 76
1, 155143, Note_off_c, 0, 79, 50
1, 155147, Note_off_c, 0, 81, 57
1, 155161, Note_on_c, 0, 87, 73
1, 155192, Note_off_c, 0, 84, 63
1, 155203, Note_on_c, 0, 90, 78
1, 155206, Note_off_c, 0, 87, 65
1, 155221, Note_off_c, 0, 57, 37
1, 155235, Note_off_c, 0, 90, 68
1, 155247, Note_on_c, 0, 65, 94
1, 155256, Note_off_c, 0, 60, 58
1, 155259, Note_on_c, 0, 89, 74
1, 155304, Note_on_c, 0, 87, 59
1, 155335, Note_off_c, 0, 89, 62
1, 155342, Note_on_c, 0, 84, 72
1, 155362, Note_off_c, 0, 87, 64
1, 155379, Note_off_c, 0, 84, 63
1, 155385, Note_off_c, 0, 65, 58
1, 155391, Note_on_c, 0, 81, 69
1, 155406, Note_on_c, 0, 59, 83
1, 155416, Note_off_c, 0, 81, 68
1, 155455, Note_on_c, 0, 77, 79
1, 155527, Note_on_c, 0, 75, 70
1, 155530, Note_off_c, 0, 77, 60
1, 155565, Note_off_c, 0, 75, 62
1, 155568, Note_on_c, 0, 60, 91
1, 155574, Note_on_c, 0, 72, 58
1, 155594, Note_off_c, 0, 59, 60
1, 155594, Note_off_c, 0, 72, 64
1, 155611, Note_on_c, 0, 69, 68
1, 155624, Note_off_c, 0, 60, 63
1, 155637, Note_off_c, 0, 69, 70
1, 155679, Note_on_c, 0, 65, 79
1, 155703, Note_off_c, 0, 65, 69
1, 155778, Control_c, 0, 64, 71
1, 155800, Control_c, 0, 64, 46
1, 155815, Control_c, 0, 64, 0
1, 155850, Note_on_c, 0, 68, 105
1, 155874, Control_c, 0, 64, 29
1, 155889, Control_c, 0, 64, 55
1, 155904, Control_c, 0, 64, 127
1, 155939, Note_off_c, 0, 68, 52
1, 155984, Note_on_c, 0, 71, 62
1, 156028, Note_off_c, 0, 71, 61
1, 156039, Note_on_c, 0, 59, 58
1, 156045, Note_on_c, 0, 62, 62
1, 156049, Note_on_c, 0, 51, 66
1, 156052, Note_on_c, 0, 74, 53
1, 156083, Note_off_c, 0, 51, 62
1, 156085, Note_on_c, 0, 77, 68
1, 156085, Note_off_c, 0, 62, 56
1, 156090, Note_off_c, 0, 74, 64
1, 156096, Note_off_c, 0, 59, 57
1, 156118, Note_on_c, 0, 80, 59
1, 156119, Note_off_c, 0, 77, 62
1, 156138, Note_off_c, 0, 80, 64
1, 156162, Note_on_c, 0, 51, 80
1, 156167, Note_on_c, 0, 62, 67
1, 156176, Note_on_c, 0, 59, 52
1, 156180, Note_on_c, 0, 83, 75
1, 156222, Note_off_c, 0, 51, 63
1, 156224, Note_off_c, 0, 59, 52
1, 156228, Note_off_c, 0, 62, 58
1, 156228, Note_off_c, 0, 83, 61
1, 156229, Note_on_c, 0, 86, 68
1, 156255, Note_on_c, 0, 89, 64
1, 156279, Note_off_c, 0, 89, 63
1, 156282, Note_on_c, 0, 92, 81
1, 156285, Note_off_c, 0, 86, 63
1, 156297, Note_on_c, 0, 51, 73
1, 156305, Note_on_c, 0, 62, 56
1, 156310, Note_on_c, 0, 59, 57
1, 156323, Note_off_c, 0, 92, 69
1, 156330, Note_off_c, 0, 51, 60
1, 156338, Note_on_c, 0, 91, 75
1, 156367, Note_on_c, 0, 89, 64
1, 156387, Note_off_c, 0, 62, 63
1, 156398, Note_off_c, 0, 91, 58
1, 156410, Note_on_c, 0, 86, 67
1, 156421, Note_off_c, 0, 89, 65
1, 156430, Note_on_c, 0, 67, 100
1, 156439, Note_off_c, 0, 86, 64
1, 156449, Note_on_c, 0, 83, 71
1, 156471, Note_off_c, 0, 83, 67
1, 156482, Note_off_c, 0, 67, 63
1, 156507, Note_on_c, 0, 79, 84
1, 156558, Note_off_c, 0, 59, 0
1, 156567, Poly_aftertouch_c, 0, 62, 0
1, 156569, Note_on_c, 0, 51, 78
1, 156571, Note_on_c, 0, 59, 50
1, 156582, Note_off_c, 0, 79, 63
1, 156584, Note_on_c, 0, 62, 33
1, 156586, Note_on_c, 0, 77, 42
1, 156599, Note_on_c, 0, 74, 70
1, 156605, Note_off_c, 0, 51, 61
1, 156608, Note_off_c, 0, 59, 64
1, 156613, Note_off_c, 0, 77, 52
1, 156615, Note_off_c, 0, 62, 52
1, 156621, Note_off_c, 0, 74, 67
1, 156645, Note_on_c, 0, 71, 66
1, 156665, Note_off_c, 0, 71, 69
1, 156695, Note_on_c, 0, 67, 78
1, 156726, Note_off_c, 0, 67, 66
1, 156756, Control_c, 0, 64, 75
1, 156771, Control_c, 0, 64, 29
1, 156786, Control_c, 0, 64, 0
1, 156815, Control_c, 0, 64, 23
1, 156817, Note_on_c, 0, 70, 108
1, 156830, Control_c, 0, 64, 48
1, 156845, Control_c, 0, 64, 83
1, 156853, Note_off_c, 0, 70, 69
1, 156860, Control_c, 0, 64, 127
1, 156890, Note_on_c, 0, 73, 70
1, 156918, Note_off_c, 0, 73, 66
1, 156970, Note_on_c, 0, 76, 69
1, 157000, Note_on_c, 0, 64, 79
1, 157001, Note_on_c, 0, 51, 77
1, 157003, Note_off_c, 0, 76, 55
1, 157003, Note_on_c, 0, 61, 68
1, 157023, Note_off_c, 0, 64, 68
1, 157024, Note_on_c, 0, 79, 82
1, 157028, Note_off_c, 0, 51, 64
1, 157029, Note_off_c, 0, 61, 66
1, 157057, Note_on_c, 0, 82, 77
1, 157069, Note_off_c, 0, 79, 63
1, 157099, Note_off_c, 0, 82, 65
1, 157101, Note_on_c, 0, 85, 57
1, 157120, Note_off_c, 0, 85, 62
1, 157147, Note_on_c, 0, 88, 88
1, 157148, Note_on_c, 0, 61, 71
1, 157155, Note_on_c, 0, 64, 74
1, 157158, Note_on_c, 0, 51, 62
1, 157176, Note_off_c, 0, 61, 66
1, 157179, Note_off_c, 0, 64, 65
1, 157184, Note_off_c, 0, 51, 64
1, 157188, Note_on_c, 0, 91, 89
1, 157192, Note_off_c, 0, 88, 65
1, 157218, Note_on_c, 0, 96, 90
1, 157230, Note_off_c, 0, 91, 63
1, 157280, Note_on_c, 0, 94, 97
1, 157301, Note_off_c, 0, 96, 59
1, 157332, Note_on_c, 0, 61, 75
1, 157334, Note_on_c, 0, 64, 72
1, 157343, Note_on_c, 0, 51, 61
1, 157353, Note_off_c, 0, 61, 70
1, 157356, Note_on_c, 0, 91, 78
1, 157358, Note_off_c, 0, 94, 66
1, 157360, Note_off_c, 0, 64, 66
1, 157363, Note_off_c, 0, 51, 67
1, 157376, Note_on_c, 0, 93, 44
1, 157377, Note_off_c, 0, 93, 127
1, 157386, Note_off_c, 0, 91, 60
1, 157406, Note_on_c, 0, 88, 78
1, 157451, Note_off_c, 0, 88, 65
1, 157486, Note_on_c, 0, 85, 76
1, 157544, Note_on_c, 0, 82, 75
1, 157560, Note_off_c, 0, 85, 61
1, 157599, Note_off_c, 0, 82, 64
1, 157602, Note_on_c, 0, 79, 67
1, 157628, Note_off_c, 0, 79, 65
1, 157660, Note_on_c, 0, 61, 66
1, 157666, Note_on_c, 0, 76, 65
1, 157668, Note_on_c, 0, 64, 47
1, 157670, Note_on_c, 0, 51, 36
1, 157686, Note_off_c, 0, 61, 67
1, 157689, Note_off_c, 0, 76, 68
1, 157698, Note_off_c, 0, 64, 54
1, 157701, Note_off_c, 0, 51, 52
1, 157739, Note_on_c, 0, 73, 65
1, 157781, Note_on_c, 0, 70, 67
1, 157801, Note_off_c, 0, 73, 51
1, 157843, Note_off_c, 0, 70, 60
1, 157853, Note_on_c, 0, 67, 76
1, 157880, Note_off_c, 0, 67, 68
1, 157981, Control_c, 0, 64, 93
1, 157996, Control_c, 0, 64, 56
1, 158011, Control_c, 0, 64, 0
1, 158012, Note_on_c, 0, 68, 101
1, 158077, Control_c, 0, 64, 25
1, 158092, Control_c, 0, 64, 51
1, 158107, Control_c, 0, 64, 127
1, 158130, Note_off_c, 0, 68, 56
1, 158161, Note_on_c, 0, 71, 55
1, 158190, Note_off_c, 0, 71, 52
1, 158195, Note_on_c, 0, 72, 20
1, 158221, Note_on_c, 0, 74, 62
1, 158223, Note_on_c, 0, 62, 71
1, 158225, Note_on_c, 0, 51, 71
1, 158229, Note_on_c, 0, 59, 60
1, 158237, Note_off_c, 0, 72, 52
1, 158262, Note_on_c, 0, 58, 21
1, 158263, Note_on_c, 0, 77, 71
1, 158264, Note_off_c, 0, 62, 58
1, 158275, Note_off_c, 0, 59, 52
1, 158279, Note_off_c, 0, 74, 64
1, 158287, Note_off_c, 0, 51, 61
1, 158289, Note_on_c, 0, 80, 76
1, 158300, Note_off_c, 0, 77, 61
1, 158304, Note_off_c, 0, 58, 29
1, 158313, Note_off_c, 0, 80, 67
1, 158359, Note_on_c, 0, 83, 78
1, 158364, Note_on_c, 0, 62, 72
1, 158365, Note_on_c, 0, 59, 66
1, 158371, Note_on_c, 0, 51, 67
1, 158403, Note_off_c, 0, 51, 58
1, 158408, Note_off_c, 0, 83, 62
1, 158416, Note_on_c, 0, 86, 61
1, 158424, Note_on_c, 0, 87, 59
1, 158437, Note_off_c, 0, 59, 55
1, 158437, Note_on_c, 0, 89, 61
1, 158441, Note_off_c, 0, 62, 55
1, 158444, Note_off_c, 0, 87, 63
1, 158459, Note_off_c, 0, 89, 63
1, 158467, Note_on_c, 0, 92, 82
1, 158470, Note_off_c, 0, 86, 62
1, 158487, Note_on_c, 0, 51, 79
1, 158490, Note_on_c, 0, 59, 54
1, 158503, Note_off_c, 0, 92, 65
1, 158504, Note_on_c, 0, 62, 41
1, 158517, Note_on_c, 0, 91, 73
1, 158535, Note_off_c, 0, 51, 60
1, 158551, Note_on_c, 0, 89, 55
1, 158574, Note_off_c, 0, 91, 58
1, 158580, Note_on_c, 0, 86, 80
1, 158592, Note_off_c, 0, 89, 59
1, 158601, Poly_aftertouch_c, 0, 61, 0
1, 158610, Note_off_c, 0, 62, 0
1, 158613, Note_on_c, 0, 67, 100
1, 158618, Note_off_c, 0, 86, 62
1, 158625, Note_on_c, 0, 83, 69
1, 158633, Note_on_c, 0, 62, 28
1, 158648, Note_off_c, 0, 83, 71
1, 158658, Note_off_c, 0, 67, 65
1, 158678, Note_off_c, 0, 62, 47
1, 158682, Note_on_c, 0, 79, 88
1, 158729, Note_off_c, 0, 59, 0
1, 158737, Note_on_c, 0, 77, 73
1, 158738, Note_on_c, 0, 51, 82
1, 158743, Note_off_c, 0, 79, 64
1, 158745, Note_on_c, 0, 59, 35
1, 158751, Note_on_c, 0, 62, 43
1, 158759, Note_on_c, 0, 74, 76
1, 158773, Note_off_c, 0, 51, 64
1, 158777, Note_off_c, 0, 77, 64
1, 158779, Note_off_c, 0, 62, 56
1, 158780, Note_off_c, 0, 59, 63
1, 158794, Note_off_c, 0, 74, 66
1, 158818, Note_on_c, 0, 71, 58
1, 158838, Note_off_c, 0, 71, 65
1, 158867, Note_on_c, 0, 67, 76
1, 158873, Note_on_c, 0, 65, 68
1, 158884, Note_off_c, 0, 67, 76
1, 158890, Note_off_c, 0, 65, 68
1, 158959, Control_c, 0, 64, 63
1, 158974, Control_c, 0, 64, 0
1, 159006, Note_on_c, 0, 73, 108
1, 159033, Control_c, 0, 64, 43
1, 159048, Control_c, 0, 64, 80
1, 159051, Note_off_c, 0, 73, 68
1, 159063, Control_c, 0, 64, 127
1, 159124, Note_on_c, 0, 76, 76
1, 159170, Note_off_c, 0, 76, 62
1, 159185, Note_on_c, 0, 79, 73
1, 159206, Note_on_c, 0, 64, 71
1, 159210, Note_on_c, 0, 51, 66
1, 159212, Note_on_c, 0, 61, 59
1, 159217, Note_on_c, 0, 82, 76
1, 159230, Note_off_c, 0, 61, 67
1, 159232, Note_off_c, 0, 51, 66
1, 159232, Note_off_c, 0, 79, 63
1, 159234, Note_off_c, 0, 64, 66
1, 159257, Note_on_c, 0, 85, 63
1, 159261, Note_off_c, 0, 82, 65
1, 159273, Note_off_c, 0, 85, 67
1, 159310, Note_on_c, 0, 88, 80
1, 159354, Note_on_c, 0, 64, 77
1, 159357, Note_on_c, 0, 51, 68
1, 159363, Note_off_c, 0, 88, 64
1, 159364, Note_on_c, 0, 61, 59
1, 159364, Note_on_c, 0, 91, 93
1, 159374, Note_off_c, 0, 64, 71
1, 159384, Note_off_c, 0, 51, 69
1, 159384, Note_off_c, 0, 61, 65
1, 159391, Note_on_c, 0, 94, 79
1, 159420, Note_off_c, 0, 91, 55
1, 159440, Note_off_c, 0, 94, 62
1, 159441, Note_on_c, 0, 99, 90
1, 159509, Note_on_c, 0, 97, 82
1, 159511, Note_off_c, 0, 99, 65
1, 159549, Note_on_c, 0, 94, 82
1, 159590, Note_off_c, 0, 97, 62
1, 159590, Note_on_c, 0, 61, 79
1, 159591, Note_on_c, 0, 64, 76
1, 159596, Note_on_c, 0, 91, 85
1, 159602, Note_on_c, 0, 51, 69
1, 159610, Note_off_c, 0, 61, 73
1, 159610, Note_off_c, 0, 94, 66
1, 159613, Note_off_c, 0, 64, 69
1, 159626, Note_off_c, 0, 51, 69
1, 159639, Note_off_c, 0, 91, 59
1, 159644, Note_on_c, 0, 88, 76
1, 159691, Note_off_c, 0, 88, 66
1, 159725, Note_on_c, 0, 85, 77
1, 159775, Note_on_c, 0, 82, 77
1, 159796, Note_off_c, 0, 85, 63
1, 159813, Note_on_c, 0, 79, 75
1, 159838, Note_off_c, 0, 82, 62
1, 159857, Note_off_c, 0, 79, 62
1, 159876, Note_on_c, 0, 76, 71
1, 159888, Note_on_c, 0, 61, 70
1, 159892, Note_on_c, 0, 51, 57
1, 159915, Note_off_c, 0, 76, 57
1, 159917, Note_on_c, 0, 64, 66
1, 159922, Note_off_c, 0, 51, 66
1, 159928, Note_on_c, 0, 73, 78
1, 159954, Note_off_c, 0, 61, 62
1, 159957, Note_off_c, 0, 73, 63
1, 159965, Note_off_c, 0, 64, 63
1, 159998, Poly_aftertouch_c, 0, 74, 127
1, 160022, Note_on_c, 0, 67, 92
1, 160024, Poly_aftertouch_c, 0, 74, 0
1, 160103, Note_off_c, 0, 67, 65
1, 160105, Note_on_c, 0, 68, 84
1, 160188, Note_on_c, 0, 70, 84
1, 160191, Note_off_c, 0, 68, 60
1, 160225, Control_c, 0, 64, 65
1, 160240, Control_c, 0, 64, 0
1, 160251, Note_off_c, 0, 70, 0
1, 160265, Note_on_c, 0, 70, 71
1, 160268, Note_on_c, 0, 68, 113
1, 160292, Note_off_c, 0, 70, 72
1, 160294, Control_c, 0, 64, 23
1, 160309, Control_c, 0, 64, 55
1, 160313, Note_off_c, 0, 68, 65
1, 160323, Control_c, 0, 64, 127
1, 160460, Note_on_c, 0, 71, 67
1, 160489, Note_on_c, 0, 62, 76
1, 160497, Note_on_c, 0, 51, 67
1, 160502, Note_on_c, 0, 59, 55
1, 160516, Note_off_c, 0, 62, 64
1, 160520, Note_off_c, 0, 71, 62
1, 160526, Note_off_c, 0, 59, 57
1, 160529, Note_off_c, 0, 51, 64
1, 160532, Note_on_c, 0, 74, 69
1, 160534, Note_on_c, 0, 58, 5
1, 160569, Note_on_c, 0, 77, 66
1, 160582, Note_off_c, 0, 58, 27
1, 160592, Note_off_c, 0, 74, 64
1, 160618, Note_on_c, 0, 80, 57
1, 160625, Note_off_c, 0, 77, 64
1, 160637, Note_off_c, 0, 80, 63
1, 160652, Note_on_c, 0, 59, 75
1, 160657, Note_on_c, 0, 62, 81
1, 160659, Note_on_c, 0, 51, 74
1, 160684, Note_on_c, 0, 83, 78
1, 160718, Note_off_c, 0, 59, 50
1, 160720, Note_off_c, 0, 62, 50
1, 160723, Note_off_c, 0, 51, 62
1, 160733, Note_off_c, 0, 83, 65
1, 160734, Note_on_c, 0, 86, 69
1, 160762, Note_on_c, 0, 87, 45
1, 160763, Note_off_c, 0, 87, 127
1, 160774, Note_on_c, 0, 89, 37
1, 160786, Note_on_c, 0, 92, 84
1, 160789, Note_off_c, 0, 86, 63
1, 160807, Note_off_c, 0, 89, 56
1, 160809, Note_on_c, 0, 51, 80
1, 160809, Note_on_c, 0, 59, 57
1, 160817, Note_on_c, 0, 62, 81
1, 160836, Note_off_c, 0, 92, 62
1, 160839, Note_on_c, 0, 91, 80
1, 160863, Note_off_c, 0, 51, 61
1, 160884, Note_on_c, 0, 89, 68
1, 160913, Note_off_c, 0, 91, 58
1, 160921, Note_on_c, 0, 86, 77
1, 160941, Note_off_c, 0, 89, 64
1, 160951, Note_off_c, 0, 62, 0
1, 160954, Note_on_c, 0, 67, 105
1, 160962, Note_off_c, 0, 86, 61
1, 160969, Note_on_c, 0, 62, 34
1, 160975, Note_on_c, 0, 83, 72
1, 160997, Note_off_c, 0, 83, 72
1, 161001, Note_off_c, 0, 67, 61
1, 161002, Note_off_c, 0, 62, 51
1, 161039, Note_on_c, 0, 79, 85
1, 161089, Note_off_c, 0, 59, 0
1, 161102, Note_on_c, 0, 51, 80
1, 161105, Note_on_c, 0, 59, 47
1, 161107, Note_on_c, 0, 62, 77
1, 161111, Note_on_c, 0, 77, 75
1, 161122, Note_off_c, 0, 79, 61
1, 161129, Note_off_c, 0, 62, 70
1, 161138, Note_off_c, 0, 51, 65
1, 161149, Note_off_c, 0, 59, 63
1, 161155, Note_on_c, 0, 74, 65
1, 161158, Note_off_c, 0, 77, 62
1, 161181, Note_off_c, 0, 74, 71
1, 161193, Note_on_c, 0, 71, 70
1, 161226, Note_off_c, 0, 71, 65
1, 161256, Note_on_c, 0, 67, 89
1, 161284, Note_off_c, 0, 67, 70
1, 161546, Note_on_c, 0, 76, 105
1, 161546, Control_c, 0, 64, 76
1, 161561, Control_c, 0, 64, 38
1, 161576, Control_c, 0, 64, 0
1, 161620, Control_c, 0, 64, 30
1, 161635, Control_c, 0, 64, 54
1, 161650, Control_c, 0, 64, 127
1, 161681, Note_off_c, 0, 76, 61
1, 161916, Note_on_c, 0, 79, 73
1, 161981, Note_off_c, 0, 79, 57
1, 162007, Note_on_c, 0, 82, 73
1, 162019, Note_on_c, 0, 64, 68
1, 162022, Note_on_c, 0, 61, 70
1, 162024, Note_on_c, 0, 51, 68
1, 162045, Note_off_c, 0, 64, 67
1, 162048, Note_off_c, 0, 61, 68
1, 162053, Note_off_c, 0, 51, 66
1, 162066, Note_on_c, 0, 85, 69
1, 162082, Note_off_c, 0, 82, 65
1, 162098, Note_on_c, 0, 88, 64
1, 162103, Note_off_c, 0, 85, 66
1, 162116, Note_off_c, 0, 88, 68
1, 162181, Note_on_c, 0, 89, 59
1, 162187, Note_on_c, 0, 91, 66
1, 162208, Note_off_c, 0, 89, 59
1, 162218, Note_off_c, 0, 91, 48
1, 162226, Note_on_c, 0, 94, 80
1, 162244, Note_on_c, 0, 64, 65
1, 162252, Note_on_c, 0, 51, 71
1, 162260, Note_on_c, 0, 61, 52
1, 162264, Note_off_c, 0, 64, 65
1, 162279, Note_off_c, 0, 94, 68
1, 162282, Note_on_c, 0, 100, 75
1, 162282, Note_off_c, 0, 51, 66
1, 162287, Note_off_c, 0, 61, 56
1, 162336, Note_off_c, 0, 100, 66
1, 162337, Note_on_c, 0, 97, 78
1, 162400, Note_on_c, 0, 94, 77
1, 162408, Note_off_c, 0, 97, 63
1, 162448, Note_on_c, 0, 91, 77
1, 162455, Note_off_c, 0, 94, 61
1, 162490, Note_off_c, 0, 91, 59
1, 162517, Note_on_c, 0, 88, 68
1, 162539, Note_on_c, 0, 51, 51
1, 162561, Note_off_c, 0, 88, 63
1, 162568, Note_off_c, 0, 51, 51
1, 162609, Note_on_c, 0, 85, 68
1, 162619, Poly_aftertouch_c, 0, 64, 0
1, 162625, Poly_aftertouch_c, 0, 61, 0
1, 162676, Note_on_c, 0, 82, 72
1, 162690, Note_off_c, 0, 85, 61
1, 162737, Note_on_c, 0, 79, 65
1, 162741, Note_off_c, 0, 82, 63
1, 162766, Note_off_c, 0, 79, 64
1, 162818, Note_on_c, 0, 64, 67
1, 162820, Note_on_c, 0, 76, 59
1, 162822, Note_on_c, 0, 61, 61
1, 162835, Note_off_c, 0, 64, 66
1, 162840, Note_off_c, 0, 76, 67
1, 162841, Note_off_c, 0, 61, 63
1, 162888, Note_on_c, 0, 73, 67
1, 162950, Note_off_c, 0, 73, 61
1, 162953, Note_on_c, 0, 70, 61
1, 162989, Note_off_c, 0, 70, 62
1, 163031, Note_on_c, 0, 67, 58
1, 163057, Control_c, 0, 64, 95
1, 163064, Note_off_c, 0, 67, 63
1, 163072, Control_c, 0, 64, 94
1, 163079, Note_on_c, 0, 66, 71
1, 163087, Control_c, 0, 64, 127
1, 163107, Note_off_c, 0, 66, 66
1, 163148, Note_on_c, 0, 67, 65
1, 163194, Note_off_c, 0, 67, 53
1, 163208, Note_on_c, 0, 70, 77
1, 163248, Note_on_c, 0, 73, 63
1, 163254, Note_off_c, 0, 70, 64
1, 163269, Note_off_c, 0, 73, 68
1, 163270, Note_on_c, 0, 76, 63
1, 163296, Note_off_c, 0, 76, 65
1, 163341, Note_on_c, 0, 79, 71
1, 163368, Note_off_c, 0, 79, 63
1, 163397, Note_on_c, 0, 82, 79
1, 163417, Note_off_c, 0, 82, 73
1, 163427, Note_on_c, 0, 85, 49
1, 163430, Note_on_c, 0, 88, 69
1, 163449, Note_off_c, 0, 88, 69
1, 163452, Note_off_c, 0, 85, 36
1, 163508, Note_on_c, 0, 91, 77
1, 163534, Note_on_c, 0, 94, 84
1, 163543, Note_off_c, 0, 91, 53
1, 163568, Note_on_c, 0, 100, 91
1, 163576, Note_off_c, 0, 94, 67
1, 163634, Note_on_c, 0, 97, 54
1, 163635, Note_off_c, 0, 97, 127
1, 163638, Note_on_c, 0, 96, 78
1, 163639, Note_off_c, 0, 100, 64
1, 163680, Note_off_c, 0, 96, 63
1, 163682, Note_on_c, 0, 94, 77
1, 163718, Note_on_c, 0, 91, 79
1, 163734, Note_off_c, 0, 94, 63
1, 163748, Note_off_c, 0, 91, 60
1, 163777, Note_on_c, 0, 88, 71
1, 163804, Note_off_c, 0, 88, 64
1, 163851, Note_on_c, 0, 85, 70
1, 163900, Note_on_c, 0, 82, 76
1, 163907, Note_off_c, 0, 85, 62
1, 163946, Note_off_c, 0, 82, 56
1, 163951, Note_on_c, 0, 79, 61
1, 163973, Note_off_c, 0, 79, 66
1, 164008, Note_on_c, 0, 76, 62
1, 164035, Note_off_c, 0, 76, 68
1, 164079, Note_on_c, 0, 73, 65
1, 164121, Note_on_c, 0, 70, 62
1, 164130, Note_off_c, 0, 73, 60
1, 164158, Note_off_c, 0, 70, 60
1, 164184, Note_on_c, 0, 67, 71
1, 164221, Note_off_c, 0, 67, 59
1, 164235, Note_on_c, 0, 66, 83
1, 164244, Control_c, 0, 64, 85
1, 164260, Control_c, 0, 64, 74
1, 164275, Control_c, 0, 64, 77
1, 164282, Note_off_c, 0, 66, 62
1, 164289, Control_c, 0, 64, 104
1, 164304, Control_c, 0, 64, 127
1, 164319, Note_on_c, 0, 67, 74
1, 164373, Note_off_c, 0, 67, 59
1, 164378, Note_on_c, 0, 70, 78
1, 164408, Note_on_c, 0, 73, 66
1, 164427, Note_off_c, 0, 70, 63
1, 164433, Note_off_c, 0, 73, 69
1, 164437, Note_on_c, 0, 76, 63
1, 164456, Note_off_c, 0, 76, 66
1, 164503, Note_on_c, 0, 79, 69
1, 164531, Note_off_c, 0, 79, 61
1, 164554, Note_on_c, 0, 82, 76
1, 164576, Note_off_c, 0, 82, 71
1, 164581, Note_on_c, 0, 85, 57
1, 164598, Note_on_c, 0, 88, 56
1, 164602, Note_off_c, 0, 85, 58
1, 164620, Note_off_c, 0, 88, 62
1, 164649, Note_on_c, 0, 91, 84
1, 164688, Note_on_c, 0, 94, 78
1, 164698, Note_off_c, 0, 91, 59
1, 164718, Note_on_c, 0, 100, 91
1, 164727, Note_off_c, 0, 94, 65
1, 164783, Note_on_c, 0, 97, 86
1, 164795, Note_off_c, 0, 100, 65
1, 164816, Note_on_c, 0, 96, 65
1, 164837, Note_off_c, 0, 96, 64
1, 164842, Note_on_c, 0, 94, 74
1, 164842, Note_off_c, 0, 97, 37
1, 164870, Note_on_c, 0, 91, 79
1, 164883, Note_off_c, 0, 94, 60
1, 164899, Note_off_c, 0, 91, 60
1, 164937, Note_on_c, 0, 88, 67
1, 164963, Note_off_c, 0, 88, 69
1, 165008, Note_on_c, 0, 85, 73
1, 165057, Note_on_c, 0, 82, 75
1, 165067, Note_off_c, 0, 85, 62
1, 165104, Note_on_c, 0, 79, 68
1, 165105, Note_off_c, 0, 82, 61
1, 165131, Note_off_c, 0, 79, 66
1, 165164, Note_on_c, 0, 76, 68
1, 165185, Note_off_c, 0, 76, 68
1, 165235, Note_on_c, 0, 73, 64
1, 165275, Note_on_c, 0, 70, 63
1, 165282, Note_off_c, 0, 73, 60
1, 165329, Note_off_c, 0, 70, 60
1, 165346, Note_on_c, 0, 67, 69
1, 165391, Note_off_c, 0, 67, 55
1, 165394, Control_c, 0, 64, 99
1, 165398, Note_on_c, 0, 66, 80
1, 165409, Control_c, 0, 64, 81
1, 165424, Control_c, 0, 64, 85
1, 165438, Control_c, 0, 64, 127
1, 165445, Note_off_c, 0, 66, 63
1, 165484, Note_on_c, 0, 67, 71
1, 165533, Note_off_c, 0, 67, 56
1, 165547, Note_on_c, 0, 70, 79
1, 165588, Note_on_c, 0, 73, 59
1, 165591, Note_off_c, 0, 70, 65
1, 165606, Note_on_c, 0, 76, 64
1, 165609, Note_off_c, 0, 73, 66
1, 165624, Note_off_c, 0, 76, 66
1, 165677, Note_on_c, 0, 79, 76
1, 165730, Note_off_c, 0, 79, 59
1, 165731, Note_on_c, 0, 82, 75
1, 165756, Note_on_c, 0, 85, 64
1, 165773, Note_off_c, 0, 82, 64
1, 165777, Note_on_c, 0, 88, 56
1, 165781, Note_off_c, 0, 85, 67
1, 165797, Note_off_c, 0, 88, 64
1, 165843, Note_on_c, 0, 91, 75
1, 165878, Note_off_c, 0, 91, 57
1, 165883, Note_on_c, 0, 94, 79
1, 165924, Note_on_c, 0, 97, 71
1, 165942, Note_off_c, 0, 94, 65
1, 165948, Note_on_c, 0, 100, 86
1, 165955, Note_off_c, 0, 97, 64
1, 166023, Note_off_c, 0, 100, 64
1, 166050, Note_on_c, 0, 98, 72
1, 166092, Note_off_c, 0, 98, 60
1, 166104, Note_on_c, 0, 99, 74
1, 166147, Note_on_c, 0, 97, 74
1, 166156, Note_off_c, 0, 99, 63
1, 166204, Note_on_c, 0, 98, 50
1, 166222, Note_off_c, 0, 97, 60
1, 166226, Note_off_c, 0, 98, 62
1, 166231, Note_on_c, 0, 96, 77
1, 166259, Note_off_c, 0, 96, 60
1, 166286, Note_on_c, 0, 97, 64
1, 166333, Note_off_c, 0, 97, 65
1, 166345, Note_on_c, 0, 95, 79
1, 166378, Note_on_c, 0, 96, 69
1, 166385, Note_off_c, 0, 95, 63
1, 166411, Note_on_c, 0, 94, 72
1, 166444, Note_off_c, 0, 96, 59
1, 166450, Note_on_c, 0, 95, 74
1, 166452, Note_off_c, 0, 94, 65
1, 166479, Note_off_c, 0, 95, 66
1, 166504, Note_on_c, 0, 93, 70
1, 166554, Note_on_c, 0, 94, 77
1, 166564, Note_off_c, 0, 93, 63
1, 166590, Note_on_c, 0, 92, 66
1, 166608, Note_off_c, 0, 94, 59
1, 166640, Note_on_c, 0, 93, 76
1, 166643, Note_off_c, 0, 92, 64
1, 166664, Note_off_c, 0, 93, 68
1, 166678, Note_on_c, 0, 91, 80
1, 166734, Note_on_c, 0, 92, 78
1, 166740, Note_off_c, 0, 91, 61
1, 166762, Note_on_c, 0, 90, 69
1, 166773, Note_off_c, 0, 92, 58
1, 166806, Note_on_c, 0, 91, 74
1, 166812, Note_off_c, 0, 90, 67
1, 166837, Note_off_c, 0, 91, 59
1, 166849, Note_on_c, 0, 89, 74
1, 166889, Note_off_c, 0, 89, 59
1, 166890, Note_on_c, 0, 90, 87
1, 166941, Note_off_c, 0, 90, 66
1, 166945, Note_on_c, 0, 88, 90
1, 166989, Note_on_c, 0, 89, 80
1, 167004, Note_off_c, 0, 88, 64
1, 167020, Note_on_c, 0, 87, 73
1, 167070, Note_on_c, 0, 88, 85
1, 167078, Note_off_c, 0, 89, 64
1, 167087, Note_off_c, 0, 87, 64
1, 167115, Note_off_c, 0, 88, 67
1, 167117, Note_on_c, 0, 86, 79
1, 167171, Note_on_c, 0, 87, 89
1, 167182, Note_off_c, 0, 86, 64
1, 167206, Note_on_c, 0, 85, 69
1, 167242, Note_on_c, 0, 86, 86
1, 167250, Note_off_c, 0, 87, 67
1, 167257, Note_off_c, 0, 85, 64
1, 167287, Note_off_c, 0, 86, 62
1, 167291, Note_on_c, 0, 84, 82
1, 167333, Note_on_c, 0, 85, 88
1, 167335, Note_off_c, 0, 84, 66
1, 167390, Note_on_c, 0, 83, 92
1, 167394, Note_off_c, 0, 85, 66
1, 167445, Note_on_c, 0, 84, 83
1, 167459, Note_on_c, 0, 82, 69
1, 167462, Note_off_c, 0, 83, 65
1, 167514, Note_on_c, 0, 83, 86
1, 167527, Note_off_c, 0, 82, 63
1, 167546, Note_off_c, 0, 84, 52
1, 167561, Note_off_c, 0, 83, 63
1, 167565, Control_c, 0, 64, 74
1, 167569, Note_on_c, 0, 81, 85
1, 167580, Control_c, 0, 64, 73
1, 167595, Control_c, 0, 64, 127
1, 167623, Note_on_c, 0, 82, 84
1, 167633, Note_off_c, 0, 81, 66
1, 167662, Note_on_c, 0, 80, 78
1, 167684, Control_c, 0, 64, 70
1, 167698, Control_c, 0, 64, 67
1, 167700, Note_on_c, 0, 81, 91
1, 167701, Note_off_c, 0, 82, 63
1, 167713, Control_c, 0, 64, 97
1, 167722, Note_off_c, 0, 80, 64
1, 167728, Control_c, 0, 64, 127
1, 167747, Note_off_c, 0, 81, 65
1, 167760, Note_on_c, 0, 79, 83
1, 167818, Note_on_c, 0, 80, 83
1, 167829, Note_off_c, 0, 79, 64
1, 167849, Note_on_c, 0, 78, 71
1, 167893, Note_on_c, 0, 79, 82
1, 167910, Note_off_c, 0, 80, 61
1, 167942, Note_off_c, 0, 79, 65
1, 167946, Note_off_c, 0, 78, 64
1, 167949, Note_on_c, 0, 77, 77
1, 167999, Note_on_c, 0, 78, 75
1, 168006, Note_off_c, 0, 77, 64
1, 168062, Note_on_c, 0, 76, 85
1, 168067, Note_off_c, 0, 78, 65
1, 168092, Control_c, 0, 64, 75
1, 168107, Control_c, 0, 64, 58
1, 168114, Note_on_c, 0, 77, 75
1, 168122, Control_c, 0, 64, 46
1, 168128, Note_off_c, 0, 76, 61
1, 168137, Control_c, 0, 64, 45
1, 168151, Control_c, 0, 64, 53
1, 168162, Note_on_c, 0, 75, 72
1, 168166, Control_c, 0, 64, 64
1, 168181, Control_c, 0, 64, 114
1, 168181, Control_c, 0, 67, 9
1, 168196, Control_c, 0, 64, 127
1, 168196, Control_c, 0, 67, 12
1, 168208, Note_on_c, 0, 76, 92
1, 168211, Control_c, 0, 67, 14
1, 168222, Note_off_c, 0, 75, 61
1, 168225, Note_off_c, 0, 77, 54
1, 168226, Control_c, 0, 67, 15
1, 168240, Control_c, 0, 64, 70
1, 168240, Control_c, 0, 67, 15
1, 168256, Control_c, 0, 64, 45
1, 168265, Note_on_c, 0, 74, 74
1, 168271, Control_c, 0, 64, 0
1, 168288, Note_off_c, 0, 76, 54
1, 168301, Control_c, 0, 64, 39
1, 168316, Control_c, 0, 64, 60
1, 168318, Note_on_c, 0, 77, 84
1, 168327, Note_off_c, 0, 74, 67
1, 168330, Control_c, 0, 64, 127
1, 168330, Control_c, 0, 67, 15
1, 168360, Control_c, 0, 67, 14
1, 168374, Control_c, 0, 64, 102
1, 168374, Control_c, 0, 67, 12
1, 168378, Note_on_c, 0, 75, 82
1, 168389, Control_c, 0, 64, 69
1, 168389, Control_c, 0, 67, 10
1, 168404, Control_c, 0, 64, 59
1, 168404, Control_c, 0, 67, 0
1, 168419, Note_off_c, 0, 77, 60
1, 168419, Control_c, 0, 64, 51
1, 168422, Note_on_c, 0, 76, 82
1, 168434, Control_c, 0, 64, 57
1, 168444, Note_off_c, 0, 75, 62
1, 168448, Control_c, 0, 64, 78
1, 168463, Control_c, 0, 64, 127
1, 168471, Note_on_c, 0, 74, 74
1, 168507, Control_c, 0, 64, 89
1, 168530, Control_c, 0, 64, 77
1, 168533, Note_on_c, 0, 77, 86
1, 168542, Note_off_c, 0, 74, 66
1, 168545, Control_c, 0, 64, 92
1, 168549, Note_off_c, 0, 76, 44
1, 168560, Control_c, 0, 64, 127
1, 168602, Note_on_c, 0, 75, 80
1, 168619, Control_c, 0, 64, 94
1, 168634, Control_c, 0, 64, 86
1, 168637, Note_off_c, 0, 77, 59
1, 168645, Note_on_c, 0, 76, 86
1, 168649, Control_c, 0, 64, 87
1, 168663, Control_c, 0, 64, 90
1, 168678, Control_c, 0, 64, 91
1, 168682, Note_off_c, 0, 75, 51
1, 168698, Note_on_c, 0, 74, 78
1, 168757, Note_on_c, 0, 77, 82
1, 168775, Note_off_c, 0, 74, 64
1, 168781, Control_c, 0, 64, 92
1, 168783, Note_off_c, 0, 76, 58
1, 168796, Control_c, 0, 64, 95
1, 168811, Control_c, 0, 64, 108
1, 168812, Note_on_c, 0, 75, 83
1, 168826, Control_c, 0, 64, 127
1, 168864, Note_on_c, 0, 76, 94
1, 168868, Note_off_c, 0, 77, 57
1, 168878, Note_off_c, 0, 75, 62
1, 168900, Control_c, 0, 64, 65
1, 168915, Control_c, 0, 64, 51
1, 168930, Control_c, 0, 64, 44
1, 168936, Note_on_c, 0, 73, 83
1, 168944, Control_c, 0, 64, 49
1, 168959, Control_c, 0, 64, 59
1, 168974, Control_c, 0, 64, 71
1, 168989, Control_c, 0, 64, 127
1, 168998, Note_on_c, 0, 77, 74
1, 169004, Note_off_c, 0, 73, 63
1, 169008, Note_off_c, 0, 76, 27
1, 169064, Control_c, 0, 64, 95
1, 169067, Note_on_c, 0, 75, 82
1, 169079, Control_c, 0, 64, 85
1, 169094, Control_c, 0, 64, 82
1, 169108, Control_c, 0, 64, 82
1, 169123, Control_c, 0, 64, 81
1, 169134, Note_on_c, 0, 76, 65
1, 169136, Note_off_c, 0, 77, 38
1, 169138, Control_c, 0, 64, 81
1, 169153, Control_c, 0, 64, 80
1, 169168, Control_c, 0, 64, 79
1, 169177, Note_on_c, 0, 73, 82
1, 169183, Control_c, 0, 64, 78
1, 169189, Note_off_c, 0, 75, 59
1, 169197, Note_off_c, 0, 76, 65
1, 169197, Control_c, 0, 64, 76
1, 169212, Control_c, 0, 64, 75
1, 169227, Control_c, 0, 64, 74
1, 169242, Note_on_c, 0, 77, 77
1, 169252, Note_off_c, 0, 73, 63
1, 169311, Note_on_c, 0, 75, 80
1, 169323, Control_c, 0, 64, 75
1, 169338, Control_c, 0, 64, 77
1, 169353, Control_c, 0, 64, 80
1, 169362, Note_off_c, 0, 77, 51
1, 169365, Note_on_c, 0, 76, 84
1, 169368, Control_c, 0, 64, 83
1, 169379, Note_off_c, 0, 75, 61
1, 169383, Control_c, 0, 64, 85
1, 169398, Control_c, 0, 64, 85
1, 169437, Note_on_c, 0, 73, 77
1, 169500, Note_on_c, 0, 77, 69
1, 169505, Note_off_c, 0, 73, 61
1, 169516, Control_c, 0, 64, 86
1, 169526, Note_off_c, 0, 76, 29
1, 169560, Control_c, 0, 64, 86
1, 169574, Note_on_c, 0, 75, 77
1, 169575, Control_c, 0, 64, 87
1, 169604, Control_c, 0, 64, 87
1, 169619, Control_c, 0, 64, 88
1, 169621, Note_off_c, 0, 77, 37
1, 169629, Note_on_c, 0, 76, 83
1, 169634, Control_c, 0, 64, 89
1, 169634, Control_c, 0, 67, 8
1, 169649, Control_c, 0, 64, 89
1, 169649, Control_c, 0, 67, 12
1, 169664, Control_c, 0, 64, 88
1, 169664, Control_c, 0, 67, 21
1, 169678, Control_c, 0, 64, 76
1, 169678, Control_c, 0, 67, 35
1, 169693, Control_c, 0, 64, 65
1, 169693, Control_c, 0, 67, 54
1, 169702, Note_on_c, 0, 70, 78
1, 169705, Note_off_c, 0, 76, 62
1, 169708, Control_c, 0, 64, 57
1, 169708, Control_c, 0, 67, 73
1, 169714, Note_off_c, 0, 75, 32
1, 169723, Control_c, 0, 64, 47
1, 169723, Control_c, 0, 67, 90
1, 169737, Control_c, 0, 64, 40
1, 169737, Control_c, 0, 67, 104
1, 169752, Control_c, 0, 67, 113
1, 169766, Note_off_c, 0, 70, 61
1, 169767, Control_c, 0, 64, 43
1, 169767, Control_c, 0, 67, 121
1, 169769, Note_on_c, 0, 77, 75
1, 169782, Control_c, 0, 64, 47
1, 169782, Control_c, 0, 67, 125
1, 169797, Control_c, 0, 64, 51
1, 169797, Control_c, 0, 67, 127
1, 169812, Control_c, 0, 64, 55
1, 169823, Note_on_c, 0, 75, 76
1, 169827, Control_c, 0, 64, 57
1, 169827, Note_off_c, 0, 77, 59
1, 169842, Control_c, 0, 64, 58
1, 169857, Control_c, 0, 64, 56
1, 169872, Control_c, 0, 64, 50
1, 169886, Note_on_c, 0, 73, 83
1, 169887, Control_c, 0, 64, 38
1, 169901, Control_c, 0, 64, 28
1, 169904, Note_off_c, 0, 75, 61
1, 169916, Control_c, 0, 64, 29
1, 169931, Control_c, 0, 64, 34
1, 169946, Control_c, 0, 64, 40
1, 169946, Note_on_c, 0, 76, 81
1, 169961, Control_c, 0, 64, 49
1, 169969, Note_off_c, 0, 73, 65
1, 169976, Control_c, 0, 64, 57
1, 169991, Control_c, 0, 64, 62
1, 170006, Control_c, 0, 64, 65
1, 170027, Control_c, 0, 64, 65
1, 170029, Note_on_c, 0, 70, 77
1, 170042, Control_c, 0, 64, 65
1, 170057, Control_c, 0, 64, 64
1, 170072, Control_c, 0, 64, 63
1, 170087, Control_c, 0, 64, 63
1, 170090, Note_off_c, 0, 76, 44
1, 170101, Note_on_c, 0, 77, 81
1, 170101, Note_off_c, 0, 70, 59
1, 170101, Control_c, 0, 64, 62
1, 170116, Control_c, 0, 64, 62
1, 170131, Control_c, 0, 64, 61
1, 170170, Note_on_c, 0, 75, 70
1, 170189, Note_off_c, 0, 77, 56
1, 170220, Control_c, 0, 64, 61
1, 170231, Note_on_c, 0, 73, 76
1, 170234, Control_c, 0, 64, 60
1, 170249, Control_c, 0, 64, 60
1, 170264, Control_c, 0, 64, 59
1, 170278, Control_c, 0, 64, 59
1, 170279, Note_off_c, 0, 75, 37
1, 170289, Note_on_c, 0, 76, 75
1, 170316, Note_off_c, 0, 73, 62
1, 170366, Note_on_c, 0, 70, 74
1, 170382, Control_c, 0, 64, 58
1, 170412, Control_c, 0, 64, 58
1, 170426, Control_c, 0, 64, 57
1, 170441, Note_off_c, 0, 70, 57
1, 170441, Control_c, 0, 64, 56
1, 170446, Note_on_c, 0, 77, 73
1, 170447, Note_off_c, 0, 76, 31
1, 170456, Control_c, 0, 64, 56
1, 170486, Control_c, 0, 64, 55
1, 170501, Control_c, 0, 64, 55
1, 170504, Note_on_c, 0, 75, 65
1, 170515, Control_c, 0, 64, 54
1, 170524, Note_off_c, 0, 77, 49
1, 170530, Control_c, 0, 64, 53
1, 170545, Control_c, 0, 64, 51
1, 170545, Note_on_c, 0, 73, 74
1, 170560, Control_c, 0, 64, 50
1, 170568, Note_off_c, 0, 75, 57
1, 170575, Control_c, 0, 64, 49
1, 170590, Control_c, 0, 64, 49
1, 170605, Control_c, 0, 64, 48
1, 170625, Note_on_c, 0, 76, 74
1, 170648, Note_off_c, 0, 73, 64
1, 170694, Note_on_c, 0, 67, 70
1, 170741, Note_on_c, 0, 77, 76
1, 170748, Note_off_c, 0, 67, 64
1, 170812, Note_on_c, 0, 75, 79
1, 170825, Note_off_c, 0, 77, 60
1, 170835, Control_c, 0, 64, 48
1, 170840, Note_off_c, 0, 76, 29
1, 170871, Note_on_c, 0, 73, 69
1, 170887, Note_off_c, 0, 75, 60
1, 170891, Note_on_c, 0, 63, 60
1, 170901, Note_off_c, 0, 73, 61
1, 170909, Control_c, 0, 64, 47
1, 170954, Control_c, 0, 67, 125
1, 170956, Note_off_c, 0, 63, 61
1, 170959, Note_on_c, 0, 65, 70
1, 170969, Control_c, 0, 67, 114
1, 170983, Control_c, 0, 67, 98
1, 170998, Control_c, 0, 67, 83
1, 171013, Control_c, 0, 67, 66
1, 171028, Note_on_c, 0, 63, 72
1, 171028, Control_c, 0, 67, 48
1, 171036, Note_off_c, 0, 65, 64
1, 171043, Control_c, 0, 64, 47
1, 171043, Control_c, 0, 67, 29
1, 171058, Control_c, 0, 64, 46
1, 171058, Control_c, 0, 67, 9
1, 171073, Control_c, 0, 64, 44
1, 171073, Control_c, 0, 67, 0
1, 171088, Control_c, 0, 64, 40
1, 171090, Note_on_c, 0, 62, 76
1, 171095, Note_off_c, 0, 63, 64
1, 171102, Control_c, 0, 64, 32
1, 171117, Control_c, 0, 64, 21
1, 171132, Control_c, 0, 64, 0
1, 171156, Note_on_c, 0, 63, 70
1, 171163, Note_off_c, 0, 62, 64
1, 171186, Note_on_c, 0, 67, 69
1, 171220, Note_off_c, 0, 63, 62
1, 171261, Note_off_c, 0, 67, 66
1, 171262, Note_on_c, 0, 70, 81
1, 171281, Note_off_c, 0, 70, 72
1, 171333, Note_on_c, 0, 73, 70
1, 171381, Note_off_c, 0, 73, 62
1, 171387, Note_on_c, 0, 75, 72
1, 171437, Note_off_c, 0, 75, 65
1, 171445, Note_on_c, 0, 79, 66
1, 171488, Control_c, 0, 64, 20
1, 171503, Control_c, 0, 64, 28
1, 171522, Note_on_c, 0, 82, 75
1, 171525, Control_c, 0, 64, 33
1, 171530, Note_off_c, 0, 79, 61
1, 171540, Control_c, 0, 64, 37
1, 171555, Control_c, 0, 64, 41
1, 171555, Control_c, 0, 67, 16
1, 171570, Control_c, 0, 64, 44
1, 171570, Control_c, 0, 67, 28
1, 171585, Control_c, 0, 64, 46
1, 171585, Control_c, 0, 67, 45
1, 171599, Control_c, 0, 67, 71
1, 171614, Control_c, 0, 67, 97
1, 171629, Control_c, 0, 67, 122
1, 171644, Control_c, 0, 67, 127
1, 171660, Note_off_c, 0, 82, 37
1, 171703, Control_c, 0, 64, 46
1, 171732, Control_c, 0, 64, 47
1, 171747, Control_c, 0, 64, 47
1, 171792, Control_c, 0, 64, 46
1, 171806, Control_c, 0, 64, 43
1, 171821, Control_c, 0, 64, 36
1, 171836, Control_c, 0, 64, 27
1, 171851, Control_c, 0, 64, 12
1, 171866, Control_c, 0, 64, 0
1, 171869, Note_on_c, 0, 63, 53
1, 171955, Note_off_c, 0, 63, 58
1, 171967, Note_on_c, 0, 65, 54
1, 172042, Note_off_c, 0, 65, 59
1, 172046, Note_on_c, 0, 63, 56
1, 172110, Note_off_c, 0, 63, 61
1, 172123, Note_on_c, 0, 62, 63
1, 172208, Note_off_c, 0, 62, 61
1, 172223, Note_on_c, 0, 63, 57
1, 172284, Note_off_c, 0, 63, 60
1, 172308, Note_on_c, 0, 67, 53
1, 172398, Note_off_c, 0, 67, 62
1, 172408, Note_on_c, 0, 71, 48
1, 172439, Note_off_c, 0, 71, 56
1, 172519, Note_on_c, 0, 73, 41
1, 172635, Note_off_c, 0, 73, 45
1, 172651, Note_on_c, 0, 75, 43
1, 172802, Note_off_c, 0, 75, 53
1, 172811, Note_on_c, 0, 79, 44
1, 173092, Note_on_c, 0, 83, 47
1, 173108, Note_off_c, 0, 79, 39
1, 173260, Control_c, 0, 64, 12
1, 173275, Control_c, 0, 64, 20
1, 173290, Control_c, 0, 64, 25
1, 173304, Control_c, 0, 64, 31
1, 173319, Control_c, 0, 64, 35
1, 173334, Control_c, 0, 64, 42
1, 173349, Control_c, 0, 64, 50
1, 173364, Control_c, 0, 64, 58
1, 173378, Control_c, 0, 64, 64
1, 173393, Control_c, 0, 64, 71
1, 173408, Control_c, 0, 64, 74
1, 173423, Control_c, 0, 64, 75
1, 173438, Control_c, 0, 64, 76
1, 173440, Note_off_c, 0, 83, 25
1, 173689, Control_c, 0, 64, 75
1, 173704, Control_c, 0, 64, 75
1, 173719, Control_c, 0, 64, 74
1, 173734, Control_c, 0, 64, 74
1, 173749, Control_c, 0, 64, 73
1, 173771, Control_c, 0, 64, 72
1, 173785, Control_c, 0, 64, 70
1, 173800, Control_c, 0, 64, 70
1, 173815, Control_c, 0, 64, 69
1, 173830, Control_c, 0, 64, 68
1, 173846, Control_c, 0, 64, 66
1, 173861, Control_c, 0, 64, 65
1, 173875, Control_c, 0, 64, 64
1, 173890, Control_c, 0, 64, 63
1, 173905, Control_c, 0, 64, 62
1, 173919, Control_c, 0, 64, 60
1, 173934, Control_c, 0, 64, 58
1, 173949, Control_c, 0, 64, 56
1, 173964, Control_c, 0, 64, 54
1, 173979, Control_c, 0, 64, 51
1, 173993, Control_c, 0, 64, 49
1, 174008, Control_c, 0, 64, 48
1, 174023, Control_c, 0, 64, 46
1, 174038, Control_c, 0, 64, 45
1, 174053, Control_c, 0, 64, 44
1, 174067, Control_c, 0, 64, 43
1, 174082, Control_c, 0, 64, 42
1, 174097, Control_c, 0, 64, 41
1, 174112, Control_c, 0, 64, 40
1, 174126, Control_c, 0, 64, 39
1, 174141, Control_c, 0, 64, 38
1, 174156, Control_c, 0, 64, 37
1, 174171, Control_c, 0, 64, 36
1, 174186, Control_c, 0, 64, 35
1, 174200, Control_c, 0, 64, 34
1, 174215, Control_c, 0, 64, 34
1, 174230, Control_c, 0, 64, 33
1, 174245, Control_c, 0, 64, 32
1, 174259, Control_c, 0, 64, 31
1, 174274, Control_c, 0, 64, 30
1, 174289, Control_c, 0, 64, 29
1, 174304, Control_c, 0, 64, 29
1, 174319, Control_c, 0, 64, 28
1, 174334, Control_c, 0, 64, 28
1, 174349, Control_c, 0, 64, 27
1, 174364, Control_c, 0, 64, 26
1, 174379, Control_c, 0, 64, 26
1, 174393, Control_c, 0, 64, 25
1, 174408, Control_c, 0, 64, 25
1, 174423, Control_c, 0, 64, 24
1, 174437, Control_c, 0, 64, 24
1, 174452, Control_c, 0, 64, 23
1, 174467, Control_c, 0, 64, 23
1, 174497, Control_c, 0, 64, 22
1, 174519, Control_c, 0, 64, 22
1, 174549, Control_c, 0, 64, 21
1, 174578, Control_c, 0, 64, 21
1, 174669, Control_c, 0, 64, 20
1, 174728, Control_c, 0, 64, 20
1, 174742, Control_c, 0, 64, 19
1, 174757, Control_c, 0, 64, 19
1, 174787, Control_c, 0, 64, 18
1, 174802, Control_c, 0, 64, 18
1, 176239, Control_c, 0, 64, 18
1, 176254, Control_c, 0, 64, 19
1, 176269, Control_c, 0, 64, 20
1, 176283, Control_c, 0, 64, 22
1, 176298, Control_c, 0, 64, 23
1, 176313, Control_c, 0, 64, 24
1, 176328, Control_c, 0, 64, 25
1, 176343, Control_c, 0, 64, 26
1, 176358, Control_c, 0, 64, 26
1, 176373, Control_c, 0, 64, 27
1, 176387, Control_c, 0, 64, 27
1, 176402, Control_c, 0, 64, 28
1, 176447, Control_c, 0, 64, 28
1, 176476, Control_c, 0, 64, 29
1, 176535, Control_c, 0, 64, 29
1, 176780, Control_c, 0, 64, 30
1, 176794, Control_c, 0, 64, 30
1, 176809, Control_c, 0, 64, 31
1, 176824, Control_c, 0, 64, 32
1, 176838, Control_c, 0, 64, 34
1, 176853, Control_c, 0, 64, 35
1, 176868, Control_c, 0, 64, 37
1, 176883, Control_c, 0, 64, 39
1, 176898, Control_c, 0, 64, 41
1, 176912, Control_c, 0, 64, 44
1, 176927, Control_c, 0, 64, 48
1, 176942, Control_c, 0, 64, 52
1, 176957, Control_c, 0, 64, 55
1, 176972, Control_c, 0, 64, 58
1, 176987, Control_c, 0, 64, 60
1, 177002, Control_c, 0, 64, 61
1, 177017, Control_c, 0, 64, 62
1, 177032, Control_c, 0, 64, 62
1, 177061, Control_c, 0, 64, 63
1, 177061, Control_c, 0, 67, 125
1, 177076, Control_c, 0, 67, 124
1, 177091, Control_c, 0, 64, 63
1, 177091, Control_c, 0, 67, 123
1, 177106, Control_c, 0, 64, 64
1, 177106, Control_c, 0, 67, 121
1, 177121, Control_c, 0, 67, 120
1, 177136, Control_c, 0, 67, 118
1, 177151, Control_c, 0, 64, 64
1, 177151, Control_c, 0, 67, 117
1, 177166, Control_c, 0, 67, 116
1, 177181, Control_c, 0, 67, 115
1, 177196, Control_c, 0, 67, 114
1, 177210, Control_c, 0, 64, 65
1, 177210, Control_c, 0, 67, 112
1, 177225, Control_c, 0, 67, 110
1, 177240, Control_c, 0, 67, 108
1, 177255, Control_c, 0, 64, 65
1, 177255, Control_c, 0, 67, 106
1, 177269, Control_c, 0, 67, 104
1, 177284, Control_c, 0, 67, 102
1, 177297, Note_on_c, 0, 75, 41
1, 177299, Control_c, 0, 64, 66
1, 177299, Control_c, 0, 67, 100
1, 177314, Control_c, 0, 67, 97
1, 177328, Control_c, 0, 67, 92
1, 177343, Control_c, 0, 67, 87
1, 177358, Control_c, 0, 64, 66
1, 177358, Control_c, 0, 67, 80
1, 177373, Control_c, 0, 67, 69
1, 177388, Control_c, 0, 67, 55
1, 177403, Control_c, 0, 67, 41
1, 177417, Control_c, 0, 67, 26
1, 177432, Control_c, 0, 67, 0
1, 177471, Note_off_c, 0, 75, 33
1, 177569, Note_on_c, 0, 75, 39
1, 177573, Control_c, 0, 64, 66
1, 177603, Control_c, 0, 64, 65
1, 177617, Control_c, 0, 64, 64
1, 177632, Control_c, 0, 64, 63
1, 177648, Control_c, 0, 64, 62
1, 177662, Control_c, 0, 64, 61
1, 177677, Control_c, 0, 64, 59
1, 177692, Control_c, 0, 64, 56
1, 177707, Control_c, 0, 64, 51
1, 177722, Control_c, 0, 64, 47
1, 177736, Control_c, 0, 64, 43
1, 177744, Note_on_c, 0, 77, 60
1, 177751, Control_c, 0, 64, 40
1, 177756, Note_off_c, 0, 75, 51
1, 177766, Control_c, 0, 64, 37
1, 177781, Control_c, 0, 64, 35
1, 177795, Control_c, 0, 64, 30
1, 177810, Control_c, 0, 64, 26
1, 177825, Control_c, 0, 64, 21
1, 177841, Control_c, 0, 64, 17
1, 177856, Control_c, 0, 64, 12
1, 177865, Note_on_c, 0, 75, 66
1, 177871, Control_c, 0, 64, 0
1, 177882, Note_off_c, 0, 77, 59
1, 177965, Note_on_c, 0, 74, 64
1, 177980, Note_off_c, 0, 75, 62
1, 178086, Note_on_c, 0, 75, 56
1, 178093, Note_off_c, 0, 74, 61
1, 178331, Note_on_c, 0, 84, 52
1, 178346, Note_off_c, 0, 75, 56
1, 178650, Control_c, 0, 67, 9
1, 178664, Control_c, 0, 67, 12
1, 178679, Control_c, 0, 67, 16
1, 178694, Control_c, 0, 67, 23
1, 178708, Control_c, 0, 67, 32
1, 178723, Control_c, 0, 67, 43
1, 178724, Note_on_c, 0, 79, 47
1, 178738, Control_c, 0, 67, 58
1, 178753, Control_c, 0, 67, 71
1, 178768, Note_off_c, 0, 84, 32
1, 178768, Control_c, 0, 67, 85
1, 178782, Control_c, 0, 67, 103
1, 178797, Control_c, 0, 67, 122
1, 178812, Control_c, 0, 67, 127
1, 179115, Control_c, 0, 64, 14
1, 179124, Note_off_c, 0, 79, 58
1, 179130, Control_c, 0, 64, 22
1, 179142, Note_on_c, 0, 44, 30
1, 179145, Control_c, 0, 64, 28
1, 179160, Control_c, 0, 64, 33
1, 179175, Control_c, 0, 64, 38
1, 179190, Control_c, 0, 64, 44
1, 179205, Control_c, 0, 64, 52
1, 179220, Control_c, 0, 64, 59
1, 179234, Control_c, 0, 64, 64
1, 179249, Control_c, 0, 64, 68
1, 179264, Control_c, 0, 64, 69
1, 179279, Control_c, 0, 64, 70
1, 179294, Control_c, 0, 64, 72
1, 179308, Control_c, 0, 64, 74
1, 179323, Control_c, 0, 64, 80
1, 179338, Control_c, 0, 64, 90
1, 179353, Control_c, 0, 64, 108
1, 179368, Control_c, 0, 64, 127
1, 179388, Note_on_c, 0, 51, 44
1, 179402, Note_off_c, 0, 44, 40
1, 179456, Note_off_c, 0, 51, 51
1, 179655, Note_on_c, 0, 60, 31
1, 179732, Note_on_c, 0, 82, 71
1, 179831, Note_off_c, 0, 60, 40
1, 180156, Note_on_c, 0, 56, 42
1, 180164, Note_on_c, 0, 63, 37
1, 180213, Note_off_c, 0, 56, 41
1, 180224, Note_off_c, 0, 63, 42
1, 180510, Note_on_c, 0, 80, 58
1, 180515, Note_on_c, 0, 60, 42
1, 180526, Note_on_c, 0, 68, 34
1, 180570, Note_off_c, 0, 82, 32
1, 180586, Note_off_c, 0, 60, 51
1, 180659, Note_off_c, 0, 68, 40
1, 180725, Note_off_c, 0, 80, 30
1, 180786, Note_on_c, 0, 72, 49
1, 180791, Control_c, 0, 67, 127
1, 180805, Control_c, 0, 67, 125
1, 180850, Control_c, 0, 67, 126
1, 180865, Control_c, 0, 67, 127
1, 181004, Note_off_c, 0, 72, 37
1, 181022, Note_on_c, 0, 73, 59
1, 181199, Note_off_c, 0, 73, 62
1, 181221, Control_c, 0, 64, 99
1, 181235, Control_c, 0, 64, 65
1, 181242, Note_on_c, 0, 44, 50
1, 181258, Control_c, 0, 64, 52
1, 181273, Control_c, 0, 64, 33
1, 181288, Control_c, 0, 64, 14
1, 181303, Control_c, 0, 64, 10
1, 181317, Control_c, 0, 64, 11
1, 181332, Control_c, 0, 64, 13
1, 181347, Control_c, 0, 64, 14
1, 181362, Control_c, 0, 64, 15
1, 181377, Control_c, 0, 64, 15
1, 181392, Control_c, 0, 64, 16
1, 181407, Control_c, 0, 64, 18
1, 181422, Control_c, 0, 64, 21
1, 181434, Note_off_c, 0, 44, 55
1, 181436, Control_c, 0, 64, 24
1, 181449, Note_on_c, 0, 51, 43
1, 181451, Control_c, 0, 64, 27
1, 181466, Control_c, 0, 64, 30
1, 181481, Control_c, 0, 64, 32
1, 181496, Control_c, 0, 64, 36
1, 181510, Control_c, 0, 64, 39
1, 181525, Control_c, 0, 64, 45
1, 181540, Control_c, 0, 64, 51
1, 181548, Note_on_c, 0, 77, 69
1, 181551, Note_off_c, 0, 51, 37
1, 181555, Control_c, 0, 64, 57
1, 181570, Control_c, 0, 64, 63
1, 181575, Note_on_c, 0, 60, 50
1, 181584, Control_c, 0, 64, 68
1, 181599, Control_c, 0, 64, 73
1, 181614, Control_c, 0, 64, 76
1, 181628, Control_c, 0, 64, 79
1, 181643, Control_c, 0, 64, 85
1, 181649, Note_off_c, 0, 60, 53
1, 181658, Control_c, 0, 64, 98
1, 181673, Control_c, 0, 64, 127
1, 181806, Note_on_c, 0, 63, 50
1, 181808, Note_on_c, 0, 56, 42
1, 181845, Note_off_c, 0, 56, 52
1, 181857, Note_off_c, 0, 63, 57
1, 181867, Control_c, 0, 67, 122
1, 181882, Control_c, 0, 67, 114
1, 181897, Control_c, 0, 67, 104
1, 181911, Control_c, 0, 67, 94
1, 181926, Control_c, 0, 67, 82
1, 181941, Control_c, 0, 67, 70
1, 181956, Control_c, 0, 67, 59
1, 181971, Control_c, 0, 67, 48
1, 181986, Control_c, 0, 67, 40
1, 182007, Control_c, 0, 67, 33
1, 182022, Control_c, 0, 67, 28
1, 182037, Control_c, 0, 67, 23
1, 182046, Note_on_c, 0, 75, 64
1, 182052, Control_c, 0, 67, 18
1, 182053, Note_on_c, 0, 60, 37
1, 182062, Note_on_c, 0, 68, 12
1, 182066, Control_c, 0, 67, 9
1, 182081, Control_c, 0, 67, 0
1, 182094, Note_off_c, 0, 77, 35
1, 182122, Note_off_c, 0, 68, 45
1, 182233, Note_off_c, 0, 60, 41
1, 182258, Note_on_c, 0, 73, 74
1, 182335, Note_off_c, 0, 75, 49
1, 182512, Note_on_c, 0, 72, 74
1, 182539, Note_off_c, 0, 73, 59
1, 182570, Control_c, 0, 67, 8
1, 182585, Control_c, 0, 67, 11
1, 182600, Control_c, 0, 67, 15
1, 182615, Control_c, 0, 67, 19
1, 182630, Control_c, 0, 67, 26
1, 182645, Control_c, 0, 67, 36
1, 182660, Control_c, 0, 67, 49
1, 182675, Control_c, 0, 67, 68
1, 182689, Control_c, 0, 67, 87
1, 182704, Control_c, 0, 67, 106
1, 182719, Control_c, 0, 67, 123
1, 182734, Control_c, 0, 64, 74
1, 182734, Control_c, 0, 67, 127
1, 182756, Control_c, 0, 64, 54
1, 182764, Note_on_c, 0, 44, 52
1, 182771, Control_c, 0, 64, 0
1, 182830, Control_c, 0, 64, 28
1, 182845, Control_c, 0, 64, 44
1, 182860, Control_c, 0, 64, 63
1, 182871, Note_off_c, 0, 44, 61
1, 182875, Control_c, 0, 64, 105
1, 182889, Control_c, 0, 64, 127
1, 182892, Note_off_c, 0, 72, 56
1, 183078, Note_on_c, 0, 72, 70
1, 183094, Note_on_c, 0, 53, 50
1, 183103, Note_on_c, 0, 62, 51
1, 183145, Note_off_c, 0, 53, 63
1, 183177, Note_off_c, 0, 62, 57
1, 183402, Note_on_c, 0, 56, 48
1, 183411, Note_on_c, 0, 65, 35
1, 183527, Note_off_c, 0, 56, 33
1, 183566, Note_off_c, 0, 65, 42
1, 183825, Note_on_c, 0, 70, 55
1, 183838, Note_on_c, 0, 62, 42
1, 183921, Note_off_c, 0, 62, 0
1, 183921, Note_on_c, 0, 62, 3
1, 184132, Note_off_c, 0, 72, 0
1, 184159, Note_off_c, 0, 62, 35
1, 184169, Poly_aftertouch_c, 0, 72, 127
1, 184212, Note_on_c, 0, 69, 54
1, 184236, Note_off_c, 0, 70, 24
1, 184344, Poly_aftertouch_c, 0, 72, 0
1, 184454, Note_on_c, 0, 70, 63
1, 184480, Note_off_c, 0, 69, 58
1, 184579, Note_off_c, 0, 70, 62
1, 184603, Note_on_c, 0, 69, 55
1, 184687, Note_off_c, 0, 69, 54
1, 184713, Note_on_c, 0, 70, 62
1, 184763, Note_off_c, 0, 70, 61
1, 184785, Note_on_c, 0, 72, 62
1, 184820, Note_off_c, 0, 72, 62
1, 184852, Note_on_c, 0, 70, 63
1, 184875, Control_c, 0, 67, 113
1, 184880, Note_off_c, 0, 70, 65
1, 184890, Control_c, 0, 67, 80
1, 184905, Control_c, 0, 67, 48
1, 184909, Note_on_c, 0, 72, 63
1, 184919, Control_c, 0, 67, 17
1, 184934, Control_c, 0, 67, 0
1, 184943, Note_off_c, 0, 72, 64
1, 184961, Note_on_c, 0, 70, 67
1, 185003, Note_off_c, 0, 70, 59
1, 185026, Note_on_c, 0, 72, 64
1, 185067, Note_off_c, 0, 72, 59
1, 185101, Note_on_c, 0, 70, 62
1, 185133, Note_off_c, 0, 70, 65
1, 185164, Note_on_c, 0, 72, 54
1, 185193, Note_off_c, 0, 72, 59
1, 185211, Note_on_c, 0, 70, 64
1, 185244, Note_off_c, 0, 70, 60
1, 185273, Note_on_c, 0, 72, 65
1, 185314, Note_off_c, 0, 72, 55
1, 185346, Note_on_c, 0, 70, 62
1, 185376, Note_off_c, 0, 70, 66
1, 185408, Note_on_c, 0, 72, 58
1, 185432, Control_c, 0, 67, 8
1, 185447, Note_off_c, 0, 72, 60
1, 185447, Control_c, 0, 67, 10
1, 185461, Note_on_c, 0, 70, 62
1, 185462, Control_c, 0, 67, 13
1, 185477, Control_c, 0, 67, 17
1, 185491, Control_c, 0, 67, 23
1, 185501, Note_off_c, 0, 70, 58
1, 185506, Control_c, 0, 67, 31
1, 185521, Control_c, 0, 67, 41
1, 185536, Control_c, 0, 67, 53
1, 185537, Note_on_c, 0, 72, 58
1, 185551, Control_c, 0, 67, 67
1, 185566, Control_c, 0, 67, 80
1, 185578, Note_off_c, 0, 72, 57
1, 185581, Control_c, 0, 67, 93
1, 185595, Control_c, 0, 67, 108
1, 185610, Control_c, 0, 67, 118
1, 185611, Note_on_c, 0, 70, 56
1, 185625, Control_c, 0, 67, 127
1, 185634, Note_off_c, 0, 70, 64
1, 185650, Note_on_c, 0, 72, 55
1, 185712, Note_on_c, 0, 70, 61
1, 185739, Note_off_c, 0, 72, 0
1, 185761, Note_off_c, 0, 70, 62
1, 185767, Note_on_c, 0, 72, 36
1, 185819, Note_off_c, 0, 72, 62
1, 185837, Note_on_c, 0, 70, 66
1, 185873, Note_off_c, 0, 70, 63
1, 185895, Note_on_c, 0, 69, 65
1, 185946, Note_off_c, 0, 69, 60
1, 185961, Note_on_c, 0, 70, 74
1, 186006, Note_on_c, 0, 73, 65
1, 186011, Note_off_c, 0, 70, 62
1, 186046, Note_on_c, 0, 74, 68
1, 186055, Note_off_c, 0, 73, 66
1, 186064, Note_off_c, 0, 74, 66
1, 186102, Note_on_c, 0, 76, 68
1, 186137, Control_c, 0, 67, 124
1, 186150, Note_off_c, 0, 76, 63
1, 186152, Control_c, 0, 67, 121
1, 186156, Note_on_c, 0, 77, 80
1, 186167, Control_c, 0, 67, 116
1, 186178, Note_on_c, 0, 79, 69
1, 186181, Control_c, 0, 67, 110
1, 186196, Control_c, 0, 67, 97
1, 186199, Note_off_c, 0, 77, 63
1, 186201, Note_off_c, 0, 79, 65
1, 186211, Control_c, 0, 67, 80
1, 186219, Note_on_c, 0, 80, 59
1, 186225, Control_c, 0, 67, 59
1, 186238, Note_off_c, 0, 80, 63
1, 186240, Control_c, 0, 67, 37
1, 186255, Note_on_c, 0, 81, 85
1, 186255, Control_c, 0, 67, 17
1, 186270, Control_c, 0, 67, 0
1, 186289, Note_off_c, 0, 81, 58
1, 186315, Note_on_c, 0, 82, 76
1, 186353, Note_on_c, 0, 85, 68
1, 186401, Note_off_c, 0, 82, 63
1, 186402, Note_on_c, 0, 86, 72
1, 186412, Note_off_c, 0, 85, 65
1, 186428, Note_off_c, 0, 86, 64
1, 186448, Control_c, 0, 64, 80
1, 186463, Control_c, 0, 64, 54
1, 186476, Note_on_c, 0, 44, 66
1, 186478, Control_c, 0, 64, 0
1, 186559, Control_c, 0, 64, 27
1, 186574, Control_c, 0, 64, 43
1, 186579, Note_off_c, 0, 44, 62
1, 186588, Control_c, 0, 64, 60
1, 186591, Note_on_c, 0, 51, 56
1, 186603, Control_c, 0, 64, 81
1, 186618, Control_c, 0, 64, 127
1, 186718, Note_on_c, 0, 61, 60
1, 186745, Note_on_c, 0, 89, 89
1, 186772, Note_off_c, 0, 51, 36
1, 186777, Note_off_c, 0, 61, 64
1, 186957, Note_on_c, 0, 55, 49
1, 186958, Note_on_c, 0, 63, 55
1, 187006, Note_off_c, 0, 63, 56
1, 187030, Note_off_c, 0, 55, 49
1, 187140, Note_on_c, 0, 87, 83
1, 187156, Note_on_c, 0, 61, 50
1, 187157, Note_on_c, 0, 67, 54
1, 187227, Note_off_c, 0, 67, 46
1, 187352, Note_on_c, 0, 85, 80
1, 187355, Note_off_c, 0, 61, 55
1, 187384, Note_off_c, 0, 89, 58
1, 187411, Control_c, 0, 67, 9
1, 187427, Control_c, 0, 67, 18
1, 187442, Control_c, 0, 67, 34
1, 187457, Control_c, 0, 67, 57
1, 187471, Control_c, 0, 67, 83
1, 187486, Control_c, 0, 67, 108
1, 187501, Control_c, 0, 67, 127
1, 187553, Note_off_c, 0, 87, 21
1, 187560, Note_on_c, 0, 82, 71
1, 187568, Note_off_c, 0, 85, 58
1, 187691, Note_off_c, 0, 82, 64
1, 187694, Control_c, 0, 64, 93
1, 187709, Control_c, 0, 64, 60
1, 187724, Note_on_c, 0, 44, 58
1, 187724, Control_c, 0, 64, 14
1, 187739, Control_c, 0, 64, 0
1, 187783, Control_c, 0, 64, 12
1, 187797, Control_c, 0, 64, 33
1, 187812, Control_c, 0, 64, 49
1, 187827, Control_c, 0, 64, 66
1, 187830, Note_off_c, 0, 44, 53
1, 187842, Note_on_c, 0, 51, 57
1, 187842, Control_c, 0, 64, 122
1, 187857, Control_c, 0, 64, 127
1, 187995, Note_on_c, 0, 61, 48
1, 188005, Note_off_c, 0, 51, 33
1, 188034, Note_on_c, 0, 77, 81
1, 188094, Note_off_c, 0, 61, 62
1, 188308, Note_on_c, 0, 55, 47
1, 188333, Note_on_c, 0, 63, 41
1, 188368, Note_off_c, 0, 55, 54
1, 188395, Note_off_c, 0, 63, 42
1, 188661, Note_on_c, 0, 75, 59
1, 188663, Note_on_c, 0, 67, 41
1, 188671, Note_on_c, 0, 61, 36
1, 188958, Note_off_c, 0, 77, 24
1, 189080, Note_off_c, 0, 67, 44
1, 189082, Note_on_c, 0, 73, 58
1, 189223, Note_off_c, 0, 61, 45
1, 189325, Note_on_c, 0, 70, 64
1, 189367, Note_off_c, 0, 73, 56
1, 189419, Note_off_c, 0, 75, 32
1, 189583, Control_c, 0, 64, 95
1, 189598, Control_c, 0, 64, 73
1, 189613, Control_c, 0, 64, 61
1, 189614, Note_on_c, 0, 44, 44
1, 189628, Control_c, 0, 64, 42
1, 189643, Control_c, 0, 64, 0
1, 189681, Note_off_c, 0, 70, 62
1, 189682, Note_on_c, 0, 67, 53
1, 189761, Control_c, 0, 64, 29
1, 189775, Control_c, 0, 64, 43
1, 189790, Control_c, 0, 64, 57
1, 189805, Control_c, 0, 64, 73
1, 189808, Note_off_c, 0, 44, 56
1, 189821, Control_c, 0, 64, 127
1, 189941, Note_off_c, 0, 67, 37
1, 189954, Control_c, 0, 64, 74
1, 189964, Note_on_c, 0, 68, 64
1, 189969, Control_c, 0, 64, 65
1, 189972, Note_on_c, 0, 51, 45
1, 189973, Note_on_c, 0, 60, 59
1, 189984, Control_c, 0, 64, 65
1, 189999, Control_c, 0, 64, 69
1, 190001, Note_off_c, 0, 51, 58
1, 190008, Note_off_c, 0, 60, 65
1, 190014, Control_c, 0, 64, 85
1, 190028, Control_c, 0, 64, 127
1, 190048, Note_off_c, 0, 68, 58
1, 190162, Control_c, 0, 64, 85
1, 190177, Control_c, 0, 64, 79
1, 190187, Note_on_c, 0, 72, 64
1, 190191, Control_c, 0, 64, 82
1, 190201, Note_on_c, 0, 56, 43
1, 190201, Note_on_c, 0, 63, 49
1, 190206, Control_c, 0, 64, 102
1, 190221, Control_c, 0, 64, 127
1, 190228, Note_off_c, 0, 56, 56
1, 190258, Note_off_c, 0, 63, 44
1, 190273, Control_c, 0, 67, 119
1, 190285, Note_off_c, 0, 72, 47
1, 190288, Control_c, 0, 67, 108
1, 190303, Control_c, 0, 67, 98
1, 190317, Control_c, 0, 67, 87
1, 190332, Control_c, 0, 67, 75
1, 190347, Control_c, 0, 67, 66
1, 190362, Control_c, 0, 67, 59
1, 190377, Control_c, 0, 67, 54
1, 190386, Note_on_c, 0, 75, 66
1, 190391, Control_c, 0, 67, 49
1, 190396, Note_on_c, 0, 68, 48
1, 190398, Note_on_c, 0, 60, 48
1, 190406, Control_c, 0, 67, 46
1, 190413, Note_off_c, 0, 75, 65
1, 190420, Note_off_c, 0, 60, 62
1, 190421, Control_c, 0, 67, 44
1, 190424, Note_off_c, 0, 68, 56
1, 190436, Control_c, 0, 67, 42
1, 190465, Control_c, 0, 67, 42
1, 190480, Control_c, 0, 67, 41
1, 190495, Control_c, 0, 67, 41
1, 190510, Control_c, 0, 67, 40
1, 190554, Control_c, 0, 67, 40
1, 190568, Note_on_c, 0, 79, 64
1, 190569, Control_c, 0, 67, 39
1, 190584, Control_c, 0, 67, 35
1, 190598, Control_c, 0, 67, 28
1, 190614, Control_c, 0, 67, 20
1, 190629, Control_c, 0, 67, 11
1, 190644, Control_c, 0, 67, 0
1, 190666, Note_off_c, 0, 79, 60
1, 190671, Note_on_c, 0, 80, 68
1, 190695, Note_off_c, 0, 80, 68
1, 190800, Note_on_c, 0, 84, 45
1, 190836, Note_off_c, 0, 84, 53
1, 190866, Note_on_c, 0, 87, 59
1, 190936, Note_off_c, 0, 87, 63
1, 190962, Note_on_c, 0, 96, 64
1, 191067, Note_on_c, 0, 92, 68
1, 191078, Note_off_c, 0, 96, 53
1, 191091, Note_off_c, 0, 92, 69
1, 191305, Note_on_c, 0, 60, 49
1, 191317, Note_on_c, 0, 68, 37
1, 191409, Note_off_c, 0, 60, 36
1, 191458, Note_off_c, 0, 68, 26
1, 191496, Control_c, 0, 67, 11
1, 191510, Control_c, 0, 67, 16
1, 191525, Control_c, 0, 67, 25
1, 191540, Control_c, 0, 67, 41
1, 191546, Note_on_c, 0, 72, 50
1, 191555, Control_c, 0, 67, 59
1, 191558, Note_on_c, 0, 63, 41
1, 191570, Control_c, 0, 67, 79
1, 191584, Control_c, 0, 67, 96
1, 191585, Note_off_c, 0, 72, 62
1, 191599, Note_off_c, 0, 63, 46
1, 191599, Control_c, 0, 67, 109
1, 191614, Control_c, 0, 67, 118
1, 191629, Control_c, 0, 67, 123
1, 191644, Control_c, 0, 67, 127
1, 191840, Note_on_c, 0, 68, 41
1, 191844, Note_on_c, 0, 75, 39
1, 191882, Note_off_c, 0, 75, 51
1, 191884, Note_off_c, 0, 68, 46
1, 192024, Note_on_c, 0, 75, 40
1, 192089, Note_off_c, 0, 75, 40
1, 192106, Note_on_c, 0, 77, 55
1, 192168, Note_off_c, 0, 77, 60
1, 192186, Note_on_c, 0, 75, 65
1, 192254, Note_off_c, 0, 75, 58
1, 192262, Note_on_c, 0, 74, 57
1, 192290, Control_c, 0, 64, 108
1, 192305, Control_c, 0, 64, 91
1, 192320, Control_c, 0, 64, 77
1, 192334, Control_c, 0, 64, 68
1, 192343, Note_off_c, 0, 74, 64
1, 192349, Control_c, 0, 64, 63
1, 192351, Note_on_c, 0, 75, 57
1, 192364, Control_c, 0, 64, 55
1, 192379, Control_c, 0, 64, 43
1, 192393, Control_c, 0, 64, 25
1, 192400, Note_off_c, 0, 75, 0
1, 192400, Note_on_c, 0, 75, 19
1, 192408, Control_c, 0, 64, 0
1, 192507, Note_on_c, 0, 84, 55
1, 192520, Control_c, 0, 67, 118
1, 192526, Note_off_c, 0, 75, 55
1, 192535, Control_c, 0, 67, 99
1, 192549, Control_c, 0, 67, 69
1, 192564, Control_c, 0, 67, 40
1, 192579, Control_c, 0, 67, 10
1, 192593, Control_c, 0, 67, 0
1, 192771, Control_c, 0, 67, 8
1, 192786, Control_c, 0, 67, 16
1, 192801, Control_c, 0, 67, 27
1, 192816, Control_c, 0, 67, 45
1, 192830, Control_c, 0, 67, 66
1, 192839, Note_off_c, 0, 84, 58
1, 192841, Note_on_c, 0, 79, 52
1, 192845, Control_c, 0, 67, 90
1, 192860, Control_c, 0, 67, 108
1, 192875, Control_c, 0, 67, 122
1, 192890, Control_c, 0, 67, 127
1, 193039, Control_c, 0, 64, 16
1, 193051, Note_on_c, 0, 44, 42
1, 193054, Control_c, 0, 64, 27
1, 193055, Note_off_c, 0, 79, 62
1, 193069, Control_c, 0, 64, 34
1, 193083, Control_c, 0, 64, 43
1, 193098, Control_c, 0, 64, 53
1, 193113, Control_c, 0, 64, 62
1, 193128, Control_c, 0, 64, 71
1, 193142, Control_c, 0, 64, 89
1, 193157, Control_c, 0, 64, 127
1, 193227, Note_off_c, 0, 44, 57
1, 193240, Note_on_c, 0, 51, 50
1, 193301, Note_off_c, 0, 51, 49
1, 193328, Control_c, 0, 67, 117
1, 193342, Control_c, 0, 67, 98
1, 193357, Control_c, 0, 67, 68
1, 193372, Control_c, 0, 67, 42
1, 193387, Control_c, 0, 67, 19
1, 193402, Control_c, 0, 67, 0
1, 193439, Note_on_c, 0, 60, 41
1, 193501, Note_on_c, 0, 82, 76
1, 193545, Note_off_c, 0, 60, 58
1, 193814, Note_on_c, 0, 63, 45
1, 193815, Note_on_c, 0, 56, 37
1, 193850, Note_off_c, 0, 56, 52
1, 193861, Note_off_c, 0, 63, 59
1, 194062, Control_c, 0, 67, 12
1, 194076, Control_c, 0, 67, 17
1, 194091, Control_c, 0, 67, 23
1, 194106, Control_c, 0, 67, 33
1, 194109, Note_on_c, 0, 68, 37
1, 194112, Note_on_c, 0, 60, 39
1, 194117, Note_on_c, 0, 80, 54
1, 194121, Control_c, 0, 67, 46
1, 194136, Control_c, 0, 67, 62
1, 194151, Control_c, 0, 67, 77
1, 194165, Control_c, 0, 67, 93
1, 194180, Control_c, 0, 67, 106
1, 194195, Control_c, 0, 67, 119
1, 194206, Note_off_c, 0, 82, 34
1, 194210, Control_c, 0, 67, 127
1, 194241, Note_off_c, 0, 68, 35
1, 194357, Note_off_c, 0, 60, 39
1, 194372, Note_off_c, 0, 80, 20
1, 194447, Note_on_c, 0, 72, 57
1, 194670, Note_on_c, 0, 73, 70
1, 194720, Note_off_c, 0, 72, 60
1, 194825, Control_c, 0, 64, 72
1, 194840, Control_c, 0, 64, 55
1, 194855, Control_c, 0, 64, 25
1, 194857, Note_on_c, 0, 44, 56
1, 194863, Note_off_c, 0, 73, 63
1, 194869, Control_c, 0, 64, 0
1, 194914, Control_c, 0, 64, 9
1, 194929, Control_c, 0, 64, 31
1, 194944, Control_c, 0, 64, 46
1, 194959, Control_c, 0, 64, 59
1, 194959, Control_c, 0, 67, 111
1, 194974, Control_c, 0, 64, 75
1, 194974, Control_c, 0, 67, 79
1, 194980, Note_off_c, 0, 44, 60
1, 194981, Note_on_c, 0, 51, 55
1, 194988, Control_c, 0, 64, 127
1, 194988, Control_c, 0, 67, 44
1, 195003, Control_c, 0, 67, 0
1, 195076, Note_off_c, 0, 51, 54
1, 195108, Note_on_c, 0, 60, 59
1, 195153, Note_on_c, 0, 77, 79
1, 195186, Note_off_c, 0, 60, 62
1, 195359, Note_on_c, 0, 56, 56
1, 195367, Note_on_c, 0, 63, 59
1, 195409, Note_off_c, 0, 56, 57
1, 195446, Note_off_c, 0, 63, 53
1, 195630, Note_on_c, 0, 60, 53
1, 195636, Note_on_c, 0, 75, 71
1, 195658, Note_on_c, 0, 68, 22
1, 195685, Note_off_c, 0, 77, 56
1, 195704, Note_off_c, 0, 68, 49
1, 195772, Note_off_c, 0, 60, 0
1, 195838, Poly_aftertouch_c, 0, 60, 0
1, 196024, Note_on_c, 0, 73, 76
1, 196068, Note_off_c, 0, 75, 59
1, 196543, Note_on_c, 0, 72, 79
1, 196574, Note_off_c, 0, 73, 62
1, 196619, Control_c, 0, 67, 10
1, 196634, Control_c, 0, 67, 14
1, 196649, Control_c, 0, 67, 20
1, 196664, Control_c, 0, 67, 28
1, 196678, Control_c, 0, 67, 41
1, 196693, Control_c, 0, 67, 54
1, 196708, Control_c, 0, 64, 122
1, 196708, Control_c, 0, 67, 68
1, 196723, Control_c, 0, 64, 114
1, 196723, Control_c, 0, 67, 81
1, 196738, Control_c, 0, 64, 110
1, 196738, Control_c, 0, 67, 94
1, 196752, Control_c, 0, 64, 107
1, 196752, Control_c, 0, 67, 106
1, 196767, Control_c, 0, 64, 103
1, 196767, Control_c, 0, 67, 117
1, 196782, Control_c, 0, 64, 100
1, 196782, Control_c, 0, 67, 127
1, 196797, Control_c, 0, 64, 95
1, 196802, Note_on_c, 0, 38, 72
1, 196812, Control_c, 0, 64, 81
1, 196826, Control_c, 0, 64, 68
1, 196841, Control_c, 0, 64, 57
1, 196856, Control_c, 0, 64, 32
1, 196871, Control_c, 0, 64, 0
1, 196959, Control_c, 0, 64, 29
1, 196962, Note_off_c, 0, 38, 60
1, 196982, Control_c, 0, 64, 44
1, 196997, Control_c, 0, 64, 58
1, 197013, Control_c, 0, 64, 79
1, 197028, Control_c, 0, 64, 127
1, 197209, Note_off_c, 0, 72, 59
1, 197284, Note_on_c, 0, 56, 47
1, 197300, Note_on_c, 0, 50, 39
1, 197302, Note_on_c, 0, 72, 83
1, 197373, Note_off_c, 0, 56, 61
1, 197464, Note_off_c, 0, 50, 39
1, 197688, Note_on_c, 0, 53, 44
1, 197698, Note_on_c, 0, 62, 47
1, 197777, Note_off_c, 0, 53, 64
1, 197788, Note_off_c, 0, 62, 60
1, 198243, Note_on_c, 0, 56, 40
1, 198259, Note_on_c, 0, 65, 37
1, 198261, Note_on_c, 0, 70, 60
1, 198278, Note_on_c, 0, 62, 41
1, 198307, Note_off_c, 0, 65, 54
1, 198312, Note_off_c, 0, 56, 58
1, 198563, Note_off_c, 0, 62, 42
1, 198569, Note_on_c, 0, 69, 63
1, 198610, Note_off_c, 0, 70, 37
1, 198643, Note_off_c, 0, 72, 41
1, 198775, Note_on_c, 0, 70, 72
1, 198793, Note_off_c, 0, 69, 61
1, 198926, Note_off_c, 0, 70, 63
1, 198935, Note_on_c, 0, 69, 69
1, 199101, Note_off_c, 0, 69, 58
1, 199104, Note_on_c, 0, 70, 67
1, 199202, Note_off_c, 0, 70, 62
1, 199218, Note_on_c, 0, 72, 66
1, 199291, Note_off_c, 0, 72, 59
1, 199320, Note_on_c, 0, 70, 67
1, 199346, Note_off_c, 0, 70, 66
1, 199379, Note_on_c, 0, 72, 59
1, 199412, Note_off_c, 0, 72, 66
1, 199445, Note_on_c, 0, 70, 62
1, 199465, Note_off_c, 0, 70, 63
1, 199491, Note_on_c, 0, 72, 68
1, 199514, Note_off_c, 0, 72, 63
1, 199539, Note_on_c, 0, 70, 71
1, 199562, Note_off_c, 0, 70, 66
1, 199585, Note_on_c, 0, 72, 70
1, 199619, Note_off_c, 0, 72, 60
1, 199642, Note_on_c, 0, 70, 78
1, 199670, Note_off_c, 0, 70, 63
1, 199693, Note_on_c, 0, 72, 67
1, 199721, Note_off_c, 0, 72, 64
1, 199753, Note_on_c, 0, 70, 68
1, 199780, Note_off_c, 0, 70, 65
1, 199785, Note_on_c, 0, 72, 76
1, 199839, Note_off_c, 0, 72, 62
1, 199847, Note_on_c, 0, 70, 78
1, 199883, Note_off_c, 0, 70, 61
1, 199894, Note_on_c, 0, 72, 67
1, 199944, Note_off_c, 0, 72, 61
1, 199965, Note_on_c, 0, 70, 74
1, 199994, Note_off_c, 0, 70, 65
1, 200026, Note_on_c, 0, 72, 55
1, 200055, Note_off_c, 0, 72, 59
1, 200066, Control_c, 0, 64, 113
1, 200081, Control_c, 0, 64, 92
1, 200089, Note_on_c, 0, 68, 60
1, 200090, Note_on_c, 0, 70, 69
1, 200096, Control_c, 0, 64, 72
1, 200101, Note_on_c, 0, 53, 48
1, 200101, Note_on_c, 0, 62, 54
1, 200110, Control_c, 0, 64, 60
1, 200117, Note_off_c, 0, 70, 66
1, 200125, Control_c, 0, 64, 41
1, 200140, Note_on_c, 0, 72, 65
1, 200140, Control_c, 0, 64, 0
1, 200182, Note_off_c, 0, 72, 63
1, 200211, Note_on_c, 0, 70, 63
1, 200241, Note_off_c, 0, 70, 65
1, 200260, Control_c, 0, 64, 14
1, 200274, Control_c, 0, 64, 26
1, 200289, Note_on_c, 0, 72, 44
1, 200289, Control_c, 0, 64, 35
1, 200304, Control_c, 0, 64, 43
1, 200316, Note_off_c, 0, 72, 57
1, 200319, Control_c, 0, 64, 52
1, 200333, Control_c, 0, 64, 60
1, 200344, Note_on_c, 0, 70, 61
1, 200348, Control_c, 0, 64, 67
1, 200363, Control_c, 0, 64, 71
1, 200373, Note_off_c, 0, 70, 65
1, 200378, Control_c, 0, 64, 72
1, 200399, Note_on_c, 0, 72, 58
1, 200438, Control_c, 0, 64, 72
1, 200441, Note_off_c, 0, 72, 58
1, 200453, Control_c, 0, 64, 73
1, 200468, Control_c, 0, 64, 73
1, 200482, Control_c, 0, 64, 74
1, 200482, Note_on_c, 0, 70, 54
1, 200497, Control_c, 0, 64, 74
1, 200515, Note_off_c, 0, 70, 65
1, 200526, Control_c, 0, 64, 75
1, 200555, Note_off_c, 0, 53, 43
1, 200556, Control_c, 0, 64, 75
1, 200557, Note_on_c, 0, 72, 50
1, 200571, Control_c, 0, 64, 76
1, 200593, Note_off_c, 0, 72, 52
1, 200593, Note_off_c, 0, 62, 54
1, 200600, Control_c, 0, 64, 76
1, 200615, Control_c, 0, 64, 77
1, 200630, Control_c, 0, 64, 77
1, 200631, Note_on_c, 0, 70, 58
1, 200645, Control_c, 0, 64, 79
1, 200660, Control_c, 0, 64, 80
1, 200667, Note_off_c, 0, 70, 64
1, 200667, Note_off_c, 0, 68, 53
1, 200674, Control_c, 0, 64, 81
1, 200689, Control_c, 0, 64, 83
1, 200700, Note_on_c, 0, 72, 54
1, 200704, Control_c, 0, 64, 84
1, 200719, Control_c, 0, 64, 86
1, 200741, Control_c, 0, 64, 88
1, 200748, Note_off_c, 0, 72, 59
1, 200756, Control_c, 0, 64, 91
1, 200771, Control_c, 0, 64, 94
1, 200786, Control_c, 0, 64, 98
1, 200790, Note_on_c, 0, 70, 49
1, 200801, Control_c, 0, 64, 101
1, 200815, Control_c, 0, 64, 104
1, 200822, Note_off_c, 0, 70, 60
1, 200830, Control_c, 0, 64, 108
1, 200845, Control_c, 0, 64, 111
1, 200858, Control_c, 0, 64, 115
1, 200859, Note_on_c, 0, 72, 56
1, 200873, Control_c, 0, 64, 127
1, 200895, Note_off_c, 0, 72, 57
1, 200938, Note_on_c, 0, 70, 43
1, 200977, Note_off_c, 0, 70, 61
1, 201013, Note_on_c, 0, 72, 49
1, 201064, Note_off_c, 0, 72, 57
1, 201121, Note_on_c, 0, 70, 39
1, 201158, Note_off_c, 0, 70, 52
1, 201198, Note_on_c, 0, 72, 46
1, 201257, Note_off_c, 0, 72, 50
1, 201292, Note_on_c, 0, 70, 44
1, 201342, Note_off_c, 0, 70, 57
1, 201371, Note_on_c, 0, 72, 55
1, 201430, Note_off_c, 0, 72, 60
1, 201450, Note_on_c, 0, 70, 54
1, 201588, Note_off_c, 0, 70, 57
1, 201618, Note_on_c, 0, 69, 55
1, 201734, Note_off_c, 0, 69, 37
1, 201800, Note_on_c, 0, 70, 58
1, 201885, Note_off_c, 0, 70, 51
1, 201934, Note_on_c, 0, 73, 63
1, 202012, Note_off_c, 0, 73, 64
1, 202044, Note_on_c, 0, 74, 54
1, 202099, Note_off_c, 0, 74, 62
1, 202145, Note_on_c, 0, 76, 65
1, 202223, Note_off_c, 0, 76, 58
1, 202238, Control_c, 0, 64, 122
1, 202240, Note_on_c, 0, 77, 65
1, 202253, Control_c, 0, 64, 115
1, 202268, Control_c, 0, 64, 110
1, 202283, Control_c, 0, 64, 107
1, 202297, Control_c, 0, 64, 105
1, 202312, Control_c, 0, 64, 103
1, 202319, Note_off_c, 0, 77, 60
1, 202327, Control_c, 0, 64, 102
1, 202342, Control_c, 0, 64, 101
1, 202343, Note_on_c, 0, 79, 59
1, 202357, Control_c, 0, 64, 100
1, 202371, Control_c, 0, 64, 99
1, 202386, Control_c, 0, 64, 98
1, 202401, Control_c, 0, 64, 97
1, 202416, Control_c, 0, 64, 96
1, 202429, Note_on_c, 0, 80, 65
1, 202429, Note_off_c, 0, 79, 56
1, 202430, Control_c, 0, 64, 96
1, 202445, Control_c, 0, 64, 95
1, 202460, Control_c, 0, 64, 94
1, 202475, Control_c, 0, 64, 93
1, 202484, Note_off_c, 0, 80, 60
1, 202490, Control_c, 0, 64, 93
1, 202504, Control_c, 0, 64, 92
1, 202519, Control_c, 0, 64, 90
1, 202534, Control_c, 0, 64, 89
1, 202538, Note_on_c, 0, 81, 66
1, 202549, Control_c, 0, 64, 87
1, 202564, Control_c, 0, 64, 85
1, 202578, Control_c, 0, 64, 83
1, 202594, Control_c, 0, 64, 81
1, 202609, Control_c, 0, 64, 79
1, 202624, Control_c, 0, 64, 77
1, 202638, Note_off_c, 0, 81, 58
1, 202639, Control_c, 0, 64, 74
1, 202654, Control_c, 0, 64, 72
1, 202669, Control_c, 0, 64, 71
1, 202676, Note_on_c, 0, 82, 64
1, 202683, Control_c, 0, 64, 70
1, 202698, Control_c, 0, 64, 70
1, 202713, Control_c, 0, 64, 69
1, 202742, Note_off_c, 0, 82, 63
1, 202854, Note_on_c, 0, 85, 61
1, 202915, Note_off_c, 0, 85, 44
1, 203138, Note_on_c, 0, 86, 62
1, 203165, Note_off_c, 0, 86, 64
1, 203462, Control_c, 0, 64, 69
1, 203536, Control_c, 0, 64, 68
1, 203565, Control_c, 0, 64, 67
1, 203580, Control_c, 0, 64, 66
1, 203595, Control_c, 0, 64, 62
1, 203607, Note_on_c, 0, 39, 37
1, 203610, Control_c, 0, 64, 56
1, 203624, Control_c, 0, 64, 45
1, 203639, Control_c, 0, 64, 27
1, 203654, Control_c, 0, 64, 0
1, 203795, Control_c, 0, 64, 20
1, 203810, Control_c, 0, 64, 27
1, 203824, Control_c, 0, 64, 34
1, 203839, Control_c, 0, 64, 41
1, 203854, Control_c, 0, 64, 50
1, 203869, Control_c, 0, 64, 58
1, 203881, Note_off_c, 0, 39, 39
1, 203884, Control_c, 0, 64, 65
1, 203899, Control_c, 0, 64, 71
1, 203913, Control_c, 0, 64, 75
1, 203928, Control_c, 0, 64, 79
1, 203943, Control_c, 0, 64, 85
1, 203958, Control_c, 0, 64, 100
1, 203973, Control_c, 0, 64, 127
1, 204471, Note_on_c, 0, 89, 61
1, 204497, Note_on_c, 0, 60, 35
1, 204501, Note_on_c, 0, 68, 37
1, 204724, Note_off_c, 0, 60, 36
1, 204806, Note_off_c, 0, 68, 32
1, 204893, Note_on_c, 0, 72, 39
1, 204894, Note_on_c, 0, 63, 30
1, 204949, Note_off_c, 0, 72, 47
1, 204963, Note_off_c, 0, 63, 40
1, 205220, Note_on_c, 0, 87, 59
1, 205235, Note_on_c, 0, 68, 32
1, 205241, Note_on_c, 0, 75, 26
1, 205321, Note_off_c, 0, 89, 30
1, 205370, Note_off_c, 0, 75, 37
1, 205518, Note_off_c, 0, 68, 36
1, 205546, Note_on_c, 0, 84, 52
1, 205594, Note_off_c, 0, 87, 35
1, 205836, Note_on_c, 0, 80, 52
1, 205850, Note_off_c, 0, 84, 48
1, 206116, Control_c, 0, 64, 89
1, 206125, Note_off_c, 0, 80, 62
1, 206131, Control_c, 0, 64, 73
1, 206145, Control_c, 0, 64, 62
1, 206160, Control_c, 0, 64, 49
1, 206174, Note_on_c, 0, 39, 42
1, 206175, Control_c, 0, 64, 25
1, 206190, Control_c, 0, 64, 0
1, 206219, Control_c, 0, 64, 17
1, 206234, Control_c, 0, 64, 25
1, 206249, Control_c, 0, 64, 34
1, 206263, Control_c, 0, 64, 47
1, 206278, Control_c, 0, 64, 59
1, 206293, Control_c, 0, 64, 73
1, 206308, Note_off_c, 0, 39, 54
1, 206308, Control_c, 0, 64, 127
1, 206600, Note_on_c, 0, 77, 68
1, 206623, Note_on_c, 0, 61, 42
1, 206628, Note_on_c, 0, 51, 39
1, 206806, Note_off_c, 0, 51, 43
1, 206806, Note_off_c, 0, 61, 38
1, 206921, Note_on_c, 0, 63, 44
1, 206927, Note_on_c, 0, 55, 29
1, 206964, Note_off_c, 0, 55, 54
1, 206966, Note_off_c, 0, 63, 64
1, 207204, Note_on_c, 0, 75, 51
1, 207222, Note_on_c, 0, 61, 33
1, 207223, Note_on_c, 0, 67, 29
1, 207288, Note_off_c, 0, 67, 44
1, 207302, Note_off_c, 0, 61, 36
1, 207510, Control_c, 0, 67, 127
1, 207523, Note_on_c, 0, 73, 57
1, 207524, Control_c, 0, 67, 121
1, 207539, Control_c, 0, 67, 113
1, 207541, Note_off_c, 0, 77, 29
1, 207554, Control_c, 0, 67, 105
1, 207569, Control_c, 0, 67, 92
1, 207584, Control_c, 0, 67, 79
1, 207598, Control_c, 0, 67, 63
1, 207613, Control_c, 0, 67, 44
1, 207628, Control_c, 0, 67, 26
1, 207643, Control_c, 0, 67, 10
1, 207657, Control_c, 0, 67, 0
1, 207723, Note_off_c, 0, 75, 20
1, 207838, Note_on_c, 0, 70, 55
1, 207896, Note_off_c, 0, 73, 35
1, 207998, Control_c, 0, 67, 10
1, 208013, Control_c, 0, 67, 14
1, 208028, Control_c, 0, 67, 21
1, 208042, Control_c, 0, 67, 32
1, 208057, Control_c, 0, 67, 48
1, 208072, Control_c, 0, 67, 70
1, 208087, Control_c, 0, 67, 91
1, 208102, Control_c, 0, 67, 112
1, 208117, Control_c, 0, 67, 127
1, 208231, Note_on_c, 0, 44, 44
1, 208273, Control_c, 0, 64, 84
1, 208288, Control_c, 0, 64, 65
1, 208303, Control_c, 0, 64, 55
1, 208310, Note_on_c, 0, 67, 53
1, 208318, Note_off_c, 0, 70, 59
1, 208318, Control_c, 0, 64, 38
1, 208333, Control_c, 0, 64, 11
1, 208348, Control_c, 0, 64, 0
1, 208393, Control_c, 0, 64, 14
1, 208408, Control_c, 0, 64, 23
1, 208422, Control_c, 0, 64, 31
1, 208437, Control_c, 0, 64, 38
1, 208452, Control_c, 0, 64, 46
1, 208466, Control_c, 0, 64, 57
1, 208481, Control_c, 0, 64, 65
1, 208496, Control_c, 0, 64, 77
1, 208511, Control_c, 0, 64, 93
1, 208526, Control_c, 0, 64, 119
1, 208540, Control_c, 0, 64, 127
1, 208547, Note_off_c, 0, 44, 38
1, 208756, Note_off_c, 0, 67, 43
1, 208813, Note_on_c, 0, 51, 45
1, 208817, Note_on_c, 0, 60, 38
1, 208817, Note_on_c, 0, 68, 61
1, 208837, Control_c, 0, 64, 99
1, 208852, Control_c, 0, 64, 71
1, 208866, Control_c, 0, 64, 65
1, 208881, Control_c, 0, 64, 64
1, 208882, Note_off_c, 0, 51, 50
1, 208911, Control_c, 0, 64, 65
1, 208926, Control_c, 0, 64, 67
1, 208940, Control_c, 0, 64, 72
1, 208963, Control_c, 0, 64, 78
1, 208978, Control_c, 0, 64, 89
1, 208993, Control_c, 0, 64, 122
1, 209002, Note_off_c, 0, 68, 58
1, 209008, Control_c, 0, 64, 127
1, 209032, Note_off_c, 0, 60, 38
1, 209140, Note_on_c, 0, 63, 52
1, 209158, Note_on_c, 0, 56, 39
1, 209159, Note_on_c, 0, 72, 68
1, 209196, Note_off_c, 0, 56, 52
1, 209222, Note_off_c, 0, 63, 62
1, 209283, Note_off_c, 0, 72, 37
1, 209440, Note_on_c, 0, 60, 40
1, 209444, Note_on_c, 0, 75, 67
1, 209455, Note_on_c, 0, 68, 37
1, 209509, Note_off_c, 0, 75, 62
1, 209564, Note_off_c, 0, 68, 35
1, 209582, Note_off_c, 0, 60, 28
1, 209754, Note_on_c, 0, 72, 44
1, 209762, Note_on_c, 0, 63, 19
1, 209787, Note_on_c, 0, 79, 58
1, 209801, Note_off_c, 0, 63, 53
1, 209826, Note_off_c, 0, 72, 59
1, 209940, Note_on_c, 0, 80, 63
1, 209947, Note_off_c, 0, 79, 59
1, 209980, Note_off_c, 0, 80, 59
1, 210108, Note_on_c, 0, 68, 36
1, 210128, Note_on_c, 0, 84, 50
1, 210135, Note_on_c, 0, 75, 16
1, 210148, Note_off_c, 0, 68, 48
1, 210183, Note_off_c, 0, 75, 43
1, 210242, Note_off_c, 0, 84, 45
1, 210253, Note_on_c, 0, 87, 64
1, 210364, Note_off_c, 0, 87, 63
1, 210397, Note_on_c, 0, 96, 61
1, 210669, Note_on_c, 0, 72, 39
1, 210675, Note_on_c, 0, 80, 37
1, 210695, Note_off_c, 0, 96, 19
1, 210742, Control_c, 0, 67, 124
1, 210757, Control_c, 0, 67, 119
1, 210760, Note_on_c, 0, 92, 66
1, 210772, Control_c, 0, 67, 112
1, 210787, Control_c, 0, 67, 102
1, 210792, Note_off_c, 0, 72, 35
1, 210802, Control_c, 0, 67, 91
1, 210816, Control_c, 0, 67, 80
1, 210826, Note_off_c, 0, 92, 65
1, 210831, Control_c, 0, 67, 68
1, 210835, Note_off_c, 0, 80, 40
1, 210846, Control_c, 0, 67, 55
1, 210860, Control_c, 0, 67, 44
1, 210875, Control_c, 0, 67, 35
1, 210890, Control_c, 0, 67, 28
1, 210905, Control_c, 0, 67, 26
1, 210964, Control_c, 0, 67, 26
1, 210979, Control_c, 0, 67, 28
1, 210993, Control_c, 0, 67, 29
1, 211008, Control_c, 0, 67, 30
1, 211023, Control_c, 0, 67, 31
1, 211038, Control_c, 0, 67, 31
1, 211053, Control_c, 0, 67, 32
1, 211068, Control_c, 0, 67, 33
1, 211083, Control_c, 0, 67, 34
1, 211112, Control_c, 0, 67, 34
1, 211127, Control_c, 0, 67, 35
1, 211142, Control_c, 0, 67, 35
1, 211157, Control_c, 0, 67, 36
1, 211186, Control_c, 0, 67, 36
1, 211223, Control_c, 0, 67, 37
1, 211253, Control_c, 0, 67, 38
1, 211297, Control_c, 0, 67, 38
1, 211312, Control_c, 0, 67, 39
1, 211446, Control_c, 0, 67, 38
1, 211461, Control_c, 0, 67, 38
1, 211521, Control_c, 0, 67, 37
1, 211580, Control_c, 0, 67, 37
1, 211595, Control_c, 0, 67, 36
1, 211639, Control_c, 0, 67, 36
1, 211698, Control_c, 0, 67, 35
1, 211861, Control_c, 0, 67, 35
1, 211972, Control_c, 0, 67, 34
1, 212016, Control_c, 0, 67, 34
1, 212091, Control_c, 0, 64, 122
1, 212106, Control_c, 0, 64, 108
1, 212121, Control_c, 0, 64, 103
1, 212121, Control_c, 0, 67, 33
1, 212136, Control_c, 0, 64, 98
1, 212151, Control_c, 0, 64, 95
1, 212151, Control_c, 0, 67, 33
1, 212165, Control_c, 0, 64, 92
1, 212181, Control_c, 0, 64, 90
1, 212196, Control_c, 0, 64, 86
1, 212211, Control_c, 0, 64, 84
1, 212211, Control_c, 0, 67, 32
1, 212226, Control_c, 0, 64, 81
1, 212240, Control_c, 0, 64, 79
1, 212255, Control_c, 0, 64, 77
1, 212270, Control_c, 0, 64, 76
1, 212285, Control_c, 0, 64, 74
1, 212285, Control_c, 0, 67, 32
1, 212300, Control_c, 0, 64, 73
1, 212314, Control_c, 0, 64, 72
1, 212314, Control_c, 0, 67, 31
1, 212329, Control_c, 0, 64, 71
1, 212344, Control_c, 0, 64, 70
1, 212359, Control_c, 0, 64, 69
1, 212374, Control_c, 0, 64, 68
1, 212388, Control_c, 0, 64, 66
1, 212403, Control_c, 0, 64, 65
1, 212418, Control_c, 0, 64, 64
1, 212418, Control_c, 0, 67, 31
1, 212433, Control_c, 0, 64, 63
1, 212448, Control_c, 0, 64, 63
1, 212448, Control_c, 0, 67, 30
1, 212463, Control_c, 0, 64, 61
1, 212478, Control_c, 0, 64, 60
1, 212493, Control_c, 0, 64, 58
1, 212507, Control_c, 0, 64, 56
1, 212507, Control_c, 0, 67, 30
1, 212522, Control_c, 0, 64, 54
1, 212537, Control_c, 0, 64, 52
1, 212552, Control_c, 0, 64, 50
1, 212567, Control_c, 0, 64, 49
1, 212581, Control_c, 0, 64, 48
1, 212596, Control_c, 0, 64, 47
1, 212596, Control_c, 0, 67, 29
1, 212611, Control_c, 0, 64, 46
1, 212625, Control_c, 0, 64, 45
1, 212640, Control_c, 0, 64, 44
1, 212655, Control_c, 0, 64, 44
1, 212655, Control_c, 0, 67, 29
1, 212670, Control_c, 0, 64, 42
1, 212685, Control_c, 0, 64, 41
1, 212707, Control_c, 0, 64, 39
1, 212722, Control_c, 0, 64, 38
1, 212737, Control_c, 0, 64, 36
1, 212752, Control_c, 0, 64, 34
1, 212766, Control_c, 0, 64, 32
1, 212781, Control_c, 0, 64, 30
1, 212781, Control_c, 0, 67, 28
1, 212796, Control_c, 0, 64, 28
1, 212811, Control_c, 0, 64, 25
1, 212826, Control_c, 0, 64, 22
1, 212840, Control_c, 0, 64, 20
1, 212840, Control_c, 0, 67, 28
1, 212855, Control_c, 0, 64, 18
1, 212870, Control_c, 0, 64, 14
1, 212885, Control_c, 0, 64, 9
1, 212900, Control_c, 0, 64, 0
1, 213633, Control_c, 0, 64, 8
1, 213648, Control_c, 0, 64, 11
1, 213662, Control_c, 0, 64, 14
1, 213677, Control_c, 0, 64, 16
1, 213692, Control_c, 0, 64, 18
1, 213707, Control_c, 0, 64, 20
1, 213722, Control_c, 0, 64, 23
1, 213736, Control_c, 0, 64, 26
1, 213751, Control_c, 0, 64, 29
1, 213751, Control_c, 0, 67, 27
1, 213766, Control_c, 0, 64, 33
1, 213782, Control_c, 0, 64, 36
1, 213797, Control_c, 0, 64, 39
1, 213811, Control_c, 0, 64, 43
1, 213811, Control_c, 0, 67, 27
1, 213826, Control_c, 0, 64, 47
1, 213841, Control_c, 0, 64, 52
1, 213856, Control_c, 0, 64, 55
1, 213871, Control_c, 0, 64, 58
1, 213885, Control_c, 0, 64, 61
1, 213900, Control_c, 0, 64, 62
1, 213959, Control_c, 0, 64, 62
1, 213959, Control_c, 0, 67, 27
1, 213989, Control_c, 0, 67, 28
1, 214004, Control_c, 0, 64, 63
1, 214004, Control_c, 0, 67, 28
1, 214019, Control_c, 0, 64, 63
1, 214019, Control_c, 0, 67, 29
1, 214034, Control_c, 0, 64, 64
1, 214034, Control_c, 0, 67, 30
1, 214049, Control_c, 0, 64, 65
1, 214063, Control_c, 0, 64, 66
1, 214063, Control_c, 0, 67, 30
1, 214078, Control_c, 0, 64, 67
1, 214093, Control_c, 0, 64, 68
1, 214093, Control_c, 0, 67, 31
1, 214108, Control_c, 0, 67, 31
1, 214167, Control_c, 0, 64, 67
1, 214182, Control_c, 0, 64, 66
1, 214182, Control_c, 0, 67, 30
1, 214204, Control_c, 0, 64, 64
1, 214204, Control_c, 0, 67, 30
1, 214204, Note_on_c, 0, 56, 54
1, 214218, Control_c, 0, 64, 63
1, 214218, Control_c, 0, 67, 29
1, 214233, Control_c, 0, 64, 61
1, 214233, Control_c, 0, 67, 28
1, 214248, Control_c, 0, 64, 59
1, 214263, Control_c, 0, 64, 57
1, 214263, Control_c, 0, 67, 26
1, 214278, Control_c, 0, 64, 55
1, 214278, Control_c, 0, 67, 25
1, 214281, Note_off_c, 0, 56, 56
1, 214293, Control_c, 0, 64, 54
1, 214293, Control_c, 0, 67, 23
1, 214308, Control_c, 0, 67, 20
1, 214323, Control_c, 0, 67, 9
1, 214337, Control_c, 0, 64, 54
1, 214337, Control_c, 0, 67, 0
1, 214353, Note_on_c, 0, 56, 52
1, 214381, Control_c, 0, 64, 54
1, 214396, Control_c, 0, 64, 52
1, 214410, Control_c, 0, 64, 47
1, 214425, Control_c, 0, 64, 38
1, 214440, Control_c, 0, 64, 18
1, 214444, Note_on_c, 0, 60, 62
1, 214444, Note_off_c, 0, 56, 62
1, 214455, Control_c, 0, 64, 0
1, 214535, Note_on_c, 0, 58, 61
1, 214570, Note_off_c, 0, 60, 58
1, 214886, Control_c, 0, 64, 12
1, 214900, Control_c, 0, 64, 15
1, 214900, Control_c, 0, 67, 9
1, 214915, Control_c, 0, 64, 18
1, 214915, Control_c, 0, 67, 10
1, 214930, Control_c, 0, 64, 22
1, 214930, Control_c, 0, 67, 10
1, 214952, Control_c, 0, 64, 26
1, 214952, Control_c, 0, 67, 11
1, 214967, Control_c, 0, 64, 29
1, 214967, Control_c, 0, 67, 11
1, 214982, Control_c, 0, 64, 33
1, 214996, Control_c, 0, 64, 36
1, 215011, Control_c, 0, 64, 40
1, 215026, Control_c, 0, 64, 45
1, 215026, Control_c, 0, 67, 11
1, 215041, Control_c, 0, 64, 51
1, 215041, Control_c, 0, 67, 9
1, 215042, Note_on_c, 0, 56, 74
1, 215056, Control_c, 0, 64, 57
1, 215056, Control_c, 0, 67, 0
1, 215071, Control_c, 0, 64, 61
1, 215077, Note_off_c, 0, 58, 62
1, 215086, Control_c, 0, 64, 62
1, 215175, Note_off_c, 0, 56, 55
1, 215175, Control_c, 0, 64, 62
1, 215190, Control_c, 0, 64, 61
1, 215205, Control_c, 0, 64, 60
1, 215220, Control_c, 0, 64, 60
1, 215234, Control_c, 0, 64, 58
1, 215249, Control_c, 0, 64, 57
1, 215264, Control_c, 0, 64, 56
1, 215279, Control_c, 0, 64, 55
1, 215294, Control_c, 0, 64, 55
1, 215308, Control_c, 0, 64, 54
1, 215323, Control_c, 0, 64, 54
1, 215367, Control_c, 0, 64, 51
1, 215384, Control_c, 0, 64, 41
1, 215398, Control_c, 0, 64, 0
1, 215412, Note_on_c, 0, 65, 80
1, 215432, Note_on_c, 0, 56, 35
1, 215439, Note_on_c, 0, 53, 47
1, 215441, Note_on_c, 0, 37, 41
1, 215442, Note_on_c, 0, 49, 44
1, 215449, Note_on_c, 0, 44, 32
1, 215590, Control_c, 0, 64, 12
1, 215605, Control_c, 0, 64, 26
1, 215620, Control_c, 0, 64, 35
1, 215635, Control_c, 0, 64, 47
1, 215649, Control_c, 0, 64, 58
1, 215664, Control_c, 0, 64, 68
1, 215679, Control_c, 0, 64, 82
1, 215683, Note_off_c, 0, 56, 52
1, 215688, Note_off_c, 0, 53, 64
1, 215694, Control_c, 0, 64, 98
1, 215707, Note_off_c, 0, 37, 41
1, 215717, Control_c, 0, 64, 127
1, 215726, Note_off_c, 0, 49, 43
1, 215740, Note_off_c, 0, 44, 37
1, 216017, Note_on_c, 0, 37, 27
1, 216022, Note_on_c, 0, 49, 33
1, 216027, Note_on_c, 0, 44, 28
1, 216056, Note_on_c, 0, 53, 48
1, 216069, Note_on_c, 0, 56, 42
1, 216096, Note_off_c, 0, 53, 66
1, 216113, Note_off_c, 0, 56, 63
1, 216140, Note_off_c, 0, 37, 32
1, 216149, Note_off_c, 0, 49, 35
1, 216159, Note_off_c, 0, 44, 35
1, 216407, Note_on_c, 0, 37, 35
1, 216423, Note_on_c, 0, 49, 28
1, 216458, Note_on_c, 0, 56, 43
1, 216468, Note_on_c, 0, 53, 28
1, 216471, Note_off_c, 0, 37, 53
1, 216484, Note_off_c, 0, 65, 51
1, 216501, Note_off_c, 0, 56, 59
1, 216506, Note_off_c, 0, 53, 52
1, 216524, Note_off_c, 0, 49, 34
1, 216538, Poly_aftertouch_c, 0, 44, 0
1, 216761, Note_on_c, 0, 64, 72
1, 216780, Note_on_c, 0, 37, 36
1, 216790, Note_on_c, 0, 49, 32
1, 216827, Note_off_c, 0, 37, 52
1, 216839, Note_off_c, 0, 49, 45
1, 216842, Poly_aftertouch_c, 0, 53, 127
1, 216952, Note_off_c, 0, 64, 51
1, 217000, Poly_aftertouch_c, 0, 53, 0
1, 217041, Note_on_c, 0, 65, 85
1, 217059, Note_on_c, 0, 44, 34
1, 217064, Note_on_c, 0, 53, 36
1, 217065, Note_on_c, 0, 49, 36
1, 217069, Note_on_c, 0, 37, 36
1, 217069, Poly_aftertouch_c, 0, 56, 127
1, 217113, Note_off_c, 0, 44, 53
1, 217125, Note_off_c, 0, 49, 41
1, 217125, Note_off_c, 0, 37, 53
1, 217163, Poly_aftertouch_c, 0, 56, 0
1, 217187, Note_off_c, 0, 65, 56
1, 217207, Poly_aftertouch_c, 0, 56, 127
1, 217220, Note_off_c, 0, 53, 38
1, 217286, Note_on_c, 0, 64, 77
1, 217295, Note_on_c, 0, 53, 50
1, 217301, Note_on_c, 0, 37, 42
1, 217308, Note_on_c, 0, 49, 44
1, 217310, Note_on_c, 0, 44, 40
1, 217346, Note_off_c, 0, 37, 55
1, 217346, Note_off_c, 0, 44, 57
1, 217350, Poly_aftertouch_c, 0, 56, 0
1, 217360, Note_off_c, 0, 53, 52
1, 217366, Note_off_c, 0, 49, 42
1, 217492, Note_off_c, 0, 64, 36
1, 217509, Note_on_c, 0, 65, 86
1, 217523, Note_on_c, 0, 49, 52
1, 217529, Note_on_c, 0, 44, 43
1, 217531, Note_on_c, 0, 53, 57
1, 217533, Note_on_c, 0, 37, 44
1, 217570, Note_off_c, 0, 49, 57
1, 217576, Note_off_c, 0, 37, 60
1, 217576, Note_off_c, 0, 53, 61
1, 217579, Note_off_c, 0, 44, 57
1, 217615, Note_off_c, 0, 65, 61
1, 217724, Note_on_c, 0, 64, 82
1, 217735, Note_on_c, 0, 49, 57
1, 217740, Note_on_c, 0, 44, 49
1, 217745, Note_on_c, 0, 37, 44
1, 217762, Note_on_c, 0, 53, 41
1, 217771, Note_off_c, 0, 49, 61
1, 217783, Note_off_c, 0, 44, 59
1, 217788, Note_off_c, 0, 53, 59
1, 217790, Note_off_c, 0, 37, 43
1, 217840, Note_off_c, 0, 64, 52
1, 217929, Note_on_c, 0, 65, 87
1, 217936, Note_on_c, 0, 37, 45
1, 217953, Note_on_c, 0, 44, 50
1, 217953, Note_on_c, 0, 49, 53
1, 217976, Note_off_c, 0, 37, 59
1, 217978, Note_on_c, 0, 53, 35
1, 217990, Note_off_c, 0, 49, 63
1, 217996, Note_off_c, 0, 44, 59
1, 218001, Note_off_c, 0, 65, 62
1, 218007, Note_off_c, 0, 53, 56
1, 218142, Note_on_c, 0, 63, 89
1, 218153, Note_on_c, 0, 37, 53
1, 218155, Note_on_c, 0, 44, 54
1, 218155, Control_c, 0, 64, 90
1, 218159, Note_on_c, 0, 49, 56
1, 218169, Control_c, 0, 64, 68
1, 218176, Note_on_c, 0, 53, 46
1, 218184, Control_c, 0, 64, 65
1, 218196, Note_off_c, 0, 37, 61
1, 218199, Control_c, 0, 64, 66
1, 218204, Note_off_c, 0, 49, 61
1, 218211, Note_off_c, 0, 44, 56
1, 218211, Note_off_c, 0, 53, 48
1, 218214, Control_c, 0, 64, 78
1, 218229, Control_c, 0, 64, 127
1, 218267, Note_off_c, 0, 63, 57
1, 218350, Note_on_c, 0, 61, 84
1, 218368, Note_on_c, 0, 37, 47
1, 218371, Note_on_c, 0, 49, 53
1, 218372, Note_on_c, 0, 44, 46
1, 218390, Note_on_c, 0, 53, 40
1, 218399, Note_off_c, 0, 37, 59
1, 218413, Note_off_c, 0, 44, 59
1, 218413, Note_off_c, 0, 49, 60
1, 218421, Note_off_c, 0, 53, 55
1, 218439, Poly_aftertouch_c, 0, 56, 127
1, 218490, Poly_aftertouch_c, 0, 56, 0
1, 218511, Note_off_c, 0, 61, 61
1, 218552, Note_on_c, 0, 60, 85
1, 218562, Note_on_c, 0, 49, 36
1, 218567, Note_on_c, 0, 44, 44
1, 218572, Note_on_c, 0, 37, 29
1, 218582, Note_on_c, 0, 53, 44
1, 218589, Note_off_c, 0, 49, 56
1, 218603, Note_off_c, 0, 60, 63
1, 218605, Note_off_c, 0, 37, 53
1, 218607, Note_off_c, 0, 44, 61
1, 218615, Note_off_c, 0, 53, 53
1, 218835, Note_on_c, 0, 58, 84
1, 218844, Note_on_c, 0, 37, 49
1, 218845, Note_on_c, 0, 44, 53
1, 218845, Control_c, 0, 64, 67
1, 218860, Control_c, 0, 64, 44
1, 218875, Control_c, 0, 64, 0
1, 218893, Poly_aftertouch_c, 0, 53, 127
1, 218916, Note_on_c, 0, 49, 3
1, 218979, Control_c, 0, 64, 13
1, 218993, Control_c, 0, 64, 28
1, 219008, Control_c, 0, 64, 37
1, 219023, Control_c, 0, 64, 49
1, 219024, Note_off_c, 0, 37, 60
1, 219038, Control_c, 0, 64, 61
1, 219053, Control_c, 0, 64, 76
1, 219058, Note_off_c, 0, 49, 41
1, 219067, Control_c, 0, 64, 127
1, 219076, Note_off_c, 0, 44, 34
1, 219177, Note_on_c, 0, 56, 81
1, 219185, Note_on_c, 0, 37, 39
1, 219186, Note_on_c, 0, 44, 60
1, 219211, Note_off_c, 0, 58, 63
1, 219215, Control_c, 0, 64, 103
1, 219230, Control_c, 0, 64, 102
1, 219235, Note_off_c, 0, 37, 59
1, 219260, Control_c, 0, 64, 104
1, 219261, Note_off_c, 0, 44, 56
1, 219274, Control_c, 0, 64, 117
1, 219289, Control_c, 0, 64, 127
1, 219307, Poly_aftertouch_c, 0, 49, 0
1, 219350, Note_off_c, 0, 56, 59
1, 219395, Poly_aftertouch_c, 0, 53, 0
1, 219399, Note_on_c, 0, 55, 83
1, 219408, Note_on_c, 0, 44, 44
1, 219408, Note_on_c, 0, 37, 39
1, 219425, Note_on_c, 0, 49, 48
1, 219432, Poly_aftertouch_c, 0, 53, 127
1, 219465, Note_off_c, 0, 37, 57
1, 219465, Note_off_c, 0, 49, 53
1, 219477, Note_off_c, 0, 44, 55
1, 219492, Poly_aftertouch_c, 0, 53, 0
1, 219587, Note_off_c, 0, 55, 0
1, 219605, Note_on_c, 0, 56, 85
1, 219613, Note_on_c, 0, 37, 48
1, 219613, Note_on_c, 0, 44, 53
1, 219613, Note_on_c, 0, 55, 15
1, 219620, Note_on_c, 0, 49, 57
1, 219652, Note_off_c, 0, 49, 65
1, 219655, Note_off_c, 0, 55, 43
1, 219656, Note_off_c, 0, 37, 61
1, 219660, Note_off_c, 0, 44, 52
1, 219685, Note_off_c, 0, 56, 57
1, 219787, Control_c, 0, 64, 88
1, 219794, Note_on_c, 0, 44, 59
1, 219796, Note_on_c, 0, 37, 52
1, 219799, Note_on_c, 0, 55, 81
1, 219802, Control_c, 0, 64, 75
1, 219816, Control_c, 0, 64, 76
1, 219817, Note_on_c, 0, 49, 62
1, 219821, Note_on_c, 0, 53, 54
1, 219831, Control_c, 0, 64, 91
1, 219840, Note_off_c, 0, 37, 59
1, 219846, Control_c, 0, 64, 127
1, 219862, Note_off_c, 0, 49, 52
1, 219874, Note_off_c, 0, 44, 53
1, 219973, Note_on_c, 0, 56, 84
1, 219983, Note_on_c, 0, 37, 48
1, 219994, Note_off_c, 0, 55, 64
1, 219995, Note_on_c, 0, 44, 53
1, 219998, Note_on_c, 0, 49, 34
1, 219998, Note_off_c, 0, 53, 62
1, 220023, Note_off_c, 0, 37, 60
1, 220025, Note_off_c, 0, 56, 66
1, 220035, Note_off_c, 0, 44, 58
1, 220036, Note_off_c, 0, 49, 54
1, 220172, Control_c, 0, 64, 109
1, 220174, Note_on_c, 0, 57, 80
1, 220186, Note_on_c, 0, 37, 54
1, 220187, Control_c, 0, 64, 64
1, 220204, Note_on_c, 0, 44, 59
1, 220208, Note_on_c, 0, 49, 66
1, 220210, Control_c, 0, 64, 46
1, 220225, Control_c, 0, 64, 34
1, 220227, Note_on_c, 0, 53, 31
1, 220240, Control_c, 0, 64, 40
1, 220254, Control_c, 0, 64, 53
1, 220255, Note_off_c, 0, 37, 55
1, 220255, Note_off_c, 0, 44, 52
1, 220269, Control_c, 0, 64, 70
1, 220280, Note_off_c, 0, 49, 57
1, 220284, Control_c, 0, 64, 127
1, 220361, Note_off_c, 0, 53, 0
1, 220385, Note_on_c, 0, 53, 9
1, 220387, Note_on_c, 0, 37, 60
1, 220387, Note_on_c, 0, 58, 88
1, 220392, Note_on_c, 0, 49, 65
1, 220405, Note_on_c, 0, 44, 59
1, 220413, Note_off_c, 0, 57, 63
1, 220417, Note_off_c, 0, 49, 67
1, 220420, Note_off_c, 0, 53, 58
1, 220426, Note_off_c, 0, 37, 58
1, 220435, Note_off_c, 0, 58, 65
1, 220442, Note_off_c, 0, 44, 59
1, 220565, Control_c, 0, 64, 76
1, 220568, Note_on_c, 0, 59, 86
1, 220577, Note_on_c, 0, 37, 59
1, 220579, Control_c, 0, 64, 55
1, 220580, Note_on_c, 0, 44, 59
1, 220583, Note_on_c, 0, 49, 58
1, 220594, Control_c, 0, 64, 28
1, 220602, Note_on_c, 0, 53, 53
1, 220609, Control_c, 0, 64, 0
1, 220624, Control_c, 0, 64, 23
1, 220627, Note_off_c, 0, 53, 59
1, 220630, Note_off_c, 0, 49, 53
1, 220638, Note_off_c, 0, 37, 52
1, 220638, Control_c, 0, 64, 40
1, 220653, Control_c, 0, 64, 57
1, 220654, Note_off_c, 0, 44, 52
1, 220668, Control_c, 0, 64, 90
1, 220683, Control_c, 0, 64, 127
1, 220750, Note_on_c, 0, 60, 91
1, 220763, Note_on_c, 0, 53, 66
1, 220767, Note_on_c, 0, 49, 62
1, 220770, Note_on_c, 0, 37, 57
1, 220774, Note_on_c, 0, 44, 58
1, 220779, Note_off_c, 0, 59, 63
1, 220787, Note_on_c, 0, 56, 24
1, 220793, Note_off_c, 0, 53, 67
1, 220803, Note_off_c, 0, 49, 64
1, 220811, Note_off_c, 0, 37, 61
1, 220816, Note_off_c, 0, 44, 57
1, 220828, Note_off_c, 0, 56, 45
1, 220901, Note_off_c, 0, 60, 58
1, 220953, Note_on_c, 0, 61, 91
1, 220958, Note_on_c, 0, 37, 61
1, 220958, Note_on_c, 0, 44, 58
1, 220966, Note_on_c, 0, 53, 70
1, 220972, Note_on_c, 0, 49, 55
1, 220975, Note_on_c, 0, 56, 46
1, 220990, Note_off_c, 0, 53, 72
1, 221000, Note_off_c, 0, 56, 56
1, 221003, Note_off_c, 0, 44, 53
1, 221009, Note_off_c, 0, 49, 63
1, 221015, Note_off_c, 0, 37, 58
1, 221048, Note_off_c, 0, 61, 64
1, 221153, Note_on_c, 0, 44, 61
1, 221156, Note_on_c, 0, 37, 51
1, 221158, Note_on_c, 0, 62, 80
1, 221161, Note_on_c, 0, 64, 84
1, 221161, Note_on_c, 0, 53, 73
1, 221188, Note_on_c, 0, 49, 16
1, 221191, Note_off_c, 0, 53, 68
1, 221203, Note_off_c, 0, 44, 56
1, 221204, Note_off_c, 0, 37, 61
1, 221208, Note_off_c, 0, 64, 63
1, 221217, Note_off_c, 0, 62, 63
1, 221221, Note_off_c, 0, 49, 55
1, 221425, Note_on_c, 0, 63, 92
1, 221435, Note_on_c, 0, 46, 60
1, 221438, Note_on_c, 0, 37, 57
1, 221441, Note_on_c, 0, 42, 57
1, 221443, Note_on_c, 0, 51, 62
1, 221449, Note_on_c, 0, 54, 56
1, 221462, Control_c, 0, 64, 76
1, 221476, Control_c, 0, 64, 52
1, 221491, Control_c, 0, 64, 0
1, 221569, Note_off_c, 0, 54, 49
1, 221581, Note_off_c, 0, 51, 53
1, 221594, Control_c, 0, 64, 28
1, 221609, Control_c, 0, 64, 43
1, 221612, Note_off_c, 0, 46, 60
1, 221624, Control_c, 0, 64, 58
1, 221626, Note_off_c, 0, 42, 59
1, 221629, Note_off_c, 0, 37, 61
1, 221639, Control_c, 0, 64, 75
1, 221654, Control_c, 0, 64, 127
1, 221719, Note_on_c, 0, 54, 60
1, 221724, Note_on_c, 0, 51, 56
1, 221733, Note_on_c, 0, 37, 44
1, 221739, Note_on_c, 0, 46, 51
1, 221750, Note_off_c, 0, 51, 64
1, 221751, Note_off_c, 0, 54, 65
1, 221766, Note_on_c, 0, 42, 30
1, 221783, Note_off_c, 0, 37, 59
1, 221783, Note_off_c, 0, 46, 57
1, 221798, Note_off_c, 0, 42, 52
1, 221888, Note_on_c, 0, 46, 59
1, 221891, Note_on_c, 0, 42, 57
1, 221896, Note_on_c, 0, 37, 57
1, 221899, Note_on_c, 0, 51, 63
1, 221901, Note_on_c, 0, 54, 65
1, 221928, Note_off_c, 0, 51, 64
1, 221933, Note_off_c, 0, 54, 65
1, 221946, Note_off_c, 0, 46, 55
1, 221947, Note_off_c, 0, 37, 57
1, 221955, Note_off_c, 0, 42, 54
1, 222059, Note_on_c, 0, 46, 63
1, 222068, Note_on_c, 0, 37, 54
1, 222078, Note_on_c, 0, 54, 76
1, 222080, Note_on_c, 0, 42, 52
1, 222110, Note_off_c, 0, 54, 63
1, 222118, Note_off_c, 0, 37, 57
1, 222121, Note_off_c, 0, 46, 58
1, 222124, Note_off_c, 0, 42, 57
1, 222133, Note_on_c, 0, 61, 10
1, 222178, Note_off_c, 0, 61, 40
1, 222179, Poly_aftertouch_c, 0, 51, 0
1, 222229, Note_on_c, 0, 46, 67
1, 222231, Note_on_c, 0, 42, 56
1, 222235, Note_on_c, 0, 37, 54
1, 222240, Note_on_c, 0, 58, 89
1, 222264, Note_on_c, 0, 61, 55
1, 222288, Note_off_c, 0, 46, 55
1, 222297, Note_off_c, 0, 37, 51
1, 222306, Note_off_c, 0, 42, 51
1, 222398, Note_on_c, 0, 46, 72
1, 222400, Note_on_c, 0, 37, 58
1, 222405, Note_on_c, 0, 42, 60
1, 222428, Note_on_c, 0, 51, 66
1, 222447, Note_on_c, 0, 54, 64
1, 222453, Note_off_c, 0, 46, 63
1, 222454, Note_off_c, 0, 42, 57
1, 222458, Note_off_c, 0, 37, 54
1, 222464, Note_off_c, 0, 51, 67
1, 222470, Note_off_c, 0, 54, 72
1, 222481, Note_off_c, 0, 63, 63
1, 222482, Note_off_c, 0, 58, 62
1, 222494, Note_off_c, 0, 61, 49
1, 222559, Note_on_c, 0, 51, 35
1, 222589, Note_off_c, 0, 51, 53
1, 222713, Note_on_c, 0, 51, 58
1, 222714, Note_on_c, 0, 66, 100
1, 222717, Note_on_c, 0, 37, 60
1, 222719, Note_on_c, 0, 46, 65
1, 222723, Note_on_c, 0, 42, 59
1, 222723, Control_c, 0, 64, 63
1, 222738, Control_c, 0, 64, 29
1, 222740, Note_on_c, 0, 54, 60
1, 222753, Control_c, 0, 64, 0
1, 222774, Note_off_c, 0, 54, 51
1, 222827, Control_c, 0, 64, 14
1, 222842, Control_c, 0, 64, 34
1, 222857, Control_c, 0, 64, 51
1, 222872, Control_c, 0, 64, 70
1, 222887, Note_off_c, 0, 51, 55
1, 222887, Control_c, 0, 64, 127
1, 222905, Note_off_c, 0, 46, 62
1, 222910, Note_off_c, 0, 37, 45
1, 222910, Note_off_c, 0, 42, 57
1, 222976, Note_on_c, 0, 58, 54
1, 222980, Note_on_c, 0, 54, 55
1, 222988, Note_on_c, 0, 37, 57
1, 223005, Note_off_c, 0, 54, 61
1, 223006, Note_on_c, 0, 46, 47
1, 223009, Note_on_c, 0, 51, 45
1, 223012, Note_off_c, 0, 58, 64
1, 223020, Note_off_c, 0, 37, 65
1, 223022, Note_on_c, 0, 42, 30
1, 223035, Note_off_c, 0, 46, 56
1, 223042, Note_off_c, 0, 51, 48
1, 223062, Note_off_c, 0, 42, 47
1, 223145, Note_on_c, 0, 51, 54
1, 223146, Note_on_c, 0, 46, 50
1, 223149, Note_on_c, 0, 54, 52
1, 223151, Note_on_c, 0, 42, 57
1, 223155, Note_on_c, 0, 58, 58
1, 223161, Note_on_c, 0, 37, 40
1, 223191, Note_off_c, 0, 51, 62
1, 223195, Note_off_c, 0, 37, 57
1, 223203, Note_off_c, 0, 46, 58
1, 223212, Note_off_c, 0, 42, 54
1, 223269, Note_off_c, 0, 66, 60
1, 223274, Note_off_c, 0, 54, 36
1, 223321, Note_on_c, 0, 65, 89
1, 223333, Note_on_c, 0, 37, 48
1, 223333, Note_on_c, 0, 51, 65
1, 223335, Note_on_c, 0, 46, 57
1, 223340, Note_on_c, 0, 42, 54
1, 223364, Note_on_c, 0, 63, 5
1, 223370, Note_off_c, 0, 51, 62
1, 223371, Note_off_c, 0, 58, 51
1, 223374, Note_off_c, 0, 37, 61
1, 223374, Note_off_c, 0, 42, 61
1, 223375, Note_off_c, 0, 46, 60
1, 223421, Note_off_c, 0, 63, 48
1, 223502, Note_on_c, 0, 63, 86
1, 223514, Note_on_c, 0, 51, 63
1, 223516, Note_on_c, 0, 42, 55
1, 223519, Note_on_c, 0, 46, 61
1, 223522, Note_off_c, 0, 65, 47
1, 223546, Note_on_c, 0, 37, 18
1, 223560, Note_off_c, 0, 46, 58
1, 223562, Note_off_c, 0, 51, 58
1, 223566, Note_on_c, 0, 54, 21
1, 223576, Note_off_c, 0, 42, 56
1, 223590, Note_off_c, 0, 37, 38
1, 223599, Note_off_c, 0, 54, 55
1, 223686, Note_on_c, 0, 61, 95
1, 223699, Note_on_c, 0, 37, 48
1, 223701, Note_on_c, 0, 42, 50
1, 223704, Note_on_c, 0, 46, 44
1, 223707, Note_on_c, 0, 54, 58
1, 223715, Note_off_c, 0, 63, 54
1, 223731, Note_off_c, 0, 46, 57
1, 223736, Note_off_c, 0, 54, 66
1, 223746, Note_off_c, 0, 42, 58
1, 223751, Note_off_c, 0, 37, 58
1, 223751, Poly_aftertouch_c, 0, 51, 127
1, 223763, Note_off_c, 0, 61, 66
1, 223784, Poly_aftertouch_c, 0, 51, 0
1, 223984, Note_on_c, 0, 61, 92
1, 223993, Note_on_c, 0, 44, 58
1, 223996, Note_on_c, 0, 37, 53
1, 224000, Note_on_c, 0, 48, 53
1, 224000, Note_on_c, 0, 51, 65
1, 224013, Control_c, 0, 64, 68
1, 224028, Control_c, 0, 64, 46
1, 224041, Note_off_c, 0, 51, 52
1, 224043, Control_c, 0, 64, 0
1, 224145, Control_c, 0, 64, 28
1, 224160, Control_c, 0, 64, 43
1, 224175, Note_off_c, 0, 37, 62
1, 224176, Control_c, 0, 64, 58
1, 224178, Poly_aftertouch_c, 0, 51, 0
1, 224180, Note_off_c, 0, 48, 59
1, 224191, Control_c, 0, 64, 73
1, 224199, Note_off_c, 0, 44, 58
1, 224206, Control_c, 0, 64, 127
1, 224301, Note_on_c, 0, 51, 54
1, 224310, Note_on_c, 0, 54, 48
1, 224317, Note_on_c, 0, 44, 57
1, 224317, Note_on_c, 0, 48, 48
1, 224321, Note_on_c, 0, 37, 45
1, 224341, Note_off_c, 0, 51, 62
1, 224348, Note_off_c, 0, 54, 64
1, 224358, Note_off_c, 0, 37, 59
1, 224359, Note_off_c, 0, 48, 48
1, 224371, Note_off_c, 0, 44, 57
1, 224476, Note_on_c, 0, 37, 48
1, 224476, Note_on_c, 0, 48, 50
1, 224477, Note_on_c, 0, 44, 55
1, 224488, Note_on_c, 0, 51, 58
1, 224491, Note_on_c, 0, 54, 53
1, 224520, Note_off_c, 0, 37, 60
1, 224526, Note_off_c, 0, 44, 54
1, 224529, Note_off_c, 0, 48, 48
1, 224554, Note_off_c, 0, 51, 49
1, 224558, Note_off_c, 0, 61, 61
1, 224633, Note_on_c, 0, 60, 79
1, 224644, Note_off_c, 0, 54, 0
1, 224646, Note_on_c, 0, 44, 60
1, 224651, Note_on_c, 0, 48, 54
1, 224652, Note_on_c, 0, 37, 47
1, 224688, Poly_aftertouch_c, 0, 54, 127
1, 224693, Note_off_c, 0, 44, 56
1, 224696, Note_off_c, 0, 48, 65
1, 224699, Note_off_c, 0, 37, 62
1, 224807, Note_on_c, 0, 58, 86
1, 224813, Note_on_c, 0, 54, 16
1, 224815, Note_on_c, 0, 44, 66
1, 224822, Note_on_c, 0, 37, 50
1, 224827, Note_on_c, 0, 48, 54
1, 224839, Note_off_c, 0, 60, 60
1, 224859, Note_off_c, 0, 44, 53
1, 224861, Note_off_c, 0, 37, 62
1, 224866, Note_off_c, 0, 48, 60
1, 224947, Note_off_c, 0, 54, 35
1, 224965, Note_on_c, 0, 56, 88
1, 224971, Note_on_c, 0, 44, 70
1, 224974, Note_on_c, 0, 48, 60
1, 224978, Note_on_c, 0, 37, 53
1, 225009, Note_off_c, 0, 48, 64
1, 225010, Note_off_c, 0, 58, 56
1, 225020, Note_off_c, 0, 37, 61
1, 225038, Note_off_c, 0, 44, 53
1, 225043, Note_off_c, 0, 56, 65
1, 225127, Note_on_c, 0, 55, 91
1, 225143, Note_on_c, 0, 44, 69
1, 225147, Control_c, 0, 64, 78
1, 225155, Note_on_c, 0, 48, 59
1, 225155, Note_on_c, 0, 37, 48
1, 225161, Control_c, 0, 64, 57
1, 225176, Control_c, 0, 64, 44
1, 225191, Control_c, 0, 64, 43
1, 225193, Note_off_c, 0, 48, 59
1, 225197, Note_off_c, 0, 37, 55
1, 225206, Note_off_c, 0, 44, 57
1, 225206, Control_c, 0, 64, 49
1, 225221, Control_c, 0, 64, 58
1, 225236, Control_c, 0, 64, 72
1, 225251, Control_c, 0, 64, 127
1, 225306, Note_on_c, 0, 56, 92
1, 225308, Note_on_c, 0, 37, 59
1, 225309, Note_on_c, 0, 44, 64
1, 225321, Note_on_c, 0, 48, 55
1, 225352, Note_off_c, 0, 48, 53
1, 225355, Note_off_c, 0, 55, 58
1, 225367, Note_off_c, 0, 37, 59
1, 225382, Note_off_c, 0, 44, 57
1, 225419, Note_off_c, 0, 56, 59
1, 225478, Note_on_c, 0, 57, 88
1, 225499, Note_on_c, 0, 45, 73
1, 225506, Note_on_c, 0, 37, 61
1, 225510, Control_c, 0, 64, 73
1, 225516, Note_on_c, 0, 48, 55
1, 225525, Control_c, 0, 64, 52
1, 225540, Control_c, 0, 64, 33
1, 225555, Control_c, 0, 64, 32
1, 225570, Control_c, 0, 64, 40
1, 225585, Control_c, 0, 64, 55
1, 225591, Note_off_c, 0, 48, 38
1, 225596, Note_off_c, 0, 37, 55
1, 225600, Control_c, 0, 64, 71
1, 225614, Control_c, 0, 64, 127
1, 225655, Note_off_c, 0, 57, 52
1, 225660, Note_on_c, 0, 56, 81
1, 225663, Note_on_c, 0, 37, 42
1, 225675, Note_on_c, 0, 44, 70
1, 225675, Note_on_c, 0, 51, 58
1, 225697, Note_off_c, 0, 45, 54
1, 225698, Note_on_c, 0, 54, 32
1, 225701, Note_off_c, 0, 37, 62
1, 225705, Note_off_c, 0, 51, 64
1, 225708, Note_off_c, 0, 44, 61
1, 225728, Note_off_c, 0, 56, 64
1, 225736, Note_off_c, 0, 54, 50
1, 225783, Note_on_c, 0, 60, 88
1, 225858, Note_on_c, 0, 58, 92
1, 225866, Note_on_c, 0, 46, 80
1, 225867, Control_c, 0, 64, 70
1, 225868, Note_on_c, 0, 48, 77
1, 225878, Note_on_c, 0, 37, 62
1, 225882, Control_c, 0, 64, 42
1, 225884, Note_off_c, 0, 60, 64
1, 225897, Control_c, 0, 64, 0
1, 225941, Poly_aftertouch_c, 0, 54, 127
1, 225947, Note_off_c, 0, 37, 47
1, 225971, Control_c, 0, 64, 26
1, 225972, Note_off_c, 0, 48, 34
1, 225985, Control_c, 0, 64, 39
1, 226000, Control_c, 0, 64, 52
1, 226015, Control_c, 0, 64, 64
1, 226030, Control_c, 0, 64, 85
1, 226034, Poly_aftertouch_c, 0, 54, 0
1, 226045, Control_c, 0, 64, 127
1, 226071, Poly_aftertouch_c, 0, 54, 127
1, 226107, Note_on_c, 0, 37, 42
1, 226136, Note_on_c, 0, 44, 67
1, 226142, Note_off_c, 0, 37, 63
1, 226146, Note_off_c, 0, 46, 59
1, 226166, Note_off_c, 0, 44, 64
1, 226183, Poly_aftertouch_c, 0, 48, 127
1, 226189, Poly_aftertouch_c, 0, 54, 0
1, 226226, Poly_aftertouch_c, 0, 48, 0
1, 226234, Note_on_c, 0, 56, 93
1, 226260, Note_on_c, 0, 51, 56
1, 226267, Note_off_c, 0, 58, 62
1, 226284, Note_off_c, 0, 51, 57
1, 226554, Note_on_c, 0, 37, 78
1, 226556, Control_c, 0, 64, 70
1, 226571, Control_c, 0, 64, 49
1, 226586, Control_c, 0, 64, 0
1, 226593, Note_off_c, 0, 56, 60
1, 226690, Control_c, 0, 64, 27
1, 226705, Control_c, 0, 64, 43
1, 226720, Control_c, 0, 64, 63
1, 226728, Note_on_c, 0, 44, 74
1, 226734, Control_c, 0, 64, 127
1, 226814, Note_off_c, 0, 37, 57
1, 226831, Note_on_c, 0, 49, 77
1, 226884, Note_off_c, 0, 44, 59
1, 226892, Note_off_c, 0, 49, 62
1, 226947, Note_on_c, 0, 53, 73
1, 227028, Note_off_c, 0, 53, 61
1, 227030, Note_on_c, 0, 56, 79
1, 227080, Note_off_c, 0, 56, 65
1, 227230, Note_on_c, 0, 68, 91
1, 227302, Note_off_c, 0, 68, 56
1, 227926, Note_on_c, 0, 37, 44
1, 227928, Note_on_c, 0, 53, 26
1, 227934, Note_on_c, 0, 44, 39
1, 227934, Note_on_c, 0, 49, 38
1, 227950, Note_on_c, 0, 56, 25
1, 227972, Note_off_c, 0, 53, 51
1, 227998, Note_off_c, 0, 37, 48
1, 228002, Note_off_c, 0, 56, 45
1, 228010, Note_off_c, 0, 44, 39
1, 228014, Note_off_c, 0, 49, 35
1, 228196, Note_on_c, 0, 56, 63
1, 228214, Note_on_c, 0, 44, 49
1, 228216, Note_on_c, 0, 49, 46
1, 228232, Note_on_c, 0, 37, 26
1, 228247, Note_off_c, 0, 56, 56
1, 228251, Note_off_c, 0, 49, 57
1, 228271, Note_off_c, 0, 44, 54
1, 228273, Note_off_c, 0, 37, 49
1, 228289, Poly_aftertouch_c, 0, 53, 0
1, 228393, Note_on_c, 0, 53, 63
1, 228395, Note_on_c, 0, 56, 67
1, 228398, Note_on_c, 0, 37, 51
1, 228401, Note_on_c, 0, 44, 60
1, 228411, Note_on_c, 0, 49, 51
1, 228420, Note_off_c, 0, 53, 67
1, 228435, Note_off_c, 0, 56, 63
1, 228444, Note_off_c, 0, 37, 60
1, 228447, Note_off_c, 0, 49, 64
1, 228452, Note_off_c, 0, 44, 56
1, 228569, Note_on_c, 0, 49, 57
1, 228571, Note_on_c, 0, 44, 58
1, 228571, Note_on_c, 0, 53, 62
1, 228572, Note_on_c, 0, 37, 46
1, 228574, Note_on_c, 0, 56, 64
1, 228598, Note_off_c, 0, 49, 68
1, 228601, Note_off_c, 0, 53, 67
1, 228603, Note_off_c, 0, 37, 57
1, 228607, Note_off_c, 0, 44, 61
1, 228609, Note_off_c, 0, 56, 63
1, 228727, Note_on_c, 0, 37, 51
1, 228732, Note_on_c, 0, 56, 50
1, 228734, Note_on_c, 0, 53, 48
1, 228741, Note_on_c, 0, 49, 52
1, 228771, Note_off_c, 0, 37, 59
1, 228773, Note_off_c, 0, 49, 64
1, 228905, Note_off_c, 0, 56, 52
1, 228920, Note_on_c, 0, 65, 87
1, 228926, Note_off_c, 0, 53, 35
1, 228943, Note_on_c, 0, 44, 52
1, 228944, Note_on_c, 0, 37, 52
1, 228945, Note_on_c, 0, 49, 51
1, 228980, Note_off_c, 0, 49, 64
1, 228984, Note_off_c, 0, 37, 63
1, 228992, Note_off_c, 0, 44, 50
1, 229139, Note_on_c, 0, 56, 56
1, 229142, Note_on_c, 0, 44, 36
1, 229144, Note_on_c, 0, 53, 48
1, 229155, Note_on_c, 0, 37, 24
1, 229159, Note_on_c, 0, 49, 23
1, 229177, Note_off_c, 0, 56, 66
1, 229186, Note_off_c, 0, 53, 51
1, 229189, Note_off_c, 0, 37, 49
1, 229201, Note_off_c, 0, 44, 44
1, 229209, Note_off_c, 0, 49, 53
1, 229306, Note_on_c, 0, 37, 37
1, 229311, Note_on_c, 0, 49, 55
1, 229315, Note_on_c, 0, 44, 45
1, 229325, Note_on_c, 0, 53, 43
1, 229329, Note_on_c, 0, 56, 44
1, 229346, Note_off_c, 0, 49, 64
1, 229347, Note_off_c, 0, 37, 61
1, 229351, Note_off_c, 0, 53, 57
1, 229353, Note_off_c, 0, 56, 61
1, 229361, Note_off_c, 0, 44, 57
1, 229461, Note_off_c, 0, 65, 60
1, 229487, Note_on_c, 0, 37, 44
1, 229487, Note_on_c, 0, 56, 46
1, 229490, Note_on_c, 0, 53, 44
1, 229496, Note_on_c, 0, 44, 42
1, 229498, Note_on_c, 0, 49, 47
1, 229514, Note_off_c, 0, 53, 59
1, 229516, Note_off_c, 0, 56, 61
1, 229525, Note_off_c, 0, 49, 57
1, 229528, Note_off_c, 0, 37, 61
1, 229533, Note_off_c, 0, 44, 61
1, 229704, Note_on_c, 0, 65, 80
1, 229720, Note_on_c, 0, 53, 56
1, 229722, Note_on_c, 0, 37, 36
1, 229722, Note_on_c, 0, 49, 50
1, 229730, Note_on_c, 0, 44, 40
1, 229748, Note_on_c, 0, 56, 18
1, 229748, Note_off_c, 0, 53, 59
1, 229757, Note_off_c, 0, 49, 55
1, 229763, Note_off_c, 0, 44, 57
1, 229770, Note_off_c, 0, 37, 43
1, 229789, Note_off_c, 0, 56, 42
1, 229910, Note_on_c, 0, 37, 40
1, 229914, Note_on_c, 0, 44, 44
1, 229939, Note_on_c, 0, 56, 46
1, 229947, Note_off_c, 0, 37, 61
1, 229952, Note_off_c, 0, 44, 60
1, 229965, Note_off_c, 0, 56, 55
1, 229976, Poly_aftertouch_c, 0, 49, 127
1, 229987, Note_off_c, 0, 65, 57
1, 229990, Poly_aftertouch_c, 0, 53, 127
1, 230004, Poly_aftertouch_c, 0, 49, 0
1, 230026, Poly_aftertouch_c, 0, 53, 0
1, 230272, Note_on_c, 0, 65, 83
1, 230283, Note_on_c, 0, 48, 50
1, 230284, Control_c, 0, 64, 68
1, 230294, Note_on_c, 0, 33, 45
1, 230299, Control_c, 0, 64, 45
1, 230303, Note_on_c, 0, 41, 43
1, 230306, Note_on_c, 0, 60, 46
1, 230311, Note_on_c, 0, 53, 42
1, 230314, Control_c, 0, 64, 0
1, 230408, Note_off_c, 0, 60, 30
1, 230432, Control_c, 0, 64, 10
1, 230444, Note_off_c, 0, 48, 56
1, 230447, Control_c, 0, 64, 26
1, 230462, Control_c, 0, 64, 37
1, 230473, Note_off_c, 0, 53, 37
1, 230476, Note_off_c, 0, 41, 43
1, 230476, Control_c, 0, 64, 49
1, 230485, Note_off_c, 0, 33, 40
1, 230491, Control_c, 0, 64, 61
1, 230506, Control_c, 0, 64, 80
1, 230521, Control_c, 0, 64, 127
1, 230575, Note_on_c, 0, 53, 55
1, 230576, Note_on_c, 0, 60, 53
1, 230584, Note_on_c, 0, 41, 41
1, 230584, Note_on_c, 0, 48, 44
1, 230589, Note_on_c, 0, 33, 38
1, 230605, Note_off_c, 0, 53, 55
1, 230606, Note_off_c, 0, 60, 57
1, 230614, Note_off_c, 0, 48, 54
1, 230625, Note_off_c, 0, 33, 50
1, 230633, Note_off_c, 0, 41, 48
1, 230744, Note_on_c, 0, 33, 48
1, 230745, Note_on_c, 0, 48, 46
1, 230757, Note_on_c, 0, 41, 38
1, 230771, Note_on_c, 0, 60, 47
1, 230777, Note_on_c, 0, 53, 35
1, 230779, Note_off_c, 0, 48, 51
1, 230799, Note_off_c, 0, 33, 44
1, 230800, Note_off_c, 0, 41, 48
1, 230810, Note_off_c, 0, 53, 54
1, 230840, Note_off_c, 0, 65, 53
1, 230923, Note_on_c, 0, 48, 53
1, 230927, Note_on_c, 0, 33, 49
1, 230928, Note_on_c, 0, 64, 74
1, 230929, Note_on_c, 0, 41, 45
1, 230935, Note_off_c, 0, 60, 0
1, 230935, Note_on_c, 0, 60, 11
1, 230962, Note_off_c, 0, 48, 51
1, 230976, Note_off_c, 0, 33, 56
1, 230980, Note_off_c, 0, 41, 53
1, 230983, Note_off_c, 0, 60, 51
1, 230995, Poly_aftertouch_c, 0, 53, 127
1, 231040, Poly_aftertouch_c, 0, 53, 0
1, 231111, Note_on_c, 0, 65, 86
1, 231115, Note_on_c, 0, 33, 58
1, 231121, Note_on_c, 0, 41, 51
1, 231122, Note_on_c, 0, 48, 56
1, 231127, Note_off_c, 0, 64, 57
1, 231139, Note_on_c, 0, 60, 33
1, 231146, Note_on_c, 0, 53, 44
1, 231165, Note_off_c, 0, 48, 60
1, 231169, Note_off_c, 0, 41, 57
1, 231173, Note_off_c, 0, 53, 57
1, 231174, Note_off_c, 0, 33, 55
1, 231189, Note_off_c, 0, 60, 45
1, 231239, Note_off_c, 0, 65, 61
1, 231274, Note_on_c, 0, 64, 80
1, 231281, Note_on_c, 0, 48, 67
1, 231281, Note_on_c, 0, 60, 47
1, 231286, Note_on_c, 0, 33, 58
1, 231292, Note_on_c, 0, 53, 61
1, 231295, Note_on_c, 0, 41, 49
1, 231321, Note_off_c, 0, 48, 53
1, 231323, Note_off_c, 0, 53, 66
1, 231323, Note_off_c, 0, 60, 62
1, 231327, Note_off_c, 0, 33, 61
1, 231339, Note_off_c, 0, 41, 46
1, 231414, Note_off_c, 0, 64, 58
1, 231442, Note_on_c, 0, 48, 73
1, 231445, Note_on_c, 0, 65, 90
1, 231449, Note_on_c, 0, 33, 58
1, 231453, Note_on_c, 0, 41, 49
1, 231455, Note_on_c, 0, 53, 75
1, 231465, Note_on_c, 0, 60, 56
1, 231492, Note_off_c, 0, 41, 59
1, 231497, Note_off_c, 0, 33, 59
1, 231502, Note_off_c, 0, 48, 55
1, 231516, Note_off_c, 0, 53, 63
1, 231560, Note_off_c, 0, 65, 60
1, 231618, Note_on_c, 0, 64, 81
1, 231618, Note_on_c, 0, 33, 57
1, 231621, Note_on_c, 0, 48, 69
1, 231624, Note_on_c, 0, 41, 54
1, 231624, Note_off_c, 0, 60, 0
1, 231624, Note_on_c, 0, 60, 16
1, 231635, Note_on_c, 0, 53, 70
1, 231648, Note_off_c, 0, 48, 61
1, 231663, Note_off_c, 0, 33, 55
1, 231703, Note_off_c, 0, 53, 60
1, 231714, Note_off_c, 0, 41, 40
1, 231769, Note_off_c, 0, 64, 52
1, 231785, Note_off_c, 0, 60, 0
1, 231791, Note_on_c, 0, 48, 68
1, 231793, Note_on_c, 0, 65, 90
1, 231796, Note_on_c, 0, 41, 42
1, 231797, Note_on_c, 0, 33, 53
1, 231800, Note_on_c, 0, 60, 41
1, 231803, Note_on_c, 0, 53, 78
1, 231827, Note_off_c, 0, 48, 59
1, 231828, Note_off_c, 0, 53, 69
1, 231831, Note_off_c, 0, 41, 52
1, 231831, Note_off_c, 0, 60, 66
1, 231835, Note_off_c, 0, 33, 58
1, 231853, Note_off_c, 0, 65, 66
1, 232023, Note_on_c, 0, 48, 72
1, 232025, Note_on_c, 0, 66, 100
1, 232033, Note_on_c, 0, 33, 59
1, 232033, Control_c, 0, 64, 84
1, 232034, Note_on_c, 0, 53, 81
1, 232046, Note_on_c, 0, 41, 47
1, 232048, Control_c, 0, 64, 56
1, 232062, Control_c, 0, 64, 37
1, 232092, Control_c, 0, 64, 47
1, 232107, Control_c, 0, 64, 59
1, 232122, Control_c, 0, 64, 83
1, 232137, Control_c, 0, 64, 127
1, 232142, Note_off_c, 0, 33, 47
1, 232154, Poly_aftertouch_c, 0, 35, 0
1, 232178, Note_off_c, 0, 48, 33
1, 232192, Note_off_c, 0, 53, 60
1, 232203, Note_off_c, 0, 66, 61
1, 232248, Note_off_c, 0, 41, 0
1, 232257, Note_on_c, 0, 48, 69
1, 232259, Note_on_c, 0, 33, 61
1, 232263, Note_on_c, 0, 65, 89
1, 232271, Note_on_c, 0, 41, 20
1, 232275, Note_on_c, 0, 53, 78
1, 232309, Note_off_c, 0, 33, 61
1, 232345, Note_off_c, 0, 48, 61
1, 232357, Note_off_c, 0, 41, 36
1, 232366, Note_off_c, 0, 53, 60
1, 232369, Poly_aftertouch_c, 0, 60, 127
1, 232435, Poly_aftertouch_c, 0, 60, 0
1, 232441, Note_on_c, 0, 63, 90
1, 232443, Note_on_c, 0, 33, 33
1, 232451, Note_on_c, 0, 60, 40
1, 232462, Note_on_c, 0, 41, 31
1, 232467, Note_off_c, 0, 33, 60
1, 232474, Note_on_c, 0, 53, 45
1, 232476, Note_off_c, 0, 65, 61
1, 232479, Note_off_c, 0, 60, 55
1, 232498, Note_off_c, 0, 53, 63
1, 232508, Note_off_c, 0, 41, 49
1, 232512, Note_off_c, 0, 63, 63
1, 232709, Control_c, 0, 64, 77
1, 232720, Note_on_c, 0, 63, 96
1, 232724, Control_c, 0, 64, 47
1, 232728, Note_on_c, 0, 34, 74
1, 232729, Note_on_c, 0, 41, 69
1, 232729, Note_on_c, 0, 53, 71
1, 232730, Note_on_c, 0, 46, 79
1, 232736, Note_on_c, 0, 58, 58
1, 232739, Control_c, 0, 64, 0
1, 232751, Note_on_c, 0, 61, 35
1, 232752, Note_off_c, 0, 61, 127
1, 232758, Note_off_c, 0, 53, 52
1, 232794, Note_off_c, 0, 58, 0
1, 232794, Note_on_c, 0, 58, 26
1, 232842, Control_c, 0, 64, 23
1, 232851, Note_off_c, 0, 46, 62
1, 232857, Control_c, 0, 64, 33
1, 232858, Note_off_c, 0, 58, 56
1, 232871, Control_c, 0, 64, 41
1, 232875, Note_off_c, 0, 34, 61
1, 232886, Control_c, 0, 64, 52
1, 232887, Note_off_c, 0, 41, 54
1, 232901, Control_c, 0, 64, 63
1, 232924, Control_c, 0, 64, 85
1, 232939, Control_c, 0, 64, 127
1, 232959, Note_on_c, 0, 41, 57
1, 232961, Note_on_c, 0, 34, 58
1, 232962, Note_on_c, 0, 46, 77
1, 232979, Note_on_c, 0, 58, 66
1, 232980, Note_on_c, 0, 53, 72
1, 232991, Note_off_c, 0, 46, 66
1, 232999, Note_off_c, 0, 34, 59
1, 233025, Note_off_c, 0, 53, 62
1, 233048, Note_off_c, 0, 58, 60
1, 233054, Note_off_c, 0, 41, 36
1, 233111, Note_on_c, 0, 34, 66
1, 233112, Note_on_c, 0, 41, 56
1, 233116, Note_on_c, 0, 46, 74
1, 233131, Note_on_c, 0, 53, 71
1, 233132, Note_on_c, 0, 58, 66
1, 233141, Note_off_c, 0, 46, 68
1, 233163, Note_off_c, 0, 34, 62
1, 233192, Note_off_c, 0, 53, 57
1, 233207, Note_off_c, 0, 41, 37
1, 233215, Note_off_c, 0, 58, 59
1, 233263, Note_on_c, 0, 41, 63
1, 233266, Note_on_c, 0, 34, 67
1, 233269, Note_on_c, 0, 60, 83
1, 233269, Note_on_c, 0, 46, 76
1, 233281, Note_on_c, 0, 58, 52
1, 233290, Note_off_c, 0, 63, 38
1, 233291, Note_on_c, 0, 53, 55
1, 233297, Note_off_c, 0, 46, 65
1, 233305, Note_off_c, 0, 34, 61
1, 233311, Note_off_c, 0, 53, 66
1, 233319, Note_off_c, 0, 58, 61
1, 233344, Note_off_c, 0, 41, 54
1, 233365, Note_off_c, 0, 60, 61
1, 233419, Note_on_c, 0, 34, 65
1, 233421, Note_on_c, 0, 63, 86
1, 233427, Note_on_c, 0, 46, 86
1, 233430, Note_on_c, 0, 41, 63
1, 233432, Note_on_c, 0, 53, 71
1, 233464, Note_off_c, 0, 46, 57
1, 233474, Note_off_c, 0, 34, 59
1, 233490, Note_off_c, 0, 53, 62
1, 233496, Note_off_c, 0, 41, 55
1, 233520, Note_off_c, 0, 63, 61
1, 233565, Note_on_c, 0, 41, 62
1, 233576, Note_on_c, 0, 61, 91
1, 233576, Note_on_c, 0, 46, 66
1, 233584, Note_on_c, 0, 53, 71
1, 233585, Note_on_c, 0, 34, 46
1, 233588, Note_off_c, 0, 41, 70
1, 233599, Note_on_c, 0, 58, 58
1, 233610, Note_off_c, 0, 46, 57
1, 233615, Note_off_c, 0, 53, 66
1, 233622, Note_off_c, 0, 61, 66
1, 233624, Note_off_c, 0, 34, 44
1, 233624, Note_off_c, 0, 58, 58
1, 233777, Control_c, 0, 64, 81
1, 233779, Note_on_c, 0, 65, 95
1, 233782, Note_on_c, 0, 53, 100
1, 233787, Note_on_c, 0, 58, 83
1, 233791, Note_on_c, 0, 46, 88
1, 233791, Note_on_c, 0, 61, 77
1, 233792, Control_c, 0, 64, 46
1, 233794, Note_on_c, 0, 37, 74
1, 233795, Note_on_c, 0, 31, 76
1, 233806, Control_c, 0, 64, 0
1, 233816, Note_off_c, 0, 58, 58
1, 233819, Note_off_c, 0, 61, 55
1, 233866, Control_c, 0, 64, 37
1, 233867, Note_off_c, 0, 46, 64
1, 233869, Note_off_c, 0, 31, 58
1, 233878, Note_off_c, 0, 53, 60
1, 233880, Note_off_c, 0, 37, 63
1, 233880, Control_c, 0, 64, 57
1, 233895, Control_c, 0, 64, 114
1, 233910, Control_c, 0, 64, 127
1, 233961, Note_on_c, 0, 46, 89
1, 233961, Note_on_c, 0, 37, 75
1, 233968, Note_on_c, 0, 53, 83
1, 233984, Note_on_c, 0, 31, 55
1, 233985, Note_on_c, 0, 58, 61
1, 233994, Note_off_c, 0, 46, 59
1, 233996, Note_on_c, 0, 61, 40
1, 234007, Note_off_c, 0, 37, 53
1, 234015, Note_off_c, 0, 31, 52
1, 234018, Note_off_c, 0, 58, 65
1, 234025, Note_off_c, 0, 61, 57
1, 234037, Note_off_c, 0, 53, 64
1, 234095, Note_on_c, 0, 53, 69
1, 234101, Note_on_c, 0, 31, 58
1, 234101, Note_on_c, 0, 46, 80
1, 234103, Note_on_c, 0, 58, 64
1, 234107, Note_on_c, 0, 37, 72
1, 234110, Note_on_c, 0, 61, 64
1, 234120, Note_off_c, 0, 65, 57
1, 234130, Note_off_c, 0, 31, 60
1, 234131, Note_off_c, 0, 46, 65
1, 234146, Note_off_c, 0, 53, 66
1, 234147, Note_off_c, 0, 37, 60
1, 234178, Note_off_c, 0, 58, 62
1, 234181, Note_off_c, 0, 61, 63
1, 234237, Note_on_c, 0, 37, 77
1, 234241, Note_on_c, 0, 51, 89
1, 234241, Note_on_c, 0, 46, 82
1, 234244, Note_on_c, 0, 63, 87
1, 234248, Note_on_c, 0, 31, 42
1, 234266, Note_on_c, 0, 58, 39
1, 234272, Note_on_c, 0, 61, 38
1, 234272, Note_off_c, 0, 46, 63
1, 234276, Note_off_c, 0, 31, 58
1, 234289, Note_off_c, 0, 37, 60
1, 234298, Note_off_c, 0, 51, 61
1, 234304, Note_off_c, 0, 58, 49
1, 234309, Note_off_c, 0, 61, 49
1, 234325, Note_off_c, 0, 63, 60
1, 234379, Note_on_c, 0, 37, 72
1, 234379, Note_on_c, 0, 46, 81
1, 234381, Note_on_c, 0, 31, 52
1, 234383, Note_on_c, 0, 53, 91
1, 234384, Note_on_c, 0, 65, 94
1, 234392, Note_on_c, 0, 61, 64
1, 234393, Note_on_c, 0, 58, 66
1, 234429, Note_off_c, 0, 31, 47
1, 234438, Note_off_c, 0, 46, 59
1, 234441, Note_off_c, 0, 58, 57
1, 234444, Note_off_c, 0, 37, 60
1, 234455, Note_off_c, 0, 53, 64
1, 234474, Note_off_c, 0, 65, 64
1, 234496, Note_off_c, 0, 61, 28
1, 234519, Note_on_c, 0, 31, 48
1, 234521, Note_on_c, 0, 37, 63
1, 234523, Note_on_c, 0, 46, 65
1, 234533, Note_on_c, 0, 64, 96
1, 234536, Note_on_c, 0, 52, 101
1, 234547, Note_off_c, 0, 46, 68
1, 234551, Note_off_c, 0, 31, 49
1, 234576, Note_off_c, 0, 52, 69
1, 234587, Note_off_c, 0, 64, 67
1, 234618, Note_off_c, 0, 37, 37
1, 234747, Note_on_c, 0, 55, 106
1, 234747, Control_c, 0, 64, 53
1, 234748, Note_on_c, 0, 67, 101
1, 234749, Note_on_c, 0, 36, 84
1, 234749, Note_on_c, 0, 60, 94
1, 234750, Note_on_c, 0, 44, 98
1, 234756, Note_on_c, 0, 32, 95
1, 234762, Control_c, 0, 64, 0
1, 234823, Note_off_c, 0, 32, 63
1, 234826, Note_off_c, 0, 44, 61
1, 234842, Note_off_c, 0, 55, 62
1, 234851, Control_c, 0, 64, 24
1, 234859, Note_off_c, 0, 60, 55
1, 234865, Control_c, 0, 64, 39
1, 234880, Control_c, 0, 64, 52
1, 234894, Note_off_c, 0, 36, 0
1, 234895, Control_c, 0, 64, 66
1, 234910, Control_c, 0, 64, 127
1, 234918, Note_on_c, 0, 36, 43
1, 234921, Note_on_c, 0, 44, 85
1, 234936, Note_on_c, 0, 32, 58
1, 234939, Note_on_c, 0, 55, 80
1, 234939, Note_on_c, 0, 60, 64
1, 234969, Note_off_c, 0, 32, 64
1, 234977, Note_off_c, 0, 44, 60
1, 235006, Note_off_c, 0, 55, 63
1, 235015, Note_off_c, 0, 36, 0
1, 235024, Note_off_c, 0, 60, 47
1, 235048, Note_on_c, 0, 44, 77
1, 235052, Poly_aftertouch_c, 0, 36, 127
1, 235055, Note_on_c, 0, 36, 14
1, 235057, Note_on_c, 0, 32, 61
1, 235068, Note_on_c, 0, 60, 55
1, 235080, Note_on_c, 0, 55, 56
1, 235094, Note_off_c, 0, 44, 62
1, 235105, Note_off_c, 0, 32, 57
1, 235109, Note_off_c, 0, 55, 66
1, 235121, Note_off_c, 0, 67, 62
1, 235171, Note_on_c, 0, 32, 66
1, 235180, Note_on_c, 0, 44, 72
1, 235195, Note_on_c, 0, 65, 93
1, 235200, Note_on_c, 0, 53, 77
1, 235200, Note_off_c, 0, 44, 72
1, 235210, Note_off_c, 0, 32, 63
1, 235211, Note_off_c, 0, 36, 50
1, 235223, Note_on_c, 0, 55, 56
1, 235228, Note_off_c, 0, 60, 63
1, 235246, Note_off_c, 0, 55, 64
1, 235250, Note_off_c, 0, 53, 65
1, 235271, Note_off_c, 0, 65, 64
1, 235295, Note_on_c, 0, 60, 38
1, 235347, Note_off_c, 0, 60, 0
1, 235348, Control_c, 0, 64, 60
1, 235352, Note_on_c, 0, 36, 68
1, 235357, Note_on_c, 0, 56, 96
1, 235360, Note_on_c, 0, 68, 99
1, 235362, Note_on_c, 0, 40, 91
1, 235363, Note_on_c, 0, 60, 48
1, 235363, Control_c, 0, 64, 24
1, 235365, Note_on_c, 0, 28, 76
1, 235377, Control_c, 0, 64, 0
1, 235392, Control_c, 0, 64, 23
1, 235407, Control_c, 0, 64, 44
1, 235413, Note_off_c, 0, 40, 64
1, 235416, Note_off_c, 0, 28, 65
1, 235422, Control_c, 0, 64, 69
1, 235434, Note_off_c, 0, 56, 62
1, 235437, Control_c, 0, 64, 127
1, 235441, Note_off_c, 0, 68, 59
1, 235445, Poly_aftertouch_c, 0, 31, 127
1, 235467, Note_off_c, 0, 60, 60
1, 235476, Note_off_c, 0, 36, 0
1, 235484, Poly_aftertouch_c, 0, 31, 0
1, 235492, Note_on_c, 0, 36, 55
1, 235504, Note_on_c, 0, 28, 78
1, 235504, Note_on_c, 0, 40, 90
1, 235514, Note_on_c, 0, 55, 99
1, 235516, Note_on_c, 0, 67, 90
1, 235534, Note_on_c, 0, 60, 47
1, 235538, Note_off_c, 0, 28, 62
1, 235554, Note_off_c, 0, 40, 63
1, 235559, Note_off_c, 0, 60, 59
1, 235564, Note_off_c, 0, 55, 66
1, 235574, Note_off_c, 0, 67, 65
1, 235603, Note_off_c, 0, 36, 60
1, 235644, Control_c, 0, 64, 61
1, 235645, Note_on_c, 0, 36, 64
1, 235655, Note_on_c, 0, 41, 104
1, 235655, Note_on_c, 0, 60, 51
1, 235658, Note_on_c, 0, 58, 94
1, 235659, Control_c, 0, 64, 46
1, 235662, Note_on_c, 0, 70, 97
1, 235670, Note_on_c, 0, 29, 77
1, 235674, Control_c, 0, 64, 50
1, 235688, Control_c, 0, 64, 64
1, 235703, Control_c, 0, 64, 127
1, 235709, Note_on_c, 0, 68, 24
1, 235710, Note_off_c, 0, 68, 127
1, 235714, Note_off_c, 0, 58, 62
1, 235722, Note_off_c, 0, 29, 61
1, 235726, Note_off_c, 0, 70, 63
1, 235729, Note_off_c, 0, 41, 60
1, 235753, Note_off_c, 0, 60, 61
1, 235785, Note_on_c, 0, 41, 84
1, 235785, Note_on_c, 0, 29, 68
1, 235793, Note_on_c, 0, 56, 94
1, 235799, Note_off_c, 0, 36, 61
1, 235803, Note_on_c, 0, 68, 97
1, 235812, Note_off_c, 0, 29, 66
1, 235821, Note_off_c, 0, 41, 60
1, 235832, Note_off_c, 0, 56, 67
1, 235850, Note_off_c, 0, 68, 59
1, 235855, Note_on_c, 0, 69, 22
1, 235888, Note_on_c, 0, 34, 60
1, 235892, Note_off_c, 0, 69, 52
1, 235951, Note_on_c, 0, 38, 103
1, 235951, Note_on_c, 0, 60, 102
1, 235955, Note_on_c, 0, 72, 98
1, 235956, Note_on_c, 0, 26, 92
1, 235961, Note_on_c, 0, 65, 78
1, 235963, Control_c, 0, 64, 59
1, 235976, Note_off_c, 0, 34, 64
1, 235976, Note_off_c, 0, 65, 68
1, 235977, Control_c, 0, 64, 0
1, 235999, Note_off_c, 0, 60, 61
1, 236012, Note_off_c, 0, 26, 63
1, 236016, Note_off_c, 0, 38, 62
1, 236018, Note_off_c, 0, 72, 60
1, 236021, Control_c, 0, 64, 42
1, 236035, Note_on_c, 0, 65, 64
1, 236036, Control_c, 0, 64, 64
1, 236052, Control_c, 0, 64, 127
1, 236059, Note_off_c, 0, 65, 66
1, 236101, Note_on_c, 0, 38, 98
1, 236107, Note_on_c, 0, 58, 93
1, 236107, Note_on_c, 0, 70, 94
1, 236123, Note_on_c, 0, 26, 56
1, 236124, Note_off_c, 0, 58, 74
1, 236140, Note_on_c, 0, 71, 59
1, 236149, Note_off_c, 0, 38, 64
1, 236154, Note_off_c, 0, 70, 61
1, 236161, Note_off_c, 0, 26, 48
1, 236161, Note_off_c, 0, 71, 65
1, 236202, Note_on_c, 0, 27, 61
1, 236211, Note_on_c, 0, 32, 50
1, 236239, Note_on_c, 0, 29, 7
1, 236244, Note_off_c, 0, 27, 60
1, 236246, Note_off_c, 0, 32, 60
1, 236260, Control_c, 0, 64, 62
1, 236275, Control_c, 0, 64, 31
1, 236283, Note_on_c, 0, 65, 112
1, 236284, Note_on_c, 0, 37, 100
1, 236286, Note_off_c, 0, 29, 48
1, 236287, Note_on_c, 0, 77, 103
1, 236290, Control_c, 0, 64, 29
1, 236291, Note_on_c, 0, 25, 92
1, 236305, Control_c, 0, 64, 50
1, 236311, Note_on_c, 0, 24, 73
1, 236319, Note_off_c, 0, 65, 71
1, 236319, Control_c, 0, 64, 88
1, 236322, Note_off_c, 0, 77, 66
1, 236334, Control_c, 0, 64, 127
1, 236340, Note_off_c, 0, 24, 55
1, 236349, Note_off_c, 0, 37, 52
1, 236360, Note_off_c, 0, 25, 60
1, 236396, Poly_aftertouch_c, 0, 75, 0
1, 236414, Note_on_c, 0, 29, 8
1, 236416, Note_on_c, 0, 28, 5
1, 236469, Note_off_c, 0, 29, 40
1, 236472, Note_on_c, 0, 37, 99
1, 236479, Note_on_c, 0, 65, 103
1, 236482, Note_on_c, 0, 71, 99
1, 236483, Note_on_c, 0, 25, 81
1, 236494, Note_on_c, 0, 26, 28
1, 236499, Note_on_c, 0, 67, 60
1, 236515, Note_off_c, 0, 28, 30
1, 236519, Note_off_c, 0, 67, 64
1, 236528, Note_off_c, 0, 26, 56
1, 236534, Note_off_c, 0, 25, 59
1, 236545, Note_off_c, 0, 65, 62
1, 236551, Note_off_c, 0, 37, 63
1, 236577, Poly_aftertouch_c, 0, 31, 127
1, 236584, Note_off_c, 0, 71, 57
1, 236702, Poly_aftertouch_c, 0, 31, 0
1, 236727, Control_c, 0, 64, 93
1, 236742, Control_c, 0, 64, 36
1, 236752, Note_on_c, 0, 67, 84
1, 236757, Control_c, 0, 64, 0
1, 236757, Note_on_c, 0, 64, 101
1, 236757, Note_on_c, 0, 72, 95
1, 236758, Note_on_c, 0, 36, 97
1, 236763, Note_on_c, 0, 24, 103
1, 236810, Note_on_c, 0, 32, 24
1, 236811, Note_off_c, 0, 32, 127
1, 236905, Control_c, 0, 64, 26
1, 236916, Note_off_c, 0, 36, 63
1, 236919, Control_c, 0, 64, 48
1, 236922, Note_off_c, 0, 24, 62
1, 236934, Control_c, 0, 64, 61
1, 236950, Control_c, 0, 64, 90
1, 236964, Note_off_c, 0, 64, 56
1, 236965, Control_c, 0, 64, 127
1, 236974, Note_off_c, 0, 67, 59
1, 237003, Note_off_c, 0, 72, 58
1, 237187, Control_c, 0, 64, 47
1, 237202, Control_c, 0, 64, 0
1, 237632, Note_on_c, 0, 48, 96
1, 237651, Note_on_c, 0, 50, 58
1, 237669, Note_off_c, 0, 48, 71
1, 237679, Note_off_c, 0, 50, 36
1, 237714, Note_on_c, 0, 48, 96
1, 237862, Control_c, 0, 64, 17
1, 237877, Control_c, 0, 64, 31
1, 237891, Control_c, 0, 64, 42
1, 237906, Control_c, 0, 64, 55
1, 237921, Control_c, 0, 64, 64
1, 237932, Note_on_c, 0, 49, 85
1, 237934, Note_off_c, 0, 48, 62
1, 237936, Control_c, 0, 64, 71
1, 237951, Control_c, 0, 64, 77
1, 237965, Control_c, 0, 64, 80
1, 237980, Control_c, 0, 64, 83
1, 237995, Control_c, 0, 64, 92
1, 237999, Note_on_c, 0, 48, 82
1, 237999, Note_off_c, 0, 49, 65
1, 238010, Control_c, 0, 64, 105
1, 238024, Control_c, 0, 64, 127
1, 238052, Note_off_c, 0, 48, 64
1, 238075, Note_on_c, 0, 49, 85
1, 238126, Note_off_c, 0, 49, 65
1, 238134, Note_on_c, 0, 48, 83
1, 238214, Note_off_c, 0, 48, 65
1, 238241, Note_on_c, 0, 49, 75
1, 238274, Note_off_c, 0, 49, 65
1, 238289, Note_on_c, 0, 48, 71
1, 238373, Control_c, 0, 64, 83
1, 238373, Note_off_c, 0, 48, 0
1, 238388, Control_c, 0, 64, 53
1, 238390, Note_on_c, 0, 47, 82
1, 238403, Control_c, 0, 64, 13
1, 238406, Poly_aftertouch_c, 0, 48, 0
1, 238417, Control_c, 0, 64, 0
1, 238446, Note_off_c, 0, 47, 63
1, 238447, Control_c, 0, 64, 9
1, 238462, Control_c, 0, 64, 32
1, 238464, Note_on_c, 0, 48, 73
1, 238477, Control_c, 0, 64, 50
1, 238491, Control_c, 0, 64, 64
1, 238506, Control_c, 0, 64, 83
1, 238521, Control_c, 0, 64, 127
1, 238523, Note_off_c, 0, 48, 63
1, 238531, Note_on_c, 0, 52, 87
1, 238578, Note_on_c, 0, 55, 74
1, 238582, Note_off_c, 0, 52, 65
1, 238625, Note_on_c, 0, 58, 78
1, 238635, Note_off_c, 0, 55, 64
1, 238648, Note_off_c, 0, 58, 69
1, 238698, Note_on_c, 0, 60, 79
1, 238730, Note_off_c, 0, 60, 53
1, 238751, Note_on_c, 0, 64, 81
1, 238781, Note_on_c, 0, 67, 78
1, 238796, Note_off_c, 0, 64, 63
1, 238817, Note_on_c, 0, 70, 76
1, 238818, Control_c, 0, 64, 117
1, 238824, Note_off_c, 0, 67, 66
1, 238833, Control_c, 0, 64, 68
1, 238838, Note_on_c, 0, 68, 48
1, 238847, Control_c, 0, 64, 41
1, 238862, Control_c, 0, 64, 0
1, 238865, Note_on_c, 0, 73, 95
1, 238868, Note_off_c, 0, 68, 34
1, 238877, Note_off_c, 0, 70, 62
1, 238918, Note_on_c, 0, 74, 37
1, 238929, Control_c, 0, 64, 27
1, 238944, Control_c, 0, 64, 49
1, 238947, Note_off_c, 0, 74, 59
1, 238953, Note_on_c, 0, 48, 66
1, 238954, Note_on_c, 0, 47, 56
1, 238959, Control_c, 0, 64, 73
1, 238973, Note_off_c, 0, 73, 64
1, 238974, Control_c, 0, 64, 127
1, 238978, Note_off_c, 0, 47, 60
1, 238982, Note_off_c, 0, 48, 67
1, 239041, Note_on_c, 0, 58, 73
1, 239042, Note_on_c, 0, 61, 63
1, 239047, Note_on_c, 0, 64, 66
1, 239062, Note_off_c, 0, 61, 65
1, 239075, Note_off_c, 0, 58, 60
1, 239092, Note_off_c, 0, 64, 51
1, 239097, Note_on_c, 0, 60, 62
1, 239128, Note_off_c, 0, 60, 67
1, 239160, Note_on_c, 0, 64, 61
1, 239182, Note_on_c, 0, 54, 34
1, 239182, Note_on_c, 0, 58, 59
1, 239205, Note_off_c, 0, 58, 64
1, 239216, Note_off_c, 0, 54, 51
1, 239233, Note_on_c, 0, 55, 77
1, 239267, Note_off_c, 0, 55, 56
1, 239285, Note_on_c, 0, 72, 83
1, 239306, Note_on_c, 0, 49, 78
1, 239335, Note_off_c, 0, 72, 63
1, 239386, Note_off_c, 0, 49, 65
1, 239390, Note_on_c, 0, 48, 77
1, 239426, Note_on_c, 0, 46, 72
1, 239431, Note_on_c, 0, 66, 93
1, 239443, Note_on_c, 0, 58, 81
1, 239443, Note_off_c, 0, 48, 65
1, 239462, Note_off_c, 0, 46, 66
1, 239527, Note_on_c, 0, 43, 61
1, 239531, Note_off_c, 0, 58, 59
1, 239559, Note_off_c, 0, 43, 62
1, 239590, Note_on_c, 0, 67, 89
1, 239595, Poly_aftertouch_c, 0, 45, 127
1, 239610, Note_on_c, 0, 37, 73
1, 239620, Note_off_c, 0, 64, 62
1, 239625, Note_off_c, 0, 66, 59
1, 239626, Poly_aftertouch_c, 0, 45, 0
1, 239637, Note_off_c, 0, 67, 69
1, 239682, Note_off_c, 0, 37, 64
1, 239696, Note_on_c, 0, 36, 88
1, 239727, Note_off_c, 0, 36, 66
1, 239767, Control_c, 0, 64, 58
1, 239782, Control_c, 0, 64, 0
1, 239849, Note_on_c, 0, 75, 95
1, 239869, Control_c, 0, 64, 42
1, 239884, Control_c, 0, 64, 62
1, 239899, Control_c, 0, 64, 127
1, 239900, Note_on_c, 0, 76, 27
1, 239905, Note_off_c, 0, 75, 61
1, 239933, Poly_aftertouch_c, 0, 53, 127
1, 239935, Note_off_c, 0, 76, 52
1, 239951, Note_on_c, 0, 48, 79
1, 239962, Poly_aftertouch_c, 0, 53, 0
1, 239979, Note_off_c, 0, 48, 69
1, 240048, Note_on_c, 0, 65, 58
1, 240055, Note_on_c, 0, 58, 68
1, 240074, Note_on_c, 0, 63, 47
1, 240099, Note_off_c, 0, 63, 58
1, 240113, Note_on_c, 0, 61, 77
1, 240115, Note_off_c, 0, 58, 61
1, 240138, Note_off_c, 0, 65, 33
1, 240158, Note_off_c, 0, 61, 66
1, 240181, Note_on_c, 0, 56, 66
1, 240190, Note_on_c, 0, 65, 74
1, 240205, Note_on_c, 0, 58, 67
1, 240215, Note_off_c, 0, 56, 46
1, 240241, Note_off_c, 0, 58, 61
1, 240266, Note_on_c, 0, 55, 83
1, 240311, Note_on_c, 0, 73, 93
1, 240318, Note_off_c, 0, 55, 61
1, 240345, Note_on_c, 0, 53, 53
1, 240363, Note_on_c, 0, 52, 54
1, 240377, Note_off_c, 0, 53, 0
1, 240377, Note_on_c, 0, 53, 20
1, 240397, Note_off_c, 0, 73, 63
1, 240424, Note_on_c, 0, 51, 87
1, 240427, Note_off_c, 0, 53, 64
1, 240461, Note_on_c, 0, 68, 94
1, 240464, Note_off_c, 0, 52, 34
1, 240474, Note_on_c, 0, 58, 73
1, 240482, Note_off_c, 0, 51, 66
1, 240485, Note_on_c, 0, 49, 68
1, 240505, Note_off_c, 0, 49, 67
1, 240521, Note_off_c, 0, 65, 54
1, 240526, Note_off_c, 0, 58, 51
1, 240564, Note_on_c, 0, 44, 90
1, 240626, Note_on_c, 0, 70, 91
1, 240626, Note_on_c, 0, 58, 84
1, 240656, Note_on_c, 0, 43, 73
1, 240672, Note_off_c, 0, 68, 57
1, 240678, Note_off_c, 0, 58, 57
1, 240716, Note_off_c, 0, 43, 59
1, 240731, Note_on_c, 0, 41, 67
1, 240731, Note_off_c, 0, 44, 21
1, 240732, Note_on_c, 0, 40, 66
1, 240767, Note_off_c, 0, 70, 46
1, 240826, Control_c, 0, 64, 66
1, 240841, Control_c, 0, 64, 0
1, 240841, Note_off_c, 0, 41, 64
1, 240844, Note_off_c, 0, 40, 61
1, 240854, Note_on_c, 0, 60, 90
1, 240855, Note_on_c, 0, 36, 97
1, 240857, Note_on_c, 0, 64, 87
1, 240857, Note_on_c, 0, 72, 104
1, 240890, Note_off_c, 0, 60, 68
1, 240893, Note_off_c, 0, 64, 65
1, 240898, Note_off_c, 0, 36, 70
1, 240900, Control_c, 0, 64, 32
1, 240901, Note_on_c, 0, 63, 16
1, 240902, Note_off_c, 0, 63, 127
1, 240912, Note_off_c, 0, 72, 70
1, 240915, Control_c, 0, 64, 79
1, 240930, Control_c, 0, 64, 127
1, 240949, Poly_aftertouch_c, 0, 63, 0
1, 241123, Control_c, 0, 64, 67
1, 241138, Control_c, 0, 64, 0
1, 241574, Control_c, 0, 64, 18
1, 241589, Control_c, 0, 64, 28
1, 241604, Control_c, 0, 64, 35
1, 241619, Control_c, 0, 64, 41
1, 241633, Control_c, 0, 64, 48
1, 241648, Control_c, 0, 64, 54
1, 241663, Control_c, 0, 64, 58
1, 241664, Note_on_c, 0, 48, 101
1, 241669, Note_on_c, 0, 36, 93
1, 241678, Control_c, 0, 64, 60
1, 241693, Control_c, 0, 64, 61
1, 241715, Note_off_c, 0, 36, 62
1, 241722, Control_c, 0, 64, 60
1, 241738, Control_c, 0, 64, 55
1, 241753, Control_c, 0, 64, 43
1, 241764, Note_on_c, 0, 49, 105
1, 241765, Note_on_c, 0, 37, 86
1, 241768, Control_c, 0, 64, 0
1, 241791, Note_off_c, 0, 48, 67
1, 241886, Control_c, 0, 64, 11
1, 241901, Control_c, 0, 64, 16
1, 241902, Note_off_c, 0, 37, 63
1, 241917, Note_on_c, 0, 36, 69
1, 241923, Control_c, 0, 64, 19
1, 241934, Note_off_c, 0, 49, 61
1, 241937, Note_on_c, 0, 48, 86
1, 241938, Control_c, 0, 64, 23
1, 241953, Control_c, 0, 64, 28
1, 241968, Control_c, 0, 64, 33
1, 241983, Control_c, 0, 64, 39
1, 241997, Control_c, 0, 64, 47
1, 242000, Note_on_c, 0, 37, 75
1, 242005, Note_off_c, 0, 48, 61
1, 242006, Note_off_c, 0, 36, 63
1, 242012, Control_c, 0, 64, 56
1, 242025, Note_on_c, 0, 49, 90
1, 242027, Control_c, 0, 64, 62
1, 242042, Control_c, 0, 64, 67
1, 242057, Control_c, 0, 64, 69
1, 242076, Note_off_c, 0, 37, 61
1, 242086, Control_c, 0, 64, 70
1, 242091, Note_on_c, 0, 36, 70
1, 242101, Note_off_c, 0, 49, 63
1, 242101, Control_c, 0, 64, 70
1, 242107, Note_on_c, 0, 48, 81
1, 242116, Control_c, 0, 64, 71
1, 242130, Control_c, 0, 64, 72
1, 242145, Control_c, 0, 64, 72
1, 242160, Control_c, 0, 64, 73
1, 242163, Note_on_c, 0, 37, 71
1, 242175, Control_c, 0, 64, 74
1, 242176, Note_off_c, 0, 36, 61
1, 242185, Note_off_c, 0, 48, 64
1, 242189, Control_c, 0, 64, 74
1, 242199, Note_on_c, 0, 49, 80
1, 242204, Control_c, 0, 64, 75
1, 242219, Control_c, 0, 64, 75
1, 242223, Note_off_c, 0, 37, 62
1, 242231, Note_off_c, 0, 49, 60
1, 242234, Note_on_c, 0, 36, 60
1, 242234, Control_c, 0, 64, 76
1, 242249, Control_c, 0, 64, 76
1, 242257, Note_on_c, 0, 48, 58
1, 242263, Control_c, 0, 64, 77
1, 242277, Note_on_c, 0, 37, 61
1, 242278, Control_c, 0, 64, 79
1, 242281, Note_off_c, 0, 48, 66
1, 242284, Note_on_c, 0, 49, 69
1, 242293, Control_c, 0, 64, 82
1, 242305, Note_off_c, 0, 36, 60
1, 242308, Control_c, 0, 64, 88
1, 242320, Note_off_c, 0, 49, 62
1, 242323, Control_c, 0, 64, 86
1, 242328, Note_off_c, 0, 37, 63
1, 242335, Note_on_c, 0, 48, 70
1, 242337, Control_c, 0, 64, 72
1, 242352, Control_c, 0, 64, 60
1, 242361, Note_on_c, 0, 47, 85
1, 242367, Control_c, 0, 64, 44
1, 242373, Note_off_c, 0, 48, 66
1, 242382, Control_c, 0, 64, 33
1, 242385, Note_on_c, 0, 36, 70
1, 242397, Control_c, 0, 64, 37
1, 242411, Note_off_c, 0, 47, 63
1, 242412, Control_c, 0, 64, 45
1, 242427, Control_c, 0, 64, 55
1, 242436, Note_on_c, 0, 48, 80
1, 242442, Control_c, 0, 64, 65
1, 242456, Control_c, 0, 64, 75
1, 242462, Note_on_c, 0, 38, 33
1, 242471, Control_c, 0, 64, 81
1, 242476, Poly_aftertouch_c, 0, 35, 0
1, 242486, Note_off_c, 0, 48, 62
1, 242501, Control_c, 0, 64, 80
1, 242508, Note_off_c, 0, 38, 50
1, 242510, Note_off_c, 0, 36, 62
1, 242516, Control_c, 0, 64, 78
1, 242517, Note_on_c, 0, 52, 83
1, 242523, Note_on_c, 0, 40, 63
1, 242531, Control_c, 0, 64, 75
1, 242538, Note_on_c, 0, 41, 46
1, 242546, Control_c, 0, 64, 71
1, 242551, Note_off_c, 0, 40, 66
1, 242560, Note_off_c, 0, 52, 69
1, 242561, Control_c, 0, 64, 67
1, 242567, Note_on_c, 0, 55, 77
1, 242570, Note_off_c, 0, 41, 55
1, 242576, Control_c, 0, 64, 63
1, 242580, Note_on_c, 0, 45, 68
1, 242591, Control_c, 0, 64, 59
1, 242601, Note_on_c, 0, 43, 29
1, 242605, Control_c, 0, 64, 57
1, 242618, Note_on_c, 0, 58, 73
1, 242620, Control_c, 0, 64, 58
1, 242626, Note_off_c, 0, 45, 59
1, 242626, Note_off_c, 0, 55, 65
1, 242635, Control_c, 0, 64, 58
1, 242644, Note_off_c, 0, 43, 51
1, 242648, Note_off_c, 0, 58, 64
1, 242650, Control_c, 0, 64, 59
1, 242672, Control_c, 0, 64, 60
1, 242680, Note_on_c, 0, 46, 34
1, 242686, Control_c, 0, 64, 61
1, 242701, Note_on_c, 0, 60, 79
1, 242701, Control_c, 0, 64, 63
1, 242716, Control_c, 0, 64, 64
1, 242718, Note_off_c, 0, 46, 50
1, 242721, Note_on_c, 0, 50, 72
1, 242731, Control_c, 0, 64, 66
1, 242746, Poly_aftertouch_c, 0, 48, 127
1, 242746, Control_c, 0, 64, 69
1, 242754, Poly_aftertouch_c, 0, 47, 127
1, 242761, Control_c, 0, 64, 74
1, 242763, Note_on_c, 0, 53, 73
1, 242766, Note_on_c, 0, 49, 42
1, 242770, Note_on_c, 0, 64, 81
1, 242771, Note_off_c, 0, 60, 62
1, 242776, Control_c, 0, 64, 87
1, 242789, Note_off_c, 0, 49, 61
1, 242791, Poly_aftertouch_c, 0, 48, 0
1, 242791, Control_c, 0, 64, 127
1, 242799, Poly_aftertouch_c, 0, 47, 0
1, 242799, Note_off_c, 0, 50, 61
1, 242820, Note_on_c, 0, 67, 75
1, 242823, Note_off_c, 0, 53, 67
1, 242832, Note_off_c, 0, 64, 62
1, 242833, Note_on_c, 0, 57, 80
1, 242856, Note_on_c, 0, 70, 76
1, 242865, Note_on_c, 0, 68, 33
1, 242868, Note_off_c, 0, 67, 67
1, 242879, Note_off_c, 0, 57, 62
1, 242879, Note_off_c, 0, 70, 68
1, 242904, Note_off_c, 0, 68, 47
1, 242934, Note_on_c, 0, 62, 56
1, 242939, Note_on_c, 0, 72, 65
1, 242960, Note_off_c, 0, 62, 61
1, 242966, Note_off_c, 0, 72, 59
1, 242978, Note_on_c, 0, 65, 54
1, 242986, Note_on_c, 0, 76, 77
1, 243000, Note_off_c, 0, 65, 65
1, 243022, Note_off_c, 0, 76, 65
1, 243030, Note_on_c, 0, 82, 71
1, 243032, Note_on_c, 0, 80, 54
1, 243043, Control_c, 0, 64, 82
1, 243053, Note_off_c, 0, 82, 70
1, 243054, Note_off_c, 0, 80, 60
1, 243058, Control_c, 0, 64, 36
1, 243073, Control_c, 0, 64, 0
1, 243086, Note_on_c, 0, 85, 94
1, 243101, Note_on_c, 0, 73, 75
1, 243117, Control_c, 0, 64, 37
1, 243123, Note_off_c, 0, 73, 70
1, 243132, Control_c, 0, 64, 67
1, 243147, Control_c, 0, 64, 127
1, 243197, Note_on_c, 0, 71, 62
1, 243209, Note_off_c, 0, 85, 58
1, 243217, Note_off_c, 0, 71, 63
1, 243267, Note_on_c, 0, 68, 73
1, 243285, Note_on_c, 0, 70, 73
1, 243293, Note_on_c, 0, 76, 66
1, 243328, Note_on_c, 0, 67, 74
1, 243339, Note_off_c, 0, 70, 61
1, 243351, Note_off_c, 0, 68, 35
1, 243360, Note_off_c, 0, 76, 62
1, 243361, Note_off_c, 0, 67, 65
1, 243411, Note_on_c, 0, 76, 65
1, 243425, Note_on_c, 0, 70, 75
1, 243462, Note_on_c, 0, 60, 39
1, 243486, Note_off_c, 0, 70, 60
1, 243527, Note_on_c, 0, 84, 89
1, 243527, Note_off_c, 0, 60, 60
1, 243531, Note_on_c, 0, 56, 76
1, 243574, Note_off_c, 0, 84, 63
1, 243586, Note_off_c, 0, 56, 64
1, 243605, Note_on_c, 0, 49, 59
1, 243628, Note_off_c, 0, 49, 60
1, 243665, Note_on_c, 0, 78, 94
1, 243669, Note_on_c, 0, 70, 84
1, 243673, Note_on_c, 0, 48, 77
1, 243698, Note_off_c, 0, 48, 67
1, 243776, Note_on_c, 0, 36, 89
1, 243777, Note_off_c, 0, 70, 57
1, 243796, Note_off_c, 0, 36, 66
1, 243800, Note_on_c, 0, 79, 86
1, 243813, Note_off_c, 0, 76, 65
1, 243835, Note_off_c, 0, 78, 64
1, 243837, Note_off_c, 0, 79, 65
1, 243925, Control_c, 0, 64, 59
1, 243940, Control_c, 0, 64, 0
1, 243999, Control_c, 0, 64, 38
1, 244001, Note_on_c, 0, 87, 97
1, 244014, Control_c, 0, 64, 127
1, 244021, Note_on_c, 0, 75, 92
1, 244033, Note_on_c, 0, 88, 62
1, 244045, Note_off_c, 0, 75, 64
1, 244056, Note_off_c, 0, 88, 64
1, 244060, Note_off_c, 0, 87, 65
1, 244117, Note_on_c, 0, 73, 55
1, 244120, Poly_aftertouch_c, 0, 76, 0
1, 244143, Note_off_c, 0, 73, 54
1, 244177, Note_on_c, 0, 68, 80
1, 244180, Note_on_c, 0, 77, 68
1, 244206, Note_on_c, 0, 71, 49
1, 244213, Note_off_c, 0, 77, 50
1, 244235, Note_on_c, 0, 65, 57
1, 244239, Note_off_c, 0, 71, 54
1, 244257, Note_off_c, 0, 68, 61
1, 244261, Note_off_c, 0, 65, 69
1, 244302, Note_on_c, 0, 77, 67
1, 244308, Note_on_c, 0, 63, 94
1, 244362, Note_off_c, 0, 63, 62
1, 244387, Note_off_c, 0, 77, 63
1, 244393, Note_on_c, 0, 61, 77
1, 244453, Note_on_c, 0, 85, 95
1, 244454, Note_on_c, 0, 56, 80
1, 244472, Note_off_c, 0, 61, 63
1, 244487, Note_off_c, 0, 85, 66
1, 244545, Note_on_c, 0, 53, 73
1, 244597, Note_off_c, 0, 56, 60
1, 244607, Note_off_c, 0, 53, 65
1, 244681, Note_on_c, 0, 80, 106
1, 244682, Note_on_c, 0, 92, 103
1, 244687, Note_on_c, 0, 51, 94
1, 244694, Note_off_c, 0, 80, 78
1, 244694, Note_off_c, 0, 92, 79
1, 244753, Note_off_c, 0, 51, 0
1, 244790, Poly_aftertouch_c, 0, 51, 127
1, 244800, Note_on_c, 0, 49, 78
1, 244850, Poly_aftertouch_c, 0, 51, 0
1, 244922, Note_on_c, 0, 44, 86
1, 244925, Note_on_c, 0, 71, 94
1, 244930, Note_on_c, 0, 61, 95
1, 244934, Note_on_c, 0, 65, 66
1, 244954, Note_off_c, 0, 65, 68
1, 244955, Note_off_c, 0, 49, 64
1, 245012, Note_off_c, 0, 61, 62
1, 245034, Note_on_c, 0, 41, 90
1, 245038, Note_on_c, 0, 45, 19
1, 245074, Note_off_c, 0, 44, 62
1, 245080, Note_off_c, 0, 41, 66
1, 245081, Note_off_c, 0, 45, 54
1, 245199, Note_off_c, 0, 71, 32
1, 245223, Poly_aftertouch_c, 0, 70, 0
1, 245268, Note_on_c, 0, 72, 96
1, 245270, Note_on_c, 0, 36, 103
1, 245271, Note_on_c, 0, 60, 93
1, 245271, Note_on_c, 0, 64, 89
1, 245288, Control_c, 0, 64, 52
1, 245303, Control_c, 0, 64, 0
1, 245393, Control_c, 0, 64, 41
1, 245396, Note_off_c, 0, 36, 64
1, 245407, Control_c, 0, 64, 64
1, 245411, Note_off_c, 0, 60, 66
1, 245422, Control_c, 0, 64, 127
1, 245432, Note_off_c, 0, 72, 65
1, 245447, Note_off_c, 0, 64, 37
1, 245599, Control_c, 0, 64, 79
1, 245614, Control_c, 0, 64, 39
1, 245629, Control_c, 0, 64, 0
1, 245908, Note_on_c, 0, 67, 80
1, 245911, Note_on_c, 0, 60, 74
1, 245911, Note_on_c, 0, 64, 73
1, 245918, Note_on_c, 0, 72, 101
1, 245950, Control_c, 0, 64, 41
1, 245965, Control_c, 0, 64, 56
1, 245974, Note_off_c, 0, 72, 66
1, 245979, Control_c, 0, 64, 82
1, 245994, Control_c, 0, 64, 127
1, 246022, Poly_aftertouch_c, 0, 77, 0
1, 246023, Note_on_c, 0, 73, 70
1, 246058, Note_off_c, 0, 73, 61
1, 246079, Note_on_c, 0, 72, 72
1, 246092, Note_off_c, 0, 60, 64
1, 246103, Note_off_c, 0, 67, 62
1, 246105, Note_off_c, 0, 72, 67
1, 246126, Note_off_c, 0, 64, 63
1, 246129, Note_on_c, 0, 73, 65
1, 246133, Poly_aftertouch_c, 0, 62, 127
1, 246159, Note_off_c, 0, 73, 63
1, 246179, Note_on_c, 0, 72, 78
1, 246227, Note_on_c, 0, 71, 73
1, 246249, Note_off_c, 0, 72, 0
1, 246261, Note_off_c, 0, 71, 65
1, 246269, Note_on_c, 0, 72, 50
1, 246317, Note_on_c, 0, 59, 80
1, 246320, Control_c, 0, 64, 54
1, 246323, Note_on_c, 0, 65, 89
1, 246323, Note_on_c, 0, 68, 110
1, 246332, Poly_aftertouch_c, 0, 62, 0
1, 246333, Note_on_c, 0, 73, 79
1, 246335, Control_c, 0, 64, 0
1, 246336, Note_off_c, 0, 72, 61
1, 246373, Note_off_c, 0, 73, 61
1, 246379, Control_c, 0, 64, 37
1, 246385, Note_on_c, 0, 75, 70
1, 246394, Control_c, 0, 64, 60
1, 246416, Control_c, 0, 64, 127
1, 246445, Note_on_c, 0, 73, 76
1, 246450, Note_off_c, 0, 75, 63
1, 246472, Note_off_c, 0, 59, 58
1, 246493, Note_off_c, 0, 73, 64
1, 246501, Note_on_c, 0, 75, 63
1, 246528, Note_off_c, 0, 65, 62
1, 246552, Note_on_c, 0, 73, 72
1, 246558, Note_off_c, 0, 75, 61
1, 246569, Note_off_c, 0, 68, 57
1, 246590, Note_off_c, 0, 73, 62
1, 246597, Note_on_c, 0, 75, 49
1, 246633, Note_on_c, 0, 58, 86
1, 246633, Note_off_c, 0, 75, 63
1, 246657, Poly_aftertouch_c, 0, 78, 127
1, 246674, Note_on_c, 0, 72, 47
1, 246684, Note_on_c, 0, 74, 45
1, 246688, Poly_aftertouch_c, 0, 78, 0
1, 246696, Note_on_c, 0, 65, 84
1, 246699, Poly_aftertouch_c, 0, 73, 127
1, 246705, Note_off_c, 0, 72, 53
1, 246708, Note_off_c, 0, 74, 61
1, 246767, Note_on_c, 0, 68, 85
1, 246789, Poly_aftertouch_c, 0, 73, 0
1, 246825, Note_on_c, 0, 74, 56
1, 246840, Note_on_c, 0, 71, 101
1, 246846, Control_c, 0, 64, 85
1, 246861, Control_c, 0, 64, 50
1, 246871, Note_off_c, 0, 74, 64
1, 246876, Control_c, 0, 64, 0
1, 246885, Note_on_c, 0, 75, 77
1, 246934, Note_on_c, 0, 74, 73
1, 246934, Note_off_c, 0, 75, 64
1, 246935, Control_c, 0, 64, 33
1, 246950, Control_c, 0, 64, 56
1, 246965, Control_c, 0, 64, 127
1, 246986, Note_off_c, 0, 74, 67
1, 247002, Note_on_c, 0, 75, 78
1, 247057, Note_off_c, 0, 75, 61
1, 247058, Note_on_c, 0, 74, 73
1, 247116, Note_off_c, 0, 74, 67
1, 247132, Note_on_c, 0, 75, 72
1, 247170, Note_off_c, 0, 75, 57
1, 247193, Note_off_c, 0, 71, 58
1, 247196, Note_on_c, 0, 74, 72
1, 247246, Note_off_c, 0, 74, 64
1, 247253, Note_off_c, 0, 65, 59
1, 247263, Poly_aftertouch_c, 0, 62, 127
1, 247280, Note_on_c, 0, 73, 74
1, 247312, Note_off_c, 0, 73, 59
1, 247330, Note_off_c, 0, 68, 55
1, 247342, Note_on_c, 0, 74, 77
1, 247345, Note_off_c, 0, 58, 21
1, 247371, Note_on_c, 0, 70, 85
1, 247396, Note_off_c, 0, 74, 60
1, 247408, Note_on_c, 0, 77, 78
1, 247453, Note_on_c, 0, 80, 74
1, 247453, Note_off_c, 0, 70, 58
1, 247458, Note_off_c, 0, 77, 58
1, 247483, Note_on_c, 0, 82, 78
1, 247503, Note_off_c, 0, 80, 64
1, 247503, Note_off_c, 0, 82, 72
1, 247540, Poly_aftertouch_c, 0, 62, 0
1, 247546, Note_on_c, 0, 64, 69
1, 247549, Note_on_c, 0, 86, 85
1, 247609, Note_on_c, 0, 89, 86
1, 247616, Note_off_c, 0, 86, 55
1, 247632, Note_on_c, 0, 92, 83
1, 247664, Note_off_c, 0, 89, 65
1, 247670, Note_on_c, 0, 95, 87
1, 247676, Note_off_c, 0, 92, 66
1, 247695, Note_off_c, 0, 64, 52
1, 247726, Note_on_c, 0, 94, 89
1, 247734, Note_on_c, 0, 65, 97
1, 247736, Note_off_c, 0, 95, 66
1, 247748, Note_off_c, 0, 65, 77
1, 247768, Note_on_c, 0, 92, 81
1, 247795, Note_off_c, 0, 94, 67
1, 247800, Note_on_c, 0, 89, 81
1, 247820, Note_off_c, 0, 92, 66
1, 247841, Note_off_c, 0, 89, 65
1, 247857, Note_on_c, 0, 86, 78
1, 247879, Note_off_c, 0, 86, 67
1, 247936, Note_on_c, 0, 82, 81
1, 247985, Note_on_c, 0, 80, 85
1, 248010, Note_off_c, 0, 82, 62
1, 248034, Note_on_c, 0, 81, 39
1, 248037, Note_on_c, 0, 77, 67
1, 248043, Note_off_c, 0, 80, 64
1, 248061, Note_off_c, 0, 77, 66
1, 248064, Note_off_c, 0, 81, 57
1, 248073, Note_on_c, 0, 74, 70
1, 248095, Note_off_c, 0, 74, 73
1, 248128, Note_on_c, 0, 71, 88
1, 248177, Note_off_c, 0, 71, 63
1, 248188, Note_on_c, 0, 70, 87
1, 248213, Note_off_c, 0, 70, 64
1, 248297, Note_on_c, 0, 63, 86
1, 248297, Note_on_c, 0, 67, 90
1, 248299, Note_on_c, 0, 70, 105
1, 248299, Control_c, 0, 64, 58
1, 248314, Control_c, 0, 64, 0
1, 248330, Note_on_c, 0, 75, 54
1, 248335, Note_on_c, 0, 76, 66
1, 248351, Note_off_c, 0, 76, 69
1, 248353, Note_off_c, 0, 75, 61
1, 248355, Note_on_c, 0, 64, 49
1, 248365, Note_on_c, 0, 77, 51
1, 248374, Control_c, 0, 64, 20
1, 248389, Control_c, 0, 64, 48
1, 248397, Note_off_c, 0, 64, 49
1, 248403, Control_c, 0, 64, 72
1, 248407, Note_off_c, 0, 63, 52
1, 248418, Control_c, 0, 64, 127
1, 248421, Note_on_c, 0, 75, 78
1, 248427, Note_off_c, 0, 77, 63
1, 248448, Note_off_c, 0, 75, 63
1, 248464, Note_on_c, 0, 77, 57
1, 248508, Note_off_c, 0, 67, 50
1, 248515, Note_off_c, 0, 70, 59
1, 248517, Note_off_c, 0, 77, 63
1, 248523, Note_on_c, 0, 75, 70
1, 248546, Note_off_c, 0, 75, 68
1, 248561, Note_on_c, 0, 74, 79
1, 248598, Note_on_c, 0, 75, 77
1, 248603, Note_off_c, 0, 74, 67
1, 248603, Poly_aftertouch_c, 0, 65, 127
1, 248639, Note_off_c, 0, 75, 65
1, 248654, Poly_aftertouch_c, 0, 65, 0
1, 248661, Note_on_c, 0, 62, 76
1, 248663, Control_c, 0, 64, 83
1, 248670, Note_on_c, 0, 68, 94
1, 248670, Note_on_c, 0, 71, 96
1, 248678, Control_c, 0, 64, 50
1, 248686, Note_on_c, 0, 76, 88
1, 248693, Control_c, 0, 64, 0
1, 248722, Control_c, 0, 64, 25
1, 248737, Control_c, 0, 64, 51
1, 248737, Note_off_c, 0, 76, 64
1, 248751, Control_c, 0, 64, 108
1, 248766, Control_c, 0, 64, 127
1, 248779, Note_on_c, 0, 78, 60
1, 248782, Note_off_c, 0, 62, 61
1, 248802, Note_off_c, 0, 78, 61
1, 248819, Note_on_c, 0, 76, 85
1, 248821, Note_off_c, 0, 68, 60
1, 248821, Note_off_c, 0, 71, 64
1, 248865, Note_off_c, 0, 76, 63
1, 248868, Note_on_c, 0, 78, 77
1, 248913, Note_off_c, 0, 78, 57
1, 248925, Note_on_c, 0, 61, 86
1, 248940, Note_on_c, 0, 76, 70
1, 248970, Note_on_c, 0, 68, 87
1, 248972, Note_off_c, 0, 76, 62
1, 249002, Note_on_c, 0, 75, 27
1, 249045, Note_off_c, 0, 75, 48
1, 249046, Note_on_c, 0, 76, 61
1, 249047, Note_on_c, 0, 71, 81
1, 249074, Note_off_c, 0, 76, 59
1, 249085, Note_on_c, 0, 77, 52
1, 249122, Note_off_c, 0, 77, 63
1, 249125, Note_on_c, 0, 78, 71
1, 249143, Note_on_c, 0, 74, 100
1, 249170, Note_on_c, 0, 77, 75
1, 249176, Note_off_c, 0, 78, 65
1, 249181, Control_c, 0, 64, 103
1, 249196, Control_c, 0, 64, 56
1, 249211, Control_c, 0, 64, 0
1, 249218, Note_off_c, 0, 77, 62
1, 249227, Note_on_c, 0, 78, 72
1, 249271, Control_c, 0, 64, 16
1, 249273, Note_on_c, 0, 77, 75
1, 249277, Note_off_c, 0, 78, 65
1, 249286, Control_c, 0, 64, 43
1, 249301, Control_c, 0, 64, 65
1, 249316, Control_c, 0, 64, 127
1, 249334, Note_off_c, 0, 77, 62
1, 249347, Note_on_c, 0, 78, 82
1, 249405, Note_on_c, 0, 77, 73
1, 249405, Note_off_c, 0, 78, 66
1, 249459, Note_off_c, 0, 77, 63
1, 249466, Note_off_c, 0, 74, 58
1, 249477, Note_on_c, 0, 78, 56
1, 249497, Note_off_c, 0, 78, 64
1, 249507, Note_on_c, 0, 77, 74
1, 249543, Note_on_c, 0, 78, 86
1, 249549, Note_off_c, 0, 77, 64
1, 249583, Note_off_c, 0, 71, 32
1, 249593, Note_off_c, 0, 78, 64
1, 249596, Note_off_c, 0, 68, 26
1, 249614, Note_on_c, 0, 77, 73
1, 249624, Note_on_c, 0, 76, 79
1, 249650, Note_off_c, 0, 76, 68
1, 249654, Note_off_c, 0, 77, 0
1, 249676, Note_on_c, 0, 77, 54
1, 249691, Note_on_c, 0, 73, 87
1, 249735, Note_off_c, 0, 77, 62
1, 249757, Note_off_c, 0, 73, 53
1, 249766, Note_on_c, 0, 79, 63
1, 249770, Note_on_c, 0, 80, 43
1, 249786, Note_on_c, 0, 83, 78
1, 249787, Note_off_c, 0, 79, 63
1, 249800, Note_off_c, 0, 80, 55
1, 249813, Note_on_c, 0, 85, 75
1, 249817, Note_on_c, 0, 81, 18
1, 249825, Note_off_c, 0, 61, 53
1, 249828, Note_off_c, 0, 83, 63
1, 249833, Note_off_c, 0, 85, 71
1, 249861, Note_off_c, 0, 81, 51
1, 249877, Note_on_c, 0, 67, 73
1, 249885, Note_on_c, 0, 89, 87
1, 249916, Note_off_c, 0, 67, 65
1, 249945, Note_off_c, 0, 89, 52
1, 249947, Note_on_c, 0, 92, 91
1, 249975, Note_on_c, 0, 95, 71
1, 250007, Note_off_c, 0, 92, 65
1, 250010, Note_on_c, 0, 98, 81
1, 250011, Note_off_c, 0, 95, 66
1, 250064, Note_on_c, 0, 97, 79
1, 250080, Note_off_c, 0, 98, 63
1, 250120, Note_on_c, 0, 95, 81
1, 250133, Note_on_c, 0, 68, 93
1, 250158, Note_off_c, 0, 68, 72
1, 250161, Note_off_c, 0, 97, 63
1, 250171, Note_on_c, 0, 92, 81
1, 250184, Note_off_c, 0, 95, 66
1, 250210, Note_off_c, 0, 92, 64
1, 250218, Note_on_c, 0, 89, 75
1, 250240, Note_off_c, 0, 89, 70
1, 250285, Note_on_c, 0, 85, 77
1, 250335, Note_on_c, 0, 83, 77
1, 250382, Note_off_c, 0, 83, 66
1, 250383, Note_off_c, 0, 85, 63
1, 250384, Note_on_c, 0, 80, 84
1, 250407, Note_off_c, 0, 80, 67
1, 250415, Note_on_c, 0, 77, 77
1, 250435, Note_off_c, 0, 77, 71
1, 250471, Note_on_c, 0, 74, 88
1, 250526, Note_off_c, 0, 74, 63
1, 250528, Note_on_c, 0, 73, 92
1, 250550, Note_off_c, 0, 73, 66
1, 250665, Control_c, 0, 64, 88
1, 250680, Control_c, 0, 64, 49
1, 250681, Note_on_c, 0, 66, 87
1, 250682, Note_on_c, 0, 73, 105
1, 250683, Note_on_c, 0, 70, 88
1, 250694, Control_c, 0, 64, 0
1, 250699, Note_on_c, 0, 78, 75
1, 250706, Note_on_c, 0, 77, 85
1, 250732, Note_off_c, 0, 77, 59
1, 250732, Note_off_c, 0, 78, 56
1, 250753, Control_c, 0, 64, 26
1, 250768, Control_c, 0, 64, 53
1, 250783, Control_c, 0, 64, 114
1, 250788, Note_on_c, 0, 79, 53
1, 250796, Note_on_c, 0, 80, 7
1, 250798, Control_c, 0, 64, 127
1, 250813, Note_off_c, 0, 79, 57
1, 250830, Note_on_c, 0, 78, 69
1, 250831, Note_off_c, 0, 80, 43
1, 250849, Note_off_c, 0, 78, 69
1, 250857, Note_off_c, 0, 66, 59
1, 250870, Note_on_c, 0, 80, 67
1, 250901, Note_on_c, 0, 82, 26
1, 250929, Note_on_c, 0, 78, 78
1, 250940, Note_off_c, 0, 82, 52
1, 250946, Note_off_c, 0, 80, 60
1, 250970, Note_off_c, 0, 78, 67
1, 250979, Note_on_c, 0, 77, 78
1, 250994, Note_on_c, 0, 67, 54
1, 251014, Note_off_c, 0, 73, 62
1, 251022, Note_on_c, 0, 69, 24
1, 251022, Note_on_c, 0, 78, 86
1, 251027, Note_off_c, 0, 77, 64
1, 251059, Note_off_c, 0, 69, 53
1, 251062, Note_off_c, 0, 78, 68
1, 251088, Note_on_c, 0, 65, 77
1, 251092, Note_on_c, 0, 74, 102
1, 251094, Note_on_c, 0, 79, 96
1, 251095, Note_on_c, 0, 71, 91
1, 251098, Note_off_c, 0, 70, 31
1, 251101, Control_c, 0, 64, 67
1, 251116, Control_c, 0, 64, 39
1, 251131, Control_c, 0, 64, 0
1, 251138, Note_off_c, 0, 67, 54
1, 251140, Note_off_c, 0, 79, 65
1, 251146, Control_c, 0, 64, 20
1, 251158, Note_on_c, 0, 81, 84
1, 251161, Control_c, 0, 64, 43
1, 251176, Control_c, 0, 64, 64
1, 251191, Control_c, 0, 64, 127
1, 251219, Note_off_c, 0, 81, 67
1, 251225, Note_on_c, 0, 79, 82
1, 251253, Note_off_c, 0, 65, 66
1, 251277, Note_off_c, 0, 79, 61
1, 251284, Note_off_c, 0, 71, 62
1, 251297, Note_on_c, 0, 81, 73
1, 251332, Note_off_c, 0, 81, 63
1, 251342, Note_on_c, 0, 79, 80
1, 251363, Note_off_c, 0, 74, 61
1, 251379, Note_on_c, 0, 81, 79
1, 251382, Note_off_c, 0, 79, 62
1, 251426, Note_off_c, 0, 81, 65
1, 251437, Note_on_c, 0, 79, 78
1, 251454, Note_on_c, 0, 64, 79
1, 251495, Note_off_c, 0, 79, 62
1, 251498, Note_on_c, 0, 78, 80
1, 251510, Note_on_c, 0, 71, 69
1, 251559, Note_off_c, 0, 78, 64
1, 251563, Note_on_c, 0, 79, 75
1, 251584, Note_on_c, 0, 74, 81
1, 251621, Note_off_c, 0, 79, 64
1, 251673, Control_c, 0, 64, 99
1, 251685, Note_on_c, 0, 77, 106
1, 251688, Control_c, 0, 64, 55
1, 251688, Note_on_c, 0, 80, 93
1, 251702, Control_c, 0, 64, 0
1, 251745, Note_off_c, 0, 80, 62
1, 251746, Note_on_c, 0, 81, 71
1, 251747, Control_c, 0, 64, 31
1, 251762, Control_c, 0, 64, 60
1, 251776, Control_c, 0, 64, 127
1, 251811, Note_on_c, 0, 80, 73
1, 251811, Note_off_c, 0, 81, 64
1, 251855, Note_on_c, 0, 79, 73
1, 251889, Note_off_c, 0, 79, 62
1, 251912, Note_off_c, 0, 80, 63
1, 251927, Note_off_c, 0, 74, 61
1, 251929, Note_on_c, 0, 83, 83
1, 251941, Note_off_c, 0, 71, 61
1, 251966, Note_off_c, 0, 77, 52
1, 251973, Note_off_c, 0, 83, 65
1, 252003, Note_on_c, 0, 86, 65
1, 252021, Note_off_c, 0, 86, 64
1, 252027, Note_on_c, 0, 89, 73
1, 252045, Note_off_c, 0, 89, 68
1, 252051, Note_on_c, 0, 92, 67
1, 252069, Note_off_c, 0, 92, 66
1, 252109, Note_on_c, 0, 95, 81
1, 252115, Note_on_c, 0, 96, 66
1, 252134, Note_off_c, 0, 96, 62
1, 252143, Note_on_c, 0, 98, 77
1, 252150, Note_off_c, 0, 95, 60
1, 252185, Note_on_c, 0, 101, 94
1, 252192, Note_off_c, 0, 98, 66
1, 252219, Note_on_c, 0, 76, 90
1, 252244, Note_on_c, 0, 100, 86
1, 252250, Note_off_c, 0, 101, 67
1, 252290, Note_on_c, 0, 98, 84
1, 252305, Note_off_c, 0, 100, 66
1, 252332, Note_off_c, 0, 98, 65
1, 252348, Note_on_c, 0, 95, 79
1, 252395, Note_off_c, 0, 95, 65
1, 252429, Note_on_c, 0, 70, 80
1, 252434, Note_on_c, 0, 92, 84
1, 252438, Note_off_c, 0, 76, 51
1, 252499, Note_on_c, 0, 88, 68
1, 252511, Note_on_c, 0, 89, 62
1, 252511, Note_off_c, 0, 92, 63
1, 252529, Note_off_c, 0, 89, 63
1, 252551, Note_on_c, 0, 86, 79
1, 252554, Note_off_c, 0, 70, 60
1, 252558, Note_off_c, 0, 88, 65
1, 252572, Note_on_c, 0, 71, 71
1, 252585, Note_off_c, 0, 86, 60
1, 252608, Note_on_c, 0, 83, 64
1, 252631, Note_on_c, 0, 70, 87
1, 252634, Note_off_c, 0, 83, 69
1, 252636, Note_off_c, 0, 71, 67
1, 252668, Note_on_c, 0, 80, 81
1, 252724, Note_off_c, 0, 80, 62
1, 252731, Note_on_c, 0, 73, 86
1, 252741, Note_on_c, 0, 79, 68
1, 252751, Note_on_c, 0, 76, 98
1, 252762, Control_c, 0, 64, 77
1, 252763, Note_off_c, 0, 79, 61
1, 252773, Note_on_c, 0, 80, 73
1, 252776, Control_c, 0, 64, 48
1, 252791, Control_c, 0, 64, 0
1, 252795, Note_off_c, 0, 80, 65
1, 252821, Control_c, 0, 64, 36
1, 252833, Note_on_c, 0, 79, 73
1, 252836, Control_c, 0, 64, 57
1, 252842, Note_off_c, 0, 64, 60
1, 252851, Control_c, 0, 64, 127
1, 252866, Note_on_c, 0, 78, 75
1, 252866, Note_off_c, 0, 79, 62
1, 252888, Note_off_c, 0, 78, 72
1, 252919, Note_on_c, 0, 79, 72
1, 252973, Note_off_c, 0, 79, 61
1, 252974, Note_on_c, 0, 82, 83
1, 253003, Note_on_c, 0, 85, 63
1, 253023, Note_off_c, 0, 82, 67
1, 253027, Note_off_c, 0, 70, 38
1, 253030, Note_off_c, 0, 76, 60
1, 253043, Note_off_c, 0, 85, 66
1, 253060, Note_on_c, 0, 88, 45
1, 253076, Note_on_c, 0, 63, 76
1, 253086, Note_off_c, 0, 88, 59
1, 253102, Note_on_c, 0, 91, 78
1, 253154, Note_on_c, 0, 94, 91
1, 253162, Note_off_c, 0, 91, 55
1, 253174, Note_on_c, 0, 97, 79
1, 253209, Note_off_c, 0, 94, 66
1, 253217, Note_on_c, 0, 100, 83
1, 253219, Note_off_c, 0, 97, 66
1, 253229, Note_on_c, 0, 75, 95
1, 253236, Note_off_c, 0, 73, 62
1, 253273, Note_on_c, 0, 99, 83
1, 253281, Note_off_c, 0, 100, 65
1, 253307, Note_on_c, 0, 98, 57
1, 253319, Note_on_c, 0, 97, 75
1, 253334, Note_off_c, 0, 98, 52
1, 253343, Note_off_c, 0, 99, 53
1, 253370, Note_on_c, 0, 94, 38
1, 253370, Note_off_c, 0, 97, 66
1, 253377, Note_on_c, 0, 93, 59
1, 253394, Note_off_c, 0, 94, 54
1, 253397, Note_on_c, 0, 91, 81
1, 253398, Note_off_c, 0, 93, 60
1, 253420, Note_on_c, 0, 69, 76
1, 253437, Note_off_c, 0, 91, 59
1, 253459, Note_off_c, 0, 75, 59
1, 253480, Note_on_c, 0, 87, 77
1, 253540, Note_on_c, 0, 70, 82
1, 253540, Note_on_c, 0, 85, 78
1, 253552, Note_off_c, 0, 87, 61
1, 253558, Note_off_c, 0, 69, 53
1, 253598, Note_on_c, 0, 82, 74
1, 253602, Note_on_c, 0, 69, 64
1, 253602, Note_off_c, 0, 85, 65
1, 253636, Note_off_c, 0, 82, 62
1, 253660, Note_on_c, 0, 79, 64
1, 253682, Note_off_c, 0, 70, 27
1, 253683, Note_off_c, 0, 79, 66
1, 253688, Note_on_c, 0, 72, 80
1, 253723, Note_on_c, 0, 78, 82
1, 253733, Control_c, 0, 64, 82
1, 253748, Control_c, 0, 64, 52
1, 253763, Control_c, 0, 64, 0
1, 253770, Note_off_c, 0, 78, 64
1, 253773, Note_on_c, 0, 79, 58
1, 253776, Note_on_c, 0, 75, 99
1, 253823, Control_c, 0, 64, 37
1, 253837, Control_c, 0, 64, 59
1, 253846, Note_off_c, 0, 79, 63
1, 253850, Note_on_c, 0, 78, 60
1, 253852, Control_c, 0, 64, 127
1, 253867, Note_off_c, 0, 78, 67
1, 253874, Note_on_c, 0, 77, 71
1, 253877, Note_off_c, 0, 63, 54
1, 253895, Note_off_c, 0, 69, 63
1, 253898, Note_off_c, 0, 72, 62
1, 253921, Note_on_c, 0, 78, 82
1, 253929, Note_off_c, 0, 77, 62
1, 253945, Note_off_c, 0, 78, 68
1, 253987, Note_on_c, 0, 81, 77
1, 254030, Note_off_c, 0, 75, 60
1, 254035, Note_off_c, 0, 81, 59
1, 254045, Note_on_c, 0, 84, 70
1, 254055, Note_on_c, 0, 87, 79
1, 254073, Note_off_c, 0, 84, 66
1, 254088, Poly_aftertouch_c, 0, 74, 127
1, 254097, Note_on_c, 0, 62, 78
1, 254098, Note_off_c, 0, 87, 68
1, 254100, Note_on_c, 0, 90, 72
1, 254117, Note_off_c, 0, 90, 68
1, 254124, Poly_aftertouch_c, 0, 74, 0
1, 254157, Note_on_c, 0, 93, 84
1, 254195, Note_off_c, 0, 93, 62
1, 254198, Note_on_c, 0, 96, 73
1, 254229, Note_on_c, 0, 99, 89
1, 254237, Note_off_c, 0, 96, 65
1, 254246, Note_on_c, 0, 74, 93
1, 254287, Note_off_c, 0, 99, 65
1, 254291, Note_on_c, 0, 65, 29
1, 254294, Note_on_c, 0, 98, 75
1, 254329, Note_off_c, 0, 65, 52
1, 254333, Note_on_c, 0, 96, 90
1, 254346, Note_off_c, 0, 98, 65
1, 254378, Note_off_c, 0, 96, 62
1, 254389, Note_on_c, 0, 93, 81
1, 254422, Note_off_c, 0, 93, 63
1, 254446, Note_on_c, 0, 68, 86
1, 254457, Note_on_c, 0, 90, 89
1, 254466, Note_off_c, 0, 74, 58
1, 254518, Note_on_c, 0, 86, 76
1, 254532, Note_off_c, 0, 90, 65
1, 254551, Note_off_c, 0, 68, 54
1, 254568, Note_off_c, 0, 86, 64
1, 254571, Note_on_c, 0, 84, 75
1, 254571, Note_on_c, 0, 69, 77
1, 254597, Note_off_c, 0, 84, 65
1, 254619, Note_on_c, 0, 81, 71
1, 254621, Note_off_c, 0, 69, 64
1, 254647, Note_on_c, 0, 68, 89
1, 254652, Note_off_c, 0, 81, 64
1, 254691, Note_on_c, 0, 78, 82
1, 254732, Note_on_c, 0, 71, 81
1, 254752, Note_off_c, 0, 78, 62
1, 254759, Note_on_c, 0, 77, 72
1, 254771, Note_on_c, 0, 74, 98
1, 254786, Control_c, 0, 64, 66
1, 254789, Note_off_c, 0, 77, 51
1, 254797, Note_on_c, 0, 78, 68
1, 254800, Control_c, 0, 64, 34
1, 254815, Control_c, 0, 64, 0
1, 254833, Note_off_c, 0, 78, 61
1, 254845, Control_c, 0, 64, 35
1, 254860, Control_c, 0, 64, 57
1, 254869, Note_on_c, 0, 77, 65
1, 254875, Control_c, 0, 64, 127
1, 254890, Note_off_c, 0, 77, 67
1, 254907, Note_off_c, 0, 62, 60
1, 254925, Poly_aftertouch_c, 0, 79, 0
1, 254933, Note_on_c, 0, 77, 85
1, 254991, Note_on_c, 0, 80, 88
1, 254991, Note_off_c, 0, 77, 59
1, 255028, Note_off_c, 0, 68, 57
1, 255035, Note_off_c, 0, 74, 59
1, 255036, Note_off_c, 0, 80, 63
1, 255039, Note_on_c, 0, 83, 64
1, 255051, Note_on_c, 0, 86, 74
1, 255055, Note_off_c, 0, 83, 67
1, 255063, Note_on_c, 0, 61, 83
1, 255071, Note_off_c, 0, 86, 68
1, 255118, Note_on_c, 0, 89, 84
1, 255170, Note_on_c, 0, 92, 88
1, 255182, Note_off_c, 0, 89, 64
1, 255188, Note_on_c, 0, 95, 73
1, 255215, Note_on_c, 0, 98, 87
1, 255220, Note_off_c, 0, 92, 67
1, 255220, Note_off_c, 0, 95, 68
1, 255229, Note_on_c, 0, 73, 96
1, 255248, Note_off_c, 0, 71, 52
1, 255283, Note_on_c, 0, 97, 72
1, 255305, Note_off_c, 0, 98, 63
1, 255340, Note_on_c, 0, 95, 64
1, 255350, Note_on_c, 0, 94, 60
1, 255363, Note_on_c, 0, 92, 77
1, 255368, Note_off_c, 0, 95, 67
1, 255370, Note_off_c, 0, 97, 64
1, 255398, Note_off_c, 0, 94, 69
1, 255413, Note_off_c, 0, 92, 62
1, 255416, Note_on_c, 0, 89, 79
1, 255424, Note_on_c, 0, 67, 78
1, 255444, Note_off_c, 0, 89, 67
1, 255448, Note_off_c, 0, 73, 59
1, 255503, Note_on_c, 0, 85, 71
1, 255540, Note_on_c, 0, 68, 76
1, 255549, Control_c, 0, 67, 14
1, 255551, Note_on_c, 0, 83, 75
1, 255564, Control_c, 0, 67, 20
1, 255578, Control_c, 0, 67, 23
1, 255593, Control_c, 0, 67, 27
1, 255603, Note_off_c, 0, 67, 0
1, 255603, Note_on_c, 0, 67, 50
1, 255608, Control_c, 0, 67, 35
1, 255614, Note_off_c, 0, 68, 57
1, 255617, Note_off_c, 0, 83, 64
1, 255622, Note_on_c, 0, 80, 78
1, 255623, Control_c, 0, 67, 45
1, 255638, Control_c, 0, 67, 58
1, 255647, Note_off_c, 0, 85, 32
1, 255653, Control_c, 0, 67, 70
1, 255667, Control_c, 0, 67, 78
1, 255680, Note_off_c, 0, 80, 62
1, 255682, Control_c, 0, 67, 85
1, 255686, Note_on_c, 0, 77, 70
1, 255697, Control_c, 0, 67, 91
1, 255698, Note_on_c, 0, 70, 84
1, 255712, Control_c, 0, 67, 97
1, 255727, Control_c, 0, 67, 102
1, 255735, Note_off_c, 0, 77, 62
1, 255741, Control_c, 0, 67, 106
1, 255756, Control_c, 0, 67, 109
1, 255771, Control_c, 0, 67, 113
1, 255786, Control_c, 0, 67, 116
1, 255801, Control_c, 0, 67, 117
1, 255802, Note_on_c, 0, 76, 72
1, 255803, Note_on_c, 0, 73, 98
1, 255815, Control_c, 0, 67, 118
1, 255830, Control_c, 0, 64, 66
1, 255830, Control_c, 0, 67, 119
1, 255836, Note_off_c, 0, 76, 59
1, 255845, Control_c, 0, 64, 40
1, 255860, Control_c, 0, 64, 0
1, 255871, Note_on_c, 0, 77, 59
1, 255904, Control_c, 0, 67, 119
1, 255910, Note_off_c, 0, 77, 61
1, 255912, Note_off_c, 0, 61, 52
1, 255917, Note_on_c, 0, 76, 62
1, 255919, Control_c, 0, 64, 37
1, 255919, Control_c, 0, 67, 118
1, 255933, Control_c, 0, 64, 58
1, 255933, Control_c, 0, 67, 117
1, 255948, Control_c, 0, 64, 127
1, 255948, Control_c, 0, 67, 116
1, 255952, Note_off_c, 0, 70, 61
1, 255953, Note_off_c, 0, 67, 41
1, 255961, Note_off_c, 0, 76, 64
1, 255971, Note_on_c, 0, 75, 67
1, 255978, Control_c, 0, 67, 115
1, 255993, Control_c, 0, 67, 114
1, 255996, Note_off_c, 0, 75, 65
1, 256008, Control_c, 0, 67, 112
1, 256023, Control_c, 0, 67, 111
1, 256029, Note_on_c, 0, 76, 64
1, 256038, Control_c, 0, 67, 110
1, 256052, Control_c, 0, 67, 109
1, 256067, Control_c, 0, 67, 108
1, 256072, Note_on_c, 0, 63, 25
1, 256072, Note_off_c, 0, 76, 57
1, 256082, Control_c, 0, 67, 107
1, 256095, Note_on_c, 0, 79, 62
1, 256097, Control_c, 0, 67, 106
1, 256107, Note_off_c, 0, 73, 62
1, 256112, Control_c, 0, 67, 105
1, 256122, Note_off_c, 0, 63, 44
1, 256135, Control_c, 0, 67, 101
1, 256136, Note_on_c, 0, 82, 73
1, 256145, Note_off_c, 0, 79, 51
1, 256150, Control_c, 0, 67, 92
1, 256160, Note_on_c, 0, 60, 74
1, 256164, Control_c, 0, 67, 80
1, 256168, Note_on_c, 0, 85, 73
1, 256179, Control_c, 0, 67, 68
1, 256180, Note_off_c, 0, 82, 65
1, 256189, Note_off_c, 0, 85, 70
1, 256194, Control_c, 0, 67, 55
1, 256209, Control_c, 0, 67, 42
1, 256224, Control_c, 0, 67, 32
1, 256235, Note_on_c, 0, 88, 77
1, 256238, Control_c, 0, 67, 26
1, 256253, Control_c, 0, 67, 22
1, 256269, Control_c, 0, 67, 20
1, 256279, Note_on_c, 0, 91, 83
1, 256279, Note_off_c, 0, 88, 66
1, 256284, Control_c, 0, 67, 18
1, 256298, Note_on_c, 0, 94, 84
1, 256299, Control_c, 0, 67, 15
1, 256313, Control_c, 0, 67, 13
1, 256328, Control_c, 0, 67, 10
1, 256333, Note_off_c, 0, 91, 60
1, 256335, Note_on_c, 0, 97, 88
1, 256342, Note_on_c, 0, 72, 72
1, 256344, Note_off_c, 0, 94, 67
1, 256367, Note_off_c, 0, 72, 64
1, 256379, Note_off_c, 0, 97, 67
1, 256387, Control_c, 0, 67, 11
1, 256391, Note_on_c, 0, 96, 66
1, 256402, Control_c, 0, 67, 11
1, 256417, Control_c, 0, 67, 12
1, 256425, Poly_aftertouch_c, 0, 71, 127
1, 256429, Note_on_c, 0, 94, 69
1, 256432, Control_c, 0, 67, 13
1, 256446, Control_c, 0, 67, 15
1, 256455, Poly_aftertouch_c, 0, 71, 0
1, 256461, Control_c, 0, 67, 19
1, 256468, Note_off_c, 0, 96, 63
1, 256471, Note_on_c, 0, 91, 74
1, 256476, Control_c, 0, 67, 22
1, 256487, Note_off_c, 0, 94, 65
1, 256491, Control_c, 0, 67, 26
1, 256506, Control_c, 0, 67, 29
1, 256506, Note_off_c, 0, 91, 59
1, 256515, Note_on_c, 0, 88, 77
1, 256522, Note_on_c, 0, 66, 65
1, 256535, Control_c, 0, 67, 29
1, 256538, Note_off_c, 0, 88, 71
1, 256542, Note_off_c, 0, 60, 38
1, 256542, Note_off_c, 0, 66, 63
1, 256550, Control_c, 0, 67, 30
1, 256565, Control_c, 0, 67, 30
1, 256580, Control_c, 0, 67, 31
1, 256594, Note_on_c, 0, 84, 72
1, 256595, Control_c, 0, 67, 31
1, 256610, Control_c, 0, 67, 32
1, 256639, Control_c, 0, 67, 33
1, 256669, Note_on_c, 0, 82, 70
1, 256678, Note_off_c, 0, 84, 60
1, 256698, Control_c, 0, 67, 34
1, 256712, Note_on_c, 0, 67, 61
1, 256713, Control_c, 0, 67, 34
1, 256728, Control_c, 0, 67, 35
1, 256729, Note_on_c, 0, 79, 62
1, 256732, Note_off_c, 0, 67, 67
1, 256739, Note_off_c, 0, 82, 63
1, 256757, Control_c, 0, 67, 35
1, 256759, Note_off_c, 0, 79, 65
1, 256772, Control_c, 0, 67, 36
1, 256783, Note_on_c, 0, 76, 66
1, 256787, Control_c, 0, 67, 36
1, 256817, Control_c, 0, 64, 69
1, 256817, Control_c, 0, 67, 35
1, 256831, Note_on_c, 0, 77, 73
1, 256831, Control_c, 0, 64, 50
1, 256831, Control_c, 0, 67, 33
1, 256841, Note_off_c, 0, 76, 59
1, 256846, Control_c, 0, 64, 38
1, 256846, Control_c, 0, 67, 30
1, 256861, Control_c, 0, 64, 43
1, 256861, Control_c, 0, 67, 28
1, 256871, Note_off_c, 0, 77, 56
1, 256872, Note_on_c, 0, 76, 55
1, 256876, Control_c, 0, 64, 53
1, 256876, Control_c, 0, 67, 23
1, 256898, Control_c, 0, 64, 65
1, 256898, Control_c, 0, 67, 15
1, 256914, Control_c, 0, 64, 127
1, 256914, Control_c, 0, 67, 0
1, 256927, Note_on_c, 0, 75, 72
1, 256937, Note_off_c, 0, 76, 65
1, 256959, Note_off_c, 0, 75, 62
1, 256982, Note_on_c, 0, 76, 71
1, 257038, Note_off_c, 0, 76, 64
1, 257042, Note_on_c, 0, 79, 86
1, 257063, Note_on_c, 0, 82, 74
1, 257093, Note_off_c, 0, 79, 63
1, 257123, Note_on_c, 0, 85, 65
1, 257123, Note_off_c, 0, 82, 66
1, 257139, Note_off_c, 0, 85, 66
1, 257170, Note_on_c, 0, 88, 75
1, 257179, Note_on_c, 0, 89, 72
1, 257196, Note_off_c, 0, 89, 67
1, 257221, Note_on_c, 0, 91, 87
1, 257225, Note_off_c, 0, 88, 60
1, 257236, Note_on_c, 0, 94, 90
1, 257263, Note_off_c, 0, 91, 62
1, 257277, Note_on_c, 0, 97, 83
1, 257284, Note_off_c, 0, 94, 66
1, 257318, Note_off_c, 0, 97, 68
1, 257339, Note_on_c, 0, 96, 78
1, 257358, Control_c, 0, 67, 17
1, 257373, Control_c, 0, 67, 34
1, 257384, Note_on_c, 0, 94, 65
1, 257388, Control_c, 0, 67, 62
1, 257403, Note_on_c, 0, 91, 83
1, 257403, Note_off_c, 0, 96, 65
1, 257403, Control_c, 0, 67, 95
1, 257418, Note_off_c, 0, 94, 66
1, 257418, Control_c, 0, 67, 124
1, 257433, Control_c, 0, 67, 127
1, 257438, Note_off_c, 0, 91, 57
1, 257442, Note_on_c, 0, 88, 77
1, 257462, Note_off_c, 0, 88, 73
1, 257509, Note_on_c, 0, 84, 78
1, 257565, Note_off_c, 0, 84, 63
1, 257573, Note_on_c, 0, 82, 69
1, 257607, Note_off_c, 0, 82, 63
1, 257611, Note_on_c, 0, 79, 64
1, 257638, Note_off_c, 0, 79, 64
1, 257672, Note_on_c, 0, 76, 64
1, 257704, Note_off_c, 0, 76, 62
1, 257734, Note_on_c, 0, 68, 85
1, 257737, Control_c, 0, 64, 63
1, 257743, Note_on_c, 0, 64, 61
1, 257746, Note_on_c, 0, 58, 70
1, 257747, Note_on_c, 0, 61, 68
1, 257752, Control_c, 0, 64, 16
1, 257752, Note_on_c, 0, 73, 68
1, 257766, Control_c, 0, 64, 0
1, 257794, Note_off_c, 0, 73, 63
1, 257804, Note_on_c, 0, 75, 71
1, 257826, Control_c, 0, 64, 23
1, 257841, Control_c, 0, 64, 46
1, 257856, Control_c, 0, 64, 66
1, 257865, Note_off_c, 0, 75, 58
1, 257871, Note_on_c, 0, 73, 50
1, 257871, Control_c, 0, 64, 127
1, 257890, Note_off_c, 0, 68, 58
1, 257895, Note_off_c, 0, 73, 62
1, 257898, Note_on_c, 0, 72, 74
1, 257903, Note_off_c, 0, 64, 60
1, 257914, Note_off_c, 0, 58, 62
1, 257930, Note_off_c, 0, 61, 63
1, 257950, Note_off_c, 0, 72, 62
1, 257964, Note_on_c, 0, 73, 60
1, 257986, Note_off_c, 0, 73, 65
1, 258015, Note_on_c, 0, 76, 68
1, 258044, Note_off_c, 0, 76, 57
1, 258068, Note_on_c, 0, 79, 70
1, 258087, Note_on_c, 0, 51, 72
1, 258104, Note_off_c, 0, 79, 51
1, 258108, Note_on_c, 0, 82, 68
1, 258117, Note_off_c, 0, 51, 67
1, 258130, Note_off_c, 0, 82, 69
1, 258136, Note_on_c, 0, 85, 58
1, 258136, Control_c, 0, 67, 120
1, 258151, Control_c, 0, 67, 101
1, 258156, Note_off_c, 0, 85, 61
1, 258166, Control_c, 0, 67, 74
1, 258181, Control_c, 0, 67, 49
1, 258185, Note_on_c, 0, 88, 86
1, 258196, Control_c, 0, 67, 24
1, 258211, Control_c, 0, 67, 0
1, 258230, Note_on_c, 0, 91, 82
1, 258237, Note_off_c, 0, 88, 63
1, 258255, Note_on_c, 0, 96, 96
1, 258272, Note_off_c, 0, 91, 62
1, 258276, Note_on_c, 0, 67, 75
1, 258318, Note_off_c, 0, 67, 59
1, 258321, Note_on_c, 0, 94, 87
1, 258338, Note_off_c, 0, 96, 60
1, 258371, Note_on_c, 0, 91, 79
1, 258395, Note_off_c, 0, 94, 66
1, 258416, Note_off_c, 0, 91, 55
1, 258435, Note_on_c, 0, 88, 76
1, 258480, Note_off_c, 0, 88, 65
1, 258499, Note_on_c, 0, 60, 52
1, 258520, Note_on_c, 0, 85, 73
1, 258524, Note_off_c, 0, 60, 60
1, 258585, Note_on_c, 0, 82, 72
1, 258589, Control_c, 0, 67, 13
1, 258598, Note_off_c, 0, 85, 57
1, 258604, Control_c, 0, 67, 22
1, 258619, Control_c, 0, 67, 35
1, 258634, Control_c, 0, 67, 55
1, 258649, Note_on_c, 0, 79, 65
1, 258649, Control_c, 0, 67, 79
1, 258652, Note_off_c, 0, 82, 64
1, 258664, Control_c, 0, 67, 103
1, 258677, Note_off_c, 0, 79, 65
1, 258679, Control_c, 0, 67, 127
1, 258711, Note_on_c, 0, 76, 65
1, 258726, Note_on_c, 0, 61, 85
1, 258737, Note_off_c, 0, 76, 69
1, 258741, Note_off_c, 0, 61, 70
1, 258791, Note_on_c, 0, 73, 68
1, 258823, Note_off_c, 0, 73, 66
1, 258867, Note_on_c, 0, 70, 62
1, 258916, Note_off_c, 0, 70, 56
1, 258917, Note_on_c, 0, 72, 69
1, 258974, Control_c, 0, 64, 69
1, 258983, Note_off_c, 0, 72, 60
1, 258989, Control_c, 0, 64, 42
1, 258992, Note_on_c, 0, 70, 63
1, 259004, Control_c, 0, 64, 0
1, 259027, Note_off_c, 0, 70, 64
1, 259030, Note_on_c, 0, 69, 72
1, 259063, Control_c, 0, 64, 34
1, 259078, Control_c, 0, 64, 56
1, 259093, Control_c, 0, 64, 127
1, 259093, Note_on_c, 0, 70, 63
1, 259099, Note_off_c, 0, 69, 63
1, 259118, Note_on_c, 0, 73, 78
1, 259146, Note_off_c, 0, 70, 61
1, 259159, Control_c, 0, 64, 90
1, 259161, Note_off_c, 0, 73, 61
1, 259174, Control_c, 0, 64, 63
1, 259189, Control_c, 0, 64, 49
1, 259198, Note_on_c, 0, 76, 80
1, 259204, Control_c, 0, 64, 42
1, 259219, Control_c, 0, 64, 52
1, 259233, Control_c, 0, 64, 66
1, 259233, Control_c, 0, 67, 117
1, 259245, Note_off_c, 0, 76, 62
1, 259248, Control_c, 0, 64, 127
1, 259248, Control_c, 0, 67, 101
1, 259257, Note_on_c, 0, 79, 79
1, 259263, Control_c, 0, 67, 82
1, 259278, Control_c, 0, 67, 57
1, 259293, Control_c, 0, 67, 36
1, 259299, Note_on_c, 0, 82, 74
1, 259304, Note_off_c, 0, 79, 62
1, 259308, Control_c, 0, 67, 18
1, 259323, Control_c, 0, 67, 0
1, 259324, Note_on_c, 0, 85, 77
1, 259332, Note_off_c, 0, 82, 63
1, 259344, Note_off_c, 0, 85, 71
1, 259385, Note_on_c, 0, 88, 83
1, 259415, Note_off_c, 0, 88, 57
1, 259448, Note_on_c, 0, 92, 79
1, 259493, Note_on_c, 0, 91, 77
1, 259498, Note_off_c, 0, 92, 66
1, 259528, Note_off_c, 0, 91, 59
1, 259561, Note_on_c, 0, 88, 70
1, 259591, Note_off_c, 0, 88, 65
1, 259645, Note_on_c, 0, 86, 54
1, 259677, Note_on_c, 0, 82, 74
1, 259685, Note_off_c, 0, 86, 45
1, 259729, Note_off_c, 0, 82, 64
1, 259741, Note_on_c, 0, 79, 50
1, 259753, Control_c, 0, 67, 9
1, 259765, Note_off_c, 0, 79, 60
1, 259768, Control_c, 0, 67, 11
1, 259782, Control_c, 0, 67, 13
1, 259797, Control_c, 0, 67, 14
1, 259811, Note_on_c, 0, 76, 64
1, 259812, Control_c, 0, 67, 15
1, 259827, Note_off_c, 0, 76, 69
1, 259841, Control_c, 0, 67, 15
1, 259884, Note_on_c, 0, 73, 60
1, 259908, Control_c, 0, 67, 16
1, 259917, Note_off_c, 0, 73, 66
1, 259923, Control_c, 0, 67, 16
1, 259927, Note_on_c, 0, 70, 67
1, 259953, Control_c, 0, 67, 17
1, 259956, Note_off_c, 0, 70, 65
1, 259982, Control_c, 0, 67, 18
1, 259997, Control_c, 0, 67, 20
1, 260012, Control_c, 0, 64, 105
1, 260012, Control_c, 0, 67, 22
1, 260017, Note_on_c, 0, 65, 44
1, 260026, Note_on_c, 0, 67, 38
1, 260027, Control_c, 0, 64, 57
1, 260027, Control_c, 0, 67, 25
1, 260041, Control_c, 0, 64, 0
1, 260041, Control_c, 0, 67, 27
1, 260044, Note_off_c, 0, 65, 58
1, 260050, Note_on_c, 0, 68, 74
1, 260056, Note_off_c, 0, 67, 52
1, 260056, Control_c, 0, 67, 28
1, 260071, Control_c, 0, 67, 30
1, 260086, Control_c, 0, 67, 33
1, 260101, Control_c, 0, 64, 26
1, 260101, Control_c, 0, 67, 35
1, 260108, Note_off_c, 0, 68, 61
1, 260117, Control_c, 0, 64, 48
1, 260117, Control_c, 0, 67, 36
1, 260131, Control_c, 0, 64, 69
1, 260131, Control_c, 0, 67, 39
1, 260140, Note_on_c, 0, 67, 48
1, 260146, Control_c, 0, 64, 127
1, 260146, Control_c, 0, 67, 40
1, 260152, Note_on_c, 0, 66, 78
1, 260161, Control_c, 0, 67, 40
1, 260169, Note_off_c, 0, 66, 67
1, 260191, Control_c, 0, 67, 41
1, 260200, Note_off_c, 0, 67, 0
1, 260214, Note_on_c, 0, 67, 49
1, 260220, Control_c, 0, 64, 71
1, 260235, Control_c, 0, 64, 56
1, 260250, Control_c, 0, 64, 47
1, 260265, Control_c, 0, 64, 51
1, 260273, Note_off_c, 0, 67, 65
1, 260279, Control_c, 0, 64, 64
1, 260291, Note_on_c, 0, 70, 79
1, 260294, Control_c, 0, 64, 127
1, 260294, Control_c, 0, 67, 40
1, 260309, Control_c, 0, 67, 39
1, 260324, Control_c, 0, 67, 38
1, 260327, Note_on_c, 0, 73, 66
1, 260330, Note_off_c, 0, 70, 62
1, 260339, Control_c, 0, 67, 37
1, 260354, Control_c, 0, 67, 35
1, 260356, Note_off_c, 0, 73, 68
1, 260369, Control_c, 0, 67, 34
1, 260384, Control_c, 0, 67, 31
1, 260399, Control_c, 0, 67, 30
1, 260413, Control_c, 0, 67, 29
1, 260417, Poly_aftertouch_c, 0, 76, 127
1, 260425, Note_on_c, 0, 79, 71
1, 260428, Control_c, 0, 67, 28
1, 260443, Poly_aftertouch_c, 0, 76, 0
1, 260443, Control_c, 0, 67, 27
1, 260457, Control_c, 0, 67, 26
1, 260466, Note_off_c, 0, 79, 57
1, 260472, Control_c, 0, 67, 24
1, 260474, Note_on_c, 0, 82, 76
1, 260487, Control_c, 0, 67, 15
1, 260492, Note_on_c, 0, 85, 70
1, 260502, Control_c, 0, 67, 0
1, 260518, Note_off_c, 0, 85, 68
1, 260523, Note_off_c, 0, 82, 61
1, 260524, Note_on_c, 0, 90, 78
1, 260555, Note_off_c, 0, 90, 59
1, 260567, Note_on_c, 0, 89, 53
1, 260577, Note_on_c, 0, 88, 67
1, 260591, Note_off_c, 0, 89, 60
1, 260620, Note_on_c, 0, 85, 65
1, 260655, Note_off_c, 0, 88, 63
1, 260665, Note_on_c, 0, 82, 71
1, 260685, Note_off_c, 0, 85, 63
1, 260692, Note_off_c, 0, 82, 68
1, 260701, Note_on_c, 0, 79, 73
1, 260724, Note_off_c, 0, 79, 68
1, 260761, Control_c, 0, 67, 11
1, 260776, Control_c, 0, 67, 16
1, 260780, Note_on_c, 0, 76, 71
1, 260791, Control_c, 0, 67, 25
1, 260805, Control_c, 0, 67, 33
1, 260820, Control_c, 0, 67, 42
1, 260835, Control_c, 0, 67, 51
1, 260841, Note_off_c, 0, 76, 65
1, 260847, Note_on_c, 0, 73, 61
1, 260849, Control_c, 0, 67, 59
1, 260864, Control_c, 0, 67, 66
1, 260879, Control_c, 0, 67, 74
1, 260890, Note_off_c, 0, 73, 59
1, 260894, Control_c, 0, 67, 81
1, 260899, Note_on_c, 0, 70, 58
1, 260910, Control_c, 0, 67, 88
1, 260925, Control_c, 0, 67, 94
1, 260932, Note_off_c, 0, 70, 66
1, 260940, Control_c, 0, 67, 99
1, 260947, Note_on_c, 0, 67, 66
1, 260954, Control_c, 0, 67, 103
1, 260969, Control_c, 0, 67, 107
1, 260984, Control_c, 0, 67, 111
1, 260995, Note_off_c, 0, 67, 64
1, 260999, Control_c, 0, 67, 117
1, 261014, Control_c, 0, 67, 126
1, 261028, Note_on_c, 0, 64, 80
1, 261028, Control_c, 0, 67, 127
1, 261043, Control_c, 0, 64, 82
1, 261058, Control_c, 0, 64, 50
1, 261068, Note_off_c, 0, 64, 55
1, 261073, Control_c, 0, 64, 0
1, 261097, Note_on_c, 0, 66, 69
1, 261150, Note_off_c, 0, 66, 62
1, 261163, Note_on_c, 0, 64, 35
1, 261192, Control_c, 0, 64, 13
1, 261192, Note_off_c, 0, 64, 56
1, 261196, Note_on_c, 0, 63, 68
1, 261206, Control_c, 0, 64, 32
1, 261221, Control_c, 0, 64, 38
1, 261233, Note_off_c, 0, 63, 62
1, 261236, Control_c, 0, 64, 34
1, 261251, Control_c, 0, 64, 27
1, 261266, Control_c, 0, 64, 29
1, 261269, Note_on_c, 0, 64, 53
1, 261280, Control_c, 0, 64, 39
1, 261295, Control_c, 0, 64, 54
1, 261296, Note_off_c, 0, 64, 55
1, 261310, Control_c, 0, 64, 73
1, 261325, Note_on_c, 0, 67, 72
1, 261325, Control_c, 0, 64, 127
1, 261383, Note_off_c, 0, 67, 61
1, 261388, Note_on_c, 0, 70, 60
1, 261429, Note_on_c, 0, 73, 58
1, 261435, Note_off_c, 0, 70, 62
1, 261449, Note_off_c, 0, 73, 64
1, 261451, Control_c, 0, 64, 90
1, 261466, Control_c, 0, 64, 88
1, 261480, Control_c, 0, 64, 94
1, 261494, Note_on_c, 0, 76, 67
1, 261495, Control_c, 0, 64, 114
1, 261510, Control_c, 0, 64, 127
1, 261528, Note_off_c, 0, 76, 56
1, 261567, Note_on_c, 0, 79, 65
1, 261627, Note_off_c, 0, 79, 58
1, 261632, Note_on_c, 0, 82, 66
1, 261681, Note_on_c, 0, 87, 68
1, 261686, Note_off_c, 0, 82, 64
1, 261740, Note_off_c, 0, 87, 59
1, 261763, Note_on_c, 0, 85, 62
1, 261809, Note_off_c, 0, 85, 52
1, 261812, Note_on_c, 0, 82, 59
1, 261864, Note_off_c, 0, 82, 57
1, 261873, Note_on_c, 0, 79, 55
1, 261898, Note_off_c, 0, 79, 62
1, 261948, Note_on_c, 0, 76, 57
1, 261985, Note_off_c, 0, 76, 61
1, 262052, Note_on_c, 0, 73, 61
1, 262143, Note_off_c, 0, 73, 54
1, 262148, Note_on_c, 0, 70, 61
1, 262208, Note_off_c, 0, 70, 60
1, 262219, Note_on_c, 0, 67, 59
1, 262241, Note_off_c, 0, 67, 63
1, 262289, Note_on_c, 0, 64, 60
1, 262333, Control_c, 0, 64, 108
1, 262337, Note_off_c, 0, 64, 45
1, 262348, Control_c, 0, 64, 63
1, 262348, Note_on_c, 0, 63, 79
1, 262363, Control_c, 0, 64, 25
1, 262377, Control_c, 0, 64, 0
1, 262407, Note_off_c, 0, 63, 60
1, 262418, Note_on_c, 0, 65, 62
1, 262466, Control_c, 0, 64, 12
1, 262473, Note_on_c, 0, 63, 53
1, 262473, Note_off_c, 0, 65, 59
1, 262481, Control_c, 0, 64, 32
1, 262496, Control_c, 0, 64, 49
1, 262512, Note_off_c, 0, 63, 64
1, 262512, Control_c, 0, 64, 66
1, 262522, Note_on_c, 0, 62, 76
1, 262526, Control_c, 0, 64, 88
1, 262541, Control_c, 0, 64, 71
1, 262556, Control_c, 0, 64, 47
1, 262571, Note_off_c, 0, 62, 60
1, 262571, Control_c, 0, 64, 14
1, 262576, Note_on_c, 0, 63, 65
1, 262586, Control_c, 0, 64, 20
1, 262600, Control_c, 0, 64, 42
1, 262602, Note_off_c, 0, 63, 67
1, 262615, Control_c, 0, 64, 64
1, 262630, Control_c, 0, 64, 127
1, 262652, Note_on_c, 0, 67, 61
1, 262683, Note_off_c, 0, 67, 53
1, 262712, Note_on_c, 0, 70, 74
1, 262718, Control_c, 0, 64, 98
1, 262733, Control_c, 0, 64, 69
1, 262748, Control_c, 0, 64, 67
1, 262754, Poly_aftertouch_c, 0, 69, 0
1, 262757, Note_on_c, 0, 73, 68
1, 262763, Control_c, 0, 64, 80
1, 262772, Note_off_c, 0, 70, 61
1, 262778, Control_c, 0, 64, 127
1, 262796, Note_off_c, 0, 73, 62
1, 262800, Note_on_c, 0, 75, 52
1, 262825, Note_off_c, 0, 75, 56
1, 262891, Note_on_c, 0, 79, 38
1, 262904, Control_c, 0, 67, 122
1, 262919, Control_c, 0, 67, 118
1, 262921, Note_off_c, 0, 79, 53
1, 262926, Note_on_c, 0, 82, 69
1, 262933, Control_c, 0, 67, 112
1, 262938, Poly_aftertouch_c, 0, 77, 127
1, 262948, Control_c, 0, 67, 103
1, 262954, Note_off_c, 0, 82, 67
1, 262958, Note_on_c, 0, 85, 62
1, 262961, Poly_aftertouch_c, 0, 77, 0
1, 262963, Control_c, 0, 67, 89
1, 262975, Note_off_c, 0, 85, 67
1, 262978, Control_c, 0, 67, 70
1, 262993, Control_c, 0, 67, 50
1, 263008, Control_c, 0, 67, 27
1, 263019, Note_on_c, 0, 86, 72
1, 263023, Control_c, 0, 67, 8
1, 263038, Control_c, 0, 67, 0
1, 263055, Note_off_c, 0, 86, 58
1, 263055, Note_on_c, 0, 87, 83
1, 263085, Note_off_c, 0, 87, 65
1, 263112, Note_on_c, 0, 96, 84
1, 263174, Note_on_c, 0, 94, 80
1, 263201, Note_off_c, 0, 96, 63
1, 263225, Note_off_c, 0, 94, 68
1, 263233, Note_on_c, 0, 91, 78
1, 263263, Note_off_c, 0, 91, 57
1, 263324, Note_on_c, 0, 87, 74
1, 263384, Note_on_c, 0, 85, 70
1, 263392, Note_off_c, 0, 87, 60
1, 263436, Note_on_c, 0, 82, 72
1, 263440, Note_off_c, 0, 85, 64
1, 263454, Control_c, 0, 67, 8
1, 263466, Note_off_c, 0, 82, 64
1, 263469, Control_c, 0, 67, 10
1, 263483, Control_c, 0, 67, 13
1, 263492, Note_on_c, 0, 79, 63
1, 263498, Control_c, 0, 67, 15
1, 263513, Control_c, 0, 67, 17
1, 263517, Note_off_c, 0, 79, 65
1, 263528, Control_c, 0, 67, 19
1, 263543, Control_c, 0, 67, 19
1, 263557, Control_c, 0, 67, 20
1, 263558, Note_on_c, 0, 75, 73
1, 263587, Control_c, 0, 67, 20
1, 263602, Control_c, 0, 67, 21
1, 263639, Control_c, 0, 67, 21
1, 263640, Note_on_c, 0, 73, 66
1, 263641, Note_off_c, 0, 75, 58
1, 263679, Note_on_c, 0, 70, 70
1, 263683, Note_off_c, 0, 73, 63
1, 263711, Note_off_c, 0, 70, 64
1, 263730, Note_on_c, 0, 67, 75
1, 263756, Control_c, 0, 67, 21
1, 263761, Note_off_c, 0, 67, 65
1, 263771, Control_c, 0, 67, 20
1, 263786, Control_c, 0, 67, 20
1, 263792, Note_on_c, 0, 64, 86
1, 263800, Control_c, 0, 64, 59
1, 263815, Control_c, 0, 64, 0
1, 263830, Control_c, 0, 67, 19
1, 263849, Note_off_c, 0, 64, 50
1, 263868, Note_on_c, 0, 66, 76
1, 263904, Control_c, 0, 64, 20
1, 263904, Control_c, 0, 67, 19
1, 263912, Note_on_c, 0, 64, 67
1, 263919, Control_c, 0, 64, 40
1, 263934, Control_c, 0, 64, 59
1, 263934, Control_c, 0, 67, 18
1, 263945, Note_off_c, 0, 66, 56
1, 263949, Control_c, 0, 64, 102
1, 263949, Control_c, 0, 67, 18
1, 263964, Control_c, 0, 64, 127
1, 263964, Control_c, 0, 67, 16
1, 263966, Note_on_c, 0, 63, 75
1, 263970, Note_off_c, 0, 64, 64
1, 263979, Control_c, 0, 64, 73
1, 263979, Control_c, 0, 67, 15
1, 263992, Note_off_c, 0, 63, 67
1, 263994, Control_c, 0, 64, 50
1, 263994, Control_c, 0, 67, 14
1, 264008, Control_c, 0, 64, 40
1, 264008, Control_c, 0, 67, 12
1, 264018, Note_on_c, 0, 64, 64
1, 264023, Control_c, 0, 64, 51
1, 264023, Control_c, 0, 67, 10
1, 264038, Control_c, 0, 64, 72
1, 264038, Control_c, 0, 67, 8
1, 264053, Control_c, 0, 64, 127
1, 264053, Control_c, 0, 67, 0
1, 264078, Note_off_c, 0, 64, 61
1, 264080, Note_on_c, 0, 67, 79
1, 264122, Note_on_c, 0, 70, 75
1, 264126, Note_off_c, 0, 67, 66
1, 264162, Note_on_c, 0, 73, 70
1, 264165, Note_off_c, 0, 70, 66
1, 264178, Note_off_c, 0, 73, 69
1, 264216, Note_on_c, 0, 76, 83
1, 264275, Note_off_c, 0, 76, 65
1, 264277, Note_on_c, 0, 79, 86
1, 264314, Note_on_c, 0, 82, 80
1, 264318, Note_off_c, 0, 79, 64
1, 264352, Note_on_c, 0, 85, 64
1, 264352, Note_off_c, 0, 82, 65
1, 264378, Note_off_c, 0, 85, 62
1, 264407, Note_on_c, 0, 88, 85
1, 264467, Note_on_c, 0, 91, 91
1, 264471, Note_off_c, 0, 88, 66
1, 264506, Note_on_c, 0, 94, 84
1, 264554, Note_on_c, 0, 99, 82
1, 264557, Note_off_c, 0, 94, 62
1, 264578, Note_off_c, 0, 91, 49
1, 264630, Note_off_c, 0, 99, 65
1, 264643, Note_on_c, 0, 97, 74
1, 264672, Note_on_c, 0, 94, 76
1, 264703, Note_off_c, 0, 97, 59
1, 264733, Note_off_c, 0, 94, 64
1, 264735, Note_on_c, 0, 91, 61
1, 264747, Note_on_c, 0, 89, 28
1, 264754, Note_off_c, 0, 91, 60
1, 264787, Note_off_c, 0, 89, 52
1, 264791, Note_on_c, 0, 88, 67
1, 264812, Note_off_c, 0, 88, 69
1, 264867, Note_on_c, 0, 85, 63
1, 264890, Note_off_c, 0, 85, 57
1, 264915, Note_on_c, 0, 82, 62
1, 264974, Note_on_c, 0, 79, 64
1, 264977, Note_off_c, 0, 82, 61
1, 264999, Note_off_c, 0, 79, 65
1, 265033, Note_on_c, 0, 76, 66
1, 265061, Note_off_c, 0, 76, 66
1, 265111, Note_on_c, 0, 73, 66
1, 265184, Note_on_c, 0, 70, 67
1, 265196, Note_off_c, 0, 73, 58
1, 265238, Note_on_c, 0, 67, 72
1, 265242, Note_off_c, 0, 70, 64
1, 265266, Note_off_c, 0, 67, 67
1, 265319, Note_on_c, 0, 64, 68
1, 265401, Note_on_c, 0, 63, 79
1, 265402, Control_c, 0, 64, 78
1, 265404, Note_off_c, 0, 64, 34
1, 265417, Control_c, 0, 64, 55
1, 265432, Control_c, 0, 64, 0
1, 265471, Note_on_c, 0, 65, 72
1, 265474, Note_off_c, 0, 63, 62
1, 265543, Note_on_c, 0, 63, 63
1, 265548, Note_off_c, 0, 65, 63
1, 265580, Control_c, 0, 64, 37
1, 265594, Control_c, 0, 64, 45
1, 265601, Note_off_c, 0, 63, 64
1, 265604, Note_on_c, 0, 62, 77
1, 265609, Control_c, 0, 64, 38
1, 265624, Control_c, 0, 64, 0
1, 265666, Note_off_c, 0, 62, 62
1, 265675, Note_on_c, 0, 63, 63
1, 265699, Control_c, 0, 64, 40
1, 265700, Note_off_c, 0, 63, 67
1, 265714, Control_c, 0, 64, 64
1, 265729, Control_c, 0, 64, 127
1, 265744, Note_on_c, 0, 67, 70
1, 265788, Control_c, 0, 64, 102
1, 265803, Control_c, 0, 64, 53
1, 265816, Note_off_c, 0, 67, 64
1, 265818, Control_c, 0, 64, 0
1, 265830, Note_on_c, 0, 70, 66
1, 265848, Control_c, 0, 64, 35
1, 265863, Control_c, 0, 64, 61
1, 265884, Control_c, 0, 64, 127
1, 265901, Note_on_c, 0, 73, 65
1, 265913, Note_off_c, 0, 70, 60
1, 265955, Note_on_c, 0, 75, 57
1, 265958, Control_c, 0, 64, 87
1, 265959, Note_off_c, 0, 73, 64
1, 265973, Control_c, 0, 64, 79
1, 265977, Note_off_c, 0, 75, 63
1, 265988, Control_c, 0, 64, 82
1, 266003, Control_c, 0, 64, 127
1, 266026, Note_on_c, 0, 79, 70
1, 266082, Note_off_c, 0, 79, 58
1, 266104, Note_on_c, 0, 82, 67
1, 266173, Note_on_c, 0, 85, 57
1, 266182, Note_off_c, 0, 82, 64
1, 266218, Note_on_c, 0, 87, 61
1, 266226, Note_off_c, 0, 85, 62
1, 266244, Note_off_c, 0, 87, 68
1, 266310, Note_on_c, 0, 91, 71
1, 266393, Note_off_c, 0, 91, 36
1, 266397, Note_on_c, 0, 94, 69
1, 266500, Note_off_c, 0, 94, 60
1, 266501, Note_on_c, 0, 97, 64
1, 266530, Note_on_c, 0, 99, 65
1, 266596, Note_off_c, 0, 97, 63
1, 266602, Note_on_c, 0, 101, 77
1, 266610, Note_off_c, 0, 99, 63
1, 266653, Note_on_c, 0, 94, 70
1, 266679, Note_on_c, 0, 96, 68
1, 266682, Note_off_c, 0, 94, 63
1, 266700, Note_off_c, 0, 101, 53
1, 266739, Note_off_c, 0, 96, 56
1, 266741, Note_on_c, 0, 100, 45
1, 266745, Note_on_c, 0, 98, 52
1, 266753, Note_on_c, 0, 91, 46
1, 266774, Note_off_c, 0, 98, 60
1, 266774, Note_off_c, 0, 100, 64
1, 266791, Note_on_c, 0, 97, 69
1, 266797, Note_off_c, 0, 91, 47
1, 266819, Note_on_c, 0, 90, 25
1, 266827, Note_on_c, 0, 100, 71
1, 266827, Note_off_c, 0, 97, 63
1, 266884, Note_off_c, 0, 90, 0
1, 266901, Note_on_c, 0, 95, 79
1, 266906, Note_on_c, 0, 90, 25
1, 266906, Note_off_c, 0, 100, 64
1, 266920, Note_on_c, 0, 99, 69
1, 266923, Note_on_c, 0, 93, 46
1, 266932, Note_off_c, 0, 95, 61
1, 266954, Note_off_c, 0, 93, 54
1, 266955, Note_off_c, 0, 90, 54
1, 266966, Note_off_c, 0, 99, 63
1, 266975, Note_on_c, 0, 96, 78
1, 266999, Note_on_c, 0, 89, 49
1, 267013, Note_on_c, 0, 99, 75
1, 267022, Note_off_c, 0, 89, 60
1, 267029, Note_on_c, 0, 92, 78
1, 267038, Note_off_c, 0, 96, 67
1, 267068, Note_off_c, 0, 92, 61
1, 267090, Note_on_c, 0, 94, 78
1, 267095, Note_off_c, 0, 99, 66
1, 267124, Note_on_c, 0, 89, 41
1, 267136, Note_off_c, 0, 94, 66
1, 267139, Note_on_c, 0, 98, 65
1, 267140, Note_on_c, 0, 92, 72
1, 267153, Note_off_c, 0, 89, 50
1, 267163, Note_off_c, 0, 92, 70
1, 267164, Note_off_c, 0, 98, 68
1, 267184, Note_on_c, 0, 95, 81
1, 267206, Note_on_c, 0, 88, 69
1, 267225, Note_on_c, 0, 98, 78
1, 267230, Note_off_c, 0, 95, 66
1, 267243, Note_off_c, 0, 88, 65
1, 267271, Note_on_c, 0, 89, 39
1, 267296, Note_on_c, 0, 88, 69
1, 267301, Note_on_c, 0, 93, 73
1, 267304, Note_off_c, 0, 89, 54
1, 267326, Note_off_c, 0, 98, 64
1, 267330, Note_off_c, 0, 93, 61
1, 267333, Note_on_c, 0, 97, 66
1, 267341, Note_off_c, 0, 88, 64
1, 267383, Note_off_c, 0, 97, 65
1, 267384, Note_on_c, 0, 94, 68
1, 267423, Note_on_c, 0, 87, 69
1, 267424, Note_on_c, 0, 97, 72
1, 267438, Note_off_c, 0, 94, 67
1, 267467, Note_on_c, 0, 90, 84
1, 267470, Note_off_c, 0, 87, 64
1, 267486, Note_on_c, 0, 92, 79
1, 267507, Note_off_c, 0, 97, 63
1, 267508, Note_off_c, 0, 90, 63
1, 267526, Note_off_c, 0, 92, 63
1, 267546, Note_on_c, 0, 96, 68
1, 267552, Note_on_c, 0, 87, 49
1, 267556, Note_on_c, 0, 90, 52
1, 267588, Note_off_c, 0, 90, 66
1, 267590, Note_off_c, 0, 96, 63
1, 267595, Note_off_c, 0, 87, 62
1, 267600, Note_on_c, 0, 93, 65
1, 267624, Note_on_c, 0, 86, 56
1, 267641, Note_on_c, 0, 96, 72
1, 267649, Note_off_c, 0, 86, 60
1, 267650, Note_off_c, 0, 93, 64
1, 267671, Note_on_c, 0, 89, 63
1, 267690, Note_off_c, 0, 89, 64
1, 267701, Note_on_c, 0, 91, 80
1, 267720, Note_off_c, 0, 96, 61
1, 267723, Note_on_c, 0, 86, 68
1, 267750, Note_off_c, 0, 86, 65
1, 267753, Note_off_c, 0, 91, 61
1, 267758, Note_on_c, 0, 95, 71
1, 267773, Note_on_c, 0, 89, 60
1, 267789, Note_off_c, 0, 95, 66
1, 267792, Note_off_c, 0, 89, 63
1, 267797, Note_on_c, 0, 92, 78
1, 267820, Note_on_c, 0, 85, 77
1, 267851, Note_off_c, 0, 92, 65
1, 267855, Note_on_c, 0, 95, 84
1, 267856, Note_off_c, 0, 85, 47
1, 267880, Note_on_c, 0, 88, 70
1, 267898, Note_off_c, 0, 88, 70
1, 267904, Note_on_c, 0, 90, 86
1, 267911, Note_off_c, 0, 95, 63
1, 267944, Note_on_c, 0, 85, 69
1, 267958, Note_off_c, 0, 90, 65
1, 267963, Note_on_c, 0, 94, 66
1, 267978, Note_off_c, 0, 85, 58
1, 267988, Note_on_c, 0, 87, 62
1, 267994, Note_off_c, 0, 94, 65
1, 268006, Note_off_c, 0, 87, 66
1, 268015, Note_on_c, 0, 91, 75
1, 268050, Note_on_c, 0, 94, 77
1, 268051, Note_off_c, 0, 91, 61
1, 268052, Note_on_c, 0, 84, 58
1, 268080, Note_on_c, 0, 87, 75
1, 268084, Note_off_c, 0, 84, 66
1, 268122, Note_on_c, 0, 89, 85
1, 268128, Note_off_c, 0, 94, 67
1, 268138, Note_off_c, 0, 87, 64
1, 268174, Note_on_c, 0, 93, 57
1, 268185, Note_on_c, 0, 84, 52
1, 268212, Note_off_c, 0, 89, 50
1, 268215, Note_off_c, 0, 84, 53
1, 268218, Note_on_c, 0, 90, 84
1, 268220, Note_off_c, 0, 93, 62
1, 268257, Note_on_c, 0, 83, 71
1, 268265, Note_on_c, 0, 93, 72
1, 268280, Note_off_c, 0, 90, 68
1, 268296, Note_off_c, 0, 83, 63
1, 268300, Note_on_c, 0, 86, 74
1, 268336, Note_off_c, 0, 86, 59
1, 268352, Note_on_c, 0, 83, 65
1, 268354, Note_on_c, 0, 92, 74
1, 268355, Note_off_c, 0, 93, 63
1, 268359, Note_on_c, 0, 88, 70
1, 268386, Note_off_c, 0, 83, 63
1, 268390, Note_off_c, 0, 92, 63
1, 268399, Note_off_c, 0, 88, 46
1, 268407, Note_on_c, 0, 89, 85
1, 268451, Note_on_c, 0, 92, 82
1, 268459, Note_off_c, 0, 89, 69
1, 268461, Note_on_c, 0, 82, 76
1, 268511, Note_on_c, 0, 85, 82
1, 268512, Note_off_c, 0, 92, 68
1, 268513, Note_off_c, 0, 82, 64
1, 268514, Note_on_c, 0, 87, 89
1, 268556, Note_off_c, 0, 85, 62
1, 268562, Note_off_c, 0, 87, 66
1, 268580, Note_on_c, 0, 91, 58
1, 268615, Note_on_c, 0, 81, 70
1, 268623, Note_on_c, 0, 88, 81
1, 268629, Note_off_c, 0, 91, 0
1, 268641, Note_on_c, 0, 91, 62
1, 268660, Note_off_c, 0, 88, 64
1, 268707, Note_off_c, 0, 81, 65
1, 268723, Note_on_c, 0, 86, 78
1, 268736, Note_off_c, 0, 91, 61
1, 268746, Note_off_c, 0, 86, 65
1, 268760, Note_on_c, 0, 90, 62
1, 268790, Note_off_c, 0, 90, 69
1, 268792, Note_on_c, 0, 80, 69
1, 268799, Note_on_c, 0, 87, 77
1, 268844, Note_off_c, 0, 80, 61
1, 268848, Note_on_c, 0, 90, 71
1, 268852, Note_off_c, 0, 87, 66
1, 268881, Note_on_c, 0, 91, 64
1, 268897, Note_on_c, 0, 80, 33
1, 268905, Note_on_c, 0, 85, 79
1, 268906, Note_off_c, 0, 91, 53
1, 268912, Note_off_c, 0, 80, 0
1, 268919, Note_off_c, 0, 90, 61
1, 268933, Note_on_c, 0, 81, 46
1, 268936, Poly_aftertouch_c, 0, 80, 0
1, 268943, Note_off_c, 0, 85, 61
1, 268952, Note_on_c, 0, 83, 58
1, 268961, Note_off_c, 0, 81, 57
1, 268967, Note_on_c, 0, 89, 64
1, 268971, Note_off_c, 0, 83, 64
1, 269017, Note_on_c, 0, 79, 58
1, 269019, Note_off_c, 0, 89, 64
1, 269023, Note_on_c, 0, 86, 67
1, 269052, Note_off_c, 0, 79, 63
1, 269060, Note_on_c, 0, 89, 62
1, 269068, Note_on_c, 0, 82, 71
1, 269070, Note_off_c, 0, 86, 63
1, 269109, Note_off_c, 0, 82, 51
1, 269117, Note_on_c, 0, 84, 76
1, 269139, Note_off_c, 0, 89, 64
1, 269159, Note_on_c, 0, 79, 44
1, 269161, Note_on_c, 0, 82, 39
1, 269178, Note_off_c, 0, 84, 62
1, 269184, Note_on_c, 0, 88, 49
1, 269186, Note_off_c, 0, 79, 55
1, 269208, Note_off_c, 0, 82, 65
1, 269214, Note_off_c, 0, 88, 57
1, 269223, Note_on_c, 0, 85, 75
1, 269236, Note_on_c, 0, 78, 72
1, 269267, Note_on_c, 0, 88, 78
1, 269273, Note_off_c, 0, 78, 55
1, 269278, Note_off_c, 0, 85, 65
1, 269341, Note_on_c, 0, 78, 68
1, 269346, Note_on_c, 0, 83, 73
1, 269349, Poly_aftertouch_c, 0, 81, 127
1, 269354, Note_off_c, 0, 88, 66
1, 269371, Note_on_c, 0, 87, 56
1, 269395, Note_off_c, 0, 78, 63
1, 269396, Note_off_c, 0, 87, 60
1, 269404, Note_off_c, 0, 83, 56
1, 269425, Note_on_c, 0, 84, 76
1, 269439, Poly_aftertouch_c, 0, 81, 0
1, 269454, Note_on_c, 0, 77, 67
1, 269458, Note_on_c, 0, 87, 87
1, 269471, Note_off_c, 0, 84, 66
1, 269484, Note_off_c, 0, 77, 62
1, 269507, Note_on_c, 0, 80, 69
1, 269532, Note_off_c, 0, 87, 65
1, 269538, Note_on_c, 0, 82, 79
1, 269552, Note_off_c, 0, 80, 55
1, 269574, Note_on_c, 0, 86, 66
1, 269577, Note_off_c, 0, 82, 60
1, 269601, Note_on_c, 0, 80, 53
1, 269605, Control_c, 0, 67, 8
1, 269616, Note_off_c, 0, 86, 60
1, 269627, Control_c, 0, 67, 9
1, 269642, Control_c, 0, 67, 11
1, 269642, Note_off_c, 0, 80, 64
1, 269656, Note_on_c, 0, 83, 66
1, 269657, Control_c, 0, 67, 18
1, 269672, Control_c, 0, 67, 27
1, 269681, Note_on_c, 0, 86, 79
1, 269684, Note_on_c, 0, 76, 64
1, 269685, Note_off_c, 0, 83, 68
1, 269687, Control_c, 0, 67, 39
1, 269702, Control_c, 0, 64, 105
1, 269702, Control_c, 0, 67, 47
1, 269709, Note_off_c, 0, 76, 59
1, 269717, Control_c, 0, 64, 90
1, 269717, Control_c, 0, 67, 52
1, 269732, Control_c, 0, 64, 96
1, 269732, Control_c, 0, 67, 56
1, 269741, Note_on_c, 0, 79, 56
1, 269747, Control_c, 0, 64, 127
1, 269747, Control_c, 0, 67, 59
1, 269762, Control_c, 0, 67, 61
1, 269764, Note_on_c, 0, 81, 76
1, 269764, Note_off_c, 0, 79, 60
1, 269777, Control_c, 0, 67, 61
1, 269778, Note_off_c, 0, 86, 59
1, 269780, Note_on_c, 0, 76, 73
1, 269791, Control_c, 0, 67, 62
1, 269793, Note_off_c, 0, 81, 64
1, 269806, Control_c, 0, 67, 65
1, 269809, Note_off_c, 0, 76, 66
1, 269821, Control_c, 0, 67, 70
1, 269836, Control_c, 0, 67, 75
1, 269839, Note_on_c, 0, 79, 61
1, 269848, Note_on_c, 0, 82, 74
1, 269851, Control_c, 0, 67, 79
1, 269857, Note_off_c, 0, 79, 65
1, 269866, Control_c, 0, 67, 81
1, 269884, Note_on_c, 0, 85, 58
1, 269904, Note_on_c, 0, 75, 66
1, 269904, Note_off_c, 0, 82, 64
1, 269940, Note_off_c, 0, 75, 59
1, 269954, Note_on_c, 0, 78, 73
1, 269963, Note_on_c, 0, 80, 75
1, 269969, Note_off_c, 0, 85, 65
1, 269985, Note_off_c, 0, 80, 70
1, 269999, Control_c, 0, 67, 81
1, 270014, Control_c, 0, 67, 82
1, 270015, Note_on_c, 0, 84, 62
1, 270025, Note_off_c, 0, 78, 0
1, 270029, Control_c, 0, 67, 83
1, 270046, Note_on_c, 0, 78, 37
1, 270051, Note_on_c, 0, 75, 38
1, 270058, Note_off_c, 0, 84, 59
1, 270058, Control_c, 0, 67, 83
1, 270073, Note_off_c, 0, 78, 60
1, 270073, Control_c, 0, 67, 85
1, 270086, Note_on_c, 0, 81, 62
1, 270087, Note_off_c, 0, 75, 45
1, 270088, Control_c, 0, 67, 89
1, 270103, Control_c, 0, 67, 92
1, 270117, Control_c, 0, 64, 80
1, 270117, Control_c, 0, 67, 94
1, 270122, Note_off_c, 0, 81, 66
1, 270122, Note_on_c, 0, 84, 68
1, 270124, Note_on_c, 0, 74, 45
1, 270132, Control_c, 0, 64, 78
1, 270132, Control_c, 0, 67, 97
1, 270147, Control_c, 0, 64, 86
1, 270147, Control_c, 0, 67, 101
1, 270150, Note_off_c, 0, 74, 58
1, 270153, Note_on_c, 0, 77, 58
1, 270161, Control_c, 0, 64, 127
1, 270161, Control_c, 0, 67, 105
1, 270176, Note_off_c, 0, 77, 58
1, 270176, Control_c, 0, 67, 107
1, 270178, Note_on_c, 0, 79, 72
1, 270191, Control_c, 0, 67, 108
1, 270192, Note_off_c, 0, 84, 62
1, 270206, Control_c, 0, 67, 108
1, 270224, Note_on_c, 0, 74, 55
1, 270236, Note_off_c, 0, 79, 61
1, 270242, Note_on_c, 0, 83, 60
1, 270245, Note_off_c, 0, 74, 63
1, 270263, Note_on_c, 0, 77, 45
1, 270265, Control_c, 0, 67, 106
1, 270279, Note_on_c, 0, 80, 76
1, 270280, Control_c, 0, 67, 104
1, 270290, Note_off_c, 0, 77, 55
1, 270295, Control_c, 0, 67, 102
1, 270299, Note_off_c, 0, 83, 0
1, 270310, Control_c, 0, 67, 99
1, 270311, Note_on_c, 0, 83, 51
1, 270312, Note_on_c, 0, 73, 69
1, 270325, Control_c, 0, 67, 96
1, 270326, Note_off_c, 0, 80, 65
1, 270340, Control_c, 0, 67, 93
1, 270343, Note_off_c, 0, 73, 59
1, 270355, Control_c, 0, 67, 83
1, 270376, Control_c, 0, 67, 64
1, 270390, Note_on_c, 0, 78, 77
1, 270391, Control_c, 0, 67, 34
1, 270394, Note_off_c, 0, 83, 64
1, 270406, Control_c, 0, 67, 0
1, 270433, Note_on_c, 0, 73, 70
1, 270438, Note_on_c, 0, 82, 65
1, 270441, Note_off_c, 0, 78, 64
1, 270477, Note_off_c, 0, 73, 54
1, 270505, Note_off_c, 0, 82, 0
1, 270509, Note_on_c, 0, 79, 63
1, 270524, Note_on_c, 0, 82, 52
1, 270536, Note_off_c, 0, 79, 66
1, 270563, Note_on_c, 0, 72, 44
1, 270588, Note_off_c, 0, 72, 57
1, 270595, Note_on_c, 0, 75, 70
1, 270614, Note_on_c, 0, 77, 69
1, 270615, Note_off_c, 0, 82, 65
1, 270629, Note_off_c, 0, 75, 60
1, 270648, Note_on_c, 0, 81, 60
1, 270670, Note_on_c, 0, 72, 55
1, 270704, Note_off_c, 0, 77, 57
1, 270705, Note_off_c, 0, 72, 60
1, 270708, Note_on_c, 0, 78, 78
1, 270715, Note_off_c, 0, 81, 62
1, 270751, Note_on_c, 0, 81, 55
1, 270773, Note_on_c, 0, 71, 51
1, 270776, Note_off_c, 0, 78, 64
1, 270796, Note_off_c, 0, 71, 62
1, 270820, Note_on_c, 0, 74, 52
1, 270841, Note_on_c, 0, 76, 66
1, 270842, Note_off_c, 0, 74, 65
1, 270849, Note_off_c, 0, 81, 64
1, 270865, Note_on_c, 0, 80, 52
1, 270868, Note_on_c, 0, 71, 59
1, 270879, Note_off_c, 0, 76, 54
1, 270887, Note_off_c, 0, 71, 68
1, 270900, Note_off_c, 0, 80, 53
1, 270915, Note_on_c, 0, 77, 69
1, 270954, Note_on_c, 0, 80, 73
1, 270960, Note_off_c, 0, 77, 65
1, 270981, Note_on_c, 0, 70, 60
1, 271014, Note_off_c, 0, 70, 62
1, 271018, Note_on_c, 0, 73, 72
1, 271037, Note_off_c, 0, 80, 61
1, 271046, Note_on_c, 0, 75, 49
1, 271070, Note_on_c, 0, 79, 64
1, 271072, Note_off_c, 0, 75, 56
1, 271073, Control_c, 0, 67, 10
1, 271073, Note_off_c, 0, 73, 63
1, 271088, Control_c, 0, 67, 13
1, 271103, Control_c, 0, 67, 19
1, 271122, Note_off_c, 0, 79, 60
1, 271125, Control_c, 0, 67, 25
1, 271139, Control_c, 0, 67, 35
1, 271142, Note_on_c, 0, 76, 67
1, 271144, Note_on_c, 0, 69, 66
1, 271154, Control_c, 0, 67, 47
1, 271169, Note_on_c, 0, 79, 64
1, 271169, Control_c, 0, 67, 62
1, 271175, Note_off_c, 0, 76, 64
1, 271184, Control_c, 0, 64, 80
1, 271184, Control_c, 0, 67, 74
1, 271192, Note_off_c, 0, 69, 54
1, 271198, Control_c, 0, 64, 73
1, 271198, Control_c, 0, 67, 87
1, 271213, Control_c, 0, 64, 78
1, 271213, Control_c, 0, 67, 99
1, 271228, Control_c, 0, 64, 127
1, 271228, Control_c, 0, 67, 108
1, 271236, Note_on_c, 0, 72, 49
1, 271243, Control_c, 0, 67, 115
1, 271244, Note_on_c, 0, 74, 57
1, 271258, Control_c, 0, 67, 120
1, 271261, Note_off_c, 0, 79, 61
1, 271272, Note_off_c, 0, 72, 52
1, 271273, Control_c, 0, 67, 125
1, 271277, Note_off_c, 0, 74, 62
1, 271288, Note_on_c, 0, 78, 44
1, 271288, Control_c, 0, 67, 127
1, 271315, Note_off_c, 0, 78, 57
1, 271321, Note_on_c, 0, 68, 61
1, 271328, Note_on_c, 0, 75, 66
1, 271356, Note_off_c, 0, 68, 61
1, 271370, Note_on_c, 0, 78, 79
1, 271374, Note_off_c, 0, 75, 63
1, 271410, Note_on_c, 0, 68, 61
1, 271437, Note_on_c, 0, 73, 69
1, 271462, Note_off_c, 0, 68, 55
1, 271463, Note_off_c, 0, 73, 64
1, 271481, Note_on_c, 0, 71, 51
1, 271502, Note_off_c, 0, 71, 63
1, 271503, Note_off_c, 0, 78, 34
1, 271514, Note_on_c, 0, 76, 38
1, 271541, Note_on_c, 0, 67, 55
1, 271542, Note_off_c, 0, 76, 58
1, 271550, Note_on_c, 0, 74, 66
1, 271570, Control_c, 0, 64, 110
1, 271571, Poly_aftertouch_c, 0, 77, 127
1, 271580, Note_off_c, 0, 67, 64
1, 271585, Control_c, 0, 64, 67
1, 271595, Note_on_c, 0, 77, 4
1, 271596, Note_off_c, 0, 74, 67
1, 271598, Note_on_c, 0, 70, 61
1, 271600, Control_c, 0, 64, 54
1, 271614, Control_c, 0, 64, 43
1, 271622, Note_off_c, 0, 70, 60
1, 271629, Control_c, 0, 64, 41
1, 271644, Control_c, 0, 64, 46
1, 271644, Control_c, 0, 67, 127
1, 271654, Note_on_c, 0, 72, 71
1, 271659, Control_c, 0, 64, 54
1, 271659, Control_c, 0, 67, 124
1, 271669, Note_on_c, 0, 68, 67
1, 271674, Control_c, 0, 64, 63
1, 271674, Control_c, 0, 67, 122
1, 271679, Note_off_c, 0, 77, 55
1, 271688, Control_c, 0, 64, 77
1, 271688, Control_c, 0, 67, 118
1, 271703, Control_c, 0, 64, 111
1, 271703, Control_c, 0, 67, 113
1, 271709, Note_on_c, 0, 76, 71
1, 271718, Control_c, 0, 64, 127
1, 271718, Control_c, 0, 67, 104
1, 271720, Note_off_c, 0, 72, 61
1, 271725, Note_on_c, 0, 70, 53
1, 271729, Note_off_c, 0, 68, 52
1, 271733, Control_c, 0, 67, 94
1, 271748, Control_c, 0, 67, 81
1, 271758, Note_off_c, 0, 70, 64
1, 271762, Control_c, 0, 67, 61
1, 271771, Note_on_c, 0, 73, 71
1, 271772, Note_off_c, 0, 76, 64
1, 271777, Control_c, 0, 67, 39
1, 271780, Note_on_c, 0, 67, 61
1, 271792, Control_c, 0, 67, 16
1, 271807, Control_c, 0, 67, 0
1, 271813, Note_on_c, 0, 77, 75
1, 271821, Note_off_c, 0, 67, 61
1, 271827, Note_off_c, 0, 73, 64
1, 271838, Note_on_c, 0, 70, 67
1, 271878, Note_on_c, 0, 72, 75
1, 271888, Note_off_c, 0, 70, 59
1, 271902, Note_off_c, 0, 77, 56
1, 271910, Note_on_c, 0, 68, 69
1, 271923, Note_on_c, 0, 76, 80
1, 271948, Note_off_c, 0, 72, 62
1, 271972, Note_on_c, 0, 70, 55
1, 271978, Note_off_c, 0, 68, 53
1, 271984, Note_on_c, 0, 73, 87
1, 272002, Note_off_c, 0, 70, 64
1, 272007, Note_on_c, 0, 67, 74
1, 272014, Note_off_c, 0, 76, 60
1, 272025, Note_on_c, 0, 77, 84
1, 272046, Note_off_c, 0, 73, 65
1, 272065, Note_off_c, 0, 67, 62
1, 272068, Note_on_c, 0, 70, 75
1, 272088, Note_on_c, 0, 72, 88
1, 272117, Note_off_c, 0, 70, 62
1, 272119, Note_off_c, 0, 77, 61
1, 272131, Note_on_c, 0, 68, 73
1, 272134, Note_on_c, 0, 76, 79
1, 272155, Note_off_c, 0, 72, 56
1, 272189, Note_on_c, 0, 70, 58
1, 272194, Note_on_c, 0, 73, 84
1, 272203, Note_off_c, 0, 68, 52
1, 272207, Note_off_c, 0, 76, 66
1, 272216, Note_off_c, 0, 70, 64
1, 272231, Note_on_c, 0, 67, 69
1, 272254, Note_on_c, 0, 77, 81
1, 272268, Note_off_c, 0, 73, 64
1, 272291, Note_off_c, 0, 67, 64
1, 272300, Note_on_c, 0, 70, 66
1, 272316, Note_on_c, 0, 72, 73
1, 272358, Note_off_c, 0, 70, 60
1, 272359, Note_off_c, 0, 77, 59
1, 272368, Note_on_c, 0, 76, 67
1, 272379, Note_on_c, 0, 68, 60
1, 272394, Note_off_c, 0, 72, 57
1, 272435, Note_on_c, 0, 73, 73
1, 272441, Note_off_c, 0, 76, 63
1, 272479, Note_off_c, 0, 68, 58
1, 272500, Note_on_c, 0, 77, 71
1, 272502, Note_on_c, 0, 70, 42
1, 272510, Note_on_c, 0, 67, 57
1, 272511, Control_c, 0, 64, 115
1, 272516, Note_off_c, 0, 73, 62
1, 272526, Control_c, 0, 64, 70
1, 272526, Control_c, 0, 67, 11
1, 272541, Control_c, 0, 64, 52
1, 272541, Control_c, 0, 67, 18
1, 272555, Control_c, 0, 64, 21
1, 272555, Control_c, 0, 67, 29
1, 272570, Control_c, 0, 64, 0
1, 272570, Control_c, 0, 67, 47
1, 272576, Note_on_c, 0, 72, 69
1, 272585, Control_c, 0, 67, 65
1, 272600, Control_c, 0, 64, 12
1, 272600, Control_c, 0, 67, 87
1, 272604, Note_off_c, 0, 77, 56
1, 272623, Control_c, 0, 64, 30
1, 272623, Control_c, 0, 67, 106
1, 272631, Note_on_c, 0, 76, 67
1, 272637, Control_c, 0, 64, 44
1, 272637, Control_c, 0, 67, 123
1, 272641, Note_off_c, 0, 72, 60
1, 272652, Control_c, 0, 64, 58
1, 272652, Control_c, 0, 67, 127
1, 272667, Control_c, 0, 64, 72
1, 272682, Control_c, 0, 64, 117
1, 272688, Note_on_c, 0, 73, 82
1, 272697, Control_c, 0, 64, 127
1, 272702, Note_off_c, 0, 76, 64
1, 272754, Note_on_c, 0, 77, 77
1, 272760, Note_off_c, 0, 73, 64
1, 272807, Note_on_c, 0, 72, 80
1, 272825, Note_off_c, 0, 70, 57
1, 272850, Note_off_c, 0, 77, 60
1, 272852, Note_on_c, 0, 76, 71
1, 272880, Note_off_c, 0, 72, 63
1, 272880, Note_off_c, 0, 67, 60
1, 272917, Note_on_c, 0, 73, 82
1, 272935, Note_off_c, 0, 76, 65
1, 272969, Note_on_c, 0, 77, 78
1, 272981, Note_off_c, 0, 73, 66
1, 272993, Control_c, 0, 64, 75
1, 273008, Control_c, 0, 64, 61
1, 273023, Control_c, 0, 64, 57
1, 273023, Control_c, 0, 67, 123
1, 273029, Note_on_c, 0, 78, 29
1, 273030, Note_off_c, 0, 78, 127
1, 273032, Note_on_c, 0, 73, 74
1, 273038, Control_c, 0, 64, 62
1, 273038, Control_c, 0, 67, 117
1, 273053, Control_c, 0, 64, 73
1, 273053, Control_c, 0, 67, 110
1, 273065, Note_off_c, 0, 77, 58
1, 273067, Control_c, 0, 64, 127
1, 273067, Control_c, 0, 67, 102
1, 273082, Control_c, 0, 67, 93
1, 273097, Control_c, 0, 67, 86
1, 273100, Note_on_c, 0, 76, 71
1, 273110, Note_off_c, 0, 73, 58
1, 273112, Control_c, 0, 67, 79
1, 273127, Control_c, 0, 67, 70
1, 273142, Control_c, 0, 67, 59
1, 273149, Note_on_c, 0, 74, 77
1, 273157, Control_c, 0, 67, 46
1, 273172, Control_c, 0, 67, 35
1, 273173, Note_off_c, 0, 76, 65
1, 273186, Control_c, 0, 64, 96
1, 273186, Control_c, 0, 67, 20
1, 273189, Note_on_c, 0, 77, 70
1, 273201, Control_c, 0, 64, 92
1, 273201, Control_c, 0, 67, 0
1, 273214, Note_off_c, 0, 74, 65
1, 273216, Control_c, 0, 64, 94
1, 273231, Control_c, 0, 64, 107
1, 273246, Note_on_c, 0, 73, 81
1, 273246, Control_c, 0, 64, 127
1, 273282, Note_off_c, 0, 77, 61
1, 273312, Note_off_c, 0, 73, 64
1, 273315, Note_on_c, 0, 76, 61
1, 273372, Note_on_c, 0, 74, 70
1, 273380, Note_off_c, 0, 76, 66
1, 273401, Control_c, 0, 64, 72
1, 273416, Control_c, 0, 64, 57
1, 273430, Note_on_c, 0, 77, 76
1, 273431, Control_c, 0, 64, 45
1, 273437, Note_off_c, 0, 74, 66
1, 273446, Control_c, 0, 64, 43
1, 273460, Control_c, 0, 64, 55
1, 273475, Control_c, 0, 64, 72
1, 273476, Note_on_c, 0, 74, 63
1, 273491, Control_c, 0, 64, 127
1, 273501, Note_off_c, 0, 77, 62
1, 273548, Note_on_c, 0, 76, 69
1, 273559, Note_off_c, 0, 74, 64
1, 273565, Control_c, 0, 64, 90
1, 273580, Control_c, 0, 64, 68
1, 273594, Control_c, 0, 64, 66
1, 273609, Control_c, 0, 64, 87
1, 273618, Note_off_c, 0, 76, 66
1, 273619, Note_on_c, 0, 75, 76
1, 273624, Control_c, 0, 64, 127
1, 273658, Note_on_c, 0, 77, 71
1, 273666, Note_off_c, 0, 75, 54
1, 273699, Control_c, 0, 64, 96
1, 273714, Control_c, 0, 64, 75
1, 273714, Note_on_c, 0, 74, 72
1, 273720, Note_off_c, 0, 77, 63
1, 273729, Control_c, 0, 64, 71
1, 273744, Control_c, 0, 64, 72
1, 273758, Control_c, 0, 64, 77
1, 273768, Note_off_c, 0, 74, 67
1, 273769, Note_on_c, 0, 76, 68
1, 273773, Control_c, 0, 64, 86
1, 273788, Control_c, 0, 64, 97
1, 273803, Control_c, 0, 64, 104
1, 273817, Control_c, 0, 64, 108
1, 273832, Control_c, 0, 64, 113
1, 273835, Note_on_c, 0, 75, 80
1, 273847, Control_c, 0, 64, 127
1, 273848, Note_off_c, 0, 76, 64
1, 273871, Note_on_c, 0, 77, 74
1, 273885, Note_off_c, 0, 75, 61
1, 273928, Note_off_c, 0, 77, 61
1, 273932, Note_on_c, 0, 76, 77
1, 273936, Control_c, 0, 64, 93
1, 273936, Control_c, 0, 67, 10
1, 273951, Control_c, 0, 64, 63
1, 273951, Control_c, 0, 67, 17
1, 273965, Control_c, 0, 64, 44
1, 273965, Control_c, 0, 67, 26
1, 273980, Control_c, 0, 64, 16
1, 273980, Control_c, 0, 67, 37
1, 273990, Note_on_c, 0, 77, 65
1, 273995, Control_c, 0, 64, 0
1, 273995, Control_c, 0, 67, 46
1, 273997, Note_off_c, 0, 76, 66
1, 274009, Control_c, 0, 64, 21
1, 274009, Control_c, 0, 67, 53
1, 274024, Control_c, 0, 64, 34
1, 274024, Control_c, 0, 67, 59
1, 274039, Control_c, 0, 64, 43
1, 274039, Control_c, 0, 67, 63
1, 274043, Note_off_c, 0, 77, 60
1, 274046, Note_on_c, 0, 75, 77
1, 274054, Control_c, 0, 64, 54
1, 274054, Control_c, 0, 67, 65
1, 274069, Control_c, 0, 64, 62
1, 274069, Control_c, 0, 67, 68
1, 274084, Control_c, 0, 64, 69
1, 274084, Control_c, 0, 67, 73
1, 274097, Note_on_c, 0, 77, 66
1, 274099, Control_c, 0, 64, 75
1, 274099, Control_c, 0, 67, 77
1, 274116, Note_off_c, 0, 75, 59
1, 274121, Control_c, 0, 64, 78
1, 274121, Control_c, 0, 67, 81
1, 274136, Control_c, 0, 67, 83
1, 274151, Control_c, 0, 64, 77
1, 274151, Control_c, 0, 67, 84
1, 274165, Control_c, 0, 64, 75
1, 274167, Note_on_c, 0, 76, 83
1, 274174, Note_off_c, 0, 77, 58
1, 274180, Control_c, 0, 64, 70
1, 274195, Control_c, 0, 64, 65
1, 274209, Control_c, 0, 64, 61
1, 274209, Control_c, 0, 67, 81
1, 274224, Control_c, 0, 64, 56
1, 274224, Control_c, 0, 67, 76
1, 274232, Note_on_c, 0, 77, 50
1, 274238, Note_off_c, 0, 76, 62
1, 274239, Control_c, 0, 64, 51
1, 274239, Control_c, 0, 67, 68
1, 274254, Control_c, 0, 64, 47
1, 274254, Control_c, 0, 67, 56
1, 274269, Control_c, 0, 64, 47
1, 274269, Control_c, 0, 67, 38
1, 274277, Note_off_c, 0, 77, 60
1, 274283, Control_c, 0, 67, 20
1, 274287, Note_on_c, 0, 75, 77
1, 274298, Control_c, 0, 64, 47
1, 274298, Control_c, 0, 67, 0
1, 274313, Control_c, 0, 64, 48
1, 274328, Control_c, 0, 64, 49
1, 274342, Control_c, 0, 64, 50
1, 274343, Note_off_c, 0, 75, 59
1, 274349, Note_on_c, 0, 77, 60
1, 274357, Control_c, 0, 64, 51
1, 274372, Control_c, 0, 64, 52
1, 274387, Control_c, 0, 64, 53
1, 274397, Note_off_c, 0, 77, 57
1, 274402, Control_c, 0, 64, 54
1, 274406, Note_on_c, 0, 76, 71
1, 274446, Control_c, 0, 64, 53
1, 274461, Control_c, 0, 64, 52
1, 274470, Note_off_c, 0, 76, 64
1, 274476, Control_c, 0, 64, 52
1, 274477, Note_on_c, 0, 77, 56
1, 274492, Control_c, 0, 64, 51
1, 274506, Control_c, 0, 64, 52
1, 274517, Note_off_c, 0, 77, 54
1, 274521, Control_c, 0, 64, 53
1, 274534, Note_on_c, 0, 75, 67
1, 274536, Control_c, 0, 64, 54
1, 274551, Control_c, 0, 64, 55
1, 274566, Control_c, 0, 64, 56
1, 274580, Control_c, 0, 64, 57
1, 274594, Note_off_c, 0, 75, 59
1, 274595, Control_c, 0, 64, 58
1, 274610, Control_c, 0, 64, 60
1, 274611, Note_on_c, 0, 77, 62
1, 274625, Control_c, 0, 64, 60
1, 274625, Control_c, 0, 67, 9
1, 274639, Control_c, 0, 67, 11
1, 274652, Note_off_c, 0, 77, 54
1, 274654, Control_c, 0, 67, 15
1, 274669, Control_c, 0, 67, 17
1, 274674, Note_on_c, 0, 76, 64
1, 274684, Control_c, 0, 67, 20
1, 274699, Control_c, 0, 67, 22
1, 274713, Control_c, 0, 67, 25
1, 274728, Control_c, 0, 67, 27
1, 274729, Note_off_c, 0, 76, 64
1, 274740, Note_on_c, 0, 77, 65
1, 274743, Control_c, 0, 67, 29
1, 274758, Control_c, 0, 64, 60
1, 274758, Control_c, 0, 67, 31
1, 274773, Control_c, 0, 64, 59
1, 274773, Control_c, 0, 67, 32
1, 274776, Note_off_c, 0, 77, 51
1, 274787, Control_c, 0, 64, 58
1, 274802, Control_c, 0, 64, 56
1, 274806, Note_on_c, 0, 75, 68
1, 274817, Control_c, 0, 64, 54
1, 274817, Control_c, 0, 67, 30
1, 274832, Control_c, 0, 64, 51
1, 274832, Control_c, 0, 67, 27
1, 274847, Control_c, 0, 64, 49
1, 274847, Control_c, 0, 67, 24
1, 274856, Note_off_c, 0, 75, 61
1, 274861, Note_on_c, 0, 77, 71
1, 274869, Control_c, 0, 64, 47
1, 274869, Control_c, 0, 67, 20
1, 274884, Control_c, 0, 67, 12
1, 274899, Control_c, 0, 64, 47
1, 274899, Control_c, 0, 67, 0
1, 274932, Note_off_c, 0, 77, 61
1, 274939, Note_on_c, 0, 75, 72
1, 274988, Note_off_c, 0, 75, 64
1, 274999, Note_on_c, 0, 77, 66
1, 275047, Control_c, 0, 64, 46
1, 275053, Note_off_c, 0, 77, 61
1, 275076, Note_on_c, 0, 75, 68
1, 275106, Control_c, 0, 64, 46
1, 275117, Note_off_c, 0, 75, 61
1, 275127, Note_on_c, 0, 77, 72
1, 275136, Control_c, 0, 64, 45
1, 275151, Control_c, 0, 64, 44
1, 275165, Control_c, 0, 64, 43
1, 275180, Note_off_c, 0, 77, 62
1, 275180, Control_c, 0, 64, 41
1, 275195, Control_c, 0, 64, 39
1, 275196, Note_on_c, 0, 75, 65
1, 275210, Control_c, 0, 64, 37
1, 275225, Control_c, 0, 64, 33
1, 275232, Note_off_c, 0, 75, 61
1, 275239, Control_c, 0, 64, 28
1, 275246, Note_on_c, 0, 77, 69
1, 275254, Control_c, 0, 64, 19
1, 275269, Control_c, 0, 64, 0
1, 275299, Note_off_c, 0, 77, 62
1, 275310, Note_on_c, 0, 75, 68
1, 275360, Note_off_c, 0, 75, 64
1, 275362, Note_on_c, 0, 77, 58
1, 275415, Note_on_c, 0, 75, 69
1, 275419, Note_off_c, 0, 77, 61
1, 275471, Note_on_c, 0, 77, 58
1, 275473, Note_off_c, 0, 75, 62
1, 275530, Note_off_c, 0, 77, 62
1, 275531, Note_on_c, 0, 75, 63
1, 275585, Note_off_c, 0, 75, 63
1, 275590, Note_on_c, 0, 77, 55
1, 275650, Note_off_c, 0, 77, 58
1, 275667, Note_on_c, 0, 75, 64
1, 275717, Note_off_c, 0, 75, 62
1, 275719, Note_on_c, 0, 77, 57
1, 275782, Note_off_c, 0, 77, 60
1, 275804, Note_on_c, 0, 75, 49
1, 275842, Note_off_c, 0, 75, 53
1, 275852, Note_on_c, 0, 77, 51
1, 275900, Note_off_c, 0, 77, 56
1, 275938, Note_on_c, 0, 75, 55
1, 275968, Note_off_c, 0, 75, 55
1, 276007, Note_on_c, 0, 77, 47
1, 276035, Note_off_c, 0, 77, 58
1, 276059, Note_on_c, 0, 75, 55
1, 276105, Note_off_c, 0, 75, 58
1, 276118, Note_on_c, 0, 77, 62
1, 276166, Note_off_c, 0, 77, 56
1, 276209, Note_on_c, 0, 75, 52
1, 276236, Note_off_c, 0, 75, 58
1, 276276, Note_on_c, 0, 77, 46
1, 276303, Note_off_c, 0, 77, 58
1, 276341, Note_on_c, 0, 75, 47
1, 276385, Note_off_c, 0, 75, 53
1, 276403, Note_on_c, 0, 77, 51
1, 276454, Note_off_c, 0, 77, 57
1, 276491, Note_on_c, 0, 75, 47
1, 276523, Note_off_c, 0, 75, 54
1, 276574, Note_on_c, 0, 77, 38
1, 276603, Note_off_c, 0, 77, 56
1, 276632, Note_on_c, 0, 75, 48
1, 276677, Note_off_c, 0, 75, 55
1, 276706, Note_on_c, 0, 77, 44
1, 276742, Note_off_c, 0, 77, 58
1, 276784, Note_on_c, 0, 75, 46
1, 276937, Note_on_c, 0, 74, 47
1, 276952, Note_off_c, 0, 75, 42
1, 277178, Note_on_c, 0, 75, 44
1, 277184, Note_off_c, 0, 74, 53
1, 277566, Note_on_c, 0, 84, 49
1, 277625, Note_off_c, 0, 75, 35
1, 278250, Control_c, 0, 67, 8
1, 278265, Control_c, 0, 67, 9
1, 278295, Control_c, 0, 67, 9
1, 278309, Control_c, 0, 67, 10
1, 278354, Control_c, 0, 67, 10
1, 278488, Control_c, 0, 67, 11
1, 278614, Control_c, 0, 67, 11
1, 278718, Control_c, 0, 67, 12
1, 278779, Note_on_c, 0, 79, 41
1, 278798, Note_off_c, 0, 84, 49
1, 278953, Control_c, 0, 67, 11
1, 279012, Control_c, 0, 64, 10
1, 279027, Control_c, 0, 64, 17
1, 279042, Control_c, 0, 64, 22
1, 279042, Control_c, 0, 67, 11
1, 279057, Control_c, 0, 64, 27
1, 279071, Control_c, 0, 64, 31
1, 279071, Control_c, 0, 67, 10
1, 279086, Control_c, 0, 64, 37
1, 279101, Control_c, 0, 64, 42
1, 279116, Control_c, 0, 64, 49
1, 279131, Control_c, 0, 64, 55
1, 279131, Control_c, 0, 67, 10
1, 279146, Control_c, 0, 64, 61
1, 279160, Control_c, 0, 64, 65
1, 279163, Note_off_c, 0, 79, 33
1, 279175, Control_c, 0, 64, 67
1, 279190, Control_c, 0, 64, 69
1, 279205, Control_c, 0, 64, 69
1, 279220, Control_c, 0, 64, 70
1, 279235, Control_c, 0, 64, 71
1, 279250, Control_c, 0, 64, 73
1, 279265, Control_c, 0, 64, 77
1, 279280, Control_c, 0, 64, 84
1, 279295, Control_c, 0, 64, 91
1, 279309, Control_c, 0, 64, 98
1, 279324, Control_c, 0, 64, 101
1, 279339, Control_c, 0, 64, 103
1, 279406, Control_c, 0, 67, 10
1, 279524, Control_c, 0, 64, 102
1, 279539, Control_c, 0, 64, 101
1, 279554, Control_c, 0, 64, 100
1, 279569, Control_c, 0, 64, 100
1, 279584, Control_c, 0, 64, 99
1, 279599, Control_c, 0, 67, 11
1, 279643, Control_c, 0, 64, 99
1, 279673, Control_c, 0, 64, 98
1, 279688, Control_c, 0, 64, 97
1, 279688, Control_c, 0, 67, 11
1, 279702, Control_c, 0, 64, 97
1, 279717, Control_c, 0, 64, 96
1, 279732, Control_c, 0, 64, 95
1, 279746, Control_c, 0, 64, 95
1, 279761, Control_c, 0, 64, 94
1, 279776, Control_c, 0, 64, 93
1, 279791, Control_c, 0, 64, 93
1, 279806, Control_c, 0, 64, 92
1, 279820, Control_c, 0, 64, 91
1, 279835, Control_c, 0, 64, 91
1, 279850, Control_c, 0, 64, 90
1, 279865, Control_c, 0, 64, 90
1, 279880, Control_c, 0, 64, 89
1, 279894, Control_c, 0, 64, 89
1, 279909, Control_c, 0, 64, 88
1, 279924, Control_c, 0, 64, 88
1, 279953, Control_c, 0, 64, 87
1, 279968, Control_c, 0, 64, 87
1, 279998, Control_c, 0, 64, 86
1, 280028, Control_c, 0, 64, 86
1, 280028, Control_c, 0, 67, 11
1, 280043, Control_c, 0, 67, 10
1, 280058, Control_c, 0, 64, 85
1, 280073, Control_c, 0, 64, 85
1, 280088, Control_c, 0, 67, 10
1, 280125, Control_c, 0, 64, 84
1, 280155, Control_c, 0, 64, 84
1, 280184, Control_c, 0, 67, 9
1, 280199, Control_c, 0, 64, 83
1, 280230, Control_c, 0, 64, 83
1, 280274, Control_c, 0, 64, 82
1, 280319, Control_c, 0, 64, 82
1, 280348, Control_c, 0, 64, 81
1, 280422, Control_c, 0, 64, 80
1, 280437, Control_c, 0, 64, 75
1, 280451, Control_c, 0, 64, 69
1, 280466, Control_c, 0, 64, 63
1, 280481, Control_c, 0, 64, 55
1, 280496, Control_c, 0, 64, 41
1, 280508, Note_on_c, 0, 44, 39
1, 280511, Control_c, 0, 64, 22
1, 280526, Control_c, 0, 64, 0
1, 280570, Control_c, 0, 67, 9
1, 280585, Control_c, 0, 64, 15
1, 280585, Control_c, 0, 67, 8
1, 280600, Control_c, 0, 64, 24
1, 280600, Control_c, 0, 67, 0
1, 280615, Control_c, 0, 64, 31
1, 280630, Control_c, 0, 64, 40
1, 280645, Control_c, 0, 64, 50
1, 280659, Control_c, 0, 64, 61
1, 280674, Control_c, 0, 64, 73
1, 280689, Control_c, 0, 64, 107
1, 280690, Note_on_c, 0, 63, 26
1, 280693, Note_off_c, 0, 44, 42
1, 280703, Control_c, 0, 64, 127
1, 280773, Note_off_c, 0, 63, 53
1, 280829, Note_on_c, 0, 72, 49
1, 280950, Note_off_c, 0, 72, 34
1, 281063, Note_on_c, 0, 51, 43
1, 281073, Note_on_c, 0, 60, 37
1, 281141, Note_off_c, 0, 51, 51
1, 281155, Note_on_c, 0, 82, 76
1, 281229, Note_off_c, 0, 60, 59
1, 281605, Note_on_c, 0, 56, 51
1, 281618, Note_on_c, 0, 63, 47
1, 281660, Note_off_c, 0, 56, 57
1, 281678, Note_off_c, 0, 63, 53
1, 281742, Control_c, 0, 67, 10
1, 281756, Control_c, 0, 67, 15
1, 281771, Control_c, 0, 67, 23
1, 281786, Control_c, 0, 67, 30
1, 281801, Control_c, 0, 67, 33
1, 281816, Control_c, 0, 67, 34
1, 281888, Note_on_c, 0, 68, 46
1, 281891, Note_on_c, 0, 60, 46
1, 281897, Note_on_c, 0, 80, 65
1, 281939, Note_off_c, 0, 60, 57
1, 281942, Note_off_c, 0, 68, 57
1, 281948, Control_c, 0, 67, 33
1, 281963, Control_c, 0, 67, 32
1, 282007, Note_off_c, 0, 80, 49
1, 282017, Note_off_c, 0, 82, 33
1, 282162, Note_on_c, 0, 72, 63
1, 282230, Control_c, 0, 67, 33
1, 282260, Control_c, 0, 67, 34
1, 282302, Note_off_c, 0, 72, 58
1, 282319, Control_c, 0, 67, 34
1, 282334, Control_c, 0, 67, 35
1, 282386, Control_c, 0, 67, 35
1, 282390, Note_on_c, 0, 73, 69
1, 282401, Control_c, 0, 67, 36
1, 282416, Control_c, 0, 67, 37
1, 282430, Control_c, 0, 67, 40
1, 282445, Control_c, 0, 67, 41
1, 282460, Control_c, 0, 67, 41
1, 282475, Control_c, 0, 67, 42
1, 282505, Control_c, 0, 67, 43
1, 282520, Control_c, 0, 67, 44
1, 282535, Control_c, 0, 67, 45
1, 282550, Control_c, 0, 67, 45
1, 282565, Control_c, 0, 67, 46
1, 282579, Control_c, 0, 67, 46
1, 282594, Note_off_c, 0, 73, 34
1, 282594, Control_c, 0, 64, 70
1, 282601, Note_on_c, 0, 44, 54
1, 282609, Control_c, 0, 64, 51
1, 282624, Control_c, 0, 64, 12
1, 282639, Control_c, 0, 64, 0
1, 282697, Control_c, 0, 64, 14
1, 282712, Control_c, 0, 64, 30
1, 282712, Control_c, 0, 67, 46
1, 282727, Control_c, 0, 64, 43
1, 282727, Control_c, 0, 67, 45
1, 282739, Note_on_c, 0, 63, 51
1, 282741, Note_off_c, 0, 44, 51
1, 282742, Control_c, 0, 64, 55
1, 282742, Control_c, 0, 67, 44
1, 282757, Control_c, 0, 64, 65
1, 282757, Control_c, 0, 67, 44
1, 282771, Control_c, 0, 64, 85
1, 282771, Control_c, 0, 67, 43
1, 282786, Control_c, 0, 64, 127
1, 282786, Control_c, 0, 67, 42
1, 282799, Note_off_c, 0, 63, 60
1, 282801, Control_c, 0, 67, 42
1, 282816, Control_c, 0, 67, 41
1, 282818, Note_on_c, 0, 68, 70
1, 282831, Control_c, 0, 67, 40
1, 282845, Control_c, 0, 67, 40
1, 282860, Control_c, 0, 67, 39
1, 282875, Control_c, 0, 67, 39
1, 282890, Control_c, 0, 67, 38
1, 282904, Control_c, 0, 67, 38
1, 282919, Control_c, 0, 67, 37
1, 282934, Control_c, 0, 67, 36
1, 282949, Control_c, 0, 67, 35
1, 282962, Note_on_c, 0, 51, 52
1, 282964, Control_c, 0, 67, 34
1, 282967, Note_off_c, 0, 68, 37
1, 282968, Note_on_c, 0, 60, 53
1, 282978, Note_on_c, 0, 77, 76
1, 282979, Control_c, 0, 67, 33
1, 282994, Control_c, 0, 67, 32
1, 283006, Note_off_c, 0, 51, 64
1, 283009, Control_c, 0, 67, 31
1, 283024, Control_c, 0, 67, 29
1, 283028, Note_off_c, 0, 60, 63
1, 283038, Control_c, 0, 67, 25
1, 283053, Control_c, 0, 67, 19
1, 283068, Control_c, 0, 67, 13
1, 283083, Control_c, 0, 67, 0
1, 283239, Note_on_c, 0, 56, 44
1, 283241, Note_on_c, 0, 63, 50
1, 283270, Note_off_c, 0, 56, 55
1, 283279, Note_off_c, 0, 63, 59
1, 283465, Note_on_c, 0, 68, 50
1, 283474, Note_on_c, 0, 75, 66
1, 283480, Note_on_c, 0, 60, 42
1, 283525, Note_off_c, 0, 60, 55
1, 283578, Note_off_c, 0, 68, 51
1, 283620, Note_off_c, 0, 77, 36
1, 283716, Note_on_c, 0, 73, 74
1, 283845, Note_off_c, 0, 75, 36
1, 284003, Control_c, 0, 67, 10
1, 284018, Control_c, 0, 67, 15
1, 284031, Note_on_c, 0, 72, 68
1, 284033, Control_c, 0, 67, 20
1, 284047, Control_c, 0, 67, 25
1, 284062, Control_c, 0, 67, 30
1, 284078, Note_off_c, 0, 73, 32
1, 284079, Control_c, 0, 67, 37
1, 284093, Control_c, 0, 67, 42
1, 284108, Control_c, 0, 67, 45
1, 284123, Control_c, 0, 67, 45
1, 284270, Control_c, 0, 64, 83
1, 284285, Control_c, 0, 64, 58
1, 284300, Control_c, 0, 64, 29
1, 284302, Note_on_c, 0, 44, 49
1, 284315, Control_c, 0, 64, 0
1, 284330, Control_c, 0, 67, 45
1, 284359, Control_c, 0, 64, 16
1, 284359, Control_c, 0, 67, 44
1, 284374, Control_c, 0, 64, 40
1, 284374, Control_c, 0, 67, 44
1, 284389, Control_c, 0, 64, 59
1, 284401, Note_off_c, 0, 72, 54
1, 284404, Control_c, 0, 64, 103
1, 284419, Control_c, 0, 64, 127
1, 284419, Control_c, 0, 67, 43
1, 284449, Control_c, 0, 67, 42
1, 284463, Control_c, 0, 67, 41
1, 284492, Note_off_c, 0, 44, 36
1, 284720, Note_on_c, 0, 62, 49
1, 284773, Note_off_c, 0, 62, 52
1, 284783, Note_on_c, 0, 65, 54
1, 284811, Control_c, 0, 67, 40
1, 284825, Control_c, 0, 67, 40
1, 284842, Note_on_c, 0, 53, 47
1, 284845, Note_on_c, 0, 72, 63
1, 284852, Note_on_c, 0, 62, 36
1, 284854, Note_off_c, 0, 65, 54
1, 284886, Control_c, 0, 67, 39
1, 284901, Control_c, 0, 67, 39
1, 284908, Note_off_c, 0, 53, 56
1, 284960, Control_c, 0, 67, 38
1, 284996, Note_off_c, 0, 62, 37
1, 285271, Control_c, 0, 67, 39
1, 285298, Note_on_c, 0, 56, 35
1, 285300, Control_c, 0, 67, 39
1, 285316, Note_on_c, 0, 65, 37
1, 285330, Control_c, 0, 67, 40
1, 285423, Note_off_c, 0, 65, 38
1, 285448, Note_off_c, 0, 56, 36
1, 285486, Control_c, 0, 67, 38
1, 285500, Control_c, 0, 67, 37
1, 285515, Control_c, 0, 67, 37
1, 285530, Control_c, 0, 67, 35
1, 285545, Control_c, 0, 67, 34
1, 285560, Control_c, 0, 67, 32
1, 285574, Control_c, 0, 67, 30
1, 285589, Control_c, 0, 67, 24
1, 285604, Control_c, 0, 67, 20
1, 285619, Control_c, 0, 67, 15
1, 285634, Control_c, 0, 67, 9
1, 285648, Control_c, 0, 67, 0
1, 285790, Note_on_c, 0, 70, 57
1, 285799, Note_on_c, 0, 62, 42
1, 285975, Note_off_c, 0, 62, 36
1, 286048, Note_on_c, 0, 69, 62
1, 286078, Note_off_c, 0, 70, 37
1, 286097, Note_off_c, 0, 72, 31
1, 286233, Note_on_c, 0, 70, 66
1, 286251, Note_off_c, 0, 69, 57
1, 286341, Note_off_c, 0, 70, 59
1, 286363, Note_on_c, 0, 69, 65
1, 286465, Note_off_c, 0, 69, 41
1, 286470, Note_on_c, 0, 70, 66
1, 286526, Note_off_c, 0, 70, 62
1, 286543, Note_on_c, 0, 72, 61
1, 286580, Note_off_c, 0, 72, 60
1, 286610, Note_on_c, 0, 70, 59
1, 286641, Note_off_c, 0, 70, 65
1, 286666, Note_on_c, 0, 72, 52
1, 286694, Note_off_c, 0, 72, 58
1, 286712, Note_on_c, 0, 70, 66
1, 286741, Note_off_c, 0, 70, 65
1, 286771, Note_on_c, 0, 72, 64
1, 286800, Note_off_c, 0, 72, 63
1, 286842, Note_on_c, 0, 70, 59
1, 286869, Note_off_c, 0, 70, 62
1, 286878, Note_on_c, 0, 72, 58
1, 286914, Note_off_c, 0, 72, 60
1, 286943, Note_on_c, 0, 70, 68
1, 286982, Note_off_c, 0, 70, 63
1, 286999, Note_on_c, 0, 72, 63
1, 287037, Note_off_c, 0, 72, 58
1, 287065, Note_on_c, 0, 70, 67
1, 287090, Note_off_c, 0, 70, 63
1, 287116, Note_on_c, 0, 72, 65
1, 287161, Note_off_c, 0, 72, 60
1, 287184, Note_on_c, 0, 70, 70
1, 287213, Note_off_c, 0, 70, 61
1, 287231, Note_on_c, 0, 72, 67
1, 287293, Note_off_c, 0, 72, 61
1, 287301, Note_on_c, 0, 70, 72
1, 287351, Note_off_c, 0, 70, 61
1, 287355, Note_on_c, 0, 72, 56
1, 287428, Note_on_c, 0, 70, 62
1, 287453, Note_off_c, 0, 72, 0
1, 287471, Note_on_c, 0, 72, 39
1, 287471, Note_off_c, 0, 70, 59
1, 287511, Note_on_c, 0, 70, 53
1, 287511, Note_off_c, 0, 72, 64
1, 287554, Note_off_c, 0, 70, 63
1, 287576, Note_on_c, 0, 72, 61
1, 287609, Note_off_c, 0, 72, 62
1, 287633, Note_on_c, 0, 70, 52
1, 287659, Note_off_c, 0, 70, 58
1, 287671, Note_on_c, 0, 69, 70
1, 287725, Note_off_c, 0, 69, 62
1, 287729, Note_on_c, 0, 70, 76
1, 287764, Note_on_c, 0, 73, 71
1, 287779, Note_off_c, 0, 70, 61
1, 287817, Note_off_c, 0, 73, 66
1, 287818, Note_on_c, 0, 74, 67
1, 287841, Note_off_c, 0, 74, 71
1, 287870, Note_on_c, 0, 76, 72
1, 287928, Note_off_c, 0, 76, 63
1, 287933, Note_on_c, 0, 77, 73
1, 287948, Note_on_c, 0, 79, 70
1, 287957, Note_off_c, 0, 77, 67
1, 287966, Note_off_c, 0, 79, 68
1, 287978, Note_on_c, 0, 80, 62
1, 287998, Note_off_c, 0, 80, 64
1, 288025, Note_on_c, 0, 81, 75
1, 288048, Note_off_c, 0, 81, 69
1, 288082, Note_on_c, 0, 82, 79
1, 288118, Note_on_c, 0, 85, 73
1, 288155, Note_off_c, 0, 82, 63
1, 288168, Note_on_c, 0, 86, 71
1, 288182, Note_off_c, 0, 85, 63
1, 288193, Note_off_c, 0, 86, 65
1, 288207, Control_c, 0, 64, 74
1, 288222, Control_c, 0, 64, 48
1, 288231, Note_on_c, 0, 44, 69
1, 288237, Control_c, 0, 64, 0
1, 288282, Control_c, 0, 64, 32
1, 288297, Note_off_c, 0, 44, 55
1, 288297, Control_c, 0, 64, 55
1, 288311, Control_c, 0, 64, 98
1, 288326, Control_c, 0, 64, 127
1, 288341, Note_on_c, 0, 73, 71
1, 288383, Note_off_c, 0, 73, 63
1, 288398, Note_on_c, 0, 79, 77
1, 288456, Note_off_c, 0, 79, 56
1, 288517, Note_on_c, 0, 61, 66
1, 288522, Note_on_c, 0, 51, 62
1, 288563, Note_off_c, 0, 51, 65
1, 288583, Note_off_c, 0, 61, 62
1, 288605, Note_on_c, 0, 89, 99
1, 288768, Note_on_c, 0, 55, 61
1, 288776, Note_on_c, 0, 63, 60
1, 288804, Note_off_c, 0, 55, 63
1, 288813, Note_off_c, 0, 63, 59
1, 288971, Note_on_c, 0, 87, 88
1, 288974, Note_on_c, 0, 67, 60
1, 288980, Note_on_c, 0, 61, 59
1, 288993, Note_off_c, 0, 67, 68
1, 289002, Note_off_c, 0, 61, 62
1, 289140, Note_off_c, 0, 89, 0
1, 289178, Poly_aftertouch_c, 0, 89, 127
1, 289183, Note_on_c, 0, 85, 83
1, 289214, Poly_aftertouch_c, 0, 89, 0
1, 289251, Note_off_c, 0, 87, 55
1, 289385, Note_on_c, 0, 82, 81
1, 289393, Control_c, 0, 67, 8
1, 289403, Note_off_c, 0, 85, 61
1, 289407, Control_c, 0, 67, 9
1, 289411, Note_off_c, 0, 82, 64
1, 289422, Control_c, 0, 67, 10
1, 289511, Control_c, 0, 67, 10
1, 289526, Control_c, 0, 67, 11
1, 289540, Control_c, 0, 67, 11
1, 289552, Note_on_c, 0, 44, 50
1, 289555, Control_c, 0, 64, 78
1, 289555, Control_c, 0, 67, 12
1, 289570, Control_c, 0, 64, 54
1, 289570, Control_c, 0, 67, 13
1, 289585, Control_c, 0, 64, 20
1, 289585, Control_c, 0, 67, 14
1, 289600, Control_c, 0, 64, 0
1, 289644, Control_c, 0, 64, 25
1, 289660, Control_c, 0, 64, 39
1, 289665, Note_off_c, 0, 44, 53
1, 289674, Control_c, 0, 64, 52
1, 289689, Control_c, 0, 64, 65
1, 289693, Note_on_c, 0, 61, 61
1, 289704, Control_c, 0, 64, 93
1, 289719, Control_c, 0, 64, 127
1, 289734, Control_c, 0, 67, 13
1, 289741, Note_off_c, 0, 61, 60
1, 289749, Control_c, 0, 67, 12
1, 289778, Control_c, 0, 67, 12
1, 289783, Note_on_c, 0, 67, 42
1, 289793, Control_c, 0, 67, 11
1, 289813, Note_off_c, 0, 67, 57
1, 289904, Control_c, 0, 67, 10
1, 289905, Note_on_c, 0, 77, 69
1, 289914, Note_on_c, 0, 51, 47
1, 289918, Note_on_c, 0, 61, 47
1, 289919, Control_c, 0, 67, 8
1, 289928, Note_off_c, 0, 77, 66
1, 289934, Control_c, 0, 67, 0
1, 289942, Note_off_c, 0, 51, 60
1, 289958, Note_off_c, 0, 61, 65
1, 290179, Note_on_c, 0, 63, 49
1, 290187, Note_on_c, 0, 55, 36
1, 290220, Note_off_c, 0, 63, 61
1, 290222, Note_off_c, 0, 55, 49
1, 290413, Note_on_c, 0, 75, 56
1, 290414, Note_on_c, 0, 61, 43
1, 290421, Note_on_c, 0, 67, 42
1, 290456, Note_off_c, 0, 61, 54
1, 290458, Note_off_c, 0, 67, 66
1, 290660, Note_on_c, 0, 73, 67
1, 290784, Note_off_c, 0, 75, 24
1, 290884, Note_on_c, 0, 70, 78
1, 290950, Note_off_c, 0, 73, 50
1, 290980, Control_c, 0, 67, 9
1, 290995, Control_c, 0, 67, 11
1, 291010, Control_c, 0, 67, 12
1, 291024, Control_c, 0, 67, 14
1, 291039, Control_c, 0, 67, 15
1, 291054, Control_c, 0, 67, 18
1, 291069, Control_c, 0, 67, 20
1, 291084, Control_c, 0, 67, 22
1, 291099, Control_c, 0, 67, 24
1, 291113, Control_c, 0, 67, 24
1, 291128, Control_c, 0, 67, 25
1, 291143, Control_c, 0, 67, 25
1, 291170, Note_on_c, 0, 44, 53
1, 291217, Control_c, 0, 64, 84
1, 291231, Control_c, 0, 64, 57
1, 291243, Note_on_c, 0, 67, 66
1, 291244, Note_off_c, 0, 70, 61
1, 291246, Control_c, 0, 64, 25
1, 291263, Control_c, 0, 64, 0
1, 291263, Control_c, 0, 67, 25
1, 291277, Control_c, 0, 67, 24
1, 291292, Control_c, 0, 67, 24
1, 291322, Control_c, 0, 67, 23
1, 291343, Control_c, 0, 67, 22
1, 291358, Control_c, 0, 67, 21
1, 291388, Control_c, 0, 64, 22
1, 291403, Control_c, 0, 64, 37
1, 291418, Control_c, 0, 64, 53
1, 291421, Note_off_c, 0, 44, 54
1, 291433, Control_c, 0, 64, 75
1, 291448, Control_c, 0, 64, 127
1, 291564, Control_c, 0, 67, 20
1, 291579, Note_on_c, 0, 51, 54
1, 291580, Note_on_c, 0, 68, 79
1, 291585, Note_off_c, 0, 67, 51
1, 291589, Note_on_c, 0, 60, 53
1, 291594, Control_c, 0, 64, 88
1, 291594, Control_c, 0, 67, 19
1, 291606, Note_off_c, 0, 51, 66
1, 291609, Control_c, 0, 64, 75
1, 291609, Control_c, 0, 67, 18
1, 291624, Control_c, 0, 64, 78
1, 291624, Control_c, 0, 67, 17
1, 291634, Note_off_c, 0, 60, 63
1, 291638, Control_c, 0, 64, 110
1, 291638, Control_c, 0, 67, 17
1, 291653, Control_c, 0, 64, 127
1, 291668, Control_c, 0, 67, 16
1, 291678, Note_off_c, 0, 68, 59
1, 291713, Control_c, 0, 67, 17
1, 291787, Control_c, 0, 67, 16
1, 291802, Control_c, 0, 64, 82
1, 291808, Note_on_c, 0, 56, 55
1, 291808, Note_on_c, 0, 72, 74
1, 291811, Note_on_c, 0, 63, 55
1, 291816, Control_c, 0, 64, 61
1, 291831, Control_c, 0, 64, 51
1, 291842, Note_off_c, 0, 56, 61
1, 291846, Control_c, 0, 64, 52
1, 291846, Control_c, 0, 67, 16
1, 291860, Note_off_c, 0, 63, 57
1, 291860, Control_c, 0, 64, 63
1, 291875, Control_c, 0, 64, 127
1, 291940, Note_off_c, 0, 72, 47
1, 291949, Control_c, 0, 67, 15
1, 291964, Control_c, 0, 67, 15
1, 291979, Control_c, 0, 67, 14
1, 292013, Note_on_c, 0, 75, 75
1, 292018, Note_on_c, 0, 68, 51
1, 292020, Note_on_c, 0, 60, 56
1, 292042, Note_off_c, 0, 68, 58
1, 292059, Note_off_c, 0, 60, 64
1, 292059, Note_off_c, 0, 75, 61
1, 292218, Note_on_c, 0, 79, 66
1, 292269, Control_c, 0, 67, 13
1, 292318, Note_off_c, 0, 79, 61
1, 292320, Note_on_c, 0, 80, 66
1, 292343, Control_c, 0, 67, 14
1, 292345, Note_off_c, 0, 80, 68
1, 292372, Control_c, 0, 67, 15
1, 292402, Control_c, 0, 67, 15
1, 292429, Note_on_c, 0, 84, 66
1, 292478, Note_off_c, 0, 84, 59
1, 292497, Note_on_c, 0, 87, 68
1, 292567, Note_off_c, 0, 87, 63
1, 292589, Note_on_c, 0, 96, 63
1, 292595, Control_c, 0, 67, 15
1, 292674, Note_on_c, 0, 92, 67
1, 292685, Note_off_c, 0, 96, 60
1, 292701, Note_off_c, 0, 92, 69
1, 292728, Control_c, 0, 67, 14
1, 292757, Control_c, 0, 67, 14
1, 292839, Control_c, 0, 67, 14
1, 292855, Control_c, 0, 67, 15
1, 292870, Control_c, 0, 67, 15
1, 292884, Control_c, 0, 67, 16
1, 292899, Control_c, 0, 67, 17
1, 292914, Control_c, 0, 67, 19
1, 292929, Control_c, 0, 67, 20
1, 292944, Control_c, 0, 67, 22
1, 292959, Control_c, 0, 67, 24
1, 292962, Note_on_c, 0, 68, 41
1, 292962, Note_on_c, 0, 60, 44
1, 292974, Control_c, 0, 67, 25
1, 292988, Control_c, 0, 67, 26
1, 293028, Note_off_c, 0, 60, 52
1, 293035, Note_off_c, 0, 68, 47
1, 293092, Control_c, 0, 67, 25
1, 293106, Control_c, 0, 67, 24
1, 293121, Control_c, 0, 67, 23
1, 293136, Control_c, 0, 67, 22
1, 293151, Control_c, 0, 67, 21
1, 293166, Control_c, 0, 67, 20
1, 293180, Control_c, 0, 67, 19
1, 293195, Control_c, 0, 67, 18
1, 293210, Control_c, 0, 67, 16
1, 293224, Control_c, 0, 67, 15
1, 293239, Control_c, 0, 67, 14
1, 293251, Note_on_c, 0, 72, 44
1, 293254, Control_c, 0, 67, 13
1, 293259, Note_on_c, 0, 63, 43
1, 293284, Control_c, 0, 67, 12
1, 293293, Note_off_c, 0, 72, 62
1, 293309, Note_off_c, 0, 63, 43
1, 293314, Control_c, 0, 67, 11
1, 293329, Control_c, 0, 67, 10
1, 293344, Control_c, 0, 67, 0
1, 293657, Note_on_c, 0, 75, 44
1, 293674, Note_on_c, 0, 68, 36
1, 293750, Note_off_c, 0, 75, 59
1, 293755, Note_off_c, 0, 68, 39
1, 293962, Note_on_c, 0, 75, 54
1, 294005, Note_off_c, 0, 75, 60
1, 294029, Note_on_c, 0, 77, 66
1, 294082, Note_off_c, 0, 77, 58
1, 294097, Note_on_c, 0, 75, 61
1, 294135, Note_off_c, 0, 75, 62
1, 294149, Note_on_c, 0, 74, 60
1, 294205, Note_on_c, 0, 75, 64
1, 294210, Note_off_c, 0, 74, 62
1, 294211, Control_c, 0, 64, 107
1, 294226, Control_c, 0, 64, 79
1, 294241, Control_c, 0, 64, 65
1, 294256, Control_c, 0, 64, 56
1, 294271, Control_c, 0, 64, 41
1, 294286, Control_c, 0, 64, 0
1, 294343, Note_on_c, 0, 83, 64
1, 294345, Note_off_c, 0, 75, 61
1, 294852, Note_on_c, 0, 84, 53
1, 294901, Note_off_c, 0, 83, 54
1, 294942, Note_on_c, 0, 78, 61
1, 294952, Note_off_c, 0, 84, 57
1, 295605, Control_c, 0, 67, 9
1, 295619, Control_c, 0, 67, 12
1, 295634, Control_c, 0, 67, 15
1, 295649, Control_c, 0, 67, 18
1, 295664, Control_c, 0, 67, 19
1, 295679, Control_c, 0, 67, 21
1, 295693, Control_c, 0, 67, 23
1, 295708, Control_c, 0, 67, 25
1, 295723, Control_c, 0, 67, 27
1, 295734, Note_on_c, 0, 79, 56
1, 295738, Control_c, 0, 67, 28
1, 295753, Control_c, 0, 67, 30
1, 295761, Note_off_c, 0, 78, 55
1, 295767, Control_c, 0, 67, 32
1, 295782, Control_c, 0, 67, 35
1, 295797, Control_c, 0, 67, 37
1, 295812, Control_c, 0, 67, 40
1, 295834, Control_c, 0, 67, 41
1, 295849, Control_c, 0, 67, 43
1, 295864, Control_c, 0, 67, 43
1, 295923, Control_c, 0, 64, 13
1, 295923, Control_c, 0, 67, 43
1, 295938, Control_c, 0, 64, 21
1, 295938, Control_c, 0, 67, 42
1, 295952, Note_on_c, 0, 44, 46
1, 295953, Control_c, 0, 64, 28
1, 295953, Control_c, 0, 67, 40
1, 295968, Control_c, 0, 64, 33
1, 295968, Control_c, 0, 67, 39
1, 295982, Control_c, 0, 64, 39
1, 295982, Control_c, 0, 67, 38
1, 295997, Control_c, 0, 64, 47
1, 295997, Control_c, 0, 67, 37
1, 296003, Note_off_c, 0, 79, 62
1, 296012, Control_c, 0, 64, 56
1, 296012, Control_c, 0, 67, 37
1, 296026, Control_c, 0, 64, 62
1, 296026, Control_c, 0, 67, 36
1, 296041, Control_c, 0, 64, 67
1, 296041, Control_c, 0, 67, 35
1, 296057, Control_c, 0, 64, 69
1, 296057, Control_c, 0, 67, 34
1, 296102, Control_c, 0, 64, 69
1, 296117, Control_c, 0, 64, 71
1, 296131, Control_c, 0, 64, 73
1, 296146, Control_c, 0, 64, 77
1, 296161, Control_c, 0, 64, 81
1, 296176, Control_c, 0, 64, 85
1, 296191, Control_c, 0, 64, 88
1, 296191, Control_c, 0, 67, 34
1, 296205, Control_c, 0, 64, 91
1, 296214, Note_off_c, 0, 44, 51
1, 296220, Control_c, 0, 64, 95
1, 296220, Control_c, 0, 67, 33
1, 296235, Control_c, 0, 64, 101
1, 296250, Control_c, 0, 64, 119
1, 296250, Control_c, 0, 67, 33
1, 296265, Control_c, 0, 64, 127
1, 296310, Control_c, 0, 67, 32
1, 296324, Control_c, 0, 67, 32
1, 296339, Control_c, 0, 67, 31
1, 296351, Note_on_c, 0, 63, 49
1, 296354, Control_c, 0, 67, 30
1, 296369, Control_c, 0, 67, 30
1, 296384, Control_c, 0, 67, 28
1, 296398, Control_c, 0, 67, 27
1, 296399, Note_off_c, 0, 63, 62
1, 296413, Control_c, 0, 67, 25
1, 296420, Note_on_c, 0, 72, 55
1, 296428, Control_c, 0, 67, 24
1, 296443, Control_c, 0, 67, 22
1, 296457, Control_c, 0, 67, 19
1, 296472, Control_c, 0, 67, 17
1, 296487, Control_c, 0, 67, 15
1, 296502, Control_c, 0, 67, 12
1, 296517, Control_c, 0, 67, 8
1, 296531, Control_c, 0, 67, 0
1, 296551, Note_on_c, 0, 60, 39
1, 296556, Note_on_c, 0, 51, 35
1, 296587, Note_off_c, 0, 72, 39
1, 296602, Note_off_c, 0, 51, 51
1, 296606, Note_on_c, 0, 82, 81
1, 296623, Note_off_c, 0, 60, 59
1, 297019, Note_on_c, 0, 56, 49
1, 297030, Note_on_c, 0, 63, 45
1, 297060, Note_off_c, 0, 56, 60
1, 297077, Note_off_c, 0, 63, 53
1, 297328, Note_on_c, 0, 80, 61
1, 297330, Note_on_c, 0, 68, 46
1, 297338, Note_on_c, 0, 60, 45
1, 297371, Note_off_c, 0, 68, 57
1, 297373, Note_off_c, 0, 60, 56
1, 297403, Note_off_c, 0, 82, 45
1, 297436, Note_off_c, 0, 80, 53
1, 297587, Note_on_c, 0, 72, 60
1, 297675, Control_c, 0, 67, 11
1, 297690, Control_c, 0, 67, 17
1, 297704, Control_c, 0, 67, 23
1, 297719, Control_c, 0, 67, 29
1, 297734, Control_c, 0, 67, 37
1, 297749, Control_c, 0, 67, 45
1, 297764, Control_c, 0, 67, 53
1, 297778, Control_c, 0, 67, 61
1, 297793, Control_c, 0, 67, 68
1, 297808, Control_c, 0, 67, 75
1, 297809, Note_on_c, 0, 73, 66
1, 297815, Note_off_c, 0, 72, 58
1, 297822, Control_c, 0, 67, 83
1, 297837, Control_c, 0, 67, 92
1, 297852, Control_c, 0, 67, 103
1, 297867, Control_c, 0, 67, 114
1, 297882, Control_c, 0, 67, 127
1, 297900, Note_off_c, 0, 73, 62
1, 298022, Note_on_c, 0, 44, 59
1, 298030, Control_c, 0, 64, 86
1, 298044, Control_c, 0, 64, 60
1, 298059, Control_c, 0, 64, 37
1, 298082, Control_c, 0, 64, 0
1, 298141, Control_c, 0, 64, 23
1, 298146, Note_off_c, 0, 44, 56
1, 298149, Note_on_c, 0, 63, 56
1, 298156, Control_c, 0, 64, 39
1, 298170, Control_c, 0, 64, 53
1, 298185, Control_c, 0, 64, 65
1, 298200, Control_c, 0, 64, 86
1, 298211, Note_off_c, 0, 63, 60
1, 298212, Note_on_c, 0, 68, 70
1, 298215, Control_c, 0, 64, 127
1, 298350, Note_on_c, 0, 60, 55
1, 298354, Note_off_c, 0, 68, 53
1, 298359, Note_on_c, 0, 51, 47
1, 298360, Note_on_c, 0, 77, 78
1, 298385, Note_off_c, 0, 51, 61
1, 298393, Note_off_c, 0, 60, 61
1, 298581, Note_on_c, 0, 56, 61
1, 298590, Note_on_c, 0, 63, 60
1, 298601, Control_c, 0, 67, 119
1, 298616, Control_c, 0, 67, 98
1, 298622, Note_off_c, 0, 56, 60
1, 298627, Note_off_c, 0, 63, 57
1, 298631, Control_c, 0, 67, 66
1, 298645, Control_c, 0, 67, 25
1, 298660, Control_c, 0, 67, 0
1, 298693, Note_on_c, 0, 76, 82
1, 298734, Note_off_c, 0, 77, 57
1, 298828, Note_on_c, 0, 68, 71
1, 298829, Note_on_c, 0, 60, 71
1, 298852, Note_off_c, 0, 68, 67
1, 298867, Note_off_c, 0, 60, 58
1, 298945, Note_on_c, 0, 75, 88
1, 298978, Note_off_c, 0, 76, 60
1, 299086, Note_on_c, 0, 74, 87
1, 299103, Note_off_c, 0, 75, 61
1, 299153, Note_off_c, 0, 74, 66
1, 299210, Note_on_c, 0, 73, 87
1, 299284, Note_off_c, 0, 73, 62
1, 299322, Note_on_c, 0, 72, 91
1, 299395, Note_off_c, 0, 72, 62
1, 299475, Note_on_c, 0, 38, 86
1, 299513, Control_c, 0, 64, 79
1, 299528, Control_c, 0, 64, 52
1, 299542, Control_c, 0, 64, 0
1, 299594, Control_c, 0, 64, 20
1, 299609, Control_c, 0, 64, 42
1, 299624, Control_c, 0, 64, 62
1, 299639, Control_c, 0, 64, 127
1, 299656, Note_off_c, 0, 38, 61
1, 299672, Note_on_c, 0, 56, 83
1, 299729, Note_off_c, 0, 56, 63
1, 299788, Note_on_c, 0, 65, 86
1, 299911, Note_on_c, 0, 56, 75
1, 299913, Note_on_c, 0, 50, 69
1, 300008, Note_on_c, 0, 72, 92
1, 300033, Note_off_c, 0, 65, 64
1, 300131, Note_off_c, 0, 56, 50
1, 300190, Note_off_c, 0, 50, 30
1, 300330, Note_on_c, 0, 62, 83
1, 300357, Note_on_c, 0, 53, 57
1, 300423, Note_off_c, 0, 53, 62
1, 300495, Note_off_c, 0, 62, 61
1, 300517, Note_on_c, 0, 71, 85
1, 300563, Note_off_c, 0, 72, 57
1, 300666, Note_on_c, 0, 65, 78
1, 300670, Note_on_c, 0, 56, 72
1, 300687, Note_off_c, 0, 65, 71
1, 300703, Note_off_c, 0, 56, 63
1, 300773, Note_on_c, 0, 70, 88
1, 300800, Note_off_c, 0, 71, 63
1, 300918, Note_on_c, 0, 69, 87
1, 300954, Note_off_c, 0, 70, 54
1, 301049, Note_on_c, 0, 72, 82
1, 301087, Note_off_c, 0, 69, 64
1, 301151, Note_on_c, 0, 71, 88
1, 301181, Note_off_c, 0, 72, 62
1, 301256, Note_on_c, 0, 70, 94
1, 301262, Note_off_c, 0, 71, 62
1, 301352, Note_on_c, 0, 69, 95
1, 301361, Note_off_c, 0, 70, 61
1, 301403, Control_c, 0, 64, 106
1, 301418, Control_c, 0, 64, 62
1, 301433, Control_c, 0, 64, 33
1, 301447, Control_c, 0, 64, 0
1, 301478, Note_on_c, 0, 70, 82
1, 301508, Note_off_c, 0, 69, 59
1, 301577, Note_off_c, 0, 70, 64
1, 301577, Note_on_c, 0, 71, 80
1, 301625, Control_c, 0, 64, 14
1, 301641, Control_c, 0, 64, 18
1, 301656, Control_c, 0, 64, 21
1, 301657, Note_on_c, 0, 70, 86
1, 301660, Note_off_c, 0, 71, 65
1, 301670, Control_c, 0, 64, 22
1, 301685, Control_c, 0, 64, 22
1, 301700, Control_c, 0, 64, 23
1, 301715, Control_c, 0, 64, 24
1, 301726, Note_off_c, 0, 70, 64
1, 301730, Control_c, 0, 64, 26
1, 301732, Note_on_c, 0, 72, 76
1, 301744, Control_c, 0, 64, 30
1, 301759, Control_c, 0, 64, 33
1, 301774, Control_c, 0, 64, 37
1, 301788, Control_c, 0, 64, 40
1, 301791, Note_off_c, 0, 72, 64
1, 301796, Note_on_c, 0, 70, 75
1, 301803, Control_c, 0, 64, 43
1, 301826, Control_c, 0, 64, 47
1, 301841, Control_c, 0, 64, 51
1, 301851, Note_off_c, 0, 70, 63
1, 301851, Note_on_c, 0, 72, 73
1, 301856, Control_c, 0, 64, 53
1, 301870, Control_c, 0, 64, 55
1, 301885, Control_c, 0, 64, 55
1, 301920, Note_off_c, 0, 72, 64
1, 301935, Note_on_c, 0, 70, 77
1, 301944, Control_c, 0, 64, 55
1, 301974, Control_c, 0, 64, 54
1, 301978, Note_off_c, 0, 70, 61
1, 301982, Note_on_c, 0, 72, 75
1, 301989, Control_c, 0, 64, 53
1, 302003, Control_c, 0, 64, 52
1, 302018, Control_c, 0, 64, 51
1, 302033, Control_c, 0, 64, 51
1, 302048, Control_c, 0, 64, 50
1, 302051, Note_off_c, 0, 72, 62
1, 302063, Control_c, 0, 64, 50
1, 302065, Note_on_c, 0, 70, 77
1, 302107, Control_c, 0, 64, 50
1, 302113, Note_off_c, 0, 70, 62
1, 302122, Note_on_c, 0, 72, 71
1, 302122, Control_c, 0, 64, 51
1, 302133, Note_on_c, 0, 65, 60
1, 302137, Control_c, 0, 64, 53
1, 302139, Note_on_c, 0, 50, 61
1, 302148, Note_on_c, 0, 58, 58
1, 302152, Control_c, 0, 64, 56
1, 302156, Note_on_c, 0, 56, 59
1, 302167, Control_c, 0, 64, 61
1, 302182, Control_c, 0, 64, 67
1, 302196, Note_off_c, 0, 50, 57
1, 302196, Control_c, 0, 64, 79
1, 302209, Note_off_c, 0, 56, 63
1, 302211, Control_c, 0, 64, 103
1, 302212, Note_on_c, 0, 70, 77
1, 302213, Note_off_c, 0, 72, 61
1, 302217, Note_off_c, 0, 58, 62
1, 302224, Note_off_c, 0, 65, 65
1, 302226, Control_c, 0, 64, 127
1, 302275, Note_off_c, 0, 70, 61
1, 302286, Note_on_c, 0, 72, 66
1, 302364, Note_off_c, 0, 72, 62
1, 302376, Note_on_c, 0, 70, 71
1, 302417, Note_off_c, 0, 70, 58
1, 302430, Note_on_c, 0, 72, 61
1, 302500, Note_off_c, 0, 72, 63
1, 302513, Note_on_c, 0, 70, 71
1, 302558, Note_off_c, 0, 70, 60
1, 302579, Note_on_c, 0, 72, 62
1, 302646, Note_off_c, 0, 72, 62
1, 302668, Note_on_c, 0, 70, 64
1, 302697, Note_off_c, 0, 70, 61
1, 302734, Note_on_c, 0, 72, 56
1, 302793, Note_off_c, 0, 72, 60
1, 302803, Note_on_c, 0, 70, 67
1, 302865, Note_off_c, 0, 70, 62
1, 302892, Note_on_c, 0, 72, 63
1, 302954, Note_off_c, 0, 72, 61
1, 302957, Note_on_c, 0, 70, 75
1, 303029, Note_off_c, 0, 70, 60
1, 303052, Note_on_c, 0, 72, 70
1, 303127, Note_on_c, 0, 70, 71
1, 303128, Note_off_c, 0, 72, 60
1, 303172, Note_off_c, 0, 70, 61
1, 303185, Note_on_c, 0, 72, 66
1, 303240, Note_off_c, 0, 72, 63
1, 303245, Note_on_c, 0, 70, 69
1, 303300, Note_off_c, 0, 70, 64
1, 303313, Note_on_c, 0, 69, 77
1, 303375, Note_off_c, 0, 69, 63
1, 303377, Note_on_c, 0, 70, 82
1, 303427, Note_off_c, 0, 70, 64
1, 303440, Note_on_c, 0, 71, 84
1, 303501, Note_off_c, 0, 71, 66
1, 303506, Note_on_c, 0, 72, 67
1, 303526, Note_on_c, 0, 73, 83
1, 303530, Note_off_c, 0, 72, 69
1, 303577, Note_off_c, 0, 73, 66
1, 303579, Note_on_c, 0, 74, 78
1, 303617, Note_on_c, 0, 72, 35
1, 303618, Note_off_c, 0, 72, 127
1, 303626, Note_off_c, 0, 74, 63
1, 303640, Note_on_c, 0, 75, 87
1, 303670, Note_off_c, 0, 75, 64
1, 303691, Note_on_c, 0, 76, 91
1, 303755, Note_on_c, 0, 77, 93
1, 303761, Note_off_c, 0, 76, 62
1, 303809, Note_on_c, 0, 78, 92
1, 303814, Note_off_c, 0, 77, 65
1, 303863, Note_on_c, 0, 79, 70
1, 303863, Note_off_c, 0, 78, 68
1, 303916, Note_off_c, 0, 79, 64
1, 303937, Note_on_c, 0, 80, 89
1, 303979, Note_off_c, 0, 80, 65
1, 303994, Note_on_c, 0, 81, 81
1, 304013, Note_on_c, 0, 83, 59
1, 304036, Note_off_c, 0, 83, 62
1, 304040, Note_on_c, 0, 82, 88
1, 304042, Note_off_c, 0, 81, 66
1, 304043, Poly_aftertouch_c, 0, 39, 127
1, 304066, Note_off_c, 0, 82, 70
1, 304100, Note_on_c, 0, 83, 91
1, 304139, Note_off_c, 0, 83, 68
1, 304143, Note_on_c, 0, 84, 89
1, 304160, Note_off_c, 0, 84, 74
1, 304206, Control_c, 0, 64, 74
1, 304221, Control_c, 0, 64, 29
1, 304223, Poly_aftertouch_c, 0, 39, 0
1, 304231, Note_on_c, 0, 49, 107
1, 304236, Control_c, 0, 64, 0
1, 304240, Note_on_c, 0, 37, 91
1, 304272, Note_off_c, 0, 37, 65
1, 304295, Control_c, 0, 64, 31
1, 304310, Control_c, 0, 64, 53
1, 304325, Control_c, 0, 64, 111
1, 304339, Control_c, 0, 64, 127
1, 304390, Note_off_c, 0, 49, 58
1, 304658, Note_on_c, 0, 49, 79
1, 304658, Note_on_c, 0, 87, 103
1, 304660, Note_on_c, 0, 54, 68
1, 304662, Note_on_c, 0, 58, 81
1, 304662, Note_on_c, 0, 75, 96
1, 305040, Note_off_c, 0, 54, 54
1, 305044, Note_on_c, 0, 61, 86
1, 305056, Note_off_c, 0, 49, 41
1, 305059, Note_on_c, 0, 82, 90
1, 305067, Note_on_c, 0, 78, 85
1, 305075, Note_off_c, 0, 58, 38
1, 305085, Note_off_c, 0, 87, 55
1, 305090, Note_off_c, 0, 61, 61
1, 305103, Note_off_c, 0, 75, 58
1, 305275, Note_on_c, 0, 58, 67
1, 305275, Note_on_c, 0, 66, 76
1, 305280, Note_on_c, 0, 61, 73
1, 305285, Note_on_c, 0, 85, 99
1, 305290, Note_on_c, 0, 73, 93
1, 305297, Note_off_c, 0, 66, 69
1, 305306, Note_off_c, 0, 78, 64
1, 305308, Note_off_c, 0, 82, 58
1, 305310, Note_off_c, 0, 61, 62
1, 305316, Note_off_c, 0, 58, 65
1, 305326, Note_off_c, 0, 73, 63
1, 305328, Note_off_c, 0, 85, 67
1, 305506, Note_on_c, 0, 70, 98
1, 305509, Note_on_c, 0, 82, 99
1, 305538, Note_off_c, 0, 70, 59
1, 305542, Note_off_c, 0, 82, 61
1, 305730, Note_on_c, 0, 66, 94
1, 305738, Note_on_c, 0, 78, 90
1, 305865, Poly_aftertouch_c, 0, 27, 127
1, 305901, Poly_aftertouch_c, 0, 27, 0
1, 305909, Control_c, 0, 64, 61
1, 305920, Note_on_c, 0, 37, 92
1, 305924, Control_c, 0, 64, 0
1, 305926, Note_on_c, 0, 25, 78
1, 305952, Note_off_c, 0, 78, 59
1, 305968, Control_c, 0, 64, 11
1, 305969, Note_off_c, 0, 25, 65
1, 305983, Control_c, 0, 64, 43
1, 305998, Control_c, 0, 64, 66
1, 306013, Control_c, 0, 64, 127
1, 306016, Note_off_c, 0, 37, 63
1, 306025, Note_off_c, 0, 66, 59
1, 306123, Note_on_c, 0, 75, 82
1, 306125, Note_on_c, 0, 63, 78
1, 306179, Note_off_c, 0, 63, 61
1, 306179, Note_off_c, 0, 75, 60
1, 306254, Note_on_c, 0, 49, 65
1, 306254, Note_on_c, 0, 65, 80
1, 306257, Note_on_c, 0, 56, 67
1, 306276, Note_on_c, 0, 59, 40
1, 306287, Note_off_c, 0, 49, 68
1, 306292, Note_off_c, 0, 56, 62
1, 306310, Poly_aftertouch_c, 0, 58, 127
1, 306313, Note_off_c, 0, 59, 53
1, 306365, Poly_aftertouch_c, 0, 58, 0
1, 306377, Note_on_c, 0, 74, 96
1, 306380, Note_on_c, 0, 62, 94
1, 306397, Note_off_c, 0, 65, 39
1, 306450, Poly_aftertouch_c, 0, 54, 127
1, 306486, Poly_aftertouch_c, 0, 54, 0
1, 306507, Note_on_c, 0, 59, 80
1, 306520, Note_on_c, 0, 53, 60
1, 306527, Note_on_c, 0, 68, 97
1, 306529, Note_off_c, 0, 74, 67
1, 306535, Note_on_c, 0, 52, 54
1, 306541, Note_off_c, 0, 59, 66
1, 306543, Note_off_c, 0, 62, 60
1, 306562, Note_off_c, 0, 52, 59
1, 306564, Note_off_c, 0, 53, 66
1, 306636, Note_off_c, 0, 68, 58
1, 306662, Note_on_c, 0, 61, 102
1, 306663, Note_on_c, 0, 73, 98
1, 306727, Note_off_c, 0, 61, 64
1, 306749, Poly_aftertouch_c, 0, 44, 127
1, 306762, Control_c, 0, 64, 69
1, 306772, Note_on_c, 0, 74, 63
1, 306777, Control_c, 0, 64, 0
1, 306778, Note_off_c, 0, 73, 64
1, 306784, Poly_aftertouch_c, 0, 44, 0
1, 306790, Note_off_c, 0, 74, 68
1, 306808, Poly_aftertouch_c, 0, 39, 0
1, 306822, Note_on_c, 0, 49, 103
1, 306824, Note_on_c, 0, 37, 84
1, 306836, Control_c, 0, 64, 52
1, 306850, Control_c, 0, 64, 127
1, 306853, Note_off_c, 0, 37, 65
1, 306864, Note_off_c, 0, 49, 69
1, 307025, Note_on_c, 0, 80, 106
1, 307026, Note_on_c, 0, 92, 102
1, 307032, Note_on_c, 0, 49, 74
1, 307036, Note_on_c, 0, 58, 77
1, 307041, Note_on_c, 0, 54, 62
1, 307158, Note_off_c, 0, 49, 55
1, 307176, Note_off_c, 0, 54, 61
1, 307178, Note_off_c, 0, 58, 40
1, 307197, Note_on_c, 0, 61, 78
1, 307208, Note_on_c, 0, 85, 85
1, 307213, Note_on_c, 0, 82, 82
1, 307245, Note_off_c, 0, 92, 39
1, 307261, Note_off_c, 0, 80, 61
1, 307275, Note_off_c, 0, 61, 58
1, 307309, Poly_aftertouch_c, 0, 60, 127
1, 307328, Note_off_c, 0, 82, 61
1, 307337, Note_off_c, 0, 85, 59
1, 307342, Note_on_c, 0, 90, 97
1, 307343, Note_on_c, 0, 78, 100
1, 307345, Note_on_c, 0, 66, 87
1, 307345, Poly_aftertouch_c, 0, 60, 0
1, 307347, Note_on_c, 0, 61, 84
1, 307364, Note_off_c, 0, 66, 70
1, 307366, Note_off_c, 0, 61, 71
1, 307372, Note_off_c, 0, 78, 62
1, 307372, Note_off_c, 0, 90, 67
1, 307396, Note_on_c, 0, 77, 22
1, 307438, Note_off_c, 0, 77, 48
1, 307506, Note_on_c, 0, 73, 94
1, 307506, Note_on_c, 0, 85, 102
1, 307525, Note_off_c, 0, 73, 68
1, 307539, Note_off_c, 0, 85, 59
1, 307622, Note_on_c, 0, 30, 44
1, 307634, Note_on_c, 0, 70, 103
1, 307637, Note_on_c, 0, 82, 103
1, 307668, Note_on_c, 0, 34, 7
1, 307687, Note_off_c, 0, 30, 45
1, 307695, Note_on_c, 0, 83, 5
1, 307719, Control_c, 0, 64, 62
1, 307722, Note_off_c, 0, 34, 50
1, 307733, Control_c, 0, 64, 0
1, 307738, Note_on_c, 0, 38, 101
1, 307747, Note_on_c, 0, 26, 85
1, 307750, Note_off_c, 0, 83, 47
1, 307777, Note_off_c, 0, 38, 69
1, 307778, Note_off_c, 0, 26, 61
1, 307778, Control_c, 0, 64, 47
1, 307790, Note_off_c, 0, 82, 60
1, 307793, Note_on_c, 0, 28, 20
1, 307793, Control_c, 0, 64, 86
1, 307812, Note_off_c, 0, 70, 60
1, 307815, Control_c, 0, 64, 127
1, 307846, Note_off_c, 0, 28, 48
1, 307883, Note_on_c, 0, 70, 103
1, 307885, Note_on_c, 0, 82, 97
1, 307904, Note_off_c, 0, 82, 66
1, 307911, Note_off_c, 0, 70, 61
1, 308016, Note_on_c, 0, 59, 61
1, 308019, Note_on_c, 0, 65, 98
1, 308023, Note_on_c, 0, 52, 49
1, 308034, Note_on_c, 0, 57, 49
1, 308044, Note_off_c, 0, 59, 66
1, 308055, Note_off_c, 0, 52, 56
1, 308057, Note_off_c, 0, 65, 64
1, 308057, Note_off_c, 0, 57, 58
1, 308142, Note_on_c, 0, 69, 102
1, 308144, Note_on_c, 0, 81, 102
1, 308180, Note_off_c, 0, 69, 69
1, 308200, Note_off_c, 0, 81, 50
1, 308258, Note_on_c, 0, 62, 77
1, 308266, Note_on_c, 0, 65, 92
1, 308269, Note_on_c, 0, 56, 85
1, 308284, Note_off_c, 0, 65, 75
1, 308285, Note_on_c, 0, 71, 89
1, 308311, Note_off_c, 0, 62, 65
1, 308315, Note_off_c, 0, 56, 66
1, 308318, Note_on_c, 0, 70, 35
1, 308319, Note_off_c, 0, 70, 127
1, 308418, Note_off_c, 0, 71, 67
1, 308452, Note_on_c, 0, 80, 99
1, 308453, Note_on_c, 0, 68, 102
1, 308493, Note_on_c, 0, 81, 47
1, 308510, Note_on_c, 0, 30, 17
1, 308511, Note_off_c, 0, 30, 127
1, 308528, Note_off_c, 0, 81, 49
1, 308564, Control_c, 0, 64, 67
1, 308579, Control_c, 0, 64, 0
1, 308603, Note_off_c, 0, 68, 61
1, 308618, Note_on_c, 0, 39, 119
1, 308623, Note_off_c, 0, 80, 64
1, 308627, Note_on_c, 0, 27, 93
1, 308638, Control_c, 0, 64, 40
1, 308652, Note_off_c, 0, 27, 68
1, 308653, Note_off_c, 0, 39, 68
1, 308653, Control_c, 0, 64, 127
1, 308689, Note_on_c, 0, 30, 3
1, 308723, Note_off_c, 0, 30, 46
1, 308912, Note_on_c, 0, 77, 100
1, 308914, Note_on_c, 0, 80, 81
1, 308914, Note_on_c, 0, 84, 85
1, 308916, Note_on_c, 0, 89, 97
1, 308925, Note_on_c, 0, 65, 84
1, 308925, Note_on_c, 0, 51, 82
1, 308928, Note_on_c, 0, 59, 61
1, 308948, Note_on_c, 0, 64, 49
1, 308977, Note_on_c, 0, 60, 18
1, 308980, Note_off_c, 0, 65, 61
1, 308981, Note_off_c, 0, 64, 48
1, 308996, Note_off_c, 0, 51, 61
1, 309012, Note_off_c, 0, 59, 55
1, 309028, Note_off_c, 0, 60, 44
1, 309035, Note_off_c, 0, 80, 60
1, 309040, Note_off_c, 0, 89, 63
1, 309058, Note_off_c, 0, 77, 61
1, 309260, Note_off_c, 0, 84, 61
1, 309275, Note_on_c, 0, 87, 94
1, 309282, Note_on_c, 0, 63, 96
1, 309282, Note_on_c, 0, 75, 92
1, 309285, Note_on_c, 0, 60, 79
1, 309288, Note_on_c, 0, 56, 79
1, 309288, Note_on_c, 0, 80, 79
1, 309291, Note_on_c, 0, 51, 73
1, 309317, Note_off_c, 0, 80, 69
1, 309331, Note_off_c, 0, 75, 62
1, 309335, Note_off_c, 0, 87, 67
1, 309336, Note_off_c, 0, 63, 64
1, 309338, Note_off_c, 0, 51, 63
1, 309345, Note_off_c, 0, 60, 60
1, 309353, Note_off_c, 0, 56, 61
1, 309457, Note_on_c, 0, 60, 75
1, 309460, Note_on_c, 0, 72, 95
1, 309462, Note_on_c, 0, 63, 80
1, 309463, Note_on_c, 0, 84, 82
1, 309464, Note_on_c, 0, 56, 71
1, 309471, Note_on_c, 0, 51, 56
1, 309478, Note_off_c, 0, 84, 68
1, 309486, Note_off_c, 0, 72, 65
1, 309490, Note_off_c, 0, 63, 61
1, 309499, Note_off_c, 0, 51, 67
1, 309509, Note_off_c, 0, 60, 61
1, 309511, Note_on_c, 0, 83, 16
1, 309521, Note_off_c, 0, 56, 58
1, 309564, Note_off_c, 0, 83, 51
1, 309586, Note_on_c, 0, 56, 67
1, 309590, Note_on_c, 0, 63, 78
1, 309592, Note_on_c, 0, 60, 73
1, 309593, Note_on_c, 0, 51, 65
1, 309600, Note_on_c, 0, 82, 73
1, 309603, Note_on_c, 0, 68, 89
1, 309607, Note_on_c, 0, 70, 66
1, 309615, Note_off_c, 0, 82, 70
1, 309617, Note_on_c, 0, 80, 57
1, 309622, Note_off_c, 0, 51, 67
1, 309622, Note_off_c, 0, 60, 65
1, 309622, Note_off_c, 0, 68, 71
1, 309624, Note_off_c, 0, 70, 67
1, 309628, Note_off_c, 0, 63, 63
1, 309637, Note_off_c, 0, 56, 62
1, 309638, Note_off_c, 0, 80, 64
1, 309760, Note_on_c, 0, 77, 96
1, 309762, Note_on_c, 0, 65, 95
1, 309768, Note_on_c, 0, 69, 81
1, 309769, Note_on_c, 0, 60, 77
1, 309773, Note_on_c, 0, 57, 67
1, 309773, Control_c, 0, 64, 58
1, 309774, Note_on_c, 0, 63, 90
1, 309775, Note_on_c, 0, 51, 80
1, 309788, Control_c, 0, 64, 29
1, 309802, Control_c, 0, 64, 28
1, 309817, Control_c, 0, 64, 47
1, 309832, Control_c, 0, 64, 70
1, 309847, Control_c, 0, 64, 127
1, 309858, Note_off_c, 0, 77, 59
1, 309867, Note_off_c, 0, 63, 63
1, 309876, Note_off_c, 0, 65, 64
1, 309882, Note_off_c, 0, 51, 62
1, 309892, Note_off_c, 0, 57, 57
1, 309922, Note_off_c, 0, 60, 0
1, 309944, Note_on_c, 0, 60, 41
1, 309950, Note_on_c, 0, 57, 57
1, 309950, Note_on_c, 0, 63, 84
1, 309952, Note_on_c, 0, 75, 92
1, 309955, Note_on_c, 0, 65, 88
1, 309961, Note_on_c, 0, 51, 59
1, 309994, Note_off_c, 0, 51, 66
1, 310002, Note_off_c, 0, 63, 62
1, 310002, Note_off_c, 0, 69, 57
1, 310008, Note_on_c, 0, 76, 44
1, 310016, Note_off_c, 0, 57, 59
1, 310017, Note_off_c, 0, 65, 57
1, 310022, Note_off_c, 0, 75, 59
1, 310027, Note_off_c, 0, 60, 57
1, 310034, Note_off_c, 0, 76, 60
1, 310075, Note_on_c, 0, 60, 47
1, 310079, Note_on_c, 0, 72, 86
1, 310080, Note_on_c, 0, 65, 79
1, 310084, Note_on_c, 0, 63, 88
1, 310091, Note_on_c, 0, 57, 51
1, 310092, Note_on_c, 0, 51, 66
1, 310127, Note_off_c, 0, 51, 64
1, 310130, Note_on_c, 0, 69, 15
1, 310134, Note_off_c, 0, 63, 61
1, 310134, Note_off_c, 0, 65, 64
1, 310153, Note_off_c, 0, 57, 55
1, 310155, Note_off_c, 0, 60, 59
1, 310171, Note_off_c, 0, 69, 55
1, 310192, Note_on_c, 0, 65, 89
1, 310193, Note_on_c, 0, 69, 69
1, 310201, Note_on_c, 0, 51, 73
1, 310201, Note_on_c, 0, 63, 91
1, 310203, Note_on_c, 0, 57, 63
1, 310204, Note_on_c, 0, 60, 59
1, 310217, Note_off_c, 0, 72, 60
1, 310236, Note_off_c, 0, 65, 67
1, 310238, Note_off_c, 0, 69, 66
1, 310247, Note_off_c, 0, 63, 63
1, 310248, Note_off_c, 0, 60, 60
1, 310249, Note_off_c, 0, 51, 63
1, 310267, Note_off_c, 0, 57, 61
1, 310317, Note_on_c, 0, 57, 73
1, 310320, Note_on_c, 0, 51, 70
1, 310342, Note_on_c, 0, 66, 100
1, 310349, Note_on_c, 0, 60, 88
1, 310350, Note_on_c, 0, 63, 82
1, 310367, Note_off_c, 0, 51, 63
1, 310381, Note_off_c, 0, 57, 58
1, 310386, Note_off_c, 0, 60, 62
1, 310399, Note_on_c, 0, 62, 14
1, 310442, Note_off_c, 0, 63, 36
1, 310453, Note_off_c, 0, 62, 47
1, 310472, Note_on_c, 0, 51, 82
1, 310487, Note_off_c, 0, 66, 0
1, 310493, Note_on_c, 0, 57, 15
1, 310496, Note_on_c, 0, 56, 41
1, 310500, Note_on_c, 0, 60, 90
1, 310500, Note_on_c, 0, 65, 100
1, 310505, Note_on_c, 0, 63, 83
1, 310510, Note_on_c, 0, 66, 27
1, 310513, Note_off_c, 0, 51, 65
1, 310516, Note_on_c, 0, 54, 28
1, 310523, Note_off_c, 0, 56, 54
1, 310537, Note_off_c, 0, 57, 51
1, 310555, Note_off_c, 0, 54, 53
1, 310655, Control_c, 0, 64, 49
1, 310670, Control_c, 0, 64, 0
1, 310672, Note_off_c, 0, 66, 0
1, 310681, Note_off_c, 0, 60, 62
1, 310682, Note_on_c, 0, 39, 104
1, 310686, Note_on_c, 0, 27, 98
1, 310701, Note_off_c, 0, 63, 62
1, 310713, Note_off_c, 0, 27, 68
1, 310714, Note_off_c, 0, 65, 68
1, 310722, Note_off_c, 0, 39, 64
1, 310726, Poly_aftertouch_c, 0, 66, 0
1, 310729, Control_c, 0, 64, 28
1, 310743, Control_c, 0, 64, 78
1, 310758, Control_c, 0, 64, 127
1, 310895, Note_on_c, 0, 58, 21
1, 310904, Note_on_c, 0, 61, 8
1, 310929, Note_off_c, 0, 58, 50
1, 310937, Note_on_c, 0, 51, 88
1, 310937, Poly_aftertouch_c, 0, 79, 0
1, 310941, Poly_aftertouch_c, 0, 54, 0
1, 310961, Note_off_c, 0, 61, 35
1, 311005, Note_on_c, 0, 58, 74
1, 311039, Note_on_c, 0, 61, 78
1, 311055, Note_off_c, 0, 51, 59
1, 311112, Note_on_c, 0, 67, 97
1, 311122, Note_on_c, 0, 79, 107
1, 311122, Note_on_c, 0, 91, 106
1, 311128, Note_on_c, 0, 82, 95
1, 311128, Note_on_c, 0, 85, 85
1, 311148, Note_off_c, 0, 61, 63
1, 311211, Note_on_c, 0, 65, 55
1, 311240, Note_off_c, 0, 67, 62
1, 311246, Note_off_c, 0, 65, 52
1, 311259, Note_off_c, 0, 58, 0
1, 311259, Note_on_c, 0, 58, 2
1, 311305, Poly_aftertouch_c, 0, 61, 127
1, 311321, Note_off_c, 0, 79, 49
1, 311323, Note_off_c, 0, 91, 48
1, 311380, Poly_aftertouch_c, 0, 61, 0
1, 311423, Note_off_c, 0, 58, 40
1, 311464, Note_on_c, 0, 77, 104
1, 311465, Note_on_c, 0, 89, 96
1, 311466, Note_on_c, 0, 58, 71
1, 311467, Note_on_c, 0, 65, 91
1, 311468, Note_on_c, 0, 61, 80
1, 311479, Note_off_c, 0, 85, 61
1, 311479, Note_off_c, 0, 82, 64
1, 311484, Note_on_c, 0, 51, 63
1, 311487, Note_on_c, 0, 87, 64
1, 311503, Note_off_c, 0, 87, 68
1, 311507, Note_off_c, 0, 77, 64
1, 311510, Note_off_c, 0, 89, 67
1, 311511, Note_off_c, 0, 65, 64
1, 311512, Note_off_c, 0, 51, 66
1, 311513, Note_on_c, 0, 88, 10
1, 311514, Note_off_c, 0, 88, 127
1, 311529, Note_off_c, 0, 61, 46
1, 311548, Note_off_c, 0, 58, 58
1, 311656, Note_on_c, 0, 65, 83
1, 311658, Note_on_c, 0, 58, 74
1, 311660, Note_on_c, 0, 61, 71
1, 311669, Note_on_c, 0, 73, 103
1, 311670, Note_on_c, 0, 85, 102
1, 311694, Note_off_c, 0, 65, 60
1, 311699, Note_off_c, 0, 73, 65
1, 311700, Note_off_c, 0, 85, 62
1, 311711, Note_off_c, 0, 61, 55
1, 311725, Note_off_c, 0, 58, 56
1, 311736, Poly_aftertouch_c, 0, 51, 127
1, 311762, Poly_aftertouch_c, 0, 51, 0
1, 311807, Note_on_c, 0, 61, 85
1, 311815, Note_on_c, 0, 65, 66
1, 311818, Note_on_c, 0, 70, 105
1, 311822, Note_on_c, 0, 82, 98
1, 311831, Note_on_c, 0, 51, 59
1, 311831, Note_off_c, 0, 65, 71
1, 311841, Note_off_c, 0, 82, 67
1, 311846, Note_off_c, 0, 70, 69
1, 311857, Note_off_c, 0, 61, 63
1, 311860, Note_off_c, 0, 51, 65
1, 311888, Poly_aftertouch_c, 0, 58, 127
1, 311988, Poly_aftertouch_c, 0, 58, 0
1, 312005, Note_on_c, 0, 59, 87
1, 312006, Note_on_c, 0, 67, 106
1, 312006, Note_on_c, 0, 79, 108
1, 312007, Note_on_c, 0, 65, 98
1, 312013, Note_on_c, 0, 62, 99
1, 312016, Note_on_c, 0, 51, 86
1, 312034, Control_c, 0, 64, 68
1, 312049, Control_c, 0, 64, 37
1, 312064, Control_c, 0, 64, 0
1, 312108, Control_c, 0, 64, 33
1, 312123, Control_c, 0, 64, 55
1, 312132, Note_off_c, 0, 79, 58
1, 312138, Control_c, 0, 64, 92
1, 312138, Note_off_c, 0, 62, 55
1, 312143, Note_off_c, 0, 67, 51
1, 312144, Note_off_c, 0, 51, 60
1, 312153, Control_c, 0, 64, 127
1, 312153, Note_off_c, 0, 65, 58
1, 312162, Note_off_c, 0, 59, 56
1, 312226, Note_on_c, 0, 62, 91
1, 312228, Note_on_c, 0, 77, 99
1, 312230, Note_on_c, 0, 59, 75
1, 312235, Note_on_c, 0, 51, 77
1, 312235, Note_on_c, 0, 67, 99
1, 312236, Note_on_c, 0, 65, 99
1, 312262, Note_on_c, 0, 75, 51
1, 312279, Note_off_c, 0, 62, 60
1, 312285, Note_off_c, 0, 51, 58
1, 312302, Note_off_c, 0, 59, 53
1, 312305, Note_off_c, 0, 75, 47
1, 312318, Note_off_c, 0, 67, 62
1, 312321, Note_off_c, 0, 65, 63
1, 312379, Note_off_c, 0, 77, 53
1, 312380, Note_on_c, 0, 74, 95
1, 312392, Note_on_c, 0, 62, 94
1, 312392, Note_on_c, 0, 59, 83
1, 312395, Note_on_c, 0, 67, 83
1, 312397, Note_on_c, 0, 51, 78
1, 312397, Note_on_c, 0, 65, 84
1, 312441, Note_off_c, 0, 62, 58
1, 312450, Note_off_c, 0, 67, 61
1, 312451, Note_off_c, 0, 51, 60
1, 312454, Note_off_c, 0, 65, 61
1, 312462, Note_off_c, 0, 59, 54
1, 312519, Note_on_c, 0, 71, 95
1, 312526, Note_on_c, 0, 65, 93
1, 312526, Note_off_c, 0, 74, 55
1, 312527, Note_on_c, 0, 62, 98
1, 312529, Note_on_c, 0, 59, 77
1, 312532, Note_on_c, 0, 51, 75
1, 312565, Note_off_c, 0, 71, 68
1, 312571, Note_off_c, 0, 65, 62
1, 312571, Note_off_c, 0, 62, 63
1, 312592, Note_off_c, 0, 51, 61
1, 312594, Note_off_c, 0, 59, 58
1, 312608, Poly_aftertouch_c, 0, 67, 127
1, 312644, Poly_aftertouch_c, 0, 67, 0
1, 312670, Note_on_c, 0, 59, 87
1, 312672, Note_on_c, 0, 51, 73
1, 312692, Note_on_c, 0, 62, 85
1, 312693, Note_on_c, 0, 67, 73
1, 312696, Note_on_c, 0, 65, 63
1, 312713, Note_on_c, 0, 64, 56
1, 312728, Note_off_c, 0, 59, 59
1, 312734, Note_off_c, 0, 62, 56
1, 312735, Note_off_c, 0, 51, 62
1, 312737, Note_off_c, 0, 64, 56
1, 312760, Note_on_c, 0, 66, 3
1, 312777, Note_off_c, 0, 67, 65
1, 312799, Note_off_c, 0, 65, 42
1, 312806, Note_off_c, 0, 66, 44
1, 312815, Note_on_c, 0, 59, 78
1, 312823, Note_on_c, 0, 52, 81
1, 312842, Note_on_c, 0, 65, 81
1, 312843, Note_on_c, 0, 67, 93
1, 312845, Note_on_c, 0, 62, 89
1, 312855, Note_off_c, 0, 59, 61
1, 312857, Note_off_c, 0, 52, 65
1, 313006, Control_c, 0, 64, 63
1, 313020, Control_c, 0, 64, 0
1, 313052, Note_on_c, 0, 51, 105
1, 313061, Note_off_c, 0, 62, 39
1, 313064, Note_on_c, 0, 39, 90
1, 313087, Control_c, 0, 64, 13
1, 313089, Note_off_c, 0, 39, 65
1, 313101, Control_c, 0, 64, 56
1, 313116, Control_c, 0, 64, 127
1, 313141, Note_off_c, 0, 65, 30
1, 313141, Note_off_c, 0, 67, 67
1, 313167, Note_off_c, 0, 51, 64
1, 313303, Note_on_c, 0, 63, 90
1, 313307, Note_on_c, 0, 60, 68
1, 313308, Note_on_c, 0, 84, 79
1, 313312, Note_on_c, 0, 92, 106
1, 313313, Note_on_c, 0, 80, 99
1, 313319, Note_on_c, 0, 51, 64
1, 313333, Note_off_c, 0, 60, 69
1, 313337, Note_off_c, 0, 51, 65
1, 313354, Note_off_c, 0, 63, 61
1, 313438, Note_on_c, 0, 65, 82
1, 313458, Note_off_c, 0, 65, 74
1, 313474, Note_off_c, 0, 80, 60
1, 313499, Note_off_c, 0, 92, 65
1, 313505, Note_off_c, 0, 84, 63
1, 313558, Note_on_c, 0, 72, 89
1, 313562, Note_on_c, 0, 67, 80
1, 313563, Note_on_c, 0, 79, 103
1, 313563, Note_on_c, 0, 91, 100
1, 313575, Note_on_c, 0, 63, 63
1, 313580, Note_off_c, 0, 72, 67
1, 313587, Note_off_c, 0, 67, 70
1, 313592, Note_off_c, 0, 63, 67
1, 313599, Note_off_c, 0, 79, 68
1, 313606, Note_off_c, 0, 91, 63
1, 313711, Note_on_c, 0, 75, 102
1, 313712, Note_on_c, 0, 87, 95
1, 313748, Note_off_c, 0, 75, 63
1, 313755, Note_off_c, 0, 87, 64
1, 313849, Note_on_c, 0, 72, 101
1, 313852, Note_on_c, 0, 84, 99
1, 313889, Note_off_c, 0, 72, 67
1, 313890, Poly_aftertouch_c, 0, 46, 127
1, 313908, Note_off_c, 0, 84, 62
1, 313909, Control_c, 0, 64, 107
1, 313924, Control_c, 0, 64, 50
1, 313934, Poly_aftertouch_c, 0, 46, 0
1, 313939, Control_c, 0, 64, 0
1, 313942, Note_on_c, 0, 51, 101
1, 313948, Note_on_c, 0, 39, 79
1, 313968, Note_off_c, 0, 51, 67
1, 313968, Control_c, 0, 64, 36
1, 313974, Note_off_c, 0, 39, 70
1, 313974, Note_on_c, 0, 52, 56
1, 313983, Control_c, 0, 64, 65
1, 313998, Control_c, 0, 64, 127
1, 314000, Note_off_c, 0, 52, 65
1, 314074, Note_on_c, 0, 63, 82
1, 314075, Note_on_c, 0, 81, 105
1, 314076, Note_on_c, 0, 93, 106
1, 314085, Note_on_c, 0, 60, 61
1, 314094, Note_off_c, 0, 63, 72
1, 314106, Note_off_c, 0, 60, 64
1, 314128, Note_off_c, 0, 81, 0
1, 314165, Poly_aftertouch_c, 0, 81, 127
1, 314199, Note_on_c, 0, 65, 61
1, 314205, Note_on_c, 0, 62, 53
1, 314214, Poly_aftertouch_c, 0, 81, 0
1, 314219, Note_off_c, 0, 65, 65
1, 314231, Note_off_c, 0, 62, 59
1, 314265, Note_off_c, 0, 93, 63
1, 314309, Note_on_c, 0, 72, 94
1, 314312, Note_on_c, 0, 92, 100
1, 314313, Note_on_c, 0, 80, 105
1, 314317, Note_on_c, 0, 64, 67
1, 314319, Note_on_c, 0, 67, 71
1, 314324, Note_off_c, 0, 72, 76
1, 314335, Note_off_c, 0, 67, 71
1, 314335, Note_off_c, 0, 64, 66
1, 314341, Note_off_c, 0, 92, 72
1, 314343, Note_off_c, 0, 80, 63
1, 314473, Note_on_c, 0, 78, 106
1, 314474, Note_on_c, 0, 90, 102
1, 314502, Note_off_c, 0, 78, 70
1, 314507, Note_off_c, 0, 90, 70
1, 314671, Note_on_c, 0, 75, 101
1, 314673, Note_on_c, 0, 87, 95
1, 314712, Note_on_c, 0, 88, 41
1, 314806, Control_c, 0, 64, 54
1, 314812, Note_off_c, 0, 88, 0
1, 314821, Control_c, 0, 64, 0
1, 314827, Note_off_c, 0, 75, 62
1, 314830, Note_on_c, 0, 39, 108
1, 314832, Note_on_c, 0, 27, 97
1, 314839, Note_off_c, 0, 87, 66
1, 314851, Note_off_c, 0, 27, 69
1, 314851, Note_on_c, 0, 40, 73
1, 314856, Poly_aftertouch_c, 0, 88, 0
1, 314866, Control_c, 0, 64, 31
1, 314867, Note_on_c, 0, 30, 37
1, 314868, Note_off_c, 0, 30, 127
1, 314868, Note_off_c, 0, 39, 67
1, 314875, Note_off_c, 0, 40, 63
1, 314878, Note_on_c, 0, 41, 30
1, 314879, Note_off_c, 0, 41, 127
1, 314881, Control_c, 0, 64, 73
1, 314895, Control_c, 0, 64, 127
1, 314925, Poly_aftertouch_c, 0, 41, 0
1, 315122, Note_on_c, 0, 81, 103
1, 315122, Note_on_c, 0, 85, 99
1, 315122, Note_on_c, 0, 88, 91
1, 315122, Note_on_c, 0, 93, 100
1, 315127, Note_on_c, 0, 64, 95
1, 315128, Note_on_c, 0, 61, 92
1, 315133, Note_on_c, 0, 56, 86
1, 315139, Note_on_c, 0, 58, 63
1, 315140, Note_off_c, 0, 58, 127
1, 315145, Note_off_c, 0, 64, 72
1, 315146, Note_off_c, 0, 61, 74
1, 315150, Note_off_c, 0, 56, 68
1, 315158, Note_on_c, 0, 51, 32
1, 315197, Note_off_c, 0, 51, 43
1, 315269, Note_off_c, 0, 81, 61
1, 315276, Note_off_c, 0, 93, 60
1, 315283, Poly_aftertouch_c, 0, 58, 0
1, 315295, Note_on_c, 0, 56, 78
1, 315295, Note_on_c, 0, 61, 86
1, 315295, Note_on_c, 0, 64, 89
1, 315307, Note_on_c, 0, 58, 33
1, 315308, Note_off_c, 0, 58, 127
1, 315311, Note_on_c, 0, 51, 54
1, 315316, Note_off_c, 0, 64, 67
1, 315317, Note_off_c, 0, 61, 67
1, 315325, Note_off_c, 0, 56, 62
1, 315332, Note_off_c, 0, 51, 64
1, 315420, Note_off_c, 0, 85, 64
1, 315422, Note_off_c, 0, 88, 60
1, 315441, Note_on_c, 0, 80, 106
1, 315444, Note_on_c, 0, 92, 108
1, 315447, Note_on_c, 0, 64, 94
1, 315449, Note_on_c, 0, 61, 86
1, 315451, Note_on_c, 0, 56, 76
1, 315452, Note_on_c, 0, 51, 60
1, 315471, Note_on_c, 0, 85, 28
1, 315472, Note_off_c, 0, 85, 127
1, 315472, Note_off_c, 0, 80, 67
1, 315483, Note_off_c, 0, 64, 50
1, 315483, Note_off_c, 0, 92, 71
1, 315487, Note_on_c, 0, 89, 20
1, 315506, Note_off_c, 0, 51, 57
1, 315522, Note_off_c, 0, 61, 48
1, 315526, Note_off_c, 0, 56, 0
1, 315533, Note_off_c, 0, 89, 52
1, 315563, Poly_aftertouch_c, 0, 56, 127
1, 315575, Note_on_c, 0, 56, 10
1, 315625, Note_off_c, 0, 56, 56
1, 315694, Note_on_c, 0, 64, 83
1, 315695, Note_on_c, 0, 61, 81
1, 315697, Note_on_c, 0, 100, 106
1, 315699, Note_on_c, 0, 51, 76
1, 315699, Note_on_c, 0, 88, 101
1, 315700, Note_on_c, 0, 56, 80
1, 315721, Note_off_c, 0, 88, 70
1, 315723, Note_off_c, 0, 64, 61
1, 315724, Note_off_c, 0, 100, 72
1, 315748, Note_off_c, 0, 51, 61
1, 315878, Note_off_c, 0, 56, 57
1, 315905, Note_off_c, 0, 61, 44
1, 315938, Note_on_c, 0, 61, 78
1, 315940, Note_on_c, 0, 64, 86
1, 315941, Note_on_c, 0, 87, 100
1, 315942, Note_on_c, 0, 99, 96
1, 315943, Note_on_c, 0, 56, 69
1, 315947, Note_on_c, 0, 51, 68
1, 315957, Note_off_c, 0, 87, 73
1, 315960, Note_off_c, 0, 99, 71
1, 315965, Note_off_c, 0, 64, 64
1, 315975, Note_off_c, 0, 51, 67
1, 315998, Note_off_c, 0, 61, 59
1, 316040, Note_off_c, 0, 56, 35
1, 316162, Note_on_c, 0, 64, 89
1, 316165, Note_on_c, 0, 61, 86
1, 316166, Note_on_c, 0, 85, 109
1, 316166, Note_on_c, 0, 97, 102
1, 316168, Note_on_c, 0, 56, 74
1, 316179, Note_on_c, 0, 51, 64
1, 316186, Note_off_c, 0, 61, 64
1, 316186, Note_off_c, 0, 64, 65
1, 316193, Note_off_c, 0, 85, 65
1, 316195, Note_off_c, 0, 97, 65
1, 316202, Note_off_c, 0, 56, 60
1, 316210, Note_off_c, 0, 51, 61
1, 316250, Poly_aftertouch_c, 0, 58, 127
1, 316274, Poly_aftertouch_c, 0, 58, 0
1, 316358, Note_on_c, 0, 61, 77
1, 316360, Note_on_c, 0, 64, 72
1, 316360, Note_on_c, 0, 83, 96
1, 316361, Note_on_c, 0, 95, 106
1, 316362, Note_on_c, 0, 56, 69
1, 316374, Note_on_c, 0, 51, 50
1, 316377, Note_off_c, 0, 83, 74
1, 316380, Note_off_c, 0, 61, 69
1, 316380, Note_off_c, 0, 64, 70
1, 316383, Note_off_c, 0, 95, 65
1, 316387, Note_off_c, 0, 56, 70
1, 316400, Note_on_c, 0, 58, 8
1, 316401, Note_off_c, 0, 58, 127
1, 316411, Note_off_c, 0, 51, 46
1, 316455, Poly_aftertouch_c, 0, 58, 0
1, 316533, Note_on_c, 0, 81, 102
1, 316534, Note_on_c, 0, 93, 106
1, 316536, Note_on_c, 0, 61, 87
1, 316538, Note_on_c, 0, 64, 87
1, 316541, Note_on_c, 0, 56, 75
1, 316551, Note_on_c, 0, 58, 52
1, 316552, Note_off_c, 0, 58, 127
1, 316557, Note_off_c, 0, 64, 71
1, 316560, Note_off_c, 0, 61, 70
1, 316560, Note_off_c, 0, 81, 72
1, 316562, Note_off_c, 0, 93, 72
1, 316566, Note_off_c, 0, 56, 68
1, 316568, Note_on_c, 0, 51, 28
1, 316597, Note_off_c, 0, 51, 57
1, 316700, Note_on_c, 0, 92, 94
1, 316702, Note_on_c, 0, 80, 101
1, 316708, Note_on_c, 0, 64, 85
1, 316714, Note_on_c, 0, 61, 72
1, 316717, Note_off_c, 0, 80, 72
1, 316719, Note_off_c, 0, 92, 69
1, 316724, Note_on_c, 0, 56, 55
1, 316725, Note_off_c, 0, 64, 73
1, 316736, Note_off_c, 0, 61, 62
1, 316743, Note_off_c, 0, 56, 65
1, 316778, Poly_aftertouch_c, 0, 51, 127
1, 316805, Poly_aftertouch_c, 0, 51, 0
1, 316824, Poly_aftertouch_c, 0, 58, 0
1, 316864, Note_on_c, 0, 61, 69
1, 316865, Note_on_c, 0, 64, 90
1, 316866, Note_on_c, 0, 78, 103
1, 316867, Note_on_c, 0, 56, 72
1, 316867, Note_on_c, 0, 90, 104
1, 316883, Note_off_c, 0, 64, 72
1, 316884, Note_off_c, 0, 56, 68
1, 316886, Note_off_c, 0, 90, 70
1, 316887, Note_off_c, 0, 78, 67
1, 316893, Note_off_c, 0, 61, 66
1, 316973, Poly_aftertouch_c, 0, 51, 0
1, 316998, Note_on_c, 0, 76, 98
1, 317001, Note_on_c, 0, 64, 88
1, 317002, Note_on_c, 0, 88, 104
1, 317003, Note_on_c, 0, 56, 71
1, 317003, Note_on_c, 0, 61, 75
1, 317018, Note_off_c, 0, 64, 73
1, 317021, Note_off_c, 0, 61, 68
1, 317023, Note_off_c, 0, 56, 64
1, 317024, Note_off_c, 0, 76, 69
1, 317027, Note_off_c, 0, 88, 67
1, 317091, Poly_aftertouch_c, 0, 51, 0
1, 317136, Note_on_c, 0, 61, 75
1, 317136, Note_on_c, 0, 64, 87
1, 317137, Note_on_c, 0, 75, 106
1, 317138, Note_on_c, 0, 56, 75
1, 317141, Note_on_c, 0, 87, 104
1, 317153, Note_off_c, 0, 64, 73
1, 317154, Note_off_c, 0, 61, 74
1, 317161, Note_off_c, 0, 56, 69
1, 317163, Note_on_c, 0, 85, 57
1, 317170, Note_off_c, 0, 75, 67
1, 317179, Note_off_c, 0, 87, 64
1, 317188, Note_off_c, 0, 85, 41
1, 317209, Note_on_c, 0, 58, 3
1, 317246, Note_off_c, 0, 58, 47
1, 317265, Note_on_c, 0, 76, 98
1, 317267, Note_on_c, 0, 64, 92
1, 317271, Note_on_c, 0, 56, 81
1, 317271, Note_on_c, 0, 61, 84
1, 317271, Note_on_c, 0, 88, 85
1, 317277, Note_on_c, 0, 89, 80
1, 317283, Note_off_c, 0, 64, 74
1, 317286, Note_on_c, 0, 51, 49
1, 317291, Note_off_c, 0, 76, 69
1, 317292, Note_off_c, 0, 61, 72
1, 317292, Note_off_c, 0, 89, 70
1, 317293, Note_off_c, 0, 88, 70
1, 317296, Note_off_c, 0, 56, 68
1, 317317, Note_off_c, 0, 51, 55
1, 317387, Note_on_c, 0, 72, 96
1, 317389, Note_on_c, 0, 64, 89
1, 317391, Note_on_c, 0, 84, 101
1, 317391, Note_on_c, 0, 56, 73
1, 317393, Note_on_c, 0, 61, 82
1, 317402, Note_on_c, 0, 51, 62
1, 317409, Note_off_c, 0, 64, 71
1, 317416, Note_off_c, 0, 72, 65
1, 317420, Note_off_c, 0, 56, 66
1, 317420, Note_off_c, 0, 61, 68
1, 317421, Note_off_c, 0, 84, 66
1, 317422, Note_off_c, 0, 51, 63
1, 317471, Poly_aftertouch_c, 0, 58, 0
1, 317493, Poly_aftertouch_c, 0, 58, 0
1, 317498, Note_on_c, 0, 85, 101
1, 317501, Note_on_c, 0, 61, 80
1, 317501, Note_on_c, 0, 64, 91
1, 317501, Note_on_c, 0, 73, 94
1, 317504, Poly_aftertouch_c, 0, 58, 0
1, 317504, Note_on_c, 0, 56, 84
1, 317510, Note_on_c, 0, 51, 57
1, 317516, Note_off_c, 0, 64, 73
1, 317522, Note_off_c, 0, 73, 64
1, 317523, Note_off_c, 0, 56, 74
1, 317524, Note_off_c, 0, 61, 67
1, 317541, Note_off_c, 0, 85, 63
1, 317544, Note_off_c, 0, 51, 58
1, 317580, Poly_aftertouch_c, 0, 58, 0
1, 317614, Note_on_c, 0, 64, 91
1, 317615, Note_on_c, 0, 61, 80
1, 317620, Note_on_c, 0, 67, 98
1, 317621, Note_on_c, 0, 79, 95
1, 317622, Note_on_c, 0, 56, 78
1, 317629, Note_on_c, 0, 51, 62
1, 317632, Note_off_c, 0, 64, 73
1, 317638, Note_off_c, 0, 61, 72
1, 317638, Note_off_c, 0, 56, 72
1, 317647, Note_off_c, 0, 67, 69
1, 317652, Note_off_c, 0, 79, 66
1, 317655, Note_off_c, 0, 51, 58
1, 317712, Note_on_c, 0, 61, 85
1, 317713, Note_on_c, 0, 64, 94
1, 317715, Note_on_c, 0, 56, 80
1, 317722, Note_on_c, 0, 80, 99
1, 317724, Note_on_c, 0, 68, 92
1, 317727, Note_on_c, 0, 51, 66
1, 317729, Note_off_c, 0, 61, 73
1, 317735, Note_off_c, 0, 64, 67
1, 317737, Note_off_c, 0, 56, 69
1, 317745, Note_on_c, 0, 70, 58
1, 317756, Note_off_c, 0, 68, 59
1, 317760, Note_off_c, 0, 51, 64
1, 317762, Note_off_c, 0, 80, 62
1, 317766, Note_off_c, 0, 70, 64
1, 317800, Poly_aftertouch_c, 0, 58, 0
1, 317818, Poly_aftertouch_c, 0, 58, 0
1, 317819, Note_on_c, 0, 64, 89
1, 317821, Note_on_c, 0, 56, 78
1, 317821, Note_on_c, 0, 61, 83
1, 317826, Note_on_c, 0, 69, 99
1, 317830, Note_on_c, 0, 81, 96
1, 317837, Note_off_c, 0, 64, 71
1, 317838, Note_on_c, 0, 51, 71
1, 317839, Note_off_c, 0, 61, 74
1, 317847, Note_off_c, 0, 56, 68
1, 317856, Note_off_c, 0, 69, 71
1, 317859, Note_off_c, 0, 81, 66
1, 317863, Note_off_c, 0, 51, 63
1, 317901, Poly_aftertouch_c, 0, 58, 0
1, 317925, Note_on_c, 0, 70, 97
1, 317926, Poly_aftertouch_c, 0, 58, 0
1, 317927, Note_on_c, 0, 64, 94
1, 317928, Note_on_c, 0, 61, 86
1, 317928, Note_on_c, 0, 82, 96
1, 317930, Note_on_c, 0, 56, 82
1, 317942, Note_on_c, 0, 51, 63
1, 317945, Note_off_c, 0, 64, 68
1, 317950, Note_off_c, 0, 56, 73
1, 317954, Note_off_c, 0, 61, 67
1, 317957, Note_off_c, 0, 70, 68
1, 317963, Note_off_c, 0, 82, 67
1, 317973, Note_off_c, 0, 51, 65
1, 318009, Poly_aftertouch_c, 0, 58, 0
1, 318028, Note_on_c, 0, 71, 96
1, 318029, Note_on_c, 0, 83, 97
1, 318058, Note_off_c, 0, 71, 66
1, 318059, Note_off_c, 0, 83, 70
1, 318074, Note_on_c, 0, 64, 94
1, 318076, Note_on_c, 0, 61, 81
1, 318080, Note_on_c, 0, 56, 73
1, 318085, Note_on_c, 0, 51, 66
1, 318097, Note_off_c, 0, 61, 71
1, 318100, Note_off_c, 0, 64, 66
1, 318103, Note_off_c, 0, 56, 71
1, 318112, Note_off_c, 0, 51, 67
1, 318120, Note_on_c, 0, 72, 46
1, 318127, Note_on_c, 0, 84, 99
1, 318154, Note_off_c, 0, 84, 66
1, 318160, Note_off_c, 0, 72, 64
1, 318211, Note_on_c, 0, 73, 97
1, 318215, Note_on_c, 0, 85, 100
1, 318243, Note_off_c, 0, 73, 69
1, 318252, Note_off_c, 0, 85, 66
1, 318254, Note_on_c, 0, 64, 95
1, 318255, Note_on_c, 0, 61, 88
1, 318260, Note_on_c, 0, 56, 77
1, 318276, Note_off_c, 0, 56, 71
1, 318288, Note_on_c, 0, 58, 38
1, 318289, Note_off_c, 0, 58, 127
1, 318289, Note_off_c, 0, 61, 66
1, 318289, Note_off_c, 0, 64, 64
1, 318290, Note_on_c, 0, 51, 51
1, 318307, Note_off_c, 0, 51, 66
1, 318315, Poly_aftertouch_c, 0, 58, 0
1, 318321, Note_on_c, 0, 74, 96
1, 318325, Note_on_c, 0, 86, 100
1, 318350, Note_off_c, 0, 74, 71
1, 318352, Note_off_c, 0, 86, 63
1, 318410, Note_on_c, 0, 75, 100
1, 318411, Note_on_c, 0, 87, 99
1, 318432, Note_off_c, 0, 75, 66
1, 318446, Note_off_c, 0, 87, 63
1, 318490, Note_on_c, 0, 64, 93
1, 318493, Note_on_c, 0, 61, 88
1, 318493, Note_on_c, 0, 56, 86
1, 318493, Note_on_c, 0, 90, 112
1, 318494, Note_on_c, 0, 78, 100
1, 318498, Note_on_c, 0, 58, 76
1, 318499, Note_off_c, 0, 58, 127
1, 318506, Note_off_c, 0, 64, 72
1, 318510, Note_off_c, 0, 78, 74
1, 318514, Note_off_c, 0, 61, 70
1, 318517, Note_off_c, 0, 56, 67
1, 318520, Note_off_c, 0, 90, 73
1, 318607, Poly_aftertouch_c, 0, 51, 0
1, 318675, Note_on_c, 0, 64, 96
1, 318683, Note_on_c, 0, 61, 84
1, 318684, Note_on_c, 0, 56, 80
1, 318693, Note_on_c, 0, 58, 57
1, 318694, Note_off_c, 0, 58, 127
1, 318699, Note_on_c, 0, 51, 63
1, 318705, Note_off_c, 0, 61, 70
1, 318711, Note_off_c, 0, 64, 62
1, 318711, Note_off_c, 0, 56, 67
1, 318721, Note_off_c, 0, 51, 61
1, 318776, Note_on_c, 0, 76, 104
1, 318784, Note_on_c, 0, 88, 99
1, 318812, Note_off_c, 0, 76, 68
1, 318822, Note_off_c, 0, 88, 65
1, 318856, Note_on_c, 0, 76, 98
1, 318935, Control_c, 0, 64, 97
1, 318942, Note_on_c, 0, 64, 96
1, 318944, Note_on_c, 0, 61, 90
1, 318946, Note_on_c, 0, 51, 84
1, 318947, Note_on_c, 0, 55, 79
1, 318949, Note_on_c, 0, 58, 82
1, 318950, Control_c, 0, 64, 42
1, 318961, Note_on_c, 0, 88, 104
1, 318964, Control_c, 0, 64, 0
1, 319076, Control_c, 0, 64, 12
1, 319101, Note_off_c, 0, 64, 59
1, 319105, Control_c, 0, 64, 18
1, 319120, Control_c, 0, 64, 34
1, 319129, Note_off_c, 0, 61, 60
1, 319135, Control_c, 0, 64, 55
1, 319140, Note_off_c, 0, 51, 53
1, 319140, Note_off_c, 0, 58, 59
1, 319150, Control_c, 0, 64, 122
1, 319164, Control_c, 0, 64, 127
1, 319182, Note_off_c, 0, 55, 0
1, 319206, Note_on_c, 0, 55, 35
1, 319219, Note_on_c, 0, 51, 57
1, 319224, Note_on_c, 0, 64, 79
1, 319229, Note_on_c, 0, 61, 75
1, 319230, Note_on_c, 0, 58, 63
1, 319262, Note_off_c, 0, 61, 61
1, 319262, Note_off_c, 0, 64, 62
1, 319269, Note_off_c, 0, 51, 63
1, 319273, Note_off_c, 0, 58, 61
1, 319289, Note_off_c, 0, 55, 62
1, 319358, Note_on_c, 0, 55, 49
1, 319358, Note_on_c, 0, 64, 80
1, 319358, Note_on_c, 0, 61, 75
1, 319364, Note_on_c, 0, 58, 70
1, 319367, Note_on_c, 0, 51, 66
1, 319384, Note_off_c, 0, 64, 59
1, 319395, Note_off_c, 0, 58, 60
1, 319399, Note_off_c, 0, 51, 65
1, 319403, Note_off_c, 0, 61, 53
1, 319410, Note_off_c, 0, 55, 64
1, 319414, Note_off_c, 0, 88, 53
1, 319480, Note_on_c, 0, 85, 89
1, 319490, Note_on_c, 0, 64, 84
1, 319491, Note_on_c, 0, 58, 81
1, 319492, Note_on_c, 0, 51, 66
1, 319493, Note_on_c, 0, 61, 79
1, 319501, Note_on_c, 0, 55, 59
1, 319509, Note_off_c, 0, 76, 63
1, 319522, Note_off_c, 0, 51, 64
1, 319528, Note_off_c, 0, 64, 61
1, 319531, Note_off_c, 0, 61, 56
1, 319537, Note_off_c, 0, 58, 56
1, 319539, Note_off_c, 0, 55, 59
1, 319622, Note_off_c, 0, 85, 58
1, 319625, Note_on_c, 0, 64, 80
1, 319627, Note_on_c, 0, 61, 73
1, 319629, Note_on_c, 0, 58, 72
1, 319629, Note_on_c, 0, 51, 62
1, 319632, Note_on_c, 0, 79, 91
1, 319638, Note_on_c, 0, 55, 57
1, 319659, Note_off_c, 0, 64, 61
1, 319659, Note_off_c, 0, 58, 56
1, 319665, Note_off_c, 0, 51, 64
1, 319665, Note_off_c, 0, 61, 57
1, 319676, Note_off_c, 0, 55, 64
1, 319722, Note_on_c, 0, 80, 90
1, 319730, Note_off_c, 0, 79, 65
1, 319760, Note_on_c, 0, 58, 71
1, 319761, Note_off_c, 0, 80, 63
1, 319763, Note_on_c, 0, 61, 71
1, 319764, Note_on_c, 0, 64, 70
1, 319777, Note_on_c, 0, 55, 40
1, 319787, Note_on_c, 0, 51, 43
1, 319792, Note_off_c, 0, 58, 65
1, 319796, Note_off_c, 0, 61, 69
1, 319798, Note_off_c, 0, 64, 66
1, 319799, Note_on_c, 0, 80, 80
1, 319807, Note_off_c, 0, 51, 61
1, 319814, Note_off_c, 0, 55, 57
1, 319855, Note_on_c, 0, 83, 98
1, 319861, Note_on_c, 0, 64, 91
1, 319865, Note_on_c, 0, 61, 87
1, 319868, Note_off_c, 0, 80, 64
1, 319870, Control_c, 0, 64, 63
1, 319871, Note_on_c, 0, 51, 70
1, 319871, Note_on_c, 0, 55, 64
1, 319872, Note_on_c, 0, 58, 73
1, 319885, Control_c, 0, 64, 14
1, 319900, Control_c, 0, 64, 0
1, 319900, Note_off_c, 0, 64, 62
1, 319904, Note_off_c, 0, 51, 66
1, 319906, Note_off_c, 0, 61, 60
1, 319918, Note_off_c, 0, 55, 53
1, 319920, Note_off_c, 0, 58, 54
1, 319929, Control_c, 0, 64, 34
1, 319944, Control_c, 0, 64, 58
1, 319959, Control_c, 0, 64, 127
1, 320026, Note_on_c, 0, 64, 79
1, 320032, Note_on_c, 0, 51, 59
1, 320032, Note_on_c, 0, 61, 65
1, 320035, Note_on_c, 0, 58, 64
1, 320049, Note_off_c, 0, 64, 68
1, 320059, Note_off_c, 0, 51, 58
1, 320059, Note_off_c, 0, 61, 69
1, 320064, Note_off_c, 0, 58, 66
1, 320067, Note_off_c, 0, 83, 65
1, 320071, Note_on_c, 0, 55, 11
1, 320112, Note_on_c, 0, 82, 100
1, 320135, Note_on_c, 0, 61, 69
1, 320136, Note_on_c, 0, 58, 62
1, 320139, Note_on_c, 0, 51, 64
1, 320147, Note_on_c, 0, 64, 63
1, 320158, Note_off_c, 0, 55, 0
1, 320158, Note_on_c, 0, 55, 3
1, 320163, Note_off_c, 0, 64, 69
1, 320165, Note_off_c, 0, 51, 70
1, 320175, Note_off_c, 0, 61, 56
1, 320179, Note_off_c, 0, 58, 60
1, 320195, Note_off_c, 0, 55, 54
1, 320233, Note_off_c, 0, 82, 65
1, 320259, Note_on_c, 0, 64, 66
1, 320264, Note_on_c, 0, 73, 104
1, 320265, Note_on_c, 0, 58, 75
1, 320266, Note_on_c, 0, 61, 71
1, 320267, Note_on_c, 0, 55, 52
1, 320268, Note_on_c, 0, 51, 59
1, 320294, Note_off_c, 0, 51, 64
1, 320295, Note_off_c, 0, 64, 63
1, 320298, Note_off_c, 0, 61, 63
1, 320307, Note_off_c, 0, 58, 63
1, 320351, Note_off_c, 0, 55, 38
1, 320404, Note_on_c, 0, 55, 34
1, 320406, Note_on_c, 0, 51, 58
1, 320409, Note_on_c, 0, 64, 76
1, 320410, Note_on_c, 0, 61, 72
1, 320412, Note_on_c, 0, 58, 72
1, 320431, Note_off_c, 0, 64, 67
1, 320442, Note_off_c, 0, 51, 64
1, 320443, Note_off_c, 0, 58, 65
1, 320448, Note_off_c, 0, 61, 65
1, 320462, Note_off_c, 0, 55, 63
1, 320514, Note_on_c, 0, 74, 90
1, 320546, Note_off_c, 0, 73, 54
1, 320550, Note_on_c, 0, 58, 73
1, 320557, Note_on_c, 0, 64, 71
1, 320559, Note_on_c, 0, 61, 71
1, 320562, Note_on_c, 0, 51, 59
1, 320571, Note_on_c, 0, 55, 44
1, 320584, Note_off_c, 0, 64, 66
1, 320586, Note_off_c, 0, 61, 66
1, 320588, Note_off_c, 0, 51, 60
1, 320595, Note_off_c, 0, 58, 50
1, 320603, Note_off_c, 0, 55, 53
1, 320631, Note_on_c, 0, 75, 86
1, 320639, Note_off_c, 0, 74, 65
1, 320677, Note_off_c, 0, 75, 58
1, 320710, Note_on_c, 0, 51, 50
1, 320712, Note_on_c, 0, 58, 67
1, 320714, Note_on_c, 0, 61, 71
1, 320717, Note_on_c, 0, 64, 70
1, 320717, Note_on_c, 0, 75, 83
1, 320722, Note_on_c, 0, 55, 41
1, 320742, Note_off_c, 0, 64, 68
1, 320743, Note_off_c, 0, 61, 63
1, 320745, Note_off_c, 0, 51, 64
1, 320753, Note_off_c, 0, 58, 57
1, 320781, Note_on_c, 0, 78, 99
1, 320797, Note_off_c, 0, 75, 63
1, 320805, Note_off_c, 0, 55, 0
1, 320813, Control_c, 0, 64, 65
1, 320823, Note_on_c, 0, 55, 34
1, 320827, Control_c, 0, 64, 42
1, 320828, Note_off_c, 0, 78, 70
1, 320835, Note_on_c, 0, 64, 67
1, 320837, Note_on_c, 0, 51, 64
1, 320842, Control_c, 0, 64, 31
1, 320842, Note_on_c, 0, 77, 42
1, 320845, Note_on_c, 0, 61, 68
1, 320846, Note_on_c, 0, 58, 59
1, 320857, Control_c, 0, 64, 41
1, 320860, Note_off_c, 0, 64, 65
1, 320866, Note_off_c, 0, 51, 65
1, 320872, Control_c, 0, 64, 57
1, 320874, Note_off_c, 0, 61, 65
1, 320882, Note_off_c, 0, 58, 62
1, 320886, Control_c, 0, 64, 83
1, 320892, Note_off_c, 0, 55, 57
1, 320901, Control_c, 0, 64, 127
1, 320930, Note_off_c, 0, 77, 58
1, 320980, Note_on_c, 0, 58, 72
1, 320986, Note_on_c, 0, 76, 82
1, 320988, Note_on_c, 0, 61, 69
1, 320989, Note_on_c, 0, 64, 73
1, 320994, Note_on_c, 0, 51, 65
1, 321014, Note_off_c, 0, 64, 67
1, 321022, Note_off_c, 0, 61, 62
1, 321026, Note_off_c, 0, 51, 64
1, 321031, Note_off_c, 0, 58, 56
1, 321058, Note_off_c, 0, 76, 62
1, 321069, Note_on_c, 0, 67, 89
1, 321113, Note_on_c, 0, 51, 69
1, 321117, Note_on_c, 0, 64, 74
1, 321120, Note_on_c, 0, 58, 74
1, 321120, Note_on_c, 0, 61, 74
1, 321144, Note_off_c, 0, 64, 64
1, 321152, Note_off_c, 0, 51, 59
1, 321153, Note_off_c, 0, 61, 58
1, 321156, Note_on_c, 0, 68, 94
1, 321158, Note_off_c, 0, 58, 60
1, 321196, Note_off_c, 0, 67, 27
1, 321241, Note_off_c, 0, 68, 64
1, 321246, Note_on_c, 0, 51, 69
1, 321254, Note_on_c, 0, 69, 66
1, 321258, Note_on_c, 0, 58, 66
1, 321258, Note_on_c, 0, 64, 68
1, 321260, Note_on_c, 0, 61, 65
1, 321274, Note_off_c, 0, 69, 61
1, 321290, Note_off_c, 0, 64, 68
1, 321291, Note_off_c, 0, 58, 66
1, 321293, Note_off_c, 0, 61, 69
1, 321295, Note_off_c, 0, 51, 61
1, 321308, Control_c, 0, 64, 73
1, 321320, Note_on_c, 0, 69, 50
1, 321323, Note_on_c, 0, 71, 92
1, 321323, Control_c, 0, 64, 56
1, 321337, Note_on_c, 0, 51, 57
1, 321337, Note_on_c, 0, 65, 65
1, 321338, Control_c, 0, 64, 51
1, 321343, Note_off_c, 0, 69, 61
1, 321344, Note_on_c, 0, 58, 67
1, 321349, Note_on_c, 0, 61, 71
1, 321349, Poly_aftertouch_c, 0, 70, 127
1, 321353, Note_on_c, 0, 64, 64
1, 321353, Control_c, 0, 64, 61
1, 321357, Note_off_c, 0, 65, 67
1, 321367, Control_c, 0, 64, 86
1, 321378, Note_off_c, 0, 61, 65
1, 321381, Note_off_c, 0, 64, 64
1, 321382, Control_c, 0, 64, 127
1, 321386, Note_off_c, 0, 51, 59
1, 321393, Note_off_c, 0, 58, 58
1, 321403, Poly_aftertouch_c, 0, 70, 0
1, 321418, Poly_aftertouch_c, 0, 72, 127
1, 321431, Note_on_c, 0, 70, 75
1, 321438, Note_off_c, 0, 71, 63
1, 321442, Poly_aftertouch_c, 0, 72, 0
1, 321483, Note_off_c, 0, 70, 63
1, 321516, Note_on_c, 0, 62, 85
1, 321582, Note_on_c, 0, 63, 87
1, 321594, Note_off_c, 0, 62, 62
1, 321601, Note_off_c, 0, 63, 73
1, 321620, Control_c, 0, 64, 74
1, 321635, Control_c, 0, 64, 58
1, 321639, Note_on_c, 0, 63, 78
1, 321650, Control_c, 0, 64, 47
1, 321657, Note_on_c, 0, 66, 86
1, 321665, Control_c, 0, 64, 36
1, 321673, Note_off_c, 0, 63, 65
1, 321680, Control_c, 0, 64, 29
1, 321695, Control_c, 0, 64, 21
1, 321709, Control_c, 0, 64, 0
1, 321729, Note_on_c, 0, 64, 87
1, 321759, Note_off_c, 0, 66, 64
1, 321785, Note_off_c, 0, 64, 66
1, 321798, Note_on_c, 0, 55, 79
1, 321862, Note_on_c, 0, 56, 91
1, 321874, Note_off_c, 0, 55, 65
1, 321891, Note_off_c, 0, 56, 67
1, 321919, Note_on_c, 0, 56, 85
1, 321951, Note_on_c, 0, 59, 78
1, 321966, Note_off_c, 0, 56, 63
1, 322006, Note_on_c, 0, 58, 92
1, 322032, Note_off_c, 0, 59, 66
1, 322058, Note_off_c, 0, 58, 67
1, 322068, Note_on_c, 0, 50, 79
1, 322134, Note_on_c, 0, 51, 95
1, 322145, Note_off_c, 0, 50, 64
1, 322153, Note_off_c, 0, 51, 74
1, 322179, Note_on_c, 0, 51, 81
1, 322226, Note_on_c, 0, 54, 78
1, 322231, Note_off_c, 0, 51, 63
1, 322276, Note_on_c, 0, 52, 82
1, 322308, Note_off_c, 0, 54, 65
1, 322312, Note_on_c, 0, 43, 91
1, 322318, Note_off_c, 0, 52, 69
1, 322375, Note_on_c, 0, 44, 94
1, 322381, Note_off_c, 0, 43, 63
1, 322401, Note_off_c, 0, 44, 66
1, 322436, Note_on_c, 0, 44, 81
1, 322473, Note_on_c, 0, 47, 80
1, 322500, Note_off_c, 0, 44, 62
1, 322527, Note_on_c, 0, 46, 89
1, 322550, Note_off_c, 0, 47, 66
1, 322564, Note_off_c, 0, 46, 66
1, 322568, Note_on_c, 0, 38, 100
1, 322628, Note_on_c, 0, 39, 69
1, 322630, Note_off_c, 0, 38, 65
1, 322639, Note_on_c, 0, 40, 80
1, 322651, Note_off_c, 0, 39, 62
1, 322669, Note_off_c, 0, 40, 65
1, 322711, Note_on_c, 0, 39, 93
1, 322772, Note_on_c, 0, 42, 89
1, 322792, Note_off_c, 0, 39, 65
1, 322837, Note_off_c, 0, 42, 63
1, 322871, Note_on_c, 0, 40, 101
1, 322887, Note_on_c, 0, 38, 66
1, 322978, Note_off_c, 0, 38, 27
1, 323409, Note_off_c, 0, 40, 64
1, 323437, Note_on_c, 0, 39, 95
1, 323724, Note_on_c, 0, 33, 90
1, 323731, Note_off_c, 0, 39, 63
1, 323969, Note_on_c, 0, 34, 84
1, 323983, Note_off_c, 0, 33, 64
1, 324371, Note_on_c, 0, 41, 103
1, 324390, Note_off_c, 0, 34, 64
1, 325846, Control_c, 0, 64, 10
1, 325861, Control_c, 0, 64, 12
1, 325875, Control_c, 0, 64, 14
1, 325890, Control_c, 0, 64, 14
1, 325905, Control_c, 0, 64, 16
1, 325920, Control_c, 0, 64, 17
1, 325935, Control_c, 0, 64, 18
1, 325949, Control_c, 0, 64, 20
1, 325964, Control_c, 0, 64, 21
1, 325979, Control_c, 0, 64, 23
1, 325994, Control_c, 0, 64, 24
1, 326008, Control_c, 0, 64, 26
1, 326023, Control_c, 0, 64, 27
1, 326038, Control_c, 0, 64, 28
1, 326053, Control_c, 0, 64, 29
1, 326068, Control_c, 0, 64, 30
1, 326083, Control_c, 0, 64, 31
1, 326098, Control_c, 0, 64, 32
1, 326113, Control_c, 0, 64, 32
1, 326128, Control_c, 0, 64, 33
1, 326142, Control_c, 0, 64, 34
1, 326157, Control_c, 0, 64, 35
1, 326172, Control_c, 0, 64, 36
1, 326187, Control_c, 0, 64, 37
1, 326187, Control_c, 0, 67, 9
1, 326201, Control_c, 0, 64, 39
1, 326201, Control_c, 0, 67, 13
1, 326216, Control_c, 0, 64, 40
1, 326216, Control_c, 0, 67, 17
1, 326231, Control_c, 0, 64, 41
1, 326231, Control_c, 0, 67, 22
1, 326246, Control_c, 0, 64, 41
1, 326246, Control_c, 0, 67, 28
1, 326261, Control_c, 0, 64, 42
1, 326261, Control_c, 0, 67, 30
1, 326275, Control_c, 0, 64, 42
1, 326305, Control_c, 0, 67, 30
1, 326320, Control_c, 0, 67, 29
1, 326349, Control_c, 0, 67, 29
1, 326469, Control_c, 0, 64, 42
1, 326484, Control_c, 0, 64, 41
1, 326498, Control_c, 0, 64, 41
1, 326513, Control_c, 0, 64, 40
1, 326536, Control_c, 0, 64, 39
1, 326551, Control_c, 0, 64, 38
1, 326566, Control_c, 0, 64, 37
1, 326595, Control_c, 0, 64, 37
1, 326610, Control_c, 0, 64, 36
1, 326624, Control_c, 0, 64, 35
1, 326639, Control_c, 0, 64, 34
1, 326654, Control_c, 0, 64, 34
1, 326684, Control_c, 0, 64, 33
1, 326698, Control_c, 0, 64, 33
1, 326713, Control_c, 0, 64, 32
1, 326724, Note_on_c, 0, 39, 76
1, 326728, Control_c, 0, 64, 32
1, 326743, Control_c, 0, 64, 31
1, 326758, Control_c, 0, 64, 31
1, 326772, Control_c, 0, 64, 30
1, 326772, Control_c, 0, 67, 29
1, 326787, Control_c, 0, 64, 30
1, 326793, Note_off_c, 0, 41, 53
1, 326802, Control_c, 0, 64, 29
1, 326817, Control_c, 0, 64, 28
1, 326831, Control_c, 0, 64, 27
1, 326831, Control_c, 0, 67, 27
1, 326846, Control_c, 0, 64, 26
1, 326846, Control_c, 0, 67, 25
1, 326861, Control_c, 0, 64, 25
1, 326861, Control_c, 0, 67, 22
1, 326876, Control_c, 0, 67, 19
1, 326891, Control_c, 0, 64, 25
1, 326891, Control_c, 0, 67, 11
1, 326906, Control_c, 0, 67, 0
1, 326920, Control_c, 0, 64, 24
1, 327024, Control_c, 0, 64, 25
1, 327069, Control_c, 0, 64, 25
1, 327084, Control_c, 0, 64, 26
1, 327113, Control_c, 0, 64, 26
1, 327157, Control_c, 0, 64, 27
1, 327247, Control_c, 0, 64, 27
1, 327344, Control_c, 0, 64, 27
1, 327394, Note_on_c, 0, 33, 70
1, 327403, Control_c, 0, 64, 26
1, 327436, Note_off_c, 0, 39, 63
1, 327448, Control_c, 0, 64, 26
1, 327508, Control_c, 0, 64, 25
1, 327522, Control_c, 0, 64, 25
1, 327581, Control_c, 0, 64, 24
1, 327626, Control_c, 0, 64, 24
1, 327655, Control_c, 0, 64, 23
1, 327700, Control_c, 0, 64, 23
1, 327744, Control_c, 0, 64, 22
1, 327788, Control_c, 0, 64, 22
1, 327812, Note_on_c, 0, 34, 70
1, 327818, Control_c, 0, 64, 21
1, 327839, Note_off_c, 0, 33, 61
1, 328211, Control_c, 0, 64, 22
1, 328241, Control_c, 0, 64, 22
1, 328256, Control_c, 0, 64, 23
1, 328271, Control_c, 0, 64, 23
1, 328286, Control_c, 0, 64, 24
1, 328301, Control_c, 0, 64, 25
1, 328316, Control_c, 0, 64, 25
1, 328330, Control_c, 0, 64, 26
1, 328360, Note_on_c, 0, 37, 40
1, 328380, Note_off_c, 0, 34, 56
1, 328404, Control_c, 0, 64, 25
1, 328413, Note_on_c, 0, 63, 73
1, 328419, Control_c, 0, 64, 23
1, 328427, Note_on_c, 0, 58, 55
1, 328432, Note_on_c, 0, 55, 47
1, 328434, Control_c, 0, 64, 20
1, 328449, Control_c, 0, 64, 0
1, 328596, Control_c, 0, 67, 8
1, 328626, Control_c, 0, 67, 8
1, 328641, Control_c, 0, 67, 9
1, 328656, Control_c, 0, 67, 9
1, 328670, Control_c, 0, 67, 10
1, 328685, Control_c, 0, 67, 10
1, 328700, Control_c, 0, 67, 11
1, 328715, Control_c, 0, 67, 12
1, 328730, Control_c, 0, 67, 13
1, 328745, Control_c, 0, 67, 14
1, 328760, Control_c, 0, 67, 15
1, 328782, Control_c, 0, 67, 18
1, 328797, Control_c, 0, 67, 23
1, 328813, Control_c, 0, 67, 29
1, 328827, Control_c, 0, 67, 37
1, 328842, Control_c, 0, 64, 10
1, 328842, Control_c, 0, 67, 45
1, 328857, Control_c, 0, 64, 18
1, 328857, Control_c, 0, 67, 56
1, 328872, Control_c, 0, 64, 25
1, 328872, Control_c, 0, 67, 68
1, 328887, Control_c, 0, 64, 29
1, 328887, Control_c, 0, 67, 79
1, 328900, Control_c, 0, 64, 34
1, 328900, Control_c, 0, 67, 88
1, 328915, Control_c, 0, 64, 38
1, 328915, Control_c, 0, 67, 98
1, 328930, Control_c, 0, 64, 44
1, 328930, Control_c, 0, 67, 107
1, 328945, Control_c, 0, 64, 49
1, 328945, Control_c, 0, 67, 114
1, 328960, Control_c, 0, 64, 53
1, 328960, Control_c, 0, 67, 121
1, 328974, Control_c, 0, 64, 56
1, 328974, Control_c, 0, 67, 127
1, 328989, Control_c, 0, 64, 58
1, 328989, Control_c, 0, 67, 127
1, 329034, Control_c, 0, 64, 57
1, 329064, Control_c, 0, 64, 57
1, 329079, Control_c, 0, 64, 56
1, 329108, Control_c, 0, 64, 56
1, 329123, Control_c, 0, 64, 55
1, 329212, Control_c, 0, 64, 55
1, 329226, Control_c, 0, 64, 54
1, 329241, Control_c, 0, 64, 52
1, 329256, Control_c, 0, 64, 47
1, 329271, Control_c, 0, 64, 39
1, 329286, Control_c, 0, 64, 24
1, 329289, Note_on_c, 0, 36, 49
1, 329295, Note_off_c, 0, 37, 59
1, 329300, Control_c, 0, 64, 0
1, 329389, Control_c, 0, 64, 9
1, 329404, Control_c, 0, 64, 13
1, 329418, Control_c, 0, 64, 15
1, 329433, Control_c, 0, 64, 18
1, 329448, Control_c, 0, 64, 21
1, 329463, Control_c, 0, 64, 26
1, 329478, Note_off_c, 0, 55, 36
1, 329478, Control_c, 0, 64, 31
1, 329493, Control_c, 0, 64, 36
1, 329508, Control_c, 0, 64, 41
1, 329530, Control_c, 0, 64, 47
1, 329544, Control_c, 0, 64, 53
1, 329559, Control_c, 0, 64, 58
1, 329574, Control_c, 0, 64, 62
1, 329587, Note_off_c, 0, 58, 50
1, 329589, Control_c, 0, 64, 63
1, 329605, Control_c, 0, 64, 64
1, 329620, Control_c, 0, 64, 64
1, 329635, Control_c, 0, 64, 65
1, 329649, Control_c, 0, 64, 67
1, 329664, Control_c, 0, 64, 71
1, 329679, Control_c, 0, 64, 75
1, 329694, Control_c, 0, 64, 79
1, 329709, Control_c, 0, 64, 84
1, 329723, Control_c, 0, 64, 90
1, 329738, Control_c, 0, 64, 95
1, 329753, Control_c, 0, 64, 103
1, 329768, Control_c, 0, 64, 117
1, 329783, Control_c, 0, 64, 127
1, 329962, Note_off_c, 0, 63, 59
1, 329984, Note_on_c, 0, 60, 40
1, 330059, Note_off_c, 0, 60, 0
1, 330059, Note_on_c, 0, 60, 3
1, 330165, Note_on_c, 0, 63, 57
1, 330182, Control_c, 0, 67, 127
1, 330197, Control_c, 0, 67, 112
1, 330212, Control_c, 0, 67, 89
1, 330227, Control_c, 0, 67, 54
1, 330241, Control_c, 0, 67, 24
1, 330256, Control_c, 0, 67, 0
1, 330464, Note_off_c, 0, 36, 38
1, 330491, Note_on_c, 0, 32, 41
1, 330531, Control_c, 0, 64, 117
1, 330545, Control_c, 0, 64, 94
1, 330560, Control_c, 0, 64, 75
1, 330575, Control_c, 0, 64, 64
1, 330590, Control_c, 0, 64, 55
1, 330601, Note_on_c, 0, 72, 63
1, 330605, Control_c, 0, 64, 42
1, 330620, Control_c, 0, 64, 26
1, 330635, Control_c, 0, 64, 22
1, 330650, Control_c, 0, 64, 23
1, 330664, Control_c, 0, 64, 28
1, 330679, Control_c, 0, 64, 34
1, 330694, Control_c, 0, 64, 42
1, 330709, Control_c, 0, 64, 54
1, 330724, Control_c, 0, 64, 64
1, 330739, Control_c, 0, 64, 88
1, 330753, Control_c, 0, 64, 127
1, 330774, Note_off_c, 0, 32, 38
1, 330900, Note_off_c, 0, 63, 32
1, 331094, Note_off_c, 0, 60, 41
1, 331280, Control_c, 0, 67, 12
1, 331294, Control_c, 0, 67, 18
1, 331309, Control_c, 0, 67, 28
1, 331324, Control_c, 0, 67, 42
1, 331339, Control_c, 0, 67, 68
1, 331354, Control_c, 0, 67, 96
1, 331368, Control_c, 0, 67, 123
1, 331383, Control_c, 0, 67, 127
1, 331647, Note_on_c, 0, 63, 39
1, 331649, Note_on_c, 0, 60, 44
1, 331659, Note_on_c, 0, 44, 32
1, 331661, Note_on_c, 0, 51, 29
1, 331665, Note_on_c, 0, 56, 29
1, 331717, Note_off_c, 0, 44, 42
1, 331721, Note_off_c, 0, 60, 63
1, 331723, Note_off_c, 0, 51, 41
1, 331739, Note_off_c, 0, 56, 39
1, 331760, Note_off_c, 0, 63, 36
1, 332051, Note_on_c, 0, 63, 45
1, 332052, Note_on_c, 0, 51, 35
1, 332063, Note_on_c, 0, 44, 29
1, 332063, Note_on_c, 0, 60, 36
1, 332067, Note_on_c, 0, 56, 26
1, 332113, Note_off_c, 0, 72, 35
1, 332117, Control_c, 0, 67, 123
1, 332122, Note_off_c, 0, 51, 41
1, 332124, Note_off_c, 0, 44, 41
1, 332132, Control_c, 0, 67, 108
1, 332133, Note_off_c, 0, 60, 40
1, 332143, Note_off_c, 0, 56, 38
1, 332147, Control_c, 0, 67, 84
1, 332161, Control_c, 0, 67, 59
1, 332176, Control_c, 0, 67, 34
1, 332191, Control_c, 0, 67, 12
1, 332206, Control_c, 0, 67, 0
1, 332262, Note_off_c, 0, 63, 33
1, 332408, Note_on_c, 0, 71, 63
1, 332426, Note_on_c, 0, 44, 29
1, 332433, Note_on_c, 0, 51, 19
1, 332437, Note_on_c, 0, 56, 26
1, 332445, Note_on_c, 0, 63, 17
1, 332455, Note_on_c, 0, 60, 25
1, 332491, Note_off_c, 0, 51, 44
1, 332498, Note_off_c, 0, 56, 42
1, 332501, Note_off_c, 0, 44, 40
1, 332603, Note_off_c, 0, 60, 39
1, 332657, Note_off_c, 0, 63, 27
1, 332762, Control_c, 0, 67, 8
1, 332776, Control_c, 0, 67, 10
1, 332792, Control_c, 0, 67, 12
1, 332807, Control_c, 0, 67, 15
1, 332822, Control_c, 0, 67, 19
1, 332827, Note_on_c, 0, 72, 71
1, 332830, Note_on_c, 0, 44, 37
1, 332837, Control_c, 0, 67, 23
1, 332846, Note_on_c, 0, 51, 34
1, 332846, Note_off_c, 0, 71, 15
1, 332849, Note_on_c, 0, 56, 31
1, 332849, Note_on_c, 0, 63, 20
1, 332852, Control_c, 0, 67, 29
1, 332866, Control_c, 0, 67, 34
1, 332870, Note_on_c, 0, 60, 33
1, 332881, Control_c, 0, 67, 39
1, 332896, Control_c, 0, 67, 42
1, 332911, Control_c, 0, 67, 45
1, 332914, Note_off_c, 0, 51, 55
1, 332919, Note_off_c, 0, 60, 44
1, 332946, Note_off_c, 0, 56, 37
1, 332957, Note_off_c, 0, 44, 36
1, 332967, Note_off_c, 0, 63, 29
1, 332985, Control_c, 0, 67, 44
1, 332998, Note_off_c, 0, 72, 55
1, 332999, Control_c, 0, 67, 43
1, 333014, Control_c, 0, 67, 43
1, 333044, Control_c, 0, 67, 42
1, 333059, Control_c, 0, 67, 42
1, 333073, Control_c, 0, 67, 41
1, 333128, Note_on_c, 0, 71, 75
1, 333142, Note_on_c, 0, 51, 39
1, 333148, Note_on_c, 0, 44, 39
1, 333152, Note_on_c, 0, 56, 40
1, 333155, Note_on_c, 0, 60, 56
1, 333155, Note_on_c, 0, 63, 40
1, 333193, Note_off_c, 0, 63, 48
1, 333195, Note_off_c, 0, 51, 58
1, 333195, Note_off_c, 0, 44, 54
1, 333213, Note_off_c, 0, 56, 41
1, 333276, Note_off_c, 0, 60, 36
1, 333350, Note_off_c, 0, 71, 37
1, 333386, Note_on_c, 0, 72, 83
1, 333392, Control_c, 0, 64, 90
1, 333403, Note_on_c, 0, 56, 46
1, 333403, Note_on_c, 0, 60, 60
1, 333404, Note_on_c, 0, 44, 48
1, 333407, Control_c, 0, 64, 91
1, 333411, Note_on_c, 0, 51, 39
1, 333422, Control_c, 0, 64, 127
1, 333451, Note_off_c, 0, 56, 58
1, 333453, Note_off_c, 0, 44, 58
1, 333457, Note_off_c, 0, 51, 56
1, 333512, Note_off_c, 0, 60, 33
1, 333521, Note_off_c, 0, 72, 56
1, 333615, Control_c, 0, 64, 84
1, 333621, Note_on_c, 0, 71, 77
1, 333623, Note_on_c, 0, 51, 42
1, 333630, Control_c, 0, 64, 79
1, 333634, Note_on_c, 0, 56, 50
1, 333635, Note_on_c, 0, 44, 46
1, 333642, Note_on_c, 0, 60, 59
1, 333645, Control_c, 0, 64, 88
1, 333660, Note_on_c, 0, 63, 28
1, 333660, Control_c, 0, 64, 127
1, 333675, Note_off_c, 0, 56, 61
1, 333675, Note_off_c, 0, 44, 60
1, 333675, Note_off_c, 0, 51, 59
1, 333686, Note_off_c, 0, 60, 45
1, 333689, Control_c, 0, 67, 42
1, 333699, Note_off_c, 0, 63, 51
1, 333704, Control_c, 0, 67, 42
1, 333756, Note_off_c, 0, 71, 56
1, 333778, Control_c, 0, 67, 42
1, 333793, Control_c, 0, 67, 41
1, 333845, Note_on_c, 0, 72, 81
1, 333854, Note_on_c, 0, 51, 50
1, 333858, Note_on_c, 0, 56, 47
1, 333865, Note_on_c, 0, 60, 61
1, 333867, Note_on_c, 0, 44, 38
1, 333875, Note_on_c, 0, 63, 44
1, 333896, Note_off_c, 0, 56, 58
1, 333898, Note_off_c, 0, 44, 52
1, 333898, Note_off_c, 0, 51, 60
1, 333908, Note_off_c, 0, 63, 52
1, 333927, Note_off_c, 0, 72, 61
1, 333950, Note_off_c, 0, 60, 53
1, 334074, Note_on_c, 0, 70, 83
1, 334087, Note_on_c, 0, 44, 44
1, 334090, Note_on_c, 0, 51, 44
1, 334095, Note_on_c, 0, 56, 41
1, 334124, Note_off_c, 0, 44, 56
1, 334130, Note_off_c, 0, 51, 62
1, 334131, Note_off_c, 0, 56, 51
1, 334141, Control_c, 0, 67, 39
1, 334156, Control_c, 0, 67, 37
1, 334164, Poly_aftertouch_c, 0, 60, 127
1, 334171, Control_c, 0, 67, 35
1, 334186, Control_c, 0, 67, 32
1, 334199, Poly_aftertouch_c, 0, 60, 0
1, 334201, Control_c, 0, 67, 28
1, 334214, Note_off_c, 0, 70, 55
1, 334215, Control_c, 0, 67, 19
1, 334230, Control_c, 0, 67, 0
1, 334299, Note_on_c, 0, 68, 80
1, 334303, Note_on_c, 0, 44, 50
1, 334314, Note_on_c, 0, 56, 50
1, 334321, Note_on_c, 0, 51, 45
1, 334328, Note_on_c, 0, 60, 45
1, 334346, Note_off_c, 0, 44, 57
1, 334353, Note_off_c, 0, 56, 49
1, 334359, Note_off_c, 0, 51, 61
1, 334370, Note_off_c, 0, 60, 46
1, 334374, Poly_aftertouch_c, 0, 63, 127
1, 334469, Note_off_c, 0, 68, 56
1, 334526, Note_on_c, 0, 67, 79
1, 334546, Note_on_c, 0, 44, 43
1, 334546, Note_on_c, 0, 51, 40
1, 334558, Control_c, 0, 67, 8
1, 334561, Note_on_c, 0, 60, 54
1, 334572, Control_c, 0, 67, 9
1, 334580, Note_off_c, 0, 67, 65
1, 334583, Note_off_c, 0, 51, 61
1, 334583, Poly_aftertouch_c, 0, 63, 0
1, 334587, Control_c, 0, 67, 9
1, 334601, Note_off_c, 0, 44, 56
1, 334614, Note_off_c, 0, 60, 64
1, 334617, Control_c, 0, 67, 10
1, 334646, Control_c, 0, 67, 10
1, 334661, Control_c, 0, 67, 12
1, 334676, Control_c, 0, 67, 14
1, 334691, Control_c, 0, 67, 15
1, 334706, Control_c, 0, 67, 16
1, 334720, Control_c, 0, 67, 16
1, 334735, Control_c, 0, 67, 17
1, 334750, Control_c, 0, 67, 17
1, 334787, Control_c, 0, 67, 18
1, 334802, Control_c, 0, 67, 20
1, 334817, Control_c, 0, 67, 22
1, 334827, Note_on_c, 0, 32, 59
1, 334832, Control_c, 0, 64, 70
1, 334832, Control_c, 0, 67, 24
1, 334832, Note_on_c, 0, 65, 75
1, 334846, Control_c, 0, 64, 48
1, 334846, Control_c, 0, 67, 25
1, 334861, Control_c, 0, 64, 0
1, 334905, Control_c, 0, 64, 14
1, 334905, Control_c, 0, 67, 25
1, 334919, Control_c, 0, 64, 39
1, 334919, Control_c, 0, 67, 24
1, 334934, Control_c, 0, 64, 55
1, 334934, Control_c, 0, 67, 23
1, 334949, Note_off_c, 0, 32, 62
1, 334949, Control_c, 0, 64, 75
1, 334949, Control_c, 0, 67, 23
1, 334963, Control_c, 0, 64, 127
1, 335008, Control_c, 0, 67, 22
1, 335023, Control_c, 0, 67, 21
1, 335052, Control_c, 0, 67, 21
1, 335139, Note_on_c, 0, 63, 76
1, 335142, Control_c, 0, 67, 20
1, 335154, Note_on_c, 0, 44, 53
1, 335155, Note_on_c, 0, 51, 50
1, 335156, Control_c, 0, 67, 20
1, 335167, Note_on_c, 0, 60, 48
1, 335171, Control_c, 0, 67, 18
1, 335172, Note_off_c, 0, 65, 63
1, 335174, Note_on_c, 0, 56, 35
1, 335181, Note_on_c, 0, 54, 26
1, 335187, Control_c, 0, 67, 17
1, 335201, Control_c, 0, 67, 16
1, 335211, Note_off_c, 0, 56, 51
1, 335216, Note_off_c, 0, 51, 53
1, 335216, Control_c, 0, 67, 15
1, 335222, Note_off_c, 0, 44, 53
1, 335231, Control_c, 0, 67, 13
1, 335232, Note_off_c, 0, 54, 46
1, 335246, Control_c, 0, 67, 11
1, 335261, Control_c, 0, 67, 8
1, 335276, Control_c, 0, 67, 0
1, 335344, Note_off_c, 0, 60, 32
1, 335399, Note_off_c, 0, 63, 58
1, 335407, Note_on_c, 0, 62, 81
1, 335414, Note_on_c, 0, 60, 38
1, 335423, Note_on_c, 0, 51, 49
1, 335424, Note_on_c, 0, 44, 49
1, 335432, Note_on_c, 0, 56, 51
1, 335446, Note_on_c, 0, 54, 32
1, 335479, Note_off_c, 0, 44, 52
1, 335482, Note_off_c, 0, 56, 58
1, 335490, Note_off_c, 0, 51, 50
1, 335494, Note_off_c, 0, 60, 50
1, 335498, Note_off_c, 0, 54, 59
1, 335592, Note_off_c, 0, 62, 50
1, 335632, Note_on_c, 0, 63, 81
1, 335639, Note_on_c, 0, 54, 50
1, 335642, Note_on_c, 0, 44, 45
1, 335655, Note_on_c, 0, 56, 54
1, 335655, Note_on_c, 0, 51, 44
1, 335681, Poly_aftertouch_c, 0, 60, 127
1, 335687, Note_off_c, 0, 44, 60
1, 335691, Note_off_c, 0, 54, 58
1, 335696, Note_off_c, 0, 56, 47
1, 335696, Note_off_c, 0, 51, 61
1, 335735, Poly_aftertouch_c, 0, 60, 0
1, 335742, Note_off_c, 0, 63, 55
1, 335837, Note_on_c, 0, 62, 85
1, 335854, Note_on_c, 0, 60, 53
1, 335857, Note_on_c, 0, 54, 52
1, 335857, Note_on_c, 0, 51, 42
1, 335860, Note_on_c, 0, 56, 50
1, 335862, Note_on_c, 0, 44, 40
1, 335898, Note_off_c, 0, 44, 51
1, 335907, Note_off_c, 0, 51, 58
1, 335922, Note_off_c, 0, 54, 53
1, 335957, Note_off_c, 0, 56, 35
1, 336033, Note_on_c, 0, 63, 80
1, 336057, Note_on_c, 0, 51, 51
1, 336059, Note_off_c, 0, 62, 63
1, 336061, Note_on_c, 0, 56, 54
1, 336062, Note_on_c, 0, 54, 50
1, 336065, Note_on_c, 0, 44, 30
1, 336069, Note_off_c, 0, 60, 55
1, 336082, Note_off_c, 0, 56, 61
1, 336093, Note_off_c, 0, 51, 63
1, 336093, Note_off_c, 0, 63, 63
1, 336102, Note_off_c, 0, 54, 63
1, 336106, Note_off_c, 0, 44, 47
1, 336247, Control_c, 0, 64, 70
1, 336252, Note_on_c, 0, 44, 43
1, 336252, Note_on_c, 0, 64, 79
1, 336254, Note_on_c, 0, 51, 59
1, 336269, Control_c, 0, 64, 51
1, 336273, Note_on_c, 0, 54, 54
1, 336284, Control_c, 0, 64, 44
1, 336290, Note_on_c, 0, 56, 61
1, 336298, Control_c, 0, 64, 51
1, 336313, Control_c, 0, 64, 64
1, 336328, Control_c, 0, 64, 127
1, 336331, Note_on_c, 0, 60, 10
1, 336333, Note_off_c, 0, 44, 47
1, 336334, Note_off_c, 0, 54, 51
1, 336354, Note_off_c, 0, 56, 39
1, 336360, Note_off_c, 0, 51, 33
1, 336447, Control_c, 0, 64, 73
1, 336453, Note_off_c, 0, 60, 0
1, 336462, Control_c, 0, 64, 60
1, 336470, Note_on_c, 0, 60, 36
1, 336477, Control_c, 0, 64, 56
1, 336477, Note_on_c, 0, 65, 84
1, 336479, Note_on_c, 0, 51, 59
1, 336479, Note_on_c, 0, 54, 54
1, 336480, Note_on_c, 0, 44, 56
1, 336483, Note_on_c, 0, 56, 70
1, 336491, Control_c, 0, 64, 62
1, 336506, Control_c, 0, 64, 79
1, 336514, Note_off_c, 0, 64, 61
1, 336518, Note_off_c, 0, 60, 64
1, 336521, Control_c, 0, 64, 127
1, 336522, Note_off_c, 0, 44, 60
1, 336522, Note_off_c, 0, 51, 60
1, 336522, Note_off_c, 0, 54, 62
1, 336553, Note_off_c, 0, 56, 37
1, 336669, Control_c, 0, 64, 85
1, 336683, Note_on_c, 0, 66, 90
1, 336683, Control_c, 0, 64, 65
1, 336686, Note_on_c, 0, 54, 65
1, 336697, Note_on_c, 0, 44, 47
1, 336698, Note_on_c, 0, 56, 56
1, 336698, Note_on_c, 0, 51, 54
1, 336698, Control_c, 0, 64, 63
1, 336713, Control_c, 0, 64, 70
1, 336714, Note_off_c, 0, 65, 56
1, 336728, Note_off_c, 0, 44, 54
1, 336728, Control_c, 0, 64, 127
1, 336733, Note_off_c, 0, 51, 62
1, 336734, Note_off_c, 0, 54, 60
1, 336838, Note_off_c, 0, 66, 60
1, 336857, Note_off_c, 0, 56, 31
1, 336877, Control_c, 0, 64, 108
1, 336888, Note_on_c, 0, 67, 87
1, 336892, Control_c, 0, 64, 66
1, 336901, Note_on_c, 0, 54, 56
1, 336904, Note_on_c, 0, 51, 54
1, 336906, Control_c, 0, 64, 57
1, 336921, Control_c, 0, 64, 59
1, 336934, Note_off_c, 0, 54, 61
1, 336936, Control_c, 0, 64, 69
1, 336942, Note_off_c, 0, 51, 56
1, 336947, Poly_aftertouch_c, 0, 60, 127
1, 336951, Control_c, 0, 64, 127
1, 336965, Poly_aftertouch_c, 0, 56, 127
1, 336986, Note_off_c, 0, 67, 64
1, 336991, Poly_aftertouch_c, 0, 56, 0
1, 337103, Note_on_c, 0, 44, 60
1, 337107, Control_c, 0, 64, 76
1, 337109, Note_on_c, 0, 68, 87
1, 337112, Note_on_c, 0, 56, 71
1, 337120, Note_on_c, 0, 60, 1
1, 337121, Control_c, 0, 64, 63
1, 337124, Note_on_c, 0, 51, 44
1, 337130, Note_on_c, 0, 54, 50
1, 337136, Control_c, 0, 64, 65
1, 337151, Control_c, 0, 64, 91
1, 337166, Control_c, 0, 64, 127
1, 337166, Note_off_c, 0, 54, 56
1, 337183, Note_off_c, 0, 44, 46
1, 337184, Note_off_c, 0, 51, 43
1, 337241, Note_off_c, 0, 56, 60
1, 337249, Note_off_c, 0, 68, 56
1, 337299, Note_on_c, 0, 51, 60
1, 337309, Note_on_c, 0, 69, 88
1, 337315, Note_on_c, 0, 44, 53
1, 337336, Note_off_c, 0, 60, 41
1, 337339, Note_off_c, 0, 51, 65
1, 337353, Note_off_c, 0, 44, 62
1, 337365, Note_off_c, 0, 69, 67
1, 337625, Note_on_c, 0, 32, 61
1, 337641, Control_c, 0, 64, 68
1, 337655, Control_c, 0, 64, 36
1, 337667, Note_on_c, 0, 70, 85
1, 337670, Control_c, 0, 64, 0
1, 337744, Control_c, 0, 64, 25
1, 337767, Control_c, 0, 64, 44
1, 337781, Control_c, 0, 64, 61
1, 337785, Note_off_c, 0, 32, 62
1, 337796, Control_c, 0, 64, 127
1, 337984, Note_on_c, 0, 62, 67
1, 337989, Note_on_c, 0, 53, 54
1, 338000, Note_on_c, 0, 44, 40
1, 338000, Note_on_c, 0, 50, 47
1, 338003, Note_on_c, 0, 58, 43
1, 338008, Note_on_c, 0, 56, 47
1, 338027, Note_off_c, 0, 53, 63
1, 338031, Note_off_c, 0, 44, 52
1, 338034, Note_off_c, 0, 56, 56
1, 338038, Note_off_c, 0, 58, 51
1, 338045, Note_off_c, 0, 50, 44
1, 338069, Note_off_c, 0, 62, 53
1, 338188, Note_on_c, 0, 50, 49
1, 338188, Note_on_c, 0, 62, 63
1, 338191, Note_on_c, 0, 44, 43
1, 338192, Note_on_c, 0, 53, 48
1, 338199, Note_on_c, 0, 58, 46
1, 338210, Note_on_c, 0, 56, 48
1, 338229, Note_off_c, 0, 53, 54
1, 338232, Note_off_c, 0, 50, 55
1, 338235, Note_off_c, 0, 58, 49
1, 338237, Note_off_c, 0, 44, 57
1, 338244, Note_off_c, 0, 56, 48
1, 338265, Note_off_c, 0, 62, 58
1, 338375, Note_on_c, 0, 53, 57
1, 338376, Note_on_c, 0, 44, 50
1, 338379, Note_on_c, 0, 50, 54
1, 338379, Note_on_c, 0, 62, 67
1, 338400, Note_on_c, 0, 58, 39
1, 338415, Note_on_c, 0, 56, 32
1, 338418, Note_off_c, 0, 50, 58
1, 338419, Note_off_c, 0, 44, 59
1, 338421, Note_off_c, 0, 53, 60
1, 338438, Note_off_c, 0, 58, 0
1, 338438, Note_on_c, 0, 58, 13
1, 338467, Note_off_c, 0, 56, 45
1, 338483, Note_off_c, 0, 58, 49
1, 338572, Note_on_c, 0, 65, 89
1, 338581, Note_on_c, 0, 50, 56
1, 338585, Note_on_c, 0, 44, 53
1, 338586, Note_on_c, 0, 53, 54
1, 338615, Note_off_c, 0, 62, 53
1, 338621, Note_off_c, 0, 53, 66
1, 338631, Note_off_c, 0, 44, 56
1, 338637, Note_off_c, 0, 50, 54
1, 338641, Note_off_c, 0, 70, 56
1, 338772, Note_on_c, 0, 44, 51
1, 338774, Note_on_c, 0, 50, 51
1, 338778, Note_on_c, 0, 62, 69
1, 338797, Note_on_c, 0, 53, 37
1, 338797, Note_off_c, 0, 50, 64
1, 338803, Note_off_c, 0, 62, 67
1, 338805, Note_off_c, 0, 65, 65
1, 338811, Note_off_c, 0, 44, 62
1, 338838, Note_off_c, 0, 53, 54
1, 338844, Poly_aftertouch_c, 0, 58, 127
1, 338870, Poly_aftertouch_c, 0, 58, 0
1, 339038, Note_on_c, 0, 73, 86
1, 339050, Note_on_c, 0, 53, 53
1, 339050, Note_on_c, 0, 58, 59
1, 339052, Note_on_c, 0, 49, 58
1, 339053, Note_on_c, 0, 44, 58
1, 339065, Control_c, 0, 64, 68
1, 339067, Note_on_c, 0, 61, 55
1, 339079, Control_c, 0, 64, 44
1, 339094, Control_c, 0, 64, 0
1, 339111, Note_off_c, 0, 61, 45
1, 339129, Poly_aftertouch_c, 0, 65, 127
1, 339153, Control_c, 0, 64, 28
1, 339168, Control_c, 0, 64, 50
1, 339170, Poly_aftertouch_c, 0, 65, 0
1, 339184, Control_c, 0, 64, 73
1, 339196, Note_off_c, 0, 58, 61
1, 339199, Control_c, 0, 64, 127
1, 339211, Note_off_c, 0, 44, 53
1, 339223, Note_off_c, 0, 53, 53
1, 339241, Note_off_c, 0, 49, 36
1, 339312, Note_on_c, 0, 49, 48
1, 339313, Note_on_c, 0, 65, 49
1, 339314, Note_on_c, 0, 53, 34
1, 339315, Note_on_c, 0, 58, 61
1, 339315, Note_on_c, 0, 61, 57
1, 339321, Note_on_c, 0, 44, 40
1, 339339, Note_off_c, 0, 58, 64
1, 339351, Note_off_c, 0, 61, 49
1, 339354, Note_off_c, 0, 44, 50
1, 339365, Note_off_c, 0, 53, 58
1, 339366, Note_off_c, 0, 49, 52
1, 339387, Note_off_c, 0, 65, 42
1, 339465, Note_on_c, 0, 44, 50
1, 339470, Note_on_c, 0, 58, 58
1, 339473, Note_on_c, 0, 49, 57
1, 339482, Note_on_c, 0, 53, 47
1, 339499, Note_on_c, 0, 61, 51
1, 339502, Note_off_c, 0, 44, 62
1, 339506, Note_off_c, 0, 58, 62
1, 339508, Note_off_c, 0, 49, 63
1, 339514, Note_off_c, 0, 53, 62
1, 339517, Note_on_c, 0, 65, 41
1, 339559, Note_off_c, 0, 61, 57
1, 339572, Note_off_c, 0, 73, 62
1, 339637, Note_on_c, 0, 72, 83
1, 339655, Note_on_c, 0, 44, 56
1, 339655, Note_on_c, 0, 58, 62
1, 339662, Note_on_c, 0, 49, 48
1, 339665, Note_on_c, 0, 53, 42
1, 339685, Note_off_c, 0, 58, 64
1, 339689, Note_off_c, 0, 44, 62
1, 339698, Note_off_c, 0, 49, 63
1, 339700, Note_off_c, 0, 53, 52
1, 339831, Note_on_c, 0, 49, 58
1, 339831, Note_on_c, 0, 58, 69
1, 339836, Note_on_c, 0, 44, 49
1, 339837, Note_on_c, 0, 70, 88
1, 339844, Note_on_c, 0, 53, 47
1, 339860, Note_on_c, 0, 61, 51
1, 339862, Note_off_c, 0, 58, 61
1, 339865, Note_off_c, 0, 44, 60
1, 339879, Note_off_c, 0, 49, 62
1, 339879, Note_off_c, 0, 72, 58
1, 339881, Note_off_c, 0, 53, 63
1, 339884, Note_off_c, 0, 61, 58
1, 340055, Note_on_c, 0, 49, 54
1, 340056, Note_on_c, 0, 68, 90
1, 340065, Note_on_c, 0, 61, 70
1, 340073, Note_on_c, 0, 44, 43
1, 340089, Note_off_c, 0, 49, 66
1, 340100, Note_off_c, 0, 65, 53
1, 340103, Note_off_c, 0, 70, 59
1, 340110, Note_off_c, 0, 44, 64
1, 340114, Note_off_c, 0, 61, 62
1, 340126, Note_off_c, 0, 68, 62
1, 340340, Note_on_c, 0, 32, 61
1, 340369, Control_c, 0, 64, 69
1, 340383, Control_c, 0, 64, 40
1, 340391, Note_on_c, 0, 68, 84
1, 340398, Control_c, 0, 64, 0
1, 340443, Control_c, 0, 64, 10
1, 340457, Control_c, 0, 64, 39
1, 340472, Note_off_c, 0, 32, 63
1, 340472, Control_c, 0, 64, 64
1, 340487, Control_c, 0, 64, 127
1, 340508, Poly_aftertouch_c, 0, 66, 127
1, 340665, Note_on_c, 0, 61, 57
1, 340668, Note_on_c, 0, 44, 44
1, 340668, Note_on_c, 0, 52, 42
1, 340671, Note_on_c, 0, 58, 55
1, 340701, Note_off_c, 0, 44, 49
1, 340704, Note_off_c, 0, 52, 52
1, 340705, Note_off_c, 0, 61, 59
1, 340714, Note_off_c, 0, 58, 59
1, 340822, Note_on_c, 0, 44, 40
1, 340822, Note_on_c, 0, 52, 56
1, 340833, Note_on_c, 0, 56, 42
1, 340840, Note_on_c, 0, 61, 54
1, 340844, Note_on_c, 0, 58, 51
1, 340861, Note_off_c, 0, 52, 62
1, 340861, Note_off_c, 0, 44, 47
1, 340867, Note_off_c, 0, 56, 56
1, 340868, Note_off_c, 0, 68, 58
1, 340921, Poly_aftertouch_c, 0, 66, 0
1, 340928, Note_off_c, 0, 58, 58
1, 340964, Note_on_c, 0, 52, 68
1, 340979, Note_on_c, 0, 67, 78
1, 340993, Note_on_c, 0, 55, 49
1, 340996, Note_on_c, 0, 44, 35
1, 341018, Note_off_c, 0, 52, 63
1, 341021, Note_off_c, 0, 55, 55
1, 341024, Note_off_c, 0, 61, 60
1, 341040, Note_off_c, 0, 67, 66
1, 341046, Note_off_c, 0, 44, 44
1, 341152, Note_on_c, 0, 64, 80
1, 341154, Note_on_c, 0, 49, 70
1, 341161, Note_on_c, 0, 44, 54
1, 341172, Note_on_c, 0, 52, 49
1, 341211, Note_off_c, 0, 52, 62
1, 341307, Note_off_c, 0, 49, 0
1, 341312, Note_off_c, 0, 44, 0
1, 341322, Note_on_c, 0, 49, 39
1, 341323, Note_on_c, 0, 63, 89
1, 341324, Note_on_c, 0, 44, 31
1, 341330, Note_on_c, 0, 51, 63
1, 341354, Note_on_c, 0, 58, 52
1, 341354, Note_off_c, 0, 64, 60
1, 341354, Note_on_c, 0, 55, 49
1, 341369, Note_off_c, 0, 51, 61
1, 341381, Note_off_c, 0, 44, 52
1, 341423, Note_off_c, 0, 49, 29
1, 341431, Note_off_c, 0, 55, 33
1, 341511, Control_c, 0, 64, 64
1, 341516, Note_off_c, 0, 58, 0
1, 341518, Note_on_c, 0, 50, 69
1, 341519, Note_on_c, 0, 49, 51
1, 341521, Note_on_c, 0, 62, 93
1, 341525, Control_c, 0, 64, 0
1, 341531, Note_on_c, 0, 58, 37
1, 341536, Note_on_c, 0, 44, 53
1, 341557, Note_off_c, 0, 63, 56
1, 341568, Note_on_c, 0, 55, 34
1, 341586, Control_c, 0, 64, 42
1, 341595, Note_off_c, 0, 58, 0
1, 341601, Control_c, 0, 64, 68
1, 341607, Note_off_c, 0, 50, 60
1, 341610, Note_off_c, 0, 55, 32
1, 341616, Control_c, 0, 64, 127
1, 341632, Poly_aftertouch_c, 0, 58, 127
1, 341637, Note_off_c, 0, 44, 45
1, 341647, Note_on_c, 0, 58, 1
1, 341649, Note_off_c, 0, 49, 36
1, 341704, Control_c, 0, 64, 77
1, 341718, Note_on_c, 0, 63, 84
1, 341719, Note_on_c, 0, 49, 54
1, 341719, Control_c, 0, 64, 55
1, 341730, Note_on_c, 0, 51, 66
1, 341733, Note_on_c, 0, 44, 47
1, 341734, Control_c, 0, 64, 43
1, 341735, Note_off_c, 0, 58, 0
1, 341749, Control_c, 0, 64, 49
1, 341754, Note_off_c, 0, 62, 61
1, 341763, Control_c, 0, 64, 63
1, 341766, Note_off_c, 0, 51, 62
1, 341770, Note_on_c, 0, 58, 14
1, 341771, Note_off_c, 0, 49, 60
1, 341778, Control_c, 0, 64, 127
1, 341779, Note_off_c, 0, 44, 59
1, 341788, Note_off_c, 0, 58, 0
1, 341816, Poly_aftertouch_c, 0, 58, 0
1, 341897, Control_c, 0, 64, 81
1, 341911, Note_on_c, 0, 64, 84
1, 341911, Control_c, 0, 64, 56
1, 341912, Note_on_c, 0, 49, 65
1, 341926, Note_on_c, 0, 52, 60
1, 341926, Control_c, 0, 64, 32
1, 341932, Note_on_c, 0, 44, 50
1, 341941, Control_c, 0, 64, 27
1, 341956, Control_c, 0, 64, 41
1, 341959, Note_on_c, 0, 55, 11
1, 341965, Note_off_c, 0, 52, 60
1, 341971, Control_c, 0, 64, 60
1, 341973, Note_off_c, 0, 63, 25
1, 341986, Control_c, 0, 64, 127
1, 342004, Note_off_c, 0, 44, 40
1, 342006, Note_off_c, 0, 55, 49
1, 342123, Note_on_c, 0, 63, 84
1, 342126, Note_off_c, 0, 49, 0
1, 342126, Note_on_c, 0, 49, 3
1, 342128, Note_on_c, 0, 51, 58
1, 342151, Note_on_c, 0, 58, 50
1, 342153, Note_off_c, 0, 64, 61
1, 342159, Note_on_c, 0, 44, 23
1, 342165, Note_off_c, 0, 51, 60
1, 342179, Note_off_c, 0, 58, 57
1, 342204, Note_off_c, 0, 44, 40
1, 342205, Note_off_c, 0, 63, 61
1, 342214, Note_off_c, 0, 49, 35
1, 342284, Note_on_c, 0, 67, 78
1, 342324, Note_on_c, 0, 49, 57
1, 342332, Note_on_c, 0, 53, 69
1, 342333, Note_on_c, 0, 44, 53
1, 342333, Note_on_c, 0, 65, 83
1, 342336, Note_on_c, 0, 55, 69
1, 342349, Control_c, 0, 64, 68
1, 342363, Control_c, 0, 64, 37
1, 342371, Note_off_c, 0, 67, 61
1, 342379, Control_c, 0, 64, 0
1, 342382, Note_off_c, 0, 44, 58
1, 342443, Note_off_c, 0, 55, 58
1, 342444, Poly_aftertouch_c, 0, 58, 0
1, 342468, Control_c, 0, 64, 8
1, 342483, Control_c, 0, 64, 20
1, 342497, Control_c, 0, 64, 30
1, 342512, Control_c, 0, 64, 38
1, 342525, Note_off_c, 0, 53, 53
1, 342527, Control_c, 0, 64, 47
1, 342542, Control_c, 0, 64, 57
1, 342557, Control_c, 0, 64, 67
1, 342571, Control_c, 0, 64, 115
1, 342584, Note_off_c, 0, 49, 0
1, 342586, Control_c, 0, 64, 127
1, 342606, Note_on_c, 0, 44, 61
1, 342612, Note_on_c, 0, 51, 56
1, 342621, Poly_aftertouch_c, 0, 49, 127
1, 342624, Note_on_c, 0, 63, 92
1, 342636, Note_off_c, 0, 65, 63
1, 342636, Note_on_c, 0, 58, 76
1, 342644, Note_off_c, 0, 51, 65
1, 342654, Note_on_c, 0, 55, 52
1, 342663, Note_off_c, 0, 44, 59
1, 342671, Poly_aftertouch_c, 0, 49, 0
1, 342683, Note_off_c, 0, 55, 56
1, 342721, Note_off_c, 0, 58, 61
1, 342782, Note_off_c, 0, 63, 61
1, 343101, Note_on_c, 0, 32, 62
1, 343112, Control_c, 0, 64, 99
1, 343125, Control_c, 0, 64, 62
1, 343140, Control_c, 0, 64, 31
1, 343152, Note_on_c, 0, 75, 89
1, 343155, Control_c, 0, 64, 0
1, 343245, Control_c, 0, 64, 38
1, 343260, Control_c, 0, 64, 55
1, 343274, Control_c, 0, 64, 79
1, 343285, Note_off_c, 0, 32, 61
1, 343289, Control_c, 0, 64, 127
1, 343691, Note_off_c, 0, 75, 53
1, 343921, Note_on_c, 0, 66, 63
1, 343932, Note_on_c, 0, 57, 45
1, 343932, Note_on_c, 0, 63, 42
1, 343935, Note_on_c, 0, 54, 46
1, 343945, Note_on_c, 0, 60, 30
1, 344008, Note_off_c, 0, 54, 55
1, 344029, Note_off_c, 0, 66, 57
1, 344030, Note_off_c, 0, 57, 53
1, 344046, Note_off_c, 0, 60, 41
1, 344058, Note_off_c, 0, 63, 36
1, 344220, Note_on_c, 0, 66, 76
1, 344225, Note_on_c, 0, 57, 52
1, 344236, Note_on_c, 0, 54, 41
1, 344236, Note_on_c, 0, 63, 49
1, 344242, Note_on_c, 0, 60, 55
1, 344288, Note_off_c, 0, 54, 52
1, 344335, Note_off_c, 0, 57, 36
1, 344343, Note_off_c, 0, 63, 35
1, 344359, Note_off_c, 0, 60, 59
1, 344359, Note_off_c, 0, 66, 56
1, 344425, Note_on_c, 0, 66, 77
1, 344427, Note_on_c, 0, 57, 57
1, 344444, Note_on_c, 0, 60, 59
1, 344448, Note_on_c, 0, 63, 56
1, 344463, Note_on_c, 0, 54, 13
1, 344497, Note_off_c, 0, 63, 58
1, 344501, Note_off_c, 0, 57, 59
1, 344517, Note_off_c, 0, 54, 52
1, 344548, Note_off_c, 0, 66, 59
1, 344572, Note_off_c, 0, 60, 54
1, 344625, Note_on_c, 0, 54, 55
1, 344631, Note_on_c, 0, 56, 64
1, 344631, Note_on_c, 0, 66, 79
1, 344632, Note_on_c, 0, 63, 61
1, 344645, Note_on_c, 0, 60, 45
1, 344684, Note_off_c, 0, 54, 59
1, 344690, Note_off_c, 0, 63, 57
1, 344690, Note_off_c, 0, 56, 57
1, 344710, Note_off_c, 0, 66, 61
1, 344761, Note_off_c, 0, 60, 0
1, 344785, Note_on_c, 0, 60, 24
1, 344797, Note_on_c, 0, 66, 64
1, 344803, Note_on_c, 0, 56, 49
1, 344809, Note_on_c, 0, 54, 42
1, 344817, Note_on_c, 0, 63, 39
1, 344833, Note_off_c, 0, 66, 57
1, 344892, Note_off_c, 0, 63, 0
1, 344928, Poly_aftertouch_c, 0, 63, 127
1, 344939, Note_on_c, 0, 63, 3
1, 345079, Note_on_c, 0, 74, 85
1, 345139, Note_off_c, 0, 56, 38
1, 345166, Note_off_c, 0, 63, 42
1, 345212, Note_off_c, 0, 54, 40
1, 345257, Note_off_c, 0, 60, 55
1, 345363, Note_on_c, 0, 54, 43
1, 345363, Note_on_c, 0, 60, 60
1, 345363, Note_on_c, 0, 66, 68
1, 345368, Note_on_c, 0, 62, 50
1, 345369, Note_on_c, 0, 56, 46
1, 345402, Note_off_c, 0, 56, 61
1, 345404, Note_off_c, 0, 54, 56
1, 345404, Note_off_c, 0, 62, 56
1, 345411, Note_off_c, 0, 60, 47
1, 345432, Note_off_c, 0, 66, 56
1, 345491, Note_off_c, 0, 74, 19
1, 345558, Note_on_c, 0, 56, 52
1, 345560, Note_on_c, 0, 66, 62
1, 345574, Note_on_c, 0, 62, 51
1, 345581, Note_on_c, 0, 60, 51
1, 345607, Note_off_c, 0, 62, 57
1, 345622, Note_off_c, 0, 56, 60
1, 345625, Control_c, 0, 67, 9
1, 345630, Poly_aftertouch_c, 0, 54, 127
1, 345634, Note_off_c, 0, 60, 56
1, 345637, Note_off_c, 0, 66, 58
1, 345640, Control_c, 0, 67, 12
1, 345655, Control_c, 0, 67, 17
1, 345665, Poly_aftertouch_c, 0, 54, 0
1, 345669, Control_c, 0, 67, 22
1, 345684, Control_c, 0, 67, 29
1, 345699, Control_c, 0, 67, 36
1, 345714, Control_c, 0, 67, 45
1, 345728, Control_c, 0, 67, 55
1, 345743, Control_c, 0, 67, 66
1, 345757, Note_on_c, 0, 66, 66
1, 345758, Control_c, 0, 67, 78
1, 345761, Note_on_c, 0, 54, 56
1, 345764, Note_on_c, 0, 56, 51
1, 345772, Note_on_c, 0, 60, 45
1, 345773, Control_c, 0, 67, 88
1, 345781, Note_on_c, 0, 62, 28
1, 345788, Control_c, 0, 67, 97
1, 345799, Note_off_c, 0, 66, 56
1, 345801, Note_off_c, 0, 54, 59
1, 345802, Control_c, 0, 67, 103
1, 345805, Note_off_c, 0, 56, 60
1, 345810, Note_off_c, 0, 60, 55
1, 345817, Control_c, 0, 67, 107
1, 345826, Note_off_c, 0, 62, 48
1, 345832, Control_c, 0, 67, 110
1, 345847, Control_c, 0, 67, 112
1, 345862, Control_c, 0, 67, 114
1, 345876, Control_c, 0, 67, 116
1, 345891, Control_c, 0, 67, 118
1, 345906, Control_c, 0, 67, 122
1, 345921, Control_c, 0, 67, 127
1, 345936, Control_c, 0, 67, 127
1, 345951, Control_c, 0, 64, 87
1, 345962, Note_on_c, 0, 53, 59
1, 345962, Note_on_c, 0, 65, 71
1, 345965, Control_c, 0, 64, 59
1, 345967, Note_on_c, 0, 56, 59
1, 345968, Note_on_c, 0, 62, 52
1, 345977, Note_on_c, 0, 59, 55
1, 345980, Control_c, 0, 64, 35
1, 346002, Control_c, 0, 64, 0
1, 346044, Note_off_c, 0, 56, 57
1, 346046, Control_c, 0, 64, 27
1, 346061, Note_off_c, 0, 62, 52
1, 346061, Control_c, 0, 64, 41
1, 346067, Note_off_c, 0, 53, 37
1, 346076, Control_c, 0, 64, 55
1, 346091, Control_c, 0, 64, 68
1, 346106, Control_c, 0, 64, 127
1, 346197, Note_off_c, 0, 65, 0
1, 346197, Note_on_c, 0, 65, 14
1, 346201, Note_on_c, 0, 56, 46
1, 346225, Note_off_c, 0, 59, 56
1, 346248, Poly_aftertouch_c, 0, 53, 127
1, 346257, Note_off_c, 0, 56, 59
1, 346290, Poly_aftertouch_c, 0, 53, 0
1, 346532, Note_on_c, 0, 44, 53
1, 346566, Control_c, 0, 64, 99
1, 346578, Note_off_c, 0, 65, 40
1, 346581, Control_c, 0, 64, 65
1, 346596, Control_c, 0, 64, 50
1, 346604, Note_on_c, 0, 73, 80
1, 346611, Control_c, 0, 64, 21
1, 346625, Control_c, 0, 64, 0
1, 346684, Control_c, 0, 64, 28
1, 346699, Control_c, 0, 64, 42
1, 346714, Control_c, 0, 64, 56
1, 346729, Control_c, 0, 64, 72
1, 346751, Control_c, 0, 64, 127
1, 346779, Note_off_c, 0, 44, 55
1, 346807, Note_off_c, 0, 73, 59
1, 347012, Note_on_c, 0, 65, 55
1, 347030, Note_on_c, 0, 53, 40
1, 347030, Note_on_c, 0, 59, 45
1, 347031, Note_on_c, 0, 61, 42
1, 347032, Note_on_c, 0, 56, 42
1, 347075, Note_off_c, 0, 61, 49
1, 347077, Note_off_c, 0, 56, 56
1, 347085, Note_off_c, 0, 53, 44
1, 347113, Note_off_c, 0, 59, 49
1, 347118, Note_off_c, 0, 65, 51
1, 347197, Control_c, 0, 67, 125
1, 347211, Control_c, 0, 67, 118
1, 347217, Note_on_c, 0, 56, 53
1, 347226, Note_on_c, 0, 65, 57
1, 347226, Control_c, 0, 67, 107
1, 347233, Note_on_c, 0, 53, 43
1, 347235, Note_on_c, 0, 61, 39
1, 347241, Control_c, 0, 67, 90
1, 347247, Note_on_c, 0, 59, 52
1, 347256, Control_c, 0, 67, 61
1, 347271, Control_c, 0, 67, 33
1, 347274, Note_off_c, 0, 56, 58
1, 347275, Note_off_c, 0, 61, 50
1, 347285, Control_c, 0, 67, 0
1, 347287, Note_off_c, 0, 53, 55
1, 347305, Note_off_c, 0, 59, 50
1, 347340, Note_off_c, 0, 65, 53
1, 347407, Note_on_c, 0, 53, 43
1, 347413, Note_on_c, 0, 56, 48
1, 347419, Note_on_c, 0, 65, 45
1, 347434, Note_on_c, 0, 61, 21
1, 347456, Note_on_c, 0, 59, 31
1, 347456, Note_off_c, 0, 53, 60
1, 347467, Note_off_c, 0, 56, 57
1, 347475, Note_off_c, 0, 61, 53
1, 347503, Note_off_c, 0, 59, 53
1, 347507, Note_off_c, 0, 65, 64
1, 347589, Control_c, 0, 64, 90
1, 347604, Control_c, 0, 64, 62
1, 347609, Note_on_c, 0, 52, 55
1, 347609, Note_on_c, 0, 61, 49
1, 347611, Note_on_c, 0, 55, 54
1, 347612, Note_on_c, 0, 64, 57
1, 347619, Control_c, 0, 64, 45
1, 347623, Note_on_c, 0, 58, 56
1, 347634, Control_c, 0, 64, 26
1, 347648, Control_c, 0, 64, 25
1, 347663, Control_c, 0, 64, 29
1, 347663, Control_c, 0, 67, 8
1, 347678, Control_c, 0, 64, 36
1, 347678, Control_c, 0, 67, 10
1, 347688, Note_off_c, 0, 61, 48
1, 347693, Control_c, 0, 64, 43
1, 347693, Control_c, 0, 67, 13
1, 347700, Note_off_c, 0, 52, 37
1, 347707, Control_c, 0, 64, 53
1, 347707, Control_c, 0, 67, 15
1, 347722, Control_c, 0, 64, 63
1, 347722, Control_c, 0, 67, 18
1, 347737, Control_c, 0, 64, 77
1, 347737, Control_c, 0, 67, 22
1, 347742, Note_off_c, 0, 55, 33
1, 347752, Control_c, 0, 64, 106
1, 347752, Control_c, 0, 67, 26
1, 347766, Control_c, 0, 64, 127
1, 347766, Control_c, 0, 67, 32
1, 347771, Note_off_c, 0, 58, 35
1, 347781, Control_c, 0, 67, 37
1, 347796, Control_c, 0, 67, 42
1, 347808, Note_on_c, 0, 55, 36
1, 347811, Note_off_c, 0, 64, 0
1, 347811, Control_c, 0, 67, 48
1, 347817, Note_on_c, 0, 52, 51
1, 347820, Note_on_c, 0, 61, 47
1, 347825, Note_on_c, 0, 64, 40
1, 347826, Control_c, 0, 67, 53
1, 347840, Control_c, 0, 67, 58
1, 347855, Control_c, 0, 67, 63
1, 347870, Control_c, 0, 67, 67
1, 347885, Control_c, 0, 67, 69
1, 347912, Note_off_c, 0, 61, 39
1, 347985, Note_off_c, 0, 52, 43
1, 347988, Note_off_c, 0, 55, 42
1, 347989, Control_c, 0, 67, 69
1, 347997, Note_on_c, 0, 72, 76
1, 348004, Control_c, 0, 64, 97
1, 348019, Control_c, 0, 64, 71
1, 348019, Control_c, 0, 67, 70
1, 348034, Control_c, 0, 64, 64
1, 348034, Control_c, 0, 67, 71
1, 348041, Note_off_c, 0, 64, 46
1, 348049, Control_c, 0, 64, 61
1, 348049, Control_c, 0, 67, 72
1, 348057, Note_off_c, 0, 72, 60
1, 348064, Control_c, 0, 64, 60
1, 348064, Control_c, 0, 67, 75
1, 348079, Control_c, 0, 64, 61
1, 348079, Control_c, 0, 67, 77
1, 348094, Control_c, 0, 64, 63
1, 348094, Control_c, 0, 67, 80
1, 348108, Control_c, 0, 64, 64
1, 348108, Control_c, 0, 67, 84
1, 348123, Control_c, 0, 64, 65
1, 348123, Control_c, 0, 67, 87
1, 348138, Control_c, 0, 64, 66
1, 348138, Control_c, 0, 67, 91
1, 348153, Control_c, 0, 64, 66
1, 348153, Control_c, 0, 67, 95
1, 348168, Control_c, 0, 64, 67
1, 348168, Control_c, 0, 67, 98
1, 348182, Control_c, 0, 64, 68
1, 348182, Control_c, 0, 67, 100
1, 348192, Note_on_c, 0, 64, 51
1, 348197, Control_c, 0, 64, 70
1, 348197, Control_c, 0, 67, 101
1, 348198, Note_on_c, 0, 52, 50
1, 348199, Note_on_c, 0, 58, 53
1, 348201, Note_on_c, 0, 55, 41
1, 348212, Note_on_c, 0, 60, 43
1, 348212, Control_c, 0, 64, 72
1, 348212, Control_c, 0, 67, 101
1, 348227, Control_c, 0, 64, 74
1, 348227, Control_c, 0, 67, 102
1, 348243, Note_off_c, 0, 58, 50
1, 348244, Note_off_c, 0, 52, 62
1, 348249, Control_c, 0, 64, 75
1, 348251, Note_off_c, 0, 55, 48
1, 348255, Note_off_c, 0, 60, 51
1, 348264, Control_c, 0, 64, 77
1, 348279, Control_c, 0, 64, 79
1, 348294, Control_c, 0, 64, 82
1, 348308, Control_c, 0, 64, 86
1, 348323, Control_c, 0, 64, 91
1, 348326, Note_off_c, 0, 64, 35
1, 348338, Control_c, 0, 64, 95
1, 348353, Control_c, 0, 64, 100
1, 348368, Control_c, 0, 64, 105
1, 348377, Note_on_c, 0, 55, 44
1, 348383, Note_on_c, 0, 64, 43
1, 348383, Note_on_c, 0, 52, 41
1, 348383, Control_c, 0, 64, 108
1, 348387, Note_on_c, 0, 60, 35
1, 348389, Note_on_c, 0, 58, 57
1, 348398, Control_c, 0, 64, 109
1, 348413, Control_c, 0, 64, 110
1, 348416, Note_off_c, 0, 52, 54
1, 348418, Note_off_c, 0, 55, 49
1, 348428, Note_off_c, 0, 60, 49
1, 348440, Note_off_c, 0, 58, 59
1, 348475, Note_off_c, 0, 64, 53
1, 348544, Note_on_c, 0, 52, 46
1, 348546, Control_c, 0, 67, 102
1, 348552, Note_on_c, 0, 55, 43
1, 348559, Note_on_c, 0, 60, 33
1, 348561, Control_c, 0, 67, 103
1, 348568, Note_on_c, 0, 58, 54
1, 348570, Note_on_c, 0, 64, 53
1, 348576, Control_c, 0, 64, 109
1, 348576, Control_c, 0, 67, 103
1, 348583, Note_off_c, 0, 52, 65
1, 348589, Note_off_c, 0, 55, 51
1, 348590, Control_c, 0, 64, 108
1, 348590, Control_c, 0, 67, 104
1, 348601, Note_off_c, 0, 58, 53
1, 348601, Note_off_c, 0, 60, 50
1, 348605, Control_c, 0, 64, 108
1, 348605, Control_c, 0, 67, 107
1, 348620, Control_c, 0, 64, 107
1, 348620, Control_c, 0, 67, 110
1, 348630, Note_off_c, 0, 64, 57
1, 348635, Control_c, 0, 64, 106
1, 348635, Control_c, 0, 67, 112
1, 348649, Control_c, 0, 64, 105
1, 348649, Control_c, 0, 67, 114
1, 348664, Control_c, 0, 67, 115
1, 348679, Control_c, 0, 64, 104
1, 348679, Control_c, 0, 67, 116
1, 348694, Control_c, 0, 64, 103
1, 348694, Control_c, 0, 67, 116
1, 348709, Control_c, 0, 64, 100
1, 348709, Control_c, 0, 67, 117
1, 348723, Control_c, 0, 64, 86
1, 348723, Control_c, 0, 67, 117
1, 348738, Control_c, 0, 64, 69
1, 348738, Control_c, 0, 67, 118
1, 348753, Control_c, 0, 64, 56
1, 348769, Control_c, 0, 64, 35
1, 348779, Note_on_c, 0, 63, 57
1, 348780, Note_on_c, 0, 51, 50
1, 348784, Control_c, 0, 64, 0
1, 348785, Note_on_c, 0, 54, 51
1, 348798, Note_on_c, 0, 57, 41
1, 348800, Note_on_c, 0, 60, 31
1, 348843, Control_c, 0, 64, 16
1, 348855, Note_off_c, 0, 54, 54
1, 348858, Control_c, 0, 64, 30
1, 348858, Control_c, 0, 67, 117
1, 348870, Note_off_c, 0, 60, 38
1, 348872, Control_c, 0, 64, 42
1, 348872, Control_c, 0, 67, 116
1, 348886, Note_off_c, 0, 63, 52
1, 348887, Control_c, 0, 64, 53
1, 348887, Control_c, 0, 67, 115
1, 348900, Note_off_c, 0, 51, 36
1, 348902, Control_c, 0, 64, 62
1, 348902, Control_c, 0, 67, 113
1, 348917, Control_c, 0, 64, 74
1, 348917, Control_c, 0, 67, 113
1, 348921, Note_off_c, 0, 57, 34
1, 348931, Control_c, 0, 64, 97
1, 348931, Control_c, 0, 67, 111
1, 348946, Control_c, 0, 64, 127
1, 348946, Control_c, 0, 67, 110
1, 348961, Control_c, 0, 67, 109
1, 348976, Control_c, 0, 67, 109
1, 348999, Control_c, 0, 67, 108
1, 349012, Note_on_c, 0, 51, 29
1, 349013, Control_c, 0, 67, 108
1, 349015, Note_on_c, 0, 63, 51
1, 349017, Note_on_c, 0, 57, 29
1, 349028, Control_c, 0, 67, 107
1, 349029, Note_on_c, 0, 54, 34
1, 349051, Note_off_c, 0, 63, 65
1, 349057, Note_off_c, 0, 51, 62
1, 349057, Note_off_c, 0, 57, 43
1, 349062, Note_off_c, 0, 54, 59
1, 349072, Control_c, 0, 67, 106
1, 349087, Control_c, 0, 67, 106
1, 349102, Control_c, 0, 67, 105
1, 349117, Control_c, 0, 67, 104
1, 349132, Control_c, 0, 67, 104
1, 349161, Control_c, 0, 67, 103
1, 349176, Control_c, 0, 67, 103
1, 349295, Control_c, 0, 64, 110
1, 349295, Control_c, 0, 67, 104
1, 349304, Note_on_c, 0, 71, 71
1, 349310, Control_c, 0, 64, 68
1, 349310, Control_c, 0, 67, 105
1, 349325, Control_c, 0, 64, 51
1, 349325, Control_c, 0, 67, 106
1, 349339, Control_c, 0, 64, 15
1, 349339, Control_c, 0, 67, 107
1, 349354, Control_c, 0, 64, 0
1, 349384, Control_c, 0, 67, 108
1, 349413, Control_c, 0, 64, 24
1, 349428, Control_c, 0, 64, 36
1, 349443, Control_c, 0, 64, 49
1, 349458, Control_c, 0, 64, 61
1, 349472, Control_c, 0, 64, 74
1, 349487, Control_c, 0, 64, 117
1, 349502, Control_c, 0, 64, 127
1, 349546, Control_c, 0, 67, 107
1, 349562, Control_c, 0, 67, 107
1, 349580, Note_on_c, 0, 63, 51
1, 349588, Note_on_c, 0, 57, 45
1, 349591, Note_on_c, 0, 59, 35
1, 349592, Control_c, 0, 67, 106
1, 349596, Note_on_c, 0, 54, 39
1, 349610, Note_on_c, 0, 51, 23
1, 349621, Note_off_c, 0, 63, 60
1, 349622, Control_c, 0, 67, 105
1, 349630, Note_off_c, 0, 59, 48
1, 349631, Note_off_c, 0, 57, 52
1, 349635, Note_off_c, 0, 54, 49
1, 349651, Control_c, 0, 67, 104
1, 349653, Note_off_c, 0, 51, 47
1, 349666, Control_c, 0, 67, 104
1, 349681, Control_c, 0, 67, 103
1, 349725, Control_c, 0, 67, 103
1, 349763, Control_c, 0, 67, 102
1, 349792, Control_c, 0, 67, 102
1, 349807, Control_c, 0, 67, 101
1, 349811, Note_on_c, 0, 59, 42
1, 349812, Note_on_c, 0, 63, 46
1, 349813, Note_on_c, 0, 54, 43
1, 349818, Note_on_c, 0, 51, 28
1, 349822, Control_c, 0, 67, 101
1, 349829, Note_on_c, 0, 57, 31
1, 349836, Control_c, 0, 67, 99
1, 349851, Control_c, 0, 67, 98
1, 349855, Note_off_c, 0, 59, 47
1, 349856, Note_off_c, 0, 63, 44
1, 349858, Note_off_c, 0, 54, 61
1, 349861, Note_off_c, 0, 51, 48
1, 349869, Note_off_c, 0, 57, 48
1, 350015, Note_on_c, 0, 57, 42
1, 350024, Note_on_c, 0, 63, 38
1, 350026, Note_on_c, 0, 51, 31
1, 350028, Note_on_c, 0, 54, 28
1, 350031, Note_on_c, 0, 59, 31
1, 350071, Note_off_c, 0, 54, 47
1, 350074, Note_off_c, 0, 63, 44
1, 350076, Note_off_c, 0, 57, 53
1, 350079, Note_off_c, 0, 59, 46
1, 350100, Note_off_c, 0, 51, 38
1, 350220, Control_c, 0, 67, 99
1, 350250, Note_on_c, 0, 63, 37
1, 350250, Control_c, 0, 67, 99
1, 350256, Note_on_c, 0, 51, 36
1, 350256, Note_on_c, 0, 59, 39
1, 350261, Note_on_c, 0, 57, 32
1, 350270, Note_on_c, 0, 54, 37
1, 350309, Note_off_c, 0, 63, 42
1, 350317, Note_off_c, 0, 51, 41
1, 350322, Note_off_c, 0, 57, 41
1, 350329, Note_off_c, 0, 54, 43
1, 350341, Note_off_c, 0, 59, 36
1, 350473, Control_c, 0, 67, 100
1, 350505, Note_on_c, 0, 59, 36
1, 350514, Note_on_c, 0, 63, 42
1, 350528, Note_on_c, 0, 57, 29
1, 350539, Note_on_c, 0, 54, 24
1, 350568, Note_off_c, 0, 71, 38
1, 350600, Poly_aftertouch_c, 0, 51, 127
1, 350669, Note_off_c, 0, 59, 40
1, 350714, Note_off_c, 0, 57, 33
1, 350722, Poly_aftertouch_c, 0, 51, 0
1, 350791, Note_off_c, 0, 54, 42
1, 350821, Control_c, 0, 67, 100
1, 350942, Note_on_c, 0, 71, 69
1, 351027, Note_off_c, 0, 63, 33
1, 351310, Note_on_c, 0, 63, 53
1, 351312, Note_on_c, 0, 54, 44
1, 351319, Note_on_c, 0, 57, 45
1, 351325, Note_on_c, 0, 51, 37
1, 351334, Control_c, 0, 67, 100
1, 351348, Control_c, 0, 67, 98
1, 351354, Note_off_c, 0, 54, 48
1, 351364, Control_c, 0, 67, 98
1, 351379, Control_c, 0, 67, 95
1, 351394, Control_c, 0, 67, 86
1, 351409, Control_c, 0, 67, 72
1, 351423, Control_c, 0, 67, 50
1, 351438, Control_c, 0, 67, 22
1, 351453, Control_c, 0, 67, 0
1, 351486, Note_off_c, 0, 51, 33
1, 351493, Note_off_c, 0, 71, 27
1, 351553, Note_on_c, 0, 41, 50
1, 351601, Control_c, 0, 64, 83
1, 351615, Control_c, 0, 64, 67
1, 351622, Note_on_c, 0, 71, 76
1, 351630, Control_c, 0, 64, 64
1, 351645, Control_c, 0, 64, 65
1, 351659, Control_c, 0, 64, 70
1, 351669, Note_off_c, 0, 57, 39
1, 351674, Control_c, 0, 64, 89
1, 351689, Control_c, 0, 64, 127
1, 351710, Note_off_c, 0, 63, 35
1, 351824, Note_on_c, 0, 51, 50
1, 351833, Note_on_c, 0, 54, 38
1, 351842, Note_on_c, 0, 63, 62
1, 351853, Note_off_c, 0, 41, 33
1, 351856, Note_on_c, 0, 57, 61
1, 351912, Note_off_c, 0, 71, 53
1, 351999, Note_off_c, 0, 54, 45
1, 352040, Note_on_c, 0, 42, 62
1, 352053, Control_c, 0, 64, 71
1, 352062, Note_on_c, 0, 71, 87
1, 352068, Control_c, 0, 64, 56
1, 352074, Note_off_c, 0, 51, 26
1, 352083, Control_c, 0, 64, 43
1, 352097, Control_c, 0, 64, 41
1, 352109, Note_off_c, 0, 63, 60
1, 352112, Control_c, 0, 64, 48
1, 352114, Note_off_c, 0, 57, 49
1, 352127, Control_c, 0, 64, 62
1, 352142, Control_c, 0, 64, 100
1, 352157, Control_c, 0, 64, 127
1, 352277, Note_off_c, 0, 42, 59
1, 352279, Note_on_c, 0, 51, 48
1, 352281, Note_on_c, 0, 54, 41
1, 352300, Note_on_c, 0, 63, 61
1, 352322, Note_off_c, 0, 54, 56
1, 352323, Note_on_c, 0, 57, 45
1, 352448, Note_off_c, 0, 71, 32
1, 352474, Note_off_c, 0, 51, 58
1, 352514, Note_off_c, 0, 57, 42
1, 352527, Note_on_c, 0, 44, 59
1, 352571, Control_c, 0, 64, 92
1, 352586, Control_c, 0, 64, 62
1, 352592, Note_off_c, 0, 63, 64
1, 352593, Note_on_c, 0, 71, 88
1, 352601, Control_c, 0, 64, 30
1, 352616, Control_c, 0, 64, 0
1, 352661, Control_c, 0, 64, 21
1, 352675, Control_c, 0, 64, 42
1, 352675, Control_c, 0, 67, 8
1, 352690, Control_c, 0, 64, 63
1, 352705, Control_c, 0, 64, 127
1, 352719, Note_off_c, 0, 71, 59
1, 352742, Control_c, 0, 67, 0
1, 352823, Note_on_c, 0, 62, 65
1, 352826, Note_off_c, 0, 44, 53
1, 352831, Note_on_c, 0, 53, 41
1, 352832, Note_on_c, 0, 50, 48
1, 352850, Note_on_c, 0, 56, 48
1, 352964, Note_off_c, 0, 53, 24
1, 353037, Note_off_c, 0, 56, 59
1, 353046, Note_on_c, 0, 70, 84
1, 353054, Control_c, 0, 64, 65
1, 353055, Note_on_c, 0, 47, 59
1, 353069, Control_c, 0, 64, 38
1, 353075, Note_off_c, 0, 50, 52
1, 353084, Control_c, 0, 64, 0
1, 353110, Note_off_c, 0, 62, 55
1, 353143, Control_c, 0, 64, 31
1, 353158, Control_c, 0, 64, 53
1, 353173, Control_c, 0, 64, 111
1, 353187, Control_c, 0, 64, 127
1, 353313, Note_on_c, 0, 50, 52
1, 353319, Note_off_c, 0, 70, 61
1, 353332, Note_on_c, 0, 62, 49
1, 353334, Note_on_c, 0, 53, 26
1, 353335, Note_off_c, 0, 47, 36
1, 353336, Note_on_c, 0, 56, 44
1, 353393, Note_off_c, 0, 53, 43
1, 353491, Control_c, 0, 67, 8
1, 353506, Control_c, 0, 67, 10
1, 353520, Control_c, 0, 67, 11
1, 353550, Control_c, 0, 67, 12
1, 353566, Control_c, 0, 67, 12
1, 353581, Control_c, 0, 67, 14
1, 353596, Control_c, 0, 67, 16
1, 353609, Control_c, 0, 67, 19
1, 353624, Control_c, 0, 67, 22
1, 353639, Control_c, 0, 67, 25
1, 353647, Note_on_c, 0, 68, 76
1, 353650, Note_on_c, 0, 41, 59
1, 353653, Control_c, 0, 64, 83
1, 353653, Control_c, 0, 67, 27
1, 353668, Control_c, 0, 64, 60
1, 353668, Control_c, 0, 67, 28
1, 353683, Control_c, 0, 64, 38
1, 353683, Control_c, 0, 67, 29
1, 353691, Note_off_c, 0, 56, 41
1, 353694, Note_off_c, 0, 50, 41
1, 353694, Note_off_c, 0, 62, 54
1, 353698, Control_c, 0, 64, 0
1, 353698, Control_c, 0, 67, 30
1, 353713, Control_c, 0, 67, 31
1, 353758, Control_c, 0, 64, 24
1, 353772, Control_c, 0, 64, 42
1, 353787, Control_c, 0, 64, 59
1, 353787, Control_c, 0, 67, 32
1, 353802, Control_c, 0, 64, 99
1, 353802, Control_c, 0, 67, 32
1, 353817, Control_c, 0, 64, 127
1, 353817, Control_c, 0, 67, 33
1, 353876, Control_c, 0, 67, 32
1, 353891, Control_c, 0, 67, 32
1, 353906, Control_c, 0, 67, 31
1, 353952, Note_on_c, 0, 62, 49
1, 353960, Note_on_c, 0, 56, 43
1, 353972, Note_on_c, 0, 50, 31
1, 353983, Note_off_c, 0, 41, 42
1, 354056, Note_off_c, 0, 50, 32
1, 354142, Control_c, 0, 67, 32
1, 354157, Control_c, 0, 67, 32
1, 354217, Control_c, 0, 64, 79
1, 354220, Note_off_c, 0, 68, 0
1, 354237, Note_on_c, 0, 68, 58
1, 354239, Control_c, 0, 64, 57
1, 354245, Note_on_c, 0, 40, 58
1, 354246, Note_off_c, 0, 62, 61
1, 354254, Control_c, 0, 64, 32
1, 354268, Control_c, 0, 64, 0
1, 354268, Control_c, 0, 67, 33
1, 354298, Control_c, 0, 64, 14
1, 354298, Control_c, 0, 67, 34
1, 354310, Note_off_c, 0, 56, 37
1, 354313, Control_c, 0, 64, 34
1, 354313, Control_c, 0, 67, 34
1, 354328, Control_c, 0, 64, 53
1, 354328, Control_c, 0, 67, 35
1, 354342, Control_c, 0, 64, 72
1, 354342, Control_c, 0, 67, 37
1, 354358, Control_c, 0, 64, 127
1, 354358, Control_c, 0, 67, 37
1, 354373, Control_c, 0, 67, 38
1, 354479, Note_off_c, 0, 68, 34
1, 354494, Note_on_c, 0, 59, 39
1, 354501, Note_on_c, 0, 50, 21
1, 354505, Note_off_c, 0, 40, 31
1, 354547, Note_off_c, 0, 50, 52
1, 354549, Poly_aftertouch_c, 0, 52, 127
1, 354556, Poly_aftertouch_c, 0, 56, 127
1, 354580, Poly_aftertouch_c, 0, 52, 0
1, 354714, Control_c, 0, 67, 39
1, 354729, Control_c, 0, 67, 40
1, 354741, Note_on_c, 0, 38, 54
1, 354744, Control_c, 0, 64, 86
1, 354744, Control_c, 0, 67, 43
1, 354748, Note_on_c, 0, 66, 67
1, 354756, Poly_aftertouch_c, 0, 56, 0
1, 354758, Control_c, 0, 64, 62
1, 354758, Control_c, 0, 67, 49
1, 354773, Control_c, 0, 64, 44
1, 354773, Control_c, 0, 67, 56
1, 354779, Note_off_c, 0, 59, 51
1, 354788, Control_c, 0, 64, 10
1, 354788, Control_c, 0, 67, 63
1, 354802, Control_c, 0, 64, 0
1, 354802, Control_c, 0, 67, 70
1, 354817, Control_c, 0, 67, 76
1, 354832, Control_c, 0, 64, 20
1, 354832, Control_c, 0, 67, 81
1, 354847, Control_c, 0, 64, 34
1, 354847, Control_c, 0, 67, 86
1, 354862, Control_c, 0, 64, 47
1, 354862, Control_c, 0, 67, 89
1, 354876, Control_c, 0, 64, 59
1, 354876, Control_c, 0, 67, 92
1, 354891, Control_c, 0, 64, 79
1, 354891, Control_c, 0, 67, 93
1, 354906, Control_c, 0, 64, 127
1, 354906, Control_c, 0, 67, 94
1, 354908, Note_off_c, 0, 38, 33
1, 354921, Control_c, 0, 67, 95
1, 354936, Control_c, 0, 67, 97
1, 354950, Control_c, 0, 67, 98
1, 354965, Control_c, 0, 67, 100
1, 354988, Control_c, 0, 67, 102
1, 355003, Control_c, 0, 67, 103
1, 355017, Control_c, 0, 67, 104
1, 355032, Control_c, 0, 67, 105
1, 355051, Note_off_c, 0, 66, 52
1, 355053, Note_on_c, 0, 59, 46
1, 355061, Note_on_c, 0, 50, 23
1, 355061, Note_on_c, 0, 56, 42
1, 355106, Note_off_c, 0, 50, 50
1, 355109, Poly_aftertouch_c, 0, 52, 127
1, 355140, Poly_aftertouch_c, 0, 52, 0
1, 355182, Control_c, 0, 67, 106
1, 355197, Control_c, 0, 67, 107
1, 355212, Control_c, 0, 67, 108
1, 355227, Control_c, 0, 67, 112
1, 355241, Control_c, 0, 67, 115
1, 355256, Control_c, 0, 67, 118
1, 355271, Control_c, 0, 67, 121
1, 355286, Control_c, 0, 67, 123
1, 355301, Control_c, 0, 67, 124
1, 355315, Control_c, 0, 67, 125
1, 355432, Note_on_c, 0, 35, 44
1, 355433, Control_c, 0, 64, 81
1, 355448, Control_c, 0, 64, 63
1, 355455, Note_on_c, 0, 64, 64
1, 355463, Control_c, 0, 64, 43
1, 355463, Control_c, 0, 67, 125
1, 355477, Note_off_c, 0, 59, 62
1, 355478, Control_c, 0, 64, 0
1, 355552, Control_c, 0, 67, 125
1, 355567, Control_c, 0, 64, 25
1, 355567, Control_c, 0, 67, 123
1, 355582, Control_c, 0, 64, 41
1, 355582, Control_c, 0, 67, 122
1, 355597, Control_c, 0, 64, 56
1, 355597, Control_c, 0, 67, 121
1, 355612, Control_c, 0, 64, 72
1, 355612, Control_c, 0, 67, 120
1, 355626, Control_c, 0, 64, 127
1, 355626, Control_c, 0, 67, 119
1, 355632, Note_off_c, 0, 35, 40
1, 355641, Control_c, 0, 67, 118
1, 355656, Control_c, 0, 67, 116
1, 355657, Note_off_c, 0, 64, 61
1, 355671, Control_c, 0, 67, 115
1, 355709, Note_off_c, 0, 56, 56
1, 355782, Control_c, 0, 67, 115
1, 355796, Control_c, 0, 67, 114
1, 355811, Control_c, 0, 67, 113
1, 355826, Control_c, 0, 67, 111
1, 355841, Control_c, 0, 67, 107
1, 355856, Control_c, 0, 67, 102
1, 355871, Control_c, 0, 67, 95
1, 355886, Control_c, 0, 67, 83
1, 355901, Control_c, 0, 67, 62
1, 355915, Control_c, 0, 67, 32
1, 355930, Control_c, 0, 67, 0
1, 356053, Note_on_c, 0, 56, 46
1, 356070, Note_on_c, 0, 52, 34
1, 356085, Note_on_c, 0, 50, 27
1, 356301, Control_c, 0, 67, 10
1, 356316, Control_c, 0, 67, 13
1, 356330, Control_c, 0, 67, 19
1, 356345, Control_c, 0, 67, 26
1, 356360, Control_c, 0, 67, 34
1, 356368, Note_off_c, 0, 50, 39
1, 356375, Control_c, 0, 67, 43
1, 356390, Control_c, 0, 67, 52
1, 356405, Control_c, 0, 67, 60
1, 356419, Control_c, 0, 67, 69
1, 356434, Control_c, 0, 67, 77
1, 356449, Control_c, 0, 67, 84
1, 356452, Note_off_c, 0, 52, 45
1, 356464, Control_c, 0, 67, 90
1, 356486, Control_c, 0, 67, 95
1, 356501, Control_c, 0, 67, 98
1, 356516, Control_c, 0, 67, 99
1, 356530, Control_c, 0, 67, 99
1, 356545, Control_c, 0, 67, 100
1, 356560, Control_c, 0, 67, 101
1, 356574, Control_c, 0, 67, 103
1, 356589, Control_c, 0, 67, 103
1, 356633, Control_c, 0, 67, 104
1, 356655, Note_on_c, 0, 32, 47
1, 356662, Control_c, 0, 64, 77
1, 356677, Control_c, 0, 64, 62
1, 356687, Note_off_c, 0, 56, 40
1, 356692, Control_c, 0, 64, 45
1, 356707, Control_c, 0, 64, 0
1, 356782, Control_c, 0, 67, 103
1, 356797, Control_c, 0, 64, 22
1, 356797, Control_c, 0, 67, 101
1, 356811, Control_c, 0, 64, 42
1, 356811, Control_c, 0, 67, 99
1, 356826, Control_c, 0, 64, 58
1, 356826, Control_c, 0, 67, 97
1, 356841, Control_c, 0, 64, 84
1, 356841, Control_c, 0, 67, 94
1, 356844, Note_off_c, 0, 32, 41
1, 356856, Control_c, 0, 64, 127
1, 356856, Control_c, 0, 67, 91
1, 356871, Control_c, 0, 67, 88
1, 356885, Control_c, 0, 67, 82
1, 356900, Control_c, 0, 67, 75
1, 356915, Control_c, 0, 67, 68
1, 356930, Control_c, 0, 67, 60
1, 356945, Control_c, 0, 67, 48
1, 356959, Control_c, 0, 67, 35
1, 356974, Control_c, 0, 67, 23
1, 356989, Control_c, 0, 67, 11
1, 357004, Control_c, 0, 67, 0
1, 357140, Note_on_c, 0, 51, 47
1, 357230, Note_off_c, 0, 51, 60
1, 357333, Note_on_c, 0, 48, 55
1, 357510, Note_off_c, 0, 48, 35
1, 357533, Note_on_c, 0, 56, 49
1, 357929, Note_on_c, 0, 63, 56
1, 358014, Note_off_c, 0, 56, 8
1, 358103, Note_off_c, 0, 63, 56
1, 359526, Control_c, 0, 64, 117
1, 359540, Control_c, 0, 64, 108
1, 359555, Control_c, 0, 64, 103
1, 359570, Control_c, 0, 64, 98
1, 359585, Control_c, 0, 64, 93
1, 359599, Control_c, 0, 64, 91
1, 359614, Control_c, 0, 64, 89
1, 359629, Control_c, 0, 64, 87
1, 359644, Control_c, 0, 64, 85
1, 359659, Control_c, 0, 64, 83
1, 359673, Control_c, 0, 64, 80
1, 359688, Control_c, 0, 64, 78
1, 359703, Control_c, 0, 64, 75
1, 359718, Control_c, 0, 64, 72
1, 359733, Control_c, 0, 64, 69
1, 359747, Control_c, 0, 64, 66
1, 359762, Control_c, 0, 64, 64
1, 359777, Control_c, 0, 64, 63
1, 359792, Control_c, 0, 64, 61
1, 359806, Control_c, 0, 64, 59
1, 359821, Control_c, 0, 64, 57
1, 359836, Control_c, 0, 64, 55
1, 359851, Control_c, 0, 64, 54
1, 359866, Control_c, 0, 64, 52
1, 359880, Control_c, 0, 64, 50
1, 359895, Control_c, 0, 64, 49
1, 359910, Control_c, 0, 64, 48
1, 359925, Control_c, 0, 64, 46
1, 359940, Control_c, 0, 64, 45
1, 359956, Control_c, 0, 64, 43
1, 359970, Control_c, 0, 64, 42
1, 359985, Control_c, 0, 64, 41
1, 360000, Control_c, 0, 64, 39
1, 360015, Control_c, 0, 64, 37
1, 360029, Control_c, 0, 64, 35
1, 360044, Control_c, 0, 64, 32
1, 360059, Control_c, 0, 64, 30
1, 360074, Control_c, 0, 64, 28
1, 360089, Control_c, 0, 64, 26
1, 360104, Control_c, 0, 64, 25
1, 360119, Control_c, 0, 64, 23
1, 360134, Control_c, 0, 64, 22
1, 360149, Control_c, 0, 64, 20
1, 360163, Control_c, 0, 64, 18
1, 360178, Control_c, 0, 64, 16
1, 360193, Control_c, 0, 64, 14
1, 360208, Control_c, 0, 64, 12
1, 360229, Control_c, 0, 64, 9
1, 360244, Control_c, 0, 64, 0
1, 360658, Control_c, 0, 64, 10
1, 360673, Control_c, 0, 64, 12
1, 360688, Control_c, 0, 64, 14
1, 360703, Control_c, 0, 64, 16
1, 360718, Control_c, 0, 64, 18
1, 360733, Control_c, 0, 64, 20
1, 360748, Control_c, 0, 64, 22
1, 360763, Control_c, 0, 64, 24
1, 360778, Control_c, 0, 64, 25
1, 360792, Control_c, 0, 64, 26
1, 360807, Control_c, 0, 64, 28
1, 360822, Control_c, 0, 64, 28
1, 360837, Control_c, 0, 64, 29
1, 360882, Control_c, 0, 64, 29
1, 360897, Control_c, 0, 64, 30
1, 360912, Control_c, 0, 64, 30
1, 360926, Control_c, 0, 64, 31
1, 360941, Control_c, 0, 64, 31
1, 360956, Control_c, 0, 64, 32
1, 360992, Control_c, 0, 64, 32
1, 361081, Note_on_c, 0, 51, 49
1, 361082, Control_c, 0, 64, 32
1, 361111, Control_c, 0, 64, 31
1, 361141, Control_c, 0, 64, 31
1, 361156, Control_c, 0, 64, 30
1, 361170, Control_c, 0, 64, 30
1, 361200, Control_c, 0, 64, 29
1, 361215, Control_c, 0, 64, 28
1, 361230, Control_c, 0, 64, 28
1, 361246, Note_on_c, 0, 53, 62
1, 361258, Note_off_c, 0, 51, 59
1, 361259, Control_c, 0, 64, 27
1, 361304, Control_c, 0, 64, 27
1, 361367, Note_on_c, 0, 51, 75
1, 361422, Control_c, 0, 64, 26
1, 361432, Note_off_c, 0, 53, 55
1, 361458, Note_on_c, 0, 50, 73
1, 361480, Note_off_c, 0, 51, 60
1, 361511, Control_c, 0, 64, 26
1, 361557, Note_on_c, 0, 51, 73
1, 361571, Control_c, 0, 64, 25
1, 361580, Note_off_c, 0, 50, 61
1, 361630, Control_c, 0, 64, 25
1, 361645, Control_c, 0, 64, 24
1, 361675, Control_c, 0, 64, 24
1, 361681, Note_on_c, 0, 60, 78
1, 361690, Note_off_c, 0, 51, 64
1, 361690, Control_c, 0, 64, 23
1, 361705, Control_c, 0, 64, 20
1, 361727, Control_c, 0, 64, 15
1, 361742, Control_c, 0, 64, 0
1, 361896, Note_on_c, 0, 55, 85
1, 361909, Note_off_c, 0, 60, 64
1, 362262, Note_on_c, 0, 58, 73
1, 362292, Note_off_c, 0, 55, 64
1, 362713, Control_c, 0, 64, 12
1, 362728, Control_c, 0, 64, 14
1, 362742, Control_c, 0, 64, 15
1, 362757, Control_c, 0, 64, 17
1, 362772, Control_c, 0, 64, 19
1, 362787, Control_c, 0, 64, 21
1, 362802, Control_c, 0, 64, 22
1, 362816, Control_c, 0, 64, 23
1, 362831, Control_c, 0, 64, 23
1, 362846, Control_c, 0, 64, 24
1, 362861, Control_c, 0, 64, 25
1, 362876, Control_c, 0, 64, 25
1, 362891, Control_c, 0, 64, 27
1, 362906, Control_c, 0, 64, 28
1, 362921, Control_c, 0, 64, 31
1, 362936, Control_c, 0, 64, 34
1, 362950, Control_c, 0, 64, 38
1, 362965, Control_c, 0, 64, 43
1, 362980, Control_c, 0, 64, 49
1, 362995, Control_c, 0, 64, 55
1, 363010, Control_c, 0, 64, 59
1, 363024, Control_c, 0, 64, 62
1, 363039, Control_c, 0, 64, 63
1, 363084, Control_c, 0, 64, 62
1, 363113, Control_c, 0, 64, 62
1, 363128, Control_c, 0, 64, 61
1, 363144, Control_c, 0, 64, 61
1, 363159, Control_c, 0, 64, 60
1, 363225, Control_c, 0, 64, 60
1, 363255, Control_c, 0, 64, 59
1, 363270, Control_c, 0, 64, 59
1, 363299, Control_c, 0, 64, 58
1, 363344, Control_c, 0, 64, 58
1, 363359, Control_c, 0, 64, 57
1, 363373, Control_c, 0, 64, 56
1, 363388, Control_c, 0, 64, 56
1, 363418, Control_c, 0, 64, 55
1, 363433, Control_c, 0, 64, 55
1, 363447, Control_c, 0, 64, 54
1, 363462, Control_c, 0, 64, 53
1, 363477, Control_c, 0, 64, 52
1, 363492, Control_c, 0, 64, 51
1, 363507, Control_c, 0, 64, 50
1, 363521, Control_c, 0, 64, 49
1, 363536, Control_c, 0, 64, 47
1, 363551, Control_c, 0, 64, 45
1, 363565, Control_c, 0, 64, 43
1, 363580, Control_c, 0, 64, 41
1, 363595, Control_c, 0, 64, 39
1, 363596, Note_on_c, 0, 56, 75
1, 363610, Control_c, 0, 64, 36
1, 363625, Control_c, 0, 64, 34
1, 363627, Note_off_c, 0, 58, 62
1, 363639, Control_c, 0, 64, 31
1, 363654, Control_c, 0, 64, 27
1, 363669, Control_c, 0, 64, 25
1, 363684, Control_c, 0, 64, 23
1, 363699, Control_c, 0, 64, 22
1, 363714, Control_c, 0, 64, 19
1, 363729, Control_c, 0, 64, 16
1, 363744, Control_c, 0, 64, 14
1, 363758, Control_c, 0, 64, 12
1, 363773, Control_c, 0, 64, 10
1, 363788, Control_c, 0, 64, 0
1, 363995, Note_on_c, 0, 48, 77
1, 364009, Note_off_c, 0, 56, 64
1, 364287, Note_on_c, 0, 49, 76
1, 364300, Note_off_c, 0, 48, 59
1, 364610, Control_c, 0, 64, 8
1, 364625, Control_c, 0, 64, 10
1, 364640, Control_c, 0, 64, 11
1, 364655, Control_c, 0, 64, 11
1, 364699, Control_c, 0, 64, 0
1, 364731, Note_on_c, 0, 53, 76
1, 364761, Note_off_c, 0, 49, 61
1, 364900, Control_c, 0, 64, 14
1, 364915, Control_c, 0, 64, 23
1, 364930, Control_c, 0, 64, 33
1, 364945, Control_c, 0, 64, 42
1, 364960, Control_c, 0, 64, 52
1, 364975, Control_c, 0, 64, 62
1, 364990, Control_c, 0, 64, 75
1, 365004, Control_c, 0, 64, 104
1, 365019, Control_c, 0, 64, 127
1, 365043, Note_off_c, 0, 53, 66
1, 365874, Note_on_c, 0, 49, 41
1, 365891, Note_on_c, 0, 46, 32
1, 365897, Note_on_c, 0, 39, 34
1, 365992, Note_off_c, 0, 46, 38
1, 366025, Note_off_c, 0, 49, 34
1, 366055, Note_off_c, 0, 39, 23
1, 366064, Control_c, 0, 67, 9
1, 366079, Control_c, 0, 67, 12
1, 366094, Control_c, 0, 67, 16
1, 366108, Control_c, 0, 67, 22
1, 366123, Control_c, 0, 67, 27
1, 366138, Control_c, 0, 67, 31
1, 366153, Control_c, 0, 67, 34
1, 366167, Control_c, 0, 67, 35
1, 366413, Note_on_c, 0, 49, 47
1, 366422, Note_on_c, 0, 46, 40
1, 366431, Note_on_c, 0, 39, 39
1, 366471, Note_off_c, 0, 46, 44
1, 366474, Note_off_c, 0, 49, 52
1, 366477, Note_off_c, 0, 39, 45
1, 366503, Note_on_c, 0, 55, 54
1, 366540, Note_off_c, 0, 55, 64
1, 366573, Note_on_c, 0, 58, 57
1, 366617, Note_on_c, 0, 61, 60
1, 366619, Note_off_c, 0, 58, 60
1, 366620, Control_c, 0, 67, 34
1, 366650, Control_c, 0, 67, 33
1, 366652, Note_off_c, 0, 61, 65
1, 366660, Note_on_c, 0, 63, 50
1, 366665, Control_c, 0, 67, 32
1, 366680, Control_c, 0, 67, 32
1, 366687, Note_off_c, 0, 63, 57
1, 366695, Control_c, 0, 67, 31
1, 366709, Control_c, 0, 67, 30
1, 366724, Control_c, 0, 67, 29
1, 366739, Control_c, 0, 67, 29
1, 366754, Control_c, 0, 67, 28
1, 366769, Control_c, 0, 67, 26
1, 366783, Control_c, 0, 67, 24
1, 366787, Note_on_c, 0, 70, 67
1, 366792, Poly_aftertouch_c, 0, 67, 127
1, 366798, Control_c, 0, 67, 21
1, 366813, Control_c, 0, 67, 15
1, 366824, Poly_aftertouch_c, 0, 67, 0
1, 366827, Note_on_c, 0, 73, 67
1, 366828, Control_c, 0, 67, 0
1, 366847, Note_off_c, 0, 70, 61
1, 366871, Note_off_c, 0, 73, 62
1, 366888, Note_on_c, 0, 75, 29
1, 366891, Note_on_c, 0, 39, 48
1, 366891, Note_on_c, 0, 46, 56
1, 366892, Note_on_c, 0, 49, 46
1, 366927, Note_off_c, 0, 75, 42
1, 366934, Note_on_c, 0, 79, 63
1, 366999, Note_on_c, 0, 82, 69
1, 367056, Note_on_c, 0, 85, 62
1, 367108, Note_off_c, 0, 82, 38
1, 367119, Note_off_c, 0, 85, 63
1, 367127, Note_on_c, 0, 89, 61
1, 367154, Note_on_c, 0, 51, 66
1, 367160, Note_off_c, 0, 46, 62
1, 367163, Note_off_c, 0, 39, 59
1, 367165, Note_off_c, 0, 49, 50
1, 367187, Note_off_c, 0, 89, 60
1, 367198, Note_off_c, 0, 79, 24
1, 367206, Note_on_c, 0, 87, 60
1, 367207, Control_c, 0, 67, 10
1, 367221, Control_c, 0, 67, 11
1, 367236, Control_c, 0, 67, 13
1, 367251, Control_c, 0, 67, 14
1, 367266, Control_c, 0, 67, 15
1, 367267, Note_on_c, 0, 85, 57
1, 367281, Control_c, 0, 67, 16
1, 367294, Note_off_c, 0, 87, 55
1, 367315, Note_on_c, 0, 82, 64
1, 367334, Note_off_c, 0, 85, 50
1, 367354, Control_c, 0, 67, 15
1, 367355, Note_off_c, 0, 82, 59
1, 367369, Control_c, 0, 67, 15
1, 367378, Note_on_c, 0, 79, 61
1, 367384, Control_c, 0, 64, 114
1, 367384, Control_c, 0, 67, 14
1, 367399, Control_c, 0, 64, 99
1, 367399, Control_c, 0, 67, 14
1, 367404, Note_on_c, 0, 45, 81
1, 367407, Note_off_c, 0, 79, 65
1, 367413, Control_c, 0, 64, 88
1, 367422, Note_off_c, 0, 51, 63
1, 367428, Control_c, 0, 64, 82
1, 367443, Control_c, 0, 64, 78
1, 367458, Control_c, 0, 64, 74
1, 367465, Note_on_c, 0, 75, 59
1, 367473, Control_c, 0, 64, 70
1, 367488, Control_c, 0, 64, 67
1, 367488, Control_c, 0, 67, 13
1, 367502, Control_c, 0, 64, 64
1, 367502, Control_c, 0, 67, 12
1, 367517, Control_c, 0, 64, 62
1, 367517, Control_c, 0, 67, 11
1, 367532, Control_c, 0, 64, 59
1, 367532, Control_c, 0, 67, 11
1, 367547, Control_c, 0, 64, 57
1, 367549, Note_off_c, 0, 75, 56
1, 367559, Note_on_c, 0, 73, 56
1, 367562, Control_c, 0, 64, 54
1, 367577, Control_c, 0, 64, 52
1, 367592, Control_c, 0, 64, 51
1, 367606, Control_c, 0, 64, 49
1, 367614, Note_off_c, 0, 73, 58
1, 367621, Control_c, 0, 64, 48
1, 367621, Control_c, 0, 67, 11
1, 367623, Note_on_c, 0, 70, 62
1, 367636, Control_c, 0, 64, 47
1, 367636, Control_c, 0, 67, 12
1, 367651, Control_c, 0, 64, 45
1, 367651, Control_c, 0, 67, 12
1, 367666, Control_c, 0, 64, 43
1, 367666, Note_on_c, 0, 46, 87
1, 367666, Note_off_c, 0, 70, 62
1, 367680, Control_c, 0, 64, 41
1, 367680, Control_c, 0, 67, 13
1, 367681, Note_off_c, 0, 45, 64
1, 367695, Control_c, 0, 64, 38
1, 367715, Note_on_c, 0, 67, 60
1, 367717, Control_c, 0, 64, 36
1, 367732, Control_c, 0, 64, 33
1, 367747, Control_c, 0, 64, 31
1, 367747, Note_off_c, 0, 67, 63
1, 367762, Control_c, 0, 64, 29
1, 367762, Control_c, 0, 67, 13
1, 367777, Control_c, 0, 64, 26
1, 367792, Control_c, 0, 64, 23
1, 367807, Control_c, 0, 64, 21
1, 367810, Note_on_c, 0, 63, 57
1, 367821, Control_c, 0, 64, 20
1, 367821, Control_c, 0, 67, 13
1, 367836, Control_c, 0, 64, 19
1, 367836, Control_c, 0, 67, 11
1, 367851, Control_c, 0, 64, 18
1, 367851, Control_c, 0, 67, 8
1, 367866, Control_c, 0, 64, 18
1, 367866, Control_c, 0, 67, 0
1, 367881, Control_c, 0, 64, 17
1, 367895, Control_c, 0, 64, 17
1, 367910, Control_c, 0, 64, 16
1, 367943, Note_on_c, 0, 61, 60
1, 367944, Note_off_c, 0, 63, 56
1, 367970, Control_c, 0, 64, 17
1, 367985, Control_c, 0, 64, 18
1, 368035, Note_on_c, 0, 49, 85
1, 368054, Note_off_c, 0, 46, 64
1, 368059, Control_c, 0, 64, 17
1, 368074, Control_c, 0, 64, 14
1, 368081, Note_off_c, 0, 61, 63
1, 368089, Control_c, 0, 64, 0
1, 368100, Note_on_c, 0, 58, 51
1, 368229, Note_off_c, 0, 58, 62
1, 368263, Note_on_c, 0, 55, 54
1, 368266, Control_c, 0, 67, 8
1, 368281, Control_c, 0, 67, 8
1, 368296, Control_c, 0, 64, 11
1, 368296, Control_c, 0, 67, 9
1, 368310, Control_c, 0, 64, 19
1, 368325, Control_c, 0, 64, 25
1, 368340, Control_c, 0, 64, 29
1, 368355, Control_c, 0, 64, 33
1, 368370, Control_c, 0, 64, 37
1, 368385, Control_c, 0, 64, 41
1, 368394, Note_on_c, 0, 48, 71
1, 368400, Control_c, 0, 64, 45
1, 368415, Control_c, 0, 64, 49
1, 368429, Control_c, 0, 64, 51
1, 368444, Control_c, 0, 64, 50
1, 368466, Control_c, 0, 64, 41
1, 368471, Note_off_c, 0, 49, 54
1, 368481, Control_c, 0, 64, 16
1, 368495, Control_c, 0, 64, 0
1, 368510, Control_c, 0, 67, 8
1, 368525, Control_c, 0, 67, 0
1, 368555, Control_c, 0, 64, 16
1, 368570, Control_c, 0, 64, 37
1, 368578, Note_off_c, 0, 48, 66
1, 368578, Note_off_c, 0, 55, 63
1, 368585, Control_c, 0, 64, 50
1, 368593, Note_on_c, 0, 51, 53
1, 368599, Control_c, 0, 64, 61
1, 368614, Control_c, 0, 64, 72
1, 368629, Control_c, 0, 64, 82
1, 368644, Control_c, 0, 64, 83
1, 368674, Control_c, 0, 64, 82
1, 368688, Control_c, 0, 64, 79
1, 368703, Control_c, 0, 64, 77
1, 368718, Control_c, 0, 64, 75
1, 368734, Control_c, 0, 64, 73
1, 368748, Control_c, 0, 64, 72
1, 368763, Control_c, 0, 64, 71
1, 368778, Control_c, 0, 64, 70
1, 368808, Control_c, 0, 64, 70
1, 368838, Control_c, 0, 64, 69
1, 368867, Control_c, 0, 64, 69
1, 368882, Control_c, 0, 64, 68
1, 368897, Control_c, 0, 64, 67
1, 368903, Note_on_c, 0, 32, 40
1, 368911, Control_c, 0, 64, 65
1, 368926, Control_c, 0, 64, 62
1, 368941, Note_on_c, 0, 39, 50
1, 368941, Control_c, 0, 64, 55
1, 368956, Control_c, 0, 64, 43
1, 368960, Note_off_c, 0, 51, 30
1, 368971, Control_c, 0, 64, 24
1, 368985, Control_c, 0, 64, 0
1, 368987, Note_on_c, 0, 44, 60
1, 369015, Note_on_c, 0, 48, 44
1, 369050, Note_off_c, 0, 32, 54
1, 369060, Note_off_c, 0, 39, 51
1, 369103, Control_c, 0, 64, 16
1, 369109, Note_off_c, 0, 44, 61
1, 369118, Control_c, 0, 64, 27
1, 369120, Note_off_c, 0, 48, 58
1, 369133, Control_c, 0, 64, 35
1, 369148, Control_c, 0, 64, 43
1, 369163, Control_c, 0, 64, 52
1, 369178, Control_c, 0, 64, 61
1, 369193, Control_c, 0, 64, 70
1, 369215, Control_c, 0, 64, 82
1, 369230, Control_c, 0, 64, 90
1, 369245, Control_c, 0, 64, 91
1, 369259, Control_c, 0, 64, 91
1, 369274, Control_c, 0, 64, 92
1, 369437, Control_c, 0, 64, 92
1, 369452, Control_c, 0, 64, 93
1, 369466, Control_c, 0, 64, 95
1, 369481, Control_c, 0, 64, 100
1, 369496, Control_c, 0, 64, 127
1, 369852, Control_c, 0, 64, 104
1, 369867, Control_c, 0, 64, 69
1, 369881, Control_c, 0, 64, 56
1, 369896, Control_c, 0, 64, 29
1, 369911, Control_c, 0, 64, 0
1, 370289, Control_c, 0, 64, 9
1, 370304, Control_c, 0, 64, 11
1, 370319, Control_c, 0, 64, 11
1, 370349, Control_c, 0, 64, 12
1, 370400, Note_on_c, 0, 51, 54
1, 370409, Control_c, 0, 64, 13
1, 370424, Control_c, 0, 64, 18
1, 370438, Control_c, 0, 64, 24
1, 370453, Control_c, 0, 64, 30
1, 370468, Control_c, 0, 64, 37
1, 370483, Control_c, 0, 64, 45
1, 370497, Control_c, 0, 64, 54
1, 370512, Control_c, 0, 64, 61
1, 370515, Note_off_c, 0, 51, 57
1, 370527, Control_c, 0, 64, 66
1, 370542, Control_c, 0, 64, 68
1, 370571, Control_c, 0, 64, 68
1, 370586, Control_c, 0, 64, 67
1, 370601, Control_c, 0, 64, 65
1, 370616, Control_c, 0, 64, 64
1, 370617, Note_on_c, 0, 51, 69
1, 370630, Control_c, 0, 64, 62
1, 370645, Control_c, 0, 64, 60
1, 370660, Control_c, 0, 64, 58
1, 370675, Control_c, 0, 64, 55
1, 370689, Control_c, 0, 64, 50
1, 370712, Control_c, 0, 64, 44
1, 370727, Control_c, 0, 64, 39
1, 370731, Note_on_c, 0, 53, 64
1, 370734, Note_off_c, 0, 51, 60
1, 370742, Control_c, 0, 64, 36
1, 370756, Control_c, 0, 64, 33
1, 370771, Control_c, 0, 64, 30
1, 370786, Control_c, 0, 64, 28
1, 370801, Control_c, 0, 64, 25
1, 370816, Control_c, 0, 64, 23
1, 370819, Note_on_c, 0, 51, 75
1, 370825, Note_off_c, 0, 53, 66
1, 370829, Control_c, 0, 64, 22
1, 370844, Control_c, 0, 64, 22
1, 370889, Control_c, 0, 64, 21
1, 370917, Note_off_c, 0, 51, 64
1, 370925, Note_on_c, 0, 50, 72
1, 370993, Note_on_c, 0, 51, 68
1, 371000, Note_off_c, 0, 50, 64
1, 371111, Note_off_c, 0, 51, 63
1, 371111, Control_c, 0, 64, 19
1, 371127, Control_c, 0, 64, 12
1, 371129, Note_on_c, 0, 63, 84
1, 371142, Control_c, 0, 64, 0
1, 371352, Note_on_c, 0, 60, 83
1, 371366, Note_off_c, 0, 63, 56
1, 371511, Note_on_c, 0, 55, 84
1, 371512, Note_off_c, 0, 60, 67
1, 371798, Note_on_c, 0, 58, 72
1, 371822, Note_off_c, 0, 55, 64
1, 372930, Note_on_c, 0, 56, 66
1, 372975, Note_off_c, 0, 58, 63
1, 373262, Note_on_c, 0, 48, 72
1, 373278, Note_off_c, 0, 56, 63
1, 373538, Note_on_c, 0, 49, 79
1, 373551, Note_off_c, 0, 48, 61
1, 373998, Note_on_c, 0, 53, 72
1, 374037, Note_off_c, 0, 49, 62
1, 374181, Control_c, 0, 64, 18
1, 374196, Control_c, 0, 64, 29
1, 374211, Control_c, 0, 64, 39
1, 374225, Control_c, 0, 64, 52
1, 374240, Control_c, 0, 64, 64
1, 374255, Control_c, 0, 64, 101
1, 374270, Control_c, 0, 64, 127
1, 374290, Note_off_c, 0, 53, 65
1, 375140, Note_on_c, 0, 49, 46
1, 375152, Note_on_c, 0, 39, 40
1, 375164, Note_on_c, 0, 46, 29
1, 375207, Note_off_c, 0, 49, 58
1, 375212, Note_off_c, 0, 39, 57
1, 375220, Note_off_c, 0, 46, 46
1, 375257, Note_on_c, 0, 55, 40
1, 375290, Note_off_c, 0, 55, 54
1, 375320, Note_on_c, 0, 58, 56
1, 375365, Note_off_c, 0, 58, 62
1, 375375, Note_on_c, 0, 61, 55
1, 375405, Note_off_c, 0, 61, 65
1, 375417, Note_on_c, 0, 63, 42
1, 375447, Note_off_c, 0, 63, 55
1, 375479, Note_on_c, 0, 67, 54
1, 375538, Note_off_c, 0, 67, 57
1, 375543, Note_on_c, 0, 70, 63
1, 375591, Note_on_c, 0, 73, 65
1, 375611, Note_off_c, 0, 70, 62
1, 375626, Note_off_c, 0, 73, 65
1, 375638, Note_on_c, 0, 75, 44
1, 375642, Note_on_c, 0, 39, 50
1, 375646, Note_on_c, 0, 49, 43
1, 375655, Note_on_c, 0, 46, 39
1, 375666, Note_off_c, 0, 75, 57
1, 375685, Note_off_c, 0, 49, 58
1, 375698, Note_on_c, 0, 79, 58
1, 375700, Note_off_c, 0, 46, 46
1, 375710, Note_off_c, 0, 39, 47
1, 375753, Note_on_c, 0, 82, 72
1, 375810, Note_on_c, 0, 85, 64
1, 375817, Note_off_c, 0, 82, 63
1, 375820, Note_off_c, 0, 79, 33
1, 375835, Note_off_c, 0, 85, 67
1, 375903, Note_on_c, 0, 91, 65
1, 375983, Note_on_c, 0, 94, 57
1, 376062, Note_on_c, 0, 97, 66
1, 376159, Note_on_c, 0, 49, 40
1, 376176, Note_on_c, 0, 46, 37
1, 376177, Note_on_c, 0, 39, 42
1, 376189, Note_on_c, 0, 101, 67
1, 376200, Note_off_c, 0, 97, 55
1, 376223, Note_off_c, 0, 94, 38
1, 376335, Note_on_c, 0, 99, 60
1, 376397, Note_off_c, 0, 101, 35
1, 376398, Control_c, 0, 67, 10
1, 376412, Note_off_c, 0, 91, 29
1, 376413, Control_c, 0, 67, 16
1, 376428, Control_c, 0, 67, 24
1, 376442, Control_c, 0, 67, 33
1, 376445, Note_on_c, 0, 97, 59
1, 376457, Control_c, 0, 67, 42
1, 376472, Control_c, 0, 67, 50
1, 376487, Control_c, 0, 67, 58
1, 376493, Note_off_c, 0, 99, 55
1, 376502, Control_c, 0, 67, 64
1, 376517, Control_c, 0, 67, 70
1, 376517, Note_on_c, 0, 94, 61
1, 376532, Control_c, 0, 67, 76
1, 376537, Note_off_c, 0, 97, 54
1, 376547, Control_c, 0, 67, 82
1, 376561, Control_c, 0, 67, 88
1, 376572, Note_off_c, 0, 94, 62
1, 376576, Control_c, 0, 67, 94
1, 376591, Control_c, 0, 67, 102
1, 376594, Note_on_c, 0, 91, 60
1, 376598, Note_on_c, 0, 51, 67
1, 376600, Note_off_c, 0, 39, 61
1, 376606, Control_c, 0, 67, 109
1, 376606, Note_off_c, 0, 46, 55
1, 376618, Note_off_c, 0, 91, 63
1, 376620, Control_c, 0, 67, 116
1, 376622, Note_off_c, 0, 49, 41
1, 376635, Control_c, 0, 67, 120
1, 376650, Control_c, 0, 67, 124
1, 376665, Control_c, 0, 67, 127
1, 376689, Note_on_c, 0, 87, 62
1, 376768, Note_off_c, 0, 87, 59
1, 376779, Note_on_c, 0, 85, 60
1, 376806, Control_c, 0, 67, 127
1, 376821, Note_on_c, 0, 45, 83
1, 376821, Control_c, 0, 67, 123
1, 376824, Note_off_c, 0, 51, 62
1, 376827, Note_on_c, 0, 82, 69
1, 376836, Control_c, 0, 67, 119
1, 376842, Note_off_c, 0, 85, 54
1, 376851, Control_c, 0, 67, 114
1, 376866, Control_c, 0, 67, 106
1, 376871, Note_off_c, 0, 82, 62
1, 376880, Control_c, 0, 67, 90
1, 376895, Control_c, 0, 67, 60
1, 376897, Note_on_c, 0, 79, 65
1, 376910, Control_c, 0, 67, 24
1, 376923, Note_off_c, 0, 79, 65
1, 376925, Control_c, 0, 67, 0
1, 376982, Note_on_c, 0, 75, 65
1, 377066, Note_on_c, 0, 46, 89
1, 377078, Note_off_c, 0, 45, 65
1, 377092, Note_on_c, 0, 73, 65
1, 377098, Note_off_c, 0, 75, 56
1, 377103, Control_c, 0, 64, 115
1, 377117, Control_c, 0, 64, 107
1, 377128, Note_off_c, 0, 73, 62
1, 377132, Control_c, 0, 64, 99
1, 377147, Control_c, 0, 64, 93
1, 377162, Control_c, 0, 64, 88
1, 377169, Note_on_c, 0, 70, 50
1, 377177, Control_c, 0, 64, 86
1, 377192, Control_c, 0, 64, 84
1, 377192, Control_c, 0, 67, 8
1, 377206, Control_c, 0, 64, 81
1, 377206, Control_c, 0, 67, 12
1, 377207, Note_off_c, 0, 70, 53
1, 377221, Control_c, 0, 64, 78
1, 377221, Control_c, 0, 67, 15
1, 377236, Control_c, 0, 64, 75
1, 377236, Control_c, 0, 67, 18
1, 377247, Note_on_c, 0, 67, 62
1, 377250, Control_c, 0, 64, 72
1, 377250, Control_c, 0, 67, 23
1, 377265, Control_c, 0, 64, 71
1, 377265, Control_c, 0, 67, 29
1, 377280, Control_c, 0, 64, 70
1, 377280, Control_c, 0, 67, 39
1, 377283, Note_off_c, 0, 67, 59
1, 377295, Control_c, 0, 64, 69
1, 377295, Control_c, 0, 67, 51
1, 377310, Control_c, 0, 64, 68
1, 377310, Control_c, 0, 67, 59
1, 377325, Control_c, 0, 64, 67
1, 377325, Control_c, 0, 67, 65
1, 377339, Control_c, 0, 64, 67
1, 377339, Control_c, 0, 67, 70
1, 377347, Note_on_c, 0, 63, 56
1, 377354, Control_c, 0, 64, 66
1, 377354, Control_c, 0, 67, 76
1, 377369, Control_c, 0, 67, 81
1, 377384, Control_c, 0, 64, 66
1, 377384, Control_c, 0, 67, 85
1, 377399, Control_c, 0, 64, 64
1, 377399, Control_c, 0, 67, 90
1, 377408, Note_on_c, 0, 49, 84
1, 377414, Control_c, 0, 64, 60
1, 377414, Control_c, 0, 67, 93
1, 377423, Note_off_c, 0, 46, 63
1, 377429, Control_c, 0, 64, 51
1, 377429, Control_c, 0, 67, 94
1, 377450, Control_c, 0, 64, 24
1, 377450, Control_c, 0, 67, 94
1, 377465, Control_c, 0, 64, 0
1, 377480, Control_c, 0, 67, 95
1, 377495, Control_c, 0, 67, 95
1, 377534, Note_off_c, 0, 63, 53
1, 377548, Note_on_c, 0, 61, 44
1, 377629, Control_c, 0, 64, 9
1, 377629, Control_c, 0, 67, 96
1, 377637, Note_off_c, 0, 61, 63
1, 377644, Control_c, 0, 64, 18
1, 377644, Control_c, 0, 67, 98
1, 377659, Control_c, 0, 64, 24
1, 377659, Control_c, 0, 67, 101
1, 377661, Note_on_c, 0, 58, 53
1, 377673, Control_c, 0, 64, 28
1, 377673, Control_c, 0, 67, 108
1, 377688, Control_c, 0, 64, 33
1, 377688, Control_c, 0, 67, 113
1, 377703, Control_c, 0, 64, 39
1, 377703, Control_c, 0, 67, 120
1, 377718, Control_c, 0, 64, 45
1, 377718, Control_c, 0, 67, 125
1, 377733, Control_c, 0, 64, 53
1, 377733, Control_c, 0, 67, 127
1, 377748, Control_c, 0, 64, 58
1, 377763, Control_c, 0, 64, 61
1, 377766, Note_off_c, 0, 58, 57
1, 377771, Note_on_c, 0, 48, 79
1, 377793, Control_c, 0, 64, 59
1, 377807, Control_c, 0, 64, 51
1, 377819, Note_off_c, 0, 49, 31
1, 377822, Control_c, 0, 64, 34
1, 377837, Control_c, 0, 64, 0
1, 377840, Note_on_c, 0, 55, 32
1, 377866, Control_c, 0, 64, 23
1, 377881, Control_c, 0, 64, 37
1, 377891, Note_off_c, 0, 48, 66
1, 377896, Control_c, 0, 64, 51
1, 377911, Control_c, 0, 64, 63
1, 377926, Control_c, 0, 64, 83
1, 377940, Control_c, 0, 64, 119
1, 377955, Control_c, 0, 64, 127
1, 377963, Note_off_c, 0, 55, 55
1, 377965, Note_on_c, 0, 51, 58
1, 377985, Control_c, 0, 64, 122
1, 378000, Control_c, 0, 64, 108
1, 378014, Control_c, 0, 64, 103
1, 378018, Note_off_c, 0, 51, 59
1, 378029, Control_c, 0, 64, 100
1, 378044, Control_c, 0, 64, 99
1, 378059, Control_c, 0, 64, 98
1, 378073, Control_c, 0, 64, 97
1, 378088, Control_c, 0, 64, 97
1, 378118, Control_c, 0, 64, 96
1, 378162, Control_c, 0, 64, 95
1, 378177, Control_c, 0, 64, 88
1, 378199, Control_c, 0, 64, 78
1, 378201, Note_on_c, 0, 44, 76
1, 378214, Control_c, 0, 64, 66
1, 378229, Control_c, 0, 64, 58
1, 378244, Control_c, 0, 64, 41
1, 378259, Control_c, 0, 64, 0
1, 378374, Note_on_c, 0, 48, 50
1, 378439, Control_c, 0, 64, 16
1, 378453, Control_c, 0, 64, 23
1, 378468, Control_c, 0, 64, 27
1, 378469, Note_off_c, 0, 48, 47
1, 378483, Control_c, 0, 64, 31
1, 378489, Note_on_c, 0, 51, 48
1, 378497, Control_c, 0, 64, 37
1, 378512, Control_c, 0, 64, 42
1, 378527, Control_c, 0, 64, 49
1, 378542, Control_c, 0, 64, 54
1, 378557, Control_c, 0, 64, 58
1, 378562, Note_off_c, 0, 51, 60
1, 378571, Note_on_c, 0, 56, 57
1, 378571, Control_c, 0, 64, 60
1, 378586, Control_c, 0, 64, 61
1, 378586, Control_c, 0, 67, 127
1, 378616, Control_c, 0, 67, 126
1, 378627, Note_off_c, 0, 56, 60
1, 378631, Note_on_c, 0, 58, 55
1, 378631, Control_c, 0, 67, 126
1, 378645, Control_c, 0, 67, 125
1, 378654, Note_off_c, 0, 58, 64
1, 378660, Control_c, 0, 67, 124
1, 378675, Control_c, 0, 67, 123
1, 378690, Control_c, 0, 67, 122
1, 378705, Control_c, 0, 67, 121
1, 378720, Control_c, 0, 67, 120
1, 378731, Note_on_c, 0, 60, 45
1, 378735, Control_c, 0, 67, 119
1, 378749, Control_c, 0, 67, 117
1, 378751, Note_on_c, 0, 39, 42
1, 378755, Note_on_c, 0, 32, 41
1, 378764, Control_c, 0, 64, 61
1, 378764, Control_c, 0, 67, 116
1, 378779, Control_c, 0, 64, 62
1, 378779, Control_c, 0, 67, 114
1, 378794, Control_c, 0, 64, 64
1, 378794, Control_c, 0, 67, 113
1, 378801, Note_off_c, 0, 60, 58
1, 378802, Note_off_c, 0, 32, 47
1, 378806, Note_off_c, 0, 39, 43
1, 378809, Control_c, 0, 64, 67
1, 378809, Control_c, 0, 67, 111
1, 378809, Note_on_c, 0, 63, 51
1, 378823, Control_c, 0, 64, 71
1, 378823, Control_c, 0, 67, 109
1, 378838, Control_c, 0, 64, 77
1, 378838, Control_c, 0, 67, 107
1, 378853, Control_c, 0, 64, 85
1, 378853, Control_c, 0, 67, 104
1, 378868, Control_c, 0, 64, 95
1, 378868, Control_c, 0, 67, 102
1, 378878, Note_on_c, 0, 68, 62
1, 378883, Control_c, 0, 64, 115
1, 378883, Control_c, 0, 67, 98
1, 378897, Control_c, 0, 64, 127
1, 378897, Control_c, 0, 67, 94
1, 378898, Note_off_c, 0, 63, 62
1, 378912, Control_c, 0, 67, 87
1, 378925, Note_off_c, 0, 68, 58
1, 378927, Control_c, 0, 67, 77
1, 378933, Note_on_c, 0, 70, 49
1, 378949, Control_c, 0, 67, 63
1, 378964, Note_off_c, 0, 70, 58
1, 378964, Control_c, 0, 67, 47
1, 378979, Control_c, 0, 67, 31
1, 378994, Control_c, 0, 67, 16
1, 379008, Note_on_c, 0, 72, 60
1, 379009, Control_c, 0, 67, 0
1, 379078, Note_off_c, 0, 72, 60
1, 379094, Note_on_c, 0, 75, 55
1, 379141, Note_on_c, 0, 39, 47
1, 379145, Note_on_c, 0, 32, 39
1, 379158, Note_on_c, 0, 80, 66
1, 379176, Note_off_c, 0, 75, 62
1, 379185, Note_off_c, 0, 32, 60
1, 379213, Note_off_c, 0, 39, 62
1, 379214, Note_on_c, 0, 82, 59
1, 379221, Note_off_c, 0, 80, 62
1, 379234, Note_off_c, 0, 82, 66
1, 379302, Note_on_c, 0, 84, 50
1, 379353, Note_on_c, 0, 86, 14
1, 379366, Note_on_c, 0, 87, 63
1, 379398, Note_off_c, 0, 86, 39
1, 379421, Note_off_c, 0, 84, 49
1, 379432, Note_on_c, 0, 92, 69
1, 379452, Note_off_c, 0, 87, 57
1, 379501, Note_on_c, 0, 94, 65
1, 379568, Note_off_c, 0, 92, 63
1, 379575, Note_on_c, 0, 37, 63
1, 379577, Note_on_c, 0, 96, 70
1, 379580, Note_off_c, 0, 94, 63
1, 379584, Note_on_c, 0, 40, 65
1, 379584, Note_off_c, 0, 44, 61
1, 379586, Control_c, 0, 64, 86
1, 379601, Control_c, 0, 64, 63
1, 379616, Control_c, 0, 64, 46
1, 379631, Control_c, 0, 64, 15
1, 379645, Control_c, 0, 64, 0
1, 379666, Note_on_c, 0, 94, 70
1, 379675, Control_c, 0, 67, 8
1, 379697, Control_c, 0, 67, 10
1, 379712, Control_c, 0, 67, 12
1, 379727, Control_c, 0, 67, 15
1, 379740, Note_on_c, 0, 92, 70
1, 379742, Control_c, 0, 67, 17
1, 379748, Note_off_c, 0, 96, 33
1, 379757, Control_c, 0, 67, 21
1, 379772, Control_c, 0, 67, 25
1, 379781, Note_off_c, 0, 94, 61
1, 379787, Control_c, 0, 67, 27
1, 379801, Control_c, 0, 67, 28
1, 379805, Note_off_c, 0, 92, 64
1, 379815, Note_on_c, 0, 88, 65
1, 379835, Note_on_c, 0, 43, 80
1, 379875, Control_c, 0, 67, 28
1, 379890, Control_c, 0, 67, 26
1, 379891, Note_off_c, 0, 40, 63
1, 379905, Control_c, 0, 67, 25
1, 379906, Note_off_c, 0, 88, 51
1, 379919, Note_on_c, 0, 85, 60
1, 379921, Control_c, 0, 67, 25
1, 379936, Control_c, 0, 67, 24
1, 379950, Control_c, 0, 67, 23
1, 379980, Control_c, 0, 67, 23
1, 380012, Note_on_c, 0, 82, 69
1, 380056, Note_off_c, 0, 85, 44
1, 380068, Control_c, 0, 67, 22
1, 380076, Note_on_c, 0, 46, 90
1, 380083, Control_c, 0, 67, 21
1, 380085, Note_on_c, 0, 80, 66
1, 380090, Note_off_c, 0, 82, 58
1, 380098, Control_c, 0, 67, 19
1, 380113, Note_off_c, 0, 43, 62
1, 380113, Control_c, 0, 67, 15
1, 380128, Control_c, 0, 67, 10
1, 380133, Note_off_c, 0, 80, 62
1, 380142, Control_c, 0, 67, 0
1, 380167, Note_on_c, 0, 76, 62
1, 380187, Control_c, 0, 64, 11
1, 380202, Control_c, 0, 64, 18
1, 380216, Control_c, 0, 64, 23
1, 380231, Control_c, 0, 64, 27
1, 380243, Note_off_c, 0, 76, 37
1, 380246, Control_c, 0, 64, 29
1, 380258, Note_on_c, 0, 73, 60
1, 380261, Control_c, 0, 64, 32
1, 380276, Control_c, 0, 64, 33
1, 380287, Note_on_c, 0, 44, 86
1, 380291, Control_c, 0, 64, 34
1, 380298, Note_off_c, 0, 46, 64
1, 380305, Control_c, 0, 64, 35
1, 380320, Control_c, 0, 64, 36
1, 380335, Control_c, 0, 64, 37
1, 380361, Note_on_c, 0, 70, 67
1, 380371, Note_off_c, 0, 73, 52
1, 380395, Control_c, 0, 64, 37
1, 380446, Control_c, 0, 67, 9
1, 380447, Note_on_c, 0, 68, 67
1, 380450, Note_off_c, 0, 70, 61
1, 380461, Control_c, 0, 67, 15
1, 380475, Control_c, 0, 67, 20
1, 380490, Control_c, 0, 67, 25
1, 380505, Control_c, 0, 67, 31
1, 380508, Note_off_c, 0, 68, 59
1, 380520, Control_c, 0, 67, 39
1, 380535, Control_c, 0, 67, 45
1, 380549, Note_on_c, 0, 64, 55
1, 380550, Control_c, 0, 67, 52
1, 380565, Control_c, 0, 64, 37
1, 380565, Control_c, 0, 67, 57
1, 380580, Control_c, 0, 64, 34
1, 380580, Control_c, 0, 67, 62
1, 380589, Note_on_c, 0, 49, 80
1, 380594, Control_c, 0, 64, 27
1, 380594, Control_c, 0, 67, 68
1, 380609, Control_c, 0, 64, 0
1, 380609, Control_c, 0, 67, 75
1, 380618, Note_off_c, 0, 44, 64
1, 380624, Control_c, 0, 67, 86
1, 380639, Control_c, 0, 67, 96
1, 380654, Control_c, 0, 67, 106
1, 380654, Note_off_c, 0, 64, 54
1, 380667, Note_on_c, 0, 61, 54
1, 380668, Control_c, 0, 67, 116
1, 380683, Control_c, 0, 67, 126
1, 380698, Control_c, 0, 67, 127
1, 380759, Control_c, 0, 64, 19
1, 380773, Control_c, 0, 64, 25
1, 380788, Control_c, 0, 64, 31
1, 380788, Note_off_c, 0, 61, 58
1, 380801, Note_on_c, 0, 58, 55
1, 380803, Control_c, 0, 64, 37
1, 380818, Control_c, 0, 64, 43
1, 380833, Control_c, 0, 64, 48
1, 380847, Note_off_c, 0, 37, 39
1, 380847, Control_c, 0, 64, 53
1, 380862, Control_c, 0, 64, 56
1, 380891, Control_c, 0, 64, 55
1, 380892, Note_off_c, 0, 49, 63
1, 380895, Note_on_c, 0, 46, 81
1, 380909, Note_off_c, 0, 58, 59
1, 380928, Note_on_c, 0, 56, 50
1, 380953, Note_off_c, 0, 46, 66
1, 380980, Control_c, 0, 64, 56
1, 381009, Note_off_c, 0, 56, 59
1, 381065, Note_on_c, 0, 52, 52
1, 381098, Control_c, 0, 64, 55
1, 381128, Control_c, 0, 64, 55
1, 381141, Note_on_c, 0, 49, 55
1, 381158, Control_c, 0, 64, 54
1, 381177, Note_off_c, 0, 52, 0
1, 381206, Poly_aftertouch_c, 0, 52, 0
1, 381224, Control_c, 0, 64, 54
1, 381250, Note_off_c, 0, 49, 0
1, 381287, Poly_aftertouch_c, 0, 49, 127
1, 381298, Control_c, 0, 64, 53
1, 381299, Note_on_c, 0, 44, 77
1, 381313, Control_c, 0, 64, 49
1, 381328, Control_c, 0, 64, 42
1, 381343, Control_c, 0, 64, 24
1, 381346, Poly_aftertouch_c, 0, 49, 0
1, 381358, Control_c, 0, 64, 0
1, 381448, Note_on_c, 0, 48, 54
1, 381546, Note_off_c, 0, 48, 56
1, 381570, Note_on_c, 0, 51, 48
1, 381581, Control_c, 0, 64, 19
1, 381596, Control_c, 0, 64, 29
1, 381611, Control_c, 0, 64, 36
1, 381626, Control_c, 0, 64, 44
1, 381640, Control_c, 0, 64, 51
1, 381655, Control_c, 0, 64, 58
1, 381656, Note_off_c, 0, 51, 60
1, 381667, Note_on_c, 0, 56, 62
1, 381670, Control_c, 0, 64, 62
1, 381685, Control_c, 0, 64, 64
1, 381700, Control_c, 0, 64, 65
1, 381746, Note_on_c, 0, 58, 61
1, 381748, Note_off_c, 0, 56, 58
1, 381781, Note_off_c, 0, 58, 65
1, 381788, Control_c, 0, 64, 63
1, 381803, Control_c, 0, 64, 59
1, 381818, Control_c, 0, 64, 51
1, 381833, Control_c, 0, 64, 40
1, 381846, Note_on_c, 0, 60, 55
1, 381847, Control_c, 0, 64, 34
1, 381862, Control_c, 0, 64, 35
1, 381863, Note_on_c, 0, 39, 36
1, 381877, Control_c, 0, 64, 38
1, 381892, Control_c, 0, 64, 43
1, 381907, Control_c, 0, 64, 49
1, 381913, Note_off_c, 0, 39, 44
1, 381921, Control_c, 0, 64, 56
1, 381944, Control_c, 0, 64, 62
1, 381952, Note_on_c, 0, 63, 47
1, 381957, Poly_aftertouch_c, 0, 32, 0
1, 381959, Control_c, 0, 64, 67
1, 381974, Control_c, 0, 64, 73
1, 381980, Note_off_c, 0, 60, 35
1, 381988, Control_c, 0, 64, 79
1, 382003, Control_c, 0, 64, 86
1, 382018, Control_c, 0, 64, 97
1, 382031, Note_on_c, 0, 68, 61
1, 382033, Control_c, 0, 64, 127
1, 382053, Note_off_c, 0, 63, 60
1, 382094, Note_on_c, 0, 70, 54
1, 382101, Note_off_c, 0, 68, 59
1, 382115, Note_off_c, 0, 70, 63
1, 382178, Note_on_c, 0, 72, 52
1, 382264, Note_on_c, 0, 75, 56
1, 382282, Note_on_c, 0, 39, 43
1, 382292, Note_on_c, 0, 32, 38
1, 382299, Note_off_c, 0, 72, 44
1, 382315, Control_c, 0, 67, 123
1, 382329, Control_c, 0, 67, 111
1, 382344, Control_c, 0, 67, 96
1, 382347, Note_on_c, 0, 80, 62
1, 382359, Control_c, 0, 67, 79
1, 382364, Note_off_c, 0, 32, 51
1, 382371, Note_off_c, 0, 75, 60
1, 382374, Control_c, 0, 67, 58
1, 382389, Control_c, 0, 67, 34
1, 382393, Note_off_c, 0, 39, 60
1, 382404, Control_c, 0, 67, 10
1, 382408, Note_on_c, 0, 82, 61
1, 382418, Control_c, 0, 67, 0
1, 382422, Note_off_c, 0, 80, 60
1, 382437, Note_off_c, 0, 82, 65
1, 382513, Note_on_c, 0, 84, 41
1, 382575, Note_off_c, 0, 84, 63
1, 382590, Note_on_c, 0, 87, 53
1, 382669, Control_c, 0, 67, 9
1, 382692, Control_c, 0, 67, 15
1, 382707, Control_c, 0, 67, 25
1, 382708, Note_on_c, 0, 92, 63
1, 382711, Note_off_c, 0, 87, 53
1, 382722, Control_c, 0, 67, 39
1, 382736, Control_c, 0, 67, 54
1, 382751, Control_c, 0, 67, 72
1, 382766, Control_c, 0, 67, 84
1, 382781, Control_c, 0, 67, 93
1, 382795, Control_c, 0, 67, 99
1, 382797, Note_on_c, 0, 94, 55
1, 382810, Control_c, 0, 67, 103
1, 382825, Control_c, 0, 67, 107
1, 382840, Control_c, 0, 67, 111
1, 382841, Note_off_c, 0, 92, 0
1, 382855, Control_c, 0, 67, 115
1, 382869, Control_c, 0, 67, 120
1, 382878, Poly_aftertouch_c, 0, 92, 127
1, 382884, Control_c, 0, 67, 124
1, 382899, Control_c, 0, 67, 127
1, 382944, Note_on_c, 0, 41, 46
1, 382945, Note_on_c, 0, 37, 47
1, 382958, Control_c, 0, 64, 96
1, 382971, Note_on_c, 0, 97, 56
1, 382973, Control_c, 0, 64, 72
1, 382977, Note_off_c, 0, 44, 36
1, 382988, Control_c, 0, 64, 59
1, 382993, Note_off_c, 0, 94, 36
1, 383002, Poly_aftertouch_c, 0, 92, 0
1, 383003, Control_c, 0, 64, 46
1, 383018, Control_c, 0, 64, 28
1, 383033, Control_c, 0, 64, 0
1, 383164, Note_on_c, 0, 94, 47
1, 383263, Note_on_c, 0, 92, 59
1, 383271, Control_c, 0, 64, 8
1, 383285, Control_c, 0, 64, 24
1, 383300, Control_c, 0, 64, 34
1, 383315, Control_c, 0, 64, 43
1, 383330, Control_c, 0, 64, 52
1, 383345, Control_c, 0, 64, 62
1, 383355, Note_off_c, 0, 97, 41
1, 383356, Note_off_c, 0, 94, 39
1, 383358, Note_off_c, 0, 92, 64
1, 383359, Control_c, 0, 64, 72
1, 383374, Control_c, 0, 64, 95
1, 383387, Note_on_c, 0, 43, 52
1, 383388, Note_on_c, 0, 89, 62
1, 383389, Control_c, 0, 64, 108
1, 383456, Control_c, 0, 64, 108
1, 383471, Control_c, 0, 64, 101
1, 383477, Note_off_c, 0, 89, 45
1, 383485, Control_c, 0, 64, 95
1, 383500, Control_c, 0, 64, 91
1, 383515, Control_c, 0, 64, 89
1, 383530, Control_c, 0, 64, 88
1, 383545, Control_c, 0, 64, 88
1, 383549, Note_on_c, 0, 85, 51
1, 383560, Control_c, 0, 64, 87
1, 383574, Control_c, 0, 64, 86
1, 383589, Control_c, 0, 64, 82
1, 383604, Control_c, 0, 64, 74
1, 383618, Control_c, 0, 64, 66
1, 383633, Control_c, 0, 64, 59
1, 383648, Control_c, 0, 64, 52
1, 383656, Note_on_c, 0, 82, 59
1, 383663, Control_c, 0, 64, 44
1, 383678, Control_c, 0, 64, 40
1, 383692, Control_c, 0, 64, 40
1, 383707, Control_c, 0, 64, 41
1, 383714, Note_off_c, 0, 85, 31
1, 383716, Note_on_c, 0, 46, 61
1, 383722, Control_c, 0, 64, 43
1, 383731, Note_off_c, 0, 82, 61
1, 383737, Control_c, 0, 64, 47
1, 383742, Note_on_c, 0, 80, 63
1, 383747, Note_off_c, 0, 43, 59
1, 383752, Control_c, 0, 64, 52
1, 383766, Control_c, 0, 64, 56
1, 383781, Control_c, 0, 64, 61
1, 383796, Control_c, 0, 64, 63
1, 383805, Note_off_c, 0, 80, 62
1, 383811, Control_c, 0, 64, 65
1, 383826, Control_c, 0, 64, 65
1, 383840, Note_on_c, 0, 77, 60
1, 383853, Note_off_c, 0, 41, 0
1, 383885, Control_c, 0, 64, 66
1, 383890, Poly_aftertouch_c, 0, 41, 127
1, 383900, Control_c, 0, 64, 66
1, 383915, Control_c, 0, 64, 66
1, 383930, Control_c, 0, 64, 63
1, 383945, Control_c, 0, 64, 54
1, 383960, Note_off_c, 0, 77, 35
1, 383960, Control_c, 0, 64, 41
1, 383975, Note_on_c, 0, 73, 49
1, 383975, Control_c, 0, 64, 27
1, 383990, Control_c, 0, 64, 23
1, 383995, Note_off_c, 0, 46, 64
1, 384002, Note_on_c, 0, 44, 55
1, 384005, Control_c, 0, 64, 25
1, 384020, Control_c, 0, 64, 29
1, 384034, Control_c, 0, 64, 35
1, 384049, Control_c, 0, 64, 41
1, 384063, Note_off_c, 0, 37, 58
1, 384064, Control_c, 0, 64, 48
1, 384064, Poly_aftertouch_c, 0, 41, 0
1, 384079, Control_c, 0, 64, 54
1, 384092, Note_on_c, 0, 70, 54
1, 384094, Control_c, 0, 64, 58
1, 384108, Control_c, 0, 64, 61
1, 384123, Control_c, 0, 64, 62
1, 384140, Note_off_c, 0, 73, 40
1, 384168, Control_c, 0, 64, 62
1, 384180, Note_off_c, 0, 70, 56
1, 384181, Note_on_c, 0, 68, 65
1, 384255, Note_off_c, 0, 68, 58
1, 384264, Control_c, 0, 64, 62
1, 384308, Control_c, 0, 64, 61
1, 384311, Note_off_c, 0, 44, 35
1, 384323, Control_c, 0, 64, 57
1, 384333, Note_on_c, 0, 65, 28
1, 384338, Control_c, 0, 64, 49
1, 384351, Note_on_c, 0, 53, 63
1, 384353, Control_c, 0, 64, 35
1, 384367, Note_off_c, 0, 65, 45
1, 384367, Control_c, 0, 64, 16
1, 384382, Control_c, 0, 64, 0
1, 384441, Control_c, 0, 64, 14
1, 384444, Note_on_c, 0, 61, 48
1, 384456, Control_c, 0, 64, 19
1, 384471, Control_c, 0, 64, 22
1, 384486, Control_c, 0, 64, 24
1, 384501, Control_c, 0, 64, 26
1, 384515, Control_c, 0, 64, 28
1, 384530, Control_c, 0, 64, 30
1, 384545, Control_c, 0, 64, 32
1, 384559, Control_c, 0, 64, 35
1, 384574, Control_c, 0, 64, 37
1, 384589, Control_c, 0, 64, 40
1, 384604, Note_off_c, 0, 61, 37
1, 384604, Control_c, 0, 64, 42
1, 384619, Control_c, 0, 64, 44
1, 384620, Note_on_c, 0, 58, 42
1, 384628, Note_off_c, 0, 53, 60
1, 384634, Control_c, 0, 64, 45
1, 384649, Control_c, 0, 64, 46
1, 384649, Control_c, 0, 67, 127
1, 384658, Note_on_c, 0, 49, 52
1, 384664, Control_c, 0, 64, 46
1, 384664, Control_c, 0, 67, 125
1, 384678, Control_c, 0, 64, 47
1, 384678, Control_c, 0, 67, 124
1, 384693, Control_c, 0, 64, 49
1, 384693, Control_c, 0, 67, 122
1, 384709, Control_c, 0, 64, 50
1, 384709, Control_c, 0, 67, 120
1, 384724, Control_c, 0, 64, 52
1, 384724, Control_c, 0, 67, 118
1, 384738, Control_c, 0, 64, 53
1, 384738, Control_c, 0, 67, 114
1, 384753, Control_c, 0, 64, 54
1, 384753, Control_c, 0, 67, 107
1, 384768, Control_c, 0, 64, 55
1, 384768, Control_c, 0, 67, 99
1, 384783, Note_on_c, 0, 56, 44
1, 384783, Control_c, 0, 67, 92
1, 384791, Note_off_c, 0, 58, 37
1, 384798, Control_c, 0, 67, 83
1, 384813, Control_c, 0, 67, 75
1, 384827, Control_c, 0, 67, 66
1, 384842, Note_off_c, 0, 49, 55
1, 384842, Control_c, 0, 67, 58
1, 384857, Control_c, 0, 67, 49
1, 384872, Control_c, 0, 67, 44
1, 384880, Note_on_c, 0, 46, 60
1, 384887, Control_c, 0, 67, 41
1, 384902, Control_c, 0, 67, 38
1, 384917, Control_c, 0, 67, 35
1, 384938, Control_c, 0, 67, 31
1, 384940, Note_off_c, 0, 46, 59
1, 384953, Control_c, 0, 67, 29
1, 384968, Control_c, 0, 67, 26
1, 384972, Note_off_c, 0, 56, 41
1, 384983, Control_c, 0, 64, 54
1, 384983, Control_c, 0, 67, 26
1, 384998, Control_c, 0, 67, 25
1, 385057, Control_c, 0, 64, 54
1, 385072, Control_c, 0, 67, 26
1, 385082, Note_on_c, 0, 52, 4
1, 385145, Note_off_c, 0, 52, 48
1, 385161, Note_on_c, 0, 49, 25
1, 385176, Control_c, 0, 64, 53
1, 385197, Note_off_c, 0, 49, 52
1, 385250, Control_c, 0, 67, 26
1, 385259, Note_on_c, 0, 44, 68
1, 385264, Control_c, 0, 64, 52
1, 385279, Control_c, 0, 64, 49
1, 385294, Control_c, 0, 64, 39
1, 385294, Control_c, 0, 67, 27
1, 385309, Control_c, 0, 64, 19
1, 385324, Control_c, 0, 64, 0
1, 385324, Control_c, 0, 67, 27
1, 385456, Control_c, 0, 67, 26
1, 385486, Control_c, 0, 67, 26
1, 385517, Control_c, 0, 64, 8
1, 385532, Control_c, 0, 64, 16
1, 385532, Control_c, 0, 67, 25
1, 385547, Control_c, 0, 64, 20
1, 385560, Note_on_c, 0, 48, 42
1, 385561, Control_c, 0, 64, 24
1, 385576, Control_c, 0, 64, 27
1, 385576, Control_c, 0, 67, 26
1, 385591, Control_c, 0, 64, 30
1, 385606, Control_c, 0, 64, 33
1, 385620, Control_c, 0, 64, 36
1, 385620, Control_c, 0, 67, 27
1, 385635, Control_c, 0, 64, 39
1, 385635, Control_c, 0, 67, 28
1, 385650, Control_c, 0, 64, 43
1, 385650, Control_c, 0, 67, 30
1, 385665, Control_c, 0, 64, 48
1, 385665, Control_c, 0, 67, 32
1, 385687, Control_c, 0, 64, 52
1, 385687, Control_c, 0, 67, 34
1, 385702, Control_c, 0, 64, 56
1, 385702, Control_c, 0, 67, 36
1, 385717, Control_c, 0, 64, 59
1, 385717, Control_c, 0, 67, 38
1, 385722, Note_on_c, 0, 51, 44
1, 385732, Note_off_c, 0, 48, 44
1, 385732, Control_c, 0, 64, 61
1, 385732, Control_c, 0, 67, 40
1, 385747, Control_c, 0, 64, 62
1, 385747, Control_c, 0, 67, 41
1, 385761, Control_c, 0, 64, 63
1, 385761, Control_c, 0, 67, 45
1, 385776, Control_c, 0, 64, 63
1, 385776, Control_c, 0, 67, 50
1, 385791, Control_c, 0, 67, 53
1, 385805, Control_c, 0, 64, 64
1, 385805, Control_c, 0, 67, 55
1, 385820, Control_c, 0, 64, 64
1, 385820, Control_c, 0, 67, 57
1, 385835, Control_c, 0, 64, 65
1, 385835, Control_c, 0, 67, 58
1, 385841, Note_off_c, 0, 51, 52
1, 385850, Control_c, 0, 64, 65
1, 385850, Control_c, 0, 67, 59
1, 385853, Note_on_c, 0, 56, 52
1, 385880, Control_c, 0, 64, 66
1, 385895, Control_c, 0, 64, 66
1, 385910, Control_c, 0, 67, 58
1, 385924, Control_c, 0, 64, 67
1, 385924, Control_c, 0, 67, 56
1, 385939, Control_c, 0, 64, 68
1, 385939, Control_c, 0, 67, 55
1, 385954, Control_c, 0, 64, 69
1, 385954, Control_c, 0, 67, 53
1, 385957, Note_on_c, 0, 58, 55
1, 385959, Note_off_c, 0, 56, 57
1, 385969, Control_c, 0, 64, 70
1, 385969, Control_c, 0, 67, 52
1, 385984, Control_c, 0, 64, 71
1, 385984, Control_c, 0, 67, 50
1, 385998, Note_off_c, 0, 58, 64
1, 385999, Control_c, 0, 64, 72
1, 385999, Control_c, 0, 67, 49
1, 386013, Control_c, 0, 64, 72
1, 386013, Control_c, 0, 67, 47
1, 386028, Control_c, 0, 64, 73
1, 386028, Control_c, 0, 67, 46
1, 386043, Control_c, 0, 64, 75
1, 386043, Control_c, 0, 67, 46
1, 386045, Note_on_c, 0, 32, 41
1, 386051, Note_on_c, 0, 39, 41
1, 386058, Control_c, 0, 64, 76
1, 386058, Control_c, 0, 67, 45
1, 386073, Control_c, 0, 64, 79
1, 386073, Control_c, 0, 67, 45
1, 386087, Control_c, 0, 64, 82
1, 386087, Control_c, 0, 67, 44
1, 386088, Note_on_c, 0, 60, 51
1, 386102, Control_c, 0, 64, 89
1, 386102, Control_c, 0, 67, 43
1, 386103, Note_off_c, 0, 39, 50
1, 386117, Control_c, 0, 64, 99
1, 386117, Control_c, 0, 67, 42
1, 386125, Note_off_c, 0, 32, 55
1, 386132, Control_c, 0, 64, 127
1, 386132, Control_c, 0, 67, 41
1, 386147, Control_c, 0, 67, 41
1, 386161, Control_c, 0, 67, 40
1, 386191, Control_c, 0, 67, 40
1, 386197, Note_off_c, 0, 60, 60
1, 386205, Control_c, 0, 67, 39
1, 386214, Note_on_c, 0, 63, 48
1, 386220, Control_c, 0, 67, 37
1, 386235, Control_c, 0, 67, 35
1, 386250, Control_c, 0, 67, 34
1, 386265, Control_c, 0, 67, 32
1, 386279, Control_c, 0, 67, 30
1, 386294, Control_c, 0, 67, 28
1, 386306, Note_on_c, 0, 68, 57
1, 386310, Control_c, 0, 67, 23
1, 386311, Note_off_c, 0, 63, 57
1, 386325, Control_c, 0, 67, 19
1, 386340, Control_c, 0, 67, 15
1, 386355, Control_c, 0, 67, 13
1, 386370, Control_c, 0, 67, 10
1, 386384, Control_c, 0, 67, 9
1, 386397, Note_on_c, 0, 70, 52
1, 386399, Control_c, 0, 67, 0
1, 386401, Note_off_c, 0, 68, 58
1, 386419, Note_off_c, 0, 70, 65
1, 386470, Note_on_c, 0, 32, 51
1, 386478, Note_on_c, 0, 39, 48
1, 386501, Note_on_c, 0, 72, 54
1, 386511, Note_off_c, 0, 32, 62
1, 386514, Note_off_c, 0, 39, 60
1, 386597, Note_on_c, 0, 75, 49
1, 386629, Note_off_c, 0, 72, 41
1, 386682, Note_on_c, 0, 80, 60
1, 386692, Note_off_c, 0, 75, 60
1, 386746, Note_on_c, 0, 82, 64
1, 386759, Note_off_c, 0, 80, 61
1, 386773, Note_off_c, 0, 82, 67
1, 386817, Note_on_c, 0, 32, 43
1, 386823, Note_on_c, 0, 39, 40
1, 386840, Note_on_c, 0, 84, 60
1, 386858, Note_off_c, 0, 32, 48
1, 386858, Note_off_c, 0, 39, 49
1, 386919, Note_off_c, 0, 84, 61
1, 386921, Note_on_c, 0, 87, 52
1, 387015, Note_on_c, 0, 92, 58
1, 387021, Note_off_c, 0, 87, 65
1, 387065, Note_on_c, 0, 94, 69
1, 387078, Note_off_c, 0, 92, 65
1, 387089, Note_off_c, 0, 94, 69
1, 387127, Note_on_c, 0, 39, 52
1, 387135, Note_on_c, 0, 32, 46
1, 387166, Note_on_c, 0, 96, 66
1, 387182, Note_off_c, 0, 32, 49
1, 387183, Note_off_c, 0, 39, 58
1, 387245, Note_on_c, 0, 99, 71
1, 387255, Note_off_c, 0, 96, 59
1, 387326, Note_off_c, 0, 99, 63
1, 387339, Note_on_c, 0, 101, 71
1, 387412, Note_on_c, 0, 99, 71
1, 387415, Note_off_c, 0, 101, 60
1, 387466, Note_off_c, 0, 44, 35
1, 387475, Note_off_c, 0, 99, 64
1, 387488, Note_on_c, 0, 96, 60
1, 387506, Note_on_c, 0, 32, 35
1, 387506, Note_on_c, 0, 39, 36
1, 387534, Note_off_c, 0, 96, 50
1, 387537, Note_off_c, 0, 39, 55
1, 387544, Note_off_c, 0, 32, 54
1, 387584, Note_on_c, 0, 94, 61
1, 387685, Note_off_c, 0, 94, 59
1, 387700, Note_on_c, 0, 92, 62
1, 387794, Note_off_c, 0, 92, 61
1, 387799, Note_on_c, 0, 87, 53
1, 387887, Note_off_c, 0, 87, 61
1, 387936, Note_on_c, 0, 48, 71
1, 387951, Note_on_c, 0, 84, 51
1, 387978, Note_off_c, 0, 84, 56
1, 388050, Note_off_c, 0, 48, 65
1, 388069, Note_on_c, 0, 82, 56
1, 388147, Note_off_c, 0, 82, 53
1, 388177, Note_on_c, 0, 80, 52
1, 388254, Note_off_c, 0, 80, 62
1, 388269, Note_on_c, 0, 75, 50
1, 388318, Note_off_c, 0, 75, 60
1, 388339, Note_on_c, 0, 39, 44
1, 388348, Note_on_c, 0, 72, 51
1, 388350, Note_on_c, 0, 32, 33
1, 388373, Note_off_c, 0, 39, 56
1, 388385, Note_off_c, 0, 32, 49
1, 388394, Note_off_c, 0, 72, 59
1, 388447, Note_on_c, 0, 70, 54
1, 388492, Note_off_c, 0, 70, 53
1, 388539, Note_on_c, 0, 68, 55
1, 388595, Note_off_c, 0, 68, 48
1, 388607, Note_on_c, 0, 63, 44
1, 388646, Note_off_c, 0, 63, 48
1, 388664, Note_on_c, 0, 32, 44
1, 388690, Note_on_c, 0, 39, 49
1, 388703, Note_on_c, 0, 60, 42
1, 388712, Note_off_c, 0, 32, 60
1, 388731, Note_off_c, 0, 39, 62
1, 388769, Note_off_c, 0, 60, 57
1, 388807, Note_on_c, 0, 63, 38
1, 388870, Note_off_c, 0, 63, 58
1, 388896, Note_on_c, 0, 68, 48
1, 388953, Note_on_c, 0, 70, 52
1, 388953, Note_off_c, 0, 68, 56
1, 388985, Note_off_c, 0, 70, 64
1, 389087, Note_on_c, 0, 51, 76
1, 389114, Note_on_c, 0, 72, 49
1, 389171, Note_off_c, 0, 51, 62
1, 389231, Note_off_c, 0, 72, 35
1, 389233, Note_on_c, 0, 75, 44
1, 389320, Note_off_c, 0, 75, 59
1, 389324, Note_on_c, 0, 80, 51
1, 389371, Note_on_c, 0, 82, 59
1, 389373, Note_off_c, 0, 80, 59
1, 389397, Note_off_c, 0, 82, 69
1, 389459, Note_on_c, 0, 39, 50
1, 389466, Note_on_c, 0, 32, 35
1, 389472, Note_on_c, 0, 84, 61
1, 389493, Note_off_c, 0, 39, 62
1, 389503, Note_off_c, 0, 32, 45
1, 389552, Note_off_c, 0, 84, 62
1, 389556, Note_on_c, 0, 87, 57
1, 389648, Note_off_c, 0, 87, 59
1, 389663, Note_on_c, 0, 92, 60
1, 389722, Note_on_c, 0, 94, 66
1, 389737, Note_off_c, 0, 92, 59
1, 389754, Note_off_c, 0, 94, 66
1, 389786, Note_on_c, 0, 32, 50
1, 389808, Note_on_c, 0, 39, 44
1, 389821, Note_on_c, 0, 96, 65
1, 389829, Note_off_c, 0, 32, 62
1, 389841, Note_off_c, 0, 39, 54
1, 389908, Note_on_c, 0, 99, 63
1, 389943, Note_off_c, 0, 96, 36
1, 390009, Note_off_c, 0, 99, 63
1, 390014, Note_on_c, 0, 101, 61
1, 390107, Note_on_c, 0, 99, 56
1, 390128, Note_off_c, 0, 101, 48
1, 390221, Note_off_c, 0, 99, 57
1, 390249, Note_on_c, 0, 56, 78
1, 390262, Note_on_c, 0, 96, 52
1, 390280, Note_off_c, 0, 56, 64
1, 390301, Note_off_c, 0, 96, 47
1, 390395, Note_on_c, 0, 94, 57
1, 390529, Note_on_c, 0, 92, 58
1, 390538, Note_off_c, 0, 94, 35
1, 390628, Note_off_c, 0, 92, 53
1, 390640, Note_on_c, 0, 87, 47
1, 390717, Note_off_c, 0, 87, 63
1, 390752, Note_on_c, 0, 39, 53
1, 390761, Note_on_c, 0, 32, 45
1, 390766, Note_on_c, 0, 84, 47
1, 390782, Note_off_c, 0, 39, 61
1, 390792, Note_off_c, 0, 32, 59
1, 390792, Note_off_c, 0, 84, 59
1, 390866, Note_on_c, 0, 82, 57
1, 390968, Note_off_c, 0, 82, 50
1, 390971, Note_on_c, 0, 80, 60
1, 391042, Note_on_c, 0, 75, 59
1, 391068, Note_off_c, 0, 80, 61
1, 391084, Note_on_c, 0, 39, 40
1, 391090, Note_on_c, 0, 32, 43
1, 391099, Note_off_c, 0, 75, 52
1, 391130, Note_off_c, 0, 39, 61
1, 391136, Note_on_c, 0, 72, 52
1, 391138, Note_off_c, 0, 32, 59
1, 391179, Note_off_c, 0, 72, 54
1, 391230, Note_on_c, 0, 75, 50
1, 391305, Note_on_c, 0, 80, 63
1, 391320, Note_off_c, 0, 75, 60
1, 391364, Note_on_c, 0, 82, 69
1, 391381, Note_off_c, 0, 80, 62
1, 391390, Note_off_c, 0, 82, 70
1, 391492, Note_on_c, 0, 84, 47
1, 391528, Note_off_c, 0, 84, 64
1, 391537, Note_on_c, 0, 87, 40
1, 391636, Note_on_c, 0, 92, 71
1, 391664, Note_off_c, 0, 87, 44
1, 391697, Note_on_c, 0, 94, 54
1, 391698, Note_off_c, 0, 92, 64
1, 391717, Note_off_c, 0, 94, 65
1, 391752, Note_on_c, 0, 39, 43
1, 391752, Note_on_c, 0, 32, 43
1, 391786, Note_on_c, 0, 96, 49
1, 391790, Note_off_c, 0, 39, 62
1, 391796, Note_off_c, 0, 32, 59
1, 391796, Control_c, 0, 67, 11
1, 391811, Control_c, 0, 67, 24
1, 391825, Control_c, 0, 67, 37
1, 391840, Control_c, 0, 67, 52
1, 391855, Control_c, 0, 67, 68
1, 391870, Control_c, 0, 67, 84
1, 391876, Note_on_c, 0, 99, 58
1, 391885, Control_c, 0, 67, 98
1, 391901, Control_c, 0, 67, 107
1, 391913, Note_off_c, 0, 96, 32
1, 391916, Control_c, 0, 67, 108
1, 391956, Note_off_c, 0, 99, 60
1, 391960, Control_c, 0, 67, 108
1, 391974, Control_c, 0, 67, 107
1, 391978, Note_on_c, 0, 101, 62
1, 391989, Control_c, 0, 67, 106
1, 392004, Control_c, 0, 67, 105
1, 392019, Control_c, 0, 67, 103
1, 392034, Control_c, 0, 67, 102
1, 392048, Control_c, 0, 67, 101
1, 392056, Note_on_c, 0, 99, 60
1, 392059, Note_off_c, 0, 101, 51
1, 392063, Control_c, 0, 67, 100
1, 392078, Control_c, 0, 67, 98
1, 392093, Control_c, 0, 67, 98
1, 392095, Note_off_c, 0, 99, 62
1, 392101, Note_on_c, 0, 32, 37
1, 392108, Control_c, 0, 67, 97
1, 392113, Note_on_c, 0, 39, 30
1, 392122, Control_c, 0, 67, 96
1, 392131, Note_on_c, 0, 96, 56
1, 392137, Control_c, 0, 67, 94
1, 392152, Control_c, 0, 67, 91
1, 392158, Note_off_c, 0, 39, 44
1, 392162, Note_off_c, 0, 96, 61
1, 392167, Control_c, 0, 67, 87
1, 392181, Control_c, 0, 67, 82
1, 392196, Control_c, 0, 67, 75
1, 392211, Control_c, 0, 67, 66
1, 392214, Note_on_c, 0, 94, 65
1, 392226, Control_c, 0, 67, 56
1, 392241, Control_c, 0, 67, 43
1, 392241, Note_off_c, 0, 32, 34
1, 392256, Control_c, 0, 67, 28
1, 392271, Control_c, 0, 67, 14
1, 392286, Control_c, 0, 67, 0
1, 392299, Note_on_c, 0, 92, 68
1, 392316, Note_off_c, 0, 94, 52
1, 392367, Note_on_c, 0, 87, 74
1, 392397, Note_off_c, 0, 92, 50
1, 392437, Note_off_c, 0, 87, 64
1, 392457, Note_on_c, 0, 84, 67
1, 392530, Note_off_c, 0, 84, 58
1, 392542, Note_on_c, 0, 87, 66
1, 392627, Note_off_c, 0, 87, 65
1, 392628, Note_on_c, 0, 92, 62
1, 392679, Note_on_c, 0, 94, 69
1, 392692, Note_off_c, 0, 92, 64
1, 392706, Note_off_c, 0, 94, 68
1, 392763, Note_on_c, 0, 96, 69
1, 392849, Note_off_c, 0, 96, 62
1, 392851, Note_on_c, 0, 99, 62
1, 392929, Note_off_c, 0, 99, 62
1, 392944, Note_on_c, 0, 101, 69
1, 393024, Note_off_c, 0, 101, 60
1, 393028, Note_on_c, 0, 99, 62
1, 393069, Note_off_c, 0, 99, 62
1, 393098, Note_on_c, 0, 96, 64
1, 393123, Control_c, 0, 67, 8
1, 393134, Note_off_c, 0, 96, 57
1, 393138, Control_c, 0, 67, 9
1, 393189, Note_on_c, 0, 94, 65
1, 393250, Control_c, 0, 67, 8
1, 393265, Control_c, 0, 67, 8
1, 393290, Note_off_c, 0, 94, 60
1, 393300, Note_on_c, 0, 92, 55
1, 393368, Control_c, 0, 67, 8
1, 393380, Note_off_c, 0, 92, 56
1, 393381, Note_on_c, 0, 87, 62
1, 393383, Control_c, 0, 67, 9
1, 393412, Control_c, 0, 67, 10
1, 393427, Control_c, 0, 67, 11
1, 393442, Control_c, 0, 67, 12
1, 393457, Control_c, 0, 67, 15
1, 393467, Note_off_c, 0, 87, 57
1, 393471, Control_c, 0, 67, 20
1, 393484, Note_on_c, 0, 84, 60
1, 393486, Control_c, 0, 67, 28
1, 393502, Control_c, 0, 67, 38
1, 393517, Control_c, 0, 67, 48
1, 393532, Control_c, 0, 67, 58
1, 393547, Control_c, 0, 67, 65
1, 393548, Note_off_c, 0, 84, 54
1, 393562, Control_c, 0, 67, 70
1, 393576, Control_c, 0, 67, 72
1, 393597, Note_on_c, 0, 87, 58
1, 393635, Control_c, 0, 67, 72
1, 393650, Control_c, 0, 67, 71
1, 393665, Control_c, 0, 67, 71
1, 393680, Control_c, 0, 67, 70
1, 393687, Note_off_c, 0, 87, 60
1, 393694, Note_on_c, 0, 92, 59
1, 393724, Control_c, 0, 67, 70
1, 393738, Control_c, 0, 67, 69
1, 393768, Control_c, 0, 67, 69
1, 393777, Note_on_c, 0, 94, 63
1, 393781, Note_off_c, 0, 92, 53
1, 393809, Note_off_c, 0, 94, 66
1, 393857, Control_c, 0, 67, 68
1, 393872, Control_c, 0, 67, 68
1, 393901, Control_c, 0, 67, 67
1, 393906, Note_on_c, 0, 96, 39
1, 393924, Control_c, 0, 67, 67
1, 393953, Control_c, 0, 67, 66
1, 393968, Control_c, 0, 67, 66
1, 393983, Control_c, 0, 67, 65
1, 394027, Control_c, 0, 67, 65
1, 394057, Note_on_c, 0, 99, 51
1, 394057, Control_c, 0, 67, 64
1, 394070, Note_off_c, 0, 96, 43
1, 394072, Control_c, 0, 67, 64
1, 394087, Control_c, 0, 67, 63
1, 394161, Control_c, 0, 67, 63
1, 394240, Note_on_c, 0, 101, 54
1, 394261, Note_off_c, 0, 99, 40
1, 394405, Note_on_c, 0, 99, 50
1, 394442, Note_off_c, 0, 101, 41
1, 394512, Note_off_c, 0, 99, 62
1, 394551, Note_on_c, 0, 96, 50
1, 394617, Note_off_c, 0, 96, 45
1, 394680, Note_on_c, 0, 94, 58
1, 394809, Note_on_c, 0, 92, 57
1, 394820, Control_c, 0, 67, 63
1, 394864, Control_c, 0, 67, 64
1, 394912, Note_off_c, 0, 94, 22
1, 394918, Note_off_c, 0, 92, 57
1, 394924, Note_on_c, 0, 87, 56
1, 394995, Note_off_c, 0, 87, 60
1, 395032, Note_on_c, 0, 84, 52
1, 395156, Note_on_c, 0, 82, 55
1, 395162, Control_c, 0, 67, 63
1, 395168, Note_off_c, 0, 84, 28
1, 395177, Control_c, 0, 67, 63
1, 395191, Control_c, 0, 67, 62
1, 395206, Control_c, 0, 67, 62
1, 395221, Control_c, 0, 67, 61
1, 395236, Control_c, 0, 67, 60
1, 395251, Control_c, 0, 67, 59
1, 395280, Control_c, 0, 67, 59
1, 395293, Note_on_c, 0, 80, 55
1, 395295, Control_c, 0, 67, 58
1, 395310, Control_c, 0, 67, 56
1, 395325, Control_c, 0, 67, 53
1, 395339, Control_c, 0, 67, 50
1, 395354, Control_c, 0, 67, 48
1, 395369, Control_c, 0, 67, 44
1, 395378, Note_off_c, 0, 80, 58
1, 395383, Control_c, 0, 67, 38
1, 395398, Note_off_c, 0, 82, 32
1, 395398, Control_c, 0, 67, 28
1, 395421, Control_c, 0, 67, 16
1, 395434, Note_on_c, 0, 77, 39
1, 395436, Control_c, 0, 67, 0
1, 395574, Note_off_c, 0, 77, 39
1, 395681, Note_on_c, 0, 75, 42
1, 395748, Note_off_c, 0, 75, 57
1, 396599, Control_c, 0, 64, 110
1, 396614, Control_c, 0, 64, 102
1, 396629, Control_c, 0, 64, 96
1, 396644, Control_c, 0, 64, 91
1, 396659, Control_c, 0, 64, 86
1, 396673, Control_c, 0, 64, 83
1, 396689, Control_c, 0, 64, 80
1, 396704, Control_c, 0, 64, 77
1, 396718, Control_c, 0, 64, 75
1, 396733, Control_c, 0, 64, 73
1, 396748, Control_c, 0, 64, 72
1, 396763, Control_c, 0, 64, 70
1, 396778, Control_c, 0, 64, 69
1, 396793, Control_c, 0, 64, 67
1, 396808, Control_c, 0, 64, 66
1, 396823, Control_c, 0, 64, 65
1, 396837, Control_c, 0, 64, 64
1, 396852, Control_c, 0, 64, 63
1, 396867, Control_c, 0, 64, 62
1, 396882, Control_c, 0, 64, 61
1, 396897, Control_c, 0, 64, 60
1, 396918, Control_c, 0, 64, 58
1, 396933, Control_c, 0, 64, 57
1, 396948, Control_c, 0, 64, 54
1, 396963, Control_c, 0, 64, 52
1, 396978, Control_c, 0, 64, 50
1, 396993, Control_c, 0, 64, 49
1, 397007, Control_c, 0, 64, 47
1, 397022, Control_c, 0, 64, 46
1, 397037, Control_c, 0, 64, 44
1, 397052, Control_c, 0, 64, 42
1, 397067, Control_c, 0, 64, 39
1, 397082, Control_c, 0, 64, 35
1, 397097, Control_c, 0, 64, 28
1, 397111, Control_c, 0, 64, 21
1, 397126, Control_c, 0, 64, 14
1, 397141, Control_c, 0, 64, 0
1, 397320, Note_on_c, 0, 75, 53
1, 397478, Note_off_c, 0, 75, 60
1, 397487, Note_on_c, 0, 77, 63
1, 397578, Note_on_c, 0, 75, 71
1, 397578, Note_off_c, 0, 77, 62
1, 397651, Note_on_c, 0, 74, 72
1, 397652, Note_off_c, 0, 75, 62
1, 397739, Note_on_c, 0, 75, 80
1, 397747, Note_off_c, 0, 74, 65
1, 397929, Note_on_c, 0, 84, 66
1, 397954, Note_off_c, 0, 75, 59
1, 399483, Note_on_c, 0, 79, 58
1, 399505, Note_off_c, 0, 84, 51
1, 399669, Control_c, 0, 67, 8
1, 399684, Control_c, 0, 67, 12
1, 399699, Control_c, 0, 67, 19
1, 399714, Control_c, 0, 67, 27
1, 399729, Control_c, 0, 67, 39
1, 399744, Control_c, 0, 67, 50
1, 399758, Control_c, 0, 67, 58
1, 399773, Control_c, 0, 67, 63
1, 399832, Note_on_c, 0, 56, 46
1, 399862, Control_c, 0, 67, 62
1, 399887, Note_off_c, 0, 79, 61
1, 399893, Control_c, 0, 67, 62
1, 399914, Control_c, 0, 67, 61
1, 399929, Control_c, 0, 64, 25
1, 399929, Control_c, 0, 67, 60
1, 399944, Control_c, 0, 64, 36
1, 399944, Control_c, 0, 67, 60
1, 399959, Control_c, 0, 64, 46
1, 399959, Control_c, 0, 67, 59
1, 399974, Control_c, 0, 64, 56
1, 399974, Control_c, 0, 67, 58
1, 399988, Control_c, 0, 64, 66
1, 399988, Control_c, 0, 67, 57
1, 400003, Control_c, 0, 64, 88
1, 400003, Control_c, 0, 67, 55
1, 400018, Control_c, 0, 64, 127
1, 400018, Control_c, 0, 67, 54
1, 400033, Control_c, 0, 67, 53
1, 400048, Note_on_c, 0, 63, 52
1, 400048, Control_c, 0, 67, 52
1, 400058, Note_off_c, 0, 56, 61
1, 400062, Control_c, 0, 67, 50
1, 400077, Control_c, 0, 67, 48
1, 400092, Control_c, 0, 67, 45
1, 400101, Note_off_c, 0, 63, 54
1, 400106, Control_c, 0, 67, 43
1, 400121, Control_c, 0, 67, 41
1, 400136, Control_c, 0, 67, 39
1, 400151, Control_c, 0, 67, 37
1, 400166, Control_c, 0, 67, 35
1, 400180, Control_c, 0, 67, 34
1, 400195, Control_c, 0, 67, 32
1, 400203, Note_on_c, 0, 72, 46
1, 400210, Control_c, 0, 67, 30
1, 400225, Control_c, 0, 67, 28
1, 400228, Note_off_c, 0, 72, 60
1, 400240, Control_c, 0, 67, 20
1, 400254, Control_c, 0, 67, 0
1, 400315, Note_on_c, 0, 68, 38
1, 400363, Note_off_c, 0, 68, 45
1, 400404, Note_on_c, 0, 75, 55
1, 400477, Note_off_c, 0, 75, 42
1, 400563, Note_on_c, 0, 82, 72
1, 400663, Note_off_c, 0, 82, 61
1, 402969, Control_c, 0, 67, 9
1, 402983, Control_c, 0, 67, 10
1, 402998, Control_c, 0, 67, 10
1, 403013, Control_c, 0, 67, 11
1, 403028, Control_c, 0, 67, 12
1, 403043, Control_c, 0, 67, 12
1, 403058, Control_c, 0, 67, 13
1, 403073, Control_c, 0, 67, 13
1, 403089, Control_c, 0, 67, 14
1, 403103, Control_c, 0, 67, 15
1, 403118, Control_c, 0, 67, 16
1, 403133, Control_c, 0, 67, 17
1, 403148, Control_c, 0, 67, 18
1, 403163, Control_c, 0, 67, 19
1, 403178, Control_c, 0, 67, 21
1, 403193, Control_c, 0, 67, 23
1, 403207, Control_c, 0, 67, 25
1, 403222, Control_c, 0, 67, 28
1, 403237, Control_c, 0, 67, 30
1, 403252, Control_c, 0, 67, 32
1, 403267, Control_c, 0, 67, 35
1, 403281, Control_c, 0, 67, 37
1, 403296, Control_c, 0, 67, 39
1, 403311, Control_c, 0, 67, 42
1, 403326, Control_c, 0, 67, 45
1, 403340, Control_c, 0, 67, 47
1, 403355, Control_c, 0, 67, 49
1, 403370, Control_c, 0, 67, 50
1, 403385, Control_c, 0, 67, 52
1, 403399, Note_on_c, 0, 80, 49
1, 403400, Control_c, 0, 67, 55
1, 403414, Control_c, 0, 67, 57
1, 403429, Control_c, 0, 67, 59
1, 403444, Control_c, 0, 67, 61
1, 403458, Control_c, 0, 67, 64
1, 403473, Control_c, 0, 67, 67
1, 403488, Control_c, 0, 67, 69
1, 403503, Control_c, 0, 67, 71
1, 403518, Control_c, 0, 67, 72
1, 403533, Control_c, 0, 67, 74
1, 403548, Control_c, 0, 67, 78
1, 403562, Control_c, 0, 67, 82
1, 403577, Control_c, 0, 67, 85
1, 403592, Control_c, 0, 67, 89
1, 403607, Control_c, 0, 67, 94
1, 403622, Control_c, 0, 67, 97
1, 403637, Control_c, 0, 67, 98
1, 403688, Control_c, 0, 67, 99
1, 404044, Control_c, 0, 67, 98
1, 404213, Note_on_c, 0, 72, 42
1, 404214, Note_off_c, 0, 80, 37
1, 404251, Control_c, 0, 67, 99
1, 404266, Control_c, 0, 67, 99
1, 404281, Control_c, 0, 67, 100
1, 404296, Control_c, 0, 67, 100
1, 404311, Control_c, 0, 67, 102
1, 404326, Control_c, 0, 67, 107
1, 404340, Control_c, 0, 67, 112
1, 404355, Control_c, 0, 67, 117
1, 404370, Control_c, 0, 67, 122
1, 404385, Control_c, 0, 67, 127
1, 404407, Control_c, 0, 67, 127
1, 404728, Note_on_c, 0, 73, 48
1, 404768, Note_off_c, 0, 72, 40
1, 404882, Control_c, 0, 64, 101
1, 404896, Control_c, 0, 64, 83
1, 404911, Control_c, 0, 64, 69
1, 404926, Control_c, 0, 64, 59
1, 404941, Control_c, 0, 64, 46
1, 404955, Note_on_c, 0, 44, 41
1, 404956, Control_c, 0, 64, 25
1, 404970, Control_c, 0, 64, 0
1, 405015, Control_c, 0, 64, 13
1, 405030, Control_c, 0, 64, 21
1, 405045, Control_c, 0, 64, 28
1, 405059, Control_c, 0, 64, 36
1, 405074, Control_c, 0, 64, 44
1, 405089, Control_c, 0, 64, 53
1, 405104, Control_c, 0, 64, 62
1, 405118, Control_c, 0, 64, 72
1, 405131, Note_on_c, 0, 51, 61
1, 405133, Control_c, 0, 64, 85
1, 405156, Control_c, 0, 64, 95
1, 405157, Note_off_c, 0, 44, 47
1, 405171, Control_c, 0, 64, 106
1, 405171, Control_c, 0, 67, 125
1, 405185, Control_c, 0, 64, 127
1, 405185, Control_c, 0, 67, 121
1, 405200, Note_off_c, 0, 73, 35
1, 405200, Control_c, 0, 67, 118
1, 405215, Control_c, 0, 67, 114
1, 405223, Note_off_c, 0, 51, 58
1, 405229, Control_c, 0, 67, 110
1, 405244, Control_c, 0, 67, 105
1, 405259, Control_c, 0, 67, 98
1, 405274, Control_c, 0, 67, 90
1, 405289, Control_c, 0, 67, 81
1, 405303, Note_on_c, 0, 60, 55
1, 405303, Control_c, 0, 67, 69
1, 405318, Control_c, 0, 67, 54
1, 405333, Control_c, 0, 67, 42
1, 405348, Control_c, 0, 67, 28
1, 405363, Control_c, 0, 67, 15
1, 405378, Control_c, 0, 67, 0
1, 405381, Note_off_c, 0, 60, 62
1, 405426, Note_on_c, 0, 63, 57
1, 405501, Note_off_c, 0, 63, 61
1, 405524, Note_on_c, 0, 68, 59
1, 405700, Note_off_c, 0, 68, 35
1, 405747, Note_on_c, 0, 77, 70
1, 406758, Control_c, 0, 67, 8
1, 406773, Control_c, 0, 67, 10
1, 406788, Control_c, 0, 67, 11
1, 406803, Control_c, 0, 67, 14
1, 406818, Control_c, 0, 67, 17
1, 406832, Control_c, 0, 67, 22
1, 406847, Control_c, 0, 67, 27
1, 406862, Control_c, 0, 67, 35
1, 406876, Control_c, 0, 67, 43
1, 406891, Control_c, 0, 67, 53
1, 406906, Control_c, 0, 67, 62
1, 406921, Control_c, 0, 67, 70
1, 406936, Control_c, 0, 67, 78
1, 406950, Control_c, 0, 67, 84
1, 406965, Control_c, 0, 67, 90
1, 406980, Control_c, 0, 67, 95
1, 406995, Control_c, 0, 67, 99
1, 407010, Control_c, 0, 67, 104
1, 407024, Control_c, 0, 67, 108
1, 407039, Control_c, 0, 67, 113
1, 407054, Control_c, 0, 67, 118
1, 407069, Control_c, 0, 67, 123
1, 407085, Control_c, 0, 67, 127
1, 407198, Note_off_c, 0, 77, 39
1, 407521, Note_on_c, 0, 44, 42
1, 407587, Note_off_c, 0, 44, 57
1, 407590, Note_on_c, 0, 51, 54
1, 407653, Note_off_c, 0, 51, 51
1, 407655, Control_c, 0, 67, 127
1, 407670, Control_c, 0, 67, 119
1, 407671, Note_on_c, 0, 60, 64
1, 407685, Control_c, 0, 67, 110
1, 407699, Control_c, 0, 67, 98
1, 407704, Note_off_c, 0, 60, 65
1, 407714, Control_c, 0, 67, 77
1, 407725, Note_on_c, 0, 63, 62
1, 407729, Control_c, 0, 67, 46
1, 407744, Control_c, 0, 67, 0
1, 407779, Note_on_c, 0, 68, 69
1, 407784, Note_off_c, 0, 63, 63
1, 407827, Note_on_c, 0, 75, 79
1, 407844, Note_off_c, 0, 68, 59
1, 407874, Note_off_c, 0, 75, 60
1, 408600, Note_on_c, 0, 44, 58
1, 408668, Note_on_c, 0, 51, 55
1, 408676, Note_off_c, 0, 44, 59
1, 408712, Note_off_c, 0, 51, 63
1, 408727, Note_on_c, 0, 60, 70
1, 408758, Note_off_c, 0, 60, 65
1, 408770, Note_on_c, 0, 63, 66
1, 408812, Note_on_c, 0, 68, 76
1, 408827, Note_off_c, 0, 63, 62
1, 408865, Note_on_c, 0, 73, 80
1, 408899, Note_off_c, 0, 68, 59
1, 408943, Note_off_c, 0, 73, 65
1, 409493, Control_c, 0, 67, 9
1, 409508, Control_c, 0, 67, 10
1, 409523, Control_c, 0, 67, 12
1, 409538, Control_c, 0, 67, 15
1, 409553, Control_c, 0, 67, 18
1, 409567, Control_c, 0, 67, 21
1, 409582, Control_c, 0, 67, 24
1, 409597, Control_c, 0, 67, 30
1, 409612, Control_c, 0, 67, 38
1, 409627, Control_c, 0, 67, 47
1, 409649, Control_c, 0, 67, 58
1, 409664, Control_c, 0, 67, 67
1, 409679, Control_c, 0, 67, 74
1, 409694, Control_c, 0, 67, 81
1, 409708, Control_c, 0, 67, 86
1, 409723, Control_c, 0, 67, 90
1, 409738, Control_c, 0, 67, 93
1, 409753, Control_c, 0, 67, 94
1, 409768, Control_c, 0, 67, 95
1, 409841, Control_c, 0, 67, 96
1, 409886, Control_c, 0, 67, 97
1, 409900, Control_c, 0, 67, 97
1, 409915, Control_c, 0, 67, 100
1, 409930, Control_c, 0, 67, 106
1, 409945, Control_c, 0, 67, 113
1, 409960, Control_c, 0, 67, 121
1, 409974, Control_c, 0, 67, 127
1, 410331, Control_c, 0, 64, 80
1, 410334, Note_on_c, 0, 44, 55
1, 410346, Control_c, 0, 64, 64
1, 410361, Control_c, 0, 64, 51
1, 410376, Control_c, 0, 64, 31
1, 410398, Control_c, 0, 64, 0
1, 410427, Control_c, 0, 64, 14
1, 410442, Control_c, 0, 64, 23
1, 410457, Control_c, 0, 64, 33
1, 410472, Control_c, 0, 64, 43
1, 410487, Control_c, 0, 64, 53
1, 410502, Control_c, 0, 64, 63
1, 410516, Control_c, 0, 64, 75
1, 410530, Control_c, 0, 64, 88
1, 410545, Control_c, 0, 64, 98
1, 410560, Control_c, 0, 64, 109
1, 410575, Control_c, 0, 64, 127
1, 410683, Note_on_c, 0, 51, 51
1, 410717, Note_off_c, 0, 44, 32
1, 410738, Control_c, 0, 67, 123
1, 410752, Control_c, 0, 67, 118
1, 410767, Control_c, 0, 67, 112
1, 410775, Note_off_c, 0, 51, 56
1, 410782, Control_c, 0, 67, 106
1, 410797, Control_c, 0, 67, 98
1, 410812, Control_c, 0, 67, 88
1, 410827, Control_c, 0, 67, 77
1, 410841, Control_c, 0, 67, 66
1, 410856, Control_c, 0, 67, 54
1, 410871, Control_c, 0, 67, 46
1, 410886, Control_c, 0, 67, 42
1, 410901, Control_c, 0, 67, 39
1, 410915, Control_c, 0, 67, 37
1, 410930, Control_c, 0, 67, 35
1, 410945, Control_c, 0, 67, 32
1, 410957, Note_on_c, 0, 60, 56
1, 410960, Control_c, 0, 67, 28
1, 410974, Control_c, 0, 67, 23
1, 410989, Control_c, 0, 67, 19
1, 411004, Control_c, 0, 67, 15
1, 411019, Control_c, 0, 67, 11
1, 411033, Note_off_c, 0, 60, 54
1, 411034, Control_c, 0, 67, 0
1, 411223, Note_on_c, 0, 63, 50
1, 411459, Note_off_c, 0, 63, 35
1, 411548, Note_on_c, 0, 68, 46
1, 411942, Note_off_c, 0, 68, 37
1, 412013, Note_on_c, 0, 72, 44
1, 412360, Note_off_c, 0, 72, 29
1, 415586, Control_c, 0, 64, 107
1, 415601, Control_c, 0, 64, 101
1, 415616, Control_c, 0, 64, 97
1, 415638, Control_c, 0, 64, 95
1, 415653, Control_c, 0, 64, 92
1, 415668, Control_c, 0, 64, 90
1, 415683, Control_c, 0, 64, 87
1, 415698, Control_c, 0, 64, 84
1, 415712, Control_c, 0, 64, 82
1, 415727, Control_c, 0, 64, 80
1, 415742, Control_c, 0, 64, 79
1, 415757, Control_c, 0, 64, 78
1, 415772, Control_c, 0, 64, 77
1, 415787, Control_c, 0, 64, 76
1, 415802, Control_c, 0, 64, 75
1, 415817, Control_c, 0, 64, 74
1, 415831, Control_c, 0, 64, 73
1, 415846, Control_c, 0, 64, 72
1, 415862, Control_c, 0, 64, 71
1, 415877, Control_c, 0, 64, 70
1, 415891, Control_c, 0, 64, 69
1, 415906, Control_c, 0, 64, 68
1, 415921, Control_c, 0, 64, 67
1, 415936, Control_c, 0, 64, 66
1, 415951, Control_c, 0, 64, 66
1, 415966, Control_c, 0, 64, 65
1, 415980, Control_c, 0, 64, 64
1, 415995, Control_c, 0, 64, 63
1, 416010, Control_c, 0, 64, 62
1, 416025, Control_c, 0, 64, 60
1, 416040, Control_c, 0, 64, 59
1, 416054, Control_c, 0, 64, 57
1, 416069, Control_c, 0, 64, 55
1, 416084, Control_c, 0, 64, 54
1, 416099, Control_c, 0, 64, 53
1, 416114, Control_c, 0, 64, 52
1, 416128, Control_c, 0, 64, 52
1, 416232, Control_c, 0, 64, 51
1, 416247, Control_c, 0, 64, 51
1, 416261, Control_c, 0, 64, 50
1, 416276, Control_c, 0, 64, 49
1, 416291, Control_c, 0, 64, 48
1, 416306, Control_c, 0, 64, 48
1, 416321, Control_c, 0, 64, 47
1, 416351, Control_c, 0, 64, 47
1, 416365, Control_c, 0, 64, 46
1, 416387, Control_c, 0, 64, 46
1, 416402, Control_c, 0, 64, 45
1, 416417, Control_c, 0, 64, 44
1, 416432, Control_c, 0, 64, 44
1, 416447, Control_c, 0, 64, 43
1, 416461, Control_c, 0, 64, 42
1, 416476, Control_c, 0, 64, 42
1, 416491, Control_c, 0, 64, 41
1, 416506, Control_c, 0, 64, 40
1, 416521, Control_c, 0, 64, 40
1, 416535, Control_c, 0, 64, 39
1, 416550, Control_c, 0, 64, 38
1, 416565, Control_c, 0, 64, 37
1, 416580, Control_c, 0, 64, 36
1, 416595, Control_c, 0, 64, 35
1, 416610, Control_c, 0, 64, 34
1, 416625, Control_c, 0, 64, 32
1, 416640, Control_c, 0, 64, 31
1, 416655, Control_c, 0, 64, 30
1, 416670, Control_c, 0, 64, 28
1, 416684, Control_c, 0, 64, 27
1, 416699, Control_c, 0, 64, 26
1, 416714, Control_c, 0, 64, 25
1, 416729, Control_c, 0, 64, 24
1, 416744, Control_c, 0, 64, 23
1, 416759, Control_c, 0, 64, 22
1, 416774, Control_c, 0, 64, 21
1, 416789, Control_c, 0, 64, 19
1, 416803, Control_c, 0, 64, 17
1, 416818, Control_c, 0, 64, 15
1, 416833, Control_c, 0, 64, 14
1, 416848, Control_c, 0, 64, 12
1, 416863, Control_c, 0, 64, 10
1, 416877, Control_c, 0, 64, 8
1, 416892, Control_c, 0, 64, 0
1, 416967, End_track
0, 0, End_of_file
