0, 0, Header, 0, 1, 384
1, 0, Start_track
1, 0, Title_t, "Nocturne Op. 15/2--Benjamin Woo "
1, 0, Text_t, "2008 e-Piano Junior Competition recital round"
1, 0, Text_t, "recorded July 2008"
1, 0, Text_t, "http://www.piano-e-competition.com/"
1, 0, Text_t, "File processed for distribution by software from Zenph Studios, Inc., http://www.zenph.com"
1, 0, Instrument_name_t, "Yamaha Disklavier Pro Mark IV concert grand piano, model DCFIIISM4PRO"
1, 0, Sequencer_specific, 39, 67, 113, 0, 1, 0, 1, 0, 78, 111, 99, 116, 117, 114, 110, 101, 32, 79, 112, 46, 49, 53, 47, 50, 66, 101, 110, 106, 97, 109, 105, 110, 32, 87, 111, 111, 32, 32, 32, 32
1, 0, Sequencer_specific, 6, 67, 113, 0, 0, 0, 69
1, 0, System_exclusive, 21, 67, 113, 126, 21, 0, 2, 2, 0, 3, 14, 1, 4, 1, 13, 13, 10, 11, 9, 2, 7, 247
1, 0, Sequencer_specific, 5, 67, 123, 12, 2, 1
1, 0, Tempo, 512820
1, 0, Time_signature, 4, 2, 24, 8
1, 0, System_exclusive, 5, 126, 127, 9, 1, 247
1, 1, System_exclusive, 8, 67, 16, 76, 0, 0, 126, 0, 247
1, 2, System_exclusive, 8, 67, 16, 76, 8, 9, 7, 1, 247
1, 3, Control_c, 0, 0, 0
1, 3, Control_c, 1, 0, 0
1, 3, Control_c, 2, 0, 0
1, 3, Control_c, 3, 0, 0
1, 3, Control_c, 4, 0, 0
1, 3, Control_c, 5, 0, 0
1, 3, Control_c, 6, 0, 0
1, 3, Control_c, 7, 0, 0
1, 3, Control_c, 8, 0, 0
1, 3, Control_c, 9, 0, 127
1, 3, Control_c, 10, 0, 0
1, 3, Control_c, 11, 0, 0
1, 3, Control_c, 12, 0, 0
1, 3, Control_c, 13, 0, 0
1, 3, Control_c, 14, 0, 0
1, 3, Control_c, 15, 0, 0
1, 4, Control_c, 0, 32, 0
1, 4, Control_c, 1, 32, 0
1, 4, Control_c, 2, 32, 0
1, 4, Control_c, 3, 32, 0
1, 4, Control_c, 4, 32, 0
1, 4, Control_c, 5, 32, 0
1, 4, Control_c, 6, 32, 0
1, 4, Control_c, 7, 32, 0
1, 4, Control_c, 8, 32, 0
1, 4, Control_c, 9, 32, 0
1, 4, Control_c, 10, 32, 0
1, 4, Control_c, 11, 32, 0
1, 4, Control_c, 12, 32, 0
1, 4, Control_c, 13, 32, 0
1, 4, Control_c, 14, 32, 0
1, 4, Control_c, 15, 32, 0
1, 5, Program_c, 0, 0
1, 5, Program_c, 1, 0
1, 5, Program_c, 2, 0
1, 5, Program_c, 3, 0
1, 5, Program_c, 4, 0
1, 5, Program_c, 5, 0
1, 5, Program_c, 6, 0
1, 5, Program_c, 7, 0
1, 5, Program_c, 8, 0
1, 5, Program_c, 9, 0
1, 5, Program_c, 10, 0
1, 5, Program_c, 11, 0
1, 5, Program_c, 12, 0
1, 5, Program_c, 13, 0
1, 5, Program_c, 14, 0
1, 5, Program_c, 15, 0
1, 6, Control_c, 0, 7, 100
1, 6, Control_c, 1, 7, 100
1, 6, Control_c, 2, 7, 100
1, 6, Control_c, 3, 7, 100
1, 6, Control_c, 4, 7, 100
1, 6, Control_c, 5, 7, 100
1, 6, Control_c, 6, 7, 100
1, 6, Control_c, 7, 7, 100
1, 6, Control_c, 8, 7, 100
1, 6, Control_c, 9, 7, 100
1, 6, Control_c, 10, 7, 100
1, 6, Control_c, 11, 7, 100
1, 6, Control_c, 12, 7, 100
1, 6, Control_c, 13, 7, 100
1, 6, Control_c, 14, 7, 100
1, 6, Control_c, 15, 7, 100
1, 117, Control_c, 0, 64, 15
1, 229, Control_c, 0, 64, 31
1, 341, Control_c, 0, 64, 46
1, 452, Control_c, 0, 64, 63
1, 564, Control_c, 0, 64, 77
1, 676, Control_c, 0, 64, 94
1, 787, Control_c, 0, 64, 108
1, 899, Control_c, 0, 64, 127
1, 1131, Note_on_c, 0, 70, 54
1, 2117, Note_on_c, 0, 71, 43
1, 2194, Note_off_c, 0, 70, 36
1, 2349, Note_on_c, 0, 70, 49
1, 2367, Note_on_c, 0, 37, 27
1, 2430, Control_c, 0, 64, 118
1, 2445, Control_c, 0, 64, 108
1, 2460, Control_c, 0, 64, 96
1, 2475, Control_c, 0, 64, 85
1, 2489, Control_c, 0, 64, 73
1, 2499, Note_off_c, 0, 71, 56
1, 2504, Control_c, 0, 64, 60
1, 2519, Control_c, 0, 64, 0
1, 2682, Control_c, 0, 64, 32
1, 2697, Control_c, 0, 64, 64
1, 2712, Control_c, 0, 64, 70
1, 2726, Control_c, 0, 64, 74
1, 2742, Control_c, 0, 64, 77
1, 2757, Control_c, 0, 64, 79
1, 2772, Control_c, 0, 64, 81
1, 2787, Control_c, 0, 64, 83
1, 2788, Note_on_c, 0, 68, 57
1, 2802, Control_c, 0, 64, 86
1, 2816, Control_c, 0, 64, 88
1, 2831, Control_c, 0, 64, 91
1, 2846, Control_c, 0, 64, 92
1, 2861, Control_c, 0, 64, 94
1, 2875, Control_c, 0, 64, 95
1, 2890, Control_c, 0, 64, 96
1, 2905, Control_c, 0, 64, 98
1, 2920, Control_c, 0, 64, 99
1, 2934, Control_c, 0, 64, 101
1, 2949, Control_c, 0, 64, 102
1, 2964, Control_c, 0, 64, 103
1, 2979, Control_c, 0, 64, 104
1, 2993, Control_c, 0, 64, 105
1, 3008, Control_c, 0, 64, 105
1, 3023, Control_c, 0, 64, 106
1, 3038, Control_c, 0, 64, 106
1, 3053, Control_c, 0, 64, 107
1, 3068, Control_c, 0, 64, 107
1, 3083, Control_c, 0, 64, 108
1, 3096, Note_on_c, 0, 65, 54
1, 3098, Control_c, 0, 64, 108
1, 3101, Note_on_c, 0, 49, 37
1, 3112, Control_c, 0, 64, 109
1, 3127, Control_c, 0, 64, 110
1, 3142, Control_c, 0, 64, 111
1, 3157, Control_c, 0, 64, 113
1, 3179, Control_c, 0, 64, 114
1, 3193, Control_c, 0, 64, 116
1, 3200, Note_off_c, 0, 68, 58
1, 3205, Note_off_c, 0, 37, 42
1, 3208, Control_c, 0, 64, 117
1, 3223, Note_off_c, 0, 70, 41
1, 3223, Control_c, 0, 64, 119
1, 3238, Control_c, 0, 64, 120
1, 3253, Control_c, 0, 64, 121
1, 3267, Control_c, 0, 64, 122
1, 3282, Control_c, 0, 64, 123
1, 3297, Control_c, 0, 64, 124
1, 3308, Note_off_c, 0, 49, 49
1, 3312, Control_c, 0, 64, 125
1, 3327, Control_c, 0, 64, 125
1, 3342, Control_c, 0, 64, 126
1, 3357, Control_c, 0, 64, 127
1, 3392, Note_on_c, 0, 61, 52
1, 3517, Note_off_c, 0, 61, 58
1, 3669, Control_c, 0, 64, 127
1, 3670, Note_on_c, 0, 53, 35
1, 3679, Note_on_c, 0, 61, 46
1, 3684, Control_c, 0, 64, 123
1, 3685, Note_on_c, 0, 59, 36
1, 3698, Control_c, 0, 64, 118
1, 3713, Control_c, 0, 64, 114
1, 3728, Control_c, 0, 64, 109
1, 3743, Control_c, 0, 64, 102
1, 3758, Control_c, 0, 64, 94
1, 3772, Control_c, 0, 64, 85
1, 3787, Control_c, 0, 64, 74
1, 3802, Control_c, 0, 64, 62
1, 3816, Control_c, 0, 64, 0
1, 3857, Note_off_c, 0, 65, 33
1, 3890, Control_c, 0, 64, 44
1, 3905, Control_c, 0, 64, 64
1, 3928, Control_c, 0, 64, 68
1, 3943, Control_c, 0, 64, 73
1, 3958, Control_c, 0, 64, 78
1, 3972, Control_c, 0, 64, 81
1, 3987, Control_c, 0, 64, 84
1, 4002, Control_c, 0, 64, 86
1, 4016, Control_c, 0, 64, 89
1, 4031, Control_c, 0, 64, 91
1, 4046, Control_c, 0, 64, 94
1, 4047, Note_off_c, 0, 61, 63
1, 4061, Control_c, 0, 64, 97
1, 4076, Control_c, 0, 64, 101
1, 4091, Control_c, 0, 64, 103
1, 4105, Control_c, 0, 64, 106
1, 4120, Control_c, 0, 64, 109
1, 4135, Control_c, 0, 64, 112
1, 4150, Control_c, 0, 64, 114
1, 4165, Control_c, 0, 64, 116
1, 4180, Control_c, 0, 64, 119
1, 4194, Control_c, 0, 64, 122
1, 4209, Control_c, 0, 64, 126
1, 4224, Control_c, 0, 64, 127
1, 4296, Note_on_c, 0, 61, 53
1, 4320, Note_on_c, 0, 49, 29
1, 4330, Note_off_c, 0, 59, 38
1, 4430, Note_off_c, 0, 53, 42
1, 4630, Note_off_c, 0, 61, 62
1, 5091, Control_c, 0, 64, 121
1, 5106, Control_c, 0, 64, 115
1, 5107, Note_on_c, 0, 61, 52
1, 5116, Note_on_c, 0, 42, 30
1, 5120, Control_c, 0, 64, 109
1, 5136, Control_c, 0, 64, 103
1, 5151, Control_c, 0, 64, 96
1, 5166, Control_c, 0, 64, 87
1, 5181, Control_c, 0, 64, 78
1, 5196, Control_c, 0, 64, 67
1, 5210, Control_c, 0, 64, 0
1, 5304, Note_off_c, 0, 49, 28
1, 5373, Control_c, 0, 64, 46
1, 5387, Control_c, 0, 64, 66
1, 5402, Control_c, 0, 64, 71
1, 5425, Control_c, 0, 64, 78
1, 5440, Control_c, 0, 64, 82
1, 5455, Control_c, 0, 64, 85
1, 5469, Control_c, 0, 64, 88
1, 5484, Control_c, 0, 64, 91
1, 5499, Control_c, 0, 64, 93
1, 5514, Control_c, 0, 64, 97
1, 5529, Control_c, 0, 64, 99
1, 5543, Control_c, 0, 64, 102
1, 5558, Control_c, 0, 64, 103
1, 5573, Control_c, 0, 64, 105
1, 5587, Control_c, 0, 64, 105
1, 5602, Control_c, 0, 64, 106
1, 5617, Control_c, 0, 64, 107
1, 5632, Control_c, 0, 64, 107
1, 5647, Control_c, 0, 64, 108
1, 5661, Control_c, 0, 64, 108
1, 5706, Control_c, 0, 64, 109
1, 5721, Control_c, 0, 64, 109
1, 5825, Control_c, 0, 64, 110
1, 5891, Note_off_c, 0, 61, 37
1, 5920, Note_on_c, 0, 49, 32
1, 6042, Note_off_c, 0, 42, 40
1, 6063, Control_c, 0, 64, 110
1, 6101, Note_on_c, 0, 66, 41
1, 6173, Note_off_c, 0, 49, 40
1, 6293, Note_on_c, 0, 70, 41
1, 6335, Note_off_c, 0, 66, 34
1, 6420, Note_on_c, 0, 75, 47
1, 6461, Note_off_c, 0, 70, 36
1, 6470, Control_c, 0, 64, 110
1, 6529, Control_c, 0, 64, 109
1, 6544, Control_c, 0, 64, 108
1, 6558, Control_c, 0, 64, 104
1, 6562, Note_on_c, 0, 54, 34
1, 6573, Control_c, 0, 64, 99
1, 6576, Note_on_c, 0, 73, 50
1, 6585, Note_on_c, 0, 58, 34
1, 6588, Control_c, 0, 64, 93
1, 6603, Control_c, 0, 64, 86
1, 6618, Control_c, 0, 64, 77
1, 6633, Control_c, 0, 64, 66
1, 6648, Control_c, 0, 64, 0
1, 6683, Note_off_c, 0, 75, 50
1, 6797, Control_c, 0, 64, 64
1, 6812, Control_c, 0, 64, 72
1, 6827, Control_c, 0, 64, 79
1, 6841, Control_c, 0, 64, 85
1, 6852, Note_off_c, 0, 73, 64
1, 6856, Control_c, 0, 64, 88
1, 6871, Control_c, 0, 64, 91
1, 6886, Control_c, 0, 64, 93
1, 6901, Control_c, 0, 64, 95
1, 6922, Control_c, 0, 64, 98
1, 6937, Control_c, 0, 64, 100
1, 6952, Control_c, 0, 64, 103
1, 6967, Control_c, 0, 64, 104
1, 6981, Note_off_c, 0, 58, 41
1, 6982, Control_c, 0, 64, 105
1, 6997, Control_c, 0, 64, 105
1, 7011, Control_c, 0, 64, 106
1, 7026, Control_c, 0, 64, 107
1, 7041, Control_c, 0, 64, 107
1, 7056, Control_c, 0, 64, 108
1, 7071, Control_c, 0, 64, 109
1, 7086, Control_c, 0, 64, 109
1, 7101, Control_c, 0, 64, 110
1, 7115, Control_c, 0, 64, 110
1, 7130, Control_c, 0, 64, 111
1, 7145, Control_c, 0, 64, 111
1, 7159, Control_c, 0, 64, 112
1, 7189, Control_c, 0, 64, 112
1, 7243, Note_on_c, 0, 70, 54
1, 7258, Note_on_c, 0, 49, 30
1, 7372, Note_off_c, 0, 54, 40
1, 7530, Control_c, 0, 64, 113
1, 7649, Control_c, 0, 64, 113
1, 7800, Note_on_c, 0, 71, 57
1, 7862, Note_off_c, 0, 70, 54
1, 8026, Control_c, 0, 64, 113
1, 8055, Control_c, 0, 64, 111
1, 8071, Control_c, 0, 64, 109
1, 8086, Control_c, 0, 64, 106
1, 8101, Control_c, 0, 64, 101
1, 8116, Control_c, 0, 64, 94
1, 8130, Note_on_c, 0, 70, 55
1, 8130, Control_c, 0, 64, 87
1, 8133, Note_on_c, 0, 37, 32
1, 8145, Control_c, 0, 64, 77
1, 8160, Control_c, 0, 64, 65
1, 8175, Control_c, 0, 64, 0
1, 8221, Note_off_c, 0, 49, 37
1, 8283, Note_off_c, 0, 71, 52
1, 8339, Control_c, 0, 64, 30
1, 8353, Control_c, 0, 64, 64
1, 8368, Control_c, 0, 64, 69
1, 8383, Control_c, 0, 64, 74
1, 8398, Control_c, 0, 64, 77
1, 8420, Note_on_c, 0, 68, 55
1, 8420, Control_c, 0, 64, 79
1, 8435, Control_c, 0, 64, 81
1, 8450, Control_c, 0, 64, 82
1, 8465, Control_c, 0, 64, 84
1, 8480, Control_c, 0, 64, 86
1, 8494, Control_c, 0, 64, 88
1, 8509, Control_c, 0, 64, 89
1, 8524, Control_c, 0, 64, 90
1, 8526, Note_off_c, 0, 70, 30
1, 8539, Control_c, 0, 64, 91
1, 8554, Control_c, 0, 64, 92
1, 8568, Control_c, 0, 64, 92
1, 8583, Control_c, 0, 64, 93
1, 8598, Control_c, 0, 64, 94
1, 8606, Note_off_c, 0, 68, 53
1, 8610, Note_on_c, 0, 65, 44
1, 8612, Control_c, 0, 64, 95
1, 8627, Control_c, 0, 64, 96
1, 8642, Control_c, 0, 64, 98
1, 8657, Control_c, 0, 64, 99
1, 8672, Control_c, 0, 64, 100
1, 8687, Control_c, 0, 64, 101
1, 8717, Control_c, 0, 64, 101
1, 8727, Note_on_c, 0, 49, 39
1, 8731, Control_c, 0, 64, 102
1, 8761, Control_c, 0, 64, 102
1, 8779, Note_off_c, 0, 37, 39
1, 8800, Note_off_c, 0, 65, 64
1, 8806, Control_c, 0, 64, 103
1, 8816, Note_on_c, 0, 62, 52
1, 8835, Control_c, 0, 64, 103
1, 8893, Note_off_c, 0, 49, 53
1, 8997, Note_on_c, 0, 61, 62
1, 9047, Note_off_c, 0, 62, 56
1, 9125, Note_off_c, 0, 61, 61
1, 9214, Control_c, 0, 64, 103
1, 9229, Control_c, 0, 64, 101
1, 9237, Note_on_c, 0, 53, 30
1, 9240, Note_on_c, 0, 59, 36
1, 9240, Note_on_c, 0, 61, 57
1, 9243, Control_c, 0, 64, 97
1, 9258, Control_c, 0, 64, 91
1, 9273, Control_c, 0, 64, 85
1, 9288, Control_c, 0, 64, 76
1, 9303, Control_c, 0, 64, 65
1, 9317, Control_c, 0, 64, 0
1, 9421, Control_c, 0, 64, 44
1, 9435, Control_c, 0, 64, 66
1, 9450, Control_c, 0, 64, 72
1, 9465, Control_c, 0, 64, 77
1, 9480, Control_c, 0, 64, 81
1, 9495, Control_c, 0, 64, 83
1, 9509, Control_c, 0, 64, 85
1, 9524, Control_c, 0, 64, 86
1, 9539, Control_c, 0, 64, 88
1, 9547, Note_off_c, 0, 61, 64
1, 9554, Control_c, 0, 64, 90
1, 9569, Control_c, 0, 64, 92
1, 9584, Control_c, 0, 64, 94
1, 9599, Control_c, 0, 64, 96
1, 9614, Control_c, 0, 64, 97
1, 9628, Control_c, 0, 64, 97
1, 9643, Control_c, 0, 64, 98
1, 9658, Control_c, 0, 64, 99
1, 9673, Control_c, 0, 64, 99
1, 9688, Control_c, 0, 64, 100
1, 9703, Control_c, 0, 64, 100
1, 9717, Control_c, 0, 64, 101
1, 9747, Control_c, 0, 64, 101
1, 9761, Control_c, 0, 64, 102
1, 9791, Control_c, 0, 64, 102
1, 9821, Control_c, 0, 64, 103
1, 9827, Note_on_c, 0, 61, 54
1, 9835, Control_c, 0, 64, 103
1, 9849, Note_on_c, 0, 49, 29
1, 9865, Control_c, 0, 64, 104
1, 9876, Note_off_c, 0, 59, 40
1, 9895, Control_c, 0, 64, 104
1, 9917, Control_c, 0, 64, 105
1, 9933, Control_c, 0, 64, 105
1, 9948, Control_c, 0, 64, 106
1, 9963, Control_c, 0, 64, 107
1, 9966, Note_off_c, 0, 53, 42
1, 9977, Control_c, 0, 64, 107
1, 9992, Control_c, 0, 64, 108
1, 10007, Control_c, 0, 64, 109
1, 10022, Control_c, 0, 64, 109
1, 10037, Control_c, 0, 64, 110
1, 10052, Control_c, 0, 64, 111
1, 10066, Control_c, 0, 64, 112
1, 10081, Control_c, 0, 64, 112
1, 10096, Control_c, 0, 64, 113
1, 10111, Control_c, 0, 64, 114
1, 10126, Control_c, 0, 64, 115
1, 10138, Note_off_c, 0, 61, 63
1, 10140, Control_c, 0, 64, 116
1, 10155, Control_c, 0, 64, 117
1, 10170, Control_c, 0, 64, 117
1, 10199, Control_c, 0, 64, 118
1, 10496, Control_c, 0, 64, 117
1, 10511, Control_c, 0, 64, 117
1, 10526, Control_c, 0, 64, 115
1, 10540, Control_c, 0, 64, 113
1, 10555, Note_on_c, 0, 61, 49
1, 10555, Control_c, 0, 64, 109
1, 10570, Control_c, 0, 64, 105
1, 10578, Note_on_c, 0, 42, 31
1, 10584, Control_c, 0, 64, 99
1, 10599, Control_c, 0, 64, 93
1, 10614, Control_c, 0, 64, 85
1, 10629, Control_c, 0, 64, 77
1, 10644, Control_c, 0, 64, 66
1, 10666, Control_c, 0, 64, 0
1, 10689, Note_off_c, 0, 49, 34
1, 10875, Control_c, 0, 64, 64
1, 10889, Control_c, 0, 64, 70
1, 10904, Control_c, 0, 64, 75
1, 10919, Control_c, 0, 64, 80
1, 10934, Control_c, 0, 64, 82
1, 10949, Control_c, 0, 64, 84
1, 10963, Control_c, 0, 64, 87
1, 10978, Control_c, 0, 64, 90
1, 10993, Control_c, 0, 64, 93
1, 11007, Control_c, 0, 64, 96
1, 11022, Control_c, 0, 64, 98
1, 11037, Control_c, 0, 64, 101
1, 11052, Control_c, 0, 64, 102
1, 11068, Control_c, 0, 64, 103
1, 11082, Control_c, 0, 64, 103
1, 11097, Control_c, 0, 64, 104
1, 11112, Control_c, 0, 64, 104
1, 11127, Control_c, 0, 64, 105
1, 11142, Control_c, 0, 64, 105
1, 11156, Control_c, 0, 64, 106
1, 11186, Control_c, 0, 64, 106
1, 11230, Control_c, 0, 64, 107
1, 11250, Note_off_c, 0, 61, 53
1, 11284, Note_on_c, 0, 49, 38
1, 11334, Control_c, 0, 64, 107
1, 11356, Note_on_c, 0, 66, 41
1, 11392, Note_off_c, 0, 42, 41
1, 11393, Control_c, 0, 64, 108
1, 11462, Note_off_c, 0, 66, 60
1, 11493, Note_on_c, 0, 70, 39
1, 11613, Note_on_c, 0, 66, 43
1, 11739, Note_off_c, 0, 70, 23
1, 11763, Note_on_c, 0, 75, 51
1, 11804, Note_off_c, 0, 66, 38
1, 11881, Note_off_c, 0, 49, 36
1, 12008, Control_c, 0, 64, 107
1, 12022, Control_c, 0, 64, 107
1, 12037, Control_c, 0, 64, 106
1, 12049, Note_on_c, 0, 54, 37
1, 12052, Note_on_c, 0, 58, 27
1, 12052, Control_c, 0, 64, 104
1, 12055, Note_on_c, 0, 73, 43
1, 12067, Control_c, 0, 64, 101
1, 12082, Control_c, 0, 64, 97
1, 12097, Control_c, 0, 64, 91
1, 12112, Control_c, 0, 64, 83
1, 12127, Control_c, 0, 64, 74
1, 12142, Control_c, 0, 64, 64
1, 12163, Control_c, 0, 64, 0
1, 12212, Note_off_c, 0, 75, 36
1, 12297, Control_c, 0, 64, 52
1, 12311, Control_c, 0, 64, 66
1, 12327, Control_c, 0, 64, 70
1, 12342, Control_c, 0, 64, 73
1, 12357, Control_c, 0, 64, 76
1, 12372, Control_c, 0, 64, 78
1, 12386, Control_c, 0, 64, 81
1, 12401, Control_c, 0, 64, 84
1, 12416, Control_c, 0, 64, 86
1, 12431, Control_c, 0, 64, 88
1, 12446, Control_c, 0, 64, 90
1, 12461, Control_c, 0, 64, 92
1, 12475, Control_c, 0, 64, 93
1, 12479, Note_off_c, 0, 73, 63
1, 12490, Control_c, 0, 64, 94
1, 12505, Control_c, 0, 64, 95
1, 12517, Note_off_c, 0, 58, 42
1, 12520, Control_c, 0, 64, 95
1, 12535, Control_c, 0, 64, 96
1, 12541, Note_off_c, 0, 54, 40
1, 12550, Control_c, 0, 64, 97
1, 12565, Control_c, 0, 64, 97
1, 12579, Control_c, 0, 64, 98
1, 12594, Control_c, 0, 64, 98
1, 12624, Control_c, 0, 64, 99
1, 12986, Control_c, 0, 64, 98
1, 12994, Note_on_c, 0, 71, 54
1, 13001, Control_c, 0, 64, 98
1, 13016, Control_c, 0, 64, 97
1, 13031, Control_c, 0, 64, 96
1, 13046, Control_c, 0, 64, 94
1, 13060, Control_c, 0, 64, 92
1, 13075, Control_c, 0, 64, 90
1, 13090, Control_c, 0, 64, 87
1, 13104, Control_c, 0, 64, 83
1, 13119, Control_c, 0, 64, 78
1, 13136, Control_c, 0, 64, 72
1, 13150, Control_c, 0, 64, 64
1, 13165, Control_c, 0, 64, 0
1, 13343, Control_c, 0, 64, 51
1, 13358, Control_c, 0, 64, 68
1, 13373, Control_c, 0, 64, 74
1, 13388, Control_c, 0, 64, 80
1, 13402, Control_c, 0, 64, 83
1, 13417, Control_c, 0, 64, 84
1, 13432, Control_c, 0, 64, 86
1, 13447, Control_c, 0, 64, 87
1, 13462, Control_c, 0, 64, 89
1, 13476, Control_c, 0, 64, 90
1, 13491, Control_c, 0, 64, 91
1, 13506, Control_c, 0, 64, 91
1, 13511, Note_off_c, 0, 71, 58
1, 13513, Note_on_c, 0, 73, 57
1, 13609, Control_c, 0, 64, 91
1, 13624, Control_c, 0, 64, 90
1, 13639, Control_c, 0, 64, 88
1, 13659, Note_on_c, 0, 39, 30
1, 13662, Control_c, 0, 64, 86
1, 13663, Note_on_c, 0, 71, 56
1, 13676, Control_c, 0, 64, 82
1, 13691, Control_c, 0, 64, 77
1, 13706, Control_c, 0, 64, 70
1, 13721, Control_c, 0, 64, 54
1, 13735, Control_c, 0, 64, 0
1, 13737, Note_off_c, 0, 73, 55
1, 13913, Control_c, 0, 64, 50
1, 13929, Control_c, 0, 64, 65
1, 13944, Control_c, 0, 64, 69
1, 13954, Note_on_c, 0, 70, 65
1, 13959, Control_c, 0, 64, 70
1, 13973, Control_c, 0, 64, 72
1, 13988, Control_c, 0, 64, 75
1, 14003, Control_c, 0, 64, 79
1, 14018, Control_c, 0, 64, 81
1, 14032, Control_c, 0, 64, 83
1, 14043, Note_off_c, 0, 71, 57
1, 14047, Control_c, 0, 64, 84
1, 14062, Control_c, 0, 64, 84
1, 14240, Control_c, 0, 64, 84
1, 14255, Control_c, 0, 64, 82
1, 14256, Note_on_c, 0, 67, 60
1, 14270, Control_c, 0, 64, 79
1, 14273, Note_on_c, 0, 51, 36
1, 14285, Control_c, 0, 64, 73
1, 14299, Control_c, 0, 64, 64
1, 14314, Control_c, 0, 64, 0
1, 14352, Note_off_c, 0, 70, 57
1, 14425, Control_c, 0, 64, 56
1, 14432, Note_off_c, 0, 39, 33
1, 14440, Control_c, 0, 64, 69
1, 14455, Control_c, 0, 64, 76
1, 14470, Control_c, 0, 64, 83
1, 14485, Control_c, 0, 64, 88
1, 14499, Control_c, 0, 64, 92
1, 14514, Control_c, 0, 64, 95
1, 14529, Control_c, 0, 64, 97
1, 14544, Control_c, 0, 64, 100
1, 14545, Note_on_c, 0, 63, 51
1, 14557, Note_off_c, 0, 51, 62
1, 14558, Control_c, 0, 64, 103
1, 14573, Control_c, 0, 64, 106
1, 14588, Control_c, 0, 64, 109
1, 14603, Control_c, 0, 64, 111
1, 14618, Control_c, 0, 64, 113
1, 14632, Control_c, 0, 64, 115
1, 14647, Control_c, 0, 64, 117
1, 14649, Note_off_c, 0, 67, 63
1, 14662, Control_c, 0, 64, 119
1, 14677, Control_c, 0, 64, 122
1, 14692, Control_c, 0, 64, 124
1, 14699, Note_off_c, 0, 63, 63
1, 14706, Control_c, 0, 64, 125
1, 14737, Control_c, 0, 64, 125
1, 14842, Control_c, 0, 64, 125
1, 14871, Control_c, 0, 64, 123
1, 14886, Control_c, 0, 64, 119
1, 14892, Note_on_c, 0, 63, 63
1, 14899, Note_on_c, 0, 61, 36
1, 14901, Control_c, 0, 64, 114
1, 14916, Control_c, 0, 64, 109
1, 14918, Note_on_c, 0, 55, 35
1, 14930, Control_c, 0, 64, 104
1, 14945, Control_c, 0, 64, 98
1, 14960, Control_c, 0, 64, 91
1, 14974, Control_c, 0, 64, 83
1, 14989, Control_c, 0, 64, 71
1, 15004, Control_c, 0, 64, 54
1, 15019, Control_c, 0, 64, 0
1, 15078, Control_c, 0, 64, 53
1, 15093, Control_c, 0, 64, 68
1, 15108, Control_c, 0, 64, 75
1, 15122, Control_c, 0, 64, 82
1, 15137, Control_c, 0, 64, 87
1, 15160, Control_c, 0, 64, 90
1, 15174, Control_c, 0, 64, 93
1, 15189, Control_c, 0, 64, 98
1, 15197, Note_off_c, 0, 63, 64
1, 15204, Control_c, 0, 64, 102
1, 15215, Note_off_c, 0, 61, 48
1, 15219, Control_c, 0, 64, 106
1, 15234, Control_c, 0, 64, 109
1, 15249, Control_c, 0, 64, 111
1, 15263, Control_c, 0, 64, 113
1, 15278, Control_c, 0, 64, 115
1, 15293, Control_c, 0, 64, 117
1, 15308, Control_c, 0, 64, 118
1, 15323, Control_c, 0, 64, 119
1, 15337, Control_c, 0, 64, 120
1, 15352, Control_c, 0, 64, 120
1, 15367, Control_c, 0, 64, 121
1, 15412, Control_c, 0, 64, 121
1, 15447, Note_off_c, 0, 55, 41
1, 15502, Note_on_c, 0, 63, 64
1, 15531, Control_c, 0, 64, 122
1, 15539, Note_on_c, 0, 51, 31
1, 15560, Control_c, 0, 64, 122
1, 15604, Control_c, 0, 64, 123
1, 15634, Control_c, 0, 64, 123
1, 15693, Control_c, 0, 64, 124
1, 15702, Note_off_c, 0, 51, 54
1, 15723, Control_c, 0, 64, 124
1, 15752, Control_c, 0, 64, 125
1, 15861, Note_off_c, 0, 63, 65
1, 16115, Control_c, 0, 64, 124
1, 16130, Control_c, 0, 64, 122
1, 16145, Control_c, 0, 64, 120
1, 16160, Control_c, 0, 64, 116
1, 16172, Note_on_c, 0, 44, 30
1, 16172, Note_on_c, 0, 63, 58
1, 16175, Control_c, 0, 64, 111
1, 16190, Control_c, 0, 64, 105
1, 16204, Control_c, 0, 64, 98
1, 16219, Control_c, 0, 64, 88
1, 16234, Control_c, 0, 64, 75
1, 16249, Control_c, 0, 64, 58
1, 16264, Control_c, 0, 64, 0
1, 16339, Control_c, 0, 64, 63
1, 16354, Control_c, 0, 64, 71
1, 16368, Control_c, 0, 64, 81
1, 16383, Control_c, 0, 64, 92
1, 16398, Control_c, 0, 64, 102
1, 16413, Control_c, 0, 64, 110
1, 16427, Control_c, 0, 64, 118
1, 16442, Control_c, 0, 64, 126
1, 16457, Control_c, 0, 64, 127
1, 16464, Note_off_c, 0, 44, 56
1, 16519, Note_off_c, 0, 63, 64
1, 17006, Note_on_c, 0, 78, 72
1, 17017, Note_on_c, 0, 59, 32
1, 17030, Note_on_c, 0, 56, 33
1, 17037, Note_on_c, 0, 51, 31
1, 17295, Note_off_c, 0, 56, 52
1, 17307, Note_off_c, 0, 51, 41
1, 17311, Note_off_c, 0, 59, 41
1, 17908, Control_c, 0, 64, 120
1, 17916, Note_on_c, 0, 47, 37
1, 17925, Control_c, 0, 64, 112
1, 17939, Control_c, 0, 64, 104
1, 17954, Control_c, 0, 64, 95
1, 17969, Control_c, 0, 64, 85
1, 17984, Control_c, 0, 64, 75
1, 17998, Control_c, 0, 64, 63
1, 18013, Control_c, 0, 64, 0
1, 18102, Control_c, 0, 64, 43
1, 18117, Control_c, 0, 64, 64
1, 18132, Control_c, 0, 64, 69
1, 18154, Control_c, 0, 64, 75
1, 18169, Control_c, 0, 64, 78
1, 18184, Control_c, 0, 64, 81
1, 18198, Control_c, 0, 64, 83
1, 18213, Control_c, 0, 64, 85
1, 18228, Control_c, 0, 64, 88
1, 18243, Control_c, 0, 64, 91
1, 18258, Control_c, 0, 64, 93
1, 18272, Control_c, 0, 64, 95
1, 18287, Control_c, 0, 64, 97
1, 18302, Control_c, 0, 64, 99
1, 18309, Note_off_c, 0, 47, 40
1, 18316, Control_c, 0, 64, 101
1, 18331, Control_c, 0, 64, 103
1, 18346, Control_c, 0, 64, 104
1, 18361, Control_c, 0, 64, 106
1, 18376, Control_c, 0, 64, 107
1, 18386, Note_on_c, 0, 75, 45
1, 18390, Control_c, 0, 64, 108
1, 18405, Control_c, 0, 64, 109
1, 18420, Control_c, 0, 64, 111
1, 18435, Control_c, 0, 64, 113
1, 18450, Control_c, 0, 64, 114
1, 18464, Control_c, 0, 64, 115
1, 18479, Control_c, 0, 64, 115
1, 18494, Control_c, 0, 64, 116
1, 18509, Control_c, 0, 64, 117
1, 18524, Control_c, 0, 64, 117
1, 18539, Control_c, 0, 64, 118
1, 18643, Control_c, 0, 64, 118
1, 18708, Note_on_c, 0, 56, 33
1, 18708, Note_off_c, 0, 75, 60
1, 18710, Note_on_c, 0, 51, 36
1, 18712, Note_on_c, 0, 66, 42
1, 18720, Note_on_c, 0, 63, 28
1, 18772, Note_off_c, 0, 78, 51
1, 19031, Note_on_c, 0, 68, 57
1, 19152, Note_off_c, 0, 66, 39
1, 19273, Control_c, 0, 64, 118
1, 19302, Control_c, 0, 64, 117
1, 19317, Control_c, 0, 64, 116
1, 19332, Control_c, 0, 64, 114
1, 19346, Note_on_c, 0, 70, 55
1, 19346, Control_c, 0, 64, 110
1, 19358, Note_on_c, 0, 49, 24
1, 19361, Control_c, 0, 64, 105
1, 19376, Control_c, 0, 64, 98
1, 19391, Control_c, 0, 64, 89
1, 19406, Control_c, 0, 64, 78
1, 19411, Note_off_c, 0, 68, 61
1, 19421, Note_off_c, 0, 56, 41
1, 19421, Control_c, 0, 64, 64
1, 19436, Control_c, 0, 64, 0
1, 19436, Note_off_c, 0, 51, 40
1, 19470, Note_off_c, 0, 63, 40
1, 19570, Control_c, 0, 64, 49
1, 19585, Control_c, 0, 64, 69
1, 19600, Control_c, 0, 64, 76
1, 19615, Control_c, 0, 64, 84
1, 19630, Control_c, 0, 64, 90
1, 19651, Control_c, 0, 64, 94
1, 19666, Control_c, 0, 64, 96
1, 19680, Note_off_c, 0, 70, 64
1, 19681, Control_c, 0, 64, 99
1, 19696, Control_c, 0, 64, 102
1, 19711, Control_c, 0, 64, 105
1, 19725, Control_c, 0, 64, 108
1, 19740, Control_c, 0, 64, 110
1, 19755, Control_c, 0, 64, 111
1, 19770, Control_c, 0, 64, 111
1, 19785, Control_c, 0, 64, 112
1, 19800, Control_c, 0, 64, 112
1, 19814, Control_c, 0, 64, 113
1, 19829, Control_c, 0, 64, 114
1, 19859, Control_c, 0, 64, 114
1, 20110, Control_c, 0, 64, 114
1, 20126, Note_on_c, 0, 63, 31
1, 20133, Note_on_c, 0, 54, 34
1, 20140, Control_c, 0, 64, 112
1, 20148, Note_on_c, 0, 71, 49
1, 20155, Control_c, 0, 64, 109
1, 20169, Control_c, 0, 64, 103
1, 20184, Control_c, 0, 64, 96
1, 20199, Control_c, 0, 64, 88
1, 20214, Control_c, 0, 64, 78
1, 20229, Control_c, 0, 64, 67
1, 20244, Control_c, 0, 64, 0
1, 20363, Control_c, 0, 64, 60
1, 20378, Control_c, 0, 64, 69
1, 20400, Control_c, 0, 64, 76
1, 20415, Control_c, 0, 64, 81
1, 20430, Control_c, 0, 64, 84
1, 20445, Control_c, 0, 64, 85
1, 20460, Control_c, 0, 64, 87
1, 20474, Control_c, 0, 64, 88
1, 20489, Control_c, 0, 64, 89
1, 20504, Control_c, 0, 64, 89
1, 20519, Control_c, 0, 64, 90
1, 20584, Note_on_c, 0, 70, 65
1, 20682, Control_c, 0, 64, 89
1, 20697, Control_c, 0, 64, 89
1, 20711, Control_c, 0, 64, 87
1, 20726, Control_c, 0, 64, 84
1, 20741, Control_c, 0, 64, 80
1, 20742, Note_off_c, 0, 71, 37
1, 20756, Control_c, 0, 64, 75
1, 20771, Control_c, 0, 64, 67
1, 20786, Control_c, 0, 64, 47
1, 20801, Control_c, 0, 64, 0
1, 20811, Note_on_c, 0, 68, 57
1, 20813, Note_on_c, 0, 60, 34
1, 20815, Note_off_c, 0, 70, 60
1, 20936, Note_off_c, 0, 68, 63
1, 20949, Note_on_c, 0, 70, 56
1, 20964, Control_c, 0, 64, 52
1, 20979, Control_c, 0, 64, 66
1, 20983, Note_off_c, 0, 63, 41
1, 20993, Control_c, 0, 64, 72
1, 21008, Control_c, 0, 64, 78
1, 21018, Note_off_c, 0, 70, 63
1, 21023, Control_c, 0, 64, 80
1, 21029, Note_on_c, 0, 68, 63
1, 21066, Note_off_c, 0, 68, 61
1, 21082, Control_c, 0, 64, 79
1, 21087, Note_on_c, 0, 70, 68
1, 21097, Control_c, 0, 64, 76
1, 21113, Control_c, 0, 64, 70
1, 21128, Control_c, 0, 64, 59
1, 21150, Control_c, 0, 64, 0
1, 21153, Note_off_c, 0, 70, 60
1, 21158, Note_on_c, 0, 68, 76
1, 21224, Control_c, 0, 64, 58
1, 21227, Note_off_c, 0, 68, 62
1, 21239, Control_c, 0, 64, 67
1, 21241, Note_on_c, 0, 67, 64
1, 21254, Control_c, 0, 64, 71
1, 21269, Control_c, 0, 64, 74
1, 21284, Control_c, 0, 64, 75
1, 21298, Control_c, 0, 64, 75
1, 21313, Control_c, 0, 64, 76
1, 21326, Note_off_c, 0, 54, 40
1, 21328, Control_c, 0, 64, 77
1, 21342, Control_c, 0, 64, 79
1, 21357, Control_c, 0, 64, 81
1, 21372, Control_c, 0, 64, 81
1, 21387, Control_c, 0, 64, 82
1, 21408, Note_off_c, 0, 67, 59
1, 21410, Note_on_c, 0, 68, 62
1, 21534, Control_c, 0, 64, 81
1, 21564, Control_c, 0, 64, 81
1, 21579, Control_c, 0, 64, 80
1, 21594, Control_c, 0, 64, 79
1, 21609, Control_c, 0, 64, 78
1, 21624, Control_c, 0, 64, 75
1, 21639, Control_c, 0, 64, 70
1, 21654, Control_c, 0, 64, 62
1, 21657, Note_on_c, 0, 61, 37
1, 21659, Note_on_c, 0, 70, 55
1, 21669, Note_on_c, 0, 53, 40
1, 21669, Control_c, 0, 64, 0
1, 21683, Note_off_c, 0, 68, 61
1, 21697, Note_off_c, 0, 60, 57
1, 21831, Control_c, 0, 64, 57
1, 21846, Control_c, 0, 64, 69
1, 21860, Control_c, 0, 64, 77
1, 21875, Control_c, 0, 64, 85
1, 21898, Control_c, 0, 64, 88
1, 21913, Control_c, 0, 64, 91
1, 21928, Control_c, 0, 64, 94
1, 21943, Control_c, 0, 64, 97
1, 21958, Control_c, 0, 64, 100
1, 21973, Control_c, 0, 64, 104
1, 21978, Note_off_c, 0, 70, 64
1, 21988, Control_c, 0, 64, 107
1, 22002, Control_c, 0, 64, 108
1, 22011, Note_off_c, 0, 49, 40
1, 22017, Control_c, 0, 64, 109
1, 22068, Note_off_c, 0, 61, 62
1, 22077, Control_c, 0, 64, 110
1, 22247, Note_off_c, 0, 53, 38
1, 22351, Note_on_c, 0, 68, 50
1, 22352, Note_on_c, 0, 59, 29
1, 22380, Note_on_c, 0, 50, 28
1, 22520, Control_c, 0, 64, 109
1, 22530, Note_off_c, 0, 59, 38
1, 22550, Control_c, 0, 64, 108
1, 22551, Note_off_c, 0, 50, 36
1, 22552, Note_on_c, 0, 51, 45
1, 22560, Note_on_c, 0, 66, 53
1, 22564, Control_c, 0, 64, 106
1, 22567, Note_on_c, 0, 54, 35
1, 22567, Note_on_c, 0, 58, 35
1, 22579, Control_c, 0, 64, 101
1, 22594, Control_c, 0, 64, 95
1, 22609, Control_c, 0, 64, 86
1, 22624, Control_c, 0, 64, 74
1, 22646, Control_c, 0, 64, 41
1, 22661, Control_c, 0, 64, 0
1, 22665, Note_off_c, 0, 68, 39
1, 22840, Control_c, 0, 64, 63
1, 22855, Control_c, 0, 64, 69
1, 22869, Control_c, 0, 64, 73
1, 22884, Control_c, 0, 64, 76
1, 22899, Control_c, 0, 64, 78
1, 22914, Control_c, 0, 64, 80
1, 22929, Control_c, 0, 64, 81
1, 22943, Control_c, 0, 64, 83
1, 22958, Control_c, 0, 64, 85
1, 22973, Control_c, 0, 64, 86
1, 22987, Control_c, 0, 64, 88
1, 23002, Control_c, 0, 64, 89
1, 23017, Control_c, 0, 64, 89
1, 23032, Control_c, 0, 64, 90
1, 23047, Control_c, 0, 64, 91
1, 23061, Control_c, 0, 64, 91
1, 23076, Control_c, 0, 64, 92
1, 23091, Control_c, 0, 64, 92
1, 23105, Control_c, 0, 64, 93
1, 23364, Note_off_c, 0, 58, 36
1, 23387, Note_off_c, 0, 51, 31
1, 23403, Note_on_c, 0, 65, 47
1, 23408, Note_on_c, 0, 57, 25
1, 23409, Control_c, 0, 64, 92
1, 23424, Note_on_c, 0, 48, 31
1, 23424, Control_c, 0, 64, 92
1, 23439, Control_c, 0, 64, 90
1, 23454, Control_c, 0, 64, 87
1, 23469, Control_c, 0, 64, 83
1, 23484, Control_c, 0, 64, 77
1, 23499, Control_c, 0, 64, 68
1, 23504, Note_off_c, 0, 66, 50
1, 23514, Control_c, 0, 64, 0
1, 23692, Control_c, 0, 64, 60
1, 23707, Control_c, 0, 64, 67
1, 23722, Control_c, 0, 64, 71
1, 23736, Control_c, 0, 64, 76
1, 23751, Control_c, 0, 64, 79
1, 23766, Control_c, 0, 64, 81
1, 23781, Control_c, 0, 64, 83
1, 23796, Control_c, 0, 64, 85
1, 23810, Control_c, 0, 64, 86
1, 23825, Control_c, 0, 64, 88
1, 23840, Control_c, 0, 64, 89
1, 23855, Control_c, 0, 64, 91
1, 23870, Control_c, 0, 64, 92
1, 23884, Control_c, 0, 64, 93
1, 23888, Note_off_c, 0, 57, 40
1, 23896, Note_off_c, 0, 65, 53
1, 23899, Control_c, 0, 64, 94
1, 23914, Control_c, 0, 64, 95
1, 23928, Control_c, 0, 64, 96
1, 23943, Control_c, 0, 64, 96
1, 23958, Control_c, 0, 64, 97
1, 23965, Note_off_c, 0, 54, 40
1, 23973, Control_c, 0, 64, 97
1, 23988, Control_c, 0, 64, 98
1, 24000, Note_on_c, 0, 63, 41
1, 24003, Control_c, 0, 64, 99
1, 24018, Control_c, 0, 64, 100
1, 24032, Control_c, 0, 64, 100
1, 24037, Note_off_c, 0, 48, 41
1, 24047, Control_c, 0, 64, 101
1, 24062, Control_c, 0, 64, 101
1, 24077, Control_c, 0, 64, 102
1, 24092, Control_c, 0, 64, 103
1, 24107, Control_c, 0, 64, 103
1, 24158, Control_c, 0, 64, 104
1, 24307, Control_c, 0, 64, 103
1, 24322, Control_c, 0, 64, 103
1, 24323, Note_on_c, 0, 49, 30
1, 24325, Note_on_c, 0, 61, 37
1, 24329, Note_on_c, 0, 53, 27
1, 24331, Note_on_c, 0, 56, 31
1, 24337, Control_c, 0, 64, 102
1, 24352, Control_c, 0, 64, 100
1, 24366, Control_c, 0, 64, 97
1, 24381, Control_c, 0, 64, 94
1, 24396, Control_c, 0, 64, 89
1, 24411, Control_c, 0, 64, 83
1, 24426, Control_c, 0, 64, 77
1, 24441, Control_c, 0, 64, 69
1, 24456, Control_c, 0, 64, 37
1, 24467, Note_off_c, 0, 63, 38
1, 24471, Control_c, 0, 64, 0
1, 24634, Control_c, 0, 64, 62
1, 24649, Control_c, 0, 64, 69
1, 24664, Control_c, 0, 64, 74
1, 24679, Control_c, 0, 64, 78
1, 24694, Control_c, 0, 64, 80
1, 24708, Control_c, 0, 64, 82
1, 24720, Note_off_c, 0, 53, 43
1, 24723, Control_c, 0, 64, 83
1, 24738, Control_c, 0, 64, 85
1, 24752, Control_c, 0, 64, 87
1, 24761, Note_off_c, 0, 49, 40
1, 24767, Control_c, 0, 64, 90
1, 24782, Control_c, 0, 64, 93
1, 24797, Control_c, 0, 64, 95
1, 24812, Control_c, 0, 64, 98
1, 24823, Note_off_c, 0, 56, 52
1, 24826, Control_c, 0, 64, 99
1, 24841, Control_c, 0, 64, 100
1, 24851, Note_off_c, 0, 61, 60
1, 24856, Control_c, 0, 64, 101
1, 24871, Control_c, 0, 64, 102
1, 24893, Control_c, 0, 64, 102
1, 24908, Control_c, 0, 64, 103
1, 24923, Control_c, 0, 64, 103
1, 24953, Control_c, 0, 64, 104
1, 25082, Note_on_c, 0, 42, 31
1, 25180, Note_on_c, 0, 49, 30
1, 25255, Note_on_c, 0, 54, 37
1, 25332, Note_on_c, 0, 58, 46
1, 25368, Control_c, 0, 64, 103
1, 25398, Control_c, 0, 64, 102
1, 25413, Control_c, 0, 64, 101
1, 25427, Control_c, 0, 64, 100
1, 25442, Control_c, 0, 64, 98
1, 25457, Control_c, 0, 64, 96
1, 25463, Note_on_c, 0, 61, 54
1, 25472, Control_c, 0, 64, 94
1, 25487, Control_c, 0, 64, 92
1, 25502, Control_c, 0, 64, 89
1, 25516, Control_c, 0, 64, 85
1, 25531, Control_c, 0, 64, 82
1, 25546, Control_c, 0, 64, 77
1, 25561, Control_c, 0, 64, 72
1, 25576, Control_c, 0, 64, 66
1, 25582, Note_on_c, 0, 66, 61
1, 25590, Control_c, 0, 64, 48
1, 25605, Control_c, 0, 64, 0
1, 25864, Note_on_c, 0, 70, 58
1, 25910, Control_c, 0, 64, 60
1, 25925, Control_c, 0, 64, 66
1, 25939, Control_c, 0, 64, 69
1, 25954, Control_c, 0, 64, 73
1, 25969, Control_c, 0, 64, 77
1, 25984, Control_c, 0, 64, 81
1, 25999, Control_c, 0, 64, 85
1, 26013, Control_c, 0, 64, 89
1, 26027, Note_off_c, 0, 58, 51
1, 26028, Control_c, 0, 64, 93
1, 26042, Control_c, 0, 64, 97
1, 26057, Control_c, 0, 64, 101
1, 26063, Note_off_c, 0, 54, 38
1, 26072, Control_c, 0, 64, 105
1, 26081, Note_off_c, 0, 42, 41
1, 26086, Control_c, 0, 64, 110
1, 26101, Control_c, 0, 64, 114
1, 26116, Control_c, 0, 64, 118
1, 26131, Control_c, 0, 64, 123
1, 26146, Control_c, 0, 64, 127
1, 26158, Note_off_c, 0, 49, 38
1, 26296, Note_off_c, 0, 66, 38
1, 26320, Note_off_c, 0, 61, 62
1, 26380, Note_off_c, 0, 70, 61
1, 26585, Note_on_c, 0, 71, 59
1, 26705, Note_on_c, 0, 59, 42
1, 26707, Note_off_c, 0, 71, 56
1, 26775, Note_on_c, 0, 65, 50
1, 26936, Note_on_c, 0, 70, 62
1, 26939, Control_c, 0, 64, 123
1, 26944, Note_on_c, 0, 37, 30
1, 26954, Control_c, 0, 64, 114
1, 26969, Control_c, 0, 64, 107
1, 26984, Control_c, 0, 64, 100
1, 26998, Control_c, 0, 64, 91
1, 27013, Control_c, 0, 64, 82
1, 27028, Control_c, 0, 64, 71
1, 27043, Control_c, 0, 64, 0
1, 27228, Control_c, 0, 64, 40
1, 27243, Control_c, 0, 64, 65
1, 27258, Control_c, 0, 64, 71
1, 27273, Control_c, 0, 64, 75
1, 27287, Control_c, 0, 64, 77
1, 27302, Control_c, 0, 64, 79
1, 27317, Control_c, 0, 64, 80
1, 27332, Control_c, 0, 64, 81
1, 27347, Control_c, 0, 64, 83
1, 27358, Note_off_c, 0, 65, 37
1, 27361, Control_c, 0, 64, 84
1, 27376, Control_c, 0, 64, 86
1, 27391, Control_c, 0, 64, 88
1, 27404, Poly_aftertouch_c, 0, 39, 127
1, 27406, Control_c, 0, 64, 90
1, 27421, Control_c, 0, 64, 92
1, 27435, Control_c, 0, 64, 92
1, 27450, Control_c, 0, 64, 93
1, 27465, Control_c, 0, 64, 94
1, 27472, Note_on_c, 0, 68, 53
1, 27479, Control_c, 0, 64, 95
1, 27494, Control_c, 0, 64, 97
1, 27510, Control_c, 0, 64, 98
1, 27525, Control_c, 0, 64, 101
1, 27541, Control_c, 0, 64, 102
1, 27556, Control_c, 0, 64, 104
1, 27563, Note_off_c, 0, 59, 32
1, 27571, Control_c, 0, 64, 104
1, 27585, Control_c, 0, 64, 105
1, 27600, Control_c, 0, 64, 106
1, 27615, Control_c, 0, 64, 106
1, 27645, Control_c, 0, 64, 107
1, 27806, Note_on_c, 0, 65, 46
1, 27817, Note_on_c, 0, 49, 23
1, 27854, Note_off_c, 0, 37, 39
1, 27908, Poly_aftertouch_c, 0, 39, 0
1, 28007, Control_c, 0, 64, 107
1, 28012, Note_off_c, 0, 49, 50
1, 28092, Note_on_c, 0, 61, 48
1, 28140, Control_c, 0, 64, 108
1, 28210, Note_off_c, 0, 61, 59
1, 28211, Note_off_c, 0, 70, 23
1, 28364, Control_c, 0, 64, 107
1, 28379, Control_c, 0, 64, 106
1, 28393, Note_on_c, 0, 59, 26
1, 28393, Control_c, 0, 64, 105
1, 28399, Note_on_c, 0, 61, 43
1, 28406, Note_on_c, 0, 53, 22
1, 28408, Control_c, 0, 64, 102
1, 28423, Control_c, 0, 64, 98
1, 28438, Control_c, 0, 64, 93
1, 28453, Control_c, 0, 64, 86
1, 28468, Control_c, 0, 64, 76
1, 28482, Control_c, 0, 64, 66
1, 28497, Control_c, 0, 64, 0
1, 28599, Note_off_c, 0, 68, 39
1, 28600, Control_c, 0, 64, 62
1, 28615, Control_c, 0, 64, 69
1, 28638, Control_c, 0, 64, 74
1, 28641, Note_off_c, 0, 65, 41
1, 28653, Control_c, 0, 64, 80
1, 28668, Control_c, 0, 64, 83
1, 28682, Control_c, 0, 64, 86
1, 28697, Control_c, 0, 64, 88
1, 28712, Control_c, 0, 64, 90
1, 28725, Note_off_c, 0, 61, 62
1, 28726, Control_c, 0, 64, 93
1, 28741, Control_c, 0, 64, 95
1, 28756, Control_c, 0, 64, 98
1, 28771, Control_c, 0, 64, 100
1, 28786, Control_c, 0, 64, 102
1, 28800, Control_c, 0, 64, 103
1, 28815, Control_c, 0, 64, 105
1, 28830, Control_c, 0, 64, 107
1, 28845, Control_c, 0, 64, 109
1, 28860, Control_c, 0, 64, 111
1, 28874, Control_c, 0, 64, 113
1, 28889, Control_c, 0, 64, 115
1, 28904, Control_c, 0, 64, 116
1, 28919, Control_c, 0, 64, 117
1, 28933, Control_c, 0, 64, 118
1, 28948, Control_c, 0, 64, 119
1, 28963, Control_c, 0, 64, 121
1, 28978, Control_c, 0, 64, 122
1, 28990, Note_on_c, 0, 61, 55
1, 28993, Control_c, 0, 64, 122
1, 29000, Note_on_c, 0, 49, 30
1, 29008, Control_c, 0, 64, 123
1, 29008, Note_off_c, 0, 59, 39
1, 29037, Control_c, 0, 64, 124
1, 29052, Control_c, 0, 64, 125
1, 29092, Note_off_c, 0, 53, 41
1, 29112, Control_c, 0, 64, 125
1, 29142, Control_c, 0, 64, 126
1, 29186, Control_c, 0, 64, 126
1, 29216, Control_c, 0, 64, 127
1, 29231, Control_c, 0, 64, 127
1, 29285, Note_off_c, 0, 61, 62
1, 29653, Control_c, 0, 64, 127
1, 29668, Control_c, 0, 64, 125
1, 29675, Note_on_c, 0, 61, 55
1, 29682, Control_c, 0, 64, 121
1, 29688, Note_on_c, 0, 42, 34
1, 29697, Control_c, 0, 64, 117
1, 29712, Control_c, 0, 64, 112
1, 29727, Control_c, 0, 64, 105
1, 29742, Control_c, 0, 64, 98
1, 29756, Control_c, 0, 64, 90
1, 29771, Control_c, 0, 64, 81
1, 29785, Control_c, 0, 64, 72
1, 29800, Control_c, 0, 64, 58
1, 29815, Control_c, 0, 64, 0
1, 29828, Note_off_c, 0, 49, 34
1, 29934, Control_c, 0, 64, 60
1, 29949, Control_c, 0, 64, 68
1, 29964, Control_c, 0, 64, 75
1, 29978, Control_c, 0, 64, 81
1, 29993, Control_c, 0, 64, 84
1, 30008, Control_c, 0, 64, 87
1, 30023, Control_c, 0, 64, 88
1, 30038, Control_c, 0, 64, 90
1, 30052, Control_c, 0, 64, 93
1, 30067, Control_c, 0, 64, 96
1, 30082, Control_c, 0, 64, 99
1, 30096, Control_c, 0, 64, 103
1, 30111, Control_c, 0, 64, 105
1, 30134, Control_c, 0, 64, 108
1, 30149, Control_c, 0, 64, 109
1, 30164, Control_c, 0, 64, 111
1, 30178, Control_c, 0, 64, 112
1, 30193, Control_c, 0, 64, 113
1, 30208, Control_c, 0, 64, 115
1, 30223, Control_c, 0, 64, 116
1, 30238, Control_c, 0, 64, 117
1, 30252, Control_c, 0, 64, 117
1, 30267, Control_c, 0, 64, 118
1, 30297, Control_c, 0, 64, 118
1, 30311, Control_c, 0, 64, 119
1, 30385, Control_c, 0, 64, 119
1, 30444, Control_c, 0, 64, 120
1, 30474, Control_c, 0, 64, 120
1, 30534, Control_c, 0, 64, 121
1, 30555, Note_on_c, 0, 49, 36
1, 30593, Control_c, 0, 64, 121
1, 30668, Control_c, 0, 64, 122
1, 30683, Note_off_c, 0, 61, 52
1, 30693, Note_off_c, 0, 42, 41
1, 30698, Note_on_c, 0, 66, 48
1, 30713, Control_c, 0, 64, 122
1, 30856, Note_on_c, 0, 70, 59
1, 31022, Note_off_c, 0, 49, 37
1, 31034, Note_on_c, 0, 75, 58
1, 31175, Note_off_c, 0, 66, 32
1, 31336, Note_on_c, 0, 73, 50
1, 31339, Note_on_c, 0, 54, 26
1, 31345, Note_on_c, 0, 58, 21
1, 31367, Note_off_c, 0, 70, 30
1, 31494, Note_off_c, 0, 75, 60
1, 31565, Control_c, 0, 64, 123
1, 31605, Note_off_c, 0, 73, 64
1, 31610, Control_c, 0, 64, 123
1, 31685, Note_off_c, 0, 58, 43
1, 31810, Control_c, 0, 64, 123
1, 31944, Control_c, 0, 64, 122
1, 32032, Control_c, 0, 64, 122
1, 32062, Control_c, 0, 64, 121
1, 32106, Control_c, 0, 64, 121
1, 32136, Control_c, 0, 64, 120
1, 32140, Note_on_c, 0, 49, 38
1, 32149, Note_on_c, 0, 70, 47
1, 32165, Control_c, 0, 64, 120
1, 32180, Control_c, 0, 64, 119
1, 32195, Control_c, 0, 64, 118
1, 32210, Control_c, 0, 64, 116
1, 32224, Control_c, 0, 64, 115
1, 32239, Control_c, 0, 64, 112
1, 32254, Control_c, 0, 64, 110
1, 32269, Control_c, 0, 64, 107
1, 32284, Control_c, 0, 64, 103
1, 32299, Control_c, 0, 64, 96
1, 32314, Control_c, 0, 64, 89
1, 32329, Control_c, 0, 64, 81
1, 32344, Control_c, 0, 64, 72
1, 32359, Control_c, 0, 64, 61
1, 32372, Note_off_c, 0, 54, 49
1, 32381, Control_c, 0, 64, 0
1, 32409, Note_on_c, 0, 71, 54
1, 32450, Note_off_c, 0, 70, 60
1, 32455, Control_c, 0, 64, 56
1, 32470, Control_c, 0, 64, 64
1, 32485, Control_c, 0, 64, 66
1, 32499, Control_c, 0, 64, 68
1, 32514, Control_c, 0, 64, 69
1, 32529, Control_c, 0, 64, 71
1, 32544, Control_c, 0, 64, 72
1, 32550, Note_off_c, 0, 71, 60
1, 32557, Note_on_c, 0, 70, 70
1, 32559, Control_c, 0, 64, 74
1, 32573, Control_c, 0, 64, 75
1, 32588, Control_c, 0, 64, 76
1, 32645, Note_off_c, 0, 70, 62
1, 32658, Note_on_c, 0, 69, 66
1, 32758, Note_on_c, 0, 70, 70
1, 32786, Note_off_c, 0, 69, 60
1, 32871, Note_on_c, 0, 73, 64
1, 32884, Control_c, 0, 67, 10
1, 32891, Note_off_c, 0, 70, 53
1, 32898, Control_c, 0, 67, 15
1, 32913, Control_c, 0, 67, 21
1, 32928, Control_c, 0, 67, 30
1, 32943, Control_c, 0, 67, 37
1, 32958, Control_c, 0, 67, 45
1, 32972, Control_c, 0, 67, 52
1, 32987, Control_c, 0, 67, 59
1, 33002, Control_c, 0, 67, 65
1, 33017, Control_c, 0, 67, 73
1, 33032, Control_c, 0, 67, 79
1, 33038, Note_on_c, 0, 72, 64
1, 33047, Control_c, 0, 67, 86
1, 33062, Control_c, 0, 64, 75
1, 33062, Control_c, 0, 67, 93
1, 33076, Control_c, 0, 67, 100
1, 33092, Control_c, 0, 67, 107
1, 33107, Control_c, 0, 67, 114
1, 33129, Control_c, 0, 67, 122
1, 33144, Control_c, 0, 64, 75
1, 33144, Control_c, 0, 67, 127
1, 33174, Control_c, 0, 64, 74
1, 33203, Control_c, 0, 64, 74
1, 33218, Control_c, 0, 64, 73
1, 33233, Control_c, 0, 64, 72
1, 33239, Note_off_c, 0, 73, 53
1, 33243, Note_off_c, 0, 72, 63
1, 33248, Control_c, 0, 64, 70
1, 33263, Note_on_c, 0, 42, 31
1, 33263, Control_c, 0, 64, 64
1, 33277, Control_c, 0, 64, 39
1, 33285, Note_on_c, 0, 71, 47
1, 33292, Control_c, 0, 64, 0
1, 33416, Note_off_c, 0, 49, 33
1, 33500, Control_c, 0, 64, 59
1, 33514, Control_c, 0, 64, 65
1, 33529, Control_c, 0, 64, 68
1, 33544, Control_c, 0, 64, 69
1, 33545, Note_off_c, 0, 71, 52
1, 33559, Note_on_c, 0, 70, 41
1, 33559, Control_c, 0, 64, 70
1, 33588, Control_c, 0, 64, 70
1, 33603, Control_c, 0, 64, 71
1, 33618, Control_c, 0, 64, 71
1, 33633, Control_c, 0, 64, 72
1, 33634, Note_off_c, 0, 70, 61
1, 33647, Control_c, 0, 64, 73
1, 33662, Control_c, 0, 64, 74
1, 33677, Control_c, 0, 64, 74
1, 33692, Control_c, 0, 64, 76
1, 33705, Poly_aftertouch_c, 0, 71, 127
1, 33707, Control_c, 0, 64, 76
1, 33721, Control_c, 0, 64, 77
1, 33736, Control_c, 0, 64, 78
1, 33751, Control_c, 0, 64, 78
1, 33756, Poly_aftertouch_c, 0, 71, 0
1, 33762, Note_on_c, 0, 70, 52
1, 33766, Control_c, 0, 64, 79
1, 33781, Control_c, 0, 64, 79
1, 33795, Control_c, 0, 64, 80
1, 33803, Note_off_c, 0, 70, 56
1, 33810, Control_c, 0, 64, 81
1, 33825, Control_c, 0, 64, 81
1, 33840, Control_c, 0, 64, 82
1, 33841, Note_on_c, 0, 69, 46
1, 33877, Control_c, 0, 64, 82
1, 33916, Note_off_c, 0, 69, 60
1, 33938, Control_c, 0, 64, 83
1, 33946, Note_on_c, 0, 68, 39
1, 33975, Note_off_c, 0, 68, 55
1, 33998, Note_on_c, 0, 69, 46
1, 34069, Note_off_c, 0, 69, 65
1, 34080, Note_on_c, 0, 68, 56
1, 34108, Note_on_c, 0, 50, 29
1, 34134, Note_off_c, 0, 68, 57
1, 34166, Note_off_c, 0, 42, 41
1, 34167, Note_on_c, 0, 69, 45
1, 34203, Note_off_c, 0, 69, 56
1, 34216, Note_on_c, 0, 68, 53
1, 34263, Note_off_c, 0, 68, 61
1, 34290, Note_on_c, 0, 67, 54
1, 34349, Note_off_c, 0, 67, 60
1, 34376, Note_on_c, 0, 66, 49
1, 34411, Note_off_c, 0, 66, 54
1, 34438, Note_on_c, 0, 67, 62
1, 34519, Note_off_c, 0, 67, 60
1, 34528, Note_on_c, 0, 66, 62
1, 34619, Note_off_c, 0, 66, 65
1, 34650, Note_on_c, 0, 67, 62
1, 34746, Control_c, 0, 64, 82
1, 34761, Note_on_c, 0, 59, 33
1, 34764, Note_on_c, 0, 56, 35
1, 34776, Control_c, 0, 64, 81
1, 34790, Control_c, 0, 64, 80
1, 34796, Note_on_c, 0, 66, 48
1, 34801, Note_off_c, 0, 67, 53
1, 34805, Control_c, 0, 64, 76
1, 34820, Control_c, 0, 64, 71
1, 34835, Control_c, 0, 64, 64
1, 34850, Control_c, 0, 64, 18
1, 34865, Control_c, 0, 64, 0
1, 34901, Note_off_c, 0, 50, 39
1, 34924, Control_c, 0, 64, 56
1, 34939, Control_c, 0, 64, 64
1, 34941, Note_off_c, 0, 66, 61
1, 34954, Note_on_c, 0, 67, 51
1, 34954, Control_c, 0, 64, 66
1, 34968, Control_c, 0, 64, 67
1, 34983, Control_c, 0, 64, 68
1, 35013, Control_c, 0, 64, 68
1, 35028, Control_c, 0, 64, 69
1, 35059, Note_on_c, 0, 66, 58
1, 35060, Note_off_c, 0, 67, 56
1, 35106, Note_off_c, 0, 66, 60
1, 35123, Note_on_c, 0, 65, 59
1, 35162, Note_off_c, 0, 65, 66
1, 35202, Note_on_c, 0, 64, 63
1, 35278, Note_off_c, 0, 64, 49
1, 35284, Note_on_c, 0, 65, 57
1, 35356, Note_off_c, 0, 65, 64
1, 35375, Control_c, 0, 64, 69
1, 35380, Note_on_c, 0, 66, 58
1, 35449, Control_c, 0, 64, 69
1, 35464, Control_c, 0, 64, 68
1, 35479, Control_c, 0, 64, 67
1, 35495, Control_c, 0, 64, 66
1, 35499, Note_off_c, 0, 66, 60
1, 35500, Note_on_c, 0, 70, 47
1, 35510, Control_c, 0, 64, 63
1, 35524, Control_c, 0, 64, 48
1, 35526, Note_on_c, 0, 49, 27
1, 35539, Control_c, 0, 64, 0
1, 35601, Note_off_c, 0, 59, 28
1, 35617, Note_on_c, 0, 68, 53
1, 35638, Note_off_c, 0, 70, 55
1, 35658, Control_c, 0, 64, 60
1, 35673, Note_off_c, 0, 56, 40
1, 35673, Control_c, 0, 64, 65
1, 35688, Control_c, 0, 64, 67
1, 35714, Note_off_c, 0, 68, 61
1, 35722, Note_on_c, 0, 65, 45
1, 35802, Note_off_c, 0, 65, 63
1, 35811, Note_on_c, 0, 66, 54
1, 35836, Control_c, 0, 64, 66
1, 35850, Control_c, 0, 64, 66
1, 35865, Control_c, 0, 64, 65
1, 35880, Control_c, 0, 64, 65
1, 35895, Control_c, 0, 64, 64
1, 35905, Note_off_c, 0, 66, 63
1, 35909, Control_c, 0, 64, 63
1, 35914, Note_on_c, 0, 63, 53
1, 35924, Control_c, 0, 64, 62
1, 35939, Control_c, 0, 64, 61
1, 35954, Control_c, 0, 64, 61
1, 35969, Control_c, 0, 64, 60
1, 35984, Control_c, 0, 64, 60
1, 36013, Control_c, 0, 64, 60
1, 36028, Control_c, 0, 64, 61
1, 36057, Control_c, 0, 64, 61
1, 36072, Control_c, 0, 64, 62
1, 36087, Control_c, 0, 64, 63
1, 36102, Control_c, 0, 64, 64
1, 36106, Note_off_c, 0, 63, 56
1, 36117, Note_on_c, 0, 68, 51
1, 36124, Control_c, 0, 64, 66
1, 36139, Control_c, 0, 64, 69
1, 36154, Control_c, 0, 64, 71
1, 36169, Control_c, 0, 64, 73
1, 36184, Control_c, 0, 64, 75
1, 36198, Control_c, 0, 64, 77
1, 36213, Control_c, 0, 64, 80
1, 36228, Control_c, 0, 64, 83
1, 36242, Control_c, 0, 64, 85
1, 36246, Note_off_c, 0, 68, 63
1, 36257, Control_c, 0, 64, 87
1, 36272, Control_c, 0, 64, 88
1, 36288, Control_c, 0, 64, 89
1, 36303, Control_c, 0, 64, 90
1, 36318, Control_c, 0, 64, 90
1, 36333, Control_c, 0, 64, 91
1, 36362, Control_c, 0, 64, 91
1, 36392, Control_c, 0, 64, 92
1, 36525, Note_on_c, 0, 68, 47
1, 36632, Note_on_c, 0, 42, 37
1, 36643, Control_c, 0, 64, 91
1, 36658, Control_c, 0, 64, 91
1, 36672, Control_c, 0, 64, 90
1, 36687, Control_c, 0, 64, 88
1, 36702, Control_c, 0, 64, 85
1, 36717, Control_c, 0, 64, 81
1, 36732, Control_c, 0, 64, 77
1, 36746, Control_c, 0, 64, 70
1, 36761, Control_c, 0, 64, 59
1, 36776, Control_c, 0, 64, 0
1, 36791, Note_off_c, 0, 49, 32
1, 36831, Note_on_c, 0, 61, 50
1, 37006, Control_c, 0, 64, 39
1, 37020, Control_c, 0, 64, 63
1, 37035, Control_c, 0, 64, 68
1, 37050, Control_c, 0, 64, 71
1, 37065, Control_c, 0, 64, 74
1, 37080, Control_c, 0, 64, 78
1, 37095, Control_c, 0, 64, 82
1, 37105, Note_off_c, 0, 68, 63
1, 37110, Control_c, 0, 64, 85
1, 37125, Control_c, 0, 64, 88
1, 37140, Control_c, 0, 64, 91
1, 37155, Control_c, 0, 64, 94
1, 37169, Control_c, 0, 64, 96
1, 37184, Control_c, 0, 64, 99
1, 37199, Control_c, 0, 64, 100
1, 37214, Control_c, 0, 64, 102
1, 37229, Control_c, 0, 64, 103
1, 37244, Control_c, 0, 64, 105
1, 37259, Control_c, 0, 64, 105
1, 37274, Control_c, 0, 64, 106
1, 37288, Control_c, 0, 64, 107
1, 37303, Control_c, 0, 64, 108
1, 37308, Note_on_c, 0, 49, 40
1, 37318, Control_c, 0, 64, 109
1, 37333, Control_c, 0, 64, 111
1, 37348, Control_c, 0, 64, 112
1, 37354, Note_off_c, 0, 61, 53
1, 37363, Control_c, 0, 64, 114
1, 37378, Control_c, 0, 64, 117
1, 37393, Control_c, 0, 64, 119
1, 37408, Control_c, 0, 64, 121
1, 37423, Control_c, 0, 64, 125
1, 37432, Note_on_c, 0, 66, 60
1, 37437, Control_c, 0, 64, 127
1, 37496, Note_off_c, 0, 42, 38
1, 37571, Note_on_c, 0, 70, 63
1, 37600, Note_off_c, 0, 66, 62
1, 37737, Note_off_c, 0, 49, 50
1, 37844, Note_on_c, 0, 78, 64
1, 38007, Note_off_c, 0, 70, 58
1, 38040, Note_off_c, 0, 78, 64
1, 38201, Control_c, 0, 67, 123
1, 38216, Control_c, 0, 67, 112
1, 38230, Control_c, 0, 67, 102
1, 38245, Control_c, 0, 67, 94
1, 38260, Control_c, 0, 67, 88
1, 38275, Control_c, 0, 67, 84
1, 38290, Control_c, 0, 67, 80
1, 38304, Control_c, 0, 67, 76
1, 38319, Control_c, 0, 67, 72
1, 38334, Control_c, 0, 67, 65
1, 38349, Control_c, 0, 67, 58
1, 38371, Control_c, 0, 67, 51
1, 38386, Control_c, 0, 67, 45
1, 38400, Control_c, 0, 67, 41
1, 38415, Control_c, 0, 67, 39
1, 38430, Control_c, 0, 67, 38
1, 38652, Control_c, 0, 67, 39
1, 38677, Note_on_c, 0, 75, 40
1, 38698, Control_c, 0, 67, 39
1, 38757, Note_off_c, 0, 75, 51
1, 38787, Control_c, 0, 67, 40
1, 38809, Note_on_c, 0, 73, 44
1, 38818, Note_on_c, 0, 58, 33
1, 38821, Note_on_c, 0, 61, 26
1, 38827, Note_on_c, 0, 54, 26
1, 38832, Control_c, 0, 67, 40
1, 38847, Control_c, 0, 64, 124
1, 38861, Control_c, 0, 64, 117
1, 38876, Control_c, 0, 64, 112
1, 38891, Control_c, 0, 64, 107
1, 38906, Control_c, 0, 64, 101
1, 38921, Control_c, 0, 64, 95
1, 38935, Control_c, 0, 64, 90
1, 38950, Control_c, 0, 64, 83
1, 38965, Control_c, 0, 64, 76
1, 38980, Control_c, 0, 64, 68
1, 38995, Control_c, 0, 64, 52
1, 39009, Control_c, 0, 64, 0
1, 39135, Control_c, 0, 64, 52
1, 39150, Control_c, 0, 64, 64
1, 39165, Control_c, 0, 64, 68
1, 39180, Control_c, 0, 64, 72
1, 39195, Control_c, 0, 64, 76
1, 39209, Control_c, 0, 64, 79
1, 39224, Control_c, 0, 64, 81
1, 39239, Control_c, 0, 64, 84
1, 39254, Control_c, 0, 64, 86
1, 39254, Control_c, 0, 67, 40
1, 39268, Control_c, 0, 64, 88
1, 39283, Control_c, 0, 64, 91
1, 39283, Control_c, 0, 67, 39
1, 39298, Control_c, 0, 64, 94
1, 39313, Control_c, 0, 64, 96
1, 39328, Control_c, 0, 64, 99
1, 39342, Control_c, 0, 64, 101
1, 39342, Control_c, 0, 67, 39
1, 39357, Control_c, 0, 64, 104
1, 39372, Control_c, 0, 64, 105
1, 39387, Control_c, 0, 64, 107
1, 39391, Note_off_c, 0, 73, 62
1, 39402, Control_c, 0, 64, 109
1, 39402, Control_c, 0, 67, 38
1, 39417, Control_c, 0, 64, 111
1, 39432, Control_c, 0, 64, 112
1, 39447, Control_c, 0, 64, 114
1, 39461, Control_c, 0, 64, 115
1, 39461, Control_c, 0, 67, 38
1, 39476, Control_c, 0, 64, 117
1, 39491, Control_c, 0, 64, 119
1, 39506, Control_c, 0, 64, 120
1, 39521, Control_c, 0, 64, 121
1, 39536, Control_c, 0, 64, 122
1, 39551, Control_c, 0, 64, 123
1, 39551, Control_c, 0, 67, 37
1, 39566, Control_c, 0, 64, 123
1, 39581, Control_c, 0, 64, 125
1, 39596, Control_c, 0, 64, 125
1, 39611, Control_c, 0, 64, 126
1, 39626, Control_c, 0, 64, 127
1, 39640, Control_c, 0, 64, 127
1, 39821, Note_on_c, 0, 69, 43
1, 40032, Control_c, 0, 67, 37
1, 40058, Note_on_c, 0, 70, 57
1, 40091, Control_c, 0, 67, 36
1, 40106, Control_c, 0, 67, 32
1, 40121, Control_c, 0, 67, 23
1, 40136, Control_c, 0, 67, 13
1, 40151, Control_c, 0, 67, 0
1, 40178, Note_off_c, 0, 69, 38
1, 40198, Note_on_c, 0, 71, 63
1, 40207, Note_off_c, 0, 61, 40
1, 40210, Note_off_c, 0, 70, 58
1, 40344, Note_on_c, 0, 70, 72
1, 40359, Note_off_c, 0, 71, 54
1, 40363, Note_off_c, 0, 58, 54
1, 40422, Note_off_c, 0, 54, 50
1, 40528, Note_on_c, 0, 74, 68
1, 40585, Note_off_c, 0, 70, 53
1, 40955, Note_off_c, 0, 74, 60
1, 41008, Note_on_c, 0, 74, 55
1, 41020, Note_on_c, 0, 39, 45
1, 41047, Control_c, 0, 64, 125
1, 41062, Control_c, 0, 64, 111
1, 41078, Control_c, 0, 64, 100
1, 41093, Control_c, 0, 64, 88
1, 41108, Control_c, 0, 64, 72
1, 41123, Control_c, 0, 64, 40
1, 41137, Control_c, 0, 64, 0
1, 41226, Control_c, 0, 64, 53
1, 41241, Control_c, 0, 64, 66
1, 41256, Control_c, 0, 64, 72
1, 41271, Control_c, 0, 64, 77
1, 41286, Control_c, 0, 64, 80
1, 41301, Control_c, 0, 64, 82
1, 41316, Control_c, 0, 64, 84
1, 41330, Control_c, 0, 64, 86
1, 41345, Control_c, 0, 64, 89
1, 41367, Control_c, 0, 64, 92
1, 41382, Control_c, 0, 64, 95
1, 41392, Note_on_c, 0, 73, 67
1, 41397, Control_c, 0, 64, 99
1, 41411, Control_c, 0, 64, 101
1, 41426, Control_c, 0, 64, 103
1, 41441, Control_c, 0, 64, 105
1, 41456, Control_c, 0, 64, 108
1, 41471, Control_c, 0, 64, 110
1, 41486, Control_c, 0, 64, 112
1, 41501, Control_c, 0, 64, 115
1, 41515, Control_c, 0, 64, 116
1, 41530, Control_c, 0, 64, 117
1, 41545, Control_c, 0, 64, 119
1, 41548, Note_on_c, 0, 70, 71
1, 41560, Control_c, 0, 64, 120
1, 41575, Control_c, 0, 64, 121
1, 41590, Control_c, 0, 64, 122
1, 41605, Control_c, 0, 64, 123
1, 41619, Control_c, 0, 64, 124
1, 41628, Note_off_c, 0, 74, 40
1, 41632, Note_off_c, 0, 73, 57
1, 41634, Control_c, 0, 64, 124
1, 41649, Control_c, 0, 64, 125
1, 41678, Note_on_c, 0, 51, 53
1, 41693, Control_c, 0, 64, 125
1, 41723, Control_c, 0, 64, 126
1, 41747, Note_on_c, 0, 67, 70
1, 41752, Control_c, 0, 64, 126
1, 41760, Note_off_c, 0, 39, 59
1, 41802, Note_off_c, 0, 70, 38
1, 41816, Note_off_c, 0, 51, 63
1, 41951, Note_on_c, 0, 70, 74
1, 42030, Note_off_c, 0, 67, 56
1, 42205, Control_c, 0, 64, 126
1, 42220, Control_c, 0, 64, 125
1, 42234, Note_on_c, 0, 61, 41
1, 42234, Control_c, 0, 64, 123
1, 42245, Note_on_c, 0, 55, 40
1, 42249, Control_c, 0, 64, 119
1, 42259, Note_on_c, 0, 64, 67
1, 42264, Control_c, 0, 64, 113
1, 42279, Control_c, 0, 64, 107
1, 42293, Control_c, 0, 64, 101
1, 42308, Control_c, 0, 64, 94
1, 42323, Control_c, 0, 64, 85
1, 42338, Control_c, 0, 64, 75
1, 42353, Control_c, 0, 64, 60
1, 42368, Control_c, 0, 64, 0
1, 42416, Note_off_c, 0, 70, 63
1, 42457, Control_c, 0, 64, 60
1, 42472, Control_c, 0, 64, 66
1, 42486, Control_c, 0, 64, 70
1, 42501, Control_c, 0, 64, 74
1, 42515, Control_c, 0, 64, 77
1, 42530, Control_c, 0, 64, 80
1, 42545, Control_c, 0, 64, 83
1, 42559, Control_c, 0, 64, 86
1, 42574, Control_c, 0, 64, 88
1, 42589, Control_c, 0, 64, 91
1, 42603, Control_c, 0, 64, 93
1, 42618, Control_c, 0, 64, 96
1, 42633, Control_c, 0, 64, 100
1, 42648, Control_c, 0, 64, 102
1, 42663, Control_c, 0, 64, 104
1, 42669, Note_off_c, 0, 61, 55
1, 42679, Control_c, 0, 64, 105
1, 42694, Control_c, 0, 64, 107
1, 42708, Control_c, 0, 64, 108
1, 42723, Control_c, 0, 64, 109
1, 42738, Control_c, 0, 64, 111
1, 42753, Control_c, 0, 64, 112
1, 42768, Control_c, 0, 64, 112
1, 42782, Control_c, 0, 64, 113
1, 42786, Note_on_c, 0, 63, 75
1, 42797, Control_c, 0, 64, 113
1, 42827, Control_c, 0, 64, 114
1, 42859, Note_off_c, 0, 64, 64
1, 42894, Control_c, 0, 64, 114
1, 42906, Note_off_c, 0, 63, 64
1, 43042, Control_c, 0, 64, 114
1, 43120, Note_on_c, 0, 51, 31
1, 43131, Control_c, 0, 64, 113
1, 43133, Note_on_c, 0, 63, 64
1, 43146, Control_c, 0, 64, 111
1, 43161, Control_c, 0, 64, 107
1, 43176, Control_c, 0, 64, 102
1, 43186, Poly_aftertouch_c, 0, 66, 127
1, 43190, Control_c, 0, 64, 95
1, 43205, Control_c, 0, 64, 86
1, 43220, Control_c, 0, 64, 75
1, 43225, Note_off_c, 0, 55, 45
1, 43234, Poly_aftertouch_c, 0, 66, 0
1, 43234, Control_c, 0, 64, 64
1, 43249, Control_c, 0, 64, 0
1, 43322, Control_c, 0, 64, 54
1, 43337, Control_c, 0, 64, 66
1, 43341, Note_on_c, 0, 62, 65
1, 43352, Control_c, 0, 64, 72
1, 43367, Control_c, 0, 64, 78
1, 43370, Note_off_c, 0, 63, 64
1, 43381, Control_c, 0, 64, 82
1, 43396, Control_c, 0, 64, 85
1, 43411, Control_c, 0, 64, 87
1, 43426, Control_c, 0, 64, 89
1, 43438, Note_off_c, 0, 51, 57
1, 43441, Control_c, 0, 64, 91
1, 43456, Control_c, 0, 64, 92
1, 43471, Note_on_c, 0, 63, 70
1, 43471, Control_c, 0, 64, 94
1, 43486, Control_c, 0, 64, 95
1, 43501, Control_c, 0, 64, 96
1, 43502, Note_off_c, 0, 62, 58
1, 43516, Control_c, 0, 64, 97
1, 43530, Control_c, 0, 64, 98
1, 43545, Control_c, 0, 64, 98
1, 43558, Note_on_c, 0, 66, 75
1, 43560, Control_c, 0, 64, 99
1, 43575, Control_c, 0, 64, 100
1, 43577, Note_off_c, 0, 63, 62
1, 43612, Control_c, 0, 64, 100
1, 43642, Control_c, 0, 64, 101
1, 43669, Note_on_c, 0, 64, 71
1, 43701, Control_c, 0, 64, 101
1, 43730, Control_c, 0, 64, 102
1, 43760, Control_c, 0, 64, 102
1, 43769, Note_off_c, 0, 66, 58
1, 43775, Control_c, 0, 64, 103
1, 43784, Note_on_c, 0, 63, 78
1, 43790, Control_c, 0, 64, 103
1, 43802, Note_off_c, 0, 64, 65
1, 43805, Control_c, 0, 64, 104
1, 43820, Control_c, 0, 64, 104
1, 43835, Control_c, 0, 64, 105
1, 43871, Note_off_c, 0, 63, 60
1, 43968, Control_c, 0, 64, 103
1, 43983, Control_c, 0, 64, 96
1, 43998, Control_c, 0, 64, 88
1, 44011, Note_on_c, 0, 44, 49
1, 44013, Control_c, 0, 64, 76
1, 44023, Note_on_c, 0, 63, 75
1, 44028, Control_c, 0, 64, 59
1, 44043, Control_c, 0, 64, 0
1, 44055, Note_on_c, 0, 66, 29
1, 44087, Note_on_c, 0, 62, 63
1, 44100, Note_off_c, 0, 66, 48
1, 44117, Note_off_c, 0, 62, 62
1, 44117, Control_c, 0, 64, 55
1, 44131, Control_c, 0, 64, 70
1, 44146, Control_c, 0, 64, 80
1, 44148, Note_off_c, 0, 63, 67
1, 44161, Control_c, 0, 64, 89
1, 44175, Control_c, 0, 64, 96
1, 44190, Control_c, 0, 64, 98
1, 44205, Control_c, 0, 64, 100
1, 44220, Control_c, 0, 64, 101
1, 44235, Control_c, 0, 64, 103
1, 44249, Control_c, 0, 64, 105
1, 44264, Control_c, 0, 64, 106
1, 44280, Control_c, 0, 64, 107
1, 44285, Note_off_c, 0, 44, 63
1, 44295, Control_c, 0, 64, 107
1, 44357, Note_on_c, 0, 78, 92
1, 44377, Control_c, 0, 64, 108
1, 44436, Control_c, 0, 64, 108
1, 44466, Control_c, 0, 64, 109
1, 44554, Control_c, 0, 64, 109
1, 44569, Control_c, 0, 64, 110
1, 44584, Control_c, 0, 64, 110
1, 44599, Control_c, 0, 64, 112
1, 44605, Note_on_c, 0, 75, 95
1, 44614, Control_c, 0, 64, 114
1, 44628, Control_c, 0, 64, 116
1, 44643, Control_c, 0, 64, 118
1, 44648, Note_off_c, 0, 78, 60
1, 44658, Control_c, 0, 64, 122
1, 44669, Note_off_c, 0, 75, 65
1, 44672, Control_c, 0, 64, 125
1, 44687, Control_c, 0, 64, 127
1, 44977, Note_on_c, 0, 59, 49
1, 44979, Note_on_c, 0, 90, 90
1, 44979, Note_on_c, 0, 56, 48
1, 44988, Note_on_c, 0, 51, 51
1, 45088, Poly_aftertouch_c, 0, 93, 0
1, 45319, Note_off_c, 0, 51, 60
1, 45328, Note_off_c, 0, 59, 58
1, 45393, Note_off_c, 0, 56, 58
1, 46129, Note_on_c, 0, 56, 24
1, 46133, Note_on_c, 0, 59, 35
1, 46139, Note_on_c, 0, 63, 27
1, 46148, Note_on_c, 0, 54, 33
1, 46288, Note_off_c, 0, 59, 50
1, 46303, Note_off_c, 0, 63, 42
1, 46310, Note_off_c, 0, 54, 41
1, 46312, Note_off_c, 0, 56, 42
1, 46512, Note_on_c, 0, 87, 39
1, 46615, Note_off_c, 0, 90, 54
1, 46706, Note_off_c, 0, 87, 58
1, 46742, Note_on_c, 0, 83, 45
1, 46926, Note_off_c, 0, 83, 29
1, 46939, Note_on_c, 0, 80, 60
1, 47184, Note_on_c, 0, 56, 31
1, 47195, Note_on_c, 0, 78, 46
1, 47197, Note_on_c, 0, 63, 29
1, 47201, Note_on_c, 0, 66, 17
1, 47213, Note_on_c, 0, 59, 23
1, 47247, Note_off_c, 0, 80, 33
1, 47420, Note_off_c, 0, 66, 41
1, 47500, Note_on_c, 0, 75, 46
1, 47515, Note_off_c, 0, 78, 60
1, 47710, Note_off_c, 0, 56, 31
1, 47769, Note_off_c, 0, 59, 33
1, 47794, Note_off_c, 0, 63, 38
1, 47844, Note_off_c, 0, 75, 51
1, 47881, Note_on_c, 0, 71, 44
1, 47965, Note_off_c, 0, 71, 58
1, 48177, Note_on_c, 0, 66, 52
1, 48403, Note_on_c, 0, 68, 61
1, 48417, Note_off_c, 0, 66, 56
1, 48669, Control_c, 0, 64, 124
1, 48681, Note_on_c, 0, 37, 34
1, 48684, Control_c, 0, 64, 118
1, 48696, Note_on_c, 0, 49, 29
1, 48699, Control_c, 0, 64, 112
1, 48700, Note_on_c, 0, 70, 53
1, 48714, Control_c, 0, 64, 106
1, 48728, Control_c, 0, 64, 99
1, 48743, Control_c, 0, 64, 91
1, 48758, Control_c, 0, 64, 78
1, 48760, Note_off_c, 0, 68, 60
1, 48773, Control_c, 0, 64, 64
1, 48788, Control_c, 0, 64, 0
1, 48905, Note_off_c, 0, 37, 58
1, 48914, Control_c, 0, 64, 55
1, 48928, Control_c, 0, 64, 69
1, 48943, Control_c, 0, 64, 78
1, 48958, Control_c, 0, 64, 88
1, 48972, Control_c, 0, 64, 93
1, 48987, Control_c, 0, 64, 95
1, 49002, Control_c, 0, 64, 98
1, 49017, Control_c, 0, 64, 100
1, 49032, Control_c, 0, 64, 103
1, 49045, Note_off_c, 0, 70, 62
1, 49046, Control_c, 0, 64, 107
1, 49061, Control_c, 0, 64, 110
1, 49077, Control_c, 0, 64, 112
1, 49092, Control_c, 0, 64, 114
1, 49107, Control_c, 0, 64, 115
1, 49122, Control_c, 0, 64, 118
1, 49137, Control_c, 0, 64, 120
1, 49151, Control_c, 0, 64, 123
1, 49166, Control_c, 0, 64, 126
1, 49181, Control_c, 0, 64, 127
1, 49469, Note_on_c, 0, 63, 33
1, 49471, Note_on_c, 0, 71, 59
1, 49471, Note_on_c, 0, 54, 39
1, 49492, Control_c, 0, 64, 125
1, 49507, Control_c, 0, 64, 118
1, 49522, Control_c, 0, 64, 113
1, 49537, Control_c, 0, 64, 105
1, 49552, Control_c, 0, 64, 97
1, 49567, Control_c, 0, 64, 88
1, 49582, Control_c, 0, 64, 78
1, 49603, Control_c, 0, 64, 66
1, 49618, Control_c, 0, 64, 0
1, 49722, Control_c, 0, 64, 61
1, 49737, Control_c, 0, 64, 69
1, 49752, Control_c, 0, 64, 75
1, 49767, Control_c, 0, 64, 79
1, 49781, Control_c, 0, 64, 81
1, 49796, Control_c, 0, 64, 81
1, 49811, Control_c, 0, 64, 82
1, 49826, Control_c, 0, 64, 84
1, 49841, Control_c, 0, 64, 86
1, 49856, Control_c, 0, 64, 89
1, 49871, Control_c, 0, 64, 91
1, 49886, Control_c, 0, 64, 92
1, 49901, Control_c, 0, 64, 92
1, 49945, Control_c, 0, 64, 93
1, 49994, Note_on_c, 0, 70, 61
1, 50125, Note_off_c, 0, 71, 37
1, 50153, Control_c, 0, 64, 92
1, 50182, Control_c, 0, 64, 92
1, 50197, Control_c, 0, 64, 91
1, 50211, Control_c, 0, 64, 90
1, 50226, Control_c, 0, 64, 89
1, 50241, Control_c, 0, 64, 88
1, 50256, Control_c, 0, 64, 86
1, 50271, Control_c, 0, 64, 84
1, 50278, Note_on_c, 0, 60, 37
1, 50285, Control_c, 0, 64, 79
1, 50297, Note_on_c, 0, 68, 49
1, 50297, Note_off_c, 0, 70, 55
1, 50300, Control_c, 0, 64, 74
1, 50315, Control_c, 0, 64, 67
1, 50330, Control_c, 0, 64, 49
1, 50353, Control_c, 0, 64, 0
1, 50375, Note_off_c, 0, 63, 39
1, 50489, Note_off_c, 0, 68, 63
1, 50500, Control_c, 0, 64, 54
1, 50512, Note_on_c, 0, 70, 48
1, 50515, Control_c, 0, 64, 65
1, 50530, Control_c, 0, 64, 67
1, 50582, Note_off_c, 0, 70, 63
1, 50607, Note_on_c, 0, 68, 51
1, 50619, Control_c, 0, 64, 67
1, 50635, Note_off_c, 0, 68, 54
1, 50649, Control_c, 0, 64, 66
1, 50658, Note_on_c, 0, 70, 44
1, 50664, Control_c, 0, 64, 65
1, 50679, Control_c, 0, 64, 64
1, 50685, Note_off_c, 0, 70, 58
1, 50694, Control_c, 0, 64, 63
1, 50704, Note_on_c, 0, 68, 60
1, 50709, Control_c, 0, 64, 59
1, 50723, Control_c, 0, 64, 49
1, 50738, Control_c, 0, 64, 20
1, 50744, Note_off_c, 0, 68, 62
1, 50754, Control_c, 0, 64, 0
1, 50756, Note_on_c, 0, 70, 70
1, 50801, Note_off_c, 0, 70, 57
1, 50821, Note_on_c, 0, 68, 61
1, 50914, Note_off_c, 0, 68, 63
1, 50926, Note_on_c, 0, 67, 63
1, 51035, Control_c, 0, 64, 62
1, 51050, Control_c, 0, 64, 68
1, 51065, Control_c, 0, 64, 73
1, 51080, Control_c, 0, 64, 77
1, 51084, Note_off_c, 0, 54, 40
1, 51102, Control_c, 0, 64, 79
1, 51117, Control_c, 0, 64, 80
1, 51132, Control_c, 0, 64, 81
1, 51141, Note_on_c, 0, 68, 54
1, 51147, Control_c, 0, 64, 82
1, 51153, Note_off_c, 0, 67, 54
1, 51162, Control_c, 0, 64, 83
1, 51177, Control_c, 0, 64, 84
1, 51191, Control_c, 0, 64, 85
1, 51206, Control_c, 0, 64, 86
1, 51236, Control_c, 0, 64, 86
1, 51314, Note_off_c, 0, 60, 33
1, 51488, Control_c, 0, 64, 86
1, 51497, Note_on_c, 0, 70, 51
1, 51502, Control_c, 0, 64, 85
1, 51517, Note_on_c, 0, 61, 32
1, 51517, Control_c, 0, 64, 84
1, 51532, Control_c, 0, 64, 83
1, 51546, Control_c, 0, 64, 81
1, 51558, Note_on_c, 0, 53, 28
1, 51561, Control_c, 0, 64, 78
1, 51567, Note_off_c, 0, 68, 44
1, 51576, Control_c, 0, 64, 72
1, 51591, Control_c, 0, 64, 64
1, 51606, Control_c, 0, 64, 0
1, 51725, Control_c, 0, 64, 64
1, 51739, Control_c, 0, 64, 71
1, 51754, Control_c, 0, 64, 75
1, 51769, Control_c, 0, 64, 79
1, 51784, Control_c, 0, 64, 80
1, 51798, Control_c, 0, 64, 81
1, 51813, Control_c, 0, 64, 82
1, 51828, Control_c, 0, 64, 83
1, 51850, Control_c, 0, 64, 84
1, 51865, Control_c, 0, 64, 85
1, 51880, Control_c, 0, 64, 85
1, 51940, Note_off_c, 0, 70, 60
1, 51958, Note_off_c, 0, 49, 36
1, 51974, Note_off_c, 0, 61, 38
1, 52000, Note_off_c, 0, 53, 40
1, 52190, Control_c, 0, 64, 85
1, 52250, Control_c, 0, 64, 84
1, 52281, Control_c, 0, 64, 84
1, 52295, Control_c, 0, 64, 83
1, 52310, Control_c, 0, 64, 82
1, 52325, Control_c, 0, 64, 81
1, 52340, Control_c, 0, 64, 80
1, 52355, Control_c, 0, 64, 77
1, 52369, Control_c, 0, 64, 72
1, 52384, Control_c, 0, 64, 65
1, 52399, Control_c, 0, 64, 0
1, 52467, Note_on_c, 0, 59, 21
1, 52473, Note_on_c, 0, 68, 39
1, 52518, Control_c, 0, 64, 61
1, 52533, Control_c, 0, 64, 69
1, 52548, Control_c, 0, 64, 75
1, 52562, Control_c, 0, 64, 79
1, 52572, Note_off_c, 0, 59, 54
1, 52577, Control_c, 0, 64, 80
1, 52599, Control_c, 0, 64, 81
1, 52614, Control_c, 0, 64, 81
1, 52628, Control_c, 0, 64, 82
1, 52643, Control_c, 0, 64, 83
1, 52658, Control_c, 0, 64, 84
1, 52673, Control_c, 0, 64, 85
1, 52688, Control_c, 0, 64, 85
1, 52718, Control_c, 0, 64, 86
1, 52758, Note_on_c, 0, 66, 42
1, 52768, Note_on_c, 0, 42, 12
1, 52792, Control_c, 0, 64, 85
1, 52807, Control_c, 0, 64, 85
1, 52821, Control_c, 0, 64, 84
1, 52836, Control_c, 0, 64, 82
1, 52851, Control_c, 0, 64, 79
1, 52866, Control_c, 0, 64, 75
1, 52881, Control_c, 0, 64, 67
1, 52895, Control_c, 0, 64, 49
1, 52910, Control_c, 0, 64, 0
1, 52934, Note_off_c, 0, 68, 41
1, 53059, Control_c, 0, 64, 61
1, 53074, Control_c, 0, 64, 69
1, 53089, Control_c, 0, 64, 73
1, 53104, Control_c, 0, 64, 77
1, 53118, Control_c, 0, 64, 79
1, 53133, Control_c, 0, 64, 80
1, 53148, Control_c, 0, 64, 81
1, 53162, Note_off_c, 0, 42, 53
1, 53163, Control_c, 0, 64, 83
1, 53178, Control_c, 0, 64, 85
1, 53192, Control_c, 0, 64, 87
1, 53207, Control_c, 0, 64, 89
1, 53222, Control_c, 0, 64, 91
1, 53236, Control_c, 0, 64, 93
1, 53251, Control_c, 0, 64, 95
1, 53266, Control_c, 0, 64, 97
1, 53281, Control_c, 0, 64, 99
1, 53296, Control_c, 0, 64, 101
1, 53311, Control_c, 0, 64, 103
1, 53326, Control_c, 0, 64, 104
1, 53348, Control_c, 0, 64, 105
1, 53363, Control_c, 0, 64, 106
1, 53378, Control_c, 0, 64, 107
1, 53392, Control_c, 0, 64, 107
1, 53407, Control_c, 0, 64, 108
1, 53422, Control_c, 0, 64, 109
1, 53437, Control_c, 0, 64, 109
1, 53451, Control_c, 0, 64, 110
1, 53466, Control_c, 0, 64, 111
1, 53496, Control_c, 0, 64, 111
1, 53511, Control_c, 0, 64, 112
1, 53540, Control_c, 0, 64, 112
1, 53570, Control_c, 0, 64, 113
1, 53630, Control_c, 0, 64, 113
1, 53635, Note_on_c, 0, 61, 18
1, 53640, Note_on_c, 0, 58, 19
1, 53704, Control_c, 0, 64, 114
1, 53808, Control_c, 0, 64, 114
1, 53862, Note_off_c, 0, 58, 39
1, 53883, Control_c, 0, 64, 115
1, 53887, Note_off_c, 0, 61, 40
1, 54393, Control_c, 0, 64, 115
1, 54469, Note_on_c, 0, 54, 27
1, 54470, Note_on_c, 0, 58, 21
1, 54640, Note_off_c, 0, 66, 43
1, 54654, Note_off_c, 0, 58, 38
1, 54661, Note_off_c, 0, 54, 36
1, 55022, Control_c, 0, 64, 115
1, 55186, Control_c, 0, 64, 114
1, 55215, Control_c, 0, 64, 114
1, 55230, Control_c, 0, 64, 113
1, 55245, Control_c, 0, 64, 113
1, 55260, Control_c, 0, 64, 112
1, 55275, Control_c, 0, 64, 111
1, 55289, Control_c, 0, 64, 110
1, 55304, Control_c, 0, 64, 109
1, 55319, Control_c, 0, 64, 108
1, 55333, Control_c, 0, 64, 107
1, 55348, Control_c, 0, 64, 107
1, 55363, Control_c, 0, 64, 106
1, 55378, Control_c, 0, 64, 106
1, 55393, Control_c, 0, 64, 105
1, 55407, Control_c, 0, 64, 104
1, 55422, Control_c, 0, 64, 102
1, 55437, Control_c, 0, 64, 100
1, 55453, Control_c, 0, 64, 98
1, 55468, Control_c, 0, 64, 96
1, 55483, Control_c, 0, 64, 93
1, 55498, Control_c, 0, 64, 90
1, 55512, Control_c, 0, 64, 86
1, 55527, Control_c, 0, 64, 82
1, 55542, Control_c, 0, 64, 77
1, 55550, Note_on_c, 0, 65, 43
1, 55557, Control_c, 0, 64, 71
1, 55572, Control_c, 0, 64, 65
1, 55594, Control_c, 0, 64, 52
1, 55609, Control_c, 0, 64, 0
1, 55816, Control_c, 0, 64, 42
1, 55830, Control_c, 0, 64, 64
1, 55845, Control_c, 0, 64, 71
1, 55860, Control_c, 0, 64, 77
1, 55875, Control_c, 0, 64, 81
1, 55890, Control_c, 0, 64, 83
1, 55904, Control_c, 0, 64, 85
1, 55919, Control_c, 0, 64, 87
1, 55934, Control_c, 0, 64, 89
1, 55949, Control_c, 0, 64, 92
1, 55964, Control_c, 0, 64, 94
1, 55979, Control_c, 0, 64, 96
1, 55994, Control_c, 0, 64, 98
1, 56009, Control_c, 0, 64, 98
1, 56023, Control_c, 0, 64, 99
1, 56038, Control_c, 0, 64, 100
1, 56053, Control_c, 0, 64, 101
1, 56061, Note_on_c, 0, 66, 56
1, 56068, Control_c, 0, 64, 102
1, 56083, Note_off_c, 0, 65, 61
1, 56083, Control_c, 0, 64, 103
1, 56216, Control_c, 0, 64, 102
1, 56230, Control_c, 0, 64, 102
1, 56245, Control_c, 0, 64, 101
1, 56261, Control_c, 0, 64, 98
1, 56262, Note_on_c, 0, 37, 32
1, 56271, Note_on_c, 0, 68, 59
1, 56276, Control_c, 0, 64, 94
1, 56291, Control_c, 0, 64, 89
1, 56306, Control_c, 0, 64, 83
1, 56321, Control_c, 0, 64, 74
1, 56338, Note_off_c, 0, 66, 58
1, 56342, Control_c, 0, 64, 63
1, 56357, Control_c, 0, 64, 0
1, 56476, Control_c, 0, 64, 58
1, 56491, Control_c, 0, 64, 69
1, 56506, Control_c, 0, 64, 78
1, 56521, Control_c, 0, 64, 86
1, 56535, Control_c, 0, 64, 91
1, 56550, Control_c, 0, 64, 94
1, 56551, Note_off_c, 0, 37, 57
1, 56565, Control_c, 0, 64, 96
1, 56579, Control_c, 0, 64, 98
1, 56594, Control_c, 0, 64, 100
1, 56609, Control_c, 0, 64, 102
1, 56624, Control_c, 0, 64, 103
1, 56639, Control_c, 0, 64, 104
1, 56653, Control_c, 0, 64, 105
1, 56668, Control_c, 0, 64, 105
1, 56683, Control_c, 0, 64, 106
1, 56698, Control_c, 0, 64, 107
1, 56713, Control_c, 0, 64, 108
1, 56727, Control_c, 0, 64, 108
1, 56742, Control_c, 0, 64, 109
1, 56757, Control_c, 0, 64, 110
1, 56772, Control_c, 0, 64, 111
1, 56787, Control_c, 0, 64, 111
1, 56801, Control_c, 0, 64, 112
1, 56816, Control_c, 0, 64, 112
1, 56831, Control_c, 0, 64, 113
1, 56846, Control_c, 0, 64, 113
1, 56876, Control_c, 0, 64, 114
1, 56921, Control_c, 0, 64, 114
1, 56959, Note_on_c, 0, 73, 53
1, 56979, Control_c, 0, 64, 115
1, 56981, Note_on_c, 0, 61, 17
1, 56983, Note_on_c, 0, 56, 21
1, 56987, Note_on_c, 0, 65, 16
1, 57039, Control_c, 0, 64, 115
1, 57052, Note_off_c, 0, 68, 59
1, 57091, Control_c, 0, 64, 116
1, 57121, Control_c, 0, 64, 116
1, 57136, Control_c, 0, 64, 117
1, 57165, Control_c, 0, 64, 117
1, 57180, Control_c, 0, 64, 118
1, 57195, Control_c, 0, 64, 118
1, 57199, Note_off_c, 0, 65, 42
1, 57211, Note_off_c, 0, 61, 41
1, 57219, Note_off_c, 0, 56, 40
1, 57225, Control_c, 0, 64, 119
1, 57269, Control_c, 0, 64, 119
1, 57422, Note_on_c, 0, 75, 68
1, 57506, Control_c, 0, 64, 119
1, 57535, Control_c, 0, 64, 118
1, 57550, Control_c, 0, 64, 116
1, 57559, Note_on_c, 0, 56, 33
1, 57565, Control_c, 0, 64, 113
1, 57573, Note_on_c, 0, 53, 37
1, 57573, Note_on_c, 0, 61, 29
1, 57580, Control_c, 0, 64, 109
1, 57594, Note_on_c, 0, 77, 62
1, 57595, Control_c, 0, 64, 104
1, 57609, Control_c, 0, 64, 97
1, 57624, Control_c, 0, 64, 90
1, 57639, Control_c, 0, 64, 82
1, 57654, Control_c, 0, 64, 73
1, 57669, Control_c, 0, 64, 57
1, 57672, Note_off_c, 0, 75, 60
1, 57684, Control_c, 0, 64, 0
1, 57690, Note_off_c, 0, 73, 61
1, 57743, Control_c, 0, 64, 34
1, 57758, Control_c, 0, 64, 65
1, 57773, Control_c, 0, 64, 70
1, 57788, Control_c, 0, 64, 74
1, 57802, Control_c, 0, 64, 78
1, 57817, Control_c, 0, 64, 81
1, 57839, Control_c, 0, 64, 84
1, 57854, Control_c, 0, 64, 87
1, 57870, Control_c, 0, 64, 90
1, 57882, Note_off_c, 0, 53, 52
1, 57885, Control_c, 0, 64, 93
1, 57893, Note_off_c, 0, 77, 61
1, 57900, Control_c, 0, 64, 96
1, 57907, Note_off_c, 0, 61, 41
1, 57914, Control_c, 0, 64, 100
1, 57916, Note_off_c, 0, 56, 42
1, 57929, Control_c, 0, 64, 103
1, 57944, Control_c, 0, 64, 105
1, 57959, Control_c, 0, 64, 108
1, 57974, Control_c, 0, 64, 110
1, 57988, Control_c, 0, 64, 112
1, 58003, Control_c, 0, 64, 115
1, 58018, Control_c, 0, 64, 117
1, 58033, Control_c, 0, 64, 119
1, 58048, Control_c, 0, 64, 121
1, 58062, Control_c, 0, 64, 123
1, 58077, Control_c, 0, 64, 125
1, 58092, Control_c, 0, 64, 126
1, 58107, Control_c, 0, 64, 127
1, 58179, Note_on_c, 0, 77, 69
1, 58189, Note_on_c, 0, 61, 39
1, 58199, Note_on_c, 0, 56, 31
1, 58232, Note_on_c, 0, 65, 12
1, 58372, Note_off_c, 0, 65, 55
1, 58388, Note_off_c, 0, 61, 61
1, 58416, Note_off_c, 0, 56, 53
1, 58483, Note_off_c, 0, 77, 61
1, 58884, Note_on_c, 0, 49, 33
1, 58888, Note_on_c, 0, 77, 52
1, 58915, Control_c, 0, 64, 119
1, 58930, Control_c, 0, 64, 111
1, 58945, Control_c, 0, 64, 103
1, 58960, Control_c, 0, 64, 93
1, 58975, Control_c, 0, 64, 83
1, 58989, Control_c, 0, 64, 70
1, 59004, Control_c, 0, 64, 0
1, 59137, Control_c, 0, 64, 63
1, 59152, Control_c, 0, 64, 70
1, 59167, Control_c, 0, 64, 77
1, 59181, Control_c, 0, 64, 83
1, 59196, Control_c, 0, 64, 87
1, 59211, Control_c, 0, 64, 90
1, 59226, Control_c, 0, 64, 94
1, 59241, Control_c, 0, 64, 97
1, 59255, Control_c, 0, 64, 101
1, 59270, Control_c, 0, 64, 105
1, 59285, Control_c, 0, 64, 109
1, 59300, Control_c, 0, 64, 112
1, 59315, Control_c, 0, 64, 114
1, 59329, Note_off_c, 0, 49, 51
1, 59337, Control_c, 0, 64, 116
1, 59352, Control_c, 0, 64, 117
1, 59367, Control_c, 0, 64, 119
1, 59381, Control_c, 0, 64, 121
1, 59396, Control_c, 0, 64, 123
1, 59411, Control_c, 0, 64, 126
1, 59426, Control_c, 0, 64, 127
1, 59848, Note_on_c, 0, 61, 16
1, 59857, Note_on_c, 0, 57, 20
1, 59897, Poly_aftertouch_c, 0, 66, 127
1, 60050, Note_on_c, 0, 76, 27
1, 60101, Poly_aftertouch_c, 0, 66, 0
1, 60111, Note_off_c, 0, 76, 49
1, 60120, Note_off_c, 0, 77, 28
1, 60142, Note_off_c, 0, 61, 35
1, 60206, Note_on_c, 0, 74, 38
1, 60218, Poly_aftertouch_c, 0, 75, 0
1, 60269, Note_off_c, 0, 74, 50
1, 60284, Note_on_c, 0, 73, 39
1, 60328, Note_off_c, 0, 57, 22
1, 60374, Note_on_c, 0, 72, 38
1, 60378, Note_off_c, 0, 73, 36
1, 60399, Note_off_c, 0, 72, 58
1, 60430, Note_on_c, 0, 71, 52
1, 60493, Note_off_c, 0, 71, 56
1, 60509, Note_on_c, 0, 70, 48
1, 60571, Poly_aftertouch_c, 0, 57, 127
1, 60591, Note_off_c, 0, 70, 55
1, 60591, Control_c, 0, 64, 126
1, 60593, Note_on_c, 0, 61, 25
1, 60605, Note_on_c, 0, 69, 52
1, 60606, Control_c, 0, 64, 121
1, 60608, Note_on_c, 0, 54, 25
1, 60620, Control_c, 0, 64, 116
1, 60635, Control_c, 0, 64, 108
1, 60650, Control_c, 0, 64, 100
1, 60665, Control_c, 0, 64, 91
1, 60680, Control_c, 0, 64, 81
1, 60695, Control_c, 0, 64, 70
1, 60709, Control_c, 0, 64, 53
1, 60724, Control_c, 0, 64, 0
1, 60769, Control_c, 0, 64, 58
1, 60784, Control_c, 0, 64, 67
1, 60799, Control_c, 0, 64, 72
1, 60814, Control_c, 0, 64, 76
1, 60835, Control_c, 0, 64, 79
1, 60850, Control_c, 0, 64, 82
1, 60865, Control_c, 0, 64, 84
1, 60880, Control_c, 0, 64, 86
1, 60895, Control_c, 0, 64, 89
1, 60904, Note_off_c, 0, 54, 40
1, 60909, Control_c, 0, 64, 91
1, 60924, Control_c, 0, 64, 95
1, 60930, Note_off_c, 0, 61, 42
1, 60939, Control_c, 0, 64, 98
1, 60954, Control_c, 0, 64, 100
1, 60969, Control_c, 0, 64, 103
1, 60970, Poly_aftertouch_c, 0, 57, 0
1, 60984, Control_c, 0, 64, 105
1, 60999, Control_c, 0, 64, 107
1, 61013, Control_c, 0, 64, 110
1, 61028, Control_c, 0, 64, 112
1, 61043, Control_c, 0, 64, 115
1, 61058, Control_c, 0, 64, 117
1, 61073, Control_c, 0, 64, 119
1, 61088, Control_c, 0, 64, 121
1, 61103, Control_c, 0, 64, 125
1, 61118, Control_c, 0, 64, 127
1, 61226, Note_on_c, 0, 61, 36
1, 61228, Note_on_c, 0, 57, 38
1, 61229, Note_on_c, 0, 66, 35
1, 61405, Note_off_c, 0, 66, 57
1, 61438, Note_off_c, 0, 61, 62
1, 61445, Note_off_c, 0, 57, 61
1, 61874, Note_on_c, 0, 49, 34
1, 61887, Note_on_c, 0, 37, 29
1, 61896, Control_c, 0, 64, 117
1, 61911, Control_c, 0, 64, 109
1, 61926, Control_c, 0, 64, 102
1, 61941, Control_c, 0, 64, 93
1, 61955, Control_c, 0, 64, 84
1, 61970, Control_c, 0, 64, 72
1, 61985, Control_c, 0, 64, 60
1, 61999, Control_c, 0, 64, 0
1, 62059, Control_c, 0, 64, 59
1, 62073, Control_c, 0, 64, 69
1, 62088, Control_c, 0, 64, 77
1, 62103, Control_c, 0, 64, 84
1, 62108, Note_off_c, 0, 37, 60
1, 62118, Control_c, 0, 64, 90
1, 62133, Control_c, 0, 64, 94
1, 62136, Note_off_c, 0, 49, 56
1, 62147, Control_c, 0, 64, 97
1, 62162, Control_c, 0, 64, 101
1, 62177, Control_c, 0, 64, 105
1, 62191, Control_c, 0, 64, 108
1, 62206, Control_c, 0, 64, 111
1, 62221, Control_c, 0, 64, 113
1, 62236, Control_c, 0, 64, 115
1, 62251, Control_c, 0, 64, 117
1, 62265, Control_c, 0, 64, 121
1, 62280, Control_c, 0, 64, 125
1, 62295, Control_c, 0, 64, 127
1, 62445, Note_on_c, 0, 61, 41
1, 62453, Note_on_c, 0, 73, 58
1, 62456, Note_on_c, 0, 57, 41
1, 62465, Note_on_c, 0, 66, 36
1, 62549, Note_off_c, 0, 69, 61
1, 62730, Note_off_c, 0, 61, 55
1, 62735, Note_off_c, 0, 66, 42
1, 62774, Note_off_c, 0, 57, 32
1, 62825, Note_on_c, 0, 77, 76
1, 63022, Note_on_c, 0, 61, 43
1, 63026, Note_on_c, 0, 78, 77
1, 63030, Note_on_c, 0, 57, 40
1, 63035, Note_on_c, 0, 54, 46
1, 63196, Note_off_c, 0, 73, 62
1, 63203, Note_off_c, 0, 57, 61
1, 63207, Note_off_c, 0, 77, 60
1, 63213, Note_off_c, 0, 54, 61
1, 63229, Note_off_c, 0, 61, 62
1, 63239, Note_off_c, 0, 78, 61
1, 63417, Note_on_c, 0, 78, 87
1, 63687, Note_on_c, 0, 61, 60
1, 63690, Note_on_c, 0, 69, 57
1, 63699, Note_on_c, 0, 57, 62
1, 63801, Note_off_c, 0, 78, 62
1, 63833, Note_off_c, 0, 69, 66
1, 63887, Note_off_c, 0, 57, 63
1, 63890, Note_off_c, 0, 61, 64
1, 64108, Note_on_c, 0, 78, 87
1, 64262, Control_c, 0, 67, 12
1, 64276, Control_c, 0, 67, 20
1, 64291, Control_c, 0, 67, 32
1, 64306, Control_c, 0, 67, 48
1, 64321, Control_c, 0, 67, 62
1, 64336, Control_c, 0, 67, 77
1, 64350, Control_c, 0, 67, 91
1, 64365, Control_c, 0, 67, 104
1, 64380, Control_c, 0, 67, 116
1, 64394, Control_c, 0, 67, 127
1, 64423, Note_off_c, 0, 78, 63
1, 64855, Note_on_c, 0, 78, 45
1, 64862, Control_c, 0, 64, 125
1, 64862, Note_on_c, 0, 48, 24
1, 64876, Control_c, 0, 64, 118
1, 64877, Note_on_c, 0, 36, 31
1, 64891, Control_c, 0, 64, 112
1, 64906, Note_off_c, 0, 78, 0
1, 64906, Note_on_c, 0, 78, 19
1, 64906, Control_c, 0, 64, 106
1, 64921, Control_c, 0, 64, 100
1, 64935, Control_c, 0, 64, 92
1, 64950, Control_c, 0, 64, 84
1, 64965, Control_c, 0, 64, 74
1, 64980, Control_c, 0, 64, 62
1, 64994, Control_c, 0, 64, 0
1, 65114, Control_c, 0, 64, 20
1, 65129, Control_c, 0, 64, 64
1, 65143, Control_c, 0, 64, 70
1, 65158, Control_c, 0, 64, 75
1, 65173, Control_c, 0, 64, 79
1, 65188, Control_c, 0, 64, 83
1, 65203, Control_c, 0, 64, 85
1, 65217, Control_c, 0, 64, 88
1, 65223, Note_off_c, 0, 36, 54
1, 65232, Control_c, 0, 64, 91
1, 65247, Control_c, 0, 64, 94
1, 65262, Control_c, 0, 64, 97
1, 65264, Note_off_c, 0, 48, 54
1, 65277, Control_c, 0, 64, 101
1, 65291, Control_c, 0, 64, 103
1, 65306, Control_c, 0, 64, 105
1, 65329, Control_c, 0, 64, 107
1, 65344, Control_c, 0, 64, 109
1, 65358, Control_c, 0, 64, 111
1, 65373, Control_c, 0, 64, 113
1, 65388, Control_c, 0, 64, 115
1, 65403, Control_c, 0, 64, 116
1, 65418, Control_c, 0, 64, 117
1, 65432, Control_c, 0, 64, 119
1, 65447, Control_c, 0, 64, 120
1, 65462, Control_c, 0, 64, 121
1, 65477, Control_c, 0, 64, 123
1, 65492, Control_c, 0, 64, 124
1, 65506, Control_c, 0, 64, 125
1, 65521, Control_c, 0, 64, 125
1, 65536, Control_c, 0, 64, 126
1, 65550, Control_c, 0, 64, 127
1, 65560, Poly_aftertouch_c, 0, 77, 127
1, 65727, Note_on_c, 0, 57, 32
1, 65735, Note_on_c, 0, 62, 35
1, 65753, Note_on_c, 0, 66, 32
1, 65943, Note_off_c, 0, 78, 27
1, 65977, Poly_aftertouch_c, 0, 77, 0
1, 65987, Note_on_c, 0, 76, 50
1, 66085, Note_off_c, 0, 62, 37
1, 66089, Note_off_c, 0, 76, 63
1, 66119, Note_on_c, 0, 75, 45
1, 66179, Note_off_c, 0, 66, 40
1, 66180, Note_off_c, 0, 57, 29
1, 66181, Note_off_c, 0, 75, 62
1, 66221, Note_on_c, 0, 74, 39
1, 66275, Note_off_c, 0, 74, 54
1, 66308, Note_on_c, 0, 73, 37
1, 66330, Note_on_c, 0, 57, 14
1, 66360, Note_off_c, 0, 73, 53
1, 66363, Note_on_c, 0, 54, 29
1, 66366, Note_on_c, 0, 62, 18
1, 66388, Note_on_c, 0, 72, 36
1, 66416, Note_off_c, 0, 72, 56
1, 66460, Note_on_c, 0, 71, 43
1, 66501, Note_off_c, 0, 71, 60
1, 66527, Note_on_c, 0, 70, 47
1, 66534, Note_off_c, 0, 54, 39
1, 66570, Note_off_c, 0, 62, 39
1, 66645, Note_on_c, 0, 69, 48
1, 66655, Note_off_c, 0, 70, 38
1, 66657, Note_off_c, 0, 57, 31
1, 66744, Control_c, 0, 64, 125
1, 66759, Control_c, 0, 64, 124
1, 66774, Control_c, 0, 64, 122
1, 66788, Control_c, 0, 64, 121
1, 66803, Control_c, 0, 64, 121
1, 66826, Control_c, 0, 64, 120
1, 66841, Control_c, 0, 64, 120
1, 66856, Control_c, 0, 64, 119
1, 66870, Control_c, 0, 64, 119
1, 66885, Control_c, 0, 64, 118
1, 66900, Control_c, 0, 64, 117
1, 66914, Control_c, 0, 64, 115
1, 66929, Control_c, 0, 64, 112
1, 66944, Control_c, 0, 64, 107
1, 66948, Note_on_c, 0, 57, 31
1, 66959, Control_c, 0, 64, 101
1, 66960, Note_on_c, 0, 66, 40
1, 66963, Note_on_c, 0, 62, 39
1, 66974, Control_c, 0, 64, 93
1, 66988, Control_c, 0, 64, 84
1, 67003, Control_c, 0, 64, 74
1, 67018, Control_c, 0, 64, 64
1, 67033, Control_c, 0, 64, 0
1, 67062, Control_c, 0, 64, 49
1, 67077, Control_c, 0, 64, 67
1, 67092, Control_c, 0, 64, 76
1, 67107, Control_c, 0, 64, 85
1, 67121, Control_c, 0, 64, 90
1, 67136, Control_c, 0, 64, 94
1, 67151, Control_c, 0, 64, 96
1, 67156, Note_off_c, 0, 66, 66
1, 67166, Control_c, 0, 64, 99
1, 67175, Note_off_c, 0, 62, 55
1, 67181, Control_c, 0, 64, 102
1, 67196, Note_off_c, 0, 57, 57
1, 67196, Control_c, 0, 64, 106
1, 67211, Control_c, 0, 64, 109
1, 67226, Control_c, 0, 64, 113
1, 67241, Control_c, 0, 64, 117
1, 67256, Control_c, 0, 64, 121
1, 67270, Control_c, 0, 64, 127
1, 67536, Note_on_c, 0, 47, 44
1, 67568, Note_on_c, 0, 35, 47
1, 67574, Control_c, 0, 64, 119
1, 67589, Control_c, 0, 64, 110
1, 67604, Control_c, 0, 64, 100
1, 67619, Control_c, 0, 64, 87
1, 67634, Control_c, 0, 64, 76
1, 67649, Control_c, 0, 64, 64
1, 67664, Control_c, 0, 64, 0
1, 67723, Control_c, 0, 64, 65
1, 67738, Control_c, 0, 64, 75
1, 67752, Control_c, 0, 64, 87
1, 67752, Control_c, 0, 67, 120
1, 67767, Control_c, 0, 64, 96
1, 67767, Control_c, 0, 67, 96
1, 67782, Control_c, 0, 64, 107
1, 67782, Control_c, 0, 67, 67
1, 67797, Control_c, 0, 64, 114
1, 67797, Control_c, 0, 67, 33
1, 67811, Control_c, 0, 64, 120
1, 67811, Control_c, 0, 67, 0
1, 67815, Note_off_c, 0, 35, 54
1, 67826, Control_c, 0, 64, 127
1, 67829, Note_off_c, 0, 47, 55
1, 68163, Note_on_c, 0, 57, 42
1, 68163, Note_on_c, 0, 63, 37
1, 68167, Note_on_c, 0, 66, 34
1, 68168, Note_on_c, 0, 75, 65
1, 68340, Note_off_c, 0, 69, 60
1, 68459, Note_off_c, 0, 57, 51
1, 68466, Note_off_c, 0, 63, 47
1, 68476, Note_off_c, 0, 66, 43
1, 68587, Note_on_c, 0, 77, 82
1, 68777, Note_on_c, 0, 63, 41
1, 68779, Note_on_c, 0, 78, 73
1, 68782, Note_on_c, 0, 57, 39
1, 68790, Note_on_c, 0, 54, 44
1, 68812, Control_c, 0, 64, 122
1, 68826, Control_c, 0, 64, 111
1, 68841, Control_c, 0, 64, 101
1, 68856, Control_c, 0, 64, 90
1, 68871, Control_c, 0, 64, 80
1, 68879, Note_off_c, 0, 75, 62
1, 68885, Control_c, 0, 64, 70
1, 68893, Note_off_c, 0, 77, 54
1, 68900, Control_c, 0, 64, 53
1, 68915, Control_c, 0, 64, 0
1, 68945, Control_c, 0, 64, 47
1, 68959, Control_c, 0, 64, 68
1, 68974, Control_c, 0, 64, 77
1, 68989, Control_c, 0, 64, 86
1, 69004, Control_c, 0, 64, 95
1, 69019, Control_c, 0, 64, 103
1, 69035, Control_c, 0, 64, 111
1, 69050, Control_c, 0, 64, 121
1, 69070, Note_off_c, 0, 57, 62
1, 69071, Control_c, 0, 64, 127
1, 69084, Note_off_c, 0, 54, 54
1, 69092, Note_off_c, 0, 78, 64
1, 69151, Note_off_c, 0, 63, 43
1, 69399, Note_on_c, 0, 69, 51
1, 69404, Note_on_c, 0, 78, 81
1, 69405, Note_on_c, 0, 57, 52
1, 69533, Note_off_c, 0, 69, 67
1, 69613, Note_off_c, 0, 57, 63
1, 69790, Note_off_c, 0, 78, 65
1, 69968, Note_on_c, 0, 78, 87
1, 70097, Note_off_c, 0, 78, 59
1, 70275, Note_on_c, 0, 78, 86
1, 70279, Note_on_c, 0, 46, 56
1, 70285, Note_on_c, 0, 34, 59
1, 70310, Control_c, 0, 64, 110
1, 70325, Control_c, 0, 64, 93
1, 70339, Control_c, 0, 64, 74
1, 70354, Control_c, 0, 64, 0
1, 70402, Poly_aftertouch_c, 0, 81, 0
1, 70443, Control_c, 0, 64, 65
1, 70458, Control_c, 0, 64, 77
1, 70473, Control_c, 0, 64, 91
1, 70487, Control_c, 0, 64, 110
1, 70502, Note_off_c, 0, 34, 66
1, 70502, Control_c, 0, 64, 125
1, 70517, Control_c, 0, 64, 127
1, 70523, Note_off_c, 0, 46, 63
1, 70804, Note_on_c, 0, 53, 52
1, 70874, Note_off_c, 0, 53, 65
1, 70904, Note_on_c, 0, 58, 56
1, 70963, Note_on_c, 0, 62, 69
1, 70967, Note_off_c, 0, 58, 64
1, 71069, Note_on_c, 0, 70, 85
1, 71083, Note_off_c, 0, 62, 61
1, 71118, Note_off_c, 0, 70, 64
1, 71379, Note_on_c, 0, 77, 84
1, 71512, Note_off_c, 0, 78, 54
1, 71695, Note_on_c, 0, 46, 53
1, 71705, Note_on_c, 0, 75, 74
1, 71715, Note_on_c, 0, 34, 54
1, 71719, Control_c, 0, 64, 101
1, 71734, Control_c, 0, 64, 80
1, 71749, Control_c, 0, 64, 63
1, 71764, Control_c, 0, 64, 0
1, 71799, Note_off_c, 0, 77, 60
1, 71808, Control_c, 0, 64, 59
1, 71823, Control_c, 0, 64, 77
1, 71838, Control_c, 0, 64, 94
1, 71846, Note_off_c, 0, 34, 59
1, 71853, Control_c, 0, 64, 120
1, 71867, Note_off_c, 0, 46, 57
1, 71867, Control_c, 0, 64, 127
1, 71945, Note_on_c, 0, 77, 84
1, 72003, Note_off_c, 0, 75, 62
1, 72091, Note_on_c, 0, 53, 54
1, 72102, Note_on_c, 0, 75, 94
1, 72144, Note_off_c, 0, 53, 64
1, 72172, Note_off_c, 0, 77, 58
1, 72179, Note_on_c, 0, 59, 61
1, 72230, Note_on_c, 0, 63, 74
1, 72237, Note_off_c, 0, 59, 64
1, 72325, Note_on_c, 0, 69, 73
1, 72334, Note_on_c, 0, 74, 86
1, 72344, Note_off_c, 0, 63, 64
1, 72368, Note_off_c, 0, 69, 66
1, 72416, Note_off_c, 0, 75, 60
1, 72550, Note_on_c, 0, 75, 96
1, 72608, Note_off_c, 0, 74, 63
1, 72697, Note_on_c, 0, 77, 91
1, 72767, Note_off_c, 0, 75, 61
1, 72880, Note_on_c, 0, 46, 63
1, 72884, Note_on_c, 0, 34, 65
1, 72889, Control_c, 0, 64, 114
1, 72891, Note_on_c, 0, 75, 80
1, 72904, Control_c, 0, 64, 89
1, 72919, Control_c, 0, 64, 66
1, 72934, Control_c, 0, 64, 0
1, 72988, Note_off_c, 0, 77, 60
1, 72994, Control_c, 0, 64, 63
1, 73008, Control_c, 0, 64, 76
1, 73015, Note_off_c, 0, 34, 66
1, 73023, Control_c, 0, 64, 91
1, 73036, Note_off_c, 0, 46, 64
1, 73038, Control_c, 0, 64, 109
1, 73053, Control_c, 0, 64, 127
1, 73271, Note_on_c, 0, 53, 51
1, 73335, Note_off_c, 0, 53, 66
1, 73366, Note_on_c, 0, 62, 66
1, 73471, Note_on_c, 0, 70, 79
1, 73521, Note_off_c, 0, 62, 61
1, 73539, Note_off_c, 0, 70, 63
1, 73754, Note_on_c, 0, 74, 79
1, 74100, Control_c, 0, 64, 113
1, 74111, Note_on_c, 0, 46, 55
1, 74114, Control_c, 0, 64, 91
1, 74119, Note_on_c, 0, 34, 55
1, 74124, Note_on_c, 0, 71, 72
1, 74129, Control_c, 0, 64, 72
1, 74144, Control_c, 0, 64, 0
1, 74186, Note_off_c, 0, 74, 61
1, 74201, Note_off_c, 0, 75, 62
1, 74248, Control_c, 0, 64, 63
1, 74262, Control_c, 0, 64, 74
1, 74277, Control_c, 0, 64, 88
1, 74292, Control_c, 0, 64, 104
1, 74314, Control_c, 0, 64, 127
1, 74342, Note_off_c, 0, 34, 65
1, 74363, Note_off_c, 0, 46, 63
1, 74384, Note_on_c, 0, 73, 78
1, 74433, Note_off_c, 0, 71, 60
1, 74544, Note_on_c, 0, 71, 82
1, 74615, Note_on_c, 0, 51, 64
1, 74696, Note_on_c, 0, 57, 64
1, 74823, Note_on_c, 0, 70, 74
1, 74833, Note_on_c, 0, 66, 76
1, 74857, Note_off_c, 0, 71, 61
1, 74870, Note_off_c, 0, 73, 62
1, 74978, Note_off_c, 0, 51, 63
1, 75009, Note_off_c, 0, 57, 63
1, 75014, Note_off_c, 0, 66, 67
1, 75172, Note_on_c, 0, 71, 83
1, 75325, Note_off_c, 0, 70, 51
1, 75397, Note_on_c, 0, 75, 84
1, 75577, Note_off_c, 0, 71, 46
1, 75582, Note_on_c, 0, 73, 84
1, 75748, Note_on_c, 0, 71, 82
1, 75825, Note_off_c, 0, 75, 63
1, 75852, Note_off_c, 0, 73, 61
1, 75927, Note_off_c, 0, 71, 59
1, 76052, Note_on_c, 0, 34, 53
1, 76060, Note_on_c, 0, 71, 68
1, 76064, Control_c, 0, 64, 117
1, 76078, Control_c, 0, 64, 92
1, 76093, Control_c, 0, 64, 70
1, 76108, Control_c, 0, 64, 0
1, 76121, Poly_aftertouch_c, 0, 73, 127
1, 76159, Poly_aftertouch_c, 0, 73, 0
1, 76167, Control_c, 0, 64, 50
1, 76182, Control_c, 0, 64, 70
1, 76194, Note_off_c, 0, 34, 66
1, 76197, Control_c, 0, 64, 82
1, 76211, Control_c, 0, 64, 94
1, 76227, Control_c, 0, 64, 106
1, 76242, Control_c, 0, 64, 113
1, 76256, Control_c, 0, 64, 115
1, 76271, Control_c, 0, 64, 117
1, 76286, Control_c, 0, 64, 119
1, 76300, Control_c, 0, 64, 123
1, 76315, Control_c, 0, 64, 127
1, 76413, Note_on_c, 0, 50, 45
1, 76632, Note_on_c, 0, 58, 46
1, 76745, Note_off_c, 0, 50, 39
1, 76883, Note_on_c, 0, 70, 61
1, 76905, Note_on_c, 0, 53, 27
1, 77119, Note_off_c, 0, 71, 55
1, 77168, Note_on_c, 0, 62, 58
1, 77231, Note_off_c, 0, 58, 33
1, 77481, Note_on_c, 0, 58, 53
1, 77586, Note_off_c, 0, 53, 41
1, 77663, Note_off_c, 0, 62, 53
1, 77927, Note_on_c, 0, 65, 58
1, 77944, Note_off_c, 0, 58, 59
1, 78114, Note_off_c, 0, 70, 63
1, 78334, Note_on_c, 0, 70, 47
1, 78485, Note_off_c, 0, 70, 64
1, 78600, Note_on_c, 0, 70, 69
1, 78756, Note_off_c, 0, 70, 64
1, 78901, Note_on_c, 0, 70, 71
1, 79067, Note_off_c, 0, 70, 65
1, 79316, Note_on_c, 0, 70, 72
1, 79480, Note_off_c, 0, 65, 65
1, 79537, Note_off_c, 0, 70, 65
1, 79929, Note_on_c, 0, 71, 64
1, 80207, Control_c, 0, 67, 8
1, 80222, Control_c, 0, 67, 13
1, 80237, Control_c, 0, 67, 21
1, 80252, Control_c, 0, 67, 29
1, 80267, Control_c, 0, 67, 36
1, 80282, Control_c, 0, 67, 44
1, 80304, Control_c, 0, 67, 53
1, 80319, Control_c, 0, 67, 62
1, 80334, Control_c, 0, 67, 70
1, 80348, Control_c, 0, 67, 77
1, 80354, Note_off_c, 0, 71, 54
1, 80363, Control_c, 0, 67, 85
1, 80378, Control_c, 0, 67, 94
1, 80393, Control_c, 0, 67, 105
1, 80408, Control_c, 0, 67, 116
1, 80422, Control_c, 0, 67, 126
1, 80437, Control_c, 0, 67, 127
1, 80941, Control_c, 0, 64, 116
1, 80952, Note_on_c, 0, 77, 50
1, 80956, Note_on_c, 0, 37, 34
1, 80956, Control_c, 0, 64, 105
1, 80962, Note_on_c, 0, 65, 33
1, 80971, Control_c, 0, 64, 95
1, 80986, Control_c, 0, 64, 84
1, 81000, Control_c, 0, 64, 72
1, 81016, Control_c, 0, 64, 37
1, 81031, Control_c, 0, 64, 0
1, 81142, Control_c, 0, 64, 57
1, 81157, Control_c, 0, 64, 68
1, 81171, Control_c, 0, 64, 75
1, 81186, Control_c, 0, 64, 81
1, 81201, Control_c, 0, 64, 86
1, 81216, Control_c, 0, 64, 90
1, 81231, Control_c, 0, 64, 94
1, 81236, Note_off_c, 0, 37, 55
1, 81245, Control_c, 0, 64, 98
1, 81260, Control_c, 0, 64, 103
1, 81275, Control_c, 0, 64, 106
1, 81290, Control_c, 0, 64, 109
1, 81305, Control_c, 0, 64, 113
1, 81319, Control_c, 0, 64, 116
1, 81334, Control_c, 0, 64, 119
1, 81349, Control_c, 0, 64, 123
1, 81364, Control_c, 0, 64, 127
1, 81379, Control_c, 0, 64, 127
1, 81424, Note_on_c, 0, 68, 33
1, 81439, Note_off_c, 0, 77, 32
1, 81445, Note_off_c, 0, 65, 42
1, 81517, Note_on_c, 0, 71, 42
1, 81559, Note_off_c, 0, 68, 36
1, 81609, Note_on_c, 0, 56, 25
1, 81616, Note_on_c, 0, 49, 23
1, 81637, Note_off_c, 0, 71, 51
1, 81647, Note_on_c, 0, 59, 21
1, 81668, Note_on_c, 0, 63, 29
1, 81709, Note_off_c, 0, 63, 50
1, 81753, Note_on_c, 0, 68, 13
1, 81781, Note_off_c, 0, 59, 40
1, 81793, Note_off_c, 0, 56, 54
1, 81800, Note_on_c, 0, 75, 54
1, 81814, Note_off_c, 0, 68, 44
1, 81821, Note_off_c, 0, 49, 49
1, 81909, Note_on_c, 0, 73, 52
1, 81927, Note_on_c, 0, 68, 28
1, 81977, Note_off_c, 0, 68, 0
1, 81977, Note_on_c, 0, 68, 5
1, 82077, Note_off_c, 0, 75, 26
1, 82089, Note_on_c, 0, 71, 51
1, 82108, Note_on_c, 0, 44, 35
1, 82151, Note_off_c, 0, 73, 28
1, 82155, Note_off_c, 0, 71, 59
1, 82183, Note_on_c, 0, 63, 54
1, 82187, Note_off_c, 0, 44, 60
1, 82243, Note_off_c, 0, 68, 42
1, 82274, Note_on_c, 0, 75, 56
1, 82276, Note_off_c, 0, 63, 61
1, 82320, Control_c, 0, 64, 127
1, 82335, Control_c, 0, 64, 111
1, 82350, Control_c, 0, 64, 96
1, 82365, Control_c, 0, 64, 81
1, 82380, Control_c, 0, 64, 65
1, 82393, Note_on_c, 0, 77, 61
1, 82394, Control_c, 0, 64, 0
1, 82411, Note_on_c, 0, 37, 40
1, 82419, Note_on_c, 0, 65, 42
1, 82483, Control_c, 0, 64, 63
1, 82496, Note_off_c, 0, 75, 32
1, 82498, Control_c, 0, 64, 71
1, 82512, Note_off_c, 0, 37, 62
1, 82512, Control_c, 0, 64, 80
1, 82527, Control_c, 0, 64, 87
1, 82550, Control_c, 0, 64, 93
1, 82565, Control_c, 0, 64, 97
1, 82571, Note_off_c, 0, 65, 56
1, 82580, Control_c, 0, 64, 101
1, 82594, Control_c, 0, 64, 105
1, 82609, Note_off_c, 0, 77, 58
1, 82609, Control_c, 0, 64, 109
1, 82625, Control_c, 0, 64, 112
1, 82640, Control_c, 0, 64, 116
1, 82647, Note_on_c, 0, 73, 50
1, 82655, Control_c, 0, 64, 119
1, 82664, Poly_aftertouch_c, 0, 71, 127
1, 82670, Control_c, 0, 64, 122
1, 82685, Control_c, 0, 64, 125
1, 82699, Control_c, 0, 64, 127
1, 82710, Poly_aftertouch_c, 0, 71, 0
1, 82712, Note_off_c, 0, 73, 63
1, 82726, Note_on_c, 0, 56, 37
1, 82732, Note_on_c, 0, 49, 33
1, 82743, Note_on_c, 0, 66, 61
1, 82795, Poly_aftertouch_c, 0, 59, 127
1, 82801, Note_off_c, 0, 66, 59
1, 82825, Note_on_c, 0, 78, 61
1, 82834, Poly_aftertouch_c, 0, 59, 0
1, 82856, Note_off_c, 0, 56, 55
1, 82875, Note_off_c, 0, 49, 52
1, 82933, Note_off_c, 0, 78, 59
1, 82934, Note_on_c, 0, 80, 73
1, 82965, Note_on_c, 0, 68, 27
1, 83067, Note_off_c, 0, 68, 48
1, 83110, Note_on_c, 0, 71, 43
1, 83144, Note_on_c, 0, 44, 39
1, 83161, Note_off_c, 0, 80, 39
1, 83168, Note_off_c, 0, 71, 59
1, 83191, Note_on_c, 0, 73, 51
1, 83214, Note_off_c, 0, 44, 59
1, 83232, Note_off_c, 0, 73, 64
1, 83275, Note_on_c, 0, 70, 52
1, 83330, Note_off_c, 0, 70, 54
1, 83372, Note_on_c, 0, 82, 47
1, 83406, Note_off_c, 0, 82, 50
1, 83478, Control_c, 0, 64, 123
1, 83492, Control_c, 0, 64, 107
1, 83499, Note_on_c, 0, 37, 42
1, 83502, Note_on_c, 0, 80, 69
1, 83507, Control_c, 0, 64, 92
1, 83522, Control_c, 0, 64, 79
1, 83537, Control_c, 0, 64, 65
1, 83540, Note_on_c, 0, 68, 47
1, 83552, Control_c, 0, 64, 0
1, 83611, Control_c, 0, 64, 63
1, 83626, Control_c, 0, 64, 73
1, 83630, Note_off_c, 0, 37, 61
1, 83640, Control_c, 0, 64, 82
1, 83655, Control_c, 0, 64, 89
1, 83670, Control_c, 0, 64, 93
1, 83684, Control_c, 0, 64, 95
1, 83699, Control_c, 0, 64, 97
1, 83706, Note_off_c, 0, 68, 57
1, 83714, Control_c, 0, 64, 99
1, 83722, Note_on_c, 0, 71, 42
1, 83729, Control_c, 0, 64, 101
1, 83744, Control_c, 0, 64, 103
1, 83758, Control_c, 0, 64, 105
1, 83773, Control_c, 0, 64, 106
1, 83788, Control_c, 0, 64, 106
1, 83796, Note_off_c, 0, 80, 37
1, 83803, Control_c, 0, 64, 107
1, 83817, Note_on_c, 0, 73, 52
1, 83818, Control_c, 0, 64, 107
1, 83832, Control_c, 0, 64, 108
1, 83847, Control_c, 0, 64, 109
1, 83855, Note_on_c, 0, 49, 36
1, 83859, Note_on_c, 0, 56, 41
1, 83862, Control_c, 0, 64, 110
1, 83865, Note_off_c, 0, 71, 34
1, 83874, Note_on_c, 0, 65, 53
1, 83941, Note_off_c, 0, 73, 55
1, 83956, Note_off_c, 0, 65, 37
1, 83964, Note_on_c, 0, 77, 65
1, 83981, Control_c, 0, 64, 109
1, 83996, Control_c, 0, 64, 106
1, 84010, Control_c, 0, 64, 100
1, 84025, Control_c, 0, 64, 89
1, 84032, Note_on_c, 0, 57, 45
1, 84047, Control_c, 0, 64, 76
1, 84062, Control_c, 0, 64, 59
1, 84077, Note_on_c, 0, 78, 66
1, 84077, Control_c, 0, 64, 0
1, 84079, Note_off_c, 0, 77, 56
1, 84085, Note_on_c, 0, 60, 31
1, 84092, Note_on_c, 0, 66, 21
1, 84127, Note_off_c, 0, 60, 63
1, 84136, Control_c, 0, 64, 62
1, 84151, Control_c, 0, 64, 70
1, 84161, Note_off_c, 0, 57, 63
1, 84166, Control_c, 0, 64, 77
1, 84171, Note_off_c, 0, 56, 49
1, 84181, Control_c, 0, 64, 82
1, 84196, Note_off_c, 0, 49, 53
1, 84196, Control_c, 0, 64, 84
1, 84211, Control_c, 0, 64, 85
1, 84226, Control_c, 0, 64, 86
1, 84241, Control_c, 0, 64, 88
1, 84252, Note_on_c, 0, 69, 53
1, 84256, Note_off_c, 0, 66, 42
1, 84256, Control_c, 0, 64, 90
1, 84271, Control_c, 0, 64, 93
1, 84285, Control_c, 0, 64, 96
1, 84300, Control_c, 0, 64, 98
1, 84315, Control_c, 0, 64, 99
1, 84330, Control_c, 0, 64, 101
1, 84345, Control_c, 0, 64, 102
1, 84356, Note_on_c, 0, 72, 48
1, 84360, Control_c, 0, 64, 104
1, 84375, Control_c, 0, 64, 105
1, 84377, Note_off_c, 0, 78, 36
1, 84384, Note_on_c, 0, 37, 36
1, 84389, Control_c, 0, 64, 107
1, 84404, Control_c, 0, 64, 109
1, 84419, Control_c, 0, 64, 112
1, 84434, Control_c, 0, 64, 115
1, 84448, Control_c, 0, 64, 117
1, 84456, Note_off_c, 0, 37, 62
1, 84463, Control_c, 0, 64, 118
1, 84478, Control_c, 0, 64, 118
1, 84486, Note_on_c, 0, 63, 44
1, 84493, Control_c, 0, 64, 119
1, 84497, Note_off_c, 0, 72, 54
1, 84507, Control_c, 0, 64, 120
1, 84566, Note_off_c, 0, 69, 19
1, 84569, Note_off_c, 0, 63, 58
1, 84581, Note_on_c, 0, 75, 53
1, 84700, Control_c, 0, 64, 119
1, 84715, Control_c, 0, 64, 118
1, 84730, Control_c, 0, 64, 116
1, 84744, Control_c, 0, 64, 111
1, 84756, Note_on_c, 0, 56, 37
1, 84759, Control_c, 0, 64, 105
1, 84767, Note_on_c, 0, 77, 58
1, 84769, Note_on_c, 0, 49, 40
1, 84774, Control_c, 0, 64, 98
1, 84789, Note_on_c, 0, 61, 32
1, 84795, Note_on_c, 0, 65, 31
1, 84796, Control_c, 0, 64, 88
1, 84811, Control_c, 0, 64, 76
1, 84826, Control_c, 0, 64, 59
1, 84840, Control_c, 0, 64, 0
1, 84847, Note_off_c, 0, 75, 39
1, 84944, Control_c, 0, 64, 53
1, 84959, Control_c, 0, 64, 66
1, 84966, Note_on_c, 0, 68, 45
1, 84974, Control_c, 0, 64, 72
1, 84989, Control_c, 0, 64, 77
1, 85004, Control_c, 0, 64, 80
1, 85016, Note_off_c, 0, 56, 39
1, 85019, Control_c, 0, 64, 82
1, 85034, Control_c, 0, 64, 84
1, 85049, Control_c, 0, 64, 86
1, 85063, Control_c, 0, 64, 88
1, 85076, Note_on_c, 0, 73, 46
1, 85078, Control_c, 0, 64, 90
1, 85093, Control_c, 0, 64, 93
1, 85096, Note_off_c, 0, 68, 34
1, 85108, Control_c, 0, 64, 95
1, 85123, Control_c, 0, 64, 96
1, 85126, Note_on_c, 0, 57, 43
1, 85138, Control_c, 0, 64, 99
1, 85153, Control_c, 0, 64, 100
1, 85168, Control_c, 0, 64, 102
1, 85179, Note_off_c, 0, 73, 52
1, 85183, Note_on_c, 0, 69, 48
1, 85183, Control_c, 0, 64, 103
1, 85198, Control_c, 0, 64, 103
1, 85212, Control_c, 0, 64, 104
1, 85227, Control_c, 0, 64, 106
1, 85242, Control_c, 0, 64, 107
1, 85245, Note_off_c, 0, 69, 64
1, 85257, Control_c, 0, 64, 108
1, 85271, Control_c, 0, 64, 108
1, 85284, Note_on_c, 0, 73, 56
1, 85286, Control_c, 0, 64, 109
1, 85297, Note_off_c, 0, 61, 41
1, 85301, Control_c, 0, 64, 109
1, 85314, Note_off_c, 0, 65, 39
1, 85316, Control_c, 0, 64, 110
1, 85331, Control_c, 0, 64, 111
1, 85345, Control_c, 0, 64, 112
1, 85350, Note_on_c, 0, 56, 49
1, 85360, Control_c, 0, 64, 113
1, 85375, Control_c, 0, 64, 113
1, 85377, Note_off_c, 0, 73, 56
1, 85383, Note_on_c, 0, 68, 52
1, 85403, Note_off_c, 0, 57, 61
1, 85405, Control_c, 0, 64, 114
1, 85419, Control_c, 0, 64, 115
1, 85433, Note_off_c, 0, 56, 62
1, 85449, Note_off_c, 0, 49, 51
1, 85449, Note_off_c, 0, 68, 63
1, 85449, Control_c, 0, 64, 115
1, 85466, Note_on_c, 0, 65, 43
1, 85478, Control_c, 0, 64, 116
1, 85508, Control_c, 0, 64, 117
1, 85560, Control_c, 0, 64, 117
1, 85574, Note_on_c, 0, 73, 54
1, 85590, Control_c, 0, 64, 118
1, 85596, Note_off_c, 0, 77, 29
1, 85619, Control_c, 0, 64, 118
1, 85625, Note_on_c, 0, 44, 17
1, 85643, Note_off_c, 0, 65, 53
1, 85651, Note_off_c, 0, 73, 62
1, 85684, Note_on_c, 0, 68, 45
1, 85710, Note_off_c, 0, 44, 57
1, 85781, Note_off_c, 0, 68, 55
1, 85782, Note_on_c, 0, 73, 57
1, 85782, Control_c, 0, 64, 118
1, 85813, Control_c, 0, 64, 117
1, 85828, Control_c, 0, 64, 116
1, 85842, Control_c, 0, 64, 114
1, 85857, Control_c, 0, 64, 112
1, 85872, Control_c, 0, 64, 108
1, 85886, Control_c, 0, 64, 103
1, 85901, Control_c, 0, 64, 94
1, 85916, Control_c, 0, 64, 85
1, 85922, Note_on_c, 0, 37, 34
1, 85931, Control_c, 0, 64, 74
1, 85938, Note_on_c, 0, 77, 63
1, 85946, Control_c, 0, 64, 55
1, 85951, Note_on_c, 0, 65, 30
1, 85961, Control_c, 0, 64, 0
1, 86065, Control_c, 0, 64, 62
1, 86080, Control_c, 0, 64, 74
1, 86090, Note_off_c, 0, 73, 0
1, 86094, Control_c, 0, 64, 84
1, 86101, Note_off_c, 0, 37, 59
1, 86109, Control_c, 0, 64, 91
1, 86114, Note_off_c, 0, 65, 56
1, 86124, Control_c, 0, 64, 95
1, 86128, Poly_aftertouch_c, 0, 73, 127
1, 86138, Note_on_c, 0, 68, 42
1, 86139, Control_c, 0, 64, 97
1, 86145, Note_off_c, 0, 77, 56
1, 86154, Control_c, 0, 64, 98
1, 86168, Control_c, 0, 64, 100
1, 86183, Control_c, 0, 64, 103
1, 86198, Control_c, 0, 64, 106
1, 86206, Poly_aftertouch_c, 0, 73, 0
1, 86213, Control_c, 0, 64, 109
1, 86227, Note_off_c, 0, 68, 57
1, 86228, Control_c, 0, 64, 111
1, 86232, Note_on_c, 0, 71, 50
1, 86243, Control_c, 0, 64, 113
1, 86258, Control_c, 0, 64, 116
1, 86273, Control_c, 0, 64, 120
1, 86295, Control_c, 0, 64, 123
1, 86307, Note_on_c, 0, 63, 49
1, 86309, Control_c, 0, 64, 126
1, 86324, Control_c, 0, 64, 127
1, 86335, Note_on_c, 0, 49, 32
1, 86336, Note_on_c, 0, 56, 44
1, 86362, Note_off_c, 0, 63, 59
1, 86364, Note_off_c, 0, 71, 55
1, 86406, Note_on_c, 0, 75, 58
1, 86420, Poly_aftertouch_c, 0, 59, 127
1, 86456, Poly_aftertouch_c, 0, 59, 0
1, 86478, Note_off_c, 0, 56, 56
1, 86484, Note_on_c, 0, 68, 40
1, 86497, Note_off_c, 0, 49, 54
1, 86536, Note_on_c, 0, 73, 64
1, 86590, Note_off_c, 0, 68, 0
1, 86628, Poly_aftertouch_c, 0, 68, 127
1, 86634, Note_on_c, 0, 68, 29
1, 86691, Note_off_c, 0, 75, 53
1, 86697, Note_on_c, 0, 71, 53
1, 86730, Note_on_c, 0, 44, 49
1, 86739, Note_off_c, 0, 73, 36
1, 86744, Note_off_c, 0, 71, 56
1, 86755, Note_on_c, 0, 63, 42
1, 86789, Note_off_c, 0, 44, 63
1, 86851, Note_on_c, 0, 75, 66
1, 86859, Note_off_c, 0, 63, 53
1, 86866, Note_off_c, 0, 68, 51
1, 86918, Control_c, 0, 64, 125
1, 86932, Control_c, 0, 64, 112
1, 86947, Control_c, 0, 64, 98
1, 86962, Control_c, 0, 64, 84
1, 86974, Note_on_c, 0, 77, 76
1, 86977, Control_c, 0, 64, 68
1, 86982, Note_on_c, 0, 37, 51
1, 86992, Control_c, 0, 64, 0
1, 86992, Note_on_c, 0, 65, 55
1, 87028, Note_off_c, 0, 75, 57
1, 87073, Control_c, 0, 64, 66
1, 87088, Control_c, 0, 64, 75
1, 87093, Note_off_c, 0, 37, 65
1, 87103, Control_c, 0, 64, 84
1, 87117, Control_c, 0, 64, 90
1, 87130, Note_off_c, 0, 65, 62
1, 87132, Control_c, 0, 64, 94
1, 87147, Control_c, 0, 64, 96
1, 87162, Control_c, 0, 64, 97
1, 87177, Control_c, 0, 64, 98
1, 87183, Note_on_c, 0, 71, 49
1, 87191, Note_off_c, 0, 77, 59
1, 87192, Control_c, 0, 64, 100
1, 87207, Control_c, 0, 64, 102
1, 87222, Control_c, 0, 64, 104
1, 87223, Note_on_c, 0, 73, 57
1, 87234, Note_off_c, 0, 71, 54
1, 87237, Control_c, 0, 64, 107
1, 87247, Note_on_c, 0, 56, 35
1, 87251, Control_c, 0, 64, 109
1, 87252, Note_on_c, 0, 49, 45
1, 87266, Control_c, 0, 64, 112
1, 87269, Note_off_c, 0, 73, 59
1, 87281, Control_c, 0, 64, 114
1, 87292, Note_on_c, 0, 59, 30
1, 87296, Control_c, 0, 64, 117
1, 87311, Note_on_c, 0, 66, 63
1, 87311, Control_c, 0, 64, 119
1, 87326, Control_c, 0, 64, 121
1, 87341, Control_c, 0, 64, 123
1, 87356, Control_c, 0, 64, 125
1, 87363, Note_off_c, 0, 66, 62
1, 87371, Control_c, 0, 64, 127
1, 87383, Note_on_c, 0, 78, 68
1, 87402, Note_off_c, 0, 59, 49
1, 87426, Note_off_c, 0, 56, 55
1, 87442, Note_off_c, 0, 49, 53
1, 87480, Note_on_c, 0, 80, 81
1, 87501, Note_on_c, 0, 68, 62
1, 87517, Note_off_c, 0, 78, 58
1, 87606, Note_off_c, 0, 68, 55
1, 87633, Note_on_c, 0, 71, 58
1, 87683, Note_on_c, 0, 44, 47
1, 87705, Note_on_c, 0, 73, 64
1, 87708, Note_off_c, 0, 80, 55
1, 87713, Note_off_c, 0, 71, 61
1, 87746, Note_off_c, 0, 44, 63
1, 87794, Note_off_c, 0, 73, 64
1, 87813, Note_on_c, 0, 70, 62
1, 87902, Note_on_c, 0, 82, 72
1, 87924, Note_off_c, 0, 70, 58
1, 87953, Note_off_c, 0, 82, 61
1, 88001, Control_c, 0, 64, 116
1, 88015, Control_c, 0, 64, 105
1, 88030, Control_c, 0, 64, 91
1, 88037, Note_on_c, 0, 37, 48
1, 88042, Note_on_c, 0, 80, 68
1, 88045, Control_c, 0, 64, 75
1, 88056, Note_on_c, 0, 68, 63
1, 88059, Control_c, 0, 64, 0
1, 88134, Control_c, 0, 64, 61
1, 88149, Control_c, 0, 64, 70
1, 88164, Control_c, 0, 64, 77
1, 88172, Note_off_c, 0, 37, 66
1, 88178, Control_c, 0, 64, 83
1, 88193, Control_c, 0, 64, 87
1, 88209, Control_c, 0, 64, 88
1, 88224, Control_c, 0, 64, 89
1, 88235, Note_on_c, 0, 71, 46
1, 88238, Control_c, 0, 64, 90
1, 88253, Control_c, 0, 64, 91
1, 88268, Control_c, 0, 64, 93
1, 88269, Note_off_c, 0, 68, 56
1, 88283, Control_c, 0, 64, 94
1, 88298, Control_c, 0, 64, 95
1, 88313, Control_c, 0, 64, 96
1, 88328, Control_c, 0, 64, 96
1, 88333, Note_off_c, 0, 71, 59
1, 88336, Note_on_c, 0, 73, 58
1, 88339, Note_off_c, 0, 80, 39
1, 88342, Control_c, 0, 64, 97
1, 88357, Control_c, 0, 64, 97
1, 88372, Control_c, 0, 64, 98
1, 88376, Note_on_c, 0, 59, 34
1, 88390, Note_on_c, 0, 56, 40
1, 88402, Control_c, 0, 64, 98
1, 88405, Note_on_c, 0, 49, 45
1, 88414, Note_on_c, 0, 65, 41
1, 88437, Note_off_c, 0, 59, 43
1, 88463, Note_off_c, 0, 65, 48
1, 88483, Note_on_c, 0, 77, 52
1, 88520, Control_c, 0, 64, 98
1, 88526, Note_off_c, 0, 73, 26
1, 88542, Control_c, 0, 64, 95
1, 88544, Note_off_c, 0, 77, 0
1, 88544, Note_on_c, 0, 77, 24
1, 88557, Control_c, 0, 64, 88
1, 88572, Control_c, 0, 64, 76
1, 88584, Note_on_c, 0, 57, 37
1, 88587, Note_off_c, 0, 77, 56
1, 88587, Control_c, 0, 64, 46
1, 88589, Note_on_c, 0, 66, 49
1, 88590, Note_on_c, 0, 78, 63
1, 88602, Control_c, 0, 64, 0
1, 88619, Note_on_c, 0, 60, 38
1, 88661, Control_c, 0, 64, 63
1, 88676, Control_c, 0, 64, 72
1, 88690, Control_c, 0, 64, 80
1, 88691, Note_off_c, 0, 60, 63
1, 88705, Control_c, 0, 64, 84
1, 88706, Note_off_c, 0, 57, 62
1, 88707, Note_off_c, 0, 56, 55
1, 88720, Control_c, 0, 64, 87
1, 88734, Note_off_c, 0, 49, 62
1, 88735, Control_c, 0, 64, 88
1, 88742, Note_off_c, 0, 66, 59
1, 88750, Control_c, 0, 64, 89
1, 88764, Control_c, 0, 64, 90
1, 88774, Note_on_c, 0, 69, 46
1, 88779, Control_c, 0, 64, 92
1, 88794, Control_c, 0, 64, 94
1, 88808, Control_c, 0, 64, 95
1, 88823, Control_c, 0, 64, 97
1, 88838, Control_c, 0, 64, 98
1, 88853, Control_c, 0, 64, 99
1, 88861, Note_on_c, 0, 72, 50
1, 88868, Control_c, 0, 64, 101
1, 88882, Control_c, 0, 64, 103
1, 88888, Note_off_c, 0, 78, 36
1, 88897, Control_c, 0, 64, 105
1, 88912, Control_c, 0, 64, 106
1, 88927, Control_c, 0, 64, 107
1, 88942, Control_c, 0, 64, 108
1, 88956, Poly_aftertouch_c, 0, 37, 127
1, 88956, Control_c, 0, 64, 110
1, 88971, Control_c, 0, 64, 111
1, 88986, Note_on_c, 0, 63, 40
1, 88986, Control_c, 0, 64, 112
1, 89001, Control_c, 0, 64, 113
1, 89017, Control_c, 0, 64, 114
1, 89032, Control_c, 0, 64, 114
1, 89043, Poly_aftertouch_c, 0, 37, 0
1, 89047, Control_c, 0, 64, 115
1, 89055, Note_off_c, 0, 63, 60
1, 89061, Control_c, 0, 64, 116
1, 89074, Note_on_c, 0, 75, 60
1, 89091, Control_c, 0, 64, 117
1, 89145, Note_off_c, 0, 69, 35
1, 89225, Control_c, 0, 64, 115
1, 89239, Control_c, 0, 64, 110
1, 89241, Note_off_c, 0, 72, 15
1, 89243, Note_on_c, 0, 77, 67
1, 89254, Control_c, 0, 64, 104
1, 89268, Note_on_c, 0, 65, 39
1, 89269, Control_c, 0, 64, 95
1, 89274, Note_on_c, 0, 61, 40
1, 89275, Note_on_c, 0, 56, 39
1, 89291, Control_c, 0, 64, 85
1, 89293, Note_off_c, 0, 75, 58
1, 89298, Note_on_c, 0, 49, 42
1, 89305, Control_c, 0, 64, 74
1, 89320, Control_c, 0, 64, 59
1, 89335, Control_c, 0, 64, 0
1, 89358, Note_off_c, 0, 61, 61
1, 89395, Control_c, 0, 64, 64
1, 89407, Note_off_c, 0, 56, 59
1, 89410, Control_c, 0, 64, 73
1, 89419, Note_off_c, 0, 49, 63
1, 89424, Control_c, 0, 64, 81
1, 89436, Note_on_c, 0, 68, 66
1, 89439, Control_c, 0, 64, 88
1, 89442, Note_off_c, 0, 65, 56
1, 89454, Control_c, 0, 64, 91
1, 89469, Control_c, 0, 64, 93
1, 89484, Control_c, 0, 64, 95
1, 89499, Control_c, 0, 64, 97
1, 89505, Note_off_c, 0, 77, 37
1, 89513, Control_c, 0, 64, 98
1, 89528, Control_c, 0, 64, 99
1, 89543, Control_c, 0, 64, 101
1, 89547, Note_on_c, 0, 73, 64
1, 89558, Control_c, 0, 64, 102
1, 89573, Note_on_c, 0, 37, 53
1, 89573, Control_c, 0, 64, 103
1, 89587, Control_c, 0, 64, 105
1, 89602, Control_c, 0, 64, 106
1, 89617, Control_c, 0, 64, 108
1, 89631, Control_c, 0, 64, 110
1, 89639, Note_off_c, 0, 37, 64
1, 89642, Note_on_c, 0, 65, 60
1, 89646, Control_c, 0, 64, 113
1, 89661, Control_c, 0, 64, 117
1, 89676, Control_c, 0, 64, 122
1, 89692, Control_c, 0, 64, 126
1, 89705, Note_on_c, 0, 77, 81
1, 89706, Note_off_c, 0, 73, 62
1, 89706, Control_c, 0, 64, 127
1, 89721, Note_off_c, 0, 68, 63
1, 89726, Note_off_c, 0, 65, 65
1, 89756, Note_off_c, 0, 77, 62
1, 89841, Control_c, 0, 64, 121
1, 89848, Note_on_c, 0, 58, 55
1, 89852, Note_on_c, 0, 79, 82
1, 89855, Control_c, 0, 64, 111
1, 89864, Note_on_c, 0, 64, 59
1, 89870, Control_c, 0, 64, 99
1, 89871, Note_on_c, 0, 67, 64
1, 89872, Note_on_c, 0, 55, 65
1, 89885, Control_c, 0, 64, 85
1, 89900, Control_c, 0, 64, 68
1, 89915, Control_c, 0, 64, 0
1, 89968, Note_off_c, 0, 64, 65
1, 89974, Control_c, 0, 64, 64
1, 89989, Control_c, 0, 64, 73
1, 90003, Control_c, 0, 64, 83
1, 90014, Note_off_c, 0, 58, 64
1, 90016, Note_off_c, 0, 55, 66
1, 90018, Control_c, 0, 64, 89
1, 90033, Note_on_c, 0, 70, 72
1, 90041, Control_c, 0, 64, 93
1, 90056, Control_c, 0, 64, 95
1, 90065, Note_off_c, 0, 67, 60
1, 90070, Control_c, 0, 64, 97
1, 90074, Note_off_c, 0, 79, 60
1, 90085, Control_c, 0, 64, 100
1, 90100, Control_c, 0, 64, 103
1, 90115, Control_c, 0, 64, 107
1, 90130, Control_c, 0, 64, 110
1, 90144, Control_c, 0, 64, 113
1, 90149, Note_on_c, 0, 76, 69
1, 90159, Control_c, 0, 64, 115
1, 90174, Control_c, 0, 64, 117
1, 90189, Control_c, 0, 64, 119
1, 90204, Control_c, 0, 64, 122
1, 90218, Control_c, 0, 64, 126
1, 90223, Note_on_c, 0, 37, 48
1, 90233, Control_c, 0, 64, 127
1, 90260, Note_off_c, 0, 37, 64
1, 90298, Note_on_c, 0, 67, 59
1, 90406, Note_off_c, 0, 70, 53
1, 90425, Note_off_c, 0, 76, 59
1, 90430, Note_on_c, 0, 79, 66
1, 90451, Note_off_c, 0, 67, 62
1, 90487, Note_off_c, 0, 79, 59
1, 90678, Control_c, 0, 64, 121
1, 90693, Control_c, 0, 64, 107
1, 90708, Control_c, 0, 64, 92
1, 90717, Note_on_c, 0, 38, 39
1, 90723, Control_c, 0, 64, 75
1, 90728, Note_on_c, 0, 50, 29
1, 90736, Note_on_c, 0, 68, 44
1, 90738, Control_c, 0, 64, 0
1, 90742, Note_on_c, 0, 80, 62
1, 90849, Control_c, 0, 64, 34
1, 90864, Control_c, 0, 64, 67
1, 90871, Note_off_c, 0, 38, 57
1, 90879, Control_c, 0, 64, 79
1, 90881, Note_off_c, 0, 50, 58
1, 90893, Control_c, 0, 64, 87
1, 90908, Control_c, 0, 64, 93
1, 90923, Control_c, 0, 64, 95
1, 90938, Control_c, 0, 64, 97
1, 90953, Control_c, 0, 64, 99
1, 90967, Control_c, 0, 64, 101
1, 90982, Control_c, 0, 64, 104
1, 90997, Control_c, 0, 64, 106
1, 91011, Control_c, 0, 64, 108
1, 91026, Control_c, 0, 64, 109
1, 91041, Control_c, 0, 64, 111
1, 91052, Note_off_c, 0, 80, 51
1, 91056, Note_off_c, 0, 68, 58
1, 91056, Control_c, 0, 64, 113
1, 91071, Control_c, 0, 64, 117
1, 91085, Control_c, 0, 64, 123
1, 91086, Note_on_c, 0, 71, 18
1, 91100, Control_c, 0, 64, 127
1, 91152, Note_on_c, 0, 52, 38
1, 91152, Note_off_c, 0, 71, 40
1, 91158, Note_on_c, 0, 59, 30
1, 91159, Control_c, 0, 67, 122
1, 91162, Note_on_c, 0, 56, 24
1, 91165, Note_on_c, 0, 76, 47
1, 91174, Control_c, 0, 67, 84
1, 91189, Control_c, 0, 67, 36
1, 91203, Control_c, 0, 67, 0
1, 91225, Note_on_c, 0, 66, 50
1, 91228, Note_off_c, 0, 76, 55
1, 91244, Note_on_c, 0, 78, 72
1, 91276, Note_off_c, 0, 66, 64
1, 91276, Note_off_c, 0, 52, 55
1, 91278, Note_off_c, 0, 78, 63
1, 91283, Note_off_c, 0, 59, 40
1, 91295, Note_off_c, 0, 56, 42
1, 91354, Note_on_c, 0, 76, 64
1, 91383, Note_on_c, 0, 64, 46
1, 91485, Note_off_c, 0, 64, 61
1, 91496, Note_off_c, 0, 76, 59
1, 91509, Note_on_c, 0, 68, 46
1, 91511, Note_on_c, 0, 52, 42
1, 91549, Note_off_c, 0, 52, 50
1, 91565, Note_on_c, 0, 71, 52
1, 91570, Note_off_c, 0, 68, 61
1, 91579, Poly_aftertouch_c, 0, 56, 0
1, 91595, Note_off_c, 0, 71, 64
1, 91634, Note_on_c, 0, 66, 76
1, 91674, Note_off_c, 0, 66, 58
1, 91704, Note_on_c, 0, 78, 67
1, 91730, Control_c, 0, 64, 125
1, 91745, Control_c, 0, 64, 100
1, 91750, Note_on_c, 0, 38, 52
1, 91757, Note_on_c, 0, 50, 43
1, 91760, Control_c, 0, 64, 83
1, 91775, Control_c, 0, 64, 66
1, 91782, Note_on_c, 0, 68, 66
1, 91782, Note_off_c, 0, 78, 61
1, 91788, Note_on_c, 0, 80, 77
1, 91789, Control_c, 0, 64, 0
1, 91833, Control_c, 0, 64, 52
1, 91848, Control_c, 0, 64, 69
1, 91856, Note_off_c, 0, 38, 61
1, 91860, Note_off_c, 0, 50, 63
1, 91863, Control_c, 0, 64, 79
1, 91878, Control_c, 0, 64, 87
1, 91893, Control_c, 0, 64, 92
1, 91898, Note_off_c, 0, 68, 60
1, 91908, Control_c, 0, 64, 95
1, 91917, Note_off_c, 0, 80, 58
1, 91922, Control_c, 0, 64, 97
1, 91937, Control_c, 0, 64, 99
1, 91952, Note_on_c, 0, 71, 59
1, 91952, Control_c, 0, 64, 102
1, 91967, Control_c, 0, 64, 106
1, 91981, Control_c, 0, 64, 110
1, 91993, Note_off_c, 0, 71, 55
1, 91996, Control_c, 0, 64, 115
1, 92011, Control_c, 0, 64, 120
1, 92024, Note_on_c, 0, 76, 61
1, 92025, Control_c, 0, 64, 125
1, 92040, Note_on_c, 0, 79, 62
1, 92040, Control_c, 0, 64, 127
1, 92045, Note_on_c, 0, 52, 42
1, 92056, Note_off_c, 0, 76, 63
1, 92063, Note_on_c, 0, 56, 36
1, 92073, Note_on_c, 0, 59, 39
1, 92074, Note_off_c, 0, 79, 63
1, 92086, Note_on_c, 0, 69, 80
1, 92125, Note_off_c, 0, 69, 63
1, 92177, Note_off_c, 0, 59, 39
1, 92200, Note_off_c, 0, 52, 37
1, 92201, Note_off_c, 0, 56, 36
1, 92215, Note_on_c, 0, 83, 72
1, 92222, Note_on_c, 0, 71, 69
1, 92241, Note_on_c, 0, 81, 51
1, 92267, Note_off_c, 0, 81, 51
1, 92375, Note_off_c, 0, 71, 57
1, 92385, Note_on_c, 0, 52, 47
1, 92397, Note_on_c, 0, 56, 24
1, 92414, Note_on_c, 0, 76, 64
1, 92415, Note_off_c, 0, 52, 67
1, 92417, Note_off_c, 0, 83, 58
1, 92432, Note_off_c, 0, 56, 42
1, 92446, Poly_aftertouch_c, 0, 59, 0
1, 92472, Note_on_c, 0, 80, 57
1, 92522, Note_off_c, 0, 76, 64
1, 92534, Note_on_c, 0, 73, 66
1, 92561, Note_off_c, 0, 80, 57
1, 92611, Note_on_c, 0, 85, 68
1, 92641, Control_c, 0, 64, 112
1, 92645, Note_off_c, 0, 73, 60
1, 92656, Control_c, 0, 64, 96
1, 92665, Note_on_c, 0, 38, 51
1, 92671, Control_c, 0, 64, 80
1, 92674, Note_off_c, 0, 85, 67
1, 92675, Note_on_c, 0, 50, 45
1, 92686, Control_c, 0, 64, 56
1, 92701, Control_c, 0, 64, 0
1, 92731, Note_on_c, 0, 83, 73
1, 92745, Control_c, 0, 64, 27
1, 92751, Note_on_c, 0, 71, 53
1, 92760, Control_c, 0, 64, 68
1, 92775, Control_c, 0, 64, 79
1, 92776, Note_off_c, 0, 50, 61
1, 92785, Note_off_c, 0, 38, 62
1, 92790, Control_c, 0, 64, 91
1, 92804, Control_c, 0, 64, 98
1, 92819, Control_c, 0, 64, 102
1, 92834, Control_c, 0, 64, 104
1, 92848, Control_c, 0, 64, 105
1, 92863, Control_c, 0, 64, 106
1, 92878, Control_c, 0, 64, 107
1, 92893, Control_c, 0, 64, 108
1, 92900, Note_off_c, 0, 71, 62
1, 92908, Control_c, 0, 64, 108
1, 92922, Note_off_c, 0, 83, 58
1, 92922, Control_c, 0, 64, 109
1, 92933, Note_on_c, 0, 76, 56
1, 92937, Control_c, 0, 64, 109
1, 92952, Control_c, 0, 64, 110
1, 92967, Control_c, 0, 64, 111
1, 92981, Control_c, 0, 64, 111
1, 92989, Note_on_c, 0, 59, 11
1, 92998, Control_c, 0, 64, 112
1, 93001, Note_on_c, 0, 56, 46
1, 93011, Note_off_c, 0, 76, 67
1, 93013, Control_c, 0, 64, 112
1, 93025, Note_on_c, 0, 80, 73
1, 93034, Control_c, 0, 64, 113
1, 93049, Control_c, 0, 64, 114
1, 93054, Note_off_c, 0, 59, 43
1, 93064, Control_c, 0, 64, 114
1, 93068, Note_on_c, 0, 68, 72
1, 93076, Note_off_c, 0, 80, 64
1, 93079, Control_c, 0, 64, 115
1, 93094, Control_c, 0, 64, 115
1, 93118, Note_off_c, 0, 68, 62
1, 93129, Note_on_c, 0, 80, 73
1, 93139, Control_c, 0, 64, 115
1, 93153, Control_c, 0, 64, 112
1, 93168, Control_c, 0, 64, 102
1, 93183, Control_c, 0, 64, 92
1, 93193, Note_on_c, 0, 54, 50
1, 93196, Note_on_c, 0, 60, 41
1, 93198, Control_c, 0, 64, 81
1, 93204, Note_off_c, 0, 80, 64
1, 93208, Note_on_c, 0, 81, 81
1, 93213, Control_c, 0, 64, 72
1, 93213, Note_on_c, 0, 69, 74
1, 93227, Control_c, 0, 64, 65
1, 93242, Control_c, 0, 64, 64
1, 93257, Control_c, 0, 64, 70
1, 93269, Note_off_c, 0, 56, 57
1, 93270, Note_off_c, 0, 60, 63
1, 93272, Control_c, 0, 64, 79
1, 93286, Control_c, 0, 64, 87
1, 93289, Note_off_c, 0, 54, 62
1, 93301, Control_c, 0, 64, 93
1, 93316, Control_c, 0, 64, 96
1, 93331, Control_c, 0, 64, 98
1, 93346, Control_c, 0, 64, 99
1, 93360, Control_c, 0, 64, 100
1, 93375, Control_c, 0, 64, 102
1, 93376, Note_off_c, 0, 69, 64
1, 93390, Control_c, 0, 64, 103
1, 93393, Note_off_c, 0, 81, 38
1, 93395, Note_on_c, 0, 72, 63
1, 93404, Control_c, 0, 64, 105
1, 93419, Control_c, 0, 64, 107
1, 93424, Note_on_c, 0, 38, 50
1, 93434, Control_c, 0, 64, 109
1, 93449, Control_c, 0, 64, 110
1, 93464, Control_c, 0, 64, 111
1, 93479, Control_c, 0, 64, 112
1, 93480, Note_off_c, 0, 38, 61
1, 93482, Note_off_c, 0, 72, 61
1, 93484, Note_on_c, 0, 78, 72
1, 93493, Control_c, 0, 64, 113
1, 93508, Control_c, 0, 64, 113
1, 93523, Control_c, 0, 64, 114
1, 93533, Note_off_c, 0, 78, 62
1, 93538, Control_c, 0, 64, 114
1, 93554, Note_on_c, 0, 66, 71
1, 93593, Note_off_c, 0, 66, 59
1, 93627, Note_on_c, 0, 78, 57
1, 93627, Control_c, 0, 64, 114
1, 93642, Control_c, 0, 64, 113
1, 93657, Control_c, 0, 64, 111
1, 93671, Control_c, 0, 64, 104
1, 93686, Control_c, 0, 64, 94
1, 93701, Control_c, 0, 64, 80
1, 93705, Note_off_c, 0, 78, 62
1, 93715, Note_on_c, 0, 80, 65
1, 93716, Control_c, 0, 64, 64
1, 93723, Note_on_c, 0, 56, 37
1, 93729, Note_on_c, 0, 68, 41
1, 93731, Control_c, 0, 64, 0
1, 93735, Note_on_c, 0, 52, 36
1, 93737, Note_on_c, 0, 59, 39
1, 93748, Note_on_c, 0, 50, 36
1, 93842, Control_c, 0, 64, 67
1, 93857, Control_c, 0, 64, 76
1, 93872, Control_c, 0, 64, 84
1, 93887, Control_c, 0, 64, 89
1, 93902, Control_c, 0, 64, 91
1, 93917, Note_on_c, 0, 71, 56
1, 93917, Control_c, 0, 64, 93
1, 93932, Control_c, 0, 64, 94
1, 93932, Note_off_c, 0, 59, 40
1, 93947, Control_c, 0, 64, 96
1, 93961, Control_c, 0, 64, 97
1, 93963, Note_off_c, 0, 71, 58
1, 93976, Control_c, 0, 64, 99
1, 93991, Control_c, 0, 64, 101
1, 93995, Note_on_c, 0, 76, 59
1, 94006, Control_c, 0, 64, 103
1, 94020, Control_c, 0, 64, 103
1, 94035, Note_on_c, 0, 60, 54
1, 94035, Control_c, 0, 64, 104
1, 94050, Control_c, 0, 64, 106
1, 94065, Control_c, 0, 64, 111
1, 94071, Note_off_c, 0, 76, 61
1, 94075, Note_on_c, 0, 72, 63
1, 94080, Control_c, 0, 64, 119
1, 94084, Note_off_c, 0, 56, 37
1, 94094, Control_c, 0, 64, 127
1, 94099, Note_off_c, 0, 80, 39
1, 94112, Note_off_c, 0, 60, 60
1, 94172, Note_off_c, 0, 68, 52
1, 94178, Note_off_c, 0, 72, 60
1, 94188, Note_on_c, 0, 76, 65
1, 94251, Note_on_c, 0, 59, 48
1, 94315, Note_off_c, 0, 76, 57
1, 94345, Note_on_c, 0, 71, 43
1, 94458, Note_on_c, 0, 68, 66
1, 94459, Note_off_c, 0, 71, 61
1, 94476, Note_on_c, 0, 56, 54
1, 94479, Note_off_c, 0, 59, 61
1, 94498, Note_off_c, 0, 52, 58
1, 94498, Note_off_c, 0, 56, 59
1, 94501, Note_off_c, 0, 50, 54
1, 94535, Note_on_c, 0, 76, 48
1, 94573, Note_off_c, 0, 76, 67
1, 94587, Note_on_c, 0, 71, 73
1, 94587, Note_off_c, 0, 68, 58
1, 94668, Note_off_c, 0, 71, 58
1, 94677, Note_on_c, 0, 76, 56
1, 94710, Control_c, 0, 64, 125
1, 94725, Control_c, 0, 64, 98
1, 94731, Note_on_c, 0, 38, 58
1, 94736, Note_on_c, 0, 50, 48
1, 94739, Control_c, 0, 64, 77
1, 94742, Note_on_c, 0, 68, 55
1, 94746, Note_on_c, 0, 80, 72
1, 94754, Control_c, 0, 64, 41
1, 94762, Note_off_c, 0, 76, 51
1, 94769, Control_c, 0, 64, 0
1, 94826, Note_off_c, 0, 38, 63
1, 94829, Control_c, 0, 64, 67
1, 94833, Note_off_c, 0, 50, 64
1, 94843, Control_c, 0, 64, 77
1, 94858, Control_c, 0, 64, 87
1, 94873, Control_c, 0, 64, 96
1, 94888, Control_c, 0, 64, 105
1, 94903, Control_c, 0, 64, 113
1, 94914, Note_off_c, 0, 68, 64
1, 94918, Control_c, 0, 64, 121
1, 94920, Note_on_c, 0, 71, 60
1, 94924, Note_off_c, 0, 80, 63
1, 94932, Control_c, 0, 64, 127
1, 94980, Note_off_c, 0, 71, 61
1, 94984, Note_on_c, 0, 52, 42
1, 94988, Note_on_c, 0, 76, 60
1, 95010, Note_on_c, 0, 56, 5
1, 95018, Note_on_c, 0, 59, 29
1, 95058, Note_on_c, 0, 66, 64
1, 95069, Note_off_c, 0, 76, 65
1, 95105, Note_on_c, 0, 77, 51
1, 95129, Note_off_c, 0, 77, 56
1, 95133, Note_off_c, 0, 66, 60
1, 95142, Note_off_c, 0, 52, 60
1, 95157, Note_off_c, 0, 59, 39
1, 95158, Note_off_c, 0, 56, 40
1, 95175, Note_on_c, 0, 76, 60
1, 95200, Note_on_c, 0, 64, 65
1, 95244, Note_on_c, 0, 65, 31
1, 95285, Note_off_c, 0, 65, 52
1, 95327, Note_on_c, 0, 68, 60
1, 95342, Note_off_c, 0, 64, 62
1, 95348, Note_off_c, 0, 76, 65
1, 95393, Note_on_c, 0, 71, 63
1, 95407, Note_on_c, 0, 52, 54
1, 95408, Note_off_c, 0, 68, 63
1, 95418, Note_on_c, 0, 56, 42
1, 95431, Note_off_c, 0, 52, 66
1, 95440, Note_off_c, 0, 71, 62
1, 95447, Note_off_c, 0, 56, 50
1, 95477, Note_on_c, 0, 66, 78
1, 95517, Note_off_c, 0, 66, 51
1, 95528, Note_on_c, 0, 78, 71
1, 95578, Note_off_c, 0, 78, 57
1, 95592, Control_c, 0, 64, 126
1, 95605, Note_on_c, 0, 68, 81
1, 95607, Control_c, 0, 64, 99
1, 95611, Note_on_c, 0, 38, 59
1, 95617, Note_on_c, 0, 80, 85
1, 95622, Control_c, 0, 64, 79
1, 95627, Note_on_c, 0, 50, 52
1, 95637, Control_c, 0, 64, 54
1, 95652, Control_c, 0, 64, 0
1, 95696, Control_c, 0, 64, 66
1, 95705, Note_off_c, 0, 38, 63
1, 95711, Control_c, 0, 64, 80
1, 95724, Note_off_c, 0, 50, 64
1, 95726, Control_c, 0, 64, 96
1, 95741, Control_c, 0, 64, 113
1, 95755, Control_c, 0, 64, 127
1, 95762, Note_off_c, 0, 80, 64
1, 95765, Note_off_c, 0, 68, 64
1, 95779, Note_on_c, 0, 71, 62
1, 95822, Note_off_c, 0, 71, 59
1, 95824, Note_on_c, 0, 76, 75
1, 95866, Note_on_c, 0, 79, 59
1, 95870, Note_on_c, 0, 56, 50
1, 95872, Note_off_c, 0, 76, 66
1, 95878, Note_on_c, 0, 59, 54
1, 95885, Note_off_c, 0, 79, 61
1, 95888, Note_on_c, 0, 69, 83
1, 95935, Note_off_c, 0, 69, 65
1, 95940, Note_off_c, 0, 59, 56
1, 95979, Note_on_c, 0, 81, 61
1, 95989, Note_off_c, 0, 56, 54
1, 95990, Note_on_c, 0, 83, 66
1, 96008, Note_on_c, 0, 71, 72
1, 96034, Note_off_c, 0, 83, 0
1, 96034, Note_on_c, 0, 83, 33
1, 96057, Note_off_c, 0, 81, 63
1, 96068, Note_off_c, 0, 83, 51
1, 96075, Note_off_c, 0, 71, 0
1, 96095, Note_on_c, 0, 83, 79
1, 96112, Poly_aftertouch_c, 0, 71, 127
1, 96124, Note_on_c, 0, 82, 59
1, 96179, Note_off_c, 0, 82, 0
1, 96217, Poly_aftertouch_c, 0, 82, 127
1, 96226, Poly_aftertouch_c, 0, 71, 0
1, 96236, Note_on_c, 0, 76, 64
1, 96239, Note_off_c, 0, 83, 59
1, 96268, Poly_aftertouch_c, 0, 82, 0
1, 96284, Note_on_c, 0, 80, 72
1, 96292, Note_on_c, 0, 56, 63
1, 96294, Note_off_c, 0, 76, 66
1, 96307, Note_on_c, 0, 59, 36
1, 96317, Note_off_c, 0, 56, 66
1, 96333, Note_off_c, 0, 59, 54
1, 96352, Note_on_c, 0, 73, 79
1, 96393, Note_off_c, 0, 80, 64
1, 96430, Note_on_c, 0, 85, 82
1, 96448, Note_off_c, 0, 73, 59
1, 96474, Note_off_c, 0, 85, 65
1, 96495, Note_on_c, 0, 82, 7
1, 96534, Note_on_c, 0, 37, 74
1, 96534, Control_c, 0, 64, 103
1, 96536, Note_on_c, 0, 86, 91
1, 96542, Note_on_c, 0, 74, 78
1, 96544, Note_off_c, 0, 82, 37
1, 96546, Note_on_c, 0, 49, 61
1, 96549, Control_c, 0, 64, 81
1, 96564, Control_c, 0, 64, 56
1, 96579, Control_c, 0, 64, 0
1, 96610, Note_off_c, 0, 37, 65
1, 96623, Control_c, 0, 64, 50
1, 96624, Note_off_c, 0, 49, 61
1, 96638, Control_c, 0, 64, 72
1, 96653, Control_c, 0, 64, 86
1, 96668, Control_c, 0, 64, 102
1, 96683, Control_c, 0, 64, 115
1, 96697, Control_c, 0, 64, 122
1, 96712, Control_c, 0, 64, 124
1, 96727, Control_c, 0, 64, 126
1, 96742, Control_c, 0, 64, 127
1, 96747, Note_on_c, 0, 77, 70
1, 96749, Note_off_c, 0, 74, 64
1, 96775, Note_off_c, 0, 86, 63
1, 96807, Note_on_c, 0, 61, 75
1, 96808, Note_on_c, 0, 53, 78
1, 96830, Note_off_c, 0, 61, 67
1, 96840, Note_off_c, 0, 53, 68
1, 96842, Note_on_c, 0, 80, 81
1, 96863, Note_off_c, 0, 77, 55
1, 96896, Note_on_c, 0, 73, 77
1, 96996, Note_off_c, 0, 80, 63
1, 97005, Note_off_c, 0, 73, 63
1, 97040, Note_on_c, 0, 85, 3
1, 97051, Note_on_c, 0, 37, 73
1, 97058, Note_on_c, 0, 49, 73
1, 97061, Control_c, 0, 64, 103
1, 97062, Note_on_c, 0, 86, 94
1, 97067, Note_on_c, 0, 74, 86
1, 97076, Note_off_c, 0, 85, 28
1, 97076, Control_c, 0, 64, 82
1, 97091, Control_c, 0, 64, 57
1, 97106, Control_c, 0, 64, 0
1, 97107, Note_off_c, 0, 37, 65
1, 97125, Note_off_c, 0, 49, 63
1, 97135, Control_c, 0, 64, 69
1, 97150, Control_c, 0, 64, 87
1, 97165, Control_c, 0, 64, 117
1, 97179, Control_c, 0, 64, 127
1, 97264, Note_on_c, 0, 78, 79
1, 97265, Note_off_c, 0, 74, 65
1, 97292, Note_off_c, 0, 86, 63
1, 97306, Note_on_c, 0, 57, 79
1, 97312, Note_on_c, 0, 66, 75
1, 97335, Note_off_c, 0, 66, 71
1, 97342, Note_on_c, 0, 81, 79
1, 97351, Note_off_c, 0, 57, 65
1, 97373, Note_off_c, 0, 78, 62
1, 97415, Note_on_c, 0, 73, 84
1, 97500, Note_on_c, 0, 85, 83
1, 97532, Note_off_c, 0, 73, 61
1, 97533, Note_off_c, 0, 81, 57
1, 97548, Note_off_c, 0, 85, 65
1, 97586, Control_c, 0, 64, 118
1, 97588, Note_on_c, 0, 37, 76
1, 97593, Note_on_c, 0, 49, 83
1, 97600, Note_on_c, 0, 86, 96
1, 97601, Control_c, 0, 64, 91
1, 97602, Note_on_c, 0, 74, 88
1, 97616, Control_c, 0, 64, 71
1, 97631, Control_c, 0, 64, 53
1, 97645, Control_c, 0, 64, 61
1, 97649, Note_off_c, 0, 37, 65
1, 97660, Control_c, 0, 64, 75
1, 97664, Note_off_c, 0, 49, 62
1, 97675, Control_c, 0, 64, 97
1, 97690, Control_c, 0, 64, 127
1, 97783, Note_on_c, 0, 77, 83
1, 97798, Note_off_c, 0, 86, 56
1, 97804, Note_off_c, 0, 74, 65
1, 97834, Note_on_c, 0, 61, 70
1, 97846, Note_on_c, 0, 65, 70
1, 97857, Note_on_c, 0, 80, 87
1, 97872, Note_off_c, 0, 65, 70
1, 97875, Note_off_c, 0, 61, 61
1, 97881, Note_off_c, 0, 77, 57
1, 97887, Note_on_c, 0, 57, 42
1, 97919, Note_on_c, 0, 73, 80
1, 97920, Note_off_c, 0, 57, 49
1, 97989, Note_on_c, 0, 85, 89
1, 98012, Note_off_c, 0, 80, 61
1, 98018, Note_off_c, 0, 73, 62
1, 98034, Note_off_c, 0, 85, 66
1, 98096, Note_on_c, 0, 37, 82
1, 98096, Note_on_c, 0, 49, 79
1, 98105, Control_c, 0, 64, 94
1, 98109, Note_on_c, 0, 88, 86
1, 98110, Note_on_c, 0, 89, 83
1, 98111, Note_on_c, 0, 76, 84
1, 98120, Control_c, 0, 64, 70
1, 98135, Control_c, 0, 64, 0
1, 98166, Note_off_c, 0, 37, 66
1, 98168, Note_off_c, 0, 89, 60
1, 98179, Control_c, 0, 64, 74
1, 98183, Note_off_c, 0, 49, 63
1, 98194, Control_c, 0, 64, 99
1, 98209, Control_c, 0, 64, 127
1, 98302, Note_on_c, 0, 78, 90
1, 98339, Note_off_c, 0, 76, 61
1, 98350, Note_off_c, 0, 88, 61
1, 98380, Note_on_c, 0, 81, 86
1, 98399, Note_on_c, 0, 57, 71
1, 98400, Note_on_c, 0, 54, 73
1, 98400, Note_on_c, 0, 62, 77
1, 98431, Note_off_c, 0, 62, 64
1, 98448, Note_off_c, 0, 78, 51
1, 98451, Note_off_c, 0, 57, 63
1, 98469, Note_off_c, 0, 54, 62
1, 98489, Note_on_c, 0, 74, 88
1, 98548, Note_on_c, 0, 86, 91
1, 98557, Note_off_c, 0, 81, 59
1, 98586, Note_off_c, 0, 74, 66
1, 98615, Note_off_c, 0, 86, 64
1, 98674, Note_on_c, 0, 86, 96
1, 98675, Note_on_c, 0, 37, 79
1, 98675, Note_on_c, 0, 49, 80
1, 98677, Control_c, 0, 64, 90
1, 98678, Note_on_c, 0, 74, 92
1, 98691, Control_c, 0, 64, 62
1, 98706, Control_c, 0, 64, 0
1, 98751, Control_c, 0, 64, 51
1, 98756, Note_off_c, 0, 37, 66
1, 98765, Control_c, 0, 64, 75
1, 98773, Note_off_c, 0, 49, 64
1, 98780, Control_c, 0, 64, 93
1, 98795, Control_c, 0, 64, 127
1, 98877, Note_on_c, 0, 77, 79
1, 98896, Note_off_c, 0, 86, 62
1, 98910, Note_off_c, 0, 74, 64
1, 98972, Note_on_c, 0, 61, 83
1, 98973, Note_on_c, 0, 53, 84
1, 98978, Note_on_c, 0, 80, 93
1, 99002, Note_off_c, 0, 61, 64
1, 99027, Note_off_c, 0, 77, 62
1, 99036, Note_off_c, 0, 53, 66
1, 99103, Note_on_c, 0, 73, 79
1, 99201, Note_on_c, 0, 85, 95
1, 99232, Note_off_c, 0, 80, 61
1, 99234, Note_off_c, 0, 73, 63
1, 99300, Note_off_c, 0, 85, 59
1, 99411, Control_c, 0, 64, 126
1, 99414, Note_on_c, 0, 44, 77
1, 99416, Note_on_c, 0, 32, 78
1, 99425, Note_on_c, 0, 85, 83
1, 99426, Control_c, 0, 64, 87
1, 99430, Note_on_c, 0, 73, 90
1, 99440, Control_c, 0, 64, 39
1, 99453, Note_on_c, 0, 80, 20
1, 99455, Control_c, 0, 64, 0
1, 99482, Note_off_c, 0, 80, 53
1, 99500, Control_c, 0, 64, 45
1, 99515, Control_c, 0, 64, 73
1, 99530, Control_c, 0, 64, 93
1, 99545, Control_c, 0, 64, 127
1, 99554, Note_off_c, 0, 32, 63
1, 99577, Note_off_c, 0, 44, 64
1, 99715, Note_off_c, 0, 85, 64
1, 99745, Note_on_c, 0, 75, 73
1, 99798, Note_off_c, 0, 73, 62
1, 99803, Note_on_c, 0, 54, 50
1, 99811, Note_on_c, 0, 59, 47
1, 99846, Note_on_c, 0, 78, 76
1, 99887, Note_off_c, 0, 75, 60
1, 99940, Note_on_c, 0, 71, 58
1, 99964, Note_on_c, 0, 83, 86
1, 100007, Note_off_c, 0, 59, 60
1, 100010, Note_off_c, 0, 71, 61
1, 100010, Note_off_c, 0, 78, 61
1, 100011, Note_off_c, 0, 83, 62
1, 100021, Note_off_c, 0, 54, 58
1, 100079, Note_on_c, 0, 81, 99
1, 100081, Note_on_c, 0, 69, 90
1, 100233, Note_off_c, 0, 81, 54
1, 100279, Note_on_c, 0, 71, 74
1, 100309, Note_off_c, 0, 69, 63
1, 100320, Note_on_c, 0, 54, 47
1, 100325, Note_on_c, 0, 59, 47
1, 100359, Note_on_c, 0, 74, 74
1, 100388, Note_off_c, 0, 54, 61
1, 100388, Note_off_c, 0, 59, 58
1, 100402, Note_off_c, 0, 71, 53
1, 100455, Note_on_c, 0, 68, 72
1, 100521, Note_on_c, 0, 80, 83
1, 100552, Note_off_c, 0, 68, 62
1, 100578, Note_off_c, 0, 80, 63
1, 100602, Note_off_c, 0, 74, 27
1, 100627, Control_c, 0, 64, 120
1, 100636, Note_on_c, 0, 47, 51
1, 100638, Note_on_c, 0, 80, 77
1, 100642, Control_c, 0, 64, 94
1, 100645, Note_on_c, 0, 68, 71
1, 100657, Control_c, 0, 64, 76
1, 100671, Control_c, 0, 64, 36
1, 100686, Control_c, 0, 64, 0
1, 100745, Control_c, 0, 64, 35
1, 100760, Control_c, 0, 64, 66
1, 100775, Control_c, 0, 64, 75
1, 100789, Control_c, 0, 64, 84
1, 100804, Control_c, 0, 64, 93
1, 100819, Control_c, 0, 64, 98
1, 100834, Control_c, 0, 64, 103
1, 100849, Control_c, 0, 64, 105
1, 100850, Note_on_c, 0, 71, 63
1, 100863, Control_c, 0, 64, 109
1, 100871, Note_off_c, 0, 68, 59
1, 100878, Control_c, 0, 64, 113
1, 100893, Control_c, 0, 64, 119
1, 100908, Control_c, 0, 64, 125
1, 100916, Note_on_c, 0, 56, 53
1, 100923, Control_c, 0, 64, 127
1, 100925, Note_off_c, 0, 80, 56
1, 100963, Note_off_c, 0, 56, 62
1, 100970, Note_on_c, 0, 74, 56
1, 100971, Note_off_c, 0, 47, 65
1, 101019, Note_off_c, 0, 71, 61
1, 101021, Note_on_c, 0, 66, 70
1, 101095, Note_off_c, 0, 66, 64
1, 101144, Note_on_c, 0, 78, 75
1, 101149, Note_off_c, 0, 74, 52
1, 101175, Note_on_c, 0, 37, 48
1, 101190, Control_c, 0, 64, 104
1, 101205, Control_c, 0, 64, 81
1, 101220, Control_c, 0, 64, 60
1, 101224, Note_on_c, 0, 66, 50
1, 101235, Control_c, 0, 64, 0
1, 101271, Note_off_c, 0, 66, 44
1, 101287, Control_c, 0, 64, 65
1, 101301, Control_c, 0, 64, 79
1, 101316, Control_c, 0, 64, 102
1, 101320, Note_on_c, 0, 66, 43
1, 101325, Note_off_c, 0, 37, 65
1, 101331, Control_c, 0, 64, 127
1, 101398, Note_on_c, 0, 68, 73
1, 101430, Note_off_c, 0, 66, 62
1, 101477, Note_on_c, 0, 71, 70
1, 101483, Note_off_c, 0, 68, 63
1, 101494, Note_on_c, 0, 56, 53
1, 101504, Note_on_c, 0, 49, 53
1, 101525, Note_off_c, 0, 78, 36
1, 101594, Note_on_c, 0, 65, 64
1, 101643, Note_on_c, 0, 77, 79
1, 101666, Note_off_c, 0, 71, 50
1, 101698, Note_off_c, 0, 65, 59
1, 101712, Note_off_c, 0, 77, 63
1, 101851, Note_on_c, 0, 74, 73
1, 101855, Note_on_c, 0, 62, 69
1, 102051, Note_off_c, 0, 49, 62
1, 102055, Note_off_c, 0, 74, 60
1, 102064, Note_off_c, 0, 62, 61
1, 102075, Note_on_c, 0, 65, 50
1, 102116, Note_off_c, 0, 56, 63
1, 102172, Note_off_c, 0, 65, 63
1, 102179, Note_on_c, 0, 68, 56
1, 102239, Note_on_c, 0, 61, 70
1, 102273, Note_off_c, 0, 68, 61
1, 102318, Note_on_c, 0, 73, 71
1, 102341, Note_off_c, 0, 61, 61
1, 102363, Note_off_c, 0, 73, 62
1, 102412, Note_on_c, 0, 74, 83
1, 102415, Note_on_c, 0, 62, 66
1, 102609, Note_off_c, 0, 62, 60
1, 102609, Note_on_c, 0, 65, 71
1, 102622, Note_off_c, 0, 74, 63
1, 102691, Note_off_c, 0, 65, 65
1, 102697, Note_on_c, 0, 68, 68
1, 102772, Note_on_c, 0, 61, 72
1, 102793, Note_off_c, 0, 68, 59
1, 102824, Note_on_c, 0, 42, 39
1, 102865, Note_on_c, 0, 73, 67
1, 102896, Note_off_c, 0, 42, 61
1, 102911, Note_off_c, 0, 61, 61
1, 102919, Note_on_c, 0, 49, 50
1, 102943, Note_off_c, 0, 73, 63
1, 103020, Control_c, 0, 64, 112
1, 103030, Note_on_c, 0, 74, 67
1, 103035, Control_c, 0, 64, 87
1, 103038, Poly_aftertouch_c, 0, 66, 127
1, 103042, Note_on_c, 0, 57, 58
1, 103047, Note_on_c, 0, 62, 54
1, 103050, Control_c, 0, 64, 65
1, 103063, Poly_aftertouch_c, 0, 66, 0
1, 103065, Control_c, 0, 64, 0
1, 103154, Control_c, 0, 64, 65
1, 103169, Control_c, 0, 64, 73
1, 103184, Control_c, 0, 64, 82
1, 103187, Note_off_c, 0, 49, 35
1, 103199, Control_c, 0, 64, 91
1, 103214, Control_c, 0, 64, 97
1, 103229, Control_c, 0, 64, 100
1, 103244, Control_c, 0, 64, 102
1, 103251, Note_off_c, 0, 57, 63
1, 103258, Control_c, 0, 64, 105
1, 103273, Control_c, 0, 64, 108
1, 103278, Note_on_c, 0, 66, 56
1, 103288, Control_c, 0, 64, 111
1, 103290, Note_off_c, 0, 62, 61
1, 103303, Control_c, 0, 64, 114
1, 103318, Control_c, 0, 64, 117
1, 103318, Note_off_c, 0, 74, 63
1, 103332, Control_c, 0, 64, 121
1, 103347, Control_c, 0, 64, 127
1, 103360, Note_off_c, 0, 66, 55
1, 103362, Note_on_c, 0, 69, 52
1, 103434, Note_off_c, 0, 69, 64
1, 103441, Note_on_c, 0, 61, 64
1, 103548, Note_on_c, 0, 37, 37
1, 103556, Note_on_c, 0, 73, 60
1, 103599, Note_off_c, 0, 37, 60
1, 103600, Note_off_c, 0, 61, 40
1, 103623, Note_on_c, 0, 44, 43
1, 103648, Note_off_c, 0, 73, 57
1, 103753, Note_on_c, 0, 74, 55
1, 103757, Note_on_c, 0, 62, 51
1, 103769, Note_on_c, 0, 53, 39
1, 103770, Control_c, 0, 64, 119
1, 103785, Control_c, 0, 64, 103
1, 103800, Control_c, 0, 64, 85
1, 103814, Control_c, 0, 64, 69
1, 103829, Control_c, 0, 64, 0
1, 103931, Note_off_c, 0, 44, 40
1, 103933, Control_c, 0, 64, 60
1, 103947, Control_c, 0, 64, 71
1, 103962, Control_c, 0, 64, 79
1, 103977, Control_c, 0, 64, 88
1, 103992, Control_c, 0, 64, 93
1, 103996, Note_off_c, 0, 74, 61
1, 104004, Note_on_c, 0, 65, 57
1, 104007, Control_c, 0, 64, 96
1, 104012, Note_off_c, 0, 62, 58
1, 104022, Control_c, 0, 64, 100
1, 104037, Control_c, 0, 64, 105
1, 104052, Control_c, 0, 64, 111
1, 104067, Control_c, 0, 64, 118
1, 104071, Note_off_c, 0, 53, 65
1, 104081, Control_c, 0, 64, 127
1, 104103, Note_on_c, 0, 68, 56
1, 104106, Note_off_c, 0, 65, 59
1, 104168, Note_on_c, 0, 61, 61
1, 104275, Note_on_c, 0, 73, 71
1, 104310, Note_off_c, 0, 61, 57
1, 104329, Note_off_c, 0, 73, 62
1, 104344, Note_off_c, 0, 68, 47
1, 104381, Note_on_c, 0, 62, 65
1, 104389, Note_on_c, 0, 50, 58
1, 104430, Control_c, 0, 64, 117
1, 104445, Control_c, 0, 64, 97
1, 104460, Control_c, 0, 64, 77
1, 104475, Control_c, 0, 64, 53
1, 104490, Control_c, 0, 64, 0
1, 104563, Control_c, 0, 64, 67
1, 104578, Control_c, 0, 64, 76
1, 104593, Control_c, 0, 64, 85
1, 104600, Note_off_c, 0, 62, 63
1, 104608, Control_c, 0, 64, 93
1, 104618, Note_on_c, 0, 53, 55
1, 104623, Control_c, 0, 64, 98
1, 104629, Note_off_c, 0, 50, 64
1, 104637, Control_c, 0, 64, 102
1, 104652, Control_c, 0, 64, 106
1, 104666, Control_c, 0, 64, 110
1, 104681, Control_c, 0, 64, 115
1, 104682, Note_off_c, 0, 53, 63
1, 104691, Note_on_c, 0, 56, 59
1, 104696, Control_c, 0, 64, 122
1, 104710, Control_c, 0, 64, 127
1, 104767, Note_on_c, 0, 49, 62
1, 104794, Note_off_c, 0, 56, 49
1, 104843, Note_on_c, 0, 61, 65
1, 104875, Note_off_c, 0, 49, 59
1, 104912, Note_off_c, 0, 61, 56
1, 104971, Note_on_c, 0, 62, 65
1, 104977, Control_c, 0, 64, 120
1, 104990, Note_on_c, 0, 50, 50
1, 104992, Control_c, 0, 64, 103
1, 105015, Control_c, 0, 64, 88
1, 105030, Control_c, 0, 64, 71
1, 105044, Control_c, 0, 64, 0
1, 105119, Control_c, 0, 64, 64
1, 105133, Control_c, 0, 64, 73
1, 105148, Control_c, 0, 64, 80
1, 105163, Control_c, 0, 64, 85
1, 105177, Control_c, 0, 64, 88
1, 105192, Control_c, 0, 64, 90
1, 105207, Control_c, 0, 64, 93
1, 105211, Note_off_c, 0, 62, 45
1, 105222, Control_c, 0, 64, 97
1, 105237, Control_c, 0, 64, 102
1, 105238, Note_on_c, 0, 53, 47
1, 105249, Note_off_c, 0, 50, 53
1, 105252, Control_c, 0, 64, 107
1, 105266, Control_c, 0, 64, 110
1, 105281, Control_c, 0, 64, 113
1, 105296, Control_c, 0, 64, 115
1, 105311, Control_c, 0, 64, 117
1, 105326, Control_c, 0, 64, 119
1, 105330, Note_off_c, 0, 53, 62
1, 105340, Control_c, 0, 64, 121
1, 105344, Note_on_c, 0, 56, 47
1, 105355, Control_c, 0, 64, 123
1, 105370, Control_c, 0, 64, 125
1, 105384, Control_c, 0, 64, 127
1, 105434, Note_off_c, 0, 56, 61
1, 105449, Note_on_c, 0, 49, 49
1, 105541, Note_on_c, 0, 61, 51
1, 105613, Note_off_c, 0, 49, 32
1, 105656, Note_off_c, 0, 61, 52
1, 105681, Control_c, 0, 64, 126
1, 105696, Control_c, 0, 64, 118
1, 105711, Control_c, 0, 64, 111
1, 105722, Note_on_c, 0, 30, 37
1, 105725, Control_c, 0, 64, 101
1, 105728, Note_on_c, 0, 42, 32
1, 105732, Note_on_c, 0, 62, 56
1, 105740, Control_c, 0, 64, 90
1, 105763, Control_c, 0, 64, 77
1, 105766, Note_on_c, 0, 50, 39
1, 105778, Control_c, 0, 64, 61
1, 105793, Control_c, 0, 64, 0
1, 105912, Control_c, 0, 64, 60
1, 105927, Control_c, 0, 64, 70
1, 105942, Control_c, 0, 64, 79
1, 105956, Control_c, 0, 64, 86
1, 105971, Control_c, 0, 64, 89
1, 105986, Control_c, 0, 64, 91
1, 106001, Control_c, 0, 64, 92
1, 106010, Note_off_c, 0, 42, 46
1, 106015, Control_c, 0, 64, 94
1, 106030, Control_c, 0, 64, 97
1, 106045, Control_c, 0, 64, 99
1, 106060, Control_c, 0, 64, 102
1, 106071, Note_off_c, 0, 30, 40
1, 106075, Control_c, 0, 64, 103
1, 106076, Note_off_c, 0, 62, 61
1, 106087, Note_on_c, 0, 54, 39
1, 106089, Control_c, 0, 64, 104
1, 106098, Note_off_c, 0, 50, 40
1, 106104, Control_c, 0, 64, 104
1, 106119, Control_c, 0, 64, 105
1, 106133, Control_c, 0, 64, 107
1, 106148, Control_c, 0, 64, 108
1, 106164, Control_c, 0, 64, 110
1, 106173, Note_off_c, 0, 54, 49
1, 106179, Control_c, 0, 64, 111
1, 106194, Note_on_c, 0, 57, 48
1, 106194, Control_c, 0, 64, 111
1, 106208, Control_c, 0, 64, 113
1, 106223, Control_c, 0, 64, 115
1, 106238, Control_c, 0, 64, 117
1, 106253, Control_c, 0, 64, 119
1, 106268, Control_c, 0, 64, 120
1, 106282, Control_c, 0, 64, 122
1, 106287, Note_off_c, 0, 57, 60
1, 106297, Control_c, 0, 64, 123
1, 106312, Control_c, 0, 64, 124
1, 106323, Note_on_c, 0, 49, 47
1, 106327, Control_c, 0, 64, 125
1, 106401, Control_c, 0, 64, 125
1, 106448, Note_off_c, 0, 49, 49
1, 106453, Note_on_c, 0, 61, 48
1, 106460, Control_c, 0, 64, 125
1, 106542, Note_off_c, 0, 61, 54
1, 106571, Control_c, 0, 64, 123
1, 106587, Control_c, 0, 64, 121
1, 106602, Control_c, 0, 64, 119
1, 106617, Control_c, 0, 64, 115
1, 106631, Control_c, 0, 64, 111
1, 106641, Note_on_c, 0, 62, 49
1, 106646, Control_c, 0, 64, 105
1, 106650, Note_on_c, 0, 25, 28
1, 106658, Note_on_c, 0, 37, 27
1, 106661, Control_c, 0, 64, 96
1, 106662, Note_on_c, 0, 50, 36
1, 106676, Control_c, 0, 64, 86
1, 106691, Control_c, 0, 64, 74
1, 106705, Control_c, 0, 64, 56
1, 106720, Control_c, 0, 64, 0
1, 106839, Control_c, 0, 64, 64
1, 106854, Control_c, 0, 64, 73
1, 106869, Control_c, 0, 64, 80
1, 106884, Control_c, 0, 64, 84
1, 106899, Control_c, 0, 64, 86
1, 106913, Control_c, 0, 64, 87
1, 106928, Control_c, 0, 64, 89
1, 106943, Control_c, 0, 64, 92
1, 106957, Control_c, 0, 64, 95
1, 106972, Control_c, 0, 64, 98
1, 106987, Control_c, 0, 64, 101
1, 107000, Note_off_c, 0, 62, 38
1, 107002, Control_c, 0, 64, 103
1, 107009, Note_on_c, 0, 53, 33
1, 107017, Control_c, 0, 64, 105
1, 107031, Control_c, 0, 64, 107
1, 107046, Control_c, 0, 64, 108
1, 107061, Control_c, 0, 64, 110
1, 107076, Control_c, 0, 64, 112
1, 107080, Note_off_c, 0, 50, 41
1, 107091, Control_c, 0, 64, 114
1, 107105, Control_c, 0, 64, 115
1, 107120, Control_c, 0, 64, 117
1, 107135, Control_c, 0, 64, 120
1, 107144, Note_on_c, 0, 56, 47
1, 107145, Note_off_c, 0, 25, 40
1, 107150, Control_c, 0, 64, 121
1, 107155, Note_off_c, 0, 37, 41
1, 107155, Note_off_c, 0, 53, 36
1, 107164, Control_c, 0, 64, 123
1, 107179, Control_c, 0, 64, 125
1, 107194, Control_c, 0, 64, 126
1, 107209, Control_c, 0, 64, 127
1, 107246, Note_on_c, 0, 49, 48
1, 107352, Note_off_c, 0, 56, 21
1, 107387, Note_on_c, 0, 61, 46
1, 107405, Note_off_c, 0, 49, 49
1, 107510, Note_off_c, 0, 61, 47
1, 107573, Control_c, 0, 64, 122
1, 107587, Control_c, 0, 64, 117
1, 107599, Note_on_c, 0, 62, 46
1, 107602, Control_c, 0, 64, 112
1, 107611, Note_on_c, 0, 50, 37
1, 107617, Control_c, 0, 64, 105
1, 107632, Control_c, 0, 64, 99
1, 107647, Control_c, 0, 64, 92
1, 107661, Control_c, 0, 64, 85
1, 107676, Control_c, 0, 64, 77
1, 107691, Control_c, 0, 64, 68
1, 107706, Control_c, 0, 64, 45
1, 107721, Control_c, 0, 64, 0
1, 107913, Control_c, 0, 64, 63
1, 107927, Control_c, 0, 64, 69
1, 107942, Control_c, 0, 64, 74
1, 107957, Control_c, 0, 64, 79
1, 107972, Control_c, 0, 64, 82
1, 107987, Control_c, 0, 64, 84
1, 108009, Control_c, 0, 64, 86
1, 108018, Note_on_c, 0, 53, 34
1, 108024, Control_c, 0, 64, 88
1, 108039, Control_c, 0, 64, 90
1, 108053, Control_c, 0, 64, 91
1, 108068, Control_c, 0, 64, 93
1, 108083, Control_c, 0, 64, 93
1, 108098, Control_c, 0, 64, 94
1, 108119, Note_off_c, 0, 62, 37
1, 108127, Control_c, 0, 64, 95
1, 108156, Note_off_c, 0, 50, 39
1, 108157, Control_c, 0, 64, 95
1, 108203, Control_c, 0, 64, 96
1, 108219, Note_on_c, 0, 56, 38
1, 108232, Note_off_c, 0, 53, 39
1, 108276, Control_c, 0, 64, 96
1, 108390, Note_on_c, 0, 49, 43
1, 108416, Note_off_c, 0, 56, 33
1, 108570, Note_off_c, 0, 49, 40
1, 108577, Note_on_c, 0, 61, 42
1, 108717, Note_off_c, 0, 61, 53
1, 108832, Control_c, 0, 64, 96
1, 108847, Control_c, 0, 64, 95
1, 108862, Control_c, 0, 64, 94
1, 108876, Control_c, 0, 64, 91
1, 108881, Note_on_c, 0, 62, 34
1, 108891, Control_c, 0, 64, 88
1, 108894, Note_on_c, 0, 50, 26
1, 108906, Control_c, 0, 64, 83
1, 108921, Control_c, 0, 64, 77
1, 108935, Control_c, 0, 64, 69
1, 108950, Control_c, 0, 64, 54
1, 108965, Control_c, 0, 64, 0
1, 109129, Control_c, 0, 64, 61
1, 109144, Control_c, 0, 64, 67
1, 109159, Control_c, 0, 64, 69
1, 109174, Control_c, 0, 64, 71
1, 109189, Control_c, 0, 64, 71
1, 109204, Control_c, 0, 64, 72
1, 109219, Control_c, 0, 64, 73
1, 109233, Control_c, 0, 64, 75
1, 109248, Control_c, 0, 64, 77
1, 109263, Control_c, 0, 64, 79
1, 109278, Control_c, 0, 64, 80
1, 109426, Control_c, 0, 64, 79
1, 109441, Control_c, 0, 64, 79
1, 109453, Note_on_c, 0, 53, 31
1, 109456, Control_c, 0, 64, 78
1, 109471, Control_c, 0, 64, 77
1, 109486, Control_c, 0, 64, 76
1, 109507, Control_c, 0, 64, 75
1, 109522, Control_c, 0, 64, 73
1, 109537, Control_c, 0, 64, 72
1, 109552, Control_c, 0, 64, 70
1, 109566, Control_c, 0, 64, 69
1, 109581, Control_c, 0, 64, 67
1, 109587, Note_off_c, 0, 50, 34
1, 109596, Control_c, 0, 64, 64
1, 109611, Control_c, 0, 64, 61
1, 109626, Control_c, 0, 64, 57
1, 109641, Control_c, 0, 64, 56
1, 109656, Control_c, 0, 64, 56
1, 109671, Control_c, 0, 64, 56
1, 109686, Control_c, 0, 64, 54
1, 109700, Control_c, 0, 64, 50
1, 109715, Control_c, 0, 64, 41
1, 109730, Control_c, 0, 64, 11
1, 109745, Control_c, 0, 64, 0
1, 109777, Note_on_c, 0, 56, 38
1, 109790, Control_c, 0, 64, 25
1, 109805, Control_c, 0, 64, 49
1, 109820, Control_c, 0, 64, 62
1, 109826, Note_off_c, 0, 62, 39
1, 109835, Control_c, 0, 64, 66
1, 109849, Control_c, 0, 64, 69
1, 109864, Control_c, 0, 64, 70
1, 109914, Note_off_c, 0, 53, 41
1, 109923, Control_c, 0, 64, 70
1, 109938, Control_c, 0, 64, 69
1, 109953, Control_c, 0, 64, 68
1, 109968, Control_c, 0, 64, 67
1, 109982, Control_c, 0, 64, 66
1, 109997, Control_c, 0, 64, 64
1, 110012, Control_c, 0, 64, 62
1, 110027, Control_c, 0, 64, 57
1, 110042, Control_c, 0, 64, 50
1, 110056, Control_c, 0, 64, 45
1, 110071, Control_c, 0, 64, 44
1, 110086, Control_c, 0, 64, 44
1, 110101, Control_c, 0, 64, 42
1, 110116, Control_c, 0, 64, 34
1, 110130, Control_c, 0, 64, 0
1, 110255, Note_on_c, 0, 49, 30
1, 110341, Note_off_c, 0, 56, 35
1, 110657, Control_c, 0, 64, 23
1, 110672, Control_c, 0, 64, 47
1, 110687, Control_c, 0, 64, 58
1, 110702, Control_c, 0, 64, 62
1, 110717, Control_c, 0, 64, 64
1, 110732, Control_c, 0, 64, 65
1, 110746, Control_c, 0, 64, 66
1, 110761, Control_c, 0, 64, 68
1, 110776, Control_c, 0, 64, 70
1, 110790, Control_c, 0, 64, 72
1, 110805, Control_c, 0, 64, 74
1, 110820, Control_c, 0, 64, 77
1, 110835, Control_c, 0, 64, 80
1, 110850, Control_c, 0, 64, 83
1, 110865, Control_c, 0, 64, 86
1, 110879, Control_c, 0, 64, 88
1, 110894, Control_c, 0, 64, 89
1, 110909, Control_c, 0, 64, 90
1, 110924, Control_c, 0, 64, 91
1, 110939, Control_c, 0, 64, 93
1, 110953, Control_c, 0, 64, 94
1, 110968, Control_c, 0, 64, 96
1, 110983, Control_c, 0, 64, 97
1, 111005, Control_c, 0, 64, 98
1, 111020, Control_c, 0, 64, 98
1, 111065, Control_c, 0, 64, 99
1, 111113, Note_on_c, 0, 61, 32
1, 111519, Note_off_c, 0, 49, 37
1, 111584, Control_c, 0, 64, 98
1, 111702, Control_c, 0, 64, 98
1, 111769, Control_c, 0, 64, 97
1, 111828, Control_c, 0, 64, 97
1, 111888, Control_c, 0, 64, 96
1, 111895, Note_off_c, 0, 61, 38
1, 111961, Control_c, 0, 64, 96
1, 112021, Control_c, 0, 64, 95
1, 112095, Control_c, 0, 64, 95
1, 112139, Control_c, 0, 64, 94
1, 112169, Control_c, 0, 64, 94
1, 112199, Control_c, 0, 64, 93
1, 112243, Control_c, 0, 64, 93
1, 112273, Control_c, 0, 64, 92
1, 112303, Control_c, 0, 64, 92
1, 112347, Control_c, 0, 64, 91
1, 112376, Control_c, 0, 64, 91
1, 112391, Control_c, 0, 64, 90
1, 112406, Control_c, 0, 64, 90
1, 112436, Control_c, 0, 64, 89
1, 112450, Control_c, 0, 64, 89
1, 112465, Control_c, 0, 64, 88
1, 112480, Control_c, 0, 64, 88
1, 112503, Control_c, 0, 64, 87
1, 112518, Control_c, 0, 64, 86
1, 112532, Control_c, 0, 64, 86
1, 112547, Control_c, 0, 64, 85
1, 112562, Control_c, 0, 64, 84
1, 112576, Control_c, 0, 64, 84
1, 112591, Control_c, 0, 64, 83
1, 112606, Control_c, 0, 64, 83
1, 112621, Control_c, 0, 64, 82
1, 112650, Control_c, 0, 64, 82
1, 112665, Control_c, 0, 64, 81
1, 112680, Control_c, 0, 64, 81
1, 112694, Control_c, 0, 64, 80
1, 112709, Control_c, 0, 64, 79
1, 112724, Control_c, 0, 64, 79
1, 112754, Control_c, 0, 64, 78
1, 112768, Control_c, 0, 64, 78
1, 112783, Control_c, 0, 64, 77
1, 112798, Control_c, 0, 64, 76
1, 112813, Control_c, 0, 64, 76
1, 112828, Control_c, 0, 64, 75
1, 112842, Control_c, 0, 64, 74
1, 112857, Control_c, 0, 64, 74
1, 112872, Control_c, 0, 64, 73
1, 112887, Control_c, 0, 64, 72
1, 112902, Control_c, 0, 64, 71
1, 112917, Control_c, 0, 64, 71
1, 112932, Control_c, 0, 64, 69
1, 112947, Control_c, 0, 64, 68
1, 112962, Control_c, 0, 64, 66
1, 112978, Control_c, 0, 64, 64
1, 112992, Control_c, 0, 64, 63
1, 113037, Control_c, 0, 64, 63
1, 113111, Control_c, 0, 64, 63
1, 113771, Control_c, 0, 64, 63
1, 114030, Control_c, 0, 64, 64
1, 114134, Control_c, 0, 64, 64
1, 114208, Control_c, 0, 64, 65
1, 114223, Control_c, 0, 64, 65
1, 114252, Control_c, 0, 64, 66
1, 114312, Control_c, 0, 64, 66
1, 114327, Control_c, 0, 64, 67
1, 114341, Control_c, 0, 64, 67
1, 114356, Control_c, 0, 64, 68
1, 114371, Control_c, 0, 64, 68
1, 114386, Control_c, 0, 64, 69
1, 114401, Control_c, 0, 64, 69
1, 114415, Control_c, 0, 64, 70
1, 114445, Control_c, 0, 64, 70
1, 114460, Control_c, 0, 64, 71
1, 114489, Control_c, 0, 64, 71
1, 114504, Control_c, 0, 64, 72
1, 114519, Control_c, 0, 64, 73
1, 114534, Control_c, 0, 64, 74
1, 114548, Control_c, 0, 64, 75
1, 114564, Control_c, 0, 64, 76
1, 114579, Control_c, 0, 64, 77
1, 114594, Control_c, 0, 64, 77
1, 114609, Control_c, 0, 64, 79
1, 114624, Control_c, 0, 64, 80
1, 114638, Control_c, 0, 64, 81
1, 114653, Control_c, 0, 64, 82
1, 114668, Control_c, 0, 64, 83
1, 114683, Control_c, 0, 64, 84
1, 114698, Control_c, 0, 64, 86
1, 114712, Control_c, 0, 64, 88
1, 114727, Control_c, 0, 64, 89
1, 114750, Control_c, 0, 64, 91
1, 114762, Note_on_c, 0, 70, 44
1, 114765, Control_c, 0, 64, 92
1, 114779, Control_c, 0, 64, 94
1, 114794, Control_c, 0, 64, 97
1, 114809, Control_c, 0, 64, 100
1, 114824, Control_c, 0, 64, 103
1, 114839, Control_c, 0, 64, 106
1, 114853, Control_c, 0, 64, 109
1, 114868, Control_c, 0, 64, 112
1, 114883, Control_c, 0, 64, 115
1, 114898, Control_c, 0, 64, 119
1, 114913, Control_c, 0, 64, 124
1, 114927, Control_c, 0, 64, 127
1, 115901, Note_on_c, 0, 71, 32
1, 115960, Note_off_c, 0, 70, 37
1, 116217, Note_on_c, 0, 37, 19
1, 116223, Note_on_c, 0, 70, 44
1, 116321, Control_c, 0, 64, 122
1, 116336, Control_c, 0, 64, 113
1, 116351, Control_c, 0, 64, 106
1, 116366, Control_c, 0, 64, 100
1, 116381, Control_c, 0, 64, 93
1, 116394, Note_off_c, 0, 71, 39
1, 116396, Control_c, 0, 64, 86
1, 116411, Control_c, 0, 64, 79
1, 116412, Poly_aftertouch_c, 0, 61, 127
1, 116425, Control_c, 0, 64, 71
1, 116440, Control_c, 0, 64, 63
1, 116455, Control_c, 0, 64, 20
1, 116469, Poly_aftertouch_c, 0, 61, 0
1, 116470, Control_c, 0, 64, 0
1, 116646, Control_c, 0, 64, 31
1, 116661, Control_c, 0, 64, 53
1, 116676, Control_c, 0, 64, 59
1, 116691, Control_c, 0, 64, 60
1, 116706, Control_c, 0, 64, 61
1, 116721, Control_c, 0, 64, 62
1, 116744, Note_on_c, 0, 68, 44
1, 116809, Control_c, 0, 64, 61
1, 116824, Control_c, 0, 64, 61
1, 116928, Control_c, 0, 64, 61
1, 117059, Note_on_c, 0, 49, 26
1, 117066, Note_on_c, 0, 65, 47
1, 117069, Control_c, 0, 64, 62
1, 117099, Control_c, 0, 64, 63
1, 117114, Control_c, 0, 64, 65
1, 117129, Control_c, 0, 64, 68
1, 117144, Control_c, 0, 64, 72
1, 117159, Control_c, 0, 64, 77
1, 117173, Control_c, 0, 64, 83
1, 117180, Note_off_c, 0, 68, 54
1, 117188, Control_c, 0, 64, 88
1, 117203, Control_c, 0, 64, 91
1, 117207, Note_off_c, 0, 37, 42
1, 117218, Control_c, 0, 64, 96
1, 117228, Note_off_c, 0, 70, 41
1, 117233, Control_c, 0, 64, 100
1, 117247, Control_c, 0, 64, 106
1, 117262, Control_c, 0, 64, 114
1, 117277, Control_c, 0, 64, 123
1, 117292, Control_c, 0, 64, 127
1, 117351, Note_off_c, 0, 49, 51
1, 117634, Note_on_c, 0, 61, 38
1, 117672, Note_off_c, 0, 61, 55
1, 117793, Note_on_c, 0, 53, 24
1, 117797, Note_on_c, 0, 59, 22
1, 117797, Note_on_c, 0, 61, 48
1, 117848, Control_c, 0, 64, 116
1, 117862, Control_c, 0, 64, 106
1, 117877, Control_c, 0, 64, 97
1, 117892, Control_c, 0, 64, 88
1, 117907, Control_c, 0, 64, 78
1, 117922, Control_c, 0, 64, 69
1, 117937, Control_c, 0, 64, 51
1, 117952, Control_c, 0, 64, 0
1, 117996, Control_c, 0, 64, 33
1, 118011, Control_c, 0, 64, 62
1, 118026, Control_c, 0, 64, 68
1, 118041, Control_c, 0, 64, 72
1, 118056, Control_c, 0, 64, 78
1, 118070, Control_c, 0, 64, 81
1, 118085, Control_c, 0, 64, 84
1, 118100, Control_c, 0, 64, 87
1, 118114, Control_c, 0, 64, 90
1, 118127, Note_off_c, 0, 61, 62
1, 118129, Control_c, 0, 64, 92
1, 118143, Control_c, 0, 64, 96
1, 118151, Note_off_c, 0, 65, 38
1, 118158, Control_c, 0, 64, 99
1, 118173, Control_c, 0, 64, 102
1, 118187, Control_c, 0, 64, 104
1, 118202, Control_c, 0, 64, 106
1, 118217, Control_c, 0, 64, 107
1, 118232, Control_c, 0, 64, 107
1, 118247, Control_c, 0, 64, 108
1, 118262, Control_c, 0, 64, 109
1, 118277, Control_c, 0, 64, 111
1, 118292, Control_c, 0, 64, 113
1, 118306, Control_c, 0, 64, 115
1, 118321, Control_c, 0, 64, 116
1, 118336, Control_c, 0, 64, 117
1, 118351, Control_c, 0, 64, 118
1, 118366, Control_c, 0, 64, 118
1, 118380, Control_c, 0, 64, 119
1, 118395, Control_c, 0, 64, 120
1, 118397, Note_on_c, 0, 61, 53
1, 118410, Control_c, 0, 64, 121
1, 118425, Control_c, 0, 64, 122
1, 118432, Note_on_c, 0, 49, 27
1, 118440, Control_c, 0, 64, 122
1, 118455, Note_off_c, 0, 59, 35
1, 118455, Control_c, 0, 64, 123
1, 118469, Control_c, 0, 64, 124
1, 118491, Control_c, 0, 64, 125
1, 118506, Control_c, 0, 64, 126
1, 118521, Control_c, 0, 64, 127
1, 118544, Note_off_c, 0, 53, 43
1, 118689, Note_off_c, 0, 61, 62
1, 119096, Note_on_c, 0, 61, 50
1, 119105, Note_on_c, 0, 42, 35
1, 119114, Control_c, 0, 64, 121
1, 119129, Control_c, 0, 64, 116
1, 119144, Control_c, 0, 64, 111
1, 119159, Control_c, 0, 64, 105
1, 119174, Control_c, 0, 64, 100
1, 119189, Control_c, 0, 64, 93
1, 119203, Control_c, 0, 64, 86
1, 119218, Control_c, 0, 64, 78
1, 119240, Control_c, 0, 64, 69
1, 119255, Control_c, 0, 64, 52
1, 119269, Control_c, 0, 64, 0
1, 119298, Note_off_c, 0, 49, 33
1, 119389, Control_c, 0, 64, 31
1, 119404, Control_c, 0, 64, 63
1, 119419, Control_c, 0, 64, 68
1, 119433, Control_c, 0, 64, 73
1, 119448, Control_c, 0, 64, 78
1, 119463, Control_c, 0, 64, 82
1, 119478, Control_c, 0, 64, 85
1, 119493, Control_c, 0, 64, 89
1, 119508, Control_c, 0, 64, 92
1, 119523, Control_c, 0, 64, 96
1, 119538, Control_c, 0, 64, 100
1, 119552, Control_c, 0, 64, 104
1, 119567, Control_c, 0, 64, 107
1, 119582, Control_c, 0, 64, 110
1, 119597, Control_c, 0, 64, 114
1, 119612, Control_c, 0, 64, 117
1, 119627, Control_c, 0, 64, 121
1, 119642, Control_c, 0, 64, 125
1, 119657, Control_c, 0, 64, 127
1, 119903, Note_on_c, 0, 49, 28
1, 119994, Note_off_c, 0, 61, 52
1, 120022, Note_off_c, 0, 42, 41
1, 120031, Note_on_c, 0, 66, 41
1, 120177, Note_off_c, 0, 49, 40
1, 120189, Note_on_c, 0, 70, 57
1, 120355, Note_on_c, 0, 75, 59
1, 120506, Note_off_c, 0, 66, 38
1, 120533, Note_off_c, 0, 70, 55
1, 120662, Note_on_c, 0, 54, 36
1, 120671, Note_on_c, 0, 73, 48
1, 120674, Note_on_c, 0, 58, 33
1, 120832, Note_off_c, 0, 75, 58
1, 120956, Note_off_c, 0, 58, 40
1, 120965, Note_off_c, 0, 73, 62
1, 121571, Note_on_c, 0, 49, 29
1, 121588, Note_on_c, 0, 70, 40
1, 121621, Control_c, 0, 64, 125
1, 121636, Control_c, 0, 64, 119
1, 121651, Control_c, 0, 64, 115
1, 121665, Control_c, 0, 64, 109
1, 121680, Control_c, 0, 64, 104
1, 121695, Control_c, 0, 64, 96
1, 121710, Control_c, 0, 64, 89
1, 121718, Note_off_c, 0, 54, 39
1, 121725, Control_c, 0, 64, 80
1, 121739, Control_c, 0, 64, 71
1, 121755, Control_c, 0, 64, 56
1, 121770, Control_c, 0, 64, 0
1, 121826, Note_off_c, 0, 70, 57
1, 121833, Note_on_c, 0, 71, 34
1, 121874, Control_c, 0, 64, 47
1, 121889, Control_c, 0, 64, 65
1, 121903, Control_c, 0, 64, 70
1, 121918, Control_c, 0, 64, 74
1, 121933, Control_c, 0, 64, 77
1, 121948, Control_c, 0, 64, 78
1, 121954, Note_off_c, 0, 71, 59
1, 121962, Control_c, 0, 64, 79
1, 121971, Note_on_c, 0, 70, 46
1, 121977, Control_c, 0, 64, 80
1, 121992, Control_c, 0, 64, 81
1, 122007, Control_c, 0, 64, 82
1, 122022, Control_c, 0, 64, 82
1, 122036, Control_c, 0, 64, 83
1, 122044, Note_off_c, 0, 70, 60
1, 122066, Control_c, 0, 64, 83
1, 122088, Note_on_c, 0, 69, 45
1, 122095, Control_c, 0, 64, 84
1, 122155, Control_c, 0, 64, 84
1, 122170, Control_c, 0, 64, 85
1, 122173, Note_off_c, 0, 69, 56
1, 122182, Note_on_c, 0, 70, 37
1, 122185, Control_c, 0, 64, 86
1, 122200, Control_c, 0, 64, 88
1, 122214, Control_c, 0, 64, 89
1, 122223, Note_off_c, 0, 70, 48
1, 122236, Control_c, 0, 64, 91
1, 122250, Note_on_c, 0, 73, 55
1, 122251, Control_c, 0, 64, 92
1, 122266, Control_c, 0, 64, 92
1, 122280, Control_c, 0, 64, 93
1, 122325, Control_c, 0, 67, 8
1, 122340, Control_c, 0, 67, 15
1, 122355, Control_c, 0, 67, 27
1, 122367, Note_on_c, 0, 72, 48
1, 122369, Control_c, 0, 67, 43
1, 122384, Control_c, 0, 67, 61
1, 122399, Control_c, 0, 67, 79
1, 122414, Control_c, 0, 67, 100
1, 122429, Control_c, 0, 67, 116
1, 122444, Control_c, 0, 67, 127
1, 122510, Note_off_c, 0, 72, 63
1, 122518, Control_c, 0, 64, 92
1, 122533, Control_c, 0, 64, 91
1, 122540, Note_off_c, 0, 73, 14
1, 122546, Note_on_c, 0, 42, 37
1, 122548, Control_c, 0, 64, 88
1, 122563, Control_c, 0, 64, 84
1, 122565, Note_on_c, 0, 71, 44
1, 122578, Control_c, 0, 64, 77
1, 122593, Control_c, 0, 64, 67
1, 122608, Control_c, 0, 64, 0
1, 122694, Note_off_c, 0, 49, 33
1, 122711, Control_c, 0, 64, 34
1, 122726, Note_off_c, 0, 71, 57
1, 122726, Control_c, 0, 64, 63
1, 122741, Control_c, 0, 64, 69
1, 122745, Note_on_c, 0, 80, 44
1, 122756, Control_c, 0, 64, 72
1, 122771, Control_c, 0, 64, 73
1, 122785, Control_c, 0, 64, 75
1, 122800, Control_c, 0, 64, 76
1, 122815, Control_c, 0, 64, 78
1, 122830, Control_c, 0, 64, 79
1, 122845, Control_c, 0, 64, 81
1, 122852, Note_off_c, 0, 80, 53
1, 122859, Control_c, 0, 64, 81
1, 122862, Note_on_c, 0, 71, 47
1, 122874, Control_c, 0, 64, 82
1, 122889, Control_c, 0, 64, 82
1, 122906, Note_off_c, 0, 71, 53
1, 122921, Note_on_c, 0, 70, 52
1, 122949, Note_off_c, 0, 70, 54
1, 122985, Control_c, 0, 64, 83
1, 123022, Note_on_c, 0, 79, 36
1, 123050, Note_on_c, 0, 70, 57
1, 123055, Note_off_c, 0, 79, 49
1, 123124, Note_off_c, 0, 70, 60
1, 123133, Note_on_c, 0, 69, 54
1, 123180, Note_off_c, 0, 69, 60
1, 123192, Note_on_c, 0, 78, 60
1, 123279, Note_on_c, 0, 69, 55
1, 123291, Note_off_c, 0, 78, 62
1, 123326, Note_on_c, 0, 50, 36
1, 123335, Note_off_c, 0, 69, 59
1, 123339, Note_on_c, 0, 68, 59
1, 123356, Control_c, 0, 64, 82
1, 123385, Note_off_c, 0, 68, 57
1, 123386, Control_c, 0, 64, 81
1, 123401, Control_c, 0, 64, 79
1, 123416, Control_c, 0, 64, 75
1, 123424, Note_off_c, 0, 42, 40
1, 123426, Note_on_c, 0, 77, 56
1, 123431, Control_c, 0, 64, 69
1, 123446, Control_c, 0, 64, 60
1, 123460, Control_c, 0, 64, 0
1, 123492, Note_on_c, 0, 68, 49
1, 123499, Note_off_c, 0, 77, 56
1, 123505, Control_c, 0, 64, 42
1, 123520, Control_c, 0, 64, 60
1, 123534, Control_c, 0, 64, 63
1, 123549, Control_c, 0, 64, 64
1, 123557, Note_on_c, 0, 67, 59
1, 123564, Control_c, 0, 64, 63
1, 123573, Note_off_c, 0, 68, 61
1, 123579, Control_c, 0, 64, 63
1, 123594, Control_c, 0, 64, 62
1, 123595, Note_off_c, 0, 67, 61
1, 123623, Control_c, 0, 64, 63
1, 123632, Note_on_c, 0, 76, 55
1, 123638, Control_c, 0, 64, 63
1, 123653, Control_c, 0, 64, 64
1, 123668, Control_c, 0, 64, 65
1, 123682, Control_c, 0, 64, 66
1, 123686, Note_off_c, 0, 76, 65
1, 123697, Control_c, 0, 64, 68
1, 123702, Note_on_c, 0, 67, 54
1, 123712, Control_c, 0, 64, 70
1, 123734, Control_c, 0, 64, 71
1, 123749, Control_c, 0, 64, 73
1, 123754, Note_off_c, 0, 67, 55
1, 123764, Control_c, 0, 64, 74
1, 123779, Control_c, 0, 64, 75
1, 123783, Note_on_c, 0, 66, 47
1, 123794, Control_c, 0, 64, 75
1, 123808, Control_c, 0, 64, 76
1, 123812, Note_off_c, 0, 66, 54
1, 123850, Note_on_c, 0, 75, 53
1, 123897, Control_c, 0, 64, 76
1, 123915, Note_on_c, 0, 66, 58
1, 123970, Note_off_c, 0, 75, 36
1, 124004, Note_off_c, 0, 66, 65
1, 124032, Note_on_c, 0, 65, 50
1, 124164, Control_c, 0, 64, 76
1, 124179, Control_c, 0, 64, 75
1, 124184, Note_off_c, 0, 65, 40
1, 124194, Control_c, 0, 64, 74
1, 124200, Note_on_c, 0, 56, 30
1, 124204, Note_on_c, 0, 74, 51
1, 124207, Note_on_c, 0, 59, 27
1, 124209, Control_c, 0, 64, 72
1, 124224, Control_c, 0, 64, 69
1, 124238, Control_c, 0, 64, 63
1, 124253, Control_c, 0, 64, 22
1, 124268, Control_c, 0, 64, 0
1, 124286, Note_off_c, 0, 50, 39
1, 124346, Note_on_c, 0, 73, 47
1, 124357, Control_c, 0, 64, 52
1, 124372, Control_c, 0, 64, 64
1, 124382, Note_off_c, 0, 74, 37
1, 124387, Control_c, 0, 64, 68
1, 124402, Control_c, 0, 64, 70
1, 124417, Control_c, 0, 64, 71
1, 124447, Note_on_c, 0, 72, 61
1, 124482, Note_off_c, 0, 73, 46
1, 124489, Note_off_c, 0, 72, 62
1, 124498, Control_c, 0, 64, 71
1, 124535, Note_on_c, 0, 71, 51
1, 124584, Note_off_c, 0, 71, 44
1, 124607, Note_on_c, 0, 70, 52
1, 124686, Note_on_c, 0, 69, 38
1, 124713, Note_off_c, 0, 69, 58
1, 124720, Note_off_c, 0, 70, 38
1, 124720, Control_c, 0, 64, 72
1, 124735, Control_c, 0, 64, 73
1, 124742, Note_on_c, 0, 68, 49
1, 124749, Control_c, 0, 64, 74
1, 124764, Note_off_c, 0, 68, 59
1, 124764, Control_c, 0, 64, 76
1, 124779, Control_c, 0, 64, 76
1, 124784, Note_on_c, 0, 67, 61
1, 124850, Note_off_c, 0, 67, 54
1, 124853, Note_on_c, 0, 66, 59
1, 124906, Note_off_c, 0, 66, 49
1, 124915, Note_on_c, 0, 65, 55
1, 124987, Control_c, 0, 64, 76
1, 125000, Note_off_c, 0, 65, 38
1, 125002, Note_on_c, 0, 66, 54
1, 125002, Control_c, 0, 64, 74
1, 125010, Note_on_c, 0, 49, 40
1, 125017, Control_c, 0, 64, 72
1, 125032, Control_c, 0, 64, 65
1, 125046, Control_c, 0, 64, 40
1, 125061, Control_c, 0, 64, 0
1, 125065, Note_on_c, 0, 65, 46
1, 125109, Note_off_c, 0, 65, 64
1, 125130, Note_off_c, 0, 66, 42
1, 125144, Note_off_c, 0, 59, 20
1, 125148, Note_on_c, 0, 63, 53
1, 125169, Note_off_c, 0, 56, 34
1, 125180, Control_c, 0, 64, 32
1, 125190, Note_off_c, 0, 63, 65
1, 125195, Control_c, 0, 64, 61
1, 125210, Control_c, 0, 64, 65
1, 125232, Control_c, 0, 64, 66
1, 125233, Note_on_c, 0, 65, 53
1, 125291, Control_c, 0, 64, 66
1, 125297, Note_off_c, 0, 65, 62
1, 125309, Note_on_c, 0, 66, 49
1, 125347, Note_off_c, 0, 66, 60
1, 125377, Note_on_c, 0, 70, 49
1, 125395, Control_c, 0, 64, 66
1, 125439, Note_on_c, 0, 68, 56
1, 125445, Note_off_c, 0, 70, 51
1, 125454, Control_c, 0, 64, 65
1, 125499, Note_off_c, 0, 68, 61
1, 125513, Control_c, 0, 64, 65
1, 125523, Note_on_c, 0, 65, 60
1, 125543, Control_c, 0, 64, 64
1, 125558, Control_c, 0, 64, 64
1, 125572, Note_off_c, 0, 65, 60
1, 125572, Control_c, 0, 64, 63
1, 125587, Control_c, 0, 64, 62
1, 125602, Control_c, 0, 64, 59
1, 125617, Control_c, 0, 64, 56
1, 125628, Note_on_c, 0, 66, 44
1, 125633, Control_c, 0, 64, 53
1, 125647, Control_c, 0, 64, 52
1, 125662, Control_c, 0, 64, 52
1, 125677, Control_c, 0, 64, 54
1, 125692, Control_c, 0, 64, 56
1, 125706, Control_c, 0, 64, 59
1, 125715, Note_off_c, 0, 66, 63
1, 125721, Control_c, 0, 64, 61
1, 125736, Control_c, 0, 64, 62
1, 125752, Control_c, 0, 64, 63
1, 125760, Note_on_c, 0, 63, 43
1, 125767, Control_c, 0, 64, 63
1, 125782, Control_c, 0, 64, 64
1, 125797, Control_c, 0, 64, 65
1, 125811, Control_c, 0, 64, 66
1, 125826, Control_c, 0, 64, 68
1, 125841, Control_c, 0, 64, 69
1, 125856, Control_c, 0, 64, 70
1, 125871, Control_c, 0, 64, 70
1, 125885, Control_c, 0, 64, 71
1, 125900, Control_c, 0, 64, 72
1, 125904, Note_off_c, 0, 63, 55
1, 125915, Control_c, 0, 64, 74
1, 125929, Control_c, 0, 64, 76
1, 125938, Note_on_c, 0, 68, 56
1, 125944, Control_c, 0, 64, 78
1, 125959, Control_c, 0, 64, 80
1, 125982, Control_c, 0, 64, 81
1, 125997, Control_c, 0, 64, 83
1, 126011, Control_c, 0, 64, 84
1, 126017, Note_off_c, 0, 68, 63
1, 126026, Control_c, 0, 64, 85
1, 126041, Control_c, 0, 64, 85
1, 126056, Control_c, 0, 64, 86
1, 126071, Control_c, 0, 64, 87
1, 126100, Control_c, 0, 64, 87
1, 126322, Note_on_c, 0, 68, 48
1, 126337, Control_c, 0, 64, 87
1, 126347, Note_on_c, 0, 42, 33
1, 126367, Control_c, 0, 64, 86
1, 126381, Control_c, 0, 64, 85
1, 126395, Control_c, 0, 64, 84
1, 126410, Control_c, 0, 64, 83
1, 126425, Control_c, 0, 64, 80
1, 126440, Control_c, 0, 64, 77
1, 126454, Control_c, 0, 64, 71
1, 126469, Control_c, 0, 64, 60
1, 126472, Note_off_c, 0, 49, 35
1, 126484, Control_c, 0, 64, 0
1, 126564, Note_on_c, 0, 61, 50
1, 126677, Note_off_c, 0, 68, 59
1, 126833, Control_c, 0, 64, 61
1, 126848, Control_c, 0, 64, 67
1, 126863, Control_c, 0, 64, 71
1, 126877, Control_c, 0, 64, 73
1, 126892, Control_c, 0, 64, 75
1, 126907, Control_c, 0, 64, 77
1, 126922, Control_c, 0, 64, 79
1, 126937, Control_c, 0, 64, 81
1, 126951, Control_c, 0, 64, 83
1, 126966, Control_c, 0, 64, 86
1, 126981, Control_c, 0, 64, 89
1, 126996, Control_c, 0, 64, 92
1, 127011, Control_c, 0, 64, 94
1, 127026, Control_c, 0, 64, 95
1, 127041, Control_c, 0, 64, 97
1, 127055, Control_c, 0, 64, 99
1, 127070, Control_c, 0, 64, 101
1, 127085, Control_c, 0, 64, 104
1, 127100, Control_c, 0, 64, 106
1, 127115, Control_c, 0, 64, 109
1, 127130, Control_c, 0, 64, 111
1, 127139, Note_on_c, 0, 49, 36
1, 127144, Control_c, 0, 64, 115
1, 127159, Control_c, 0, 64, 119
1, 127174, Control_c, 0, 64, 123
1, 127189, Control_c, 0, 64, 127
1, 127229, Note_off_c, 0, 61, 54
1, 127251, Note_on_c, 0, 66, 47
1, 127395, Note_on_c, 0, 70, 65
1, 127419, Note_off_c, 0, 42, 31
1, 127422, Note_off_c, 0, 66, 64
1, 127627, Control_c, 0, 67, 117
1, 127642, Control_c, 0, 67, 95
1, 127656, Control_c, 0, 67, 72
1, 127660, Note_on_c, 0, 78, 60
1, 127671, Control_c, 0, 67, 53
1, 127686, Control_c, 0, 67, 39
1, 127700, Control_c, 0, 67, 34
1, 127715, Control_c, 0, 67, 30
1, 127730, Control_c, 0, 67, 24
1, 127745, Control_c, 0, 67, 17
1, 127760, Control_c, 0, 67, 0
1, 127783, Note_off_c, 0, 49, 51
1, 127797, Note_off_c, 0, 70, 62
1, 127859, Note_off_c, 0, 78, 65
1, 128409, Note_on_c, 0, 75, 39
1, 128553, Note_on_c, 0, 58, 34
1, 128553, Note_on_c, 0, 73, 46
1, 128559, Note_on_c, 0, 61, 32
1, 128560, Note_off_c, 0, 75, 28
1, 128568, Note_on_c, 0, 54, 36
1, 128612, Control_c, 0, 64, 122
1, 128627, Control_c, 0, 64, 111
1, 128641, Control_c, 0, 64, 103
1, 128656, Control_c, 0, 64, 93
1, 128671, Control_c, 0, 64, 82
1, 128686, Control_c, 0, 64, 72
1, 128701, Control_c, 0, 64, 59
1, 128716, Control_c, 0, 64, 0
1, 128835, Control_c, 0, 64, 57
1, 128849, Control_c, 0, 64, 67
1, 128864, Control_c, 0, 64, 75
1, 128879, Control_c, 0, 64, 81
1, 128894, Control_c, 0, 64, 84
1, 128909, Control_c, 0, 64, 87
1, 128923, Control_c, 0, 64, 90
1, 128939, Control_c, 0, 64, 92
1, 128954, Control_c, 0, 64, 96
1, 128976, Note_off_c, 0, 61, 41
1, 128976, Control_c, 0, 64, 99
1, 128991, Control_c, 0, 64, 102
1, 129006, Control_c, 0, 64, 104
1, 129020, Control_c, 0, 64, 106
1, 129035, Control_c, 0, 64, 108
1, 129050, Control_c, 0, 64, 110
1, 129051, Note_off_c, 0, 54, 41
1, 129052, Note_off_c, 0, 58, 38
1, 129055, Note_off_c, 0, 73, 62
1, 129065, Control_c, 0, 64, 112
1, 129079, Control_c, 0, 64, 113
1, 129094, Control_c, 0, 64, 115
1, 129109, Control_c, 0, 64, 117
1, 129124, Control_c, 0, 64, 119
1, 129139, Control_c, 0, 64, 121
1, 129154, Control_c, 0, 64, 122
1, 129169, Control_c, 0, 64, 124
1, 129184, Control_c, 0, 64, 125
1, 129199, Control_c, 0, 64, 125
1, 129214, Control_c, 0, 64, 126
1, 129258, Control_c, 0, 64, 126
1, 129627, Control_c, 0, 64, 126
1, 129723, Control_c, 0, 64, 125
1, 129738, Control_c, 0, 64, 125
1, 129754, Control_c, 0, 64, 123
1, 129768, Control_c, 0, 64, 121
1, 129783, Control_c, 0, 64, 119
1, 129798, Control_c, 0, 64, 115
1, 129810, Note_on_c, 0, 71, 47
1, 129813, Control_c, 0, 64, 111
1, 129828, Control_c, 0, 64, 108
1, 129843, Control_c, 0, 64, 104
1, 129857, Control_c, 0, 64, 100
1, 129872, Control_c, 0, 64, 95
1, 129887, Control_c, 0, 64, 90
1, 129902, Control_c, 0, 64, 83
1, 129917, Control_c, 0, 64, 74
1, 129932, Control_c, 0, 64, 65
1, 129947, Control_c, 0, 64, 18
1, 129962, Control_c, 0, 64, 0
1, 130124, Control_c, 0, 64, 55
1, 130139, Control_c, 0, 64, 66
1, 130154, Control_c, 0, 64, 72
1, 130168, Control_c, 0, 64, 79
1, 130183, Control_c, 0, 64, 84
1, 130198, Control_c, 0, 64, 87
1, 130213, Control_c, 0, 64, 89
1, 130228, Control_c, 0, 64, 92
1, 130242, Control_c, 0, 64, 94
1, 130257, Control_c, 0, 64, 98
1, 130272, Control_c, 0, 64, 101
1, 130287, Control_c, 0, 64, 105
1, 130302, Control_c, 0, 64, 107
1, 130317, Control_c, 0, 64, 108
1, 130331, Control_c, 0, 64, 109
1, 130346, Control_c, 0, 64, 110
1, 130361, Control_c, 0, 64, 111
1, 130364, Note_on_c, 0, 73, 56
1, 130365, Note_off_c, 0, 71, 55
1, 130391, Control_c, 0, 64, 111
1, 130472, Control_c, 0, 64, 111
1, 130501, Control_c, 0, 64, 110
1, 130516, Control_c, 0, 64, 108
1, 130525, Note_on_c, 0, 71, 52
1, 130527, Note_on_c, 0, 39, 28
1, 130531, Control_c, 0, 64, 105
1, 130547, Control_c, 0, 64, 101
1, 130562, Control_c, 0, 64, 96
1, 130577, Control_c, 0, 64, 91
1, 130587, Note_off_c, 0, 73, 52
1, 130591, Control_c, 0, 64, 84
1, 130606, Control_c, 0, 64, 77
1, 130621, Control_c, 0, 64, 68
1, 130636, Control_c, 0, 64, 48
1, 130651, Control_c, 0, 64, 0
1, 130844, Note_on_c, 0, 70, 60
1, 130943, Note_off_c, 0, 71, 58
1, 131181, Note_on_c, 0, 67, 54
1, 131195, Note_on_c, 0, 51, 29
1, 131259, Note_off_c, 0, 70, 57
1, 131292, Note_off_c, 0, 39, 42
1, 131355, Control_c, 0, 64, 64
1, 131370, Control_c, 0, 64, 71
1, 131385, Control_c, 0, 64, 77
1, 131400, Control_c, 0, 64, 83
1, 131415, Control_c, 0, 64, 88
1, 131429, Control_c, 0, 64, 92
1, 131444, Control_c, 0, 64, 96
1, 131459, Control_c, 0, 64, 99
1, 131473, Control_c, 0, 64, 103
1, 131488, Control_c, 0, 64, 106
1, 131498, Note_off_c, 0, 51, 56
1, 131503, Control_c, 0, 64, 110
1, 131518, Control_c, 0, 64, 112
1, 131533, Control_c, 0, 64, 115
1, 131548, Control_c, 0, 64, 115
1, 131563, Control_c, 0, 64, 116
1, 131622, Control_c, 0, 64, 116
1, 131678, Note_on_c, 0, 63, 59
1, 131722, Note_off_c, 0, 63, 59
1, 131873, Control_c, 0, 64, 115
1, 131876, Note_on_c, 0, 55, 26
1, 131876, Note_on_c, 0, 63, 52
1, 131877, Note_on_c, 0, 61, 29
1, 131888, Control_c, 0, 64, 112
1, 131903, Control_c, 0, 64, 107
1, 131918, Control_c, 0, 64, 99
1, 131932, Control_c, 0, 64, 91
1, 131947, Control_c, 0, 64, 83
1, 131970, Control_c, 0, 64, 75
1, 131980, Note_on_c, 0, 73, 15
1, 131985, Control_c, 0, 64, 66
1, 132000, Control_c, 0, 64, 49
1, 132014, Control_c, 0, 64, 51
1, 132029, Control_c, 0, 64, 65
1, 132036, Note_off_c, 0, 73, 42
1, 132044, Control_c, 0, 64, 71
1, 132059, Control_c, 0, 64, 79
1, 132073, Control_c, 0, 64, 85
1, 132088, Control_c, 0, 64, 90
1, 132103, Control_c, 0, 64, 94
1, 132118, Control_c, 0, 64, 97
1, 132133, Control_c, 0, 64, 100
1, 132149, Control_c, 0, 64, 103
1, 132163, Control_c, 0, 64, 106
1, 132178, Control_c, 0, 64, 110
1, 132193, Control_c, 0, 64, 113
1, 132194, Note_off_c, 0, 63, 62
1, 132208, Control_c, 0, 64, 117
1, 132212, Note_off_c, 0, 67, 40
1, 132223, Control_c, 0, 64, 121
1, 132232, Note_off_c, 0, 61, 47
1, 132237, Control_c, 0, 64, 127
1, 132502, Note_on_c, 0, 63, 66
1, 132504, Note_on_c, 0, 51, 39
1, 132598, Note_off_c, 0, 55, 31
1, 132672, Note_off_c, 0, 51, 55
1, 132845, Note_off_c, 0, 63, 61
1, 133342, Control_c, 0, 64, 113
1, 133343, Note_on_c, 0, 44, 42
1, 133347, Note_on_c, 0, 32, 44
1, 133351, Note_on_c, 0, 63, 68
1, 133357, Control_c, 0, 64, 97
1, 133372, Control_c, 0, 64, 83
1, 133386, Control_c, 0, 64, 69
1, 133401, Control_c, 0, 64, 0
1, 133431, Note_on_c, 0, 73, 16
1, 133445, Control_c, 0, 64, 27
1, 133467, Control_c, 0, 64, 69
1, 133481, Note_off_c, 0, 73, 49
1, 133482, Control_c, 0, 64, 81
1, 133497, Control_c, 0, 64, 96
1, 133512, Control_c, 0, 64, 110
1, 133527, Control_c, 0, 64, 123
1, 133539, Note_off_c, 0, 63, 66
1, 133542, Control_c, 0, 64, 127
1, 133611, Note_off_c, 0, 32, 53
1, 133629, Note_off_c, 0, 44, 63
1, 133782, Note_on_c, 0, 78, 86
1, 134004, Note_off_c, 0, 78, 48
1, 134047, Note_on_c, 0, 75, 88
1, 134130, Note_off_c, 0, 75, 68
1, 134436, Note_on_c, 0, 90, 84
1, 134441, Note_on_c, 0, 59, 47
1, 134444, Note_on_c, 0, 51, 45
1, 134452, Note_on_c, 0, 56, 46
1, 134785, Note_off_c, 0, 59, 62
1, 134818, Note_off_c, 0, 56, 64
1, 134821, Note_off_c, 0, 51, 62
1, 135351, Control_c, 0, 64, 107
1, 135353, Note_on_c, 0, 35, 60
1, 135354, Note_on_c, 0, 47, 57
1, 135366, Control_c, 0, 64, 83
1, 135381, Control_c, 0, 64, 64
1, 135396, Control_c, 0, 64, 0
1, 135455, Control_c, 0, 64, 61
1, 135470, Control_c, 0, 64, 74
1, 135485, Control_c, 0, 64, 86
1, 135500, Control_c, 0, 64, 101
1, 135514, Control_c, 0, 64, 120
1, 135529, Control_c, 0, 64, 127
1, 135646, Note_off_c, 0, 35, 63
1, 135674, Note_off_c, 0, 47, 63
1, 135725, Note_on_c, 0, 94, 65
1, 135760, Poly_aftertouch_c, 0, 92, 127
1, 135794, Poly_aftertouch_c, 0, 92, 0
1, 135846, Note_off_c, 0, 90, 62
1, 135889, Note_on_c, 0, 92, 69
1, 136004, Note_off_c, 0, 94, 61
1, 136006, Note_on_c, 0, 90, 72
1, 136096, Note_off_c, 0, 92, 62
1, 136102, Note_on_c, 0, 87, 67
1, 136134, Note_off_c, 0, 90, 63
1, 136198, Note_off_c, 0, 87, 63
1, 136205, Note_on_c, 0, 83, 70
1, 136275, Note_off_c, 0, 83, 49
1, 136326, Note_on_c, 0, 82, 69
1, 136344, Note_on_c, 0, 56, 33
1, 136365, Note_on_c, 0, 54, 34
1, 136365, Note_on_c, 0, 59, 32
1, 136375, Note_on_c, 0, 63, 21
1, 136503, Note_on_c, 0, 80, 68
1, 136545, Note_off_c, 0, 82, 56
1, 136663, Note_on_c, 0, 78, 71
1, 136743, Note_off_c, 0, 63, 40
1, 136749, Note_off_c, 0, 80, 59
1, 136877, Note_on_c, 0, 75, 56
1, 136928, Note_off_c, 0, 78, 61
1, 136982, Note_off_c, 0, 75, 63
1, 137096, Note_on_c, 0, 66, 53
1, 137125, Note_off_c, 0, 59, 41
1, 137176, Note_off_c, 0, 56, 50
1, 137182, Note_off_c, 0, 54, 51
1, 137361, Note_off_c, 0, 66, 39
1, 137405, Note_on_c, 0, 68, 47
1, 137834, Note_on_c, 0, 70, 49
1, 137865, Note_on_c, 0, 49, 39
1, 137893, Note_off_c, 0, 68, 60
1, 137894, Control_c, 0, 64, 121
1, 137909, Control_c, 0, 64, 104
1, 137924, Control_c, 0, 64, 88
1, 137939, Control_c, 0, 64, 71
1, 137961, Control_c, 0, 64, 0
1, 138079, Control_c, 0, 64, 48
1, 138094, Control_c, 0, 64, 67
1, 138109, Control_c, 0, 64, 73
1, 138124, Control_c, 0, 64, 79
1, 138138, Control_c, 0, 64, 84
1, 138153, Control_c, 0, 64, 89
1, 138168, Control_c, 0, 64, 92
1, 138183, Control_c, 0, 64, 97
1, 138198, Control_c, 0, 64, 102
1, 138204, Note_off_c, 0, 70, 64
1, 138213, Control_c, 0, 64, 108
1, 138227, Control_c, 0, 64, 113
1, 138242, Control_c, 0, 64, 119
1, 138257, Control_c, 0, 64, 124
1, 138272, Control_c, 0, 64, 127
1, 138611, Note_on_c, 0, 71, 45
1, 138615, Note_on_c, 0, 63, 31
1, 138628, Note_on_c, 0, 54, 35
1, 138672, Control_c, 0, 64, 123
1, 138687, Control_c, 0, 64, 113
1, 138710, Control_c, 0, 64, 104
1, 138725, Control_c, 0, 64, 92
1, 138739, Control_c, 0, 64, 81
1, 138754, Control_c, 0, 64, 69
1, 138769, Control_c, 0, 64, 0
1, 138872, Control_c, 0, 64, 64
1, 138887, Control_c, 0, 64, 71
1, 138902, Control_c, 0, 64, 79
1, 138917, Control_c, 0, 64, 86
1, 138931, Control_c, 0, 64, 88
1, 138946, Control_c, 0, 64, 89
1, 138961, Control_c, 0, 64, 90
1, 138976, Control_c, 0, 64, 90
1, 139006, Control_c, 0, 64, 91
1, 139041, Note_on_c, 0, 70, 57
1, 139155, Control_c, 0, 64, 90
1, 139170, Control_c, 0, 64, 90
1, 139184, Control_c, 0, 64, 89
1, 139199, Control_c, 0, 64, 86
1, 139214, Control_c, 0, 64, 83
1, 139229, Control_c, 0, 64, 77
1, 139244, Control_c, 0, 64, 70
1, 139247, Note_off_c, 0, 71, 33
1, 139258, Control_c, 0, 64, 58
1, 139273, Control_c, 0, 64, 0
1, 139297, Note_on_c, 0, 68, 51
1, 139301, Note_off_c, 0, 70, 58
1, 139310, Note_on_c, 0, 60, 33
1, 139408, Control_c, 0, 64, 56
1, 139422, Control_c, 0, 64, 68
1, 139432, Note_off_c, 0, 63, 43
1, 139432, Note_off_c, 0, 68, 63
1, 139437, Control_c, 0, 64, 76
1, 139442, Note_on_c, 0, 70, 54
1, 139459, Control_c, 0, 64, 83
1, 139474, Control_c, 0, 64, 86
1, 139489, Control_c, 0, 64, 87
1, 139516, Note_off_c, 0, 70, 63
1, 139521, Note_on_c, 0, 68, 65
1, 139572, Note_off_c, 0, 68, 61
1, 139588, Note_on_c, 0, 70, 67
1, 139593, Control_c, 0, 64, 86
1, 139608, Control_c, 0, 64, 84
1, 139623, Control_c, 0, 64, 78
1, 139637, Control_c, 0, 64, 68
1, 139649, Note_off_c, 0, 70, 62
1, 139652, Control_c, 0, 64, 0
1, 139656, Note_on_c, 0, 68, 63
1, 139706, Note_off_c, 0, 68, 64
1, 139711, Control_c, 0, 64, 63
1, 139726, Control_c, 0, 64, 75
1, 139729, Note_on_c, 0, 67, 62
1, 139741, Control_c, 0, 64, 88
1, 139755, Control_c, 0, 64, 98
1, 139770, Control_c, 0, 64, 103
1, 139778, Note_off_c, 0, 54, 50
1, 139785, Control_c, 0, 64, 104
1, 139800, Control_c, 0, 64, 105
1, 139814, Control_c, 0, 64, 106
1, 139821, Note_on_c, 0, 68, 67
1, 139824, Note_off_c, 0, 67, 51
1, 139829, Control_c, 0, 64, 106
1, 139844, Control_c, 0, 64, 107
1, 139874, Control_c, 0, 64, 108
1, 139912, Note_off_c, 0, 60, 38
1, 139988, Note_on_c, 0, 70, 63
1, 139990, Note_off_c, 0, 68, 62
1, 140002, Note_on_c, 0, 61, 44
1, 140007, Control_c, 0, 64, 107
1, 140016, Note_on_c, 0, 53, 40
1, 140022, Control_c, 0, 64, 103
1, 140037, Control_c, 0, 64, 95
1, 140052, Control_c, 0, 64, 80
1, 140067, Control_c, 0, 64, 64
1, 140081, Control_c, 0, 64, 0
1, 140156, Control_c, 0, 64, 64
1, 140171, Control_c, 0, 64, 72
1, 140186, Control_c, 0, 64, 80
1, 140208, Control_c, 0, 64, 86
1, 140223, Control_c, 0, 64, 88
1, 140237, Control_c, 0, 64, 89
1, 140282, Control_c, 0, 64, 89
1, 140297, Control_c, 0, 64, 90
1, 140311, Control_c, 0, 64, 90
1, 140326, Control_c, 0, 64, 91
1, 140341, Control_c, 0, 64, 92
1, 140356, Control_c, 0, 64, 93
1, 140371, Control_c, 0, 64, 94
1, 140386, Control_c, 0, 64, 95
1, 140401, Control_c, 0, 64, 96
1, 140402, Note_off_c, 0, 70, 60
1, 140403, Note_on_c, 0, 68, 70
1, 140405, Note_off_c, 0, 61, 56
1, 140410, Note_on_c, 0, 59, 52
1, 140416, Control_c, 0, 64, 97
1, 140430, Control_c, 0, 64, 98
1, 140445, Control_c, 0, 64, 98
1, 140460, Control_c, 0, 64, 99
1, 140475, Control_c, 0, 64, 99
1, 140477, Note_off_c, 0, 59, 61
1, 140490, Control_c, 0, 64, 100
1, 140497, Note_off_c, 0, 53, 50
1, 140593, Control_c, 0, 64, 99
1, 140608, Control_c, 0, 64, 98
1, 140622, Control_c, 0, 64, 95
1, 140632, Note_on_c, 0, 58, 43
1, 140637, Control_c, 0, 64, 87
1, 140641, Note_on_c, 0, 66, 56
1, 140644, Note_on_c, 0, 75, 70
1, 140652, Control_c, 0, 64, 77
1, 140667, Control_c, 0, 64, 63
1, 140682, Control_c, 0, 64, 0
1, 140721, Note_off_c, 0, 68, 62
1, 140845, Control_c, 0, 64, 60
1, 140860, Control_c, 0, 64, 69
1, 140875, Control_c, 0, 64, 77
1, 140890, Control_c, 0, 64, 82
1, 140904, Control_c, 0, 64, 85
1, 140920, Control_c, 0, 64, 87
1, 140935, Control_c, 0, 64, 88
1, 140957, Control_c, 0, 64, 91
1, 140972, Control_c, 0, 64, 93
1, 140987, Control_c, 0, 64, 96
1, 140993, Note_on_c, 0, 73, 81
1, 141001, Control_c, 0, 64, 98
1, 141016, Control_c, 0, 64, 100
1, 141021, Note_off_c, 0, 75, 65
1, 141031, Control_c, 0, 64, 101
1, 141036, Note_off_c, 0, 66, 61
1, 141046, Control_c, 0, 64, 101
1, 141060, Control_c, 0, 64, 102
1, 141075, Control_c, 0, 64, 102
1, 141078, Note_off_c, 0, 73, 51
1, 141090, Control_c, 0, 64, 103
1, 141219, Note_on_c, 0, 73, 73
1, 141237, Note_on_c, 0, 63, 47
1, 141268, Control_c, 0, 64, 102
1, 141283, Control_c, 0, 64, 99
1, 141298, Control_c, 0, 64, 92
1, 141313, Control_c, 0, 64, 82
1, 141327, Control_c, 0, 64, 69
1, 141342, Control_c, 0, 64, 0
1, 141343, Note_off_c, 0, 58, 61
1, 141430, Control_c, 0, 64, 36
1, 141431, Note_on_c, 0, 71, 75
1, 141444, Control_c, 0, 64, 64
1, 141459, Control_c, 0, 64, 71
1, 141474, Control_c, 0, 64, 75
1, 141489, Control_c, 0, 64, 78
1, 141504, Control_c, 0, 64, 79
1, 141519, Control_c, 0, 64, 80
1, 141534, Control_c, 0, 64, 80
1, 141549, Control_c, 0, 64, 81
1, 141563, Control_c, 0, 64, 82
1, 141578, Control_c, 0, 64, 83
1, 141593, Control_c, 0, 64, 83
1, 141633, Note_on_c, 0, 70, 79
1, 141659, Note_off_c, 0, 71, 57
1, 141702, Note_off_c, 0, 73, 44
1, 141809, Control_c, 0, 64, 83
1, 141838, Control_c, 0, 64, 82
1, 141853, Note_on_c, 0, 60, 44
1, 141853, Control_c, 0, 64, 79
1, 141862, Note_off_c, 0, 70, 55
1, 141868, Note_on_c, 0, 67, 54
1, 141868, Control_c, 0, 64, 72
1, 141882, Control_c, 0, 64, 47
1, 141897, Control_c, 0, 64, 0
1, 141982, Note_off_c, 0, 67, 60
1, 141987, Control_c, 0, 64, 45
1, 142001, Control_c, 0, 64, 66
1, 142009, Note_on_c, 0, 68, 48
1, 142016, Control_c, 0, 64, 71
1, 142024, Note_off_c, 0, 63, 38
1, 142031, Control_c, 0, 64, 74
1, 142036, Note_off_c, 0, 68, 58
1, 142046, Control_c, 0, 64, 75
1, 142049, Note_on_c, 0, 70, 63
1, 142093, Note_off_c, 0, 70, 64
1, 142110, Note_on_c, 0, 68, 73
1, 142151, Note_off_c, 0, 68, 62
1, 142172, Note_on_c, 0, 70, 70
1, 142179, Control_c, 0, 64, 75
1, 142193, Control_c, 0, 64, 72
1, 142208, Control_c, 0, 64, 65
1, 142216, Note_off_c, 0, 70, 62
1, 142222, Note_on_c, 0, 68, 66
1, 142223, Control_c, 0, 64, 0
1, 142312, Control_c, 0, 64, 40
1, 142324, Note_off_c, 0, 68, 63
1, 142324, Note_on_c, 0, 67, 68
1, 142327, Control_c, 0, 64, 65
1, 142341, Control_c, 0, 64, 71
1, 142356, Control_c, 0, 64, 75
1, 142371, Control_c, 0, 64, 76
1, 142481, Note_on_c, 0, 68, 76
1, 142509, Note_off_c, 0, 67, 56
1, 142573, Control_c, 0, 64, 75
1, 142661, Control_c, 0, 64, 75
1, 142676, Control_c, 0, 64, 74
1, 142691, Note_on_c, 0, 61, 40
1, 142691, Control_c, 0, 64, 73
1, 142704, Note_on_c, 0, 70, 63
1, 142705, Control_c, 0, 64, 69
1, 142713, Note_on_c, 0, 53, 41
1, 142720, Control_c, 0, 64, 60
1, 142726, Note_off_c, 0, 60, 40
1, 142735, Control_c, 0, 64, 0
1, 142737, Note_off_c, 0, 68, 61
1, 142869, Control_c, 0, 64, 66
1, 142884, Control_c, 0, 64, 75
1, 142898, Control_c, 0, 64, 83
1, 142913, Control_c, 0, 64, 88
1, 142928, Control_c, 0, 64, 91
1, 142943, Control_c, 0, 64, 93
1, 142958, Control_c, 0, 64, 96
1, 142972, Control_c, 0, 64, 99
1, 142987, Control_c, 0, 64, 104
1, 143002, Control_c, 0, 64, 110
1, 143016, Control_c, 0, 64, 117
1, 143031, Control_c, 0, 64, 122
1, 143033, Note_off_c, 0, 49, 40
1, 143046, Control_c, 0, 64, 125
1, 143055, Note_off_c, 0, 70, 64
1, 143061, Control_c, 0, 64, 127
1, 143076, Note_off_c, 0, 61, 59
1, 143080, Note_off_c, 0, 53, 58
1, 143445, Note_on_c, 0, 59, 43
1, 143447, Note_on_c, 0, 68, 63
1, 143459, Note_on_c, 0, 50, 41
1, 143469, Control_c, 0, 64, 115
1, 143484, Control_c, 0, 64, 103
1, 143499, Control_c, 0, 64, 90
1, 143514, Control_c, 0, 64, 80
1, 143528, Control_c, 0, 64, 73
1, 143543, Control_c, 0, 64, 69
1, 143558, Control_c, 0, 64, 70
1, 143573, Control_c, 0, 64, 76
1, 143588, Control_c, 0, 64, 85
1, 143602, Control_c, 0, 64, 96
1, 143617, Control_c, 0, 64, 103
1, 143632, Control_c, 0, 64, 107
1, 143646, Control_c, 0, 64, 107
1, 143661, Control_c, 0, 64, 108
1, 143673, Note_off_c, 0, 59, 53
1, 143675, Note_off_c, 0, 50, 52
1, 143722, Note_off_c, 0, 68, 61
1, 143809, Control_c, 0, 64, 107
1, 143824, Control_c, 0, 64, 106
1, 143837, Note_on_c, 0, 58, 47
1, 143838, Control_c, 0, 64, 101
1, 143853, Note_on_c, 0, 66, 67
1, 143853, Control_c, 0, 64, 91
1, 143856, Note_on_c, 0, 51, 46
1, 143868, Control_c, 0, 64, 77
1, 143883, Control_c, 0, 64, 34
1, 143898, Control_c, 0, 64, 0
1, 143965, Control_c, 0, 64, 59
1, 143979, Control_c, 0, 64, 74
1, 143994, Control_c, 0, 64, 84
1, 144009, Control_c, 0, 64, 95
1, 144016, Note_off_c, 0, 66, 67
1, 144024, Control_c, 0, 64, 101
1, 144039, Control_c, 0, 64, 106
1, 144053, Control_c, 0, 64, 108
1, 144068, Control_c, 0, 64, 111
1, 144083, Control_c, 0, 64, 114
1, 144098, Control_c, 0, 64, 117
1, 144113, Control_c, 0, 64, 120
1, 144129, Control_c, 0, 64, 121
1, 144143, Control_c, 0, 64, 122
1, 144158, Control_c, 0, 64, 123
1, 144173, Control_c, 0, 64, 127
1, 144194, Note_off_c, 0, 58, 64
1, 144209, Note_on_c, 0, 78, 82
1, 144217, Note_off_c, 0, 51, 62
1, 144425, Note_off_c, 0, 78, 59
1, 144528, Note_on_c, 0, 77, 78
1, 144719, Note_off_c, 0, 77, 63
1, 145054, Note_on_c, 0, 63, 56
1, 145062, Note_on_c, 0, 57, 58
1, 145063, Note_on_c, 0, 48, 43
1, 145064, Note_on_c, 0, 80, 76
1, 145085, Control_c, 0, 64, 117
1, 145099, Note_on_c, 0, 50, 30
1, 145099, Control_c, 0, 64, 105
1, 145114, Control_c, 0, 64, 93
1, 145129, Control_c, 0, 64, 77
1, 145138, Note_off_c, 0, 50, 46
1, 145144, Control_c, 0, 64, 58
1, 145159, Control_c, 0, 64, 0
1, 145307, Control_c, 0, 64, 53
1, 145322, Control_c, 0, 64, 67
1, 145337, Control_c, 0, 64, 71
1, 145352, Control_c, 0, 64, 72
1, 145396, Control_c, 0, 64, 73
1, 145411, Control_c, 0, 64, 73
1, 145425, Control_c, 0, 64, 75
1, 145448, Control_c, 0, 64, 76
1, 145462, Control_c, 0, 64, 77
1, 145477, Control_c, 0, 64, 78
1, 145492, Control_c, 0, 64, 80
1, 145507, Control_c, 0, 64, 82
1, 145522, Control_c, 0, 64, 85
1, 145537, Control_c, 0, 64, 88
1, 145552, Control_c, 0, 64, 90
1, 145567, Control_c, 0, 64, 93
1, 145581, Control_c, 0, 64, 97
1, 145596, Control_c, 0, 64, 100
1, 145611, Control_c, 0, 64, 103
1, 145625, Control_c, 0, 64, 105
1, 145640, Control_c, 0, 64, 107
1, 145655, Control_c, 0, 64, 109
1, 145670, Control_c, 0, 64, 111
1, 145685, Control_c, 0, 64, 114
1, 145689, Note_on_c, 0, 79, 56
1, 145699, Control_c, 0, 64, 117
1, 145715, Control_c, 0, 64, 121
1, 145730, Control_c, 0, 64, 125
1, 145745, Control_c, 0, 64, 127
1, 145821, Note_off_c, 0, 80, 40
1, 145868, Note_off_c, 0, 79, 50
1, 146051, Note_on_c, 0, 78, 49
1, 146205, Note_off_c, 0, 78, 56
1, 146286, Note_on_c, 0, 77, 44
1, 146363, Note_off_c, 0, 48, 43
1, 146369, Note_off_c, 0, 77, 60
1, 146404, Note_off_c, 0, 57, 62
1, 146496, Note_on_c, 0, 76, 54
1, 146530, Note_off_c, 0, 76, 63
1, 146790, Control_c, 0, 64, 117
1, 146795, Note_on_c, 0, 49, 31
1, 146795, Note_on_c, 0, 75, 49
1, 146796, Note_on_c, 0, 56, 34
1, 146805, Control_c, 0, 64, 106
1, 146814, Note_on_c, 0, 66, 38
1, 146820, Control_c, 0, 64, 94
1, 146835, Control_c, 0, 64, 81
1, 146850, Control_c, 0, 64, 63
1, 146864, Control_c, 0, 64, 0
1, 146890, Note_off_c, 0, 63, 34
1, 146976, Control_c, 0, 64, 49
1, 146990, Control_c, 0, 64, 65
1, 147005, Control_c, 0, 64, 71
1, 147020, Control_c, 0, 64, 75
1, 147035, Control_c, 0, 64, 77
1, 147050, Control_c, 0, 64, 78
1, 147057, Note_off_c, 0, 75, 58
1, 147064, Control_c, 0, 64, 79
1, 147079, Control_c, 0, 64, 79
1, 147087, Note_on_c, 0, 71, 45
1, 147094, Control_c, 0, 64, 80
1, 147109, Control_c, 0, 64, 82
1, 147124, Control_c, 0, 64, 83
1, 147138, Control_c, 0, 64, 85
1, 147153, Control_c, 0, 64, 86
1, 147168, Control_c, 0, 64, 87
1, 147183, Control_c, 0, 64, 87
1, 147197, Control_c, 0, 64, 88
1, 147227, Control_c, 0, 64, 88
1, 147242, Note_off_c, 0, 71, 47
1, 147242, Control_c, 0, 64, 89
1, 147257, Control_c, 0, 64, 89
1, 147272, Control_c, 0, 64, 90
1, 147287, Control_c, 0, 64, 90
1, 147298, Note_on_c, 0, 74, 46
1, 147302, Control_c, 0, 64, 91
1, 147317, Control_c, 0, 64, 92
1, 147332, Control_c, 0, 64, 93
1, 147347, Control_c, 0, 64, 93
1, 147361, Control_c, 0, 64, 94
1, 147376, Control_c, 0, 64, 95
1, 147391, Control_c, 0, 64, 96
1, 147406, Control_c, 0, 64, 96
1, 147420, Control_c, 0, 64, 97
1, 147435, Control_c, 0, 64, 97
1, 147450, Control_c, 0, 64, 98
1, 147465, Control_c, 0, 64, 99
1, 147472, Note_off_c, 0, 74, 54
1, 147480, Control_c, 0, 64, 100
1, 147494, Control_c, 0, 64, 100
1, 147509, Control_c, 0, 64, 101
1, 147510, Note_on_c, 0, 70, 45
1, 147524, Control_c, 0, 64, 101
1, 147539, Control_c, 0, 64, 102
1, 147554, Control_c, 0, 64, 102
1, 147568, Control_c, 0, 64, 103
1, 147583, Control_c, 0, 64, 103
1, 147591, Note_off_c, 0, 70, 60
1, 147613, Control_c, 0, 64, 104
1, 147642, Control_c, 0, 64, 104
1, 147694, Control_c, 0, 64, 105
1, 147709, Control_c, 0, 64, 106
1, 147724, Control_c, 0, 64, 107
1, 147732, Note_on_c, 0, 73, 55
1, 147739, Control_c, 0, 64, 108
1, 147754, Control_c, 0, 64, 109
1, 147768, Control_c, 0, 64, 110
1, 147783, Control_c, 0, 64, 111
1, 147798, Control_c, 0, 64, 113
1, 147812, Control_c, 0, 64, 113
1, 147814, Note_off_c, 0, 73, 57
1, 147827, Control_c, 0, 64, 114
1, 147842, Control_c, 0, 64, 115
1, 147857, Control_c, 0, 64, 116
1, 147872, Control_c, 0, 64, 117
1, 147886, Control_c, 0, 64, 118
1, 147901, Control_c, 0, 64, 119
1, 147930, Note_on_c, 0, 69, 50
1, 147931, Control_c, 0, 64, 120
1, 147946, Control_c, 0, 64, 120
1, 148154, Control_c, 0, 64, 120
1, 148169, Control_c, 0, 64, 119
1, 148184, Control_c, 0, 64, 117
1, 148199, Control_c, 0, 64, 113
1, 148206, Note_on_c, 0, 62, 45
1, 148214, Control_c, 0, 64, 108
1, 148220, Note_on_c, 0, 72, 47
1, 148229, Control_c, 0, 64, 102
1, 148243, Control_c, 0, 64, 95
1, 148258, Control_c, 0, 64, 87
1, 148273, Control_c, 0, 64, 77
1, 148276, Note_off_c, 0, 69, 57
1, 148288, Control_c, 0, 64, 61
1, 148303, Control_c, 0, 64, 0
1, 148473, Control_c, 0, 64, 42
1, 148488, Control_c, 0, 64, 63
1, 148503, Control_c, 0, 64, 65
1, 148517, Control_c, 0, 64, 66
1, 148519, Note_on_c, 0, 68, 36
1, 148561, Control_c, 0, 64, 66
1, 148576, Control_c, 0, 64, 68
1, 148591, Control_c, 0, 64, 69
1, 148606, Control_c, 0, 64, 71
1, 148625, Note_off_c, 0, 72, 32
1, 148650, Control_c, 0, 64, 70
1, 148665, Control_c, 0, 64, 67
1, 148680, Control_c, 0, 64, 62
1, 148695, Control_c, 0, 64, 41
1, 148709, Control_c, 0, 64, 0
1, 148768, Control_c, 0, 64, 28
1, 148783, Control_c, 0, 64, 56
1, 148798, Control_c, 0, 64, 64
1, 148813, Control_c, 0, 64, 67
1, 148828, Control_c, 0, 64, 69
1, 148843, Control_c, 0, 64, 71
1, 148858, Control_c, 0, 64, 72
1, 148873, Control_c, 0, 64, 72
1, 148877, Note_on_c, 0, 71, 38
1, 148888, Control_c, 0, 64, 73
1, 148919, Control_c, 0, 64, 73
1, 148992, Control_c, 0, 64, 73
1, 149013, Note_off_c, 0, 66, 39
1, 149126, Control_c, 0, 64, 74
1, 149141, Control_c, 0, 64, 75
1, 149156, Control_c, 0, 64, 77
1, 149171, Control_c, 0, 64, 79
1, 149192, Control_c, 0, 64, 81
1, 149207, Control_c, 0, 64, 83
1, 149222, Control_c, 0, 64, 86
1, 149237, Control_c, 0, 64, 88
1, 149252, Control_c, 0, 64, 90
1, 149266, Control_c, 0, 64, 92
1, 149281, Control_c, 0, 64, 94
1, 149296, Control_c, 0, 64, 97
1, 149311, Control_c, 0, 64, 99
1, 149326, Control_c, 0, 64, 102
1, 149339, Note_on_c, 0, 65, 32
1, 149341, Control_c, 0, 64, 106
1, 149356, Control_c, 0, 64, 109
1, 149370, Control_c, 0, 64, 113
1, 149385, Control_c, 0, 64, 116
1, 149400, Control_c, 0, 64, 119
1, 149415, Control_c, 0, 64, 123
1, 149430, Control_c, 0, 64, 127
1, 149472, Note_off_c, 0, 62, 56
1, 149486, Note_off_c, 0, 68, 42
1, 150023, Note_on_c, 0, 70, 35
1, 150032, Note_on_c, 0, 61, 32
1, 150045, Control_c, 0, 64, 124
1, 150060, Control_c, 0, 64, 115
1, 150075, Control_c, 0, 64, 109
1, 150089, Control_c, 0, 64, 104
1, 150104, Control_c, 0, 64, 98
1, 150119, Control_c, 0, 64, 94
1, 150134, Control_c, 0, 64, 92
1, 150162, Note_off_c, 0, 71, 34
1, 150223, Control_c, 0, 64, 93
1, 150238, Control_c, 0, 64, 93
1, 150253, Control_c, 0, 64, 94
1, 150268, Control_c, 0, 64, 94
1, 150277, Note_off_c, 0, 61, 40
1, 150283, Control_c, 0, 64, 95
1, 150297, Control_c, 0, 64, 95
1, 150356, Control_c, 0, 64, 96
1, 150489, Control_c, 0, 67, 9
1, 150505, Control_c, 0, 67, 12
1, 150520, Control_c, 0, 67, 15
1, 150535, Control_c, 0, 64, 95
1, 150535, Control_c, 0, 67, 19
1, 150550, Control_c, 0, 67, 25
1, 150565, Control_c, 0, 64, 94
1, 150565, Control_c, 0, 67, 31
1, 150572, Note_on_c, 0, 68, 42
1, 150579, Control_c, 0, 64, 92
1, 150579, Control_c, 0, 67, 40
1, 150583, Note_on_c, 0, 59, 28
1, 150594, Control_c, 0, 64, 89
1, 150594, Control_c, 0, 67, 51
1, 150609, Control_c, 0, 64, 84
1, 150609, Control_c, 0, 67, 62
1, 150624, Control_c, 0, 64, 77
1, 150624, Control_c, 0, 67, 73
1, 150638, Control_c, 0, 64, 69
1, 150638, Control_c, 0, 67, 81
1, 150653, Control_c, 0, 64, 49
1, 150653, Control_c, 0, 67, 91
1, 150668, Control_c, 0, 64, 0
1, 150668, Control_c, 0, 67, 100
1, 150691, Control_c, 0, 67, 110
1, 150706, Control_c, 0, 67, 119
1, 150720, Control_c, 0, 67, 127
1, 150809, Control_c, 0, 64, 42
1, 150824, Control_c, 0, 64, 64
1, 150834, Note_off_c, 0, 70, 26
1, 150838, Control_c, 0, 64, 69
1, 150853, Control_c, 0, 64, 74
1, 150856, Note_off_c, 0, 59, 56
1, 150868, Control_c, 0, 64, 78
1, 150883, Control_c, 0, 64, 80
1, 150897, Note_off_c, 0, 56, 53
1, 150898, Control_c, 0, 64, 83
1, 150912, Control_c, 0, 64, 85
1, 150927, Control_c, 0, 64, 88
1, 150942, Control_c, 0, 64, 90
1, 150944, Note_off_c, 0, 49, 40
1, 150957, Control_c, 0, 64, 93
1, 150971, Control_c, 0, 64, 96
1, 150986, Control_c, 0, 64, 98
1, 151001, Control_c, 0, 64, 100
1, 151016, Control_c, 0, 64, 101
1, 151031, Control_c, 0, 64, 102
1, 151046, Control_c, 0, 64, 103
1, 151061, Control_c, 0, 64, 104
1, 151076, Control_c, 0, 64, 105
1, 151090, Control_c, 0, 64, 106
1, 151105, Control_c, 0, 64, 107
1, 151120, Control_c, 0, 64, 107
1, 151135, Control_c, 0, 64, 108
1, 151584, Note_on_c, 0, 66, 32
1, 151587, Control_c, 0, 64, 107
1, 151600, Note_on_c, 0, 30, 22
1, 151617, Control_c, 0, 64, 107
1, 151632, Control_c, 0, 64, 106
1, 151647, Control_c, 0, 64, 104
1, 151661, Control_c, 0, 64, 101
1, 151676, Control_c, 0, 64, 98
1, 151691, Control_c, 0, 64, 93
1, 151706, Control_c, 0, 64, 88
1, 151721, Control_c, 0, 64, 81
1, 151723, Note_off_c, 0, 65, 42
1, 151735, Control_c, 0, 64, 71
1, 151750, Control_c, 0, 64, 55
1, 151765, Control_c, 0, 64, 0
1, 151782, Note_off_c, 0, 68, 41
1, 151883, Control_c, 0, 64, 58
1, 151898, Control_c, 0, 64, 66
1, 151913, Control_c, 0, 64, 69
1, 151928, Control_c, 0, 64, 73
1, 151943, Control_c, 0, 64, 76
1, 151958, Control_c, 0, 64, 79
1, 151973, Control_c, 0, 64, 82
1, 151987, Control_c, 0, 64, 84
1, 152002, Control_c, 0, 64, 86
1, 152017, Control_c, 0, 64, 88
1, 152032, Control_c, 0, 64, 90
1, 152047, Control_c, 0, 64, 93
1, 152061, Control_c, 0, 64, 95
1, 152076, Control_c, 0, 64, 97
1, 152090, Note_off_c, 0, 30, 40
1, 152091, Control_c, 0, 64, 99
1, 152107, Control_c, 0, 64, 101
1, 152122, Control_c, 0, 64, 102
1, 152137, Control_c, 0, 64, 104
1, 152151, Control_c, 0, 64, 105
1, 152152, Note_off_c, 0, 66, 42
1, 152166, Control_c, 0, 64, 107
1, 152188, Control_c, 0, 64, 109
1, 152203, Control_c, 0, 64, 111
1, 152217, Control_c, 0, 64, 113
1, 152232, Control_c, 0, 64, 114
1, 152247, Control_c, 0, 64, 115
1, 152262, Control_c, 0, 64, 116
1, 152277, Control_c, 0, 64, 117
1, 152292, Control_c, 0, 64, 118
1, 152307, Control_c, 0, 64, 119
1, 152322, Control_c, 0, 64, 120
1, 152351, Control_c, 0, 64, 120
1, 152366, Control_c, 0, 64, 121
1, 152381, Control_c, 0, 64, 121
1, 152396, Control_c, 0, 64, 122
1, 152410, Control_c, 0, 64, 123
1, 152425, Control_c, 0, 64, 123
1, 152440, Control_c, 0, 64, 124
1, 152455, Control_c, 0, 64, 124
1, 152470, Control_c, 0, 64, 125
1, 152484, Control_c, 0, 64, 125
1, 152499, Control_c, 0, 64, 126
1, 152514, Control_c, 0, 64, 126
1, 152529, Control_c, 0, 64, 127
1, 152959, Note_on_c, 0, 99, 46
1, 152983, Note_on_c, 0, 58, 24
1, 152985, Note_on_c, 0, 49, 23
1, 153101, Note_off_c, 0, 58, 36
1, 153113, Note_off_c, 0, 49, 31
1, 153354, Note_on_c, 0, 58, 37
1, 153382, Note_on_c, 0, 49, 21
1, 153417, Note_off_c, 0, 58, 55
1, 153436, Note_off_c, 0, 49, 42
1, 153566, Note_on_c, 0, 49, 34
1, 153571, Note_on_c, 0, 58, 44
1, 153625, Note_off_c, 0, 49, 47
1, 153633, Note_off_c, 0, 58, 44
1, 153825, Note_on_c, 0, 61, 35
1, 153839, Note_on_c, 0, 54, 35
1, 153920, Note_off_c, 0, 61, 57
1, 153938, Note_off_c, 0, 54, 48
1, 154456, Note_on_c, 0, 97, 37
1, 154521, Note_off_c, 0, 99, 40
1, 154565, Note_off_c, 0, 97, 57
1, 154603, Note_on_c, 0, 94, 38
1, 154640, Note_off_c, 0, 94, 59
1, 154677, Note_on_c, 0, 90, 44
1, 154825, Note_on_c, 0, 95, 33
1, 154829, Note_off_c, 0, 90, 40
1, 154834, Note_on_c, 0, 54, 18
1, 154836, Note_on_c, 0, 49, 19
1, 154839, Note_on_c, 0, 58, 11
1, 154984, Note_off_c, 0, 58, 38
1, 154993, Note_off_c, 0, 54, 40
1, 154998, Note_off_c, 0, 49, 39
1, 155237, Note_off_c, 0, 95, 50
1, 155256, Note_on_c, 0, 94, 45
1, 155334, Note_off_c, 0, 94, 59
1, 155384, Note_on_c, 0, 90, 42
1, 155440, Note_off_c, 0, 90, 49
1, 155485, Note_on_c, 0, 85, 32
1, 155602, Note_on_c, 0, 42, 25
1, 155609, Note_on_c, 0, 92, 42
1, 155654, Note_off_c, 0, 85, 39
1, 155742, Note_off_c, 0, 42, 49
1, 156038, Note_on_c, 0, 90, 49
1, 156113, Note_off_c, 0, 92, 39
1, 156155, Note_off_c, 0, 90, 57
1, 156185, Note_on_c, 0, 85, 41
1, 156253, Note_off_c, 0, 85, 58
1, 156292, Note_on_c, 0, 82, 35
1, 156433, Note_on_c, 0, 87, 36
1, 156448, Note_on_c, 0, 58, 12
1, 156459, Note_on_c, 0, 54, 12
1, 156460, Note_on_c, 0, 49, 23
1, 156509, Note_off_c, 0, 82, 39
1, 156582, Note_off_c, 0, 58, 41
1, 156594, Note_off_c, 0, 54, 43
1, 156601, Note_off_c, 0, 49, 38
1, 156833, Note_on_c, 0, 58, 36
1, 156835, Note_on_c, 0, 85, 40
1, 156839, Note_on_c, 0, 54, 34
1, 156850, Note_on_c, 0, 49, 18
1, 156874, Note_off_c, 0, 58, 49
1, 156880, Note_off_c, 0, 54, 46
1, 156912, Note_off_c, 0, 49, 37
1, 156933, Note_off_c, 0, 87, 30
1, 156970, Note_off_c, 0, 85, 54
1, 156981, Note_on_c, 0, 58, 44
1, 156982, Note_on_c, 0, 49, 5
1, 156983, Note_on_c, 0, 82, 49
1, 156989, Note_on_c, 0, 54, 40
1, 157029, Note_off_c, 0, 58, 0
1, 157046, Note_on_c, 0, 58, 45
1, 157049, Note_off_c, 0, 54, 0
1, 157058, Note_off_c, 0, 82, 62
1, 157061, Note_on_c, 0, 54, 40
1, 157083, Note_on_c, 0, 78, 51
1, 157101, Note_off_c, 0, 49, 31
1, 157122, Note_off_c, 0, 54, 53
1, 157142, Note_off_c, 0, 58, 44
1, 157213, Note_off_c, 0, 78, 43
1, 157238, Note_on_c, 0, 83, 49
1, 157254, Note_on_c, 0, 54, 37
1, 157255, Note_on_c, 0, 61, 37
1, 157326, Note_off_c, 0, 54, 52
1, 157329, Note_off_c, 0, 61, 53
1, 157675, Note_off_c, 0, 83, 54
1, 157688, Note_on_c, 0, 82, 44
1, 157777, Note_off_c, 0, 82, 60
1, 157812, Note_on_c, 0, 78, 51
1, 157862, Note_off_c, 0, 78, 56
1, 157916, Note_on_c, 0, 73, 33
1, 158045, Note_on_c, 0, 58, 15
1, 158048, Note_on_c, 0, 54, 16
1, 158053, Note_on_c, 0, 49, 23
1, 158066, Note_on_c, 0, 80, 45
1, 158091, Note_off_c, 0, 73, 35
1, 158206, Note_off_c, 0, 58, 49
1, 158220, Note_off_c, 0, 49, 40
1, 158246, Note_off_c, 0, 54, 45
1, 158537, Note_on_c, 0, 78, 40
1, 158651, Note_off_c, 0, 80, 31
1, 158747, Note_on_c, 0, 73, 30
1, 158757, Note_off_c, 0, 78, 35
1, 158910, Note_off_c, 0, 73, 39
1, 158939, Note_on_c, 0, 70, 32
1, 158999, Note_on_c, 0, 42, 38
1, 159182, Note_on_c, 0, 49, 33
1, 159379, Note_on_c, 0, 58, 33
1, 159383, Note_on_c, 0, 75, 37
1, 159401, Control_c, 0, 64, 126
1, 159404, Note_off_c, 0, 70, 42
1, 159416, Control_c, 0, 64, 119
1, 159431, Control_c, 0, 64, 113
1, 159446, Control_c, 0, 64, 107
1, 159461, Control_c, 0, 64, 99
1, 159475, Control_c, 0, 64, 91
1, 159490, Control_c, 0, 64, 82
1, 159505, Control_c, 0, 64, 73
1, 159520, Control_c, 0, 64, 63
1, 159535, Control_c, 0, 64, 0
1, 159623, Control_c, 0, 64, 25
1, 159638, Control_c, 0, 64, 61
1, 159653, Control_c, 0, 64, 66
1, 159675, Control_c, 0, 64, 69
1, 159690, Control_c, 0, 64, 72
1, 159693, Note_on_c, 0, 73, 30
1, 159705, Control_c, 0, 64, 74
1, 159720, Control_c, 0, 64, 77
1, 159734, Control_c, 0, 64, 80
1, 159749, Control_c, 0, 64, 82
1, 159764, Control_c, 0, 64, 84
1, 159779, Note_off_c, 0, 75, 40
1, 159779, Control_c, 0, 64, 87
1, 159793, Control_c, 0, 64, 89
1, 159808, Control_c, 0, 64, 91
1, 159823, Control_c, 0, 64, 93
1, 159837, Note_on_c, 0, 70, 37
1, 159838, Control_c, 0, 64, 95
1, 159845, Note_off_c, 0, 73, 42
1, 159853, Control_c, 0, 64, 97
1, 159867, Control_c, 0, 64, 99
1, 159882, Control_c, 0, 64, 101
1, 159897, Control_c, 0, 64, 102
1, 159911, Note_off_c, 0, 70, 52
1, 159912, Control_c, 0, 64, 103
1, 159926, Control_c, 0, 64, 105
1, 159941, Control_c, 0, 64, 106
1, 159956, Control_c, 0, 64, 107
1, 159966, Note_on_c, 0, 66, 34
1, 159971, Control_c, 0, 64, 108
1, 159986, Control_c, 0, 64, 109
1, 160000, Control_c, 0, 64, 110
1, 160015, Control_c, 0, 64, 110
1, 160030, Control_c, 0, 64, 111
1, 160045, Control_c, 0, 64, 111
1, 160060, Control_c, 0, 64, 112
1, 160075, Control_c, 0, 64, 113
1, 160096, Note_off_c, 0, 66, 43
1, 160105, Control_c, 0, 64, 113
1, 160120, Control_c, 0, 64, 114
1, 160129, Note_on_c, 0, 71, 34
1, 160135, Control_c, 0, 64, 114
1, 160149, Control_c, 0, 64, 115
1, 160164, Control_c, 0, 64, 115
1, 160179, Control_c, 0, 64, 116
1, 160186, Note_off_c, 0, 71, 53
1, 160194, Control_c, 0, 64, 116
1, 160209, Control_c, 0, 64, 117
1, 160224, Control_c, 0, 64, 118
1, 160226, Note_on_c, 0, 70, 32
1, 160239, Control_c, 0, 64, 118
1, 160254, Control_c, 0, 64, 119
1, 160269, Control_c, 0, 64, 120
1, 160284, Control_c, 0, 64, 120
1, 160298, Control_c, 0, 64, 121
1, 160313, Control_c, 0, 64, 121
1, 160327, Note_off_c, 0, 70, 58
1, 160328, Control_c, 0, 64, 122
1, 160342, Control_c, 0, 64, 123
1, 160357, Control_c, 0, 64, 123
1, 160372, Note_on_c, 0, 66, 34
1, 160372, Control_c, 0, 64, 124
1, 160387, Control_c, 0, 64, 125
1, 160421, Note_off_c, 0, 66, 49
1, 160424, Control_c, 0, 64, 125
1, 160436, Note_off_c, 0, 58, 38
1, 160439, Control_c, 0, 64, 126
1, 160453, Control_c, 0, 64, 126
1, 160468, Control_c, 0, 64, 127
1, 160479, Note_on_c, 0, 61, 17
1, 160483, Control_c, 0, 64, 127
1, 160543, Note_off_c, 0, 61, 40
1, 160611, Note_on_c, 0, 68, 19
1, 160656, Note_on_c, 0, 66, 45
1, 160656, Note_off_c, 0, 68, 46
1, 160743, Note_off_c, 0, 66, 62
1, 160785, Note_on_c, 0, 61, 38
1, 160841, Note_off_c, 0, 61, 57
1, 160896, Note_on_c, 0, 58, 29
1, 161000, Note_off_c, 0, 58, 37
1, 161033, Note_on_c, 0, 63, 37
1, 161113, Note_off_c, 0, 63, 36
1, 161119, Note_on_c, 0, 61, 44
1, 161129, Note_off_c, 0, 49, 40
1, 161202, Note_off_c, 0, 42, 47
1, 161229, Note_off_c, 0, 61, 55
1, 161239, Note_on_c, 0, 58, 42
1, 161336, Note_off_c, 0, 58, 60
1, 161360, Note_on_c, 0, 54, 37
1, 161460, Note_off_c, 0, 54, 50
1, 161488, Note_on_c, 0, 49, 35
1, 161628, Note_on_c, 0, 58, 35
1, 161631, Note_off_c, 0, 49, 33
1, 161677, Control_c, 0, 64, 127
1, 161693, Control_c, 0, 64, 126
1, 161708, Control_c, 0, 64, 125
1, 161723, Control_c, 0, 64, 123
1, 161737, Control_c, 0, 64, 121
1, 161752, Control_c, 0, 64, 119
1, 161759, Note_on_c, 0, 37, 35
1, 161765, Note_off_c, 0, 58, 52
1, 161767, Control_c, 0, 64, 115
1, 161782, Control_c, 0, 64, 110
1, 161792, Note_on_c, 0, 63, 39
1, 161796, Control_c, 0, 64, 106
1, 161811, Control_c, 0, 64, 101
1, 161826, Control_c, 0, 64, 95
1, 161841, Control_c, 0, 64, 88
1, 161856, Control_c, 0, 64, 80
1, 161870, Control_c, 0, 64, 69
1, 161885, Control_c, 0, 64, 47
1, 161900, Control_c, 0, 64, 0
1, 161967, Control_c, 0, 64, 31
1, 161975, Note_on_c, 0, 61, 37
1, 161982, Control_c, 0, 64, 61
1, 161996, Control_c, 0, 64, 65
1, 162011, Control_c, 0, 64, 67
1, 162026, Control_c, 0, 64, 69
1, 162033, Note_off_c, 0, 63, 39
1, 162041, Control_c, 0, 64, 71
1, 162056, Control_c, 0, 64, 73
1, 162063, Note_off_c, 0, 61, 51
1, 162070, Control_c, 0, 64, 75
1, 162085, Control_c, 0, 64, 78
1, 162089, Note_on_c, 0, 58, 41
1, 162100, Control_c, 0, 64, 80
1, 162115, Control_c, 0, 64, 82
1, 162129, Control_c, 0, 64, 84
1, 162144, Control_c, 0, 64, 85
1, 162159, Control_c, 0, 64, 87
1, 162174, Control_c, 0, 64, 88
1, 162185, Note_off_c, 0, 58, 52
1, 162189, Control_c, 0, 64, 89
1, 162203, Control_c, 0, 64, 90
1, 162210, Note_on_c, 0, 54, 39
1, 162218, Control_c, 0, 64, 90
1, 162263, Control_c, 0, 64, 91
1, 162291, Note_off_c, 0, 54, 51
1, 162337, Note_on_c, 0, 49, 29
1, 162437, Note_on_c, 0, 58, 37
1, 162440, Note_off_c, 0, 49, 36
1, 162574, Control_c, 0, 64, 90
1, 162589, Control_c, 0, 64, 90
1, 162604, Note_on_c, 0, 42, 29
1, 162604, Control_c, 0, 64, 89
1, 162605, Note_on_c, 0, 30, 25
1, 162606, Note_on_c, 0, 63, 42
1, 162612, Note_off_c, 0, 58, 34
1, 162618, Control_c, 0, 64, 87
1, 162633, Control_c, 0, 64, 84
1, 162648, Control_c, 0, 64, 80
1, 162671, Control_c, 0, 64, 74
1, 162686, Control_c, 0, 64, 66
1, 162700, Control_c, 0, 64, 14
1, 162715, Note_off_c, 0, 37, 40
1, 162715, Control_c, 0, 64, 0
1, 162799, Note_on_c, 0, 61, 27
1, 162833, Control_c, 0, 64, 53
1, 162848, Control_c, 0, 64, 63
1, 162857, Note_off_c, 0, 63, 40
1, 162863, Control_c, 0, 64, 66
1, 162878, Control_c, 0, 64, 67
1, 162882, Note_off_c, 0, 61, 50
1, 162892, Control_c, 0, 64, 68
1, 162907, Control_c, 0, 64, 70
1, 162922, Control_c, 0, 64, 71
1, 162925, Note_on_c, 0, 58, 31
1, 162937, Control_c, 0, 64, 74
1, 162951, Control_c, 0, 64, 75
1, 162966, Control_c, 0, 64, 77
1, 162981, Control_c, 0, 64, 78
1, 162996, Control_c, 0, 64, 79
1, 163011, Control_c, 0, 64, 79
1, 163026, Control_c, 0, 64, 80
1, 163041, Control_c, 0, 64, 80
1, 163045, Note_off_c, 0, 58, 37
1, 163050, Note_on_c, 0, 54, 34
1, 163056, Control_c, 0, 64, 81
1, 163070, Control_c, 0, 64, 81
1, 163085, Control_c, 0, 64, 82
1, 163100, Control_c, 0, 64, 82
1, 163115, Control_c, 0, 64, 83
1, 163130, Control_c, 0, 64, 83
1, 163144, Control_c, 0, 64, 84
1, 163159, Control_c, 0, 64, 84
1, 163160, Note_off_c, 0, 54, 33
1, 163185, Note_on_c, 0, 49, 24
1, 163189, Control_c, 0, 64, 85
1, 163204, Control_c, 0, 64, 86
1, 163218, Control_c, 0, 64, 87
1, 163233, Control_c, 0, 64, 88
1, 163248, Control_c, 0, 64, 88
1, 163277, Control_c, 0, 64, 89
1, 163294, Note_on_c, 0, 58, 33
1, 163308, Control_c, 0, 64, 89
1, 163312, Note_off_c, 0, 49, 38
1, 163323, Control_c, 0, 64, 90
1, 163353, Control_c, 0, 64, 90
1, 163382, Control_c, 0, 64, 91
1, 163397, Control_c, 0, 64, 91
1, 163431, Note_off_c, 0, 58, 40
1, 163434, Control_c, 0, 64, 92
1, 163437, Note_on_c, 0, 63, 39
1, 163479, Control_c, 0, 64, 92
1, 163509, Control_c, 0, 64, 93
1, 163574, Note_on_c, 0, 61, 36
1, 163613, Note_off_c, 0, 63, 39
1, 163664, Note_off_c, 0, 61, 49
1, 163671, Control_c, 0, 64, 93
1, 163693, Note_on_c, 0, 58, 36
1, 163792, Note_off_c, 0, 58, 51
1, 163846, Note_on_c, 0, 54, 30
1, 163904, Note_off_c, 0, 54, 40
1, 163953, Note_on_c, 0, 49, 19
1, 164079, Note_on_c, 0, 58, 33
1, 164090, Note_off_c, 0, 49, 30
1, 164238, Note_off_c, 0, 58, 41
1, 164251, Note_on_c, 0, 63, 38
1, 164430, Note_on_c, 0, 61, 31
1, 164465, Note_off_c, 0, 63, 37
1, 164516, Note_off_c, 0, 61, 50
1, 164559, Note_on_c, 0, 58, 32
1, 164689, Note_off_c, 0, 58, 39
1, 164713, Note_on_c, 0, 54, 35
1, 164877, Note_off_c, 0, 54, 41
1, 164898, Note_on_c, 0, 49, 26
1, 165068, Note_off_c, 0, 49, 39
1, 165100, Note_on_c, 0, 58, 38
1, 165287, Control_c, 0, 64, 93
1, 165302, Control_c, 0, 64, 92
1, 165317, Control_c, 0, 64, 91
1, 165332, Control_c, 0, 64, 89
1, 165338, Note_on_c, 0, 37, 26
1, 165344, Note_off_c, 0, 58, 37
1, 165347, Control_c, 0, 64, 87
1, 165348, Note_on_c, 0, 63, 35
1, 165362, Control_c, 0, 64, 83
1, 165377, Control_c, 0, 64, 78
1, 165392, Control_c, 0, 64, 71
1, 165406, Control_c, 0, 64, 60
1, 165421, Control_c, 0, 64, 0
1, 165430, Note_off_c, 0, 30, 37
1, 165459, Note_off_c, 0, 42, 32
1, 165569, Control_c, 0, 64, 48
1, 165584, Control_c, 0, 64, 62
1, 165599, Control_c, 0, 64, 66
1, 165613, Control_c, 0, 64, 68
1, 165620, Note_on_c, 0, 61, 16
1, 165628, Control_c, 0, 64, 69
1, 165643, Control_c, 0, 64, 71
1, 165658, Note_off_c, 0, 63, 38
1, 165665, Control_c, 0, 64, 73
1, 165680, Control_c, 0, 64, 75
1, 165697, Control_c, 0, 64, 77
1, 165711, Control_c, 0, 64, 78
1, 165726, Control_c, 0, 64, 79
1, 165741, Control_c, 0, 64, 80
1, 165756, Control_c, 0, 64, 80
1, 165770, Control_c, 0, 64, 81
1, 165785, Control_c, 0, 64, 82
1, 165800, Control_c, 0, 64, 83
1, 165815, Control_c, 0, 64, 83
1, 165830, Control_c, 0, 64, 84
1, 165844, Control_c, 0, 64, 85
1, 165846, Note_off_c, 0, 61, 37
1, 165859, Control_c, 0, 64, 86
1, 165863, Note_on_c, 0, 58, 34
1, 165874, Control_c, 0, 64, 87
1, 165889, Control_c, 0, 64, 88
1, 165904, Control_c, 0, 64, 88
1, 165918, Control_c, 0, 64, 89
1, 165933, Control_c, 0, 64, 89
1, 165948, Control_c, 0, 64, 90
1, 165962, Control_c, 0, 64, 91
1, 165977, Control_c, 0, 64, 92
1, 165992, Control_c, 0, 64, 93
1, 166007, Control_c, 0, 64, 93
1, 166022, Control_c, 0, 64, 94
1, 166052, Control_c, 0, 64, 94
1, 166081, Control_c, 0, 64, 95
1, 166095, Control_c, 0, 64, 95
1, 166125, Control_c, 0, 64, 96
1, 166143, Note_off_c, 0, 58, 39
1, 166150, Note_on_c, 0, 54, 26
1, 166155, Control_c, 0, 64, 96
1, 166184, Control_c, 0, 64, 97
1, 166214, Control_c, 0, 64, 97
1, 166243, Control_c, 0, 64, 98
1, 166258, Control_c, 0, 64, 98
1, 166287, Control_c, 0, 64, 99
1, 166302, Control_c, 0, 64, 99
1, 166332, Control_c, 0, 64, 100
1, 166347, Control_c, 0, 64, 100
1, 166362, Control_c, 0, 64, 101
1, 166391, Control_c, 0, 64, 101
1, 166429, Control_c, 0, 64, 102
1, 166458, Control_c, 0, 64, 102
1, 166489, Control_c, 0, 64, 103
1, 166518, Control_c, 0, 64, 103
1, 166563, Control_c, 0, 64, 104
1, 166565, Note_on_c, 0, 49, 29
1, 166592, Control_c, 0, 64, 104
1, 166622, Control_c, 0, 64, 105
1, 166666, Control_c, 0, 64, 105
1, 166696, Control_c, 0, 64, 106
1, 166706, Note_off_c, 0, 54, 31
1, 166713, Note_off_c, 0, 49, 38
1, 166740, Control_c, 0, 64, 106
1, 166815, Control_c, 0, 64, 107
1, 166947, Control_c, 0, 64, 107
1, 167080, Control_c, 0, 64, 108
1, 167203, Note_on_c, 0, 61, 34
1, 167296, Control_c, 0, 64, 108
1, 167441, Note_off_c, 0, 61, 50
1, 167681, Control_c, 0, 64, 109
1, 168430, Control_c, 0, 64, 108
1, 168454, Note_on_c, 0, 70, 35
1, 168461, Note_on_c, 0, 30, 27
1, 168474, Control_c, 0, 64, 108
1, 168489, Control_c, 0, 64, 107
1, 168504, Control_c, 0, 64, 106
1, 168519, Control_c, 0, 64, 105
1, 168534, Control_c, 0, 64, 103
1, 168548, Control_c, 0, 64, 101
1, 168563, Control_c, 0, 64, 98
1, 168578, Control_c, 0, 64, 96
1, 168593, Control_c, 0, 64, 93
1, 168600, Note_off_c, 0, 37, 33
1, 168608, Control_c, 0, 64, 90
1, 168623, Control_c, 0, 64, 86
1, 168637, Control_c, 0, 64, 82
1, 168660, Control_c, 0, 64, 78
1, 168675, Control_c, 0, 64, 72
1, 168689, Control_c, 0, 64, 67
1, 168704, Control_c, 0, 64, 59
1, 168719, Control_c, 0, 64, 39
1, 168734, Control_c, 0, 64, 20
1, 168749, Control_c, 0, 64, 28
1, 168763, Control_c, 0, 64, 33
1, 168778, Control_c, 0, 64, 34
1, 168823, Control_c, 0, 64, 33
1, 168837, Control_c, 0, 64, 31
1, 168852, Control_c, 0, 64, 28
1, 168867, Control_c, 0, 64, 20
1, 168883, Control_c, 0, 64, 11
1, 168898, Control_c, 0, 64, 0
1, 169016, Control_c, 0, 64, 25
1, 169031, Control_c, 0, 64, 51
1, 169046, Control_c, 0, 64, 61
1, 169060, Control_c, 0, 64, 65
1, 169075, Control_c, 0, 64, 67
1, 169090, Control_c, 0, 64, 69
1, 169104, Control_c, 0, 64, 72
1, 169119, Control_c, 0, 64, 75
1, 169134, Control_c, 0, 64, 78
1, 169149, Control_c, 0, 64, 80
1, 169164, Control_c, 0, 64, 81
1, 169179, Control_c, 0, 64, 82
1, 169193, Control_c, 0, 64, 83
1, 169208, Control_c, 0, 64, 84
1, 169223, Control_c, 0, 64, 86
1, 169238, Control_c, 0, 64, 88
1, 169253, Control_c, 0, 64, 90
1, 169268, Control_c, 0, 64, 92
1, 169283, Control_c, 0, 64, 93
1, 169297, Control_c, 0, 64, 95
1, 169312, Control_c, 0, 64, 97
1, 169327, Control_c, 0, 64, 99
1, 169342, Control_c, 0, 64, 101
1, 169357, Control_c, 0, 64, 103
1, 169371, Control_c, 0, 64, 105
1, 169386, Control_c, 0, 64, 107
1, 169408, Control_c, 0, 64, 108
1, 169423, Control_c, 0, 64, 110
1, 169438, Control_c, 0, 64, 113
1, 169453, Control_c, 0, 64, 115
1, 169468, Control_c, 0, 64, 116
1, 169483, Control_c, 0, 64, 118
1, 169498, Control_c, 0, 64, 119
1, 169512, Control_c, 0, 64, 121
1, 169527, Control_c, 0, 64, 123
1, 169542, Control_c, 0, 64, 126
1, 169557, Control_c, 0, 64, 127
1, 172055, Control_c, 0, 67, 126
1, 172071, Control_c, 0, 67, 123
1, 172086, Control_c, 0, 67, 122
1, 172101, Control_c, 0, 67, 121
1, 172116, Control_c, 0, 67, 120
1, 172130, Control_c, 0, 67, 119
1, 172145, Control_c, 0, 67, 118
1, 172234, Control_c, 0, 67, 118
1, 172264, Control_c, 0, 67, 117
1, 172334, Note_off_c, 0, 30, 23
1, 172419, Control_c, 0, 64, 125
1, 172434, Control_c, 0, 64, 124
1, 172449, Control_c, 0, 64, 123
1, 172464, Control_c, 0, 64, 122
1, 172478, Control_c, 0, 64, 121
1, 172493, Control_c, 0, 64, 121
1, 172508, Control_c, 0, 64, 120
1, 172523, Control_c, 0, 64, 120
1, 172538, Control_c, 0, 64, 119
1, 172553, Control_c, 0, 64, 119
1, 172568, Control_c, 0, 64, 118
1, 172583, Control_c, 0, 64, 118
1, 172598, Control_c, 0, 64, 117
1, 172598, Control_c, 0, 67, 117
1, 172612, Control_c, 0, 64, 117
1, 172642, Control_c, 0, 64, 116
1, 172656, Control_c, 0, 64, 116
1, 172659, Note_off_c, 0, 70, 23
1, 172671, Control_c, 0, 64, 115
1, 172671, Control_c, 0, 67, 116
1, 172686, Control_c, 0, 64, 114
1, 172701, Control_c, 0, 64, 114
1, 172716, Control_c, 0, 64, 113
1, 172730, Control_c, 0, 64, 113
1, 172745, Control_c, 0, 64, 112
1, 172760, Control_c, 0, 64, 111
1, 172775, Control_c, 0, 64, 111
1, 172790, Control_c, 0, 64, 110
1, 172804, Control_c, 0, 64, 110
1, 172818, Control_c, 0, 64, 109
1, 172833, Control_c, 0, 64, 108
1, 172848, Control_c, 0, 64, 108
1, 172863, Control_c, 0, 64, 107
1, 172863, Control_c, 0, 67, 117
1, 172879, Control_c, 0, 64, 106
1, 172893, Control_c, 0, 64, 105
1, 172893, Control_c, 0, 67, 117
1, 172908, Control_c, 0, 64, 104
1, 172923, Control_c, 0, 64, 102
1, 172938, Control_c, 0, 64, 100
1, 172938, Control_c, 0, 67, 118
1, 172952, Control_c, 0, 64, 98
1, 172952, Control_c, 0, 67, 118
1, 172967, Control_c, 0, 64, 96
1, 172982, Control_c, 0, 64, 93
1, 172997, Control_c, 0, 64, 91
1, 172997, Control_c, 0, 67, 119
1, 173012, Control_c, 0, 64, 89
1, 173027, Control_c, 0, 64, 87
1, 173042, Control_c, 0, 64, 85
1, 173042, Control_c, 0, 67, 119
1, 173057, Control_c, 0, 64, 83
1, 173071, Control_c, 0, 64, 80
1, 173086, Control_c, 0, 64, 78
1, 173101, Control_c, 0, 64, 77
1, 173116, Control_c, 0, 64, 75
1, 173116, Control_c, 0, 67, 119
1, 173131, Control_c, 0, 64, 73
1, 173152, Control_c, 0, 64, 72
1, 173167, Control_c, 0, 64, 71
1, 173182, Control_c, 0, 64, 70
1, 173197, Control_c, 0, 64, 69
1, 173227, Control_c, 0, 64, 69
1, 173301, Control_c, 0, 64, 68
1, 173375, Control_c, 0, 64, 68
1, 173405, Control_c, 0, 64, 67
1, 173434, Control_c, 0, 64, 67
1, 173449, Control_c, 0, 64, 66
1, 173449, Control_c, 0, 67, 119
1, 173464, Control_c, 0, 64, 66
1, 173478, Control_c, 0, 64, 65
1, 173538, Control_c, 0, 64, 65
1, 173552, Control_c, 0, 64, 64
1, 173582, Control_c, 0, 64, 64
1, 173612, Control_c, 0, 64, 63
1, 173672, Control_c, 0, 64, 63
1, 173687, Control_c, 0, 64, 62
1, 173716, Control_c, 0, 64, 62
1, 173746, Control_c, 0, 64, 61
1, 173761, Control_c, 0, 64, 61
1, 173790, Control_c, 0, 64, 60
1, 173820, Control_c, 0, 64, 60
1, 173850, Control_c, 0, 64, 59
1, 173865, Control_c, 0, 64, 59
1, 173879, Control_c, 0, 64, 58
1, 173901, Control_c, 0, 64, 57
1, 173916, Control_c, 0, 64, 56
1, 173931, Control_c, 0, 64, 54
1, 174005, Control_c, 0, 64, 54
1, 174035, Control_c, 0, 64, 53
1, 174049, Control_c, 0, 64, 51
1, 174064, Control_c, 0, 64, 50
1, 174094, Control_c, 0, 64, 49
1, 174124, Control_c, 0, 64, 49
1, 174213, Control_c, 0, 64, 48
1, 174272, Control_c, 0, 64, 48
1, 174287, Control_c, 0, 64, 47
1, 174301, Control_c, 0, 64, 47
1, 174316, Control_c, 0, 64, 46
1, 174346, Control_c, 0, 67, 119
1, 174405, Control_c, 0, 67, 118
1, 174464, Control_c, 0, 67, 118
1, 174480, Control_c, 0, 67, 117
1, 174495, Control_c, 0, 64, 47
1, 174524, Control_c, 0, 64, 47
1, 174539, Control_c, 0, 67, 117
1, 174554, Control_c, 0, 67, 116
1, 174598, Control_c, 0, 67, 116
1, 174651, Control_c, 0, 67, 115
1, 174666, Control_c, 0, 64, 48
1, 174680, Control_c, 0, 67, 115
1, 174695, Control_c, 0, 67, 108
1, 174710, Control_c, 0, 67, 100
1, 174724, Control_c, 0, 67, 91
1, 174739, Control_c, 0, 64, 48
1, 174739, Control_c, 0, 67, 84
1, 174754, Control_c, 0, 67, 78
1, 174769, Control_c, 0, 67, 75
1, 174784, Control_c, 0, 67, 72
1, 174798, Control_c, 0, 64, 49
1, 174798, Control_c, 0, 67, 70
1, 174813, Control_c, 0, 67, 67
1, 174828, Control_c, 0, 64, 49
1, 174828, Control_c, 0, 67, 65
1, 174842, Control_c, 0, 67, 63
1, 174857, Control_c, 0, 64, 50
1, 174857, Control_c, 0, 67, 60
1, 174872, Control_c, 0, 67, 58
1, 174887, Control_c, 0, 67, 56
1, 174902, Control_c, 0, 67, 55
1, 174917, Control_c, 0, 64, 50
1, 174917, Control_c, 0, 67, 53
1, 174932, Control_c, 0, 67, 52
1, 174947, Control_c, 0, 67, 51
1, 174962, Control_c, 0, 67, 50
1, 174976, Control_c, 0, 67, 49
1, 174991, Control_c, 0, 64, 51
1, 174991, Control_c, 0, 67, 48
1, 175006, Control_c, 0, 64, 51
1, 175006, Control_c, 0, 67, 47
1, 175021, Control_c, 0, 64, 52
1, 175050, Control_c, 0, 64, 52
1, 175050, Control_c, 0, 67, 47
1, 175081, Control_c, 0, 64, 53
1, 175096, Control_c, 0, 64, 53
1, 175111, Control_c, 0, 64, 54
1, 175125, Control_c, 0, 64, 54
1, 175140, Control_c, 0, 64, 55
1, 175155, Control_c, 0, 64, 56
1, 175185, Control_c, 0, 64, 56
1, 175199, Control_c, 0, 64, 57
1, 175229, Control_c, 0, 64, 57
1, 175258, Control_c, 0, 64, 58
1, 175289, Control_c, 0, 64, 58
1, 175378, Control_c, 0, 64, 59
1, 175415, Control_c, 0, 64, 59
1, 175430, Control_c, 0, 64, 60
1, 175563, Control_c, 0, 64, 60
1, 175578, Control_c, 0, 64, 61
1, 175608, Control_c, 0, 64, 61
1, 175711, Control_c, 0, 64, 62
1, 175755, Control_c, 0, 67, 47
1, 175933, Control_c, 0, 64, 62
1, 176008, Control_c, 0, 67, 48
1, 176401, Control_c, 0, 64, 63
1, 176696, Control_c, 0, 64, 63
1, 180247, Control_c, 0, 67, 47
1, 183332, Control_c, 0, 67, 47
1, 183347, Control_c, 0, 67, 46
1, 183361, Control_c, 0, 67, 46
1, 183391, Control_c, 0, 67, 45
1, 183479, Control_c, 0, 67, 45
1, 183509, Control_c, 0, 67, 44
1, 183539, Control_c, 0, 67, 43
1, 183553, Control_c, 0, 67, 31
1, 183568, Control_c, 0, 67, 20
1, 183583, Control_c, 0, 67, 9
1, 183598, Control_c, 0, 67, 0
1, 183931, Control_c, 0, 64, 63
1, 184080, Control_c, 0, 64, 62
1, 184273, Control_c, 0, 64, 62
1, 184724, Control_c, 0, 64, 61
1, 184784, Control_c, 0, 64, 61
1, 184828, Control_c, 0, 64, 60
1, 184874, Control_c, 0, 64, 60
1, 184933, Control_c, 0, 64, 59
1, 184963, Control_c, 0, 64, 59
1, 184978, Control_c, 0, 64, 58
1, 184993, Control_c, 0, 64, 58
1, 185111, Control_c, 0, 64, 58
1, 185445, Control_c, 0, 64, 58
1, 185489, Control_c, 0, 64, 58
1, 185533, Control_c, 0, 64, 58
1, 185563, Control_c, 0, 64, 57
1, 185592, Control_c, 0, 64, 57
1, 185607, Control_c, 0, 64, 56
1, 185622, Control_c, 0, 64, 54
1, 185637, Control_c, 0, 64, 53
1, 185653, Control_c, 0, 64, 51
1, 185668, Control_c, 0, 64, 50
1, 185682, Control_c, 0, 64, 48
1, 185697, Control_c, 0, 64, 46
1, 185712, Control_c, 0, 64, 43
1, 185727, Control_c, 0, 64, 40
1, 185742, Control_c, 0, 64, 37
1, 185756, Control_c, 0, 64, 34
1, 185771, Control_c, 0, 64, 28
1, 185786, Control_c, 0, 64, 22
1, 185801, Control_c, 0, 64, 0
1, 185801, End_track
0, 0, End_of_file
