0, 0, Header, 0, 1, 384
1, 0, Start_track
1, 0, Title_t, "Dumka Op. 59--Benjamin Woo      "
1, 0, Text_t, "2008 e-Piano Junior Competition recital round"
1, 0, Text_t, "recorded July 2008"
1, 0, Text_t, "http://www.piano-e-competition.com/"
1, 0, Text_t, "File processed for distribution by software from Zenph Studios, Inc., http://www.zenph.com"
1, 0, Instrument_name_t, "Yamaha Disklavier Pro Mark IV concert grand piano, model DCFIIISM4PRO"
1, 0, Sequencer_specific, 39, 67, 113, 0, 1, 0, 1, 0, 68, 117, 109, 107, 97, 32, 79, 112, 46, 32, 53, 57, 32, 32, 32, 32, 66, 101, 110, 106, 97, 109, 105, 110, 32, 87, 111, 111, 32, 32, 32, 32
1, 0, Sequencer_specific, 6, 67, 113, 0, 0, 0, 69
1, 0, System_exclusive, 21, 67, 113, 126, 21, 0, 2, 2, 0, 3, 14, 1, 4, 1, 13, 13, 10, 11, 9, 2, 7, 247
1, 0, Sequencer_specific, 5, 67, 123, 12, 2, 1
1, 0, Tempo, 512820
1, 0, Time_signature, 4, 2, 24, 8
1, 0, System_exclusive, 5, 126, 127, 9, 1, 247
1, 1, System_exclusive, 8, 67, 16, 76, 0, 0, 126, 0, 247
1, 2, System_exclusive, 8, 67, 16, 76, 8, 9, 7, 1, 247
1, 3, Control_c, 0, 0, 0
1, 3, Control_c, 1, 0, 0
1, 3, Control_c, 2, 0, 0
1, 3, Control_c, 3, 0, 0
1, 3, Control_c, 4, 0, 0
1, 3, Control_c, 5, 0, 0
1, 3, Control_c, 6, 0, 0
1, 3, Control_c, 7, 0, 0
1, 3, Control_c, 8, 0, 0
1, 3, Control_c, 9, 0, 127
1, 3, Control_c, 10, 0, 0
1, 3, Control_c, 11, 0, 0
1, 3, Control_c, 12, 0, 0
1, 3, Control_c, 13, 0, 0
1, 3, Control_c, 14, 0, 0
1, 3, Control_c, 15, 0, 0
1, 4, Control_c, 0, 32, 0
1, 4, Control_c, 1, 32, 0
1, 4, Control_c, 2, 32, 0
1, 4, Control_c, 3, 32, 0
1, 4, Control_c, 4, 32, 0
1, 4, Control_c, 5, 32, 0
1, 4, Control_c, 6, 32, 0
1, 4, Control_c, 7, 32, 0
1, 4, Control_c, 8, 32, 0
1, 4, Control_c, 9, 32, 0
1, 4, Control_c, 10, 32, 0
1, 4, Control_c, 11, 32, 0
1, 4, Control_c, 12, 32, 0
1, 4, Control_c, 13, 32, 0
1, 4, Control_c, 14, 32, 0
1, 4, Control_c, 15, 32, 0
1, 5, Program_c, 0, 0
1, 5, Program_c, 1, 0
1, 5, Program_c, 2, 0
1, 5, Program_c, 3, 0
1, 5, Program_c, 4, 0
1, 5, Program_c, 5, 0
1, 5, Program_c, 6, 0
1, 5, Program_c, 7, 0
1, 5, Program_c, 8, 0
1, 5, Program_c, 9, 0
1, 5, Program_c, 10, 0
1, 5, Program_c, 11, 0
1, 5, Program_c, 12, 0
1, 5, Program_c, 13, 0
1, 5, Program_c, 14, 0
1, 5, Program_c, 15, 0
1, 6, Control_c, 0, 7, 100
1, 6, Control_c, 1, 7, 100
1, 6, Control_c, 2, 7, 100
1, 6, Control_c, 3, 7, 100
1, 6, Control_c, 4, 7, 100
1, 6, Control_c, 5, 7, 100
1, 6, Control_c, 6, 7, 100
1, 6, Control_c, 7, 7, 100
1, 6, Control_c, 8, 7, 100
1, 6, Control_c, 9, 7, 100
1, 6, Control_c, 10, 7, 100
1, 6, Control_c, 11, 7, 100
1, 6, Control_c, 12, 7, 100
1, 6, Control_c, 13, 7, 100
1, 6, Control_c, 14, 7, 100
1, 6, Control_c, 15, 7, 100
1, 1137, Control_c, 0, 64, 79
1, 1141, Note_on_c, 0, 48, 26
1, 1151, Control_c, 0, 64, 81
1, 1166, Control_c, 0, 64, 83
1, 1181, Control_c, 0, 64, 86
1, 1195, Control_c, 0, 64, 89
1, 1210, Control_c, 0, 64, 92
1, 1225, Control_c, 0, 64, 94
1, 1232, Note_on_c, 0, 55, 41
1, 1240, Control_c, 0, 64, 95
1, 1255, Control_c, 0, 64, 97
1, 1269, Control_c, 0, 64, 97
1, 1284, Control_c, 0, 64, 98
1, 1299, Control_c, 0, 64, 99
1, 1314, Control_c, 0, 64, 99
1, 1329, Control_c, 0, 64, 100
1, 1359, Control_c, 0, 64, 100
1, 1401, Note_on_c, 0, 72, 59
1, 1409, Note_on_c, 0, 67, 49
1, 1421, Note_on_c, 0, 60, 31
1, 1421, Note_on_c, 0, 63, 39
1, 1433, Control_c, 0, 64, 100
1, 1477, Control_c, 0, 64, 99
1, 1492, Control_c, 0, 64, 98
1, 1507, Control_c, 0, 64, 96
1, 1521, Control_c, 0, 64, 93
1, 1536, Control_c, 0, 64, 91
1, 1551, Control_c, 0, 64, 90
1, 1610, Control_c, 0, 64, 90
1, 1625, Control_c, 0, 64, 91
1, 1648, Control_c, 0, 64, 92
1, 1666, Note_off_c, 0, 60, 55
1, 1705, Note_off_c, 0, 55, 47
1, 1711, Note_off_c, 0, 63, 42
1, 1721, Control_c, 0, 64, 91
1, 1725, Note_off_c, 0, 67, 57
1, 1731, Note_off_c, 0, 48, 45
1, 1736, Control_c, 0, 64, 91
1, 1751, Control_c, 0, 64, 89
1, 1766, Control_c, 0, 64, 86
1, 1782, Control_c, 0, 64, 81
1, 1797, Control_c, 0, 64, 76
1, 1812, Control_c, 0, 64, 70
1, 1826, Control_c, 0, 64, 63
1, 1841, Control_c, 0, 64, 45
1, 1856, Control_c, 0, 64, 0
1, 2400, Note_on_c, 0, 75, 58
1, 2440, Control_c, 0, 64, 11
1, 2455, Control_c, 0, 64, 14
1, 2469, Control_c, 0, 64, 16
1, 2484, Control_c, 0, 64, 20
1, 2499, Control_c, 0, 64, 22
1, 2514, Control_c, 0, 64, 25
1, 2523, Note_off_c, 0, 72, 64
1, 2529, Control_c, 0, 64, 28
1, 2543, Control_c, 0, 64, 33
1, 2558, Control_c, 0, 64, 37
1, 2574, Control_c, 0, 64, 39
1, 2589, Control_c, 0, 64, 40
1, 2648, Control_c, 0, 64, 40
1, 2781, Control_c, 0, 64, 40
1, 2793, Note_on_c, 0, 72, 67
1, 2811, Control_c, 0, 64, 42
1, 2826, Control_c, 0, 64, 45
1, 2840, Control_c, 0, 64, 52
1, 2855, Control_c, 0, 64, 60
1, 2870, Control_c, 0, 64, 65
1, 2885, Control_c, 0, 64, 69
1, 2900, Control_c, 0, 64, 75
1, 2915, Control_c, 0, 64, 80
1, 2930, Control_c, 0, 64, 85
1, 2935, Note_off_c, 0, 75, 58
1, 2945, Control_c, 0, 64, 88
1, 2960, Control_c, 0, 64, 91
1, 2974, Control_c, 0, 64, 94
1, 2989, Control_c, 0, 64, 97
1, 3004, Control_c, 0, 64, 101
1, 3016, Note_off_c, 0, 72, 55
1, 3019, Control_c, 0, 64, 104
1, 3031, Note_on_c, 0, 48, 46
1, 3033, Control_c, 0, 64, 107
1, 3048, Control_c, 0, 64, 108
1, 3063, Control_c, 0, 64, 109
1, 3078, Control_c, 0, 64, 109
1, 3125, Note_on_c, 0, 56, 29
1, 3204, Control_c, 0, 64, 109
1, 3234, Control_c, 0, 64, 108
1, 3248, Control_c, 0, 64, 108
1, 3263, Control_c, 0, 64, 107
1, 3275, Note_on_c, 0, 77, 68
1, 3276, Note_on_c, 0, 65, 54
1, 3278, Note_on_c, 0, 72, 65
1, 3278, Control_c, 0, 64, 105
1, 3292, Control_c, 0, 64, 102
1, 3295, Note_on_c, 0, 60, 45
1, 3307, Control_c, 0, 64, 98
1, 3322, Control_c, 0, 64, 93
1, 3337, Control_c, 0, 64, 88
1, 3352, Control_c, 0, 64, 81
1, 3368, Control_c, 0, 64, 72
1, 3383, Control_c, 0, 64, 59
1, 3397, Control_c, 0, 64, 0
1, 3545, Control_c, 0, 64, 46
1, 3560, Control_c, 0, 64, 66
1, 3575, Control_c, 0, 64, 71
1, 3589, Control_c, 0, 64, 77
1, 3604, Control_c, 0, 64, 80
1, 3619, Control_c, 0, 64, 81
1, 3627, Note_off_c, 0, 48, 56
1, 3634, Control_c, 0, 64, 83
1, 3649, Control_c, 0, 64, 84
1, 3654, Note_off_c, 0, 56, 57
1, 3663, Control_c, 0, 64, 85
1, 3678, Control_c, 0, 64, 87
1, 3693, Control_c, 0, 64, 88
1, 3708, Control_c, 0, 64, 90
1, 3723, Control_c, 0, 64, 91
1, 3738, Control_c, 0, 64, 93
1, 3752, Control_c, 0, 64, 95
1, 3767, Control_c, 0, 64, 97
1, 3782, Control_c, 0, 64, 98
1, 3797, Control_c, 0, 64, 99
1, 3812, Control_c, 0, 64, 100
1, 3827, Control_c, 0, 64, 101
1, 3842, Control_c, 0, 64, 101
1, 3871, Control_c, 0, 64, 102
1, 3913, Note_on_c, 0, 62, 39
1, 3963, Note_off_c, 0, 60, 51
1, 4101, Control_c, 0, 64, 102
1, 4155, Note_off_c, 0, 65, 38
1, 4157, Note_on_c, 0, 60, 56
1, 4191, Control_c, 0, 64, 103
1, 4235, Control_c, 0, 64, 103
1, 4280, Control_c, 0, 64, 104
1, 4283, Note_off_c, 0, 62, 38
1, 4308, Control_c, 0, 64, 104
1, 4337, Control_c, 0, 64, 105
1, 4367, Control_c, 0, 64, 105
1, 4382, Control_c, 0, 64, 106
1, 4411, Control_c, 0, 64, 107
1, 4426, Control_c, 0, 64, 108
1, 4441, Control_c, 0, 64, 109
1, 4456, Control_c, 0, 64, 111
1, 4471, Control_c, 0, 64, 113
1, 4486, Control_c, 0, 64, 115
1, 4501, Control_c, 0, 64, 117
1, 4516, Control_c, 0, 64, 120
1, 4529, Note_on_c, 0, 62, 72
1, 4531, Control_c, 0, 64, 122
1, 4545, Control_c, 0, 64, 126
1, 4560, Control_c, 0, 64, 127
1, 4565, Note_off_c, 0, 72, 64
1, 4569, Note_off_c, 0, 77, 63
1, 4581, Note_off_c, 0, 62, 60
1, 4593, Note_off_c, 0, 60, 62
1, 4775, Note_on_c, 0, 48, 56
1, 4852, Note_on_c, 0, 55, 56
1, 4923, Control_c, 0, 64, 125
1, 4937, Control_c, 0, 64, 120
1, 4952, Control_c, 0, 64, 115
1, 4968, Control_c, 0, 64, 110
1, 4983, Control_c, 0, 64, 105
1, 4990, Note_on_c, 0, 79, 70
1, 4998, Control_c, 0, 64, 98
1, 5001, Note_on_c, 0, 67, 50
1, 5002, Note_on_c, 0, 72, 59
1, 5003, Note_on_c, 0, 63, 56
1, 5013, Control_c, 0, 64, 90
1, 5028, Control_c, 0, 64, 78
1, 5042, Control_c, 0, 64, 64
1, 5058, Control_c, 0, 64, 0
1, 5161, Control_c, 0, 64, 42
1, 5176, Control_c, 0, 64, 68
1, 5183, Note_off_c, 0, 48, 59
1, 5191, Control_c, 0, 64, 76
1, 5201, Note_off_c, 0, 67, 57
1, 5206, Control_c, 0, 64, 82
1, 5215, Note_off_c, 0, 55, 62
1, 5221, Control_c, 0, 64, 86
1, 5235, Control_c, 0, 64, 86
1, 5250, Control_c, 0, 64, 87
1, 5310, Note_off_c, 0, 72, 61
1, 5354, Control_c, 0, 64, 86
1, 5368, Control_c, 0, 64, 86
1, 5391, Control_c, 0, 64, 84
1, 5397, Note_off_c, 0, 63, 57
1, 5406, Control_c, 0, 64, 83
1, 5421, Control_c, 0, 64, 80
1, 5436, Control_c, 0, 64, 76
1, 5450, Control_c, 0, 64, 71
1, 5465, Control_c, 0, 64, 63
1, 5480, Control_c, 0, 64, 0
1, 5733, Note_on_c, 0, 51, 38
1, 5765, Note_on_c, 0, 77, 40
1, 5833, Note_off_c, 0, 51, 61
1, 5839, Note_on_c, 0, 60, 44
1, 5840, Note_on_c, 0, 75, 54
1, 5841, Note_off_c, 0, 79, 53
1, 5876, Note_off_c, 0, 77, 54
1, 5906, Note_on_c, 0, 74, 60
1, 5935, Note_off_c, 0, 75, 58
1, 5976, Note_on_c, 0, 67, 40
1, 5991, Note_on_c, 0, 72, 64
1, 6033, Note_off_c, 0, 74, 61
1, 6036, Note_off_c, 0, 60, 61
1, 6117, Control_c, 0, 64, 37
1, 6140, Control_c, 0, 64, 67
1, 6155, Control_c, 0, 64, 75
1, 6170, Control_c, 0, 64, 83
1, 6185, Control_c, 0, 64, 90
1, 6199, Control_c, 0, 64, 93
1, 6212, Note_off_c, 0, 72, 66
1, 6214, Control_c, 0, 64, 95
1, 6229, Control_c, 0, 64, 96
1, 6230, Note_off_c, 0, 67, 63
1, 6244, Control_c, 0, 64, 98
1, 6259, Control_c, 0, 64, 100
1, 6273, Control_c, 0, 64, 101
1, 6288, Control_c, 0, 64, 102
1, 6421, Control_c, 0, 64, 101
1, 6426, Note_on_c, 0, 72, 58
1, 6436, Control_c, 0, 64, 100
1, 6451, Control_c, 0, 64, 99
1, 6465, Control_c, 0, 64, 98
1, 6480, Control_c, 0, 64, 96
1, 6495, Control_c, 0, 64, 93
1, 6510, Control_c, 0, 64, 91
1, 6525, Control_c, 0, 64, 88
1, 6540, Control_c, 0, 64, 84
1, 6555, Control_c, 0, 64, 79
1, 6570, Control_c, 0, 64, 73
1, 6585, Control_c, 0, 64, 67
1, 6600, Control_c, 0, 64, 53
1, 6614, Control_c, 0, 64, 0
1, 6903, Note_on_c, 0, 70, 53
1, 6918, Note_on_c, 0, 67, 35
1, 6926, Note_on_c, 0, 62, 27
1, 6927, Note_on_c, 0, 55, 31
1, 7037, Note_off_c, 0, 72, 58
1, 7126, Control_c, 0, 64, 52
1, 7140, Control_c, 0, 64, 68
1, 7155, Control_c, 0, 64, 74
1, 7160, Note_off_c, 0, 67, 49
1, 7170, Control_c, 0, 64, 78
1, 7185, Control_c, 0, 64, 79
1, 7200, Control_c, 0, 64, 79
1, 7451, Note_on_c, 0, 67, 50
1, 7497, Control_c, 0, 64, 79
1, 7508, Note_off_c, 0, 62, 36
1, 7526, Control_c, 0, 64, 78
1, 7541, Control_c, 0, 64, 78
1, 7555, Note_off_c, 0, 55, 43
1, 7556, Control_c, 0, 64, 77
1, 7571, Control_c, 0, 64, 76
1, 7577, Note_off_c, 0, 70, 58
1, 7586, Control_c, 0, 64, 76
1, 7601, Control_c, 0, 64, 75
1, 7616, Control_c, 0, 64, 73
1, 7637, Control_c, 0, 64, 71
1, 7652, Control_c, 0, 64, 68
1, 7667, Control_c, 0, 64, 64
1, 7681, Control_c, 0, 64, 57
1, 7696, Control_c, 0, 64, 47
1, 7711, Control_c, 0, 64, 44
1, 7726, Control_c, 0, 64, 44
1, 7786, Control_c, 0, 64, 45
1, 7830, Control_c, 0, 64, 44
1, 7845, Control_c, 0, 64, 43
1, 7875, Control_c, 0, 64, 43
1, 7904, Control_c, 0, 64, 41
1, 7919, Control_c, 0, 64, 39
1, 7934, Control_c, 0, 64, 34
1, 7949, Control_c, 0, 64, 29
1, 7963, Control_c, 0, 64, 20
1, 7978, Control_c, 0, 64, 0
1, 8173, Note_on_c, 0, 55, 41
1, 8364, Note_on_c, 0, 57, 60
1, 8386, Note_off_c, 0, 55, 57
1, 8534, Control_c, 0, 64, 30
1, 8549, Control_c, 0, 64, 65
1, 8564, Note_on_c, 0, 58, 66
1, 8564, Control_c, 0, 64, 75
1, 8579, Control_c, 0, 64, 88
1, 8593, Control_c, 0, 64, 97
1, 8595, Note_off_c, 0, 57, 63
1, 8608, Control_c, 0, 64, 101
1, 8617, Note_off_c, 0, 58, 65
1, 8623, Control_c, 0, 64, 103
1, 8638, Control_c, 0, 64, 104
1, 8641, Note_off_c, 0, 67, 61
1, 8653, Control_c, 0, 64, 105
1, 8668, Control_c, 0, 64, 106
1, 8683, Control_c, 0, 64, 107
1, 8801, Control_c, 0, 64, 106
1, 8816, Control_c, 0, 64, 105
1, 8823, Note_on_c, 0, 51, 46
1, 8825, Note_on_c, 0, 72, 65
1, 8829, Note_on_c, 0, 55, 51
1, 8831, Control_c, 0, 64, 103
1, 8831, Note_on_c, 0, 67, 62
1, 8836, Note_on_c, 0, 63, 48
1, 8845, Control_c, 0, 64, 98
1, 8860, Control_c, 0, 64, 91
1, 8875, Control_c, 0, 64, 82
1, 8890, Control_c, 0, 64, 71
1, 8904, Control_c, 0, 64, 36
1, 8919, Control_c, 0, 64, 0
1, 9009, Control_c, 0, 64, 64
1, 9024, Control_c, 0, 64, 73
1, 9039, Control_c, 0, 64, 82
1, 9054, Control_c, 0, 64, 90
1, 9058, Note_off_c, 0, 63, 64
1, 9069, Control_c, 0, 64, 93
1, 9083, Control_c, 0, 64, 94
1, 9084, Note_off_c, 0, 67, 61
1, 9088, Note_off_c, 0, 72, 64
1, 9098, Control_c, 0, 64, 95
1, 9113, Control_c, 0, 64, 96
1, 9135, Control_c, 0, 64, 97
1, 9150, Control_c, 0, 64, 99
1, 9165, Control_c, 0, 64, 99
1, 9166, Note_off_c, 0, 55, 65
1, 9184, Note_off_c, 0, 51, 62
1, 9209, Control_c, 0, 64, 100
1, 9363, Note_on_c, 0, 72, 77
1, 9402, Control_c, 0, 64, 99
1, 9476, Control_c, 0, 64, 99
1, 9491, Control_c, 0, 64, 97
1, 9506, Control_c, 0, 64, 94
1, 9521, Control_c, 0, 64, 88
1, 9535, Control_c, 0, 64, 76
1, 9550, Control_c, 0, 64, 60
1, 9565, Control_c, 0, 64, 0
1, 9594, Note_on_c, 0, 48, 48
1, 9646, Note_on_c, 0, 55, 42
1, 9668, Control_c, 0, 64, 58
1, 9676, Note_off_c, 0, 72, 63
1, 9683, Control_c, 0, 64, 67
1, 9698, Control_c, 0, 64, 70
1, 9701, Note_on_c, 0, 60, 54
1, 9713, Control_c, 0, 64, 71
1, 9758, Control_c, 0, 64, 70
1, 9773, Control_c, 0, 64, 70
1, 9778, Note_on_c, 0, 63, 57
1, 9788, Control_c, 0, 64, 68
1, 9803, Control_c, 0, 64, 66
1, 9818, Control_c, 0, 64, 60
1, 9832, Control_c, 0, 64, 37
1, 9842, Note_on_c, 0, 67, 67
1, 9847, Control_c, 0, 64, 0
1, 9932, Note_on_c, 0, 72, 72
1, 10060, Note_on_c, 0, 75, 78
1, 10077, Control_c, 0, 64, 63
1, 10091, Control_c, 0, 64, 69
1, 10106, Control_c, 0, 64, 75
1, 10121, Control_c, 0, 64, 78
1, 10136, Control_c, 0, 64, 80
1, 10151, Control_c, 0, 64, 81
1, 10165, Control_c, 0, 64, 83
1, 10180, Control_c, 0, 64, 84
1, 10187, Note_off_c, 0, 60, 59
1, 10188, Note_off_c, 0, 72, 60
1, 10191, Note_off_c, 0, 63, 56
1, 10195, Control_c, 0, 64, 85
1, 10200, Poly_aftertouch_c, 0, 70, 127
1, 10210, Control_c, 0, 64, 87
1, 10225, Control_c, 0, 64, 88
1, 10232, Note_off_c, 0, 67, 57
1, 10239, Control_c, 0, 64, 88
1, 10247, Poly_aftertouch_c, 0, 70, 0
1, 10286, Note_off_c, 0, 48, 40
1, 10364, Note_off_c, 0, 55, 39
1, 10476, Control_c, 0, 64, 88
1, 10491, Control_c, 0, 64, 87
1, 10506, Control_c, 0, 64, 87
1, 10521, Control_c, 0, 64, 86
1, 10536, Control_c, 0, 64, 85
1, 10552, Control_c, 0, 64, 84
1, 10567, Control_c, 0, 64, 84
1, 10581, Control_c, 0, 64, 82
1, 10596, Control_c, 0, 64, 81
1, 10611, Control_c, 0, 64, 79
1, 10633, Control_c, 0, 64, 77
1, 10648, Control_c, 0, 64, 74
1, 10662, Control_c, 0, 64, 70
1, 10677, Control_c, 0, 64, 65
1, 10692, Control_c, 0, 64, 58
1, 10707, Control_c, 0, 64, 46
1, 10722, Control_c, 0, 64, 41
1, 10737, Control_c, 0, 64, 42
1, 10752, Control_c, 0, 64, 42
1, 10781, Control_c, 0, 64, 41
1, 10811, Control_c, 0, 64, 40
1, 10826, Control_c, 0, 64, 39
1, 10841, Control_c, 0, 64, 38
1, 10855, Control_c, 0, 64, 36
1, 10870, Control_c, 0, 64, 30
1, 10885, Control_c, 0, 64, 22
1, 10900, Control_c, 0, 64, 14
1, 10914, Control_c, 0, 64, 11
1, 10988, Control_c, 0, 64, 0
1, 11003, Note_on_c, 0, 74, 51
1, 11094, Note_off_c, 0, 75, 55
1, 11103, Note_on_c, 0, 72, 58
1, 11274, Note_on_c, 0, 70, 54
1, 11283, Note_on_c, 0, 65, 42
1, 11294, Note_off_c, 0, 74, 26
1, 11297, Note_on_c, 0, 58, 33
1, 11299, Note_on_c, 0, 50, 35
1, 11299, Control_c, 0, 64, 11
1, 11300, Note_on_c, 0, 53, 39
1, 11329, Control_c, 0, 64, 0
1, 11398, Note_off_c, 0, 72, 52
1, 11530, Control_c, 0, 64, 37
1, 11545, Control_c, 0, 64, 58
1, 11559, Control_c, 0, 64, 64
1, 11574, Control_c, 0, 64, 68
1, 11589, Control_c, 0, 64, 71
1, 11604, Control_c, 0, 64, 73
1, 11619, Control_c, 0, 64, 75
1, 11634, Control_c, 0, 64, 76
1, 11649, Control_c, 0, 64, 77
1, 11664, Control_c, 0, 64, 78
1, 11678, Control_c, 0, 64, 79
1, 11693, Control_c, 0, 64, 80
1, 11723, Control_c, 0, 64, 80
1, 11948, Note_on_c, 0, 51, 54
1, 11960, Control_c, 0, 64, 80
1, 11983, Note_off_c, 0, 53, 50
1, 11985, Note_off_c, 0, 50, 55
1, 11990, Control_c, 0, 64, 79
1, 12004, Control_c, 0, 64, 78
1, 12019, Control_c, 0, 64, 77
1, 12034, Control_c, 0, 64, 76
1, 12048, Control_c, 0, 64, 75
1, 12063, Control_c, 0, 64, 73
1, 12078, Control_c, 0, 64, 71
1, 12093, Control_c, 0, 64, 68
1, 12108, Control_c, 0, 64, 63
1, 12130, Control_c, 0, 64, 48
1, 12145, Control_c, 0, 64, 0
1, 12166, Note_on_c, 0, 50, 61
1, 12186, Note_off_c, 0, 51, 59
1, 12432, Note_off_c, 0, 50, 63
1, 12453, Note_on_c, 0, 51, 58
1, 12500, Note_off_c, 0, 51, 60
1, 12518, Note_on_c, 0, 50, 51
1, 12568, Note_off_c, 0, 50, 64
1, 12595, Note_on_c, 0, 48, 60
1, 12738, Control_c, 0, 64, 61
1, 12752, Control_c, 0, 64, 70
1, 12767, Control_c, 0, 64, 78
1, 12782, Control_c, 0, 64, 87
1, 12797, Control_c, 0, 64, 92
1, 12807, Note_off_c, 0, 58, 53
1, 12812, Control_c, 0, 64, 94
1, 12822, Note_off_c, 0, 65, 66
1, 12826, Note_on_c, 0, 50, 63
1, 12826, Control_c, 0, 64, 96
1, 12836, Note_off_c, 0, 48, 64
1, 12841, Control_c, 0, 64, 98
1, 12856, Control_c, 0, 64, 100
1, 12878, Control_c, 0, 64, 102
1, 12893, Control_c, 0, 64, 103
1, 12908, Control_c, 0, 64, 103
1, 12923, Control_c, 0, 64, 104
1, 13043, Control_c, 0, 64, 103
1, 13072, Control_c, 0, 64, 102
1, 13087, Control_c, 0, 64, 101
1, 13097, Note_on_c, 0, 55, 44
1, 13098, Note_on_c, 0, 51, 48
1, 13101, Control_c, 0, 64, 98
1, 13103, Note_on_c, 0, 60, 47
1, 13111, Note_on_c, 0, 67, 64
1, 13116, Control_c, 0, 64, 95
1, 13131, Control_c, 0, 64, 90
1, 13146, Control_c, 0, 64, 85
1, 13161, Control_c, 0, 64, 77
1, 13175, Control_c, 0, 64, 69
1, 13181, Note_off_c, 0, 50, 36
1, 13190, Control_c, 0, 64, 51
1, 13205, Note_off_c, 0, 70, 56
1, 13205, Control_c, 0, 64, 0
1, 13356, Note_on_c, 0, 72, 63
1, 13569, Note_on_c, 0, 71, 69
1, 13637, Note_off_c, 0, 72, 60
1, 13667, Note_off_c, 0, 67, 63
1, 13810, Note_on_c, 0, 72, 75
1, 13887, Note_off_c, 0, 71, 57
1, 14116, Note_on_c, 0, 67, 66
1, 14176, Note_off_c, 0, 60, 58
1, 14221, Control_c, 0, 64, 64
1, 14236, Control_c, 0, 64, 72
1, 14250, Control_c, 0, 64, 79
1, 14265, Control_c, 0, 64, 84
1, 14280, Control_c, 0, 64, 86
1, 14290, Note_off_c, 0, 72, 55
1, 14293, Note_off_c, 0, 51, 61
1, 14295, Control_c, 0, 64, 87
1, 14310, Control_c, 0, 64, 88
1, 14324, Control_c, 0, 64, 89
1, 14326, Note_off_c, 0, 55, 38
1, 14339, Control_c, 0, 64, 91
1, 14354, Control_c, 0, 64, 92
1, 14376, Control_c, 0, 64, 92
1, 14391, Control_c, 0, 64, 93
1, 14406, Control_c, 0, 64, 93
1, 14450, Control_c, 0, 64, 94
1, 14673, Control_c, 0, 64, 93
1, 14703, Control_c, 0, 64, 92
1, 14713, Note_on_c, 0, 65, 58
1, 14713, Note_on_c, 0, 60, 37
1, 14718, Note_on_c, 0, 56, 36
1, 14718, Control_c, 0, 64, 91
1, 14733, Control_c, 0, 64, 89
1, 14747, Control_c, 0, 64, 86
1, 14762, Control_c, 0, 64, 80
1, 14777, Control_c, 0, 64, 73
1, 14791, Control_c, 0, 64, 52
1, 14806, Control_c, 0, 64, 0
1, 14844, Note_off_c, 0, 67, 58
1, 14940, Control_c, 0, 64, 57
1, 14954, Control_c, 0, 64, 67
1, 14969, Control_c, 0, 64, 72
1, 14984, Control_c, 0, 64, 77
1, 14999, Control_c, 0, 64, 80
1, 15014, Control_c, 0, 64, 81
1, 15028, Control_c, 0, 64, 82
1, 15043, Control_c, 0, 64, 83
1, 15058, Control_c, 0, 64, 83
1, 15072, Control_c, 0, 64, 84
1, 15087, Control_c, 0, 64, 85
1, 15102, Control_c, 0, 64, 86
1, 15125, Control_c, 0, 64, 87
1, 15140, Control_c, 0, 64, 88
1, 15167, Note_off_c, 0, 65, 63
1, 15169, Control_c, 0, 64, 88
1, 15214, Control_c, 0, 64, 89
1, 15235, Note_on_c, 0, 63, 41
1, 15312, Note_on_c, 0, 65, 48
1, 15314, Note_off_c, 0, 63, 39
1, 15363, Control_c, 0, 64, 88
1, 15377, Control_c, 0, 64, 88
1, 15392, Control_c, 0, 64, 87
1, 15397, Note_on_c, 0, 55, 34
1, 15405, Note_on_c, 0, 59, 35
1, 15407, Control_c, 0, 64, 85
1, 15420, Note_on_c, 0, 62, 42
1, 15420, Note_on_c, 0, 67, 49
1, 15422, Control_c, 0, 64, 83
1, 15437, Control_c, 0, 64, 80
1, 15451, Control_c, 0, 64, 77
1, 15466, Control_c, 0, 64, 71
1, 15480, Note_off_c, 0, 62, 0
1, 15480, Note_on_c, 0, 62, 8
1, 15481, Control_c, 0, 64, 64
1, 15495, Control_c, 0, 64, 30
1, 15497, Note_off_c, 0, 60, 36
1, 15507, Note_off_c, 0, 56, 35
1, 15510, Control_c, 0, 64, 0
1, 15513, Note_off_c, 0, 65, 37
1, 15792, Control_c, 0, 64, 41
1, 15807, Control_c, 0, 64, 63
1, 15822, Control_c, 0, 64, 67
1, 15837, Control_c, 0, 64, 69
1, 15851, Control_c, 0, 64, 69
1, 15873, Control_c, 0, 64, 70
1, 15888, Control_c, 0, 64, 71
1, 15903, Control_c, 0, 64, 72
1, 15918, Control_c, 0, 64, 73
1, 15932, Control_c, 0, 64, 75
1, 15947, Control_c, 0, 64, 76
1, 15962, Control_c, 0, 64, 76
1, 15992, Control_c, 0, 64, 77
1, 16021, Control_c, 0, 64, 77
1, 16036, Control_c, 0, 64, 78
1, 16051, Control_c, 0, 64, 78
1, 16066, Control_c, 0, 64, 79
1, 16081, Control_c, 0, 64, 79
1, 16110, Control_c, 0, 64, 80
1, 16125, Control_c, 0, 64, 80
1, 16141, Control_c, 0, 64, 81
1, 16156, Control_c, 0, 64, 81
1, 16171, Control_c, 0, 64, 82
1, 16215, Control_c, 0, 64, 82
1, 16437, Control_c, 0, 64, 82
1, 16443, Note_on_c, 0, 63, 45
1, 16445, Note_on_c, 0, 60, 30
1, 16451, Control_c, 0, 64, 81
1, 16466, Control_c, 0, 64, 80
1, 16481, Control_c, 0, 64, 77
1, 16496, Control_c, 0, 64, 74
1, 16505, Note_off_c, 0, 60, 0
1, 16505, Note_on_c, 0, 60, 5
1, 16511, Control_c, 0, 64, 67
1, 16526, Control_c, 0, 64, 53
1, 16541, Control_c, 0, 64, 0
1, 16554, Note_off_c, 0, 59, 47
1, 16579, Note_off_c, 0, 62, 52
1, 16666, Control_c, 0, 64, 54
1, 16681, Control_c, 0, 64, 64
1, 16696, Control_c, 0, 64, 67
1, 16711, Control_c, 0, 64, 69
1, 16725, Control_c, 0, 64, 70
1, 16740, Control_c, 0, 64, 71
1, 16755, Control_c, 0, 64, 73
1, 16770, Control_c, 0, 64, 74
1, 16785, Control_c, 0, 64, 75
1, 16800, Control_c, 0, 64, 76
1, 16830, Control_c, 0, 64, 76
1, 16902, Note_on_c, 0, 62, 40
1, 16904, Note_on_c, 0, 65, 69
1, 16964, Control_c, 0, 64, 77
1, 16979, Control_c, 0, 64, 78
1, 16994, Control_c, 0, 64, 79
1, 17009, Control_c, 0, 64, 80
1, 17023, Control_c, 0, 64, 82
1, 17029, Note_off_c, 0, 63, 55
1, 17037, Note_off_c, 0, 67, 64
1, 17038, Control_c, 0, 64, 84
1, 17048, Note_off_c, 0, 60, 25
1, 17053, Control_c, 0, 64, 86
1, 17055, Note_off_c, 0, 62, 61
1, 17067, Control_c, 0, 64, 88
1, 17075, Note_off_c, 0, 55, 55
1, 17082, Control_c, 0, 64, 90
1, 17097, Control_c, 0, 64, 91
1, 17112, Control_c, 0, 64, 93
1, 17122, Note_off_c, 0, 65, 64
1, 17127, Control_c, 0, 64, 95
1, 17141, Control_c, 0, 64, 96
1, 17156, Control_c, 0, 64, 97
1, 17171, Control_c, 0, 64, 97
1, 17186, Control_c, 0, 64, 98
1, 17201, Control_c, 0, 64, 98
1, 17416, Control_c, 0, 64, 98
1, 17430, Control_c, 0, 64, 97
1, 17438, Note_on_c, 0, 72, 64
1, 17440, Note_on_c, 0, 51, 44
1, 17440, Note_on_c, 0, 55, 44
1, 17441, Note_on_c, 0, 67, 62
1, 17442, Note_on_c, 0, 79, 71
1, 17443, Note_on_c, 0, 60, 38
1, 17445, Control_c, 0, 64, 95
1, 17460, Control_c, 0, 64, 91
1, 17474, Control_c, 0, 64, 83
1, 17489, Control_c, 0, 64, 75
1, 17504, Control_c, 0, 64, 65
1, 17519, Control_c, 0, 64, 0
1, 17578, Control_c, 0, 64, 64
1, 17593, Control_c, 0, 64, 71
1, 17608, Control_c, 0, 64, 77
1, 17623, Control_c, 0, 64, 82
1, 17638, Control_c, 0, 64, 85
1, 17652, Control_c, 0, 64, 87
1, 17667, Control_c, 0, 64, 90
1, 17682, Control_c, 0, 64, 92
1, 17697, Control_c, 0, 64, 95
1, 17700, Note_off_c, 0, 67, 62
1, 17712, Control_c, 0, 64, 97
1, 17723, Note_off_c, 0, 79, 62
1, 17727, Control_c, 0, 64, 98
1, 17742, Control_c, 0, 64, 99
1, 17757, Control_c, 0, 64, 100
1, 17769, Note_off_c, 0, 51, 58
1, 17769, Note_off_c, 0, 55, 64
1, 17769, Note_off_c, 0, 60, 61
1, 17787, Control_c, 0, 64, 101
1, 17801, Control_c, 0, 64, 101
1, 17831, Control_c, 0, 64, 102
1, 17953, Note_on_c, 0, 79, 78
1, 17955, Note_on_c, 0, 67, 76
1, 18097, Control_c, 0, 64, 101
1, 18120, Control_c, 0, 64, 98
1, 18135, Control_c, 0, 64, 93
1, 18150, Control_c, 0, 64, 82
1, 18157, Note_on_c, 0, 50, 56
1, 18165, Control_c, 0, 64, 69
1, 18179, Control_c, 0, 64, 0
1, 18238, Control_c, 0, 64, 63
1, 18253, Control_c, 0, 64, 72
1, 18256, Note_on_c, 0, 56, 74
1, 18268, Control_c, 0, 64, 81
1, 18269, Note_off_c, 0, 50, 64
1, 18283, Control_c, 0, 64, 87
1, 18297, Control_c, 0, 64, 91
1, 18305, Note_off_c, 0, 67, 64
1, 18312, Control_c, 0, 64, 93
1, 18327, Control_c, 0, 64, 95
1, 18342, Note_off_c, 0, 72, 65
1, 18342, Control_c, 0, 64, 97
1, 18345, Note_off_c, 0, 79, 65
1, 18357, Control_c, 0, 64, 100
1, 18359, Note_on_c, 0, 60, 80
1, 18371, Control_c, 0, 64, 104
1, 18386, Control_c, 0, 64, 107
1, 18401, Control_c, 0, 64, 110
1, 18416, Control_c, 0, 64, 111
1, 18430, Control_c, 0, 64, 112
1, 18445, Control_c, 0, 64, 113
1, 18460, Control_c, 0, 64, 114
1, 18475, Control_c, 0, 64, 115
1, 18505, Control_c, 0, 64, 115
1, 18600, Note_on_c, 0, 72, 73
1, 18605, Note_on_c, 0, 79, 74
1, 18607, Note_on_c, 0, 68, 71
1, 18613, Note_on_c, 0, 67, 70
1, 18669, Control_c, 0, 64, 115
1, 18699, Control_c, 0, 64, 114
1, 18707, Note_off_c, 0, 56, 56
1, 18713, Control_c, 0, 64, 113
1, 18724, Note_off_c, 0, 60, 58
1, 18728, Control_c, 0, 64, 111
1, 18743, Control_c, 0, 64, 109
1, 18758, Control_c, 0, 64, 107
1, 18773, Control_c, 0, 64, 105
1, 18787, Control_c, 0, 64, 103
1, 18802, Control_c, 0, 64, 100
1, 18817, Control_c, 0, 64, 98
1, 18832, Control_c, 0, 64, 96
1, 18846, Control_c, 0, 64, 95
1, 18869, Control_c, 0, 64, 94
1, 18884, Control_c, 0, 64, 93
1, 18898, Control_c, 0, 64, 91
1, 18913, Control_c, 0, 64, 89
1, 18928, Control_c, 0, 64, 86
1, 18943, Control_c, 0, 64, 83
1, 18958, Control_c, 0, 64, 80
1, 18973, Control_c, 0, 64, 75
1, 18988, Control_c, 0, 64, 71
1, 19002, Control_c, 0, 64, 64
1, 19017, Control_c, 0, 64, 52
1, 19032, Control_c, 0, 64, 32
1, 19046, Control_c, 0, 64, 26
1, 19061, Control_c, 0, 64, 27
1, 19076, Control_c, 0, 64, 25
1, 19091, Control_c, 0, 64, 0
1, 19328, Control_c, 0, 64, 14
1, 19343, Control_c, 0, 64, 64
1, 19358, Control_c, 0, 64, 70
1, 19373, Control_c, 0, 64, 75
1, 19388, Control_c, 0, 64, 79
1, 19403, Control_c, 0, 64, 81
1, 19417, Control_c, 0, 64, 83
1, 19432, Control_c, 0, 64, 85
1, 19447, Control_c, 0, 64, 88
1, 19462, Control_c, 0, 64, 92
1, 19477, Control_c, 0, 64, 95
1, 19492, Control_c, 0, 64, 98
1, 19507, Control_c, 0, 64, 100
1, 19521, Control_c, 0, 64, 102
1, 19536, Control_c, 0, 64, 104
1, 19551, Control_c, 0, 64, 105
1, 19566, Control_c, 0, 64, 106
1, 19581, Control_c, 0, 64, 107
1, 19596, Control_c, 0, 64, 108
1, 19617, Control_c, 0, 64, 108
1, 19629, Note_off_c, 0, 72, 56
1, 19652, Note_off_c, 0, 68, 40
1, 19655, Note_on_c, 0, 77, 58
1, 19672, Note_on_c, 0, 65, 37
1, 19753, Note_off_c, 0, 67, 39
1, 19754, Note_on_c, 0, 75, 50
1, 19782, Note_on_c, 0, 63, 51
1, 19796, Control_c, 0, 64, 108
1, 19805, Note_off_c, 0, 79, 34
1, 19811, Control_c, 0, 64, 107
1, 19820, Note_off_c, 0, 65, 43
1, 19825, Control_c, 0, 64, 104
1, 19840, Note_off_c, 0, 77, 27
1, 19840, Control_c, 0, 64, 101
1, 19855, Control_c, 0, 64, 98
1, 19857, Note_off_c, 0, 75, 58
1, 19861, Note_on_c, 0, 74, 42
1, 19869, Control_c, 0, 64, 93
1, 19876, Note_off_c, 0, 63, 58
1, 19884, Control_c, 0, 64, 88
1, 19892, Note_on_c, 0, 62, 38
1, 19899, Control_c, 0, 64, 82
1, 19914, Control_c, 0, 64, 76
1, 19929, Control_c, 0, 64, 69
1, 19943, Control_c, 0, 64, 56
1, 19958, Control_c, 0, 64, 0
1, 20390, Note_on_c, 0, 65, 46
1, 20398, Note_on_c, 0, 56, 33
1, 20400, Note_on_c, 0, 72, 47
1, 20410, Note_on_c, 0, 60, 11
1, 20559, Control_c, 0, 64, 11
1, 20574, Control_c, 0, 64, 59
1, 20589, Control_c, 0, 64, 65
1, 20604, Control_c, 0, 64, 69
1, 20618, Control_c, 0, 64, 72
1, 20633, Control_c, 0, 64, 75
1, 20648, Control_c, 0, 64, 77
1, 20663, Control_c, 0, 64, 80
1, 20678, Control_c, 0, 64, 81
1, 20692, Control_c, 0, 64, 83
1, 20707, Control_c, 0, 64, 84
1, 20720, Note_off_c, 0, 62, 37
1, 20722, Control_c, 0, 64, 86
1, 20737, Control_c, 0, 64, 87
1, 20752, Control_c, 0, 64, 89
1, 20766, Control_c, 0, 64, 89
1, 20781, Control_c, 0, 64, 90
1, 20796, Control_c, 0, 64, 91
1, 20810, Control_c, 0, 64, 92
1, 20825, Control_c, 0, 64, 92
1, 20828, Note_off_c, 0, 56, 38
1, 20840, Control_c, 0, 64, 93
1, 20855, Control_c, 0, 64, 93
1, 20884, Control_c, 0, 64, 94
1, 20914, Control_c, 0, 64, 94
1, 21269, Note_off_c, 0, 65, 57
1, 21278, Control_c, 0, 64, 93
1, 21289, Note_on_c, 0, 71, 55
1, 21292, Note_on_c, 0, 59, 33
1, 21293, Control_c, 0, 64, 89
1, 21294, Note_on_c, 0, 55, 31
1, 21298, Note_on_c, 0, 67, 49
1, 21308, Control_c, 0, 64, 83
1, 21319, Note_off_c, 0, 60, 44
1, 21322, Control_c, 0, 64, 76
1, 21337, Control_c, 0, 64, 66
1, 21352, Control_c, 0, 64, 0
1, 21411, Control_c, 0, 64, 64
1, 21426, Control_c, 0, 64, 72
1, 21441, Control_c, 0, 64, 80
1, 21449, Note_off_c, 0, 59, 56
1, 21453, Note_off_c, 0, 67, 63
1, 21456, Control_c, 0, 64, 86
1, 21457, Note_off_c, 0, 55, 56
1, 21465, Note_off_c, 0, 74, 65
1, 21471, Control_c, 0, 64, 91
1, 21486, Control_c, 0, 64, 94
1, 21494, Note_off_c, 0, 71, 63
1, 21501, Control_c, 0, 64, 97
1, 21501, Note_off_c, 0, 72, 38
1, 21515, Control_c, 0, 64, 100
1, 21531, Control_c, 0, 64, 102
1, 21546, Control_c, 0, 64, 104
1, 21560, Control_c, 0, 64, 105
1, 21575, Control_c, 0, 64, 106
1, 21590, Control_c, 0, 64, 106
1, 21754, Control_c, 0, 64, 106
1, 21769, Control_c, 0, 64, 103
1, 21771, Note_on_c, 0, 51, 41
1, 21775, Note_on_c, 0, 79, 67
1, 21778, Note_on_c, 0, 60, 37
1, 21779, Note_on_c, 0, 55, 41
1, 21779, Note_on_c, 0, 67, 54
1, 21779, Note_on_c, 0, 72, 63
1, 21784, Control_c, 0, 64, 100
1, 21799, Control_c, 0, 64, 94
1, 21813, Control_c, 0, 64, 86
1, 21828, Control_c, 0, 64, 75
1, 21843, Control_c, 0, 64, 62
1, 21864, Control_c, 0, 64, 0
1, 21939, Control_c, 0, 64, 37
1, 21954, Control_c, 0, 64, 65
1, 21969, Control_c, 0, 64, 73
1, 21984, Control_c, 0, 64, 80
1, 21999, Control_c, 0, 64, 85
1, 22013, Note_off_c, 0, 67, 62
1, 22013, Control_c, 0, 64, 87
1, 22028, Control_c, 0, 64, 89
1, 22043, Control_c, 0, 64, 91
1, 22044, Note_on_c, 0, 74, 30
1, 22049, Note_off_c, 0, 79, 63
1, 22058, Control_c, 0, 64, 93
1, 22072, Control_c, 0, 64, 96
1, 22087, Control_c, 0, 64, 98
1, 22090, Note_off_c, 0, 74, 46
1, 22102, Control_c, 0, 64, 100
1, 22117, Control_c, 0, 64, 100
1, 22121, Note_off_c, 0, 51, 61
1, 22127, Note_off_c, 0, 60, 60
1, 22132, Control_c, 0, 64, 101
1, 22141, Note_off_c, 0, 55, 52
1, 22161, Control_c, 0, 64, 101
1, 22176, Control_c, 0, 64, 102
1, 22260, Note_on_c, 0, 79, 76
1, 22261, Note_on_c, 0, 67, 74
1, 22443, Control_c, 0, 64, 101
1, 22455, Note_on_c, 0, 50, 60
1, 22457, Control_c, 0, 64, 97
1, 22472, Control_c, 0, 64, 90
1, 22487, Control_c, 0, 64, 77
1, 22502, Control_c, 0, 64, 57
1, 22517, Control_c, 0, 64, 0
1, 22556, Note_on_c, 0, 56, 73
1, 22569, Note_off_c, 0, 50, 65
1, 22577, Control_c, 0, 64, 42
1, 22592, Control_c, 0, 64, 68
1, 22614, Control_c, 0, 64, 77
1, 22625, Note_off_c, 0, 67, 63
1, 22629, Control_c, 0, 64, 85
1, 22643, Control_c, 0, 64, 89
1, 22658, Control_c, 0, 64, 90
1, 22664, Note_off_c, 0, 72, 65
1, 22669, Note_on_c, 0, 60, 80
1, 22673, Control_c, 0, 64, 91
1, 22678, Note_off_c, 0, 79, 63
1, 22687, Control_c, 0, 64, 92
1, 22702, Control_c, 0, 64, 94
1, 22717, Control_c, 0, 64, 95
1, 22732, Control_c, 0, 64, 96
1, 22747, Control_c, 0, 64, 97
1, 22762, Control_c, 0, 64, 98
1, 22777, Control_c, 0, 64, 98
1, 22792, Control_c, 0, 64, 99
1, 22821, Control_c, 0, 64, 99
1, 22891, Note_on_c, 0, 67, 62
1, 22893, Note_on_c, 0, 68, 72
1, 22893, Note_on_c, 0, 72, 73
1, 22893, Note_on_c, 0, 79, 78
1, 22964, Note_off_c, 0, 56, 56
1, 23015, Note_off_c, 0, 60, 61
1, 23057, Control_c, 0, 64, 99
1, 23087, Control_c, 0, 64, 98
1, 23102, Control_c, 0, 64, 98
1, 23116, Control_c, 0, 64, 97
1, 23131, Control_c, 0, 64, 96
1, 23146, Control_c, 0, 64, 95
1, 23161, Control_c, 0, 64, 94
1, 23176, Control_c, 0, 64, 92
1, 23191, Control_c, 0, 64, 91
1, 23205, Control_c, 0, 64, 88
1, 23220, Control_c, 0, 64, 85
1, 23235, Control_c, 0, 64, 82
1, 23250, Control_c, 0, 64, 78
1, 23265, Control_c, 0, 64, 73
1, 23279, Control_c, 0, 64, 67
1, 23294, Control_c, 0, 64, 58
1, 23309, Control_c, 0, 64, 0
1, 23658, Control_c, 0, 64, 52
1, 23673, Control_c, 0, 64, 66
1, 23688, Control_c, 0, 64, 71
1, 23703, Control_c, 0, 64, 74
1, 23717, Control_c, 0, 64, 77
1, 23732, Control_c, 0, 64, 79
1, 23747, Control_c, 0, 64, 81
1, 23762, Control_c, 0, 64, 83
1, 23777, Control_c, 0, 64, 86
1, 23791, Control_c, 0, 64, 88
1, 23806, Control_c, 0, 64, 90
1, 23821, Control_c, 0, 64, 91
1, 23835, Control_c, 0, 64, 93
1, 23850, Control_c, 0, 64, 93
1, 23865, Control_c, 0, 64, 94
1, 23896, Note_off_c, 0, 72, 61
1, 23909, Control_c, 0, 64, 95
1, 23915, Note_on_c, 0, 65, 41
1, 23928, Note_on_c, 0, 77, 42
1, 23961, Note_off_c, 0, 68, 39
1, 23997, Note_on_c, 0, 75, 49
1, 24014, Control_c, 0, 64, 94
1, 24026, Note_off_c, 0, 67, 32
1, 24030, Note_on_c, 0, 63, 45
1, 24043, Control_c, 0, 64, 93
1, 24058, Control_c, 0, 64, 90
1, 24071, Note_off_c, 0, 79, 32
1, 24073, Control_c, 0, 64, 85
1, 24088, Control_c, 0, 64, 79
1, 24088, Note_off_c, 0, 65, 40
1, 24097, Note_off_c, 0, 77, 37
1, 24099, Note_on_c, 0, 74, 51
1, 24109, Control_c, 0, 64, 72
1, 24112, Note_off_c, 0, 75, 58
1, 24124, Control_c, 0, 64, 61
1, 24131, Note_off_c, 0, 63, 55
1, 24135, Note_on_c, 0, 62, 35
1, 24140, Control_c, 0, 64, 0
1, 24617, Note_on_c, 0, 60, 17
1, 24617, Note_on_c, 0, 72, 46
1, 24624, Note_on_c, 0, 56, 26
1, 24625, Note_on_c, 0, 65, 36
1, 24822, Control_c, 0, 64, 57
1, 24837, Control_c, 0, 64, 65
1, 24859, Control_c, 0, 64, 68
1, 24874, Control_c, 0, 64, 70
1, 24889, Control_c, 0, 64, 73
1, 24904, Control_c, 0, 64, 75
1, 24913, Note_off_c, 0, 62, 32
1, 24919, Control_c, 0, 64, 78
1, 24935, Control_c, 0, 64, 80
1, 24950, Control_c, 0, 64, 81
1, 24964, Control_c, 0, 64, 82
1, 24979, Control_c, 0, 64, 83
1, 24994, Control_c, 0, 64, 84
1, 25009, Control_c, 0, 64, 84
1, 25024, Control_c, 0, 64, 85
1, 25038, Control_c, 0, 64, 86
1, 25068, Control_c, 0, 64, 86
1, 25082, Control_c, 0, 64, 87
1, 25097, Control_c, 0, 64, 87
1, 25127, Control_c, 0, 64, 88
1, 25156, Control_c, 0, 64, 88
1, 25168, Note_off_c, 0, 56, 29
1, 25186, Control_c, 0, 64, 89
1, 25201, Control_c, 0, 64, 89
1, 25215, Control_c, 0, 64, 90
1, 25245, Control_c, 0, 64, 90
1, 25260, Control_c, 0, 64, 91
1, 25275, Control_c, 0, 64, 91
1, 25408, Control_c, 0, 64, 92
1, 25421, Note_off_c, 0, 60, 53
1, 25497, Control_c, 0, 64, 91
1, 25519, Note_on_c, 0, 71, 50
1, 25527, Control_c, 0, 64, 91
1, 25532, Note_off_c, 0, 65, 40
1, 25538, Note_on_c, 0, 67, 42
1, 25542, Control_c, 0, 64, 88
1, 25547, Note_on_c, 0, 59, 27
1, 25556, Control_c, 0, 64, 84
1, 25560, Note_on_c, 0, 55, 37
1, 25571, Control_c, 0, 64, 79
1, 25586, Control_c, 0, 64, 72
1, 25608, Control_c, 0, 64, 62
1, 25623, Control_c, 0, 64, 43
1, 25638, Control_c, 0, 64, 53
1, 25653, Control_c, 0, 64, 65
1, 25668, Control_c, 0, 64, 72
1, 25668, Note_off_c, 0, 59, 57
1, 25677, Note_off_c, 0, 55, 58
1, 25683, Control_c, 0, 64, 80
1, 25692, Note_off_c, 0, 74, 66
1, 25697, Control_c, 0, 64, 88
1, 25702, Note_off_c, 0, 67, 62
1, 25712, Control_c, 0, 64, 90
1, 25721, Note_off_c, 0, 72, 55
1, 25727, Control_c, 0, 64, 92
1, 25729, Note_off_c, 0, 71, 61
1, 25743, Control_c, 0, 64, 93
1, 25758, Control_c, 0, 64, 93
1, 25772, Control_c, 0, 64, 94
1, 25787, Control_c, 0, 64, 95
1, 25802, Control_c, 0, 64, 97
1, 25817, Control_c, 0, 64, 98
1, 25831, Control_c, 0, 64, 99
1, 25846, Note_on_c, 0, 48, 38
1, 25846, Control_c, 0, 64, 100
1, 25933, Note_on_c, 0, 55, 38
1, 25994, Control_c, 0, 64, 99
1, 26009, Control_c, 0, 64, 99
1, 26024, Control_c, 0, 64, 97
1, 26034, Note_on_c, 0, 72, 56
1, 26038, Control_c, 0, 64, 94
1, 26042, Note_on_c, 0, 63, 44
1, 26052, Note_on_c, 0, 67, 52
1, 26053, Control_c, 0, 64, 89
1, 26068, Control_c, 0, 64, 82
1, 26074, Note_on_c, 0, 60, 40
1, 26083, Control_c, 0, 64, 71
1, 26098, Control_c, 0, 64, 46
1, 26112, Control_c, 0, 64, 0
1, 26202, Control_c, 0, 64, 61
1, 26217, Control_c, 0, 64, 72
1, 26222, Note_off_c, 0, 63, 65
1, 26223, Note_off_c, 0, 55, 58
1, 26227, Note_off_c, 0, 48, 58
1, 26231, Control_c, 0, 64, 82
1, 26231, Note_off_c, 0, 67, 64
1, 26234, Note_off_c, 0, 60, 55
1, 26246, Control_c, 0, 64, 90
1, 26261, Control_c, 0, 64, 95
1, 26268, Note_off_c, 0, 72, 66
1, 26276, Control_c, 0, 64, 98
1, 26291, Control_c, 0, 64, 100
1, 26305, Control_c, 0, 64, 102
1, 26320, Control_c, 0, 64, 105
1, 26335, Control_c, 0, 64, 108
1, 26357, Control_c, 0, 64, 111
1, 26372, Control_c, 0, 64, 111
1, 26386, Control_c, 0, 64, 112
1, 26504, Note_on_c, 0, 60, 44
1, 26506, Note_on_c, 0, 72, 65
1, 26565, Control_c, 0, 64, 111
1, 26595, Control_c, 0, 64, 111
1, 26610, Control_c, 0, 64, 110
1, 26625, Control_c, 0, 64, 109
1, 26640, Control_c, 0, 64, 107
1, 26654, Control_c, 0, 64, 106
1, 26669, Control_c, 0, 64, 104
1, 26684, Control_c, 0, 64, 101
1, 26699, Control_c, 0, 64, 98
1, 26714, Control_c, 0, 64, 95
1, 26728, Control_c, 0, 64, 91
1, 26737, Note_on_c, 0, 62, 55
1, 26739, Note_on_c, 0, 74, 76
1, 26743, Control_c, 0, 64, 87
1, 26758, Control_c, 0, 64, 81
1, 26771, Control_c, 0, 64, 75
1, 26775, Note_off_c, 0, 60, 54
1, 26786, Control_c, 0, 64, 69
1, 26801, Control_c, 0, 64, 61
1, 26816, Control_c, 0, 64, 34
1, 26831, Control_c, 0, 64, 0
1, 26978, Note_on_c, 0, 77, 78
1, 26987, Note_on_c, 0, 65, 52
1, 27012, Note_off_c, 0, 62, 55
1, 27029, Note_off_c, 0, 72, 63
1, 27043, Note_off_c, 0, 74, 64
1, 27200, Note_on_c, 0, 75, 75
1, 27209, Note_on_c, 0, 63, 59
1, 27308, Note_off_c, 0, 65, 32
1, 27311, Note_off_c, 0, 77, 59
1, 27437, Note_on_c, 0, 62, 55
1, 27442, Note_off_c, 0, 63, 60
1, 27443, Note_on_c, 0, 74, 74
1, 27547, Note_off_c, 0, 75, 52
1, 27676, Note_off_c, 0, 62, 60
1, 27692, Note_on_c, 0, 60, 49
1, 27705, Note_on_c, 0, 72, 76
1, 27711, Note_off_c, 0, 74, 65
1, 28028, Note_off_c, 0, 60, 59
1, 28044, Note_on_c, 0, 63, 64
1, 28049, Note_on_c, 0, 75, 72
1, 28143, Note_off_c, 0, 72, 65
1, 28166, Control_c, 0, 64, 56
1, 28180, Control_c, 0, 64, 69
1, 28195, Control_c, 0, 64, 75
1, 28210, Control_c, 0, 64, 82
1, 28224, Control_c, 0, 64, 87
1, 28239, Control_c, 0, 64, 89
1, 28254, Control_c, 0, 64, 91
1, 28270, Control_c, 0, 64, 93
1, 28285, Control_c, 0, 64, 95
1, 28299, Control_c, 0, 64, 97
1, 28314, Control_c, 0, 64, 99
1, 28329, Control_c, 0, 64, 102
1, 28344, Control_c, 0, 64, 105
1, 28359, Control_c, 0, 64, 108
1, 28373, Control_c, 0, 64, 111
1, 28388, Control_c, 0, 64, 113
1, 28403, Control_c, 0, 64, 115
1, 28418, Control_c, 0, 64, 117
1, 28429, Note_off_c, 0, 63, 55
1, 28432, Control_c, 0, 64, 119
1, 28447, Control_c, 0, 64, 123
1, 28462, Control_c, 0, 64, 127
1, 28732, Note_on_c, 0, 43, 36
1, 28802, Note_on_c, 0, 51, 37
1, 28840, Note_on_c, 0, 70, 35
1, 28843, Note_on_c, 0, 63, 33
1, 28918, Note_on_c, 0, 58, 34
1, 28940, Note_off_c, 0, 43, 39
1, 28958, Note_off_c, 0, 58, 50
1, 28976, Note_off_c, 0, 51, 47
1, 29067, Note_off_c, 0, 63, 37
1, 29073, Note_off_c, 0, 70, 30
1, 29137, Note_off_c, 0, 75, 60
1, 30025, Note_on_c, 0, 75, 67
1, 30039, Note_on_c, 0, 63, 44
1, 30063, Control_c, 0, 64, 118
1, 30077, Control_c, 0, 64, 111
1, 30100, Control_c, 0, 64, 102
1, 30115, Control_c, 0, 64, 92
1, 30130, Control_c, 0, 64, 81
1, 30144, Control_c, 0, 64, 66
1, 30159, Control_c, 0, 64, 0
1, 30263, Control_c, 0, 64, 64
1, 30271, Note_on_c, 0, 46, 44
1, 30277, Control_c, 0, 64, 73
1, 30292, Control_c, 0, 64, 83
1, 30296, Note_off_c, 0, 63, 63
1, 30307, Control_c, 0, 64, 88
1, 30309, Note_off_c, 0, 75, 65
1, 30322, Control_c, 0, 64, 89
1, 30351, Control_c, 0, 64, 90
1, 30357, Note_on_c, 0, 53, 40
1, 30423, Note_on_c, 0, 58, 40
1, 30435, Note_on_c, 0, 62, 54
1, 30455, Control_c, 0, 64, 89
1, 30470, Control_c, 0, 64, 86
1, 30485, Control_c, 0, 64, 77
1, 30498, Note_on_c, 0, 65, 62
1, 30500, Control_c, 0, 64, 66
1, 30515, Control_c, 0, 64, 0
1, 30548, Note_off_c, 0, 62, 40
1, 30554, Note_on_c, 0, 70, 66
1, 30560, Control_c, 0, 64, 65
1, 30575, Control_c, 0, 64, 76
1, 30590, Control_c, 0, 64, 84
1, 30590, Note_off_c, 0, 53, 65
1, 30596, Note_off_c, 0, 65, 64
1, 30604, Control_c, 0, 64, 87
1, 30611, Note_off_c, 0, 46, 40
1, 30614, Note_off_c, 0, 58, 60
1, 30631, Note_on_c, 0, 74, 72
1, 30679, Control_c, 0, 64, 86
1, 30693, Control_c, 0, 64, 85
1, 30708, Control_c, 0, 64, 82
1, 30723, Control_c, 0, 64, 78
1, 30738, Control_c, 0, 64, 71
1, 30744, Note_off_c, 0, 70, 59
1, 30753, Control_c, 0, 64, 60
1, 30767, Control_c, 0, 64, 0
1, 30928, Note_on_c, 0, 48, 49
1, 30982, Control_c, 0, 64, 62
1, 30997, Control_c, 0, 64, 71
1, 31003, Note_on_c, 0, 55, 28
1, 31012, Control_c, 0, 64, 80
1, 31026, Control_c, 0, 64, 86
1, 31027, Note_on_c, 0, 60, 46
1, 31031, Note_on_c, 0, 63, 58
1, 31041, Control_c, 0, 64, 88
1, 31056, Control_c, 0, 64, 88
1, 31086, Control_c, 0, 64, 89
1, 31111, Note_on_c, 0, 67, 57
1, 31111, Note_off_c, 0, 63, 56
1, 31125, Note_off_c, 0, 48, 43
1, 31126, Note_off_c, 0, 60, 59
1, 31160, Control_c, 0, 64, 88
1, 31171, Note_on_c, 0, 72, 67
1, 31174, Control_c, 0, 64, 87
1, 31178, Note_off_c, 0, 55, 45
1, 31189, Control_c, 0, 64, 84
1, 31204, Control_c, 0, 64, 79
1, 31210, Note_off_c, 0, 74, 32
1, 31219, Control_c, 0, 64, 71
1, 31233, Control_c, 0, 64, 57
1, 31248, Control_c, 0, 64, 0
1, 31269, Note_off_c, 0, 67, 59
1, 31413, Control_c, 0, 64, 38
1, 31428, Control_c, 0, 64, 67
1, 31438, Note_on_c, 0, 55, 39
1, 31442, Control_c, 0, 64, 79
1, 31457, Control_c, 0, 64, 88
1, 31472, Control_c, 0, 64, 94
1, 31484, Note_on_c, 0, 59, 46
1, 31487, Control_c, 0, 64, 96
1, 31502, Control_c, 0, 64, 98
1, 31517, Control_c, 0, 64, 99
1, 31532, Control_c, 0, 64, 99
1, 31561, Control_c, 0, 64, 100
1, 31571, Note_on_c, 0, 62, 46
1, 31599, Note_off_c, 0, 59, 58
1, 31611, Note_off_c, 0, 72, 33
1, 31623, Note_off_c, 0, 55, 40
1, 31643, Control_c, 0, 64, 99
1, 31657, Control_c, 0, 64, 99
1, 31664, Note_on_c, 0, 67, 62
1, 31672, Control_c, 0, 64, 97
1, 31687, Control_c, 0, 64, 93
1, 31693, Note_off_c, 0, 62, 39
1, 31702, Control_c, 0, 64, 88
1, 31717, Control_c, 0, 64, 81
1, 31731, Control_c, 0, 64, 70
1, 31746, Control_c, 0, 64, 52
1, 31761, Control_c, 0, 64, 0
1, 31897, Note_on_c, 0, 69, 13
1, 31963, Note_off_c, 0, 69, 44
1, 31968, Control_c, 0, 64, 46
1, 31983, Control_c, 0, 64, 66
1, 31997, Note_on_c, 0, 48, 40
1, 31998, Control_c, 0, 64, 72
1, 32013, Control_c, 0, 64, 77
1, 32028, Control_c, 0, 64, 81
1, 32042, Control_c, 0, 64, 82
1, 32057, Control_c, 0, 64, 84
1, 32072, Control_c, 0, 64, 86
1, 32086, Note_on_c, 0, 55, 38
1, 32087, Control_c, 0, 64, 88
1, 32101, Note_off_c, 0, 67, 32
1, 32102, Control_c, 0, 64, 89
1, 32118, Control_c, 0, 64, 90
1, 32130, Note_on_c, 0, 60, 45
1, 32133, Control_c, 0, 64, 91
1, 32147, Control_c, 0, 64, 91
1, 32204, Note_on_c, 0, 63, 49
1, 32236, Control_c, 0, 64, 89
1, 32251, Control_c, 0, 64, 85
1, 32265, Control_c, 0, 64, 77
1, 32270, Note_on_c, 0, 67, 59
1, 32280, Control_c, 0, 64, 67
1, 32295, Control_c, 0, 64, 0
1, 32384, Note_on_c, 0, 72, 67
1, 32427, Note_off_c, 0, 63, 54
1, 32489, Note_off_c, 0, 67, 63
1, 32568, Note_off_c, 0, 48, 58
1, 32569, Note_off_c, 0, 60, 55
1, 32569, Control_c, 0, 64, 62
1, 32584, Control_c, 0, 64, 70
1, 32599, Control_c, 0, 64, 77
1, 32614, Control_c, 0, 64, 82
1, 32624, Note_off_c, 0, 55, 41
1, 32629, Control_c, 0, 64, 84
1, 32643, Control_c, 0, 64, 85
1, 32658, Control_c, 0, 64, 86
1, 32673, Control_c, 0, 64, 88
1, 32688, Control_c, 0, 64, 91
1, 32703, Control_c, 0, 64, 94
1, 32718, Control_c, 0, 64, 96
1, 32733, Control_c, 0, 64, 97
1, 32747, Control_c, 0, 64, 98
1, 32762, Control_c, 0, 64, 98
1, 32791, Control_c, 0, 64, 99
1, 33037, Note_off_c, 0, 72, 57
1, 33066, Note_on_c, 0, 74, 52
1, 33229, Note_on_c, 0, 72, 56
1, 33436, Control_c, 0, 64, 98
1, 33451, Control_c, 0, 64, 98
1, 33466, Control_c, 0, 64, 97
1, 33477, Note_on_c, 0, 55, 38
1, 33478, Note_on_c, 0, 59, 36
1, 33481, Control_c, 0, 64, 96
1, 33483, Note_on_c, 0, 67, 45
1, 33487, Note_on_c, 0, 62, 42
1, 33496, Control_c, 0, 64, 94
1, 33510, Control_c, 0, 64, 92
1, 33525, Control_c, 0, 64, 90
1, 33539, Control_c, 0, 64, 86
1, 33554, Control_c, 0, 64, 82
1, 33569, Control_c, 0, 64, 76
1, 33584, Control_c, 0, 64, 69
1, 33599, Control_c, 0, 64, 57
1, 33613, Control_c, 0, 64, 0
1, 33621, Note_off_c, 0, 72, 38
1, 33734, Note_off_c, 0, 74, 33
1, 33918, Control_c, 0, 64, 56
1, 33933, Control_c, 0, 64, 65
1, 33948, Control_c, 0, 64, 68
1, 33963, Control_c, 0, 64, 69
1, 33977, Control_c, 0, 64, 70
1, 33992, Control_c, 0, 64, 71
1, 34007, Control_c, 0, 64, 72
1, 34022, Control_c, 0, 64, 75
1, 34037, Control_c, 0, 64, 77
1, 34051, Control_c, 0, 64, 78
1, 34066, Control_c, 0, 64, 80
1, 34081, Control_c, 0, 64, 81
1, 34096, Control_c, 0, 64, 81
1, 34111, Control_c, 0, 64, 82
1, 34125, Control_c, 0, 64, 83
1, 34140, Control_c, 0, 64, 84
1, 34155, Control_c, 0, 64, 85
1, 34170, Control_c, 0, 64, 86
1, 34185, Control_c, 0, 64, 87
1, 34199, Control_c, 0, 64, 88
1, 34214, Control_c, 0, 64, 89
1, 34229, Control_c, 0, 64, 90
1, 34244, Control_c, 0, 64, 91
1, 34259, Control_c, 0, 64, 92
1, 34274, Control_c, 0, 64, 92
1, 34289, Control_c, 0, 64, 93
1, 34304, Control_c, 0, 64, 94
1, 34319, Control_c, 0, 64, 95
1, 34334, Control_c, 0, 64, 96
1, 34348, Control_c, 0, 64, 97
1, 34363, Control_c, 0, 64, 98
1, 34378, Control_c, 0, 64, 99
1, 34393, Control_c, 0, 64, 100
1, 34408, Control_c, 0, 64, 101
1, 34423, Control_c, 0, 64, 102
1, 34437, Control_c, 0, 64, 102
1, 34452, Control_c, 0, 64, 103
1, 34467, Control_c, 0, 64, 103
1, 34482, Control_c, 0, 64, 104
1, 34497, Control_c, 0, 64, 104
1, 34527, Control_c, 0, 64, 105
1, 34542, Control_c, 0, 64, 105
1, 34558, Note_off_c, 0, 59, 17
1, 34572, Control_c, 0, 64, 106
1, 34593, Control_c, 0, 64, 106
1, 34608, Control_c, 0, 64, 107
1, 34623, Control_c, 0, 64, 107
1, 34638, Control_c, 0, 64, 108
1, 34653, Control_c, 0, 64, 108
1, 34682, Control_c, 0, 64, 109
1, 34697, Control_c, 0, 64, 110
1, 34702, Note_off_c, 0, 62, 33
1, 34712, Control_c, 0, 64, 111
1, 34727, Control_c, 0, 64, 112
1, 34742, Control_c, 0, 64, 113
1, 34757, Control_c, 0, 64, 114
1, 34772, Control_c, 0, 64, 115
1, 34787, Control_c, 0, 64, 116
1, 34801, Control_c, 0, 64, 117
1, 34816, Control_c, 0, 64, 118
1, 34831, Control_c, 0, 64, 118
1, 34846, Control_c, 0, 64, 119
1, 34861, Control_c, 0, 64, 120
1, 34875, Control_c, 0, 64, 121
1, 34890, Control_c, 0, 64, 121
1, 34905, Control_c, 0, 64, 122
1, 34920, Control_c, 0, 64, 123
1, 34935, Control_c, 0, 64, 123
1, 34949, Control_c, 0, 64, 124
1, 34964, Control_c, 0, 64, 125
1, 34979, Control_c, 0, 64, 126
1, 34993, Control_c, 0, 64, 127
1, 35008, Control_c, 0, 64, 127
1, 35815, Note_on_c, 0, 68, 54
1, 35828, Note_on_c, 0, 65, 43
1, 35837, Note_on_c, 0, 60, 32
1, 35846, Control_c, 0, 64, 126
1, 35853, Note_on_c, 0, 53, 41
1, 35861, Control_c, 0, 64, 121
1, 35876, Control_c, 0, 64, 116
1, 35890, Control_c, 0, 64, 111
1, 35905, Control_c, 0, 64, 107
1, 35920, Control_c, 0, 64, 102
1, 35935, Control_c, 0, 64, 97
1, 35949, Control_c, 0, 64, 91
1, 35964, Control_c, 0, 64, 86
1, 35979, Note_off_c, 0, 67, 59
1, 35979, Control_c, 0, 64, 79
1, 35994, Control_c, 0, 64, 72
1, 36009, Control_c, 0, 64, 64
1, 36024, Control_c, 0, 64, 16
1, 36036, Note_off_c, 0, 55, 41
1, 36039, Control_c, 0, 64, 0
1, 36269, Control_c, 0, 64, 53
1, 36284, Control_c, 0, 64, 64
1, 36299, Control_c, 0, 64, 67
1, 36313, Control_c, 0, 64, 69
1, 36328, Control_c, 0, 64, 71
1, 36343, Control_c, 0, 64, 72
1, 36358, Control_c, 0, 64, 74
1, 36373, Control_c, 0, 64, 76
1, 36387, Control_c, 0, 64, 79
1, 36402, Control_c, 0, 64, 81
1, 36417, Control_c, 0, 64, 84
1, 36432, Control_c, 0, 64, 86
1, 36447, Control_c, 0, 64, 88
1, 36462, Control_c, 0, 64, 90
1, 36477, Control_c, 0, 64, 92
1, 36492, Control_c, 0, 64, 94
1, 36507, Control_c, 0, 64, 96
1, 36521, Control_c, 0, 64, 98
1, 36536, Control_c, 0, 64, 100
1, 36551, Control_c, 0, 64, 101
1, 36565, Control_c, 0, 64, 103
1, 36580, Control_c, 0, 64, 105
1, 36595, Control_c, 0, 64, 107
1, 36610, Control_c, 0, 64, 109
1, 36625, Control_c, 0, 64, 111
1, 36639, Control_c, 0, 64, 113
1, 36654, Control_c, 0, 64, 114
1, 36669, Control_c, 0, 64, 116
1, 36684, Control_c, 0, 64, 118
1, 36699, Control_c, 0, 64, 120
1, 36713, Control_c, 0, 64, 122
1, 36728, Control_c, 0, 64, 125
1, 36743, Control_c, 0, 64, 127
1, 37291, Note_off_c, 0, 65, 33
1, 37568, Note_on_c, 0, 71, 40
1, 37661, Note_off_c, 0, 68, 37
1, 37951, Note_off_c, 0, 71, 35
1, 37963, Note_on_c, 0, 72, 35
1, 38199, Note_off_c, 0, 53, 56
1, 38216, Note_off_c, 0, 60, 45
1, 38228, Note_on_c, 0, 74, 50
1, 38301, Note_off_c, 0, 72, 36
1, 38469, Note_on_c, 0, 75, 64
1, 38526, Note_off_c, 0, 74, 60
1, 38714, Note_on_c, 0, 76, 75
1, 38741, Note_off_c, 0, 75, 67
1, 38871, Control_c, 0, 64, 125
1, 38886, Control_c, 0, 64, 122
1, 38901, Control_c, 0, 64, 120
1, 38915, Control_c, 0, 64, 119
1, 38930, Control_c, 0, 64, 118
1, 38945, Control_c, 0, 64, 116
1, 38960, Control_c, 0, 64, 114
1, 38975, Control_c, 0, 64, 112
1, 38984, Note_on_c, 0, 77, 67
1, 38990, Control_c, 0, 64, 111
1, 39005, Control_c, 0, 64, 108
1, 39020, Control_c, 0, 64, 106
1, 39034, Control_c, 0, 64, 104
1, 39045, Note_off_c, 0, 76, 62
1, 39049, Control_c, 0, 64, 101
1, 39064, Control_c, 0, 64, 99
1, 39086, Control_c, 0, 64, 96
1, 39101, Control_c, 0, 64, 93
1, 39115, Control_c, 0, 64, 89
1, 39130, Control_c, 0, 64, 86
1, 39145, Control_c, 0, 64, 83
1, 39160, Control_c, 0, 64, 80
1, 39175, Control_c, 0, 64, 76
1, 39189, Control_c, 0, 64, 71
1, 39204, Control_c, 0, 64, 66
1, 39219, Control_c, 0, 64, 58
1, 39234, Control_c, 0, 64, 39
1, 39249, Control_c, 0, 64, 16
1, 39264, Control_c, 0, 64, 22
1, 39279, Control_c, 0, 64, 25
1, 39294, Control_c, 0, 64, 23
1, 39309, Control_c, 0, 64, 22
1, 39324, Control_c, 0, 64, 18
1, 39339, Control_c, 0, 64, 16
1, 39353, Control_c, 0, 64, 14
1, 39361, Note_on_c, 0, 79, 59
1, 39368, Control_c, 0, 64, 0
1, 39482, Note_off_c, 0, 77, 61
1, 39723, Control_c, 0, 64, 16
1, 39737, Control_c, 0, 64, 38
1, 39752, Control_c, 0, 64, 44
1, 39767, Control_c, 0, 64, 45
1, 39796, Control_c, 0, 64, 45
1, 39811, Control_c, 0, 64, 47
1, 39833, Note_on_c, 0, 82, 54
1, 39833, Control_c, 0, 64, 49
1, 39848, Control_c, 0, 64, 49
1, 39893, Control_c, 0, 64, 50
1, 39907, Control_c, 0, 64, 50
1, 39937, Control_c, 0, 64, 50
1, 39952, Control_c, 0, 64, 49
1, 39980, Note_off_c, 0, 79, 60
1, 39996, Control_c, 0, 64, 50
1, 40011, Control_c, 0, 64, 50
1, 40041, Control_c, 0, 64, 51
1, 40056, Control_c, 0, 64, 53
1, 40070, Control_c, 0, 64, 55
1, 40085, Control_c, 0, 64, 58
1, 40100, Control_c, 0, 64, 61
1, 40116, Control_c, 0, 64, 63
1, 40131, Control_c, 0, 64, 64
1, 40146, Control_c, 0, 64, 65
1, 40160, Control_c, 0, 64, 66
1, 40175, Control_c, 0, 64, 68
1, 40190, Control_c, 0, 64, 70
1, 40204, Control_c, 0, 64, 72
1, 40219, Control_c, 0, 64, 74
1, 40234, Control_c, 0, 64, 76
1, 40249, Control_c, 0, 64, 77
1, 40264, Control_c, 0, 64, 78
1, 40278, Control_c, 0, 64, 79
1, 40293, Control_c, 0, 64, 81
1, 40308, Control_c, 0, 64, 82
1, 40323, Control_c, 0, 64, 84
1, 40338, Control_c, 0, 64, 86
1, 40352, Control_c, 0, 64, 88
1, 40367, Control_c, 0, 64, 89
1, 40382, Control_c, 0, 64, 91
1, 40397, Control_c, 0, 64, 93
1, 40412, Control_c, 0, 64, 94
1, 40427, Control_c, 0, 64, 96
1, 40441, Control_c, 0, 64, 98
1, 40456, Control_c, 0, 64, 99
1, 40471, Control_c, 0, 64, 100
1, 40486, Control_c, 0, 64, 102
1, 40501, Control_c, 0, 64, 103
1, 40516, Control_c, 0, 64, 104
1, 40530, Control_c, 0, 64, 105
1, 40545, Control_c, 0, 64, 106
1, 40560, Control_c, 0, 64, 107
1, 40575, Control_c, 0, 64, 108
1, 40597, Control_c, 0, 64, 109
1, 40611, Control_c, 0, 64, 110
1, 40626, Control_c, 0, 64, 111
1, 40641, Control_c, 0, 64, 111
1, 40656, Control_c, 0, 64, 112
1, 40671, Control_c, 0, 64, 112
1, 40701, Control_c, 0, 64, 113
1, 40716, Control_c, 0, 64, 113
1, 40760, Control_c, 0, 64, 114
1, 40804, Control_c, 0, 64, 114
1, 40834, Control_c, 0, 64, 115
1, 40835, Note_on_c, 0, 65, 35
1, 40835, Note_on_c, 0, 68, 23
1, 40836, Note_on_c, 0, 74, 20
1, 40893, Control_c, 0, 64, 115
1, 40954, Control_c, 0, 64, 116
1, 40999, Control_c, 0, 64, 116
1, 41028, Control_c, 0, 64, 117
1, 41102, Control_c, 0, 64, 117
1, 41147, Control_c, 0, 64, 118
1, 41191, Control_c, 0, 64, 118
1, 41235, Control_c, 0, 64, 119
1, 41295, Control_c, 0, 64, 119
1, 41391, Control_c, 0, 64, 120
1, 41402, Note_on_c, 0, 80, 46
1, 41480, Control_c, 0, 64, 120
1, 41707, Note_on_c, 0, 79, 53
1, 41760, Note_off_c, 0, 80, 54
1, 41820, Note_off_c, 0, 82, 37
1, 41911, Control_c, 0, 64, 120
1, 41945, Note_on_c, 0, 77, 59
1, 41999, Control_c, 0, 64, 119
1, 42001, Note_off_c, 0, 79, 59
1, 42044, Control_c, 0, 64, 119
1, 42081, Control_c, 0, 64, 118
1, 42096, Control_c, 0, 64, 118
1, 42111, Control_c, 0, 64, 117
1, 42126, Control_c, 0, 64, 117
1, 42140, Control_c, 0, 64, 115
1, 42155, Control_c, 0, 64, 114
1, 42170, Control_c, 0, 64, 112
1, 42184, Control_c, 0, 64, 110
1, 42189, Note_on_c, 0, 82, 58
1, 42199, Control_c, 0, 64, 108
1, 42214, Control_c, 0, 64, 107
1, 42229, Control_c, 0, 64, 105
1, 42244, Control_c, 0, 64, 103
1, 42258, Control_c, 0, 64, 99
1, 42271, Note_off_c, 0, 77, 58
1, 42273, Control_c, 0, 64, 95
1, 42288, Control_c, 0, 64, 92
1, 42303, Control_c, 0, 64, 89
1, 42318, Control_c, 0, 64, 88
1, 42332, Control_c, 0, 64, 86
1, 42347, Control_c, 0, 64, 85
1, 42362, Control_c, 0, 64, 84
1, 42376, Control_c, 0, 64, 83
1, 42391, Control_c, 0, 64, 82
1, 42406, Control_c, 0, 64, 81
1, 42421, Note_on_c, 0, 80, 68
1, 42421, Control_c, 0, 64, 80
1, 42436, Control_c, 0, 64, 79
1, 42451, Control_c, 0, 64, 78
1, 42465, Control_c, 0, 64, 77
1, 42480, Control_c, 0, 64, 75
1, 42495, Control_c, 0, 64, 74
1, 42511, Control_c, 0, 64, 72
1, 42526, Control_c, 0, 64, 70
1, 42541, Control_c, 0, 64, 67
1, 42555, Control_c, 0, 64, 64
1, 42570, Control_c, 0, 64, 62
1, 42585, Control_c, 0, 64, 61
1, 42600, Control_c, 0, 64, 62
1, 42615, Control_c, 0, 64, 62
1, 42644, Control_c, 0, 64, 62
1, 42653, Note_on_c, 0, 79, 61
1, 42689, Control_c, 0, 64, 61
1, 42703, Note_off_c, 0, 80, 58
1, 42704, Control_c, 0, 64, 61
1, 42707, Note_off_c, 0, 82, 40
1, 42719, Control_c, 0, 64, 60
1, 42734, Control_c, 0, 64, 55
1, 42748, Control_c, 0, 64, 46
1, 42763, Control_c, 0, 64, 29
1, 42778, Control_c, 0, 64, 20
1, 42793, Control_c, 0, 64, 31
1, 42807, Control_c, 0, 64, 43
1, 42829, Control_c, 0, 64, 57
1, 42844, Control_c, 0, 64, 63
1, 42859, Control_c, 0, 64, 65
1, 42874, Control_c, 0, 64, 67
1, 42889, Control_c, 0, 64, 68
1, 42904, Control_c, 0, 64, 69
1, 42921, Note_on_c, 0, 77, 44
1, 42966, Note_off_c, 0, 79, 53
1, 42993, Control_c, 0, 64, 68
1, 43007, Control_c, 0, 64, 68
1, 43022, Control_c, 0, 64, 67
1, 43037, Control_c, 0, 64, 66
1, 43052, Control_c, 0, 64, 66
1, 43067, Control_c, 0, 64, 65
1, 43081, Control_c, 0, 64, 64
1, 43096, Control_c, 0, 64, 64
1, 43111, Control_c, 0, 64, 63
1, 43125, Control_c, 0, 64, 62
1, 43140, Control_c, 0, 64, 62
1, 43155, Control_c, 0, 64, 61
1, 43170, Control_c, 0, 64, 60
1, 43182, Note_on_c, 0, 82, 41
1, 43185, Control_c, 0, 64, 58
1, 43199, Control_c, 0, 64, 55
1, 43214, Control_c, 0, 64, 50
1, 43217, Note_off_c, 0, 77, 50
1, 43229, Control_c, 0, 64, 44
1, 43244, Control_c, 0, 64, 39
1, 43259, Control_c, 0, 64, 33
1, 43273, Control_c, 0, 64, 25
1, 43288, Control_c, 0, 64, 0
1, 43423, Control_c, 0, 64, 25
1, 43437, Control_c, 0, 64, 40
1, 43438, Note_on_c, 0, 80, 49
1, 43452, Control_c, 0, 64, 51
1, 43467, Control_c, 0, 64, 57
1, 43482, Control_c, 0, 64, 61
1, 43497, Control_c, 0, 64, 62
1, 43512, Control_c, 0, 64, 62
1, 43527, Control_c, 0, 64, 62
1, 43533, Note_off_c, 0, 82, 43
1, 43652, Control_c, 0, 64, 62
1, 43756, Control_c, 0, 64, 63
1, 43778, Note_on_c, 0, 79, 34
1, 43881, Note_off_c, 0, 80, 38
1, 44159, Note_on_c, 0, 77, 37
1, 44230, Control_c, 0, 64, 63
1, 44245, Control_c, 0, 64, 64
1, 44260, Control_c, 0, 64, 64
1, 44275, Control_c, 0, 64, 65
1, 44290, Control_c, 0, 64, 66
1, 44300, Note_off_c, 0, 79, 38
1, 44305, Control_c, 0, 64, 67
1, 44326, Control_c, 0, 64, 68
1, 44460, Control_c, 0, 64, 68
1, 44593, Control_c, 0, 64, 69
1, 44608, Control_c, 0, 64, 69
1, 44638, Control_c, 0, 64, 70
1, 44652, Control_c, 0, 64, 71
1, 44667, Control_c, 0, 64, 72
1, 44682, Control_c, 0, 64, 74
1, 44696, Control_c, 0, 64, 75
1, 44711, Control_c, 0, 64, 76
1, 44726, Control_c, 0, 64, 77
1, 44742, Control_c, 0, 64, 77
1, 44757, Control_c, 0, 64, 78
1, 44771, Control_c, 0, 64, 78
1, 44786, Control_c, 0, 64, 79
1, 44816, Control_c, 0, 64, 79
1, 44831, Control_c, 0, 64, 80
1, 44875, Control_c, 0, 64, 80
1, 44906, Control_c, 0, 64, 81
1, 45157, Note_on_c, 0, 84, 36
1, 45396, Note_on_c, 0, 83, 54
1, 45466, Note_off_c, 0, 84, 42
1, 45497, Note_off_c, 0, 77, 21
1, 45607, Note_on_c, 0, 84, 54
1, 45630, Note_off_c, 0, 83, 55
1, 45654, Control_c, 0, 64, 80
1, 45729, Control_c, 0, 64, 80
1, 45773, Control_c, 0, 64, 79
1, 45803, Control_c, 0, 64, 79
1, 45825, Control_c, 0, 64, 78
1, 45840, Control_c, 0, 64, 78
1, 45855, Note_on_c, 0, 82, 54
1, 45855, Control_c, 0, 64, 77
1, 45870, Control_c, 0, 64, 76
1, 45885, Control_c, 0, 64, 75
1, 45899, Control_c, 0, 64, 74
1, 45914, Note_off_c, 0, 84, 36
1, 45914, Control_c, 0, 64, 72
1, 45929, Control_c, 0, 64, 70
1, 45944, Control_c, 0, 64, 68
1, 45958, Control_c, 0, 64, 65
1, 45973, Control_c, 0, 64, 61
1, 45988, Control_c, 0, 64, 57
1, 46003, Control_c, 0, 64, 56
1, 46018, Control_c, 0, 64, 56
1, 46047, Control_c, 0, 64, 56
1, 46062, Control_c, 0, 64, 54
1, 46077, Control_c, 0, 64, 51
1, 46092, Control_c, 0, 64, 46
1, 46103, Note_on_c, 0, 80, 42
1, 46106, Control_c, 0, 64, 42
1, 46121, Control_c, 0, 64, 41
1, 46150, Note_off_c, 0, 82, 35
1, 46299, Control_c, 0, 64, 42
1, 46314, Control_c, 0, 64, 42
1, 46329, Control_c, 0, 64, 43
1, 46343, Control_c, 0, 64, 43
1, 46356, Note_on_c, 0, 79, 37
1, 46358, Control_c, 0, 64, 44
1, 46373, Control_c, 0, 64, 45
1, 46385, Note_off_c, 0, 80, 37
1, 46388, Control_c, 0, 64, 45
1, 46403, Control_c, 0, 64, 46
1, 46447, Control_c, 0, 64, 47
1, 46462, Control_c, 0, 64, 48
1, 46476, Control_c, 0, 64, 49
1, 46493, Control_c, 0, 64, 50
1, 46508, Control_c, 0, 64, 50
1, 46522, Control_c, 0, 64, 51
1, 46537, Control_c, 0, 64, 52
1, 46552, Control_c, 0, 64, 52
1, 46573, Control_c, 0, 64, 54
1, 46588, Control_c, 0, 64, 56
1, 46603, Control_c, 0, 64, 57
1, 46618, Control_c, 0, 64, 58
1, 46648, Control_c, 0, 64, 59
1, 46651, Note_on_c, 0, 77, 25
1, 46663, Control_c, 0, 64, 59
1, 46678, Control_c, 0, 64, 60
1, 46692, Control_c, 0, 64, 60
1, 46698, Note_off_c, 0, 79, 27
1, 46707, Control_c, 0, 64, 61
1, 46722, Control_c, 0, 64, 62
1, 46737, Control_c, 0, 64, 62
1, 46767, Control_c, 0, 64, 63
1, 46796, Control_c, 0, 64, 63
1, 46973, Control_c, 0, 64, 64
1, 47077, Control_c, 0, 64, 64
1, 47107, Control_c, 0, 64, 65
1, 47122, Control_c, 0, 64, 65
1, 47151, Control_c, 0, 64, 66
1, 47211, Control_c, 0, 64, 66
1, 47255, Control_c, 0, 64, 67
1, 47270, Control_c, 0, 64, 67
1, 47338, Control_c, 0, 64, 68
1, 47396, Control_c, 0, 64, 68
1, 47398, Note_on_c, 0, 84, 29
1, 47441, Control_c, 0, 64, 69
1, 47618, Note_on_c, 0, 83, 52
1, 47688, Note_off_c, 0, 84, 43
1, 47821, Note_off_c, 0, 77, 38
1, 47835, Note_on_c, 0, 84, 51
1, 47873, Note_off_c, 0, 83, 60
1, 47900, Control_c, 0, 64, 68
1, 47944, Control_c, 0, 64, 68
1, 47974, Control_c, 0, 64, 67
1, 47989, Control_c, 0, 64, 67
1, 48019, Control_c, 0, 64, 66
1, 48034, Control_c, 0, 64, 65
1, 48049, Control_c, 0, 64, 64
1, 48064, Control_c, 0, 64, 63
1, 48085, Control_c, 0, 64, 62
1, 48090, Note_on_c, 0, 82, 44
1, 48101, Control_c, 0, 64, 61
1, 48116, Control_c, 0, 64, 60
1, 48120, Note_off_c, 0, 84, 51
1, 48131, Control_c, 0, 64, 60
1, 48145, Control_c, 0, 64, 58
1, 48160, Control_c, 0, 64, 56
1, 48175, Control_c, 0, 64, 52
1, 48190, Control_c, 0, 64, 46
1, 48205, Control_c, 0, 64, 43
1, 48219, Control_c, 0, 64, 41
1, 48234, Control_c, 0, 64, 41
1, 48293, Control_c, 0, 64, 42
1, 48308, Control_c, 0, 64, 43
1, 48323, Control_c, 0, 64, 44
1, 48338, Control_c, 0, 64, 45
1, 48345, Note_on_c, 0, 80, 46
1, 48353, Control_c, 0, 64, 45
1, 48353, Note_off_c, 0, 82, 50
1, 48368, Control_c, 0, 64, 46
1, 48383, Control_c, 0, 64, 47
1, 48397, Control_c, 0, 64, 48
1, 48412, Control_c, 0, 64, 49
1, 48427, Control_c, 0, 64, 50
1, 48442, Control_c, 0, 64, 50
1, 48457, Control_c, 0, 64, 51
1, 48472, Control_c, 0, 64, 51
1, 48487, Control_c, 0, 64, 52
1, 48501, Control_c, 0, 64, 52
1, 48516, Control_c, 0, 64, 53
1, 48575, Control_c, 0, 64, 53
1, 48579, Note_off_c, 0, 74, 31
1, 48605, Control_c, 0, 64, 54
1, 48619, Control_c, 0, 64, 55
1, 48633, Note_off_c, 0, 65, 42
1, 48634, Control_c, 0, 64, 56
1, 48636, Note_on_c, 0, 79, 37
1, 48657, Note_off_c, 0, 68, 40
1, 48679, Control_c, 0, 64, 56
1, 48693, Control_c, 0, 64, 57
1, 48718, Note_off_c, 0, 80, 34
1, 48849, Control_c, 0, 64, 56
1, 48878, Control_c, 0, 64, 56
1, 48939, Control_c, 0, 64, 55
1, 48969, Control_c, 0, 64, 55
1, 49033, Note_on_c, 0, 77, 32
1, 49182, Note_off_c, 0, 79, 41
1, 49324, Control_c, 0, 64, 55
1, 49368, Control_c, 0, 64, 56
1, 49413, Control_c, 0, 64, 56
1, 49428, Control_c, 0, 64, 57
1, 49442, Control_c, 0, 64, 57
1, 49457, Control_c, 0, 64, 58
1, 49472, Control_c, 0, 64, 59
1, 49486, Control_c, 0, 64, 59
1, 49501, Control_c, 0, 64, 60
1, 49516, Control_c, 0, 64, 60
1, 49531, Control_c, 0, 64, 61
1, 49546, Control_c, 0, 64, 62
1, 49568, Control_c, 0, 64, 63
1, 49583, Control_c, 0, 64, 64
1, 49598, Control_c, 0, 64, 64
1, 49613, Control_c, 0, 64, 65
1, 49628, Control_c, 0, 64, 65
1, 49657, Control_c, 0, 64, 66
1, 49672, Control_c, 0, 64, 66
1, 49687, Control_c, 0, 64, 67
1, 49703, Control_c, 0, 64, 68
1, 49718, Control_c, 0, 64, 69
1, 49733, Control_c, 0, 64, 69
1, 49747, Control_c, 0, 64, 70
1, 49762, Control_c, 0, 64, 71
1, 49777, Control_c, 0, 64, 72
1, 49791, Control_c, 0, 64, 73
1, 49806, Control_c, 0, 64, 73
1, 49821, Control_c, 0, 64, 74
1, 49836, Control_c, 0, 64, 75
1, 49851, Control_c, 0, 64, 76
1, 49866, Control_c, 0, 64, 76
1, 49880, Control_c, 0, 64, 77
1, 49895, Control_c, 0, 64, 77
1, 49910, Control_c, 0, 64, 78
1, 49924, Control_c, 0, 64, 78
1, 49984, Control_c, 0, 64, 79
1, 50032, Note_on_c, 0, 84, 35
1, 50178, Note_off_c, 0, 84, 43
1, 50180, Note_on_c, 0, 83, 39
1, 50240, Note_off_c, 0, 83, 47
1, 50281, Note_on_c, 0, 84, 48
1, 50338, Note_off_c, 0, 77, 16
1, 50402, Note_on_c, 0, 82, 46
1, 50414, Note_off_c, 0, 84, 52
1, 50487, Note_on_c, 0, 80, 43
1, 50496, Control_c, 0, 64, 78
1, 50502, Note_off_c, 0, 82, 37
1, 50511, Control_c, 0, 64, 78
1, 50526, Control_c, 0, 64, 77
1, 50540, Note_off_c, 0, 80, 44
1, 50540, Control_c, 0, 64, 77
1, 50555, Control_c, 0, 64, 76
1, 50570, Control_c, 0, 64, 75
1, 50571, Note_on_c, 0, 79, 51
1, 50585, Control_c, 0, 64, 73
1, 50600, Control_c, 0, 64, 71
1, 50614, Control_c, 0, 64, 69
1, 50629, Control_c, 0, 64, 66
1, 50632, Note_off_c, 0, 79, 47
1, 50644, Control_c, 0, 64, 62
1, 50659, Control_c, 0, 64, 53
1, 50674, Control_c, 0, 64, 44
1, 50682, Note_on_c, 0, 77, 37
1, 50688, Control_c, 0, 64, 44
1, 50734, Control_c, 0, 64, 43
1, 50748, Control_c, 0, 64, 42
1, 50763, Control_c, 0, 64, 41
1, 50778, Control_c, 0, 64, 39
1, 50793, Control_c, 0, 64, 39
1, 50808, Control_c, 0, 64, 38
1, 50837, Control_c, 0, 64, 39
1, 50852, Control_c, 0, 64, 40
1, 50867, Control_c, 0, 64, 44
1, 50882, Control_c, 0, 64, 49
1, 50896, Control_c, 0, 64, 54
1, 50911, Control_c, 0, 64, 56
1, 50926, Control_c, 0, 64, 56
1, 50940, Control_c, 0, 64, 57
1, 50955, Control_c, 0, 64, 59
1, 50970, Control_c, 0, 64, 62
1, 50985, Control_c, 0, 64, 63
1, 51000, Control_c, 0, 64, 64
1, 51067, Control_c, 0, 64, 64
1, 51082, Control_c, 0, 64, 65
1, 51096, Control_c, 0, 64, 66
1, 51111, Control_c, 0, 64, 66
1, 51126, Control_c, 0, 64, 67
1, 51140, Control_c, 0, 64, 67
1, 51155, Control_c, 0, 64, 68
1, 51170, Control_c, 0, 64, 69
1, 51184, Note_on_c, 0, 84, 36
1, 51185, Control_c, 0, 64, 69
1, 51200, Control_c, 0, 64, 70
1, 51256, Note_off_c, 0, 77, 40
1, 51257, Note_off_c, 0, 84, 45
1, 51259, Control_c, 0, 64, 70
1, 51271, Note_on_c, 0, 83, 44
1, 51317, Note_off_c, 0, 83, 61
1, 51366, Note_on_c, 0, 84, 49
1, 51454, Note_off_c, 0, 84, 57
1, 51463, Note_on_c, 0, 82, 49
1, 51512, Control_c, 0, 64, 70
1, 51529, Note_off_c, 0, 82, 53
1, 51545, Note_on_c, 0, 80, 48
1, 51571, Control_c, 0, 64, 69
1, 51601, Control_c, 0, 64, 69
1, 51608, Note_off_c, 0, 80, 59
1, 51631, Control_c, 0, 64, 68
1, 51645, Control_c, 0, 64, 68
1, 51650, Note_on_c, 0, 79, 35
1, 51675, Control_c, 0, 64, 67
1, 51685, Note_off_c, 0, 79, 53
1, 51689, Control_c, 0, 64, 66
1, 51704, Control_c, 0, 64, 65
1, 51719, Control_c, 0, 64, 63
1, 51734, Control_c, 0, 64, 61
1, 51749, Control_c, 0, 64, 60
1, 51751, Note_on_c, 0, 77, 29
1, 51763, Control_c, 0, 64, 58
1, 51778, Control_c, 0, 64, 57
1, 51793, Control_c, 0, 64, 56
1, 51808, Control_c, 0, 64, 55
1, 51831, Control_c, 0, 64, 54
1, 51845, Control_c, 0, 64, 53
1, 51875, Control_c, 0, 64, 54
1, 51889, Control_c, 0, 64, 54
1, 51904, Control_c, 0, 64, 55
1, 51919, Control_c, 0, 64, 57
1, 51934, Control_c, 0, 64, 58
1, 51949, Control_c, 0, 64, 59
1, 51963, Control_c, 0, 64, 61
1, 51978, Control_c, 0, 64, 63
1, 51993, Control_c, 0, 64, 64
1, 52008, Control_c, 0, 64, 66
1, 52023, Control_c, 0, 64, 66
1, 52037, Control_c, 0, 64, 67
1, 52052, Control_c, 0, 64, 67
1, 52067, Control_c, 0, 64, 68
1, 52082, Control_c, 0, 64, 68
1, 52098, Control_c, 0, 64, 69
1, 52112, Control_c, 0, 64, 70
1, 52127, Control_c, 0, 64, 71
1, 52142, Control_c, 0, 64, 71
1, 52145, Note_on_c, 0, 84, 30
1, 52201, Control_c, 0, 64, 72
1, 52228, Note_off_c, 0, 84, 46
1, 52241, Note_on_c, 0, 83, 41
1, 52259, Note_off_c, 0, 77, 34
1, 52285, Note_off_c, 0, 83, 56
1, 52329, Note_on_c, 0, 84, 56
1, 52425, Note_off_c, 0, 84, 59
1, 52438, Note_on_c, 0, 82, 49
1, 52498, Note_off_c, 0, 82, 52
1, 52506, Note_on_c, 0, 80, 46
1, 52570, Note_off_c, 0, 80, 62
1, 52602, Note_on_c, 0, 79, 47
1, 52626, Note_off_c, 0, 79, 59
1, 52678, Note_on_c, 0, 77, 51
1, 52696, Control_c, 0, 64, 71
1, 52726, Control_c, 0, 64, 70
1, 52741, Control_c, 0, 64, 69
1, 52756, Control_c, 0, 64, 67
1, 52770, Control_c, 0, 64, 63
1, 52785, Control_c, 0, 64, 50
1, 52800, Control_c, 0, 64, 29
1, 52830, Control_c, 0, 64, 42
1, 52831, Note_off_c, 0, 77, 35
1, 52845, Control_c, 0, 64, 54
1, 52859, Control_c, 0, 64, 62
1, 52874, Control_c, 0, 64, 65
1, 52890, Control_c, 0, 64, 67
1, 52905, Control_c, 0, 64, 69
1, 52920, Control_c, 0, 64, 69
1, 52934, Control_c, 0, 64, 70
1, 52949, Control_c, 0, 64, 71
1, 52964, Control_c, 0, 64, 72
1, 52979, Control_c, 0, 64, 72
1, 52994, Control_c, 0, 64, 73
1, 53001, Poly_aftertouch_c, 0, 84, 0
1, 53008, Control_c, 0, 64, 74
1, 53015, Note_on_c, 0, 83, 46
1, 53023, Control_c, 0, 64, 75
1, 53038, Control_c, 0, 64, 77
1, 53053, Control_c, 0, 64, 77
1, 53054, Note_off_c, 0, 83, 48
1, 53068, Control_c, 0, 64, 78
1, 53080, Note_on_c, 0, 84, 61
1, 53082, Control_c, 0, 64, 79
1, 53097, Control_c, 0, 64, 79
1, 53112, Control_c, 0, 64, 80
1, 53127, Control_c, 0, 64, 80
1, 53141, Control_c, 0, 64, 81
1, 53156, Control_c, 0, 64, 81
1, 53170, Note_off_c, 0, 84, 61
1, 53171, Control_c, 0, 64, 82
1, 53186, Note_on_c, 0, 80, 44
1, 53201, Control_c, 0, 64, 82
1, 53245, Control_c, 0, 64, 83
1, 53247, Note_off_c, 0, 80, 43
1, 53265, Note_on_c, 0, 79, 56
1, 53289, Note_off_c, 0, 79, 60
1, 53346, Note_on_c, 0, 77, 58
1, 53402, Note_off_c, 0, 77, 50
1, 53444, Note_on_c, 0, 75, 51
1, 53489, Control_c, 0, 64, 82
1, 53504, Control_c, 0, 64, 81
1, 53519, Control_c, 0, 64, 80
1, 53525, Note_off_c, 0, 75, 64
1, 53534, Control_c, 0, 64, 77
1, 53547, Note_on_c, 0, 74, 55
1, 53548, Control_c, 0, 64, 71
1, 53563, Control_c, 0, 64, 65
1, 53578, Control_c, 0, 64, 44
1, 53593, Control_c, 0, 64, 0
1, 53623, Control_c, 0, 64, 48
1, 53638, Control_c, 0, 64, 63
1, 53644, Note_on_c, 0, 84, 57
1, 53650, Note_off_c, 0, 74, 60
1, 53653, Control_c, 0, 64, 66
1, 53667, Control_c, 0, 64, 68
1, 53683, Control_c, 0, 64, 69
1, 53698, Control_c, 0, 64, 70
1, 53708, Note_off_c, 0, 84, 64
1, 53712, Control_c, 0, 64, 71
1, 53727, Control_c, 0, 64, 72
1, 53735, Note_on_c, 0, 83, 42
1, 53742, Control_c, 0, 64, 73
1, 53757, Control_c, 0, 64, 74
1, 53772, Control_c, 0, 64, 75
1, 53787, Control_c, 0, 64, 76
1, 53798, Note_off_c, 0, 83, 41
1, 53802, Control_c, 0, 64, 76
1, 53817, Control_c, 0, 64, 77
1, 53831, Control_c, 0, 64, 77
1, 53835, Note_on_c, 0, 84, 42
1, 53846, Control_c, 0, 64, 78
1, 53861, Control_c, 0, 64, 79
1, 53874, Note_off_c, 0, 84, 51
1, 53876, Control_c, 0, 64, 80
1, 53885, Note_on_c, 0, 79, 40
1, 53891, Control_c, 0, 64, 81
1, 53905, Control_c, 0, 64, 82
1, 53920, Control_c, 0, 64, 83
1, 53935, Control_c, 0, 64, 84
1, 53947, Note_off_c, 0, 79, 48
1, 53950, Control_c, 0, 64, 85
1, 53964, Control_c, 0, 64, 85
1, 53979, Note_on_c, 0, 77, 58
1, 53979, Control_c, 0, 64, 86
1, 53994, Control_c, 0, 64, 87
1, 54009, Control_c, 0, 64, 88
1, 54024, Control_c, 0, 64, 89
1, 54038, Control_c, 0, 64, 89
1, 54041, Note_off_c, 0, 77, 59
1, 54061, Control_c, 0, 64, 90
1, 54076, Control_c, 0, 64, 90
1, 54083, Note_on_c, 0, 75, 38
1, 54135, Control_c, 0, 64, 91
1, 54148, Note_off_c, 0, 75, 44
1, 54186, Note_on_c, 0, 48, 40
1, 54200, Note_on_c, 0, 74, 29
1, 54270, Note_on_c, 0, 51, 44
1, 54357, Note_on_c, 0, 55, 44
1, 54371, Control_c, 0, 64, 90
1, 54380, Note_off_c, 0, 74, 40
1, 54401, Control_c, 0, 64, 89
1, 54416, Control_c, 0, 64, 88
1, 54431, Control_c, 0, 64, 85
1, 54431, Note_on_c, 0, 72, 25
1, 54437, Note_on_c, 0, 60, 60
1, 54446, Control_c, 0, 64, 81
1, 54461, Control_c, 0, 64, 76
1, 54476, Control_c, 0, 64, 68
1, 54491, Control_c, 0, 64, 37
1, 54506, Control_c, 0, 64, 0
1, 54544, Note_on_c, 0, 84, 51
1, 54548, Note_off_c, 0, 72, 50
1, 54595, Control_c, 0, 64, 54
1, 54610, Note_off_c, 0, 84, 62
1, 54610, Control_c, 0, 64, 66
1, 54625, Control_c, 0, 64, 70
1, 54640, Control_c, 0, 64, 74
1, 54643, Note_on_c, 0, 83, 41
1, 54654, Control_c, 0, 64, 77
1, 54669, Control_c, 0, 64, 78
1, 54684, Control_c, 0, 64, 80
1, 54699, Control_c, 0, 64, 81
1, 54713, Control_c, 0, 64, 82
1, 54714, Note_on_c, 0, 84, 43
1, 54728, Control_c, 0, 64, 83
1, 54731, Note_off_c, 0, 55, 64
1, 54743, Control_c, 0, 64, 84
1, 54750, Note_off_c, 0, 48, 40
1, 54755, Note_off_c, 0, 51, 62
1, 54758, Control_c, 0, 64, 85
1, 54773, Control_c, 0, 64, 86
1, 54777, Note_off_c, 0, 83, 36
1, 54780, Note_off_c, 0, 84, 61
1, 54809, Control_c, 0, 64, 86
1, 54833, Note_on_c, 0, 79, 15
1, 54839, Control_c, 0, 64, 87
1, 54869, Control_c, 0, 64, 87
1, 54875, Note_off_c, 0, 79, 36
1, 54877, Note_on_c, 0, 77, 47
1, 54899, Control_c, 0, 64, 88
1, 54936, Note_off_c, 0, 77, 53
1, 54958, Control_c, 0, 64, 88
1, 54981, Note_on_c, 0, 75, 36
1, 55018, Note_off_c, 0, 75, 54
1, 55048, Note_on_c, 0, 74, 53
1, 55098, Note_off_c, 0, 74, 59
1, 55135, Control_c, 0, 64, 87
1, 55141, Note_on_c, 0, 63, 64
1, 55150, Control_c, 0, 64, 84
1, 55154, Note_on_c, 0, 72, 51
1, 55165, Control_c, 0, 64, 79
1, 55179, Control_c, 0, 64, 68
1, 55194, Control_c, 0, 64, 37
1, 55209, Control_c, 0, 64, 0
1, 55239, Note_on_c, 0, 84, 61
1, 55254, Control_c, 0, 64, 64
1, 55268, Note_off_c, 0, 60, 55
1, 55268, Control_c, 0, 64, 73
1, 55275, Note_off_c, 0, 72, 36
1, 55284, Control_c, 0, 64, 78
1, 55285, Note_off_c, 0, 63, 66
1, 55299, Control_c, 0, 64, 81
1, 55307, Note_off_c, 0, 84, 64
1, 55314, Control_c, 0, 64, 82
1, 55326, Note_on_c, 0, 83, 53
1, 55329, Control_c, 0, 64, 83
1, 55343, Control_c, 0, 64, 83
1, 55358, Control_c, 0, 64, 84
1, 55373, Control_c, 0, 64, 84
1, 55388, Control_c, 0, 64, 85
1, 55401, Note_off_c, 0, 83, 53
1, 55403, Control_c, 0, 64, 86
1, 55409, Note_on_c, 0, 84, 64
1, 55418, Control_c, 0, 64, 86
1, 55447, Control_c, 0, 64, 87
1, 55493, Note_off_c, 0, 84, 62
1, 55507, Note_on_c, 0, 79, 53
1, 55510, Note_on_c, 0, 60, 69
1, 55516, Note_on_c, 0, 55, 50
1, 55522, Control_c, 0, 64, 85
1, 55524, Note_on_c, 0, 51, 47
1, 55536, Control_c, 0, 64, 82
1, 55558, Control_c, 0, 64, 76
1, 55561, Note_off_c, 0, 79, 55
1, 55573, Control_c, 0, 64, 68
1, 55588, Control_c, 0, 64, 49
1, 55603, Control_c, 0, 64, 0
1, 55609, Note_on_c, 0, 77, 48
1, 55622, Note_off_c, 0, 55, 63
1, 55632, Control_c, 0, 64, 61
1, 55647, Control_c, 0, 64, 70
1, 55662, Note_off_c, 0, 51, 63
1, 55662, Control_c, 0, 64, 79
1, 55677, Control_c, 0, 64, 85
1, 55680, Note_off_c, 0, 77, 56
1, 55686, Note_off_c, 0, 60, 63
1, 55692, Control_c, 0, 64, 88
1, 55707, Control_c, 0, 64, 89
1, 55718, Note_on_c, 0, 75, 43
1, 55722, Control_c, 0, 64, 90
1, 55751, Control_c, 0, 64, 91
1, 55762, Note_off_c, 0, 75, 51
1, 55766, Control_c, 0, 64, 91
1, 55781, Control_c, 0, 64, 92
1, 55796, Control_c, 0, 64, 92
1, 55797, Note_on_c, 0, 74, 40
1, 55810, Control_c, 0, 64, 93
1, 55896, Note_off_c, 0, 74, 36
1, 55897, Note_on_c, 0, 56, 50
1, 55906, Note_on_c, 0, 60, 46
1, 55906, Note_on_c, 0, 65, 72
1, 55912, Note_on_c, 0, 72, 47
1, 55914, Control_c, 0, 64, 92
1, 55928, Control_c, 0, 64, 91
1, 55943, Control_c, 0, 64, 87
1, 55958, Control_c, 0, 64, 81
1, 55973, Control_c, 0, 64, 71
1, 55988, Control_c, 0, 64, 53
1, 56002, Control_c, 0, 64, 0
1, 56010, Note_off_c, 0, 72, 64
1, 56011, Note_on_c, 0, 84, 54
1, 56070, Note_off_c, 0, 84, 61
1, 56078, Control_c, 0, 64, 42
1, 56093, Control_c, 0, 64, 64
1, 56107, Control_c, 0, 64, 69
1, 56122, Control_c, 0, 64, 72
1, 56137, Control_c, 0, 64, 73
1, 56149, Note_on_c, 0, 84, 53
1, 56152, Control_c, 0, 64, 74
1, 56167, Control_c, 0, 64, 74
1, 56182, Control_c, 0, 64, 75
1, 56197, Control_c, 0, 64, 76
1, 56212, Control_c, 0, 64, 77
1, 56223, Note_off_c, 0, 84, 61
1, 56227, Control_c, 0, 64, 78
1, 56241, Control_c, 0, 64, 79
1, 56256, Control_c, 0, 64, 80
1, 56266, Note_on_c, 0, 77, 49
1, 56285, Control_c, 0, 64, 80
1, 56300, Control_c, 0, 64, 81
1, 56323, Control_c, 0, 64, 82
1, 56334, Note_off_c, 0, 77, 38
1, 56338, Control_c, 0, 64, 83
1, 56353, Control_c, 0, 64, 83
1, 56377, Note_on_c, 0, 75, 41
1, 56397, Control_c, 0, 64, 84
1, 56405, Note_off_c, 0, 75, 54
1, 56448, Note_on_c, 0, 74, 52
1, 56485, Control_c, 0, 64, 83
1, 56496, Note_off_c, 0, 74, 58
1, 56500, Control_c, 0, 64, 82
1, 56515, Control_c, 0, 64, 79
1, 56522, Note_on_c, 0, 75, 47
1, 56530, Control_c, 0, 64, 74
1, 56545, Control_c, 0, 64, 68
1, 56559, Control_c, 0, 64, 59
1, 56574, Control_c, 0, 64, 46
1, 56589, Note_off_c, 0, 75, 62
1, 56589, Control_c, 0, 64, 55
1, 56604, Control_c, 0, 64, 64
1, 56607, Note_on_c, 0, 72, 63
1, 56619, Control_c, 0, 64, 67
1, 56634, Control_c, 0, 64, 71
1, 56649, Control_c, 0, 64, 74
1, 56664, Control_c, 0, 64, 76
1, 56669, Note_off_c, 0, 72, 62
1, 56678, Control_c, 0, 64, 77
1, 56693, Control_c, 0, 64, 77
1, 56703, Note_on_c, 0, 84, 60
1, 56723, Control_c, 0, 64, 78
1, 56735, Note_off_c, 0, 65, 65
1, 56738, Control_c, 0, 64, 79
1, 56744, Note_off_c, 0, 56, 64
1, 56744, Note_off_c, 0, 60, 62
1, 56752, Control_c, 0, 64, 79
1, 56756, Note_off_c, 0, 84, 64
1, 56767, Control_c, 0, 64, 80
1, 56782, Note_on_c, 0, 83, 49
1, 56782, Control_c, 0, 64, 80
1, 56797, Control_c, 0, 64, 81
1, 56806, Note_off_c, 0, 83, 59
1, 56812, Control_c, 0, 64, 81
1, 56829, Note_on_c, 0, 84, 57
1, 56841, Control_c, 0, 64, 82
1, 56871, Control_c, 0, 64, 82
1, 56880, Note_off_c, 0, 84, 52
1, 56901, Control_c, 0, 64, 83
1, 56923, Note_on_c, 0, 77, 67
1, 56990, Control_c, 0, 64, 83
1, 57000, Note_on_c, 0, 51, 44
1, 57009, Note_off_c, 0, 77, 45
1, 57056, Note_on_c, 0, 75, 20
1, 57078, Note_off_c, 0, 51, 61
1, 57100, Note_off_c, 0, 75, 37
1, 57105, Note_on_c, 0, 60, 51
1, 57110, Note_on_c, 0, 74, 41
1, 57141, Note_off_c, 0, 74, 55
1, 57183, Note_on_c, 0, 75, 48
1, 57235, Control_c, 0, 64, 82
1, 57247, Note_on_c, 0, 67, 65
1, 57250, Control_c, 0, 64, 80
1, 57255, Note_off_c, 0, 75, 64
1, 57264, Control_c, 0, 64, 75
1, 57279, Control_c, 0, 64, 65
1, 57286, Note_on_c, 0, 72, 44
1, 57294, Control_c, 0, 64, 0
1, 57336, Note_off_c, 0, 60, 62
1, 57368, Control_c, 0, 64, 60
1, 57376, Note_on_c, 0, 84, 62
1, 57381, Note_off_c, 0, 72, 43
1, 57382, Control_c, 0, 64, 66
1, 57397, Control_c, 0, 64, 69
1, 57412, Control_c, 0, 64, 71
1, 57427, Control_c, 0, 64, 73
1, 57442, Control_c, 0, 64, 75
1, 57445, Note_off_c, 0, 84, 64
1, 57456, Control_c, 0, 64, 77
1, 57462, Note_on_c, 0, 83, 56
1, 57472, Control_c, 0, 64, 79
1, 57487, Control_c, 0, 64, 81
1, 57501, Control_c, 0, 64, 82
1, 57509, Note_off_c, 0, 83, 60
1, 57516, Control_c, 0, 64, 83
1, 57518, Note_on_c, 0, 84, 55
1, 57531, Control_c, 0, 64, 84
1, 57546, Control_c, 0, 64, 85
1, 57561, Control_c, 0, 64, 87
1, 57576, Control_c, 0, 64, 88
1, 57584, Note_off_c, 0, 84, 64
1, 57588, Note_on_c, 0, 79, 51
1, 57591, Control_c, 0, 64, 89
1, 57606, Control_c, 0, 64, 90
1, 57620, Control_c, 0, 64, 90
1, 57632, Note_off_c, 0, 79, 62
1, 57635, Control_c, 0, 64, 91
1, 57650, Control_c, 0, 64, 91
1, 57662, Note_on_c, 0, 77, 62
1, 57672, Note_off_c, 0, 67, 57
1, 57676, Note_on_c, 0, 65, 54
1, 57710, Control_c, 0, 64, 92
1, 57722, Note_off_c, 0, 77, 59
1, 57724, Note_off_c, 0, 65, 64
1, 57737, Note_on_c, 0, 63, 61
1, 57750, Note_on_c, 0, 75, 57
1, 57792, Note_off_c, 0, 75, 60
1, 57820, Note_on_c, 0, 62, 66
1, 57827, Note_on_c, 0, 74, 59
1, 57831, Note_off_c, 0, 63, 59
1, 57868, Note_off_c, 0, 74, 60
1, 57880, Control_c, 0, 64, 91
1, 57895, Control_c, 0, 64, 90
1, 57910, Control_c, 0, 64, 86
1, 57925, Control_c, 0, 64, 79
1, 57933, Note_on_c, 0, 60, 75
1, 57939, Control_c, 0, 64, 71
1, 57941, Note_on_c, 0, 75, 62
1, 57954, Control_c, 0, 64, 60
1, 57969, Control_c, 0, 64, 0
1, 57972, Note_off_c, 0, 62, 62
1, 57984, Control_c, 0, 64, 11
1, 57999, Control_c, 0, 64, 56
1, 58014, Control_c, 0, 64, 66
1, 58017, Note_off_c, 0, 60, 64
1, 58029, Control_c, 0, 64, 72
1, 58044, Control_c, 0, 64, 78
1, 58050, Note_on_c, 0, 87, 60
1, 58051, Note_off_c, 0, 75, 63
1, 58059, Control_c, 0, 64, 81
1, 58074, Control_c, 0, 64, 82
1, 58088, Control_c, 0, 64, 83
1, 58103, Control_c, 0, 64, 84
1, 58118, Control_c, 0, 64, 85
1, 58121, Note_off_c, 0, 87, 57
1, 58125, Note_on_c, 0, 86, 56
1, 58132, Control_c, 0, 64, 86
1, 58147, Control_c, 0, 64, 86
1, 58162, Control_c, 0, 64, 87
1, 58219, Note_off_c, 0, 86, 62
1, 58233, Note_on_c, 0, 87, 68
1, 58294, Control_c, 0, 64, 86
1, 58303, Note_on_c, 0, 60, 67
1, 58306, Note_on_c, 0, 48, 59
1, 58306, Note_on_c, 0, 51, 53
1, 58309, Control_c, 0, 64, 82
1, 58310, Note_on_c, 0, 55, 62
1, 58324, Control_c, 0, 64, 73
1, 58339, Control_c, 0, 64, 63
1, 58349, Note_on_c, 0, 86, 41
1, 58354, Control_c, 0, 64, 0
1, 58413, Control_c, 0, 64, 62
1, 58423, Note_on_c, 0, 84, 54
1, 58427, Note_off_c, 0, 87, 22
1, 58428, Control_c, 0, 64, 72
1, 58429, Note_off_c, 0, 55, 65
1, 58443, Control_c, 0, 64, 80
1, 58446, Note_off_c, 0, 51, 62
1, 58448, Note_off_c, 0, 48, 66
1, 58450, Note_off_c, 0, 60, 63
1, 58457, Control_c, 0, 64, 85
1, 58473, Control_c, 0, 64, 87
1, 58488, Control_c, 0, 64, 88
1, 58503, Control_c, 0, 64, 90
1, 58504, Note_off_c, 0, 84, 57
1, 58505, Note_off_c, 0, 86, 39
1, 58512, Note_on_c, 0, 82, 51
1, 58518, Control_c, 0, 64, 93
1, 58533, Control_c, 0, 64, 97
1, 58554, Control_c, 0, 64, 100
1, 58564, Note_off_c, 0, 82, 63
1, 58569, Control_c, 0, 64, 101
1, 58584, Control_c, 0, 64, 102
1, 58591, Note_on_c, 0, 81, 46
1, 58615, Note_off_c, 0, 81, 53
1, 58628, Control_c, 0, 64, 103
1, 58686, Note_on_c, 0, 50, 46
1, 58688, Control_c, 0, 64, 102
1, 58692, Note_on_c, 0, 58, 70
1, 58699, Note_on_c, 0, 43, 53
1, 58702, Control_c, 0, 64, 100
1, 58705, Note_on_c, 0, 79, 45
1, 58717, Control_c, 0, 64, 94
1, 58732, Control_c, 0, 64, 86
1, 58739, Note_on_c, 0, 56, 18
1, 58747, Control_c, 0, 64, 75
1, 58760, Note_off_c, 0, 79, 0
1, 58762, Control_c, 0, 64, 63
1, 58774, Note_off_c, 0, 56, 47
1, 58777, Control_c, 0, 64, 0
1, 58798, Poly_aftertouch_c, 0, 79, 127
1, 58825, Poly_aftertouch_c, 0, 79, 0
1, 58836, Control_c, 0, 64, 59
1, 58851, Control_c, 0, 64, 68
1, 58866, Control_c, 0, 64, 74
1, 58880, Control_c, 0, 64, 80
1, 58889, Note_on_c, 0, 90, 65
1, 58895, Control_c, 0, 64, 82
1, 58902, Note_off_c, 0, 58, 64
1, 58910, Control_c, 0, 64, 84
1, 58925, Control_c, 0, 64, 85
1, 58940, Control_c, 0, 64, 85
1, 58954, Control_c, 0, 64, 86
1, 58969, Control_c, 0, 64, 86
1, 58975, Note_off_c, 0, 90, 55
1, 58995, Note_on_c, 0, 91, 52
1, 59014, Control_c, 0, 64, 87
1, 59065, Note_on_c, 0, 86, 52
1, 59080, Note_on_c, 0, 46, 46
1, 59083, Note_on_c, 0, 55, 60
1, 59087, Note_off_c, 0, 91, 55
1, 59087, Control_c, 0, 64, 86
1, 59102, Control_c, 0, 64, 86
1, 59117, Control_c, 0, 64, 84
1, 59132, Control_c, 0, 64, 79
1, 59138, Note_off_c, 0, 86, 61
1, 59147, Control_c, 0, 64, 70
1, 59158, Note_off_c, 0, 50, 15
1, 59162, Control_c, 0, 64, 39
1, 59176, Control_c, 0, 64, 0
1, 59178, Note_on_c, 0, 84, 53
1, 59251, Note_off_c, 0, 84, 64
1, 59266, Control_c, 0, 64, 56
1, 59272, Note_on_c, 0, 82, 49
1, 59281, Control_c, 0, 64, 68
1, 59303, Control_c, 0, 64, 72
1, 59318, Control_c, 0, 64, 76
1, 59333, Control_c, 0, 64, 78
1, 59337, Note_off_c, 0, 82, 55
1, 59348, Control_c, 0, 64, 79
1, 59356, Note_on_c, 0, 81, 57
1, 59363, Control_c, 0, 64, 80
1, 59377, Control_c, 0, 64, 81
1, 59392, Control_c, 0, 64, 83
1, 59397, Note_off_c, 0, 81, 61
1, 59407, Control_c, 0, 64, 83
1, 59422, Control_c, 0, 64, 84
1, 59437, Control_c, 0, 64, 85
1, 59450, Note_on_c, 0, 79, 58
1, 59451, Control_c, 0, 64, 86
1, 59466, Control_c, 0, 64, 86
1, 59481, Control_c, 0, 64, 87
1, 59510, Control_c, 0, 64, 87
1, 59540, Control_c, 0, 64, 88
1, 59548, Note_off_c, 0, 79, 34
1, 59555, Control_c, 0, 64, 88
1, 59562, Note_on_c, 0, 91, 36
1, 59570, Control_c, 0, 64, 89
1, 59585, Control_c, 0, 64, 89
1, 59594, Note_off_c, 0, 91, 54
1, 59600, Control_c, 0, 64, 90
1, 59600, Note_off_c, 0, 43, 61
1, 59615, Control_c, 0, 64, 90
1, 59619, Note_on_c, 0, 90, 57
1, 59629, Note_off_c, 0, 46, 52
1, 59630, Control_c, 0, 64, 91
1, 59644, Control_c, 0, 64, 92
1, 59659, Control_c, 0, 64, 93
1, 59674, Control_c, 0, 64, 93
1, 59683, Note_off_c, 0, 55, 62
1, 59689, Control_c, 0, 64, 94
1, 59694, Note_on_c, 0, 91, 55
1, 59703, Control_c, 0, 64, 94
1, 59718, Control_c, 0, 64, 95
1, 59733, Control_c, 0, 64, 95
1, 59761, Note_off_c, 0, 90, 27
1, 59763, Control_c, 0, 64, 96
1, 59769, Note_off_c, 0, 91, 59
1, 59788, Note_on_c, 0, 86, 54
1, 59822, Control_c, 0, 64, 96
1, 59823, Note_off_c, 0, 86, 63
1, 59864, Note_on_c, 0, 84, 60
1, 59909, Note_off_c, 0, 84, 59
1, 59973, Note_on_c, 0, 82, 38
1, 60004, Note_off_c, 0, 82, 55
1, 60026, Note_on_c, 0, 81, 56
1, 60072, Note_off_c, 0, 81, 62
1, 60112, Control_c, 0, 64, 96
1, 60124, Note_on_c, 0, 51, 32
1, 60127, Note_on_c, 0, 60, 56
1, 60127, Control_c, 0, 64, 95
1, 60133, Note_on_c, 0, 55, 44
1, 60136, Note_on_c, 0, 79, 58
1, 60141, Control_c, 0, 64, 92
1, 60156, Control_c, 0, 64, 86
1, 60171, Control_c, 0, 64, 78
1, 60186, Control_c, 0, 64, 67
1, 60200, Control_c, 0, 64, 0
1, 60210, Note_off_c, 0, 79, 54
1, 60289, Control_c, 0, 64, 58
1, 60301, Note_on_c, 0, 90, 58
1, 60304, Control_c, 0, 64, 66
1, 60319, Control_c, 0, 64, 69
1, 60333, Control_c, 0, 64, 72
1, 60348, Control_c, 0, 64, 75
1, 60363, Note_off_c, 0, 60, 62
1, 60363, Control_c, 0, 64, 77
1, 60372, Note_off_c, 0, 90, 62
1, 60378, Control_c, 0, 64, 79
1, 60391, Note_on_c, 0, 91, 62
1, 60393, Control_c, 0, 64, 81
1, 60408, Control_c, 0, 64, 83
1, 60422, Control_c, 0, 64, 84
1, 60437, Control_c, 0, 64, 86
1, 60452, Control_c, 0, 64, 88
1, 60457, Note_on_c, 0, 87, 57
1, 60467, Control_c, 0, 64, 90
1, 60482, Control_c, 0, 64, 91
1, 60487, Note_off_c, 0, 91, 43
1, 60493, Note_on_c, 0, 60, 65
1, 60497, Control_c, 0, 64, 93
1, 60512, Control_c, 0, 64, 95
1, 60519, Note_off_c, 0, 55, 40
1, 60527, Control_c, 0, 64, 97
1, 60535, Note_off_c, 0, 87, 60
1, 60536, Note_off_c, 0, 51, 39
1, 60542, Control_c, 0, 64, 99
1, 60548, Note_on_c, 0, 86, 51
1, 60557, Control_c, 0, 64, 100
1, 60571, Note_off_c, 0, 86, 57
1, 60572, Control_c, 0, 64, 101
1, 60583, Note_off_c, 0, 60, 56
1, 60586, Control_c, 0, 64, 103
1, 60601, Control_c, 0, 64, 103
1, 60604, Note_on_c, 0, 84, 64
1, 60616, Control_c, 0, 64, 104
1, 60631, Control_c, 0, 64, 104
1, 60643, Note_on_c, 0, 48, 63
1, 60644, Note_off_c, 0, 84, 61
1, 60645, Control_c, 0, 64, 105
1, 60706, Note_on_c, 0, 82, 59
1, 60714, Note_on_c, 0, 55, 67
1, 60764, Control_c, 0, 64, 104
1, 60801, Control_c, 0, 64, 103
1, 60801, Note_off_c, 0, 82, 62
1, 60816, Control_c, 0, 64, 101
1, 60831, Control_c, 0, 64, 97
1, 60843, Note_on_c, 0, 81, 55
1, 60846, Control_c, 0, 64, 92
1, 60849, Note_on_c, 0, 63, 71
1, 60860, Control_c, 0, 64, 84
1, 60876, Control_c, 0, 64, 75
1, 60891, Control_c, 0, 64, 63
1, 60905, Control_c, 0, 64, 0
1, 60946, Note_on_c, 0, 91, 53
1, 60947, Note_off_c, 0, 81, 56
1, 60998, Note_off_c, 0, 91, 60
1, 61010, Control_c, 0, 64, 29
1, 61011, Note_on_c, 0, 90, 64
1, 61025, Control_c, 0, 64, 65
1, 61039, Control_c, 0, 64, 71
1, 61054, Control_c, 0, 64, 77
1, 61054, Note_off_c, 0, 48, 59
1, 61069, Control_c, 0, 64, 80
1, 61082, Note_off_c, 0, 55, 63
1, 61083, Control_c, 0, 64, 81
1, 61095, Note_off_c, 0, 90, 55
1, 61098, Control_c, 0, 64, 83
1, 61113, Control_c, 0, 64, 84
1, 61118, Note_on_c, 0, 91, 58
1, 61128, Control_c, 0, 64, 86
1, 61143, Control_c, 0, 64, 88
1, 61157, Control_c, 0, 64, 91
1, 61167, Note_off_c, 0, 91, 54
1, 61172, Control_c, 0, 64, 93
1, 61183, Note_on_c, 0, 86, 57
1, 61187, Control_c, 0, 64, 95
1, 61202, Control_c, 0, 64, 97
1, 61208, Note_off_c, 0, 63, 62
1, 61217, Control_c, 0, 64, 99
1, 61231, Control_c, 0, 64, 101
1, 61234, Note_off_c, 0, 86, 60
1, 61246, Control_c, 0, 64, 104
1, 61261, Control_c, 0, 64, 107
1, 61275, Control_c, 0, 64, 110
1, 61276, Note_on_c, 0, 84, 64
1, 61290, Control_c, 0, 64, 113
1, 61305, Control_c, 0, 64, 115
1, 61320, Control_c, 0, 64, 116
1, 61328, Note_off_c, 0, 84, 46
1, 61335, Control_c, 0, 64, 117
1, 61350, Control_c, 0, 64, 118
1, 61364, Control_c, 0, 64, 119
1, 61382, Note_on_c, 0, 82, 38
1, 61388, Note_on_c, 0, 62, 60
1, 61433, Note_off_c, 0, 82, 45
1, 61452, Note_on_c, 0, 81, 62
1, 61482, Note_off_c, 0, 62, 60
1, 61488, Note_on_c, 0, 60, 60
1, 61513, Note_off_c, 0, 81, 47
1, 61569, Note_on_c, 0, 79, 53
1, 61594, Control_c, 0, 64, 118
1, 61609, Control_c, 0, 64, 115
1, 61610, Note_on_c, 0, 55, 46
1, 61611, Note_off_c, 0, 60, 55
1, 61616, Note_on_c, 0, 58, 56
1, 61624, Control_c, 0, 64, 109
1, 61639, Control_c, 0, 64, 103
1, 61654, Control_c, 0, 64, 96
1, 61668, Control_c, 0, 64, 86
1, 61678, Note_on_c, 0, 86, 59
1, 61684, Control_c, 0, 64, 73
1, 61698, Control_c, 0, 64, 53
1, 61700, Note_off_c, 0, 79, 49
1, 61713, Control_c, 0, 64, 0
1, 61744, Note_off_c, 0, 86, 61
1, 61767, Note_on_c, 0, 85, 53
1, 61803, Control_c, 0, 64, 58
1, 61812, Note_off_c, 0, 85, 59
1, 61818, Control_c, 0, 64, 67
1, 61832, Control_c, 0, 64, 72
1, 61836, Note_on_c, 0, 86, 55
1, 61847, Control_c, 0, 64, 76
1, 61862, Control_c, 0, 64, 78
1, 61877, Control_c, 0, 64, 79
1, 61892, Control_c, 0, 64, 79
1, 61906, Control_c, 0, 64, 80
1, 61921, Control_c, 0, 64, 80
1, 61934, Note_off_c, 0, 86, 62
1, 61936, Control_c, 0, 64, 81
1, 61938, Note_on_c, 0, 82, 50
1, 61951, Control_c, 0, 64, 82
1, 61966, Control_c, 0, 64, 83
1, 61969, Note_off_c, 0, 82, 53
1, 61980, Control_c, 0, 64, 83
1, 62008, Note_on_c, 0, 79, 63
1, 62010, Control_c, 0, 64, 84
1, 62065, Note_off_c, 0, 79, 41
1, 62104, Note_on_c, 0, 77, 49
1, 62168, Note_off_c, 0, 77, 41
1, 62193, Note_on_c, 0, 75, 53
1, 62223, Note_off_c, 0, 75, 55
1, 62299, Note_on_c, 0, 74, 49
1, 62313, Control_c, 0, 64, 84
1, 62362, Note_off_c, 0, 74, 57
1, 62371, Note_on_c, 0, 82, 50
1, 62372, Control_c, 0, 64, 85
1, 62417, Control_c, 0, 64, 85
1, 62446, Control_c, 0, 64, 86
1, 62462, Note_on_c, 0, 81, 49
1, 62466, Note_off_c, 0, 55, 62
1, 62477, Control_c, 0, 64, 86
1, 62492, Note_off_c, 0, 58, 64
1, 62507, Control_c, 0, 64, 87
1, 62519, Note_off_c, 0, 82, 0
1, 62524, Note_off_c, 0, 81, 59
1, 62533, Note_on_c, 0, 82, 43
1, 62536, Control_c, 0, 64, 87
1, 62551, Control_c, 0, 64, 88
1, 62596, Control_c, 0, 64, 88
1, 62625, Note_off_c, 0, 82, 61
1, 62629, Note_on_c, 0, 79, 51
1, 62681, Note_off_c, 0, 79, 61
1, 62685, Control_c, 0, 64, 89
1, 62720, Note_on_c, 0, 77, 59
1, 62792, Note_off_c, 0, 77, 33
1, 62833, Note_on_c, 0, 75, 43
1, 62892, Note_off_c, 0, 75, 42
1, 62918, Note_on_c, 0, 74, 48
1, 62950, Control_c, 0, 64, 88
1, 62965, Control_c, 0, 64, 85
1, 62971, Note_on_c, 0, 51, 43
1, 62974, Note_on_c, 0, 55, 48
1, 62980, Control_c, 0, 64, 79
1, 62992, Note_off_c, 0, 74, 53
1, 62995, Control_c, 0, 64, 71
1, 63010, Control_c, 0, 64, 48
1, 63025, Control_c, 0, 64, 0
1, 63033, Note_on_c, 0, 72, 45
1, 63091, Control_c, 0, 64, 63
1, 63106, Control_c, 0, 64, 68
1, 63120, Control_c, 0, 64, 72
1, 63135, Control_c, 0, 64, 74
1, 63144, Note_on_c, 0, 79, 56
1, 63150, Control_c, 0, 64, 75
1, 63180, Control_c, 0, 64, 75
1, 63192, Note_off_c, 0, 79, 61
1, 63192, Note_on_c, 0, 60, 65
1, 63194, Note_off_c, 0, 72, 32
1, 63210, Control_c, 0, 64, 76
1, 63220, Note_on_c, 0, 78, 56
1, 63249, Note_off_c, 0, 55, 65
1, 63254, Control_c, 0, 64, 76
1, 63275, Note_off_c, 0, 78, 54
1, 63295, Note_on_c, 0, 79, 46
1, 63382, Note_on_c, 0, 75, 45
1, 63382, Note_on_c, 0, 59, 70
1, 63391, Note_off_c, 0, 79, 47
1, 63403, Control_c, 0, 64, 77
1, 63422, Note_off_c, 0, 60, 60
1, 63437, Note_off_c, 0, 75, 61
1, 63461, Note_on_c, 0, 74, 56
1, 63463, Control_c, 0, 64, 77
1, 63492, Control_c, 0, 64, 78
1, 63499, Note_off_c, 0, 74, 63
1, 63537, Control_c, 0, 64, 78
1, 63540, Note_off_c, 0, 59, 63
1, 63547, Note_on_c, 0, 60, 75
1, 63549, Note_on_c, 0, 72, 57
1, 63549, Note_off_c, 0, 51, 62
1, 63594, Note_off_c, 0, 72, 60
1, 63651, Note_on_c, 0, 70, 50
1, 63729, Control_c, 0, 64, 78
1, 63743, Control_c, 0, 64, 77
1, 63746, Note_on_c, 0, 51, 56
1, 63746, Note_on_c, 0, 55, 64
1, 63748, Note_off_c, 0, 70, 58
1, 63754, Note_on_c, 0, 48, 63
1, 63758, Control_c, 0, 64, 73
1, 63773, Note_on_c, 0, 69, 57
1, 63773, Control_c, 0, 64, 65
1, 63788, Control_c, 0, 64, 0
1, 63822, Note_off_c, 0, 60, 58
1, 63884, Control_c, 0, 64, 64
1, 63892, Note_off_c, 0, 69, 39
1, 63894, Note_on_c, 0, 75, 50
1, 63899, Control_c, 0, 64, 68
1, 63914, Control_c, 0, 64, 72
1, 63929, Control_c, 0, 64, 74
1, 63944, Control_c, 0, 64, 75
1, 63949, Note_off_c, 0, 75, 62
1, 63973, Control_c, 0, 64, 76
1, 63982, Note_on_c, 0, 74, 45
1, 63988, Control_c, 0, 64, 77
1, 64003, Control_c, 0, 64, 78
1, 64017, Control_c, 0, 64, 78
1, 64046, Note_off_c, 0, 74, 65
1, 64047, Control_c, 0, 64, 79
1, 64074, Note_on_c, 0, 75, 62
1, 64144, Note_off_c, 0, 75, 55
1, 64158, Note_on_c, 0, 74, 45
1, 64169, Note_on_c, 0, 57, 68
1, 64181, Control_c, 0, 64, 78
1, 64196, Control_c, 0, 64, 75
1, 64211, Note_off_c, 0, 55, 64
1, 64211, Control_c, 0, 64, 70
1, 64226, Control_c, 0, 64, 61
1, 64241, Control_c, 0, 64, 0
1, 64275, Note_on_c, 0, 72, 51
1, 64286, Control_c, 0, 64, 62
1, 64300, Control_c, 0, 64, 69
1, 64315, Control_c, 0, 64, 74
1, 64330, Control_c, 0, 64, 77
1, 64342, Note_off_c, 0, 74, 48
1, 64345, Control_c, 0, 64, 78
1, 64363, Note_off_c, 0, 72, 61
1, 64366, Note_on_c, 0, 55, 67
1, 64366, Note_on_c, 0, 70, 62
1, 64366, Note_off_c, 0, 51, 54
1, 64374, Note_off_c, 0, 57, 61
1, 64374, Control_c, 0, 64, 79
1, 64408, Note_off_c, 0, 48, 32
1, 64433, Note_off_c, 0, 55, 65
1, 64434, Control_c, 0, 64, 79
1, 64441, Note_off_c, 0, 70, 63
1, 64468, Note_on_c, 0, 69, 57
1, 64477, Note_on_c, 0, 57, 56
1, 64478, Control_c, 0, 64, 80
1, 64504, Note_off_c, 0, 69, 63
1, 64548, Note_off_c, 0, 57, 49
1, 64557, Note_on_c, 0, 43, 63
1, 64600, Note_on_c, 0, 50, 52
1, 64663, Control_c, 0, 64, 79
1, 64678, Control_c, 0, 64, 77
1, 64693, Control_c, 0, 64, 73
1, 64704, Note_on_c, 0, 58, 70
1, 64707, Control_c, 0, 64, 65
1, 64722, Control_c, 0, 64, 0
1, 64726, Note_on_c, 0, 67, 47
1, 64823, Note_on_c, 0, 74, 50
1, 64840, Control_c, 0, 64, 52
1, 64855, Control_c, 0, 64, 65
1, 64871, Control_c, 0, 64, 69
1, 64876, Note_off_c, 0, 74, 64
1, 64886, Control_c, 0, 64, 71
1, 64893, Note_on_c, 0, 73, 61
1, 64901, Control_c, 0, 64, 73
1, 64908, Note_off_c, 0, 67, 28
1, 64915, Control_c, 0, 64, 74
1, 64930, Control_c, 0, 64, 76
1, 64945, Control_c, 0, 64, 78
1, 64947, Note_off_c, 0, 73, 59
1, 64959, Control_c, 0, 64, 80
1, 64974, Control_c, 0, 64, 81
1, 64981, Note_on_c, 0, 74, 54
1, 64989, Control_c, 0, 64, 82
1, 65004, Control_c, 0, 64, 82
1, 65019, Control_c, 0, 64, 83
1, 65034, Control_c, 0, 64, 83
1, 65048, Control_c, 0, 64, 84
1, 65060, Note_on_c, 0, 70, 58
1, 65060, Note_off_c, 0, 74, 63
1, 65063, Control_c, 0, 64, 84
1, 65104, Note_off_c, 0, 70, 59
1, 65122, Control_c, 0, 64, 85
1, 65145, Note_on_c, 0, 67, 63
1, 65208, Note_off_c, 0, 67, 55
1, 65240, Note_on_c, 0, 65, 49
1, 65304, Note_off_c, 0, 65, 58
1, 65309, Note_on_c, 0, 63, 58
1, 65352, Control_c, 0, 64, 84
1, 65367, Control_c, 0, 64, 81
1, 65382, Control_c, 0, 64, 76
1, 65396, Control_c, 0, 64, 68
1, 65411, Control_c, 0, 64, 0
1, 65413, Note_on_c, 0, 62, 60
1, 65420, Note_off_c, 0, 63, 57
1, 65500, Control_c, 0, 64, 60
1, 65502, Note_off_c, 0, 62, 58
1, 65503, Note_on_c, 0, 67, 56
1, 65514, Control_c, 0, 64, 66
1, 65529, Control_c, 0, 64, 68
1, 65544, Control_c, 0, 64, 69
1, 65548, Note_off_c, 0, 67, 64
1, 65559, Note_on_c, 0, 66, 69
1, 65559, Control_c, 0, 64, 70
1, 65573, Control_c, 0, 64, 70
1, 65588, Control_c, 0, 64, 71
1, 65603, Control_c, 0, 64, 73
1, 65618, Control_c, 0, 64, 75
1, 65633, Control_c, 0, 64, 77
1, 65636, Note_off_c, 0, 66, 64
1, 65648, Control_c, 0, 64, 79
1, 65650, Note_on_c, 0, 67, 63
1, 65663, Control_c, 0, 64, 80
1, 65678, Control_c, 0, 64, 80
1, 65682, Note_off_c, 0, 67, 66
1, 65691, Note_off_c, 0, 58, 62
1, 65693, Control_c, 0, 64, 81
1, 65708, Note_on_c, 0, 62, 69
1, 65708, Control_c, 0, 64, 82
1, 65779, Note_off_c, 0, 62, 35
1, 65808, Note_on_c, 0, 60, 57
1, 65880, Note_on_c, 0, 58, 61
1, 65885, Note_off_c, 0, 60, 55
1, 65953, Note_off_c, 0, 58, 56
1, 65967, Note_on_c, 0, 57, 63
1, 66005, Control_c, 0, 64, 81
1, 66019, Control_c, 0, 64, 79
1, 66041, Control_c, 0, 64, 74
1, 66046, Note_off_c, 0, 57, 60
1, 66056, Control_c, 0, 64, 67
1, 66069, Note_on_c, 0, 55, 55
1, 66071, Control_c, 0, 64, 45
1, 66086, Control_c, 0, 64, 0
1, 66130, Note_on_c, 0, 62, 57
1, 66131, Control_c, 0, 64, 56
1, 66145, Control_c, 0, 64, 66
1, 66160, Control_c, 0, 64, 70
1, 66165, Note_off_c, 0, 55, 36
1, 66175, Control_c, 0, 64, 72
1, 66190, Control_c, 0, 64, 72
1, 66196, Note_off_c, 0, 62, 62
1, 66214, Note_on_c, 0, 61, 58
1, 66219, Control_c, 0, 64, 73
1, 66234, Control_c, 0, 64, 73
1, 66249, Control_c, 0, 64, 75
1, 66263, Note_off_c, 0, 61, 57
1, 66263, Control_c, 0, 64, 76
1, 66276, Note_on_c, 0, 62, 62
1, 66278, Control_c, 0, 64, 77
1, 66293, Control_c, 0, 64, 78
1, 66298, Note_off_c, 0, 50, 52
1, 66308, Control_c, 0, 64, 79
1, 66323, Control_c, 0, 64, 80
1, 66337, Control_c, 0, 64, 80
1, 66352, Control_c, 0, 64, 81
1, 66353, Note_off_c, 0, 43, 56
1, 66367, Control_c, 0, 64, 82
1, 66372, Note_off_c, 0, 62, 59
1, 66378, Note_on_c, 0, 58, 55
1, 66396, Control_c, 0, 64, 82
1, 66417, Note_off_c, 0, 58, 64
1, 66447, Note_on_c, 0, 55, 63
1, 66519, Note_off_c, 0, 55, 37
1, 66541, Note_on_c, 0, 53, 56
1, 66611, Note_off_c, 0, 53, 62
1, 66613, Note_on_c, 0, 51, 59
1, 66694, Note_on_c, 0, 50, 61
1, 66700, Note_off_c, 0, 51, 56
1, 66744, Note_off_c, 0, 50, 58
1, 66769, Note_on_c, 0, 55, 73
1, 66867, Note_on_c, 0, 50, 70
1, 66880, Note_off_c, 0, 55, 60
1, 66946, Note_on_c, 0, 48, 74
1, 67010, Note_off_c, 0, 50, 56
1, 67022, Note_on_c, 0, 46, 75
1, 67049, Note_off_c, 0, 48, 62
1, 67101, Note_on_c, 0, 45, 74
1, 67123, Note_off_c, 0, 46, 63
1, 67136, Note_off_c, 0, 45, 67
1, 67176, Note_on_c, 0, 43, 65
1, 67242, Note_off_c, 0, 43, 60
1, 67251, Note_on_c, 0, 41, 70
1, 67370, Control_c, 0, 64, 79
1, 67385, Control_c, 0, 64, 70
1, 67389, Note_on_c, 0, 39, 48
1, 67394, Note_on_c, 0, 67, 86
1, 67399, Control_c, 0, 64, 0
1, 67402, Note_on_c, 0, 55, 65
1, 67413, Note_off_c, 0, 41, 63
1, 67517, Control_c, 0, 64, 64
1, 67532, Note_off_c, 0, 39, 63
1, 67532, Control_c, 0, 64, 71
1, 67555, Control_c, 0, 64, 78
1, 67556, Note_on_c, 0, 65, 40
1, 67570, Control_c, 0, 64, 84
1, 67572, Note_on_c, 0, 59, 66
1, 67579, Note_off_c, 0, 55, 64
1, 67585, Control_c, 0, 64, 89
1, 67588, Note_off_c, 0, 65, 54
1, 67599, Control_c, 0, 64, 94
1, 67604, Note_off_c, 0, 67, 58
1, 67614, Control_c, 0, 64, 102
1, 67629, Control_c, 0, 64, 110
1, 67643, Control_c, 0, 64, 121
1, 67658, Control_c, 0, 64, 127
1, 67669, Note_on_c, 0, 60, 69
1, 67735, Note_on_c, 0, 67, 71
1, 67746, Note_off_c, 0, 60, 61
1, 67764, Note_off_c, 0, 67, 65
1, 67775, Note_off_c, 0, 59, 34
1, 67811, Note_on_c, 0, 55, 87
1, 67812, Note_on_c, 0, 67, 101
1, 67848, Note_off_c, 0, 67, 66
1, 67872, Note_off_c, 0, 55, 64
1, 67923, Note_on_c, 0, 71, 46
1, 68000, Note_off_c, 0, 71, 57
1, 68019, Note_on_c, 0, 72, 47
1, 68045, Note_off_c, 0, 72, 59
1, 68048, Note_on_c, 0, 75, 56
1, 68048, Note_on_c, 0, 79, 45
1, 68075, Note_off_c, 0, 79, 50
1, 68083, Note_off_c, 0, 75, 67
1, 68170, Note_on_c, 0, 55, 77
1, 68173, Note_on_c, 0, 67, 81
1, 68222, Control_c, 0, 64, 97
1, 68237, Control_c, 0, 64, 74
1, 68252, Control_c, 0, 64, 0
1, 68280, Note_on_c, 0, 59, 64
1, 68334, Control_c, 0, 64, 49
1, 68348, Control_c, 0, 64, 67
1, 68363, Control_c, 0, 64, 75
1, 68378, Note_on_c, 0, 44, 57
1, 68378, Control_c, 0, 64, 87
1, 68381, Note_on_c, 0, 48, 60
1, 68386, Note_on_c, 0, 60, 64
1, 68392, Note_off_c, 0, 59, 61
1, 68393, Control_c, 0, 64, 97
1, 68408, Control_c, 0, 64, 106
1, 68419, Note_off_c, 0, 67, 58
1, 68422, Control_c, 0, 64, 115
1, 68423, Note_on_c, 0, 63, 75
1, 68423, Note_off_c, 0, 60, 63
1, 68428, Note_off_c, 0, 48, 65
1, 68437, Control_c, 0, 64, 127
1, 68441, Note_off_c, 0, 44, 61
1, 68448, Note_off_c, 0, 63, 70
1, 68465, Note_off_c, 0, 55, 57
1, 68522, Note_on_c, 0, 67, 76
1, 68566, Note_on_c, 0, 79, 68
1, 68575, Note_off_c, 0, 67, 62
1, 68579, Note_on_c, 0, 72, 60
1, 68614, Note_off_c, 0, 72, 66
1, 68615, Note_off_c, 0, 79, 64
1, 68628, Poly_aftertouch_c, 0, 69, 0
1, 68700, Note_on_c, 0, 65, 80
1, 68700, Note_on_c, 0, 53, 68
1, 68754, Note_on_c, 0, 51, 76
1, 68775, Note_on_c, 0, 63, 80
1, 68789, Note_off_c, 0, 53, 65
1, 68801, Note_off_c, 0, 65, 64
1, 68811, Note_on_c, 0, 62, 51
1, 68817, Note_off_c, 0, 51, 62
1, 68835, Note_off_c, 0, 62, 57
1, 68850, Note_off_c, 0, 63, 55
1, 68888, Note_on_c, 0, 62, 81
1, 68888, Note_on_c, 0, 53, 71
1, 68890, Note_on_c, 0, 50, 67
1, 68926, Control_c, 0, 64, 105
1, 68941, Control_c, 0, 64, 85
1, 68955, Control_c, 0, 64, 61
1, 68970, Control_c, 0, 64, 0
1, 68998, Note_on_c, 0, 56, 68
1, 69067, Control_c, 0, 64, 63
1, 69081, Note_on_c, 0, 60, 70
1, 69082, Control_c, 0, 64, 70
1, 69088, Note_off_c, 0, 62, 63
1, 69096, Control_c, 0, 64, 77
1, 69103, Note_off_c, 0, 56, 58
1, 69111, Control_c, 0, 64, 84
1, 69126, Control_c, 0, 64, 88
1, 69141, Control_c, 0, 64, 91
1, 69156, Control_c, 0, 64, 93
1, 69159, Note_on_c, 0, 65, 67
1, 69160, Note_on_c, 0, 68, 71
1, 69170, Control_c, 0, 64, 96
1, 69180, Note_on_c, 0, 64, 61
1, 69185, Control_c, 0, 64, 99
1, 69194, Note_off_c, 0, 60, 62
1, 69200, Control_c, 0, 64, 103
1, 69201, Note_off_c, 0, 64, 61
1, 69204, Note_off_c, 0, 53, 65
1, 69211, Note_off_c, 0, 50, 62
1, 69214, Control_c, 0, 64, 106
1, 69219, Note_off_c, 0, 68, 61
1, 69219, Note_off_c, 0, 65, 66
1, 69229, Control_c, 0, 64, 109
1, 69244, Control_c, 0, 64, 111
1, 69259, Note_on_c, 0, 68, 52
1, 69259, Control_c, 0, 64, 113
1, 69270, Note_on_c, 0, 65, 66
1, 69274, Control_c, 0, 64, 116
1, 69288, Control_c, 0, 64, 118
1, 69303, Control_c, 0, 64, 120
1, 69313, Note_off_c, 0, 68, 55
1, 69318, Control_c, 0, 64, 121
1, 69333, Control_c, 0, 64, 121
1, 69341, Note_off_c, 0, 65, 65
1, 69344, Note_on_c, 0, 60, 71
1, 69362, Control_c, 0, 64, 122
1, 69377, Control_c, 0, 64, 123
1, 69392, Control_c, 0, 64, 123
1, 69426, Note_on_c, 0, 56, 71
1, 69430, Note_off_c, 0, 60, 60
1, 69508, Note_off_c, 0, 56, 60
1, 69514, Note_on_c, 0, 60, 69
1, 69553, Note_off_c, 0, 60, 64
1, 69556, Control_c, 0, 64, 123
1, 69570, Control_c, 0, 64, 117
1, 69585, Control_c, 0, 64, 105
1, 69595, Note_on_c, 0, 32, 66
1, 69596, Note_on_c, 0, 44, 65
1, 69600, Control_c, 0, 64, 92
1, 69614, Control_c, 0, 64, 74
1, 69629, Control_c, 0, 64, 48
1, 69644, Control_c, 0, 64, 0
1, 69690, Control_c, 0, 64, 64
1, 69704, Control_c, 0, 64, 72
1, 69717, Note_on_c, 0, 50, 64
1, 69719, Control_c, 0, 64, 80
1, 69734, Control_c, 0, 64, 83
1, 69749, Control_c, 0, 64, 84
1, 69764, Control_c, 0, 64, 85
1, 69785, Control_c, 0, 64, 86
1, 69800, Note_off_c, 0, 50, 54
1, 69800, Control_c, 0, 64, 87
1, 69808, Note_on_c, 0, 53, 66
1, 69812, Note_off_c, 0, 32, 60
1, 69815, Control_c, 0, 64, 88
1, 69830, Control_c, 0, 64, 88
1, 69836, Note_off_c, 0, 44, 58
1, 69860, Control_c, 0, 64, 89
1, 69863, Poly_aftertouch_c, 0, 54, 0
1, 69875, Control_c, 0, 64, 89
1, 69891, Note_on_c, 0, 60, 60
1, 69895, Note_off_c, 0, 53, 66
1, 69897, Note_on_c, 0, 62, 53
1, 69925, Note_off_c, 0, 62, 56
1, 69929, Note_off_c, 0, 60, 61
1, 69949, Control_c, 0, 64, 86
1, 69958, Note_on_c, 0, 43, 70
1, 69959, Note_on_c, 0, 31, 70
1, 69964, Control_c, 0, 64, 77
1, 69979, Control_c, 0, 64, 54
1, 69993, Control_c, 0, 64, 0
1, 70052, Control_c, 0, 64, 64
1, 70057, Note_on_c, 0, 50, 65
1, 70067, Control_c, 0, 64, 74
1, 70074, Note_off_c, 0, 31, 64
1, 70082, Control_c, 0, 64, 84
1, 70089, Note_off_c, 0, 43, 61
1, 70097, Control_c, 0, 64, 95
1, 70111, Control_c, 0, 64, 100
1, 70125, Note_on_c, 0, 55, 65
1, 70126, Control_c, 0, 64, 103
1, 70140, Note_off_c, 0, 50, 60
1, 70141, Control_c, 0, 64, 105
1, 70156, Control_c, 0, 64, 107
1, 70171, Control_c, 0, 64, 111
1, 70185, Control_c, 0, 64, 116
1, 70189, Note_on_c, 0, 59, 70
1, 70200, Control_c, 0, 64, 123
1, 70204, Note_on_c, 0, 62, 65
1, 70215, Control_c, 0, 64, 127
1, 70216, Note_off_c, 0, 55, 65
1, 70232, Note_off_c, 0, 62, 65
1, 70242, Note_off_c, 0, 59, 63
1, 70304, Control_c, 0, 64, 118
1, 70319, Control_c, 0, 64, 102
1, 70326, Note_on_c, 0, 39, 68
1, 70332, Note_on_c, 0, 51, 70
1, 70334, Control_c, 0, 64, 82
1, 70335, Note_on_c, 0, 55, 81
1, 70335, Note_on_c, 0, 67, 83
1, 70349, Control_c, 0, 64, 54
1, 70364, Control_c, 0, 64, 0
1, 70423, Control_c, 0, 64, 61
1, 70437, Control_c, 0, 64, 73
1, 70443, Note_off_c, 0, 39, 64
1, 70453, Control_c, 0, 64, 86
1, 70462, Note_on_c, 0, 59, 75
1, 70468, Note_off_c, 0, 51, 64
1, 70468, Control_c, 0, 64, 101
1, 70471, Note_off_c, 0, 55, 65
1, 70483, Control_c, 0, 64, 117
1, 70494, Note_off_c, 0, 67, 54
1, 70498, Control_c, 0, 64, 127
1, 70573, Note_on_c, 0, 60, 75
1, 70610, Note_off_c, 0, 59, 57
1, 70653, Note_on_c, 0, 67, 70
1, 70668, Note_off_c, 0, 60, 50
1, 70686, Note_off_c, 0, 67, 67
1, 70760, Note_on_c, 0, 67, 93
1, 70763, Note_on_c, 0, 55, 80
1, 70847, Note_on_c, 0, 71, 74
1, 70851, Note_off_c, 0, 67, 63
1, 70887, Note_off_c, 0, 55, 66
1, 70940, Note_on_c, 0, 72, 60
1, 70945, Note_off_c, 0, 71, 54
1, 70978, Note_on_c, 0, 75, 68
1, 70982, Note_off_c, 0, 72, 63
1, 71007, Note_on_c, 0, 79, 9
1, 71008, Note_off_c, 0, 75, 68
1, 71052, Note_off_c, 0, 79, 28
1, 71103, Note_on_c, 0, 67, 82
1, 71107, Note_on_c, 0, 55, 78
1, 71142, Control_c, 0, 64, 97
1, 71157, Control_c, 0, 64, 75
1, 71172, Control_c, 0, 64, 0
1, 71219, Note_on_c, 0, 59, 72
1, 71262, Control_c, 0, 64, 52
1, 71277, Control_c, 0, 64, 68
1, 71299, Control_c, 0, 64, 77
1, 71309, Note_on_c, 0, 48, 54
1, 71314, Control_c, 0, 64, 87
1, 71315, Note_on_c, 0, 44, 59
1, 71323, Note_on_c, 0, 60, 67
1, 71329, Control_c, 0, 64, 96
1, 71332, Note_off_c, 0, 59, 61
1, 71344, Control_c, 0, 64, 105
1, 71359, Control_c, 0, 64, 113
1, 71362, Note_off_c, 0, 67, 38
1, 71373, Note_on_c, 0, 63, 74
1, 71373, Control_c, 0, 64, 123
1, 71377, Note_off_c, 0, 60, 63
1, 71388, Control_c, 0, 64, 127
1, 71407, Note_off_c, 0, 63, 64
1, 71425, Note_off_c, 0, 48, 65
1, 71431, Note_off_c, 0, 44, 61
1, 71453, Note_off_c, 0, 55, 56
1, 71477, Note_on_c, 0, 67, 78
1, 71529, Note_on_c, 0, 79, 62
1, 71532, Note_off_c, 0, 67, 57
1, 71541, Note_on_c, 0, 72, 53
1, 71559, Note_off_c, 0, 79, 66
1, 71571, Note_off_c, 0, 72, 67
1, 71659, Note_on_c, 0, 65, 64
1, 71663, Note_on_c, 0, 67, 59
1, 71669, Note_on_c, 0, 53, 65
1, 71745, Note_on_c, 0, 51, 73
1, 71750, Note_on_c, 0, 63, 74
1, 71754, Note_off_c, 0, 67, 60
1, 71770, Note_off_c, 0, 65, 56
1, 71780, Note_off_c, 0, 53, 66
1, 71804, Note_off_c, 0, 51, 63
1, 71862, Note_off_c, 0, 63, 61
1, 71870, Note_on_c, 0, 53, 65
1, 71875, Note_on_c, 0, 50, 63
1, 71876, Note_on_c, 0, 62, 71
1, 71906, Control_c, 0, 64, 111
1, 71921, Control_c, 0, 64, 88
1, 71936, Control_c, 0, 64, 69
1, 71950, Control_c, 0, 64, 0
1, 71985, Note_on_c, 0, 56, 74
1, 72047, Control_c, 0, 64, 43
1, 72063, Control_c, 0, 64, 67
1, 72068, Note_on_c, 0, 60, 72
1, 72078, Control_c, 0, 64, 77
1, 72081, Note_off_c, 0, 62, 63
1, 72093, Control_c, 0, 64, 87
1, 72107, Control_c, 0, 64, 95
1, 72122, Control_c, 0, 64, 98
1, 72134, Note_on_c, 0, 65, 75
1, 72135, Note_off_c, 0, 56, 38
1, 72137, Control_c, 0, 64, 101
1, 72141, Note_on_c, 0, 68, 74
1, 72152, Control_c, 0, 64, 102
1, 72167, Control_c, 0, 64, 104
1, 72171, Note_off_c, 0, 60, 62
1, 72182, Control_c, 0, 64, 105
1, 72193, Note_off_c, 0, 65, 65
1, 72196, Control_c, 0, 64, 107
1, 72209, Note_off_c, 0, 53, 66
1, 72211, Control_c, 0, 64, 110
1, 72218, Note_off_c, 0, 68, 0
1, 72226, Control_c, 0, 64, 112
1, 72227, Note_off_c, 0, 50, 64
1, 72230, Note_on_c, 0, 68, 53
1, 72240, Control_c, 0, 64, 114
1, 72243, Note_on_c, 0, 65, 69
1, 72255, Control_c, 0, 64, 115
1, 72270, Control_c, 0, 64, 116
1, 72285, Control_c, 0, 64, 118
1, 72300, Control_c, 0, 64, 121
1, 72304, Note_off_c, 0, 68, 63
1, 72314, Control_c, 0, 64, 124
1, 72320, Note_on_c, 0, 60, 74
1, 72326, Note_off_c, 0, 65, 64
1, 72329, Control_c, 0, 64, 126
1, 72344, Control_c, 0, 64, 127
1, 72406, Note_on_c, 0, 56, 69
1, 72408, Note_off_c, 0, 60, 59
1, 72482, Note_on_c, 0, 60, 73
1, 72488, Note_off_c, 0, 56, 62
1, 72520, Note_off_c, 0, 60, 61
1, 72567, Control_c, 0, 64, 120
1, 72579, Note_on_c, 0, 32, 63
1, 72580, Note_on_c, 0, 44, 62
1, 72581, Control_c, 0, 64, 105
1, 72596, Control_c, 0, 64, 90
1, 72611, Control_c, 0, 64, 73
1, 72625, Control_c, 0, 64, 0
1, 72685, Control_c, 0, 64, 53
1, 72689, Note_on_c, 0, 50, 64
1, 72699, Control_c, 0, 64, 69
1, 72714, Control_c, 0, 64, 77
1, 72729, Control_c, 0, 64, 84
1, 72744, Control_c, 0, 64, 87
1, 72759, Control_c, 0, 64, 89
1, 72767, Note_on_c, 0, 53, 68
1, 72780, Note_off_c, 0, 50, 58
1, 72781, Control_c, 0, 64, 90
1, 72796, Control_c, 0, 64, 91
1, 72811, Control_c, 0, 64, 92
1, 72826, Note_off_c, 0, 32, 57
1, 72826, Control_c, 0, 64, 93
1, 72830, Note_off_c, 0, 44, 59
1, 72840, Control_c, 0, 64, 94
1, 72856, Control_c, 0, 64, 95
1, 72868, Note_off_c, 0, 53, 65
1, 72868, Note_on_c, 0, 60, 57
1, 72871, Control_c, 0, 64, 96
1, 72886, Control_c, 0, 64, 96
1, 72892, Note_on_c, 0, 62, 39
1, 72912, Note_off_c, 0, 60, 56
1, 72927, Note_off_c, 0, 62, 50
1, 72950, Note_on_c, 0, 43, 60
1, 72954, Note_on_c, 0, 31, 57
1, 72960, Control_c, 0, 64, 96
1, 72975, Control_c, 0, 64, 88
1, 72990, Control_c, 0, 64, 76
1, 73004, Control_c, 0, 64, 43
1, 73019, Control_c, 0, 64, 0
1, 73043, Note_on_c, 0, 50, 63
1, 73063, Control_c, 0, 64, 57
1, 73078, Control_c, 0, 64, 71
1, 73091, Note_off_c, 0, 31, 64
1, 73093, Control_c, 0, 64, 80
1, 73108, Control_c, 0, 64, 88
1, 73121, Note_on_c, 0, 55, 64
1, 73123, Note_off_c, 0, 43, 61
1, 73123, Control_c, 0, 64, 92
1, 73127, Note_off_c, 0, 50, 62
1, 73137, Control_c, 0, 64, 94
1, 73152, Control_c, 0, 64, 97
1, 73167, Control_c, 0, 64, 100
1, 73182, Control_c, 0, 64, 103
1, 73183, Note_on_c, 0, 59, 63
1, 73196, Control_c, 0, 64, 106
1, 73211, Control_c, 0, 64, 109
1, 73215, Note_on_c, 0, 62, 32
1, 73225, Control_c, 0, 64, 111
1, 73240, Control_c, 0, 64, 112
1, 73251, Note_off_c, 0, 62, 44
1, 73255, Control_c, 0, 64, 112
1, 73304, Note_off_c, 0, 59, 36
1, 73312, Note_on_c, 0, 60, 71
1, 73317, Note_on_c, 0, 48, 63
1, 73344, Control_c, 0, 64, 111
1, 73359, Control_c, 0, 64, 100
1, 73362, Note_off_c, 0, 55, 22
1, 73373, Control_c, 0, 64, 85
1, 73388, Control_c, 0, 64, 65
1, 73403, Control_c, 0, 64, 0
1, 73442, Note_on_c, 0, 51, 61
1, 73462, Control_c, 0, 64, 42
1, 73477, Control_c, 0, 64, 66
1, 73489, Note_off_c, 0, 51, 61
1, 73492, Control_c, 0, 64, 74
1, 73497, Note_on_c, 0, 39, 48
1, 73503, Note_on_c, 0, 36, 54
1, 73507, Control_c, 0, 64, 83
1, 73508, Note_on_c, 0, 43, 57
1, 73510, Note_off_c, 0, 60, 60
1, 73514, Note_on_c, 0, 55, 67
1, 73529, Control_c, 0, 64, 90
1, 73544, Control_c, 0, 64, 96
1, 73556, Note_off_c, 0, 36, 64
1, 73559, Control_c, 0, 64, 100
1, 73561, Note_off_c, 0, 48, 63
1, 73570, Note_off_c, 0, 43, 61
1, 73574, Control_c, 0, 64, 104
1, 73574, Note_off_c, 0, 39, 63
1, 73583, Note_off_c, 0, 55, 66
1, 73586, Note_on_c, 0, 51, 68
1, 73588, Control_c, 0, 64, 109
1, 73603, Control_c, 0, 64, 116
1, 73618, Note_off_c, 0, 51, 62
1, 73618, Control_c, 0, 64, 124
1, 73633, Control_c, 0, 64, 127
1, 73696, Note_on_c, 0, 48, 76
1, 73699, Note_on_c, 0, 60, 71
1, 73790, Note_on_c, 0, 63, 60
1, 73795, Note_off_c, 0, 48, 64
1, 73797, Note_off_c, 0, 60, 61
1, 73864, Note_off_c, 0, 63, 60
1, 73873, Note_on_c, 0, 72, 74
1, 73876, Note_on_c, 0, 67, 73
1, 73893, Note_on_c, 0, 62, 83
1, 73897, Note_on_c, 0, 50, 77
1, 73967, Note_on_c, 0, 63, 80
1, 73973, Note_off_c, 0, 50, 63
1, 73973, Note_off_c, 0, 72, 64
1, 73984, Note_off_c, 0, 62, 62
1, 73985, Note_off_c, 0, 67, 61
1, 74024, Note_off_c, 0, 63, 64
1, 74034, Control_c, 0, 64, 108
1, 74049, Control_c, 0, 64, 92
1, 74064, Control_c, 0, 64, 75
1, 74067, Note_on_c, 0, 65, 95
1, 74070, Note_on_c, 0, 53, 89
1, 74078, Control_c, 0, 64, 57
1, 74093, Control_c, 0, 64, 0
1, 74108, Control_c, 0, 64, 48
1, 74123, Control_c, 0, 64, 67
1, 74138, Control_c, 0, 64, 77
1, 74152, Control_c, 0, 64, 87
1, 74158, Note_off_c, 0, 65, 67
1, 74166, Note_on_c, 0, 67, 77
1, 74167, Control_c, 0, 64, 93
1, 74175, Note_off_c, 0, 53, 66
1, 74182, Control_c, 0, 64, 96
1, 74197, Control_c, 0, 64, 97
1, 74212, Control_c, 0, 64, 98
1, 74227, Control_c, 0, 64, 99
1, 74239, Note_on_c, 0, 63, 100
1, 74242, Control_c, 0, 64, 100
1, 74245, Note_on_c, 0, 51, 90
1, 74252, Note_off_c, 0, 67, 58
1, 74256, Note_on_c, 0, 72, 73
1, 74257, Control_c, 0, 64, 101
1, 74258, Note_on_c, 0, 75, 71
1, 74272, Control_c, 0, 64, 102
1, 74293, Control_c, 0, 64, 103
1, 74323, Control_c, 0, 64, 104
1, 74339, Note_off_c, 0, 63, 61
1, 74340, Note_off_c, 0, 51, 60
1, 74351, Note_on_c, 0, 67, 76
1, 74351, Note_off_c, 0, 75, 64
1, 74352, Note_off_c, 0, 72, 65
1, 74352, Control_c, 0, 64, 104
1, 74396, Note_off_c, 0, 67, 62
1, 74437, Note_on_c, 0, 62, 95
1, 74441, Note_on_c, 0, 50, 91
1, 74502, Note_off_c, 0, 62, 59
1, 74511, Note_off_c, 0, 50, 58
1, 74528, Note_on_c, 0, 72, 83
1, 74591, Control_c, 0, 64, 105
1, 74620, Control_c, 0, 64, 106
1, 74623, Note_on_c, 0, 79, 77
1, 74627, Note_on_c, 0, 75, 85
1, 74627, Note_off_c, 0, 72, 62
1, 74634, Note_on_c, 0, 48, 85
1, 74635, Control_c, 0, 64, 107
1, 74636, Note_on_c, 0, 60, 87
1, 74650, Control_c, 0, 64, 109
1, 74665, Control_c, 0, 64, 111
1, 74680, Control_c, 0, 64, 113
1, 74685, Note_off_c, 0, 48, 65
1, 74690, Note_off_c, 0, 60, 60
1, 74695, Control_c, 0, 64, 115
1, 74709, Control_c, 0, 64, 116
1, 74721, Note_off_c, 0, 79, 62
1, 74724, Control_c, 0, 64, 117
1, 74728, Note_on_c, 0, 72, 90
1, 74738, Note_off_c, 0, 75, 67
1, 74754, Control_c, 0, 64, 117
1, 74781, Note_off_c, 0, 72, 66
1, 74813, Control_c, 0, 64, 117
1, 74827, Control_c, 0, 64, 110
1, 74842, Control_c, 0, 64, 96
1, 74844, Note_on_c, 0, 63, 98
1, 74847, Note_on_c, 0, 51, 89
1, 74857, Control_c, 0, 64, 78
1, 74872, Control_c, 0, 64, 39
1, 74887, Control_c, 0, 64, 0
1, 74957, Note_off_c, 0, 63, 66
1, 74975, Note_off_c, 0, 51, 64
1, 74975, Control_c, 0, 64, 66
1, 74978, Note_on_c, 0, 75, 70
1, 74990, Control_c, 0, 64, 77
1, 75005, Control_c, 0, 64, 88
1, 75020, Control_c, 0, 64, 97
1, 75042, Control_c, 0, 64, 101
1, 75054, Note_on_c, 0, 79, 65
1, 75057, Control_c, 0, 64, 103
1, 75059, Note_on_c, 0, 82, 71
1, 75068, Note_off_c, 0, 75, 63
1, 75072, Control_c, 0, 64, 103
1, 75087, Control_c, 0, 64, 105
1, 75102, Control_c, 0, 64, 106
1, 75116, Control_c, 0, 64, 108
1, 75131, Control_c, 0, 64, 110
1, 75142, Note_off_c, 0, 79, 62
1, 75146, Control_c, 0, 64, 111
1, 75150, Note_off_c, 0, 82, 64
1, 75160, Control_c, 0, 64, 112
1, 75163, Note_on_c, 0, 75, 87
1, 75174, Note_on_c, 0, 43, 63
1, 75175, Control_c, 0, 64, 113
1, 75184, Note_on_c, 0, 46, 77
1, 75190, Control_c, 0, 64, 115
1, 75205, Control_c, 0, 64, 117
1, 75220, Control_c, 0, 64, 118
1, 75235, Control_c, 0, 64, 119
1, 75246, Note_on_c, 0, 51, 78
1, 75250, Control_c, 0, 64, 120
1, 75252, Note_off_c, 0, 75, 57
1, 75265, Control_c, 0, 64, 120
1, 75279, Note_on_c, 0, 55, 82
1, 75280, Control_c, 0, 64, 121
1, 75295, Control_c, 0, 64, 122
1, 75302, Note_on_c, 0, 82, 71
1, 75310, Control_c, 0, 64, 123
1, 75314, Note_on_c, 0, 87, 76
1, 75324, Control_c, 0, 64, 124
1, 75339, Control_c, 0, 64, 125
1, 75354, Control_c, 0, 64, 126
1, 75369, Control_c, 0, 64, 127
1, 75372, Note_off_c, 0, 87, 62
1, 75382, Note_off_c, 0, 82, 63
1, 75394, Note_on_c, 0, 75, 76
1, 75445, Note_off_c, 0, 75, 64
1, 75494, Note_on_c, 0, 79, 69
1, 75510, Note_on_c, 0, 82, 72
1, 75561, Note_on_c, 0, 75, 84
1, 75567, Note_off_c, 0, 79, 64
1, 75569, Note_off_c, 0, 82, 63
1, 75595, Note_off_c, 0, 75, 63
1, 75605, Note_off_c, 0, 43, 61
1, 75623, Note_off_c, 0, 55, 62
1, 75625, Note_off_c, 0, 46, 62
1, 75634, Note_off_c, 0, 51, 62
1, 75655, Note_on_c, 0, 79, 82
1, 75657, Note_on_c, 0, 75, 67
1, 75717, Note_off_c, 0, 75, 64
1, 75729, Note_off_c, 0, 79, 56
1, 75738, Note_on_c, 0, 67, 85
1, 75797, Note_off_c, 0, 67, 61
1, 75829, Note_on_c, 0, 70, 78
1, 75886, Note_off_c, 0, 70, 62
1, 75894, Note_on_c, 0, 67, 63
1, 75925, Note_off_c, 0, 67, 65
1, 75998, Note_on_c, 0, 55, 71
1, 75998, Note_on_c, 0, 63, 80
1, 76004, Note_on_c, 0, 51, 63
1, 76028, Control_c, 0, 64, 124
1, 76043, Control_c, 0, 64, 92
1, 76059, Control_c, 0, 64, 71
1, 76073, Control_c, 0, 64, 0
1, 76131, Note_on_c, 0, 58, 66
1, 76162, Control_c, 0, 64, 62
1, 76177, Control_c, 0, 64, 72
1, 76192, Control_c, 0, 64, 82
1, 76194, Note_off_c, 0, 55, 64
1, 76196, Note_off_c, 0, 51, 55
1, 76197, Note_off_c, 0, 63, 66
1, 76204, Note_off_c, 0, 58, 62
1, 76206, Control_c, 0, 64, 93
1, 76221, Control_c, 0, 64, 102
1, 76235, Note_on_c, 0, 67, 57
1, 76236, Note_on_c, 0, 70, 64
1, 76236, Control_c, 0, 64, 107
1, 76251, Control_c, 0, 64, 111
1, 76266, Control_c, 0, 64, 113
1, 76281, Control_c, 0, 64, 115
1, 76286, Note_on_c, 0, 58, 68
1, 76296, Control_c, 0, 64, 116
1, 76311, Control_c, 0, 64, 117
1, 76315, Note_off_c, 0, 70, 54
1, 76326, Control_c, 0, 64, 117
1, 76355, Note_off_c, 0, 58, 62
1, 76370, Note_off_c, 0, 67, 36
1, 76373, Note_on_c, 0, 62, 82
1, 76379, Note_on_c, 0, 53, 59
1, 76385, Control_c, 0, 64, 117
1, 76394, Note_on_c, 0, 50, 65
1, 76399, Control_c, 0, 64, 116
1, 76414, Control_c, 0, 64, 108
1, 76429, Control_c, 0, 64, 94
1, 76444, Control_c, 0, 64, 76
1, 76459, Control_c, 0, 64, 0
1, 76496, Note_on_c, 0, 58, 62
1, 76525, Control_c, 0, 64, 57
1, 76526, Note_off_c, 0, 53, 66
1, 76540, Note_off_c, 0, 50, 64
1, 76540, Control_c, 0, 64, 70
1, 76541, Note_off_c, 0, 62, 63
1, 76555, Control_c, 0, 64, 79
1, 76558, Note_off_c, 0, 58, 60
1, 76570, Control_c, 0, 64, 86
1, 76579, Note_on_c, 0, 65, 67
1, 76585, Note_on_c, 0, 70, 62
1, 76585, Control_c, 0, 64, 90
1, 76599, Control_c, 0, 64, 92
1, 76614, Control_c, 0, 64, 93
1, 76629, Control_c, 0, 64, 95
1, 76644, Control_c, 0, 64, 97
1, 76651, Note_off_c, 0, 70, 50
1, 76659, Control_c, 0, 64, 99
1, 76662, Note_on_c, 0, 58, 71
1, 76668, Note_off_c, 0, 65, 64
1, 76673, Control_c, 0, 64, 102
1, 76686, Note_off_c, 0, 58, 69
1, 76688, Control_c, 0, 64, 102
1, 76746, Note_on_c, 0, 60, 85
1, 76748, Control_c, 0, 64, 102
1, 76749, Note_on_c, 0, 55, 70
1, 76752, Note_on_c, 0, 51, 64
1, 76762, Note_on_c, 0, 48, 68
1, 76762, Control_c, 0, 64, 98
1, 76777, Control_c, 0, 64, 88
1, 76792, Control_c, 0, 64, 72
1, 76806, Control_c, 0, 64, 0
1, 76854, Note_on_c, 0, 63, 70
1, 76856, Note_off_c, 0, 55, 66
1, 76858, Note_off_c, 0, 60, 64
1, 76867, Control_c, 0, 64, 66
1, 76874, Note_off_c, 0, 48, 66
1, 76877, Note_off_c, 0, 51, 62
1, 76882, Control_c, 0, 64, 77
1, 76897, Control_c, 0, 64, 91
1, 76911, Control_c, 0, 64, 101
1, 76925, Note_off_c, 0, 63, 57
1, 76926, Control_c, 0, 64, 108
1, 76940, Note_on_c, 0, 67, 68
1, 76940, Control_c, 0, 64, 112
1, 76946, Note_on_c, 0, 72, 68
1, 76949, Note_on_c, 0, 75, 64
1, 76955, Control_c, 0, 64, 115
1, 76970, Control_c, 0, 64, 123
1, 76984, Control_c, 0, 64, 127
1, 77012, Note_off_c, 0, 67, 61
1, 77017, Note_off_c, 0, 72, 62
1, 77018, Note_off_c, 0, 75, 62
1, 77026, Note_on_c, 0, 63, 81
1, 77064, Note_off_c, 0, 63, 62
1, 77133, Note_on_c, 0, 55, 74
1, 77137, Note_on_c, 0, 46, 63
1, 77139, Note_on_c, 0, 50, 62
1, 77148, Control_c, 0, 64, 119
1, 77151, Note_on_c, 0, 43, 66
1, 77163, Control_c, 0, 64, 98
1, 77177, Control_c, 0, 64, 76
1, 77192, Control_c, 0, 64, 0
1, 77274, Control_c, 0, 64, 59
1, 77282, Note_on_c, 0, 67, 76
1, 77288, Control_c, 0, 64, 74
1, 77303, Control_c, 0, 64, 88
1, 77318, Control_c, 0, 64, 106
1, 77333, Control_c, 0, 64, 127
1, 77348, Note_off_c, 0, 55, 65
1, 77353, Note_off_c, 0, 50, 64
1, 77358, Note_off_c, 0, 43, 60
1, 77380, Note_off_c, 0, 46, 63
1, 77380, Note_off_c, 0, 67, 60
1, 77410, Note_on_c, 0, 79, 69
1, 77411, Note_on_c, 0, 74, 56
1, 77418, Note_on_c, 0, 70, 56
1, 77472, Note_off_c, 0, 79, 62
1, 77478, Note_off_c, 0, 74, 63
1, 77503, Note_on_c, 0, 67, 66
1, 77503, Note_off_c, 0, 70, 63
1, 77533, Note_off_c, 0, 67, 65
1, 77679, Note_on_c, 0, 39, 47
1, 77690, Note_on_c, 0, 60, 79
1, 77719, Control_c, 0, 64, 106
1, 77733, Control_c, 0, 64, 84
1, 77748, Control_c, 0, 64, 59
1, 77763, Control_c, 0, 64, 0
1, 77850, Note_on_c, 0, 51, 49
1, 77867, Control_c, 0, 64, 52
1, 77882, Control_c, 0, 64, 68
1, 77897, Control_c, 0, 64, 77
1, 77911, Control_c, 0, 64, 86
1, 77914, Note_off_c, 0, 51, 58
1, 77926, Control_c, 0, 64, 92
1, 77941, Control_c, 0, 64, 95
1, 77955, Note_on_c, 0, 48, 49
1, 77956, Control_c, 0, 64, 97
1, 77968, Note_off_c, 0, 39, 57
1, 77971, Control_c, 0, 64, 99
1, 77986, Control_c, 0, 64, 102
1, 77991, Note_off_c, 0, 60, 60
1, 78000, Control_c, 0, 64, 105
1, 78022, Control_c, 0, 64, 108
1, 78035, Note_off_c, 0, 48, 56
1, 78037, Control_c, 0, 64, 111
1, 78052, Control_c, 0, 64, 114
1, 78060, Note_on_c, 0, 55, 60
1, 78066, Control_c, 0, 64, 117
1, 78081, Control_c, 0, 64, 119
1, 78096, Control_c, 0, 64, 121
1, 78111, Control_c, 0, 64, 122
1, 78126, Control_c, 0, 64, 123
1, 78139, Note_off_c, 0, 55, 64
1, 78154, Note_on_c, 0, 62, 54
1, 78201, Note_on_c, 0, 60, 63
1, 78207, Note_off_c, 0, 62, 51
1, 78230, Control_c, 0, 64, 122
1, 78244, Control_c, 0, 64, 118
1, 78259, Control_c, 0, 64, 108
1, 78271, Note_on_c, 0, 34, 33
1, 78274, Control_c, 0, 64, 95
1, 78289, Control_c, 0, 64, 78
1, 78298, Note_on_c, 0, 55, 62
1, 78304, Control_c, 0, 64, 27
1, 78317, Note_off_c, 0, 60, 57
1, 78318, Control_c, 0, 64, 0
1, 78421, Note_on_c, 0, 50, 47
1, 78422, Control_c, 0, 64, 65
1, 78437, Control_c, 0, 64, 72
1, 78453, Control_c, 0, 64, 79
1, 78465, Note_off_c, 0, 50, 61
1, 78468, Control_c, 0, 64, 84
1, 78469, Note_off_c, 0, 55, 62
1, 78478, Note_on_c, 0, 46, 64
1, 78483, Control_c, 0, 64, 87
1, 78490, Note_off_c, 0, 34, 57
1, 78498, Control_c, 0, 64, 88
1, 78513, Control_c, 0, 64, 89
1, 78520, Note_off_c, 0, 46, 64
1, 78528, Control_c, 0, 64, 91
1, 78542, Control_c, 0, 64, 94
1, 78557, Control_c, 0, 64, 96
1, 78565, Note_on_c, 0, 50, 56
1, 78572, Control_c, 0, 64, 99
1, 78587, Control_c, 0, 64, 102
1, 78588, Note_off_c, 0, 50, 64
1, 78589, Note_on_c, 0, 55, 48
1, 78601, Control_c, 0, 64, 104
1, 78616, Control_c, 0, 64, 106
1, 78625, Note_off_c, 0, 55, 51
1, 78631, Control_c, 0, 64, 108
1, 78646, Control_c, 0, 64, 109
1, 78661, Control_c, 0, 64, 111
1, 78675, Control_c, 0, 64, 113
1, 78680, Note_on_c, 0, 50, 14
1, 78690, Control_c, 0, 64, 115
1, 78705, Control_c, 0, 64, 116
1, 78708, Note_on_c, 0, 58, 69
1, 78720, Control_c, 0, 64, 117
1, 78724, Note_off_c, 0, 50, 38
1, 78735, Control_c, 0, 64, 119
1, 78749, Control_c, 0, 64, 120
1, 78754, Note_off_c, 0, 58, 60
1, 78764, Control_c, 0, 64, 122
1, 78787, Control_c, 0, 64, 124
1, 78801, Control_c, 0, 64, 127
1, 78816, Control_c, 0, 64, 127
1, 78822, Note_on_c, 0, 55, 59
1, 78848, Note_off_c, 0, 55, 66
1, 78856, Note_on_c, 0, 58, 72
1, 78861, Note_on_c, 0, 62, 54
1, 78881, Note_off_c, 0, 58, 67
1, 78901, Note_off_c, 0, 62, 62
1, 78966, Note_on_c, 0, 58, 60
1, 79004, Note_off_c, 0, 58, 63
1, 79075, Note_on_c, 0, 62, 13
1, 79107, Note_off_c, 0, 62, 0
1, 79141, Poly_aftertouch_c, 0, 60, 0
1, 79142, Note_on_c, 0, 62, 5
1, 79201, Note_off_c, 0, 62, 55
1, 79211, Note_on_c, 0, 70, 45
1, 79271, Poly_aftertouch_c, 0, 67, 127
1, 79320, Control_c, 0, 64, 116
1, 79335, Control_c, 0, 64, 103
1, 79339, Note_on_c, 0, 51, 49
1, 79350, Control_c, 0, 64, 90
1, 79365, Control_c, 0, 64, 74
1, 79370, Note_on_c, 0, 72, 66
1, 79380, Control_c, 0, 64, 0
1, 79396, Note_off_c, 0, 70, 42
1, 79414, Poly_aftertouch_c, 0, 67, 0
1, 79498, Control_c, 0, 64, 61
1, 79513, Control_c, 0, 64, 71
1, 79536, Control_c, 0, 64, 80
1, 79537, Note_on_c, 0, 63, 41
1, 79551, Control_c, 0, 64, 87
1, 79566, Control_c, 0, 64, 91
1, 79580, Control_c, 0, 64, 94
1, 79581, Note_off_c, 0, 63, 63
1, 79588, Note_on_c, 0, 60, 52
1, 79595, Control_c, 0, 64, 96
1, 79605, Note_off_c, 0, 72, 60
1, 79610, Control_c, 0, 64, 99
1, 79614, Note_off_c, 0, 51, 62
1, 79624, Control_c, 0, 64, 101
1, 79631, Note_off_c, 0, 60, 59
1, 79639, Control_c, 0, 64, 104
1, 79654, Control_c, 0, 64, 107
1, 79667, Note_on_c, 0, 67, 54
1, 79669, Control_c, 0, 64, 110
1, 79684, Control_c, 0, 64, 112
1, 79698, Control_c, 0, 64, 112
1, 79722, Note_off_c, 0, 67, 57
1, 79728, Control_c, 0, 64, 113
1, 79752, Note_on_c, 0, 74, 36
1, 79775, Note_on_c, 0, 72, 58
1, 79777, Note_off_c, 0, 74, 56
1, 79846, Control_c, 0, 64, 112
1, 79861, Control_c, 0, 64, 107
1, 79868, Note_on_c, 0, 46, 42
1, 79870, Note_off_c, 0, 72, 62
1, 79876, Control_c, 0, 64, 97
1, 79877, Note_on_c, 0, 67, 57
1, 79891, Control_c, 0, 64, 83
1, 79906, Control_c, 0, 64, 65
1, 79921, Control_c, 0, 64, 0
1, 79995, Control_c, 0, 64, 62
1, 80009, Note_on_c, 0, 62, 55
1, 80010, Control_c, 0, 64, 70
1, 80024, Control_c, 0, 64, 77
1, 80040, Control_c, 0, 64, 84
1, 80047, Note_off_c, 0, 62, 61
1, 80049, Note_off_c, 0, 67, 56
1, 80055, Control_c, 0, 64, 89
1, 80070, Control_c, 0, 64, 91
1, 80074, Note_off_c, 0, 46, 49
1, 80075, Note_on_c, 0, 58, 54
1, 80084, Control_c, 0, 64, 92
1, 80099, Control_c, 0, 64, 95
1, 80102, Note_off_c, 0, 58, 63
1, 80114, Control_c, 0, 64, 98
1, 80129, Control_c, 0, 64, 101
1, 80142, Note_on_c, 0, 62, 58
1, 80144, Control_c, 0, 64, 105
1, 80159, Control_c, 0, 64, 107
1, 80171, Note_on_c, 0, 67, 53
1, 80174, Control_c, 0, 64, 108
1, 80177, Note_off_c, 0, 62, 63
1, 80188, Control_c, 0, 64, 110
1, 80195, Note_off_c, 0, 67, 60
1, 80203, Control_c, 0, 64, 113
1, 80218, Control_c, 0, 64, 115
1, 80220, Note_on_c, 0, 62, 56
1, 80233, Control_c, 0, 64, 118
1, 80247, Control_c, 0, 64, 120
1, 80269, Note_off_c, 0, 62, 57
1, 80269, Control_c, 0, 64, 123
1, 80284, Control_c, 0, 64, 127
1, 80299, Control_c, 0, 64, 127
1, 80315, Note_on_c, 0, 70, 66
1, 80368, Note_off_c, 0, 70, 56
1, 80449, Note_on_c, 0, 74, 40
1, 80451, Note_on_c, 0, 70, 67
1, 80475, Note_off_c, 0, 70, 70
1, 80490, Note_off_c, 0, 74, 66
1, 80577, Note_on_c, 0, 70, 53
1, 80607, Note_off_c, 0, 70, 54
1, 80644, Note_on_c, 0, 79, 67
1, 80650, Note_on_c, 0, 74, 56
1, 80669, Note_off_c, 0, 79, 57
1, 80671, Note_off_c, 0, 74, 65
1, 80760, Note_on_c, 0, 74, 53
1, 80827, Note_off_c, 0, 74, 64
1, 80853, Note_on_c, 0, 82, 47
1, 80882, Note_on_c, 0, 79, 23
1, 80890, Note_off_c, 0, 82, 47
1, 80945, Note_off_c, 0, 79, 0
1, 80982, Poly_aftertouch_c, 0, 79, 127
1, 81032, Note_on_c, 0, 63, 36
1, 81034, Control_c, 0, 64, 125
1, 81047, Note_on_c, 0, 84, 67
1, 81049, Control_c, 0, 64, 113
1, 81064, Control_c, 0, 64, 103
1, 81075, Poly_aftertouch_c, 0, 79, 0
1, 81078, Control_c, 0, 64, 93
1, 81093, Control_c, 0, 64, 82
1, 81108, Control_c, 0, 64, 67
1, 81123, Control_c, 0, 64, 0
1, 81211, Control_c, 0, 64, 48
1, 81226, Control_c, 0, 64, 66
1, 81241, Control_c, 0, 64, 73
1, 81246, Note_on_c, 0, 75, 28
1, 81256, Control_c, 0, 64, 80
1, 81271, Control_c, 0, 64, 84
1, 81286, Control_c, 0, 64, 87
1, 81301, Control_c, 0, 64, 90
1, 81316, Control_c, 0, 64, 93
1, 81331, Control_c, 0, 64, 96
1, 81345, Control_c, 0, 64, 98
1, 81352, Note_off_c, 0, 75, 38
1, 81354, Note_off_c, 0, 84, 33
1, 81360, Control_c, 0, 64, 101
1, 81365, Note_on_c, 0, 72, 39
1, 81375, Control_c, 0, 64, 103
1, 81382, Note_off_c, 0, 63, 53
1, 81390, Control_c, 0, 64, 106
1, 81404, Control_c, 0, 64, 107
1, 81419, Control_c, 0, 64, 108
1, 81434, Control_c, 0, 64, 109
1, 81449, Control_c, 0, 64, 110
1, 81455, Note_on_c, 0, 79, 49
1, 81464, Control_c, 0, 64, 111
1, 81470, Note_off_c, 0, 72, 36
1, 81478, Control_c, 0, 64, 112
1, 81493, Control_c, 0, 64, 112
1, 81534, Note_off_c, 0, 79, 58
1, 81557, Note_on_c, 0, 86, 37
1, 81590, Note_off_c, 0, 86, 50
1, 81612, Note_on_c, 0, 84, 53
1, 81642, Control_c, 0, 64, 112
1, 81657, Control_c, 0, 64, 110
1, 81658, Note_on_c, 0, 58, 36
1, 81672, Control_c, 0, 64, 107
1, 81686, Control_c, 0, 64, 102
1, 81701, Control_c, 0, 64, 95
1, 81710, Note_on_c, 0, 79, 46
1, 81716, Control_c, 0, 64, 86
1, 81723, Note_off_c, 0, 84, 58
1, 81731, Control_c, 0, 64, 73
1, 81746, Control_c, 0, 64, 50
1, 81761, Control_c, 0, 64, 0
1, 81827, Control_c, 0, 64, 22
1, 81842, Control_c, 0, 64, 64
1, 81857, Control_c, 0, 64, 71
1, 81861, Note_on_c, 0, 74, 25
1, 81872, Control_c, 0, 64, 78
1, 81887, Control_c, 0, 64, 84
1, 81894, Note_off_c, 0, 74, 46
1, 81901, Control_c, 0, 64, 87
1, 81915, Note_off_c, 0, 79, 36
1, 81916, Note_off_c, 0, 58, 52
1, 81916, Control_c, 0, 64, 91
1, 81931, Control_c, 0, 64, 94
1, 81933, Note_on_c, 0, 70, 53
1, 81946, Control_c, 0, 64, 98
1, 81961, Control_c, 0, 64, 102
1, 81974, Note_off_c, 0, 70, 63
1, 81975, Control_c, 0, 64, 107
1, 81987, Note_on_c, 0, 74, 52
1, 81990, Control_c, 0, 64, 110
1, 82005, Control_c, 0, 64, 114
1, 82019, Control_c, 0, 64, 118
1, 82031, Note_off_c, 0, 74, 56
1, 82034, Control_c, 0, 64, 123
1, 82038, Note_on_c, 0, 79, 33
1, 82049, Control_c, 0, 64, 127
1, 82070, Note_off_c, 0, 79, 43
1, 82121, Note_on_c, 0, 74, 38
1, 82149, Note_off_c, 0, 74, 52
1, 82171, Note_on_c, 0, 82, 56
1, 82204, Note_off_c, 0, 82, 61
1, 82294, Note_on_c, 0, 82, 66
1, 82296, Note_on_c, 0, 79, 39
1, 82321, Note_on_c, 0, 86, 42
1, 82323, Note_off_c, 0, 79, 57
1, 82326, Note_off_c, 0, 82, 65
1, 82348, Note_off_c, 0, 86, 51
1, 82425, Note_on_c, 0, 82, 56
1, 82448, Note_off_c, 0, 82, 60
1, 82475, Note_on_c, 0, 86, 48
1, 82483, Note_on_c, 0, 91, 58
1, 82505, Note_off_c, 0, 86, 56
1, 82507, Note_off_c, 0, 91, 53
1, 82592, Note_on_c, 0, 86, 68
1, 82619, Note_off_c, 0, 86, 65
1, 82663, Note_on_c, 0, 94, 58
1, 82668, Note_on_c, 0, 91, 49
1, 82690, Note_off_c, 0, 91, 54
1, 82695, Note_off_c, 0, 94, 64
1, 82765, Note_on_c, 0, 91, 54
1, 82785, Note_off_c, 0, 91, 53
1, 82797, Note_on_c, 0, 94, 60
1, 82815, Note_on_c, 0, 98, 48
1, 82833, Note_off_c, 0, 94, 65
1, 82842, Note_off_c, 0, 98, 64
1, 82904, Note_on_c, 0, 94, 57
1, 82934, Note_off_c, 0, 94, 63
1, 82976, Note_on_c, 0, 103, 52
1, 83003, Note_off_c, 0, 103, 58
1, 83053, Note_on_c, 0, 91, 65
1, 83086, Note_off_c, 0, 91, 58
1, 83142, Note_on_c, 0, 94, 50
1, 83144, Note_on_c, 0, 98, 47
1, 83172, Note_off_c, 0, 94, 56
1, 83186, Note_off_c, 0, 98, 61
1, 83207, Note_on_c, 0, 94, 50
1, 83246, Note_off_c, 0, 94, 62
1, 83298, Note_on_c, 0, 98, 64
1, 83307, Note_on_c, 0, 103, 55
1, 83347, Note_off_c, 0, 98, 52
1, 83353, Note_off_c, 0, 103, 59
1, 83375, Note_on_c, 0, 91, 64
1, 83405, Note_off_c, 0, 91, 60
1, 83452, Note_on_c, 0, 94, 56
1, 83461, Note_on_c, 0, 98, 54
1, 83489, Note_off_c, 0, 98, 57
1, 83490, Note_off_c, 0, 94, 62
1, 83548, Poly_aftertouch_c, 0, 94, 127
1, 83560, Poly_aftertouch_c, 0, 94, 0
1, 83593, Note_on_c, 0, 98, 54
1, 83605, Note_on_c, 0, 103, 55
1, 83636, Note_off_c, 0, 98, 59
1, 83647, Note_off_c, 0, 103, 63
1, 83683, Note_on_c, 0, 91, 61
1, 83712, Note_off_c, 0, 91, 60
1, 83753, Note_on_c, 0, 94, 55
1, 83754, Note_on_c, 0, 98, 51
1, 83780, Note_off_c, 0, 94, 63
1, 83788, Note_off_c, 0, 98, 57
1, 83846, Note_on_c, 0, 94, 62
1, 83873, Note_off_c, 0, 94, 66
1, 83902, Note_on_c, 0, 98, 55
1, 83925, Note_on_c, 0, 103, 43
1, 83957, Note_off_c, 0, 98, 52
1, 83965, Note_off_c, 0, 103, 57
1, 84031, Note_on_c, 0, 91, 54
1, 84069, Note_off_c, 0, 91, 55
1, 84113, Note_on_c, 0, 94, 46
1, 84121, Note_on_c, 0, 98, 45
1, 84150, Note_off_c, 0, 94, 57
1, 84165, Note_off_c, 0, 98, 62
1, 84252, Note_on_c, 0, 94, 49
1, 84301, Note_off_c, 0, 94, 55
1, 84366, Note_on_c, 0, 98, 42
1, 84382, Note_on_c, 0, 103, 29
1, 84400, Note_off_c, 0, 98, 59
1, 84417, Note_off_c, 0, 103, 50
1, 84535, Note_on_c, 0, 91, 43
1, 84562, Note_off_c, 0, 91, 53
1, 84714, Note_on_c, 0, 98, 38
1, 84767, Note_on_c, 0, 94, 33
1, 84880, Note_off_c, 0, 94, 31
1, 84896, Note_on_c, 0, 87, 40
1, 84896, Note_off_c, 0, 98, 30
1, 84917, Note_on_c, 0, 96, 20
1, 84945, Note_on_c, 0, 103, 30
1, 85001, Note_off_c, 0, 96, 31
1, 85006, Note_off_c, 0, 103, 39
1, 85021, Note_off_c, 0, 87, 37
1, 85028, Note_on_c, 0, 94, 43
1, 85035, Note_on_c, 0, 98, 33
1, 85045, Note_on_c, 0, 91, 37
1, 85086, Note_off_c, 0, 94, 50
1, 85089, Note_off_c, 0, 91, 41
1, 85135, Note_off_c, 0, 98, 39
1, 85137, Note_on_c, 0, 87, 48
1, 85140, Note_on_c, 0, 96, 35
1, 85166, Note_on_c, 0, 103, 37
1, 85182, Note_off_c, 0, 96, 44
1, 85188, Note_off_c, 0, 87, 54
1, 85215, Note_off_c, 0, 103, 53
1, 85230, Note_on_c, 0, 94, 47
1, 85241, Note_on_c, 0, 98, 49
1, 85276, Note_off_c, 0, 94, 58
1, 85303, Note_off_c, 0, 98, 61
1, 85326, Note_on_c, 0, 96, 52
1, 85330, Note_on_c, 0, 87, 49
1, 85331, Note_on_c, 0, 103, 59
1, 85372, Note_off_c, 0, 87, 59
1, 85374, Note_off_c, 0, 96, 42
1, 85408, Note_off_c, 0, 103, 61
1, 85412, Note_on_c, 0, 94, 61
1, 85421, Note_on_c, 0, 98, 60
1, 85459, Note_on_c, 0, 91, 18
1, 85471, Note_off_c, 0, 94, 59
1, 85485, Note_off_c, 0, 98, 63
1, 85504, Note_off_c, 0, 91, 29
1, 85505, Note_on_c, 0, 96, 45
1, 85522, Note_on_c, 0, 87, 53
1, 85525, Note_on_c, 0, 103, 63
1, 85564, Note_off_c, 0, 87, 58
1, 85568, Note_off_c, 0, 96, 56
1, 85593, Note_off_c, 0, 103, 61
1, 85599, Note_on_c, 0, 94, 62
1, 85610, Note_on_c, 0, 98, 53
1, 85617, Note_on_c, 0, 91, 36
1, 85659, Note_off_c, 0, 94, 64
1, 85660, Note_off_c, 0, 91, 43
1, 85671, Note_off_c, 0, 98, 65
1, 85689, Note_on_c, 0, 96, 42
1, 85702, Note_on_c, 0, 103, 58
1, 85703, Note_on_c, 0, 87, 49
1, 85747, Note_off_c, 0, 87, 59
1, 85751, Note_off_c, 0, 96, 60
1, 85773, Note_off_c, 0, 103, 62
1, 85787, Note_on_c, 0, 94, 49
1, 85787, Note_on_c, 0, 98, 49
1, 85842, Note_off_c, 0, 94, 58
1, 85860, Note_off_c, 0, 98, 65
1, 85879, Poly_aftertouch_c, 0, 91, 0
1, 85888, Note_on_c, 0, 96, 34
1, 85900, Note_on_c, 0, 103, 58
1, 85905, Note_on_c, 0, 87, 48
1, 85968, Note_off_c, 0, 103, 60
1, 85973, Note_off_c, 0, 96, 40
1, 85976, Note_on_c, 0, 94, 51
1, 85983, Note_off_c, 0, 87, 50
1, 85992, Note_on_c, 0, 98, 39
1, 86026, Note_on_c, 0, 91, 13
1, 86082, Note_off_c, 0, 94, 53
1, 86095, Note_off_c, 0, 98, 56
1, 86109, Note_off_c, 0, 91, 33
1, 86114, Note_on_c, 0, 96, 27
1, 86124, Note_on_c, 0, 103, 44
1, 86132, Note_on_c, 0, 87, 46
1, 86167, Note_off_c, 0, 96, 50
1, 86179, Note_off_c, 0, 103, 59
1, 86183, Note_off_c, 0, 87, 57
1, 86209, Note_on_c, 0, 94, 50
1, 86215, Note_on_c, 0, 98, 45
1, 86246, Note_off_c, 0, 94, 64
1, 86254, Note_on_c, 0, 91, 22
1, 86264, Note_off_c, 0, 98, 65
1, 86284, Note_on_c, 0, 96, 51
1, 86299, Note_off_c, 0, 91, 42
1, 86312, Note_on_c, 0, 103, 51
1, 86319, Note_on_c, 0, 87, 51
1, 86334, Note_off_c, 0, 96, 53
1, 86347, Note_off_c, 0, 103, 64
1, 86358, Note_off_c, 0, 87, 62
1, 86363, Note_on_c, 0, 94, 55
1, 86367, Note_on_c, 0, 98, 58
1, 86398, Note_off_c, 0, 94, 64
1, 86402, Note_on_c, 0, 91, 44
1, 86415, Note_off_c, 0, 98, 64
1, 86433, Note_on_c, 0, 96, 51
1, 86434, Note_off_c, 0, 91, 51
1, 86449, Note_on_c, 0, 103, 58
1, 86465, Note_on_c, 0, 87, 51
1, 86474, Note_off_c, 0, 96, 42
1, 86493, Note_off_c, 0, 103, 63
1, 86499, Note_off_c, 0, 87, 63
1, 86501, Note_on_c, 0, 94, 63
1, 86505, Note_on_c, 0, 98, 52
1, 86538, Note_on_c, 0, 91, 49
1, 86542, Note_off_c, 0, 94, 60
1, 86553, Note_off_c, 0, 98, 62
1, 86563, Note_off_c, 0, 91, 54
1, 86567, Note_on_c, 0, 96, 55
1, 86580, Note_on_c, 0, 103, 62
1, 86598, Note_on_c, 0, 87, 56
1, 86619, Note_off_c, 0, 96, 55
1, 86632, Note_off_c, 0, 103, 63
1, 86634, Note_off_c, 0, 87, 62
1, 86649, Note_on_c, 0, 94, 55
1, 86651, Note_on_c, 0, 98, 51
1, 86667, Note_on_c, 0, 91, 47
1, 86682, Note_off_c, 0, 94, 65
1, 86689, Note_off_c, 0, 98, 65
1, 86702, Note_off_c, 0, 91, 49
1, 86706, Note_on_c, 0, 96, 52
1, 86721, Note_on_c, 0, 103, 64
1, 86741, Note_on_c, 0, 87, 56
1, 86762, Note_off_c, 0, 96, 59
1, 86777, Note_off_c, 0, 87, 61
1, 86778, Note_off_c, 0, 103, 63
1, 86786, Note_on_c, 0, 94, 58
1, 86797, Note_on_c, 0, 98, 55
1, 86824, Note_on_c, 0, 91, 32
1, 86831, Note_off_c, 0, 94, 61
1, 86842, Note_off_c, 0, 98, 63
1, 86860, Note_off_c, 0, 91, 45
1, 86863, Note_on_c, 0, 96, 51
1, 86869, Note_on_c, 0, 103, 54
1, 86893, Note_on_c, 0, 87, 50
1, 86922, Note_off_c, 0, 96, 48
1, 86928, Note_off_c, 0, 103, 63
1, 86932, Note_off_c, 0, 87, 62
1, 86950, Note_on_c, 0, 94, 53
1, 86953, Note_on_c, 0, 98, 48
1, 86994, Note_off_c, 0, 94, 59
1, 87012, Note_off_c, 0, 98, 62
1, 87044, Note_on_c, 0, 96, 47
1, 87051, Note_on_c, 0, 103, 51
1, 87066, Note_on_c, 0, 87, 44
1, 87325, Note_off_c, 0, 96, 35
1, 87345, Note_off_c, 0, 103, 47
1, 87349, Note_off_c, 0, 87, 51
1, 87383, Note_on_c, 0, 94, 41
1, 87383, Note_on_c, 0, 98, 34
1, 87406, Note_on_c, 0, 91, 25
1, 87415, Note_off_c, 0, 98, 58
1, 87415, Note_off_c, 0, 94, 53
1, 87440, Note_off_c, 0, 91, 40
1, 87451, Note_on_c, 0, 96, 45
1, 87465, Note_on_c, 0, 87, 47
1, 87474, Note_on_c, 0, 103, 34
1, 87501, Note_off_c, 0, 87, 49
1, 87505, Note_off_c, 0, 96, 47
1, 87505, Note_off_c, 0, 103, 50
1, 87513, Note_on_c, 0, 98, 49
1, 87516, Note_on_c, 0, 94, 45
1, 87539, Note_on_c, 0, 91, 45
1, 87563, Note_off_c, 0, 91, 54
1, 87564, Note_off_c, 0, 94, 64
1, 87575, Note_off_c, 0, 98, 64
1, 88626, Control_c, 0, 64, 125
1, 88641, Control_c, 0, 64, 119
1, 88655, Control_c, 0, 64, 115
1, 88670, Control_c, 0, 64, 112
1, 88685, Control_c, 0, 64, 109
1, 88700, Control_c, 0, 64, 106
1, 88714, Control_c, 0, 64, 102
1, 88729, Control_c, 0, 64, 97
1, 88744, Control_c, 0, 64, 93
1, 88759, Control_c, 0, 64, 88
1, 88774, Control_c, 0, 64, 84
1, 88789, Control_c, 0, 64, 81
1, 88804, Control_c, 0, 64, 78
1, 88819, Control_c, 0, 64, 75
1, 88834, Control_c, 0, 64, 71
1, 88849, Control_c, 0, 64, 68
1, 88864, Control_c, 0, 64, 64
1, 88879, Control_c, 0, 64, 62
1, 88893, Control_c, 0, 64, 61
1, 88953, Control_c, 0, 64, 61
1, 88982, Control_c, 0, 64, 60
1, 88997, Control_c, 0, 64, 58
1, 89012, Control_c, 0, 64, 55
1, 89027, Control_c, 0, 64, 52
1, 89042, Control_c, 0, 64, 49
1, 89057, Control_c, 0, 64, 48
1, 89072, Control_c, 0, 64, 48
1, 89086, Control_c, 0, 64, 46
1, 89101, Control_c, 0, 64, 46
1, 89116, Control_c, 0, 64, 44
1, 89130, Control_c, 0, 64, 43
1, 89145, Control_c, 0, 64, 39
1, 89160, Control_c, 0, 64, 31
1, 89175, Control_c, 0, 64, 16
1, 89190, Control_c, 0, 64, 0
1, 89833, Control_c, 0, 64, 42
1, 89848, Control_c, 0, 64, 62
1, 89863, Control_c, 0, 64, 68
1, 89864, Note_on_c, 0, 51, 39
1, 89878, Control_c, 0, 64, 74
1, 89893, Control_c, 0, 64, 81
1, 89907, Control_c, 0, 64, 88
1, 89922, Control_c, 0, 64, 93
1, 89930, Note_on_c, 0, 58, 55
1, 89937, Control_c, 0, 64, 98
1, 89951, Control_c, 0, 64, 106
1, 89966, Control_c, 0, 64, 119
1, 89975, Note_on_c, 0, 63, 57
1, 89981, Control_c, 0, 64, 127
1, 89987, Note_off_c, 0, 51, 62
1, 90032, Note_off_c, 0, 63, 59
1, 90037, Note_off_c, 0, 58, 64
1, 90041, Note_on_c, 0, 67, 66
1, 90090, Note_on_c, 0, 70, 77
1, 90136, Note_off_c, 0, 67, 49
1, 90139, Note_on_c, 0, 75, 82
1, 90198, Note_on_c, 0, 79, 92
1, 90211, Note_off_c, 0, 70, 62
1, 90242, Note_off_c, 0, 75, 68
1, 90252, Note_off_c, 0, 79, 68
1, 90805, Note_on_c, 0, 77, 65
1, 90830, Note_off_c, 0, 77, 63
1, 90843, Note_on_c, 0, 79, 81
1, 90872, Control_c, 0, 64, 123
1, 90878, Note_on_c, 0, 77, 85
1, 90887, Note_off_c, 0, 79, 62
1, 90887, Control_c, 0, 64, 99
1, 90900, Note_off_c, 0, 77, 66
1, 90902, Control_c, 0, 64, 79
1, 90916, Control_c, 0, 64, 0
1, 91006, Note_on_c, 0, 75, 67
1, 91027, Note_off_c, 0, 75, 68
1, 91114, Note_on_c, 0, 74, 76
1, 91212, Note_on_c, 0, 75, 87
1, 91222, Note_off_c, 0, 74, 65
1, 91254, Note_off_c, 0, 75, 65
1, 91308, Note_on_c, 0, 72, 91
1, 91345, Note_off_c, 0, 72, 66
1, 91403, Note_on_c, 0, 74, 89
1, 91444, Note_off_c, 0, 74, 66
1, 91516, Note_on_c, 0, 70, 87
1, 91560, Note_off_c, 0, 70, 55
1, 91737, Note_on_c, 0, 65, 80
1, 91737, Note_on_c, 0, 72, 86
1, 91743, Note_on_c, 0, 56, 66
1, 91749, Note_on_c, 0, 63, 62
1, 91754, Control_c, 0, 64, 42
1, 91769, Control_c, 0, 64, 76
1, 91784, Control_c, 0, 64, 88
1, 91789, Note_off_c, 0, 65, 65
1, 91794, Note_off_c, 0, 63, 58
1, 91795, Note_off_c, 0, 72, 64
1, 91799, Note_on_c, 0, 74, 6
1, 91799, Control_c, 0, 64, 97
1, 91813, Control_c, 0, 64, 100
1, 91814, Note_off_c, 0, 56, 59
1, 91828, Control_c, 0, 64, 102
1, 91843, Control_c, 0, 64, 103
1, 91845, Note_off_c, 0, 74, 38
1, 91858, Control_c, 0, 64, 104
1, 91873, Control_c, 0, 64, 106
1, 91887, Control_c, 0, 64, 107
1, 91899, Note_on_c, 0, 51, 55
1, 91902, Control_c, 0, 64, 108
1, 91957, Note_on_c, 0, 58, 65
1, 91961, Control_c, 0, 64, 105
1, 91976, Control_c, 0, 64, 97
1, 91980, Note_on_c, 0, 67, 76
1, 91991, Control_c, 0, 64, 82
1, 91996, Note_on_c, 0, 63, 73
1, 92005, Control_c, 0, 64, 40
1, 92017, Note_on_c, 0, 70, 85
1, 92020, Control_c, 0, 64, 0
1, 92056, Note_on_c, 0, 75, 84
1, 92063, Note_off_c, 0, 67, 58
1, 92076, Note_off_c, 0, 51, 61
1, 92081, Control_c, 0, 64, 60
1, 92095, Control_c, 0, 64, 77
1, 92099, Note_on_c, 0, 79, 98
1, 92100, Note_off_c, 0, 58, 64
1, 92102, Note_off_c, 0, 63, 64
1, 92109, Note_off_c, 0, 70, 64
1, 92110, Control_c, 0, 64, 100
1, 92125, Control_c, 0, 64, 127
1, 92135, Note_off_c, 0, 75, 68
1, 92140, Control_c, 0, 64, 127
1, 92145, Note_off_c, 0, 79, 68
1, 92707, Note_on_c, 0, 77, 72
1, 92743, Note_off_c, 0, 77, 59
1, 92754, Control_c, 0, 64, 122
1, 92766, Note_on_c, 0, 79, 76
1, 92769, Control_c, 0, 64, 103
1, 92784, Control_c, 0, 64, 80
1, 92799, Control_c, 0, 64, 0
1, 92801, Note_on_c, 0, 77, 69
1, 92805, Note_off_c, 0, 79, 62
1, 92825, Note_off_c, 0, 77, 69
1, 92928, Note_on_c, 0, 75, 63
1, 92947, Note_off_c, 0, 75, 66
1, 93030, Note_on_c, 0, 74, 79
1, 93136, Note_on_c, 0, 75, 84
1, 93144, Note_off_c, 0, 74, 65
1, 93171, Note_off_c, 0, 75, 65
1, 93236, Note_on_c, 0, 72, 89
1, 93272, Note_off_c, 0, 72, 68
1, 93329, Note_on_c, 0, 74, 85
1, 93364, Note_off_c, 0, 74, 68
1, 93431, Note_on_c, 0, 70, 74
1, 93454, Note_off_c, 0, 70, 70
1, 93635, Note_on_c, 0, 72, 77
1, 93636, Note_on_c, 0, 56, 59
1, 93636, Note_on_c, 0, 65, 63
1, 93639, Control_c, 0, 64, 65
1, 93642, Note_on_c, 0, 63, 53
1, 93654, Control_c, 0, 64, 80
1, 93667, Note_off_c, 0, 65, 69
1, 93668, Control_c, 0, 64, 92
1, 93671, Note_off_c, 0, 72, 62
1, 93676, Note_off_c, 0, 56, 58
1, 93678, Note_off_c, 0, 63, 60
1, 93683, Control_c, 0, 64, 97
1, 93698, Control_c, 0, 64, 98
1, 93713, Control_c, 0, 64, 99
1, 93727, Control_c, 0, 64, 100
1, 93742, Control_c, 0, 64, 102
1, 93764, Control_c, 0, 64, 104
1, 93779, Control_c, 0, 64, 106
1, 93794, Control_c, 0, 64, 107
1, 93809, Control_c, 0, 64, 106
1, 93823, Control_c, 0, 64, 104
1, 93838, Control_c, 0, 64, 92
1, 93853, Note_on_c, 0, 51, 61
1, 93853, Control_c, 0, 64, 76
1, 93854, Note_on_c, 0, 70, 90
1, 93855, Note_on_c, 0, 58, 64
1, 93856, Note_on_c, 0, 63, 60
1, 93856, Note_on_c, 0, 67, 83
1, 93856, Note_on_c, 0, 79, 89
1, 93868, Control_c, 0, 64, 59
1, 93883, Control_c, 0, 64, 48
1, 93898, Control_c, 0, 64, 64
1, 93913, Control_c, 0, 64, 74
1, 93927, Control_c, 0, 64, 89
1, 93937, Note_off_c, 0, 58, 55
1, 93937, Note_off_c, 0, 51, 53
1, 93942, Control_c, 0, 64, 102
1, 93945, Note_off_c, 0, 67, 59
1, 93949, Note_off_c, 0, 63, 50
1, 93957, Control_c, 0, 64, 110
1, 93960, Note_off_c, 0, 79, 57
1, 93964, Note_off_c, 0, 70, 60
1, 93972, Control_c, 0, 64, 111
1, 93987, Control_c, 0, 64, 110
1, 94001, Control_c, 0, 64, 101
1, 94016, Control_c, 0, 64, 87
1, 94031, Control_c, 0, 64, 70
1, 94046, Control_c, 0, 64, 64
1, 94061, Control_c, 0, 64, 67
1, 94064, Note_on_c, 0, 79, 85
1, 94065, Note_on_c, 0, 51, 67
1, 94065, Note_on_c, 0, 67, 84
1, 94065, Note_on_c, 0, 70, 87
1, 94070, Note_on_c, 0, 63, 69
1, 94075, Control_c, 0, 64, 75
1, 94076, Note_on_c, 0, 58, 62
1, 94090, Control_c, 0, 64, 86
1, 94105, Control_c, 0, 64, 97
1, 94108, Note_off_c, 0, 51, 58
1, 94110, Note_off_c, 0, 58, 63
1, 94110, Note_off_c, 0, 67, 59
1, 94119, Control_c, 0, 64, 107
1, 94121, Note_off_c, 0, 63, 63
1, 94125, Note_off_c, 0, 79, 62
1, 94130, Note_off_c, 0, 70, 52
1, 94134, Control_c, 0, 64, 109
1, 94163, Control_c, 0, 64, 110
1, 94193, Control_c, 0, 64, 110
1, 94223, Control_c, 0, 64, 110
1, 94238, Control_c, 0, 64, 102
1, 94253, Control_c, 0, 64, 86
1, 94268, Control_c, 0, 64, 64
1, 94268, Note_on_c, 0, 68, 88
1, 94269, Note_on_c, 0, 70, 86
1, 94271, Note_on_c, 0, 80, 87
1, 94274, Note_on_c, 0, 53, 67
1, 94280, Note_on_c, 0, 65, 66
1, 94282, Control_c, 0, 64, 0
1, 94283, Note_on_c, 0, 58, 72
1, 94310, Note_off_c, 0, 53, 65
1, 94311, Note_off_c, 0, 65, 68
1, 94312, Control_c, 0, 64, 54
1, 94326, Control_c, 0, 64, 74
1, 94339, Note_off_c, 0, 58, 62
1, 94341, Control_c, 0, 64, 89
1, 94356, Control_c, 0, 64, 104
1, 94365, Note_off_c, 0, 80, 59
1, 94370, Note_off_c, 0, 70, 59
1, 94371, Note_off_c, 0, 68, 62
1, 94371, Control_c, 0, 64, 109
1, 94386, Control_c, 0, 64, 110
1, 94416, Control_c, 0, 64, 109
1, 94431, Control_c, 0, 64, 104
1, 94446, Control_c, 0, 64, 92
1, 94461, Control_c, 0, 64, 77
1, 94476, Control_c, 0, 64, 64
1, 94481, Note_on_c, 0, 67, 87
1, 94481, Note_on_c, 0, 79, 88
1, 94482, Note_on_c, 0, 70, 79
1, 94485, Note_on_c, 0, 51, 65
1, 94491, Control_c, 0, 64, 62
1, 94503, Note_on_c, 0, 58, 56
1, 94510, Note_on_c, 0, 63, 54
1, 94512, Control_c, 0, 64, 68
1, 94527, Control_c, 0, 64, 76
1, 94537, Note_off_c, 0, 58, 64
1, 94537, Note_off_c, 0, 63, 63
1, 94542, Control_c, 0, 64, 86
1, 94551, Note_off_c, 0, 79, 61
1, 94557, Control_c, 0, 64, 94
1, 94571, Note_off_c, 0, 67, 60
1, 94572, Control_c, 0, 64, 98
1, 94586, Note_off_c, 0, 51, 37
1, 94587, Control_c, 0, 64, 99
1, 94605, Note_off_c, 0, 70, 28
1, 94646, Control_c, 0, 64, 98
1, 94661, Control_c, 0, 64, 93
1, 94676, Control_c, 0, 64, 79
1, 94691, Control_c, 0, 64, 0
1, 94693, Note_on_c, 0, 70, 81
1, 94694, Note_on_c, 0, 50, 66
1, 94694, Note_on_c, 0, 65, 87
1, 94694, Note_on_c, 0, 77, 87
1, 94701, Note_on_c, 0, 62, 63
1, 94703, Note_on_c, 0, 58, 65
1, 94744, Note_off_c, 0, 62, 62
1, 94747, Note_off_c, 0, 50, 62
1, 94749, Control_c, 0, 64, 66
1, 94764, Control_c, 0, 64, 78
1, 94768, Note_off_c, 0, 65, 61
1, 94778, Note_off_c, 0, 58, 61
1, 94779, Control_c, 0, 64, 91
1, 94787, Note_off_c, 0, 77, 62
1, 94794, Control_c, 0, 64, 96
1, 94809, Control_c, 0, 64, 95
1, 94823, Control_c, 0, 64, 87
1, 94838, Control_c, 0, 64, 71
1, 94850, Note_off_c, 0, 70, 52
1, 94853, Control_c, 0, 64, 0
1, 94883, Control_c, 0, 64, 57
1, 94892, Note_on_c, 0, 67, 88
1, 94893, Note_on_c, 0, 79, 74
1, 94894, Note_on_c, 0, 51, 61
1, 94897, Note_on_c, 0, 63, 68
1, 94897, Control_c, 0, 64, 74
1, 94904, Note_on_c, 0, 58, 57
1, 94911, Note_off_c, 0, 79, 66
1, 94912, Control_c, 0, 64, 89
1, 94922, Note_off_c, 0, 51, 65
1, 94923, Note_off_c, 0, 63, 66
1, 94927, Control_c, 0, 64, 103
1, 94930, Note_off_c, 0, 58, 64
1, 94931, Note_off_c, 0, 67, 61
1, 94941, Control_c, 0, 64, 109
1, 94956, Control_c, 0, 64, 110
1, 95061, Control_c, 0, 64, 107
1, 95075, Control_c, 0, 64, 93
1, 95090, Control_c, 0, 64, 75
1, 95095, Note_on_c, 0, 63, 87
1, 95097, Note_on_c, 0, 75, 82
1, 95104, Note_on_c, 0, 48, 59
1, 95105, Control_c, 0, 64, 0
1, 95108, Note_on_c, 0, 60, 59
1, 95109, Note_on_c, 0, 58, 60
1, 95111, Note_on_c, 0, 70, 76
1, 95141, Note_off_c, 0, 48, 55
1, 95142, Note_off_c, 0, 58, 61
1, 95149, Note_off_c, 0, 60, 60
1, 95149, Control_c, 0, 64, 66
1, 95153, Note_off_c, 0, 63, 64
1, 95164, Control_c, 0, 64, 81
1, 95168, Note_off_c, 0, 75, 64
1, 95179, Control_c, 0, 64, 94
1, 95192, Note_off_c, 0, 70, 43
1, 95194, Control_c, 0, 64, 103
1, 95209, Control_c, 0, 64, 106
1, 95225, Control_c, 0, 64, 107
1, 95261, Control_c, 0, 64, 105
1, 95276, Control_c, 0, 64, 94
1, 95291, Control_c, 0, 64, 80
1, 95306, Control_c, 0, 64, 68
1, 95314, Note_on_c, 0, 77, 93
1, 95314, Poly_aftertouch_c, 0, 75, 0
1, 95317, Note_on_c, 0, 65, 92
1, 95317, Note_on_c, 0, 50, 68
1, 95320, Note_on_c, 0, 70, 79
1, 95321, Note_on_c, 0, 62, 69
1, 95321, Control_c, 0, 64, 66
1, 95326, Note_on_c, 0, 58, 70
1, 95335, Control_c, 0, 64, 74
1, 95349, Note_off_c, 0, 62, 64
1, 95350, Control_c, 0, 64, 86
1, 95352, Note_off_c, 0, 70, 60
1, 95355, Note_off_c, 0, 50, 63
1, 95359, Note_off_c, 0, 65, 63
1, 95361, Note_off_c, 0, 58, 63
1, 95365, Control_c, 0, 64, 106
1, 95380, Control_c, 0, 64, 127
1, 95386, Note_off_c, 0, 77, 55
1, 95514, Control_c, 0, 64, 126
1, 95528, Control_c, 0, 64, 97
1, 95534, Note_on_c, 0, 51, 62
1, 95535, Note_on_c, 0, 67, 90
1, 95535, Note_on_c, 0, 79, 86
1, 95536, Note_on_c, 0, 70, 89
1, 95537, Note_on_c, 0, 58, 68
1, 95542, Note_on_c, 0, 63, 69
1, 95543, Control_c, 0, 64, 69
1, 95558, Control_c, 0, 64, 0
1, 95567, Note_off_c, 0, 67, 65
1, 95568, Note_off_c, 0, 58, 67
1, 95570, Note_off_c, 0, 51, 65
1, 95576, Note_off_c, 0, 70, 64
1, 95581, Note_off_c, 0, 63, 65
1, 95585, Note_off_c, 0, 79, 65
1, 95828, Note_on_c, 0, 82, 93
1, 95830, Note_on_c, 0, 70, 96
1, 95830, Note_on_c, 0, 63, 72
1, 95830, Note_on_c, 0, 75, 95
1, 95831, Note_on_c, 0, 55, 69
1, 95837, Note_on_c, 0, 67, 64
1, 95839, Control_c, 0, 64, 48
1, 95853, Control_c, 0, 64, 82
1, 95866, Note_off_c, 0, 67, 66
1, 95868, Control_c, 0, 64, 100
1, 95870, Note_off_c, 0, 63, 64
1, 95873, Note_off_c, 0, 55, 62
1, 95878, Note_off_c, 0, 70, 65
1, 95883, Control_c, 0, 64, 117
1, 95886, Note_off_c, 0, 75, 68
1, 95897, Note_off_c, 0, 82, 68
1, 95898, Control_c, 0, 64, 120
1, 95913, Control_c, 0, 64, 122
1, 95928, Control_c, 0, 64, 125
1, 95943, Control_c, 0, 64, 127
1, 96292, Control_c, 0, 64, 118
1, 96302, Note_on_c, 0, 84, 94
1, 96307, Control_c, 0, 64, 100
1, 96309, Note_on_c, 0, 72, 85
1, 96310, Note_on_c, 0, 75, 88
1, 96315, Note_on_c, 0, 56, 60
1, 96321, Note_on_c, 0, 63, 60
1, 96321, Control_c, 0, 64, 76
1, 96321, Note_on_c, 0, 68, 55
1, 96336, Control_c, 0, 64, 0
1, 96381, Control_c, 0, 64, 60
1, 96394, Note_off_c, 0, 68, 64
1, 96395, Control_c, 0, 64, 74
1, 96398, Note_off_c, 0, 63, 64
1, 96399, Note_off_c, 0, 72, 64
1, 96401, Note_off_c, 0, 56, 60
1, 96402, Note_off_c, 0, 84, 66
1, 96410, Control_c, 0, 64, 86
1, 96425, Control_c, 0, 64, 101
1, 96437, Note_off_c, 0, 75, 64
1, 96440, Control_c, 0, 64, 108
1, 96455, Control_c, 0, 64, 109
1, 96499, Control_c, 0, 64, 109
1, 96514, Control_c, 0, 64, 110
1, 96528, Control_c, 0, 64, 111
1, 96543, Control_c, 0, 64, 111
1, 96662, Control_c, 0, 64, 107
1, 96676, Control_c, 0, 64, 96
1, 96691, Control_c, 0, 64, 76
1, 96698, Note_on_c, 0, 82, 83
1, 96705, Note_on_c, 0, 70, 77
1, 96706, Control_c, 0, 64, 0
1, 96711, Note_on_c, 0, 63, 58
1, 96712, Note_on_c, 0, 75, 74
1, 96714, Note_on_c, 0, 55, 52
1, 96722, Note_on_c, 0, 67, 33
1, 96739, Note_off_c, 0, 63, 66
1, 96756, Note_off_c, 0, 82, 65
1, 96757, Note_off_c, 0, 55, 65
1, 96757, Note_off_c, 0, 75, 64
1, 96758, Control_c, 0, 64, 18
1, 96760, Note_off_c, 0, 67, 46
1, 96762, Note_off_c, 0, 70, 62
1, 96773, Control_c, 0, 64, 68
1, 96788, Control_c, 0, 64, 79
1, 96802, Control_c, 0, 64, 91
1, 96818, Control_c, 0, 64, 97
1, 96833, Control_c, 0, 64, 98
1, 96878, Control_c, 0, 64, 99
1, 96937, Control_c, 0, 64, 96
1, 96951, Control_c, 0, 64, 85
1, 96966, Control_c, 0, 64, 65
1, 96976, Note_on_c, 0, 77, 83
1, 96977, Note_on_c, 0, 65, 78
1, 96979, Note_on_c, 0, 50, 64
1, 96979, Note_on_c, 0, 58, 62
1, 96980, Note_on_c, 0, 70, 72
1, 96981, Control_c, 0, 64, 0
1, 96985, Note_on_c, 0, 62, 59
1, 97020, Note_off_c, 0, 62, 63
1, 97034, Note_off_c, 0, 50, 62
1, 97040, Note_off_c, 0, 58, 64
1, 97040, Control_c, 0, 64, 65
1, 97043, Note_off_c, 0, 65, 65
1, 97055, Control_c, 0, 64, 74
1, 97070, Note_off_c, 0, 70, 63
1, 97070, Control_c, 0, 64, 85
1, 97073, Note_off_c, 0, 77, 64
1, 97085, Control_c, 0, 64, 92
1, 97099, Control_c, 0, 64, 94
1, 97114, Control_c, 0, 64, 95
1, 97129, Control_c, 0, 64, 95
1, 97144, Control_c, 0, 64, 96
1, 97159, Control_c, 0, 64, 96
1, 97174, Control_c, 0, 64, 97
1, 97189, Control_c, 0, 64, 97
1, 97265, Note_on_c, 0, 69, 65
1, 97278, Control_c, 0, 64, 98
1, 97304, Note_on_c, 0, 70, 74
1, 97314, Note_off_c, 0, 69, 64
1, 97347, Note_on_c, 0, 74, 74
1, 97365, Note_on_c, 0, 77, 81
1, 97376, Note_off_c, 0, 70, 64
1, 97382, Control_c, 0, 64, 95
1, 97394, Note_off_c, 0, 77, 60
1, 97397, Note_off_c, 0, 74, 67
1, 97397, Control_c, 0, 64, 84
1, 97412, Control_c, 0, 64, 63
1, 97426, Control_c, 0, 64, 0
1, 97447, Note_on_c, 0, 70, 72
1, 97451, Note_on_c, 0, 67, 68
1, 97456, Note_on_c, 0, 79, 76
1, 97457, Note_on_c, 0, 51, 61
1, 97460, Note_on_c, 0, 39, 49
1, 97462, Note_on_c, 0, 46, 62
1, 97478, Note_off_c, 0, 51, 58
1, 97485, Control_c, 0, 64, 64
1, 97487, Note_off_c, 0, 39, 57
1, 97502, Note_off_c, 0, 46, 62
1, 97508, Control_c, 0, 64, 72
1, 97512, Note_off_c, 0, 70, 53
1, 97518, Note_off_c, 0, 67, 55
1, 97523, Control_c, 0, 64, 80
1, 97538, Control_c, 0, 64, 84
1, 97567, Control_c, 0, 64, 82
1, 97572, Note_on_c, 0, 45, 64
1, 97582, Control_c, 0, 64, 73
1, 97597, Control_c, 0, 64, 0
1, 97603, Note_off_c, 0, 45, 66
1, 97674, Note_on_c, 0, 46, 71
1, 97703, Note_off_c, 0, 46, 64
1, 97775, Note_on_c, 0, 51, 74
1, 97801, Note_off_c, 0, 51, 64
1, 97869, Note_on_c, 0, 55, 64
1, 97895, Note_off_c, 0, 55, 66
1, 97950, Note_off_c, 0, 79, 62
1, 97961, Note_on_c, 0, 77, 79
1, 97977, Note_on_c, 0, 58, 61
1, 98000, Note_off_c, 0, 77, 61
1, 98013, Note_off_c, 0, 58, 62
1, 98027, Note_on_c, 0, 79, 69
1, 98050, Note_on_c, 0, 77, 77
1, 98051, Note_off_c, 0, 79, 67
1, 98062, Note_on_c, 0, 63, 81
1, 98091, Note_off_c, 0, 63, 67
1, 98104, Note_off_c, 0, 77, 63
1, 98173, Note_on_c, 0, 75, 74
1, 98176, Note_on_c, 0, 67, 84
1, 98202, Note_off_c, 0, 75, 66
1, 98214, Note_off_c, 0, 67, 64
1, 98295, Note_on_c, 0, 74, 93
1, 98299, Note_on_c, 0, 70, 79
1, 98320, Note_off_c, 0, 70, 71
1, 98330, Control_c, 0, 64, 73
1, 98345, Control_c, 0, 64, 89
1, 98347, Note_off_c, 0, 74, 66
1, 98360, Control_c, 0, 64, 107
1, 98374, Control_c, 0, 64, 127
1, 98410, Note_on_c, 0, 75, 57
1, 98432, Note_off_c, 0, 75, 43
1, 98489, Note_on_c, 0, 73, 82
1, 98498, Note_on_c, 0, 63, 67
1, 98501, Note_on_c, 0, 66, 79
1, 98507, Note_off_c, 0, 73, 70
1, 98524, Note_off_c, 0, 63, 67
1, 98533, Note_off_c, 0, 66, 63
1, 98537, Note_on_c, 0, 72, 40
1, 98563, Note_off_c, 0, 72, 57
1, 98568, Control_c, 0, 64, 96
1, 98583, Control_c, 0, 64, 67
1, 98597, Control_c, 0, 64, 0
1, 98606, Note_on_c, 0, 74, 82
1, 98644, Note_off_c, 0, 74, 67
1, 98703, Note_on_c, 0, 70, 85
1, 98705, Note_on_c, 0, 67, 81
1, 98721, Note_off_c, 0, 70, 70
1, 98726, Note_off_c, 0, 67, 70
1, 98898, Note_on_c, 0, 44, 60
1, 98898, Note_on_c, 0, 56, 59
1, 98901, Note_on_c, 0, 60, 63
1, 98902, Note_on_c, 0, 65, 66
1, 98906, Note_on_c, 0, 72, 72
1, 98918, Note_off_c, 0, 56, 60
1, 98919, Note_off_c, 0, 60, 61
1, 98919, Note_off_c, 0, 65, 65
1, 98929, Note_off_c, 0, 44, 64
1, 98930, Note_off_c, 0, 72, 71
1, 99121, Note_on_c, 0, 79, 79
1, 99123, Note_on_c, 0, 46, 57
1, 99125, Note_on_c, 0, 39, 43
1, 99126, Note_on_c, 0, 67, 71
1, 99126, Note_on_c, 0, 70, 66
1, 99127, Note_on_c, 0, 51, 60
1, 99138, Control_c, 0, 64, 66
1, 99153, Control_c, 0, 64, 83
1, 99153, Note_off_c, 0, 46, 63
1, 99155, Note_off_c, 0, 39, 50
1, 99156, Note_off_c, 0, 70, 65
1, 99157, Note_off_c, 0, 51, 64
1, 99164, Note_off_c, 0, 67, 57
1, 99168, Control_c, 0, 64, 97
1, 99183, Control_c, 0, 64, 105
1, 99197, Control_c, 0, 64, 108
1, 99212, Control_c, 0, 64, 112
1, 99228, Control_c, 0, 64, 116
1, 99236, Note_on_c, 0, 45, 65
1, 99243, Control_c, 0, 64, 122
1, 99258, Control_c, 0, 64, 127
1, 99264, Note_off_c, 0, 45, 66
1, 99317, Control_c, 0, 64, 120
1, 99332, Control_c, 0, 64, 101
1, 99332, Note_on_c, 0, 46, 78
1, 99346, Control_c, 0, 64, 80
1, 99359, Note_off_c, 0, 46, 66
1, 99361, Control_c, 0, 64, 0
1, 99434, Note_on_c, 0, 51, 77
1, 99472, Note_off_c, 0, 51, 56
1, 99520, Note_on_c, 0, 55, 75
1, 99547, Note_off_c, 0, 55, 68
1, 99612, Note_off_c, 0, 79, 63
1, 99618, Note_on_c, 0, 77, 79
1, 99644, Note_on_c, 0, 58, 58
1, 99656, Note_off_c, 0, 77, 61
1, 99675, Note_off_c, 0, 58, 65
1, 99698, Note_on_c, 0, 79, 49
1, 99702, Note_on_c, 0, 77, 73
1, 99720, Note_off_c, 0, 79, 56
1, 99723, Note_on_c, 0, 63, 86
1, 99762, Note_off_c, 0, 63, 64
1, 99763, Note_off_c, 0, 77, 63
1, 99846, Note_on_c, 0, 75, 86
1, 99847, Note_on_c, 0, 67, 82
1, 99878, Note_off_c, 0, 75, 63
1, 99879, Note_off_c, 0, 67, 62
1, 99944, Note_on_c, 0, 70, 81
1, 99958, Note_on_c, 0, 74, 93
1, 99961, Control_c, 0, 64, 61
1, 99964, Note_off_c, 0, 70, 71
1, 99976, Control_c, 0, 64, 75
1, 99991, Control_c, 0, 64, 89
1, 100006, Control_c, 0, 64, 102
1, 100018, Note_off_c, 0, 74, 65
1, 100021, Control_c, 0, 64, 112
1, 100036, Control_c, 0, 64, 123
1, 100051, Control_c, 0, 64, 127
1, 100134, Note_on_c, 0, 73, 84
1, 100156, Note_on_c, 0, 63, 78
1, 100177, Note_off_c, 0, 73, 61
1, 100179, Note_off_c, 0, 63, 68
1, 100183, Note_on_c, 0, 66, 29
1, 100215, Control_c, 0, 64, 120
1, 100219, Note_off_c, 0, 66, 47
1, 100229, Control_c, 0, 64, 89
1, 100244, Control_c, 0, 64, 0
1, 100252, Note_on_c, 0, 74, 79
1, 100295, Note_off_c, 0, 74, 65
1, 100350, Note_on_c, 0, 70, 83
1, 100351, Note_on_c, 0, 67, 80
1, 100369, Note_off_c, 0, 70, 72
1, 100371, Note_off_c, 0, 67, 70
1, 100548, Note_on_c, 0, 60, 73
1, 100550, Note_on_c, 0, 44, 60
1, 100553, Note_on_c, 0, 72, 78
1, 100558, Note_on_c, 0, 56, 45
1, 100559, Note_on_c, 0, 51, 48
1, 100561, Note_on_c, 0, 65, 52
1, 100571, Note_off_c, 0, 60, 69
1, 100574, Note_off_c, 0, 72, 72
1, 100579, Note_off_c, 0, 44, 64
1, 100584, Note_off_c, 0, 65, 37
1, 100586, Note_off_c, 0, 56, 35
1, 100587, Note_off_c, 0, 51, 49
1, 100757, Note_on_c, 0, 79, 84
1, 100759, Note_on_c, 0, 67, 74
1, 100760, Note_on_c, 0, 51, 65
1, 100760, Note_on_c, 0, 39, 57
1, 100761, Note_on_c, 0, 70, 73
1, 100768, Note_on_c, 0, 46, 60
1, 100769, Control_c, 0, 64, 69
1, 100783, Note_off_c, 0, 67, 70
1, 100784, Note_off_c, 0, 70, 69
1, 100784, Control_c, 0, 64, 83
1, 100785, Note_off_c, 0, 51, 66
1, 100791, Note_off_c, 0, 79, 62
1, 100793, Note_off_c, 0, 39, 62
1, 100793, Note_off_c, 0, 46, 60
1, 100799, Control_c, 0, 64, 97
1, 100815, Control_c, 0, 64, 105
1, 100830, Control_c, 0, 64, 110
1, 100845, Control_c, 0, 64, 115
1, 100859, Control_c, 0, 64, 121
1, 100874, Control_c, 0, 64, 127
1, 100948, Control_c, 0, 64, 113
1, 100963, Control_c, 0, 64, 92
1, 100969, Note_on_c, 0, 79, 89
1, 100970, Note_on_c, 0, 70, 88
1, 100972, Note_on_c, 0, 67, 86
1, 100974, Note_on_c, 0, 51, 59
1, 100976, Note_on_c, 0, 63, 73
1, 100978, Control_c, 0, 64, 71
1, 100985, Note_on_c, 0, 58, 58
1, 100993, Control_c, 0, 64, 0
1, 101001, Note_off_c, 0, 67, 64
1, 101007, Control_c, 0, 64, 58
1, 101019, Note_off_c, 0, 58, 61
1, 101021, Note_off_c, 0, 51, 60
1, 101022, Control_c, 0, 64, 70
1, 101029, Note_off_c, 0, 63, 64
1, 101034, Note_off_c, 0, 70, 53
1, 101037, Control_c, 0, 64, 83
1, 101042, Note_off_c, 0, 79, 62
1, 101052, Control_c, 0, 64, 100
1, 101067, Control_c, 0, 64, 118
1, 101082, Control_c, 0, 64, 125
1, 101126, Control_c, 0, 64, 121
1, 101141, Control_c, 0, 64, 103
1, 101156, Control_c, 0, 64, 80
1, 101166, Note_on_c, 0, 68, 92
1, 101171, Control_c, 0, 64, 0
1, 101171, Note_on_c, 0, 70, 83
1, 101174, Note_on_c, 0, 58, 69
1, 101174, Note_on_c, 0, 65, 65
1, 101176, Note_on_c, 0, 80, 84
1, 101181, Note_on_c, 0, 53, 54
1, 101201, Note_off_c, 0, 65, 67
1, 101205, Note_off_c, 0, 53, 60
1, 101207, Note_off_c, 0, 58, 66
1, 101215, Control_c, 0, 64, 68
1, 101226, Note_off_c, 0, 68, 63
1, 101230, Control_c, 0, 64, 81
1, 101252, Control_c, 0, 64, 98
1, 101253, Note_off_c, 0, 70, 52
1, 101264, Note_off_c, 0, 80, 61
1, 101267, Control_c, 0, 64, 114
1, 101282, Control_c, 0, 64, 117
1, 101297, Control_c, 0, 64, 115
1, 101312, Control_c, 0, 64, 101
1, 101326, Control_c, 0, 64, 82
1, 101341, Control_c, 0, 64, 63
1, 101356, Control_c, 0, 64, 31
1, 101371, Control_c, 0, 64, 64
1, 101374, Note_on_c, 0, 70, 80
1, 101375, Note_on_c, 0, 79, 82
1, 101379, Note_on_c, 0, 67, 81
1, 101380, Note_on_c, 0, 51, 71
1, 101380, Note_on_c, 0, 63, 67
1, 101386, Control_c, 0, 64, 75
1, 101388, Note_on_c, 0, 58, 62
1, 101400, Control_c, 0, 64, 90
1, 101402, Note_on_c, 0, 77, 50
1, 101412, Note_off_c, 0, 63, 65
1, 101413, Note_off_c, 0, 70, 64
1, 101415, Control_c, 0, 64, 106
1, 101416, Note_off_c, 0, 58, 65
1, 101416, Note_off_c, 0, 67, 59
1, 101419, Note_off_c, 0, 51, 60
1, 101426, Note_off_c, 0, 79, 62
1, 101428, Note_off_c, 0, 77, 41
1, 101430, Control_c, 0, 64, 119
1, 101445, Control_c, 0, 64, 122
1, 101504, Control_c, 0, 64, 117
1, 101518, Control_c, 0, 64, 102
1, 101533, Control_c, 0, 64, 86
1, 101548, Control_c, 0, 64, 68
1, 101563, Control_c, 0, 64, 48
1, 101565, Note_on_c, 0, 65, 82
1, 101568, Note_on_c, 0, 50, 71
1, 101571, Note_on_c, 0, 70, 74
1, 101571, Note_on_c, 0, 62, 71
1, 101574, Note_on_c, 0, 77, 78
1, 101577, Note_on_c, 0, 58, 72
1, 101578, Control_c, 0, 64, 61
1, 101592, Control_c, 0, 64, 72
1, 101597, Note_off_c, 0, 65, 64
1, 101599, Note_off_c, 0, 50, 62
1, 101599, Note_off_c, 0, 62, 65
1, 101608, Control_c, 0, 64, 85
1, 101610, Note_off_c, 0, 58, 63
1, 101623, Control_c, 0, 64, 102
1, 101625, Note_off_c, 0, 77, 60
1, 101638, Control_c, 0, 64, 112
1, 101651, Control_c, 0, 64, 112
1, 101666, Control_c, 0, 64, 104
1, 101672, Note_off_c, 0, 70, 51
1, 101681, Control_c, 0, 64, 86
1, 101696, Control_c, 0, 64, 67
1, 101711, Control_c, 0, 64, 26
1, 101726, Control_c, 0, 64, 57
1, 101740, Control_c, 0, 64, 67
1, 101751, Note_on_c, 0, 51, 66
1, 101755, Note_on_c, 0, 67, 81
1, 101755, Note_on_c, 0, 79, 75
1, 101755, Control_c, 0, 64, 77
1, 101756, Note_on_c, 0, 63, 62
1, 101759, Note_on_c, 0, 58, 68
1, 101770, Control_c, 0, 64, 93
1, 101771, Note_off_c, 0, 79, 66
1, 101777, Note_off_c, 0, 67, 68
1, 101783, Note_off_c, 0, 58, 67
1, 101785, Note_off_c, 0, 63, 67
1, 101785, Control_c, 0, 64, 104
1, 101787, Note_off_c, 0, 51, 65
1, 101800, Control_c, 0, 64, 109
1, 101814, Control_c, 0, 64, 110
1, 101844, Control_c, 0, 64, 110
1, 101932, Control_c, 0, 64, 105
1, 101947, Control_c, 0, 64, 91
1, 101955, Note_on_c, 0, 63, 92
1, 101959, Note_on_c, 0, 48, 63
1, 101961, Note_on_c, 0, 75, 84
1, 101962, Note_on_c, 0, 67, 66
1, 101962, Control_c, 0, 64, 68
1, 101972, Note_on_c, 0, 60, 55
1, 101977, Control_c, 0, 64, 0
1, 101990, Note_on_c, 0, 55, 39
1, 101994, Note_off_c, 0, 67, 70
1, 101995, Note_off_c, 0, 63, 65
1, 102001, Note_off_c, 0, 60, 58
1, 102006, Note_off_c, 0, 48, 62
1, 102010, Note_off_c, 0, 75, 62
1, 102014, Control_c, 0, 64, 63
1, 102028, Note_off_c, 0, 55, 47
1, 102029, Control_c, 0, 64, 75
1, 102044, Control_c, 0, 64, 88
1, 102059, Control_c, 0, 64, 102
1, 102073, Control_c, 0, 64, 103
1, 102088, Control_c, 0, 64, 101
1, 102103, Control_c, 0, 64, 93
1, 102118, Control_c, 0, 64, 83
1, 102133, Control_c, 0, 64, 79
1, 102147, Control_c, 0, 64, 80
1, 102155, Note_on_c, 0, 65, 91
1, 102155, Note_on_c, 0, 77, 87
1, 102162, Control_c, 0, 64, 87
1, 102166, Note_on_c, 0, 55, 67
1, 102174, Note_off_c, 0, 65, 75
1, 102177, Control_c, 0, 64, 95
1, 102178, Note_off_c, 0, 77, 63
1, 102192, Note_off_c, 0, 55, 68
1, 102192, Control_c, 0, 64, 105
1, 102207, Control_c, 0, 64, 115
1, 102221, Control_c, 0, 64, 120
1, 102236, Control_c, 0, 64, 121
1, 102310, Control_c, 0, 64, 119
1, 102325, Control_c, 0, 64, 105
1, 102340, Control_c, 0, 64, 84
1, 102350, Note_on_c, 0, 46, 68
1, 102355, Control_c, 0, 64, 0
1, 102357, Note_on_c, 0, 55, 59
1, 102359, Note_on_c, 0, 74, 81
1, 102361, Note_on_c, 0, 58, 60
1, 102362, Note_on_c, 0, 62, 78
1, 102369, Note_on_c, 0, 67, 72
1, 102415, Control_c, 0, 64, 64
1, 102429, Control_c, 0, 64, 75
1, 102444, Control_c, 0, 64, 88
1, 102452, Note_off_c, 0, 58, 58
1, 102454, Note_off_c, 0, 46, 54
1, 102459, Control_c, 0, 64, 93
1, 102465, Note_off_c, 0, 62, 58
1, 102468, Note_off_c, 0, 55, 59
1, 102489, Control_c, 0, 64, 89
1, 102495, Note_off_c, 0, 74, 61
1, 102504, Control_c, 0, 64, 80
1, 102511, Note_off_c, 0, 67, 55
1, 102519, Control_c, 0, 64, 71
1, 102534, Control_c, 0, 64, 68
1, 102549, Control_c, 0, 64, 75
1, 102555, Note_on_c, 0, 74, 76
1, 102556, Note_on_c, 0, 62, 88
1, 102557, Note_on_c, 0, 67, 70
1, 102560, Note_on_c, 0, 46, 67
1, 102563, Control_c, 0, 64, 83
1, 102565, Note_on_c, 0, 58, 70
1, 102578, Control_c, 0, 64, 93
1, 102579, Note_on_c, 0, 55, 58
1, 102593, Control_c, 0, 64, 103
1, 102595, Note_off_c, 0, 58, 66
1, 102599, Note_off_c, 0, 62, 59
1, 102601, Note_off_c, 0, 46, 62
1, 102606, Note_off_c, 0, 74, 67
1, 102608, Control_c, 0, 64, 109
1, 102611, Note_off_c, 0, 55, 63
1, 102623, Control_c, 0, 64, 111
1, 102629, Note_off_c, 0, 67, 58
1, 102667, Control_c, 0, 64, 111
1, 102711, Control_c, 0, 64, 108
1, 102733, Control_c, 0, 64, 89
1, 102748, Control_c, 0, 64, 65
1, 102758, Note_on_c, 0, 48, 71
1, 102763, Note_on_c, 0, 75, 87
1, 102763, Control_c, 0, 64, 0
1, 102764, Note_on_c, 0, 63, 90
1, 102769, Note_on_c, 0, 67, 81
1, 102771, Note_on_c, 0, 55, 70
1, 102773, Note_on_c, 0, 60, 62
1, 102804, Note_off_c, 0, 60, 65
1, 102808, Control_c, 0, 64, 70
1, 102810, Note_off_c, 0, 48, 64
1, 102821, Note_off_c, 0, 55, 66
1, 102823, Control_c, 0, 64, 86
1, 102837, Control_c, 0, 64, 115
1, 102847, Note_off_c, 0, 63, 64
1, 102852, Control_c, 0, 64, 127
1, 102853, Note_off_c, 0, 67, 54
1, 102873, Note_off_c, 0, 75, 55
1, 102896, Control_c, 0, 64, 121
1, 102911, Control_c, 0, 64, 96
1, 102926, Control_c, 0, 64, 70
1, 102941, Control_c, 0, 64, 0
1, 102956, Control_c, 0, 64, 45
1, 102963, Note_on_c, 0, 46, 72
1, 102965, Note_on_c, 0, 58, 73
1, 102968, Note_on_c, 0, 62, 88
1, 102970, Note_on_c, 0, 74, 83
1, 102970, Control_c, 0, 64, 68
1, 102977, Note_on_c, 0, 55, 63
1, 102977, Note_on_c, 0, 67, 78
1, 102985, Control_c, 0, 64, 83
1, 103000, Control_c, 0, 64, 106
1, 103003, Note_off_c, 0, 58, 63
1, 103010, Note_off_c, 0, 55, 60
1, 103015, Control_c, 0, 64, 127
1, 103023, Note_off_c, 0, 62, 59
1, 103033, Note_off_c, 0, 67, 56
1, 103034, Note_off_c, 0, 46, 61
1, 103035, Note_off_c, 0, 74, 62
1, 103074, Control_c, 0, 64, 106
1, 103088, Control_c, 0, 64, 84
1, 103103, Control_c, 0, 64, 65
1, 103118, Control_c, 0, 64, 0
1, 103133, Control_c, 0, 64, 45
1, 103149, Control_c, 0, 64, 73
1, 103157, Note_on_c, 0, 45, 64
1, 103158, Note_on_c, 0, 55, 72
1, 103158, Note_on_c, 0, 57, 60
1, 103163, Note_on_c, 0, 72, 87
1, 103163, Control_c, 0, 64, 94
1, 103164, Note_on_c, 0, 67, 84
1, 103165, Note_on_c, 0, 60, 88
1, 103178, Control_c, 0, 64, 127
1, 103194, Note_off_c, 0, 57, 61
1, 103200, Note_off_c, 0, 45, 65
1, 103207, Note_off_c, 0, 60, 62
1, 103223, Note_off_c, 0, 55, 63
1, 103239, Note_off_c, 0, 72, 62
1, 103239, Control_c, 0, 64, 102
1, 103254, Control_c, 0, 64, 78
1, 103267, Note_off_c, 0, 67, 54
1, 103268, Control_c, 0, 64, 16
1, 103283, Control_c, 0, 64, 0
1, 103298, Control_c, 0, 64, 54
1, 103312, Control_c, 0, 64, 74
1, 103327, Control_c, 0, 64, 89
1, 103342, Control_c, 0, 64, 107
1, 103350, Note_on_c, 0, 55, 67
1, 103350, Note_on_c, 0, 58, 70
1, 103352, Note_on_c, 0, 46, 69
1, 103355, Note_on_c, 0, 62, 84
1, 103357, Control_c, 0, 64, 116
1, 103359, Note_on_c, 0, 74, 65
1, 103361, Note_on_c, 0, 67, 71
1, 103375, Note_off_c, 0, 58, 67
1, 103376, Note_off_c, 0, 55, 67
1, 103382, Note_off_c, 0, 74, 70
1, 103387, Note_off_c, 0, 67, 68
1, 103398, Note_off_c, 0, 46, 63
1, 103398, Note_off_c, 0, 62, 61
1, 103527, Control_c, 0, 64, 112
1, 103542, Control_c, 0, 64, 98
1, 103555, Note_on_c, 0, 58, 84
1, 103556, Note_on_c, 0, 70, 84
1, 103557, Control_c, 0, 64, 81
1, 103562, Note_on_c, 0, 67, 72
1, 103563, Note_on_c, 0, 43, 69
1, 103568, Note_on_c, 0, 55, 71
1, 103572, Control_c, 0, 64, 64
1, 103574, Note_on_c, 0, 50, 64
1, 103586, Control_c, 0, 64, 59
1, 103601, Control_c, 0, 64, 71
1, 103610, Note_off_c, 0, 55, 59
1, 103616, Control_c, 0, 64, 85
1, 103618, Note_off_c, 0, 43, 58
1, 103622, Note_off_c, 0, 58, 63
1, 103626, Note_off_c, 0, 50, 58
1, 103631, Control_c, 0, 64, 104
1, 103638, Note_off_c, 0, 70, 64
1, 103646, Control_c, 0, 64, 121
1, 103660, Control_c, 0, 64, 120
1, 103675, Control_c, 0, 64, 105
1, 103690, Control_c, 0, 64, 80
1, 103705, Control_c, 0, 64, 59
1, 103708, Note_off_c, 0, 67, 38
1, 103720, Control_c, 0, 64, 53
1, 103735, Control_c, 0, 64, 69
1, 103748, Note_on_c, 0, 60, 84
1, 103750, Note_on_c, 0, 67, 61
1, 103750, Note_on_c, 0, 72, 83
1, 103750, Control_c, 0, 64, 85
1, 103756, Note_on_c, 0, 57, 69
1, 103756, Note_on_c, 0, 50, 69
1, 103764, Note_on_c, 0, 45, 65
1, 103765, Control_c, 0, 64, 112
1, 103780, Control_c, 0, 64, 127
1, 103781, Note_off_c, 0, 57, 65
1, 103786, Note_off_c, 0, 67, 64
1, 103788, Note_off_c, 0, 60, 60
1, 103793, Note_off_c, 0, 45, 66
1, 103807, Note_off_c, 0, 72, 65
1, 103865, Note_off_c, 0, 50, 30
1, 103957, Control_c, 0, 64, 117
1, 103959, Note_on_c, 0, 74, 84
1, 103962, Note_on_c, 0, 62, 89
1, 103962, Note_on_c, 0, 67, 84
1, 103966, Note_on_c, 0, 46, 78
1, 103970, Note_on_c, 0, 58, 77
1, 103972, Control_c, 0, 64, 81
1, 103973, Note_on_c, 0, 50, 70
1, 103986, Control_c, 0, 64, 0
1, 104000, Note_off_c, 0, 58, 67
1, 104000, Note_off_c, 0, 67, 65
1, 104001, Note_off_c, 0, 74, 66
1, 104003, Note_off_c, 0, 62, 62
1, 104012, Note_off_c, 0, 46, 63
1, 104015, Note_off_c, 0, 50, 68
1, 104224, Note_on_c, 0, 58, 82
1, 104226, Note_on_c, 0, 50, 73
1, 104226, Note_on_c, 0, 70, 89
1, 104227, Note_on_c, 0, 43, 75
1, 104229, Note_on_c, 0, 55, 73
1, 104238, Note_on_c, 0, 67, 81
1, 104262, Control_c, 0, 64, 64
1, 104277, Control_c, 0, 64, 84
1, 104280, Note_off_c, 0, 55, 65
1, 104281, Note_off_c, 0, 50, 65
1, 104284, Note_off_c, 0, 43, 62
1, 104291, Control_c, 0, 64, 104
1, 104295, Note_off_c, 0, 58, 64
1, 104306, Control_c, 0, 64, 124
1, 104319, Note_off_c, 0, 67, 63
1, 104321, Control_c, 0, 64, 127
1, 104325, Note_off_c, 0, 70, 63
1, 104602, Control_c, 0, 64, 117
1, 104617, Control_c, 0, 64, 93
1, 104632, Control_c, 0, 64, 69
1, 104638, Note_on_c, 0, 60, 83
1, 104638, Note_on_c, 0, 45, 68
1, 104640, Note_on_c, 0, 72, 82
1, 104641, Note_on_c, 0, 67, 80
1, 104644, Note_on_c, 0, 50, 66
1, 104644, Note_on_c, 0, 57, 64
1, 104646, Control_c, 0, 64, 0
1, 104675, Control_c, 0, 64, 34
1, 104690, Control_c, 0, 64, 70
1, 104697, Note_off_c, 0, 57, 60
1, 104698, Note_off_c, 0, 60, 57
1, 104702, Note_off_c, 0, 45, 63
1, 104705, Control_c, 0, 64, 85
1, 104720, Control_c, 0, 64, 108
1, 104734, Control_c, 0, 64, 127
1, 104745, Note_off_c, 0, 72, 61
1, 104746, Note_off_c, 0, 67, 59
1, 104750, Note_off_c, 0, 50, 56
1, 104832, Note_on_c, 0, 74, 79
1, 104837, Note_on_c, 0, 62, 85
1, 104839, Control_c, 0, 64, 118
1, 104841, Note_on_c, 0, 46, 72
1, 104844, Note_on_c, 0, 67, 79
1, 104844, Note_on_c, 0, 58, 77
1, 104845, Note_on_c, 0, 50, 62
1, 104854, Control_c, 0, 64, 90
1, 104869, Control_c, 0, 64, 50
1, 104873, Note_off_c, 0, 67, 64
1, 104874, Note_off_c, 0, 74, 65
1, 104882, Note_off_c, 0, 58, 64
1, 104883, Control_c, 0, 64, 0
1, 104884, Note_off_c, 0, 62, 63
1, 104888, Note_off_c, 0, 50, 63
1, 104889, Note_off_c, 0, 46, 62
1, 105074, Note_on_c, 0, 58, 86
1, 105076, Note_on_c, 0, 70, 88
1, 105079, Note_on_c, 0, 67, 81
1, 105081, Note_on_c, 0, 43, 78
1, 105082, Note_on_c, 0, 55, 76
1, 105083, Note_on_c, 0, 50, 74
1, 105098, Control_c, 0, 64, 67
1, 105113, Control_c, 0, 64, 79
1, 105127, Note_off_c, 0, 55, 66
1, 105128, Control_c, 0, 64, 92
1, 105133, Note_off_c, 0, 50, 63
1, 105137, Note_off_c, 0, 43, 60
1, 105142, Note_off_c, 0, 58, 65
1, 105143, Control_c, 0, 64, 97
1, 105157, Note_off_c, 0, 67, 63
1, 105157, Control_c, 0, 64, 101
1, 105167, Note_off_c, 0, 70, 64
1, 105172, Control_c, 0, 64, 105
1, 105187, Control_c, 0, 64, 109
1, 105202, Control_c, 0, 64, 112
1, 105217, Control_c, 0, 64, 113
1, 105439, Control_c, 0, 64, 113
1, 105454, Control_c, 0, 64, 105
1, 105469, Control_c, 0, 64, 91
1, 105483, Control_c, 0, 64, 70
1, 105498, Note_on_c, 0, 60, 82
1, 105498, Control_c, 0, 64, 0
1, 105500, Note_on_c, 0, 45, 60
1, 105500, Note_on_c, 0, 72, 78
1, 105507, Note_on_c, 0, 67, 73
1, 105510, Note_on_c, 0, 57, 50
1, 105518, Note_on_c, 0, 50, 63
1, 105543, Control_c, 0, 64, 65
1, 105550, Note_off_c, 0, 60, 62
1, 105552, Note_off_c, 0, 57, 61
1, 105557, Control_c, 0, 64, 80
1, 105561, Note_off_c, 0, 45, 62
1, 105572, Control_c, 0, 64, 98
1, 105583, Note_off_c, 0, 72, 61
1, 105587, Control_c, 0, 64, 113
1, 105603, Control_c, 0, 64, 114
1, 105604, Note_off_c, 0, 50, 52
1, 105611, Note_off_c, 0, 67, 56
1, 105618, Control_c, 0, 64, 108
1, 105633, Control_c, 0, 64, 94
1, 105648, Control_c, 0, 64, 76
1, 105662, Control_c, 0, 64, 54
1, 105677, Control_c, 0, 64, 43
1, 105692, Control_c, 0, 64, 67
1, 105697, Note_on_c, 0, 74, 74
1, 105699, Note_on_c, 0, 62, 75
1, 105705, Note_on_c, 0, 46, 63
1, 105706, Note_on_c, 0, 50, 56
1, 105706, Note_on_c, 0, 67, 73
1, 105706, Control_c, 0, 64, 78
1, 105707, Note_on_c, 0, 58, 69
1, 105721, Control_c, 0, 64, 91
1, 105732, Note_off_c, 0, 74, 65
1, 105738, Note_off_c, 0, 67, 68
1, 105738, Note_off_c, 0, 58, 68
1, 105741, Note_off_c, 0, 46, 64
1, 105744, Control_c, 0, 64, 102
1, 105748, Note_off_c, 0, 62, 60
1, 105759, Control_c, 0, 64, 108
1, 105759, Note_off_c, 0, 50, 63
1, 105774, Control_c, 0, 64, 110
1, 105788, Control_c, 0, 64, 111
1, 105862, Control_c, 0, 64, 109
1, 105877, Control_c, 0, 64, 98
1, 105892, Control_c, 0, 64, 77
1, 105895, Note_on_c, 0, 43, 73
1, 105896, Note_on_c, 0, 55, 74
1, 105897, Note_on_c, 0, 58, 85
1, 105899, Note_on_c, 0, 67, 78
1, 105899, Note_on_c, 0, 70, 78
1, 105903, Note_on_c, 0, 50, 68
1, 105906, Control_c, 0, 64, 0
1, 105923, Note_off_c, 0, 55, 69
1, 105927, Note_off_c, 0, 58, 66
1, 105929, Note_off_c, 0, 43, 62
1, 105929, Note_off_c, 0, 50, 67
1, 105944, Note_off_c, 0, 67, 62
1, 105951, Control_c, 0, 64, 68
1, 105959, Note_off_c, 0, 70, 65
1, 105966, Control_c, 0, 64, 81
1, 105980, Control_c, 0, 64, 96
1, 105995, Control_c, 0, 64, 108
1, 106010, Control_c, 0, 64, 109
1, 106040, Control_c, 0, 64, 107
1, 106054, Control_c, 0, 64, 95
1, 106069, Control_c, 0, 64, 78
1, 106084, Control_c, 0, 64, 50
1, 106097, Note_on_c, 0, 46, 63
1, 106097, Note_on_c, 0, 74, 82
1, 106099, Control_c, 0, 64, 40
1, 106100, Note_on_c, 0, 62, 83
1, 106108, Note_on_c, 0, 55, 65
1, 106108, Note_on_c, 0, 67, 77
1, 106108, Note_on_c, 0, 58, 73
1, 106114, Control_c, 0, 64, 65
1, 106129, Control_c, 0, 64, 77
1, 106144, Control_c, 0, 64, 91
1, 106155, Note_off_c, 0, 62, 61
1, 106158, Control_c, 0, 64, 107
1, 106161, Note_off_c, 0, 74, 64
1, 106173, Control_c, 0, 64, 122
1, 106175, Note_off_c, 0, 55, 61
1, 106176, Note_off_c, 0, 46, 62
1, 106179, Note_off_c, 0, 58, 63
1, 106188, Control_c, 0, 64, 125
1, 106190, Note_off_c, 0, 67, 61
1, 106203, Control_c, 0, 64, 126
1, 106247, Control_c, 0, 64, 125
1, 106262, Control_c, 0, 64, 117
1, 106277, Control_c, 0, 64, 98
1, 106292, Control_c, 0, 64, 80
1, 106306, Control_c, 0, 64, 54
1, 106315, Note_on_c, 0, 55, 77
1, 106317, Note_on_c, 0, 48, 74
1, 106317, Note_on_c, 0, 60, 76
1, 106318, Note_on_c, 0, 75, 89
1, 106319, Note_on_c, 0, 63, 93
1, 106321, Control_c, 0, 64, 0
1, 106322, Note_on_c, 0, 67, 86
1, 106339, Note_off_c, 0, 60, 69
1, 106351, Note_off_c, 0, 55, 67
1, 106351, Control_c, 0, 64, 67
1, 106362, Note_off_c, 0, 48, 66
1, 106366, Control_c, 0, 64, 86
1, 106367, Note_off_c, 0, 75, 67
1, 106368, Note_off_c, 0, 67, 64
1, 106373, Note_off_c, 0, 63, 65
1, 106380, Control_c, 0, 64, 107
1, 106396, Control_c, 0, 64, 127
1, 106567, Control_c, 0, 64, 106
1, 106572, Note_on_c, 0, 46, 73
1, 106576, Note_on_c, 0, 55, 93
1, 106582, Control_c, 0, 64, 85
1, 106585, Note_on_c, 0, 43, 69
1, 106597, Control_c, 0, 64, 49
1, 106611, Control_c, 0, 64, 0
1, 106774, Control_c, 0, 64, 68
1, 106787, Note_off_c, 0, 55, 63
1, 106789, Control_c, 0, 64, 79
1, 106802, Note_on_c, 0, 58, 73
1, 106803, Control_c, 0, 64, 91
1, 106806, Note_on_c, 0, 50, 64
1, 106814, Note_off_c, 0, 43, 59
1, 106818, Control_c, 0, 64, 97
1, 106822, Note_off_c, 0, 46, 62
1, 106833, Control_c, 0, 64, 99
1, 106847, Note_off_c, 0, 50, 63
1, 106848, Control_c, 0, 64, 101
1, 106849, Note_off_c, 0, 58, 62
1, 106855, Note_on_c, 0, 55, 66
1, 106860, Note_on_c, 0, 62, 75
1, 106862, Control_c, 0, 64, 102
1, 106877, Control_c, 0, 64, 104
1, 106886, Note_off_c, 0, 62, 66
1, 106887, Note_off_c, 0, 55, 61
1, 106893, Control_c, 0, 64, 105
1, 106908, Control_c, 0, 64, 106
1, 106936, Note_on_c, 0, 67, 83
1, 106952, Control_c, 0, 64, 106
1, 106966, Note_on_c, 0, 57, 35
1, 106972, Note_on_c, 0, 62, 61
1, 106982, Control_c, 0, 64, 107
1, 106986, Note_off_c, 0, 67, 58
1, 107000, Note_off_c, 0, 57, 44
1, 107005, Note_on_c, 0, 70, 78
1, 107021, Note_off_c, 0, 62, 61
1, 107044, Note_on_c, 0, 74, 82
1, 107056, Control_c, 0, 64, 105
1, 107061, Poly_aftertouch_c, 0, 61, 0
1, 107062, Note_off_c, 0, 70, 62
1, 107066, Note_on_c, 0, 67, 66
1, 107071, Control_c, 0, 64, 93
1, 107086, Control_c, 0, 64, 73
1, 107100, Control_c, 0, 64, 0
1, 107106, Note_on_c, 0, 70, 91
1, 107119, Note_on_c, 0, 79, 103
1, 107121, Note_off_c, 0, 67, 65
1, 107130, Control_c, 0, 64, 40
1, 107143, Note_off_c, 0, 74, 68
1, 107145, Control_c, 0, 64, 73
1, 107160, Control_c, 0, 64, 93
1, 107168, Note_off_c, 0, 70, 64
1, 107173, Note_off_c, 0, 79, 68
1, 107175, Control_c, 0, 64, 127
1, 107331, Control_c, 0, 64, 86
1, 107346, Control_c, 0, 64, 0
1, 107730, Note_on_c, 0, 67, 88
1, 107731, Note_on_c, 0, 63, 86
1, 107732, Note_on_c, 0, 58, 86
1, 107736, Note_on_c, 0, 39, 66
1, 107739, Note_on_c, 0, 46, 73
1, 107739, Note_on_c, 0, 51, 68
1, 107739, Note_on_c, 0, 55, 83
1, 107760, Control_c, 0, 64, 73
1, 107775, Control_c, 0, 64, 90
1, 107787, Note_off_c, 0, 51, 62
1, 107790, Control_c, 0, 64, 111
1, 107795, Note_off_c, 0, 39, 63
1, 107795, Note_off_c, 0, 46, 63
1, 107805, Control_c, 0, 64, 127
1, 107807, Note_off_c, 0, 55, 64
1, 107840, Note_off_c, 0, 58, 66
1, 107846, Note_off_c, 0, 67, 64
1, 107858, Note_off_c, 0, 63, 65
1, 108440, Note_on_c, 0, 65, 69
1, 108475, Note_off_c, 0, 65, 67
1, 108490, Note_on_c, 0, 67, 66
1, 108508, Control_c, 0, 64, 102
1, 108515, Note_off_c, 0, 67, 66
1, 108523, Note_on_c, 0, 65, 74
1, 108523, Control_c, 0, 64, 80
1, 108538, Control_c, 0, 64, 0
1, 108564, Note_off_c, 0, 65, 66
1, 108644, Note_on_c, 0, 63, 76
1, 108671, Note_off_c, 0, 63, 65
1, 108765, Note_on_c, 0, 62, 73
1, 108859, Note_on_c, 0, 63, 80
1, 108870, Note_off_c, 0, 62, 61
1, 108889, Note_off_c, 0, 63, 68
1, 108952, Note_on_c, 0, 60, 83
1, 108984, Note_off_c, 0, 60, 64
1, 109046, Note_on_c, 0, 62, 75
1, 109074, Note_off_c, 0, 62, 64
1, 109145, Note_on_c, 0, 58, 64
1, 109167, Note_off_c, 0, 58, 66
1, 109390, Note_on_c, 0, 60, 75
1, 109393, Note_on_c, 0, 53, 59
1, 109399, Note_on_c, 0, 44, 62
1, 109402, Note_on_c, 0, 51, 60
1, 109405, Control_c, 0, 64, 67
1, 109420, Control_c, 0, 64, 75
1, 109435, Control_c, 0, 64, 82
1, 109440, Note_off_c, 0, 53, 67
1, 109440, Note_off_c, 0, 51, 64
1, 109446, Note_off_c, 0, 60, 64
1, 109449, Note_off_c, 0, 44, 62
1, 109449, Control_c, 0, 64, 87
1, 109464, Control_c, 0, 64, 90
1, 109487, Control_c, 0, 64, 94
1, 109502, Control_c, 0, 64, 97
1, 109517, Control_c, 0, 64, 101
1, 109531, Control_c, 0, 64, 105
1, 109546, Control_c, 0, 64, 107
1, 109576, Control_c, 0, 64, 107
1, 109651, Control_c, 0, 64, 107
1, 109666, Control_c, 0, 64, 102
1, 109678, Note_on_c, 0, 63, 82
1, 109680, Control_c, 0, 64, 86
1, 109683, Note_on_c, 0, 58, 83
1, 109683, Note_on_c, 0, 67, 87
1, 109686, Note_on_c, 0, 39, 69
1, 109688, Note_on_c, 0, 46, 73
1, 109688, Note_on_c, 0, 55, 75
1, 109690, Note_on_c, 0, 51, 69
1, 109695, Control_c, 0, 64, 59
1, 109710, Control_c, 0, 64, 0
1, 109769, Control_c, 0, 64, 61
1, 109774, Note_off_c, 0, 51, 65
1, 109780, Note_off_c, 0, 46, 63
1, 109783, Note_off_c, 0, 55, 64
1, 109784, Control_c, 0, 64, 75
1, 109790, Note_off_c, 0, 39, 63
1, 109799, Control_c, 0, 64, 89
1, 109810, Note_off_c, 0, 58, 66
1, 109814, Control_c, 0, 64, 99
1, 109816, Note_off_c, 0, 67, 64
1, 109821, Note_off_c, 0, 63, 66
1, 109828, Control_c, 0, 64, 101
1, 109843, Control_c, 0, 64, 102
1, 109858, Control_c, 0, 64, 103
1, 109873, Control_c, 0, 64, 103
1, 109888, Control_c, 0, 64, 105
1, 109903, Control_c, 0, 64, 105
1, 109918, Control_c, 0, 64, 106
1, 109947, Control_c, 0, 64, 106
1, 109962, Control_c, 0, 64, 107
1, 109977, Control_c, 0, 64, 107
1, 109992, Control_c, 0, 64, 108
1, 110052, Control_c, 0, 64, 108
1, 110236, Note_on_c, 0, 65, 68
1, 110262, Note_off_c, 0, 65, 69
1, 110266, Control_c, 0, 64, 109
1, 110282, Note_on_c, 0, 67, 69
1, 110296, Control_c, 0, 64, 108
1, 110307, Note_off_c, 0, 67, 68
1, 110311, Control_c, 0, 64, 101
1, 110311, Note_on_c, 0, 65, 88
1, 110326, Control_c, 0, 64, 86
1, 110341, Control_c, 0, 64, 63
1, 110351, Note_off_c, 0, 65, 67
1, 110355, Control_c, 0, 64, 0
1, 110446, Note_on_c, 0, 63, 76
1, 110493, Note_off_c, 0, 63, 59
1, 110540, Note_on_c, 0, 62, 72
1, 110646, Note_on_c, 0, 63, 82
1, 110650, Note_off_c, 0, 62, 60
1, 110676, Note_off_c, 0, 63, 68
1, 110752, Note_on_c, 0, 60, 79
1, 110779, Note_off_c, 0, 60, 63
1, 110833, Note_on_c, 0, 62, 75
1, 110860, Note_off_c, 0, 62, 66
1, 110927, Note_on_c, 0, 58, 75
1, 110952, Note_off_c, 0, 58, 68
1, 111143, Note_on_c, 0, 53, 66
1, 111143, Note_on_c, 0, 60, 75
1, 111147, Note_on_c, 0, 44, 71
1, 111152, Note_on_c, 0, 51, 62
1, 111163, Control_c, 0, 64, 70
1, 111178, Control_c, 0, 64, 80
1, 111183, Note_off_c, 0, 51, 64
1, 111187, Note_off_c, 0, 44, 65
1, 111188, Note_off_c, 0, 53, 63
1, 111190, Note_off_c, 0, 60, 60
1, 111193, Control_c, 0, 64, 89
1, 111208, Control_c, 0, 64, 91
1, 111223, Control_c, 0, 64, 92
1, 111238, Control_c, 0, 64, 93
1, 111268, Control_c, 0, 64, 94
1, 111357, Control_c, 0, 64, 93
1, 111372, Control_c, 0, 64, 88
1, 111387, Control_c, 0, 64, 73
1, 111397, Note_on_c, 0, 39, 65
1, 111399, Note_on_c, 0, 51, 61
1, 111400, Note_on_c, 0, 67, 82
1, 111401, Note_on_c, 0, 46, 69
1, 111401, Control_c, 0, 64, 0
1, 111402, Note_on_c, 0, 63, 76
1, 111404, Note_on_c, 0, 58, 76
1, 111405, Note_on_c, 0, 55, 73
1, 111460, Control_c, 0, 64, 46
1, 111475, Control_c, 0, 64, 68
1, 111478, Note_off_c, 0, 51, 63
1, 111485, Note_off_c, 0, 46, 64
1, 111487, Note_off_c, 0, 55, 62
1, 111490, Control_c, 0, 64, 78
1, 111491, Note_off_c, 0, 67, 62
1, 111495, Note_off_c, 0, 39, 63
1, 111497, Note_off_c, 0, 58, 65
1, 111505, Control_c, 0, 64, 85
1, 111506, Note_off_c, 0, 63, 66
1, 111519, Control_c, 0, 64, 89
1, 111534, Control_c, 0, 64, 89
1, 111549, Control_c, 0, 64, 90
1, 111608, Control_c, 0, 64, 90
1, 111956, Control_c, 0, 64, 87
1, 111971, Control_c, 0, 64, 76
1, 111986, Control_c, 0, 64, 50
1, 111994, Note_on_c, 0, 60, 72
1, 111995, Note_on_c, 0, 53, 60
1, 111997, Note_on_c, 0, 44, 60
1, 112002, Control_c, 0, 64, 0
1, 112007, Note_on_c, 0, 51, 49
1, 112046, Control_c, 0, 64, 61
1, 112050, Note_off_c, 0, 53, 64
1, 112053, Note_off_c, 0, 51, 61
1, 112054, Note_off_c, 0, 60, 63
1, 112061, Control_c, 0, 64, 73
1, 112070, Note_off_c, 0, 44, 62
1, 112076, Control_c, 0, 64, 84
1, 112090, Control_c, 0, 64, 92
1, 112105, Control_c, 0, 64, 95
1, 112210, Control_c, 0, 64, 94
1, 112224, Control_c, 0, 64, 88
1, 112231, Note_on_c, 0, 63, 73
1, 112234, Note_on_c, 0, 39, 65
1, 112236, Note_on_c, 0, 67, 79
1, 112238, Note_on_c, 0, 55, 72
1, 112239, Note_on_c, 0, 58, 72
1, 112239, Control_c, 0, 64, 75
1, 112240, Note_on_c, 0, 46, 69
1, 112242, Note_on_c, 0, 51, 65
1, 112254, Control_c, 0, 64, 0
1, 112293, Note_off_c, 0, 51, 63
1, 112296, Note_off_c, 0, 46, 62
1, 112304, Note_off_c, 0, 39, 63
1, 112313, Control_c, 0, 64, 59
1, 112315, Note_off_c, 0, 55, 64
1, 112326, Note_off_c, 0, 58, 66
1, 112328, Control_c, 0, 64, 72
1, 112330, Note_off_c, 0, 67, 63
1, 112339, Note_off_c, 0, 63, 66
1, 112342, Control_c, 0, 64, 82
1, 112357, Control_c, 0, 64, 91
1, 112372, Control_c, 0, 64, 95
1, 112387, Control_c, 0, 64, 97
1, 112402, Control_c, 0, 64, 98
1, 112416, Control_c, 0, 64, 98
1, 112431, Control_c, 0, 64, 99
1, 112446, Control_c, 0, 64, 101
1, 112461, Control_c, 0, 64, 101
1, 112483, Control_c, 0, 64, 102
1, 112498, Control_c, 0, 64, 103
1, 112513, Control_c, 0, 64, 103
1, 112528, Control_c, 0, 64, 104
1, 112557, Control_c, 0, 64, 104
1, 112572, Control_c, 0, 64, 105
1, 112587, Control_c, 0, 64, 105
1, 112617, Control_c, 0, 64, 106
1, 112631, Control_c, 0, 64, 106
1, 112646, Control_c, 0, 64, 107
1, 112661, Control_c, 0, 64, 107
1, 112690, Control_c, 0, 64, 108
1, 112720, Control_c, 0, 64, 108
1, 112795, Control_c, 0, 64, 107
1, 112810, Control_c, 0, 64, 97
1, 112825, Control_c, 0, 64, 81
1, 112831, Note_on_c, 0, 44, 67
1, 112839, Note_on_c, 0, 53, 67
1, 112840, Note_on_c, 0, 60, 70
1, 112840, Control_c, 0, 64, 55
1, 112845, Note_on_c, 0, 51, 52
1, 112855, Control_c, 0, 64, 0
1, 112881, Note_off_c, 0, 53, 65
1, 112881, Note_off_c, 0, 60, 63
1, 112883, Note_off_c, 0, 51, 64
1, 112885, Control_c, 0, 64, 65
1, 112895, Note_off_c, 0, 44, 62
1, 112899, Control_c, 0, 64, 77
1, 112914, Control_c, 0, 64, 93
1, 112929, Control_c, 0, 64, 108
1, 112944, Control_c, 0, 64, 114
1, 112959, Control_c, 0, 64, 115
1, 113003, Control_c, 0, 64, 115
1, 113018, Control_c, 0, 64, 107
1, 113033, Control_c, 0, 64, 91
1, 113047, Control_c, 0, 64, 69
1, 113057, Note_on_c, 0, 63, 56
1, 113062, Control_c, 0, 64, 0
1, 113067, Note_on_c, 0, 55, 47
1, 113074, Note_on_c, 0, 46, 49
1, 113077, Note_on_c, 0, 39, 38
1, 113080, Note_on_c, 0, 51, 43
1, 113095, Note_off_c, 0, 55, 56
1, 113097, Note_off_c, 0, 63, 62
1, 113101, Note_off_c, 0, 46, 57
1, 113108, Note_off_c, 0, 39, 54
1, 113109, Note_off_c, 0, 51, 53
1, 113262, Note_on_c, 0, 60, 57
1, 113269, Note_on_c, 0, 53, 42
1, 113273, Note_on_c, 0, 44, 51
1, 113286, Note_on_c, 0, 51, 25
1, 113293, Note_off_c, 0, 60, 53
1, 113298, Note_off_c, 0, 53, 53
1, 113311, Note_off_c, 0, 44, 63
1, 113327, Note_off_c, 0, 51, 42
1, 113453, Note_on_c, 0, 63, 56
1, 113454, Note_on_c, 0, 55, 55
1, 113465, Note_on_c, 0, 39, 35
1, 113468, Note_on_c, 0, 67, 40
1, 113468, Note_on_c, 0, 46, 46
1, 113471, Note_on_c, 0, 51, 22
1, 113485, Note_off_c, 0, 55, 59
1, 113493, Note_off_c, 0, 63, 62
1, 113495, Note_off_c, 0, 46, 58
1, 113497, Note_off_c, 0, 67, 48
1, 113501, Note_off_c, 0, 39, 53
1, 113509, Note_off_c, 0, 51, 42
1, 113652, Note_on_c, 0, 44, 52
1, 113653, Note_on_c, 0, 60, 52
1, 113658, Note_on_c, 0, 53, 51
1, 113669, Note_on_c, 0, 51, 29
1, 113676, Note_off_c, 0, 60, 61
1, 113685, Note_off_c, 0, 44, 62
1, 113691, Note_off_c, 0, 53, 59
1, 113703, Note_off_c, 0, 51, 43
1, 113862, Note_on_c, 0, 63, 56
1, 113865, Note_on_c, 0, 39, 47
1, 113866, Note_on_c, 0, 55, 49
1, 113870, Note_on_c, 0, 67, 39
1, 113872, Note_on_c, 0, 46, 43
1, 113873, Note_on_c, 0, 51, 35
1, 113894, Note_off_c, 0, 55, 55
1, 113899, Note_off_c, 0, 67, 49
1, 113900, Note_off_c, 0, 46, 51
1, 113901, Note_off_c, 0, 39, 60
1, 113903, Note_off_c, 0, 63, 63
1, 113904, Note_off_c, 0, 51, 48
1, 114082, Note_on_c, 0, 53, 59
1, 114085, Note_on_c, 0, 60, 58
1, 114094, Note_on_c, 0, 44, 45
1, 114105, Note_off_c, 0, 60, 62
1, 114109, Note_on_c, 0, 51, 23
1, 114110, Note_off_c, 0, 53, 66
1, 114121, Note_off_c, 0, 44, 56
1, 114147, Note_off_c, 0, 51, 38
1, 114299, Note_on_c, 0, 63, 61
1, 114299, Note_on_c, 0, 67, 51
1, 114302, Note_on_c, 0, 55, 59
1, 114309, Note_on_c, 0, 46, 58
1, 114312, Note_on_c, 0, 39, 51
1, 114320, Note_on_c, 0, 51, 41
1, 114322, Note_off_c, 0, 67, 57
1, 114326, Note_off_c, 0, 55, 60
1, 114330, Note_off_c, 0, 63, 66
1, 114334, Note_off_c, 0, 46, 60
1, 114343, Note_off_c, 0, 39, 60
1, 114352, Note_off_c, 0, 51, 46
1, 114522, Note_on_c, 0, 60, 63
1, 114528, Note_on_c, 0, 44, 51
1, 114529, Note_on_c, 0, 53, 53
1, 114531, Note_on_c, 0, 51, 27
1, 114551, Note_off_c, 0, 60, 66
1, 114553, Note_off_c, 0, 53, 59
1, 114553, Note_off_c, 0, 44, 57
1, 114564, Note_off_c, 0, 51, 43
1, 114759, Control_c, 0, 64, 11
1, 114764, Note_on_c, 0, 67, 67
1, 114774, Note_on_c, 0, 39, 42
1, 114774, Control_c, 0, 64, 69
1, 114775, Note_on_c, 0, 51, 51
1, 114778, Note_on_c, 0, 46, 44
1, 114789, Control_c, 0, 64, 82
1, 114794, Note_on_c, 0, 55, 21
1, 114804, Control_c, 0, 64, 92
1, 114806, Note_off_c, 0, 39, 52
1, 114808, Note_off_c, 0, 51, 64
1, 114810, Note_off_c, 0, 46, 51
1, 114818, Control_c, 0, 64, 99
1, 114833, Control_c, 0, 64, 103
1, 114835, Note_off_c, 0, 55, 44
1, 114848, Control_c, 0, 64, 106
1, 114863, Control_c, 0, 64, 109
1, 114878, Control_c, 0, 64, 113
1, 114885, Note_on_c, 0, 65, 61
1, 114893, Control_c, 0, 64, 117
1, 114897, Note_off_c, 0, 67, 52
1, 114907, Control_c, 0, 64, 119
1, 114922, Control_c, 0, 64, 120
1, 114937, Note_on_c, 0, 63, 70
1, 114959, Note_off_c, 0, 65, 65
1, 114964, Note_on_c, 0, 58, 61
1, 114970, Note_on_c, 0, 62, 76
1, 114982, Control_c, 0, 64, 111
1, 114994, Note_off_c, 0, 63, 60
1, 114996, Note_off_c, 0, 58, 65
1, 114997, Control_c, 0, 64, 92
1, 115012, Control_c, 0, 64, 65
1, 115018, Note_off_c, 0, 62, 63
1, 115026, Control_c, 0, 64, 0
1, 115061, Note_on_c, 0, 63, 67
1, 115062, Note_on_c, 0, 55, 63
1, 115089, Note_off_c, 0, 63, 67
1, 115101, Note_off_c, 0, 55, 65
1, 115162, Note_on_c, 0, 54, 61
1, 115178, Note_on_c, 0, 58, 54
1, 115192, Note_off_c, 0, 54, 64
1, 115200, Note_off_c, 0, 58, 60
1, 115253, Note_on_c, 0, 55, 64
1, 115298, Note_off_c, 0, 55, 61
1, 115352, Note_on_c, 0, 56, 71
1, 115358, Note_on_c, 0, 60, 68
1, 115366, Control_c, 0, 64, 65
1, 115369, Note_on_c, 0, 53, 51
1, 115374, Note_off_c, 0, 56, 67
1, 115381, Control_c, 0, 64, 82
1, 115385, Note_off_c, 0, 60, 66
1, 115393, Note_off_c, 0, 53, 60
1, 115396, Control_c, 0, 64, 93
1, 115411, Control_c, 0, 64, 96
1, 115426, Control_c, 0, 64, 98
1, 115441, Control_c, 0, 64, 100
1, 115456, Control_c, 0, 64, 103
1, 115478, Control_c, 0, 64, 105
1, 115492, Control_c, 0, 64, 107
1, 115507, Control_c, 0, 64, 108
1, 115581, Note_on_c, 0, 67, 76
1, 115581, Control_c, 0, 64, 103
1, 115584, Note_on_c, 0, 51, 65
1, 115586, Note_on_c, 0, 39, 64
1, 115587, Note_on_c, 0, 58, 56
1, 115590, Note_on_c, 0, 46, 58
1, 115596, Note_on_c, 0, 55, 42
1, 115596, Control_c, 0, 64, 88
1, 115611, Control_c, 0, 64, 66
1, 115620, Note_off_c, 0, 58, 66
1, 115624, Note_off_c, 0, 55, 54
1, 115626, Control_c, 0, 64, 0
1, 115628, Note_off_c, 0, 46, 62
1, 115641, Note_off_c, 0, 39, 62
1, 115646, Note_off_c, 0, 51, 63
1, 115671, Control_c, 0, 64, 49
1, 115685, Control_c, 0, 64, 70
1, 115700, Control_c, 0, 64, 81
1, 115715, Control_c, 0, 64, 91
1, 115717, Note_on_c, 0, 65, 56
1, 115730, Control_c, 0, 64, 97
1, 115745, Control_c, 0, 64, 99
1, 115751, Note_off_c, 0, 67, 58
1, 115760, Control_c, 0, 64, 100
1, 115771, Note_on_c, 0, 63, 67
1, 115774, Control_c, 0, 64, 101
1, 115798, Note_off_c, 0, 65, 64
1, 115805, Note_on_c, 0, 62, 75
1, 115815, Note_on_c, 0, 58, 69
1, 115823, Note_off_c, 0, 63, 64
1, 115833, Control_c, 0, 64, 96
1, 115843, Note_off_c, 0, 58, 66
1, 115848, Control_c, 0, 64, 76
1, 115849, Note_off_c, 0, 62, 61
1, 115863, Control_c, 0, 64, 0
1, 115908, Note_on_c, 0, 55, 81
1, 115945, Note_off_c, 0, 55, 64
1, 116012, Note_on_c, 0, 54, 75
1, 116015, Note_on_c, 0, 58, 71
1, 116042, Note_off_c, 0, 54, 63
1, 116042, Note_off_c, 0, 58, 66
1, 116103, Note_on_c, 0, 55, 81
1, 116146, Note_off_c, 0, 55, 67
1, 116208, Note_on_c, 0, 53, 62
1, 116218, Note_on_c, 0, 60, 65
1, 116219, Note_on_c, 0, 56, 63
1, 116237, Note_off_c, 0, 60, 64
1, 116238, Note_off_c, 0, 56, 63
1, 116243, Note_off_c, 0, 53, 53
1, 116433, Note_on_c, 0, 51, 60
1, 116438, Note_on_c, 0, 39, 36
1, 116438, Note_on_c, 0, 55, 50
1, 116442, Note_on_c, 0, 67, 60
1, 116449, Control_c, 0, 64, 70
1, 116462, Note_off_c, 0, 55, 60
1, 116463, Note_off_c, 0, 51, 64
1, 116463, Control_c, 0, 64, 81
1, 116472, Note_off_c, 0, 39, 46
1, 116478, Control_c, 0, 64, 93
1, 116486, Note_off_c, 0, 67, 60
1, 116493, Control_c, 0, 64, 97
1, 116508, Control_c, 0, 64, 99
1, 116523, Control_c, 0, 64, 100
1, 116538, Control_c, 0, 64, 101
1, 116549, Note_on_c, 0, 58, 59
1, 116551, Note_on_c, 0, 67, 66
1, 116568, Control_c, 0, 64, 101
1, 116582, Control_c, 0, 64, 97
1, 116597, Control_c, 0, 64, 89
1, 116612, Control_c, 0, 64, 76
1, 116627, Control_c, 0, 64, 67
1, 116642, Control_c, 0, 64, 63
1, 116646, Note_off_c, 0, 58, 59
1, 116649, Note_on_c, 0, 51, 57
1, 116657, Control_c, 0, 64, 66
1, 116672, Control_c, 0, 64, 71
1, 116687, Control_c, 0, 64, 77
1, 116699, Note_off_c, 0, 67, 52
1, 116702, Control_c, 0, 64, 79
1, 116716, Control_c, 0, 64, 77
1, 116731, Control_c, 0, 64, 69
1, 116746, Control_c, 0, 64, 45
1, 116761, Control_c, 0, 64, 0
1, 116764, Note_on_c, 0, 67, 67
1, 116768, Note_on_c, 0, 65, 75
1, 116768, Note_off_c, 0, 51, 61
1, 116773, Note_on_c, 0, 59, 60
1, 116776, Control_c, 0, 64, 29
1, 116791, Control_c, 0, 64, 59
1, 116806, Control_c, 0, 64, 49
1, 116821, Control_c, 0, 64, 0
1, 116836, Control_c, 0, 64, 11
1, 116851, Control_c, 0, 64, 58
1, 116865, Control_c, 0, 64, 67
1, 116873, Note_off_c, 0, 59, 62
1, 116875, Note_on_c, 0, 50, 64
1, 116880, Control_c, 0, 64, 72
1, 116895, Control_c, 0, 64, 72
1, 116910, Control_c, 0, 64, 70
1, 116925, Control_c, 0, 64, 65
1, 116934, Note_off_c, 0, 67, 61
1, 116939, Control_c, 0, 64, 39
1, 116940, Note_off_c, 0, 65, 65
1, 116954, Control_c, 0, 64, 0
1, 116991, Control_c, 0, 64, 46
1, 116997, Note_on_c, 0, 67, 76
1, 116998, Note_on_c, 0, 60, 67
1, 116998, Note_on_c, 0, 63, 81
1, 117000, Note_off_c, 0, 50, 63
1, 117006, Control_c, 0, 64, 57
1, 117021, Control_c, 0, 64, 58
1, 117036, Control_c, 0, 64, 61
1, 117051, Control_c, 0, 64, 67
1, 117065, Control_c, 0, 64, 74
1, 117070, Note_off_c, 0, 60, 61
1, 117080, Control_c, 0, 64, 82
1, 117095, Control_c, 0, 64, 83
1, 117102, Note_on_c, 0, 48, 75
1, 117110, Control_c, 0, 64, 81
1, 117125, Control_c, 0, 64, 78
1, 117139, Control_c, 0, 64, 71
1, 117154, Note_off_c, 0, 48, 61
1, 117154, Control_c, 0, 64, 64
1, 117163, Note_off_c, 0, 63, 63
1, 117163, Note_off_c, 0, 67, 61
1, 117169, Control_c, 0, 64, 63
1, 117184, Control_c, 0, 64, 71
1, 117199, Control_c, 0, 64, 81
1, 117203, Note_on_c, 0, 67, 80
1, 117204, Note_on_c, 0, 58, 77
1, 117205, Note_on_c, 0, 62, 86
1, 117213, Control_c, 0, 64, 92
1, 117228, Control_c, 0, 64, 98
1, 117243, Control_c, 0, 64, 98
1, 117258, Control_c, 0, 64, 98
1, 117272, Control_c, 0, 64, 94
1, 117287, Control_c, 0, 64, 85
1, 117295, Note_off_c, 0, 58, 60
1, 117302, Control_c, 0, 64, 74
1, 117309, Note_off_c, 0, 62, 58
1, 117314, Note_on_c, 0, 50, 71
1, 117317, Control_c, 0, 64, 60
1, 117318, Note_on_c, 0, 46, 77
1, 117332, Control_c, 0, 64, 0
1, 117337, Note_off_c, 0, 67, 61
1, 117361, Control_c, 0, 64, 59
1, 117376, Control_c, 0, 64, 74
1, 117390, Note_off_c, 0, 46, 62
1, 117391, Control_c, 0, 64, 85
1, 117405, Control_c, 0, 64, 92
1, 117407, Note_off_c, 0, 50, 61
1, 117414, Note_on_c, 0, 67, 93
1, 117415, Note_on_c, 0, 56, 80
1, 117415, Note_on_c, 0, 60, 85
1, 117420, Control_c, 0, 64, 93
1, 117435, Control_c, 0, 64, 92
1, 117450, Control_c, 0, 64, 85
1, 117465, Control_c, 0, 64, 70
1, 117480, Control_c, 0, 64, 0
1, 117498, Note_off_c, 0, 60, 59
1, 117512, Note_off_c, 0, 56, 60
1, 117534, Note_off_c, 0, 67, 58
1, 117539, Control_c, 0, 64, 66
1, 117540, Note_on_c, 0, 44, 69
1, 117542, Note_on_c, 0, 50, 55
1, 117554, Control_c, 0, 64, 78
1, 117569, Control_c, 0, 64, 92
1, 117584, Control_c, 0, 64, 99
1, 117599, Control_c, 0, 64, 101
1, 117620, Note_off_c, 0, 44, 62
1, 117633, Note_on_c, 0, 58, 84
1, 117635, Note_on_c, 0, 67, 85
1, 117636, Note_on_c, 0, 62, 81
1, 117641, Note_on_c, 0, 55, 84
1, 117668, Note_off_c, 0, 50, 58
1, 117674, Control_c, 0, 64, 101
1, 117679, Note_off_c, 0, 58, 66
1, 117683, Note_off_c, 0, 62, 62
1, 117703, Control_c, 0, 64, 101
1, 117718, Note_off_c, 0, 67, 64
1, 117725, Control_c, 0, 64, 100
1, 117736, Note_off_c, 0, 55, 62
1, 117740, Control_c, 0, 64, 91
1, 117755, Control_c, 0, 64, 77
1, 117769, Control_c, 0, 64, 0
1, 117776, Note_on_c, 0, 50, 89
1, 117782, Note_on_c, 0, 43, 82
1, 117808, Note_off_c, 0, 50, 67
1, 117814, Control_c, 0, 64, 69
1, 117815, Note_off_c, 0, 43, 65
1, 117829, Control_c, 0, 64, 83
1, 117844, Control_c, 0, 64, 103
1, 117859, Control_c, 0, 64, 127
1, 117869, Note_on_c, 0, 67, 87
1, 117954, Note_off_c, 0, 67, 60
1, 117986, Note_on_c, 0, 58, 79
1, 117986, Poly_aftertouch_c, 0, 73, 0
1, 117987, Note_on_c, 0, 55, 80
1, 117990, Note_on_c, 0, 74, 85
1, 117990, Note_on_c, 0, 79, 89
1, 117992, Note_on_c, 0, 62, 82
1, 117993, Note_on_c, 0, 70, 84
1, 118012, Note_off_c, 0, 62, 68
1, 118014, Note_off_c, 0, 70, 70
1, 118015, Note_off_c, 0, 74, 66
1, 118015, Note_off_c, 0, 79, 64
1, 118020, Note_off_c, 0, 58, 65
1, 118021, Control_c, 0, 64, 97
1, 118025, Note_off_c, 0, 55, 68
1, 118036, Control_c, 0, 64, 64
1, 118051, Control_c, 0, 64, 0
1, 118257, Note_on_c, 0, 39, 69
1, 118261, Note_on_c, 0, 67, 71
1, 118261, Note_on_c, 0, 55, 51
1, 118264, Note_on_c, 0, 51, 65
1, 118269, Note_on_c, 0, 46, 57
1, 118280, Note_on_c, 0, 58, 38
1, 118288, Control_c, 0, 64, 61
1, 118298, Note_off_c, 0, 55, 61
1, 118301, Note_off_c, 0, 46, 63
1, 118303, Note_off_c, 0, 39, 63
1, 118303, Control_c, 0, 64, 80
1, 118306, Note_off_c, 0, 51, 64
1, 118309, Note_off_c, 0, 58, 56
1, 118318, Control_c, 0, 64, 96
1, 118332, Control_c, 0, 64, 109
1, 118347, Control_c, 0, 64, 112
1, 118362, Control_c, 0, 64, 114
1, 118377, Control_c, 0, 64, 117
1, 118379, Note_on_c, 0, 65, 63
1, 118388, Note_off_c, 0, 67, 57
1, 118392, Control_c, 0, 64, 120
1, 118407, Control_c, 0, 64, 124
1, 118422, Control_c, 0, 64, 126
1, 118430, Note_on_c, 0, 63, 69
1, 118437, Control_c, 0, 64, 126
1, 118468, Note_off_c, 0, 65, 64
1, 118486, Note_on_c, 0, 62, 73
1, 118490, Note_off_c, 0, 63, 65
1, 118493, Note_on_c, 0, 58, 67
1, 118504, Control_c, 0, 64, 126
1, 118518, Control_c, 0, 64, 115
1, 118520, Note_off_c, 0, 58, 68
1, 118533, Control_c, 0, 64, 99
1, 118535, Note_off_c, 0, 62, 62
1, 118548, Control_c, 0, 64, 79
1, 118563, Control_c, 0, 64, 0
1, 118593, Note_on_c, 0, 55, 65
1, 118608, Note_on_c, 0, 63, 49
1, 118628, Note_off_c, 0, 55, 66
1, 118631, Note_off_c, 0, 63, 59
1, 118702, Note_on_c, 0, 54, 61
1, 118704, Note_on_c, 0, 58, 58
1, 118726, Note_off_c, 0, 58, 63
1, 118732, Note_off_c, 0, 54, 64
1, 118801, Note_on_c, 0, 55, 55
1, 118848, Note_off_c, 0, 55, 58
1, 118886, Note_on_c, 0, 53, 65
1, 118888, Control_c, 0, 64, 71
1, 118891, Note_on_c, 0, 60, 60
1, 118900, Note_on_c, 0, 56, 56
1, 118903, Control_c, 0, 64, 83
1, 118911, Note_off_c, 0, 60, 63
1, 118917, Control_c, 0, 64, 90
1, 118923, Note_off_c, 0, 56, 57
1, 118925, Note_off_c, 0, 53, 61
1, 118932, Control_c, 0, 64, 93
1, 118947, Control_c, 0, 64, 96
1, 118962, Control_c, 0, 64, 100
1, 118977, Control_c, 0, 64, 105
1, 118991, Control_c, 0, 64, 110
1, 119006, Control_c, 0, 64, 114
1, 119021, Control_c, 0, 64, 115
1, 119036, Control_c, 0, 64, 115
1, 119081, Control_c, 0, 64, 115
1, 119096, Control_c, 0, 64, 108
1, 119103, Note_on_c, 0, 39, 60
1, 119105, Note_on_c, 0, 67, 75
1, 119108, Note_on_c, 0, 51, 61
1, 119110, Control_c, 0, 64, 94
1, 119115, Note_on_c, 0, 58, 53
1, 119116, Note_on_c, 0, 46, 50
1, 119122, Note_on_c, 0, 55, 49
1, 119125, Control_c, 0, 64, 75
1, 119140, Control_c, 0, 64, 0
1, 119146, Note_off_c, 0, 46, 57
1, 119149, Note_off_c, 0, 39, 63
1, 119149, Note_off_c, 0, 55, 57
1, 119154, Note_off_c, 0, 51, 64
1, 119158, Note_off_c, 0, 58, 65
1, 119186, Control_c, 0, 64, 64
1, 119208, Control_c, 0, 64, 75
1, 119223, Control_c, 0, 64, 88
1, 119238, Control_c, 0, 64, 96
1, 119253, Control_c, 0, 64, 99
1, 119259, Note_on_c, 0, 65, 57
1, 119267, Control_c, 0, 64, 100
1, 119274, Note_off_c, 0, 67, 55
1, 119282, Control_c, 0, 64, 100
1, 119303, Note_on_c, 0, 63, 69
1, 119327, Control_c, 0, 64, 100
1, 119331, Note_off_c, 0, 65, 64
1, 119332, Note_on_c, 0, 58, 66
1, 119334, Note_on_c, 0, 62, 78
1, 119341, Control_c, 0, 64, 91
1, 119346, Note_off_c, 0, 63, 62
1, 119356, Control_c, 0, 64, 73
1, 119360, Note_off_c, 0, 58, 67
1, 119371, Control_c, 0, 64, 0
1, 119374, Note_off_c, 0, 62, 62
1, 119438, Note_on_c, 0, 55, 73
1, 119439, Note_on_c, 0, 63, 76
1, 119464, Note_off_c, 0, 63, 68
1, 119469, Note_off_c, 0, 55, 67
1, 119549, Note_on_c, 0, 54, 64
1, 119558, Note_on_c, 0, 58, 56
1, 119578, Note_off_c, 0, 58, 62
1, 119580, Note_off_c, 0, 54, 63
1, 119644, Note_on_c, 0, 55, 68
1, 119693, Note_off_c, 0, 55, 62
1, 119737, Note_on_c, 0, 53, 69
1, 119754, Note_on_c, 0, 60, 49
1, 119765, Note_on_c, 0, 56, 43
1, 119778, Note_off_c, 0, 60, 53
1, 119781, Note_off_c, 0, 53, 61
1, 119786, Control_c, 0, 64, 73
1, 119793, Note_off_c, 0, 56, 35
1, 119801, Control_c, 0, 64, 82
1, 119816, Control_c, 0, 64, 87
1, 119831, Control_c, 0, 64, 88
1, 119846, Control_c, 0, 64, 90
1, 119860, Control_c, 0, 64, 94
1, 119875, Control_c, 0, 64, 97
1, 119890, Control_c, 0, 64, 100
1, 119905, Control_c, 0, 64, 100
1, 119920, Control_c, 0, 64, 99
1, 119934, Control_c, 0, 64, 87
1, 119949, Control_c, 0, 64, 65
1, 119969, Note_on_c, 0, 51, 62
1, 119969, Note_on_c, 0, 39, 45
1, 119972, Control_c, 0, 64, 0
1, 119972, Note_on_c, 0, 67, 63
1, 119975, Note_on_c, 0, 55, 57
1, 119982, Note_on_c, 0, 58, 45
1, 119997, Note_off_c, 0, 51, 64
1, 120001, Note_off_c, 0, 39, 51
1, 120002, Note_off_c, 0, 55, 65
1, 120002, Control_c, 0, 64, 45
1, 120009, Note_off_c, 0, 58, 60
1, 120017, Control_c, 0, 64, 71
1, 120024, Note_off_c, 0, 67, 62
1, 120032, Control_c, 0, 64, 85
1, 120046, Control_c, 0, 64, 98
1, 120061, Control_c, 0, 64, 99
1, 120076, Control_c, 0, 64, 89
1, 120084, Note_on_c, 0, 58, 71
1, 120090, Note_on_c, 0, 67, 72
1, 120091, Control_c, 0, 64, 73
1, 120106, Control_c, 0, 64, 0
1, 120136, Control_c, 0, 64, 64
1, 120151, Control_c, 0, 64, 76
1, 120165, Control_c, 0, 64, 86
1, 120180, Control_c, 0, 64, 88
1, 120184, Note_on_c, 0, 51, 70
1, 120187, Note_off_c, 0, 58, 61
1, 120195, Control_c, 0, 64, 86
1, 120209, Control_c, 0, 64, 81
1, 120224, Control_c, 0, 64, 73
1, 120239, Control_c, 0, 64, 66
1, 120249, Note_off_c, 0, 67, 62
1, 120254, Control_c, 0, 64, 61
1, 120269, Control_c, 0, 64, 61
1, 120283, Control_c, 0, 64, 61
1, 120298, Control_c, 0, 64, 63
1, 120301, Note_off_c, 0, 51, 60
1, 120303, Note_on_c, 0, 65, 81
1, 120303, Note_on_c, 0, 67, 80
1, 120306, Note_on_c, 0, 59, 73
1, 120313, Control_c, 0, 64, 67
1, 120328, Control_c, 0, 64, 72
1, 120343, Control_c, 0, 64, 78
1, 120372, Control_c, 0, 64, 73
1, 120387, Control_c, 0, 64, 59
1, 120402, Control_c, 0, 64, 0
1, 120415, Note_off_c, 0, 59, 60
1, 120419, Note_on_c, 0, 50, 62
1, 120446, Control_c, 0, 64, 65
1, 120461, Control_c, 0, 64, 74
1, 120465, Note_off_c, 0, 67, 61
1, 120469, Note_off_c, 0, 65, 65
1, 120476, Control_c, 0, 64, 81
1, 120506, Control_c, 0, 64, 76
1, 120515, Note_on_c, 0, 63, 89
1, 120515, Note_on_c, 0, 67, 81
1, 120520, Control_c, 0, 64, 68
1, 120533, Note_on_c, 0, 60, 70
1, 120535, Note_off_c, 0, 50, 62
1, 120535, Control_c, 0, 64, 52
1, 120550, Control_c, 0, 64, 63
1, 120565, Control_c, 0, 64, 70
1, 120580, Control_c, 0, 64, 76
1, 120595, Control_c, 0, 64, 78
1, 120604, Note_off_c, 0, 60, 59
1, 120609, Control_c, 0, 64, 77
1, 120624, Control_c, 0, 64, 68
1, 120634, Note_on_c, 0, 48, 75
1, 120639, Control_c, 0, 64, 0
1, 120669, Control_c, 0, 64, 62
1, 120678, Note_off_c, 0, 63, 62
1, 120681, Note_off_c, 0, 67, 59
1, 120683, Control_c, 0, 64, 76
1, 120696, Note_off_c, 0, 48, 64
1, 120698, Control_c, 0, 64, 92
1, 120720, Control_c, 0, 64, 119
1, 120731, Note_on_c, 0, 67, 85
1, 120734, Note_on_c, 0, 62, 93
1, 120735, Control_c, 0, 64, 127
1, 120750, Note_on_c, 0, 58, 76
1, 120836, Note_off_c, 0, 62, 60
1, 120854, Note_on_c, 0, 50, 72
1, 120858, Note_on_c, 0, 46, 79
1, 120858, Note_off_c, 0, 58, 60
1, 120869, Control_c, 0, 64, 107
1, 120884, Note_off_c, 0, 67, 60
1, 120884, Control_c, 0, 64, 85
1, 120899, Control_c, 0, 64, 64
1, 120914, Control_c, 0, 64, 0
1, 120944, Control_c, 0, 64, 66
1, 120946, Note_off_c, 0, 46, 63
1, 120955, Note_on_c, 0, 60, 90
1, 120956, Note_on_c, 0, 67, 92
1, 120959, Control_c, 0, 64, 84
1, 120962, Note_on_c, 0, 56, 81
1, 120964, Note_off_c, 0, 50, 60
1, 120974, Control_c, 0, 64, 107
1, 120988, Control_c, 0, 64, 127
1, 121052, Note_off_c, 0, 60, 60
1, 121062, Control_c, 0, 64, 123
1, 121074, Note_off_c, 0, 56, 56
1, 121077, Control_c, 0, 64, 99
1, 121081, Note_on_c, 0, 50, 68
1, 121084, Note_on_c, 0, 44, 72
1, 121086, Note_off_c, 0, 67, 59
1, 121092, Control_c, 0, 64, 76
1, 121106, Control_c, 0, 64, 0
1, 121151, Control_c, 0, 64, 46
1, 121166, Control_c, 0, 64, 74
1, 121167, Note_off_c, 0, 44, 64
1, 121180, Control_c, 0, 64, 93
1, 121181, Note_on_c, 0, 58, 95
1, 121182, Note_on_c, 0, 67, 89
1, 121186, Note_on_c, 0, 62, 79
1, 121193, Note_off_c, 0, 50, 52
1, 121194, Note_on_c, 0, 55, 87
1, 121195, Control_c, 0, 64, 127
1, 121234, Note_off_c, 0, 62, 62
1, 121235, Note_off_c, 0, 58, 66
1, 121265, Note_off_c, 0, 67, 64
1, 121272, Note_off_c, 0, 55, 63
1, 121319, Note_on_c, 0, 50, 87
1, 121326, Note_on_c, 0, 43, 86
1, 121358, Control_c, 0, 64, 99
1, 121361, Note_off_c, 0, 50, 65
1, 121371, Note_off_c, 0, 43, 61
1, 121373, Control_c, 0, 64, 78
1, 121388, Control_c, 0, 64, 23
1, 121403, Control_c, 0, 64, 0
1, 121418, Control_c, 0, 64, 58
1, 121432, Control_c, 0, 64, 73
1, 121447, Control_c, 0, 64, 87
1, 121448, Note_on_c, 0, 67, 86
1, 121469, Control_c, 0, 64, 103
1, 121484, Control_c, 0, 64, 116
1, 121499, Control_c, 0, 64, 121
1, 121513, Control_c, 0, 64, 123
1, 121528, Control_c, 0, 64, 127
1, 121543, Control_c, 0, 64, 127
1, 121560, Note_on_c, 0, 58, 67
1, 121560, Note_on_c, 0, 74, 39
1, 121564, Note_on_c, 0, 70, 85
1, 121564, Note_off_c, 0, 67, 62
1, 121569, Note_on_c, 0, 62, 69
1, 121575, Note_on_c, 0, 55, 61
1, 121597, Note_on_c, 0, 79, 62
1, 121600, Note_off_c, 0, 62, 64
1, 121605, Note_off_c, 0, 70, 64
1, 121605, Note_off_c, 0, 74, 67
1, 121608, Note_off_c, 0, 55, 66
1, 121611, Note_off_c, 0, 58, 63
1, 121613, Note_off_c, 0, 79, 63
1, 121662, Control_c, 0, 64, 108
1, 121677, Control_c, 0, 64, 88
1, 121681, Note_on_c, 0, 70, 94
1, 121681, Note_on_c, 0, 82, 90
1, 121692, Control_c, 0, 64, 56
1, 121700, Note_off_c, 0, 82, 69
1, 121707, Control_c, 0, 64, 0
1, 121710, Note_off_c, 0, 70, 63
1, 121722, Note_on_c, 0, 83, 36
1, 121754, Note_off_c, 0, 83, 37
1, 121796, Note_on_c, 0, 84, 96
1, 121801, Note_on_c, 0, 72, 92
1, 121909, Note_on_c, 0, 46, 59
1, 121911, Note_on_c, 0, 50, 57
1, 121915, Control_c, 0, 64, 52
1, 121916, Note_on_c, 0, 44, 51
1, 121929, Control_c, 0, 64, 73
1, 121944, Control_c, 0, 64, 83
1, 121959, Control_c, 0, 64, 91
1, 121960, Note_off_c, 0, 72, 64
1, 121966, Note_off_c, 0, 84, 63
1, 121974, Control_c, 0, 64, 97
1, 121988, Control_c, 0, 64, 103
1, 122003, Control_c, 0, 64, 111
1, 122007, Note_off_c, 0, 50, 63
1, 122013, Note_off_c, 0, 44, 63
1, 122018, Note_off_c, 0, 46, 62
1, 122018, Control_c, 0, 64, 126
1, 122023, Note_on_c, 0, 56, 75
1, 122033, Control_c, 0, 64, 127
1, 122035, Note_on_c, 0, 84, 94
1, 122038, Note_on_c, 0, 72, 95
1, 122050, Note_off_c, 0, 56, 67
1, 122106, Note_off_c, 0, 72, 55
1, 122130, Note_on_c, 0, 62, 70
1, 122131, Note_on_c, 0, 56, 55
1, 122137, Note_on_c, 0, 58, 65
1, 122144, Note_off_c, 0, 84, 55
1, 122235, Note_off_c, 0, 56, 59
1, 122239, Note_off_c, 0, 58, 59
1, 122253, Note_on_c, 0, 68, 81
1, 122256, Note_on_c, 0, 84, 89
1, 122262, Note_on_c, 0, 72, 87
1, 122269, Note_off_c, 0, 62, 60
1, 122306, Note_off_c, 0, 72, 63
1, 122367, Note_off_c, 0, 68, 65
1, 122378, Note_on_c, 0, 82, 81
1, 122384, Note_on_c, 0, 56, 58
1, 122385, Note_on_c, 0, 58, 61
1, 122387, Note_off_c, 0, 84, 58
1, 122389, Note_on_c, 0, 62, 57
1, 122408, Note_off_c, 0, 62, 61
1, 122416, Note_off_c, 0, 58, 67
1, 122419, Note_off_c, 0, 56, 64
1, 122431, Note_on_c, 0, 80, 84
1, 122455, Note_off_c, 0, 82, 62
1, 122490, Note_off_c, 0, 80, 60
1, 122494, Note_on_c, 0, 79, 82
1, 122515, Control_c, 0, 64, 120
1, 122523, Note_off_c, 0, 79, 62
1, 122530, Control_c, 0, 64, 97
1, 122545, Control_c, 0, 64, 76
1, 122559, Control_c, 0, 64, 0
1, 122580, Note_on_c, 0, 77, 81
1, 122599, Note_off_c, 0, 77, 69
1, 122709, Note_on_c, 0, 82, 86
1, 122713, Note_on_c, 0, 70, 89
1, 122782, Control_c, 0, 64, 60
1, 122797, Control_c, 0, 64, 68
1, 122811, Control_c, 0, 64, 74
1, 122826, Control_c, 0, 64, 81
1, 122835, Note_on_c, 0, 51, 52
1, 122841, Control_c, 0, 64, 86
1, 122843, Note_on_c, 0, 46, 51
1, 122849, Note_off_c, 0, 82, 59
1, 122851, Note_off_c, 0, 70, 58
1, 122856, Control_c, 0, 64, 91
1, 122867, Note_on_c, 0, 43, 49
1, 122871, Control_c, 0, 64, 95
1, 122885, Control_c, 0, 64, 99
1, 122900, Control_c, 0, 64, 103
1, 122915, Control_c, 0, 64, 108
1, 122930, Note_off_c, 0, 43, 61
1, 122930, Control_c, 0, 64, 112
1, 122935, Note_on_c, 0, 55, 75
1, 122935, Note_on_c, 0, 82, 91
1, 122937, Note_on_c, 0, 70, 96
1, 122952, Control_c, 0, 64, 115
1, 122953, Note_off_c, 0, 46, 61
1, 122957, Note_off_c, 0, 51, 63
1, 122967, Control_c, 0, 64, 118
1, 122969, Note_off_c, 0, 55, 68
1, 122982, Control_c, 0, 64, 121
1, 122997, Control_c, 0, 64, 123
1, 123011, Control_c, 0, 64, 126
1, 123012, Note_off_c, 0, 70, 55
1, 123026, Control_c, 0, 64, 127
1, 123043, Note_off_c, 0, 82, 56
1, 123063, Note_on_c, 0, 63, 69
1, 123071, Note_on_c, 0, 58, 64
1, 123075, Note_on_c, 0, 55, 47
1, 123163, Note_off_c, 0, 55, 57
1, 123172, Note_off_c, 0, 58, 56
1, 123175, Note_on_c, 0, 67, 85
1, 123175, Note_on_c, 0, 70, 84
1, 123179, Note_off_c, 0, 63, 56
1, 123182, Note_on_c, 0, 82, 85
1, 123218, Note_off_c, 0, 82, 66
1, 123219, Note_off_c, 0, 70, 64
1, 123275, Note_off_c, 0, 67, 60
1, 123284, Note_on_c, 0, 63, 81
1, 123286, Note_on_c, 0, 58, 73
1, 123293, Note_on_c, 0, 55, 64
1, 123302, Note_off_c, 0, 63, 73
1, 123311, Note_off_c, 0, 58, 68
1, 123319, Note_off_c, 0, 55, 67
1, 123412, Note_on_c, 0, 75, 89
1, 123413, Note_on_c, 0, 87, 88
1, 123451, Note_off_c, 0, 75, 66
1, 123451, Note_off_c, 0, 87, 66
1, 123472, Control_c, 0, 64, 115
1, 123486, Control_c, 0, 64, 90
1, 123501, Control_c, 0, 64, 61
1, 123516, Control_c, 0, 64, 0
1, 123519, Note_on_c, 0, 74, 83
1, 123521, Note_on_c, 0, 86, 79
1, 123540, Note_off_c, 0, 74, 70
1, 123544, Note_off_c, 0, 86, 65
1, 123644, Note_on_c, 0, 72, 85
1, 123644, Note_on_c, 0, 84, 88
1, 123746, Control_c, 0, 64, 65
1, 123750, Note_on_c, 0, 46, 47
1, 123759, Note_on_c, 0, 50, 47
1, 123760, Control_c, 0, 64, 79
1, 123767, Note_on_c, 0, 44, 42
1, 123775, Control_c, 0, 64, 92
1, 123790, Control_c, 0, 64, 100
1, 123801, Note_off_c, 0, 72, 63
1, 123805, Control_c, 0, 64, 105
1, 123816, Note_off_c, 0, 84, 64
1, 123820, Control_c, 0, 64, 109
1, 123834, Control_c, 0, 64, 116
1, 123849, Control_c, 0, 64, 125
1, 123853, Note_off_c, 0, 50, 63
1, 123858, Note_off_c, 0, 44, 61
1, 123864, Note_off_c, 0, 46, 62
1, 123864, Control_c, 0, 64, 127
1, 123867, Note_on_c, 0, 56, 66
1, 123892, Note_on_c, 0, 72, 91
1, 123893, Note_on_c, 0, 84, 88
1, 123893, Note_off_c, 0, 56, 65
1, 123939, Note_off_c, 0, 72, 65
1, 123953, Note_off_c, 0, 84, 62
1, 123983, Note_on_c, 0, 56, 49
1, 123990, Note_on_c, 0, 62, 66
1, 123992, Note_on_c, 0, 58, 59
1, 124086, Note_off_c, 0, 56, 61
1, 124091, Note_off_c, 0, 58, 60
1, 124112, Note_on_c, 0, 68, 78
1, 124116, Note_on_c, 0, 72, 87
1, 124118, Note_on_c, 0, 84, 85
1, 124129, Note_off_c, 0, 62, 52
1, 124163, Note_off_c, 0, 72, 62
1, 124229, Note_off_c, 0, 68, 63
1, 124240, Note_on_c, 0, 82, 73
1, 124244, Note_on_c, 0, 62, 55
1, 124246, Note_on_c, 0, 58, 58
1, 124247, Note_off_c, 0, 84, 62
1, 124250, Note_on_c, 0, 56, 49
1, 124270, Note_off_c, 0, 62, 53
1, 124275, Note_off_c, 0, 56, 64
1, 124276, Note_off_c, 0, 58, 66
1, 124285, Note_on_c, 0, 80, 82
1, 124306, Note_off_c, 0, 82, 64
1, 124328, Note_off_c, 0, 80, 65
1, 124354, Control_c, 0, 64, 111
1, 124360, Note_on_c, 0, 79, 69
1, 124369, Control_c, 0, 64, 84
1, 124376, Note_off_c, 0, 79, 66
1, 124383, Control_c, 0, 64, 0
1, 124453, Note_on_c, 0, 77, 81
1, 124473, Note_off_c, 0, 77, 71
1, 124586, Note_on_c, 0, 70, 79
1, 124587, Note_on_c, 0, 82, 76
1, 124643, Control_c, 0, 64, 67
1, 124657, Control_c, 0, 64, 75
1, 124672, Control_c, 0, 64, 81
1, 124687, Control_c, 0, 64, 84
1, 124702, Control_c, 0, 64, 87
1, 124706, Note_on_c, 0, 51, 54
1, 124716, Note_on_c, 0, 46, 50
1, 124717, Control_c, 0, 64, 90
1, 124729, Note_on_c, 0, 43, 54
1, 124731, Control_c, 0, 64, 93
1, 124735, Note_off_c, 0, 82, 57
1, 124741, Note_off_c, 0, 70, 58
1, 124746, Control_c, 0, 64, 96
1, 124761, Control_c, 0, 64, 99
1, 124777, Control_c, 0, 64, 101
1, 124792, Control_c, 0, 64, 102
1, 124797, Note_off_c, 0, 43, 60
1, 124806, Control_c, 0, 64, 103
1, 124821, Note_off_c, 0, 46, 62
1, 124821, Control_c, 0, 64, 104
1, 124824, Note_on_c, 0, 55, 65
1, 124824, Note_off_c, 0, 51, 62
1, 124834, Note_on_c, 0, 70, 88
1, 124836, Note_on_c, 0, 82, 87
1, 124836, Control_c, 0, 64, 106
1, 124851, Control_c, 0, 64, 108
1, 124852, Note_off_c, 0, 55, 66
1, 124866, Control_c, 0, 64, 111
1, 124879, Note_off_c, 0, 70, 60
1, 124880, Control_c, 0, 64, 114
1, 124893, Note_off_c, 0, 82, 59
1, 124895, Control_c, 0, 64, 118
1, 124910, Control_c, 0, 64, 122
1, 124925, Control_c, 0, 64, 127
1, 124937, Note_on_c, 0, 63, 63
1, 124939, Note_on_c, 0, 55, 47
1, 124952, Note_on_c, 0, 58, 56
1, 125036, Note_off_c, 0, 55, 63
1, 125037, Note_off_c, 0, 58, 60
1, 125053, Note_on_c, 0, 70, 88
1, 125056, Note_on_c, 0, 67, 78
1, 125057, Note_on_c, 0, 82, 77
1, 125061, Note_off_c, 0, 63, 64
1, 125078, Note_off_c, 0, 82, 70
1, 125087, Note_off_c, 0, 70, 62
1, 125136, Note_off_c, 0, 67, 56
1, 125161, Note_on_c, 0, 63, 75
1, 125165, Note_on_c, 0, 58, 65
1, 125168, Note_on_c, 0, 55, 59
1, 125177, Note_off_c, 0, 63, 69
1, 125191, Note_off_c, 0, 58, 68
1, 125201, Note_off_c, 0, 55, 66
1, 125289, Note_on_c, 0, 63, 69
1, 125295, Note_on_c, 0, 67, 79
1, 125320, Note_off_c, 0, 63, 66
1, 125326, Note_off_c, 0, 67, 61
1, 125361, Control_c, 0, 64, 106
1, 125376, Control_c, 0, 64, 85
1, 125391, Control_c, 0, 64, 64
1, 125406, Control_c, 0, 64, 0
1, 125414, Note_on_c, 0, 70, 63
1, 125416, Note_on_c, 0, 67, 64
1, 125432, Note_off_c, 0, 70, 66
1, 125433, Note_off_c, 0, 67, 67
1, 125529, Note_on_c, 0, 72, 64
1, 125531, Note_on_c, 0, 44, 50
1, 125539, Note_on_c, 0, 68, 64
1, 125651, Note_on_c, 0, 50, 47
1, 125652, Note_on_c, 0, 65, 67
1, 125664, Note_on_c, 0, 60, 51
1, 125682, Note_off_c, 0, 68, 61
1, 125685, Note_off_c, 0, 65, 65
1, 125686, Note_off_c, 0, 60, 61
1, 125693, Note_off_c, 0, 72, 63
1, 125748, Control_c, 0, 64, 16
1, 125758, Note_on_c, 0, 72, 73
1, 125763, Control_c, 0, 64, 35
1, 125777, Control_c, 0, 64, 38
1, 125778, Note_on_c, 0, 68, 70
1, 125792, Control_c, 0, 64, 37
1, 125821, Control_c, 0, 64, 34
1, 125825, Note_off_c, 0, 68, 60
1, 125836, Control_c, 0, 64, 0
1, 125875, Note_off_c, 0, 50, 63
1, 125880, Note_on_c, 0, 67, 65
1, 125881, Note_on_c, 0, 68, 52
1, 125886, Note_on_c, 0, 52, 58
1, 125893, Note_on_c, 0, 60, 55
1, 125896, Note_off_c, 0, 72, 59
1, 125908, Note_off_c, 0, 67, 65
1, 125913, Note_off_c, 0, 60, 59
1, 125916, Note_off_c, 0, 68, 65
1, 126002, Note_on_c, 0, 72, 81
1, 126007, Note_off_c, 0, 52, 65
1, 126008, Control_c, 0, 64, 30
1, 126008, Note_on_c, 0, 53, 60
1, 126023, Control_c, 0, 64, 70
1, 126037, Control_c, 0, 64, 83
1, 126052, Control_c, 0, 64, 97
1, 126067, Control_c, 0, 64, 110
1, 126082, Control_c, 0, 64, 119
1, 126097, Control_c, 0, 64, 125
1, 126104, Note_off_c, 0, 53, 59
1, 126111, Control_c, 0, 64, 127
1, 126136, Note_on_c, 0, 70, 74
1, 126136, Note_off_c, 0, 44, 61
1, 126142, Note_off_c, 0, 72, 60
1, 126190, Note_on_c, 0, 68, 72
1, 126209, Note_off_c, 0, 70, 62
1, 126239, Note_off_c, 0, 68, 65
1, 126242, Note_on_c, 0, 67, 77
1, 126244, Control_c, 0, 64, 107
1, 126259, Control_c, 0, 64, 85
1, 126265, Note_off_c, 0, 67, 69
1, 126274, Control_c, 0, 64, 41
1, 126289, Control_c, 0, 64, 0
1, 126355, Note_on_c, 0, 65, 57
1, 126379, Note_off_c, 0, 65, 60
1, 126480, Note_on_c, 0, 70, 67
1, 126483, Note_on_c, 0, 43, 35
1, 126485, Note_on_c, 0, 67, 60
1, 126555, Note_off_c, 0, 67, 59
1, 126596, Note_on_c, 0, 63, 73
1, 126598, Note_on_c, 0, 48, 52
1, 126606, Note_off_c, 0, 70, 56
1, 126609, Note_on_c, 0, 58, 56
1, 126647, Note_off_c, 0, 58, 62
1, 126667, Note_off_c, 0, 63, 63
1, 126730, Note_on_c, 0, 70, 75
1, 126739, Note_on_c, 0, 67, 70
1, 126843, Note_on_c, 0, 65, 79
1, 126847, Note_off_c, 0, 48, 63
1, 126849, Note_off_c, 0, 70, 61
1, 126853, Note_on_c, 0, 58, 60
1, 126860, Note_on_c, 0, 50, 55
1, 126861, Note_off_c, 0, 67, 57
1, 126889, Note_off_c, 0, 58, 63
1, 126904, Note_off_c, 0, 65, 64
1, 126967, Note_on_c, 0, 70, 65
1, 126985, Note_on_c, 0, 51, 71
1, 126986, Note_on_c, 0, 67, 54
1, 126991, Note_off_c, 0, 50, 64
1, 126992, Control_c, 0, 64, 65
1, 127007, Control_c, 0, 64, 76
1, 127015, Note_off_c, 0, 43, 51
1, 127022, Control_c, 0, 64, 89
1, 127024, Note_off_c, 0, 67, 61
1, 127037, Note_on_c, 0, 66, 82
1, 127037, Control_c, 0, 64, 100
1, 127052, Control_c, 0, 64, 105
1, 127056, Note_off_c, 0, 70, 61
1, 127057, Note_off_c, 0, 51, 57
1, 127067, Control_c, 0, 64, 109
1, 127071, Note_off_c, 0, 66, 60
1, 127081, Control_c, 0, 64, 113
1, 127096, Control_c, 0, 64, 117
1, 127111, Note_on_c, 0, 67, 83
1, 127111, Control_c, 0, 64, 121
1, 127126, Control_c, 0, 64, 126
1, 127141, Control_c, 0, 64, 127
1, 127159, Note_off_c, 0, 67, 57
1, 127173, Note_on_c, 0, 70, 64
1, 127201, Control_c, 0, 64, 113
1, 127216, Control_c, 0, 64, 92
1, 127220, Note_on_c, 0, 75, 85
1, 127222, Note_off_c, 0, 70, 63
1, 127230, Control_c, 0, 64, 64
1, 127245, Control_c, 0, 64, 0
1, 127266, Note_off_c, 0, 75, 66
1, 127346, Note_on_c, 0, 74, 53
1, 127366, Note_off_c, 0, 74, 62
1, 127457, Note_on_c, 0, 44, 51
1, 127464, Note_on_c, 0, 72, 68
1, 127474, Note_on_c, 0, 68, 66
1, 127582, Note_on_c, 0, 50, 52
1, 127598, Note_on_c, 0, 65, 62
1, 127609, Note_on_c, 0, 60, 47
1, 127621, Note_off_c, 0, 72, 63
1, 127625, Note_off_c, 0, 68, 61
1, 127638, Note_off_c, 0, 65, 63
1, 127640, Note_off_c, 0, 60, 58
1, 127707, Note_on_c, 0, 72, 80
1, 127721, Note_on_c, 0, 68, 73
1, 127821, Note_off_c, 0, 50, 63
1, 127827, Note_on_c, 0, 67, 69
1, 127839, Note_on_c, 0, 52, 55
1, 127840, Note_on_c, 0, 60, 53
1, 127842, Note_off_c, 0, 72, 61
1, 127860, Note_off_c, 0, 60, 60
1, 127863, Note_off_c, 0, 67, 62
1, 127868, Note_off_c, 0, 68, 64
1, 127946, Note_on_c, 0, 72, 85
1, 127967, Note_off_c, 0, 52, 63
1, 127968, Note_on_c, 0, 53, 55
1, 127977, Note_on_c, 0, 68, 53
1, 127994, Control_c, 0, 64, 57
1, 128000, Note_off_c, 0, 68, 61
1, 128009, Control_c, 0, 64, 68
1, 128023, Control_c, 0, 64, 75
1, 128038, Control_c, 0, 64, 82
1, 128053, Control_c, 0, 64, 87
1, 128068, Control_c, 0, 64, 91
1, 128083, Control_c, 0, 64, 94
1, 128092, Note_off_c, 0, 53, 59
1, 128093, Note_on_c, 0, 70, 74
1, 128098, Control_c, 0, 64, 97
1, 128105, Note_off_c, 0, 44, 57
1, 128107, Note_off_c, 0, 72, 59
1, 128113, Control_c, 0, 64, 99
1, 128128, Control_c, 0, 64, 100
1, 128137, Note_on_c, 0, 68, 68
1, 128143, Control_c, 0, 64, 101
1, 128170, Note_off_c, 0, 70, 62
1, 128172, Control_c, 0, 64, 100
1, 128187, Control_c, 0, 64, 95
1, 128205, Note_off_c, 0, 68, 64
1, 128207, Note_on_c, 0, 67, 77
1, 128209, Control_c, 0, 64, 83
1, 128223, Control_c, 0, 64, 65
1, 128230, Note_off_c, 0, 67, 67
1, 128238, Control_c, 0, 64, 0
1, 128316, Note_on_c, 0, 65, 51
1, 128340, Note_off_c, 0, 65, 60
1, 128439, Note_on_c, 0, 70, 66
1, 128444, Note_on_c, 0, 43, 40
1, 128449, Note_on_c, 0, 67, 56
1, 128521, Note_off_c, 0, 67, 57
1, 128566, Note_on_c, 0, 63, 64
1, 128572, Note_off_c, 0, 70, 57
1, 128573, Note_on_c, 0, 48, 43
1, 128580, Note_on_c, 0, 58, 53
1, 128620, Note_off_c, 0, 58, 63
1, 128634, Note_off_c, 0, 63, 63
1, 128685, Note_on_c, 0, 70, 71
1, 128700, Note_on_c, 0, 67, 62
1, 128794, Note_off_c, 0, 48, 55
1, 128795, Note_on_c, 0, 50, 60
1, 128796, Note_on_c, 0, 65, 67
1, 128801, Note_on_c, 0, 58, 52
1, 128801, Note_off_c, 0, 70, 59
1, 128811, Note_off_c, 0, 67, 59
1, 128827, Note_off_c, 0, 58, 62
1, 128883, Note_off_c, 0, 65, 59
1, 128912, Note_off_c, 0, 50, 64
1, 128914, Note_on_c, 0, 70, 43
1, 128920, Note_on_c, 0, 51, 71
1, 128921, Note_on_c, 0, 67, 56
1, 128930, Note_off_c, 0, 43, 55
1, 128950, Note_off_c, 0, 70, 57
1, 128958, Control_c, 0, 64, 57
1, 128959, Note_off_c, 0, 51, 64
1, 128960, Note_off_c, 0, 67, 65
1, 128967, Note_on_c, 0, 65, 72
1, 128972, Control_c, 0, 64, 70
1, 128987, Control_c, 0, 64, 79
1, 129002, Control_c, 0, 64, 86
1, 129016, Note_off_c, 0, 65, 59
1, 129017, Control_c, 0, 64, 89
1, 129041, Note_on_c, 0, 63, 75
1, 129076, Note_off_c, 0, 63, 62
1, 129076, Control_c, 0, 64, 87
1, 129091, Control_c, 0, 64, 83
1, 129106, Note_on_c, 0, 62, 76
1, 129106, Control_c, 0, 64, 75
1, 129120, Control_c, 0, 64, 62
1, 129135, Control_c, 0, 64, 0
1, 129147, Note_on_c, 0, 55, 67
1, 129158, Note_off_c, 0, 62, 59
1, 129169, Note_on_c, 0, 63, 71
1, 129180, Note_off_c, 0, 55, 66
1, 129197, Note_off_c, 0, 63, 66
1, 129277, Note_on_c, 0, 58, 78
1, 129312, Note_off_c, 0, 58, 64
1, 129412, Note_on_c, 0, 60, 87
1, 129432, Control_c, 0, 64, 75
1, 129445, Note_off_c, 0, 60, 64
1, 129446, Control_c, 0, 64, 87
1, 129461, Control_c, 0, 64, 97
1, 129476, Control_c, 0, 64, 100
1, 129491, Control_c, 0, 64, 102
1, 129506, Control_c, 0, 64, 105
1, 129518, Note_on_c, 0, 65, 46
1, 129520, Control_c, 0, 64, 109
1, 129529, Note_on_c, 0, 72, 61
1, 129535, Control_c, 0, 64, 113
1, 129543, Note_off_c, 0, 65, 58
1, 129547, Note_on_c, 0, 51, 55
1, 129549, Note_on_c, 0, 44, 54
1, 129550, Control_c, 0, 64, 116
1, 129559, Note_off_c, 0, 72, 68
1, 129566, Control_c, 0, 64, 117
1, 129581, Control_c, 0, 64, 117
1, 129583, Note_off_c, 0, 51, 62
1, 129584, Note_off_c, 0, 44, 64
1, 129602, Poly_aftertouch_c, 0, 71, 0
1, 129610, Control_c, 0, 64, 118
1, 129640, Control_c, 0, 64, 118
1, 129658, Note_on_c, 0, 60, 84
1, 129669, Control_c, 0, 64, 119
1, 129704, Note_off_c, 0, 60, 65
1, 129722, Control_c, 0, 64, 119
1, 129737, Control_c, 0, 64, 120
1, 129751, Control_c, 0, 64, 121
1, 129766, Control_c, 0, 64, 121
1, 129776, Note_on_c, 0, 83, 48
1, 129781, Note_on_c, 0, 51, 68
1, 129781, Control_c, 0, 64, 122
1, 129789, Note_on_c, 0, 44, 67
1, 129795, Note_on_c, 0, 77, 9
1, 129795, Note_on_c, 0, 84, 65
1, 129795, Control_c, 0, 64, 122
1, 129796, Note_off_c, 0, 83, 60
1, 129804, Note_off_c, 0, 51, 59
1, 129817, Note_off_c, 0, 84, 67
1, 129825, Control_c, 0, 64, 123
1, 129833, Note_off_c, 0, 44, 60
1, 129852, Note_off_c, 0, 77, 26
1, 129855, Control_c, 0, 64, 124
1, 129869, Control_c, 0, 64, 124
1, 129884, Control_c, 0, 64, 125
1, 129914, Control_c, 0, 64, 125
1, 129917, Note_on_c, 0, 60, 86
1, 129955, Note_off_c, 0, 60, 63
1, 129958, Control_c, 0, 64, 126
1, 129988, Control_c, 0, 64, 127
1, 130003, Control_c, 0, 64, 127
1, 130012, Note_on_c, 0, 89, 36
1, 130032, Note_on_c, 0, 51, 72
1, 130044, Note_off_c, 0, 89, 54
1, 130049, Note_on_c, 0, 95, 53
1, 130062, Note_on_c, 0, 96, 73
1, 130065, Note_on_c, 0, 44, 44
1, 130075, Note_off_c, 0, 95, 66
1, 130080, Note_off_c, 0, 51, 57
1, 130086, Note_off_c, 0, 96, 67
1, 130090, Note_off_c, 0, 44, 56
1, 130181, Control_c, 0, 64, 127
1, 130192, Note_on_c, 0, 58, 46
1, 130195, Control_c, 0, 64, 109
1, 130210, Control_c, 0, 64, 93
1, 130214, Note_on_c, 0, 56, 63
1, 130219, Note_off_c, 0, 58, 55
1, 130225, Control_c, 0, 64, 75
1, 130240, Control_c, 0, 64, 0
1, 130262, Note_off_c, 0, 56, 63
1, 130271, Note_on_c, 0, 55, 77
1, 130312, Note_off_c, 0, 55, 66
1, 130328, Note_on_c, 0, 53, 74
1, 130354, Note_off_c, 0, 53, 68
1, 130403, Note_on_c, 0, 58, 90
1, 130494, Note_off_c, 0, 58, 59
1, 130500, Control_c, 0, 64, 67
1, 130512, Note_on_c, 0, 70, 29
1, 130515, Control_c, 0, 64, 75
1, 130519, Note_on_c, 0, 75, 68
1, 130523, Note_on_c, 0, 51, 59
1, 130524, Note_on_c, 0, 74, 37
1, 130530, Note_on_c, 0, 43, 60
1, 130530, Control_c, 0, 64, 83
1, 130542, Note_off_c, 0, 75, 68
1, 130545, Control_c, 0, 64, 87
1, 130546, Note_off_c, 0, 70, 43
1, 130551, Note_off_c, 0, 74, 54
1, 130560, Control_c, 0, 64, 89
1, 130562, Note_off_c, 0, 51, 59
1, 130568, Note_off_c, 0, 43, 60
1, 130574, Control_c, 0, 64, 90
1, 130589, Control_c, 0, 64, 93
1, 130604, Control_c, 0, 64, 95
1, 130618, Control_c, 0, 64, 97
1, 130633, Control_c, 0, 64, 99
1, 130646, Note_on_c, 0, 58, 92
1, 130648, Control_c, 0, 64, 101
1, 130663, Control_c, 0, 64, 103
1, 130678, Control_c, 0, 64, 105
1, 130692, Control_c, 0, 64, 107
1, 130694, Note_off_c, 0, 58, 65
1, 130707, Control_c, 0, 64, 110
1, 130722, Control_c, 0, 64, 113
1, 130737, Control_c, 0, 64, 117
1, 130742, Note_on_c, 0, 82, 53
1, 130751, Control_c, 0, 64, 121
1, 130757, Note_on_c, 0, 86, 62
1, 130766, Control_c, 0, 64, 126
1, 130770, Note_off_c, 0, 82, 63
1, 130781, Control_c, 0, 64, 127
1, 130782, Note_off_c, 0, 86, 66
1, 130791, Note_on_c, 0, 87, 61
1, 130792, Note_on_c, 0, 51, 70
1, 130796, Note_on_c, 0, 43, 53
1, 130809, Note_off_c, 0, 87, 62
1, 130831, Note_off_c, 0, 51, 61
1, 130836, Note_off_c, 0, 43, 49
1, 130906, Note_on_c, 0, 58, 89
1, 130963, Note_off_c, 0, 58, 64
1, 130986, Note_on_c, 0, 94, 29
1, 130996, Poly_aftertouch_c, 0, 46, 127
1, 131027, Note_on_c, 0, 51, 77
1, 131028, Note_on_c, 0, 43, 65
1, 131028, Note_off_c, 0, 94, 47
1, 131037, Note_on_c, 0, 98, 64
1, 131040, Poly_aftertouch_c, 0, 46, 0
1, 131050, Note_on_c, 0, 99, 80
1, 131055, Note_off_c, 0, 43, 63
1, 131059, Note_off_c, 0, 51, 66
1, 131063, Note_off_c, 0, 98, 67
1, 131079, Note_off_c, 0, 99, 69
1, 131136, Control_c, 0, 64, 117
1, 131151, Control_c, 0, 64, 93
1, 131168, Control_c, 0, 64, 72
1, 131170, Note_on_c, 0, 63, 91
1, 131183, Control_c, 0, 64, 0
1, 131204, Note_off_c, 0, 63, 67
1, 131296, Note_on_c, 0, 62, 94
1, 131339, Note_off_c, 0, 62, 62
1, 131426, Note_on_c, 0, 60, 93
1, 131441, Control_c, 0, 64, 66
1, 131456, Control_c, 0, 64, 79
1, 131471, Control_c, 0, 64, 91
1, 131472, Note_off_c, 0, 60, 62
1, 131486, Control_c, 0, 64, 96
1, 131501, Control_c, 0, 64, 98
1, 131515, Control_c, 0, 64, 100
1, 131530, Control_c, 0, 64, 101
1, 131545, Control_c, 0, 64, 104
1, 131553, Note_on_c, 0, 71, 62
1, 131557, Note_on_c, 0, 51, 67
1, 131560, Control_c, 0, 64, 106
1, 131567, Note_on_c, 0, 44, 58
1, 131571, Note_on_c, 0, 65, 39
1, 131571, Note_on_c, 0, 72, 74
1, 131574, Control_c, 0, 64, 108
1, 131582, Note_off_c, 0, 71, 64
1, 131589, Control_c, 0, 64, 110
1, 131592, Note_off_c, 0, 51, 61
1, 131595, Note_off_c, 0, 72, 69
1, 131602, Note_off_c, 0, 65, 54
1, 131603, Note_off_c, 0, 44, 63
1, 131604, Control_c, 0, 64, 110
1, 131634, Control_c, 0, 64, 111
1, 131663, Control_c, 0, 64, 111
1, 131681, Note_on_c, 0, 60, 85
1, 131708, Control_c, 0, 64, 112
1, 131720, Note_off_c, 0, 60, 64
1, 131767, Control_c, 0, 64, 112
1, 131781, Note_on_c, 0, 77, 45
1, 131791, Note_on_c, 0, 83, 60
1, 131792, Note_on_c, 0, 51, 72
1, 131795, Note_on_c, 0, 44, 71
1, 131797, Control_c, 0, 64, 113
1, 131808, Note_on_c, 0, 84, 86
1, 131809, Note_off_c, 0, 77, 61
1, 131819, Note_off_c, 0, 83, 64
1, 131827, Control_c, 0, 64, 114
1, 131832, Note_off_c, 0, 84, 67
1, 131835, Note_off_c, 0, 51, 59
1, 131841, Control_c, 0, 64, 114
1, 131848, Note_off_c, 0, 44, 56
1, 131856, Control_c, 0, 64, 115
1, 131871, Control_c, 0, 64, 116
1, 131886, Control_c, 0, 64, 117
1, 131901, Control_c, 0, 64, 119
1, 131915, Control_c, 0, 64, 122
1, 131923, Note_on_c, 0, 60, 86
1, 131930, Control_c, 0, 64, 127
1, 131952, Control_c, 0, 64, 127
1, 131968, Note_off_c, 0, 60, 65
1, 132003, Note_on_c, 0, 89, 51
1, 132047, Note_on_c, 0, 95, 70
1, 132053, Note_on_c, 0, 51, 77
1, 132059, Note_off_c, 0, 89, 62
1, 132069, Note_on_c, 0, 44, 70
1, 132072, Note_on_c, 0, 96, 87
1, 132079, Note_off_c, 0, 95, 67
1, 132085, Note_off_c, 0, 51, 59
1, 132093, Note_off_c, 0, 96, 67
1, 132100, Note_off_c, 0, 44, 65
1, 132116, Control_c, 0, 64, 121
1, 132131, Control_c, 0, 64, 93
1, 132146, Control_c, 0, 64, 68
1, 132161, Control_c, 0, 64, 0
1, 132202, Note_on_c, 0, 58, 80
1, 132258, Note_off_c, 0, 58, 63
1, 132261, Note_on_c, 0, 56, 77
1, 132295, Note_off_c, 0, 56, 63
1, 132313, Note_on_c, 0, 55, 69
1, 132345, Note_off_c, 0, 55, 61
1, 132353, Note_on_c, 0, 53, 78
1, 132370, Poly_aftertouch_c, 0, 55, 0
1, 132393, Note_off_c, 0, 53, 56
1, 132432, Note_on_c, 0, 58, 84
1, 132442, Control_c, 0, 64, 71
1, 132457, Control_c, 0, 64, 77
1, 132471, Control_c, 0, 64, 80
1, 132501, Control_c, 0, 64, 80
1, 132505, Note_off_c, 0, 58, 64
1, 132508, Note_on_c, 0, 70, 60
1, 132516, Control_c, 0, 64, 81
1, 132516, Note_on_c, 0, 74, 60
1, 132531, Note_off_c, 0, 70, 65
1, 132531, Control_c, 0, 64, 83
1, 132531, Note_on_c, 0, 51, 65
1, 132533, Note_on_c, 0, 43, 72
1, 132536, Note_on_c, 0, 75, 80
1, 132541, Note_off_c, 0, 74, 71
1, 132545, Control_c, 0, 64, 86
1, 132557, Note_off_c, 0, 75, 73
1, 132560, Control_c, 0, 64, 90
1, 132562, Note_off_c, 0, 51, 65
1, 132573, Note_off_c, 0, 43, 62
1, 132575, Control_c, 0, 64, 92
1, 132590, Control_c, 0, 64, 93
1, 132660, Note_on_c, 0, 58, 87
1, 132716, Note_off_c, 0, 58, 65
1, 132763, Note_on_c, 0, 82, 56
1, 132772, Note_on_c, 0, 86, 84
1, 132776, Control_c, 0, 64, 92
1, 132791, Control_c, 0, 64, 87
1, 132794, Note_on_c, 0, 87, 90
1, 132796, Note_on_c, 0, 51, 76
1, 132797, Note_off_c, 0, 82, 67
1, 132804, Note_on_c, 0, 43, 64
1, 132805, Note_off_c, 0, 86, 66
1, 132806, Control_c, 0, 64, 79
1, 132820, Control_c, 0, 64, 68
1, 132822, Note_off_c, 0, 87, 67
1, 132835, Control_c, 0, 64, 49
1, 132844, Note_off_c, 0, 43, 58
1, 132844, Note_off_c, 0, 51, 61
1, 132850, Control_c, 0, 64, 43
1, 132865, Control_c, 0, 64, 62
1, 132880, Control_c, 0, 64, 68
1, 132894, Control_c, 0, 64, 74
1, 132909, Control_c, 0, 64, 79
1, 132924, Control_c, 0, 64, 82
1, 132933, Note_on_c, 0, 58, 83
1, 132939, Control_c, 0, 64, 83
1, 132954, Control_c, 0, 64, 84
1, 132969, Control_c, 0, 64, 85
1, 132984, Control_c, 0, 64, 86
1, 132989, Note_off_c, 0, 58, 64
1, 132999, Control_c, 0, 64, 87
1, 133012, Note_on_c, 0, 94, 43
1, 133013, Control_c, 0, 64, 89
1, 133028, Control_c, 0, 64, 90
1, 133043, Control_c, 0, 64, 92
1, 133053, Note_on_c, 0, 99, 77
1, 133058, Control_c, 0, 64, 92
1, 133066, Note_on_c, 0, 51, 74
1, 133066, Note_off_c, 0, 94, 56
1, 133073, Control_c, 0, 64, 93
1, 133079, Note_on_c, 0, 43, 53
1, 133079, Note_on_c, 0, 98, 78
1, 133087, Control_c, 0, 64, 93
1, 133093, Note_off_c, 0, 98, 69
1, 133096, Note_off_c, 0, 51, 64
1, 133103, Control_c, 0, 64, 94
1, 133103, Note_off_c, 0, 99, 72
1, 133108, Note_off_c, 0, 43, 55
1, 133177, Control_c, 0, 64, 93
1, 133192, Control_c, 0, 64, 90
1, 133207, Control_c, 0, 64, 82
1, 133221, Control_c, 0, 64, 66
1, 133236, Control_c, 0, 64, 0
1, 133254, Note_on_c, 0, 86, 62
1, 133279, Note_off_c, 0, 86, 61
1, 133294, Note_on_c, 0, 87, 71
1, 133341, Note_on_c, 0, 91, 66
1, 133353, Note_off_c, 0, 87, 63
1, 133379, Note_on_c, 0, 94, 72
1, 133394, Note_off_c, 0, 91, 60
1, 133422, Note_on_c, 0, 96, 87
1, 133422, Note_off_c, 0, 94, 67
1, 133428, Note_on_c, 0, 44, 67
1, 133438, Note_on_c, 0, 50, 62
1, 133460, Note_off_c, 0, 50, 64
1, 133463, Note_off_c, 0, 44, 65
1, 133489, Note_off_c, 0, 96, 65
1, 133493, Note_on_c, 0, 92, 62
1, 133558, Note_on_c, 0, 51, 61
1, 133566, Note_on_c, 0, 91, 67
1, 133589, Note_off_c, 0, 51, 64
1, 133591, Note_off_c, 0, 92, 53
1, 133604, Note_off_c, 0, 91, 60
1, 133619, Note_on_c, 0, 89, 58
1, 133638, Note_off_c, 0, 89, 65
1, 133660, Note_on_c, 0, 84, 72
1, 133678, Note_on_c, 0, 52, 61
1, 133684, Note_off_c, 0, 84, 71
1, 133708, Note_off_c, 0, 52, 68
1, 133735, Note_on_c, 0, 80, 73
1, 133794, Note_on_c, 0, 53, 59
1, 133801, Note_on_c, 0, 79, 55
1, 133824, Note_off_c, 0, 53, 67
1, 133827, Note_off_c, 0, 80, 42
1, 133845, Note_off_c, 0, 79, 62
1, 133854, Note_on_c, 0, 77, 68
1, 133878, Note_off_c, 0, 77, 68
1, 133904, Note_on_c, 0, 55, 66
1, 133912, Note_on_c, 0, 72, 74
1, 133936, Note_off_c, 0, 55, 63
1, 133947, Note_off_c, 0, 72, 62
1, 133985, Note_on_c, 0, 68, 76
1, 134020, Note_on_c, 0, 56, 53
1, 134034, Note_on_c, 0, 67, 57
1, 134042, Note_off_c, 0, 56, 56
1, 134081, Note_on_c, 0, 65, 83
1, 134081, Note_off_c, 0, 67, 64
1, 134087, Note_off_c, 0, 68, 59
1, 134102, Note_off_c, 0, 65, 72
1, 134147, Control_c, 0, 64, 53
1, 134149, Note_on_c, 0, 60, 72
1, 134161, Control_c, 0, 64, 71
1, 134164, Note_off_c, 0, 60, 65
1, 134176, Control_c, 0, 64, 82
1, 134199, Control_c, 0, 64, 92
1, 134214, Control_c, 0, 64, 99
1, 134229, Control_c, 0, 64, 106
1, 134235, Note_on_c, 0, 88, 81
1, 134243, Control_c, 0, 64, 111
1, 134258, Control_c, 0, 64, 117
1, 134273, Control_c, 0, 64, 123
1, 134280, Note_off_c, 0, 88, 63
1, 134288, Control_c, 0, 64, 127
1, 134290, Note_on_c, 0, 89, 72
1, 134347, Note_on_c, 0, 92, 65
1, 134351, Note_off_c, 0, 89, 63
1, 134367, Note_on_c, 0, 93, 70
1, 134379, Note_off_c, 0, 92, 48
1, 134384, Note_off_c, 0, 93, 62
1, 134386, Note_on_c, 0, 50, 84
1, 134391, Note_on_c, 0, 43, 71
1, 134406, Note_on_c, 0, 94, 79
1, 134409, Note_off_c, 0, 50, 69
1, 134414, Note_off_c, 0, 43, 65
1, 134422, Control_c, 0, 64, 96
1, 134437, Control_c, 0, 64, 69
1, 134452, Control_c, 0, 64, 0
1, 134466, Note_off_c, 0, 94, 64
1, 134470, Note_on_c, 0, 91, 72
1, 134495, Note_off_c, 0, 91, 64
1, 134512, Note_on_c, 0, 51, 69
1, 134524, Note_on_c, 0, 89, 79
1, 134546, Note_off_c, 0, 51, 60
1, 134546, Note_off_c, 0, 89, 67
1, 134598, Note_on_c, 0, 87, 69
1, 134643, Note_on_c, 0, 54, 64
1, 134648, Note_off_c, 0, 87, 63
1, 134653, Note_on_c, 0, 82, 80
1, 134671, Note_off_c, 0, 54, 63
1, 134718, Note_off_c, 0, 82, 62
1, 134729, Note_on_c, 0, 79, 67
1, 134757, Note_off_c, 0, 79, 64
1, 134772, Note_on_c, 0, 77, 74
1, 134778, Note_on_c, 0, 55, 57
1, 134793, Note_off_c, 0, 77, 68
1, 134800, Note_off_c, 0, 55, 63
1, 134832, Note_on_c, 0, 75, 75
1, 134887, Note_on_c, 0, 57, 61
1, 134891, Note_on_c, 0, 70, 83
1, 134892, Note_off_c, 0, 75, 65
1, 134921, Note_off_c, 0, 57, 62
1, 134963, Note_on_c, 0, 67, 69
1, 134964, Note_off_c, 0, 70, 62
1, 134988, Note_off_c, 0, 67, 66
1, 135010, Note_on_c, 0, 65, 81
1, 135029, Note_on_c, 0, 58, 48
1, 135068, Note_off_c, 0, 58, 66
1, 135074, Note_off_c, 0, 65, 64
1, 135076, Note_on_c, 0, 63, 73
1, 135103, Note_off_c, 0, 63, 68
1, 135154, Note_on_c, 0, 63, 76
1, 135171, Note_off_c, 0, 63, 67
1, 135171, Control_c, 0, 64, 75
1, 135186, Control_c, 0, 64, 86
1, 135201, Control_c, 0, 64, 98
1, 135215, Control_c, 0, 64, 109
1, 135230, Control_c, 0, 64, 127
1, 135231, Note_on_c, 0, 91, 88
1, 135282, Note_off_c, 0, 91, 58
1, 135291, Note_on_c, 0, 92, 78
1, 135347, Note_on_c, 0, 94, 79
1, 135348, Note_off_c, 0, 92, 65
1, 135376, Note_on_c, 0, 44, 82
1, 135383, Note_on_c, 0, 50, 81
1, 135386, Note_on_c, 0, 96, 79
1, 135387, Note_off_c, 0, 94, 65
1, 135407, Note_off_c, 0, 44, 67
1, 135407, Note_off_c, 0, 50, 69
1, 135408, Control_c, 0, 64, 110
1, 135422, Control_c, 0, 64, 78
1, 135437, Control_c, 0, 64, 0
1, 135447, Note_off_c, 0, 96, 63
1, 135458, Note_on_c, 0, 92, 77
1, 135502, Note_on_c, 0, 51, 68
1, 135521, Note_on_c, 0, 91, 67
1, 135529, Note_off_c, 0, 51, 65
1, 135539, Note_off_c, 0, 92, 61
1, 135554, Note_off_c, 0, 91, 61
1, 135563, Note_on_c, 0, 89, 71
1, 135589, Note_off_c, 0, 89, 67
1, 135619, Note_on_c, 0, 84, 72
1, 135645, Note_off_c, 0, 84, 68
1, 135646, Note_on_c, 0, 52, 67
1, 135672, Note_off_c, 0, 52, 66
1, 135700, Note_on_c, 0, 80, 76
1, 135768, Note_on_c, 0, 79, 59
1, 135801, Note_on_c, 0, 53, 29
1, 135810, Note_off_c, 0, 79, 64
1, 135811, Note_off_c, 0, 80, 59
1, 135818, Note_on_c, 0, 77, 72
1, 135837, Note_off_c, 0, 53, 31
1, 135843, Note_off_c, 0, 77, 68
1, 135872, Note_on_c, 0, 72, 71
1, 135891, Note_on_c, 0, 55, 55
1, 135904, Note_off_c, 0, 72, 62
1, 135926, Note_off_c, 0, 55, 64
1, 135942, Note_on_c, 0, 68, 78
1, 136002, Note_on_c, 0, 67, 50
1, 136004, Note_on_c, 0, 56, 56
1, 136042, Note_off_c, 0, 56, 63
1, 136042, Note_off_c, 0, 67, 67
1, 136043, Note_off_c, 0, 68, 62
1, 136045, Note_on_c, 0, 65, 74
1, 136070, Note_off_c, 0, 65, 71
1, 136083, Control_c, 0, 64, 68
1, 136099, Control_c, 0, 64, 80
1, 136113, Control_c, 0, 64, 98
1, 136125, Note_on_c, 0, 60, 67
1, 136128, Control_c, 0, 64, 127
1, 136143, Note_off_c, 0, 60, 62
1, 136193, Note_on_c, 0, 88, 76
1, 136248, Note_off_c, 0, 88, 63
1, 136251, Note_on_c, 0, 89, 77
1, 136304, Note_off_c, 0, 89, 63
1, 136307, Note_on_c, 0, 92, 77
1, 136335, Control_c, 0, 64, 102
1, 136344, Note_on_c, 0, 43, 66
1, 136346, Note_on_c, 0, 50, 67
1, 136350, Control_c, 0, 64, 73
1, 136355, Note_off_c, 0, 92, 66
1, 136364, Note_on_c, 0, 94, 79
1, 136364, Control_c, 0, 64, 0
1, 136372, Note_off_c, 0, 50, 67
1, 136373, Note_off_c, 0, 43, 63
1, 136421, Note_on_c, 0, 91, 75
1, 136422, Note_off_c, 0, 94, 66
1, 136456, Note_off_c, 0, 91, 62
1, 136482, Note_on_c, 0, 51, 68
1, 136483, Note_on_c, 0, 89, 73
1, 136506, Note_off_c, 0, 89, 70
1, 136516, Note_off_c, 0, 51, 61
1, 136559, Note_on_c, 0, 87, 67
1, 136602, Note_off_c, 0, 87, 65
1, 136606, Note_on_c, 0, 82, 74
1, 136614, Note_on_c, 0, 54, 59
1, 136646, Note_off_c, 0, 54, 61
1, 136665, Note_on_c, 0, 79, 78
1, 136672, Note_off_c, 0, 82, 64
1, 136700, Note_off_c, 0, 79, 64
1, 136717, Note_on_c, 0, 77, 76
1, 136728, Note_on_c, 0, 55, 64
1, 136749, Note_off_c, 0, 77, 52
1, 136755, Note_off_c, 0, 55, 66
1, 136784, Note_on_c, 0, 75, 74
1, 136835, Note_on_c, 0, 57, 67
1, 136841, Note_off_c, 0, 75, 66
1, 136842, Note_on_c, 0, 70, 83
1, 136875, Note_off_c, 0, 57, 61
1, 136892, Note_on_c, 0, 67, 83
1, 136906, Note_off_c, 0, 70, 62
1, 136934, Note_off_c, 0, 67, 59
1, 136948, Note_on_c, 0, 65, 86
1, 136973, Note_on_c, 0, 58, 67
1, 137002, Note_off_c, 0, 65, 64
1, 137009, Note_on_c, 0, 63, 81
1, 137011, Note_off_c, 0, 58, 64
1, 137030, Note_off_c, 0, 63, 67
1, 137087, Note_on_c, 0, 63, 87
1, 137106, Note_off_c, 0, 63, 71
1, 137128, Control_c, 0, 64, 64
1, 137143, Control_c, 0, 64, 78
1, 137158, Control_c, 0, 64, 94
1, 137173, Control_c, 0, 64, 108
1, 137195, Control_c, 0, 64, 113
1, 137210, Control_c, 0, 64, 114
1, 137225, Control_c, 0, 64, 114
1, 137240, Control_c, 0, 64, 115
1, 137249, Note_on_c, 0, 67, 58
1, 137255, Control_c, 0, 64, 115
1, 137269, Control_c, 0, 64, 116
1, 137270, Note_on_c, 0, 58, 33
1, 137278, Note_off_c, 0, 67, 65
1, 137302, Note_off_c, 0, 58, 49
1, 137313, Control_c, 0, 64, 115
1, 137328, Control_c, 0, 64, 103
1, 137343, Control_c, 0, 64, 81
1, 137358, Control_c, 0, 64, 0
1, 137368, Note_on_c, 0, 51, 49
1, 137390, Note_on_c, 0, 66, 65
1, 137392, Note_on_c, 0, 44, 18
1, 137395, Note_off_c, 0, 51, 57
1, 137426, Note_off_c, 0, 66, 63
1, 137434, Note_off_c, 0, 44, 40
1, 137502, Note_on_c, 0, 52, 54
1, 137519, Note_on_c, 0, 60, 49
1, 137524, Note_on_c, 0, 67, 46
1, 137527, Note_off_c, 0, 52, 65
1, 137543, Note_off_c, 0, 60, 58
1, 137547, Note_off_c, 0, 67, 58
1, 137641, Note_on_c, 0, 51, 48
1, 137652, Note_on_c, 0, 66, 61
1, 137667, Note_off_c, 0, 51, 58
1, 137670, Note_on_c, 0, 44, 11
1, 137685, Note_off_c, 0, 66, 64
1, 137714, Note_off_c, 0, 44, 29
1, 137771, Note_on_c, 0, 60, 62
1, 137772, Note_on_c, 0, 52, 54
1, 137776, Note_on_c, 0, 67, 59
1, 137777, Note_on_c, 0, 72, 52
1, 137797, Note_off_c, 0, 52, 64
1, 137797, Note_off_c, 0, 60, 62
1, 137797, Note_off_c, 0, 72, 61
1, 137801, Note_off_c, 0, 67, 64
1, 137898, Note_on_c, 0, 51, 63
1, 137902, Note_on_c, 0, 66, 81
1, 137911, Note_on_c, 0, 44, 55
1, 137935, Note_off_c, 0, 51, 64
1, 137947, Note_off_c, 0, 44, 62
1, 137954, Note_off_c, 0, 66, 63
1, 138035, Note_on_c, 0, 60, 64
1, 138037, Note_on_c, 0, 52, 54
1, 138037, Note_on_c, 0, 67, 62
1, 138042, Note_on_c, 0, 72, 49
1, 138060, Note_off_c, 0, 60, 62
1, 138060, Note_off_c, 0, 67, 62
1, 138064, Note_off_c, 0, 72, 60
1, 138066, Note_off_c, 0, 52, 67
1, 138160, Note_on_c, 0, 44, 63
1, 138161, Note_on_c, 0, 49, 58
1, 138162, Note_on_c, 0, 64, 75
1, 138185, Note_off_c, 0, 49, 60
1, 138190, Note_off_c, 0, 44, 65
1, 138214, Note_off_c, 0, 64, 63
1, 138281, Note_on_c, 0, 66, 83
1, 138290, Note_on_c, 0, 50, 72
1, 138295, Note_on_c, 0, 70, 68
1, 138296, Note_on_c, 0, 58, 62
1, 138322, Note_off_c, 0, 66, 65
1, 138324, Note_off_c, 0, 50, 64
1, 138325, Note_off_c, 0, 58, 66
1, 138330, Note_off_c, 0, 70, 59
1, 138421, Note_on_c, 0, 65, 84
1, 138428, Note_on_c, 0, 43, 65
1, 138429, Note_on_c, 0, 50, 65
1, 138459, Note_off_c, 0, 50, 66
1, 138460, Note_off_c, 0, 43, 62
1, 138468, Note_off_c, 0, 65, 64
1, 138544, Note_on_c, 0, 51, 69
1, 138551, Note_on_c, 0, 67, 68
1, 138559, Note_on_c, 0, 58, 58
1, 138560, Note_on_c, 0, 70, 48
1, 138574, Note_off_c, 0, 51, 62
1, 138586, Note_off_c, 0, 58, 65
1, 138593, Note_off_c, 0, 70, 55
1, 138594, Note_off_c, 0, 67, 63
1, 138704, Note_on_c, 0, 65, 70
1, 138705, Note_on_c, 0, 50, 52
1, 138713, Note_on_c, 0, 43, 40
1, 138730, Note_off_c, 0, 50, 59
1, 138737, Note_off_c, 0, 65, 63
1, 138750, Note_off_c, 0, 43, 47
1, 138828, Note_on_c, 0, 51, 62
1, 138829, Note_on_c, 0, 67, 63
1, 138831, Note_on_c, 0, 70, 58
1, 138837, Note_on_c, 0, 58, 54
1, 138859, Note_off_c, 0, 51, 64
1, 138859, Note_off_c, 0, 58, 62
1, 138859, Note_off_c, 0, 67, 64
1, 138859, Note_off_c, 0, 70, 61
1, 138958, Note_on_c, 0, 65, 72
1, 138966, Note_on_c, 0, 50, 58
1, 138992, Note_off_c, 0, 50, 64
1, 138994, Note_off_c, 0, 65, 63
1, 138996, Note_on_c, 0, 43, 25
1, 139039, Note_off_c, 0, 43, 44
1, 139078, Note_on_c, 0, 67, 57
1, 139083, Note_on_c, 0, 58, 52
1, 139089, Note_on_c, 0, 70, 46
1, 139095, Note_on_c, 0, 51, 59
1, 139099, Note_off_c, 0, 67, 64
1, 139106, Note_off_c, 0, 58, 60
1, 139113, Note_off_c, 0, 70, 54
1, 139127, Note_off_c, 0, 51, 64
1, 139214, Note_on_c, 0, 62, 76
1, 139235, Note_on_c, 0, 47, 48
1, 139248, Note_off_c, 0, 62, 59
1, 139263, Note_off_c, 0, 47, 58
1, 139354, Note_on_c, 0, 63, 36
1, 139359, Note_on_c, 0, 48, 58
1, 139369, Note_on_c, 0, 67, 19
1, 139383, Note_off_c, 0, 48, 61
1, 139384, Note_off_c, 0, 63, 35
1, 139408, Note_off_c, 0, 67, 30
1, 139485, Note_on_c, 0, 66, 73
1, 139496, Note_on_c, 0, 51, 48
1, 139500, Note_on_c, 0, 44, 48
1, 139522, Note_off_c, 0, 51, 57
1, 139530, Note_off_c, 0, 44, 59
1, 139534, Note_off_c, 0, 66, 58
1, 139604, Note_on_c, 0, 60, 66
1, 139607, Note_on_c, 0, 52, 59
1, 139612, Note_on_c, 0, 72, 54
1, 139615, Note_on_c, 0, 67, 57
1, 139626, Note_on_c, 0, 44, 34
1, 139633, Note_off_c, 0, 60, 66
1, 139635, Note_off_c, 0, 72, 60
1, 139640, Note_off_c, 0, 52, 67
1, 139644, Note_off_c, 0, 67, 63
1, 139657, Note_off_c, 0, 44, 45
1, 139741, Note_on_c, 0, 44, 58
1, 139741, Note_on_c, 0, 66, 76
1, 139743, Note_on_c, 0, 51, 60
1, 139774, Note_off_c, 0, 51, 64
1, 139777, Note_off_c, 0, 44, 61
1, 139797, Note_off_c, 0, 66, 64
1, 139868, Note_on_c, 0, 60, 73
1, 139869, Note_on_c, 0, 52, 63
1, 139873, Note_on_c, 0, 67, 67
1, 139875, Note_on_c, 0, 72, 62
1, 139897, Note_off_c, 0, 60, 64
1, 139901, Note_off_c, 0, 72, 59
1, 139902, Note_off_c, 0, 52, 67
1, 139906, Note_off_c, 0, 67, 63
1, 139998, Note_on_c, 0, 51, 67
1, 140000, Note_on_c, 0, 66, 84
1, 140013, Note_on_c, 0, 44, 54
1, 140031, Note_off_c, 0, 51, 62
1, 140045, Note_off_c, 0, 44, 65
1, 140060, Note_off_c, 0, 66, 64
1, 140128, Note_on_c, 0, 67, 69
1, 140133, Note_on_c, 0, 52, 71
1, 140133, Note_on_c, 0, 60, 69
1, 140152, Note_on_c, 0, 72, 28
1, 140161, Note_off_c, 0, 60, 68
1, 140163, Note_off_c, 0, 67, 62
1, 140165, Note_off_c, 0, 52, 68
1, 140193, Note_off_c, 0, 72, 34
1, 140260, Note_on_c, 0, 64, 77
1, 140267, Note_on_c, 0, 44, 45
1, 140267, Note_on_c, 0, 49, 62
1, 140298, Note_off_c, 0, 49, 63
1, 140310, Note_off_c, 0, 44, 65
1, 140314, Note_off_c, 0, 64, 64
1, 140386, Note_on_c, 0, 50, 64
1, 140387, Note_on_c, 0, 58, 67
1, 140387, Note_on_c, 0, 65, 69
1, 140391, Note_on_c, 0, 70, 66
1, 140415, Note_off_c, 0, 65, 69
1, 140415, Note_off_c, 0, 58, 67
1, 140417, Note_off_c, 0, 50, 64
1, 140431, Note_off_c, 0, 70, 59
1, 140513, Note_on_c, 0, 65, 79
1, 140514, Note_on_c, 0, 50, 62
1, 140522, Note_on_c, 0, 43, 58
1, 140558, Note_off_c, 0, 43, 62
1, 140558, Note_off_c, 0, 50, 64
1, 140573, Note_off_c, 0, 65, 65
1, 140644, Note_on_c, 0, 51, 67
1, 140651, Note_on_c, 0, 67, 69
1, 140653, Note_on_c, 0, 58, 67
1, 140659, Note_on_c, 0, 70, 58
1, 140674, Note_off_c, 0, 51, 62
1, 140684, Note_off_c, 0, 58, 66
1, 140694, Note_off_c, 0, 67, 63
1, 140694, Note_off_c, 0, 70, 61
1, 140782, Note_on_c, 0, 50, 67
1, 140782, Note_on_c, 0, 43, 60
1, 140782, Note_on_c, 0, 65, 81
1, 140819, Note_off_c, 0, 50, 61
1, 140822, Note_off_c, 0, 43, 62
1, 140839, Note_off_c, 0, 65, 65
1, 140906, Note_on_c, 0, 51, 74
1, 140912, Note_on_c, 0, 58, 66
1, 140913, Note_on_c, 0, 67, 65
1, 140931, Note_on_c, 0, 70, 53
1, 140950, Note_off_c, 0, 58, 65
1, 140955, Note_off_c, 0, 51, 62
1, 140961, Note_off_c, 0, 70, 54
1, 140964, Note_off_c, 0, 67, 63
1, 141035, Note_on_c, 0, 65, 78
1, 141049, Note_on_c, 0, 50, 65
1, 141062, Note_on_c, 0, 43, 50
1, 141084, Note_off_c, 0, 50, 63
1, 141091, Note_off_c, 0, 65, 65
1, 141095, Note_off_c, 0, 43, 56
1, 141157, Note_on_c, 0, 67, 76
1, 141159, Note_on_c, 0, 58, 71
1, 141160, Note_on_c, 0, 51, 82
1, 141172, Note_on_c, 0, 70, 52
1, 141182, Note_off_c, 0, 67, 69
1, 141185, Note_off_c, 0, 58, 68
1, 141195, Note_off_c, 0, 70, 59
1, 141203, Note_off_c, 0, 51, 59
1, 141298, Note_on_c, 0, 62, 99
1, 141306, Note_on_c, 0, 47, 60
1, 141306, Note_on_c, 0, 43, 57
1, 141343, Note_off_c, 0, 62, 61
1, 141351, Note_off_c, 0, 47, 64
1, 141374, Note_off_c, 0, 43, 60
1, 141431, Note_on_c, 0, 67, 76
1, 141433, Note_on_c, 0, 55, 74
1, 141434, Note_on_c, 0, 63, 67
1, 141451, Note_off_c, 0, 55, 66
1, 141452, Note_off_c, 0, 63, 65
1, 141453, Note_off_c, 0, 67, 69
1, 141589, Note_on_c, 0, 32, 81
1, 141597, Note_on_c, 0, 44, 83
1, 141605, Note_on_c, 0, 38, 62
1, 141625, Note_off_c, 0, 32, 66
1, 141628, Note_off_c, 0, 44, 69
1, 141634, Note_off_c, 0, 38, 62
1, 141635, Control_c, 0, 64, 62
1, 141649, Control_c, 0, 64, 74
1, 141672, Control_c, 0, 64, 86
1, 141687, Control_c, 0, 64, 95
1, 141702, Control_c, 0, 64, 99
1, 141717, Control_c, 0, 64, 100
1, 141731, Control_c, 0, 64, 102
1, 141746, Control_c, 0, 64, 103
1, 141761, Control_c, 0, 64, 105
1, 141772, Note_on_c, 0, 60, 89
1, 141772, Note_on_c, 0, 72, 92
1, 141776, Control_c, 0, 64, 108
1, 141791, Control_c, 0, 64, 109
1, 141806, Note_off_c, 0, 60, 67
1, 141806, Control_c, 0, 64, 112
1, 141821, Control_c, 0, 64, 115
1, 141832, Note_off_c, 0, 72, 70
1, 141836, Control_c, 0, 64, 118
1, 141850, Control_c, 0, 64, 120
1, 141865, Control_c, 0, 64, 123
1, 141880, Control_c, 0, 64, 127
1, 141911, Note_on_c, 0, 44, 78
1, 141917, Note_on_c, 0, 56, 87
1, 141920, Note_on_c, 0, 50, 74
1, 141941, Note_off_c, 0, 44, 67
1, 141944, Note_off_c, 0, 50, 67
1, 141949, Note_off_c, 0, 56, 65
1, 142047, Note_on_c, 0, 84, 90
1, 142048, Note_on_c, 0, 72, 94
1, 142085, Note_off_c, 0, 72, 67
1, 142087, Note_off_c, 0, 84, 69
1, 142168, Note_on_c, 0, 56, 91
1, 142172, Note_on_c, 0, 62, 96
1, 142172, Note_on_c, 0, 68, 96
1, 142190, Note_off_c, 0, 68, 72
1, 142204, Note_off_c, 0, 62, 68
1, 142210, Note_off_c, 0, 56, 67
1, 142366, Note_on_c, 0, 68, 89
1, 142366, Note_on_c, 0, 80, 88
1, 142385, Control_c, 0, 64, 95
1, 142399, Control_c, 0, 64, 62
1, 142402, Note_off_c, 0, 68, 68
1, 142408, Note_off_c, 0, 80, 66
1, 142414, Control_c, 0, 64, 0
1, 142463, Note_on_c, 0, 79, 89
1, 142464, Note_on_c, 0, 67, 87
1, 142482, Note_off_c, 0, 67, 71
1, 142493, Note_off_c, 0, 79, 60
1, 142591, Note_on_c, 0, 65, 83
1, 142591, Note_on_c, 0, 77, 86
1, 142604, Note_off_c, 0, 77, 71
1, 142610, Note_off_c, 0, 65, 69
1, 142722, Note_on_c, 0, 31, 74
1, 142722, Note_on_c, 0, 39, 82
1, 142726, Note_on_c, 0, 43, 80
1, 142746, Note_off_c, 0, 31, 65
1, 142754, Note_off_c, 0, 39, 69
1, 142756, Note_off_c, 0, 43, 63
1, 142777, Control_c, 0, 64, 79
1, 142792, Control_c, 0, 64, 93
1, 142806, Control_c, 0, 64, 106
1, 142821, Control_c, 0, 64, 109
1, 142837, Control_c, 0, 64, 116
1, 142852, Control_c, 0, 64, 126
1, 142861, Note_on_c, 0, 58, 97
1, 142863, Note_on_c, 0, 70, 94
1, 142867, Control_c, 0, 64, 127
1, 142897, Note_on_c, 0, 66, 34
1, 142897, Note_off_c, 0, 58, 68
1, 142912, Note_off_c, 0, 70, 68
1, 142928, Note_off_c, 0, 66, 53
1, 143002, Note_on_c, 0, 43, 67
1, 143002, Note_on_c, 0, 51, 78
1, 143006, Note_on_c, 0, 55, 75
1, 143030, Note_off_c, 0, 43, 64
1, 143031, Note_off_c, 0, 55, 68
1, 143032, Note_off_c, 0, 51, 66
1, 143131, Note_on_c, 0, 70, 98
1, 143131, Note_on_c, 0, 82, 95
1, 143158, Note_on_c, 0, 83, 63
1, 143182, Note_off_c, 0, 83, 63
1, 143215, Note_off_c, 0, 82, 63
1, 143221, Note_off_c, 0, 70, 58
1, 143286, Note_on_c, 0, 63, 94
1, 143288, Note_on_c, 0, 55, 82
1, 143288, Note_on_c, 0, 67, 87
1, 143306, Note_off_c, 0, 67, 72
1, 143319, Note_off_c, 0, 63, 68
1, 143326, Note_off_c, 0, 55, 66
1, 143474, Note_on_c, 0, 67, 83
1, 143479, Note_on_c, 0, 79, 79
1, 143498, Note_off_c, 0, 67, 68
1, 143502, Note_off_c, 0, 79, 67
1, 143512, Control_c, 0, 64, 113
1, 143527, Control_c, 0, 64, 78
1, 143542, Control_c, 0, 64, 0
1, 143556, Note_on_c, 0, 77, 89
1, 143575, Note_on_c, 0, 65, 63
1, 143579, Note_off_c, 0, 77, 64
1, 143595, Note_off_c, 0, 65, 64
1, 143624, Note_on_c, 0, 67, 6
1, 143655, Note_off_c, 0, 67, 27
1, 143681, Note_on_c, 0, 75, 84
1, 143682, Note_on_c, 0, 63, 85
1, 143700, Note_off_c, 0, 75, 73
1, 143704, Note_off_c, 0, 63, 71
1, 143807, Note_on_c, 0, 32, 73
1, 143813, Note_on_c, 0, 44, 75
1, 143818, Note_on_c, 0, 38, 66
1, 143839, Note_off_c, 0, 32, 65
1, 143843, Note_off_c, 0, 44, 65
1, 143849, Note_off_c, 0, 38, 63
1, 143852, Control_c, 0, 64, 76
1, 143867, Control_c, 0, 64, 89
1, 143882, Control_c, 0, 64, 101
1, 143897, Control_c, 0, 64, 102
1, 143912, Control_c, 0, 64, 105
1, 143934, Control_c, 0, 64, 110
1, 143936, Poly_aftertouch_c, 0, 70, 127
1, 143950, Control_c, 0, 64, 119
1, 143958, Note_on_c, 0, 72, 92
1, 143959, Note_on_c, 0, 60, 94
1, 143965, Control_c, 0, 64, 127
1, 143992, Poly_aftertouch_c, 0, 70, 0
1, 144019, Note_off_c, 0, 60, 65
1, 144046, Note_off_c, 0, 72, 69
1, 144052, Poly_aftertouch_c, 0, 70, 0
1, 144095, Note_on_c, 0, 56, 88
1, 144096, Note_on_c, 0, 44, 76
1, 144097, Note_on_c, 0, 50, 76
1, 144119, Note_off_c, 0, 50, 69
1, 144120, Note_off_c, 0, 44, 67
1, 144123, Note_off_c, 0, 56, 65
1, 144233, Note_on_c, 0, 84, 96
1, 144234, Note_on_c, 0, 72, 98
1, 144280, Note_off_c, 0, 72, 66
1, 144282, Note_off_c, 0, 84, 71
1, 144376, Note_on_c, 0, 56, 89
1, 144381, Note_on_c, 0, 62, 92
1, 144381, Note_on_c, 0, 68, 95
1, 144400, Note_off_c, 0, 68, 72
1, 144410, Note_off_c, 0, 62, 65
1, 144416, Note_off_c, 0, 56, 68
1, 144578, Note_on_c, 0, 80, 88
1, 144581, Note_on_c, 0, 68, 85
1, 144621, Note_off_c, 0, 68, 62
1, 144623, Note_off_c, 0, 80, 66
1, 144645, Control_c, 0, 64, 89
1, 144660, Control_c, 0, 64, 0
1, 144670, Note_on_c, 0, 67, 91
1, 144672, Note_on_c, 0, 79, 91
1, 144691, Note_off_c, 0, 67, 69
1, 144699, Note_off_c, 0, 79, 64
1, 144799, Note_on_c, 0, 65, 91
1, 144799, Note_on_c, 0, 77, 91
1, 144817, Note_off_c, 0, 65, 75
1, 144818, Note_off_c, 0, 77, 70
1, 144928, Note_on_c, 0, 39, 77
1, 144931, Note_on_c, 0, 43, 75
1, 144934, Note_on_c, 0, 31, 58
1, 144958, Note_off_c, 0, 43, 64
1, 144961, Note_off_c, 0, 39, 66
1, 144963, Note_off_c, 0, 31, 55
1, 144964, Control_c, 0, 64, 60
1, 144979, Control_c, 0, 64, 82
1, 144994, Control_c, 0, 64, 94
1, 145009, Control_c, 0, 64, 103
1, 145023, Control_c, 0, 64, 107
1, 145038, Control_c, 0, 64, 112
1, 145053, Control_c, 0, 64, 119
1, 145058, Note_on_c, 0, 58, 93
1, 145064, Note_on_c, 0, 70, 90
1, 145068, Control_c, 0, 64, 127
1, 145095, Note_off_c, 0, 58, 67
1, 145104, Note_off_c, 0, 70, 66
1, 145197, Note_on_c, 0, 51, 84
1, 145200, Note_on_c, 0, 43, 66
1, 145201, Note_on_c, 0, 55, 77
1, 145229, Note_off_c, 0, 43, 64
1, 145229, Note_off_c, 0, 55, 67
1, 145237, Note_off_c, 0, 51, 62
1, 145345, Note_on_c, 0, 70, 102
1, 145346, Note_on_c, 0, 82, 95
1, 145479, Note_off_c, 0, 82, 64
1, 145488, Note_off_c, 0, 70, 62
1, 145500, Note_on_c, 0, 63, 96
1, 145503, Note_on_c, 0, 55, 79
1, 145506, Note_on_c, 0, 67, 77
1, 145524, Note_off_c, 0, 67, 68
1, 145530, Note_off_c, 0, 63, 64
1, 145536, Note_off_c, 0, 55, 66
1, 145695, Note_on_c, 0, 67, 70
1, 145697, Note_on_c, 0, 79, 83
1, 145733, Note_off_c, 0, 67, 66
1, 145734, Note_off_c, 0, 79, 61
1, 145762, Note_on_c, 0, 55, 72
1, 145766, Note_on_c, 0, 51, 63
1, 145787, Control_c, 0, 64, 88
1, 145792, Note_on_c, 0, 77, 95
1, 145793, Note_off_c, 0, 55, 65
1, 145794, Note_off_c, 0, 51, 65
1, 145795, Note_on_c, 0, 65, 90
1, 145802, Control_c, 0, 64, 0
1, 145812, Note_off_c, 0, 77, 65
1, 145815, Note_off_c, 0, 65, 70
1, 145899, Note_on_c, 0, 58, 83
1, 145901, Note_on_c, 0, 55, 72
1, 145905, Note_on_c, 0, 63, 96
1, 145905, Note_on_c, 0, 75, 90
1, 145920, Note_off_c, 0, 55, 69
1, 145925, Note_off_c, 0, 58, 61
1, 145928, Note_off_c, 0, 63, 67
1, 145929, Note_off_c, 0, 75, 66
1, 146035, Note_on_c, 0, 56, 81
1, 146037, Note_on_c, 0, 60, 82
1, 146058, Note_off_c, 0, 56, 70
1, 146058, Note_off_c, 0, 60, 71
1, 146085, Control_c, 0, 64, 65
1, 146099, Control_c, 0, 64, 89
1, 146114, Control_c, 0, 64, 111
1, 146129, Control_c, 0, 64, 119
1, 146143, Control_c, 0, 64, 121
1, 146158, Control_c, 0, 64, 126
1, 146180, Control_c, 0, 64, 127
1, 146205, Note_on_c, 0, 62, 72
1, 146247, Note_off_c, 0, 62, 58
1, 146317, Note_on_c, 0, 48, 61
1, 146322, Note_on_c, 0, 53, 55
1, 146327, Note_on_c, 0, 44, 56
1, 146329, Control_c, 0, 64, 99
1, 146338, Note_on_c, 0, 65, 82
1, 146344, Control_c, 0, 64, 71
1, 146359, Control_c, 0, 64, 0
1, 146368, Poly_aftertouch_c, 0, 64, 0
1, 146389, Note_off_c, 0, 65, 64
1, 146395, Note_on_c, 0, 67, 64
1, 146419, Control_c, 0, 64, 63
1, 146433, Control_c, 0, 64, 76
1, 146442, Note_off_c, 0, 67, 64
1, 146444, Note_on_c, 0, 68, 80
1, 146448, Control_c, 0, 64, 90
1, 146463, Control_c, 0, 64, 103
1, 146478, Control_c, 0, 64, 108
1, 146493, Control_c, 0, 64, 113
1, 146494, Note_on_c, 0, 70, 77
1, 146504, Note_off_c, 0, 68, 65
1, 146507, Control_c, 0, 64, 119
1, 146516, Note_off_c, 0, 70, 69
1, 146522, Control_c, 0, 64, 127
1, 146540, Note_off_c, 0, 44, 63
1, 146541, Note_off_c, 0, 48, 65
1, 146547, Note_on_c, 0, 72, 86
1, 146550, Note_off_c, 0, 53, 65
1, 146590, Note_off_c, 0, 72, 64
1, 146617, Note_on_c, 0, 74, 56
1, 146636, Note_off_c, 0, 74, 65
1, 146651, Note_on_c, 0, 75, 76
1, 146667, Note_off_c, 0, 75, 68
1, 146699, Note_on_c, 0, 77, 80
1, 146735, Note_on_c, 0, 79, 84
1, 146737, Note_off_c, 0, 77, 61
1, 146765, Note_on_c, 0, 80, 87
1, 146778, Note_off_c, 0, 79, 63
1, 146785, Note_on_c, 0, 82, 82
1, 146807, Note_on_c, 0, 53, 78
1, 146817, Note_off_c, 0, 80, 64
1, 146819, Note_on_c, 0, 84, 96
1, 146827, Note_on_c, 0, 50, 54
1, 146833, Control_c, 0, 64, 105
1, 146840, Note_off_c, 0, 82, 66
1, 146846, Note_off_c, 0, 84, 71
1, 146848, Control_c, 0, 64, 68
1, 146851, Note_off_c, 0, 50, 59
1, 146854, Note_off_c, 0, 53, 65
1, 146863, Control_c, 0, 64, 0
1, 146979, Note_on_c, 0, 53, 57
1, 147002, Note_off_c, 0, 53, 61
1, 147068, Note_on_c, 0, 55, 89
1, 147072, Note_on_c, 0, 58, 73
1, 147093, Note_off_c, 0, 55, 68
1, 147095, Note_off_c, 0, 58, 68
1, 147107, Control_c, 0, 64, 72
1, 147122, Control_c, 0, 64, 87
1, 147137, Control_c, 0, 64, 109
1, 147152, Control_c, 0, 64, 118
1, 147167, Control_c, 0, 64, 123
1, 147182, Control_c, 0, 64, 127
1, 147217, Note_on_c, 0, 60, 59
1, 147271, Note_on_c, 0, 62, 70
1, 147273, Note_off_c, 0, 60, 61
1, 147320, Note_off_c, 0, 62, 63
1, 147328, Note_on_c, 0, 63, 75
1, 147355, Note_off_c, 0, 63, 67
1, 147360, Control_c, 0, 64, 100
1, 147363, Note_on_c, 0, 46, 89
1, 147363, Note_on_c, 0, 51, 89
1, 147366, Note_on_c, 0, 43, 80
1, 147375, Control_c, 0, 64, 73
1, 147381, Note_on_c, 0, 65, 84
1, 147389, Control_c, 0, 64, 0
1, 147434, Control_c, 0, 64, 41
1, 147437, Note_off_c, 0, 65, 63
1, 147449, Control_c, 0, 64, 71
1, 147456, Note_on_c, 0, 67, 68
1, 147463, Control_c, 0, 64, 83
1, 147477, Note_off_c, 0, 43, 61
1, 147478, Control_c, 0, 64, 97
1, 147485, Note_off_c, 0, 46, 62
1, 147493, Control_c, 0, 64, 106
1, 147503, Note_off_c, 0, 51, 64
1, 147505, Note_off_c, 0, 67, 64
1, 147506, Note_on_c, 0, 68, 78
1, 147508, Control_c, 0, 64, 110
1, 147522, Control_c, 0, 64, 114
1, 147537, Control_c, 0, 64, 120
1, 147548, Note_on_c, 0, 70, 76
1, 147552, Control_c, 0, 64, 127
1, 147559, Note_off_c, 0, 68, 64
1, 147573, Note_off_c, 0, 70, 68
1, 147614, Note_on_c, 0, 72, 81
1, 147653, Note_off_c, 0, 72, 66
1, 147670, Note_on_c, 0, 74, 66
1, 147691, Note_off_c, 0, 74, 68
1, 147715, Note_on_c, 0, 75, 73
1, 147733, Note_off_c, 0, 75, 69
1, 147767, Note_on_c, 0, 77, 73
1, 147789, Note_off_c, 0, 77, 68
1, 147799, Note_on_c, 0, 79, 76
1, 147841, Note_on_c, 0, 80, 85
1, 147846, Note_off_c, 0, 79, 63
1, 147861, Note_on_c, 0, 82, 96
1, 147863, Note_on_c, 0, 51, 79
1, 147867, Note_on_c, 0, 55, 81
1, 147878, Note_off_c, 0, 80, 65
1, 147885, Control_c, 0, 64, 119
1, 147893, Note_off_c, 0, 82, 70
1, 147900, Control_c, 0, 64, 82
1, 147912, Note_off_c, 0, 51, 63
1, 147912, Note_off_c, 0, 55, 64
1, 147915, Control_c, 0, 64, 0
1, 147999, Note_on_c, 0, 58, 90
1, 148004, Note_on_c, 0, 55, 78
1, 148034, Note_off_c, 0, 55, 64
1, 148043, Note_off_c, 0, 58, 62
1, 148127, Note_on_c, 0, 60, 92
1, 148129, Note_on_c, 0, 56, 84
1, 148146, Note_off_c, 0, 60, 69
1, 148150, Note_off_c, 0, 56, 70
1, 148152, Control_c, 0, 64, 64
1, 148167, Control_c, 0, 64, 84
1, 148182, Control_c, 0, 64, 104
1, 148197, Control_c, 0, 64, 120
1, 148211, Control_c, 0, 64, 126
1, 148226, Control_c, 0, 64, 127
1, 148308, Note_on_c, 0, 62, 76
1, 148345, Note_off_c, 0, 62, 57
1, 148381, Note_on_c, 0, 64, 76
1, 148413, Note_off_c, 0, 64, 69
1, 148424, Note_on_c, 0, 53, 92
1, 148426, Control_c, 0, 64, 107
1, 148430, Note_on_c, 0, 44, 80
1, 148431, Note_on_c, 0, 48, 80
1, 148441, Control_c, 0, 64, 80
1, 148448, Note_on_c, 0, 65, 86
1, 148456, Control_c, 0, 64, 0
1, 148505, Note_off_c, 0, 65, 65
1, 148520, Note_on_c, 0, 67, 69
1, 148544, Control_c, 0, 64, 47
1, 148559, Control_c, 0, 64, 70
1, 148568, Note_on_c, 0, 68, 80
1, 148568, Note_off_c, 0, 67, 64
1, 148574, Control_c, 0, 64, 81
1, 148589, Control_c, 0, 64, 88
1, 148604, Control_c, 0, 64, 94
1, 148618, Control_c, 0, 64, 100
1, 148620, Note_off_c, 0, 44, 62
1, 148620, Note_off_c, 0, 68, 66
1, 148622, Note_on_c, 0, 70, 68
1, 148624, Note_off_c, 0, 48, 66
1, 148633, Control_c, 0, 64, 107
1, 148642, Note_off_c, 0, 70, 67
1, 148648, Control_c, 0, 64, 116
1, 148652, Note_off_c, 0, 53, 65
1, 148663, Control_c, 0, 64, 127
1, 148666, Note_on_c, 0, 72, 88
1, 148711, Note_off_c, 0, 72, 66
1, 148721, Note_on_c, 0, 74, 72
1, 148747, Note_off_c, 0, 74, 68
1, 148759, Note_on_c, 0, 75, 76
1, 148784, Note_off_c, 0, 75, 70
1, 148818, Note_on_c, 0, 77, 79
1, 148840, Note_off_c, 0, 77, 66
1, 148849, Note_on_c, 0, 79, 80
1, 148889, Note_on_c, 0, 80, 80
1, 148902, Note_on_c, 0, 82, 85
1, 148911, Note_off_c, 0, 79, 60
1, 148923, Note_on_c, 0, 53, 86
1, 148934, Note_on_c, 0, 84, 93
1, 148937, Note_on_c, 0, 50, 65
1, 148937, Note_off_c, 0, 80, 65
1, 148953, Note_off_c, 0, 82, 66
1, 148961, Control_c, 0, 64, 100
1, 148964, Note_off_c, 0, 84, 67
1, 148967, Note_off_c, 0, 50, 65
1, 148973, Note_off_c, 0, 53, 67
1, 148976, Control_c, 0, 64, 70
1, 148991, Control_c, 0, 64, 0
1, 149053, Note_on_c, 0, 56, 89
1, 149057, Note_on_c, 0, 53, 76
1, 149087, Note_off_c, 0, 53, 65
1, 149095, Note_off_c, 0, 56, 63
1, 149197, Note_on_c, 0, 55, 87
1, 149197, Note_on_c, 0, 58, 84
1, 149217, Note_off_c, 0, 58, 71
1, 149218, Note_off_c, 0, 55, 71
1, 149235, Control_c, 0, 64, 65
1, 149250, Control_c, 0, 64, 85
1, 149265, Control_c, 0, 64, 102
1, 149280, Control_c, 0, 64, 110
1, 149294, Control_c, 0, 64, 114
1, 149309, Control_c, 0, 64, 118
1, 149324, Control_c, 0, 64, 123
1, 149339, Control_c, 0, 64, 127
1, 149355, Note_on_c, 0, 60, 67
1, 149420, Note_off_c, 0, 60, 60
1, 149426, Note_on_c, 0, 62, 76
1, 149477, Note_off_c, 0, 62, 63
1, 149485, Note_on_c, 0, 63, 73
1, 149487, Control_c, 0, 64, 119
1, 149489, Note_on_c, 0, 46, 85
1, 149489, Note_on_c, 0, 51, 101
1, 149491, Note_on_c, 0, 43, 79
1, 149501, Control_c, 0, 64, 94
1, 149509, Note_off_c, 0, 63, 66
1, 149516, Control_c, 0, 64, 67
1, 149531, Control_c, 0, 64, 0
1, 149534, Note_on_c, 0, 65, 84
1, 149591, Control_c, 0, 64, 48
1, 149598, Note_off_c, 0, 65, 63
1, 149605, Note_on_c, 0, 67, 76
1, 149606, Control_c, 0, 64, 67
1, 149621, Control_c, 0, 64, 79
1, 149636, Control_c, 0, 64, 89
1, 149651, Control_c, 0, 64, 97
1, 149658, Note_on_c, 0, 68, 76
1, 149664, Note_off_c, 0, 67, 64
1, 149665, Control_c, 0, 64, 104
1, 149680, Control_c, 0, 64, 111
1, 149695, Control_c, 0, 64, 121
1, 149702, Note_off_c, 0, 43, 60
1, 149706, Note_off_c, 0, 46, 63
1, 149709, Control_c, 0, 64, 127
1, 149717, Note_on_c, 0, 70, 76
1, 149722, Note_off_c, 0, 51, 63
1, 149729, Note_off_c, 0, 68, 64
1, 149745, Note_off_c, 0, 70, 65
1, 149775, Note_on_c, 0, 72, 85
1, 149820, Note_off_c, 0, 72, 65
1, 149839, Note_on_c, 0, 74, 57
1, 149879, Note_on_c, 0, 75, 87
1, 149880, Note_off_c, 0, 74, 64
1, 149923, Note_off_c, 0, 75, 67
1, 149954, Note_on_c, 0, 77, 85
1, 149997, Note_on_c, 0, 79, 84
1, 150002, Note_off_c, 0, 77, 60
1, 150038, Note_on_c, 0, 80, 82
1, 150070, Note_off_c, 0, 79, 56
1, 150085, Note_on_c, 0, 70, 79
1, 150088, Note_on_c, 0, 82, 95
1, 150089, Note_on_c, 0, 67, 74
1, 150103, Control_c, 0, 64, 111
1, 150106, Note_off_c, 0, 80, 66
1, 150117, Control_c, 0, 64, 82
1, 150127, Note_off_c, 0, 67, 62
1, 150128, Note_off_c, 0, 70, 61
1, 150132, Control_c, 0, 64, 0
1, 150139, Note_off_c, 0, 82, 68
1, 150363, Note_on_c, 0, 67, 68
1, 150366, Note_on_c, 0, 70, 73
1, 150369, Note_on_c, 0, 84, 88
1, 150421, Note_off_c, 0, 70, 63
1, 150423, Note_off_c, 0, 67, 64
1, 150455, Note_off_c, 0, 84, 67
1, 150703, Control_c, 0, 67, 9
1, 150718, Control_c, 0, 67, 15
1, 150733, Control_c, 0, 67, 23
1, 150747, Control_c, 0, 67, 35
1, 150762, Control_c, 0, 64, 38
1, 150762, Control_c, 0, 67, 48
1, 150777, Control_c, 0, 64, 61
1, 150777, Control_c, 0, 67, 60
1, 150791, Note_on_c, 0, 67, 38
1, 150792, Control_c, 0, 64, 64
1, 150792, Control_c, 0, 67, 74
1, 150797, Note_on_c, 0, 70, 38
1, 150807, Control_c, 0, 64, 65
1, 150807, Control_c, 0, 67, 87
1, 150811, Note_on_c, 0, 82, 32
1, 150811, Note_on_c, 0, 86, 50
1, 150818, Note_on_c, 0, 74, 30
1, 150820, Note_on_c, 0, 79, 39
1, 150821, Control_c, 0, 64, 67
1, 150821, Control_c, 0, 67, 101
1, 150836, Control_c, 0, 64, 71
1, 150836, Control_c, 0, 67, 115
1, 150851, Control_c, 0, 64, 78
1, 150851, Control_c, 0, 67, 127
1, 150866, Control_c, 0, 64, 87
1, 150866, Control_c, 0, 67, 127
1, 150881, Control_c, 0, 64, 92
1, 150896, Control_c, 0, 64, 96
1, 150911, Control_c, 0, 64, 99
1, 150926, Control_c, 0, 64, 104
1, 150939, Note_off_c, 0, 70, 44
1, 150940, Control_c, 0, 64, 108
1, 150942, Note_off_c, 0, 82, 41
1, 150945, Note_off_c, 0, 79, 36
1, 150955, Control_c, 0, 64, 113
1, 150961, Note_off_c, 0, 74, 39
1, 150962, Note_off_c, 0, 67, 42
1, 150970, Control_c, 0, 64, 118
1, 150985, Control_c, 0, 64, 121
1, 151000, Control_c, 0, 64, 125
1, 151014, Control_c, 0, 64, 127
1, 151170, Note_on_c, 0, 70, 25
1, 151176, Note_on_c, 0, 67, 30
1, 151197, Poly_aftertouch_c, 0, 74, 127
1, 151200, Poly_aftertouch_c, 0, 82, 127
1, 151204, Poly_aftertouch_c, 0, 79, 127
1, 151217, Note_off_c, 0, 70, 46
1, 151230, Note_off_c, 0, 67, 43
1, 151236, Poly_aftertouch_c, 0, 74, 0
1, 151243, Poly_aftertouch_c, 0, 79, 0
1, 151250, Poly_aftertouch_c, 0, 82, 0
1, 151280, Note_off_c, 0, 86, 37
1, 151453, Note_on_c, 0, 70, 27
1, 151456, Note_on_c, 0, 67, 34
1, 151459, Note_on_c, 0, 86, 47
1, 151470, Note_on_c, 0, 74, 25
1, 151474, Note_on_c, 0, 79, 28
1, 151474, Note_on_c, 0, 82, 33
1, 151570, Note_off_c, 0, 67, 41
1, 151573, Note_off_c, 0, 70, 36
1, 151590, Note_off_c, 0, 74, 39
1, 151596, Note_off_c, 0, 79, 38
1, 151606, Note_off_c, 0, 82, 42
1, 151753, Note_on_c, 0, 70, 22
1, 151765, Note_on_c, 0, 67, 29
1, 151771, Note_on_c, 0, 74, 18
1, 151775, Note_on_c, 0, 79, 24
1, 151784, Poly_aftertouch_c, 0, 82, 127
1, 151835, Note_off_c, 0, 79, 39
1, 151838, Note_off_c, 0, 74, 40
1, 151844, Poly_aftertouch_c, 0, 82, 0
1, 151848, Note_off_c, 0, 70, 36
1, 151849, Note_off_c, 0, 67, 36
1, 152067, Note_on_c, 0, 74, 5
1, 152068, Note_on_c, 0, 67, 5
1, 152084, Poly_aftertouch_c, 0, 70, 127
1, 152091, Poly_aftertouch_c, 0, 82, 127
1, 152101, Poly_aftertouch_c, 0, 79, 127
1, 152135, Poly_aftertouch_c, 0, 70, 0
1, 152139, Note_off_c, 0, 67, 41
1, 152158, Poly_aftertouch_c, 0, 79, 0
1, 152163, Note_off_c, 0, 74, 39
1, 152169, Poly_aftertouch_c, 0, 82, 0
1, 152351, Note_on_c, 0, 82, 22
1, 152351, Note_on_c, 0, 70, 25
1, 152365, Note_on_c, 0, 67, 22
1, 152369, Note_on_c, 0, 74, 14
1, 152374, Note_on_c, 0, 79, 22
1, 152413, Note_off_c, 0, 74, 64
1, 152425, Note_off_c, 0, 79, 44
1, 152426, Note_off_c, 0, 67, 42
1, 152441, Note_off_c, 0, 70, 38
1, 152455, Note_off_c, 0, 82, 42
1, 152644, Control_c, 0, 64, 124
1, 152659, Control_c, 0, 64, 110
1, 152671, Note_on_c, 0, 79, 33
1, 152673, Note_on_c, 0, 63, 16
1, 152674, Control_c, 0, 64, 99
1, 152678, Note_on_c, 0, 84, 46
1, 152684, Note_on_c, 0, 72, 12
1, 152688, Note_on_c, 0, 67, 26
1, 152689, Control_c, 0, 64, 85
1, 152703, Control_c, 0, 64, 71
1, 152718, Control_c, 0, 64, 42
1, 152734, Control_c, 0, 64, 0
1, 152776, Note_off_c, 0, 86, 32
1, 152779, Control_c, 0, 64, 62
1, 152794, Control_c, 0, 64, 69
1, 152808, Control_c, 0, 64, 75
1, 152812, Note_on_c, 0, 86, 46
1, 152813, Note_off_c, 0, 79, 49
1, 152814, Note_off_c, 0, 72, 49
1, 152823, Control_c, 0, 64, 79
1, 152831, Note_off_c, 0, 84, 59
1, 152833, Note_off_c, 0, 63, 40
1, 152838, Control_c, 0, 64, 81
1, 152840, Note_off_c, 0, 67, 41
1, 152853, Control_c, 0, 64, 83
1, 152868, Control_c, 0, 64, 84
1, 152882, Control_c, 0, 64, 86
1, 152897, Control_c, 0, 64, 87
1, 152920, Control_c, 0, 64, 88
1, 152935, Control_c, 0, 64, 89
1, 152949, Note_on_c, 0, 63, 20
1, 152949, Control_c, 0, 64, 89
1, 152951, Note_off_c, 0, 86, 56
1, 152955, Note_on_c, 0, 84, 66
1, 152961, Note_on_c, 0, 67, 39
1, 152962, Note_on_c, 0, 79, 36
1, 152964, Control_c, 0, 64, 90
1, 152975, Note_on_c, 0, 72, 31
1, 152979, Control_c, 0, 64, 90
1, 152994, Control_c, 0, 64, 91
1, 153008, Control_c, 0, 64, 91
1, 153020, Note_off_c, 0, 72, 46
1, 153022, Note_off_c, 0, 63, 39
1, 153038, Control_c, 0, 64, 92
1, 153053, Control_c, 0, 64, 92
1, 153060, Note_off_c, 0, 67, 37
1, 153067, Control_c, 0, 64, 93
1, 153077, Note_on_c, 0, 91, 72
1, 153086, Note_off_c, 0, 84, 64
1, 153112, Note_off_c, 0, 79, 39
1, 153201, Control_c, 0, 64, 92
1, 153215, Control_c, 0, 64, 89
1, 153224, Note_on_c, 0, 86, 65
1, 153230, Control_c, 0, 64, 84
1, 153235, Note_on_c, 0, 82, 55
1, 153238, Note_on_c, 0, 67, 38
1, 153244, Note_on_c, 0, 70, 34
1, 153245, Control_c, 0, 64, 76
1, 153252, Note_on_c, 0, 79, 37
1, 153253, Note_on_c, 0, 74, 30
1, 153260, Control_c, 0, 64, 63
1, 153275, Control_c, 0, 64, 0
1, 153313, Note_off_c, 0, 70, 0
1, 153313, Note_on_c, 0, 70, 3
1, 153379, Note_off_c, 0, 79, 25
1, 153386, Note_off_c, 0, 74, 57
1, 153393, Note_off_c, 0, 70, 57
1, 153394, Control_c, 0, 64, 65
1, 153398, Note_off_c, 0, 67, 52
1, 153408, Control_c, 0, 64, 72
1, 153419, Note_off_c, 0, 82, 38
1, 153423, Control_c, 0, 64, 78
1, 153438, Control_c, 0, 64, 83
1, 153452, Control_c, 0, 64, 86
1, 153467, Control_c, 0, 64, 89
1, 153482, Control_c, 0, 64, 92
1, 153497, Control_c, 0, 64, 95
1, 153512, Control_c, 0, 64, 97
1, 153519, Note_off_c, 0, 91, 19
1, 153528, Control_c, 0, 64, 100
1, 153534, Note_on_c, 0, 70, 37
1, 153538, Note_on_c, 0, 82, 41
1, 153540, Note_on_c, 0, 67, 33
1, 153543, Control_c, 0, 64, 103
1, 153544, Note_on_c, 0, 74, 33
1, 153557, Control_c, 0, 64, 105
1, 153572, Control_c, 0, 64, 107
1, 153573, Note_on_c, 0, 79, 15
1, 153587, Control_c, 0, 64, 108
1, 153602, Control_c, 0, 64, 110
1, 153617, Control_c, 0, 64, 113
1, 153617, Note_off_c, 0, 74, 50
1, 153631, Control_c, 0, 64, 117
1, 153637, Note_off_c, 0, 82, 59
1, 153641, Note_off_c, 0, 86, 59
1, 153646, Control_c, 0, 64, 122
1, 153648, Note_off_c, 0, 70, 37
1, 153650, Note_off_c, 0, 79, 39
1, 153665, Note_off_c, 0, 67, 40
1, 153668, Control_c, 0, 64, 126
1, 153683, Control_c, 0, 64, 127
1, 153850, Note_on_c, 0, 86, 60
1, 153871, Note_on_c, 0, 82, 44
1, 153874, Note_on_c, 0, 79, 21
1, 153877, Note_on_c, 0, 70, 18
1, 153880, Note_on_c, 0, 67, 26
1, 153903, Note_on_c, 0, 74, 14
1, 153966, Note_off_c, 0, 74, 43
1, 153976, Note_off_c, 0, 79, 42
1, 153993, Note_off_c, 0, 70, 38
1, 153993, Note_off_c, 0, 82, 42
1, 154002, Note_off_c, 0, 67, 41
1, 154144, Note_on_c, 0, 70, 24
1, 154151, Note_on_c, 0, 67, 30
1, 154155, Note_on_c, 0, 79, 31
1, 154160, Note_on_c, 0, 82, 7
1, 154164, Note_on_c, 0, 74, 23
1, 154223, Note_off_c, 0, 74, 54
1, 154257, Note_off_c, 0, 70, 35
1, 154260, Note_off_c, 0, 79, 41
1, 154273, Note_off_c, 0, 82, 42
1, 154274, Note_off_c, 0, 67, 37
1, 154441, Note_on_c, 0, 79, 24
1, 154454, Note_on_c, 0, 82, 14
1, 154456, Note_on_c, 0, 67, 24
1, 154461, Note_on_c, 0, 70, 25
1, 154476, Note_on_c, 0, 74, 18
1, 154533, Note_off_c, 0, 74, 47
1, 154537, Note_off_c, 0, 70, 37
1, 154566, Note_off_c, 0, 79, 39
1, 154578, Note_off_c, 0, 82, 43
1, 154579, Note_off_c, 0, 67, 38
1, 154775, Note_on_c, 0, 70, 32
1, 154784, Note_on_c, 0, 82, 31
1, 154789, Note_on_c, 0, 67, 23
1, 154790, Note_on_c, 0, 79, 22
1, 154832, Poly_aftertouch_c, 0, 74, 127
1, 154838, Note_off_c, 0, 86, 63
1, 154870, Poly_aftertouch_c, 0, 74, 0
1, 154872, Note_off_c, 0, 82, 52
1, 154890, Note_off_c, 0, 70, 42
1, 154895, Note_off_c, 0, 79, 37
1, 154905, Note_off_c, 0, 67, 36
1, 155053, Control_c, 0, 64, 121
1, 155068, Control_c, 0, 64, 114
1, 155083, Control_c, 0, 64, 107
1, 155097, Control_c, 0, 64, 100
1, 155112, Control_c, 0, 64, 93
1, 155114, Note_on_c, 0, 63, 22
1, 155117, Note_on_c, 0, 84, 50
1, 155123, Note_on_c, 0, 79, 35
1, 155128, Note_on_c, 0, 67, 28
1, 155128, Control_c, 0, 64, 85
1, 155143, Control_c, 0, 64, 75
1, 155155, Note_on_c, 0, 72, 6
1, 155165, Control_c, 0, 64, 61
1, 155180, Control_c, 0, 64, 0
1, 155239, Control_c, 0, 64, 59
1, 155250, Note_off_c, 0, 72, 51
1, 155254, Control_c, 0, 64, 67
1, 155269, Control_c, 0, 64, 73
1, 155272, Note_off_c, 0, 79, 48
1, 155278, Note_on_c, 0, 86, 58
1, 155283, Note_off_c, 0, 67, 39
1, 155284, Control_c, 0, 64, 77
1, 155292, Note_off_c, 0, 63, 40
1, 155299, Control_c, 0, 64, 81
1, 155303, Note_off_c, 0, 84, 52
1, 155314, Control_c, 0, 64, 83
1, 155328, Control_c, 0, 64, 86
1, 155343, Control_c, 0, 64, 88
1, 155358, Control_c, 0, 64, 90
1, 155373, Control_c, 0, 64, 92
1, 155388, Control_c, 0, 64, 94
1, 155402, Control_c, 0, 64, 94
1, 155410, Note_on_c, 0, 79, 45
1, 155414, Note_off_c, 0, 86, 55
1, 155417, Control_c, 0, 64, 95
1, 155420, Note_on_c, 0, 84, 66
1, 155425, Note_on_c, 0, 67, 33
1, 155428, Poly_aftertouch_c, 0, 63, 127
1, 155429, Note_on_c, 0, 72, 23
1, 155447, Control_c, 0, 64, 96
1, 155480, Note_off_c, 0, 79, 58
1, 155483, Poly_aftertouch_c, 0, 63, 0
1, 155486, Note_off_c, 0, 72, 44
1, 155493, Note_off_c, 0, 84, 62
1, 155498, Note_off_c, 0, 67, 40
1, 155529, Note_on_c, 0, 86, 60
1, 155581, Control_c, 0, 64, 95
1, 155596, Control_c, 0, 64, 94
1, 155610, Control_c, 0, 64, 92
1, 155625, Control_c, 0, 64, 87
1, 155640, Control_c, 0, 64, 80
1, 155654, Control_c, 0, 64, 69
1, 155656, Note_on_c, 0, 67, 37
1, 155656, Note_on_c, 0, 79, 51
1, 155662, Note_on_c, 0, 70, 40
1, 155663, Note_on_c, 0, 74, 46
1, 155669, Control_c, 0, 64, 0
1, 155725, Note_off_c, 0, 70, 0
1, 155725, Note_on_c, 0, 70, 13
1, 155766, Note_off_c, 0, 86, 50
1, 155773, Control_c, 0, 64, 43
1, 155788, Control_c, 0, 64, 65
1, 155802, Control_c, 0, 64, 71
1, 155817, Control_c, 0, 64, 75
1, 155822, Note_off_c, 0, 74, 38
1, 155832, Control_c, 0, 64, 79
1, 155843, Note_off_c, 0, 67, 41
1, 155847, Control_c, 0, 64, 81
1, 155858, Note_off_c, 0, 70, 36
1, 155862, Control_c, 0, 64, 83
1, 155877, Control_c, 0, 64, 86
1, 155892, Control_c, 0, 64, 88
1, 155914, Control_c, 0, 64, 90
1, 155930, Control_c, 0, 64, 91
1, 155945, Control_c, 0, 64, 93
1, 155952, Note_on_c, 0, 74, 55
1, 155959, Control_c, 0, 64, 93
1, 155982, Note_on_c, 0, 67, 40
1, 155989, Control_c, 0, 64, 94
1, 155999, Note_on_c, 0, 70, 29
1, 156041, Note_off_c, 0, 70, 47
1, 156042, Note_off_c, 0, 67, 53
1, 156051, Note_off_c, 0, 74, 63
1, 156077, Note_on_c, 0, 82, 67
1, 156166, Control_c, 0, 64, 93
1, 156171, Note_off_c, 0, 79, 36
1, 156181, Control_c, 0, 64, 92
1, 156196, Control_c, 0, 64, 90
1, 156211, Control_c, 0, 64, 84
1, 156225, Note_on_c, 0, 67, 35
1, 156226, Control_c, 0, 64, 74
1, 156236, Note_on_c, 0, 72, 39
1, 156236, Note_on_c, 0, 81, 68
1, 156241, Control_c, 0, 64, 62
1, 156253, Note_on_c, 0, 75, 49
1, 156256, Control_c, 0, 64, 0
1, 156356, Note_off_c, 0, 82, 50
1, 156374, Control_c, 0, 64, 42
1, 156389, Control_c, 0, 64, 65
1, 156393, Note_off_c, 0, 75, 58
1, 156396, Note_off_c, 0, 67, 54
1, 156399, Note_off_c, 0, 72, 56
1, 156404, Control_c, 0, 64, 71
1, 156419, Control_c, 0, 64, 77
1, 156433, Control_c, 0, 64, 81
1, 156448, Control_c, 0, 64, 83
1, 156463, Control_c, 0, 64, 85
1, 156477, Control_c, 0, 64, 87
1, 156492, Control_c, 0, 64, 88
1, 156507, Control_c, 0, 64, 90
1, 156522, Control_c, 0, 64, 91
1, 156537, Control_c, 0, 64, 92
1, 156539, Note_on_c, 0, 67, 30
1, 156541, Note_on_c, 0, 72, 43
1, 156551, Note_on_c, 0, 75, 38
1, 156580, Note_off_c, 0, 72, 46
1, 156581, Control_c, 0, 64, 92
1, 156627, Note_off_c, 0, 67, 37
1, 156670, Note_off_c, 0, 75, 40
1, 156673, Note_on_c, 0, 82, 55
1, 156738, Control_c, 0, 64, 92
1, 156753, Control_c, 0, 64, 91
1, 156768, Control_c, 0, 64, 90
1, 156782, Control_c, 0, 64, 86
1, 156797, Control_c, 0, 64, 82
1, 156798, Note_on_c, 0, 67, 25
1, 156812, Note_on_c, 0, 70, 40
1, 156812, Control_c, 0, 64, 73
1, 156813, Note_on_c, 0, 74, 42
1, 156819, Note_on_c, 0, 79, 57
1, 156827, Control_c, 0, 64, 63
1, 156842, Control_c, 0, 64, 0
1, 156865, Note_off_c, 0, 81, 19
1, 156878, Note_off_c, 0, 70, 0
1, 156878, Note_on_c, 0, 70, 10
1, 156884, Note_off_c, 0, 82, 54
1, 156945, Note_off_c, 0, 74, 55
1, 156945, Control_c, 0, 64, 56
1, 156960, Control_c, 0, 64, 66
1, 156974, Control_c, 0, 64, 72
1, 156984, Note_off_c, 0, 70, 55
1, 156987, Note_off_c, 0, 67, 51
1, 156989, Control_c, 0, 64, 77
1, 157004, Control_c, 0, 64, 80
1, 157019, Control_c, 0, 64, 83
1, 157034, Control_c, 0, 64, 85
1, 157048, Control_c, 0, 64, 87
1, 157063, Control_c, 0, 64, 90
1, 157078, Control_c, 0, 64, 92
1, 157093, Control_c, 0, 64, 94
1, 157108, Control_c, 0, 64, 95
1, 157119, Note_on_c, 0, 74, 35
1, 157123, Note_on_c, 0, 70, 44
1, 157123, Control_c, 0, 64, 97
1, 157127, Note_on_c, 0, 67, 38
1, 157138, Control_c, 0, 64, 98
1, 157153, Control_c, 0, 64, 98
1, 157182, Control_c, 0, 64, 99
1, 157197, Control_c, 0, 64, 99
1, 157235, Note_off_c, 0, 70, 37
1, 157236, Note_off_c, 0, 67, 39
1, 157237, Note_off_c, 0, 74, 55
1, 157256, Note_on_c, 0, 82, 50
1, 157293, Note_off_c, 0, 79, 57
1, 157360, Control_c, 0, 64, 99
1, 157374, Control_c, 0, 64, 97
1, 157389, Control_c, 0, 64, 94
1, 157412, Control_c, 0, 64, 89
1, 157423, Note_on_c, 0, 67, 35
1, 157426, Note_on_c, 0, 84, 60
1, 157427, Control_c, 0, 64, 82
1, 157430, Note_on_c, 0, 63, 40
1, 157439, Note_on_c, 0, 79, 51
1, 157442, Control_c, 0, 64, 73
1, 157455, Note_off_c, 0, 82, 33
1, 157457, Control_c, 0, 64, 60
1, 157457, Note_on_c, 0, 72, 28
1, 157472, Control_c, 0, 64, 0
1, 157576, Control_c, 0, 64, 60
1, 157585, Note_off_c, 0, 72, 36
1, 157591, Note_off_c, 0, 67, 51
1, 157591, Control_c, 0, 64, 68
1, 157593, Note_off_c, 0, 63, 50
1, 157606, Control_c, 0, 64, 72
1, 157621, Control_c, 0, 64, 77
1, 157636, Control_c, 0, 64, 79
1, 157650, Control_c, 0, 64, 81
1, 157665, Control_c, 0, 64, 83
1, 157680, Control_c, 0, 64, 84
1, 157695, Control_c, 0, 64, 86
1, 157710, Control_c, 0, 64, 88
1, 157725, Control_c, 0, 64, 90
1, 157731, Note_on_c, 0, 63, 38
1, 157739, Control_c, 0, 64, 91
1, 157743, Note_on_c, 0, 72, 34
1, 157754, Control_c, 0, 64, 93
1, 157756, Note_on_c, 0, 67, 17
1, 157769, Control_c, 0, 64, 94
1, 157784, Control_c, 0, 64, 95
1, 157798, Control_c, 0, 64, 96
1, 157813, Note_off_c, 0, 63, 39
1, 157813, Control_c, 0, 64, 96
1, 157820, Note_off_c, 0, 67, 39
1, 157828, Control_c, 0, 64, 97
1, 157840, Note_off_c, 0, 72, 42
1, 157843, Control_c, 0, 64, 98
1, 157850, Note_off_c, 0, 79, 48
1, 157857, Control_c, 0, 64, 99
1, 157863, Note_on_c, 0, 82, 53
1, 157976, Control_c, 0, 64, 98
1, 157991, Control_c, 0, 64, 97
1, 158005, Control_c, 0, 64, 94
1, 158020, Control_c, 0, 64, 91
1, 158035, Control_c, 0, 64, 86
1, 158048, Note_on_c, 0, 79, 54
1, 158050, Note_on_c, 0, 70, 37
1, 158050, Control_c, 0, 64, 79
1, 158059, Note_on_c, 0, 67, 38
1, 158061, Note_on_c, 0, 74, 36
1, 158065, Control_c, 0, 64, 70
1, 158080, Control_c, 0, 64, 55
1, 158095, Control_c, 0, 64, 0
1, 158107, Note_off_c, 0, 70, 0
1, 158107, Note_on_c, 0, 70, 4
1, 158120, Note_off_c, 0, 82, 30
1, 158235, Note_off_c, 0, 74, 53
1, 158235, Control_c, 0, 64, 67
1, 158250, Control_c, 0, 64, 75
1, 158265, Control_c, 0, 64, 83
1, 158280, Control_c, 0, 64, 89
1, 158294, Control_c, 0, 64, 92
1, 158309, Control_c, 0, 64, 94
1, 158325, Control_c, 0, 64, 97
1, 158340, Note_off_c, 0, 84, 57
1, 158340, Control_c, 0, 64, 100
1, 158351, Note_off_c, 0, 70, 56
1, 158354, Control_c, 0, 64, 104
1, 158362, Note_off_c, 0, 67, 54
1, 158369, Control_c, 0, 64, 107
1, 158384, Control_c, 0, 64, 111
1, 158386, Note_off_c, 0, 79, 62
1, 158390, Note_on_c, 0, 74, 35
1, 158399, Control_c, 0, 64, 113
1, 158414, Control_c, 0, 64, 116
1, 158417, Note_off_c, 0, 74, 51
1, 158429, Control_c, 0, 64, 118
1, 158444, Control_c, 0, 64, 120
1, 158458, Control_c, 0, 64, 122
1, 158473, Control_c, 0, 64, 124
1, 158488, Control_c, 0, 64, 127
1, 158665, Note_on_c, 0, 79, 47
1, 158666, Note_on_c, 0, 74, 40
1, 158676, Note_on_c, 0, 67, 36
1, 158678, Note_on_c, 0, 70, 38
1, 158803, Note_off_c, 0, 70, 41
1, 158813, Note_off_c, 0, 74, 35
1, 158817, Note_off_c, 0, 67, 42
1, 158995, Note_on_c, 0, 67, 20
1, 158999, Note_on_c, 0, 74, 25
1, 159006, Note_on_c, 0, 70, 32
1, 159102, Note_off_c, 0, 74, 32
1, 159112, Note_off_c, 0, 67, 40
1, 159126, Note_off_c, 0, 70, 35
1, 159297, Note_on_c, 0, 98, 34
1, 159306, Note_on_c, 0, 91, 39
1, 159344, Poly_aftertouch_c, 0, 67, 127
1, 159359, Poly_aftertouch_c, 0, 74, 127
1, 159365, Poly_aftertouch_c, 0, 70, 127
1, 159380, Note_off_c, 0, 91, 43
1, 159380, Note_off_c, 0, 98, 58
1, 159400, Poly_aftertouch_c, 0, 74, 0
1, 159415, Poly_aftertouch_c, 0, 70, 0
1, 159432, Poly_aftertouch_c, 0, 67, 0
1, 159668, Note_on_c, 0, 74, 27
1, 159672, Note_on_c, 0, 67, 29
1, 159674, Note_on_c, 0, 70, 12
1, 159704, Note_off_c, 0, 67, 55
1, 159707, Note_off_c, 0, 74, 52
1, 159717, Note_off_c, 0, 70, 49
1, 159745, Note_off_c, 0, 79, 62
1, 160009, Note_on_c, 0, 82, 57
1, 160030, Note_on_c, 0, 70, 31
1, 160030, Control_c, 0, 64, 109
1, 160033, Note_on_c, 0, 75, 35
1, 160039, Note_on_c, 0, 67, 34
1, 160044, Control_c, 0, 64, 90
1, 160059, Control_c, 0, 64, 70
1, 160074, Control_c, 0, 64, 54
1, 160089, Control_c, 0, 64, 62
1, 160104, Control_c, 0, 64, 67
1, 160119, Control_c, 0, 64, 74
1, 160134, Control_c, 0, 64, 81
1, 160149, Control_c, 0, 64, 88
1, 160163, Control_c, 0, 64, 92
1, 160178, Control_c, 0, 64, 94
1, 160193, Control_c, 0, 64, 96
1, 160201, Note_off_c, 0, 70, 38
1, 160208, Control_c, 0, 64, 96
1, 160210, Note_off_c, 0, 82, 56
1, 160213, Note_off_c, 0, 67, 42
1, 160215, Note_off_c, 0, 75, 37
1, 160282, Control_c, 0, 64, 95
1, 160297, Control_c, 0, 64, 92
1, 160310, Note_on_c, 0, 75, 47
1, 160312, Control_c, 0, 64, 87
1, 160313, Note_on_c, 0, 82, 60
1, 160313, Note_on_c, 0, 84, 63
1, 160316, Note_on_c, 0, 67, 42
1, 160326, Control_c, 0, 64, 81
1, 160327, Note_on_c, 0, 70, 37
1, 160341, Control_c, 0, 64, 74
1, 160356, Control_c, 0, 64, 71
1, 160371, Control_c, 0, 64, 71
1, 160386, Control_c, 0, 64, 75
1, 160408, Control_c, 0, 64, 81
1, 160423, Control_c, 0, 64, 86
1, 160438, Control_c, 0, 64, 90
1, 160445, Note_off_c, 0, 75, 58
1, 160452, Control_c, 0, 64, 92
1, 160463, Note_off_c, 0, 67, 43
1, 160467, Control_c, 0, 64, 93
1, 160468, Note_off_c, 0, 70, 35
1, 160522, Note_off_c, 0, 82, 33
1, 160578, Note_off_c, 0, 84, 55
1, 160600, Control_c, 0, 64, 92
1, 160615, Control_c, 0, 64, 89
1, 160630, Control_c, 0, 64, 83
1, 160645, Control_c, 0, 64, 75
1, 160651, Note_on_c, 0, 70, 35
1, 160652, Note_on_c, 0, 86, 62
1, 160655, Note_on_c, 0, 67, 43
1, 160659, Control_c, 0, 64, 63
1, 160662, Note_on_c, 0, 82, 42
1, 160674, Note_on_c, 0, 74, 35
1, 160674, Control_c, 0, 64, 0
1, 160680, Note_on_c, 0, 79, 45
1, 160764, Control_c, 0, 64, 58
1, 160779, Control_c, 0, 64, 69
1, 160794, Control_c, 0, 64, 77
1, 160809, Control_c, 0, 64, 84
1, 160823, Control_c, 0, 64, 87
1, 160827, Note_off_c, 0, 74, 37
1, 160828, Note_off_c, 0, 67, 59
1, 160838, Control_c, 0, 64, 88
1, 160847, Note_off_c, 0, 70, 46
1, 160851, Note_off_c, 0, 79, 35
1, 160853, Control_c, 0, 64, 90
1, 160855, Note_off_c, 0, 82, 37
1, 160867, Control_c, 0, 64, 92
1, 160882, Control_c, 0, 64, 94
1, 160897, Control_c, 0, 64, 96
1, 160912, Control_c, 0, 64, 100
1, 160927, Control_c, 0, 64, 102
1, 160942, Control_c, 0, 64, 103
1, 160953, Note_on_c, 0, 74, 50
1, 160956, Control_c, 0, 64, 103
1, 160965, Note_on_c, 0, 82, 45
1, 160974, Note_on_c, 0, 79, 43
1, 160976, Note_on_c, 0, 67, 32
1, 160978, Note_on_c, 0, 70, 30
1, 160986, Control_c, 0, 64, 104
1, 161001, Control_c, 0, 64, 104
1, 161002, Note_off_c, 0, 74, 59
1, 161016, Control_c, 0, 64, 105
1, 161017, Note_off_c, 0, 67, 49
1, 161019, Note_off_c, 0, 70, 48
1, 161019, Note_off_c, 0, 79, 45
1, 161034, Note_off_c, 0, 82, 54
1, 161038, Note_off_c, 0, 86, 56
1, 161231, Control_c, 0, 64, 104
1, 161246, Control_c, 0, 64, 103
1, 161253, Note_on_c, 0, 86, 65
1, 161259, Note_on_c, 0, 70, 39
1, 161260, Control_c, 0, 64, 98
1, 161263, Note_on_c, 0, 67, 36
1, 161269, Note_on_c, 0, 79, 54
1, 161273, Note_on_c, 0, 74, 42
1, 161275, Note_on_c, 0, 82, 59
1, 161275, Control_c, 0, 64, 92
1, 161290, Control_c, 0, 64, 83
1, 161305, Control_c, 0, 64, 70
1, 161320, Control_c, 0, 64, 11
1, 161335, Control_c, 0, 64, 0
1, 161408, Control_c, 0, 64, 61
1, 161421, Note_off_c, 0, 74, 54
1, 161423, Control_c, 0, 64, 68
1, 161432, Note_off_c, 0, 82, 57
1, 161435, Note_off_c, 0, 70, 61
1, 161437, Note_off_c, 0, 79, 57
1, 161438, Control_c, 0, 64, 74
1, 161448, Note_off_c, 0, 67, 54
1, 161453, Control_c, 0, 64, 80
1, 161468, Control_c, 0, 64, 83
1, 161482, Control_c, 0, 64, 84
1, 161497, Control_c, 0, 64, 86
1, 161512, Control_c, 0, 64, 87
1, 161528, Control_c, 0, 64, 89
1, 161543, Control_c, 0, 64, 92
1, 161558, Control_c, 0, 64, 94
1, 161572, Control_c, 0, 64, 96
1, 161587, Control_c, 0, 64, 97
1, 161588, Note_on_c, 0, 70, 41
1, 161589, Note_on_c, 0, 79, 38
1, 161597, Note_on_c, 0, 67, 30
1, 161597, Note_on_c, 0, 82, 36
1, 161600, Note_on_c, 0, 74, 38
1, 161602, Control_c, 0, 64, 99
1, 161617, Control_c, 0, 64, 100
1, 161632, Control_c, 0, 64, 101
1, 161646, Control_c, 0, 64, 103
1, 161661, Control_c, 0, 64, 105
1, 161676, Control_c, 0, 64, 107
1, 161690, Control_c, 0, 64, 108
1, 161699, Note_off_c, 0, 74, 57
1, 161700, Note_off_c, 0, 67, 55
1, 161705, Control_c, 0, 64, 109
1, 161720, Note_off_c, 0, 79, 34
1, 161720, Control_c, 0, 64, 110
1, 161721, Note_off_c, 0, 82, 39
1, 161725, Note_off_c, 0, 70, 42
1, 161735, Control_c, 0, 64, 110
1, 161764, Control_c, 0, 64, 111
1, 161779, Control_c, 0, 64, 111
1, 161855, Note_on_c, 0, 70, 32
1, 161869, Control_c, 0, 64, 112
1, 161880, Note_on_c, 0, 74, 28
1, 161882, Note_on_c, 0, 82, 29
1, 161885, Note_on_c, 0, 67, 34
1, 161909, Note_on_c, 0, 79, 16
1, 161950, Control_c, 0, 64, 112
1, 162006, Note_off_c, 0, 70, 39
1, 162012, Note_off_c, 0, 82, 41
1, 162015, Note_off_c, 0, 79, 32
1, 162017, Note_off_c, 0, 74, 38
1, 162023, Note_off_c, 0, 67, 38
1, 162198, Note_on_c, 0, 67, 27
1, 162200, Note_on_c, 0, 74, 17
1, 162212, Note_on_c, 0, 79, 34
1, 162219, Note_on_c, 0, 82, 23
1, 162225, Note_on_c, 0, 70, 27
1, 162257, Note_off_c, 0, 74, 62
1, 162274, Note_off_c, 0, 79, 59
1, 162276, Note_off_c, 0, 70, 44
1, 162311, Note_off_c, 0, 67, 36
1, 162317, Note_off_c, 0, 82, 39
1, 162351, Control_c, 0, 64, 112
1, 162455, Control_c, 0, 64, 111
1, 162470, Control_c, 0, 64, 109
1, 162485, Control_c, 0, 64, 107
1, 162500, Control_c, 0, 64, 102
1, 162514, Control_c, 0, 64, 96
1, 162528, Note_on_c, 0, 84, 48
1, 162529, Control_c, 0, 64, 88
1, 162544, Note_on_c, 0, 79, 30
1, 162544, Control_c, 0, 64, 77
1, 162551, Note_on_c, 0, 63, 32
1, 162551, Note_on_c, 0, 72, 28
1, 162557, Note_on_c, 0, 67, 25
1, 162559, Control_c, 0, 64, 64
1, 162574, Control_c, 0, 64, 0
1, 162576, Note_off_c, 0, 86, 11
1, 162655, Control_c, 0, 64, 60
1, 162670, Control_c, 0, 64, 66
1, 162685, Control_c, 0, 64, 70
1, 162686, Note_off_c, 0, 72, 43
1, 162688, Note_off_c, 0, 63, 41
1, 162691, Note_off_c, 0, 79, 47
1, 162692, Note_on_c, 0, 86, 65
1, 162700, Control_c, 0, 64, 74
1, 162702, Note_off_c, 0, 67, 39
1, 162712, Note_off_c, 0, 84, 60
1, 162715, Control_c, 0, 64, 78
1, 162729, Control_c, 0, 64, 81
1, 162744, Control_c, 0, 64, 83
1, 162759, Control_c, 0, 64, 85
1, 162774, Control_c, 0, 64, 86
1, 162789, Control_c, 0, 64, 88
1, 162803, Control_c, 0, 64, 89
1, 162818, Control_c, 0, 64, 91
1, 162829, Note_on_c, 0, 67, 43
1, 162831, Note_on_c, 0, 72, 36
1, 162833, Control_c, 0, 64, 92
1, 162834, Note_on_c, 0, 63, 27
1, 162838, Note_on_c, 0, 84, 61
1, 162845, Note_on_c, 0, 79, 28
1, 162847, Control_c, 0, 64, 93
1, 162854, Note_off_c, 0, 86, 53
1, 162862, Control_c, 0, 64, 93
1, 162877, Control_c, 0, 64, 94
1, 162885, Note_off_c, 0, 63, 46
1, 162907, Control_c, 0, 64, 94
1, 162910, Note_off_c, 0, 72, 39
1, 162930, Note_off_c, 0, 67, 37
1, 162944, Note_off_c, 0, 79, 46
1, 162959, Note_on_c, 0, 91, 67
1, 162963, Note_off_c, 0, 84, 63
1, 163069, Control_c, 0, 64, 94
1, 163084, Control_c, 0, 64, 92
1, 163099, Control_c, 0, 64, 88
1, 163103, Note_on_c, 0, 67, 34
1, 163106, Note_on_c, 0, 86, 66
1, 163111, Note_on_c, 0, 70, 38
1, 163114, Control_c, 0, 64, 82
1, 163116, Note_on_c, 0, 82, 54
1, 163123, Note_on_c, 0, 74, 33
1, 163128, Note_on_c, 0, 79, 12
1, 163129, Control_c, 0, 64, 73
1, 163144, Control_c, 0, 64, 55
1, 163159, Control_c, 0, 64, 0
1, 163171, Note_off_c, 0, 70, 0
1, 163171, Note_on_c, 0, 70, 6
1, 163218, Control_c, 0, 64, 11
1, 163233, Control_c, 0, 64, 63
1, 163248, Control_c, 0, 64, 69
1, 163262, Control_c, 0, 64, 74
1, 163269, Note_off_c, 0, 91, 28
1, 163274, Note_off_c, 0, 82, 35
1, 163276, Note_off_c, 0, 79, 39
1, 163277, Control_c, 0, 64, 79
1, 163279, Note_off_c, 0, 74, 58
1, 163290, Note_off_c, 0, 67, 51
1, 163290, Note_off_c, 0, 70, 51
1, 163292, Control_c, 0, 64, 82
1, 163307, Control_c, 0, 64, 84
1, 163322, Control_c, 0, 64, 86
1, 163337, Control_c, 0, 64, 88
1, 163351, Control_c, 0, 64, 90
1, 163366, Control_c, 0, 64, 92
1, 163381, Control_c, 0, 64, 93
1, 163401, Note_on_c, 0, 82, 54
1, 163404, Control_c, 0, 64, 93
1, 163416, Note_on_c, 0, 79, 42
1, 163418, Control_c, 0, 64, 94
1, 163433, Control_c, 0, 64, 95
1, 163434, Note_on_c, 0, 70, 35
1, 163441, Note_on_c, 0, 67, 41
1, 163445, Note_on_c, 0, 74, 31
1, 163448, Control_c, 0, 64, 96
1, 163463, Control_c, 0, 64, 96
1, 163466, Note_off_c, 0, 79, 53
1, 163469, Note_off_c, 0, 67, 54
1, 163469, Note_off_c, 0, 70, 50
1, 163472, Note_off_c, 0, 74, 56
1, 163473, Note_off_c, 0, 82, 62
1, 163477, Control_c, 0, 64, 97
1, 163484, Note_off_c, 0, 86, 63
1, 163492, Control_c, 0, 64, 98
1, 163507, Control_c, 0, 64, 99
1, 163522, Control_c, 0, 64, 101
1, 163537, Control_c, 0, 64, 103
1, 163551, Control_c, 0, 64, 104
1, 163566, Control_c, 0, 64, 106
1, 163581, Control_c, 0, 64, 106
1, 163596, Control_c, 0, 64, 107
1, 163611, Control_c, 0, 64, 107
1, 163655, Control_c, 0, 64, 108
1, 163699, Control_c, 0, 64, 108
1, 163710, Note_on_c, 0, 86, 72
1, 163734, Note_on_c, 0, 67, 42
1, 163739, Note_on_c, 0, 70, 35
1, 163743, Note_on_c, 0, 74, 33
1, 163744, Control_c, 0, 64, 109
1, 163749, Note_on_c, 0, 79, 32
1, 163750, Note_on_c, 0, 82, 42
1, 163773, Control_c, 0, 64, 109
1, 163802, Control_c, 0, 64, 110
1, 163817, Control_c, 0, 64, 111
1, 163832, Control_c, 0, 64, 112
1, 163847, Control_c, 0, 64, 113
1, 163859, Note_off_c, 0, 74, 54
1, 163861, Control_c, 0, 64, 114
1, 163872, Note_off_c, 0, 79, 41
1, 163875, Note_off_c, 0, 67, 56
1, 163876, Control_c, 0, 64, 115
1, 163881, Note_off_c, 0, 82, 44
1, 163889, Note_off_c, 0, 70, 43
1, 163891, Control_c, 0, 64, 117
1, 163906, Control_c, 0, 64, 119
1, 163922, Control_c, 0, 64, 121
1, 163937, Control_c, 0, 64, 124
1, 163952, Control_c, 0, 64, 126
1, 163966, Control_c, 0, 64, 127
1, 164065, Note_on_c, 0, 70, 17
1, 164079, Note_on_c, 0, 67, 19
1, 164086, Note_on_c, 0, 74, 18
1, 164098, Note_on_c, 0, 82, 27
1, 164110, Note_on_c, 0, 79, 23
1, 164183, Note_off_c, 0, 74, 57
1, 164215, Note_off_c, 0, 79, 40
1, 164215, Note_off_c, 0, 70, 46
1, 164222, Note_off_c, 0, 67, 41
1, 164230, Note_off_c, 0, 82, 41
1, 164349, Note_on_c, 0, 82, 33
1, 164350, Note_on_c, 0, 70, 31
1, 164354, Note_on_c, 0, 79, 17
1, 164363, Note_on_c, 0, 67, 23
1, 164370, Note_on_c, 0, 74, 23
1, 164444, Note_off_c, 0, 74, 52
1, 164468, Note_off_c, 0, 67, 49
1, 164473, Note_off_c, 0, 70, 43
1, 164483, Note_off_c, 0, 79, 36
1, 164491, Note_off_c, 0, 82, 42
1, 164629, Note_on_c, 0, 67, 25
1, 164638, Note_on_c, 0, 82, 38
1, 164643, Note_on_c, 0, 70, 20
1, 164658, Note_on_c, 0, 74, 19
1, 164658, Note_on_c, 0, 79, 3
1, 164703, Note_off_c, 0, 74, 60
1, 164708, Note_off_c, 0, 86, 62
1, 164732, Note_off_c, 0, 67, 50
1, 164739, Note_off_c, 0, 82, 61
1, 164743, Note_off_c, 0, 79, 44
1, 164751, Note_off_c, 0, 70, 37
1, 164930, Control_c, 0, 64, 120
1, 164945, Control_c, 0, 64, 108
1, 164960, Control_c, 0, 64, 98
1, 164975, Control_c, 0, 64, 87
1, 164989, Control_c, 0, 64, 75
1, 164990, Note_on_c, 0, 67, 25
1, 164990, Note_on_c, 0, 84, 57
1, 165002, Note_on_c, 0, 63, 23
1, 165002, Note_on_c, 0, 72, 26
1, 165004, Control_c, 0, 64, 61
1, 165015, Note_on_c, 0, 79, 11
1, 165019, Control_c, 0, 64, 0
1, 165078, Control_c, 0, 64, 48
1, 165093, Control_c, 0, 64, 65
1, 165108, Control_c, 0, 64, 70
1, 165122, Control_c, 0, 64, 74
1, 165137, Control_c, 0, 64, 78
1, 165152, Control_c, 0, 64, 80
1, 165158, Note_off_c, 0, 67, 43
1, 165158, Note_off_c, 0, 72, 41
1, 165162, Note_off_c, 0, 63, 38
1, 165165, Note_on_c, 0, 86, 60
1, 165167, Control_c, 0, 64, 82
1, 165168, Note_off_c, 0, 79, 42
1, 165182, Control_c, 0, 64, 84
1, 165196, Control_c, 0, 64, 86
1, 165207, Note_off_c, 0, 84, 60
1, 165211, Control_c, 0, 64, 88
1, 165226, Control_c, 0, 64, 91
1, 165240, Control_c, 0, 64, 93
1, 165255, Control_c, 0, 64, 95
1, 165270, Control_c, 0, 64, 98
1, 165285, Control_c, 0, 64, 100
1, 165296, Note_on_c, 0, 63, 37
1, 165296, Note_on_c, 0, 72, 34
1, 165299, Note_on_c, 0, 67, 31
1, 165300, Control_c, 0, 64, 101
1, 165314, Note_on_c, 0, 79, 35
1, 165314, Control_c, 0, 64, 103
1, 165322, Note_on_c, 0, 84, 67
1, 165329, Control_c, 0, 64, 104
1, 165335, Note_off_c, 0, 86, 51
1, 165344, Control_c, 0, 64, 105
1, 165387, Note_off_c, 0, 63, 37
1, 165402, Note_off_c, 0, 72, 39
1, 165405, Note_off_c, 0, 79, 36
1, 165411, Note_off_c, 0, 67, 36
1, 165422, Note_off_c, 0, 84, 62
1, 165431, Note_on_c, 0, 86, 67
1, 165523, Control_c, 0, 64, 104
1, 165538, Control_c, 0, 64, 103
1, 165553, Control_c, 0, 64, 99
1, 165568, Control_c, 0, 64, 93
1, 165571, Note_on_c, 0, 67, 40
1, 165574, Note_on_c, 0, 79, 60
1, 165580, Note_on_c, 0, 70, 41
1, 165583, Control_c, 0, 64, 85
1, 165589, Note_on_c, 0, 74, 42
1, 165598, Control_c, 0, 64, 73
1, 165612, Control_c, 0, 64, 59
1, 165627, Control_c, 0, 64, 0
1, 165649, Note_off_c, 0, 70, 0
1, 165649, Note_on_c, 0, 70, 16
1, 165668, Note_off_c, 0, 74, 58
1, 165723, Control_c, 0, 64, 37
1, 165738, Control_c, 0, 64, 64
1, 165753, Control_c, 0, 64, 70
1, 165758, Note_off_c, 0, 70, 56
1, 165758, Note_off_c, 0, 67, 58
1, 165768, Control_c, 0, 64, 76
1, 165782, Control_c, 0, 64, 80
1, 165797, Control_c, 0, 64, 84
1, 165812, Control_c, 0, 64, 86
1, 165821, Note_off_c, 0, 86, 37
1, 165827, Control_c, 0, 64, 87
1, 165842, Control_c, 0, 64, 89
1, 165857, Control_c, 0, 64, 90
1, 165861, Note_on_c, 0, 74, 51
1, 165871, Control_c, 0, 64, 92
1, 165886, Control_c, 0, 64, 94
1, 165896, Note_on_c, 0, 67, 43
1, 165900, Note_on_c, 0, 70, 40
1, 165901, Control_c, 0, 64, 95
1, 165916, Control_c, 0, 64, 96
1, 165931, Control_c, 0, 64, 97
1, 165937, Note_off_c, 0, 67, 46
1, 165940, Note_off_c, 0, 70, 47
1, 165945, Control_c, 0, 64, 97
1, 165960, Control_c, 0, 64, 98
1, 165961, Note_off_c, 0, 74, 57
1, 165988, Note_on_c, 0, 82, 66
1, 166004, Control_c, 0, 64, 98
1, 166033, Note_off_c, 0, 79, 53
1, 166078, Control_c, 0, 64, 98
1, 166108, Control_c, 0, 64, 97
1, 166123, Control_c, 0, 64, 96
1, 166137, Control_c, 0, 64, 92
1, 166147, Note_on_c, 0, 81, 72
1, 166151, Note_on_c, 0, 67, 39
1, 166152, Control_c, 0, 64, 87
1, 166164, Note_on_c, 0, 72, 34
1, 166167, Control_c, 0, 64, 79
1, 166182, Control_c, 0, 64, 67
1, 166184, Note_on_c, 0, 75, 43
1, 166197, Control_c, 0, 64, 0
1, 166224, Note_off_c, 0, 82, 59
1, 166231, Note_off_c, 0, 72, 0
1, 166231, Note_on_c, 0, 72, 3
1, 166286, Control_c, 0, 64, 40
1, 166296, Note_off_c, 0, 75, 60
1, 166301, Control_c, 0, 64, 63
1, 166316, Control_c, 0, 64, 68
1, 166324, Note_off_c, 0, 72, 57
1, 166327, Note_off_c, 0, 67, 54
1, 166331, Control_c, 0, 64, 72
1, 166346, Control_c, 0, 64, 77
1, 166361, Control_c, 0, 64, 81
1, 166376, Control_c, 0, 64, 84
1, 166398, Control_c, 0, 64, 86
1, 166413, Control_c, 0, 64, 88
1, 166428, Control_c, 0, 64, 90
1, 166442, Note_on_c, 0, 75, 48
1, 166442, Control_c, 0, 64, 93
1, 166457, Control_c, 0, 64, 96
1, 166468, Note_on_c, 0, 72, 46
1, 166470, Note_on_c, 0, 67, 43
1, 166472, Control_c, 0, 64, 99
1, 166486, Control_c, 0, 64, 101
1, 166501, Control_c, 0, 64, 103
1, 166516, Control_c, 0, 64, 104
1, 166517, Note_off_c, 0, 72, 46
1, 166526, Note_off_c, 0, 67, 56
1, 166531, Control_c, 0, 64, 105
1, 166546, Control_c, 0, 64, 106
1, 166559, Note_on_c, 0, 82, 67
1, 166561, Control_c, 0, 64, 107
1, 166572, Note_off_c, 0, 75, 36
1, 166638, Note_off_c, 0, 81, 38
1, 166709, Control_c, 0, 64, 106
1, 166724, Control_c, 0, 64, 103
1, 166729, Note_on_c, 0, 79, 73
1, 166736, Note_on_c, 0, 74, 45
1, 166736, Note_on_c, 0, 67, 42
1, 166739, Control_c, 0, 64, 96
1, 166754, Control_c, 0, 64, 85
1, 166757, Note_on_c, 0, 70, 36
1, 166768, Control_c, 0, 64, 73
1, 166776, Note_off_c, 0, 82, 53
1, 166783, Control_c, 0, 64, 48
1, 166798, Control_c, 0, 64, 0
1, 166805, Note_off_c, 0, 70, 0
1, 166805, Note_on_c, 0, 70, 14
1, 166826, Note_off_c, 0, 74, 60
1, 166886, Control_c, 0, 64, 57
1, 166901, Control_c, 0, 64, 68
1, 166909, Note_off_c, 0, 67, 61
1, 166909, Note_off_c, 0, 70, 58
1, 166916, Control_c, 0, 64, 74
1, 166931, Control_c, 0, 64, 79
1, 166946, Control_c, 0, 64, 83
1, 166960, Control_c, 0, 64, 85
1, 166975, Control_c, 0, 64, 86
1, 166990, Control_c, 0, 64, 88
1, 167005, Control_c, 0, 64, 91
1, 167017, Note_on_c, 0, 74, 49
1, 167020, Control_c, 0, 64, 93
1, 167034, Control_c, 0, 64, 96
1, 167045, Note_on_c, 0, 70, 48
1, 167047, Note_on_c, 0, 67, 43
1, 167049, Control_c, 0, 64, 97
1, 167064, Control_c, 0, 64, 98
1, 167079, Control_c, 0, 64, 99
1, 167094, Control_c, 0, 64, 99
1, 167106, Note_off_c, 0, 70, 47
1, 167109, Control_c, 0, 64, 100
1, 167111, Note_off_c, 0, 67, 49
1, 167124, Note_off_c, 0, 74, 62
1, 167124, Control_c, 0, 64, 100
1, 167160, Note_on_c, 0, 82, 70
1, 167162, Control_c, 0, 64, 101
1, 167193, Note_off_c, 0, 79, 60
1, 167339, Control_c, 0, 64, 99
1, 167354, Control_c, 0, 64, 96
1, 167368, Note_on_c, 0, 84, 67
1, 167369, Control_c, 0, 64, 90
1, 167374, Note_on_c, 0, 79, 46
1, 167380, Note_on_c, 0, 67, 42
1, 167383, Control_c, 0, 64, 83
1, 167394, Note_on_c, 0, 63, 36
1, 167398, Control_c, 0, 64, 73
1, 167399, Note_on_c, 0, 72, 36
1, 167404, Note_off_c, 0, 82, 40
1, 167413, Control_c, 0, 64, 56
1, 167428, Control_c, 0, 64, 0
1, 167505, Note_off_c, 0, 72, 47
1, 167532, Control_c, 0, 64, 50
1, 167547, Control_c, 0, 64, 67
1, 167562, Control_c, 0, 64, 73
1, 167577, Control_c, 0, 64, 78
1, 167580, Note_off_c, 0, 67, 58
1, 167591, Control_c, 0, 64, 81
1, 167603, Note_off_c, 0, 63, 42
1, 167606, Control_c, 0, 64, 83
1, 167621, Control_c, 0, 64, 84
1, 167635, Control_c, 0, 64, 86
1, 167650, Control_c, 0, 64, 87
1, 167665, Control_c, 0, 64, 89
1, 167680, Control_c, 0, 64, 91
1, 167695, Control_c, 0, 64, 93
1, 167709, Control_c, 0, 64, 95
1, 167711, Note_on_c, 0, 63, 38
1, 167723, Note_on_c, 0, 72, 39
1, 167724, Control_c, 0, 64, 96
1, 167733, Note_on_c, 0, 67, 36
1, 167739, Control_c, 0, 64, 97
1, 167753, Control_c, 0, 64, 97
1, 167768, Control_c, 0, 64, 98
1, 167783, Control_c, 0, 64, 98
1, 167800, Note_off_c, 0, 67, 37
1, 167803, Note_off_c, 0, 63, 38
1, 167815, Note_off_c, 0, 72, 53
1, 167819, Note_off_c, 0, 79, 62
1, 167833, Note_on_c, 0, 82, 59
1, 167940, Control_c, 0, 64, 98
1, 167955, Control_c, 0, 64, 96
1, 167970, Control_c, 0, 64, 93
1, 167985, Control_c, 0, 64, 89
1, 168000, Control_c, 0, 64, 81
1, 168008, Note_on_c, 0, 67, 36
1, 168013, Note_on_c, 0, 79, 62
1, 168014, Note_on_c, 0, 70, 38
1, 168014, Control_c, 0, 64, 70
1, 168027, Note_off_c, 0, 82, 47
1, 168029, Control_c, 0, 64, 0
1, 168064, Poly_aftertouch_c, 0, 74, 127
1, 168098, Poly_aftertouch_c, 0, 74, 0
1, 168147, Control_c, 0, 64, 58
1, 168162, Control_c, 0, 64, 68
1, 168177, Control_c, 0, 64, 74
1, 168192, Control_c, 0, 64, 81
1, 168206, Control_c, 0, 64, 85
1, 168221, Control_c, 0, 64, 88
1, 168236, Control_c, 0, 64, 92
1, 168251, Control_c, 0, 64, 95
1, 168266, Control_c, 0, 64, 99
1, 168273, Note_off_c, 0, 84, 62
1, 168280, Control_c, 0, 64, 103
1, 168294, Note_off_c, 0, 79, 62
1, 168295, Control_c, 0, 64, 106
1, 168310, Control_c, 0, 64, 109
1, 168325, Control_c, 0, 64, 112
1, 168340, Control_c, 0, 64, 114
1, 168349, Note_off_c, 0, 70, 63
1, 168355, Control_c, 0, 64, 117
1, 168356, Note_off_c, 0, 67, 63
1, 168370, Control_c, 0, 64, 120
1, 168384, Poly_aftertouch_c, 0, 74, 0
1, 168384, Control_c, 0, 64, 127
1, 168399, Control_c, 0, 64, 127
1, 168576, Note_on_c, 0, 74, 34
1, 168581, Note_on_c, 0, 79, 46
1, 168595, Note_on_c, 0, 70, 34
1, 168605, Note_on_c, 0, 67, 9
1, 168705, Note_off_c, 0, 74, 59
1, 168741, Note_off_c, 0, 70, 36
1, 168746, Note_off_c, 0, 67, 40
1, 168902, Note_on_c, 0, 67, 24
1, 168906, Note_on_c, 0, 70, 36
1, 168915, Note_on_c, 0, 74, 38
1, 169043, Note_off_c, 0, 74, 48
1, 169047, Note_off_c, 0, 70, 42
1, 169058, Note_off_c, 0, 67, 42
1, 169244, Note_on_c, 0, 98, 41
1, 169254, Note_on_c, 0, 91, 33
1, 169257, Note_on_c, 0, 74, 19
1, 169258, Note_on_c, 0, 70, 26
1, 169284, Poly_aftertouch_c, 0, 67, 127
1, 169317, Note_off_c, 0, 91, 49
1, 169317, Note_off_c, 0, 98, 61
1, 169356, Note_off_c, 0, 74, 37
1, 169366, Poly_aftertouch_c, 0, 67, 0
1, 169369, Note_off_c, 0, 70, 34
1, 169654, Note_on_c, 0, 74, 19
1, 169664, Note_on_c, 0, 70, 27
1, 169675, Note_on_c, 0, 67, 22
1, 169711, Note_off_c, 0, 67, 43
1, 169717, Note_off_c, 0, 70, 52
1, 169720, Note_off_c, 0, 74, 56
1, 169740, Note_off_c, 0, 79, 61
1, 170020, Note_on_c, 0, 82, 56
1, 170041, Note_on_c, 0, 67, 20
1, 170047, Note_on_c, 0, 70, 29
1, 170048, Note_on_c, 0, 75, 39
1, 170206, Note_off_c, 0, 70, 42
1, 170220, Note_off_c, 0, 67, 40
1, 170225, Note_off_c, 0, 75, 36
1, 170264, Note_off_c, 0, 82, 37
1, 170367, Note_on_c, 0, 82, 53
1, 170379, Note_on_c, 0, 84, 65
1, 170381, Note_on_c, 0, 75, 48
1, 170384, Note_on_c, 0, 67, 39
1, 170404, Note_on_c, 0, 70, 31
1, 170446, Note_off_c, 0, 67, 62
1, 170466, Note_off_c, 0, 70, 48
1, 170477, Note_off_c, 0, 75, 61
1, 170553, Note_off_c, 0, 82, 38
1, 170576, Note_off_c, 0, 84, 56
1, 170720, Control_c, 0, 64, 124
1, 170734, Control_c, 0, 64, 111
1, 170749, Control_c, 0, 64, 100
1, 170764, Control_c, 0, 64, 88
1, 170766, Note_on_c, 0, 86, 63
1, 170768, Note_on_c, 0, 70, 42
1, 170769, Note_on_c, 0, 82, 56
1, 170778, Note_on_c, 0, 76, 45
1, 170778, Control_c, 0, 64, 73
1, 170781, Note_on_c, 0, 66, 47
1, 170787, Note_on_c, 0, 74, 40
1, 170793, Control_c, 0, 64, 41
1, 170808, Control_c, 0, 64, 0
1, 170815, Note_off_c, 0, 70, 0
1, 170815, Note_on_c, 0, 70, 12
1, 170890, Control_c, 0, 64, 54
1, 170905, Control_c, 0, 64, 65
1, 170920, Control_c, 0, 64, 71
1, 170934, Control_c, 0, 64, 76
1, 170949, Control_c, 0, 64, 80
1, 170964, Control_c, 0, 64, 83
1, 170972, Note_off_c, 0, 82, 44
1, 170978, Control_c, 0, 64, 85
1, 170991, Note_off_c, 0, 74, 38
1, 170993, Control_c, 0, 64, 87
1, 171002, Note_off_c, 0, 76, 40
1, 171008, Control_c, 0, 64, 89
1, 171023, Control_c, 0, 64, 91
1, 171030, Note_off_c, 0, 70, 42
1, 171035, Note_off_c, 0, 66, 41
1, 171038, Control_c, 0, 64, 92
1, 171053, Control_c, 0, 64, 94
1, 171068, Control_c, 0, 64, 95
1, 171083, Control_c, 0, 64, 96
1, 171097, Control_c, 0, 64, 97
1, 171113, Control_c, 0, 64, 98
1, 171118, Note_on_c, 0, 82, 53
1, 171128, Control_c, 0, 64, 100
1, 171130, Note_on_c, 0, 74, 48
1, 171134, Note_on_c, 0, 66, 44
1, 171139, Note_on_c, 0, 70, 50
1, 171142, Note_on_c, 0, 76, 46
1, 171143, Control_c, 0, 64, 103
1, 171157, Control_c, 0, 64, 105
1, 171172, Control_c, 0, 64, 107
1, 171187, Control_c, 0, 64, 108
1, 171188, Note_off_c, 0, 70, 57
1, 171193, Note_off_c, 0, 76, 56
1, 171200, Note_off_c, 0, 66, 53
1, 171202, Control_c, 0, 64, 109
1, 171206, Note_off_c, 0, 74, 60
1, 171211, Note_off_c, 0, 86, 56
1, 171217, Control_c, 0, 64, 109
1, 171230, Note_off_c, 0, 82, 54
1, 171232, Control_c, 0, 64, 110
1, 171395, Control_c, 0, 64, 109
1, 171396, Note_on_c, 0, 86, 77
1, 171399, Note_on_c, 0, 82, 54
1, 171406, Note_on_c, 0, 74, 63
1, 171407, Note_on_c, 0, 66, 57
1, 171409, Control_c, 0, 64, 108
1, 171410, Note_on_c, 0, 70, 50
1, 171413, Note_on_c, 0, 76, 46
1, 171424, Control_c, 0, 64, 104
1, 171439, Control_c, 0, 64, 97
1, 171454, Control_c, 0, 64, 89
1, 171469, Control_c, 0, 64, 81
1, 171483, Control_c, 0, 64, 71
1, 171498, Control_c, 0, 64, 58
1, 171513, Control_c, 0, 64, 0
1, 171528, Control_c, 0, 64, 47
1, 171543, Control_c, 0, 64, 65
1, 171557, Control_c, 0, 64, 71
1, 171566, Note_off_c, 0, 74, 51
1, 171572, Control_c, 0, 64, 77
1, 171583, Note_off_c, 0, 66, 59
1, 171586, Note_off_c, 0, 76, 61
1, 171587, Control_c, 0, 64, 81
1, 171592, Note_off_c, 0, 82, 39
1, 171594, Note_off_c, 0, 70, 60
1, 171601, Control_c, 0, 64, 84
1, 171616, Control_c, 0, 64, 85
1, 171639, Control_c, 0, 64, 87
1, 171654, Control_c, 0, 64, 89
1, 171669, Control_c, 0, 64, 91
1, 171683, Control_c, 0, 64, 93
1, 171698, Control_c, 0, 64, 95
1, 171713, Control_c, 0, 64, 95
1, 171714, Note_on_c, 0, 82, 61
1, 171725, Note_on_c, 0, 66, 55
1, 171725, Note_on_c, 0, 76, 53
1, 171726, Note_on_c, 0, 74, 53
1, 171728, Control_c, 0, 64, 96
1, 171729, Note_on_c, 0, 70, 56
1, 171757, Control_c, 0, 64, 96
1, 171772, Control_c, 0, 64, 97
1, 171787, Control_c, 0, 64, 97
1, 171802, Note_off_c, 0, 76, 58
1, 171802, Control_c, 0, 64, 98
1, 171806, Note_off_c, 0, 70, 53
1, 171818, Note_off_c, 0, 66, 57
1, 171834, Note_off_c, 0, 82, 54
1, 171852, Note_off_c, 0, 74, 58
1, 171995, Control_c, 0, 64, 97
1, 171997, Note_on_c, 0, 70, 42
1, 172010, Control_c, 0, 64, 95
1, 172014, Note_on_c, 0, 77, 53
1, 172015, Note_on_c, 0, 82, 51
1, 172023, Note_on_c, 0, 74, 36
1, 172024, Note_on_c, 0, 65, 51
1, 172025, Control_c, 0, 64, 88
1, 172040, Control_c, 0, 64, 79
1, 172055, Control_c, 0, 64, 66
1, 172070, Control_c, 0, 64, 0
1, 172144, Control_c, 0, 64, 59
1, 172159, Control_c, 0, 64, 67
1, 172166, Note_off_c, 0, 65, 58
1, 172166, Note_off_c, 0, 70, 58
1, 172174, Control_c, 0, 64, 72
1, 172177, Note_off_c, 0, 77, 51
1, 172188, Control_c, 0, 64, 78
1, 172195, Note_off_c, 0, 82, 30
1, 172203, Control_c, 0, 64, 82
1, 172204, Note_off_c, 0, 74, 38
1, 172218, Control_c, 0, 64, 84
1, 172233, Control_c, 0, 64, 85
1, 172248, Control_c, 0, 64, 86
1, 172263, Control_c, 0, 64, 88
1, 172278, Control_c, 0, 64, 90
1, 172293, Control_c, 0, 64, 92
1, 172307, Control_c, 0, 64, 94
1, 172313, Note_on_c, 0, 82, 51
1, 172322, Note_on_c, 0, 77, 44
1, 172322, Control_c, 0, 64, 95
1, 172324, Note_on_c, 0, 70, 48
1, 172329, Note_on_c, 0, 74, 48
1, 172337, Control_c, 0, 64, 96
1, 172338, Note_on_c, 0, 65, 34
1, 172351, Control_c, 0, 64, 97
1, 172359, Note_off_c, 0, 77, 53
1, 172373, Control_c, 0, 64, 98
1, 172374, Note_off_c, 0, 70, 62
1, 172374, Note_off_c, 0, 82, 60
1, 172388, Control_c, 0, 64, 98
1, 172396, Note_off_c, 0, 86, 63
1, 172403, Control_c, 0, 64, 99
1, 172409, Note_off_c, 0, 74, 59
1, 172427, Note_off_c, 0, 65, 39
1, 172596, Control_c, 0, 64, 98
1, 172611, Control_c, 0, 64, 95
1, 172626, Control_c, 0, 64, 90
1, 172636, Note_on_c, 0, 64, 41
1, 172639, Note_on_c, 0, 72, 46
1, 172640, Control_c, 0, 64, 82
1, 172641, Note_on_c, 0, 79, 47
1, 172642, Note_on_c, 0, 67, 45
1, 172655, Control_c, 0, 64, 72
1, 172670, Control_c, 0, 64, 57
1, 172685, Control_c, 0, 64, 0
1, 172690, Note_off_c, 0, 79, 0
1, 172690, Note_on_c, 0, 79, 6
1, 172745, Control_c, 0, 64, 18
1, 172760, Control_c, 0, 64, 63
1, 172775, Control_c, 0, 64, 69
1, 172776, Note_on_c, 0, 81, 63
1, 172788, Note_off_c, 0, 67, 52
1, 172790, Control_c, 0, 64, 75
1, 172793, Note_off_c, 0, 72, 41
1, 172804, Control_c, 0, 64, 81
1, 172806, Note_off_c, 0, 64, 57
1, 172819, Control_c, 0, 64, 83
1, 172834, Control_c, 0, 64, 84
1, 172847, Note_off_c, 0, 79, 42
1, 172848, Control_c, 0, 64, 85
1, 172863, Control_c, 0, 64, 86
1, 172878, Control_c, 0, 64, 87
1, 172893, Control_c, 0, 64, 88
1, 172908, Control_c, 0, 64, 89
1, 172922, Control_c, 0, 64, 90
1, 172925, Note_on_c, 0, 67, 51
1, 172926, Note_on_c, 0, 64, 45
1, 172937, Note_on_c, 0, 79, 70
1, 172937, Control_c, 0, 64, 91
1, 172940, Note_on_c, 0, 72, 45
1, 172954, Note_off_c, 0, 81, 57
1, 172958, Note_off_c, 0, 67, 63
1, 172963, Note_off_c, 0, 64, 64
1, 172967, Control_c, 0, 64, 91
1, 173016, Note_off_c, 0, 72, 64
1, 173041, Control_c, 0, 64, 92
1, 173060, Note_on_c, 0, 81, 78
1, 173107, Note_off_c, 0, 79, 50
1, 173137, Control_c, 0, 64, 91
1, 173152, Control_c, 0, 64, 91
1, 173167, Control_c, 0, 64, 88
1, 173181, Control_c, 0, 64, 84
1, 173196, Control_c, 0, 64, 77
1, 173211, Control_c, 0, 64, 67
1, 173223, Note_on_c, 0, 67, 50
1, 173223, Note_on_c, 0, 70, 51
1, 173223, Note_on_c, 0, 82, 68
1, 173226, Control_c, 0, 64, 0
1, 173228, Note_on_c, 0, 79, 63
1, 173234, Note_on_c, 0, 63, 44
1, 173237, Note_on_c, 0, 73, 28
1, 173266, Note_off_c, 0, 81, 52
1, 173330, Control_c, 0, 64, 63
1, 173345, Control_c, 0, 64, 70
1, 173360, Control_c, 0, 64, 77
1, 173374, Control_c, 0, 64, 81
1, 173389, Control_c, 0, 64, 83
1, 173404, Control_c, 0, 64, 83
1, 173405, Note_off_c, 0, 63, 55
1, 173409, Note_off_c, 0, 67, 60
1, 173411, Note_off_c, 0, 73, 52
1, 173417, Note_off_c, 0, 70, 37
1, 173419, Control_c, 0, 64, 84
1, 173421, Note_off_c, 0, 79, 53
1, 173434, Control_c, 0, 64, 84
1, 173448, Control_c, 0, 64, 86
1, 173463, Control_c, 0, 64, 88
1, 173478, Control_c, 0, 64, 90
1, 173493, Control_c, 0, 64, 92
1, 173509, Control_c, 0, 64, 93
1, 173524, Control_c, 0, 64, 93
1, 173528, Note_on_c, 0, 70, 64
1, 173531, Note_on_c, 0, 73, 46
1, 173532, Note_on_c, 0, 79, 70
1, 173538, Note_on_c, 0, 63, 57
1, 173538, Control_c, 0, 64, 94
1, 173539, Note_on_c, 0, 67, 60
1, 173552, Control_c, 0, 64, 95
1, 173567, Control_c, 0, 64, 95
1, 173582, Control_c, 0, 64, 96
1, 173601, Note_off_c, 0, 70, 60
1, 173609, Note_off_c, 0, 82, 60
1, 173611, Control_c, 0, 64, 97
1, 173614, Note_off_c, 0, 73, 54
1, 173619, Note_off_c, 0, 67, 58
1, 173623, Note_off_c, 0, 79, 57
1, 173651, Note_off_c, 0, 63, 37
1, 173811, Note_on_c, 0, 79, 65
1, 173813, Note_on_c, 0, 82, 73
1, 173819, Note_on_c, 0, 70, 59
1, 173819, Control_c, 0, 64, 95
1, 173822, Note_on_c, 0, 63, 47
1, 173828, Note_on_c, 0, 67, 59
1, 173830, Note_on_c, 0, 73, 55
1, 173834, Control_c, 0, 64, 91
1, 173849, Control_c, 0, 64, 85
1, 173864, Control_c, 0, 64, 75
1, 173885, Control_c, 0, 64, 62
1, 173900, Control_c, 0, 64, 0
1, 173959, Control_c, 0, 64, 16
1, 173974, Control_c, 0, 64, 63
1, 173986, Note_off_c, 0, 70, 60
1, 173989, Control_c, 0, 64, 68
1, 173996, Note_off_c, 0, 67, 54
1, 174000, Note_off_c, 0, 73, 56
1, 174004, Control_c, 0, 64, 72
1, 174004, Note_off_c, 0, 63, 52
1, 174012, Note_off_c, 0, 79, 57
1, 174019, Control_c, 0, 64, 76
1, 174034, Control_c, 0, 64, 79
1, 174049, Control_c, 0, 64, 82
1, 174063, Control_c, 0, 64, 84
1, 174078, Control_c, 0, 64, 85
1, 174093, Control_c, 0, 64, 87
1, 174108, Control_c, 0, 64, 88
1, 174123, Control_c, 0, 64, 90
1, 174123, Note_on_c, 0, 79, 66
1, 174125, Note_on_c, 0, 70, 57
1, 174126, Note_on_c, 0, 63, 53
1, 174127, Note_on_c, 0, 73, 63
1, 174135, Note_on_c, 0, 67, 61
1, 174138, Control_c, 0, 64, 93
1, 174152, Control_c, 0, 64, 95
1, 174167, Control_c, 0, 64, 97
1, 174170, Note_off_c, 0, 67, 62
1, 174173, Note_off_c, 0, 73, 58
1, 174182, Control_c, 0, 64, 98
1, 174195, Note_off_c, 0, 63, 59
1, 174196, Control_c, 0, 64, 100
1, 174205, Note_off_c, 0, 70, 61
1, 174211, Control_c, 0, 64, 101
1, 174226, Control_c, 0, 64, 102
1, 174245, Note_off_c, 0, 79, 57
1, 174256, Control_c, 0, 64, 102
1, 174331, Control_c, 0, 64, 102
1, 174405, Control_c, 0, 64, 100
1, 174419, Control_c, 0, 64, 96
1, 174434, Control_c, 0, 64, 91
1, 174436, Note_on_c, 0, 79, 54
1, 174439, Note_on_c, 0, 67, 43
1, 174439, Note_on_c, 0, 74, 43
1, 174446, Note_on_c, 0, 62, 43
1, 174448, Note_on_c, 0, 70, 49
1, 174449, Control_c, 0, 64, 84
1, 174464, Control_c, 0, 64, 76
1, 174479, Control_c, 0, 64, 64
1, 174494, Control_c, 0, 64, 0
1, 174568, Control_c, 0, 64, 47
1, 174582, Control_c, 0, 64, 63
1, 174587, Note_off_c, 0, 74, 56
1, 174597, Control_c, 0, 64, 68
1, 174599, Note_off_c, 0, 79, 55
1, 174600, Note_off_c, 0, 70, 38
1, 174609, Note_off_c, 0, 67, 55
1, 174612, Control_c, 0, 64, 72
1, 174628, Note_off_c, 0, 62, 44
1, 174634, Control_c, 0, 64, 75
1, 174649, Control_c, 0, 64, 78
1, 174664, Control_c, 0, 64, 80
1, 174679, Control_c, 0, 64, 82
1, 174694, Control_c, 0, 64, 84
1, 174708, Control_c, 0, 64, 85
1, 174723, Control_c, 0, 64, 87
1, 174738, Control_c, 0, 64, 88
1, 174750, Note_on_c, 0, 79, 59
1, 174752, Note_on_c, 0, 74, 41
1, 174752, Control_c, 0, 64, 90
1, 174755, Note_on_c, 0, 70, 48
1, 174763, Note_on_c, 0, 62, 46
1, 174765, Note_on_c, 0, 67, 45
1, 174767, Control_c, 0, 64, 91
1, 174776, Note_off_c, 0, 74, 61
1, 174782, Control_c, 0, 64, 93
1, 174789, Note_off_c, 0, 67, 60
1, 174797, Control_c, 0, 64, 93
1, 174800, Note_off_c, 0, 62, 53
1, 174804, Note_off_c, 0, 79, 60
1, 174858, Note_off_c, 0, 70, 60
1, 174913, Note_off_c, 0, 82, 38
1, 175034, Control_c, 0, 64, 92
1, 175049, Control_c, 0, 64, 89
1, 175059, Note_on_c, 0, 61, 46
1, 175064, Control_c, 0, 64, 85
1, 175065, Note_on_c, 0, 76, 52
1, 175071, Note_on_c, 0, 64, 43
1, 175074, Note_on_c, 0, 69, 48
1, 175079, Control_c, 0, 64, 78
1, 175095, Control_c, 0, 64, 69
1, 175110, Control_c, 0, 64, 42
1, 175124, Control_c, 0, 64, 0
1, 175184, Control_c, 0, 64, 32
1, 175198, Control_c, 0, 64, 62
1, 175213, Control_c, 0, 64, 66
1, 175218, Note_on_c, 0, 78, 62
1, 175218, Note_off_c, 0, 64, 58
1, 175220, Note_off_c, 0, 61, 58
1, 175226, Note_off_c, 0, 69, 59
1, 175228, Control_c, 0, 64, 68
1, 175242, Control_c, 0, 64, 70
1, 175252, Note_off_c, 0, 76, 61
1, 175257, Control_c, 0, 64, 72
1, 175272, Control_c, 0, 64, 73
1, 175287, Control_c, 0, 64, 75
1, 175302, Control_c, 0, 64, 77
1, 175316, Control_c, 0, 64, 78
1, 175331, Control_c, 0, 64, 79
1, 175346, Control_c, 0, 64, 80
1, 175354, Note_on_c, 0, 61, 51
1, 175361, Note_on_c, 0, 64, 43
1, 175361, Control_c, 0, 64, 80
1, 175375, Note_off_c, 0, 78, 59
1, 175378, Note_on_c, 0, 69, 53
1, 175378, Note_on_c, 0, 76, 69
1, 175383, Control_c, 0, 64, 81
1, 175403, Note_off_c, 0, 64, 51
1, 175420, Note_off_c, 0, 61, 54
1, 175443, Control_c, 0, 64, 81
1, 175492, Note_off_c, 0, 69, 56
1, 175505, Note_on_c, 0, 78, 68
1, 175532, Note_off_c, 0, 76, 59
1, 175546, Control_c, 0, 64, 81
1, 175620, Control_c, 0, 64, 80
1, 175635, Control_c, 0, 64, 79
1, 175649, Control_c, 0, 64, 75
1, 175663, Note_on_c, 0, 76, 56
1, 175663, Note_off_c, 0, 78, 48
1, 175664, Control_c, 0, 64, 68
1, 175665, Note_on_c, 0, 79, 59
1, 175669, Note_on_c, 0, 64, 32
1, 175674, Note_on_c, 0, 60, 50
1, 175674, Note_on_c, 0, 67, 46
1, 175677, Note_on_c, 0, 70, 38
1, 175679, Control_c, 0, 64, 45
1, 175694, Control_c, 0, 64, 0
1, 175798, Control_c, 0, 64, 37
1, 175810, Note_off_c, 0, 76, 62
1, 175813, Control_c, 0, 64, 65
1, 175816, Note_off_c, 0, 67, 56
1, 175828, Control_c, 0, 64, 70
1, 175840, Note_off_c, 0, 60, 54
1, 175840, Note_off_c, 0, 70, 55
1, 175843, Note_off_c, 0, 64, 50
1, 175843, Control_c, 0, 64, 75
1, 175858, Control_c, 0, 64, 77
1, 175873, Control_c, 0, 64, 79
1, 175888, Control_c, 0, 64, 81
1, 175903, Control_c, 0, 64, 82
1, 175918, Control_c, 0, 64, 83
1, 175933, Control_c, 0, 64, 85
1, 175947, Control_c, 0, 64, 87
1, 175956, Note_on_c, 0, 67, 56
1, 175962, Control_c, 0, 64, 90
1, 175975, Note_on_c, 0, 70, 53
1, 175977, Note_on_c, 0, 60, 50
1, 175977, Note_on_c, 0, 76, 56
1, 175977, Control_c, 0, 64, 93
1, 175988, Note_on_c, 0, 64, 44
1, 175991, Note_off_c, 0, 67, 66
1, 175992, Control_c, 0, 64, 95
1, 176007, Control_c, 0, 64, 97
1, 176015, Note_off_c, 0, 70, 64
1, 176015, Note_off_c, 0, 76, 65
1, 176016, Note_off_c, 0, 60, 62
1, 176022, Control_c, 0, 64, 97
1, 176024, Note_off_c, 0, 64, 56
1, 176027, Note_off_c, 0, 79, 62
1, 176037, Control_c, 0, 64, 98
1, 176237, Control_c, 0, 64, 97
1, 176252, Control_c, 0, 64, 95
1, 176258, Note_on_c, 0, 73, 60
1, 176262, Note_on_c, 0, 66, 54
1, 176267, Control_c, 0, 64, 89
1, 176269, Note_on_c, 0, 64, 39
1, 176273, Note_on_c, 0, 59, 48
1, 176277, Note_on_c, 0, 71, 38
1, 176281, Control_c, 0, 64, 79
1, 176296, Control_c, 0, 64, 67
1, 176311, Control_c, 0, 64, 0
1, 176342, Note_off_c, 0, 59, 0
1, 176342, Note_on_c, 0, 59, 3
1, 176394, Note_off_c, 0, 66, 55
1, 176400, Control_c, 0, 64, 26
1, 176405, Note_on_c, 0, 75, 66
1, 176415, Control_c, 0, 64, 65
1, 176424, Note_off_c, 0, 59, 38
1, 176430, Control_c, 0, 64, 71
1, 176445, Control_c, 0, 64, 75
1, 176448, Note_off_c, 0, 64, 42
1, 176455, Note_off_c, 0, 73, 58
1, 176457, Note_off_c, 0, 71, 38
1, 176460, Control_c, 0, 64, 79
1, 176474, Control_c, 0, 64, 81
1, 176489, Control_c, 0, 64, 82
1, 176504, Control_c, 0, 64, 83
1, 176519, Control_c, 0, 64, 84
1, 176532, Control_c, 0, 64, 85
1, 176535, Note_on_c, 0, 64, 48
1, 176547, Control_c, 0, 64, 86
1, 176550, Note_on_c, 0, 66, 61
1, 176558, Note_on_c, 0, 59, 25
1, 176561, Control_c, 0, 64, 87
1, 176568, Note_on_c, 0, 73, 68
1, 176575, Note_off_c, 0, 64, 60
1, 176591, Control_c, 0, 64, 87
1, 176592, Note_off_c, 0, 75, 61
1, 176594, Note_off_c, 0, 59, 46
1, 176602, Poly_aftertouch_c, 0, 71, 0
1, 176606, Control_c, 0, 64, 88
1, 176690, Note_off_c, 0, 73, 61
1, 176690, Note_on_c, 0, 75, 74
1, 176722, Note_off_c, 0, 66, 34
1, 176814, Control_c, 0, 64, 87
1, 176829, Control_c, 0, 64, 84
1, 176844, Control_c, 0, 64, 78
1, 176852, Note_on_c, 0, 72, 58
1, 176859, Control_c, 0, 64, 68
1, 176860, Note_on_c, 0, 58, 42
1, 176863, Note_on_c, 0, 67, 42
1, 176877, Note_on_c, 0, 60, 34
1, 176879, Note_on_c, 0, 76, 67
1, 176881, Control_c, 0, 64, 0
1, 176883, Note_on_c, 0, 64, 28
1, 176950, Note_off_c, 0, 75, 37
1, 177015, Control_c, 0, 64, 61
1, 177029, Control_c, 0, 64, 67
1, 177032, Note_off_c, 0, 64, 53
1, 177041, Note_off_c, 0, 72, 56
1, 177043, Note_off_c, 0, 67, 37
1, 177044, Control_c, 0, 64, 70
1, 177044, Note_off_c, 0, 60, 58
1, 177048, Note_off_c, 0, 58, 57
1, 177059, Control_c, 0, 64, 73
1, 177074, Control_c, 0, 64, 74
1, 177089, Control_c, 0, 64, 76
1, 177103, Control_c, 0, 64, 78
1, 177118, Control_c, 0, 64, 81
1, 177133, Control_c, 0, 64, 83
1, 177147, Control_c, 0, 64, 85
1, 177162, Control_c, 0, 64, 87
1, 177173, Note_on_c, 0, 67, 48
1, 177176, Note_on_c, 0, 58, 49
1, 177177, Control_c, 0, 64, 89
1, 177179, Note_on_c, 0, 72, 57
1, 177192, Control_c, 0, 64, 92
1, 177203, Note_on_c, 0, 64, 33
1, 177207, Control_c, 0, 64, 94
1, 177208, Note_on_c, 0, 60, 31
1, 177221, Control_c, 0, 64, 95
1, 177229, Note_off_c, 0, 76, 64
1, 177236, Control_c, 0, 64, 96
1, 177238, Note_off_c, 0, 60, 49
1, 177244, Note_off_c, 0, 72, 62
1, 177247, Note_off_c, 0, 64, 58
1, 177248, Note_off_c, 0, 67, 63
1, 177250, Note_off_c, 0, 58, 63
1, 177251, Control_c, 0, 64, 97
1, 177281, Control_c, 0, 64, 97
1, 177459, Control_c, 0, 64, 97
1, 177474, Control_c, 0, 64, 96
1, 177489, Control_c, 0, 64, 94
1, 177504, Control_c, 0, 64, 90
1, 177506, Note_on_c, 0, 67, 52
1, 177510, Note_on_c, 0, 60, 39
1, 177516, Note_on_c, 0, 57, 35
1, 177518, Control_c, 0, 64, 84
1, 177532, Note_on_c, 0, 64, 27
1, 177533, Control_c, 0, 64, 76
1, 177548, Control_c, 0, 64, 66
1, 177563, Control_c, 0, 64, 0
1, 177644, Control_c, 0, 64, 57
1, 177656, Note_off_c, 0, 64, 39
1, 177659, Control_c, 0, 64, 66
1, 177667, Note_off_c, 0, 60, 53
1, 177669, Note_on_c, 0, 69, 57
1, 177674, Control_c, 0, 64, 70
1, 177689, Control_c, 0, 64, 74
1, 177692, Note_off_c, 0, 57, 42
1, 177694, Note_off_c, 0, 67, 53
1, 177704, Control_c, 0, 64, 76
1, 177718, Control_c, 0, 64, 78
1, 177733, Control_c, 0, 64, 79
1, 177748, Control_c, 0, 64, 80
1, 177763, Control_c, 0, 64, 82
1, 177778, Control_c, 0, 64, 83
1, 177793, Control_c, 0, 64, 84
1, 177807, Control_c, 0, 64, 84
1, 177822, Control_c, 0, 64, 85
1, 177828, Note_on_c, 0, 57, 38
1, 177837, Control_c, 0, 64, 86
1, 177842, Note_off_c, 0, 69, 57
1, 177843, Note_on_c, 0, 60, 28
1, 177852, Control_c, 0, 64, 87
1, 177852, Note_on_c, 0, 67, 42
1, 177867, Control_c, 0, 64, 88
1, 177875, Note_on_c, 0, 64, 32
1, 177882, Control_c, 0, 64, 88
1, 177897, Control_c, 0, 64, 89
1, 177912, Control_c, 0, 64, 89
1, 177918, Note_off_c, 0, 57, 52
1, 177929, Note_off_c, 0, 60, 56
1, 177941, Control_c, 0, 64, 90
1, 178006, Note_off_c, 0, 64, 38
1, 178028, Note_on_c, 0, 69, 56
1, 178031, Note_off_c, 0, 67, 57
1, 178207, Control_c, 0, 64, 89
1, 178222, Control_c, 0, 64, 88
1, 178237, Control_c, 0, 64, 86
1, 178252, Control_c, 0, 64, 82
1, 178264, Note_off_c, 0, 69, 54
1, 178266, Note_on_c, 0, 70, 57
1, 178267, Control_c, 0, 64, 77
1, 178276, Note_on_c, 0, 58, 31
1, 178281, Note_on_c, 0, 63, 35
1, 178281, Control_c, 0, 64, 70
1, 178287, Note_on_c, 0, 67, 40
1, 178289, Note_on_c, 0, 55, 37
1, 178297, Control_c, 0, 64, 56
1, 178312, Control_c, 0, 64, 0
1, 178453, Control_c, 0, 64, 59
1, 178467, Control_c, 0, 64, 68
1, 178482, Control_c, 0, 64, 73
1, 178497, Control_c, 0, 64, 78
1, 178503, Note_off_c, 0, 63, 44
1, 178506, Note_off_c, 0, 67, 56
1, 178512, Control_c, 0, 64, 80
1, 178527, Control_c, 0, 64, 82
1, 178541, Control_c, 0, 64, 83
1, 178556, Control_c, 0, 64, 84
1, 178571, Control_c, 0, 64, 86
1, 178586, Control_c, 0, 64, 88
1, 178591, Note_off_c, 0, 55, 50
1, 178596, Note_off_c, 0, 58, 57
1, 178600, Control_c, 0, 64, 89
1, 178615, Control_c, 0, 64, 92
1, 178630, Control_c, 0, 64, 93
1, 178645, Control_c, 0, 64, 94
1, 178660, Control_c, 0, 64, 95
1, 178675, Control_c, 0, 64, 97
1, 178690, Control_c, 0, 64, 98
1, 178705, Control_c, 0, 64, 100
1, 178720, Control_c, 0, 64, 102
1, 178735, Control_c, 0, 64, 103
1, 178749, Note_on_c, 0, 67, 34
1, 178749, Control_c, 0, 64, 105
1, 178750, Note_on_c, 0, 63, 25
1, 178764, Control_c, 0, 64, 106
1, 178779, Control_c, 0, 64, 107
1, 178794, Control_c, 0, 64, 108
1, 178809, Control_c, 0, 64, 108
1, 178824, Control_c, 0, 64, 109
1, 178839, Control_c, 0, 64, 109
1, 178854, Control_c, 0, 64, 110
1, 178868, Control_c, 0, 64, 110
1, 178883, Control_c, 0, 64, 111
1, 178906, Note_off_c, 0, 63, 41
1, 178912, Control_c, 0, 64, 111
1, 178917, Note_off_c, 0, 67, 39
1, 178927, Control_c, 0, 64, 112
1, 178942, Control_c, 0, 64, 112
1, 178972, Control_c, 0, 64, 113
1, 178986, Control_c, 0, 64, 113
1, 179001, Control_c, 0, 64, 114
1, 179016, Control_c, 0, 64, 115
1, 179031, Control_c, 0, 64, 115
1, 179046, Control_c, 0, 64, 116
1, 179060, Control_c, 0, 64, 117
1, 179075, Control_c, 0, 64, 118
1, 179091, Control_c, 0, 64, 119
1, 179095, Note_on_c, 0, 31, 20
1, 179106, Control_c, 0, 64, 120
1, 179128, Control_c, 0, 64, 121
1, 179143, Control_c, 0, 64, 121
1, 179149, Note_on_c, 0, 67, 26
1, 179152, Note_on_c, 0, 63, 6
1, 179158, Control_c, 0, 64, 122
1, 179173, Control_c, 0, 64, 123
1, 179188, Control_c, 0, 64, 125
1, 179203, Control_c, 0, 64, 126
1, 179217, Control_c, 0, 64, 127
1, 179283, Note_on_c, 0, 34, 23
1, 179289, Note_off_c, 0, 31, 36
1, 179341, Note_off_c, 0, 63, 42
1, 179352, Note_off_c, 0, 67, 42
1, 179374, Note_on_c, 0, 39, 40
1, 179388, Note_off_c, 0, 34, 36
1, 179433, Note_off_c, 0, 39, 60
1, 179471, Note_on_c, 0, 43, 51
1, 179502, Note_off_c, 0, 43, 55
1, 179504, Note_on_c, 0, 67, 37
1, 179511, Note_on_c, 0, 63, 19
1, 179581, Note_on_c, 0, 46, 45
1, 179642, Note_off_c, 0, 67, 56
1, 179644, Note_off_c, 0, 63, 43
1, 179647, Note_off_c, 0, 46, 57
1, 179665, Note_on_c, 0, 51, 58
1, 179722, Note_off_c, 0, 51, 60
1, 179759, Note_on_c, 0, 55, 50
1, 179842, Note_on_c, 0, 63, 35
1, 179844, Note_off_c, 0, 55, 56
1, 179848, Note_on_c, 0, 67, 39
1, 179855, Note_on_c, 0, 58, 44
1, 179933, Note_off_c, 0, 58, 62
1, 179996, Note_off_c, 0, 67, 53
1, 179997, Note_off_c, 0, 63, 43
1, 180186, Note_on_c, 0, 67, 47
1, 180186, Note_on_c, 0, 63, 47
1, 180276, Note_off_c, 0, 63, 60
1, 180282, Note_off_c, 0, 70, 58
1, 180282, Note_off_c, 0, 67, 63
1, 180469, Control_c, 0, 64, 125
1, 180484, Control_c, 0, 64, 119
1, 180485, Note_on_c, 0, 70, 63
1, 180499, Control_c, 0, 64, 109
1, 180503, Note_on_c, 0, 63, 48
1, 180512, Note_on_c, 0, 58, 50
1, 180513, Control_c, 0, 64, 98
1, 180528, Control_c, 0, 64, 83
1, 180543, Control_c, 0, 64, 68
1, 180557, Control_c, 0, 64, 0
1, 180587, Control_c, 0, 64, 18
1, 180602, Control_c, 0, 64, 65
1, 180624, Control_c, 0, 64, 72
1, 180639, Control_c, 0, 64, 81
1, 180654, Control_c, 0, 64, 84
1, 180669, Control_c, 0, 64, 85
1, 180683, Note_off_c, 0, 58, 60
1, 180708, Note_off_c, 0, 63, 42
1, 180714, Control_c, 0, 64, 83
1, 180729, Note_off_c, 0, 70, 56
1, 180729, Control_c, 0, 64, 80
1, 180744, Control_c, 0, 64, 76
1, 180759, Control_c, 0, 64, 69
1, 180773, Control_c, 0, 64, 61
1, 180787, Note_on_c, 0, 72, 66
1, 180788, Control_c, 0, 64, 59
1, 180792, Note_on_c, 0, 70, 36
1, 180803, Control_c, 0, 64, 65
1, 180808, Note_on_c, 0, 63, 44
1, 180815, Note_on_c, 0, 58, 44
1, 180818, Control_c, 0, 64, 72
1, 180833, Control_c, 0, 64, 79
1, 180848, Control_c, 0, 64, 86
1, 180863, Control_c, 0, 64, 89
1, 180878, Control_c, 0, 64, 90
1, 180892, Note_off_c, 0, 58, 56
1, 180893, Control_c, 0, 64, 91
1, 180903, Note_off_c, 0, 63, 58
1, 180908, Control_c, 0, 64, 92
1, 180911, Note_off_c, 0, 70, 54
1, 180923, Control_c, 0, 64, 92
1, 180937, Control_c, 0, 64, 93
1, 180952, Control_c, 0, 64, 93
1, 181056, Control_c, 0, 64, 93
1, 181070, Control_c, 0, 64, 91
1, 181085, Control_c, 0, 64, 87
1, 181100, Control_c, 0, 64, 78
1, 181101, Note_on_c, 0, 70, 55
1, 181105, Note_on_c, 0, 74, 59
1, 181107, Note_on_c, 0, 62, 40
1, 181109, Note_on_c, 0, 58, 42
1, 181110, Note_on_c, 0, 54, 37
1, 181114, Control_c, 0, 64, 64
1, 181119, Note_off_c, 0, 72, 26
1, 181128, Note_on_c, 0, 64, 34
1, 181129, Control_c, 0, 64, 0
1, 181203, Control_c, 0, 64, 61
1, 181218, Control_c, 0, 64, 69
1, 181233, Control_c, 0, 64, 76
1, 181248, Control_c, 0, 64, 82
1, 181262, Control_c, 0, 64, 86
1, 181277, Control_c, 0, 64, 88
1, 181286, Note_off_c, 0, 62, 53
1, 181292, Note_off_c, 0, 58, 58
1, 181292, Control_c, 0, 64, 90
1, 181304, Note_off_c, 0, 70, 57
1, 181307, Control_c, 0, 64, 91
1, 181313, Note_off_c, 0, 64, 43
1, 181322, Control_c, 0, 64, 93
1, 181322, Note_off_c, 0, 54, 40
1, 181337, Control_c, 0, 64, 95
1, 181352, Control_c, 0, 64, 97
1, 181374, Control_c, 0, 64, 98
1, 181388, Control_c, 0, 64, 99
1, 181403, Control_c, 0, 64, 100
1, 181418, Control_c, 0, 64, 101
1, 181423, Note_on_c, 0, 62, 57
1, 181429, Note_on_c, 0, 70, 62
1, 181433, Control_c, 0, 64, 101
1, 181443, Note_on_c, 0, 58, 38
1, 181448, Control_c, 0, 64, 102
1, 181452, Note_on_c, 0, 64, 33
1, 181453, Note_on_c, 0, 54, 34
1, 181462, Control_c, 0, 64, 103
1, 181472, Note_off_c, 0, 58, 54
1, 181477, Control_c, 0, 64, 104
1, 181483, Note_off_c, 0, 54, 52
1, 181490, Note_off_c, 0, 64, 49
1, 181493, Control_c, 0, 64, 106
1, 181503, Note_off_c, 0, 62, 55
1, 181508, Control_c, 0, 64, 107
1, 181510, Note_off_c, 0, 74, 60
1, 181519, Note_off_c, 0, 70, 59
1, 181523, Control_c, 0, 64, 109
1, 181538, Control_c, 0, 64, 110
1, 181553, Control_c, 0, 64, 111
1, 181567, Control_c, 0, 64, 111
1, 181582, Control_c, 0, 64, 112
1, 181597, Control_c, 0, 67, 126
1, 181611, Control_c, 0, 67, 117
1, 181626, Control_c, 0, 67, 108
1, 181641, Control_c, 0, 67, 100
1, 181656, Control_c, 0, 67, 92
1, 181671, Control_c, 0, 67, 84
1, 181686, Control_c, 0, 67, 79
1, 181701, Control_c, 0, 67, 76
1, 181715, Control_c, 0, 67, 77
1, 181730, Control_c, 0, 64, 111
1, 181730, Control_c, 0, 67, 77
1, 181744, Note_on_c, 0, 74, 69
1, 181745, Note_on_c, 0, 70, 63
1, 181745, Control_c, 0, 64, 108
1, 181745, Control_c, 0, 67, 78
1, 181746, Note_on_c, 0, 58, 43
1, 181752, Note_on_c, 0, 62, 51
1, 181757, Note_on_c, 0, 54, 40
1, 181760, Control_c, 0, 64, 103
1, 181760, Control_c, 0, 67, 79
1, 181763, Note_on_c, 0, 64, 44
1, 181775, Control_c, 0, 64, 95
1, 181790, Control_c, 0, 64, 86
1, 181790, Control_c, 0, 67, 80
1, 181805, Control_c, 0, 64, 77
1, 181805, Control_c, 0, 67, 80
1, 181820, Control_c, 0, 64, 66
1, 181820, Control_c, 0, 67, 81
1, 181835, Control_c, 0, 64, 0
1, 181835, Control_c, 0, 67, 82
1, 181850, Control_c, 0, 67, 84
1, 181864, Control_c, 0, 64, 57
1, 181864, Control_c, 0, 67, 85
1, 181879, Control_c, 0, 64, 68
1, 181879, Control_c, 0, 67, 86
1, 181894, Control_c, 0, 64, 75
1, 181909, Control_c, 0, 64, 81
1, 181909, Control_c, 0, 67, 86
1, 181920, Note_off_c, 0, 62, 46
1, 181920, Note_off_c, 0, 70, 56
1, 181924, Control_c, 0, 64, 85
1, 181924, Control_c, 0, 67, 87
1, 181933, Note_off_c, 0, 64, 57
1, 181938, Control_c, 0, 64, 87
1, 181938, Control_c, 0, 67, 87
1, 181942, Note_off_c, 0, 58, 59
1, 181953, Control_c, 0, 64, 88
1, 181953, Control_c, 0, 67, 88
1, 181957, Note_off_c, 0, 54, 39
1, 181968, Control_c, 0, 64, 89
1, 181968, Control_c, 0, 67, 88
1, 181983, Control_c, 0, 64, 90
1, 181983, Control_c, 0, 67, 90
1, 181998, Control_c, 0, 64, 90
1, 181998, Control_c, 0, 67, 92
1, 182012, Control_c, 0, 64, 91
1, 182012, Control_c, 0, 67, 94
1, 182027, Control_c, 0, 64, 91
1, 182027, Control_c, 0, 67, 96
1, 182042, Control_c, 0, 64, 92
1, 182042, Control_c, 0, 67, 98
1, 182052, Note_on_c, 0, 70, 59
1, 182057, Control_c, 0, 67, 99
1, 182064, Note_on_c, 0, 62, 56
1, 182064, Note_on_c, 0, 64, 52
1, 182069, Note_on_c, 0, 54, 51
1, 182072, Note_on_c, 0, 58, 56
1, 182072, Control_c, 0, 64, 92
1, 182072, Control_c, 0, 67, 101
1, 182086, Control_c, 0, 67, 103
1, 182101, Control_c, 0, 67, 107
1, 182124, Control_c, 0, 67, 109
1, 182139, Control_c, 0, 64, 93
1, 182139, Control_c, 0, 67, 111
1, 182142, Note_off_c, 0, 54, 48
1, 182157, Note_off_c, 0, 64, 47
1, 182160, Note_off_c, 0, 58, 55
1, 182183, Control_c, 0, 67, 112
1, 182184, Note_off_c, 0, 70, 58
1, 182188, Note_off_c, 0, 62, 54
1, 182198, Control_c, 0, 67, 114
1, 182212, Control_c, 0, 67, 116
1, 182227, Control_c, 0, 67, 117
1, 182257, Control_c, 0, 67, 118
1, 182272, Control_c, 0, 67, 118
1, 182303, Control_c, 0, 64, 92
1, 182347, Control_c, 0, 64, 91
1, 182361, Control_c, 0, 64, 89
1, 182376, Control_c, 0, 64, 83
1, 182376, Control_c, 0, 67, 119
1, 182378, Note_on_c, 0, 58, 37
1, 182386, Note_on_c, 0, 62, 50
1, 182386, Note_on_c, 0, 65, 47
1, 182387, Note_on_c, 0, 70, 52
1, 182391, Note_on_c, 0, 53, 46
1, 182391, Control_c, 0, 64, 75
1, 182391, Control_c, 0, 67, 119
1, 182406, Control_c, 0, 64, 64
1, 182406, Control_c, 0, 67, 120
1, 182421, Control_c, 0, 64, 0
1, 182421, Control_c, 0, 67, 122
1, 182435, Control_c, 0, 67, 123
1, 182450, Control_c, 0, 67, 125
1, 182465, Control_c, 0, 67, 126
1, 182480, Control_c, 0, 67, 127
1, 182495, Control_c, 0, 64, 46
1, 182495, Control_c, 0, 67, 127
1, 182509, Control_c, 0, 64, 65
1, 182524, Control_c, 0, 64, 70
1, 182539, Control_c, 0, 64, 75
1, 182542, Note_off_c, 0, 62, 56
1, 182552, Note_off_c, 0, 53, 57
1, 182554, Control_c, 0, 64, 79
1, 182556, Note_off_c, 0, 65, 56
1, 182559, Note_off_c, 0, 58, 58
1, 182567, Note_off_c, 0, 70, 37
1, 182568, Control_c, 0, 64, 81
1, 182583, Control_c, 0, 64, 83
1, 182598, Control_c, 0, 64, 84
1, 182613, Control_c, 0, 64, 85
1, 182628, Control_c, 0, 64, 86
1, 182642, Control_c, 0, 64, 88
1, 182657, Control_c, 0, 64, 88
1, 182681, Note_on_c, 0, 70, 59
1, 182686, Note_on_c, 0, 58, 56
1, 182687, Control_c, 0, 64, 89
1, 182694, Note_on_c, 0, 53, 53
1, 182698, Note_on_c, 0, 62, 51
1, 182698, Note_on_c, 0, 65, 53
1, 182728, Note_off_c, 0, 65, 62
1, 182738, Note_off_c, 0, 58, 65
1, 182759, Note_off_c, 0, 53, 63
1, 182762, Note_off_c, 0, 70, 63
1, 182765, Note_off_c, 0, 74, 64
1, 182786, Note_off_c, 0, 62, 59
1, 182976, Control_c, 0, 64, 88
1, 182982, Note_on_c, 0, 67, 62
1, 182991, Control_c, 0, 64, 84
1, 182992, Note_on_c, 0, 60, 53
1, 182997, Note_on_c, 0, 52, 48
1, 182997, Note_on_c, 0, 55, 50
1, 183006, Control_c, 0, 64, 78
1, 183021, Control_c, 0, 64, 66
1, 183036, Control_c, 0, 64, 0
1, 183096, Control_c, 0, 64, 11
1, 183110, Control_c, 0, 64, 64
1, 183120, Note_off_c, 0, 60, 56
1, 183122, Note_on_c, 0, 69, 73
1, 183125, Control_c, 0, 64, 71
1, 183140, Control_c, 0, 64, 74
1, 183155, Control_c, 0, 64, 76
1, 183162, Note_off_c, 0, 55, 64
1, 183170, Control_c, 0, 64, 77
1, 183176, Note_off_c, 0, 52, 63
1, 183184, Control_c, 0, 64, 77
1, 183186, Note_off_c, 0, 67, 60
1, 183199, Control_c, 0, 64, 78
1, 183214, Control_c, 0, 64, 78
1, 183229, Control_c, 0, 64, 79
1, 183244, Control_c, 0, 64, 79
1, 183258, Control_c, 0, 64, 80
1, 183277, Note_on_c, 0, 60, 62
1, 183281, Note_on_c, 0, 52, 50
1, 183283, Note_on_c, 0, 67, 73
1, 183284, Note_on_c, 0, 55, 58
1, 183298, Note_off_c, 0, 69, 61
1, 183319, Note_off_c, 0, 55, 66
1, 183319, Note_off_c, 0, 52, 66
1, 183368, Note_off_c, 0, 60, 60
1, 183397, Note_on_c, 0, 69, 82
1, 183441, Note_off_c, 0, 67, 56
1, 183480, Control_c, 0, 64, 79
1, 183495, Control_c, 0, 64, 78
1, 183510, Control_c, 0, 64, 75
1, 183525, Control_c, 0, 64, 69
1, 183540, Control_c, 0, 64, 49
1, 183555, Control_c, 0, 64, 0
1, 183564, Note_on_c, 0, 70, 75
1, 183567, Note_on_c, 0, 67, 66
1, 183570, Note_on_c, 0, 61, 47
1, 183571, Note_on_c, 0, 55, 51
1, 183571, Note_on_c, 0, 58, 60
1, 183573, Note_on_c, 0, 51, 44
1, 183615, Note_off_c, 0, 69, 62
1, 183680, Control_c, 0, 64, 20
1, 183695, Control_c, 0, 64, 66
1, 183710, Control_c, 0, 64, 72
1, 183725, Control_c, 0, 64, 77
1, 183739, Control_c, 0, 64, 79
1, 183754, Control_c, 0, 64, 80
1, 183760, Note_off_c, 0, 58, 40
1, 183769, Control_c, 0, 64, 80
1, 183774, Note_off_c, 0, 51, 55
1, 183774, Note_off_c, 0, 67, 58
1, 183774, Note_off_c, 0, 61, 58
1, 183777, Note_off_c, 0, 55, 63
1, 183784, Control_c, 0, 64, 81
1, 183799, Control_c, 0, 64, 82
1, 183814, Control_c, 0, 64, 83
1, 183829, Control_c, 0, 64, 84
1, 183844, Control_c, 0, 64, 85
1, 183859, Control_c, 0, 64, 86
1, 183868, Note_on_c, 0, 67, 76
1, 183870, Note_on_c, 0, 58, 66
1, 183870, Note_on_c, 0, 61, 58
1, 183871, Note_on_c, 0, 51, 51
1, 183873, Control_c, 0, 64, 86
1, 183877, Note_on_c, 0, 55, 56
1, 183889, Control_c, 0, 64, 87
1, 183903, Control_c, 0, 64, 87
1, 183918, Control_c, 0, 64, 88
1, 183923, Note_off_c, 0, 61, 55
1, 183927, Note_off_c, 0, 58, 60
1, 183933, Note_off_c, 0, 55, 63
1, 183933, Note_off_c, 0, 51, 57
1, 183948, Control_c, 0, 64, 89
1, 183960, Note_off_c, 0, 70, 60
1, 183967, Note_off_c, 0, 67, 56
1, 184139, Control_c, 0, 64, 88
1, 184154, Control_c, 0, 64, 87
1, 184156, Note_on_c, 0, 67, 66
1, 184157, Note_on_c, 0, 70, 75
1, 184160, Note_on_c, 0, 61, 45
1, 184161, Note_on_c, 0, 58, 61
1, 184163, Note_on_c, 0, 55, 53
1, 184169, Note_on_c, 0, 51, 47
1, 184169, Control_c, 0, 64, 85
1, 184184, Control_c, 0, 64, 80
1, 184199, Control_c, 0, 64, 71
1, 184213, Control_c, 0, 64, 40
1, 184228, Control_c, 0, 64, 0
1, 184288, Control_c, 0, 64, 55
1, 184303, Control_c, 0, 64, 66
1, 184318, Control_c, 0, 64, 71
1, 184332, Note_off_c, 0, 61, 56
1, 184332, Control_c, 0, 64, 75
1, 184333, Note_off_c, 0, 58, 55
1, 184335, Note_off_c, 0, 55, 61
1, 184347, Control_c, 0, 64, 77
1, 184353, Note_off_c, 0, 67, 62
1, 184368, Note_off_c, 0, 51, 39
1, 184369, Control_c, 0, 64, 79
1, 184384, Control_c, 0, 64, 79
1, 184399, Control_c, 0, 64, 80
1, 184413, Control_c, 0, 64, 81
1, 184428, Control_c, 0, 64, 81
1, 184443, Control_c, 0, 64, 83
1, 184458, Control_c, 0, 64, 84
1, 184471, Note_on_c, 0, 58, 56
1, 184473, Control_c, 0, 64, 85
1, 184477, Note_on_c, 0, 61, 48
1, 184479, Note_on_c, 0, 55, 51
1, 184482, Note_on_c, 0, 67, 64
1, 184483, Note_on_c, 0, 51, 53
1, 184488, Control_c, 0, 64, 86
1, 184503, Control_c, 0, 64, 87
1, 184507, Note_off_c, 0, 61, 56
1, 184516, Note_off_c, 0, 55, 62
1, 184517, Control_c, 0, 64, 87
1, 184527, Note_off_c, 0, 51, 50
1, 184532, Control_c, 0, 64, 88
1, 184547, Note_off_c, 0, 58, 63
1, 184547, Control_c, 0, 64, 88
1, 184562, Control_c, 0, 64, 89
1, 184589, Note_off_c, 0, 67, 57
1, 184741, Control_c, 0, 64, 88
1, 184756, Control_c, 0, 64, 87
1, 184771, Control_c, 0, 64, 84
1, 184782, Note_on_c, 0, 55, 39
1, 184786, Control_c, 0, 64, 79
1, 184787, Note_on_c, 0, 62, 45
1, 184789, Note_on_c, 0, 67, 53
1, 184792, Note_on_c, 0, 58, 49
1, 184799, Note_on_c, 0, 50, 41
1, 184801, Control_c, 0, 64, 71
1, 184816, Control_c, 0, 64, 55
1, 184830, Control_c, 0, 64, 0
1, 184932, Note_off_c, 0, 67, 55
1, 184933, Note_off_c, 0, 58, 56
1, 184934, Control_c, 0, 64, 22
1, 184941, Note_off_c, 0, 62, 50
1, 184949, Control_c, 0, 64, 62
1, 184961, Note_off_c, 0, 50, 42
1, 184963, Control_c, 0, 64, 67
1, 184964, Note_off_c, 0, 55, 43
1, 184978, Control_c, 0, 64, 70
1, 184993, Control_c, 0, 64, 71
1, 185008, Control_c, 0, 64, 73
1, 185023, Control_c, 0, 64, 75
1, 185037, Control_c, 0, 64, 79
1, 185052, Control_c, 0, 64, 82
1, 185067, Control_c, 0, 64, 84
1, 185082, Control_c, 0, 64, 86
1, 185093, Note_on_c, 0, 62, 40
1, 185097, Control_c, 0, 64, 87
1, 185098, Note_on_c, 0, 55, 46
1, 185109, Note_on_c, 0, 58, 42
1, 185111, Note_on_c, 0, 67, 45
1, 185119, Control_c, 0, 64, 89
1, 185134, Control_c, 0, 64, 91
1, 185143, Note_on_c, 0, 50, 29
1, 185143, Note_off_c, 0, 62, 54
1, 185149, Control_c, 0, 64, 93
1, 185163, Note_off_c, 0, 55, 64
1, 185163, Control_c, 0, 64, 95
1, 185178, Control_c, 0, 64, 96
1, 185185, Note_off_c, 0, 50, 52
1, 185193, Control_c, 0, 64, 97
1, 185206, Note_off_c, 0, 67, 63
1, 185208, Control_c, 0, 64, 98
1, 185223, Control_c, 0, 64, 98
1, 185254, Note_off_c, 0, 58, 56
1, 185414, Note_off_c, 0, 70, 26
1, 185415, Control_c, 0, 64, 98
1, 185425, Note_on_c, 0, 64, 58
1, 185430, Control_c, 0, 64, 96
1, 185431, Note_on_c, 0, 49, 42
1, 185439, Note_on_c, 0, 52, 44
1, 185440, Note_on_c, 0, 57, 49
1, 185445, Control_c, 0, 64, 91
1, 185459, Control_c, 0, 64, 84
1, 185474, Control_c, 0, 64, 74
1, 185490, Control_c, 0, 64, 62
1, 185505, Control_c, 0, 64, 0
1, 185565, Control_c, 0, 64, 56
1, 185580, Control_c, 0, 64, 66
1, 185583, Note_off_c, 0, 52, 58
1, 185588, Note_off_c, 0, 57, 56
1, 185589, Note_on_c, 0, 66, 63
1, 185594, Control_c, 0, 64, 70
1, 185603, Note_off_c, 0, 49, 48
1, 185609, Control_c, 0, 64, 72
1, 185620, Note_off_c, 0, 64, 60
1, 185624, Control_c, 0, 64, 73
1, 185639, Control_c, 0, 64, 74
1, 185654, Control_c, 0, 64, 75
1, 185668, Control_c, 0, 64, 76
1, 185683, Control_c, 0, 64, 76
1, 185698, Control_c, 0, 64, 77
1, 185713, Control_c, 0, 64, 78
1, 185721, Note_on_c, 0, 49, 53
1, 185728, Control_c, 0, 64, 78
1, 185730, Note_on_c, 0, 57, 51
1, 185732, Note_on_c, 0, 52, 45
1, 185734, Note_on_c, 0, 64, 71
1, 185743, Control_c, 0, 64, 79
1, 185743, Note_off_c, 0, 66, 60
1, 185758, Control_c, 0, 64, 79
1, 185766, Note_off_c, 0, 52, 60
1, 185772, Control_c, 0, 64, 80
1, 185784, Note_off_c, 0, 49, 48
1, 185862, Note_off_c, 0, 57, 47
1, 185865, Note_on_c, 0, 66, 73
1, 185901, Note_off_c, 0, 64, 60
1, 185942, Control_c, 0, 64, 79
1, 185957, Control_c, 0, 64, 79
1, 185972, Control_c, 0, 64, 77
1, 185987, Control_c, 0, 64, 74
1, 186002, Control_c, 0, 64, 69
1, 186017, Control_c, 0, 64, 53
1, 186032, Control_c, 0, 64, 0
1, 186034, Note_on_c, 0, 52, 39
1, 186050, Note_on_c, 0, 64, 58
1, 186052, Note_on_c, 0, 67, 64
1, 186055, Note_on_c, 0, 48, 43
1, 186058, Note_on_c, 0, 58, 30
1, 186065, Note_on_c, 0, 55, 43
1, 186146, Note_off_c, 0, 66, 36
1, 186194, Control_c, 0, 64, 37
1, 186209, Control_c, 0, 64, 64
1, 186213, Note_off_c, 0, 64, 56
1, 186219, Note_off_c, 0, 55, 37
1, 186224, Control_c, 0, 64, 68
1, 186231, Note_off_c, 0, 52, 57
1, 186239, Control_c, 0, 64, 71
1, 186246, Note_off_c, 0, 58, 44
1, 186253, Control_c, 0, 64, 72
1, 186262, Note_off_c, 0, 48, 38
1, 186268, Control_c, 0, 64, 73
1, 186284, Control_c, 0, 64, 75
1, 186299, Control_c, 0, 64, 77
1, 186314, Control_c, 0, 64, 80
1, 186328, Control_c, 0, 64, 81
1, 186343, Control_c, 0, 64, 83
1, 186351, Note_on_c, 0, 55, 44
1, 186358, Control_c, 0, 64, 84
1, 186360, Note_on_c, 0, 58, 51
1, 186369, Note_on_c, 0, 64, 57
1, 186373, Control_c, 0, 64, 86
1, 186375, Note_on_c, 0, 48, 45
1, 186375, Note_on_c, 0, 52, 49
1, 186379, Note_off_c, 0, 55, 61
1, 186388, Control_c, 0, 64, 87
1, 186402, Control_c, 0, 64, 88
1, 186407, Note_off_c, 0, 48, 56
1, 186408, Note_off_c, 0, 58, 58
1, 186410, Note_off_c, 0, 64, 64
1, 186416, Note_off_c, 0, 52, 63
1, 186417, Control_c, 0, 64, 89
1, 186425, Note_off_c, 0, 67, 62
1, 186447, Control_c, 0, 64, 89
1, 186506, Control_c, 0, 64, 90
1, 186647, Control_c, 0, 64, 89
1, 186662, Note_on_c, 0, 61, 59
1, 186662, Control_c, 0, 64, 89
1, 186667, Note_on_c, 0, 52, 32
1, 186673, Note_on_c, 0, 47, 45
1, 186676, Note_on_c, 0, 54, 48
1, 186677, Control_c, 0, 64, 87
1, 186691, Control_c, 0, 64, 81
1, 186706, Note_on_c, 0, 59, 27
1, 186706, Control_c, 0, 64, 72
1, 186721, Control_c, 0, 64, 50
1, 186735, Control_c, 0, 64, 0
1, 186803, Note_off_c, 0, 54, 48
1, 186810, Control_c, 0, 64, 44
1, 186821, Note_on_c, 0, 63, 67
1, 186821, Note_off_c, 0, 59, 39
1, 186823, Note_off_c, 0, 52, 59
1, 186825, Control_c, 0, 64, 64
1, 186840, Control_c, 0, 64, 69
1, 186843, Note_off_c, 0, 47, 43
1, 186854, Control_c, 0, 64, 73
1, 186869, Control_c, 0, 64, 76
1, 186877, Note_off_c, 0, 61, 59
1, 186884, Control_c, 0, 64, 77
1, 186899, Control_c, 0, 64, 78
1, 186914, Control_c, 0, 64, 78
1, 186929, Control_c, 0, 64, 79
1, 186943, Control_c, 0, 64, 80
1, 186958, Control_c, 0, 64, 82
1, 186972, Note_on_c, 0, 47, 44
1, 186972, Note_on_c, 0, 52, 48
1, 186973, Control_c, 0, 64, 83
1, 186988, Control_c, 0, 64, 84
1, 186992, Note_on_c, 0, 54, 35
1, 186998, Note_on_c, 0, 61, 65
1, 186999, Note_off_c, 0, 52, 60
1, 187002, Control_c, 0, 64, 85
1, 187010, Note_off_c, 0, 47, 49
1, 187017, Control_c, 0, 64, 86
1, 187028, Note_off_c, 0, 63, 62
1, 187032, Control_c, 0, 64, 86
1, 187047, Control_c, 0, 64, 87
1, 187135, Note_off_c, 0, 54, 36
1, 187144, Note_on_c, 0, 63, 70
1, 187153, Note_off_c, 0, 61, 57
1, 187211, Control_c, 0, 64, 86
1, 187225, Control_c, 0, 64, 85
1, 187240, Control_c, 0, 64, 81
1, 187255, Control_c, 0, 64, 76
1, 187270, Control_c, 0, 64, 67
1, 187285, Control_c, 0, 64, 0
1, 187287, Note_on_c, 0, 46, 39
1, 187295, Note_on_c, 0, 48, 32
1, 187296, Note_on_c, 0, 60, 61
1, 187305, Note_on_c, 0, 64, 62
1, 187307, Note_on_c, 0, 55, 26
1, 187323, Note_on_c, 0, 52, 23
1, 187382, Note_off_c, 0, 63, 39
1, 187396, Control_c, 0, 64, 60
1, 187411, Control_c, 0, 64, 67
1, 187426, Control_c, 0, 64, 72
1, 187440, Control_c, 0, 64, 75
1, 187455, Control_c, 0, 64, 76
1, 187486, Note_off_c, 0, 55, 41
1, 187498, Note_off_c, 0, 60, 52
1, 187500, Control_c, 0, 64, 77
1, 187505, Note_off_c, 0, 52, 42
1, 187522, Note_off_c, 0, 46, 41
1, 187522, Note_off_c, 0, 48, 41
1, 187544, Control_c, 0, 64, 77
1, 187603, Control_c, 0, 64, 78
1, 187618, Control_c, 0, 64, 78
1, 187633, Note_on_c, 0, 46, 54
1, 187633, Control_c, 0, 64, 79
1, 187638, Note_on_c, 0, 60, 55
1, 187641, Note_on_c, 0, 52, 37
1, 187648, Control_c, 0, 64, 80
1, 187654, Note_on_c, 0, 55, 41
1, 187657, Note_on_c, 0, 48, 32
1, 187663, Control_c, 0, 64, 80
1, 187678, Control_c, 0, 64, 81
1, 187685, Note_off_c, 0, 52, 51
1, 187692, Control_c, 0, 64, 81
1, 187697, Note_off_c, 0, 48, 52
1, 187701, Note_off_c, 0, 46, 57
1, 187706, Note_off_c, 0, 55, 59
1, 187707, Control_c, 0, 64, 82
1, 187712, Note_off_c, 0, 60, 61
1, 187722, Note_off_c, 0, 64, 64
1, 187960, Control_c, 0, 64, 81
1, 187965, Note_on_c, 0, 55, 54
1, 187974, Control_c, 0, 64, 78
1, 187981, Note_on_c, 0, 48, 35
1, 187989, Control_c, 0, 64, 73
1, 187996, Note_on_c, 0, 52, 33
1, 187997, Note_on_c, 0, 45, 34
1, 188004, Control_c, 0, 64, 64
1, 188019, Control_c, 0, 64, 0
1, 188115, Control_c, 0, 64, 46
1, 188130, Control_c, 0, 64, 62
1, 188145, Control_c, 0, 64, 66
1, 188147, Note_off_c, 0, 52, 42
1, 188148, Note_on_c, 0, 57, 55
1, 188160, Control_c, 0, 64, 68
1, 188163, Note_off_c, 0, 45, 46
1, 188164, Note_off_c, 0, 48, 43
1, 188175, Control_c, 0, 64, 69
1, 188189, Control_c, 0, 64, 70
1, 188196, Note_off_c, 0, 55, 55
1, 188204, Control_c, 0, 64, 70
1, 188219, Control_c, 0, 64, 71
1, 188234, Control_c, 0, 64, 71
1, 188249, Control_c, 0, 64, 73
1, 188263, Control_c, 0, 64, 74
1, 188278, Control_c, 0, 64, 76
1, 188293, Control_c, 0, 64, 77
1, 188307, Control_c, 0, 64, 77
1, 188322, Control_c, 0, 64, 78
1, 188328, Note_on_c, 0, 48, 30
1, 188330, Note_on_c, 0, 45, 34
1, 188337, Control_c, 0, 64, 78
1, 188346, Note_on_c, 0, 55, 45
1, 188352, Control_c, 0, 64, 79
1, 188356, Note_off_c, 0, 57, 56
1, 188357, Note_on_c, 0, 52, 37
1, 188367, Control_c, 0, 64, 80
1, 188381, Control_c, 0, 64, 80
1, 188441, Control_c, 0, 64, 81
1, 188449, Note_off_c, 0, 45, 35
1, 188467, Note_off_c, 0, 48, 42
1, 188509, Note_off_c, 0, 52, 41
1, 188538, Note_on_c, 0, 57, 55
1, 188579, Note_off_c, 0, 55, 37
1, 188723, Control_c, 0, 64, 80
1, 188753, Control_c, 0, 64, 80
1, 188768, Control_c, 0, 64, 78
1, 188783, Control_c, 0, 64, 76
1, 188791, Note_on_c, 0, 58, 58
1, 188796, Note_on_c, 0, 46, 34
1, 188797, Control_c, 0, 64, 72
1, 188807, Note_on_c, 0, 51, 31
1, 188812, Control_c, 0, 64, 66
1, 188817, Note_on_c, 0, 55, 39
1, 188825, Note_on_c, 0, 43, 25
1, 188827, Control_c, 0, 64, 43
1, 188828, Note_off_c, 0, 57, 55
1, 188842, Control_c, 0, 64, 0
1, 189027, Control_c, 0, 64, 54
1, 189040, Note_off_c, 0, 51, 44
1, 189042, Control_c, 0, 64, 66
1, 189057, Control_c, 0, 64, 70
1, 189072, Control_c, 0, 64, 73
1, 189086, Control_c, 0, 64, 74
1, 189089, Note_off_c, 0, 55, 41
1, 189101, Control_c, 0, 64, 76
1, 189116, Control_c, 0, 64, 79
1, 189130, Control_c, 0, 64, 81
1, 189145, Control_c, 0, 64, 83
1, 189160, Control_c, 0, 64, 84
1, 189175, Control_c, 0, 64, 85
1, 189190, Control_c, 0, 64, 86
1, 189203, Note_off_c, 0, 43, 40
1, 189204, Control_c, 0, 64, 87
1, 189208, Note_off_c, 0, 46, 40
1, 189219, Control_c, 0, 64, 88
1, 189234, Control_c, 0, 64, 89
1, 189249, Control_c, 0, 64, 90
1, 189264, Control_c, 0, 64, 91
1, 189278, Control_c, 0, 64, 92
1, 189293, Control_c, 0, 64, 93
1, 189308, Control_c, 0, 64, 94
1, 189323, Control_c, 0, 64, 95
1, 189324, Note_on_c, 0, 51, 22
1, 189326, Note_on_c, 0, 55, 38
1, 189338, Control_c, 0, 64, 96
1, 189352, Control_c, 0, 64, 97
1, 189367, Control_c, 0, 64, 98
1, 189382, Control_c, 0, 64, 100
1, 189397, Control_c, 0, 64, 101
1, 189412, Control_c, 0, 64, 103
1, 189427, Control_c, 0, 64, 104
1, 189442, Control_c, 0, 64, 105
1, 189457, Control_c, 0, 64, 106
1, 189461, Note_off_c, 0, 55, 56
1, 189472, Control_c, 0, 64, 107
1, 189479, Note_off_c, 0, 51, 41
1, 189487, Control_c, 0, 64, 108
1, 189502, Control_c, 0, 64, 108
1, 189516, Control_c, 0, 64, 109
1, 189546, Control_c, 0, 64, 110
1, 189576, Control_c, 0, 64, 110
1, 189613, Control_c, 0, 64, 111
1, 189642, Control_c, 0, 64, 111
1, 189728, Note_on_c, 0, 22, 27
1, 189746, Control_c, 0, 64, 112
1, 189781, Note_on_c, 0, 55, 27
1, 189793, Poly_aftertouch_c, 0, 51, 127
1, 189919, Note_on_c, 0, 27, 37
1, 189924, Control_c, 0, 64, 112
1, 189958, Poly_aftertouch_c, 0, 51, 0
1, 189970, Note_off_c, 0, 22, 38
1, 189991, Note_off_c, 0, 27, 61
1, 189993, Note_off_c, 0, 55, 42
1, 190050, Note_on_c, 0, 31, 25
1, 190095, Note_off_c, 0, 31, 52
1, 190130, Note_on_c, 0, 55, 38
1, 190136, Note_on_c, 0, 51, 19
1, 190142, Note_on_c, 0, 34, 42
1, 190214, Note_off_c, 0, 34, 57
1, 190238, Note_on_c, 0, 39, 45
1, 190275, Note_off_c, 0, 39, 61
1, 190283, Note_off_c, 0, 51, 34
1, 190290, Note_off_c, 0, 55, 53
1, 190349, Note_on_c, 0, 43, 40
1, 190435, Note_on_c, 0, 46, 40
1, 190443, Note_off_c, 0, 43, 37
1, 190456, Note_on_c, 0, 51, 22
1, 190462, Note_on_c, 0, 55, 34
1, 190548, Note_off_c, 0, 46, 55
1, 190599, Note_off_c, 0, 51, 35
1, 190609, Note_off_c, 0, 55, 36
1, 190745, Note_on_c, 0, 51, 37
1, 190748, Note_on_c, 0, 55, 33
1, 190884, Note_off_c, 0, 51, 35
1, 190902, Note_off_c, 0, 55, 40
1, 191056, Note_on_c, 0, 51, 25
1, 191069, Note_on_c, 0, 55, 26
1, 191100, Note_on_c, 0, 63, 33
1, 191104, Note_on_c, 0, 67, 33
1, 191119, Note_on_c, 0, 70, 31
1, 191230, Note_off_c, 0, 70, 51
1, 191237, Note_off_c, 0, 51, 40
1, 191247, Note_off_c, 0, 63, 38
1, 191256, Note_off_c, 0, 55, 41
1, 191275, Note_off_c, 0, 67, 49
1, 191433, Note_on_c, 0, 60, 53
1, 191439, Note_on_c, 0, 55, 37
1, 191447, Note_on_c, 0, 51, 40
1, 191496, Note_off_c, 0, 58, 37
1, 191591, Note_off_c, 0, 55, 47
1, 191600, Note_off_c, 0, 51, 35
1, 191644, Control_c, 0, 64, 112
1, 191688, Control_c, 0, 64, 111
1, 191703, Control_c, 0, 64, 110
1, 191717, Control_c, 0, 64, 107
1, 191732, Control_c, 0, 64, 103
1, 191737, Note_on_c, 0, 58, 62
1, 191747, Control_c, 0, 64, 99
1, 191748, Note_on_c, 0, 55, 42
1, 191752, Note_on_c, 0, 51, 33
1, 191762, Control_c, 0, 64, 93
1, 191777, Control_c, 0, 64, 85
1, 191791, Control_c, 0, 64, 75
1, 191806, Control_c, 0, 64, 58
1, 191821, Control_c, 0, 64, 0
1, 191858, Note_off_c, 0, 60, 61
1, 191889, Control_c, 0, 64, 47
1, 191904, Control_c, 0, 64, 64
1, 191919, Control_c, 0, 64, 67
1, 191934, Control_c, 0, 64, 69
1, 191946, Note_off_c, 0, 51, 40
1, 191949, Control_c, 0, 64, 71
1, 191963, Control_c, 0, 64, 72
1, 191978, Control_c, 0, 64, 73
1, 191993, Control_c, 0, 64, 74
1, 192008, Control_c, 0, 64, 76
1, 192022, Control_c, 0, 64, 78
1, 192037, Control_c, 0, 64, 81
1, 192041, Note_off_c, 0, 55, 0
1, 192052, Control_c, 0, 64, 83
1, 192064, Note_on_c, 0, 55, 10
1, 192067, Control_c, 0, 64, 84
1, 192075, Note_on_c, 0, 51, 34
1, 192082, Control_c, 0, 64, 85
1, 192096, Control_c, 0, 64, 86
1, 192111, Control_c, 0, 64, 87
1, 192126, Control_c, 0, 64, 87
1, 192141, Control_c, 0, 64, 88
1, 192155, Control_c, 0, 64, 89
1, 192170, Control_c, 0, 64, 90
1, 192185, Control_c, 0, 64, 91
1, 192196, Note_off_c, 0, 51, 45
1, 192200, Control_c, 0, 64, 91
1, 192215, Note_off_c, 0, 55, 43
1, 192215, Control_c, 0, 64, 92
1, 192229, Control_c, 0, 64, 93
1, 192244, Control_c, 0, 64, 93
1, 192259, Control_c, 0, 64, 94
1, 192274, Control_c, 0, 64, 95
1, 192289, Control_c, 0, 64, 95
1, 192318, Control_c, 0, 64, 96
1, 192333, Control_c, 0, 64, 97
1, 192348, Control_c, 0, 64, 97
1, 192363, Note_on_c, 0, 55, 17
1, 192363, Control_c, 0, 64, 98
1, 192363, Note_on_c, 0, 22, 33
1, 192378, Control_c, 0, 64, 98
1, 192383, Note_on_c, 0, 51, 20
1, 192393, Control_c, 0, 64, 99
1, 192408, Control_c, 0, 64, 99
1, 192422, Control_c, 0, 64, 100
1, 192437, Control_c, 0, 64, 101
1, 192452, Control_c, 0, 64, 101
1, 192466, Control_c, 0, 64, 102
1, 192481, Control_c, 0, 64, 103
1, 192496, Control_c, 0, 64, 103
1, 192511, Control_c, 0, 64, 104
1, 192526, Control_c, 0, 64, 105
1, 192532, Note_off_c, 0, 51, 36
1, 192535, Note_on_c, 0, 27, 39
1, 192555, Control_c, 0, 64, 105
1, 192570, Control_c, 0, 64, 106
1, 192578, Note_off_c, 0, 22, 38
1, 192583, Note_off_c, 0, 55, 41
1, 192600, Note_off_c, 0, 27, 61
1, 192660, Note_on_c, 0, 31, 19
1, 192707, Note_on_c, 0, 55, 43
1, 192708, Note_off_c, 0, 31, 51
1, 192709, Note_on_c, 0, 51, 37
1, 192747, Note_on_c, 0, 34, 37
1, 192804, Note_off_c, 0, 34, 56
1, 192826, Note_off_c, 0, 55, 59
1, 192827, Note_off_c, 0, 51, 37
1, 192828, Note_on_c, 0, 39, 45
1, 192873, Note_off_c, 0, 39, 61
1, 192942, Note_on_c, 0, 43, 40
1, 193013, Note_off_c, 0, 43, 46
1, 193021, Note_on_c, 0, 51, 24
1, 193027, Note_on_c, 0, 55, 31
1, 193037, Note_on_c, 0, 46, 39
1, 193111, Note_off_c, 0, 46, 57
1, 193143, Note_off_c, 0, 51, 35
1, 193156, Note_off_c, 0, 55, 44
1, 193356, Note_on_c, 0, 55, 40
1, 193370, Note_on_c, 0, 51, 25
1, 193482, Note_off_c, 0, 51, 28
1, 193508, Note_off_c, 0, 55, 36
1, 193723, Note_on_c, 0, 63, 22
1, 193726, Note_on_c, 0, 70, 26
1, 193728, Note_on_c, 0, 51, 11
1, 193737, Note_on_c, 0, 67, 20
1, 193769, Poly_aftertouch_c, 0, 55, 127
1, 193795, Note_off_c, 0, 51, 41
1, 193834, Poly_aftertouch_c, 0, 55, 0
1, 193845, Note_off_c, 0, 70, 40
1, 193863, Note_off_c, 0, 63, 41
1, 193892, Note_off_c, 0, 67, 40
1, 194050, Note_on_c, 0, 60, 48
1, 194060, Note_on_c, 0, 51, 37
1, 194060, Note_on_c, 0, 55, 40
1, 194143, Note_off_c, 0, 58, 39
1, 194202, Note_off_c, 0, 51, 34
1, 194226, Note_off_c, 0, 55, 35
1, 194313, Control_c, 0, 64, 105
1, 194328, Control_c, 0, 64, 104
1, 194343, Control_c, 0, 64, 101
1, 194357, Control_c, 0, 64, 98
1, 194361, Note_on_c, 0, 55, 42
1, 194369, Note_on_c, 0, 58, 58
1, 194372, Control_c, 0, 64, 93
1, 194387, Control_c, 0, 64, 88
1, 194390, Note_on_c, 0, 51, 38
1, 194402, Control_c, 0, 64, 81
1, 194417, Control_c, 0, 64, 71
1, 194432, Control_c, 0, 64, 48
1, 194447, Control_c, 0, 64, 0
1, 194465, Note_off_c, 0, 60, 53
1, 194535, Control_c, 0, 64, 55
1, 194549, Control_c, 0, 64, 64
1, 194564, Control_c, 0, 64, 67
1, 194569, Note_off_c, 0, 55, 58
1, 194579, Control_c, 0, 64, 70
1, 194587, Note_off_c, 0, 51, 44
1, 194594, Control_c, 0, 64, 72
1, 194609, Control_c, 0, 64, 74
1, 194623, Control_c, 0, 64, 77
1, 194638, Control_c, 0, 64, 79
1, 194653, Control_c, 0, 64, 80
1, 194667, Control_c, 0, 64, 82
1, 194682, Control_c, 0, 64, 82
1, 194697, Control_c, 0, 64, 84
1, 194708, Note_on_c, 0, 51, 40
1, 194712, Control_c, 0, 64, 85
1, 194722, Note_on_c, 0, 55, 29
1, 194727, Control_c, 0, 64, 86
1, 194742, Control_c, 0, 64, 86
1, 194757, Control_c, 0, 64, 87
1, 194787, Control_c, 0, 64, 88
1, 194825, Note_off_c, 0, 51, 36
1, 194836, Note_off_c, 0, 55, 38
1, 194853, Control_c, 0, 64, 88
1, 194946, Note_on_c, 0, 63, 33
1, 194961, Note_on_c, 0, 70, 34
1, 194966, Note_on_c, 0, 67, 42
1, 194983, Note_on_c, 0, 51, 30
1, 195017, Note_on_c, 0, 55, 16
1, 195038, Note_off_c, 0, 51, 41
1, 195082, Note_off_c, 0, 55, 41
1, 195092, Note_off_c, 0, 67, 56
1, 195094, Note_off_c, 0, 63, 40
1, 195104, Note_off_c, 0, 70, 35
1, 195249, Note_on_c, 0, 60, 51
1, 195253, Note_on_c, 0, 55, 36
1, 195255, Note_on_c, 0, 51, 32
1, 195350, Note_off_c, 0, 58, 39
1, 195379, Note_off_c, 0, 55, 36
1, 195392, Note_off_c, 0, 51, 40
1, 195419, Control_c, 0, 64, 88
1, 195492, Control_c, 0, 64, 87
1, 195507, Control_c, 0, 64, 86
1, 195522, Control_c, 0, 64, 84
1, 195537, Control_c, 0, 64, 80
1, 195552, Control_c, 0, 64, 71
1, 195554, Note_on_c, 0, 58, 50
1, 195566, Control_c, 0, 64, 53
1, 195568, Note_on_c, 0, 55, 25
1, 195572, Note_on_c, 0, 51, 22
1, 195581, Control_c, 0, 64, 0
1, 195694, Note_off_c, 0, 60, 33
1, 195722, Control_c, 0, 64, 62
1, 195737, Control_c, 0, 64, 68
1, 195745, Note_off_c, 0, 51, 41
1, 195749, Note_off_c, 0, 55, 42
1, 195752, Control_c, 0, 64, 72
1, 195767, Control_c, 0, 64, 75
1, 195781, Control_c, 0, 64, 77
1, 195796, Control_c, 0, 64, 78
1, 195811, Control_c, 0, 64, 79
1, 195826, Control_c, 0, 64, 80
1, 195841, Control_c, 0, 64, 81
1, 195855, Control_c, 0, 64, 82
1, 195871, Control_c, 0, 64, 83
1, 195884, Note_on_c, 0, 55, 40
1, 195886, Control_c, 0, 64, 84
1, 195887, Note_on_c, 0, 51, 38
1, 195901, Control_c, 0, 64, 85
1, 195916, Control_c, 0, 64, 86
1, 195930, Control_c, 0, 64, 87
1, 195945, Control_c, 0, 64, 88
1, 195960, Control_c, 0, 64, 88
1, 195975, Control_c, 0, 64, 89
1, 195990, Control_c, 0, 64, 90
1, 196004, Control_c, 0, 64, 90
1, 196019, Control_c, 0, 64, 91
1, 196036, Note_off_c, 0, 51, 35
1, 196037, Note_off_c, 0, 55, 41
1, 196049, Control_c, 0, 64, 91
1, 196167, Control_c, 0, 64, 92
1, 196178, Note_on_c, 0, 63, 39
1, 196178, Note_on_c, 0, 70, 36
1, 196179, Note_on_c, 0, 67, 41
1, 196194, Note_on_c, 0, 51, 14
1, 196209, Note_on_c, 0, 55, 8
1, 196286, Note_off_c, 0, 51, 34
1, 196297, Note_off_c, 0, 55, 36
1, 196316, Note_off_c, 0, 70, 60
1, 196344, Note_off_c, 0, 63, 39
1, 196363, Note_off_c, 0, 67, 37
1, 196512, Note_on_c, 0, 60, 42
1, 196529, Note_on_c, 0, 55, 44
1, 196534, Note_on_c, 0, 51, 37
1, 196574, Note_off_c, 0, 58, 26
1, 196639, Note_off_c, 0, 51, 49
1, 196673, Note_off_c, 0, 55, 35
1, 196798, Control_c, 0, 64, 91
1, 196813, Control_c, 0, 64, 91
1, 196827, Control_c, 0, 64, 90
1, 196841, Note_on_c, 0, 58, 52
1, 196842, Control_c, 0, 64, 87
1, 196857, Control_c, 0, 64, 84
1, 196864, Note_on_c, 0, 55, 38
1, 196870, Note_on_c, 0, 51, 29
1, 196872, Control_c, 0, 64, 79
1, 196887, Control_c, 0, 64, 72
1, 196901, Control_c, 0, 64, 50
1, 196916, Control_c, 0, 64, 0
1, 196977, Note_off_c, 0, 60, 37
1, 197005, Control_c, 0, 64, 38
1, 197019, Control_c, 0, 64, 63
1, 197034, Control_c, 0, 64, 67
1, 197046, Note_off_c, 0, 51, 42
1, 197049, Control_c, 0, 64, 70
1, 197064, Control_c, 0, 64, 72
1, 197066, Note_off_c, 0, 55, 40
1, 197079, Control_c, 0, 64, 73
1, 197101, Control_c, 0, 64, 76
1, 197116, Control_c, 0, 64, 78
1, 197131, Control_c, 0, 64, 80
1, 197145, Control_c, 0, 64, 81
1, 197160, Control_c, 0, 64, 82
1, 197175, Control_c, 0, 64, 83
1, 197190, Control_c, 0, 64, 84
1, 197205, Control_c, 0, 64, 85
1, 197217, Note_on_c, 0, 55, 33
1, 197219, Control_c, 0, 64, 87
1, 197228, Note_on_c, 0, 51, 25
1, 197234, Control_c, 0, 64, 87
1, 197249, Control_c, 0, 64, 88
1, 197264, Control_c, 0, 64, 89
1, 197279, Control_c, 0, 64, 90
1, 197294, Control_c, 0, 64, 91
1, 197309, Control_c, 0, 64, 92
1, 197323, Control_c, 0, 64, 93
1, 197338, Control_c, 0, 64, 94
1, 197353, Control_c, 0, 64, 94
1, 197368, Control_c, 0, 64, 95
1, 197383, Control_c, 0, 64, 96
1, 197395, Note_off_c, 0, 51, 37
1, 197398, Control_c, 0, 64, 96
1, 197402, Note_off_c, 0, 55, 43
1, 197427, Control_c, 0, 64, 97
1, 197457, Control_c, 0, 64, 97
1, 197502, Control_c, 0, 64, 98
1, 197588, Note_on_c, 0, 63, 32
1, 197603, Note_on_c, 0, 67, 33
1, 197604, Note_on_c, 0, 70, 29
1, 197606, Control_c, 0, 64, 98
1, 197635, Note_on_c, 0, 55, 23
1, 197660, Poly_aftertouch_c, 0, 51, 127
1, 197680, Control_c, 0, 64, 99
1, 197724, Control_c, 0, 64, 99
1, 197728, Note_off_c, 0, 70, 41
1, 197754, Note_off_c, 0, 55, 41
1, 197754, Note_off_c, 0, 63, 42
1, 197756, Poly_aftertouch_c, 0, 51, 0
1, 197756, Note_off_c, 0, 67, 38
1, 197813, Control_c, 0, 64, 100
1, 198044, Note_on_c, 0, 55, 25
1, 198048, Note_on_c, 0, 51, 24
1, 198218, Note_off_c, 0, 51, 39
1, 198220, Note_off_c, 0, 55, 44
1, 198497, Note_on_c, 0, 22, 18
1, 198532, Note_on_c, 0, 51, 22
1, 198546, Note_on_c, 0, 55, 17
1, 198721, Note_off_c, 0, 51, 39
1, 198740, Note_off_c, 0, 55, 43
1, 198741, Note_on_c, 0, 27, 31
1, 198777, Note_off_c, 0, 22, 38
1, 198810, Note_off_c, 0, 27, 60
1, 198876, Note_on_c, 0, 31, 38
1, 198915, Note_off_c, 0, 31, 47
1, 198979, Note_on_c, 0, 51, 28
1, 198983, Note_on_c, 0, 55, 34
1, 198997, Note_on_c, 0, 34, 34
1, 199118, Note_off_c, 0, 34, 36
1, 199123, Note_on_c, 0, 39, 31
1, 199133, Note_off_c, 0, 51, 35
1, 199133, Note_off_c, 0, 55, 36
1, 199210, Note_off_c, 0, 39, 59
1, 199251, Note_on_c, 0, 43, 42
1, 199347, Control_c, 0, 64, 99
1, 199422, Control_c, 0, 64, 99
1, 199452, Control_c, 0, 64, 98
1, 199466, Control_c, 0, 64, 97
1, 199467, Note_on_c, 0, 46, 47
1, 199481, Control_c, 0, 64, 95
1, 199484, Note_on_c, 0, 51, 30
1, 199496, Note_on_c, 0, 55, 26
1, 199496, Control_c, 0, 64, 92
1, 199511, Control_c, 0, 64, 87
1, 199526, Control_c, 0, 64, 82
1, 199540, Control_c, 0, 64, 75
1, 199555, Control_c, 0, 64, 68
1, 199570, Control_c, 0, 64, 53
1, 199571, Note_off_c, 0, 43, 41
1, 199585, Control_c, 0, 64, 0
1, 199629, Control_c, 0, 64, 43
1, 199644, Control_c, 0, 64, 59
1, 199659, Control_c, 0, 64, 64
1, 199673, Control_c, 0, 64, 66
1, 199688, Control_c, 0, 64, 68
1, 199703, Control_c, 0, 64, 69
1, 199718, Control_c, 0, 64, 70
1, 199723, Note_off_c, 0, 51, 41
1, 199733, Control_c, 0, 64, 72
1, 199735, Note_off_c, 0, 55, 42
1, 199747, Control_c, 0, 64, 73
1, 199762, Control_c, 0, 64, 75
1, 199777, Control_c, 0, 64, 77
1, 199792, Control_c, 0, 64, 78
1, 199807, Control_c, 0, 64, 79
1, 199821, Control_c, 0, 64, 80
1, 199836, Control_c, 0, 64, 81
1, 199851, Control_c, 0, 64, 81
1, 199867, Control_c, 0, 64, 82
1, 199881, Control_c, 0, 64, 82
1, 199896, Control_c, 0, 64, 83
1, 199911, Control_c, 0, 64, 83
1, 199919, Note_on_c, 0, 51, 30
1, 199940, Note_on_c, 0, 55, 31
1, 199941, Control_c, 0, 64, 84
1, 199956, Control_c, 0, 64, 84
1, 199985, Control_c, 0, 64, 85
1, 200000, Control_c, 0, 64, 86
1, 200030, Control_c, 0, 64, 86
1, 200045, Control_c, 0, 64, 87
1, 200060, Control_c, 0, 64, 87
1, 200075, Control_c, 0, 64, 88
1, 200096, Note_off_c, 0, 55, 44
1, 200099, Note_off_c, 0, 51, 39
1, 200111, Control_c, 0, 64, 88
1, 200156, Control_c, 0, 64, 89
1, 200230, Control_c, 0, 64, 89
1, 200278, Note_on_c, 0, 51, 18
1, 200278, Note_on_c, 0, 55, 27
1, 200435, Note_off_c, 0, 55, 44
1, 200437, Note_off_c, 0, 51, 39
1, 200583, Note_on_c, 0, 51, 24
1, 200596, Note_on_c, 0, 48, 46
1, 200633, Poly_aftertouch_c, 0, 55, 127
1, 200691, Note_off_c, 0, 46, 42
1, 200746, Note_off_c, 0, 51, 38
1, 200756, Poly_aftertouch_c, 0, 55, 0
1, 200979, Control_c, 0, 64, 89
1, 200993, Control_c, 0, 64, 88
1, 201008, Control_c, 0, 64, 87
1, 201023, Control_c, 0, 64, 83
1, 201035, Note_on_c, 0, 46, 40
1, 201038, Note_on_c, 0, 51, 32
1, 201038, Control_c, 0, 64, 79
1, 201049, Note_on_c, 0, 55, 30
1, 201053, Control_c, 0, 64, 72
1, 201067, Control_c, 0, 64, 62
1, 201082, Control_c, 0, 64, 0
1, 201109, Note_off_c, 0, 48, 43
1, 201186, Control_c, 0, 64, 37
1, 201201, Control_c, 0, 64, 64
1, 201216, Control_c, 0, 64, 68
1, 201230, Control_c, 0, 64, 70
1, 201237, Note_off_c, 0, 51, 42
1, 201244, Control_c, 0, 64, 71
1, 201248, Note_off_c, 0, 55, 42
1, 201259, Control_c, 0, 64, 72
1, 201274, Control_c, 0, 64, 74
1, 201289, Control_c, 0, 64, 76
1, 201303, Control_c, 0, 64, 78
1, 201318, Control_c, 0, 64, 79
1, 201333, Control_c, 0, 64, 80
1, 201348, Control_c, 0, 64, 80
1, 201363, Control_c, 0, 64, 81
1, 201378, Control_c, 0, 64, 81
1, 201392, Control_c, 0, 64, 82
1, 201407, Control_c, 0, 64, 82
1, 201437, Control_c, 0, 64, 83
1, 201446, Note_on_c, 0, 51, 36
1, 201452, Control_c, 0, 64, 83
1, 201463, Note_on_c, 0, 55, 31
1, 201468, Control_c, 0, 64, 84
1, 201482, Control_c, 0, 64, 85
1, 201497, Control_c, 0, 64, 85
1, 201512, Control_c, 0, 64, 86
1, 201527, Control_c, 0, 64, 86
1, 201541, Control_c, 0, 64, 87
1, 201571, Control_c, 0, 64, 87
1, 201619, Note_off_c, 0, 55, 44
1, 201629, Note_off_c, 0, 51, 37
1, 201850, Note_on_c, 0, 51, 28
1, 201853, Note_on_c, 0, 55, 26
1, 201983, Note_off_c, 0, 55, 32
1, 201995, Note_off_c, 0, 51, 29
1, 202269, Note_on_c, 0, 51, 10
1, 202273, Note_on_c, 0, 55, 20
1, 202432, Note_off_c, 0, 51, 39
1, 202433, Note_off_c, 0, 55, 43
1, 202653, Control_c, 0, 64, 88
1, 202827, Note_on_c, 0, 51, 17
1, 202844, Note_on_c, 0, 55, 23
1, 203034, Note_off_c, 0, 55, 43
1, 203051, Note_off_c, 0, 51, 38
1, 203629, Note_on_c, 0, 51, 26
1, 203629, Note_on_c, 0, 55, 22
1, 204351, Note_off_c, 0, 55, 41
1, 204374, Note_off_c, 0, 51, 38
1, 205172, Note_on_c, 0, 55, 22
1, 205178, Note_on_c, 0, 51, 13
1, 205826, Control_c, 0, 64, 87
1, 206145, Control_c, 0, 64, 87
1, 206279, Control_c, 0, 64, 86
1, 206338, Control_c, 0, 64, 86
1, 206398, Control_c, 0, 64, 85
1, 206427, Control_c, 0, 64, 85
1, 206457, Control_c, 0, 64, 84
1, 206486, Note_off_c, 0, 46, 28
1, 206502, Control_c, 0, 64, 84
1, 206531, Control_c, 0, 64, 83
1, 206561, Control_c, 0, 64, 83
1, 206584, Note_off_c, 0, 51, 20
1, 206591, Control_c, 0, 64, 82
1, 206620, Control_c, 0, 64, 82
1, 206635, Control_c, 0, 64, 81
1, 206642, Note_off_c, 0, 58, 17
1, 206644, Note_off_c, 0, 55, 31
1, 206664, Control_c, 0, 64, 81
1, 206679, Control_c, 0, 64, 80
1, 206694, Control_c, 0, 64, 80
1, 206723, Control_c, 0, 64, 79
1, 206753, Control_c, 0, 64, 79
1, 206783, Control_c, 0, 64, 78
1, 206812, Control_c, 0, 64, 78
1, 206850, Control_c, 0, 64, 77
1, 206879, Control_c, 0, 64, 77
1, 206894, Control_c, 0, 64, 76
1, 206909, Control_c, 0, 64, 76
1, 206923, Control_c, 0, 64, 75
1, 206938, Control_c, 0, 64, 74
1, 206953, Control_c, 0, 64, 73
1, 206968, Control_c, 0, 64, 71
1, 206983, Control_c, 0, 64, 70
1, 206998, Control_c, 0, 64, 69
1, 207012, Control_c, 0, 64, 68
1, 207027, Control_c, 0, 64, 67
1, 207042, Control_c, 0, 64, 66
1, 207058, Control_c, 0, 64, 65
1, 207073, Control_c, 0, 64, 65
1, 207161, Control_c, 0, 64, 64
1, 207191, Control_c, 0, 64, 64
1, 207221, Control_c, 0, 64, 63
1, 207265, Control_c, 0, 64, 63
1, 207324, Control_c, 0, 64, 62
1, 207354, Control_c, 0, 64, 62
1, 207428, Control_c, 0, 64, 61
1, 207443, Control_c, 0, 64, 61
1, 207458, Control_c, 0, 64, 60
1, 207472, Control_c, 0, 64, 60
1, 207502, Control_c, 0, 64, 59
1, 207532, Control_c, 0, 64, 59
1, 207546, Control_c, 0, 64, 58
1, 207561, Control_c, 0, 64, 58
1, 207584, Control_c, 0, 64, 57
1, 207614, Control_c, 0, 64, 57
1, 207628, Control_c, 0, 64, 56
1, 207643, Control_c, 0, 64, 56
1, 207658, Control_c, 0, 64, 55
1, 207672, Control_c, 0, 64, 55
1, 207687, Control_c, 0, 64, 54
1, 207702, Control_c, 0, 64, 54
1, 207717, Control_c, 0, 64, 52
1, 207732, Control_c, 0, 64, 51
1, 207746, Control_c, 0, 64, 50
1, 207761, Control_c, 0, 64, 49
1, 207776, Control_c, 0, 64, 48
1, 207791, Control_c, 0, 64, 47
1, 207805, Control_c, 0, 64, 45
1, 207820, Control_c, 0, 64, 43
1, 207835, Control_c, 0, 64, 41
1, 207851, Control_c, 0, 64, 39
1, 207866, Control_c, 0, 64, 39
1, 207881, Control_c, 0, 64, 38
1, 207895, Control_c, 0, 64, 37
1, 207910, Control_c, 0, 64, 37
1, 207925, Control_c, 0, 64, 35
1, 207940, Control_c, 0, 64, 34
1, 207955, Control_c, 0, 64, 33
1, 207970, Control_c, 0, 64, 31
1, 207985, Control_c, 0, 64, 29
1, 208000, Control_c, 0, 64, 27
1, 208015, Control_c, 0, 64, 25
1, 208030, Control_c, 0, 64, 23
1, 208045, Control_c, 0, 64, 22
1, 208089, Control_c, 0, 64, 20
1, 208222, Control_c, 0, 64, 22
1, 208296, Control_c, 0, 64, 23
1, 208377, Control_c, 0, 64, 25
1, 208422, Control_c, 0, 64, 26
1, 208466, Control_c, 0, 64, 27
1, 208511, Control_c, 0, 64, 28
1, 208541, Control_c, 0, 64, 29
1, 208570, Control_c, 0, 64, 30
1, 208615, Control_c, 0, 64, 31
1, 208675, Control_c, 0, 64, 32
1, 208719, Control_c, 0, 64, 33
1, 208763, Control_c, 0, 64, 34
1, 208807, Control_c, 0, 64, 34
1, 208911, Control_c, 0, 64, 35
1, 208931, Note_on_c, 0, 33, 40
1, 208955, Control_c, 0, 64, 36
1, 208985, Control_c, 0, 64, 37
1, 209081, Control_c, 0, 64, 37
1, 209111, Control_c, 0, 64, 38
1, 209140, Control_c, 0, 64, 39
1, 209155, Control_c, 0, 64, 40
1, 209185, Control_c, 0, 64, 41
1, 209214, Control_c, 0, 64, 41
1, 209229, Control_c, 0, 64, 42
1, 209244, Control_c, 0, 64, 43
1, 209259, Control_c, 0, 64, 43
1, 209289, Control_c, 0, 64, 44
1, 209319, Control_c, 0, 64, 44
1, 209333, Control_c, 0, 64, 45
1, 209348, Control_c, 0, 64, 46
1, 209363, Control_c, 0, 64, 46
1, 209393, Control_c, 0, 64, 47
1, 209407, Control_c, 0, 64, 47
1, 209476, Note_on_c, 0, 34, 41
1, 209497, Control_c, 0, 64, 48
1, 209562, Note_off_c, 0, 33, 49
1, 209571, Control_c, 0, 64, 48
1, 209586, Control_c, 0, 64, 49
1, 209601, Control_c, 0, 64, 49
1, 209615, Control_c, 0, 64, 50
1, 209686, Note_off_c, 0, 34, 59
1, 209700, Note_on_c, 0, 38, 39
1, 209734, Control_c, 0, 64, 50
1, 209763, Control_c, 0, 64, 49
1, 209869, Note_on_c, 0, 39, 49
1, 209870, Note_off_c, 0, 38, 55
1, 209948, Control_c, 0, 64, 49
1, 209963, Control_c, 0, 64, 48
1, 210000, Note_off_c, 0, 39, 64
1, 210007, Control_c, 0, 64, 48
1, 210015, Note_on_c, 0, 42, 52
1, 210037, Control_c, 0, 64, 47
1, 210067, Control_c, 0, 64, 48
1, 210082, Control_c, 0, 64, 49
1, 210097, Control_c, 0, 64, 52
1, 210112, Control_c, 0, 64, 56
1, 210126, Control_c, 0, 64, 60
1, 210141, Control_c, 0, 64, 62
1, 210147, Note_on_c, 0, 43, 48
1, 210156, Control_c, 0, 64, 64
1, 210171, Control_c, 0, 64, 65
1, 210186, Control_c, 0, 64, 66
1, 210189, Note_off_c, 0, 42, 64
1, 210200, Control_c, 0, 64, 67
1, 210200, Control_c, 0, 67, 117
1, 210215, Control_c, 0, 64, 68
1, 210215, Control_c, 0, 67, 94
1, 210230, Control_c, 0, 67, 75
1, 210246, Control_c, 0, 67, 58
1, 210261, Control_c, 0, 64, 68
1, 210261, Control_c, 0, 67, 42
1, 210271, Note_off_c, 0, 43, 54
1, 210275, Control_c, 0, 64, 69
1, 210275, Control_c, 0, 67, 26
1, 210279, Note_on_c, 0, 45, 43
1, 210290, Control_c, 0, 64, 71
1, 210290, Control_c, 0, 67, 11
1, 210305, Control_c, 0, 64, 73
1, 210305, Control_c, 0, 67, 0
1, 210320, Control_c, 0, 64, 74
1, 210335, Control_c, 0, 64, 75
1, 210361, Note_off_c, 0, 45, 63
1, 210380, Note_on_c, 0, 46, 55
1, 210416, Note_off_c, 0, 46, 63
1, 210481, Note_on_c, 0, 50, 66
1, 210512, Control_c, 0, 64, 76
1, 210526, Note_off_c, 0, 50, 56
1, 210587, Note_on_c, 0, 51, 65
1, 210594, Control_c, 0, 64, 76
1, 210638, Control_c, 0, 64, 77
1, 210651, Note_off_c, 0, 51, 64
1, 210653, Control_c, 0, 64, 77
1, 210668, Control_c, 0, 64, 78
1, 210669, Note_on_c, 0, 54, 63
1, 210702, Note_off_c, 0, 54, 62
1, 210745, Note_on_c, 0, 55, 65
1, 210804, Note_off_c, 0, 55, 50
1, 210821, Note_on_c, 0, 57, 64
1, 210863, Note_off_c, 0, 57, 59
1, 210875, Control_c, 0, 64, 78
1, 210886, Note_on_c, 0, 58, 69
1, 210890, Control_c, 0, 64, 79
1, 210912, Note_off_c, 0, 58, 68
1, 210919, Control_c, 0, 64, 79
1, 210934, Control_c, 0, 64, 80
1, 210960, Note_on_c, 0, 62, 72
1, 210964, Control_c, 0, 64, 81
1, 210979, Control_c, 0, 64, 81
1, 210994, Control_c, 0, 64, 82
1, 210998, Note_off_c, 0, 62, 60
1, 211023, Control_c, 0, 64, 82
1, 211039, Control_c, 0, 64, 83
1, 211039, Note_on_c, 0, 63, 70
1, 211053, Control_c, 0, 64, 83
1, 211083, Control_c, 0, 64, 84
1, 211098, Note_off_c, 0, 63, 63
1, 211102, Note_on_c, 0, 66, 78
1, 211113, Control_c, 0, 64, 84
1, 211128, Control_c, 0, 64, 85
1, 211132, Note_off_c, 0, 66, 66
1, 211143, Control_c, 0, 64, 85
1, 211170, Note_on_c, 0, 67, 84
1, 211173, Control_c, 0, 64, 86
1, 211202, Control_c, 0, 64, 86
1, 211206, Note_off_c, 0, 67, 59
1, 211217, Control_c, 0, 64, 87
1, 211232, Control_c, 0, 64, 87
1, 211246, Note_on_c, 0, 69, 74
1, 211246, Control_c, 0, 64, 89
1, 211261, Control_c, 0, 64, 90
1, 211274, Note_off_c, 0, 69, 69
1, 211276, Control_c, 0, 64, 91
1, 211291, Control_c, 0, 64, 93
1, 211297, Note_on_c, 0, 70, 79
1, 211306, Control_c, 0, 64, 95
1, 211324, Note_off_c, 0, 70, 71
1, 211328, Control_c, 0, 64, 98
1, 211343, Control_c, 0, 64, 100
1, 211358, Control_c, 0, 64, 103
1, 211372, Control_c, 0, 64, 105
1, 211375, Note_on_c, 0, 74, 73
1, 211387, Control_c, 0, 64, 107
1, 211402, Control_c, 0, 64, 109
1, 211408, Note_off_c, 0, 74, 63
1, 211417, Control_c, 0, 64, 113
1, 211432, Control_c, 0, 64, 117
1, 211435, Note_on_c, 0, 75, 76
1, 211446, Control_c, 0, 64, 123
1, 211461, Control_c, 0, 64, 127
1, 211476, Note_off_c, 0, 75, 62
1, 211489, Note_on_c, 0, 78, 90
1, 211530, Note_off_c, 0, 78, 61
1, 211557, Note_on_c, 0, 79, 84
1, 211602, Note_off_c, 0, 79, 60
1, 211620, Note_on_c, 0, 81, 82
1, 211644, Note_off_c, 0, 81, 61
1, 211666, Note_on_c, 0, 82, 83
1, 211684, Note_off_c, 0, 82, 72
1, 211734, Note_on_c, 0, 86, 89
1, 211779, Note_off_c, 0, 86, 62
1, 211787, Note_on_c, 0, 87, 86
1, 211843, Note_off_c, 0, 87, 63
1, 211843, Note_on_c, 0, 90, 93
1, 211880, Note_off_c, 0, 90, 65
1, 211919, Note_on_c, 0, 91, 99
1, 211975, Note_off_c, 0, 91, 59
1, 211981, Note_on_c, 0, 93, 88
1, 212031, Note_on_c, 0, 94, 92
1, 212031, Note_off_c, 0, 93, 63
1, 212073, Note_off_c, 0, 94, 65
1, 212111, Note_on_c, 0, 98, 102
1, 212183, Note_on_c, 0, 99, 99
1, 212210, Note_off_c, 0, 98, 63
1, 212255, Note_on_c, 0, 102, 98
1, 212272, Note_off_c, 0, 99, 72
1, 212334, Note_off_c, 0, 102, 65
1, 212358, Note_on_c, 0, 103, 106
1, 212471, Note_on_c, 0, 95, 82
1, 212521, Note_off_c, 0, 103, 61
1, 212541, Note_on_c, 0, 96, 89
1, 212547, Note_off_c, 0, 95, 68
1, 212591, Note_off_c, 0, 96, 59
1, 212618, Note_on_c, 0, 101, 86
1, 212681, Note_on_c, 0, 98, 93
1, 212683, Note_off_c, 0, 101, 66
1, 212735, Note_on_c, 0, 99, 93
1, 212745, Note_off_c, 0, 98, 65
1, 212774, Control_c, 0, 64, 124
1, 212789, Note_on_c, 0, 103, 96
1, 212789, Control_c, 0, 64, 116
1, 212804, Control_c, 0, 64, 109
1, 212805, Note_off_c, 0, 99, 68
1, 212826, Control_c, 0, 64, 103
1, 212841, Control_c, 0, 64, 97
1, 212851, Note_on_c, 0, 95, 94
1, 212856, Control_c, 0, 64, 92
1, 212871, Control_c, 0, 64, 87
1, 212880, Note_off_c, 0, 103, 64
1, 212886, Control_c, 0, 64, 83
1, 212900, Note_on_c, 0, 96, 91
1, 212900, Control_c, 0, 64, 82
1, 212911, Note_off_c, 0, 95, 67
1, 212945, Control_c, 0, 64, 81
1, 212952, Note_off_c, 0, 96, 62
1, 212960, Control_c, 0, 64, 79
1, 212967, Note_on_c, 0, 101, 85
1, 212974, Control_c, 0, 64, 74
1, 212989, Control_c, 0, 64, 68
1, 213004, Control_c, 0, 64, 54
1, 213014, Note_on_c, 0, 98, 96
1, 213018, Control_c, 0, 64, 0
1, 213024, Note_off_c, 0, 101, 66
1, 213048, Control_c, 0, 64, 42
1, 213063, Control_c, 0, 64, 58
1, 213078, Control_c, 0, 64, 65
1, 213084, Note_on_c, 0, 99, 98
1, 213092, Note_off_c, 0, 98, 66
1, 213092, Control_c, 0, 64, 70
1, 213107, Control_c, 0, 64, 76
1, 213120, Note_on_c, 0, 103, 94
1, 213122, Control_c, 0, 64, 81
1, 213137, Control_c, 0, 64, 83
1, 213143, Note_off_c, 0, 99, 69
1, 213185, Note_on_c, 0, 95, 92
1, 213213, Note_off_c, 0, 103, 65
1, 213235, Note_on_c, 0, 96, 89
1, 213252, Note_off_c, 0, 95, 65
1, 213284, Control_c, 0, 64, 84
1, 213290, Note_off_c, 0, 96, 63
1, 213298, Note_on_c, 0, 101, 94
1, 213360, Note_on_c, 0, 98, 102
1, 213373, Note_off_c, 0, 101, 67
1, 213433, Note_on_c, 0, 99, 102
1, 213455, Note_off_c, 0, 98, 67
1, 213503, Note_on_c, 0, 103, 97
1, 213533, Note_off_c, 0, 99, 69
1, 213584, Note_on_c, 0, 95, 93
1, 213629, Note_off_c, 0, 103, 64
1, 213642, Note_on_c, 0, 96, 102
1, 213665, Note_off_c, 0, 95, 69
1, 213724, Note_on_c, 0, 101, 103
1, 213742, Note_off_c, 0, 96, 62
1, 213821, Note_on_c, 0, 98, 105
1, 213836, Note_off_c, 0, 101, 66
1, 213927, Note_on_c, 0, 99, 104
1, 213961, Note_off_c, 0, 98, 68
1, 214092, Control_c, 0, 64, 84
1, 214106, Control_c, 0, 64, 82
1, 214121, Control_c, 0, 64, 74
1, 214136, Control_c, 0, 64, 0
1, 214142, Note_on_c, 0, 103, 114
1, 214142, Note_off_c, 0, 99, 0
1, 214182, Poly_aftertouch_c, 0, 99, 0
1, 214412, Control_c, 0, 64, 25
1, 214426, Control_c, 0, 64, 57
1, 214441, Control_c, 0, 64, 62
1, 214456, Control_c, 0, 64, 63
1, 214470, Control_c, 0, 64, 64
1, 214485, Control_c, 0, 64, 65
1, 214500, Control_c, 0, 64, 67
1, 214515, Control_c, 0, 64, 70
1, 214530, Control_c, 0, 64, 74
1, 214544, Control_c, 0, 64, 77
1, 214559, Control_c, 0, 64, 79
1, 214574, Control_c, 0, 64, 81
1, 214589, Control_c, 0, 64, 82
1, 214604, Control_c, 0, 64, 83
1, 214619, Control_c, 0, 64, 86
1, 214634, Control_c, 0, 64, 89
1, 214648, Control_c, 0, 64, 92
1, 214663, Control_c, 0, 64, 96
1, 214678, Control_c, 0, 64, 100
1, 214693, Control_c, 0, 64, 105
1, 214708, Control_c, 0, 64, 109
1, 214723, Control_c, 0, 64, 114
1, 214738, Control_c, 0, 64, 119
1, 214753, Control_c, 0, 64, 125
1, 214768, Control_c, 0, 64, 127
1, 215396, Note_on_c, 0, 98, 38
1, 215716, Note_off_c, 0, 103, 0
1, 215809, Poly_aftertouch_c, 0, 103, 0
1, 215820, Note_on_c, 0, 101, 36
1, 215827, Note_off_c, 0, 98, 50
1, 216031, Note_off_c, 0, 101, 51
1, 216049, Note_on_c, 0, 99, 45
1, 216120, Note_off_c, 0, 99, 59
1, 216214, Note_on_c, 0, 93, 43
1, 216345, Note_off_c, 0, 93, 53
1, 216365, Note_on_c, 0, 96, 35
1, 216453, Note_on_c, 0, 94, 52
1, 216455, Note_off_c, 0, 96, 60
1, 216516, Note_off_c, 0, 94, 65
1, 216551, Note_on_c, 0, 90, 61
1, 216601, Note_off_c, 0, 90, 56
1, 216634, Note_on_c, 0, 92, 62
1, 216720, Note_on_c, 0, 91, 64
1, 216747, Note_off_c, 0, 91, 64
1, 216749, Note_off_c, 0, 92, 62
1, 216789, Note_on_c, 0, 86, 65
1, 216817, Note_off_c, 0, 86, 62
1, 216873, Note_on_c, 0, 89, 49
1, 216910, Note_on_c, 0, 87, 65
1, 216914, Note_off_c, 0, 89, 60
1, 216942, Note_off_c, 0, 87, 62
1, 216985, Note_on_c, 0, 81, 65
1, 217011, Note_off_c, 0, 81, 64
1, 217050, Note_on_c, 0, 84, 62
1, 217092, Note_off_c, 0, 84, 64
1, 217097, Note_on_c, 0, 82, 68
1, 217130, Note_off_c, 0, 82, 64
1, 217161, Note_on_c, 0, 78, 73
1, 217191, Note_off_c, 0, 78, 56
1, 217233, Note_on_c, 0, 80, 63
1, 217290, Note_on_c, 0, 79, 62
1, 217316, Note_off_c, 0, 79, 64
1, 217327, Note_off_c, 0, 80, 63
1, 217348, Note_on_c, 0, 74, 66
1, 217373, Note_off_c, 0, 74, 71
1, 217415, Note_on_c, 0, 77, 66
1, 217471, Note_on_c, 0, 75, 74
1, 217479, Note_off_c, 0, 77, 56
1, 217498, Note_off_c, 0, 75, 66
1, 217533, Note_on_c, 0, 69, 71
1, 217558, Note_off_c, 0, 69, 71
1, 217599, Note_on_c, 0, 72, 63
1, 217629, Note_off_c, 0, 72, 67
1, 217643, Note_on_c, 0, 70, 74
1, 217684, Note_off_c, 0, 70, 60
1, 217704, Note_on_c, 0, 66, 77
1, 217751, Note_off_c, 0, 66, 55
1, 217779, Note_on_c, 0, 68, 63
1, 217842, Note_on_c, 0, 67, 52
1, 217865, Note_off_c, 0, 67, 62
1, 217880, Note_off_c, 0, 68, 61
1, 217913, Note_on_c, 0, 62, 61
1, 217926, Control_c, 0, 64, 117
1, 217941, Control_c, 0, 64, 99
1, 217955, Control_c, 0, 64, 81
1, 217970, Control_c, 0, 64, 64
1, 217978, Note_off_c, 0, 62, 42
1, 217985, Control_c, 0, 64, 0
1, 218008, Note_on_c, 0, 65, 47
1, 218029, Control_c, 0, 64, 35
1, 218044, Control_c, 0, 64, 66
1, 218067, Control_c, 0, 64, 71
1, 218082, Control_c, 0, 64, 74
1, 218093, Note_on_c, 0, 63, 56
1, 218096, Control_c, 0, 64, 75
1, 218097, Note_off_c, 0, 65, 61
1, 218111, Control_c, 0, 64, 75
1, 218156, Control_c, 0, 64, 76
1, 218163, Note_off_c, 0, 63, 64
1, 218170, Control_c, 0, 64, 76
1, 218173, Note_on_c, 0, 57, 59
1, 218185, Control_c, 0, 64, 77
1, 218200, Control_c, 0, 64, 78
1, 218212, Note_off_c, 0, 57, 61
1, 218214, Control_c, 0, 64, 79
1, 218222, Note_on_c, 0, 60, 51
1, 218245, Control_c, 0, 64, 80
1, 218260, Control_c, 0, 64, 80
1, 218264, Note_off_c, 0, 60, 64
1, 218278, Note_on_c, 0, 58, 67
1, 218290, Control_c, 0, 64, 81
1, 218305, Control_c, 0, 64, 81
1, 218310, Note_off_c, 0, 58, 67
1, 218340, Note_on_c, 0, 62, 76
1, 218349, Control_c, 0, 64, 81
1, 218364, Control_c, 0, 64, 79
1, 218379, Control_c, 0, 64, 76
1, 218389, Note_on_c, 0, 65, 67
1, 218393, Control_c, 0, 64, 69
1, 218402, Note_off_c, 0, 62, 58
1, 218408, Control_c, 0, 64, 56
1, 218423, Control_c, 0, 64, 0
1, 218452, Control_c, 0, 64, 48
1, 218467, Note_off_c, 0, 65, 66
1, 218467, Control_c, 0, 64, 65
1, 218477, Note_on_c, 0, 63, 65
1, 218482, Control_c, 0, 64, 70
1, 218497, Control_c, 0, 64, 74
1, 218512, Control_c, 0, 64, 75
1, 218527, Control_c, 0, 64, 76
1, 218533, Note_on_c, 0, 57, 66
1, 218553, Note_off_c, 0, 63, 62
1, 218581, Note_off_c, 0, 57, 55
1, 218606, Note_on_c, 0, 60, 65
1, 218636, Note_off_c, 0, 60, 64
1, 218641, Note_on_c, 0, 58, 72
1, 218645, Control_c, 0, 64, 75
1, 218660, Control_c, 0, 64, 74
1, 218670, Poly_aftertouch_c, 0, 61, 0
1, 218675, Control_c, 0, 64, 70
1, 218690, Control_c, 0, 64, 63
1, 218699, Note_off_c, 0, 58, 65
1, 218702, Note_on_c, 0, 62, 80
1, 218704, Control_c, 0, 64, 0
1, 218749, Control_c, 0, 64, 49
1, 218764, Control_c, 0, 64, 64
1, 218765, Note_on_c, 0, 65, 70
1, 218770, Note_off_c, 0, 62, 62
1, 218778, Control_c, 0, 64, 68
1, 218793, Control_c, 0, 64, 70
1, 218816, Control_c, 0, 64, 71
1, 218839, Note_on_c, 0, 63, 79
1, 218841, Note_off_c, 0, 65, 66
1, 218908, Note_on_c, 0, 57, 78
1, 218913, Note_off_c, 0, 63, 62
1, 218968, Note_off_c, 0, 57, 64
1, 218972, Note_on_c, 0, 60, 71
1, 219021, Note_on_c, 0, 58, 78
1, 219023, Control_c, 0, 64, 70
1, 219039, Control_c, 0, 64, 69
1, 219042, Note_off_c, 0, 60, 52
1, 219054, Control_c, 0, 64, 65
1, 219068, Control_c, 0, 64, 57
1, 219083, Control_c, 0, 64, 20
1, 219087, Note_on_c, 0, 62, 85
1, 219091, Note_off_c, 0, 58, 66
1, 219098, Control_c, 0, 64, 0
1, 219128, Control_c, 0, 64, 23
1, 219142, Control_c, 0, 64, 50
1, 219145, Note_on_c, 0, 65, 67
1, 219157, Control_c, 0, 64, 58
1, 219172, Control_c, 0, 64, 59
1, 219182, Note_off_c, 0, 62, 62
1, 219187, Control_c, 0, 64, 57
1, 219202, Control_c, 0, 64, 56
1, 219215, Control_c, 0, 64, 54
1, 219224, Note_on_c, 0, 63, 80
1, 219245, Control_c, 0, 64, 55
1, 219254, Note_off_c, 0, 65, 66
1, 219260, Control_c, 0, 64, 57
1, 219275, Control_c, 0, 64, 59
1, 219290, Control_c, 0, 64, 61
1, 219295, Note_on_c, 0, 57, 82
1, 219305, Control_c, 0, 64, 63
1, 219320, Control_c, 0, 64, 64
1, 219334, Control_c, 0, 64, 66
1, 219343, Note_off_c, 0, 63, 62
1, 219349, Control_c, 0, 64, 67
1, 219364, Control_c, 0, 64, 69
1, 219378, Control_c, 0, 64, 70
1, 219379, Note_off_c, 0, 57, 63
1, 219382, Note_on_c, 0, 60, 80
1, 219393, Control_c, 0, 64, 71
1, 219417, Note_on_c, 0, 61, 2
1, 219438, Control_c, 0, 64, 71
1, 219452, Control_c, 0, 64, 72
1, 219454, Note_off_c, 0, 61, 34
1, 219467, Control_c, 0, 64, 72
1, 219468, Note_on_c, 0, 58, 88
1, 219482, Control_c, 0, 64, 73
1, 219492, Note_off_c, 0, 60, 62
1, 219497, Control_c, 0, 64, 73
1, 219526, Control_c, 0, 64, 74
1, 219638, Control_c, 0, 64, 72
1, 219645, Note_on_c, 0, 62, 96
1, 219652, Note_off_c, 0, 58, 65
1, 219652, Control_c, 0, 64, 67
1, 219667, Control_c, 0, 64, 14
1, 219682, Control_c, 0, 64, 0
1, 219964, Control_c, 0, 64, 58
1, 219994, Control_c, 0, 64, 55
1, 220008, Control_c, 0, 64, 56
1, 220023, Note_on_c, 0, 63, 84
1, 220023, Control_c, 0, 64, 57
1, 220038, Control_c, 0, 64, 60
1, 220053, Control_c, 0, 64, 64
1, 220065, Note_off_c, 0, 62, 57
1, 220068, Control_c, 0, 64, 67
1, 220083, Control_c, 0, 64, 71
1, 220098, Control_c, 0, 64, 75
1, 220112, Control_c, 0, 64, 78
1, 220127, Control_c, 0, 64, 80
1, 220130, Note_on_c, 0, 66, 83
1, 220133, Note_off_c, 0, 63, 66
1, 220142, Control_c, 0, 64, 80
1, 220174, Note_off_c, 0, 66, 65
1, 220218, Note_on_c, 0, 67, 76
1, 220285, Note_off_c, 0, 67, 61
1, 220287, Note_on_c, 0, 69, 83
1, 220350, Note_off_c, 0, 69, 67
1, 220354, Note_on_c, 0, 70, 86
1, 220372, Note_off_c, 0, 70, 73
1, 220429, Note_on_c, 0, 74, 82
1, 220461, Control_c, 0, 64, 81
1, 220490, Control_c, 0, 64, 81
1, 220509, Note_off_c, 0, 74, 61
1, 220514, Note_on_c, 0, 75, 87
1, 220535, Control_c, 0, 64, 82
1, 220579, Control_c, 0, 64, 82
1, 220588, Note_on_c, 0, 78, 90
1, 220594, Note_off_c, 0, 75, 66
1, 220608, Control_c, 0, 64, 83
1, 220639, Control_c, 0, 64, 83
1, 220642, Note_off_c, 0, 78, 65
1, 220681, Note_on_c, 0, 79, 95
1, 220684, Control_c, 0, 64, 84
1, 220826, Note_off_c, 0, 79, 59
1, 220831, Control_c, 0, 64, 83
1, 220846, Control_c, 0, 64, 78
1, 220850, Note_on_c, 0, 82, 109
1, 220861, Control_c, 0, 64, 66
1, 220876, Control_c, 0, 64, 0
1, 221076, Control_c, 0, 64, 60
1, 221091, Control_c, 0, 64, 71
1, 221105, Control_c, 0, 64, 80
1, 221120, Control_c, 0, 64, 87
1, 221135, Control_c, 0, 64, 96
1, 221150, Control_c, 0, 64, 110
1, 221165, Control_c, 0, 64, 127
1, 221341, Note_off_c, 0, 82, 62
1, 221345, Note_on_c, 0, 79, 69
1, 221368, Note_off_c, 0, 79, 68
1, 221519, Note_on_c, 0, 75, 63
1, 221630, Note_on_c, 0, 72, 76
1, 221639, Note_off_c, 0, 75, 59
1, 221700, Note_off_c, 0, 72, 64
1, 221728, Note_on_c, 0, 70, 81
1, 221812, Note_off_c, 0, 70, 61
1, 221825, Note_on_c, 0, 67, 84
1, 221859, Note_off_c, 0, 67, 61
1, 221922, Note_on_c, 0, 63, 83
1, 222005, Note_on_c, 0, 60, 84
1, 222027, Note_off_c, 0, 63, 58
1, 222077, Note_off_c, 0, 60, 58
1, 222086, Note_on_c, 0, 58, 86
1, 222148, Note_off_c, 0, 58, 64
1, 222169, Note_on_c, 0, 55, 87
1, 222193, Note_off_c, 0, 55, 70
1, 222258, Note_on_c, 0, 51, 86
1, 222278, Note_on_c, 0, 50, 78
1, 222300, Note_off_c, 0, 50, 61
1, 222307, Note_off_c, 0, 51, 62
1, 222352, Note_on_c, 0, 48, 78
1, 222427, Note_off_c, 0, 48, 64
1, 222447, Note_on_c, 0, 46, 96
1, 222540, Note_off_c, 0, 46, 64
1, 222558, Note_on_c, 0, 43, 97
1, 222606, Note_off_c, 0, 43, 64
1, 222692, Note_on_c, 0, 39, 93
1, 222774, Note_off_c, 0, 39, 61
1, 222836, Note_on_c, 0, 36, 97
1, 222926, Note_off_c, 0, 36, 62
1, 223016, Note_on_c, 0, 34, 100
1, 223078, Note_off_c, 0, 34, 65
1, 223267, Note_on_c, 0, 31, 96
1, 223323, Note_off_c, 0, 31, 65
1, 223620, Control_c, 0, 64, 107
1, 223624, Note_on_c, 0, 27, 100
1, 223634, Control_c, 0, 64, 72
1, 223649, Control_c, 0, 64, 0
1, 223767, Control_c, 0, 64, 76
1, 223782, Control_c, 0, 64, 95
1, 223797, Control_c, 0, 64, 115
1, 223812, Control_c, 0, 64, 127
1, 224144, Note_on_c, 0, 31, 66
1, 224147, Note_off_c, 0, 27, 67
1, 224153, Note_on_c, 0, 39, 73
1, 224175, Note_off_c, 0, 31, 63
1, 224176, Note_off_c, 0, 39, 67
1, 224333, Note_on_c, 0, 34, 70
1, 224336, Note_on_c, 0, 43, 64
1, 224354, Note_on_c, 0, 45, 58
1, 224397, Note_off_c, 0, 45, 43
1, 224414, Note_off_c, 0, 43, 48
1, 224448, Note_on_c, 0, 46, 86
1, 224459, Note_on_c, 0, 39, 72
1, 224471, Note_off_c, 0, 34, 60
1, 224543, Note_on_c, 0, 43, 73
1, 224545, Note_on_c, 0, 51, 79
1, 224550, Note_off_c, 0, 46, 63
1, 224554, Note_off_c, 0, 39, 61
1, 224577, Note_off_c, 0, 51, 65
1, 224578, Note_off_c, 0, 43, 65
1, 224659, Note_on_c, 0, 46, 71
1, 224660, Note_on_c, 0, 55, 67
1, 224673, Note_on_c, 0, 53, 39
1, 224716, Note_off_c, 0, 53, 47
1, 224735, Note_on_c, 0, 58, 88
1, 224739, Note_off_c, 0, 55, 57
1, 224742, Note_on_c, 0, 51, 79
1, 224764, Note_off_c, 0, 46, 58
1, 224828, Note_on_c, 0, 55, 77
1, 224830, Note_on_c, 0, 63, 86
1, 224834, Note_off_c, 0, 51, 64
1, 224838, Note_off_c, 0, 58, 64
1, 224851, Note_off_c, 0, 55, 72
1, 224870, Note_off_c, 0, 63, 66
1, 224917, Note_on_c, 0, 67, 87
1, 224926, Note_on_c, 0, 58, 80
1, 224997, Note_off_c, 0, 67, 56
1, 225002, Note_on_c, 0, 70, 94
1, 225012, Note_on_c, 0, 63, 87
1, 225040, Note_off_c, 0, 58, 62
1, 225086, Note_on_c, 0, 75, 92
1, 225094, Note_on_c, 0, 67, 89
1, 225095, Note_off_c, 0, 63, 66
1, 225096, Note_off_c, 0, 70, 63
1, 225126, Note_off_c, 0, 67, 62
1, 225127, Note_off_c, 0, 75, 67
1, 225180, Note_on_c, 0, 79, 86
1, 225187, Note_on_c, 0, 70, 85
1, 225214, Note_on_c, 0, 81, 32
1, 225248, Note_off_c, 0, 81, 50
1, 225265, Note_on_c, 0, 82, 95
1, 225272, Note_off_c, 0, 79, 55
1, 225278, Note_on_c, 0, 75, 89
1, 225287, Note_off_c, 0, 70, 62
1, 225354, Note_on_c, 0, 87, 92
1, 225358, Note_off_c, 0, 75, 68
1, 225361, Note_on_c, 0, 79, 87
1, 225366, Note_off_c, 0, 82, 65
1, 225391, Note_off_c, 0, 79, 62
1, 225398, Note_off_c, 0, 87, 65
1, 225455, Note_on_c, 0, 91, 98
1, 225458, Note_on_c, 0, 82, 90
1, 225531, Note_off_c, 0, 91, 55
1, 225573, Note_on_c, 0, 94, 104
1, 225574, Note_on_c, 0, 87, 88
1, 225579, Note_off_c, 0, 82, 65
1, 225675, Note_off_c, 0, 94, 63
1, 225694, Note_off_c, 0, 87, 65
1, 225702, Note_on_c, 0, 99, 108
1, 225708, Note_on_c, 0, 91, 96
1, 225792, Note_off_c, 0, 99, 61
1, 225893, Note_on_c, 0, 94, 106
1, 225894, Note_on_c, 0, 103, 112
1, 225908, Note_off_c, 0, 91, 63
1, 225931, Note_off_c, 0, 94, 71
1, 225938, Note_off_c, 0, 103, 69
1, 226599, Control_c, 0, 64, 121
1, 226614, Control_c, 0, 64, 81
1, 226629, Control_c, 0, 64, 0
1, 227181, Note_on_c, 0, 31, 59
1, 227184, Note_on_c, 0, 55, 64
1, 227187, Note_on_c, 0, 43, 56
1, 227210, Note_off_c, 0, 55, 67
1, 227211, Note_off_c, 0, 31, 61
1, 227214, Note_off_c, 0, 43, 57
1, 227438, Note_on_c, 0, 58, 69
1, 227440, Note_on_c, 0, 34, 50
1, 227443, Note_on_c, 0, 46, 61
1, 227466, Note_off_c, 0, 58, 67
1, 227469, Note_off_c, 0, 46, 62
1, 227469, Note_off_c, 0, 34, 49
1, 227638, Note_on_c, 0, 60, 65
1, 227643, Note_on_c, 0, 48, 62
1, 227652, Note_on_c, 0, 36, 53
1, 227666, Note_off_c, 0, 60, 67
1, 227670, Note_off_c, 0, 48, 66
1, 227682, Note_off_c, 0, 36, 53
1, 227832, Note_on_c, 0, 32, 51
1, 227839, Note_on_c, 0, 44, 62
1, 227845, Note_on_c, 0, 56, 55
1, 227863, Note_off_c, 0, 32, 57
1, 227863, Note_off_c, 0, 44, 59
1, 227867, Note_off_c, 0, 56, 57
1, 227985, Note_on_c, 0, 46, 65
1, 227988, Note_on_c, 0, 34, 58
1, 228012, Note_off_c, 0, 46, 63
1, 228021, Note_on_c, 0, 58, 17
1, 228025, Note_off_c, 0, 34, 63
1, 228030, Note_off_c, 0, 58, 38
1, 228113, Note_on_c, 0, 50, 73
1, 228116, Note_on_c, 0, 38, 61
1, 228116, Note_on_c, 0, 62, 66
1, 228134, Note_off_c, 0, 62, 63
1, 228140, Note_off_c, 0, 50, 67
1, 228147, Note_off_c, 0, 38, 64
1, 228253, Note_on_c, 0, 39, 64
1, 228259, Note_on_c, 0, 51, 73
1, 228265, Note_on_c, 0, 63, 62
1, 228285, Note_off_c, 0, 63, 66
1, 228286, Note_off_c, 0, 51, 64
1, 228287, Note_off_c, 0, 39, 60
1, 228387, Note_on_c, 0, 36, 56
1, 228396, Note_on_c, 0, 48, 70
1, 228399, Note_on_c, 0, 60, 69
1, 228416, Note_off_c, 0, 48, 64
1, 228416, Note_off_c, 0, 60, 66
1, 228417, Note_off_c, 0, 36, 64
1, 228522, Note_on_c, 0, 52, 75
1, 228525, Note_on_c, 0, 64, 66
1, 228528, Note_on_c, 0, 40, 61
1, 228554, Note_off_c, 0, 52, 71
1, 228559, Note_off_c, 0, 64, 66
1, 228560, Note_off_c, 0, 40, 61
1, 228653, Note_on_c, 0, 61, 76
1, 228657, Note_on_c, 0, 49, 68
1, 228660, Note_on_c, 0, 37, 54
1, 228669, Control_c, 0, 64, 16
1, 228676, Note_off_c, 0, 61, 67
1, 228677, Note_off_c, 0, 49, 62
1, 228684, Control_c, 0, 64, 25
1, 228689, Note_off_c, 0, 37, 63
1, 228714, Control_c, 0, 64, 23
1, 228728, Control_c, 0, 64, 22
1, 228743, Control_c, 0, 64, 20
1, 228758, Control_c, 0, 64, 18
1, 228772, Note_on_c, 0, 53, 78
1, 228772, Note_on_c, 0, 41, 69
1, 228772, Note_on_c, 0, 65, 79
1, 228772, Control_c, 0, 64, 14
1, 228787, Control_c, 0, 64, 0
1, 228794, Note_off_c, 0, 53, 69
1, 228796, Note_off_c, 0, 65, 72
1, 228801, Note_off_c, 0, 41, 67
1, 228890, Note_on_c, 0, 62, 75
1, 228891, Control_c, 0, 64, 14
1, 228893, Note_on_c, 0, 50, 69
1, 228906, Control_c, 0, 64, 20
1, 228911, Note_on_c, 0, 38, 39
1, 228912, Note_off_c, 0, 50, 63
1, 228916, Note_off_c, 0, 62, 66
1, 228921, Control_c, 0, 64, 22
1, 228948, Note_off_c, 0, 38, 44
1, 228980, Control_c, 0, 64, 18
1, 228995, Control_c, 0, 64, 14
1, 229010, Control_c, 0, 64, 0
1, 229015, Note_on_c, 0, 55, 80
1, 229016, Note_on_c, 0, 67, 76
1, 229031, Note_on_c, 0, 43, 51
1, 229037, Note_off_c, 0, 55, 68
1, 229038, Note_off_c, 0, 67, 69
1, 229061, Note_off_c, 0, 43, 57
1, 229138, Note_on_c, 0, 63, 71
1, 229139, Note_on_c, 0, 51, 70
1, 229143, Note_on_c, 0, 39, 56
1, 229143, Control_c, 0, 64, 16
1, 229157, Note_off_c, 0, 51, 65
1, 229158, Control_c, 0, 64, 20
1, 229158, Note_off_c, 0, 63, 67
1, 229176, Note_off_c, 0, 39, 63
1, 229232, Control_c, 0, 64, 18
1, 229267, Note_on_c, 0, 56, 75
1, 229268, Note_on_c, 0, 68, 78
1, 229276, Control_c, 0, 64, 16
1, 229281, Note_on_c, 0, 44, 60
1, 229299, Note_off_c, 0, 56, 67
1, 229301, Note_off_c, 0, 68, 67
1, 229322, Note_off_c, 0, 44, 63
1, 229328, Control_c, 0, 64, 14
1, 229343, Control_c, 0, 64, 0
1, 229390, Note_on_c, 0, 41, 62
1, 229395, Note_on_c, 0, 65, 81
1, 229396, Note_on_c, 0, 53, 79
1, 229418, Note_off_c, 0, 65, 72
1, 229422, Note_off_c, 0, 53, 70
1, 229423, Note_off_c, 0, 41, 66
1, 229513, Note_on_c, 0, 55, 70
1, 229517, Note_on_c, 0, 67, 65
1, 229523, Note_on_c, 0, 43, 53
1, 229532, Note_off_c, 0, 55, 64
1, 229535, Note_off_c, 0, 67, 63
1, 229544, Note_on_c, 0, 69, 18
1, 229553, Note_off_c, 0, 43, 53
1, 229568, Note_off_c, 0, 69, 39
1, 229581, Control_c, 0, 64, 14
1, 229595, Control_c, 0, 64, 18
1, 229626, Note_on_c, 0, 58, 78
1, 229627, Note_on_c, 0, 70, 79
1, 229640, Note_on_c, 0, 46, 50
1, 229640, Control_c, 0, 64, 16
1, 229648, Note_off_c, 0, 70, 71
1, 229649, Note_off_c, 0, 58, 68
1, 229655, Control_c, 0, 64, 14
1, 229666, Note_off_c, 0, 46, 56
1, 229699, Control_c, 0, 64, 11
1, 229714, Control_c, 0, 64, 0
1, 229732, Note_on_c, 0, 60, 85
1, 229734, Note_on_c, 0, 72, 80
1, 229739, Note_on_c, 0, 48, 63
1, 229750, Note_off_c, 0, 60, 70
1, 229755, Note_off_c, 0, 72, 71
1, 229766, Note_off_c, 0, 48, 65
1, 229846, Note_on_c, 0, 44, 63
1, 229847, Control_c, 0, 64, 11
1, 229855, Note_on_c, 0, 56, 72
1, 229860, Note_on_c, 0, 68, 64
1, 229862, Control_c, 0, 64, 16
1, 229872, Note_off_c, 0, 56, 63
1, 229874, Note_off_c, 0, 44, 66
1, 229878, Note_off_c, 0, 68, 64
1, 229892, Control_c, 0, 64, 18
1, 229907, Control_c, 0, 64, 23
1, 229922, Control_c, 0, 64, 28
1, 229936, Control_c, 0, 64, 32
1, 229949, Note_on_c, 0, 58, 79
1, 229950, Note_on_c, 0, 70, 83
1, 229951, Control_c, 0, 64, 34
1, 229958, Note_on_c, 0, 46, 66
1, 229966, Control_c, 0, 64, 35
1, 229970, Note_off_c, 0, 70, 71
1, 229971, Note_off_c, 0, 58, 69
1, 229980, Control_c, 0, 64, 34
1, 229995, Control_c, 0, 64, 30
1, 229996, Note_off_c, 0, 46, 61
1, 230010, Control_c, 0, 64, 27
1, 230025, Control_c, 0, 64, 26
1, 230048, Control_c, 0, 64, 25
1, 230051, Note_on_c, 0, 62, 94
1, 230057, Note_on_c, 0, 74, 80
1, 230063, Control_c, 0, 64, 20
1, 230063, Note_on_c, 0, 50, 63
1, 230069, Note_off_c, 0, 62, 71
1, 230074, Note_off_c, 0, 74, 74
1, 230077, Control_c, 0, 64, 0
1, 230092, Note_off_c, 0, 50, 64
1, 230151, Control_c, 0, 64, 11
1, 230166, Control_c, 0, 64, 18
1, 230171, Note_on_c, 0, 51, 65
1, 230173, Note_on_c, 0, 63, 84
1, 230181, Control_c, 0, 64, 23
1, 230192, Note_on_c, 0, 74, 51
1, 230194, Note_off_c, 0, 63, 71
1, 230195, Control_c, 0, 64, 26
1, 230203, Note_off_c, 0, 51, 61
1, 230210, Control_c, 0, 64, 28
1, 230213, Note_off_c, 0, 74, 62
1, 230226, Control_c, 0, 64, 29
1, 230270, Note_on_c, 0, 48, 68
1, 230271, Control_c, 0, 64, 27
1, 230285, Note_on_c, 0, 72, 83
1, 230286, Note_on_c, 0, 60, 81
1, 230286, Control_c, 0, 64, 25
1, 230297, Note_off_c, 0, 48, 66
1, 230300, Control_c, 0, 64, 22
1, 230302, Note_off_c, 0, 72, 74
1, 230304, Note_off_c, 0, 60, 70
1, 230315, Control_c, 0, 64, 20
1, 230345, Control_c, 0, 64, 18
1, 230360, Control_c, 0, 64, 16
1, 230374, Control_c, 0, 64, 0
1, 230388, Note_on_c, 0, 64, 91
1, 230388, Note_on_c, 0, 76, 91
1, 230395, Note_on_c, 0, 52, 70
1, 230408, Note_off_c, 0, 76, 71
1, 230408, Note_off_c, 0, 64, 72
1, 230421, Note_off_c, 0, 52, 68
1, 230502, Note_on_c, 0, 61, 85
1, 230503, Note_on_c, 0, 73, 90
1, 230506, Note_on_c, 0, 49, 62
1, 230521, Note_off_c, 0, 73, 71
1, 230522, Note_off_c, 0, 61, 70
1, 230534, Note_off_c, 0, 49, 64
1, 230610, Note_on_c, 0, 53, 83
1, 230614, Note_on_c, 0, 65, 94
1, 230615, Note_on_c, 0, 77, 93
1, 230635, Note_off_c, 0, 77, 65
1, 230642, Note_off_c, 0, 65, 67
1, 230650, Note_off_c, 0, 53, 68
1, 230725, Note_on_c, 0, 74, 80
1, 230728, Note_on_c, 0, 62, 81
1, 230732, Note_on_c, 0, 50, 70
1, 230742, Note_off_c, 0, 74, 74
1, 230751, Note_off_c, 0, 62, 68
1, 230757, Note_off_c, 0, 50, 66
1, 230835, Note_on_c, 0, 67, 94
1, 230842, Note_on_c, 0, 81, 81
1, 230844, Note_on_c, 0, 79, 81
1, 230847, Note_on_c, 0, 55, 79
1, 230859, Note_off_c, 0, 67, 67
1, 230862, Note_off_c, 0, 81, 70
1, 230863, Note_off_c, 0, 79, 71
1, 230888, Note_off_c, 0, 55, 67
1, 230943, Note_on_c, 0, 51, 74
1, 230945, Note_on_c, 0, 63, 96
1, 230948, Note_on_c, 0, 75, 93
1, 230965, Note_off_c, 0, 75, 72
1, 230968, Note_off_c, 0, 63, 68
1, 230980, Note_off_c, 0, 51, 66
1, 231058, Note_on_c, 0, 68, 93
1, 231063, Note_on_c, 0, 80, 88
1, 231065, Note_on_c, 0, 56, 75
1, 231091, Note_off_c, 0, 80, 62
1, 231094, Note_off_c, 0, 68, 66
1, 231108, Note_off_c, 0, 56, 61
1, 231166, Note_on_c, 0, 53, 79
1, 231173, Note_on_c, 0, 65, 99
1, 231173, Note_on_c, 0, 77, 101
1, 231202, Note_off_c, 0, 65, 68
1, 231205, Note_off_c, 0, 77, 67
1, 231207, Note_off_c, 0, 53, 69
1, 231301, Note_on_c, 0, 70, 100
1, 231301, Note_on_c, 0, 82, 101
1, 231308, Note_on_c, 0, 58, 86
1, 231330, Note_off_c, 0, 70, 65
1, 231332, Note_off_c, 0, 82, 63
1, 231339, Note_off_c, 0, 58, 65
1, 231425, Note_on_c, 0, 67, 98
1, 231426, Note_on_c, 0, 79, 96
1, 231428, Note_on_c, 0, 55, 82
1, 231454, Note_off_c, 0, 67, 66
1, 231457, Note_off_c, 0, 55, 66
1, 231458, Note_off_c, 0, 79, 66
1, 231578, Note_on_c, 0, 72, 94
1, 231579, Note_on_c, 0, 84, 97
1, 231598, Note_on_c, 0, 60, 73
1, 231603, Note_off_c, 0, 84, 64
1, 231607, Note_off_c, 0, 72, 67
1, 231623, Note_off_c, 0, 60, 67
1, 231705, Note_on_c, 0, 68, 95
1, 231708, Note_on_c, 0, 80, 90
1, 231717, Note_on_c, 0, 56, 66
1, 231721, Note_off_c, 0, 68, 74
1, 231725, Note_off_c, 0, 80, 75
1, 231743, Note_off_c, 0, 56, 66
1, 231810, Note_on_c, 0, 70, 96
1, 231815, Note_on_c, 0, 82, 97
1, 231817, Note_on_c, 0, 58, 80
1, 231830, Note_off_c, 0, 82, 73
1, 231833, Note_off_c, 0, 70, 65
1, 231860, Note_off_c, 0, 58, 64
1, 231918, Note_on_c, 0, 74, 94
1, 231921, Note_on_c, 0, 86, 91
1, 231922, Note_on_c, 0, 62, 85
1, 231935, Note_off_c, 0, 86, 75
1, 231939, Note_off_c, 0, 74, 68
1, 231957, Note_off_c, 0, 62, 65
1, 232026, Note_on_c, 0, 75, 100
1, 232029, Note_on_c, 0, 87, 94
1, 232033, Note_on_c, 0, 63, 83
1, 232049, Note_off_c, 0, 87, 67
1, 232057, Note_off_c, 0, 75, 66
1, 232060, Note_off_c, 0, 63, 66
1, 232134, Note_on_c, 0, 60, 82
1, 232140, Note_on_c, 0, 72, 99
1, 232140, Note_on_c, 0, 84, 97
1, 232167, Note_off_c, 0, 84, 69
1, 232167, Note_off_c, 0, 72, 68
1, 232169, Note_off_c, 0, 60, 64
1, 232250, Note_on_c, 0, 74, 92
1, 232251, Note_on_c, 0, 86, 99
1, 232252, Note_on_c, 0, 62, 85
1, 232277, Note_off_c, 0, 74, 71
1, 232277, Note_off_c, 0, 86, 70
1, 232295, Note_off_c, 0, 62, 64
1, 232366, Note_on_c, 0, 65, 91
1, 232367, Note_on_c, 0, 77, 96
1, 232372, Note_on_c, 0, 89, 90
1, 232373, Note_on_c, 0, 79, 87
1, 232377, Note_on_c, 0, 91, 80
1, 232389, Note_off_c, 0, 89, 73
1, 232391, Note_off_c, 0, 77, 63
1, 232391, Note_off_c, 0, 79, 71
1, 232397, Note_off_c, 0, 91, 65
1, 232398, Note_off_c, 0, 65, 68
1, 232471, Note_on_c, 0, 79, 101
1, 232474, Note_on_c, 0, 91, 105
1, 232483, Note_on_c, 0, 67, 88
1, 232497, Note_off_c, 0, 79, 69
1, 232498, Note_off_c, 0, 91, 65
1, 232516, Note_off_c, 0, 67, 63
1, 232579, Note_on_c, 0, 75, 99
1, 232580, Note_on_c, 0, 87, 97
1, 232582, Note_on_c, 0, 63, 80
1, 232597, Note_off_c, 0, 75, 67
1, 232613, Note_off_c, 0, 87, 63
1, 232629, Note_off_c, 0, 63, 65
1, 232691, Note_on_c, 0, 65, 95
1, 232692, Note_on_c, 0, 77, 99
1, 232693, Note_on_c, 0, 89, 98
1, 232721, Note_off_c, 0, 77, 70
1, 232722, Note_off_c, 0, 89, 68
1, 232727, Note_off_c, 0, 65, 68
1, 232803, Note_on_c, 0, 68, 98
1, 232811, Note_on_c, 0, 80, 98
1, 232820, Note_on_c, 0, 91, 82
1, 232821, Note_on_c, 0, 90, 70
1, 232822, Note_off_c, 0, 90, 127
1, 232831, Note_on_c, 0, 78, 51
1, 232832, Note_off_c, 0, 78, 127
1, 232832, Note_off_c, 0, 80, 67
1, 232832, Note_off_c, 0, 91, 65
1, 232835, Note_off_c, 0, 68, 66
1, 232924, Note_on_c, 0, 82, 111
1, 232927, Note_on_c, 0, 94, 104
1, 232930, Note_on_c, 0, 70, 99
1, 232950, Note_off_c, 0, 82, 69
1, 232957, Note_off_c, 0, 94, 65
1, 232963, Note_off_c, 0, 70, 66
1, 233052, Note_on_c, 0, 66, 89
1, 233054, Note_on_c, 0, 78, 111
1, 233056, Note_on_c, 0, 90, 103
1, 233087, Note_off_c, 0, 78, 70
1, 233090, Note_off_c, 0, 90, 68
1, 233096, Note_off_c, 0, 66, 65
1, 233198, Note_on_c, 0, 79, 104
1, 233200, Note_on_c, 0, 91, 109
1, 233202, Note_on_c, 0, 67, 91
1, 233229, Note_off_c, 0, 79, 70
1, 233229, Note_off_c, 0, 91, 66
1, 233237, Note_off_c, 0, 67, 67
1, 233357, Note_on_c, 0, 82, 115
1, 233360, Note_on_c, 0, 94, 113
1, 233363, Note_on_c, 0, 70, 99
1, 233383, Note_off_c, 0, 82, 70
1, 233386, Note_off_c, 0, 94, 65
1, 233410, Note_off_c, 0, 70, 65
1, 233580, Note_on_c, 0, 96, 107
1, 233584, Note_on_c, 0, 84, 103
1, 233586, Note_on_c, 0, 72, 99
1, 233608, Control_c, 0, 64, 60
1, 233623, Control_c, 0, 64, 87
1, 233624, Note_off_c, 0, 72, 71
1, 233625, Note_off_c, 0, 84, 72
1, 233627, Note_off_c, 0, 96, 68
1, 233637, Control_c, 0, 64, 127
1, 234047, Note_on_c, 0, 72, 93
1, 234048, Note_on_c, 0, 60, 97
1, 234048, Note_on_c, 0, 65, 91
1, 234055, Note_on_c, 0, 56, 86
1, 234056, Note_on_c, 0, 44, 87
1, 234057, Note_on_c, 0, 53, 86
1, 234060, Note_on_c, 0, 50, 84
1, 234114, Note_off_c, 0, 44, 65
1, 234114, Note_off_c, 0, 56, 67
1, 234117, Note_off_c, 0, 53, 67
1, 234122, Note_off_c, 0, 60, 65
1, 234123, Note_off_c, 0, 50, 64
1, 234138, Note_off_c, 0, 65, 70
1, 234141, Note_off_c, 0, 72, 68
1, 234758, Note_on_c, 0, 65, 85
1, 234759, Note_on_c, 0, 77, 93
1, 234760, Note_on_c, 0, 89, 86
1, 234778, Control_c, 0, 64, 85
1, 234791, Note_off_c, 0, 65, 65
1, 234793, Note_off_c, 0, 77, 64
1, 234793, Control_c, 0, 64, 0
1, 234803, Note_off_c, 0, 89, 66
1, 234902, Note_on_c, 0, 92, 95
1, 234903, Note_on_c, 0, 80, 94
1, 234907, Note_on_c, 0, 68, 81
1, 234917, Note_off_c, 0, 92, 72
1, 234925, Note_off_c, 0, 80, 63
1, 234928, Note_off_c, 0, 68, 70
1, 235070, Note_on_c, 0, 70, 99
1, 235078, Note_on_c, 0, 82, 97
1, 235079, Note_on_c, 0, 94, 97
1, 235096, Note_off_c, 0, 70, 71
1, 235104, Note_off_c, 0, 82, 70
1, 235106, Control_c, 0, 64, 85
1, 235109, Note_off_c, 0, 94, 66
1, 235121, Control_c, 0, 64, 127
1, 235438, Note_on_c, 0, 58, 91
1, 235440, Note_on_c, 0, 63, 97
1, 235440, Note_on_c, 0, 70, 90
1, 235444, Note_on_c, 0, 67, 90
1, 235446, Note_on_c, 0, 46, 82
1, 235446, Note_on_c, 0, 51, 87
1, 235446, Note_on_c, 0, 55, 90
1, 235449, Note_on_c, 0, 43, 80
1, 235487, Note_off_c, 0, 55, 66
1, 235497, Note_off_c, 0, 43, 62
1, 235498, Note_off_c, 0, 51, 65
1, 235506, Note_off_c, 0, 46, 62
1, 235507, Note_off_c, 0, 58, 67
1, 235525, Note_off_c, 0, 63, 68
1, 235526, Note_off_c, 0, 67, 64
1, 235526, Note_off_c, 0, 70, 65
1, 236072, Note_on_c, 0, 67, 85
1, 236072, Note_on_c, 0, 91, 93
1, 236075, Note_on_c, 0, 79, 96
1, 236084, Control_c, 0, 64, 119
1, 236099, Control_c, 0, 64, 82
1, 236109, Note_off_c, 0, 79, 65
1, 236110, Note_off_c, 0, 67, 63
1, 236114, Control_c, 0, 64, 0
1, 236120, Note_off_c, 0, 91, 63
1, 236216, Note_on_c, 0, 82, 101
1, 236218, Note_on_c, 0, 94, 98
1, 236218, Note_on_c, 0, 70, 82
1, 236253, Note_off_c, 0, 70, 65
1, 236254, Note_off_c, 0, 82, 63
1, 236257, Note_off_c, 0, 94, 62
1, 236404, Note_on_c, 0, 72, 102
1, 236406, Note_on_c, 0, 96, 104
1, 236406, Note_on_c, 0, 84, 106
1, 236425, Control_c, 0, 64, 63
1, 236434, Note_on_c, 0, 94, 58
1, 236436, Note_off_c, 0, 72, 71
1, 236439, Note_off_c, 0, 84, 73
1, 236439, Note_off_c, 0, 96, 70
1, 236439, Control_c, 0, 64, 102
1, 236454, Note_off_c, 0, 94, 60
1, 236454, Control_c, 0, 64, 127
1, 236825, Note_on_c, 0, 72, 97
1, 236826, Note_on_c, 0, 60, 101
1, 236829, Note_on_c, 0, 65, 95
1, 236829, Note_on_c, 0, 44, 83
1, 236831, Note_on_c, 0, 53, 84
1, 236831, Note_on_c, 0, 56, 85
1, 236835, Note_on_c, 0, 50, 85
1, 236876, Note_on_c, 0, 70, 43
1, 236901, Note_off_c, 0, 56, 66
1, 236903, Note_off_c, 0, 70, 52
1, 236905, Note_off_c, 0, 44, 64
1, 236908, Note_off_c, 0, 53, 67
1, 236912, Note_off_c, 0, 50, 64
1, 236912, Note_off_c, 0, 60, 64
1, 236938, Note_off_c, 0, 72, 68
1, 236940, Note_off_c, 0, 65, 69
1, 237437, Note_on_c, 0, 89, 90
1, 237440, Note_on_c, 0, 77, 90
1, 237440, Note_on_c, 0, 65, 82
1, 237441, Control_c, 0, 64, 115
1, 237456, Control_c, 0, 64, 80
1, 237470, Note_off_c, 0, 65, 68
1, 237471, Control_c, 0, 64, 0
1, 237473, Note_off_c, 0, 77, 65
1, 237486, Note_off_c, 0, 89, 66
1, 237598, Note_on_c, 0, 92, 92
1, 237602, Note_on_c, 0, 80, 88
1, 237604, Note_on_c, 0, 68, 80
1, 237626, Note_off_c, 0, 68, 67
1, 237632, Note_off_c, 0, 80, 57
1, 237637, Note_off_c, 0, 92, 55
1, 237765, Note_on_c, 0, 70, 94
1, 237771, Note_on_c, 0, 94, 102
1, 237772, Note_on_c, 0, 82, 96
1, 237774, Control_c, 0, 64, 34
1, 237789, Control_c, 0, 64, 88
1, 237790, Note_off_c, 0, 70, 67
1, 237795, Note_off_c, 0, 94, 65
1, 237796, Note_off_c, 0, 82, 66
1, 237804, Control_c, 0, 64, 127
1, 238176, Note_on_c, 0, 70, 99
1, 238177, Note_on_c, 0, 58, 99
1, 238179, Note_on_c, 0, 63, 95
1, 238181, Note_on_c, 0, 67, 89
1, 238183, Note_on_c, 0, 51, 87
1, 238183, Note_on_c, 0, 55, 85
1, 238185, Note_on_c, 0, 43, 85
1, 238185, Note_on_c, 0, 46, 80
1, 238224, Note_off_c, 0, 55, 66
1, 238234, Note_off_c, 0, 43, 63
1, 238235, Note_off_c, 0, 51, 65
1, 238236, Note_off_c, 0, 58, 66
1, 238244, Note_off_c, 0, 46, 62
1, 238255, Note_off_c, 0, 63, 67
1, 238256, Note_off_c, 0, 67, 64
1, 238257, Note_off_c, 0, 70, 67
1, 238827, Note_on_c, 0, 79, 89
1, 238833, Control_c, 0, 64, 95
1, 238848, Control_c, 0, 64, 62
1, 238856, Note_off_c, 0, 79, 63
1, 238863, Control_c, 0, 64, 0
1, 239002, Note_on_c, 0, 82, 85
1, 239059, Note_off_c, 0, 82, 64
1, 239174, Note_on_c, 0, 44, 70
1, 239174, Note_on_c, 0, 84, 77
1, 239202, Note_off_c, 0, 44, 66
1, 239213, Note_off_c, 0, 84, 60
1, 239301, Note_on_c, 0, 80, 78
1, 239313, Note_on_c, 0, 72, 63
1, 239333, Note_off_c, 0, 80, 60
1, 239338, Note_off_c, 0, 72, 66
1, 239342, Note_on_c, 0, 79, 49
1, 239364, Note_off_c, 0, 79, 53
1, 239438, Note_on_c, 0, 84, 81
1, 239441, Note_on_c, 0, 56, 60
1, 239444, Note_on_c, 0, 64, 58
1, 239447, Note_on_c, 0, 60, 60
1, 239543, Note_off_c, 0, 84, 62
1, 239575, Note_on_c, 0, 72, 63
1, 239578, Note_on_c, 0, 79, 55
1, 239597, Note_off_c, 0, 79, 59
1, 239604, Note_off_c, 0, 72, 68
1, 239642, Control_c, 0, 64, 64
1, 239656, Control_c, 0, 64, 75
1, 239671, Control_c, 0, 64, 91
1, 239672, Note_on_c, 0, 68, 82
1, 239683, Note_on_c, 0, 77, 86
1, 239686, Control_c, 0, 64, 110
1, 239692, Note_off_c, 0, 68, 72
1, 239695, Note_off_c, 0, 64, 64
1, 239696, Note_on_c, 0, 72, 73
1, 239700, Control_c, 0, 64, 127
1, 239709, Note_off_c, 0, 60, 61
1, 239721, Note_off_c, 0, 56, 65
1, 239729, Note_off_c, 0, 72, 60
1, 239757, Note_off_c, 0, 77, 61
1, 239799, Note_on_c, 0, 65, 76
1, 239825, Note_off_c, 0, 65, 70
1, 239932, Note_on_c, 0, 77, 78
1, 239953, Note_off_c, 0, 77, 69
1, 239961, Control_c, 0, 64, 101
1, 239976, Control_c, 0, 64, 72
1, 239991, Control_c, 0, 64, 0
1, 240030, Note_on_c, 0, 80, 75
1, 240070, Note_off_c, 0, 80, 57
1, 240140, Note_on_c, 0, 82, 82
1, 240144, Note_on_c, 0, 43, 56
1, 240174, Note_off_c, 0, 43, 53
1, 240189, Note_off_c, 0, 82, 62
1, 240240, Note_on_c, 0, 77, 76
1, 240243, Note_on_c, 0, 70, 70
1, 240272, Note_off_c, 0, 70, 61
1, 240290, Note_off_c, 0, 77, 59
1, 240356, Note_on_c, 0, 82, 81
1, 240361, Note_on_c, 0, 62, 67
1, 240365, Note_on_c, 0, 58, 56
1, 240368, Note_on_c, 0, 55, 56
1, 240460, Note_off_c, 0, 82, 63
1, 240466, Note_on_c, 0, 77, 63
1, 240480, Note_on_c, 0, 70, 63
1, 240485, Note_off_c, 0, 77, 63
1, 240509, Note_off_c, 0, 70, 66
1, 240575, Control_c, 0, 64, 60
1, 240579, Note_on_c, 0, 67, 76
1, 240590, Control_c, 0, 64, 81
1, 240597, Note_on_c, 0, 75, 79
1, 240601, Note_off_c, 0, 67, 70
1, 240606, Control_c, 0, 64, 99
1, 240609, Note_off_c, 0, 62, 62
1, 240611, Note_on_c, 0, 70, 64
1, 240618, Note_off_c, 0, 55, 64
1, 240621, Control_c, 0, 64, 117
1, 240627, Note_off_c, 0, 58, 64
1, 240635, Control_c, 0, 64, 127
1, 240662, Note_off_c, 0, 75, 59
1, 240706, Note_off_c, 0, 70, 61
1, 240708, Note_on_c, 0, 63, 73
1, 240728, Note_off_c, 0, 63, 66
1, 240825, Note_on_c, 0, 81, 81
1, 240844, Note_off_c, 0, 81, 71
1, 240857, Control_c, 0, 64, 97
1, 240872, Control_c, 0, 64, 68
1, 240887, Control_c, 0, 64, 0
1, 240941, Note_on_c, 0, 82, 65
1, 240958, Note_off_c, 0, 82, 65
1, 240963, Note_on_c, 0, 83, 49
1, 240986, Note_off_c, 0, 83, 38
1, 241043, Note_on_c, 0, 44, 67
1, 241050, Note_on_c, 0, 84, 86
1, 241070, Note_off_c, 0, 44, 63
1, 241098, Note_off_c, 0, 84, 63
1, 241155, Note_on_c, 0, 79, 81
1, 241161, Note_on_c, 0, 72, 65
1, 241182, Note_off_c, 0, 72, 66
1, 241187, Note_off_c, 0, 79, 59
1, 241274, Note_on_c, 0, 64, 68
1, 241274, Note_on_c, 0, 56, 70
1, 241276, Note_on_c, 0, 84, 87
1, 241282, Note_on_c, 0, 60, 68
1, 241354, Note_off_c, 0, 84, 61
1, 241366, Note_on_c, 0, 79, 83
1, 241379, Note_on_c, 0, 72, 71
1, 241389, Note_off_c, 0, 79, 66
1, 241407, Note_off_c, 0, 72, 69
1, 241491, Note_on_c, 0, 68, 76
1, 241496, Note_on_c, 0, 77, 94
1, 241501, Note_off_c, 0, 64, 65
1, 241503, Control_c, 0, 64, 82
1, 241506, Note_on_c, 0, 72, 82
1, 241513, Note_off_c, 0, 68, 69
1, 241518, Note_off_c, 0, 60, 61
1, 241518, Control_c, 0, 64, 108
1, 241528, Note_off_c, 0, 56, 66
1, 241531, Note_off_c, 0, 72, 64
1, 241533, Control_c, 0, 64, 127
1, 241575, Note_off_c, 0, 77, 60
1, 241601, Note_on_c, 0, 65, 76
1, 241625, Note_off_c, 0, 65, 72
1, 241713, Note_on_c, 0, 77, 86
1, 241745, Note_off_c, 0, 77, 60
1, 241755, Control_c, 0, 64, 109
1, 241769, Control_c, 0, 64, 78
1, 241784, Control_c, 0, 64, 0
1, 241817, Note_on_c, 0, 80, 77
1, 241846, Note_off_c, 0, 80, 60
1, 241921, Note_on_c, 0, 43, 77
1, 241934, Note_on_c, 0, 81, 75
1, 241945, Note_off_c, 0, 43, 65
1, 241967, Note_off_c, 0, 81, 56
1, 242032, Note_on_c, 0, 70, 72
1, 242032, Note_on_c, 0, 77, 72
1, 242062, Note_off_c, 0, 70, 61
1, 242083, Note_off_c, 0, 77, 61
1, 242143, Note_on_c, 0, 82, 81
1, 242144, Note_on_c, 0, 62, 71
1, 242147, Note_on_c, 0, 58, 64
1, 242153, Note_on_c, 0, 55, 63
1, 242233, Note_off_c, 0, 82, 64
1, 242246, Note_on_c, 0, 77, 47
1, 242265, Note_on_c, 0, 70, 67
1, 242269, Note_off_c, 0, 77, 48
1, 242292, Note_off_c, 0, 70, 66
1, 242350, Note_on_c, 0, 67, 77
1, 242365, Note_off_c, 0, 62, 63
1, 242371, Control_c, 0, 64, 69
1, 242374, Note_off_c, 0, 67, 69
1, 242379, Note_on_c, 0, 75, 78
1, 242383, Note_off_c, 0, 58, 65
1, 242386, Control_c, 0, 64, 92
1, 242387, Note_off_c, 0, 55, 66
1, 242400, Note_on_c, 0, 70, 45
1, 242400, Control_c, 0, 64, 122
1, 242415, Control_c, 0, 64, 127
1, 242440, Note_off_c, 0, 70, 47
1, 242460, Note_off_c, 0, 75, 44
1, 242492, Note_on_c, 0, 63, 66
1, 242510, Note_off_c, 0, 63, 65
1, 242606, Note_on_c, 0, 31, 79
1, 242606, Note_on_c, 0, 43, 80
1, 242630, Note_off_c, 0, 43, 65
1, 242631, Note_off_c, 0, 31, 66
1, 242652, Control_c, 0, 64, 92
1, 242666, Control_c, 0, 64, 60
1, 242681, Control_c, 0, 64, 0
1, 242712, Note_on_c, 0, 46, 91
1, 242719, Note_on_c, 0, 34, 72
1, 242736, Note_off_c, 0, 46, 68
1, 242741, Note_off_c, 0, 34, 63
1, 242860, Note_on_c, 0, 48, 96
1, 242871, Note_on_c, 0, 36, 79
1, 242878, Note_on_c, 0, 68, 81
1, 242879, Note_on_c, 0, 63, 78
1, 242884, Note_off_c, 0, 48, 72
1, 242894, Note_off_c, 0, 36, 68
1, 242896, Control_c, 0, 64, 67
1, 242911, Control_c, 0, 64, 88
1, 242921, Note_off_c, 0, 63, 60
1, 242925, Control_c, 0, 64, 112
1, 242937, Note_off_c, 0, 68, 62
1, 242940, Control_c, 0, 64, 118
1, 242955, Control_c, 0, 64, 120
1, 242970, Control_c, 0, 64, 124
1, 242985, Control_c, 0, 64, 127
1, 243089, Control_c, 0, 64, 116
1, 243104, Control_c, 0, 64, 87
1, 243119, Control_c, 0, 64, 0
1, 243131, Note_on_c, 0, 48, 93
1, 243137, Note_on_c, 0, 36, 82
1, 243141, Note_on_c, 0, 75, 61
1, 243143, Note_on_c, 0, 68, 75
1, 243149, Note_on_c, 0, 63, 64
1, 243169, Note_off_c, 0, 48, 69
1, 243171, Note_off_c, 0, 36, 69
1, 243173, Note_off_c, 0, 75, 67
1, 243179, Control_c, 0, 64, 63
1, 243190, Note_off_c, 0, 68, 63
1, 243194, Control_c, 0, 64, 76
1, 243209, Control_c, 0, 64, 93
1, 243223, Control_c, 0, 64, 107
1, 243238, Control_c, 0, 64, 113
1, 243253, Control_c, 0, 64, 115
1, 243265, Note_off_c, 0, 63, 37
1, 243268, Control_c, 0, 64, 117
1, 243283, Control_c, 0, 64, 120
1, 243298, Control_c, 0, 64, 122
1, 243313, Control_c, 0, 64, 123
1, 243342, Control_c, 0, 64, 116
1, 243357, Control_c, 0, 64, 93
1, 243362, Note_on_c, 0, 48, 92
1, 243364, Note_on_c, 0, 36, 86
1, 243367, Note_on_c, 0, 68, 81
1, 243368, Note_on_c, 0, 63, 80
1, 243372, Control_c, 0, 64, 64
1, 243387, Control_c, 0, 64, 0
1, 243397, Note_off_c, 0, 36, 68
1, 243399, Note_off_c, 0, 48, 69
1, 243431, Control_c, 0, 64, 16
1, 243446, Control_c, 0, 64, 68
1, 243461, Control_c, 0, 64, 79
1, 243475, Control_c, 0, 64, 91
1, 243483, Note_off_c, 0, 63, 55
1, 243483, Note_off_c, 0, 68, 47
1, 243490, Control_c, 0, 64, 99
1, 243505, Control_c, 0, 64, 101
1, 243512, Note_on_c, 0, 65, 61
1, 243527, Control_c, 0, 64, 102
1, 243542, Control_c, 0, 64, 102
1, 243572, Control_c, 0, 64, 102
1, 243578, Note_off_c, 0, 65, 60
1, 243587, Control_c, 0, 64, 97
1, 243597, Note_on_c, 0, 31, 85
1, 243597, Note_on_c, 0, 43, 85
1, 243602, Control_c, 0, 64, 79
1, 243611, Note_on_c, 0, 70, 52
1, 243617, Control_c, 0, 64, 0
1, 243624, Note_off_c, 0, 43, 67
1, 243629, Note_off_c, 0, 31, 67
1, 243638, Note_on_c, 0, 72, 66
1, 243640, Note_on_c, 0, 63, 59
1, 243647, Note_off_c, 0, 70, 53
1, 243663, Note_off_c, 0, 63, 60
1, 243673, Note_off_c, 0, 72, 59
1, 243716, Note_on_c, 0, 44, 93
1, 243724, Note_on_c, 0, 32, 79
1, 243744, Note_off_c, 0, 44, 69
1, 243747, Note_off_c, 0, 32, 65
1, 243751, Note_on_c, 0, 63, 58
1, 243790, Note_off_c, 0, 63, 63
1, 243852, Note_on_c, 0, 46, 100
1, 243859, Note_on_c, 0, 34, 85
1, 243869, Note_on_c, 0, 63, 66
1, 243869, Control_c, 0, 64, 35
1, 243870, Note_on_c, 0, 67, 60
1, 243883, Note_off_c, 0, 46, 65
1, 243884, Control_c, 0, 64, 84
1, 243888, Note_off_c, 0, 63, 66
1, 243889, Note_off_c, 0, 34, 70
1, 243898, Control_c, 0, 64, 98
1, 243903, Note_off_c, 0, 67, 65
1, 243913, Control_c, 0, 64, 105
1, 243929, Control_c, 0, 64, 106
1, 243944, Control_c, 0, 64, 107
1, 243959, Control_c, 0, 64, 110
1, 243973, Control_c, 0, 64, 113
1, 243988, Control_c, 0, 64, 117
1, 244003, Control_c, 0, 64, 120
1, 244018, Control_c, 0, 64, 121
1, 244047, Control_c, 0, 64, 122
1, 244077, Control_c, 0, 64, 121
1, 244091, Control_c, 0, 64, 111
1, 244106, Control_c, 0, 64, 93
1, 244115, Note_on_c, 0, 75, 82
1, 244121, Note_on_c, 0, 67, 83
1, 244121, Control_c, 0, 64, 70
1, 244122, Note_on_c, 0, 46, 97
1, 244127, Note_on_c, 0, 34, 81
1, 244136, Control_c, 0, 64, 0
1, 244157, Note_off_c, 0, 67, 66
1, 244159, Note_off_c, 0, 75, 62
1, 244168, Note_off_c, 0, 34, 66
1, 244169, Note_off_c, 0, 46, 64
1, 244180, Control_c, 0, 64, 62
1, 244195, Control_c, 0, 64, 73
1, 244210, Control_c, 0, 64, 85
1, 244225, Control_c, 0, 64, 95
1, 244240, Control_c, 0, 64, 100
1, 244255, Control_c, 0, 64, 102
1, 244277, Control_c, 0, 64, 103
1, 244292, Control_c, 0, 64, 104
1, 244306, Control_c, 0, 64, 105
1, 244336, Control_c, 0, 64, 103
1, 244351, Control_c, 0, 64, 89
1, 244366, Control_c, 0, 64, 33
1, 244370, Note_on_c, 0, 63, 92
1, 244372, Note_on_c, 0, 46, 85
1, 244372, Note_on_c, 0, 67, 86
1, 244379, Note_on_c, 0, 34, 81
1, 244380, Control_c, 0, 64, 0
1, 244408, Note_off_c, 0, 34, 71
1, 244413, Note_off_c, 0, 46, 63
1, 244440, Control_c, 0, 64, 23
1, 244454, Control_c, 0, 64, 70
1, 244469, Control_c, 0, 64, 84
1, 244484, Control_c, 0, 64, 94
1, 244499, Control_c, 0, 64, 100
1, 244514, Control_c, 0, 64, 102
1, 244529, Control_c, 0, 64, 103
1, 244538, Note_on_c, 0, 62, 68
1, 244544, Control_c, 0, 64, 104
1, 244546, Note_off_c, 0, 63, 62
1, 244559, Control_c, 0, 64, 105
1, 244567, Note_off_c, 0, 67, 59
1, 244569, Note_off_c, 0, 62, 64
1, 244573, Control_c, 0, 64, 104
1, 244588, Control_c, 0, 64, 100
1, 244604, Control_c, 0, 64, 84
1, 244618, Control_c, 0, 64, 35
1, 244633, Control_c, 0, 64, 0
1, 244635, Note_on_c, 0, 51, 71
1, 244639, Note_on_c, 0, 39, 67
1, 244642, Note_on_c, 0, 67, 88
1, 244652, Note_on_c, 0, 60, 71
1, 244663, Note_off_c, 0, 51, 64
1, 244666, Note_off_c, 0, 39, 64
1, 244675, Note_off_c, 0, 60, 68
1, 244679, Note_off_c, 0, 67, 63
1, 244745, Note_on_c, 0, 67, 87
1, 244746, Note_on_c, 0, 50, 83
1, 244750, Note_on_c, 0, 38, 77
1, 244762, Note_on_c, 0, 60, 56
1, 244772, Note_off_c, 0, 50, 68
1, 244777, Note_off_c, 0, 67, 64
1, 244780, Note_off_c, 0, 38, 63
1, 244785, Note_off_c, 0, 60, 40
1, 244881, Note_on_c, 0, 48, 92
1, 244883, Note_on_c, 0, 63, 88
1, 244886, Note_on_c, 0, 36, 85
1, 244886, Note_on_c, 0, 68, 87
1, 244899, Control_c, 0, 64, 74
1, 244905, Note_off_c, 0, 48, 69
1, 244910, Note_off_c, 0, 36, 66
1, 244914, Note_off_c, 0, 63, 61
1, 244914, Control_c, 0, 64, 92
1, 244928, Control_c, 0, 64, 109
1, 244933, Note_off_c, 0, 68, 62
1, 244943, Control_c, 0, 64, 111
1, 244958, Control_c, 0, 64, 111
1, 244973, Control_c, 0, 64, 112
1, 244988, Control_c, 0, 64, 113
1, 245003, Control_c, 0, 64, 116
1, 245025, Control_c, 0, 64, 119
1, 245040, Control_c, 0, 64, 120
1, 245055, Control_c, 0, 64, 121
1, 245099, Control_c, 0, 64, 120
1, 245114, Control_c, 0, 64, 118
1, 245128, Control_c, 0, 64, 98
1, 245143, Control_c, 0, 64, 73
1, 245158, Note_on_c, 0, 63, 88
1, 245158, Note_on_c, 0, 68, 89
1, 245158, Control_c, 0, 64, 0
1, 245161, Note_on_c, 0, 48, 94
1, 245164, Note_on_c, 0, 75, 73
1, 245165, Note_on_c, 0, 36, 84
1, 245203, Note_off_c, 0, 75, 61
1, 245213, Note_off_c, 0, 48, 65
1, 245218, Control_c, 0, 64, 67
1, 245222, Note_off_c, 0, 36, 64
1, 245233, Control_c, 0, 64, 82
1, 245247, Control_c, 0, 64, 98
1, 245262, Control_c, 0, 64, 113
1, 245277, Control_c, 0, 64, 121
1, 245288, Note_off_c, 0, 63, 62
1, 245292, Control_c, 0, 64, 125
1, 245307, Control_c, 0, 64, 127
1, 245323, Note_off_c, 0, 68, 60
1, 245381, Control_c, 0, 64, 109
1, 245385, Poly_aftertouch_c, 0, 70, 0
1, 245393, Note_on_c, 0, 48, 88
1, 245396, Note_on_c, 0, 36, 85
1, 245396, Control_c, 0, 64, 86
1, 245405, Note_on_c, 0, 63, 87
1, 245408, Note_on_c, 0, 68, 96
1, 245411, Poly_aftertouch_c, 0, 70, 0
1, 245411, Control_c, 0, 64, 48
1, 245426, Control_c, 0, 64, 0
1, 245431, Note_off_c, 0, 48, 68
1, 245436, Note_off_c, 0, 36, 63
1, 245471, Control_c, 0, 64, 63
1, 245486, Control_c, 0, 64, 76
1, 245500, Control_c, 0, 64, 89
1, 245515, Control_c, 0, 64, 103
1, 245530, Control_c, 0, 64, 108
1, 245544, Control_c, 0, 64, 110
1, 245559, Control_c, 0, 64, 112
1, 245560, Note_on_c, 0, 65, 67
1, 245561, Note_off_c, 0, 63, 60
1, 245574, Control_c, 0, 64, 113
1, 245582, Note_off_c, 0, 68, 52
1, 245589, Control_c, 0, 64, 113
1, 245646, Note_on_c, 0, 31, 84
1, 245646, Note_on_c, 0, 43, 88
1, 245649, Note_on_c, 0, 70, 76
1, 245650, Note_off_c, 0, 65, 58
1, 245662, Control_c, 0, 64, 104
1, 245665, Note_on_c, 0, 63, 74
1, 245677, Control_c, 0, 64, 87
1, 245678, Note_off_c, 0, 43, 64
1, 245683, Note_off_c, 0, 31, 65
1, 245689, Note_off_c, 0, 63, 64
1, 245692, Control_c, 0, 64, 65
1, 245707, Control_c, 0, 64, 0
1, 245721, Note_off_c, 0, 70, 62
1, 245776, Note_on_c, 0, 44, 91
1, 245779, Note_on_c, 0, 72, 77
1, 245784, Note_on_c, 0, 32, 75
1, 245793, Note_on_c, 0, 63, 67
1, 245803, Note_off_c, 0, 44, 71
1, 245814, Note_off_c, 0, 32, 64
1, 245820, Note_off_c, 0, 63, 67
1, 245833, Note_off_c, 0, 72, 61
1, 245909, Note_on_c, 0, 63, 85
1, 245909, Note_on_c, 0, 46, 99
1, 245913, Note_on_c, 0, 67, 86
1, 245915, Note_on_c, 0, 34, 84
1, 245937, Control_c, 0, 64, 65
1, 245941, Note_off_c, 0, 46, 63
1, 245944, Note_off_c, 0, 34, 69
1, 245950, Note_off_c, 0, 63, 63
1, 245951, Control_c, 0, 64, 85
1, 245962, Note_off_c, 0, 67, 62
1, 245966, Control_c, 0, 64, 103
1, 245981, Control_c, 0, 64, 112
1, 245996, Control_c, 0, 64, 113
1, 246011, Control_c, 0, 64, 115
1, 246025, Control_c, 0, 64, 121
1, 246040, Control_c, 0, 64, 127
1, 246144, Control_c, 0, 64, 123
1, 246159, Control_c, 0, 64, 97
1, 246171, Note_on_c, 0, 75, 85
1, 246174, Control_c, 0, 64, 71
1, 246175, Note_on_c, 0, 67, 88
1, 246179, Note_on_c, 0, 46, 95
1, 246189, Note_on_c, 0, 34, 83
1, 246189, Control_c, 0, 64, 0
1, 246219, Note_off_c, 0, 67, 66
1, 246219, Control_c, 0, 64, 20
1, 246221, Note_off_c, 0, 75, 66
1, 246228, Note_off_c, 0, 46, 65
1, 246229, Note_off_c, 0, 34, 67
1, 246234, Control_c, 0, 64, 70
1, 246249, Control_c, 0, 64, 84
1, 246264, Control_c, 0, 64, 102
1, 246279, Control_c, 0, 64, 119
1, 246293, Control_c, 0, 64, 122
1, 246308, Control_c, 0, 64, 127
1, 246323, Control_c, 0, 64, 127
1, 246412, Control_c, 0, 64, 116
1, 246427, Control_c, 0, 64, 89
1, 246433, Note_on_c, 0, 46, 86
1, 246433, Note_on_c, 0, 63, 98
1, 246438, Note_on_c, 0, 67, 95
1, 246440, Note_on_c, 0, 34, 84
1, 246441, Control_c, 0, 64, 52
1, 246456, Control_c, 0, 64, 0
1, 246485, Note_off_c, 0, 46, 64
1, 246488, Note_off_c, 0, 34, 64
1, 246500, Control_c, 0, 64, 61
1, 246523, Control_c, 0, 64, 73
1, 246538, Control_c, 0, 64, 85
1, 246553, Control_c, 0, 64, 96
1, 246567, Control_c, 0, 64, 102
1, 246582, Control_c, 0, 64, 103
1, 246597, Control_c, 0, 64, 104
1, 246598, Note_on_c, 0, 62, 68
1, 246612, Control_c, 0, 64, 105
1, 246625, Note_off_c, 0, 63, 61
1, 246627, Control_c, 0, 64, 106
1, 246640, Note_off_c, 0, 67, 60
1, 246641, Control_c, 0, 64, 106
1, 246642, Note_off_c, 0, 62, 60
1, 246671, Control_c, 0, 64, 106
1, 246686, Control_c, 0, 64, 93
1, 246700, Control_c, 0, 64, 68
1, 246708, Note_on_c, 0, 51, 93
1, 246709, Note_on_c, 0, 60, 88
1, 246714, Note_on_c, 0, 67, 88
1, 246715, Control_c, 0, 64, 0
1, 246719, Note_on_c, 0, 39, 77
1, 246746, Note_off_c, 0, 39, 65
1, 246756, Note_off_c, 0, 60, 63
1, 246760, Note_off_c, 0, 51, 61
1, 246793, Note_off_c, 0, 67, 58
1, 246865, Note_on_c, 0, 69, 96
1, 246867, Note_on_c, 0, 50, 91
1, 246872, Note_on_c, 0, 60, 79
1, 246893, Note_on_c, 0, 67, 56
1, 246906, Note_off_c, 0, 60, 63
1, 246917, Note_off_c, 0, 69, 66
1, 246918, Note_off_c, 0, 67, 56
1, 246920, Note_off_c, 0, 50, 64
1, 247012, Note_on_c, 0, 38, 80
1, 247142, Note_on_c, 0, 50, 75
1, 247168, Note_on_c, 0, 58, 58
1, 247176, Control_c, 0, 64, 68
1, 247190, Control_c, 0, 64, 79
1, 247205, Control_c, 0, 64, 87
1, 247220, Control_c, 0, 64, 89
1, 247227, Note_off_c, 0, 38, 58
1, 247235, Control_c, 0, 64, 91
1, 247244, Note_on_c, 0, 70, 59
1, 247244, Note_off_c, 0, 58, 54
1, 247250, Control_c, 0, 64, 93
1, 247271, Control_c, 0, 64, 98
1, 247286, Control_c, 0, 64, 104
1, 247301, Control_c, 0, 64, 108
1, 247316, Control_c, 0, 64, 110
1, 247331, Control_c, 0, 64, 111
1, 247342, Note_off_c, 0, 70, 62
1, 247357, Note_on_c, 0, 62, 54
1, 247403, Note_off_c, 0, 62, 57
1, 247423, Note_on_c, 0, 67, 66
1, 247472, Note_off_c, 0, 67, 61
1, 247507, Note_on_c, 0, 60, 77
1, 247513, Note_on_c, 0, 51, 72
1, 247523, Control_c, 0, 64, 107
1, 247538, Control_c, 0, 64, 98
1, 247553, Control_c, 0, 64, 87
1, 247568, Control_c, 0, 64, 74
1, 247570, Note_off_c, 0, 60, 58
1, 247581, Note_off_c, 0, 50, 53
1, 247583, Control_c, 0, 64, 60
1, 247597, Control_c, 0, 64, 0
1, 247606, Note_on_c, 0, 72, 60
1, 247612, Control_c, 0, 64, 57
1, 247627, Control_c, 0, 64, 68
1, 247641, Control_c, 0, 64, 76
1, 247648, Note_on_c, 0, 67, 68
1, 247649, Note_off_c, 0, 72, 63
1, 247656, Control_c, 0, 64, 83
1, 247672, Control_c, 0, 64, 86
1, 247687, Control_c, 0, 64, 86
1, 247724, Note_off_c, 0, 67, 60
1, 247729, Note_on_c, 0, 70, 71
1, 247761, Control_c, 0, 64, 84
1, 247776, Control_c, 0, 64, 77
1, 247792, Control_c, 0, 64, 62
1, 247805, Note_off_c, 0, 70, 54
1, 247807, Control_c, 0, 64, 0
1, 247809, Note_on_c, 0, 61, 72
1, 247815, Note_on_c, 0, 52, 80
1, 247846, Note_off_c, 0, 51, 62
1, 247851, Control_c, 0, 64, 62
1, 247856, Note_off_c, 0, 61, 57
1, 247866, Control_c, 0, 64, 71
1, 247881, Control_c, 0, 64, 79
1, 247887, Note_on_c, 0, 68, 70
1, 247895, Control_c, 0, 64, 86
1, 247910, Control_c, 0, 64, 89
1, 247925, Control_c, 0, 64, 91
1, 247939, Control_c, 0, 64, 92
1, 247949, Note_on_c, 0, 74, 36
1, 247954, Control_c, 0, 64, 93
1, 247963, Note_off_c, 0, 52, 63
1, 247969, Control_c, 0, 64, 93
1, 247987, Note_off_c, 0, 74, 47
1, 247990, Note_on_c, 0, 54, 81
1, 247994, Note_off_c, 0, 68, 25
1, 247999, Control_c, 0, 64, 94
1, 248021, Control_c, 0, 64, 93
1, 248036, Control_c, 0, 64, 92
1, 248041, Note_on_c, 0, 62, 44
1, 248051, Control_c, 0, 64, 85
1, 248055, Note_on_c, 0, 64, 47
1, 248065, Control_c, 0, 64, 72
1, 248068, Note_off_c, 0, 62, 54
1, 248076, Note_off_c, 0, 54, 59
1, 248077, Note_off_c, 0, 64, 55
1, 248080, Control_c, 0, 64, 0
1, 248088, Note_on_c, 0, 55, 86
1, 248098, Note_on_c, 0, 76, 78
1, 248114, Note_on_c, 0, 71, 62
1, 248125, Control_c, 0, 64, 56
1, 248139, Control_c, 0, 64, 70
1, 248154, Control_c, 0, 64, 80
1, 248164, Note_off_c, 0, 76, 67
1, 248169, Control_c, 0, 64, 89
1, 248170, Note_off_c, 0, 71, 58
1, 248184, Control_c, 0, 64, 93
1, 248190, Note_off_c, 0, 55, 60
1, 248199, Control_c, 0, 64, 97
1, 248206, Note_on_c, 0, 66, 79
1, 248213, Control_c, 0, 64, 99
1, 248224, Note_on_c, 0, 57, 80
1, 248228, Control_c, 0, 64, 103
1, 248243, Control_c, 0, 64, 109
1, 248258, Control_c, 0, 64, 117
1, 248273, Control_c, 0, 64, 125
1, 248274, Note_off_c, 0, 66, 63
1, 248286, Note_on_c, 0, 78, 72
1, 248288, Control_c, 0, 64, 127
1, 248290, Note_off_c, 0, 57, 62
1, 248351, Note_off_c, 0, 78, 62
1, 248376, Note_on_c, 0, 67, 78
1, 248377, Control_c, 0, 64, 126
1, 248392, Control_c, 0, 64, 108
1, 248397, Note_on_c, 0, 58, 79
1, 248398, Note_on_c, 0, 50, 65
1, 248400, Note_on_c, 0, 55, 78
1, 248407, Control_c, 0, 64, 91
1, 248420, Control_c, 0, 64, 71
1, 248435, Control_c, 0, 64, 0
1, 248449, Note_off_c, 0, 67, 56
1, 248476, Note_on_c, 0, 79, 61
1, 248494, Control_c, 0, 64, 52
1, 248509, Control_c, 0, 64, 69
1, 248521, Note_on_c, 0, 70, 74
1, 248524, Control_c, 0, 64, 78
1, 248533, Note_off_c, 0, 79, 61
1, 248538, Control_c, 0, 64, 86
1, 248553, Control_c, 0, 64, 93
1, 248568, Control_c, 0, 64, 97
1, 248584, Control_c, 0, 64, 99
1, 248595, Note_off_c, 0, 70, 61
1, 248599, Control_c, 0, 64, 100
1, 248601, Note_on_c, 0, 74, 70
1, 248614, Control_c, 0, 64, 101
1, 248632, Note_off_c, 0, 74, 62
1, 248658, Control_c, 0, 64, 100
1, 248673, Control_c, 0, 64, 92
1, 248679, Note_on_c, 0, 60, 96
1, 248679, Note_on_c, 0, 69, 77
1, 248687, Control_c, 0, 64, 81
1, 248702, Control_c, 0, 64, 68
1, 248710, Note_off_c, 0, 55, 58
1, 248715, Note_off_c, 0, 58, 64
1, 248717, Control_c, 0, 64, 51
1, 248732, Control_c, 0, 64, 59
1, 248747, Control_c, 0, 64, 67
1, 248748, Note_off_c, 0, 69, 62
1, 248752, Note_on_c, 0, 81, 75
1, 248769, Control_c, 0, 64, 76
1, 248784, Control_c, 0, 64, 85
1, 248799, Control_c, 0, 64, 91
1, 248814, Control_c, 0, 64, 94
1, 248829, Control_c, 0, 64, 96
1, 248831, Note_on_c, 0, 75, 61
1, 248843, Control_c, 0, 64, 97
1, 248848, Note_off_c, 0, 81, 59
1, 248858, Control_c, 0, 64, 98
1, 248863, Note_off_c, 0, 50, 57
1, 248873, Note_off_c, 0, 60, 64
1, 248873, Control_c, 0, 64, 99
1, 248885, Note_on_c, 0, 79, 63
1, 248887, Control_c, 0, 64, 101
1, 248902, Control_c, 0, 64, 102
1, 248908, Note_off_c, 0, 75, 60
1, 248917, Control_c, 0, 64, 103
1, 248932, Control_c, 0, 64, 104
1, 248947, Control_c, 0, 64, 105
1, 248952, Note_off_c, 0, 79, 62
1, 248959, Note_on_c, 0, 62, 98
1, 248962, Control_c, 0, 64, 107
1, 248968, Note_on_c, 0, 70, 89
1, 248977, Control_c, 0, 64, 109
1, 248991, Note_on_c, 0, 82, 42
1, 248991, Control_c, 0, 64, 111
1, 249006, Control_c, 0, 64, 113
1, 249015, Note_off_c, 0, 82, 59
1, 249021, Control_c, 0, 64, 113
1, 249036, Control_c, 0, 64, 114
1, 249051, Control_c, 0, 64, 116
1, 249053, Note_off_c, 0, 70, 61
1, 249066, Control_c, 0, 64, 119
1, 249066, Note_on_c, 0, 74, 62
1, 249081, Control_c, 0, 64, 122
1, 249095, Control_c, 0, 64, 125
1, 249096, Note_on_c, 0, 79, 66
1, 249096, Note_off_c, 0, 74, 64
1, 249110, Control_c, 0, 64, 127
1, 249126, Note_off_c, 0, 62, 58
1, 249135, Note_off_c, 0, 79, 60
1, 249141, Note_on_c, 0, 64, 81
1, 249172, Note_on_c, 0, 72, 77
1, 249195, Note_on_c, 0, 74, 59
1, 249218, Note_off_c, 0, 74, 58
1, 249224, Note_off_c, 0, 72, 66
1, 249234, Note_on_c, 0, 66, 87
1, 249236, Note_off_c, 0, 64, 66
1, 249264, Note_on_c, 0, 81, 74
1, 249264, Note_on_c, 0, 86, 62
1, 249304, Note_off_c, 0, 86, 60
1, 249313, Note_off_c, 0, 81, 59
1, 249340, Note_on_c, 0, 67, 91
1, 249346, Note_off_c, 0, 66, 68
1, 249347, Note_on_c, 0, 75, 86
1, 249364, Note_off_c, 0, 67, 66
1, 249412, Note_off_c, 0, 75, 61
1, 249420, Note_on_c, 0, 82, 82
1, 249437, Note_on_c, 0, 87, 59
1, 249439, Note_off_c, 0, 82, 69
1, 249456, Note_off_c, 0, 87, 58
1, 249532, Note_on_c, 0, 38, 69
1, 249563, Control_c, 0, 64, 103
1, 249578, Control_c, 0, 64, 82
1, 249592, Control_c, 0, 64, 54
1, 249607, Control_c, 0, 64, 0
1, 249610, Note_on_c, 0, 50, 67
1, 249620, Note_on_c, 0, 48, 57
1, 249649, Note_off_c, 0, 48, 56
1, 249710, Note_on_c, 0, 70, 66
1, 249725, Control_c, 0, 64, 62
1, 249740, Control_c, 0, 64, 72
1, 249755, Control_c, 0, 64, 82
1, 249769, Note_off_c, 0, 38, 63
1, 249770, Control_c, 0, 64, 90
1, 249784, Control_c, 0, 64, 94
1, 249792, Note_on_c, 0, 58, 75
1, 249798, Note_off_c, 0, 70, 62
1, 249799, Control_c, 0, 64, 95
1, 249814, Control_c, 0, 64, 97
1, 249829, Control_c, 0, 64, 99
1, 249844, Control_c, 0, 64, 100
1, 249847, Note_off_c, 0, 58, 63
1, 249859, Control_c, 0, 64, 101
1, 249859, Note_on_c, 0, 67, 69
1, 249874, Control_c, 0, 64, 101
1, 249889, Control_c, 0, 64, 102
1, 249906, Note_off_c, 0, 67, 62
1, 249918, Control_c, 0, 64, 101
1, 249919, Note_on_c, 0, 51, 73
1, 249933, Control_c, 0, 64, 98
1, 249943, Note_on_c, 0, 60, 79
1, 249943, Note_off_c, 0, 50, 52
1, 249948, Control_c, 0, 64, 90
1, 249963, Control_c, 0, 64, 79
1, 249978, Control_c, 0, 64, 66
1, 249992, Control_c, 0, 64, 52
1, 250003, Note_off_c, 0, 60, 59
1, 250007, Control_c, 0, 64, 63
1, 250022, Control_c, 0, 64, 68
1, 250025, Note_on_c, 0, 72, 78
1, 250036, Control_c, 0, 64, 75
1, 250051, Control_c, 0, 64, 82
1, 250061, Note_on_c, 0, 67, 73
1, 250066, Control_c, 0, 64, 86
1, 250081, Control_c, 0, 64, 87
1, 250085, Note_off_c, 0, 72, 64
1, 250096, Control_c, 0, 64, 88
1, 250138, Note_on_c, 0, 70, 81
1, 250145, Note_off_c, 0, 67, 63
1, 250155, Control_c, 0, 64, 86
1, 250170, Control_c, 0, 64, 80
1, 250186, Control_c, 0, 64, 67
1, 250193, Note_off_c, 0, 70, 66
1, 250200, Note_on_c, 0, 52, 82
1, 250201, Control_c, 0, 64, 0
1, 250214, Note_on_c, 0, 61, 83
1, 250230, Note_off_c, 0, 51, 62
1, 250245, Control_c, 0, 64, 65
1, 250267, Control_c, 0, 64, 74
1, 250282, Control_c, 0, 64, 84
1, 250295, Note_off_c, 0, 61, 59
1, 250297, Control_c, 0, 64, 92
1, 250312, Control_c, 0, 64, 95
1, 250314, Note_on_c, 0, 73, 61
1, 250327, Control_c, 0, 64, 96
1, 250333, Note_on_c, 0, 67, 56
1, 250341, Control_c, 0, 64, 98
1, 250356, Control_c, 0, 64, 99
1, 250371, Control_c, 0, 64, 101
1, 250372, Note_on_c, 0, 74, 29
1, 250372, Note_off_c, 0, 67, 64
1, 250386, Control_c, 0, 64, 103
1, 250386, Note_on_c, 0, 69, 60
1, 250391, Note_off_c, 0, 52, 64
1, 250396, Note_on_c, 0, 54, 79
1, 250401, Control_c, 0, 64, 103
1, 250404, Note_off_c, 0, 74, 55
1, 250407, Note_off_c, 0, 69, 66
1, 250413, Note_off_c, 0, 73, 25
1, 250430, Control_c, 0, 64, 103
1, 250433, Note_on_c, 0, 64, 76
1, 250445, Control_c, 0, 64, 98
1, 250459, Control_c, 0, 64, 88
1, 250474, Control_c, 0, 64, 74
1, 250479, Note_on_c, 0, 55, 90
1, 250484, Note_off_c, 0, 64, 65
1, 250489, Control_c, 0, 64, 35
1, 250497, Note_off_c, 0, 54, 57
1, 250497, Note_on_c, 0, 76, 88
1, 250504, Control_c, 0, 64, 0
1, 250524, Note_on_c, 0, 71, 68
1, 250533, Control_c, 0, 64, 65
1, 250548, Control_c, 0, 64, 76
1, 250559, Note_off_c, 0, 76, 67
1, 250563, Control_c, 0, 64, 88
1, 250564, Note_off_c, 0, 71, 57
1, 250578, Control_c, 0, 64, 98
1, 250593, Control_c, 0, 64, 102
1, 250607, Note_on_c, 0, 57, 86
1, 250607, Note_on_c, 0, 66, 82
1, 250608, Control_c, 0, 64, 104
1, 250614, Note_off_c, 0, 55, 61
1, 250623, Control_c, 0, 64, 106
1, 250638, Control_c, 0, 64, 109
1, 250653, Control_c, 0, 64, 114
1, 250664, Note_off_c, 0, 66, 62
1, 250667, Control_c, 0, 64, 120
1, 250676, Note_off_c, 0, 57, 62
1, 250682, Control_c, 0, 64, 127
1, 250685, Note_on_c, 0, 78, 76
1, 250740, Note_off_c, 0, 78, 63
1, 250758, Note_on_c, 0, 67, 88
1, 250771, Control_c, 0, 64, 109
1, 250781, Note_on_c, 0, 55, 77
1, 250782, Note_on_c, 0, 58, 90
1, 250783, Note_on_c, 0, 50, 72
1, 250786, Control_c, 0, 64, 92
1, 250801, Control_c, 0, 64, 74
1, 250815, Control_c, 0, 64, 0
1, 250817, Note_off_c, 0, 67, 60
1, 250849, Note_on_c, 0, 79, 74
1, 250889, Control_c, 0, 64, 64
1, 250904, Note_on_c, 0, 70, 74
1, 250904, Control_c, 0, 64, 72
1, 250919, Control_c, 0, 64, 80
1, 250926, Note_off_c, 0, 79, 58
1, 250933, Control_c, 0, 64, 88
1, 250948, Control_c, 0, 64, 93
1, 250963, Control_c, 0, 64, 97
1, 250973, Note_on_c, 0, 74, 74
1, 250979, Control_c, 0, 64, 99
1, 250980, Note_off_c, 0, 70, 62
1, 250994, Control_c, 0, 64, 100
1, 251016, Control_c, 0, 64, 100
1, 251030, Note_off_c, 0, 74, 64
1, 251031, Control_c, 0, 64, 101
1, 251045, Control_c, 0, 64, 100
1, 251057, Note_on_c, 0, 69, 83
1, 251060, Control_c, 0, 64, 99
1, 251073, Note_on_c, 0, 60, 97
1, 251075, Control_c, 0, 64, 91
1, 251090, Control_c, 0, 64, 78
1, 251105, Control_c, 0, 64, 64
1, 251114, Note_off_c, 0, 58, 64
1, 251114, Note_off_c, 0, 55, 65
1, 251120, Control_c, 0, 64, 37
1, 251125, Note_off_c, 0, 69, 59
1, 251127, Note_on_c, 0, 81, 80
1, 251135, Control_c, 0, 64, 59
1, 251150, Control_c, 0, 64, 67
1, 251164, Control_c, 0, 64, 77
1, 251179, Control_c, 0, 64, 87
1, 251191, Note_on_c, 0, 75, 70
1, 251194, Control_c, 0, 64, 96
1, 251209, Control_c, 0, 64, 102
1, 251218, Note_off_c, 0, 50, 59
1, 251223, Note_off_c, 0, 81, 62
1, 251224, Control_c, 0, 64, 106
1, 251238, Control_c, 0, 64, 108
1, 251240, Note_on_c, 0, 79, 68
1, 251247, Note_off_c, 0, 60, 64
1, 251253, Control_c, 0, 64, 111
1, 251268, Control_c, 0, 64, 114
1, 251272, Note_off_c, 0, 75, 63
1, 251282, Control_c, 0, 64, 116
1, 251297, Control_c, 0, 64, 118
1, 251312, Control_c, 0, 64, 118
1, 251323, Note_on_c, 0, 70, 88
1, 251327, Note_on_c, 0, 62, 98
1, 251335, Note_off_c, 0, 79, 54
1, 251342, Control_c, 0, 64, 116
1, 251356, Control_c, 0, 64, 103
1, 251371, Control_c, 0, 64, 89
1, 251386, Control_c, 0, 64, 76
1, 251401, Control_c, 0, 64, 66
1, 251412, Note_off_c, 0, 70, 61
1, 251416, Control_c, 0, 64, 67
1, 251422, Note_on_c, 0, 74, 67
1, 251430, Control_c, 0, 64, 73
1, 251445, Control_c, 0, 64, 85
1, 251460, Control_c, 0, 64, 95
1, 251464, Note_on_c, 0, 79, 70
1, 251466, Note_off_c, 0, 74, 64
1, 251475, Control_c, 0, 64, 104
1, 251480, Note_on_c, 0, 82, 52
1, 251489, Control_c, 0, 64, 108
1, 251502, Note_off_c, 0, 82, 59
1, 251504, Control_c, 0, 64, 109
1, 251510, Note_off_c, 0, 79, 62
1, 251522, Note_off_c, 0, 62, 62
1, 251534, Control_c, 0, 64, 106
1, 251536, Note_on_c, 0, 64, 84
1, 251540, Note_on_c, 0, 74, 85
1, 251549, Control_c, 0, 64, 98
1, 251564, Control_c, 0, 64, 89
1, 251579, Control_c, 0, 64, 85
1, 251608, Note_on_c, 0, 66, 95
1, 251610, Note_on_c, 0, 86, 83
1, 251610, Note_off_c, 0, 74, 63
1, 251624, Control_c, 0, 64, 87
1, 251628, Note_off_c, 0, 64, 60
1, 251630, Note_on_c, 0, 82, 73
1, 251638, Control_c, 0, 64, 91
1, 251653, Control_c, 0, 64, 97
1, 251662, Note_off_c, 0, 86, 64
1, 251668, Control_c, 0, 64, 101
1, 251671, Note_on_c, 0, 85, 40
1, 251682, Control_c, 0, 64, 104
1, 251697, Control_c, 0, 64, 106
1, 251701, Note_off_c, 0, 85, 47
1, 251707, Note_off_c, 0, 82, 64
1, 251712, Control_c, 0, 64, 107
1, 251725, Note_on_c, 0, 67, 93
1, 251727, Control_c, 0, 64, 109
1, 251728, Note_on_c, 0, 75, 87
1, 251737, Note_off_c, 0, 66, 66
1, 251742, Control_c, 0, 64, 111
1, 251764, Control_c, 0, 64, 114
1, 251779, Control_c, 0, 64, 117
1, 251789, Note_off_c, 0, 67, 62
1, 251794, Control_c, 0, 64, 118
1, 251800, Note_on_c, 0, 87, 86
1, 251806, Note_on_c, 0, 82, 80
1, 251809, Control_c, 0, 64, 118
1, 251811, Note_off_c, 0, 75, 64
1, 251821, Note_off_c, 0, 87, 68
1, 251826, Note_off_c, 0, 82, 72
1, 251868, Control_c, 0, 64, 114
1, 251883, Control_c, 0, 64, 100
1, 251898, Control_c, 0, 64, 84
1, 251913, Control_c, 0, 64, 64
1, 251913, Note_on_c, 0, 53, 71
1, 251916, Note_on_c, 0, 55, 66
1, 251917, Note_on_c, 0, 65, 77
1, 251928, Control_c, 0, 64, 0
1, 252017, Control_c, 0, 64, 60
1, 252023, Note_on_c, 0, 79, 59
1, 252032, Control_c, 0, 64, 72
1, 252047, Control_c, 0, 64, 84
1, 252059, Note_off_c, 0, 53, 66
1, 252061, Control_c, 0, 64, 94
1, 252075, Note_off_c, 0, 65, 64
1, 252076, Control_c, 0, 64, 99
1, 252083, Note_on_c, 0, 71, 63
1, 252091, Control_c, 0, 64, 101
1, 252105, Control_c, 0, 64, 102
1, 252115, Note_off_c, 0, 79, 57
1, 252120, Control_c, 0, 64, 103
1, 252131, Note_off_c, 0, 55, 53
1, 252135, Control_c, 0, 64, 105
1, 252140, Note_off_c, 0, 71, 56
1, 252148, Note_on_c, 0, 74, 71
1, 252150, Control_c, 0, 64, 107
1, 252165, Control_c, 0, 64, 107
1, 252179, Control_c, 0, 64, 108
1, 252206, Note_off_c, 0, 74, 62
1, 252209, Control_c, 0, 64, 107
1, 252223, Note_on_c, 0, 63, 91
1, 252224, Control_c, 0, 64, 103
1, 252225, Note_on_c, 0, 51, 84
1, 252231, Note_on_c, 0, 69, 77
1, 252238, Control_c, 0, 64, 92
1, 252253, Control_c, 0, 64, 78
1, 252268, Control_c, 0, 64, 62
1, 252279, Note_off_c, 0, 69, 62
1, 252283, Control_c, 0, 64, 0
1, 252306, Note_on_c, 0, 81, 78
1, 252312, Control_c, 0, 64, 65
1, 252327, Control_c, 0, 64, 74
1, 252342, Control_c, 0, 64, 84
1, 252357, Control_c, 0, 64, 90
1, 252372, Control_c, 0, 64, 93
1, 252384, Note_on_c, 0, 72, 75
1, 252387, Control_c, 0, 64, 93
1, 252393, Note_off_c, 0, 81, 60
1, 252413, Note_off_c, 0, 51, 59
1, 252420, Note_off_c, 0, 63, 62
1, 252431, Control_c, 0, 64, 94
1, 252438, Note_on_c, 0, 75, 78
1, 252446, Control_c, 0, 64, 95
1, 252458, Note_off_c, 0, 72, 63
1, 252461, Control_c, 0, 64, 95
1, 252506, Note_off_c, 0, 75, 66
1, 252512, Control_c, 0, 64, 93
1, 252515, Note_on_c, 0, 50, 83
1, 252520, Note_on_c, 0, 62, 82
1, 252526, Note_on_c, 0, 71, 83
1, 252527, Control_c, 0, 64, 86
1, 252542, Control_c, 0, 64, 76
1, 252557, Control_c, 0, 64, 66
1, 252572, Control_c, 0, 64, 62
1, 252588, Control_c, 0, 64, 67
1, 252592, Note_off_c, 0, 71, 60
1, 252598, Note_off_c, 0, 62, 61
1, 252603, Control_c, 0, 64, 74
1, 252605, Note_off_c, 0, 50, 63
1, 252617, Note_on_c, 0, 83, 65
1, 252617, Control_c, 0, 64, 82
1, 252632, Control_c, 0, 64, 88
1, 252647, Control_c, 0, 64, 91
1, 252662, Control_c, 0, 64, 92
1, 252680, Note_on_c, 0, 77, 49
1, 252681, Note_on_c, 0, 76, 50
1, 252684, Note_off_c, 0, 83, 58
1, 252709, Note_off_c, 0, 76, 65
1, 252711, Note_on_c, 0, 61, 89
1, 252711, Note_off_c, 0, 77, 61
1, 252715, Note_on_c, 0, 49, 75
1, 252725, Note_on_c, 0, 79, 80
1, 252735, Control_c, 0, 64, 91
1, 252741, Note_on_c, 0, 48, 52
1, 252741, Note_off_c, 0, 49, 58
1, 252741, Note_off_c, 0, 61, 62
1, 252750, Control_c, 0, 64, 85
1, 252765, Control_c, 0, 64, 73
1, 252768, Note_off_c, 0, 48, 58
1, 252779, Note_off_c, 0, 79, 62
1, 252780, Control_c, 0, 64, 37
1, 252795, Control_c, 0, 64, 0
1, 252798, Note_on_c, 0, 72, 85
1, 252807, Note_on_c, 0, 60, 89
1, 252807, Note_on_c, 0, 48, 81
1, 252825, Control_c, 0, 64, 62
1, 252840, Control_c, 0, 64, 71
1, 252851, Note_off_c, 0, 60, 64
1, 252853, Note_off_c, 0, 72, 65
1, 252854, Control_c, 0, 64, 80
1, 252862, Note_off_c, 0, 48, 64
1, 252869, Control_c, 0, 64, 86
1, 252884, Control_c, 0, 64, 89
1, 252895, Note_on_c, 0, 86, 76
1, 252899, Control_c, 0, 64, 90
1, 252901, Note_on_c, 0, 84, 76
1, 252914, Control_c, 0, 64, 91
1, 252918, Note_on_c, 0, 59, 89
1, 252919, Note_on_c, 0, 47, 72
1, 252927, Note_on_c, 0, 48, 78
1, 252928, Control_c, 0, 64, 92
1, 252943, Control_c, 0, 64, 93
1, 252945, Note_on_c, 0, 78, 77
1, 252956, Note_off_c, 0, 48, 68
1, 252956, Note_off_c, 0, 84, 62
1, 252957, Note_off_c, 0, 86, 64
1, 252958, Note_off_c, 0, 59, 65
1, 252958, Control_c, 0, 64, 95
1, 252966, Note_off_c, 0, 47, 63
1, 252973, Control_c, 0, 64, 98
1, 252988, Control_c, 0, 64, 99
1, 253002, Control_c, 0, 64, 100
1, 253005, Note_off_c, 0, 78, 63
1, 253017, Control_c, 0, 64, 100
1, 253032, Control_c, 0, 64, 101
1, 253051, Note_on_c, 0, 87, 62
1, 253062, Note_on_c, 0, 75, 93
1, 253067, Note_on_c, 0, 57, 91
1, 253069, Note_on_c, 0, 48, 88
1, 253072, Note_on_c, 0, 45, 84
1, 253076, Control_c, 0, 64, 96
1, 253091, Control_c, 0, 64, 84
1, 253106, Control_c, 0, 64, 66
1, 253121, Control_c, 0, 64, 0
1, 253157, Note_off_c, 0, 75, 61
1, 253165, Control_c, 0, 64, 61
1, 253167, Note_off_c, 0, 87, 61
1, 253169, Note_on_c, 0, 79, 69
1, 253180, Control_c, 0, 64, 71
1, 253195, Control_c, 0, 64, 82
1, 253203, Note_off_c, 0, 45, 64
1, 253209, Control_c, 0, 64, 91
1, 253212, Note_on_c, 0, 84, 70
1, 253221, Note_off_c, 0, 79, 60
1, 253224, Note_off_c, 0, 57, 58
1, 253224, Control_c, 0, 64, 97
1, 253239, Control_c, 0, 64, 100
1, 253261, Control_c, 0, 64, 103
1, 253276, Control_c, 0, 64, 105
1, 253284, Note_off_c, 0, 84, 65
1, 253291, Control_c, 0, 64, 105
1, 253310, Note_off_c, 0, 48, 65
1, 253317, Note_on_c, 0, 77, 77
1, 253335, Control_c, 0, 64, 100
1, 253348, Note_on_c, 0, 48, 74
1, 253350, Control_c, 0, 64, 86
1, 253352, Note_on_c, 0, 56, 105
1, 253356, Note_on_c, 0, 44, 93
1, 253365, Control_c, 0, 64, 63
1, 253380, Note_on_c, 0, 89, 76
1, 253380, Control_c, 0, 64, 0
1, 253389, Note_off_c, 0, 77, 59
1, 253426, Control_c, 0, 64, 67
1, 253440, Control_c, 0, 64, 76
1, 253455, Control_c, 0, 64, 89
1, 253463, Note_on_c, 0, 80, 74
1, 253470, Control_c, 0, 64, 96
1, 253478, Note_off_c, 0, 89, 60
1, 253484, Control_c, 0, 64, 100
1, 253499, Control_c, 0, 64, 102
1, 253514, Control_c, 0, 64, 104
1, 253519, Note_on_c, 0, 84, 82
1, 253529, Control_c, 0, 64, 108
1, 253534, Note_off_c, 0, 44, 62
1, 253540, Note_off_c, 0, 80, 63
1, 253543, Note_off_c, 0, 56, 61
1, 253544, Control_c, 0, 64, 112
1, 253558, Control_c, 0, 64, 116
1, 253573, Control_c, 0, 64, 117
1, 253578, Note_off_c, 0, 48, 61
1, 253579, Note_off_c, 0, 84, 64
1, 253588, Control_c, 0, 64, 116
1, 253603, Control_c, 0, 64, 111
1, 253609, Note_on_c, 0, 48, 65
1, 253616, Note_on_c, 0, 79, 83
1, 253618, Note_on_c, 0, 55, 97
1, 253618, Control_c, 0, 64, 100
1, 253620, Note_on_c, 0, 43, 84
1, 253633, Control_c, 0, 64, 87
1, 253648, Control_c, 0, 64, 75
1, 253663, Control_c, 0, 64, 71
1, 253677, Control_c, 0, 64, 72
1, 253684, Note_off_c, 0, 55, 64
1, 253689, Note_on_c, 0, 91, 77
1, 253692, Control_c, 0, 64, 76
1, 253699, Note_off_c, 0, 43, 62
1, 253700, Note_off_c, 0, 79, 61
1, 253707, Control_c, 0, 64, 82
1, 253716, Note_off_c, 0, 48, 64
1, 253722, Control_c, 0, 64, 89
1, 253727, Note_on_c, 0, 84, 78
1, 253737, Control_c, 0, 64, 94
1, 253752, Control_c, 0, 64, 97
1, 253767, Control_c, 0, 64, 98
1, 253770, Note_off_c, 0, 91, 59
1, 253788, Note_on_c, 0, 87, 70
1, 253797, Control_c, 0, 64, 95
1, 253801, Note_on_c, 0, 42, 88
1, 253802, Note_off_c, 0, 84, 61
1, 253809, Note_on_c, 0, 53, 76
1, 253812, Control_c, 0, 64, 85
1, 253812, Note_on_c, 0, 52, 75
1, 253823, Note_on_c, 0, 40, 64
1, 253826, Control_c, 0, 64, 69
1, 253829, Note_off_c, 0, 42, 65
1, 253835, Note_off_c, 0, 53, 69
1, 253835, Note_off_c, 0, 52, 68
1, 253838, Note_on_c, 0, 80, 81
1, 253841, Control_c, 0, 64, 0
1, 253846, Note_off_c, 0, 87, 64
1, 253848, Note_on_c, 0, 46, 14
1, 253849, Note_off_c, 0, 46, 127
1, 253851, Note_off_c, 0, 40, 58
1, 253856, Control_c, 0, 64, 40
1, 253871, Control_c, 0, 64, 66
1, 253886, Control_c, 0, 64, 75
1, 253901, Note_on_c, 0, 51, 103
1, 253901, Control_c, 0, 64, 86
1, 253906, Note_on_c, 0, 39, 95
1, 253907, Note_off_c, 0, 80, 62
1, 253909, Note_on_c, 0, 84, 70
1, 253914, Note_on_c, 0, 92, 85
1, 253916, Control_c, 0, 64, 97
1, 253921, Note_on_c, 0, 42, 35
1, 253931, Control_c, 0, 64, 105
1, 253934, Note_on_c, 0, 38, 63
1, 253946, Control_c, 0, 64, 107
1, 253950, Note_off_c, 0, 51, 62
1, 253961, Note_off_c, 0, 38, 60
1, 253961, Control_c, 0, 64, 107
1, 253962, Note_off_c, 0, 42, 44
1, 253962, Note_off_c, 0, 84, 64
1, 253966, Note_off_c, 0, 92, 67
1, 253976, Control_c, 0, 64, 108
1, 253981, Note_off_c, 0, 39, 59
1, 253990, Control_c, 0, 64, 109
1, 254008, Note_on_c, 0, 79, 85
1, 254012, Control_c, 0, 64, 111
1, 254027, Control_c, 0, 64, 114
1, 254038, Note_on_c, 0, 38, 93
1, 254038, Note_on_c, 0, 50, 103
1, 254042, Control_c, 0, 64, 118
1, 254057, Control_c, 0, 64, 122
1, 254070, Note_on_c, 0, 84, 91
1, 254072, Note_on_c, 0, 91, 91
1, 254072, Control_c, 0, 64, 125
1, 254074, Note_off_c, 0, 50, 68
1, 254079, Note_off_c, 0, 79, 64
1, 254080, Note_off_c, 0, 38, 62
1, 254086, Control_c, 0, 64, 126
1, 254089, Note_off_c, 0, 91, 67
1, 254092, Note_off_c, 0, 84, 68
1, 254101, Control_c, 0, 64, 127
1, 254116, Control_c, 0, 64, 127
1, 254194, Note_on_c, 0, 56, 60
1, 254236, Control_c, 0, 64, 124
1, 254250, Control_c, 0, 64, 107
1, 254265, Control_c, 0, 64, 88
1, 254268, Note_on_c, 0, 65, 88
1, 254272, Note_on_c, 0, 55, 70
1, 254274, Note_on_c, 0, 78, 25
1, 254275, Note_on_c, 0, 53, 79
1, 254277, Note_on_c, 0, 67, 57
1, 254280, Control_c, 0, 64, 64
1, 254288, Note_off_c, 0, 56, 58
1, 254295, Control_c, 0, 64, 0
1, 254300, Note_off_c, 0, 67, 57
1, 254309, Note_off_c, 0, 78, 44
1, 254366, Note_on_c, 0, 79, 62
1, 254428, Control_c, 0, 64, 63
1, 254438, Note_on_c, 0, 71, 62
1, 254440, Note_off_c, 0, 53, 65
1, 254443, Control_c, 0, 64, 75
1, 254447, Note_off_c, 0, 65, 67
1, 254458, Control_c, 0, 64, 85
1, 254473, Control_c, 0, 64, 92
1, 254484, Note_off_c, 0, 79, 62
1, 254488, Control_c, 0, 64, 95
1, 254492, Note_off_c, 0, 71, 60
1, 254498, Note_on_c, 0, 74, 68
1, 254502, Control_c, 0, 64, 97
1, 254517, Control_c, 0, 64, 101
1, 254532, Control_c, 0, 64, 105
1, 254547, Control_c, 0, 64, 107
1, 254551, Note_off_c, 0, 74, 64
1, 254569, Note_on_c, 0, 63, 99
1, 254575, Note_on_c, 0, 69, 83
1, 254576, Control_c, 0, 64, 105
1, 254581, Note_on_c, 0, 51, 78
1, 254591, Control_c, 0, 64, 96
1, 254606, Control_c, 0, 64, 81
1, 254621, Note_off_c, 0, 69, 64
1, 254621, Control_c, 0, 64, 66
1, 254635, Control_c, 0, 64, 44
1, 254647, Note_on_c, 0, 81, 76
1, 254650, Control_c, 0, 64, 61
1, 254665, Control_c, 0, 64, 69
1, 254680, Control_c, 0, 64, 77
1, 254695, Control_c, 0, 64, 88
1, 254709, Control_c, 0, 64, 93
1, 254718, Note_on_c, 0, 72, 80
1, 254724, Control_c, 0, 64, 94
1, 254730, Note_off_c, 0, 81, 58
1, 254735, Note_off_c, 0, 55, 63
1, 254739, Control_c, 0, 64, 95
1, 254762, Control_c, 0, 64, 96
1, 254765, Note_off_c, 0, 63, 64
1, 254774, Note_off_c, 0, 51, 62
1, 254774, Note_on_c, 0, 75, 80
1, 254791, Control_c, 0, 64, 96
1, 254792, Note_off_c, 0, 72, 63
1, 254806, Control_c, 0, 64, 97
1, 254835, Control_c, 0, 64, 96
1, 254841, Note_off_c, 0, 75, 67
1, 254849, Note_on_c, 0, 71, 87
1, 254850, Control_c, 0, 64, 91
1, 254859, Note_on_c, 0, 62, 93
1, 254861, Note_on_c, 0, 50, 94
1, 254865, Control_c, 0, 64, 80
1, 254880, Control_c, 0, 64, 65
1, 254895, Control_c, 0, 64, 0
1, 254909, Note_off_c, 0, 71, 61
1, 254909, Control_c, 0, 64, 57
1, 254922, Note_off_c, 0, 62, 60
1, 254924, Control_c, 0, 64, 67
1, 254926, Note_on_c, 0, 83, 79
1, 254939, Control_c, 0, 64, 74
1, 254945, Note_off_c, 0, 50, 61
1, 254954, Control_c, 0, 64, 83
1, 254969, Control_c, 0, 64, 90
1, 254985, Control_c, 0, 64, 94
1, 255000, Control_c, 0, 64, 96
1, 255013, Note_on_c, 0, 76, 53
1, 255013, Note_on_c, 0, 77, 52
1, 255014, Control_c, 0, 64, 97
1, 255029, Control_c, 0, 64, 97
1, 255037, Note_off_c, 0, 83, 54
1, 255040, Note_off_c, 0, 76, 66
1, 255043, Note_on_c, 0, 61, 97
1, 255045, Note_off_c, 0, 77, 63
1, 255046, Note_on_c, 0, 79, 80
1, 255046, Note_on_c, 0, 49, 94
1, 255058, Control_c, 0, 64, 98
1, 255073, Control_c, 0, 64, 97
1, 255078, Note_off_c, 0, 61, 67
1, 255083, Note_on_c, 0, 48, 47
1, 255086, Note_off_c, 0, 49, 64
1, 255088, Control_c, 0, 64, 94
1, 255101, Note_off_c, 0, 79, 63
1, 255103, Control_c, 0, 64, 85
1, 255109, Note_on_c, 0, 72, 89
1, 255111, Note_off_c, 0, 48, 57
1, 255118, Control_c, 0, 64, 69
1, 255132, Control_c, 0, 64, 0
1, 255143, Note_on_c, 0, 60, 102
1, 255147, Note_on_c, 0, 48, 86
1, 255161, Note_off_c, 0, 72, 66
1, 255177, Control_c, 0, 64, 67
1, 255188, Note_off_c, 0, 60, 65
1, 255192, Control_c, 0, 64, 77
1, 255204, Note_off_c, 0, 48, 65
1, 255206, Control_c, 0, 64, 88
1, 255212, Note_on_c, 0, 86, 69
1, 255214, Note_on_c, 0, 84, 61
1, 255221, Control_c, 0, 64, 94
1, 255236, Control_c, 0, 64, 96
1, 255250, Control_c, 0, 64, 97
1, 255254, Note_on_c, 0, 74, 84
1, 255265, Control_c, 0, 64, 98
1, 255266, Note_on_c, 0, 59, 98
1, 255269, Note_on_c, 0, 47, 103
1, 255280, Control_c, 0, 64, 101
1, 255290, Note_off_c, 0, 86, 62
1, 255293, Note_off_c, 0, 84, 64
1, 255295, Control_c, 0, 64, 106
1, 255298, Note_off_c, 0, 74, 64
1, 255310, Note_off_c, 0, 59, 65
1, 255310, Control_c, 0, 64, 112
1, 255324, Control_c, 0, 64, 118
1, 255329, Note_on_c, 0, 78, 36
1, 255339, Control_c, 0, 64, 121
1, 255341, Note_off_c, 0, 47, 61
1, 255354, Control_c, 0, 64, 121
1, 255359, Note_off_c, 0, 78, 33
1, 255397, Note_on_c, 0, 75, 90
1, 255399, Control_c, 0, 64, 120
1, 255413, Control_c, 0, 64, 109
1, 255418, Note_on_c, 0, 48, 92
1, 255418, Note_on_c, 0, 57, 96
1, 255421, Note_on_c, 0, 45, 91
1, 255428, Control_c, 0, 64, 92
1, 255439, Note_on_c, 0, 87, 49
1, 255443, Control_c, 0, 64, 71
1, 255457, Control_c, 0, 64, 0
1, 255475, Note_off_c, 0, 75, 61
1, 255525, Control_c, 0, 64, 69
1, 255535, Note_on_c, 0, 79, 75
1, 255539, Control_c, 0, 64, 83
1, 255542, Note_off_c, 0, 87, 64
1, 255554, Control_c, 0, 64, 98
1, 255569, Control_c, 0, 64, 110
1, 255579, Note_off_c, 0, 45, 64
1, 255584, Control_c, 0, 64, 116
1, 255593, Note_off_c, 0, 57, 59
1, 255599, Control_c, 0, 64, 120
1, 255603, Note_off_c, 0, 79, 62
1, 255608, Note_on_c, 0, 84, 81
1, 255613, Control_c, 0, 64, 125
1, 255628, Control_c, 0, 64, 127
1, 255652, Note_off_c, 0, 48, 65
1, 255658, Note_off_c, 0, 84, 65
1, 255701, Note_on_c, 0, 48, 87
1, 255702, Control_c, 0, 64, 106
1, 255703, Note_on_c, 0, 56, 110
1, 255705, Note_on_c, 0, 77, 84
1, 255706, Note_on_c, 0, 44, 99
1, 255717, Control_c, 0, 64, 87
1, 255731, Control_c, 0, 64, 67
1, 255746, Control_c, 0, 64, 0
1, 255755, Note_on_c, 0, 89, 72
1, 255769, Note_off_c, 0, 77, 61
1, 255777, Control_c, 0, 64, 28
1, 255792, Control_c, 0, 64, 70
1, 255807, Control_c, 0, 64, 83
1, 255822, Control_c, 0, 64, 97
1, 255836, Note_on_c, 0, 80, 91
1, 255836, Control_c, 0, 64, 106
1, 255851, Control_c, 0, 64, 108
1, 255856, Note_off_c, 0, 89, 63
1, 255866, Control_c, 0, 64, 110
1, 255880, Control_c, 0, 64, 112
1, 255895, Control_c, 0, 64, 114
1, 255899, Note_on_c, 0, 84, 82
1, 255899, Note_off_c, 0, 44, 62
1, 255900, Note_off_c, 0, 56, 61
1, 255910, Control_c, 0, 64, 115
1, 255916, Note_off_c, 0, 80, 64
1, 255925, Control_c, 0, 64, 115
1, 255931, Note_off_c, 0, 48, 65
1, 255952, Note_off_c, 0, 84, 65
1, 255955, Control_c, 0, 64, 112
1, 255970, Control_c, 0, 64, 100
1, 255983, Note_on_c, 0, 48, 86
1, 255983, Note_on_c, 0, 55, 103
1, 255985, Control_c, 0, 64, 85
1, 255986, Note_on_c, 0, 43, 95
1, 255987, Note_on_c, 0, 79, 94
1, 256000, Control_c, 0, 64, 70
1, 256014, Control_c, 0, 64, 54
1, 256029, Control_c, 0, 64, 61
1, 256044, Control_c, 0, 64, 70
1, 256059, Control_c, 0, 64, 79
1, 256060, Note_on_c, 0, 91, 83
1, 256062, Note_off_c, 0, 55, 63
1, 256068, Note_off_c, 0, 48, 60
1, 256072, Note_off_c, 0, 79, 59
1, 256073, Control_c, 0, 64, 91
1, 256080, Note_off_c, 0, 43, 62
1, 256088, Control_c, 0, 64, 99
1, 256103, Control_c, 0, 64, 103
1, 256117, Note_on_c, 0, 84, 83
1, 256118, Control_c, 0, 64, 105
1, 256133, Control_c, 0, 64, 107
1, 256147, Control_c, 0, 64, 107
1, 256148, Note_off_c, 0, 91, 60
1, 256183, Note_on_c, 0, 54, 99
1, 256184, Note_on_c, 0, 42, 87
1, 256192, Control_c, 0, 64, 107
1, 256193, Note_on_c, 0, 87, 79
1, 256197, Note_on_c, 0, 44, 65
1, 256198, Note_off_c, 0, 44, 127
1, 256207, Control_c, 0, 64, 99
1, 256211, Note_on_c, 0, 41, 61
1, 256220, Note_on_c, 0, 46, 31
1, 256221, Note_off_c, 0, 46, 127
1, 256221, Note_off_c, 0, 84, 58
1, 256222, Control_c, 0, 64, 87
1, 256223, Note_off_c, 0, 54, 60
1, 256229, Poly_aftertouch_c, 0, 44, 0
1, 256230, Note_off_c, 0, 42, 61
1, 256236, Control_c, 0, 64, 71
1, 256237, Note_off_c, 0, 41, 61
1, 256259, Control_c, 0, 64, 62
1, 256268, Poly_aftertouch_c, 0, 46, 0
1, 256272, Note_on_c, 0, 80, 89
1, 256274, Control_c, 0, 64, 64
1, 256280, Note_off_c, 0, 87, 59
1, 256288, Control_c, 0, 64, 71
1, 256290, Note_on_c, 0, 53, 96
1, 256295, Note_on_c, 0, 41, 101
1, 256303, Control_c, 0, 64, 80
1, 256318, Control_c, 0, 64, 91
1, 256333, Control_c, 0, 64, 100
1, 256337, Note_off_c, 0, 53, 68
1, 256348, Control_c, 0, 64, 105
1, 256352, Note_off_c, 0, 41, 64
1, 256362, Control_c, 0, 64, 106
1, 256374, Note_on_c, 0, 84, 71
1, 256377, Control_c, 0, 64, 107
1, 256379, Note_off_c, 0, 80, 64
1, 256386, Note_on_c, 0, 92, 65
1, 256392, Control_c, 0, 64, 108
1, 256406, Control_c, 0, 64, 110
1, 256421, Control_c, 0, 64, 113
1, 256435, Note_off_c, 0, 92, 65
1, 256436, Control_c, 0, 64, 115
1, 256438, Note_off_c, 0, 84, 63
1, 256451, Control_c, 0, 64, 117
1, 256456, Note_on_c, 0, 51, 106
1, 256459, Note_on_c, 0, 39, 96
1, 256466, Control_c, 0, 64, 118
1, 256471, Note_on_c, 0, 79, 101
1, 256480, Control_c, 0, 64, 118
1, 256497, Note_off_c, 0, 51, 66
1, 256506, Note_off_c, 0, 39, 61
1, 256510, Control_c, 0, 64, 119
1, 256523, Note_on_c, 0, 91, 56
1, 256551, Note_off_c, 0, 79, 53
1, 256553, Note_on_c, 0, 85, 79
1, 256554, Control_c, 0, 64, 119
1, 256569, Control_c, 0, 64, 120
1, 256585, Control_c, 0, 64, 121
1, 256587, Note_off_c, 0, 91, 60
1, 256600, Control_c, 0, 64, 124
1, 256605, Note_off_c, 0, 85, 65
1, 256615, Control_c, 0, 64, 127
1, 256674, Control_c, 0, 64, 126
1, 256689, Control_c, 0, 64, 107
1, 256695, Note_on_c, 0, 80, 110
1, 256699, Note_on_c, 0, 84, 98
1, 256699, Note_on_c, 0, 92, 105
1, 256703, Note_on_c, 0, 87, 95
1, 256703, Control_c, 0, 64, 77
1, 256718, Control_c, 0, 64, 0
1, 256846, Note_on_c, 0, 39, 79
1, 256882, Control_c, 0, 64, 70
1, 256896, Control_c, 0, 64, 86
1, 256911, Control_c, 0, 64, 97
1, 256926, Control_c, 0, 64, 101
1, 256930, Note_off_c, 0, 80, 63
1, 256941, Control_c, 0, 64, 104
1, 256948, Note_off_c, 0, 92, 56
1, 256956, Control_c, 0, 64, 109
1, 256956, Note_on_c, 0, 48, 86
1, 256968, Note_off_c, 0, 84, 60
1, 256970, Control_c, 0, 64, 119
1, 256978, Note_off_c, 0, 39, 61
1, 256985, Note_off_c, 0, 87, 61
1, 256985, Control_c, 0, 64, 127
1, 257045, Note_on_c, 0, 44, 83
1, 257079, Note_off_c, 0, 48, 64
1, 257144, Note_on_c, 0, 51, 85
1, 257150, Note_on_c, 0, 91, 103
1, 257151, Note_on_c, 0, 87, 87
1, 257153, Note_on_c, 0, 79, 104
1, 257156, Note_on_c, 0, 84, 99
1, 257161, Note_off_c, 0, 44, 60
1, 257171, Control_c, 0, 64, 108
1, 257185, Control_c, 0, 64, 81
1, 257200, Control_c, 0, 64, 0
1, 257234, Note_off_c, 0, 51, 63
1, 257235, Note_on_c, 0, 48, 82
1, 257244, Control_c, 0, 64, 64
1, 257259, Control_c, 0, 64, 77
1, 257269, Note_off_c, 0, 91, 62
1, 257274, Control_c, 0, 64, 98
1, 257281, Note_off_c, 0, 79, 53
1, 257286, Note_off_c, 0, 84, 65
1, 257289, Control_c, 0, 64, 127
1, 257296, Note_off_c, 0, 87, 67
1, 257317, Note_on_c, 0, 44, 78
1, 257360, Note_off_c, 0, 48, 63
1, 257366, Note_on_c, 0, 39, 91
1, 257389, Note_off_c, 0, 44, 65
1, 257415, Note_off_c, 0, 39, 61
1, 257478, Note_on_c, 0, 89, 100
1, 257479, Note_on_c, 0, 77, 96
1, 257481, Note_on_c, 0, 80, 101
1, 257484, Note_on_c, 0, 84, 97
1, 257498, Control_c, 0, 64, 96
1, 257513, Control_c, 0, 64, 67
1, 257527, Control_c, 0, 64, 0
1, 257572, Control_c, 0, 64, 62
1, 257575, Note_off_c, 0, 89, 66
1, 257582, Note_off_c, 0, 77, 65
1, 257587, Note_on_c, 0, 44, 77
1, 257587, Control_c, 0, 64, 78
1, 257601, Poly_aftertouch_c, 0, 86, 0
1, 257601, Control_c, 0, 64, 96
1, 257616, Control_c, 0, 64, 123
1, 257618, Note_off_c, 0, 84, 62
1, 257631, Control_c, 0, 64, 127
1, 257638, Note_off_c, 0, 80, 61
1, 257662, Note_on_c, 0, 51, 76
1, 257709, Note_on_c, 0, 87, 94
1, 257711, Note_on_c, 0, 75, 98
1, 257737, Note_on_c, 0, 85, 66
1, 257754, Note_on_c, 0, 77, 46
1, 257755, Note_off_c, 0, 77, 127
1, 257782, Note_off_c, 0, 87, 63
1, 257788, Note_off_c, 0, 85, 61
1, 257789, Note_off_c, 0, 51, 63
1, 257791, Note_on_c, 0, 56, 86
1, 257791, Note_off_c, 0, 75, 59
1, 257833, Note_on_c, 0, 85, 76
1, 257839, Note_on_c, 0, 73, 84
1, 257875, Note_off_c, 0, 73, 66
1, 257884, Note_off_c, 0, 85, 66
1, 257889, Note_on_c, 0, 51, 87
1, 257898, Note_off_c, 0, 56, 64
1, 257898, Note_off_c, 0, 44, 17
1, 257958, Note_on_c, 0, 72, 91
1, 257966, Note_on_c, 0, 48, 75
1, 257967, Note_on_c, 0, 83, 76
1, 257969, Note_on_c, 0, 84, 70
1, 257973, Note_off_c, 0, 72, 75
1, 257976, Note_off_c, 0, 51, 62
1, 257988, Note_off_c, 0, 84, 69
1, 257988, Note_off_c, 0, 83, 67
1, 258039, Note_on_c, 0, 44, 88
1, 258056, Note_off_c, 0, 48, 66
1, 258083, Note_off_c, 0, 44, 63
1, 258086, Note_on_c, 0, 85, 48
1, 258092, Note_on_c, 0, 83, 35
1, 258108, Note_off_c, 0, 85, 61
1, 258120, Note_off_c, 0, 83, 50
1, 258152, Note_on_c, 0, 89, 95
1, 258155, Note_on_c, 0, 80, 98
1, 258155, Note_on_c, 0, 77, 103
1, 258155, Note_on_c, 0, 84, 93
1, 258157, Control_c, 0, 64, 100
1, 258173, Control_c, 0, 64, 71
1, 258173, Note_on_c, 0, 88, 63
1, 258188, Control_c, 0, 64, 0
1, 258191, Note_off_c, 0, 88, 43
1, 258253, Note_on_c, 0, 48, 80
1, 258306, Control_c, 0, 64, 62
1, 258321, Control_c, 0, 64, 74
1, 258327, Note_on_c, 0, 56, 84
1, 258328, Note_off_c, 0, 89, 65
1, 258333, Note_off_c, 0, 48, 65
1, 258333, Note_off_c, 0, 77, 64
1, 258336, Control_c, 0, 64, 87
1, 258350, Control_c, 0, 64, 95
1, 258365, Control_c, 0, 64, 99
1, 258375, Note_off_c, 0, 84, 67
1, 258380, Control_c, 0, 64, 101
1, 258393, Note_off_c, 0, 80, 64
1, 258395, Control_c, 0, 64, 103
1, 258408, Note_on_c, 0, 51, 87
1, 258410, Control_c, 0, 64, 106
1, 258424, Control_c, 0, 64, 109
1, 258439, Note_off_c, 0, 56, 64
1, 258439, Control_c, 0, 64, 112
1, 258454, Control_c, 0, 64, 114
1, 258468, Control_c, 0, 64, 115
1, 258483, Note_on_c, 0, 60, 81
1, 258483, Control_c, 0, 64, 116
1, 258503, Note_on_c, 0, 87, 98
1, 258503, Note_on_c, 0, 75, 106
1, 258503, Note_on_c, 0, 80, 95
1, 258506, Control_c, 0, 64, 117
1, 258506, Note_on_c, 0, 84, 95
1, 258506, Note_off_c, 0, 51, 59
1, 258521, Control_c, 0, 64, 119
1, 258536, Control_c, 0, 64, 120
1, 258550, Control_c, 0, 64, 121
1, 258563, Note_off_c, 0, 87, 65
1, 258573, Note_off_c, 0, 80, 68
1, 258574, Note_off_c, 0, 84, 66
1, 258575, Note_on_c, 0, 56, 86
1, 258580, Note_off_c, 0, 75, 60
1, 258587, Note_off_c, 0, 60, 59
1, 258595, Control_c, 0, 64, 121
1, 258609, Control_c, 0, 64, 123
1, 258624, Control_c, 0, 64, 125
1, 258639, Control_c, 0, 64, 125
1, 258654, Control_c, 0, 64, 126
1, 258660, Note_on_c, 0, 51, 78
1, 258669, Control_c, 0, 64, 127
1, 258683, Control_c, 0, 64, 127
1, 258716, Note_off_c, 0, 56, 63
1, 258742, Note_on_c, 0, 48, 68
1, 258746, Note_off_c, 0, 51, 63
1, 258763, Note_off_c, 0, 48, 66
1, 258794, Poly_aftertouch_c, 0, 59, 0
1, 258828, Note_on_c, 0, 75, 98
1, 258828, Note_on_c, 0, 80, 97
1, 258830, Note_on_c, 0, 73, 101
1, 258830, Note_on_c, 0, 85, 101
1, 258846, Control_c, 0, 64, 102
1, 258861, Control_c, 0, 64, 73
1, 258876, Control_c, 0, 64, 0
1, 258933, Note_on_c, 0, 51, 80
1, 258949, Control_c, 0, 64, 67
1, 258965, Control_c, 0, 64, 78
1, 258972, Note_off_c, 0, 73, 57
1, 258978, Note_off_c, 0, 85, 62
1, 258980, Control_c, 0, 64, 90
1, 258995, Control_c, 0, 64, 100
1, 258999, Note_off_c, 0, 75, 63
1, 259004, Note_on_c, 0, 60, 78
1, 259010, Control_c, 0, 64, 107
1, 259025, Control_c, 0, 64, 109
1, 259026, Note_off_c, 0, 80, 55
1, 259029, Note_off_c, 0, 51, 58
1, 259037, Note_on_c, 0, 84, 100
1, 259040, Control_c, 0, 64, 110
1, 259041, Note_on_c, 0, 72, 97
1, 259054, Control_c, 0, 64, 111
1, 259069, Control_c, 0, 64, 112
1, 259082, Note_off_c, 0, 72, 68
1, 259084, Control_c, 0, 64, 113
1, 259086, Note_off_c, 0, 84, 68
1, 259098, Control_c, 0, 64, 115
1, 259103, Note_on_c, 0, 56, 72
1, 259113, Control_c, 0, 64, 116
1, 259125, Note_off_c, 0, 60, 61
1, 259128, Control_c, 0, 64, 118
1, 259143, Control_c, 0, 64, 119
1, 259148, Note_on_c, 0, 63, 84
1, 259157, Note_on_c, 0, 82, 88
1, 259158, Control_c, 0, 64, 121
1, 259159, Note_on_c, 0, 70, 108
1, 259166, Note_off_c, 0, 56, 63
1, 259172, Control_c, 0, 64, 124
1, 259187, Control_c, 0, 64, 127
1, 259212, Note_off_c, 0, 70, 58
1, 259227, Note_off_c, 0, 82, 62
1, 259260, Note_off_c, 0, 63, 63
1, 259261, Note_on_c, 0, 60, 76
1, 259317, Note_on_c, 0, 80, 101
1, 259318, Note_on_c, 0, 68, 96
1, 259350, Note_off_c, 0, 68, 67
1, 259351, Note_on_c, 0, 81, 54
1, 259366, Note_on_c, 0, 56, 83
1, 259366, Note_off_c, 0, 80, 63
1, 259371, Note_off_c, 0, 81, 59
1, 259383, Note_off_c, 0, 60, 60
1, 259422, Note_on_c, 0, 51, 89
1, 259442, Note_off_c, 0, 56, 65
1, 259471, Note_off_c, 0, 51, 63
1, 259520, Control_c, 0, 64, 121
1, 259532, Note_on_c, 0, 85, 103
1, 259533, Note_on_c, 0, 75, 99
1, 259535, Note_on_c, 0, 73, 104
1, 259535, Control_c, 0, 64, 93
1, 259550, Control_c, 0, 64, 64
1, 259565, Note_on_c, 0, 82, 51
1, 259565, Control_c, 0, 64, 0
1, 259639, Control_c, 0, 64, 68
1, 259654, Control_c, 0, 64, 78
1, 259658, Note_on_c, 0, 56, 65
1, 259664, Note_on_c, 0, 63, 89
1, 259669, Control_c, 0, 64, 93
1, 259684, Control_c, 0, 64, 107
1, 259687, Note_off_c, 0, 85, 65
1, 259698, Control_c, 0, 64, 118
1, 259711, Note_off_c, 0, 73, 59
1, 259713, Control_c, 0, 64, 125
1, 259720, Note_off_c, 0, 56, 62
1, 259728, Control_c, 0, 64, 127
1, 259735, Note_off_c, 0, 82, 37
1, 259739, Note_off_c, 0, 75, 59
1, 259755, Note_on_c, 0, 84, 99
1, 259757, Note_on_c, 0, 72, 95
1, 259758, Note_on_c, 0, 68, 87
1, 259779, Note_off_c, 0, 63, 62
1, 259825, Note_off_c, 0, 68, 64
1, 259827, Note_on_c, 0, 56, 70
1, 259830, Note_on_c, 0, 63, 76
1, 259831, Note_off_c, 0, 84, 60
1, 259840, Note_off_c, 0, 72, 64
1, 259864, Note_off_c, 0, 56, 64
1, 259875, Note_off_c, 0, 63, 64
1, 259923, Note_on_c, 0, 82, 93
1, 259925, Note_on_c, 0, 75, 90
1, 259926, Note_on_c, 0, 70, 97
1, 259951, Control_c, 0, 64, 125
1, 259966, Control_c, 0, 64, 99
1, 259981, Control_c, 0, 64, 81
1, 260003, Control_c, 0, 64, 62
1, 260015, Note_on_c, 0, 51, 69
1, 260017, Note_on_c, 0, 60, 77
1, 260018, Control_c, 0, 64, 0
1, 260027, Note_off_c, 0, 82, 64
1, 260028, Note_off_c, 0, 70, 62
1, 260033, Control_c, 0, 64, 59
1, 260047, Control_c, 0, 64, 71
1, 260051, Note_off_c, 0, 75, 64
1, 260062, Control_c, 0, 64, 86
1, 260077, Control_c, 0, 64, 100
1, 260089, Note_on_c, 0, 63, 88
1, 260092, Control_c, 0, 64, 111
1, 260097, Note_off_c, 0, 60, 62
1, 260104, Note_on_c, 0, 68, 96
1, 260106, Note_off_c, 0, 51, 61
1, 260107, Control_c, 0, 64, 117
1, 260111, Note_on_c, 0, 80, 84
1, 260121, Control_c, 0, 64, 121
1, 260136, Control_c, 0, 64, 126
1, 260151, Note_on_c, 0, 78, 47
1, 260151, Control_c, 0, 64, 127
1, 260152, Note_off_c, 0, 63, 60
1, 260152, Note_off_c, 0, 80, 66
1, 260169, Note_off_c, 0, 68, 59
1, 260174, Note_on_c, 0, 60, 89
1, 260175, Note_off_c, 0, 78, 54
1, 260187, Note_on_c, 0, 51, 73
1, 260192, Note_off_c, 0, 60, 70
1, 260215, Note_off_c, 0, 51, 67
1, 260267, Note_on_c, 0, 77, 97
1, 260268, Note_on_c, 0, 65, 90
1, 260273, Note_on_c, 0, 68, 81
1, 260285, Control_c, 0, 64, 110
1, 260300, Control_c, 0, 64, 93
1, 260315, Control_c, 0, 64, 76
1, 260329, Control_c, 0, 64, 56
1, 260344, Control_c, 0, 64, 23
1, 260348, Note_on_c, 0, 48, 73
1, 260350, Note_off_c, 0, 77, 65
1, 260352, Note_on_c, 0, 56, 82
1, 260352, Note_off_c, 0, 65, 67
1, 260359, Control_c, 0, 64, 64
1, 260373, Control_c, 0, 64, 76
1, 260388, Control_c, 0, 64, 90
1, 260394, Note_off_c, 0, 68, 65
1, 260404, Control_c, 0, 64, 106
1, 260419, Control_c, 0, 64, 118
1, 260434, Control_c, 0, 64, 123
1, 260437, Note_on_c, 0, 60, 83
1, 260448, Control_c, 0, 64, 127
1, 260450, Note_on_c, 0, 63, 95
1, 260453, Note_off_c, 0, 56, 64
1, 260455, Note_off_c, 0, 48, 63
1, 260457, Note_on_c, 0, 73, 77
1, 260463, Control_c, 0, 64, 127
1, 260513, Note_off_c, 0, 63, 60
1, 260520, Note_off_c, 0, 60, 50
1, 260525, Note_off_c, 0, 73, 30
1, 260526, Note_on_c, 0, 56, 86
1, 260551, Note_on_c, 0, 48, 61
1, 260559, Note_off_c, 0, 56, 64
1, 260569, Note_off_c, 0, 48, 67
1, 260611, Note_on_c, 0, 61, 92
1, 260612, Note_on_c, 0, 63, 90
1, 260613, Note_on_c, 0, 73, 91
1, 260613, Control_c, 0, 64, 114
1, 260628, Control_c, 0, 64, 92
1, 260643, Control_c, 0, 64, 63
1, 260644, Note_on_c, 0, 66, 45
1, 260658, Control_c, 0, 64, 0
1, 260672, Note_off_c, 0, 66, 56
1, 260691, Note_on_c, 0, 51, 79
1, 260694, Note_on_c, 0, 44, 70
1, 260702, Control_c, 0, 64, 65
1, 260717, Control_c, 0, 64, 79
1, 260732, Control_c, 0, 64, 99
1, 260748, Note_off_c, 0, 61, 59
1, 260754, Control_c, 0, 64, 117
1, 260756, Note_off_c, 0, 73, 58
1, 260769, Control_c, 0, 64, 127
1, 260784, Control_c, 0, 64, 127
1, 260786, Note_on_c, 0, 56, 81
1, 260788, Note_off_c, 0, 51, 63
1, 260790, Note_off_c, 0, 44, 60
1, 260799, Note_on_c, 0, 72, 90
1, 260800, Note_on_c, 0, 60, 92
1, 260804, Note_off_c, 0, 63, 40
1, 260858, Note_off_c, 0, 60, 55
1, 260859, Note_off_c, 0, 72, 60
1, 260869, Note_on_c, 0, 51, 84
1, 260873, Note_off_c, 0, 56, 62
1, 260878, Note_on_c, 0, 44, 68
1, 260903, Note_off_c, 0, 51, 60
1, 260908, Note_off_c, 0, 44, 64
1, 260956, Note_on_c, 0, 63, 87
1, 260958, Note_on_c, 0, 70, 90
1, 260961, Control_c, 0, 64, 116
1, 260963, Note_on_c, 0, 58, 93
1, 260976, Control_c, 0, 64, 94
1, 260991, Control_c, 0, 64, 72
1, 261004, Note_on_c, 0, 59, 40
1, 261005, Control_c, 0, 64, 0
1, 261008, Note_on_c, 0, 57, 35
1, 261034, Note_off_c, 0, 59, 53
1, 261043, Note_off_c, 0, 57, 33
1, 261049, Note_on_c, 0, 39, 59
1, 261050, Note_on_c, 0, 48, 79
1, 261050, Control_c, 0, 64, 69
1, 261065, Control_c, 0, 64, 82
1, 261066, Note_off_c, 0, 58, 63
1, 261079, Note_off_c, 0, 70, 61
1, 261079, Control_c, 0, 64, 100
1, 261094, Control_c, 0, 64, 116
1, 261109, Control_c, 0, 64, 125
1, 261118, Note_off_c, 0, 63, 64
1, 261123, Note_off_c, 0, 39, 61
1, 261124, Control_c, 0, 64, 127
1, 261138, Note_on_c, 0, 51, 86
1, 261139, Note_on_c, 0, 68, 92
1, 261142, Note_on_c, 0, 56, 91
1, 261142, Note_off_c, 0, 48, 68
1, 261176, Note_off_c, 0, 68, 70
1, 261216, Note_off_c, 0, 56, 61
1, 261220, Note_on_c, 0, 48, 91
1, 261225, Note_off_c, 0, 51, 62
1, 261229, Note_on_c, 0, 39, 72
1, 261255, Note_off_c, 0, 48, 65
1, 261277, Note_off_c, 0, 39, 64
1, 261302, Control_c, 0, 64, 109
1, 261312, Note_on_c, 0, 65, 91
1, 261314, Note_on_c, 0, 56, 92
1, 261316, Note_on_c, 0, 53, 96
1, 261317, Control_c, 0, 64, 87
1, 261332, Control_c, 0, 64, 62
1, 261346, Control_c, 0, 64, 0
1, 261383, Note_on_c, 0, 64, 2
1, 261384, Note_off_c, 0, 64, 127
1, 261392, Control_c, 0, 64, 64
1, 261407, Note_on_c, 0, 44, 90
1, 261407, Control_c, 0, 64, 77
1, 261412, Note_on_c, 0, 36, 65
1, 261416, Note_off_c, 0, 65, 66
1, 261419, Note_off_c, 0, 53, 68
1, 261421, Control_c, 0, 64, 90
1, 261436, Control_c, 0, 64, 101
1, 261451, Control_c, 0, 64, 107
1, 261464, Note_off_c, 0, 56, 66
1, 261466, Control_c, 0, 64, 109
1, 261481, Control_c, 0, 64, 111
1, 261484, Note_off_c, 0, 36, 63
1, 261502, Control_c, 0, 64, 115
1, 261511, Note_on_c, 0, 51, 103
1, 261517, Note_on_c, 0, 48, 85
1, 261517, Control_c, 0, 64, 117
1, 261518, Note_on_c, 0, 63, 83
1, 261522, Note_off_c, 0, 44, 63
1, 261532, Control_c, 0, 64, 118
1, 261534, Note_off_c, 0, 63, 70
1, 261548, Note_on_c, 0, 61, 48
1, 261549, Note_off_c, 0, 61, 127
1, 261563, Note_off_c, 0, 51, 54
1, 261592, Control_c, 0, 64, 119
1, 261599, Note_on_c, 0, 44, 89
1, 261607, Note_on_c, 0, 36, 70
1, 261610, Note_off_c, 0, 48, 67
1, 261636, Control_c, 0, 64, 119
1, 261645, Note_off_c, 0, 36, 64
1, 261646, Note_off_c, 0, 44, 65
1, 261651, Control_c, 0, 64, 120
1, 261710, Control_c, 0, 64, 119
1, 261712, Note_on_c, 0, 61, 90
1, 261715, Note_on_c, 0, 51, 88
1, 261718, Note_on_c, 0, 49, 101
1, 261725, Control_c, 0, 64, 109
1, 261740, Control_c, 0, 64, 92
1, 261755, Control_c, 0, 64, 68
1, 261769, Control_c, 0, 64, 0
1, 261809, Note_on_c, 0, 32, 66
1, 261815, Note_on_c, 0, 39, 85
1, 261873, Control_c, 0, 64, 40
1, 261882, Note_off_c, 0, 61, 64
1, 261885, Note_off_c, 0, 49, 60
1, 261888, Control_c, 0, 64, 71
1, 261902, Control_c, 0, 64, 82
1, 261917, Control_c, 0, 64, 93
1, 261923, Note_off_c, 0, 32, 62
1, 261932, Control_c, 0, 64, 101
1, 261943, Note_on_c, 0, 60, 98
1, 261945, Note_on_c, 0, 48, 104
1, 261947, Control_c, 0, 64, 105
1, 261962, Control_c, 0, 64, 108
1, 261964, Note_on_c, 0, 44, 92
1, 261976, Control_c, 0, 64, 111
1, 261979, Note_off_c, 0, 51, 63
1, 261983, Note_off_c, 0, 39, 60
1, 261991, Control_c, 0, 64, 113
1, 261997, Note_off_c, 0, 48, 67
1, 261999, Note_on_c, 0, 32, 60
1, 262006, Control_c, 0, 64, 115
1, 262016, Note_off_c, 0, 60, 67
1, 262021, Control_c, 0, 64, 116
1, 262035, Note_off_c, 0, 32, 51
1, 262036, Control_c, 0, 64, 117
1, 262051, Control_c, 0, 64, 117
1, 262068, Poly_aftertouch_c, 0, 57, 0
1, 262081, Control_c, 0, 64, 118
1, 262087, Note_on_c, 0, 39, 96
1, 262095, Control_c, 0, 64, 118
1, 262100, Note_off_c, 0, 44, 65
1, 262106, Note_on_c, 0, 32, 69
1, 262110, Control_c, 0, 64, 119
1, 262113, Note_off_c, 0, 39, 69
1, 262125, Control_c, 0, 64, 123
1, 262134, Note_off_c, 0, 32, 64
1, 262140, Control_c, 0, 64, 127
1, 262335, Note_on_c, 0, 59, 100
1, 262335, Note_on_c, 0, 71, 94
1, 262340, Note_on_c, 0, 52, 97
1, 262340, Note_on_c, 0, 64, 103
1, 262340, Control_c, 0, 64, 90
1, 262342, Note_on_c, 0, 44, 92
1, 262343, Note_on_c, 0, 56, 105
1, 262355, Control_c, 0, 64, 0
1, 262389, Note_on_c, 0, 48, 39
1, 262419, Note_off_c, 0, 48, 56
1, 262465, Note_off_c, 0, 56, 66
1, 262474, Control_c, 0, 64, 84
1, 262476, Note_off_c, 0, 52, 69
1, 262481, Note_off_c, 0, 44, 64
1, 262489, Note_off_c, 0, 59, 65
1, 262489, Control_c, 0, 64, 127
1, 262510, Note_off_c, 0, 71, 64
1, 262513, Note_off_c, 0, 64, 67
1, 263076, Note_on_c, 0, 59, 85
1, 263077, Note_on_c, 0, 47, 90
1, 263079, Note_on_c, 0, 52, 90
1, 263081, Note_on_c, 0, 32, 80
1, 263084, Note_on_c, 0, 40, 87
1, 263088, Note_on_c, 0, 44, 82
1, 263138, Note_off_c, 0, 47, 65
1, 263151, Note_off_c, 0, 32, 63
1, 263154, Note_off_c, 0, 40, 63
1, 263160, Note_off_c, 0, 52, 70
1, 263164, Note_off_c, 0, 44, 64
1, 263177, Note_off_c, 0, 59, 66
1, 263365, Note_on_c, 0, 71, 92
1, 263367, Note_on_c, 0, 59, 103
1, 263367, Note_on_c, 0, 64, 100
1, 263375, Note_on_c, 0, 52, 94
1, 263377, Note_on_c, 0, 44, 87
1, 263381, Note_on_c, 0, 56, 86
1, 263409, Note_off_c, 0, 59, 66
1, 263419, Note_off_c, 0, 52, 68
1, 263421, Note_off_c, 0, 44, 64
1, 263421, Note_off_c, 0, 56, 67
1, 263428, Note_off_c, 0, 64, 68
1, 263440, Note_off_c, 0, 71, 66
1, 263613, Note_on_c, 0, 83, 100
1, 263616, Note_on_c, 0, 71, 100
1, 263617, Note_on_c, 0, 64, 97
1, 263618, Note_on_c, 0, 76, 97
1, 263622, Note_on_c, 0, 56, 84
1, 263622, Note_on_c, 0, 68, 107
1, 263654, Note_off_c, 0, 71, 68
1, 263660, Note_off_c, 0, 68, 70
1, 263665, Note_off_c, 0, 64, 68
1, 263669, Note_off_c, 0, 76, 73
1, 263671, Note_off_c, 0, 56, 67
1, 263679, Note_off_c, 0, 83, 67
1, 263900, Note_on_c, 0, 95, 100
1, 263902, Note_on_c, 0, 83, 101
1, 263904, Note_on_c, 0, 80, 99
1, 263905, Note_on_c, 0, 68, 90
1, 263905, Note_on_c, 0, 88, 97
1, 263908, Note_on_c, 0, 76, 98
1, 263938, Note_off_c, 0, 80, 70
1, 263947, Note_off_c, 0, 76, 72
1, 263955, Note_on_c, 0, 90, 25
1, 263956, Note_off_c, 0, 95, 69
1, 263958, Note_off_c, 0, 83, 64
1, 263961, Note_off_c, 0, 88, 67
1, 263963, Note_off_c, 0, 68, 68
1, 263994, Note_off_c, 0, 90, 33
1, 264216, Note_on_c, 0, 83, 96
1, 264217, Note_on_c, 0, 71, 103
1, 264218, Note_on_c, 0, 56, 79
1, 264219, Note_on_c, 0, 64, 97
1, 264220, Note_on_c, 0, 76, 98
1, 264221, Note_on_c, 0, 68, 87
1, 264248, Note_off_c, 0, 68, 65
1, 264257, Note_on_c, 0, 80, 48
1, 264258, Note_off_c, 0, 64, 70
1, 264260, Note_on_c, 0, 78, 47
1, 264264, Poly_aftertouch_c, 0, 63, 127
1, 264274, Note_off_c, 0, 56, 65
1, 264278, Note_off_c, 0, 71, 64
1, 264280, Note_off_c, 0, 83, 65
1, 264281, Note_off_c, 0, 76, 73
1, 264281, Note_off_c, 0, 80, 60
1, 264283, Note_off_c, 0, 78, 53
1, 264292, Poly_aftertouch_c, 0, 63, 0
1, 264576, Note_on_c, 0, 59, 107
1, 264576, Note_on_c, 0, 71, 95
1, 264579, Note_on_c, 0, 44, 89
1, 264580, Note_on_c, 0, 64, 101
1, 264582, Note_on_c, 0, 52, 99
1, 264583, Note_on_c, 0, 56, 101
1, 264623, Note_off_c, 0, 56, 66
1, 264624, Note_on_c, 0, 66, 49
1, 264625, Note_off_c, 0, 44, 66
1, 264626, Note_off_c, 0, 52, 68
1, 264646, Note_off_c, 0, 59, 65
1, 264653, Note_off_c, 0, 71, 65
1, 264655, Note_off_c, 0, 66, 53
1, 264665, Note_off_c, 0, 64, 68
1, 264911, Note_on_c, 0, 56, 93
1, 264912, Control_c, 0, 64, 117
1, 264915, Note_on_c, 0, 68, 95
1, 264927, Control_c, 0, 64, 80
1, 264937, Note_off_c, 0, 56, 64
1, 264942, Note_off_c, 0, 68, 63
1, 264942, Control_c, 0, 64, 0
1, 265023, Note_on_c, 0, 59, 98
1, 265026, Note_on_c, 0, 71, 99
1, 265049, Note_off_c, 0, 59, 68
1, 265052, Note_off_c, 0, 71, 62
1, 265164, Note_on_c, 0, 61, 110
1, 265169, Note_on_c, 0, 54, 75
1, 265170, Note_on_c, 0, 73, 92
1, 265173, Note_on_c, 0, 57, 72
1, 265175, Note_on_c, 0, 45, 69
1, 265178, Note_on_c, 0, 63, 79
1, 265179, Control_c, 0, 64, 82
1, 265190, Note_off_c, 0, 61, 64
1, 265193, Note_off_c, 0, 63, 70
1, 265194, Control_c, 0, 64, 120
1, 265198, Note_off_c, 0, 57, 67
1, 265204, Note_off_c, 0, 54, 63
1, 265209, Control_c, 0, 64, 127
1, 265211, Note_off_c, 0, 45, 65
1, 265222, Note_off_c, 0, 73, 55
1, 265410, Control_c, 0, 64, 100
1, 265425, Control_c, 0, 64, 70
1, 265429, Note_on_c, 0, 64, 97
1, 265431, Note_on_c, 0, 61, 102
1, 265431, Note_on_c, 0, 73, 97
1, 265433, Note_on_c, 0, 52, 90
1, 265434, Note_on_c, 0, 57, 84
1, 265439, Note_on_c, 0, 45, 71
1, 265440, Control_c, 0, 64, 0
1, 265464, Note_off_c, 0, 57, 63
1, 265469, Control_c, 0, 64, 62
1, 265473, Note_off_c, 0, 52, 66
1, 265484, Note_off_c, 0, 45, 66
1, 265484, Control_c, 0, 64, 78
1, 265499, Control_c, 0, 64, 97
1, 265504, Note_off_c, 0, 64, 62
1, 265514, Control_c, 0, 64, 127
1, 265529, Note_off_c, 0, 61, 58
1, 265547, Note_off_c, 0, 73, 61
1, 265705, Control_c, 0, 64, 100
1, 265708, Note_on_c, 0, 51, 97
1, 265709, Note_on_c, 0, 66, 100
1, 265710, Note_on_c, 0, 73, 90
1, 265711, Note_on_c, 0, 61, 102
1, 265712, Note_on_c, 0, 45, 88
1, 265713, Note_on_c, 0, 57, 84
1, 265720, Control_c, 0, 64, 70
1, 265735, Control_c, 0, 64, 0
1, 265735, Note_off_c, 0, 57, 66
1, 265747, Note_off_c, 0, 45, 68
1, 265747, Note_off_c, 0, 51, 65
1, 265753, Note_off_c, 0, 73, 65
1, 265754, Note_off_c, 0, 61, 66
1, 265756, Note_off_c, 0, 66, 67
1, 265780, Control_c, 0, 64, 60
1, 265794, Control_c, 0, 64, 77
1, 265809, Control_c, 0, 64, 103
1, 265824, Control_c, 0, 64, 127
1, 265973, Note_on_c, 0, 54, 90
1, 265975, Note_on_c, 0, 66, 76
1, 266009, Control_c, 0, 64, 104
1, 266020, Note_off_c, 0, 54, 62
1, 266024, Control_c, 0, 64, 74
1, 266027, Note_off_c, 0, 66, 67
1, 266039, Control_c, 0, 64, 0
1, 266092, Note_on_c, 0, 57, 100
1, 266101, Note_on_c, 0, 69, 82
1, 266107, Note_on_c, 0, 68, 72
1, 266119, Note_off_c, 0, 57, 66
1, 266122, Note_off_c, 0, 69, 71
1, 266123, Note_off_c, 0, 68, 68
1, 266153, Note_on_c, 0, 67, 16
1, 266154, Note_off_c, 0, 67, 127
1, 266239, Note_on_c, 0, 61, 98
1, 266241, Note_on_c, 0, 52, 75
1, 266242, Note_on_c, 0, 71, 82
1, 266243, Note_on_c, 0, 59, 78
1, 266247, Note_on_c, 0, 44, 69
1, 266247, Control_c, 0, 64, 65
1, 266248, Note_on_c, 0, 56, 72
1, 266251, Note_on_c, 0, 57, 73
1, 266262, Control_c, 0, 64, 85
1, 266263, Note_off_c, 0, 59, 68
1, 266269, Note_off_c, 0, 57, 63
1, 266269, Note_on_c, 0, 70, 37
1, 266271, Note_on_c, 0, 69, 53
1, 266271, Note_off_c, 0, 52, 69
1, 266274, Note_off_c, 0, 56, 65
1, 266277, Control_c, 0, 64, 113
1, 266284, Note_off_c, 0, 61, 59
1, 266285, Note_off_c, 0, 44, 62
1, 266291, Control_c, 0, 64, 127
1, 266293, Note_off_c, 0, 69, 62
1, 266298, Note_off_c, 0, 70, 52
1, 266340, Note_off_c, 0, 71, 30
1, 266380, Poly_aftertouch_c, 0, 59, 127
1, 266411, Poly_aftertouch_c, 0, 59, 0
1, 266513, Control_c, 0, 64, 109
1, 266519, Note_on_c, 0, 71, 92
1, 266520, Note_on_c, 0, 51, 82
1, 266520, Note_on_c, 0, 63, 99
1, 266521, Note_on_c, 0, 59, 91
1, 266525, Note_on_c, 0, 44, 72
1, 266527, Note_on_c, 0, 56, 79
1, 266528, Control_c, 0, 64, 82
1, 266543, Control_c, 0, 64, 0
1, 266603, Control_c, 0, 64, 68
1, 266617, Control_c, 0, 64, 84
1, 266632, Control_c, 0, 64, 106
1, 266641, Note_off_c, 0, 56, 54
1, 266646, Note_off_c, 0, 44, 53
1, 266647, Control_c, 0, 64, 127
1, 266653, Note_off_c, 0, 51, 57
1, 266656, Note_off_c, 0, 59, 57
1, 266667, Note_off_c, 0, 63, 58
1, 266712, Note_off_c, 0, 71, 53
1, 266773, Control_c, 0, 64, 115
1, 266787, Control_c, 0, 64, 85
1, 266798, Note_on_c, 0, 44, 69
1, 266800, Note_on_c, 0, 49, 79
1, 266801, Note_on_c, 0, 56, 82
1, 266801, Note_on_c, 0, 59, 86
1, 266801, Note_on_c, 0, 71, 92
1, 266802, Note_on_c, 0, 64, 91
1, 266802, Control_c, 0, 64, 0
1, 266872, Note_on_c, 0, 60, 2
1, 266873, Note_off_c, 0, 60, 127
1, 266877, Control_c, 0, 64, 68
1, 266891, Control_c, 0, 64, 82
1, 266906, Control_c, 0, 64, 97
1, 266921, Control_c, 0, 64, 111
1, 266935, Control_c, 0, 64, 121
1, 266937, Note_off_c, 0, 44, 54
1, 266950, Control_c, 0, 64, 127
1, 266959, Note_off_c, 0, 49, 61
1, 266959, Note_off_c, 0, 59, 59
1, 266960, Note_off_c, 0, 56, 59
1, 266964, Note_off_c, 0, 71, 58
1, 266990, Note_on_c, 0, 66, 91
1, 266992, Note_on_c, 0, 51, 54
1, 266993, Note_off_c, 0, 51, 127
1, 266995, Note_off_c, 0, 64, 67
1, 266999, Note_on_c, 0, 52, 85
1, 267020, Poly_aftertouch_c, 0, 51, 0
1, 267029, Note_off_c, 0, 66, 68
1, 267057, Note_off_c, 0, 52, 63
1, 267070, Control_c, 0, 64, 121
1, 267072, Note_on_c, 0, 68, 93
1, 267077, Note_on_c, 0, 56, 82
1, 267085, Control_c, 0, 64, 87
1, 267100, Control_c, 0, 64, 0
1, 267103, Note_off_c, 0, 56, 68
1, 267118, Note_off_c, 0, 68, 62
1, 267183, Note_on_c, 0, 59, 90
1, 267184, Note_on_c, 0, 71, 94
1, 267201, Note_off_c, 0, 59, 72
1, 267207, Note_off_c, 0, 71, 62
1, 267316, Note_on_c, 0, 61, 99
1, 267320, Note_on_c, 0, 54, 79
1, 267322, Note_on_c, 0, 63, 83
1, 267322, Note_on_c, 0, 73, 86
1, 267326, Note_on_c, 0, 57, 73
1, 267328, Note_on_c, 0, 45, 73
1, 267337, Note_off_c, 0, 61, 63
1, 267337, Control_c, 0, 64, 52
1, 267343, Note_off_c, 0, 63, 70
1, 267349, Note_off_c, 0, 57, 66
1, 267352, Control_c, 0, 64, 88
1, 267357, Note_off_c, 0, 54, 63
1, 267361, Note_off_c, 0, 45, 64
1, 267367, Control_c, 0, 64, 115
1, 267381, Control_c, 0, 64, 127
1, 267404, Note_off_c, 0, 73, 57
1, 267581, Control_c, 0, 64, 100
1, 267591, Note_on_c, 0, 61, 100
1, 267592, Note_on_c, 0, 64, 93
1, 267592, Note_on_c, 0, 73, 93
1, 267596, Control_c, 0, 64, 74
1, 267598, Note_on_c, 0, 52, 85
1, 267600, Note_on_c, 0, 57, 77
1, 267604, Note_on_c, 0, 45, 71
1, 267611, Control_c, 0, 64, 0
1, 267645, Note_off_c, 0, 57, 59
1, 267655, Note_off_c, 0, 52, 66
1, 267655, Control_c, 0, 64, 70
1, 267670, Control_c, 0, 64, 87
1, 267681, Note_off_c, 0, 45, 58
1, 267685, Control_c, 0, 64, 117
1, 267700, Control_c, 0, 64, 127
1, 267712, Note_off_c, 0, 61, 60
1, 267712, Note_off_c, 0, 64, 61
1, 267723, Note_off_c, 0, 73, 58
1, 267864, Control_c, 0, 64, 121
1, 267875, Note_on_c, 0, 51, 94
1, 267877, Note_on_c, 0, 45, 86
1, 267877, Note_on_c, 0, 66, 101
1, 267878, Note_on_c, 0, 57, 85
1, 267878, Note_on_c, 0, 61, 102
1, 267878, Control_c, 0, 64, 87
1, 267880, Note_on_c, 0, 73, 91
1, 267893, Control_c, 0, 64, 33
1, 267903, Note_off_c, 0, 57, 65
1, 267908, Control_c, 0, 64, 0
1, 267923, Note_off_c, 0, 51, 65
1, 267929, Note_off_c, 0, 45, 64
1, 267929, Note_off_c, 0, 73, 65
1, 267938, Control_c, 0, 64, 49
1, 267940, Note_off_c, 0, 66, 67
1, 267944, Note_off_c, 0, 61, 57
1, 267953, Control_c, 0, 64, 73
1, 267968, Control_c, 0, 64, 95
1, 267982, Control_c, 0, 64, 127
1, 268153, Note_on_c, 0, 54, 87
1, 268156, Note_on_c, 0, 66, 87
1, 268189, Control_c, 0, 64, 84
1, 268195, Note_off_c, 0, 54, 65
1, 268197, Note_off_c, 0, 66, 67
1, 268204, Control_c, 0, 64, 0
1, 268282, Note_on_c, 0, 57, 91
1, 268286, Note_on_c, 0, 69, 91
1, 268305, Note_off_c, 0, 57, 66
1, 268305, Note_off_c, 0, 69, 70
1, 268433, Note_on_c, 0, 59, 98
1, 268435, Note_on_c, 0, 61, 94
1, 268435, Note_on_c, 0, 71, 92
1, 268440, Note_on_c, 0, 52, 79
1, 268445, Note_on_c, 0, 56, 74
1, 268449, Note_on_c, 0, 44, 68
1, 268449, Control_c, 0, 64, 65
1, 268451, Note_off_c, 0, 59, 71
1, 268460, Note_off_c, 0, 61, 65
1, 268463, Control_c, 0, 64, 88
1, 268466, Note_off_c, 0, 52, 70
1, 268472, Note_off_c, 0, 56, 63
1, 268472, Note_off_c, 0, 71, 62
1, 268478, Control_c, 0, 64, 127
1, 268489, Note_off_c, 0, 44, 57
1, 268716, Control_c, 0, 64, 98
1, 268729, Note_on_c, 0, 51, 83
1, 268730, Note_on_c, 0, 44, 72
1, 268731, Note_on_c, 0, 56, 85
1, 268731, Note_on_c, 0, 63, 107
1, 268731, Control_c, 0, 64, 72
1, 268734, Note_on_c, 0, 71, 92
1, 268737, Note_on_c, 0, 59, 95
1, 268746, Control_c, 0, 64, 0
1, 268777, Note_on_c, 0, 57, 20
1, 268778, Note_off_c, 0, 57, 127
1, 268791, Control_c, 0, 64, 66
1, 268805, Control_c, 0, 64, 80
1, 268820, Control_c, 0, 64, 104
1, 268820, Note_off_c, 0, 56, 56
1, 268832, Note_off_c, 0, 59, 61
1, 268834, Note_off_c, 0, 51, 60
1, 268835, Control_c, 0, 64, 127
1, 268850, Note_off_c, 0, 71, 58
1, 268861, Note_off_c, 0, 63, 61
1, 268887, Note_off_c, 0, 44, 37
1, 269020, Control_c, 0, 64, 106
1, 269023, Note_on_c, 0, 44, 71
1, 269032, Note_on_c, 0, 49, 93
1, 269032, Note_on_c, 0, 56, 93
1, 269033, Note_on_c, 0, 59, 100
1, 269035, Note_on_c, 0, 71, 92
1, 269035, Control_c, 0, 64, 75
1, 269036, Note_on_c, 0, 64, 96
1, 269050, Control_c, 0, 64, 0
1, 269071, Note_off_c, 0, 56, 67
1, 269081, Note_off_c, 0, 49, 65
1, 269084, Note_off_c, 0, 44, 64
1, 269091, Note_off_c, 0, 71, 64
1, 269092, Note_off_c, 0, 59, 64
1, 269094, Note_off_c, 0, 64, 66
1, 269094, Control_c, 0, 64, 71
1, 269109, Control_c, 0, 64, 92
1, 269124, Control_c, 0, 64, 127
1, 269328, Note_on_c, 0, 64, 88
1, 269336, Note_on_c, 0, 52, 68
1, 269343, Note_on_c, 0, 53, 70
1, 269365, Note_off_c, 0, 52, 71
1, 269371, Note_off_c, 0, 53, 67
1, 269373, Note_off_c, 0, 64, 66
1, 269377, Control_c, 0, 64, 125
1, 269390, Control_c, 0, 64, 87
1, 269405, Control_c, 0, 64, 0
1, 269468, Note_on_c, 0, 56, 95
1, 269470, Note_on_c, 0, 68, 97
1, 269492, Note_off_c, 0, 56, 67
1, 269494, Note_off_c, 0, 68, 59
1, 269499, Note_on_c, 0, 58, 51
1, 269500, Note_off_c, 0, 58, 127
1, 269525, Note_on_c, 0, 69, 11
1, 269526, Note_off_c, 0, 69, 127
1, 269629, Note_on_c, 0, 57, 99
1, 269631, Note_on_c, 0, 69, 98
1, 269632, Note_on_c, 0, 51, 80
1, 269634, Note_on_c, 0, 60, 87
1, 269635, Note_on_c, 0, 42, 74
1, 269636, Note_on_c, 0, 54, 78
1, 269657, Control_c, 0, 64, 49
1, 269671, Note_off_c, 0, 54, 65
1, 269672, Control_c, 0, 64, 82
1, 269673, Note_off_c, 0, 60, 59
1, 269677, Note_off_c, 0, 57, 55
1, 269679, Note_off_c, 0, 51, 64
1, 269687, Control_c, 0, 64, 103
1, 269694, Note_off_c, 0, 42, 60
1, 269701, Control_c, 0, 64, 127
1, 269740, Note_on_c, 0, 57, 19
1, 269762, Note_off_c, 0, 69, 51
1, 269765, Note_off_c, 0, 57, 50
1, 269931, Control_c, 0, 64, 114
1, 269937, Note_on_c, 0, 61, 100
1, 269939, Note_on_c, 0, 69, 97
1, 269940, Note_on_c, 0, 57, 101
1, 269946, Control_c, 0, 64, 88
1, 269947, Note_on_c, 0, 49, 89
1, 269948, Note_on_c, 0, 54, 86
1, 269953, Note_on_c, 0, 42, 72
1, 269960, Control_c, 0, 64, 60
1, 269975, Control_c, 0, 64, 0
1, 270005, Control_c, 0, 64, 41
1, 270020, Control_c, 0, 64, 74
1, 270034, Control_c, 0, 64, 92
1, 270042, Note_off_c, 0, 54, 53
1, 270049, Note_off_c, 0, 57, 48
1, 270049, Control_c, 0, 64, 125
1, 270057, Note_off_c, 0, 42, 56
1, 270064, Control_c, 0, 64, 127
1, 270081, Note_off_c, 0, 69, 54
1, 270089, Note_off_c, 0, 49, 46
1, 270099, Note_off_c, 0, 61, 59
1, 270244, Control_c, 0, 64, 109
1, 270245, Note_on_c, 0, 57, 102
1, 270247, Note_on_c, 0, 42, 84
1, 270247, Note_on_c, 0, 63, 99
1, 270247, Note_on_c, 0, 69, 91
1, 270249, Note_on_c, 0, 54, 90
1, 270250, Note_on_c, 0, 48, 93
1, 270258, Control_c, 0, 64, 80
1, 270273, Control_c, 0, 64, 0
1, 270278, Note_on_c, 0, 66, 60
1, 270292, Note_off_c, 0, 54, 63
1, 270296, Note_off_c, 0, 66, 66
1, 270302, Note_off_c, 0, 69, 66
1, 270303, Note_off_c, 0, 48, 67
1, 270303, Note_off_c, 0, 57, 61
1, 270307, Note_off_c, 0, 42, 63
1, 270318, Control_c, 0, 64, 67
1, 270324, Note_off_c, 0, 63, 67
1, 270332, Control_c, 0, 64, 82
1, 270347, Control_c, 0, 64, 103
1, 270362, Control_c, 0, 64, 127
1, 270567, Note_on_c, 0, 51, 95
1, 270567, Note_on_c, 0, 63, 91
1, 270591, Control_c, 0, 64, 110
1, 270606, Control_c, 0, 64, 80
1, 270610, Note_off_c, 0, 51, 65
1, 270621, Control_c, 0, 64, 0
1, 270628, Note_off_c, 0, 63, 66
1, 270698, Note_on_c, 0, 54, 99
1, 270704, Note_on_c, 0, 66, 93
1, 270734, Note_off_c, 0, 66, 65
1, 270738, Note_off_c, 0, 54, 62
1, 270874, Note_on_c, 0, 56, 95
1, 270874, Note_on_c, 0, 68, 93
1, 270877, Note_on_c, 0, 49, 87
1, 270878, Note_on_c, 0, 58, 93
1, 270886, Note_on_c, 0, 52, 87
1, 270886, Note_on_c, 0, 40, 85
1, 270903, Control_c, 0, 64, 67
1, 270918, Control_c, 0, 64, 88
1, 270922, Note_off_c, 0, 52, 66
1, 270931, Note_off_c, 0, 49, 63
1, 270932, Control_c, 0, 64, 118
1, 270947, Control_c, 0, 64, 127
1, 270950, Note_off_c, 0, 40, 62
1, 270967, Note_off_c, 0, 58, 57
1, 270973, Note_off_c, 0, 56, 59
1, 270981, Note_off_c, 0, 68, 60
1, 271170, Control_c, 0, 64, 118
1, 271185, Control_c, 0, 64, 92
1, 271186, Note_on_c, 0, 48, 86
1, 271189, Note_on_c, 0, 60, 97
1, 271190, Note_on_c, 0, 52, 89
1, 271190, Note_on_c, 0, 56, 98
1, 271192, Note_on_c, 0, 40, 82
1, 271192, Note_on_c, 0, 68, 91
1, 271200, Control_c, 0, 64, 69
1, 271214, Control_c, 0, 64, 0
1, 271263, Note_off_c, 0, 52, 65
1, 271267, Control_c, 0, 64, 69
1, 271277, Note_off_c, 0, 48, 66
1, 271281, Control_c, 0, 64, 81
1, 271296, Control_c, 0, 64, 95
1, 271301, Note_off_c, 0, 40, 61
1, 271311, Control_c, 0, 64, 107
1, 271320, Note_off_c, 0, 56, 56
1, 271326, Control_c, 0, 64, 116
1, 271327, Note_off_c, 0, 68, 58
1, 271336, Note_off_c, 0, 60, 59
1, 271341, Control_c, 0, 64, 122
1, 271355, Control_c, 0, 64, 127
1, 271533, Control_c, 0, 64, 110
1, 271546, Note_on_c, 0, 40, 84
1, 271548, Note_on_c, 0, 46, 92
1, 271548, Note_on_c, 0, 52, 87
1, 271548, Control_c, 0, 64, 78
1, 271551, Note_on_c, 0, 56, 101
1, 271551, Note_on_c, 0, 61, 95
1, 271552, Note_on_c, 0, 68, 94
1, 271563, Control_c, 0, 64, 0
1, 271595, Note_off_c, 0, 52, 67
1, 271607, Control_c, 0, 64, 52
1, 271615, Note_off_c, 0, 46, 64
1, 271616, Note_off_c, 0, 40, 65
1, 271621, Note_off_c, 0, 68, 66
1, 271622, Control_c, 0, 64, 74
1, 271637, Control_c, 0, 64, 99
1, 271640, Note_off_c, 0, 61, 66
1, 271642, Note_off_c, 0, 56, 66
1, 271652, Control_c, 0, 64, 127
1, 271886, Note_on_c, 0, 49, 92
1, 271888, Note_on_c, 0, 61, 89
1, 271890, Control_c, 0, 64, 122
1, 271904, Control_c, 0, 64, 92
1, 271919, Control_c, 0, 64, 64
1, 271929, Note_off_c, 0, 49, 63
1, 271934, Control_c, 0, 64, 0
1, 271943, Note_off_c, 0, 61, 62
1, 272081, Note_on_c, 0, 52, 90
1, 272085, Note_on_c, 0, 64, 85
1, 272099, Note_off_c, 0, 52, 71
1, 272138, Note_off_c, 0, 64, 64
1, 272331, Note_on_c, 0, 66, 98
1, 272332, Note_on_c, 0, 54, 98
1, 272333, Note_on_c, 0, 56, 86
1, 272337, Note_on_c, 0, 44, 78
1, 272337, Note_on_c, 0, 51, 77
1, 272341, Note_on_c, 0, 39, 65
1, 272341, Control_c, 0, 64, 69
1, 272351, Note_off_c, 0, 54, 70
1, 272356, Note_off_c, 0, 56, 70
1, 272356, Control_c, 0, 64, 91
1, 272362, Note_off_c, 0, 51, 66
1, 272366, Note_off_c, 0, 44, 69
1, 272369, Note_off_c, 0, 66, 66
1, 272370, Note_off_c, 0, 39, 64
1, 272371, Control_c, 0, 64, 127
1, 272739, Note_on_c, 0, 60, 88
1, 272740, Note_on_c, 0, 48, 93
1, 272771, Note_off_c, 0, 48, 64
1, 272780, Note_off_c, 0, 60, 65
1, 272794, Control_c, 0, 64, 92
1, 272809, Control_c, 0, 64, 62
1, 272824, Control_c, 0, 64, 0
1, 272945, Note_on_c, 0, 51, 88
1, 272946, Note_on_c, 0, 63, 89
1, 272981, Note_off_c, 0, 51, 59
1, 273032, Note_off_c, 0, 63, 31
1, 273181, Note_on_c, 0, 64, 86
1, 273183, Note_on_c, 0, 52, 96
1, 273185, Note_on_c, 0, 44, 76
1, 273186, Note_on_c, 0, 37, 66
1, 273187, Note_on_c, 0, 49, 74
1, 273187, Note_on_c, 0, 56, 89
1, 273193, Control_c, 0, 64, 71
1, 273208, Control_c, 0, 64, 87
1, 273215, Note_off_c, 0, 49, 64
1, 273216, Note_off_c, 0, 44, 70
1, 273223, Note_off_c, 0, 37, 68
1, 273223, Control_c, 0, 64, 107
1, 273232, Note_off_c, 0, 52, 67
1, 273236, Note_off_c, 0, 64, 66
1, 273238, Control_c, 0, 64, 124
1, 273252, Note_off_c, 0, 56, 64
1, 273253, Control_c, 0, 64, 127
1, 273686, Note_on_c, 0, 46, 94
1, 273691, Note_on_c, 0, 58, 83
1, 273727, Note_off_c, 0, 46, 64
1, 273744, Note_off_c, 0, 58, 65
1, 273898, Control_c, 0, 64, 117
1, 273913, Control_c, 0, 64, 102
1, 273927, Control_c, 0, 64, 86
1, 273942, Control_c, 0, 64, 55
1, 273957, Control_c, 0, 64, 0
1, 273981, Note_on_c, 0, 49, 94
1, 273981, Note_on_c, 0, 61, 91
1, 274215, Note_on_c, 0, 32, 92
1, 274231, Note_off_c, 0, 49, 63
1, 274262, Control_c, 0, 64, 72
1, 274266, Note_off_c, 0, 61, 63
1, 274277, Control_c, 0, 64, 89
1, 274285, Note_off_c, 0, 32, 64
1, 274292, Control_c, 0, 64, 104
1, 274306, Control_c, 0, 64, 108
1, 274321, Control_c, 0, 64, 111
1, 274336, Control_c, 0, 64, 117
1, 274351, Control_c, 0, 64, 127
1, 274601, Note_on_c, 0, 63, 88
1, 274603, Note_on_c, 0, 56, 82
1, 274606, Note_on_c, 0, 51, 79
1, 274608, Note_on_c, 0, 44, 67
1, 274608, Note_on_c, 0, 49, 72
1, 275654, Note_on_c, 0, 48, 57
1, 275662, Control_c, 0, 64, 119
1, 275677, Control_c, 0, 64, 111
1, 275683, Note_off_c, 0, 49, 61
1, 275691, Control_c, 0, 64, 104
1, 275706, Control_c, 0, 64, 98
1, 275729, Control_c, 0, 64, 91
1, 275744, Control_c, 0, 64, 83
1, 275760, Control_c, 0, 64, 72
1, 275775, Control_c, 0, 64, 60
1, 275790, Control_c, 0, 64, 0
1, 275938, Control_c, 0, 64, 61
1, 275952, Control_c, 0, 64, 68
1, 275967, Control_c, 0, 64, 72
1, 275982, Control_c, 0, 64, 76
1, 275996, Control_c, 0, 64, 78
1, 276011, Control_c, 0, 64, 80
1, 276026, Control_c, 0, 64, 82
1, 276041, Control_c, 0, 64, 84
1, 276056, Control_c, 0, 64, 86
1, 276070, Control_c, 0, 64, 88
1, 276085, Control_c, 0, 64, 89
1, 276100, Control_c, 0, 64, 91
1, 276115, Control_c, 0, 64, 92
1, 276129, Control_c, 0, 64, 93
1, 276143, Control_c, 0, 64, 94
1, 276158, Control_c, 0, 64, 96
1, 276173, Control_c, 0, 64, 98
1, 276188, Control_c, 0, 64, 102
1, 276202, Control_c, 0, 64, 105
1, 276217, Control_c, 0, 64, 108
1, 276232, Control_c, 0, 64, 111
1, 276247, Control_c, 0, 64, 113
1, 276262, Control_c, 0, 64, 114
1, 276276, Control_c, 0, 64, 115
1, 276291, Control_c, 0, 64, 116
1, 276306, Control_c, 0, 64, 117
1, 276320, Control_c, 0, 64, 118
1, 276325, Note_off_c, 0, 51, 53
1, 276335, Control_c, 0, 64, 119
1, 276350, Control_c, 0, 64, 121
1, 276363, Note_off_c, 0, 56, 50
1, 276365, Control_c, 0, 64, 122
1, 276380, Control_c, 0, 64, 123
1, 276395, Control_c, 0, 64, 123
1, 276400, Note_off_c, 0, 63, 58
1, 276410, Control_c, 0, 64, 124
1, 276425, Control_c, 0, 64, 125
1, 276440, Control_c, 0, 64, 126
1, 276454, Control_c, 0, 64, 126
1, 276560, Note_off_c, 0, 44, 36
1, 276638, Note_off_c, 0, 48, 32
1, 276863, Control_c, 0, 64, 126
1, 276908, Control_c, 0, 64, 125
1, 276923, Control_c, 0, 64, 125
1, 276952, Control_c, 0, 64, 123
1, 276967, Control_c, 0, 64, 121
1, 276980, Note_on_c, 0, 42, 38
1, 276982, Control_c, 0, 64, 119
1, 276985, Note_on_c, 0, 57, 48
1, 276996, Note_on_c, 0, 54, 38
1, 276997, Control_c, 0, 64, 114
1, 276997, Note_on_c, 0, 66, 51
1, 277000, Note_on_c, 0, 49, 36
1, 277012, Control_c, 0, 64, 110
1, 277026, Control_c, 0, 64, 106
1, 277041, Control_c, 0, 64, 100
1, 277056, Control_c, 0, 64, 92
1, 277071, Control_c, 0, 64, 83
1, 277086, Control_c, 0, 64, 72
1, 277100, Control_c, 0, 64, 40
1, 277115, Control_c, 0, 64, 0
1, 277189, Control_c, 0, 64, 56
1, 277204, Control_c, 0, 64, 66
1, 277226, Control_c, 0, 64, 73
1, 277241, Control_c, 0, 64, 80
1, 277256, Control_c, 0, 64, 85
1, 277271, Control_c, 0, 64, 87
1, 277286, Control_c, 0, 64, 89
1, 277300, Control_c, 0, 64, 91
1, 277315, Control_c, 0, 64, 93
1, 277320, Note_off_c, 0, 54, 53
1, 277330, Control_c, 0, 64, 95
1, 277333, Note_off_c, 0, 57, 62
1, 277346, Control_c, 0, 64, 97
1, 277347, Note_off_c, 0, 66, 58
1, 277361, Control_c, 0, 64, 97
1, 277362, Note_off_c, 0, 42, 42
1, 277375, Control_c, 0, 64, 98
1, 277390, Note_off_c, 0, 49, 40
1, 277480, Note_on_c, 0, 56, 61
1, 277480, Note_on_c, 0, 63, 63
1, 277482, Note_on_c, 0, 44, 45
1, 277494, Note_on_c, 0, 48, 41
1, 277495, Note_on_c, 0, 51, 52
1, 277509, Control_c, 0, 64, 97
1, 277523, Control_c, 0, 64, 95
1, 277538, Control_c, 0, 64, 90
1, 277553, Control_c, 0, 64, 83
1, 277567, Control_c, 0, 64, 70
1, 277582, Control_c, 0, 64, 25
1, 277597, Control_c, 0, 64, 0
1, 277641, Control_c, 0, 64, 64
1, 277656, Control_c, 0, 64, 72
1, 277671, Control_c, 0, 64, 83
1, 277686, Control_c, 0, 64, 88
1, 277701, Control_c, 0, 64, 90
1, 277712, Note_off_c, 0, 51, 62
1, 277716, Control_c, 0, 64, 91
1, 277730, Control_c, 0, 64, 93
1, 277745, Note_off_c, 0, 56, 63
1, 277745, Control_c, 0, 64, 94
1, 277760, Control_c, 0, 64, 96
1, 277775, Control_c, 0, 64, 97
1, 277805, Control_c, 0, 64, 97
1, 277823, Note_off_c, 0, 44, 39
1, 277894, Note_off_c, 0, 48, 41
1, 277897, Note_on_c, 0, 66, 75
1, 277898, Note_on_c, 0, 42, 49
1, 277898, Note_on_c, 0, 54, 53
1, 277903, Note_on_c, 0, 49, 45
1, 277903, Note_on_c, 0, 57, 71
1, 277909, Control_c, 0, 64, 96
1, 277923, Control_c, 0, 64, 92
1, 277938, Control_c, 0, 64, 85
1, 277953, Control_c, 0, 64, 70
1, 277975, Control_c, 0, 64, 0
1, 277979, Note_off_c, 0, 63, 33
1, 278034, Control_c, 0, 64, 58
1, 278049, Control_c, 0, 64, 72
1, 278064, Control_c, 0, 64, 82
1, 278079, Control_c, 0, 64, 89
1, 278084, Note_off_c, 0, 66, 67
1, 278093, Note_off_c, 0, 54, 62
1, 278093, Control_c, 0, 64, 93
1, 278097, Note_off_c, 0, 49, 62
1, 278097, Note_off_c, 0, 42, 62
1, 278108, Control_c, 0, 64, 96
1, 278123, Control_c, 0, 64, 98
1, 278129, Note_off_c, 0, 57, 61
1, 278138, Control_c, 0, 64, 100
1, 278154, Control_c, 0, 64, 104
1, 278169, Control_c, 0, 64, 108
1, 278183, Control_c, 0, 64, 111
1, 278198, Control_c, 0, 64, 113
1, 278213, Control_c, 0, 64, 114
1, 278243, Control_c, 0, 64, 114
1, 278300, Note_on_c, 0, 56, 73
1, 278302, Control_c, 0, 64, 114
1, 278303, Note_on_c, 0, 63, 76
1, 278306, Note_on_c, 0, 51, 63
1, 278317, Note_on_c, 0, 48, 50
1, 278317, Control_c, 0, 64, 111
1, 278324, Note_on_c, 0, 44, 51
1, 278332, Control_c, 0, 64, 101
1, 278346, Control_c, 0, 64, 83
1, 278361, Control_c, 0, 64, 64
1, 278376, Control_c, 0, 64, 0
1, 278435, Control_c, 0, 64, 69
1, 278450, Control_c, 0, 64, 79
1, 278464, Control_c, 0, 64, 89
1, 278479, Control_c, 0, 64, 96
1, 278494, Control_c, 0, 64, 99
1, 278502, Note_off_c, 0, 51, 63
1, 278509, Control_c, 0, 64, 101
1, 278514, Note_off_c, 0, 48, 64
1, 278514, Note_off_c, 0, 44, 62
1, 278524, Control_c, 0, 64, 105
1, 278538, Note_off_c, 0, 63, 63
1, 278539, Control_c, 0, 64, 109
1, 278541, Note_off_c, 0, 56, 63
1, 278553, Control_c, 0, 64, 112
1, 278568, Control_c, 0, 64, 115
1, 278583, Control_c, 0, 64, 116
1, 278598, Control_c, 0, 64, 116
1, 278796, Note_on_c, 0, 66, 80
1, 278797, Control_c, 0, 64, 116
1, 278799, Note_on_c, 0, 57, 77
1, 278806, Note_on_c, 0, 42, 57
1, 278807, Note_on_c, 0, 54, 67
1, 278809, Note_on_c, 0, 49, 57
1, 278812, Control_c, 0, 64, 110
1, 278827, Control_c, 0, 64, 98
1, 278842, Control_c, 0, 64, 81
1, 278857, Control_c, 0, 64, 51
1, 278872, Control_c, 0, 64, 0
1, 278917, Control_c, 0, 64, 59
1, 278931, Control_c, 0, 64, 71
1, 278947, Note_off_c, 0, 49, 64
1, 278947, Control_c, 0, 64, 80
1, 278961, Note_off_c, 0, 42, 63
1, 278962, Control_c, 0, 64, 88
1, 278976, Control_c, 0, 64, 92
1, 278991, Control_c, 0, 64, 93
1, 279006, Control_c, 0, 64, 95
1, 279021, Control_c, 0, 64, 95
1, 279051, Control_c, 0, 64, 96
1, 279243, Control_c, 0, 64, 95
1, 279258, Control_c, 0, 64, 89
1, 279273, Control_c, 0, 64, 75
1, 279287, Control_c, 0, 64, 0
1, 279314, Note_on_c, 0, 32, 72
1, 279361, Note_off_c, 0, 57, 63
1, 279365, Note_off_c, 0, 54, 62
1, 279373, Note_off_c, 0, 66, 64
1, 279406, Control_c, 0, 64, 54
1, 279413, Note_off_c, 0, 32, 64
1, 279420, Control_c, 0, 64, 75
1, 279435, Control_c, 0, 64, 88
1, 279450, Control_c, 0, 64, 100
1, 279473, Control_c, 0, 64, 105
1, 279488, Control_c, 0, 64, 107
1, 279502, Control_c, 0, 64, 110
1, 279517, Control_c, 0, 64, 113
1, 279532, Control_c, 0, 64, 118
1, 279546, Control_c, 0, 64, 124
1, 279561, Control_c, 0, 64, 127
1, 279645, Note_on_c, 0, 56, 68
1, 279650, Note_on_c, 0, 63, 78
1, 279655, Note_on_c, 0, 49, 51
1, 279657, Note_on_c, 0, 51, 65
1, 279662, Note_on_c, 0, 44, 49
1, 280796, Note_on_c, 0, 48, 50
1, 280830, Control_c, 0, 64, 123
1, 280845, Control_c, 0, 64, 113
1, 280857, Note_off_c, 0, 49, 57
1, 280859, Control_c, 0, 64, 105
1, 280874, Control_c, 0, 64, 96
1, 280889, Control_c, 0, 64, 85
1, 280904, Control_c, 0, 64, 73
1, 280918, Control_c, 0, 64, 23
1, 280933, Control_c, 0, 64, 0
1, 281015, Control_c, 0, 64, 14
1, 281030, Control_c, 0, 64, 61
1, 281045, Control_c, 0, 64, 66
1, 281060, Control_c, 0, 64, 70
1, 281074, Control_c, 0, 64, 74
1, 281089, Control_c, 0, 64, 76
1, 281104, Control_c, 0, 64, 77
1, 281118, Control_c, 0, 64, 79
1, 281133, Control_c, 0, 64, 82
1, 281148, Control_c, 0, 64, 84
1, 281163, Control_c, 0, 64, 87
1, 281178, Control_c, 0, 64, 89
1, 281192, Control_c, 0, 64, 91
1, 281207, Control_c, 0, 64, 94
1, 281222, Control_c, 0, 64, 96
1, 281237, Control_c, 0, 64, 98
1, 281252, Control_c, 0, 64, 101
1, 281266, Control_c, 0, 64, 102
1, 281281, Control_c, 0, 64, 104
1, 281296, Control_c, 0, 64, 106
1, 281310, Control_c, 0, 64, 107
1, 281325, Control_c, 0, 64, 108
1, 281342, Control_c, 0, 64, 109
1, 281357, Control_c, 0, 64, 110
1, 281371, Control_c, 0, 64, 111
1, 281386, Control_c, 0, 64, 111
1, 281401, Control_c, 0, 64, 112
1, 281415, Control_c, 0, 64, 112
1, 281430, Control_c, 0, 64, 113
1, 281460, Control_c, 0, 64, 113
1, 281468, Note_off_c, 0, 51, 61
1, 281470, Note_off_c, 0, 63, 59
1, 281475, Control_c, 0, 64, 114
1, 281489, Control_c, 0, 64, 114
1, 281504, Control_c, 0, 64, 115
1, 281519, Control_c, 0, 64, 115
1, 281531, Note_off_c, 0, 56, 55
1, 281534, Control_c, 0, 64, 116
1, 281564, Control_c, 0, 64, 116
1, 281572, Note_off_c, 0, 44, 34
1, 281579, Control_c, 0, 64, 117
1, 281642, Note_off_c, 0, 48, 26
1, 282119, Control_c, 0, 64, 116
1, 282135, Control_c, 0, 64, 116
1, 282150, Control_c, 0, 64, 115
1, 282153, Note_on_c, 0, 57, 47
1, 282154, Note_on_c, 0, 42, 40
1, 282155, Note_on_c, 0, 66, 48
1, 282160, Note_on_c, 0, 49, 23
1, 282164, Control_c, 0, 64, 112
1, 282169, Note_on_c, 0, 54, 23
1, 282179, Control_c, 0, 64, 109
1, 282194, Control_c, 0, 64, 104
1, 282209, Control_c, 0, 64, 98
1, 282224, Control_c, 0, 64, 89
1, 282238, Control_c, 0, 64, 79
1, 282253, Control_c, 0, 64, 68
1, 282268, Control_c, 0, 64, 0
1, 282327, Control_c, 0, 64, 62
1, 282342, Control_c, 0, 64, 69
1, 282357, Control_c, 0, 64, 75
1, 282372, Control_c, 0, 64, 79
1, 282386, Control_c, 0, 64, 81
1, 282401, Control_c, 0, 64, 82
1, 282416, Control_c, 0, 64, 84
1, 282431, Control_c, 0, 64, 87
1, 282442, Note_off_c, 0, 57, 62
1, 282446, Control_c, 0, 64, 90
1, 282468, Control_c, 0, 64, 92
1, 282477, Note_off_c, 0, 66, 56
1, 282483, Control_c, 0, 64, 94
1, 282489, Note_off_c, 0, 54, 40
1, 282494, Note_off_c, 0, 42, 42
1, 282498, Control_c, 0, 64, 95
1, 282512, Control_c, 0, 64, 95
1, 282513, Note_off_c, 0, 49, 40
1, 282654, Note_on_c, 0, 56, 56
1, 282655, Note_on_c, 0, 63, 59
1, 282661, Control_c, 0, 64, 95
1, 282661, Note_on_c, 0, 44, 35
1, 282664, Note_on_c, 0, 48, 43
1, 282664, Note_on_c, 0, 51, 44
1, 282676, Control_c, 0, 64, 93
1, 282690, Control_c, 0, 64, 91
1, 282705, Control_c, 0, 64, 86
1, 282720, Control_c, 0, 64, 80
1, 282735, Control_c, 0, 64, 71
1, 282750, Control_c, 0, 64, 41
1, 282764, Control_c, 0, 64, 0
1, 282809, Control_c, 0, 64, 52
1, 282824, Control_c, 0, 64, 68
1, 282838, Control_c, 0, 64, 76
1, 282853, Control_c, 0, 64, 81
1, 282868, Control_c, 0, 64, 84
1, 282882, Control_c, 0, 64, 86
1, 282887, Note_off_c, 0, 51, 61
1, 282897, Control_c, 0, 64, 88
1, 282912, Control_c, 0, 64, 90
1, 282927, Control_c, 0, 64, 91
1, 282929, Note_off_c, 0, 56, 61
1, 282943, Control_c, 0, 64, 93
1, 282958, Control_c, 0, 64, 94
1, 282970, Note_off_c, 0, 44, 41
1, 282973, Control_c, 0, 64, 94
1, 283048, Note_off_c, 0, 48, 37
1, 283078, Note_on_c, 0, 49, 42
1, 283083, Note_on_c, 0, 42, 40
1, 283089, Note_on_c, 0, 57, 62
1, 283091, Note_on_c, 0, 66, 70
1, 283102, Note_on_c, 0, 54, 49
1, 283106, Control_c, 0, 64, 93
1, 283121, Control_c, 0, 64, 89
1, 283135, Control_c, 0, 64, 83
1, 283150, Control_c, 0, 64, 74
1, 283165, Control_c, 0, 64, 62
1, 283178, Note_off_c, 0, 63, 44
1, 283180, Control_c, 0, 64, 0
1, 283232, Control_c, 0, 64, 61
1, 283247, Control_c, 0, 64, 71
1, 283261, Control_c, 0, 64, 80
1, 283276, Control_c, 0, 64, 86
1, 283291, Control_c, 0, 64, 88
1, 283306, Control_c, 0, 64, 89
1, 283320, Note_off_c, 0, 54, 61
1, 283320, Control_c, 0, 64, 90
1, 283328, Note_off_c, 0, 66, 62
1, 283335, Control_c, 0, 64, 92
1, 283337, Note_off_c, 0, 42, 43
1, 283344, Note_off_c, 0, 57, 62
1, 283350, Control_c, 0, 64, 94
1, 283352, Note_off_c, 0, 49, 40
1, 283365, Control_c, 0, 64, 96
1, 283380, Control_c, 0, 64, 98
1, 283394, Control_c, 0, 64, 99
1, 283409, Control_c, 0, 64, 99
1, 283543, Control_c, 0, 64, 99
1, 283547, Note_on_c, 0, 56, 68
1, 283547, Note_on_c, 0, 63, 70
1, 283555, Note_on_c, 0, 51, 55
1, 283558, Control_c, 0, 64, 96
1, 283567, Note_on_c, 0, 44, 41
1, 283571, Note_on_c, 0, 48, 38
1, 283573, Control_c, 0, 64, 91
1, 283587, Control_c, 0, 64, 83
1, 283602, Control_c, 0, 64, 70
1, 283618, Control_c, 0, 64, 0
1, 283692, Control_c, 0, 64, 37
1, 283706, Control_c, 0, 64, 65
1, 283721, Control_c, 0, 64, 72
1, 283737, Control_c, 0, 64, 80
1, 283752, Control_c, 0, 64, 88
1, 283767, Control_c, 0, 64, 92
1, 283782, Control_c, 0, 64, 95
1, 283796, Control_c, 0, 64, 99
1, 283811, Control_c, 0, 64, 103
1, 283822, Note_off_c, 0, 51, 62
1, 283826, Control_c, 0, 64, 107
1, 283829, Note_off_c, 0, 48, 48
1, 283831, Note_off_c, 0, 44, 51
1, 283841, Control_c, 0, 64, 112
1, 283856, Control_c, 0, 64, 117
1, 283868, Note_off_c, 0, 56, 61
1, 283871, Control_c, 0, 64, 121
1, 283885, Control_c, 0, 64, 125
1, 283900, Control_c, 0, 64, 127
1, 283919, Note_off_c, 0, 63, 57
1, 284200, Note_on_c, 0, 57, 59
1, 284205, Note_on_c, 0, 42, 47
1, 284205, Note_on_c, 0, 49, 46
1, 284210, Note_on_c, 0, 66, 70
1, 284218, Control_c, 0, 64, 118
1, 284219, Note_on_c, 0, 54, 47
1, 284233, Control_c, 0, 64, 108
1, 284248, Control_c, 0, 64, 97
1, 284263, Control_c, 0, 64, 84
1, 284278, Control_c, 0, 64, 68
1, 284292, Control_c, 0, 64, 0
1, 284351, Control_c, 0, 64, 51
1, 284366, Control_c, 0, 64, 70
1, 284381, Control_c, 0, 64, 78
1, 284396, Control_c, 0, 64, 87
1, 284410, Control_c, 0, 64, 93
1, 284425, Control_c, 0, 64, 97
1, 284440, Control_c, 0, 64, 102
1, 284454, Control_c, 0, 64, 106
1, 284469, Control_c, 0, 64, 112
1, 284484, Control_c, 0, 64, 117
1, 284499, Control_c, 0, 64, 120
1, 284514, Control_c, 0, 64, 123
1, 284530, Control_c, 0, 64, 125
1, 284541, Note_off_c, 0, 42, 62
1, 284545, Control_c, 0, 64, 127
1, 284555, Note_off_c, 0, 66, 66
1, 284557, Note_off_c, 0, 49, 62
1, 284572, Note_off_c, 0, 54, 61
1, 284608, Note_off_c, 0, 57, 61
1, 285230, Note_on_c, 0, 63, 64
1, 285231, Note_on_c, 0, 56, 60
1, 285239, Note_on_c, 0, 51, 50
1, 285241, Note_on_c, 0, 49, 39
1, 285251, Note_on_c, 0, 44, 35
1, 285292, Control_c, 0, 64, 115
1, 285307, Control_c, 0, 64, 106
1, 285322, Control_c, 0, 64, 94
1, 285338, Control_c, 0, 64, 83
1, 285352, Control_c, 0, 64, 70
1, 285367, Control_c, 0, 64, 0
1, 285656, Control_c, 0, 64, 47
1, 285671, Control_c, 0, 64, 60
1, 285686, Control_c, 0, 64, 64
1, 285701, Control_c, 0, 64, 66
1, 285715, Control_c, 0, 64, 70
1, 285730, Control_c, 0, 64, 74
1, 285745, Control_c, 0, 64, 79
1, 285760, Control_c, 0, 64, 81
1, 285775, Control_c, 0, 64, 83
1, 285789, Control_c, 0, 64, 84
1, 285804, Control_c, 0, 64, 86
1, 285819, Control_c, 0, 64, 88
1, 285834, Control_c, 0, 64, 91
1, 285849, Control_c, 0, 64, 94
1, 285863, Control_c, 0, 64, 97
1, 285878, Control_c, 0, 64, 98
1, 285893, Control_c, 0, 64, 100
1, 285907, Control_c, 0, 64, 101
1, 285922, Control_c, 0, 64, 103
1, 285937, Control_c, 0, 64, 104
1, 285952, Control_c, 0, 64, 106
1, 285967, Control_c, 0, 64, 107
1, 285981, Control_c, 0, 64, 109
1, 285996, Control_c, 0, 64, 110
1, 286011, Control_c, 0, 64, 112
1, 286026, Control_c, 0, 64, 113
1, 286041, Control_c, 0, 64, 115
1, 286056, Control_c, 0, 64, 116
1, 286071, Control_c, 0, 64, 117
1, 286086, Control_c, 0, 64, 117
1, 286101, Control_c, 0, 64, 118
1, 286145, Control_c, 0, 64, 118
1, 286449, Control_c, 0, 64, 118
1, 286509, Control_c, 0, 64, 117
1, 286524, Control_c, 0, 64, 117
1, 286538, Control_c, 0, 64, 115
1, 286540, Note_on_c, 0, 48, 43
1, 286553, Control_c, 0, 64, 114
1, 286568, Control_c, 0, 64, 112
1, 286583, Control_c, 0, 64, 110
1, 286598, Control_c, 0, 64, 108
1, 286613, Control_c, 0, 64, 106
1, 286628, Control_c, 0, 64, 104
1, 286643, Control_c, 0, 64, 101
1, 286658, Control_c, 0, 64, 98
1, 286673, Control_c, 0, 64, 94
1, 286682, Note_off_c, 0, 49, 39
1, 286687, Control_c, 0, 64, 89
1, 286702, Control_c, 0, 64, 84
1, 286717, Control_c, 0, 64, 78
1, 286731, Control_c, 0, 64, 71
1, 286746, Control_c, 0, 64, 61
1, 286761, Control_c, 0, 64, 0
1, 286925, Control_c, 0, 64, 45
1, 286940, Control_c, 0, 64, 61
1, 286962, Control_c, 0, 64, 66
1, 286977, Control_c, 0, 64, 69
1, 286992, Control_c, 0, 64, 72
1, 287007, Control_c, 0, 64, 75
1, 287022, Control_c, 0, 64, 77
1, 287036, Control_c, 0, 64, 79
1, 287051, Control_c, 0, 64, 81
1, 287066, Control_c, 0, 64, 82
1, 287081, Control_c, 0, 64, 84
1, 287095, Control_c, 0, 64, 86
1, 287110, Control_c, 0, 64, 88
1, 287125, Control_c, 0, 64, 90
1, 287140, Control_c, 0, 64, 92
1, 287154, Control_c, 0, 64, 93
1, 287169, Control_c, 0, 64, 95
1, 287184, Control_c, 0, 64, 96
1, 287199, Control_c, 0, 64, 98
1, 287214, Control_c, 0, 64, 99
1, 287228, Control_c, 0, 64, 101
1, 287243, Control_c, 0, 64, 102
1, 287258, Control_c, 0, 64, 103
1, 287273, Control_c, 0, 64, 104
1, 287287, Control_c, 0, 64, 105
1, 287302, Control_c, 0, 64, 106
1, 287317, Control_c, 0, 64, 107
1, 287332, Control_c, 0, 64, 107
1, 287347, Control_c, 0, 64, 108
1, 287362, Control_c, 0, 64, 108
1, 287377, Control_c, 0, 64, 109
1, 287391, Control_c, 0, 64, 109
1, 287406, Control_c, 0, 64, 110
1, 287451, Control_c, 0, 64, 110
1, 288007, Control_c, 0, 64, 110
1, 288032, Note_on_c, 0, 47, 35
1, 288052, Control_c, 0, 64, 109
1, 288066, Control_c, 0, 64, 109
1, 288081, Control_c, 0, 64, 108
1, 288096, Control_c, 0, 64, 108
1, 288109, Control_c, 0, 64, 106
1, 288124, Control_c, 0, 64, 103
1, 288139, Control_c, 0, 64, 100
1, 288154, Control_c, 0, 64, 96
1, 288167, Note_off_c, 0, 48, 42
1, 288169, Control_c, 0, 64, 93
1, 288183, Control_c, 0, 64, 88
1, 288198, Control_c, 0, 64, 82
1, 288213, Control_c, 0, 64, 76
1, 288228, Control_c, 0, 64, 70
1, 288243, Control_c, 0, 64, 65
1, 288257, Control_c, 0, 64, 60
1, 288272, Control_c, 0, 64, 61
1, 288287, Control_c, 0, 64, 64
1, 288301, Control_c, 0, 64, 67
1, 288316, Control_c, 0, 64, 70
1, 288331, Control_c, 0, 64, 73
1, 288346, Control_c, 0, 64, 74
1, 288361, Control_c, 0, 64, 75
1, 288405, Control_c, 0, 64, 75
1, 288621, Control_c, 0, 64, 75
1, 288651, Control_c, 0, 64, 74
1, 288680, Control_c, 0, 64, 74
1, 288695, Control_c, 0, 64, 73
1, 288710, Control_c, 0, 64, 72
1, 288721, Note_on_c, 0, 48, 34
1, 288725, Control_c, 0, 64, 72
1, 288739, Control_c, 0, 64, 71
1, 288754, Control_c, 0, 64, 69
1, 288769, Control_c, 0, 64, 67
1, 288784, Control_c, 0, 64, 65
1, 288799, Control_c, 0, 64, 62
1, 288813, Control_c, 0, 64, 58
1, 288828, Control_c, 0, 64, 55
1, 288849, Note_off_c, 0, 47, 44
1, 288873, Control_c, 0, 64, 54
1, 288888, Control_c, 0, 64, 50
1, 288903, Control_c, 0, 64, 41
1, 288918, Control_c, 0, 64, 0
1, 289036, Control_c, 0, 64, 40
1, 289051, Control_c, 0, 64, 60
1, 289066, Control_c, 0, 64, 65
1, 289080, Control_c, 0, 64, 68
1, 289095, Control_c, 0, 64, 70
1, 289110, Control_c, 0, 64, 72
1, 289124, Control_c, 0, 64, 74
1, 289139, Control_c, 0, 64, 76
1, 289154, Control_c, 0, 64, 79
1, 289169, Control_c, 0, 64, 81
1, 289184, Control_c, 0, 64, 83
1, 289206, Control_c, 0, 64, 84
1, 289221, Control_c, 0, 64, 86
1, 289236, Control_c, 0, 64, 87
1, 289250, Control_c, 0, 64, 89
1, 289265, Control_c, 0, 64, 91
1, 289280, Control_c, 0, 64, 92
1, 289295, Control_c, 0, 64, 94
1, 289310, Control_c, 0, 64, 96
1, 289326, Control_c, 0, 64, 98
1, 289341, Control_c, 0, 64, 100
1, 289355, Control_c, 0, 64, 101
1, 289370, Control_c, 0, 64, 103
1, 289385, Control_c, 0, 64, 104
1, 289400, Control_c, 0, 64, 106
1, 289415, Control_c, 0, 64, 107
1, 289429, Control_c, 0, 64, 109
1, 289444, Control_c, 0, 64, 110
1, 289459, Control_c, 0, 64, 112
1, 289474, Control_c, 0, 64, 114
1, 289489, Control_c, 0, 64, 115
1, 289503, Control_c, 0, 64, 117
1, 289518, Control_c, 0, 64, 120
1, 289533, Control_c, 0, 64, 123
1, 289547, Control_c, 0, 64, 127
1, 289562, Control_c, 0, 64, 127
1, 291107, Note_off_c, 0, 44, 29
1, 291213, Note_off_c, 0, 56, 39
1, 291252, Note_off_c, 0, 48, 33
1, 291255, Note_off_c, 0, 51, 35
1, 291267, Control_c, 0, 64, 126
1, 291282, Control_c, 0, 64, 123
1, 291297, Control_c, 0, 64, 122
1, 291312, Control_c, 0, 64, 120
1, 291326, Control_c, 0, 64, 118
1, 291341, Control_c, 0, 64, 117
1, 291356, Control_c, 0, 64, 115
1, 291371, Control_c, 0, 64, 114
1, 291386, Control_c, 0, 64, 113
1, 291401, Control_c, 0, 64, 111
1, 291416, Control_c, 0, 64, 109
1, 291431, Control_c, 0, 64, 108
1, 291452, Control_c, 0, 64, 106
1, 291467, Control_c, 0, 64, 104
1, 291482, Control_c, 0, 64, 102
1, 291497, Control_c, 0, 64, 101
1, 291512, Control_c, 0, 64, 100
1, 291526, Control_c, 0, 64, 98
1, 291541, Control_c, 0, 64, 97
1, 291556, Control_c, 0, 64, 95
1, 291571, Control_c, 0, 64, 93
1, 291586, Control_c, 0, 64, 91
1, 291600, Control_c, 0, 64, 90
1, 291615, Control_c, 0, 64, 88
1, 291630, Control_c, 0, 64, 87
1, 291645, Control_c, 0, 64, 86
1, 291660, Control_c, 0, 64, 84
1, 291675, Control_c, 0, 64, 82
1, 291690, Control_c, 0, 64, 79
1, 291705, Control_c, 0, 64, 76
1, 291720, Control_c, 0, 64, 73
1, 291735, Control_c, 0, 64, 69
1, 291750, Control_c, 0, 64, 65
1, 291764, Control_c, 0, 64, 61
1, 291779, Control_c, 0, 64, 57
1, 291809, Control_c, 0, 64, 57
1, 291839, Control_c, 0, 64, 57
1, 291884, Control_c, 0, 64, 56
1, 291898, Control_c, 0, 64, 55
1, 291913, Control_c, 0, 64, 53
1, 291928, Control_c, 0, 64, 50
1, 291942, Control_c, 0, 64, 50
1, 291987, Control_c, 0, 64, 49
1, 292105, Control_c, 0, 64, 49
1, 292120, Control_c, 0, 64, 48
1, 292149, Control_c, 0, 64, 49
1, 292179, Control_c, 0, 64, 49
1, 292246, Control_c, 0, 64, 50
1, 292261, Control_c, 0, 64, 50
1, 292290, Control_c, 0, 64, 51
1, 292320, Control_c, 0, 64, 52
1, 292349, Control_c, 0, 64, 52
1, 292364, Control_c, 0, 64, 53
1, 292379, Control_c, 0, 64, 53
1, 292394, Control_c, 0, 64, 54
1, 292409, Control_c, 0, 64, 55
1, 292438, Control_c, 0, 64, 55
1, 292498, Control_c, 0, 64, 56
1, 292543, Control_c, 0, 64, 56
1, 292558, Control_c, 0, 64, 57
1, 292572, Control_c, 0, 64, 57
1, 292587, Control_c, 0, 64, 58
1, 292602, Control_c, 0, 64, 58
1, 292617, Control_c, 0, 64, 59
1, 292632, Control_c, 0, 64, 59
1, 292647, Control_c, 0, 64, 60
1, 292677, Control_c, 0, 64, 60
1, 292721, Control_c, 0, 64, 61
1, 292780, Control_c, 0, 64, 61
1, 292795, Control_c, 0, 64, 62
1, 292840, Control_c, 0, 64, 62
1, 292869, Control_c, 0, 64, 63
1, 292884, Control_c, 0, 64, 63
1, 292898, Control_c, 0, 64, 64
1, 292913, Control_c, 0, 64, 64
1, 292928, Control_c, 0, 64, 65
1, 292951, Control_c, 0, 64, 65
1, 292966, Control_c, 0, 64, 66
1, 293010, Control_c, 0, 64, 66
1, 293040, Control_c, 0, 64, 67
1, 293069, Control_c, 0, 64, 67
1, 293084, Control_c, 0, 64, 68
1, 293128, Control_c, 0, 64, 68
1, 293172, Control_c, 0, 64, 69
1, 293187, Control_c, 0, 64, 69
1, 293202, Control_c, 0, 64, 70
1, 293217, Control_c, 0, 64, 70
1, 293232, Control_c, 0, 64, 71
1, 293246, Control_c, 0, 64, 71
1, 293261, Control_c, 0, 64, 72
1, 293276, Control_c, 0, 64, 73
1, 293291, Control_c, 0, 64, 74
1, 293306, Control_c, 0, 64, 74
1, 293321, Control_c, 0, 64, 75
1, 293336, Control_c, 0, 64, 75
1, 293352, Control_c, 0, 64, 76
1, 293367, Control_c, 0, 64, 77
1, 293382, Control_c, 0, 64, 77
1, 293411, Control_c, 0, 64, 78
1, 293426, Control_c, 0, 64, 78
1, 293441, Control_c, 0, 64, 79
1, 293456, Control_c, 0, 64, 79
1, 293470, Control_c, 0, 64, 80
1, 293500, Control_c, 0, 64, 80
1, 293515, Control_c, 0, 64, 81
1, 293529, Control_c, 0, 64, 81
1, 293544, Control_c, 0, 64, 82
1, 293559, Control_c, 0, 64, 83
1, 293574, Control_c, 0, 64, 83
1, 293589, Control_c, 0, 64, 84
1, 293604, Control_c, 0, 64, 85
1, 293619, Control_c, 0, 64, 86
1, 293633, Control_c, 0, 64, 87
1, 293648, Control_c, 0, 64, 88
1, 293663, Control_c, 0, 64, 89
1, 293678, Control_c, 0, 64, 89
1, 293700, Control_c, 0, 64, 90
1, 293715, Control_c, 0, 64, 91
1, 293729, Control_c, 0, 64, 91
1, 293744, Control_c, 0, 64, 92
1, 293759, Control_c, 0, 64, 93
1, 293774, Control_c, 0, 64, 93
1, 293789, Control_c, 0, 64, 94
1, 293803, Control_c, 0, 64, 94
1, 293818, Control_c, 0, 64, 95
1, 293833, Control_c, 0, 64, 96
1, 293848, Control_c, 0, 64, 96
1, 293863, Control_c, 0, 64, 97
1, 293878, Control_c, 0, 64, 98
1, 293893, Control_c, 0, 64, 99
1, 293908, Control_c, 0, 64, 100
1, 293922, Control_c, 0, 64, 101
1, 293937, Control_c, 0, 64, 102
1, 293952, Control_c, 0, 64, 103
1, 293967, Control_c, 0, 64, 104
1, 293982, Control_c, 0, 64, 105
1, 293996, Control_c, 0, 64, 106
1, 294011, Control_c, 0, 64, 107
1, 294026, Control_c, 0, 64, 108
1, 294040, Control_c, 0, 64, 109
1, 294055, Control_c, 0, 64, 111
1, 294070, Control_c, 0, 64, 112
1, 294085, Control_c, 0, 64, 114
1, 294100, Control_c, 0, 64, 115
1, 294116, Control_c, 0, 64, 117
1, 294131, Control_c, 0, 64, 118
1, 294145, Control_c, 0, 64, 120
1, 294160, Control_c, 0, 64, 122
1, 294175, Control_c, 0, 64, 125
1, 294190, Control_c, 0, 64, 127
1, 294922, Note_on_c, 0, 60, 31
1, 294923, Note_on_c, 0, 51, 27
1, 294942, Note_on_c, 0, 55, 31
1, 294959, Note_on_c, 0, 36, 26
1, 294962, Note_on_c, 0, 48, 25
1, 294965, Note_on_c, 0, 43, 26
1, 295136, Note_off_c, 0, 48, 44
1, 295155, Note_off_c, 0, 43, 39
1, 295163, Note_off_c, 0, 63, 38
1, 295192, Note_off_c, 0, 36, 42
1, 295220, Note_off_c, 0, 51, 37
1, 295262, Note_off_c, 0, 55, 42
1, 295360, Control_c, 0, 64, 123
1, 295374, Control_c, 0, 64, 118
1, 295389, Control_c, 0, 64, 115
1, 295404, Control_c, 0, 64, 111
1, 295419, Control_c, 0, 64, 108
1, 295434, Control_c, 0, 64, 105
1, 295449, Control_c, 0, 64, 102
1, 295464, Control_c, 0, 64, 98
1, 295479, Control_c, 0, 64, 94
1, 295493, Control_c, 0, 64, 91
1, 295508, Control_c, 0, 64, 87
1, 295523, Control_c, 0, 64, 83
1, 295538, Control_c, 0, 64, 78
1, 295553, Control_c, 0, 64, 73
1, 295567, Control_c, 0, 64, 66
1, 295582, Control_c, 0, 64, 57
1, 295597, Control_c, 0, 64, 39
1, 295612, Control_c, 0, 64, 29
1, 295626, Control_c, 0, 64, 34
1, 295641, Control_c, 0, 64, 38
1, 295686, Control_c, 0, 64, 37
1, 295716, Control_c, 0, 64, 36
1, 295761, Control_c, 0, 64, 35
1, 295805, Control_c, 0, 64, 36
1, 295850, Control_c, 0, 64, 37
1, 295879, Control_c, 0, 64, 37
1, 295894, Control_c, 0, 64, 38
1, 295908, Control_c, 0, 64, 39
1, 295923, Control_c, 0, 64, 40
1, 295946, Control_c, 0, 64, 40
1, 295961, Control_c, 0, 64, 41
1, 295990, Control_c, 0, 64, 41
1, 296005, Control_c, 0, 64, 42
1, 296020, Control_c, 0, 64, 43
1, 296035, Control_c, 0, 64, 45
1, 296050, Control_c, 0, 64, 46
1, 296064, Control_c, 0, 64, 46
1, 296076, Note_on_c, 0, 63, 47
1, 296079, Control_c, 0, 64, 47
1, 296094, Control_c, 0, 64, 48
1, 296109, Control_c, 0, 64, 48
1, 296123, Control_c, 0, 64, 49
1, 296138, Control_c, 0, 64, 50
1, 296153, Control_c, 0, 64, 51
1, 296168, Control_c, 0, 64, 52
1, 296183, Control_c, 0, 64, 52
1, 296186, Note_off_c, 0, 60, 62
1, 296197, Control_c, 0, 64, 53
1, 296212, Control_c, 0, 64, 54
1, 296242, Control_c, 0, 64, 54
1, 296257, Control_c, 0, 64, 55
1, 296272, Control_c, 0, 64, 55
1, 296286, Control_c, 0, 64, 56
1, 296301, Control_c, 0, 64, 56
1, 296316, Control_c, 0, 64, 57
1, 296495, Control_c, 0, 64, 57
1, 296498, Note_on_c, 0, 60, 52
1, 296525, Control_c, 0, 64, 58
1, 296540, Control_c, 0, 64, 59
1, 296555, Control_c, 0, 64, 60
1, 296570, Control_c, 0, 64, 63
1, 296585, Control_c, 0, 64, 65
1, 296599, Control_c, 0, 64, 69
1, 296602, Note_off_c, 0, 63, 62
1, 296614, Control_c, 0, 64, 76
1, 296629, Control_c, 0, 64, 84
1, 296644, Control_c, 0, 64, 92
1, 296658, Control_c, 0, 64, 99
1, 296673, Control_c, 0, 64, 106
1, 296695, Control_c, 0, 64, 112
1, 296710, Control_c, 0, 64, 119
1, 296725, Control_c, 0, 64, 124
1, 296740, Control_c, 0, 64, 127
1, 296751, Note_off_c, 0, 60, 60
1, 297007, Note_on_c, 0, 65, 55
1, 297008, Note_on_c, 0, 44, 31
1, 297011, Note_on_c, 0, 60, 47
1, 297019, Note_on_c, 0, 53, 38
1, 297021, Control_c, 0, 64, 122
1, 297029, Note_on_c, 0, 48, 34
1, 297036, Control_c, 0, 64, 117
1, 297051, Control_c, 0, 64, 112
1, 297065, Control_c, 0, 64, 106
1, 297080, Control_c, 0, 64, 99
1, 297095, Control_c, 0, 64, 89
1, 297110, Control_c, 0, 64, 80
1, 297125, Control_c, 0, 64, 69
1, 297139, Control_c, 0, 64, 31
1, 297154, Control_c, 0, 64, 0
1, 297199, Control_c, 0, 64, 63
1, 297214, Control_c, 0, 64, 70
1, 297227, Note_off_c, 0, 53, 42
1, 297227, Note_off_c, 0, 48, 44
1, 297228, Control_c, 0, 64, 76
1, 297230, Note_off_c, 0, 44, 42
1, 297243, Control_c, 0, 64, 78
1, 297253, Note_off_c, 0, 60, 58
1, 297303, Control_c, 0, 64, 78
1, 297318, Control_c, 0, 64, 77
1, 297333, Control_c, 0, 64, 76
1, 297348, Control_c, 0, 64, 75
1, 297363, Control_c, 0, 64, 73
1, 297377, Control_c, 0, 64, 70
1, 297392, Control_c, 0, 64, 67
1, 297407, Control_c, 0, 64, 62
1, 297422, Control_c, 0, 64, 52
1, 297444, Control_c, 0, 64, 42
1, 297459, Control_c, 0, 64, 41
1, 297474, Control_c, 0, 64, 43
1, 297488, Control_c, 0, 64, 42
1, 297503, Control_c, 0, 64, 40
1, 297518, Control_c, 0, 64, 40
1, 297548, Control_c, 0, 64, 39
1, 297562, Control_c, 0, 64, 36
1, 297577, Control_c, 0, 64, 30
1, 297592, Control_c, 0, 64, 16
1, 297607, Control_c, 0, 64, 0
1, 298006, Control_c, 0, 64, 11
1, 298021, Control_c, 0, 64, 20
1, 298036, Control_c, 0, 64, 23
1, 298051, Control_c, 0, 64, 26
1, 298066, Control_c, 0, 64, 27
1, 298081, Control_c, 0, 64, 29
1, 298096, Control_c, 0, 64, 32
1, 298111, Control_c, 0, 64, 34
1, 298126, Control_c, 0, 64, 36
1, 298141, Control_c, 0, 64, 39
1, 298156, Control_c, 0, 64, 40
1, 298171, Control_c, 0, 64, 42
1, 298193, Control_c, 0, 64, 45
1, 298208, Control_c, 0, 64, 46
1, 298223, Control_c, 0, 64, 48
1, 298238, Control_c, 0, 64, 50
1, 298253, Control_c, 0, 64, 51
1, 298267, Control_c, 0, 64, 53
1, 298282, Control_c, 0, 64, 55
1, 298297, Control_c, 0, 64, 56
1, 298312, Control_c, 0, 64, 57
1, 298326, Control_c, 0, 64, 58
1, 298356, Control_c, 0, 64, 58
1, 298371, Control_c, 0, 64, 60
1, 298385, Control_c, 0, 64, 61
1, 298400, Control_c, 0, 64, 62
1, 298415, Control_c, 0, 64, 62
1, 298430, Control_c, 0, 64, 63
1, 298445, Control_c, 0, 64, 64
1, 298460, Control_c, 0, 64, 65
1, 298474, Control_c, 0, 64, 66
1, 298489, Control_c, 0, 64, 67
1, 298504, Control_c, 0, 64, 68
1, 298519, Control_c, 0, 64, 69
1, 298534, Control_c, 0, 64, 69
1, 298549, Control_c, 0, 64, 70
1, 298564, Control_c, 0, 64, 71
1, 298579, Control_c, 0, 64, 72
1, 298592, Control_c, 0, 64, 74
1, 298607, Control_c, 0, 64, 76
1, 298622, Control_c, 0, 64, 78
1, 298636, Control_c, 0, 64, 78
1, 298651, Control_c, 0, 64, 79
1, 298666, Control_c, 0, 64, 80
1, 298681, Control_c, 0, 64, 81
1, 298696, Control_c, 0, 64, 82
1, 298710, Control_c, 0, 64, 82
1, 298725, Control_c, 0, 64, 83
1, 298740, Control_c, 0, 64, 84
1, 298755, Control_c, 0, 64, 85
1, 298770, Control_c, 0, 64, 86
1, 298784, Control_c, 0, 64, 88
1, 298799, Control_c, 0, 64, 89
1, 298814, Control_c, 0, 64, 91
1, 298829, Control_c, 0, 64, 92
1, 298844, Control_c, 0, 64, 93
1, 298859, Control_c, 0, 64, 94
1, 298874, Control_c, 0, 64, 95
1, 298889, Control_c, 0, 64, 97
1, 298904, Control_c, 0, 64, 99
1, 298919, Control_c, 0, 64, 100
1, 298941, Control_c, 0, 64, 102
1, 298956, Control_c, 0, 64, 103
1, 298971, Control_c, 0, 64, 104
1, 298986, Control_c, 0, 64, 104
1, 298996, Note_on_c, 0, 39, 24
1, 299001, Control_c, 0, 64, 105
1, 299010, Note_on_c, 0, 51, 29
1, 299011, Note_on_c, 0, 67, 51
1, 299012, Note_on_c, 0, 60, 46
1, 299015, Note_on_c, 0, 43, 35
1, 299019, Note_on_c, 0, 48, 39
1, 299020, Note_on_c, 0, 55, 23
1, 299030, Control_c, 0, 64, 105
1, 299074, Control_c, 0, 64, 105
1, 299104, Control_c, 0, 64, 102
1, 299119, Control_c, 0, 64, 97
1, 299127, Note_off_c, 0, 65, 57
1, 299134, Control_c, 0, 64, 90
1, 299148, Control_c, 0, 64, 81
1, 299163, Control_c, 0, 64, 73
1, 299178, Control_c, 0, 64, 64
1, 299193, Control_c, 0, 64, 48
1, 299208, Control_c, 0, 64, 54
1, 299223, Control_c, 0, 64, 63
1, 299233, Note_off_c, 0, 55, 42
1, 299238, Control_c, 0, 64, 69
1, 299252, Control_c, 0, 64, 73
1, 299268, Note_off_c, 0, 60, 60
1, 299281, Note_off_c, 0, 51, 48
1, 299282, Control_c, 0, 64, 72
1, 299285, Note_off_c, 0, 39, 50
1, 299287, Note_off_c, 0, 48, 51
1, 299297, Control_c, 0, 64, 70
1, 299312, Control_c, 0, 64, 68
1, 299320, Note_off_c, 0, 43, 40
1, 299327, Control_c, 0, 64, 65
1, 299341, Control_c, 0, 64, 62
1, 299356, Control_c, 0, 64, 55
1, 299371, Control_c, 0, 64, 49
1, 299386, Control_c, 0, 64, 44
1, 299401, Control_c, 0, 64, 43
1, 299430, Control_c, 0, 64, 40
1, 299445, Control_c, 0, 64, 29
1, 299459, Control_c, 0, 64, 0
1, 299667, Control_c, 0, 64, 26
1, 299689, Control_c, 0, 64, 34
1, 299704, Control_c, 0, 64, 40
1, 299720, Control_c, 0, 64, 45
1, 299735, Control_c, 0, 64, 48
1, 299750, Control_c, 0, 64, 50
1, 299764, Control_c, 0, 64, 50
1, 299779, Control_c, 0, 64, 51
1, 299794, Control_c, 0, 64, 52
1, 299809, Control_c, 0, 64, 52
1, 299824, Control_c, 0, 64, 53
1, 299838, Control_c, 0, 64, 54
1, 299853, Control_c, 0, 64, 54
1, 299882, Control_c, 0, 64, 55
1, 299912, Control_c, 0, 64, 55
1, 299927, Control_c, 0, 64, 56
1, 299957, Control_c, 0, 64, 56
1, 299965, Note_on_c, 0, 65, 43
1, 300001, Control_c, 0, 64, 57
1, 300057, Note_on_c, 0, 63, 40
1, 300060, Control_c, 0, 64, 56
1, 300084, Note_off_c, 0, 67, 31
1, 300090, Note_off_c, 0, 65, 48
1, 300090, Control_c, 0, 64, 55
1, 300105, Control_c, 0, 64, 54
1, 300120, Control_c, 0, 64, 53
1, 300121, Note_on_c, 0, 62, 45
1, 300131, Note_off_c, 0, 63, 51
1, 300135, Control_c, 0, 64, 52
1, 300150, Control_c, 0, 64, 51
1, 300165, Control_c, 0, 64, 49
1, 300180, Control_c, 0, 64, 47
1, 300194, Control_c, 0, 64, 42
1, 300208, Note_off_c, 0, 62, 53
1, 300209, Note_on_c, 0, 60, 44
1, 300209, Control_c, 0, 64, 29
1, 300224, Control_c, 0, 64, 0
1, 300298, Control_c, 0, 64, 27
1, 300313, Control_c, 0, 64, 59
1, 300328, Control_c, 0, 64, 68
1, 300343, Control_c, 0, 64, 79
1, 300357, Control_c, 0, 64, 88
1, 300372, Control_c, 0, 64, 95
1, 300387, Control_c, 0, 64, 98
1, 300402, Control_c, 0, 64, 100
1, 300416, Note_off_c, 0, 60, 55
1, 300416, Control_c, 0, 64, 102
1, 300439, Control_c, 0, 64, 103
1, 300454, Control_c, 0, 64, 104
1, 300469, Control_c, 0, 64, 105
1, 300483, Control_c, 0, 64, 105
1, 300618, Control_c, 0, 64, 105
1, 300648, Note_on_c, 0, 60, 50
1, 300662, Control_c, 0, 64, 104
1, 300677, Control_c, 0, 64, 104
1, 300692, Control_c, 0, 64, 103
1, 300706, Control_c, 0, 64, 101
1, 300721, Control_c, 0, 64, 99
1, 300736, Control_c, 0, 64, 95
1, 300751, Control_c, 0, 64, 92
1, 300766, Control_c, 0, 64, 88
1, 300780, Control_c, 0, 64, 84
1, 300795, Control_c, 0, 64, 79
1, 300810, Control_c, 0, 64, 74
1, 300825, Control_c, 0, 64, 66
1, 300839, Control_c, 0, 64, 50
1, 300853, Control_c, 0, 64, 0
1, 301121, Note_on_c, 0, 58, 45
1, 301130, Note_on_c, 0, 55, 27
1, 301131, Note_on_c, 0, 43, 25
1, 301167, Note_on_c, 0, 50, 6
1, 301240, Note_off_c, 0, 60, 55
1, 301365, Control_c, 0, 64, 35
1, 301380, Control_c, 0, 64, 64
1, 301395, Control_c, 0, 64, 69
1, 301409, Control_c, 0, 64, 74
1, 301411, Note_off_c, 0, 55, 41
1, 301424, Control_c, 0, 64, 78
1, 301439, Control_c, 0, 64, 81
1, 301453, Control_c, 0, 64, 83
1, 301468, Control_c, 0, 64, 85
1, 301483, Control_c, 0, 64, 86
1, 301498, Control_c, 0, 64, 88
1, 301513, Control_c, 0, 64, 90
1, 301527, Control_c, 0, 64, 91
1, 301542, Control_c, 0, 64, 92
1, 301557, Control_c, 0, 64, 92
1, 301572, Control_c, 0, 64, 93
1, 301673, Note_off_c, 0, 50, 37
1, 301733, Note_off_c, 0, 43, 36
1, 301765, Control_c, 0, 64, 92
1, 301780, Control_c, 0, 64, 92
1, 301789, Note_on_c, 0, 55, 36
1, 301795, Control_c, 0, 64, 91
1, 301809, Control_c, 0, 64, 90
1, 301824, Control_c, 0, 64, 89
1, 301839, Control_c, 0, 64, 87
1, 301853, Control_c, 0, 64, 85
1, 301868, Control_c, 0, 64, 83
1, 301883, Control_c, 0, 64, 79
1, 301898, Control_c, 0, 64, 76
1, 301912, Note_off_c, 0, 58, 58
1, 301913, Control_c, 0, 64, 71
1, 301935, Control_c, 0, 64, 64
1, 301950, Control_c, 0, 64, 45
1, 301965, Control_c, 0, 64, 0
1, 302454, Control_c, 0, 64, 11
1, 302469, Control_c, 0, 64, 34
1, 302484, Control_c, 0, 64, 44
1, 302499, Control_c, 0, 64, 50
1, 302514, Control_c, 0, 64, 54
1, 302528, Control_c, 0, 64, 56
1, 302543, Control_c, 0, 64, 59
1, 302558, Control_c, 0, 64, 61
1, 302573, Control_c, 0, 64, 62
1, 302588, Control_c, 0, 64, 63
1, 302602, Control_c, 0, 64, 64
1, 302617, Control_c, 0, 64, 66
1, 302632, Control_c, 0, 64, 68
1, 302647, Control_c, 0, 64, 69
1, 302662, Control_c, 0, 64, 71
1, 302683, Control_c, 0, 64, 73
1, 302698, Control_c, 0, 64, 75
1, 302713, Control_c, 0, 64, 77
1, 302728, Control_c, 0, 64, 79
1, 302743, Control_c, 0, 64, 80
1, 302758, Control_c, 0, 64, 81
1, 302773, Control_c, 0, 64, 82
1, 302788, Control_c, 0, 64, 83
1, 302803, Control_c, 0, 64, 84
1, 302817, Control_c, 0, 64, 85
1, 302832, Control_c, 0, 64, 87
1, 302847, Control_c, 0, 64, 88
1, 302862, Control_c, 0, 64, 90
1, 302877, Control_c, 0, 64, 91
1, 302891, Control_c, 0, 64, 92
1, 302907, Control_c, 0, 64, 93
1, 302922, Control_c, 0, 64, 94
1, 302937, Control_c, 0, 64, 95
1, 302952, Control_c, 0, 64, 96
1, 302955, Note_off_c, 0, 55, 40
1, 302967, Control_c, 0, 64, 97
1, 302981, Control_c, 0, 64, 98
1, 302996, Control_c, 0, 64, 99
1, 303011, Control_c, 0, 64, 100
1, 303026, Control_c, 0, 64, 101
1, 303041, Control_c, 0, 64, 102
1, 303055, Control_c, 0, 64, 102
1, 303070, Control_c, 0, 64, 103
1, 303086, Control_c, 0, 64, 103
1, 303100, Control_c, 0, 64, 104
1, 303130, Control_c, 0, 64, 104
1, 303493, Control_c, 0, 64, 104
1, 303522, Control_c, 0, 64, 103
1, 303537, Control_c, 0, 64, 103
1, 303552, Control_c, 0, 64, 101
1, 303567, Control_c, 0, 64, 99
1, 303568, Note_on_c, 0, 60, 52
1, 303577, Note_on_c, 0, 51, 32
1, 303581, Note_on_c, 0, 39, 26
1, 303581, Control_c, 0, 64, 95
1, 303596, Note_on_c, 0, 55, 41
1, 303596, Control_c, 0, 64, 91
1, 303599, Note_on_c, 0, 43, 28
1, 303611, Control_c, 0, 64, 85
1, 303616, Note_on_c, 0, 48, 27
1, 303626, Control_c, 0, 64, 78
1, 303640, Control_c, 0, 64, 70
1, 303655, Control_c, 0, 64, 54
1, 303670, Control_c, 0, 64, 0
1, 303745, Control_c, 0, 64, 59
1, 303760, Control_c, 0, 64, 67
1, 303767, Note_off_c, 0, 51, 49
1, 303775, Control_c, 0, 64, 73
1, 303790, Control_c, 0, 64, 79
1, 303804, Control_c, 0, 64, 82
1, 303819, Control_c, 0, 64, 82
1, 303823, Note_off_c, 0, 48, 45
1, 303826, Note_off_c, 0, 39, 55
1, 303834, Control_c, 0, 64, 83
1, 303836, Note_off_c, 0, 55, 53
1, 303840, Note_off_c, 0, 43, 38
1, 303849, Control_c, 0, 64, 83
1, 303851, Note_off_c, 0, 60, 62
1, 303864, Control_c, 0, 64, 84
1, 304062, Note_on_c, 0, 60, 65
1, 304071, Control_c, 0, 64, 83
1, 304086, Control_c, 0, 64, 82
1, 304101, Control_c, 0, 64, 80
1, 304116, Control_c, 0, 64, 76
1, 304130, Control_c, 0, 64, 69
1, 304145, Control_c, 0, 64, 37
1, 304160, Control_c, 0, 64, 0
1, 304256, Control_c, 0, 64, 64
1, 304271, Control_c, 0, 64, 73
1, 304286, Control_c, 0, 64, 81
1, 304301, Control_c, 0, 64, 86
1, 304306, Note_off_c, 0, 60, 60
1, 304316, Control_c, 0, 64, 87
1, 304330, Control_c, 0, 64, 89
1, 304345, Control_c, 0, 64, 91
1, 304360, Control_c, 0, 64, 93
1, 304374, Control_c, 0, 64, 94
1, 304389, Control_c, 0, 64, 96
1, 304404, Control_c, 0, 64, 96
1, 304419, Control_c, 0, 64, 97
1, 304613, Control_c, 0, 64, 96
1, 304627, Control_c, 0, 64, 95
1, 304642, Control_c, 0, 64, 93
1, 304656, Note_on_c, 0, 60, 49
1, 304656, Note_on_c, 0, 63, 64
1, 304657, Control_c, 0, 64, 89
1, 304662, Note_on_c, 0, 43, 31
1, 304665, Note_on_c, 0, 51, 34
1, 304666, Note_on_c, 0, 36, 30
1, 304670, Note_on_c, 0, 48, 32
1, 304672, Note_on_c, 0, 55, 43
1, 304672, Control_c, 0, 64, 84
1, 304687, Control_c, 0, 64, 77
1, 304702, Control_c, 0, 64, 68
1, 304716, Control_c, 0, 64, 14
1, 304731, Control_c, 0, 64, 0
1, 304946, Control_c, 0, 64, 64
1, 304952, Note_off_c, 0, 51, 43
1, 304961, Control_c, 0, 64, 71
1, 304972, Note_off_c, 0, 60, 61
1, 304976, Control_c, 0, 64, 79
1, 304991, Control_c, 0, 64, 84
1, 305005, Control_c, 0, 64, 86
1, 305006, Note_off_c, 0, 55, 56
1, 305020, Control_c, 0, 64, 87
1, 305035, Control_c, 0, 64, 87
1, 305050, Control_c, 0, 64, 88
1, 305065, Control_c, 0, 64, 90
1, 305079, Control_c, 0, 64, 92
1, 305092, Note_off_c, 0, 48, 42
1, 305094, Control_c, 0, 64, 93
1, 305109, Control_c, 0, 64, 94
1, 305124, Control_c, 0, 64, 95
1, 305128, Note_off_c, 0, 36, 41
1, 305139, Control_c, 0, 64, 95
1, 305153, Control_c, 0, 64, 96
1, 305182, Note_off_c, 0, 43, 40
1, 305197, Control_c, 0, 64, 96
1, 305638, Note_on_c, 0, 62, 41
1, 305709, Control_c, 0, 64, 96
1, 305717, Note_off_c, 0, 63, 36
1, 305748, Note_on_c, 0, 60, 48
1, 305754, Control_c, 0, 64, 95
1, 305769, Control_c, 0, 64, 95
1, 305783, Control_c, 0, 64, 94
1, 305798, Control_c, 0, 64, 91
1, 305813, Control_c, 0, 64, 88
1, 305827, Control_c, 0, 64, 84
1, 305842, Control_c, 0, 64, 79
1, 305853, Note_on_c, 0, 46, 40
1, 305857, Control_c, 0, 64, 73
1, 305861, Note_on_c, 0, 38, 37
1, 305872, Note_on_c, 0, 53, 35
1, 305872, Control_c, 0, 64, 66
1, 305875, Note_on_c, 0, 58, 45
1, 305887, Control_c, 0, 64, 45
1, 305891, Note_off_c, 0, 62, 23
1, 305901, Control_c, 0, 64, 0
1, 306008, Note_off_c, 0, 60, 32
1, 306258, Control_c, 0, 64, 54
1, 306273, Control_c, 0, 64, 63
1, 306288, Control_c, 0, 64, 65
1, 306303, Control_c, 0, 64, 67
1, 306317, Control_c, 0, 64, 69
1, 306332, Control_c, 0, 64, 70
1, 306347, Control_c, 0, 64, 71
1, 306362, Control_c, 0, 64, 73
1, 306377, Control_c, 0, 64, 74
1, 306392, Control_c, 0, 64, 75
1, 306407, Control_c, 0, 64, 75
1, 306577, Control_c, 0, 64, 75
1, 306606, Control_c, 0, 64, 74
1, 306609, Note_on_c, 0, 39, 43
1, 306621, Control_c, 0, 64, 74
1, 306636, Control_c, 0, 64, 73
1, 306651, Control_c, 0, 64, 73
1, 306666, Control_c, 0, 64, 71
1, 306681, Control_c, 0, 64, 70
1, 306696, Control_c, 0, 64, 67
1, 306711, Control_c, 0, 64, 63
1, 306725, Control_c, 0, 64, 53
1, 306740, Control_c, 0, 64, 23
1, 306742, Note_off_c, 0, 38, 50
1, 306755, Control_c, 0, 64, 0
1, 306876, Note_on_c, 0, 38, 49
1, 306924, Note_off_c, 0, 39, 59
1, 307197, Note_off_c, 0, 38, 56
1, 307220, Note_on_c, 0, 39, 48
1, 307292, Note_off_c, 0, 39, 62
1, 307306, Note_on_c, 0, 38, 60
1, 307361, Note_off_c, 0, 38, 63
1, 307387, Note_on_c, 0, 36, 54
1, 307563, Control_c, 0, 64, 52
1, 307578, Control_c, 0, 64, 68
1, 307586, Note_off_c, 0, 53, 59
1, 307593, Control_c, 0, 64, 75
1, 307595, Note_off_c, 0, 46, 56
1, 307607, Control_c, 0, 64, 81
1, 307617, Note_on_c, 0, 38, 47
1, 307622, Control_c, 0, 64, 82
1, 307639, Note_off_c, 0, 36, 58
1, 307652, Control_c, 0, 64, 83
1, 307757, Control_c, 0, 64, 82
1, 307830, Control_c, 0, 64, 82
1, 307845, Control_c, 0, 64, 81
1, 307860, Control_c, 0, 64, 80
1, 307871, Note_on_c, 0, 43, 35
1, 307875, Control_c, 0, 64, 77
1, 307876, Note_on_c, 0, 39, 49
1, 307889, Note_on_c, 0, 48, 45
1, 307889, Control_c, 0, 64, 73
1, 307898, Note_on_c, 0, 55, 56
1, 307904, Control_c, 0, 64, 65
1, 307927, Control_c, 0, 64, 0
1, 307974, Note_off_c, 0, 38, 41
1, 308076, Note_off_c, 0, 58, 52
1, 308156, Note_on_c, 0, 60, 65
1, 308380, Note_on_c, 0, 59, 66
1, 308419, Note_off_c, 0, 60, 57
1, 308452, Note_off_c, 0, 55, 64
1, 308597, Note_on_c, 0, 60, 68
1, 308661, Note_off_c, 0, 59, 61
1, 308875, Note_off_c, 0, 48, 52
1, 308893, Note_on_c, 0, 55, 54
1, 308977, Note_off_c, 0, 39, 58
1, 309003, Note_off_c, 0, 43, 40
1, 309040, Note_off_c, 0, 60, 55
1, 309540, Note_on_c, 0, 48, 32
1, 309546, Note_on_c, 0, 44, 23
1, 309551, Note_on_c, 0, 53, 36
1, 309619, Note_off_c, 0, 55, 59
1, 309824, Control_c, 0, 64, 50
1, 309839, Control_c, 0, 64, 64
1, 309854, Control_c, 0, 64, 69
1, 309868, Control_c, 0, 64, 74
1, 309883, Control_c, 0, 64, 79
1, 309898, Control_c, 0, 64, 83
1, 309913, Control_c, 0, 64, 86
1, 309928, Control_c, 0, 64, 89
1, 309942, Control_c, 0, 64, 92
1, 309957, Control_c, 0, 64, 95
1, 309972, Control_c, 0, 64, 98
1, 309987, Control_c, 0, 64, 100
1, 310002, Control_c, 0, 64, 102
1, 310016, Control_c, 0, 64, 103
1, 310031, Control_c, 0, 64, 104
1, 310046, Control_c, 0, 64, 105
1, 310061, Control_c, 0, 64, 106
1, 310076, Control_c, 0, 64, 107
1, 310091, Control_c, 0, 64, 107
1, 310112, Note_off_c, 0, 53, 53
1, 310127, Note_on_c, 0, 51, 50
1, 310196, Note_off_c, 0, 51, 57
1, 310237, Note_on_c, 0, 53, 46
1, 310247, Control_c, 0, 64, 107
1, 310262, Control_c, 0, 64, 106
1, 310277, Control_c, 0, 64, 105
1, 310292, Control_c, 0, 64, 103
1, 310306, Control_c, 0, 64, 100
1, 310321, Control_c, 0, 64, 97
1, 310336, Control_c, 0, 64, 93
1, 310338, Note_on_c, 0, 43, 33
1, 310343, Note_on_c, 0, 47, 37
1, 310344, Note_on_c, 0, 55, 39
1, 310351, Control_c, 0, 64, 89
1, 310366, Control_c, 0, 64, 85
1, 310371, Note_on_c, 0, 50, 30
1, 310380, Control_c, 0, 64, 80
1, 310395, Control_c, 0, 64, 73
1, 310407, Note_off_c, 0, 53, 31
1, 310410, Control_c, 0, 64, 66
1, 310412, Note_off_c, 0, 55, 0
1, 310412, Note_on_c, 0, 55, 3
1, 310422, Note_off_c, 0, 44, 41
1, 310425, Control_c, 0, 64, 50
1, 310437, Note_off_c, 0, 48, 41
1, 310440, Control_c, 0, 64, 0
1, 311439, Note_on_c, 0, 48, 35
1, 311454, Note_on_c, 0, 45, 32
1, 311531, Note_off_c, 0, 47, 42
1, 311584, Note_off_c, 0, 50, 41
1, 311927, Note_on_c, 0, 50, 56
1, 311929, Note_on_c, 0, 47, 37
1, 311965, Note_off_c, 0, 45, 44
1, 311996, Control_c, 0, 64, 37
1, 312011, Control_c, 0, 64, 63
1, 312018, Note_off_c, 0, 48, 46
1, 312026, Control_c, 0, 64, 70
1, 312041, Control_c, 0, 64, 77
1, 312056, Control_c, 0, 64, 84
1, 312070, Control_c, 0, 64, 90
1, 312085, Control_c, 0, 64, 96
1, 312100, Control_c, 0, 64, 102
1, 312105, Note_off_c, 0, 47, 52
1, 312105, Note_off_c, 0, 50, 64
1, 312106, Note_off_c, 0, 55, 52
1, 312115, Control_c, 0, 64, 107
1, 312130, Note_off_c, 0, 43, 39
1, 312130, Control_c, 0, 64, 111
1, 312145, Control_c, 0, 64, 113
1, 312160, Control_c, 0, 64, 115
1, 312175, Control_c, 0, 64, 115
1, 312189, Control_c, 0, 64, 116
1, 312367, Control_c, 0, 64, 115
1, 312419, Control_c, 0, 64, 114
1, 312434, Control_c, 0, 64, 111
1, 312444, Note_on_c, 0, 39, 35
1, 312448, Note_on_c, 0, 60, 57
1, 312448, Note_on_c, 0, 67, 66
1, 312449, Control_c, 0, 64, 107
1, 312455, Note_on_c, 0, 51, 32
1, 312455, Note_on_c, 0, 48, 43
1, 312457, Note_on_c, 0, 55, 50
1, 312464, Control_c, 0, 64, 102
1, 312478, Control_c, 0, 64, 96
1, 312494, Control_c, 0, 64, 88
1, 312509, Control_c, 0, 64, 76
1, 312523, Control_c, 0, 64, 64
1, 312538, Control_c, 0, 64, 0
1, 312598, Control_c, 0, 64, 31
1, 312612, Control_c, 0, 64, 65
1, 312627, Control_c, 0, 64, 72
1, 312642, Control_c, 0, 64, 80
1, 312657, Control_c, 0, 64, 85
1, 312672, Control_c, 0, 64, 88
1, 312686, Control_c, 0, 64, 89
1, 312701, Control_c, 0, 64, 90
1, 312714, Note_off_c, 0, 67, 62
1, 312716, Control_c, 0, 64, 91
1, 312719, Note_off_c, 0, 55, 62
1, 312731, Control_c, 0, 64, 91
1, 312775, Control_c, 0, 64, 92
1, 312828, Note_off_c, 0, 51, 41
1, 312830, Note_off_c, 0, 48, 51
1, 312866, Note_off_c, 0, 39, 35
1, 312950, Note_on_c, 0, 67, 82
1, 313132, Note_off_c, 0, 60, 61
1, 313205, Note_off_c, 0, 67, 59
1, 313612, Control_c, 0, 64, 91
1, 313627, Control_c, 0, 64, 90
1, 313632, Note_on_c, 0, 67, 70
1, 313636, Note_on_c, 0, 56, 49
1, 313637, Note_on_c, 0, 60, 63
1, 313641, Control_c, 0, 64, 88
1, 313650, Note_on_c, 0, 38, 37
1, 313655, Note_on_c, 0, 50, 31
1, 313656, Control_c, 0, 64, 83
1, 313671, Control_c, 0, 64, 77
1, 313686, Control_c, 0, 64, 68
1, 313701, Control_c, 0, 64, 0
1, 313879, Control_c, 0, 64, 52
1, 313894, Control_c, 0, 64, 68
1, 313916, Control_c, 0, 64, 77
1, 313930, Control_c, 0, 64, 86
1, 313945, Control_c, 0, 64, 92
1, 313960, Control_c, 0, 64, 94
1, 313975, Control_c, 0, 64, 96
1, 313990, Control_c, 0, 64, 97
1, 314005, Control_c, 0, 64, 98
1, 314013, Note_off_c, 0, 50, 40
1, 314014, Note_off_c, 0, 56, 57
1, 314018, Note_off_c, 0, 38, 40
1, 314035, Control_c, 0, 64, 99
1, 314115, Note_off_c, 0, 60, 58
1, 314139, Control_c, 0, 64, 98
1, 314198, Control_c, 0, 64, 98
1, 314213, Control_c, 0, 64, 97
1, 314228, Control_c, 0, 64, 96
1, 314243, Control_c, 0, 64, 95
1, 314257, Control_c, 0, 64, 94
1, 314272, Control_c, 0, 64, 92
1, 314287, Control_c, 0, 64, 91
1, 314302, Control_c, 0, 64, 89
1, 314317, Control_c, 0, 64, 88
1, 314332, Control_c, 0, 64, 86
1, 314346, Control_c, 0, 64, 84
1, 314361, Control_c, 0, 64, 82
1, 314376, Control_c, 0, 64, 80
1, 314390, Control_c, 0, 64, 78
1, 314405, Control_c, 0, 64, 75
1, 314420, Control_c, 0, 64, 72
1, 314435, Control_c, 0, 64, 68
1, 314450, Control_c, 0, 64, 63
1, 314464, Control_c, 0, 64, 53
1, 314479, Control_c, 0, 64, 46
1, 314494, Control_c, 0, 64, 47
1, 314509, Control_c, 0, 64, 48
1, 314524, Control_c, 0, 64, 49
1, 314539, Control_c, 0, 64, 50
1, 314583, Control_c, 0, 64, 49
1, 314598, Control_c, 0, 64, 49
1, 314613, Control_c, 0, 64, 48
1, 314679, Control_c, 0, 64, 49
1, 314694, Control_c, 0, 64, 49
1, 314916, Note_on_c, 0, 65, 38
1, 314977, Control_c, 0, 64, 50
1, 315002, Note_on_c, 0, 63, 44
1, 315010, Note_off_c, 0, 67, 38
1, 315075, Note_off_c, 0, 65, 51
1, 315081, Control_c, 0, 64, 49
1, 315112, Note_off_c, 0, 63, 59
1, 315124, Note_on_c, 0, 62, 48
1, 315125, Control_c, 0, 64, 48
1, 315155, Control_c, 0, 64, 48
1, 315199, Control_c, 0, 64, 47
1, 315258, Control_c, 0, 64, 47
1, 315302, Control_c, 0, 64, 47
1, 315317, Control_c, 0, 64, 47
1, 315332, Control_c, 0, 64, 46
1, 315347, Control_c, 0, 64, 44
1, 315361, Control_c, 0, 64, 43
1, 315376, Control_c, 0, 64, 42
1, 315391, Control_c, 0, 64, 42
1, 315428, Control_c, 0, 64, 41
1, 315487, Control_c, 0, 64, 42
1, 315576, Control_c, 0, 64, 42
1, 315621, Control_c, 0, 64, 43
1, 315670, Note_on_c, 0, 44, 35
1, 315677, Note_on_c, 0, 60, 37
1, 315677, Note_on_c, 0, 50, 28
1, 315680, Note_on_c, 0, 53, 32
1, 315755, Control_c, 0, 64, 43
1, 315978, Control_c, 0, 64, 44
1, 315992, Control_c, 0, 64, 44
1, 316007, Control_c, 0, 64, 45
1, 316022, Control_c, 0, 64, 45
1, 316036, Control_c, 0, 64, 46
1, 316051, Control_c, 0, 64, 48
1, 316066, Control_c, 0, 64, 49
1, 316081, Control_c, 0, 64, 51
1, 316096, Control_c, 0, 64, 53
1, 316110, Control_c, 0, 64, 56
1, 316125, Control_c, 0, 64, 59
1, 316140, Control_c, 0, 64, 61
1, 316162, Control_c, 0, 64, 63
1, 316177, Control_c, 0, 64, 63
1, 316236, Control_c, 0, 64, 63
1, 316266, Control_c, 0, 64, 62
1, 316296, Control_c, 0, 64, 62
1, 316310, Control_c, 0, 64, 61
1, 316325, Control_c, 0, 64, 61
1, 316369, Control_c, 0, 64, 60
1, 316399, Control_c, 0, 64, 60
1, 316414, Control_c, 0, 64, 59
1, 316428, Control_c, 0, 64, 59
1, 316443, Control_c, 0, 64, 58
1, 316458, Control_c, 0, 64, 58
1, 316519, Control_c, 0, 64, 57
1, 316533, Control_c, 0, 64, 55
1, 316548, Control_c, 0, 64, 52
1, 316563, Control_c, 0, 64, 48
1, 316577, Control_c, 0, 64, 41
1, 316592, Note_off_c, 0, 53, 46
1, 316592, Control_c, 0, 64, 37
1, 316596, Note_on_c, 0, 59, 44
1, 316598, Note_on_c, 0, 55, 50
1, 316598, Note_on_c, 0, 43, 27
1, 316607, Control_c, 0, 64, 40
1, 316622, Control_c, 0, 64, 46
1, 316637, Control_c, 0, 64, 55
1, 316652, Control_c, 0, 64, 63
1, 316667, Control_c, 0, 64, 69
1, 316682, Control_c, 0, 64, 75
1, 316697, Control_c, 0, 64, 83
1, 316712, Control_c, 0, 64, 90
1, 316727, Control_c, 0, 64, 94
1, 316741, Control_c, 0, 64, 97
1, 316756, Control_c, 0, 64, 100
1, 316764, Note_off_c, 0, 55, 62
1, 316764, Note_off_c, 0, 62, 60
1, 316766, Note_off_c, 0, 50, 52
1, 316771, Control_c, 0, 64, 103
1, 316785, Control_c, 0, 64, 107
1, 316793, Note_off_c, 0, 60, 60
1, 316800, Control_c, 0, 64, 109
1, 316808, Note_off_c, 0, 59, 62
1, 316810, Note_off_c, 0, 43, 38
1, 316812, Note_off_c, 0, 44, 39
1, 316815, Control_c, 0, 64, 110
1, 316830, Control_c, 0, 64, 111
1, 317059, Control_c, 0, 64, 110
1, 317074, Control_c, 0, 64, 110
1, 317089, Control_c, 0, 64, 109
1, 317104, Control_c, 0, 64, 108
1, 317119, Control_c, 0, 64, 106
1, 317133, Control_c, 0, 64, 103
1, 317135, Note_on_c, 0, 67, 65
1, 317137, Note_on_c, 0, 39, 40
1, 317139, Note_on_c, 0, 48, 40
1, 317148, Control_c, 0, 64, 97
1, 317149, Note_on_c, 0, 60, 54
1, 317154, Note_on_c, 0, 51, 30
1, 317157, Note_on_c, 0, 55, 35
1, 317163, Control_c, 0, 64, 90
1, 317178, Control_c, 0, 64, 80
1, 317192, Control_c, 0, 64, 64
1, 317207, Control_c, 0, 64, 0
1, 317282, Control_c, 0, 64, 30
1, 317297, Control_c, 0, 64, 66
1, 317312, Control_c, 0, 64, 76
1, 317327, Control_c, 0, 64, 86
1, 317332, Note_off_c, 0, 55, 46
1, 317342, Control_c, 0, 64, 93
1, 317356, Control_c, 0, 64, 96
1, 317371, Control_c, 0, 64, 98
1, 317384, Note_off_c, 0, 51, 50
1, 317386, Control_c, 0, 64, 99
1, 317389, Note_off_c, 0, 67, 62
1, 317400, Control_c, 0, 64, 100
1, 317405, Note_off_c, 0, 48, 55
1, 317415, Control_c, 0, 64, 101
1, 317428, Note_off_c, 0, 39, 54
1, 317472, Note_off_c, 0, 60, 50
1, 317629, Note_on_c, 0, 67, 75
1, 317704, Control_c, 0, 64, 99
1, 317719, Control_c, 0, 64, 96
1, 317734, Control_c, 0, 64, 89
1, 317749, Control_c, 0, 64, 78
1, 317764, Control_c, 0, 64, 59
1, 317779, Control_c, 0, 64, 0
1, 317853, Control_c, 0, 64, 55
1, 317868, Control_c, 0, 64, 68
1, 317882, Control_c, 0, 64, 76
1, 317897, Control_c, 0, 64, 83
1, 317912, Control_c, 0, 64, 88
1, 317927, Control_c, 0, 64, 91
1, 317930, Note_off_c, 0, 67, 64
1, 317942, Control_c, 0, 64, 93
1, 317957, Control_c, 0, 64, 95
1, 317972, Control_c, 0, 64, 98
1, 317987, Control_c, 0, 64, 102
1, 318002, Control_c, 0, 64, 106
1, 318016, Control_c, 0, 64, 109
1, 318031, Control_c, 0, 64, 111
1, 318046, Control_c, 0, 64, 112
1, 318061, Control_c, 0, 64, 113
1, 318077, Control_c, 0, 64, 114
1, 318092, Control_c, 0, 64, 115
1, 318106, Control_c, 0, 64, 116
1, 318121, Control_c, 0, 64, 116
1, 318136, Control_c, 0, 64, 117
1, 318224, Control_c, 0, 64, 116
1, 318239, Control_c, 0, 64, 115
1, 318254, Control_c, 0, 64, 115
1, 318269, Control_c, 0, 64, 113
1, 318284, Control_c, 0, 64, 112
1, 318298, Control_c, 0, 64, 110
1, 318313, Control_c, 0, 64, 107
1, 318328, Control_c, 0, 64, 105
1, 318343, Control_c, 0, 64, 101
1, 318351, Note_on_c, 0, 67, 67
1, 318357, Control_c, 0, 64, 96
1, 318361, Note_on_c, 0, 56, 45
1, 318366, Note_on_c, 0, 60, 57
1, 318372, Control_c, 0, 64, 91
1, 318383, Note_on_c, 0, 38, 36
1, 318387, Control_c, 0, 64, 85
1, 318391, Note_on_c, 0, 50, 11
1, 318410, Control_c, 0, 64, 77
1, 318425, Control_c, 0, 64, 67
1, 318439, Control_c, 0, 64, 0
1, 318572, Control_c, 0, 64, 64
1, 318587, Control_c, 0, 64, 73
1, 318602, Control_c, 0, 64, 84
1, 318617, Control_c, 0, 64, 91
1, 318631, Control_c, 0, 64, 95
1, 318646, Control_c, 0, 64, 97
1, 318657, Note_off_c, 0, 56, 54
1, 318661, Control_c, 0, 64, 98
1, 318676, Control_c, 0, 64, 99
1, 318679, Note_off_c, 0, 38, 40
1, 318691, Control_c, 0, 64, 100
1, 318700, Note_off_c, 0, 50, 40
1, 318706, Control_c, 0, 64, 100
1, 318721, Control_c, 0, 64, 101
1, 318749, Note_off_c, 0, 60, 57
1, 318765, Control_c, 0, 64, 100
1, 318839, Control_c, 0, 64, 100
1, 318854, Control_c, 0, 64, 99
1, 318869, Control_c, 0, 64, 98
1, 318885, Control_c, 0, 64, 96
1, 318900, Control_c, 0, 64, 95
1, 318914, Control_c, 0, 64, 94
1, 318929, Control_c, 0, 64, 93
1, 318944, Control_c, 0, 64, 92
1, 318959, Control_c, 0, 64, 91
1, 318974, Control_c, 0, 64, 90
1, 318988, Control_c, 0, 64, 88
1, 319003, Control_c, 0, 64, 87
1, 319018, Control_c, 0, 64, 85
1, 319033, Control_c, 0, 64, 83
1, 319047, Control_c, 0, 64, 82
1, 319062, Control_c, 0, 64, 80
1, 319077, Control_c, 0, 64, 78
1, 319092, Control_c, 0, 64, 76
1, 319107, Control_c, 0, 64, 73
1, 319121, Control_c, 0, 64, 71
1, 319136, Control_c, 0, 64, 68
1, 319159, Control_c, 0, 64, 64
1, 319174, Control_c, 0, 64, 61
1, 319188, Control_c, 0, 64, 58
1, 319218, Control_c, 0, 64, 58
1, 319248, Control_c, 0, 64, 58
1, 319277, Control_c, 0, 64, 57
1, 319292, Control_c, 0, 64, 56
1, 319307, Control_c, 0, 64, 53
1, 319322, Control_c, 0, 64, 51
1, 319336, Control_c, 0, 64, 47
1, 319351, Control_c, 0, 64, 43
1, 319366, Control_c, 0, 64, 40
1, 319380, Control_c, 0, 64, 37
1, 319395, Control_c, 0, 64, 34
1, 319440, Control_c, 0, 64, 33
1, 319514, Control_c, 0, 64, 34
1, 319523, Note_on_c, 0, 65, 34
1, 319529, Control_c, 0, 64, 34
1, 319543, Control_c, 0, 64, 35
1, 319588, Control_c, 0, 64, 36
1, 319610, Note_on_c, 0, 63, 39
1, 319618, Control_c, 0, 64, 37
1, 319633, Control_c, 0, 64, 38
1, 319634, Note_off_c, 0, 67, 30
1, 319690, Note_off_c, 0, 65, 41
1, 319707, Control_c, 0, 64, 37
1, 319723, Note_off_c, 0, 63, 52
1, 319734, Note_on_c, 0, 62, 44
1, 319767, Control_c, 0, 64, 37
1, 319782, Control_c, 0, 64, 36
1, 319811, Control_c, 0, 64, 34
1, 319826, Control_c, 0, 64, 34
1, 319856, Control_c, 0, 64, 32
1, 319885, Control_c, 0, 64, 31
1, 319907, Control_c, 0, 64, 29
1, 319922, Control_c, 0, 64, 26
1, 319937, Control_c, 0, 64, 18
1, 319952, Control_c, 0, 64, 0
1, 320292, Control_c, 0, 64, 14
1, 320321, Control_c, 0, 64, 16
1, 320381, Control_c, 0, 64, 20
1, 320396, Control_c, 0, 64, 23
1, 320404, Note_on_c, 0, 44, 19
1, 320406, Note_on_c, 0, 60, 34
1, 320411, Control_c, 0, 64, 25
1, 320414, Note_on_c, 0, 53, 19
1, 320426, Control_c, 0, 64, 26
1, 320441, Control_c, 0, 64, 27
1, 320450, Poly_aftertouch_c, 0, 50, 127
1, 320500, Control_c, 0, 64, 28
1, 320530, Control_c, 0, 64, 29
1, 320575, Control_c, 0, 64, 30
1, 320620, Control_c, 0, 64, 31
1, 320671, Control_c, 0, 64, 32
1, 320686, Control_c, 0, 64, 34
1, 320700, Control_c, 0, 64, 35
1, 320715, Control_c, 0, 64, 37
1, 320730, Control_c, 0, 64, 41
1, 320745, Control_c, 0, 64, 47
1, 320760, Control_c, 0, 64, 53
1, 320775, Control_c, 0, 64, 60
1, 320789, Control_c, 0, 64, 64
1, 320804, Control_c, 0, 64, 67
1, 320819, Control_c, 0, 64, 70
1, 320834, Control_c, 0, 64, 72
1, 320849, Control_c, 0, 64, 74
1, 320864, Control_c, 0, 64, 76
1, 320879, Control_c, 0, 64, 78
1, 320894, Control_c, 0, 64, 80
1, 320908, Control_c, 0, 64, 82
1, 320923, Control_c, 0, 64, 83
1, 320938, Control_c, 0, 64, 84
1, 320952, Control_c, 0, 64, 85
1, 320967, Control_c, 0, 64, 85
1, 320982, Control_c, 0, 64, 86
1, 321012, Control_c, 0, 64, 86
1, 321026, Control_c, 0, 64, 87
1, 321041, Control_c, 0, 64, 87
1, 321056, Control_c, 0, 64, 88
1, 321071, Control_c, 0, 64, 88
1, 321144, Control_c, 0, 64, 89
1, 321295, Note_off_c, 0, 53, 42
1, 321353, Control_c, 0, 64, 88
1, 321367, Note_on_c, 0, 59, 37
1, 321370, Note_off_c, 0, 60, 36
1, 321379, Note_on_c, 0, 55, 33
1, 321383, Control_c, 0, 64, 87
1, 321389, Note_on_c, 0, 43, 28
1, 321405, Control_c, 0, 64, 84
1, 321420, Control_c, 0, 64, 80
1, 321435, Control_c, 0, 64, 74
1, 321450, Control_c, 0, 64, 65
1, 321464, Control_c, 0, 64, 0
1, 321494, Note_off_c, 0, 44, 37
1, 321582, Control_c, 0, 64, 54
1, 321597, Control_c, 0, 64, 68
1, 321612, Control_c, 0, 64, 73
1, 321627, Control_c, 0, 64, 78
1, 321642, Control_c, 0, 64, 80
1, 321657, Control_c, 0, 64, 81
1, 321672, Control_c, 0, 64, 81
1, 321687, Control_c, 0, 64, 82
1, 321702, Control_c, 0, 64, 83
1, 321717, Control_c, 0, 64, 83
1, 321731, Control_c, 0, 64, 84
1, 321761, Control_c, 0, 64, 84
1, 321776, Poly_aftertouch_c, 0, 50, 0
1, 321779, Note_off_c, 0, 43, 41
1, 321909, Control_c, 0, 64, 84
1, 321936, Note_on_c, 0, 60, 45
1, 321938, Control_c, 0, 64, 83
1, 321953, Control_c, 0, 64, 81
1, 321967, Control_c, 0, 64, 76
1, 321982, Control_c, 0, 64, 68
1, 321997, Note_off_c, 0, 55, 44
1, 321997, Control_c, 0, 64, 20
1, 322000, Note_off_c, 0, 59, 40
1, 322012, Control_c, 0, 64, 0
1, 322018, Note_off_c, 0, 62, 37
1, 322087, Control_c, 0, 64, 53
1, 322102, Control_c, 0, 64, 67
1, 322117, Control_c, 0, 64, 75
1, 322132, Control_c, 0, 64, 82
1, 322154, Control_c, 0, 64, 86
1, 322169, Control_c, 0, 64, 89
1, 322175, Note_off_c, 0, 60, 63
1, 322184, Control_c, 0, 64, 90
1, 322198, Control_c, 0, 64, 91
1, 322213, Control_c, 0, 64, 92
1, 322228, Control_c, 0, 64, 92
1, 322243, Control_c, 0, 64, 93
1, 322273, Control_c, 0, 64, 93
1, 322287, Control_c, 0, 64, 94
1, 322450, Control_c, 0, 64, 93
1, 322451, Note_on_c, 0, 60, 54
1, 322453, Note_on_c, 0, 39, 36
1, 322459, Note_on_c, 0, 55, 29
1, 322465, Control_c, 0, 64, 92
1, 322477, Note_on_c, 0, 48, 26
1, 322480, Control_c, 0, 64, 90
1, 322495, Control_c, 0, 64, 84
1, 322509, Control_c, 0, 64, 76
1, 322524, Control_c, 0, 64, 65
1, 322539, Control_c, 0, 64, 0
1, 322599, Control_c, 0, 64, 47
1, 322614, Control_c, 0, 64, 66
1, 322629, Control_c, 0, 64, 73
1, 322644, Control_c, 0, 64, 79
1, 322659, Control_c, 0, 64, 80
1, 322673, Control_c, 0, 64, 81
1, 322725, Note_on_c, 0, 62, 67
1, 322732, Control_c, 0, 64, 81
1, 322756, Note_off_c, 0, 48, 45
1, 322790, Note_off_c, 0, 55, 41
1, 322821, Control_c, 0, 64, 81
1, 322822, Note_off_c, 0, 39, 40
1, 322851, Control_c, 0, 64, 80
1, 322867, Control_c, 0, 64, 79
1, 322882, Control_c, 0, 64, 79
1, 322903, Control_c, 0, 64, 78
1, 322918, Control_c, 0, 64, 77
1, 322933, Control_c, 0, 64, 76
1, 322948, Control_c, 0, 64, 74
1, 322963, Control_c, 0, 64, 72
1, 322977, Control_c, 0, 64, 69
1, 322978, Note_on_c, 0, 65, 58
1, 322992, Control_c, 0, 64, 64
1, 323007, Control_c, 0, 64, 51
1, 323022, Control_c, 0, 64, 0
1, 323039, Note_off_c, 0, 60, 37
1, 323053, Note_off_c, 0, 62, 62
1, 323274, Control_c, 0, 64, 64
1, 323289, Control_c, 0, 64, 72
1, 323294, Note_on_c, 0, 63, 64
1, 323303, Control_c, 0, 64, 78
1, 323318, Control_c, 0, 64, 82
1, 323333, Control_c, 0, 64, 84
1, 323347, Control_c, 0, 64, 85
1, 323362, Control_c, 0, 64, 86
1, 323377, Note_off_c, 0, 65, 65
1, 323377, Control_c, 0, 64, 87
1, 323391, Note_on_c, 0, 36, 41
1, 323392, Note_off_c, 0, 63, 65
1, 323392, Control_c, 0, 64, 89
1, 323407, Control_c, 0, 64, 91
1, 323422, Control_c, 0, 64, 91
1, 323437, Control_c, 0, 64, 92
1, 323448, Note_on_c, 0, 43, 35
1, 323501, Note_on_c, 0, 48, 40
1, 323532, Note_on_c, 0, 51, 52
1, 323570, Control_c, 0, 64, 91
1, 323583, Note_on_c, 0, 55, 60
1, 323585, Control_c, 0, 64, 90
1, 323600, Control_c, 0, 64, 84
1, 323615, Control_c, 0, 64, 75
1, 323629, Control_c, 0, 64, 62
1, 323651, Control_c, 0, 64, 0
1, 323671, Note_off_c, 0, 51, 35
1, 323676, Note_on_c, 0, 62, 68
1, 323726, Control_c, 0, 64, 46
1, 323738, Note_off_c, 0, 55, 63
1, 323741, Control_c, 0, 64, 65
1, 323756, Control_c, 0, 64, 70
1, 323770, Control_c, 0, 64, 74
1, 323781, Note_off_c, 0, 48, 43
1, 323785, Control_c, 0, 64, 75
1, 323815, Control_c, 0, 64, 76
1, 323821, Note_off_c, 0, 36, 41
1, 323841, Note_off_c, 0, 43, 40
1, 323919, Control_c, 0, 64, 75
1, 323934, Control_c, 0, 64, 75
1, 323949, Control_c, 0, 64, 74
1, 323952, Note_on_c, 0, 60, 70
1, 323964, Control_c, 0, 64, 72
1, 323978, Control_c, 0, 64, 70
1, 323993, Control_c, 0, 64, 65
1, 324008, Control_c, 0, 64, 55
1, 324014, Note_off_c, 0, 62, 62
1, 324023, Control_c, 0, 64, 0
1, 324355, Note_on_c, 0, 63, 57
1, 324462, Note_off_c, 0, 60, 57
1, 324933, Control_c, 0, 64, 37
1, 324948, Control_c, 0, 64, 44
1, 324963, Control_c, 0, 64, 48
1, 324978, Control_c, 0, 64, 50
1, 324993, Control_c, 0, 64, 53
1, 325007, Control_c, 0, 64, 56
1, 325022, Control_c, 0, 64, 59
1, 325037, Control_c, 0, 64, 61
1, 325052, Control_c, 0, 64, 62
1, 325067, Control_c, 0, 64, 63
1, 325082, Control_c, 0, 64, 63
1, 325112, Control_c, 0, 64, 64
1, 325126, Control_c, 0, 64, 64
1, 325148, Control_c, 0, 64, 65
1, 325163, Control_c, 0, 64, 65
1, 325178, Control_c, 0, 64, 66
1, 325193, Control_c, 0, 64, 67
1, 325207, Control_c, 0, 64, 67
1, 325222, Control_c, 0, 64, 68
1, 325237, Control_c, 0, 64, 69
1, 325244, Note_on_c, 0, 58, 36
1, 325252, Control_c, 0, 64, 70
1, 325254, Note_on_c, 0, 46, 19
1, 325262, Note_on_c, 0, 43, 31
1, 325267, Note_on_c, 0, 51, 28
1, 325267, Control_c, 0, 64, 71
1, 325283, Control_c, 0, 64, 73
1, 325297, Control_c, 0, 64, 75
1, 325312, Control_c, 0, 64, 77
1, 325327, Control_c, 0, 64, 79
1, 325342, Control_c, 0, 64, 80
1, 325356, Control_c, 0, 64, 82
1, 325371, Control_c, 0, 64, 83
1, 325386, Control_c, 0, 64, 85
1, 325401, Control_c, 0, 64, 87
1, 325416, Control_c, 0, 64, 91
1, 325431, Control_c, 0, 64, 94
1, 325446, Control_c, 0, 64, 97
1, 325461, Control_c, 0, 64, 100
1, 325475, Control_c, 0, 64, 103
1, 325490, Control_c, 0, 64, 107
1, 325505, Control_c, 0, 64, 112
1, 325520, Control_c, 0, 64, 118
1, 325535, Control_c, 0, 64, 125
1, 325549, Control_c, 0, 64, 127
1, 325660, Note_off_c, 0, 58, 32
1, 325705, Note_off_c, 0, 43, 33
1, 325717, Note_off_c, 0, 46, 31
1, 325751, Note_off_c, 0, 51, 34
1, 326173, Note_off_c, 0, 63, 56
1, 326867, Note_on_c, 0, 51, 24
1, 326871, Note_on_c, 0, 63, 37
1, 326874, Note_on_c, 0, 58, 40
1, 326883, Control_c, 0, 64, 123
1, 326891, Note_on_c, 0, 31, 25
1, 326891, Note_on_c, 0, 43, 19
1, 326898, Control_c, 0, 64, 117
1, 326913, Control_c, 0, 64, 112
1, 326928, Control_c, 0, 64, 107
1, 326942, Control_c, 0, 64, 102
1, 326957, Control_c, 0, 64, 97
1, 326972, Control_c, 0, 64, 93
1, 326987, Control_c, 0, 64, 88
1, 327002, Control_c, 0, 64, 83
1, 327017, Control_c, 0, 64, 78
1, 327031, Control_c, 0, 64, 72
1, 327043, Note_off_c, 0, 58, 61
1, 327046, Control_c, 0, 64, 64
1, 327049, Note_off_c, 0, 43, 42
1, 327055, Note_off_c, 0, 51, 41
1, 327061, Control_c, 0, 64, 45
1, 327062, Note_off_c, 0, 31, 53
1, 327076, Control_c, 0, 64, 0
1, 327342, Control_c, 0, 64, 31
1, 327357, Control_c, 0, 64, 52
1, 327372, Control_c, 0, 64, 63
1, 327394, Control_c, 0, 64, 67
1, 327409, Control_c, 0, 64, 71
1, 327424, Control_c, 0, 64, 74
1, 327437, Note_on_c, 0, 53, 38
1, 327437, Note_on_c, 0, 62, 45
1, 327438, Note_on_c, 0, 34, 32
1, 327439, Note_on_c, 0, 46, 33
1, 327439, Control_c, 0, 64, 78
1, 327445, Note_on_c, 0, 58, 40
1, 327454, Control_c, 0, 64, 81
1, 327468, Control_c, 0, 64, 82
1, 327483, Control_c, 0, 64, 83
1, 327498, Control_c, 0, 64, 84
1, 327527, Control_c, 0, 64, 84
1, 327539, Note_off_c, 0, 63, 40
1, 327586, Control_c, 0, 64, 84
1, 327616, Control_c, 0, 64, 83
1, 327618, Note_off_c, 0, 34, 48
1, 327619, Note_off_c, 0, 58, 63
1, 327628, Note_off_c, 0, 53, 41
1, 327631, Control_c, 0, 64, 82
1, 327641, Note_off_c, 0, 46, 40
1, 327646, Control_c, 0, 64, 82
1, 327662, Control_c, 0, 64, 81
1, 327677, Control_c, 0, 64, 80
1, 327691, Control_c, 0, 64, 79
1, 327706, Control_c, 0, 64, 77
1, 327721, Control_c, 0, 64, 75
1, 327735, Control_c, 0, 64, 72
1, 327750, Control_c, 0, 64, 69
1, 327765, Control_c, 0, 64, 65
1, 327780, Control_c, 0, 64, 58
1, 327795, Control_c, 0, 64, 43
1, 327810, Control_c, 0, 64, 31
1, 327824, Control_c, 0, 64, 33
1, 327839, Control_c, 0, 64, 34
1, 327854, Control_c, 0, 64, 33
1, 327869, Control_c, 0, 64, 31
1, 327958, Control_c, 0, 64, 30
1, 327973, Control_c, 0, 64, 29
1, 327988, Control_c, 0, 64, 27
1, 328003, Control_c, 0, 64, 14
1, 328017, Control_c, 0, 64, 0
1, 328028, Note_on_c, 0, 60, 44
1, 328042, Note_on_c, 0, 51, 30
1, 328058, Note_on_c, 0, 55, 37
1, 328063, Note_on_c, 0, 48, 22
1, 328073, Note_on_c, 0, 36, 17
1, 328123, Note_off_c, 0, 62, 36
1, 328158, Control_c, 0, 64, 30
1, 328173, Control_c, 0, 64, 62
1, 328188, Control_c, 0, 64, 67
1, 328203, Control_c, 0, 64, 69
1, 328217, Control_c, 0, 64, 70
1, 328253, Note_off_c, 0, 48, 41
1, 328259, Note_off_c, 0, 36, 50
1, 328265, Note_off_c, 0, 51, 56
1, 328277, Control_c, 0, 64, 69
1, 328278, Note_off_c, 0, 55, 57
1, 328291, Control_c, 0, 64, 68
1, 328306, Control_c, 0, 64, 68
1, 328321, Control_c, 0, 64, 67
1, 328336, Control_c, 0, 64, 66
1, 328350, Control_c, 0, 64, 64
1, 328365, Control_c, 0, 64, 62
1, 328380, Control_c, 0, 64, 60
1, 328395, Control_c, 0, 64, 58
1, 328439, Control_c, 0, 64, 57
1, 328454, Control_c, 0, 64, 56
1, 328470, Control_c, 0, 64, 55
1, 328485, Control_c, 0, 64, 55
1, 328500, Control_c, 0, 64, 54
1, 328514, Control_c, 0, 64, 54
1, 328529, Control_c, 0, 64, 53
1, 328544, Control_c, 0, 64, 52
1, 328558, Control_c, 0, 64, 52
1, 328573, Control_c, 0, 64, 51
1, 328588, Control_c, 0, 64, 50
1, 328603, Control_c, 0, 64, 48
1, 328618, Control_c, 0, 64, 45
1, 328632, Control_c, 0, 64, 42
1, 328647, Control_c, 0, 64, 39
1, 328662, Control_c, 0, 64, 35
1, 328677, Control_c, 0, 64, 25
1, 328690, Note_on_c, 0, 47, 29
1, 328692, Note_on_c, 0, 55, 41
1, 328692, Control_c, 0, 64, 0
1, 328701, Note_on_c, 0, 50, 32
1, 328703, Note_on_c, 0, 43, 20
1, 328817, Note_off_c, 0, 60, 35
1, 328888, Note_off_c, 0, 47, 44
1, 328898, Note_off_c, 0, 43, 42
1, 328902, Note_off_c, 0, 50, 43
1, 329026, Control_c, 0, 64, 62
1, 329040, Control_c, 0, 64, 69
1, 329055, Control_c, 0, 64, 74
1, 329070, Control_c, 0, 64, 79
1, 329085, Control_c, 0, 64, 81
1, 329099, Control_c, 0, 64, 84
1, 329111, Note_off_c, 0, 55, 55
1, 329114, Control_c, 0, 64, 86
1, 329129, Control_c, 0, 64, 88
1, 329144, Control_c, 0, 64, 90
1, 329159, Control_c, 0, 64, 91
1, 329173, Control_c, 0, 64, 92
1, 329353, Control_c, 0, 64, 91
1, 329368, Control_c, 0, 64, 91
1, 329382, Control_c, 0, 64, 89
1, 329397, Control_c, 0, 64, 87
1, 329410, Note_on_c, 0, 55, 41
1, 329412, Control_c, 0, 64, 83
1, 329416, Note_on_c, 0, 60, 39
1, 329418, Note_on_c, 0, 51, 30
1, 329427, Control_c, 0, 64, 77
1, 329436, Note_on_c, 0, 36, 20
1, 329440, Note_on_c, 0, 43, 30
1, 329441, Note_on_c, 0, 48, 28
1, 329442, Control_c, 0, 64, 69
1, 329456, Control_c, 0, 64, 49
1, 329471, Control_c, 0, 64, 0
1, 329560, Control_c, 0, 64, 25
1, 329575, Control_c, 0, 64, 62
1, 329589, Control_c, 0, 64, 67
1, 329597, Note_off_c, 0, 48, 45
1, 329604, Control_c, 0, 64, 70
1, 329619, Note_off_c, 0, 43, 42
1, 329619, Control_c, 0, 64, 71
1, 329636, Note_off_c, 0, 36, 43
1, 329647, Note_off_c, 0, 51, 40
1, 329683, Note_off_c, 0, 55, 49
1, 329730, Control_c, 0, 64, 70
1, 329745, Control_c, 0, 64, 69
1, 329760, Control_c, 0, 64, 67
1, 329775, Control_c, 0, 64, 63
1, 329789, Control_c, 0, 64, 56
1, 329804, Control_c, 0, 64, 40
1, 329819, Control_c, 0, 64, 0
1, 330101, Control_c, 0, 64, 57
1, 330116, Control_c, 0, 64, 66
1, 330131, Control_c, 0, 64, 68
1, 330145, Control_c, 0, 64, 69
1, 330171, Note_off_c, 0, 60, 56
1, 330175, Control_c, 0, 64, 69
1, 330190, Control_c, 0, 64, 70
1, 330205, Control_c, 0, 64, 70
1, 330215, Note_on_c, 0, 62, 36
1, 330219, Control_c, 0, 64, 71
1, 330234, Control_c, 0, 64, 71
1, 330293, Control_c, 0, 64, 71
1, 330323, Control_c, 0, 64, 70
1, 330334, Note_on_c, 0, 60, 36
1, 330337, Control_c, 0, 64, 70
1, 330352, Control_c, 0, 64, 69
1, 330390, Control_c, 0, 64, 69
1, 330405, Control_c, 0, 64, 68
1, 330434, Control_c, 0, 64, 67
1, 330449, Control_c, 0, 64, 67
1, 330464, Control_c, 0, 64, 65
1, 330479, Control_c, 0, 64, 64
1, 330493, Control_c, 0, 64, 62
1, 330508, Control_c, 0, 64, 58
1, 330523, Control_c, 0, 64, 55
1, 330525, Note_on_c, 0, 55, 40
1, 330531, Note_on_c, 0, 43, 27
1, 330531, Note_on_c, 0, 47, 24
1, 330531, Note_off_c, 0, 62, 17
1, 330533, Note_on_c, 0, 50, 31
1, 330537, Control_c, 0, 64, 52
1, 330552, Control_c, 0, 64, 48
1, 330567, Control_c, 0, 64, 39
1, 330574, Note_off_c, 0, 60, 26
1, 330582, Control_c, 0, 64, 0
1, 330834, Control_c, 0, 64, 52
1, 330849, Control_c, 0, 64, 64
1, 330865, Control_c, 0, 64, 67
1, 330880, Control_c, 0, 64, 69
1, 330895, Control_c, 0, 64, 70
1, 330909, Control_c, 0, 64, 71
1, 330924, Control_c, 0, 64, 73
1, 330939, Control_c, 0, 64, 75
1, 330954, Control_c, 0, 64, 77
1, 330968, Control_c, 0, 64, 79
1, 330983, Control_c, 0, 64, 80
1, 330998, Control_c, 0, 64, 81
1, 331013, Control_c, 0, 64, 82
1, 331028, Control_c, 0, 64, 83
1, 331042, Control_c, 0, 64, 84
1, 331057, Control_c, 0, 64, 85
1, 331072, Control_c, 0, 64, 86
1, 331087, Control_c, 0, 64, 87
1, 331102, Control_c, 0, 64, 88
1, 331116, Control_c, 0, 64, 89
1, 331139, Control_c, 0, 64, 90
1, 331154, Control_c, 0, 64, 90
1, 331168, Control_c, 0, 64, 91
1, 331183, Control_c, 0, 64, 91
1, 331213, Control_c, 0, 64, 92
1, 331228, Control_c, 0, 64, 92
1, 331242, Control_c, 0, 64, 93
1, 331272, Control_c, 0, 64, 93
1, 331302, Control_c, 0, 64, 94
1, 331331, Control_c, 0, 64, 94
1, 331360, Control_c, 0, 64, 95
1, 331405, Note_off_c, 0, 47, 24
1, 331405, Control_c, 0, 64, 95
1, 331449, Control_c, 0, 64, 96
1, 331598, Control_c, 0, 64, 96
1, 331792, Note_off_c, 0, 43, 32
1, 332065, Note_off_c, 0, 50, 39
1, 332102, Note_off_c, 0, 55, 44
1, 332555, Control_c, 0, 64, 96
1, 332667, Control_c, 0, 64, 95
1, 332696, Control_c, 0, 64, 95
1, 332710, Note_on_c, 0, 63, 35
1, 332711, Control_c, 0, 64, 94
1, 332722, Note_on_c, 0, 58, 37
1, 332725, Note_on_c, 0, 31, 28
1, 332726, Control_c, 0, 64, 93
1, 332727, Note_on_c, 0, 43, 24
1, 332728, Note_on_c, 0, 51, 22
1, 332740, Control_c, 0, 64, 92
1, 332755, Control_c, 0, 64, 90
1, 332770, Control_c, 0, 64, 88
1, 332785, Control_c, 0, 64, 85
1, 332800, Control_c, 0, 64, 82
1, 332814, Control_c, 0, 64, 78
1, 332829, Control_c, 0, 64, 74
1, 332844, Control_c, 0, 64, 68
1, 332859, Control_c, 0, 64, 61
1, 332874, Control_c, 0, 64, 0
1, 332892, Note_off_c, 0, 43, 42
1, 332904, Note_off_c, 0, 51, 54
1, 332904, Note_off_c, 0, 58, 61
1, 332913, Note_off_c, 0, 31, 55
1, 333170, Control_c, 0, 64, 41
1, 333185, Control_c, 0, 64, 63
1, 333199, Control_c, 0, 64, 68
1, 333214, Control_c, 0, 64, 71
1, 333229, Control_c, 0, 64, 73
1, 333244, Control_c, 0, 64, 74
1, 333275, Control_c, 0, 64, 75
1, 333321, Note_on_c, 0, 34, 24
1, 333326, Note_on_c, 0, 62, 45
1, 333328, Note_on_c, 0, 53, 31
1, 333328, Note_on_c, 0, 58, 36
1, 333341, Note_on_c, 0, 46, 25
1, 333386, Control_c, 0, 64, 74
1, 333401, Control_c, 0, 64, 74
1, 333416, Control_c, 0, 64, 73
1, 333431, Control_c, 0, 64, 72
1, 333433, Note_off_c, 0, 63, 39
1, 333445, Control_c, 0, 64, 71
1, 333460, Control_c, 0, 64, 68
1, 333475, Control_c, 0, 64, 64
1, 333490, Control_c, 0, 64, 54
1, 333505, Control_c, 0, 64, 39
1, 333506, Note_off_c, 0, 34, 56
1, 333518, Note_off_c, 0, 46, 41
1, 333519, Control_c, 0, 64, 34
1, 333522, Note_off_c, 0, 53, 52
1, 333534, Control_c, 0, 64, 34
1, 333542, Note_off_c, 0, 58, 63
1, 333563, Control_c, 0, 64, 29
1, 333578, Control_c, 0, 64, 0
1, 333712, Control_c, 0, 64, 58
1, 333727, Control_c, 0, 64, 66
1, 333742, Control_c, 0, 64, 70
1, 333756, Control_c, 0, 64, 72
1, 333771, Control_c, 0, 64, 73
1, 333889, Control_c, 0, 64, 72
1, 333904, Control_c, 0, 64, 72
1, 333919, Control_c, 0, 64, 71
1, 333926, Note_on_c, 0, 60, 40
1, 333934, Control_c, 0, 64, 69
1, 333938, Note_on_c, 0, 36, 24
1, 333940, Note_off_c, 0, 62, 35
1, 333947, Note_on_c, 0, 51, 29
1, 333949, Control_c, 0, 64, 67
1, 333959, Note_on_c, 0, 55, 32
1, 333961, Note_on_c, 0, 48, 4
1, 333963, Control_c, 0, 64, 63
1, 333978, Control_c, 0, 64, 52
1, 333993, Control_c, 0, 64, 0
1, 334114, Note_off_c, 0, 48, 44
1, 334123, Note_off_c, 0, 36, 41
1, 334141, Note_off_c, 0, 51, 51
1, 334153, Note_off_c, 0, 55, 57
1, 334209, Control_c, 0, 64, 48
1, 334224, Control_c, 0, 64, 67
1, 334239, Control_c, 0, 64, 71
1, 334253, Control_c, 0, 64, 75
1, 334268, Control_c, 0, 64, 76
1, 334283, Control_c, 0, 64, 77
1, 334298, Control_c, 0, 64, 77
1, 334312, Control_c, 0, 64, 78
1, 334327, Control_c, 0, 64, 78
1, 334549, Control_c, 0, 64, 78
1, 334564, Control_c, 0, 64, 77
1, 334578, Control_c, 0, 64, 76
1, 334588, Note_on_c, 0, 50, 28
1, 334590, Note_on_c, 0, 55, 40
1, 334593, Control_c, 0, 64, 74
1, 334608, Control_c, 0, 64, 72
1, 334609, Note_on_c, 0, 47, 21
1, 334609, Note_on_c, 0, 43, 18
1, 334623, Control_c, 0, 64, 67
1, 334638, Control_c, 0, 64, 57
1, 334652, Control_c, 0, 64, 0
1, 334701, Note_off_c, 0, 60, 38
1, 334770, Note_off_c, 0, 47, 44
1, 334783, Note_off_c, 0, 50, 46
1, 334785, Note_off_c, 0, 43, 43
1, 334972, Control_c, 0, 64, 64
1, 334987, Control_c, 0, 64, 72
1, 335001, Control_c, 0, 64, 78
1, 335016, Control_c, 0, 64, 82
1, 335031, Control_c, 0, 64, 84
1, 335032, Note_off_c, 0, 55, 54
1, 335046, Control_c, 0, 64, 85
1, 335061, Control_c, 0, 64, 87
1, 335075, Control_c, 0, 64, 88
1, 335090, Control_c, 0, 64, 89
1, 335105, Control_c, 0, 64, 90
1, 335120, Control_c, 0, 64, 90
1, 335283, Control_c, 0, 64, 90
1, 335327, Control_c, 0, 64, 89
1, 335342, Control_c, 0, 64, 88
1, 335357, Control_c, 0, 64, 86
1, 335360, Note_on_c, 0, 55, 38
1, 335362, Note_on_c, 0, 60, 44
1, 335363, Note_on_c, 0, 51, 35
1, 335372, Control_c, 0, 64, 82
1, 335381, Note_on_c, 0, 36, 28
1, 335387, Control_c, 0, 64, 76
1, 335390, Note_on_c, 0, 43, 23
1, 335401, Note_on_c, 0, 48, 15
1, 335401, Control_c, 0, 64, 69
1, 335416, Control_c, 0, 64, 46
1, 335431, Control_c, 0, 64, 0
1, 335527, Note_off_c, 0, 48, 41
1, 335534, Control_c, 0, 64, 63
1, 335545, Note_off_c, 0, 51, 43
1, 335547, Note_off_c, 0, 43, 41
1, 335549, Control_c, 0, 64, 68
1, 335560, Note_off_c, 0, 36, 42
1, 335564, Control_c, 0, 64, 71
1, 335581, Note_off_c, 0, 55, 55
1, 335631, Control_c, 0, 64, 70
1, 335646, Control_c, 0, 64, 68
1, 335661, Control_c, 0, 64, 65
1, 335676, Control_c, 0, 64, 57
1, 335691, Control_c, 0, 64, 26
1, 335706, Control_c, 0, 64, 0
1, 336057, Note_off_c, 0, 60, 50
1, 336102, Note_on_c, 0, 62, 32
1, 336237, Note_on_c, 0, 60, 32
1, 336415, Note_on_c, 0, 47, 27
1, 336416, Note_on_c, 0, 43, 25
1, 336424, Note_on_c, 0, 50, 23
1, 336424, Note_on_c, 0, 55, 36
1, 336426, Note_off_c, 0, 62, 27
1, 336483, Note_off_c, 0, 60, 28
1, 336663, Control_c, 0, 64, 44
1, 336678, Control_c, 0, 64, 59
1, 336693, Control_c, 0, 64, 64
1, 336707, Control_c, 0, 64, 65
1, 336722, Control_c, 0, 64, 66
1, 336737, Control_c, 0, 64, 67
1, 336752, Control_c, 0, 64, 69
1, 336767, Control_c, 0, 64, 70
1, 336781, Control_c, 0, 64, 72
1, 336796, Control_c, 0, 64, 74
1, 336811, Control_c, 0, 64, 77
1, 336826, Control_c, 0, 64, 78
1, 336841, Control_c, 0, 64, 79
1, 336855, Control_c, 0, 64, 80
1, 336870, Control_c, 0, 64, 81
1, 336885, Control_c, 0, 64, 82
1, 336899, Control_c, 0, 64, 84
1, 336914, Control_c, 0, 64, 85
1, 336929, Control_c, 0, 64, 86
1, 336944, Control_c, 0, 64, 87
1, 336959, Control_c, 0, 64, 88
1, 336959, Control_c, 0, 67, 11
1, 336973, Control_c, 0, 64, 89
1, 336973, Control_c, 0, 67, 15
1, 336988, Control_c, 0, 64, 89
1, 336988, Control_c, 0, 67, 20
1, 337003, Control_c, 0, 64, 90
1, 337003, Control_c, 0, 67, 26
1, 337018, Control_c, 0, 64, 91
1, 337018, Control_c, 0, 67, 34
1, 337033, Control_c, 0, 64, 91
1, 337033, Control_c, 0, 67, 41
1, 337047, Control_c, 0, 64, 92
1, 337047, Control_c, 0, 67, 49
1, 337062, Control_c, 0, 64, 93
1, 337062, Control_c, 0, 67, 59
1, 337077, Control_c, 0, 64, 93
1, 337077, Control_c, 0, 67, 67
1, 337092, Control_c, 0, 64, 94
1, 337092, Control_c, 0, 67, 75
1, 337107, Control_c, 0, 64, 95
1, 337107, Control_c, 0, 67, 82
1, 337129, Control_c, 0, 64, 96
1, 337129, Control_c, 0, 67, 89
1, 337144, Control_c, 0, 64, 97
1, 337144, Control_c, 0, 67, 94
1, 337159, Control_c, 0, 64, 97
1, 337159, Control_c, 0, 67, 100
1, 337174, Control_c, 0, 64, 98
1, 337174, Control_c, 0, 67, 104
1, 337188, Control_c, 0, 64, 99
1, 337188, Control_c, 0, 67, 107
1, 337203, Control_c, 0, 64, 99
1, 337203, Control_c, 0, 67, 110
1, 337218, Control_c, 0, 64, 100
1, 337218, Control_c, 0, 67, 113
1, 337233, Control_c, 0, 64, 100
1, 337233, Control_c, 0, 67, 116
1, 337248, Control_c, 0, 64, 101
1, 337248, Control_c, 0, 67, 121
1, 337264, Control_c, 0, 67, 125
1, 337278, Control_c, 0, 64, 101
1, 337278, Control_c, 0, 67, 127
1, 337293, Note_off_c, 0, 47, 38
1, 337293, Control_c, 0, 64, 102
1, 337323, Control_c, 0, 64, 102
1, 337351, Note_off_c, 0, 50, 34
1, 337367, Control_c, 0, 64, 103
1, 337380, Note_off_c, 0, 43, 38
1, 337426, Control_c, 0, 64, 103
1, 337453, Note_off_c, 0, 55, 43
1, 337530, Control_c, 0, 64, 104
1, 337664, Control_c, 0, 64, 104
1, 338544, Control_c, 0, 64, 104
1, 338580, Note_on_c, 0, 60, 37
1, 338585, Note_on_c, 0, 55, 38
1, 338588, Note_on_c, 0, 51, 31
1, 338588, Control_c, 0, 64, 103
1, 338599, Note_on_c, 0, 36, 20
1, 338603, Control_c, 0, 64, 102
1, 338610, Note_on_c, 0, 43, 27
1, 338614, Note_on_c, 0, 48, 25
1, 338625, Control_c, 0, 64, 101
1, 338640, Control_c, 0, 64, 100
1, 338655, Control_c, 0, 64, 98
1, 338670, Control_c, 0, 64, 95
1, 338684, Control_c, 0, 64, 92
1, 338699, Control_c, 0, 64, 87
1, 338714, Control_c, 0, 64, 82
1, 338729, Control_c, 0, 64, 76
1, 338744, Control_c, 0, 64, 70
1, 338758, Control_c, 0, 64, 63
1, 338773, Control_c, 0, 64, 46
1, 338788, Control_c, 0, 64, 31
1, 338803, Control_c, 0, 64, 45
1, 338818, Control_c, 0, 64, 61
1, 338833, Control_c, 0, 64, 66
1, 338848, Control_c, 0, 64, 70
1, 338863, Control_c, 0, 64, 74
1, 338878, Control_c, 0, 64, 77
1, 338885, Note_off_c, 0, 48, 56
1, 338893, Control_c, 0, 64, 79
1, 338907, Control_c, 0, 64, 81
1, 338922, Control_c, 0, 64, 82
1, 338923, Note_off_c, 0, 43, 38
1, 338934, Note_off_c, 0, 51, 54
1, 338937, Note_off_c, 0, 55, 42
1, 338937, Control_c, 0, 64, 82
1, 338940, Note_off_c, 0, 36, 41
1, 338952, Control_c, 0, 64, 83
1, 338967, Control_c, 0, 64, 84
1, 338997, Control_c, 0, 64, 84
1, 338998, Note_off_c, 0, 60, 37
1, 339220, Control_c, 0, 64, 83
1, 339235, Control_c, 0, 64, 82
1, 339249, Control_c, 0, 64, 81
1, 339253, Note_on_c, 0, 55, 41
1, 339264, Control_c, 0, 64, 79
1, 339265, Note_on_c, 0, 50, 33
1, 339269, Note_on_c, 0, 43, 26
1, 339272, Note_on_c, 0, 47, 31
1, 339279, Control_c, 0, 64, 77
1, 339293, Control_c, 0, 64, 73
1, 339308, Control_c, 0, 64, 68
1, 339323, Control_c, 0, 64, 60
1, 339338, Control_c, 0, 64, 0
1, 339568, Control_c, 0, 64, 49
1, 339582, Control_c, 0, 64, 63
1, 339597, Control_c, 0, 64, 65
1, 339612, Control_c, 0, 64, 67
1, 339626, Control_c, 0, 64, 69
1, 339643, Control_c, 0, 64, 71
1, 339658, Control_c, 0, 64, 74
1, 339672, Control_c, 0, 64, 76
1, 339687, Control_c, 0, 64, 78
1, 339702, Control_c, 0, 64, 79
1, 339716, Control_c, 0, 64, 79
1, 339731, Control_c, 0, 64, 80
1, 339746, Control_c, 0, 64, 81
1, 339761, Control_c, 0, 64, 82
1, 339776, Control_c, 0, 64, 83
1, 339790, Control_c, 0, 64, 83
1, 339805, Control_c, 0, 64, 84
1, 339820, Control_c, 0, 64, 85
1, 339835, Control_c, 0, 64, 85
1, 339843, Note_off_c, 0, 47, 37
1, 339850, Control_c, 0, 64, 86
1, 339852, Note_off_c, 0, 43, 35
1, 339865, Control_c, 0, 64, 86
1, 339879, Control_c, 0, 64, 87
1, 339924, Control_c, 0, 64, 87
1, 339939, Note_off_c, 0, 50, 32
1, 339984, Control_c, 0, 64, 88
1, 340019, Note_off_c, 0, 55, 36
1, 341182, Note_on_c, 0, 51, 29
1, 341195, Note_on_c, 0, 60, 40
1, 341204, Note_on_c, 0, 55, 46
1, 341212, Note_on_c, 0, 48, 37
1, 341213, Control_c, 0, 64, 87
1, 341214, Note_on_c, 0, 36, 36
1, 341215, Note_on_c, 0, 43, 31
1, 341227, Control_c, 0, 64, 87
1, 341243, Control_c, 0, 64, 86
1, 341258, Control_c, 0, 64, 84
1, 341273, Control_c, 0, 64, 82
1, 341288, Control_c, 0, 64, 79
1, 341302, Control_c, 0, 64, 73
1, 341317, Control_c, 0, 64, 66
1, 341332, Control_c, 0, 64, 41
1, 341347, Control_c, 0, 64, 0
1, 341421, Control_c, 0, 64, 56
1, 341436, Control_c, 0, 64, 64
1, 341450, Control_c, 0, 64, 68
1, 341465, Control_c, 0, 64, 72
1, 341480, Control_c, 0, 64, 75
1, 341495, Control_c, 0, 64, 77
1, 341510, Control_c, 0, 64, 78
1, 341525, Control_c, 0, 64, 79
1, 341532, Note_off_c, 0, 51, 55
1, 341540, Control_c, 0, 64, 80
1, 341548, Note_off_c, 0, 48, 40
1, 341554, Control_c, 0, 64, 81
1, 341563, Note_off_c, 0, 43, 39
1, 341569, Control_c, 0, 64, 82
1, 341572, Note_off_c, 0, 55, 48
1, 341575, Note_off_c, 0, 36, 41
1, 341584, Control_c, 0, 64, 82
1, 341766, Note_off_c, 0, 60, 19
1, 341843, Control_c, 0, 64, 82
1, 341858, Control_c, 0, 64, 81
1, 341869, Note_on_c, 0, 55, 48
1, 341870, Note_on_c, 0, 50, 34
1, 341872, Note_on_c, 0, 47, 35
1, 341873, Control_c, 0, 64, 80
1, 341878, Note_on_c, 0, 43, 34
1, 341888, Control_c, 0, 64, 78
1, 341902, Control_c, 0, 64, 75
1, 341917, Control_c, 0, 64, 70
1, 341932, Control_c, 0, 64, 62
1, 341947, Control_c, 0, 64, 0
1, 342052, Control_c, 0, 64, 53
1, 342067, Control_c, 0, 64, 66
1, 342082, Control_c, 0, 64, 70
1, 342097, Control_c, 0, 64, 73
1, 342112, Control_c, 0, 64, 74
1, 342126, Note_off_c, 0, 47, 56
1, 342126, Control_c, 0, 64, 75
1, 342132, Note_off_c, 0, 43, 52
1, 342141, Note_off_c, 0, 50, 58
1, 342141, Control_c, 0, 64, 76
1, 342156, Control_c, 0, 64, 77
1, 342171, Control_c, 0, 64, 78
1, 342174, Note_off_c, 0, 55, 65
1, 342186, Control_c, 0, 64, 79
1, 342200, Control_c, 0, 64, 79
1, 342215, Control_c, 0, 64, 80
1, 342230, Control_c, 0, 64, 80
1, 342245, Control_c, 0, 64, 81
1, 342260, Control_c, 0, 64, 81
1, 342274, Control_c, 0, 64, 82
1, 342289, Control_c, 0, 64, 82
1, 342304, Control_c, 0, 64, 83
1, 342460, Note_on_c, 0, 60, 51
1, 342460, Control_c, 0, 64, 82
1, 342464, Note_on_c, 0, 55, 52
1, 342464, Note_on_c, 0, 51, 39
1, 342469, Note_on_c, 0, 48, 39
1, 342474, Control_c, 0, 64, 81
1, 342478, Note_on_c, 0, 36, 29
1, 342486, Note_on_c, 0, 43, 32
1, 342489, Control_c, 0, 64, 79
1, 342504, Control_c, 0, 64, 77
1, 342518, Control_c, 0, 64, 73
1, 342533, Control_c, 0, 64, 67
1, 342548, Control_c, 0, 64, 31
1, 342563, Control_c, 0, 64, 0
1, 342666, Control_c, 0, 64, 56
1, 342681, Control_c, 0, 64, 67
1, 342696, Control_c, 0, 64, 72
1, 342711, Control_c, 0, 64, 76
1, 342719, Note_off_c, 0, 48, 54
1, 342726, Control_c, 0, 64, 77
1, 342734, Note_off_c, 0, 43, 48
1, 342738, Note_off_c, 0, 36, 50
1, 342741, Control_c, 0, 64, 78
1, 342756, Control_c, 0, 64, 78
1, 342769, Note_off_c, 0, 55, 62
1, 342771, Control_c, 0, 64, 79
1, 342786, Note_off_c, 0, 51, 62
1, 342786, Control_c, 0, 64, 80
1, 342796, Note_off_c, 0, 60, 55
1, 342800, Control_c, 0, 64, 81
1, 342815, Control_c, 0, 64, 82
1, 342830, Control_c, 0, 64, 83
1, 342845, Control_c, 0, 64, 83
1, 343053, Control_c, 0, 64, 83
1, 343060, Note_on_c, 0, 43, 33
1, 343067, Control_c, 0, 64, 82
1, 343070, Note_on_c, 0, 55, 48
1, 343075, Note_on_c, 0, 47, 39
1, 343082, Note_on_c, 0, 50, 39
1, 343082, Control_c, 0, 64, 80
1, 343097, Control_c, 0, 64, 77
1, 343119, Control_c, 0, 64, 72
1, 343134, Control_c, 0, 64, 65
1, 343149, Control_c, 0, 64, 0
1, 343253, Control_c, 0, 64, 39
1, 343267, Control_c, 0, 64, 64
1, 343282, Control_c, 0, 64, 70
1, 343297, Control_c, 0, 64, 73
1, 343312, Control_c, 0, 64, 76
1, 343327, Control_c, 0, 64, 77
1, 343341, Control_c, 0, 64, 77
1, 343356, Control_c, 0, 64, 78
1, 343371, Control_c, 0, 64, 79
1, 343386, Control_c, 0, 64, 80
1, 343388, Note_off_c, 0, 50, 58
1, 343392, Note_off_c, 0, 47, 50
1, 343401, Control_c, 0, 64, 80
1, 343404, Note_off_c, 0, 43, 50
1, 343415, Control_c, 0, 64, 81
1, 343427, Note_off_c, 0, 55, 65
1, 343459, Control_c, 0, 64, 81
1, 343578, Control_c, 0, 64, 82
1, 343728, Control_c, 0, 64, 81
1, 343802, Control_c, 0, 64, 81
1, 343817, Control_c, 0, 64, 80
1, 343832, Control_c, 0, 64, 78
1, 343834, Note_on_c, 0, 51, 44
1, 343835, Note_on_c, 0, 60, 47
1, 343840, Note_on_c, 0, 55, 52
1, 343846, Control_c, 0, 64, 76
1, 343866, Note_on_c, 0, 36, 34
1, 343868, Control_c, 0, 64, 72
1, 343869, Note_on_c, 0, 43, 25
1, 343879, Note_on_c, 0, 48, 27
1, 343883, Control_c, 0, 64, 66
1, 343897, Control_c, 0, 64, 34
1, 343912, Control_c, 0, 64, 0
1, 344032, Control_c, 0, 64, 63
1, 344046, Control_c, 0, 64, 69
1, 344061, Control_c, 0, 64, 74
1, 344076, Control_c, 0, 64, 77
1, 344090, Control_c, 0, 64, 79
1, 344105, Control_c, 0, 64, 80
1, 344120, Control_c, 0, 64, 82
1, 344135, Control_c, 0, 64, 84
1, 344150, Control_c, 0, 64, 87
1, 344159, Note_off_c, 0, 48, 42
1, 344164, Control_c, 0, 64, 90
1, 344179, Control_c, 0, 64, 92
1, 344194, Control_c, 0, 64, 93
1, 344200, Note_off_c, 0, 43, 42
1, 344209, Control_c, 0, 64, 93
1, 344220, Note_off_c, 0, 36, 42
1, 344223, Control_c, 0, 64, 94
1, 344238, Control_c, 0, 64, 94
1, 344253, Control_c, 0, 64, 95
1, 344268, Control_c, 0, 64, 96
1, 344270, Note_off_c, 0, 55, 65
1, 344297, Control_c, 0, 64, 96
1, 344309, Note_off_c, 0, 60, 57
1, 344342, Control_c, 0, 64, 97
1, 344371, Control_c, 0, 64, 97
1, 344383, Note_off_c, 0, 51, 33
1, 344401, Control_c, 0, 64, 98
1, 344432, Control_c, 0, 64, 98
1, 344461, Control_c, 0, 64, 99
1, 344506, Control_c, 0, 64, 99
1, 344988, Note_on_c, 0, 50, 43
1, 344997, Note_on_c, 0, 55, 45
1, 345002, Control_c, 0, 64, 99
1, 345004, Note_on_c, 0, 47, 31
1, 345017, Control_c, 0, 64, 98
1, 345018, Note_on_c, 0, 43, 34
1, 345031, Control_c, 0, 64, 96
1, 345045, Control_c, 0, 64, 93
1, 345060, Control_c, 0, 64, 89
1, 345075, Control_c, 0, 64, 85
1, 345090, Control_c, 0, 64, 80
1, 345105, Control_c, 0, 64, 73
1, 345120, Control_c, 0, 64, 64
1, 345135, Control_c, 0, 64, 0
1, 345395, Control_c, 0, 64, 62
1, 345409, Control_c, 0, 64, 68
1, 345424, Control_c, 0, 64, 72
1, 345439, Control_c, 0, 64, 74
1, 345454, Control_c, 0, 64, 76
1, 345468, Control_c, 0, 64, 78
1, 345483, Control_c, 0, 64, 79
1, 345498, Control_c, 0, 64, 81
1, 345513, Control_c, 0, 64, 83
1, 345528, Control_c, 0, 64, 84
1, 345543, Control_c, 0, 64, 86
1, 345558, Control_c, 0, 64, 88
1, 345573, Control_c, 0, 64, 90
1, 345588, Control_c, 0, 64, 91
1, 345603, Control_c, 0, 64, 92
1, 345617, Control_c, 0, 64, 93
1, 345632, Control_c, 0, 64, 94
1, 345647, Control_c, 0, 64, 95
1, 345661, Control_c, 0, 64, 96
1, 345676, Control_c, 0, 64, 97
1, 345691, Control_c, 0, 64, 99
1, 345706, Control_c, 0, 64, 100
1, 345721, Control_c, 0, 64, 101
1, 345735, Control_c, 0, 64, 102
1, 345750, Control_c, 0, 64, 103
1, 345765, Control_c, 0, 64, 105
1, 345781, Control_c, 0, 64, 106
1, 345796, Control_c, 0, 64, 107
1, 345810, Control_c, 0, 64, 108
1, 345840, Control_c, 0, 64, 109
1, 345855, Control_c, 0, 64, 109
1, 345869, Control_c, 0, 64, 110
1, 345884, Control_c, 0, 64, 110
1, 345899, Control_c, 0, 64, 111
1, 345929, Control_c, 0, 64, 111
1, 345958, Control_c, 0, 64, 112
1, 345988, Control_c, 0, 64, 112
1, 346017, Control_c, 0, 64, 113
1, 346048, Control_c, 0, 64, 113
1, 346115, Control_c, 0, 64, 114
1, 346893, Note_off_c, 0, 43, 27
1, 346910, Note_off_c, 0, 47, 33
1, 347047, Note_off_c, 0, 55, 37
1, 347126, Note_off_c, 0, 50, 34
1, 348821, Control_c, 0, 64, 113
1, 348825, Note_on_c, 0, 55, 34
1, 348827, Note_on_c, 0, 51, 28
1, 348834, Note_on_c, 0, 43, 30
1, 348835, Control_c, 0, 64, 113
1, 348850, Control_c, 0, 64, 112
1, 348851, Note_on_c, 0, 36, 29
1, 348854, Note_on_c, 0, 48, 29
1, 348865, Control_c, 0, 64, 111
1, 348879, Control_c, 0, 64, 109
1, 348894, Control_c, 0, 64, 107
1, 348909, Control_c, 0, 64, 104
1, 348924, Control_c, 0, 64, 101
1, 348939, Control_c, 0, 64, 99
1, 348953, Control_c, 0, 64, 95
1, 348968, Control_c, 0, 64, 91
1, 348983, Control_c, 0, 64, 87
1, 348998, Control_c, 0, 64, 83
1, 349013, Control_c, 0, 64, 78
1, 349028, Control_c, 0, 64, 74
1, 349042, Control_c, 0, 64, 68
1, 349057, Control_c, 0, 64, 58
1, 349072, Control_c, 0, 64, 0
1, 349377, Control_c, 0, 64, 46
1, 349391, Control_c, 0, 64, 58
1, 349406, Control_c, 0, 64, 62
1, 349421, Control_c, 0, 64, 63
1, 349436, Control_c, 0, 64, 64
1, 349451, Control_c, 0, 64, 65
1, 349466, Control_c, 0, 64, 67
1, 349481, Control_c, 0, 64, 69
1, 349496, Control_c, 0, 64, 71
1, 349510, Control_c, 0, 64, 74
1, 349525, Control_c, 0, 64, 76
1, 349540, Control_c, 0, 64, 77
1, 349555, Control_c, 0, 64, 78
1, 349570, Control_c, 0, 64, 79
1, 349584, Control_c, 0, 64, 80
1, 349599, Control_c, 0, 64, 81
1, 349614, Control_c, 0, 64, 82
1, 349628, Control_c, 0, 64, 84
1, 349643, Control_c, 0, 64, 85
1, 349658, Control_c, 0, 64, 86
1, 349673, Control_c, 0, 64, 87
1, 349688, Control_c, 0, 64, 88
1, 349702, Control_c, 0, 64, 90
1, 349717, Control_c, 0, 64, 91
1, 349732, Control_c, 0, 64, 93
1, 349747, Control_c, 0, 64, 94
1, 349762, Control_c, 0, 64, 96
1, 349776, Control_c, 0, 64, 97
1, 349791, Control_c, 0, 64, 98
1, 349806, Control_c, 0, 64, 100
1, 349821, Control_c, 0, 64, 101
1, 349835, Control_c, 0, 64, 103
1, 349858, Control_c, 0, 64, 104
1, 349873, Control_c, 0, 64, 105
1, 349888, Control_c, 0, 64, 106
1, 349903, Control_c, 0, 64, 107
1, 349917, Control_c, 0, 64, 108
1, 349932, Control_c, 0, 64, 109
1, 349947, Control_c, 0, 64, 110
1, 349962, Control_c, 0, 64, 110
1, 349977, Control_c, 0, 64, 111
1, 349991, Control_c, 0, 64, 112
1, 350006, Control_c, 0, 64, 113
1, 350021, Control_c, 0, 64, 113
1, 350037, Control_c, 0, 64, 114
1, 350051, Control_c, 0, 64, 115
1, 350066, Control_c, 0, 64, 115
1, 350081, Control_c, 0, 64, 116
1, 350096, Control_c, 0, 64, 116
1, 350111, Control_c, 0, 64, 117
1, 350126, Control_c, 0, 64, 117
1, 350140, Control_c, 0, 64, 118
1, 350155, Control_c, 0, 64, 118
1, 350170, Control_c, 0, 64, 119
1, 350200, Control_c, 0, 64, 119
1, 350214, Control_c, 0, 64, 120
1, 350229, Control_c, 0, 64, 120
1, 350244, Control_c, 0, 64, 121
1, 350259, Control_c, 0, 64, 121
1, 350274, Control_c, 0, 64, 122
1, 350289, Control_c, 0, 64, 123
1, 350303, Control_c, 0, 64, 123
1, 350318, Control_c, 0, 64, 124
1, 350333, Control_c, 0, 64, 125
1, 350348, Control_c, 0, 64, 125
1, 350363, Control_c, 0, 64, 126
1, 350378, Control_c, 0, 64, 127
1, 350393, Control_c, 0, 64, 127
1, 351140, Control_c, 0, 67, 126
1, 351154, Control_c, 0, 67, 124
1, 351169, Control_c, 0, 67, 122
1, 351184, Control_c, 0, 67, 121
1, 351199, Control_c, 0, 67, 120
1, 351214, Control_c, 0, 67, 120
1, 351228, Control_c, 0, 67, 119
1, 351243, Control_c, 0, 67, 118
1, 351258, Control_c, 0, 67, 117
1, 351272, Control_c, 0, 67, 116
1, 351287, Control_c, 0, 67, 116
1, 351302, Control_c, 0, 67, 115
1, 351317, Control_c, 0, 67, 114
1, 351332, Control_c, 0, 67, 112
1, 351354, Control_c, 0, 67, 110
1, 351369, Control_c, 0, 67, 108
1, 351384, Control_c, 0, 67, 107
1, 351399, Control_c, 0, 67, 104
1, 351413, Control_c, 0, 67, 102
1, 351428, Control_c, 0, 67, 101
1, 351443, Control_c, 0, 67, 99
1, 351458, Control_c, 0, 67, 98
1, 351473, Control_c, 0, 67, 97
1, 351487, Control_c, 0, 67, 96
1, 351502, Control_c, 0, 67, 94
1, 351517, Control_c, 0, 67, 93
1, 351532, Control_c, 0, 67, 91
1, 351547, Control_c, 0, 67, 90
1, 351561, Control_c, 0, 67, 88
1, 351576, Control_c, 0, 67, 87
1, 351591, Control_c, 0, 67, 87
1, 351606, Control_c, 0, 67, 86
1, 351621, Control_c, 0, 67, 85
1, 351637, Control_c, 0, 67, 84
1, 351651, Control_c, 0, 67, 83
1, 351666, Control_c, 0, 67, 82
1, 351681, Control_c, 0, 67, 81
1, 351696, Control_c, 0, 67, 80
1, 351710, Control_c, 0, 67, 79
1, 351725, Control_c, 0, 67, 78
1, 351740, Control_c, 0, 67, 77
1, 351755, Control_c, 0, 67, 76
1, 351770, Control_c, 0, 67, 75
1, 351785, Control_c, 0, 67, 74
1, 351800, Control_c, 0, 67, 74
1, 351815, Control_c, 0, 67, 73
1, 351829, Control_c, 0, 67, 72
1, 351844, Control_c, 0, 67, 70
1, 351859, Control_c, 0, 67, 69
1, 351874, Control_c, 0, 67, 67
1, 351889, Control_c, 0, 67, 66
1, 351903, Control_c, 0, 67, 65
1, 351918, Control_c, 0, 67, 64
1, 351933, Control_c, 0, 67, 63
1, 351948, Control_c, 0, 67, 61
1, 351963, Control_c, 0, 67, 60
1, 351977, Control_c, 0, 67, 59
1, 351992, Control_c, 0, 67, 58
1, 352007, Control_c, 0, 67, 57
1, 352021, Control_c, 0, 67, 55
1, 352036, Control_c, 0, 67, 53
1, 352051, Control_c, 0, 67, 51
1, 352066, Control_c, 0, 67, 48
1, 352081, Control_c, 0, 67, 46
1, 352103, Control_c, 0, 67, 44
1, 352118, Control_c, 0, 67, 43
1, 352133, Control_c, 0, 67, 40
1, 352148, Control_c, 0, 67, 38
1, 352163, Control_c, 0, 67, 34
1, 352177, Control_c, 0, 67, 31
1, 352192, Control_c, 0, 67, 27
1, 352207, Control_c, 0, 67, 23
1, 352222, Control_c, 0, 67, 19
1, 352236, Control_c, 0, 67, 14
1, 352251, Control_c, 0, 67, 10
1, 352266, Control_c, 0, 67, 8
1, 352281, Control_c, 0, 67, 0
1, 352844, Note_off_c, 0, 43, 34
1, 352915, Note_off_c, 0, 55, 35
1, 352918, Note_off_c, 0, 36, 34
1, 352931, Note_off_c, 0, 48, 36
1, 352937, Note_off_c, 0, 51, 30
1, 353372, Control_c, 0, 64, 123
1, 353387, Control_c, 0, 64, 117
1, 353402, Control_c, 0, 64, 111
1, 353417, Control_c, 0, 64, 106
1, 353431, Control_c, 0, 64, 101
1, 353446, Control_c, 0, 64, 95
1, 353461, Control_c, 0, 64, 88
1, 353475, Control_c, 0, 64, 82
1, 353490, Control_c, 0, 64, 74
1, 353505, Control_c, 0, 64, 63
1, 353520, Control_c, 0, 64, 0
1, 353579, Note_on_c, 0, 84, 99
1, 353582, Note_on_c, 0, 72, 110
1, 353584, Note_on_c, 0, 75, 94
1, 353585, Note_on_c, 0, 48, 88
1, 353585, Note_on_c, 0, 60, 91
1, 353585, Note_on_c, 0, 79, 95
1, 353586, Note_on_c, 0, 51, 82
1, 353587, Note_on_c, 0, 55, 85
1, 353609, Note_off_c, 0, 60, 71
1, 353615, Note_off_c, 0, 84, 72
1, 353616, Note_off_c, 0, 55, 72
1, 353616, Control_c, 0, 64, 51
1, 353622, Note_off_c, 0, 75, 70
1, 353622, Note_off_c, 0, 79, 68
1, 353627, Note_off_c, 0, 51, 67
1, 353629, Note_off_c, 0, 48, 69
1, 353631, Note_off_c, 0, 72, 71
1, 353631, Control_c, 0, 64, 74
1, 353646, Control_c, 0, 64, 93
1, 353661, Control_c, 0, 64, 113
1, 353675, Control_c, 0, 64, 127
1, 353839, Control_c, 0, 64, 104
1, 353842, Note_on_c, 0, 48, 101
1, 353842, Note_on_c, 0, 60, 104
1, 353843, Note_on_c, 0, 36, 90
1, 353854, Control_c, 0, 64, 71
1, 353869, Control_c, 0, 64, 0
1, 353898, Control_c, 0, 64, 62
1, 353913, Control_c, 0, 64, 88
1, 353913, Note_off_c, 0, 60, 70
1, 353916, Note_off_c, 0, 48, 69
1, 353924, Note_off_c, 0, 36, 65
1, 353928, Control_c, 0, 64, 127
1, 354033, Control_c, 0, 64, 105
1, 354047, Control_c, 0, 64, 74
1, 354062, Control_c, 0, 64, 0
1, 355388, Note_on_c, 0, 60, 91
1, 355389, Note_on_c, 0, 36, 90
1, 355389, Note_on_c, 0, 51, 101
1, 355389, Note_on_c, 0, 55, 92
1, 355392, Note_on_c, 0, 48, 94
1, 355395, Note_on_c, 0, 43, 95
1, 355410, Control_c, 0, 64, 71
1, 355425, Control_c, 0, 64, 127
1, 355448, Note_off_c, 0, 48, 67
1, 355458, Note_off_c, 0, 43, 61
1, 355463, Note_off_c, 0, 36, 63
1, 355467, Note_off_c, 0, 51, 66
1, 355471, Note_off_c, 0, 55, 68
1, 355472, Note_off_c, 0, 60, 65
1, 355738, Control_c, 0, 64, 109
1, 355752, Control_c, 0, 64, 86
1, 355767, Control_c, 0, 64, 65
1, 355782, Control_c, 0, 64, 0
1, 355782, End_track
0, 0, End_of_file
